<svg width="24" height="24" viewBox="0 0 24 24" fill="none" xmlns="http://www.w3.org/2000/svg">
<path d="M13.8929 12.75H20.6429L21.1139 13.542C21.2196 13.7006 21.276 13.8869 21.276 14.0775C21.276 14.2681 21.2196 14.4544 21.1139 14.613L20.8139 15.06C20.7196 15.2016 20.6643 15.3656 20.6538 15.5354C20.6433 15.7052 20.6778 15.8748 20.7539 16.027L21.2539 17.027C21.321 17.1611 21.3559 17.309 21.3559 17.459C21.3559 17.609 21.321 17.7569 21.2539 17.891L20.683 19.032C20.5688 19.2611 20.5501 19.5261 20.6309 19.769L20.7979 20.269C20.855 20.439 20.8634 20.6216 20.8222 20.7962C20.781 20.9708 20.6919 21.1303 20.5649 21.257L19.1429 22.5H12.3729C12.0047 22.4999 11.6398 22.5702 11.2979 22.707L9.39795 23.25" stroke="black" stroke-width="1.5" stroke-linecap="round" stroke-linejoin="round"/>
<path d="M2.64294 17.457L5.88494 16.241C6.28721 16.0892 6.62744 15.8077 6.85194 15.441L8.93694 10.619C9.15585 10.2631 9.44924 9.95876 9.79694 9.72701L10.5229 9.242" stroke="black" stroke-width="1.5" stroke-linecap="round" stroke-linejoin="round"/>
<path d="M10.9461 12.205L9.40005 1.373C9.3887 1.29565 9.39415 1.21676 9.41604 1.1417C9.43793 1.06665 9.47574 0.997194 9.52689 0.93807C9.57804 0.878946 9.64134 0.831542 9.71246 0.799087C9.78359 0.766633 9.86087 0.74989 9.93905 0.750001H17.4911" stroke="black" stroke-width="1.5" stroke-linecap="round" stroke-linejoin="round"/>
<path d="M14.1621 12.75L13.3161 4.341C13.3086 4.27103 13.316 4.20027 13.3377 4.13335C13.3595 4.06643 13.3952 4.00486 13.4424 3.95266C13.4895 3.90046 13.5472 3.85881 13.6116 3.83044C13.676 3.80206 13.7457 3.7876 13.8161 3.788H20.7161C20.7887 3.78713 20.8607 3.80212 20.927 3.83191C20.9933 3.86171 21.0523 3.9056 21.0999 3.96052C21.1475 4.01545 21.1825 4.08009 21.2026 4.14995C21.2227 4.2198 21.2272 4.29319 21.2161 4.365L19.9581 12.75" stroke="black" stroke-width="1.5" stroke-linecap="round" stroke-linejoin="round"/>
<path d="M17.088 8.621C17.162 8.62101 17.2344 8.6429 17.2959 8.68393C17.3575 8.72496 17.4056 8.7833 17.4341 8.85159C17.4626 8.91988 17.4702 8.99507 17.4561 9.0677C17.4419 9.14033 17.4066 9.20716 17.3546 9.25976C17.3025 9.31236 17.2361 9.34838 17.1636 9.3633C17.0911 9.37822 17.0158 9.37136 16.9473 9.34359C16.8787 9.31582 16.8198 9.26838 16.7781 9.20724C16.7365 9.1461 16.7138 9.07399 16.713 9C16.713 8.90055 16.7525 8.80516 16.8228 8.73484C16.8932 8.66451 16.9886 8.625 17.088 8.625" stroke="black" stroke-width="1.5" stroke-linecap="round" stroke-linejoin="round"/>
</svg>
