<svg width="24" height="24" viewBox="0 0 24 24" fill="none" xmlns="http://www.w3.org/2000/svg">
<g clip-path="url(#clip0)">
<path d="M12 4.5C12.3271 4.4996 12.6505 4.569 12.9487 4.7035C13.2468 4.838 13.5129 5.0345 13.729 5.28L23.54 16.432C23.8501 16.8015 24.0033 17.2778 23.9669 17.7588C23.9304 18.2398 23.7072 18.6875 23.345 19.0061C22.9828 19.3247 22.5102 19.489 22.0285 19.4637C21.5467 19.4385 21.094 19.2257 20.767 18.871L12.188 9.119C12.1646 9.0922 12.1357 9.0708 12.1032 9.0561C12.0708 9.0414 12.0356 9.0338 12 9.0338C11.9644 9.0338 11.9293 9.0414 11.8968 9.0561C11.8644 9.0708 11.8355 9.0922 11.812 9.119L3.233 18.871C3.0748 19.0596 2.8805 19.2146 2.6615 19.327C2.4425 19.4394 2.2032 19.5069 1.9577 19.5255C1.7123 19.5441 1.4655 19.5134 1.2321 19.4353C0.9987 19.3572 0.783201 19.2332 0.598301 19.0706C0.413501 18.9081 0.263001 18.7102 0.155701 18.4886C0.0485008 18.267 -0.0134003 18.0263 -0.0263003 17.7804C-0.0392003 17.5346 -0.00279988 17.2887 0.0807001 17.0571C0.1642 16.8255 0.293199 16.613 0.459999 16.432L10.268 5.284C10.4846 5.0379 10.751 4.8407 11.0496 4.7056C11.3483 4.5704 11.6722 4.5003 12 4.5Z" fill="currentColor"/>
</g>
<defs>
<clipPath id="clip0">
<rect width="24" height="24" fill="currentColor"/>
</clipPath>
</defs>
</svg>
