<svg width="24" height="24" viewBox="0 0 24 24" fill="none" xmlns="http://www.w3.org/2000/svg">
<g clip-path="url(#clip0)">
<path d="M19.5 12C19.5004 12.3271 19.431 12.6505 19.2965 12.9487C19.162 13.2468 18.9655 13.5129 18.72 13.729L7.568 23.54C7.19846 23.8501 6.72225 24.0033 6.24122 23.9669C5.76018 23.9304 5.3125 23.7072 4.9939 23.345C4.67529 22.9828 4.51105 22.5102 4.5363 22.0285C4.56155 21.5467 4.77428 21.094 5.129 20.767L14.881 12.188C14.9078 12.1646 14.9292 12.1357 14.9439 12.1032C14.9586 12.0708 14.9662 12.0356 14.9662 12C14.9662 11.9644 14.9586 11.9293 14.9439 11.8968C14.9292 11.8644 14.9078 11.8355 14.881 11.812L5.129 3.233C4.94043 3.0748 4.78539 2.8805 4.67299 2.6615C4.5606 2.4425 4.49312 2.2032 4.47452 1.9577C4.45592 1.7123 4.48657 1.4655 4.56469 1.2321C4.6428 0.9987 4.76678 0.783201 4.92936 0.598301C5.09194 0.413501 5.28983 0.263001 5.5114 0.155701C5.73297 0.0485006 5.97374 -0.0134005 6.21957 -0.0263005C6.4654 -0.0392005 6.71133 -0.00280018 6.94289 0.0806998C7.17446 0.1642 7.38699 0.293199 7.568 0.459999L18.716 10.268C18.9621 10.4846 19.1593 10.751 19.2944 11.0496C19.4296 11.3483 19.4997 11.6722 19.5 12Z" fill="currentColor"/>
</g>
<defs>
<clipPath id="clip0">
<rect width="24" height="24" fill="currentColor"/>
</clipPath>
</defs>
</svg>
