<svg width="24" height="24" viewBox="0 0 24 24" fill="none" xmlns="http://www.w3.org/2000/svg">
<path d="M6.75 17.25C10.0637 17.25 12.75 15.9069 12.75 14.25C12.75 12.5931 10.0637 11.25 6.75 11.25C3.43629 11.25 0.75 12.5931 0.75 14.25C0.75 15.9069 3.43629 17.25 6.75 17.25Z" stroke="currentColor" stroke-width="1.5" stroke-linecap="round" stroke-linejoin="round"/>
<path d="M0.75 14.25V20.25C0.75 21.907 3.436 23.25 6.75 23.25C10.064 23.25 12.75 21.907 12.75 20.25V14.25" stroke="currentColor" stroke-width="1.5" stroke-linecap="round" stroke-linejoin="round"/>
<path d="M12.75 17.25C12.75 18.907 10.064 20.25 6.75 20.25C3.436 20.25 0.75 18.907 0.75 17.25" stroke="currentColor" stroke-width="1.5" stroke-linecap="round" stroke-linejoin="round"/>
<path d="M15.75 15.75H21.75C22.1478 15.75 22.5294 15.592 22.8107 15.3107C23.092 15.0294 23.25 14.6478 23.25 14.25V2.25C23.25 1.85218 23.092 1.47064 22.8107 1.18934C22.5294 0.908035 22.1478 0.75 21.75 0.75H2.25C1.85218 0.75 1.47064 0.908035 1.18934 1.18934C0.908035 1.47064 0.75 1.85218 0.75 2.25V9.757" stroke="currentColor" stroke-width="1.5" stroke-linecap="round" stroke-linejoin="round"/>
<path d="M9 8.25001C9.00005 7.74842 9.12588 7.25485 9.36595 6.81444C9.60603 6.37403 9.9527 6.00085 10.3743 5.72903C10.7958 5.45721 11.2788 5.29543 11.779 5.25849C12.2793 5.22154 12.7808 5.31061 13.2377 5.51755C13.6946 5.72449 14.0923 6.04269 14.3945 6.44304C14.6967 6.8434 14.8937 7.31313 14.9674 7.80928C15.0411 8.30542 14.9893 8.81213 14.8166 9.28307C14.644 9.754 14.356 10.1741 13.979 10.505" stroke="currentColor" stroke-width="1.5" stroke-linecap="round" stroke-linejoin="round"/>
<path d="M4.5 4.125C4.57417 4.125 4.64667 4.14699 4.70834 4.1882C4.77001 4.2294 4.81807 4.28797 4.84645 4.35649C4.87484 4.42502 4.88226 4.50042 4.86779 4.57316C4.85333 4.6459 4.81761 4.71272 4.76516 4.76516C4.71272 4.81761 4.6459 4.85333 4.57316 4.86779C4.50042 4.88226 4.42502 4.87484 4.35649 4.84645C4.28797 4.81807 4.2294 4.77001 4.1882 4.70834C4.14699 4.64667 4.125 4.57417 4.125 4.5C4.125 4.40054 4.16451 4.30516 4.23484 4.23484C4.30516 4.16451 4.40054 4.125 4.5 4.125Z" stroke="currentColor" stroke-width="1.5" stroke-linecap="round" stroke-linejoin="round"/>
<path d="M19.5 11.625C19.5742 11.625 19.6467 11.647 19.7083 11.6882C19.77 11.7294 19.8181 11.788 19.8465 11.8565C19.8748 11.925 19.8823 12.0004 19.8678 12.0732C19.8533 12.1459 19.8176 12.2127 19.7652 12.2652C19.7127 12.3176 19.6459 12.3533 19.5732 12.3678C19.5004 12.3823 19.425 12.3748 19.3565 12.3465C19.288 12.3181 19.2294 12.27 19.1882 12.2083C19.147 12.1467 19.125 12.0742 19.125 12C19.125 11.9005 19.1645 11.8052 19.2348 11.7348C19.3052 11.6645 19.4005 11.625 19.5 11.625Z" stroke="currentColor" stroke-width="1.5" stroke-linecap="round" stroke-linejoin="round"/>
</svg>
