<svg width="24" height="24" viewBox="0 0 24 24" fill="none" xmlns="http://www.w3.org/2000/svg">
<path d="M22.125 12C22.1327 11.2667 21.9092 10.5495 21.4863 9.95034C21.0634 9.35117 20.4626 8.9004 19.769 8.662C20.0993 8.00057 20.2179 7.25348 20.1088 6.52226C19.9997 5.79105 19.668 5.11116 19.159 4.575C18.6625 4.05171 18.0077 3.70631 17.2955 3.59209C16.5832 3.47787 15.8532 3.60119 15.218 3.943C15.0219 3.24033 14.6012 2.62117 14.0201 2.18007C13.439 1.73898 12.7295 1.5002 12 1.5002C11.2705 1.5002 10.561 1.73898 9.97994 2.18007C9.39886 2.62117 8.97814 3.24033 8.78201 3.943C8.14662 3.60128 7.41647 3.47802 6.70411 3.59223C5.99175 3.70643 5.33673 4.05177 4.84001 4.575C4.33114 5.11128 3.9997 5.79121 3.89075 6.52243C3.78179 7.25364 3.90059 8.00067 4.23101 8.662C3.54176 8.90695 2.94526 9.35929 2.52342 9.95689C2.10159 10.5545 1.87512 11.268 1.87512 11.9995C1.87512 12.731 2.10159 13.4445 2.52342 14.0421C2.94526 14.6397 3.54176 15.0921 4.23101 15.337C3.90059 15.9983 3.78179 16.7454 3.89075 17.4766C3.9997 18.2078 4.33114 18.8877 4.84001 19.424C5.33661 19.9474 5.99157 20.2929 6.70394 20.4073C7.4163 20.5217 8.14651 20.3986 8.78201 20.057C8.97814 20.7597 9.39886 21.3788 9.97994 21.8199C10.561 22.261 11.2705 22.4998 12 22.4998C12.7295 22.4998 13.439 22.261 14.0201 21.8199C14.6012 21.3788 15.0219 20.7597 15.218 20.057C15.8533 20.3987 16.5834 20.5218 17.2956 20.4074C18.0079 20.293 18.6627 19.9475 19.159 19.424C19.668 18.8878 19.9997 18.208 20.1088 17.4767C20.2179 16.7455 20.0993 15.9984 19.769 15.337C20.4625 15.0988 21.0633 14.6482 21.4862 14.0492C21.9091 13.4502 22.1326 12.7332 22.125 12V12Z" stroke="currentColor" stroke-width="1.5" stroke-linecap="round" stroke-linejoin="round"/>
<path d="M8.625 15.75L16.125 8.25" stroke="currentColor" stroke-width="1.5" stroke-linecap="round" stroke-linejoin="round"/>
<path d="M9.375 10.5C10.2034 10.5 10.875 9.82843 10.875 9C10.875 8.17157 10.2034 7.5 9.375 7.5C8.54657 7.5 7.875 8.17157 7.875 9C7.875 9.82843 8.54657 10.5 9.375 10.5Z" stroke="currentColor" stroke-width="1.5" stroke-linecap="round" stroke-linejoin="round"/>
<path d="M15.375 16.5C16.2034 16.5 16.875 15.8284 16.875 15C16.875 14.1716 16.2034 13.5 15.375 13.5C14.5466 13.5 13.875 14.1716 13.875 15C13.875 15.8284 14.5466 16.5 15.375 16.5Z" stroke="currentColor" stroke-width="1.5" stroke-linecap="round" stroke-linejoin="round"/>
</svg>
