<svg width="24" height="24" viewBox="0 0 24 24" fill="none" xmlns="http://www.w3.org/2000/svg">
<path d="M23.2499 4.24899L11.8079 19.505C11.679 19.677 11.5146 19.8193 11.3259 19.9222C11.1372 20.0252 10.9286 20.0863 10.7142 20.1016C10.4998 20.1169 10.2846 20.0859 10.0832 20.0107C9.88182 19.9356 9.69894 19.818 9.54695 19.666L6.56995 16.689" stroke="black" stroke-width="1.5" stroke-linecap="round" stroke-linejoin="round"/>
<path d="M6.00001 19.76C5.86131 19.9018 5.69585 20.0147 5.51322 20.0922C5.33058 20.1697 5.1344 20.2101 4.93602 20.2112C4.73764 20.2123 4.54101 20.1741 4.35752 20.0987C4.17402 20.0233 4.0073 19.9123 3.86701 19.772L0.890015 16.8" stroke="black" stroke-width="1.5" stroke-linecap="round" stroke-linejoin="round"/>
<path d="M17.43 4.355L9.29004 15.209" stroke="black" stroke-width="1.5" stroke-linecap="round" stroke-linejoin="round"/>
</svg>
