<svg xmlns="http://www.w3.org/2000/svg" xmlns:xlink="http://www.w3.org/1999/xlink" width="24px" height="24px" viewBox="0 0 24 24" version="1.1">
<g fill="currentColor">
<path d="M 3.5 24.003906 C 2.671875 24.003906 2 23.328125 2 22.503906 L 2 12.003906 L 1.5 12.003906 C 0.671875 12.003906 0 11.328125 0 10.503906 L 0 8.503906 C 0 7.675781 0.671875 7.003906 1.5 7.003906 L 22.5 7.003906 C 23.328125 7.003906 24 7.675781 24 8.503906 L 24 10.503906 C 24 11.328125 23.328125 12.003906 22.5 12.003906 L 22 12.003906 L 22 22.503906 C 22 23.328125 21.328125 24.003906 20.5 24.003906 Z M 20.5 23.003906 C 20.777344 23.003906 21 22.777344 21 22.503906 L 21 12.003906 L 16 12.003906 L 16 23.003906 Z M 15 23.003906 L 15 12.003906 L 9 12.003906 L 9 23.003906 Z M 3 22.503906 C 3 22.777344 3.222656 23.003906 3.5 23.003906 L 8 23.003906 L 8 12.003906 L 3 12.003906 Z M 22.5 11 C 22.777344 11 23 10.777344 23 10.5 L 23 8.5 C 23 8.226562 22.777344 8 22.5 8 L 16 8 L 16 11 Z M 15 11 L 15 8 L 9 8 L 9 11 Z M 1.5 8 C 1.222656 8 1 8.226562 1 8.5 L 1 10.5 C 1 10.777344 1.222656 11 1.5 11 L 8 11 L 8 8 Z M 1.5 8 "/>
<path d="M 13 6 C 12.867188 6 12.742188 5.949219 12.644531 5.855469 C 12.523438 5.730469 12.472656 5.550781 12.515625 5.382812 C 12.671875 4.746094 13.488281 1.542969 14.304688 0.722656 C 14.765625 0.238281 15.394531 -0.0273438 16.070312 -0.0273438 C 16.710938 -0.0273438 17.3125 0.214844 17.773438 0.65625 C 18.246094 1.109375 18.515625 1.71875 18.527344 2.378906 C 18.542969 3.03125 18.300781 3.65625 17.847656 4.128906 C 17.824219 4.152344 17.800781 4.175781 17.777344 4.199219 C 16.953125 5.019531 13.753906 5.832031 13.117188 5.988281 C 13.082031 5.996094 13.039062 6 13 6 Z M 16.074219 0.972656 C 15.671875 0.972656 15.296875 1.132812 15.019531 1.421875 C 14.652344 1.789062 14.113281 3.320312 13.703125 4.800781 C 15.183594 4.390625 16.707031 3.855469 17.074219 3.488281 L 17.125 3.4375 C 17.394531 3.15625 17.535156 2.789062 17.527344 2.398438 C 17.519531 2.011719 17.363281 1.648438 17.082031 1.378906 C 16.808594 1.117188 16.449219 0.972656 16.074219 0.972656 Z M 16.074219 0.972656 "/>
<path d="M 11 6 C 10.960938 6 10.917969 5.996094 10.878906 5.984375 C 10.246094 5.832031 7.039062 5.015625 6.21875 4.195312 C 5.296875 3.234375 5.296875 1.738281 6.210938 0.785156 C 6.664062 0.3125 7.277344 0.046875 7.933594 0.03125 L 7.972656 0.03125 C 8.617188 0.03125 9.226562 0.273438 9.6875 0.714844 C 10.511719 1.542969 11.328125 4.746094 11.484375 5.382812 C 11.527344 5.550781 11.476562 5.730469 11.355469 5.855469 C 11.257812 5.949219 11.132812 6 11 6 Z M 7.957031 1.03125 C 7.566406 1.039062 7.203125 1.199219 6.933594 1.476562 C 6.394531 2.042969 6.390625 2.929688 6.933594 3.492188 C 7.296875 3.855469 8.820312 4.390625 10.296875 4.800781 C 9.886719 3.320312 9.347656 1.792969 8.984375 1.425781 C 8.71875 1.171875 8.363281 1.03125 7.992188 1.03125 Z M 7.957031 1.03125 "/>
</g>
</svg>
