<svg xmlns="http://www.w3.org/2000/svg" width="24" height="24" viewBox="0 0 24 24" fill="none">
<g>
	<path fill="currentColor" d="M12,6c-1.654,0-3-1.346-3-3s1.346-3,3-3c1.654,0,3,1.346,3,3S13.654,6,12,6z M12,1c-1.103,0-2,0.897-2,2s0.897,2,2,2s2-0.897,2-2S13.103,1,12,1z"/>
    <path fill="currentColor" d="M12,15c-1.654,0-3-1.346-3-3c0-1.654,1.346-3,3-3c1.654,0,3,1.346,3,3C15,13.654,13.654,15,12,15z M12,10c-1.103,0-2,0.897-2,2s0.897,2,2,2s2-0.897,2-2S13.103,10,12,10z"/>
    <path fill="currentColor" d="M12,24c-1.654,0-3-1.346-3-3s1.346-3,3-3c1.654,0,3,1.346,3,3S13.654,24,12,24z M12,19c-1.103,0-2,0.897-2,2s0.897,2,2,2s2-0.897,2-2S13.103,19,12,19z"/>
</g>
</svg>
