<svg xmlns="http://www.w3.org/2000/svg" xmlns:xlink="http://www.w3.org/1999/xlink" width="24px" height="24px" viewBox="0 0 24 24" version="1.1">
<g fill="currentColor">
<path d="M 6.75 8.5 C 6.472656 8.5 6.25 8.277344 6.25 8 C 6.25 7.722656 6.472656 7.5 6.75 7.5 L 17.25 7.5 C 17.527344 7.5 17.75 7.722656 17.75 8 C 17.75 8.277344 17.527344 8.5 17.25 8.5 Z M 6.75 8.5 "/>
<path d="M 6.75 12.5 C 6.472656 12.5 6.25 12.277344 6.25 12 C 6.25 11.722656 6.472656 11.5 6.75 11.5 L 17.25 11.5 C 17.527344 11.5 17.75 11.722656 17.75 12 C 17.75 12.277344 17.527344 12.5 17.25 12.5 Z M 6.75 12.5 "/>
<path d="M 6.75 16.5 C 6.472656 16.5 6.25 16.277344 6.25 16 C 6.25 15.722656 6.472656 15.5 6.75 15.5 L 17.25 15.5 C 17.527344 15.5 17.75 15.722656 17.75 16 C 17.75 16.277344 17.527344 16.5 17.25 16.5 Z M 6.75 16.5 "/>
<path d="M 2.5 24 C 1.121094 24 0 22.878906 0 21.5 L 0 2.5 C 0 1.121094 1.121094 0 2.5 0 L 21.5 0 C 22.878906 0 24 1.121094 24 2.5 L 24 21.5 C 24 22.878906 22.878906 24 21.5 24 Z M 2.5 1 C 1.671875 1 1 1.671875 1 2.5 L 1 21.5 C 1 22.328125 1.671875 23 2.5 23 L 21.5 23 C 22.328125 23 23 22.328125 23 21.5 L 23 2.5 C 23 1.671875 22.328125 1 21.5 1 Z M 2.5 1 "/>
</g>
</svg>
