<svg width="24" height="24" viewBox="0 0 24 24" fill="none" xmlns="http://www.w3.org/2000/svg">
<path d="M13.95 7.11999C14.0444 6.86125 14.0732 6.5832 14.0341 6.3106C13.9949 6.038 13.889 5.77932 13.7256 5.55758C13.5623 5.33585 13.3467 5.15795 13.0979 5.03973C12.8492 4.92151 12.5751 4.86663 12.3 4.87999H9.91003L8.91003 9.35999H11.2C11.837 9.32743 12.447 9.09271 12.9415 8.68991C13.436 8.28711 13.7893 7.73719 13.95 7.11999V7.11999Z" stroke="black" stroke-width="1.5" stroke-linecap="round" stroke-linejoin="round"/>
<path d="M1.81006 18.74L5.81006 1.73999H14.1001C16.5901 1.73999 19.3601 3.52999 18.5301 7.31999C18.2063 8.88575 17.3411 10.2874 16.0865 11.2786C14.832 12.2698 13.2683 12.7872 11.6701 12.74H8.18006L6.69006 18.74H1.81006Z" stroke="black" stroke-width="1.5" stroke-linecap="round" stroke-linejoin="round"/>
<path d="M21.6799 7.42999C23.1799 10.09 21.2999 16.15 15.3299 16.24H11.7199L10.1999 22.24H5.31995L5.55995 21" stroke="black" stroke-width="1.5" stroke-linecap="round" stroke-linejoin="round"/>
</svg>
