<svg width="24" height="24" viewBox="0 0 24 24" fill="none" xmlns="http://www.w3.org/2000/svg">
<path d="M7.538 21.75H6.75C6.35218 21.75 5.97064 21.592 5.68934 21.3107C5.40804 21.0294 5.25 20.6478 5.25 20.25V14.25C5.25 13.8522 5.40804 13.4706 5.68934 13.1893C5.97064 12.908 6.35218 12.75 6.75 12.75H15.75C16.1478 12.75 16.5294 12.908 16.8107 13.1893C17.092 13.4706 17.25 13.8522 17.25 14.25V19.538" stroke="black" stroke-width="1.5" stroke-linecap="round" stroke-linejoin="round"/>
<path d="M17.25 14.25H20.25C21.0456 14.25 21.8087 14.5661 22.3713 15.1287C22.9339 15.6913 23.25 16.4544 23.25 17.25V20.25C23.25 20.6478 23.092 21.0294 22.8107 21.3107C22.5294 21.592 22.1478 21.75 21.75 21.75H19.462" stroke="black" stroke-width="1.5" stroke-linecap="round" stroke-linejoin="round"/>
<path d="M17.625 23.25C18.6605 23.25 19.5 22.4105 19.5 21.375C19.5 20.3395 18.6605 19.5 17.625 19.5C16.5895 19.5 15.75 20.3395 15.75 21.375C15.75 22.4105 16.5895 23.25 17.625 23.25Z" stroke="black" stroke-width="1.5" stroke-linecap="round" stroke-linejoin="round"/>
<path d="M9.375 23.25C10.4105 23.25 11.25 22.4105 11.25 21.375C11.25 20.3395 10.4105 19.5 9.375 19.5C8.33947 19.5 7.5 20.3395 7.5 21.375C7.5 22.4105 8.33947 23.25 9.375 23.25Z" stroke="black" stroke-width="1.5" stroke-linecap="round" stroke-linejoin="round"/>
<path d="M15.788 21.75H11.212" stroke="black" stroke-width="1.5" stroke-linecap="round" stroke-linejoin="round"/>
<path d="M23.25 17.25H20.25" stroke="black" stroke-width="1.5" stroke-linecap="round" stroke-linejoin="round"/>
<path d="M1.757 13.891C1.13061 12.6807 0.787263 11.3439 0.752867 9.98149C0.718472 8.6191 0.993924 7.26669 1.55844 6.02629C2.12296 4.78588 2.96181 3.68988 4.01169 2.82096C5.06158 1.95204 6.29509 1.33289 7.61916 1.01023C8.94323 0.687566 10.3233 0.669815 11.6552 0.958314C12.9872 1.24681 14.2362 1.83403 15.3081 2.67566C16.38 3.51729 17.2467 4.59135 17.843 5.81683C18.4392 7.0423 18.7493 8.38718 18.75 9.75" stroke="black" stroke-width="1.5" stroke-linecap="round" stroke-linejoin="round"/>
<path d="M9.74998 0.75C8.52257 1.89854 7.55345 3.29497 6.90692 4.84664C6.26039 6.39831 5.95124 8.06973 5.99998 9.75" stroke="black" stroke-width="1.5" stroke-linecap="round" stroke-linejoin="round"/>
<path d="M9.75 0.75C10.9774 1.89854 11.9465 3.29497 12.5931 4.84664C13.2396 6.39831 13.5487 8.06973 13.5 9.75" stroke="black" stroke-width="1.5" stroke-linecap="round" stroke-linejoin="round"/>
<path d="M1.26294 6.75H18.2339" stroke="black" stroke-width="1.5" stroke-linecap="round" stroke-linejoin="round"/>
</svg>
