<svg xmlns="http://www.w3.org/2000/svg" width="24" height="24" viewBox="0 0 24 24"><path style="stroke:none;fill-rule:nonzero;fill:currentColor;fill-opacity:1" d="M23.555 8.73a1.479 1.479 0 0 0-.551-.71 1.482 1.482 0 0 0-.856-.27h-6.085a.474.474 0 0 1-.29-.094.493.493 0 0 1-.183-.242l-2.184-6.191c-.11-.286-.3-.536-.55-.707a1.491 1.491 0 0 0-1.711 0c-.25.171-.442.421-.551.707l-.004.015-2.18 6.176a.5.5 0 0 1-.473.336H1.853c-.309 0-.61.094-.864.27a1.48 1.48 0 0 0-.55.718c-.106.29-.118.602-.036.903.078.296.25.562.485.757L6.07 14.7a.54.54 0 0 1 .164.25.5.5 0 0 1-.007.293l-2.18 6.531c-.098.301-.102.63-.004.934.098.3.289.566.543.754.258.187.57.289.887.289.32-.004.629-.105.886-.293l5.344-3.918a.51.51 0 0 1 .297-.098.51.51 0 0 1 .297.098l5.344 3.918a1.496 1.496 0 0 0 2.308-1.684l-2.176-6.535a.5.5 0 0 1 .157-.543l5.191-4.304a1.5 1.5 0 0 0 .434-1.66Zm0 0"/></svg>