<svg width="24" height="24" viewBox="0 0 24 24" fill="none" xmlns="http://www.w3.org/2000/svg">
<path d="M14.579 20.754C14.579 20.754 15.798 23.249 17.849 23.062C22.007 22.682 21.729 17.155 23.249 15.203C21.9632 14.5622 20.544 14.235 19.1075 14.248C17.671 14.261 16.2579 14.614 14.984 15.278C12.83 16.494 12.677 18.548 14.579 20.754Z" stroke="currentColor" stroke-width="1.5" stroke-linecap="round" stroke-linejoin="round"/>
<path d="M17.52 18.219C17.52 18.219 14.82 18.553 12.897 23.25" stroke="currentColor" stroke-width="1.5" stroke-linecap="round" stroke-linejoin="round"/>
<path d="M10.5 18.583C9.29207 18.3078 8.18314 17.7054 7.2947 16.8419C6.40626 15.9784 5.77256 14.8871 5.46302 13.6875C5.15347 12.4878 5.18 11.2262 5.53972 10.0406C5.89944 8.85505 6.57846 7.79135 7.50242 6.96598C8.42639 6.14061 9.55966 5.58542 10.7781 5.3612C11.9966 5.13699 13.2533 5.25239 14.4105 5.69478C15.5678 6.13717 16.581 6.88949 17.3391 7.86933C18.0973 8.84918 18.5713 10.0188 18.709 11.25" stroke="currentColor" stroke-width="1.5" stroke-linecap="round" stroke-linejoin="round"/>
<path d="M12 2.25V0.75" stroke="currentColor" stroke-width="1.5" stroke-linecap="round" stroke-linejoin="round"/>
<path d="M18.894 5.10601L19.955 4.04501" stroke="currentColor" stroke-width="1.5" stroke-linecap="round" stroke-linejoin="round"/>
<path d="M5.10604 18.895L4.04504 19.955" stroke="currentColor" stroke-width="1.5" stroke-linecap="round" stroke-linejoin="round"/>
<path d="M2.25 12H0.75" stroke="currentColor" stroke-width="1.5" stroke-linecap="round" stroke-linejoin="round"/>
<path d="M5.10604 5.10601L4.04504 4.04501" stroke="currentColor" stroke-width="1.5" stroke-linecap="round" stroke-linejoin="round"/>
</svg>
