<svg xmlns="http://www.w3.org/2000/svg" xmlns:xlink="http://www.w3.org/1999/xlink" width="24pt" height="24pt" viewBox="0 0 24 24" version="1.1">
<g id="surface1">
<path style=" stroke:none;fill-rule:nonzero;fill:rgb(0%,0%,0%);fill-opacity:1;" d="M 21.25 24 C 21.0625 24 20.890625 23.894531 20.804688 23.722656 L 20.078125 22.277344 C 19.992188 22.105469 19.824219 22 19.632812 22 L 11.410156 22 C 10.832031 23.21875 9.609375 24 8.25 24 C 6.320312 24 4.75 22.429688 4.75 20.5 C 4.75 18.570312 6.320312 17 8.25 17 C 8.390625 17 8.53125 17.007812 8.671875 17.027344 L 7.105469 3.539062 C 6.933594 2.089844 5.710938 1 4.253906 1 L 2.75 1 C 2.472656 1 2.25 0.777344 2.25 0.5 C 2.25 0.222656 2.476562 0 2.75 0 L 4.25 0 C 6.21875 0 7.871094 1.472656 8.097656 3.421875 L 9.710938 17.320312 C 10.953125 17.894531 11.75 19.125 11.75 20.5 C 11.75 20.664062 11.738281 20.832031 11.710938 21 L 19.632812 21 C 20.203125 21 20.71875 21.316406 20.972656 21.828125 L 21.695312 23.277344 C 21.757812 23.394531 21.765625 23.53125 21.722656 23.65625 C 21.683594 23.785156 21.59375 23.886719 21.472656 23.945312 C 21.402344 23.980469 21.328125 24 21.25 24 Z M 8.25 18 C 6.871094 18 5.75 19.121094 5.75 20.5 C 5.75 21.878906 6.871094 23 8.25 23 C 9.265625 23 10.195312 22.367188 10.570312 21.417969 C 10.582031 21.359375 10.601562 21.304688 10.632812 21.253906 C 10.710938 21.007812 10.75 20.753906 10.75 20.5 C 10.75 19.484375 10.117188 18.554688 9.171875 18.179688 C 9.109375 18.167969 9.050781 18.148438 8.996094 18.113281 C 8.753906 18.039062 8.503906 18 8.25 18 Z M 8.25 18 "/>
<path style=" stroke:none;fill-rule:nonzero;fill:rgb(0%,0%,0%);fill-opacity:1;" d="M 13.25 20 C 12.972656 20 12.75 19.777344 12.75 19.5 C 12.75 19.222656 12.972656 19 13.25 19 L 18.25 19 C 18.527344 19 18.75 18.777344 18.75 18.5 L 18.75 12.5 C 18.75 12.222656 18.527344 12 18.25 12 L 16.75 12 L 16.75 14.5 C 16.75 14.777344 16.527344 15 16.25 15 L 14.25 15 C 13.972656 15 13.75 14.777344 13.75 14.5 L 13.75 12 L 12.25 12 C 11.972656 12 11.75 12.222656 11.75 12.5 L 11.75 16.5 C 11.75 16.777344 11.527344 17 11.25 17 C 10.972656 17 10.75 16.777344 10.75 16.5 L 10.75 12.5 C 10.75 11.671875 11.421875 11 12.25 11 L 18.25 11 C 19.078125 11 19.75 11.671875 19.75 12.5 L 19.75 18.5 C 19.75 19.328125 19.078125 20 18.25 20 Z M 15.75 14 L 15.75 12 L 14.75 12 L 14.75 14 Z M 15.75 14 "/>
</g>
</svg>
