<svg id="Regular" xmlns="http://www.w3.org/2000/svg" viewBox="0 0 24 24"><defs><style>.cls-1{fill:none;stroke:#000;stroke-linecap:round;stroke-linejoin:round;stroke-width:1.5px;}</style></defs><title>advertising-megaphone</title><path class="cls-1" d="M9.663,16.462a2.308,2.308,0,0,0-.946,3.128l.006,0a2.328,2.328,0,0,0,3.144.953l.349-.189c6.067-3.268,7.053-2.875,10.784-3.127L18.644,9.048C16.145,12.334,16.049,12.987,9.663,16.462Z"/><path class="cls-1" d="M11.5,15.444l2.99,6.329a2.317,2.317,0,0,0,3.133.955"/><line class="cls-1" x1="12.985" y1="10.25" x2="12.985" y2="4.782"/><path class="cls-1" d="M3.985,4.782V11.75a1.5,1.5,0,0,0,1.5,1.5h4.5"/><path class="cls-1" d="M15.985,7.482l-6.5-5.847a1.5,1.5,0,0,0-2.007,0L.985,7.482"/><line class="cls-1" x1="14.485" y1="6.132" x2="14.485" y2="2"/></svg>