<svg xmlns="http://www.w3.org/2000/svg" viewBox="0 0 24 24"><defs><style>.a{fill:none;stroke:#000;stroke-linecap:round;stroke-linejoin:round;stroke-width:1.5px;}</style></defs><title>legal-scale</title><path class="a" d="M9.75,17.25h12a1.5,1.5,0,0,1,1.5,1.5v3a1.5,1.5,0,0,1-1.5,1.5h-12"/><path class="a" d="M.75,17.25h9a1.5,1.5,0,0,1,1.5,1.5v3a1.5,1.5,0,0,1-1.5,1.5h-9"/><line class="a" x1="18.75" y1="17.25" x2="18.75" y2="23.25"/><line class="a" x1="8.25" y1="20.25" x2="2.25" y2="20.25"/><line class="a" x1="2.25" y1="2.25" x2="21.75" y2="2.25"/><line class="a" x1="12" y1="0.75" x2="12" y2="14.25"/><path class="a" d="M9,17.25a3,3,0,0,1,6,0Z"/><polyline class="a" points="0.75 9.75 4.5 2.25 8.25 9.75"/><polyline class="a" points="15.75 9.75 19.5 2.25 23.25 9.75"/><path class="a" d="M8.25,9.75a3.75,3.75,0,0,1-7.5,0Z"/><path class="a" d="M23.25,9.75a3.75,3.75,0,0,1-7.5,0Z"/></svg>