<svg xmlns="http://www.w3.org/2000/svg" viewBox="0 0 24 24">
    <path d="M5.938 20.215a1.904 1.904 0 0 1-1.899-1.902c0-1.043.852-1.899 1.899-1.899 1.046 0 1.898.856 1.898 1.898a1.904 1.904 0 0 1-1.899 1.903ZM17.813 20.215a1.904 1.904 0 0 1-1.899-1.902c0-1.043.852-1.899 1.899-1.899 1.046 0 1.898.856 1.898 1.898a1.904 1.904 0 0 1-1.898 1.903Zm0 0"
          style="stroke:none;fill-rule:nonzero;fill:#0032d2;fill-opacity:1"/>
    <path d="M23.273 7.625v10.688h-2.492a2.97 2.97 0 0 0-5.937 0H8.906a2.97 2.97 0 0 0-5.937 0H1.664c-.668 0-1.187-.52-1.187-1.188V5.25c0-.664.52-1.188 1.187-1.188h14.961c.664 0 1.188.524 1.188 1.188v1.188ZM12.375 5.797h-1.52v2.066c0 .832-.05 1.356-1.093 1.356H8.359c-.757 0-1.093.687-1.234 1.258a.869.869 0 0 0-.047.261V5.797h-1.52v8.074h1.52v-2.066c0-.828.047-1.352 1.094-1.352H9.57c.762 0 1.094-.687 1.235-1.258a.89.89 0 0 0 .05-.261v4.937h1.52Zm10.188 2.305-4.75-.95v4.512h4.75Zm0 0"
          style="stroke:none;fill-rule:evenodd;fill:#0032d2;fill-opacity:1"/>
</svg>