<svg xmlns="http://www.w3.org/2000/svg" viewBox="0 0 24 24"><defs><style>.a{fill:none;stroke:#000;stroke-linecap:round;stroke-linejoin:round;}</style></defs><title>3d-print-candy</title><path class="a" d="M13.5,2.5a2,2,0,0,1-4,0V.5h4Z"/><line class="a" x1="13.5" y1="2.5" x2="23.5" y2="2.5"/><line class="a" x1="0.5" y1="2.5" x2="9.5" y2="2.5"/><path class="a" d="M9.44,20.825a1.594,1.594,0,0,0,.433-1.481l-.511-3.909a1.653,1.653,0,0,1,1.949-1.95l3.886.524a1.6,1.6,0,0,0,1.47-.423"/><path class="a" d="M13.434,10.316a1.593,1.593,0,0,0-.423,1.47l.5,3.914a1.653,1.653,0,0,1-1.949,1.949l-3.9-.522a1.6,1.6,0,0,0-1.481.433"/><path class="a" d="M19.41,14.3A8,8,0,1,1,11.5,7.5v-3"/><path class="a" d="M17.332,10.024A8.042,8.042,0,0,1,18.7,12"/><path class="a" d="M14.352,8.023a8.1,8.1,0,0,1,1.09.514"/></svg>