<svg id="Light" xmlns="http://www.w3.org/2000/svg" viewBox="0 0 24 24"><defs><style>.cls-1{fill:none;stroke:#000;stroke-linecap:round;stroke-linejoin:round;}</style></defs><title>accessories-earrings</title><path class="cls-1" d="M16.5,4.5v-1a1,1,0,0,0-1-1,1,1,0,0,1,0-2H18"/><circle class="cls-1" cx="16.499" cy="5.5" r="1"/><path class="cls-1" d="M10.371,10.114a7,7,0,1,1,3.256,9.772"/><path class="cls-1" d="M12.444,11.546a4.5,4.5,0,1,1,1.985,5.95"/><circle class="cls-1" cx="16.499" cy="11.5" r="2.5"/><path class="cls-1" d="M7.5,7.5v-1a1,1,0,0,0-1-1,1,1,0,1,1,0-2H9"/><circle class="cls-1" cx="7.499" cy="8.5" r="1"/><circle class="cls-1" cx="7.499" cy="16.5" r="7"/><circle class="cls-1" cx="7.499" cy="16.5" r="4.5"/><circle class="cls-1" cx="7.499" cy="14.5" r="2.5"/></svg>