<svg xmlns="http://www.w3.org/2000/svg" viewBox="0 0 24 24"><defs><style>.a{fill:none;stroke:#000;stroke-linecap:round;stroke-linejoin:round;}</style></defs><title>accounting-abacus</title><rect class="a" x="1.504" y="0.5" width="21" height="23" rx="1" ry="1"/><line class="a" x1="15.504" y1="20.5" x2="15.504" y2="23.5"/><line class="a" x1="8.504" y1="17.5" x2="8.504" y2="23.5"/><path class="a" d="M10.5,4.5a1,1,0,0,1-1,1h-2a1,1,0,0,1-1-1h0a1,1,0,0,1,1-1h2a1,1,0,0,1,1,1Z"/><path class="a" d="M10.5,6.5a1,1,0,0,1-1,1h-2a1,1,0,0,1-1-1h0a1,1,0,0,1,1-1h2a1,1,0,0,1,1,1Z"/><path class="a" d="M17.5,13.5a1,1,0,0,1-1,1h-2a1,1,0,0,1-1-1h0a1,1,0,0,1,1-1h2a1,1,0,0,1,1,1Z"/><path class="a" d="M17.5,19.5a1,1,0,0,1-1,1h-2a1,1,0,0,1-1-1h0a1,1,0,0,1,1-1h2a1,1,0,0,1,1,1Z"/><path class="a" d="M10.5,16.5a1,1,0,0,1-1,1h-2a1,1,0,0,1-1-1h0a1,1,0,0,1,1-1h2a1,1,0,0,1,1,1Z"/><path class="a" d="M17.5,4.5a1,1,0,0,1-1,1h-2a1,1,0,0,1-1-1h0a1,1,0,0,1,1-1h2a1,1,0,0,1,1,1Z"/><line class="a" x1="8.504" y1="7.5" x2="8.504" y2="15.5"/><line class="a" x1="8.504" y1="3.5" x2="8.504" y2="0.5"/><line class="a" x1="15.504" y1="14.5" x2="15.504" y2="18.5"/><line class="a" x1="15.504" y1="5.5" x2="15.504" y2="12.5"/><line class="a" x1="15.504" y1="0.5" x2="15.504" y2="3.5"/></svg>