<svg xmlns="http://www.w3.org/2000/svg" viewBox="0 0 24 24"><defs><style>.a{fill:none;stroke:#000;stroke-linecap:round;stroke-linejoin:round;}</style></defs><title>adventure-car-2</title><circle class="a" cx="17.5" cy="19.49" r="2.5"/><circle class="a" cx="7.5" cy="19.49" r="2.5"/><line class="a" x1="2.5" y1="10.324" x2="2.5" y2="2.01"/><path class="a" d="M1.5,16.99V11.257a.5.5,0,0,1,.222-.416L7.374,7.074a.5.5,0,0,1,.277-.084H16a.5.5,0,0,1,.5.5v3.5l6.571.938a.5.5,0,0,1,.429.495V16.49a.5.5,0,0,1-.5.5H21.965a.5.5,0,0,1-.5-.429A3,3,0,0,0,18.5,13.99h-2a3,3,0,0,0-2.97,2.571.5.5,0,0,1-.495.429h-1.07a.5.5,0,0,1-.495-.429A3,3,0,0,0,8.5,13.99h-2a3,3,0,0,0-2.97,2.571.5.5,0,0,1-.495.429H.5"/><polyline class="a" points="16.5 10.99 11.999 10.99 10.55 6.99"/></svg>