<svg xmlns="http://www.w3.org/2000/svg" viewBox="0 0 24 24"><defs><style>.a{fill:none;stroke:#000;stroke-linecap:round;stroke-linejoin:round;}</style></defs><title>adventure-car-1</title><path class="a" d="M2.6,14.167l-1.49-2.481A.783.783,0,0,1,1.783,10.5H3.5l2.793,2.793A2.414,2.414,0,0,0,8,14h5.293a3.148,3.148,0,0,0,2.1-.807L19.5,9.5l3.186,4.1A1.489,1.489,0,0,1,21.511,16H20.95"/><line class="a" x1="16.3" y1="12.38" x2="13.706" y2="10.824"/><line class="a" x1="14.5" y1="9.5" x2="13" y2="12"/><line class="a" x1="5.028" y1="5.459" x2="8" y2="14"/><circle class="a" cx="18.5" cy="16.5" r="2.5"/><circle class="a" cx="3.5" cy="16.5" r="2.5"/><line class="a" x1="16.05" y1="16" x2="5.95" y2="16"/><line class="a" x1="3.5" y1="10.5" x2="6.357" y2="9.278"/><path class="a" d="M10.118,14,8.246,8.62a1,1,0,0,0-1.889.658"/><path class="a" d="M19.5,9.5A22.334,22.334,0,0,0,6.056,5,1.383,1.383,0,0,0,4.722,6.019L3.5,10.5"/></svg>