<svg xmlns="http://www.w3.org/2000/svg" viewBox="0 0 24 24"><defs><style>.a{fill:none;stroke:#000;stroke-linecap:round;stroke-linejoin:round;}</style></defs><title>adventure-car</title><circle class="a" cx="19.5" cy="16.5" r="2.5"/><circle class="a" cx="6" cy="16.5" r="2.5"/><path class="a" d="M2.5,14a1,1,0,0,1-2,0V10a1,1,0,0,1,2,0v1"/><line class="a" x1="17.05" y1="17" x2="8.45" y2="17"/><path class="a" d="M21.95,17h.55a1,1,0,0,0,1-1V11a1,1,0,0,0-1-1H18l-1.671,3.342A3,3,0,0,1,13.646,15H10.5a1,1,0,0,1-1-1V12a1,1,0,0,0-1-1h-6v5a1,1,0,0,0,1,1h.05"/><path class="a" d="M13.5,15V13a1,1,0,0,0-1-1h-3"/><line class="a" x1="18" y1="10" x2="16.5" y2="5"/><path class="a" d="M8.5,11,7.736,7.182a1.471,1.471,0,0,0-2.884.577L5.5,11"/></svg>