<svg id="Light" xmlns="http://www.w3.org/2000/svg" viewBox="0 0 24 24"><defs><style>.cls-1{fill:none;stroke:#000;stroke-linecap:round;stroke-linejoin:round;}</style></defs><title>agriculture-machine-harvester-1</title><path class="cls-1" d="M11.5,17.25v-8H7.08a1,1,0,0,0-.868.5L2.5,16.25v4"/><path class="cls-1" d="M10.375,9.25l.951-4.217A1,1,0,0,1,12.3,4.25h5.851a1,1,0,0,1,.986.836l.667,4a1,1,0,0,1-.986,1.164H11.5"/><circle class="cls-1" cx="10" cy="19.25" r="2.5"/><circle class="cls-1" cx="3.75" cy="20.5" r="1.25"/><circle class="cls-1" cx="19.5" cy="17.75" r="4"/><path class="cls-1" d="M7.5,9.25l.772-2.316a1,1,0,0,1,.949-.684h1.831"/><path class="cls-1" d="M18.153,4.25l-.311-1.243a1,1,0,0,0-.97-.757H14.434a1,1,0,0,0-.97.757L13.153,4.25"/><path class="cls-1" d="M22.962,15.75H20c-1.5,0-2.5.895-2.5,2a2,2,0,0,0,2,2c1.5,0,1.5-2,.5-2"/><line class="cls-1" x1="5" y1="20.25" x2="7.709" y2="20.25"/><line class="cls-1" x1="2.5" y1="16.25" x2="6" y2="16.25"/><line class="cls-1" x1="2.5" y1="20.25" x2="0.5" y2="20.25"/><line class="cls-1" x1="0.5" y1="17.25" x2="2.5" y2="17.25"/></svg>