<svg id="Light" xmlns="http://www.w3.org/2000/svg" viewBox="0 0 24 24"><defs><style>.cls-1{fill:none;stroke:#000;stroke-linecap:round;stroke-linejoin:round;}</style></defs><title>agriculture-machine-plow-3</title><path class="cls-1" d="M3,20a.5.5,0,0,1-.5.5h-1A.5.5,0,0,1,1,20V13.5a1,1,0,0,1,2,0Z"/><path class="cls-1" d="M23,20a.5.5,0,0,1-.5.5h-1A.5.5,0,0,1,21,20V13.5a1,1,0,0,1,2,0Z"/><line class="cls-1" x1="21" y1="18.5" x2="3" y2="18.5"/><line class="cls-1" x1="3" y1="16.5" x2="21" y2="16.5"/><line class="cls-1" x1="3" y1="13.5" x2="21" y2="13.5"/><line class="cls-1" x1="6" y1="18.5" x2="6" y2="20"/><line class="cls-1" x1="9" y1="18.5" x2="9" y2="20"/><line class="cls-1" x1="12" y1="18.5" x2="12" y2="20"/><line class="cls-1" x1="15" y1="18.5" x2="15" y2="20"/><line class="cls-1" x1="18" y1="18.5" x2="18" y2="20"/><line class="cls-1" x1="6" y1="13.5" x2="6" y2="15"/><line class="cls-1" x1="9" y1="13.5" x2="9" y2="15"/><line class="cls-1" x1="12" y1="13.5" x2="12" y2="15"/><line class="cls-1" x1="15" y1="13.5" x2="15" y2="15"/><line class="cls-1" x1="18" y1="13.5" x2="18" y2="15"/><path class="cls-1" d="M17.5,11.5l-.41-4.1a1,1,0,0,0-1-.9H7.905a1,1,0,0,0-1,.9L6.5,11.5"/><rect class="cls-1" x="9" y="8.5" width="6" height="3" rx="0.5" ry="0.5"/><line class="cls-1" x1="8.5" y1="6.5" x2="7" y2="3.5"/><line class="cls-1" x1="15.5" y1="6.5" x2="17" y2="3.5"/><path class="cls-1" d="M8,5.5l3.553-1.776a1,1,0,0,1,.894,0L16,5.5"/></svg>