<svg id="Light" xmlns="http://www.w3.org/2000/svg" viewBox="0 0 24 24"><defs><style>.cls-1{fill:none;stroke:#000;stroke-linecap:round;stroke-linejoin:round;}</style></defs><title>agriculture-machine-seeder-2</title><path class="cls-1" d="M4.375,14.25H1a.5.5,0,0,0-.5.5v5a.5.5,0,0,0,.5.5H3a.5.5,0,0,0,.5-.5v-2.5"/><path class="cls-1" d="M19.625,14.25H23a.5.5,0,0,1,.5.5v5a.5.5,0,0,1-.5.5H21a.5.5,0,0,1-.5-.5v-2.5"/><path class="cls-1" d="M19.147,13.485a.5.5,0,0,0-.424-.235H5.277a.5.5,0,0,0-.424.235L2.5,17.25h19Z"/><path class="cls-1" d="M4.5,13.25v-6a.5.5,0,0,1,.5-.5H19a.5.5,0,0,1,.5.5v6"/><line class="cls-1" x1="7.5" y1="6.75" x2="7.5" y2="13.25"/><line class="cls-1" x1="10.5" y1="6.75" x2="10.5" y2="13.25"/><line class="cls-1" x1="13.5" y1="6.75" x2="13.5" y2="13.25"/><line class="cls-1" x1="16.5" y1="6.75" x2="16.5" y2="13.25"/><line class="cls-1" x1="7.5" y1="17.25" x2="7.5" y2="18.75"/><line class="cls-1" x1="10.5" y1="17.25" x2="10.5" y2="18.75"/><line class="cls-1" x1="13.5" y1="17.25" x2="13.5" y2="18.75"/><line class="cls-1" x1="16.5" y1="17.25" x2="16.5" y2="18.75"/><path class="cls-1" d="M21.5,14.25v-7a.5.5,0,0,1,.5-.5.5.5,0,0,0,.5-.5V4.75a1,1,0,0,0-1-1H2.5a1,1,0,0,0-1,1v1.5a.5.5,0,0,0,.5.5.5.5,0,0,1,.5.5v7"/><path class="cls-1" d="M4.5,14.05V7.25a.5.5,0,0,1,.5-.5H19a.5.5,0,0,1,.5.5v6.8"/></svg>