<svg id="Light" xmlns="http://www.w3.org/2000/svg" viewBox="0 0 24 24"><defs><style>.cls-1{fill:none;stroke:#000;stroke-linecap:round;stroke-linejoin:round;}</style></defs><title>agriculture-machine-tractor-1</title><line class="cls-1" x1="14.25" y1="5.5" x2="12.743" y2="14.544"/><line class="cls-1" x1="6.75" y1="17" x2="6.75" y2="5.5"/><rect class="cls-1" x="5.75" y="3.5" width="10" height="2" rx="0.5" ry="0.5"/><circle class="cls-1" cx="10.25" cy="17" r="3.5"/><path class="cls-1" d="M.75,18.75V13.5a2,2,0,0,1,2-2h4"/><circle class="cls-1" cx="2.5" cy="18.75" r="1.75"/><circle class="cls-1" cx="10.25" cy="17" r="1"/><path class="cls-1" d="M12.917,13.5h6.024a.5.5,0,0,1,.447.724l-2.5,5a.5.5,0,0,1-.447.276H12.75"/><polyline class="cls-1" points="20.25 18.5 21.75 20.5 23.25 18.5"/><line class="cls-1" x1="21.75" y1="18" x2="21.75" y2="20.5"/><line class="cls-1" x1="2.75" y1="10" x2="2.75" y2="11.5"/><path class="cls-1" d="M6.75,10h2.5l.224.447a1,1,0,0,0,.894.553h2.965"/><line class="cls-1" x1="3.723" y1="17.5" x2="6.75" y2="17.5"/><line class="cls-1" x1="9.25" y1="10" x2="8.75" y2="8"/></svg>