<svg id="Light" xmlns="http://www.w3.org/2000/svg" viewBox="0 0 24 24"><defs><style>.cls-1{fill:none;stroke:#000;stroke-linecap:round;stroke-linejoin:round;}</style></defs><title>agriculture-machine-disk-plow</title><rect class="cls-1" x="0.5" y="11.5" width="23" height="2" rx="0.5" ry="0.5"/><line class="cls-1" x1="2.5" y1="11.5" x2="10.5" y2="5.5"/><line class="cls-1" x1="21.5" y1="11.5" x2="13.5" y2="5.5"/><circle class="cls-1" cx="19.5" cy="20" r="3.5"/><path class="cls-1" d="M15,16.645a3.5,3.5,0,1,0,.5,6.518"/><path class="cls-1" d="M10,16.645a3.5,3.5,0,1,0,.5,6.518"/><path class="cls-1" d="M5,16.645a3.5,3.5,0,1,0,.5,6.518"/><line class="cls-1" x1="20" y1="13.5" x2="17" y2="17.5"/><line class="cls-1" x1="14.5" y1="13.5" x2="11.5" y2="17.5"/><line class="cls-1" x1="9.5" y1="13.5" x2="6.5" y2="17.5"/><line class="cls-1" x1="4.5" y1="13.5" x2="1.5" y2="17.5"/><path class="cls-1" d="M13.5,11.5V2a1.5,1.5,0,0,0-3,0v9.5"/><line class="cls-1" x1="10.5" y1="3.5" x2="13.5" y2="3.5"/></svg>