<svg xmlns="http://www.w3.org/2000/svg" viewBox="0 0 24 24"><defs><style>.a{fill:none;stroke:#000;stroke-linecap:round;stroke-linejoin:round;}</style></defs><title>aircraft-chopper-1</title><line class="a" x1="3" y1="10.064" x2="0.5" y2="10.064"/><line class="a" x1="3" y1="10.064" x2="4.25" y2="7.898"/><line class="a" x1="3" y1="10.064" x2="4.25" y2="12.229"/><path class="a" d="M6,9.064H16c3.589,0,6.5,3,6.5,5.5,0,1.748-.5,3.5-1.816,3.5h-6.69c-2.994-1-3.494-6-3.494-6l-4.5-1"/><line class="a" x1="13.5" y1="12.064" x2="12.5" y2="12.064"/><polyline class="a" points="13.5 9.064 13.5 7.064 15.5 7.064 15.5 9.064"/><line class="a" x1="14.5" y1="7.064" x2="14.5" y2="4.064"/><line class="a" x1="23.5" y1="5.064" x2="5.5" y2="5.064"/><line class="a" x1="20.5" y1="18.064" x2="21" y2="20.064"/><line class="a" x1="13.994" y1="18.064" x2="13.5" y2="20.064"/><path class="a" d="M23.5,19.564a.5.5,0,0,1-.5.5H11.5"/><path class="a" d="M15.833,9.064,17.044,12.7a2,2,0,0,0,1.9,1.368h3.521"/></svg>