<svg xmlns="http://www.w3.org/2000/svg" viewBox="0 0 24 24"><defs><style>.a{fill:none;stroke:#000;stroke-linecap:round;stroke-linejoin:round;}</style></defs><title>airport-road</title><path class="a" d="M16,8a4,4,0,1,1-4-4A4,4,0,0,1,16,8Z"/><line class="a" x1="8.032" y1="7.5" x2="1" y2="7.5"/><line class="a" x1="15.968" y1="7.5" x2="23" y2="7.5"/><line class="a" x1="12" y1="6.5" x2="12" y2="0.5"/><circle class="a" cx="4" cy="10" r="2"/><circle class="a" cx="20" cy="10" r="2"/><line class="a" x1="8.292" y1="6.5" x2="15.708" y2="6.5"/><path class="a" d="M13.318,6.5a2,2,0,1,1-2.638,0"/><line class="a" x1="20.492" y1="15.258" x2="23" y2="23.5"/><line class="a" x1="12" y1="19.5" x2="12" y2="23.5"/><line class="a" x1="12" y1="15" x2="12" y2="16.5"/><line class="a" x1="3.508" y1="15.258" x2="1" y2="23.5"/></svg>