<svg xmlns="http://www.w3.org/2000/svg" viewBox="0 0 24 24"><defs><style>.a{fill:none;stroke:#000;stroke-linecap:round;stroke-linejoin:round;}</style></defs><title>airport-stairs</title><circle class="a" cx="5" cy="21.5" r="2"/><circle class="a" cx="19" cy="21.5" r="2"/><line class="a" x1="7" y1="21.5" x2="17" y2="21.5"/><path class="a" d="M3,21.5H1A.5.5,0,0,1,.5,21V17.207a.5.5,0,0,1,.146-.353L2.5,15l2.35-3.291a.5.5,0,0,1,.407-.209H9a.5.5,0,0,1,.5.5v7.5"/><path class="a" d="M.5,19.5H23a.5.5,0,0,1,.5.5v1a.5.5,0,0,1-.5.5H21"/><path class="a" d="M13.771,1.072a1,1,0,0,0-.9-.572H4a2.5,2.5,0,0,0,0,5H9.841a1,1,0,0,1,.919.606L16.5,19.5h6Z"/><path class="a" d="M6,11.5v-1.5a1,1,0,1,1,2,0v1.5"/><line class="a" x1="2.5" y1="14.995" x2="9.5" y2="14.995"/></svg>