<svg id="Light" xmlns="http://www.w3.org/2000/svg" viewBox="0 0 24 24"><defs><style>.cls-1{fill:none;stroke:#000;stroke-linecap:round;stroke-linejoin:round;}</style></defs><title>allowances-no-umbrellas</title><path class="cls-1" d="M9.073,6.316A7.521,7.521,0,0,1,20,13.176v.334c0-.737-.88-1.335-1.81-1.335a1.509,1.509,0,0,0-1.652,1.335c0-.737-.9-1.335-2.019-1.335"/><path class="cls-1" d="M9.161,12.5a1.216,1.216,0,0,0-.7,1.01A1.539,1.539,0,0,0,6.78,12.175c-.929,0-1.78.6-1.78,1.335v-.334A7.892,7.892,0,0,1,6.173,9"/><line class="cls-1" x1="12.5" y1="5.5" x2="12.5" y2="4"/><path class="cls-1" d="M12.5,16v3a1.5,1.5,0,0,1-3,0v-.5"/><circle class="cls-1" cx="12" cy="12" r="11.5"/><line class="cls-1" x1="3.622" y1="4.122" x2="19.878" y2="20.378"/></svg>