<svg id="Light" xmlns="http://www.w3.org/2000/svg" viewBox="0 0 24 24"><defs><style>.cls-1{fill:none;stroke:#000;stroke-linecap:round;stroke-linejoin:round;}</style></defs><title>allowances-no-food</title><circle class="cls-1" cx="12" cy="12" r="11.5"/><line class="cls-1" x1="6.435" y1="6.435" x2="3.868" y2="3.868"/><polyline class="cls-1" points="20.131 20.131 17.955 17.956 15.969 15.969"/><path class="cls-1" d="M15.179,11.89l-2.687,7.727a.5.5,0,0,1-.945,0l-2.666-7.71"/><path class="cls-1" d="M14.993,7.065c0-.023.007-.043.007-.065A3,3,0,0,0,9,7c0,.022.006.042.006.065A2.5,2.5,0,1,0,12,10.019a2.5,2.5,0,1,0,2.993-2.954Z"/></svg>