<svg id="Light" xmlns="http://www.w3.org/2000/svg" viewBox="0 0 24 24"><defs><style>.cls-1{fill:none;stroke:#000;stroke-linecap:round;stroke-linejoin:round;}</style></defs><title>allowances-no-pushing</title><circle class="cls-1" cx="10.5" cy="5" r="2"/><line class="cls-1" x1="7.688" y1="11.502" x2="4.73" y2="17.788"/><line class="cls-1" x1="15.5" y1="9" x2="11.5" y2="9"/><line class="cls-1" x1="13.5" y1="11" x2="15.5" y2="11"/><path class="cls-1" d="M12.012,19.5l.7-2.434a2,2,0,0,0-1.221-2.422L9.242,13.8l.372-.79"/><path class="cls-1" d="M6.56,19.5l1.827-3.883,1.534.575a1,1,0,0,1,.611,1.212l-.6,2.1"/><circle class="cls-1" cx="12" cy="12" r="11.5"/><path class="cls-1" d="M15.5,13V6a1,1,0,0,1,1-1h1a1,1,0,0,1,1,1V16"/><line class="cls-1" x1="16" y1="19.5" x2="6.56" y2="19.5"/><line class="cls-1" x1="3.622" y1="4.122" x2="19.878" y2="20.378"/></svg>