<svg xmlns="http://www.w3.org/2000/svg" viewBox="0 0 24 24"><defs><style>.a{fill:none;stroke:#000;stroke-linecap:round;stroke-linejoin:round;}</style></defs><title>ambulance-cross</title><rect class="a" x="4.5" y="2.5" width="15" height="19"/><path class="a" d="M16,10.5H13.5V8a.5.5,0,0,0-.5-.5H11a.5.5,0,0,0-.5.5v2.5H8a.5.5,0,0,0-.5.5v2a.5.5,0,0,0,.5.5h2.5V16a.5.5,0,0,0,.5.5h2a.5.5,0,0,0,.5-.5V13.5H16a.5.5,0,0,0,.5-.5V11A.5.5,0,0,0,16,10.5Z"/><line class="a" x1="4.5" y1="2.5" x2="4.5" y2="0.5"/><line class="a" x1="4.5" y1="23.5" x2="4.5" y2="21.5"/><line class="a" x1="19.5" y1="2.5" x2="19.5" y2="0.5"/><line class="a" x1="19.5" y1="23.5" x2="19.5" y2="21.5"/></svg>