<svg id="Light" xmlns="http://www.w3.org/2000/svg" viewBox="0 0 24 24"><defs><style>.cls-1{fill:none;stroke:#000;stroke-linecap:round;stroke-linejoin:round;}</style></defs><title>american-football-ball-1</title><line class="cls-1" x1="14.391" y1="3.079" x2="20.922" y2="9.608"/><path class="cls-1" d="M20.744,2.358a1,1,0,0,1,.9.9c.24,2.436-.477,9.481-4.676,13.68S5.69,21.882,3.254,21.642a1,1,0,0,1-.9-.9c-.238-2.437.509-9.51,4.707-13.709S18.306,2.12,20.744,2.358Z"/><line class="cls-1" x1="8.465" y1="14.829" x2="14.828" y2="8.466"/><line class="cls-1" x1="8.465" y1="12.708" x2="10.586" y2="14.829"/><line class="cls-1" x1="10.586" y1="10.586" x2="12.707" y2="12.708"/><line class="cls-1" x1="12.707" y1="8.466" x2="14.828" y2="10.586"/><line class="cls-1" x1="2.811" y1="15.54" x2="8.461" y2="21.189"/></svg>