<svg id="Light" xmlns="http://www.w3.org/2000/svg" viewBox="0 0 24 24"><defs><style>.cls-1{fill:none;stroke:#000;stroke-linecap:round;stroke-linejoin:round;}</style></defs><title>american-football-goal</title><ellipse class="cls-1" cx="12.109" cy="6.893" rx="3.83" ry="2.437" transform="translate(-0.438 12.953) rotate(-55.428)"/><path class="cls-1" d="M13,23.5V17h6a1,1,0,0,0,1-1V1a.5.5,0,0,0-.5-.5h-1A.5.5,0,0,0,18,1V14.5a.5.5,0,0,1-.5.5H6.5a.5.5,0,0,1-.5-.5V1A.5.5,0,0,0,5.5.5h-1A.5.5,0,0,0,4,1V16a1,1,0,0,0,1,1h6v6.5"/></svg>