<svg id="Light" xmlns="http://www.w3.org/2000/svg" viewBox="0 0 24 24"><defs><style>.cls-1{fill:none;stroke:#000;stroke-linecap:round;stroke-linejoin:round;}</style></defs><title>american-football-run-ball-1</title><circle class="cls-1" cx="9.75" cy="3" r="2.5"/><path class="cls-1" d="M7.868,16.53A4.49,4.49,0,0,0,6.75,19.5V22a1.5,1.5,0,0,0,3,0V19.5a1.5,1.5,0,0,1,.672-1.251l1.649-1.091A4.58,4.58,0,0,0,15.942,19.5H19.25a1.5,1.5,0,0,0,0-3H15.942a1.494,1.494,0,0,1-1.429-1.045l-1.844-5.9,2.766-.614a1.5,1.5,0,0,1,1.748.99l.345.858a1.5,1.5,0,1,0,2.844-.949l-.344-.858a4.486,4.486,0,0,0-5.245-2.969L5.945,8.086a3.441,3.441,0,0,0,.747,6.8H7.25a1.5,1.5,0,0,0,0-3H6.192"/><path class="cls-1" d="M7.187,11.885a5.808,5.808,0,0,1,.852-2.5A.491.491,0,0,1,8.7,9.2a4.859,4.859,0,0,1,2.449,2.644,4.86,4.86,0,0,1-.751,3.525.492.492,0,0,1-.656.18,6.483,6.483,0,0,1-1.466-1.064"/></svg>