<svg id="Light" xmlns="http://www.w3.org/2000/svg" viewBox="0 0 24 24"><defs><style>.cls-1{fill:none;stroke:#000;stroke-linecap:round;stroke-linejoin:round;}</style></defs><title>american-football-score</title><path class="cls-1" d="M7,13.5H21.5a1,1,0,0,0,1-1V1.5"/><line class="cls-1" x1="6.5" y1="1.5" x2="6.5" y2="8"/><line class="cls-1" x1="14.5" y1="13.5" x2="14.5" y2="22.5"/><line class="cls-1" x1="10.5" y1="22.5" x2="18.5" y2="22.5"/><path class="cls-1" d="M17,7.942c.019.83-1.084,1.527-2.465,1.558S12.019,8.887,12,8.059,13.084,6.533,14.465,6.5,16.98,7.114,17,7.942Z"/><path class="cls-1" d="M1.537,20c-.025.33-.037.663-.037,1"/><path class="cls-1" d="M2.43,16.065A13.454,13.454,0,0,0,1.834,18"/><path class="cls-1" d="M4.431,12.6A13.5,13.5,0,0,0,3.29,14.278"/><path class="cls-1" d="M7.363,9.865A13.661,13.661,0,0,0,5.78,11.139"/><path class="cls-1" d="M10,8.455c-.312.125-.618.262-.919.408"/></svg>