<svg id="Light" xmlns="http://www.w3.org/2000/svg" viewBox="0 0 24 24"><defs><style>.cls-1{fill:none;stroke:#000;stroke-linecap:round;stroke-linejoin:round;}</style></defs><title>american-football-ball</title><line class="cls-1" x1="12.478" y1="0.526" x2="12.478" y2="13.526"/><path class="cls-1" d="M13.478,18.526h-2v-4.5a.5.5,0,0,1,.5-.5h1a.5.5,0,0,1,.5.5Z"/><line class="cls-1" x1="22.478" y1="0.526" x2="22.478" y2="13.526"/><path class="cls-1" d="M21.978,13.526h1a.5.5,0,0,1,.5.5v4.5a0,0,0,0,1,0,0h-2a0,0,0,0,1,0,0v-4.5A.5.5,0,0,1,21.978,13.526Z"/><line class="cls-1" x1="12.478" y1="10.526" x2="22.478" y2="10.526"/><ellipse class="cls-1" cx="4.5" cy="17.48" rx="5.995" ry="3.976" transform="translate(-13.09 21.53) rotate(-88.529)"/><path class="cls-1" d="M5.078,11.544a14.221,14.221,0,0,1,.147,11.762"/><path class="cls-1" d="M4.19,11.523a14.188,14.188,0,0,0-.74,11.72"/></svg>