<svg id="Light" xmlns="http://www.w3.org/2000/svg" viewBox="0 0 24 24"><defs><style>.cls-1{fill:none;stroke:#000;stroke-linecap:round;stroke-linejoin:round;}</style></defs><title>american-football-helmet</title><path class="cls-1" d="M9.054,22.228A11,11,0,1,1,22.488,10.976a.5.5,0,0,1-.5.524H15.5a4,4,0,0,0-4,4"/><line class="cls-1" x1="23.5" y1="20.5" x2="11.5" y2="20.5"/><path class="cls-1" d="M20.5,17.5v4a2,2,0,0,1-2,2h-1"/><circle class="cls-1" cx="8.5" cy="17.5" r="1.5"/><path class="cls-1" d="M8.5,16V14.5a6,6,0,0,1,6-6h9"/><path class="cls-1" d="M10,17.5H23.5v4a2,2,0,0,1-2,2H16.987a6,6,0,0,1-4.246-1.76L9.546,18.546"/><path class="cls-1" d="M16.5,17.5v4a2,2,0,0,1-1.1,1.785"/></svg>