<svg id="Light" xmlns="http://www.w3.org/2000/svg" viewBox="0 0 24 24"><defs><style>.cls-1{fill:none;stroke:#000;stroke-linecap:round;stroke-linejoin:round;}</style></defs><title>amphibian-chameleon-1</title><path class="cls-1" d="M3,6,5,4.5c0-2.209,1.343-4,3-4s3,1.791,3,4L13.5,6"/><line class="cls-1" x1="5.5" y1="6" x2="4.5" y2="8"/><line class="cls-1" x1="10.5" y1="6" x2="11.5" y2="8"/><path class="cls-1" d="M6.75,3.5A.25.25,0,0,1,7,3.75"/><path class="cls-1" d="M6.5,3.75a.25.25,0,0,1,.25-.25"/><path class="cls-1" d="M6.75,4a.25.25,0,0,1-.25-.25"/><path class="cls-1" d="M7,3.75A.25.25,0,0,1,6.75,4"/><path class="cls-1" d="M9.25,3.5a.25.25,0,0,1,.25.25"/><path class="cls-1" d="M9,3.75a.25.25,0,0,1,.25-.25"/><path class="cls-1" d="M9.25,4A.25.25,0,0,1,9,3.75"/><path class="cls-1" d="M9.5,3.75A.25.25,0,0,1,9.25,4"/><path class="cls-1" d="M18,17a6.5,6.5,0,0,1-6.5,6.5c-3,0-5-1.5-6-5A14.376,14.376,0,0,1,5,10"/><path class="cls-1" d="M11.121,10.443S13,11,13.5,9.5"/><path class="cls-1" d="M10.855,15.955S12.5,16.5,13,15"/><path class="cls-1" d="M4.867,10.58S3,11,2.5,9.5"/><path class="cls-1" d="M4.82,15.939S3,16.5,2.5,15"/><path class="cls-1" d="M11,10c1,3.5.186,4.068-.5,7.5C10,20,11.4,21,12.5,21a1.957,1.957,0,0,0,2-2V15.5a3.5,3.5,0,0,1,7,0v2a6.937,6.937,0,0,1-3.5,6"/></svg>