<svg id="Light" xmlns="http://www.w3.org/2000/svg" viewBox="0 0 24 24"><defs><style>.cls-1{fill:none;stroke:#000;stroke-linecap:round;stroke-linejoin:round;}</style></defs><title>amphibian-frog-body</title><path class="cls-1" d="M16.181,15.343s1.508-2.555,3.06-1.916c2.023.833,0,5.75,0,5.75"/><path class="cls-1" d="M7.528,15.982c1.35-2.25.164-6.719-.655-9.165a2.56,2.56,0,0,1,.85-2.841l3.493-2.717a1.276,1.276,0,0,1,1.568,0l3.493,2.717a2.56,2.56,0,0,1,.85,2.841c-.819,2.446-2,6.915-.655,9.165"/><path class="cls-1" d="M4.759,19.177s-2.023-4.917,0-5.75c1.552-.639,3.06,1.916,3.06,1.916"/><path class="cls-1" d="M4,16.621H1.139s.517,6.389,4.137,6.389c3.1,0,3.1-3.194,3.1-3.194A8.849,8.849,0,0,0,12,21.093a8.849,8.849,0,0,0,3.62-1.277s0,3.194,3.1,3.194c3.62,0,4.137-6.389,4.137-6.389H20"/><path class="cls-1" d="M7.163,7.677S6.392,9.593,4.9,9.593,2.417,7.038,2.417,7.038"/><polyline class="cls-1" points="0.5 5.76 2.417 7.038 3.056 5.121"/><path class="cls-1" d="M16.843,7.677s.765,1.916,2.256,1.916,2.484-2.555,2.484-2.555"/><polyline class="cls-1" points="23.5 5.76 21.583 7.038 20.944 5.121"/><path class="cls-1" d="M14.236,5.191a.25.25,0,0,1,.25.25"/><path class="cls-1" d="M13.986,5.441a.25.25,0,0,1,.25-.25"/><path class="cls-1" d="M14.236,5.691a.25.25,0,0,1-.25-.25"/><path class="cls-1" d="M14.486,5.441a.25.25,0,0,1-.25.25"/><path class="cls-1" d="M9.764,5.191a.25.25,0,0,1,.25.25"/><path class="cls-1" d="M9.514,5.441a.25.25,0,0,1,.25-.25"/><path class="cls-1" d="M9.764,5.691a.25.25,0,0,1-.25-.25"/><path class="cls-1" d="M10.014,5.441a.25.25,0,0,1-.25.25"/></svg>