<svg id="Light" xmlns="http://www.w3.org/2000/svg" viewBox="0 0 24 24"><defs><style>.cls-1{fill:none;stroke:#000;stroke-linecap:round;stroke-linejoin:round;}</style></defs><title>amusement-park-disneyland</title><path class="cls-1" d="M4,19.25a.25.25,0,0,1,.25.25"/><path class="cls-1" d="M3.75,19.5A.25.25,0,0,1,4,19.25"/><path class="cls-1" d="M4,19.75a.25.25,0,0,1-.25-.25"/><path class="cls-1" d="M4.25,19.5a.25.25,0,0,1-.25.25"/><path class="cls-1" d="M11.5,16.75a.25.25,0,0,1,.25.25"/><path class="cls-1" d="M11.25,17a.25.25,0,0,1,.25-.25"/><path class="cls-1" d="M11.5,17.25a.25.25,0,0,1-.25-.25"/><path class="cls-1" d="M11.75,17a.25.25,0,0,1-.25.25"/><polyline class="cls-1" points="15 19.5 15 14.5 8 14.5 8 19.5"/><rect class="cls-1" x="2" y="16.5" width="4" height="5"/><polyline class="cls-1" points="2 16.5 4 12 6 16.5"/><polyline class="cls-1" points="8 14.5 11.5 10 15 14.5"/><path class="cls-1" d="M19,19.25a.25.25,0,0,1,.25.25"/><path class="cls-1" d="M18.75,19.5a.25.25,0,0,1,.25-.25"/><path class="cls-1" d="M19,19.75a.25.25,0,0,1-.25-.25"/><path class="cls-1" d="M19.25,19.5a.25.25,0,0,1-.25.25"/><rect class="cls-1" x="17" y="16.5" width="4" height="5"/><polyline class="cls-1" points="17 16.5 19 12 21 16.5"/><line class="cls-1" x1="11.5" y1="10" x2="11.5" y2="8"/><path class="cls-1" d="M11.5,5.5l2.032.813a.25.25,0,0,1,.036.446L11.5,8Z"/><line class="cls-1" x1="4" y1="12" x2="4" y2="11"/><path class="cls-1" d="M4,8.5l2.032.813a.25.25,0,0,1,.036.446L4,11Z"/><line class="cls-1" x1="19" y1="12" x2="19" y2="11"/><path class="cls-1" d="M19,8.5l2.032.813a.25.25,0,0,1,.036.446L19,11Z"/><line class="cls-1" x1="6" y1="21.5" x2="17" y2="21.5"/><line class="cls-1" x1="6" y1="19.5" x2="17" y2="19.5"/><polyline class="cls-1" points="2 23.5 2 21.5 21 21.5 21 23.5"/><line class="cls-1" x1="19.5" y1="0.5" x2="19.5" y2="1.5"/><line class="cls-1" x1="19.5" y1="5.5" x2="19.5" y2="6.5"/><line class="cls-1" x1="22.5" y1="3.5" x2="21.5" y2="3.5"/><line class="cls-1" x1="17.5" y1="3.5" x2="16.5" y2="3.5"/><line class="cls-1" x1="21.621" y1="1.379" x2="20.914" y2="2.086"/><line class="cls-1" x1="18.086" y1="4.914" x2="17.379" y2="5.621"/><line class="cls-1" x1="21.621" y1="5.621" x2="20.914" y2="4.914"/><line class="cls-1" x1="18.086" y1="2.086" x2="17.379" y2="1.379"/><circle class="cls-1" cx="19.5" cy="3.5" r="0.25"/><line class="cls-1" x1="4.5" y1="0.5" x2="4.5" y2="1.5"/><line class="cls-1" x1="4.5" y1="5.5" x2="4.5" y2="6.5"/><line class="cls-1" x1="7.5" y1="3.5" x2="6.5" y2="3.5"/><line class="cls-1" x1="2.5" y1="3.5" x2="1.5" y2="3.5"/><line class="cls-1" x1="6.621" y1="1.379" x2="5.914" y2="2.086"/><line class="cls-1" x1="3.086" y1="4.914" x2="2.379" y2="5.621"/><line class="cls-1" x1="6.621" y1="5.621" x2="5.914" y2="4.914"/><line class="cls-1" x1="3.086" y1="2.086" x2="2.379" y2="1.379"/><circle class="cls-1" cx="4.5" cy="3.5" r="0.25"/></svg>