<svg id="Light" xmlns="http://www.w3.org/2000/svg" viewBox="0 0 24 24"><defs><style>.cls-1{fill:none;stroke:#000;stroke-linecap:round;stroke-linejoin:round;}</style></defs><title>amusement-park-strength-meter</title><circle class="cls-1" cx="5.5" cy="4.5" r="4"/><circle class="cls-1" cx="5.5" cy="4.5" r="1.143"/><line class="cls-1" x1="23.5" y1="23.5" x2="0.5" y2="23.5"/><polyline class="cls-1" points="8.5 7.146 8.5 23.5 2.5 23.5 2.5 7.146"/><line class="cls-1" x1="5.5" y1="8.5" x2="5.5" y2="23.5"/><line class="cls-1" x1="4.5" y1="20.5" x2="6.5" y2="20.5"/><line class="cls-1" x1="4.5" y1="17.5" x2="6.5" y2="17.5"/><line class="cls-1" x1="4.5" y1="14.5" x2="6.5" y2="14.5"/><line class="cls-1" x1="4.5" y1="11.5" x2="6.5" y2="11.5"/><path class="cls-1" d="M16.5,20.5h3a1,1,0,0,1,1,1v2a0,0,0,0,1,0,0h-5a0,0,0,0,1,0,0v-2A1,1,0,0,1,16.5,20.5Z"/><rect class="cls-1" x="15.659" y="12.232" width="4" height="5" rx="1" ry="1" transform="translate(-5.245 16.802) rotate(-45)"/><line class="cls-1" x1="22.255" y1="10.136" x2="19.073" y2="13.318"/><line class="cls-1" x1="14.5" y1="17.5" x2="13" y2="17"/><line class="cls-1" x1="14.5" y1="19.5" x2="13" y2="20"/></svg>