<svg id="Light" xmlns="http://www.w3.org/2000/svg" viewBox="0 0 24 24"><defs><style>.cls-1{fill:none;stroke:#000;stroke-linecap:round;stroke-linejoin:round;}</style></defs><title>amusement-park-castle</title><path class="cls-1" d="M4.5,14.25a.25.25,0,0,1,.25.25"/><path class="cls-1" d="M4.25,14.5a.25.25,0,0,1,.25-.25"/><path class="cls-1" d="M4.5,14.75a.25.25,0,0,1-.25-.25"/><path class="cls-1" d="M4.75,14.5a.25.25,0,0,1-.25.25"/><path class="cls-1" d="M12,11.75a.25.25,0,0,1,.25.25"/><path class="cls-1" d="M11.75,12a.25.25,0,0,1,.25-.25"/><path class="cls-1" d="M12,12.25a.25.25,0,0,1-.25-.25"/><path class="cls-1" d="M12.25,12a.25.25,0,0,1-.25.25"/><line class="cls-1" x1="2.717" y1="21.5" x2="7" y2="21.5"/><line class="cls-1" x1="21.283" y1="21.5" x2="17" y2="21.5"/><polyline class="cls-1" points="15.5 14.5 15.5 9.5 8.5 9.5 8.5 14.5"/><rect class="cls-1" x="2.5" y="11.5" width="4" height="5"/><polyline class="cls-1" points="2.5 11.5 4.5 7 6.5 11.5"/><polyline class="cls-1" points="8.5 9.5 12 5 15.5 9.5"/><path class="cls-1" d="M19.5,14.25a.25.25,0,0,1,.25.25"/><path class="cls-1" d="M19.25,14.5a.25.25,0,0,1,.25-.25"/><path class="cls-1" d="M19.5,14.75a.25.25,0,0,1-.25-.25"/><path class="cls-1" d="M19.75,14.5a.25.25,0,0,1-.25.25"/><rect class="cls-1" x="17.5" y="11.5" width="4" height="5"/><polyline class="cls-1" points="17.5 11.5 19.5 7 21.5 11.5"/><line class="cls-1" x1="12" y1="5" x2="12" y2="3"/><path class="cls-1" d="M12,.5l2.032.813a.25.25,0,0,1,.036.446L12,3Z"/><line class="cls-1" x1="4.5" y1="7" x2="4.5" y2="6"/><path class="cls-1" d="M4.5,3.5l2.032.813a.25.25,0,0,1,.036.446L4.5,6Z"/><line class="cls-1" x1="19.5" y1="7" x2="19.5" y2="6"/><path class="cls-1" d="M19.5,3.5l2.032.813a.25.25,0,0,1,.036.446L19.5,6Z"/><line class="cls-1" x1="6.5" y1="16.5" x2="17.5" y2="16.5"/><line class="cls-1" x1="6.5" y1="14.5" x2="17.5" y2="14.5"/><path class="cls-1" d="M22,23.5a6.055,6.055,0,0,1-.5-5H2.5a6.055,6.055,0,0,1-.5,5h8.5V22a1.5,1.5,0,0,1,3,0v1.5Z"/><line class="cls-1" x1="0.5" y1="23.5" x2="2" y2="23.5"/><line class="cls-1" x1="22" y1="23.5" x2="23.5" y2="23.5"/><rect class="cls-1" x="2.5" y="16.5" width="19" height="2"/></svg>