<svg id="Light" xmlns="http://www.w3.org/2000/svg" viewBox="0 0 24 24"><defs><style>.cls-1{fill:none;stroke:#000;stroke-linecap:round;stroke-linejoin:round;}</style></defs><title>amusement-park-speed-machine</title><path class="cls-1" d="M10,9.5h0a2,2,0,0,1,2,2v3a0,0,0,0,1,0,0H8a0,0,0,0,1,0,0v-3A2,2,0,0,1,10,9.5Z"/><path class="cls-1" d="M14,9.5h0a2,2,0,0,1,2,2v3a0,0,0,0,1,0,0H12a0,0,0,0,1,0,0v-3A2,2,0,0,1,14,9.5Z"/><path class="cls-1" d="M8,14.5h8a0,0,0,0,1,0,0v1a1,1,0,0,1-1,1H9a1,1,0,0,1-1-1v-1A0,0,0,0,1,8,14.5Z"/><line class="cls-1" x1="10" y1="2.5" x2="10" y2="9.5"/><line class="cls-1" x1="14" y1="2.5" x2="14" y2="9.5"/><line class="cls-1" x1="10" y1="16.5" x2="10" y2="21.5"/><line class="cls-1" x1="14" y1="16.5" x2="14" y2="21.5"/><polyline class="cls-1" points="18.5 2.5 18.5 21.5 5.5 21.5 5.5 2.5"/><path class="cls-1" d="M4.5,17.5h1a0,0,0,0,1,0,0v4a0,0,0,0,1,0,0h-2a0,0,0,0,1,0,0v-3A1,1,0,0,1,4.5,17.5Z"/><path class="cls-1" d="M18.5,17.5h1a1,1,0,0,1,1,1v3a0,0,0,0,1,0,0h-2a0,0,0,0,1,0,0v-4A0,0,0,0,1,18.5,17.5Z"/><path class="cls-1" d="M20.5,18.5h1a1,1,0,0,1,1,1v4a0,0,0,0,1,0,0h-2a0,0,0,0,1,0,0v-5A0,0,0,0,1,20.5,18.5Z"/><path class="cls-1" d="M2.5,18.5h1a0,0,0,0,1,0,0v5a0,0,0,0,1,0,0h-2a0,0,0,0,1,0,0v-4A1,1,0,0,1,2.5,18.5Z"/><path class="cls-1" d="M2.25,1.5a.25.25,0,0,1,.25.25"/><path class="cls-1" d="M2,1.75a.25.25,0,0,1,.25-.25"/><path class="cls-1" d="M2.25,2A.25.25,0,0,1,2,1.75"/><path class="cls-1" d="M2.5,1.75A.25.25,0,0,1,2.25,2"/><path class="cls-1" d="M2.25,5a.25.25,0,0,1,.25.25"/><path class="cls-1" d="M2,5.25A.25.25,0,0,1,2.25,5"/><path class="cls-1" d="M2.25,5.5A.25.25,0,0,1,2,5.25"/><path class="cls-1" d="M2.5,5.25a.25.25,0,0,1-.25.25"/><path class="cls-1" d="M2.25,8.5a.25.25,0,0,1,.25.25"/><path class="cls-1" d="M2,8.75a.25.25,0,0,1,.25-.25"/><path class="cls-1" d="M2.25,9A.25.25,0,0,1,2,8.75"/><path class="cls-1" d="M2.5,8.75A.25.25,0,0,1,2.25,9"/><path class="cls-1" d="M2.25,12a.25.25,0,0,1,.25.25"/><path class="cls-1" d="M2,12.25A.25.25,0,0,1,2.25,12"/><path class="cls-1" d="M2.25,12.5A.25.25,0,0,1,2,12.25"/><path class="cls-1" d="M2.5,12.25a.25.25,0,0,1-.25.25"/><path class="cls-1" d="M2.25,15.5a.25.25,0,0,1,.25.25"/><path class="cls-1" d="M2,15.75a.25.25,0,0,1,.25-.25"/><path class="cls-1" d="M2.25,16A.25.25,0,0,1,2,15.75"/><path class="cls-1" d="M2.5,15.75a.25.25,0,0,1-.25.25"/><path class="cls-1" d="M21.75,1.5a.25.25,0,0,1,.25.25"/><path class="cls-1" d="M21.5,1.75a.25.25,0,0,1,.25-.25"/><path class="cls-1" d="M21.75,2a.25.25,0,0,1-.25-.25"/><path class="cls-1" d="M22,1.75a.25.25,0,0,1-.25.25"/><path class="cls-1" d="M21.75,5a.25.25,0,0,1,.25.25"/><path class="cls-1" d="M21.5,5.25A.25.25,0,0,1,21.75,5"/><path class="cls-1" d="M21.75,5.5a.25.25,0,0,1-.25-.25"/><path class="cls-1" d="M22,5.25a.25.25,0,0,1-.25.25"/><path class="cls-1" d="M21.75,8.5a.25.25,0,0,1,.25.25"/><path class="cls-1" d="M21.5,8.75a.25.25,0,0,1,.25-.25"/><path class="cls-1" d="M21.75,9a.25.25,0,0,1-.25-.25"/><path class="cls-1" d="M22,8.75a.25.25,0,0,1-.25.25"/><path class="cls-1" d="M21.75,12a.25.25,0,0,1,.25.25"/><path class="cls-1" d="M21.5,12.25a.25.25,0,0,1,.25-.25"/><path class="cls-1" d="M21.75,12.5a.25.25,0,0,1-.25-.25"/><path class="cls-1" d="M22,12.25a.25.25,0,0,1-.25.25"/><path class="cls-1" d="M21.75,15.5a.25.25,0,0,1,.25.25"/><path class="cls-1" d="M21.5,15.75a.25.25,0,0,1,.25-.25"/><path class="cls-1" d="M21.75,16a.25.25,0,0,1-.25-.25"/><path class="cls-1" d="M22,15.75a.25.25,0,0,1-.25.25"/><rect class="cls-1" x="4.5" y="0.5" width="15" height="2" rx="1" ry="1"/><line class="cls-1" x1="0.5" y1="23.5" x2="23.5" y2="23.5"/></svg>