<svg id="Light" xmlns="http://www.w3.org/2000/svg" viewBox="0 0 24 24"><defs><style>.cls-1{fill:none;stroke:#000;stroke-linecap:round;stroke-linejoin:round;}</style></defs><title>amusement-park-ferris-wheel</title><circle class="cls-1" cx="12" cy="11" r="2"/><circle class="cls-1" cx="12" cy="2" r="1.5"/><circle class="cls-1" cx="3" cy="11" r="1.5"/><circle class="cls-1" cx="21" cy="11" r="1.5"/><line class="cls-1" x1="11.257" y1="12.858" x2="7" y2="23.5"/><line class="cls-1" x1="12.743" y1="12.858" x2="17" y2="23.5"/><line class="cls-1" x1="3" y1="23.5" x2="21" y2="23.5"/><circle class="cls-1" cx="18.364" cy="4.636" r="1.5"/><circle class="cls-1" cx="18.364" cy="17.364" r="1.5"/><circle class="cls-1" cx="5.636" cy="4.636" r="1.5"/><circle class="cls-1" cx="5.636" cy="17.364" r="1.5"/><path class="cls-1" d="M10.5,19.875a9.063,9.063,0,0,0,3,0"/><path class="cls-1" d="M4.667,5.781A8.947,8.947,0,0,0,3.124,9.506"/><path class="cls-1" d="M10.506,2.124A8.941,8.941,0,0,0,6.781,3.667"/><path class="cls-1" d="M17.219,3.667a8.941,8.941,0,0,0-3.725-1.543"/><path class="cls-1" d="M20.876,9.506a8.947,8.947,0,0,0-1.543-3.725"/><path class="cls-1" d="M19.333,16.219A8.948,8.948,0,0,0,20.876,12.5"/><path class="cls-1" d="M15.343,19.358a8.95,8.95,0,0,0,1.876-1.026"/><path class="cls-1" d="M6.781,18.332a8.95,8.95,0,0,0,1.876,1.026"/><path class="cls-1" d="M3.124,12.5a8.948,8.948,0,0,0,1.543,3.724"/></svg>