<svg xmlns="http://www.w3.org/2000/svg" viewBox="0 0 24 24"><defs><style>.a{fill:none;stroke:#000;stroke-linecap:round;stroke-linejoin:round;}</style></defs><title>analytics-bars-3d</title><path class="a" d="M6.588,12.31A1.045,1.045,0,0,1,7,13.087v7.738a1.079,1.079,0,0,1-.41.786l-2.18,1.521a.773.773,0,0,1-.82,0l-2.18-1.521A1.075,1.075,0,0,1,1,20.825V13.087a1.045,1.045,0,0,1,.416-.777l2.168-1.446a.816.816,0,0,1,.832,0Z"/><line class="a" x1="4.004" y1="14.587" x2="1.12" y2="12.664"/><line class="a" x1="6.888" y1="12.664" x2="4.004" y2="14.587"/><line class="a" x1="4.004" y1="14.587" x2="4.004" y2="23.222"/><path class="a" d="M14.588,6.81A1.045,1.045,0,0,1,15,7.587V20.825a1.079,1.079,0,0,1-.41.786l-2.18,1.521a.773.773,0,0,1-.82,0l-2.18-1.521A1.075,1.075,0,0,1,9,20.825V7.587A1.045,1.045,0,0,1,9.42,6.81l2.168-1.446a.816.816,0,0,1,.832,0Z"/><line class="a" x1="12.004" y1="9.087" x2="9.12" y2="7.164"/><line class="a" x1="14.888" y1="7.164" x2="12.004" y2="9.087"/><line class="a" x1="12.004" y1="9.087" x2="12.004" y2="23.238"/><path class="a" d="M22.588,2.31A1.045,1.045,0,0,1,23,3.087V20.825a1.079,1.079,0,0,1-.41.786l-2.18,1.521a.773.773,0,0,1-.82,0l-2.18-1.521a1.075,1.075,0,0,1-.41-.786V3.087a1.045,1.045,0,0,1,.416-.777L19.588.864a.816.816,0,0,1,.832,0Z"/><line class="a" x1="20.004" y1="4.587" x2="17.12" y2="2.664"/><line class="a" x1="22.888" y1="2.664" x2="20.004" y2="4.587"/><line class="a" x1="20.004" y1="4.587" x2="20.004" y2="23.238"/></svg>