<svg id="Light" xmlns="http://www.w3.org/2000/svg" viewBox="0 0 24 24"><defs><style>.cls-1{fill:none;stroke:#000;stroke-linecap:round;stroke-linejoin:round;}</style></defs><title>animal-products-eggs</title><path class="cls-1" d="M7.674,17.467a1,1,0,0,1-.976.783H3.3a1,1,0,0,1-.976-.783L1.5,13.75h7Z"/><path class="cls-1" d="M14.674,17.467a1,1,0,0,1-.976.783H10.3a1,1,0,0,1-.976-.783L8.5,13.75h7Z"/><path class="cls-1" d="M21.674,17.467a1,1,0,0,1-.976.783H17.3a1,1,0,0,1-.976-.783L15.5,13.75h7Z"/><path class="cls-1" d="M23.5,12.75a1,1,0,0,1-1,1H1.5a1,1,0,0,1,0-2h21A1,1,0,0,1,23.5,12.75Z"/><path class="cls-1" d="M8.5,11.75c0-3.314-1.567-6-3.5-6s-3.5,2.686-3.5,6"/><path class="cls-1" d="M15.5,11.75c0-3.314-1.567-6-3.5-6s-3.5,2.686-3.5,6"/><path class="cls-1" d="M22.5,11.75c0-3.314-1.567-6-3.5-6s-3.5,2.686-3.5,6"/></svg>