<svg id="Light" xmlns="http://www.w3.org/2000/svg" viewBox="0 0 24 24"><defs><style>.cls-1{fill:none;stroke:#000;stroke-linecap:round;stroke-linejoin:round;}</style></defs><title>animal-products-cheese</title><circle class="cls-1" cx="20" cy="12.639" r="1.5"/><circle class="cls-1" cx="6" cy="14.139" r="1"/><circle class="cls-1" cx="11" cy="18.139" r="2"/><path class="cls-1" d="M23.5,8.493V19.761a1,1,0,0,1-.871.991l-21,2.74A1,1,0,0,1,.5,22.5a1.045,1.045,0,0,1,.686-.982A2,2,0,0,0,.5,17.639V11.945a1,1,0,0,1,.339-.751L12.709.749a1,1,0,0,1,.7-.248C17.854.674,23.5,3.642,23.5,8.493"/><line class="cls-1" x1="23.5" y1="8.493" x2="0.616" y2="11.478"/><path class="cls-1" d="M18,17.389a.25.25,0,1,1-.25.25.25.25,0,0,1,.25-.25"/><path class="cls-1" d="M13.5,12.889a.25.25,0,1,1-.25.25.25.25,0,0,1,.25-.25"/></svg>