<svg id="Light" xmlns="http://www.w3.org/2000/svg" viewBox="0 0 24 24"><defs><style>.cls-1{fill:none;stroke:#000;stroke-linecap:round;stroke-linejoin:round;}</style></defs><title>animal-print</title><path class="cls-1" d="M12,21c3.383,0,3.3,2.5,6,2.5.677,0,3-.117,3-3.5s-2.981-2.051-4.265-4.617C15.383,12.677,15.383,10.5,12,10.5s-3.383,2.177-4.735,4.883C5.981,17.949,3,16.618,3,20s2.323,3.5,3,3.5C8.705,23.5,8.617,21,12,21Z"/><path class="cls-1" d="M4.5,11a2,2,0,0,1-4,0V9a2,2,0,0,1,4,0Z"/><path class="cls-1" d="M10.5,4.5a2,2,0,0,1-4,0v-2a2,2,0,0,1,4,0Z"/><path class="cls-1" d="M19.5,11a2,2,0,0,0,4,0V9a2,2,0,0,0-4,0Z"/><path class="cls-1" d="M13.5,4.5a2,2,0,0,0,4,0v-2a2,2,0,0,0-4,0Z"/></svg>