<svg id="Light" xmlns="http://www.w3.org/2000/svg" viewBox="0 0 24 24"><defs><style>.cls-1{fill:none;stroke:#000;stroke-linecap:round;stroke-linejoin:round;}</style></defs><title>animal-products-fried-egg-pan</title><circle class="cls-1" cx="14" cy="10" r="9.5"/><path class="cls-1" d="M16.235,7.765A2.235,2.235,0,1,1,14,5.529,2.235,2.235,0,0,1,16.235,7.765Z"/><path class="cls-1" d="M14,3.294A6.707,6.707,0,0,0,7.294,10a.907.907,0,0,0,1.231.848,4.357,4.357,0,0,1,1.563-.289,4.471,4.471,0,0,1,4.471,4.47,1.328,1.328,0,0,0,1.8,1.244A6.7,6.7,0,0,0,14,3.294Z"/><line class="cls-1" x1="7.282" y1="16.718" x2="0.5" y2="23.5"/></svg>