<svg id="Light" xmlns="http://www.w3.org/2000/svg" viewBox="0 0 24 24"><defs><style>.cls-1{fill:none;stroke:#000;stroke-linecap:round;stroke-linejoin:round;}</style></defs><title>animal-print-bird</title><path class="cls-1" d="M16.54,12.184s-3.77,1.788-4.246,4.616.057,4.37,1.6,4.63,2.017-2.568,2.414-4.924A19.346,19.346,0,0,0,16.54,12.184Z"/><path class="cls-1" d="M19.647,12.751s2.977,2.924,2.5,5.751-1.485,4.111-3.027,3.851-1.066-3.086-.67-5.442A19.328,19.328,0,0,1,19.647,12.751Z"/><path class="cls-1" d="M4.749,1.855S1.557,4.542,1.815,7.4,2.981,11.61,4.539,11.47s1.3-3,1.084-5.376A19.3,19.3,0,0,0,4.749,1.855Z"/><path class="cls-1" d="M7.9,1.614s3.622,2.071,3.881,4.927-.392,4.353-1.949,4.494S8.014,8.32,7.8,5.941A19.327,19.327,0,0,1,7.9,1.614Z"/></svg>