<svg id="Light" xmlns="http://www.w3.org/2000/svg" viewBox="0 0 24 24"><defs><style>.cls-1{fill:none;stroke:#000;stroke-linecap:round;stroke-linejoin:round;}</style></defs><title>animal-print-paw-1</title><path class="cls-1" d="M12.233,9.792c-5.247,0-9.5,3.5-9.5,7.824a6.88,6.88,0,0,0,1.936,4.7,2.2,2.2,0,0,0,2.975.274,8.284,8.284,0,0,1,5.148-1.62,8.57,8.57,0,0,1,4.657,1.276,2.195,2.195,0,0,0,2.921-.62,6.719,6.719,0,0,0,1.363-4.009C21.733,13.3,17.479,9.792,12.233,9.792Z"/><ellipse class="cls-1" cx="8.476" cy="5.524" rx="1.75" ry="2.5" transform="translate(-0.983 1.936) rotate(-12.319)"/><ellipse class="cls-1" cx="2.476" cy="8.524" rx="1.75" ry="2.5" transform="translate(-1.762 0.724) rotate(-12.319)"/><line class="cls-1" x1="1.233" y1="4.954" x2="0.733" y2="3.954"/><line class="cls-1" x1="7.233" y1="1.954" x2="6.733" y2="0.954"/><ellipse class="cls-1" cx="15.524" cy="5.524" rx="2.5" ry="1.75" transform="translate(6.816 19.512) rotate(-77.681)"/><ellipse class="cls-1" cx="21.524" cy="8.524" rx="2.5" ry="1.75" transform="translate(8.605 27.734) rotate(-77.681)"/><line class="cls-1" x1="22.767" y1="4.954" x2="23.267" y2="3.954"/><line class="cls-1" x1="16.767" y1="1.954" x2="17.267" y2="0.954"/></svg>