<svg id="Light" xmlns="http://www.w3.org/2000/svg" viewBox="0 0 24 24"><defs><style>.cls-1{fill:none;stroke:#000;stroke-linecap:round;stroke-linejoin:round;}</style></defs><title>animal-print-bird-2</title><path class="cls-1" d="M12.256,6.605a1.5,1.5,0,0,0-2.123-2.122L8.224,6.394V2.515a1.5,1.5,0,1,0-3,0V6.394L3.345,4.515A1.5,1.5,0,0,0,1.224,6.636l4,4v3.879a1.5,1.5,0,0,0,3,0V10.636Z"/><path class="cls-1" d="M22.318,16.121a1.5,1.5,0,0,0-1.207-2.747l-2.473,1.088,1.408-3.615a1.5,1.5,0,1,0-2.8-1.088l-1.407,3.613-1.069-2.431a1.5,1.5,0,0,0-2.747,1.207L14.3,17.326,12.9,20.941a1.5,1.5,0,0,0,2.8,1.088L17.1,18.415Z"/></svg>