<svg id="Light" xmlns="http://www.w3.org/2000/svg" viewBox="0 0 24 24"><defs><style>.cls-1{fill:none;stroke:#000;stroke-linecap:round;stroke-linejoin:round;}</style></defs><title>anteater</title><path class="cls-1" d="M20.5,21.534h3v-5c0-4.5,0-9-2.5-11a16.934,16.934,0,0,0-12-3c-4.5.5-6.5,2.5-7.5,4.5a4.829,4.829,0,0,0,0,4,27.163,27.163,0,0,0-1,5.5c0,1.5,1,1.5,1.5,1,.791-.79,1-4.5,3-6.5a3.219,3.219,0,0,1,5,.5,7.421,7.421,0,0,0-2.5,4.5c-.5,3,1,3.5,1,3.5"/><path class="cls-1" d="M12,12.534s1.5.5,1.5,3.5v5.5h-1"/><path class="cls-1" d="M21.5,21.534s.5-2-1.5-4.5a9.479,9.479,0,0,0-3-2.5l-1.5,7h-2"/><path class="cls-1" d="M3.25,8.534a.25.25,0,0,1,.25.25"/><path class="cls-1" d="M3,8.784a.25.25,0,0,1,.25-.25"/><path class="cls-1" d="M3.25,9.034A.25.25,0,0,1,3,8.784"/><path class="cls-1" d="M3.5,8.784a.25.25,0,0,1-.25.25"/><path class="cls-1" d="M5.5,6.034s.5-1.5,1.5-1,0,1.5,0,1.5"/><path class="cls-1" d="M1.5,17.813v2.721c0,1,2,1.5,2.5.5"/></svg>