<svg xmlns="http://www.w3.org/2000/svg" viewBox="0 0 24 24"><defs><style>.a{fill:none;stroke:#000;stroke-linecap:round;stroke-linejoin:round;}</style></defs><title>antique-catapult-1</title><line class="a" x1="5.244" y1="12.355" x2="10.417" y2="16.125"/><line class="a" x1="19.177" y1="17.503" x2="14.5" y2="9"/><line class="a" x1="14.5" y1="5" x2="22.251" y2="18.566"/><path class="a" d="M14.5,16.232V3.5A.5.5,0,0,0,14,3H13a.5.5,0,0,0-.5.5V16.065"/><path class="a" d="M23.5,19.355a.5.5,0,0,0-.336-.472l-5.251-1.826a18,18,0,0,0-11.826,0L.836,18.883a.5.5,0,0,0-.336.472V20.5A.5.5,0,0,0,1,21H23a.5.5,0,0,0,.5-.5Z"/><circle class="a" cx="12" cy="18.5" r="1"/><path class="a" d="M7.035,10.458a.5.5,0,0,1,.236.348.5.5,0,0,1-.112.406,3.5,3.5,0,0,1-4.462.723l-.428-.257A3.5,3.5,0,0,1,.813,7.4a.5.5,0,0,1,.3-.29.5.5,0,0,1,.419.045Z"/><line class="a" x1="6.317" y1="16.978" x2="2.489" y2="11.81"/></svg>