<svg xmlns="http://www.w3.org/2000/svg" viewBox="0 0 24 24"><defs><style>.a{fill:none;stroke:#000;stroke-linecap:round;stroke-linejoin:round;}</style></defs><title>antique-catapult</title><line class="a" x1="15.5" y1="17.5" x2="15.5" y2="10.5"/><line class="a" x1="12.5" y1="20.5" x2="8.5" y2="20.5"/><path class="a" d="M2.5,20.5H1A.5.5,0,0,1,.5,20V18a.5.5,0,0,1,.5-.5H20a.5.5,0,0,1,.5.5v2a.5.5,0,0,1-.5.5H18.5"/><circle class="a" cx="5.5" cy="20.5" r="3"/><circle class="a" cx="15.5" cy="20.5" r="3"/><path class="a" d="M5.5,20.25a.25.25,0,0,1,.25.25"/><path class="a" d="M5.25,20.5a.25.25,0,0,1,.25-.25"/><path class="a" d="M5.5,20.75a.25.25,0,0,1-.25-.25"/><path class="a" d="M5.75,20.5a.25.25,0,0,1-.25.25"/><path class="a" d="M15.5,20.25a.25.25,0,0,1,.25.25"/><path class="a" d="M15.25,20.5a.25.25,0,0,1,.25-.25"/><path class="a" d="M15.5,20.75a.25.25,0,0,1-.25-.25"/><path class="a" d="M15.75,20.5a.25.25,0,0,1-.25.25"/><line class="a" x1="20" y1="17.5" x2="15.5" y2="12"/><line class="a" x1="11" y1="17.5" x2="15.5" y2="12"/><path class="a" d="M3.712,6.046A3,3,0,1,0,8.042,10.2l.346-.361L4.418,6.031a.5.5,0,0,0-.706.015Z"/><line class="a" x1="13.361" y1="14.611" x2="8.388" y2="9.839"/><circle class="a" cx="22" cy="2" r="1.5"/><path class="a" d="M16.19,2.838c.649-.15,1.3-.283,1.967-.394"/><path class="a" d="M12.351,4q.938-.348,1.9-.639"/><path class="a" d="M8.687,5.628q.887-.465,1.806-.874"/></svg>