<svg id="Light" xmlns="http://www.w3.org/2000/svg" viewBox="0 0 24 24"><defs><style>.cls-1{fill:none;stroke:#000;stroke-linecap:round;stroke-linejoin:round;}</style></defs><title>appliances-aspirator</title><path class="cls-1" d="M20.5,14.25a.25.25,0,1,1-.25.25.25.25,0,0,1,.25-.25"/><path class="cls-1" d="M17.5,14.25a.25.25,0,1,1-.25.25.25.25,0,0,1,.25-.25"/><path class="cls-1" d="M16.5,6.5h-9V1A.5.5,0,0,1,8,.5h8a.5.5,0,0,1,.5.5Z"/><path class="cls-1" d="M22.8,11.9a2,2,0,0,1,.7,1.519V16a.5.5,0,0,1-.5.5H1A.5.5,0,0,1,.5,16V13.42A2,2,0,0,1,1.2,11.9L7.5,6.5h9Z"/><line class="cls-1" x1="0.724" y1="12.5" x2="23.276" y2="12.5"/><line class="cls-1" x1="3.547" y1="14.5" x2="7.5" y2="14.5"/><line class="cls-1" x1="9.547" y1="14.5" x2="13.5" y2="14.5"/><path class="cls-1" d="M12,19.5c-1.732,1.5,1.732,2.5,0,4"/><path class="cls-1" d="M16.5,19.5c-1.732,1.5,1.732,2.5,0,4"/><path class="cls-1" d="M7.5,19.5c-1.732,1.5,1.732,2.5,0,4"/></svg>