<svg id="Light" xmlns="http://www.w3.org/2000/svg" viewBox="0 0 24 24"><defs><style>.cls-1{fill:none;stroke:#000;stroke-linecap:round;stroke-linejoin:round;}</style></defs><title>appliances-vitamix</title><path class="cls-1" d="M7.47,17.5a.25.25,0,1,1-.25.25.25.25,0,0,1,.25-.25"/><path class="cls-1" d="M13.47,17.5a.25.25,0,1,0,.25.25.25.25,0,0,0-.25-.25"/><path class="cls-1" d="M17.106,21.225a1,1,0,0,1-.962,1.275H4.8a1,1,0,0,1-.962-1.275l1.429-5a1,1,0,0,1,.961-.725h8.492a1,1,0,0,1,.961.725Z"/><line class="cls-1" x1="13.47" y1="22.5" x2="13.47" y2="23.5"/><line class="cls-1" x1="7.47" y1="22.5" x2="7.47" y2="23.5"/><path class="cls-1" d="M17.305,3.169a1,1,0,0,1,.075.69L14.47,15.5h-8L3.56,3.859a1,1,0,0,1,.076-.69L4.694,1.053A1,1,0,0,1,5.588.5h9.764a1,1,0,0,1,.894.553Z"/><line class="cls-1" x1="17.403" y1="3.5" x2="3.537" y2="3.5"/><path class="cls-1" d="M16.97,5.5h1.5a2,2,0,0,1,2,2V12"/><circle class="cls-1" cx="10.47" cy="19.5" r="1"/><line class="cls-1" x1="8.47" y1="15.5" x2="8.47" y2="8.5"/><line class="cls-1" x1="12.47" y1="15.5" x2="12.47" y2="8.5"/></svg>