<svg id="Light" xmlns="http://www.w3.org/2000/svg" viewBox="0 0 24 24"><defs><style>.cls-1{fill:none;stroke:#000;stroke-linecap:round;stroke-linejoin:round;}</style></defs><title>appliances-stove</title><path class="cls-1" d="M22,20.5a2,2,0,0,1-2,2H8a2,2,0,0,1-2-2V13a.5.5,0,0,1,.5-.5h15a.5.5,0,0,1,.5.5Z"/><line class="cls-1" x1="8" y1="22.5" x2="8" y2="23.5"/><line class="cls-1" x1="20" y1="22.5" x2="20" y2="23.5"/><path class="cls-1" d="M8,4.5H19.5A.5.5,0,0,1,20,5V8.5a2,2,0,0,1-2,2H10a2,2,0,0,1-2-2Z"/><path class="cls-1" d="M8,4.5v-2a2,2,0,0,0-2-2H2"/><polyline class="cls-1" points="11 16.5 11 15.5 17 15.5 17 16.5"/><line class="cls-1" x1="11" y1="4.5" x2="11" y2="10.5"/><line class="cls-1" x1="14" y1="4.5" x2="14" y2="10.5"/><line class="cls-1" x1="17" y1="4.5" x2="17" y2="10.5"/></svg>