<svg id="Light" xmlns="http://www.w3.org/2000/svg" viewBox="0 0 24 24"><defs><style>.cls-1{fill:none;stroke:#000;stroke-linecap:round;stroke-linejoin:round;}</style></defs><title>appliances-microwave</title><rect class="cls-1" x="0.5" y="2.5" width="23" height="16" rx="2" ry="2"/><line class="cls-1" x1="2.5" y1="21.5" x2="2.5" y2="18.5"/><line class="cls-1" x1="21.5" y1="21.5" x2="21.5" y2="18.5"/><rect class="cls-1" x="2.5" y="4.5" width="12" height="12" rx="2" ry="2"/><line class="cls-1" x1="16.5" y1="2.5" x2="16.5" y2="18.5"/><rect class="cls-1" x="18.5" y="14.5" width="3" height="2" rx="0.5" ry="0.5"/><line class="cls-1" x1="5" y1="13.5" x2="12" y2="13.5"/><path class="cls-1" d="M8.5,13.5a3.233,3.233,0,0,0,2.854-2.762A1,1,0,0,0,10.382,9.5H6.618a1,1,0,0,0-.972,1.238A3.233,3.233,0,0,0,8.5,13.5Z"/><rect class="cls-1" x="18.5" y="4.5" width="3" height="8" rx="0.5" ry="0.5"/></svg>