<svg id="Light" xmlns="http://www.w3.org/2000/svg" viewBox="0 0 24 24"><defs><style>.cls-1{fill:none;stroke:#000;stroke-linecap:round;stroke-linejoin:round;}</style></defs><title>appliances-oven</title><line class="cls-1" x1="22.5" y1="2.5" x2="22.5" y2="20.5"/><line class="cls-1" x1="1.5" y1="20.5" x2="1.5" y2="2.5"/><path class="cls-1" d="M23.5,22.5a1,1,0,0,1-1,1H1.5a1,1,0,0,1-1-1V21a.5.5,0,0,1,.5-.5H23a.5.5,0,0,1,.5.5Z"/><rect class="cls-1" x="3.5" y="8.5" width="17" height="10" rx="0.5" ry="0.5"/><line class="cls-1" x1="6.5" y1="11.5" x2="17.5" y2="11.5"/><circle class="cls-1" cx="15.5" cy="5.5" r="1"/><circle class="cls-1" cx="19.5" cy="5.5" r="1"/><rect class="cls-1" x="3.5" y="4.5" width="9" height="2" rx="0.5" ry="0.5"/><path class="cls-1" d="M23.5,2a.5.5,0,0,1-.5.5H1A.5.5,0,0,1,.5,2V1.5a1,1,0,0,1,1-1h21a1,1,0,0,1,1,1Z"/></svg>