<svg id="Light" xmlns="http://www.w3.org/2000/svg" viewBox="0 0 24 24"><defs><style>.cls-1{fill:none;stroke:#000;stroke-linecap:round;stroke-linejoin:round;}</style></defs><title>archery-person</title><circle class="cls-1" cx="8.299" cy="3" r="2.5"/><path class="cls-1" d="M8.3,10.5H3.8a1.5,1.5,0,0,1,0-3H8.3a1.5,1.5,0,0,1,0,3Z"/><path class="cls-1" d="M18.3,17.547C24.29,10.1,21.085,3.976,18.4.58L18.372.544"/><path class="cls-1" d="M5.8,12.5v3l-.978,6.245a1.5,1.5,0,0,0,2.956.51L8.8,16.328l1.022,5.927a1.5,1.5,0,1,0,2.956-.51L11.8,15.5v-5h6a1.5,1.5,0,0,0,0-3H11.3"/></svg>