<svg xmlns="http://www.w3.org/2000/svg" viewBox="0 0 24 24"><defs><style>.a{fill:none;stroke:#000;stroke-linecap:round;stroke-linejoin:round;}</style></defs><title>architecture-fence-1</title><path class="a" d="M3.5,2.5a3,3,0,0,1,3,3V21a.5.5,0,0,1-.5.5H1A.5.5,0,0,1,.5,21V5.5A3,3,0,0,1,3.5,2.5Z"/><path class="a" d="M20.5,2.5a3,3,0,0,1,3,3V21a.5.5,0,0,1-.5.5H18a.5.5,0,0,1-.5-.5V5.5A3,3,0,0,1,20.5,2.5Z"/><line class="a" x1="6.5" y1="9.5" x2="9.003" y2="9.5"/><line class="a" x1="6.5" y1="18.5" x2="9.003" y2="18.5"/><line class="a" x1="15.003" y1="9.5" x2="17.5" y2="9.5"/><line class="a" x1="15.003" y1="18.5" x2="17.5" y2="18.5"/><path class="a" d="M12,2.5a3,3,0,0,1,3,3V21a.5.5,0,0,1-.5.5h-5A.5.5,0,0,1,9,21V5.5A3,3,0,0,1,12,2.5Z"/></svg>