<svg xmlns="http://www.w3.org/2000/svg" viewBox="0 0 24 24"><defs><style>.a{fill:none;stroke:#000;stroke-linecap:round;stroke-linejoin:round;}</style></defs><title>architecture-window</title><path class="a" d="M6,10a6,6,0,0,1,12,0V20H6Z"/><line class="a" x1="6.076" y1="9" x2="17.902" y2="9"/><line class="a" x1="14" y1="9" x2="14" y2="20"/><line class="a" x1="10" y1="9" x2="10" y2="20"/><line class="a" x1="12" y1="4" x2="12" y2="9"/><line class="a" x1="12" y1="9" x2="15.752" y2="5.304"/><line class="a" x1="12" y1="9" x2="8.265" y2="5.304"/><line class="a" x1="6" y1="14" x2="18" y2="14"/><path class="a" d="M2,10.5a1,1,0,0,1-1-1v-2a1,1,0,0,1,1-1H3.5l.015-.008a9,9,0,0,1,16.973.01l.012,0H22a1,1,0,0,1,1,1v2a1,1,0,0,1-1,1H21v12a1,1,0,0,1-1,1H4a1,1,0,0,1-1-1v-12Z"/></svg>