<svg id="Light" xmlns="http://www.w3.org/2000/svg" viewBox="0 0 24 24"><defs><style>.cls-1{fill:none;stroke:#000;stroke-linecap:round;stroke-linejoin:round;}</style></defs><title>armchair-1</title><path class="cls-1" d="M19,13.5l.935-6.089A6,6,0,0,0,14.005.5H9.992a6,6,0,0,0-5.93,6.911L5,13.5"/><line class="cls-1" x1="6.5" y1="22.5" x2="6.5" y2="23.5"/><line class="cls-1" x1="17.5" y1="22.5" x2="17.5" y2="23.5"/><path class="cls-1" d="M21.5,12.5A3.5,3.5,0,0,0,18,16v1.5s-1.5-1-6-1-6,1-6,1V16a3.5,3.5,0,0,0-3.5-3.5,2,2,0,0,0-.77,3.847A1.25,1.25,0,0,1,2.5,17.5v2a3,3,0,0,0,3,3h13a3,3,0,0,0,3-3v-2a1.247,1.247,0,0,1,.768-1.153A2,2,0,0,0,21.5,12.5Z"/><polyline class="cls-1" points="15 10 13.5 9 15 8"/><polyline class="cls-1" points="9 10 10.5 9 9 8"/><circle class="cls-1" cx="12" cy="9" r="1.5"/></svg>