<svg id="Light" xmlns="http://www.w3.org/2000/svg" viewBox="0 0 24 24"><defs><style>.cls-1{fill:none;stroke:#000;stroke-linecap:round;stroke-linejoin:round;}</style></defs><title>armchair-modern-2</title><line class="cls-1" x1="12" y1="18.5" x2="12" y2="23.5"/><line class="cls-1" x1="5.5" y1="23.5" x2="18.5" y2="23.5"/><path class="cls-1" d="M12,.5C7.227.5,1.5,6.5,1.5,12c0,2.85,2.5,6.5,10.5,6.5S22.5,14.85,22.5,12C22.5,6.5,16.773.5,12,.5Z"/><path class="cls-1" d="M12,3.5c-3.109,0-7.5,4.221-7.5,6.84A4.159,4.159,0,0,0,8.66,14.5h6.68a4.159,4.159,0,0,0,4.16-4.16C19.5,7.716,15.1,3.5,12,3.5Z"/><path class="cls-1" d="M18.918,12.463c-.42-.181-2.5-.963-6.918-.963s-6.5.782-6.918.963"/></svg>