<svg id="Light" xmlns="http://www.w3.org/2000/svg" viewBox="0 0 24 24"><defs><style>.cls-1{fill:none;stroke:#000;stroke-linecap:round;stroke-linejoin:round;}</style></defs><title>armchair-modern</title><path class="cls-1" d="M23.5,3.733a1.733,1.733,0,0,0-3.384-.525L17.3,12.047A1.366,1.366,0,0,1,16,13H8a1.366,1.366,0,0,1-1.3-.953L3.884,3.208A1.738,1.738,0,0,0,.563,4.228L4.991,20.169A2.5,2.5,0,0,0,7.4,22h9.2a2.5,2.5,0,0,0,2.409-1.831L23.437,4.228A1.749,1.749,0,0,0,23.5,3.733Z"/><line class="cls-1" x1="20.197" y1="3" x2="3.803" y2="3"/><path class="cls-1" d="M8.5,13l.389-2.333A2.992,2.992,0,0,0,8.814,9.35L8.476,8.165A1,1,0,0,1,9.68,6.92l1.592.4a2.989,2.989,0,0,0,1.456,0l1.592-.4a1,1,0,0,1,1.2,1.245L15.186,9.35a2.992,2.992,0,0,0-.075,1.317L15.5,13"/></svg>