<svg id="Light" xmlns="http://www.w3.org/2000/svg" viewBox="0 0 24 24"><defs><style>.cls-1{fill:none;stroke:#000;stroke-linecap:round;stroke-linejoin:round;}</style></defs><title>arrow-thick-circle-bottom-left-corner-1</title><path class="cls-1" d="M16.584,6,18,7.416a.5.5,0,0,1,0,.706L11.647,14.5H17a.5.5,0,0,1,.5.5v2a.5.5,0,0,1-.5.5H7a.5.5,0,0,1-.5-.5l0-10A.5.5,0,0,1,7,6.5H9a.5.5,0,0,1,.5.5v5.358L15.878,6A.5.5,0,0,1,16.584,6Z"/><path class="cls-1" d="M12,.5A11.5,11.5,0,1,0,23.5,12,11.5,11.5,0,0,0,12,.5Z"/></svg>