<svg id="Light" xmlns="http://www.w3.org/2000/svg" viewBox="0 0 24 24"><defs><style>.cls-1{fill:none;stroke:#000;stroke-linecap:round;stroke-linejoin:round;}</style></defs><title>arrow-thick-circle-up-1</title><path class="cls-1" d="M11,19.5h2a.5.5,0,0,0,.5-.5V10.008l3.636,3.639a.5.5,0,0,0,.707,0l1.29-1.29a.5.5,0,0,0,0-.707l-6.78-6.779a.5.5,0,0,0-.707,0L4.866,11.65a.5.5,0,0,0,0,.707l1.29,1.29a.5.5,0,0,0,.707,0L10.5,10.008V19A.5.5,0,0,0,11,19.5Z"/><circle class="cls-1" cx="12" cy="12" r="11.5" transform="translate(-0.038 0.038) rotate(-0.183)"/></svg>