<svg id="Light" xmlns="http://www.w3.org/2000/svg" viewBox="0 0 24 24"><defs><style>.cls-1{fill:none;stroke:#000;stroke-linecap:round;stroke-linejoin:round;}</style></defs><title>arrow-dot-right-1</title><path class="cls-1" d="M12.014,2.509a.25.25,0,1,0,.25.25.25.25,0,0,0-.25-.25"/><path class="cls-1" d="M12.014,6.205a.25.25,0,1,0,.25.25.25.25,0,0,0-.25-.25"/><path class="cls-1" d="M12.014,9.9a.25.25,0,1,0,.25.25.25.25,0,0,0-.25-.25"/><path class="cls-1" d="M12.014,13.6a.251.251,0,1,0,.25.25.25.25,0,0,0-.25-.25"/><path class="cls-1" d="M8.318,9.9a.25.25,0,1,0,.25.25.25.25,0,0,0-.25-.25"/><path class="cls-1" d="M8.318,13.6a.25.25,0,0,0-.25.25h0a.25.25,0,0,0,.5,0h0a.25.25,0,0,0-.25-.25"/><path class="cls-1" d="M4.621,9.9a.25.25,0,1,0,.25.25.25.25,0,0,0-.25-.25"/><path class="cls-1" d="M4.621,13.6a.25.25,0,0,0-.25.25h0a.25.25,0,0,0,.5,0h0a.25.25,0,0,0-.25-.25"/><path class="cls-1" d="M.924,9.9a.25.25,0,1,0,.25.25.25.25,0,0,0-.25-.25"/><path class="cls-1" d="M.924,13.6a.251.251,0,1,0,.25.25.25.25,0,0,0-.25-.25"/><path class="cls-1" d="M12.014,17.3a.25.25,0,1,0,.25.25.25.25,0,0,0-.25-.25"/><path class="cls-1" d="M15.711,6.205a.25.25,0,1,0,.25.25.25.25,0,0,0-.25-.25"/><path class="cls-1" d="M15.711,9.9a.25.25,0,1,0,.25.25.25.25,0,0,0-.25-.25"/><path class="cls-1" d="M15.711,13.6a.251.251,0,1,0,.25.25.25.25,0,0,0-.25-.25"/><path class="cls-1" d="M19.408,13.6a.251.251,0,1,0,.25.25.25.25,0,0,0-.25-.25"/><path class="cls-1" d="M23.076,11.75a.25.25,0,1,0,.25.25.25.25,0,0,0-.25-.25"/><path class="cls-1" d="M19.408,9.9a.25.25,0,1,0,.25.25.25.25,0,0,0-.25-.25"/><path class="cls-1" d="M15.711,17.3a.25.25,0,1,0,.25.25.25.25,0,0,0-.25-.25"/><path class="cls-1" d="M12.014,20.992a.25.25,0,1,0,.25.25.25.25,0,0,0-.25-.25"/></svg>