<svg id="Light" xmlns="http://www.w3.org/2000/svg" viewBox="0 0 24 24"><defs><style>.cls-1{fill:none;stroke:#000;stroke-linecap:round;stroke-linejoin:round;}</style></defs><title>arrow-thick-down-4</title><path class="cls-1" d="M1.5,23.5h21a1,1,0,0,0,1-1V1.5a1,1,0,0,0-1-1H1.5a1,1,0,0,0-1,1v21A1,1,0,0,0,1.5,23.5ZM13.5,5v8.5l3.145-3.351a.5.5,0,0,1,.855.352v3.127a.5.5,0,0,1-.165.371l-5.03,4.543a.5.5,0,0,1-.672,0L6.663,14A.5.5,0,0,1,6.5,13.63V10.515a.5.5,0,0,1,.858-.349L10.5,13.5V5a.5.5,0,0,1,.5-.5h2A.5.5,0,0,1,13.5,5Z"/></svg>