<svg id="Light" xmlns="http://www.w3.org/2000/svg" viewBox="0 0 24 24"><defs><style>.cls-1{fill:none;stroke:#000;stroke-linecap:round;stroke-linejoin:round;}</style></defs><title>arrow-thick-left-bottom-corner-4</title><path class="cls-1" d="M22.5.5H1.5a1,1,0,0,0-1,1v21a1,1,0,0,0,1,1h21a1,1,0,0,0,1-1V1.5A1,1,0,0,0,22.5.5ZM17.791,8.493,11.782,14.5H16.3a.5.5,0,0,1,.353.854l-2,2a.5.5,0,0,1-.353.146H7a.5.5,0,0,1-.5-.5V9.707a.5.5,0,0,1,.146-.353l2-2a.5.5,0,0,1,.854.353v4.629l6.17-5.975a.5.5,0,0,1,.7.006l1.42,1.419A.5.5,0,0,1,17.791,8.493Z"/></svg>