<svg id="Light" xmlns="http://www.w3.org/2000/svg" viewBox="0 0 24 24"><defs><style>.cls-1{fill:none;stroke:#000;stroke-linecap:round;stroke-linejoin:round;}</style></defs><title>arrow-dot-corner-left-1</title><path class="cls-1" d="M3.25,20.5a.25.25,0,1,0,.25-.25.25.25,0,0,0-.25.25"/><path class="cls-1" d="M3.25,17.1a.25.25,0,1,0,.25-.25.25.25,0,0,0-.25.25"/><path class="cls-1" d="M3.25,13.7a.25.25,0,1,0,.25-.25.25.25,0,0,0-.25.25"/><path class="cls-1" d="M3.25,10.3a.25.25,0,0,0,.5,0h0a.25.25,0,0,0-.5,0"/><line class="cls-1" x1="3.25" y1="10.3" x2="3.25" y2="10.3"/><path class="cls-1" d="M6.65,17.1a.25.25,0,1,0,.25-.25.249.249,0,0,0-.25.25"/><path class="cls-1" d="M6.65,13.7a.25.25,0,1,0,.25-.25.25.25,0,0,0-.25.25"/><path class="cls-1" d="M6.65,10.3a.25.25,0,1,0,.25-.25.25.25,0,0,0-.25.25"/><path class="cls-1" d="M10.05,17.1a.25.25,0,1,0,.25-.25.249.249,0,0,0-.25.25"/><path class="cls-1" d="M10.05,13.7a.25.25,0,1,0,.25-.25.25.25,0,0,0-.25.25"/><path class="cls-1" d="M10.05,10.3a.25.25,0,1,0,.25-.25.25.25,0,0,0-.25.25"/><path class="cls-1" d="M3.25,6.9a.25.25,0,0,0,.5,0h0a.25.25,0,0,0-.5,0"/><line class="cls-1" x1="3.25" y1="6.899" x2="3.25" y2="6.9"/><path class="cls-1" d="M16.85,10.3a.25.25,0,1,0,.25-.25.25.25,0,0,0-.25.25"/><path class="cls-1" d="M16.85,6.9a.25.25,0,1,0,.25-.251.25.25,0,0,0-.25.251"/><path class="cls-1" d="M16.85,3.5a.25.25,0,1,0,.25-.25.25.25,0,0,0-.25.25"/><path class="cls-1" d="M20.25,6.9a.25.25,0,0,0,.5,0h0a.25.25,0,0,0-.5,0"/><line class="cls-1" x1="20.25" y1="6.899" x2="20.25" y2="6.9"/><path class="cls-1" d="M13.45,17.1a.25.25,0,1,0,.25-.25.249.249,0,0,0-.25.25"/><path class="cls-1" d="M13.45,13.7a.25.25,0,1,0,.25-.25.25.25,0,0,0-.25.25"/><path class="cls-1" d="M13.45,10.3a.25.25,0,1,0,.25-.25.25.25,0,0,0-.25.25"/><path class="cls-1" d="M13.45,6.9a.25.25,0,1,0,.25-.251.25.25,0,0,0-.25.251"/><path class="cls-1" d="M16.85,20.5a.25.25,0,1,0,.25-.25.25.25,0,0,0-.25.25"/><path class="cls-1" d="M13.45,20.5a.25.25,0,1,0,.25-.25.25.25,0,0,0-.25.25"/><path class="cls-1" d="M10.05,20.5a.25.25,0,1,0,.25-.25.25.25,0,0,0-.25.25"/><path class="cls-1" d="M6.65,20.5a.25.25,0,1,0,.25-.25.25.25,0,0,0-.25.25"/></svg>