<svg id="Light" xmlns="http://www.w3.org/2000/svg" viewBox="0 0 24 24"><defs><style>.cls-1{fill:none;stroke:#000;stroke-linecap:round;stroke-linejoin:round;}</style></defs><title>arrow-dot-left-1</title><path class="cls-1" d="M11.986,21.492a.25.25,0,1,0-.25-.25.25.25,0,0,0,.25.25"/><path class="cls-1" d="M11.986,17.8a.25.25,0,1,0-.25-.25.25.25,0,0,0,.25.25"/><path class="cls-1" d="M11.986,14.1a.25.25,0,1,0-.25-.25.25.25,0,0,0,.25.25"/><path class="cls-1" d="M11.986,10.4a.25.25,0,1,0-.25-.25.25.25,0,0,0,.25.25"/><path class="cls-1" d="M15.682,14.1a.25.25,0,1,0-.25-.25.25.25,0,0,0,.25.25"/><path class="cls-1" d="M15.682,10.4a.25.25,0,0,0,.25-.25h0a.25.25,0,0,0-.5,0h0a.25.25,0,0,0,.25.25"/><path class="cls-1" d="M19.379,14.1a.25.25,0,1,0-.25-.25.25.25,0,0,0,.25.25"/><path class="cls-1" d="M19.379,10.4a.25.25,0,0,0,.25-.25h0a.25.25,0,1,0-.5,0h0a.25.25,0,0,0,.25.25"/><path class="cls-1" d="M23.076,14.1a.25.25,0,1,0-.25-.25.25.25,0,0,0,.25.25"/><path class="cls-1" d="M23.076,10.4a.25.25,0,1,0-.25-.25.25.25,0,0,0,.25.25"/><path class="cls-1" d="M11.986,6.706a.25.25,0,1,0-.25-.25.25.25,0,0,0,.25.25"/><path class="cls-1" d="M8.289,17.8a.25.25,0,1,0-.25-.25.25.25,0,0,0,.25.25"/><path class="cls-1" d="M8.289,14.1a.25.25,0,1,0-.25-.25.25.25,0,0,0,.25.25"/><path class="cls-1" d="M8.289,10.4a.25.25,0,1,0-.25-.25.25.25,0,0,0,.25.25"/><path class="cls-1" d="M4.592,10.4a.25.25,0,1,0-.25-.25.25.25,0,0,0,.25.25"/><path class="cls-1" d="M.924,12.251A.25.25,0,1,0,.674,12a.25.25,0,0,0,.25.25"/><path class="cls-1" d="M4.592,14.1a.25.25,0,1,0-.25-.25.25.25,0,0,0,.25.25"/><path class="cls-1" d="M8.289,6.706a.25.25,0,1,0-.25-.25.25.25,0,0,0,.25.25"/><path class="cls-1" d="M11.986,3.008a.25.25,0,1,0-.25-.249.249.249,0,0,0,.25.249"/></svg>