<svg id="Light" xmlns="http://www.w3.org/2000/svg" viewBox="0 0 24 24"><defs><style>.cls-1{fill:none;stroke:#000;stroke-linecap:round;stroke-linejoin:round;}</style></defs><title>arrow-thick-left-4</title><path class="cls-1" d="M.5,1.5v21a1,1,0,0,0,1,1h21a1,1,0,0,0,1-1V1.5a1,1,0,0,0-1-1H1.5A1,1,0,0,0,.5,1.5ZM19,13.5H10.5l3.146,3.146a.5.5,0,0,1-.354.854H10.221a.5.5,0,0,1-.37-.164l-4.545-5a.5.5,0,0,1,0-.672l4.545-5a.5.5,0,0,1,.37-.164h3.073a.5.5,0,0,1,.354.853L10.5,10.5H19a.5.5,0,0,1,.5.5v2A.5.5,0,0,1,19,13.5Z"/></svg>