<svg id="Light" xmlns="http://www.w3.org/2000/svg" viewBox="0 0 24 24"><defs><style>.cls-1{fill:none;stroke:#000;stroke-linecap:round;stroke-linejoin:round;}</style></defs><title>arrow-double-right</title><path class="cls-1" d="M12.155,18.5h4.762a.5.5,0,0,0,.365-.158l5.662-6.031a.5.5,0,0,0,0-.687l-5.66-5.968a.5.5,0,0,0-.363-.156H12.163a.5.5,0,0,0-.362.844l5.17,5.452a.249.249,0,0,1,0,.343l-5.181,5.519A.5.5,0,0,0,12.155,18.5Z"/><path class="cls-1" d="M1.422,18.5H6.183a.5.5,0,0,0,.365-.158l5.662-6.031a.5.5,0,0,0,0-.687L6.547,5.656A.5.5,0,0,0,6.185,5.5H1.43a.5.5,0,0,0-.363.844L6.237,11.8a.25.25,0,0,1,0,.343L1.057,17.658A.5.5,0,0,0,1.422,18.5Z"/></svg>