<svg xmlns="http://www.w3.org/2000/svg" viewBox="0 0 24 24"><defs><style>.a{fill:none;stroke:#000;stroke-linecap:round;stroke-linejoin:round;}</style></defs><title>artboard-shapes</title><line class="a" x1="5" y1="1" x2="5" y2="3"/><line class="a" x1="3" y1="5" x2="1" y2="5"/><line class="a" x1="3" y1="19" x2="1" y2="19"/><line class="a" x1="19" y1="1" x2="19" y2="3"/><line class="a" x1="5" y1="21" x2="5" y2="23"/><line class="a" x1="19" y1="21" x2="19" y2="23"/><line class="a" x1="23" y1="5" x2="21" y2="5"/><line class="a" x1="23" y1="19" x2="21" y2="19"/><rect class="a" x="5" y="5" width="14" height="14"/><path class="a" d="M11,14H8.5a.5.5,0,0,1-.5-.5v-5A.5.5,0,0,1,8.5,8h4a.5.5,0,0,1,.5.5V10h0"/><rect class="a" x="11" y="10" width="5" height="6" rx="0.5" ry="0.5"/></svg>