<svg id="Light" xmlns="http://www.w3.org/2000/svg" viewBox="0 0 24 24"><defs><style>.cls-1{fill:none;stroke:#000;stroke-linecap:round;stroke-linejoin:round;}</style></defs><title>asian-interior-furniture</title><path class="cls-1" d="M8.429,1.1a.5.5,0,0,0-.49-.6H3.061a.5.5,0,0,0-.49.6A2.781,2.781,0,0,0,5.5,3.5,2.781,2.781,0,0,0,8.429,1.1Z"/><path class="cls-1" d="M1.5,3.5h21a1,1,0,0,1,1,1v13a0,0,0,0,1,0,0H.5a0,0,0,0,1,0,0V4.5A1,1,0,0,1,1.5,3.5Z"/><line class="cls-1" x1="12" y1="9.5" x2="12" y2="17.5"/><line class="cls-1" x1="0.5" y1="17.5" x2="0.5" y2="23.5"/><line class="cls-1" x1="23.5" y1="17.5" x2="23.5" y2="23.5"/><line class="cls-1" x1="0.5" y1="9.5" x2="12" y2="9.5"/><line class="cls-1" x1="8" y1="3.5" x2="8" y2="9.5"/><line class="cls-1" x1="12" y1="9.5" x2="23.5" y2="9.5"/><line class="cls-1" x1="16" y1="3.5" x2="16" y2="9.5"/><line class="cls-1" x1="0.5" y1="13.5" x2="23.5" y2="13.5"/><line class="cls-1" x1="13.5" y1="20.5" x2="19.5" y2="20.5"/><line class="cls-1" x1="15" y1="20.5" x2="14" y2="23.5"/><line class="cls-1" x1="18" y1="20.5" x2="19" y2="23.5"/><line class="cls-1" x1="0.5" y1="6.5" x2="1.5" y2="6.5"/><line class="cls-1" x1="7" y1="6.5" x2="8" y2="6.5"/><line class="cls-1" x1="8" y1="6.5" x2="9" y2="6.5"/><line class="cls-1" x1="15" y1="6.5" x2="16" y2="6.5"/><line class="cls-1" x1="16" y1="6.5" x2="17" y2="6.5"/><line class="cls-1" x1="22.5" y1="6.5" x2="23.5" y2="6.5"/></svg>