<svg id="Light" xmlns="http://www.w3.org/2000/svg" viewBox="0 0 24 24"><defs><style>.cls-1{fill:none;stroke:#000;stroke-linecap:round;stroke-linejoin:round;}</style></defs><title>asian-interior-door</title><rect class="cls-1" x="0.5" y="3.5" width="9" height="20" rx="1" ry="1"/><line class="cls-1" x1="0.5" y1="18.5" x2="9.5" y2="18.5"/><line class="cls-1" x1="3.5" y1="3.5" x2="3.5" y2="18.5"/><line class="cls-1" x1="6.5" y1="3.5" x2="6.5" y2="18.5"/><line class="cls-1" x1="0.5" y1="8.5" x2="9.5" y2="8.5"/><line class="cls-1" x1="0.5" y1="13.5" x2="9.5" y2="13.5"/><line class="cls-1" x1="0.5" y1="20.5" x2="9.5" y2="20.5"/><rect class="cls-1" x="14.5" y="3.5" width="9" height="20" rx="1" ry="1"/><line class="cls-1" x1="14.5" y1="18.5" x2="23.5" y2="18.5"/><line class="cls-1" x1="17.5" y1="3.5" x2="17.5" y2="18.5"/><line class="cls-1" x1="20.5" y1="3.5" x2="20.5" y2="18.5"/><line class="cls-1" x1="14.5" y1="8.5" x2="23.5" y2="8.5"/><line class="cls-1" x1="14.5" y1="13.5" x2="23.5" y2="13.5"/><line class="cls-1" x1="14.5" y1="20.5" x2="23.5" y2="20.5"/><line class="cls-1" x1="0.5" y1="0.5" x2="23.5" y2="0.5"/></svg>