<svg id="Light" xmlns="http://www.w3.org/2000/svg" viewBox="0 0 24 24"><defs><style>.cls-1{fill:none;stroke:#000;stroke-linecap:round;stroke-linejoin:round;}</style></defs><title>asian-interior-bonsai-tree-1</title><path class="cls-1" d="M15.034,3.079a3.719,3.719,0,1,1,3,5.921H4.219a3.719,3.719,0,1,1,3-5.921"/><path class="cls-1" d="M7.216,3.079a4.252,4.252,0,0,1,7.818,0"/><path class="cls-1" d="M20.925,12.454A1.5,1.5,0,1,1,22,15H19a2,2,0,1,1,1.925-2.546"/><path class="cls-1" d="M6.5,9l2.775,2.294a1,1,0,0,1,.1,1.448L6.626,15.731a2,2,0,0,0-.341,2.2L7.017,19.5"/><path class="cls-1" d="M10,9l2.836,1.891a2,2,0,0,1,.555,2.773L12.067,15.65a1,1,0,0,0,.295,1.4L16.247,19.5"/><path class="cls-1" d="M20.5,15l-.329.658a3,3,0,0,1-2.147,1.61l-4.127.749"/><path class="cls-1" d="M1.04,19.5a.509.509,0,0,0-.5.588A4,4,0,0,0,4.5,23.5H18a4,4,0,0,0,3.957-3.412.509.509,0,0,0-.5-.588Z"/></svg>