<svg id="Light" xmlns="http://www.w3.org/2000/svg" viewBox="0 0 24 24"><defs><style>.cls-1{fill:none;stroke:#000;stroke-linecap:round;stroke-linejoin:round;}</style></defs><title>asian-interior-entrance</title><path class="cls-1" d="M.5,3.5V23a.5.5,0,0,0,.5.5H4.871a.5.5,0,0,0,.356-.851,9.5,9.5,0,1,1,13.546,0,.5.5,0,0,0,.356.851H23a.5.5,0,0,0,.5-.5V3.5Z"/><path class="cls-1" d="M1,.5H23a.5.5,0,0,1,.5.5V3.5a0,0,0,0,1,0,0H.5a0,0,0,0,1,0,0V1A.5.5,0,0,1,1,.5Z"/><polyline class="cls-1" points="13.5 6.618 13.5 23.5 7.5 23.5"/><line class="cls-1" x1="13.5" y1="19.5" x2="5.5" y2="19.5"/><line class="cls-1" x1="10.5" y1="19.5" x2="10.5" y2="6.618"/><line class="cls-1" x1="7.5" y1="19.5" x2="7.5" y2="7.631"/><line class="cls-1" x1="13.5" y1="13.5" x2="5" y2="13.5"/></svg>