<svg id="Light" xmlns="http://www.w3.org/2000/svg" viewBox="0 0 24 24"><defs><style>.cls-1{fill:none;stroke:#000;stroke-linecap:round;stroke-linejoin:round;}</style></defs><title>asian-interior-lamp</title><line class="cls-1" x1="12" y1="2.5" x2="12" y2="0.5"/><line class="cls-1" x1="21.5" y1="10.5" x2="23.5" y2="10.5"/><line class="cls-1" x1="21" y1="6" x2="22.5" y2="4.5"/><line class="cls-1" x1="21" y1="15" x2="22.5" y2="16.5"/><line class="cls-1" x1="2.5" y1="10.5" x2="0.5" y2="10.5"/><line class="cls-1" x1="3" y1="6" x2="1.5" y2="4.5"/><line class="cls-1" x1="3" y1="15" x2="1.5" y2="16.5"/><line class="cls-1" x1="12" y1="4.5" x2="12" y2="19.5"/><line class="cls-1" x1="4.927" y1="9.5" x2="19.073" y2="9.5"/><line class="cls-1" x1="4.927" y1="14.5" x2="19.073" y2="14.5"/><circle class="cls-1" cx="12" cy="12" r="7.5"/><path class="cls-1" d="M7.5,6V3.5a1,1,0,0,1,1-1h7a1,1,0,0,1,1,1V6"/><path class="cls-1" d="M7.5,23.5v-3a1,1,0,0,1,1-1h7a1,1,0,0,1,1,1v3"/><line class="cls-1" x1="12" y1="22" x2="12" y2="23.5"/><line class="cls-1" x1="7.5" y1="22" x2="16.5" y2="22"/></svg>