<svg id="Light" xmlns="http://www.w3.org/2000/svg" viewBox="0 0 24 24"><defs><style>.cls-1{fill:none;stroke:#000;stroke-linecap:round;stroke-linejoin:round;}</style></defs><title>asian-interior-eating-table</title><path class="cls-1" d="M8.5,23.25H9a1.5,1.5,0,0,0,0-3H8.5"/><path class="cls-1" d="M4.5,20.25H4a1.5,1.5,0,0,0,0,3h.5"/><path class="cls-1" d="M2.5,21.75v-6.5a2,2,0,0,0-2-2"/><path class="cls-1" d="M15.5,23.25H15a1.5,1.5,0,0,1,0-3h.5"/><path class="cls-1" d="M19.5,20.25H20a1.5,1.5,0,0,1,0,3h-.5"/><path class="cls-1" d="M21.5,21.75v-6.5a2,2,0,0,1,2-2"/><rect class="cls-1" x="4.5" y="14.25" width="15" height="3" rx="1" ry="1"/><path class="cls-1" d="M13.5,14.25h-3l.376-3.008a1.133,1.133,0,0,1,2.248,0Z"/><path class="cls-1" d="M12,10.25c0-2.5,1-5,4.5-5a2.812,2.812,0,0,0,3-2.5"/><circle class="cls-1" cx="16.75" cy="2.5" r="0.75"/><circle class="cls-1" cx="8.75" cy="2.5" r="0.75"/><circle class="cls-1" cx="6.75" cy="4.5" r="0.75"/><circle class="cls-1" cx="19.75" cy="6.5" r="0.75"/><circle class="cls-1" cx="21.75" cy="4" r="0.75"/><circle class="cls-1" cx="21.25" cy="1.5" r="0.75"/><path class="cls-1" d="M9,4.75c0,1,0,2,1.5,2,.773,0,1.762.114,1.873,1.138"/><line class="cls-1" x1="6.5" y1="17.25" x2="6.5" y2="23.25"/><line class="cls-1" x1="17.5" y1="17.25" x2="17.5" y2="23.25"/></svg>