<svg id="Light" xmlns="http://www.w3.org/2000/svg" viewBox="0 0 24 24"><defs><style>.cls-1{fill:none;stroke:#000;stroke-linecap:round;stroke-linejoin:round;}</style></defs><title>asian-food-noodles</title><path class="cls-1" d="M23.5,5.015H1.5a1,1,0,0,1-1-1v-1a1,1,0,0,1,1-1h22"/><path class="cls-1" d="M3.92,8.015H1.5a1,1,0,0,1-1-1v-1a1,1,0,0,1,1-1"/><path class="cls-1" d="M6,21.985a2,2,0,0,0,0-2.828,2,2,0,0,1,0-2.829A2,2,0,0,0,6,13.5a2,2,0,0,1,0-2.828A2,2,0,0,0,6,7.843,2,2,0,0,1,6,5.015"/><path class="cls-1" d="M9,21.985a2,2,0,0,0,0-2.828,2,2,0,0,1,0-2.829A2,2,0,0,0,9,13.5a2,2,0,0,1,0-2.828A2,2,0,0,0,9,7.843,2,2,0,0,1,9,5.015"/><path class="cls-1" d="M12,21.985a2,2,0,0,0,0-2.828,2,2,0,0,1,0-2.829A2,2,0,0,0,12,13.5a2,2,0,0,1,0-2.828,2,2,0,0,0,0-2.829,2,2,0,0,1,0-2.828"/><path class="cls-1" d="M15,21.985a2,2,0,0,0,0-2.828,2,2,0,0,1,0-2.829A2,2,0,0,0,15,13.5a2,2,0,0,1,0-2.828,2,2,0,0,0,0-2.829,2,2,0,0,1,0-2.828"/><line class="cls-1" x1="23.5" y1="8.015" x2="17.92" y2="8.015"/></svg>