<svg xmlns="http://www.w3.org/2000/svg" viewBox="0 0 24 24"><defs><style>.a{fill:none;stroke:#000;stroke-linecap:round;stroke-linejoin:round;}</style></defs><title>astronomy-planet-ring</title><path class="a" d="M7.129,18.206A7.5,7.5,0,1,1,17.5,7.4"/><path class="a" d="M18.865,9.486a7.5,7.5,0,0,1-9.989,9.835"/><path class="a" d="M14.22,5.333c3.612-2.792,6.712-4.2,7.673-3.235,1.367,1.366-1.957,6.907-7.424,12.374S3.461,23.263,2.094,21.9c-.9-.9.334-3.74,2.776-7.048"/><path class="a" d="M11.321,5A2,2,0,0,1,9.994,8.5a1.937,1.937,0,0,1-2-2.343"/><circle class="a" cx="8.994" cy="13.497" r="2"/><path class="a" d="M13.994,9a.5.5,0,0,1,.5.5"/><path class="a" d="M13.494,9.5a.5.5,0,0,1,.5-.5"/><path class="a" d="M13.994,10a.5.5,0,0,1-.5-.5"/><path class="a" d="M14.494,9.5a.5.5,0,0,1-.5.5"/></svg>