<svg xmlns="http://www.w3.org/2000/svg" viewBox="0 0 24 24"><defs><style>.a{fill:none;stroke:#000;stroke-linecap:round;stroke-linejoin:round;}</style></defs><title>astrology-cane</title><path class="a" d="M18.75,14.858a2.231,2.231,0,0,0,2.5,2.5c-1.615-.006-2.418.861-2.5,2.5a2.21,2.21,0,0,0-2.5-2.5,2.231,2.231,0,0,0,2.5-2.5"/><path class="a" d="M5.75,1.858c-.01,2.827,1.368,4.433,4.5,4.5-2.907-.011-4.352,1.549-4.5,4.5-.024-2.784-1.272-4.5-4.5-4.5,2.888-.04,4.49-1.434,4.5-4.5"/><path class="a" d="M3.655,22.59a.5.5,0,0,1-.55-.826c2.2-1.91,4.86-4.613,5.81-7.192a8.7,8.7,0,0,1,2-3.119l.209-.209A5.2,5.2,0,0,1,15.51,9.78a4.253,4.253,0,0,0,3.593-1.2,2.824,2.824,0,0,0,0-3.991,1.411,1.411,0,0,0-2.36,1.364,1.411,1.411,0,1,1-2.726.73A4.233,4.233,0,0,1,21.1,2.6a5.651,5.651,0,0,1,0,7.983,7.094,7.094,0,0,1-5.988,1.995,2.36,2.36,0,0,0-1.994.666l-.21.209a5.847,5.847,0,0,0-1.343,2.1C11.037,16.98,11.121,18.888,3.655,22.59Z"/></svg>