<svg xmlns="http://www.w3.org/2000/svg" viewBox="0 0 24 24"><defs><style>.a{fill:none;stroke:#000;stroke-linecap:round;stroke-linejoin:round;}</style></defs><title>astronomy-planet</title><circle class="a" cx="9.484" cy="14.016" r="6"/><line class="a" x1="9.484" y1="8.016" x2="9.484" y2="5.048"/><line class="a" x1="11.732" y1="8.452" x2="12.844" y2="5.701"/><line class="a" x1="15.013" y1="11.684" x2="17.748" y2="10.531"/><line class="a" x1="13.727" y1="9.773" x2="15.826" y2="7.675"/><line class="a" x1="7.236" y1="8.452" x2="6.124" y2="5.701"/><line class="a" x1="3.956" y1="11.684" x2="1.221" y2="10.531"/><line class="a" x1="11.732" y1="19.58" x2="12.844" y2="22.332"/><line class="a" x1="15.013" y1="16.348" x2="17.748" y2="17.502"/><line class="a" x1="7.236" y1="19.58" x2="6.124" y2="22.332"/><line class="a" x1="3.956" y1="16.348" x2="1.221" y2="17.502"/><line class="a" x1="5.242" y1="9.773" x2="3.143" y2="7.675"/><line class="a" x1="15.484" y1="14.016" x2="18.453" y2="14.016"/><line class="a" x1="13.727" y1="18.26" x2="15.826" y2="20.358"/><line class="a" x1="9.484" y1="20.016" x2="9.484" y2="22.984"/><line class="a" x1="5.242" y1="18.26" x2="3.143" y2="20.358"/><line class="a" x1="3.484" y1="14.016" x2="0.516" y2="14.016"/><circle class="a" cx="7.984" cy="15.516" r="1.5"/><path class="a" d="M10.984,11.266a.25.25,0,0,1,.25.25"/><path class="a" d="M10.734,11.516a.25.25,0,0,1,.25-.25"/><path class="a" d="M10.984,11.766a.25.25,0,0,1-.25-.25"/><path class="a" d="M11.234,11.516a.25.25,0,0,1-.25.25"/><path class="a" d="M12.484,14.766a.25.25,0,0,1,.25.25"/><path class="a" d="M12.234,15.016a.25.25,0,0,1,.25-.25"/><path class="a" d="M12.484,15.266a.25.25,0,0,1-.25-.25"/><path class="a" d="M12.734,15.016a.25.25,0,0,1-.25.25"/><circle class="a" cx="20.484" cy="4.016" r="2"/><line class="a" x1="20.484" y1="2.016" x2="20.484" y2="1.016"/><line class="a" x1="21.898" y1="2.602" x2="22.605" y2="1.895"/><line class="a" x1="22.484" y1="4.016" x2="23.484" y2="4.016"/><line class="a" x1="21.898" y1="5.431" x2="22.605" y2="6.138"/><line class="a" x1="20.484" y1="6.016" x2="20.484" y2="7.016"/><line class="a" x1="19.07" y1="5.431" x2="18.363" y2="6.138"/><line class="a" x1="18.484" y1="4.016" x2="17.484" y2="4.016"/><line class="a" x1="19.07" y1="2.602" x2="18.363" y2="1.895"/></svg>