<svg xmlns="http://www.w3.org/2000/svg" viewBox="0 0 24 24"><defs><style>.a{fill:none;stroke:#000;stroke-linecap:round;stroke-linejoin:round;}</style></defs><title>astrology-tent</title><path class="a" d="M17.239,19c.144.235.036.427-.239.427H7c-.275,0-.383-.192-.239-.427l4.978-8.147a.282.282,0,0,1,.522,0Z"/><path class="a" d="M17.239,19c.144.235.036.427-.239.427H7c-.275,0-.383-.192-.239-.427l4.978-8.147a.282.282,0,0,1,.522,0Z"/><path class="a" d="M17.239,19c.144.235.036.427-.239.427H7c-.275,0-.383-.192-.239-.427l4.978-8.147a.282.282,0,0,1,.522,0Z"/><path class="a" d="M17.239,19c.144.235.036.427-.239.427H7c-.275,0-.383-.192-.239-.427l4.978-8.147a.282.282,0,0,1,.522,0Z"/><path class="a" d="M6.5,13.424h11L12.261,22a.281.281,0,0,1-.522,0Z"/><path class="a" d="M6.761,13.85c-.144-.234-.036-.426.239-.426H17c.275,0,.383.192.239.426L12.261,22a.281.281,0,0,1-.522,0Z"/><polyline class="a" points="0.5 23.424 0.5 7.424 23.5 7.424 23.5 23.424"/><path class="a" d="M.5,16.923a6.5,6.5,0,0,1,4,6c0,.167-.006.333-.019.5l-3.981,0"/><path class="a" d="M6.5,7.424a9.767,9.767,0,0,1-6,9"/><path class="a" d="M23.5,16.923a6.5,6.5,0,0,0-4,6c0,.167.006.333.019.5l3.981,0"/><path class="a" d="M17.5,7.424a9.767,9.767,0,0,0,6,9"/><path class="a" d="M.5,7.424,11.573.684a.9.9,0,0,1,.854,0L23.5,7.424"/></svg>