<svg xmlns="http://www.w3.org/2000/svg" viewBox="0 0 24 24"><defs><style>.a{fill:none;stroke:#000;stroke-linecap:round;stroke-linejoin:round;}</style></defs><title>astrology-stars</title><path class="a" d="M7,21.25c7.181,0,8.9-4,13.5-4a3,3,0,0,1,0,6H3.5a3,3,0,0,1,0-6c4.6,0,6.319,4,13.5,4"/><path class="a" d="M20.5.75A2.231,2.231,0,0,0,23,3.25c-1.615-.006-2.418.86-2.5,2.5A2.211,2.211,0,0,0,18,3.25,2.232,2.232,0,0,0,20.5.75"/><path class="a" d="M5.5.75C5.489,3.577,6.868,5.183,10,5.25,7.093,5.239,5.648,6.8,5.5,9.75c-.025-2.784-1.273-4.5-4.5-4.5C3.888,5.209,5.489,3.816,5.5.75"/><path class="a" d="M12,5.25a7.5,7.5,0,0,1,5.484,12.616"/><path class="a" d="M6.517,17.867A7.474,7.474,0,0,1,4.5,12.75a7.7,7.7,0,0,1,.066-1"/></svg>