<svg id="Light" xmlns="http://www.w3.org/2000/svg" viewBox="0 0 24 24"><defs><style>.cls-1{fill:none;stroke:#000;stroke-linecap:round;stroke-linejoin:round;}</style></defs><title>athletics-long-jumping</title><circle class="cls-1" cx="11.5" cy="3" r="2.5"/><path class="cls-1" d="M15.5,19a1.508,1.508,0,0,1-.728-.188l-4.047-2.248a.492.492,0,0,0-.243-.063H5.5a1.5,1.5,0,0,1-1.423-1.975l2.5-7.5a1.5,1.5,0,0,1,2.239-.784L12.1,8.372a1.5,1.5,0,0,0,.608.129H16a1.5,1.5,0,0,1,0,3H12.708a4.523,4.523,0,0,1-2.012-.475,1.4,1.4,0,0,1-.146-.083L8.81,9.814,7.581,13.5h2.9a3.5,3.5,0,0,1,1.7.441l4.047,2.247A1.5,1.5,0,0,1,15.5,19Z"/><path class="cls-1" d="M.5,19.5H5.243a.5.5,0,0,1,.407.209L8,23.5"/><line class="cls-1" x1="23.25" y1="23" x2="23.25" y2="23"/><path class="cls-1" d="M23.5,23.25a.25.25,0,0,0-.25-.25"/><path class="cls-1" d="M23.25,23.5a.25.25,0,0,0,.25-.25"/><path class="cls-1" d="M23,23.25a.25.25,0,0,0,.25.25"/><path class="cls-1" d="M23.25,23a.25.25,0,0,0-.25.25"/><line class="cls-1" x1="15.25" y1="23" x2="15.25" y2="23"/><path class="cls-1" d="M15.5,23.25a.25.25,0,0,0-.25-.25"/><path class="cls-1" d="M15.25,23.5a.25.25,0,0,0,.25-.25"/><path class="cls-1" d="M15,23.25a.25.25,0,0,0,.25.25"/><path class="cls-1" d="M15.25,23a.25.25,0,0,0-.25.25"/><line class="cls-1" x1="19.25" y1="23" x2="19.25" y2="23"/><path class="cls-1" d="M19.5,23.25a.25.25,0,0,0-.25-.25"/><path class="cls-1" d="M19.25,23.5a.25.25,0,0,0,.25-.25"/><path class="cls-1" d="M19,23.25a.25.25,0,0,0,.25.25"/><path class="cls-1" d="M19.25,23a.25.25,0,0,0-.25.25"/><line class="cls-1" x1="11.252" y1="23" x2="11.252" y2="23"/><path class="cls-1" d="M11.5,23.25a.25.25,0,0,0-.25-.25"/><path class="cls-1" d="M11.252,23.5a.25.25,0,0,0,.25-.25"/><path class="cls-1" d="M11,23.25a.25.25,0,0,0,.25.25"/><path class="cls-1" d="M11.252,23a.25.25,0,0,0-.25.25"/><line class="cls-1" x1="9.25" y1="21" x2="9.25" y2="21"/><path class="cls-1" d="M9.5,21.25A.25.25,0,0,0,9.25,21"/><path class="cls-1" d="M9.25,21.5a.25.25,0,0,0,.25-.25"/><path class="cls-1" d="M9,21.25a.25.25,0,0,0,.25.25"/><path class="cls-1" d="M9.25,21a.25.25,0,0,0-.25.25"/><line class="cls-1" x1="17.25" y1="21" x2="17.25" y2="21"/><path class="cls-1" d="M17.5,21.25a.25.25,0,0,0-.25-.25"/><path class="cls-1" d="M17.25,21.5a.25.25,0,0,0,.25-.25"/><path class="cls-1" d="M17,21.25a.25.25,0,0,0,.25.25"/><path class="cls-1" d="M17.25,21a.25.25,0,0,0-.25.25"/><line class="cls-1" x1="21.25" y1="21" x2="21.25" y2="21"/><path class="cls-1" d="M21.5,21.25a.25.25,0,0,0-.25-.25"/><path class="cls-1" d="M21.25,21.5a.25.25,0,0,0,.25-.25"/><path class="cls-1" d="M21,21.25a.25.25,0,0,0,.25.25"/><path class="cls-1" d="M21.25,21a.25.25,0,0,0-.25.25"/><line class="cls-1" x1="13.25" y1="21" x2="13.25" y2="21"/><path class="cls-1" d="M13.5,21.25a.25.25,0,0,0-.25-.25"/><path class="cls-1" d="M13.25,21.5a.25.25,0,0,0,.25-.25"/><path class="cls-1" d="M13,21.25a.25.25,0,0,0,.25.25"/><path class="cls-1" d="M13.25,21a.25.25,0,0,0-.25.25"/><line class="cls-1" x1="4.5" y1="7.5" x2="2.5" y2="7.5"/><line class="cls-1" x1="3.5" y1="9.5" x2="1.5" y2="9.5"/><line class="cls-1" x1="2.5" y1="11.5" x2="0.5" y2="11.5"/></svg>