<svg id="Light" xmlns="http://www.w3.org/2000/svg" viewBox="0 0 24 24"><defs><style>.cls-1{fill:none;stroke:#000;stroke-linecap:round;stroke-linejoin:round;}</style></defs><title>athletics-running</title><path class="cls-1" d="M23.5,23.5H12A11.5,11.5,0,0,1,.5,12h0A11.5,11.5,0,0,1,12,.5H23.5"/><path class="cls-1" d="M23.5,20.5H12.286a8.5,8.5,0,0,1-8.5-8.5h0a8.5,8.5,0,0,1,8.5-8.5H23.214"/><path class="cls-1" d="M23.5,17.5H13A5.5,5.5,0,0,1,7.5,12h0A5.5,5.5,0,0,1,13,6.5H23.5"/><line class="cls-1" x1="18.5" y1="0.5" x2="18.5" y2="3.5"/><line class="cls-1" x1="14.5" y1="3.5" x2="14.5" y2="6.5"/><path class="cls-1" d="M16,15.4l4.3-2.049a.5.5,0,0,0-.009-.906L16,10.5"/><line class="cls-1" x1="16" y1="23.5" x2="16" y2="10.5"/></svg>