<svg id="Light" xmlns="http://www.w3.org/2000/svg" viewBox="0 0 24 24"><defs><style>.cls-1{fill:none;stroke:#000;stroke-linecap:round;stroke-linejoin:round;}</style></defs><title>athletics-jumping-person</title><circle class="cls-1" cx="14" cy="3" r="2.5"/><path class="cls-1" d="M22.561,6.439a1.5,1.5,0,0,0-2.121,0L18.731,8.148a1.5,1.5,0,0,1-1.516.368L9.548,6.077a4.477,4.477,0,0,0-4.294.872L3.024,8.861a1.5,1.5,0,1,0,1.953,2.277l2.23-1.912a1.48,1.48,0,0,1,1.431-.29l1.986.632L8.021,15.5H2.5a1.5,1.5,0,0,0,0,3H9a1.5,1.5,0,0,0,1.374-.9l.724-1.649,3.5-.318a1.493,1.493,0,0,1,1.275.518l1.992,2.324a1.5,1.5,0,0,0,2.277-1.953L18.146,14.2a4.492,4.492,0,0,0-3.824-1.554l-1.847.168L13.5,10.484l2.807.893a4.491,4.491,0,0,0,4.546-1.106L22.56,8.562A1.5,1.5,0,0,0,22.561,6.439Z"/><line class="cls-1" x1="13" y1="18" x2="13" y2="23.5"/><line class="cls-1" x1="11" y1="23.5" x2="15" y2="23.5"/></svg>