<svg id="Light" xmlns="http://www.w3.org/2000/svg" viewBox="0 0 24 24"><defs><style>.cls-1{fill:none;stroke:#000;stroke-linecap:round;stroke-linejoin:round;}</style></defs><title>athletics-javelin-throwing</title><circle class="cls-1" cx="12.937" cy="6.501" r="2.5"/><path class="cls-1" d="M20.812,12.563a1.5,1.5,0,1,0-.5-2.959L11.1,11.135a1.5,1.5,0,0,1-1.638-.942L8.3,7.049A1.5,1.5,0,1,0,5.5,8.124l1.164,3.144A4.522,4.522,0,0,0,11.587,14.1l.644-.109.6,2.693L9.708,21.139a1.5,1.5,0,1,0,2.456,1.72l3.111-4.444,1.417-.157a1.489,1.489,0,0,1,1.588,1.016l.733,2.2a1.5,1.5,0,0,0,2.846-.949l-.733-2.2a4.551,4.551,0,0,0-4.766-3.051l-.752.083-.416-1.871Z"/><line class="cls-1" x1="1.937" y1="6.001" x2="17.937" y2="0.501"/></svg>