<svg xmlns="http://www.w3.org/2000/svg" viewBox="0 0 24 24"><defs><style>.a{fill:none;stroke:#000;stroke-linecap:round;stroke-linejoin:round;}</style></defs><title>audio-book-blind-exam-a</title><path class="a" d="M11.53,19.114a.489.489,0,0,1,0-.584A6.739,6.739,0,0,1,16.8,15.642a6.741,6.741,0,0,1,5.271,2.888.489.489,0,0,1,0,.584A6.741,6.741,0,0,1,16.8,22,6.739,6.739,0,0,1,11.53,19.114Z"/><line class="a" x1="19.332" y1="16.218" x2="14.269" y2="21.426"/><path class="a" d="M8.832,22h-6a1,1,0,0,1-1-1V3a1,1,0,0,1,1-1h9.585a1,1,0,0,1,.708.293l3.414,3.415a1,1,0,0,1,.293.707V13"/><path class="a" d="M12.832,2.092V5a1,1,0,0,0,1,1h2.909"/><path class="a" d="M6.832,15V8.451a.965.965,0,0,1,.288-.708C8.83,6.166,10.832,7.35,10.832,9v6"/><line class="a" x1="6.832" y1="11.001" x2="10.832" y2="11.001"/></svg>