<svg xmlns="http://www.w3.org/2000/svg" viewBox="0 0 24 24"><defs><style>.a{fill:none;stroke:#000;stroke-linecap:round;stroke-linejoin:round;}</style></defs><title>audio-book-volume-medium</title><path class="a" d="M12,21.742s2.306-3.512,10.017-3.791a1.006,1.006,0,0,0,.983-1V3.261a1,1,0,0,0-1.019-1C14.3,2.549,12,6.051,12,6.051s-2.3-3.5-9.981-3.79A1,1,0,0,0,1,3.261V16.952a1.006,1.006,0,0,0,.983,1C9.694,18.23,12,21.742,12,21.742Z"/><path class="a" d="M7.5,9.242h-1a1,1,0,0,0-1,1v2a1,1,0,0,0,1,1h1l1.688,1.35A.5.5,0,0,0,10,14.2V8.283a.5.5,0,0,0-.812-.391Z"/><path class="a" d="M12.268,9.475a2.5,2.5,0,0,1,0,3.535"/><path class="a" d="M14.036,7.707a5,5,0,0,1,0,7.071"/><line class="a" x1="12" y1="21.742" x2="12" y2="18.242"/></svg>