<svg xmlns="http://www.w3.org/2000/svg" viewBox="0 0 24 24"><defs><style>.a{fill:none;stroke:#000;stroke-linecap:round;stroke-linejoin:round;}</style></defs><title>audio-book-record-microphone-f</title><path class="a" d="M13,20.5H4a1,1,0,0,1-1-1V1.5a1,1,0,0,1,1-1h9.586a1,1,0,0,1,.707.293l3.414,3.415A1,1,0,0,1,18,4.916V11"/><path class="a" d="M14,.594V3.5a1,1,0,0,0,1,1h2.909"/><path class="a" d="M8,14.5V8A1.5,1.5,0,0,1,9.5,6.5H12"/><line class="a" x1="8" y1="10.501" x2="10.5" y2="10.501"/><path class="a" d="M16,14.5a1.5,1.5,0,1,1,3,0v3a1.5,1.5,0,1,1-3,0Z"/><path class="a" d="M21,17.5a3.5,3.5,0,1,1-7,0"/><line class="a" x1="17.5" y1="23.501" x2="17.5" y2="21.001"/></svg>