<svg xmlns="http://www.w3.org/2000/svg" viewBox="0 0 24 24"><defs><style>.a{fill:none;stroke:#000;stroke-linecap:round;stroke-linejoin:round;}</style></defs><title>audio-book-music</title><path class="a" d="M4.5,7.153a25.416,25.416,0,0,0-2.985-.217.508.508,0,0,0-.514.5v11.5a.5.5,0,0,0,.5.495c8.1.134,10.5,3.5,10.5,3.5"/><path class="a" d="M21.5,6.969c.32-.016.65-.028.99-.033a.5.5,0,0,1,.51.5v11.5a.5.5,0,0,1-.5.495c-8.1.134-10.5,3.5-10.5,3.5v-11"/><circle class="a" cx="5.5" cy="12.431" r="1.5"/><circle class="a" cx="12.5" cy="8.431" r="1.5"/><circle class="a" cx="18.5" cy="6.931" r="1.5"/><path class="a" d="M7,12.431V6.638a.5.5,0,0,1,.854-.353L9,7.431"/><path class="a" d="M14,8.431V2.822a.5.5,0,0,1,.379-.485l5-1.25A.5.5,0,0,1,20,1.572V6.931"/></svg>