<svg xmlns="http://www.w3.org/2000/svg" viewBox="0 0 24 24"><defs><style>.a{fill:none;stroke:#000;stroke-linecap:round;stroke-linejoin:round;}</style></defs><title>auto-pilot-car-pin</title><line class="a" x1="10.003" y1="1.499" x2="11.001" y2="1.499"/><line class="a" x1="12.999" y1="1.499" x2="13.997" y2="1.499"/><line class="a" x1="15.994" y1="1.499" x2="16.993" y2="1.499"/><path class="a" d="M18.99,1.5h1a1,1,0,0,1,1,1v1"/><line class="a" x1="20.987" y1="5.493" x2="20.987" y2="6.492"/><line class="a" x1="20.987" y1="8.489" x2="20.987" y2="9.488"/><path class="a" d="M8.505,4.494c0,2.5-3.994,5.992-3.994,5.992S.517,6.991.517,4.494a3.994,3.994,0,0,1,7.988,0Z"/><path class="a" d="M4.511,4.245a.249.249,0,0,1,.249.249"/><path class="a" d="M4.261,4.494a.25.25,0,0,1,.25-.249"/><path class="a" d="M4.511,4.744a.25.25,0,0,1-.25-.25"/><path class="a" d="M4.76,4.494a.249.249,0,0,1-.249.25"/><circle class="a" cx="20.058" cy="21.748" r="1.752"/><circle class="a" cx="6.922" cy="21.748" r="1.752"/><path class="a" d="M17.953,17.609c-.458,1.469-1.208,2.863-3.457,2.863H11.75c-2.114,0-1.724-6.491,2.086-6.491H15.75C17.492,13.981,18.745,15.069,17.953,17.609Z"/><line class="a" x1="17.991" y1="17.476" x2="10.502" y2="17.476"/><path class="a" d="M5.327,22.47H5.09a1.578,1.578,0,0,1-1.557-1.834c.8-4.9,5.744-8.676,10.833-8.676,5.052,0,8.513,3.721,9.105,8.571a1.73,1.73,0,0,1-1.716,1.939h-.1"/><line class="a" x1="16.494" y1="22.47" x2="10.502" y2="22.47"/><path class="a" d="M4.683,17.476c1.472,0,3,.186,3.434-.946a8.427,8.427,0,0,1,2.165-3.21l1.131-.943"/><path class="a" d="M13,12.05V10.985a1.5,1.5,0,0,1,2.995,0V12.1"/></svg>