<svg xmlns="http://www.w3.org/2000/svg" viewBox="0 0 24 24"><defs><style>.a{fill:none;stroke:#000;stroke-linecap:round;stroke-linejoin:round;}</style></defs><title>auto-pilot-car-wheel-disable</title><path class="a" d="M2.255,18.11A11.5,11.5,0,0,1,18.1,2.252"/><path class="a" d="M20.132,3.868A11.5,11.5,0,1,1,3.867,20.13"/><path class="a" d="M15.3,8.7a27.416,27.416,0,0,1,4.874,1.04"/><path class="a" d="M3.822,9.736A27.489,27.489,0,0,1,11.863,8.5"/><path class="a" d="M18.009,5.988A8.5,8.5,0,0,1,5.992,18.013"/><path class="a" d="M4.448,15.9A8.5,8.5,0,0,1,15.913,4.452"/><path class="a" d="M13.078,10.922A1.743,1.743,0,0,1,13.5,12,1.5,1.5,0,0,1,12,13.5a1.356,1.356,0,0,1-1.079-.421"/><path class="a" d="M9.071,14.934a6.508,6.508,0,0,1,1.286,5.426"/><path class="a" d="M3.532,12.517c.155-.011.311-.017.468-.017a6.474,6.474,0,0,1,3.083.776"/><path class="a" d="M13.639,20.342A5.762,5.762,0,0,1,13.5,19,6.5,6.5,0,0,1,20,12.5c.18,0,.307.027.482.042"/><line class="a" x1="0.5" y1="23.5" x2="23.5" y2="0.5"/></svg>