<svg xmlns="http://www.w3.org/2000/svg" viewBox="0 0 24 24"><defs><style>.a{fill:none;stroke:#000;stroke-linecap:round;stroke-linejoin:round;}</style></defs><title>auto-pilot-car-signal-1</title><circle class="a" cx="19.491" cy="21.464" r="2"/><circle class="a" cx="4.491" cy="21.464" r="2"/><path class="a" d="M13.31,20.464H10c-2.53,0-2.085-8,2.382-8h2.185c1.712,0,3.341,1.463,2.873,3.178C16.889,17.677,16.531,20.464,13.31,20.464Z"/><line class="a" x1="17.084" y1="16.964" x2="8.491" y2="16.964"/><path class="a" d="M2.76,22.464H2.4A1.8,1.8,0,0,1,.621,20.371c.918-5.6,6.559-9.907,12.37-9.907,5.769,0,9.721,4.248,10.4,9.787a1.973,1.973,0,0,1-1.959,2.213h-.208"/><line class="a" x1="15.991" y1="22.464" x2="7.991" y2="22.464"/><path class="a" d="M1.826,16.964H3.989a2,2,0,0,0,1.867-1.282,9.618,9.618,0,0,1,2.472-3.665l1.291-1.076"/><path class="a" d="M14.6,10.579V8.964a1.5,1.5,0,0,0-3,0v1.582"/><path class="a" d="M8.094,7.464A4,4,0,0,1,8.1.536"/><path class="a" d="M9.6,5.416a1.5,1.5,0,0,1,0-2.83"/><path class="a" d="M18.1,7.464a4,4,0,0,0,0-6.928"/><path class="a" d="M16.6,5.416a1.5,1.5,0,0,0,0-2.83"/></svg>