<svg xmlns="http://www.w3.org/2000/svg" viewBox="0 0 24 24"><defs><style>.a{fill:none;stroke:#000;stroke-linecap:round;stroke-linejoin:round;}</style></defs><title>baby-care-cot-mobile</title><line class="a" x1="12" y1="10.613" x2="12" y2="0.5"/><path class="a" d="M14.067,19.076a.244.244,0,0,1-.183.423c-1.534-.095-4.939-.746-4.939-4.636s3.413-4.508,4.961-4.592a.244.244,0,0,1,.176.426C12.025,12.609,12.058,17.144,14.067,19.076Z"/><path class="a" d="M22.016,13.78,18.925,8l-3.091,5.78a.5.5,0,0,0,.441.736h5.3A.5.5,0,0,0,22.016,13.78Z"/><circle class="a" cx="4.925" cy="9" r="3"/><line class="a" x1="0.5" y1="0.5" x2="23.5" y2="0.5"/><line class="a" x1="5" y1="6" x2="5" y2="0.5"/><line class="a" x1="19" y1="8" x2="19" y2="0.5"/></svg>