<svg xmlns="http://www.w3.org/2000/svg" viewBox="0 0 24 24"><defs><style>.a{fill:none;stroke:#000;stroke-linecap:round;stroke-linejoin:round;}</style></defs><title>baby-stork</title><path class="a" d="M10.988,4.8a8.582,8.582,0,0,1,.842-.263A17.186,17.186,0,0,1,15.919,4.1a26.522,26.522,0,0,1,5.911.918.5.5,0,0,1,.01.965,24.606,24.606,0,0,1-5.921,1A16.142,16.142,0,0,1,11.5,6.459a6.806,6.806,0,0,1-.853-.327"/><path class="a" d="M19,6.652l3.7,7.733a6.058,6.058,0,0,1-1.44,7.707l-.064.052a6.057,6.057,0,0,1-7.787-.124h0a6.058,6.058,0,0,1-1.372-7.438l3.421-7.6"/><path class="a" d="M14.034,1.309a.5.5,0,0,1,.517-.53,2.878,2.878,0,0,1,1.884.673A5.441,5.441,0,0,1,17.5,4.2a5.511,5.511,0,0,1-2.745-1.022A2.883,2.883,0,0,1,14.034,1.309Z"/><path class="a" d="M20.966,1.309a.5.5,0,0,0-.517-.53,2.878,2.878,0,0,0-1.884.673A5.441,5.441,0,0,0,17.5,4.2a5.511,5.511,0,0,0,2.745-1.022A2.883,2.883,0,0,0,20.966,1.309Z"/><path class="a" d="M7.75,3.986a.249.249,0,0,1,.25.25"/><path class="a" d="M7.5,4.236a.249.249,0,0,1,.25-.25"/><path class="a" d="M7.75,4.486a.25.25,0,0,1-.25-.25"/><path class="a" d="M8,4.236a.25.25,0,0,1-.25.25"/><path class="a" d="M6.089,23.5a11.132,11.132,0,0,0,1.034-9.038c-.094-.31-1.4-4.683-1.984-6.456A3.954,3.954,0,0,0,7,8.486,4,4,0,0,0,11,4.43,4.232,4.232,0,0,0,6.229.518c-5.42.48-4.957,6.146-3.2,11.8a4.036,4.036,0,0,1,.1,2.264A2.287,2.287,0,0,1,.5,16.46"/></svg>