<svg xmlns="http://www.w3.org/2000/svg" viewBox="0 0 24 24"><defs><style>.a{fill:none;stroke:#000;stroke-linecap:round;stroke-linejoin:round;}</style></defs><title>baby-care-bib</title><path class="a" d="M15,.739c-1.833-.584-3.023,2.133-.583,2.688,4.456,1.015,4.229,7.416-2.417,7.416s-6.873-6.4-2.417-7.416C12.023,2.872,10.833.155,9,.739a11.5,11.5,0,1,0,6,0Z"/><path class="a" d="M12,20.843c2.209,0,4-1.342,4-3a2.46,2.46,0,0,0-.6-1.561,1.5,1.5,0,1,0-1.9-1.439,1.545,1.545,0,0,0,.023.228,5.2,5.2,0,0,0-3.046,0,1.545,1.545,0,0,0,.023-.228,1.5,1.5,0,1,0-1.9,1.439A2.46,2.46,0,0,0,8,17.843C8,19.5,9.791,20.843,12,20.843Z"/><path class="a" d="M10.5,17.093a.25.25,0,0,1,.25.25"/><path class="a" d="M10.25,17.343a.25.25,0,0,1,.25-.25"/><path class="a" d="M10.5,17.593a.25.25,0,0,1-.25-.25"/><path class="a" d="M10.75,17.343a.25.25,0,0,1-.25.25"/><path class="a" d="M13.5,17.093a.25.25,0,0,1,.25.25"/><path class="a" d="M13.25,17.343a.25.25,0,0,1,.25-.25"/><path class="a" d="M13.5,17.593a.25.25,0,0,1-.25-.25"/><path class="a" d="M13.75,17.343a.25.25,0,0,1-.25.25"/></svg>