<svg xmlns="http://www.w3.org/2000/svg" viewBox="0 0 24 24"><defs><style>.a{fill:none;stroke:#000;stroke-linecap:round;stroke-linejoin:round;}</style></defs><title>baby-hold-hands</title><circle class="a" cx="12" cy="5.5" r="3"/><path class="a" d="M11.153,6a.967.967,0,0,0,1.694,0"/><path class="a" d="M3.5,23.5,1.486,20.983A4.5,4.5,0,0,1,.5,18.171V13A1.5,1.5,0,0,1,2,11.5H2A1.5,1.5,0,0,1,3.5,13v3.875"/><path class="a" d="M8,23.5V20.364a4.493,4.493,0,0,0-.757-2.5L6.1,16.154a1.4,1.4,0,0,0-1.977-.445h0A1.4,1.4,0,0,0,3.648,17.5L5,19.75"/><path class="a" d="M20.5,23.5l2.014-2.517a4.5,4.5,0,0,0,.986-2.812V13A1.5,1.5,0,0,0,22,11.5h0A1.5,1.5,0,0,0,20.5,13v3.875"/><path class="a" d="M16,23.5V20.364a4.493,4.493,0,0,1,.757-2.5L17.9,16.154a1.4,1.4,0,0,1,1.977-.445h0a1.4,1.4,0,0,1,.476,1.791L19,19.75"/><path class="a" d="M12,.5A5,5,0,0,0,7.167,6.784,24.89,24.89,0,0,1,8,13a4,4,0,0,0,8,0,24.89,24.89,0,0,1,.833-6.216A5,5,0,0,0,12,.5Z"/><line class="a" x1="8.109" y1="13.932" x2="16.396" y2="8.752"/><line class="a" x1="7.509" y1="8.256" x2="12.194" y2="11.379"/></svg>