<svg xmlns="http://www.w3.org/2000/svg" viewBox="0 0 24 24"><defs><style>.a{fill:none;stroke:#000;stroke-linecap:round;stroke-linejoin:round;}</style></defs><title>baby-1</title><path class="a" d="M20.5,14a8.5,8.5,0,0,1-17,0V10a8.5,8.5,0,0,1,17,0Z"/><path class="a" d="M12,4a3,3,0,0,1,2.3,3.565A2.4,2.4,0,0,1,11.447,9.4,1.92,1.92,0,0,1,9.976,7.123,1.536,1.536,0,0,1,11.8,5.946"/><path class="a" d="M7.5,13.25a.25.25,0,0,1,.25.25"/><path class="a" d="M7.25,13.5a.25.25,0,0,1,.25-.25"/><path class="a" d="M7.5,13.75a.25.25,0,0,1-.25-.25"/><path class="a" d="M7.75,13.5a.25.25,0,0,1-.25.25"/><path class="a" d="M16.5,13.25a.25.25,0,0,1,.25.25"/><path class="a" d="M16.25,13.5a.25.25,0,0,1,.25-.25"/><path class="a" d="M16.5,13.75a.25.25,0,0,1-.25-.25"/><path class="a" d="M16.75,13.5a.25.25,0,0,1-.25.25"/><path class="a" d="M3.5,11.5a2.5,2.5,0,0,0,0,5h.375"/><path class="a" d="M20.5,11.5a2.5,2.5,0,0,1,0,5h-.375"/><path class="a" d="M14.243,15.611a2.5,2.5,0,0,0-1.422-.015,2.9,2.9,0,0,1-1.642,0,2.5,2.5,0,1,0-.679,4.9,2.423,2.423,0,0,0,.794-.133,2.15,2.15,0,0,1,1.412,0,2.423,2.423,0,0,0,.794.133,2.5,2.5,0,0,0,.743-4.889Z"/><path class="a" d="M12,17.75a.25.25,0,0,1,.25.25"/><path class="a" d="M11.75,18a.25.25,0,0,1,.25-.25"/><path class="a" d="M12,18.25a.25.25,0,0,1-.25-.25"/><path class="a" d="M12.25,18a.25.25,0,0,1-.25.25"/></svg>