<svg xmlns="http://www.w3.org/2000/svg" viewBox="0 0 24 24"><defs><style>.a{fill:none;stroke:#000;stroke-linecap:round;stroke-linejoin:round;}</style></defs><title>baby-mother</title><line class="a" x1="13.974" y1="14.209" x2="14.122" y2="19.629"/><line class="a" x1="9.817" y1="17.887" x2="17.402" y2="20.957"/><path class="a" d="M21.587,19.152a4.572,4.572,0,0,0-4.1-8.059,4.522,4.522,0,0,0-2.072,1.43,22.194,22.194,0,0,1-4.245,4.234l-.616.439a3.533,3.533,0,0,0-1.268,4.267,3.437,3.437,0,0,0,5.127,1.4l.744-.53a17.4,17.4,0,0,1,5.125-2.546A4.383,4.383,0,0,0,21.587,19.152Z"/><circle class="a" cx="18.933" cy="15.43" r="2.5"/><path class="a" d="M9.894,11a2.5,2.5,0,0,1-3,0"/><path class="a" d="M10.394,8.25a.249.249,0,0,1,.25.25"/><path class="a" d="M10.144,8.5a.25.25,0,0,1,.25-.25"/><path class="a" d="M10.394,8.75a.25.25,0,0,1-.25-.25"/><path class="a" d="M10.644,8.5a.249.249,0,0,1-.25.25"/><path class="a" d="M6.394,8.25a.249.249,0,0,1,.25.25"/><path class="a" d="M6.144,8.5a.25.25,0,0,1,.25-.25"/><path class="a" d="M6.394,8.75a.25.25,0,0,1-.25-.25"/><path class="a" d="M6.644,8.5a.249.249,0,0,1-.25.25"/><path class="a" d="M12.894,7a5,5,0,0,1-4.5-2.818A5,5,0,0,1,3.894,7a4.88,4.88,0,0,1-.5-.025V9.5a5,5,0,0,0,10,0V6.975A4.852,4.852,0,0,1,12.894,7Z"/><path class="a" d="M15.392,9.814c-.016-.744-.009-1.505,0-2.314a7,7,0,0,0-14,0,24.171,24.171,0,0,1-.872,8.087.5.5,0,0,0,.258.6A14.661,14.661,0,0,0,7.394,17.5"/></svg>