<svg id="Light" xmlns="http://www.w3.org/2000/svg" viewBox="0 0 24 24"><defs><style>.cls-1{fill:none;stroke:#000;stroke-linecap:round;stroke-linejoin:round;}</style></defs><title>bag-elegant</title><path class="cls-1" d="M1.5,5.5h21a1,1,0,0,1,1,1v10a2,2,0,0,1-2,2H2.5a2,2,0,0,1-2-2V6.5a1,1,0,0,1,1-1Z"/><path class="cls-1" d="M17.5,12.5h4a2,2,0,0,0,2-2"/><path class="cls-1" d="M.5,10.5a2,2,0,0,0,2,2h4"/><path class="cls-1" d="M10.663,11.318A4.807,4.807,0,0,0,7.875,8.925,1,1,0,0,0,6.5,9.849v3.969a1,1,0,0,0,1.309.956,7.228,7.228,0,0,0,2.907-2"/><path class="cls-1" d="M13.335,11.318a4.807,4.807,0,0,1,2.788-2.393,1,1,0,0,1,1.376.924v3.969a1,1,0,0,1-1.309.956,7.228,7.228,0,0,1-2.907-2"/><circle class="cls-1" cx="11.999" cy="12" r="1.5"/></svg>