<svg id="Light" xmlns="http://www.w3.org/2000/svg" viewBox="0 0 24 24"><defs><style>.cls-1{fill:none;stroke:#000;stroke-linecap:round;stroke-linejoin:round;}</style></defs><title>bag-handle</title><path class="cls-1" d="M22.92,11.286A3,3,0,0,0,19.928,8.5H4.071a3,3,0,0,0-2.993,2.786l-.571,9A3,3,0,0,0,3.5,23.5h17a3,3,0,0,0,2.992-3.214Z"/><path class="cls-1" d="M7.5,6.5V5A4.5,4.5,0,0,1,12,.5h0A4.5,4.5,0,0,1,16.5,5V6.5"/><path class="cls-1" d="M7.5,6.5h0A1.5,1.5,0,0,1,9,8v.5a0,0,0,0,1,0,0H6a0,0,0,0,1,0,0V8A1.5,1.5,0,0,1,7.5,6.5Z"/><path class="cls-1" d="M16.5,6.5h0A1.5,1.5,0,0,1,18,8v.5a0,0,0,0,1,0,0H15a0,0,0,0,1,0,0V8a1.5,1.5,0,0,1,1.5-1.5Z"/><line class="cls-1" x1="10.499" y1="11.5" x2="13.499" y2="11.5"/><rect class="cls-1" x="6.499" y="8.5" width="2" height="15"/><rect class="cls-1" x="15.499" y="8.5" width="2" height="15"/></svg>