<svg xmlns="http://www.w3.org/2000/svg" viewBox="0 0 24 24"><defs><style>.a{fill:none;stroke:#000;stroke-linecap:round;stroke-linejoin:round;}</style></defs><title>baggage-roll</title><path class="a" d="M23.5,19.5a1,1,0,0,1-1,1h-9a1,1,0,0,1-1-1V8.5a1,1,0,0,1,1-1h9a1,1,0,0,1,1,1Z"/><line class="a" x1="16.5" y1="10.5" x2="16.5" y2="17.5"/><line class="a" x1="19.5" y1="10.5" x2="19.5" y2="17.5"/><path class="a" d="M15.5,7.5v-4a1,1,0,0,1,1-1h3a1,1,0,0,1,1,1v4"/><line class="a" x1="14.5" y1="20.5" x2="14.5" y2="21.5"/><line class="a" x1="21.5" y1="20.5" x2="21.5" y2="21.5"/><line class="a" x1="0.5" y1="19.5" x2="9.5" y2="19.5"/><line class="a" x1="2.5" y1="16.5" x2="9.5" y2="16.5"/><line class="a" x1="5" y1="13.5" x2="9.5" y2="13.5"/></svg>