<svg xmlns="http://www.w3.org/2000/svg" viewBox="0 0 24 24"><defs><style>.a{fill:none;stroke:#000;stroke-linecap:round;stroke-linejoin:round;}</style></defs><title>baggage-drop-off</title><circle class="a" cx="4.5" cy="3" r="2.5"/><path class="a" d="M6.5,22.5v-7h1a1,1,0,0,0,1-1v-5a2,2,0,0,0-2-2h-4a2,2,0,0,0-2,2v5a1,1,0,0,0,1,1h1v7a1,1,0,0,0,1,1h2A1,1,0,0,0,6.5,22.5Z"/><path class="a" d="M15,15.5v-1a2.006,2.006,0,0,1,2-2h1a2.006,2.006,0,0,1,2,2v1"/><line class="a" x1="14.5" y1="15.5" x2="14.5" y2="23.5"/><line class="a" x1="20.5" y1="15.5" x2="20.5" y2="23.5"/><line class="a" x1="14.5" y1="5.5" x2="20.5" y2="5.5"/><polyline class="a" points="18 8 20.5 5.5 18 3"/><rect class="a" x="11.5" y="15.5" width="12" height="8" rx="1" ry="1"/></svg>