<svg xmlns="http://www.w3.org/2000/svg" viewBox="0 0 24 24"><defs><style>.a{fill:none;stroke:#000;stroke-linecap:round;stroke-linejoin:round;}</style></defs><title>baggage-line</title><path class="a" d="M20.5,15a1,1,0,0,1-1,1H3.5a1,1,0,0,1-1-1V5a1,1,0,0,1,1-1h16a1,1,0,0,1,1,1Z"/><line class="a" x1="5.5" y1="4" x2="5.5" y2="16"/><line class="a" x1="17.5" y1="4" x2="17.5" y2="16"/><path class="a" d="M9,4V3a2.5,2.5,0,0,1,5,0V4"/><line class="a" x1="3.75" y1="21" x2="3.75" y2="21"/><path class="a" d="M3.75,21a.25.25,0,1,0,.25.25A.25.25,0,0,0,3.75,21"/><line class="a" x1="7.25" y1="21" x2="7.25" y2="21"/><path class="a" d="M7.25,21a.25.25,0,1,0,.25.25A.25.25,0,0,0,7.25,21"/><line class="a" x1="10.75" y1="21" x2="10.75" y2="21"/><path class="a" d="M10.75,21a.25.25,0,1,0,.25.25.25.25,0,0,0-.25-.25"/><line class="a" x1="14.25" y1="21" x2="14.25" y2="21"/><path class="a" d="M14.25,21a.25.25,0,1,0,.25.25.25.25,0,0,0-.25-.25"/><line class="a" x1="17.75" y1="21" x2="17.75" y2="21"/><path class="a" d="M17.75,21a.25.25,0,1,0,.25.25.25.25,0,0,0-.25-.25"/><line class="a" x1="21.25" y1="21" x2="21.25" y2="21"/><path class="a" d="M21.25,21a.25.25,0,1,0,.25.25.25.25,0,0,0-.25-.25"/><path class="a" d="M23.5,19H2.75a2.25,2.25,0,0,0,0,4.5H23.5"/></svg>