<svg xmlns="http://www.w3.org/2000/svg" viewBox="0 0 24 24"><defs><style>.a{fill:none;stroke:#000;stroke-linecap:round;stroke-linejoin:round;}</style></defs><title>baggage-weight</title><path class="a" d="M7.751,15.484h7.5a2.25,2.25,0,0,1,2.25,2.25v3.5a2.249,2.249,0,0,1-2.249,2.249H7.75a2.25,2.25,0,0,1-2.25-2.25v-3.5A2.251,2.251,0,0,1,7.751,15.484Z"/><path class="a" d="M16.484,5.5A4.984,4.984,0,1,1,11.5.516,4.984,4.984,0,0,1,16.484,5.5Z"/><line class="a" x1="13.184" y1="3.43" x2="11.5" y2="5.984"/><line class="a" x1="8" y1="18.484" x2="15" y2="18.484"/><line class="a" x1="8" y1="20.484" x2="15" y2="20.484"/><path class="a" d="M14.5,14.484a2,2,0,0,0-2-2h-2a2,2,0,0,0-2,2v1h6Z"/><line class="a" x1="1" y1="23.484" x2="23" y2="23.484"/></svg>