<svg xmlns="http://www.w3.org/2000/svg" viewBox="0 0 24 24"><defs><style>.a{fill:none;stroke:#000;stroke-linecap:round;stroke-linejoin:round;}</style></defs><title>baggage-weight-1</title><path class="a" d="M4.359,4.9l.1,1.465-1.314.653A.5.5,0,0,1,2.67,7L1.233,6.177A.962.962,0,0,1,.878,4.863l.48-.835a.962.962,0,0,1,1.315-.354L4.11,4.5A.5.5,0,0,1,4.359,4.9Z"/><line class="a" x1="4.457" y1="6.365" x2="6.465" y2="7.52"/><path class="a" d="M6.271,9V8.5A2.591,2.591,0,0,1,8.854,5.917h.792A2.591,2.591,0,0,1,12.229,8.5V9"/><line class="a" x1="4.75" y1="9" x2="4.75" y2="20"/><line class="a" x1="6.75" y1="9" x2="6.75" y2="20"/><line class="a" x1="13.75" y1="9" x2="13.75" y2="20"/><line class="a" x1="11.75" y1="9" x2="11.75" y2="20"/><path class="a" d="M.75,23h17a2,2,0,0,0,2-2V8"/><circle class="a" cx="19.75" cy="4.5" r="3.5"/><line class="a" x1="19.75" y1="4.5" x2="21.119" y2="3.175"/><rect class="a" x="1.75" y="9" width="15" height="11" rx="1" ry="1"/></svg>