<svg id="Light" xmlns="http://www.w3.org/2000/svg" viewBox="0 0 24 24"><defs><style>.cls-1{fill:none;stroke:#000;stroke-linecap:round;stroke-linejoin:round;}</style></defs><title>bandage-leg-hanging</title><path class="cls-1" d="M.5,18.5l19.177,1.438a1,1,0,0,0,1.04-.733L21.8,15.237a1,1,0,0,1,.965-.737.737.737,0,0,1,.736.736V21.5a2,2,0,0,1-2,2H.5"/><line class="cls-1" x1="9.541" y1="15.75" x2="5.937" y2="16.693"/><line class="cls-1" x1="0.5" y1="12.963" x2="8.501" y2="11.537"/><path class="cls-1" d="M23.48,12.03a1.993,1.993,0,0,0-.046-.788L21.854,5.2A2.25,2.25,0,1,0,17.5,6.334l.569,2.176-2.194.574"/><line class="cls-1" x1="17.585" y1="8.637" x2="21" y2="12.514"/><line class="cls-1" x1="17.816" y1="7.543" x2="22.802" y2="8.824"/><path class="cls-1" d="M10.5.5V15.54A2,2,0,0,0,12.919,17.5l2.617-.561a2,2,0,0,0,1.535-2.383L14,.5"/><line class="cls-1" x1="17.123" y1="14.959" x2="19.983" y2="14.212"/><path class="cls-1" d="M10.5,10.332l-1.256.328a1,1,0,0,0-.714,1.22l1.011,3.87a1,1,0,0,0,1.19.723"/></svg>