<svg id="Light" xmlns="http://www.w3.org/2000/svg" viewBox="0 0 24 24"><defs><style>.cls-1{fill:none;stroke:#000;stroke-linecap:round;stroke-linejoin:round;}</style></defs><title>bandage-leg</title><path class="cls-1" d="M19.5,6.439V1A.5.5,0,0,0,19,.5H11a.5.5,0,0,0-.5.5V6.167"/><path class="cls-1" d="M10.5,15.5v3h-4a5,5,0,0,0-4.843,3.751A1,1,0,0,0,2.628,23.5H18.5a1,1,0,0,0,1-1V15.709"/><path class="cls-1" d="M5.315,13.065c-.249.79-1.517,1.1-2.834.685S.3,12.363.542,11.572s1.517-1.1,2.834-.685S5.562,12.274,5.315,13.065Z"/><line class="cls-1" x1="10.505" y1="18.5" x2="19.5" y2="16.5"/><line class="cls-1" x1="10.502" y1="4.647" x2="19.5" y2="2.147"/><line class="cls-1" x1="19.5" y1="16.5" x2="14.5" y2="23.5"/><line class="cls-1" x1="10.5" y1="18.5" x2="11.5" y2="23.5"/><line class="cls-1" x1="5.521" y1="18.596" x2="6.5" y2="23.5"/><path class="cls-1" d="M3.376,10.887l19.481,5.825a.5.5,0,0,0,.643-.479V10.262a.5.5,0,0,0-.362-.48L5.316,4.683C4,4.271,2.73,4.578,2.482,5.369l-1.94,6.2"/></svg>