<svg id="Light" xmlns="http://www.w3.org/2000/svg" viewBox="0 0 24 24"><defs><style>.cls-1{fill:none;stroke:#000;stroke-linecap:round;stroke-linejoin:round;}</style></defs><title>barbecue-stick-1</title><path class="cls-1" d="M7.145,13.663a2.589,2.589,0,0,1,3.594-.4,2.589,2.589,0,0,1-.4,3.594,2.589,2.589,0,0,1-3.593.4A2.589,2.589,0,0,1,7.145,13.663Z"/><line class="cls-1" x1="20.529" y1="9.119" x2="14.883" y2="3.473"/><line class="cls-1" x1="16.89" y1="12.759" x2="11.243" y2="7.112"/><line class="cls-1" x1="13.562" y1="16.086" x2="7.916" y2="10.44"/><path class="cls-1" d="M14.066,6.3a2.574,2.574,0,1,1,0,3.639A2.572,2.572,0,0,1,14.066,6.3Z"/><rect class="cls-1" x="10.049" y="9.599" width="4.707" height="4" transform="translate(-4.569 12.165) rotate(-44.991)"/><path class="cls-1" d="M16.292,4.882,19.12,7.71,22.3,4.528a1,1,0,0,0,0-1.414L20.888,1.7a1,1,0,0,0-1.414,0Z"/><line class="cls-1" x1="21.597" y1="2.409" x2="23.499" y2="0.499"/><path class="cls-1" d="M6.746,17.256,5.374,18.628A1,1,0,0,0,5.2,19.811a2.5,2.5,0,1,1-3.968-.579"/></svg>