<svg id="Light" xmlns="http://www.w3.org/2000/svg" viewBox="0 0 24 24"><defs><style>.cls-1{fill:none;stroke:#000;stroke-linecap:round;stroke-linejoin:round;}</style></defs><title>barbecue-grill</title><path class="cls-1" d="M17.5,8.5a.5.5,0,0,1,.5.526,6.026,6.026,0,0,1-12,0,.5.5,0,0,1,.5-.526Z"/><path class="cls-1" d="M8.5,6.5A2.619,2.619,0,0,0,9.25,5c0-1.195-1.5-1.805-1.5-3A2.619,2.619,0,0,1,8.5.5"/><path class="cls-1" d="M15.5,6.5A2.619,2.619,0,0,0,16.25,5c0-1.195-1.5-1.805-1.5-3A2.619,2.619,0,0,1,15.5.5"/><path class="cls-1" d="M12,6.5A2.619,2.619,0,0,0,12.75,5c0-1.195-1.5-1.805-1.5-3A2.619,2.619,0,0,1,12,.5"/><line class="cls-1" x1="4.5" y1="23.5" x2="9.131" y2="13.774"/><line class="cls-1" x1="19.5" y1="23.5" x2="14.869" y2="13.774"/><line class="cls-1" x1="18.071" y1="20.5" x2="5.929" y2="20.5"/></svg>