<svg id="Light" xmlns="http://www.w3.org/2000/svg" viewBox="0 0 24 24"><defs><style>.cls-1{fill:none;stroke:#000;stroke-linecap:round;stroke-linejoin:round;}</style></defs><title>barbecue-set</title><path class="cls-1" d="M20.5,6.5a5,5,0,0,1-5,5V1.5A5,5,0,0,1,20.5,6.5Z"/><line class="cls-1" x1="15.5" y1="1.5" x2="15.5" y2="0.5"/><line class="cls-1" x1="8.5" y1="13.5" x2="10.5" y2="13.5"/><line class="cls-1" x1="4.5" y1="9.5" x2="13.5" y2="9.5"/><line class="cls-1" x1="6" y1="23.5" x2="7" y2="16.954"/><circle class="cls-1" cx="12.5" cy="22" r="1.5"/><line class="cls-1" x1="12.001" y1="16.955" x2="12.154" y2="20.542"/><line class="cls-1" x1="6.625" y1="19.5" x2="12.109" y2="19.5"/><path class="cls-1" d="M9.5,17.5a6,6,0,0,0,6-6H3.5A6,6,0,0,0,9.5,17.5Z"/></svg>