<svg id="Light" xmlns="http://www.w3.org/2000/svg" viewBox="0 0 24 24"><defs><style>.cls-1{fill:none;stroke:#000;stroke-linecap:round;stroke-linejoin:round;}</style></defs><title>bat-fly</title><path class="cls-1" d="M13,4.5,14.5,3l1,4.5C19.5,7.5,21,3,21,3s2,1.5,2,7.5-3,9-3,9,.5-2.5-1-3.5-3,1-3,1a2.511,2.511,0,0,0-2-.5c-1.5.5-2,4.5-2,4.5s-.5-4-2-4.5A2.511,2.511,0,0,0,8,17s-1.5-2-3-1-1,3.5-1,3.5-3-3-3-9S3,3,3,3,4.5,7.5,8.5,7.5L9.5,3,11,4.5Z"/><path class="cls-1" d="M10.75,6.5a.25.25,0,0,1,.25.25"/><path class="cls-1" d="M10.5,6.75a.25.25,0,0,1,.25-.25"/><path class="cls-1" d="M10.75,7a.25.25,0,0,1-.25-.25"/><path class="cls-1" d="M11,6.75a.25.25,0,0,1-.25.25"/><path class="cls-1" d="M13.25,6.5a.25.25,0,0,1,.25.25"/><path class="cls-1" d="M13,6.75a.25.25,0,0,1,.25-.25"/><path class="cls-1" d="M13.25,7A.25.25,0,0,1,13,6.75"/><path class="cls-1" d="M13.5,6.75a.25.25,0,0,1-.25.25"/><path class="cls-1" d="M11,9.5l.646-.646a.5.5,0,0,1,.708,0L13,9.5"/></svg>