<svg xmlns="http://www.w3.org/2000/svg" viewBox="0 0 24 24"><defs><style>.a{fill:none;stroke:#000;stroke-linecap:round;stroke-linejoin:round;}</style></defs><title>bathroom-tub-person</title><circle class="a" cx="5" cy="4.5" r="2.5"/><path class="a" d="M15.5,13h7.479a.5.5,0,0,1,.506.522A9,9,0,0,1,14.5,22h-5A9,9,0,0,1,.515,13.522.5.5,0,0,1,1.021,13H6"/><path class="a" d="M3.5,13V10.5A1.5,1.5,0,0,1,5.832,9.252L8.609,11.1a1.509,1.509,0,0,0,1.7-.027l1.114-.8a1.5,1.5,0,1,1,1.744,2.442l-1.115.8a4.528,4.528,0,0,1-5.111.082L6,13"/></svg>