<svg xmlns="http://www.w3.org/2000/svg" viewBox="0 0 24 24"><defs><style>.a{fill:none;stroke:#000;stroke-linecap:round;stroke-linejoin:round;}</style></defs><title>bathroom-laundry-bin</title><path class="a" d="M21.5,20.5a3,3,0,0,1-3,3H5.5a3,3,0,0,1-3-3V8.5h19Z"/><path class="a" d="M22.5,7.5a1,1,0,0,1-1,1H2.5a1,1,0,0,1,0-2h19A1,1,0,0,1,22.5,7.5Z"/><line class="a" x1="2.5" y1="11.5" x2="5" y2="11.5"/><line class="a" x1="19" y1="11.5" x2="21.5" y2="11.5"/><line class="a" x1="2.5" y1="14.5" x2="5" y2="14.5"/><line class="a" x1="19" y1="14.5" x2="21.5" y2="14.5"/><line class="a" x1="2.5" y1="17.5" x2="5" y2="17.5"/><line class="a" x1="19" y1="17.5" x2="21.5" y2="17.5"/><line class="a" x1="2.5" y1="20.5" x2="5" y2="20.5"/><line class="a" x1="19" y1="20.5" x2="21.5" y2="20.5"/><line class="a" x1="7" y1="11.5" x2="8" y2="11.5"/><line class="a" x1="7" y1="14.5" x2="8" y2="14.5"/><line class="a" x1="7" y1="17.5" x2="8" y2="17.5"/><line class="a" x1="7" y1="20.5" x2="8" y2="20.5"/><line class="a" x1="17" y1="11.5" x2="16" y2="11.5"/><line class="a" x1="17" y1="14.5" x2="16" y2="14.5"/><line class="a" x1="17" y1="17.5" x2="16" y2="17.5"/><line class="a" x1="17" y1="20.5" x2="16" y2="20.5"/><path class="a" d="M7.5,6.5V5a4.5,4.5,0,0,1,9,0V6.5"/></svg>