<svg xmlns="http://www.w3.org/2000/svg" viewBox="0 0 24 24"><defs><style>.a{fill:none;stroke:#000;stroke-linecap:round;stroke-linejoin:round;}</style></defs><title>bathroom-shower-1</title><path class="a" d="M9.5,6.5V6a5.5,5.5,0,0,1,11,0V23.5"/><path class="a" d="M13.5,10.5a4,4,0,0,0-8,0V11a.5.5,0,0,0,.5.5h7a.5.5,0,0,0,.5-.5Z"/><path class="a" d="M9.5,15.25a.25.25,0,1,1-.25.25.25.25,0,0,1,.25-.25"/><path class="a" d="M9.5,18.25a.25.25,0,1,1-.25.25.25.25,0,0,1,.25-.25"/><path class="a" d="M4.5,18.25a.25.25,0,1,1-.25.25.25.25,0,0,1,.25-.25"/><path class="a" d="M14.5,18.25a.25.25,0,1,1-.25.25.25.25,0,0,1,.25-.25"/><path class="a" d="M9.5,21.25a.25.25,0,1,1-.25.25.25.25,0,0,1,.25-.25"/><path class="a" d="M3.5,21.25a.25.25,0,1,1-.25.25.25.25,0,0,1,.25-.25"/><path class="a" d="M15.5,21.25a.25.25,0,1,1-.25.25.25.25,0,0,1,.25-.25"/><path class="a" d="M5.5,15.25a.25.25,0,1,1-.25.25.25.25,0,0,1,.25-.25"/><path class="a" d="M13.5,15.25a.25.25,0,1,1-.25.25.25.25,0,0,1,.25-.25"/></svg>