<svg xmlns="http://www.w3.org/2000/svg" viewBox="0 0 24 24"><defs><style>.a{fill:none;stroke:#000;stroke-linecap:round;stroke-linejoin:round;}</style></defs><title>bathroom-hanger-1</title><line class="a" x1="17.5" y1="4" x2="21.5" y2="4"/><circle class="a" cx="1.5" cy="4" r="1"/><path class="a" d="M15.5,3.5A2.5,2.5,0,0,1,18,1H6A2.5,2.5,0,0,0,3.5,3.5v19A.5.5,0,0,0,4,23H15a.5.5,0,0,0,.5-.5Z"/><path class="a" d="M18,1a2.5,2.5,0,0,1,2.008,1.01"/><circle class="a" cx="22.5" cy="4" r="1"/><path class="a" d="M20.5,6v8.5a.5.5,0,0,1-.5.5H17.5"/><rect class="a" x="3.5" y="17" width="12" height="3"/></svg>