<svg xmlns="http://www.w3.org/2000/svg" viewBox="0 0 24 24"><defs><style>.a{fill:none;stroke:#000;stroke-linecap:round;stroke-linejoin:round;}</style></defs><title>bathroom-tub-towel</title><path class="a" d="M13.5,14.274h9.486a.5.5,0,0,1,.5.53,9,9,0,0,1-8.985,8.47h-5A9,9,0,0,1,.515,14.8a.5.5,0,0,1,.5-.53H6.5"/><path class="a" d="M17.27,2.136l.9-.9a2,2,0,0,1,3.329,1.5V14.274"/><path class="a" d="M17.27,5.488a2.37,2.37,0,1,0-3.351-3.352l-.205.205a.5.5,0,0,0,0,.707l2.644,2.645a.5.5,0,0,0,.708,0Z"/><line class="a" x1="11.408" y1="3.356" x2="9.592" y2="4.193"/><line class="a" x1="15.893" y1="7.855" x2="15.107" y2="9.694"/><line class="a" x1="13.211" y1="6.071" x2="11.789" y2="7.478"/><path class="a" d="M13.5,13.274a1,1,0,0,0-1-1h-5a1,1,0,0,0-1,1v5.5a.5.5,0,0,0,.5.5h6a.5.5,0,0,0,.5-.5Z"/></svg>