<svg xmlns="http://www.w3.org/2000/svg" viewBox="0 0 24 24"><defs><style>.a{fill:none;stroke:#000;stroke-linecap:round;stroke-linejoin:round;}</style></defs><title>bathroom-robe-female</title><path class="a" d="M16,10.5l2.354-5.886A3,3,0,0,0,15.569.5H8.431A3,3,0,0,0,5.646,4.614L8,10.5A25.577,25.577,0,0,0,5,22.492a.966.966,0,0,0,.31.712,1.1,1.1,0,0,0,.758.3H17.932a1.1,1.1,0,0,0,.758-.3.966.966,0,0,0,.31-.712A25.577,25.577,0,0,0,16,10.5Z"/><path class="a" d="M6.976.877C7.934,5.934,11.992,10,13,10.5V16"/><path class="a" d="M13.062,6.979c1.544-.547,3.537-2.579,4.512-5.71"/><polyline class="a" points="9.5 0.5 15 10.5 15 23.5"/><line class="a" x1="12.092" y1="5.213" x2="15.58" y2="0.5"/><line class="a" x1="11" y1="10.5" x2="11" y2="13"/><path class="a" d="M5.327,18.391l-2.078-.722a1.151,1.151,0,0,1-.72-1.347C3.02,14.147,3.743,9.261,4.322,5.493A7.137,7.137,0,0,1,5.764,2.127"/><path class="a" d="M18.673,18.391l2.078-.722a1.151,1.151,0,0,0,.72-1.347c-.491-2.175-1.214-7.061-1.793-10.829a7.137,7.137,0,0,0-1.442-3.366"/><line class="a" x1="8" y1="10.5" x2="16" y2="10.5"/></svg>