<svg id="Light" xmlns="http://www.w3.org/2000/svg" viewBox="0 0 24 24"><defs><style>.cls-1{fill:none;stroke:#000;stroke-linecap:round;stroke-linejoin:round;}</style></defs><title>beach-palm-water-1</title><path class="cls-1" d="M23.5,18.838c-2.505.521-4.06-1.979-4.06-1.979h0a4.4,4.4,0,0,1-3.621,2.056A3.822,3.822,0,0,1,12.5,16.859h0A5.706,5.706,0,0,1,11,18.2"/><line class="cls-1" x1="0.5" y1="21.95" x2="23.5" y2="21.95"/><polyline class="cls-1" points="2.956 21.95 8.5 5.95 8.5 21.95"/><path class="cls-1" d="M7.64,5.606,1,2.949c3.6-2.4,7.5.5,7.5,3"/><path class="cls-1" d="M9.365,5.6,16,2.949c-3.6-2.4-7.5.5-7.5,3"/><path class="cls-1" d="M16.358,12.95c.73-5.612-4.927-8.5-7.858-7.057Z"/><path class="cls-1" d="M.642,12.95c-.73-5.612,4.927-8.5,7.858-7.057Z"/><line class="cls-1" x1="6.423" y1="19.776" x2="8.5" y2="19.776"/><line class="cls-1" x1="6.923" y1="17.776" x2="8.5" y2="17.776"/></svg>