<svg id="Light" xmlns="http://www.w3.org/2000/svg" viewBox="0 0 24 24"><defs><style>.cls-1{fill:none;stroke:#000;stroke-linecap:round;stroke-linejoin:round;}</style></defs><title>beach-palm-sunbed</title><path class="cls-1" d="M2.5,23.5l.212-2.118C3.114,17.33,4.117,12.881,7,10L8,8.995"/><path class="cls-1" d="M9.709,9.173l-.726,1.694a21.188,21.188,0,0,0-1.671,9.665L7.5,23.5"/><path class="cls-1" d="M9.073,8.509l6.252,6.524a.5.5,0,0,0,.837-.192,5.227,5.227,0,0,0-1.589-4.928C13,8.275,10.925,7.638,9.457,8.2"/><path class="cls-1" d="M9.531,8.3C8.511,6.9,6.093,6.569,3.8,7.613A5.226,5.226,0,0,0,.5,11.6a.5.5,0,0,0,.706.489Z"/><path class="cls-1" d="M17.632,3.6a.5.5,0,0,0,.031-.858A5.23,5.23,0,0,0,12.491,3C10.285,4.211,9.106,6.348,9.615,8Z"/><path class="cls-1" d="M2.258,1.551A.5.5,0,0,1,2.413.707,5.227,5.227,0,0,1,7.407,2.075c1.893,1.659,2.583,4,1.729,5.5Z"/><line class="cls-1" x1="2.807" y1="20.501" x2="7.31" y2="20.501"/><line class="cls-1" x1="3.56" y1="16.501" x2="7.444" y2="16.501"/><line class="cls-1" x1="5.126" y1="12.501" x2="8.362" y2="12.501"/><path class="cls-1" d="M10.5,16.5l1.393,4.643a.5.5,0,0,0,.479.357H23.5"/><line class="cls-1" x1="13.497" y1="21.501" x2="12.497" y2="23.501"/><line class="cls-1" x1="21.497" y1="21.501" x2="22.497" y2="23.501"/><line class="cls-1" x1="11.097" y1="18.501" x2="14.997" y2="18.501"/></svg>