<svg id="Light" xmlns="http://www.w3.org/2000/svg" viewBox="0 0 24 24"><defs><style>.cls-1{fill:none;stroke:#000;stroke-linecap:round;stroke-linejoin:round;}</style></defs><title>beach-palm-water</title><path class="cls-1" d="M11.57,5.22l4.636-2.545a.5.5,0,0,0-.013-.884,4.205,4.205,0,0,0-3.8.322,4.737,4.737,0,0,0-2.009,2.034A4.736,4.736,0,0,0,8.858,1.723,4.209,4.209,0,0,0,5.214.587a.5.5,0,0,0-.2.86l3.68,3.225a4.618,4.618,0,0,0-3.126.334A4.147,4.147,0,0,0,3.02,7.954a.5.5,0,0,0,.661.536L9.364,6.5h.5l4.607,4.056a.5.5,0,0,0,.815-.253A4.152,4.152,0,0,0,14.01,6.626,4.757,4.757,0,0,0,11.57,5.22Z"/><path class="cls-1" d="M4.8,15.622c.43-3.028,1.327-6.117,3.333-8.229l.618-.651"/><path class="cls-1" d="M10.286,6.87,9.768,8.142C7.939,12.636,8.5,15,8.394,16.471"/><path class="cls-1" d="M23.5,19.481C21,20,19.44,17.5,19.44,17.5h0a4.4,4.4,0,0,1-3.621,2.056A4.607,4.607,0,0,1,12.2,17.5h0a4.405,4.405,0,0,1-3.621,2.056A4.607,4.607,0,0,1,4.961,17.5h0s-2,2.542-4.455,2.021"/><path class="cls-1" d="M23.5,23.389c-2.5.52-4.06-1.98-4.06-1.98h0a4.4,4.4,0,0,1-3.621,2.057A4.607,4.607,0,0,1,12.2,21.409h0a4.405,4.405,0,0,1-3.621,2.057,4.607,4.607,0,0,1-3.615-2.057h0S2.953,23.951.5,23.43"/><path class="cls-1" d="M3.058,14.508A8.413,8.413,0,0,0,.5,16.04"/><path class="cls-1" d="M23.5,16.04C21.594,14.253,17.163,13,12,13q-.654,0-1.29.026"/></svg>