<svg id="Light" xmlns="http://www.w3.org/2000/svg" viewBox="0 0 24 24"><defs><style>.cls-1{fill:none;stroke:#000;stroke-linecap:round;stroke-linejoin:round;}</style></defs><title>beach-swim</title><circle class="cls-1" cx="15.498" cy="3" r="2.5"/><path class="cls-1" d="M.5,23.5l1.391-.928a2,2,0,0,1,2.219,0l.781.521a2,2,0,0,0,2.219,0l.781-.521a2,2,0,0,1,2.219,0l.781.521a2,2,0,0,0,2.219,0l.781-.521a2,2,0,0,1,2.219,0l.781.521a2,2,0,0,0,2.219,0l.781-.521a2,2,0,0,1,2.219,0l1.394.93"/><path class="cls-1" d="M13,16H12a1,1,0,0,1-1-1V10a3,3,0,0,1,3-3h3a3,3,0,0,1,3,3v5a1,1,0,0,1-1,1H18"/><line class="cls-1" x1="17.998" y1="10.5" x2="17.998" y2="21"/><line class="cls-1" x1="12.998" y1="21" x2="12.998" y2="10.5"/><line class="cls-1" x1="12.998" y1="14" x2="17.998" y2="14"/><line class="cls-1" x1="15.498" y1="17.5" x2="12.998" y2="15.5"/><line class="cls-1" x1="15.498" y1="17.5" x2="17.998" y2="15.5"/><line class="cls-1" x1="15.498" y1="20.5" x2="15.498" y2="17.5"/><polyline class="cls-1" points="4.348 22.732 3.502 18.502 10.502 18.502 9.727 22.374"/><path class="cls-1" d="M4.5,18.5v-1a2.5,2.5,0,0,1,5,0v1"/></svg>