<svg id="Light" xmlns="http://www.w3.org/2000/svg" viewBox="0 0 24 24"><defs><style>.cls-1{fill:none;stroke:#000;stroke-linecap:round;stroke-linejoin:round;}</style></defs><title>beach-sun-birds</title><path class="cls-1" d="M23.5,23.389c-2.5.52-4.06-1.98-4.06-1.98h0a4.4,4.4,0,0,1-3.621,2.057A4.607,4.607,0,0,1,12.2,21.409h0a4.405,4.405,0,0,1-3.621,2.057,4.607,4.607,0,0,1-3.615-2.057h0S2.953,23.951.5,23.43"/><path class="cls-1" d="M23.5,18.462c-2.5.519-4.06-1.981-4.06-1.981h0a4.4,4.4,0,0,1-3.621,2.057A4.607,4.607,0,0,1,12.2,16.481h0a4.405,4.405,0,0,1-3.621,2.057,4.607,4.607,0,0,1-3.615-2.057h0S2.953,19.023.5,18.5"/><circle class="cls-1" cx="5.5" cy="5.501" r="2"/><line class="cls-1" x1="0.5" y1="5.501" x2="1.5" y2="5.501"/><line class="cls-1" x1="9.5" y1="5.501" x2="10.5" y2="5.501"/><line class="cls-1" x1="5.5" y1="0.501" x2="5.5" y2="1.501"/><line class="cls-1" x1="5.5" y1="9.501" x2="5.5" y2="10.501"/><line class="cls-1" x1="1.964" y1="1.965" x2="2.672" y2="2.672"/><line class="cls-1" x1="8.328" y1="8.329" x2="9.036" y2="9.036"/><line class="cls-1" x1="9.036" y1="1.965" x2="8.328" y2="2.672"/><line class="cls-1" x1="2.672" y1="8.329" x2="1.964" y2="9.036"/><path class="cls-1" d="M16,2.5l1.126,1.27a.5.5,0,0,0,.748,0L19,2.5"/><path class="cls-1" d="M20,6.5l1.126,1.27a.5.5,0,0,0,.748,0L23,6.5"/><path class="cls-1" d="M13.5,10l1.126,1.27a.5.5,0,0,0,.748,0L16.5,10"/></svg>