<svg id="Light" xmlns="http://www.w3.org/2000/svg" viewBox="0 0 24 24"><defs><style>.cls-1{fill:none;stroke:#000;stroke-linecap:round;stroke-linejoin:round;}</style></defs><title>bear-body</title><path class="cls-1" d="M19.6,11a.25.25,0,0,0-.25.25"/><path class="cls-1" d="M19.847,11.25A.25.25,0,0,0,19.6,11"/><path class="cls-1" d="M19.6,11.5a.25.25,0,0,0,.25-.25"/><path class="cls-1" d="M19.347,11.25a.25.25,0,0,0,.25.25"/><path class="cls-1" d="M1.842,11.02a14.521,14.521,0,0,0-1,7.648,1,1,0,0,0,.986.832h1.69"/><path class="cls-1" d="M13.023,14.5l-.761,3.8a1,1,0,0,0,.98,1.2h.781"/><path class="cls-1" d="M5.523,4.5a3.944,3.944,0,0,0-4,4c0,5.5,5,11,5,11h4v-.719a1,1,0,0,0-.758-.97L8.523,17.5l1-3h4.5l1.748,4.372a1,1,0,0,0,.929.628h3.823v-.719a1,1,0,0,0-.758-.97L18.523,17.5l-.5-3h2.824c.911,0,1.007-.414,1.577-1.126,1.28-1.6,1.3-1.224-.9-2.874C21.523,8.3,17.427,4.5,5.523,4.5Z"/></svg>