<svg id="Light" xmlns="http://www.w3.org/2000/svg" viewBox="0 0 24 24"><defs><style>.cls-1{fill:none;stroke:#000;stroke-linecap:round;stroke-linejoin:round;}</style></defs><title>beard-style-razor</title><path class="cls-1" d="M20.984,9.2s1.36,2.257,1.719,2.913a4.526,4.526,0,0,1,.8,1.8c0,.553-.229,1-.781,1-.516,0-.887-.7-1.25-1.25-.658-1-1.264-2.133-1.264-2.133"/><path class="cls-1" d="M17.512,9.987,13,7.409l-.242.424a1,1,0,0,1-1.364.372L4.461,4.244A1,1,0,0,1,4.088,2.88L5.252.843A.5.5,0,0,1,5.934.656l12.61,7.171"/><path class="cls-1" d="M3.5,23.409a3,3,0,0,1,0-6c7.5,0,12.5-3.5,14.5-8.5.345-.955.671-1.5,1.5-1.5a1.5,1.5,0,0,1,1.5,1.5C21,12.409,13,23.409,3.5,23.409Z"/></svg>