<svg id="Light" xmlns="http://www.w3.org/2000/svg" viewBox="0 0 24 24"><defs><style>.cls-1{fill:none;stroke:#000;stroke-linecap:round;stroke-linejoin:round;}</style></defs><title>beard-style-shaving-machine</title><path class="cls-1" d="M14.453,6.484,16.3,8.69a3,3,0,0,1,.7,1.927v7.9a5.005,5.005,0,0,1-6.012,4.9A5.138,5.138,0,0,1,7,18.305V10.6A3,3,0,0,1,7.683,8.7L9.5,6.484"/><line class="cls-1" x1="12" y1="4.484" x2="12" y2="0.516"/><line class="cls-1" x1="9" y1="4.484" x2="9" y2="0.516"/><line class="cls-1" x1="15" y1="4.484" x2="15" y2="0.516"/><line class="cls-1" x1="18" y1="3.453" x2="18" y2="0.484"/><line class="cls-1" x1="6" y1="3.484" x2="6" y2="0.547"/><path class="cls-1" d="M17.228,5.8a1,1,0,0,1-.949.683H7.721A1,1,0,0,1,6.772,5.8L6,3.484H18Z"/><path class="cls-1" d="M15,22.516v-7.8a3.131,3.131,0,0,0-2.866-3.192,3,3,0,0,0-3.134,3V22.5"/><line class="cls-1" x1="9" y1="16.516" x2="15" y2="16.516"/><line class="cls-1" x1="9" y1="18.516" x2="15" y2="18.516"/></svg>