<svg id="Light" xmlns="http://www.w3.org/2000/svg" viewBox="0 0 24 24"><defs><style>.cls-1{fill:none;stroke:#000;stroke-linecap:round;stroke-linejoin:round;}</style></defs><title>bed-window</title><polyline class="cls-1" points="1.5 23.5 1.5 21.5 22.5 21.5 22.5 23.5"/><line class="cls-1" x1="2.5" y1="14.5" x2="0.5" y2="8.5"/><path class="cls-1" d="M4,14.5v-1a1.359,1.359,0,0,1,1.493-1.351l2.512.251A1.105,1.105,0,0,1,9,13.5v1"/><path class="cls-1" d="M15,.5h7a.5.5,0,0,1,.5.5V9.5a0,0,0,0,1,0,0h-8a0,0,0,0,1,0,0V1A.5.5,0,0,1,15,.5Z"/><line class="cls-1" x1="14.5" y1="6.5" x2="22.5" y2="6.5"/><line class="cls-1" x1="18.5" y1="0.5" x2="18.5" y2="9"/><line class="cls-1" x1="22.5" y1="3.5" x2="14.5" y2="3.5"/><line class="cls-1" x1="13.5" y1="9.5" x2="23.5" y2="9.5"/><path class="cls-1" d="M2.5,14.5h18a1,1,0,0,1,1,1v3a0,0,0,0,1,0,0H2.5a0,0,0,0,1,0,0v-4A0,0,0,0,1,2.5,14.5Z"/><path class="cls-1" d="M2,18.5H22a.5.5,0,0,1,.5.5v2.5a0,0,0,0,1,0,0H1.5a0,0,0,0,1,0,0V19A.5.5,0,0,1,2,18.5Z"/></svg>