<svg id="Light" xmlns="http://www.w3.org/2000/svg" viewBox="0 0 24 24"><defs><style>.cls-1{fill:none;stroke:#000;stroke-linecap:round;stroke-linejoin:round;}</style></defs><title>beer-opener-1</title><path class="cls-1" d="M4.222,22.607a2,2,0,0,1-2.829-2.829l6.364-6.364a1,1,0,0,1,1.415,0l1.414,1.414a1,1,0,0,1,0,1.415Z"/><line class="cls-1" x1="7.05" y1="14.121" x2="9.879" y2="16.95"/><line class="cls-1" x1="9.879" y1="14.121" x2="13.414" y2="10.586"/><path class="cls-1" d="M20.485,10.586a5,5,0,0,1-7.071-7.071l2.122-2.122a2,2,0,0,1,2.828,0l4.243,4.243a2,2,0,0,1,0,2.828Z"/><path class="cls-1" d="M16.885,9.107a.472.472,0,0,1-.105-.541A1,1,0,0,0,15.434,7.22a.472.472,0,0,1-.541-.1l-.772-.772a.5.5,0,0,1,0-.707l.587-.587a3.115,3.115,0,0,1,4.246-.231,3,3,0,0,1,.117,4.354l-.707.707a.5.5,0,0,1-.707,0Z"/></svg>