<svg id="Light" xmlns="http://www.w3.org/2000/svg" viewBox="0 0 24 24"><defs><style>.cls-1{fill:none;stroke:#000;stroke-linecap:round;stroke-linejoin:round;}</style></defs><title>bench</title><rect class="cls-1" x="1.5" y="2.5" width="21" height="8" rx="1" ry="1"/><line class="cls-1" x1="22.5" y1="6.5" x2="1.5" y2="6.5"/><line class="cls-1" x1="19" y1="2.5" x2="19" y2="0.5"/><line class="cls-1" x1="5" y1="2.5" x2="5" y2="0.5"/><line class="cls-1" x1="19.5" y1="14.5" x2="19.5" y2="10.5"/><line class="cls-1" x1="4.5" y1="14.5" x2="4.5" y2="10.5"/><line class="cls-1" x1="4" y1="17.5" x2="1.5" y2="23.5"/><line class="cls-1" x1="20" y1="17.5" x2="22.5" y2="23.5"/><path class="cls-1" d="M23.35,16.3,22.3,14.9a1,1,0,0,0-.8-.4H2.5a1,1,0,0,0-.8.4L.65,16.3a.75.75,0,0,0,.6,1.2h21.5a.75.75,0,0,0,.6-1.2Z"/></svg>