<svg xmlns="http://www.w3.org/2000/svg" viewBox="0 0 24 24"><defs><style>.a{fill:none;stroke:#000;stroke-linecap:round;stroke-linejoin:round;}</style></defs><title>bicycle-person</title><circle class="a" cx="6" cy="3" r="2.5"/><path class="a" d="M1.5,11.5v-1a3,3,0,0,1,3-3H6"/><path class="a" d="M10.5,11.5v-1a3,3,0,0,0-3-3H6"/><polyline class="a" points="10.5 13.5 0.5 13.5 0.5 23"/><circle class="a" cx="11" cy="20.5" r="3"/><path class="a" d="M23.5,23.5a3,3,0,0,1,0-6"/><path class="a" d="M17,20.5l3.853-5H15l-3.35,4.188a.5.5,0,0,0,.391.812H17l-2.75-7"/><path class="a" d="M23.5,20.5l-4.111-7.766A.5.5,0,0,1,19.831,12H21"/><line class="a" x1="13" y1="13.5" x2="16" y2="13.5"/></svg>