<svg id="Light" xmlns="http://www.w3.org/2000/svg" viewBox="0 0 24 24"><defs><style>.cls-1{fill:none;stroke:#000;stroke-linecap:round;stroke-linejoin:round;}</style></defs><title>bird-cage-1</title><path class="cls-1" d="M20.276,1.227c.223-.161.322-.084.221.172L18.181,6.857c4.771,10.587,5.574,12.149,3.578,14.554a4,4,0,0,1-3.078,1.446H5.32a4,4,0,0,1-3.078-1.446c-1.993-2.4-1.181-4,3.439-14.554L3.365,1.4c-.1-.256,0-.333.221-.172l3.1,2.242.712-2.062a.263.263,0,0,1,.49-.094l1.86,2.156L11.6,1.313a.421.421,0,0,1,.654,0l1.86,2.156,1.861-2.156a.263.263,0,0,1,.49.094l.712,2.062Z"/><line class="cls-1" x1="18.181" y1="6.857" x2="5.681" y2="6.857"/><path class="cls-1" d="M10.25,13.143a3,3,0,0,1,6,0,5,5,0,0,1-10,0Z"/><path class="cls-1" d="M13.75,12.393a.25.25,0,0,0-.25.25"/><path class="cls-1" d="M14,12.643a.25.25,0,0,0-.25-.25"/><path class="cls-1" d="M13.75,12.893a.25.25,0,0,0,.25-.25"/><path class="cls-1" d="M13.5,12.643a.25.25,0,0,0,.25.25"/><polyline class="cls-1" points="17.75 12.143 16.75 13.143 17.75 14.143"/><line class="cls-1" x1="11.25" y1="18.143" x2="11.25" y2="20.143"/></svg>