<svg id="Light" xmlns="http://www.w3.org/2000/svg" viewBox="0 0 24 24"><defs><style>.cls-1{fill:none;stroke:#000;stroke-linecap:round;stroke-linejoin:round;}</style></defs><title>bird</title><path class="cls-1" d="M9.25,9a.25.25,0,0,1,.25.25"/><path class="cls-1" d="M9,9.25A.25.25,0,0,1,9.25,9"/><path class="cls-1" d="M9.25,9.5A.25.25,0,0,1,9,9.25"/><path class="cls-1" d="M9.5,9.25a.25.25,0,0,1-.25.25"/><path class="cls-1" d="M14.75,9a.25.25,0,0,1,.25.25"/><path class="cls-1" d="M14.5,9.25A.25.25,0,0,1,14.75,9"/><path class="cls-1" d="M14.75,9.5a.25.25,0,0,1-.25-.25"/><path class="cls-1" d="M15,9.25a.25.25,0,0,1-.25.25"/><path class="cls-1" d="M11.68,16.116a.4.4,0,0,0,.64,0l1.86-2.232a.416.416,0,0,0-.109-.641l-1.641-.986a.923.923,0,0,0-.858,0l-1.641.985a.416.416,0,0,0-.109.641Z"/><circle class="cls-1" cx="12" cy="11" r="7.5"/><path class="cls-1" d="M5.059,8.154,2.805,6.936A1.5,1.5,0,1,0,1.37,9.57l.439.239a2,2,0,0,0,.8,2.713l2.45,1.324"/><path class="cls-1" d="M18.944,8.161,21.2,6.936A1.5,1.5,0,1,1,22.63,9.57l-.439.239a2,2,0,0,1-.8,2.713L18.944,13.84"/><line class="cls-1" x1="10.169" y1="18.275" x2="8.5" y2="20.5"/><line class="cls-1" x1="13.831" y1="18.275" x2="15.5" y2="20.5"/></svg>