<svg id="Light" xmlns="http://www.w3.org/2000/svg" viewBox="0 0 24 24"><defs><style>.cls-1{fill:none;stroke:#000;stroke-linecap:round;stroke-linejoin:round;}</style></defs><title>blazer</title><path class="cls-1" d="M16.144,1.548,20.5,3l-2,7L19,22.981a.5.5,0,0,1-.5.519H14.243a.5.5,0,0,1-.4-.2L11.2,19.766a1,1,0,0,1-.2-.6V14.414a1,1,0,0,1,.293-.707L12,13"/><path class="cls-1" d="M14.5.5C14.166,4.5,13.666,9,12,13,10.332,9,9.832,4.5,9.5.5"/><path class="cls-1" d="M9.5.5A5.252,5.252,0,0,0,6.7,3.09a.5.5,0,0,0,.162.653L8,4.5,7.17,5.743a.5.5,0,0,0-.017.526A32.419,32.419,0,0,0,12,13a32.46,32.46,0,0,0,4.847-6.731.5.5,0,0,0-.018-.526L16,4.5l1.136-.757A.5.5,0,0,0,17.3,3.09,5.257,5.257,0,0,0,14.5.5Z"/><path class="cls-1" d="M13.5,15.25a.25.25,0,1,1-.25-.25.25.25,0,0,1,.25.25"/><path class="cls-1" d="M13.492,18.25a.25.25,0,1,1-.25-.25.249.249,0,0,1,.25.25"/><path class="cls-1" d="M20.5,3c1.572,6.808,2.925,13.135,3,18.994a.5.5,0,0,1-.5.506h-1.59a.5.5,0,0,1-.49-.4L18.5,10"/><path class="cls-1" d="M7.854,1.548,3.5,3l2,7L5,22.981a.5.5,0,0,0,.5.519H9.755a.5.5,0,0,0,.4-.2L12,20.836"/><path class="cls-1" d="M3.5,3C1.927,9.808.574,16.135.5,21.994A.5.5,0,0,0,1,22.5h1.59a.5.5,0,0,0,.49-.4L5.5,10"/></svg>