<svg xmlns="http://www.w3.org/2000/svg" viewBox="0 0 24 24"><defs><style>.a{fill:none;stroke:#000;stroke-linecap:round;stroke-linejoin:round;fill-rule:evenodd;}</style></defs><title>blog-blogger</title><path class="a" d="M22.914,9.433c-.424-.332-2.568.022-3.145-.5-.411-.378-.474-1.057-.6-1.974a5.7,5.7,0,0,0-.654-2.477A8.028,8.028,0,0,0,12.887.5h-5.1A7.313,7.313,0,0,0,.5,7.8v8.51a7.307,7.307,0,0,0,7.288,7.281h8.376a7.323,7.323,0,0,0,7.291-7.281L23.5,10.41C23.351,9.7,23.278,9.718,22.914,9.433Z"/><path class="a" d="M6.5,8A1.5,1.5,0,0,0,8,9.5h4a1.5,1.5,0,0,0,0-3H8A1.5,1.5,0,0,0,6.5,8Z"/><path class="a" d="M6.5,16A1.5,1.5,0,0,0,8,17.5h8a1.5,1.5,0,0,0,0-3H8A1.5,1.5,0,0,0,6.5,16Z"/></svg>