<svg id="Light" xmlns="http://www.w3.org/2000/svg" viewBox="0 0 24 24"><defs><style>.cls-1{fill:none;stroke:#000;stroke-linecap:round;stroke-linejoin:round;}</style></defs><title>blood-drop-type-ab</title><path class="cls-1" d="M13,10V5.49a1.5,1.5,0,0,1,3,0V10"/><line class="cls-1" x1="13" y1="7" x2="16" y2="7"/><path class="cls-1" d="M8,20.521a4.5,4.5,0,0,1-3.176-1.3"/><path class="cls-1" d="M9.634,2.756c-.5-.842-.917-1.54-1.207-2.017a.5.5,0,0,0-.854,0C5.984,3.343.5,12.534.5,16.052a7.5,7.5,0,0,0,15,0,4.669,4.669,0,0,0-.058-.7"/><circle class="cls-1" cx="17" cy="7" r="6.5"/><path class="cls-1" d="M19.5,7a1.5,1.5,0,0,0,0-3H18v6h1.5a1.5,1.5,0,0,0,0-3Z"/><line class="cls-1" x1="18" y1="7" x2="19.5" y2="7"/></svg>