<svg id="Light" xmlns="http://www.w3.org/2000/svg" viewBox="0 0 24 24"><defs><style>.cls-1{fill:none;stroke:#000;stroke-linecap:round;stroke-linejoin:round;}</style></defs><title>blood-drop-elements</title><g id="_Group_" data-name="&lt;Group&gt;"><circle class="cls-1" cx="14.395" cy="14.405" r="6.367"/><line class="cls-1" x1="23.49" y1="23.5" x2="18.897" y2="18.907"/></g><path class="cls-1" d="M12.76,11.019a.25.25,0,0,1,.25.25"/><path class="cls-1" d="M12.51,11.269a.249.249,0,0,1,.25-.25"/><path class="cls-1" d="M12.76,11.519a.249.249,0,0,1-.25-.25"/><path class="cls-1" d="M13.01,11.269a.25.25,0,0,1-.25.25"/><path class="cls-1" d="M10.76,14.519a.25.25,0,0,1,.25.25"/><path class="cls-1" d="M10.51,14.769a.249.249,0,0,1,.25-.25"/><path class="cls-1" d="M10.76,15.019a.249.249,0,0,1-.25-.25"/><path class="cls-1" d="M11.01,14.769a.25.25,0,0,1-.25.25"/><path class="cls-1" d="M13.26,17.519a.25.25,0,0,1,.25.25"/><path class="cls-1" d="M13.01,17.769a.249.249,0,0,1,.25-.25"/><path class="cls-1" d="M13.26,18.019a.249.249,0,0,1-.25-.25"/><path class="cls-1" d="M13.51,17.769a.25.25,0,0,1-.25.25"/><path class="cls-1" d="M14.76,14.019a.25.25,0,0,1,.25.25"/><path class="cls-1" d="M14.51,14.269a.249.249,0,0,1,.25-.25"/><path class="cls-1" d="M14.76,14.519a.249.249,0,0,1-.25-.25"/><path class="cls-1" d="M15.01,14.269a.25.25,0,0,1-.25.25"/><path class="cls-1" d="M17.76,16.519a.25.25,0,0,1,.25.25"/><path class="cls-1" d="M17.51,16.769a.249.249,0,0,1,.25-.25"/><path class="cls-1" d="M17.76,17.019a.249.249,0,0,1-.25-.25"/><path class="cls-1" d="M18.01,16.769a.25.25,0,0,1-.25.25"/><path class="cls-1" d="M17.26,12.019a.25.25,0,0,1,.25.25"/><path class="cls-1" d="M17.01,12.269a.249.249,0,0,1,.25-.25"/><path class="cls-1" d="M17.26,12.519a.249.249,0,0,1-.25-.25"/><path class="cls-1" d="M17.51,12.269a.25.25,0,0,1-.25.25"/><path class="cls-1" d="M8.01,20.521a4.5,4.5,0,0,1-3.177-1.3"/><path class="cls-1" d="M11.715,6.43C10.4,3.988,9.089,1.808,8.436.74a.5.5,0,0,0-.853,0C5.993,3.344.51,12.534.51,16.052a7.511,7.511,0,0,0,11.368,6.382"/></svg>