<svg id="Light" xmlns="http://www.w3.org/2000/svg" viewBox="0 0 24 24"><defs><style>.cls-1{fill:none;stroke:#000;stroke-linecap:round;stroke-linejoin:round;}</style></defs><title>board-game-ludo</title><rect class="cls-1" x="1" y="1" width="22" height="22" rx="1" ry="1"/><line class="cls-1" x1="12" y1="1" x2="12" y2="23"/><line class="cls-1" x1="1" y1="12" x2="23" y2="12"/><circle class="cls-1" cx="17.5" cy="6.5" r="3.5"/><circle class="cls-1" cx="6.5" cy="17.5" r="3.5"/><path class="cls-1" d="M8.975,8.975a3.5,3.5,0,1,1,0-4.95A3.5,3.5,0,0,1,8.975,8.975Z"/><line class="cls-1" x1="8.091" y1="3.382" x2="3.382" y2="8.091"/><line class="cls-1" x1="9.621" y1="4.914" x2="4.915" y2="9.621"/><path class="cls-1" d="M19.977,19.975a3.5,3.5,0,1,1,0-4.95A3.5,3.5,0,0,1,19.977,19.975Z"/><line class="cls-1" x1="19.094" y1="14.382" x2="14.384" y2="19.091"/><line class="cls-1" x1="20.624" y1="15.914" x2="15.918" y2="20.621"/></svg>