<svg id="Light" xmlns="http://www.w3.org/2000/svg" viewBox="0 0 24 24"><defs><style>.cls-1{fill:none;stroke:#000;stroke-linecap:round;stroke-linejoin:round;}</style></defs><title>board-game-jenga</title><rect class="cls-1" x="0.583" y="18" width="4" height="4" rx="1" ry="1"/><rect class="cls-1" x="9.583" y="18" width="5" height="4" rx="1" ry="1"/><rect class="cls-1" x="4.583" y="10" width="5" height="4" rx="1" ry="1"/><rect class="cls-1" x="4.583" y="2" width="5" height="4" rx="1" ry="1"/><rect class="cls-1" x="9.583" y="2" width="5" height="4" rx="1" ry="1"/><rect class="cls-1" x="0.583" y="14" width="14" height="4" rx="1" ry="1"/><path class="cls-1" d="M14.583,9.66V7a1,1,0,0,0-1-1h-12a1,1,0,0,0-1,1V9a1,1,0,0,0,1,1h12.5"/><path class="cls-1" d="M23.011,20.22a1,1,0,0,0,.211-1.4L16.4,9.565A1,1,0,0,0,15,9.354l-1.61,1.187a1,1,0,0,0-.211,1.4L20,21.2a1,1,0,0,0,1.4.211Z"/></svg>