<svg id="Light" xmlns="http://www.w3.org/2000/svg" viewBox="0 0 24 24"><defs><style>.cls-1{fill:none;stroke:#000;stroke-linecap:round;stroke-linejoin:round;}</style></defs><title>board-game-dice</title><rect class="cls-1" x="0.5" y="0.5" width="23" height="23" rx="1" ry="1"/><rect class="cls-1" x="5" y="5" width="14" height="14"/><path class="cls-1" d="M1.5.5H5a0,0,0,0,1,0,0V5A0,0,0,0,1,5,5H.5a0,0,0,0,1,0,0V1.5A1,1,0,0,1,1.5.5Z"/><path class="cls-1" d="M19,.5h3.5a1,1,0,0,1,1,1V5a0,0,0,0,1,0,0H19a0,0,0,0,1,0,0V.5A0,0,0,0,1,19,.5Z"/><path class="cls-1" d="M.5,19H5a0,0,0,0,1,0,0v4.5a0,0,0,0,1,0,0H1.5a1,1,0,0,1-1-1V19A0,0,0,0,1,.5,19Z"/><path class="cls-1" d="M19,19h4.5a0,0,0,0,1,0,0v3.5a1,1,0,0,1-1,1H19a0,0,0,0,1,0,0V19A0,0,0,0,1,19,19Z"/><line class="cls-1" x1="0.5" y1="8.5" x2="5" y2="8.5"/><line class="cls-1" x1="0.5" y1="12" x2="5" y2="12"/><line class="cls-1" x1="0.5" y1="15.5" x2="5" y2="15.5"/><line class="cls-1" x1="19" y1="8.5" x2="23.5" y2="8.5"/><line class="cls-1" x1="19" y1="12" x2="23.5" y2="12"/><line class="cls-1" x1="19" y1="15.5" x2="23.5" y2="15.5"/><line class="cls-1" x1="8.5" y1="0.5" x2="8.5" y2="5"/><line class="cls-1" x1="12" y1="0.5" x2="12" y2="5"/><line class="cls-1" x1="15.5" y1="0.5" x2="15.5" y2="5"/><line class="cls-1" x1="8.5" y1="19" x2="8.5" y2="23.5"/><line class="cls-1" x1="12" y1="19" x2="12" y2="23.5"/><line class="cls-1" x1="15.5" y1="19" x2="15.5" y2="23.5"/><rect class="cls-1" x="12.732" y="8.732" width="3" height="2" rx="0.5" ry="0.5" transform="translate(11.05 -7.213) rotate(45)"/><rect class="cls-1" x="8.268" y="13.268" width="3" height="2" rx="0.5" ry="0.5" transform="translate(12.95 -2.728) rotate(45)"/></svg>