<svg id="Light" xmlns="http://www.w3.org/2000/svg" viewBox="0 0 24 24"><defs><style>.cls-1{fill:none;stroke:#000;stroke-linecap:round;stroke-linejoin:round;}</style></defs><title>board-game-dice-2</title><rect class="cls-1" x="0.5" y="8.5" width="14" height="14" rx="1" ry="1"/><path class="cls-1" d="M16.5,15.5h6a1,1,0,0,0,1-1V2.5a1,1,0,0,0-1-1h-12a1,1,0,0,0-1,1v4"/><path class="cls-1" d="M19,11.75a.25.25,0,0,1,.25.25"/><path class="cls-1" d="M18.75,12a.25.25,0,0,1,.25-.25"/><path class="cls-1" d="M19,12.25a.25.25,0,0,1-.25-.25"/><path class="cls-1" d="M19.25,12a.25.25,0,0,1-.25.25"/><path class="cls-1" d="M19,4.75a.25.25,0,0,1,.25.25"/><path class="cls-1" d="M18.75,5A.25.25,0,0,1,19,4.75"/><path class="cls-1" d="M19,5.25A.25.25,0,0,1,18.75,5"/><path class="cls-1" d="M19.25,5a.25.25,0,0,1-.25.25"/><path class="cls-1" d="M14,4.75a.25.25,0,0,1,.25.25"/><path class="cls-1" d="M13.75,5A.25.25,0,0,1,14,4.75"/><path class="cls-1" d="M14,5.25A.25.25,0,0,1,13.75,5"/><path class="cls-1" d="M14.25,5a.25.25,0,0,1-.25.25"/><path class="cls-1" d="M11,12.75a.25.25,0,0,1,.25.25"/><path class="cls-1" d="M10.75,13a.25.25,0,0,1,.25-.25"/><path class="cls-1" d="M11,13.25a.25.25,0,0,1-.25-.25"/><path class="cls-1" d="M11.25,13a.25.25,0,0,1-.25.25"/><path class="cls-1" d="M7.5,12.75a.25.25,0,0,1,.25.25"/><path class="cls-1" d="M7.25,13a.25.25,0,0,1,.25-.25"/><path class="cls-1" d="M7.5,13.25A.25.25,0,0,1,7.25,13"/><path class="cls-1" d="M7.75,13a.25.25,0,0,1-.25.25"/><path class="cls-1" d="M4,12.75a.25.25,0,0,1,.25.25"/><path class="cls-1" d="M3.75,13A.25.25,0,0,1,4,12.75"/><path class="cls-1" d="M4,13.25A.25.25,0,0,1,3.75,13"/><path class="cls-1" d="M4.25,13a.25.25,0,0,1-.25.25"/><path class="cls-1" d="M4,17.75a.25.25,0,0,1,.25.25"/><path class="cls-1" d="M3.75,18A.25.25,0,0,1,4,17.75"/><path class="cls-1" d="M4,18.25A.25.25,0,0,1,3.75,18"/><path class="cls-1" d="M4.25,18a.25.25,0,0,1-.25.25"/><path class="cls-1" d="M7.5,17.75a.25.25,0,0,1,.25.25"/><path class="cls-1" d="M7.25,18a.25.25,0,0,1,.25-.25"/><path class="cls-1" d="M7.5,18.25A.25.25,0,0,1,7.25,18"/><path class="cls-1" d="M7.75,18a.25.25,0,0,1-.25.25"/><path class="cls-1" d="M11,17.75a.25.25,0,0,1,.25.25"/><path class="cls-1" d="M10.75,18a.25.25,0,0,1,.25-.25"/><path class="cls-1" d="M11,18.25a.25.25,0,0,1-.25-.25"/><path class="cls-1" d="M11.25,18a.25.25,0,0,1-.25.25"/></svg>