<svg id="Light" xmlns="http://www.w3.org/2000/svg" viewBox="0 0 24 24"><defs><style>.cls-1{fill:none;stroke:#000;stroke-linecap:round;stroke-linejoin:round;}</style></defs><title>body-care-toothbrush</title><path class="cls-1" d="M1.674,22.577,9.72,14.529a3,3,0,0,1,1.017-.667l3.529-1.4a3,3,0,0,0,1.017-.667L16.877,10.2"/><path class="cls-1" d="M18.291,1.716a1,1,0,0,1,1.414,0L22.18,4.192a.5.5,0,0,1,0,.707l-5.3,5.3-2.829-2.83a1,1,0,0,1,0-1.414Z"/><line class="cls-1" x1="17.592" y1="2.415" x2="19.705" y2="4.545"/><line class="cls-1" x1="16.186" y1="3.823" x2="18.291" y2="5.959"/><line class="cls-1" x1="14.769" y1="5.24" x2="16.877" y2="7.373"/></svg>