<svg id="Light" xmlns="http://www.w3.org/2000/svg" viewBox="0 0 24 24"><defs><style>.cls-1{fill:none;stroke:#000;stroke-linecap:round;stroke-linejoin:round;}</style></defs><title>body-care-sun-lotion</title><path class="cls-1" d="M13.442,4.813A4,4,0,1,1,15,12.5"/><line class="cls-1" x1="15.5" y1="0.5" x2="15.5" y2="2"/><line class="cls-1" x1="21.011" y1="2.989" x2="19.596" y2="4.403"/><line class="cls-1" x1="23.5" y1="8.5" x2="21.5" y2="8.5"/><line class="cls-1" x1="21.011" y1="14.5" x2="19.596" y2="13.086"/><line class="cls-1" x1="15.5" y1="16.5" x2="15.5" y2="15"/><path class="cls-1" d="M8.5,7.5,7.626,5.314A.5.5,0,0,0,7.161,5H5.839a.5.5,0,0,0-.465.314L4.5,7.5"/><line class="cls-1" x1="6.5" y1="1.5" x2="6.5" y2="5"/><path class="cls-1" d="M10,1.5H3.471a1,1,0,0,0-.771.364L.937,4"/><rect class="cls-1" x="2.5" y="13.5" width="8" height="5" rx="0.5" ry="0.5"/><path class="cls-1" d="M2.5,7.5h8a2,2,0,0,1,2,2v12a2,2,0,0,1-2,2h-8a2,2,0,0,1-2-2V9.5A2,2,0,0,1,2.5,7.5Z"/></svg>