<svg xmlns="http://www.w3.org/2000/svg" viewBox="0 0 24 24"><defs><style>.a{fill:none;stroke:#000;stroke-linecap:round;stroke-linejoin:round;}</style></defs><title>bomb-rocket</title><path class="a" d="M14.831,14.749,19.5,5.081l-.5-.072L18.919,4.5,9.251,9.169a12.134,12.134,0,0,0-3.3,2.345L1.854,15.608a4.623,4.623,0,1,0,6.538,6.538l4.094-4.094A12.134,12.134,0,0,0,14.831,14.749Z"/><path class="a" d="M12.857,7.429l.9-2.687a2.035,2.035,0,0,1,.5-.8L17.539.65a.513.513,0,0,1,.871.291L18.919,4.5"/><path class="a" d="M16.571,11.143l2.687-.9a2.035,2.035,0,0,0,.8-.5l3.29-3.289a.513.513,0,0,0-.291-.871L19.5,5.081"/><line class="a" x1="10.274" y1="20.264" x2="3.737" y2="13.726"/><line class="a" x1="5.916" y1="11.546" x2="12.453" y2="18.084"/><line class="a" x1="7.206" y1="23.006" x2="0.994" y2="16.795"/></svg>