<svg xmlns="http://www.w3.org/2000/svg" viewBox="0 0 24 24"><defs><style>.a{fill:none;stroke:#000;stroke-linecap:round;stroke-linejoin:round;}</style></defs><title>bomb-fire-bottle</title><path class="a" d="M13.67,12.109c.712-.714,2.761-2.762,2.761-2.762L14.293,7.209,11.531,9.972c-.711.71-4.631.355-6.055,1.779L.555,16.673c-.713.713,5.7,7.125,6.412,6.412l4.922-4.921C13.313,16.74,12.957,12.82,13.67,12.109Z"/><line class="a" x1="12.866" y1="8.636" x2="15.012" y2="10.766"/><line class="a" x1="5.045" y1="12.182" x2="11.442" y2="18.612"/><line class="a" x1="2.179" y1="15.048" x2="8.6" y2="21.453"/><path class="a" d="M23.272,1.043a.252.252,0,0,0-.485,0,3.6,3.6,0,0,1-2.755,2.482,2.319,2.319,0,0,1,.293-1.295.252.252,0,0,0-.1-.367,3.17,3.17,0,0,0-3.5.376,3.523,3.523,0,0,0,4.436,5.475A6.479,6.479,0,0,0,23.272,1.043Z"/><line class="a" x1="17.865" y1="5.65" x2="15.306" y2="8.223"/></svg>