<svg xmlns="http://www.w3.org/2000/svg" viewBox="0 0 24 24"><defs><style>.a{fill:none;stroke:#000;stroke-linecap:round;stroke-linejoin:round;}</style></defs><title>bomb-rocket-1</title><path class="a" d="M4.5,1A.5.5,0,0,1,5.32.616l2,1.667a.5.5,0,0,1,.18.384V9L5.22,7.1A2,2,0,0,1,4.5,5.563Z"/><path class="a" d="M19.5,1a.5.5,0,0,0-.82-.384l-2,1.667a.5.5,0,0,0-.18.384V9l2.28-1.9a2,2,0,0,0,.72-1.537Z"/><line class="a" x1="12" y1="0.5" x2="12" y2="10"/><path class="a" d="M12,3.5c-3.5,0-4.5,2-4.5,2V18.667c0,1.963,2.774,3.926,3.966,4.679a1,1,0,0,0,1.069,0c1.192-.753,3.965-2.715,3.965-4.678V5.5S15.5,3.5,12,3.5Z"/><path class="a" d="M14.934,21.49a9.029,9.029,0,0,0-5.868,0"/></svg>