<svg id="Light" xmlns="http://www.w3.org/2000/svg" viewBox="0 0 24 24"><defs><style>.cls-1{fill:none;stroke:#000;stroke-linecap:round;stroke-linejoin:round;}</style></defs><title>boxing-head-guard</title><path class="cls-1" d="M2.5,6.35A4.007,4.007,0,0,1,4.773,2.74a15.912,15.912,0,0,1,14.463,0A4.006,4.006,0,0,1,21.5,6.343V17a6,6,0,0,1-6,6h-7a6,6,0,0,1-6-6Z"/><path class="cls-1" d="M5.5,9.5A.5.5,0,0,1,6,9H18a.5.5,0,0,1,.5.5v1.182a3.975,3.975,0,0,1-1.377,3.007c-3.58,3.089-.133,4.187.867,4.949A1,1,0,0,1,17.059,20H6.958a1,1,0,0,1-.934-1.359c1-.77,4.436-1.869.856-4.938a3.947,3.947,0,0,1-1.38-3Z"/><rect class="cls-1" x="7.5" y="4" width="9" height="3" rx="0.5" ry="0.5"/><line class="cls-1" x1="9.5" y1="11" x2="9.5" y2="13"/><line class="cls-1" x1="14.5" y1="11" x2="14.5" y2="13"/><line class="cls-1" x1="10.5" y1="17" x2="13.5" y2="17"/></svg>