<svg id="Light" xmlns="http://www.w3.org/2000/svg" viewBox="0 0 24 24"><defs><style>.cls-1{fill:none;stroke:#000;stroke-linecap:round;stroke-linejoin:round;}</style></defs><title>boxing-bag-small</title><path class="cls-1" d="M13,8.5c1.745,1.624,5,4.055,5,8a6,6,0,0,1-12,0c0-3.945,3.255-6.376,5-8"/><path class="cls-1" d="M11,22.421A7.71,7.71,0,0,1,9,16.81,15.937,15.937,0,0,1,11.5,8.5"/><path class="cls-1" d="M13,22.421a7.71,7.71,0,0,0,2-5.611A15.937,15.937,0,0,0,12.5,8.5"/><path class="cls-1" d="M14,1.5a2,2,0,0,1-4,0"/><line class="cls-1" x1="12" y1="3.5" x2="12" y2="6.5"/><path class="cls-1" d="M11.5,6.5h1A.5.5,0,0,1,13,7V8.5a0,0,0,0,1,0,0H11a0,0,0,0,1,0,0V7A.5.5,0,0,1,11.5,6.5Z"/><line class="cls-1" x1="7.5" y1="1.5" x2="16.5" y2="1.5"/></svg>