<svg id="Light" xmlns="http://www.w3.org/2000/svg" viewBox="0 0 24 24"><defs><style>.cls-1{fill:none;stroke:#000;stroke-linecap:round;stroke-linejoin:round;}</style></defs><title>boxing-boxer</title><circle class="cls-1" cx="12.751" cy="3" r="2.5"/><path class="cls-1" d="M15.75,10.5v-3h2.663a2.837,2.837,0,0,1,2.837,2.837,2.163,2.163,0,0,1-4.1.967l-.4-.8Z"/><line class="cls-1" x1="16.75" y1="10.5" x2="18.75" y2="10.5"/><path class="cls-1" d="M15.75,7.5h-6a1.5,1.5,0,0,0-1.382.916l-5.5,13a1.5,1.5,0,0,0,2.764,1.168L7.61,17.909l2.154.784A1.5,1.5,0,0,1,10.75,20.1V22a1.5,1.5,0,0,0,3,0V20.1a4.511,4.511,0,0,0-2.962-4.229L8.78,15.142,10.744,10.5H15.75"/></svg>