<svg xmlns="http://www.w3.org/2000/svg" viewBox="0 0 24 24"><defs><style>.a{fill:none;stroke:#000;stroke-linecap:round;stroke-linejoin:round;}</style></defs><title>breakup-couple-man-woman-1</title><circle class="a" cx="5.437" cy="12.5" r="3"/><path class="a" d="M2.852,10.977A4.986,4.986,0,0,0,8.41,12.094"/><path class="a" d="M1.437,23.5V21a4,4,0,0,1,8,0v2.5"/><circle class="a" cx="18.437" cy="12.5" r="3"/><path class="a" d="M15.487,12.994a3.97,3.97,0,0,0,2.95-1.374,3.974,3.974,0,0,0,2.951,1.374"/><path class="a" d="M22.438,23.5,21.5,19.436a3.143,3.143,0,0,0-6.125,0L14.437,23.5"/><path class="a" d="M16.533,17.643l1.9,2.857,1.9-2.856"/><path class="a" d="M12.937,2.635V8.92a.249.249,0,0,0,.4.2c1.251-.98,4.511-3.74,4.511-5.9C17.848.232,13.985-.756,12.937,2.635Z"/><path class="a" d="M10.937,2.635V8.92a.248.248,0,0,1-.4.2c-1.251-.98-4.511-3.74-4.511-5.9C6.027.232,9.89-.756,10.937,2.635Z"/></svg>