<svg id="Light" xmlns="http://www.w3.org/2000/svg" viewBox="0 0 24 24"><defs><style>.cls-1{fill:none;stroke:#000;stroke-linecap:round;stroke-linejoin:round;}</style></defs><title>bread-slice</title><path class="cls-1" d="M4,7.244a3,3,0,0,0-.5,1.664V22.5a1,1,0,0,0,1,1h15a1,1,0,0,0,1-1V8.908A3,3,0,0,0,20,7.244L19.5,6.5a3,3,0,0,0,0-6H4.5a3,3,0,0,0,0,6Z"/><line class="cls-1" x1="6.901" y1="13.401" x2="11.401" y2="8.901"/><line class="cls-1" x1="8.288" y1="17.672" x2="15.712" y2="10.247"/><line class="cls-1" x1="12.559" y1="19.059" x2="17.059" y2="14.559"/></svg>