<svg id="Light" xmlns="http://www.w3.org/2000/svg" viewBox="0 0 24 24"><defs><style>.cls-1{fill:none;stroke:#000;stroke-linecap:round;stroke-linejoin:round;}</style></defs><title>breakfast-croissant-2</title><path class="cls-1" d="M10.048,14.038A5,5,0,0,0,5.5,19.018v2a1,1,0,0,1-.622.925C3.883,22.35.5,19.235.5,15.018a11.494,11.494,0,0,1,5.48-9.8"/><path class="cls-1" d="M18.281,4.653l-4.513,9.784a1,1,0,0,1-.908.581H11.14a1,1,0,0,1-.908-.581L5.719,4.653a1.012,1.012,0,0,1,.494-1.334,13.521,13.521,0,0,1,11.574,0A1.012,1.012,0,0,1,18.281,4.653Z"/><path class="cls-1" d="M18.02,5.218a11.494,11.494,0,0,1,5.48,9.8c0,4.151-3.321,7.357-4.378,6.925a1,1,0,0,1-.622-.925v-2a5,5,0,0,0-4.548-4.98"/><line class="cls-1" x1="1.314" y1="10.761" x2="6.743" y2="15.718"/><line class="cls-1" x1="22.686" y1="10.761" x2="17.257" y2="15.718"/></svg>