<svg id="Light" xmlns="http://www.w3.org/2000/svg" viewBox="0 0 24 24"><defs><style>.cls-1{fill:none;stroke:#000;stroke-linecap:round;stroke-linejoin:round;}</style></defs><title>breakfast-cereal-bowl-spoon</title><line class="cls-1" x1="9.331" y1="11.524" x2="10" y2="12.193"/><line class="cls-1" x1="6.578" y1="12.565" x2="7.248" y2="11.896"/><path class="cls-1" d="M17.476,13.667a3.47,3.47,0,0,0-.4-2.8L20.9,2.135A1.167,1.167,0,0,0,18.765,1.2L14.937,9.934a3.666,3.666,0,0,0-2.689,2.26,4.483,4.483,0,0,0-.308,1.019"/><path class="cls-1" d="M16.284,6.859A24.96,24.96,0,0,0,12,6.5C5.649,6.5.5,8.739.5,11.5s5.149,5,11.5,5,11.5-2.239,11.5-5c0-1.7-1.94-3.193-4.907-4.1"/><path class="cls-1" d="M.5,11.5v1A11.259,11.259,0,0,0,12,23.5a11.259,11.259,0,0,0,11.5-11v-1"/><path class="cls-1" d="M12,9.5c-4.694,0-9,1.791-9,4a2.137,2.137,0,0,0,.621,1.424"/><path class="cls-1" d="M20.379,14.924A2.137,2.137,0,0,0,21,13.5a2.78,2.78,0,0,0-1.485-2.155"/></svg>