<svg id="Light" xmlns="http://www.w3.org/2000/svg" viewBox="0 0 24 24"><defs><style>.cls-1{fill:none;stroke:#000;stroke-linecap:round;stroke-linejoin:round;}</style></defs><title>breakfast-cereal-bowl</title><line class="cls-1" x1="10.955" y1="10.328" x2="11.627" y2="11"/><line class="cls-1" x1="8.341" y1="9.805" x2="9.013" y2="9.133"/><line class="cls-1" x1="13.494" y1="8.386" x2="14.166" y2="9.058"/><line class="cls-1" x1="15.51" y1="10.851" x2="16.182" y2="10.179"/><path class="cls-1" d="M.5,8.5v1A11.259,11.259,0,0,0,12,20.5a11.259,11.259,0,0,0,11.5-11v-1"/><path class="cls-1" d="M20.379,11.924A2.137,2.137,0,0,0,21,10.5c0-2.209-4.306-4-9-4s-9,1.791-9,4a2.137,2.137,0,0,0,.621,1.424"/><ellipse class="cls-1" cx="12" cy="8.5" rx="11.5" ry="5"/></svg>