<svg id="Light" xmlns="http://www.w3.org/2000/svg" viewBox="0 0 24 24"><defs><style>.cls-1{fill:none;stroke:#000;stroke-linecap:round;stroke-linejoin:round;}</style></defs><title>bread-wheat</title><line class="cls-1" x1="17.5" y1="0.5" x2="17.5" y2="23.5"/><path class="cls-1" d="M17.5,6.5a6,6,0,0,1,6-6A6,6,0,0,1,17.5,6.5Z"/><path class="cls-1" d="M17.5,13a6,6,0,0,1,6-6A6,6,0,0,1,17.5,13Z"/><path class="cls-1" d="M17.5,19.5a6,6,0,0,1,6-6A6,6,0,0,1,17.5,19.5Z"/><path class="cls-1" d="M17.5,6.5a6,6,0,0,1,6-6A6,6,0,0,1,17.5,6.5Z"/><path class="cls-1" d="M17.5,13a6,6,0,0,1,6-6A6,6,0,0,1,17.5,13Z"/><path class="cls-1" d="M17.5,19.5a6,6,0,0,1,6-6A6,6,0,0,1,17.5,19.5Z"/><path class="cls-1" d="M17.5,6.5a6,6,0,0,0-6-6A6,6,0,0,0,17.5,6.5Z"/><path class="cls-1" d="M17.5,13a6,6,0,0,0-6-6A6,6,0,0,0,17.5,13Z"/><path class="cls-1" d="M17.5,19.5a6,6,0,0,0-6-6A6,6,0,0,0,17.5,19.5Z"/><line class="cls-1" x1="6.5" y1="0.5" x2="6.5" y2="23.5"/><path class="cls-1" d="M10.5,17.972a5.977,5.977,0,0,1-4,1.528h0a6,6,0,0,1,3-5.2"/><path class="cls-1" d="M10.5,11.472A5.977,5.977,0,0,1,6.5,13h0a6,6,0,0,1,3-5.2"/><path class="cls-1" d="M10.5,4.972A5.977,5.977,0,0,1,6.5,6.5h0a6,6,0,0,1,3-5.2"/><path class="cls-1" d="M6.5,6.5a6,6,0,0,0-6-6A6,6,0,0,0,6.5,6.5Z"/><path class="cls-1" d="M6.5,13a6,6,0,0,0-6-6A6,6,0,0,0,6.5,13Z"/><path class="cls-1" d="M6.5,19.5a6,6,0,0,0-6-6A6,6,0,0,0,6.5,19.5Z"/></svg>