<svg xmlns="http://www.w3.org/2000/svg" viewBox="0 0 24 24"><defs><style>.a{fill:none;stroke:#000;stroke-linecap:round;stroke-linejoin:round;}</style></defs><title>breakup-heart-skull</title><path class="a" d="M12.359,21.848a.5.5,0,0,1-.718,0L2.2,12.126A5.669,5.669,0,0,1,1.112,5.519h0A5.84,5.84,0,0,1,10.4,4.032L12,5.49l1.6-1.458a5.839,5.839,0,0,1,9.287,1.487h0A5.67,5.67,0,0,1,21.8,12.126Z"/><path class="a" d="M16,11.854a4,4,0,0,0-8,0c0,.168-.02,1.337,0,1.5.181,1.462.171,2.127,1.5,2.375v.625a1,1,0,0,0,1,1h3a1,1,0,0,0,1-1v-.625c1.328-.249,1.317-.915,1.5-2.375C16.021,13.189,16,12.024,16,11.854Z"/><path class="a" d="M10.5,12.6a.25.25,0,0,1,.25.25"/><path class="a" d="M10.25,12.854a.25.25,0,0,1,.25-.25"/><path class="a" d="M10.5,13.1a.25.25,0,0,1-.25-.25"/><path class="a" d="M10.75,12.854a.25.25,0,0,1-.25.25"/><path class="a" d="M13.5,12.6a.25.25,0,0,1,.25.25"/><path class="a" d="M13.25,12.854a.25.25,0,0,1,.25-.25"/><path class="a" d="M13.5,13.1a.25.25,0,0,1-.25-.25"/><path class="a" d="M13.75,12.854a.25.25,0,0,1-.25.25"/></svg>