<svg xmlns="http://www.w3.org/2000/svg" viewBox="0 0 24 24"><defs><style>.a{fill:none;stroke:#000;stroke-linecap:round;stroke-linejoin:round;}</style></defs><title>bridge-1</title><path class="a" d="M12,.5C5.783.5,4.376,4.967,2.083,7.919"/><path class="a" d="M12,.5c6.217,0,7.624,4.467,9.917,7.419"/><line class="a" x1="5.501" y1="3.176" x2="5.501" y2="9.5"/><line class="a" x1="9.501" y1="0.783" x2="9.501" y2="9.5"/><line class="a" x1="14.501" y1="0.784" x2="14.501" y2="9.5"/><line class="a" x1="18.501" y1="3.177" x2="18.501" y2="9.495"/><path class="a" d="M2.5,17.5c0-4.5,2.485-6.964,5-8h-6a1,1,0,0,0-1,1v7"/><path class="a" d="M21.5,17.5c0-4.5-2.485-6.964-5-8h6a1,1,0,0,1,1,1v7"/><path class="a" d="M23.5,19.8c-2.5.521-4.06-1.979-4.06-1.979h0a4.4,4.4,0,0,1-3.621,2.056A4.607,4.607,0,0,1,12.2,17.819h0a4.4,4.4,0,0,1-3.62,2.056,4.6,4.6,0,0,1-3.615-2.056h0s-2,2.541-4.455,2.02"/><path class="a" d="M23.5,23.388c-2.5.521-4.06-1.979-4.06-1.979h0a4.4,4.4,0,0,1-3.621,2.056A4.607,4.607,0,0,1,12.2,21.409h0a4.4,4.4,0,0,1-3.62,2.056,4.6,4.6,0,0,1-3.615-2.056h0s-2,2.542-4.455,2.02"/><line class="a" x1="7.5" y1="9.5" x2="16.5" y2="9.5"/></svg>