<svg xmlns="http://www.w3.org/2000/svg" viewBox="0 0 24 24"><defs><style>.a{fill:none;stroke:#000;stroke-linecap:round;stroke-linejoin:round;}</style></defs><title>briefcase</title><path class="a" d="M23.5,21a1,1,0,0,1-1,1H1.5a1,1,0,0,1-1-1V7a1,1,0,0,1,1-1h21a1,1,0,0,1,1,1Z"/><path class="a" d="M8,6l.5-3.5A.5.5,0,0,1,9,2h6a.5.5,0,0,1,.5.5L16,6"/><line class="a" x1="4.5" y1="10.002" x2="19.5" y2="10.002"/><line class="a" x1="4.5" y1="14.002" x2="19.5" y2="14.002"/><line class="a" x1="4.5" y1="18.002" x2="19.5" y2="18.002"/></svg>