<svg xmlns="http://www.w3.org/2000/svg" viewBox="0 0 24 24"><defs><style>.a{fill:none;stroke:#000;stroke-linecap:round;stroke-linejoin:round;}</style></defs><title>building-cloudy</title><path class="a" d="M15.5,1.022a.5.5,0,0,1,.5-.5h6.993a.5.5,0,0,1,.5.5V23a.5.5,0,0,1-.5.5H15.5Z"/><polyline class="a" points="15.496 23.5 7.505 23.5 7.505 12.511 15.496 12.511"/><path class="a" d="M11.854,8.868a.5.5,0,0,0-.707,0L7.505,12.511H15.5Z"/><path class="a" d="M7.505,23.5H2.01a.5.5,0,0,1-.5-.5v-4.5H7.505"/><path class="a" d="M7.505,15.508H2.777a.5.5,0,0,0-.416.222l-1.332,2a.5.5,0,0,0,.416.777h6.06"/><line class="a" x1="17.494" y1="2.521" x2="17.494" y2="3.52"/><line class="a" x1="19.492" y1="2.521" x2="19.492" y2="3.52"/><line class="a" x1="21.49" y1="2.521" x2="21.49" y2="3.52"/><line class="a" x1="17.494" y1="6.517" x2="17.494" y2="7.516"/><line class="a" x1="19.492" y1="6.517" x2="19.492" y2="7.516"/><line class="a" x1="21.49" y1="6.517" x2="21.49" y2="7.516"/><line class="a" x1="17.494" y1="10.513" x2="17.494" y2="11.512"/><line class="a" x1="19.492" y1="10.513" x2="19.492" y2="11.512"/><line class="a" x1="21.49" y1="10.513" x2="21.49" y2="11.512"/><line class="a" x1="17.494" y1="14.509" x2="17.494" y2="15.508"/><line class="a" x1="19.492" y1="14.509" x2="19.492" y2="15.508"/><line class="a" x1="21.49" y1="14.509" x2="21.49" y2="15.508"/><line class="a" x1="9.565" y1="15.985" x2="9.565" y2="16.984"/><line class="a" x1="11.563" y1="15.985" x2="11.563" y2="16.984"/><line class="a" x1="13.561" y1="15.985" x2="13.561" y2="16.984"/><line class="a" x1="9.565" y1="19.981" x2="9.565" y2="20.98"/><line class="a" x1="11.563" y1="19.981" x2="11.563" y2="20.98"/><line class="a" x1="13.561" y1="19.981" x2="13.561" y2="20.98"/><line class="a" x1="17.494" y1="18.505" x2="17.494" y2="19.504"/><line class="a" x1="19.492" y1="18.505" x2="19.492" y2="19.504"/><line class="a" x1="21.49" y1="18.505" x2="21.49" y2="19.504"/><path class="a" d="M8.567,6.517A2.205,2.205,0,0,0,10.5,4.367,2.146,2.146,0,0,0,8.274,2.223,3,3,0,0,0,5.559.5a3.1,3.1,0,0,0-3.1,2.827A1.612,1.612,0,0,0,.512,4.905,1.633,1.633,0,0,0,2.231,6.517Z"/></svg>