<svg xmlns="http://www.w3.org/2000/svg" viewBox="0 0 24 24"><defs><style>.a{fill:none;stroke:#000;stroke-linecap:round;stroke-linejoin:round;}</style></defs><title>building-nature</title><path class="a" d="M22,20a1.5,1.5,0,0,1-3,0c0-.828,1.5-6,1.5-6S22,19.172,22,20Z"/><line class="a" x1="20.5" y1="21.5" x2="20.5" y2="23.5"/><line class="a" x1="15.5" y1="5.5" x2="15.5" y2="23.5"/><line class="a" x1="3.5" y1="23.5" x2="3.5" y2="5.5"/><path class="a" d="M17,5.5H2L3.257,2.149A1,1,0,0,1,4.193,1.5H14.807a1,1,0,0,1,.936.649Z"/><line class="a" x1="12.5" y1="0.5" x2="12.5" y2="1.5"/><path class="a" d="M8.5,23.5v-3a1,1,0,0,1,1-1h0a1,1,0,0,1,1,1v3"/><line class="a" x1="5.5" y1="8.5" x2="6.5" y2="8.5"/><line class="a" x1="5.5" y1="11.5" x2="6.5" y2="11.5"/><line class="a" x1="5.5" y1="14.5" x2="6.5" y2="14.5"/><line class="a" x1="5.5" y1="17.5" x2="6.5" y2="17.5"/><line class="a" x1="5.5" y1="20.5" x2="6.5" y2="20.5"/><line class="a" x1="12.5" y1="20.5" x2="13.5" y2="20.5"/><line class="a" x1="8.5" y1="8.5" x2="10.5" y2="8.5"/><line class="a" x1="8.5" y1="11.5" x2="10.5" y2="11.5"/><line class="a" x1="8.5" y1="14.5" x2="10.5" y2="14.5"/><line class="a" x1="8.5" y1="17.5" x2="10.5" y2="17.5"/><line class="a" x1="12.5" y1="8.5" x2="13.5" y2="8.5"/><line class="a" x1="12.5" y1="11.5" x2="13.5" y2="11.5"/><line class="a" x1="12.5" y1="14.5" x2="13.5" y2="14.5"/><line class="a" x1="12.5" y1="17.5" x2="13.5" y2="17.5"/><line class="a" x1="0.5" y1="23.5" x2="23.5" y2="23.5"/></svg>