<svg xmlns="http://www.w3.org/2000/svg" viewBox="0 0 24 24"><defs><style>.a{fill:none;stroke:#000;stroke-linecap:round;stroke-linejoin:round;}</style></defs><title>business-magic-rabbit-hide</title><path class="a" d="M17.993,22.071a1,1,0,0,1-.984,1.179H6.906a1,1,0,0,1-.984-1.179L7.708,12.25h8.5Z"/><line class="a" x1="3.958" y1="12.25" x2="19.958" y2="12.25"/><line class="a" x1="7.162" y1="15.25" x2="16.753" y2="15.25"/><path class="a" d="M15.489,12.25A4.216,4.216,0,0,0,16,10.159a3.982,3.982,0,0,0-.684-2.238C16.273,7.2,19.169,4.99,20,4.159c1.5-1.5-1-4.5-3-3-.96.72-3.165,4.168-3.812,5.2a3.646,3.646,0,0,0-2.376,0C10.165,5.327,7.96,1.879,7,1.159c-2-1.5-4.5,1.5-3,3C4.831,4.99,7.727,7.2,8.684,7.921A3.982,3.982,0,0,0,8,10.159a3.478,3.478,0,0,0,.676,2.091"/><path class="a" d="M10.208,10.25a.25.25,0,1,0,.25.25.249.249,0,0,0-.25-.25h0"/><path class="a" d="M13.708,10.25a.25.25,0,1,0,.25.25.249.249,0,0,0-.25-.25h0"/></svg>