<svg xmlns="http://www.w3.org/2000/svg" viewBox="0 0 24 24"><defs><style>.a{fill:none;stroke:#000;stroke-linecap:round;stroke-linejoin:round;}</style></defs><title>business-boat-success</title><path class="a" d="M23.5,23.5a5.4,5.4,0,0,1-4-2,3.963,3.963,0,0,1-3.5,2,5.665,5.665,0,0,1-4-2,4.092,4.092,0,0,1-3.5,2,5.849,5.849,0,0,1-4-2,4.333,4.333,0,0,1-4,2"/><path class="a" d="M23.5,20.5a5.4,5.4,0,0,1-4-2,3.963,3.963,0,0,1-3.5,2,5.665,5.665,0,0,1-4-2,4.092,4.092,0,0,1-3.5,2,5.849,5.849,0,0,1-4-2,4.333,4.333,0,0,1-4,2"/><path class="a" d="M7.5,12.5l4.113-5.027a.5.5,0,0,1,.774,0L16.5,12.5"/><path class="a" d="M7,20.208,3.379,13.23a.5.5,0,0,1,.444-.73h16.36a.5.5,0,0,1,.446.727L17,20.333"/><polyline class="a" points="7 20.208 12 12.5 17 20.333"/><path class="a" d="M21.5,3H21a2.5,2.5,0,0,0-4.833-.877A1.973,1.973,0,0,0,15.5,2a2,2,0,0,0,0,4h6a1.5,1.5,0,0,0,0-3Z"/></svg>