<svg xmlns="http://www.w3.org/2000/svg" viewBox="0 0 24 24"><defs><style>.a{fill:none;stroke:#000;stroke-linecap:round;stroke-linejoin:round;}</style></defs><title>business-deal-men-cash-1</title><path class="a" d="M12.771.5h-3.5a1,1,0,0,0-1,1v7a1,1,0,0,0,1,1h1.5v2l2.5-2h8a1,1,0,0,0,1-1v-7a1,1,0,0,0-1-1h-3.5"/><line class="a" x1="6.042" y1="21.937" x2="6.042" y2="22.812"/><path class="a" d="M10.812,23.5a5,5,0,0,0-9.541,0"/><path class="a" d="M7.209,15.5a5.826,5.826,0,0,0,2.286-.467,3.479,3.479,0,0,0-6.459-1.3A5.81,5.81,0,0,0,7.209,15.5Z"/><circle class="a" cx="6.042" cy="15.5" r="3.5"/><line class="a" x1="18.042" y1="21.937" x2="18.042" y2="22.812"/><path class="a" d="M22.729,23.5a5,5,0,0,0-9.541,0"/><path class="a" d="M19.125,15.5a5.81,5.81,0,0,0,2.287-.467,3.478,3.478,0,0,0-6.459-1.3A5.807,5.807,0,0,0,19.125,15.5Z"/><circle class="a" cx="17.959" cy="15.499" r="3.5"/><line class="a" x1="15.271" y1="6.5" x2="15.271" y2="7.5"/><line class="a" x1="15.271" y1="1.5" x2="15.271" y2="2.5"/><path class="a" d="M13.271,6.5h3a1,1,0,0,0,0-2h-2a1,1,0,0,1,0-2h3"/></svg>