<svg xmlns="http://www.w3.org/2000/svg" viewBox="0 0 24 24"><defs><style>.a{fill:none;stroke:#000;stroke-linecap:round;stroke-linejoin:round;}</style></defs><title>business-human-plant</title><path class="a" d="M1.707,7.6a9.509,9.509,0,0,0-.321,1.725A9.719,9.719,0,0,0,4.96,17.808a1.008,1.008,0,0,1,.384.781v4.9"/><path class="a" d="M15.344,23.493v-2.5a.5.5,0,0,1,.5-.5h.613a3,3,0,0,0,3-3v-3h2.7a.5.5,0,0,0,.473-.652C20.756,8.038,19.4,1.806,13.21.674A10.263,10.263,0,0,0,4.147,3.488"/><polyline class="a" points="1.844 5.493 7.344 5.493 8.844 3.993"/><line class="a" x1="7.344" y1="5.493" x2="8.844" y2="6.993"/><polyline class="a" points="7.344 5.493 10.344 5.493 11.844 3.993"/><line class="a" x1="10.344" y1="5.493" x2="11.844" y2="6.993"/><polyline class="a" points="10.344 5.493 13.344 5.493 14.844 3.993"/><polyline class="a" points="16.844 5.493 13.344 5.493 14.844 6.993"/><path class="a" d="M9.027,14.088a2.293,2.293,0,0,1-2.841-1.477A2.294,2.294,0,0,1,7,9.515a2.292,2.292,0,0,1,2.84,1.478"/><path class="a" d="M16.844,10.243a.25.25,0,1,1-.25.25.249.249,0,0,1,.25-.25"/></svg>