<svg xmlns="http://www.w3.org/2000/svg" viewBox="0 0 24 24"><defs><style>.a{fill:none;stroke:#000;stroke-linecap:round;stroke-linejoin:round;}</style></defs><title>business-deal-cash-exchange</title><circle class="a" cx="20.5" cy="7.751" r="2.25"/><path class="a" d="M20.5,11a3,3,0,0,0-3,3v2.5H19l.5,4.5h2l.5-4.5h1.5V14A3,3,0,0,0,20.5,11Z"/><circle class="a" cx="3.5" cy="7.751" r="2.25"/><path class="a" d="M3.5,11a3,3,0,0,0-3,3v2.5H2L2.5,21h2L5,16.5H6.5V14A3,3,0,0,0,3.5,11Z"/><polyline class="a" points="11.5 1.5 13.5 4 11.5 6.5"/><line class="a" x1="9.5" y1="4" x2="13.5" y2="4"/><polyline class="a" points="11.5 17.5 9.5 20 11.5 22.5"/><line class="a" x1="13.5" y1="20" x2="9.5" y2="20"/><path class="a" d="M10.211,13.415A1.289,1.289,0,1,0,11.5,12.127a1.289,1.289,0,1,1,1.288-1.289"/><line class="a" x1="11.5" y1="8.5" x2="11.5" y2="9.55"/><line class="a" x1="11.5" y1="14.704" x2="11.5" y2="15.748"/></svg>