<svg xmlns="http://www.w3.org/2000/svg" viewBox="0 0 24 24"><defs><style>.a{fill:none;stroke:#000;stroke-linecap:round;stroke-linejoin:round;}</style></defs><title>cable-car-1</title><path class="a" d="M15.5,9.495v-2a1,1,0,0,0-1-1h-5a1,1,0,0,0-1,1v2"/><path class="a" d="M13.5,6.5V2a1.5,1.5,0,0,0-3,0V6.5"/><line class="a" x1="1" y1="6.495" x2="10.5" y2="3.995"/><line class="a" x1="13.5" y1="3.139" x2="23" y2="0.495"/><path class="a" d="M21.5,18.5H2.5l.669-5.362A4,4,0,0,1,7.156,9.495H16.85a4,4,0,0,1,3.984,3.638Z"/><path class="a" d="M21.5,18.5v3a2,2,0,0,1-2,2H4.5a2,2,0,0,1-2-2v-3"/><line class="a" x1="8.503" y1="9.495" x2="8.503" y2="18.495"/><line class="a" x1="15.503" y1="9.495" x2="15.503" y2="18.495"/></svg>