<svg id="Light" xmlns="http://www.w3.org/2000/svg" viewBox="0 0 24 24"><defs><style>.cls-1{fill:none;stroke:#000;stroke-linecap:round;stroke-linejoin:round;}</style></defs><title>cake-cream</title><path class="cls-1" d="M18.676,22.624a1,1,0,0,1-.992.876H6.317a1,1,0,0,1-.993-.876L3.5,8.062A.5.5,0,0,1,4,7.5H20a.5.5,0,0,1,.5.562Z"/><line class="cls-1" x1="6.5" y1="7.5" x2="7.5" y2="23.5"/><line class="cls-1" x1="10" y1="7.5" x2="10.5" y2="23.5"/><line class="cls-1" x1="17.5" y1="7.5" x2="16.5" y2="23.5"/><line class="cls-1" x1="14" y1="7.5" x2="13.5" y2="23.5"/><path class="cls-1" d="M20.5,5.5c0-3.494-3.4-3.712-4.6-1.869a4,4,0,0,0-7.81,0C6.892,1.782,3.5,2.016,3.5,5.5"/></svg>