<svg id="Light" xmlns="http://www.w3.org/2000/svg" viewBox="0 0 24 24"><defs><style>.cls-1{fill:none;stroke:#000;stroke-linecap:round;stroke-linejoin:round;}</style></defs><title>cake-flour</title><path class="cls-1" d="M19.5,8.1s1,11.9,1,13.4a2,2,0,0,1-2,2H5.5a2,2,0,0,1-2-2c0-1.5,1-13.4,1-13.4"/><rect class="cls-1" x="2.5" y="0.5" width="19" height="3" rx="1" ry="1"/><path class="cls-1" d="M3.5,3.5a5.172,5.172,0,0,0-.5,2,3,3,0,0,0,6,0,3,3,0,0,0,6,0,3,3,0,0,0,6,0,5.172,5.172,0,0,0-.5-2"/><rect class="cls-1" x="7.5" y="13.5" width="9" height="5" rx="0.5" ry="0.5"/></svg>