<svg id="Light" xmlns="http://www.w3.org/2000/svg" viewBox="0 0 24 24"><defs><style>.cls-1{fill:none;stroke:#000;stroke-linecap:round;stroke-linejoin:round;}</style></defs><title>cake-sugar-cane</title><line class="cls-1" x1="8.5" y1="8" x2="5.242" y2="4.742"/><line class="cls-1" x1="9.5" y1="5.551" x2="9.5" y2="0.927"/><line class="cls-1" x1="11.458" y1="4.542" x2="14.913" y2="1.087"/><line class="cls-1" x1="13.804" y1="5" x2="18.876" y2="5"/><line class="cls-1" x1="15.458" y1="7.458" x2="19.5" y2="11.5"/><line class="cls-1" x1="15.5" y1="12.5" x2="19.5" y2="16.5"/><line class="cls-1" x1="15.5" y1="17.5" x2="19.5" y2="21.5"/><path class="cls-1" d="M8.5,8a2,2,0,0,1-4,0,7.5,7.5,0,0,1,15,0V21.5a2,2,0,0,1-4,0V8a3.5,3.5,0,0,0-7,0Z"/></svg>