<svg id="Light" xmlns="http://www.w3.org/2000/svg" viewBox="0 0 24 24"><defs><style>.cls-1{fill:none;stroke:#000;stroke-linecap:round;stroke-linejoin:round;}</style></defs><title>camping-tent-person</title><path class="cls-1" d="M20.81,5.5a2.5,2.5,0,1,1-4,0"/><path class="cls-1" d="M16.311,23.5V20h-1a1,1,0,0,1-1-1V14.5a3,3,0,0,1,3-3h3a3,3,0,0,1,3,3V19a1,1,0,0,1-1,1h-1v3.5"/><line class="cls-1" x1="22.811" y1="5.5" x2="14.811" y2="5.5"/><path class="cls-1" d="M15.811,5.5l.815-2.446a.5.5,0,0,1,.7-.286l1.481.763,1.481-.763a.5.5,0,0,1,.7.286L21.811,5.5"/><path class="cls-1" d="M12.311,11.75,8.311,5,.758,17.745a.5.5,0,0,0,.43.754H12.31"/><path class="cls-1" d="M8.311,5V.5l2.705,1.159a.5.5,0,0,1,.1.86l-.747.561"/><path class="cls-1" d="M5.311,18.5l2.571-4.285a.5.5,0,0,1,.858,0L11.311,18.5"/></svg>