<svg id="Light" xmlns="http://www.w3.org/2000/svg" viewBox="0 0 24 24"><defs><style>.cls-1{fill:none;stroke:#000;stroke-linecap:round;stroke-linejoin:round;}</style></defs><title>camping-shelter</title><path class="cls-1" d="M3.25,17.713h2a1,1,0,0,1,1,1v6a1,1,0,0,1-1,1h-2a.5.5,0,0,1-.5-.5v-7A.5.5,0,0,1,3.25,17.713Z" transform="translate(26.213 17.213) rotate(90)"/><path class="cls-1" d="M18.25,17.713h2a1,1,0,0,1,1,1v6a1,1,0,0,1-1,1h-2a.5.5,0,0,1-.5-.5v-7A.5.5,0,0,1,18.25,17.713Z" transform="translate(41.213 2.213) rotate(90)"/><rect class="cls-1" x="2.75" y="12.213" width="3.5" height="8" rx="0.5" ry="0.5" transform="translate(20.713 11.713) rotate(90)"/><rect class="cls-1" x="10.25" y="-0.787" width="3.5" height="23" rx="0.5" ry="0.5" transform="translate(22.713 -1.287) rotate(90)"/><rect class="cls-1" x="17.75" y="12.213" width="3.5" height="8" rx="0.5" ry="0.5" transform="translate(35.713 -3.287) rotate(90)"/><path class="cls-1" d="M.754,6.028A.5.5,0,0,0,1,6.963H23a.5.5,0,0,0,.246-.935L12.246.6a.5.5,0,0,0-.492,0Z"/></svg>