<svg id="Light" xmlns="http://www.w3.org/2000/svg" viewBox="0 0 24 24"><defs><style>.cls-1{fill:none;stroke:#000;stroke-linecap:round;stroke-linejoin:round;}</style></defs><title>camping-tent-map</title><path class="cls-1" d="M17.5,3.5a1,1,0,0,1,.707.293l5,5a1,1,0,0,1,0,1.414l-5,5a1,1,0,0,1-.707.293H1.5A1,1,0,0,1,.67,13.945L3.633,9.5.67,5.055A1,1,0,0,1,1.5,3.5Z"/><path class="cls-1" d="M10.75,5.5l4.081,7.255a.5.5,0,0,1-.436.745H8.605a.5.5,0,0,1-.436-.745L12.25,5.5"/><line class="cls-1" x1="11.5" y1="15.5" x2="11.5" y2="23.5"/><line class="cls-1" x1="11.5" y1="0.5" x2="11.5" y2="3.5"/><line class="cls-1" x1="11.5" y1="13.5" x2="11.5" y2="11.5"/></svg>