<svg id="Light" xmlns="http://www.w3.org/2000/svg" viewBox="0 0 24 24"><defs><style>.cls-1{fill:none;stroke:#000;stroke-linecap:round;stroke-linejoin:round;}</style></defs><title>camping-rv</title><path class="cls-1" d="M5.5,12.5h-3a2,2,0,0,1-2-2v-8a2,2,0,0,1,2-2h17a2,2,0,0,1,2,2v10h-7"/><circle class="cls-1" cx="10" cy="13" r="2.5"/><line class="cls-1" x1="21.5" y1="12.5" x2="23.5" y2="12.5"/><rect class="cls-1" x="2.5" y="2.5" width="9" height="4" rx="1" ry="1"/><rect class="cls-1" x="14.5" y="2.5" width="5" height="4" rx="1" ry="1"/><line class="cls-1" x1="20.5" y1="20.5" x2="22.5" y2="20.5"/><line class="cls-1" x1="20.5" y1="22.5" x2="22.5" y2="22.5"/><path class="cls-1" d="M3.5,12.5V17c0,3.314,1.186,4.5,4.5,4.5h8.5"/><path class="cls-1" d="M20.5,23a.5.5,0,0,1-.5.5H18.5a2,2,0,0,1,0-4H20a.5.5,0,0,1,.5.5Z"/></svg>