<svg id="Light" xmlns="http://www.w3.org/2000/svg" viewBox="0 0 24 24"><defs><style>.cls-1{fill:none;stroke:#000;stroke-linecap:round;stroke-linejoin:round;}</style></defs><title>candy-jar</title><rect class="cls-1" x="3.5" y="0.5" width="17" height="4" rx="1" ry="1"/><path class="cls-1" d="M19.5,4.5a6.279,6.279,0,0,1,4,6c-.006,6-5.024,13-7,13h-9c-1.973,0-6.991-7-7-13a6.279,6.279,0,0,1,4-6"/><path class="cls-1" d="M13.214,9a.5.5,0,0,1,.429.243L15,11.5,13.5,14h-3L9,11.5l1.354-2.257A.5.5,0,0,1,10.78,9Z"/><path class="cls-1" d="M13.5,14,15,16.5l-1.354,2.257a.5.5,0,0,1-.429.243H10.783a.5.5,0,0,1-.429-.243L9,16.5,10.5,14Z"/><path class="cls-1" d="M17.714,11.5a.5.5,0,0,1,.429.243l1.2,2a.5.5,0,0,1,0,.514l-1.2,2a.5.5,0,0,1-.429.243H15L13.5,14,15,11.5Z"/><path class="cls-1" d="M9,11.5,10.5,14,9,16.5H6.28a.5.5,0,0,1-.429-.243l-1.2-2a.5.5,0,0,1,0-.514l1.2-2A.5.5,0,0,1,6.28,11.5Z"/></svg>