<svg id="Light" xmlns="http://www.w3.org/2000/svg" viewBox="0 0 24 24"><defs><style>.cls-1{fill:none;stroke:#000;stroke-linecap:round;stroke-linejoin:round;}</style></defs><title>candy-jar-2</title><path class="cls-1" d="M22.091,11.425c1,6.218-4.445,12.075-6.552,12.075H8.461c-2.107,0-7.548-5.857-6.552-12.075"/><path class="cls-1" d="M18.5,1.5a1,1,0,0,0-1-1H6.5a1,1,0,0,0-1,1v3h13Z"/><path class="cls-1" d="M18.5,4.5l3.827,4.21a.5.5,0,0,1-.52.813c-2.818-.884-3.346-1.57-4.532-1.587C14.9,7.9,14.3,10.2,12,10.2S9.1,7.9,6.725,7.936c-1.186.017-1.714.7-4.532,1.587a.5.5,0,0,1-.52-.813L5.5,4.5"/><circle class="cls-1" cx="7.783" cy="15.642" r="1.533"/><circle class="cls-1" cx="12.011" cy="19.092" r="1.533"/><circle class="cls-1" cx="13.917" cy="14.108" r="1.533"/></svg>