<svg id="Light" xmlns="http://www.w3.org/2000/svg" viewBox="0 0 24 24"><defs><style>.cls-1{fill:none;stroke:#000;stroke-linecap:round;stroke-linejoin:round;}</style></defs><title>canoe-1</title><path class="cls-1" d="M16.3,13c0,6.352-3.225,10.5-4,10.5s-4-4.148-4-10.5S11.477.5,12.3.5,16.3,6.648,16.3,13Z"/><ellipse class="cls-1" cx="12.302" cy="15" rx="2" ry="3"/><line class="cls-1" x1="8.505" y1="15.494" x2="6.343" y2="17.656"/><line class="cls-1" x1="17.657" y1="6.343" x2="15.797" y2="8.203"/><path class="cls-1" d="M22.96,3.868a.5.5,0,0,0,0-.707L20.839,1.04a.5.5,0,0,0-.707,0L17.657,3.515a2,2,0,1,0,2.828,2.828Z"/><path class="cls-1" d="M1.04,20.132a.5.5,0,0,0,0,.707L3.161,22.96a.5.5,0,0,0,.707,0l2.475-2.475a2,2,0,0,0-2.829-2.829Z"/></svg>