<svg id="Light" xmlns="http://www.w3.org/2000/svg" viewBox="0 0 24 24"><defs><style>.cls-1{fill:none;stroke:#000;stroke-linecap:round;stroke-linejoin:round;}</style></defs><title>canoe-3</title><line class="cls-1" x1="7.5" y1="8.5" x2="16.5" y2="8.5"/><line class="cls-1" x1="7.5" y1="12.5" x2="16.5" y2="12.5"/><line class="cls-1" x1="7.5" y1="16.5" x2="16.5" y2="16.5"/><path class="cls-1" d="M19.5,20.516a2,2,0,0,1,4,0V23.5h-4Z"/><line class="cls-1" x1="21.5" y1="0.5" x2="21.5" y2="18.516"/><path class="cls-1" d="M4.5,3.484a2,2,0,0,1-4,0V.5h4Z"/><line class="cls-1" x1="2.5" y1="23.5" x2="2.5" y2="5.484"/><path class="cls-1" d="M5.5,7.814a3,3,0,0,1,.965-2.2l3.5-3.231a3,3,0,0,1,4.07,0l3.5,3.231A3,3,0,0,1,18.5,7.814V17a6.5,6.5,0,0,1-13,0Z"/><path class="cls-1" d="M7.5,8.41a2.078,2.078,0,0,1,.663-1.531L10.59,4.635a2.081,2.081,0,0,1,2.825,0l2.423,2.244A2.073,2.073,0,0,1,16.5,8.41v8.075a4.5,4.5,0,1,1-9,0Z"/></svg>