<svg id="Light" xmlns="http://www.w3.org/2000/svg" viewBox="0 0 24 24"><defs><style>.cls-1{fill:none;stroke:#000;stroke-linecap:round;stroke-linejoin:round;}</style></defs><title>canoe-paddles</title><line class="cls-1" x1="14.914" y1="10.725" x2="7.586" y2="20.851"/><circle class="cls-1" cx="7" cy="21.661" r="1"/><line class="cls-1" x1="16.993" y1="3.588" x2="21.044" y2="6.519"/><path class="cls-1" d="M14.648,6.829a2,2,0,0,0-.308,1.705l.6,2.159,2.238-.108A2,2,0,0,0,18.7,9.76L21.923,5.3a2.5,2.5,0,1,0-4.051-2.931Z"/><line class="cls-1" x1="9.086" y1="10.725" x2="16.414" y2="20.851"/><circle class="cls-1" cx="17" cy="21.661" r="1"/><line class="cls-1" x1="7.007" y1="3.588" x2="2.956" y2="6.519"/><path class="cls-1" d="M9.352,6.829A2,2,0,0,1,9.66,8.534l-.6,2.159-2.238-.108A2,2,0,0,1,5.3,9.76L2.077,5.3A2.5,2.5,0,0,1,6.128,2.373Z"/></svg>