<svg id="Light" xmlns="http://www.w3.org/2000/svg" viewBox="0 0 24 24"><defs><style>.cls-1{fill:none;stroke:#000;stroke-linecap:round;stroke-linejoin:round;}</style></defs><title>canoe</title><path class="cls-1" d="M16.175,7.825c4.788,4.788,5.776,11.844,5.967,13.908a.5.5,0,0,1-.544.545c-2.064-.191-9.12-1.179-13.908-5.968S1.913,4.467,1.722,2.4a.5.5,0,0,1,.544-.544C4.33,2.049,11.386,3.037,16.175,7.825Z"/><path class="cls-1" d="M15.821,12.421a2.5,2.5,0,0,1-3.535,3.536L9.457,13.128a2.5,2.5,0,0,1,3.536-3.535Z"/><line class="cls-1" x1="6.432" y1="17.568" x2="4.929" y2="19.071"/><line class="cls-1" x1="19.071" y1="4.929" x2="17.432" y2="6.568"/><path class="cls-1" d="M20.455,5.205a1,1,0,0,1-1.244-.136l-.28-.28A1,1,0,0,1,18.8,3.545l1.728-2.514a1,1,0,0,1,1.551-.17l1.065,1.065a1,1,0,0,1-.17,1.551Z"/><path class="cls-1" d="M3.545,18.8a1,1,0,0,1,1.244.136l.28.28a1,1,0,0,1,.136,1.244L3.477,22.969a1,1,0,0,1-1.551.17L.861,22.074a1,1,0,0,1,.17-1.551Z"/></svg>