<svg xmlns="http://www.w3.org/2000/svg" viewBox="0 0 24 24"><defs><style>.a{fill:none;stroke:#000;stroke-linecap:round;stroke-linejoin:round;}</style></defs><title>car-repair-lock</title><path class="a" d="M4.75,13.25v1.5a.5.5,0,0,1-.5.5h-2a.5.5,0,0,1-.5-.5v-1.5"/><path class="a" d="M17.75,7.25h-15L.9,9.1a.5.5,0,0,0-.146.353V12.75a.5.5,0,0,0,.5.5h10.5"/><path class="a" d="M17.75,7.25,15.876,2.564a.5.5,0,0,0-.465-.314H5.089a.5.5,0,0,0-.465.314L2.75,7.25"/><line class="a" x1="0.75" y1="11.25" x2="5.25" y2="11.25"/><rect class="a" x="14.25" y="13.251" width="9" height="7.999" rx="1" ry="1"/><circle class="a" cx="18.75" cy="17.313" r="1.25"/><path class="a" d="M21.25,11.75a2.5,2.5,0,0,0-5,0v1.5h5Z"/></svg>