<svg xmlns="http://www.w3.org/2000/svg" viewBox="0 0 24 24"><defs><style>.a{fill:none;stroke:#000;stroke-linecap:round;stroke-linejoin:round;}</style></defs><title>car-actions-settings-1</title><circle class="a" cx="17" cy="15.781" r="1.437"/><path class="a" d="M18.221,10.22l.424,1.392a.951.951,0,0,0,1.124.653l1.412-.327A1.283,1.283,0,0,1,22.4,14.064l-.988,1.065a.96.96,0,0,0,0,1.305L22.4,17.5a1.283,1.283,0,0,1-1.221,2.126L19.769,19.3a.953.953,0,0,0-1.124.653l-.424,1.392a1.275,1.275,0,0,1-2.442,0l-.424-1.392a.953.953,0,0,0-1.124-.653l-1.412.328A1.283,1.283,0,0,1,11.6,17.5l.988-1.065a.96.96,0,0,0,0-1.305L11.6,14.064a1.283,1.283,0,0,1,1.221-2.126l1.412.327a.951.951,0,0,0,1.124-.653l.424-1.392A1.275,1.275,0,0,1,18.221,10.22Z"/><path class="a" d="M9.25,12.25H1.75a1,1,0,0,1-1-1v-3a2,2,0,0,1,2-2h15a2,2,0,0,1,2,2v.5"/><path class="a" d="M3.25,6.25,3.6,3.084A2,2,0,0,1,5.59,1.25h9.32A2,2,0,0,1,16.9,3.084L17.25,6.25"/><circle class="a" cx="3.75" cy="9.25" r="1"/><path class="a" d="M5.75,12.25v1.5a1.5,1.5,0,0,1-3,0v-1.5"/><line class="a" x1="0.75" y1="4.25" x2="3.25" y2="6.25"/><line class="a" x1="19.75" y1="4.25" x2="17.25" y2="6.25"/></svg>