<svg xmlns="http://www.w3.org/2000/svg" viewBox="0 0 24 24"><defs><style>.a{fill:none;stroke:#000;stroke-linecap:round;stroke-linejoin:round;}</style></defs><title>car-repair-tire</title><path class="a" d="M1.455,16.381a1.925,1.925,0,0,1-.667-1.3h0a1.93,1.93,0,0,1,.769-1.707l2.221-2.123L5.4,7.646A2.035,2.035,0,0,1,7.091,6.455l5.722-.474a2.036,2.036,0,0,1,1.734.727l3.183,3.38,3.831,1.094a2.092,2.092,0,0,1,1.618,2.452h0A2.092,2.092,0,0,1,21.3,15.311l-.688.057"/><line class="a" x1="16.752" y1="15.688" x2="8.942" y2="16.336"/><path class="a" d="M16.731,16.192a2,2,0,1,0,1.828-2.159A2,2,0,0,0,16.731,16.192Z"/><path class="a" d="M1.219,17.026a1,1,0,0,1,1-1h.5a.56.56,0,0,0,.548-.439,2,2,0,0,1,3.9,0,.564.564,0,0,0,.549.439h.5a1,1,0,0,1,0,2h-6A1,1,0,0,1,1.219,17.026Z"/><path class="a" d="M14.781,10.835,12.9,8.462a1.079,1.079,0,0,0-.934-.4L9.052,8.3a.5.5,0,0,0-.457.54l.165,1.993a.5.5,0,0,0,.54.457Z"/></svg>