<svg xmlns="http://www.w3.org/2000/svg" viewBox="0 0 24 24"><defs><style>.a{fill:none;stroke:#000;stroke-linecap:round;stroke-linejoin:round;}</style></defs><title>car-actions-disable-1</title><path class="a" d="M9.25,12.25H1.75a1,1,0,0,1-1-1v-3a2,2,0,0,1,2-2h15a2,2,0,0,1,2,2v.5"/><path class="a" d="M3.25,6.25,3.6,3.084A2,2,0,0,1,5.59,1.25h9.32A2,2,0,0,1,16.9,3.084L17.25,6.25"/><circle class="a" cx="3.75" cy="9.25" r="1"/><path class="a" d="M5.75,12.25v1.5a1.5,1.5,0,0,1-3,0v-1.5"/><line class="a" x1="0.75" y1="4.25" x2="3.25" y2="6.25"/><line class="a" x1="19.75" y1="4.25" x2="17.25" y2="6.25"/><circle class="a" cx="16.75" cy="16.25" r="6"/><line class="a" x1="12.508" y1="20.492" x2="20.993" y2="12.007"/></svg>