<svg xmlns="http://www.w3.org/2000/svg" viewBox="0 0 24 24"><defs><style>.a{fill:none;stroke:#000;stroke-linecap:round;stroke-linejoin:round;}</style></defs><title>car-repair-checklist</title><path class="a" d="M5.5,21.5V23a.5.5,0,0,1-.5.5H3a.5.5,0,0,1-.5-.5V21.5"/><path class="a" d="M19.5,21.5V23a.5.5,0,0,1-.5.5H17a.5.5,0,0,1-.5-.5V21.5"/><path class="a" d="M20,21.5a.5.5,0,0,0,.5-.5V17.707a.5.5,0,0,0-.146-.353L18.5,15.5H3.5l-2,2V21a.5.5,0,0,0,.5.5Z"/><path class="a" d="M9.188,10.5H5.839a.5.5,0,0,0-.465.314L3.5,15.5"/><line class="a" x1="1.5" y1="19.5" x2="6" y2="19.5"/><line class="a" x1="16" y1="19.5" x2="20.5" y2="19.5"/><rect class="a" x="11.5" y="0.5" width="11" height="13" rx="0.5" ry="0.5"/><rect class="a" x="13.5" y="2.5" width="7" height="9" rx="0.5" ry="0.5"/><path class="a" d="M15.542,4.875l.431.647a.5.5,0,0,0,.748.1L18.5,4.041"/><path class="a" d="M15.542,7.854l.431.647a.5.5,0,0,0,.748.1L18.5,7.021"/></svg>