<svg xmlns="http://www.w3.org/2000/svg" viewBox="0 0 24 24"><defs><style>.a{fill:none;stroke:#000;stroke-linecap:round;stroke-linejoin:round;}</style></defs><title>car-garage-2</title><path class="a" d="M.5,10.823,11.326.939a1,1,0,0,1,1.348,0L23.5,10.823"/><path class="a" d="M6.5,21.323v1.5a.5.5,0,0,1-.5.5H4a.5.5,0,0,1-.5-.5v-1.5"/><path class="a" d="M20.5,21.323v1.5a.5.5,0,0,1-.5.5H18a.5.5,0,0,1-.5-.5v-1.5"/><path class="a" d="M21,21.323a.5.5,0,0,0,.5-.5V17.53a.5.5,0,0,0-.146-.354L19.5,15.323H4.5L2.646,17.176a.5.5,0,0,0-.146.354v3.293a.5.5,0,0,0,.5.5Z"/><path class="a" d="M19.5,15.323l-1.874-4.686a.5.5,0,0,0-.465-.314H6.839a.5.5,0,0,0-.465.314L4.5,15.323"/><line class="a" x1="2.5" y1="19.323" x2="7" y2="19.323"/><line class="a" x1="17" y1="19.323" x2="21.5" y2="19.323"/></svg>