<svg xmlns="http://www.w3.org/2000/svg" viewBox="0 0 24 24"><defs><style>.a{fill:none;stroke:#000;stroke-linecap:round;stroke-linejoin:round;}</style></defs><title>car-repair-bottom</title><rect class="a" x="6.5" y="9.5" width="2" height="2"/><rect class="a" x="15.5" y="9.5" width="2" height="2"/><path class="a" d="M18,9.5a.5.5,0,0,0,.5-.5V6.707a.5.5,0,0,0-.146-.353L16.5,4.5h-9L5.646,6.354a.5.5,0,0,0-.146.353V9a.5.5,0,0,0,.5.5Z"/><path class="a" d="M16.5,4.5,15.6.879A.5.5,0,0,0,15.11.5H8.89A.5.5,0,0,0,8.4.879L7.5,4.5"/><line class="a" x1="5.5" y1="7.5" x2="8" y2="7.5"/><line class="a" x1="16" y1="7.5" x2="18.5" y2="7.5"/><line class="a" x1="0.5" y1="23.5" x2="4.5" y2="23.5"/><rect class="a" x="1.5" y="5.5" width="2" height="18"/><line class="a" x1="19.5" y1="23.5" x2="23.5" y2="23.5"/><rect class="a" x="20.5" y="5.5" width="2" height="18"/><line class="a" x1="3.5" y1="11.5" x2="20.5" y2="11.5"/><circle class="a" cx="12" cy="18" r="1.5"/><path class="a" d="M15.429,18a3.542,3.542,0,0,0-.1-.81l.994-.574-1-1.732-.96.575A3.592,3.592,0,0,0,13,14.646V13.5H11v1.147a3.859,3.859,0,0,0-1.437.812l-1.014-.575L7.54,16.616l.991.574a3.413,3.413,0,0,0,0,1.62l-1,.574,1,1.732,1.03-.575A3.849,3.849,0,0,0,11,21.353V22.5h2V21.353a3.576,3.576,0,0,0,1.367-.812l.977.575.991-1.732-1-.574A3.541,3.541,0,0,0,15.429,18Z"/></svg>