<svg xmlns="http://www.w3.org/2000/svg" viewBox="0 0 24 24"><defs><style>.a{fill:none;stroke:#000;stroke-linecap:round;stroke-linejoin:round;}</style></defs><title>car-tool-keys</title><path class="a" d="M8.943,18.053a4,4,0,0,1-5.656,0L1.872,16.64a4,4,0,0,1,0-5.657l4.95-4.95a4,4,0,0,1,5.656,0l1.415,1.414a4,4,0,0,1,0,5.657Z"/><path class="a" d="M10.685,5,4.7,10.983a2,2,0,0,0,0,2.828l1.414,1.415a2,2,0,0,0,2.828,0L14.929,9.24"/><path class="a" d="M8.236,13.1a1,1,0,1,1,.293-.707A1,1,0,0,1,8.236,13.1Z"/><path class="a" d="M11.064,10.275a1,1,0,1,1,.293-.707A1,1,0,0,1,11.064,10.275Z"/><circle class="a" cx="15.299" cy="4.615" r="3"/><circle class="a" cx="19.299" cy="6.615" r="3"/><path class="a" d="M17.3,13.615a2,2,0,0,1,2-2h2a2,2,0,0,1,2,2v2a1,1,0,0,1-1,1h-4a1,1,0,0,1-1-1Z"/><path class="a" d="M21.3,16.615h-2V21.37a1,1,0,0,0,.114.463l.008.016a.995.995,0,0,0,1.878-.46Z"/><line class="a" x1="20.299" y1="13.115" x2="20.299" y2="8.115"/></svg>