<svg xmlns="http://www.w3.org/2000/svg" viewBox="0 0 24 24"><defs><style>.a{fill:none;stroke:#000;stroke-linecap:round;stroke-linejoin:round;}</style></defs><title>car-tool-lug-wrench</title><circle class="a" cx="12" cy="12" r="2.5"/><line class="a" x1="2.664" y1="13.5" x2="10" y2="13.5"/><line class="a" x1="10" y1="10.5" x2="2.664" y2="10.5"/><path class="a" d="M.5,9.6a.5.5,0,0,1,.675-.469A2.944,2.944,0,0,1,3,12a2.944,2.944,0,0,1-1.825,2.869A.5.5,0,0,1,.5,14.4Z"/><line class="a" x1="13.5" y1="21.336" x2="13.5" y2="14"/><line class="a" x1="10.5" y1="14" x2="10.5" y2="21.336"/><path class="a" d="M9.6,23.5a.5.5,0,0,1-.469-.675A2.944,2.944,0,0,1,12,21a2.944,2.944,0,0,1,2.869,1.825.5.5,0,0,1-.469.675Z"/><line class="a" x1="21.336" y1="10.5" x2="14" y2="10.5"/><line class="a" x1="14" y1="13.5" x2="21.336" y2="13.5"/><path class="a" d="M23.5,14.4a.5.5,0,0,1-.675.469A2.944,2.944,0,0,1,21,12a2.944,2.944,0,0,1,1.825-2.869A.5.5,0,0,1,23.5,9.6Z"/><line class="a" x1="10.5" y1="2.664" x2="10.5" y2="10"/><line class="a" x1="13.5" y1="10" x2="13.5" y2="2.664"/><path class="a" d="M14.4.5a.5.5,0,0,1,.469.675A2.944,2.944,0,0,1,12,3,2.944,2.944,0,0,1,9.131,1.175.5.5,0,0,1,9.6.5Z"/></svg>