<svg xmlns="http://www.w3.org/2000/svg" viewBox="0 0 24 24"><defs><style>.a{fill:none;stroke:#000;stroke-linecap:round;stroke-linejoin:round;}</style></defs><title>car-actions-shield</title><path class="a" d="M5.031,12.781v1.5a.5.5,0,0,1-.5.5h-2a.5.5,0,0,1-.5-.5v-1.5"/><path class="a" d="M19.031,7.781l-1-1h-15L1.178,8.635a.5.5,0,0,0-.147.353v3.293a.5.5,0,0,0,.5.5h7"/><path class="a" d="M16.157,2.1a.5.5,0,0,0-.464-.315H5.37a.5.5,0,0,0-.464.315L3.031,6.781h15Z"/><line class="a" x1="1.031" y1="10.781" x2="5.531" y2="10.781"/><line class="a" x1="17.032" y1="11.781" x2="17.032" y2="17.781"/><line class="a" x1="20.032" y1="14.781" x2="14.032" y2="14.781"/><path class="a" d="M17.568,21.679l.553-.211c2.63-1,4.911-3.524,4.911-6.338V11.737a1.042,1.042,0,0,0-.628-.957,15.785,15.785,0,0,0-5.394-1,15.493,15.493,0,0,0-5.35,1,1.042,1.042,0,0,0-.628.957V15.13c0,2.814,2.238,5.336,4.868,6.338l.553.211A1.575,1.575,0,0,0,17.568,21.679Z"/></svg>