<svg xmlns="http://www.w3.org/2000/svg" viewBox="0 0 24 24"><defs><style>.a{fill:none;stroke:#000;stroke-linecap:round;stroke-linejoin:round;}</style></defs><title>car-garage</title><path class="a" d="M.5,10.823,11.326.939a1,1,0,0,1,1.348,0L23.5,10.823"/><line class="a" x1="7.5" y1="21.323" x2="16.5" y2="21.323"/><path class="a" d="M20.5,21.323h1a1,1,0,0,0,1-1v-.354a3.646,3.646,0,0,0-3.646-3.646A2,2,0,0,1,17,15.066l-.743-1.857a3,3,0,0,0-2.785-1.886H9.14a2,2,0,0,0-1.962,1.608l-.356,1.784A2,2,0,0,1,4.86,16.323H3.5a2,2,0,0,0-2,2v2a1,1,0,0,0,1,1h1"/><circle class="a" cx="5.5" cy="21.323" r="2"/><circle class="a" cx="18.5" cy="21.323" r="2"/><path class="a" d="M11.5,11.323v3a2,2,0,0,0,2,2h5.354"/></svg>