<svg xmlns="http://www.w3.org/2000/svg" viewBox="0 0 24 24"><defs><style>.a{fill:none;stroke:#000;stroke-linecap:round;stroke-linejoin:round;}</style></defs><title>car-actions-settings</title><path class="a" d="M5,13.031v1.5a.5.5,0,0,1-.5.5h-2a.5.5,0,0,1-.5-.5v-1.5"/><path class="a" d="M20,9.031l-2-2H3L1.146,8.885A.5.5,0,0,0,1,9.238v3.293a.5.5,0,0,0,.5.5H8.455"/><path class="a" d="M18,7.031,16.126,2.346a.5.5,0,0,0-.465-.315H5.339a.5.5,0,0,0-.465.315L3,7.031"/><line class="a" x1="1" y1="11.031" x2="5.5" y2="11.031"/><circle class="a" cx="16.252" cy="15.563" r="1.437"/><path class="a" d="M17.473,10l.423,1.392a.953.953,0,0,0,1.125.652l1.411-.327a1.283,1.283,0,0,1,1.221,2.126l-.987,1.065a.96.96,0,0,0,0,1.3l.987,1.065a1.283,1.283,0,0,1-1.221,2.126l-1.411-.327a.953.953,0,0,0-1.125.652l-.423,1.392a1.276,1.276,0,0,1-2.443,0l-.423-1.392a.953.953,0,0,0-1.125-.652l-1.411.327A1.283,1.283,0,0,1,10.85,17.28l.987-1.065a.96.96,0,0,0,0-1.3l-.987-1.065a1.283,1.283,0,0,1,1.221-2.126l1.411.327a.953.953,0,0,0,1.125-.652L15.03,10A1.276,1.276,0,0,1,17.473,10Z"/></svg>