<svg xmlns="http://www.w3.org/2000/svg" viewBox="0 0 24 24"><defs><style>.a{fill:none;stroke:#000;stroke-linecap:round;stroke-linejoin:round;}</style></defs><title>car-repair-tow-truck-2</title><path class="a" d="M15.77,18H13.5V9a1,1,0,0,1,1-1h2.882a1,1,0,0,1,.894.553L20,12l1.871.749a1,1,0,0,1,.629.928V17a1,1,0,0,1-1,1H19.23"/><path class="a" d="M13.5,15H1a.5.5,0,0,0-.5.5V17a1,1,0,0,0,1,1H2.769"/><line class="a" x1="10.227" y1="18" x2="15" y2="18"/><path class="a" d="M6.5,5l3,4v3.5A.5.5,0,0,1,9,13H1a.5.5,0,0,1-.5-.5v-2A.5.5,0,0,1,1,10H2.5V5"/><path class="a" d="M2.5,5V4a1,1,0,0,1,1-1h17a1.13,1.13,0,0,1,.8.4L22.5,5Z"/><line class="a" x1="7.5" y1="10" x2="4.5" y2="10"/><path class="a" d="M21.5,8a1,1,0,1,0,1-1V5"/><circle class="a" cx="4.5" cy="19" r="2"/><circle class="a" cx="8.5" cy="19" r="2"/><circle class="a" cx="17.5" cy="19" r="2"/><polyline class="a" points="15.5 8 15.5 12 20 12"/></svg>