<svg xmlns="http://www.w3.org/2000/svg" viewBox="0 0 24 24"><defs><style>.a{fill:none;stroke:#000;stroke-linecap:round;stroke-linejoin:round;}</style></defs><title>car-retro</title><path class="a" d="M5,11.5c2,0,4.5,8,4.5,8H2.842A2,2,0,0,1,.908,18.013C.294,15.686.109,11.5,5,11.5Z"/><path class="a" d="M19,11.5c-2,0-4.5,8-4.5,8h6.658a2,2,0,0,0,1.934-1.487C23.706,15.686,23.891,11.5,19,11.5Z"/><path class="a" d="M5.953,7.973a6.077,6.077,0,0,1,12.094,0l.453,3.681a14.833,14.833,0,0,0-13,0Z"/><line class="a" x1="9.5" y1="19.5" x2="14.5" y2="19.5"/><path class="a" d="M6.5,19.5V21a.5.5,0,0,1-.5.5H3a.5.5,0,0,1-.5-.5V19.47"/><path class="a" d="M17.5,19.5V21a.5.5,0,0,0,.5.5h3a.5.5,0,0,0,.5-.5V19.47"/><circle class="a" cx="20" cy="15.784" r="1.5"/><circle class="a" cx="4" cy="15.784" r="1.5"/></svg>