<svg xmlns="http://www.w3.org/2000/svg" viewBox="0 0 24 24"><defs><style>.a{fill:none;stroke:#000;stroke-linecap:round;stroke-linejoin:round;}</style></defs><title>car-3</title><path class="a" d="M4.5,9h15a4,4,0,0,1,4,4v4a1,1,0,0,1-1,1H1.5a1,1,0,0,1-1-1V13A4,4,0,0,1,4.5,9Z"/><path class="a" d="M4,9l.721-4.328A2,2,0,0,1,6.7,3H17.307a2,2,0,0,1,1.972,1.671L20,9"/><path class="a" d="M20,9l1.5-2H23a.5.5,0,0,1,.5.5v1A.5.5,0,0,1,23,9H20"/><path class="a" d="M4,9,2.5,7H1a.5.5,0,0,0-.5.5v1A.5.5,0,0,0,1,9H4"/><path class="a" d="M5.5,18v2a1,1,0,0,1-1,1h-2a1,1,0,0,1-1-1V18"/><path class="a" d="M22.5,18v2a1,1,0,0,1-1,1h-2a1,1,0,0,1-1-1V18"/><path class="a" d="M22.965,11H19.5a.675.675,0,0,0-.621.485L18.5,13h3a2,2,0,0,0,1.826-1.184"/><path class="a" d="M1.03,11H4.5a.674.674,0,0,1,.621.485L5.5,13h-3A2,2,0,0,1,.674,11.816"/><path class="a" d="M18.5,13.008l-.329,1.32A2.185,2.185,0,0,1,16.024,16H8a2.215,2.215,0,0,1-2.17-1.671L5.5,12.994"/><line class="a" x1="5.249" y1="12" x2="18.746" y2="12"/><circle class="a" cx="11.998" cy="14" r="2"/><path class="a" d="M.5,15.5H3a1,1,0,0,1,1,1V18"/><path class="a" d="M23.5,15.5H21a1,1,0,0,0-1,1V18"/></svg>