<svg xmlns="http://www.w3.org/2000/svg" viewBox="0 0 24 24"><defs><style>.a{fill:none;stroke:#000;stroke-linecap:round;stroke-linejoin:round;}</style></defs><title>car-1</title><path class="a" d="M5.5,17.5V19a.5.5,0,0,1-.5.5H3a.5.5,0,0,1-.5-.5V17.5"/><path class="a" d="M21.5,17.5V19a.5.5,0,0,1-.5.5H19a.5.5,0,0,1-.5-.5V17.5"/><path class="a" d="M22,17.5a.5.5,0,0,0,.5-.5V13.707a.5.5,0,0,0-.146-.353L19.5,10.5H4.5L1.646,13.354a.5.5,0,0,0-.146.353V17a.5.5,0,0,0,.5.5Z"/><path class="a" d="M19.5,10.5,17.614,4.842A.5.5,0,0,0,17.14,4.5H6.86a.5.5,0,0,0-.474.342L4.5,10.5"/><path class="a" d="M4.5,10.5H2a.5.5,0,0,1-.5-.5V9A.5.5,0,0,1,2,8.5H5.167"/><path class="a" d="M18.833,8.5H22a.5.5,0,0,1,.5.5v1a.5.5,0,0,1-.5.5H19.5"/><path class="a" d="M1.546,13.5H5a.5.5,0,0,1,.5.5v1a.5.5,0,0,1-.5.5H1.5"/><path class="a" d="M22.5,15.5H19a.5.5,0,0,1-.5-.5V14a.5.5,0,0,1,.5-.5h3.454"/></svg>