<svg xmlns="http://www.w3.org/2000/svg" viewBox="0 0 24 24"><defs><style>.a{fill:none;stroke:#000;stroke-linecap:round;stroke-linejoin:round;}</style></defs><title>car-repair-wash-3</title><path class="a" d="M11.25.656a.25.25,0,0,1,.25.25"/><path class="a" d="M11,.906a.25.25,0,0,1,.25-.25"/><path class="a" d="M11.25,1.156A.25.25,0,0,1,11,.906"/><path class="a" d="M11.5.906a.25.25,0,0,1-.25.25"/><path class="a" d="M9.75,3.656a.25.25,0,0,1,.25.25"/><path class="a" d="M9.5,3.906a.25.25,0,0,1,.25-.25"/><path class="a" d="M9.75,4.156a.25.25,0,0,1-.25-.25"/><path class="a" d="M10,3.906a.25.25,0,0,1-.25.25"/><path class="a" d="M11.25,6.656a.25.25,0,0,1,.25.25"/><path class="a" d="M11,6.906a.25.25,0,0,1,.25-.25"/><path class="a" d="M11.25,7.156a.25.25,0,0,1-.25-.25"/><path class="a" d="M11.5,6.906a.25.25,0,0,1-.25.25"/><path class="a" d="M8.25.656a.25.25,0,0,1,.25.25"/><path class="a" d="M8,.906a.25.25,0,0,1,.25-.25"/><path class="a" d="M8.25,1.156A.25.25,0,0,1,8,.906"/><path class="a" d="M8.5.906a.25.25,0,0,1-.25.25"/><path class="a" d="M6.25,3.656a.25.25,0,0,1,.25.25"/><path class="a" d="M6,3.906a.25.25,0,0,1,.25-.25"/><path class="a" d="M6.25,4.156A.25.25,0,0,1,6,3.906"/><path class="a" d="M6.5,3.906a.25.25,0,0,1-.25.25"/><path class="a" d="M7.25,6.656a.25.25,0,0,1,.25.25"/><path class="a" d="M7,6.906a.25.25,0,0,1,.25-.25"/><path class="a" d="M7.25,7.156A.25.25,0,0,1,7,6.906"/><path class="a" d="M7.5,6.906a.25.25,0,0,1-.25.25"/><path class="a" d="M3.25,6.656a.25.25,0,0,1,.25.25"/><path class="a" d="M3,6.906a.25.25,0,0,1,.25-.25"/><path class="a" d="M3.25,7.156A.25.25,0,0,1,3,6.906"/><path class="a" d="M3.5,6.906a.25.25,0,0,1-.25.25"/><path class="a" d="M14.25.656a.25.25,0,0,0-.25.25"/><path class="a" d="M14.5.906a.25.25,0,0,0-.25-.25"/><path class="a" d="M14.25,1.156a.25.25,0,0,0,.25-.25"/><path class="a" d="M14,.906a.25.25,0,0,0,.25.25"/><path class="a" d="M12.75,3.656a.25.25,0,0,0-.25.25"/><path class="a" d="M13,3.906a.25.25,0,0,0-.25-.25"/><path class="a" d="M12.75,4.156a.25.25,0,0,0,.25-.25"/><path class="a" d="M12.5,3.906a.25.25,0,0,0,.25.25"/><path class="a" d="M15.25,6.656a.25.25,0,0,0-.25.25"/><path class="a" d="M15.5,6.906a.25.25,0,0,0-.25-.25"/><path class="a" d="M15.25,7.156a.25.25,0,0,0,.25-.25"/><path class="a" d="M15,6.906a.25.25,0,0,0,.25.25"/><path class="a" d="M16.25,3.656a.25.25,0,0,0-.25.25"/><path class="a" d="M16.5,3.906a.25.25,0,0,0-.25-.25"/><path class="a" d="M16.25,4.156a.25.25,0,0,0,.25-.25"/><path class="a" d="M16,3.906a.25.25,0,0,0,.25.25"/><path class="a" d="M19.25,6.656a.25.25,0,0,0-.25.25"/><path class="a" d="M19.5,6.906a.25.25,0,0,0-.25-.25"/><path class="a" d="M19.25,7.156a.25.25,0,0,0,.25-.25"/><path class="a" d="M19,6.906a.25.25,0,0,0,.25.25"/><path class="a" d="M4,14.406H19a2,2,0,0,1,2,2v3a1,1,0,0,1-1,1H3a1,1,0,0,1-1-1v-3A2,2,0,0,1,4,14.406Z"/><path class="a" d="M4.5,14.406l.347-3.166A2,2,0,0,1,6.84,9.406h9.32a2,2,0,0,1,1.993,1.834l.347,3.166"/><circle class="a" cx="5" cy="17.406" r="1"/><circle class="a" cx="18" cy="17.406" r="1"/><path class="a" d="M7,20.406v1.5a1.5,1.5,0,0,1-3,0v-1.5"/><path class="a" d="M19,20.406v1.5a1.5,1.5,0,0,1-3,0v-1.5"/><line class="a" x1="2" y1="12.406" x2="4.5" y2="14.406"/><line class="a" x1="21" y1="12.406" x2="18.5" y2="14.406"/></svg>