<svg xmlns="http://www.w3.org/2000/svg" viewBox="0 0 24 24"><defs><style>.a{fill:none;stroke:#000;stroke-linecap:round;stroke-linejoin:round;}</style></defs><title>car-actions-shield-1</title><line class="a" x1="16.75" y1="12.25" x2="16.75" y2="18.25"/><line class="a" x1="19.75" y1="15.25" x2="13.75" y2="15.25"/><path class="a" d="M17.285,22.147l.553-.21c2.63-1,4.912-3.524,4.912-6.338V12.206a1.044,1.044,0,0,0-.628-.958,15.814,15.814,0,0,0-5.394-1,15.521,15.521,0,0,0-5.35,1,1.044,1.044,0,0,0-.628.958V15.6c0,2.814,2.238,5.336,4.868,6.338l.553.21A1.561,1.561,0,0,0,17.285,22.147Z"/><path class="a" d="M8.75,12.25h-7a1,1,0,0,1-1-1v-3a2,2,0,0,1,2-2h15a2,2,0,0,1,2,2v.5"/><path class="a" d="M3.25,6.25,3.6,3.084A2,2,0,0,1,5.59,1.25h9.32A2,2,0,0,1,16.9,3.084L17.25,6.25"/><circle class="a" cx="3.75" cy="9.25" r="1"/><path class="a" d="M5.75,12.25v1.5a1.5,1.5,0,0,1-3,0v-1.5"/><line class="a" x1="0.75" y1="4.25" x2="3.25" y2="6.25"/><line class="a" x1="19.75" y1="4.25" x2="17.25" y2="6.25"/></svg>