<svg id="Light" xmlns="http://www.w3.org/2000/svg" viewBox="0 0 24 24"><defs><style>.cls-1{fill:none;stroke:#000;stroke-linecap:round;stroke-linejoin:round;}</style></defs><title>card-game-symbols</title><path class="cls-1" d="M9.17,5.206a.5.5,0,0,1,0,.588L5.9,10.294a.5.5,0,0,1-.808,0L1.83,5.794a.5.5,0,0,1,0-.588L5.1.706a.5.5,0,0,1,.808,0Z"/><path class="cls-1" d="M22.644,15a2.4,2.4,0,0,0-3.186.246L18.5,16.2l-.959-.958A2.4,2.4,0,0,0,14.356,15a2.335,2.335,0,0,0-.181,3.45l3.971,3.972a.5.5,0,0,0,.708,0l3.971-3.972A2.336,2.336,0,0,0,22.644,15Z"/><path class="cls-1" d="M1.175,17.633l4-4a.464.464,0,0,1,.656,0l2.957,2.957,1.04,1.04a2.336,2.336,0,0,1-.181,3.45,2.4,2.4,0,0,1-3.186-.246L5.5,19.879l-.958.958a2.4,2.4,0,0,1-3.186.246A2.336,2.336,0,0,1,1.175,17.633Z"/><line class="cls-1" x1="18.5" y1="8.5" x2="18.5" y2="10.5"/><line class="cls-1" x1="5.5" y1="19.879" x2="5.5" y2="23.5"/><path class="cls-1" d="M21.25,8a2.25,2.25,0,1,0-.667-4.4,2.25,2.25,0,1,0-4.166,0A2.25,2.25,0,1,0,15.75,8Z"/></svg>