<svg id="Light" xmlns="http://www.w3.org/2000/svg" viewBox="0 0 24 24"><defs><style>.cls-1{fill:none;stroke:#000;stroke-linecap:round;stroke-linejoin:round;}</style></defs><title>card-game-heart</title><path class="cls-1" d="M12,10.823c-.583-2.614-3.5-2.368-3.5.395C8.5,13.781,12,16.3,12,16.3s3.5-2.521,3.5-5.084C15.5,8.455,12.583,8.209,12,10.823Z"/><rect class="cls-1" x="2.5" y="0.5" width="19" height="23" rx="2" ry="2"/><path class="cls-1" d="M5,3.48c0-.829.672-.98,1.5-.98S8,2.651,8,3.48,6.5,5.5,6.5,5.5,5,4.308,5,3.48Z"/><path class="cls-1" d="M16,19.48c0-.829.672-.98,1.5-.98s1.5.151,1.5.98-1.5,2.02-1.5,2.02S16,20.308,16,19.48Z"/></svg>