<svg xmlns="http://www.w3.org/2000/svg" viewBox="0 0 24 24"><defs><style>.a{fill:none;stroke:#000;stroke-linecap:round;stroke-linejoin:round;}</style></defs><title>cash-payment-bill-3</title><line class="a" x1="1.504" y1="8.75" x2="5.004" y2="5.25"/><line class="a" x1="1.504" y1="13.75" x2="5.004" y2="17.25"/><path class="a" d="M10.5,17.25H2a.5.5,0,0,1-.5-.5v-11a.5.5,0,0,1,.5-.5H22a.5.5,0,0,1,.5.5v10.5"/><line class="a" x1="22.504" y1="8.75" x2="19.004" y2="5.25"/><polyline class="a" points="6.642 19.544 7.504 20.75 7.504 23.25"/><path class="a" d="M8.5,4.75h0c0-.013,0-.025,0-.038a1.5,1.5,0,0,0-3,0c0,.013,0,.025,0,.038l0,.5"/><path class="a" d="M11.5,5.25V3.75h0c0-.013,0-.025,0-.038a1.5,1.5,0,1,0-3,0c0,.013,0,.025,0,.038h0v1.5"/><path class="a" d="M14.5,5.25V2.288h0c0-.013,0-.025,0-.038a1.5,1.5,0,0,0-3,0c0,.013,0,.025,0,.038h0V5.25"/><path class="a" d="M17.5,5.25V3.75h0c0-.013,0-.025,0-.038a1.5,1.5,0,0,0-3,0c0,.013,0,.025,0,.038h0v1"/><path class="a" d="M16.5,23.25v-1a2,2,0,0,1,.8-1.6l2.4-1.8a2,2,0,0,0,.8-1.6V12.719c0-.007-.005-.013-.005-.02a1.5,1.5,0,0,0-2.965-.247,1.024,1.024,0,0,0-.1.263l-.3,2.067a2,2,0,0,1-.987,1.453l-1.643.939A2,2,0,0,0,13.5,18.911V20.25"/><line class="a" x1="11.504" y1="8.25" x2="11.504" y2="7.25"/><path class="a" d="M13,8.25H10.971a1.342,1.342,0,0,0-.5,2.587l2.064.826a1.342,1.342,0,0,1-.5,2.587H10"/><line class="a" x1="11.504" y1="15.25" x2="11.504" y2="14.25"/></svg>