<svg xmlns="http://www.w3.org/2000/svg" viewBox="0 0 24 24"><defs><style>.a{fill:none;stroke:#000;stroke-linecap:round;stroke-linejoin:round;}</style></defs><title>cash-pin-map</title><path class="a" d="M19,7.357c0,3.786-7,14.168-7,14.168S5,11.143,5,7.357A6.928,6.928,0,0,1,12,.5,6.929,6.929,0,0,1,19,7.357Z"/><path class="a" d="M6.5,17.5H3.221a1,1,0,0,0-.949.684l-1.333,4A1,1,0,0,0,1.887,23.5H22.113a1,1,0,0,0,.948-1.316l-1.333-4a1,1,0,0,0-.949-.684H17.5"/><path class="a" d="M13.5,4.5H11.8a1.3,1.3,0,0,0-.723,2.386l1.84,1.227A1.3,1.3,0,0,1,12.2,10.5H10.5"/><line class="a" x1="12.5" y1="4.501" x2="12.5" y2="3.501"/><line class="a" x1="11.5" y1="11.501" x2="11.5" y2="10.501"/></svg>