<svg xmlns="http://www.w3.org/2000/svg" viewBox="0 0 24 24"><defs><style>.a{fill:none;stroke:#000;stroke-linecap:round;stroke-linejoin:round;}</style></defs><title>cash-user</title><rect class="a" x="0.5" y="4.502" width="10" height="7" rx="0.5" ry="0.5"/><path class="a" d="M2.192,4.5,2.954.99A.5.5,0,0,1,3.549.608l8.736,1.9a.5.5,0,0,1,.382.594L11.562,8.193a.5.5,0,0,1-.219.314.5.5,0,0,1-.376.068l-.467-.1"/><circle class="a" cx="5.5" cy="8.002" r="1.5"/><line class="a" x1="18.5" y1="11.002" x2="18.5" y2="14.002"/><path class="a" d="M20.5,23.5l.5-6h2.5V14a5,5,0,0,0-10,0v3.5H16l.5,6Z"/><path class="a" d="M19.667,4a5.823,5.823,0,0,0,2.286-.467,3.478,3.478,0,0,0-6.459-1.3A5.813,5.813,0,0,0,19.667,4Z"/><circle class="a" cx="18.5" cy="4.002" r="3.5"/></svg>