<svg xmlns="http://www.w3.org/2000/svg" viewBox="0 0 24 24"><defs><style>.a{fill:none;stroke:#000;stroke-linecap:round;stroke-linejoin:round;}</style></defs><title>cash-bulb</title><line class="a" x1="9.5" y1="20.502" x2="14.5" y2="20.502"/><line class="a" x1="9.5" y1="22.502" x2="14.5" y2="22.502"/><line class="a" x1="12" y1="22.502" x2="12" y2="23.502"/><path class="a" d="M9.5,18a.5.5,0,0,0,.5.5h4a.5.5,0,0,0,.5-.5v-.839A8.586,8.586,0,0,0,21,9,8.761,8.761,0,0,0,12,.5,8.761,8.761,0,0,0,3,9a8.586,8.586,0,0,0,6.5,8.161Z"/><path class="a" d="M13.5,6.5H11.8a1.3,1.3,0,0,0-.723,2.387l1.84,1.226A1.3,1.3,0,0,1,12.2,12.5H10.5"/><line class="a" x1="12.5" y1="6.502" x2="12.5" y2="5.502"/><line class="a" x1="11.5" y1="13.502" x2="11.5" y2="12.502"/></svg>