<svg xmlns="http://www.w3.org/2000/svg" viewBox="0 0 24 24"><defs><style>.a{fill:none;stroke:#000;stroke-linecap:round;stroke-linejoin:round;}</style></defs><title>cash-payment-bills-1</title><path class="a" d="M12.294,10.5,10.88,1.074A.5.5,0,0,1,11.375.5h6.919"/><path class="a" d="M14.794,12.5l-.945-9.45a.5.5,0,0,1,.5-.55h6.867a.5.5,0,0,1,.494.574L20.294,12.5"/><path class="a" d="M19.794,22.5H12.372a2.992,2.992,0,0,0-1.114.215L9.294,23.5"/><path class="a" d="M12.294,12.5h8.5l.63.945a1,1,0,0,1,0,1.11l-.308.462a1,1,0,0,0-.062,1l.517,1.034a1,1,0,0,1,0,.894l-.592,1.183a1,1,0,0,0-.054.763l.174.521a1,1,0,0,1-.242,1.023L19.794,22.5"/><path class="a" d="M2.294,17.5l3.358-1.259a1.994,1.994,0,0,0,1-.825l3.3-5.357a3.007,3.007,0,0,1,.891-.923l1.135-.757"/><circle class="a" cx="17.544" cy="7.75" r="1.25"/></svg>