<svg xmlns="http://www.w3.org/2000/svg" viewBox="0 0 24 24"><defs><style>.a{fill:none;stroke:#000;stroke-linecap:round;stroke-linejoin:round;}</style></defs><title>cash-payment-bill-2</title><line class="a" x1="5.504" y1="7" x2="8.504" y2="4"/><path class="a" d="M5.5,10V5a1,1,0,0,1,1-1h16a1,1,0,0,1,1,1v8a1,1,0,0,1-1,1h-10"/><line class="a" x1="23.504" y1="7" x2="20.504" y2="4"/><line class="a" x1="23.504" y1="11" x2="20.504" y2="14"/><line class="a" x1="5.504" y1="8.5" x2="0.504" y2="11"/><path class="a" d="M.5,20a22.233,22.233,0,0,0,10.049-6.859l.238-.286a1,1,0,0,0-.213-1.472,1.231,1.231,0,0,0-1.2-.094L3.5,14"/><path class="a" d="M15.231,14l-3.152,3.806A1,1,0,0,1,10.754,18l-.115-.076a1,1,0,0,1-.394-1.149L10.5,16"/><path class="a" d="M16.6,14l-.843,4.216a1,1,0,0,1-1.428.7l-.276-.138a1,1,0,0,1-.553-.894v-1.8"/><line class="a" x1="14.504" y1="11" x2="14.504" y2="12"/><line class="a" x1="14.504" y1="6" x2="14.504" y2="7"/><path class="a" d="M12.5,11h3a1,1,0,0,0,0-2h-2a1,1,0,1,1,0-2h3"/></svg>