<svg xmlns="http://www.w3.org/2000/svg" viewBox="0 0 24 24"><defs><style>.a{fill:none;stroke:#000;stroke-linecap:round;stroke-linejoin:round;}</style></defs><title>cash-user-1</title><path class="a" d="M12.993,8.5H1A.5.5,0,0,1,.5,8V1A.5.5,0,0,1,1,.5H12.868"/><line class="a" x1="0.5" y1="5.002" x2="4.328" y2="8.502"/><line class="a" x1="0.5" y1="4.002" x2="4.937" y2="0.502"/><circle class="a" cx="8" cy="4.502" r="1.5"/><line class="a" x1="18.5" y1="11.002" x2="18.5" y2="14.002"/><path class="a" d="M20.5,23.5l.5-6h2.5V14a5,5,0,0,0-10,0v3.5H16l.5,6Z"/><path class="a" d="M19.667,4a5.823,5.823,0,0,0,2.286-.467,3.478,3.478,0,0,0-6.459-1.3A5.813,5.813,0,0,0,19.667,4Z"/><circle class="a" cx="18.5" cy="4.002" r="3.5"/></svg>