<svg xmlns="http://www.w3.org/2000/svg" viewBox="0 0 24 24"><defs><style>.a{fill:none;stroke:#000;stroke-linecap:round;stroke-linejoin:round;}</style></defs><title>cash-payment-coin</title><path class="a" d="M16.07,18.471,20.5,17a2.76,2.76,0,0,1,3,1c-12.229,6.113-8.272,6.077-19,2.5L.5,23"/><path class="a" d="M9.5,19H15a1.016,1.016,0,1,0,0-2H12a6.592,6.592,0,0,0-4.5-2h-3l-4,2"/><circle class="a" cx="15.504" cy="7.149" r="6.149"/><line class="a" x1="15.504" y1="4" x2="15.504" y2="3"/><path class="a" d="M17,4H14.971a1.342,1.342,0,0,0-.5,2.587l2.064.826a1.342,1.342,0,0,1-.5,2.587H14"/><line class="a" x1="15.504" y1="11" x2="15.504" y2="10"/></svg>