<svg id="Light" xmlns="http://www.w3.org/2000/svg" viewBox="0 0 24 24"><defs><style>.cls-1{fill:none;stroke:#000;stroke-linecap:round;stroke-linejoin:round;}</style></defs><title>casino-chip-buy</title><rect class="cls-1" x="0.5" y="1.5" width="23" height="21" rx="2" ry="2"/><line class="cls-1" x1="0.5" y1="6.5" x2="23.5" y2="6.5"/><circle class="cls-1" cx="11.902" cy="14.5" r="6"/><circle class="cls-1" cx="11.902" cy="14.5" r="3"/><line class="cls-1" x1="11.902" y1="8.5" x2="11.902" y2="11.5"/><line class="cls-1" x1="6.706" y1="11.5" x2="9.304" y2="13"/><line class="cls-1" x1="6.706" y1="17.5" x2="9.304" y2="16"/><line class="cls-1" x1="11.902" y1="20.5" x2="11.902" y2="17.5"/><line class="cls-1" x1="17.098" y1="17.5" x2="14.5" y2="16"/><line class="cls-1" x1="17.098" y1="11.5" x2="14.5" y2="13"/><path class="cls-1" d="M4,3.75A.25.25,0,0,1,4.25,4"/><path class="cls-1" d="M3.75,4A.25.25,0,0,1,4,3.75"/><path class="cls-1" d="M4,4.25A.25.25,0,0,1,3.75,4"/><path class="cls-1" d="M4.25,4A.25.25,0,0,1,4,4.25"/><path class="cls-1" d="M7,3.75A.25.25,0,0,1,7.25,4"/><path class="cls-1" d="M6.75,4A.25.25,0,0,1,7,3.75"/><path class="cls-1" d="M7,4.25A.25.25,0,0,1,6.75,4"/><path class="cls-1" d="M7.25,4A.25.25,0,0,1,7,4.25"/><path class="cls-1" d="M10,3.75a.25.25,0,0,1,.25.25"/><path class="cls-1" d="M9.75,4A.25.25,0,0,1,10,3.75"/><path class="cls-1" d="M10,4.25A.25.25,0,0,1,9.75,4"/><path class="cls-1" d="M10.25,4a.25.25,0,0,1-.25.25"/></svg>