<svg id="Light" xmlns="http://www.w3.org/2000/svg" viewBox="0 0 24 24"><defs><style>.cls-1{fill:none;stroke:#000;stroke-linecap:round;stroke-linejoin:round;}</style></defs><title>casino-diamond-bag_1</title><line class="cls-1" x1="6.737" y1="7.5" x2="11.263" y2="7.5"/><path class="cls-1" d="M15.508,11a9.806,9.806,0,0,0-4.245-3.5c1.449-.77,2.492-2.783,2.7-5.134a.5.5,0,0,0-.629-.536A4.635,4.635,0,0,1,12.014,2a1.662,1.662,0,0,1-1.375-.646,2,2,0,0,0-3.278,0A1.662,1.662,0,0,1,5.986,2a4.635,4.635,0,0,1-1.319-.17.5.5,0,0,0-.629.536c.207,2.351,1.25,4.364,2.7,5.134A10.7,10.7,0,0,0,.5,17c0,4.694,3.806,6.5,8.5,6.5a13.5,13.5,0,0,0,3.965-.535"/><line class="cls-1" x1="23.498" y1="17" x2="10.003" y2="17"/><path class="cls-1" d="M17.1,23.359a.5.5,0,0,1-.7,0l-6.254-6.052a.5.5,0,0,1-.048-.655L12.689,13.2a.5.5,0,0,1,.4-.2h7.322a.5.5,0,0,1,.4.2L23.4,16.652a.5.5,0,0,1-.048.655Z"/><polygon class="cls-1" points="14 17 16.75 13 19.5 17 16.75 23.5 14 17"/><line class="cls-1" x1="13.089" y1="13" x2="14" y2="17"/><line class="cls-1" x1="20.411" y1="13" x2="19.5" y2="17"/></svg>