<svg id="Light" xmlns="http://www.w3.org/2000/svg" viewBox="0 0 24 24"><defs><style>.cls-1{fill:none;stroke:#000;stroke-linecap:round;stroke-linejoin:round;}</style></defs><title>casino-player-luck</title><path class="cls-1" d="M15.345,23.5v-3h1a3,3,0,0,0,3-3v-3h2.81a.5.5,0,0,0,.476-.653C20.681,7.784,19.115.5,11.345.5A9.921,9.921,0,0,0,1.387,9.336a9.724,9.724,0,0,0,3.958,8.775V23.5"/><path class="cls-1" d="M16.565,9.642l-4.72.82.82-4.72a1.5,1.5,0,0,1,2.95.51l-.09.53.53-.09a1.5,1.5,0,1,1,.51,2.95Z"/><path class="cls-1" d="M11.025,5.742l.82,4.72-4.72-.82a1.5,1.5,0,1,1,.51-2.95l.53.09-.09-.53a1.5,1.5,0,0,1,2.95-.51Z"/><path class="cls-1" d="M16.565,11.282l-4.72-.82.82,4.72a1.5,1.5,0,0,0,2.95-.51l-.09-.53.53.09a1.5,1.5,0,1,0,.51-2.95Z"/><path class="cls-1" d="M11.025,15.182l.82-4.72-4.72.82a1.5,1.5,0,1,0,.51,2.95l.53-.09-.09.53a1.5,1.5,0,1,0,2.95.51Z"/></svg>