<svg id="Light" xmlns="http://www.w3.org/2000/svg" viewBox="0 0 24 24"><defs><style>.cls-1{fill:none;stroke:#000;stroke-linecap:round;stroke-linejoin:round;}</style></defs><title>casino-gold-bars</title><circle class="cls-1" cx="18.5" cy="17" r="5"/><circle class="cls-1" cx="18.5" cy="17" r="3"/><line class="cls-1" x1="18.5" y1="12" x2="18.5" y2="14"/><line class="cls-1" x1="14.964" y1="13.464" x2="16.379" y2="14.879"/><line class="cls-1" x1="13.5" y1="17" x2="15.5" y2="17"/><line class="cls-1" x1="14.964" y1="20.536" x2="16.379" y2="19.121"/><line class="cls-1" x1="18.5" y1="22" x2="18.5" y2="20"/><line class="cls-1" x1="22.036" y1="20.536" x2="20.621" y2="19.121"/><line class="cls-1" x1="23.5" y1="17" x2="21.5" y2="17"/><line class="cls-1" x1="22.036" y1="13.464" x2="20.621" y2="14.879"/><line class="cls-1" x1="18.5" y1="16" x2="18.5" y2="18"/><line class="cls-1" x1="19.5" y1="17" x2="17.5" y2="17"/><path class="cls-1" d="M9.75,12a.25.25,0,0,0,.224-.362L8.931,9.553A1,1,0,0,0,8.036,9H6.273a1,1,0,0,0-.895.553L4.335,11.638A.25.25,0,0,0,4.559,12Z"/><path class="cls-1" d="M16.934,10.176l-.312-.623A1,1,0,0,0,15.727,9H13.964a1,1,0,0,0-.895.553l-1.043,2.085A.25.25,0,0,0,12.25,12H13.6"/><path class="cls-1" d="M5.941,17a.25.25,0,0,0,.224-.362L5.122,14.553A1,1,0,0,0,4.227,14H2.464a1,1,0,0,0-.895.553L.526,16.638A.25.25,0,0,0,.75,17Z"/><path class="cls-1" d="M12.156,14.038A1,1,0,0,0,11.882,14H10.118a1,1,0,0,0-.894.553L8.181,16.638A.25.25,0,0,0,8.4,17h3.1"/><path class="cls-1" d="M13.6,7a.25.25,0,0,0,.224-.362L12.776,4.553A1,1,0,0,0,11.882,4H10.118a1,1,0,0,0-.894.553L8.181,6.638A.25.25,0,0,0,8.4,7Z"/><line class="cls-1" x1="2.5" y1="3" x2="2.5" y2="7"/><line class="cls-1" x1="4.5" y1="5" x2="0.5" y2="5"/><line class="cls-1" x1="19.5" y1="0.5" x2="19.5" y2="4.5"/><line class="cls-1" x1="21.5" y1="2.5" x2="17.5" y2="2.5"/></svg>