<svg id="Light" xmlns="http://www.w3.org/2000/svg" viewBox="0 0 24 24"><defs><style>.cls-1{fill:none;stroke:#000;stroke-linecap:round;stroke-linejoin:round;}</style></defs><title>casino-global-chip</title><circle class="cls-1" cx="17.5" cy="17.5" r="6"/><circle class="cls-1" cx="17.5" cy="17.5" r="3"/><line class="cls-1" x1="17.5" y1="11.5" x2="17.5" y2="14.5"/><line class="cls-1" x1="12.304" y1="14.5" x2="14.902" y2="16"/><line class="cls-1" x1="12.304" y1="20.5" x2="14.902" y2="19"/><line class="cls-1" x1="17.5" y1="23.5" x2="17.5" y2="20.5"/><line class="cls-1" x1="22.696" y1="20.5" x2="20.098" y2="19"/><line class="cls-1" x1="22.696" y1="14.5" x2="20.098" y2="16"/><path class="cls-1" d="M20.491,10.078A10,10,0,1,0,10.078,20.491"/><path class="cls-1" d="M9.179,20.413C7.619,18.981,6.5,15.083,6.5,10.5S7.619,2.019,9.179.587"/><path class="cls-1" d="M11.821.586c1.441,1.323,2.506,4.75,2.66,8.878"/><line class="cls-1" x1="2.499" y1="4.5" x2="18.501" y2="4.5"/><line class="cls-1" x1="2.499" y1="16.5" x2="9.515" y2="16.5"/><line class="cls-1" x1="0.5" y1="10.5" x2="12.493" y2="10.5"/></svg>