<svg id="Light" xmlns="http://www.w3.org/2000/svg" viewBox="0 0 24 24"><defs><style>.cls-1{fill:none;stroke:#000;stroke-linecap:round;stroke-linejoin:round;}</style></defs><title>cat-cat-ball</title><circle class="cls-1" cx="12" cy="12" r="11"/><line class="cls-1" x1="13.5" y1="1.102" x2="13.5" y2="22.899"/><line class="cls-1" x1="10.5" y1="22.899" x2="10.5" y2="1.102"/><line class="cls-1" x1="4.5" y1="12" x2="7.5" y2="12"/><path class="cls-1" d="M4.572,7.518A13.142,13.142,0,0,1,7.549,6.5"/><path class="cls-1" d="M7.5,17.533A13.065,13.065,0,0,1,4.521,16.5"/><line class="cls-1" x1="19.5" y1="12" x2="16.5" y2="12"/><path class="cls-1" d="M19.428,7.518A13.142,13.142,0,0,0,16.451,6.5"/><path class="cls-1" d="M16.5,17.533A13.065,13.065,0,0,0,19.479,16.5"/><path class="cls-1" d="M2.289,6.829A17.515,17.515,0,0,1,3,12a17.527,17.527,0,0,1-.711,5.172"/><path class="cls-1" d="M21.711,6.829A17.515,17.515,0,0,0,21,12a17.527,17.527,0,0,0,.711,5.172"/></svg>