<svg id="Light" xmlns="http://www.w3.org/2000/svg" viewBox="0 0 24 24"><defs><style>.cls-1{fill:none;stroke:#000;stroke-linecap:round;stroke-linejoin:round;}</style></defs><title>cat-lost</title><path class="cls-1" d="M6,12.9V7.4a5,5,0,0,1,10,0v5.5"/><path class="cls-1" d="M8.922,2.852,5.424.666C5.191.52,5.034.623,5.076.9L6.016,7"/><path class="cls-1" d="M13.078,2.852l3.5-2.186c.233-.146.39-.043.348.229L15.984,7"/><path class="cls-1" d="M8.5,7.151a.25.25,0,0,1,.25.25"/><path class="cls-1" d="M8.25,7.4a.25.25,0,0,1,.25-.25"/><path class="cls-1" d="M8.5,7.651a.25.25,0,0,1-.25-.25"/><path class="cls-1" d="M8.75,7.4a.25.25,0,0,1-.25.25"/><path class="cls-1" d="M13.5,7.151a.25.25,0,0,1,.25.25"/><path class="cls-1" d="M13.25,7.4a.25.25,0,0,1,.25-.25"/><path class="cls-1" d="M13.5,7.651a.25.25,0,0,1-.25-.25"/><path class="cls-1" d="M13.75,7.4a.25.25,0,0,1-.25.25"/><line class="cls-1" x1="11" y1="9.901" x2="10.5" y2="9.401"/><line class="cls-1" x1="11.5" y1="9.401" x2="11" y2="9.901"/><line class="cls-1" x1="10.5" y1="9.401" x2="11.5" y2="9.401"/><line class="cls-1" x1="19" y1="15.401" x2="23" y2="15.401"/><path class="cls-1" d="M11,21.4a2,2,0,0,1-4,0v-4a2,2,0,0,1,4,0Z"/><path class="cls-1" d="M1,15.4v6.5a1.5,1.5,0,0,0,1.5,1.5H5"/><path class="cls-1" d="M16.975,15.4H14.829A1.854,1.854,0,0,0,14,18.913l1.95.975a1.854,1.854,0,0,1-.829,3.513H12.975"/><line class="cls-1" x1="21" y1="15.401" x2="21" y2="23.401"/></svg>