<svg id="Light" xmlns="http://www.w3.org/2000/svg" viewBox="0 0 24 24"><defs><style>.cls-1{fill:none;stroke:#000;stroke-linecap:round;stroke-linejoin:round;}</style></defs><title>cat-mouse-toy</title><path class="cls-1" d="M20.161,14.5H10.347c-6.257,0-4.045-10.323.589-9C24.936,9.5,23.87,14.5,20.161,14.5Z"/><line class="cls-1" x1="14.436" y1="2" x2="14.436" y2="6.628"/><path class="cls-1" d="M18.436,2a1.509,1.509,0,0,1-1.515,1.5c-.836,0-2.485-1.5-2.485-1.5S16.085.5,16.921.5A1.508,1.508,0,0,1,18.436,2Z"/><path class="cls-1" d="M10.436,2a1.508,1.508,0,0,0,1.516,1.5c.836,0,2.484-1.5,2.484-1.5S12.788.5,11.952.5A1.507,1.507,0,0,0,10.436,2Z"/><path class="cls-1" d="M18.436,11.25a.25.25,0,0,1,.25.25"/><path class="cls-1" d="M18.186,11.5a.25.25,0,0,1,.25-.25"/><path class="cls-1" d="M18.436,11.75a.25.25,0,0,1-.25-.25"/><path class="cls-1" d="M18.686,11.5a.25.25,0,0,1-.25.25"/><path class="cls-1" d="M6.886,12.415s-5.45-.156-5.45,2.563,9,1.616,9,4.491S3.53,23.5,3.53,23.5"/></svg>