<svg id="Light" xmlns="http://www.w3.org/2000/svg" viewBox="0 0 24 24"><defs><style>.cls-1{fill:none;stroke:#000;stroke-linecap:round;stroke-linejoin:round;}</style></defs><title>cat-toy</title><path class="cls-1" d="M5.739,22.5a1,1,0,0,1-2,0V1.5a1,1,0,0,1,2,0Z"/><path class="cls-1" d="M5.739,4,8.166,2.112a2.58,2.58,0,0,1,3.3,3.965l-.549.489a2.745,2.745,0,1,0,3.765,3.993l.762-.763a2.007,2.007,0,0,1,2.92,2.753L15.239,15.5"/><path class="cls-1" d="M16.209,18.881c-.534-2.135-1.266-2.105-1.628.065l-.137.821A1.027,1.027,0,0,0,15.489,21a.931.931,0,0,0,.946-1.213Z"/><path class="cls-1" d="M19.036,16.764c-1.813-1.245-2.343-.738-1.176,1.127l.442.706a1.026,1.026,0,0,0,1.6.231.931.931,0,0,0-.094-1.535Z"/><path class="cls-1" d="M11.486,16.764c1.814-1.245,2.344-.738,1.177,1.127l-.442.706a1.026,1.026,0,0,1-1.6.231.931.931,0,0,1,.094-1.535Z"/></svg>