<svg id="Light" xmlns="http://www.w3.org/2000/svg" viewBox="0 0 24 24"><defs><style>.cls-1{fill:none;stroke:#000;stroke-linecap:round;stroke-linejoin:round;}</style></defs><title>cat-grass</title><line class="cls-1" x1="2.5" y1="18.394" x2="3" y2="23.394"/><line class="cls-1" x1="14" y1="23.394" x2="14.5" y2="18.394"/><path class="cls-1" d="M.5,17.394a1,1,0,0,0,1,1h14a1,1,0,0,0,0-2H1.5A1,1,0,0,0,.5,17.394Z"/><line class="cls-1" x1="3.25" y1="16.394" x2="1" y2="11.894"/><line class="cls-1" x1="4.953" y1="16.394" x2="3" y2="8.408"/><line class="cls-1" x1="6.552" y1="16.394" x2="6" y2="9.394"/><line class="cls-1" x1="13.766" y1="16.394" x2="15.02" y2="13.867"/><line class="cls-1" x1="12.062" y1="16.394" x2="12.79" y2="13.394"/><line class="cls-1" x1="10.47" y1="16.394" x2="10.849" y2="11.393"/><line class="cls-1" x1="8.5" y1="16.394" x2="8.5" y2="7.964"/><path class="cls-1" d="M19.16,3.494l0,0a6.67,6.67,0,0,0-2.324,0l0,0L12.907.684c-.224-.16-.407-.065-.407.21v7c0,3.5,2.462,4.5,5.5,4.5s5.5-1,5.5-4.5v-7c0-.275-.183-.37-.407-.21Z"/><path class="cls-1" d="M14.457,6.82a1.5,1.5,0,0,1,2.058.515"/><path class="cls-1" d="M19.5,7.394a1.5,1.5,0,0,1,2.049-.549"/><line class="cls-1" x1="18.5" y1="8.894" x2="17.5" y2="8.894"/><line class="cls-1" x1="18" y1="9.394" x2="18.5" y2="8.894"/><line class="cls-1" x1="17.5" y1="8.894" x2="18" y2="9.394"/></svg>