<svg id="Light" xmlns="http://www.w3.org/2000/svg" viewBox="0 0 24 24"><defs><style>.cls-1{fill:none;stroke:#000;stroke-linecap:round;stroke-linejoin:round;}</style></defs><title>cat-yarn-toy</title><circle class="cls-1" cx="9.519" cy="16.824" r="5.5"/><path class="cls-1" d="M13.4,12.926a12.074,12.074,0,0,0,3.889,1.768c8.2.922,6.511-8.338,4.793-9.507C22.081,5.187,20.818,12.921,13.4,12.926Z"/><path class="cls-1" d="M13.4,12.941C22.438,5.673,12.064-.314,8.7,2.3,8.7,2.3,15.672,5.88,13.4,12.941Z"/><path class="cls-1" d="M8.994,11.35a18.24,18.24,0,0,0,6,6"/><path class="cls-1" d="M6.256,12.4a18.32,18.32,0,0,0,7.692,7.689"/><path class="cls-1" d="M4.336,14.981a24.582,24.582,0,0,0,6.873,7.078"/><line class="cls-1" x1="3" y1="12.824" x2="1" y2="12.824"/><line class="cls-1" x1="2" y1="14.824" x2="0.5" y2="14.824"/></svg>