<svg id="Light" xmlns="http://www.w3.org/2000/svg" viewBox="0 0 24 24"><defs><style>.cls-1{fill:none;stroke:#000;stroke-linecap:round;stroke-linejoin:round;}</style></defs><title>cat-toy-1</title><path class="cls-1" d="M3.657,17.055a1,1,0,0,1-1.414-1.414L17.092.792a1,1,0,0,1,1.414,1.414Z"/><path class="cls-1" d="M16.739,3.974l3.051.381a2.58,2.58,0,0,1-.472,5.136l-.734-.043a2.745,2.745,0,1,0-.161,5.486H19.5a2.006,2.006,0,0,1,1.521,3.316,1.968,1.968,0,0,1-.28.268"/><line class="cls-1" x1="16.95" y1="17.501" x2="16.95" y2="18.501"/><line class="cls-1" x1="14.829" y1="18.38" x2="15.536" y2="19.087"/><line class="cls-1" x1="13.95" y1="20.501" x2="14.95" y2="20.501"/><line class="cls-1" x1="14.829" y1="22.622" x2="15.536" y2="21.915"/><line class="cls-1" x1="16.95" y1="23.501" x2="16.95" y2="22.501"/><line class="cls-1" x1="19.071" y1="22.622" x2="18.364" y2="21.915"/><line class="cls-1" x1="19.95" y1="20.501" x2="18.95" y2="20.501"/></svg>