<svg id="Light" xmlns="http://www.w3.org/2000/svg" viewBox="0 0 24 24"><defs><style>.cls-1{fill:none;stroke:#000;stroke-linecap:round;stroke-linejoin:round;}</style></defs><title>cat-yarn</title><circle class="cls-1" cx="9.798" cy="10.048" r="9.298"/><path class="cls-1" d="M13.93,1.717a12.183,12.183,0,0,1,1.251,5.4A12.241,12.241,0,0,1,6.615,18.788"/><path class="cls-1" d="M9.343.761a8.91,8.91,0,0,1,2.618,6.351,9.014,9.014,0,0,1-9.014,9.015c-.063,0-.126,0-.189,0"/><path class="cls-1" d="M5.394,1.857A5.8,5.8,0,0,1,.826,12.508"/><path class="cls-1" d="M18.725,7.443a12.284,12.284,0,0,1-4.206,3.646"/><path class="cls-1" d="M5.844,12.132A12.224,12.224,0,0,1,.533,9.263"/><path class="cls-1" d="M16.965,4.127a9.02,9.02,0,0,1-1.772,2.509"/><path class="cls-1" d="M8.326,9.263A9,9,0,0,1,1.6,5.657"/><path class="cls-1" d="M8.641,6.054A5.8,5.8,0,0,1,3.719,3.016"/><path class="cls-1" d="M13.885,18.4a12.26,12.26,0,0,1-3.061-1.849"/><path class="cls-1" d="M16.957,15.976a8.957,8.957,0,0,1-4-1.835"/><path class="cls-1" d="M18.606,12.907a5.773,5.773,0,0,1-4.12-1.72"/><path class="cls-1" d="M16.579,16.41h3.985a2.936,2.936,0,0,1,0,5.872H20.48a3.853,3.853,0,0,1-2.363-.978,1.386,1.386,0,0,0-1.957,0,7.709,7.709,0,0,1-4.726,1.957H9.744A5.3,5.3,0,0,1,6.5,21.915a1.91,1.91,0,0,0-2.692,0L2.457,23.261"/></svg>