<svg id="Light" xmlns="http://www.w3.org/2000/svg" viewBox="0 0 24 24"><defs><style>.cls-1{fill:none;stroke:#000;stroke-linecap:round;stroke-linejoin:round;}</style></defs><title>ceiling-ball-chandelier-retro-1</title><path class="cls-1" d="M18,7.312c-.946-.65-1.892-1.916-1.991-4.38a.5.5,0,0,1,.33-.491A1,1,0,0,0,16,.5H8a1,1,0,0,0-.339,1.941.5.5,0,0,1,.33.491C7.892,5.4,6.946,6.662,6,7.313"/><line class="cls-1" x1="3" y1="11.5" x2="3" y2="12.5"/><line class="cls-1" x1="1" y1="9.5" x2="5" y2="9.5"/><path class="cls-1" d="M2,9.5v1a1,1,0,0,0,2,0v-1"/><path class="cls-1" d="M4,5.809a.5.5,0,0,0-.724-.447L2,6V9.5H4Z"/><path class="cls-1" d="M4,2.5a1,1,0,0,1-2,0,3.66,3.66,0,0,1,.571-1.327.5.5,0,0,1,.858,0A3.649,3.649,0,0,1,4,2.5Z"/><line class="cls-1" x1="19" y1="9.5" x2="23" y2="9.5"/><path class="cls-1" d="M20,9.5v1a1,1,0,0,0,2,0v-1"/><path class="cls-1" d="M22,5.809a.5.5,0,0,0-.724-.447L20,6V9.5h2Z"/><path class="cls-1" d="M22,2.5a1,1,0,0,1-2,0,3.66,3.66,0,0,1,.571-1.327.5.5,0,0,1,.858,0A3.649,3.649,0,0,1,22,2.5Z"/><line class="cls-1" x1="21" y1="11.5" x2="21" y2="12.5"/><path class="cls-1" d="M4,10.5A4.177,4.177,0,0,0,7.5,12a4.618,4.618,0,0,0,2.95-.942A2.49,2.49,0,0,1,12,10.5a2.43,2.43,0,0,1,1.527.54A4.612,4.612,0,0,0,16.5,12,4.177,4.177,0,0,0,20,10.5"/><line class="cls-1" x1="12" y1="10.5" x2="12" y2="17.5"/><path class="cls-1" d="M12.48,19.74a.6.6,0,0,0-.96,0l-1.05,1.4a.6.6,0,0,0,0,.72l1.05,1.4a.6.6,0,0,0,.96,0l1.05-1.4a.6.6,0,0,0,0-.72Z"/><line class="cls-1" x1="6" y1="11.796" x2="6" y2="13.5"/><line class="cls-1" x1="9" y1="11.796" x2="9" y2="14.5"/><line class="cls-1" x1="18" y1="11.796" x2="18" y2="13.5"/><line class="cls-1" x1="15" y1="11.796" x2="15" y2="14.5"/><path class="cls-1" d="M3,14.75a.25.25,0,1,1-.25.25A.25.25,0,0,1,3,14.75"/><path class="cls-1" d="M6,16a.25.25,0,1,1-.25.25A.25.25,0,0,1,6,16"/><path class="cls-1" d="M9,17a.25.25,0,1,1-.25.25A.25.25,0,0,1,9,17"/><path class="cls-1" d="M21,14.75a.25.25,0,1,0,.25.25.25.25,0,0,0-.25-.25"/><path class="cls-1" d="M18,16a.25.25,0,1,0,.25.25A.25.25,0,0,0,18,16"/><path class="cls-1" d="M15,17a.25.25,0,1,0,.25.25A.25.25,0,0,0,15,17"/></svg>