<svg id="Light" xmlns="http://www.w3.org/2000/svg" viewBox="0 0 24 24"><defs><style>.cls-1{fill:none;stroke:#000;stroke-linecap:round;stroke-linejoin:round;}</style></defs><title>ceiling-lamp-ball-chandelier</title><line class="cls-1" x1="17.5" y1="7.5" x2="17.5" y2="0.5"/><path class="cls-1" d="M15.5,7.841a6,6,0,1,1,2,11.659"/><path class="cls-1" d="M16.5,14.479c.318.013.652.021,1,.021a14.515,14.515,0,0,0,6-1"/><path class="cls-1" d="M16.5,11.979c.318.013.651.021,1,.021a16.52,16.52,0,0,0,5.538-.812"/><path class="cls-1" d="M16.5,16.979c.318.013.651.021,1,.021a17.058,17.058,0,0,0,5.328-.739"/><path class="cls-1" d="M16.407,9.474c.346.017.711.026,1.093.026a19.222,19.222,0,0,0,4.078-.4"/><line class="cls-1" x1="7.5" y1="5.5" x2="7.5" y2="0.5"/><path class="cls-1" d="M5.258,19.133a6.994,6.994,0,1,1,9.083-5.14"/><path class="cls-1" d="M.5,12.5a24.417,24.417,0,0,0,7,1,24.417,24.417,0,0,0,7-1"/><path class="cls-1" d="M1.094,9.673A25.417,25.417,0,0,0,7.5,10.5a25.417,25.417,0,0,0,6.406-.827"/><path class="cls-1" d="M3.043,7.1A25.672,25.672,0,0,0,7.5,7.5a25.672,25.672,0,0,0,4.457-.4"/><path class="cls-1" d="M1.285,15.723a25.493,25.493,0,0,0,5.06.75"/><circle class="cls-1" cx="11.5" cy="19.5" r="4"/><path class="cls-1" d="M7.65,20.59a8.039,8.039,0,0,0,3.85.91,8.039,8.039,0,0,0,3.85-.91"/><path class="cls-1" d="M7.914,17.727A8.272,8.272,0,0,0,11.5,18.5a8.272,8.272,0,0,0,3.586-.773"/></svg>