<svg id="Light" xmlns="http://www.w3.org/2000/svg" viewBox="0 0 24 24"><defs><style>.cls-1{fill:none;stroke:#000;stroke-linecap:round;stroke-linejoin:round;}</style></defs><title>chair</title><line class="cls-1" x1="6.5" y1="0.5" x2="6.5" y2="12.5"/><line class="cls-1" x1="17.5" y1="0.5" x2="17.5" y2="12.5"/><line class="cls-1" x1="6.5" y1="1.5" x2="17.5" y2="1.5"/><line class="cls-1" x1="6.5" y1="4.5" x2="17.5" y2="4.5"/><line class="cls-1" x1="6.5" y1="6.5" x2="17.5" y2="6.5"/><line class="cls-1" x1="6.5" y1="9.5" x2="17.5" y2="9.5"/><line class="cls-1" x1="6.5" y1="12.5" x2="17.5" y2="12.5"/><line class="cls-1" x1="4.5" y1="17.5" x2="4.5" y2="23.5"/><line class="cls-1" x1="19.5" y1="17.5" x2="19.5" y2="23.5"/><path class="cls-1" d="M6.5,12.5,5.055,14.668A3.894,3.894,0,0,0,4.5,16.5v1h15v-1a3.894,3.894,0,0,0-.555-1.832L17.5,12.5"/><line class="cls-1" x1="6.5" y1="17.5" x2="6.5" y2="19.5"/><line class="cls-1" x1="17.5" y1="17.5" x2="17.5" y2="19.5"/><line class="cls-1" x1="4.678" y1="15.5" x2="19.322" y2="15.5"/></svg>