<svg id="Light" xmlns="http://www.w3.org/2000/svg" viewBox="0 0 24 24"><defs><style>.cls-1{fill:none;stroke:#000;stroke-linecap:round;stroke-linejoin:round;}</style></defs><title>chair-modern</title><path class="cls-1" d="M20.045,12H13.767A4,4,0,0,1,9.941,9.165L7.735,1.918A2,2,0,0,0,5.822.5H3.955a.5.5,0,0,0-.277.916l.776.517a2,2,0,0,1,.889,1.588l.313,8.133a4,4,0,0,0,4,3.846h9.321a.5.5,0,0,0,.46-.3l1.071-2.5A.5.5,0,0,0,20.045,12Z"/><line class="cls-1" x1="5.123" y1="22.679" x2="16.72" y2="18.142"/><line class="cls-1" x1="18.485" y1="22.679" x2="6.887" y2="18.142"/><line class="cls-1" x1="8.045" y1="15.164" x2="4.804" y2="23.5"/><line class="cls-1" x1="15.693" y1="15.5" x2="18.804" y2="23.5"/></svg>