<svg id="Light" xmlns="http://www.w3.org/2000/svg" viewBox="0 0 24 24"><defs><style>.cls-1{fill:none;stroke:#000;stroke-linecap:round;stroke-linejoin:round;}</style></defs><title>chair-1</title><path class="cls-1" d="M16.5,16.5v6a1,1,0,0,0,2,0v-6"/><line class="cls-1" x1="18.5" y1="14.5" x2="18.5" y2="8.5"/><line class="cls-1" x1="16.5" y1="8.5" x2="16.5" y2="14.5"/><path class="cls-1" d="M18.5,3.5v-2a1,1,0,0,0-2,0v2"/><path class="cls-1" d="M5.5,16.5v6a1,1,0,0,0,2,0v-6"/><line class="cls-1" x1="7.5" y1="14.5" x2="7.5" y2="8.5"/><line class="cls-1" x1="5.5" y1="8.5" x2="5.5" y2="14.5"/><path class="cls-1" d="M7.5,3.5v-2a1,1,0,0,0-2,0v2"/><rect class="cls-1" x="4.5" y="3.5" width="15" height="5" rx="0.5" ry="0.5"/><rect class="cls-1" x="3" y="14.5" width="18" height="2" rx="0.5" ry="0.5"/></svg>