<svg id="Light" xmlns="http://www.w3.org/2000/svg" viewBox="0 0 24 24"><defs><style>.cls-1{fill:none;stroke:#000;stroke-linecap:round;stroke-linejoin:round;}</style></defs><title>champagne-cheers</title><line class="cls-1" x1="6.352" y1="16.54" x2="3.8" y2="22.518"/><line class="cls-1" x1="1.5" y1="21.536" x2="6.099" y2="23.5"/><line class="cls-1" x1="7.063" y1="5.97" x2="13.5" y2="8.72"/><line class="cls-1" x1="8.398" y1="9.02" x2="8.398" y2="9.02"/><path class="cls-1" d="M8.4,9.02a.25.25,0,1,0,.132.328A.25.25,0,0,0,8.4,9.02"/><line class="cls-1" x1="9.898" y1="12.02" x2="9.898" y2="12.02"/><path class="cls-1" d="M9.9,12.02a.25.25,0,1,0,.132.328A.25.25,0,0,0,9.9,12.02"/><path class="cls-1" d="M17.02,9.083a.25.25,0,1,0,.328-.132h0a.25.25,0,0,0-.328.132"/><path class="cls-1" d="M17.52,13.083a.25.25,0,1,0,.328-.131h0a.25.25,0,0,0-.328.131"/><path class="cls-1" d="M19.02,11.083a.25.25,0,1,0,.328-.131h0a.25.25,0,0,0-.328.131"/><line class="cls-1" x1="6.898" y1="13.02" x2="6.898" y2="13.02"/><path class="cls-1" d="M6.9,13.02a.25.25,0,1,0,.132.328A.25.25,0,0,0,6.9,13.02"/><path class="cls-1" d="M4.246,11.291,9.468,1.513a.5.5,0,0,1,.637-.224l4.675,2a.5.5,0,0,1,.278.615L11.6,14.434a4,4,0,0,1-7.356-3.143Z"/><line class="cls-1" x1="18.963" y1="16.214" x2="20.034" y2="22.625"/><line class="cls-1" x1="22.5" y1="22.213" x2="17.568" y2="23.037"/><line class="cls-1" x1="20.768" y1="5.774" x2="16.477" y2="6.491"/><path class="cls-1" d="M14.359,12.927a4,4,0,1,0,7.891-1.318L19.483.875a.5.5,0,0,0-.567-.368L15.01,1.16"/></svg>