<svg id="Light" xmlns="http://www.w3.org/2000/svg" viewBox="0 0 24 24"><defs><style>.cls-1{fill:none;stroke:#000;stroke-linecap:round;stroke-linejoin:round;}</style></defs><title>champagne-bottle-glass</title><path class="cls-1" d="M5.948,9.846l.613.876a2.965,2.965,0,0,0,4.877,0l.614-.876-.062-.115A12.288,12.288,0,0,1,10.5,3.868V1A.5.5,0,0,0,10,.5H8a.5.5,0,0,0-.5.5V3.868A12.288,12.288,0,0,1,6.01,9.731,11.612,11.612,0,0,0,4.5,15.258V21.5a2.006,2.006,0,0,0,2,2H12"/><line class="cls-1" x1="4.5" y1="15.5" x2="11.5" y2="15.5"/><line class="cls-1" x1="4.5" y1="20.5" x2="11.5" y2="20.5"/><line class="cls-1" x1="7.5" y1="3.5" x2="10.5" y2="3.5"/><circle class="cls-1" cx="9" cy="9" r="1"/><line class="cls-1" x1="16.5" y1="19.5" x2="16.5" y2="23.5"/><line class="cls-1" x1="14" y1="23.5" x2="19" y2="23.5"/><line class="cls-1" x1="16.75" y1="14.5" x2="16.75" y2="14.5"/><path class="cls-1" d="M16.75,14.5a.25.25,0,1,0,.25.25.25.25,0,0,0-.25-.25"/><line class="cls-1" x1="16.25" y1="17" x2="16.25" y2="17"/><path class="cls-1" d="M16.25,17a.25.25,0,1,0,.25.25.25.25,0,0,0-.25-.25"/><line class="cls-1" x1="13.952" y1="12.5" x2="19.048" y2="12.5"/><path class="cls-1" d="M14.934,8.5a.5.5,0,0,0-.495.43c-.217,1.543-.939,6.748-.939,7.57a3,3,0,0,0,6,0c0-.822-.722-6.027-.939-7.57a.5.5,0,0,0-.5-.43Z"/></svg>