<svg xmlns="http://www.w3.org/2000/svg" viewBox="0 0 24 24"><defs><style>.a{fill:none;stroke:#000;stroke-linecap:round;stroke-linejoin:round;}</style></defs><title>check-payment-give</title><path class="a" d="M14,12.5l.751-.751a1,1,0,0,1,1.677.464l.072.287.818-.545a1,1,0,0,1,1.262.125l.42.42h2"/><path class="a" d="M3.5,11.5v-7a1,1,0,0,1,1-1h18a1,1,0,0,1,1,1v9a1,1,0,0,1-1,1h-10"/><line class="a" x1="12.504" y1="9.5" x2="9.504" y2="9.5"/><line class="a" x1="7.504" y1="9.5" x2="6.504" y2="9.5"/><line class="a" x1="13.504" y1="7.5" x2="6.504" y2="7.5"/><rect class="a" x="16.504" y="6.5" width="5" height="2" rx="0.5" ry="0.5"/><line class="a" x1="3.504" y1="10" x2="0.504" y2="11.5"/><path class="a" d="M9.8,14.5q.387-.418.754-.859l.238-.286a1,1,0,0,0-.213-1.472,1.231,1.231,0,0,0-1.2-.094L3.5,14.5"/><path class="a" d="M.5,20.5a22.233,22.233,0,0,0,9.3-6"/><path class="a" d="M15.231,14.5l-3.152,3.806a1,1,0,0,1-1.325.194l-.115-.076a1,1,0,0,1-.394-1.149L10.5,16.5"/><path class="a" d="M16.6,14.5l-.843,4.216a1,1,0,0,1-1.428.7l-.276-.138a1,1,0,0,1-.553-.894v-1.8"/></svg>