<svg id="Light" xmlns="http://www.w3.org/2000/svg" viewBox="0 0 24 24"><defs><style>.cls-1{fill:none;stroke:#000;stroke-linecap:round;stroke-linejoin:round;}</style></defs><title>chef-gear-tacos</title><path class="cls-1" d="M13.66,12.317a1,1,0,0,1,1.522.126,7,7,0,0,1-9.763,9.763,1,1,0,0,1-.125-1.523A54.526,54.526,0,0,1,13.66,12.317Z"/><path class="cls-1" d="M6.346,19.433A6.685,6.685,0,0,1,3.4,18.259.959.959,0,0,1,3.281,16.8,39.3,39.3,0,0,1,11.3,8.781a.96.96,0,0,1,1.459.12,6.684,6.684,0,0,1,1.206,3.207"/><path class="cls-1" d="M10.908,9.075a2.311,2.311,0,0,1,.535,1.472A2.572,2.572,0,0,1,8.767,13a2.817,2.817,0,0,1-1.7-.562"/><path class="cls-1" d="M4.275,15.532A1.8,1.8,0,0,1,5.818,17.25a1.77,1.77,0,0,1-1.29,1.656"/><path class="cls-1" d="M4.693,15.026a6.238,6.238,0,0,1-4.03-2.544.893.893,0,0,1,.343-1.318,31.073,31.073,0,0,1,9.5-4.576.893.893,0,0,1,1.244.555A6.186,6.186,0,0,1,11.989,8.5"/><path class="cls-1" d="M6.22,8.162a2.25,2.25,0,1,1-3.953,2.152"/><ellipse class="cls-1" cx="19" cy="2.5" rx="3.5" ry="2"/><path class="cls-1" d="M15.5,2.5V3a3.5,3.5,0,0,0,7,0V2.5"/><path class="cls-1" d="M22.787,11.955a1,1,0,0,1,.671,1.245l-.543,1.808a2.48,2.48,0,0,1-3.145,1.784,1.911,1.911,0,0,1-1.358-1.412.351.351,0,0,1,.433-.434c2.117.593,2.006-.019,2.7-2.321A1,1,0,0,1,22.787,11.955Z"/><path class="cls-1" d="M21.46,12.9c-.855-.639-.393-1.247.375-3A1,1,0,1,0,20,9.1l-.758,1.73a2.48,2.48,0,0,0,1.242,3.395,2.167,2.167,0,0,0,.519.157"/><path class="cls-1" d="M10.963,23.341a2.251,2.251,0,0,0-4.3-.43"/><path class="cls-1" d="M8,17.579A1.5,1.5,0,1,0,9.523,16"/><path class="cls-1" d="M16.46,16.015a2.75,2.75,0,0,0-1.493,4.829"/><path class="cls-1" d="M12.166,13.544a2.75,2.75,0,0,0,3.809.348"/></svg>