<svg id="Light" xmlns="http://www.w3.org/2000/svg" viewBox="0 0 24 24"><defs><style>.cls-1{fill:none;stroke:#000;stroke-linecap:round;stroke-linejoin:round;}</style></defs><title>chef-gear-biscuits-cup</title><path class="cls-1" d="M5.647,10.5a.5.5,0,0,0-.484.626L8,22v.5a1,1,0,0,0,1,1h6a1,1,0,0,0,1-1V22l2.837-10.874a.5.5,0,0,0-.484-.626Z"/><path class="cls-1" d="M7.567,10.5,5.374,3.776A2.5,2.5,0,0,1,6.975.624h0a2.5,2.5,0,0,1,3.152,1.6L12.045,8.1"/><line class="cls-1" x1="7.596" y1="2.525" x2="9.447" y2="8.201"/><path class="cls-1" d="M11.253,10.5,13.7,3.088A2.5,2.5,0,0,1,16.859,1.5h0a2.5,2.5,0,0,1,1.589,3.158L16.518,10.5"/><line class="cls-1" x1="16.231" y1="3.397" x2="14.616" y2="8.289"/></svg>