<svg id="Light" xmlns="http://www.w3.org/2000/svg" viewBox="0 0 24 24"><defs><style>.cls-1{fill:none;stroke:#000;stroke-linecap:round;stroke-linejoin:round;}</style></defs><title>chef-gear-tea-cookies</title><ellipse class="cls-1" cx="17.5" cy="16.5" rx="6" ry="2.5"/><path class="cls-1" d="M23.5,16.5c0,3.866-2.186,7-5.5,7H17c-3.314,0-5.5-3.134-5.5-7"/><path class="cls-1" d="M8,7V8.5a1,1,0,0,0,1,1h7.5a1,1,0,0,0,1-1V7a1,1,0,0,0-1-1H9a.97.97,0,0,0-.271.038"/><path class="cls-1" d="M9.5,5.02a1,1,0,0,0,1,.98H18a1,1,0,0,0,1-1V3.5a1,1,0,0,0-1-1H11.224"/><rect class="cls-1" x="2.614" y="3.191" width="9.5" height="3.5" rx="1" ry="1" transform="translate(-1.023 7.822) rotate(-52.815)"/><path class="cls-1" d="M18.5,11.857c2.443-.917,4-2.3,4-3.857,0-1.444-1.347-2.744-3.5-3.657"/><path class="cls-1" d="M6.164,3.627C2.786,4.48.5,6.119.5,8c0,2.761,4.925,5,11,5"/></svg>