<svg id="Light" xmlns="http://www.w3.org/2000/svg" viewBox="0 0 24 24"><defs><style>.cls-1{fill:none;stroke:#000;stroke-linecap:round;stroke-linejoin:round;}</style></defs><title>chef-gear-hat-moustache</title><line class="cls-1" x1="5.5" y1="13" x2="18.5" y2="13"/><path class="cls-1" d="M19.951,3.952a3.02,3.02,0,0,0-2.4-2.4,2.981,2.981,0,0,0-2.742.918,2.985,2.985,0,0,0-5.612,0,2.981,2.981,0,0,0-2.742-.918,3.02,3.02,0,0,0-2.4,2.4A2.985,2.985,0,0,0,5.5,7.084V15.5A.5.5,0,0,0,6,16H18a.5.5,0,0,0,.5-.5V7.084A2.985,2.985,0,0,0,19.951,3.952Z"/><line class="cls-1" x1="8.5" y1="10" x2="8.5" y2="13"/><line class="cls-1" x1="12" y1="10" x2="12" y2="13"/><line class="cls-1" x1="15.5" y1="10" x2="15.5" y2="13"/><path class="cls-1" d="M12,20.781c0,3-6.5,4-6.5.5a1.844,1.844,0,0,1,.12-.661,2.546,2.546,0,0,0,.88.161c2.377,0,1.5-2,3.5-2A2.005,2.005,0,0,1,12,20.781Z"/><path class="cls-1" d="M12,20.781c0,3,6.5,4,6.5.5a1.844,1.844,0,0,0-.12-.661,2.546,2.546,0,0,1-.88.161c-2.377,0-1.5-2-3.5-2A2.005,2.005,0,0,0,12,20.781Z"/></svg>