<svg id="Light" xmlns="http://www.w3.org/2000/svg" viewBox="0 0 24 24"><defs><style>.cls-1{fill:none;stroke:#000;stroke-linecap:round;stroke-linejoin:round;}</style></defs><title>chess-rook</title><rect class="cls-1" x="3.5" y="20.5" width="17" height="3" rx="0.5" ry="0.5"/><path class="cls-1" d="M19.5,20.5a3,3,0,0,0-3-3h-9a3,3,0,0,0-3,3Z"/><rect class="cls-1" x="7.5" y="8.5" width="9" height="9"/><path class="cls-1" d="M18.5,6a.5.5,0,0,1-.5.5H6A.5.5,0,0,1,5.5,6V1A.5.5,0,0,1,6,.5H8a.5.5,0,0,1,.5.5V2.5h2V1A.5.5,0,0,1,11,.5h2a.5.5,0,0,1,.5.5V2.5h2V1A.5.5,0,0,1,16,.5h2a.5.5,0,0,1,.5.5Z"/><path class="cls-1" d="M6.5,6.5h11a0,0,0,0,1,0,0V8a.5.5,0,0,1-.5.5H7A.5.5,0,0,1,6.5,8V6.5A0,0,0,0,1,6.5,6.5Z"/></svg>