<svg id="Light" xmlns="http://www.w3.org/2000/svg" viewBox="0 0 24 24"><defs><style>.cls-1{fill:none;stroke:#000;stroke-linecap:round;stroke-linejoin:round;}</style></defs><title>chicken-hatch</title><path class="cls-1" d="M13.5,4.25a.25.25,0,0,1,.25.25"/><path class="cls-1" d="M13.25,4.5a.25.25,0,0,1,.25-.25"/><path class="cls-1" d="M13.5,4.75a.25.25,0,0,1-.25-.25"/><path class="cls-1" d="M13.75,4.5a.25.25,0,0,1-.25.25"/><path class="cls-1" d="M10,12,7.5,14.5,5,12a15.649,15.649,0,0,0-.5,4,7.5,7.5,0,0,0,15,0,15.689,15.689,0,0,0-.5-4l-2.5,2.5L14,12l-2,2Z"/><line class="cls-1" x1="16.5" y1="5" x2="16.5" y2="10.5"/><path class="cls-1" d="M12,.5A4.5,4.5,0,0,1,16.5,5"/><path class="cls-1" d="M7.5,5A4.5,4.5,0,0,1,12,.5"/><line class="cls-1" x1="7.5" y1="10.5" x2="7.5" y2="5"/><path class="cls-1" d="M16.5,5A2.5,2.5,0,0,1,19,7.5H16.5"/></svg>