<svg id="Light" xmlns="http://www.w3.org/2000/svg" viewBox="0 0 24 24"><defs><style>.cls-1{fill:none;stroke:#000;stroke-linecap:round;stroke-linejoin:round;}</style></defs><title>chick-1</title><path class="cls-1" d="M20.5,7.5a3,3,0,0,1,3,3h-3"/><path class="cls-1" d="M4,13.5A3.5,3.5,0,0,0,7.5,10V7a6.5,6.5,0,0,1,13,0v6.5a10,10,0,0,1-20,0Z"/><path class="cls-1" d="M16.5,15.5a5,5,0,0,1-10,0h6"/><path class="cls-1" d="M16,5.75a.25.25,0,0,1,.25.25"/><path class="cls-1" d="M15.75,6A.25.25,0,0,1,16,5.75"/><path class="cls-1" d="M16,6.25A.25.25,0,0,1,15.75,6"/><path class="cls-1" d="M16.25,6a.25.25,0,0,1-.25.25"/></svg>