<svg id="Light" xmlns="http://www.w3.org/2000/svg" viewBox="0 0 24 24"><defs><style>.cls-1{fill:none;stroke:#000;stroke-linecap:round;stroke-linejoin:round;}</style></defs><title>chick-1_1</title><path class="cls-1" d="M23.5,9a2,2,0,0,0-2-2,2,2,0,0,0,2-2"/><path class="cls-1" d="M17.508,5.75a.25.25,0,0,1,.25.25"/><path class="cls-1" d="M17.258,6a.25.25,0,0,1,.25-.25"/><path class="cls-1" d="M17.508,6.25a.25.25,0,0,1-.25-.25"/><path class="cls-1" d="M17.758,6a.25.25,0,0,1-.25.25"/><path class="cls-1" d="M16.508,14A5,5,0,0,1,7.14,16.436"/><path class="cls-1" d="M21.5,7a5,5,0,1,0-8.317,3.741A2.5,2.5,0,0,1,11.014,12h-4.5A3,3,0,0,1,3.511,9c-5,0-4.489,12.992,7,12.992A9.994,9.994,0,0,0,20.508,12a4.5,4.5,0,0,0-.307-1.638A4.981,4.981,0,0,0,21.5,7Z"/></svg>