<svg id="Light" xmlns="http://www.w3.org/2000/svg" viewBox="0 0 24 24"><defs><style>.cls-1{fill:none;stroke:#000;stroke-linecap:round;stroke-linejoin:round;}</style></defs><title>chicken-mother</title><path class="cls-1" d="M18,10a20.478,20.478,0,0,1-1.5-7A2.5,2.5,0,1,1,19,5.5,13.608,13.608,0,0,1,21.5,11c.5,3-1,5-6,5S9,12,9.5,9C11.761,7.667,15.388,6.877,18,10Z"/><path class="cls-1" d="M21.5,2.5s2,1.5,2,2.5-3,0-3,0"/><path class="cls-1" d="M16.5,12s-4.256,1.209-5.256-3.791"/><path class="cls-1" d="M19.25,2.5a.25.25,0,0,0-.25.25"/><path class="cls-1" d="M19.5,2.75a.25.25,0,0,0-.25-.25"/><path class="cls-1" d="M19.25,3a.25.25,0,0,0,.25-.25"/><path class="cls-1" d="M19,2.75a.25.25,0,0,0,.25.25"/><line class="cls-1" x1="18.5" y1="15.672" x2="18.5" y2="17.5"/><line class="cls-1" x1="15" y1="15.986" x2="15" y2="17.5"/><path class="cls-1" d="M10.5,17h-1A1.326,1.326,0,0,0,8,15.5a1.3,1.3,0,0,0-1,2c.5,1,1.5,1,2,2.5.354,1.061-.5,2.5-2.5,2a2.638,2.638,0,0,1-2-2.5c1-1,3.3-1.1,3.3-1.1"/><line class="cls-1" x1="8" y1="21.984" x2="8" y2="23.5"/><line class="cls-1" x1="6.5" y1="22" x2="6" y2="23.5"/><path class="cls-1" d="M6.5,10.5h-1A1.326,1.326,0,0,0,4,9a1.3,1.3,0,0,0-1,2c.5,1,1.5,1,2,2.5.354,1.061-.5,2.5-2.5,2A2.638,2.638,0,0,1,.5,13c1-1,3.3-1.1,3.3-1.1"/><line class="cls-1" x1="4" y1="15.485" x2="4" y2="17"/><line class="cls-1" x1="2.5" y1="15.5" x2="2" y2="17"/></svg>