<svg id="Light" xmlns="http://www.w3.org/2000/svg" viewBox="0 0 24 24"><defs><style>.cls-1{fill:none;stroke:#000;stroke-linecap:round;stroke-linejoin:round;}</style></defs><title>chocolate-bar</title><path class="cls-1" d="M19.5,21.5a2,2,0,0,1-2,2H6.5a2,2,0,0,1-2-2V13a.5.5,0,0,1,.5-.5H19a.5.5,0,0,1,.5.5Z"/><path class="cls-1" d="M18.5,1.5a1,1,0,0,0-1-1H6.5a1,1,0,0,0-1,1v11h13Z"/><path class="cls-1" d="M19.5,13l-1.019,2.711a3,3,0,0,1-4.288,1.554l-4.517-2.56"/><line class="cls-1" x1="12" y1="12.5" x2="12" y2="0.5"/><line class="cls-1" x1="5.5" y1="6.5" x2="18.5" y2="6.5"/><line class="cls-1" x1="5.5" y1="6.5" x2="12" y2="0.5"/><line class="cls-1" x1="5.5" y1="12.5" x2="18.195" y2="0.781"/><line class="cls-1" x1="12" y1="12.5" x2="18.5" y2="6.5"/></svg>