<svg id="Light" xmlns="http://www.w3.org/2000/svg" viewBox="0 0 24 24"><defs><style>.cls-1{fill:none;stroke:#000;stroke-linecap:round;stroke-linejoin:round;}</style></defs><title>christmas-tree-ornament</title><circle class="cls-1" cx="12" cy="14" r="9.5"/><path class="cls-1" d="M12,4.5a9.492,9.492,0,0,1,2,.215V3.5a1,1,0,0,0-1-1H11a1,1,0,0,0-1,1V4.715A9.485,9.485,0,0,1,12,4.5Z"/><line class="cls-1" x1="12" y1="2.5" x2="12" y2="0.5"/><rect class="cls-1" x="10.939" y="12.939" width="2.121" height="2.121" rx="0.5" ry="0.5" transform="translate(-6.385 12.586) rotate(-45)"/><rect class="cls-1" x="4.939" y="12.939" width="2.121" height="2.121" rx="0.5" ry="0.5" transform="translate(-8.142 8.343) rotate(-45)"/><rect class="cls-1" x="16.939" y="12.939" width="2.121" height="2.121" rx="0.5" ry="0.5" transform="translate(-4.627 16.828) rotate(-45)"/><path class="cls-1" d="M2.637,12.382,5.648,9.8a.5.5,0,0,1,.679.026L9,12.5l2.646-2.646a.5.5,0,0,1,.708,0L15,12.5l2.673-2.673a.5.5,0,0,1,.679-.026l3.012,2.582"/><path class="cls-1" d="M2.637,15.618,5.648,18.2a.5.5,0,0,0,.679-.026L9,15.5l2.646,2.646a.5.5,0,0,0,.708,0L15,15.5l2.673,2.673a.5.5,0,0,0,.679.026l3.012-2.582"/></svg>