<svg id="Light" xmlns="http://www.w3.org/2000/svg" viewBox="0 0 24 24"><defs><style>.cls-1{fill:none;stroke:#000;stroke-linecap:round;stroke-linejoin:round;}</style></defs><title>christmas-flower</title><ellipse class="cls-1" cx="12" cy="10.893" rx="1.84" ry="1.824"/><path class="cls-1" d="M13.075,9.413a4.676,4.676,0,0,0,1.275-2.89,6.961,6.961,0,0,0-1.979-4.148A.5.5,0,0,0,12,2.21a.506.506,0,0,0-.372.166A6.957,6.957,0,0,0,9.65,6.523a4.676,4.676,0,0,0,1.275,2.89"/><path class="cls-1" d="M10.925,9.413A4.681,4.681,0,0,0,8.57,7.308a6.959,6.959,0,0,0-4.556.6.5.5,0,0,0-.229.706,6.953,6.953,0,0,0,3.333,3.164,4.677,4.677,0,0,0,3.142-.32"/><path class="cls-1" d="M10.26,11.458a4.684,4.684,0,0,0-2.73,1.589,6.957,6.957,0,0,0-.837,4.519.5.5,0,0,0,.6.436,6.955,6.955,0,0,0,4.038-2.192A4.677,4.677,0,0,0,12,12.722"/><path class="cls-1" d="M12,12.722a4.682,4.682,0,0,0,.667,3.088A6.957,6.957,0,0,0,16.706,18a.5.5,0,0,0,.4-.085.5.5,0,0,0,.2-.351,6.963,6.963,0,0,0-.837-4.519,4.687,4.687,0,0,0-2.73-1.589"/><path class="cls-1" d="M13.74,11.458a4.677,4.677,0,0,0,3.142.32,6.964,6.964,0,0,0,3.334-3.164.5.5,0,0,0-.23-.706,6.961,6.961,0,0,0-4.556-.6,4.681,4.681,0,0,0-2.355,2.105"/><path class="cls-1" d="M14.75,17.376a10.112,10.112,0,0,1-2.368,5.432.5.5,0,0,1-.764,0A10.108,10.108,0,0,1,9.25,17.376"/><path class="cls-1" d="M6.684,15.512a10.108,10.108,0,0,1-5.9-.574.5.5,0,0,1-.235-.726,10.1,10.1,0,0,1,4.433-3.931"/><path class="cls-1" d="M5.964,7.265A10.111,10.111,0,0,1,4.688,1.478a.5.5,0,0,1,.618-.448,10.1,10.1,0,0,1,5.108,3"/><path class="cls-1" d="M13.586,4.032a10.112,10.112,0,0,1,5.108-3,.5.5,0,0,1,.618.45,10.116,10.116,0,0,1-1.276,5.786"/><path class="cls-1" d="M19.016,10.281a10.115,10.115,0,0,1,4.434,3.931.5.5,0,0,1-.237.726,10.1,10.1,0,0,1-5.9.574"/></svg>