<svg id="Light" xmlns="http://www.w3.org/2000/svg" viewBox="0 0 24 24"><defs><style>.cls-1{fill:none;stroke:#000;stroke-linecap:round;stroke-linejoin:round;}</style></defs><title>christmas-gift</title><path class="cls-1" d="M.5,15.759a4,4,0,0,0,4,4h1"/><path class="cls-1" d="M6,12.759h9.5a0,0,0,0,1,0,0v7a0,0,0,0,1,0,0H5.5a0,0,0,0,1,0,0v-6.5A.5.5,0,0,1,6,12.759Z"/><path class="cls-1" d="M15.5,9.759H23a.5.5,0,0,1,.5.5v9a.5.5,0,0,1-.5.5H15.5a0,0,0,0,1,0,0v-10A0,0,0,0,1,15.5,9.759Z"/><line class="cls-1" x1="19.5" y1="9.759" x2="19.5" y2="19.759"/><line class="cls-1" x1="15.5" y1="14.759" x2="23.5" y2="14.759"/><path class="cls-1" d="M8,3.759h7a.5.5,0,0,1,.5.5v8.519a0,0,0,0,1,0,0h-8a0,0,0,0,1,0,0V4.259A.5.5,0,0,1,8,3.759Z"/><line class="cls-1" x1="7.5" y1="8.759" x2="12.5" y2="3.759"/><line class="cls-1" x1="5.5" y1="16.759" x2="15.5" y2="16.759"/><line class="cls-1" x1="9.5" y1="12.759" x2="9.5" y2="19.759"/><path class="cls-1" d="M16.44,9.259a13.3,13.3,0,0,0,3.06.5,13.31,13.31,0,0,0-1.871-2.472A1.151,1.151,0,0,0,16.44,9.259Z"/><path class="cls-1" d="M22.56,9.259a13.3,13.3,0,0,1-3.06.5,13.31,13.31,0,0,1,1.871-2.472A1.151,1.151,0,0,1,22.56,9.259Z"/><path class="cls-1" d="M8.907,3.035a11.593,11.593,0,0,0,2.593.724,11.625,11.625,0,0,0-1.378-2.313A1,1,0,1,0,8.907,3.035Z"/><path class="cls-1" d="M14.093,3.035a11.593,11.593,0,0,1-2.593.724,11.625,11.625,0,0,1,1.378-2.313,1,1,0,1,1,1.215,1.589Z"/><line class="cls-1" x1="23.5" y1="22.759" x2="0.5" y2="22.759"/><line class="cls-1" x1="8.5" y1="19.759" x2="7.5" y2="22.759"/><line class="cls-1" x1="17.5" y1="19.759" x2="16.5" y2="22.759"/></svg>