<svg id="Light" xmlns="http://www.w3.org/2000/svg" viewBox="0 0 24 24"><defs><style>.cls-1{fill:none;stroke:#000;stroke-linecap:round;stroke-linejoin:round;}</style></defs><title>christmas-santa</title><path class="cls-1" d="M17.9,22.013a.5.5,0,0,0-.53-.311,2.194,2.194,0,0,1-2.64-2.17,2.583,2.583,0,0,0-4.479-1.73,2.583,2.583,0,0,0-4.478,1.73A2.194,2.194,0,0,1,3.13,21.7a.5.5,0,0,0-.358.9,5.5,5.5,0,0,0,7.477-1.458A5.5,5.5,0,0,0,17.726,22.6.5.5,0,0,0,17.9,22.013Z"/><path class="cls-1" d="M17.5,10.5,16.133,7.485A1.454,1.454,0,0,1,17.7,5.449L21,6l-.775-1.145a9.862,9.862,0,0,0-10.67-4C5.307,2.067,3.645,5.813,3,10.5"/><circle class="cls-1" cx="21" cy="7.5" r="1.5"/><rect class="cls-1" x="1.5" y="10.5" width="17.5" height="2" rx="1" ry="1"/><path class="cls-1" d="M7.75,14.509a.25.25,0,0,1,.25.25"/><path class="cls-1" d="M7.5,14.759a.25.25,0,0,1,.25-.25"/><path class="cls-1" d="M7.75,15.009a.25.25,0,0,1-.25-.25"/><path class="cls-1" d="M8,14.759a.25.25,0,0,1-.25.25"/><path class="cls-1" d="M12.75,14.509a.25.25,0,0,1,.25.25"/><path class="cls-1" d="M12.5,14.759a.25.25,0,0,1,.25-.25"/><path class="cls-1" d="M12.75,15.009a.25.25,0,0,1-.25-.25"/><path class="cls-1" d="M13,14.759a.25.25,0,0,1-.25.25"/></svg>