<svg id="Light" xmlns="http://www.w3.org/2000/svg" viewBox="0 0 24 24"><defs><style>.cls-1{fill:none;stroke:#000;stroke-linecap:round;stroke-linejoin:round;}</style></defs><title>circus-clown-1</title><circle class="cls-1" cx="12" cy="13.5" r="10"/><path class="cls-1" d="M2.834,9.495A2.5,2.5,0,0,1,1.5,5,2.5,2.5,0,1,1,5,1.5,2.5,2.5,0,0,1,9.35,3.855"/><path class="cls-1" d="M21.166,9.495A2.5,2.5,0,0,0,22.5,5,2.5,2.5,0,1,0,19,1.5a2.5,2.5,0,0,0-4.35,2.355"/><circle class="cls-1" cx="12" cy="14" r="3.5"/><path class="cls-1" d="M18.5,14a6.5,6.5,0,0,1-13,0"/><line class="cls-1" x1="8.5" y1="7" x2="8.5" y2="10"/><line class="cls-1" x1="10" y1="8.5" x2="7" y2="8.5"/><line class="cls-1" x1="15.5" y1="7" x2="15.5" y2="10"/><line class="cls-1" x1="17" y1="8.5" x2="14" y2="8.5"/></svg>