<svg xmlns="http://www.w3.org/2000/svg" viewBox="0 0 24 24"><defs><style>.a{fill:none;stroke:#000;stroke-linecap:round;stroke-linejoin:round;}</style></defs><title>clamp-machine</title><rect class="a" x="9.5" y="3.5" width="6" height="4" rx="0.5" ry="0.5"/><path class="a" d="M6.5,20.5c0-1.657,2.686-3,6-3s6,1.343,6,3Z"/><path class="a" d="M2,13.5a1.5,1.5,0,0,1,0-3,1.613,1.613,0,0,1,1.5,1h20"/><path class="a" d="M12.5,5.25a.25.25,0,1,1-.25.25.25.25,0,0,1,.25-.25"/><path class="a" d="M10.85,17.615,3.893,12.294a1,1,0,0,1,0-1.588L9.5,6.341"/><polyline class="a" points="9.115 9.5 6.5 11.5 14.591 17.687"/><path class="a" d="M14.329,17.487l6.778-5.193a1,1,0,0,0,0-1.588L15.5,6.341"/><polyline class="a" points="13.269 7.5 18.5 11.5 14.504 14.556"/></svg>