<svg xmlns="http://www.w3.org/2000/svg" viewBox="0 0 24 24"><defs><style>.a{fill:none;stroke:#000;stroke-linecap:round;stroke-linejoin:round;}</style></defs><title>clamp-press</title><line class="a" x1="19.5" y1="22.25" x2="0.5" y2="22.25"/><path class="a" d="M16.5,15.25H14L12.276,18.7a1,1,0,0,1-.894.553H8.618a1,1,0,0,1-.894-.553L6,15.25H3.5v7h13Z"/><path class="a" d="M.5,14.25A8,8,0,0,1,7.967,6.267a.5.5,0,0,1,.533.5V14.75a.5.5,0,0,1-.5.5H1a.5.5,0,0,1-.5-.5Z"/><path class="a" d="M19.5,14.25a8.306,8.306,0,0,0-7.46-7.978.5.5,0,0,0-.54.5v7.98a.5.5,0,0,0,.5.5h7a.5.5,0,0,0,.5-.5Z"/><line class="a" x1="16.5" y1="18.25" x2="22.5" y2="18.25"/><line class="a" x1="21.5" y1="5.75" x2="21.5" y2="20.75"/><circle class="a" cx="21.5" cy="3.75" r="2"/><line class="a" x1="13.5" y1="6.542" x2="13.5" y2="15.25"/><line class="a" x1="6.5" y1="6.503" x2="6.5" y2="15.25"/></svg>