<svg id="Light" xmlns="http://www.w3.org/2000/svg" viewBox="0 0 24 24"><defs><style>.cls-1{fill:none;stroke:#000;stroke-linecap:round;stroke-linejoin:round;}</style></defs><title>clean-car-leaf-1</title><line class="cls-1" x1="7.5" y1="21.508" x2="16.5" y2="21.508"/><path class="cls-1" d="M20.5,21.508h1a1,1,0,0,0,1-1v-.354a3.646,3.646,0,0,0-3.646-3.646A2,2,0,0,1,17,15.25l-.743-1.856a3,3,0,0,0-2.785-1.886H9.14a2,2,0,0,0-1.962,1.607L6.822,14.9A2,2,0,0,1,4.86,16.508H3.5a2,2,0,0,0-2,2v2a1,1,0,0,0,1,1h1"/><circle class="cls-1" cx="5.5" cy="21.508" r="2"/><circle class="cls-1" cx="18.5" cy="21.508" r="2"/><path class="cls-1" d="M11.5,11.508v3a2,2,0,0,0,2,2h5.354"/><path class="cls-1" d="M12.5.508c-1.992.18-3.4,1.312-1.63,4.164-1.223,3.123.153,4,2.354,3.8,2.023-.183,5.187-2.593,6.281-4.986a.5.5,0,0,0-.369-.7C16.469,2.325,14.819.3,12.5.508Z"/><path class="cls-1" d="M5.351,7.092S12.3,3.1,16.1,4.02"/></svg>