<svg id="Light" xmlns="http://www.w3.org/2000/svg" viewBox="0 0 24 24"><defs><style>.cls-1{fill:none;stroke:#000;stroke-linecap:round;stroke-linejoin:round;}</style></defs><title>clean-car-gas</title><rect class="cls-1" x="1.5" y="1.5" width="15" height="21" rx="1" ry="1"/><path class="cls-1" d="M21.5,9.882a1,1,0,0,1-.553.894L19.5,11.5v-3h1a1,1,0,0,1,1,1Z"/><path class="cls-1" d="M19.5,8.5V7c0-.827,3-3.5,3-3.5"/><path class="cls-1" d="M19.5,11.5v3a2,2,0,0,1-2,2h-.969"/><line class="cls-1" x1="1.5" y1="9.5" x2="16.5" y2="9.5"/><rect class="cls-1" x="3.5" y="3.5" width="11" height="4"/><path class="cls-1" d="M7,13.5c-1.2.8-1.824,2.269,0,3.5,1,2.5,2.86,1.828,3.961.668a6.891,6.891,0,0,0,.863-6.168C10.066,12.826,8.5,12.5,7,13.5Z"/><path class="cls-1" d="M9.5,15C6.5,16.5,5,20.5,5,20.5"/></svg>