<svg id="Light" xmlns="http://www.w3.org/2000/svg" viewBox="0 0 24 24"><defs><style>.cls-1{fill:none;stroke:#000;stroke-linecap:round;stroke-linejoin:round;}</style></defs><title>cleaning-vacuum-1</title><path class="cls-1" d="M7.769,22.5H2.293a1,1,0,0,1-.952-.694C-.942,14.7,1.724,9.5,5.72,9.5H10V19.563"/><circle class="cls-1" cx="9.5" cy="21.5" r="2"/><path class="cls-1" d="M10,8a.5.5,0,0,0-.5-.5h-3A.5.5,0,0,0,6,8V9.5h4Z"/><line class="cls-1" x1="0.99" y1="13.5" x2="10" y2="13.5"/><path class="cls-1" d="M15.192,20.842a.5.5,0,0,1,.475-.342h6.666a.5.5,0,0,1,.475.342l.666,2A.5.5,0,0,1,23,23.5H15a.5.5,0,0,1-.474-.658Z"/><path class="cls-1" d="M8,7.5V6A5.5,5.5,0,0,1,19,6V20.5"/></svg>