<svg id="Light" xmlns="http://www.w3.org/2000/svg" viewBox="0 0 24 24"><defs><style>.cls-1{fill:none;stroke:#000;stroke-linecap:round;stroke-linejoin:round;}</style></defs><title>cleaning-vacuum-2</title><path class="cls-1" d="M.5,19.75v-4a2,2,0,0,1,2-2h4a7,7,0,0,1,7,7,2,2,0,0,1-2,2h-8"/><circle class="cls-1" cx="3.5" cy="19.75" r="3"/><path class="cls-1" d="M3.5,19.5a.25.25,0,1,1-.25.25.25.25,0,0,1,.25-.25"/><path class="cls-1" d="M10.532,15.027A8.775,8.775,0,0,0,12,10.75a16.613,16.613,0,0,0-1.124-5.034A3.325,3.325,0,0,1,14,1.25a3.5,3.5,0,0,1,3.5,3.5v15"/><path class="cls-1" d="M23.5,22.75h-5a1,1,0,0,1-1-1v-2h3A3,3,0,0,1,23.5,22.75Z"/><path class="cls-1" d="M7.5,13.82A4,4,0,0,0,11,19.75h2.429"/></svg>