<svg id="Light" xmlns="http://www.w3.org/2000/svg" viewBox="0 0 24 24"><defs><style>.cls-1{fill:none;stroke:#000;stroke-linecap:round;stroke-linejoin:round;}</style></defs><title>clean-car-cable-charge</title><path class="cls-1" d="M6.5,21.25v1.5a.5.5,0,0,1-.5.5H4a.5.5,0,0,1-.5-.5v-1.5"/><path class="cls-1" d="M20.5,21.25v1.5a.5.5,0,0,1-.5.5H18a.5.5,0,0,1-.5-.5v-1.5"/><path class="cls-1" d="M21,21.25a.5.5,0,0,0,.5-.5V17.457a.5.5,0,0,0-.146-.353L19.5,15.25H4.5L2.646,17.1a.5.5,0,0,0-.146.353V20.75a.5.5,0,0,0,.5.5Z"/><path class="cls-1" d="M19.5,15.25l-1.874-4.686a.5.5,0,0,0-.465-.314H14"/><path class="cls-1" d="M9.5,10.25H6.839a.5.5,0,0,0-.465.314L4.5,15.25"/><line class="cls-1" x1="2.5" y1="19.25" x2="7" y2="19.25"/><line class="cls-1" x1="17" y1="19.25" x2="21.5" y2="19.25"/><path class="cls-1" d="M15,3.75a3.5,3.5,0,0,1-7,0,.5.5,0,0,1,.5-.5h6A.5.5,0,0,1,15,3.75Z"/><path class="cls-1" d="M11.5,7.25v4a1.5,1.5,0,0,0,1.5,1.5"/><line class="cls-1" x1="13.5" y1="3.25" x2="13.5" y2="0.75"/><line class="cls-1" x1="9.5" y1="3.25" x2="9.5" y2="0.75"/></svg>