<svg id="Light" xmlns="http://www.w3.org/2000/svg" viewBox="0 0 24 24"><defs><style>.cls-1{fill:none;stroke:#000;stroke-linecap:round;stroke-linejoin:round;}</style></defs><title>clean-car-cable-charge-1</title><line class="cls-1" x1="7.5" y1="21.5" x2="16.5" y2="21.5"/><path class="cls-1" d="M9.14,11.5a2,2,0,0,0-1.962,1.608l-.356,1.784A2,2,0,0,1,4.86,16.5H3.5a2,2,0,0,0-2,2v2a1,1,0,0,0,1,1h1"/><path class="cls-1" d="M20.5,21.5h1a1,1,0,0,0,1-1v-.354A3.646,3.646,0,0,0,18.854,16.5,2,2,0,0,1,17,15.243l-.743-1.857A3,3,0,0,0,13.469,11.5"/><circle class="cls-1" cx="5.5" cy="21.5" r="2"/><circle class="cls-1" cx="18.5" cy="21.5" r="2"/><path class="cls-1" d="M11.5,14.5a2,2,0,0,0,2,2h5.354"/><path class="cls-1" d="M14,3.5a3.5,3.5,0,0,1-7,0A.5.5,0,0,1,7.5,3h6A.5.5,0,0,1,14,3.5Z"/><path class="cls-1" d="M10.5,7v4A1.5,1.5,0,0,0,12,12.5"/><line class="cls-1" x1="12.5" y1="3" x2="12.5" y2="0.5"/><line class="cls-1" x1="8.5" y1="3" x2="8.5" y2="0.5"/></svg>