<svg id="Light" xmlns="http://www.w3.org/2000/svg" viewBox="0 0 24 24"><defs><style>.cls-1{fill:none;stroke:#000;stroke-linecap:round;stroke-linejoin:round;}</style></defs><title>clean-car-cable-charge-2</title><path class="cls-1" d="M6.5,16.5h11a2,2,0,0,1,2,2v2a1,1,0,0,1-1,1H5.5a1,1,0,0,1-1-1v-2A2,2,0,0,1,6.5,16.5Z"/><line class="cls-1" x1="4.5" y1="19.5" x2="7" y2="19.5"/><line class="cls-1" x1="17" y1="19.5" x2="19.5" y2="19.5"/><path class="cls-1" d="M17.5,16.5l-.391-3.124a1,1,0,0,0-.992-.876h-2.6"/><path class="cls-1" d="M6.5,16.5l.391-3.124a1,1,0,0,1,.992-.876h1.6"/><line class="cls-1" x1="4" y1="15" x2="6.5" y2="16.5"/><line class="cls-1" x1="20" y1="15" x2="17.5" y2="16.5"/><path class="cls-1" d="M7.5,21.5v1a1,1,0,0,1-2,0v-1"/><path class="cls-1" d="M18.5,21.5v1a1,1,0,0,1-2,0v-1"/><path class="cls-1" d="M15,3.5a3.5,3.5,0,0,1-7,0A.5.5,0,0,1,8.5,3h6A.5.5,0,0,1,15,3.5Z"/><path class="cls-1" d="M11.5,7v6A1.5,1.5,0,0,0,13,14.5"/><line class="cls-1" x1="13.5" y1="3" x2="13.5" y2="0.5"/><line class="cls-1" x1="9.5" y1="3" x2="9.5" y2="0.5"/></svg>