<svg id="Light" xmlns="http://www.w3.org/2000/svg" viewBox="0 0 24 24"><defs><style>.cls-1{fill:none;stroke:#000;stroke-linecap:round;stroke-linejoin:round;}</style></defs><title>climbing-mountain</title><circle class="cls-1" cx="11.5" cy="2.996" r="2.5"/><path class="cls-1" d="M12.8,9.5a1,1,0,0,1-.771-.362L10.1,6.982a1.5,1.5,0,0,0-2.425.3l-3.49,6.482A1.516,1.516,0,0,0,4,14.5v3.146L2.158,21.327a1.5,1.5,0,1,0,2.684,1.342l2-4A1.5,1.5,0,0,0,7,18V16.3l1.771.322a1.5,1.5,0,0,1,1.2,1.15l.568,2.556a1.5,1.5,0,0,0,2.928-.65L12.9,17.117a4.49,4.49,0,0,0-3.587-3.451L7.8,13.392l1.522-2.827A4.655,4.655,0,0,0,13.044,12.5H15.5a1.5,1.5,0,0,0,0-3S13.683,9.5,12.8,9.5Z"/><path class="cls-1" d="M3.227,10.57a1,1,0,0,1-1.368.359L1,10.424A1,1,0,0,1,.636,9.056L3.411,4.307a1,1,0,0,1,1.368-.359l.863.505A1,1,0,0,1,6,5.821Z"/><polyline class="cls-1" points="9 21.996 7.5 23.496 23.5 23.496"/><path class="cls-1" d="M23,.5l-1.664,2.5A2,2,0,0,0,21,4.1V7.167a2,2,0,0,1-.586,1.414l-.828.828A2,2,0,0,0,19,10.823v4.662c0,1.178-1.555,3.134-2.86,4.01"/></svg>