<svg id="Light" xmlns="http://www.w3.org/2000/svg" viewBox="0 0 24 24"><defs><style>.cls-1{fill:none;stroke:#000;stroke-linecap:round;stroke-linejoin:round;}</style></defs><title>clothes-design-needle</title><path class="cls-1" d="M2.319,23.238a1.115,1.115,0,0,1-1.493-.076h0A1.114,1.114,0,0,1,.75,21.669L17.791,1.642a3.232,3.232,0,0,1,4.761-.206h0A3.233,3.233,0,0,1,22.346,6.2Z"/><line class="cls-1" x1="20.415" y1="3.573" x2="17.566" y2="6.422"/><path class="cls-1" d="M16.548,3.108l-.5-.5a3,3,0,0,0-4.243,0L7.418,7a2,2,0,0,1-2.95-.134L3.351,5.526"/><path class="cls-1" d="M18.991,5,21.514,7.83a3,3,0,0,1-.233,4.226l-.78.7a3,3,0,0,0-.393,4.03l1.376,1.835"/></svg>