<svg id="Light" xmlns="http://www.w3.org/2000/svg" viewBox="0 0 24 24"><defs><style>.cls-1{fill:none;stroke:#000;stroke-linecap:round;stroke-linejoin:round;}</style></defs><title>cocktail-cherry</title><path class="cls-1" d="M14.53,12.553A3.117,3.117,0,0,1,15.952,11.1"/><path class="cls-1" d="M10.562,13.438a4.779,4.779,0,0,1-.4-6.721,4.778,4.778,0,0,1,6.721.4,4.777,4.777,0,0,1,.4,6.721A4.779,4.779,0,0,1,10.562,13.438Z"/><path class="cls-1" d="M8.166,18.916a3.1,3.1,0,0,1,1.422-1.447"/><path class="cls-1" d="M4.2,19.8a4.775,4.775,0,0,1-.4-6.72,4.776,4.776,0,0,1,6.72.4,4.778,4.778,0,0,1,.4,6.721A4.777,4.777,0,0,1,4.2,19.8Z"/><line class="cls-1" x1="20.939" y1="3.061" x2="16.887" y2="7.113"/><line class="cls-1" x1="4.197" y1="19.8" x2="0.5" y2="23.5"/><path class="cls-1" d="M23.06,3.061a1.5,1.5,0,1,1,0-2.121A1.5,1.5,0,0,1,23.06,3.061Z"/></svg>