<svg id="Light" xmlns="http://www.w3.org/2000/svg" viewBox="0 0 24 24"><defs><style>.cls-1{fill:none;stroke:#000;stroke-linecap:round;stroke-linejoin:round;}</style></defs><title>coffee-filter</title><path class="cls-1" d="M14.88,10l2.189,9.849A3,3,0,0,1,14.14,23.5H7.62a3,3,0,0,1-2.929-3.651L6.88,10"/><line class="cls-1" x1="4.88" y1="10" x2="16.88" y2="10"/><path class="cls-1" d="M7.88,10,5.334,5.757A.5.5,0,0,1,5.763,5H16a.5.5,0,0,1,.429.757L13.88,10"/><path class="cls-1" d="M7.88,3.328a1,1,0,0,0,0-1.414A1,1,0,0,1,7.88.5"/><path class="cls-1" d="M10.88,3.328a1,1,0,0,0,0-1.414A1,1,0,0,1,10.88.5"/><path class="cls-1" d="M13.88,3.328a1,1,0,0,0,0-1.414A1,1,0,0,1,13.88.5"/><path class="cls-1" d="M15.436,12.5H17.38a2,2,0,0,1,2,2v3.172a2,2,0,0,1-.586,1.414L17.13,20.75"/></svg>