<svg xmlns="http://www.w3.org/2000/svg" viewBox="0 0 24 24"><defs><style>.a{fill:none;stroke:#000;stroke-linecap:round;stroke-linejoin:round;}</style></defs><title>color-picker</title><line class="a" x1="6.5" y1="8.5" x2="17.5" y2="8.5"/><line class="a" x1="8.5" y1="11.5" x2="10.5" y2="11.5"/><line class="a" x1="8.5" y1="13.5" x2="10.5" y2="13.5"/><line class="a" x1="8.5" y1="15.5" x2="10.5" y2="15.5"/><path class="a" d="M12,.5a3.775,3.775,0,0,0-3.5,4v13a4.511,4.511,0,0,0,2,3.832V23a.5.5,0,0,0,.5.5h2a.5.5,0,0,0,.5-.5V21.332a4.511,4.511,0,0,0,2-3.832V4.5A3.775,3.775,0,0,0,12,.5Z"/></svg>