<svg xmlns="http://www.w3.org/2000/svg" viewBox="0 0 24 24"><defs><style>.a{fill:none;stroke:#000;stroke-linecap:round;stroke-linejoin:round;}</style></defs><title>color-brush</title><path class="a" d="M12.263,3.5a.25.25,0,1,1-.25.25.25.25,0,0,1,.25-.25"/><path class="a" d="M19.763,10.5h-5.5l.7-7.015a2.715,2.715,0,1,0-5.4,0l.7,7.015h-5.5a2,2,0,0,0-2,2V14a.5.5,0,0,0,.5.5h18a.5.5,0,0,0,.5-.5V12.5A2,2,0,0,0,19.763,10.5Z"/><path class="a" d="M20.763,17.8V14.5h-17v3.3A9.128,9.128,0,0,1,2.316,22.73a.5.5,0,0,0,.42.77H4.231a3,3,0,0,0,2.5-1.335C7.622,20.826,8.763,19,8.763,19v4a.5.5,0,0,0,.5.5h11a.5.5,0,0,0,.5-.5Z"/><line class="a" x1="17.763" y1="23.5" x2="17.763" y2="19.5"/><line class="a" x1="14.763" y1="23.5" x2="14.763" y2="20.5"/></svg>