<svg xmlns="http://www.w3.org/2000/svg" viewBox="0 0 24 24"><defs><style>.a{fill:none;stroke:#000;stroke-linecap:round;stroke-linejoin:round;}</style></defs><title>color-tube</title><path class="a" d="M18.05,12.343l-6.426,5.891a3.988,3.988,0,0,1-1.723.84l-3.468.578L3.462,16.683l.579-3.469a3.976,3.976,0,0,1,.84-1.723l6.013-6.56"/><path class="a" d="M20.892,11.132a.5.5,0,0,1-.707,0l-8.2-8.2a.5.5,0,0,1,0-.707L13.15,1.055a1,1,0,0,1,1.414,0l7.5,7.494a1,1,0,0,1,0,1.415Z"/><line class="a" x1="6.705" y1="9.5" x2="13.603" y2="16.42"/><path class="a" d="M3.462,16.683l2.971,2.969-1.52,1.52a1,1,0,0,1-1.414,0L1.943,19.617a1,1,0,0,1,0-1.415Z"/><line class="a" x1="4.577" y1="11.856" x2="11.258" y2="18.538"/><path class="a" d="M7.735,22.654a2.474,2.474,0,0,1,3.5,0,2.476,2.476,0,0,0,3.5,0,2.474,2.474,0,0,1,3.5,0,2.476,2.476,0,0,0,3.5,0"/></svg>