<svg xmlns="http://www.w3.org/2000/svg" viewBox="0 0 24 24"><defs><style>.a{fill:none;stroke:#000;stroke-linecap:round;stroke-linejoin:round;}</style></defs><title>color-bucket-1</title><path class="a" d="M18.293,12.5c.55,0,.682-.318.293-.707L11,4.207a1,1,0,0,0-1.414,0L1.793,12a2,2,0,0,0,0,2.829L6.465,19.5a2,2,0,0,0,2.828,0l6.293-6.293a2.782,2.782,0,0,1,1.707-.707Z"/><path class="a" d="M9.793,10.5v-8a2.005,2.005,0,0,0-2-2h0a2.005,2.005,0,0,0-2,2V8.016"/><path class="a" d="M22.793,21a2.5,2.5,0,0,1-5,0c0-1.015,1.35-3.509,2.066-4.76a.5.5,0,0,1,.868,0C21.443,17.492,22.793,19.985,22.793,21Z"/></svg>