<svg xmlns="http://www.w3.org/2000/svg" viewBox="0 0 24 24"><defs><style>.a{fill:none;stroke:#000;stroke-linecap:round;stroke-linejoin:round;}</style></defs><title>color-drop-off</title><path class="a" d="M5.1,7.928C3.65,10.261,2.5,12.8,2.5,15c0,4.971,4.029,8.5,9,8.5a9.268,9.268,0,0,0,6.573-2.6"/><path class="a" d="M20.171,17.343A8.545,8.545,0,0,0,20.5,15c0-5.26-6.534-12.442-8.144-14.133a1.182,1.182,0,0,0-1.712,0C10.051,1.49,8.789,2.861,7.432,4.6"/><line class="a" x1="11.5" y1="8.672" x2="11.5" y2="0.5"/><line class="a" x1="11.5" y1="23.5" x2="11.5" y2="14.328"/><line class="a" x1="14.5" y1="17.328" x2="14.5" y2="23.045"/><line class="a" x1="14.5" y1="3.278" x2="14.5" y2="11.672"/><line class="a" x1="17.5" y1="7.292" x2="17.5" y2="14.672"/><line class="a" x1="0.5" y1="0.5" x2="23.5" y2="23.5"/></svg>