<svg xmlns="http://www.w3.org/2000/svg" viewBox="0 0 24 24"><defs><style>.a{fill:none;stroke:#000;stroke-linecap:round;stroke-linejoin:round;}</style></defs><title>color-bucket-brush</title><path class="a" d="M3.5,15.5v5a2,2,0,0,0,4,0v-5a5,5,0,0,0,3-4.578V10.5H.5v.422a5,5,0,0,0,3,4.578"/><path class="a" d="M10.5,2.5a1,1,0,0,0-1-1h-8a1,1,0,0,0-1,1v8h10Z"/><line class="a" x1="0.5" y1="8.5" x2="10.5" y2="8.5"/><line class="a" x1="3.5" y1="1.5" x2="3.5" y2="5"/><line class="a" x1="7.5" y1="1.5" x2="7.5" y2="5"/><line class="a" x1="5.5" y1="20.5" x2="5.5" y2="19.5"/><ellipse class="a" cx="18" cy="11" rx="5.5" ry="2.5"/><path class="a" d="M12.5,11v9c0,1.381,2.462,2.5,5.5,2.5s5.5-1.119,5.5-2.5V11"/><path class="a" d="M14.5,15v1.5a1,1,0,0,0,2,0,1,1,0,0,1,2,0,1.5,1.5,0,0,0,3,0V15"/></svg>