<svg xmlns="http://www.w3.org/2000/svg" viewBox="0 0 24 24"><defs><style>.a{fill:none;stroke:#000;stroke-linecap:round;stroke-linejoin:round;}</style></defs><title>color-picker-2</title><path class="a" d="M22.182,8.182a4.5,4.5,0,1,0-6.364-6.364L12.636,5,19,11.364Z"/><line class="a" x1="11.222" y1="3.586" x2="20.414" y2="12.778"/><path class="a" d="M12.636,5l-8.83,8.83a4.489,4.489,0,0,0-.866,5.109l-2,2a1.5,1.5,0,0,0,2.122,2.122l2-2a4.489,4.489,0,0,0,5.109-.866L19,11.364Z"/><line class="a" x1="9.568" y1="8.068" x2="11.5" y2="10"/><line class="a" x1="7.568" y1="10.068" x2="9.5" y2="12"/><line class="a" x1="5.568" y1="12.068" x2="7.5" y2="14"/></svg>