<svg id="Light" xmlns="http://www.w3.org/2000/svg" viewBox="0 0 24 24"><defs><style>.cls-1{fill:none;stroke:#000;stroke-linecap:round;stroke-linejoin:round;}</style></defs><title>concert-microphone</title><path class="cls-1" d="M1.5.5h21a1,1,0,0,1,1,1V3a.5.5,0,0,1-.5.5H1A.5.5,0,0,1,.5,3V1.5A1,1,0,0,1,1.5.5Z"/><polyline class="cls-1" points="0.886 0.711 6 3.5 12 0.5 18 3.5 23.114 0.711"/><line class="cls-1" x1="23.5" y1="20.5" x2="0.5" y2="20.5"/><line class="cls-1" x1="23.5" y1="23.5" x2="0.5" y2="23.5"/><line class="cls-1" x1="1.5" y1="3.5" x2="1.5" y2="20.5"/><line class="cls-1" x1="22.5" y1="4" x2="22.5" y2="20.5"/><path class="cls-1" d="M12,4.5h0a1,1,0,0,1,1,1V7a.5.5,0,0,1-.5.5h-1A.5.5,0,0,1,11,7V5.5a1,1,0,0,1,1-1Z"/><path class="cls-1" d="M18.47,4.28h0a1,1,0,0,1,1,1v2a.5.5,0,0,1-.5.5h-1a.5.5,0,0,1-.5-.5v-2a1,1,0,0,1,1-1Z" transform="translate(9.674 -11.294) rotate(45)"/><path class="cls-1" d="M5.03,4.28h1a.5.5,0,0,1,.5.5v2a1,1,0,0,1-1,1h0a1,1,0,0,1-1-1v-2a.5.5,0,0,1,.5-.5Z" transform="translate(13.705 6.384) rotate(135)"/><line class="cls-1" x1="14.5" y1="18" x2="14.5" y2="11.75"/><line class="cls-1" x1="12.895" y1="10.947" x2="16" y2="12.5"/><circle class="cls-1" cx="12" cy="10.5" r="1"/><line class="cls-1" x1="12.5" y1="19.5" x2="14.5" y2="18"/><line class="cls-1" x1="16.5" y1="19.5" x2="14.5" y2="18"/></svg>