<svg id="Light" xmlns="http://www.w3.org/2000/svg" viewBox="0 0 24 24"><defs><style>.cls-1{fill:none;stroke:#000;stroke-linecap:round;stroke-linejoin:round;}</style></defs><title>concert-rock-1</title><path class="cls-1" d="M12.49,7.5a1,1,0,0,0-1,1V12a1.5,1.5,0,0,0,3,0V8.5a1,1,0,0,0-1-1Z"/><path class="cls-1" d="M15.49,7.5a1,1,0,0,0-1,1V12a1.5,1.5,0,1,0,3,0V8.5a1,1,0,0,0-1-1Z"/><path class="cls-1" d="M18.49,19.5v-.526a1,1,0,0,1,.336-.747A4.954,4.954,0,0,0,20.49,14.5V5a1.5,1.5,0,0,0-3,0V9.5"/><path class="cls-1" d="M11.49,8.5V2a1.5,1.5,0,0,0-3,0V12l-3-3.1a1.2,1.2,0,0,0-1.76,1.6s2.481,3.969,4.2,6.679A4.931,4.931,0,0,0,9.1,18.445a1,1,0,0,1,.391.795v.26"/><rect class="cls-1" x="8.49" y="19.5" width="11" height="4" rx="1" ry="1"/><path class="cls-1" d="M10.74,21.25a.25.25,0,0,1,.25.25"/><path class="cls-1" d="M10.49,21.5a.25.25,0,0,1,.25-.25"/><path class="cls-1" d="M10.74,21.75a.25.25,0,0,1-.25-.25"/><path class="cls-1" d="M10.99,21.5a.25.25,0,0,1-.25.25"/><path class="cls-1" d="M13.99,21.25a.25.25,0,0,1,.25.25"/><path class="cls-1" d="M13.74,21.5a.25.25,0,0,1,.25-.25"/><path class="cls-1" d="M13.99,21.75a.25.25,0,0,1-.25-.25"/><path class="cls-1" d="M14.24,21.5a.25.25,0,0,1-.25.25"/><path class="cls-1" d="M17.24,21.25a.25.25,0,0,1,.25.25"/><path class="cls-1" d="M16.99,21.5a.25.25,0,0,1,.25-.25"/><path class="cls-1" d="M17.24,21.75a.25.25,0,0,1-.25-.25"/><path class="cls-1" d="M17.49,21.5a.25.25,0,0,1-.25.25"/></svg>