<svg xmlns="http://www.w3.org/2000/svg" viewBox="0 0 24 24"><defs><style>.a{fill:none;stroke:#000;stroke-linecap:round;stroke-linejoin:round;}</style></defs><title>construction-brick</title><polyline class="a" points="10 13.426 0.5 13.426 0.5 18.926"/><polyline class="a" points="0.5 13.926 0.5 8.426 13 8.426"/><polyline class="a" points="0.5 8.426 0.5 3.426 11.5 3.426 11.5 8.426"/><line class="a" x1="4.5" y1="3.426" x2="4.5" y2="8.426"/><line class="a" x1="8.5" y1="8.426" x2="8.5" y2="13.426"/><line class="a" x1="4.5" y1="13.426" x2="4.5" y2="18.426"/><line class="a" x1="16.5" y1="18.926" x2="16.5" y2="23.426"/><path class="a" d="M17,6.571a1.5,1.5,0,0,0,2.117.133L22.981,3.2A1.5,1.5,0,0,0,21,.949l-3.86,3.505A1.5,1.5,0,0,0,17,6.571Z"/><path class="a" d="M17.016,6.582,19.891,9.9a.508.508,0,0,1-.047.709l-3.375,2.977"/><path class="a" d="M14.031,10.3a1.459,1.459,0,0,1,2.5-.5l3.5,3.5a1.451,1.451,0,0,1-.5,2.5L11,19.115c-.256.1-.384-.028-.284-.285Z"/><polyline class="a" points="18.516 18.426 23.5 18.426 23.5 23.426 0.5 23.426 0.5 18.426 8 18.426 8.5 18.426 8.5 23.426"/></svg>