<svg xmlns="http://www.w3.org/2000/svg" viewBox="0 0 24 24"><defs><style>.a{fill:none;stroke:#000;stroke-linecap:round;stroke-linejoin:round;}</style></defs><title>construction-house</title><path class="a" d="M.5,7.415,11.48.731a1,1,0,0,1,1.04,0L23.5,7.415"/><line class="a" x1="23.5" y1="9.915" x2="23.5" y2="23.415"/><line class="a" x1="17.5" y1="9.915" x2="17.5" y2="23.415"/><line class="a" x1="8.5" y1="11.915" x2="8.5" y2="23.415"/><line class="a" x1="17.5" y1="10.915" x2="23.5" y2="15.915"/><line class="a" x1="23.5" y1="10.915" x2="17.5" y2="15.915"/><line class="a" x1="17.5" y1="17.415" x2="23.5" y2="22.415"/><line class="a" x1="23.5" y1="17.415" x2="17.5" y2="22.415"/><line class="a" x1="23.5" y1="16.415" x2="17.5" y2="16.415"/><line class="a" x1="4.5" y1="16.417" x2="4.5" y2="4.98"/><line class="a" x1="15.5" y1="23.415" x2="10.5" y2="23.415"/><line class="a" x1="19.5" y1="4.98" x2="19.5" y2="8.915"/><line class="a" x1="0.5" y1="14.415" x2="0.5" y2="23.415"/><line class="a" x1="0.5" y1="18.415" x2="8.5" y2="18.415"/><line class="a" x1="0.5" y1="18.915" x2="8.5" y2="23.415"/><line class="a" x1="8.5" y1="18.915" x2="0.5" y2="23.415"/><rect class="a" x="10.5" y="6.415" width="3" height="3" rx="0.5" ry="0.5"/><path class="a" d="M10.5,16.915a2.5,2.5,0,0,1,4,2v4.5"/></svg>