<svg id="Light" xmlns="http://www.w3.org/2000/svg" viewBox="0 0 24 24"><defs><style>.cls-1{fill:none;stroke:#000;stroke-linecap:round;stroke-linejoin:round;}</style></defs><title>console-table</title><path class="cls-1" d="M22,8.5l-2.786,9.287a1,1,0,0,1-.958.713H5.744a1,1,0,0,1-.958-.713L2,8.5"/><line class="cls-1" x1="0.5" y1="8.5" x2="23.5" y2="8.5"/><line class="cls-1" x1="11.5" y1="8.5" x2="11.5" y2="18.5"/><line class="cls-1" x1="11.5" y1="13.5" x2="20.5" y2="13.5"/><line class="cls-1" x1="5.5" y1="10.5" x2="9" y2="10.5"/><line class="cls-1" x1="6.5" y1="18.5" x2="4.5" y2="22.5"/><line class="cls-1" x1="17.5" y1="18.5" x2="19.5" y2="22.5"/><polyline class="cls-1" points="15.5 8.5 14.5 4.5 19.5 4.5 18.5 8.5"/><line class="cls-1" x1="15.5" y1="4.5" x2="15.5" y2="1.5"/><line class="cls-1" x1="17.5" y1="4.5" x2="18.5" y2="1.5"/></svg>