<svg xmlns="http://www.w3.org/2000/svg" viewBox="0 0 24 24"><defs><style>.a{fill:none;stroke:#000;stroke-linecap:round;stroke-linejoin:round;}</style></defs><title>construction-drill</title><path class="a" d="M10,12.508v4a1,1,0,0,0,1,1h2a1,1,0,0,0,1-1v-4"/><path class="a" d="M8,4.508a4,4,0,0,1,8,0v7.5a.5.5,0,0,1-.5.5h-7a.5.5,0,0,1-.5-.5Z"/><line class="a" x1="12" y1="17.508" x2="12" y2="23.492"/><path class="a" d="M15.874,3.508H21a1,1,0,0,1,0,2H16"/><path class="a" d="M8,5.508H3a1,1,0,0,1,0-2H8.126"/><line class="a" x1="10.5" y1="3.508" x2="13.5" y2="3.508"/><line class="a" x1="10.5" y1="5.508" x2="13.5" y2="5.508"/><path class="a" d="M15.5,22.008l1.723-2.584a.309.309,0,0,1,.554,0l1.446,2.168a.309.309,0,0,0,.554,0L21.5,19.008"/><path class="a" d="M8.5,22.008,6.777,19.424a.309.309,0,0,0-.554,0L4.777,21.592a.309.309,0,0,1-.554,0L2.5,19.008"/></svg>