<svg xmlns="http://www.w3.org/2000/svg" viewBox="0 0 24 24"><defs><style>.a{fill:none;stroke:#000;stroke-linecap:round;stroke-linejoin:round;}</style></defs><title>contactless-payment</title><path class="a" d="M23.5,11.5,19.9,8.7a3.3,3.3,0,0,0-4.361.272l-.283.283"/><path class="a" d="M.5,8a7,7,0,0,1,7-7"/><path class="a" d="M2.5,8a5,5,0,0,1,5-5"/><path class="a" d="M4.5,8a3,3,0,0,1,3-3"/><path class="a" d="M18.8,17.2,20.3,15.707a1,1,0,0,0,0-1.414L11.711,5.707a1,1,0,0,0-1.414,0L5.211,10.793a1,1,0,0,0,0,1.414L13.8,20.793a1,1,0,0,0,1.414,0l1.043-1.043"/><path class="a" d="M11.383,10.464l-.978.978a.618.618,0,0,0,.633,1.023l1.4-.466a.618.618,0,0,1,.632,1.024L12.09,14"/><line class="a" x1="10.676" y1="11.172" x2="9.968" y2="10.464"/><line class="a" x1="13.504" y1="14" x2="12.797" y2="13.293"/><line class="a" x1="12.504" y1="19.5" x2="14.311" y2="17.693"/><path class="a" d="M23.5,23l-4.761-1.587a5.534,5.534,0,0,1-2.162-1.336L14.6,18.1a1.554,1.554,0,0,1,1.961-2.392L20,18"/><line class="a" x1="16.395" y1="15.609" x2="19.004" y2="13"/></svg>