<svg xmlns="http://www.w3.org/2000/svg" viewBox="0 0 24 24"><defs><style>.a{fill:none;stroke:#000;stroke-linecap:round;stroke-linejoin:round;}</style></defs><title>couple-polaroid-image</title><rect class="a" x="3.5" y="2.5" width="17" height="17" rx="0.5" ry="0.5"/><circle class="a" cx="8.5" cy="12.25" r="2.25"/><path class="a" d="M11.5,19.5v-1a3,3,0,0,0-6,0v1"/><circle class="a" cx="15.5" cy="12.25" r="2.25"/><path class="a" d="M18.5,19.5v-1a3,3,0,0,0-6,0v1"/><path class="a" d="M12.352,9.15a.5.5,0,0,1-.7,0l-2.2-2.19A1.391,1.391,0,0,1,9.16,5.3h0a1.553,1.553,0,0,1,2.422-.375l.418.4.418-.4A1.553,1.553,0,0,1,14.84,5.3h0a1.391,1.391,0,0,1-.283,1.663Z"/><rect class="a" x="1.5" y="0.5" width="21" height="23" rx="1" ry="1"/></svg>