<svg xmlns="http://www.w3.org/2000/svg" viewBox="0 0 24 24"><defs><style>.a{fill:none;stroke:#000;stroke-linecap:round;stroke-linejoin:round;}</style></defs><title>couple-house</title><path class="a" d="M2.2,10.272A5.669,5.669,0,0,1,1.112,3.665h0A5.84,5.84,0,0,1,10.4,2.177L12,3.636l1.6-1.459a5.839,5.839,0,0,1,9.287,1.488h0A5.671,5.671,0,0,1,21.8,10.272l-4.516,4.649"/><path class="a" d="M13.5,15v7.5a1,1,0,0,1-1,1h-9a1,1,0,0,1-1-1V15"/><path class="a" d="M.5,17l6.793-6.793a1,1,0,0,1,1.414,0L15.5,17"/><path class="a" d="M9.5,23.5v-4a1.5,1.5,0,0,0-3,0v4"/></svg>