<svg xmlns="http://www.w3.org/2000/svg" viewBox="0 0 24 24"><defs><style>.a{fill:none;stroke:#000;stroke-linecap:round;stroke-linejoin:round;}</style></defs><title>couple-home-man-woman</title><circle class="a" cx="5.5" cy="10.25" r="2.25"/><path class="a" d="M6.765,13.778A3,3,0,0,0,2.5,16.5V19H4l.5,4.5h2l.429-3.86"/><circle class="a" cx="18.5" cy="10.25" r="2.25"/><path class="a" d="M17.235,13.778A3,3,0,0,1,21.5,16.5V19H20l-.5,4.5h-2l-.429-3.86"/><path class="a" d="M.5,23.5V8.8a1,1,0,0,1,.429-.821l10.5-7.3a1,1,0,0,1,1.142,0l10.5,7.3A1,1,0,0,1,23.5,8.8V23.5"/><path class="a" d="M12.361,21.123a.5.5,0,0,1-.722,0L8.591,17.944a2.018,2.018,0,0,1-.378-2.329h0a2.017,2.017,0,0,1,3.23-.524l.557.557.557-.557a2.017,2.017,0,0,1,3.23.524h0a2.018,2.018,0,0,1-.378,2.329Z"/></svg>