<svg id="Light" xmlns="http://www.w3.org/2000/svg" viewBox="0 0 24 24"><defs><style>.cls-1{fill:none;stroke:#000;stroke-linecap:round;stroke-linejoin:round;}</style></defs><title>crafts-bottle-art-ship</title><path class="cls-1" d="M4.5,13.5h11l-.6.8a3,3,0,0,1-2.4,1.2h-7a1,1,0,0,1-1-1Z"/><path class="cls-1" d="M9.5,13.5V7a.5.5,0,0,1,.854-.354l4,4A.5.5,0,0,1,14,11.5H9.5"/><polygon class="cls-1" points="4.5 11.5 7.5 8 7.5 11.5 4.5 11.5"/><line class="cls-1" x1="6.5" y1="15.5" x2="6.5" y2="17.5"/><line class="cls-1" x1="11.5" y1="15.5" x2="11.5" y2="17.5"/><path class="cls-1" d="M20.5,8.5a1,1,0,0,1-1-1v-1a2,2,0,0,0-2-2H1.5a1,1,0,0,0-1,1v11a1,1,0,0,0,1,1h16a2,2,0,0,0,2-2v-1a1,1,0,0,1,1-1h3v-5Z"/><line class="cls-1" x1="23.5" y1="7.5" x2="23.5" y2="14.5"/><line class="cls-1" x1="3.5" y1="17.5" x2="3.5" y2="19.5"/><line class="cls-1" x1="15.5" y1="17.5" x2="15.5" y2="19.5"/></svg>