<svg id="Light" xmlns="http://www.w3.org/2000/svg" viewBox="0 0 24 24"><defs><style>.cls-1{fill:none;stroke:#000;stroke-linecap:round;stroke-linejoin:round;}</style></defs><title>crafts-bottle-art-plant</title><path class="cls-1" d="M6,7.5H7a3,3,0,0,1,3,3v1a0,0,0,0,1,0,0H9a3,3,0,0,1-3-3v-1A0,0,0,0,1,6,7.5Z"/><path class="cls-1" d="M13,8.5h1a0,0,0,0,1,0,0v1a3,3,0,0,1-3,3H10a0,0,0,0,1,0,0v-1A3,3,0,0,1,13,8.5Z" transform="translate(24 21) rotate(-180)"/><line class="cls-1" x1="10" y1="15" x2="10" y2="12.5"/><path class="cls-1" d="M20.5,9a1,1,0,0,1-1-1V7a2,2,0,0,0-2-2H1.5a1,1,0,0,0-1,1V16a1,1,0,0,0,1,1h16a2,2,0,0,0,2-2V14a1,1,0,0,1,1-1h3V9Z"/><line class="cls-1" x1="23.5" y1="8" x2="23.5" y2="14"/><line class="cls-1" x1="3.5" y1="17" x2="3.5" y2="19"/><line class="cls-1" x1="15.5" y1="17" x2="15.5" y2="19"/><path class="cls-1" d="M16.5,13.5A1.5,1.5,0,0,1,15,15H5a1.5,1.5,0,0,1-1.5-1.5"/></svg>