<svg id="Light" xmlns="http://www.w3.org/2000/svg" viewBox="0 0 24 24"><defs><style>.cls-1{fill:none;stroke:#000;stroke-linecap:round;stroke-linejoin:round;}</style></defs><title>crafts-model-plane </title><line class="cls-1" x1="1.5" y1="5.5" x2="1.5" y2="7.767"/><line class="cls-1" x1="1.5" y1="11.232" x2="1.5" y2="13.5"/><path class="cls-1" d="M4.5,6.5h1a0,0,0,0,1,0,0v6a0,0,0,0,1,0,0h-1a1,1,0,0,1-1-1v-4A1,1,0,0,1,4.5,6.5Z"/><path class="cls-1" d="M18.434,11.56q1.716-.572,3.376-1.309a2.845,2.845,0,0,0,1.69-2.6V5.5h-8"/><path class="cls-1" d="M8.5,5.5h-2a1,1,0,0,0-1,1v6a1,1,0,0,0,1,1q.628,0,1.256-.022"/><path class="cls-1" d="M8.5,5.5A3.448,3.448,0,0,0,11,7a8.348,8.348,0,0,0,4.5-1.5s-1-2-4.5-2A2.668,2.668,0,0,0,8.5,5.5Z"/><path class="cls-1" d="M20.058,1.3a1,1,0,0,1,.981-.8H22.5a1,1,0,0,1,1,1v4H19.219Z"/><line class="cls-1" x1="12.5" y1="20.5" x2="12.5" y2="14.115"/><path class="cls-1" d="M17,10.5H9.5a2,2,0,0,0,0,4,2.122,2.122,0,0,0,.266-.018l7.358-.987A1.5,1.5,0,0,0,17,10.5Z"/><path class="cls-1" d="M2.5,11.5a2,2,0,0,1,0-4h1v4Z"/><path class="cls-1" d="M18,23.5H7a3.009,3.009,0,0,1,3-3h5A3.009,3.009,0,0,1,18,23.5Z"/></svg>