<svg id="Light" xmlns="http://www.w3.org/2000/svg" viewBox="0 0 24 24"><defs><style>.cls-1,.cls-2{fill:none;stroke:#000;stroke-linecap:round;stroke-linejoin:round;}.cls-2{stroke-dasharray:1.615 1.615;}</style></defs><title>crafts-necklace</title><path class="cls-1" d="M12.014,8,8.723,10.35a.5.5,0,0,0-.209.407v2.486a.5.5,0,0,0,.209.407L12.014,16l3.291-2.35a.5.5,0,0,0,.209-.407V10.757a.5.5,0,0,0-.209-.407Z"/><polyline class="cls-1" points="10.514 12.5 10.514 11.5 12.014 10.5"/><path class="cls-1" d="M6,.5s.087.374.281.956"/><path class="cls-2" d="M6.868,2.959A9.764,9.764,0,0,0,10.34,7.317"/><path class="cls-1" d="M18,.5s-.087.374-.281.956"/><path class="cls-2" d="M17.132,2.959A9.764,9.764,0,0,1,13.66,7.317"/><path class="cls-1" d="M12.942,7.69A5.122,5.122,0,0,1,12,8a5.122,5.122,0,0,1-.942-.31"/><path class="cls-1" d="M3.5,23.5,1.486,20.983A4.5,4.5,0,0,1,.5,18.171V13A1.5,1.5,0,0,1,2,11.5H2A1.5,1.5,0,0,1,3.5,13v3.875"/><path class="cls-1" d="M8,23.5V20.364a4.493,4.493,0,0,0-.757-2.5L6.1,16.154a1.4,1.4,0,0,0-1.977-.445h0A1.4,1.4,0,0,0,3.648,17.5L5,19.75"/><path class="cls-1" d="M20.5,23.5l2.014-2.517a4.5,4.5,0,0,0,.986-2.812V13A1.5,1.5,0,0,0,22,11.5h0A1.5,1.5,0,0,0,20.5,13v3.875"/><path class="cls-1" d="M16,23.5V20.364a4.493,4.493,0,0,1,.757-2.5L17.9,16.154a1.4,1.4,0,0,1,1.977-.445h0a1.4,1.4,0,0,1,.476,1.791L19,19.75"/></svg>