<svg xmlns="http://www.w3.org/2000/svg" viewBox="0 0 24 24"><defs><style>.a{fill:none;stroke:#000;stroke-linecap:round;stroke-linejoin:round;}</style></defs><title>credit-card-payment</title><path class="a" d="M1.5,4.5a1,1,0,0,0-1,1v16a2,2,0,0,0,2,2h9a2,2,0,0,0,2-2V5.5a1,1,0,0,0-1-1"/><path class="a" d="M.5,7.5h13"/><path class="a" d="M.5,11.5h13"/><line class="a" x1="2.504" y1="18.5" x2="3.504" y2="18.5"/><line class="a" x1="5.504" y1="18.5" x2="6.504" y2="18.5"/><line class="a" x1="8.504" y1="18.5" x2="9.504" y2="18.5"/><line class="a" x1="2.504" y1="20.5" x2="3.504" y2="20.5"/><line class="a" x1="5.504" y1="20.5" x2="6.504" y2="20.5"/><line class="a" x1="8.504" y1="20.5" x2="9.504" y2="20.5"/><line class="a" x1="2.504" y1="16.5" x2="3.504" y2="16.5"/><line class="a" x1="5.504" y1="16.5" x2="6.504" y2="16.5"/><line class="a" x1="8.504" y1="16.5" x2="9.504" y2="16.5"/><line class="a" x1="2.504" y1="14.5" x2="4.504" y2="14.5"/><line class="a" x1="6.504" y1="14.5" x2="7.504" y2="14.5"/><line class="a" x1="9.504" y1="14.5" x2="11.504" y2="14.5"/><line class="a" x1="11.504" y1="20.5" x2="11.504" y2="16.5"/><path class="a" d="M3.5,7.5V1.309A.5.5,0,0,1,4.228.862L5.5,1.5,6.727.685a.5.5,0,0,1,.554,0L8.5,1.5,9.78.862a.5.5,0,0,1,.724.447V7.5"/><line class="a" x1="5.504" y1="3.5" x2="8.504" y2="3.5"/><line class="a" x1="5.504" y1="5.5" x2="6.504" y2="5.5"/><rect class="a" x="15.504" y="0.5" width="8" height="11" rx="1" ry="1"/><line class="a" x1="18.504" y1="0.5" x2="18.504" y2="11.5"/><line class="a" x1="21.504" y1="4" x2="21.504" y2="2.5"/><polyline class="a" points="17.504 17.5 19.504 19.5 21.504 17.5"/><line class="a" x1="19.504" y1="19.5" x2="19.504" y2="14.5"/></svg>