<svg xmlns="http://www.w3.org/2000/svg" viewBox="0 0 24 24"><defs><style>.a{fill:none;stroke:#000;stroke-linecap:round;stroke-linejoin:round;}</style></defs><title>credit-card-online-payment</title><rect class="a" x="14.004" y="14" width="8" height="11" rx="1" ry="1" transform="translate(37.504 1.496) rotate(90)"/><line class="a" x1="23.504" y1="18.5" x2="12.504" y2="18.5"/><line class="a" x1="20.004" y1="21.5" x2="21.504" y2="21.5"/><path class="a" d="M10.5,17.5h-8a2,2,0,0,1-2-2V2.5a2,2,0,0,1,2-2h17a2,2,0,0,1,2,2v11"/><line class="a" x1="0.504" y1="5.5" x2="21.504" y2="5.5"/><path class="a" d="M3.5,2.75a.25.25,0,1,1-.25.25.25.25,0,0,1,.25-.25"/><path class="a" d="M6,2.751a.25.25,0,1,1-.25.25A.25.25,0,0,1,6,2.751"/><path class="a" d="M8.5,2.751a.25.25,0,1,1-.25.25.25.25,0,0,1,.25-.25"/><line class="a" x1="10.504" y1="12.501" x2="10.504" y2="13.501"/><line class="a" x1="10.504" y1="7.501" x2="10.504" y2="8.501"/><path class="a" d="M8.5,12.5h3a1,1,0,0,0,0-2h-2a1,1,0,0,1,0-2h3"/></svg>