<svg xmlns="http://www.w3.org/2000/svg" viewBox="0 0 24 24"><defs><style>.a{fill:none;stroke:#000;stroke-linecap:round;stroke-linejoin:round;}</style></defs><title>credit-card-phone-call</title><path class="a" d="M14.5,15.5H2.5a2,2,0,0,1-2-2V2.5a2,2,0,0,1,2-2h16a2,2,0,0,1,2,2v4"/><line class="a" x1="0.504" y1="4.5" x2="20.504" y2="4.5"/><line class="a" x1="17.504" y1="8.5" x2="15.504" y2="8.5"/><line class="a" x1="10.504" y1="8.5" x2="2.504" y2="8.5"/><line class="a" x1="5.504" y1="11.5" x2="2.504" y2="11.5"/><path class="a" d="M18.179,13.43a1.549,1.549,0,0,1-.115-2.182L19.613,9.7a1.547,1.547,0,0,1,2.181.115l.944.943a2.383,2.383,0,0,1,.445,2.926,30.635,30.635,0,0,1-9.5,9.495,2.383,2.383,0,0,1-2.925-.443l-.945-.945A1.549,1.549,0,0,1,9.7,19.61l1.549-1.549a1.549,1.549,0,0,1,2.181.114l.574.573A31.17,31.17,0,0,0,18.752,14Z"/></svg>