<svg xmlns="http://www.w3.org/2000/svg" viewBox="0 0 24 24"><defs><style>.a{fill:none;stroke:#000;stroke-linecap:round;stroke-linejoin:round;}</style></defs><title>credit-card-flag</title><path class="a" d="M12.5,15.5H2.5a2,2,0,0,1-2-2V2.5a2,2,0,0,1,2-2h16a2,2,0,0,1,2,2v7"/><line class="a" x1="0.5" y1="4.5" x2="20.5" y2="4.5"/><line class="a" x1="18.5" y1="8.5" x2="15.5" y2="8.5"/><line class="a" x1="10.5" y1="8.5" x2="2.5" y2="8.5"/><line class="a" x1="5.5" y1="11.5" x2="2.5" y2="11.5"/><line class="a" x1="14.5" y1="13.619" x2="14.5" y2="23.5"/><path class="a" d="M14.5,19.119l1.29-.43a3.684,3.684,0,0,1,3.21.43,3.684,3.684,0,0,0,3.21.43l1.29-.43v-7l-1.29.43a3.684,3.684,0,0,1-3.21-.43,3.684,3.684,0,0,0-3.21-.43l-1.29.43Z"/></svg>