<svg xmlns="http://www.w3.org/2000/svg" viewBox="0 0 24 24"><defs><style>.a{fill:none;stroke:#000;stroke-linecap:round;stroke-linejoin:round;}</style></defs><title>credit-card-scan</title><path class="a" d="M9.715,11H1.5a1,1,0,0,1-1-1V3a1,1,0,0,1,1-1h7"/><line class="a" x1="13.504" y1="5" x2="13.504" y2="10"/><line class="a" x1="0.504" y1="4" x2="8.504" y2="4"/><line class="a" x1="5.504" y1="6" x2="2.504" y2="6"/><line class="a" x1="23.504" y1="22" x2="23.504" y2="11"/><path class="a" d="M21.442,11A8,8,0,0,0,11.5,2.253a1.438,1.438,0,0,0-1.011,1.88h0a1.6,1.6,0,0,0,1.882,1A5,5,0,0,1,18.5,9.76a2.97,2.97,0,0,1-.74,2.093L16.7,13.06a2,2,0,0,1-2.921.1L11.726,11.1A1.5,1.5,0,1,0,9.6,13.222l3.728,4.228A4,4,0,0,1,14.5,20.278V22"/><path class="a" d="M20.7,6.509A5.005,5.005,0,0,1,23.5,11"/></svg>