<svg xmlns="http://www.w3.org/2000/svg" viewBox="0 0 24 24"><defs><style>.a{fill:none;stroke:#000;stroke-linecap:round;stroke-linejoin:round;}</style></defs><title>crime-woman-riot</title><path class="a" d="M18,6.5c-1.327,0-4.058.337-6-2-1.942,2.337-4.673,2-6,2"/><path class="a" d="M14,8.249a.25.25,0,1,1-.25.25.25.25,0,0,1,.25-.25"/><path class="a" d="M10,8.249a.25.25,0,1,1-.25.25.25.25,0,0,1,.25-.25"/><path class="a" d="M16.572,12.38A5.975,5.975,0,0,0,18,8.5v-2a6,6,0,0,0-12,0v2A5.975,5.975,0,0,0,7.428,12.38"/><path class="a" d="M23,23.5V20.393a1.978,1.978,0,0,0-.77-1.579,14.156,14.156,0,0,0-6.2-2.482"/><path class="a" d="M7.974,16.332a14.156,14.156,0,0,0-6.2,2.482A1.978,1.978,0,0,0,1,20.393V23.5"/><path class="a" d="M12,22s4.574-2.5,4.574-9.617a22.23,22.23,0,0,0-4.106-2.639,1,1,0,0,0-.936,0,22.23,22.23,0,0,0-4.106,2.639C7.426,19.5,12,22,12,22Z"/><path class="a" d="M18,7c0,1.716.489,4.964,2.315,6.17a.506.506,0,0,1-.029.882A4.528,4.528,0,0,1,16.5,14"/><path class="a" d="M6,7c0,1.716-.489,4.964-2.315,6.17a.506.506,0,0,0,.029.882A4.528,4.528,0,0,0,7.5,14"/></svg>