<svg xmlns="http://www.w3.org/2000/svg" viewBox="0 0 24 24"><defs><style>.a{fill:none;stroke:#000;stroke-linecap:round;stroke-linejoin:round;}</style></defs><title>crime-man-thief-1</title><path class="a" d="M13.5,11.5a2.5,2.5,0,0,0-3,0"/><path class="a" d="M18,6.5a6,6,0,0,0-12,0v2a6,6,0,0,0,12,0Z"/><path class="a" d="M17.809,10c-1.3.022-3.63.2-5.442-1.6a.513.513,0,0,0-.734,0C9.821,10.2,7.487,10.024,6.191,10"/><line class="a" x1="6.084" y1="5.5" x2="17.916" y2="5.5"/><path class="a" d="M23,23.5V20.394a1.98,1.98,0,0,0-.77-1.58A14.775,14.775,0,0,0,15,16.178"/><path class="a" d="M9,16.178a14.775,14.775,0,0,0-7.23,2.636A1.98,1.98,0,0,0,1,20.394V23.5"/><path class="a" d="M9,13.7v2.8a6.338,6.338,0,0,0,3,1,6.338,6.338,0,0,0,3-1V13.7"/><line class="a" x1="11" y1="17.369" x2="11" y2="14.417"/><line class="a" x1="13" y1="17.369" x2="13" y2="14.417"/><line class="a" x1="10" y1="3" x2="10" y2="0.842"/><line class="a" x1="14" y1="3" x2="14" y2="0.842"/><line class="a" x1="12" y1="2.5" x2="12" y2="0.5"/><line class="a" x1="8.5" y1="7.5" x2="9.5" y2="7.5"/><line class="a" x1="15.5" y1="7.5" x2="14.5" y2="7.5"/></svg>