<svg xmlns="http://www.w3.org/2000/svg" viewBox="0 0 24 24"><defs><style>.a{fill:none;stroke:#000;stroke-linecap:round;stroke-linejoin:round;}</style></defs><title>crime-man-thug</title><path class="a" d="M13,13.336a3.125,3.125,0,0,1-2,0"/><path class="a" d="M11,9a1.089,1.089,0,0,0-1-.5A1.089,1.089,0,0,0,9,9"/><path class="a" d="M15,9a1.089,1.089,0,0,0-1-.5A1.089,1.089,0,0,0,13,9"/><path class="a" d="M11.98,16.5c1.391,0,4.5-1.721,4.947-4.365a1,1,0,0,1,.574-.746c1.081-.49,1.352-2.452.479-2.889.5-2.986-.521-8-6-8s-6.5,5.014-6,8c-.874.437-.6,2.4.479,2.889a1,1,0,0,1,.574.746C7.476,14.779,10.588,16.5,11.98,16.5Z"/><path class="a" d="M23.5,23.5v-1a4,4,0,0,0-2.6-3.745L15.5,16.94"/><path class="a" d="M8.5,16.94,3.1,18.755A4,4,0,0,0,.5,22.5v1"/><path class="a" d="M17.409,17.582a5.945,5.945,0,0,1-10.818,0"/><line class="a" x1="4.5" y1="18.284" x2="4.5" y2="23.5"/><line class="a" x1="19.5" y1="18.284" x2="19.5" y2="23.5"/><path class="a" d="M8.837,5A3.514,3.514,0,0,1,10.5,3.337"/><path class="a" d="M16.064,14.066A4.5,4.5,0,0,0,7.92,14.1"/></svg>