<svg xmlns="http://www.w3.org/2000/svg" viewBox="0 0 24 24"><defs><style>.a{fill:none;stroke:#000;stroke-linecap:round;stroke-linejoin:round;}</style></defs><title>crime-cut</title><path class="a" d="M10.53,18.263l-.676.676a.5.5,0,0,1-.708,0L2.854,12.646a.5.5,0,0,1,0-.707L14.146.646a.5.5,0,0,1,.708,0l6.292,6.293a.5.5,0,0,1,0,.707l-.788.789"/><path class="a" d="M13.46,8.424a2,2,0,1,1-2.828,0A2,2,0,0,1,13.46,8.424Z"/><line class="a" x1="13.5" y1="4.793" x2="14.5" y2="3.793"/><line class="a" x1="9.5" y1="15.793" x2="10.5" y2="14.793"/><path class="a" d="M12.5,15.5v6a1,1,0,0,0,2,0v-4a1,1,0,0,0,2,0v-2a1,1,0,0,1,1-1,1,1,0,0,0,1-1v-5"/><path class="a" d="M4.5,17v1.5a2,2,0,0,0,2,2v2a1,1,0,0,0,2,0V21"/></svg>