<svg xmlns="http://www.w3.org/2000/svg" viewBox="0 0 24 24"><defs><style>.a{fill:none;stroke:#000;stroke-linecap:round;stroke-linejoin:round;}</style></defs><title>crime-woman-thief</title><path class="a" d="M10.5,13a1.967,1.967,0,0,1,1.358-.5h.284A1.965,1.965,0,0,1,13.5,13"/><path class="a" d="M7.089,12.135C7.53,14.779,10.633,16.5,12.02,16.5s4.49-1.721,4.932-4.365"/><path class="a" d="M18.189,6.665C18.273,3.819,17.292.5,12.02.5,6.788.5,5.782,3.77,5.85,6.6"/><path class="a" d="M5.423,11.5a4.4,4.4,0,0,1-1.652,2.214.5.5,0,0,0-.041.831,4.427,4.427,0,0,0,2.915.932"/><path class="a" d="M18.615,11.5a4.4,4.4,0,0,0,1.655,2.22.5.5,0,0,1,.04.831,4.425,4.425,0,0,1-2.915.932"/><path class="a" d="M23.5,23.5v-1a4,4,0,0,0-2.6-3.745l-5.4-1.814"/><path class="a" d="M8.5,16.941,3.1,18.755A4,4,0,0,0,.5,22.5v1"/><path class="a" d="M12,7.821,9.17,9.737a2.363,2.363,0,0,1-2.983-.274,2.3,2.3,0,0,1,0-3.283A2.363,2.363,0,0,1,9.17,5.906Z"/><path class="a" d="M12,7.821l2.83,1.916a2.363,2.363,0,0,0,2.983-.274,2.3,2.3,0,0,0,0-3.283,2.363,2.363,0,0,0-2.983-.274Z"/><line class="a" x1="8" y1="7.5" x2="9" y2="7.5"/><line class="a" x1="15" y1="7.5" x2="16" y2="7.5"/><path class="a" d="M8.5,14.7v2.8a5.226,5.226,0,0,0,7,0V14.741"/></svg>