<svg xmlns="http://www.w3.org/2000/svg" viewBox="0 0 24 24"><defs><style>.a{fill:none;stroke:#000;stroke-linecap:round;stroke-linejoin:round;}</style></defs><title>crime-man-riot-1</title><path class="a" d="M14,8.25a.25.25,0,1,1-.25.25A.25.25,0,0,1,14,8.25"/><path class="a" d="M10,8.25a.25.25,0,1,1-.25.25A.25.25,0,0,1,10,8.25"/><path class="a" d="M12.277,21.825c.991-.678,4.3-3.391,4.3-9.443a6.5,6.5,0,0,0-9.148,0c0,6.052,3.306,8.765,4.3,9.443A.488.488,0,0,0,12.277,21.825Z"/><path class="a" d="M16.574,12.382,16.091,7.6a2,2,0,0,0-1.411-1.75A9.229,9.229,0,0,0,12,5.5a9.229,9.229,0,0,0-2.68.345A2,2,0,0,0,7.909,7.6l-.483,4.787"/><path class="a" d="M23,23.5V20.394a1.98,1.98,0,0,0-.77-1.58,12.3,12.3,0,0,0-3.459-1.786,1.012,1.012,0,0,1-.662-1.067A50.613,50.613,0,0,0,19,7.5a6.916,6.916,0,0,0-7-7,6.916,6.916,0,0,0-7,7,50.613,50.613,0,0,0,.891,8.461,1.012,1.012,0,0,1-.662,1.067A12.3,12.3,0,0,0,1.77,18.814,1.98,1.98,0,0,0,1,20.394V23.5"/></svg>