<svg xmlns="http://www.w3.org/2000/svg" viewBox="0 0 24 24"><defs><style>.a{fill:none;stroke:#000;stroke-linecap:round;stroke-linejoin:round;}</style></defs><title>crime-woman-inmate</title><path class="a" d="M12,14.625a6,6,0,0,0,6-6V3.256a1.984,1.984,0,0,0-1.2-1.837A12.413,12.413,0,0,0,12,.625a12.413,12.413,0,0,0-4.795.794A1.984,1.984,0,0,0,6,3.256V8.625A6,6,0,0,0,12,14.625Z"/><path class="a" d="M18,7.125s-1.5-1.5-6-1.5-6,1.5-6,1.5"/><path class="a" d="M18,5.125s-1.5-1.5-6-1.5-6,1.5-6,1.5"/><line class="a" x1="9.5" y1="8.125" x2="10.5" y2="8.125"/><line class="a" x1="14.5" y1="8.125" x2="13.5" y2="8.125"/><path class="a" d="M23,23.375V20.769a1.976,1.976,0,0,0-.77-1.579C20.9,18.171,17.73,16.375,12,16.375s-8.895,1.8-10.23,2.815A1.976,1.976,0,0,0,1,20.769v2.606"/><path class="a" d="M8.083,16.687a4,4,0,0,0,7.834,0"/><line class="a" x1="1.561" y1="19.375" x2="10.062" y2="19.375"/><line class="a" x1="13.938" y1="19.375" x2="22.439" y2="19.375"/><line class="a" x1="1" y1="21.875" x2="23" y2="21.875"/><path class="a" d="M11.131,11.877a2.192,2.192,0,0,1,.727-.122h.284a2.2,2.2,0,0,1,.728.122"/><path class="a" d="M18,6.875c0,1.716.49,4.964,2.315,6.17a.506.506,0,0,1-.029.882,4.519,4.519,0,0,1-2.8.293"/><path class="a" d="M6,6.875c0,1.716-.489,4.964-2.315,6.17a.506.506,0,0,0,.029.882,4.518,4.518,0,0,0,2.785.3"/></svg>