<svg xmlns="http://www.w3.org/2000/svg" viewBox="0 0 24 24"><defs><style>.a{fill:none;stroke:#000;stroke-linecap:round;stroke-linejoin:round;}</style></defs><title>crypto-currency-bitcoin-wallet-open</title><path class="a" d="M21.5,14.52V15a3.009,3.009,0,0,1-3,3h-2"/><path class="a" d="M1.3,4.453,13.594,7.771A4.056,4.056,0,0,1,16.5,11.5v9.611a2.272,2.272,0,0,1-2.92,2.311L3.424,20.8A3.983,3.983,0,0,1,.5,17.111V6.5a3.009,3.009,0,0,1,3-3H9.018"/><circle class="a" cx="12.004" cy="16.5" r="2"/><path class="a" d="M18.5,5A1.5,1.5,0,0,1,17,6.5H15.5v-3H17A1.5,1.5,0,0,1,18.5,5Z"/><path class="a" d="M15.5,6.5H17a1.5,1.5,0,0,1,1.01,2.609"/><line class="a" x1="16.504" y1="2.5" x2="16.504" y2="3.5"/><path class="a" d="M10.811,5.022a6.5,6.5,0,1,1,7.708,8.3"/></svg>