<svg xmlns="http://www.w3.org/2000/svg" viewBox="0 0 24 24"><defs><style>.a{fill:none;stroke:#000;stroke-linecap:round;stroke-linejoin:round;}</style></defs><title>crypto-currency-bitcoin-mining</title><path class="a" d="M2.667,16.629A1.267,1.267,0,0,1,.875,14.837L8.94,6.772l1.792,1.792Z"/><rect class="a" x="10.36" y="3.342" width="2.534" height="5.069" transform="translate(7.561 -6.501) rotate(45)"/><path class="a" d="M11.628,4.084A11.573,11.573,0,0,0,3.563.5L9.388,6.324"/><line class="a" x1="13.502" y1="10.439" x2="11.18" y2="8.116"/><path class="a" d="M13.42,5.876a11.761,11.761,0,0,1,2.493,3.435"/><circle class="a" cx="17.504" cy="17.5" r="6"/><path class="a" d="M19.5,16A1.5,1.5,0,0,1,18,17.5H15.5v-3H18A1.5,1.5,0,0,1,19.5,16Z"/><path class="a" d="M19.5,19A1.5,1.5,0,0,1,18,20.5H15.5v-3H18A1.5,1.5,0,0,1,19.5,19Z"/><line class="a" x1="16.504" y1="13.5" x2="16.504" y2="14.5"/><line class="a" x1="16.504" y1="20.5" x2="16.504" y2="21.5"/></svg>