<svg xmlns="http://www.w3.org/2000/svg" viewBox="0 0 24 24"><defs><style>.a{fill:none;stroke:#000;stroke-linecap:round;stroke-linejoin:round;}</style></defs><title>crypto-currency-bitcoin-dollar-exchange</title><line class="a" x1="6.504" y1="11.52" x2="6.504" y2="13.5"/><line class="a" x1="8.504" y1="11.52" x2="8.504" y2="13.5"/><line class="a" x1="6.504" y1="19.52" x2="6.504" y2="21.5"/><line class="a" x1="8.504" y1="19.52" x2="8.504" y2="21.5"/><path class="a" d="M10.5,15A1.5,1.5,0,0,1,9,16.5H5.5v-3H9A1.5,1.5,0,0,1,10.5,15Z"/><path class="a" d="M10.5,18A1.5,1.5,0,0,1,9,19.5H5.5v-3H9A1.5,1.5,0,0,1,10.5,18Z"/><circle class="a" cx="18.504" cy="5.5" r="5"/><circle class="a" cx="7.504" cy="16.5" r="7"/><path class="a" d="M17.345,6.659A1.159,1.159,0,1,0,18.5,5.5a1.159,1.159,0,1,1,1.159-1.159"/><line class="a" x1="18.504" y1="7.818" x2="18.504" y2="8.591"/><line class="a" x1="18.504" y1="2.409" x2="18.504" y2="3.183"/><path class="a" d="M9,1A5,5,0,0,0,4,6V7"/><path class="a" d="M16,21a5,5,0,0,0,5-5V15"/><polyline class="a" points="2.004 5 4.004 7 6.004 5"/><polyline class="a" points="19.004 17 21.004 15 23.004 17"/></svg>