<svg xmlns="http://www.w3.org/2000/svg" viewBox="0 0 24 24"><defs><style>.a{fill:none;stroke:#000;stroke-linecap:round;stroke-linejoin:round;}</style></defs><title>crypto-currency-bitcoin-lock</title><rect class="a" x="3.5" y="9.5" width="17" height="14" rx="2" ry="2"/><path class="a" d="M6.5,6a5.5,5.5,0,0,1,11,0V9.5H6.5Z"/><path class="a" d="M15,14.5a2,2,0,0,1-2,2H10.5v-4H13A2,2,0,0,1,15,14.5Z"/><path class="a" d="M15,18.5a2,2,0,0,1-2,2H10.5v-4H13A2,2,0,0,1,15,18.5Z"/><line class="a" x1="12" y1="11.5" x2="12" y2="12.5"/><line class="a" x1="12" y1="20.5" x2="12" y2="21.5"/><path class="a" d="M15,14.5a2,2,0,0,1-2,2H10.5v-4H13A2,2,0,0,1,15,14.5Z"/><path class="a" d="M15,18.5a2,2,0,0,1-2,2H10.5v-4H13A2,2,0,0,1,15,18.5Z"/><line class="a" x1="12" y1="11.5" x2="12" y2="12.5"/><line class="a" x1="12" y1="20.5" x2="12" y2="21.5"/></svg>