<svg xmlns="http://www.w3.org/2000/svg" viewBox="0 0 24 24"><defs><style>.a{fill:none;stroke:#000;stroke-linecap:round;stroke-linejoin:round;}</style></defs><title>crypto-currency-bitcoin-cloud</title><path class="a" d="M21.306,12.127A3.5,3.5,0,0,0,17.657,7.5,6,6,0,0,0,6,9.485a5.515,5.515,0,0,0,0,11.03H19a4.515,4.515,0,0,0,2.306-8.388Z"/><path class="a" d="M15.5,11.015a1.5,1.5,0,0,1-1.5,1.5H10.5v-3H14A1.5,1.5,0,0,1,15.5,11.015Z"/><path class="a" d="M15.5,14.015a1.5,1.5,0,0,1-1.5,1.5H10.5v-3H14A1.5,1.5,0,0,1,15.5,14.015Z"/><line class="a" x1="11.5" y1="7.515" x2="11.5" y2="9.515"/><line class="a" x1="13.5" y1="7.515" x2="13.5" y2="9.515"/><line class="a" x1="11.5" y1="15.515" x2="11.5" y2="17.515"/><line class="a" x1="13.5" y1="15.515" x2="13.5" y2="17.515"/></svg>