<svg xmlns="http://www.w3.org/2000/svg" viewBox="0 0 24 24"><defs><style>.a{fill:none;stroke:#000;stroke-linecap:round;stroke-linejoin:round;}</style></defs><title>crypto-currency-bitcoin-monitor-shield</title><line class="a" x1="10.504" y1="4.25" x2="10.504" y2="5.75"/><line class="a" x1="12.504" y1="4.25" x2="12.504" y2="5.75"/><line class="a" x1="10.504" y1="11.771" x2="10.504" y2="13.25"/><line class="a" x1="12.504" y1="11.771" x2="12.504" y2="13.25"/><path class="a" d="M14.5,7.25A1.5,1.5,0,0,1,13,8.75H9.5v-3H13A1.5,1.5,0,0,1,14.5,7.25Z"/><path class="a" d="M14.5,10.25a1.5,1.5,0,0,1-1.5,1.5H9.5v-3H13A1.5,1.5,0,0,1,14.5,10.25Z"/><line class="a" x1="12.004" y1="19.75" x2="12.004" y2="22.75"/><line class="a" x1="8.504" y1="22.75" x2="15.504" y2="22.75"/><path class="a" d="M5.5,3.365v5.4a7.938,7.938,0,0,0,5.088,7.408l.694.267a2,2,0,0,0,1.436,0l.694-.267A7.938,7.938,0,0,0,18.5,8.763v-5.4a.993.993,0,0,0-.578-.908A14.485,14.485,0,0,0,12,1.25,14.485,14.485,0,0,0,6.082,2.457.993.993,0,0,0,5.5,3.365Z"/><path class="a" d="M3.5,5.75h-2a1,1,0,0,0-1,1v12a1,1,0,0,0,1,1h21a1,1,0,0,0,1-1v-12a1,1,0,0,0-1-1h-2"/></svg>