<svg xmlns="http://www.w3.org/2000/svg" viewBox="0 0 24 24"><defs><style>.a{fill:none;stroke:#000;stroke-linecap:round;stroke-linejoin:round;}</style></defs><title>crypto-currency-bitcoin-shield</title><path class="a" d="M2,3.775v7.637A12.285,12.285,0,0,0,9.832,22.88l1.067.414a3.063,3.063,0,0,0,2.21,0l1.067-.414A12.285,12.285,0,0,0,22,11.412V3.775a1.536,1.536,0,0,0-.89-1.406A22.143,22.143,0,0,0,12,.5a22.143,22.143,0,0,0-9.11,1.869A1.536,1.536,0,0,0,2,3.775Z"/><path class="a" d="M14.5,8.5a2,2,0,0,1-2,2H10v-4h2.5A2,2,0,0,1,14.5,8.5Z"/><path class="a" d="M14.5,12.5a2,2,0,0,1-2,2H10v-4h2.5A2,2,0,0,1,14.5,12.5Z"/><line class="a" x1="11.504" y1="5.5" x2="11.504" y2="6.5"/><line class="a" x1="11.504" y1="14.5" x2="11.504" y2="15.5"/><path class="a" d="M14.5,8.5a2,2,0,0,1-2,2H10v-4h2.5A2,2,0,0,1,14.5,8.5Z"/><path class="a" d="M14.5,12.5a2,2,0,0,1-2,2H10v-4h2.5A2,2,0,0,1,14.5,12.5Z"/><line class="a" x1="11.504" y1="5.5" x2="11.504" y2="6.5"/><line class="a" x1="11.504" y1="14.5" x2="11.504" y2="15.5"/></svg>