<svg xmlns="http://www.w3.org/2000/svg" viewBox="0 0 24 24"><defs><style>.a{fill:none;stroke:#000;stroke-linecap:round;stroke-linejoin:round;}</style></defs><title>crypto-currency-bitcoin-monitor-mining-1</title><line class="a" x1="10.504" y1="3.521" x2="10.504" y2="5.5"/><line class="a" x1="12.504" y1="3.521" x2="12.504" y2="5.5"/><line class="a" x1="10.504" y1="11.521" x2="10.504" y2="13.5"/><line class="a" x1="12.504" y1="11.521" x2="12.504" y2="13.5"/><path class="a" d="M14.5,7A1.5,1.5,0,0,1,13,8.5H9.5v-3H13A1.5,1.5,0,0,1,14.5,7Z"/><path class="a" d="M14.5,10A1.5,1.5,0,0,1,13,11.5H9.5v-3H13A1.5,1.5,0,0,1,14.5,10Z"/><path class="a" d="M7.5,8.5h-1a1,1,0,0,0-1,1v7a1,1,0,0,0,1,1h11a1,1,0,0,0,1-1v-7a1,1,0,0,0-1-1h-1"/><line class="a" x1="12.004" y1="17.5" x2="12.004" y2="19.5"/><line class="a" x1="9.504" y1="19.5" x2="14.504" y2="19.5"/><path class="a" d="M1.5,4.5v4a1,1,0,0,0,1,1h1"/><circle class="a" cx="1.504" cy="1.5" r="1"/><path class="a" d="M22.5,4.5v4a1,1,0,0,1-1,1h-1"/><circle class="a" cx="22.504" cy="1.5" r="1"/><path class="a" d="M1.5,19.5v-4a1,1,0,0,1,1-1h1"/><circle class="a" cx="1.504" cy="22.5" r="1"/><path class="a" d="M22.5,19.5v-4a1,1,0,0,0-1-1h-1"/><circle class="a" cx="22.504" cy="22.5" r="1"/></svg>