<svg xmlns="http://www.w3.org/2000/svg" viewBox="0 0 24 24"><defs><style>.a{fill:none;stroke:#000;stroke-linecap:round;stroke-linejoin:round;}</style></defs><title>crypto-currency-bitcoin-bubble</title><path class="a" d="M15,10.5a2,2,0,0,1-2,2H10.5v-4H13A2,2,0,0,1,15,10.5Z"/><path class="a" d="M15,14.5a2,2,0,0,1-2,2H10.5v-4H13A2,2,0,0,1,15,14.5Z"/><line class="a" x1="12.004" y1="7.5" x2="12.004" y2="8.5"/><line class="a" x1="12.004" y1="16.5" x2="12.004" y2="17.5"/><path class="a" d="M15,10.5a2,2,0,0,1-2,2H10.5v-4H13A2,2,0,0,1,15,10.5Z"/><path class="a" d="M15,14.5a2,2,0,0,1-2,2H10.5v-4H13A2,2,0,0,1,15,14.5Z"/><line class="a" x1="12.004" y1="7.5" x2="12.004" y2="8.5"/><line class="a" x1="12.004" y1="16.5" x2="12.004" y2="17.5"/><path class="a" d="M23.5,12a4,4,0,0,0-2.523-3.718,4,4,0,0,0-5.259-5.259,4,4,0,0,0-7.436,0A4,4,0,0,0,3.027,8.282a4,4,0,0,0,0,7.436,4,4,0,0,0,5.259,5.259,4,4,0,0,0,7.436,0,4,4,0,0,0,5.259-5.259A4,4,0,0,0,23.5,12Z"/></svg>