<svg xmlns="http://www.w3.org/2000/svg" viewBox="0 0 24 24"><defs><style>.a{fill:none;stroke:#000;stroke-linecap:round;stroke-linejoin:round;}</style></defs><title>currency-dollar-international</title><path class="a" d="M12.254,23.5a11.5,11.5,0,0,1,0-23h.5v23Z"/><line class="a" x1="2.152" y1="17.5" x2="12.753" y2="17.5"/><line class="a" x1="2.152" y1="6.5" x2="12.754" y2="6.5"/><line class="a" x1="0.765" y1="11.5" x2="12.754" y2="11.5"/><path class="a" d="M11.812,23.492A16.615,16.615,0,0,1,7.254,12,16.611,16.611,0,0,1,11.813.508"/><path class="a" d="M23.254,4.5h-3.9a3.424,3.424,0,0,0-3.371,3.476,3.491,3.491,0,0,0,1.864,3.11l3.545,1.828a3.491,3.491,0,0,1,1.864,3.11A3.424,3.424,0,0,1,19.883,19.5h-3.9"/><line class="a" x1="18.754" y1="19.5" x2="18.754" y2="22.227"/><line class="a" x1="20.754" y1="1.773" x2="20.754" y2="4.5"/></svg>