<svg xmlns="http://www.w3.org/2000/svg" viewBox="0 0 24 24"><defs><style>.a{fill:none;stroke:#000;stroke-linecap:round;stroke-linejoin:round;}</style></defs><title>currency-user-exchange</title><path class="a" d="M4,13.5V13a.5.5,0,0,1,.5-.5h15a.5.5,0,0,1,.5.5v.5"/><line class="a" x1="12.004" y1="10.5" x2="12.004" y2="13.5"/><path class="a" d="M2.5,21A1.5,1.5,0,1,0,4,19.5,1.5,1.5,0,1,1,5.5,18"/><line class="a" x1="4.004" y1="22.5" x2="4.004" y2="23.5"/><line class="a" x1="4.004" y1="15.5" x2="4.004" y2="16.5"/><line class="a" x1="12.004" y1="19" x2="12.004" y2="23.5"/><polyline class="a" points="14.004 16 12.004 19 10.004 16"/><line class="a" x1="11.004" y1="19.5" x2="13.004" y2="19.5"/><line class="a" x1="11.004" y1="21.5" x2="13.004" y2="21.5"/><path class="a" d="M21.3,17.666a1.146,1.146,0,1,0-2.292,0v4.07c0,.645-.856,1.764-1.5,1.764h4"/><line class="a" x1="17.004" y1="20.5" x2="21.504" y2="20.5"/><path class="a" d="M16.5,10.5a4.5,4.5,0,0,0-9,0Z"/><circle class="a" cx="12.004" cy="3.25" r="2.75"/></svg>