<svg xmlns="http://www.w3.org/2000/svg" viewBox="0 0 24 24"><defs><style>.a{fill:none;stroke:#000;stroke-linecap:round;stroke-linejoin:round;}</style></defs><title>currency-dollar-increase</title><path class="a" d="M5.007,16.509C-2.753,12.374.15.5,9,.5a8.51,8.51,0,0,1,6.942,13.406"/><line class="a" x1="8.497" y1="12.4" x2="8.497" y2="13.533"/><line class="a" x1="8.497" y1="4.467" x2="8.497" y2="5.602"/><path class="a" d="M6.8,10.7A1.7,1.7,0,1,0,8.5,9a1.7,1.7,0,1,1,1.7-1.7"/><path class="a" d="M2,23.5l8.369-7.44a1,1,0,0,1,1.289-.033l3.667,2.933a1,1,0,0,0,1.307-.05L23.5,12.5"/><polyline class="a" points="19.497 12.5 23.497 12.5 23.497 16.5"/></svg>