<svg xmlns="http://www.w3.org/2000/svg" viewBox="0 0 24 24"><defs><style>.a{fill:none;stroke:#000;stroke-linecap:round;stroke-linejoin:round;}</style></defs><title>currency-yuan-increase</title><line class="a" x1="9.497" y1="8.5" x2="9.497" y2="13.5"/><polyline class="a" points="12.497 4.5 9.497 8.5 6.497 4.5"/><line class="a" x1="7.497" y1="8.5" x2="11.497" y2="8.5"/><line class="a" x1="7.497" y1="10.5" x2="11.497" y2="10.5"/><path class="a" d="M2,23.5l8.369-7.44a1,1,0,0,1,1.289-.033l3.667,2.933a1,1,0,0,0,1.307-.05L23.5,12.5"/><polyline class="a" points="19.497 12.5 23.497 12.5 23.497 16.5"/><path class="a" d="M5.007,16.509C-2.753,12.374.15.5,9,.5a8.509,8.509,0,0,1,6.942,13.406"/></svg>