<svg xmlns="http://www.w3.org/2000/svg" viewBox="0 0 24 24"><defs><style>.a{fill:none;stroke:#000;stroke-linecap:round;stroke-linejoin:round;}</style></defs><title>currency-dollar-diamond</title><circle class="a" cx="16.004" cy="8" r="7.5"/><line class="a" x1="12.672" y1="1.279" x2="14.258" y2="4.967"/><line class="a" x1="9.24" y1="4.757" x2="12.936" y2="6.313"/><line class="a" x1="19.336" y1="1.279" x2="17.75" y2="4.967"/><line class="a" x1="22.768" y1="4.757" x2="19.072" y2="6.313"/><line class="a" x1="12.672" y1="14.721" x2="14.258" y2="11.034"/><line class="a" x1="9.24" y1="11.243" x2="12.936" y2="9.688"/><line class="a" x1="19.336" y1="14.721" x2="17.75" y2="11.034"/><line class="a" x1="22.768" y1="11.243" x2="19.072" y2="9.688"/><circle class="a" cx="16.004" cy="8" r="3.5"/><polyline class="a" points="1.004 5 3.004 7 5.004 5"/><path class="a" d="M8,1A5,5,0,0,0,3,6V7"/><polyline class="a" points="23.004 19 21.004 17 19.004 19"/><path class="a" d="M16,23a5,5,0,0,0,5-5V17"/><path class="a" d="M8.681,9.606A7,7,0,1,0,14.4,15.323"/><line class="a" x1="7.504" y1="13.5" x2="7.504" y2="12.5"/><path class="a" d="M9,13.5H6.971a1.342,1.342,0,0,0-.5,2.587l2.064.826a1.342,1.342,0,0,1-.5,2.587H6"/><line class="a" x1="7.504" y1="20.5" x2="7.504" y2="19.5"/></svg>