<svg id="Light" xmlns="http://www.w3.org/2000/svg" viewBox="0 0 24 24"><defs><style>.cls-1{fill:none;stroke:#000;stroke-linecap:round;stroke-linejoin:round;}</style></defs><title>dancing-ballet-dress</title><path class="cls-1" d="M12,21.5c5.247,0,9.5-1.343,9.5-3,0-1.267-4-4.249-6-4.5l2-7.461c.5-2-.21-4-2-4-1.423-.271-2.823.918-3.5,2-.677-1.082-2.077-2.271-3.5-2-1.79,0-2.5,2-2,4L8.5,14c-2,.251-6,3.233-6,4.5,0,1.657,4.253,3,9.5,3"/><line class="cls-1" x1="18.644" y1="20.644" x2="16.5" y2="18.5"/><line class="cls-1" x1="5.356" y1="20.644" x2="7.5" y2="18.5"/><line class="cls-1" x1="12" y1="21.5" x2="12" y2="19"/><path class="cls-1" d="M15.5,14A4.524,4.524,0,0,1,12,15.5c-1.6,0-2.958-.376-3.5-1.5"/></svg>