<svg id="Light" xmlns="http://www.w3.org/2000/svg" viewBox="0 0 24 24"><defs><style>.cls-1{fill:none;stroke:#000;stroke-linecap:round;stroke-linejoin:round;}</style></defs><title>dancing-ballet</title><path class="cls-1" d="M16.6,8.1S12.531,4.938,12.5,3"/><path class="cls-1" d="M1.5,3c1.5,0,6,5.5,6,7V20.5c0,1.934-1.567,3-3.5,3S.5,22.434.5,20.5V10c0-1.5,4.5-7,6-7"/><path class="cls-1" d="M7.5,14.5a3.5,3.5,0,0,1-7,0"/><path class="cls-1" d="M21,4c-6.281,0-3.7,10.659-8.224,11.7"/><path class="cls-1" d="M2,.5a7.969,7.969,0,0,1-.547,2.609A5.5,5.5,0,0,0,.5,6v4"/><path class="cls-1" d="M7.5,10V6a5.5,5.5,0,0,0-.953-2.891A8,8,0,0,1,6,.5"/><path class="cls-1" d="M12.5.5V4.625S12.224,16.417,13.671,21.9a2.054,2.054,0,0,0,1.957,1.6H17a1.556,1.556,0,0,0,1.5-1.75c0-8.75,2.284-11.3,4.572-14.209a2,2,0,0,0-.863-3.108A7.2,7.2,0,0,0,21,4C19.219,4,17.5,1.484,17.5.5"/></svg>