<svg xmlns="http://www.w3.org/2000/svg" viewBox="0 0 24 24"><defs><style>.a{fill:none;stroke:#000;stroke-linecap:round;stroke-linejoin:round;}</style></defs><title>data-file-home</title><path class="a" d="M9.5,23.5h-8a1,1,0,0,1-1-1V1.5a1,1,0,0,1,1-1H14.79A1,1,0,0,1,15.5.8L19.2,4.5a1,1,0,0,1,.293.707V8.5"/><path class="a" d="M4.5,13.912l2.954-2.954a.865.865,0,0,1,1.09-.108l1.393.929a.864.864,0,0,0,1.109-.128L13.781,8.73"/><polyline class="a" points="4.497 6.503 4.497 16.503 8.497 16.503"/><path class="a" d="M12.5,16.311V22.5a1,1,0,0,0,1,1h7a1,1,0,0,0,1-1V16.311"/><path class="a" d="M10.5,18l5.854-4.953a1,1,0,0,1,1.292,0L23.5,18"/><path class="a" d="M18.5,23.5h-3v-3a1.5,1.5,0,0,1,3,0Z"/></svg>