<svg xmlns="http://www.w3.org/2000/svg" viewBox="0 0 24 24"><defs><style>.a{fill:none;stroke:#000;stroke-linecap:round;stroke-linejoin:round;}</style></defs><title>data-file-bars-check</title><path class="a" d="M10.518,23.5h-9a1,1,0,0,1-1-1V1.5a1,1,0,0,1,1-1H14.811a1,1,0,0,1,.707.293L19.225,4.5a1,1,0,0,1,.293.707V9.5"/><line class="a" x1="3.518" y1="15.5" x2="9.518" y2="15.5"/><path class="a" d="M5.018,10.5h1a.5.5,0,0,1,.5.5v4.5a0,0,0,0,1,0,0h-2a0,0,0,0,1,0,0V11A.5.5,0,0,1,5.018,10.5Z"/><path class="a" d="M10.518,12.5V8a.5.5,0,0,0-.5-.5h-1a.5.5,0,0,0-.5.5v7.5"/><circle class="a" cx="17.476" cy="17.5" r="6"/><path class="a" d="M20.15,15.755l-2.9,3.874a.75.75,0,0,1-1.13.08l-1.5-1.5"/></svg>