<svg xmlns="http://www.w3.org/2000/svg" viewBox="0 0 24 24"><defs><style>.a{fill:none;stroke:#000;stroke-linecap:round;stroke-linejoin:round;}</style></defs><title>data-file-share</title><path class="a" d="M10.521,23.511h-9a1,1,0,0,1-1-1v-21a1,1,0,0,1,1-1H14.814A1,1,0,0,1,15.521.8l3.707,3.707a1,1,0,0,1,.293.707V8.511"/><path class="a" d="M4.521,13.92l2.954-2.954a.865.865,0,0,1,1.09-.108l1.393.929a.864.864,0,0,0,1.109-.128l2.738-2.921"/><polyline class="a" points="4.521 6.511 4.521 16.511 8.521 16.511"/><circle class="a" cx="13.771" cy="18.261" r="2.25"/><circle class="a" cx="21.271" cy="21.261" r="2.25"/><circle class="a" cx="21.271" cy="13.761" r="2.25"/><line class="a" x1="15.696" y1="17.106" x2="19.346" y2="14.916"/><line class="a" x1="15.859" y1="19.096" x2="19.184" y2="20.426"/></svg>