<svg xmlns="http://www.w3.org/2000/svg" viewBox="0 0 24 24"><defs><style>.a{fill:none;stroke:#000;stroke-linecap:round;stroke-linejoin:round;}</style></defs><title>data-file-bars-search</title><path class="a" d="M12.5,23.5H1.5a1,1,0,0,1-1-1V1.5a1,1,0,0,1,1-1H14.79A1,1,0,0,1,15.5.793L19.2,4.5a1,1,0,0,1,.293.707V9.5"/><line class="a" x1="3.497" y1="15.5" x2="9.497" y2="15.5"/><path class="a" d="M5,10.5H6a.5.5,0,0,1,.5.5v4.5a0,0,0,0,1,0,0h-2a0,0,0,0,1,0,0V11A.5.5,0,0,1,5,10.5Z"/><path class="a" d="M10.5,12.5V8a.5.5,0,0,0-.5-.5H9a.5.5,0,0,0-.5.5v7.5"/><circle class="a" cx="17.026" cy="17.029" r="4.529"/><line class="a" x1="23.497" y1="23.5" x2="20.249" y2="20.252"/></svg>