<svg xmlns="http://www.w3.org/2000/svg" viewBox="0 0 24 24"><defs><style>.a{fill:none;stroke:#000;stroke-linecap:round;stroke-linejoin:round;}</style></defs><title>data-file-bars-question</title><path class="a" d="M9.5,23.5h-8a1,1,0,0,1-1-1V1.5a1,1,0,0,1,1-1H14.79A1,1,0,0,1,15.5.8L19.2,4.5a1,1,0,0,1,.293.707V8.5"/><line class="a" x1="3.497" y1="15.503" x2="9.497" y2="15.503"/><path class="a" d="M5,10.5H6a.5.5,0,0,1,.5.5v4.5a0,0,0,0,1,0,0h-2a0,0,0,0,1,0,0V11A.5.5,0,0,1,5,10.5Z"/><path class="a" d="M10.5,12.5V8a.5.5,0,0,0-.5-.5H9a.5.5,0,0,0-.5.5v7.5"/><circle class="a" cx="17.497" cy="17.503" r="6"/><path class="a" d="M15.622,16.045A1.875,1.875,0,1,1,17.5,17.92v1"/><path class="a" d="M17.5,20.92a.25.25,0,1,1-.25.25.25.25,0,0,1,.25-.25"/></svg>