<svg xmlns="http://www.w3.org/2000/svg" viewBox="0 0 24 24"><defs><style>.a{fill:none;stroke:#000;stroke-linecap:round;stroke-linejoin:round;}</style></defs><title>dating-rose-1</title><line class="a" x1="12" y1="13.5" x2="12" y2="23.5"/><path class="a" d="M16,15.5h1.5a.5.5,0,0,1,.5.5v1.5a4,4,0,0,1-4,4H12a0,0,0,0,1,0,0v-2a4,4,0,0,1,4-4Z"/><path class="a" d="M5.5,2.767V7.5a6.265,6.265,0,0,0,6.5,6,6.265,6.265,0,0,0,6.5-6V2.094"/><path class="a" d="M17.819.5c2.291,2.6-1.529,5.1-6.541,5.1C8.087,5.6,5.5,4.331,5.5,2.767,5.5,1.515,7.569.5,10.122.5c2.042,0,3.7.812,3.7,1.813,0,.8-1.324,1.451-2.958,1.451A3.084,3.084,0,0,1,8.7,3.081"/><path class="a" d="M11.5,5.6s2,0,2,2.5v5.242"/></svg>