<svg xmlns="http://www.w3.org/2000/svg" viewBox="0 0 24 24"><defs><style>.a{fill:none;stroke:#000;stroke-linecap:round;stroke-linejoin:round;}</style></defs><title>dating-chat-man</title><path class="a" d="M23.5,5.4c0,2.7-2.686,4.895-6,4.895a7.222,7.222,0,0,1-2.1-.308l-2.9.957.8-2.048a4.492,4.492,0,0,1-1.8-3.5c0-2.7,2.686-4.895,6-4.895S23.5,2.691,23.5,5.4Z"/><path class="a" d="M17.934,7.428a.5.5,0,0,1-.722,0l-1.8-1.877a1.278,1.278,0,0,1-.24-1.475h0a1.278,1.278,0,0,1,2.047-.332l.352.353.353-.353a1.277,1.277,0,0,1,2.046.332h0a1.278,1.278,0,0,1-.239,1.475Z"/><circle class="a" cx="7" cy="13.75" r="4.25"/><path class="a" d="M3.338,11.592a7.062,7.062,0,0,0,7.873,1.583"/><path class="a" d="M13.5,23.5a7.281,7.281,0,0,0-13,0"/></svg>