<svg xmlns="http://www.w3.org/2000/svg" viewBox="0 0 24 24"><defs><style>.a{fill:none;stroke:#000;stroke-linecap:round;stroke-linejoin:round;}</style></defs><title>dating-cup</title><line class="a" x1="0.5" y1="23.5" x2="23.5" y2="23.5"/><path class="a" d="M9.7,6.57a.493.493,0,0,0,.61,0c.852-.664,3.2-2.629,3.2-4.156C13.5.26,10.637-.422,10,2.2,9.364-.422,6.5.26,6.5,2.414,6.5,3.941,8.843,5.906,9.7,6.57Z"/><path class="a" d="M17.5,16a7.5,7.5,0,0,1-15,0V10A.5.5,0,0,1,3,9.5H17a.5.5,0,0,1,.5.5Z"/><path class="a" d="M17.5,10.5H20a3.5,3.5,0,0,1,0,7H17.35"/></svg>