<svg xmlns="http://www.w3.org/2000/svg" viewBox="0 0 24 24"><defs><style>.a{fill:none;stroke:#000;stroke-linecap:round;stroke-linejoin:round;}</style></defs><title>dating-target-1</title><line class="a" x1="12" y1="0.5" x2="12" y2="5.24"/><line class="a" x1="0.5" y1="12" x2="5.239" y2="12"/><line class="a" x1="12" y1="23.5" x2="12" y2="18.762"/><line class="a" x1="23.5" y1="12" x2="18.761" y2="12"/><path class="a" d="M12.361,15.623a.5.5,0,0,1-.722,0L8.591,12.444a2.018,2.018,0,0,1-.378-2.329h0a2.017,2.017,0,0,1,3.23-.524l.557.557.557-.557a2.017,2.017,0,0,1,3.23.524h0a2.018,2.018,0,0,1-.378,2.329Z"/><circle class="a" cx="12" cy="12" r="8.5"/></svg>