<svg xmlns="http://www.w3.org/2000/svg" viewBox="0 0 24 24"><defs><style>.a{fill:none;stroke:#000;stroke-linecap:round;stroke-linejoin:round;}</style></defs><title>dating-target</title><path class="a" d="M3.221,10.008a9.015,9.015,0,0,1,6.859-6.8"/><path class="a" d="M12,10.442c-.926-2.844-4.2-1.989-4.2.564,0,1.863,2.829,4.248,3.89,5.078a.5.5,0,0,0,.62,0c1.061-.83,3.89-3.215,3.89-5.078C16.2,8.453,12.926,7.6,12,10.442Z"/><line class="a" x1="12" y1="0.5" x2="12" y2="4.5"/><line class="a" x1="12" y1="23.5" x2="12" y2="19.5"/><line class="a" x1="23.5" y1="12" x2="19.5" y2="12"/><line class="a" x1="4.5" y1="12" x2="0.5" y2="12"/><path class="a" d="M20.779,10.008a9.015,9.015,0,0,0-6.859-6.8"/><path class="a" d="M3.221,13.992a9.015,9.015,0,0,0,6.859,6.8"/><path class="a" d="M20.779,13.992a9.015,9.015,0,0,1-6.859,6.8"/></svg>