<svg id="Light" xmlns="http://www.w3.org/2000/svg" viewBox="0 0 24 24"><defs><style>.cls-1{fill:none;stroke:#000;stroke-linecap:round;stroke-linejoin:round;}</style></defs><title>decoration-crystals</title><path class="cls-1" d="M12.5,23.5,8.54,8.65A.5.5,0,0,0,8.382,8.4L5.441,5.878a.5.5,0,0,0-.749.115L2.618,9.311a.5.5,0,0,0-.057.4L6.5,23.5"/><line class="cls-1" x1="6.437" y1="9.285" x2="5.508" y2="8.489"/><path class="cls-1" d="M17.01,7.883l-.494-4.5a.5.5,0,0,0-.112-.266L14.375.68a.5.5,0,0,0-.761-.009L10.5,4.23l-.5,9.9"/><line class="cls-1" x1="14.715" y1="4.818" x2="13.963" y2="3.915"/><path class="cls-1" d="M18.5,23.5,23.45,8.65a.5.5,0,0,0,0-.3l-1.261-4.2a.5.5,0,0,0-.756-.272l-3.8,2.533a.509.509,0,0,0-.194.249L12.075,21.8"/><line class="cls-1" x1="21.423" y1="8.268" x2="20.854" y2="6.371"/><path class="cls-1" d="M20.187,18.44l2.493-2.076a.5.5,0,0,1,.815.458L22.5,23.5"/><path class="cls-1" d="M2.5,23.5.52,16.789a.5.5,0,0,1,.853-.474L5.894,21.38"/></svg>