<svg id="Light" xmlns="http://www.w3.org/2000/svg" viewBox="0 0 24 24"><defs><style>.cls-1{fill:none;stroke:#000;stroke-linecap:round;stroke-linejoin:round;}</style></defs><title>decoration-bottle-1</title><path class="cls-1" d="M14.875,13.15c0-1.15,1.15-1.725,1.15-3.45s-2.3-2.875-2.3-4.6a2.268,2.268,0,0,1,1.946-2.186A1.225,1.225,0,0,0,15.371.5H8.629a1.225,1.225,0,0,0-.3,2.414A2.268,2.268,0,0,1,10.275,5.1c0,1.725-2.3,2.875-2.3,4.6s1.15,2.3,1.15,3.45c0,1.725-3.45,3.45-3.45,6.325A3.9,3.9,0,0,0,9.7,23.5h4.6a3.9,3.9,0,0,0,4.025-4.025C18.325,16.6,14.875,14.875,14.875,13.15Z"/></svg>