<svg id="Light" xmlns="http://www.w3.org/2000/svg" viewBox="0 0 24 24"><defs><style>.cls-1{fill:none;stroke:#000;stroke-linecap:round;stroke-linejoin:round;}</style></defs><title>decoration-flowers-table</title><rect class="cls-1" x="0.5" y="17.5" width="23" height="3" rx="1" ry="1"/><line class="cls-1" x1="4" y1="20.5" x2="2.5" y2="23.5"/><line class="cls-1" x1="20" y1="20.5" x2="21.5" y2="23.5"/><path class="cls-1" d="M19.5,17.5h-4V15.662a19.47,19.47,0,0,1,.887-5.811.5.5,0,0,1,.477-.351h1.272a.5.5,0,0,1,.477.351,19.47,19.47,0,0,1,.887,5.811Z"/><path class="cls-1" d="M17.5,9.5l.828-3.313a10.006,10.006,0,0,1,2.631-4.646L22,.5"/><line class="cls-1" x1="20.233" y1="2.35" x2="19" y2="0.5"/><path class="cls-1" d="M9.715,4.052a4.973,4.973,0,0,1,5.033.28A6.137,6.137,0,0,1,17.166,7.5l.477,1.431"/><line class="cls-1" x1="13.64" y1="3.779" x2="12" y2="0.5"/><line class="cls-1" x1="19.314" y1="3.709" x2="21.971" y2="5.481"/></svg>