<svg id="Light" xmlns="http://www.w3.org/2000/svg" viewBox="0 0 24 24"><defs><style>.cls-1{fill:none;stroke:#000;stroke-linecap:round;stroke-linejoin:round;}</style></defs><title>decoration-bottle</title><path class="cls-1" d="M15.055,6.419a1.763,1.763,0,0,1-1.239-1.682V2.921h.6a1.211,1.211,0,1,0,0-2.421H9.579a1.211,1.211,0,1,0,0,2.421h.6V4.737A1.761,1.761,0,0,1,8.945,6.419,10.283,10.283,0,0,0,3.769,22.411,2.727,2.727,0,0,0,5.948,23.5H18.053a2.722,2.722,0,0,0,2.177-1.088A10.282,10.282,0,0,0,15.055,6.419Z"/><path class="cls-1" d="M12,11.921a5.447,5.447,0,0,0-5.447,5.447A3.632,3.632,0,0,0,10.184,21h3.632a3.632,3.632,0,0,0,3.631-3.632A5.447,5.447,0,0,0,12,11.921Z"/></svg>