<svg id="Light" xmlns="http://www.w3.org/2000/svg" viewBox="0 0 24 24"><defs><style>.cls-1{fill:none;stroke:#000;stroke-linecap:round;stroke-linejoin:round;}</style></defs><title>deer-body</title><polyline class="cls-1" points="14.5 16 14.5 23.5 12.5 23.5 11.5 17.5 5.657 17.5"/><path class="cls-1" d="M7,15a3,3,0,0,1-3,3l-.5,5.5h-2V14A3.5,3.5,0,0,1,5,10.5h7.5c2.5,0,2.5-2,2.5-2l-2.164-.361A1,1,0,0,1,12,7.153V6l3-1.5h3.5v4c0,3.058-2,6.5-4,7.5"/><path class="cls-1" d="M23.5.5c0,3-2.727,4-5,4"/><path class="cls-1" d="M20.773,4.141a4.314,4.314,0,0,0,0-2.641"/><path class="cls-1" d="M10,.5c0,3,2.713,4,5,4"/><path class="cls-1" d="M12.745,4.141a4.278,4.278,0,0,1,0-2.641"/><path class="cls-1" d="M2.129,12A2.293,2.293,0,0,1,.5,10"/><path class="cls-1" d="M16.25,6a.25.25,0,0,0-.25.25"/><path class="cls-1" d="M16.5,6.25A.25.25,0,0,0,16.25,6"/><path class="cls-1" d="M16.25,6.5a.25.25,0,0,0,.25-.25"/><path class="cls-1" d="M16,6.25a.25.25,0,0,0,.25.25"/></svg>