<svg id="Light" xmlns="http://www.w3.org/2000/svg" viewBox="0 0 24 24"><defs><style>.cls-1{fill:none;stroke:#000;stroke-linecap:round;stroke-linejoin:round;}</style></defs><title>deer-footprint</title><path class="cls-1" d="M17,13.5S13.5,16,13.5,19s.8,4.5,2.4,4.5,1.6-3,1.6-5.5A20.631,20.631,0,0,0,17,13.5Z"/><path class="cls-1" d="M20,13.5S23.5,16,23.5,19s-.8,4.5-2.4,4.5-1.6-3-1.6-5.5A20.631,20.631,0,0,1,20,13.5Z"/><path class="cls-1" d="M4.5,8.207V10.43a2,2,0,0,0,.891,1.664L6,12.5l1.013,2.7a2,2,0,0,0,1.873,1.3h.228a2,2,0,0,0,1.873-1.3L12,12.5l.609-.406A2,2,0,0,0,13.5,10.43V8.207a1.958,1.958,0,0,0-.652-1.479A5.639,5.639,0,0,0,9,5.5,5.639,5.639,0,0,0,5.152,6.728,1.958,1.958,0,0,0,4.5,8.207Z"/><line class="cls-1" x1="8.5" y1="14.5" x2="9.5" y2="14.5"/><path class="cls-1" d="M6.75,9A.25.25,0,0,1,7,9.25"/><path class="cls-1" d="M6.5,9.25A.25.25,0,0,1,6.75,9"/><path class="cls-1" d="M6.75,9.5a.25.25,0,0,1-.25-.25"/><path class="cls-1" d="M7,9.25a.25.25,0,0,1-.25.25"/><path class="cls-1" d="M11.25,9a.25.25,0,0,1,.25.25"/><path class="cls-1" d="M11,9.25A.25.25,0,0,1,11.25,9"/><path class="cls-1" d="M11.25,9.5A.25.25,0,0,1,11,9.25"/><path class="cls-1" d="M11.5,9.25a.25.25,0,0,1-.25.25"/><path class="cls-1" d="M13,6.878A2.487,2.487,0,0,1,15.5,5.5h2s-1,3-2.5,3H13.5"/><path class="cls-1" d="M5,6.878A2.487,2.487,0,0,0,2.5,5.5H.5s1,3,2.5,3H4.5"/><path class="cls-1" d="M6.5,5.927V5c0-1-.5-1.5-2-1.5C2.5,3.5,2,2,2,.5"/><line class="cls-1" x1="4.5" y1="3.5" x2="4.5" y2="1.5"/><path class="cls-1" d="M11,5.759V5c0-1,.5-1.5,2-1.5,2,0,2.5-1.5,2.5-3"/><line class="cls-1" x1="13" y1="3.5" x2="13" y2="1.5"/></svg>