<svg id="Light" xmlns="http://www.w3.org/2000/svg" viewBox="0 0 24 24"><defs><style>.cls-1{fill:none;stroke:#000;stroke-linecap:round;stroke-linejoin:round;}</style></defs><title>deforestation-axe-forbidden</title><circle class="cls-1" cx="12" cy="12" r="11"/><line class="cls-1" x1="4.228" y1="19.772" x2="19.777" y2="4.223"/><line class="cls-1" x1="10.358" y1="11.041" x2="9.459" y2="10.143"/><path class="cls-1" d="M14.5,12.358,17.939,15.8a1,1,0,0,1-1.413,1.413L13,13.683"/><line class="cls-1" x1="10.68" y1="8.537" x2="11.859" y2="9.716"/><path class="cls-1" d="M11.594,7.053a.468.468,0,0,1-.039.7c-2.269,1.812-2.65,3.563-2.7,4.318a.5.5,0,0,1-.448.464A3.789,3.789,0,0,1,4.379,8.354a.5.5,0,0,1,.473-.447c.742-.034,2.425-.384,4.208-2.6a.5.5,0,0,1,.743-.04Z"/></svg>