<svg id="Light" xmlns="http://www.w3.org/2000/svg" viewBox="0 0 24 24"><defs><style>.cls-1{fill:none;stroke:#000;stroke-linecap:round;stroke-linejoin:round;}</style></defs><title>deforestation-saw-forbidden</title><circle class="cls-1" cx="12" cy="12" r="11"/><line class="cls-1" x1="4.228" y1="19.772" x2="19.777" y2="4.223"/><polyline class="cls-1" points="15.001 11.76 16.985 13.392 13.783 16.594 13.5 14 12.5 14"/><path class="cls-1" d="M10,11.5H8.5A.5.5,0,0,1,8,11V9H6.51a.5.5,0,0,1-.5-.5V6.624A.5.5,0,0,1,6.246,6.2l.829-.517a.5.5,0,0,1,.582.038L12,9.292"/><path class="cls-1" d="M13.783,16.594l1.306,1.828a1.208,1.208,0,0,0,1.837.152l1.767-1.767a1.207,1.207,0,0,0,0-1.708l-1.708-1.707"/></svg>