<svg xmlns="http://www.w3.org/2000/svg" viewBox="0 0 24 24"><defs><style>.a{fill:none;stroke:#000;stroke-linecap:round;stroke-linejoin:round;}</style></defs><title>delivery-truck-3</title><circle class="a" cx="5" cy="18" r="2"/><circle class="a" cx="19" cy="18" r="2"/><path class="a" d="M3,18H1.5a1,1,0,0,1-1-1V13.015A1,1,0,0,1,.919,12.2L4,11l.811-4.243A1,1,0,0,1,5.781,6H9.5V5a1,1,0,0,1,1-1h12a1,1,0,0,1,1,1V17a1,1,0,0,1-1,1H21"/><line class="a" x1="7" y1="18" x2="17" y2="18"/><line class="a" x1="9.5" y1="6" x2="9.5" y2="16"/><line class="a" x1="0.5" y1="15" x2="2" y2="15"/><line class="a" x1="4" y1="11" x2="9.5" y2="11"/></svg>