<svg xmlns="http://www.w3.org/2000/svg" viewBox="0 0 24 24"><defs><style>.a{fill:none;stroke:#000;stroke-linecap:round;stroke-linejoin:round;}</style></defs><title>delivery-truck-cargo</title><circle class="a" cx="16" cy="18" r="2.5"/><circle class="a" cx="5" cy="18" r="2.5"/><line class="a" x1="11.5" y1="17.5" x2="9.5" y2="17.5"/><path class="a" d="M20.5,18.5h2a1,1,0,0,0,1-1v-6a4.013,4.013,0,0,0-4-4h-4"/><line class="a" x1="23.5" y1="16.5" x2="22" y2="16.5"/><polyline class="a" points="9.5 13.5 9.5 10.5 12.5 10.5 12.5 15"/><line class="a" x1="0.5" y1="10.5" x2="6.5" y2="10.5"/><line class="a" x1="3.5" y1="10.5" x2="3.5" y2="13.5"/><rect class="a" x="4.5" y="6.5" width="6" height="4"/><line class="a" x1="7.5" y1="6.5" x2="7.5" y2="8.5"/><line class="a" x1="6.5" y1="10.5" x2="6.5" y2="14"/><path class="a" d="M15.5,13.5v-9a1,1,0,0,0-1-1H1.5a1,1,0,0,0-1,1v13"/><path class="a" d="M23.5,12.5h-4a.985.985,0,0,1-1-1.059V7.5"/></svg>