<svg xmlns="http://www.w3.org/2000/svg" viewBox="0 0 24 24"><defs><style>.a{fill:none;stroke:#000;stroke-linecap:round;stroke-linejoin:round;}</style></defs><title>delivery-truck</title><path class="a" d="M18.5,18V14a1,1,0,0,0-1-1h-8a1,1,0,0,0-1,1v7h1"/><path class="a" d="M18.5,20V14.5h2a3,3,0,0,1,3,3V20a1,1,0,0,1-1,1H20"/><path class="a" d="M23.5,18h-2a1,1,0,0,1-1-1V14.5"/><circle class="a" cx="18.5" cy="21.5" r="1.5"/><circle class="a" cx="11" cy="21.5" r="1.5"/><line class="a" x1="16.997" y1="21" x2="12.497" y2="21"/><path class="a" d="M6.5,16h-5a1,1,0,0,1-1-1V5.414a1,1,0,0,1,.293-.707L4.207,1.293A1,1,0,0,1,4.914,1h5.172a1,1,0,0,1,.707.293l3.414,3.414a1,1,0,0,1,.293.707V7"/><line class="a" x1="7.5" y1="1" x2="7.5" y2="5"/><line class="a" x1="14.41" y1="5" x2="0.59" y2="5"/></svg>