<svg xmlns="http://www.w3.org/2000/svg" viewBox="0 0 24 24"><defs><style>.a{fill:none;stroke:#000;stroke-linecap:round;stroke-linejoin:round;}</style></defs><title>delivery-parachute</title><line class="a" x1="7" y1="20.5" x2="11" y2="16.5"/><line class="a" x1="12.444" y1="23.5" x2="17" y2="18.944"/><line class="a" x1="8.361" y1="23.5" x2="15.361" y2="16.5"/><line class="a" x1="12" y1="0.5" x2="8.241" y2="3.507"/><line class="a" x1="12" y1="0.5" x2="15.745" y2="3.496"/><line class="a" x1="12" y1="0.5" x2="12" y2="3.5"/><rect class="a" x="7" y="14.5" width="10" height="9" rx="1" ry="1"/><line class="a" x1="7" y1="16.5" x2="17" y2="16.5"/><path class="a" d="M19.791,7.5a.5.5,0,0,0,.484-.627,8.558,8.558,0,0,0-16.549,0,.5.5,0,0,0,.483.628Z"/><line class="a" x1="8.5" y1="7.5" x2="11" y2="14.5"/><line class="a" x1="16.231" y1="7.5" x2="13" y2="14.5"/><line class="a" x1="4.444" y1="7.5" x2="9.5" y2="14.5"/><line class="a" x1="19.444" y1="7.5" x2="14.5" y2="14.5"/></svg>