<svg xmlns="http://www.w3.org/2000/svg" viewBox="0 0 24 24"><defs><style>.a{fill:none;stroke:#000;stroke-linecap:round;stroke-linejoin:round;}</style></defs><title>delivery-truck-1</title><path class="a" d="M19.5,17.5h3a1,1,0,0,0,0-2L21.135,5.491A1.146,1.146,0,0,0,20,4.5H7"/><line class="a" x1="22.5" y1="15.5" x2="7.5" y2="15.5"/><path class="a" d="M7.5,4.5H5.177a1,1,0,0,0-.928.629L.572,14.322a.984.984,0,0,0-.072.371V16.5a1,1,0,0,0,1,1h4"/><line class="a" x1="13.5" y1="4.5" x2="13.5" y2="15.5"/><circle class="a" cx="7.5" cy="17.5" r="2"/><line class="a" x1="2.1" y1="10.5" x2="7.5" y2="10.5"/><line class="a" x1="0.5" y1="14.5" x2="3" y2="14.5"/><line class="a" x1="21.135" y1="5.5" x2="22.5" y2="5.5"/><circle class="a" cx="17.5" cy="17.5" r="2"/><rect class="a" x="9.5" y="7.5" width="2" height="3" rx="0.5" ry="0.5"/><line class="a" x1="7.5" y1="15.5" x2="7.5" y2="4.5"/><line class="a" x1="9.5" y1="17.5" x2="15.5" y2="17.5"/></svg>