<svg xmlns="http://www.w3.org/2000/svg" viewBox="0 0 24 24"><defs><style>.a{fill:none;stroke:#000;stroke-linecap:round;stroke-linejoin:round;}</style></defs><title>delivery-door</title><rect class="a" x="14" y="15.5" width="9" height="8" rx="1" ry="1"/><polygon class="a" points="20 19 18.5 18 17 19 17 15.5 20 15.5 20 19"/><path class="a" d="M12,20.5H3V1.5a1,1,0,0,1,1-1H16a1,1,0,0,1,1,1v12"/><path class="a" d="M12,23.5H1.5A.5.5,0,0,1,1,23V21a.5.5,0,0,1,.5-.5H3"/><path class="a" d="M14,13V4a.5.5,0,0,0-.5-.5h-7A.5.5,0,0,0,6,4V17a.5.5,0,0,0,.5.5h5"/><rect class="a" x="19" y="5.5" width="3" height="2" rx="0.5" ry="0.5"/><line class="a" x1="14" y1="10.5" x2="6" y2="10.5"/><line class="a" x1="10" y1="3.5" x2="10" y2="17.5"/></svg>