<svg xmlns="http://www.w3.org/2000/svg" viewBox="0 0 24 24"><defs><style>.a{fill:none;stroke:#000;stroke-linecap:round;stroke-linejoin:round;}</style></defs><title>delivery-man</title><path class="a" d="M12,2.978a1,1,0,1,0,1,1,1,1,0,0,0-1-1Z"/><path class="a" d="M13.5,10.978a2.5,2.5,0,0,1-3,0"/><path class="a" d="M14,8.228a.25.25,0,1,1-.25.25.25.25,0,0,1,.25-.25"/><path class="a" d="M10,8.228a.25.25,0,1,1-.25.25.25.25,0,0,1,.25-.25"/><path class="a" d="M5,7.478a24.988,24.988,0,0,1,14,0"/><path class="a" d="M23,23.478V20.372a1.976,1.976,0,0,0-.77-1.579C20.9,17.774,17.73,15.978,12,15.978s-8.895,1.8-10.23,2.815A1.976,1.976,0,0,0,1,20.372v3.106"/><path class="a" d="M18,6.978l-.882-4.411a1,1,0,0,0-.693-.762L12.287.564a1,1,0,0,0-.574,0L7.575,1.805a1,1,0,0,0-.693.762L6,6.978v1.5a6,6,0,0,0,12,0Z"/><path class="a" d="M5.241,19.2a.5.5,0,0,0,.56.642l1.617-.27A.5.5,0,0,1,8,20.068v.969a.5.5,0,0,0,.438.5L12,21.978A11.449,11.449,0,0,1,9.537,16.1,19.53,19.53,0,0,0,6,16.762Z"/><path class="a" d="M18.759,19.2a.5.5,0,0,1-.56.642L16,19.478v1.559a.5.5,0,0,1-.438.5L12,21.978A11.449,11.449,0,0,0,14.463,16.1,19.53,19.53,0,0,1,18,16.762Z"/><line class="a" x1="12" y1="21.978" x2="12" y2="23.478"/></svg>