<svg xmlns="http://www.w3.org/2000/svg" viewBox="0 0 24 24"><defs><style>.a{fill:none;stroke:#000;stroke-linecap:round;stroke-linejoin:round;}</style></defs><title>delivery-person-motorcycle</title><circle class="a" cx="13.525" cy="3" r="2.5"/><line class="a" x1="18.025" y1="2.5" x2="11.075" y2="2.5"/><path class="a" d="M20.525,17.5a3,3,0,0,1,2.94,2.4.5.5,0,0,1-.491.6H13.525a1,1,0,0,1-1-1V19a2.5,2.5,0,0,0-2.5-2.5H6.275a2.75,2.75,0,0,0-2.75,2.75V20.5"/><polyline class="a" points="19.025 12 20.525 12 20.525 20.5"/><line class="a" x1="10.025" y1="16.5" x2="14.025" y2="16.5"/><rect class="a" x="0.525" y="7.5" width="8" height="7" rx="1" ry="1"/><path class="a" d="M20.525,13l1.276-.638a.5.5,0,0,1,.724.447v1.882a.5.5,0,0,1-.724.447L20.525,14.5"/><path class="a" d="M14.525,10.75V12h.25c1.242,0,2.75,1.008,2.75,2.25v3.755a1,1,0,0,1-2,0,7.774,7.774,0,0,0-.457-2.777,1.758,1.758,0,0,0-1.543-.728h-1.5a1.5,1.5,0,0,1-1.5-1.5V9.5a2,2,0,0,1,2-2,4.863,4.863,0,0,1,1.516.266L19.025,10"/><polyline class="a" points="3.525 7.5 3.525 10.5 5.525 10.5 5.525 7.5"/><circle class="a" cx="8.025" cy="21" r="2.5"/><path class="a" d="M17.575,20.5a2.577,2.577,0,0,0-.05.5,2.5,2.5,0,0,0,5,0,2.577,2.577,0,0,0-.05-.5"/></svg>