<svg id="Light" xmlns="http://www.w3.org/2000/svg" viewBox="0 0 24 24"><defs><style>.cls-1{fill:none;stroke:#000;stroke-linecap:round;stroke-linejoin:round;}</style></defs><title>dentistry-tooth-brush</title><path class="cls-1" d="M11,19.221c1.448,0,2.65,1.625,2.877,3.758a.574.574,0,0,0,.567.521.55.55,0,0,0,.535-.447,9.552,9.552,0,0,0,.187-1.906,9.076,9.076,0,0,0-.648-3.439A5.82,5.82,0,0,0,16,13.444C16,11.519,14.787,10,13.291,10A2.687,2.687,0,0,0,11,11.3,2.687,2.687,0,0,0,8.709,10C7.213,10,6,11.519,6,13.444a5.82,5.82,0,0,0,1.482,4.264,9.076,9.076,0,0,0-.648,3.439,9.552,9.552,0,0,0,.187,1.906.55.55,0,0,0,.535.447.574.574,0,0,0,.567-.521C8.35,20.846,9.552,19.221,11,19.221Z"/><polygon class="cls-1" points="3 11.5 3.833 9.833 5.5 9 3.833 8.167 3 6.5 2.167 8.167 0.5 9 2.167 9.833 3 11.5"/><polygon class="cls-1" points="20.5 21 21.5 19 23.5 18 21.5 17 20.5 15 19.5 17 17.5 18 19.5 19 20.5 21"/><line class="cls-1" x1="6.234" y1="0.5" x2="23.5" y2="8.778"/><path class="cls-1" d="M7.249.987,5.734,4.148A1,1,0,0,0,6.2,5.482l4.29,2.057a1,1,0,0,0,1.334-.47l1.515-3.161"/><line class="cls-1" x1="8.307" y1="3.992" x2="7.333" y2="6.023"/><line class="cls-1" x1="10.338" y1="4.966" x2="9.364" y2="6.997"/></svg>