<svg id="Light" xmlns="http://www.w3.org/2000/svg" viewBox="0 0 24 24"><defs><style>.cls-1{fill:none;stroke:#000;stroke-linecap:round;stroke-linejoin:round;}</style></defs><title>dentistry-tooth-shield</title><path class="cls-1" d="M17,8.78c0-1.875-1.213-3.353-2.708-3.353A2.7,2.7,0,0,0,12,6.7,2.705,2.705,0,0,0,9.709,5.427C8.213,5.427,7,6.905,7,8.78a5.579,5.579,0,0,0,1.482,4.152,8.631,8.631,0,0,0-.648,3.348,9.133,9.133,0,0,0,.186,1.856.547.547,0,0,0,.536.435.567.567,0,0,0,.567-.507c.227-2.077,1.429-3.659,2.877-3.659S14.657,16,14.879,18.08a.55.55,0,0,0,.547.491.57.57,0,0,0,.558-.455,9.159,9.159,0,0,0,.183-1.836,8.631,8.631,0,0,0-.649-3.348A5.575,5.575,0,0,0,17,8.78Z"/><path class="cls-1" d="M1.5,3.775v7.637A12.311,12.311,0,0,0,9.719,22.88l1.121.414a3.365,3.365,0,0,0,2.32,0l1.121-.414A12.311,12.311,0,0,0,22.5,11.412V3.775a1.533,1.533,0,0,0-.934-1.406A24.237,24.237,0,0,0,12,.5,24.237,24.237,0,0,0,2.434,2.369,1.533,1.533,0,0,0,1.5,3.775Z"/></svg>