<svg id="Light" xmlns="http://www.w3.org/2000/svg" viewBox="0 0 24 24"><defs><style>.cls-1{fill:none;stroke:#000;stroke-linecap:round;stroke-linejoin:round;}</style></defs><title>dentistry-tooth-equipment</title><path class="cls-1" d="M5.96,13V8a1,1,0,0,0-.4-.8L2.94,5.234a1,1,0,0,1-.065-1.547L6.46.5"/><line class="cls-1" x1="17.96" y1="13" x2="17.96" y2="7.5"/><circle class="cls-1" cx="17.96" cy="4" r="3.5"/><path class="cls-1" d="M5.96,13h0a2,2,0,0,1,2,2v7.5a1,1,0,0,1-1,1h-2a1,1,0,0,1-1-1V15A2,2,0,0,1,5.96,13Z"/><path class="cls-1" d="M17.96,13h0a2,2,0,0,1,2,2v7.5a1,1,0,0,1-1,1h-2a1,1,0,0,1-1-1V15A2,2,0,0,1,17.96,13Z"/></svg>