<svg id="Light" xmlns="http://www.w3.org/2000/svg" viewBox="0 0 24 24"><defs><style>.cls-1{fill:none;stroke:#000;stroke-linecap:round;stroke-linejoin:round;}</style></defs><title>dentistry-tooth-chipped-1</title><path class="cls-1" d="M20.476,10.206a3,3,0,0,1-1.7-2.885A2.864,2.864,0,0,1,16.523,4.75a2.818,2.818,0,0,1,2.1-2.521.5.5,0,0,0,.139-.872A4.086,4.086,0,0,0,16.284.5a4.735,4.735,0,0,0-4.011,2.22A4.735,4.735,0,0,0,8.263.5C5.646.5,3.524,3.086,3.524,6.366c0,3.549,1.138,5.814,2.594,7.265a15.1,15.1,0,0,0-1.136,5.858,16.029,16.029,0,0,0,.327,3.249.959.959,0,0,0,.937.762,1,1,0,0,0,.992-.889c.4-3.634,2.5-6.4,5.035-6.4s4.639,2.768,5.035,6.4a1,1,0,0,0,.992.889.959.959,0,0,0,.937-.762,16.028,16.028,0,0,0,.328-3.249,15.118,15.118,0,0,0-1.136-5.858A8.334,8.334,0,0,0,20.476,10.206Z"/></svg>