<svg xmlns="http://www.w3.org/2000/svg" viewBox="0 0 24 24"><defs><style>.a{fill:none;stroke:#000;stroke-linecap:round;stroke-linejoin:round;}</style></defs><title>design-tool-layout</title><rect class="a" x="0.5" y="0.5" width="23" height="23" rx="1" ry="1"/><rect class="a" x="3.5" y="3.5" width="12" height="12" rx="0.5" ry="0.5"/><line class="a" x1="3.647" y1="3.647" x2="15.353" y2="15.353"/><line class="a" x1="3.647" y1="15.353" x2="15.353" y2="3.647"/><circle class="a" cx="9.5" cy="9.5" r="4"/><line class="a" x1="19.5" y1="3.5" x2="21.5" y2="3.5"/><line class="a" x1="19.5" y1="5.5" x2="21.5" y2="5.5"/><line class="a" x1="19.5" y1="7.5" x2="21.5" y2="7.5"/><line class="a" x1="19.5" y1="13.5" x2="21.5" y2="13.5"/><line class="a" x1="19.5" y1="15.5" x2="21.5" y2="15.5"/><rect class="a" x="18.5" y="18.5" width="3" height="3" rx="0.5" ry="0.5"/><rect class="a" x="13.5" y="18.5" width="3" height="3" rx="0.5" ry="0.5"/><line class="a" x1="3.5" y1="18.5" x2="10.5" y2="18.5"/><line class="a" x1="3.5" y1="21.5" x2="8.5" y2="21.5"/></svg>