<svg xmlns="http://www.w3.org/2000/svg" viewBox="0 0 24 24"><defs><style>.a{fill:none;stroke:#000;stroke-linecap:round;stroke-linejoin:round;}</style></defs><title>design-file-dwg-1</title><path class="a" d="M19.5,12.479V6.454A5.975,5.975,0,0,0,13.525.479H1.5a1,1,0,0,0-1,1v21a1,1,0,0,0,1,1h1"/><path class="a" d="M14.5.559v3.92a1,1,0,0,0,1,1h3.92"/><path class="a" d="M5.5,15.479a4,4,0,0,1,0,8Z"/><path class="a" d="M17.5,15.479v2.585c0,2.415-.5,4.415-1.5,5.415l-1.5-5.5-1.5,5.5c-1-1-1.5-3-1.5-5.415V15.479"/><path class="a" d="M23.5,17.479a2,2,0,0,0-4,0v4a2,2,0,0,0,4,0v-1H22"/></svg>