<svg xmlns="http://www.w3.org/2000/svg" viewBox="0 0 24 24"><defs><style>.a{fill:none;stroke:#000;stroke-linecap:round;stroke-linejoin:round;}</style></defs><title>design-tool-pencil-ruler</title><path class="a" d="M9.5,21.5a2,2,0,0,1-4,0V8L7.3,3.957c.112-.251.294-.251.406,0L9.5,8Z"/><line class="a" x1="5.5" y1="20.5" x2="9.5" y2="20.5"/><line class="a" x1="5.5" y1="18.5" x2="9.5" y2="18.5"/><rect class="a" x="12.5" y="0.5" width="6" height="23" rx="1" ry="1"/><line class="a" x1="12.5" y1="3.5" x2="14.5" y2="3.5"/><line class="a" x1="12.5" y1="7.5" x2="14.5" y2="7.5"/><line class="a" x1="12.5" y1="11.5" x2="14.5" y2="11.5"/><line class="a" x1="12.5" y1="15.5" x2="14.5" y2="15.5"/><line class="a" x1="12.5" y1="19.5" x2="14.5" y2="19.5"/><line class="a" x1="5.722" y1="7.5" x2="9.278" y2="7.5"/><line class="a" x1="7.5" y1="7.5" x2="7.5" y2="18.5"/></svg>