<svg xmlns="http://www.w3.org/2000/svg" viewBox="0 0 24 24"><defs><style>.a{fill:none;stroke:#000;stroke-linecap:round;stroke-linejoin:round;}</style></defs><title>design-tool-fibonacci</title><path class="a" d="M5.5.51c5.96.241,14,4.751,14,13.99,0,6.2-3.948,8.99-8,9-3.389.009-7-1.92-7-5.5A3.4,3.4,0,0,1,8,14.5,3.417,3.417,0,0,1,11.5,18,2.327,2.327,0,0,1,9,20c-2.42,0-2.5-3.5-.5-3.5"/><rect class="a" x="4.5" y="0.5" width="15" height="23" rx="1" ry="1"/><line class="a" x1="19.5" y1="14.5" x2="11.5" y2="14.5"/><line class="a" x1="11.5" y1="14.5" x2="11.5" y2="23.5"/></svg>