<svg xmlns="http://www.w3.org/2000/svg" viewBox="0 0 24 24"><defs><style>.a{fill:none;stroke:#000;stroke-linecap:round;stroke-linejoin:round;}</style></defs><title>design-file-psd-1</title><path class="a" d="M19.5,12.5V6.475A5.975,5.975,0,0,0,13.525.5H1.5a1,1,0,0,0-1,1v21a1,1,0,0,0,1,1h3"/><path class="a" d="M14.5.58V4.5a1,1,0,0,0,1,1h3.92"/><path class="a" d="M11.5,17.5a2,2,0,0,1-2,2h-2v-4h2A2,2,0,0,1,11.5,17.5Z"/><line class="a" x1="7.5" y1="23.5" x2="7.5" y2="19.5"/><path class="a" d="M17.5,15.5H15.354a1.854,1.854,0,0,0-.829,3.512l1.95.976a1.854,1.854,0,0,1-.829,3.512H13.5"/><path class="a" d="M19.5,15.5a4,4,0,0,1,0,8Z"/></svg>