<svg xmlns="http://www.w3.org/2000/svg" viewBox="0 0 24 24"><defs><style>.a{fill:none;stroke:#000;stroke-linecap:round;stroke-linejoin:round;}</style></defs><title>design-drawing-board-education</title><line class="a" x1="9.5" y1="0.516" x2="9.5" y2="3.516"/><path class="a" d="M4.5,16.516h-3a1,1,0,0,1-1-1v-10a1,1,0,0,1,1-1H7"/><path class="a" d="M12,4.516h5.5a1,1,0,0,1,1,1v7.468"/><line class="a" x1="5.714" y1="17.516" x2="4" y2="23.516"/><path class="a" d="M12,4.516a1,1,0,0,0-1-1H8a1,1,0,0,0,0,2h3A1,1,0,0,0,12,4.516Z"/><path class="a" d="M9.969,15.516H5.5a1,1,0,0,0-1,1v.5a.5.5,0,0,0,.5.5H7.531"/><polygon class="a" points="16.5 14.573 9.5 17.353 16.5 19.823 23.5 17.353 16.5 14.573"/><line class="a" x1="9.5" y1="17.353" x2="9.5" y2="21.016"/><path class="a" d="M12.5,18.412v3.154a.751.751,0,0,0,.471.7l3.25,1.2a.748.748,0,0,0,.558,0l3.25-1.2a.751.751,0,0,0,.471-.7V18.412"/></svg>