<svg xmlns="http://www.w3.org/2000/svg" viewBox="0 0 24 24"><defs><style>.a{fill:none;stroke:#000;stroke-linecap:round;stroke-linejoin:round;}</style></defs><title>design-tool-wireframe</title><path class="a" d="M11,18.5H1.5a1,1,0,0,1-1-1V1.5a1,1,0,0,1,1-1h15a1,1,0,0,1,1,1v9.965"/><rect class="a" x="2.5" y="2.5" width="13" height="5" rx="0.5" ry="0.5"/><path class="a" d="M2.5,10v6a.5.5,0,0,0,.5.5H9.337a.5.5,0,0,0,.481-.637l-1.714-6A.5.5,0,0,0,7.623,9.5H3A.5.5,0,0,0,2.5,10Z"/><path class="a" d="M15.5,13.5V10a.5.5,0,0,0-.5-.5H11.163a.5.5,0,0,0-.481.637L12.5,16.5h.458"/><path class="a" d="M15.7,22.3l-4.2,1.2,1.2-4.2,7.179-7.179a2.121,2.121,0,0,1,3,3Z"/><line class="a" x1="18.979" y1="13.021" x2="21.979" y2="16.021"/><line class="a" x1="12.7" y1="19.3" x2="15.7" y2="22.3"/></svg>