<svg xmlns="http://www.w3.org/2000/svg" viewBox="0 0 24 24"><defs><style>.a{fill:none;stroke:#000;stroke-linecap:round;stroke-linejoin:round;}</style></defs><title>design-tool-magic-wand</title><line class="a" x1="0.514" y1="23.444" x2="16.694" y2="7.364"/><path class="a" d="M21.973,1.752c.261-.087.4.055.317.316l-.964,2.891a.888.888,0,0,0,.2.828l1.852,1.852c.194.194.13.329-.144.3l-2.845-.315a.818.818,0,0,0-.74.382L18,10.969c-.133.241-.293.218-.355-.05l-.735-3.186a.875.875,0,0,0-.6-.6L13.124,6.4c-.268-.062-.291-.222-.05-.356L16.039,4.4a.815.815,0,0,0,.381-.74L16.1.811c-.03-.273.1-.338.3-.143L18.255,2.52a.887.887,0,0,0,.828.195Z"/></svg>