<svg xmlns="http://www.w3.org/2000/svg" viewBox="0 0 24 24"><defs><style>.a{fill:none;stroke:#000;stroke-linecap:round;stroke-linejoin:round;}</style></defs><title>design-file-indd-1</title><path class="a" d="M19.5,12.48V6.454A5.975,5.975,0,0,0,13.525.479H1.5a1,1,0,0,0-1,1v11"/><path class="a" d="M14.5.559v3.92a1,1,0,0,0,1,1h3.92"/><line class="a" x1="1.5" y1="15.479" x2="5.5" y2="15.479"/><line class="a" x1="3.5" y1="15.479" x2="3.5" y2="23.479"/><line class="a" x1="1.5" y1="23.479" x2="5.5" y2="23.479"/><polyline class="a" points="7.5 23.479 7.5 15.479 11.5 23.479 11.5 15.479"/><path class="a" d="M13.5,15.479a4,4,0,0,1,0,8Z"/><path class="a" d="M19.5,15.479a4,4,0,0,1,0,8Z"/></svg>