<svg xmlns="http://www.w3.org/2000/svg" viewBox="0 0 24 24"><defs><style>.a{fill:none;stroke:#000;stroke-linecap:round;stroke-linejoin:round;}</style></defs><title>design-file-indd</title><path class="a" d="M19.5,9.479V6.454A5.975,5.975,0,0,0,13.525.479H1.5a1,1,0,0,0-1,1v21a1,1,0,0,0,1,1h17a1,1,0,0,0,1-1v-1"/><path class="a" d="M14.5.559v3.92a1,1,0,0,0,1,1h3.92"/><line class="a" x1="7.5" y1="12.479" x2="7.5" y2="18.479"/><line class="a" x1="6.5" y1="18.479" x2="8.5" y2="18.479"/><line class="a" x1="6.5" y1="12.479" x2="8.5" y2="12.479"/><polyline class="a" points="10.5 18.479 10.5 12.479 13.5 18.479 13.5 12.479"/><path class="a" d="M15.5,12.479a3,3,0,0,1,0,6Z"/><path class="a" d="M20.5,12.479a3,3,0,0,1,0,6Z"/></svg>