<svg xmlns="http://www.w3.org/2000/svg" viewBox="0 0 24 24"><defs><style>.a{fill:none;stroke:#000;stroke-linecap:round;stroke-linejoin:round;}</style></defs><title>designer-community-path</title><path class="a" d="M6.209,1.514A8.517,8.517,0,0,0,.677,7.984a8.4,8.4,0,0,0,1.689,7.239,4.772,4.772,0,0,0,.759-.347A17.249,17.249,0,0,0,5.718,12.71C2.856,9.393,5.89,5.283,9.685,4.367c3.533-.852,8.323.619,9.393,4.254,1.033,3.512-2.049,6.15-5.764,5.272-.47-.11-.814-.106-.814-.612V7.318c0-.406-.033-.318-.371-.359q-.4-.048-.8-.08a11.637,11.637,0,0,0-2.847.037c-.349.059-.37,0-.37.381,0,2.65.078,9.756.075,9.826-.026.66-.045,2.245-.784,2.572-.856.379-1.614-.422-2.4-.59.108,1.114-.587,3.318.71,3.879a5.329,5.329,0,0,0,3.81.281c2.627-.889,3.477-3.813,3.144-6.214A8.636,8.636,0,0,0,22.83,12.574a7.673,7.673,0,0,0-1.147-8.062C18.2.359,11.135-.439,6.209,1.514"/></svg>