<svg xmlns="http://www.w3.org/2000/svg" viewBox="0 0 24 24"><defs><style>.a{fill:none;stroke:#000;stroke-linecap:round;stroke-linejoin:round;}</style></defs><title>design-file-3ds</title><path class="a" d="M20.5,23.479a1,1,0,0,0,1-1V6.454A5.975,5.975,0,0,0,15.525.479H3.5a1,1,0,0,0-1,1v21a1,1,0,0,0,1,1Z"/><path class="a" d="M16.5.559v3.92a1,1,0,0,0,1,1h3.92"/><path class="a" d="M5.5,13.679a1.114,1.114,0,0,1,1-1.2l.757,0a1.392,1.392,0,0,1,1.243,1.5,1.391,1.391,0,0,1-1.248,1.5,1.391,1.391,0,0,1,1.248,1.5,1.392,1.392,0,0,1-1.243,1.5l-.757,0a1.114,1.114,0,0,1-1-1.2"/><path class="a" d="M10.5,12.479a3,3,0,0,1,0,6Z"/><path class="a" d="M18.5,12.479H16.8a1.3,1.3,0,0,0-.723,2.387l1.84,1.226a1.3,1.3,0,0,1-.723,2.387H15.5"/></svg>