<svg xmlns="http://www.w3.org/2000/svg" viewBox="0 0 24 24"><defs><style>.a{fill:none;stroke:#000;stroke-linecap:round;stroke-linejoin:round;}</style></defs><title>design-file-max-1</title><path class="a" d="M19.5,12.479V6.454A5.975,5.975,0,0,0,13.525.479H1.5a1,1,0,0,0-1,1v21a1,1,0,0,0,1,1h3"/><path class="a" d="M14.5.559v3.92a1,1,0,0,0,1,1h3.92"/><polyline class="a" points="7.5 23.479 7.5 15.479 9.5 19.479 11.5 15.479 11.5 23.479"/><path class="a" d="M13.5,23.479v-6a2,2,0,0,1,4,0v6"/><line class="a" x1="13.5" y1="19.479" x2="17.5" y2="19.479"/><line class="a" x1="19.5" y1="23.479" x2="23.5" y2="15.479"/><line class="a" x1="23.5" y1="23.479" x2="19.5" y2="15.479"/></svg>