<svg id="Light" xmlns="http://www.w3.org/2000/svg" viewBox="0 0 24 24"><defs><style>.cls-1{fill:none;stroke:#000;stroke-linecap:round;stroke-linejoin:round;}</style></defs><title>diagram-arrow-dash-corner-point-left</title><polyline class="cls-1" points="7.392 10.132 17.392 10.132 17.392 13.632"/><line class="cls-1" x1="17.392" y1="22.132" x2="17.392" y2="23.132"/><line class="cls-1" x1="17.392" y1="17" x2="17.392" y2="19.632"/><line class="cls-1" x1="17.392" y1="13.632" x2="17.392" y2="14.632"/><line class="cls-1" x1="23.392" y1="14.632" x2="23.392" y2="13.632"/><line class="cls-1" x1="23.392" y1="20" x2="23.392" y2="17.132"/><line class="cls-1" x1="23.392" y1="23.132" x2="23.392" y2="22.132"/><polyline class="cls-1" points="23.392 13.632 23.392 4.132 7.392 4.132"/><path class="cls-1" d="M7.392,4.132v-3c0-.275-.165-.347-.366-.16L.759,6.792a.457.457,0,0,0,0,.68l6.267,5.82c.2.187.366.115.366-.16v-3"/></svg>