<svg id="Light" xmlns="http://www.w3.org/2000/svg" viewBox="0 0 24 24"><defs><style>.cls-1{fill:none;stroke:#000;stroke-linecap:round;stroke-linejoin:round;}</style></defs><title>disability-partially-blind</title><path class="cls-1" d="M.914,12.594a.987.987,0,0,1,0-1.188C2.114,9.8,5.9,5.5,12,5.5s9.886,4.3,11.086,5.906a.987.987,0,0,1,0,1.188C21.886,14.2,18.1,18.5,12,18.5S2.114,14.2.914,12.594Z"/><path class="cls-1" d="M9.885,8.005A5.022,5.022,0,0,1,12,7.5,4.5,4.5,0,0,1,16.5,12a4.326,4.326,0,0,1-2.394,3.978"/><line class="cls-1" x1="7.5" y1="3.5" x2="16.5" y2="20.5"/><line class="cls-1" x1="6" y1="7" x2="12" y2="18.5"/><line class="cls-1" x1="3.047" y1="9.089" x2="7.613" y2="17.713"/></svg>