<svg id="Light" xmlns="http://www.w3.org/2000/svg" viewBox="0 0 24 24"><defs><style>.cls-1{fill:none;stroke:#000;stroke-linecap:round;stroke-linejoin:round;}</style></defs><title>disability-blind-read-book</title><path class="cls-1" d="M10.3,2.5h-7a2,2,0,0,0-2,2v17"/><path class="cls-1" d="M16.3,23.5H3.3a2,2,0,0,1,0-4h13V8.5"/><line class="cls-1" x1="4.301" y1="21.5" x2="16.301" y2="21.5"/><path class="cls-1" d="M12.06,3.972a.492.492,0,0,1,0-.584A6.743,6.743,0,0,1,17.332.5,6.741,6.741,0,0,1,22.6,3.388a.492.492,0,0,1,0,.584,6.743,6.743,0,0,1-5.271,2.887A6.746,6.746,0,0,1,12.06,3.972Z"/><line class="cls-1" x1="19.863" y1="1.076" x2="14.8" y2="6.284"/><path class="cls-1" d="M6.551,8a.25.25,0,1,1,.25.25A.25.25,0,0,1,6.551,8"/><path class="cls-1" d="M10.551,8a.25.25,0,1,1,.25.25.25.25,0,0,1-.25-.25"/><path class="cls-1" d="M6.551,11.5a.25.25,0,1,1,.25.25.25.25,0,0,1-.25-.25"/><path class="cls-1" d="M10.551,11.5a.25.25,0,1,1,.25.25.25.25,0,0,1-.25-.25"/><path class="cls-1" d="M6.551,15a.25.25,0,1,1,.25.25.25.25,0,0,1-.25-.25"/></svg>