<svg id="Light" xmlns="http://www.w3.org/2000/svg" viewBox="0 0 24 24"><defs><style>.cls-1{fill:none;stroke:#000;stroke-linecap:round;stroke-linejoin:round;}</style></defs><title>disability-sit-walking-aid</title><circle class="cls-1" cx="5.75" cy="3" r="2.5"/><line class="cls-1" x1="9.75" y1="19.5" x2="3.25" y2="19.5"/><path class="cls-1" d="M14.409,17.684A3.484,3.484,0,0,0,10.924,14.5H8.5a.507.507,0,0,1-.5-.452L7.485,10.5H12.75a1.5,1.5,0,0,0,0-3h-7A1.5,1.5,0,0,0,4.266,9.217l.767,5.247A3.512,3.512,0,0,0,8.5,17.5h2.423a.493.493,0,0,1,.5.439l.335,4.181a1.5,1.5,0,0,0,1.493,1.38c.04,0,.081,0,.122,0a1.5,1.5,0,0,0,1.375-1.615Z"/><path class="cls-1" d="M15.25,4.5v6.757a3,3,0,0,0,.879,2.121L17.25,14.5"/><path class="cls-1" d="M19.25,4.5v6.757a3,3,0,0,1-.879,2.121L17.25,14.5"/><line class="cls-1" x1="13.75" y1="4.5" x2="20.75" y2="4.5"/><line class="cls-1" x1="17.25" y1="14.5" x2="17.25" y2="23.5"/></svg>