<svg id="Light" xmlns="http://www.w3.org/2000/svg" viewBox="0 0 24 24"><defs><style>.cls-1{fill:none;stroke:#000;stroke-linecap:round;stroke-linejoin:round;}</style></defs><title>disability-cc</title><path class="cls-1" d="M7.131,17.75a5.75,5.75,0,0,1,0-11.5,5.662,5.662,0,0,1,2.574.617,1.506,1.506,0,1,1-1.36,2.688,2.66,2.66,0,0,0-1.214-.293,2.738,2.738,0,0,0,0,5.476A2.65,2.65,0,0,0,8.4,14.415a1.507,1.507,0,0,1,1.427,2.654A5.708,5.708,0,0,1,7.131,17.75Z"/><path class="cls-1" d="M19.131,17.75a5.75,5.75,0,0,1,0-11.5,5.662,5.662,0,0,1,2.574.617,1.506,1.506,0,1,1-1.36,2.688,2.66,2.66,0,0,0-1.214-.293,2.738,2.738,0,0,0,0,5.476,2.65,2.65,0,0,0,1.268-.323,1.507,1.507,0,0,1,1.427,2.654A5.708,5.708,0,0,1,19.131,17.75Z"/></svg>