<svg xmlns="http://www.w3.org/2000/svg" viewBox="0 0 24 24"><defs><style>.a{fill:none;stroke:#000;stroke-linecap:round;stroke-linejoin:round;}</style></defs><title>discount-dollar-dash</title><path class="a" d="M14,8H11.854a1.854,1.854,0,0,0-.829,3.512l1.95.976A1.854,1.854,0,0,1,12.146,16H10"/><line class="a" x1="12" y1="8" x2="12" y2="6.5"/><line class="a" x1="12" y1="17.5" x2="12" y2="16"/><path class="a" d="M23.5,12a11.505,11.505,0,0,1-2.322,6.93"/><path class="a" d="M19.159,3a11.49,11.49,0,0,1,3.977,6.131"/><path class="a" d="M9.413.8a11.488,11.488,0,0,1,7.275.7"/><path class="a" d="M1.62,7.049A11.492,11.492,0,0,1,6.7,1.794"/><path class="a" d="M1.664,17.041A11.506,11.506,0,0,1,.713,9.8"/><path class="a" d="M9.511,23.227A11.486,11.486,0,0,1,3.248,19.46"/><path class="a" d="M19.237,20.937a11.489,11.489,0,0,1-6.847,2.556"/></svg>