<svg id="Light" xmlns="http://www.w3.org/2000/svg" viewBox="0 0 24 24"><defs><style>.cls-1{fill:none;stroke:#000;stroke-linecap:round;stroke-linejoin:round;}</style></defs><title>dog-house-2</title><path class="cls-1" d="M3.5,15.892v6.4a.5.5,0,0,0,.5.5H7a.5.5,0,0,0,.5-.5V17.4a4.5,4.5,0,0,1,9,0v4.9a.5.5,0,0,0,.5.5h3a.5.5,0,0,0,.5-.5V15.9"/><path class="cls-1" d="M.5,15.9c0,.275.159.341.354.146L11.646,5.248a.5.5,0,0,1,.708,0L23.146,16.041c.2.2.354.129.354-.146v-3.1a1.386,1.386,0,0,0-.354-.853L12.707,1.5a1,1,0,0,0-1.414,0L.854,11.939a1.386,1.386,0,0,0-.354.853Z"/></svg>