<svg id="Light" xmlns="http://www.w3.org/2000/svg" viewBox="0 0 24 24"><defs><style>.cls-1{fill:none;stroke:#000;stroke-linecap:round;stroke-linejoin:round;}</style></defs><title>dog-collar</title><path class="cls-1" d="M23.5,9.072C23.5,11.224,18.384,13,12.033,13S.5,11.224.5,9.072,5.682,5,12.033,5,23.5,6.92,23.5,9.072Z"/><path class="cls-1" d="M3.561,11.729C5.587,11.094,7,10,12.033,10a21.919,21.919,0,0,1,8.8,1.586"/><path class="cls-1" d="M23.5,9v6.072C23.5,17.224,18.384,19,12.033,19S.5,17.224.5,15.072V9"/><line class="cls-1" x1="15.5" y1="18.816" x2="15.5" y2="12.811"/><line class="cls-1" x1="8.5" y1="12.811" x2="8.5" y2="18.824"/><path class="cls-1" d="M6.033,15.25a.25.25,0,0,1,.25.25"/><path class="cls-1" d="M5.783,15.5a.25.25,0,0,1,.25-.25"/><path class="cls-1" d="M6.033,15.75a.25.25,0,0,1-.25-.25"/><path class="cls-1" d="M6.283,15.5a.25.25,0,0,1-.25.25"/><path class="cls-1" d="M3.033,14.25a.25.25,0,0,1,.25.25"/><path class="cls-1" d="M2.783,14.5a.25.25,0,0,1,.25-.25"/><path class="cls-1" d="M3.033,14.75a.25.25,0,0,1-.25-.25"/><path class="cls-1" d="M3.283,14.5a.25.25,0,0,1-.25.25"/><path class="cls-1" d="M18.033,15.25a.25.25,0,0,0-.25.25"/><path class="cls-1" d="M18.283,15.5a.25.25,0,0,0-.25-.25"/><path class="cls-1" d="M18.033,15.75a.25.25,0,0,0,.25-.25"/><path class="cls-1" d="M17.783,15.5a.25.25,0,0,0,.25.25"/><path class="cls-1" d="M21.033,14.25a.25.25,0,0,0-.25.25"/><path class="cls-1" d="M21.283,14.5a.25.25,0,0,0-.25-.25"/><path class="cls-1" d="M21.033,14.75a.25.25,0,0,0,.25-.25"/><path class="cls-1" d="M20.783,14.5a.25.25,0,0,0,.25.25"/></svg>