<svg id="Light" xmlns="http://www.w3.org/2000/svg" viewBox="0 0 24 24"><defs><style>.cls-1{fill:none;stroke:#000;stroke-linecap:round;stroke-linejoin:round;}</style></defs><title>dog-poodle</title><ellipse class="cls-1" cx="17.75" cy="2.027" rx="2.5" ry="1.5"/><path class="cls-1" d="M15.342,2.432A10.035,10.035,0,0,0,12.75,9.027c0,3,2.729,4.168,4.5,3s.5-6,.5-6"/><path class="cls-1" d="M19.862,2.829S22,4.313,23.25,4.313c0,2.571-2.08,3.214-5.2,3.214"/><path class="cls-1" d="M19.5,4.527a.25.25,0,0,0-.25.25"/><path class="cls-1" d="M19.75,4.777a.25.25,0,0,0-.25-.25"/><path class="cls-1" d="M19.5,5.027a.25.25,0,0,0,.25-.25"/><path class="cls-1" d="M19.25,4.777a.25.25,0,0,0,.25.25"/><path class="cls-1" d="M10.3,15.973a5.39,5.39,0,0,0,4.7,2.5c2.9,0,5.25-2.015,5.25-4.5a4.556,4.556,0,0,0-2.133-3.6"/><path class="cls-1" d="M12.835,9.9A5.2,5.2,0,0,0,10.3,11.971"/><line class="cls-1" x1="16.75" y1="18.217" x2="16.75" y2="23.473"/><line class="cls-1" x1="13.75" y1="18.356" x2="13.75" y2="23.473"/><path class="cls-1" d="M10.642,11.473H4.25c-2,0-2.5,2-2.5,3.5v3.5a2.166,2.166,0,0,1-1,2v3"/><line class="cls-1" x1="11.7" y1="17.473" x2="3.75" y2="17.473"/><path class="cls-1" d="M7.75,17.473a3.1,3.1,0,0,1-1,2,3.1,3.1,0,0,1-2,1v3"/><circle class="cls-1" cx="2.75" cy="6.473" r="2"/><path class="cls-1" d="M3.059,11.784A3.9,3.9,0,0,1,1.84,8.254"/></svg>