<svg id="Light" xmlns="http://www.w3.org/2000/svg" viewBox="0 0 24 24"><defs><style>.cls-1{fill:none;stroke:#000;stroke-linecap:round;stroke-linejoin:round;}</style></defs><title>dog-mouth-protection</title><path class="cls-1" d="M15.54,7.754c0,3.75-4.5,7.188-4.5,9.5h8.5c2.746,0,3.688-3.4,3.93-6.584a2.005,2.005,0,0,0-1.749-2.143Z"/><path class="cls-1" d="M15.54,7.754S13.685,4.913,8.878,3.746"/><path class="cls-1" d="M11.772,15.254a15.472,15.472,0,0,1-7.8-1.53"/><path class="cls-1" d="M.524,20.254l1.57-.942a17.09,17.09,0,0,1,7.43-2.058H12.04"/><line class="cls-1" x1="23.286" y1="12.254" x2="15.476" y2="12.254"/><line class="cls-1" x1="19.476" y1="8.246" x2="19.476" y2="17.254"/><line class="cls-1" x1="15.476" y1="8.546" x2="15.476" y2="17.254"/><path class="cls-1" d="M11.976,8.5a.25.25,0,0,0-.25.25"/><path class="cls-1" d="M12.226,8.754a.25.25,0,0,0-.25-.25"/><path class="cls-1" d="M11.976,9a.25.25,0,0,0,.25-.25"/><path class="cls-1" d="M11.726,8.754a.25.25,0,0,0,.25.25"/></svg>