<svg id="Light" xmlns="http://www.w3.org/2000/svg" viewBox="0 0 24 24"><defs><style>.cls-1{fill:none;stroke:#000;stroke-linecap:round;stroke-linejoin:round;}</style></defs><title>dog-poop</title><path class="cls-1" d="M9.5,18H19a2.5,2.5,0,0,1,0,5H5a2.5,2.5,0,0,1,0-5"/><path class="cls-1" d="M5,18a2.5,2.5,0,0,1,0-5h7"/><path class="cls-1" d="M17.5,13H19a2.5,2.5,0,0,1,0,5"/><path class="cls-1" d="M7.587,13A2.087,2.087,0,0,1,5.5,10.913c0-3.956,7.919-.543,8.47-4.461a.5.5,0,0,1,.543-.427C17.337,6.3,19.978,8.8,17.545,13"/><polyline class="cls-1" points="3 3 4.5 4.5 6 3"/><polyline class="cls-1" points="17.5 1 19 2.5 20.5 1"/></svg>