<svg id="Light" xmlns="http://www.w3.org/2000/svg" viewBox="0 0 24 24"><defs><style>.cls-1{fill:none;stroke:#000;stroke-linecap:round;stroke-linejoin:round;}</style></defs><title>dog-house</title><path class="cls-1" d="M23.5,7.509a1,1,0,0,0-.508-.87L12.492.7a1,1,0,0,0-.984,0L1.008,6.639a1,1,0,0,0-.508.87V22.426a1,1,0,0,0,1,1h21a1,1,0,0,0,1-1Z"/><path class="cls-1" d="M17.23,21.41a18.228,18.228,0,0,1,.439-4.348,2.148,2.148,0,0,1,2.086-1.886A1.8,1.8,0,0,0,21.5,13.334a1.129,1.129,0,0,0-1.1-1.158,1.1,1.1,0,0,1-.982-.641,1.469,1.469,0,0,0-1.319-.859,2.4,2.4,0,0,0-2.285,1.863,2.85,2.85,0,0,1-2.641,1.887H9.411c-2.673,0-3.179-1.9-1.49-4.015a.251.251,0,0,0-.258-.4A2.976,2.976,0,0,0,5.5,12.926a3.02,3.02,0,0,0,1.588,2.692A27.357,27.357,0,0,0,5.9,21.405"/><path class="cls-1" d="M8.013,21.437a2.723,2.723,0,0,1,2.82-2.511c.1,0,1.067,0,1.067,0a2.871,2.871,0,0,1,3.177,2.516"/><line class="cls-1" x1="15.245" y1="13.483" x2="17.914" y2="16.298"/><line class="cls-1" x1="3.5" y1="5.23" x2="3.5" y2="23.426"/><line class="cls-1" x1="20.5" y1="17.426" x2="20.5" y2="23.426"/><line class="cls-1" x1="8.5" y1="2.404" x2="8.5" y2="7.926"/><line class="cls-1" x1="20.5" y1="5.23" x2="20.5" y2="9.426"/><line class="cls-1" x1="15.5" y1="2.404" x2="15.5" y2="8.926"/></svg>