<svg id="Light" xmlns="http://www.w3.org/2000/svg" viewBox="0 0 24 24"><defs><style>.cls-1{fill:none;stroke:#000;stroke-linecap:round;stroke-linejoin:round;}</style></defs><title>dog-small</title><path class="cls-1" d="M15.5,7.14a.25.25,0,0,0-.25.25"/><path class="cls-1" d="M15.752,7.39a.249.249,0,0,0-.25-.25"/><path class="cls-1" d="M15.5,7.64a.249.249,0,0,0,.25-.25"/><path class="cls-1" d="M15.252,7.39a.25.25,0,0,0,.25.25"/><path class="cls-1" d="M20.5,7.14a.25.25,0,0,0-.25.25"/><path class="cls-1" d="M20.752,7.39a.249.249,0,0,0-.25-.25"/><path class="cls-1" d="M20.5,7.64a.249.249,0,0,0,.25-.25"/><path class="cls-1" d="M20.252,7.39a.25.25,0,0,0,.25.25"/><path class="cls-1" d="M2.548,16.14a1.839,1.839,0,0,1-2.048.5,15.983,15.983,0,0,1,.5-3.5c.5-2,2-3.5,5-3.5h6.5v-7c0-1,3,1,3,1h5s3-2,3-1v10a18.2,18.2,0,0,1-1.5,7.5v1.5H20l-1.373-2.059"/><path class="cls-1" d="M2.5,14.64a25.649,25.649,0,0,0,.5,5,6,6,0,0,0,1,2H6L6.311,20.4a1,1,0,0,1,.97-.757h4.438a1,1,0,0,1,.97.757L13,21.64h1.5s.5-2,3.5-2a5.172,5.172,0,0,0,2-.5"/><line class="cls-1" x1="19" y1="9.64" x2="17" y2="9.64"/><path class="cls-1" d="M20,12.14c-2,0-2-2.5-2-2.5s0,2.5-2,2.5"/></svg>