<svg id="Light" xmlns="http://www.w3.org/2000/svg" viewBox="0 0 24 24"><defs><style>.cls-1{fill:none;stroke:#000;stroke-linecap:round;stroke-linejoin:round;}</style></defs><title>dog-poop-clean</title><circle class="cls-1" cx="9.498" cy="2.5" r="2"/><path class="cls-1" d="M4.5,17.5a2,2,0,0,1-4,0c0-.789,1.019-2.235,1.6-3a.5.5,0,0,1,.8,0C3.478,15.265,4.5,16.711,4.5,17.5Z"/><path class="cls-1" d="M15.5,23.5v-3a1,1,0,0,1,1-1h4l.39-1.563a.251.251,0,0,1,.423-.113L23.122,19.7a1.111,1.111,0,0,1,.083,1.593l-.2.2a1,1,0,0,1-1.154.188L21.5,21.5"/><polyline class="cls-1" points="17.498 23.5 17.498 22.5 20.498 22.5 20.498 23.5"/><line class="cls-1" x1="13.498" y1="14" x2="18.998" y2="19.5"/><line class="cls-1" x1="11.498" y1="15" x2="11.498" y2="10.5"/><path class="cls-1" d="M7.5,10.5V22A1.5,1.5,0,0,0,9,23.5h1A1.5,1.5,0,0,0,11.5,22V14.5a1,1,0,0,0,2,0l.008-4.86A3.526,3.526,0,0,0,10,6.5H9.261A3.524,3.524,0,0,0,5.754,9.64,1.528,1.528,0,0,1,4.234,11H2a1,1,0,1,0,0,2H4.234a3.5,3.5,0,0,0,1.425-.3"/></svg>