<svg id="Light" xmlns="http://www.w3.org/2000/svg" viewBox="0 0 24 24"><defs><style>.cls-1{fill:none;stroke:#000;stroke-linecap:round;stroke-linejoin:round;}</style></defs><title>dog-forbidden</title><circle class="cls-1" cx="12" cy="12" r="11.5"/><polyline class="cls-1" points="14.413 16.447 13.021 16.604 10.966 23.454"/><path class="cls-1" d="M9,5.818A5.2,5.2,0,0,1,10.43,4.426a.5.5,0,0,1,.727.245l1.555,3.973,3.982.868A3.386,3.386,0,0,1,19.5,12.848a2.916,2.916,0,0,1-.7,2.139"/><path class="cls-1" d="M3.338,19.563l3.454-8.021A9.961,9.961,0,0,1,7.1,9.971"/><line class="cls-1" x1="12" y1="20.035" x2="4.713" y2="16.371"/><line class="cls-1" x1="4.119" y1="3.619" x2="20.278" y2="19.779"/></svg>