<svg id="Light" xmlns="http://www.w3.org/2000/svg" viewBox="0 0 24 24"><defs><style>.cls-1,.cls-2{fill:none;stroke:#000;stroke-linecap:round;stroke-linejoin:round;}.cls-1{fill-rule:evenodd;}</style></defs><title>dog-sit</title><path class="cls-1" d="M11.518,23.5h-3.5c-2.5,0-3.772-1.512-3.5-4.5.5-5.5,6.964-4,7.964-11V5c0-2,2.5-4.5,2.5-4.5L16.518,3a7.884,7.884,0,0,1,2,.5,3.415,3.415,0,0,1,2,2l2.316.772a1,1,0,0,1,.684.949V8.2a.994.994,0,0,1-.765.971c-1.517.364-5.219,1.255-5.235,2.833-.013,1.291-.022,2.582-.027,3.7a.838.838,0,0,0,1.575.4l1.416-2.6h1.5"/><line class="cls-2" x1="14.518" y1="17" x2="14.518" y2="23.5"/><path class="cls-1" d="M9.518,17.5a3.136,3.136,0,0,1,.5,4"/><path class="cls-1" d="M17.732,5.5a.25.25,0,0,0-.25.25"/><path class="cls-1" d="M17.982,5.75a.25.25,0,0,0-.25-.25"/><path class="cls-1" d="M17.732,6a.25.25,0,0,0,.25-.25"/><path class="cls-1" d="M17.482,5.75a.25.25,0,0,0,.25.25"/><path class="cls-1" d="M5.046,17.061A5.772,5.772,0,0,1,2.982,13.5a8.469,8.469,0,0,1,0-4s-2.5,0-2.5,4.5c0,5,4.1,4.514,4.1,4.514"/></svg>