<svg id="Light" xmlns="http://www.w3.org/2000/svg" viewBox="0 0 24 24"><defs><style>.cls-1{fill:none;stroke:#000;stroke-linecap:round;stroke-linejoin:round;}</style></defs><title>dressing-hanger</title><line class="cls-1" x1="0.5" y1="7.5" x2="23.5" y2="7.5"/><path class="cls-1" d="M.5,23.5V1.5a1,1,0,0,1,1-1h21a1,1,0,0,1,1,1v22"/><line class="cls-1" x1="0.5" y1="11.5" x2="6.5" y2="11.5"/><line class="cls-1" x1="0.5" y1="15.5" x2="6.5" y2="15.5"/><line class="cls-1" x1="0.5" y1="20.5" x2="6.5" y2="20.5"/><path class="cls-1" d="M20,17.338A1.162,1.162,0,0,1,18.838,18.5H12.162a1.162,1.162,0,0,1-.367-2.265L15.5,15.167l3.7,1.068A1.162,1.162,0,0,1,20,17.338Z"/><path class="cls-1" d="M14.167,11.833a1.333,1.333,0,1,1,1.9,1.205,1,1,0,0,0-.571.9v1.225"/><path class="cls-1" d="M11.5,6.5a1,1,0,0,1-1,1h-6a1,1,0,0,1,0-2h6A1,1,0,0,1,11.5,6.5Z"/><path class="cls-1" d="M11.5,4.5a1,1,0,0,1-1,1h-6a1,1,0,0,1,0-2h6A1,1,0,0,1,11.5,4.5Z"/><line class="cls-1" x1="6.5" y1="11.5" x2="12" y2="11.5"/><line class="cls-1" x1="19" y1="11.5" x2="23.5" y2="11.5"/><line class="cls-1" x1="6.5" y1="23.5" x2="6.5" y2="7.5"/></svg>