<svg id="Light" xmlns="http://www.w3.org/2000/svg" viewBox="0 0 24 24"><defs><style>.cls-1{fill:none;stroke:#000;stroke-linecap:round;stroke-linejoin:round;}</style></defs><title>dressing-mirror</title><path class="cls-1" d="M20.5,22.5a1,1,0,0,1-1,1H4.5a1,1,0,0,1-1-1v-7h17Z"/><line class="cls-1" x1="12" y1="15.5" x2="12" y2="23.5"/><line class="cls-1" x1="2.5" y1="15.5" x2="21.5" y2="15.5"/><path class="cls-1" d="M9,19.25a.25.25,0,1,0,.25.25A.25.25,0,0,0,9,19.25"/><path class="cls-1" d="M15,19.25a.25.25,0,1,0,.25.25.25.25,0,0,0-.25-.25"/><path class="cls-1" d="M19.5,8a7.5,7.5,0,0,0-15,0v7.5h15Z"/></svg>