<svg id="Light" xmlns="http://www.w3.org/2000/svg" viewBox="0 0 24 24"><defs><style>.cls-1{fill:none;stroke:#000;stroke-linecap:round;stroke-linejoin:round;}</style></defs><title>dresser</title><rect class="cls-1" x="1.5" y="5.5" width="21" height="14"/><line class="cls-1" x1="1.5" y1="19.5" x2="1.5" y2="21.5"/><line class="cls-1" x1="22.5" y1="19.5" x2="22.5" y2="21.5"/><path class="cls-1" d="M23.5,4.5a1,1,0,0,1-1,1H1.5a1,1,0,0,1-1-1V3A.5.5,0,0,1,1,2.5H23a.5.5,0,0,1,.5.5Z"/><rect class="cls-1" x="3.5" y="13.5" width="17" height="4" rx="0.5" ry="0.5"/><rect class="cls-1" x="13.5" y="7.5" width="7" height="4" rx="0.5" ry="0.5"/><rect class="cls-1" x="3.5" y="7.5" width="7" height="4" rx="0.5" ry="0.5"/><line class="cls-1" x1="12" y1="15.25" x2="12" y2="15.25"/><path class="cls-1" d="M12,15.25a.25.25,0,1,0,.25.25.249.249,0,0,0-.25-.25"/><line class="cls-1" x1="7" y1="9.25" x2="7" y2="9.25"/><path class="cls-1" d="M7,9.25a.25.25,0,1,0,.25.25A.249.249,0,0,0,7,9.25"/><line class="cls-1" x1="17" y1="9.25" x2="17" y2="9.25"/><path class="cls-1" d="M17,9.25a.25.25,0,1,0,.25.25A.249.249,0,0,0,17,9.25"/></svg>