<svg id="Light" xmlns="http://www.w3.org/2000/svg" viewBox="0 0 24 24"><defs><style>.cls-1{fill:none;stroke:#000;stroke-linecap:round;stroke-linejoin:round;}</style></defs><title>dresser-drawers-4</title><path class="cls-1" d="M20.5.5H3.5V21a.5.5,0,0,0,.5.5H20a.5.5,0,0,0,.5-.5Z"/><line class="cls-1" x1="1.5" y1="0.5" x2="22.5" y2="0.5"/><line class="cls-1" x1="6.5" y1="23.5" x2="6.5" y2="21.5"/><line class="cls-1" x1="17.5" y1="23.5" x2="17.5" y2="21.5"/><rect class="cls-1" x="5.5" y="14.5" width="5" height="5" rx="0.5" ry="0.5"/><rect class="cls-1" x="13.5" y="14.5" width="5" height="5" rx="0.5" ry="0.5"/><rect class="cls-1" x="5.5" y="2.5" width="13" height="4" rx="0.5" ry="0.5"/><rect class="cls-1" x="5.5" y="8.5" width="13" height="4" rx="0.5" ry="0.5"/><path class="cls-1" d="M16,16.75a.25.25,0,1,1-.25.25.249.249,0,0,1,.25-.25"/><path class="cls-1" d="M8,16.75a.25.25,0,1,1-.25.25A.249.249,0,0,1,8,16.75"/><path class="cls-1" d="M12,10.25a.25.25,0,1,1-.25.25.249.249,0,0,1,.25-.25"/><path class="cls-1" d="M12,4.25a.25.25,0,1,1-.25.25A.249.249,0,0,1,12,4.25"/></svg>