<svg id="Light" xmlns="http://www.w3.org/2000/svg" viewBox="0 0 24 24"><defs><style>.cls-1{fill:none;stroke:#000;stroke-linecap:round;stroke-linejoin:round;}</style></defs><title>dresser-drawers-6</title><rect class="cls-1" x="3.5" y="12.5" width="17" height="7"/><path class="cls-1" d="M3.5,22.5a1,1,0,0,1-2,0V2.5h2Z"/><path class="cls-1" d="M22.5,22.5a1,1,0,0,1-2,0V2.5h2Z"/><path class="cls-1" d="M23.5,1.5a1,1,0,0,1-1,1H1.5a1,1,0,0,1,0-2h21A1,1,0,0,1,23.5,1.5Z"/><rect class="cls-1" x="3.5" y="2.5" width="17" height="4"/><line class="cls-1" x1="11" y1="4.5" x2="13" y2="4.5"/><line class="cls-1" x1="11" y1="14.5" x2="13" y2="14.5"/><line class="cls-1" x1="12" y1="6.5" x2="12" y2="12.5"/></svg>