<svg id="Light" xmlns="http://www.w3.org/2000/svg" viewBox="0 0 24 24"><defs><style>.cls-1{fill:none;stroke:#000;stroke-linecap:round;stroke-linejoin:round;}</style></defs><title>dress-2</title><path class="cls-1" d="M9.638,3.5A2.623,2.623,0,0,0,7.15,6.952L8,9.5H8a16.242,16.242,0,0,0,8,0h0l.849-2.548A2.623,2.623,0,0,0,14.36,3.5H14a.981.981,0,0,0-.757.429l-.986,1.642a.275.275,0,0,1-.514,0l-.986-1.642A.981.981,0,0,0,10,3.5Z"/><path class="cls-1" d="M8,9.5,4.536,21.171a1,1,0,0,0,.594,1.2,21.425,21.425,0,0,0,13.738,0,1,1,0,0,0,.594-1.2L16,9.5"/><path class="cls-1" d="M5.542,17.783a17.737,17.737,0,0,0,12.915,0"/><line class="cls-1" x1="8.999" y1="3.577" x2="8.999" y2="0.5"/><line class="cls-1" x1="14.999" y1="3.577" x2="14.999" y2="0.5"/></svg>