<svg id="Light" xmlns="http://www.w3.org/2000/svg" viewBox="0 0 24 24"><defs><style>.cls-1{fill:none;stroke:#000;stroke-linecap:round;stroke-linejoin:round;}</style></defs><title>dresser-drawers-5</title><rect class="cls-1" x="0.5" y="0.5" width="23" height="23" rx="1" ry="1"/><rect class="cls-1" x="2.5" y="2.5" width="8" height="5" rx="0.5" ry="0.5"/><line class="cls-1" x1="5.5" y1="4.5" x2="7.5" y2="4.5"/><rect class="cls-1" x="13.5" y="2.5" width="8" height="5" rx="0.5" ry="0.5"/><line class="cls-1" x1="16.5" y1="4.5" x2="18.5" y2="4.5"/><rect class="cls-1" x="2.5" y="9.5" width="8" height="5" rx="0.5" ry="0.5"/><line class="cls-1" x1="5.5" y1="11.5" x2="7.5" y2="11.5"/><rect class="cls-1" x="13.5" y="9.5" width="8" height="5" rx="0.5" ry="0.5"/><line class="cls-1" x1="16.5" y1="11.5" x2="18.5" y2="11.5"/><rect class="cls-1" x="2.5" y="16.5" width="8" height="5" rx="0.5" ry="0.5"/><line class="cls-1" x1="5.5" y1="18.5" x2="7.5" y2="18.5"/><rect class="cls-1" x="13.5" y="16.5" width="8" height="5" rx="0.5" ry="0.5"/><line class="cls-1" x1="16.5" y1="18.5" x2="18.5" y2="18.5"/></svg>