<svg id="Light" xmlns="http://www.w3.org/2000/svg" viewBox="0 0 24 24"><defs><style>.cls-1{fill:none;stroke:#000;stroke-linecap:round;stroke-linejoin:round;}</style></defs><title>dressing-hanging-rack-2</title><path class="cls-1" d="M9.415,21.5a2,2,0,0,0-1.886,1.333A.5.5,0,0,0,8,23.5h8a.5.5,0,0,0,.471-.667A2,2,0,0,0,14.585,21.5Z"/><path class="cls-1" d="M13.5,21.5V2a1.5,1.5,0,0,0-3,0V21.5"/><path class="cls-1" d="M13.5,6.5h2a2,2,0,0,0,2-2V3"/><circle class="cls-1" cx="17.5" cy="2" r="1"/><path class="cls-1" d="M13.5,13.5h2a2,2,0,0,0,2-2V10"/><circle class="cls-1" cx="17.5" cy="9" r="1"/><path class="cls-1" d="M10.5,8.5h-2a2,2,0,0,1-2-2V5"/><circle class="cls-1" cx="6.5" cy="4" r="1"/><path class="cls-1" d="M10.5,15.5h-2a2,2,0,0,1-2-2V12"/><circle class="cls-1" cx="6.5" cy="11" r="1"/></svg>