<svg xmlns="http://www.w3.org/2000/svg" viewBox="0 0 24 24"><defs><style>.a{fill:none;stroke:#000;stroke-linecap:round;stroke-linejoin:round;}</style></defs><title>drone-remote</title><path class="a" d="M23.5,5A1.5,1.5,0,0,0,22,3.5H18.5a2.561,2.561,0,0,1-1.9-.845,3.5,3.5,0,0,0-5.2,0A2.561,2.561,0,0,1,9.5,3.5H6a1.5,1.5,0,0,0,0,3H9.5a2.567,2.567,0,0,1,1.9.845,3.5,3.5,0,0,0,5.2,0A2.565,2.565,0,0,1,18.5,6.5H22A1.5,1.5,0,0,0,23.5,5Z"/><line class="a" x1="7.5" y1="3.5" x2="7.5" y2="1.5"/><line class="a" x1="4.5" y1="0.5" x2="6.5" y2="0.5"/><line class="a" x1="8.5" y1="0.5" x2="10.5" y2="0.5"/><line class="a" x1="20.5" y1="3.5" x2="20.5" y2="1.5"/><line class="a" x1="23.5" y1="0.5" x2="21.5" y2="0.5"/><line class="a" x1="19.5" y1="0.5" x2="17.5" y2="0.5"/><path class="a" d="M10.5,12.5a1,1,0,0,1-1-1V10a2.2,2.2,0,0,1,.754-1.656l1.148-1"/><path class="a" d="M17.5,12.5a1,1,0,0,0,1-1V10a2.193,2.193,0,0,0-.755-1.656l-1.147-1"/><circle class="a" cx="14" cy="10" r="1.5"/><rect class="a" x="-1" y="17" width="8" height="5" rx="1" ry="1" transform="translate(22.5 16.5) rotate(90)"/><path class="a" d="M4.338,13.014a2,2,0,0,0-2.676,0"/><path class="a" d="M5.5,11.378a4,4,0,0,0-5,0"/><path class="a" d="M3,21a.25.25,0,1,1-.25.25A.25.25,0,0,1,3,21"/></svg>