<svg xmlns="http://www.w3.org/2000/svg" viewBox="0 0 24 24"><defs><style>.a{fill:none;stroke:#000;stroke-linecap:round;stroke-linejoin:round;}</style></defs><title>drone-off</title><line class="a" x1="5.5" y1="11.5" x2="5.5" y2="9.5"/><line class="a" x1="2.5" y1="8.5" x2="4.5" y2="8.5"/><line class="a" x1="6.5" y1="8.5" x2="8.5" y2="8.5"/><line class="a" x1="18.5" y1="11.5" x2="18.5" y2="9.5"/><line class="a" x1="21.5" y1="8.5" x2="19.5" y2="8.5"/><path class="a" d="M8.5,20.5a1,1,0,0,1-1-1v-.172"/><path class="a" d="M15.5,20.5a1,1,0,0,0,1-1V18a2.193,2.193,0,0,0-.755-1.656l-1.147-1"/><circle class="a" cx="12" cy="18" r="1.5"/><path class="a" d="M11.654,9.517A3.494,3.494,0,0,0,9.4,10.655a2.561,2.561,0,0,1-1.9.845H4a1.5,1.5,0,0,0,0,3H6.671"/><path class="a" d="M10.613,16.215a3.505,3.505,0,0,0,3.985-.87,2.565,2.565,0,0,1,1.9-.845H20a1.5,1.5,0,0,0,0-3H16.5a2.568,2.568,0,0,1-.977-.194"/><line class="a" x1="0.5" y1="23.5" x2="23.5" y2="0.5"/></svg>