<svg xmlns="http://www.w3.org/2000/svg" viewBox="0 0 24 24"><defs><style>.a{fill:none;stroke:#000;stroke-linecap:round;stroke-linejoin:round;}</style></defs><title>drone-controller</title><circle class="a" cx="17" cy="16.5" r="3"/><circle class="a" cx="7" cy="16.5" r="3"/><path class="a" d="M16,23.5l-1.7-2.554a1,1,0,0,0-.832-.446h-2.93a1,1,0,0,0-.832.446L8,23.5"/><line class="a" x1="17.032" y1="16.5" x2="18.99" y2="12.5"/><line class="a" x1="7.001" y1="16.5" x2="7.001" y2="12.5"/><line class="a" x1="12.001" y1="10.5" x2="12" y2="4.5"/><path class="a" d="M9.767,6.5a3,3,0,0,1,0-4"/><path class="a" d="M14.233,6.5a3,3,0,0,0,0-4"/><path class="a" d="M6.8,7.5a6.007,6.007,0,0,1,0-6"/><path class="a" d="M17.2,1.5a6.006,6.006,0,0,1,0,6"/><path class="a" d="M3.935,8.5a9.024,9.024,0,0,1,0-8"/><path class="a" d="M20.065.5a9.024,9.024,0,0,1,0,8"/><rect class="a" x="2" y="10.5" width="20" height="13" rx="3" ry="3"/></svg>