<svg xmlns="http://www.w3.org/2000/svg" viewBox="0 0 24 24"><defs><style>.a{fill:none;stroke:#000;stroke-linecap:round;stroke-linejoin:round;}</style></defs><title>drone-restaurant</title><path class="a" d="M23,7a1.5,1.5,0,0,0-1.5-1.5h-3c-2.625,0-3.563-2-6.5-2s-3.875,2-6.5,2h-3A1.5,1.5,0,0,0,1,7H1A1.5,1.5,0,0,0,2.5,8.5h3c2.625,0,3.562,2,6.5,2s3.875-2,6.5-2h3A1.5,1.5,0,0,0,23,7Z"/><path class="a" d="M4,2.5H4a1,1,0,0,0-1,1v2H5v-2A1,1,0,0,0,4,2.5Z"/><path class="a" d="M8,9.165V11.5a1,1,0,0,0,1,1h6a1,1,0,0,0,1-1V9.165"/><line class="a" x1="1" y1="0.5" x2="3" y2="0.5"/><line class="a" x1="5" y1="0.5" x2="7" y2="0.5"/><line class="a" x1="4" y1="2.5" x2="4" y2="1.5"/><path class="a" d="M20,2.5h0a1,1,0,0,1,1,1v2H19v-2A1,1,0,0,1,20,2.5Z"/><line class="a" x1="23" y1="0.5" x2="21" y2="0.5"/><line class="a" x1="19" y1="0.5" x2="17" y2="0.5"/><line class="a" x1="20" y1="2.5" x2="20" y2="1.5"/><line class="a" x1="10" y1="21.5" x2="10" y2="18.75"/><path class="a" d="M11,16.5v1a1,1,0,0,1-1,1h0a1,1,0,0,1-1-1v-1"/><path class="a" d="M13,20.5v-4c1,0,2,1,2,3v1Z"/><line class="a" x1="13" y1="21.5" x2="13" y2="20.5"/><rect class="a" x="7" y="14.5" width="10" height="9" rx="1" ry="1"/><line class="a" x1="5.257" y1="12.9" x2="4" y2="8.5"/><line class="a" x1="18.743" y1="12.9" x2="20" y2="8.5"/></svg>