<svg xmlns="http://www.w3.org/2000/svg" viewBox="0 0 24 24"><defs><style>.a{fill:none;stroke:#000;stroke-linecap:round;stroke-linejoin:round;}</style></defs><title>drone-camera</title><path class="a" d="M23,9.5A1.5,1.5,0,0,0,21.5,8h-3C15.875,8,14.937,6,12,6S8.125,8,5.5,8h-3A1.5,1.5,0,0,0,1,9.5H1A1.5,1.5,0,0,0,2.5,11h3c2.625,0,3.562,2,6.5,2s3.875-2,6.5-2h3A1.5,1.5,0,0,0,23,9.5Z"/><path class="a" d="M4,5H4A1,1,0,0,0,3,6V8H5V6A1,1,0,0,0,4,5Z"/><path class="a" d="M8,11.665V14a1,1,0,0,0,1,1h6a1,1,0,0,0,1-1V11.665"/><path class="a" d="M8,21H6a1,1,0,0,1-1-1,6.78,6.78,0,0,1,3-6"/><path class="a" d="M16,21h2a1,1,0,0,0,1-1,6.78,6.78,0,0,0-3-6"/><line class="a" x1="1" y1="3" x2="3" y2="3"/><line class="a" x1="5" y1="3" x2="7" y2="3"/><line class="a" x1="4" y1="5" x2="4" y2="4"/><path class="a" d="M20,5h0a1,1,0,0,1,1,1V8H19V6A1,1,0,0,1,20,5Z"/><line class="a" x1="23" y1="3" x2="21" y2="3"/><line class="a" x1="19" y1="3" x2="17" y2="3"/><line class="a" x1="20" y1="5" x2="20" y2="4"/><circle class="a" cx="12" cy="18" r="1"/><circle class="a" cx="12" cy="18" r="3"/></svg>