<svg xmlns="http://www.w3.org/2000/svg" viewBox="0 0 24 24"><defs><style>.a{fill:none;stroke:#000;stroke-linecap:round;stroke-linejoin:round;}</style></defs><title>e-commerce-apparel-browse</title><rect class="a" x="0.5" y="1" width="23" height="22" rx="2" ry="2"/><line class="a" x1="0.5" y1="6" x2="23.5" y2="6"/><path class="a" d="M4,3.25a.25.25,0,1,1-.25.25A.25.25,0,0,1,4,3.25"/><path class="a" d="M7,3.25a.25.25,0,1,1-.25.25A.25.25,0,0,1,7,3.25"/><path class="a" d="M10,3.25a.25.25,0,1,1-.25.25A.25.25,0,0,1,10,3.25"/><path class="a" d="M17.5,13l-.811-3.243A1,1,0,0,0,15.719,9H13.5a1.5,1.5,0,0,1-3,0H8.281a1,1,0,0,0-.97.757L6.5,13h2v4h7V13Z"/><polyline class="a" points="19 18 20.5 19.5 19 21"/><line class="a" x1="20.5" y1="19.5" x2="16.5" y2="19.5"/><polyline class="a" points="5 18 3.5 19.5 5 21"/><line class="a" x1="3.5" y1="19.5" x2="7.5" y2="19.5"/></svg>