<svg xmlns="http://www.w3.org/2000/svg" viewBox="0 0 24 24"><defs><style>.a{fill:none;stroke:#000;stroke-linecap:round;stroke-linejoin:round;}</style></defs><title>e-commerce-apparel</title><path class="a" d="M14.862,22.453H9.138l.24-.386a7.233,7.233,0,0,0,1.191-3.614h2.862a7.233,7.233,0,0,0,1.191,3.614Z"/><line class="a" x1="7.5" y1="22.453" x2="16.5" y2="22.453"/><line class="a" x1="0.5" y1="15.453" x2="23.5" y2="15.453"/><rect class="a" x="0.5" y="1.453" width="23" height="17" rx="1" ry="1"/><path class="a" d="M17.5,8.453l-.811-3.242a1,1,0,0,0-.97-.758H13.5a1.5,1.5,0,0,1-3,0H8.281a1,1,0,0,0-.97.758L6.5,8.453h2v4h7v-4Z"/></svg>