<svg xmlns="http://www.w3.org/2000/svg" viewBox="0 0 24 24"><defs><style>.a{fill:none;stroke:#000;stroke-linecap:round;stroke-linejoin:round;}</style></defs><title>e-commerce-shopping-bag-laptop</title><path class="a" d="M11.5,3.5H8.342a.843.843,0,0,0-.2,1.66l2.724.68a.843.843,0,0,1-.2,1.66H7.5"/><line class="a" x1="9.5" y1="3.5" x2="9.5" y2="2.5"/><line class="a" x1="9.5" y1="8.5" x2="9.5" y2="7.5"/><path class="a" d="M17.5,10.5V2A1.5,1.5,0,0,0,16,.5H4A1.5,1.5,0,0,0,2.5,2v8.5"/><path class="a" d="M17.5,10.5H2.5L.743,12.7a1.111,1.111,0,0,0,.867,1.8H11.5"/><line class="a" x1="9.5" y1="12.5" x2="10.5" y2="12.5"/><path class="a" d="M16.5,17.5v-3a2,2,0,0,1,4,0v3"/><path class="a" d="M22.107,23.5A1.393,1.393,0,0,0,23.5,22.107a1.366,1.366,0,0,0-.016-.212l-.832-5.406A1.166,1.166,0,0,0,21.5,15.5h-6a1.166,1.166,0,0,0-1.152.988L13.516,21.9a1.366,1.366,0,0,0-.016.212A1.393,1.393,0,0,0,14.893,23.5Z"/></svg>