<svg xmlns="http://www.w3.org/2000/svg" viewBox="0 0 24 24"><defs><style>.a{fill:none;stroke:#000;stroke-linecap:round;stroke-linejoin:round;}</style></defs><title>e-commerce-shop</title><line class="a" x1="3" y1="9.353" x2="3" y2="18.5"/><line class="a" x1="21" y1="18.5" x2="21" y2="9.353"/><path class="a" d="M15.348,18.5c0,1.1-1.5,2-3.348,2s-3.348-.9-3.348-2H1a5.1,5.1,0,0,0,4.9,4H18.1a5.1,5.1,0,0,0,4.9-4Z"/><path class="a" d="M21.186,2.036A1,1,0,0,0,20.3,1.5H3.7a1,1,0,0,0-.886.536L1,5.5H23Z"/><path class="a" d="M1,5.5v1a2.855,2.855,0,0,0,5,2c1.5,2.278,4.049,2.757,6,.64,1.951,2.117,4.5,1.638,6-.64a2.855,2.855,0,0,0,5-2v-1Z"/><polyline class="a" points="6 8.5 6 5.5 7 1.5"/><polyline class="a" points="18 8.5 18 5.5 17 1.5"/><line class="a" x1="12" y1="1.5" x2="12" y2="9"/></svg>