<svg xmlns="http://www.w3.org/2000/svg" viewBox="0 0 24 24"><defs><style>.a{fill:none;stroke:#000;stroke-linecap:round;stroke-linejoin:round;}</style></defs><title>e-commerce-cart-laptop</title><path class="a" d="M21.6,20.5c1.024,0,1.334-.674,1.39-1.633a1,1,0,0,0-.185-.64A45.421,45.421,0,0,0,20,14.5H4a45.421,45.421,0,0,0-2.8,3.727,1,1,0,0,0-.185.64c.056.959.366,1.633,1.39,1.633Z"/><path class="a" d="M20,14.5V4.5a.892.892,0,0,0-1-1H4.889C4.212,3.5,4,3.865,4,4.5v10"/><line class="a" x1="8.996" y1="17.5" x2="13.996" y2="17.5"/><path class="a" d="M16,5l-1.88,5.171a.5.5,0,0,1-.47.329H10.067a.5.5,0,0,1-.459-.3l-1.072-3A.5.5,0,0,1,9,6.5H15.45"/><path class="a" d="M10.746,12a.25.25,0,1,1-.25.25.25.25,0,0,1,.25-.25"/><path class="a" d="M13.246,12a.25.25,0,1,1-.25.25.25.25,0,0,1,.25-.25"/></svg>