<svg xmlns="http://www.w3.org/2000/svg" viewBox="0 0 24 24"><defs><style>.a{fill:none;stroke:#000;stroke-linecap:round;stroke-linejoin:round;}</style></defs><title>e-commerce-basket-laptop</title><path class="a" d="M21.6,20.5c1.024,0,1.334-.674,1.39-1.633a1,1,0,0,0-.185-.64A45.421,45.421,0,0,0,20,14.5H4a45.421,45.421,0,0,0-2.8,3.727,1,1,0,0,0-.185.64c.056.959.366,1.633,1.39,1.633Z"/><path class="a" d="M20,14.5V4.5a.892.892,0,0,0-1-1H4.889C4.212,3.5,4,3.865,4,4.5v10"/><line class="a" x1="9.496" y1="17.5" x2="14.496" y2="17.5"/><line class="a" x1="9.006" y1="8.5" x2="10.272" y2="5.982"/><line class="a" x1="13.739" y1="5.982" x2="15.006" y2="8.5"/><path class="a" d="M16.006,8.5h-8l.763,3.482a.6.6,0,0,0,.637.518h5.2a.6.6,0,0,0,.636-.518Z"/></svg>