<svg xmlns="http://www.w3.org/2000/svg" viewBox="0 0 24 24"><defs><style>.a{fill:none;stroke:#000;stroke-linecap:round;stroke-linejoin:round;}</style></defs><title>e-commerce-cart-browser</title><line class="a" x1="1" y1="8.5" x2="23" y2="8.5"/><path class="a" d="M4.25,6a.25.25,0,1,0,.25.25A.25.25,0,0,0,4.25,6h0"/><path class="a" d="M7.423,6a.25.25,0,1,0,.25.25A.25.25,0,0,0,7.423,6h0"/><path class="a" d="M10.6,6a.25.25,0,1,0,.25.25A.25.25,0,0,0,10.6,6h0"/><rect class="a" x="1" y="3.5" width="22" height="17" rx="2.538" ry="2.538"/><path class="a" d="M16,10l-1.88,5.171a.5.5,0,0,1-.47.329H10.071a.5.5,0,0,1-.459-.3l-1.072-3A.5.5,0,0,1,9,11.5h6.455"/><path class="a" d="M10.75,17a.25.25,0,1,1-.25.25.25.25,0,0,1,.25-.25"/><path class="a" d="M13.25,17a.25.25,0,1,1-.25.25.25.25,0,0,1,.25-.25"/></svg>