<svg xmlns="http://www.w3.org/2000/svg" viewBox="0 0 24 24"><defs><style>.a{fill:none;stroke:#000;stroke-linecap:round;stroke-linejoin:round;}</style></defs><title>e-commerce-cart-vr</title><line class="a" x1="20.5" y1="20.5" x2="20.5" y2="21.5"/><line class="a" x1="20.5" y1="15.5" x2="20.5" y2="16.5"/><line class="a" x1="18.5" y1="18.5" x2="17.5" y2="18.5"/><line class="a" x1="23.5" y1="18.5" x2="22.5" y2="18.5"/><line class="a" x1="4.5" y1="5.5" x2="4.5" y2="6.5"/><line class="a" x1="4.5" y1="0.5" x2="4.5" y2="1.5"/><line class="a" x1="2.5" y1="3.5" x2="1.5" y2="3.5"/><line class="a" x1="7.5" y1="3.5" x2="6.5" y2="3.5"/><circle class="a" cx="20.5" cy="10.5" r="1"/><circle class="a" cx="16.5" cy="10.5" r="1"/><polyline class="a" points="23.5 1 21 8.5 16 8.5 14.5 3.5 22.667 3.5"/><path class="a" d="M13.158,13.5a6,6,0,0,0-11.317,0"/><path class="a" d="M14.5,14.5v3.172a2,2,0,0,1-.586,1.414l-.481.481a2,2,0,0,1-2.157.443L7.5,18.5,3.724,20.01a2,2,0,0,1-2.157-.443l-.481-.481A2,2,0,0,1,.5,17.672V14.5a1,1,0,0,1,1-1h12A1,1,0,0,1,14.5,14.5Z"/><path class="a" d="M3.966,22.349a6,6,0,0,0,6.937.093"/><line class="a" x1="7.5" y1="8.5" x2="7.5" y2="13.5"/><path class="a" d="M9,21a2.5,2.5,0,0,1-3,0"/><line class="a" x1="6" y1="15.5" x2="9.5" y2="15.5"/></svg>