<svg xmlns="http://www.w3.org/2000/svg" viewBox="0 0 24 24"><defs><style>.a{fill:none;stroke:#000;stroke-linecap:round;stroke-linejoin:round;}</style></defs><title>e-commerce-gift</title><path class="a" d="M11,7.5H5.166A1.666,1.666,0,0,0,3.5,9.167V19.5h5c0,1.1,1.567,2,3.5,2s3.5-.9,3.5-2h5v-7"/><path class="a" d="M15.5,19.5c0,1.1-1.567,2-3.5,2s-3.5-.9-3.5-2H2a1,1,0,0,0-.847,1.532A5.282,5.282,0,0,0,5.623,23.5H18.377a5.283,5.283,0,0,0,4.47-2.468A1,1,0,0,0,22,19.5Z"/><rect class="a" x="13" y="2.5" width="10" height="8" rx="1" ry="1"/><line class="a" x1="18" y1="2.5" x2="15.5" y2="0.5"/><line class="a" x1="18" y1="2.5" x2="18" y2="10.5"/><line class="a" x1="18" y1="2.5" x2="20.5" y2="0.5"/><line class="a" x1="13" y1="6.5" x2="23" y2="6.5"/></svg>