<svg xmlns="http://www.w3.org/2000/svg" viewBox="0 0 24 24"><defs><style>.a{fill:none;stroke:#000;stroke-linecap:round;stroke-linejoin:round;}</style></defs><title>e-learning-monitor</title><rect class="a" x="0.5" y="2.001" width="23" height="17" rx="1" ry="1"/><line class="a" x1="7" y1="22.001" x2="17" y2="22.001"/><line class="a" x1="10.5" y1="19.001" x2="10.5" y2="22.001"/><line class="a" x1="13.5" y1="19.001" x2="13.5" y2="22.001"/><path class="a" d="M12.894,11.333l5.534-2.372a.5.5,0,0,0,0-.919L12.894,5.67a1,1,0,0,0-.788,0L5.5,8.5l6.606,2.832A1.007,1.007,0,0,0,12.894,11.333Z"/><path class="a" d="M8.5,9.787v3.4a.5.5,0,0,0,.276.448l3.277,1.638a1,1,0,0,0,.894,0l3.277-1.638a.5.5,0,0,0,.276-.448v-3.4"/><line class="a" x1="5.5" y1="8.501" x2="5.5" y2="12.001"/><path class="a" d="M5.5,12,4.127,15.664A.249.249,0,0,0,4.361,16H6.639a.249.249,0,0,0,.234-.337L5.5,12"/></svg>