<svg xmlns="http://www.w3.org/2000/svg" viewBox="0 0 24 24"><defs><style>.a{fill:none;stroke:#000;stroke-linecap:round;stroke-linejoin:round;}</style></defs><title>e-learning-laptop-1</title><rect class="a" x="3.5" y="3.001" width="17" height="12" rx="1" ry="1"/><path class="a" d="M4.409,15a1.025,1.025,0,0,0-.883.5l-2.385,4A1,1,0,0,0,2.024,21H21.976a1,1,0,0,0,.883-1.5l-2.385-4a1.025,1.025,0,0,0-.883-.5"/><line class="a" x1="9.5" y1="19.001" x2="14.5" y2="19.001"/><path class="a" d="M11.129,5.65,6.79,7.385a.125.125,0,0,0,0,.232l4.339,1.736a1,1,0,0,0,.742,0L16.5,7.5,11.871,5.65A1,1,0,0,0,11.129,5.65Z"/><path class="a" d="M8.5,10v1.5a3.976,3.976,0,0,0,3,1,3.976,3.976,0,0,0,3-1V10"/><line class="a" x1="16.5" y1="7.501" x2="16.5" y2="12.501"/></svg>