<svg xmlns="http://www.w3.org/2000/svg" viewBox="0 0 24 24"><defs><style>.a{fill:none;stroke:#000;stroke-linecap:round;stroke-linejoin:round;}</style></defs><title>earth-block</title><path class="a" d="M12.477,23.475q-.237.009-.477.009a11.5,11.5,0,1,1,11.5-11.5h0"/><path class="a" d="M9.521,16.773l-.763.859A3,3,0,0,0,8,19.625V22.77"/><path class="a" d="M.673,9.984H6.757a3,3,0,0,1,2.122.879L10.5,12.481"/><path class="a" d="M20.261,3.984h-5.8a2.25,2.25,0,1,0,0,4.5h.432a3,3,0,0,1,2.229.992"/><circle class="a" cx="17.5" cy="17.484" r="6"/><line class="a" x1="13.258" y1="21.727" x2="21.743" y2="13.242"/></svg>