<svg xmlns="http://www.w3.org/2000/svg" viewBox="0 0 24 24"><defs><style>.a{fill:none;stroke:#000;stroke-linecap:round;stroke-linejoin:round;}</style></defs><title>earth-refresh</title><path class="a" d="M9,23.09A11.5,11.5,0,1,1,23.4,10.466"/><path class="a" d="M10.121,16.1,8.758,17.632A3,3,0,0,0,8,19.625V22.77"/><path class="a" d="M.673,9.985H6.757a3,3,0,0,1,2.122.878L10.511,12.5"/><path class="a" d="M20.261,3.985h-5.8a2.25,2.25,0,0,0,0,4.5h.432a3,3,0,0,1,2.238,1"/><polyline class="a" points="15 18.485 11.5 18.485 11.5 21.985"/><path class="a" d="M22.917,19.718A5.572,5.572,0,0,1,12.1,18.485"/><polyline class="a" points="20 16.485 23.5 16.485 23.5 12.985"/><path class="a" d="M12.083,15.251A5.572,5.572,0,0,1,22.9,16.485"/></svg>