<svg xmlns="http://www.w3.org/2000/svg" viewBox="0 0 24 24"><defs><style>.a{fill:none;stroke:#000;stroke-linecap:round;stroke-linejoin:round;}</style></defs><title>earth-question</title><path class="a" d="M12.466,23.475c-.154.006-.31.01-.466.01a11.5,11.5,0,1,1,11.5-11.5h0"/><path class="a" d="M9.5,16.793l-.746.839A3,3,0,0,0,8,19.625V22.77"/><path class="a" d="M.673,9.985H6.757a3,3,0,0,1,2.122.878l1.656,1.656"/><path class="a" d="M20.261,3.985h-5.8a2.25,2.25,0,0,0,0,4.5h.432a3,3,0,0,1,2.232,1"/><circle class="a" cx="17.5" cy="17.485" r="6"/><path class="a" d="M15.625,16.026A1.875,1.875,0,1,1,17.5,17.9v1"/><path class="a" d="M17.5,20.9a.25.25,0,0,1,.25.25"/><path class="a" d="M17.25,21.151a.25.25,0,0,1,.25-.25"/><path class="a" d="M17.5,21.4a.25.25,0,0,1-.25-.25"/><path class="a" d="M17.75,21.151a.25.25,0,0,1-.25.25"/></svg>