<svg xmlns="http://www.w3.org/2000/svg" viewBox="0 0 24 24"><defs><style>.a{fill:none;stroke:#000;stroke-linecap:round;stroke-linejoin:round;}</style></defs><title>earth-pin-2</title><path class="a" d="M21,9.985c0,7-9,13.5-9,13.5s-9-6.5-9-13.5c0-5.246,3.753-9.5,9-9.5S21,4.739,21,9.985Z"/><circle class="a" cx="12" cy="9.485" r="6"/><path class="a" d="M6.544,6.985H7.5A1.5,1.5,0,0,1,9,8.485a1,1,0,0,0,1,1,1,1,0,0,1,1,1,2.5,2.5,0,0,1-2.5,2.5H7.126"/><path class="a" d="M17.811,10.985H17a1.5,1.5,0,0,1-1.5-1.5,1,1,0,0,0-1-1,1,1,0,0,1-1-1,2.473,2.473,0,0,1,2.469-2.5"/></svg>