<svg id="Light" xmlns="http://www.w3.org/2000/svg" viewBox="0 0 24 24"><defs><style>.cls-1{fill:none;stroke:#000;stroke-linecap:round;stroke-linejoin:round;}</style></defs><title>eat-vending-machine</title><circle class="cls-1" cx="7.5" cy="4.5" r="2"/><path class="cls-1" d="M3.5,16.029V22.5a1,1,0,0,0,1,1h2a1,1,0,0,0,1-1V15.53l.767-4.987.455.14a1,1,0,0,1,.655.639l1.674,5.024a1,1,0,0,0,1.9-.633l-1.675-5.025A3.008,3.008,0,0,0,9.31,8.771l-3.7-1.138a3,3,0,0,0-3.7,1.843L.56,13.188a1,1,0,0,0,1.88.683l1.35-3.712"/><path class="cls-1" d="M11.5,19v3.5a1,1,0,0,0,1,1h10a1,1,0,0,0,1-1V1.5a1,1,0,0,0-1-1h-10a1,1,0,0,0-1,1v6"/><path class="cls-1" d="M15,16.5h5.5a1,1,0,0,1,1,1v3a1,1,0,0,1-1,1h-6a1,1,0,0,1-1-1v-2"/><rect class="cls-1" x="13.5" y="2.5" width="3" height="2" rx="0.5" ry="0.5"/><rect class="cls-1" x="13.5" y="6.5" width="3" height="2" rx="0.5" ry="0.5"/><rect class="cls-1" x="18.5" y="2.5" width="3" height="2" rx="0.5" ry="0.5"/><rect class="cls-1" x="18.5" y="6.5" width="3" height="2" rx="0.5" ry="0.5"/><rect class="cls-1" x="18.5" y="10.5" width="3" height="2" rx="0.5" ry="0.5"/><rect class="cls-1" x="15.932" y="18.749" width="2" height="3" rx="1" ry="1" transform="matrix(0.5, -0.866, 0.866, 0.5, -9.07, 24.788)"/></svg>