<svg id="Light" xmlns="http://www.w3.org/2000/svg" viewBox="0 0 24 24"><defs><style>.cls-1{fill:none;stroke:#000;stroke-linecap:round;stroke-linejoin:round;}</style></defs><title>eco-house</title><path class="cls-1" d="M3.5,11.823v10.5a.5.5,0,0,0,.5.5H20a.5.5,0,0,0,.5-.5v-10.5"/><path class="cls-1" d="M.5,11.323,11.326,1.439a1,1,0,0,1,1.348,0L23.5,11.323"/><path class="cls-1" d="M9.484,10.672c-1.7,1.049-2.46,2.684.388,4.456.291,3.343,1.914,3.519,3.8,2.362s3.806-5.267,3.351-7.922C14.2,10.713,11.616,9.365,9.484,10.672Z"/><path class="cls-1" d="M5.661,20.248s4.474-6.952,8.609-8.025"/></svg>