<svg id="Light" xmlns="http://www.w3.org/2000/svg" viewBox="0 0 24 24"><defs><style>.cls-1{fill:none;stroke:#000;stroke-linecap:round;stroke-linejoin:round;}</style></defs><title>ecology-leaf-book</title><path class="cls-1" d="M15.748,8.886a.5.5,0,0,1,.714.486c-.159,2.26-.986,8.128-5.28,8.128a3.682,3.682,0,0,1,0-7.364A11.681,11.681,0,0,0,15.748,8.886Z"/><path class="cls-1" d="M7.5,18.727A8.4,8.4,0,0,1,12.409,13"/><path class="cls-1" d="M5.5,2.5H17a.5.5,0,0,1,.5.5V4.5"/><path class="cls-1" d="M19.5,4.5V1A.5.5,0,0,0,19,.5H5.5a2,2,0,0,0,0,4H20a.5.5,0,0,1,.5.5V23a.5.5,0,0,1-.5.5H5.5a2,2,0,0,1-2-2V2.5"/></svg>