<svg id="Light" xmlns="http://www.w3.org/2000/svg" viewBox="0 0 24 24"><defs><style>.cls-1{fill:none;stroke:#000;stroke-linecap:round;stroke-linejoin:round;}</style></defs><title>ecology-globe-hand-1</title><path class="cls-1" d="M7.255,12.508a8.5,8.5,0,1,1,10.264,4.613"/><path class="cls-1" d="M7.252,5.5H11.5a1,1,0,0,1,1,1v2a1,1,0,0,1-1,1h-.219a1,1,0,0,0-.97.757l-.622,2.486"/><path class="cls-1" d="M22.748,12.5H19.221a1,1,0,0,1-.949-.684l-.333-1A1,1,0,0,1,18.887,9.5H19.5a1,1,0,0,0,1-1v-2a1,1,0,0,1,1-1h1.248"/><path class="cls-1" d="M11.5,18.5h3a4,4,0,0,1,4,4H.5"/><path class="cls-1" d="M.5,14.5h7a4,4,0,0,1,4,4H7"/><line class="cls-1" x1="0.5" y1="13.5" x2="0.5" y2="23.5"/></svg>