<svg id="Light" xmlns="http://www.w3.org/2000/svg" viewBox="0 0 24 24"><defs><style>.cls-1{fill:none;stroke:#000;stroke-linecap:round;stroke-linejoin:round;}</style></defs><title>ecology-plant-hand-1</title><path class="cls-1" d="M19.793,8.925c-3,1.5-4.5,5.5-4.5,5.5A21.56,21.56,0,0,0,9.03,4.065"/><path class="cls-1" d="M17.293,7.425c-1.2.8-1.824,2.268,0,3.5,1,2.5,2.86,1.827,3.961.667a6.886,6.886,0,0,0,.863-6.167C20.36,6.75,18.793,6.425,17.293,7.425Z"/><path class="cls-1" d="M13.814,3.9c1.3,1.525,1.979,3.53-1.107,4.875-1.414,3.155-3.562,1.987-4.992.3S5.739,2.881,7,.5C9.319,2.465,12.2,1.989,13.814,3.9Z"/><path class="cls-1" d="M12.5,18.5h3a4,4,0,0,1,4,4H1.5"/><path class="cls-1" d="M1.5,14.5h7a4,4,0,0,1,4,4H8"/><line class="cls-1" x1="1.5" y1="13.5" x2="1.5" y2="23.5"/></svg>