<svg id="Light" xmlns="http://www.w3.org/2000/svg" viewBox="0 0 24 24"><defs><style>.cls-1{fill:none;stroke:#000;stroke-linecap:round;stroke-linejoin:round;}</style></defs><title>ecology-plant-deal</title><path class="cls-1" d="M14.49,5.326C13.478,6,12.944,7.22,14.379,8.265a.5.5,0,0,1,.164.2c.873,2.005,2.431,1.429,3.361.449a6.066,6.066,0,0,0,.962-4.646.5.5,0,0,0-.738-.327C16.821,4.7,15.633,4.564,14.49,5.326Z"/><path class="cls-1" d="M11.2,3.041c1,1.177,1.539,2.716-.714,3.778a.5.5,0,0,0-.236.234c-1.116,2.29-2.764,1.379-3.868.078C5.364,5.937,4.912,2.946,5.548.987A.5.5,0,0,1,6.3.723C8.033,1.86,10.029,1.667,11.2,3.041Z"/><path class="cls-1" d="M16.644,7.014c-2.643.345-4.28,4.345-4.28,4.345A17.039,17.039,0,0,0,7.416,3.173"/><line class="cls-1" x1="17.501" y1="20.511" x2="13.572" y2="21.297"/><path class="cls-1" d="M14,16.859l-1.853.761a1.2,1.2,0,0,1-.983-2.188l1.853-.9a1.659,1.659,0,0,1,1.309-.075l3.382,1.294"/><path class="cls-1" d="M6.5,21.359H7.9l2.329,1.771a.684.684,0,0,0,.944.074l3.5-2.807a.683.683,0,0,0,.1-.949L12.853,17.33"/><path class="cls-1" d="M11.011,15.534l-.25-.206a1.469,1.469,0,0,0-1.415-.18L6.5,16.359"/><path class="cls-1" d="M3.5,21.859a.5.5,0,0,0,.5.5H5.5a1,1,0,0,0,1-1v-5a1,1,0,0,0-1-1H4a.5.5,0,0,0-.5.5Z"/><path class="cls-1" d="M20.5,21.859a.5.5,0,0,1-.5.5H18.5a1,1,0,0,1-1-1v-5a1,1,0,0,1,1-1H20a.5.5,0,0,1,.5.5Z"/><path class="cls-1" d="M.5,13.707a29.337,29.337,0,0,1,23,0"/></svg>