<svg id="Light" xmlns="http://www.w3.org/2000/svg" viewBox="0 0 24 24"><defs><style>.cls-1{fill:none;stroke:#000;stroke-linecap:round;stroke-linejoin:round;}</style></defs><title>ecology-globe-nature</title><path class="cls-1" d="M22.5,12.33a11,11,0,0,1-22,0Z"/><path class="cls-1" d="M3.014,19.33H8.5a2,2,0,1,0,0-4,2,2,0,0,1-2-2v-1"/><path class="cls-1" d="M21.3,17.33H17.5a2,2,0,0,0-2,2v3.25"/><path class="cls-1" d="M23.281,7.959,21.265,5.225c.662.528,1.613-.244.957-1.191L19.9.874a.5.5,0,0,0-.8,0l-2.323,3.16c-.656.947.3,1.719.957,1.191L15.716,7.959a.835.835,0,0,0,.416,1.371h6.733A.835.835,0,0,0,23.281,7.959Z"/><line class="cls-1" x1="19.497" y1="9.33" x2="19.497" y2="12.33"/><path class="cls-1" d="M14.95,10.83,10.128,5.266a.5.5,0,0,0-.756,0L6.563,8.507"/><path class="cls-1" d="M8.514,10.83,5.5,7.271a.5.5,0,0,0-.755-.009L1.581,10.83"/></svg>