<svg xmlns="http://www.w3.org/2000/svg" viewBox="0 0 24 24"><defs><style>.a{fill:none;stroke:#000;stroke-linecap:round;stroke-linejoin:round;}</style></defs><title>electricity-pillar</title><line class="a" x1="1.402" y1="3.691" x2="14.83" y2="3.691"/><line class="a" x1="8.086" y1="8.508" x2="8.086" y2="22.236"/><line class="a" x1="2.306" y1="1.764" x2="2.306" y2="3.691"/><line class="a" x1="4.232" y1="1.764" x2="4.232" y2="3.691"/><line class="a" x1="11.939" y1="1.764" x2="11.939" y2="3.691"/><line class="a" x1="13.866" y1="1.764" x2="13.866" y2="3.691"/><polyline class="a" points="11.939 3.691 8.086 8.508 4.232 3.691"/><line class="a" x1="12" y1="10.435" x2="23.5" y2="10.435"/><line class="a" x1="17.72" y1="14.288" x2="17.72" y2="22.236"/><line class="a" x1="12.903" y1="9.471" x2="12.903" y2="10.435"/><line class="a" x1="14.83" y1="9.471" x2="14.83" y2="10.435"/><line class="a" x1="20.61" y1="9.471" x2="20.61" y2="10.435"/><line class="a" x1="22.537" y1="9.471" x2="22.537" y2="10.435"/><polyline class="a" points="20.61 10.435 17.72 14.288 14.83 10.435"/><line class="a" x1="0.5" y1="22.236" x2="22.417" y2="22.236"/></svg>