<svg id="Light" xmlns="http://www.w3.org/2000/svg" viewBox="0 0 24 24"><defs><style>.cls-1{fill:none;stroke:#000;stroke-linecap:round;stroke-linejoin:round;}</style></defs><title>elephant-head</title><path class="cls-1" d="M14.5,23.063a3.9,3.9,0,0,1-4-4v-3.5c0-2-2-3.5-4-3.5v-5.5a5.713,5.713,0,0,1,5.5-5.5,5.713,5.713,0,0,1,5.5,5.5v5.5c-2,0-4,1.5-4,3.5v3c0,1.5.5,2,1.5,2a3.491,3.491,0,0,0,2-1s0,2,1.5,2C17,22.563,16.5,23.063,14.5,23.063Z"/><path class="cls-1" d="M17.5,12.064a5.843,5.843,0,0,1,1,3.093c0,1.719-2,2.406-2,2.406s.5-2-.5-3"/><path class="cls-1" d="M6.5,12.064a5.843,5.843,0,0,0-1,3.093c0,1.719,2,2.406,2,2.406s-.5-2,.5-3"/><path class="cls-1" d="M8.75,6.813a.25.25,0,0,1,.25.25"/><path class="cls-1" d="M8.5,7.063a.25.25,0,0,1,.25-.25"/><path class="cls-1" d="M8.75,7.313a.25.25,0,0,1-.25-.25"/><path class="cls-1" d="M9,7.063a.25.25,0,0,1-.25.25"/><path class="cls-1" d="M15.25,6.813a.25.25,0,0,1,.25.25"/><path class="cls-1" d="M15,7.063a.25.25,0,0,1,.25-.25"/><path class="cls-1" d="M15.25,7.313a.25.25,0,0,1-.25-.25"/><path class="cls-1" d="M15.5,7.063a.25.25,0,0,1-.25.25"/><path class="cls-1" d="M15.239,2.21A7.8,7.8,0,0,1,19,1.063,4.563,4.563,0,0,1,23.086,3.61a2,2,0,0,1,.085,1.745c-.61,1.431-1.921,4.334-2.671,4.708-1,.5-3-.5-3-.5"/><path class="cls-1" d="M8.749,2.219A7.688,7.688,0,0,0,5,1.063,4.563,4.563,0,0,0,.914,3.61,2,2,0,0,0,.829,5.355C1.439,6.786,2.75,9.689,3.5,10.063c1,.5,3-.5,3-.5"/></svg>