<svg id="Light" xmlns="http://www.w3.org/2000/svg" viewBox="0 0 24 24"><defs><style>.cls-1{fill:none;stroke:#000;stroke-linecap:round;stroke-linejoin:round;}</style></defs><title>elephant-water</title><path class="cls-1" d="M3,19.375s-2.5-1-2.5-5.5A7.216,7.216,0,0,1,6.331,6.406a.5.5,0,0,1,.317.043l1.014.507A.5.5,0,0,1,7.7,7.83a8.857,8.857,0,0,0-3.2,3.045,3.6,3.6,0,0,0,0,3.5s2.5-1.5,4-1.5a3.825,3.825,0,0,1,2.5,1,5.52,5.52,0,0,1,3.5-.5c1.061.354,2.5,3,2,4a11.565,11.565,0,0,1-2,2"/><path class="cls-1" d="M15.944,14.875H19a4.334,4.334,0,0,1,4.5,4.5"/><path class="cls-1" d="M7.75,15.375a.25.25,0,0,1,.25.25"/><path class="cls-1" d="M7.5,15.625a.25.25,0,0,1,.25-.25"/><path class="cls-1" d="M7.75,15.875a.25.25,0,0,1-.25-.25"/><path class="cls-1" d="M8,15.625a.25.25,0,0,1-.25.25"/><path class="cls-1" d="M9,4.5a5.525,5.525,0,0,1,2.635-2.75c1.84-.782,3.152-.253,3.083.863s-1.45,1.7-2.566,1.634A19.667,19.667,0,0,0,9,4.5Z"/><path class="cls-1" d="M13.345,6.254a3.291,3.291,0,0,1,2.515-.193c1.166.51,1.432,1.488.824,2.085a1.264,1.264,0,0,1-1.907-.4A10.9,10.9,0,0,0,13.345,6.254Z"/><path class="cls-1" d="M.5,21.352l.866,1.039a1,1,0,0,0,1.536,0l.964-1.156a1,1,0,0,1,1.536,0l.964,1.156a1,1,0,0,0,1.536,0l.964-1.156a1,1,0,0,1,1.536,0l.964,1.156a1,1,0,0,0,1.536,0l.964-1.156a1,1,0,0,1,1.536,0l.964,1.156a1,1,0,0,0,1.536,0l.964-1.156a1,1,0,0,1,1.536,0l.964,1.156a1,1,0,0,0,1.536,0l.6-.717"/></svg>