<svg xmlns="http://www.w3.org/2000/svg" viewBox="0 0 24 24"><defs><style>.a{fill:none;stroke:#000;stroke-linecap:round;stroke-linejoin:round;}</style></defs><title>engagement-couple</title><path class="a" d="M14.091,2.619,13.8,2.36a1.065,1.065,0,0,1,0-1.591h0A1.067,1.067,0,0,1,14.508.5h.984A1.067,1.067,0,0,1,16.2.769h0a1.065,1.065,0,0,1,0,1.591l-.291.259"/><circle class="a" cx="5.5" cy="14.5" r="3"/><path class="a" d="M2.915,12.977a4.986,4.986,0,0,0,5.558,1.117"/><path class="a" d="M22.142,17.644a3.939,3.939,0,0,1-.573-2.181v-.892a3.069,3.069,0,1,0-6.138,0v.892a3.939,3.939,0,0,1-.573,2.181"/><path class="a" d="M15.431,15.078A4.065,4.065,0,0,0,18.5,13.671a4.065,4.065,0,0,0,3.069,1.407"/><path class="a" d="M15.806,15.06a2.708,2.708,0,0,0,5.389,0"/><path class="a" d="M5.5,18.5a5,5,0,0,0-5,5h10A5,5,0,0,0,5.5,18.5Z"/><path class="a" d="M18.5,18.5a5,5,0,0,0-5,5h10A5,5,0,0,0,18.5,18.5Z"/><path class="a" d="M14.3,9.429A3.5,3.5,0,1,0,11.5,6"/><path class="a" d="M10.7,2.571A3.5,3.5,0,1,0,13.5,6"/></svg>