<svg xmlns="http://www.w3.org/2000/svg" viewBox="0 0 24 24"><defs><style>.a{fill:none;stroke:#000;stroke-linecap:round;stroke-linejoin:round;}</style></defs><title>equipment-machine-track</title><path class="a" d="M1.706,22.292a4.1,4.1,0,0,0,5.307.418L21,12.547A6.788,6.788,0,1,0,11.452,3L1.289,16.987A4.1,4.1,0,0,0,1.706,22.292Z"/><circle class="a" cx="4.995" cy="19.005" r="2.5"/><circle class="a" cx="16.995" cy="7.005" r="3.498"/><path class="a" d="M17,6.755a.25.25,0,1,1-.25.25.249.249,0,0,1,.25-.25"/><path class="a" d="M5,18.755a.25.25,0,1,1-.25.25.249.249,0,0,1,.25-.25"/></svg>