<svg id="Light" xmlns="http://www.w3.org/2000/svg" viewBox="0 0 24 24"><defs><style>.cls-1{fill:none;stroke:#000;stroke-linecap:round;stroke-linejoin:round;}</style></defs><title>exotic-food-samosa</title><path class="cls-1" d="M8.176,19a.928.928,0,0,1-.816-.478.887.887,0,0,1,.045-.929l3.825-5.607a.937.937,0,0,1,1.54,0L16.6,17.593a.887.887,0,0,1,.045.929.928.928,0,0,1-.816.478Z"/><path class="cls-1" d="M12,11.583l.937,3.968a2.7,2.7,0,0,1-1.464,3.038l-.84.411"/><path class="cls-1" d="M11.03,12.279,9.45,9.907a.914.914,0,0,0-1.521,0L4.154,15.578A.914.914,0,0,0,4.914,17h2.9"/><path class="cls-1" d="M12.97,12.279l1.58-2.372a.914.914,0,0,1,1.521,0l3.775,5.671A.914.914,0,0,1,19.086,17h-2.9"/><path class="cls-1" d="M1.886,16.8Q1.2,17.122.5,17.467C4.624,21.175,12,23.5,12,23.5s7.376-2.325,11.5-6.033q-.7-.343-1.386-.664"/><ellipse class="cls-1" cx="5" cy="2.5" rx="4.5" ry="2"/><path class="cls-1" d="M9.5,2.5c0,3.314-1.515,6-4,6h-1c-2.485,0-4-2.686-4-6"/></svg>