<svg xmlns="http://www.w3.org/2000/svg" viewBox="0 0 24 24"><defs><style>.a{fill:none;stroke:#000;stroke-linecap:round;stroke-linejoin:round;}</style></defs><title>family-home-1</title><path class="a" d="M12.352,9.15a.5.5,0,0,1-.7,0l-2.2-2.19A1.391,1.391,0,0,1,9.16,5.3h0a1.553,1.553,0,0,1,2.422-.375l.418.4.418-.4A1.553,1.553,0,0,1,14.84,5.3h0a1.391,1.391,0,0,1-.283,1.663Z"/><path class="a" d="M.5,15V8.8a1,1,0,0,1,.429-.821l10.5-7.3a1,1,0,0,1,1.142,0l10.5,7.3A1,1,0,0,1,23.5,8.8V15"/><circle class="a" cx="6.5" cy="12.5" r="3"/><path class="a" d="M3.915,10.977a4.986,4.986,0,0,0,5.558,1.117"/><path class="a" d="M21.142,15.644a3.939,3.939,0,0,1-.573-2.181v-.892a3.069,3.069,0,1,0-6.138,0v.892a3.939,3.939,0,0,1-.573,2.181"/><path class="a" d="M14.431,13.078A4.065,4.065,0,0,0,17.5,11.671a4.065,4.065,0,0,0,3.069,1.407"/><path class="a" d="M14.806,13.06a2.708,2.708,0,0,0,5.389,0"/><path class="a" d="M7.5,16.6a5,5,0,0,0-6,4.9"/><path class="a" d="M16.5,16.6a5,5,0,0,1,6,4.9"/><circle class="a" cx="12" cy="17.75" r="2.25"/><path class="a" d="M15,23.5A3.082,3.082,0,0,0,12,21a3.048,3.048,0,0,0-3,2.5"/></svg>