<svg id="Light" xmlns="http://www.w3.org/2000/svg" viewBox="0 0 24 24"><defs><style>.cls-1{fill:none;stroke:#000;stroke-linecap:round;stroke-linejoin:round;}</style></defs><title>family-baby</title><line class="cls-1" x1="8.569" y1="13.497" x2="15.569" y2="13.497"/><line class="cls-1" x1="8.569" y1="14.497" x2="10.552" y2="17.497"/><line class="cls-1" x1="13.515" y1="17.497" x2="15.569" y2="14.497"/><circle class="cls-1" cx="12.069" cy="2.997" r="2.5"/><path class="cls-1" d="M20.06,12.044l-2.6-2.976a4.5,4.5,0,0,0-3.387-1.536H9.931A4.5,4.5,0,0,0,6.544,9.068l-2.6,2.976A1.5,1.5,0,0,0,6.2,14.02l2.371-2.71v3.927L7.162,16.645a3.481,3.481,0,0,0-.214,4.715l1.33,1.6a1.5,1.5,0,0,0,2.3-1.921l-1.331-1.6a.5.5,0,0,1,.031-.674L10.552,17.5h2.963l1.269,1.269a.5.5,0,0,1,.031.674l-1.331,1.6a1.5,1.5,0,1,0,2.3,1.921l1.331-1.6a3.482,3.482,0,0,0-.215-4.715l-1.336-1.336V11.468L17.8,14.02a1.5,1.5,0,0,0,2.258-1.976Z"/></svg>