<svg xmlns="http://www.w3.org/2000/svg" viewBox="0 0 24 24"><defs><style>.a{fill:none;stroke:#000;stroke-linecap:round;stroke-linejoin:round;}</style></defs><title>family-outdoors-swing-tree</title><line class="a" x1="14.5" y1="15.974" x2="14.5" y2="20.5"/><line class="a" x1="20.5" y1="11.933" x2="20.5" y2="20.5"/><line class="a" x1="13.5" y1="20.5" x2="21.5" y2="20.5"/><line class="a" x1="10.5" y1="7" x2="10.5" y2="23.5"/><path class="a" d="M10.5,10.5a3,3,0,0,1-3-3"/><line class="a" x1="10.5" y1="12.5" x2="18.5" y2="10"/><path class="a" d="M12,.5c2.133,0,3.859,1.455,3.859,3.25l.3.25a2.765,2.765,0,0,1,2.969,2.5l.355.393A3.217,3.217,0,0,1,21.5,9.75a3.3,3.3,0,0,1-2.356,2.995A3.986,3.986,0,0,1,15,16a4.115,4.115,0,0,1-2.5-.812A5.064,5.064,0,0,1,9.7,16H9.2c-3.215,0-4.3-2.463-4.262-3.248a3.314,3.314,0,0,1-2.441-3A3.3,3.3,0,0,1,4.879,6.77,2.853,2.853,0,0,1,7.984,4l.3-.25A3.418,3.418,0,0,1,12,.5"/></svg>