<svg xmlns="http://www.w3.org/2000/svg" viewBox="0 0 24 24"><defs><style>.a{fill:none;stroke:#000;stroke-linecap:round;stroke-linejoin:round;}</style></defs><title>family-outdoors-tree-house</title><path class="a" d="M18.336,4.091,14.836,7.2a1,1,0,0,0-.336.747V12.5a1,1,0,0,0,1,1h7a1,1,0,0,0,1-1V7.949a1,1,0,0,0-.336-.747l-3.5-3.111A1,1,0,0,0,18.336,4.091Z"/><line class="a" x1="17.5" y1="13.5" x2="17.5" y2="23.5"/><line class="a" x1="20.5" y1="13.5" x2="20.5" y2="23.5"/><line class="a" x1="17.5" y1="16" x2="20.5" y2="16"/><line class="a" x1="17.5" y1="19" x2="20.5" y2="19"/><line class="a" x1="17.5" y1="22" x2="20.5" y2="22"/><path class="a" d="M21.5,13.5V11A2.5,2.5,0,0,0,19,8.5h0A2.5,2.5,0,0,0,16.5,11v2.5"/><line class="a" x1="10.5" y1="7" x2="10.5" y2="23.5"/><path class="a" d="M10.5,12.5a3.974,3.974,0,0,0,1.651-.356"/><path class="a" d="M10.5,10.5a3,3,0,0,1-3-3"/><path class="a" d="M13.572,15.993c-.091,0-.183.007-.275.007a5.064,5.064,0,0,1-2.8-.812A5.064,5.064,0,0,1,7.7,16H7.2c-3.215,0-4.3-2.463-4.262-3.248A3.314,3.314,0,0,1,.5,9.75,3.3,3.3,0,0,1,2.879,6.77,2.853,2.853,0,0,1,5.984,4l.3-.25C6.289,1.955,8.061.5,10.25.5s3.961,1.455,3.961,3.25l.3.25a3.666,3.666,0,0,1,.924.117"/></svg>