<svg xmlns="http://www.w3.org/2000/svg" viewBox="0 0 24 24"><defs><style>.a{fill:none;stroke:#000;stroke-linecap:round;stroke-linejoin:round;}</style></defs><title>family-father</title><line class="a" x1="5.5" y1="11" x2="5.5" y2="14"/><path class="a" d="M3.5,23.5l-.5-6H.5V14a5,5,0,0,1,10,0v3.5H8l-.5,6Z"/><path class="a" d="M2.484,2.223A5.809,5.809,0,0,0,6.667,4a5.822,5.822,0,0,0,2.3-.473"/><circle class="a" cx="5.5" cy="4" r="3.5"/><circle class="a" cx="20.5" cy="10.25" r="2.25"/><path class="a" d="M20.5,13.5a3,3,0,0,0-3,3V19H19l.5,4.5h2L22,19h1.5V16.5A3,3,0,0,0,20.5,13.5Z"/><path class="a" d="M15.718,6.123a.5.5,0,0,1-.722,0L12.922,3.96a1.441,1.441,0,0,1-.27-1.663h0a1.441,1.441,0,0,1,2.308-.375l.4.4.4-.4a1.44,1.44,0,0,1,2.307.375h0a1.441,1.441,0,0,1-.27,1.663Z"/></svg>