<svg xmlns="http://www.w3.org/2000/svg" viewBox="0 0 24 24"><defs><style>.a{fill:none;stroke:#000;stroke-linecap:round;stroke-linejoin:round;}</style></defs><title>family-umbrella-protect</title><line class="a" x1="12" y1="1.5" x2="12" y2="0.5"/><line class="a" x1="12" y1="11" x2="12" y2="15"/><circle class="a" cx="6" cy="16" r="3"/><path class="a" d="M3.415,14.477a4.986,4.986,0,0,0,5.558,1.117"/><path class="a" d="M21.642,19.144a3.939,3.939,0,0,1-.573-2.181v-.892a3.069,3.069,0,1,0-6.138,0v.892a3.939,3.939,0,0,1-.573,2.181"/><path class="a" d="M14.931,16.578A4.065,4.065,0,0,0,18,15.171a4.065,4.065,0,0,0,3.069,1.407"/><path class="a" d="M15.306,16.56a2.708,2.708,0,0,0,5.389,0"/><circle class="a" cx="12" cy="19.75" r="2.25"/><path class="a" d="M14.247,23.5a3.041,3.041,0,0,0-4.509,0"/><path class="a" d="M7.758,20.318A5.005,5.005,0,0,0,1.229,23.5"/><path class="a" d="M16.242,20.318A5.005,5.005,0,0,1,22.771,23.5"/><path class="a" d="M23.5,11c0-.828-1.231-1.5-2.75-1.5S18,10.172,18,11c0-.828-1.343-1.5-3-1.5s-3,.672-3,1.5c0-.828-1.343-1.5-3-1.5S6,10.172,6,11c0-.828-1.231-1.5-2.75-1.5S.5,10.172.5,11C.5,5.753,5.649,1.5,12,1.5S23.5,5.753,23.5,11Z"/></svg>