<svg id="Light" xmlns="http://www.w3.org/2000/svg" viewBox="0 0 24 24"><defs><style>.cls-1{fill:none;stroke:#000;stroke-linecap:round;stroke-linejoin:round;}</style></defs><title>family-child-jumping-rope</title><circle class="cls-1" cx="11.978" cy="6.491" r="2.5"/><path class="cls-1" d="M5,9.5v-2a7,7,0,1,1,14,0v2"/><path class="cls-1" d="M10.285,11.492a2.978,2.978,0,0,0-2.121.879l-.334.334A.948.948,0,0,1,7.067,13a.918.918,0,0,1-.683-.375l-.6-.755a1,1,0,0,0-1.561,1.25l.6.755a2.915,2.915,0,0,0,2.136,1.121c.055,0,.109,0,.164,0a3.1,3.1,0,0,0,2.164-.879l.213-.213v1.683A3,3,0,0,1,9,17.253l-1.269,1.9a.219.219,0,0,0,.182.34H9v.882a1,1,0,0,1-.181.573l-.693.99a1,1,0,1,0,1.664,1.11l1-1.5A1.051,1.051,0,0,0,11,21V19.49h2V21a1.006,1.006,0,0,0,.168.555l1,1.5a1,1,0,0,0,1.664-1.11l-.664-1A1,1,0,0,1,15,20.392V19.5h1.033a.25.25,0,0,0,.208-.389L15,17.252a3,3,0,0,1-.5-1.664V13.905l.213.213A3.006,3.006,0,0,0,16.835,15c.055,0,.109,0,.164,0a3,3,0,0,0,2.178-1.121l.6-.755a1,1,0,1,0-1.56-1.25l-.6.755a1.008,1.008,0,0,1-.726.375.948.948,0,0,1-.763-.292l-.334-.334a2.982,2.982,0,0,0-2.121-.879H10.285Z"/></svg>