<svg id="Light" xmlns="http://www.w3.org/2000/svg" viewBox="0 0 24 24"><defs><style>.cls-1{fill:none;stroke:#000;stroke-linecap:round;stroke-linejoin:round;}</style></defs><title>family-walk-park</title><circle class="cls-1" cx="10" cy="3" r="2.5"/><circle class="cls-1" cx="20.5" cy="14.5" r="1.5"/><path class="cls-1" d="M14.733,12.646l-2-2.884a1.4,1.4,0,0,0-.111-.143,6.273,6.273,0,0,0-6.382-1.9c-2.252.614-3.846,2.94-4.427,4.974l-.255.891a1.5,1.5,0,0,0,1.029,1.855A1.526,1.526,0,0,0,3,15.5a1.5,1.5,0,0,0,1.441-1.087l.255-.892c.346-1.209,1.312-2.627,2.331-2.9a3.28,3.28,0,0,1,.36-.073l-.341,3.4L3.286,20.619a1.5,1.5,0,0,0,2.426,1.764L8.579,16.94l.8.965a.5.5,0,0,1,.115.319V21.5a1.5,1.5,0,0,0,3,0V18.224a3.5,3.5,0,0,0-.812-2.24l-1.634-1.96.249-2.489.02.018,1.944,2.8a1.5,1.5,0,0,0,2.468-1.71Z"/><path class="cls-1" d="M15.826,16C19,16,19.5,20,22.5,19.5"/><line class="cls-1" x1="18.708" y1="17.401" x2="16.5" y2="23.5"/><path class="cls-1" d="M17.639,20.353l1.257.594A2,2,0,0,1,20,22.736V23.5"/><path class="cls-1" d="M21.4,8.493a.84.84,0,0,0,.371-1.371L19.818,4.895c.7.776,1.718-.5.946-1.2L18.911,1.082a.5.5,0,0,0-.819,0L16.276,3.7c-.766.7.252,1.979.957,1.191L15.217,7.128A.836.836,0,0,0,15.633,8.5Z"/><line class="cls-1" x1="18.5" y1="8.5" x2="18.5" y2="11"/></svg>