<svg id="Light" xmlns="http://www.w3.org/2000/svg" viewBox="0 0 24 24"><defs><style>.cls-1{fill:none;stroke:#000;stroke-linecap:round;stroke-linejoin:round;}</style></defs><title>family-child-play-ball</title><circle class="cls-1" cx="15.5" cy="5.249" r="2.5"/><circle class="cls-1" cx="4.5" cy="13.749" r="1.5"/><path class="cls-1" d="M20.671,12.811l-1.7-2.123a2.485,2.485,0,0,0-1.952-.939H11.427l-.585-1.171A1.5,1.5,0,0,0,8.158,9.92l.723,1.445a2.486,2.486,0,0,0,2.237,1.385h1.46l-.375,1.5H10.176a2.484,2.484,0,0,0-2.32,1.571l-.749,1.871a1.5,1.5,0,1,0,2.785,1.115l.623-1.558h1.1a2.5,2.5,0,0,0,.519,1.323l1.69,2.113a1.5,1.5,0,0,0,2.341-1.873l-1.535-1.921.941-3.764a.5.5,0,0,1,.485-.379h.718l1.55,1.938a1.5,1.5,0,0,0,2.343-1.875Z"/></svg>