<svg id="Light" xmlns="http://www.w3.org/2000/svg" viewBox="0 0 24 24"><defs><style>.cls-1{fill:none;stroke:#000;stroke-linecap:round;stroke-linejoin:round;}</style></defs><title>family-child-hold-hand</title><circle class="cls-1" cx="18.5" cy="8.25" r="2.25"/><path class="cls-1" d="M8.264,7.545a1.765,1.765,0,1,0,3.4-.959L10.016.5"/><path class="cls-1" d="M3.5,22a1.5,1.5,0,0,0,3,0V14.5H9.36a.5.5,0,0,0,.485-.621L6.5.5"/><path class="cls-1" d="M3.5,22a1.5,1.5,0,0,1-3,0V14.5"/><line class="cls-1" x1="3.5" y1="14.5" x2="3.5" y2="22"/><path class="cls-1" d="M17.33,12.5a1,1,0,0,1-.688-.274l-2.5-2.289a1.25,1.25,0,1,0-1.858,1.672l3.463,3.864A1,1,0,0,1,16,16.14v6.111a1.25,1.25,0,1,0,2.5,0v0a1.25,1.25,0,0,0,2.5,0v-5a1.25,1.25,0,0,0,2.5,0V14.5a2,2,0,0,0-2-2Z"/><line class="cls-1" x1="18.5" y1="22" x2="18.5" y2="18"/></svg>