<svg xmlns="http://www.w3.org/2000/svg" viewBox="0 0 24 24"><defs><style>.a{fill:none;stroke:#000;stroke-linecap:round;stroke-linejoin:round;}</style></defs><title>family-mother</title><circle class="a" cx="20.5" cy="10.25" r="2.25"/><path class="a" d="M20.5,13.5a3,3,0,0,0-3,3V19H19l.5,4.5h2L22,19h1.5V16.5A3,3,0,0,0,20.5,13.5Z"/><path class="a" d="M15.718,6.123a.5.5,0,0,1-.722,0L12.922,3.96a1.441,1.441,0,0,1-.27-1.663h0a1.441,1.441,0,0,1,2.308-.375l.4.4.4-.4a1.44,1.44,0,0,1,2.307.375h0a1.441,1.441,0,0,1-.27,1.663Z"/><path class="a" d="M2.5,4V5.382A4.148,4.148,0,0,1,1.5,8"/><path class="a" d="M9.5,4V5.382A4.148,4.148,0,0,0,10.5,8"/><path class="a" d="M9.448,4.6A4.635,4.635,0,0,1,6,3,4.635,4.635,0,0,1,2.552,4.6"/><path class="a" d="M9.7,11.918a3.8,3.8,0,0,0-7.39,0L.5,18.5h3l1,5h3l1-5h3Z"/><circle class="a" cx="6" cy="4" r="3.5"/><polyline class="a" points="8.103 9.635 6 13 3.897 9.635"/></svg>