<svg id="Light" xmlns="http://www.w3.org/2000/svg" viewBox="0 0 24 24"><defs><style>.cls-1{fill:none;stroke:#000;stroke-linecap:round;stroke-linejoin:round;}</style></defs><title>famous-character-flapjack</title><polyline class="cls-1" points="8.5 23.5 8 22.5 9 21.5 15.5 21.5 16.5 22.5 16 23.5"/><path class="cls-1" d="M4.011,17.508,6.305,19.9a1,1,0,0,0,1.551-.571l.58-3.07"/><path class="cls-1" d="M19.989,17.508,17.7,19.9a1,1,0,0,1-1.551-.571l-.58-3.07"/><path class="cls-1" d="M9.5,7.25a.25.25,0,0,1,.25.25"/><path class="cls-1" d="M9.25,7.5a.25.25,0,0,1,.25-.25"/><path class="cls-1" d="M9.5,7.75a.25.25,0,0,1-.25-.25"/><path class="cls-1" d="M9.75,7.5a.25.25,0,0,1-.25.25"/><path class="cls-1" d="M14.5,7.25a.25.25,0,0,1,.25.25"/><path class="cls-1" d="M14.25,7.5a.25.25,0,0,1,.25-.25"/><path class="cls-1" d="M14.5,7.75a.25.25,0,0,1-.25-.25"/><path class="cls-1" d="M14.75,7.5a.25.25,0,0,1-.25.25"/><path class="cls-1" d="M13.768,10.768a2.5,2.5,0,0,1-3.536,0"/><path class="cls-1" d="M12,3.5a1.667,1.667,0,0,1,1.667,1.667A1.333,1.333,0,0,1,12.333,6.5a1.067,1.067,0,0,1-1.066-1.067"/><path class="cls-1" d="M23,23.5V20.394a1.976,1.976,0,0,0-.77-1.579C20.9,17.8,17.73,16,12,16S3.105,17.8,1.77,18.815A1.976,1.976,0,0,0,1,20.394V23.5"/><path class="cls-1" d="M18,6.5a6,6,0,0,0-12,0v2a6,6,0,0,0,12,0Z"/><path class="cls-1" d="M17.811,5H16.32a1,1,0,0,1-.981-.8l-.12-.6a.5.5,0,0,0-.606-.383A11.62,11.62,0,0,1,12,3.5a11.7,11.7,0,0,1-2.614-.288.5.5,0,0,0-.6.383l-.12.6a1,1,0,0,1-.98.8H6.189"/></svg>