<svg id="Light" xmlns="http://www.w3.org/2000/svg" viewBox="0 0 24 24"><defs><style>.cls-1{fill:none;stroke:#000;stroke-linecap:round;stroke-linejoin:round;}</style></defs><title>famous-character-black-lightning</title><path class="cls-1" d="M23,23.5V20.394a1.976,1.976,0,0,0-.77-1.579C20.9,17.8,17.73,16,12,16S3.105,17.8,1.77,18.815A1.976,1.976,0,0,0,1,20.394V23.5"/><path class="cls-1" d="M18,6.5a6,6,0,0,0-12,0v2a6,6,0,0,0,12,0Z"/><path class="cls-1" d="M10.027,14.168a2,2,0,0,1,3.946,0"/><path class="cls-1" d="M11,6.5a3.562,3.562,0,0,1-2,2,1,1,0,0,1,0-2Z"/><path class="cls-1" d="M13,6.5a3.562,3.562,0,0,0,2,2,1,1,0,0,0,0-2Z"/><path class="cls-1" d="M17.8,10.051l-2.772.692A3.919,3.919,0,0,0,12,9.5a3.919,3.919,0,0,0-3.026,1.243L6.2,10.051"/><polyline class="cls-1" points="20 8.5 20 6.5 21 6.5 21 4"/><polyline class="cls-1" points="4 8.5 4 6.5 3 6.5 3 4"/><path class="cls-1" d="M9.036,23.464a3,3,0,1,1,5.93-.01"/><polyline class="cls-1" points="13 19 11 22.5 13 22.5 12.406 23.49"/></svg>