<svg id="Light" xmlns="http://www.w3.org/2000/svg" viewBox="0 0 24 24"><defs><style>.cls-1{fill:none;stroke:#000;stroke-linecap:round;stroke-linejoin:round;}</style></defs><title>famous-character-megaman-1</title><path class="cls-1" d="M14.5,4.352a9,9,0,1,1-5,0"/><path class="cls-1" d="M3.925,16.979l-2.7-.772A1,1,0,0,1,.5,15.246V11.754a1,1,0,0,1,.725-.961l2.234-.638"/><path class="cls-1" d="M10.5,2h3a1,1,0,0,1,1,1V8a0,0,0,0,1,0,0h-5a0,0,0,0,1,0,0V3A1,1,0,0,1,10.5,2Z"/><path class="cls-1" d="M9.5,8h5a0,0,0,0,1,0,0v2a2,2,0,0,1-2,2h-1a2,2,0,0,1-2-2V8A0,0,0,0,1,9.5,8Z"/><path class="cls-1" d="M20.075,16.979l2.7-.772a1,1,0,0,0,.725-.961V11.754a1,1,0,0,0-.725-.961l-2.234-.638"/><path class="cls-1" d="M20.075,16.979l2.7-.772a1,1,0,0,0,.725-.961V11.754a1,1,0,0,0-.725-.961l-2.234-.638"/><path class="cls-1" d="M19.861,17.386C19.613,14.589,18.244,12.51,16,13a8.245,8.245,0,0,0-3.335,1.97.978.978,0,0,1-1.33,0A8.245,8.245,0,0,0,8,13c-2.244-.49-3.613,1.589-3.861,4.386"/><path class="cls-1" d="M8,16.25a.25.25,0,0,1,.25.25"/><path class="cls-1" d="M7.75,16.5A.25.25,0,0,1,8,16.25"/><path class="cls-1" d="M8,16.75a.25.25,0,0,1-.25-.25"/><path class="cls-1" d="M8.25,16.5a.25.25,0,0,1-.25.25"/><path class="cls-1" d="M16,16.25a.25.25,0,0,1,.25.25"/><path class="cls-1" d="M15.75,16.5a.25.25,0,0,1,.25-.25"/><path class="cls-1" d="M16,16.75a.25.25,0,0,1-.25-.25"/><path class="cls-1" d="M16.25,16.5a.25.25,0,0,1-.25.25"/></svg>