<svg id="Light" xmlns="http://www.w3.org/2000/svg" viewBox="0 0 24 24"><defs><style>.cls-1{fill:none;stroke:#000;stroke-linecap:round;stroke-linejoin:round;}</style></defs><title>famous-character-kermit-1</title><path class="cls-1" d="M12.518,18.681A10.02,10.02,0,0,1,10,19,9.26,9.26,0,0,1,.5,10c0-2.486,1.064-3.362,2.785-4.615"/><path class="cls-1" d="M16.715,5.385C18.436,6.638,19.5,7.514,19.5,10a8.571,8.571,0,0,1-.367,2.487"/><path class="cls-1" d="M15.978,10a.344.344,0,0,1,.344.357A6.2,6.2,0,0,1,10,16a6.2,6.2,0,0,1-6.322-5.643A.344.344,0,0,1,4.022,10Z"/><circle class="cls-1" cx="6.5" cy="4" r="3.5"/><circle class="cls-1" cx="13.5" cy="4" r="3.5"/><path class="cls-1" d="M5.5,2.25a.25.25,0,0,1,.25.25"/><path class="cls-1" d="M5.25,2.5a.25.25,0,0,1,.25-.25"/><path class="cls-1" d="M5.5,2.75a.25.25,0,0,1-.25-.25"/><path class="cls-1" d="M5.75,2.5a.25.25,0,0,1-.25.25"/><path class="cls-1" d="M15,4.75a.25.25,0,0,1,.25.25"/><path class="cls-1" d="M14.75,5A.25.25,0,0,1,15,4.75"/><path class="cls-1" d="M15,5.25A.25.25,0,0,1,14.75,5"/><path class="cls-1" d="M15.25,5a.25.25,0,0,1-.25.25"/><path class="cls-1" d="M21,18.25a.25.25,0,0,1,.25.25"/><path class="cls-1" d="M20.75,18.5a.25.25,0,0,1,.25-.25"/><path class="cls-1" d="M21,18.75a.25.25,0,0,1-.25-.25"/><path class="cls-1" d="M21.25,18.5a.25.25,0,0,1-.25.25"/><path class="cls-1" d="M18,20.75a.25.25,0,0,1,.25.25"/><path class="cls-1" d="M17.75,21a.25.25,0,0,1,.25-.25"/><path class="cls-1" d="M18,21.25a.25.25,0,0,1-.25-.25"/><path class="cls-1" d="M18.25,21a.25.25,0,0,1-.25.25"/><path class="cls-1" d="M23.5,19a4.5,4.5,0,0,1-5.031,4.47A4.544,4.544,0,0,1,14.5,18.932v-.039a.335.335,0,0,1,.5-.3A3,3,0,0,0,19.329,15a.339.339,0,0,1,.377-.448A4.494,4.494,0,0,1,23.5,19Z"/></svg>