<svg id="Light" xmlns="http://www.w3.org/2000/svg" viewBox="0 0 24 24"><defs><style>.cls-1{fill:none;stroke:#000;stroke-linecap:round;stroke-linejoin:round;}</style></defs><title>famous-character-star</title><circle class="cls-1" cx="12" cy="12" r="11.5"/><circle class="cls-1" cx="12" cy="12" r="8.5"/><path class="cls-1" d="M12.589,6.859,13.871,9.5h2.495a.612.612,0,0,1,.431,1.069l-2.166,2.263,1.2,2.761a.654.654,0,0,1-.931.819L12,14.778,9.1,16.412a.654.654,0,0,1-.931-.819l1.2-2.761L7.2,10.569A.612.612,0,0,1,7.632,9.5h2.5l1.285-2.641A.662.662,0,0,1,12.589,6.859Z"/></svg>