<svg xmlns="http://www.w3.org/2000/svg" viewBox="0 0 24 24"><defs><style>.a{fill:none;stroke:#000;stroke-linecap:round;stroke-linejoin:round;}</style></defs><title>famous-people-man-charlie-chaplin</title><path class="a" d="M13.5,8.25a.25.25,0,1,1-.25.25.25.25,0,0,1,.25-.25"/><path class="a" d="M9.5,8.25a.25.25,0,1,1-.25.25.25.25,0,0,1,.25-.25"/><path class="a" d="M17.5,6.5a6,6,0,0,0-12,0v2a6,6,0,0,0,12,0Z"/><path class="a" d="M12.86,12.5H10.14a.5.5,0,0,1-.485-.621l.156-.622a1,1,0,0,1,.97-.757h1.438a1,1,0,0,1,.97.757l.156.622A.5.5,0,0,1,12.86,12.5Z"/><path class="a" d="M3.5,5.751l.06.011a43.081,43.081,0,0,0,15.88,0l.06-.011"/><path class="a" d="M20.91,18.255A17.724,17.724,0,0,0,11.5,16c-5.73,0-8.895,1.8-10.23,2.815A1.976,1.976,0,0,0,.5,20.394V23.5"/><path class="a" d="M6.676,16.486,4.227,20.159a.5.5,0,0,0,.063.631L7,23.5"/><polyline class="a" points="16.194 16.458 11.5 23.5 6.806 16.458"/><polyline class="a" points="13.545 20.432 11.5 16 9.455 20.432"/><path class="a" d="M16.324,16.486l2.449,3.673a.5.5,0,0,1-.063.631L16,23.5"/><path class="a" d="M19,14.5v-.75a2.25,2.25,0,0,1,4.5,0V23.5"/></svg>