<svg id="Light" xmlns="http://www.w3.org/2000/svg" viewBox="0 0 24 24"><defs><style>.cls-1{fill:none;stroke:#000;stroke-linecap:round;stroke-linejoin:round;}</style></defs><title>famous-character-uzumaki-naruto</title><path class="cls-1" d="M23,23.475V22.369a1.98,1.98,0,0,0-.77-1.58C20.9,19.77,17.73,17.975,12,17.975S3.105,19.77,1.77,20.789A1.98,1.98,0,0,0,1,22.369v1.106"/><path class="cls-1" d="M6,8.475v2a6,6,0,0,0,12,0v-2"/><path class="cls-1" d="M8.452,10.406a4.129,4.129,0,0,1,2.005.6"/><path class="cls-1" d="M15.452,10.406a4.144,4.144,0,0,0-1.952.569"/><line class="cls-1" x1="6.414" y1="12.67" x2="8.5" y2="11.975"/><line class="cls-1" x1="7.517" y1="14.463" x2="9" y2="13.475"/><line class="cls-1" x1="17.586" y1="12.67" x2="15.5" y2="11.975"/><line class="cls-1" x1="16.483" y1="14.463" x2="15" y2="13.475"/><rect class="cls-1" x="6" y="5.475" width="12" height="3"/><rect class="cls-1" x="10" y="5.475" width="4" height="3"/><path class="cls-1" d="M18,5.475l1.982-1.19a.25.25,0,0,0-.068-.457L18.5,3.475l.408-1.63a.251.251,0,0,0-.284-.308L16,1.975,15.591.748A.25.25,0,0,0,15.242.6L13.5,1.475,12.139.567a.251.251,0,0,0-.278,0L10.5,1.475,8.758.6a.25.25,0,0,0-.349.144L8,1.975,5.376,1.537a.251.251,0,0,0-.284.308L5.5,3.475l-1.414.353a.25.25,0,0,0-.068.457L6,5.475"/><path class="cls-1" d="M18.8,19.012A7.8,7.8,0,0,1,12,22.475a7.8,7.8,0,0,1-6.8-3.463"/><line class="cls-1" x1="10" y1="23.475" x2="10" y2="18.052"/><line class="cls-1" x1="14" y1="18.052" x2="14" y2="23.475"/><line class="cls-1" x1="12" y1="17.975" x2="12" y2="23.475"/><line class="cls-1" x1="2.085" y1="20.56" x2="5" y2="23.475"/><line class="cls-1" x1="21.915" y1="20.56" x2="19" y2="23.475"/></svg>