<svg id="Light" xmlns="http://www.w3.org/2000/svg" viewBox="0 0 24 24"><defs><style>.cls-1{fill:none;stroke:#000;stroke-linecap:round;stroke-linejoin:round;}</style></defs><title>famous-character-cat</title><ellipse class="cls-1" cx="14.971" cy="11.298" rx="2.971" ry="3.961"/><ellipse class="cls-1" cx="9.029" cy="11.298" rx="2.971" ry="3.961"/><ellipse class="cls-1" cx="12" cy="17.239" rx="1.485" ry="0.99"/><path class="cls-1" d="M16.606,18.414a6.933,6.933,0,0,1-9.269.038"/><line class="cls-1" x1="9.029" y1="10.803" x2="9.029" y2="13.278"/><line class="cls-1" x1="14.971" y1="10.803" x2="14.971" y2="13.278"/><path class="cls-1" d="M8.039,17.19a1.485,1.485,0,0,1-1.485,1.485"/><path class="cls-1" d="M17.446,18.675a1.485,1.485,0,0,1-1.485-1.485"/><path class="cls-1" d="M17.012,14.176a2.512,2.512,0,0,1,3.9,2.073c0,.373-2.317,6.932-8.912,6.932s-8.912-6.516-8.912-6.932a2.512,2.512,0,0,1,3.9-2.073"/><path class="cls-1" d="M20.912,16.249a11.67,11.67,0,0,1,2.27-1.326.491.491,0,0,0,.182-.8,2.3,2.3,0,0,0-1.462-.846,9,9,0,0,1,.611-1.022.49.49,0,0,0-.167-.722,12.408,12.408,0,0,1-2.028-1.329,5.482,5.482,0,0,1-1.927-2.6l-.377-6.033a.5.5,0,0,0-.86-.3L13.441,5.357a7.991,7.991,0,0,0-2.882,0L6.846,1.272a.5.5,0,0,0-.86.3L5.609,7.607a5.482,5.482,0,0,1-1.927,2.6,12.408,12.408,0,0,1-2.028,1.329.49.49,0,0,0-.167.722A9,9,0,0,1,2.1,13.278a2.3,2.3,0,0,0-1.462.846.491.491,0,0,0,.182.8,11.67,11.67,0,0,1,2.27,1.326"/></svg>