<svg xmlns="http://www.w3.org/2000/svg" viewBox="0 0 24 24"><defs><style>.a{fill:none;stroke:#000;stroke-linecap:round;stroke-linejoin:round;}</style></defs><title>famous-people-man-steve-jobs</title><path class="a" d="M23,23.5V22.394a1.98,1.98,0,0,0-.77-1.58A14.775,14.775,0,0,0,15,18.178"/><path class="a" d="M9,18.178a14.775,14.775,0,0,0-7.23,2.636A1.98,1.98,0,0,0,1,22.394V23.5"/><line class="a" x1="9" y1="15.873" x2="9" y2="18.178"/><line class="a" x1="15" y1="18.178" x2="15" y2="15.873"/><path class="a" d="M18,8.5v-2a6,6,0,0,0-12,0v2"/><path class="a" d="M18,8.5l.3,3a4,4,0,0,1-2.314,3.917l-2.313,1.067a4,4,0,0,1-3.352,0L8.011,15.417A4,4,0,0,1,5.7,11.5l.3-3L8.135,12a2,2,0,0,0,2.233.7c1.132-1.2,2.132-1.2,3.264,0a2,2,0,0,0,2.233-.7Z"/><path class="a" d="M13,14a1.668,1.668,0,0,1-2,0"/><circle class="a" cx="14.75" cy="7.5" r="1.75"/><circle class="a" cx="9.25" cy="7.5" r="1.75"/><line class="a" x1="11" y1="7.5" x2="13" y2="7.5"/><path class="a" d="M12,3.5c1.158,0,1.981-1.341,2.468-2.47a6.011,6.011,0,0,0-4.936,0C10.019,2.159,10.842,3.5,12,3.5Z"/><line class="a" x1="16.5" y1="7.5" x2="19" y2="7.5"/><line class="a" x1="5" y1="7.5" x2="7.5" y2="7.5"/></svg>