<svg id="Light" xmlns="http://www.w3.org/2000/svg" viewBox="0 0 24 24"><defs><style>.cls-1{fill:none;stroke:#000;stroke-linecap:round;stroke-linejoin:round;}</style></defs><title>farming-barn-1</title><line class="cls-1" x1="0.5" y1="23.477" x2="23.5" y2="23.477"/><path class="cls-1" d="M17.5,23.477v-8a1,1,0,0,0-1-1h-9a1,1,0,0,0-1,1v8"/><line class="cls-1" x1="6.861" y1="14.773" x2="17.5" y2="23.477"/><line class="cls-1" x1="17.177" y1="14.741" x2="6.5" y2="23.477"/><path class="cls-1" d="M11,5.9h2a.5.5,0,0,1,.5.5V9.9a0,0,0,0,1,0,0h-3a0,0,0,0,1,0,0V6.4A.5.5,0,0,1,11,5.9Z"/><path class="cls-1" d="M21.5,23.477v-13H23a.274.274,0,0,0,.263-.44L20.082,4.118a.492.492,0,0,0-.231-.206L12.2.565a.5.5,0,0,0-.4,0L4.149,3.912a.492.492,0,0,0-.231.206L.737,10.037a.274.274,0,0,0,.263.44H2.5v13"/></svg>