<svg id="Light" xmlns="http://www.w3.org/2000/svg" viewBox="0 0 24 24"><defs><style>.cls-1{fill:none;stroke:#000;stroke-linecap:round;stroke-linejoin:round;}</style></defs><title>farming-milk-cow</title><path class="cls-1" d="M5,23.5l-.761-3.8a1,1,0,0,1,.981-1.2H18.78a1,1,0,0,1,.981,1.2L19,23.5"/><path class="cls-1" d="M2.505,3.886A4.383,4.383,0,0,1,.5.5"/><path class="cls-1" d="M18.5,5.451A19.52,19.52,0,0,1,12,6.5,19.532,19.532,0,0,1,5.5,5.45"/><path class="cls-1" d="M23.5.5a4.378,4.378,0,0,1-2,3.382"/><path class="cls-1" d="M7.5,6.02V8a1.5,1.5,0,0,0,3,0V6.451"/><path class="cls-1" d="M2.5,2V9a1.5,1.5,0,0,0,3,0V3"/><path class="cls-1" d="M16.5,6.02V8a1.5,1.5,0,0,1-3,0V6.451"/><path class="cls-1" d="M21.5,2V9a1.5,1.5,0,0,1-3,0V3"/><line class="cls-1" x1="8.5" y1="11.5" x2="8.5" y2="13"/><line class="cls-1" x1="8.5" y1="15" x2="8.5" y2="16.5"/><line class="cls-1" x1="15.5" y1="11" x2="15.5" y2="12.5"/><line class="cls-1" x1="15.5" y1="14.5" x2="15.5" y2="16"/></svg>