<svg id="Light" xmlns="http://www.w3.org/2000/svg" viewBox="0 0 24 24"><defs><style>.cls-1{fill:none;stroke:#000;stroke-linecap:round;stroke-linejoin:round;}</style></defs><title>farming-barn-silo</title><line class="cls-1" x1="0.5" y1="23" x2="22.5" y2="23"/><polyline class="cls-1" points="19.5 23 19.5 17 12.5 17 12.5 23"/><path class="cls-1" d="M8.5,16.5,15.375,11a1,1,0,0,1,1.25,0L23.5,16.5"/><line class="cls-1" x1="12.5" y1="17" x2="19.5" y2="23"/><line class="cls-1" x1="19.5" y1="17" x2="12.5" y2="23"/><line class="cls-1" x1="21.5" y1="14.9" x2="21.5" y2="23"/><line class="cls-1" x1="10.5" y1="14.9" x2="10.5" y2="23"/><line class="cls-1" x1="0.523" y1="6" x2="11.477" y2="6"/><line class="cls-1" x1="0.5" y1="10" x2="11.5" y2="10"/><path class="cls-1" d="M11.5,11.5v-5a5.5,5.5,0,0,0-11,0V23"/></svg>