<svg id="Light" xmlns="http://www.w3.org/2000/svg" viewBox="0 0 24 24"><defs><style>.cls-1{fill:none;stroke:#000;stroke-linecap:round;stroke-linejoin:round;}</style></defs><title>farmer&amp;apos;s-market-vendor</title><path class="cls-1" d="M.5,23.5V5.152a1,1,0,0,1,.671-.944L11.671.556a1,1,0,0,1,.658,0l10.5,3.652a1,1,0,0,1,.671.944V23.5"/><rect class="cls-1" x="2.5" y="17.5" width="19" height="6" rx="1" ry="1"/><circle class="cls-1" cx="17.5" cy="11.001" r="2"/><path class="cls-1" d="M20.5,17.5V17a3,3,0,0,0-6,0v.5"/><path class="cls-1" d="M11.857,17.5l-.65-2.275a1,1,0,0,0-.961-.725H5.754a1,1,0,0,0-.961.725L4.143,17.5"/><line class="cls-1" x1="6.5" y1="14.5" x2="6.5" y2="12.5"/><path class="cls-1" d="M7.5,10.5a1,1,0,0,1,0,2h-2a1,1,0,0,1,0-2Z"/></svg>