<svg id="Light" xmlns="http://www.w3.org/2000/svg" viewBox="0 0 24 24"><defs><style>.cls-1{fill:none;stroke:#000;stroke-linecap:round;stroke-linejoin:round;}</style></defs><title>farming-sell-vegetable</title><path class="cls-1" d="M15.5,4.5h1a3,3,0,0,1,3,3v4"/><path class="cls-1" d="M5.5,13.5v3a3,3,0,0,0,3,3h3"/><polyline class="cls-1" points="17 9 19.5 11.5 22 9"/><polyline class="cls-1" points="8 16 5.5 13.5 3 16"/><circle class="cls-1" cx="18.5" cy="18.5" r="5"/><line class="cls-1" x1="18.5" y1="20.5" x2="18.5" y2="21.5"/><line class="cls-1" x1="18.5" y1="15.5" x2="18.5" y2="16.5"/><path class="cls-1" d="M16.5,20.5h3a1,1,0,0,0,0-2h-2a1,1,0,0,1,0-2h3"/><path class="cls-1" d="M10.668,7.605,1.859,13.447a.857.857,0,0,1-1.041-.219A.858.858,0,0,1,.6,12.187L6.441,3.378a.824.824,0,0,1,1.177-.06,12.581,12.581,0,0,1,3.107,3.107A.826.826,0,0,1,10.668,7.605Z"/><line class="cls-1" x1="10.355" y1="5.923" x2="13.545" y2="4.743"/><line class="cls-1" x1="8.122" y1="3.691" x2="9.303" y2="0.5"/><line class="cls-1" x1="9.309" y1="4.736" x2="12.131" y2="1.914"/><line class="cls-1" x1="5.628" y1="4.603" x2="7.536" y2="6.511"/><line class="cls-1" x1="5.414" y1="8.632" x2="6.874" y2="10.092"/></svg>