<svg id="Light" xmlns="http://www.w3.org/2000/svg" viewBox="0 0 24 24"><defs><style>.cls-1{fill:none;stroke:#000;stroke-linecap:round;stroke-linejoin:round;}</style></defs><title>farming-farmer</title><path class="cls-1" d="M9.5,23.5a1,1,0,0,0,1-1v-6h1a1,1,0,0,0,1-1v-5a2,2,0,0,0-2-2h-4a2,2,0,0,0-2,2v5a1,1,0,0,0,1,1h1v6a1,1,0,0,0,1,1Z"/><path class="cls-1" d="M10.232,3.5a2,2,0,1,1-3.465,0"/><line class="cls-1" x1="4.5" y1="3.5" x2="12.5" y2="3.5"/><path class="cls-1" d="M6,3.5l.793-2.275A1,1,0,0,1,7.754.5H9.245a1,1,0,0,1,.962.725L11,3.5"/><path class="cls-1" d="M15.5,6.5v3a1,1,0,0,0,1,1h2a1,1,0,0,0,1-1v-3"/><line class="cls-1" x1="17.5" y1="6.5" x2="17.5" y2="23.5"/><path class="cls-1" d="M7,8.5h3a0,0,0,0,1,0,0V11a.5.5,0,0,1-.5.5h-2A.5.5,0,0,1,7,11V8.5A0,0,0,0,1,7,8.5Z"/><line class="cls-1" x1="7.5" y1="13.5" x2="9.5" y2="13.5"/></svg>