<svg id="Light" xmlns="http://www.w3.org/2000/svg" viewBox="0 0 24 24"><defs><style>.cls-1{fill:none;stroke:#000;stroke-linecap:round;stroke-linejoin:round;}</style></defs><title>farming-barn</title><line class="cls-1" x1="0.5" y1="23.439" x2="23.5" y2="23.439"/><line class="cls-1" x1="21.5" y1="23.439" x2="21.5" y2="10.939"/><line class="cls-1" x1="2.5" y1="10.939" x2="2.5" y2="23.439"/><path class="cls-1" d="M23.5,9.191a.5.5,0,0,0-.2-.4L12.3.659a.5.5,0,0,0-.594,0L.7,8.789a.5.5,0,0,0-.2.4v2.258a.5.5,0,0,0,.8.4L11.733,4.158a.5.5,0,0,1,.594,0L22.7,11.848a.5.5,0,0,0,.8-.4Z"/><polyline class="cls-1" points="17.5 23.439 17.5 13.439 6.5 13.439 6.5 23.439"/><line class="cls-1" x1="6.5" y1="13.439" x2="17.5" y2="23.439"/><line class="cls-1" x1="17.5" y1="13.439" x2="6.5" y2="23.439"/><circle class="cls-1" cx="12" cy="8.939" r="2"/></svg>