<svg id="Light" xmlns="http://www.w3.org/2000/svg" viewBox="0 0 24 24"><defs><style>.cls-1{fill:none;stroke:#000;stroke-linecap:round;stroke-linejoin:round;}</style></defs><title>fast-food-burger-drink</title><path class="cls-1" d="M18,14.25a.25.25,0,1,1-.25.25.25.25,0,0,1,.25-.25"/><path class="cls-1" d="M13,14.25a.25.25,0,1,1-.25.25.25.25,0,0,1,.25-.25"/><path class="cls-1" d="M15.5,15.25a.25.25,0,1,1-.25.25.25.25,0,0,1,.25-.25"/><path class="cls-1" d="M12.191,10.5l.3-2.438A.5.5,0,0,0,12,7.5H1a.5.5,0,0,0-.5.562l1.875,15a.5.5,0,0,0,.5.438H7"/><path class="cls-1" d="M22.5,17.5H8.5v-1a4,4,0,0,1,4-4h6a4,4,0,0,1,4,4Z"/><path class="cls-1" d="M23.5,19A1.5,1.5,0,0,1,22,20.5H9A1.5,1.5,0,0,1,7.5,19h0A1.5,1.5,0,0,1,9,17.5H22A1.5,1.5,0,0,1,23.5,19Z"/><path class="cls-1" d="M22.5,21.5a2,2,0,0,1-2,2h-10a2,2,0,0,1-2-2v-1h14Z"/><path class="cls-1" d="M5,19,6.883,1.393A1,1,0,0,1,8.066.518l4.434.849"/></svg>