<svg xmlns="http://www.w3.org/2000/svg" viewBox="0 0 24 24"><defs><style>.a{fill:none;stroke:#000;stroke-linecap:round;stroke-linejoin:round;}</style></defs><title>feed-dailybooth</title><path class="a" d="M12,23.5a11.5,11.5,0,1,1,9.6-5.168h0l1.681,4.054-4.036-1.457A11.455,11.455,0,0,1,12,23.5ZM5.637,9.007a1.088,1.088,0,0,0-.729,1.35l1.567,6.669a1.089,1.089,0,0,0,1.253.884l10.749-2.526a1.086,1.086,0,0,0,.728-1.349L17.639,7.367a1.086,1.086,0,0,0-1.253-.885l-2.321.546A4.075,4.075,0,0,0,8.032,8.445l-2.4.562Zm6.6,5.975a2.9,2.9,0,1,1,2.9-2.9,2.9,2.9,0,0,1-2.9,2.9Z"/></svg>