<svg xmlns="http://www.w3.org/2000/svg" viewBox="0 0 24 24"><defs><style>.a{fill:none;stroke:#000;stroke-linecap:round;stroke-linejoin:round;}</style></defs><title>feed-sina-weibo</title><path class="a" d="M9.7,12.8a.542.542,0,0,0-.53.367h0c-.169.6.767.672.916.127A.393.393,0,0,0,9.7,12.8M8.349,15.181a1.026,1.026,0,0,0-1.093-1.254,1.441,1.441,0,0,0-1.362,1.032,1.008,1.008,0,0,0,1.093,1.256,1.4,1.4,0,0,0,1.362-1.034Zm10.759-3.952a4.637,4.637,0,0,0-1.209-.6c-.437-.165-.507-.241-.325-.675a3.842,3.842,0,0,0,.274-.947c.265-1.645-1.057-2.191-2.586-2.119a8.179,8.179,0,0,0-1.963.367c-.409.113-1.178.507-1.334.245-.087-.133.031-.331.073-.458.272-.89.412-2.135-.45-2.719a3.209,3.209,0,0,0-2.439-.148C5.429,5.288-.37,10.367.61,14.614a4.895,4.895,0,0,0,1.221,2.235,10.953,10.953,0,0,0,5.977,2.91,15.331,15.331,0,0,0,4.852.089,10.773,10.773,0,0,0,6.862-3.492C20.657,15,21.08,13.031,19.7,11.71a4.754,4.754,0,0,0-.588-.481Z"/><path class="a" d="M15.215,1.693A6.508,6.508,0,0,1,23.373,9.23"/><path class="a" d="M16.535,4.675a3,3,0,0,1,3.716,3.916"/><path class="a" d="M14.842,12.2a9.487,9.487,0,0,0-7.763-.935,7.258,7.258,0,0,0-3.385,2.025A3.276,3.276,0,0,0,3.212,17.3C4.512,19.4,7.7,19.9,11.283,19.77a6.9,6.9,0,0,0,4.938-3.162,3.417,3.417,0,0,0-1.379-4.41Z"/></svg>