<svg xmlns="http://www.w3.org/2000/svg" viewBox="0 0 24 24"><defs><style>.a{fill:none;stroke:#000;stroke-linecap:round;stroke-linejoin:round;}</style></defs><title>file-pps-1</title><rect class="a" x="0.5" y="0.499" width="23" height="23" rx="1" ry="1"/><path class="a" d="M8,13.5a2,2,0,0,1-2,2H4v-4H6A2,2,0,0,1,8,13.5Z"/><line class="a" x1="4" y1="19.499" x2="4" y2="15.499"/><path class="a" d="M14,13.5a2,2,0,0,1-2,2H10v-4h2A2,2,0,0,1,14,13.5Z"/><line class="a" x1="10" y1="19.499" x2="10" y2="15.499"/><path class="a" d="M20,11.5H17.854a1.854,1.854,0,0,0-.829,3.512l1.95.975a1.854,1.854,0,0,1-.829,3.513H16"/></svg>