<svg xmlns="http://www.w3.org/2000/svg" viewBox="0 0 24 24"><defs><style>.a{fill:none;stroke:#000;stroke-linecap:round;stroke-linejoin:round;}</style></defs><title>file-rar-1</title><rect class="a" x="0.5" y="0.499" width="23" height="23" rx="1" ry="1"/><path class="a" d="M8.5,13.5a2,2,0,0,1-2,2h-2v-4h2A2,2,0,0,1,8.5,13.5Z"/><line class="a" x1="4.5" y1="19.499" x2="4.5" y2="15.499"/><line class="a" x1="8.5" y1="19.499" x2="4.5" y2="15.499"/><path class="a" d="M20.5,13.5a2,2,0,0,1-2,2h-2v-4h2A2,2,0,0,1,20.5,13.5Z"/><line class="a" x1="16.5" y1="19.499" x2="16.5" y2="15.499"/><line class="a" x1="20.5" y1="19.499" x2="16.5" y2="15.499"/><path class="a" d="M10.5,19.5v-6a2,2,0,0,1,4,0v6"/><line class="a" x1="10.5" y1="15.499" x2="14.5" y2="15.499"/></svg>