<svg id="Light" xmlns="http://www.w3.org/2000/svg" viewBox="0 0 24 24"><defs><style>.cls-1{fill:none;stroke:#000;stroke-linecap:round;stroke-linejoin:round;}</style></defs><title>fireworks-people-watch</title><circle class="cls-1" cx="5" cy="16.75" r="2.25"/><path class="cls-1" d="M9.5,23.5a4.644,4.644,0,0,0-9,0"/><circle class="cls-1" cx="19" cy="16.75" r="2.25"/><path class="cls-1" d="M14.5,23.5a4.644,4.644,0,0,1,9,0"/><circle class="cls-1" cx="12" cy="15.75" r="2.25"/><path class="cls-1" d="M15.915,21.193a4.6,4.6,0,0,0-7.83,0"/><line class="cls-1" x1="7.5" y1="0.5" x2="6" y2="2"/><line class="cls-1" x1="6" y1="0.5" x2="7.5" y2="2"/><line class="cls-1" x1="17.5" y1="1.5" x2="16" y2="3"/><line class="cls-1" x1="16" y1="1.5" x2="17.5" y2="3"/><line class="cls-1" x1="22.5" y1="5.5" x2="21" y2="7"/><line class="cls-1" x1="21" y1="5.5" x2="22.5" y2="7"/><line class="cls-1" x1="3" y1="4" x2="1.5" y2="5.5"/><line class="cls-1" x1="1.5" y1="4" x2="3" y2="5.5"/><path class="cls-1" d="M15.34,11.028a8.822,8.822,0,0,1,4.246-4.614"/><path class="cls-1" d="M9,2l.394.2A7.531,7.531,0,0,1,13.5,8h0"/><path class="cls-1" d="M5,5H5a9.066,9.066,0,0,1,6.743,5.792L12,11.5"/></svg>