<svg id="Light" xmlns="http://www.w3.org/2000/svg" viewBox="0 0 24 24"><defs><style>.cls-1{fill:none;stroke:#000;stroke-linecap:round;stroke-linejoin:round;}</style></defs><title>fireplace</title><path class="cls-1" d="M12.306,9.761a.5.5,0,0,0-.7.645,4.061,4.061,0,0,1-.1,3.624,2.889,2.889,0,0,1-.858-1,.5.5,0,0,0-.7-.231,3.547,3.547,0,0,0-1.924,3.215,3.978,3.978,0,1,0,7.955,0A7.334,7.334,0,0,0,12.306,9.761Z"/><path class="cls-1" d="M1.14,2.5a.5.5,0,0,0-.485.621l.75,3A.5.5,0,0,0,1.89,6.5H2.5v15h3V6.5h13v15h3V6.5h.61a.5.5,0,0,0,.485-.379l.75-3A.5.5,0,0,0,22.86,2.5Z"/><line class="cls-1" x1="5.5" y1="21.5" x2="18.5" y2="21.5"/><line class="cls-1" x1="2.5" y1="6.5" x2="6.001" y2="6.5"/><line class="cls-1" x1="2.5" y1="9.5" x2="5.5" y2="9.5"/><line class="cls-1" x1="2.5" y1="12.5" x2="5.5" y2="12.5"/><line class="cls-1" x1="2.5" y1="15.5" x2="5.5" y2="15.5"/><line class="cls-1" x1="2.5" y1="18.5" x2="5.5" y2="18.5"/><line class="cls-1" x1="18.5" y1="9.5" x2="21.5" y2="9.5"/><line class="cls-1" x1="18.5" y1="12.5" x2="21.5" y2="12.5"/><line class="cls-1" x1="18.5" y1="15.5" x2="21.5" y2="15.5"/><line class="cls-1" x1="18.5" y1="18.5" x2="21.5" y2="18.5"/><line class="cls-1" x1="18.5" y1="6.5" x2="21.5" y2="6.5"/></svg>