<svg id="Light" xmlns="http://www.w3.org/2000/svg" viewBox="0 0 24 24"><defs><style>.cls-1{fill:none;stroke:#000;stroke-linecap:round;stroke-linejoin:round;}</style></defs><title>fireworks-stick</title><line class="cls-1" x1="5.5" y1="0.5" x2="5.5" y2="2.5"/><line class="cls-1" x1="6.5" y1="1.5" x2="4.5" y2="1.5"/><line class="cls-1" x1="3.5" y1="11.5" x2="3.5" y2="13.5"/><line class="cls-1" x1="4.5" y1="12.5" x2="2.5" y2="12.5"/><line class="cls-1" x1="22.5" y1="13.5" x2="22.5" y2="15.5"/><line class="cls-1" x1="23.5" y1="14.5" x2="21.5" y2="14.5"/><line class="cls-1" x1="16.5" y1="20.5" x2="16.5" y2="22.5"/><line class="cls-1" x1="17.5" y1="21.5" x2="15.5" y2="21.5"/><path class="cls-1" d="M2.5,4.25a.25.25,0,0,1,.25.25"/><path class="cls-1" d="M2.25,4.5a.25.25,0,0,1,.25-.25"/><path class="cls-1" d="M2.5,4.75a.25.25,0,0,1-.25-.25"/><path class="cls-1" d="M2.75,4.5a.25.25,0,0,1-.25.25"/><path class="cls-1" d="M21.5,6.25a.25.25,0,0,1,.25.25"/><path class="cls-1" d="M21.25,6.5a.25.25,0,0,1,.25-.25"/><path class="cls-1" d="M21.5,6.75a.25.25,0,0,1-.25-.25"/><path class="cls-1" d="M21.75,6.5a.25.25,0,0,1-.25.25"/><path class="cls-1" d="M11.5,18.25a.25.25,0,0,1,.25.25"/><path class="cls-1" d="M11.25,18.5a.25.25,0,0,1,.25-.25"/><path class="cls-1" d="M11.5,18.75a.25.25,0,0,1-.25-.25"/><path class="cls-1" d="M11.75,18.5a.25.25,0,0,1-.25.25"/><line class="cls-1" x1="0.5" y1="23.5" x2="5.722" y2="18.278"/><path class="cls-1" d="M7.136,18.278a1,1,0,0,1-1.414-1.414L12.086,10.5A1,1,0,0,1,13.5,11.914Z"/><path class="cls-1" d="M5.5,5a6.459,6.459,0,0,1,5,3"/><path class="cls-1" d="M13,3a8.469,8.469,0,0,1,0,4"/><path class="cls-1" d="M15.5,8A10.564,10.564,0,0,1,21,3.5"/><path class="cls-1" d="M16,10.5s2.5-.5,4,1"/><path class="cls-1" d="M15.5,13A6.715,6.715,0,0,1,19,17"/><line class="cls-1" x1="14.5" y1="15" x2="14.5" y2="17.5"/><path class="cls-1" d="M7,11a6.067,6.067,0,0,1,2.5-.5"/></svg>