<svg id="Light" xmlns="http://www.w3.org/2000/svg" viewBox="0 0 24 24"><defs><style>.cls-1{fill:none;stroke:#000;stroke-linecap:round;stroke-linejoin:round;}</style></defs><title>fireworks</title><path class="cls-1" d="M11.5,3s.5,7.5.5,10.5"/><path class="cls-1" d="M12,13.5s1.5-5,6-6.5"/><path class="cls-1" d="M2,13.5a14.355,14.355,0,0,1,10,0,11.339,11.339,0,0,0-7-6"/><path class="cls-1" d="M6,18.5s2-5,6-5c0,0,4.53-2.341,8.722-.424"/><path class="cls-1" d="M11,16a7.694,7.694,0,0,0-1,4"/><path class="cls-1" d="M12,13.5a16.875,16.875,0,0,1,5.5,5"/><line class="cls-1" x1="7.5" y1="1.5" x2="7.5" y2="3.5"/><line class="cls-1" x1="8.5" y1="2.5" x2="6.5" y2="2.5"/><line class="cls-1" x1="1.5" y1="7.5" x2="1.5" y2="9.5"/><line class="cls-1" x1="2.5" y1="8.5" x2="0.5" y2="8.5"/><line class="cls-1" x1="14.5" y1="20.5" x2="14.5" y2="22.5"/><line class="cls-1" x1="15.5" y1="21.5" x2="13.5" y2="21.5"/><line class="cls-1" x1="22.5" y1="5.5" x2="22.5" y2="7.5"/><line class="cls-1" x1="23.5" y1="6.5" x2="21.5" y2="6.5"/><line class="cls-1" x1="3.5" y1="19.5" x2="3.5" y2="21.5"/><line class="cls-1" x1="4.5" y1="20.5" x2="2.5" y2="20.5"/><path class="cls-1" d="M15.5,2.25a.25.25,0,0,1,.25.25"/><path class="cls-1" d="M15.25,2.5a.25.25,0,0,1,.25-.25"/><path class="cls-1" d="M15.5,2.75a.25.25,0,0,1-.25-.25"/><path class="cls-1" d="M15.75,2.5a.25.25,0,0,1-.25.25"/><path class="cls-1" d="M2.5,2.75A.25.25,0,0,1,2.75,3"/><path class="cls-1" d="M2.25,3a.25.25,0,0,1,.25-.25"/><path class="cls-1" d="M2.5,3.25A.25.25,0,0,1,2.25,3"/><path class="cls-1" d="M2.75,3a.25.25,0,0,1-.25.25"/><path class="cls-1" d="M20,15.75a.25.25,0,0,1,.25.25"/><path class="cls-1" d="M19.75,16a.25.25,0,0,1,.25-.25"/><path class="cls-1" d="M20,16.25a.25.25,0,0,1-.25-.25"/><path class="cls-1" d="M20.25,16a.25.25,0,0,1-.25.25"/></svg>