<svg id="Light" xmlns="http://www.w3.org/2000/svg" viewBox="0 0 24 24"><defs><style>.cls-1{fill:none;stroke:#000;stroke-linecap:round;stroke-linejoin:round;}</style></defs><title>fishing-catch</title><line class="cls-1" x1="3.5" y1="6.5" x2="16.5" y2="6.5"/><line class="cls-1" x1="3.5" y1="3.5" x2="20.5" y2="3.5"/><line class="cls-1" x1="3.5" y1="0.5" x2="20.5" y2="0.5"/><path class="cls-1" d="M1.283,15.845,4.3,17.551c.314-.241.688-.5,1.087-.769l-.263-1.841a.523.523,0,0,1,.858-.471l1.365,1.17a15.58,15.58,0,0,1,2.351-.958l.279-1.957a.523.523,0,0,1,.936-.24l1.258,1.677a10.914,10.914,0,0,1,1.122-.073,11.052,11.052,0,0,1,1.255.08l.194-2.321a.524.524,0,0,1,.947-.261l2.561,3.583A19.426,19.426,0,0,1,23.321,18.4a.519.519,0,0,1,.006.779c-.291.258-.726.624-1.28,1.035l-.721,2.993a.262.262,0,0,1-.5.033l-.686-1.776A13.925,13.925,0,0,1,13.288,23.5c-3.832,0-7.172-2.067-8.993-3.461L1.283,21.745a.523.523,0,0,1-.717-.705l.678-1.247a2.091,2.091,0,0,0,0-2L.566,16.549A.523.523,0,0,1,1.283,15.845Z"/><path class="cls-1" d="M19.3,18.022a.25.25,0,0,1,.25.25"/><path class="cls-1" d="M19.05,18.272a.25.25,0,0,1,.25-.25"/><path class="cls-1" d="M19.3,18.522a.25.25,0,0,1-.25-.25"/><path class="cls-1" d="M19.55,18.272a.25.25,0,0,1-.25.25"/></svg>