<svg id="Light" xmlns="http://www.w3.org/2000/svg" viewBox="0 0 24 24"><defs><style>.cls-1{fill:none;stroke:#000;stroke-linecap:round;stroke-linejoin:round;}</style></defs><title>fishing-hook-fish</title><path class="cls-1" d="M7.052,18l.722-.482a.5.5,0,0,1,.778.416V20a3.5,3.5,0,0,1-7,0V13.5"/><line class="cls-1" x1="0.552" y1="10" x2="2.552" y2="12"/><line class="cls-1" x1="0.552" y1="7" x2="2.552" y2="9"/><line class="cls-1" x1="0.552" y1="4" x2="2.552" y2="6"/><line class="cls-1" x1="1.552" y1="0.5" x2="1.552" y2="2.5"/><path class="cls-1" d="M18.051,19c6.481-6.057,7.772-11.945.288-16.916a.534.534,0,0,0-.575,0C10.28,7.055,11.571,12.943,18.051,19Z"/><path class="cls-1" d="M18.3,6.117a.249.249,0,0,1-.25.25"/><path class="cls-1" d="M18.051,5.867a.25.25,0,0,1,.25.25"/><path class="cls-1" d="M17.8,6.117a.25.25,0,0,1,.25-.25"/><path class="cls-1" d="M18.051,6.367a.249.249,0,0,1-.25-.25"/><path class="cls-1" d="M20.88,8.946a4,4,0,0,1-5.657,0"/><path class="cls-1" d="M15.1,22.5a.51.51,0,0,1-.5-.6,3.5,3.5,0,0,1,6.9,0,.509.509,0,0,1-.5.6Z"/></svg>