<svg id="Light" xmlns="http://www.w3.org/2000/svg" viewBox="0 0 24 24"><defs><style>.cls-1{fill:none;stroke:#000;stroke-linecap:round;stroke-linejoin:round;}</style></defs><title>fishing-fail</title><line class="cls-1" x1="14.738" y1="0.546" x2="7.313" y2="7.971"/><line class="cls-1" x1="14.738" y1="7.971" x2="7.313" y2="0.546"/><path class="cls-1" d="M22.717,15.8,19.7,17.505c-.314-.241-.688-.5-1.087-.77l.263-1.84a.523.523,0,0,0-.858-.471l-1.365,1.17a15.581,15.581,0,0,0-2.351-.959l-.279-1.956a.523.523,0,0,0-.936-.24l-1.258,1.677a10.914,10.914,0,0,0-1.122-.073,10.826,10.826,0,0,0-1.255.08L9.263,11.8a.523.523,0,0,0-.947-.261L5.755,15.124A19.4,19.4,0,0,0,.679,18.356a.519.519,0,0,0-.006.779c.291.258.726.624,1.28,1.035l.721,2.993a.262.262,0,0,0,.5.033l.686-1.776a13.925,13.925,0,0,0,6.854,2.034c3.832,0,7.172-2.067,8.993-3.461L22.717,21.7a.523.523,0,0,0,.717-.7l-.678-1.247a2.093,2.093,0,0,1,0-2l.678-1.247A.523.523,0,0,0,22.717,15.8Z"/><path class="cls-1" d="M4.7,17.976a.25.25,0,0,0-.25.25"/><path class="cls-1" d="M4.95,18.226a.25.25,0,0,0-.25-.25"/><path class="cls-1" d="M4.7,18.476a.25.25,0,0,0,.25-.25"/><path class="cls-1" d="M4.45,18.226a.25.25,0,0,0,.25.25"/></svg>