<svg id="Light" xmlns="http://www.w3.org/2000/svg" viewBox="0 0 24 24"><defs><style>.cls-1{fill:none;stroke:#000;stroke-linecap:round;stroke-linejoin:round;}</style></defs><title>fitness-jumping-rope</title><path class="cls-1" d="M6.238,21.014a2.25,2.25,0,1,1-4.476,0l.687-6.526a3.215,3.215,0,0,0-.045-.969L2.01,12.1a.5.5,0,0,1,.49-.6h3a.5.5,0,0,1,.49.6l-.284,1.421a3.308,3.308,0,0,0-.155.969Z"/><path class="cls-1" d="M8,6.5V6.229A5.729,5.729,0,0,1,13.729.5,6.271,6.271,0,0,1,20,6.771V11.5"/><path class="cls-1" d="M8,6.5a4,4,0,0,0,8,0,6,6,0,0,0-12,0v5"/><line class="cls-1" x1="5.551" y1="14.5" x2="2.449" y2="14.5"/><path class="cls-1" d="M22.238,21.014a2.25,2.25,0,1,1-4.476,0l.687-6.526a3.215,3.215,0,0,0-.045-.969L18.01,12.1a.5.5,0,0,1,.49-.6h3a.5.5,0,0,1,.49.6L21.6,13.519a3.215,3.215,0,0,0-.045.969Z"/><line class="cls-1" x1="21.551" y1="14.5" x2="18.449" y2="14.5"/></svg>