<svg id="Light" xmlns="http://www.w3.org/2000/svg" viewBox="0 0 24 24"><defs><style>.cls-1{fill:none;stroke:#000;stroke-linecap:round;stroke-linejoin:round;}</style></defs><title>fitness-dumbells-sizes</title><line class="cls-1" x1="8" y1="3.25" x2="16" y2="3.25"/><line class="cls-1" x1="8" y1="10.25" x2="16" y2="10.25"/><rect class="cls-1" x="5" y="7.25" width="3" height="6" rx="0.5" ry="0.5"/><rect class="cls-1" x="6" y="1.25" width="2" height="4" rx="0.5" ry="0.5"/><rect class="cls-1" x="16" y="1.25" width="2" height="4" rx="0.5" ry="0.5"/><line class="cls-1" x1="6" y1="3.25" x2="4.5" y2="3.25"/><line class="cls-1" x1="18" y1="3.25" x2="19.5" y2="3.25"/><rect class="cls-1" x="16" y="7.25" width="3" height="6" rx="0.5" ry="0.5"/><line class="cls-1" x1="7.999" y1="19.25" x2="16" y2="19.25"/><rect class="cls-1" x="4" y="15.25" width="4" height="8" rx="1" ry="1"/><rect class="cls-1" x="16" y="15.25" width="4" height="8" rx="1" ry="1"/><path class="cls-1" d="M4,18.25H3a1,1,0,0,0,0,2H4"/><path class="cls-1" d="M5,9.25H4a1,1,0,0,0,0,2H5"/><path class="cls-1" d="M19,9.25h1a1,1,0,0,1,0,2H19"/><path class="cls-1" d="M20,18.25h1a1,1,0,0,1,0,2H20"/><line class="cls-1" x1="12" y1="0.75" x2="12" y2="23.25"/></svg>