<svg id="Light" xmlns="http://www.w3.org/2000/svg" viewBox="0 0 24 24"><defs><style>.cls-1{fill:none;stroke:#000;stroke-linecap:round;stroke-linejoin:round;}</style></defs><title>fitness-jumping-rope-3</title><path class="cls-1" d="M1,15.5H3a.5.5,0,0,1,.5.5v6A1.5,1.5,0,0,1,2,23.5H2A1.5,1.5,0,0,1,.5,22V16a.5.5,0,0,1,.5-.5Z"/><line class="cls-1" x1="0.5" y1="17.5" x2="3.5" y2="17.5"/><line class="cls-1" x1="0.5" y1="19.5" x2="3.5" y2="19.5"/><path class="cls-1" d="M21,.5h2a.5.5,0,0,1,.5.5V7A1.5,1.5,0,0,1,22,8.5h0A1.5,1.5,0,0,1,20.5,7V1A.5.5,0,0,1,21,.5Z" transform="translate(44 9) rotate(180)"/><line class="cls-1" x1="23.5" y1="6.5" x2="20.5" y2="6.5"/><line class="cls-1" x1="23.5" y1="4.5" x2="20.5" y2="4.5"/><path class="cls-1" d="M22,8.5v10a5,5,0,0,1-10,0V5.5a5,5,0,0,0-10,0v10"/></svg>