<svg id="Light" xmlns="http://www.w3.org/2000/svg" viewBox="0 0 24 24"><defs><style>.cls-1{fill:none;stroke:#000;stroke-linecap:round;stroke-linejoin:round;}</style></defs><title>flask</title><path class="cls-1" d="M22,21.5a2,2,0,0,1-2,2,55.415,55.415,0,0,0-16,0,2,2,0,0,1-2-2V7.5a2,2,0,0,1,2-2H20a2,2,0,0,1,2,2Z"/><line class="cls-1" x1="17" y1="19.833" x2="17" y2="8.833"/><line class="cls-1" x1="7" y1="8.833" x2="7" y2="19.833"/><rect class="cls-1" x="10" y="3.5" width="4" height="2"/><path class="cls-1" d="M15,1.5a1,1,0,0,0-1-1H10a1,1,0,0,0-1,1v2h5.5A.5.5,0,0,0,15,3Z"/><line class="cls-1" x1="11" y1="0.5" x2="11" y2="3.5"/><line class="cls-1" x1="13" y1="0.5" x2="13" y2="3.5"/><path class="cls-1" d="M9,3.5H8.5a2,2,0,0,0-2,2"/></svg>