<svg xmlns="http://www.w3.org/2000/svg" viewBox="0 0 24 24"><defs><style>.a{fill:none;stroke:#000;stroke-linecap:round;stroke-linejoin:round;}</style></defs><title>flip-left</title><path class="a" d="M14.5,23.5h8a1,1,0,0,0,1-1V1.5a1,1,0,0,0-1-1h-8"/><line class="a" x1="12.5" y1="0.5" x2="12.5" y2="8.5"/><path class="a" d="M.5,2.5v-1a1,1,0,0,1,1-1h1"/><line class="a" x1="4.5" y1="0.5" x2="6.5" y2="0.5"/><line class="a" x1="8.5" y1="0.5" x2="10.5" y2="0.5"/><path class="a" d="M.5,21.5v1a1,1,0,0,0,1,1h1"/><line class="a" x1="4.5" y1="23.5" x2="6.5" y2="23.5"/><line class="a" x1="8.5" y1="23.5" x2="10.5" y2="23.5"/><line class="a" x1="0.5" y1="4.5" x2="0.5" y2="6.5"/><line class="a" x1="0.5" y1="9" x2="0.5" y2="11"/><line class="a" x1="0.5" y1="13" x2="0.5" y2="15"/><line class="a" x1="0.5" y1="17.5" x2="0.5" y2="19.5"/><path class="a" d="M20.5,13.5s-2-3-8-3a9.556,9.556,0,0,0-7,3"/><line class="a" x1="12.5" y1="12.5" x2="12.5" y2="23.5"/><polyline class="a" points="6.5 9.627 5.5 13.5 9.373 14.5"/></svg>