<svg id="Light" xmlns="http://www.w3.org/2000/svg" viewBox="0 0 24 24"><defs><style>.cls-1{fill:none;stroke:#000;stroke-linecap:round;stroke-linejoin:round;}</style></defs><title>flower-roses</title><path class="cls-1" d="M14,4a.5.5,0,0,0-.8-.4L12,4.5l-1.2-.9A.5.5,0,0,0,10,4V6a2,2,0,0,0,4,0Z"/><path class="cls-1" d="M18,13a8.968,8.968,0,0,0,1.5-5"/><path class="cls-1" d="M17.5,4a.5.5,0,0,1,.8-.4l1.2.9,1.2-.9a.5.5,0,0,1,.8.4V6a2,2,0,0,1-4,0Z"/><path class="cls-1" d="M6,13A8.968,8.968,0,0,1,4.5,8"/><path class="cls-1" d="M6.5,4a.5.5,0,0,0-.8-.4l-1.2.9L3.3,3.6a.5.5,0,0,0-.8.4V6a2,2,0,0,0,4,0Z"/><line class="cls-1" x1="12" y1="8" x2="12" y2="13"/><path class="cls-1" d="M21.1,20.621A.5.5,0,0,1,20.61,21H3.39a.5.5,0,0,1-.485-.379L1.5,15h21Z"/><path class="cls-1" d="M23.5,14a1,1,0,0,1-1,1H1.5a1,1,0,0,1,0-2h21A1,1,0,0,1,23.5,14Z"/></svg>