<svg id="Light" xmlns="http://www.w3.org/2000/svg" viewBox="0 0 24 24"><defs><style>.cls-1{fill:none;stroke:#000;stroke-linecap:round;stroke-linejoin:round;}</style></defs><title>flower-rose</title><path class="cls-1" d="M12,1.626a8.4,8.4,0,0,1,3.478-.87.5.5,0,0,1,.522.5V3.834"/><path class="cls-1" d="M15.248,4.1A9.475,9.475,0,0,0,8.528.759a.5.5,0,0,0-.528.5V3.813"/><line class="cls-1" x1="12" y1="16.245" x2="12" y2="23.245"/><path class="cls-1" d="M17.5,13.956A13.861,13.861,0,0,0,4.518,3.254a.5.5,0,0,0-.518.5V7.745c0,4.694,3.306,8.5,8,8.5s8-3.806,8-8.5V3.752a.5.5,0,0,0-.516-.5,12.156,12.156,0,0,0-7.312,2.632"/></svg>