<svg id="Light" xmlns="http://www.w3.org/2000/svg" viewBox="0 0 24 24"><defs><style>.cls-1{fill:none;stroke:#000;stroke-linecap:round;stroke-linejoin:round;}</style></defs><title>flying-insect-bee-1</title><path class="cls-1" d="M12,3.5c5,0,5,5,5,5v7s0,5-5,5-5-5-5-5v-7S7,3.5,12,3.5Z"/><path class="cls-1" d="M7,2a1.5,1.5,0,0,1,3,0V3.83"/><path class="cls-1" d="M17,2a1.5,1.5,0,0,0-3,0V3.83"/><line class="cls-1" x1="7" y1="14.5" x2="17" y2="14.5"/><line class="cls-1" x1="7" y1="11.5" x2="17" y2="11.5"/><line class="cls-1" x1="12" y1="20.5" x2="12" y2="23.5"/><path class="cls-1" d="M18.881,16.5H21a2,2,0,0,0,0-4,2,2,0,0,0,0-4H19"/><path class="cls-1" d="M5,8.5H3a2,2,0,0,0,0,4,2,2,0,0,0,0,4H5.119"/><line class="cls-1" x1="7" y1="8.5" x2="17" y2="8.5"/></svg>