<svg id="Light" xmlns="http://www.w3.org/2000/svg" viewBox="0 0 24 24"><defs><style>.cls-1{fill:none;stroke:#000;stroke-linecap:round;stroke-linejoin:round;}</style></defs><title>flying-insect-honey</title><path class="cls-1" d="M1,13.9a.5.5,0,0,1,.227-.42L6,10.38l6,3.251v6.5L6.261,23.241a.5.5,0,0,1-.51-.021L1.228,20.28A.5.5,0,0,1,1,19.861Z"/><path class="cls-1" d="M12,13.631l6-3.251,4.773,3.1A.5.5,0,0,1,23,13.9v5.958a.5.5,0,0,1-.228.419l-4.523,2.94a.5.5,0,0,1-.51.021L12,20.132"/><path class="cls-1" d="M6,4.179a.5.5,0,0,1,.262-.44l5.5-2.98a.5.5,0,0,1,.476,0l5.5,2.98a.5.5,0,0,1,.262.44v6.2l-6,3.25-6-3.25Z"/></svg>