<svg id="Light" xmlns="http://www.w3.org/2000/svg" viewBox="0 0 24 24"><defs><style>.cls-1{fill:none;stroke:#000;stroke-linecap:round;stroke-linejoin:round;}</style></defs><title>flying-insect-dragonfly-2</title><circle class="cls-1" cx="10.5" cy="3.144" r="1.5"/><circle class="cls-1" cx="13.5" cy="3.144" r="1.5"/><path class="cls-1" d="M13.5,8.01a1.753,1.753,0,0,1-3,0"/><line class="cls-1" x1="12" y1="8.856" x2="12" y2="22.356"/><path class="cls-1" d="M9,4.356H1.5c-1,0-1.625.922,0,2A8.093,8.093,0,0,0,6,7.856c1.5,0,4.5-.5,4.5-2S9.5,4.356,9,4.356Z"/><path class="cls-1" d="M10.5,5.856v4a3.193,3.193,0,0,1-3,3H4c-1.5,0-3.5-.5-3.5-1.5S7.283,7.762,7.283,7.762"/><path class="cls-1" d="M15,4.356h7.5c1,0,1.625.922,0,2a8.093,8.093,0,0,1-4.5,1.5c-1.5,0-4.5-.5-4.5-2S14.5,4.356,15,4.356Z"/><path class="cls-1" d="M13.5,5.856v4a3.193,3.193,0,0,0,3,3H20c1.5,0,3.5-.5,3.5-1.5s-6.783-3.594-6.783-3.594"/></svg>