<svg id="Light" xmlns="http://www.w3.org/2000/svg" viewBox="0 0 24 24"><defs><style>.cls-1{fill:none;stroke:#000;stroke-linecap:round;stroke-linejoin:round;}</style></defs><title>flying-insect-bee-2</title><circle class="cls-1" cx="12" cy="9" r="3.5"/><path class="cls-1" d="M9.5,6.551V5a2.5,2.5,0,0,1,5,0V6.552"/><polyline class="cls-1" points="7.5 0.5 10 0.5 11.5 2.5"/><polyline class="cls-1" points="16.5 0.5 14 0.5 12.5 2.5"/><path class="cls-1" d="M13.89,11.947A6.845,6.845,0,0,1,15.5,16c0,5.5-3.5,7.5-3.5,7.5s-3.5-2-3.5-7.5a6.843,6.843,0,0,1,1.611-4.054"/><line class="cls-1" x1="8.526" y1="15.5" x2="15.474" y2="15.5"/><line class="cls-1" x1="8.767" y1="18.5" x2="15.233" y2="18.5"/><path class="cls-1" d="M8.713,7.787S4.734,11.2,1.5,14c-2.954,2.554,1.928,4.352,3.5,2,1.766-2.641,3.77-5.653,3.77-5.653"/><path class="cls-1" d="M15.287,7.787S19.266,11.2,22.5,14c2.954,2.554-1.928,4.352-3.5,2-1.766-2.641-3.77-5.653-3.77-5.653"/></svg>