<svg id="Light" xmlns="http://www.w3.org/2000/svg" viewBox="0 0 24 24"><defs><style>.cls-1{fill:none;stroke:#000;stroke-linecap:round;stroke-linejoin:round;}</style></defs><title>flying-insect-bee-3</title><path class="cls-1" d="M15.256,12a3,3,0,1,1-1.543-3.952A3,3,0,0,1,15.256,12Z"/><path class="cls-1" d="M9.76,9.585c-.776,1.77-2.43,2.756-3.695,2.2s-1.659-2.441-.883-4.21,2.43-2.756,3.7-2.2S10.537,7.815,9.76,9.585Z"/><path class="cls-1" d="M6.065,11.787c-.256-.659.089-2.692,1.406-3.206a1.648,1.648,0,0,1,2.289,1"/><polyline class="cls-1" points="0.508 8.79 2.008 5.29 4.831 8.79"/><path class="cls-1" d="M15.464,10.273s6.044-.5,6.044,6.517v6s-7,0-7-5.5V13.028"/><path class="cls-1" d="M12.508,7.79l10.216-6.5a.5.5,0,0,1,.768.441C23.3,7,21.364,8.79,14.742,8.79"/><line class="cls-1" x1="14.507" y1="16.701" x2="20.706" y2="13.055"/><line class="cls-1" x1="15.427" y1="20.249" x2="21.507" y2="16.672"/></svg>