<svg id="Light" xmlns="http://www.w3.org/2000/svg" viewBox="0 0 24 24"><defs><style>.cls-1{fill:none;stroke:#000;stroke-linecap:round;stroke-linejoin:round;}</style></defs><title>flying-insect-ladybug-1</title><path class="cls-1" d="M20.4,12.437a5.369,5.369,0,0,1,1.6,3.7c0,1-3.858,2-8,2s-7-1-7-2"/><path class="cls-1" d="M5.5,17.139c-1.657,0-3,0-3-1.5,0-1.381,1.483-3,3.983-3"/><path class="cls-1" d="M7,16.139s-2.5-6.5,3.5-10.5a9.419,9.419,0,0,1,11,0s-.5,4-6,7.5S7,16.139,7,16.139Z"/><path class="cls-1" d="M12.962,4.385A3.5,3.5,0,0,1,9.8,9.393a4.256,4.256,0,0,1-2.2-.756"/><polyline class="cls-1" points="9 17.53 8 20.139 6.5 20.139"/><polyline class="cls-1" points="12.5 18.096 12 20.139 11 20.139"/><polyline class="cls-1" points="20 17.392 21 20.139 22.5 20.139"/><polyline class="cls-1" points="16.5 18.038 17 20.139 18 20.139"/><path class="cls-1" d="M17.988,11.247a2.885,2.885,0,0,1-.571-1.608,2.5,2.5,0,0,1,3.5-2.292"/><path class="cls-1" d="M9.289,15.937a2.528,2.528,0,0,1-.049-.5,2.5,2.5,0,0,1,2.5-2.5,3.086,3.086,0,0,1,2.252,1.1"/><path class="cls-1" d="M4.75,14.639a.25.25,0,0,1,.25.25"/><path class="cls-1" d="M4.5,14.889a.25.25,0,0,1,.25-.25"/><path class="cls-1" d="M4.75,15.139a.25.25,0,0,1-.25-.25"/><path class="cls-1" d="M5,14.889a.25.25,0,0,1-.25.25"/><line class="cls-1" x1="2.7" y1="14.739" x2="1.5" y2="14.139"/></svg>