<svg id="Light" xmlns="http://www.w3.org/2000/svg" viewBox="0 0 24 24"><defs><style>.cls-1{fill:none;stroke:#000;stroke-linecap:round;stroke-linejoin:round;}</style></defs><title>flying-insect-butterfly-1</title><path class="cls-1" d="M13.5,20a1.5,1.5,0,0,1-3,0V8.828a1.5,1.5,0,0,1,3,0Z"/><path class="cls-1" d="M10.867,7.845A8.31,8.31,0,0,0,9.835,6.592C7.3,4.053,3.655,3.578,1.7,5.531s-1.478,5.593,1.06,8.132A8.188,8.188,0,0,0,4.9,15.208q-.177.155-.346.324c-2.167,2.167-2.572,5.275-.906,6.941s4.774,1.262,6.941-.9q.219-.219.414-.45"/><path class="cls-1" d="M11,7.71V5A4.5,4.5,0,0,0,6.5.5"/><path class="cls-1" d="M13.133,7.845a8.31,8.31,0,0,1,1.032-1.253C16.7,4.053,20.345,3.578,22.3,5.531s1.478,5.593-1.06,8.132A8.188,8.188,0,0,1,19.1,15.208q.177.155.346.324c2.167,2.167,2.572,5.275.906,6.941s-4.774,1.262-6.941-.9q-.219-.219-.414-.45"/><path class="cls-1" d="M13,7.71V5A4.5,4.5,0,0,1,17.5.5"/></svg>