<svg id="Light" xmlns="http://www.w3.org/2000/svg" viewBox="0 0 24 24"><defs><style>.cls-1{fill:none;stroke:#000;stroke-linecap:round;stroke-linejoin:round;}</style></defs><title>footwear-heels</title><path class="cls-1" d="M6.677.5A10,10,0,0,0,.913,9.634,10.172,10.172,0,0,0,1,10.967C2.338,21.182.875,23.5,2.714,23.5h.5a1,1,0,0,0,1-1V14.934a1.433,1.433,0,0,1,2.806-.413l2.674,6.5A4,4,0,0,0,13.4,23.5h5.235c3.238,0,4.452-.585,4.452-1.463,0-2.944-10-3.537-14.675-17.674L7.133.8A.5.5,0,0,0,6.677.5Z"/></svg>