<svg id="Light" xmlns="http://www.w3.org/2000/svg" viewBox="0 0 24 24"><defs><style>.cls-1{fill:none;stroke:#000;stroke-linecap:round;stroke-linejoin:round;}</style></defs><title>footwear-boots</title><path class="cls-1" d="M19.5,16.5a10,10,0,0,1-10-10V1A.5.5,0,0,0,9,.5H1A.5.5,0,0,0,.5,1V21.5a2,2,0,0,0,2,2H20a3.5,3.5,0,0,0,0-7Z"/><path class="cls-1" d="M6.5.5v7a12,12,0,0,0,12,12"/><line class="cls-1" x1="17.499" y1="16.3" x2="17.499" y2="19.458"/><line class="cls-1" x1="0.499" y1="19.5" x2="23.463" y2="19.5"/><line class="cls-1" x1="9.499" y1="3.5" x2="3.999" y2="3.5"/><line class="cls-1" x1="9.499" y1="6.5" x2="3.999" y2="6.5"/><line class="cls-1" x1="9.957" y1="9.5" x2="3.999" y2="9.5"/><line class="cls-1" x1="11.498" y1="12.5" x2="4.999" y2="12.5"/></svg>