<svg id="Light" xmlns="http://www.w3.org/2000/svg" viewBox="0 0 24 24"><defs><style>.cls-1{fill:none;stroke:#000;stroke-linecap:round;stroke-linejoin:round;}</style></defs><title>footwear-winter-boots</title><path class="cls-1" d="M.985,3.705A.67.67,0,0,0,.5,4.323v16a2,2,0,0,0,2,2h17a4,4,0,1,0,0-8H16.753a4,4,0,0,1-3.736-2.573L9.9,2.049a.547.547,0,0,0-.639-.358Z"/><path class="cls-1" d="M11.7,7.639,6.318,8.674a1.5,1.5,0,0,1-.566-2.946l5.021-.966"/><path class="cls-1" d="M13.989,13.215,8.441,14.778A1.5,1.5,0,0,1,7.7,11.873L12.65,10.6"/><line class="cls-1" x1="22.964" y1="20.323" x2="0.499" y2="20.323"/></svg>