<svg id="Light" xmlns="http://www.w3.org/2000/svg" viewBox="0 0 24 24"><defs><style>.cls-1{fill:none;stroke:#000;stroke-linecap:round;stroke-linejoin:round;}</style></defs><title>footwear-open-heels</title><polyline class="cls-1" points="0.499 2.25 6.499 4.75 6.499 10.342"/><line class="cls-1" x1="6.499" y1="4.75" x2="10.999" y2="3.75"/><path class="cls-1" d="M6.5,10.342V21.25a.5.5,0,0,1-.5.5H3.966a.5.5,0,0,1-.5-.464c-.128-1.768-.662-8.121-1.922-10.825A.5.5,0,0,1,2,9.75H4.405a4,4,0,0,1,3.3,1.737l6.15,8.961a3,3,0,0,0,2.474,1.3H23a.5.5,0,0,0,.284-.912L19,18.162a2.014,2.014,0,0,1-.656-.668l-2.506-4.178A1,1,0,0,0,14.423,13l-3.888,2.593"/></svg>