<svg id="Light" xmlns="http://www.w3.org/2000/svg" viewBox="0 0 24 24"><defs><style>.cls-1{fill:none;stroke:#000;stroke-linecap:round;stroke-linejoin:round;}</style></defs><title>fruit-pear</title><path class="cls-1" d="M12,6c2.83,0,3.432,2.42,4.059,4.937.608,2.44,4.09,3.129,4.09,7.216S16.088,23.5,12,23.5s-8.149-1.259-8.149-5.347,3.482-4.776,4.09-7.216C8.567,8.42,9.17,6,12,6Z"/><path class="cls-1" d="M12,6V5.5a2,2,0,0,0-2-2H8"/><path class="cls-1" d="M15.09,4.918A4.5,4.5,0,0,0,18.918,1.09a.516.516,0,0,0-.584-.585,4.5,4.5,0,0,0-3.829,3.829A.516.516,0,0,0,15.09,4.918Z"/></svg>