<svg id="Light" xmlns="http://www.w3.org/2000/svg" viewBox="0 0 24 24"><defs><style>.cls-1{fill:none;stroke:#000;stroke-linecap:round;stroke-linejoin:round;}</style></defs><title>fruit-grapes</title><circle class="cls-1" cx="12" cy="21.5" r="2"/><circle class="cls-1" cx="12" cy="10.5" r="2"/><circle class="cls-1" cx="6" cy="11" r="2"/><circle class="cls-1" cx="18" cy="11" r="2"/><circle class="cls-1" cx="15" cy="16.5" r="2"/><circle class="cls-1" cx="9" cy="16.5" r="2"/><line class="cls-1" x1="12" y1="6.5" x2="12" y2="0.5"/><path class="cls-1" d="M14.538,6.6a6.4,6.4,0,0,0,7.326-4.57.5.5,0,0,0-.4-.628,6.4,6.4,0,0,0-7.326,4.57A.5.5,0,0,0,14.538,6.6Z"/><path class="cls-1" d="M9.462,6.6a6.394,6.394,0,0,1-7.326-4.57.5.5,0,0,1,.4-.628,6.4,6.4,0,0,1,7.326,4.57A.5.5,0,0,1,9.462,6.6Z"/></svg>