<svg id="Light" xmlns="http://www.w3.org/2000/svg" viewBox="0 0 24 24"><defs><style>.cls-1{fill:none;stroke:#000;stroke-linecap:round;stroke-linejoin:round;}</style></defs><title>fruit-watermelon</title><path class="cls-1" d="M17.124,2.4c4.826,4.825,4.123,11.3.35,15.076S7.233,21.961,2.4,17.124L.645,18.878a.5.5,0,0,0,0,.7A13.388,13.388,0,1,0,19.578.645a.5.5,0,0,0-.7,0Z"/><line class="cls-1" x1="2.398" y1="17.124" x2="17.124" y2="2.399"/><path class="cls-1" d="M13.969,12.566c.581.58.738,1.366.35,1.753s-1.172.23-1.753-.35-.738-1.366-.351-1.753S13.388,11.985,13.969,12.566Z"/><ellipse class="cls-1" cx="16.073" cy="7.658" rx="1.488" ry="0.991"/><path class="cls-1" d="M8.649,16.072c0,.823-.444,1.488-.991,1.488s-.992-.665-.992-1.488.444-1.487.992-1.487S8.649,15.251,8.649,16.072Z"/></svg>