<svg id="Light" xmlns="http://www.w3.org/2000/svg" viewBox="0 0 24 24"><defs><style>.cls-1{fill:none;stroke:#000;stroke-linecap:round;stroke-linejoin:round;}</style></defs><title>garbage-throw</title><line class="cls-1" x1="18.496" y1="14.5" x2="18.496" y2="10.5"/><path class="cls-1" d="M3.5,16.5l.877,6.141a1,1,0,0,0,.99.859H8.629a1,1,0,0,0,.99-.859L10.5,16.5"/><path class="cls-1" d="M6.108,19.542a.25.25,0,1,1-.07.346.25.25,0,0,1,.07-.346"/><path class="cls-1" d="M8,16.75a.25.25,0,1,1-.25.25A.25.25,0,0,1,8,16.75"/><path class="cls-1" d="M7.092,14.019a.25.25,0,1,1-.327.136.25.25,0,0,1,.327-.136"/><circle class="cls-1" cx="16.496" cy="2.5" r="2"/><path class="cls-1" d="M14.5,10.5V22A1.5,1.5,0,0,0,16,23.5h1A1.5,1.5,0,0,0,18.5,22V14.5a1,1,0,0,0,2,0L20.5,9.64A3.526,3.526,0,0,0,17,6.5H16.26a3.525,3.525,0,0,0-3.508,3.14A1.527,1.527,0,0,1,11.232,11H9a1,1,0,0,0,0,2h2.236a3.5,3.5,0,0,0,1.425-.3"/></svg>