<svg id="Light" xmlns="http://www.w3.org/2000/svg" viewBox="0 0 24 24"><defs><style>.cls-1{fill:none;stroke:#000;stroke-linecap:round;stroke-linejoin:round;}</style></defs><title>garbage-bin-throw</title><circle class="cls-1" cx="16.999" cy="2.999" r="2.5"/><path class="cls-1" d="M12.287,11.014c3.129-.446,3.8-1.688,4.639-3.261l.262-.481a1.5,1.5,0,0,1,2.767.365l3.5,14a1.5,1.5,0,1,1-2.909.727L19.3,17.375c-.913,1.353-1.174,2.228-1.84,4.978A1.5,1.5,0,0,1,16,23.5a1.548,1.548,0,0,1-.354-.042,1.5,1.5,0,0,1-1.105-1.811c1.035-4.277,1.389-4.863,3.811-8.05l-.484-1.937a8.545,8.545,0,0,1-5.157,2.324,1.5,1.5,0,0,1-.426-2.971Z"/><path class="cls-1" d="M1.5,20.585V13.5H8.838a1,1,0,0,1,.989,1.148l-1.2,8a1,1,0,0,1-.989.852H2"/><line class="cls-1" x1="1.499" y1="13.499" x2="6.999" y2="6.499"/><circle class="cls-1" cx="1.999" cy="21.999" r="1.5"/><circle class="cls-1" cx="7.499" cy="10.499" r="1"/><path class="cls-1" d="M10,8.249A.25.25,0,0,0,9.749,8h0a.25.25,0,1,0,.25.25"/></svg>