<svg id="Light" xmlns="http://www.w3.org/2000/svg" viewBox="0 0 24 24"><defs><style>.cls-1{fill:none;stroke:#000;stroke-linecap:round;stroke-linejoin:round;}</style></defs><title>garbage-bin-throw-1</title><path class="cls-1" d="M8.5,17.5,6.728,22.816a1,1,0,0,1-.949.684H2"/><polyline class="cls-1" points="1.5 20.586 1.5 14.5 6 14.5"/><line class="cls-1" x1="1.5" y1="14.5" x2="4.5" y2="9"/><circle class="cls-1" cx="2" cy="22" r="1.5"/><circle class="cls-1" cx="7" cy="10.5" r="1"/><circle class="cls-1" cx="17" cy="3" r="2.5"/><line class="cls-1" x1="17.5" y1="22" x2="17.5" y2="17"/><path class="cls-1" d="M20.5,11v5a1.5,1.5,0,0,0,3,0V10.5a3,3,0,0,0-3-3H15.508a4.5,4.5,0,0,0-4.445,3.8l0,.028A1.524,1.524,0,0,1,9.5,12.5a1.5,1.5,0,0,0-1.46,1.85A1.547,1.547,0,0,0,9.582,15.5c3.877-.048,4.185-3.551,4.918-4.611V22a1.5,1.5,0,0,0,3,0,1.5,1.5,0,0,0,3,0V16"/></svg>