<svg id="Light" xmlns="http://www.w3.org/2000/svg" viewBox="0 0 24 24"><defs><style>.cls-1{fill:none;stroke:#000;stroke-linecap:round;stroke-linejoin:round;}</style></defs><title>gardening-sprinkle-bottle</title><path class="cls-1" d="M16.57,8.5h-7l.879-3.515A.675.675,0,0,1,11.07,4.5h4.5Z"/><path class="cls-1" d="M16.57,8.5l1.342,4.026a3.7,3.7,0,0,1,.158.974v7.849A2.151,2.151,0,0,1,15.919,23.5h-5.7A2.151,2.151,0,0,1,8.07,21.349V13.5a3.7,3.7,0,0,1,.158-.974L9.57,8.5"/><line class="cls-1" x1="13.07" y1="4.5" x2="13.07" y2="0.5"/><path class="cls-1" d="M15.57,4.5h5a.674.674,0,0,1,.621.485l1.724,6.894a.5.5,0,0,1-.485.621h-.969a.5.5,0,0,1-.485-.379L19.57,6.5h-3.5"/><path class="cls-1" d="M5.07,4.5h2a.5.5,0,0,1,.5.5V6a.5.5,0,0,1-.5.5h-2a0,0,0,0,1,0,0v-2A0,0,0,0,1,5.07,4.5Z"/><line class="cls-1" x1="10.32" y1="5.5" x2="7.57" y2="5.5"/><line class="cls-1" x1="3.57" y1="5.5" x2="1.07" y2="5.5"/><line class="cls-1" x1="3.57" y1="4" x2="2.07" y2="3"/><line class="cls-1" x1="3.57" y1="7" x2="2.07" y2="8"/></svg>