<svg id="Light" xmlns="http://www.w3.org/2000/svg" viewBox="0 0 24 24"><defs><style>.cls-1{fill:none;stroke:#000;stroke-linecap:round;stroke-linejoin:round;}</style></defs><title>gardening-digging-fork</title><line class="cls-1" x1="7.904" y1="7.904" x2="11.439" y2="11.439"/><path class="cls-1" d="M8.257,6.843a.5.5,0,0,1,0,.707l-.707.707a.5.5,0,0,1-.707,0l-5.3-5.3A1,1,0,0,1,2.954,1.54Z"/><line class="cls-1" x1="14.091" y1="20.101" x2="20.101" y2="14.091"/><path class="cls-1" d="M15.682,22.753l-4.243-7.071c-1.06-1.768-1.171-3.071,0-4.243s2.475-1.06,4.243,0l7.071,4.243"/><path class="cls-1" d="M17.8,20.632l-5.091-6.223c-1.273-1.555-1.741-2.5-1.273-2.97s1.415,0,2.97,1.273L20.632,17.8"/></svg>