<svg id="Light" xmlns="http://www.w3.org/2000/svg" viewBox="0 0 24 24"><defs><style>.cls-1{fill:none;stroke:#000;stroke-linecap:round;stroke-linejoin:round;}</style></defs><title>gardening-scissors-1</title><path class="cls-1" d="M12.383,10.038,7.929,1.124a.5.5,0,0,0-.827-.1,3.868,3.868,0,0,0-.479,4.324l3,5.67"/><path class="cls-1" d="M12,9.266l4.071-8.142a.5.5,0,0,1,.827-.1,3.868,3.868,0,0,1,.479,4.324l-3,5.67"/><path class="cls-1" d="M18.9,23.057a1.344,1.344,0,0,1-1.7-.649L13.3,14.57a1,1,0,0,0-.895-.554h-.8a1,1,0,0,0-.895.554L6.8,22.408a1.343,1.343,0,0,1-2.4-1.2l4.584-9.227a3.3,3.3,0,0,1,6.038,0L19.6,21.213A1.343,1.343,0,0,1,18.9,23.057Z"/><path class="cls-1" d="M12,11.766a.25.25,0,0,1,.25.25"/><path class="cls-1" d="M11.75,12.016a.25.25,0,0,1,.25-.25"/><path class="cls-1" d="M12,12.266a.25.25,0,0,1-.25-.25"/><path class="cls-1" d="M12.25,12.016a.25.25,0,0,1-.25.25"/></svg>