<svg id="Light" xmlns="http://www.w3.org/2000/svg" viewBox="0 0 24 24"><defs><style>.cls-1{fill:none;stroke:#000;stroke-linecap:round;stroke-linejoin:round;}</style></defs><title>gardening-boots</title><path class="cls-1" d="M20.5,20.017v2.5a1,1,0,0,1-1,1h-3a.5.5,0,0,1-.5-.5v-1l-2.934,1.257a3,3,0,0,1-1.182.243H4.5a1,1,0,0,1-1-1v-1"/><path class="cls-1" d="M11.343.576a1,1,0,0,0-1.286,1L10.5,14.838a2,2,0,0,1-1.7,1.977l-3.656.408A2,2,0,0,0,3.5,19.192v2.326h7.384a3.005,3.005,0,0,0,1.182-.243l2.368-1.015a3,3,0,0,1,1.182-.242H20.5V1.482A1,1,0,0,0,19.237.518l-3.685,1a2,2,0,0,1-1.1-.013Z"/><rect class="cls-1" x="14" y="5.896" width="3" height="3" rx="0.5" ry="0.5" transform="translate(-0.69 13.127) rotate(-45)"/></svg>