<svg id="Light" xmlns="http://www.w3.org/2000/svg" viewBox="0 0 24 24"><defs><style>.cls-1{fill:none;stroke:#000;stroke-linecap:round;stroke-linejoin:round;}</style></defs><title>gardening-spirinkler</title><path class="cls-1" d="M13.934,22.942a.5.5,0,0,1-.5.558H10.562a.5.5,0,0,1-.5-.558l.916-7.778A.186.186,0,0,1,11.166,15H12.71a.326.326,0,0,1,.324.288Z"/><path class="cls-1" d="M16,10c0,2.071-4,4.5-4,4.5S8,12.071,8,10s1.741-3,4-3S16,7.929,16,10Z"/><line class="cls-1" x1="12" y1="15" x2="12" y2="6"/><path class="cls-1" d="M7,6.75A.25.25,0,0,1,7.25,7"/><path class="cls-1" d="M6.75,7A.25.25,0,0,1,7,6.75"/><path class="cls-1" d="M7,7.25A.25.25,0,0,1,6.75,7"/><path class="cls-1" d="M7.25,7A.25.25,0,0,1,7,7.25"/><path class="cls-1" d="M9.5,4.25a.25.25,0,0,1,.25.25"/><path class="cls-1" d="M9.25,4.5a.25.25,0,0,1,.25-.25"/><path class="cls-1" d="M9.5,4.75a.25.25,0,0,1-.25-.25"/><path class="cls-1" d="M9.75,4.5a.25.25,0,0,1-.25.25"/><path class="cls-1" d="M7.5,2.25a.25.25,0,0,1,.25.25"/><path class="cls-1" d="M7.25,2.5a.25.25,0,0,1,.25-.25"/><path class="cls-1" d="M7.5,2.75a.25.25,0,0,1-.25-.25"/><path class="cls-1" d="M7.75,2.5a.25.25,0,0,1-.25.25"/><path class="cls-1" d="M5,.75A.25.25,0,0,1,5.25,1"/><path class="cls-1" d="M4.75,1A.25.25,0,0,1,5,.75"/><path class="cls-1" d="M5,1.25A.25.25,0,0,1,4.75,1"/><path class="cls-1" d="M5.25,1A.25.25,0,0,1,5,1.25"/><path class="cls-1" d="M5.5,10.25a.25.25,0,0,1,.25.25"/><path class="cls-1" d="M5.25,10.5a.25.25,0,0,1,.25-.25"/><path class="cls-1" d="M5.5,10.75a.25.25,0,0,1-.25-.25"/><path class="cls-1" d="M5.75,10.5a.25.25,0,0,1-.25.25"/><path class="cls-1" d="M1,10.25a.25.25,0,0,1,.25.25"/><path class="cls-1" d="M.75,10.5A.25.25,0,0,1,1,10.25"/><path class="cls-1" d="M1,10.75a.25.25,0,0,1-.25-.25"/><path class="cls-1" d="M1.25,10.5a.25.25,0,0,1-.25.25"/><path class="cls-1" d="M4,5.25a.25.25,0,0,1,.25.25"/><path class="cls-1" d="M3.75,5.5A.25.25,0,0,1,4,5.25"/><path class="cls-1" d="M4,5.75a.25.25,0,0,1-.25-.25"/><path class="cls-1" d="M4.25,5.5A.25.25,0,0,1,4,5.75"/><path class="cls-1" d="M1,4.25a.25.25,0,0,1,.25.25"/><path class="cls-1" d="M.75,4.5A.25.25,0,0,1,1,4.25"/><path class="cls-1" d="M1,4.75A.25.25,0,0,1,.75,4.5"/><path class="cls-1" d="M1.25,4.5A.25.25,0,0,1,1,4.75"/><path class="cls-1" d="M17,6.75a.25.25,0,0,0-.25.25"/><path class="cls-1" d="M17.25,7A.25.25,0,0,0,17,6.75"/><path class="cls-1" d="M17,7.25A.25.25,0,0,0,17.25,7"/><path class="cls-1" d="M16.75,7a.25.25,0,0,0,.25.25"/><path class="cls-1" d="M18.5,10.25a.25.25,0,0,0-.25.25"/><path class="cls-1" d="M18.75,10.5a.25.25,0,0,0-.25-.25"/><path class="cls-1" d="M18.5,10.75a.25.25,0,0,0,.25-.25"/><path class="cls-1" d="M18.25,10.5a.25.25,0,0,0,.25.25"/><path class="cls-1" d="M23,10.25a.25.25,0,0,0-.25.25"/><path class="cls-1" d="M23.25,10.5a.25.25,0,0,0-.25-.25"/><path class="cls-1" d="M23,10.75a.25.25,0,0,0,.25-.25"/><path class="cls-1" d="M22.75,10.5a.25.25,0,0,0,.25.25"/><path class="cls-1" d="M20,5.25a.25.25,0,0,0-.25.25"/><path class="cls-1" d="M20.25,5.5A.25.25,0,0,0,20,5.25"/><path class="cls-1" d="M20,5.75a.25.25,0,0,0,.25-.25"/><path class="cls-1" d="M19.75,5.5a.25.25,0,0,0,.25.25"/><path class="cls-1" d="M23,4.25a.25.25,0,0,0-.25.25"/><path class="cls-1" d="M23.25,4.5A.25.25,0,0,0,23,4.25"/><path class="cls-1" d="M23,4.75a.25.25,0,0,0,.25-.25"/><path class="cls-1" d="M22.75,4.5a.25.25,0,0,0,.25.25"/><path class="cls-1" d="M14.5,4.25a.25.25,0,0,0-.25.25"/><path class="cls-1" d="M14.75,4.5a.25.25,0,0,0-.25-.25"/><path class="cls-1" d="M14.5,4.75a.25.25,0,0,0,.25-.25"/><path class="cls-1" d="M14.25,4.5a.25.25,0,0,0,.25.25"/><path class="cls-1" d="M12,3.75a.25.25,0,0,0-.25.25"/><path class="cls-1" d="M12.25,4A.25.25,0,0,0,12,3.75"/><path class="cls-1" d="M12,4.25A.25.25,0,0,0,12.25,4"/><path class="cls-1" d="M11.75,4a.25.25,0,0,0,.25.25"/><path class="cls-1" d="M12,.75a.25.25,0,0,0-.25.25"/><path class="cls-1" d="M12.25,1A.25.25,0,0,0,12,.75"/><path class="cls-1" d="M12,1.25A.25.25,0,0,0,12.25,1"/><path class="cls-1" d="M11.75,1a.25.25,0,0,0,.25.25"/><path class="cls-1" d="M16.5,2.25a.25.25,0,0,0-.25.25"/><path class="cls-1" d="M16.75,2.5a.25.25,0,0,0-.25-.25"/><path class="cls-1" d="M16.5,2.75a.25.25,0,0,0,.25-.25"/><path class="cls-1" d="M16.25,2.5a.25.25,0,0,0,.25.25"/><path class="cls-1" d="M19,.75a.25.25,0,0,0-.25.25"/><path class="cls-1" d="M19.25,1A.25.25,0,0,0,19,.75"/><path class="cls-1" d="M19,1.25A.25.25,0,0,0,19.25,1"/><path class="cls-1" d="M18.75,1a.25.25,0,0,0,.25.25"/></svg>