<svg xmlns="http://www.w3.org/2000/svg" viewBox="0 0 24 24"><defs><style>.a{fill:none;stroke:#000;stroke-linecap:round;stroke-linejoin:round;}</style></defs><title>gas-load</title><rect class="a" x="0.5" y="1.5" width="13" height="21" rx="1" ry="1"/><rect class="a" x="8.5" y="13.5" width="2" height="4" rx="0.5" ry="0.5"/><path class="a" d="M22.5,16.191a.5.5,0,0,1-.276.447L20.5,17.5v-3H22a.5.5,0,0,1,.5.5Z"/><path class="a" d="M20.5,14.5V13c0-.827,3-3.5,3-3.5"/><path class="a" d="M20.5,17.5v3a2,2,0,0,1-4,0V7A1.5,1.5,0,0,0,15,5.5H13.5"/><line class="a" x1="0.5" y1="9.5" x2="13.5" y2="9.5"/><rect class="a" x="2.5" y="3.5" width="9" height="4" rx="0.5" ry="0.5"/><line class="a" x1="8.5" y1="19.5" x2="10.5" y2="19.5"/></svg>