<svg id="Light" xmlns="http://www.w3.org/2000/svg" viewBox="0 0 24 24"><defs><style>.cls-1{fill:none;stroke:#000;stroke-linecap:round;stroke-linejoin:round;}</style></defs><title>giraffe-body-1</title><path class="cls-1" d="M9.068,16.851A5.881,5.881,0,0,0,12,17.583h6.5l1,6"/><path class="cls-1" d="M.5,23.583l1.5-5q7.5,0,7.5-3a1.469,1.469,0,0,0-1.5-1.5"/><path class="cls-1" d="M2,18.583a5.4,5.4,0,0,0,2-4,3.193,3.193,0,0,1,3-3h5.5c1,0,1.8-1.091,3-3.5,1-2,2.5-6,4-6L22.278,3.82A3.211,3.211,0,0,1,23.5,6.583H21c-2,0-2.5,3-2.5,5v6"/><path class="cls-1" d="M18.5,2.617c0-1.5-3-1.534-3-1.534s.67,2.636,2.17,2.636"/><line class="cls-1" x1="20.5" y1="0.583" x2="19.5" y2="2.083"/><line class="cls-1" x1="22.406" y1="1.755" x2="21.406" y2="3.255"/><circle class="cls-1" cx="19.5" cy="4.583" r="0.25"/><path class="cls-1" d="M4.851,12.583H3a2.679,2.679,0,0,0-2.5,2.5"/><circle class="cls-1" cx="15.998" cy="15.083" r="0.25"/><circle class="cls-1" cx="15.998" cy="12.083" r="0.25"/><circle class="cls-1" cx="13.498" cy="14.083" r="0.25"/></svg>