<svg id="Light" xmlns="http://www.w3.org/2000/svg" viewBox="0 0 24 24"><defs><style>.cls-1{fill:none;stroke:#000;stroke-linecap:round;stroke-linejoin:round;}</style></defs><title>giraffe</title><path class="cls-1" d="M12,23.583c3,0,3.5-2.5,3.5-4.5s1.5-3.5,2.5-4.5c.707-.707,1.5-1.5,1.5-4a6.126,6.126,0,0,0-3-5.5v-3.5a1,1,0,1,0-2,0v2.5a2.362,2.362,0,0,1-2.5,2.5,2.362,2.362,0,0,1-2.5-2.5v-2.5a1,1,0,0,0-2,0v3.5a6.126,6.126,0,0,0-3,5.5c0,2.5.793,3.293,1.5,4,1,1,2.5,2.5,2.5,4.5S9,23.583,12,23.583Z"/><path class="cls-1" d="M8.75,11.083a.25.25,0,0,1,.25.25"/><path class="cls-1" d="M8.5,11.333a.25.25,0,0,1,.25-.25"/><path class="cls-1" d="M8.75,11.583a.249.249,0,0,1-.25-.25"/><path class="cls-1" d="M9,11.333a.249.249,0,0,1-.25.25"/><path class="cls-1" d="M15.25,11.083a.25.25,0,0,0-.25.25"/><path class="cls-1" d="M15.5,11.333a.25.25,0,0,0-.25-.25"/><path class="cls-1" d="M15.25,11.583a.249.249,0,0,0,.25-.25"/><path class="cls-1" d="M15,11.333a.249.249,0,0,0,.25.25"/><line class="cls-1" x1="11" y1="20.083" x2="10.5" y2="18.583"/><line class="cls-1" x1="13" y1="20.083" x2="13.5" y2="18.583"/><path class="cls-1" d="M6.337,5.975C5.948,4.727,4.789,1.964,2.073,1.619a.5.5,0,0,0-.563.515C1.678,6.7,3.933,7.759,4.977,8.007"/><path class="cls-1" d="M17.663,5.975c.389-1.248,1.548-4.011,4.264-4.356a.5.5,0,0,1,.563.515c-.168,4.561-2.423,5.625-3.467,5.873"/></svg>