<svg id="Light" xmlns="http://www.w3.org/2000/svg" viewBox="0 0 24 24"><defs><style>.cls-1{fill:none;stroke:#000;stroke-linecap:round;stroke-linejoin:round;}</style></defs><title>gmo-food-pear</title><path class="cls-1" d="M12,5.992c2.83,0,3.432,2.42,4.059,4.937.608,2.44,4.09,3.145,4.09,7.232S16.088,23.508,12,23.508s-8.149-1.259-8.149-5.347,3.482-4.792,4.09-7.232C8.567,8.412,9.17,5.992,12,5.992Z"/><path class="cls-1" d="M12,5.992v-.5a2.005,2.005,0,0,0-2-2H8"/><path class="cls-1" d="M14,4.992a4.5,4.5,0,0,0,4.5-4.5A4.5,4.5,0,0,0,14,4.992Z"/><line class="cls-1" x1="7.851" y1="14.508" x2="14.851" y2="21.508"/><line class="cls-1" x1="10.608" y1="14.437" x2="7.779" y2="17.265"/><line class="cls-1" x1="12.729" y1="16.558" x2="9.901" y2="19.387"/><line class="cls-1" x1="14.851" y1="18.679" x2="12.022" y2="21.508"/></svg>