<svg id="Light" xmlns="http://www.w3.org/2000/svg" viewBox="0 0 24 24"><defs><style>.cls-1{fill:none;stroke:#000;stroke-linecap:round;stroke-linejoin:round;}</style></defs><title>golf-hole-aim</title><path class="cls-1" d="M6.982,11.607c3.58,0,6.482,1.319,6.482,2.947S10.562,17.5,6.982,17.5.5,16.181.5,14.554c0-.718.564-1.375,1.5-1.886"/><path class="cls-1" d="M8.826,3.823a.5.5,0,0,0-.011-.908L4.533,1V5.869Z"/><line class="cls-1" x1="4.533" y1="13.964" x2="4.533" y2="5.869"/><circle class="cls-1" cx="10.75" cy="21.75" r="1.25"/><path class="cls-1" d="M23.5,4,18.142,22.344a1,1,0,0,1-.922.637L15.2,23a1.5,1.5,0,1,1,1.088-2.8L18.5,21"/></svg>