<svg id="Light" xmlns="http://www.w3.org/2000/svg" viewBox="0 0 24 24"><defs><style>.cls-1{fill:none;stroke:#000;stroke-linecap:round;stroke-linejoin:round;}</style></defs><title>golf-equipment</title><path class="cls-1" d="M6.75,8.5h10a.5.5,0,0,1,.5.5V20.5a3,3,0,0,1-3,3h-5a3,3,0,0,1-3-3V9a.5.5,0,0,1,.5-.5Z"/><line class="cls-1" x1="17.25" y1="11.5" x2="6.25" y2="11.5"/><path class="cls-1" d="M14.25,17a2.5,2.5,0,0,1-5,0V15a.5.5,0,0,1,.5-.5h4a.5.5,0,0,1,.5.5Z"/><path class="cls-1" d="M15.25,8.5l1-5.323a1,1,0,0,1,.629-.928L18.75,1.5a1.5,1.5,0,0,1,0,3H16.037"/><path class="cls-1" d="M13.25,8.5V2.177a1,1,0,0,0-.629-.928L10.75.5a1.5,1.5,0,0,0,0,3h2.5"/><path class="cls-1" d="M8.164,8.5,7.75,3.677a1,1,0,0,0-.629-.928L5.25,2a1.5,1.5,0,0,0,0,3H7.864"/></svg>