<svg id="Light" xmlns="http://www.w3.org/2000/svg" viewBox="0 0 24 24"><defs><style>.cls-1{fill:none;stroke:#000;stroke-linecap:round;stroke-linejoin:round;}</style></defs><title>golf-hole-1</title><path class="cls-1" d="M10.442,5.769A.5.5,0,0,0,10.4,4.85L5.5,3V8.128Z"/><line class="cls-1" x1="5.5" y1="17" x2="5.5" y2="8.128"/><path class="cls-1" d="M3,13.19c-1.536.822-2.5,2-2.5,3.31C.5,18.985,3.97,21,8.25,21c4.077,0,7.412-1.829,7.72-4.151a10.082,10.082,0,0,0,1.53.119c3.314,0,6-1.56,6-3.484S20.814,10,17.5,10c-2.718,0-5.011,1.05-5.749,2.489A12.448,12.448,0,0,0,8.25,12"/></svg>