<svg xmlns="http://www.w3.org/2000/svg" viewBox="0 0 24 24"><defs><style>.a{fill:none;stroke:#000;stroke-linecap:round;stroke-linejoin:round;}</style></defs><title>graphic-tablet-draw</title><path class="a" d="M23.5,8.5V20a1,1,0,0,1-1,1H1.5a1,1,0,0,1-1-1V4a1,1,0,0,1,1-1H19"/><polyline class="a" points="21.5 10.502 21.5 19 2.5 19 2.5 5 17 5"/><circle class="a" cx="8" cy="11.5" r="1.5"/><circle class="a" cx="8" cy="11.5" r="3.5"/><line class="a" x1="19" y1="13" x2="19" y2="19"/><line class="a" x1="19" y1="13" x2="21.5" y2="13"/><line class="a" x1="19" y1="16" x2="21.5" y2="16"/><path class="a" d="M23.087,6.413,18,11.5l-2.5.5L16,9.5l5.087-5.087a1.409,1.409,0,0,1,1.994,0l.006.006A1.409,1.409,0,0,1,23.087,6.413Z"/></svg>