<svg xmlns="http://www.w3.org/2000/svg" viewBox="0 0 24 24"><defs><style>.a{fill:none;stroke:#000;stroke-linecap:round;stroke-linejoin:round;}</style></defs><title>graphic-tablet-pen</title><path class="a" d="M16.562,17.543H2.5a2,2,0,0,1-2-2v-12a2,2,0,0,1,2-2h19a2,2,0,0,1,2,2v12a2,2,0,0,1-2,2h-.938"/><path class="a" d="M14.562,15.543H8a.5.5,0,0,1-.5-.5v-11a.5.5,0,0,1,.5-.5H21a.5.5,0,0,1,.5.5v11a.5.5,0,0,1-.5.5H18.562"/><path class="a" d="M11.062,12.043l-1-3,3,1,10,10a1.414,1.414,0,0,1-2,2Z"/><line class="a" x1="13.062" y1="10.043" x2="11.062" y2="12.043"/><path class="a" d="M5.5,6.543h-3v-2.5a.5.5,0,0,1,.5-.5H5a.5.5,0,0,1,.5.5Z"/><rect class="a" x="2.499" y="6.543" width="3" height="3"/><rect class="a" x="2.499" y="9.543" width="3" height="3"/><path class="a" d="M5.5,15.043a.5.5,0,0,1-.5.5H3a.5.5,0,0,1-.5-.5v-2.5h3Z"/></svg>