<svg xmlns="http://www.w3.org/2000/svg" viewBox="0 0 24 24"><defs><style>.a{fill:none;stroke:#000;stroke-linecap:round;stroke-linejoin:round;}</style></defs><title>grid-monitor</title><path class="a" d="M23,18.411A1.545,1.545,0,0,1,21.5,20H2.5A1.545,1.545,0,0,1,1,18.411V3.589A1.546,1.546,0,0,1,2.5,2h19A1.546,1.546,0,0,1,23,3.589Z"/><line class="a" x1="5.5" y1="22" x2="18.5" y2="22"/><line class="a" x1="12" y1="20" x2="12" y2="22"/><line class="a" x1="1" y1="16" x2="23" y2="16"/><line class="a" x1="9" y1="4" x2="9" y2="14"/><line class="a" x1="12" y1="4" x2="12" y2="14"/><line class="a" x1="15" y1="4" x2="15" y2="14"/><line class="a" x1="7" y1="12" x2="17" y2="12"/><line class="a" x1="7" y1="9" x2="17" y2="9"/><line class="a" x1="7" y1="6" x2="17" y2="6"/><path class="a" d="M12,17.75a.25.25,0,1,1-.25.25.25.25,0,0,1,.25-.25"/></svg>