<svg id="Light" xmlns="http://www.w3.org/2000/svg" viewBox="0 0 24 24"><defs><style>.cls-1{fill:none;stroke:#000;stroke-linecap:round;stroke-linejoin:round;}</style></defs><title>gymnastics-jump</title><path class="cls-1" d="M20.96,22.963a.5.5,0,0,1-.5.537H3.539a.5.5,0,0,1-.5-.537L4.5,3.5h15Z"/><line class="cls-1" x1="3.375" y1="18.5" x2="20.625" y2="18.5"/><line class="cls-1" x1="3.75" y1="13.5" x2="20.25" y2="13.5"/><line class="cls-1" x1="4.125" y1="8.5" x2="19.875" y2="8.5"/><path class="cls-1" d="M4.5,3.5c0-1.243,2.806-3,7.5-3s7.5,1.757,7.5,3"/><line class="cls-1" x1="10.5" y1="5.5" x2="13" y2="5.5"/><line class="cls-1" x1="10.5" y1="10.5" x2="13" y2="10.5"/><line class="cls-1" x1="10.5" y1="15.5" x2="13" y2="15.5"/><line class="cls-1" x1="10.5" y1="20.5" x2="13" y2="20.5"/></svg>