<svg id="Light" xmlns="http://www.w3.org/2000/svg" viewBox="0 0 24 24"><defs><style>.cls-1{fill:none;stroke:#000;stroke-linecap:round;stroke-linejoin:round;}</style></defs><title>gymnastics-horse</title><circle class="cls-1" cx="3" cy="3.5" r="2.5"/><path class="cls-1" d="M22,10.5H16.121L20.06,6.561A1.5,1.5,0,0,0,17.939,4.44l-5.682,5.683L8.938,8.187c.029-.03.057-.061.087-.09L13.56,3.562a1.5,1.5,0,1,0-2.121-2.121L6.9,5.976a6.453,6.453,0,0,0-1.9,4.6V15a1.5,1.5,0,1,0,3,0V11.114L11.744,13.3a1.5,1.5,0,0,0,.756.2H22a1.5,1.5,0,0,0,0-3Z"/><path class="cls-1" d="M.5,23V21a2,2,0,0,1,2-2h19a2,2,0,0,1,2,2v2"/><line class="cls-1" x1="6.5" y1="16.5" x2="6.5" y2="19"/><line class="cls-1" x1="17.5" y1="16.5" x2="17.5" y2="19"/></svg>