<svg id="Light" xmlns="http://www.w3.org/2000/svg" viewBox="0 0 24 24"><defs><style>.cls-1{fill:none;stroke:#000;stroke-linecap:round;stroke-linejoin:round;}</style></defs><title>hair-under-skin</title><line class="cls-1" x1="10.5" y1="9.25" x2="14" y2="9.25"/><path class="cls-1" d="M18.5,9.25h4a1,1,0,0,1,1,1v9a1,1,0,0,1-1,1H1.5a1,1,0,0,1-1-1v-9a1,1,0,0,1,1-1H6"/><circle class="cls-1" cx="7.5" cy="16.25" r="1"/><path class="cls-1" d="M7.5,15.25S7.021,7.042,12,3.75"/><circle class="cls-1" cx="15.5" cy="16.25" r="1"/><path class="cls-1" d="M15.5,15.25S15.021,7.042,20,3.75"/><path class="cls-1" d="M23.5,11.383l-1.591,1.326a2.008,2.008,0,0,1-2.706-.123,2.01,2.01,0,0,0-2.588-.214l-.731.523A2.008,2.008,0,0,1,13.3,12.68a2.009,2.009,0,0,0-2.706-.122,2.485,2.485,0,0,1-3.182,0l-.051-.043a1.936,1.936,0,0,0-2.608.118,1.936,1.936,0,0,1-2.608.119L.5,11.383"/><path class="cls-1" d="M2.75,16.25A.25.25,0,0,1,3,16.5"/><path class="cls-1" d="M2.5,16.5a.25.25,0,0,1,.25-.25"/><path class="cls-1" d="M2.75,16.75a.25.25,0,0,1-.25-.25"/><path class="cls-1" d="M3,16.5a.25.25,0,0,1-.25.25"/><path class="cls-1" d="M4.5,17.75a.25.25,0,0,1,.25.25"/><path class="cls-1" d="M4.25,18a.25.25,0,0,1,.25-.25"/><path class="cls-1" d="M4.5,18.25A.25.25,0,0,1,4.25,18"/><path class="cls-1" d="M4.75,18a.25.25,0,0,1-.25.25"/><path class="cls-1" d="M10,18a.25.25,0,0,1,.25.25"/><path class="cls-1" d="M9.75,18.25A.25.25,0,0,1,10,18"/><path class="cls-1" d="M10,18.5a.25.25,0,0,1-.25-.25"/><path class="cls-1" d="M10.25,18.25a.25.25,0,0,1-.25.25"/><path class="cls-1" d="M12.5,16a.25.25,0,0,1,.25.25"/><path class="cls-1" d="M12.25,16.25A.25.25,0,0,1,12.5,16"/><path class="cls-1" d="M12.5,16.5a.25.25,0,0,1-.25-.25"/><path class="cls-1" d="M12.75,16.25a.25.25,0,0,1-.25.25"/><path class="cls-1" d="M18,18a.25.25,0,0,1,.25.25"/><path class="cls-1" d="M17.75,18.25A.25.25,0,0,1,18,18"/><path class="cls-1" d="M18,18.5a.25.25,0,0,1-.25-.25"/><path class="cls-1" d="M18.25,18.25a.25.25,0,0,1-.25.25"/><path class="cls-1" d="M20.5,16a.25.25,0,0,1,.25.25"/><path class="cls-1" d="M20.25,16.25A.25.25,0,0,1,20.5,16"/><path class="cls-1" d="M20.5,16.5a.25.25,0,0,1-.25-.25"/><path class="cls-1" d="M20.75,16.25a.25.25,0,0,1-.25.25"/></svg>