<svg id="Light" xmlns="http://www.w3.org/2000/svg" viewBox="0 0 24 24"><defs><style>.cls-1{fill:none;stroke:#000;stroke-linecap:round;stroke-linejoin:round;}</style></defs><title>hair-skin</title><path class="cls-1" d="M23.5,11.664H18.48a.5.5,0,0,0-.5.461,6,6,0,0,1-11.964,0,.5.5,0,0,0-.5-.461H.5"/><path class="cls-1" d="M15.213,1.524a.5.5,0,0,0-.761-.59C12.059,2.71,7.835,6.271,8.491,11.155a3.712,3.712,0,0,0,3.534,3.509A3.472,3.472,0,0,0,15.5,11.155C15.5,8.418,12.537,8.117,15.213,1.524Z"/><path class="cls-1" d="M.75,22.171a.249.249,0,0,1,.25.248"/><path class="cls-1" d="M.5,22.419a.249.249,0,0,1,.25-.248"/><path class="cls-1" d="M.75,22.667a.249.249,0,0,1-.25-.248"/><path class="cls-1" d="M1,22.419a.249.249,0,0,1-.25.248"/><path class="cls-1" d="M3.25,18.7a.249.249,0,0,1,.25.248"/><path class="cls-1" d="M3,18.943a.249.249,0,0,1,.25-.248"/><path class="cls-1" d="M3.25,19.191A.249.249,0,0,1,3,18.943"/><path class="cls-1" d="M3.5,18.943a.249.249,0,0,1-.25.248"/><path class="cls-1" d="M6.75,22.171a.249.249,0,0,1,.25.248"/><path class="cls-1" d="M6.5,22.419a.249.249,0,0,1,.25-.248"/><path class="cls-1" d="M6.75,22.667a.249.249,0,0,1-.25-.248"/><path class="cls-1" d="M7,22.419a.249.249,0,0,1-.25.248"/><path class="cls-1" d="M9.25,18.7a.249.249,0,0,1,.25.248"/><path class="cls-1" d="M9,18.943a.249.249,0,0,1,.25-.248"/><path class="cls-1" d="M9.25,19.191A.249.249,0,0,1,9,18.943"/><path class="cls-1" d="M9.5,18.943a.249.249,0,0,1-.25.248"/><path class="cls-1" d="M14.75,22.171a.249.249,0,0,1,.25.248"/><path class="cls-1" d="M14.5,22.419a.249.249,0,0,1,.25-.248"/><path class="cls-1" d="M14.75,22.667a.249.249,0,0,1-.25-.248"/><path class="cls-1" d="M15,22.419a.249.249,0,0,1-.25.248"/><path class="cls-1" d="M17.25,18.7a.249.249,0,0,1,.25.248"/><path class="cls-1" d="M17,18.943a.249.249,0,0,1,.25-.248"/><path class="cls-1" d="M17.25,19.191a.249.249,0,0,1-.25-.248"/><path class="cls-1" d="M17.5,18.943a.249.249,0,0,1-.25.248"/><path class="cls-1" d="M20.75,22.171a.249.249,0,0,1,.25.248"/><path class="cls-1" d="M20.5,22.419a.249.249,0,0,1,.25-.248"/><path class="cls-1" d="M20.75,22.667a.249.249,0,0,1-.25-.248"/><path class="cls-1" d="M21,22.419a.249.249,0,0,1-.25.248"/><path class="cls-1" d="M.75,14.722a.25.25,0,0,1,.25.249"/><path class="cls-1" d="M.5,14.971a.25.25,0,0,1,.25-.249"/><path class="cls-1" d="M.75,15.219a.249.249,0,0,1-.25-.248"/><path class="cls-1" d="M1,14.971a.249.249,0,0,1-.25.248"/><path class="cls-1" d="M20.75,14.722a.25.25,0,0,1,.25.249"/><path class="cls-1" d="M20.5,14.971a.25.25,0,0,1,.25-.249"/><path class="cls-1" d="M20.75,15.219a.249.249,0,0,1-.25-.248"/><path class="cls-1" d="M21,14.971a.249.249,0,0,1-.25.248"/><path class="cls-1" d="M23.25,18.7a.249.249,0,0,1,.25.248"/><path class="cls-1" d="M23,18.943a.249.249,0,0,1,.25-.248"/><path class="cls-1" d="M23.25,19.191a.249.249,0,0,1-.25-.248"/><path class="cls-1" d="M23.5,18.943a.249.249,0,0,1-.25.248"/></svg>