<svg id="Light" xmlns="http://www.w3.org/2000/svg" viewBox="0 0 24 24"><defs><style>.cls-1{fill:none;stroke:#000;stroke-linecap:round;stroke-linejoin:round;}</style></defs><title>hair-dress-barber</title><rect class="cls-1" x="6.5" y="4.5" width="11" height="15"/><path class="cls-1" d="M5.5,2.5a2,2,0,0,1,2-2h9a2,2,0,0,1,2,2V4a.5.5,0,0,1-.5.5H6A.5.5,0,0,1,5.5,4Z"/><path class="cls-1" d="M18.5,21.5a2,2,0,0,1-2,2h-9a2,2,0,0,1-2-2v-2H18a.5.5,0,0,1,.5.5Z"/><line class="cls-1" x1="17.5" y1="7.75" x2="6.5" y2="12.75"/><line class="cls-1" x1="17.5" y1="11.75" x2="6.5" y2="16.75"/><line class="cls-1" x1="15.85" y1="4.5" x2="6.5" y2="8.75"/><line class="cls-1" x1="17.5" y1="15.75" x2="9.25" y2="19.5"/></svg>