<svg id="Light" xmlns="http://www.w3.org/2000/svg" viewBox="0 0 24 24"><defs><style>.cls-1{fill:none;stroke:#000;stroke-linecap:round;stroke-linejoin:round;}</style></defs><title>hair-dress-comb-1</title><line class="cls-1" x1="12.622" y1="15.619" x2="7.674" y2="20.568"/><line class="cls-1" x1="10.501" y1="13.498" x2="5.553" y2="18.447"/><line class="cls-1" x1="8.38" y1="11.377" x2="3.431" y2="16.325"/><path class="cls-1" d="M1.31,14.205,9.088,6.427a2,2,0,0,1,2.829,0h0a1.789,1.789,0,0,0,2.662-.147l2.708-3.738a2.986,2.986,0,0,1,4.529-.359h0a2.987,2.987,0,0,1-.359,4.529L17.719,9.421a1.789,1.789,0,0,0-.147,2.662h0a2,2,0,0,1,0,2.829L9.8,22.69"/><line class="cls-1" x1="14.744" y1="17.742" x2="6.258" y2="9.256"/></svg>