<svg id="Light" xmlns="http://www.w3.org/2000/svg" viewBox="0 0 24 24"><defs><style>.cls-1{fill:none;stroke:#000;stroke-linecap:round;stroke-linejoin:round;}</style></defs><title>hair-dress-chair-1</title><line class="cls-1" x1="11.992" y1="23.5" x2="12" y2="20.5"/><path class="cls-1" d="M17,19.5a1,1,0,0,1-1,1H8a1,1,0,0,1-1-1V19a1,1,0,0,1,1-1,16.259,16.259,0,0,1,8,0,1,1,0,0,1,1,1Z"/><path class="cls-1" d="M17,19.5a2,2,0,0,0,2-2v-2"/><path class="cls-1" d="M7,19.5a2,2,0,0,1-2-2v-2"/><path class="cls-1" d="M15,17.816V10.5a1,1,0,0,0-1-1H10a1,1,0,0,0-1,1v7.325"/><line class="cls-1" x1="7" y1="23.5" x2="17" y2="23.5"/><line class="cls-1" x1="18" y1="15.5" x2="20" y2="15.5"/><line class="cls-1" x1="4" y1="15.5" x2="6" y2="15.5"/><path class="cls-1" d="M4,23.5H2a1,1,0,0,1-1-1V1.5a1,1,0,0,1,1-1H22a1,1,0,0,1,1,1v21a1,1,0,0,1-1,1H20"/></svg>