<svg id="Light" xmlns="http://www.w3.org/2000/svg" viewBox="0 0 24 24"><defs><style>.cls-1{fill:none;stroke:#000;stroke-linecap:round;stroke-linejoin:round;}</style></defs><title>halloween-spider</title><path class="cls-1" d="M9.2,18.3A4.929,4.929,0,0,1,6.5,14,5.268,5.268,0,0,1,12,9a5.268,5.268,0,0,1,5.5,5,4.929,4.929,0,0,1-2.7,4.3"/><ellipse class="cls-1" cx="12" cy="20.25" rx="3.5" ry="3.25"/><path class="cls-1" d="M16.288,17.131l.57.095a4.073,4.073,0,0,1,2.789,1.89"/><path class="cls-1" d="M17.5,14a3.988,3.988,0,0,1,3.435.648L22,15.5"/><path class="cls-1" d="M6.5,14a3.988,3.988,0,0,0-3.435.648L2,15.5"/><path class="cls-1" d="M16.094,10.661l.83-.474a4,4,0,0,1,4.1.081L23,11.5"/><line class="cls-1" x1="12" y1="9" x2="12" y2="0.5"/><path class="cls-1" d="M7.712,17.131l-.57.095a4.073,4.073,0,0,0-2.789,1.89"/><path class="cls-1" d="M7.906,10.661l-.83-.474a4,4,0,0,0-4.1.081L1,11.5"/><path class="cls-1" d="M10.75,20a.25.25,0,0,1,.25.25"/><path class="cls-1" d="M10.5,20.25a.25.25,0,0,1,.25-.25"/><path class="cls-1" d="M10.75,20.5a.25.25,0,0,1-.25-.25"/><path class="cls-1" d="M11,20.25a.25.25,0,0,1-.25.25"/><path class="cls-1" d="M13.25,20a.25.25,0,0,1,.25.25"/><path class="cls-1" d="M13,20.25a.25.25,0,0,1,.25-.25"/><path class="cls-1" d="M13.25,20.5a.25.25,0,0,1-.25-.25"/><path class="cls-1" d="M13.5,20.25a.25.25,0,0,1-.25.25"/></svg>