<svg id="Light" xmlns="http://www.w3.org/2000/svg" viewBox="0 0 24 24"><defs><style>.cls-1{fill:none;stroke:#000;stroke-linecap:round;stroke-linejoin:round;}</style></defs><title>halloween-bat-fly</title><path class="cls-1" d="M19.006,11.887a.5.5,0,0,0-.7.409c-.089.949-.467,1.914-2.1,2.961a2.506,2.506,0,0,0-.763-1.985l-.377-2.153-1.6,1.4a2.334,2.334,0,0,0-1.239.4l-2.1-.189.945,1.921a2.513,2.513,0,0,0,.547,2.1c-1.937.118-2.812-.437-3.444-1.151a.5.5,0,0,0-.809.085c-1.433,2.534-.947,4.739-.081,7.463a.5.5,0,0,0,.947.018c1.032-2.858,3.313-2.376,4.346-1.2a.5.5,0,0,0,.642.093,2.173,2.173,0,0,1,2.308.183.5.5,0,0,0,.763-.25,2.167,2.167,0,0,1,1.756-1.508.5.5,0,0,0,.462-.454c.141-1.559,1.7-3.294,4.217-1.6a.5.5,0,0,0,.754-.573C22.567,15.155,21.657,13.088,19.006,11.887Z"/><path class="cls-1" d="M3.636,19.893A11.5,11.5,0,1,1,23.5,12"/></svg>