<svg id="Light" xmlns="http://www.w3.org/2000/svg" viewBox="0 0 24 24"><defs><style>.cls-1{fill:none;stroke:#000;stroke-linecap:round;stroke-linejoin:round;}</style></defs><title>halloween-calendar-skull</title><rect class="cls-1" x="0.5" y="2.5" width="23" height="21" rx="1" ry="1"/><line class="cls-1" x1="5.5" y1="0.5" x2="5.5" y2="5.5"/><line class="cls-1" x1="18.5" y1="0.5" x2="18.5" y2="5.5"/><line class="cls-1" x1="0.5" y1="7.5" x2="23.5" y2="7.5"/><line class="cls-1" x1="12" y1="18.5" x2="12" y2="20"/><path class="cls-1" d="M10,20V18.5a3,3,0,0,1-3-3,5,5,0,0,1,5-5h0a5,5,0,0,1,5,5,3,3,0,0,1-3,3V20"/><circle class="cls-1" cx="10" cy="15" r="1"/><circle class="cls-1" cx="14" cy="15" r="1"/></svg>