<svg id="Light" xmlns="http://www.w3.org/2000/svg" viewBox="0 0 24 24"><defs><style>.cls-1{fill:none;stroke:#000;stroke-linecap:round;stroke-linejoin:round;}</style></defs><title>halloween-graveyard</title><path class="cls-1" d="M23.5,19.741a9.518,9.518,0,0,0-3.125-.574,8.24,8.24,0,0,0-6.163,2.375,2.612,2.612,0,0,0-2.545-1.875A2.575,2.575,0,0,0,9.046,22a5.087,5.087,0,0,0-3.713-1.333,5.618,5.618,0,0,0-3.281.945,1.584,1.584,0,0,0-1.469-.945c-.028,0-.055.007-.083.008"/><path class="cls-1" d="M2.941,21.117l-.586-4.551a3.5,3.5,0,0,1,3.024-3.919h0A3.5,3.5,0,0,1,9.3,15.672l.6,4.648"/><path class="cls-1" d="M19.5,19.2V10H22a.5.5,0,0,0,.5-.5V7.521a.5.5,0,0,0-.5-.5H19.5v-2.5a.5.5,0,0,0-.5-.5H17a.5.5,0,0,0-.5.5v2.5H14a.5.5,0,0,0-.5.5V9.5a.5.5,0,0,0,.5.5h2.5v9.933"/><line class="cls-1" x1="5" y1="16.122" x2="6.989" y2="15.909"/><line class="cls-1" x1="5.888" y1="15.021" x2="6.154" y2="17.507"/><path class="cls-1" d="M2,6.521a8.08,8.08,0,0,1,2.25,1,8.08,8.08,0,0,1,2.25-1"/><path class="cls-1" d="M7.5,2a4.945,4.945,0,0,1,1.3.521A4.96,4.96,0,0,1,10.1,2"/></svg>