<svg id="Light" xmlns="http://www.w3.org/2000/svg" viewBox="0 0 24 24"><defs><style>.cls-1{fill:none;stroke:#000;stroke-linecap:round;stroke-linejoin:round;}</style></defs><title>halloween-vampire</title><path class="cls-1" d="M14,8.25a.25.25,0,0,1,.25.25"/><path class="cls-1" d="M13.75,8.5A.25.25,0,0,1,14,8.25"/><path class="cls-1" d="M14,8.75a.25.25,0,0,1-.25-.25"/><path class="cls-1" d="M14.25,8.5a.25.25,0,0,1-.25.25"/><path class="cls-1" d="M10,8.25a.25.25,0,0,1,.25.25"/><path class="cls-1" d="M9.75,8.5A.25.25,0,0,1,10,8.25"/><path class="cls-1" d="M10,8.75a.25.25,0,0,1-.25-.25"/><path class="cls-1" d="M10.25,8.5a.25.25,0,0,1-.25.25"/><path class="cls-1" d="M14.5,11a6.5,6.5,0,0,0-5,0"/><path class="cls-1" d="M12,14.5a6,6,0,0,0,6-6V3.268a1.986,1.986,0,0,0-1.246-1.853,12.808,12.808,0,0,0-9.508,0A1.986,1.986,0,0,0,6,3.268V8.5A6,6,0,0,0,12,14.5Z"/><line class="cls-1" x1="10.5" y1="10.673" x2="10.5" y2="12"/><line class="cls-1" x1="13.5" y1="10.673" x2="13.5" y2="12"/><path class="cls-1" d="M7.007,17l4.2,5.47a1,1,0,0,0,1.586,0l4.2-5.47"/><path class="cls-1" d="M23.5,23.5V21.047a2,2,0,0,0-.782-1.587C21.336,18.4,18.024,16.5,12,16.5S2.664,18.4,1.282,19.46A2,2,0,0,0,.5,21.047V23.5"/><line class="cls-1" x1="12" y1="22.858" x2="12" y2="16.5"/><path class="cls-1" d="M5.838,17.289C5.05,16.147,2.226,11.171,1.3,9.528a1,1,0,0,1,.079-1.1A6.665,6.665,0,0,1,6,6"/><path class="cls-1" d="M18.162,17.289c.788-1.142,3.612-6.118,4.54-7.761a1,1,0,0,0-.079-1.1A6.665,6.665,0,0,0,18,6"/><path class="cls-1" d="M18,4s-3.472-.515-5.5.652a1,1,0,0,1-1,0C9.471,3.485,6,4,6,4"/></svg>