<svg id="Light" xmlns="http://www.w3.org/2000/svg" viewBox="0 0 24 24"><defs><style>.cls-1{fill:none;stroke:#000;stroke-linecap:round;stroke-linejoin:round;}</style></defs><title>halloween-cauldron</title><circle class="cls-1" cx="22.5" cy="3" r="1"/><circle class="cls-1" cx="7" cy="1.5" r="1"/><path class="cls-1" d="M17,.5a.25.25,0,0,1,.25.25"/><path class="cls-1" d="M16.75.75A.25.25,0,0,1,17,.5"/><path class="cls-1" d="M17,1a.25.25,0,0,1-.25-.25"/><path class="cls-1" d="M17.25.75A.25.25,0,0,1,17,1"/><path class="cls-1" d="M14,9.968v3.944a2.557,2.557,0,0,0,1.821,2.5A2.508,2.508,0,0,0,19,14V10.816a2.926,2.926,0,0,0,2-2.7,2.933,2.933,0,0,0-3.76-3.009A3.992,3.992,0,0,0,13.5,2.5c-2.02,0-3.729,1.054-4,3-.526-.865-2-1-2.5-1C4.5,4.5,4,6.343,4,8h8.032"/><path class="cls-1" d="M21,8h1.069A1.469,1.469,0,0,1,23.5,9.5h0a1.312,1.312,0,0,1-.812,1.311,1.149,1.149,0,0,0-.671,1.426,8.584,8.584,0,0,1-.935,7.8h0A7.805,7.805,0,0,1,14.65,23.5H9.35a7.805,7.805,0,0,1-6.432-3.461h0a8.584,8.584,0,0,1-.935-7.8,1.149,1.149,0,0,0-.671-1.426A1.312,1.312,0,0,1,.5,9.5h0A1.469,1.469,0,0,1,1.935,8H4"/></svg>