<svg id="Light" xmlns="http://www.w3.org/2000/svg" viewBox="0 0 24 24"><defs><style>.cls-1{fill:none;stroke:#000;stroke-linecap:round;stroke-linejoin:round;}</style></defs><title>hamster-toy</title><path class="cls-1" d="M1.5,20.5V2.5a2,2,0,0,1,2-2h17a2,2,0,0,1,2,2v18"/><path class="cls-1" d="M1,20.5H23a.5.5,0,0,1,.5.5v.5a2,2,0,0,1-2,2H2.5a2,2,0,0,1-2-2V21A.5.5,0,0,1,1,20.5Z"/><polyline class="cls-1" points="10.5 9.5 15.5 14.5 8 20.5"/><path class="cls-1" d="M10.5,9.5h-9V8.169A4.61,4.61,0,0,1,5.07,3.593,4.505,4.505,0,0,1,10.5,8Z"/><line class="cls-1" x1="13.5" y1="0.5" x2="13.5" y2="10"/><line class="cls-1" x1="16.5" y1="0.5" x2="16.5" y2="12.5"/><line class="cls-1" x1="19.5" y1="0.5" x2="19.5" y2="12.5"/><line class="cls-1" x1="4.5" y1="11.5" x2="4.5" y2="20.5"/><line class="cls-1" x1="7.5" y1="11.5" x2="7.5" y2="20.5"/><line class="cls-1" x1="10.5" y1="12" x2="10.5" y2="16"/><line class="cls-1" x1="10.5" y1="0.5" x2="10.5" y2="2.996"/><line class="cls-1" x1="13.5" y1="18.51" x2="13.5" y2="20.5"/><line class="cls-1" x1="16.5" y1="16.5" x2="16.5" y2="20.5"/><line class="cls-1" x1="19.5" y1="16.5" x2="19.5" y2="20.5"/><line class="cls-1" x1="15.5" y1="14.5" x2="22.5" y2="14.5"/><path class="cls-1" d="M7.5,7a1.5,1.5,0,0,0-3,0V9.5h3Z"/></svg>