<svg xmlns="http://www.w3.org/2000/svg" viewBox="0 0 24 24"><defs><style>.a{fill:none;stroke:#000;stroke-linecap:round;stroke-linejoin:round;}</style></defs><title>hardware-nails</title><path class="a" d="M6.5,15.959a.5.5,0,0,1-.026.159l-1,3a.5.5,0,0,1-.948,0l-1-3a.5.5,0,0,1-.026-.159V2.541h3Z"/><path class="a" d="M9.5,1.541a1,1,0,0,1-1,1h-7a1,1,0,0,1,0-2h7A1,1,0,0,1,9.5,1.541Z"/><path class="a" d="M13.675,21.083a.483.483,0,0,1-.1.125L11.23,23.33a.5.5,0,0,1-.826-.466l.6-3.1a.507.507,0,0,1,.055-.151L17.653,7.921,20.267,9.4Z"/><path class="a" d="M23.371,10a1,1,0,0,1-1.362.38l-6.1-3.438A1,1,0,1,1,16.894,5.2l6.1,3.438A1,1,0,0,1,23.371,10Z"/></svg>