<svg xmlns="http://www.w3.org/2000/svg" viewBox="0 0 24 24"><defs><style>.a{fill:none;stroke:#000;stroke-linecap:round;stroke-linejoin:round;}</style></defs><title>hardware-drill-carbide</title><path class="a" d="M8.5,23a.5.5,0,0,1-.5.5H5a.5.5,0,0,1-.5-.5V2.875a.5.5,0,0,1,.11-.312L6.11.688a.5.5,0,0,1,.78,0l1.5,1.875a.5.5,0,0,1,.11.312Z"/><path class="a" d="M14.5,23a.5.5,0,0,1-.5.5H12a.5.5,0,0,1-.5-.5V5.667a.508.508,0,0,1,.071-.258l1-1.666a.5.5,0,0,1,.858,0l1,1.666a.508.508,0,0,1,.071.258Z"/><path class="a" d="M19.5,23a.5.5,0,0,1-.5.5H18a.5.5,0,0,1-.5-.5V7.25a.493.493,0,0,1,.036-.186l.5-1.25a.5.5,0,0,1,.928,0l.5,1.25a.493.493,0,0,1,.036.186Z"/><line class="a" x1="4.5" y1="8.7" x2="8.5" y2="2.7"/><line class="a" x1="4.5" y1="13.2" x2="8.5" y2="7.2"/><line class="a" x1="4.5" y1="17.7" x2="8.5" y2="11.7"/><line class="a" x1="11.5" y1="10.028" x2="14.5" y2="5.528"/><line class="a" x1="11.5" y1="14.528" x2="14.5" y2="10.028"/><line class="a" x1="11.5" y1="19.028" x2="14.5" y2="14.528"/><line class="a" x1="17.5" y1="10.154" x2="19.5" y2="7.154"/><line class="a" x1="17.5" y1="14.654" x2="19.5" y2="11.654"/><line class="a" x1="17.5" y1="19.154" x2="19.5" y2="16.154"/></svg>