<svg xmlns="http://www.w3.org/2000/svg" viewBox="0 0 24 24"><defs><style>.a{fill:none;stroke:#000;stroke-linecap:round;stroke-linejoin:round;}</style></defs><title>hardware-nuts-1</title><path class="a" d="M11.3.5H4.7a1,1,0,0,0-.844.463l-3.2,5.52a1,1,0,0,0,0,1.077l3.2,5.48a1,1,0,0,0,.842.46H11.3a1,1,0,0,0,.842-.46l3.2-5.48a1,1,0,0,0,0-1.077l-3.2-5.52A1,1,0,0,0,11.3.5Z"/><circle class="a" cx="8" cy="7" r="3.5"/><path class="a" d="M18,8.77A7.5,7.5,0,1,1,8.5,16"/><path class="a" d="M16,12.5A3.5,3.5,0,1,1,12.5,16"/></svg>