<svg id="Light" xmlns="http://www.w3.org/2000/svg" viewBox="0 0 24 24"><defs><style>.cls-1{fill:none;stroke:#000;stroke-linecap:round;stroke-linejoin:round;}</style></defs><title>hat-architect</title><path class="cls-1" d="M12,4a8.5,8.5,0,0,0-8.5,8.5v2.078a1,1,0,0,0,.359.767C4.678,16.031,7.017,17.5,12,17.5s7.321-1.469,8.141-2.155a1,1,0,0,0,.359-.767V12.5A8.5,8.5,0,0,0,12,4Z"/><path class="cls-1" d="M14.491,4.371S13.53,1.5,12,1.5,9.507,4.371,9.507,4.371"/><path class="cls-1" d="M3.5,12.469C1.642,13.535.5,14.946.5,16.5c0,3.314,5.149,6,11.5,6s11.5-2.686,11.5-6c0-1.554-1.142-2.966-3-4.031"/><line class="cls-1" x1="11.999" y1="4" x2="11.999" y2="17.5"/><line class="cls-1" x1="5.806" y1="6.678" x2="11.999" y2="17.5"/><line class="cls-1" x1="18.192" y1="6.678" x2="11.999" y2="17.5"/><path class="cls-1" d="M9.971,22.407A24.947,24.947,0,0,1,23.15,17.972"/></svg>