<svg id="Light" xmlns="http://www.w3.org/2000/svg" viewBox="0 0 24 24"><defs><style>.cls-1{fill:none;stroke:#000;stroke-linecap:round;stroke-linejoin:round;}</style></defs><title>hat-lady-1</title><path class="cls-1" d="M19.365,10.081A7.539,7.539,0,0,1,19.5,11.5V17H4.5V11.5A7.513,7.513,0,0,1,13,4.066"/><path class="cls-1" d="M22.324,19.438,19.5,17H4.5L1.674,19.438a.5.5,0,0,0,.165.853A31.353,31.353,0,0,0,12,22a31.364,31.364,0,0,0,10.161-1.71.5.5,0,0,0,.164-.853Z"/><line class="cls-1" x1="4.499" y1="15.001" x2="19.499" y2="15.001"/><line class="cls-1" x1="21.499" y1="5.999" x2="13.499" y2="5.999"/><line class="cls-1" x1="17.499" y1="1.999" x2="17.499" y2="9.999"/><line class="cls-1" x1="20.328" y1="8.828" x2="14.671" y2="3.171"/><line class="cls-1" x1="20.328" y1="3.171" x2="14.671" y2="8.828"/></svg>