<svg id="Light" xmlns="http://www.w3.org/2000/svg" viewBox="0 0 24 24"><defs><style>.cls-1{fill:none;stroke:#000;stroke-linecap:round;stroke-linejoin:round;}</style></defs><title>hat-1</title><path class="cls-1" d="M18.69,16.711,17.576,4.417a1,1,0,0,0-1-.917H7.419a1,1,0,0,0-1,.917L5.309,16.711"/><line class="cls-1" x1="5.781" y1="11.5" x2="18.217" y2="11.5"/><line class="cls-1" x1="5.509" y1="14.5" x2="18.489" y2="14.5"/><path class="cls-1" d="M23.5,17.317a1.478,1.478,0,0,1-1.224,1.456l-9.591,1.668a3.989,3.989,0,0,1-1.37,0l-9.59-1.668a1.478,1.478,0,0,1-.7-2.587,1.462,1.462,0,0,1,1.33-.29l8.578,2.37a4.01,4.01,0,0,0,2.13,0l8.578-2.37a1.464,1.464,0,0,1,1.331.29A1.481,1.481,0,0,1,23.5,17.317Z"/></svg>