<svg id="Light" xmlns="http://www.w3.org/2000/svg" viewBox="0 0 24 24"><defs><style>.cls-1{fill:none;stroke:#000;stroke-linecap:round;stroke-linejoin:round;}</style></defs><title>hat-lady</title><path class="cls-1" d="M13.725,15.875A19.711,19.711,0,0,1,11.5,16a16.731,16.731,0,0,1-8.418-2.083"/><path class="cls-1" d="M13.034,13.441c-.5.039-1.015.059-1.535.059a17.208,17.208,0,0,1-7.791-1.736"/><path class="cls-1" d="M17.02,12.56a4.917,4.917,0,0,0-3.2-1.376,1,1,0,0,0-1.066,1.267l1.081,3.82a1,1,0,0,0,1.521.557,7.076,7.076,0,0,0,2.162-2.56"/><path class="cls-1" d="M18.808,12.053a4.921,4.921,0,0,1,2-2.846,1,1,0,0,1,1.572.521l1.08,3.82a1,1,0,0,1-1,1.272,7.1,7.1,0,0,1-3.182-1.048"/><rect class="cls-1" x="17.151" y="11.644" width="2" height="3" rx="1" ry="1" transform="translate(-2.893 5.438) rotate(-15.799)"/><path class="cls-1" d="M20.077,9.846A8.3,8.3,0,0,0,3.708,11.707a4.225,4.225,0,0,1-1.256,3L1.02,16.126a1.747,1.747,0,0,0-.464,1.686A1.767,1.767,0,0,0,1.79,19.06a36.912,36.912,0,0,0,20.419,0,1.767,1.767,0,0,0,1.233-1.248,1.749,1.749,0,0,0-.462-1.686l-1.447-1.432"/></svg>