<svg xmlns="http://www.w3.org/2000/svg" viewBox="0 0 24 24"><defs><style>.a{fill:none;stroke:#000;stroke-linecap:round;stroke-linejoin:round;}</style></defs><title>heater-1</title><path class="a" d="M15.5.492h-7c-5.5,0-5,4.531-5,9v11a2,2,0,0,0,2,2h13a2,2,0,0,0,2-2v-11C20.5,4.992,21,.492,15.5.492Z"/><line class="a" x1="7.52" y1="2.492" x2="16.52" y2="2.492"/><line class="a" x1="7.52" y1="4.492" x2="16.52" y2="4.492"/><path class="a" d="M16.5,15.992a4.5,4.5,0,0,0-9,0v6.5h9Z"/><path class="a" d="M5.5,1.2V6.492a2,2,0,0,0,2,2h9a2,2,0,0,0,2-2V1.2"/><line class="a" x1="6.5" y1="23.508" x2="6.5" y2="22.492"/><line class="a" x1="17.5" y1="23.508" x2="17.5" y2="22.492"/></svg>