<svg xmlns="http://www.w3.org/2000/svg" viewBox="0 0 24 24"><defs><style>.a{fill:none;stroke:#000;stroke-linecap:round;stroke-linejoin:round;}</style></defs><title>heavy-equipment-flattener</title><path class="a" d="M23.5,17V14.5a4,4,0,0,0-4-4h-1v-6a1,1,0,0,0-1-1H10.964A1,1,0,0,0,10,4.237L7.892,11.72"/><circle class="a" cx="20" cy="17" r="3.5"/><path class="a" d="M20,16.75a.25.25,0,0,0-.25.25"/><path class="a" d="M20.249,17a.25.25,0,0,0-.25-.25"/><path class="a" d="M20,17.25a.25.25,0,0,0,.25-.25"/><path class="a" d="M19.749,17a.25.25,0,0,0,.25.25"/><rect class="a" x="0.5" y="15.457" width="12" height="3" rx="1" ry="1"/><line class="a" x1="18.5" y1="10.5" x2="8.236" y2="10.5"/><path class="a" d="M2.032,15.457a4.5,4.5,0,0,1,8.936,0"/><path class="a" d="M10.271,18.457a4.5,4.5,0,0,1-7.542,0"/><line class="a" x1="12.5" y1="17.5" x2="16.5" y2="17.5"/><line class="a" x1="13.499" y1="3.5" x2="13.499" y2="10.5"/></svg>