<svg xmlns="http://www.w3.org/2000/svg" viewBox="0 0 24 24"><defs><style>.a{fill:none;stroke:#000;stroke-linecap:round;stroke-linejoin:round;}</style></defs><title>heavy-equipment-mortar-truck-1</title><circle class="a" cx="5" cy="19" r="2"/><circle class="a" cx="19" cy="19" r="2"/><line class="a" x1="7" y1="19" x2="17" y2="19"/><path class="a" d="M3,19H1a.5.5,0,0,1-.5-.5V15a1.391,1.391,0,0,1,.354-.854L2.5,12.5,4.757,8.437A.942.942,0,0,1,5.5,8H9a.5.5,0,0,1,.5.5V17"/><line class="a" x1="0.5" y1="17" x2="23.5" y2="17"/><path class="a" d="M21.041,13.237c-3.536,3.535-6.338,2.854-8.486.707s-2.829-4.95.707-8.485C15.115,3.605,20.033,3.1,21.161,3a.5.5,0,0,1,.4.144l1.8,1.8a.5.5,0,0,1,.144.394C23.408,6.462,22.913,11.365,21.041,13.237Z"/><line class="a" x1="14.567" y1="4.559" x2="21.942" y2="11.934"/><line class="a" x1="2.5" y1="12.5" x2="9.5" y2="12.5"/></svg>