<svg xmlns="http://www.w3.org/2000/svg" viewBox="0 0 24 24"><defs><style>.a{fill:none;stroke:#000;stroke-linecap:round;stroke-linejoin:round;}</style></defs><title>heavy-equipment-hook</title><line class="a" x1="13.5" y1="23.36" x2="0.5" y2="23.36"/><line class="a" x1="8.5" y1="23.36" x2="5.5" y2="23.36"/><path class="a" d="M2.68,23.36v-5a1.277,1.277,0,0,1,.374-.832L5.5,15.36h3l2.315,2.159a1.32,1.32,0,0,1,.365.841v5"/><path class="a" d="M8,5.36c.275,0,.724.022,1,.05L23.5,6.86v1a.5.5,0,0,1-.5.5H1a.5.5,0,0,1-.5-.5v-1L5.021,5.5A4.1,4.1,0,0,1,6,5.36Z"/><path class="a" d="M.5,6.86,6.767,1.041a1.714,1.714,0,0,1,1.659-.3L23.5,6.86"/><path class="a" d="M20.5,8.36v6.708a1,1,0,0,0,.6.917A1.5,1.5,0,1,1,19,17.36"/><line class="a" x1="5.5" y1="10.36" x2="8.5" y2="13.36"/><line class="a" x1="8.5" y1="18.36" x2="5.5" y2="21.36"/><line class="a" x1="12.5" y1="5.76" x2="12.5" y2="8.36"/><line class="a" x1="7.5" y1="0.682" x2="7.5" y2="5.36"/><line class="a" x1="8.5" y1="5.375" x2="8.5" y2="23.36"/><line class="a" x1="5.5" y1="23.36" x2="5.5" y2="5.403"/></svg>