<svg xmlns="http://www.w3.org/2000/svg" viewBox="0 0 24 24"><defs><style>.a{fill:none;stroke:#000;stroke-linecap:round;stroke-linejoin:round;}</style></defs><title>heavy-equipment-cleaner-2</title><path class="a" d="M11.75,9l.861-5.164A1,1,0,0,1,13.6,3H18.75a1,1,0,0,1,1,1V9"/><path class="a" d="M6.3,16.94,5.75,12l.772-2.316A1,1,0,0,1,7.471,9H11.75l.5,2h4.5l.5-2h3.18a1,1,0,0,1,.981.8l.6,3A1,1,0,0,1,21.03,14H15.25l-1.5,2"/><path class="a" d="M8.25,21a2.5,2.5,0,0,1,0-5h12a2.5,2.5,0,0,1,0,5Z"/><path class="a" d="M8.25,18.25a.25.25,0,0,1,.25.25"/><path class="a" d="M8,18.5a.25.25,0,0,1,.25-.25"/><path class="a" d="M8.25,18.75A.25.25,0,0,1,8,18.5"/><path class="a" d="M8.5,18.5a.25.25,0,0,1-.25.25"/><path class="a" d="M20.25,18.25a.25.25,0,0,1,.25.25"/><path class="a" d="M20,18.5a.25.25,0,0,1,.25-.25"/><path class="a" d="M20.25,18.75A.25.25,0,0,1,20,18.5"/><path class="a" d="M20.5,18.5a.25.25,0,0,1-.25.25"/><path class="a" d="M1.25,11.5A6.57,6.57,0,0,1,2.75,16a6.57,6.57,0,0,1-1.5,4.5"/><line class="a" x1="2.507" y1="14" x2="5.972" y2="14"/><line class="a" x1="2.507" y1="18" x2="5.801" y2="18"/><line class="a" x1="21.75" y1="13.687" x2="21.75" y2="16.5"/><path class="a" d="M8.75,9V6c0-.5-.5-1.5-1-1.5"/><line class="a" x1="17.25" y1="9" x2="17.25" y2="6"/><line class="a" x1="11.75" y1="9" x2="14.25" y2="8"/><line class="a" x1="13.75" y1="7" x2="14.75" y2="8.5"/><line class="a" x1="5.75" y1="12" x2="9.25" y2="12"/></svg>