<svg xmlns="http://www.w3.org/2000/svg" viewBox="0 0 24 24"><defs><style>.a{fill:none;stroke:#000;stroke-linecap:round;stroke-linejoin:round;}</style></defs><title>heavy-equipment-tractor</title><path class="a" d="M1.5,17.563l1.38-5.577A.674.674,0,0,1,3.5,11.5h8l2.365-8.518A.7.7,0,0,1,14.5,2.5H22a.573.573,0,0,1,.555.5l.89,8c.03.274.055.722.055,1v6"/><line class="a" x1="13" y1="20.5" x2="7.5" y2="20.5"/><circle class="a" cx="4" cy="20" r="3.5"/><circle class="a" cx="18" cy="18" r="5.5"/><path class="a" d="M9,11.5v-5a1,1,0,0,0-1-1H7a1,1,0,0,0-1,1v5"/><polyline class="a" points="5 0.5 7.5 0.5 7.5 5.5"/><circle class="a" cx="18" cy="18" r="2.5"/><path class="a" d="M4,19.75a.25.25,0,0,1,.25.25"/><path class="a" d="M3.751,20A.25.25,0,0,1,4,19.75"/><path class="a" d="M4,20.25a.25.25,0,0,1-.25-.25"/><path class="a" d="M4.251,20a.25.25,0,0,1-.25.25"/><path class="a" d="M19,2.5V8a1.776,1.776,0,0,1-.894,1.447l-3.212,1.606A5.042,5.042,0,0,1,13,11.5H11.5"/></svg>