<svg xmlns="http://www.w3.org/2000/svg" viewBox="0 0 24 24"><defs><style>.a{fill:none;stroke:#000;stroke-linecap:round;stroke-linejoin:round;}</style></defs><title>heavy-equipment-truck</title><path class="a" d="M7.685,18.039v-6a1,1,0,0,0-1-1H2.845a1,1,0,0,0-.92.606L.685,14.539v2.5a1,1,0,0,0,1,1H3.954"/><circle class="a" cx="5.685" cy="19.039" r="2"/><circle class="a" cx="16.685" cy="19.039" r="2"/><line class="a" x1="7.685" y1="16.039" x2="14.185" y2="16.039"/><line class="a" x1="14.955" y1="18.039" x2="7.416" y2="18.039"/><path class="a" d="M18.417,18.039h1.268a1,1,0,0,0,1-1V15.7"/><path class="a" d="M12.815,3.179,13.3,5.632l-2.176,4.5a1,1,0,0,0,.466,1.336L20.139,15.6a1,1,0,0,0,1.336-.465l1.74-3.6A1,1,0,0,0,22.75,10.2l-4.5-2.175-.384-1.963a1,1,0,0,0-.547-.708L12.365,2.961"/><line class="a" x1="16.245" y1="8.723" x2="15.157" y2="10.974"/><line class="a" x1="19.396" y1="10.246" x2="18.308" y2="12.497"/><path class="a" d="M12.685,16.039v-1.5a1.389,1.389,0,0,1,.354-.854l1.026-1.017"/><path class="a" d="M.9,14.039H4.185a.5.5,0,0,0,.5-.5v-2.5"/></svg>