<svg xmlns="http://www.w3.org/2000/svg" viewBox="0 0 24 24"><defs><style>.a{fill:none;stroke:#000;stroke-linecap:round;stroke-linejoin:round;}</style></defs><title>heavy-equipment-lift-hook-box</title><path class="a" d="M13.819,17.51a2,2,0,0,1-1.974-2.293l.9-5.99a2,2,0,0,1,1.974-1.7h4.27a.5.5,0,0,1,.5.5v4.493H22.98a.5.5,0,0,1,.5.5v2.5a2,2,0,0,1-2,2Z"/><path class="a" d="M23.48,21.5a2,2,0,0,1-2,2H12.5a2,2,0,0,1,0-3.993h8.984A2,2,0,0,1,23.48,21.5Z"/><line class="a" x1="4.513" y1="3.109" x2="4.513" y2="14.515"/><path class="a" d="M10.567,10.3,3.686,2.127A.989.989,0,0,1,5.065.721l8.709,7.047"/><path class="a" d="M13.5,21.254a.25.25,0,0,1,.25.25"/><path class="a" d="M13.25,21.5a.249.249,0,0,1,.249-.25"/><path class="a" d="M13.5,21.753a.249.249,0,0,1-.249-.249"/><path class="a" d="M13.749,21.5a.25.25,0,0,1-.25.249"/><path class="a" d="M16.993,21.254a.25.25,0,0,1,.25.25"/><path class="a" d="M16.743,21.5a.25.25,0,0,1,.25-.25"/><path class="a" d="M16.993,21.753a.25.25,0,0,1-.25-.249"/><path class="a" d="M17.243,21.5a.25.25,0,0,1-.25.249"/><path class="a" d="M20.487,21.254a.249.249,0,0,1,.249.25"/><path class="a" d="M20.237,21.5a.25.25,0,0,1,.25-.25"/><path class="a" d="M20.487,21.753a.25.25,0,0,1-.25-.249"/><path class="a" d="M20.736,21.5a.249.249,0,0,1-.249.249"/><rect class="a" x="0.52" y="14.515" width="7.986" height="6.988" rx="0.5" ry="0.5"/><line class="a" x1="0.677" y1="14.652" x2="8.35" y2="21.366"/><line class="a" x1="8.35" y1="14.652" x2="0.677" y2="21.366"/><line class="a" x1="19.487" y1="12.519" x2="12.25" y2="12.519"/></svg>