<svg xmlns="http://www.w3.org/2000/svg" viewBox="0 0 24 24"><defs><style>.a{fill:none;stroke:#000;stroke-linecap:round;stroke-linejoin:round;}</style></defs><title>heavy-equipment-lift-hook</title><path class="a" d="M13.75,13.388v-2a1,1,0,0,0-1-1H9.868a1,1,0,0,0-.894.553L7.75,13.388v3a1,1,0,0,0,1,1h11a1,1,0,0,0,1-1v-3Z"/><path class="a" d="M9.25,23.388a2,2,0,0,1,0-4h10.5a2,2,0,0,1,0,4Z"/><path class="a" d="M9.25,21.138a.25.25,0,0,1,.25.25"/><path class="a" d="M9,21.388a.25.25,0,0,1,.25-.25"/><path class="a" d="M9.25,21.638a.25.25,0,0,1-.25-.25"/><path class="a" d="M9.5,21.388a.25.25,0,0,1-.25.25"/><path class="a" d="M19.75,21.138a.25.25,0,0,1,.25.25"/><path class="a" d="M19.5,21.388a.25.25,0,0,1,.25-.25"/><path class="a" d="M19.75,21.638a.25.25,0,0,1-.25-.25"/><path class="a" d="M20,21.388a.25.25,0,0,1-.25.25"/><path class="a" d="M20.75,13.388,7.451,2.464a1,1,0,0,0-1.342.066l-.117.117a1,1,0,0,0,.034,1.447L10.75,8.388"/><path class="a" d="M5.25,8.888a1.5,1.5,0,1,1-2.1-1.375,1,1,0,0,0,.6-.917V.888c0-.275.176-.359.39-.187L6.25,2.388"/><polyline class="a" points="7.75 13.388 11.75 13.388 11.75 10.388"/></svg>