<svg id="Light" xmlns="http://www.w3.org/2000/svg" viewBox="0 0 24 24"><defs><style>.cls-1{fill:none;stroke:#000;stroke-linecap:round;stroke-linejoin:round;}</style></defs><title>hedgehog</title><path class="cls-1" d="M9.4,5a62.013,62.013,0,0,1,9.5,4c4,2,4.5,4.5,4.5,4.5.5,1-1,2-3.5,2.5s-4-.5-4-1.5"/><line class="cls-1" x1="12.452" y1="8.5" x2="5.452" y2="6.5"/><line class="cls-1" x1="8.952" y1="10" x2="1.952" y2="9"/><line class="cls-1" x1="6.952" y1="12" x2="0.5" y2="12.5"/><line class="cls-1" x1="6.452" y1="14.5" x2="2.452" y2="16"/><line class="cls-1" x1="18.404" y1="16.128" x2="18.404" y2="19"/><path class="cls-1" d="M15.452,19V17a12.208,12.208,0,0,1-3.5.5,14.778,14.778,0,0,1-4.5-1V19"/><path class="cls-1" d="M19.2,12a.25.25,0,0,0-.25.25"/><path class="cls-1" d="M19.452,12.25A.25.25,0,0,0,19.2,12"/><path class="cls-1" d="M19.2,12.5a.25.25,0,0,0,.25-.25"/><path class="cls-1" d="M18.952,12.25a.25.25,0,0,0,.25.25"/><line class="cls-1" x1="10.452" y1="17.352" x2="10.452" y2="19"/></svg>