<svg id="Light" xmlns="http://www.w3.org/2000/svg" viewBox="0 0 24 24"><defs><style>.cls-1{fill:none;stroke:#000;stroke-linecap:round;stroke-linejoin:round;}</style></defs><title>hippo-body</title><path class="cls-1" d="M8.5,20.563v-3.5c0-1.5-.5-2-1.5-2H3c-2.5,0-2.5-2-2.5-2H3.9A2.213,2.213,0,0,0,5.263,9.1L2,6.563a2.938,2.938,0,0,1,3-3,4.075,4.075,0,0,1,4,3.5,2.415,2.415,0,0,1,2,0c1,.5,1,1,1,1a2.335,2.335,0,0,1,2.5-1,1.283,1.283,0,0,1-.5,2.5"/><path class="cls-1" d="M4.5,5.563a.693.693,0,0,1,1,0"/><path class="cls-1" d="M9.75,9.063a.25.25,0,0,1,.25.25"/><path class="cls-1" d="M9.5,9.313a.25.25,0,0,1,.25-.25"/><path class="cls-1" d="M9.75,9.563a.25.25,0,0,1-.25-.25"/><path class="cls-1" d="M10,9.313a.25.25,0,0,1-.25.25"/><line class="cls-1" x1="2" y1="6.563" x2="1.5" y2="7.563"/><line class="cls-1" x1="3.98" y1="8.103" x2="3.5" y2="9.063"/><line class="cls-1" x1="0.5" y1="13.063" x2="0.5" y2="12.063"/><line class="cls-1" x1="2.5" y1="13.063" x2="2.5" y2="12.063"/><path class="cls-1" d="M15.357,8.563s3.334-1.385,5.643,0c2.5,1.5,2.5,3,2.5,5a4.189,4.189,0,0,1-3,4v3"/><path class="cls-1" d="M11.5,20.563v-3a8.878,8.878,0,0,0,3.375,1,7.1,7.1,0,0,0,2.625-.5v2.5"/><path class="cls-1" d="M23.5,12.563c0,1.5-2.5,2-3,.5"/></svg>