<svg xmlns="http://www.w3.org/2000/svg" viewBox="0 0 24 24"><defs><style>.a{fill:none;stroke:#000;stroke-linecap:round;stroke-linejoin:round;}</style></defs><title>historical-building-pillar</title><path class="a" d="M19.5,4.5a1,1,0,0,0-1-1,2,2,0,0,0-2,2,3,3,0,0,0,3,3,4,4,0,0,0,0-8H4.5a4,4,0,0,0,0,8,3,3,0,0,0,3-3,2,2,0,0,0-2-2,1,1,0,0,0-1,1"/><line class="a" x1="7.5" y1="7.5" x2="7.5" y2="23.5"/><line class="a" x1="16.5" y1="7.5" x2="16.5" y2="23.5"/><line class="a" x1="10.5" y1="7.5" x2="10.5" y2="23.5"/><line class="a" x1="13.5" y1="7.5" x2="13.5" y2="23.5"/><line class="a" x1="6.719" y1="7.5" x2="17.281" y2="7.5"/><line class="a" x1="9.501" y1="4.497" x2="14.501" y2="4.497"/></svg>