<svg xmlns="http://www.w3.org/2000/svg" viewBox="0 0 24 24"><defs><style>.a{fill:none;stroke:#000;stroke-linecap:round;stroke-linejoin:round;}</style></defs><title>history-man-aviator</title><path class="a" d="M13.5,11a2.5,2.5,0,0,1-3,0"/><path class="a" d="M23,23.5V20.394a1.976,1.976,0,0,0-.77-1.579C20.9,17.8,17.73,16,12,16S3.105,17.8,1.77,18.815A1.976,1.976,0,0,0,1,20.394V23.5"/><path class="a" d="M14,8.25a.25.25,0,1,1-.25.25A.25.25,0,0,1,14,8.25"/><path class="a" d="M10,8.25a.25.25,0,1,1-.25.25A.25.25,0,0,1,10,8.25"/><path class="a" d="M6.115,5.327A6.052,6.052,0,0,0,6,6.5v2a6,6,0,0,0,12,0v-2a6.052,6.052,0,0,0-.115-1.173"/><path class="a" d="M16.8,2.9a6,6,0,0,0-9.6,0"/><path class="a" d="M18,8.5a2,2,0,0,1-1.9-1.365.994.994,0,0,0-.958-.635H8.855a.994.994,0,0,0-.958.635A2,2,0,0,1,6,8.5"/><line class="a" x1="6" y1="8.5" x2="6" y2="14.5"/><line class="a" x1="18" y1="8.5" x2="18" y2="14.5"/><path class="a" d="M12,4c0,1.105-1.843,2.5-3.5,2.5S6,6,6,4.5c0-1.1,1.343-2,3-2S12,2.9,12,4Z"/><path class="a" d="M12,4c0,1.105,1.843,2.5,3.5,2.5S18,6,18,4.5c0-1.1-1.343-2-3-2S12,2.9,12,4Z"/><line class="a" x1="12" y1="18.5" x2="12" y2="23.5"/><path class="a" d="M5.036,17.1,8.3,20.717a1,1,0,0,0,1.45.038L12,18.5,8.917,16.188"/><path class="a" d="M18.963,17.1l-3.258,3.62a1,1,0,0,1-1.45.038L12,18.5l3.083-2.312"/></svg>