<svg xmlns="http://www.w3.org/2000/svg" viewBox="0 0 24 24"><defs><style>.a{fill:none;stroke:#000;stroke-linecap:round;stroke-linejoin:round;}</style></defs><title>history-man-chinese-elder</title><path class="a" d="M6.463,18.625,3.1,19.755A4,4,0,0,0,.5,23.5"/><path class="a" d="M17.537,18.625l3.367,1.13A4,4,0,0,1,23.5,23.5"/><path class="a" d="M11,12a1.089,1.089,0,0,0-1-.5A1.089,1.089,0,0,0,9,12"/><path class="a" d="M15,12a1.089,1.089,0,0,0-1-.5,1.089,1.089,0,0,0-1,.5"/><path class="a" d="M12,17.5c2,0,1.5,1.5,1.5,3.5a1.959,1.959,0,0,0,2,2V18a3.5,3.5,0,0,0-7,0v5a1.959,1.959,0,0,0,2-2C10.5,19,10,17.5,12,17.5Z"/><path class="a" d="M17.98,11h-.639a1,1,0,0,1-.98-.8l-.34-1.7c-4,0-4-2-4-2h-.083s0,2-4,2L7.6,10.2a1,1,0,0,1-.981.8H5.98"/><path class="a" d="M16.712,15.416a4.025,4.025,0,0,0,.215-.781,1,1,0,0,1,.574-.746c1.081-.491,1.352-2.452.479-2.889.5-2.986.5-8-6-8s-6.5,5.014-6,8c-.874.437-.6,2.4.479,2.889a1,1,0,0,1,.574.746,4.038,4.038,0,0,0,.218.791"/><path class="a" d="M13.885,3.17a2,2,0,1,0-3.772-.007"/><line class="a" x1="8" y1="1.5" x2="10.27" y2="1.5"/><line class="a" x1="16" y1="1.5" x2="13.73" y2="1.5"/></svg>