<svg xmlns="http://www.w3.org/2000/svg" viewBox="0 0 24 24"><defs><style>.a{fill:none;stroke:#000;stroke-linecap:round;stroke-linejoin:round;}</style></defs><title>history-geisha</title><line class="a" x1="14.833" y1="2.5" x2="20" y2="2.5"/><line class="a" x1="2.5" y1="2.5" x2="9.175" y2="2.5"/><path class="a" d="M19.41,17.161,22,17.916a1,1,0,0,0,1.255-.734A9.661,9.661,0,0,0,23.5,15C23.5,9.2,18.351,4.5,12,4.5S.5,9.2.5,15a9.661,9.661,0,0,0,.249,2.182A1,1,0,0,0,2,17.916l2.586-.755"/><path class="a" d="M18.232,11.826a2.64,2.64,0,0,0-2.958-1.055,6.274,6.274,0,0,0-2.612,1.567.936.936,0,0,1-1.324,0,6.274,6.274,0,0,0-2.612-1.567,2.64,2.64,0,0,0-2.958,1.055,7.5,7.5,0,1,0,12.464,0Z"/><path class="a" d="M11,20l.646.646a.5.5,0,0,0,.708,0L13,20"/><path class="a" d="M7.5,13.5A2.616,2.616,0,0,1,10,14"/><path class="a" d="M16.5,13.5A2.616,2.616,0,0,0,14,14"/><path class="a" d="M9.293,4.794a3,3,0,1,1,5.471-.126"/><path class="a" d="M20.429,1.743a.882.882,0,0,0,0,1.514l1.314.789a.5.5,0,0,0,.757-.429V1.383a.5.5,0,0,0-.757-.429Z"/><path class="a" d="M7.291,21.837A2,2,0,1,0,5,18.684"/><path class="a" d="M16.709,21.837a2,2,0,1,1,2.3-3.153"/></svg>