<svg xmlns="http://www.w3.org/2000/svg" viewBox="0 0 24 24"><defs><style>.a{fill:none;stroke:#000;stroke-linecap:round;stroke-linejoin:round;}</style></defs><title>history-man-philosopher</title><path class="a" d="M23.412,23.492V22.385a1.978,1.978,0,0,0-.77-1.579c-1.335-1.019-4.5-2.814-10.23-2.814s-8.9,1.795-10.23,2.814a1.978,1.978,0,0,0-.77,1.579v1.107"/><path class="a" d="M14.412,9.242a.25.25,0,1,1-.25.25.25.25,0,0,1,.25-.25"/><path class="a" d="M10.412,9.242a.25.25,0,1,1-.25.25.25.25,0,0,1,.25-.25"/><line class="a" x1="6.412" y1="6.584" x2="6.412" y2="9.75"/><line class="a" x1="18.412" y1="9.492" x2="18.412" y2="6.585"/><path class="a" d="M19.412,5.586a1,1,0,0,1-1.175.985,33.418,33.418,0,0,0-11.649,0,1,1,0,0,1-1.176-.985V2.059a1,1,0,0,1,.815-.981,33.367,33.367,0,0,1,12.37,0,1,1,0,0,1,.815.981Z"/><path class="a" d="M3.615,12.836A4.79,4.79,0,0,1,1.4,14.966.51.51,0,0,1,.671,14.6a6.33,6.33,0,0,1,.454-3.614L2.742,8.427a4.784,4.784,0,0,1,2.8-2.361,4.789,4.789,0,0,1-.313,3.651Z"/><line class="a" x1="17.04" y1="18.436" x2="7.912" y2="23.5"/><line class="a" x1="20.071" y1="19.357" x2="12.784" y2="23.5"/><path class="a" d="M10.412,3l1.776.888a.5.5,0,0,0,.448,0L14.412,3"/><path class="a" d="M13.412,14.742a1.668,1.668,0,0,1-2,0"/><path class="a" d="M18.412,9.492l.3,3A4,4,0,0,1,16.4,16.408l-2.313,1.068a4,4,0,0,1-3.352,0L8.423,16.408a4,4,0,0,1-2.314-3.916l.3-3,2.135,2.846a2,2,0,0,0,2.233.7,5.162,5.162,0,0,1,3.264,0,2,2,0,0,0,2.233-.7Z"/></svg>