<svg xmlns="http://www.w3.org/2000/svg" viewBox="0 0 24 24"><defs><style>.a{fill:none;stroke:#000;stroke-linecap:round;stroke-linejoin:round;}</style></defs><title>history-man-chinese-elder</title><path class="a" d="M14,13.25a.25.25,0,1,1-.25.25.25.25,0,0,1,.25-.25"/><path class="a" d="M10,13.25a.25.25,0,1,1-.25.25.25.25,0,0,1,.25-.25"/><path class="a" d="M12,15.5c-4.1,0-4.039,4.017-4,7.23a.5.5,0,0,0,.744.434C11.242,21.635,8.77,18,12,18s.717,3.631,3.262,5.166a.5.5,0,0,0,.743-.434C16.04,19.532,16.109,15.5,12,15.5Z"/><path class="a" d="M18,10.5c-1.327,0-4.058.337-6-2-1.942,2.337-4.673,2-6,2"/><path class="a" d="M6,19.784a12.82,12.82,0,0,0-4.23,2.031A1.976,1.976,0,0,0,1,23.394V23.5"/><path class="a" d="M23,23.5v-.106a1.976,1.976,0,0,0-.77-1.579A12.82,12.82,0,0,0,18,19.784"/><path class="a" d="M14.342,3.875a2.5,2.5,0,1,0-4.684,0"/><path class="a" d="M15.372,17.462A5.991,5.991,0,0,0,18,12.5v-2a6,6,0,0,0-3.492-5.452"/><path class="a" d="M9.492,5.048A6,6,0,0,0,6,10.5v2a5.991,5.991,0,0,0,2.628,4.962"/><ellipse class="a" cx="12" cy="4.5" rx="3" ry="1"/><line class="a" x1="9" y1="4.5" x2="6" y2="4.5"/><line class="a" x1="18" y1="4.5" x2="15" y2="4.5"/></svg>