<svg xmlns="http://www.w3.org/2000/svg" viewBox="0 0 24 24"><defs><style>.a{fill:none;stroke:#000;stroke-linecap:round;stroke-linejoin:round;}</style></defs><title>history-man-king</title><path class="a" d="M14,9.146a.25.25,0,1,1-.25.25.25.25,0,0,1,.25-.25"/><path class="a" d="M10,9.146a.25.25,0,1,1-.25.25.25.25,0,0,1,.25-.25"/><path class="a" d="M6,6.9V9.4a5.992,5.992,0,0,0,2.551,4.91"/><path class="a" d="M15.449,14.306A5.992,5.992,0,0,0,18,9.4V6.9"/><path class="a" d="M12,16.9c2.5,0,3.5-1,3.5-2a3.5,3.5,0,0,0-7,0C8.5,15.9,9.5,16.9,12,16.9Z"/><path class="a" d="M13.5,13.9a2.5,2.5,0,0,1-3,0"/><path class="a" d="M11.646.75,9.5,2.9,6.246,1.676a.5.5,0,0,0-.674.514L6,6.9a33.8,33.8,0,0,0,6,.5,33.8,33.8,0,0,0,6-.5l.849-4.669a.5.5,0,0,0-.65-.563L14.5,2.9,12.354.75A.5.5,0,0,0,11.646.75Z"/><path class="a" d="M12,4.146a.25.25,0,1,1-.25.25.25.25,0,0,1,.25-.25"/><path class="a" d="M12,16.9s1,6.5,7,6.5h3.5a.5.5,0,0,0,.5-.5V21.29a1.978,1.978,0,0,0-.77-1.579C20.9,18.692,17.73,16.9,12,16.9s-8.895,1.8-10.23,2.815A1.978,1.978,0,0,0,1,21.29V22.9a.5.5,0,0,0,.5.5H5c6,0,7-6.5,7-6.5"/><path class="a" d="M12,22.646a.25.25,0,1,1-.25.25.25.25,0,0,1,.25-.25"/></svg>