<svg xmlns="http://www.w3.org/2000/svg" viewBox="0 0 24 24"><defs><style>.a{fill:none;stroke:#000;stroke-linecap:round;stroke-linejoin:round;}</style></defs><title>history-babushka-1</title><path class="a" d="M5.015,14.5l.136,0A8.178,8.178,0,0,0,12,10.5"/><path class="a" d="M18.984,14.5l-.135,0A8.178,8.178,0,0,1,12,10.5"/><path class="a" d="M18.683,12.591A18.149,18.149,0,0,1,18,7.907V6A5.765,5.765,0,0,0,12,.5,5.765,5.765,0,0,0,6,6V7.907a18.149,18.149,0,0,1-.68,4.684c-.989,3.7.632,6.818.853,9.972a1.054,1.054,0,0,0,1.089.935h9.482a1.054,1.054,0,0,0,1.089-.935C18.051,19.409,19.672,16.289,18.683,12.591Z"/><circle class="a" cx="12" cy="6.498" r="4"/><path class="a" d="M11.96,2.5A4.152,4.152,0,0,1,12,3.07a4,4,0,0,1-3.96,4"/><path class="a" d="M15.96,7.07a4,4,0,0,1-3.96-4,4.065,4.065,0,0,1,.04-.566"/><line class="a" x1="6.048" y1="21.498" x2="17.952" y2="21.498"/><path class="a" d="M12,14.248a.25.25,0,0,1,.25.25"/><path class="a" d="M11.75,14.5a.25.25,0,0,1,.25-.25"/><path class="a" d="M12,14.748a.25.25,0,0,1-.25-.25"/><path class="a" d="M12.25,14.5a.25.25,0,0,1-.25.25"/><path class="a" d="M12,17.242a.25.25,0,0,1,.25.25"/><path class="a" d="M11.75,17.492a.25.25,0,0,1,.25-.25"/><path class="a" d="M12,17.742a.25.25,0,0,1-.25-.25"/><path class="a" d="M12.25,17.492a.25.25,0,0,1-.25.25"/></svg>