<svg xmlns="http://www.w3.org/2000/svg" viewBox="0 0 24 24"><defs><style>.a{fill:none;stroke:#000;stroke-linecap:round;stroke-linejoin:round;}</style></defs><title>history-man-king</title><path class="a" d="M10.5,15a2.175,2.175,0,0,0,3,0"/><path class="a" d="M11,11a1.089,1.089,0,0,0-1-.5A1.089,1.089,0,0,0,9,11"/><path class="a" d="M15,11a1.089,1.089,0,0,0-1-.5,1.089,1.089,0,0,0-1,.5"/><path class="a" d="M18,10.5c.873.437.6,2.4-.479,2.889a1,1,0,0,0-.574.746C16.5,16.779,13.391,18.5,12,18.5s-4.5-1.721-4.947-4.365a1,1,0,0,0-.574-.746C5.4,12.9,5.127,10.937,6,10.5L5.1,2.529a.5.5,0,0,1,.762-.48L8.615,3.772a.5.5,0,0,0,.645-.1L11.6.943a.5.5,0,0,1,.759,0L14.7,3.673a.5.5,0,0,0,.644.1l2.765-1.728a.5.5,0,0,1,.762.478C18.619,4.879,18.016,10.5,18,10.5Z"/><path class="a" d="M5.916,9.734a15.517,15.517,0,0,1,12.173.019"/><line class="a" x1="7.898" y1="19.127" x2="12" y2="23.5"/><line class="a" x1="16.042" y1="19.107" x2="12" y2="23.5"/><path class="a" d="M23.5,23.5a4.005,4.005,0,0,0-2.488-2.745l-4.969-1.648"/><path class="a" d="M7.9,19.127l-4.91,1.628A4.005,4.005,0,0,0,.5,23.5"/><line class="a" x1="5.073" y1="20.064" x2="9" y2="23.5"/><line class="a" x1="18.927" y1="20.064" x2="15" y2="23.5"/></svg>