<svg xmlns="http://www.w3.org/2000/svg" viewBox="0 0 24 24"><defs><style>.a{fill:none;stroke:#000;stroke-linecap:round;stroke-linejoin:round;}</style></defs><title>history-armor</title><line class="a" x1="17.642" y1="6.049" x2="19.257" y2="4.434"/><line class="a" x1="0.5" y1="23.191" x2="4.358" y2="19.333"/><path class="a" d="M19.534,2.174a.5.5,0,0,0-.277.447V4.434H21.07a.5.5,0,0,0,.447-.277l1.312-2.624a.5.5,0,0,0-.671-.671Z"/><line class="a" x1="6.358" y1="6.049" x2="4.743" y2="4.434"/><line class="a" x1="23.5" y1="23.191" x2="19.642" y2="19.333"/><path class="a" d="M2.483,4.157a.5.5,0,0,0,.447.277H4.743V2.621a.5.5,0,0,0-.277-.447L1.842.862a.5.5,0,0,0-.671.671Z"/><circle class="a" cx="12" cy="13.691" r="9.5"/><circle class="a" cx="12" cy="13.691" r="7.5"/><path class="a" d="M14.594,17.114,12,11.556,9.406,17.114a1,1,0,0,1-1.812-.846l3.5-7.5a1,1,0,0,1,1.812,0l3.5,7.5a1,1,0,0,1-1.812.846Z"/></svg>