<svg xmlns="http://www.w3.org/2000/svg" viewBox="0 0 24 24"><defs><style>.a{fill:none;stroke:#000;stroke-linecap:round;stroke-linejoin:round;}</style></defs><title>history-caveman-symbols</title><path class="a" d="M22.5,13.511a1,1,0,0,1-1-1V6.979L16.138,2.511H15.5v10a1,1,0,0,1-2,0v-11a1,1,0,0,1,1-1h2a1,1,0,0,1,.64.232l6,5a1,1,0,0,1,.36.768v6A1,1,0,0,1,22.5,13.511Z"/><path class="a" d="M5.293,7.8,2.5,10.6V7.425L6.707,3.218A1,1,0,0,0,5.293,1.8L2.5,4.6V1.511a1,1,0,0,0-2,0v18a1,1,0,0,0,2,0V13.425L6.707,9.218A1,1,0,1,0,5.293,7.8Z"/><path class="a" d="M12,23.489a1,1,0,0,1-.738-.324L9.5,21.241,7.737,23.165a1,1,0,1,1-1.474-1.352l1.881-2.051-2.381-2.6A1,1,0,0,1,5.7,15.889l3-4a1.036,1.036,0,0,1,1.6,0l3,4a1,1,0,0,1-.063,1.276l-2.38,2.6,1.88,2.051A1,1,0,0,1,12,23.489ZM7.8,16.425l1.7,1.857,1.7-1.857L9.5,14.156Z"/></svg>