<svg xmlns="http://www.w3.org/2000/svg" viewBox="0 0 24 24"><defs><style>.a{fill:none;stroke:#000;stroke-linecap:round;stroke-linejoin:round;}</style></defs><title>history-babushka</title><path class="a" d="M9.25,15.75A.25.25,0,0,1,9.5,16"/><path class="a" d="M9,16a.25.25,0,0,1,.25-.25"/><path class="a" d="M9.25,16.25A.25.25,0,0,1,9,16"/><path class="a" d="M9.5,16a.25.25,0,0,1-.25.25"/><path class="a" d="M14.75,15.75a.25.25,0,0,0-.25.25"/><path class="a" d="M15,16a.25.25,0,0,0-.25-.25"/><path class="a" d="M14.75,16.25A.25.25,0,0,0,15,16"/><path class="a" d="M14.5,16a.25.25,0,0,0,.25.25"/><path class="a" d="M12,15a.25.25,0,0,1,.25.25"/><path class="a" d="M11.75,15.25A.25.25,0,0,1,12,15"/><path class="a" d="M12,15.5a.25.25,0,0,1-.25-.25"/><path class="a" d="M12.25,15.25a.25.25,0,0,1-.25.25"/><path class="a" d="M15.5,23.5c3.121,0,3.854-5.4,4-8.5.172-3.648-2-4.011-2-7.506V6a5.5,5.5,0,0,0-11,0V7.494c0,3.5-2.172,3.858-2,7.506.146,3.1.879,8.5,4,8.5Z"/><circle class="a" cx="12" cy="6" r="3.5"/><path class="a" d="M8.5,6a4.228,4.228,0,0,0,4-1.5,3.891,3.891,0,0,0,3,1.5"/><path class="a" d="M19.5,15c-1.5-1.5-6-1-7.5-3.5-1.5,2.5-6,2-7.5,3.5"/><path class="a" d="M7.184,13.881A7.134,7.134,0,0,0,7,15.5c0,3.313,2.239,6,5,6s5-2.687,5-6a7.134,7.134,0,0,0-.184-1.619"/></svg>