<svg xmlns="http://www.w3.org/2000/svg" viewBox="0 0 24 24"><defs><style>.a{fill:none;stroke:#000;stroke-linecap:round;stroke-linejoin:round;}</style></defs><title>history-africa</title><path class="a" d="M3.7,7.414a2.313,2.313,0,0,1-.2-1c0-1.019,1.088-2.167,1.659-2.7a.5.5,0,0,1,.682,0,8.849,8.849,0,0,1,.724.757"/><path class="a" d="M6.63,5.74a2.451,2.451,0,0,1-.13-.823c0-1.019,1.088-2.167,1.659-2.7a.5.5,0,0,1,.682,0A7.738,7.738,0,0,1,10,3.557"/><path class="a" d="M20.3,7.414a2.313,2.313,0,0,0,.2-1c0-1.019-1.088-2.167-1.659-2.7a.5.5,0,0,0-.682,0,8.923,8.923,0,0,0-.722.754"/><path class="a" d="M17.37,5.74a2.451,2.451,0,0,0,.13-.823c0-1.019-1.088-2.167-1.659-2.7a.5.5,0,0,0-.682,0A7.816,7.816,0,0,0,14,3.559"/><path class="a" d="M10.318,4.622A2.16,2.16,0,0,1,10,3.417C10,2.4,11.088,1.25,11.659.717a.5.5,0,0,1,.682,0C12.912,1.25,14,2.4,14,3.417a2.156,2.156,0,0,1-.32,1.207"/><path class="a" d="M20.1,11.111C21.06,8.7,20.978,6.768,18,5.917c-3.5-1-4.5-1-6-2.5-1.5,1.5-2.5,1.5-6,2.5-2.978.851-3.06,2.788-2.094,5.2"/><path class="a" d="M18.5,19.659a7.5,7.5,0,0,1-13,0"/><path class="a" d="M19.348,14.405a7.528,7.528,0,0,1,.152,1.512c0,.168-.006.336-.017.5"/><path class="a" d="M4.517,16.419c-.011-.166-.017-.334-.017-.5a7.556,7.556,0,0,1,.15-1.5"/><path class="a" d="M20.731,12.909C20.207,10.852,18.7,7.417,14.5,7.417H14a5.172,5.172,0,0,1-2-.5,5.172,5.172,0,0,1-2,.5H9.5c-4.2,0-5.707,3.435-6.231,5.492a1.225,1.225,0,0,0,2.361.649,3.13,3.13,0,0,1,.406-.835,3.45,3.45,0,0,1,2.656-1.3,5.815,5.815,0,0,1,1.448.233,6.684,6.684,0,0,0,3.72,0,5.815,5.815,0,0,1,1.448-.233,3.45,3.45,0,0,1,2.656,1.3,3.163,3.163,0,0,1,.407.835,1.225,1.225,0,0,0,2.36-.649Z"/><path class="a" d="M5.5,20.217v-2.8a1,1,0,0,0-2,0v2.8"/><path class="a" d="M6.5,21.917c0,.836-1.4,1.323-1.857,1.46a.5.5,0,0,1-.286,0C3.9,23.24,2.5,22.753,2.5,21.917a2.07,2.07,0,0,1,2-2A2.07,2.07,0,0,1,6.5,21.917Z"/><path class="a" d="M18.5,20.212V17.417a1,1,0,0,1,2,0v2.8"/><path class="a" d="M17.5,21.917c0,.836,1.4,1.323,1.857,1.46a.5.5,0,0,0,.286,0c.458-.137,1.857-.624,1.857-1.46a2,2,0,0,0-4,0Z"/></svg>