<svg id="Light" xmlns="http://www.w3.org/2000/svg" viewBox="0 0 24 24"><defs><style>.cls-1{fill:none;stroke:#000;stroke-linecap:round;stroke-linejoin:round;}</style></defs><title>hospital-board</title><circle class="cls-1" cx="12" cy="12" r="11.5"/><circle class="cls-1" cx="12" cy="12" r="8.5"/><path class="cls-1" d="M16.5,11a.5.5,0,0,0-.5-.5H13.5V8a.5.5,0,0,0-.5-.5H11a.5.5,0,0,0-.5.5v2.5H8a.5.5,0,0,0-.5.5v2a.5.5,0,0,0,.5.5h2.5V16a.5.5,0,0,0,.5.5h2a.5.5,0,0,0,.5-.5V13.5H16a.5.5,0,0,0,.5-.5Z"/></svg>