<svg xmlns="http://www.w3.org/2000/svg" viewBox="0 0 24 24"><defs><style>.a{fill:none;stroke:#000;stroke-linecap:round;stroke-linejoin:round;}</style></defs><title>hotel-double-bed-1</title><path class="a" d="M3,10.25H21a1,1,0,0,1,1,1v4a0,0,0,0,1,0,0H2a0,0,0,0,1,0,0v-4A1,1,0,0,1,3,10.25Z"/><path class="a" d="M22,15.25v1a1,1,0,0,1-1,1H3a1,1,0,0,1-1-1v-1"/><line class="a" x1="3" y1="17.25" x2="3" y2="19.75"/><line class="a" x1="21" y1="17.25" x2="21" y2="19.75"/><path class="a" d="M3,10.25v-4a2,2,0,0,1,2-2H19a2,2,0,0,1,2,2v4"/><path class="a" d="M3,10.25a3,3,0,0,1,3-3H9a3,3,0,0,1,3,3"/><path class="a" d="M12,10.25a3,3,0,0,1,3-3h3a3,3,0,0,1,3,3"/></svg>