<svg xmlns="http://www.w3.org/2000/svg" viewBox="0 0 24 24"><defs><style>.a{fill:none;stroke:#000;stroke-linecap:round;stroke-linejoin:round;}</style></defs><title>hotel-bunk-bed-2</title><polyline class="a" points="16.5 16.5 0.5 16.5 0.5 20.5 16.5 20.5"/><polyline class="a" points="16.5 4.5 0.5 4.5 0.5 8.5 16.5 8.5"/><line class="a" x1="23.5" y1="23.5" x2="23.5" y2="2.5"/><line class="a" x1="18.5" y1="23.5" x2="18.5" y2="2.5"/><line class="a" x1="0.5" y1="23.5" x2="0.5" y2="0.5"/><line class="a" x1="18.5" y1="12.5" x2="23.5" y2="12.5"/><line class="a" x1="18.5" y1="16.5" x2="23.5" y2="16.5"/><line class="a" x1="18.5" y1="20.5" x2="23.5" y2="20.5"/><line class="a" x1="18.5" y1="8.5" x2="23.5" y2="8.5"/><line class="a" x1="18.5" y1="4.5" x2="23.5" y2="4.5"/><path class="a" d="M6.5,14.5h-2a2,2,0,0,0-2,2h6A2,2,0,0,0,6.5,14.5Z"/><path class="a" d="M6.5,2.5h-2a2,2,0,0,0-2,2h6A2,2,0,0,0,6.5,2.5Z"/></svg>