<svg xmlns="http://www.w3.org/2000/svg" viewBox="0 0 24 24"><defs><style>.a{fill:none;stroke:#000;stroke-linecap:round;stroke-linejoin:round;}</style></defs><title>hotel-bunk-bed-1</title><line class="a" x1="0.5" y1="0.5" x2="0.5" y2="23.5"/><polyline class="a" points="15.5 18.75 0.5 18.75 0.5 21.5 15.5 21.5"/><polyline class="a" points="15.5 6.5 0.5 6.5 0.5 9.25 15.5 9.25"/><path class="a" d="M3.5,6.5a1,1,0,0,1-1-1h0a1,1,0,0,1,1-1h3a1,1,0,0,1,1,1h0a1,1,0,0,1-1,1"/><path class="a" d="M3.5,18.75a1,1,0,0,1-1-1h0a1,1,0,0,1,1-1h3a1,1,0,0,1,1,1h0a1,1,0,0,1-1,1"/><line class="a" x1="23.5" y1="2.5" x2="23.5" y2="23.5"/><line class="a" x1="17.5" y1="2.5" x2="17.5" y2="23.5"/><line class="a" x1="17.5" y1="20.5" x2="23.5" y2="20.5"/><line class="a" x1="17.5" y1="16.5" x2="23.5" y2="16.5"/><line class="a" x1="17.5" y1="12.5" x2="23.5" y2="12.5"/><line class="a" x1="17.5" y1="8.5" x2="23.5" y2="8.5"/><line class="a" x1="17.5" y1="4.5" x2="23.5" y2="4.5"/></svg>