<svg xmlns="http://www.w3.org/2000/svg" viewBox="0 0 24 24"><defs><style>.a{fill:none;stroke:#000;stroke-linecap:round;stroke-linejoin:round;}</style></defs><title>house-heart</title><path class="a" d="M3.5,13v9a1,1,0,0,0,1,1h15a1,1,0,0,0,1-1V13.5"/><polyline class="a" points="0.5 12.5 12 1 23.5 12.5"/><path class="a" d="M16,2h3a.5.5,0,0,1,.5.5v3"/><path class="a" d="M17,13.61C17,16.2,12.859,19.3,12.305,19.7l-.024.019a.475.475,0,0,1-.562,0L11.7,19.7C11.141,19.3,7,16.2,7,13.61a2.834,2.834,0,0,1,2.73-2.98A2.657,2.657,0,0,1,12,12a2.657,2.657,0,0,1,2.27-1.37A2.834,2.834,0,0,1,17,13.61Z"/></svg>