<svg xmlns="http://www.w3.org/2000/svg" viewBox="0 0 24 24"><defs><style>.a{fill:none;stroke:#000;stroke-linecap:round;stroke-linejoin:round;}</style></defs><title>house-nature</title><line class="a" x1="0.5" y1="23.5" x2="23.5" y2="23.5"/><line class="a" x1="1.5" y1="23.5" x2="1.5" y2="16.5"/><line class="a" x1="12.5" y1="16.5" x2="12.5" y2="23.5"/><path class="a" d="M5.5,23.5v-4a1,1,0,0,1,1-1h1a1,1,0,0,1,1,1v4"/><path class="a" d="M23.5,17a3.775,3.775,0,0,1-4,3.5,3.775,3.775,0,0,1-4-3.5c0-1.652,2.921-8.513,3.771-10.474a.249.249,0,0,1,.458,0C20.579,8.487,23.5,15.348,23.5,17Z"/><line class="a" x1="19.5" y1="13.438" x2="19.5" y2="23.5"/><line class="a" x1="18" y1="17" x2="19.5" y2="18.5"/><path class="a" d="M.5,17.5l6.146-6.146a.5.5,0,0,1,.708,0L13.5,17.5"/><path class="a" d="M6.485,3.2A2,2,0,1,1,8,6.5H3.5A3,3,0,1,1,6.485,3.2"/></svg>