<svg xmlns="http://www.w3.org/2000/svg" viewBox="0 0 24 24"><defs><style>.a{fill:none;stroke:#000;stroke-linecap:round;stroke-linejoin:round;}</style></defs><title>human-resources-search-men</title><circle class="a" cx="17.029" cy="4.988" r="4.529"/><line class="a" x1="23.5" y1="11.458" x2="20.252" y2="8.211"/><path class="a" d="M.5,23.458c.423-2.286.353-3.579,1.609-4.118L6.5,17.458v-2s-.945-.349-.945-2.5c-.981,0-.981-2,0-2,0-.288-1.644-2.429.422-2,.491-2,5.331-2,5.822,0a2.628,2.628,0,0,1-.44,2c.951,0,.691,2,.007,2,0,2.151-.866,2.5-.866,2.5v2l4.391,1.882c1.253.537,1.184,1.819,1.609,4.118Z"/><path class="a" d="M19.866,12.958c0,2.15-.866,2.5-.866,2.5v2l3.312,1.472A2,2,0,0,1,23.5,20.757v2.7H20"/></svg>