<svg xmlns="http://www.w3.org/2000/svg" viewBox="0 0 24 24"><defs><style>.a{fill:none;stroke:#000;stroke-linecap:round;stroke-linejoin:round;}</style></defs><title>human-resources-employee</title><path class="a" d="M12.486.774l1.028,2.714h2a.49.49,0,0,1,.345.855l-1.736,1.21.962,2.209a.524.524,0,0,1-.746.655L12.015,7.11,9.69,8.417a.524.524,0,0,1-.746-.655l.962-2.209L8.17,4.343a.489.489,0,0,1,.344-.855h2L11.543.774A.531.531,0,0,1,12.486.774Z"/><path class="a" d="M7.507,8.927l-.9.626.962,2.209a.524.524,0,0,1-.746.655L4.5,11.11,2.176,12.417a.524.524,0,0,1-.746-.655l.962-2.209L.656,8.343A.489.489,0,0,1,1,7.488H3l1.03-2.714a.531.531,0,0,1,.943,0L6,7.488H7.007"/><path class="a" d="M16.507,8.927l.9.626-.961,2.209a.524.524,0,0,0,.746.655l2.324-1.307,2.324,1.307a.524.524,0,0,0,.747-.655l-.962-2.209,1.736-1.21a.489.489,0,0,0-.344-.855h-2L19.986,4.774a.531.531,0,0,0-.943,0L18.015,7.488H17.007"/><circle class="a" cx="12.043" cy="16.238" r="3.25"/><path class="a" d="M16.493,23.488a5.367,5.367,0,0,0-9,0"/></svg>