<svg xmlns="http://www.w3.org/2000/svg" viewBox="0 0 24 24"><defs><style>.a{fill:none;stroke:#000;stroke-linecap:round;stroke-linejoin:round;}</style></defs><title>human-resources-network</title><path class="a" d="M11.5,23.5a5.779,5.779,0,0,1,6-6,5.779,5.779,0,0,1,6,6Z"/><circle class="a" cx="17.502" cy="12" r="4"/><path class="a" d="M21.5,11.816a4.411,4.411,0,0,1-2.385.684,5.527,5.527,0,0,1-4.661-3.107"/><line class="a" x1="1.736" y1="14.5" x2="11.511" y2="14.5"/><line class="a" x1="2.134" y1="4.5" x2="17.381" y2="4.5"/><line class="a" x1="12.011" y1="9.5" x2="0.502" y2="9.5"/><path class="a" d="M9.011,19A9.052,9.052,0,0,1,.5,9.756,9.263,9.263,0,0,1,18.43,6.5"/><path class="a" d="M8.982.531C4.182,5.759,4.191,12.574,9.011,19"/><path class="a" d="M10.541.533A12.974,12.974,0,0,1,13.88,7.5"/></svg>