<svg xmlns="http://www.w3.org/2000/svg" viewBox="0 0 24 24"><defs><style>.a{fill:none;stroke:#000;stroke-linecap:round;stroke-linejoin:round;}</style></defs><title>human-resources-workflow</title><circle class="a" cx="12" cy="10.25" r="1.75"/><path class="a" d="M15.5,15.5a3.612,3.612,0,0,0-7,0Z"/><circle class="a" cx="12" cy="1.5" r="1"/><path class="a" d="M10,5.5a2,2,0,0,1,4,0Z"/><circle class="a" cx="21.5" cy="11.5" r="1"/><path class="a" d="M19.5,15.5a2,2,0,0,1,4,0Z"/><circle class="a" cx="12" cy="19.5" r="1"/><path class="a" d="M10,23.5a2,2,0,0,1,4,0Z"/><circle class="a" cx="2.5" cy="11.5" r="1"/><path class="a" d="M.5,15.5a2,2,0,0,1,4,0Z"/><path class="a" d="M15.858,5.367a9.034,9.034,0,0,1,3.947,3.649"/><polyline class="a" points="16.807 8.033 15.857 5.368 18.521 4.419"/><polyline class="a" points="6.796 9.251 3.973 9.43 3.795 6.607"/><polyline class="a" points="7.214 18.791 7.93 21.527 5.193 22.242"/><polyline class="a" points="17.231 18 20.027 17.57 20.457 20.366"/><path class="a" d="M3.971,9.429A9.036,9.036,0,0,1,8,5.438"/><path class="a" d="M7.929,21.529a9.048,9.048,0,0,1-3.99-4.021"/><path class="a" d="M20.029,17.571a9.048,9.048,0,0,1-4.021,3.99"/></svg>