<svg xmlns="http://www.w3.org/2000/svg" viewBox="0 0 24 24"><defs><style>.a{fill:none;stroke:#000;stroke-linecap:round;stroke-linejoin:round;}</style></defs><title>human-resources-rating-woman</title><path class="a" d="M12.479.787,13.506,3.5h2a.49.49,0,0,1,.346.855L14.116,5.566l.962,2.209a.523.523,0,0,1-.746.654L12.007,7.122,9.683,8.429a.523.523,0,0,1-.746-.654L9.9,5.566,8.163,4.355A.489.489,0,0,1,8.506,3.5h2L11.536.787A.531.531,0,0,1,12.479.787Z"/><path class="a" d="M7.5,8.939l-.9.627.962,2.209a.523.523,0,0,1-.746.654L4.493,11.122,2.169,12.429a.523.523,0,0,1-.746-.654l.961-2.209L.649,8.355A.489.489,0,0,1,.992,7.5h2l1.03-2.713a.531.531,0,0,1,.943,0L5.992,7.5H7"/><path class="a" d="M16.5,8.939l.9.627-.962,2.209a.523.523,0,0,0,.746.654l2.325-1.307,2.324,1.307a.523.523,0,0,0,.746-.654l-.961-2.209,1.735-1.211a.489.489,0,0,0-.343-.855h-2l-1.03-2.713a.531.531,0,0,0-.943,0L18.008,7.5H17"/><path class="a" d="M16.265,19a4.731,4.731,0,0,1-.687-2.618v-.7a3.683,3.683,0,1,0-7.366,0v.7A4.731,4.731,0,0,1,7.525,19"/><path class="a" d="M8.212,15.92A4.875,4.875,0,0,0,11.9,14.231a4.878,4.878,0,0,0,3.683,1.689"/><path class="a" d="M15.141,15.9a3.25,3.25,0,0,1-6.492,0"/><path class="a" d="M16.778,23.5a5.472,5.472,0,0,0-9.764,0"/></svg>