<svg xmlns="http://www.w3.org/2000/svg" viewBox="0 0 24 24"><defs><style>.a{fill:none;stroke:#000;stroke-linecap:round;stroke-linejoin:round;}</style></defs><title>human-resources-hierarchy-woman</title><path class="a" d="M15.5,20H13a.5.5,0,0,1-.5-.5V4.5A.5.5,0,0,1,13,4h2.5"/><line class="a" x1="9.5" y1="12" x2="12.5" y2="12"/><circle class="a" cx="20" cy="2.75" r="1.75"/><path class="a" d="M23.5,8a3.612,3.612,0,0,0-7,0Z"/><circle class="a" cx="20" cy="17.75" r="1.75"/><path class="a" d="M23.5,23a3.612,3.612,0,0,0-7,0Z"/><path class="a" d="M2.251,8.824v.664a3.941,3.941,0,0,1-.573,2.182"/><path class="a" d="M7.749,8.824v.664a3.941,3.941,0,0,0,.573,2.182"/><path class="a" d="M.5,17a4.5,4.5,0,0,1,9,0Z"/><path class="a" d="M2.259,8.97A3.66,3.66,0,0,0,5,7.7,3.66,3.66,0,0,0,7.741,8.97"/><circle class="a" cx="5" cy="8.75" r="2.75"/></svg>