<svg xmlns="http://www.w3.org/2000/svg" viewBox="0 0 24 24"><defs><style>.a{fill:none;stroke:#000;stroke-linecap:round;stroke-linejoin:round;}</style></defs><title>human-resources-search-women</title><circle class="a" cx="17.029" cy="4.988" r="4.529"/><line class="a" x1="23.5" y1="11.458" x2="20.252" y2="8.211"/><path class="a" d="M17.541,16.439a5.573,5.573,0,0,0,3.99-1.1c-.629-.628-1.061-1.023-1.227-3.463"/><path class="a" d="M19,23.458h4.5a7.113,7.113,0,0,0-.739-2.868c-.521-1.042-2.028-1.764-4.761-2.776a.756.756,0,0,1-.5-.694V15.771a.758.758,0,0,1,.258-.546,2.113,2.113,0,0,0,.742-1.767v-.5"/><path class="a" d="M10.5,7.181A5.117,5.117,0,0,0,9,6.958c-2.106,0-4.558,1.279-4.8,4.914-.166,2.44-.6,2.835-1.227,3.463a5.591,5.591,0,0,0,4.014,1.1"/><path class="a" d="M11.041,16.439a5.573,5.573,0,0,0,3.99-1.1c-.629-.628-1.061-1.023-1.227-3.463a7.654,7.654,0,0,0-.116-.916"/><path class="a" d="M11.5,17.814a.756.756,0,0,1-.5-.694V15.771a.758.758,0,0,1,.258-.546A2.113,2.113,0,0,0,12,13.458v-2A4.986,4.986,0,0,1,9,9.721a4.986,4.986,0,0,1-3,1.737v2a2.113,2.113,0,0,0,.743,1.767A.757.757,0,0,1,7,15.771V17.12a.756.756,0,0,1-.5.694c-2.733,1.012-4.74,1.734-5.261,2.776A7.113,7.113,0,0,0,.5,23.458h17a7.113,7.113,0,0,0-.739-2.868C16.24,19.548,14.233,18.826,11.5,17.814Z"/></svg>