<svg xmlns="http://www.w3.org/2000/svg" viewBox="0 0 24 24"><defs><style>.a{fill:none;stroke:#000;stroke-linecap:round;stroke-linejoin:round;}</style></defs><title>human-resources-businessman</title><rect class="a" x="13.5" y="15.5" width="10" height="8" rx="1" ry="1"/><path class="a" d="M16,15.5l.5-1a1.509,1.509,0,0,1,1.5-1h1a1.509,1.509,0,0,1,1.5,1l.5,1"/><line class="a" x1="13.5" y1="19.5" x2="23.5" y2="19.5"/><line class="a" x1="18.5" y1="19.5" x2="18.5" y2="21"/><line class="a" x1="5.5" y1="11" x2="5.5" y2="14"/><path class="a" d="M7.5,23.5l.5-6h2.5V14a5,5,0,0,0-10,0v3.5H3l.5,6Z"/><path class="a" d="M6.667,4a5.805,5.805,0,0,0,2.286-.467,3.478,3.478,0,0,0-6.459-1.3A5.809,5.809,0,0,0,6.667,4Z"/><circle class="a" cx="5.5" cy="4" r="3.5"/></svg>