<svg id="Light" xmlns="http://www.w3.org/2000/svg" viewBox="0 0 24 24"><defs><style>.cls-1{fill:none;stroke:#000;stroke-linecap:round;stroke-linejoin:round;}</style></defs><title>ice-cream-bowl</title><line class="cls-1" x1="12" y1="20" x2="12" y2="23.5"/><line class="cls-1" x1="9" y1="23.5" x2="15" y2="23.5"/><path class="cls-1" d="M12,20a8.042,8.042,0,0,0,8-6.957.5.5,0,0,0-.129-.381A.5.5,0,0,0,19.5,12.5H4.5a.5.5,0,0,0-.5.544A8.042,8.042,0,0,0,12,20Z"/><line class="cls-1" x1="7.095" y1="9.293" x2="5" y2="0.5"/><circle class="cls-1" cx="12" cy="5" r="1"/><path class="cls-1" d="M12,4a1.85,1.85,0,0,1,1-1.5"/><path class="cls-1" d="M5,12.5a3.5,3.5,0,0,1,7,0"/><path class="cls-1" d="M12,12.5a3.5,3.5,0,0,1,7,0"/><path class="cls-1" d="M15,9.051a3,3,0,1,0-5.99,0"/></svg>