<svg xmlns="http://www.w3.org/2000/svg" viewBox="0 0 24 24"><defs><style>.a{fill:none;stroke:#000;stroke-linecap:round;stroke-linejoin:round;}</style></defs><title>idea-message</title><path class="a" d="M5.626,16.422H4.5a4,4,0,0,1-4-4v-4a4,4,0,0,1,4-4h1L5.577,1.6a.5.5,0,0,1,.832-.361L10,4.422h4.5a4,4,0,0,1,4,4"/><path class="a" d="M5.5,15.422a4,4,0,0,0,4,4H14l3.744,3.338a.5.5,0,0,0,.833-.387L18.5,19.422h1a4,4,0,0,0,4-4v-3a4,4,0,0,0-4-4h-1v4a4,4,0,0,1-4,4"/><path class="a" d="M13.5,11.422a2,2,0,1,0-3,1.722v1.278h2V13.144A1.991,1.991,0,0,0,13.5,11.422Z"/><line class="a" x1="11.5" y1="15.422" x2="11.5" y2="14.422"/><path class="a" d="M5.5,15.422v-5a3,3,0,0,1,3-3"/></svg>