<svg id="Light" xmlns="http://www.w3.org/2000/svg" viewBox="0 0 24 24"><defs><style>.cls-1{fill:none;stroke:#000;stroke-linecap:round;stroke-linejoin:round;}</style></defs><title>information-desk-hi</title><circle class="cls-1" cx="6" cy="8" r="2.5"/><path class="cls-1" d="M23.5,8.5a1,1,0,0,1-1,1H18l-2.675,2.293a.5.5,0,0,1-.825-.38V9.5h-2a1,1,0,0,1-1-1v-7a1,1,0,0,1,1-1h10a1,1,0,0,1,1,1Z"/><line class="cls-1" x1="19.5" y1="7.5" x2="19.5" y2="2.5"/><line class="cls-1" x1="15.5" y1="7.5" x2="15.5" y2="2.5"/><line class="cls-1" x1="17.5" y1="7.5" x2="17.5" y2="2.5"/><line class="cls-1" x1="15.5" y1="5.5" x2="17.5" y2="5.5"/><path class="cls-1" d="M9.5,23.5V16.678l1.4,1.091a3.523,3.523,0,0,0,4.182.085l2.287-1.634a1.5,1.5,0,1,0-1.744-2.442l-2.286,1.634a.5.5,0,0,1-.6-.012L9.42,12.815A1.493,1.493,0,0,0,8.5,12.5l0-.006h-5a3,3,0,0,0-3,3V21a1.5,1.5,0,0,0,3,0V16"/><line class="cls-1" x1="3.5" y1="21" x2="3.5" y2="23.5"/></svg>