<svg id="Light" xmlns="http://www.w3.org/2000/svg" viewBox="0 0 24 24"><defs><style>.cls-1{fill:none;stroke:#000;stroke-linecap:round;stroke-linejoin:round;}</style></defs><title>information-desk-paper</title><circle class="cls-1" cx="3.5" cy="3.25" r="2.5"/><circle class="cls-1" cx="20.5" cy="3.25" r="2.5"/><path class="cls-1" d="M2.512,23.25a1.5,1.5,0,0,1-1.5-1.5v-13A1.5,1.5,0,0,1,3.488,7.611a3.771,3.771,0,0,0,4.956-.054l.817-.732a1.5,1.5,0,1,1,2,2.235l-.816.731a6.771,6.771,0,0,1-6.434,1.442V21.75A1.5,1.5,0,0,1,2.512,23.25Z"/><path class="cls-1" d="M21.5,23.25a1.5,1.5,0,0,1-1.5-1.5V12.423a8.319,8.319,0,0,1-4.5,1.327,1.5,1.5,0,0,1,0-3,5.31,5.31,0,0,0,4.313-2.22l.466-.652A1.5,1.5,0,0,1,23,8.75v13A1.5,1.5,0,0,1,21.5,23.25Z"/><polyline class="cls-1" points="14.382 13.25 12 13.25 13 23.25 17 23.25 17 13.613"/><line class="cls-1" x1="10" y1="13.25" x2="12" y2="13.25"/><polyline class="cls-1" points="8.334 7.652 9.5 1.81 14.5 2.808 13.23 9.171 11.477 8.822"/></svg>