<svg id="Light" xmlns="http://www.w3.org/2000/svg" viewBox="0 0 24 24"><defs><style>.cls-1{fill:none;stroke:#000;stroke-linecap:round;stroke-linejoin:round;}</style></defs><title>information-desk-ticket</title><circle class="cls-1" cx="18" cy="3" r="2.5"/><circle class="cls-1" cx="5" cy="3" r="2.5"/><line class="cls-1" x1="18.5" y1="22" x2="18.5" y2="17"/><path class="cls-1" d="M9,14a1.5,1.5,0,0,0,1.5,1.5c3.954,0,4.261-3.544,5-4.611V22a1.5,1.5,0,0,0,3,0,1.5,1.5,0,0,0,3,0V16.5h1a1,1,0,0,0,1-1v-5a3,3,0,0,0-3-3H16.508a4.5,4.5,0,0,0-4.431,3.707l-.019.117A1.524,1.524,0,0,1,10.5,12.5,1.5,1.5,0,0,0,9,14Z"/><line class="cls-1" x1="21.5" y1="16.5" x2="21.5" y2="11"/><path class="cls-1" d="M.5,11.5v-1a3,3,0,0,1,3-3H7.063A2,2,0,0,0,8.6,6.78l2.034-2.44"/><path class="cls-1" d="M7.5,15.5H1A.5.5,0,0,1,.5,15V14a.5.5,0,0,1,.5-.5H7"/><line class="cls-1" x1="2.5" y1="15.5" x2="2.5" y2="23.5"/><path class="cls-1" d="M13,4.5H11a.5.5,0,0,1-.5-.5V1A.5.5,0,0,1,11,.5h2a.5.5,0,0,1,.5.5V4A.5.5,0,0,1,13,4.5Z"/></svg>