<svg id="Light" xmlns="http://www.w3.org/2000/svg" viewBox="0 0 24 24"><defs><style>.cls-1{fill:none;stroke:#000;stroke-linecap:round;stroke-linejoin:round;}</style></defs><title>insect-3</title><path class="cls-1" d="M8,11.463a.25.25,0,0,1,.25.25"/><path class="cls-1" d="M7.75,11.713a.25.25,0,0,1,.25-.25"/><path class="cls-1" d="M8,11.963a.25.25,0,0,1-.25-.25"/><path class="cls-1" d="M8.25,11.713a.25.25,0,0,1-.25.25"/><path class="cls-1" d="M16,11.463a.25.25,0,0,0-.25.25"/><path class="cls-1" d="M16.25,11.713a.25.25,0,0,0-.25-.25"/><path class="cls-1" d="M16,11.963a.25.25,0,0,0,.25-.25"/><path class="cls-1" d="M15.75,11.713a.25.25,0,0,0,.25.25"/><path class="cls-1" d="M8,9.213a4,4,0,0,1,8,0"/><path class="cls-1" d="M15.5,14.213a3.7,3.7,0,0,1-7,0"/><path class="cls-1" d="M.5,9.213l5.174-5.6A1,1,0,0,1,7.217,3.7L9.172,6.385"/><path class="cls-1" d="M23.5,9.213l-5.174-5.6a1,1,0,0,0-1.543.089L14.828,6.385"/><path class="cls-1" d="M10,20.713a3.208,3.208,0,0,1-.5-5"/><path class="cls-1" d="M14,20.713a3.208,3.208,0,0,0,.5-5"/></svg>