<svg id="Light" xmlns="http://www.w3.org/2000/svg" viewBox="0 0 24 24"><defs><style>.cls-1{fill:none;stroke:#000;stroke-linecap:round;stroke-linejoin:round;}</style></defs><title>insect-catch</title><line class="cls-1" x1="14" y1="16.5" x2="13" y2="19.5"/><path class="cls-1" d="M10,17.5s1-2,4-1l2.5,1-.5,4H13a2.512,2.512,0,0,1-2.5-.5"/><path class="cls-1" d="M16.5,17.5h3.764a3,3,0,0,1,2.683,1.658l.447.895A1,1,0,0,1,22.5,21.5H16"/><line class="cls-1" x1="15" y1="21.5" x2="13" y2="23.5"/><line class="cls-1" x1="20" y1="21.5" x2="22" y2="23.5"/><line class="cls-1" x1="17.5" y1="21.5" x2="17.5" y2="23.5"/><ellipse class="cls-1" cx="15.182" cy="4.325" rx="4.5" ry="3" transform="translate(1.389 12.002) rotate(-45)"/><path class="cls-1" d="M18.364,1.143S21.546,4.325,21.9,7.507A3.446,3.446,0,0,0,23,10.052a.5.5,0,0,1-.112.867c-1.906.755-6.027,1.45-10.89-3.412"/><line class="cls-1" x1="0.5" y1="19.007" x2="12" y2="7.507"/></svg>