<svg id="Light" xmlns="http://www.w3.org/2000/svg" viewBox="0 0 24 24"><defs><style>.cls-1{fill:none;stroke:#000;stroke-linecap:round;stroke-linejoin:round;}</style></defs><title>insect</title><path class="cls-1" d="M12.567,6.718h-6.5c-2.5,0-5.5,1.936-5.5,4.936,0,3.564,3.5,3.064,7,3.064h5Z"/><path class="cls-1" d="M20.567,6.218c-4-3.5-8,.5-8,.5v8h5.5c3.3,0,4.9-3.07,5.358-5.547a.5.5,0,0,0-.829-.46,6.686,6.686,0,0,1-4.029,2.007,2.333,2.333,0,0,1-2.5-2.5c0-1.5,1.078-3.3,2.342-3.247"/><path class="cls-1" d="M15.067,11.4a.249.249,0,0,1,.25.25"/><path class="cls-1" d="M14.817,11.654a.249.249,0,0,1,.25-.25"/><path class="cls-1" d="M15.067,11.9a.249.249,0,0,1-.25-.25"/><path class="cls-1" d="M15.317,11.654a.25.25,0,0,1-.25.25"/><path class="cls-1" d="M6.567,14.718s-3,1.5-3,4.5"/><path class="cls-1" d="M11.567,14.718s-3,1.5-3,4.5"/><path class="cls-1" d="M15.567,14.718a5.8,5.8,0,0,1,2,4.5"/><path class="cls-1" d="M11.567,14.718a5.8,5.8,0,0,1,2,4.5"/></svg>