<svg id="Light" xmlns="http://www.w3.org/2000/svg" viewBox="0 0 24 24"><defs><style>.cls-1{fill:none;stroke:#000;stroke-linecap:round;stroke-linejoin:round;}</style></defs><title>insurance-expensive</title><line class="cls-1" x1="0.5" y1="13" x2="23.5" y2="21"/><path class="cls-1" d="M23.5,9.5A.5.5,0,0,0,23,9H20.5V6.5A.5.5,0,0,0,20,6H17a.5.5,0,0,0-.5.5V9H14a.5.5,0,0,0-.5.5v3a.5.5,0,0,0,.5.5h2.5v2.5a.5.5,0,0,0,.5.5h3a.5.5,0,0,0,.5-.5V13H23a.5.5,0,0,0,.5-.5Z"/><circle class="cls-1" cx="5.5" cy="7" r="5"/><line class="cls-1" x1="5.5" y1="9" x2="5.5" y2="10"/><line class="cls-1" x1="5.5" y1="4" x2="5.5" y2="5"/><path class="cls-1" d="M3.5,9h3a1,1,0,0,0,0-2h-2a1,1,0,0,1,0-2h3"/><path class="cls-1" d="M11.611,17.217a.5.5,0,0,1,.778,0l3.2,3.968A.5.5,0,0,1,15.2,22H8.8a.5.5,0,0,1-.389-.815Z"/></svg>