<svg id="Light" xmlns="http://www.w3.org/2000/svg" viewBox="0 0 24 24"><defs><style>.cls-1{fill:none;stroke:#000;stroke-linecap:round;stroke-linejoin:round;}</style></defs><title>kangaroo</title><path class="cls-1" d="M7.761,12.5H3A6.588,6.588,0,0,0,4.5,16c2,2,3.646,2,3.646,2"/><path class="cls-1" d="M13.5,19.032V23.5h-8c0-2,1.5-2,3.5-2h2"/><path class="cls-1" d="M23,22.5c-3,0-6.5-4.5-7-7.5"/><path class="cls-1" d="M5.5,9A2.223,2.223,0,0,0,3,10"/><path class="cls-1" d="M9.755,10.851a4.516,4.516,0,1,0,3.359-.04C10.625,9.708,7.5,6.724,7.5,4,7.5,1.379,6.668.5,5,.5V2a10.031,10.031,0,0,0-3.7.862.5.5,0,0,0-.3.459v.931a.5.5,0,0,0,.2.4C1.838,5.124,3.841,6.5,5.5,6.5a19.169,19.169,0,0,0,.594,6"/><path class="cls-1" d="M5,3.75A.25.25,0,0,1,5.25,4"/><path class="cls-1" d="M4.75,4A.25.25,0,0,1,5,3.75"/><path class="cls-1" d="M5,4.25A.25.25,0,0,1,4.75,4"/><path class="cls-1" d="M5.25,4A.25.25,0,0,1,5,4.25"/></svg>