<svg id="Light" xmlns="http://www.w3.org/2000/svg" viewBox="0 0 24 24"><defs><style>.cls-1{fill:none;stroke:#000;stroke-linecap:round;stroke-linejoin:round;}</style></defs><title>kitchenware-scooper-1</title><path class="cls-1" d="M12.075,9.067,1.232,19.232a2.5,2.5,0,0,0,3.536,3.536L14.933,11.925"/><path class="cls-1" d="M18.255.508a1,1,0,0,0-1.107.808,6.052,6.052,0,0,1-4.792,4.832,1,1,0,0,0-.809,1.106A6,6,0,1,0,18.255.508Z"/><path class="cls-1" d="M11.884,8.616A6,6,0,0,0,20,3,6.21,6.21,0,0,0,19.617.848"/><line class="cls-1" x1="1.232" y1="19.232" x2="4.768" y2="22.768"/></svg>