<svg id="Light" xmlns="http://www.w3.org/2000/svg" viewBox="0 0 24 24"><defs><style>.cls-1{fill:none;stroke:#000;stroke-linecap:round;stroke-linejoin:round;}</style></defs><title>kitchenware-ladle-1</title><path class="cls-1" d="M9.75,18.5V6A5.5,5.5,0,0,0,4.25.5"/><path class="cls-1" d="M9.75,18.5a5,5,0,0,0,10,0V18"/><path class="cls-1" d="M19.75,18c0-.828-2.239-1.5-5-1.5s-5,.672-5,1.5c0,.658,1.423,1.212,3.39,1.413a.5.5,0,0,1,.366.22l.873,1.31a.5.5,0,0,0,.8.043l1.193-1.433a.5.5,0,0,1,.321-.176C18.486,19.15,19.75,18.621,19.75,18Z"/></svg>