<svg id="Light" xmlns="http://www.w3.org/2000/svg" viewBox="0 0 24 24"><defs><style>.cls-1{fill:none;stroke:#000;stroke-linecap:round;stroke-linejoin:round;}</style></defs><title>kitchen-counter-1</title><line class="cls-1" x1="0.5" y1="0.5" x2="0.5" y2="23.5"/><path class="cls-1" d="M23.5,11.5a1,1,0,0,1-1,1H.5v-2h22A1,1,0,0,1,23.5,11.5Z"/><line class="cls-1" x1="6.5" y1="0.5" x2="6.5" y2="3"/><path class="cls-1" d="M7.185,3.449a.747.747,0,0,0-1.37,0C5.263,4.71,4.169,7,6.5,7S7.731,4.694,7.185,3.449Z"/><line class="cls-1" x1="14.5" y1="0.5" x2="14.5" y2="3"/><path class="cls-1" d="M15.185,3.449a.747.747,0,0,0-1.37,0C13.263,4.71,12.169,7,14.5,7S15.731,4.694,15.185,3.449Z"/><line class="cls-1" x1="14.5" y1="16.5" x2="14.5" y2="22.5"/><path class="cls-1" d="M12.5,23.5l.707-.707a1,1,0,0,1,.707-.293h1.172a1,1,0,0,1,.707.293l.707.707"/><line class="cls-1" x1="20.5" y1="12.5" x2="20.5" y2="23.5"/><path class="cls-1" d="M17,15.5a1,1,0,0,1-1,1H13a1,1,0,0,1,0-2h3A1,1,0,0,1,17,15.5Z"/><line class="cls-1" x1="6.5" y1="16.5" x2="6.5" y2="22.5"/><path class="cls-1" d="M4.5,23.5l.707-.707a1,1,0,0,1,.707-.293H7.086a1,1,0,0,1,.707.293L8.5,23.5"/><path class="cls-1" d="M9,15.5a1,1,0,0,1-1,1H5a1,1,0,0,1,0-2H8A1,1,0,0,1,9,15.5Z"/></svg>