<svg id="Light" xmlns="http://www.w3.org/2000/svg" viewBox="0 0 24 24"><defs><style>.cls-1{fill:none;stroke:#000;stroke-linecap:round;stroke-linejoin:round;}</style></defs><title>kitchenware-honey</title><path class="cls-1" d="M15.228,10.894,3.06,23.06A1.5,1.5,0,0,1,.939,20.939L13.106,8.772"/><path class="cls-1" d="M13.141,8.741c-1.345-1.525-2.118-2.834-1.8-3.151.391-.39,2.29.876,4.243,2.829s3.219,3.852,2.828,4.242c-.316.317-1.626-.456-3.151-1.8"/><path class="cls-1" d="M17.047.589c.391-.391,1.937.522,3.889,2.475s2.866,3.5,2.475,3.889"/><path class="cls-1" d="M12.223,3.292c.488-.488,2.784,1.016,5.127,3.359s3.847,4.638,3.358,5.126"/><path class="cls-1" d="M13.991,1.524c.488-.488,2.783,1.016,5.126,3.359s3.847,4.638,3.359,5.127"/></svg>