<svg id="Light" xmlns="http://www.w3.org/2000/svg" viewBox="0 0 24 24"><defs><style>.cls-1{fill:none;stroke:#000;stroke-linecap:round;stroke-linejoin:round;}</style></defs><title>kitchen-shelf</title><path class="cls-1" d="M23.5,4.5a1,1,0,0,1-1,1H1.5a1,1,0,0,1,0-2h21A1,1,0,0,1,23.5,4.5Z"/><path class="cls-1" d="M23.5,13.5a1,1,0,0,1-1,1H1.5a1,1,0,0,1,0-2h21A1,1,0,0,1,23.5,13.5Z"/><line class="cls-1" x1="9.5" y1="16.5" x2="9.5" y2="20.5"/><path class="cls-1" d="M9.5,21.25a2.25,2.25,0,0,1-4.5,0,.75.75,0,0,1,.75-.75H9.5Z"/><line class="cls-1" x1="20.5" y1="16.5" x2="20.5" y2="19"/><ellipse class="cls-1" cx="20.5" cy="21.5" rx="1.5" ry="2"/><line class="cls-1" x1="14.5" y1="16.5" x2="14.5" y2="19"/><ellipse class="cls-1" cx="14.5" cy="21.5" rx="1.5" ry="2"/><path class="cls-1" d="M11.75.5a3,3,0,0,1-3,3H7.25a3,3,0,0,1-3-3Z"/><path class="cls-1" d="M9.5,9.5a3,3,0,0,1-3,3H5a3,3,0,0,1-3-3Z"/><rect class="cls-1" x="13.5" y="7.5" width="5" height="5"/><path class="cls-1" d="M18.5,8.5h.877a1.123,1.123,0,0,1,.272,2.213L18.5,11"/></svg>