<svg id="Light" xmlns="http://www.w3.org/2000/svg" viewBox="0 0 24 24"><defs><style>.cls-1{fill:none;stroke:#000;stroke-linecap:round;stroke-linejoin:round;}</style></defs><title>knife-board</title><path class="cls-1" d="M22.5,17.5a1,1,0,0,0,1-1V3.5a1,1,0,0,0-1-1H5.244a1.015,1.015,0,0,0-.948.687A2.551,2.551,0,0,1,2.585,4.9,3,3,0,0,0,.5,7.76v4.481A3,3,0,0,0,2.585,15.1,2.572,2.572,0,0,1,4.3,16.82a1.014,1.014,0,0,0,.945.68H12.5"/><path class="cls-1" d="M3.734,13.173A.5.5,0,0,0,4.5,12.75V7.25a.5.5,0,0,0-.766-.423A2.64,2.64,0,0,0,2.5,9.062v1.876A2.64,2.64,0,0,0,3.734,13.173Z"/><path class="cls-1" d="M22.207,19.793a1,1,0,0,1-1.414,1.414l-2.828-2.828,1.414-1.414Z"/><path class="cls-1" d="M14.86,17.4a10.024,10.024,0,0,1-2.926-6.648.5.5,0,0,1,.853-.375l6.592,6.592-2.122,2.121a.5.5,0,0,1-.707,0Z"/></svg>