<svg id="Light" xmlns="http://www.w3.org/2000/svg" viewBox="0 0 24 24"><defs><style>.cls-1{fill:none;stroke:#000;stroke-linecap:round;stroke-linejoin:round;}</style></defs><title>koala-body</title><path class="cls-1" d="M9.517,4.25a.25.25,0,0,1,.25.25"/><path class="cls-1" d="M9.267,4.5a.249.249,0,0,1,.25-.25"/><path class="cls-1" d="M9.517,4.75a.249.249,0,0,1-.25-.25"/><path class="cls-1" d="M9.767,4.5a.25.25,0,0,1-.25.25"/><path class="cls-1" d="M14.517,4.25a.25.25,0,0,1,.25.25"/><path class="cls-1" d="M14.267,4.5a.249.249,0,0,1,.25-.25"/><path class="cls-1" d="M14.517,4.75a.249.249,0,0,1-.25-.25"/><path class="cls-1" d="M14.767,4.5a.25.25,0,0,1-.25.25"/><path class="cls-1" d="M13.517,8a1.5,1.5,0,0,1-3,0s.5-2.5,1.5-2.5S13.517,8,13.517,8Z"/><path class="cls-1" d="M12.017.5a5.487,5.487,0,0,0-4.2,1.949,5.07,5.07,0,0,0-2.8-.949C.532,1.5.475,9.209,6.806,7.751a5.5,5.5,0,0,0,10.421,0c6.315,1.455,6.2-6.251,1.79-6.251a5.07,5.07,0,0,0-2.8.949A5.486,5.486,0,0,0,12.017.5Z"/><path class="cls-1" d="M9.517,18.5h2.5l1.5,1.5,1.5-1.5c1.5-1.5,3,.5,1.5,2L14.1,22.914a2,2,0,0,1-1.414.586H8.017a6.108,6.108,0,0,1-4.5-2,5.315,5.315,0,0,1-.5-6c.575-.863,1.959-2.857,3.031-4.4"/><path class="cls-1" d="M12.867,16.8l1.1-2.194A2,2,0,0,1,15.753,13.5h2.264c3,0,2.5-3,2.5-3h-2.5"/></svg>