<svg xmlns="http://www.w3.org/2000/svg" viewBox="0 0 24 24"><defs><style>.a{fill:none;stroke:#000;stroke-linecap:round;stroke-linejoin:round;}</style></defs><title>lab-tubes</title><path class="a" d="M.5,7V17a4,4,0,0,0,4,4h15a4,4,0,0,0,4-4V7"/><path class="a" d="M7.5,14.5a2.5,2.5,0,0,1-2.758,2.487A2.6,2.6,0,0,1,2.5,14.358V3.5A.5.5,0,0,1,3,3H7a.5.5,0,0,1,.5.5Z"/><path class="a" d="M14.5,14.5a2.5,2.5,0,0,1-2.758,2.487A2.6,2.6,0,0,1,9.5,14.358V3.5A.5.5,0,0,1,10,3h4a.5.5,0,0,1,.5.5Z"/><path class="a" d="M21.5,14.5a2.5,2.5,0,0,1-2.758,2.487A2.6,2.6,0,0,1,16.5,14.358V3.5A.5.5,0,0,1,17,3h4a.5.5,0,0,1,.5.5Z"/><line class="a" x1="0.5" y1="10" x2="2.5" y2="10"/><line class="a" x1="7.5" y1="10" x2="9.5" y2="10"/><line class="a" x1="14.5" y1="10" x2="16.5" y2="10"/><line class="a" x1="21.5" y1="10" x2="23.5" y2="10"/><line class="a" x1="2.5" y1="8" x2="7.5" y2="8"/><line class="a" x1="9.5" y1="8" x2="14.5" y2="8"/><line class="a" x1="16.5" y1="8" x2="21.5" y2="8"/><path class="a" d="M4.5,9.75a.25.25,0,0,1,.25.25"/><path class="a" d="M4.25,10a.25.25,0,0,1,.25-.25"/><path class="a" d="M4.5,10.25A.25.25,0,0,1,4.25,10"/><path class="a" d="M4.75,10a.25.25,0,0,1-.25.25"/><path class="a" d="M5.5,13.75a.25.25,0,0,1,.25.25"/><path class="a" d="M5.25,14a.25.25,0,0,1,.25-.25"/><path class="a" d="M5.5,14.25A.25.25,0,0,1,5.25,14"/><path class="a" d="M5.75,14a.25.25,0,0,1-.25.25"/><path class="a" d="M11.5,9.75a.25.25,0,0,1,.25.25"/><path class="a" d="M11.25,10a.25.25,0,0,1,.25-.25"/><path class="a" d="M11.5,10.25a.25.25,0,0,1-.25-.25"/><path class="a" d="M11.75,10a.25.25,0,0,1-.25.25"/><path class="a" d="M19.5,10.25a.25.25,0,0,1,.25.25"/><path class="a" d="M19.25,10.5a.25.25,0,0,1,.25-.25"/><path class="a" d="M19.5,10.75a.25.25,0,0,1-.25-.25"/><path class="a" d="M19.75,10.5a.25.25,0,0,1-.25.25"/><path class="a" d="M18.5,12.75a.25.25,0,0,1,.25.25"/><path class="a" d="M18.25,13a.25.25,0,0,1,.25-.25"/><path class="a" d="M18.5,13.25a.25.25,0,0,1-.25-.25"/><path class="a" d="M18.75,13a.25.25,0,0,1-.25.25"/><path class="a" d="M12.5,12.75a.25.25,0,0,1,.25.25"/><path class="a" d="M12.25,13a.25.25,0,0,1,.25-.25"/><path class="a" d="M12.5,13.25a.25.25,0,0,1-.25-.25"/><path class="a" d="M12.75,13a.25.25,0,0,1-.25.25"/></svg>