<svg xmlns="http://www.w3.org/2000/svg" viewBox="0 0 24 24"><defs><style>.a{fill:none;stroke:#000;stroke-linecap:round;stroke-linejoin:round;}</style></defs><title>lab-whisk-cup</title><path class="a" d="M19.23,11.126v10.5a2,2,0,0,1-2,2h-10a2,2,0,0,1-2-2V9.476a1,1,0,0,0-.219-.625L3.88,7.437a.5.5,0,0,1,.39-.812H16.406"/><circle class="a" cx="13.73" cy="20.125" r="1.5"/><line class="a" x1="14.23" y1="18.711" x2="20.23" y2="1.625"/><line class="a" x1="9.23" y1="15.625" x2="16.73" y2="15.625"/><line class="a" x1="16.73" y1="15.625" x2="19.23" y2="15.625"/><path class="a" d="M10.73,11.875a.25.25,0,0,1,.25.25"/><path class="a" d="M10.48,12.125a.25.25,0,0,1,.25-.25"/><path class="a" d="M10.73,12.375a.25.25,0,0,1-.25-.25"/><path class="a" d="M10.98,12.125a.25.25,0,0,1-.25.25"/><path class="a" d="M12.23,8.375a.25.25,0,0,1,.25.25"/><path class="a" d="M11.98,8.625a.25.25,0,0,1,.25-.25"/><path class="a" d="M12.23,8.875a.25.25,0,0,1-.25-.25"/><path class="a" d="M12.48,8.625a.25.25,0,0,1-.25.25"/><path class="a" d="M11.73.875a.25.25,0,0,1,.25.25"/><path class="a" d="M11.48,1.125a.25.25,0,0,1,.25-.25"/><path class="a" d="M11.73,1.375a.25.25,0,0,1-.25-.25"/><path class="a" d="M11.98,1.125a.25.25,0,0,1-.25.25"/><path class="a" d="M9.73,3.875a.25.25,0,0,1,.25.25"/><path class="a" d="M9.48,4.125a.25.25,0,0,1,.25-.25"/><path class="a" d="M9.73,4.375a.25.25,0,0,1-.25-.25"/><path class="a" d="M9.98,4.125a.25.25,0,0,1-.25.25"/><line class="a" x1="5.23" y1="11.125" x2="7.23" y2="11.125"/><line class="a" x1="5.23" y1="20.125" x2="7.23" y2="20.125"/><line class="a" x1="5.23" y1="15.625" x2="7.23" y2="15.625"/></svg>