<svg xmlns="http://www.w3.org/2000/svg" viewBox="0 0 24 24"><defs><style>.a{fill:none;stroke:#000;stroke-linecap:round;stroke-linejoin:round;}</style></defs><title>lab-flame-bottle</title><path class="a" d="M10.179.519a.257.257,0,0,0-.3.381,3.549,3.549,0,0,1,.168,3.532,2.2,2.2,0,0,1-.764-1,.247.247,0,0,0-.338-.14A2.854,2.854,0,0,0,7,5.887c0,4.886,7,4.524,7,0A6.016,6.016,0,0,0,10.179.519Z"/><path class="a" d="M9,11.5,9,16,5.94,18.678A2.751,2.751,0,0,0,5,20.749H5A2.75,2.75,0,0,0,7.75,23.5h5.5A2.75,2.75,0,0,0,16,20.75v0a2.75,2.75,0,0,0-.939-2.07L12,16l0-4.5"/><line class="a" x1="17" y1="12.5" x2="12" y2="12.5"/><line class="a" x1="12" y1="14.5" x2="17" y2="14.5"/><path class="a" d="M18,11.5h1a0,0,0,0,1,0,0v4a0,0,0,0,1,0,0H18a1,1,0,0,1-1-1v-2A1,1,0,0,1,18,11.5Z"/><path class="a" d="M8,9.5h5a0,0,0,0,1,0,0v1a1,1,0,0,1-1,1H9a1,1,0,0,1-1-1v-1A0,0,0,0,1,8,9.5Z"/><path class="a" d="M5.09,21.446l2.043-1.013a3.9,3.9,0,0,1,3.679.1h0a3.9,3.9,0,0,0,3.471.2l1.616-.713"/></svg>