<svg xmlns="http://www.w3.org/2000/svg" viewBox="0 0 24 24"><defs><style>.a{fill:none;stroke:#000;stroke-linecap:round;stroke-linejoin:round;}</style></defs><title>landmark-mountain</title><path class="a" d="M5.545,22.955a.5.5,0,0,0,.5.545H16.5s-.5-10-5.5-10C6.712,13.5,5.735,20.867,5.545,22.955Z"/><path class="a" d="M12.479,13.836C13.29,10.007,14.778,6.5,17.5,6.5c5.378,0,5.936,13.657,5.994,16.49a.5.5,0,0,1-.5.51H19"/><polyline class="a" points="13.467 10.464 15.503 12.5 17.503 10.5 19.503 12.5 21.55 10.453"/><path class="a" d="M8.567,6.5A2.206,2.206,0,0,0,10.5,4.349,2.147,2.147,0,0,0,8.274,2.2,2.988,2.988,0,0,0,5.556.5,3.087,3.087,0,0,0,2.449,3.308,1.614,1.614,0,0,0,.5,4.887,1.634,1.634,0,0,0,2.224,6.5Z"/></svg>