<svg xmlns="http://www.w3.org/2000/svg" viewBox="0 0 24 24"><defs><style>.a{fill:none;stroke:#000;stroke-linecap:round;stroke-linejoin:round;}</style></defs><title>landmark-taj-mahal</title><line class="a" x1="20.5" y1="15.5" x2="3.5" y2="15.5"/><line class="a" x1="3.5" y1="23.5" x2="20.5" y2="23.5"/><path class="a" d="M8.5,23.5V19a1.5,1.5,0,0,0-3,0v4.5"/><path class="a" d="M13.5,23.5V19a1.5,1.5,0,0,0-3,0v4.5"/><path class="a" d="M18.5,23.5V19a1.5,1.5,0,0,0-3,0v4.5"/><path class="a" d="M23.5,23a.5.5,0,0,1-.5.5H20.5V13a.5.5,0,0,1,.5-.5h2a.5.5,0,0,1,.5.5Z"/><path class="a" d="M23.5,8.722a1.5,1.5,0,1,1-3,0,4.658,4.658,0,0,1,1.109-2.034.5.5,0,0,1,.782,0A4.668,4.668,0,0,1,23.5,8.722Z"/><path class="a" d="M3.5,23.5H1A.5.5,0,0,1,.5,23V13a.5.5,0,0,1,.5-.5H3a.5.5,0,0,1,.5.5Z"/><path class="a" d="M3.5,8.722a1.5,1.5,0,0,1-3,0A4.668,4.668,0,0,1,1.609,6.688a.5.5,0,0,1,.782,0A4.658,4.658,0,0,1,3.5,8.722Z"/><path class="a" d="M17.5,11.443c0,2.486-2,4-5.5,4s-5.5-1.514-5.5-4,5.5-5.5,5.5-5.5S17.5,8.958,17.5,11.443Z"/><path class="a" d="M14.355,3.018A2,2,0,1,1,11.675.5"/><line class="a" x1="12" y1="5.943" x2="12" y2="4.27"/></svg>