<svg xmlns="http://www.w3.org/2000/svg" viewBox="0 0 24 24"><defs><style>.a{fill:none;stroke:#000;stroke-linecap:round;stroke-linejoin:round;}</style></defs><title>landmark-statue-of-liberty</title><path class="a" d="M7.964,23.5a.5.5,0,0,1-.448-.724l.5-1a.5.5,0,0,1,.448-.276h8.381a.5.5,0,0,1,.448.276l.5,1a.5.5,0,0,1-.448.724Z"/><line class="a" x1="16.155" y1="21.5" x2="15.46" y2="17.335"/><path class="a" d="M6.159,8.309l3.656,6.58a2,2,0,0,1,.225,1.3L9.155,21.5"/><path class="a" d="M14.654,10.5h-3.5a2,2,0,0,1-1.6-.8L6.973,6.257"/><path class="a" d="M14.155,6.5V8a1.5,1.5,0,0,1-3,0V6.5"/><polygon class="a" points="15.655 4.5 15.155 6.5 10.155 6.5 9.655 4.5 11.655 5 12.655 4 13.655 5 15.655 4.5"/><path class="a" d="M7.655,5a1.5,1.5,0,0,1-3,0V4.5h3Z"/><path class="a" d="M7.655,2.5a1.5,1.5,0,0,1-3,0c0-.828,1.5-2,1.5-2S7.655,1.672,7.655,2.5Z"/><path class="a" d="M17.793,15.224a.5.5,0,0,1-.448.276H14.964a.5.5,0,0,1-.448-.724l1.5-3a.5.5,0,0,1,.448-.276h2.381a.5.5,0,0,1,.448.724Z"/></svg>