<svg xmlns="http://www.w3.org/2000/svg" viewBox="0 0 24 24"><defs><style>.a{fill:none;stroke:#000;stroke-linecap:round;stroke-linejoin:round;}</style></defs><title>landmark-chinese-pagoda-1</title><line class="a" x1="17.5" y1="22.75" x2="17.5" y2="18.75"/><line class="a" x1="5.5" y1="18.75" x2="5.5" y2="22.75"/><polyline class="a" points="4.5 17.25 4.5 18.75 18.5 18.75 18.5 17.25"/><polyline class="a" points="5.5 16.25 5.5 13.75 17.5 13.75 17.5 16.25"/><path class="a" d="M5.5,13.75c-2.15,0-2.942.19-4.374-.613a.25.25,0,0,1,.1-.467l.881-.1A13.358,13.358,0,0,0,7.5,10.75h0"/><path class="a" d="M17.5,13.75c2.15,0,2.942.19,4.374-.613a.25.25,0,0,0-.095-.467l-.881-.1a13.358,13.358,0,0,1-5.4-1.822h0"/><polyline class="a" points="7.5 9.25 7.5 10.75 15.5 10.75 15.5 9.25"/><line class="a" x1="9.5" y1="10.75" x2="9.5" y2="9.25"/><line class="a" x1="11.5" y1="10.75" x2="11.5" y2="9.25"/><line class="a" x1="13.5" y1="10.75" x2="13.5" y2="9.25"/><polyline class="a" points="8.5 8.25 8.5 6.75 14.5 6.75 14.5 8.25"/><line class="a" x1="6.5" y1="18.75" x2="6.5" y2="17.25"/><line class="a" x1="8.5" y1="18.75" x2="8.5" y2="17.25"/><line class="a" x1="10.5" y1="18.75" x2="10.5" y2="17.25"/><line class="a" x1="12.5" y1="18.75" x2="12.5" y2="17.25"/><line class="a" x1="14.5" y1="18.75" x2="14.5" y2="17.25"/><line class="a" x1="16.5" y1="18.75" x2="16.5" y2="17.25"/><path class="a" d="M8.5,6.75a4.171,4.171,0,0,1-1.873-.212.25.25,0,0,1,.022-.473L7.1,5.937A11.239,11.239,0,0,0,11,3.75h0"/><path class="a" d="M14.5,6.75a4.171,4.171,0,0,0,1.873-.212.25.25,0,0,0-.022-.473L15.9,5.937A11.239,11.239,0,0,1,12,3.75h0"/><line class="a" x1="11" y1="3.75" x2="12" y2="3.75"/><line class="a" x1="10" y1="3.75" x2="13" y2="3.75"/><path class="a" d="M10,1.75l.5-.5,1,1.5,1-1a.707.707,0,0,1,1,0h0a.707.707,0,0,1,0,1"/><line class="a" x1="0.5" y1="22.75" x2="23.5" y2="22.75"/><line class="a" x1="13.5" y1="18.75" x2="13.5" y2="22.75"/></svg>