<svg xmlns="http://www.w3.org/2000/svg" viewBox="0 0 24 24"><defs><style>.a{fill:none;stroke:#000;stroke-linecap:round;stroke-linejoin:round;}</style></defs><title>landmark-chinese-wall</title><path class="a" d="M.5,7c6.947,2.315,8.742,3.316,13,8"/><polyline class="a" points="6.5 9.293 6.5 3 0.5 3 0.5 7"/><path class="a" d="M13.5,20V6.5A.5.5,0,0,1,14,6h1a.5.5,0,0,1,.5.5V8h2V6.5A.5.5,0,0,1,18,6h1a.5.5,0,0,1,.5.5V8h2V6.5A.5.5,0,0,1,22,6h1a.5.5,0,0,1,.5.5V17A18.25,18.25,0,0,0,19,22h0"/><path class="a" d="M6.5,7a33.254,33.254,0,0,1,7,3"/><path class="a" d="M13.5,17C10.649,17.535,6,18.111,1,22H1"/><path class="a" d="M13.5,20l-.124.021A15.347,15.347,0,0,0,8,22H8"/><path class="a" d="M13.5,20h2V13.75a3.25,3.25,0,0,1,3.25-3.25h0a2.75,2.75,0,0,1,2.75,2.75v5.526"/><path class="a" d="M2.5,7.682V6a1,1,0,0,1,1-1h0a1,1,0,0,1,1,1V8.423"/><path class="a" d="M.5,7v4a13.078,13.078,0,0,1,9.006,6.818"/><line class="a" x1="3.5" y1="3" x2="3.5" y2="2"/><line class="a" x1="0.5" y1="3" x2="0.5" y2="2"/><line class="a" x1="6.5" y1="3" x2="6.5" y2="2"/></svg>