<svg xmlns="http://www.w3.org/2000/svg" viewBox="0 0 24 24"><defs><style>.a{fill:none;stroke:#000;stroke-linecap:round;stroke-linejoin:round;}</style></defs><title>landmark-volcano</title><circle class="a" cx="5.5" cy="4.69" r="3"/><path class="a" d="M6.786,16.258,8.368,18a.5.5,0,0,0,.371.164A.5.5,0,0,0,9.109,18l2.52-2.79a.5.5,0,0,1,.742,0l2.522,2.793a.5.5,0,0,0,.369.165.5.5,0,0,0,.37-.161l1.751-1.9"/><path class="a" d="M23.5,22.19c-3.309-2.473-7.83-6.92-8.239-11H8.739c0,4.148-4.779,8.662-8.239,11.12"/></svg>