<svg xmlns="http://www.w3.org/2000/svg" viewBox="0 0 24 24"><defs><style>.a{fill:none;stroke:#000;stroke-linecap:round;stroke-linejoin:round;}</style></defs><title>landmark-brooklyn-bridge</title><path class="a" d="M23.494,6.317A6.318,6.318,0,0,1,18.5.5c0,3.314-3.186,6-6.5,6S5.5,3.814,5.5.5A6.319,6.319,0,0,1,.484,6.323"/><line class="a" x1="0.5" y1="11.5" x2="23.5" y2="11.5"/><line class="a" x1="6.5" y1="17.5" x2="6.5" y2="11.5"/><line class="a" x1="4.5" y1="11.5" x2="4.5" y2="16.5"/><line class="a" x1="17.5" y1="16.5" x2="17.5" y2="11.501"/><line class="a" x1="19.5" y1="11.5" x2="19.5" y2="16.5"/><line class="a" x1="2.501" y1="5.483" x2="2.501" y2="11.5"/><line class="a" x1="5.501" y1="0.5" x2="5.501" y2="11.5"/><line class="a" x1="8.501" y1="5.484" x2="8.501" y2="11.5"/><line class="a" x1="12.501" y1="6.48" x2="12.501" y2="11.5"/><line class="a" x1="15.501" y1="5.501" x2="15.501" y2="11.5"/><line class="a" x1="18.5" y1="0.5" x2="18.501" y2="11.5"/><line class="a" x1="21.501" y1="5.483" x2="21.501" y2="11.498"/><path class="a" d="M23.491,23.388c-2.5.521-4.06-1.979-4.06-1.979h0a4.4,4.4,0,0,1-3.621,2.056,4.607,4.607,0,0,1-3.615-2.056h0a4.4,4.4,0,0,1-3.62,2.056,4.6,4.6,0,0,1-3.615-2.056h0s-2,2.542-4.455,2.02"/><path class="a" d="M23.491,19.888c-2.5.521-4.06-1.979-4.06-1.979h0a4.4,4.4,0,0,1-3.621,2.056,4.607,4.607,0,0,1-3.615-2.056h0a4.4,4.4,0,0,1-3.62,2.056,4.6,4.6,0,0,1-3.615-2.056h0s-2,2.542-4.455,2.02"/></svg>