<svg xmlns="http://www.w3.org/2000/svg" viewBox="0 0 24 24"><defs><style>.a{fill:none;stroke:#000;stroke-linecap:round;stroke-linejoin:round;}</style></defs><title>landmark-stonehenge</title><path class="a" d="M9.5,10.5a2,2,0,0,0-2-2H5.34a2,2,0,0,0-1.993,1.834l-.666,10A2,2,0,0,0,4.674,22.5H7.5a2,2,0,0,0,2-2Z"/><path class="a" d="M14.5,10.5a2,2,0,0,1,2-2h2.16a2,2,0,0,1,1.993,1.834l.666,10A2,2,0,0,1,19.326,22.5H16.5a2,2,0,0,1-2-2Z"/><path class="a" d="M23.5,5.5a1,1,0,0,1-1,1H1.5a1,1,0,0,1-1-1v-3a1,1,0,0,1,1-1h21a1,1,0,0,1,1,1Z"/></svg>