<svg xmlns="http://www.w3.org/2000/svg" viewBox="0 0 24 24"><defs><style>.a{fill:none;stroke:#000;stroke-linecap:round;stroke-linejoin:round;}</style></defs><title>landmark-forbidden-city</title><path class="a" d="M1,22.25l.886-2.658a.5.5,0,0,1,.474-.342H21.64a.5.5,0,0,1,.474.342L23,22.25"/><line class="a" x1="21" y1="14.25" x2="21" y2="19.25"/><line class="a" x1="3" y1="19.25" x2="3" y2="14.25"/><path class="a" d="M19.5,11.25H4.5A21.2,21.2,0,0,1,1.643,13.8a.25.25,0,0,0,.148.451H22.209a.25.25,0,0,0,.148-.451A21.2,21.2,0,0,1,19.5,11.25Z"/><path class="a" d="M18.5,3.25H5.5A26.327,26.327,0,0,1,1.55,8.815a.249.249,0,0,0-.066.275.252.252,0,0,0,.234.16H22.282a.25.25,0,0,0,.168-.435A26.327,26.327,0,0,1,18.5,3.25Z"/><path class="a" d="M7,19.25v-2a1,1,0,0,0-2,0v2"/><path class="a" d="M11,19.25v-2a1,1,0,0,0-2,0v2"/><path class="a" d="M15,19.25v-2a1,1,0,0,0-2,0v2"/><path class="a" d="M19,19.25v-2a1,1,0,0,0-2,0v2"/><line class="a" x1="5" y1="11.25" x2="5" y2="9.25"/><line class="a" x1="19" y1="11.25" x2="19" y2="9.25"/><path class="a" d="M18.5,3.25s1,0,1-1.5"/><path class="a" d="M5.5,3.25s-1,0-1-1.5"/></svg>