<svg xmlns="http://www.w3.org/2000/svg" viewBox="0 0 24 24"><defs><style>.a{fill:none;stroke:#000;stroke-linecap:round;stroke-linejoin:round;}</style></defs><title>landmark-shrine-of-itsukushima</title><path class="a" d="M22.57,5.735a.5.5,0,0,1-.494.417H1.924a.5.5,0,0,1-.494-.417L.713,1.43a.5.5,0,0,1,.761-.5C2.877,1.814,5.989,3.152,12,3.152S21.123,1.814,22.527.925a.5.5,0,0,1,.76.5Z"/><line class="a" x1="3.5" y1="21.152" x2="3.5" y2="6.152"/><line class="a" x1="6.5" y1="6.152" x2="6.5" y2="21.152"/><line class="a" x1="20.5" y1="21.152" x2="20.5" y2="6.152"/><line class="a" x1="17.5" y1="6.152" x2="17.5" y2="21.152"/><line class="a" x1="10.5" y1="6.152" x2="10.5" y2="11.152"/><line class="a" x1="13.5" y1="6.152" x2="13.5" y2="11.152"/><line class="a" x1="1" y1="11.152" x2="23" y2="11.152"/><path class="a" d="M8,23.152H2l.4-1.62a.5.5,0,0,1,.485-.38H7.11a.5.5,0,0,1,.485.379Z"/><path class="a" d="M22,23.152H16l.4-1.62a.5.5,0,0,1,.485-.38H21.11a.5.5,0,0,1,.485.379Z"/><line class="a" x1="0.5" y1="23.152" x2="23.5" y2="23.152"/></svg>