<svg id="Light" xmlns="http://www.w3.org/2000/svg" viewBox="0 0 24 24"><defs><style>.cls-1{fill:none;stroke:#000;stroke-linecap:round;stroke-linejoin:round;}</style></defs><title>landmarks-monument</title><path class="cls-1" d="M6.5,21.482h11a1,1,0,0,1,1,1v.5a.5.5,0,0,1-.5.5H6a.5.5,0,0,1-.5-.5v-.5A1,1,0,0,1,6.5,21.482Z"/><path class="cls-1" d="M17,21.482v-1a1,1,0,0,0-1-1H8a1,1,0,0,0-1,1v1"/><path class="cls-1" d="M8,19.482l.976-16a1,1,0,0,1,.291-.645L11.293.811a1,1,0,0,1,1.414,0l2.026,2.026a1,1,0,0,1,.291.645l.976,16"/></svg>