<svg xmlns="http://www.w3.org/2000/svg" viewBox="0 0 24 24"><defs><style>.a{fill:none;stroke:#000;stroke-linecap:round;stroke-linejoin:round;}</style></defs><title>landmark-sydney-opera-house-1</title><path class="a" d="M23.5,23.5a5.153,5.153,0,0,1-3.833-2,5.156,5.156,0,0,1-3.834,2A5.153,5.153,0,0,1,12,21.5a5.153,5.153,0,0,1-3.833,2,5.156,5.156,0,0,1-3.834-2A5.153,5.153,0,0,1,.5,23.5"/><path class="a" d="M21,5.5a2.5,2.5,0,1,0-2.49-2.6A1.5,1.5,0,1,0,17.5,5.5Z"/><line class="a" x1="0.5" y1="19.497" x2="23.5" y2="19.497"/><polyline class="a" points="13.5 19.497 17.5 15.497 21.5 19.497"/><path class="a" d="M17.5,15.5S16.1,8.01,9.214,8.428a.5.5,0,0,0-.425.706L13.5,19.5"/><path class="a" d="M7.5,19.5,3.792,11.618a.5.5,0,0,1,.408-.711,7.39,7.39,0,0,1,7.425,4.465Z"/><path class="a" d="M6.22,16.777,3.5,19.5.815,15.023a.5.5,0,0,1,.3-.74C4.258,13.436,6.22,16.777,6.22,16.777Z"/><path class="a" d="M17.5,15.5s1.828-2.285,5.485-1.175a.5.5,0,0,1,.319.665L21.5,19.5"/></svg>