<svg xmlns="http://www.w3.org/2000/svg" viewBox="0 0 24 24"><defs><style>.a{fill:none;stroke:#000;stroke-linecap:round;stroke-linejoin:round;}</style></defs><title>landmark-chrysler</title><path class="a" d="M5,23.5v-5H4a1,1,0,0,0-1,1v4"/><path class="a" d="M10.5,4.177V3A1.5,1.5,0,0,1,12,1.5h0A1.5,1.5,0,0,1,13.5,3V4.177"/><line class="a" x1="12" y1="1.5" x2="12" y2="0.5"/><line class="a" x1="11" y1="12.5" x2="11" y2="20.5"/><line class="a" x1="13" y1="12.5" x2="13" y2="20.5"/><line class="a" x1="7" y1="16.5" x2="7" y2="20.5"/><path class="a" d="M10,6.03V5.5a2,2,0,0,1,4,0v.535"/><path class="a" d="M8,14.5v-5a4,4,0,0,1,8,0v5"/><path class="a" d="M8,10.5h2v-1a2,2,0,0,1,4,0v1h2"/><path class="a" d="M5,23.5v-8a1,1,0,0,1,1-1H8a1,1,0,0,1,1,1v8"/><path class="a" d="M19,23.5v-5h1a1,1,0,0,1,1,1v4"/><line class="a" x1="17" y1="16.5" x2="17" y2="20.5"/><path class="a" d="M19,23.5v-8a1,1,0,0,0-1-1H16a1,1,0,0,0-1,1v8"/></svg>