<svg xmlns="http://www.w3.org/2000/svg" viewBox="0 0 24 24"><defs><style>.a{fill:none;stroke:#000;stroke-linecap:round;stroke-linejoin:round;}</style></defs><title>landmark-colosseum-1</title><path class="a" d="M12.5,20.5a.5.5,0,0,1-.5.5H1a.5.5,0,0,1-.5-.5V3.5A.5.5,0,0,1,1,3H8.15a.5.5,0,0,1,.47.329l3.82,10.505a1,1,0,0,1,.06.342Z"/><line class="a" x1="10.318" y1="8" x2="0.5" y2="8"/><line class="a" x1="12.484" y1="14" x2="0.5" y2="14"/><path class="a" d="M5.5,21V18.5a1.5,1.5,0,0,0-3,0V21"/><path class="a" d="M10.5,21V18.5a1.5,1.5,0,0,0-3,0V21"/><path class="a" d="M5.5,14V11.5a1.5,1.5,0,0,0-3,0V14"/><path class="a" d="M9,10a1.5,1.5,0,0,0-1.5,1.5V14"/><path class="a" d="M14.5,14h2V11.5a1.5,1.5,0,0,0-3,0"/><path class="a" d="M21.5,11.5a1.5,1.5,0,0,0-3,0V14h3Z"/><path class="a" d="M16.5,21V18.5A1.5,1.5,0,0,0,15,17"/><path class="a" d="M21.5,21V18.5a1.5,1.5,0,0,0-3,0V21"/><path class="a" d="M12.5,8H23a.5.5,0,0,1,.5.5v12a.5.5,0,0,1-.5.5H14.5"/><line class="a" x1="2.5" y1="5" x2="2.5" y2="5.5"/><line class="a" x1="4.5" y1="5" x2="4.5" y2="5.5"/><line class="a" x1="6.5" y1="5" x2="6.5" y2="5.5"/></svg>