<svg xmlns="http://www.w3.org/2000/svg" viewBox="0 0 24 24"><defs><style>.a{fill:none;stroke:#000;stroke-linecap:round;stroke-linejoin:round;}</style></defs><title>landmark-hagia-sophia</title><line class="a" x1="1.5" y1="1.5" x2="1.5" y2="0.5"/><path class="a" d="M21.5,7.5h2v15a1,1,0,0,1-1,1H1.5a1,1,0,0,1-1-1V7.5h2"/><polyline class="a" points="9.5 17.5 9.5 15.5 14.5 15.5 14.5 17.5"/><path class="a" d="M7.5,16.5v-2a1,1,0,0,0-1-1h0a1,1,0,0,0-1,1v4"/><path class="a" d="M16.5,16.5v-2a1,1,0,0,1,1-1h0a1,1,0,0,1,1,1v4"/><path class="a" d="M14.5,15.5V15A2.5,2.5,0,0,0,12,12.5h0A2.5,2.5,0,0,0,9.5,15v.5"/><path class="a" d="M12,5h0A4.5,4.5,0,0,0,7.5,9.5h9A4.5,4.5,0,0,0,12,5Z"/><line class="a" x1="12" y1="5" x2="12" y2="4"/><line class="a" x1="7.5" y1="9.5" x2="7.5" y2="11.5"/><line class="a" x1="16.5" y1="9.5" x2="16.5" y2="11.5"/><line class="a" x1="22.5" y1="1.5" x2="22.5" y2="0.5"/><path class="a" d="M.5,7.5.938,4A.566.566,0,0,1,2.062,4L2.5,7.5V20a3,3,0,0,1,3-3"/><path class="a" d="M23.5,7.5,23.062,4a.566.566,0,0,0-1.124,0L21.5,7.5V20a3,3,0,0,0-3-3"/><path class="a" d="M5.5,21.5h4a2.292,2.292,0,0,1,2.5-2,2.292,2.292,0,0,1,2.5,2h4"/></svg>