<svg xmlns="http://www.w3.org/2000/svg" viewBox="0 0 24 24"><defs><style>.a{fill:none;stroke:#000;stroke-linecap:round;stroke-linejoin:round;}</style></defs><title>landmark-easter-island-moi</title><path class="a" d="M20.06,3.327A2.652,2.652,0,0,0,17.414.5h-4.35a2.651,2.651,0,0,0-2.65,2.652V4.478L4.039,12.694a.5.5,0,0,0,.4.806H6.289l-1.22,4.879A.5.5,0,0,0,5.554,19H7.789L6.414,22.094A1,1,0,0,0,7.328,23.5H18a1,1,0,0,0,1-1V19.188Z"/><path class="a" d="M11.985,7.21l1.333.915a.5.5,0,0,1-.1.876l-1.758.705"/></svg>