<svg xmlns="http://www.w3.org/2000/svg" viewBox="0 0 24 24"><defs><style>.a{fill:none;stroke:#000;stroke-linecap:round;stroke-linejoin:round;}</style></defs><title>landmark-pyramid-sphinx</title><path class="a" d="M22.908,11.537,14.441.842a.5.5,0,0,0-.784,0L9.877,5.617"/><path class="a" d="M9.911,12.347H1.589a.5.5,0,0,1-.39-.812l4.96-6.2a.5.5,0,0,1,.78,0l4.075,5.093"/><path class="a" d="M20.661,18.1l.957-.957a1,1,0,0,0,.293-.707V15.347a5,5,0,0,0-10,0v1.086a1,1,0,0,0,.293.707l.957.957"/><path class="a" d="M21.911,21.347v-1A2.415,2.415,0,0,0,21.2,18.64l-3.151-3.151"/><line class="a" x1="14.911" y1="23.347" x2="18.91" y2="23.347"/><path class="a" d="M15.769,15.489,12.618,18.64a2.414,2.414,0,0,0-.707,1.708v1"/><path class="a" d="M18.911,12.347a2,2,0,0,0-4,0v1.5a2,2,0,1,0,4,0Z"/><path class="a" d="M11.911,21.347h2a1,1,0,0,1,1,1v1a0,0,0,0,1,0,0h-4a0,0,0,0,1,0,0v-1A1,1,0,0,1,11.911,21.347Z"/><path class="a" d="M19.911,21.347h2a1,1,0,0,1,1,1v1a0,0,0,0,1,0,0h-4a0,0,0,0,1,0,0v-1A1,1,0,0,1,19.911,21.347Z"/></svg>