<svg xmlns="http://www.w3.org/2000/svg" viewBox="0 0 24 24"><defs><style>.a{fill:none;stroke:#000;stroke-linecap:round;stroke-linejoin:round;}</style></defs><title>landmark-eiffel-tower</title><path class="a" d="M6,23.5c0-2.416,2.686-5,6-5s6,2.584,6,5"/><line class="a" x1="12" y1="0.5" x2="12" y2="2.753"/><path class="a" d="M10.936,5.753Q10.315,7.661,9.556,9.5A51.958,51.958,0,0,1,5.73,17a52.527,52.527,0,0,1-4.721,6.494"/><path class="a" d="M13.064,5.753q.621,1.906,1.38,3.747a52.3,52.3,0,0,0,3.8,7.449,53.308,53.308,0,0,0,4.752,6.545"/><line class="a" x1="7.466" y1="10.503" x2="16.466" y2="10.503"/><line class="a" x1="4.5" y1="16.5" x2="19.5" y2="16.5"/><path class="a" d="M13.5,5.753h-3v-1.5a1.5,1.5,0,0,1,3,0Z"/></svg>