<svg xmlns="http://www.w3.org/2000/svg" viewBox="0 0 24 24"><defs><style>.a{fill:none;stroke:#000;stroke-linecap:round;stroke-linejoin:round;}</style></defs><title>landmark-london-eye</title><line class="a" x1="0.5" y1="23.5" x2="23.5" y2="23.5"/><path class="a" d="M7.5,23.5l4.032-10.752a.5.5,0,0,1,.936,0L16.5,23.5"/><path class="a" d="M3.93,16.515a9.432,9.432,0,0,1-1.253-3.181"/><path class="a" d="M17.648,19.139a9.5,9.5,0,0,1-11.51-.163"/><path class="a" d="M21.323,13.333a9.451,9.451,0,0,1-1.565,3.652"/><path class="a" d="M20.1,6.525A9.44,9.44,0,0,1,21.448,10.5"/><path class="a" d="M13.5,2.118a9.453,9.453,0,0,1,4.361,1.9"/><path class="a" d="M6.451,3.788A9.448,9.448,0,0,1,10.5,2.118"/><path class="a" d="M2.552,10.5A9.439,9.439,0,0,1,4.111,6.206"/><circle class="a" cx="12" cy="11.5" r="6"/><line class="a" x1="12" y1="5.507" x2="12" y2="3.5"/><line class="a" x1="7.757" y1="7.257" x2="6.279" y2="5.779"/><line class="a" x1="6" y1="11.5" x2="3.5" y2="11.5"/><line class="a" x1="7.757" y1="15.743" x2="6.5" y2="17"/><line class="a" x1="16.243" y1="15.743" x2="17.648" y2="17.148"/><line class="a" x1="18" y1="11.5" x2="20.5" y2="11.5"/><line class="a" x1="16.243" y1="7.257" x2="17.568" y2="5.932"/><path class="a" d="M3.5,12a1.5,1.5,0,0,1-3,0V11a.5.5,0,0,1,.5-.5H3a.5.5,0,0,1,.5.5Z"/><path class="a" d="M6.5,5a1.5,1.5,0,0,1-3,0V4A.5.5,0,0,1,4,3.5H6a.5.5,0,0,1,.5.5Z"/><path class="a" d="M13.5,2a1.5,1.5,0,0,1-3,0V1A.5.5,0,0,1,11,.5h2a.5.5,0,0,1,.5.5Z"/><path class="a" d="M6.5,17a.5.5,0,0,0-.5-.5H4a.5.5,0,0,0-.5.5v1a1.5,1.5,0,0,0,3,0Z"/><path class="a" d="M20.5,12a1.5,1.5,0,0,0,3,0V11a.5.5,0,0,0-.5-.5H21a.5.5,0,0,0-.5.5Z"/><path class="a" d="M17.5,5.5a1.5,1.5,0,0,0,3,0v-1A.5.5,0,0,0,20,4H18a.5.5,0,0,0-.5.5Z"/><path class="a" d="M17.5,17.5A.5.5,0,0,1,18,17h2a.5.5,0,0,1,.5.5v1a1.5,1.5,0,0,1-3,0Z"/></svg>