<svg xmlns="http://www.w3.org/2000/svg" viewBox="0 0 24 24"><defs><style>.a{fill:none;stroke:#000;stroke-linecap:round;stroke-linejoin:round;}</style></defs><title>landmark-buckingham-palace</title><path class="a" d="M9.5,14.5V11.1a.491.491,0,0,1,.036-.185L10.5,8.5h2l.964,2.411a.491.491,0,0,1,.036.185v3.4"/><polyline class="a" points="10.5 8.5 10.5 5 11.5 2.5 12.5 5 12.5 8.5"/><path class="a" d="M6.5,23.5h-4v-10l1.646-1.646a.5.5,0,0,1,.708,0L6.5,13.5Z"/><line class="a" x1="2.5" y1="13.5" x2="2.5" y2="11.5"/><line class="a" x1="6.5" y1="13.5" x2="6.5" y2="11.5"/><path class="a" d="M16.5,23.5h4v-10l-1.646-1.646a.5.5,0,0,0-.708,0L16.5,13.5Z"/><line class="a" x1="20.5" y1="13.5" x2="20.5" y2="11.5"/><line class="a" x1="16.5" y1="13.5" x2="16.5" y2="11.5"/><line class="a" x1="0.5" y1="16.5" x2="2.5" y2="16.5"/><line class="a" x1="0.5" y1="23.5" x2="2.5" y2="23.5"/><line class="a" x1="23.5" y1="16.5" x2="20.5" y2="16.5"/><line class="a" x1="23.5" y1="23.5" x2="20.5" y2="23.5"/><rect class="a" x="6.5" y="14.5" width="10" height="9"/><line class="a" x1="4.5" y1="14.5" x2="4.5" y2="16.5"/><line class="a" x1="18.5" y1="14.5" x2="18.5" y2="16.5"/><line class="a" x1="6.5" y1="16.5" x2="16.5" y2="16.5"/><line class="a" x1="0.5" y1="18.5" x2="0.5" y2="19.5"/><line class="a" x1="8.5" y1="18.5" x2="8.5" y2="19.5"/><line class="a" x1="10.5" y1="18.5" x2="10.5" y2="19.5"/><line class="a" x1="12.5" y1="18.5" x2="12.5" y2="19.5"/><line class="a" x1="14.5" y1="18.5" x2="14.5" y2="19.5"/><line class="a" x1="22.5" y1="18.5" x2="22.5" y2="19.5"/><path class="a" d="M11.5,2.5V.5"/><line class="a" x1="11.5" y1="10.5" x2="11.5" y2="11.5"/></svg>