<svg id="Light" xmlns="http://www.w3.org/2000/svg" viewBox="0 0 24 24"><defs><style>.cls-1{fill:none;stroke:#000;stroke-linecap:round;stroke-linejoin:round;}</style></defs><title>landmarks-view-point</title><path class="cls-1" d="M21.75,14.75H19.268a.25.25,0,0,1-.177-.427l1.755-1.755a1,1,0,0,0-1.414-1.414l-1.755,1.755a.25.25,0,0,1-.427-.176V10.25a1,1,0,0,0-2,0v2.483a.25.25,0,0,1-.427.176l-1.755-1.755a1,1,0,0,0-1.414,1.414l1.755,1.755a.25.25,0,0,1-.177.427H10.75a1,1,0,0,0,0,2h2.482a.25.25,0,0,1,.177.427l-1.755,1.755a1,1,0,1,0,1.414,1.414l1.755-1.755a.25.25,0,0,1,.427.176V21.25a1,1,0,0,0,2,0V18.767a.25.25,0,0,1,.427-.176l1.755,1.755a1,1,0,0,0,1.414-1.414l-1.755-1.755a.25.25,0,0,1,.177-.427H21.75a1,1,0,0,0,0-2Z"/><line class="cls-1" x1="1.25" y1="1.75" x2="8.25" y2="8.25"/><line class="cls-1" x1="8.25" y1="8.25" x2="2.25" y2="8.25"/><line class="cls-1" x1="8.25" y1="8.25" x2="8.25" y2="2.75"/></svg>