<svg xmlns="http://www.w3.org/2000/svg" viewBox="0 0 24 24"><defs><style>.a{fill:none;stroke:#000;stroke-linecap:round;stroke-linejoin:round;}</style></defs><title>landmark-chandi-borobudur</title><path class="a" d="M15.5,13V9.5A3.5,3.5,0,0,0,12,6h0A3.5,3.5,0,0,0,8.5,9.5V13"/><path class="a" d="M7.5,14.5v-1A.5.5,0,0,1,8,13h8a.5.5,0,0,1,.5.5v1"/><path class="a" d="M6.5,16.5V15a.5.5,0,0,1,.5-.5h3"/><path class="a" d="M14,14.5h3a.5.5,0,0,1,.5.5v1.5"/><path class="a" d="M10,6.627V5a.5.5,0,0,1,.5-.5h3A.5.5,0,0,1,14,5V6.627"/><path class="a" d="M11,4.5s.625-4,1-4,1,4,1,4"/><path class="a" d="M10,21.5v-2a2,2,0,0,1,2-2h0a2,2,0,0,1,2,2v2"/><path class="a" d="M8.5,23.5V22a.5.5,0,0,1,.5-.5h6a.5.5,0,0,1,.5.5v1.5"/><path class="a" d="M11,17.768s.583-3.268,1-3.268,1,3.268,1,3.268"/><path class="a" d="M1.5,21.5v-2a2,2,0,0,1,2-2h0a2,2,0,0,1,2,2v2"/><path class="a" d="M.5,23.5V22a.5.5,0,0,1,.5-.5H6a.5.5,0,0,1,.5.5v1.5"/><path class="a" d="M2.5,17.768s.583-3.268,1-3.268,1,3.268,1,3.268"/><path class="a" d="M2.5,12.5V11a2,2,0,0,1,2-2h0a2,2,0,0,1,2,2"/><path class="a" d="M3.5,9.269S4.083,6,4.5,6s1,3.269,1,3.269"/><path class="a" d="M17.5,11.5a2,2,0,0,1,2-2h0a2,2,0,0,1,2,2V13"/><path class="a" d="M18.5,9.769s.583-3.269,1-3.269,1,3.269,1,3.269"/><path class="a" d="M18.5,21.5v-2a2,2,0,0,1,2-2h0a2,2,0,0,1,2,2v2"/><path class="a" d="M17.5,23.5V22a.5.5,0,0,1,.5-.5h5a.5.5,0,0,1,.5.5v1.5"/><path class="a" d="M19.5,17.768s.583-3.268,1-3.268,1,3.268,1,3.268"/><line class="a" x1="5.5" y1="16.5" x2="9.5" y2="16.5"/><line class="a" x1="18.5" y1="16.5" x2="14.5" y2="16.5"/></svg>