<svg xmlns="http://www.w3.org/2000/svg" viewBox="0 0 24 24"><defs><style>.a{fill:none;stroke:#000;stroke-linecap:round;stroke-linejoin:round;}</style></defs><title>laptop-announcement</title><path class="a" d="M19,11.5a1,1,0,0,0-1-1H6a1,1,0,0,0-1,1v8H19Z"/><line class="a" x1="10" y1="21.5" x2="14" y2="21.5"/><path class="a" d="M7,1V4c0,.4-.1.5-.5.5h-5C1.1,4.5,1,4.4,1,4V1"/><path class="a" d="M7,1C7,.6,6.9.5,6.5.5h-5C1.1.5,1,.6,1,1"/><path class="a" d="M1,1.5,3.788,2.82a.494.494,0,0,0,.428,0L7,1.5"/><path class="a" d="M15,1V4c0,.4-.1.5-.5.5h-5C9.1,4.5,9,4.4,9,4V1"/><path class="a" d="M15,1c0-.4-.1-.5-.5-.5h-5C9.1.5,9,.6,9,1"/><path class="a" d="M9,1.5l2.788,1.32a.494.494,0,0,0,.428,0L15,1.5"/><path class="a" d="M23,1V4c0,.4-.1.5-.5.5h-5c-.4,0-.5-.1-.5-.5V1"/><path class="a" d="M23,1c0-.4-.1-.5-.5-.5h-5c-.4,0-.5.1-.5.5"/><path class="a" d="M17,1.5l2.788,1.32a.494.494,0,0,0,.428,0L23,1.5"/><line class="a" x1="12" y1="6.5" x2="12" y2="8"/><line class="a" x1="4.5" y1="6.5" x2="6" y2="8"/><line class="a" x1="19.5" y1="6.5" x2="18" y2="8"/><path class="a" d="M21.293,21.793a1,1,0,0,1-.707,1.707H3.414a1,1,0,0,1-.707-1.707L5,19.5H19Z"/></svg>