<svg xmlns="http://www.w3.org/2000/svg" viewBox="0 0 24 24"><defs><style>.a{fill:none;stroke:#000;stroke-linecap:round;stroke-linejoin:round;}</style></defs><title>layers-stacked-1</title><path class="a" d="M12.2,11.413a.5.5,0,0,1-.4,0L1.555,6.958a.5.5,0,0,1,0-.916L11.8,1.587a.5.5,0,0,1,.4,0L22.445,6.042a.5.5,0,0,1,0,.916Z"/><path class="a" d="M20.625,10.75l1.82.792a.5.5,0,0,1,0,.916L12.2,16.913a.5.5,0,0,1-.4,0L1.555,12.458a.5.5,0,0,1,0-.916l1.82-.792"/><path class="a" d="M20.625,16.25l1.82.792a.5.5,0,0,1,0,.916L12.2,22.413a.5.5,0,0,1-.4,0L1.555,17.958a.5.5,0,0,1,0-.916l1.82-.792"/></svg>