<svg xmlns="http://www.w3.org/2000/svg" viewBox="0 0 24 24"><defs><style>.a{fill:none;stroke:#000;stroke-linecap:round;stroke-linejoin:round;}</style></defs><title>layers</title><path class="a" d="M22.5,10.5,12.2,15.413a.5.5,0,0,1-.4,0L1.5,10.5"/><path class="a" d="M22.5,13.5,12.2,18.413a.5.5,0,0,1-.4,0L1.5,13.5"/><path class="a" d="M22.5,16.5,12.2,21.413a.5.5,0,0,1-.4,0L1.5,16.5"/><path class="a" d="M12.2,12.413a.5.5,0,0,1-.4,0L1.555,7.958a.5.5,0,0,1,0-.916L11.8,2.587a.5.5,0,0,1,.4,0L22.445,7.042a.5.5,0,0,1,0,.916Z"/></svg>