<svg xmlns="http://www.w3.org/2000/svg" viewBox="0 0 24 24"><defs><style>.a{fill:none;stroke:#000;stroke-linecap:round;stroke-linejoin:round;}</style></defs><title>layers-show</title><circle class="a" cx="12" cy="7.5" r="4"/><path class="a" d="M12,5.5a2,2,0,1,1-2,2"/><circle class="a" cx="18.5" cy="18" r="5"/><line class="a" x1="18.5" y1="16" x2="18.5" y2="20"/><line class="a" x1="16.5" y1="18" x2="20.5" y2="18"/><path class="a" d="M19.966,11.156a21.275,21.275,0,0,0,3.182-2.763,1.309,1.309,0,0,0,0-1.786C21.9,5.272,17.485,1,12,1S2.1,5.272.853,6.606a1.309,1.309,0,0,0,0,1.788C2.1,9.728,6.515,14,12,14c.266,0,.527-.018.788-.038"/></svg>