<svg xmlns="http://www.w3.org/2000/svg" viewBox="0 0 24 24"><defs><style>.a{fill:none;stroke:#000;stroke-linecap:round;stroke-linejoin:round;}</style></defs><title>layers-grid-hide</title><line class="a" x1="11.487" y1="23.5" x2="23.487" y2="14.5"/><path class="a" d="M9.487,18.5h-7a2,2,0,0,1-2-2V2.5a2,2,0,0,1,2-2h14a2,2,0,0,1,2,2v10"/><line class="a" x1="0.487" y1="6.5" x2="18.487" y2="6.5"/><line class="a" x1="0.487" y1="12.5" x2="18.487" y2="12.5"/><line class="a" x1="12.487" y1="0.5" x2="12.487" y2="13.5"/><line class="a" x1="6.487" y1="0.5" x2="6.487" y2="18.5"/><path class="a" d="M11.86,20.58a2.277,2.277,0,0,1-.155-2.221c.875-1.946,4.131-3.182,7.3-2.785"/><path class="a" d="M23.024,17.534a2.3,2.3,0,0,1,.271,2.392C22.412,21.89,19.1,23.131,15.9,22.7"/></svg>