<svg xmlns="http://www.w3.org/2000/svg" viewBox="0 0 24 24"><defs><style>.a{fill:none;stroke:#000;stroke-linecap:round;stroke-linejoin:round;}</style></defs><title>layers-stacked</title><path class="a" d="M12.2,11.413a.5.5,0,0,1-.4,0L1.555,6.958a.5.5,0,0,1,0-.917L11.8,1.586a.5.5,0,0,1,.4,0L22.445,6.041a.5.5,0,0,1,0,.917Z"/><path class="a" d="M17.175,9.25l5.27,2.292a.5.5,0,0,1,0,.917L12.2,16.914a.5.5,0,0,1-.4,0L1.555,12.459a.5.5,0,0,1,0-.917L6.825,9.25"/><path class="a" d="M17.175,14.75l5.27,2.292a.5.5,0,0,1,0,.917L12.2,22.414a.5.5,0,0,1-.4,0L1.555,17.959a.5.5,0,0,1,0-.917l5.27-2.292"/></svg>