<svg xmlns="http://www.w3.org/2000/svg" viewBox="0 0 24 24"><defs><style>.a{fill:none;stroke:#000;stroke-linecap:round;stroke-linejoin:round;}</style></defs><title>layers-off</title><line class="a" x1="0.888" y1="0.888" x2="23.112" y2="23.112"/><line class="a" x1="11.888" y1="14.45" x2="0.888" y2="9.45"/><line class="a" x1="22.888" y1="9.45" x2="15.941" y2="12.689"/><polyline class="a" points="13.262 16.852 11.888 17.45 0.888 12.45"/><line class="a" x1="22.888" y1="12.45" x2="17.932" y2="14.821"/><polyline class="a" points="15.88 18.715 11.888 20.45 0.888 15.45"/><line class="a" x1="22.888" y1="15.45" x2="19.972" y2="16.935"/><path class="a" d="M6.864,3.634l4.825-2.1a.5.5,0,0,1,.4,0L22.334,5.991a.5.5,0,0,1,0,.916l-8.47,3.683"/><path class="a" d="M6.851,9.259,1.443,6.909a.5.5,0,0,1,0-.918l1.425-.619"/></svg>