<svg xmlns="http://www.w3.org/2000/svg" viewBox="0 0 24 24"><defs><style>.a{fill:none;stroke:#000;stroke-linecap:round;stroke-linejoin:round;}</style></defs><title>legal-scale</title><path class="a" d="M.5,23.5h5a2,2,0,0,0,2-2v-2a2,2,0,0,0-2-2H.5"/><path class="a" d="M5.5,23.5H22c1.1,0,1.5-.895,1.5-2v-2c0-1.1-.4-2-1.5-2H5.5"/><line class="a" x1="19.5" y1="17.5" x2="19.5" y2="23.5"/><line class="a" x1="17.5" y1="17.5" x2="17.5" y2="23.5"/><line class="a" x1="13.5" y1="17.5" x2="13.5" y2="23.5"/><line class="a" x1="11.5" y1="17.5" x2="11.5" y2="23.5"/><line class="a" x1="5.5" y1="21.5" x2="1.5" y2="21.5"/><line class="a" x1="5.5" y1="19.5" x2="1.5" y2="19.5"/><line class="a" x1="12" y1="3.5" x2="12" y2="14.5"/><polyline class="a" points="0.5 8.465 4 1.5 7.5 8.465"/><circle class="a" cx="12" cy="2" r="1.5"/><path class="a" d="M4,12A3.416,3.416,0,0,0,7.5,8.5H.5A3.416,3.416,0,0,0,4,12Z"/><polyline class="a" points="23.5 8.534 20 1.5 16.5 8.534"/><path class="a" d="M20,12a3.416,3.416,0,0,1-3.5-3.5h7A3.416,3.416,0,0,1,20,12Z"/><line class="a" x1="13.409" y1="1.5" x2="21.5" y2="1.5"/><line class="a" x1="2.5" y1="1.5" x2="10.591" y2="1.5"/><path class="a" d="M9,17.5a3,3,0,0,1,6,0Z"/></svg>