<svg xmlns="http://www.w3.org/2000/svg" viewBox="0 0 24 24"><defs><style>.a{fill:none;stroke:#000;stroke-linecap:round;stroke-linejoin:round;}</style></defs><title>legal-judge</title><path class="a" d="M16.5,7A5,5,0,0,1,12,4.182,5,5,0,0,1,7.5,7a.5.5,0,0,0-.5.5v2a5,5,0,0,0,10,0V7.469A.468.468,0,0,0,16.529,7Z"/><path class="a" d="M13.5,11a2.5,2.5,0,0,1-3,0"/><line class="a" x1="12" y1="4.182" x2="12" y2="0.5"/><path class="a" d="M14,14.083V16.5a4.25,4.25,0,0,1-4,0V14.083"/><path class="a" d="M10,16.5,8.754,20.57A1.444,1.444,0,0,0,11,22.148a1.665,1.665,0,0,1,2,0,1.444,1.444,0,0,0,2.248-1.578L14,16.5"/><line class="a" x1="12" y1="19.5" x2="12" y2="17"/><path class="a" d="M14,8a.25.25,0,0,1,.25.25"/><path class="a" d="M13.75,8.25A.25.25,0,0,1,14,8"/><path class="a" d="M14,8.5a.25.25,0,0,1-.25-.25"/><path class="a" d="M14.25,8.25A.25.25,0,0,1,14,8.5"/><path class="a" d="M10,8a.25.25,0,0,1,.25.25"/><path class="a" d="M9.75,8.25A.25.25,0,0,1,10,8"/><path class="a" d="M10,8.5a.25.25,0,0,1-.25-.25"/><path class="a" d="M10.25,8.25A.25.25,0,0,1,10,8.5"/><path class="a" d="M10,16.5a17.247,17.247,0,0,0-8.648,2.819A2,2,0,0,0,.5,20.956V23.5"/><path class="a" d="M14,16.5a17.247,17.247,0,0,1,8.648,2.819,2,2,0,0,1,.852,1.637V23.5"/><path class="a" d="M17,10v4a1.5,1.5,0,0,0,3,0,1.606,1.606,0,0,0-1-1.5,1.5,1.5,0,0,0,0-3,1.5,1.5,0,0,0,0-3,7.083,7.083,0,0,0-14,0,1.5,1.5,0,0,0,0,3,1.5,1.5,0,0,0,0,3A1.606,1.606,0,0,0,4,14a1.5,1.5,0,0,0,3,0V10"/></svg>