<svg xmlns="http://www.w3.org/2000/svg" viewBox="0 0 24 24"><defs><style>.a{fill:none;stroke:#000;stroke-linecap:round;stroke-linejoin:round;}</style></defs><title>legal-scale-2</title><line class="a" x1="1.5" y1="5.5" x2="22.5" y2="5.5"/><line class="a" x1="12" y1="7.5" x2="12" y2="1.5"/><polyline class="a" points="2 17.5 5 5.5 8 17.5"/><path class="a" d="M9.5,18a4.5,4.5,0,0,1-9,0,.5.5,0,0,1,.5-.5H9A.5.5,0,0,1,9.5,18Z"/><polyline class="a" points="22 17.5 19 5.5 16 17.5"/><path class="a" d="M14.5,18a4.5,4.5,0,0,0,9,0,.5.5,0,0,0-.5-.5H15A.5.5,0,0,0,14.5,18Z"/></svg>