<svg xmlns="http://www.w3.org/2000/svg" viewBox="0 0 24 24"><defs><style>.a{fill:none;stroke:#000;stroke-linecap:round;stroke-linejoin:round;}</style></defs><title>library-hidden</title><path class="a" d="M14.8,12v9a1,1,0,0,1-1,1H1.8a1,1,0,0,1-1-1V5a1,1,0,0,1,1-1h8"/><line class="a" x1="0.801" y1="13.001" x2="14.801" y2="13.001"/><polyline class="a" points="0.801 7.001 3.801 7.001 3.801 13.001"/><path class="a" d="M3.8,7H6.3a.5.5,0,0,1,.5.5V13"/><path class="a" d="M.8,16H3.3a.5.5,0,0,1,.5.5V22"/><path class="a" d="M6.8,22V16.5a.5.5,0,0,1,.5-.5h2a.5.5,0,0,1,.5.5V22"/><line class="a" x1="3.801" y1="17.001" x2="6.801" y2="17.001"/><rect class="a" x="8.25" y="7.206" width="2.5" height="5" rx="0.5" ry="0.5" transform="translate(-2.008 2.493) rotate(-13.535)"/><path class="a" d="M12.56,5.473a.492.492,0,0,1,0-.584A6.743,6.743,0,0,1,17.832,2,6.741,6.741,0,0,1,23.1,4.889a.492.492,0,0,1,0,.584,6.741,6.741,0,0,1-5.271,2.888A6.743,6.743,0,0,1,12.56,5.473Z"/><line class="a" x1="20.209" y1="2.735" x2="15.335" y2="7.749"/></svg>