<svg id="Light" xmlns="http://www.w3.org/2000/svg" viewBox="0 0 24 24"><defs><style>.cls-1{fill:none;stroke:#000;stroke-linecap:round;stroke-linejoin:round;}</style></defs><title>lioness</title><path class="cls-1" d="M10.5,14.5v2a1.5,1.5,0,0,0,3,0v-2"/><path class="cls-1" d="M8.25,9.25a.25.25,0,0,1,.25.25"/><path class="cls-1" d="M8,9.5a.25.25,0,0,1,.25-.25"/><path class="cls-1" d="M8.25,9.75A.25.25,0,0,1,8,9.5"/><path class="cls-1" d="M8.5,9.5a.25.25,0,0,1-.25.25"/><path class="cls-1" d="M15.75,9.25A.25.25,0,0,1,16,9.5"/><path class="cls-1" d="M15.5,9.5a.25.25,0,0,1,.25-.25"/><path class="cls-1" d="M15.75,9.75a.25.25,0,0,1-.25-.25"/><path class="cls-1" d="M16,9.5a.25.25,0,0,1-.25.25"/><path class="cls-1" d="M16.084,20.892a4.5,4.5,0,0,1-8.168,0"/><path class="cls-1" d="M12.009,18a3.25,3.25,0,0,0,6.491-.25v-.592a2.031,2.031,0,0,1,1.169-1.894A3,3,0,0,0,21.5,12.5V10a9.5,9.5,0,0,0-19,0v2.5a3,3,0,0,0,1.831,2.764A2.031,2.031,0,0,1,5.5,17.158v.592a3.25,3.25,0,0,0,6.49.25Z"/><path class="cls-1" d="M7.49,1.637a4.5,4.5,0,0,0-6.735.868A7.458,7.458,0,0,1,4.772,3.836"/><path class="cls-1" d="M.755,2.505h0A4.5,4.5,0,0,0,2.736,7.889"/><path class="cls-1" d="M19.228,3.836a7.458,7.458,0,0,1,4.017-1.331,4.5,4.5,0,0,0-6.735-.868"/><path class="cls-1" d="M21.264,7.889a4.5,4.5,0,0,0,1.981-5.384h0"/></svg>