<svg id="Light" xmlns="http://www.w3.org/2000/svg" viewBox="0 0 24 24"><defs><style>.cls-1{fill:none;stroke:#000;stroke-linecap:round;stroke-linejoin:round;}</style></defs><title>livestock-sheep</title><path class="cls-1" d="M12,23.5c4.612,0,8-10.5,8-14.5S17.124.5,12,.5,4,5,4,9,7.388,23.5,12,23.5Z"/><path class="cls-1" d="M9.056,10.25a.25.25,0,0,1,.25.25"/><path class="cls-1" d="M8.806,10.5a.249.249,0,0,1,.25-.25"/><path class="cls-1" d="M9.056,10.75a.249.249,0,0,1-.25-.25"/><path class="cls-1" d="M9.306,10.5a.25.25,0,0,1-.25.25"/><path class="cls-1" d="M15.556,10.25a.249.249,0,0,0-.25.25"/><path class="cls-1" d="M15.806,10.5a.25.25,0,0,0-.25-.25"/><path class="cls-1" d="M15.556,10.75a.25.25,0,0,0,.25-.25"/><path class="cls-1" d="M15.306,10.5a.249.249,0,0,0,.25.25"/><line class="cls-1" x1="12" y1="20.5" x2="12" y2="23.5"/><polyline class="cls-1" points="10.5 19 12 20.5 13.5 19"/><path class="cls-1" d="M4,9.244.5,14.5A2.5,2.5,0,0,0,3,16"/><path class="cls-1" d="M20,9.244,23.5,14.5A2.5,2.5,0,0,1,21,16"/></svg>