<svg id="Light" xmlns="http://www.w3.org/2000/svg" viewBox="0 0 24 24"><defs><style>.cls-1{fill:none;stroke:#000;stroke-linecap:round;stroke-linejoin:round;}</style></defs><title>livestock-lamb-1</title><ellipse class="cls-1" cx="12" cy="10.5" rx="4" ry="5"/><line class="cls-1" x1="12" y1="15.5" x2="12" y2="13.5"/><polyline class="cls-1" points="11 12.5 12 13.5 13 12.5"/><path class="cls-1" d="M9.12,7,5,11.5a4.6,4.6,0,0,0,3.521,1.486"/><path class="cls-1" d="M14.88,7,19,11.5a4.6,4.6,0,0,1-3.522,1.486"/><path class="cls-1" d="M14,9.25a.25.25,0,0,1,.25.25"/><path class="cls-1" d="M13.75,9.5A.25.25,0,0,1,14,9.25"/><path class="cls-1" d="M14,9.75a.25.25,0,0,1-.25-.25"/><path class="cls-1" d="M14.25,9.5a.25.25,0,0,1-.25.25"/><path class="cls-1" d="M10,9.25a.25.25,0,0,1,.25.25"/><path class="cls-1" d="M9.75,9.5A.25.25,0,0,1,10,9.25"/><path class="cls-1" d="M10,9.75a.25.25,0,0,1-.25-.25"/><path class="cls-1" d="M10.25,9.5a.25.25,0,0,1-.25.25"/><path class="cls-1" d="M22,10.5a3,3,0,0,0-2.779-2.991,3,3,0,0,0-4.23-4.23,3,3,0,0,0-5.982,0,3,3,0,0,0-4.23,4.23,3,3,0,0,0,0,5.982,3,3,0,0,0,4.23,4.23,3,3,0,0,0,5.982,0,3,3,0,0,0,4.23-4.23A3,3,0,0,0,22,10.5Z"/><line class="cls-1" x1="7" y1="18.444" x2="7" y2="23.5"/><line class="cls-1" x1="17" y1="18.444" x2="17" y2="23.5"/></svg>