<svg id="Light" xmlns="http://www.w3.org/2000/svg" viewBox="0 0 24 24"><defs><style>.cls-1{fill:none;stroke:#000;stroke-linecap:round;stroke-linejoin:round;}</style></defs><title>livestock-ram</title><path class="cls-1" d="M11.5,9.042V13c0,2.5,2.5,2.5,5,2.5h4c1.5,0,3,0,3-1.5S23,11,21,9c0,0-6.5-7.5-10.5-7.5-3,0-4,3-4,4.5s1,3.5,3,3.5,3-1,3-2a1.831,1.831,0,0,0-2-2"/><path class="cls-1" d="M17.5,9.25a.25.25,0,0,1,.25.25"/><path class="cls-1" d="M17.25,9.5a.25.25,0,0,1,.25-.25"/><path class="cls-1" d="M17.5,9.75a.25.25,0,0,1-.25-.25"/><path class="cls-1" d="M17.75,9.5a.25.25,0,0,1-.25.25"/><path class="cls-1" d="M6.677,7.144A4,4,0,0,0,.5,10.5"/><path class="cls-1" d="M5.5,19.5a3,3,0,0,0,5.894.789,3,3,0,0,0,4-2"/></svg>