<svg id="Light" xmlns="http://www.w3.org/2000/svg" viewBox="0 0 24 24"><defs><style>.cls-1{fill:none;stroke:#000;stroke-linecap:round;stroke-linejoin:round;}</style></defs><title>livestock-cow</title><path class="cls-1" d="M6.83,18.024c2.07-1.763,8.135-1.81,10.344-.012"/><path class="cls-1" d="M9.75,11.129a.25.25,0,0,1,.25.25"/><path class="cls-1" d="M9.5,11.379a.25.25,0,0,1,.25-.25"/><path class="cls-1" d="M9.75,11.629a.25.25,0,0,1-.25-.25"/><path class="cls-1" d="M10,11.379a.25.25,0,0,1-.25.25"/><path class="cls-1" d="M14.25,11.129a.25.25,0,0,1,.25.25"/><path class="cls-1" d="M14,11.379a.25.25,0,0,1,.25-.25"/><path class="cls-1" d="M14.25,11.629a.25.25,0,0,1-.25-.25"/><path class="cls-1" d="M14.5,11.379a.25.25,0,0,1-.25.25"/><path class="cls-1" d="M7.5,4.25A7.149,7.149,0,0,0,5.138,7.261a4.535,4.535,0,0,0-2.6.637c-2.5,1.5-2,3.5-2,3.5a9.291,9.291,0,0,0,4,0,4.022,4.022,0,0,0,.649-.223A31.865,31.865,0,0,0,8.1,21.056a3,3,0,0,0,2.7,1.694h2.4a3,3,0,0,0,2.7-1.694,31.865,31.865,0,0,0,2.91-9.881,4.022,4.022,0,0,0,.649.223,9.291,9.291,0,0,0,4,0s.5-2-2-3.5a4.537,4.537,0,0,0-2.6-.637A7.149,7.149,0,0,0,16.5,4.25"/><path class="cls-1" d="M16.5,4.25a3.1,3.1,0,0,0,2-1,3.642,3.642,0,0,0,.754-1.069.5.5,0,0,1,.887-.022A3.617,3.617,0,0,1,20.5,4.75,5.714,5.714,0,0,1,19,7.25"/><path class="cls-1" d="M7.5,4.25a3.1,3.1,0,0,1-2-1,3.642,3.642,0,0,1-.754-1.069.5.5,0,0,0-.887-.022A3.617,3.617,0,0,0,3.5,4.75,5.714,5.714,0,0,0,5,7.25"/><path class="cls-1" d="M13.939,5.31a1.506,1.506,0,1,0,.4-2.4,2.486,2.486,0,0,0-4.688,0,1.5,1.5,0,1,0,.4,2.4"/><line class="cls-1" x1="10.5" y1="20.129" x2="10.5" y2="19.129"/><line class="cls-1" x1="13.5" y1="20.129" x2="13.5" y2="19.129"/></svg>