<svg id="Light" xmlns="http://www.w3.org/2000/svg" viewBox="0 0 24 24"><defs><style>.cls-1{fill:none;stroke:#000;stroke-linecap:round;stroke-linejoin:round;}</style></defs><title>livestock-bull-body</title><path class="cls-1" d="M16.843,7a5.893,5.893,0,0,0-5-2.5c-3.5,0-5.5,4-5.5,4a9.818,9.818,0,0,0-3.5,1C.343,11,.835,15,.835,16.5v3"/><path class="cls-1" d="M19.683,6C17.335,7.174,19.1,9.522,19.1,9.522s1.419-.928,2.347,0c1.174,1.174,1.761,4.7,1.761,4.7a5.913,5.913,0,0,1-1.761.587A8.611,8.611,0,0,1,19.1,13.63s-1.761.587-1.761,1.761V19.5"/><line class="cls-1" x1="14.835" y1="17.001" x2="14.835" y2="19.5"/><line class="cls-1" x1="3.835" y1="17.001" x2="3.835" y2="19.5"/><path class="cls-1" d="M20.093,11.5a.25.25,0,0,0-.25.25"/><path class="cls-1" d="M20.343,11.75a.25.25,0,0,0-.25-.25"/><path class="cls-1" d="M20.093,12a.25.25,0,0,0,.25-.25"/><path class="cls-1" d="M19.843,11.75a.25.25,0,0,0,.25.25"/><path class="cls-1" d="M21.59,9.685A2.776,2.776,0,0,0,22.335,7"/><line class="cls-1" x1="17.333" y1="17.001" x2="0.833" y2="17.001"/></svg>