<svg id="Light" xmlns="http://www.w3.org/2000/svg" viewBox="0 0 24 24"><defs><style>.cls-1{fill:none;stroke:#000;stroke-linecap:round;stroke-linejoin:round;}</style></defs><title>locker-room-hanger-man</title><path class="cls-1" d="M11.424,1.917A1.424,1.424,0,1,0,10,3.333V4.9"/><path class="cls-1" d="M14.333,7.084,10,4.9l-8.807,3.7a.979.979,0,0,0-.622.57h0a.976.976,0,0,0,.91,1.338H13.5"/><circle class="cls-1" cx="19.5" cy="3" r="2.5"/><path class="cls-1" d="M21.5,22.5v-7h1a1,1,0,0,0,1-1v-5a2,2,0,0,0-2-2h-4a2,2,0,0,0-2,2v5a1,1,0,0,0,1,1h1v7a1,1,0,0,0,1,1h2A1,1,0,0,0,21.5,22.5Z"/></svg>