<svg xmlns="http://www.w3.org/2000/svg" viewBox="0 0 24 24"><defs><style>.a{fill:none;stroke:#000;stroke-linecap:round;stroke-linejoin:round;}</style></defs><title>love-gift-couple-box</title><path class="a" d="M3,9.5H1A.5.5,0,0,1,.5,9V6.5a1,1,0,0,1,1-1h21a1,1,0,0,1,1,1V9a.5.5,0,0,1-.5.5H21"/><path class="a" d="M22.5,9.5v13a1,1,0,0,1-1,1H2.5a1,1,0,0,1-1-1V9.5"/><path class="a" d="M7.44,3.881C8.213,4.656,12,5.5,12,5.5s-.986-3.647-1.759-4.42a1.981,1.981,0,0,0-2.8,2.8Z"/><path class="a" d="M16.56,3.881C15.787,4.656,12,5.5,12,5.5s.986-3.647,1.759-4.42a1.981,1.981,0,0,1,2.8,2.8Z"/><circle class="a" cx="7.5" cy="10.25" r="2.25"/><path class="a" d="M7.5,13.5a3,3,0,0,0-3,3V19H6l.5,4.5h2L9,19h1.5V16.5A3,3,0,0,0,7.5,13.5Z"/><circle class="a" cx="16.5" cy="10.25" r="2.25"/><path class="a" d="M16.5,13.5a3,3,0,0,0-3,3V19H15l.5,4.5h2L18,19h1.5V16.5A3,3,0,0,0,16.5,13.5Z"/></svg>