<svg xmlns="http://www.w3.org/2000/svg" viewBox="0 0 24 24"><defs><style>.a{fill:none;stroke:#000;stroke-linecap:round;stroke-linejoin:round;}</style></defs><title>love-whale</title><path class="a" d="M17.741,10.57A5.756,5.756,0,0,1,23.5,16.307V17.74a5.8,5.8,0,0,1-5.782,5.76H7.1c-5.214,0-4.5-7.182-4.5-7.182S.729,15.768.5,14.2a.36.36,0,0,1,.538-.363,4.681,4.681,0,0,0,4.937-.06.359.359,0,0,1,.527.359C6.336,15.508,4.4,16.307,4.4,16.307s-.162,3.586,2.878,3.586C11.22,19.893,10.57,10.57,17.741,10.57Z"/><line class="a" x1="19.5" y1="15" x2="19.5" y2="14.5"/><path class="a" d="M22.785,20.5a4.633,4.633,0,0,1-3.285-1"/><path class="a" d="M13.728,8.755a.489.489,0,0,0,.543.272c1.056-.216,4.033-.934,4.713-2.3.958-1.93-1.3-3.814-3.039-1.749.6-2.631-2.273-3.294-3.231-1.364C12.035,4.979,13.26,7.782,13.728,8.755Z"/><path class="a" d="M5.553,8.62a.49.49,0,0,0,.59-.1c.868-.917,3.6-3.99,3.276-5.96C8.974-.137,5.2-.39,4.935,3.025c-1.349-3.149-4.841-1.7-4.4,1C.863,6,4.437,8.029,5.553,8.62Z"/></svg>