<svg xmlns="http://www.w3.org/2000/svg" viewBox="0 0 24 24"><defs><style>.a{fill:none;stroke:#000;stroke-linecap:round;stroke-linejoin:round;}</style></defs><title>love-potion</title><path class="a" d="M14.5,6.875V2.5h-5V6.875a8.5,8.5,0,1,0,5,0Z"/><path class="a" d="M14.77,19.728a.5.5,0,0,1-.7,0l-2.2-2.191a1.389,1.389,0,0,1-.284-1.663h0A1.554,1.554,0,0,1,14,15.5l.418.4.417-.4a1.554,1.554,0,0,1,2.423.374h0a1.389,1.389,0,0,1-.284,1.663Z"/><path class="a" d="M9.624,14.123a.5.5,0,0,1-.722,0L7.334,12.488a1.142,1.142,0,0,1-.214-1.317h0a1.142,1.142,0,0,1,1.828-.3l.315.315.315-.315a1.141,1.141,0,0,1,1.827.3h0a1.141,1.141,0,0,1-.214,1.317Z"/><path class="a" d="M9.75,20a.25.25,0,0,1,.25.25"/><path class="a" d="M9.5,20.25A.25.25,0,0,1,9.75,20"/><path class="a" d="M9.75,20.5a.25.25,0,0,1-.25-.25"/><path class="a" d="M10,20.25a.25.25,0,0,1-.25.25"/><path class="a" d="M17.75,12.5a.25.25,0,0,1,.25.25"/><path class="a" d="M17.5,12.75a.25.25,0,0,1,.25-.25"/><path class="a" d="M17.75,13a.25.25,0,0,1-.25-.25"/><path class="a" d="M18,12.75a.25.25,0,0,1-.25.25"/><path class="a" d="M13.75,10a.25.25,0,0,1,.25.25"/><path class="a" d="M13.5,10.25a.25.25,0,0,1,.25-.25"/><path class="a" d="M13.75,10.5a.25.25,0,0,1-.25-.25"/><path class="a" d="M14,10.25a.25.25,0,0,1-.25.25"/><path class="a" d="M6.75,16a.25.25,0,0,1,.25.25"/><path class="a" d="M6.5,16.25A.25.25,0,0,1,6.75,16"/><path class="a" d="M6.75,16.5a.25.25,0,0,1-.25-.25"/><path class="a" d="M7,16.25a.25.25,0,0,1-.25.25"/><rect class="a" x="7.5" y="0.5" width="9" height="2" rx="1" ry="1"/></svg>