<svg xmlns="http://www.w3.org/2000/svg" viewBox="0 0 24 24"><defs><style>.a{fill:none;stroke:#000;stroke-linecap:round;stroke-linejoin:round;}</style></defs><title>love-gift-chocolate-box</title><path class="a" d="M21.941,5.5c-2-2.724-8.115-2.814-9.941.669C10.174,2.69,4.058,2.78,2.059,5.5c-1.019,1.388-.62,3.064.992,4.16l8.659,6.15a.5.5,0,0,0,.58,0l8.659-6.15C22.561,8.568,22.96,6.892,21.941,5.5Z"/><path class="a" d="M22.5,6.994v4.091a4,4,0,0,1-1.684,3.262L12.29,20.4a.5.5,0,0,1-.579,0L3.184,14.347A4,4,0,0,1,1.5,11.085V6.994"/></svg>