<svg xmlns="http://www.w3.org/2000/svg" viewBox="0 0 24 24"><defs><style>.a{fill:none;stroke:#000;stroke-linecap:round;stroke-linejoin:round;}</style></defs><title>love-heart-hands-hold-2</title><line class="a" x1="0.5" y1="15.5" x2="0.5" y2="23.5"/><path class="a" d="M15.5,22.5a3,3,0,0,0-3-3H8.75a3,3,0,0,0-3-3H.5v6Z"/><line class="a" x1="5.75" y1="19.5" x2="9.5" y2="19.5"/><line class="a" x1="23.5" y1="8.5" x2="23.5" y2="0.5"/><path class="a" d="M8.5,1.5a3,3,0,0,0,3,3h3.75a3,3,0,0,0,3,3H23.5v-6Z"/><line class="a" x1="18.25" y1="4.5" x2="14.5" y2="4.5"/><path class="a" d="M12,10.205c-.856-1.34-3.427-.861-3.427,1.531.045,1.826,2.423,3.28,3.191,3.7a.489.489,0,0,0,.472,0c.768-.423,3.146-1.877,3.191-3.7C15.427,9.344,12.857,8.865,12,10.205Z"/></svg>