<svg xmlns="http://www.w3.org/2000/svg" viewBox="0 0 24 24"><defs><style>.a{fill:none;stroke:#000;stroke-linecap:round;stroke-linejoin:round;}</style></defs><title>love-bird</title><path class="a" d="M19.5,2.192c-.882-2.709-4-1.9-4,.537,0,1.766,2.67,4.025,3.691,4.825a.5.5,0,0,0,.618,0C20.83,6.754,23.5,4.5,23.5,2.729,23.5.3,20.382-.517,19.5,2.192Z"/><path class="a" d="M11.75,11.5a.25.25,0,0,1,.25.25"/><path class="a" d="M11.5,11.75a.25.25,0,0,1,.25-.25"/><path class="a" d="M11.75,12a.25.25,0,0,1-.25-.25"/><path class="a" d="M12,11.75a.25.25,0,0,1-.25.25"/><path class="a" d="M10.447,8.107a4.734,4.734,0,0,0-4.114,4.776v1.034a5.7,5.7,0,0,1-4.967-1.844A.5.5,0,0,0,.5,12.46c.324,3.192,1.712,5.551,4.364,6.777a7.691,7.691,0,0,1-1,1.137l-2.433,2.26a.5.5,0,0,0,.34.866H7.779A7.721,7.721,0,0,0,15.5,15.779V12.667A4.6,4.6,0,0,0,10.447,8.107Z"/><path class="a" d="M15.328,11.426,18.077,12.6a.5.5,0,0,1,.051.894L15.5,15"/></svg>