<svg xmlns="http://www.w3.org/2000/svg" viewBox="0 0 24 24"><defs><style>.a{fill:none;stroke:#000;stroke-linecap:round;stroke-linejoin:round;}</style></defs><title>love-cloud</title><path class="a" d="M20.505,12.8a3.97,3.97,0,0,0,2-3.692,4.774,4.774,0,0,0-4.955-4.773A6.685,6.685,0,0,0,4.824,6.794,3.586,3.586,0,0,0,.5,10.3a3.2,3.2,0,0,0,3.2,3.2H5.75"/><path class="a" d="M13,12.179c-1.1-3.386-5-2.368-5,.672,0,2.207,3.337,5.031,4.614,6.031a.625.625,0,0,0,.772,0c1.277-1,4.614-3.824,4.614-6.031C18,9.811,14.1,8.793,13,12.179Z"/><path class="a" d="M4.558,23.262a.774.774,0,0,1-1.116,0l-2.425-2.53A1.766,1.766,0,0,1,.686,18.7h0a1.766,1.766,0,0,1,2.827-.459L4,18.724l.487-.488a1.766,1.766,0,0,1,2.827.459h0a1.766,1.766,0,0,1-.331,2.037Z"/><path class="a" d="M20.979,23.3a.664.664,0,0,1-.958,0l-2.078-2.168a1.515,1.515,0,0,1-.283-1.747h0a1.512,1.512,0,0,1,2.422-.393l.418.418.418-.418a1.512,1.512,0,0,1,2.422.393h0a1.515,1.515,0,0,1-.283,1.747Z"/></svg>