<svg id="Light" xmlns="http://www.w3.org/2000/svg" viewBox="0 0 24 24"><defs><style>.cls-1{fill:none;stroke:#000;stroke-linecap:round;stroke-linejoin:round;}</style></defs><title>make-up-lipstick-1</title><path class="cls-1" d="M10.5,15.283a2,2,0,0,0-2-2h-6a2,2,0,0,0-2,2v7.5a.5.5,0,0,0,.5.5h9a.5.5,0,0,0,.5-.5Z"/><path class="cls-1" d="M23.5,14.283a2,2,0,0,0-2-2h-6a2,2,0,0,0-2,2v8.5a.5.5,0,0,0,.5.5h9a.5.5,0,0,0,.5-.5Z"/><path class="cls-1" d="M8.5,1.217A.5.5,0,0,0,7.723.8L3.391,3.689A2,2,0,0,0,2.5,5.353v7.93h6Z"/><line class="cls-1" x1="6.5" y1="3.783" x2="6.5" y2="9.783"/><rect class="cls-1" x="13.5" y="18.283" width="10" height="3"/></svg>