<svg id="Light" xmlns="http://www.w3.org/2000/svg" viewBox="0 0 24 24"><defs><style>.cls-1{fill:none;stroke:#000;stroke-linecap:round;stroke-linejoin:round;}</style></defs><title>make-up-brush-set</title><rect class="cls-1" x="0.5" y="0.5" width="23" height="23" rx="2" ry="2"/><path class="cls-1" d="M17.334,2.5h3.332a.834.834,0,0,1,.834.834V6.668a.832.832,0,0,1-.832.832H17.333a.833.833,0,0,1-.833-.833V3.334A.834.834,0,0,1,17.334,2.5Z"/><path class="cls-1" d="M10.334,2.5h3.332a.834.834,0,0,1,.834.834V6.668a.832.832,0,0,1-.832.832H10.333A.833.833,0,0,1,9.5,6.667V3.334A.834.834,0,0,1,10.334,2.5Z"/><path class="cls-1" d="M17.334,9.5h3.332a.834.834,0,0,1,.834.834v3.334a.832.832,0,0,1-.832.832H17.333a.833.833,0,0,1-.833-.833V10.334A.834.834,0,0,1,17.334,9.5Z"/><path class="cls-1" d="M10.334,9.5h3.332a.834.834,0,0,1,.834.834v3.334a.832.832,0,0,1-.832.832H10.333a.833.833,0,0,1-.833-.833V10.334A.834.834,0,0,1,10.334,9.5Z"/><path class="cls-1" d="M17.334,16.5h3.333a.833.833,0,0,1,.833.833v3.335a.832.832,0,0,1-.832.832H17.333a.833.833,0,0,1-.833-.833V17.334A.834.834,0,0,1,17.334,16.5Z"/><path class="cls-1" d="M10.334,16.5h3.333a.833.833,0,0,1,.833.833v3.335a.832.832,0,0,1-.832.832H10.333a.833.833,0,0,1-.833-.833V17.334A.834.834,0,0,1,10.334,16.5Z"/><path class="cls-1" d="M6.5,8.5h-3V20a1.5,1.5,0,0,0,3,0Z"/><path class="cls-1" d="M3.5,8.5l-1-5c0-1.307,5-1.307,5,0l-1,5"/></svg>