<svg id="Light" xmlns="http://www.w3.org/2000/svg" viewBox="0 0 24 24"><defs><style>.cls-1{fill:none;stroke:#000;stroke-linecap:round;stroke-linejoin:round;}</style></defs><title>make-up-mascara</title><path class="cls-1" d="M18,5.75a.5.5,0,0,1,.5.5v14a2.5,2.5,0,0,1-5,0v-14a.5.5,0,0,1,.5-.5h.5V4.25a.5.5,0,0,1,.5-.5h2a.5.5,0,0,1,.5.5v1.5Z"/><path class="cls-1" d="M9.5,20.75a2,2,0,0,1-4,0v-6.5a.5.5,0,0,1,.5-.5H9a.5.5,0,0,1,.5.5Z"/><line class="cls-1" x1="7.5" y1="1.25" x2="7.5" y2="13.749"/><line class="cls-1" x1="6" y1="6.75" x2="9" y2="6.75"/><line class="cls-1" x1="6" y1="4.75" x2="9" y2="4.75"/><line class="cls-1" x1="6" y1="2.75" x2="9" y2="2.75"/></svg>