<svg xmlns="http://www.w3.org/2000/svg" viewBox="0 0 24 24"><defs><style>.a{fill:none;stroke:#000;stroke-linecap:round;stroke-linejoin:round;}</style></defs><title>maps-search</title><line class="a" x1="7.5" y1="5.443" x2="7.5" y2="21.328"/><line class="a" x1="14.5" y1="10.443" x2="14.5" y2="0.557"/><path class="a" d="M11.5,18.587,7.791,21.235a.5.5,0,0,1-.582,0l-6.5-4.643A.5.5,0,0,1,.5,16.185V1.414a.5.5,0,0,1,.791-.406L7.5,5.443,14.209.65a.5.5,0,0,1,.582,0l6.5,4.643A.5.5,0,0,1,21.5,5.7v6.743"/><path class="a" d="M21.11,17.249a3.805,3.805,0,1,1-3.8-3.806A3.805,3.805,0,0,1,21.11,17.249Z"/><line class="a" x1="20" y1="19.943" x2="23.5" y2="23.443"/></svg>