<svg id="Light" xmlns="http://www.w3.org/2000/svg" viewBox="0 0 24 24"><defs><style>.cls-1{fill:none;stroke:#000;stroke-linecap:round;stroke-linejoin:round;}</style></defs><title>marine-mammal-sea-lion</title><polygon class="cls-1" points="11.406 5 12.406 5 11.906 5.5 11.406 5"/><circle class="cls-1" cx="9.406" cy="3.5" r="0.25"/><circle class="cls-1" cx="14.406" cy="3.5" r="0.25"/><path class="cls-1" d="M16.406,7.5a3.492,3.492,0,0,1-2,1,3.825,3.825,0,0,1-2.5-1,3.825,3.825,0,0,1-2.5,1,3.492,3.492,0,0,1-2-1"/><path class="cls-1" d="M9.406,8.5v4c0,2,1,3,1,4a3.344,3.344,0,0,1-3-3.5V7.5"/><path class="cls-1" d="M14.406,8.5v4c0,2-1,3-1,4a3.344,3.344,0,0,0,3-3.5V7.5"/><path class="cls-1" d="M15.906,19.5c0,1.5,2.5,4,5.5,4s2-1.5.5-3c-.791-.79-2.5-3.5-2.5-5.5V8a7.5,7.5,0,1,0-15,0v7a9.974,9.974,0,0,1-2.058,5.5c-1.5,1.5-2.942,3,.058,3s5.5-2.5,5.5-4"/><path class="cls-1" d="M11.906,23.5c-5.094,0-6.484-.846-6.484-.846"/><path class="cls-1" d="M11.906,23.5c5.094,0,6.483-.846,6.483-.846"/></svg>