<svg id="Light" xmlns="http://www.w3.org/2000/svg" viewBox="0 0 24 24"><defs><style>.cls-1{fill:none;stroke:#000;stroke-linecap:round;stroke-linejoin:round;}</style></defs><title>martial-arts-fencing</title><circle class="cls-1" cx="15.499" cy="4.25" r="2.5"/><path class="cls-1" d="M9.5,10.8l4,.573v3.407a4.507,4.507,0,0,0-4,4.472v1.5a1.5,1.5,0,0,0,3,0v-1.5a1.5,1.5,0,0,1,1.5-1.5h.559l6.629,4.262a1.5,1.5,0,1,0,1.624-2.523l-5.852-3.762a1,1,0,0,1-.459-.841V11.705l1.945.216a4.614,4.614,0,0,0,.51.028A4.479,4.479,0,0,0,23.4,8.085l.089-.621a1.5,1.5,0,0,0-2.97-.426l-.089.622a1.493,1.493,0,0,1-1.649,1.278L10,7.831"/><line class="cls-1" x1="0.499" y1="7.506" x2="5.447" y2="8.506"/><path class="cls-1" d="M7.365,11.4a2.452,2.452,0,0,1,.971-4.807Z"/></svg>