<svg id="Light" xmlns="http://www.w3.org/2000/svg" viewBox="0 0 24 24"><defs><style>.cls-1{fill:none;stroke:#000;stroke-linecap:round;stroke-linejoin:round;}</style></defs><title>martial-arts-karate</title><circle class="cls-1" cx="4.5" cy="6" r="2.5"/><path class="cls-1" d="M22.846,4.261a1.5,1.5,0,0,0-2.085.392l-5.1,7.223-4.1-3.065.479-.8a1.06,1.06,0,0,1,.9-.513A4.058,4.058,0,0,0,17,3.447V2.5a1.5,1.5,0,0,0-3,0v.946A1.055,1.055,0,0,1,12.946,4.5,4.075,4.075,0,0,0,9.469,6.469L6.8,10.941A4.5,4.5,0,0,0,8.164,17l.62.413a1.5,1.5,0,1,0,1.664-2.5l-.62-.413a1.5,1.5,0,0,1-.454-2.021l.637-1.089L14.5,14.751V21.5a1.5,1.5,0,1,0,3,0V14.476l5.738-8.13A1.5,1.5,0,0,0,22.846,4.261Z"/><polyline class="cls-1" points="5.879 3.914 2.506 7.5 0.5 7.5"/><line class="cls-1" x1="2.5" y1="7.5" x2="2.025" y2="9.889"/></svg>