<svg id="Light" xmlns="http://www.w3.org/2000/svg" viewBox="0 0 24 24"><defs><style>.cls-1{fill:none;stroke:#000;stroke-linecap:round;stroke-linejoin:round;}</style></defs><title>martial-arts-sumo</title><path class="cls-1" d="M10.5,19.256A4.5,4.5,0,0,0,7.518,23.05a.5.5,0,0,1-.5.45H5.67a.5.5,0,0,1-.487-.385A7.04,7.04,0,0,1,5,21.5a7.526,7.526,0,0,1,1.853-5"/><path class="cls-1" d="M17.136,16.5a7.556,7.556,0,0,1,1.86,5,6.985,6.985,0,0,1-.188,1.615.5.5,0,0,1-.487.385H16.97a.5.5,0,0,1-.5-.451A4.5,4.5,0,0,0,13.5,19.257"/><path class="cls-1" d="M10.442,7.566A17.906,17.906,0,0,0,.9,11.325a.5.5,0,0,0-.121.651l.787,1.31a.5.5,0,0,0,.667.182A20.339,20.339,0,0,1,6.94,11.627,21.386,21.386,0,0,0,7.65,14.5"/><path class="cls-1" d="M16.343,14.5a21.13,21.13,0,0,0,.709-2.872,20.339,20.339,0,0,1,4.705,1.841.5.5,0,0,0,.665-.179l.795-1.306a.5.5,0,0,0-.119-.652,17.906,17.906,0,0,0-9.549-3.766"/><polygon class="cls-1" points="16.343 14.5 7.649 14.5 6.849 16.5 17.137 16.5 16.343 14.5"/><path class="cls-1" d="M15,5A3,3,0,0,1,9,5"/><path class="cls-1" d="M9,12a2.925,2.925,0,0,0,3-1"/><path class="cls-1" d="M15,12a2.925,2.925,0,0,1-3-1"/><path class="cls-1" d="M12,3.5c2-1,3,1.5,3,1.5V2.391a.5.5,0,0,0-.379-.486L13,1.5s.5-1-1-1-1,1-1,1l-1.622.405A.5.5,0,0,0,9,2.391V5S10,2.5,12,3.5Z"/><polyline class="cls-1" points="10.496 16.5 10.496 19.256 13.498 19.257 13.495 16.5"/></svg>