<svg id="Light" xmlns="http://www.w3.org/2000/svg" viewBox="0 0 24 24"><defs><style>.cls-1{fill:none;stroke:#000;stroke-linecap:round;stroke-linejoin:round;}</style></defs><title>martial-arts-mask-helmet</title><path class="cls-1" d="M12,23.5A2.5,2.5,0,0,0,14.5,21V19.5a1,1,0,0,1,1-1c0,1.557,1.078,3,3.5,3a4.5,4.5,0,0,0,4.469-3.966.5.5,0,0,0-.45-.557A5,5,0,0,1,18.5,12V7a6.5,6.5,0,0,0-13,0v5A5,5,0,0,1,.981,16.977a.5.5,0,0,0-.45.557A4.5,4.5,0,0,0,5,21.5c2.422,0,3.5-1.443,3.5-3a1,1,0,0,1,1,1V21A2.5,2.5,0,0,0,12,23.5"/><ellipse class="cls-1" cx="12" cy="9" rx="4.5" ry="6.5"/><line class="cls-1" x1="8.384" y1="4.5" x2="15.616" y2="4.5"/><line class="cls-1" x1="7.56" y1="7.5" x2="16.433" y2="7.5"/><line class="cls-1" x1="7.633" y1="10.5" x2="16.379" y2="10.5"/><line class="cls-1" x1="8.753" y1="13.5" x2="15.247" y2="13.5"/></svg>