<svg id="Light" xmlns="http://www.w3.org/2000/svg" viewBox="0 0 24 24"><defs><style>.cls-1{fill:none;stroke:#000;stroke-linecap:round;stroke-linejoin:round;}</style></defs><title>match-fire</title><path class="cls-1" d="M10.064,1.963a.264.264,0,0,1,.248.449A5.43,5.43,0,0,0,8.425,6.224,5.441,5.441,0,0,0,10.12,10.18a6.045,6.045,0,0,0,1.635-3.054.263.263,0,0,1,.381-.178,8.176,8.176,0,0,1,4.2,7.187,7.911,7.911,0,0,1-15.822,0A12.935,12.935,0,0,1,10.064,1.963Z"/><path class="cls-1" d="M7.95,14.678a2.1,2.1,0,1,0,2.558,3.266l1.721-1.882-2.04-2.606Z"/><line class="cls-1" x1="11.127" y1="14.654" x2="23.514" y2="4.46"/></svg>