<svg xmlns="http://www.w3.org/2000/svg" viewBox="0 0 24 24"><defs><style>.a{fill:none;stroke:#000;stroke-linecap:round;stroke-linejoin:round;}</style></defs><title>material-isolation</title><circle class="a" cx="4" cy="20" r="3.5"/><circle class="a" cx="4" cy="20" r="1.5"/><path class="a" d="M.5,20V4a3.5,3.5,0,0,1,7,0V20"/><path class="a" d="M4,23.5H22.5a1,1,0,0,0,1-1V4.5a1,1,0,0,0-1-1H7.465"/><line class="a" x1="10.5" y1="6" x2="10.5" y2="7.5"/><line class="a" x1="10.5" y1="9.5" x2="10.5" y2="11"/><line class="a" x1="10.5" y1="13" x2="10.5" y2="14.5"/><line class="a" x1="10.5" y1="16.5" x2="10.5" y2="18"/><line class="a" x1="10.5" y1="20" x2="10.5" y2="21.5"/><line class="a" x1="13.5" y1="6" x2="13.5" y2="7.5"/><line class="a" x1="13.5" y1="9.5" x2="13.5" y2="11"/><line class="a" x1="13.5" y1="13" x2="13.5" y2="14.5"/><line class="a" x1="13.5" y1="16.5" x2="13.5" y2="18"/><line class="a" x1="13.5" y1="20" x2="13.5" y2="21.5"/><line class="a" x1="16.5" y1="6" x2="16.5" y2="7.5"/><line class="a" x1="16.5" y1="9.5" x2="16.5" y2="11"/><line class="a" x1="16.5" y1="13" x2="16.5" y2="14.5"/><line class="a" x1="16.5" y1="16.5" x2="16.5" y2="18"/><line class="a" x1="16.5" y1="20" x2="16.5" y2="21.5"/><line class="a" x1="19.5" y1="6" x2="19.5" y2="7.5"/><line class="a" x1="19.5" y1="9.5" x2="19.5" y2="11"/><line class="a" x1="19.5" y1="13" x2="19.5" y2="14.5"/><line class="a" x1="19.5" y1="16.5" x2="19.5" y2="18"/><line class="a" x1="19.5" y1="20" x2="19.5" y2="21.5"/></svg>