<svg xmlns="http://www.w3.org/2000/svg" viewBox="0 0 24 24"><defs><style>.a{fill:none;stroke:#000;stroke-linecap:round;stroke-linejoin:round;}</style></defs><title>material-tile-roof-1</title><path class="a" d="M1.25,20.332,3.872,2.852A1,1,0,0,1,4.861,2H19.139a1,1,0,0,1,.989.852l2.622,17.48"/><path class="a" d="M22.544,18.974a4.013,4.013,0,0,1-3.293-2.583,4,4,0,0,1-7.5.007,3.991,3.991,0,0,1-7.492-.023,4.005,4.005,0,0,1-2.789,2.507"/><path class="a" d="M22.75,20.332a4,4,0,0,1-7-.938,4,4,0,0,1-7.5,0,4,4,0,0,1-7,.939"/><path class="a" d="M21.646,12.974a3.755,3.755,0,0,1-3.02-2.583A3.7,3.7,0,0,1,15.187,13a3.7,3.7,0,0,1-3.438-2.6A3.7,3.7,0,0,1,8.313,13a3.7,3.7,0,0,1-3.431-2.625A3.814,3.814,0,0,1,2.369,12.87"/><path class="a" d="M20.706,6.72a3.877,3.877,0,0,1-2.08-2.329A3.7,3.7,0,0,1,15.187,7a3.7,3.7,0,0,1-3.438-2.6A3.7,3.7,0,0,1,8.313,7,3.7,3.7,0,0,1,4.882,4.375,3.952,3.952,0,0,1,3.338,6.422"/><path class="a" d="M21.85,14.332a3.608,3.608,0,0,1-3,1.668,3.686,3.686,0,0,1-3.436-2.606A3.7,3.7,0,0,1,11.979,16a3.7,3.7,0,0,1-3.438-2.607A3.688,3.688,0,0,1,5.105,16a3.536,3.536,0,0,1-2.954-1.668"/><path class="a" d="M21.034,8.894A3.317,3.317,0,0,1,18.6,10a3.575,3.575,0,0,1-3.312-2.606A3.583,3.583,0,0,1,11.971,10,3.584,3.584,0,0,1,8.658,7.393,3.576,3.576,0,0,1,5.346,10,3.308,3.308,0,0,1,2.957,8.946"/><path class="a" d="M15.031,2a3.482,3.482,0,0,1-3.06,2A3.481,3.481,0,0,1,8.912,2"/><path class="a" d="M15.536,2A3.481,3.481,0,0,0,18.6,4a3.194,3.194,0,0,0,1.637-.454"/><path class="a" d="M8.406,2a3.482,3.482,0,0,1-3.06,2,3.184,3.184,0,0,1-1.582-.423"/></svg>