<svg xmlns="http://www.w3.org/2000/svg" viewBox="0 0 24 24"><defs><style>.a{fill:none;stroke:#000;stroke-linecap:round;stroke-linejoin:round;}</style></defs><title>material-tile-roof</title><line class="a" x1="9" y1="2" x2="8" y2="22"/><line class="a" x1="15" y1="2" x2="16" y2="22"/><path class="a" d="M1,22a4,4,0,0,1,6.929,0h.606a4,4,0,0,1,6.929,0h.607A4,4,0,0,1,23,22S20.7,6.667,20.128,2.852A1,1,0,0,0,19.14,2H4.86a1,1,0,0,0-.988.852C3.3,6.667,1,22,1,22Z"/><path class="a" d="M15.641,14.827a4,4,0,0,1,6.183-.66"/><path class="a" d="M15.3,8.047a4,4,0,0,1,5.643.246"/><path class="a" d="M8.359,14.827a4,4,0,0,0-6.183-.66"/><path class="a" d="M8.7,8.047a4,4,0,0,0-5.643.246"/><path class="a" d="M8.328,15.443a3.991,3.991,0,0,1,7.343-.034"/><path class="a" d="M8.66,8.8A3.994,3.994,0,0,1,12,7a4.036,4.036,0,0,1,3.339,1.764"/></svg>