<svg xmlns="http://www.w3.org/2000/svg" viewBox="0 0 24 24"><defs><style>.a{fill:none;stroke:#000;stroke-linecap:round;stroke-linejoin:round;}</style></defs><title>maze-strategy</title><path class="a" d="M18.5,1.5h3a1,1,0,0,1,1,1v19a1,1,0,0,1-1,1h-7"/><polyline class="a" points="11.5 23.5 11.5 18.5 7.5 18.5 7.5 12.5 10.5 12.5 10.5 7.5 13.5 7.5 13.5 0.5"/><polyline class="a" points="10.5 3.5 13.5 0.5 16.469 3.5"/><line class="a" x1="4.5" y1="1.5" x2="4.5" y2="6.5"/><polyline class="a" points="1.5 9.5 7.5 9.5 7.5 5.5"/><polyline class="a" points="9.5 15.5 14.5 15.5 14.5 19.5"/><path class="a" d="M4.5,12.5v8h4v2h-6a1,1,0,0,1-1-1V2.5a1,1,0,0,1,1-1h6"/><polyline class="a" points="17.5 22.5 17.5 13.5 19.5 13.5"/><line class="a" x1="22.5" y1="19.5" x2="20.5" y2="19.5"/><line class="a" x1="22.5" y1="16.5" x2="20.5" y2="16.5"/><polyline class="a" points="22.5 10.5 13.5 10.5 13.5 12.5"/><polyline class="a" points="16.5 10.5 16.5 5.5 19.5 5.5 19.5 7.5"/></svg>