<svg id="Light" xmlns="http://www.w3.org/2000/svg" viewBox="0 0 24 24"><defs><style>.cls-1{fill:none;stroke:#000;stroke-linecap:round;stroke-linejoin:round;}</style></defs><title>medical-notes</title><path class="cls-1" d="M15.5,9h-2V7a.5.5,0,0,0-.5-.5H11a.5.5,0,0,0-.5.5V9h-2a.5.5,0,0,0-.5.5v2a.5.5,0,0,0,.5.5h2v2a.5.5,0,0,0,.5.5h2a.5.5,0,0,0,.5-.5V12h2a.5.5,0,0,0,.5-.5v-2A.5.5,0,0,0,15.5,9Z"/><path class="cls-1" d="M14,2.5a2,2,0,0,0-4,0H3.5a1,1,0,0,0-1,1v19a1,1,0,0,0,1,1h17a1,1,0,0,0,1-1V3.5a1,1,0,0,0-1-1Z"/><rect class="cls-1" x="4.5" y="4.5" width="15" height="17" rx="0.5" ry="0.5"/><line class="cls-1" x1="7.5" y1="16.5" x2="16.5" y2="16.5"/><line class="cls-1" x1="7.5" y1="18.5" x2="16.5" y2="18.5"/></svg>