<svg id="Light" xmlns="http://www.w3.org/2000/svg" viewBox="0 0 24 24"><defs><style>.cls-1{fill:none;stroke:#000;stroke-linecap:round;stroke-linejoin:round;}</style></defs><title>medical-hospital</title><path class="cls-1" d="M22.775,8.664a.5.5,0,0,0,.183-.683l-2-3.464a.5.5,0,0,0-.3-.233.5.5,0,0,0-.379.05L14.5,7.669V1A.5.5,0,0,0,14,.5H10a.5.5,0,0,0-.5.5V7.668L3.725,4.334a.5.5,0,0,0-.683.183l-2,3.464a.5.5,0,0,0,.183.683L7,12,1.225,15.334a.5.5,0,0,0-.183.683l2,3.464a.5.5,0,0,0,.683.183L9.5,16.329V23a.5.5,0,0,0,.5.5h4a.5.5,0,0,0,.5-.5V16.329l5.776,3.335a.5.5,0,0,0,.379.05.5.5,0,0,0,.3-.233l2-3.464a.5.5,0,0,0-.183-.683L17,12Z"/></svg>