<svg id="Light" xmlns="http://www.w3.org/2000/svg" viewBox="0 0 24 24"><defs><style>.cls-1{fill:none;stroke:#000;stroke-linecap:round;stroke-linejoin:round;}</style></defs><title>medical-specialty-rehabilitation</title><circle class="cls-1" cx="15" cy="4" r="2.5"/><circle class="cls-1" cx="21" cy="18" r="2.5"/><line class="cls-1" x1="23.5" y1="22.5" x2="0.5" y2="22.5"/><path class="cls-1" d="M15.5,12.5l-2.027.727a1.423,1.423,0,0,0,.9,2.7l2.076-.743A3,3,0,0,0,18.5,12.338V11.5a3,3,0,0,0-3-3H12a4,4,0,0,0-3.2,1.6l-.3.4"/><path class="cls-1" d="M5.5,17.5H2a1.5,1.5,0,0,0,0,3h8.5"/><path class="cls-1" d="M15.5,20.5h-5a1.5,1.5,0,0,1-1.342-.829L7.487,16.329A1.491,1.491,0,0,0,6.145,15.5H2a1.5,1.5,0,0,1,0-3H6.146a4.472,4.472,0,0,1,4.025,2.488L11.427,17.5H15.5a1.5,1.5,0,0,1,0,3Z"/></svg>