<svg id="Light" xmlns="http://www.w3.org/2000/svg" viewBox="0 0 24 24"><defs><style>.cls-1{fill:none;stroke:#000;stroke-linecap:round;stroke-linejoin:round;}</style></defs><title>medical-instrument-stethoscope</title><circle class="cls-1" cx="19.5" cy="8.5" r="3"/><path class="cls-1" d="M4.5,1.5a3,3,0,0,0-3,3v4h0a5,5,0,0,0,10,0v-4a3,3,0,0,0-3-3"/><path class="cls-1" d="M6.5,13.5v8a2,2,0,0,0,4,0V15.732a2.5,2.5,0,1,1,5,0V19.5a2,2,0,0,0,4,0v-8"/><line class="cls-1" x1="4.5" y1="0.5" x2="4.5" y2="3"/><line class="cls-1" x1="8.5" y1="0.5" x2="8.5" y2="3"/></svg>