<svg id="Light" xmlns="http://www.w3.org/2000/svg" viewBox="0 0 24 24"><defs><style>.cls-1{fill:none;stroke:#000;stroke-linecap:round;stroke-linejoin:round;}</style></defs><title>medical-nanobot-pill</title><line class="cls-1" x1="9.5" y1="18.5" x2="10.5" y2="18.5"/><line class="cls-1" x1="14.5" y1="17.5" x2="14.5" y2="18.5"/><line class="cls-1" x1="12.5" y1="20.715" x2="13.5" y2="21.215"/><line class="cls-1" x1="6.172" y1="17.828" x2="10" y2="14"/><path class="cls-1" d="M7.328,7.672a4,4,0,0,0-5.656,5.656l9,9a4,4,0,0,0,5.656-5.656"/><circle class="cls-1" cx="16.5" cy="7.5" r="7"/><path class="cls-1" d="M13.5,8l-.273.273a2,2,0,0,0-.186,2.615l.459.612"/><path class="cls-1" d="M19.5,8l.273.273a2,2,0,0,1,.186,2.615L19.5,11.5"/><line class="cls-1" x1="16.5" y1="9.5" x2="16.5" y2="12.5"/><circle class="cls-1" cx="16.5" cy="6" r="1"/><path class="cls-1" d="M16.724,2.612a.5.5,0,0,0-.448,0l-2.5,1.25a.5.5,0,0,0-.276.447V8l3,1.5,3-1.5V4.309a.5.5,0,0,0-.276-.447Z"/></svg>