<svg id="Light" xmlns="http://www.w3.org/2000/svg" viewBox="0 0 24 24"><defs><style>.cls-1{fill:none;stroke:#000;stroke-linecap:round;stroke-linejoin:round;}</style></defs><title>medical-specialty</title><circle class="cls-1" cx="12" cy="7" r="6.5"/><path class="cls-1" d="M8.5,3.5h0a3.415,3.415,0,0,1,1,2.414v.4A1.683,1.683,0,0,0,11.183,8h1.634A1.683,1.683,0,0,0,14.5,6.317v-.4a3.415,3.415,0,0,1,1-2.414h0"/><line class="cls-1" x1="12" y1="3.5" x2="12" y2="11"/><line class="cls-1" x1="10.5" y1="11" x2="13.5" y2="11"/><line class="cls-1" x1="11" y1="3.5" x2="13" y2="3.5"/><path class="cls-1" d="M.5,23.5h5a2,2,0,0,0,2-2v-2a2,2,0,0,0-2-2H.5"/><path class="cls-1" d="M5.5,23.5H22c1.1,0,1.5-.895,1.5-2v-2c0-1.1-.4-2-1.5-2H5.5"/><line class="cls-1" x1="19.5" y1="17.5" x2="19.5" y2="23.5"/><line class="cls-1" x1="17.5" y1="17.5" x2="17.5" y2="23.5"/><line class="cls-1" x1="13.5" y1="17.5" x2="13.5" y2="23.5"/><line class="cls-1" x1="11.5" y1="17.5" x2="11.5" y2="23.5"/><line class="cls-1" x1="5.5" y1="21.5" x2="1.5" y2="21.5"/><line class="cls-1" x1="5.5" y1="19.5" x2="1.5" y2="19.5"/></svg>