<svg id="Light" xmlns="http://www.w3.org/2000/svg" viewBox="0 0 24 24"><defs><style>.cls-1{fill:none;stroke:#000;stroke-linecap:round;stroke-linejoin:round;}</style></defs><title>medical-specialty-liver</title><path class="cls-1" d="M2.986,19.012A1.482,1.482,0,0,1,.5,17.929V11.5a10,10,0,0,1,10-10H21.112a2.367,2.367,0,0,1,2.1,3.482c-1.6,2.891-2.234,3.634-5.218,6.059-2.15,1.747-6.262,1.776-9.011,2.12C6.474,13.475,4.652,17.544,2.986,19.012Z"/><path class="cls-1" d="M2.986,19.012a4.49,4.49,0,0,0,3.836-.5A7.869,7.869,0,0,0,9.5,15.5l1.831.131a6.5,6.5,0,0,0,6.661-4.59"/><line class="cls-1" x1="11.5" y1="15.641" x2="11.5" y2="22.5"/><line class="cls-1" x1="8.5" y1="22.5" x2="8.5" y2="17.018"/><path class="cls-1" d="M13.5,1.5l-.927.662A4.283,4.283,0,0,0,11,7"/></svg>