<svg id="Light" xmlns="http://www.w3.org/2000/svg" viewBox="0 0 24 24"><defs><style>.cls-1{fill:none;stroke:#000;stroke-linecap:round;stroke-linejoin:round;}</style></defs><title>medical-app-smartphone-touch</title><path class="cls-1" d="M23.5,23.5V22.4a2.888,2.888,0,0,0-2.747-2.9H18.5V14.75a1.25,1.25,0,0,0-2.5,0V22l-1.521-2.14a1.05,1.05,0,1,0-1.858.979l1.4,2.661"/><path class="cls-1" d="M11.021,23.5H2.5a2,2,0,0,1-2-2V2.5a2,2,0,0,1,2-2h11a2,2,0,0,1,2,2v9.021"/><line class="cls-1" x1="9.521" y1="19.5" x2="0.5" y2="19.5"/><line class="cls-1" x1="5.5" y1="2.5" x2="10.5" y2="2.5"/><path class="cls-1" d="M8,21a.25.25,0,0,1,.25.25"/><path class="cls-1" d="M7.75,21.25A.25.25,0,0,1,8,21"/><path class="cls-1" d="M8,21.5a.25.25,0,0,1-.25-.25"/><path class="cls-1" d="M8.25,21.25A.25.25,0,0,1,8,21.5"/><path class="cls-1" d="M11.5,10a.5.5,0,0,0-.5-.5H9.5V8A.5.5,0,0,0,9,7.5H7a.5.5,0,0,0-.5.5V9.5H5a.5.5,0,0,0-.5.5v2a.5.5,0,0,0,.5.5H6.5V14a.5.5,0,0,0,.5.5H9a.5.5,0,0,0,.5-.5V12.5H11a.5.5,0,0,0,.5-.5Z"/></svg>