<svg id="Light" xmlns="http://www.w3.org/2000/svg" viewBox="0 0 24 24"><defs><style>.cls-1{fill:none;stroke:#000;stroke-linecap:round;stroke-linejoin:round;}</style></defs><title>medical-instrument</title><path class="cls-1" d="M16.335,3.406,8.8,10.826a1,1,0,0,0-.3.713V15.5h4a1,1,0,0,0,.71-.3l7.43-7.5"/><path class="cls-1" d="M15.989.939a1.5,1.5,0,0,0,0,2.122l4.95,4.95A1.5,1.5,0,0,0,23.06,5.889L18.11.939A1.5,1.5,0,0,0,15.989.939Z"/><line class="cls-1" x1="8.5" y1="15.5" x2="3.692" y2="20.308"/><path class="cls-1" d="M2.34,19.923a1,1,0,0,1,1.155.188l.394.394a1,1,0,0,1,.188,1.155L3.3,23.224a.5.5,0,0,1-.8.13L.646,21.506a.5.5,0,0,1,.13-.8Z"/><line class="cls-1" x1="11.5" y1="8.292" x2="15.754" y2="12.546"/></svg>