<svg id="Light" xmlns="http://www.w3.org/2000/svg" viewBox="0 0 24 24"><defs><style>.cls-1{fill:none;stroke:#000;stroke-linecap:round;stroke-linejoin:round;}</style></defs><title>medical-instrument-tweezers</title><path class="cls-1" d="M8.733,17.806a2.783,2.783,0,0,0-2.689,2.831,2.784,2.784,0,0,0,3.27,2.135A2.784,2.784,0,0,0,12,19.94,2.783,2.783,0,0,0,8.733,17.806Z"/><path class="cls-1" d="M5.493,15.169A2.784,2.784,0,0,1,3.3,18.4,2.783,2.783,0,0,1,.518,15.66a2.785,2.785,0,0,1,2.193-3.231A2.784,2.784,0,0,1,5.493,15.169Z"/><path class="cls-1" d="M6.7,18.781l4.326-6.838a5,5,0,0,1,2.1-1.855,5.014,5.014,0,0,0,2.489-2.376L17.07,4.757a5,5,0,0,1,2.941-2.546L21.2,1.826"/><path class="cls-1" d="M21.587,1.554a.25.25,0,0,0-.351.041"/><path class="cls-1" d="M21.628,1.905a.249.249,0,0,0-.041-.351"/><path class="cls-1" d="M21.277,1.946a.25.25,0,0,0,.351-.041"/><path class="cls-1" d="M21.236,1.6a.251.251,0,0,0,.041.351"/><path class="cls-1" d="M23.409,4.357a.25.25,0,0,0-.352.035"/><path class="cls-1" d="M23.443,4.709a.25.25,0,0,0-.034-.352"/><path class="cls-1" d="M23.091,4.743a.25.25,0,0,0,.352-.034"/><path class="cls-1" d="M23.057,4.392a.249.249,0,0,0,.034.351"/><path class="cls-1" d="M4.975,17.368l3.808-5.786a5,5,0,0,1,4.068-2.25,5.107,5.107,0,0,0,3.286-1.047L19.215,5.91a5.008,5.008,0,0,1,2.016-.932L23.005,4.6"/></svg>