<svg id="Light" xmlns="http://www.w3.org/2000/svg" viewBox="0 0 24 24"><defs><style>.cls-1{fill:none;stroke:#000;stroke-linecap:round;stroke-linejoin:round;}</style></defs><title>medical-personnel-nurse</title><path class="cls-1" d="M22.5,23.5v-5a3,3,0,0,0-3-3h-3"/><line class="cls-1" x1="19.499" y1="20" x2="19.499" y2="23.498"/><line class="cls-1" x1="13.499" y1="23.498" x2="13.499" y2="20"/><path class="cls-1" d="M16.5,15.5h-3a3,3,0,0,0-3,3v5"/><line class="cls-1" x1="0.499" y1="23.5" x2="23.499" y2="23.5"/><path class="cls-1" d="M16.5,5.5a5.478,5.478,0,0,0-3.74,1.469.5.5,0,0,0-.09.6l1.439,2.7a2.5,2.5,0,0,1,4.782,0l1.438-2.7a.5.5,0,0,0-.09-.6A5.476,5.476,0,0,0,16.5,5.5Z"/><circle class="cls-1" cx="16.499" cy="11" r="2.5"/><path class="cls-1" d="M9.5,4.5a1,1,0,0,0-1-1h-2v-2a1,1,0,0,0-1-1h-1a1,1,0,0,0-1,1v2h-2a1,1,0,0,0-1,1v1a1,1,0,0,0,1,1h2v2a1,1,0,0,0,1,1h1a1,1,0,0,0,1-1v-2h2a1,1,0,0,0,1-1Z"/></svg>