<svg id="Light" xmlns="http://www.w3.org/2000/svg" viewBox="0 0 24 24"><defs><style>.cls-1{fill:none;stroke:#000;stroke-linecap:round;stroke-linejoin:round;}</style></defs><title>medical-specialty-hearing-1</title><path class="cls-1" d="M.5,12.5H2.691a.5.5,0,0,1,.447.276l.438.876a.5.5,0,0,0,.884.019l1.579-2.842a.5.5,0,0,1,.885.019L8.65,14.3a.5.5,0,0,0,.838.089l1.361-1.7a.5.5,0,0,1,.391-.188H13"/><path class="cls-1" d="M7.544,19.031a4.9,4.9,0,0,0,9.781-.314,4.661,4.661,0,0,1,2.346-3.872A7.705,7.705,0,0,0,16.692.533a7.459,7.459,0,0,0-7.243,3.9"/><path class="cls-1" d="M11.67,6.888A4.5,4.5,0,0,1,18,11a4.312,4.312,0,0,1-3.207,4.247,1.764,1.764,0,0,0-1.3,1.464,1.975,1.975,0,0,1-1.56,1.744A2,2,0,0,1,9.5,16.518"/><path class="cls-1" d="M11.988,9.935a3.914,3.914,0,0,1-.488-1.9,4,4,0,0,1,7.846-1.091"/></svg>