<svg id="Light" xmlns="http://www.w3.org/2000/svg" viewBox="0 0 24 24"><defs><style>.cls-1{fill:none;stroke:#000;stroke-linecap:round;stroke-linejoin:round;}</style></defs><title>medical-specialty-skin</title><line class="cls-1" x1="0.5" y1="5.793" x2="23.5" y2="5.793"/><path class="cls-1" d="M.5,8.772c2.872,0,2.872,2.98,5.744,2.98s2.875-2.98,5.75-2.98,2.876,2.98,5.753,2.98,2.876-2.98,5.753-2.98"/><path class="cls-1" d="M.75,14.235a.249.249,0,0,1,.25.248"/><path class="cls-1" d="M.5,14.483a.249.249,0,0,1,.25-.248"/><path class="cls-1" d="M.75,14.731a.249.249,0,0,1-.25-.248"/><path class="cls-1" d="M1,14.483a.249.249,0,0,1-.25.248"/><path class="cls-1" d="M3.75,17.214a.249.249,0,0,1,.25.248"/><path class="cls-1" d="M3.5,17.462a.249.249,0,0,1,.25-.248"/><path class="cls-1" d="M3.75,17.71a.249.249,0,0,1-.25-.248"/><path class="cls-1" d="M4,17.462a.249.249,0,0,1-.25.248"/><path class="cls-1" d="M7.25,14.235a.249.249,0,0,1,.25.248"/><path class="cls-1" d="M7,14.483a.249.249,0,0,1,.25-.248"/><path class="cls-1" d="M7.25,14.731A.249.249,0,0,1,7,14.483"/><path class="cls-1" d="M7.5,14.483a.249.249,0,0,1-.25.248"/><path class="cls-1" d="M10.25,17.214a.249.249,0,0,1,.25.248"/><path class="cls-1" d="M10,17.462a.249.249,0,0,1,.25-.248"/><path class="cls-1" d="M10.25,17.71a.249.249,0,0,1-.25-.248"/><path class="cls-1" d="M10.5,17.462a.249.249,0,0,1-.25.248"/><path class="cls-1" d="M13.75,14.235a.249.249,0,0,1,.25.248"/><path class="cls-1" d="M13.5,14.483a.249.249,0,0,1,.25-.248"/><path class="cls-1" d="M13.75,14.731a.249.249,0,0,1-.25-.248"/><path class="cls-1" d="M14,14.483a.249.249,0,0,1-.25.248"/><path class="cls-1" d="M16.75,17.214a.249.249,0,0,1,.25.248"/><path class="cls-1" d="M16.5,17.462a.249.249,0,0,1,.25-.248"/><path class="cls-1" d="M16.75,17.71a.249.249,0,0,1-.25-.248"/><path class="cls-1" d="M17,17.462a.249.249,0,0,1-.25.248"/><path class="cls-1" d="M20.25,14.235a.249.249,0,0,1,.25.248"/><path class="cls-1" d="M20,14.483a.249.249,0,0,1,.25-.248"/><path class="cls-1" d="M20.25,14.731a.249.249,0,0,1-.25-.248"/><path class="cls-1" d="M20.5,14.483a.249.249,0,0,1-.25.248"/><path class="cls-1" d="M23.25,17.214a.249.249,0,0,1,.25.248"/><path class="cls-1" d="M23,17.462a.249.249,0,0,1,.25-.248"/><path class="cls-1" d="M23.25,17.71a.249.249,0,0,1-.25-.248"/><path class="cls-1" d="M23.5,17.462a.249.249,0,0,1-.25.248"/></svg>