<svg id="Light" xmlns="http://www.w3.org/2000/svg" viewBox="0 0 24 24"><defs><style>.cls-1{fill:none;stroke:#000;stroke-linecap:round;stroke-linejoin:round;}</style></defs><title>medical-instrument-scalpel</title><path class="cls-1" d="M22.914,1.086a2,2,0,0,1,0,2.828l-11.7,11.71a1,1,0,0,1-1.414,0L8.385,14.21a1,1,0,0,1,0-1.414l11.7-11.71A2,2,0,0,1,22.914,1.086Z"/><path class="cls-1" d="M8.385,14.21.646,21.948a.5.5,0,0,0,.068.765c.927.645,3.137,1.688,5.549-.725a4.646,4.646,0,0,0,1.061-3.182c0-2.121,2.475-3.182,2.475-3.182"/></svg>