<svg id="Light" xmlns="http://www.w3.org/2000/svg" viewBox="0 0 24 24"><defs><style>.cls-1{fill:none;stroke:#000;stroke-linecap:round;stroke-linejoin:round;}</style></defs><title>medical-condition-throat-problem</title><path class="cls-1" d="M13.357,23.5v-3a2,2,0,0,0-2-2h-6s-.832,1.051-.719,1.164c.7.7,1.719.846,3.719.835v3"/><path class="cls-1" d="M15.357,23.5v-3a4,4,0,0,0-4-4H6.168a5,5,0,0,1-1.581-.257L3.857,16l-.032-1.5s-.853.032-1.5.006a.75.75,0,0,1-.575-.307,1.172,1.172,0,0,1-.1-.63c-.116-1.606,2.145-4.362,2.145-5.163C3.793,3.375,8.544.5,12.857.5a9.412,9.412,0,0,1,9.5,9.563c0,3.043-1,5.9-4,7.677V23.5"/></svg>