<svg id="Light" xmlns="http://www.w3.org/2000/svg" viewBox="0 0 24 24"><defs><style>.cls-1{fill:none;stroke:#000;stroke-linecap:round;stroke-linejoin:round;}</style></defs><title>medical-condition-head-dizziness</title><path class="cls-1" d="M20.173,8.434A8.31,8.31,0,0,1,21,12.058c0,2.79-.895,5.256-3,6.789V23.5"/><path class="cls-1" d="M9,23.5v-3H7.5A2.5,2.5,0,0,1,5,18V14.5H2.694a.5.5,0,0,1-.474-.658A39.58,39.58,0,0,1,4.128,8.867"/><path class="cls-1" d="M20.682,1.65C22.135,2.155,23,2.79,23,3.479c0,1.028-1.92,1.934-4.842,2.47l-.213.038"/><path class="cls-1" d="M9.6.571C10.371.525,11.175.5,12,.5c1.009,0,1.987.037,2.916.106"/><path class="cls-1" d="M1.124,3.03C1.467,2.416,2.5,1.864,4,1.433"/><path class="cls-1" d="M12.063,6.459h-.291a33.031,33.031,0,0,1-6.68-.66"/><line class="cls-1" x1="7" y1="2.5" x2="7" y2="0.5"/><line class="cls-1" x1="6" y1="1.5" x2="8" y2="1.5"/><line class="cls-1" x1="17.5" y1="2.5" x2="17.5" y2="0.5"/><line class="cls-1" x1="16.5" y1="1.5" x2="18.5" y2="1.5"/><line class="cls-1" x1="15" y1="7.5" x2="15" y2="5.5"/><line class="cls-1" x1="14" y1="6.5" x2="16" y2="6.5"/><line class="cls-1" x1="2" y1="6.5" x2="2" y2="4.5"/><line class="cls-1" x1="1" y1="5.5" x2="3" y2="5.5"/></svg>