<svg xmlns="http://www.w3.org/2000/svg" viewBox="0 0 24 24"><defs><style>.a{fill:none;stroke:#000;stroke-linecap:round;stroke-linejoin:round;}</style></defs><title>meeting-remote</title><rect class="a" x="3.503" y="0.5" width="17" height="12" rx="2" ry="2"/><path class="a" d="M16.7,10.526c-.387-.6-1.668-1.03-3.274-1.624-.453-.169-.378-1.351-.178-1.572a3.338,3.338,0,0,0,.87-2.591,2.125,2.125,0,1,0-4.241,0,3.342,3.342,0,0,0,.87,2.591c.2.221.275,1.4-.178,1.572C8.969,9.5,7.687,9.929,7.3,10.526"/><path class="a" d="M16.5,23.5a3.965,3.965,0,0,0-.391-1.587c-.276-.552-1.428-.935-2.875-1.471-.392-.144-.327-1.057-.154-1.248a2.887,2.887,0,0,0,.751-2.238,1.835,1.835,0,1,0-3.662,0,2.887,2.887,0,0,0,.751,2.238c.173.191.238,1.1-.154,1.248-1.447.536-2.6.919-2.875,1.471A3.965,3.965,0,0,0,7.5,23.5"/><path class="a" d="M23.5,20.915c-.38-.149-.808-.3-1.266-.473-.392-.144-.327-1.057-.154-1.248a2.887,2.887,0,0,0,.751-2.238,1.835,1.835,0,1,0-3.662,0,2.887,2.887,0,0,0,.751,2.238c.173.191.238,1.1-.154,1.248-1.447.536-2.6.919-2.875,1.471A3.965,3.965,0,0,0,16.5,23.5"/><path class="a" d="M7.5,23.5a3.965,3.965,0,0,0-.391-1.587c-.276-.552-1.428-.935-2.875-1.471-.392-.144-.327-1.057-.154-1.248a2.887,2.887,0,0,0,.751-2.238A1.79,1.79,0,0,0,3,15a1.79,1.79,0,0,0-1.831,1.956,2.887,2.887,0,0,0,.751,2.238c.173.191.238,1.1-.154,1.248-.458.17-.886.324-1.266.473"/></svg>