<svg xmlns="http://www.w3.org/2000/svg" viewBox="0 0 24 24"><defs><style>.a{fill:none;stroke:#000;stroke-linecap:round;stroke-linejoin:round;}</style></defs><title>meeting-headphones-3</title><path class="a" d="M1.5,18.5a2,2,0,0,0,2,2h1a1,1,0,0,0,1-1v-8a1,1,0,0,0-1-1h-1a2,2,0,0,0-2,2Z"/><path class="a" d="M3.5,10.5V9a8.5,8.5,0,0,1,17,0v1.5"/><path class="a" d="M13.5,22.5a1,1,0,0,1-1,1h-1a1,1,0,0,1,0-2h1A1,1,0,0,1,13.5,22.5Z"/><path class="a" d="M13.5,22.5H16A2.5,2.5,0,0,0,18.5,20"/><path class="a" d="M5.108,10.706,6.7,11.9a2,2,0,0,1,.8,1.6v4a2,2,0,0,1-.8,1.6L5.108,20.294"/><path class="a" d="M22.5,18.5a2,2,0,0,1-2,2h-1a1,1,0,0,1-1-1v-8a1,1,0,0,1,1-1h1a2,2,0,0,1,2,2Z"/><path class="a" d="M18.892,10.706,17.3,11.9a2,2,0,0,0-.8,1.6v4a2,2,0,0,0,.8,1.6l1.592,1.194"/></svg>