<svg xmlns="http://www.w3.org/2000/svg" viewBox="0 0 24 24"><defs><style>.a{fill:none;stroke:#000;stroke-linecap:round;stroke-linejoin:round;}</style></defs><title>meeting-team-laptop-woman-1</title><path class="a" d="M10.37,15.873a4.727,4.727,0,0,1-.687-2.617V12.185a3.683,3.683,0,1,0-7.366,0v1.071a4.727,4.727,0,0,1-.687,2.617"/><path class="a" d="M2.317,12.793A4.877,4.877,0,0,0,6,11.105a4.877,4.877,0,0,0,3.683,1.688"/><path class="a" d="M9.246,12.773a3.25,3.25,0,0,1-6.492,0"/><path class="a" d="M11.5,23a5.5,5.5,0,1,0-11,0Z"/><circle class="a" cx="14.5" cy="4.75" r="1.75"/><path class="a" d="M18,10a3.612,3.612,0,0,0-7,0"/><path class="a" d="M21.5,12V2a1,1,0,0,0-1-1H7.5a1,1,0,0,0-1,1V6.5"/><path class="a" d="M12,12H23.5a2,2,0,0,1-2,2H12"/></svg>