<svg xmlns="http://www.w3.org/2000/svg" viewBox="0 0 24 24"><defs><style>.a{fill:none;stroke:#000;stroke-linecap:round;stroke-linejoin:round;}</style></defs><title>meeting-team-laptop-man</title><path class="a" d="M11.515,23l-3.5-1.5v-2s.866-.35.866-2.5c.684,0,.944-2-.007-2a2.63,2.63,0,0,0,.44-2c-.491-2-5.331-2-5.822,0-2.066-.43-.422,1.712-.422,2-.981,0-.981,2,0,2,0,2.15.945,2.5.945,2.5v2L.515,23"/><circle class="a" cx="14.515" cy="4.75" r="1.75"/><path class="a" d="M18.015,10a3.612,3.612,0,0,0-7,0"/><path class="a" d="M21.515,12V2a1,1,0,0,0-1-1h-13a1,1,0,0,0-1,1V9"/><path class="a" d="M12.015,12h11.5a2,2,0,0,1-2,2h-9.5"/></svg>