<svg xmlns="http://www.w3.org/2000/svg" viewBox="0 0 24 24"><defs><style>.a{fill:none;stroke:#000;stroke-linecap:round;stroke-linejoin:round;}</style></defs><title>meeting-laptop</title><line class="a" x1="20.501" y1="9.5" x2="20.501" y2="20.5"/><path class="a" d="M1.5,20.5V9A1.5,1.5,0,0,1,3,7.5h8.5"/><path class="a" d="M13.5,20.5v1h-5v-1H.5v2a1,1,0,0,0,1,1h19a1,1,0,0,0,1-1v-2Z"/><path class="a" d="M16,18.5c-.408-.63-1.761-1.088-3.455-1.715-.479-.178-.4-1.426-.188-1.659a3.528,3.528,0,0,0,.918-2.734A2.188,2.188,0,0,0,11.036,10,2.189,2.189,0,0,0,8.8,12.392a3.524,3.524,0,0,0,.919,2.734c.211.233.29,1.481-.188,1.659-1.7.627-3.048,1.085-3.455,1.715"/><path class="a" d="M23.5,1.5l-2,.583V1.5a1,1,0,0,0-1-1h-6a1,1,0,0,0-1,1v5a1,1,0,0,0,1,1h6a1,1,0,0,0,1-1V5.833l2,.667Z"/></svg>