<svg xmlns="http://www.w3.org/2000/svg" viewBox="0 0 24 24"><defs><style>.a{fill:none;stroke:#000;stroke-linecap:round;stroke-linejoin:round;}</style></defs><title>meeting-smartphone-hold</title><line class="a" x1="12" y1="17.491" x2="1.5" y2="17.491"/><path class="a" d="M8,19.241H8a.25.25,0,0,1,.25.25h0a.25.25,0,0,1-.25.25H8a.25.25,0,0,1-.25-.25h0a.25.25,0,0,1,.25-.25"/><path class="a" d="M12.5,21.491h-9a2,2,0,0,1-2-2v-17a2,2,0,0,1,2-2h9a2,2,0,0,1,2,2V13.265"/><path class="a" d="M22.5,23.487l-3-4.393V13.372c0-2.127-3.46-3.9-5-5.08"/><path class="a" d="M16.5,14.868l-3.727-2.987a1.331,1.331,0,0,0-1.883,1.883l3.61,4.079V20.4c0,1.206,1.724,3.111,1.724,3.111"/><circle class="a" cx="8" cy="5.741" r="2.25"/><path class="a" d="M12.11,11.524a4.628,4.628,0,0,0-8.61.967"/></svg>