<svg xmlns="http://www.w3.org/2000/svg" viewBox="0 0 24 24"><defs><style>.a{fill:none;stroke:#000;stroke-linecap:round;stroke-linejoin:round;}</style></defs><title>meeting-smartphone-hold-1</title><path class="a" d="M22.5,23.487l-3-4.393V13.372c0-2.127-3.46-3.9-5-5.08"/><path class="a" d="M16.5,14.868l-3.727-2.987a1.331,1.331,0,0,0-1.883,1.883l3.61,4.079V20.4c0,1.206,1.724,3.111,1.724,3.111"/><circle class="a" cx="8" cy="8.741" r="2.25"/><path class="a" d="M10.5,12.731a4.642,4.642,0,0,0-7,2.76"/><path class="a" d="M8,21.241H8a.25.25,0,0,1,.25.25h0a.25.25,0,0,1-.25.25H8a.25.25,0,0,1-.25-.25h0a.25.25,0,0,1,.25-.25"/><path class="a" d="M12.5,23.491h-9a2,2,0,0,1-2-2v-19a2,2,0,0,1,2-2h9a2,2,0,0,1,2,2V13.265"/><line class="a" x1="12.5" y1="19.491" x2="1.5" y2="19.491"/><line class="a" x1="14.5" y1="4.491" x2="1.5" y2="4.491"/><line class="a" x1="6.5" y1="2.491" x2="9.5" y2="2.491"/></svg>