<svg xmlns="http://www.w3.org/2000/svg" viewBox="0 0 24 24"><defs><style>.a{fill:none;stroke:#000;stroke-linecap:round;stroke-linejoin:round;}</style></defs><title>meeting-smartphone-message</title><path class="a" d="M23.5,7.5a2,2,0,0,1-2,2h-4l-2,3v-3a2,2,0,0,1-2-2v-5a2,2,0,0,1,2-2h6a2,2,0,0,1,2,2Z"/><line class="a" x1="20.5" y1="3.5" x2="16.5" y2="3.5"/><line class="a" x1="20.5" y1="6.5" x2="16.5" y2="6.5"/><path class="a" d="M15.5,14.5v7a2,2,0,0,1-2,2H2.5a2,2,0,0,1-2-2V4.5a2,2,0,0,1,2-2h9"/><line class="a" x1="15.5" y1="19.5" x2="0.5" y2="19.5"/><path class="a" d="M8,21a.25.25,0,1,1-.25.25A.25.25,0,0,1,8,21"/><line class="a" x1="5.5" y1="4.5" x2="10.5" y2="4.5"/><path class="a" d="M12.963,17c-.408-.63-1.761-1.088-3.455-1.715-.478-.178-.4-1.426-.188-1.659a3.524,3.524,0,0,0,.918-2.734A2.188,2.188,0,0,0,8,8.5a2.188,2.188,0,0,0-2.238,2.392,3.524,3.524,0,0,0,.918,2.734c.212.233.29,1.481-.188,1.659C4.8,15.912,3.445,16.37,3.037,17"/></svg>