<svg xmlns="http://www.w3.org/2000/svg" viewBox="0 0 24 24"><defs><style>.a{fill:none;stroke:#000;stroke-linecap:round;stroke-linejoin:round;}</style></defs><title>meeting-team-laptop-woman</title><path class="a" d="M8.578,20.475a6.163,6.163,0,0,0,4.252-1.128c-.643-.643-1.085-1.047-1.254-3.54-.252-3.716-2.758-5.023-4.911-5.023s-4.66,1.307-4.911,5.023C1.585,18.3,1.143,18.7.5,19.347a6.182,6.182,0,0,0,4.276,1.127"/><path class="a" d="M12.008,23c-.854-.353-1.864-.714-2.961-1.12a.756.756,0,0,1-.493-.708v-1.38a.758.758,0,0,1,.245-.558,2.719,2.719,0,0,0,.888-2.028V15.317a4.9,4.9,0,0,1-3.022-1.709,4.9,4.9,0,0,1-3.022,1.709v1.889a2.719,2.719,0,0,0,.887,2.028.757.757,0,0,1,.246.558v1.38a.755.755,0,0,1-.494.708c-1.1.406-2.106.767-2.96,1.12"/><circle class="a" cx="14.5" cy="4.75" r="1.75"/><path class="a" d="M18,10a3.612,3.612,0,0,0-7,0"/><path class="a" d="M21.5,12V2a1,1,0,0,0-1-1H7.5a1,1,0,0,0-1,1V8.5"/><path class="a" d="M13,12H23.5a2,2,0,0,1-2,2H13"/></svg>