<svg xmlns="http://www.w3.org/2000/svg" viewBox="0 0 24 24"><defs><style>.a{fill:none;stroke:#000;stroke-linecap:round;stroke-linejoin:round;}</style></defs><title>messaging-line-app</title><path class="a" d="M23.5,10.882c0,5.181-5.148,9.383-11.5,9.383a13.835,13.835,0,0,1-3.851-.539.5.5,0,0,0-.35.026L2.663,22.143a.5.5,0,0,1-.658-.677l1.768-3.529a.5.5,0,0,0-.122-.6A8.529,8.529,0,0,1,.5,10.882C.5,5.7,5.648,1.5,12,1.5S23.5,5.7,23.5,10.882Z"/><line class="a" x1="9.5" y1="7.5" x2="9.5" y2="13.5"/><polyline class="a" points="11.5 13.5 11.5 7.5 15.5 13.5 15.5 7.5"/><polyline class="a" points="20.5 13.5 17.5 13.5 17.5 7.5 20.5 7.5"/><line class="a" x1="17.5" y1="10.5" x2="20.5" y2="10.5"/><polyline class="a" points="4.5 7.5 4.5 13.5 7.5 13.5"/></svg>