<svg xmlns="http://www.w3.org/2000/svg" viewBox="0 0 24 24"><defs><style>.a{fill:none;stroke:#000;stroke-linecap:round;stroke-linejoin:round;}</style></defs><title>messaging-line-app-1</title><path class="a" d="M21,11.843c0,4.054-4.029,7.343-9,7.343a10.8,10.8,0,0,1-2.976-.412.5.5,0,0,0-.349.028l-3.7,1.722a.5.5,0,0,1-.658-.677l1.206-2.408a.5.5,0,0,0-.117-.6,6.655,6.655,0,0,1-2.406-5C3,7.788,7.029,4.5,12,4.5S21,7.788,21,11.843Z"/><line class="a" x1="9.5" y1="9.5" x2="9.5" y2="13.5"/><polyline class="a" points="11.5 13.5 11.5 9.5 14.5 13.5 14.5 9.5"/><polyline class="a" points="18.294 13.5 16.5 13.5 16.5 9.5 18.294 9.5"/><line class="a" x1="16.5" y1="11.5" x2="18" y2="11.5"/><polyline class="a" points="5.5 9.5 5.5 13.5 7.5 13.5"/><rect class="a" x="0.5" y="0.5" width="23" height="23" rx="4" ry="4"/></svg>