<svg xmlns="http://www.w3.org/2000/svg" viewBox="0 0 24 24"><defs><style>.a{fill:none;stroke:#000;stroke-linecap:round;stroke-linejoin:round;}</style></defs><title>mobile-shopping-shop</title><line class="a" x1="13.5" y1="19.5" x2="0.5" y2="19.5"/><path class="a" d="M7,21.25H7a.25.25,0,0,1,.25.25h0a.25.25,0,0,1-.25.25H7a.25.25,0,0,1-.25-.25h0A.25.25,0,0,1,7,21.25"/><path class="a" d="M13.5,15.5v6a2,2,0,0,1-2,2h-9a2,2,0,0,1-2-2V2.5a2,2,0,0,1,2-2H10"/><path class="a" d="M22.5,6.415V11.5a1,1,0,0,1-1,1h-8a1,1,0,0,1-1-1V6.415"/><path class="a" d="M11.724,3.053A2.117,2.117,0,0,0,11.5,4V5a1.5,1.5,0,0,0,3,0,1.5,1.5,0,0,0,3,0,1.5,1.5,0,0,0,3,0,1.5,1.5,0,0,0,3,0V4a2.117,2.117,0,0,0-.224-.947L22.224.947A.81.81,0,0,0,21.5.5h-8a.81.81,0,0,0-.724.447Z"/><line class="a" x1="18.5" y1="6.415" x2="18.5" y2="12.5"/><line class="a" x1="12.5" y1="10.5" x2="18.5" y2="10.5"/></svg>