<svg xmlns="http://www.w3.org/2000/svg" viewBox="0 0 24 24"><defs><style>.a{fill:none;stroke:#000;stroke-linecap:round;stroke-linejoin:round;}</style></defs><title>mobile-shopping-cart</title><path class="a" d="M9.75,21.25h0a.25.25,0,0,1,.25.25h0a.25.25,0,0,1-.25.25h0a.25.25,0,0,1-.25-.25h0a.25.25,0,0,1,.25-.25"/><path class="a" d="M3.25,6.5v-4A1.973,1.973,0,0,1,5.194.5H9.75"/><path class="a" d="M16.25,6.5v-4a2.02,2.02,0,0,0-2-2h-5"/><path class="a" d="M16.25,16.5V22c0,1.105-1.232,1.5-2.306,1.5H5.194a1.973,1.973,0,0,1-1.944-2V6.5"/><line class="a" x1="16.25" y1="19.5" x2="3.25" y2="19.5"/><line class="a" x1="16.25" y1="4.5" x2="3.25" y2="4.5"/><line class="a" x1="8.25" y1="2.5" x2="11.75" y2="2.5"/><path class="a" d="M20.75,7l-1.88,5.171a.5.5,0,0,1-.47.329H14.821a.5.5,0,0,1-.459-.3l-1.072-3a.5.5,0,0,1,.46-.7H20.2"/><path class="a" d="M15.5,14a.25.25,0,1,1-.25.25A.25.25,0,0,1,15.5,14"/><path class="a" d="M18,14a.25.25,0,1,1-.25.25A.25.25,0,0,1,18,14"/></svg>