<svg xmlns="http://www.w3.org/2000/svg" viewBox="0 0 24 24"><defs><style>.a{fill:none;stroke:#000;stroke-linecap:round;stroke-linejoin:round;}</style></defs><title>mobile-shopping-shop-hand</title><line class="a" x1="8.5" y1="12" x2="8.5" y2="8.5"/><path class="a" d="M21.5,8.5v13a2,2,0,0,1-2,2h-9a2,2,0,0,1-2-2V16"/><line class="a" x1="21.5" y1="4.5" x2="8.5" y2="4.5"/><line class="a" x1="21.5" y1="19.5" x2="8.5" y2="19.5"/><path class="a" d="M15,21.251h0a.25.25,0,0,1,.25.25h0a.25.25,0,0,1-.25.25h0a.249.249,0,0,1-.25-.25h0a.249.249,0,0,1,.25-.25"/><path class="a" d="M21.776,1.053A1,1,0,0,0,20.882.5H9.118a1,1,0,0,0-.895.553L6.5,4.5h17Z"/><path class="a" d="M15,4.5H6.5v1a2.863,2.863,0,0,0,5,2A4.219,4.219,0,0,0,15,9.492,4.22,4.22,0,0,0,18.5,7.5a2.863,2.863,0,0,0,5-2v-1Z"/><polyline class="a" points="11.5 7.5 11.5 4.5 12.5 0.5"/><polyline class="a" points="18.5 7.5 18.5 4.5 17.5 0.5"/><path class="a" d="M13.5,13.5h4.24a.5.5,0,0,1,.47.671l-1.091,3a.5.5,0,0,1-.47.329H13.071a.5.5,0,0,1-.46-.3l-.465-1.3"/><line class="a" x1="17.5" y1="13.5" x2="16.5" y2="12"/><path class="a" d="M8.5,16h3a2,2,0,0,0,0-4H6"/><path class="a" d="M6.5,18.967A3.2,3.2,0,0,0,8.5,16"/><path class="a" d="M6.906,7H6.5a6,6,0,0,0-6,6v5.546c0,1.513.672,2.23,2,2.954v2"/></svg>