<svg xmlns="http://www.w3.org/2000/svg" viewBox="0 0 24 24"><defs><style>.a{fill:none;stroke:#000;stroke-linecap:round;stroke-linejoin:round;}</style></defs><title>mobile-shopping-shop-basket</title><path class="a" d="M18.5,8.339V21.5a2,2,0,0,1-2,2h-9a2,2,0,0,1-2-2V8.339"/><line class="a" x1="18.5" y1="4.5" x2="5.5" y2="4.5"/><line class="a" x1="18.5" y1="19.5" x2="5.5" y2="19.5"/><path class="a" d="M12,21.251h0a.25.25,0,0,1,.25.25h0a.25.25,0,0,1-.25.25h0a.25.25,0,0,1-.25-.25h0a.25.25,0,0,1,.25-.25"/><path class="a" d="M18.776,1.053A1,1,0,0,0,17.882.5H6.118a1,1,0,0,0-.894.553L3.5,4.5h17Z"/><path class="a" d="M12,4.5H3.5v1a2.863,2.863,0,0,0,5,2A4.22,4.22,0,0,0,12,9.492,4.22,4.22,0,0,0,15.5,7.5a2.863,2.863,0,0,0,5-2v-1Z"/><polyline class="a" points="8.5 7.5 8.5 4.5 9.5 0.5"/><polyline class="a" points="15.5 7.5 15.5 4.5 14.5 0.5"/><path class="a" d="M14.741,13.5a.5.5,0,0,1,.47.671l-1.091,3a.5.5,0,0,1-.47.329H10.071a.5.5,0,0,1-.459-.3l-1.072-3A.5.5,0,0,1,9,13.5Z"/><line class="a" x1="9.5" y1="13.5" x2="10.5" y2="12"/><line class="a" x1="14.5" y1="13.5" x2="13.5" y2="12"/></svg>