<svg xmlns="http://www.w3.org/2000/svg" viewBox="0 0 24 24"><defs><style>.a{fill:none;stroke:#000;stroke-linecap:round;stroke-linejoin:round;}</style></defs><title>modern-weapon-machine-gun-1</title><path class="a" d="M7.482,17.329,4.3,23.237a.5.5,0,0,1-.794.117L1.336,21.182a.5.5,0,0,1,0-.707l4.646-4.646"/><path class="a" d="M13.521,6.345a.5.5,0,0,0-.712,0l-6.542,6.69a1,1,0,0,0-.285.7v2.093l1.5,1.5L15.63,9.181a.5.5,0,0,0,0-.706Z"/><line class="a" x1="15.484" y1="8.326" x2="22.811" y2="1"/><line class="a" x1="21.232" y1="2.579" x2="19.153" y2="0.5"/><path class="a" d="M13.991,6.819l1.7-1.7a1,1,0,0,1,.707-.293h2.586"/><path class="a" d="M12.129,17.975a.5.5,0,0,1,0,.707l-1.293,1.293a.5.5,0,0,1-.707,0L7.482,17.329l2-2Z"/><path class="a" d="M14.414,10.4a6.856,6.856,0,0,0,3.9,2.038.5.5,0,0,1,.278.847l-1.205,1.205a.5.5,0,0,1-.37.146,6.842,6.842,0,0,1-4.726-2.115"/><line class="a" x1="8.301" y1="13.679" x2="9.301" y2="12.679"/></svg>