<svg xmlns="http://www.w3.org/2000/svg" viewBox="0 0 24 24"><defs><style>.a{fill:none;stroke:#000;stroke-linecap:round;stroke-linejoin:round;}</style></defs><title>modern-weapon-tank-1</title><rect class="a" x="10.5" y="4" width="8" height="6" rx="0.5" ry="0.5"/><line class="a" x1="16.5" y1="10" x2="16.5" y2="19"/><line class="a" x1="12.5" y1="19" x2="12.5" y2="10"/><path class="a" d="M22.5,8V7a2,2,0,0,0-2-2h-2"/><polyline class="a" points="10.5 5 1.5 5 1.5 8 10.5 8"/><line class="a" x1="1.5" y1="4" x2="1.5" y2="5"/><line class="a" x1="12.5" y1="7.5" x2="12.5" y2="6.5"/><line class="a" x1="14.5" y1="7.5" x2="14.5" y2="6.5"/><line class="a" x1="12.5" y1="12" x2="16.5" y2="12"/><line class="a" x1="12.5" y1="14" x2="16.5" y2="14"/><line class="a" x1="12.5" y1="16" x2="16.5" y2="16"/><line class="a" x1="12.5" y1="18" x2="16.5" y2="18"/><path class="a" d="M5.5,20a1.767,1.767,0,0,1,.857-1.514L10.5,16"/><path class="a" d="M23.5,20a1.767,1.767,0,0,0-.857-1.514L18.5,16"/><line class="a" x1="1.5" y1="6.5" x2="0.5" y2="6.5"/></svg>