<svg xmlns="http://www.w3.org/2000/svg" viewBox="0 0 24 24"><defs><style>.a{fill:none;stroke:#000;stroke-linecap:round;stroke-linejoin:round;}</style></defs><title>modern-weapon-machine-gun</title><line class="a" x1="0.5" y1="19.5" x2="4.5" y2="23.5"/><rect class="a" x="-0.476" y="12.901" width="20.323" height="2.828" transform="translate(-7.285 11.041) rotate(-45)"/><line class="a" x1="14.871" y1="5.129" x2="18.871" y2="9.129"/><path class="a" d="M15.871,6.129l.785-.785a1,1,0,0,0,.274-.511l.333-1.664a1,1,0,0,1,.621-.737L22.82.533a.5.5,0,0,1,.647.647l-1.9,4.936a1,1,0,0,1-.737.621l-1.664.333a1,1,0,0,0-.511.274l-.785.785Z"/><path class="a" d="M7,19l2.146,2.146a.5.5,0,0,0,.708,0l.792-.792a.5.5,0,0,0,0-.708L8.5,17.5"/><path class="a" d="M11.5,14.5l3.146,3.146a.5.5,0,0,0,.708,0l.792-.792a.5.5,0,0,0,0-.708L13,13"/><path class="a" d="M15,11l1.207,1.207a1,1,0,0,0,.707.293H18"/><line class="a" x1="7.5" y1="14.5" x2="6" y2="13"/><line class="a" x1="13" y1="9" x2="11.5" y2="7.5"/></svg>