<svg xmlns="http://www.w3.org/2000/svg" viewBox="0 0 24 24"><defs><style>.a{fill:none;stroke:#000;stroke-linecap:round;stroke-linejoin:round;}</style></defs><title>modern-architecture-building-1</title><line class="a" x1="0.5" y1="22.5" x2="23.5" y2="22.5"/><path class="a" d="M15.5,16.5h-6a1,1,0,0,1-1-1v-8"/><line class="a" x1="2.5" y1="7.5" x2="2.5" y2="22.5"/><path class="a" d="M21.5,22.5V2a.5.5,0,0,0-.5-.5H3a.5.5,0,0,0-.5.5V7.5h12a1,1,0,0,1,1,1v14"/><line class="a" x1="17.5" y1="7.5" x2="19.5" y2="7.5"/><line class="a" x1="17.5" y1="9.5" x2="19.5" y2="9.5"/><line class="a" x1="17.5" y1="11.5" x2="19.5" y2="11.5"/><line class="a" x1="17.5" y1="13.5" x2="19.5" y2="13.5"/><line class="a" x1="4.5" y1="10.5" x2="6.5" y2="10.5"/><line class="a" x1="4.5" y1="12.5" x2="6.5" y2="12.5"/><line class="a" x1="4.5" y1="14.5" x2="6.5" y2="14.5"/><line class="a" x1="4.5" y1="16.5" x2="6.5" y2="16.5"/><line class="a" x1="17.5" y1="15.5" x2="19.5" y2="15.5"/><line class="a" x1="17.5" y1="17.5" x2="19.5" y2="17.5"/><line class="a" x1="17.5" y1="19.5" x2="19.5" y2="19.5"/><path class="a" d="M6,19.5H9a.5.5,0,0,1,.5.5v2.5a0,0,0,0,1,0,0h-4a0,0,0,0,1,0,0V20A.5.5,0,0,1,6,19.5Z"/></svg>