<svg xmlns="http://www.w3.org/2000/svg" viewBox="0 0 24 24"><defs><style>.a{fill:none;stroke:#000;stroke-linecap:round;stroke-linejoin:round;}</style></defs><title>modern-architecture-building-2</title><line class="a" x1="7.528" y1="5.5" x2="16.472" y2="5.5"/><path class="a" d="M8.336,23.5a.5.5,0,0,1-.466-.318A29.363,29.363,0,0,1,6,13,20.247,20.247,0,0,1,10.345.683.5.5,0,0,1,10.731.5h2.538a.5.5,0,0,1,.386.183A20.247,20.247,0,0,1,18,13a29.363,29.363,0,0,1-1.87,10.182.5.5,0,0,1-.466.318Z"/><path class="a" d="M14.1,1.251A10.258,10.258,0,0,1,9,5.5"/><path class="a" d="M10.689,5.5a24.018,24.018,0,0,0,7.285,8.676"/><path class="a" d="M17.274,19.358A24.387,24.387,0,0,1,7.018,6.855"/><path class="a" d="M6.025,14.143A23.55,23.55,0,0,0,15.018,23.5"/><path class="a" d="M13.311,5.5a24.018,24.018,0,0,1-7.285,8.676"/><path class="a" d="M6.726,19.358a24.387,24.387,0,0,0,10.256-12.5"/><path class="a" d="M17.975,14.143A23.547,23.547,0,0,1,8.981,23.5"/></svg>