<svg xmlns="http://www.w3.org/2000/svg" viewBox="0 0 24 24"><defs><style>.a{fill:none;stroke:#000;stroke-linecap:round;stroke-linejoin:round;}</style></defs><title>modern-weapon-tank-machine-gun</title><path class="a" d="M10.5,19.25a.25.25,0,0,1,.25.25"/><path class="a" d="M10.25,19.5a.25.25,0,0,1,.25-.25"/><path class="a" d="M10.5,19.75a.25.25,0,0,1-.25-.25"/><path class="a" d="M10.75,19.5a.25.25,0,0,1-.25.25"/><line class="a" x1="0.5" y1="22.5" x2="7.626" y2="20.362"/><path class="a" d="M13.5,19.5h4.172a2,2,0,0,1,1.414.586L21.5,22.5"/><path class="a" d="M12.621,17.379l3.172-3.172a1,1,0,0,0,0-1.414l-1.379-1.379a2,2,0,0,0-2.828,0L7.354,15.646a.5.5,0,0,0,0,.708l1.025,1.025"/><line class="a" x1="13.938" y1="11.062" x2="19.5" y2="5.5"/><path class="a" d="M19.5,3.5a1.414,1.414,0,0,0,2,2l1.854-1.854a.5.5,0,0,0,0-.707L22.061,1.646a.5.5,0,0,0-.707,0Z"/><path class="a" d="M8,15l-.086-.086a2,2,0,0,1,0-2.828L9,11"/><circle class="a" cx="10.5" cy="19.5" r="3"/></svg>