<svg xmlns="http://www.w3.org/2000/svg" viewBox="0 0 24 24"><defs><style>.a{fill:none;stroke:#000;stroke-linecap:round;stroke-linejoin:round;}</style></defs><title>modern-weapon-gun-1</title><path class="a" d="M13.5,11.5l-.772,2.316a1,1,0,0,1-.949.684H8.667"/><path class="a" d="M19,5.5h3.5A.5.5,0,0,1,23,6V7a.5.5,0,0,1-.5.5H19"/><circle class="a" cx="13" cy="6.5" r="1"/><line class="a" x1="12" y1="6.5" x2="9" y2="6.5"/><path class="a" d="M18.5,1.5H17.309a.5.5,0,0,0-.447.276L16,3.5H6v-1a1,1,0,0,0-1-1H2.309a.5.5,0,0,0-.447.276L1.053,3.394A.5.5,0,0,0,1,3.618V9.779a1,1,0,0,0,.684.949L4,11.5l-1,9H8l1-9h8a2,2,0,0,0,2-2V2A.5.5,0,0,0,18.5,1.5Z"/><line class="a" x1="8" y1="20.5" x2="9.5" y2="20.5"/><path class="a" d="M7,20.5V22a.5.5,0,0,1-.5.5h-2A.5.5,0,0,1,4,22V20.5"/><line class="a" x1="1" y1="9.5" x2="19" y2="9.5"/></svg>