<svg xmlns="http://www.w3.org/2000/svg" viewBox="0 0 24 24"><defs><style>.a{fill:none;stroke:#000;stroke-linecap:round;stroke-linejoin:round;}</style></defs><title>money-bag-euro</title><line class="a" x1="8.504" y1="8.077" x2="15.504" y2="8.077"/><path class="a" d="M15.739,2.374a.5.5,0,0,0-.637-.7l-2.1.9-.535-1.34a.5.5,0,0,0-.929,0L11,2.577l-2.1-.9a.5.5,0,0,0-.637.7A10.375,10.375,0,0,1,9.476,5.639a.5.5,0,0,0,.5.438h4.065a.5.5,0,0,0,.5-.438A10.326,10.326,0,0,1,15.739,2.374Z"/><path class="a" d="M14.921,10.18a.5.5,0,0,0-.3-.1H9.39a.5.5,0,0,0-.3.1C6.923,11.834,4.5,15.036,4.5,17.577c0,3.591,2,5.5,7.5,5.5s7.5-1.909,7.5-5.5C19.5,15.036,17.087,11.834,14.921,10.18Z"/><path class="a" d="M13,20.077a2.707,2.707,0,0,1-3-3,2.707,2.707,0,0,1,3-3"/><line class="a" x1="9.004" y1="16.077" x2="13.004" y2="16.077"/><line class="a" x1="9.004" y1="18.077" x2="12.004" y2="18.077"/></svg>