<svg xmlns="http://www.w3.org/2000/svg" viewBox="0 0 24 24"><defs><style>.a{fill:none;stroke:#000;stroke-linecap:round;stroke-linejoin:round;}</style></defs><title>monetization-structure</title><path class="a" d="M4,17.5V14a.5.5,0,0,1,.5-.5h15a.5.5,0,0,1,.5.5v3.5"/><line class="a" x1="12.004" y1="10.5" x2="12.004" y2="17.5"/><circle class="a" cx="12.004" cy="5.5" r="5"/><line class="a" x1="12.004" y1="7.5" x2="12.004" y2="8.5"/><line class="a" x1="12.004" y1="2.5" x2="12.004" y2="3.5"/><path class="a" d="M10,7.5h3a1,1,0,0,0,0-2H11a1,1,0,0,1,0-2h3"/><circle class="a" cx="4.004" cy="20.5" r="3"/><rect class="a" x="9.004" y="17.5" width="6" height="6"/><polygon class="a" points="20.004 17.5 17.004 23.5 23.004 23.5 20.004 17.5"/></svg>