<svg xmlns="http://www.w3.org/2000/svg" viewBox="0 0 24 24"><defs><style>.a{fill:none;stroke:#000;stroke-linecap:round;stroke-linejoin:round;}</style></defs><title>monetization-user-coins</title><line class="a" x1="10.504" y1="4.5" x2="13.504" y2="4.5"/><path class="a" d="M17,23.5V23A5,5,0,0,0,7,23v.5"/><path class="a" d="M13.171,13a5.805,5.805,0,0,0,2.286-.467A3.478,3.478,0,0,0,9,11.234,5.809,5.809,0,0,0,13.171,13Z"/><circle class="a" cx="12.004" cy="13" r="3.5"/><path class="a" d="M5.5,2.5H4.148a.895.895,0,0,0-.332,1.725l1.376.55A.895.895,0,0,1,4.859,6.5H3.5"/><line class="a" x1="4.504" y1="2.5" x2="4.504" y2="2"/><line class="a" x1="4.504" y1="7" x2="4.504" y2="6.5"/><circle class="a" cx="4.504" cy="4.5" r="4"/><path class="a" d="M20.5,2.5H19.148a.895.895,0,0,0-.332,1.725l1.376.55A.895.895,0,0,1,19.859,6.5H18.5"/><line class="a" x1="19.504" y1="2.5" x2="19.504" y2="2"/><line class="a" x1="19.504" y1="7" x2="19.504" y2="6.5"/><circle class="a" cx="19.504" cy="4.5" r="4"/></svg>