<svg xmlns="http://www.w3.org/2000/svg" viewBox="0 0 24 24"><defs><style>.a{fill:none;stroke:#000;stroke-linecap:round;stroke-linejoin:round;}</style></defs><title>monetization-mouse</title><path class="a" d="M23.5,18a5.5,5.5,0,0,1-11,0V7.5a3,3,0,0,1,3-3h5a3,3,0,0,1,3,3Z"/><line class="a" x1="18.004" y1="4.5" x2="18.004" y2="8.5"/><path class="a" d="M19,11.5a1,1,0,0,1-2,0v-2a1,1,0,0,1,2,0Z"/><line class="a" x1="10.504" y1="6.5" x2="8.504" y2="6.5"/><line class="a" x1="11.675" y1="3.672" x2="10.261" y2="2.257"/><line class="a" x1="14.504" y1="2.5" x2="14.504" y2="0.5"/><path class="a" d="M8,11H5.971a1.342,1.342,0,0,0-.5,2.587l2.064.826A1.342,1.342,0,0,1,7.037,17H5"/><line class="a" x1="6.504" y1="18" x2="6.504" y2="17"/><line class="a" x1="6.504" y1="11" x2="6.504" y2="10"/><path class="a" d="M10.555,9.574a6,6,0,1,0-.044,8.892"/></svg>