<svg xmlns="http://www.w3.org/2000/svg" viewBox="0 0 24 24"><defs><style>.a{fill:none;stroke:#000;stroke-linecap:round;stroke-linejoin:round;}</style></defs><title>monetization-dollar-bill-magnet</title><rect class="a" x="4.504" y="0.5" width="15" height="8"/><line class="a" x1="7.504" y1="11.5" x2="7.504" y2="10.5"/><line class="a" x1="9.504" y1="11.5" x2="9.504" y2="10.5"/><line class="a" x1="14.504" y1="11.5" x2="14.504" y2="10.5"/><line class="a" x1="16.504" y1="11.5" x2="16.504" y2="10.5"/><line class="a" x1="6.504" y1="16.5" x2="10.504" y2="16.5"/><line class="a" x1="13.504" y1="16.5" x2="17.504" y2="16.5"/><path class="a" d="M13.5,18.5a1.5,1.5,0,0,1-3,0v-4a1.031,1.031,0,0,0-1-1h-2a1.031,1.031,0,0,0-1,1v4c0,3.313,2.462,5,5.5,5s5.5-1.687,5.5-5v-4a1.031,1.031,0,0,0-1-1h-2a1.031,1.031,0,0,0-1,1Z"/><line class="a" x1="11.504" y1="6.5" x2="11.504" y2="7.5"/><line class="a" x1="11.504" y1="1.5" x2="11.504" y2="2.5"/><path class="a" d="M9.5,6.5h3a1,1,0,0,0,0-2h-2a1,1,0,0,1,0-2h3"/></svg>