<svg xmlns="http://www.w3.org/2000/svg" viewBox="0 0 24 24"><defs><style>.a{fill:none;stroke:#000;stroke-linecap:round;stroke-linejoin:round;}</style></defs><title>monetization-touch-coin</title><path class="a" d="M10.254,22.837,7.947,20.3a1.5,1.5,0,1,1,2.307-1.918l2,2.286V12.836a1.5,1.5,0,0,1,3,0v4.5h3a4,4,0,0,1,4,4v1.5"/><path class="a" d="M8.754,15.163a7,7,0,1,1,7-7"/><line class="a" x1="8.754" y1="10.163" x2="8.754" y2="11.163"/><line class="a" x1="8.754" y1="5.163" x2="8.754" y2="6.163"/><path class="a" d="M6.754,10.163h3a1,1,0,1,0,0-2h-2a1,1,0,0,1,0-2h3"/></svg>