<svg xmlns="http://www.w3.org/2000/svg" viewBox="0 0 24 24"><defs><style>.a{fill:none;stroke:#000;stroke-linecap:round;stroke-linejoin:round;}</style></defs><title>monetization-user-monitor-1</title><line class="a" x1="6.254" y1="11" x2="6.254" y2="14"/><path class="a" d="M8.254,23.5l.5-6h2.5V14a5,5,0,0,0-10,0v3.5h2.5l.5,6Z"/><path class="a" d="M7.421,4a5.805,5.805,0,0,0,2.286-.467,3.478,3.478,0,0,0-6.459-1.3A5.809,5.809,0,0,0,7.421,4Z"/><circle class="a" cx="6.254" cy="4" r="3.5"/><path class="a" d="M11.754,2.5h10a1.461,1.461,0,0,1,1.5,1.5v7a1.461,1.461,0,0,1-1.5,1.5h-8"/><line class="a" x1="16.754" y1="12.5" x2="16.754" y2="15.5"/><line class="a" x1="13.754" y1="15.5" x2="20.254" y2="15.5"/><line class="a" x1="16.754" y1="9.5" x2="16.754" y2="10.5"/><line class="a" x1="16.754" y1="4.5" x2="16.754" y2="5.5"/><path class="a" d="M14.754,9.5h3a1,1,0,0,0,0-2h-2a1,1,0,1,1,0-2h3"/></svg>