<svg xmlns="http://www.w3.org/2000/svg" viewBox="0 0 24 24"><defs><style>.a{fill:none;stroke:#000;stroke-linecap:round;stroke-linejoin:round;}</style></defs><title>monetization-touch-browser</title><line class="a" x1="0.504" y1="4.749" x2="20.504" y2="4.749"/><path class="a" d="M3.254,2.5a.25.25,0,1,0,.25.25.25.25,0,0,0-.25-.25h0"/><path class="a" d="M5.754,2.5a.25.25,0,1,0,.25.25.25.25,0,0,0-.25-.25h0"/><path class="a" d="M8.254,2.5a.25.25,0,1,0,.25.25.25.25,0,0,0-.25-.25h0"/><path class="a" d="M10,15.749H2.5a2,2,0,0,1-2-2v-11a2,2,0,0,1,2-2h16a2,2,0,0,1,2,2v9.5"/><path class="a" d="M11.5,23.251,9.2,20.708A1.5,1.5,0,0,1,11.5,18.79l2,2.287V13.249a1.5,1.5,0,0,1,3,0v4.5h3a4,4,0,0,1,4,4v1.5"/><path class="a" d="M11.816,7.749H10.122A1.118,1.118,0,0,0,9.707,9.9l1.719.688a1.118,1.118,0,0,1-.415,2.156H9.316"/><line class="a" x1="10.504" y1="13.749" x2="10.504" y2="12.749"/><line class="a" x1="10.504" y1="7.749" x2="10.504" y2="6.749"/></svg>