<svg id="Light" xmlns="http://www.w3.org/2000/svg" viewBox="0 0 24 24"><defs><style>.cls-1{fill:none;stroke:#000;stroke-linecap:round;stroke-linejoin:round;}</style></defs><title>monitor-heart-notes</title><path class="cls-1" d="M4.5,14.5H6.75a.5.5,0,0,0,.4-.2l.926-1.235a.5.5,0,0,1,.816.023l1.13,1.7a.5.5,0,0,0,.863-.054l1.54-3.079a.5.5,0,0,1,.928.086l1.294,4.528a.5.5,0,0,0,.928.086l.787-1.574a.5.5,0,0,1,.447-.276H19.5"/><path class="cls-1" d="M16.5,3.5h4a1,1,0,0,1,1,1v18a1,1,0,0,1-1,1H3.5a1,1,0,0,1-1-1V4.5a1,1,0,0,1,1-1h4"/><path class="cls-1" d="M14,2.5a2,2,0,0,0-4,0H8a.5.5,0,0,0-.5.5V6a.5.5,0,0,0,.5.5h8a.5.5,0,0,0,.5-.5V3a.5.5,0,0,0-.5-.5Z"/><path class="cls-1" d="M19.5,12.564V6a.5.5,0,0,0-.5-.5H16.5"/><path class="cls-1" d="M4.5,16.564V20a.5.5,0,0,0,.5.5H19a.5.5,0,0,0,.5-.5V16.5"/><path class="cls-1" d="M7.5,5.5H5a.5.5,0,0,0-.5.5v6.564"/></svg>