<svg id="Light" xmlns="http://www.w3.org/2000/svg" viewBox="0 0 24 24"><defs><style>.cls-1{fill:none;stroke:#000;stroke-linecap:round;stroke-linejoin:round;}</style></defs><title>monitor-heart-rate-up</title><path class="cls-1" d="M.5,23.5l9.293-9.293a1,1,0,0,1,1.414,0l3.086,3.086a1,1,0,0,0,1.414,0L23.5,9.5"/><polyline class="cls-1" points="16.5 9.5 23.5 9.5 23.5 16.5"/><g id="New_Symbol_8" data-name="New Symbol 8"><path class="cls-1" d="M6.5,11,1.386,5.665A3.025,3.025,0,0,1,.819,2.173h0a3.026,3.026,0,0,1,4.846-.786l.835.835.835-.835a3.026,3.026,0,0,1,4.846.786h0a3.025,3.025,0,0,1-.567,3.492Z"/></g></svg>