<svg id="Light" xmlns="http://www.w3.org/2000/svg" viewBox="0 0 24 24"><defs><style>.cls-1{fill:none;stroke:#000;stroke-linecap:round;stroke-linejoin:round;}</style></defs><title>monitor-heart-beat-search</title><path class="cls-1" d="M3.748,7.516a8,8,0,1,1,.014,4.021"/><line class="cls-1" x1="16.634" y1="15.636" x2="23.5" y2="22.5"/><path class="cls-1" d="M.5,9.5H6.212a.5.5,0,0,0,.432-.25L7.926,7.034a.5.5,0,0,1,.911.1l1.3,4.212a.5.5,0,0,0,.925.076l1.557-3.113a.5.5,0,0,1,.863-.054l1.137,1.706a.5.5,0,0,0,.811.03L16.979,8"/></svg>