<svg id="Light" xmlns="http://www.w3.org/2000/svg" viewBox="0 0 24 24"><defs><style>.cls-1{fill:none;stroke:#000;stroke-linecap:round;stroke-linejoin:round;}</style></defs><title>monkey-1</title><path class="cls-1" d="M8,7.75A.25.25,0,0,1,8.25,8"/><path class="cls-1" d="M7.75,8A.25.25,0,0,1,8,7.75"/><path class="cls-1" d="M8,8.25A.25.25,0,0,1,7.75,8"/><path class="cls-1" d="M8.25,8A.25.25,0,0,1,8,8.25"/><path class="cls-1" d="M8,5.5A2.5,2.5,0,0,1,10.5,8"/><path class="cls-1" d="M5.5,8A2.5,2.5,0,0,1,8,5.5"/><path class="cls-1" d="M8,10.5A2.5,2.5,0,0,1,5.5,8"/><path class="cls-1" d="M10.5,8A2.5,2.5,0,0,1,8,10.5"/><path class="cls-1" d="M7,18.5a7.651,7.651,0,0,0,5,2"/><path class="cls-1" d="M17,18.5a7.651,7.651,0,0,1-5,2"/><path class="cls-1" d="M17.148,20.7A2.581,2.581,0,0,0,17,18.5c-1.7-3.406-.5-5,2-7.5,3-3,1-8.5-2.5-8.5-2,0-2.5,1-4.5,1s-2.5-1-4.5-1C4,2.5,2,8,5,11c2.5,2.5,3.7,4.094,2,7.5a2.577,2.577,0,0,0-.139,2.219"/><path class="cls-1" d="M16,7.75a.25.25,0,0,0-.25.25"/><path class="cls-1" d="M16.25,8A.25.25,0,0,0,16,7.75"/><path class="cls-1" d="M16,8.25A.25.25,0,0,0,16.25,8"/><path class="cls-1" d="M15.75,8a.25.25,0,0,0,.25.25"/><path class="cls-1" d="M16,5.5A2.5,2.5,0,0,0,13.5,8"/><path class="cls-1" d="M18.5,8A2.5,2.5,0,0,0,16,5.5"/><path class="cls-1" d="M16,10.5A2.5,2.5,0,0,0,18.5,8"/><path class="cls-1" d="M13.5,8A2.5,2.5,0,0,0,16,10.5"/><path class="cls-1" d="M13,11l1,5s0,1.5-2,1.5S10,16,10,16l1-5"/><path class="cls-1" d="M12,23.5C18.5,23.5,23.5,21,23.5,9,23.5,4,20,.5,17,.5H7C4,.5.5,4,.5,9,.5,21,5.5,23.5,12,23.5Z"/></svg>