<svg id="Light" xmlns="http://www.w3.org/2000/svg" viewBox="0 0 24 24"><defs><style>.cls-1{fill:none;stroke:#000;stroke-linecap:round;stroke-linejoin:round;}</style></defs><title>moose</title><path class="cls-1" d="M12.5,23.5a7.622,7.622,0,0,1-7.5-5s3.265-5.4,5.3-8.05A1.885,1.885,0,0,1,12,9.5c.921,0,1.058.273,2,1,2.521,1.945,6.391,4.71,4,7.5-2.751,3.21-5.5-2.391-5.5,0Z"/><path class="cls-1" d="M13.75,13a.25.25,0,0,1,.25.25"/><path class="cls-1" d="M13.5,13.25a.25.25,0,0,1,.25-.25"/><path class="cls-1" d="M13.75,13.5a.25.25,0,0,1-.25-.25"/><path class="cls-1" d="M14,13.25a.25.25,0,0,1-.25.25"/><path class="cls-1" d="M14,10.5h5.5a4,4,0,0,0,4-4V2a1.5,1.5,0,0,0-3,0V6a1.5,1.5,0,0,1-3,0V3.5a1,1,0,0,0-2,0v3a1,1,0,0,1-1,1h-5a1,1,0,0,1-1-1v-3a1,1,0,0,0-2,0V6a1.5,1.5,0,0,1-3,0V2a1.5,1.5,0,0,0-3,0V6.5a4,4,0,0,0,4,4h5.764l.039-.05"/></svg>