<svg id="Light" xmlns="http://www.w3.org/2000/svg" viewBox="0 0 24 24"><defs><style>.cls-1{fill:none;stroke:#000;stroke-linecap:round;stroke-linejoin:round;}</style></defs><title>mortar-pestle</title><path class="cls-1" d="M1.5,9.5a1,1,0,0,0,0,2,1.05,1.05,0,0,1,1.046.947,10.328,10.328,0,0,0,5.127,7.985.5.5,0,0,1-.05.9,6.588,6.588,0,0,0-2.156,1.312.5.5,0,0,0,.355.852H18.178a.5.5,0,0,0,.355-.852,6.6,6.6,0,0,0-2.157-1.312.5.5,0,0,1-.05-.9,10.33,10.33,0,0,0,5.128-7.981A1.051,1.051,0,0,1,22.5,11.5a1,1,0,0,0,0-2Z"/><path class="cls-1" d="M17.794,7.5C21.924,1.74,22.219,1.3,21.5.712,20.732.088,20.262.433,13.734,7.5"/></svg>