<svg id="Light" xmlns="http://www.w3.org/2000/svg" viewBox="0 0 24 24"><defs><style>.cls-1,.cls-2{fill:none;stroke:#000;stroke-linecap:round;stroke-linejoin:round;}.cls-2{fill-rule:evenodd;}</style></defs><title>mouse</title><ellipse class="cls-1" cx="12" cy="13.5" rx="8.5" ry="9"/><path class="cls-1" d="M14,18.5c0,.552-1.172,1.5-2,1.5s-2-.948-2-1.5,1.172-1,2-1S14,17.948,14,18.5Z"/><line class="cls-1" x1="12" y1="20" x2="12" y2="22.5"/><path class="cls-1" d="M15.75,15a.25.25,0,0,1,.25.25"/><path class="cls-1" d="M15.5,15.25a.25.25,0,0,1,.25-.25"/><path class="cls-1" d="M15.75,15.5a.25.25,0,0,1-.25-.25"/><path class="cls-1" d="M16,15.25a.25.25,0,0,1-.25.25"/><path class="cls-1" d="M8.25,15a.25.25,0,0,1,.25.25"/><path class="cls-1" d="M8,15.25A.25.25,0,0,1,8.25,15"/><path class="cls-1" d="M8.25,15.5A.25.25,0,0,1,8,15.25"/><path class="cls-1" d="M8.5,15.25a.25.25,0,0,1-.25.25"/><line class="cls-1" x1="18.916" y1="18.458" x2="22" y2="20"/><line class="cls-1" x1="17.021" y1="20.526" x2="19" y2="23"/><line class="cls-1" x1="5.084" y1="18.458" x2="2" y2="20"/><line class="cls-1" x1="6.979" y1="20.526" x2="5" y2="23"/><path class="cls-2" d="M15.5,5.241A4.213,4.213,0,0,1,19.5,1a4,4,0,0,1,4,4,4.067,4.067,0,0,1-4.077,4"/><path class="cls-2" d="M8.5,5.241A4.213,4.213,0,0,0,4.5,1a4,4,0,0,0-4,4A4.067,4.067,0,0,0,4.577,9"/></svg>