<svg id="Light" xmlns="http://www.w3.org/2000/svg" viewBox="0 0 24 24"><defs><style>.cls-1{fill:none;stroke:#000;stroke-linecap:round;stroke-linejoin:round;}</style></defs><title>movie-cinema-clock</title><path class="cls-1" d="M23.5,9c-4.694,0-9-3.806-9-8.5"/><path class="cls-1" d="M23.5,12H22a1.5,1.5,0,0,1,0-3h1.5Z"/><path class="cls-1" d="M.5,9c4.694,0,9-3.806,9-8.5"/><path class="cls-1" d="M.5,12H2A1.5,1.5,0,0,0,2,9H.5Z"/><path class="cls-1" d="M2,12s3,.5,3,5.5H1.5a1,1,0,0,1-1-1V1.5a1,1,0,0,1,1-1h21a1,1,0,0,1,1,1v15a1,1,0,0,1-1,1H19c0-5,3-5.5,3-5.5"/><path class="cls-1" d="M2.5,23.5V22a2.5,2.5,0,0,1,5,0v1.5"/><path class="cls-1" d="M9.5,23.5V22a2.5,2.5,0,0,1,5,0v1.5"/><path class="cls-1" d="M16.5,23.5V22a2.5,2.5,0,0,1,5,0v1.5"/><circle class="cls-1" cx="12" cy="11.5" r="4"/><polyline class="cls-1" points="13.768 11.5 12 11.5 12 9.732"/></svg>