<svg id="Light" xmlns="http://www.w3.org/2000/svg" viewBox="0 0 24 24"><defs><style>.cls-1{fill:none;stroke:#000;stroke-linecap:round;stroke-linejoin:round;}</style></defs><title>movie-monster</title><path class="cls-1" d="M6.371,9.5,3.871,11a1.1,1.1,0,0,1-.5-1.5l1-2-2,1s-1-.5,0-2a14.792,14.792,0,0,1,1.5-2l-2.28.38a.5.5,0,0,1-.557-.655A3.815,3.815,0,0,1,3.371,2,37.116,37.116,0,0,1,7,.7,3.253,3.253,0,0,1,11.371,3.75l-1,.25,1,1-1,.749a1.25,1.25,0,1,0,1.5,2S16.871,5,18.371,4s3-1,4,0a1.845,1.845,0,0,1,.6,1.662.494.494,0,0,1-.395.4L20.371,6.5l-.638,1.276a.5.5,0,0,1-.8.127,2.031,2.031,0,0,0-2.562-.4,31.889,31.889,0,0,0-4.5,3,7.884,7.884,0,0,0,.5,2c.5,1.5,1.5,1,3,.5a47.2,47.2,0,0,0,4.5-1.5,9.079,9.079,0,0,0,1.669-1.227.5.5,0,0,1,.831.375V13.14a.5.5,0,0,1-.342.474L13.371,16.5a9.463,9.463,0,0,0-3,2l-3,3,.9,1.2a.5.5,0,0,1-.4.8h-1.5c-1,0-2.5-2-2.5-2s4-4.5,4.5-5,0-2,0-2Z"/><line class="cls-1" x1="6.371" y1="3" x2="7.871" y2="4.5"/><line class="cls-1" x1="6.371" y1="4.5" x2="7.871" y2="3"/><line class="cls-1" x1="15.371" y1="18" x2="15.371" y2="19"/><line class="cls-1" x1="20.871" y1="16.5" x2="20.871" y2="17.5"/><path class="cls-1" d="M3.371,13a7.33,7.33,0,0,0-1,2c0,.5,1,1.5,1,1.5s1-1,1-1.5A7.33,7.33,0,0,0,3.371,13Z"/><path class="cls-1" d="M18.871,19a7.33,7.33,0,0,0-1,2c0,.5,1,1.5,1,1.5s1-1,1-1.5A7.33,7.33,0,0,0,18.871,19Z"/></svg>