<svg id="Light" xmlns="http://www.w3.org/2000/svg" viewBox="0 0 24 24"><defs><style>.cls-1{fill:none;stroke:#000;stroke-linecap:round;stroke-linejoin:round;}</style></defs><title>movie-star</title><path class="cls-1" d="M13.354,1.325,16.3,7.5h5.739a1.409,1.409,0,0,1,.992,2.459l-4.982,5.105,2.761,6.35A1.5,1.5,0,0,1,18.671,23.3L12,19.539,5.33,23.3a1.5,1.5,0,0,1-2.141-1.883l2.76-6.35L.968,9.959A1.407,1.407,0,0,1,1.953,7.5h5.74l2.955-6.175A1.522,1.522,0,0,1,13.354,1.325Z"/><line class="cls-1" x1="9.5" y1="9.5" x2="14.5" y2="9.5"/><circle class="cls-1" cx="12" cy="14.5" r="2.5"/></svg>