<svg id="Light" xmlns="http://www.w3.org/2000/svg" viewBox="0 0 24 24"><defs><style>.cls-1{fill:none;stroke:#000;stroke-linecap:round;stroke-linejoin:round;}</style></defs><title>movie-audience</title><path class="cls-1" d="M.5,12.5v4a3,3,0,0,0,3,3h2"/><circle class="cls-1" cx="3.5" cy="8.5" r="1.5"/><path class="cls-1" d="M1,.5H23a.5.5,0,0,1,.5.5V8.825a.5.5,0,0,1-.646.479l-22-6.7A.5.5,0,0,1,.5,2.13V1A.5.5,0,0,1,1,.5Z"/><path class="cls-1" d="M8.5,20.5a1,1,0,0,1-1-1v-2H4.867a2.008,2.008,0,0,1-1.979-1.717L2.51,13.142a1,1,0,0,1,1.98-.284L4.867,15.5H7.5a2,2,0,0,1,2,2v2A1,1,0,0,1,8.5,20.5Z"/><path class="cls-1" d="M11.5,15.5v4a3,3,0,0,0,3,3h2"/><circle class="cls-1" cx="14.5" cy="11.5" r="1.5"/><path class="cls-1" d="M19.5,23.5a1,1,0,0,1-1-1v-2H15.867a2.008,2.008,0,0,1-1.979-1.717l-.378-2.641a1,1,0,1,1,1.98-.284l.377,2.642H18.5a2,2,0,0,1,2,2v2A1,1,0,0,1,19.5,23.5Z"/></svg>