<svg id="Light" xmlns="http://www.w3.org/2000/svg" viewBox="0 0 24 24"><defs><style>.cls-1{fill:none;stroke:#000;stroke-linecap:round;stroke-linejoin:round;}</style></defs><title>movie-cinema-watch</title><rect class="cls-1" x="5.5" y="-4.5" width="13" height="23" rx="2" ry="2" transform="translate(19 -5) rotate(90)"/><line class="cls-1" x1="19.5" y1="0.5" x2="19.5" y2="13.5"/><line class="cls-1" x1="4.5" y1="0.5" x2="4.5" y2="13.5"/><line class="cls-1" x1="0.5" y1="4.5" x2="4.5" y2="4.5"/><line class="cls-1" x1="0.5" y1="9.5" x2="4.5" y2="9.5"/><line class="cls-1" x1="19.5" y1="4.5" x2="23.5" y2="4.5"/><line class="cls-1" x1="19.5" y1="9.5" x2="23.5" y2="9.5"/><path class="cls-1" d="M7,20H7a2.5,2.5,0,0,1,2.5,2.5v1a0,0,0,0,1,0,0h-5a0,0,0,0,1,0,0v-1A2.5,2.5,0,0,1,7,20Z"/><path class="cls-1" d="M12,20h0a2.5,2.5,0,0,1,2.5,2.5v1a0,0,0,0,1,0,0h-5a0,0,0,0,1,0,0v-1A2.5,2.5,0,0,1,12,20Z"/><path class="cls-1" d="M17,20h0a2.5,2.5,0,0,1,2.5,2.5v1a0,0,0,0,1,0,0h-5a0,0,0,0,1,0,0v-1A2.5,2.5,0,0,1,17,20Z"/><path class="cls-1" d="M.5,23.5h4v-1a2.489,2.489,0,0,0-4-1.989"/><path class="cls-1" d="M23.5,20.511a2.489,2.489,0,0,0-4,1.989v1h4"/><path class="cls-1" d="M23.5,17.211A2.5,2.5,0,0,0,22,19.5,2.5,2.5,0,0,0,19.5,17h0A2.5,2.5,0,0,0,17,19.5,2.5,2.5,0,0,0,14.5,17h0A2.5,2.5,0,0,0,12,19.5,2.5,2.5,0,0,0,9.5,17h0A2.5,2.5,0,0,0,7,19.5,2.5,2.5,0,0,0,4.5,17h0A2.5,2.5,0,0,0,2,19.5,2.5,2.5,0,0,0,.5,17.211"/><line class="cls-1" x1="2" y1="19.5" x2="2" y2="20"/><line class="cls-1" x1="7" y1="19.5" x2="7" y2="20"/><line class="cls-1" x1="12" y1="19.5" x2="12" y2="20"/><line class="cls-1" x1="17" y1="19.5" x2="17" y2="20"/><line class="cls-1" x1="22" y1="19.5" x2="22" y2="20"/><path class="cls-1" d="M15.7,7.932a1,1,0,0,0,0-1.864L9.181,3.534A.5.5,0,0,0,8.5,4v6a.5.5,0,0,0,.681.466Z"/></svg>