<svg id="Light" xmlns="http://www.w3.org/2000/svg" viewBox="0 0 24 24"><defs><style>.cls-1{fill:none;stroke:#000;stroke-linecap:round;stroke-linejoin:round;}</style></defs><title>museum-person</title><circle class="cls-1" cx="4" cy="8.25" r="2.75"/><path class="cls-1" d="M7.5,15.5a3.5,3.5,0,0,0-7,0v3H2.083l.417,5h3l.417-5H7.5Z"/><line class="cls-1" x1="17.757" y1="18.5" x2="9.5" y2="18.5"/><rect class="cls-1" x="9.5" y="0.5" width="7" height="9" rx="0.5" ry="0.5"/><rect class="cls-1" x="11.5" y="2.5" width="3" height="5" rx="0.5" ry="0.5"/><path class="cls-1" d="M23.5,21.251a.226.226,0,0,1-.229.249H17.73a.226.226,0,0,1-.229-.249l.557-6.5a.278.278,0,0,1,.272-.249h4.34a.278.278,0,0,1,.272.249Z"/><path class="cls-1" d="M21.5,10l1-1.5h-4l1,1.5a1.305,1.305,0,0,0,0,2.5h2A1.305,1.305,0,0,0,21.5,10Z"/><line class="cls-1" x1="20.5" y1="12.5" x2="20.5" y2="14.5"/></svg>