<svg id="Light" xmlns="http://www.w3.org/2000/svg" viewBox="0 0 24 24"><defs><style>.cls-1{fill:none;stroke:#000;stroke-linecap:round;stroke-linejoin:round;}</style></defs><title>natural-disaster-flood-house-indoor</title><path class="cls-1" d="M2.5,7.4V21.38a2,2,0,0,0,2,2l15,0a2,2,0,0,0,2-2V7.4"/><path class="cls-1" d="M23.5,8.877,12.594.816a1,1,0,0,0-1.188,0L.5,8.877"/><path class="cls-1" d="M21.5,19.272c-2.092.482-3.394-1.611-3.394-1.611h0a3.616,3.616,0,0,1-2.973,1.688,3.139,3.139,0,0,1-2.72-1.688h0a4.336,4.336,0,0,1-3.22,1.688,3.781,3.781,0,0,1-2.968-1.688h0S4.539,19.788,2.5,19.306"/><path class="cls-1" d="M21.5,15.272c-2.092.482-3.394-1.611-3.394-1.611h0a3.616,3.616,0,0,1-2.973,1.688,3.139,3.139,0,0,1-2.72-1.688h0a4.336,4.336,0,0,1-3.22,1.688,3.781,3.781,0,0,1-2.968-1.688h0S4.539,15.788,2.5,15.306"/></svg>