<svg id="Light" xmlns="http://www.w3.org/2000/svg" viewBox="0 0 24 24"><defs><style>.cls-1{fill:none;stroke:#000;stroke-linecap:round;stroke-linejoin:round;}</style></defs><title>natural-disaster-volcano-lava</title><path class="cls-1" d="M10.5,14.5V7.914a1,1,0,0,0-.293-.707L9.5,6.5"/><path class="cls-1" d="M13.5,14.5V7.914a1,1,0,0,1,.293-.707L14.5,6.5"/><line class="cls-1" x1="8.501" y1="12.5" x2="15.501" y2="12.5"/><path class="cls-1" d="M17.106,18H16a1,1,0,0,0-1,1v.5a1.25,1.25,0,0,1-2.5,0,1,1,0,0,0-2,0v1a1,1,0,0,1-2,0,1,1,0,0,0-1-1H5.8"/><path class="cls-1" d="M15.876,9.375h5.25C22.645,9.375,23.5,9,23.5,8a2.431,2.431,0,0,0-2.064-1.947A3.071,3.071,0,0,0,21.5,5.5a3.775,3.775,0,0,0-4-3.5,4.508,4.508,0,0,0-1.548.272,5.293,5.293,0,0,0-7.9,0A4.508,4.508,0,0,0,6.5,2a3.775,3.775,0,0,0-4,3.5,3.071,3.071,0,0,0,.064.553A2.431,2.431,0,0,0,.5,8c0,1.5,1.231,1.5,2.75,1.5H8.5"/><path class="cls-1" d="M.5,23.5s7.074-3.979,7.918-8.2a1,1,0,0,1,.98-.8h5.28a1,1,0,0,1,.964.737C16.8,19.479,23.5,23.5,23.5,23.5"/></svg>