<svg id="Light" xmlns="http://www.w3.org/2000/svg" viewBox="0 0 24 24"><defs><style>.cls-1{fill:none;stroke:#000;stroke-linecap:round;stroke-linejoin:round;}</style></defs><title>natural-disaster-water-level-rise</title><line class="cls-1" x1="8.5" y1="1" x2="8.5" y2="9"/><polyline class="cls-1" points="6 3.5 8.5 1 11 3.5"/><line class="cls-1" x1="15.5" y1="1" x2="15.5" y2="9"/><polyline class="cls-1" points="13 3.5 15.5 1 18 3.5"/><path class="cls-1" d="M23.5,12a5.153,5.153,0,0,1-3.833-2,5.156,5.156,0,0,1-3.834,2A5.153,5.153,0,0,1,12,10a5.153,5.153,0,0,1-3.833,2,5.156,5.156,0,0,1-3.834-2A5.153,5.153,0,0,1,.5,12V22a1,1,0,0,0,1,1h21a1,1,0,0,0,1-1Z"/><path class="cls-1" d="M23.5,20a5.153,5.153,0,0,1-3.833-2,5.156,5.156,0,0,1-3.834,2A5.153,5.153,0,0,1,12,18a5.153,5.153,0,0,1-3.833,2,5.156,5.156,0,0,1-3.834-2A5.153,5.153,0,0,1,.5,20"/><path class="cls-1" d="M23.5,16a5.153,5.153,0,0,1-3.833-2,5.156,5.156,0,0,1-3.834,2A5.153,5.153,0,0,1,12,14a5.153,5.153,0,0,1-3.833,2,5.156,5.156,0,0,1-3.834-2A5.153,5.153,0,0,1,.5,16"/></svg>