<svg id="Light" xmlns="http://www.w3.org/2000/svg" viewBox="0 0 24 24"><defs><style>.cls-1{fill:none;stroke:#000;stroke-linecap:round;stroke-linejoin:round;}</style></defs><title>natural-disaster-bolt</title><path class="cls-1" d="M3.5,13.5v9a1,1,0,0,0,1,1h15a1,1,0,0,0,1-1V14"/><line class="cls-1" x1="21.531" y1="11.031" x2="23.5" y2="13"/><polyline class="cls-1" points="0.5 13 12 1.5 13.563 3.063"/><path class="cls-1" d="M17.469.761A.5.5,0,0,1,17.909.5h3.343a.5.5,0,0,1,.424.764L18.426,6.5h3.528a.5.5,0,0,1,.369.837L13.307,17.2l3.14-7.7H13.562a.5.5,0,0,1-.439-.739Z"/></svg>