<svg id="Light" xmlns="http://www.w3.org/2000/svg" viewBox="0 0 24 24"><defs><style>.cls-1{fill:none;stroke:#000;stroke-linecap:round;stroke-linejoin:round;}</style></defs><title>natural-disaster-flood-house</title><line class="cls-1" x1="3.5" y1="9.761" x2="3.5" y2="13.865"/><line class="cls-1" x1="20.5" y1="9.761" x2="20.5" y2="13.865"/><polyline class="cls-1" points="0.5 12.5 12 2 23.5 12.5"/><rect class="cls-1" x="10.5" y="7" width="3" height="3" rx="0.5" ry="0.5"/><path class="cls-1" d="M23.5,18a5.153,5.153,0,0,1-3.833-2,5.156,5.156,0,0,1-3.834,2A5.153,5.153,0,0,1,12,16a5.153,5.153,0,0,1-3.833,2,5.156,5.156,0,0,1-3.834-2A5.153,5.153,0,0,1,.5,18"/><path class="cls-1" d="M23.5,22a5.153,5.153,0,0,1-3.833-2,5.156,5.156,0,0,1-3.834,2A5.153,5.153,0,0,1,12,20a5.153,5.153,0,0,1-3.833,2,5.156,5.156,0,0,1-3.834-2A5.153,5.153,0,0,1,.5,22"/></svg>