<svg id="Light" xmlns="http://www.w3.org/2000/svg" viewBox="0 0 24 24"><defs><style>.cls-1{fill:none;stroke:#000;stroke-linecap:round;stroke-linejoin:round;}</style></defs><title>natural-disaster-earthquake</title><path class="cls-1" d="M23.5,23.113v-12H14.012L12.55,13.366a.5.5,0,0,0,.141.688l2.714,1.814a.5.5,0,0,1,.043.8l-1.873,1.575a.5.5,0,0,0,.03.789l.328.235a.5.5,0,0,1,.058.764l-3.158,3.084.518-3.107a.5.5,0,0,0-.3-.545l-1.2-.493a.5.5,0,0,1-.132-.845l1.733-1.457a.5.5,0,0,0-.043-.8L8.691,14.054a.5.5,0,0,1-.141-.688l1.462-2.253H.5v12"/><line class="cls-1" x1="4.5" y1="11.113" x2="4.5" y2="8.113"/><path class="cls-1" d="M7.692,7.412a.5.5,0,0,1-.458.7H1.766a.5.5,0,0,1-.458-.7L4.042,1.186a.5.5,0,0,1,.916,0Z"/><line class="cls-1" x1="19.5" y1="11.113" x2="19.5" y2="8.113"/><path class="cls-1" d="M22.692,7.412a.5.5,0,0,1-.458.7H16.766a.5.5,0,0,1-.458-.7l2.734-6.226a.5.5,0,0,1,.916,0Z"/></svg>