<svg id="Light" xmlns="http://www.w3.org/2000/svg" viewBox="0 0 24 24"><defs><style>.cls-1{fill:none;stroke:#000;stroke-linecap:round;stroke-linejoin:round;}</style></defs><title>nautic-sports-water-skiing</title><circle class="cls-1" cx="3.002" cy="3.194" r="2.5"/><path class="cls-1" d="M12.685,21.525c8.008-2.847,6.845-2.359,8.317-3.831"/><line class="cls-1" x1="10.61" y1="8.194" x2="23.502" y2="8.194"/><path class="cls-1" d="M7.474,23.111,6.6,19.156A2.514,2.514,0,0,0,5.48,17.578l-1.925-1.2a3.5,3.5,0,0,1-1.513-2.017L.555,9.1A1.5,1.5,0,0,1,2,7.194H9.2a1.5,1.5,0,0,1,0,3H4.643a.5.5,0,0,0-.481.636l.767,2.713a.5.5,0,0,0,.216.288l1.925,1.2a5.532,5.532,0,0,1,2.453,3.471l.962,4.328"/><path class="cls-1" d="M23.5,23.194c-2.5.521-4.06-1.979-4.06-1.979h0a4.4,4.4,0,0,1-3.621,2.056A3.822,3.822,0,0,1,12.5,21.215h0a5.284,5.284,0,0,1-3.922,2.056,4.6,4.6,0,0,1-3.615-2.056h0s-2,2.542-4.455,2.02"/></svg>