<svg xmlns="http://www.w3.org/2000/svg" viewBox="0 0 24 24"><defs><style>.a{fill:none;stroke:#000;stroke-linecap:round;stroke-linejoin:round;}</style></defs><title>navigation-car-pin</title><circle class="a" cx="9" cy="21.5" r="2"/><line class="a" x1="7" y1="21.5" x2="0.5" y2="21.5"/><line class="a" x1="19.5" y1="21.5" x2="11" y2="21.5"/><path class="a" d="M18.5,21.5v-3a3,3,0,0,0-3-3H13L9.276,11.053a1,1,0,0,0-.894-.553H.5"/><path class="a" d="M7.444,10.472c0,.047-.458-1.09-.686-1.658A.5.5,0,0,0,6.294,8.5H2.5a.852.852,0,0,0-.709.454L1.078,10.5"/><line class="a" x1="13" y1="15.5" x2="0.5" y2="15.5"/><line class="a" x1="3.5" y1="10.5" x2="3.5" y2="15.5"/><path class="a" d="M15.173,13.5C13.824,10.912,12.5,7.961,12.5,6.37A5.694,5.694,0,0,1,18,.5a5.694,5.694,0,0,1,5.5,5.87c0,1.919-1.927,5.817-3.5,8.678"/><circle class="a" cx="18" cy="6.5" r="2.5"/><path class="a" d="M18.329,17.5H15a2,2,0,0,0,2,2h1.5"/></svg>