<svg xmlns="http://www.w3.org/2000/svg" viewBox="0 0 24 24"><defs><style>.a{fill:none;stroke:#000;stroke-linecap:round;stroke-linejoin:round;}</style></defs><title>navigation-smartphone-hand</title><path class="a" d="M9.625,9.5v-7a2,2,0,0,1,2-2h9a2,2,0,0,1,2,2v19a2,2,0,0,1-2,2h-9a2,2,0,0,1-2-2v-1"/><path class="a" d="M9.625,16h3a2,2,0,0,0,0-4h-5.5"/><path class="a" d="M7.625,18.967a3.2,3.2,0,0,0,2-2.967"/><path class="a" d="M9.625,7h-2a6,6,0,0,0-6,6v5.546c0,1.513.672,2.23,2,2.954v2"/><path class="a" d="M16.3,20.573a.252.252,0,0,1,0,.354"/><path class="a" d="M15.948,20.573a.252.252,0,0,1,.354,0"/><path class="a" d="M15.948,20.927a.252.252,0,0,1,0-.354"/><path class="a" d="M16.3,20.927a.252.252,0,0,1-.354,0"/><line class="a" x1="12.625" y1="2.5" x2="12.625" y2="3.5"/><circle class="a" cx="12.625" cy="4.5" r="1"/><circle class="a" cx="12.625" cy="9.5" r="1"/><line class="a" x1="12.625" y1="5.5" x2="12.625" y2="8.5"/><line class="a" x1="12.625" y1="10.5" x2="12.625" y2="12"/><line class="a" x1="15.625" y1="4.5" x2="20.625" y2="4.5"/><line class="a" x1="15.625" y1="9.5" x2="19.625" y2="9.5"/><line class="a" x1="16.625" y1="14.5" x2="20.625" y2="14.5"/></svg>