<svg xmlns="http://www.w3.org/2000/svg" viewBox="0 0 24 24"><defs><style>.a{fill:none;stroke:#000;stroke-linecap:round;stroke-linejoin:round;}</style></defs><title>navigation-smartphone-message</title><path class="a" d="M8.5,15.5v7a1,1,0,0,1-1,1h-5a1,1,0,0,1-1-1v-11a1,1,0,0,1,1-1h3"/><line class="a" x1="8.5" y1="20.5" x2="1.5" y2="20.5"/><path class="a" d="M20,3.5h1.5a1,1,0,0,1,1,1v10a1,1,0,0,1-1,1H15l-3.31,2.837c-.1.09-.19.05-.19-.087V15.5h-5a1,1,0,0,1-1-1V4.5a1,1,0,0,1,1-1H8"/><circle class="a" cx="14" cy="5" r="1.5"/><path class="a" d="M18.5,5c0,3-4.5,7.5-4.5,7.5S9.5,8,9.5,5a4.5,4.5,0,0,1,9,0Z"/></svg>