<svg id="Light" xmlns="http://www.w3.org/2000/svg" viewBox="0 0 24 24"><defs><style>.cls-1{fill:none;stroke:#000;stroke-linecap:round;stroke-linejoin:round;}</style></defs><title>non-gmo-lab</title><circle class="cls-1" cx="12" cy="12" r="11"/><path class="cls-1" d="M10,11.5v-3a.5.5,0,0,1,.5-.5h3"/><path class="cls-1" d="M14,12V18a2,2,0,0,1-4,0V17"/><line class="cls-1" x1="12" y1="15" x2="14" y2="15"/><path class="cls-1" d="M13.75,5.5a.25.25,0,0,1,.25.25"/><path class="cls-1" d="M13.5,5.75a.25.25,0,0,1,.25-.25"/><path class="cls-1" d="M13.75,6a.25.25,0,0,1-.25-.25"/><path class="cls-1" d="M14,5.75a.25.25,0,0,1-.25.25"/><path class="cls-1" d="M12.75,3a.25.25,0,0,1,.25.25"/><path class="cls-1" d="M12.5,3.25A.25.25,0,0,1,12.75,3"/><path class="cls-1" d="M12.75,3.5a.25.25,0,0,1-.25-.25"/><path class="cls-1" d="M13,3.25a.25.25,0,0,1-.25.25"/><path class="cls-1" d="M10.25,5a.25.25,0,0,1,.25.25"/><path class="cls-1" d="M10,5.25A.25.25,0,0,1,10.25,5"/><path class="cls-1" d="M10.25,5.5A.25.25,0,0,1,10,5.25"/><path class="cls-1" d="M10.5,5.25a.25.25,0,0,1-.25.25"/><line class="cls-1" x1="4.228" y1="19.772" x2="19.777" y2="4.223"/></svg>