<svg xmlns="http://www.w3.org/2000/svg" viewBox="0 0 24 24"><defs><style>.a{fill:none;stroke:#000;stroke-linecap:round;stroke-linejoin:round;}</style></defs><title>office-tape</title><circle class="a" cx="17" cy="9.999" r="3.5"/><path class="a" d="M18.312,10A1.313,1.313,0,1,1,17,8.687,1.312,1.312,0,0,1,18.312,10Z"/><path class="a" d="M11.449,11.336A4.384,4.384,0,0,1,11.5,12,4.5,4.5,0,0,1,7,16.5c-2.356,0-4.462-1.482-4.462-4H1.5a1,1,0,0,0-1,1v3a4,4,0,0,0,4,4H21c1.1,0,2.5-.895,2.5-2v-8c0-7.992-9.748-8.953-12.283-3.844"/><line class="a" x1="2.538" y1="12.499" x2="15.281" y2="6.937"/></svg>