<svg xmlns="http://www.w3.org/2000/svg" viewBox="0 0 24 24"><defs><style>.a{fill:none;stroke:#000;stroke-linecap:round;stroke-linejoin:round;}</style></defs><title>office-desk-lamp</title><path class="a" d="M2.433,9.489.8,13.3a.5.5,0,0,0,.459.7H22.742a.5.5,0,0,0,.459-.7L20.5,7H8.46"/><path class="a" d="M15.806,12H8.194a.5.5,0,0,1-.475-.658l.667-2A.5.5,0,0,1,8.86,9h6.28a.5.5,0,0,1,.474.342l.667,2A.5.5,0,0,1,15.806,12Z"/><path class="a" d="M11,.5h6.5a0,0,0,0,1,0,0v1a1,1,0,0,1-1,1h-5a1,1,0,0,1-1-1V1A.5.5,0,0,1,11,.5Z"/><path class="a" d="M17.5.5a3,3,0,0,1,3,3V7"/><rect class="a" x="3.5" y="5" width="3" height="3" rx="0.5" ry="0.5"/><line class="a" x1="4.5" y1="3" x2="4.5" y2="5"/><line class="a" x1="5.5" y1="5" x2="6.5" y2="3.5"/><line class="a" x1="3.5" y1="14" x2="0.5" y2="23.5"/><line class="a" x1="3.5" y1="14" x2="6.5" y2="23.5"/><line class="a" x1="0.816" y1="22.5" x2="6.184" y2="22.5"/><line class="a" x1="20.5" y1="14" x2="17.5" y2="23.5"/><line class="a" x1="20.5" y1="14" x2="23.5" y2="23.5"/><line class="a" x1="17.816" y1="22.5" x2="23.184" y2="22.5"/></svg>