<svg xmlns="http://www.w3.org/2000/svg" viewBox="0 0 24 24"><defs><style>.a{fill:none;stroke:#000;stroke-linecap:round;stroke-linejoin:round;}</style></defs><title>office-table-cabinets</title><line class="a" x1="12" y1="13.5" x2="23.5" y2="13.5"/><path class="a" d="M16.5,22.5a1,1,0,0,0,1,1h5a1,1,0,0,0,1-1v-9h-7Z"/><path class="a" d="M9.5,11.5v5a2.006,2.006,0,0,1-2,2h-4"/><path class="a" d="M.5,23.5v-9a1,1,0,0,1,1-1H7"/><polyline class="a" points="6.5 18.5 6.5 22 4 23.5"/><line class="a" x1="6.5" y1="22" x2="9" y2="23.5"/><path class="a" d="M23.5,13.5V1.5a1,1,0,0,0-1-1h-6v13"/><path class="a" d="M.5,5.5v-4a1,1,0,0,1,1-1h15v5"/><line class="a" x1="6.5" y1="0.5" x2="6.5" y2="7.5"/><line class="a" x1="11.5" y1="0.5" x2="11.5" y2="7.5"/><path class="a" d="M16.5,5.5v2H1.5a1,1,0,0,1-1-1v-1"/><line class="a" x1="18.5" y1="2.5" x2="18.5" y2="3.5"/><line class="a" x1="13.5" y1="2.5" x2="13.5" y2="3.5"/><line class="a" x1="8.5" y1="2.5" x2="8.5" y2="3.5"/><line class="a" x1="2.5" y1="2.5" x2="2.5" y2="3.5"/><line class="a" x1="18.5" y1="15.5" x2="18.5" y2="16.5"/></svg>