<svg xmlns="http://www.w3.org/2000/svg" viewBox="0 0 24 24"><defs><style>.a{fill:none;stroke:#000;stroke-linecap:round;stroke-linejoin:round;}</style></defs><title>office-file-pdf-1</title><path class="a" d="M19.511,12.5V6.473A5.975,5.975,0,0,0,13.536.5H1.511a1,1,0,0,0-1,1v21a1,1,0,0,0,1,1H4.489"/><path class="a" d="M14.511.579V4.5a1,1,0,0,0,1,1h3.92"/><path class="a" d="M11.489,17.5a2,2,0,0,1-2,2h-2v-4h2A2,2,0,0,1,11.489,17.5Z"/><line class="a" x1="7.489" y1="23.499" x2="7.489" y2="19.499"/><path class="a" d="M13.489,15.5a4,4,0,1,1,0,8Z"/><path class="a" d="M19.489,23.5V17a1.5,1.5,0,0,1,1.5-1.5h2.5"/><line class="a" x1="19.489" y1="19.499" x2="21.989" y2="19.499"/></svg>