<svg xmlns="http://www.w3.org/2000/svg" viewBox="0 0 24 24"><defs><style>.a{fill:none;stroke:#000;stroke-linecap:round;stroke-linejoin:round;}</style></defs><title>office-file-xls-1</title><path class="a" d="M19.5,12.5V6.473A5.975,5.975,0,0,0,13.525.5H1.5a1,1,0,0,0-1,1v21a1,1,0,0,0,1,1h3"/><path class="a" d="M14.5.579V4.5a1,1,0,0,0,1,1h3.92"/><line class="a" x1="7.5" y1="23.473" x2="11.5" y2="15.473"/><line class="a" x1="11.5" y1="23.473" x2="7.5" y2="15.473"/><path class="a" d="M13.5,15.473v6.5a1.5,1.5,0,0,0,1.5,1.5h2.5"/><path class="a" d="M23.5,15.473H21.354a1.854,1.854,0,0,0-.829,3.513l1.95.975a1.854,1.854,0,0,1-.829,3.512H19.5"/></svg>