<svg xmlns="http://www.w3.org/2000/svg" viewBox="0 0 24 24"><defs><style>.a{fill:none;stroke:#000;stroke-linecap:round;stroke-linejoin:round;}</style></defs><title>office-file-module-edit</title><path class="a" d="M8.5,23.5h-7a1,1,0,0,1-1-1V1.5a1,1,0,0,1,1-1H14.793A1,1,0,0,1,15.5.791L19.207,4.5a1,1,0,0,1,.293.707V8.5"/><rect class="a" x="4.5" y="12.499" width="4" height="4" rx="1" ry="1"/><path class="a" d="M11.5,16.5a1,1,0,0,1-1-1v-2a1,1,0,0,1,1-1h2a1,1,0,0,1,1,1"/><rect class="a" x="7.5" y="6.499" width="4" height="4" rx="1" ry="1"/><path class="a" d="M22.88,15.118l-7.63,7.631-3.75.75.75-3.75,7.63-7.631a2.116,2.116,0,0,1,2.992,0l.008.009A2.113,2.113,0,0,1,22.88,15.118Z"/></svg>