<svg xmlns="http://www.w3.org/2000/svg" viewBox="0 0 24 24"><defs><style>.a{fill:none;stroke:#000;stroke-linecap:round;stroke-linejoin:round;}</style></defs><title>office-drawing-board</title><path class="a" d="M17.266,13.866a1,1,0,0,1-.931.634H2.484a1,1,0,0,1-.931-1.366l4.714-12A1,1,0,0,1,7.2.5H21.049a1,1,0,0,1,.931,1.366Z"/><line class="a" x1="1.802" y1="12.5" x2="17.802" y2="12.5"/><path class="a" d="M13.773,8.885a1,1,0,0,1-.923.615H9.016a1,1,0,0,1-.923-1.385l1.667-4a1,1,0,0,1,.923-.615h3.833a1,1,0,0,1,.923,1.385Z"/><line class="a" x1="20.516" y1="5.591" x2="20.516" y2="23.5"/><line class="a" x1="18.516" y1="23.5" x2="22.516" y2="23.5"/><line class="a" x1="4.516" y1="14.5" x2="4.516" y2="23.5"/><line class="a" x1="2.516" y1="23.5" x2="6.516" y2="23.5"/><path class="a" d="M10.516,18.5a1,1,0,0,1,0-2h4a1,1,0,0,1,0,2Z"/><line class="a" x1="11.016" y1="18.5" x2="9.516" y2="23.5"/><line class="a" x1="14.016" y1="18.5" x2="15.516" y2="23.5"/><line class="a" x1="9.849" y1="22.5" x2="15.183" y2="22.5"/></svg>