<svg xmlns="http://www.w3.org/2000/svg" viewBox="0 0 24 24"><defs><style>.a{fill:none;stroke:#000;stroke-linecap:round;stroke-linejoin:round;}</style></defs><title>office-file-ppt-1</title><path class="a" d="M19.5,12.5V6.473A5.975,5.975,0,0,0,13.525.5H1.5a1,1,0,0,0-1,1v21a1,1,0,0,0,1,1h3"/><path class="a" d="M14.5.579V4.5a1,1,0,0,0,1,1h3.92"/><path class="a" d="M11.5,17.5a2,2,0,0,1-2,2h-2v-4h2A2,2,0,0,1,11.5,17.5Z"/><line class="a" x1="7.5" y1="23.499" x2="7.5" y2="19.499"/><path class="a" d="M17.5,17.5a2,2,0,0,1-2,2h-2v-4h2A2,2,0,0,1,17.5,17.5Z"/><line class="a" x1="13.5" y1="23.499" x2="13.5" y2="19.499"/><line class="a" x1="19.5" y1="15.499" x2="23.5" y2="15.499"/><line class="a" x1="21.5" y1="15.499" x2="21.5" y2="23.499"/></svg>