<svg xmlns="http://www.w3.org/2000/svg" viewBox="0 0 24 24"><defs><style>.a{fill:none;stroke:#000;stroke-linecap:round;stroke-linejoin:round;}</style></defs><title>office-employee</title><path class="a" d="M18.5,23H5.5L3.811,16.242A1,1,0,0,1,4.781,15H19.219a1,1,0,0,1,.97,1.242Z"/><line class="a" x1="1" y1="23" x2="23" y2="23"/><line class="a" x1="12" y1="12" x2="12" y2="13.5"/><path class="a" d="M13.167,4.5a5.805,5.805,0,0,0,2.286-.467,3.478,3.478,0,0,0-6.459-1.3A5.809,5.809,0,0,0,13.167,4.5Z"/><circle class="a" cx="12" cy="4.5" r="3.5"/><circle class="a" cx="12" cy="18.75" r="1.25"/><path class="a" d="M16.745,13a4.966,4.966,0,0,0-9.49,0"/></svg>