<svg xmlns="http://www.w3.org/2000/svg" viewBox="0 0 24 24"><defs><style>.a{fill:none;stroke:#000;stroke-linecap:round;stroke-linejoin:round;}</style></defs><title>official-building</title><path class="a" d="M19.5,12.5h3a1,1,0,0,1,1,1V20a.5.5,0,0,1-.5.5H19.5"/><path class="a" d="M4.5,20.5H1A.5.5,0,0,1,.5,20V13.5a1,1,0,0,1,1-1h3"/><path class="a" d="M19.5,23a.5.5,0,0,1-.5.5H5a.5.5,0,0,1-.5-.5V12.5l7.129-2.851a.992.992,0,0,1,.742,0L19.5,12.5Z"/><polyline class="a" points="5.5 12.1 5.5 8.5 18.5 8.5 18.5 12.1"/><path class="a" d="M5.5,8.5a6.5,6.5,0,0,1,13,0"/><line class="a" x1="12" y1="2" x2="12" y2="0.5"/><line class="a" x1="7.5" y1="21.5" x2="7.5" y2="14.5"/><line class="a" x1="10.5" y1="21.5" x2="10.5" y2="14.5"/><line class="a" x1="13.5" y1="21.5" x2="13.5" y2="14.5"/><line class="a" x1="16.5" y1="21.5" x2="16.5" y2="14.5"/><line class="a" x1="4.5" y1="14.5" x2="19.5" y2="14.5"/><line class="a" x1="4.5" y1="21.5" x2="19.5" y2="21.5"/></svg>