<svg xmlns="http://www.w3.org/2000/svg" viewBox="0 0 24 24"><defs><style>.a{fill:none;stroke:#000;stroke-linecap:round;stroke-linejoin:round;}</style></defs><title>office-file-adobe</title><path class="a" d="M21.207,4.5a1,1,0,0,1,.293.707V22.5a1,1,0,0,1-1,1H3.5a1,1,0,0,1-1-1V1.5a1,1,0,0,1,1-1H16.793A1,1,0,0,1,17.5.791Z"/><path class="a" d="M6.361,6.889C5.51,5.488,7.546,4.2,8.078,5.637c.911,2.467,2.376,9.141-.929,13.677-.922,1.264-2.911.067-1.841-1.25A16.174,16.174,0,0,1,17.77,12.35c1.668.063,1.582,2.432.09,2.25A15.572,15.572,0,0,1,6.361,6.889Z"/></svg>