<svg xmlns="http://www.w3.org/2000/svg" viewBox="0 0 24 24"><defs><style>.a{fill:none;stroke:#000;stroke-linecap:round;stroke-linejoin:round;}</style></defs><title>office-file-key</title><path class="a" d="M20.5,23.5a1,1,0,0,0,1-1V6.473A5.975,5.975,0,0,0,15.525.5H3.5a1,1,0,0,0-1,1v21a1,1,0,0,0,1,1Z"/><path class="a" d="M16.5.579V4.5a1,1,0,0,0,1,1h3.92"/><polyline class="a" points="8.5 12.499 5.5 15.499 8.5 18.499"/><line class="a" x1="5.5" y1="18.499" x2="5.5" y2="12.499"/><path class="a" d="M13.5,18.5h-2a1,1,0,0,1-1-1v-4a1,1,0,0,1,1-1h2"/><line class="a" x1="10.5" y1="15.499" x2="12.5" y2="15.499"/><line class="a" x1="17.5" y1="15.499" x2="17.5" y2="18.499"/><path class="a" d="M19.5,12.5v1a2,2,0,1,1-4,0v-1"/></svg>