<svg xmlns="http://www.w3.org/2000/svg" viewBox="0 0 24 24"><defs><style>.a{fill:none;stroke:#000;stroke-linecap:round;stroke-linejoin:round;}</style></defs><title>office-file-pps</title><path class="a" d="M20.5,23.5a1,1,0,0,0,1-1V6.473A5.975,5.975,0,0,0,15.525.5H3.5a1,1,0,0,0-1,1v21a1,1,0,0,0,1,1Z"/><path class="a" d="M16.5.579V4.5a1,1,0,0,0,1,1h3.92"/><path class="a" d="M8.479,15a1.5,1.5,0,0,1-1.5,1.5h-1.5v-3h1.5A1.5,1.5,0,0,1,8.479,15Z"/><line class="a" x1="5.479" y1="19.499" x2="5.479" y2="16.499"/><path class="a" d="M13.479,15a1.5,1.5,0,0,1-1.5,1.5h-1.5v-3h1.5A1.5,1.5,0,0,1,13.479,15Z"/><line class="a" x1="10.479" y1="19.499" x2="10.479" y2="16.499"/><path class="a" d="M18.479,13.5h-1.7a1.3,1.3,0,0,0-.722,2.386l1.84,1.227a1.3,1.3,0,0,1-.723,2.387h-1.7"/></svg>