<svg xmlns="http://www.w3.org/2000/svg" viewBox="0 0 24 24"><defs><style>.a{fill:none;stroke:#000;stroke-linecap:round;stroke-linejoin:round;}</style></defs><title>old-people-woman-2</title><path class="a" d="M18.349,19.872l-6.1,3.486a.5.5,0,0,1-.5,0l-6.1-3.486"/><path class="a" d="M23.5,23.5a4.005,4.005,0,0,0-2.488-2.745L15.72,19"/><path class="a" d="M8.28,19,2.988,20.755A4.005,4.005,0,0,0,.5,23.5"/><path class="a" d="M10.5,15a1.967,1.967,0,0,0,1.358.5h.284A1.965,1.965,0,0,0,13.5,15"/><path class="a" d="M11,11a1.089,1.089,0,0,0-1-.5A1.089,1.089,0,0,0,9,11"/><path class="a" d="M15,11a1.089,1.089,0,0,0-1-.5,1.089,1.089,0,0,0-1,.5"/><path class="a" d="M12.02,18.5c1.387,0,4.49-1.721,4.932-4.365a1,1,0,0,1,.572-.746C18.6,12.9,18.872,10.937,18,10.5c.5-2.986.5-8-5.982-8s-6.477,5.014-5.981,8c-.871.437-.6,2.4.478,2.889a1,1,0,0,1,.572.746C7.53,16.779,10.633,18.5,12.02,18.5Z"/><path class="a" d="M5.848,8.484c1.338-.03,4.034.379,6.152-2.169,2.128,2.56,4.871,2.144,6.193,2.179"/><path class="a" d="M13.991,2.685C14,2.624,14,2.562,14,2.5a2,2,0,0,0-4,0c0,.065,0,.13.009.193"/><line class="a" x1="14.182" y1="2.727" x2="18" y2="0.5"/><line class="a" x1="9.818" y1="2.727" x2="6" y2="0.5"/></svg>