<svg xmlns="http://www.w3.org/2000/svg" viewBox="0 0 24 24"><defs><style>.a{fill:none;stroke:#000;stroke-linecap:round;stroke-linejoin:round;}</style></defs><title>old-people-woman-2</title><path class="a" d="M13.5,14a2.5,2.5,0,0,1-3,0"/><path class="a" d="M23,23.5v-.106a1.976,1.976,0,0,0-.77-1.579C20.9,20.8,17.73,19,12,19S3.105,20.8,1.77,21.815A1.976,1.976,0,0,0,1,23.394V23.5"/><path class="a" d="M14,11.25a.25.25,0,1,1-.25.25.25.25,0,0,1,.25-.25"/><path class="a" d="M10,11.25a.25.25,0,1,1-.25.25.25.25,0,0,1,.25-.25"/><path class="a" d="M18,9.5a6,6,0,0,0-12,0v2a6,6,0,0,0,12,0Z"/><path class="a" d="M18,9.5c-1.327,0-4.058.337-6-2-1.942,2.337-4.673,2-6,2"/><path class="a" d="M12,3.5a6,6,0,0,1,1.59.213,2,2,0,1,0-3.18,0A6,6,0,0,1,12,3.5Z"/><line class="a" x1="13.59" y1="3.713" x2="18" y2="1.5"/><line class="a" x1="10.41" y1="3.713" x2="6" y2="1.5"/><path class="a" d="M17.42,19.628l-4.359,3.114a1.823,1.823,0,0,1-2.122,0L6.58,19.628"/></svg>