<svg xmlns="http://www.w3.org/2000/svg" viewBox="0 0 24 24"><defs><style>.a{fill:none;stroke:#000;stroke-linecap:round;stroke-linejoin:round;}</style></defs><title>old-people-man-1</title><path class="a" d="M13.5,11a2.5,2.5,0,0,1-3,0"/><path class="a" d="M23,23.5V20.394a1.976,1.976,0,0,0-.77-1.579C20.9,17.8,17.73,16,12,16S3.105,17.8,1.77,18.815A1.976,1.976,0,0,0,1,20.394V23.5"/><path class="a" d="M14,23.5l-1.522-4.947a.5.5,0,0,0-.956,0L10,23.5"/><line class="a" x1="19.5" y1="22.5" x2="16.5" y2="22.5"/><circle class="a" cx="14.75" cy="7.5" r="1.75"/><circle class="a" cx="9.25" cy="7.5" r="1.75"/><line class="a" x1="11" y1="7.5" x2="13" y2="7.5"/><line class="a" x1="11" y1="3.5" x2="13" y2="3.5"/><path class="a" d="M17.5,5a2.5,2.5,0,0,1-2.267-3.555,6,6,0,0,0-6.466,0A2.5,2.5,0,0,1,6.5,5a2.383,2.383,0,0,1-.306-.02A6.048,6.048,0,0,0,6,6.5v2a6,6,0,0,0,12,0v-2a6.048,6.048,0,0,0-.194-1.52A2.383,2.383,0,0,1,17.5,5Z"/><path class="a" d="M9.217,1.184A2.5,2.5,0,0,0,5.045,2.529,3.5,3.5,0,0,0,4.027,9.175,1.944,1.944,0,0,0,4,9.5a2,2,0,0,0,2.726,1.863"/><path class="a" d="M17.274,11.363A2,2,0,0,0,20,9.5a1.944,1.944,0,0,0-.027-.325,3.5,3.5,0,0,0-1.018-6.646,2.5,2.5,0,0,0-4.172-1.345"/></svg>