<svg xmlns="http://www.w3.org/2000/svg" viewBox="0 0 24 24"><defs><style>.a{fill:none;stroke:#000;stroke-linecap:round;stroke-linejoin:round;}</style></defs><title>old-people-man-3</title><path class="a" d="M10.5,13a1.967,1.967,0,0,0,1.358.5h.284A1.965,1.965,0,0,0,13.5,13"/><path class="a" d="M11,9a1.089,1.089,0,0,0-1-.5A1.089,1.089,0,0,0,9,9"/><path class="a" d="M15,9a1.089,1.089,0,0,0-1-.5A1.089,1.089,0,0,0,13,9"/><line class="a" x1="20.904" y1="18.755" x2="16" y2="17.109"/><path class="a" d="M8,17.109,3.1,18.755A4,4,0,0,0,.5,22.5v1"/><path class="a" d="M13.48,18.5a1.5,1.5,0,0,1-3,0"/><line class="a" x1="10.5" y1="23.5" x2="11.52" y2="19.928"/><line class="a" x1="13.5" y1="23.5" x2="12.476" y2="19.916"/><path class="a" d="M5.907,7.938c.018.193.043.381.073.562-.874.437-.6,2.4.479,2.889a1,1,0,0,1,.574.746c.443,2.644,3.555,4.365,4.947,4.365s4.5-1.721,4.947-4.365a1,1,0,0,1,.574-.746c1.081-.491,1.352-2.452.479-2.889q.046-.279.074-.578"/><path class="a" d="M16.685,2.56A5.643,5.643,0,0,0,11.98.5a5.643,5.643,0,0,0-4.7,2.048"/><path class="a" d="M6.569,7.672l-.7.279A1,1,0,0,1,4.5,7.023V3.87a1,1,0,0,1,.757-.97l1.476-.369A1,1,0,0,1,7.924,3.817L7.147,7.06A1,1,0,0,1,6.569,7.672Z"/><path class="a" d="M17.431,7.672l.7.279A1,1,0,0,0,19.5,7.023V3.87a1,1,0,0,0-.757-.97l-1.476-.369a1,1,0,0,0-1.191,1.286l.777,3.243A1,1,0,0,0,17.431,7.672Z"/><line class="a" x1="11" y1="3.5" x2="13" y2="3.5"/><line class="a" x1="11" y1="5.5" x2="13" y2="5.5"/><path class="a" d="M19.5,14.5a2,2,0,0,1,4,0v9"/></svg>