<svg id="Light" xmlns="http://www.w3.org/2000/svg" viewBox="0 0 24 24"><defs><style>.cls-1{fill:none;stroke:#000;stroke-linecap:round;stroke-linejoin:round;}</style></defs><title>olympics-torch</title><circle class="cls-1" cx="11.502" cy="4.997" r="2.5"/><path class="cls-1" d="M21.5,5a1.5,1.5,0,0,1-3,0"/><line class="cls-1" x1="20.002" y1="11.344" x2="20.002" y2="14.997"/><path class="cls-1" d="M17.928,23.5l-.44-1.983A4.475,4.475,0,0,0,13.1,18H13V12.5h3.384a4.507,4.507,0,0,0,1.773-.363l2.934-1.258A1.5,1.5,0,0,0,19.91,8.118L16.98,9.375a1.521,1.521,0,0,1-.6.122H7.8a4.507,4.507,0,0,0-2.232.593l-2.809,1.6A1.5,1.5,0,1,0,4.244,14.3l2.809-1.6a1.5,1.5,0,0,1,.744-.2H10V18H5.5a1.5,1.5,0,0,0,0,3h7.594a1.492,1.492,0,0,1,1.465,1.175l.294,1.325"/><path class="cls-1" d="M21.5,3.5s0-2-2.5-2-2.5-1-2.5-1V1A2.5,2.5,0,0,0,19,3.5"/></svg>