<svg xmlns="http://www.w3.org/2000/svg" viewBox="0 0 24 24"><defs><style>.a{fill:none;stroke:#000;stroke-linecap:round;stroke-linejoin:round;}</style></defs><title>optimization-clock</title><line class="a" x1="0.5" y1="4.5" x2="20.5" y2="4.5"/><path class="a" d="M3.25,2.25a.25.25,0,1,0,.25.25.25.25,0,0,0-.25-.25h0"/><path class="a" d="M5.75,2.25A.25.25,0,1,0,6,2.5a.25.25,0,0,0-.25-.25h0"/><path class="a" d="M8.25,2.25a.25.25,0,1,0,.25.25.25.25,0,0,0-.25-.25h0"/><path class="a" d="M7.5,15.5h-5a2,2,0,0,1-2-2V2.5a2,2,0,0,1,2-2h16a2,2,0,0,1,2,2v5"/><circle class="a" cx="16.5" cy="17.5" r="6"/><polyline class="a" points="16.5 13.5 16.5 17.5 19.5 17.5"/><line class="a" x1="12" y1="10" x2="9.5" y2="12.5"/><line class="a" x1="23.5" y1="12.5" x2="21" y2="10"/></svg>