<svg xmlns="http://www.w3.org/2000/svg" viewBox="0 0 24 24"><defs><style>.a{fill:none;stroke:#000;stroke-linecap:round;stroke-linejoin:round;}</style></defs><title>optimization-rocket-growth</title><path class="a" d="M15.575,11.253a5,5,0,1,1-8.258,5.519"/><path class="a" d="M16.992,9.836A7,7,0,1,1,5.149,16.772"/><rect class="a" x="13.015" y="4.985" width="4" height="8" rx="1" ry="1" transform="translate(10.751 -7.985) rotate(45)"/><path class="a" d="M18.55,6.864,17.136,5.45l2.121-2.122a1,1,0,1,1,1.415,1.415Z"/><polyline class="a" points="20.672 3.328 22.793 1.207 22.086 0.5"/><line class="a" x1="23.5" y1="1.914" x2="22.793" y2="1.207"/><line class="a" x1="3.5" y1="16.772" x2="9.5" y2="16.772"/><path class="a" d="M18.5,22.5a1,1,0,0,1-1,1H6.5a1,1,0,0,1,0-2h11A1,1,0,0,1,18.5,22.5Z"/><polyline class="a" points="11 0.5 14 0.5 14 3.5"/><path class="a" d="M14,.5,7.457,7.043a1,1,0,0,1-1.414,0L4.707,5.707a1,1,0,0,0-1.414,0L.5,8.5"/></svg>