<svg xmlns="http://www.w3.org/2000/svg" viewBox="0 0 24 24"><defs><style>.a{fill:none;stroke:#000;stroke-linecap:round;stroke-linejoin:round;}</style></defs><title>optimization-graph</title><circle class="a" cx="12" cy="11.973" r="7"/><path class="a" d="M23.062,13.555a.5.5,0,0,0,.438-.5V10.941a.5.5,0,0,0-.438-.5l-2.251-.281a8.926,8.926,0,0,0-1.285-3.092l1.395-1.795a.5.5,0,0,0-.041-.66l-1.5-1.5a.5.5,0,0,0-.66-.041l-1.795,1.4a8.947,8.947,0,0,0-3.092-1.286L13.555.938a.5.5,0,0,0-.5-.438H10.941a.5.5,0,0,0-.5.438l-.281,2.25A8.947,8.947,0,0,0,7.072,4.474L5.277,3.079a.5.5,0,0,0-.66.041l-1.5,1.5a.5.5,0,0,0-.041.66l1.4,1.8a8.926,8.926,0,0,0-1.285,3.092l-2.251.281a.5.5,0,0,0-.438.5v2.118a.5.5,0,0,0,.438.5l2.251.281a8.926,8.926,0,0,0,1.285,3.092L3.079,18.723a.5.5,0,0,0,.041.66l1.5,1.5a.5.5,0,0,0,.66.041l1.8-1.395a8.947,8.947,0,0,0,3.092,1.286l.281,2.25a.5.5,0,0,0,.5.438h2.118a.5.5,0,0,0,.5-.438l.281-2.25a8.947,8.947,0,0,0,3.092-1.286l1.795,1.395a.5.5,0,0,0,.66-.041l1.5-1.5a.5.5,0,0,0,.041-.66l-1.395-1.795a8.926,8.926,0,0,0,1.285-3.092Z"/><path class="a" d="M15,14.5V9a.5.5,0,0,0-.5-.5h-1A.5.5,0,0,0,13,9v5.5"/><path class="a" d="M11,14.5V12a.5.5,0,0,0-.5-.5h-1A.5.5,0,0,0,9,12v2.5"/><line class="a" x1="8" y1="14.5" x2="16" y2="14.5"/></svg>