<svg id="Light" xmlns="http://www.w3.org/2000/svg" viewBox="0 0 24 24"><defs><style>.cls-1{fill:none;stroke:#000;stroke-linecap:round;stroke-linejoin:round;}</style></defs><title>organic-plant</title><path class="cls-1" d="M.719,14.244A11.509,11.509,0,0,1,12,.5"/><path class="cls-1" d="M2.437,18.39A11.455,11.455,0,0,1,1.373,16.4"/><path class="cls-1" d="M5.61,21.563a11.625,11.625,0,0,1-1.742-1.431"/><path class="cls-1" d="M9.756,23.281A11.367,11.367,0,0,1,7.6,22.627"/><path class="cls-1" d="M23.281,14.244A11.509,11.509,0,0,0,12,.5"/><path class="cls-1" d="M21.563,18.39A11.455,11.455,0,0,0,22.627,16.4"/><path class="cls-1" d="M18.39,21.563a11.625,11.625,0,0,0,1.742-1.431"/><path class="cls-1" d="M14.244,23.281a11.367,11.367,0,0,0,2.158-.654"/><path class="cls-1" d="M20.5,12A8.5,8.5,0,0,0,12,20.5,8.5,8.5,0,0,0,20.5,12Z"/><path class="cls-1" d="M14.236,14.754A9.389,9.389,0,0,0,12.01,5.015,9.39,9.39,0,0,0,9.8,14.791"/><path class="cls-1" d="M12,20.5A8.5,8.5,0,0,0,3.5,12,8.5,8.5,0,0,0,12,20.5Z"/><line class="cls-1" x1="12" y1="23.5" x2="12" y2="20.5"/></svg>