<svg id="Light" xmlns="http://www.w3.org/2000/svg" viewBox="0 0 24 24"><defs><style>.cls-1{fill:none;stroke:#000;stroke-linecap:round;stroke-linejoin:round;}</style></defs><title>organic-plant-grow-1</title><path class="cls-1" d="M23.5,21.388c-2.5.521-4.06-1.979-4.06-1.979h0a4.4,4.4,0,0,1-3.621,2.056A3.822,3.822,0,0,1,12.5,19.409h0a5.282,5.282,0,0,1-3.922,2.056A4.6,4.6,0,0,1,4.96,19.409h0s-2,2.542-4.455,2.02"/><path class="cls-1" d="M21,9.485a8.5,8.5,0,0,0-8.5,8.5A8.5,8.5,0,0,0,21,9.485Z"/><path class="cls-1" d="M14.737,12.24A9.391,9.391,0,0,0,12.511,2.5,9.391,9.391,0,0,0,10.3,12.277"/><path class="cls-1" d="M4,9.485a8.5,8.5,0,0,1,8.5,8.5A8.5,8.5,0,0,1,4,9.485Z"/><line class="cls-1" x1="12.501" y1="19.5" x2="12.501" y2="17.485"/></svg>