<svg id="Light" xmlns="http://www.w3.org/2000/svg" viewBox="0 0 24 24"><defs><style>.cls-1{fill:none;stroke:#000;stroke-linecap:round;stroke-linejoin:round;}</style></defs><title>organic-plant-grow</title><path class="cls-1" d="M20.5,7.485a8.5,8.5,0,0,0-8.5,8.5A8.5,8.5,0,0,0,20.5,7.485Z"/><path class="cls-1" d="M14.236,10.24A9.391,9.391,0,0,0,12.01.5,9.391,9.391,0,0,0,9.8,10.277"/><path class="cls-1" d="M3.5,7.485a8.5,8.5,0,0,1,8.5,8.5A8.5,8.5,0,0,1,3.5,7.485Z"/><line class="cls-1" x1="12" y1="18" x2="12" y2="15.485"/><path class="cls-1" d="M22.969,23.5a3.983,3.983,0,0,0-7.025-2.053,3.98,3.98,0,0,0-7.888,0A3.983,3.983,0,0,0,1.031,23.5"/></svg>