<svg id="Light" xmlns="http://www.w3.org/2000/svg" viewBox="0 0 24 24"><defs><style>.cls-1{fill:none;stroke:#000;stroke-linecap:round;stroke-linejoin:round;}</style></defs><title>organic-plant-root</title><line class="cls-1" x1="0.5" y1="12.016" x2="23.5" y2="12.016"/><path class="cls-1" d="M22.184,1.516S19.563,8.222,15.6,6.674a2.946,2.946,0,1,1,2.144-5.487A10.418,10.418,0,0,0,22.184,1.516Z"/><path class="cls-1" d="M12.5,6.516a6.723,6.723,0,0,1,5.326-2.838"/><path class="cls-1" d="M2.816,1.516S5.436,8.222,9.4,6.674A2.946,2.946,0,1,0,7.255,1.187,10.418,10.418,0,0,1,2.816,1.516Z"/><path class="cls-1" d="M7.174,3.678A6.723,6.723,0,0,1,12.5,6.516v16.5"/><path class="cls-1" d="M12.5,19.016h-2a1,1,0,0,0-1,1v2"/><path class="cls-1" d="M16.5,22.016v-4.5a1.5,1.5,0,0,0-1.5-1.5H8.5a2.006,2.006,0,0,0-2,2v3.5"/><path class="cls-1" d="M16.5,19.016h1a1,1,0,0,1,1,1v1"/><line class="cls-1" x1="6.5" y1="18.516" x2="4.5" y2="19.516"/></svg>