<svg xmlns="http://www.w3.org/2000/svg" viewBox="0 0 24 24"><defs><style>.a{fill:none;stroke:#000;stroke-linecap:round;stroke-linejoin:round;}</style></defs><title>os-system-blackberry</title><path class="a" d="M4.711,8.5H1.588l.848-4h3c1.949,0,2.415,1.013,2.415,1.771C7.855,7.344,7.156,8.5,4.711,8.5Z"/><path class="a" d="M12.711,8.5H9.588l.848-4h3c1.949,0,2.415,1.013,2.415,1.771C15.855,7.344,15.156,8.5,12.711,8.5Z"/><path class="a" d="M20.356,11.5H17.233l.848-4h3c1.949,0,2.415,1.013,2.415,1.771C23.5,10.344,22.8,11.5,20.356,11.5Z"/><path class="a" d="M19.356,17.5H16.233l.848-4h3c1.949,0,2.415,1.013,2.415,1.771C22.5,16.344,21.8,17.5,19.356,17.5Z"/><path class="a" d="M3.711,14.5H.588l.848-4h3c1.949,0,2.415,1.013,2.415,1.771C6.855,13.344,6.156,14.5,3.711,14.5Z"/><path class="a" d="M11.711,14.5H8.588l.848-4h3c1.949,0,2.415,1.013,2.415,1.771C14.855,13.344,14.156,14.5,11.711,14.5Z"/><path class="a" d="M10.711,20.5H7.588l.848-4h3c1.949,0,2.415,1.013,2.415,1.771C13.855,19.344,13.156,20.5,10.711,20.5Z"/></svg>