<svg id="Light" xmlns="http://www.w3.org/2000/svg" viewBox="0 0 24 24"><defs><style>.cls-1{fill:none;stroke:#000;stroke-linecap:round;stroke-linejoin:round;}</style></defs><title>outdoors-flashlight-1</title><path class="cls-1" d="M19.025,10.824l-2.537,2.538a1.285,1.285,0,0,1-1.816,0L10.638,9.328a1.285,1.285,0,0,1,0-1.816l2.538-2.537a.642.642,0,0,1,.908,0l4.941,4.941A.642.642,0,0,1,19.025,10.824Z"/><path class="cls-1" d="M14.605,13.294,4.789,23.11a1.284,1.284,0,0,1-1.815,0L.89,21.026a1.284,1.284,0,0,1,0-1.815L10.706,9.4Z"/><line class="cls-1" x1="7.294" y1="12.807" x2="6.319" y2="11.832"/><line class="cls-1" x1="18.014" y1="5.986" x2="20.514" y2="3.486"/><line class="cls-1" x1="16.034" y1="3.719" x2="17.637" y2="0.514"/><line class="cls-1" x1="20.281" y1="7.966" x2="23.486" y2="6.363"/></svg>