<svg id="Light" xmlns="http://www.w3.org/2000/svg" viewBox="0 0 24 24"><defs><style>.cls-1{fill:none;stroke:#000;stroke-linecap:round;stroke-linejoin:round;}</style></defs><title>outdoors-horse</title><circle class="cls-1" cx="10.056" cy="1.979" r="1.5"/><path class="cls-1" d="M9.056,10.979v-5a1,1,0,0,1,1.888-.459A4.845,4.845,0,0,0,13.451,7.8l.477.191a1,1,0,1,1-.745,1.856l-.475-.19a6.806,6.806,0,0,1-1.652-.946"/><path class="cls-1" d="M16.569,7.426a8,8,0,0,1,2.8-2.833.128.128,0,0,1,.192.108V6.479l3.653,2.283a.5.5,0,0,1,.2.6l-.251.672a1,1,0,0,1-1.106.407l-2.5-.461a24.561,24.561,0,0,0-3,11.765v.735a1,1,0,0,1-1,1h-.125a1,1,0,0,1-.991-.868l-.827-6.2a.5.5,0,0,0-.495-.433H9.363a.5.5,0,0,0-.446.273c-1.006,1.971-.968,1.571.705,5.655a1,1,0,0,1-.683,1.351l-.072.018a1,1,0,0,1-1.153-.56c-1.994-4.42-1.658-3.1-1.658-6.737l-.915.914a2,2,0,0,0-.585,1.414v4.172a1,1,0,0,1-2,0V16.951a2,2,0,0,1,.211-.895L3.344,14.9a2,2,0,0,0,.212-.895V12.979a2,2,0,0,1,2-2h4.5"/><path class="cls-1" d="M4.167,11.539a2.013,2.013,0,0,0-2.9,1.033L.556,14.479"/></svg>