<svg id="Light" xmlns="http://www.w3.org/2000/svg" viewBox="0 0 24 24"><defs><style>.cls-1{fill:none;stroke:#000;stroke-linecap:round;stroke-linejoin:round;}</style></defs><title>outdoors-machete</title><path class="cls-1" d="M9.9,16.871a1.988,1.988,0,0,0-2.383,2.2A4.448,4.448,0,0,0,4.488,20.11a5.35,5.35,0,0,0-1.971,2.629.987.987,0,0,1-1.006-.365l-.6-.8a2,2,0,0,1,.382-2.8l6.381-4.841"/><line class="cls-1" x1="6.459" y1="12.342" x2="10.695" y2="17.914"/><path class="cls-1" d="M14.936,7.155l7.652-5.817a.5.5,0,0,1,.8.334c.2,1.484.348,4.609-1.5,6.477l-11.8,8.969"/><line class="cls-1" x1="12.227" y1="7.7" x2="14.839" y2="9.484"/><line class="cls-1" x1="10.237" y1="9.213" x2="12.848" y2="10.996"/><line class="cls-1" x1="8.246" y1="10.726" x2="10.858" y2="12.509"/></svg>