<svg id="Light" xmlns="http://www.w3.org/2000/svg" viewBox="0 0 24 24"><defs><style>.cls-1{fill:none;stroke:#000;stroke-linecap:round;stroke-linejoin:round;}</style></defs><title>outdoors-bench-sit</title><circle class="cls-1" cx="9.998" cy="3.547" r="2.5"/><path class="cls-1" d="M11,23.047a1.5,1.5,0,0,1-1.486-1.313l-.337-2.687L4,19.049a1.5,1.5,0,0,1-1.4-2.027l3-9a1.5,1.5,0,0,1,2.3-.674l3.467,2.6a.5.5,0,0,0,.3.1H14.5a1.5,1.5,0,1,1,0,3H11.667a3.524,3.524,0,0,1-2.1-.7L7.7,10.95l-1.536,5.1H10.5a1.5,1.5,0,0,1,1.488,1.312l.5,4a1.5,1.5,0,0,1-1.3,1.676A1.707,1.707,0,0,1,11,23.047Z"/><line class="cls-1" x1="13.001" y1="13.046" x2="23.5" y2="13.044"/><line class="cls-1" x1="0.502" y1="19.049" x2="5.502" y2="19.048"/><line class="cls-1" x1="23.502" y1="19.044" x2="14.002" y2="19.046"/><line class="cls-1" x1="17" y1="13.045" x2="14.003" y2="23.046"/><line class="cls-1" x1="19.5" y1="13.045" x2="22.503" y2="23.044"/><line class="cls-1" x1="3.002" y1="19.049" x2="2.003" y2="23.049"/></svg>