<svg id="Light" xmlns="http://www.w3.org/2000/svg" viewBox="0 0 24 24"><defs><style>.cls-1{fill:none;stroke:#000;stroke-linecap:round;stroke-linejoin:round;}</style></defs><title>outdoors-rope</title><path class="cls-1" d="M4.946,9.452,4.274,6.363a4.836,4.836,0,1,1,9.452,0l-.681,3.129"/><path class="cls-1" d="M7.1,9.449l-.63-3.986a2.563,2.563,0,1,1,5.064,0L10.894,9.5"/><path class="cls-1" d="M11.053,15.5l.479,3.037a2.563,2.563,0,1,1-5.064,0l.48-3.037"/><path class="cls-1" d="M4.746,15.468l-.472,2.169a4.836,4.836,0,1,0,9.452,0l-.472-2.169"/><path class="cls-1" d="M14,14.5a1,1,0,0,1-1,1H5a1,1,0,0,1,0-2h8A1,1,0,0,1,14,14.5Z"/><path class="cls-1" d="M14,12.5a1,1,0,0,1-1,1H5a1,1,0,0,1,0-2h8A1,1,0,0,1,14,12.5Z"/><path class="cls-1" d="M14,10.5a1,1,0,0,1-1,1H5a1,1,0,0,1,0-2h8A1,1,0,0,1,14,10.5Z"/><path class="cls-1" d="M13,13.5h2a2,2,0,0,1,2,2v2a1.5,1.5,0,0,0,3,0"/></svg>