<svg id="Light" xmlns="http://www.w3.org/2000/svg" viewBox="0 0 24 24"><defs><style>.cls-1{fill:none;stroke:#000;stroke-linecap:round;stroke-linejoin:round;}</style></defs><title>outdoors-tree-road</title><path class="cls-1" d="M14.305,12.805a2.774,2.774,0,0,1-1.836.7,2.875,2.875,0,0,1-2.81-2.478l-.032-.246a2.763,2.763,0,0,1-.041-5.018l.039-.226a2.065,2.065,0,0,1,2.031-2.1l.2-.209a2.642,2.642,0,1,1,5.282,0l.2.209a2.065,2.065,0,0,1,2.031,2.1l.243.33a2.765,2.765,0,0,1-.23,4.908l-.047.252a2.876,2.876,0,0,1-2.81,2.478,2.783,2.783,0,0,1-1.822-.681Z"/><line class="cls-1" x1="14.5" y1="7" x2="14.5" y2="17.5"/><path class="cls-1" d="M14.5,10.5a4,4,0,0,0,3.465-2"/><path class="cls-1" d="M14.5,9.5a3,3,0,0,1-3-3"/><path class="cls-1" d="M8.508,12.82l-.029.155A1.769,1.769,0,0,1,6.75,14.5a1.714,1.714,0,0,1-1.121-.419l-.249-.008a1.713,1.713,0,0,1-1.13.427,1.768,1.768,0,0,1-1.729-1.525l-.02-.151a1.7,1.7,0,0,1-.025-3.088L2.5,9.6A1.271,1.271,0,0,1,3.75,8.306l.125-.129A1.651,1.651,0,0,1,5.5,6.5a1.579,1.579,0,0,1,.5.08"/><line class="cls-1" x1="5.5" y1="11.5" x2="5.5" y2="17.5"/><line class="cls-1" x1="0.5" y1="17.5" x2="23.5" y2="17.5"/><line class="cls-1" x1="0.5" y1="23.5" x2="23.5" y2="23.5"/><line class="cls-1" x1="2.5" y1="20.5" x2="6.5" y2="20.5"/><line class="cls-1" x1="9.5" y1="20.5" x2="13.5" y2="20.5"/><line class="cls-1" x1="16.5" y1="20.5" x2="20.5" y2="20.5"/></svg>