<svg id="Light" xmlns="http://www.w3.org/2000/svg" viewBox="0 0 24 24"><defs><style>.cls-1{fill:none;stroke:#000;stroke-linecap:round;stroke-linejoin:round;}</style></defs><title>outdoors-camp-fire-guitar</title><path class="cls-1" d="M17.187,8.781a.254.254,0,0,0-.315.365,4.226,4.226,0,0,1-.067,3.983,1.424,1.424,0,0,1-1.483-.966.241.241,0,0,0-.344-.133,3.485,3.485,0,0,0-1.426,3.128,3.721,3.721,0,0,0,7.439-.17A6.079,6.079,0,0,0,17.187,8.781Z"/><line class="cls-1" x1="10.5" y1="23.479" x2="23.499" y2="19.475"/><line class="cls-1" x1="14" y1="20.555" x2="10.499" y2="19.479"/><line class="cls-1" x1="23.5" y1="23.475" x2="20.003" y2="22.4"/><path class="cls-1" d="M8.37,11.872a1,1,0,0,1,.827-1.1,2.007,2.007,0,0,0,1.105-.553c.976-.977.731-2.8-.548-4.082S6.648,4.614,5.672,5.591A2,2,0,0,0,5.12,6.7a1,1,0,0,1-1.1.827,3.161,3.161,0,0,0-2.653.833C0,9.723.274,12.212,1.978,13.916s4.194,1.976,5.561.609A3.16,3.16,0,0,0,8.37,11.872Z"/><rect class="cls-1" x="11.716" y="1.423" width="3.5" height="2" rx="1" ry="1" transform="translate(2.233 10.234) rotate(-45.015)"/><line class="cls-1" x1="12.229" y1="3.66" x2="9.754" y2="6.136"/><line class="cls-1" x1="12.581" y1="0.478" x2="13.289" y2="1.185"/><line class="cls-1" x1="14.703" y1="2.599" x2="15.411" y2="3.306"/><line class="cls-1" x1="13.643" y1="3.66" x2="14.35" y2="4.367"/><line class="cls-1" x1="11.521" y1="1.539" x2="12.228" y2="2.246"/><circle class="cls-1" cx="7.28" cy="8.611" r="1"/><line class="cls-1" x1="3.392" y1="11.087" x2="4.806" y2="12.501"/></svg>