<svg id="Light" xmlns="http://www.w3.org/2000/svg" viewBox="0 0 24 24"><defs><style>.cls-1{fill:none;stroke:#000;stroke-linecap:round;stroke-linejoin:round;}</style></defs><title>outdoors-bird-house</title><path class="cls-1" d="M15.758,16.6A7.993,7.993,0,0,0,12,23.382"/><path class="cls-1" d="M8.787,14.272A6.5,6.5,0,0,1,12,19.882"/><circle class="cls-1" cx="5.75" cy="13.132" r="3.25"/><circle class="cls-1" cx="18.5" cy="15.382" r="3"/><path class="cls-1" d="M9,2.563V7.882a.5.5,0,0,0,.5.5h5a.5.5,0,0,0,.5-.5V2.563"/><path class="cls-1" d="M6.5,4.382,11.412.81a1,1,0,0,1,1.176,0L17.5,4.382"/><line class="cls-1" x1="12" y1="5.882" x2="12" y2="23.382"/></svg>