<svg id="Light" xmlns="http://www.w3.org/2000/svg" viewBox="0 0 24 24"><defs><style>.cls-1{fill:none;stroke:#000;stroke-linecap:round;stroke-linejoin:round;}</style></defs><title>outdoors-camp-fire-marshmallows</title><path class="cls-1" d="M7.187,8.8a.253.253,0,0,0-.315.364,4.226,4.226,0,0,1-.067,3.983,1.424,1.424,0,0,1-1.483-.966.241.241,0,0,0-.344-.133,3.486,3.486,0,0,0-1.426,3.128,3.721,3.721,0,0,0,7.439-.169A6.078,6.078,0,0,0,7.187,8.8Z"/><line class="cls-1" x1="0.5" y1="23.5" x2="13.499" y2="19.497"/><line class="cls-1" x1="4" y1="20.576" x2="0.499" y2="19.5"/><line class="cls-1" x1="13.5" y1="23.497" x2="10.003" y2="22.422"/><line class="cls-1" x1="8.494" y1="0.498" x2="9.947" y2="1.95"/><rect class="cls-1" x="9.361" y="1.364" width="4" height="4" rx="0.5" ry="0.5" transform="translate(0.951 9.022) rotate(-45.015)"/><rect class="cls-1" x="14.312" y="6.312" width="4" height="4" rx="0.5" ry="0.5" transform="translate(-1.098 13.974) rotate(-45.015)"/><line class="cls-1" x1="12.776" y1="4.778" x2="14.898" y2="6.898"/><line class="cls-1" x1="17.727" y1="9.726" x2="23.498" y2="15.494"/></svg>