<svg id="Light" xmlns="http://www.w3.org/2000/svg" viewBox="0 0 24 24"><defs><style>.cls-1{fill:none;stroke:#000;stroke-linecap:round;stroke-linejoin:round;}</style></defs><title>outdoors-shelter-home</title><path class="cls-1" d="M23.5,13,12.492,6.778a1,1,0,0,0-.984,0L.5,13"/><path class="cls-1" d="M3.5,11.3V22.5a1,1,0,0,0,1,1H9a.5.5,0,0,0,.5-.5V18a.5.5,0,0,1,.5-.5h4a.5.5,0,0,1,.5.5v5a.5.5,0,0,0,.5.5h4.5a1,1,0,0,0,1-1V11.3"/><line class="cls-1" x1="16.5" y1="9.043" x2="16.5" y2="0.5"/><line class="cls-1" x1="20" y1="5.5" x2="16.5" y2="5.5"/><path class="cls-1" d="M21,2.5h1.5a1,1,0,0,1,1,1v2a1,1,0,0,1-1,1h-2A.5.5,0,0,1,20,6V2.5Z"/><path class="cls-1" d="M16.5,1.5h3A.5.5,0,0,1,20,2v.5"/></svg>