<svg id="Light" xmlns="http://www.w3.org/2000/svg" viewBox="0 0 24 24"><defs><style>.cls-1{fill:none;stroke:#000;stroke-linecap:round;stroke-linejoin:round;}</style></defs><title>outdoors-dog-house</title><line class="cls-1" x1="23.5" y1="0.479" x2="0.5" y2="7.451"/><path class="cls-1" d="M1.5,7.148V22.479a1,1,0,0,0,1,1h21"/><path class="cls-1" d="M20.5,6.979V5.408a.25.25,0,0,0-.371-.218,6.411,6.411,0,0,0-3.477,4.556.993.993,0,0,1-.963.733H8.5a2,2,0,0,0-2,2v1.027a2,2,0,0,1-.211.895l-.578,1.155a2,2,0,0,0-.211.9v3.528a1,1,0,0,0,2,0V17.807a2,2,0,0,1,.586-1.414L9,15.479v1.5a1,1,0,0,0,.105.447l1.5,3a1,1,0,0,0,1.79-.895L11.079,16.9c.127-.387.239-.739.339-1.051a.5.5,0,0,1,.475-.344H15.54a.5.5,0,0,1,.5.459l.346,4.146a1,1,0,0,0,.991.868H17.5a1,1,0,0,0,1-1v-.736c0-4.11.031-5.156,2-8.764H22a1.176,1.176,0,0,0,1.107-.446l.324-.869a.25.25,0,0,0-.1-.295Z"/><path class="cls-1" d="M7.112,11.039a2.013,2.013,0,0,0-2.9,1.033L3.5,13.979"/></svg>