<svg id="Light" xmlns="http://www.w3.org/2000/svg" viewBox="0 0 24 24"><defs><style>.cls-1{fill:none;stroke:#000;stroke-linecap:round;stroke-linejoin:round;}</style></defs><title>paralympics-ball</title><circle class="cls-1" cx="7" cy="4" r="2.5"/><path class="cls-1" d="M16.38,20.2l-1.913-3.061A3.482,3.482,0,0,0,11.5,15.5H9a.5.5,0,0,1-.5-.5V11.5H10.52a4.494,4.494,0,0,0,4.137-2.728l.721-1.682A1.5,1.5,0,1,0,12.62,5.907L11.9,7.589A1.5,1.5,0,0,1,10.52,8.5H7A1.5,1.5,0,0,0,5.5,10v7A1.5,1.5,0,0,0,7,18.5h4.5a.505.505,0,0,1,.424.234l1.913,3.061A1.5,1.5,0,1,0,16.38,20.2Z"/><path class="cls-1" d="M10.083,20.5A5,5,0,1,1,3.5,13.916"/><circle class="cls-1" cx="20.5" cy="3.5" r="3"/></svg>