<svg id="Light" xmlns="http://www.w3.org/2000/svg" viewBox="0 0 24 24"><defs><style>.cls-1{fill:none;stroke:#000;stroke-linecap:round;stroke-linejoin:round;}</style></defs><title>paralympics-racing</title><circle class="cls-1" cx="12" cy="3" r="2.5"/><path class="cls-1" d="M6.053,11.325l.177-.147A2.918,2.918,0,0,1,8.1,10.5h.4A.5.5,0,0,1,9,11v2"/><path class="cls-1" d="M21,15.414c1.991-.7.786-4.794-1.132-6.393l-.176-.147A5.931,5.931,0,0,0,15.9,7.5H8.1A5.931,5.931,0,0,0,4.308,8.874l-.176.147c-1.917,1.6-3.126,5.69-1.13,6.394"/><path class="cls-1" d="M15,13V11a.5.5,0,0,1,.5-.5h.4a2.916,2.916,0,0,1,1.871.678l.177.147"/><path class="cls-1" d="M13.5,22a1.5,1.5,0,0,1-3,0V15.5a1.5,1.5,0,0,1,3,0Z"/><path class="cls-1" d="M19.97,19.757a1,1,0,0,1-1.942.485l-1.454-5.821a1,1,0,1,1,1.941-.485Z"/><line class="cls-1" x1="13.5" y1="17" x2="17.219" y2="17"/><path class="cls-1" d="M4.029,19.757a1,1,0,0,0,1.941.485l1.455-5.821a1,1,0,1,0-1.941-.485Z"/><line class="cls-1" x1="10.5" y1="17" x2="6.781" y2="17"/></svg>