<svg id="Light" xmlns="http://www.w3.org/2000/svg" viewBox="0 0 24 24"><defs><style>.cls-1{fill:none;stroke:#000;stroke-linecap:round;stroke-linejoin:round;}</style></defs><title>paralympics-running</title><circle class="cls-1" cx="14.251" cy="3" r="2.5"/><path class="cls-1" d="M13.912,17.356a1.609,1.609,0,0,0,.874-2.718,4.036,4.036,0,0,0-1.41-1l-1.207-.482,1.043-2.928,2.5.909a4.5,4.5,0,0,0,5.052-1.417L21.42,8.9a1.5,1.5,0,0,0-2.341-1.875l-.656.819a1.493,1.493,0,0,1-1.684.472l-7-2.544A4.513,4.513,0,0,0,4.748,7.12L3.6,8.5a1.5,1.5,0,0,0,2.3,1.92L7.052,9.04a1.506,1.506,0,0,1,1.665-.449l1.676.609c-.039.109-.214.6-1.881,5.274a1.5,1.5,0,0,1-.763.874,1.178,1.178,0,0,0-.66,1.058,1.609,1.609,0,0,0,2.5,1.34,4.464,4.464,0,0,0,1.55-1.775,4.073,4.073,0,0,1,1.66.942A1.155,1.155,0,0,0,13.912,17.356Z"/><path class="cls-1" d="M8.486,18H3.86a1.609,1.609,0,0,0-1.609,1.609v.031a1.61,1.61,0,0,0,.715,1.338"/><path class="cls-1" d="M15.174,16.262,13.8,21.476a1.608,1.608,0,0,0,1.149,1.964l.029.008a1.61,1.61,0,0,0,1.476-.354"/></svg>