<svg xmlns="http://www.w3.org/2000/svg" viewBox="0 0 24 24"><defs><style>.a{fill:none;stroke:#000;stroke-linecap:round;stroke-linejoin:round;}</style></defs><title>parking-ramp</title><path class="a" d="M2.5,13.375h12a2,2,0,0,1,2,2v3a1,1,0,0,1-1,1H1.5a1,1,0,0,1-1-1v-3A2,2,0,0,1,2.5,13.375Z"/><path class="a" d="M3,13.375l.347-3.166A2,2,0,0,1,5.341,8.375h6.32a2,2,0,0,1,1.993,1.834L14,13.375"/><circle class="a" cx="3.501" cy="16.375" r="1"/><circle class="a" cx="13.501" cy="16.375" r="1"/><path class="a" d="M5.5,19.375v1.5a1.5,1.5,0,0,1-3,0v-1.5"/><path class="a" d="M14.5,19.375v1.5a1.5,1.5,0,0,1-3,0v-1.5"/><path class="a" d="M23.5,10.875a2,2,0,1,0-4,0v11.5h4Z"/><line class="a" x1="19.499" y1="11.375" x2="8.124" y2="1.625"/><line class="a" x1="19.499" y1="14.875" x2="23.487" y2="10.863"/><line class="a" x1="19.499" y1="18.625" x2="23.499" y2="14.629"/><line class="a" x1="19.499" y1="22.375" x2="23.499" y2="18.375"/></svg>