<svg xmlns="http://www.w3.org/2000/svg" viewBox="0 0 24 24"><defs><style>.a{fill:none;stroke:#000;stroke-linecap:round;stroke-linejoin:round;}</style></defs><title>parking-p-1</title><circle class="a" cx="17" cy="7" r="6.5"/><path class="a" d="M15.5,10.5v-7h2a2,2,0,0,1,0,4h-2"/><path class="a" d="M19.44,16.01a2.03,2.03,0,0,1,.06.49v3a1,1,0,0,1-1,1H1.5a1,1,0,0,1-1-1v-3a2,2,0,0,1,2-2h8"/><path class="a" d="M3,14.5l.347-3.166A2,2,0,0,1,5.34,9.5H7.5"/><circle class="a" cx="3.5" cy="17.5" r="1"/><circle class="a" cx="16.5" cy="17.5" r="1"/><path class="a" d="M5.5,20.5V22a1.5,1.5,0,0,1-3,0V20.5"/><path class="a" d="M17.5,20.5V22a1.5,1.5,0,0,1-3,0V20.5"/><line class="a" x1="0.5" y1="12.5" x2="3" y2="14.5"/></svg>