<svg xmlns="http://www.w3.org/2000/svg" viewBox="0 0 24 24"><defs><style>.a{fill:none;stroke:#000;stroke-linecap:round;stroke-linejoin:round;}</style></defs><title>parking-p</title><path class="a" d="M4.5,21.5V23a.5.5,0,0,1-.5.5H2a.5.5,0,0,1-.5-.5V21.5"/><path class="a" d="M18.5,21.5V23a.5.5,0,0,1-.5.5H16a.5.5,0,0,1-.5-.5V21.5"/><path class="a" d="M19,21.5a.5.5,0,0,0,.5-.5V17.707a.5.5,0,0,0-.146-.353L17.5,15.5H2.5L.646,17.354a.5.5,0,0,0-.146.353V21a.5.5,0,0,0,.5.5Z"/><path class="a" d="M8.951,10.5H4.839a.5.5,0,0,0-.465.314L2.5,15.5"/><line class="a" x1="0.5" y1="19.5" x2="5" y2="19.5"/><line class="a" x1="15" y1="19.5" x2="19.5" y2="19.5"/><circle class="a" cx="17" cy="7" r="6.5"/><path class="a" d="M15.5,10.5v-7h2a2,2,0,0,1,0,4h-2"/></svg>