<svg id="Light" xmlns="http://www.w3.org/2000/svg" viewBox="0 0 24 24"><defs><style>.cls-1{fill:none;stroke:#000;stroke-linecap:round;stroke-linejoin:round;}</style></defs><title>parrot-1</title><path class="cls-1" d="M17.044,4.5a.25.25,0,0,0-.25.25"/><path class="cls-1" d="M17.294,4.75a.25.25,0,0,0-.25-.25"/><path class="cls-1" d="M17.044,5a.25.25,0,0,0,.25-.25"/><path class="cls-1" d="M16.794,4.75a.25.25,0,0,0,.25.25"/><path class="cls-1" d="M20.651,10.621a2.4,2.4,0,0,0-2.4-2.4,2.218,2.218,0,0,0-.272.028,2.392,2.392,0,1,1,2.644,2.643A2.432,2.432,0,0,0,20.651,10.621Z"/><path class="cls-1" d="M20.652,10.38a1.8,1.8,0,0,1-2.7-1.558l.028-.572"/><path class="cls-1" d="M15.664,2.628a4.045,4.045,0,0,0-1.771,3.5,4.645,4.645,0,0,0,.288,1.609"/><path class="cls-1" d="M18.909,12.856C18.234,17.847,15.2,22,8.25,22"/><path class="cls-1" d="M20.163,6.13a2.048,2.048,0,0,0,1.849-2.037C22.012,2.9,19.847.5,16.75.5A6,6,0,0,0,11.294,9C6.25,11,2.75,16.5,1.25,23.5c7.5,0,11.5-4,12-10"/><line class="cls-1" x1="14.684" y1="20.303" x2="15.75" y2="23.5"/><line class="cls-1" x1="17.25" y1="23.5" x2="11.25" y2="23.5"/><line class="cls-1" x1="12.75" y1="21.274" x2="12.75" y2="23.5"/></svg>