<svg id="Light" xmlns="http://www.w3.org/2000/svg" viewBox="0 0 24 24"><defs><style>.cls-1{fill:none;stroke:#000;stroke-linecap:round;stroke-linejoin:round;}</style></defs><title>party-water-gun</title><path class="cls-1" d="M14.5,14.5H4.5a2,2,0,0,1-2-2h0a2,2,0,0,1,2-2h10a1,1,0,0,1,1,1v2A1,1,0,0,1,14.5,14.5Z"/><line class="cls-1" x1="15.5" y1="12.5" x2="19.5" y2="12.5"/><path class="cls-1" d="M18.281,4.726,16.8,2.875a1,1,0,0,0-.781-.375H4.5a4,4,0,0,0,0,8H16.02a1,1,0,0,0,.779-.373l1.48-1.836a1,1,0,0,0,.221-.627V5.351A1,1,0,0,0,18.281,4.726Z"/><path class="cls-1" d="M12.5,14.5H9L4.771,19.882A1,1,0,0,0,5.557,21.5H8.841a1,1,0,0,0,.919-.606Z"/><path class="cls-1" d="M13,14.5S12.8,18,16,18"/><line class="cls-1" x1="20.5" y1="6.5" x2="22.5" y2="6.5"/><line class="cls-1" x1="12.5" y1="2.5" x2="12.5" y2="10.5"/><path class="cls-1" d="M23.5,12.5a2,2,0,0,1-2,2h-1a1,1,0,0,1-1-1v-2a1,1,0,0,1,1-1h1A2,2,0,0,1,23.5,12.5Z"/></svg>