<svg id="Light" xmlns="http://www.w3.org/2000/svg" viewBox="0 0 24 24"><defs><style>.cls-1{fill:none;stroke:#000;stroke-linecap:round;stroke-linejoin:round;}</style></defs><title>party-music</title><line class="cls-1" x1="3.5" y1="19" x2="5" y2="20.5"/><circle class="cls-1" cx="9.186" cy="14.814" r="1.5"/><path class="cls-1" d="M11.5,17.926a3.654,3.654,0,0,0,1.928-.991,4.132,4.132,0,0,0,.278-5.227l5.2-5.2a1,1,0,0,0,1.414,0l2.121-2.121a2,2,0,0,0-2.828-2.828L17.49,3.682a1,1,0,0,0,0,1.414l-5.2,5.2a4.132,4.132,0,0,0-5.227.278A3.647,3.647,0,0,0,6.074,12.5,5.5,5.5,0,1,0,11.5,17.926Z"/><line class="cls-1" x1="18.55" y1="0.5" x2="19.611" y2="1.561"/><line class="cls-1" x1="17.136" y1="1.914" x2="18.197" y2="2.975"/><line class="cls-1" x1="22.439" y1="4.389" x2="23.5" y2="5.45"/><line class="cls-1" x1="21.025" y1="5.803" x2="22.086" y2="6.864"/><path class="cls-1" d="M15.5,17.564l4.881,4.229a1,1,0,1,0,1.414,1.414l1.414-1.414a1,1,0,1,0-1.414-1.414l-5.283-6.1"/><path class="cls-1" d="M10.689,7.564,5.4,1.463A2.793,2.793,0,1,0,1.463,5.4L5.719,9.091"/></svg>