<svg id="Light" xmlns="http://www.w3.org/2000/svg" viewBox="0 0 24 24"><defs><style>.cls-1{fill:none;stroke:#000;stroke-linecap:round;stroke-linejoin:round;}</style></defs><title>party-music-dance-woman</title><circle class="cls-1" cx="19.237" cy="5.023" r="1.575"/><polyline class="cls-1" points="20.802 5.198 21.327 0.503 23.5 2.331"/><circle class="cls-1" cx="19.547" cy="13.603" r="1.188"/><polyline class="cls-1" points="20.703 13.328 19.879 9.862 21.887 10.605"/><circle class="cls-1" cx="5" cy="2.994" r="2.5"/><path class="cls-1" d="M13.234,15.018c.365-.116,1.2-.457,1.283-.816a1,1,0,0,0-.268-.945L9.589,9.138c.157-.036.308-.088.467-.115l3.24-.54A1.5,1.5,0,1,0,12.8,5.524l-3.24.54A10.247,10.247,0,0,0,4.006,8.907L.945,11.937a1.5,1.5,0,1,0,2.11,2.132l2.861-2.832L4.682,15.913a1,1,0,0,0,.335.914,2.1,2.1,0,0,0,1.408.278l.009,0L5.061,21.58a1.5,1.5,0,1,0,2.878.847l1.249-4.21.523-1.777.747.868a2.191,2.191,0,0,1,.476,1.894l-.4,1.976a1.5,1.5,0,1,0,2.928.651l.6-2.7c.036-.718.318-2.778-.743-4.01Z"/></svg>