<svg id="Light" xmlns="http://www.w3.org/2000/svg" viewBox="0 0 24 24"><defs><style>.cls-1{fill:none;stroke:#000;stroke-linecap:round;stroke-linejoin:round;}</style></defs><title>party-decoration</title><line class="cls-1" x1="0.5" y1="1.524" x2="23.5" y2="8.155"/><path class="cls-1" d="M1.325,1.762l.891,6.006a.5.5,0,0,0,.87.258l4.047-4.59"/><path class="cls-1" d="M8.987,3.971,9.829,10a.5.5,0,0,0,.867.265l4.139-4.611"/><path class="cls-1" d="M16.64,6.177l.842,6.04a.5.5,0,0,0,.868.265l4.144-4.617"/><line class="cls-1" x1="0.5" y1="17.024" x2="23.5" y2="14.446"/><path class="cls-1" d="M.919,16.977l3.067,5.251a.5.5,0,0,0,.9-.085L6.966,16.3"/><path class="cls-1" d="M9.126,16.057l3.09,5.294a.5.5,0,0,0,.9-.085l2.1-5.891"/><path class="cls-1" d="M16.94,15.181l3.051,5.227a.5.5,0,0,0,.9-.085l2.068-5.817"/></svg>