<svg id="Light" xmlns="http://www.w3.org/2000/svg" viewBox="0 0 24 24"><defs><style>.cls-1{fill:none;stroke:#000;stroke-linecap:round;stroke-linejoin:round;}</style></defs><title>pasta-fork</title><path class="cls-1" d="M17.208,15.25a4.005,4.005,0,0,1-3.708,2.5h-2a2,2,0,0,0-2,2,1,1,0,0,1-2,0,4,4,0,0,1,4-4h2"/><path class="cls-1" d="M.5,10.75H7.177a2.006,2.006,0,0,1,1.732,1,4.075,4.075,0,0,0,3.591,2v-9a4.075,4.075,0,0,0-3.591,2,2,2,0,0,1-1.732,1H.5"/><line class="cls-1" x1="21.5" y1="4.75" x2="23.5" y2="4.75"/><line class="cls-1" x1="12.5" y1="4.75" x2="15.5" y2="4.75"/><line class="cls-1" x1="21.5" y1="7.75" x2="23.5" y2="7.75"/><line class="cls-1" x1="12.5" y1="7.75" x2="15.5" y2="7.75"/><line class="cls-1" x1="21.5" y1="10.75" x2="23.5" y2="10.75"/><line class="cls-1" x1="12.5" y1="10.75" x2="15.5" y2="10.75"/><line class="cls-1" x1="21.5" y1="13.75" x2="23.5" y2="13.75"/><line class="cls-1" x1="12.5" y1="13.75" x2="15.5" y2="13.75"/><path class="cls-1" d="M20.5,3.25a1,1,0,0,0-1,1v10a1,1,0,0,0,2,0v-10A1,1,0,0,0,20.5,3.25Z"/><path class="cls-1" d="M18.5,3.25a1,1,0,0,0-1,1v10a1,1,0,0,0,2,0v-10A1,1,0,0,0,18.5,3.25Z"/><path class="cls-1" d="M16.5,3.25a1,1,0,0,0-1,1v10a1,1,0,0,0,2,0v-10A1,1,0,0,0,16.5,3.25Z"/></svg>