<svg xmlns="http://www.w3.org/2000/svg" viewBox="0 0 24 24"><defs><style>.a{fill:none;stroke:#000;stroke-linecap:round;stroke-linejoin:round;}</style></defs><title>pathfinder-minus-back</title><path class="a" d="M1.5,4a1,1,0,0,0-1,1"/><line class="a" x1="0.5" y1="7" x2="0.5" y2="8"/><line class="a" x1="4.5" y1="4" x2="3.5" y2="4"/><line class="a" x1="4.5" y1="20" x2="3.5" y2="20"/><line class="a" x1="7.5" y1="4" x2="6.5" y2="4"/><line class="a" x1="10.5" y1="4" x2="9.5" y2="4"/><line class="a" x1="7.5" y1="20" x2="6.5" y2="20"/><line class="a" x1="10.5" y1="20" x2="9.5" y2="20"/><line class="a" x1="13.5" y1="20" x2="12.5" y2="20"/><line class="a" x1="16.5" y1="20" x2="15.5" y2="20"/><line class="a" x1="19.5" y1="20" x2="18.5" y2="20"/><path class="a" d="M21.5,20a1,1,0,0,0,1-1"/><path class="a" d="M1.5,20a1,1,0,0,1-1-1"/><line class="a" x1="22.5" y1="17" x2="22.5" y2="16"/><line class="a" x1="22.5" y1="14" x2="22.5" y2="13"/><line class="a" x1="0.5" y1="17" x2="0.5" y2="16"/><line class="a" x1="0.5" y1="14" x2="0.5" y2="13"/><line class="a" x1="0.5" y1="11" x2="0.5" y2="10"/><rect class="a" x="13.5" y="4" width="9" height="6" rx="1" ry="1"/></svg>