<svg xmlns="http://www.w3.org/2000/svg" viewBox="0 0 24 24"><defs><style>.a{fill:none;stroke:#000;stroke-linecap:round;stroke-linejoin:round;}</style></defs><title>pathfinder-merge</title><path class="a" d="M8.5,23.5a1,1,0,0,1-1-1"/><path class="a" d="M22.5,23.5a1,1,0,0,0,1-1"/><line class="a" x1="7.5" y1="20.5" x2="7.5" y2="19.5"/><line class="a" x1="11.5" y1="23.5" x2="10.5" y2="23.5"/><line class="a" x1="14.5" y1="23.5" x2="13.5" y2="23.5"/><line class="a" x1="10.5" y1="16.5" x2="9.5" y2="16.5"/><line class="a" x1="13.5" y1="16.5" x2="12.5" y2="16.5"/><line class="a" x1="17.5" y1="23.5" x2="16.5" y2="23.5"/><line class="a" x1="20.5" y1="23.5" x2="19.5" y2="23.5"/><line class="a" x1="20.5" y1="7.5" x2="19.5" y2="7.5"/><path class="a" d="M22.5,7.5a1,1,0,0,1,1,1"/><line class="a" x1="23.5" y1="10.5" x2="23.5" y2="11.5"/><line class="a" x1="23.5" y1="13.5" x2="23.5" y2="14.5"/><line class="a" x1="16.5" y1="9.5" x2="16.5" y2="10.5"/><line class="a" x1="16.5" y1="12.5" x2="16.5" y2="13.5"/><line class="a" x1="23.5" y1="16.5" x2="23.5" y2="17.5"/><line class="a" x1="23.5" y1="19.5" x2="23.5" y2="20.5"/><path class="a" d="M7.5,16.5h-6a1,1,0,0,1-1-1V1.5a1,1,0,0,1,1-1h14a1,1,0,0,1,1,1v6"/><path class="a" d="M15.5,16.5a1,1,0,0,0,1-1"/></svg>