<svg xmlns="http://www.w3.org/2000/svg" viewBox="0 0 24 24"><defs><style>.a{fill:none;stroke:#000;stroke-linecap:round;stroke-linejoin:round;}</style></defs><title>payment-paypal</title><path class="a" d="M12.422,8.863a3.362,3.362,0,0,0,.481-.37,2.917,2.917,0,0,0,.85-1.424,1.7,1.7,0,0,0-.581-1.911,1.791,1.791,0,0,0-1.061-.328H9.721l-.076.328-.97,4.151h2.289A2.773,2.773,0,0,0,12.422,8.863Z"/><path class="a" d="M1.615,18.484,5.589,1.493H13.9c2.49,0,5.265,1.79,4.43,5.576a6.8,6.8,0,0,1-6.86,5.424H7.988L6.494,18.484Z"/><path class="a" d="M20.985,6.681a4.762,4.762,0,0,1,.363,3.405,6.741,6.741,0,0,1-6.713,5.4c-.317.006-3.291,0-3.609,0L9.509,21.5H4.631l.34-1.511"/></svg>