<svg id="Light" xmlns="http://www.w3.org/2000/svg" viewBox="0 0 24 24"><defs><style>.cls-1{fill:none;stroke:#000;stroke-linecap:round;stroke-linejoin:round;}</style></defs><title>peacock-feathers</title><path class="cls-1" d="M12,12.25a.25.25,0,0,1,.25.25"/><path class="cls-1" d="M11.75,12.5a.25.25,0,0,1,.25-.25"/><path class="cls-1" d="M12,12.75a.25.25,0,0,1-.25-.25"/><path class="cls-1" d="M12.25,12.5a.25.25,0,0,1-.25.25"/><path class="cls-1" d="M15,12.5a3,3,0,1,1-6,0c0-1.657,3-6,3-6S15,10.843,15,12.5Z"/><path class="cls-1" d="M4.905,6.269a.248.248,0,0,1,.326.136"/><path class="cls-1" d="M4.769,6.594a.25.25,0,0,1,.136-.325"/><path class="cls-1" d="M5.1,6.731a.25.25,0,0,1-.326-.137"/><path class="cls-1" d="M5.231,6.405a.249.249,0,0,1-.136.326"/><path class="cls-1" d="M7.774,5.358A3,3,0,1,1,2.227,7.642C1.6,6.108,2.718.951,2.718.951S7.144,3.826,7.774,5.358Z"/><path class="cls-1" d="M5.808,18.341a.248.248,0,0,1,.352-.032"/><path class="cls-1" d="M5.84,18.693a.249.249,0,0,1-.032-.352"/><path class="cls-1" d="M6.192,18.661a.25.25,0,0,1-.352.032"/><path class="cls-1" d="M6.16,18.309a.25.25,0,0,1,.032.352"/><path class="cls-1" d="M7.921,16.2A3,3,0,0,1,4.08,20.807C2.807,19.744,1.392,14.66,1.392,14.66S6.648,15.135,7.921,16.2Z"/><line class="cls-1" x1="12" y1="15.5" x2="12" y2="23.5"/><line class="cls-1" x1="8.305" y1="20.42" x2="12" y2="23.5"/><line class="cls-1" x1="6.14" y1="9.269" x2="7" y2="11.5"/><path class="cls-1" d="M19.1,6.269a.248.248,0,0,0-.326.136"/><path class="cls-1" d="M19.231,6.594a.25.25,0,0,0-.136-.325"/><path class="cls-1" d="M18.905,6.731a.25.25,0,0,0,.326-.137"/><path class="cls-1" d="M18.769,6.405a.249.249,0,0,0,.136.326"/><path class="cls-1" d="M16.226,5.358a3,3,0,1,0,5.547,2.284c.632-1.534-.491-6.691-.491-6.691S16.856,3.826,16.226,5.358Z"/><path class="cls-1" d="M18.192,18.341a.249.249,0,0,0-.352-.032"/><path class="cls-1" d="M18.16,18.693a.249.249,0,0,0,.032-.352"/><path class="cls-1" d="M17.808,18.661a.25.25,0,0,0,.352.032"/><path class="cls-1" d="M17.84,18.309a.25.25,0,0,0-.032.352"/><path class="cls-1" d="M16.079,16.2a3,3,0,0,0,3.841,4.611c1.273-1.063,2.688-6.147,2.688-6.147S17.352,15.135,16.079,16.2Z"/><line class="cls-1" x1="15.695" y1="20.42" x2="12" y2="23.5"/><line class="cls-1" x1="17.86" y1="9.269" x2="17" y2="11.5"/><line class="cls-1" x1="12" y1="4.5" x2="12" y2="2.5"/><path class="cls-1" d="M14,.5a2.151,2.151,0,0,1-2,2,2.151,2.151,0,0,1-2-2"/></svg>