<svg xmlns="http://www.w3.org/2000/svg" viewBox="0 0 24 24"><defs><style>.a{fill:none;stroke:#000;stroke-linecap:round;stroke-linejoin:round;}</style></defs><title>people-woman-14</title><path class="a" d="M23.5,23.5v-1a4,4,0,0,0-2.6-3.745L16,17.109"/><path class="a" d="M8,17.109,3.1,18.755A4,4,0,0,0,.5,22.5v1"/><path class="a" d="M11,9a1.089,1.089,0,0,0-1-.5A1.089,1.089,0,0,0,9,9"/><path class="a" d="M15,9a1.089,1.089,0,0,0-1-.5A1.089,1.089,0,0,0,13,9"/><path class="a" d="M18.186,6.737A16.091,16.091,0,0,0,5.853,6.72"/><line class="a" x1="4.5" y1="18.284" x2="4.5" y2="23.5"/><line class="a" x1="19.5" y1="18.284" x2="19.5" y2="23.5"/><path class="a" d="M12.02,16.5c1.387,0,4.49-1.721,4.932-4.365a1,1,0,0,1,.572-.746C18.6,10.9,18.872,8.937,18,8.5c.5-2.986.5-8-5.982-8s-6.477,5.014-5.981,8c-.871.437-.6,2.4.478,2.889a1,1,0,0,1,.572.746C7.53,14.779,10.633,16.5,12.02,16.5Z"/><path class="a" d="M5.732,10.545a5.173,5.173,0,0,1-1.961,3.173.5.5,0,0,0-.041.831,4.427,4.427,0,0,0,2.915.932"/><path class="a" d="M18.309,10.545a5.164,5.164,0,0,0,1.961,3.173.5.5,0,0,1,.04.831,4.425,4.425,0,0,1-2.915.932"/><path class="a" d="M10.5,13a1.967,1.967,0,0,0,1.358.5h.284A1.965,1.965,0,0,0,13.5,13"/><path class="a" d="M17.409,17.582a5.945,5.945,0,0,1-10.818,0"/><path class="a" d="M5.358,7.078c.634-.77-.937-2.861-3.073-2.546a.037.037,0,0,0-.022.012C2.352,6.71,4.714,7.859,5.35,7.087Z"/><path class="a" d="M5.358,7.578c.634.77-.937,2.861-3.073,2.546a.043.043,0,0,1-.022-.012C2.352,7.946,4.714,6.8,5.35,7.568Z"/></svg>