<svg xmlns="http://www.w3.org/2000/svg" viewBox="0 0 24 24"><defs><style>.a{fill:none;stroke:#000;stroke-linecap:round;stroke-linejoin:round;}</style></defs><title>people-man-1</title><path class="a" d="M23.5,23.5a4,4,0,0,0-2.6-3.745l-5.03-1.689a.5.5,0,0,0-.572.192,4,4,0,0,1-6.6,0,.5.5,0,0,0-.572-.191L3.1,19.755A4,4,0,0,0,.5,23.5"/><path class="a" d="M17.409,18.582a5.945,5.945,0,0,1-10.818,0"/><path class="a" d="M16.361,7.737l-.339-1.7c-4,0-4-2-4-2h-.084s0,2-4,2L7.6,7.737"/><path class="a" d="M10.5,13.04a1.967,1.967,0,0,0,1.358.5h.284a1.965,1.965,0,0,0,1.358-.5"/><path class="a" d="M11,9.04a1.087,1.087,0,0,0-1-.5,1.089,1.089,0,0,0-1,.5"/><path class="a" d="M15,9.04a1.087,1.087,0,0,0-1-.5,1.089,1.089,0,0,0-1,.5"/><path class="a" d="M11.98,16.541c1.392,0,4.5-1.721,4.947-4.365a1,1,0,0,1,.574-.747c1.082-.49,1.352-2.452.479-2.888.5-2.986.5-8-6-8s-6.5,5.014-6,8c-.873.436-.6,2.4.479,2.888a1,1,0,0,1,.574.747C7.476,14.82,10.589,16.541,11.98,16.541Z"/></svg>