<svg xmlns="http://www.w3.org/2000/svg" viewBox="0 0 24 24"><defs><style>.a{fill:none;stroke:#000;stroke-linecap:round;stroke-linejoin:round;}</style></defs><title>people-man-graduate</title><polyline class="a" points="7.899 19.111 11.962 23.485 16.043 19.092"/><path class="a" d="M11.829,4.455a.982.982,0,0,0,.342,0l9.913-1.724a.25.25,0,0,0,0-.492L12.171.515a.982.982,0,0,0-.342,0L1.916,2.239a.25.25,0,0,0,0,.492Z"/><path class="a" d="M2,8.485a10.929,10.929,0,0,0-1.482,4.5.469.469,0,0,0,.468.5h2a.5.5,0,0,0,.5-.538A10.95,10.95,0,0,0,2,8.485Z"/><line class="a" x1="2" y1="2.746" x2="2" y2="8.485"/><line class="a" x1="6" y1="10.485" x2="6" y2="3.442"/><line class="a" x1="18" y1="3.442" x2="18" y2="10.485"/><path class="a" d="M6,7.485a18.977,18.977,0,0,0,12,0"/><path class="a" d="M10.48,14.885a2.175,2.175,0,0,0,3,0"/><path class="a" d="M11,10.985a1.089,1.089,0,0,0-1-.5,1.089,1.089,0,0,0-1,.5"/><path class="a" d="M15,10.985a1.089,1.089,0,0,0-1-.5,1.089,1.089,0,0,0-1,.5"/><path class="a" d="M5.98,10.485c-.874.437-.6,2.4.479,2.889a1,1,0,0,1,.574.746c.443,2.644,3.555,4.365,4.947,4.365s4.5-1.721,4.947-4.365a1,1,0,0,1,.574-.746c1.081-.49,1.352-2.452.479-2.889"/><path class="a" d="M16.043,19.092,21,20.737l.018.006A4.007,4.007,0,0,1,23.5,23.485"/><path class="a" d="M7.9,19.111,3,20.737l-.018.006A4.007,4.007,0,0,0,.5,23.485"/></svg>