<svg xmlns="http://www.w3.org/2000/svg" viewBox="0 0 24 24"><defs><style>.a{fill:none;stroke:#000;stroke-linecap:round;stroke-linejoin:round;}</style></defs><title>people-woman-12</title><path class="a" d="M16.5,7A5,5,0,0,1,12,4.182,5,5,0,0,1,7.5,7,4.866,4.866,0,0,1,7,6.975V9.5a5,5,0,0,0,10,0V6.975A4.866,4.866,0,0,1,16.5,7Z"/><path class="a" d="M8.083,16.312a4,4,0,0,0,7.834,0"/><path class="a" d="M19,18.769V7.5a7,7,0,0,0-14,0V18.769"/><path class="a" d="M13.5,11a2.5,2.5,0,0,1-3,0"/><path class="a" d="M14,8.25a.25.25,0,1,1-.25.25A.25.25,0,0,1,14,8.25"/><path class="a" d="M10,8.25a.25.25,0,1,1-.25.25A.25.25,0,0,1,10,8.25"/><path class="a" d="M8,20.5c0,1.105-2,3-2,3s-2-1.895-2-3a2,2,0,0,1,4,0Z"/><path class="a" d="M16,20.5c0,1.105,2,3,2,3s2-1.895,2-3a2,2,0,0,0-4,0Z"/><line class="a" x1="17" y1="9.5" x2="17" y2="18.768"/><line class="a" x1="7" y1="9.5" x2="7" y2="18.768"/><path class="a" d="M23,23.5V20.394a1.976,1.976,0,0,0-.77-1.579A12.136,12.136,0,0,0,19,17.109"/><path class="a" d="M5,17.109a12.136,12.136,0,0,0-3.23,1.706A1.976,1.976,0,0,0,1,20.394V23.5"/><path class="a" d="M17,16.525A22.474,22.474,0,0,0,12,16a22.474,22.474,0,0,0-5,.525"/></svg>