<svg xmlns="http://www.w3.org/2000/svg" viewBox="0 0 24 24"><defs><style>.a{fill:none;stroke:#000;stroke-linecap:round;stroke-linejoin:round;}</style></defs><title>people-man-3</title><path class="a" d="M13.5,13a2.5,2.5,0,0,1-3,0"/><path class="a" d="M23,23.5V22.394a1.976,1.976,0,0,0-.77-1.579C20.9,19.8,17.73,18,12,18S3.105,19.8,1.77,20.815A1.976,1.976,0,0,0,1,22.394V23.5"/><path class="a" d="M14,10.25a.25.25,0,1,1-.25.25.25.25,0,0,1,.25-.25"/><path class="a" d="M10,10.25a.25.25,0,1,1-.25.25.25.25,0,0,1,.25-.25"/><path class="a" d="M8.083,18.312a4,4,0,0,0,7.834,0"/><path class="a" d="M16.584,13.5a3,3,0,0,0,2.457-4.592A3.5,3.5,0,0,0,16.5,3c-.056,0-.111,0-.167,0A5,5,0,0,0,7.667,3C7.611,3,7.556,3,7.5,3A3.5,3.5,0,0,0,4.959,8.906,3,3,0,0,0,7.416,13.5"/><path class="a" d="M16,8.5a2,2,0,0,1-1.846-1.23,2.5,2.5,0,0,1-4.308,0A2,2,0,0,1,7,8.232V11.5a5,5,0,0,0,10,0V8.232A1.99,1.99,0,0,1,16,8.5Z"/></svg>