<svg xmlns="http://www.w3.org/2000/svg" viewBox="0 0 24 24"><defs><style>.a{fill:none;stroke:#000;stroke-linecap:round;stroke-linejoin:round;}</style></defs><title>people-woman-cap-3</title><path class="a" d="M10.5,13a1.967,1.967,0,0,0,1.358.5h.284A1.965,1.965,0,0,0,13.5,13"/><path class="a" d="M11,9a1.089,1.089,0,0,0-1-.5A1.089,1.089,0,0,0,9,9"/><path class="a" d="M15,9a1.089,1.089,0,0,0-1-.5A1.089,1.089,0,0,0,13,9"/><path class="a" d="M11.98,16.5c1.391,0,4.5-1.721,4.947-4.365a1,1,0,0,1,.574-.746c1.081-.49,1.352-2.452.479-2.889.5-2.986-.521-8-6-8s-6.5,5.014-6,8c-.874.437-.6,2.4.479,2.889a1,1,0,0,1,.574.746C7.476,14.779,10.588,16.5,11.98,16.5Z"/><path class="a" d="M23.5,23.5v-1a4,4,0,0,0-2.6-3.745L15.5,16.94"/><path class="a" d="M8.5,16.94,3.1,18.755A4,4,0,0,0,.5,22.5v1"/><path class="a" d="M15.5,16.94a4,4,0,0,1-7,0"/><path class="a" d="M17.409,17.582a5.945,5.945,0,0,1-10.818,0"/><line class="a" x1="5.888" y1="6.5" x2="18.071" y2="6.5"/><line class="a" x1="11" y1="4.5" x2="13" y2="4.5"/><line class="a" x1="12" y1="23.5" x2="12" y2="19"/><path class="a" d="M15,22.75a.25.25,0,1,1-.25.25.25.25,0,0,1,.25-.25"/><path class="a" d="M5.685,10.574a5.108,5.108,0,0,1-1.941,3.1.5.5,0,0,0-.04.831,4.431,4.431,0,0,0,2.915.932"/><path class="a" d="M18.292,10.537a5.137,5.137,0,0,0,1.951,3.136.5.5,0,0,1,.041.831,4.434,4.434,0,0,1-2.915.932"/></svg>