<svg xmlns="http://www.w3.org/2000/svg" viewBox="0 0 24 24"><defs><style>.a{fill:none;stroke:#000;stroke-linecap:round;stroke-linejoin:round;}</style></defs><title>people-woman-graduate</title><path class="a" d="M16.043,19.1l-3.715,4a.5.5,0,0,1-.732,0L7.9,19.119"/><path class="a" d="M12.171,4.463l9.913-1.724a.25.25,0,0,0,0-.493L12.171.522a1.033,1.033,0,0,0-.342,0L1.916,2.246a.25.25,0,0,0,0,.493l9.913,1.724A1.033,1.033,0,0,0,12.171,4.463Z"/><path class="a" d="M2,8.492A10.951,10.951,0,0,0,.519,12.973a.5.5,0,0,0,.5.519H2.98a.5.5,0,0,0,.5-.519A10.951,10.951,0,0,0,2,8.492Z"/><line class="a" x1="2" y1="2.753" x2="2" y2="8.492"/><line class="a" x1="6" y1="10.492" x2="6" y2="3.449"/><line class="a" x1="18" y1="3.449" x2="18" y2="10.492"/><path class="a" d="M6,7.492a18.963,18.963,0,0,0,12,0"/><path class="a" d="M10.5,14.992a2.174,2.174,0,0,0,3,0"/><path class="a" d="M11,10.992a1.089,1.089,0,0,0-1-.5,1.089,1.089,0,0,0-1,.5"/><path class="a" d="M15,10.992a1.089,1.089,0,0,0-1-.5,1.089,1.089,0,0,0-1,.5"/><path class="a" d="M6.019,10.492c-.871.437-.6,2.4.477,2.889a1,1,0,0,1,.572.747c.442,2.643,3.545,4.364,4.932,4.364s4.49-1.721,4.932-4.364a1,1,0,0,1,.572-.747c1.078-.49,1.348-2.452.477-2.889"/><path class="a" d="M23.5,23.492a4.009,4.009,0,0,0-2.488-2.745L16.043,19.1"/><path class="a" d="M7.9,19.119,2.988,20.747A4.009,4.009,0,0,0,.5,23.492"/><path class="a" d="M5.707,12.529A5.609,5.609,0,0,1,3.634,16.2a.5.5,0,0,0-.047.838,4.432,4.432,0,0,0,2.913.931"/><path class="a" d="M18.293,12.529A5.609,5.609,0,0,0,20.366,16.2a.5.5,0,0,1,.047.838,4.432,4.432,0,0,1-2.913.931"/></svg>