<svg xmlns="http://www.w3.org/2000/svg" viewBox="0 0 24 24"><defs><style>.a{fill:none;stroke:#000;stroke-linecap:round;stroke-linejoin:round;}</style></defs><title>people-man-beanie</title><line class="a" x1="12" y1="23.5" x2="12" y2="21.5"/><path class="a" d="M17.917,6.5C17.44,3.1,16.5.5,12,.5s-5.44,2.6-5.917,6"/><path class="a" d="M10.5,14a1.967,1.967,0,0,0,1.358.5h.284A1.965,1.965,0,0,0,13.5,14"/><path class="a" d="M11,10.5a1.089,1.089,0,0,0-1-.5,1.089,1.089,0,0,0-1,.5"/><path class="a" d="M15,10.5a1.089,1.089,0,0,0-1-.5,1.089,1.089,0,0,0-1,.5"/><rect class="a" x="4.5" y="6.5" width="15" height="2" rx="0.5" ry="0.5"/><path class="a" d="M13.124,17.25a5.961,5.961,0,0,0,3.8-4.115,1,1,0,0,1,.574-.746c1.081-.491,1.352-2.452.479-2.889.052-.313.1-.65.133-1"/><path class="a" d="M5.846,8.5c.035.35.081.687.134,1-.874.437-.6,2.4.479,2.889a1,1,0,0,1,.574.746,5.945,5.945,0,0,0,3.746,4.094"/><path class="a" d="M23.5,23.5a4,4,0,0,0-2.6-3.745l-3.519-1.181"/><path class="a" d="M6.615,18.574,3.1,19.755A4,4,0,0,0,.5,23.5"/><path class="a" d="M17.5,17.9a2.007,2.007,0,0,1-.43,1.242A6.249,6.249,0,0,1,12,21.5a6.249,6.249,0,0,1-5.07-2.354A2.007,2.007,0,0,1,6.5,17.9v-.4a1,1,0,0,1,.91-1,.49.49,0,0,1,.153.01l4.329.962a.492.492,0,0,0,.216,0l4.329-.962a.492.492,0,0,1,.153-.01,1,1,0,0,1,.91,1Z"/><line class="a" x1="7.5" y1="23.5" x2="7.5" y2="19.77"/><line class="a" x1="9.5" y1="23.5" x2="9.5" y2="21.05"/></svg>