<svg xmlns="http://www.w3.org/2000/svg" viewBox="0 0 24 24"><defs><style>.a{fill:none;stroke:#000;stroke-linecap:round;stroke-linejoin:round;}</style></defs><title>people-woman-13</title><path class="a" d="M13.5,14a2.5,2.5,0,0,1-3,0"/><path class="a" d="M14,11.25a.25.25,0,1,1-.25.25.25.25,0,0,1,.25-.25"/><path class="a" d="M10,11.25a.25.25,0,1,1-.25.25.25.25,0,0,1,.25-.25"/><path class="a" d="M18,9.5c-1.327,0-4.058.337-6-2-1.942,2.337-4.673,2-6,2"/><path class="a" d="M23,23.5v-.106a1.976,1.976,0,0,0-.77-1.579C20.9,20.8,17.73,19,12,19S3.105,20.8,1.77,21.815A1.976,1.976,0,0,0,1,23.394V23.5"/><path class="a" d="M8.083,19.312a4,4,0,0,0,7.834,0"/><circle class="a" cx="12" cy="4.5" r="2"/><path class="a" d="M16.884,2.674A3,3,0,0,0,14,.5H10A3,3,0,0,0,7.116,2.674"/><path class="a" d="M6.883,6.366A5.969,5.969,0,0,0,6,9.5v2a6,6,0,0,0,12,0v-2a5.969,5.969,0,0,0-.883-3.134"/><path class="a" d="M10,4.5a1.987,1.987,0,0,1,.449-1.262L6.571,2.582A.5.5,0,0,0,6,3.076V5.924a.5.5,0,0,0,.571.494l3.878-.656A1.987,1.987,0,0,1,10,4.5Z"/><path class="a" d="M17.429,2.582l-3.878.656a2,2,0,0,1,0,2.524l3.878.656A.5.5,0,0,0,18,5.924V3.076A.5.5,0,0,0,17.429,2.582Z"/></svg>