<svg xmlns="http://www.w3.org/2000/svg" viewBox="0 0 24 24"><defs><style>.a{fill:none;stroke:#000;stroke-linecap:round;stroke-linejoin:round;}</style></defs><title>people-man-5</title><path class="a" d="M16.361,8.7,16.021,7c-4,0-4-2-4-2h-.083s0,2-4,2L7.6,8.7"/><path class="a" d="M10.5,14a1.967,1.967,0,0,0,1.358.5h.284A1.965,1.965,0,0,0,13.5,14"/><path class="a" d="M11,10a1.089,1.089,0,0,0-1-.5A1.089,1.089,0,0,0,9,10"/><path class="a" d="M15,10a1.089,1.089,0,0,0-1-.5,1.089,1.089,0,0,0-1,.5"/><path class="a" d="M23.5,23.5a4,4,0,0,0-2.6-3.745l-5.03-1.689a.5.5,0,0,0-.572.192,4,4,0,0,1-6.6,0,.5.5,0,0,0-.571-.191L3.1,19.755A4,4,0,0,0,.5,23.5"/><path class="a" d="M17.409,18.582a5.945,5.945,0,0,1-10.818,0"/><path class="a" d="M6,10.868c.456,2.86,3.211,6.632,5.98,6.632,2.85,0,5.724-4.053,6.02-6.945"/><path class="a" d="M5,7.5a7,7,0,0,1,14,0"/><path class="a" d="M6,13.5H4.5a2,2,0,0,1-2-2v-2a2,2,0,0,1,2-2H6Z"/><path class="a" d="M18,13.5h1.5a2,2,0,0,0,2-2v-2a2,2,0,0,0-2-2H18Z"/></svg>