<svg xmlns="http://www.w3.org/2000/svg" viewBox="0 0 24 24"><defs><style>.a{fill:none;stroke:#000;stroke-linecap:round;stroke-linejoin:round;}</style></defs><title>people-woman-2</title><path class="a" d="M23,23.5V20.394a1.976,1.976,0,0,0-.77-1.579,13.283,13.283,0,0,0-4.873-2.2C16.59,20.1,12.011,23.3,12.011,23.3s-4.583-3.2-5.347-6.7A13.3,13.3,0,0,0,1.77,18.815,1.976,1.976,0,0,0,1,20.394V23.5"/><path class="a" d="M13.5,11a2.5,2.5,0,0,1-3,0"/><path class="a" d="M14,8.25a.25.25,0,1,1-.25.25A.25.25,0,0,1,14,8.25"/><path class="a" d="M10,8.25a.25.25,0,1,1-.25.25A.25.25,0,0,1,10,8.25"/><path class="a" d="M16.5,7A5,5,0,0,1,12,4.182,5,5,0,0,1,7.5,7,4.866,4.866,0,0,1,7,6.975V9.5a5,5,0,0,0,10,0V6.975A4.866,4.866,0,0,1,16.5,7Z"/><path class="a" d="M19.162,17.169,20.9,16.3a.5.5,0,0,0,.155-.773A8.538,8.538,0,0,1,19,9.964V7.5a7,7,0,0,0-14,0V9.964a8.538,8.538,0,0,1-2.059,5.561A.5.5,0,0,0,3.1,16.3l1.742.871"/><path class="a" d="M9.25,16.188a.25.25,0,1,1-.25.25.249.249,0,0,1,.25-.25"/><path class="a" d="M12,19.438a.25.25,0,1,1-.25.25.249.249,0,0,1,.25-.25"/><path class="a" d="M10.25,18.188a.25.25,0,1,1-.25.25.249.249,0,0,1,.25-.25"/><path class="a" d="M14.75,16.188a.25.25,0,1,0,.25.25.249.249,0,0,0-.25-.25"/><path class="a" d="M13.75,18.188a.25.25,0,1,0,.25.25.249.249,0,0,0-.25-.25"/></svg>