<svg xmlns="http://www.w3.org/2000/svg" viewBox="0 0 24 24"><defs><style>.a{fill:none;stroke:#000;stroke-linecap:round;stroke-linejoin:round;}</style></defs><title>people-woman-2</title><path class="a" d="M.5,23.5v-1a4,4,0,0,1,2.6-3.745l5.131-1.723"/><path class="a" d="M15.773,17.032,20.9,18.755A4,4,0,0,1,23.5,22.5v1"/><path class="a" d="M10.5,13a1.967,1.967,0,0,0,1.358.5h.284A1.965,1.965,0,0,0,13.5,13"/><path class="a" d="M11,9a1.089,1.089,0,0,0-1-.5A1.089,1.089,0,0,0,9,9"/><path class="a" d="M15,9a1.089,1.089,0,0,0-1-.5A1.089,1.089,0,0,0,13,9"/><path class="a" d="M5.71,10.542a5.619,5.619,0,0,1-2.076,3.689.5.5,0,0,0-.047.839A4.431,4.431,0,0,0,6.5,16"/><path class="a" d="M18.29,10.542a5.619,5.619,0,0,0,2.076,3.689.5.5,0,0,1,.047.839A4.431,4.431,0,0,1,17.5,16"/><path class="a" d="M5.828,6.485c1.331-.036,4.043.391,6.172-2.17,2.117,2.547,4.843,2.149,6.172,2.178"/><path class="a" d="M16.5,17.275c-.066,2.071-3.129,4.994-4.161,5.922a.5.5,0,0,1-.67,0c-1.032-.928-4.095-3.851-4.161-5.922"/><path class="a" d="M7.139,2.233C5.591,3.964,5.708,6.63,6.019,8.5c-.871.437-.6,2.4.477,2.889a1,1,0,0,1,.572.746C7.51,14.779,10.613,16.5,12,16.5s4.49-1.721,4.932-4.365a1,1,0,0,1,.572-.746c1.078-.491,1.348-2.452.477-2.889.311-1.87.428-4.536-1.12-6.267"/><line class="a" x1="11" y1="1.5" x2="13" y2="1.5"/><path class="a" d="M10,.5H8a1,1,0,0,0-1,1,2,2,0,0,0,4,0A1,1,0,0,0,10,.5Z"/><path class="a" d="M15,.5h0a2,2,0,0,1,2,2v0a1,1,0,0,1-1,1H14a1,1,0,0,1-1-1v0a2,2,0,0,1,2-2Z" transform="translate(30 4) rotate(180)"/></svg>