<svg xmlns="http://www.w3.org/2000/svg" viewBox="0 0 24 24"><defs><style>.a{fill:none;stroke:#000;stroke-linecap:round;stroke-linejoin:round;}</style></defs><title>people-man-4</title><path class="a" d="M10.5,13a1.967,1.967,0,0,0,1.358.5h.284A1.965,1.965,0,0,0,13.5,13"/><path class="a" d="M11,9a1.089,1.089,0,0,0-1-.5A1.089,1.089,0,0,0,9,9"/><path class="a" d="M15,9a1.089,1.089,0,0,0-1-.5A1.089,1.089,0,0,0,13,9"/><path class="a" d="M23.5,23.5v-1a4,4,0,0,0-2.6-3.745l-5.03-1.689a.5.5,0,0,0-.572.192,4,4,0,0,1-6.6,0,.5.5,0,0,0-.571-.191L3.1,18.755A4,4,0,0,0,.5,22.5v1"/><path class="a" d="M17.409,17.582a5.945,5.945,0,0,1-10.818,0"/><path class="a" d="M7.592,3.01C6.185,4.449,5.992,6.662,5.98,8.5c-.874.437-.6,2.4.479,2.889a1,1,0,0,1,.574.746c.443,2.644,3.555,4.365,4.947,4.365s4.5-1.721,4.947-4.365a1,1,0,0,1,.574-.746c1.081-.491,1.352-2.452.479-2.889.013-1.939-.209-4.294-1.845-5.718"/><path class="a" d="M16.5,4c0,1-1.012,2-3,2h-3c-1.988,0-3-1-3-2C7.5,1.5,9,.5,11.5.5,10.645,3.065,16.5.5,16.5,4Z"/></svg>