<svg xmlns="http://www.w3.org/2000/svg" viewBox="0 0 24 24"><defs><style>.a{fill:none;stroke:#000;stroke-linecap:round;stroke-linejoin:round;}</style></defs><title>people-woman-9</title><path class="a" d="M13.5,11a2.5,2.5,0,0,1-3,0"/><path class="a" d="M14,8.25a.25.25,0,1,1-.25.25A.25.25,0,0,1,14,8.25"/><path class="a" d="M10,8.25a.25.25,0,1,1-.25.25A.25.25,0,0,1,10,8.25"/><path class="a" d="M18,6.5a6,6,0,0,0-12,0v2a6,6,0,0,0,12,0Z"/><path class="a" d="M18,6.5c-1.327,0-4.058.337-6-2-1.942,2.337-4.673,2-6,2"/><path class="a" d="M18,7c0,1.716.489,4.964,2.315,6.17a.506.506,0,0,1-.029.882,4.514,4.514,0,0,1-2.786.295"/><path class="a" d="M6,7c0,1.716-.489,4.964-2.315,6.17a.506.506,0,0,0,.029.882,4.505,4.505,0,0,0,2.79.294"/><path class="a" d="M23,23.5V20.394a1.976,1.976,0,0,0-.77-1.579C20.9,17.8,17.73,16,12,16S3.105,17.8,1.77,18.815A1.976,1.976,0,0,0,1,20.394V23.5"/><path class="a" d="M8.024,16.319,12,19.5,8.9,21.271a.5.5,0,0,1-.662-.154L5.415,16.961"/><path class="a" d="M15.976,16.319,12,19.5l3.1,1.771a.5.5,0,0,0,.662-.154l2.825-4.156"/><line class="a" x1="12" y1="19.5" x2="12" y2="22.5"/></svg>