<svg xmlns="http://www.w3.org/2000/svg" viewBox="0 0 24 24"><defs><style>.a{fill:none;stroke:#000;stroke-linecap:round;stroke-linejoin:round;}</style></defs><title>people-man-9</title><path class="a" d="M7.139,17.4,3.1,18.755A4,4,0,0,0,.5,22.5v1"/><path class="a" d="M8.036,17.079a.5.5,0,0,0-.864.2c-.293,1.1-.65,2.377-.892,3.236a.5.5,0,0,0,.672.6L12,19.03A5.652,5.652,0,0,1,8.036,17.079Z"/><path class="a" d="M15.964,17.079a.5.5,0,0,1,.864.2c.293,1.1.65,2.377.892,3.236a.5.5,0,0,1-.672.6L12,19.03A5.652,5.652,0,0,0,15.964,17.079Z"/><path class="a" d="M16.861,17.4,20.9,18.755A4,4,0,0,1,23.5,22.5v1"/><line class="a" x1="10.5" y1="23.5" x2="12" y2="21"/><line class="a" x1="13.5" y1="23.5" x2="12" y2="21"/><path class="a" d="M12.142,16.47c1.391,0,4.5-1.721,4.947-4.365a1,1,0,0,1,.574-.746c1.081-.49,1.352-2.452.479-2.889.5-2.986.5-8-6-8s-6.5,5.014-6,8c-.874.437-.6,2.4.479,2.889a1.006,1.006,0,0,1,.574.746C7.638,14.749,10.75,16.47,12.142,16.47Z"/><path class="a" d="M5.991,7.277A8.548,8.548,0,0,0,9.578,4.4,8.469,8.469,0,0,0,15.662,6.97a8.479,8.479,0,0,0,2.67-.434"/><path class="a" d="M11,9a1.089,1.089,0,0,0-1-.5A1.088,1.088,0,0,0,9,9"/><path class="a" d="M15,9a1.089,1.089,0,0,0-1-.5A1.088,1.088,0,0,0,13,9"/><path class="a" d="M10.507,19.644a1.5,1.5,0,0,0,2.986,0"/><path class="a" d="M10.5,13a1.965,1.965,0,0,0,1.358.5h.284A1.967,1.967,0,0,0,13.5,13"/></svg>