<svg xmlns="http://www.w3.org/2000/svg" viewBox="0 0 24 24"><defs><style>.a{fill:none;stroke:#000;stroke-linecap:round;stroke-linejoin:round;}</style></defs><title>people-woman-glasses-6</title><path class="a" d="M23,23.5V20.394a1.976,1.976,0,0,0-.77-1.579C20.9,17.8,17.73,16,12,16S3.105,17.8,1.77,18.815A1.976,1.976,0,0,0,1,20.394V23.5"/><path class="a" d="M16.481,16.414a4.5,4.5,0,0,1-8.962,0"/><line class="a" x1="19" y1="17.109" x2="19" y2="23.5"/><line class="a" x1="5" y1="17.109" x2="5" y2="23.5"/><path class="a" d="M13.5,12a2.5,2.5,0,0,1-3,0"/><path class="a" d="M14.32,6.5A5.018,5.018,0,0,1,12,4.182,5.018,5.018,0,0,1,9.68,6.5"/><path class="a" d="M7.127,10.625a5,5,0,0,0,9.746,0"/><path class="a" d="M18,7.5V8.672a2,2,0,0,1-.586,1.414l-.481.481a2,2,0,0,1-2.157.443L12,9.5,9.224,11.01a2,2,0,0,1-2.157-.443l-.481-.481A2,2,0,0,1,6,8.672V7.5a1,1,0,0,1,1-1H17A1,1,0,0,1,18,7.5Z"/><path class="a" d="M19.162,17.169,20.9,16.3a.5.5,0,0,0,.155-.773A8.538,8.538,0,0,1,19,9.964V7.5a7,7,0,0,0-14,0V9.964a8.538,8.538,0,0,1-2.059,5.561A.5.5,0,0,0,3.1,16.3l1.742.871"/></svg>