<svg xmlns="http://www.w3.org/2000/svg" viewBox="0 0 24 24"><defs><style>.a{fill:none;stroke:#000;stroke-linecap:round;stroke-linejoin:round;}</style></defs><title>people-man-12</title><path class="a" d="M13.5,13.784a2.5,2.5,0,0,1-3,0"/><path class="a" d="M14,11.034a.25.25,0,1,1-.25.25.25.25,0,0,1,.25-.25"/><path class="a" d="M10,11.034a.25.25,0,1,1-.25.25.25.25,0,0,1,.25-.25"/><path class="a" d="M11.181,3.34A6,6,0,0,0,6,9.284v2a6,6,0,0,0,12,0v-2A6,6,0,0,0,12.819,3.34"/><path class="a" d="M6.315,7.36,1.9,8.543a.25.25,0,0,0,0,.483l4.1,1.1"/><path class="a" d="M8.752,4.239,4.91,1.85a.25.25,0,0,0-.344.345L6.955,6.036A6.026,6.026,0,0,1,8.752,4.239Z"/><path class="a" d="M15.248,4.239a6.041,6.041,0,0,1,1.8,1.8l2.388-3.841a.25.25,0,0,0-.344-.345Z"/><path class="a" d="M18,10.124l4.1-1.1a.25.25,0,0,0,0-.483L17.685,7.36"/><path class="a" d="M13.368,5.387l-1.127-4.2a.249.249,0,0,0-.482,0l-1.127,4.2a1.442,1.442,0,1,0,2.736,0Z"/><path class="a" d="M23,23.284v-.106a1.978,1.978,0,0,0-.77-1.579C20.9,20.58,17.73,18.784,12,18.784S3.105,20.58,1.77,21.6A1.978,1.978,0,0,0,1,23.178v.106"/><path class="a" d="M17.42,19.413l-5.129,3.664a.5.5,0,0,1-.582,0L6.58,19.413"/><path class="a" d="M5.455,19.739,3.427,17.711A.25.25,0,0,0,3,17.888V20.8"/><path class="a" d="M18.545,19.739l2.028-2.028a.25.25,0,0,1,.427.177V20.8"/></svg>