<svg xmlns="http://www.w3.org/2000/svg" viewBox="0 0 24 24"><defs><style>.a{fill:none;stroke:#000;stroke-linecap:round;stroke-linejoin:round;}</style></defs><title>people-woman-7</title><path class="a" d="M13.5,13a2.5,2.5,0,0,1-3,0"/><path class="a" d="M14,10.25a.25.25,0,1,1-.25.25.25.25,0,0,1,.25-.25"/><path class="a" d="M10,10.25a.25.25,0,1,1-.25.25.25.25,0,0,1,.25-.25"/><path class="a" d="M18,8.5a6,6,0,0,0-12,0v2a6,6,0,0,0,12,0Z"/><path class="a" d="M18,8.5c-1.327,0-4.058.337-6-2-1.942,2.337-4.673,2-6,2"/><path class="a" d="M19,7.5a1,1,0,0,0-1,1v4a1,1,0,0,0,1,1,2,2,0,0,0,2-2v-2A2,2,0,0,0,19,7.5Z"/><path class="a" d="M5,7.5a1,1,0,0,1,1,1v4a1,1,0,0,1-1,1,2,2,0,0,1-2-2v-2A2,2,0,0,1,5,7.5Z"/><path class="a" d="M4.035,7.748a8,8,0,0,1,15.93,0"/><path class="a" d="M23,23.5V22.394a1.976,1.976,0,0,0-.77-1.579C20.9,19.8,17.73,18,12,18S3.105,19.8,1.77,20.815A1.976,1.976,0,0,0,1,22.394V23.5"/><path class="a" d="M8.083,18.312a4,4,0,0,0,7.834,0"/><path class="a" d="M17.5,16.348a4.512,4.512,0,0,0,2.783-.3.506.506,0,0,0,.029-.882A4.144,4.144,0,0,1,18.943,13.5"/><path class="a" d="M5.057,13.5A4.144,4.144,0,0,1,3.684,15.17a.506.506,0,0,0,.029.882,4.515,4.515,0,0,0,2.784.3"/></svg>