<svg xmlns="http://www.w3.org/2000/svg" viewBox="0 0 24 24"><defs><style>.a{fill:none;stroke:#000;stroke-linecap:round;stroke-linejoin:round;}</style></defs><title>people-man-glasses-2</title><path class="a" d="M23,23.5V20.394a1.976,1.976,0,0,0-.77-1.579C20.9,17.8,17.73,16,12,16S3.105,17.8,1.77,18.815A1.976,1.976,0,0,0,1,20.394V23.5"/><line class="a" x1="11" y1="12.5" x2="13" y2="12.5"/><path class="a" d="M16.481,16.414a4.5,4.5,0,0,1-8.962,0"/><line class="a" x1="19" y1="17.109" x2="19" y2="23.5"/><line class="a" x1="5" y1="17.109" x2="5" y2="23.5"/><path class="a" d="M9.5,4.05A3.49,3.49,0,0,1,12,3"/><path class="a" d="M18,6.5a6,6,0,0,0-12,0"/><path class="a" d="M19,7.5V8.672a2,2,0,0,1-.586,1.414l-.481.481a2,2,0,0,1-2.157.443l-3.4-1.361a.992.992,0,0,0-.742,0l-3.4,1.361a2,2,0,0,1-2.157-.443l-.481-.481A2,2,0,0,1,5,8.672V7.5a1,1,0,0,1,1-1H18A1,1,0,0,1,19,7.5Z"/><path class="a" d="M6.5,10.894a6,6,0,0,0,11.006,0"/></svg>