<svg xmlns="http://www.w3.org/2000/svg" viewBox="0 0 24 24"><defs><style>.a{fill:none;stroke:#000;stroke-linecap:round;stroke-linejoin:round;}</style></defs><title>people-woman-9</title><path class="a" d="M10.344,15.032a1.958,1.958,0,0,0,1.351.5h.281a1.953,1.953,0,0,0,1.35-.5"/><path class="a" d="M10.841,11.056a1.081,1.081,0,0,0-.994-.5,1.083,1.083,0,0,0-.994.5"/><path class="a" d="M14.817,11.056a1.081,1.081,0,0,0-.994-.5,1.083,1.083,0,0,0-.994.5"/><path class="a" d="M11.855,18.511c1.379,0,4.463-1.711,4.9-4.338a1,1,0,0,1,.569-.742c1.072-.487,1.34-2.438.475-2.872.493-2.967.5-7.951-5.946-7.951S5.417,7.592,5.91,10.559c-.865.434-.6,2.385.475,2.872a1,1,0,0,1,.569.742C7.393,16.8,10.477,18.511,11.855,18.511Z"/><path class="a" d="M5.72,8.556c1.33-.031,4.01.376,6.115-2.157,2.116,2.545,4.842,2.132,6.155,2.166"/><path class="a" d="M17.233,20.043a5.909,5.909,0,0,1-10.752,0"/><path class="a" d="M23,23.481a3.967,3.967,0,0,0-2.294-2.272l-5-1.678a.5.5,0,0,0-.568.19,3.976,3.976,0,0,1-6.564,0,.5.5,0,0,0-.568-.19l-5,1.678A3.966,3.966,0,0,0,.712,23.481"/><path class="a" d="M16.86,13.869a5.386,5.386,0,0,0,6.428,1.043S21.3,12.924,21.3,4.973a4.473,4.473,0,0,0-7.927-2.842l-.454.526"/></svg>