<svg xmlns="http://www.w3.org/2000/svg" viewBox="0 0 24 24"><defs><style>.a{fill:none;stroke:#000;stroke-linecap:round;stroke-linejoin:round;}</style></defs><title>peopleman-moustache-2</title><path class="a" d="M14,8.25a.25.25,0,1,1-.25.25A.25.25,0,0,1,14,8.25"/><path class="a" d="M10,8.25a.25.25,0,1,1-.25.25A.25.25,0,0,1,10,8.25"/><path class="a" d="M18,6.5c-1.327,0-4.058.337-6-2-1.942,2.337-4.673,2-6,2"/><path class="a" d="M16.3,12.688A5.981,5.981,0,0,0,18,8.5v-2a6,6,0,0,0-12,0v2a5.981,5.981,0,0,0,1.7,4.188"/><path class="a" d="M13.5,10.75a1.991,1.991,0,0,0-1.5.678,1.991,1.991,0,0,0-1.5-.678c-2.421,0-1.56,2.814-5.59,2.537a.25.25,0,0,0-.25.361c.38.706,1.6,2.1,5.34,2.1a2.353,2.353,0,0,0,2-1.208,2.353,2.353,0,0,0,2,1.208c3.737,0,4.96-1.4,5.34-2.1a.25.25,0,0,0-.25-.361C15.06,13.564,15.921,10.75,13.5,10.75Z"/><path class="a" d="M7,17v1.5A1.5,1.5,0,0,0,8.5,20,1.5,1.5,0,0,0,10,21.5a.49.49,0,0,1,.5.5,1.5,1.5,0,0,0,3,0,.49.49,0,0,1,.5-.5A1.5,1.5,0,0,0,15.5,20,1.5,1.5,0,0,0,17,18.5V17"/><path class="a" d="M4.945,17.13A12.047,12.047,0,0,0,1.77,18.815,1.976,1.976,0,0,0,1,20.394V23.5"/><path class="a" d="M19.055,17.13a12.047,12.047,0,0,1,3.175,1.685A1.976,1.976,0,0,1,23,20.394V23.5"/></svg>