<svg xmlns="http://www.w3.org/2000/svg" viewBox="0 0 24 24"><defs><style>.a{fill:none;stroke:#000;stroke-linecap:round;stroke-linejoin:round;}</style></defs><title>people-woman-6</title><path class="a" d="M10.5,13a1.967,1.967,0,0,0,1.358.5h.284A1.965,1.965,0,0,0,13.5,13"/><path class="a" d="M11,9a1.089,1.089,0,0,0-1-.5A1.089,1.089,0,0,0,9,9"/><path class="a" d="M15,9a1.089,1.089,0,0,0-1-.5A1.089,1.089,0,0,0,13,9"/><path class="a" d="M7,12.135c.441,2.644,3.633,4.365,5.02,4.365s4.538-1.721,4.98-4.365"/><path class="a" d="M5,18.115l-1.907.64A4,4,0,0,0,.5,22.5v1"/><path class="a" d="M19,18.115l1.907.64A4,4,0,0,1,23.5,22.5v1"/><path class="a" d="M14,18.465a4,4,0,0,1-4,0"/><path class="a" d="M19,18.769V7.5a7,7,0,0,0-14,0V18.769"/><path class="a" d="M8,20.5c0,1.105-2,3-2,3s-2-1.895-2-3a2,2,0,0,1,4,0Z"/><path class="a" d="M16,20.5c0,1.105,2,3,2,3s2-1.895,2-3a2,2,0,0,0-4,0Z"/><path class="a" d="M7,18.768V6.5l.2-.012A5.98,5.98,0,0,0,12,4.315,6.107,6.107,0,0,0,17,6.5V18.768"/></svg>