<svg xmlns="http://www.w3.org/2000/svg" viewBox="0 0 24 24"><defs><style>.a{fill:none;stroke:#000;stroke-linecap:round;stroke-linejoin:round;}</style></defs><title>people-man-4</title><path class="a" d="M13.5,12.935a2.5,2.5,0,0,1-3,0"/><path class="a" d="M23,23.435V22.329a1.976,1.976,0,0,0-.77-1.579C20.9,19.731,17.73,17.935,12,17.935s-8.895,1.8-10.23,2.815A1.976,1.976,0,0,0,1,22.329v1.106"/><path class="a" d="M14,10.185a.25.25,0,1,1-.25.25.25.25,0,0,1,.25-.25"/><path class="a" d="M10,10.185a.25.25,0,1,1-.25.25.25.25,0,0,1,.25-.25"/><path class="a" d="M8.083,18.247a4,4,0,0,0,7.834,0"/><path class="a" d="M17,4.119c0,2.211-2.239,3.316-5,3.316S7,6.154,7,4.119C7,2.2,9.227.95,12,.506a.5.5,0,0,1,.556.379C13.07,2.764,17,1.144,17,4.119Z"/><path class="a" d="M6,10.435a6,6,0,0,0,12,0v-2a5.975,5.975,0,0,0-1.117-3.487C16.39,6.606,14.391,7.435,12,7.435c-2.373,0-4.359-.946-4.872-2.5A5.974,5.974,0,0,0,6,8.435Z"/></svg>