<svg xmlns="http://www.w3.org/2000/svg" viewBox="0 0 24 24"><defs><style>.a{fill:none;stroke:#000;stroke-linecap:round;stroke-linejoin:round;}</style></defs><title>people-man-7</title><path class="a" d="M10.5,13a1.967,1.967,0,0,0,1.358.5h.284A1.965,1.965,0,0,0,13.5,13"/><path class="a" d="M11,10a1.089,1.089,0,0,0-1-.5A1.089,1.089,0,0,0,9,10"/><path class="a" d="M5.98,8.5c-.874.437-.6,2.4.479,2.889a1,1,0,0,1,.574.746C7.476,14.779,10.609,16.5,12,16.5a6.166,6.166,0,0,0,4.675-3.49"/><path class="a" d="M12,.5c8.325,0,5.527,6.845,7.039,9.454a.5.5,0,0,1-.323.739C10.629,12.516,13.327,6.357,8.38,6.015a.5.5,0,0,0-.525.4L7.6,7.7a1,1,0,0,1-.981.8H5.98C5.482,5.514,5.5.5,12,.5Z"/><path class="a" d="M23.5,23.5v-1a4,4,0,0,0-2.6-3.745l-5.03-1.689a.5.5,0,0,0-.572.192,4,4,0,0,1-6.6,0,.5.5,0,0,0-.571-.192L3.1,18.755A4,4,0,0,0,.5,22.5v1"/><path class="a" d="M17.409,17.582a5.945,5.945,0,0,1-10.818,0"/></svg>