<svg xmlns="http://www.w3.org/2000/svg" viewBox="0 0 24 24"><defs><style>.a{fill:none;stroke:#000;stroke-linecap:round;stroke-linejoin:round;}</style></defs><title>performance-increase-mail</title><polyline class="a" points="18.254 0.5 21.254 0.5 21.254 3.5"/><path class="a" d="M2.754,7.5,7.067,4.481a1,1,0,0,1,1.28.112l.308.308a1,1,0,0,0,1.288.107l2.2-1.568a1,1,0,0,1,1.205.032l1.3,1.044a1,1,0,0,0,1.225.019L21.254.5"/><polyline class="a" points="3.24 13.514 11.754 19.5 20.254 13.5"/><path class="a" d="M8.254,17.039V14a.5.5,0,0,0-.5-.5h-1.5a.5.5,0,0,0-.5.5v1.27"/><path class="a" d="M13.254,18.441V12a.5.5,0,0,0-.5-.5h-2a.5.5,0,0,0-.5.5v6.445"/><line class="a" x1="15.254" y1="10" x2="15.254" y2="17.029"/><line class="a" x1="18.254" y1="12" x2="18.254" y2="14.912"/><path class="a" d="M20.254,13.5v9a1,1,0,0,1-1,1h-15a1,1,0,0,1-1-1v-9l8-5.5a.77.77,0,0,1,1,0l3,2V9a.5.5,0,0,1,.5-.5h2a.5.5,0,0,1,.5.5v3Z"/></svg>