<svg xmlns="http://www.w3.org/2000/svg" viewBox="0 0 24 24"><defs><style>.a{fill:none;stroke:#000;stroke-linecap:round;stroke-linejoin:round;}</style></defs><title>performance-phone-increase</title><polyline class="a" points="17.004 6.5 20.004 6.5 20.004 9.5"/><path class="a" d="M6.5,17l1.323-1.985a1,1,0,0,1,1.539-.152l.157.156a1,1,0,0,0,1.6-.26l1.327-2.653a1,1,0,0,1,1.519-.333l.7.558a1,1,0,0,0,1.447-.212L20,6.5"/><path class="a" d="M10.5,21.25h0a.25.25,0,0,1,.25.25h0a.25.25,0,0,1-.25.25h0a.25.25,0,0,1-.25-.25h0a.25.25,0,0,1,.25-.25"/><line class="a" x1="17.004" y1="19.5" x2="4.004" y2="19.5"/><line class="a" x1="17.004" y1="4.5" x2="4.004" y2="4.5"/><line class="a" x1="9.004" y1="2.5" x2="12.004" y2="2.5"/><path class="a" d="M17,14.5v7a2,2,0,0,1-2,2H6a2,2,0,0,1-2-2V2.5a2,2,0,0,1,2-2h9a2,2,0,0,1,2,2v2"/></svg>