<svg xmlns="http://www.w3.org/2000/svg" viewBox="0 0 24 24"><defs><style>.a{fill:none;stroke:#000;stroke-linecap:round;stroke-linejoin:round;}</style></defs><title>performance-user-graph</title><line class="a" x1="5.483" y1="11" x2="5.483" y2="14"/><path class="a" d="M7.483,23.5l.5-6h2.5V14a5,5,0,0,0-10,0v3.5h2.5l.5,6Z"/><path class="a" d="M6.65,4a5.8,5.8,0,0,0,2.286-.467,3.478,3.478,0,0,0-6.459-1.3A5.809,5.809,0,0,0,6.65,4Z"/><circle class="a" cx="5.483" cy="4" r="3.5"/><path class="a" d="M10.483.5h12a1,1,0,0,1,1,1v10a1,1,0,0,1-1,1h-10"/><line class="a" x1="14.483" y1="12.5" x2="14.483" y2="18.5"/><line class="a" x1="12.483" y1="18.5" x2="16.483" y2="18.5"/><polyline class="a" points="10.483 7.5 12.483 5.5 13.983 7 18.483 2.5"/><polyline class="a" points="15.483 2.5 18.483 2.5 18.483 5.5"/><line class="a" x1="17.483" y1="8.5" x2="19.483" y2="8.5"/><line class="a" x1="17.483" y1="10.5" x2="20.483" y2="10.5"/></svg>