<svg xmlns="http://www.w3.org/2000/svg" viewBox="0 0 24 24"><defs><style>.a{fill:none;stroke:#000;stroke-linecap:round;stroke-linejoin:round;}</style></defs><title>performance-increase</title><line class="a" x1="0.504" y1="23.25" x2="23.504" y2="23.25"/><path class="a" d="M4.5,23.25v-2.5a.5.5,0,0,0-.5-.5H2a.5.5,0,0,0-.5.5v2.5"/><path class="a" d="M10.5,23.25v-6.5a.5.5,0,0,0-.5-.5H8a.5.5,0,0,0-.5.5v6.5"/><path class="a" d="M16.5,23.25V12.75a.5.5,0,0,0-.5-.5H14a.5.5,0,0,0-.5.5v10.5"/><path class="a" d="M22.5,23.25V8.75a.5.5,0,0,0-.5-.5H20a.5.5,0,0,0-.5.5v14.5"/><line class="a" x1="3.004" y1="13.25" x2="21.004" y2="1.25"/><polyline class="a" points="20.504 5.25 21.004 1.25 17.004 0.75"/></svg>