<svg xmlns="http://www.w3.org/2000/svg" viewBox="0 0 24 24"><defs><style>.a{fill:none;stroke:#000;stroke-linecap:round;stroke-linejoin:round;}</style></defs><title>performance-presentation-graph</title><rect class="a" x="1.004" y="2.5" width="22" height="16" rx="1" ry="1"/><path class="a" d="M3.5,11.5,5.389,9.615a1,1,0,0,1,1.415,0l1.178,1.178a1,1,0,0,0,1.414,0l2.8-2.8a1,1,0,0,1,1.414,0l2.151,2.151a1,1,0,0,0,1.414,0L21,6.315"/><line class="a" x1="18.004" y1="13.5" x2="21.004" y2="13.5"/><line class="a" x1="21.004" y1="15.5" x2="16.004" y2="15.5"/><line class="a" x1="12.004" y1="0.5" x2="12.004" y2="2.5"/><line class="a" x1="12.004" y1="18.5" x2="12.004" y2="21"/><line class="a" x1="12.004" y1="21" x2="8.504" y2="23.5"/><line class="a" x1="12.004" y1="21" x2="15.504" y2="23.5"/></svg>