<svg xmlns="http://www.w3.org/2000/svg" viewBox="0 0 24 24"><defs><style>.a{fill:none;stroke:#000;stroke-linecap:round;stroke-linejoin:round;}</style></defs><title>performance-money-increase</title><rect class="a" x="14.004" y="11.5" width="9" height="3" rx="0.5" ry="0.5"/><rect class="a" x="13.004" y="14.5" width="9" height="3" rx="0.5" ry="0.5"/><rect class="a" x="14.004" y="17.5" width="9" height="3" rx="0.5" ry="0.5"/><rect class="a" x="13.004" y="20.5" width="9" height="3" rx="0.5" ry="0.5"/><rect class="a" x="1.004" y="17.5" width="9" height="3" rx="0.5" ry="0.5"/><rect class="a" x="2.004" y="20.5" width="9" height="3" rx="0.5" ry="0.5"/><path class="a" d="M1.5,13.5,9.871,5.133A1,1,0,0,1,11.2,5.059l3.579,2.863a1,1,0,0,0,1.354-.1L23,.5"/><polyline class="a" points="16.004 0.5 23.004 0.5 23.004 7"/></svg>