<svg xmlns="http://www.w3.org/2000/svg" viewBox="0 0 24 24"><defs><style>.a{fill:none;stroke:#000;stroke-linecap:round;stroke-linejoin:round;}</style></defs><title>performance-graph-calculator</title><path class="a" d="M10.5,16.5h-9a1,1,0,0,1-1-1V1.5a1,1,0,0,1,1-1h19a1,1,0,0,1,1,1V9"/><path class="a" d="M2.5,11,4.3,9.207a1,1,0,0,1,1.414,0l.086.086a1,1,0,0,0,1.414,0L11.3,5.207a1,1,0,0,1,1.414,0L13.74,6.236a1,1,0,0,0,1.467-.056L17.5,3.5"/><polyline class="a" points="14.504 3.5 17.504 3.5 17.504 6.5"/><path class="a" d="M15.5,17.75a.25.25,0,1,1-.25.25.25.25,0,0,1,.25-.25"/><path class="a" d="M15.5,20.26a.25.25,0,1,1-.25.25.25.25,0,0,1,.25-.25"/><path class="a" d="M18,17.74a.25.25,0,1,1-.25.25.25.25,0,0,1,.25-.25"/><path class="a" d="M20.5,17.74a.25.25,0,1,1-.25.25.25.25,0,0,1,.25-.25"/><path class="a" d="M18,20.25a.25.25,0,1,1-.25.25.25.25,0,0,1,.25-.25"/><path class="a" d="M20.5,20.25a.25.25,0,1,1-.25.25.25.25,0,0,1,.25-.25"/><path class="a" d="M21.5,15a.469.469,0,0,1-.5.5H15a.482.482,0,0,1-.5-.518V13a.468.468,0,0,1,.5-.5h6a.469.469,0,0,1,.5.5Z"/><rect class="a" x="12.504" y="10.5" width="11" height="13" rx="1" ry="1"/></svg>