<svg xmlns="http://www.w3.org/2000/svg" viewBox="0 0 24 24"><defs><style>.a{fill:none;stroke:#000;stroke-linecap:round;stroke-linejoin:round;}</style></defs><title>perspective-grid</title><rect class="a" x="0.5" y="0.5" width="23" height="23" rx="1" ry="1"/><path class="a" d="M.5,10.5,2.649,8.516a8.084,8.084,0,0,1,9.492-1.079,8.082,8.082,0,0,0,9.724-1.3L23.5,4.5"/><path class="a" d="M.5,18.5l2.149-1.984a8.084,8.084,0,0,1,9.492-1.079,8.082,8.082,0,0,0,9.724-1.3L23.5,12.5"/><path class="a" d="M3.626.5A15.957,15.957,0,0,1,8.5,12,15.951,15.951,0,0,1,3.624,23.5"/><path class="a" d="M12.626.5a16,16,0,0,1,0,23"/></svg>