<svg id="Light" xmlns="http://www.w3.org/2000/svg" viewBox="0 0 24 24"><defs><style>.cls-1{fill:none;stroke:#000;stroke-linecap:round;stroke-linejoin:round;}</style></defs><title>pet-tracking-dog-smartphone</title><path class="cls-1" d="M19,20.25a.25.25,0,0,1,.25.25"/><path class="cls-1" d="M18.75,20.5a.25.25,0,0,1,.25-.25"/><path class="cls-1" d="M19,20.75a.25.25,0,0,1-.25-.25"/><path class="cls-1" d="M19.25,20.5a.25.25,0,0,1-.25.25"/><rect class="cls-1" x="14.5" y="10.5" width="9" height="13" rx="1" ry="1"/><path class="cls-1" d="M19.193,8.149A2.962,2.962,0,0,1,21.045,7.5,2.455,2.455,0,0,0,23.5,5.045,1.545,1.545,0,0,0,21.955,3.5a1.544,1.544,0,0,1-1.382-.855A2.073,2.073,0,0,0,18.719,1.5c-1.385,0-2.506.717-3.213,2.484A4,4,0,0,1,11.792,6.5H6C2.46,6.5,1.622,4,3.52,1.287A.5.5,0,0,0,2.87.562,4.6,4.6,0,0,0,.5,4.5,4,4,0,0,0,2.733,8.09,34.015,34.015,0,0,0,1,17a1.5,1.5,0,0,0,3,0v-.63A3.787,3.787,0,0,1,8,12.5c.142,0,2,0,2,0a5.6,5.6,0,0,1,2.469.518"/><line class="cls-1" x1="14.705" y1="5.243" x2="17.444" y2="7.98"/><line class="cls-1" x1="15.024" y1="8.5" x2="12.875" y2="6.351"/><line class="cls-1" x1="19" y1="4.75" x2="19" y2="4.75"/><path class="cls-1" d="M18.75,4.5a.25.25,0,0,1,.25.25"/><line class="cls-1" x1="18.75" y1="4.5" x2="18.75" y2="4.5"/><path class="cls-1" d="M18.5,4.75a.25.25,0,0,1,.25-.25"/><line class="cls-1" x1="18.5" y1="4.75" x2="18.5" y2="4.75"/><path class="cls-1" d="M18.75,5a.25.25,0,0,1-.25-.25"/><line class="cls-1" x1="18.75" y1="5" x2="18.75" y2="5"/><path class="cls-1" d="M19,4.75a.25.25,0,0,1-.25.25"/></svg>