<svg id="Light" xmlns="http://www.w3.org/2000/svg" viewBox="0 0 24 24"><defs><style>.cls-1{fill:none;stroke:#000;stroke-linecap:round;stroke-linejoin:round;}</style></defs><title>pet-tracking-cat-smartphone</title><path class="cls-1" d="M19,20.25a.25.25,0,0,1,.25.25"/><path class="cls-1" d="M18.75,20.5a.25.25,0,0,1,.25-.25"/><path class="cls-1" d="M19,20.75a.25.25,0,0,1-.25-.25"/><path class="cls-1" d="M19.25,20.5a.25.25,0,0,1-.25.25"/><rect class="cls-1" x="14.5" y="10.5" width="9" height="13" rx="1" ry="1"/><path class="cls-1" d="M8.236,13.553l.4,4.32a.574.574,0,0,1-1.093.29L5.675,14.05"/><line class="cls-1" x1="18" y1="7.25" x2="18" y2="7.25"/><path class="cls-1" d="M17.75,7a.25.25,0,0,1,.25.25"/><line class="cls-1" x1="17.75" y1="7" x2="17.75" y2="7"/><path class="cls-1" d="M17.5,7.25A.25.25,0,0,1,17.75,7"/><line class="cls-1" x1="17.5" y1="7.25" x2="17.5" y2="7.25"/><path class="cls-1" d="M17.75,7.5a.25.25,0,0,1-.25-.25"/><line class="cls-1" x1="17.75" y1="7.5" x2="17.75" y2="7.5"/><path class="cls-1" d="M18,7.25a.25.25,0,0,1-.25.25"/><path class="cls-1" d="M21.205,8.5a1.339,1.339,0,0,0,.037-.312c0-1.72-.6-1.731-3-3.247L17.7,3.62a.5.5,0,0,0-.924,0L15.768,6.038A4,4,0,0,1,12.076,8.5H4.742C0,6,4.274.59,5.105,3.076c.271.814,1.628.361,1.468-.6C5.946-1.29.5.669.5,5.5A5.474,5.474,0,0,0,3.476,10.09C2.586,12.572,1.2,16.032.554,17.629c-.325.8.9,1.294,1.446.383,1.555-2.6,2.08-4.512,7.742-4.512a10.693,10.693,0,0,1,2.759.255"/></svg>