<svg id="Light" xmlns="http://www.w3.org/2000/svg" viewBox="0 0 24 24"><defs><style>.cls-1{fill:none;stroke:#000;stroke-linecap:round;stroke-linejoin:round;}</style></defs><title>pets-paw</title><ellipse class="cls-1" cx="3.145" cy="10.009" rx="2.5" ry="3.971"/><path class="cls-1" d="M10.96,4.24c.079,1.992-.874,3.646-2.127,3.695S6.5,6.412,6.42,4.42,7.293.775,8.547.725,10.881,2.249,10.96,4.24Z"/><ellipse class="cls-1" cx="20.855" cy="10.009" rx="2.5" ry="3.971"/><path class="cls-1" d="M13.04,4.24c-.079,1.992.874,3.646,2.127,3.695S17.5,6.412,17.58,4.42,16.707.775,15.453.725,13.119,2.249,13.04,4.24Z"/><path class="cls-1" d="M15.412,13.533c-.342-1.7-1.365-3.752-3.412-3.752s-3.07,2.047-3.412,3.752c-.368,1.84-3.412,3.071-3.412,5.8,0,5.257,13.648,5.257,13.648,0C18.824,16.6,15.78,15.373,15.412,13.533Z"/></svg>