<svg id="Light" xmlns="http://www.w3.org/2000/svg" viewBox="0 0 24 24"><defs><style>.cls-1{fill:none;stroke:#000;stroke-linecap:round;stroke-linejoin:round;}</style></defs><title>pets-certificate</title><rect class="cls-1" x="0.5" y="3" width="23" height="18" rx="1" ry="1"/><path class="cls-1" d="M23.5,7a4,4,0,0,1-4-4"/><path class="cls-1" d="M19.5,21a4,4,0,0,1,4-4"/><path class="cls-1" d="M.5,17a4,4,0,0,1,4,4"/><path class="cls-1" d="M4.5,3a4,4,0,0,1-4,4"/><path class="cls-1" d="M12.867,11a1.075,1.075,0,0,0-1.735,0L9.489,13.236A1.125,1.125,0,0,0,9.4,14.385a1.1,1.1,0,0,0,.959.615h3.288a1.107,1.107,0,0,0,.867-1.751Z"/><circle class="cls-1" cx="8.127" cy="9.857" r="1.286"/><circle class="cls-1" cx="11.984" cy="7.286" r="1.286"/><circle class="cls-1" cx="15.873" cy="9.857" r="1.286"/><line class="cls-1" x1="8.5" y1="17" x2="15.5" y2="17"/><line class="cls-1" x1="9.5" y1="19" x2="14.5" y2="19"/></svg>