<svg id="Light" xmlns="http://www.w3.org/2000/svg" viewBox="0 0 24 24"><defs><style>.cls-1{fill:none;stroke:#000;stroke-linecap:round;stroke-linejoin:round;}</style></defs><title>pets-tick-free</title><path class="cls-1" d="M8.792,15.205A3.233,3.233,0,0,0,12,17.5c3.947,0,4.3-5.247,2.439-7.942"/><path class="cls-1" d="M12.692,8.5H10.6a5.675,5.675,0,0,0-2.1,4.206"/><path class="cls-1" d="M15.5,15l.738,1.136A1.819,1.819,0,0,1,16.5,17v2"/><path class="cls-1" d="M15.5,11a3.274,3.274,0,0,0,3-2"/><path class="cls-1" d="M8.5,11a3.274,3.274,0,0,1-3-2"/><path class="cls-1" d="M9.5,9.2c-1.355-.5-1.391-1.178-2-2.7"/><path class="cls-1" d="M8.5,12.515a2.938,2.938,0,0,0-2.251,1.747L6,14.843"/><path class="cls-1" d="M15.5,12.515a2.938,2.938,0,0,1,2.251,1.747l.249.581"/><path class="cls-1" d="M7.653,16.347c-.193.337-.1.267-.153.653v2"/><path class="cls-1" d="M2.587,18.608A11.5,11.5,0,0,1,18.608,2.587"/><path class="cls-1" d="M20.136,3.872A11.5,11.5,0,0,1,3.865,20.128Z"/><circle class="cls-1" cx="12" cy="7" r="1.5"/></svg>