<svg id="Light" xmlns="http://www.w3.org/2000/svg" viewBox="0 0 24 24"><defs><style>.cls-1{fill:none;stroke:#000;stroke-linecap:round;stroke-linejoin:round;}</style></defs><title>pets-hospital</title><path class="cls-1" d="M20.5,9.5v-2l-.191.115a6.752,6.752,0,0,0-3.655,4.645.992.992,0,0,1-.965.74H8.5a2,2,0,0,0-2,2v1.027a2,2,0,0,1-.211.9l-.578,1.155a2,2,0,0,0-.211.895V22.5a1,1,0,0,0,2,0V20.328a2,2,0,0,1,.586-1.414L9,18v1a2.534,2.534,0,0,0,.105.947l1.5,3a1,1,0,1,0,1.789-.9l-1.315-2.63c.176-.536.324-1,.45-1.395H16l.384,4.6a1,1,0,0,0,.991.868H17.5a1,1,0,0,0,1-1v-.735c0-4.111.031-5.156,2-8.765H22a1.175,1.175,0,0,0,1.107-.445L23.5,11.5Z"/><path class="cls-1" d="M7.112,13.559a2.013,2.013,0,0,0-2.9,1.033L3.5,16.5"/><path class="cls-1" d="M9.5,4.5a1,1,0,0,0-1-1h-2v-2a1,1,0,0,0-1-1h-1a1,1,0,0,0-1,1v2h-2a1,1,0,0,0-1,1v1a1,1,0,0,0,1,1h2v2a1,1,0,0,0,1,1h1a1,1,0,0,0,1-1v-2h2a1,1,0,0,0,1-1Z"/></svg>