<svg xmlns="http://www.w3.org/2000/svg" viewBox="0 0 24 24"><defs><style>.a{fill:none;stroke:#000;stroke-linecap:round;stroke-linejoin:round;}</style></defs><title>plane-trip-food-service</title><path class="a" d="M7.5,14v3a2,2,0,0,0,4,0V14"/><line class="a" x1="9.5" y1="14" x2="9.5" y2="23.5"/><path class="a" d="M14.5,23.5V14s2.827,1.413,2.992,6.985a.5.5,0,0,1-.5.515H14.5"/><line class="a" x1="1.5" y1="12" x2="22.5" y2="12"/><path class="a" d="M14.376,9.459l1.953-3.907,3.835-1.429a1.633,1.633,0,1,0-1.249-3.017L7.758,5.96,5.516,4.839A.5.5,0,0,0,5.1,4.827L3.13,5.669a.5.5,0,0,0-.156.813L5.892,9.4a.5.5,0,0,0,.539.111l5.817-2.327L11.4,9.459"/><path class="a" d="M15.245,2.7,10,.538a.5.5,0,0,0-.382,0L6.794,1.709l5.5,2.277"/></svg>