<svg xmlns="http://www.w3.org/2000/svg" viewBox="0 0 24 24"><defs><style>.a{fill:none;stroke:#000;stroke-linecap:round;stroke-linejoin:round;}</style></defs><title>plane-boarding-pass</title><rect class="a" x="0.5" y="4.5" width="23" height="15" rx="1" ry="1"/><path class="a" d="M10.219,11.531,7.8,10.447a.5.5,0,0,0-.453.024l-1.073.617a.5.5,0,0,0-.022.854L9.9,14.3a.5.5,0,0,0,.455.045l4.3-1.7L13.275,15.9a.5.5,0,0,0,.691.641l.91-.473a.515.515,0,0,0,.2-.185l2.708-4.473,2.956-1.459a1.278,1.278,0,0,0-.989-2.357Z"/><path class="a" d="M16.43,8.963,12.742,6.651a.5.5,0,0,0-.5-.02l-1.038.536a.5.5,0,0,0-.054.857l2.839,1.947"/><path class="a" d="M2.753,7.75A.25.25,0,1,1,3,8a.25.25,0,0,1-.25-.25"/><path class="a" d="M2.753,10.75A.25.25,0,1,1,3,11a.25.25,0,0,1-.25-.25"/><path class="a" d="M2.753,13.75A.25.25,0,1,1,3,14a.25.25,0,0,1-.25-.25"/><path class="a" d="M2.753,16.75A.25.25,0,1,1,3,17a.25.25,0,0,1-.25-.25"/></svg>