<svg xmlns="http://www.w3.org/2000/svg" viewBox="0 0 24 24"><defs><style>.a{fill:none;stroke:#000;stroke-linecap:round;stroke-linejoin:round;}</style></defs><title>plane-boarding-pass-check</title><path class="a" d="M14.581,6.094a1.187,1.187,0,0,1,.853.765,1.141,1.141,0,0,1,.066.379,1.173,1.173,0,0,1-.549,1.017L8,12.954a.415.415,0,0,1-.458-.013L5.252,10.7a.231.231,0,0,1-.035-.323.24.24,0,0,1,.04-.038L6.3,9.423a.227.227,0,0,1,.221-.038l1.3.777L9.475,9.008,6.342,7.068a.285.285,0,0,1-.032-.4.257.257,0,0,1,.045-.042l.766-.568a.284.284,0,0,1,.269-.038l4.317,1.607,2-1.363A1.11,1.11,0,0,1,14.581,6.094Z"/><path class="a" d="M9.5,16.5h-7a2,2,0,0,1-2-2V2.5a2,2,0,0,1,2-2h16a2,2,0,0,1,2,2v8"/><path class="a" d="M23.5,17.5a6,6,0,1,1-6-6"/><path class="a" d="M23.5,13l-5.47,5.469a.749.749,0,0,1-1.06,0L15.25,16.75"/><path class="a" d="M3.25,2.5A.25.25,0,1,1,3,2.75a.25.25,0,0,1,.25-.25"/><path class="a" d="M5.75,2.5a.25.25,0,1,1-.25.25.25.25,0,0,1,.25-.25"/><path class="a" d="M8.25,2.5A.25.25,0,1,1,8,2.75a.25.25,0,0,1,.25-.25"/></svg>