<svg xmlns="http://www.w3.org/2000/svg" viewBox="0 0 24 24"><defs><style>.a{fill:none;stroke:#000;stroke-linecap:round;stroke-linejoin:round;}</style></defs><title>plane-trip-land-time</title><path class="a" d="M20.284,13.8l.947-2.48a.5.5,0,0,1,.337-.3l1.2-.322a.5.5,0,0,1,.619.588l-.916,4.254a.5.5,0,0,1-.29.354l-4.243,1.843,3.69,1.638a.5.5,0,0,1-.052.934l-1.039.328a.5.5,0,0,1-.291,0l-5.392-1.577-3.52,1.367a1.278,1.278,0,0,1-.967-2.365Z"/><path class="a" d="M14,16.5l1.011-4.4a.5.5,0,0,1,.335-.364l1.1-.351a.5.5,0,0,1,.642.575l-.708,3.519"/><circle class="a" cx="6.087" cy="5.99" r="5.49"/><polyline class="a" points="8.833 5.99 6.087 5.99 6.087 2.461"/></svg>