<svg id="Light" xmlns="http://www.w3.org/2000/svg" viewBox="0 0 24 24"><defs><style>.cls-1{fill:none;stroke:#000;stroke-linecap:round;stroke-linejoin:round;}</style></defs><title>plant-flower</title><path class="cls-1" d="M16.344,14.494A1.9,1.9,0,0,1,17.453,16c0,1.381-2.462,2.5-5.5,2.5s-5.5-1.119-5.5-2.5a1.824,1.824,0,0,1,1-1.438"/><path class="cls-1" d="M6.7,16.744,8.453,22c0,.828,1.567,1.5,3.5,1.5s3.5-.672,3.5-1.5L17.2,16.745"/><line class="cls-1" x1="11.953" y1="16" x2="11.953" y2="7"/><path class="cls-1" d="M13.453,3.5a1.5,1.5,0,0,1-3,0c0-.828,1.5-3,1.5-3S13.453,2.672,13.453,3.5Z"/><polyline class="cls-1" points="9.953 8.5 11.953 10.5 13.953 8.5"/><path class="cls-1" d="M17.575,7a1.5,1.5,0,0,1-2.122-2.121c.586-.586,3.182-1.061,3.182-1.061S18.16,6.414,17.575,7Z"/><path class="cls-1" d="M6.332,7A1.5,1.5,0,0,0,8.453,4.879c-.586-.586-3.182-1.061-3.182-1.061S5.746,6.414,6.332,7Z"/><path class="cls-1" d="M4.408,12.453a1.5,1.5,0,0,0,.092-3c-.828-.026-3.045,1.407-3.045,1.407S3.58,12.428,4.408,12.453Z"/><line class="cls-1" x1="7.453" y1="12" x2="11.953" y2="14"/><line class="cls-1" x1="16.453" y1="12" x2="11.953" y2="14"/><path class="cls-1" d="M19.592,12.453a1.5,1.5,0,0,1-.092-3c.828-.026,3.045,1.407,3.045,1.407S20.42,12.428,19.592,12.453Z"/></svg>