<svg id="Light" xmlns="http://www.w3.org/2000/svg" viewBox="0 0 24 24"><defs><style>.cls-1{fill:none;stroke:#000;stroke-linecap:round;stroke-linejoin:round;}</style></defs><title>plant-smile</title><path class="cls-1" d="M19.5,11.27l-.847,10.166A2,2,0,0,1,16.66,23.27H7.34a2,2,0,0,1-1.993-1.834L4.5,11.27"/><line class="cls-1" x1="3.5" y1="11.27" x2="20.5" y2="11.27"/><path class="cls-1" d="M10.654,14.888a1.248,1.248,0,0,0-2.154,0"/><path class="cls-1" d="M13.346,14.888a1.248,1.248,0,0,1,2.154,0"/><path class="cls-1" d="M8.872,18.269a3.446,3.446,0,0,0,6.256,0"/><path class="cls-1" d="M12,11.27l5.035-9.153a.481.481,0,0,1,.861.034A6.465,6.465,0,0,1,12,11.27Z"/><path class="cls-1" d="M12,11.27,6.965,2.117a.481.481,0,0,0-.861.034A6.465,6.465,0,0,0,12,11.27Z"/><path class="cls-1" d="M9.019,5.851A40.81,40.81,0,0,1,11.571.973a.5.5,0,0,1,.858,0,41.4,41.4,0,0,1,2.524,4.811"/></svg>