<svg xmlns="http://www.w3.org/2000/svg" viewBox="0 0 24 24"><defs><style>.a{fill:none;stroke:#000;stroke-linecap:round;stroke-linejoin:round;}</style></defs><title>plane-trip-time</title><path class="a" d="M12.5,18.5,7.816,22.758A2.849,2.849,0,0,1,5.9,23.5H4l3.5-5"/><path class="a" d="M10.3,20.5h7.95a1.25,1.25,0,0,0,0-2.5H17.5a3.37,3.37,0,0,0-2.8-1.5H4a.961.961,0,0,1-.932-.728l-.355-1.421a1.124,1.124,0,0,0-1.09-.851H1a.5.5,0,0,0-.5.5v3.5a1.772,1.772,0,0,0,1.48,1.747l4.475.746"/><circle class="a" cx="17.5" cy="6.5" r="6"/><polyline class="a" points="19.5 6.5 17.5 6.5 17.5 3.5"/></svg>