<svg id="Light" xmlns="http://www.w3.org/2000/svg" viewBox="0 0 24 24"><defs><style>.cls-1{fill:none;stroke:#000;stroke-linecap:round;stroke-linejoin:round;}</style></defs><title>plant-pot</title><path class="cls-1" d="M15.432,15.393A1.016,1.016,0,0,1,16.375,14a1.75,1.75,0,0,0,0-3.5h-1.25a.75.75,0,0,1,0-1.5h.25a2,2,0,0,0,0-4c-.9,0-1.458.917-2.048-.1a.945.945,0,0,1,.255-1.188,1.723,1.723,0,0,0,.793-1.466A1.751,1.751,0,0,0,12.625.5h-1.25a1.751,1.751,0,0,0-1.75,1.75,1.723,1.723,0,0,0,.793,1.466A.945.945,0,0,1,10.673,4.9c-.59,1.013-1.145.1-2.048.1a2,2,0,0,0,0,4h.25a.75.75,0,0,1,0,1.5H7.625a1.75,1.75,0,0,0,0,3.5,1.016,1.016,0,0,1,.943,1.393"/><path class="cls-1" d="M16.777,21.382A3,3,0,0,1,13.909,23.5H10.341a3,3,0,0,1-2.868-2.118L6.324,17.647A.5.5,0,0,1,6.8,17H17.448a.5.5,0,0,1,.478.647Z"/><line class="cls-1" x1="12.125" y1="17" x2="12.125" y2="7.5"/></svg>