<svg xmlns="http://www.w3.org/2000/svg" viewBox="0 0 24 24"><defs><style>.a{fill:none;stroke:#000;stroke-linecap:round;stroke-linejoin:round;}</style></defs><title>plane-trip-land-cancel</title><path class="a" d="M17.531,9.948,5,5.082,4.069,2.3a.5.5,0,0,0-.277-.3L1.2.881a.5.5,0,0,0-.7.459V7.082l7.5,3-6.421,3A.5.5,0,0,0,1.613,14l2.729,1.023a.5.5,0,0,0,.316.012l6.4-1.881"/><path class="a" d="M14.754,8.846,12.076,2.272A.5.5,0,0,0,11.809,2L9.58,1.046a.5.5,0,0,0-.664.637L11.087,7.4"/><circle class="a" cx="17.5" cy="17.5" r="6"/><line class="a" x1="13.258" y1="21.742" x2="21.743" y2="13.257"/></svg>