<svg xmlns="http://www.w3.org/2000/svg" viewBox="0 0 24 24"><defs><style>.a{fill:none;stroke:#000;stroke-linecap:round;stroke-linejoin:round;}</style></defs><title>plane-board-arrival-departure</title><rect class="a" x="0.5" y="2.5" width="23" height="19" rx="1" ry="1"/><line class="a" x1="10" y1="12.5" x2="6" y2="12.5"/><line class="a" x1="4" y1="12.5" x2="2.5" y2="12.5"/><line class="a" x1="10" y1="15.5" x2="6" y2="15.5"/><line class="a" x1="4" y1="15.5" x2="2.5" y2="15.5"/><line class="a" x1="10" y1="18.5" x2="6" y2="18.5"/><line class="a" x1="4" y1="18.5" x2="2.5" y2="18.5"/><line class="a" x1="21" y1="12.5" x2="17" y2="12.5"/><line class="a" x1="15" y1="12.5" x2="13.5" y2="12.5"/><line class="a" x1="21" y1="15.5" x2="17" y2="15.5"/><line class="a" x1="15" y1="15.5" x2="13.5" y2="15.5"/><line class="a" x1="21" y1="18.5" x2="17" y2="18.5"/><line class="a" x1="15" y1="18.5" x2="13.5" y2="18.5"/><path class="a" d="M6.039,4.263A.259.259,0,0,1,6.4,4.02l.7.3a.258.258,0,0,1,.15.175l.56,2.233a.257.257,0,0,0,.179.186l1.29.369h.005a.962.962,0,0,1,.686.7h0a.961.961,0,0,1-.447,1.063l-.1.058a1.032,1.032,0,0,1-.845.039l-.012,0L3.2,7a.256.256,0,0,1-.158-.232L3,4.715a.257.257,0,0,1,.093-.2.26.26,0,0,1,.216-.055l1.078.159a.258.258,0,0,1,.206.236l.052.8a.257.257,0,0,0,.157.221l.914.385a.261.261,0,0,0,.245-.025.257.257,0,0,0,.113-.218Z"/><path class="a" d="M15.393,5.126a.258.258,0,0,1,.111-.418l.727-.237a.26.26,0,0,1,.228.034l1.884,1.322a.258.258,0,0,0,.257.023l1.217-.565,0,0a.96.96,0,0,1,.974.076h0a.962.962,0,0,1,.358,1.1l-.037.108a1.031,1.031,0,0,1-.614.583l-.012,0-5.455,1.9a.258.258,0,0,1-.271-.073L13.391,7.457a.257.257,0,0,1,.065-.4l.919-.585a.256.256,0,0,1,.31.043l.56.567a.258.258,0,0,0,.264.064l.942-.307a.259.259,0,0,0,.169-.179.256.256,0,0,0-.057-.239Z"/></svg>