<svg xmlns="http://www.w3.org/2000/svg" viewBox="0 0 24 24"><defs><style>.a{fill:none;stroke:#000;stroke-linecap:round;stroke-linejoin:round;}</style></defs><title>plane-trip-take-off-cancel</title><path class="a" d="M15.915,9.5l1.209-2.418,4.7-1.75a2,2,0,1,0-1.53-3.7L6.624,7.582l-2.792-1.4a.5.5,0,0,0-.421-.013L.8,7.291A.5.5,0,0,0,.646,8.1l3.978,3.978,7.5-3-3,8"/><path class="a" d="M15.8,3.591,9.33.922a.5.5,0,0,0-.382,0l-2.39.991a.5.5,0,0,0,0,.924l5.623,2.327"/><circle class="a" cx="17.091" cy="17.5" r="6"/><line class="a" x1="12.849" y1="21.742" x2="21.335" y2="13.257"/></svg>