<svg xmlns="http://www.w3.org/2000/svg" viewBox="0 0 24 24"><defs><style>.a{fill:none;stroke:#000;stroke-linecap:round;stroke-linejoin:round;}</style></defs><title>plane-boarding-pass-1</title><path class="a" d="M18.581,9.077a1.189,1.189,0,0,1,.853.766,1.13,1.13,0,0,1,.066.378,1.176,1.176,0,0,1-.549,1.018l-6.761,4.2a.416.416,0,0,1-.459-.013l-2.479-1.74a.23.23,0,0,1-.035-.322.24.24,0,0,1,.04-.038l1.04-.918a.229.229,0,0,1,.221-.038l1.3.777,1.653-1.154-3.133-1.939a.285.285,0,0,1-.032-.4.263.263,0,0,1,.045-.043l.766-.568A.287.287,0,0,1,11.39,9l4.317,1.608,2-1.364A1.11,1.11,0,0,1,18.581,9.077Z"/><path class="a" d="M21.5,12a2,2,0,0,1,1.6-1.96.5.5,0,0,0,.4-.49V5.5a1,1,0,0,0-1-1H1.5a1,1,0,0,0-1,1V9.55a.5.5,0,0,0,.4.49,2,2,0,0,1,0,3.92.5.5,0,0,0-.4.49V18.5a1,1,0,0,0,1,1h21a1,1,0,0,0,1-1V14.45a.5.5,0,0,0-.4-.49A2,2,0,0,1,21.5,12Z"/><path class="a" d="M5,16.75a.25.25,0,1,1,.25.25A.25.25,0,0,1,5,16.75"/><path class="a" d="M5,14.25a.25.25,0,1,1,.25.25A.25.25,0,0,1,5,14.25"/><path class="a" d="M5,11.75a.25.25,0,1,1,.25.25A.25.25,0,0,1,5,11.75"/><path class="a" d="M5,9.25a.25.25,0,1,1,.25.25A.25.25,0,0,1,5,9.25"/><path class="a" d="M5,6.75A.25.25,0,1,1,5.25,7,.25.25,0,0,1,5,6.75"/></svg>