<svg xmlns="http://www.w3.org/2000/svg" viewBox="0 0 24 24"><defs><style>.a{fill:none;stroke:#000;stroke-linecap:round;stroke-linejoin:round;}</style></defs><title>plane-trip-cocktail-service</title><path class="a" d="M14.376,9.459l1.953-3.907,3.835-1.429a1.633,1.633,0,1,0-1.249-3.017L7.758,5.96,5.516,4.839A.5.5,0,0,0,5.1,4.827L3.13,5.669a.5.5,0,0,0-.156.813L5.892,9.4a.5.5,0,0,0,.539.111l5.817-2.327L11.4,9.459"/><path class="a" d="M15.245,2.7,10,.538a.5.5,0,0,0-.382,0l-1.711.709a.5.5,0,0,0,0,.924L12.3,3.986"/><line class="a" x1="1.5" y1="12" x2="22.5" y2="12"/><line class="a" x1="13.5" y1="23.5" x2="9.5" y2="23.5"/><line class="a" x1="11.5" y1="23.5" x2="11.5" y2="20"/><path class="a" d="M14.96,16a.509.509,0,0,1,.5.588,4,4,0,0,1-7.914,0A.509.509,0,0,1,8.04,16Z"/><path class="a" d="M15,17.937A2,2,0,1,0,13.5,16"/></svg>