<svg id="Light" xmlns="http://www.w3.org/2000/svg" viewBox="0 0 24 24"><defs><style>.cls-1{fill:none;stroke:#000;stroke-linecap:round;stroke-linejoin:round;}</style></defs><title>plant-1</title><line class="cls-1" x1="12" y1="23.5" x2="12" y2="6.836"/><path class="cls-1" d="M12,6.836s2-1.291,2-3.228a4.144,4.144,0,0,0-1.69-3,.49.49,0,0,0-.621,0,4.143,4.143,0,0,0-1.689,3C10,5.545,12,6.836,12,6.836Z"/><path class="cls-1" d="M12,10.455s.9-4.038,6.093-4.038a.5.5,0,0,1,.419.8A7.942,7.942,0,0,1,12,10.455Z"/><path class="cls-1" d="M12,10.455s-.9-4.038-6.093-4.038a.5.5,0,0,0-.419.8A7.942,7.942,0,0,0,12,10.455Z"/><path class="cls-1" d="M12,15.455s1.809-4.31,7.6-3.2a.5.5,0,0,1,.262.858A8.855,8.855,0,0,1,12,15.455Z"/><path class="cls-1" d="M12,15.455s-1.809-4.31-7.6-3.2a.5.5,0,0,0-.262.858A8.855,8.855,0,0,0,12,15.455Z"/><path class="cls-1" d="M12,19.955s-2.767-3.766-8.139-1.331a.505.505,0,0,0-.054.9A8.853,8.853,0,0,0,12,19.955Z"/><path class="cls-1" d="M12,19.955s2.767-3.766,8.139-1.331a.505.505,0,0,1,.054.9A8.853,8.853,0,0,1,12,19.955Z"/></svg>