<svg xmlns="http://www.w3.org/2000/svg" viewBox="0 0 24 24"><defs><style>.a{fill:none;stroke:#000;stroke-linecap:round;stroke-linejoin:round;}</style></defs><title>plane</title><line class="a" x1="10.5" y1="17" x2="13.5" y2="17"/><path class="a" d="M12,3a1,1,0,0,1,1,1h1.9a.5.5,0,0,1,.376.829L13.37,7l1.972,10.056a3.388,3.388,0,1,1-6.684,0L10.631,7l-1.9-2.17A.5.5,0,0,1,9.1,4H11A1,1,0,0,1,12,3Z"/><path class="a" d="M8.879,15.931S2,10.5,1.431,10s-.5-1.3.246-1.3l8.152,2.392"/><line class="a" x1="13.499" y1="17" x2="10.499" y2="17"/><path class="a" d="M15.121,15.931S22,10.5,22.57,10s.5-1.3-.246-1.3l-8.153,2.389"/></svg>