<svg xmlns="http://www.w3.org/2000/svg" viewBox="0 0 24 24"><defs><style>.a{fill:none;stroke:#000;stroke-linecap:round;stroke-linejoin:round;}</style></defs><title>police-man-2</title><path class="a" d="M23,23.5V21.394a1.98,1.98,0,0,0-.77-1.58C20.9,18.8,17.73,17,12,17S3.105,18.8,1.77,19.814A1.98,1.98,0,0,0,1,21.394V23.5"/><line class="a" x1="12" y1="17" x2="12" y2="23.5"/><path class="a" d="M18,20.5v.929a2,2,0,0,1-.891,1.665L16.5,23.5l-.609-.406A2,2,0,0,1,15,21.429V20.5Z"/><path class="a" d="M13.5,13a2.5,2.5,0,0,1-3,0"/><path class="a" d="M2.5,5.5a45.636,45.636,0,0,0,19,0"/><path class="a" d="M12,15.5a6,6,0,0,1-6-6V7l.963-4.175A3,3,0,0,1,9.887.5h4.226a3,3,0,0,1,2.924,2.325L18,7V9.5A6,6,0,0,1,12,15.5Z"/><path class="a" d="M13.5,2.5C13.5,5,12,5,12,5s-1.5,0-1.5-2.5Z"/><path class="a" d="M11,9A2.5,2.5,0,0,1,6,9C6,7.619,7.119,7.5,8.5,7.5S11,7.619,11,9Z"/><path class="a" d="M13,9a2.5,2.5,0,0,0,5,0c0-1.381-1.119-1.5-2.5-1.5S13,7.619,13,9Z"/><path class="a" d="M11,9a1.254,1.254,0,0,1,2,0"/></svg>