<svg xmlns="http://www.w3.org/2000/svg" viewBox="0 0 24 24"><defs><style>.a{fill:none;stroke:#000;stroke-linecap:round;stroke-linejoin:round;}</style></defs><title>police-woman-4</title><path class="a" d="M23,23.163V21.056a1.978,1.978,0,0,0-.77-1.579C20.9,18.458,17.73,16.663,12,16.663S3.105,18.458,1.77,19.477A1.978,1.978,0,0,0,1,21.056v2.107"/><line class="a" x1="12" y1="16.663" x2="12" y2="23.163"/><path class="a" d="M18,20.663v.429a2,2,0,0,1-.891,1.664l-.609.407-.609-.407A2,2,0,0,1,15,21.092v-.429a.5.5,0,0,1,.5-.5h2A.5.5,0,0,1,18,20.663Z"/><path class="a" d="M13.5,11.663a2.5,2.5,0,0,1-3,0"/><path class="a" d="M18.728,5.479l1-2.992a.5.5,0,0,0-.566-.648c-2.522.5-4.978.657-6.833-.882a.505.505,0,0,0-.652,0C9.819,2.5,7.363,2.336,4.841,1.839a.5.5,0,0,0-.566.648l1,2.992a1,1,0,0,0,.949.684H17.779A1,1,0,0,0,18.728,5.479Z"/><path class="a" d="M6,6.138v.025c0,1.656,2.686,3,6,3s6-1.344,6-3V6.138"/><path class="a" d="M12,3.663a.25.25,0,1,1-.25.25.249.249,0,0,1,.25-.25"/><path class="a" d="M6,8.51c-.139,1.78-.758,4.291-2.312,5.321a.507.507,0,0,0,.027.884,4.511,4.511,0,0,0,2.76.3"/><path class="a" d="M17.482,15.006a4.511,4.511,0,0,0,2.8-.291.507.507,0,0,0,.027-.884C18.758,12.8,18.139,10.29,18,8.51"/><path class="a" d="M6,6.138V9.163a6,6,0,0,0,12,0V6.138"/></svg>