<svg xmlns="http://www.w3.org/2000/svg" viewBox="0 0 24 24"><defs><style>.a{fill:none;stroke:#000;stroke-linecap:round;stroke-linejoin:round;}</style></defs><title>police-man-3</title><path class="a" d="M23,23.5V21.394a1.98,1.98,0,0,0-.77-1.58C20.9,18.8,17.73,17,12,17S3.105,18.8,1.77,19.814A1.98,1.98,0,0,0,1,21.394V23.5"/><line class="a" x1="12" y1="17" x2="12" y2="23.5"/><path class="a" d="M18,21v.429a2,2,0,0,1-.891,1.665L16.5,23.5l-.609-.406A2,2,0,0,1,15,21.429V21a.5.5,0,0,1,.5-.5h2A.5.5,0,0,1,18,21Z"/><path class="a" d="M13.5,12a2.5,2.5,0,0,1-3,0"/><path class="a" d="M13.453,3.089A2.4,2.4,0,0,1,12,5a2.4,2.4,0,0,1-1.453-1.911.508.508,0,0,1,.5-.589h1.91A.508.508,0,0,1,13.453,3.089Z"/><path class="a" d="M19,6.5a7.083,7.083,0,0,0-14,0"/><path class="a" d="M4.743,7.527a1,1,0,0,0,.744,1.217A30.832,30.832,0,0,0,12,9.5a30.832,30.832,0,0,0,6.513-.756,1,1,0,0,0,.744-1.217L19,6.5H5Z"/><path class="a" d="M6,8.854V9.5a6,6,0,0,0,12,0V8.854"/></svg>