<svg xmlns="http://www.w3.org/2000/svg" viewBox="0 0 24 24"><defs><style>.a{fill:none;stroke:#000;stroke-linecap:round;stroke-linejoin:round;}</style></defs><title>police-woman-3</title><path class="a" d="M2,6.4a46.117,46.117,0,0,0,20,0"/><path class="a" d="M18,7.107l-.636-4.026A3,3,0,0,0,14.393.5H9.607A3,3,0,0,0,6.636,3.081L6,7.107"/><line class="a" x1="12" y1="19.499" x2="12" y2="23.499"/><path class="a" d="M23.5,23.5a4,4,0,0,0-2.6-3.745L16,18.108"/><path class="a" d="M8,18.108,3.1,19.754A4,4,0,0,0,.5,23.5"/><path class="a" d="M18.07,21a.43.43,0,0,1,.43.43,2,2,0,0,1-.891,1.664L17,23.5l-.609-.406a2,2,0,0,1-.891-1.664.43.43,0,0,1,.43-.43Z"/><path class="a" d="M10.5,14a1.967,1.967,0,0,0,1.358.5h.284A1.965,1.965,0,0,0,13.5,14"/><path class="a" d="M6.019,9.5c-.871.437-.6,2.4.477,2.889a1,1,0,0,1,.572.747C7.51,15.778,10.613,17.5,12,17.5s4.49-1.721,4.932-4.364a1,1,0,0,1,.572-.747c1.078-.49,1.348-2.452.477-2.889"/><path class="a" d="M13,2.5a.5.5,0,0,1,.5.5v.43a2,2,0,0,1-.891,1.664L12,5.5l-.609-.406A2,2,0,0,1,10.5,3.429V3a.5.5,0,0,1,.5-.5Z"/><path class="a" d="M10,8.5H8a1,1,0,0,0-1,1,2,2,0,1,0,4,0A1,1,0,0,0,10,8.5Z"/><path class="a" d="M15,8.5h0a2,2,0,0,1,2,2v0a1,1,0,0,1-1,1H14a1,1,0,0,1-1-1v0a2,2,0,0,1,2-2Z" transform="translate(30 19.999) rotate(180)"/><line class="a" x1="11" y1="9.499" x2="13" y2="9.499"/><path class="a" d="M5.707,11.536a5.171,5.171,0,0,1-1.963,3.181.5.5,0,0,0-.04.831,4.426,4.426,0,0,0,2.915.933"/><path class="a" d="M18.282,11.545a5.167,5.167,0,0,0,1.961,3.172.5.5,0,0,1,.041.831,4.43,4.43,0,0,1-2.915.933"/></svg>