<svg xmlns="http://www.w3.org/2000/svg" viewBox="0 0 24 24"><defs><style>.a{fill:none;stroke:#000;stroke-linecap:round;stroke-linejoin:round;}</style></defs><title>police-woman-5</title><path class="a" d="M23,23.5V21.393a1.978,1.978,0,0,0-.77-1.579C20.9,18.8,17.73,17,12,17S3.105,18.8,1.77,19.814A1.978,1.978,0,0,0,1,21.393V23.5"/><line class="a" x1="12" y1="16.999" x2="12" y2="23.499"/><path class="a" d="M18,21v.43a2,2,0,0,1-.891,1.664l-.332.222a.5.5,0,0,1-.554,0l-.332-.222A2,2,0,0,1,15,21.429V21a.5.5,0,0,1,.5-.5h2A.5.5,0,0,1,18,21Z"/><path class="a" d="M13.5,12a2.5,2.5,0,0,1-3,0"/><path class="a" d="M14,9.249a.25.25,0,1,1-.25.25.25.25,0,0,1,.25-.25"/><path class="a" d="M10,9.249a.25.25,0,1,1-.25.25.25.25,0,0,1,.25-.25"/><path class="a" d="M2.5,6.5a45.6,45.6,0,0,0,19,0"/><path class="a" d="M6,7l.963-4.174A3,3,0,0,1,9.887.5h4.226a3,3,0,0,1,2.924,2.326L18,7V9.248A6.168,6.168,0,0,1,12.185,15.5,6,6,0,0,1,6,9.5Z"/><path class="a" d="M13.472,3.071a2.9,2.9,0,0,1-1.213,2.3.481.481,0,0,1-.518,0,2.9,2.9,0,0,1-1.213-2.3.51.51,0,0,1,.5-.572h1.948A.51.51,0,0,1,13.472,3.071Z"/><path class="a" d="M18,8c0,1.716.489,4.964,2.315,6.17a.506.506,0,0,1-.029.882,4.513,4.513,0,0,1-2.79.295"/><path class="a" d="M6,8c0,1.716-.489,4.964-2.315,6.17a.506.506,0,0,0,.029.882,4.508,4.508,0,0,0,2.793.294"/></svg>