<svg xmlns="http://www.w3.org/2000/svg" viewBox="0 0 24 24"><defs><style>.a{fill:none;stroke:#000;stroke-linecap:round;stroke-linejoin:round;}</style></defs><title>police-hat-2</title><line class="a" x1="4.5" y1="11.75" x2="4.5" y2="14.75"/><polyline class="a" points="0.883 11.75 7.5 11.75 7.5 14.75"/><line class="a" x1="19.5" y1="11.75" x2="19.5" y2="14.75"/><polyline class="a" points="23.117 11.75 16.5 11.75 16.5 14.75"/><path class="a" d="M12.614,6.706l.212.7a.478.478,0,0,0,.565.328l.709-.164a.645.645,0,0,1,.614,1.068l-.5.535a.484.484,0,0,0,0,.656l.5.535a.645.645,0,0,1-.614,1.068l-.709-.164a.478.478,0,0,0-.565.328l-.212.7a.641.641,0,0,1-1.228,0l-.212-.7a.478.478,0,0,0-.565-.328l-.709.164a.645.645,0,0,1-.614-1.068l.5-.535a.484.484,0,0,0,0-.656l-.5-.535A.645.645,0,0,1,9.9,7.569l.709.164a.478.478,0,0,0,.565-.328l.212-.7A.641.641,0,0,1,12.614,6.706Z"/><rect class="a" x="2.5" y="14.75" width="19" height="3" rx="1" ry="1"/><path class="a" d="M20.5,17.75a9.725,9.725,0,0,1-17,0"/><path class="a" d="M21.256,15.086c1.083-1.445,2.244-3.521,2.244-5.3C23.5,7.469,16.062,1.25,12,1.25S.5,7.469.5,9.781c0,1.784,1.161,3.86,2.244,5.305"/></svg>