<svg xmlns="http://www.w3.org/2000/svg" viewBox="0 0 24 24"><defs><style>.a{fill:none;stroke:#000;stroke-linecap:round;stroke-linejoin:round;}</style></defs><title>police-woman-1</title><line class="a" x1="12" y1="19.5" x2="12" y2="23.5"/><path class="a" d="M23.5,23.5a4,4,0,0,0-2.6-3.745L16,18.109"/><path class="a" d="M8,18.109,3.1,19.755A4,4,0,0,0,.5,23.5"/><path class="a" d="M18.5,21v1.232a.5.5,0,0,1-.223.416L17,23.5l-1.277-.852a.5.5,0,0,1-.223-.416V21a.5.5,0,0,1,.5-.5h2A.5.5,0,0,1,18.5,21Z"/><path class="a" d="M18.728,5.141l1-2.991a.5.5,0,0,0-.566-.649c-2.522.5-4.978.658-6.833-.881a.5.5,0,0,0-.652,0C9.819,2.159,7.363,2,4.841,1.5a.5.5,0,0,0-.566.649l1,2.991a1,1,0,0,0,.949.684H17.779A1,1,0,0,0,18.728,5.141Z"/><path class="a" d="M6,5.8v.05c0,1.656,2.686,3,6,3s6-1.344,6-3V5.8"/><path class="a" d="M12,3.325a.25.25,0,1,1-.25.25.25.25,0,0,1,.25-.25"/><path class="a" d="M5.724,11.573a5.144,5.144,0,0,1-1.953,3.145.5.5,0,0,0-.041.831,4.427,4.427,0,0,0,2.915.932"/><path class="a" d="M18.3,11.517a5.194,5.194,0,0,0,1.969,3.2.5.5,0,0,1,.04.831,4.425,4.425,0,0,1-2.915.932"/><path class="a" d="M10.48,14a1.965,1.965,0,0,0,1.358.5h.283A1.967,1.967,0,0,0,13.48,14"/><path class="a" d="M11,10.532a1.089,1.089,0,0,0-1-.5,1.089,1.089,0,0,0-1,.5"/><path class="a" d="M15,10.532a1.089,1.089,0,0,0-1-.5,1.089,1.089,0,0,0-1,.5"/><path class="a" d="M17.967,6.168A11.584,11.584,0,0,1,18.114,8.5c-.034.349-.081.684-.133,1,.871.437.6,2.4-.477,2.889a1,1,0,0,0-.572.746C16.49,15.779,13.387,17.5,12,17.5s-4.49-1.721-4.932-4.365a1,1,0,0,0-.572-.746C5.418,11.9,5.148,9.937,6.019,9.5c-.052-.312-.1-.647-.133-1a11.571,11.571,0,0,1,.148-2.341"/></svg>