<svg xmlns="http://www.w3.org/2000/svg" viewBox="0 0 24 24"><defs><style>.a{fill:none;stroke:#000;stroke-linecap:round;stroke-linejoin:round;}</style></defs><title>police-man-1</title><path class="a" d="M10.5,13a1.967,1.967,0,0,0,1.358.5h.284A1.965,1.965,0,0,0,13.5,13"/><path class="a" d="M5.5,9.505A2.023,2.023,0,0,0,6.5,11.389a1,1,0,0,1,.572.746C7.51,14.779,10.613,16.5,12,16.5s4.49-1.721,4.932-4.365a1,1,0,0,1,.572-.746A2.026,2.026,0,0,0,18.5,9.511"/><line class="a" x1="12" y1="18.5" x2="12" y2="23.5"/><path class="a" d="M23.5,23.5v-1a4,4,0,0,0-2.6-3.745L16,17.109"/><path class="a" d="M8,17.109,3.1,18.755A4,4,0,0,0,.5,22.5v1"/><path class="a" d="M18.5,20.5v.93a2,2,0,0,1-.891,1.664L17,23.5l-.609-.406A2,2,0,0,1,15.5,21.43V20.5Z"/><path class="a" d="M18.728,5.816l1-2.99a.5.5,0,0,0-.571-.649c-2.524.5-4.98.656-6.835-.888a.5.5,0,0,0-.639,0c-1.854,1.544-4.31,1.386-6.834.888a.5.5,0,0,0-.571.649l1,2.99a1,1,0,0,0,.949.684H17.779A1,1,0,0,0,18.728,5.816Z"/><path class="a" d="M6,6.475V6.5c0,1.657,2.686,3,6,3s6-1.343,6-3V6.475"/><path class="a" d="M12,4a.25.25,0,1,1-.25.25A.25.25,0,0,1,12,4"/></svg>