<svg xmlns="http://www.w3.org/2000/svg" viewBox="0 0 24 24"><defs><style>.a{fill:none;stroke:#000;stroke-linecap:round;stroke-linejoin:round;}</style></defs><title>police-hat-7</title><path class="a" d="M23.486,9.492A6,6,0,0,0,17.507,4H6.493A6,6,0,0,0,.514,9.492a3.948,3.948,0,0,0,.014.806l.637,5.419A4,4,0,0,0,4.33,19.166,37.375,37.375,0,0,0,12,20a37.375,37.375,0,0,0,7.67-.834,4,4,0,0,0,3.165-3.449l.637-5.419A3.948,3.948,0,0,0,23.486,9.492Z"/><path class="a" d="M20.5,18.9V13a4,4,0,0,0-4-4h-9a4,4,0,0,0-4,4v5.9"/><ellipse class="a" cx="12" cy="14.5" rx="1.5" ry="2.5"/><path class="a" d="M15,14.75C15,15.993,13.657,17,12,17s-3-1.007-3-2.25"/></svg>