<svg xmlns="http://www.w3.org/2000/svg" viewBox="0 0 24 24"><defs><style>.a{fill:none;stroke:#000;stroke-linecap:round;stroke-linejoin:round;}</style></defs><title>police-man-spy-1</title><path class="a" d="M13.5,13.5a2.5,2.5,0,0,0-3,0"/><path class="a" d="M19,7.985v2.557a1.993,1.993,0,0,1-1.887,2c-1.731.078-2.446-.274-4.563-1.674a1,1,0,0,0-1.1,0C9.32,12.272,8.6,12.617,6.869,12.523A1.991,1.991,0,0,1,5,10.529V7.985"/><path class="a" d="M17.5,5h0L16.324,1.184A1,1,0,0,0,15.058.552,11.21,11.21,0,0,1,12,1.211,11.21,11.21,0,0,1,8.942.552a1,1,0,0,0-1.266.632L6.5,5h0"/><path class="a" d="M23,23.5V21.394a1.98,1.98,0,0,0-.77-1.58C20.9,18.8,17.73,17,12,17S3.105,18.8,1.77,19.814A1.98,1.98,0,0,0,1,21.394V23.5"/><line class="a" x1="11" y1="23.5" x2="16.979" y2="17.521"/><line class="a" x1="12" y1="22.5" x2="7.02" y2="17.52"/><polyline class="a" points="13.294 21.206 12 17 10.706 21.206"/><path class="a" d="M20.03,18.527l-1.283,3.332a1,1,0,0,1-.933.641H16.5a.5.5,0,0,0-.5.5v.5"/><path class="a" d="M3.97,18.527l1.283,3.332a1,1,0,0,0,.933.641H7.5A.5.5,0,0,1,8,23v.5"/><path class="a" d="M6.815,12.521a6,6,0,0,0,10.362.013"/><path class="a" d="M20.247,6.717a.5.5,0,0,1-.1.9A24.45,24.45,0,0,1,12,9,24.45,24.45,0,0,1,3.852,7.612a.5.5,0,0,1-.1-.9L6.5,5a31.34,31.34,0,0,0,5.5.5A31.34,31.34,0,0,0,17.5,5Z"/></svg>