<svg id="Light" xmlns="http://www.w3.org/2000/svg" viewBox="0 0 24 24"><defs><style>.cls-1{fill:none;stroke:#000;stroke-linecap:round;stroke-linejoin:round;}</style></defs><title>pollution-skull</title><path class="cls-1" d="M15.5,15.5a1,1,0,0,1-1,1h-5a1,1,0,0,1-1-1v-1a1,1,0,0,1-1-1v-4a2,2,0,0,1,2-2h5a2,2,0,0,1,2,2v4a1,1,0,0,1-1,1Z"/><line class="cls-1" x1="10.5" y1="16.5" x2="10.5" y2="14"/><line class="cls-1" x1="13.5" y1="16.5" x2="13.5" y2="14"/><path class="cls-1" d="M10,10.75a.249.249,0,0,1,.25.25"/><path class="cls-1" d="M9.75,11a.249.249,0,0,1,.25-.25"/><path class="cls-1" d="M10,11.25A.25.25,0,0,1,9.75,11"/><path class="cls-1" d="M10.25,11a.25.25,0,0,1-.25.25"/><path class="cls-1" d="M14,10.75a.249.249,0,0,1,.25.25"/><path class="cls-1" d="M13.75,11a.249.249,0,0,1,.25-.25"/><path class="cls-1" d="M14,11.25a.25.25,0,0,1-.25-.25"/><path class="cls-1" d="M14.25,11a.25.25,0,0,1-.25.25"/><circle class="cls-1" cx="12" cy="12" r="11.5"/><line class="cls-1" x1="7" y1="17" x2="3.869" y2="20.132"/><line class="cls-1" x1="20.132" y1="3.868" x2="17" y2="7"/><line class="cls-1" x1="7" y1="7" x2="3.868" y2="3.868"/><line class="cls-1" x1="20.131" y1="20.132" x2="17" y2="17"/></svg>