<svg id="Light" xmlns="http://www.w3.org/2000/svg" viewBox="0 0 24 24"><defs><style>.cls-1{fill:none;stroke:#000;stroke-linecap:round;stroke-linejoin:round;}</style></defs><title>pollution-o2-message</title><path class="cls-1" d="M23.5,10.758c0,5.181-5.148,9.382-11.5,9.382a13.8,13.8,0,0,1-4.029-.592L1.362,22.624,3.95,17.459a8.612,8.612,0,0,1-3.45-6.7C.5,5.576,5.648,1.376,12,1.376S23.5,5.576,23.5,10.758Z"/><path class="cls-1" d="M14,12.624a1,1,0,0,1,1-1h0a1,1,0,0,1,1,1h0a1.427,1.427,0,0,1-.312.89L14,15.624h2"/><path class="cls-1" d="M12.5,11.624a2,2,0,1,1-4,0v-4a2,2,0,1,1,4,0Z"/></svg>