<svg id="Light" xmlns="http://www.w3.org/2000/svg" viewBox="0 0 24 24"><defs><style>.cls-1{fill:none;stroke:#000;stroke-linecap:round;stroke-linejoin:round;}</style></defs><title>pollution-skull-1</title><path class="cls-1" d="M12,6.5A5.5,5.5,0,0,0,6.5,12v2.5a1,1,0,0,0,1,1h.153a1,1,0,0,1,.986.836l.222,1.328a1,1,0,0,0,.986.836h4.306a1,1,0,0,0,.986-.836l.222-1.328a1,1,0,0,1,.986-.836H16.5a1,1,0,0,0,1-1V12A5.5,5.5,0,0,0,12,6.5Z"/><circle class="cls-1" cx="9.5" cy="12.5" r="1"/><circle class="cls-1" cx="14.5" cy="12.5" r="1"/><line class="cls-1" x1="10.5" y1="18.5" x2="10.5" y2="16"/><line class="cls-1" x1="13.5" y1="18.5" x2="13.5" y2="16"/><circle class="cls-1" cx="12" cy="12" r="11.5"/></svg>