<svg xmlns="http://www.w3.org/2000/svg" viewBox="0 0 24 24"><defs><style>.a{fill:none;stroke:#000;stroke-linecap:round;stroke-linejoin:round;}</style></defs><title>power-tools-wood-cutter</title><path class="a" d="M5.5.5a4,4,0,0,0-4,4V14a.5.5,0,0,0,.5.5H5a.5.5,0,0,1,.5.5v2a.5.5,0,0,0,.5.5h7a8.5,8.5,0,0,0,0-17Z"/><line class="a" x1="11.5" y1="17.5" x2="11.5" y2="20.5"/><path class="a" d="M.5,19A1.5,1.5,0,0,0,2,20.5H14.5"/><line class="a" x1="3.5" y1="22.5" x2="3.5" y2="23.5"/><line class="a" x1="3.5" y1="14.5" x2="3.5" y2="18.5"/><path class="a" d="M19.481,14.5H23a.5.5,0,0,1,.5.5v2a.5.5,0,0,1-.5.5H18.519"/><polyline class="a" points="10.5 3.5 10.5 5.5 6.55 5.5"/><line class="a" x1="14.5" y1="11.5" x2="19" y2="11.5"/><line class="a" x1="14.5" y1="13.5" x2="18" y2="13.5"/><path class="a" d="M16.5,6A2.5,2.5,0,0,1,14,8.5H9a2.5,2.5,0,0,1,0-5h5A2.5,2.5,0,0,1,16.5,6Z"/></svg>