<svg xmlns="http://www.w3.org/2000/svg" viewBox="0 0 24 24"><defs><style>.a{fill:none;stroke:#000;stroke-linecap:round;stroke-linejoin:round;}</style></defs><title>power-tools-drill</title><path class="a" d="M23.5,7.5A4.5,4.5,0,0,1,19,12H10.449A1.949,1.949,0,0,1,8.5,10.049V4.5A1.5,1.5,0,0,1,10,3h9A4.5,4.5,0,0,1,23.5,7.5Z"/><path class="a" d="M5.5,8a2,2,0,0,0,2,2h1V5h-1a2,2,0,0,0-2,2Z"/><line class="a" x1="0.5" y1="7.518" x2="5.5" y2="7.518"/><path class="a" d="M11.676,12a2,2,0,0,0,2,2h2.268"/><line class="a" x1="13.5" y1="3" x2="13.5" y2="12"/><line class="a" x1="14.5" y1="21" x2="17.5" y2="21"/><path class="a" d="M20.23,19.783A1,1,0,0,1,19.253,21H17.5l-2-9h3Z"/></svg>