<svg id="Light" xmlns="http://www.w3.org/2000/svg" viewBox="0 0 24 24"><defs><style>.cls-1,.cls-2,.cls-3,.cls-4{fill:none;stroke:#000;stroke-linecap:round;stroke-linejoin:round;}.cls-2{stroke-dasharray:1.763 2.644;}.cls-3{stroke-dasharray:1.741 2.611;}.cls-4{stroke-dasharray:2.047 3.07;}</style></defs><title>pregnancy-ultrasound-baby</title><path class="cls-1" d="M.5,14.591l9.946-9.946a2.2,2.2,0,0,0,3.108,0L23.5,14.591"/><path class="cls-1" d="M15.407,15.377q-.483.135-.973.231"/><path class="cls-2" d="M11.806,15.846A12.645,12.645,0,0,1,4.772,13.6"/><path class="cls-1" d="M3.72,12.785q-.377-.324-.733-.68"/><path class="cls-1" d="M21.013,12.105q-.357.358-.733.68"/><path class="cls-1" d="M18.975,13.766c-.28.183-.566.353-.859.513"/><path class="cls-1" d="M13.62,12.179a6.026,6.026,0,0,1-1.368.139m-2.961-.4a9.156,9.156,0,0,1-1.834-.788,9.181,9.181,0,0,0,1.834.788Zm9.236-2.3a7.986,7.986,0,0,1-1.355,1.121"/><path class="cls-1" d="M16.04,7.132a5.712,5.712,0,0,1-.766.643"/><path class="cls-3" d="M12.873,8.739A5.738,5.738,0,0,1,9.881,8.4"/><path class="cls-1" d="M8.726,7.775a5.72,5.72,0,0,1-.767-.643"/><path class="cls-1" d="M23.5,14.591q-.355.357-.728.686"/><path class="cls-4" d="M20.293,17.086a16.282,16.282,0,0,1-17.867-.845"/><path class="cls-1" d="M1.228,15.277q-.372-.33-.728-.686"/><circle class="cls-1" cx="16" cy="12.948" r="2.5"/></svg>