<svg id="Light" xmlns="http://www.w3.org/2000/svg" viewBox="0 0 24 24"><defs><style>.cls-1{fill:none;stroke:#000;stroke-linecap:round;stroke-linejoin:round;}</style></defs><title>pregnancy-ultrasound</title><path class="cls-1" d="M20.124,9.624a.5.5,0,0,1,.147.365.5.5,0,0,1-.163.357,12,12,0,0,1-16.217,0,.5.5,0,0,1-.015-.722L8.837,4.663A.5.5,0,0,1,9.5,4.625a4,4,0,0,0,4.993,0,.5.5,0,0,1,.666.036Z"/><path class="cls-1" d="M9,22.5a7.537,7.537,0,0,0,1.5-4"/><path class="cls-1" d="M15,22.5a7.537,7.537,0,0,1-1.5-4"/><line class="cls-1" x1="7.5" y1="22.5" x2="16.5" y2="22.5"/><line class="cls-1" x1="0.5" y1="15.5" x2="23.5" y2="15.5"/><rect class="cls-1" x="0.5" y="1.5" width="23" height="17" rx="1" ry="1"/></svg>