<svg id="Light" xmlns="http://www.w3.org/2000/svg" viewBox="0 0 24 24"><defs><style>.cls-1{fill:none;stroke:#000;stroke-linecap:round;stroke-linejoin:round;}</style></defs><title>pregnancy-sperm-1</title><path class="cls-1" d="M18.994,8.515c-3.594,0-5.507-1.909-5.507-3s1.913-3,5.507-3c2,0,4.506.97,4.506,3S21.059,8.515,18.994,8.515Z"/><path class="cls-1" d="M13.487,5.511c-2.723,0-2.619-1.961-4.966-1.961s-2.544,4.5-4.985,4.5C1.77,8.045,1.446,6.456.5,5.577"/><path class="cls-1" d="M18.539,21.493c-2.362,0-3.62-1.254-3.62-1.974s1.258-1.974,3.62-1.974c1.316,0,2.961.637,2.961,1.974S19.9,21.493,18.539,21.493Z"/><path class="cls-1" d="M14.919,19.519c-1.788,0-1.719-1.289-3.262-1.289s-1.672,2.954-3.276,2.954c-1.162,0-1.375-1.044-2-1.621"/><path class="cls-1" d="M13.539,14.494c-2.362,0-3.62-1.255-3.62-1.974s1.258-1.975,3.62-1.975c1.316,0,2.961.638,2.961,1.975S14.9,14.494,13.539,14.494Z"/><path class="cls-1" d="M9.919,12.52c-1.788,0-1.719-1.289-3.262-1.289s-1.672,2.954-3.276,2.954c-1.162,0-1.375-1.044-2-1.621"/></svg>