<svg xmlns="http://www.w3.org/2000/svg" viewBox="0 0 24 24"><defs><style>.a{fill:none;stroke:#000;stroke-linecap:round;stroke-linejoin:round;}</style></defs><title>presentation-screen</title><path class="a" d="M21,11.6a2,2,0,0,1-2,2H6a2,2,0,0,1-2-2v-9a2,2,0,0,1,2-2H19a2,2,0,0,1,2,2Z"/><line class="a" x1="4.004" y1="5.6" x2="21.004" y2="5.6"/><path class="a" d="M7.754,2.6a.25.25,0,1,1-.25.25.25.25,0,0,1,.25-.25"/><path class="a" d="M10.754,2.6a.25.25,0,1,1-.25.25.25.25,0,0,1,.25-.25"/><circle class="a" cx="12.09" cy="18.25" r="2.35"/><circle class="a" cx="4.698" cy="18.25" r="2.35"/><circle class="a" cx="19.318" cy="18.25" r="2.35"/><path class="a" d="M23,23.4a4.683,4.683,0,0,0-7.292,0A4.861,4.861,0,0,0,12,21.66"/><path class="a" d="M1,23.4a4.683,4.683,0,0,1,7.292,0A4.861,4.861,0,0,1,12,21.66"/></svg>