<svg xmlns="http://www.w3.org/2000/svg" viewBox="0 0 24 24"><defs><style>.a{fill:none;stroke:#000;stroke-linecap:round;stroke-linejoin:round;}</style></defs><title>presentation-microphone</title><path class="a" d="M10.254,19.5H3.9a1,1,0,0,1-.92-.606l-2.144-5A1,1,0,0,1,1.754,12.5H21.736a1,1,0,0,1,.919,1.393l-2.144,5a1,1,0,0,1-.92.606H13.254"/><line class="a" x1="13.254" y1="16.5" x2="13.254" y2="23.5"/><line class="a" x1="10.254" y1="23.5" x2="10.254" y2="16.5"/><path class="a" d="M14.247,6.5a3,3,0,0,1-6,0v-3a3,3,0,0,1,6,0Z"/><line class="a" x1="8.243" y1="3.5" x2="10.244" y2="3.5"/><line class="a" x1="8.243" y1="6.5" x2="10.244" y2="6.5"/><line class="a" x1="12.246" y1="3.5" x2="14.247" y2="3.5"/><line class="a" x1="12.246" y1="6.5" x2="14.247" y2="6.5"/><line class="a" x1="11.254" y1="9.5" x2="11.254" y2="12.5"/><path class="a" d="M4.24,12.5,2.388,9.539A2,2,0,0,1,2.369,7.45l.8-1.327"/><path class="a" d="M4.361,6.788,1.738,5.329,3.443,2.271A1.5,1.5,0,0,1,6.065,3.73Z"/><line class="a" x1="17.249" y1="12.5" x2="20.252" y2="7.5"/><path class="a" d="M22.96,7.293a1,1,0,0,1-1.415,1.414l-2.83-2.828L20.13,4.465Z"/><path class="a" d="M20.129,3.05a1,1,0,0,1,0,1.414L18.714,5.878a1,1,0,0,1-1.415,0l-.707-.707a2,2,0,1,1,2.83-2.828Z"/></svg>