<svg xmlns="http://www.w3.org/2000/svg" viewBox="0 0 24 24"><defs><style>.a{fill:none;stroke:#000;stroke-linecap:round;stroke-linejoin:round;}</style></defs><title>presentation-projector-screen-settings</title><rect class="a" x="2.504" y="2.5" width="19" height="17"/><circle class="a" cx="12.004" cy="22.5" r="1"/><line class="a" x1="12.004" y1="19.5" x2="12.004" y2="21.5"/><path class="a" d="M23.5,1.5a1,1,0,0,1-1,1H1.5a1,1,0,0,1,0-2h21A1,1,0,0,1,23.5,1.5Z"/><line class="a" x1="1.504" y1="19.5" x2="22.504" y2="19.5"/><circle class="a" cx="12.004" cy="10.75" r="1.25"/><path class="a" d="M13.066,5.914l.368,1.211a.827.827,0,0,0,.978.567l1.227-.284A1.116,1.116,0,0,1,16.7,9.257l-.858.925a.836.836,0,0,0,0,1.136l.858.925a1.116,1.116,0,0,1-1.062,1.849l-1.227-.284a.827.827,0,0,0-.978.567l-.368,1.211a1.109,1.109,0,0,1-2.124,0l-.368-1.211a.827.827,0,0,0-.978-.567l-1.227.284a1.116,1.116,0,0,1-1.062-1.849l.858-.925a.836.836,0,0,0,0-1.136l-.858-.925A1.116,1.116,0,0,1,8.369,7.408L9.6,7.692a.827.827,0,0,0,.978-.567l.368-1.211A1.109,1.109,0,0,1,13.066,5.914Z"/></svg>