<svg xmlns="http://www.w3.org/2000/svg" viewBox="0 0 24 24"><defs><style>.a{fill:none;stroke:#000;stroke-linecap:round;stroke-linejoin:round;}</style></defs><title>presentation-projector</title><circle class="a" cx="15.004" cy="9.25" r="5.5"/><path class="a" d="M20.5,9.25h2a1,1,0,0,1,1,1v7a1,1,0,0,1-1,1H1.5a1,1,0,0,1-1-1v-7a1,1,0,0,1,1-1h8"/><line class="a" x1="2.504" y1="18.25" x2="2.504" y2="20.25"/><line class="a" x1="21.504" y1="18.25" x2="21.504" y2="20.25"/><line class="a" x1="2.504" y1="11.25" x2="2.504" y2="14.75"/><line class="a" x1="4.504" y1="11.25" x2="4.504" y2="14.75"/><line class="a" x1="6.504" y1="11.25" x2="6.504" y2="14.75"/><path class="a" d="M12.5,9.25A2.5,2.5,0,0,1,15,6.75"/></svg>