<svg xmlns="http://www.w3.org/2000/svg" viewBox="0 0 24 24"><defs><style>.a{fill:none;stroke:#000;stroke-linecap:round;stroke-linejoin:round;}</style></defs><title>products-give-gift</title><path class="a" d="M15.5,7.476h-4a1,1,0,0,1-1-1v-1a1,1,0,0,1,1-1h11a1,1,0,0,1,1,1v1a1,1,0,0,1-1,1h-4"/><path class="a" d="M18.5,7.476h4v6a1,1,0,0,1-1,1h-9a1,1,0,0,1-1-1v-6h4"/><line class="a" x1="15.5" y1="4.476" x2="15.5" y2="14.476"/><line class="a" x1="18.5" y1="14.476" x2="18.5" y2="4.476"/><path class="a" d="M13.5,3.164c.6.605,3.5,1.312,3.5,1.312s-.709-2.9-1.312-3.5A1.547,1.547,0,0,0,13.5,3.164Z"/><path class="a" d="M20.5,3.164c-.6.605-3.5,1.312-3.5,1.312s.709-2.9,1.312-3.5A1.547,1.547,0,0,1,20.5,3.164Z"/><line class="a" x1="0.5" y1="23.476" x2="0.5" y2="13.476"/><path class="a" d="M.5,15.476h7a3,3,0,0,1,3,3h6a3,3,0,0,1,3,3H.5Z"/><line class="a" x1="10.5" y1="18.476" x2="7.5" y2="18.476"/></svg>