<svg xmlns="http://www.w3.org/2000/svg" viewBox="0 0 24 24"><defs><style>.a{fill:none;stroke:#000;stroke-linecap:round;stroke-linejoin:round;}</style></defs><title>products-purse-2</title><path class="a" d="M23.5,14.008a4.5,4.5,0,0,0-4.5-4.5H5a4.5,4.5,0,0,0-4.5,4.5v6.5a3,3,0,0,0,3,3h17a3,3,0,0,0,3-3Z"/><path class="a" d="M5.5,23.508a5,5,0,0,0-5-5"/><path class="a" d="M18.5,23.508a5,5,0,0,1,5-5"/><line class="a" x1="21.498" y1="14.492" x2="2.498" y2="14.492"/><line class="a" x1="4.498" y1="15.992" x2="4.498" y2="16.992"/><path class="a" d="M16.5,11.492v-6.5a4.5,4.5,0,0,0-9,0v6.5"/></svg>