<svg xmlns="http://www.w3.org/2000/svg" viewBox="0 0 24 24"><defs><style>.a{fill:none;stroke:#000;stroke-linecap:round;stroke-linejoin:round;}</style></defs><title>products-give-gift-1</title><rect class="a" x="0.5" y="14.271" width="4" height="8" rx="0.5" ry="0.5"/><path class="a" d="M4.5,20.771c10.528,3.51,7.3,3.61,18.723-2.165a.511.511,0,0,0,.084-.854,2.485,2.485,0,0,0-2.417-.481L15.688,19"/><path class="a" d="M9.5,19.271H15a1,1,0,0,0,0-2H12a6.59,6.59,0,0,0-4.5-2h-3"/><path class="a" d="M10.5,7.271v5.5a.5.5,0,0,0,.5.5h9a.5.5,0,0,0,.5-.5v-5.5"/><rect class="a" x="9.5" y="4.271" width="12" height="3" rx="0.5" ry="0.5"/><line class="a" x1="15.5" y1="13.271" x2="15.5" y2="4.271"/><path class="a" d="M18.344,2.857a7.918,7.918,0,0,1-2.828,1.414A7.892,7.892,0,0,1,16.93,1.443C17.809.564,18.307.7,18.7,1.089S19.223,1.978,18.344,2.857Z"/><path class="a" d="M12.656,2.857a7.918,7.918,0,0,0,2.828,1.414A7.892,7.892,0,0,0,14.07,1.443C13.191.564,12.693.7,12.3,1.089S11.777,1.978,12.656,2.857Z"/></svg>