<svg xmlns="http://www.w3.org/2000/svg" viewBox="0 0 24 24"><defs><style>.a{fill:none;stroke:#000;stroke-linecap:round;stroke-linejoin:round;}</style></defs><title>professions-woman-welder</title><rect class="a" x="8" y="6.5" width="8" height="4" rx="1" ry="1"/><line class="a" x1="11" y1="4.5" x2="13" y2="4.5"/><line class="a" x1="18.03" y1="7.5" x2="19" y2="7.5"/><line class="a" x1="5" y1="7.5" x2="5.97" y2="7.5"/><line class="a" x1="5" y1="23.5" x2="5" y2="17.112"/><line class="a" x1="19" y1="23.5" x2="19" y2="17.112"/><path class="a" d="M16,16.356V19.5a1,1,0,0,1-1,1H9a1,1,0,0,1-1-1V16.356"/><line class="a" x1="16" y1="19.5" x2="19" y2="19.5"/><path class="a" d="M23,23.5V20.394a1.98,1.98,0,0,0-.77-1.58,14.116,14.116,0,0,0-6.17-2.478"/><path class="a" d="M7.94,16.336a14.116,14.116,0,0,0-6.17,2.478A1.98,1.98,0,0,0,1,20.394V23.5"/><path class="a" d="M18,6.5a6,6,0,0,0-12,0v8.39a.992.992,0,0,0,.568.9,12.827,12.827,0,0,0,10.864,0,.992.992,0,0,0,.568-.9Z"/><path class="a" d="M6,7c0,1.724-1.219,4.808-3.289,5.766a.494.494,0,0,0-.14.818A3.549,3.549,0,0,0,6,14.5"/><path class="a" d="M18,7c0,1.724,1.219,4.808,3.289,5.766a.494.494,0,0,1,.14.818A3.549,3.549,0,0,1,18,14.5"/></svg>