<svg xmlns="http://www.w3.org/2000/svg" viewBox="0 0 24 24"><defs><style>.a{fill:none;stroke:#000;stroke-linecap:round;stroke-linejoin:round;}</style></defs><title>professions-man-telecommunicator</title><path class="a" d="M23,23.517V20.411a1.976,1.976,0,0,0-.77-1.579C20.9,17.813,17.73,16.017,12,16.017s-8.895,1.8-10.23,2.815A1.976,1.976,0,0,0,1,20.411v3.106"/><path class="a" d="M14,8.267a.25.25,0,1,1-.25.25.25.25,0,0,1,.25-.25"/><path class="a" d="M10,8.267a.25.25,0,1,1-.25.25.25.25,0,0,1,.25-.25"/><path class="a" d="M18,6.517c-1.327,0-4.058.337-6-2-1.942,2.337-4.673,2-6,2"/><path class="a" d="M14,23.517,12.478,18.57a.5.5,0,0,0-.956,0L10,23.517"/><line class="a" x1="19.5" y1="22.517" x2="16.5" y2="22.517"/><path class="a" d="M19,6.517a2,2,0,1,1,0,4H18v-4Z"/><path class="a" d="M12,14.517a6,6,0,0,1-6-6v-2a6,6,0,0,1,12,0v4a2,2,0,0,1-2,2H12"/></svg>