<svg xmlns="http://www.w3.org/2000/svg" viewBox="0 0 24 24"><defs><style>.a{fill:none;stroke:#000;stroke-linecap:round;stroke-linejoin:round;}</style></defs><title>professions-man-welder</title><rect class="a" x="8" y="6.517" width="8" height="4" rx="1" ry="1"/><line class="a" x1="11" y1="4.517" x2="13" y2="4.517"/><line class="a" x1="18" y1="7.517" x2="19" y2="7.517"/><line class="a" x1="5" y1="7.517" x2="6" y2="7.517"/><line class="a" x1="5" y1="23.517" x2="5" y2="17.129"/><line class="a" x1="19" y1="23.517" x2="19" y2="17.129"/><path class="a" d="M16,16.373v3.144a1,1,0,0,1-1,1H9a1,1,0,0,1-1-1V16.373"/><line class="a" x1="16" y1="19.517" x2="19" y2="19.517"/><path class="a" d="M23,23.517V20.411a1.978,1.978,0,0,0-.77-1.579,14.1,14.1,0,0,0-6.17-2.479"/><path class="a" d="M7.94,16.353a14.1,14.1,0,0,0-6.17,2.479A1.978,1.978,0,0,0,1,20.411v3.106"/><path class="a" d="M6,6.517a6,6,0,0,1,12,0v8.39a.992.992,0,0,1-.568.9,12.827,12.827,0,0,1-10.864,0,.992.992,0,0,1-.568-.9Z"/></svg>