<svg xmlns="http://www.w3.org/2000/svg" viewBox="0 0 24 24"><defs><style>.a{fill:none;stroke:#000;stroke-linecap:round;stroke-linejoin:round;}</style></defs><title>professions-woman-surgeon</title><path class="a" d="M17.1,11.715a11.459,11.459,0,0,0-10.225-.021"/><path class="a" d="M11,9a1.087,1.087,0,0,0-1-.5A1.087,1.087,0,0,0,9,9"/><path class="a" d="M15,9a1.087,1.087,0,0,0-1-.5A1.087,1.087,0,0,0,13,9"/><line class="a" x1="6.5" y1="23.001" x2="6.5" y2="20.001"/><line class="a" x1="5" y1="21.501" x2="8" y2="21.501"/><path class="a" d="M23.5,23.5v-1a4,4,0,0,0-2.6-3.746l-4.5-1.509"/><path class="a" d="M7.426,17.3,3.1,18.755A4,4,0,0,0,.5,22.5v1"/><path class="a" d="M5.725,10.572a5.148,5.148,0,0,1-1.954,3.146.5.5,0,0,0-.041.831,4.428,4.428,0,0,0,2.915.933"/><path class="a" d="M18.3,10.513a5.19,5.19,0,0,0,1.97,3.205.5.5,0,0,1,.04.831,4.426,4.426,0,0,1-2.915.933"/><path class="a" d="M18,8.511v-5.4a2,2,0,0,0-1.4-1.91,15.5,15.5,0,0,0-9.19,0A2,2,0,0,0,6,3.108v5.4c-.846.457-.572,2.392.5,2.878a1,1,0,0,1,.572.747C7.513,14.78,10.614,16.5,12,16.5h0c1.387,0,4.488-1.722,4.929-4.366a1,1,0,0,1,.572-.747C18.571,10.9,18.845,8.968,18,8.511Z"/><line class="a" x1="6" y1="6.5" x2="17.927" y2="6.5"/></svg>