<svg xmlns="http://www.w3.org/2000/svg" viewBox="0 0 24 24"><defs><style>.a{fill:none;stroke:#000;stroke-linecap:round;stroke-linejoin:round;}</style></defs><title>professions-man-doctor-2</title><path class="a" d="M13.5,11a2.5,2.5,0,0,1-3,0"/><path class="a" d="M23,23.5V20.394a1.976,1.976,0,0,0-.77-1.579C20.9,17.8,17.73,16,12,16S3.105,17.8,1.77,18.815A1.976,1.976,0,0,0,1,20.394V23.5"/><path class="a" d="M14,8.25a.25.25,0,1,1-.25.25A.25.25,0,0,1,14,8.25"/><path class="a" d="M10,8.25a.25.25,0,1,1-.25.25A.25.25,0,0,1,10,8.25"/><path class="a" d="M18,6.5a6,6,0,0,0-12,0v2a6,6,0,0,0,12,0Z"/><path class="a" d="M18,6.5c-1.327,0-4.058.337-6-2-1.942,2.337-4.673,2-6,2"/><line class="a" x1="12" y1="16" x2="12" y2="23.5"/><circle class="a" cx="7" cy="22" r="1.5"/><line class="a" x1="7" y1="20.5" x2="7" y2="15.5"/><line class="a" x1="17" y1="20.5" x2="17" y2="15.5"/><path class="a" d="M19.5,23.5l-.772-2.316a1,1,0,0,0-.949-.684H16.221a1,1,0,0,0-.949.684L14.5,23.5"/></svg>