<svg xmlns="http://www.w3.org/2000/svg" viewBox="0 0 24 24"><defs><style>.a{fill:none;stroke:#000;stroke-linecap:round;stroke-linejoin:round;}</style></defs><title>professions-woman-chef-2</title><path class="a" d="M23,23.5V20.394a1.976,1.976,0,0,0-.77-1.579C20.9,17.8,17.73,16,12,16S3.105,17.8,1.77,18.815A1.976,1.976,0,0,0,1,20.394V23.5"/><path class="a" d="M14,8.25a.25.25,0,1,1-.25.25A.25.25,0,0,1,14,8.25"/><path class="a" d="M10,8.25a.25.25,0,1,1-.25.25A.25.25,0,0,1,10,8.25"/><path class="a" d="M17.206,3.515a6,6,0,0,0-9.721-.967"/><path class="a" d="M6,6.5v2a6,6,0,0,0,12,0v-2q0-.187-.012-.372"/><path class="a" d="M7,2.5l10,1a1.5,1.5,0,0,1,0,3H5V5.736A3.618,3.618,0,0,1,7,2.5Z"/><line class="a" x1="10" y1="23.5" x2="16.322" y2="16.388"/><line class="a" x1="11.997" y1="21.246" x2="7.678" y2="16.388"/><path class="a" d="M18.905,5.422c-.636.772.944,2.871,3.087,2.544L22,7.956c-.089-2.166-2.451-3.315-3.087-2.543Z"/><path class="a" d="M18.905,4.75c-.636-.772.944-2.87,3.087-2.544l.008.01c-.089,2.166-2.451,3.315-3.087,2.544Z"/><line class="a" x1="18.101" y1="16.813" x2="14.5" y2="23.5"/><path class="a" d="M13.5,11a2.5,2.5,0,0,1-3,0"/><path class="a" d="M18,7c0,1.716.489,4.964,2.315,6.17a.506.506,0,0,1-.029.882,4.5,4.5,0,0,1-2.77.3"/><path class="a" d="M6,7c0,1.716-.489,4.964-2.315,6.17a.506.506,0,0,0,.029.882,4.519,4.519,0,0,0,2.8.293"/></svg>