<svg xmlns="http://www.w3.org/2000/svg" viewBox="0 0 24 24"><defs><style>.a{fill:none;stroke:#000;stroke-linecap:round;stroke-linejoin:round;}</style></defs><title>professions-man-chef-2</title><path class="a" d="M23,23.517V20.411a1.976,1.976,0,0,0-.77-1.579C20.9,17.813,17.73,16.017,12,16.017s-8.895,1.8-10.23,2.815A1.976,1.976,0,0,0,1,20.411v3.106"/><line class="a" x1="10" y1="23.517" x2="16.322" y2="16.405"/><line class="a" x1="11.997" y1="21.263" x2="7.678" y2="16.405"/><line class="a" x1="18.101" y1="16.83" x2="14.5" y2="23.517"/><path class="a" d="M13.5,11.017a2.5,2.5,0,0,1-3,0"/><path class="a" d="M14,8.267a.25.25,0,1,1-.25.25.25.25,0,0,1,.25-.25"/><path class="a" d="M10,8.267a.25.25,0,1,1-.25.25.25.25,0,0,1,.25-.25"/><path class="a" d="M6,7.517s1.5-1,6-1,6,1,6,1"/><path class="a" d="M6,8.517v-6a2,2,0,0,1,2-2h8a2,2,0,0,1,2,2v6a6,6,0,0,1-12,0Z"/><line class="a" x1="12" y1="6.517" x2="12" y2="4.017"/><polyline class="a" points="6 2.517 12 4.017 18 2.517"/></svg>