<svg xmlns="http://www.w3.org/2000/svg" viewBox="0 0 24 24"><defs><style>.a{fill:none;stroke:#000;stroke-linecap:round;stroke-linejoin:round;}</style></defs><title>professions-man-construction-2</title><line class="a" x1="4.5" y1="7.5" x2="19.5" y2="7.5"/><path class="a" d="M23.5,23.5a4,4,0,0,0-2.6-3.745L16,18.109"/><path class="a" d="M8,18.109,3.1,19.755A4,4,0,0,0,.5,23.5"/><path class="a" d="M10.5,14a1.967,1.967,0,0,0,1.358.5h.284A1.965,1.965,0,0,0,13.5,14"/><path class="a" d="M11.02,10a1.087,1.087,0,0,0-1-.5,1.089,1.089,0,0,0-1,.5"/><path class="a" d="M15.02,10a1.087,1.087,0,0,0-1-.5,1.089,1.089,0,0,0-1,.5"/><path class="a" d="M9.146,2C5.86,3.346,5.6,7.086,6,9.5c-.873.437-.6,2.4.479,2.889a1,1,0,0,1,.574.746C7.5,15.779,10.609,17.5,12,17.5s4.5-1.721,4.947-4.365a1,1,0,0,1,.574-.746C18.6,11.9,18.873,9.937,18,9.5c.4-2.413.167-6.151-3.106-7.5"/><path class="a" d="M13.52,7.5l1.5-6a6.338,6.338,0,0,0-3-1,6.338,6.338,0,0,0-3,1l1.5,6"/><line class="a" x1="12" y1="22" x2="12" y2="23.5"/><polyline class="a" points="17.054 18.462 12 22 6.946 18.462"/><line class="a" x1="4.5" y1="19.284" x2="4.5" y2="23.5"/><line class="a" x1="19.5" y1="19.284" x2="19.5" y2="23.5"/></svg>