<svg xmlns="http://www.w3.org/2000/svg" viewBox="0 0 24 24"><defs><style>.a{fill:none;stroke:#000;stroke-linecap:round;stroke-linejoin:round;}</style></defs><title>professions-man-office-2</title><path class="a" d="M23.5,23.5v-1a4,4,0,0,0-2.6-3.745L16,17.109"/><path class="a" d="M8,17.109,3.1,18.755A4,4,0,0,0,.5,22.5v1"/><path class="a" d="M13.48,18.5a1.5,1.5,0,0,1-3,0"/><line class="a" x1="10.5" y1="23.5" x2="11.52" y2="19.928"/><line class="a" x1="13.5" y1="23.5" x2="12.476" y2="19.916"/><path class="a" d="M16.021,6c-4,0-4-2-4-2h-.083s0,2-4,2"/><path class="a" d="M10.5,13a1.967,1.967,0,0,0,1.358.5h.284A1.965,1.965,0,0,0,13.5,13"/><path class="a" d="M12,16.5c1.387,0,4.49-1.721,4.932-4.365a1,1,0,0,1,.572-.746c1.078-.49,1.348-2.452.477-2.889.5-2.986.5-8-5.981-8s-6.477,5.014-5.981,8c-.871.437-.6,2.4.477,2.889a1,1,0,0,1,.572.746C7.51,14.779,10.613,16.5,12,16.5Z"/><line class="a" x1="16" y1="21.5" x2="19.5" y2="21.5"/><circle class="a" cx="9.25" cy="9.5" r="1.75"/><circle class="a" cx="14.75" cy="9.5" r="1.75"/><line class="a" x1="11" y1="9.5" x2="13" y2="9.5"/></svg>