<svg xmlns="http://www.w3.org/2000/svg" viewBox="0 0 24 24"><defs><style>.a{fill:none;stroke:#000;stroke-linecap:round;stroke-linejoin:round;}</style></defs><title>professions-woman-office-2</title><path class="a" d="M10.5,13a1.967,1.967,0,0,0,1.358.5h.284A1.965,1.965,0,0,0,13.5,13"/><path class="a" d="M12,16.5c1.387,0,4.49-1.721,4.932-4.364a1,1,0,0,1,.572-.747c1.078-.49,1.348-2.452.477-2.889.5-2.985.5-8-5.981-8s-6.477,5.015-5.981,8c-.871.437-.6,2.4.477,2.889a1,1,0,0,1,.572.747C7.51,14.778,10.613,16.5,12,16.5Z"/><circle class="a" cx="9.25" cy="9.499" r="1.75"/><circle class="a" cx="14.75" cy="9.499" r="1.75"/><line class="a" x1="11" y1="9.499" x2="13" y2="9.499"/><path class="a" d="M5.828,6.484c1.331-.035,4.043.391,6.172-2.17,2.118,2.548,4.845,2.149,6.174,2.179"/><path class="a" d="M5.724,10.573a5.145,5.145,0,0,1-1.953,3.144.5.5,0,0,0-.041.831,4.428,4.428,0,0,0,2.915.933"/><path class="a" d="M18.3,10.516a5.194,5.194,0,0,0,1.969,3.2.5.5,0,0,1,.04.831,4.426,4.426,0,0,1-2.915.933"/><path class="a" d="M23.5,23.5v-1a4,4,0,0,0-2.6-3.745l-5.348-1.8"/><path class="a" d="M8.444,16.959,3.1,18.754A4,4,0,0,0,.5,22.5v1"/><path class="a" d="M7.5,17.276v3.03a.5.5,0,0,0,.658.474L12,19.5l-3.556-2.54"/><path class="a" d="M16.5,17.276v3.03a.5.5,0,0,1-.658.474L12,19.5l3.556-2.54"/><line class="a" x1="12" y1="23.499" x2="12" y2="19.499"/></svg>