<svg xmlns="http://www.w3.org/2000/svg" viewBox="0 0 24 24"><defs><style>.a{fill:none;stroke:#000;stroke-linecap:round;stroke-linejoin:round;}</style></defs><title>professions-man-nurse-1</title><path class="a" d="M13.5,11.013a2.5,2.5,0,0,1-3,0"/><path class="a" d="M23,23.513V20.406a1.979,1.979,0,0,0-.77-1.579C20.9,17.808,17.73,16.013,12,16.013S3.105,17.808,1.77,18.827A1.979,1.979,0,0,0,1,20.406v3.107"/><path class="a" d="M14,8.263a.25.25,0,1,1-.25.25.25.25,0,0,1,.25-.25"/><path class="a" d="M10,8.263a.25.25,0,1,1-.25.25.25.25,0,0,1,.25-.25"/><path class="a" d="M18,6.513a6,6,0,0,0-12,0v2a6,6,0,0,0,12,0Z"/><path class="a" d="M18,6.513c-1.327,0-4.058.336-6-2-1.942,2.336-4.673,2-6,2"/><line class="a" x1="12" y1="16.013" x2="12" y2="23.513"/><line class="a" x1="7" y1="20.013" x2="7" y2="23.013"/><line class="a" x1="5.5" y1="21.513" x2="8.5" y2="21.513"/><path class="a" d="M14.5,18.763a.25.25,0,1,1-.25.25.25.25,0,0,1,.25-.25"/><path class="a" d="M14.5,21.763a.25.25,0,1,1-.25.25.25.25,0,0,1,.25-.25"/></svg>