<svg xmlns="http://www.w3.org/2000/svg" viewBox="0 0 24 24"><defs><style>.a{fill:none;stroke:#000;stroke-linecap:round;stroke-linejoin:round;}</style></defs><title>professions-woman-office-1</title><path class="a" d="M23.5,23.5v-1a4,4,0,0,0-2.6-3.745l-5.131-1.722"/><path class="a" d="M8.227,17.032,3.1,18.754A4,4,0,0,0,.5,22.5v1"/><path class="a" d="M8.5,17.5,6.1,20.7a.5.5,0,0,0,.4.8h4.333"/><line class="a" x1="12" y1="23.499" x2="8.227" y2="17.032"/><path class="a" d="M15.5,17.5l2.4,3.2a.5.5,0,0,1-.4.8H13.167"/><line class="a" x1="12" y1="23.499" x2="15.773" y2="17.032"/><path class="a" d="M10.5,13a1.967,1.967,0,0,0,1.358.5h.284A1.965,1.965,0,0,0,13.5,13"/><path class="a" d="M11,9.5A1.089,1.089,0,0,0,10,9a1.089,1.089,0,0,0-1,.5"/><path class="a" d="M15,9.5A1.089,1.089,0,0,0,14,9a1.089,1.089,0,0,0-1,.5"/><path class="a" d="M12.02,16.5c1.387,0,4.49-1.721,4.932-4.364a1,1,0,0,1,.572-.747C18.6,10.9,18.872,8.936,18,8.5c.5-2.985.5-8-5.982-8s-6.477,5.015-5.981,8c-.871.437-.6,2.4.478,2.889a1,1,0,0,1,.572.747C7.53,14.778,10.633,16.5,12.02,16.5Z"/><path class="a" d="M5.848,6.484c1.338-.031,4.034.378,6.152-2.17,2.128,2.56,4.871,2.145,6.193,2.179"/><path class="a" d="M5.732,10.545a5.167,5.167,0,0,1-1.961,3.172.5.5,0,0,0-.041.831,4.428,4.428,0,0,0,2.915.933"/><path class="a" d="M18.309,10.545a5.159,5.159,0,0,0,1.961,3.172.5.5,0,0,1,.04.831,4.426,4.426,0,0,1-2.915.933"/></svg>