<svg xmlns="http://www.w3.org/2000/svg" viewBox="0 0 24 24"><defs><style>.a{fill:none;stroke:#000;stroke-linecap:round;stroke-linejoin:round;}</style></defs><title>professional-tool-evernote</title><path class="a" d="M2.5,4.5l4-4v4Zm17.2-.921C19.3,2.9,17.22,2.1,16.14,2.1H13.358A2.776,2.776,0,0,0,10.66.5c-2.1,0-2.16.966-2.16,1.766V5.5l-1,1H3.1A3.039,3.039,0,0,0,1.816,9.054c0,1.771.549,7.944,4.241,8.515,4.367.676,5.115-1.352,5.115-1.6,0-1.027.025-2.585.025-2.585s1.28,2.444,3.211,2.444S17.5,16.942,17.5,18.083V20.2s-.11,1.3-1.246,1.3H13.831A2.059,2.059,0,0,1,13,20.045c0-.858.425-1.091.878-1.091a6.566,6.566,0,0,1,.827.053V17.2S11,17.182,11,19.982A3.22,3.22,0,0,0,14.5,23.5h2.5s4.512-.581,4.512-9.491S20.094,4.265,19.7,3.579m-4.486,7.99s.22-1.471,1.072-1.471,2.023,1.965,2.023,1.965S15.636,11.569,15.211,11.569Z"/></svg>