<svg xmlns="http://www.w3.org/2000/svg" viewBox="0 0 24 24"><defs><style>.a{fill:none;stroke:#000;stroke-linecap:round;stroke-linejoin:round;}</style></defs><title>professions-man-surgeon</title><line class="a" x1="6" y1="23.5" x2="6" y2="20.5"/><line class="a" x1="4.5" y1="22" x2="7.5" y2="22"/><path class="a" d="M11,9a1.089,1.089,0,0,0-1-.5A1.089,1.089,0,0,0,9,9"/><path class="a" d="M15,9a1.089,1.089,0,0,0-1-.5A1.089,1.089,0,0,0,13,9"/><path class="a" d="M12,16.5c1.387,0,4.49-1.721,4.932-4.365a1,1,0,0,1,.572-.746c1.078-.49,1.348-2.452.477-2.889.5-2.986.5-8-5.981-8s-6.477,5.014-5.981,8c-.871.437-.6,2.4.477,2.889a1,1,0,0,1,.572.746C7.51,14.779,10.613,16.5,12,16.5Z"/><path class="a" d="M23.5,23.5v-1a4,4,0,0,0-2.6-3.745l-3.02-1.014c-1.037,1.075-3.278,1.821-5.884,1.821s-4.847-.746-5.884-1.821L3.1,18.755A4,4,0,0,0,.5,22.5v1"/><path class="a" d="M7.248,12.8A6.139,6.139,0,0,0,12,16.5a6.138,6.138,0,0,0,4.748-3.688A14.484,14.484,0,0,0,7.248,12.8Z"/><path class="a" d="M12,.5c-5.171,0-6.21,3.193-6.168,6H18.169C18.21,3.693,17.171.5,12,.5Z"/></svg>