<svg xmlns="http://www.w3.org/2000/svg" viewBox="0 0 24 24"><defs><style>.a{fill:none;stroke:#000;stroke-linecap:round;stroke-linejoin:round;}</style></defs><title>professions-woman-chef-1</title><path class="a" d="M23,23.5V20.394a1.976,1.976,0,0,0-.77-1.579C20.9,17.8,17.73,16,12,16S3.105,17.8,1.77,18.815A1.976,1.976,0,0,0,1,20.394V23.5"/><line class="a" x1="10" y1="23.5" x2="16.322" y2="16.388"/><line class="a" x1="11.997" y1="21.246" x2="7.678" y2="16.388"/><line class="a" x1="18.101" y1="16.813" x2="14.5" y2="23.5"/><path class="a" d="M13.5,11a2.5,2.5,0,0,1-3,0"/><path class="a" d="M14,8.25a.25.25,0,1,1-.25.25A.25.25,0,0,1,14,8.25"/><path class="a" d="M10,8.25a.25.25,0,1,1-.25.25A.25.25,0,0,1,10,8.25"/><path class="a" d="M6,7.5s1.5-1,6-1,6,1,6,1"/><path class="a" d="M6,8.5v-6a2,2,0,0,1,2-2h8a2,2,0,0,1,2,2v6a6,6,0,0,1-12,0Z"/><line class="a" x1="12" y1="6.5" x2="12" y2="4"/><polyline class="a" points="6 2.5 12 4 18 2.5"/><path class="a" d="M18.013,7.5c.086,1.786.641,4.573,2.3,5.671a.506.506,0,0,1-.029.882,4.506,4.506,0,0,1-2.788.295"/><path class="a" d="M5.987,7.5c-.086,1.786-.641,4.573-2.3,5.671a.506.506,0,0,0,.029.882,4.506,4.506,0,0,0,2.788.295"/></svg>