<svg xmlns="http://www.w3.org/2000/svg" viewBox="0 0 24 24"><defs><style>.a{fill:none;stroke:#000;stroke-linecap:round;stroke-linejoin:round;}</style></defs><title>professions-man-chef-2</title><path class="a" d="M23.5,23.5v-1a4,4,0,0,0-2.6-3.745L16,17.109"/><path class="a" d="M8,17.109,3.1,18.755A4,4,0,0,0,.5,22.5v1"/><path class="a" d="M10.48,13a1.965,1.965,0,0,0,1.358.5h.283A1.967,1.967,0,0,0,13.48,13"/><path class="a" d="M11,10a1.089,1.089,0,0,0-1-.5A1.089,1.089,0,0,0,9,10"/><path class="a" d="M15,10a1.089,1.089,0,0,0-1-.5,1.089,1.089,0,0,0-1,.5"/><line class="a" x1="16.667" y1="17.333" x2="10.5" y2="23.5"/><line class="a" x1="18.915" y1="18.087" x2="16" y2="23.5"/><line class="a" x1="6.579" y1="17.586" x2="12.429" y2="21.571"/><path class="a" d="M18,6.293a15.519,15.519,0,0,1-12,0"/><polyline class="a" points="5.999 3.097 12 4.5 18.001 3.107"/><line class="a" x1="12" y1="7.5" x2="12" y2="4.5"/><path class="a" d="M18,8.5V3.1a2,2,0,0,0-1.4-1.91,15.5,15.5,0,0,0-9.19,0A2,2,0,0,0,6,3.1V8.5c-.846.457-.572,2.392.5,2.878a1,1,0,0,1,.572.747C7.513,14.769,10.614,16.49,12,16.49h0c1.387,0,4.488-1.722,4.93-4.366a1,1,0,0,1,.571-.746C18.571,10.892,18.845,8.958,18,8.5Z"/></svg>