<svg xmlns="http://www.w3.org/2000/svg" viewBox="0 0 24 24"><defs><style>.a{fill:none;stroke:#000;stroke-linecap:round;stroke-linejoin:round;}</style></defs><title>professions-woman-post</title><path class="a" d="M13.5,11a2.5,2.5,0,0,1-3,0"/><path class="a" d="M14,8.25a.25.25,0,1,1-.25.25A.25.25,0,0,1,14,8.25"/><path class="a" d="M10,8.25a.25.25,0,1,1-.25.25A.25.25,0,0,1,10,8.25"/><path class="a" d="M5,7.5a25.006,25.006,0,0,1,14,0"/><path class="a" d="M23,23.5V20.394a1.976,1.976,0,0,0-.77-1.579C20.9,17.8,17.73,16,12,16S3.105,17.8,1.77,18.815A1.976,1.976,0,0,0,1,20.394V23.5"/><path class="a" d="M12,14.5a6,6,0,0,0,6-6V7l-.941-4.7a.5.5,0,0,0-.346-.381L12.144.543a.5.5,0,0,0-.288,0L7.287,1.914a.5.5,0,0,0-.346.381L6,7V8.5A6,6,0,0,0,12,14.5Z"/><path class="a" d="M13.453,3.089A2.4,2.4,0,0,1,12,5a2.4,2.4,0,0,1-1.453-1.911.508.508,0,0,1,.5-.589h1.91A.508.508,0,0,1,13.453,3.089Z"/><path class="a" d="M5.8,19.867,8,19.5v1.559a.5.5,0,0,0,.438.5L12,22a11.449,11.449,0,0,1-2.463-5.882A19.53,19.53,0,0,0,6,16.784l-.759,2.441A.5.5,0,0,0,5.8,19.867Z"/><path class="a" d="M18.2,19.867,16,19.5v1.559a.5.5,0,0,1-.438.5L12,22a11.449,11.449,0,0,0,2.463-5.882A19.53,19.53,0,0,1,18,16.784l.759,2.441A.5.5,0,0,1,18.2,19.867Z"/><line class="a" x1="12" y1="22" x2="12" y2="23.5"/><line class="a" x1="18" y1="22.5" x2="20" y2="22.5"/><path class="a" d="M6,7.2c-.037,1.761-.558,4.819-2.322,5.975a.5.5,0,0,0,.034.874,4.516,4.516,0,0,0,2.807.294"/><path class="a" d="M17.489,14.345a4.511,4.511,0,0,0,2.8-.295.5.5,0,0,0,.034-.874C18.56,12.02,18.039,8.959,18,7.2"/></svg>