<svg xmlns="http://www.w3.org/2000/svg" viewBox="0 0 24 24"><defs><style>.a{fill:none;stroke:#000;stroke-linecap:round;stroke-linejoin:round;}</style></defs><title>project-blueprint-home</title><path class="a" d="M13.5,17.5V15a1.5,1.5,0,0,1,3,0v2.5"/><path class="a" d="M11.5,11.682V17a.5.5,0,0,0,.5.5h6a.5.5,0,0,0,.5-.5V11.682"/><path class="a" d="M9.5,13.5l5.164-4.694a.5.5,0,0,1,.672,0L20.5,13.5"/><circle class="a" cx="4" cy="20" r="3.5"/><circle class="a" cx="4" cy="20" r="1.5"/><path class="a" d="M.5,20V4a3.5,3.5,0,0,1,7,0V20"/><path class="a" d="M4,23.5H22.5a1,1,0,0,0,1-1V4.5a1,1,0,0,0-1-1H10"/></svg>