<svg xmlns="http://www.w3.org/2000/svg" viewBox="0 0 24 24"><defs><style>.a{fill:none;stroke:#000;stroke-linecap:round;stroke-linejoin:round;}</style></defs><title>project-building-shopping</title><circle class="a" cx="16" cy="22" r="1.5"/><circle class="a" cx="5" cy="22" r="1.5"/><path class="a" d="M23.5,3.5h-.624a1,1,0,0,0-.992.868L20.116,17.632a1,1,0,0,1-.992.868H.5"/><path class="a" d="M17.5,15a.5.5,0,0,1-.5.5H10.5V1.71a.5.5,0,0,1,.668-.471l6,2.142a.5.5,0,0,1,.332.471Z"/><line class="a" x1="16.5" y1="3" x2="16.5" y2="0.5"/><line class="a" x1="10.5" y1="5.5" x2="13.5" y2="5.5"/><line class="a" x1="3.5" y1="8.5" x2="6.5" y2="8.5"/><line class="a" x1="3.5" y1="11.5" x2="6.5" y2="11.5"/><line class="a" x1="10.5" y1="8.5" x2="15" y2="8.5"/><path class="a" d="M12.5,15.5V12a.5.5,0,0,1,.5-.5h2a.5.5,0,0,1,.5.5v3.5"/><path class="a" d="M10.5,5.5H4a.5.5,0,0,0-.5.5v9a.5.5,0,0,0,.5.5h6.5"/></svg>