<svg xmlns="http://www.w3.org/2000/svg" viewBox="0 0 24 24"><defs><style>.a{fill:none;stroke:#000;stroke-linecap:round;stroke-linejoin:round;}</style></defs><title>project-book-building</title><path class="a" d="M21.5.5H5.5a2,2,0,0,0,0,4h16V23a.5.5,0,0,1-.5.5H5.5a2,2,0,0,1-2-2V2.5"/><line class="a" x1="5.5" y1="2.5" x2="20.5" y2="2.5"/><line class="a" x1="2.5" y1="7.5" x2="4.5" y2="7.5"/><line class="a" x1="2.5" y1="10.5" x2="4.5" y2="10.5"/><line class="a" x1="2.5" y1="13.5" x2="4.5" y2="13.5"/><line class="a" x1="2.5" y1="16.5" x2="4.5" y2="16.5"/><line class="a" x1="2.5" y1="19.5" x2="4.5" y2="19.5"/><path class="a" d="M13.5,18.5H9a.5.5,0,0,1-.5-.5V9.309a.5.5,0,0,1,.724-.447L13.5,11Z"/><path class="a" d="M13.5,12.5H18a.5.5,0,0,1,.5.5v5a.5.5,0,0,1-.5.5H13.5"/><line class="a" x1="8.5" y1="12.5" x2="11" y2="12.5"/><line class="a" x1="8.5" y1="14.5" x2="11" y2="14.5"/><line class="a" x1="13.5" y1="11" x2="13.5" y2="8.5"/><line class="a" x1="17.5" y1="12.5" x2="17.5" y2="10"/><line class="a" x1="13.5" y1="14.5" x2="16" y2="14.5"/><line class="a" x1="13.5" y1="16.5" x2="16" y2="16.5"/></svg>