<svg xmlns="http://www.w3.org/2000/svg" viewBox="0 0 24 24"><defs><style>.a{fill:none;stroke:#000;stroke-linecap:round;stroke-linejoin:round;}</style></defs><title>project-home-shopping</title><circle class="a" cx="16" cy="20.5" r="1.5"/><circle class="a" cx="5" cy="20.5" r="1.5"/><polyline class="a" points="23.5 2 22 2 20 17 0.5 17"/><path class="a" d="M5.5,9v4.5A.5.5,0,0,0,6,14h8a.5.5,0,0,0,.5-.5V9"/><path class="a" d="M2.5,8.5,9.345,2.568a1,1,0,0,1,1.31,0L17.5,8.5"/><path class="a" d="M11.5,14V10.5A.5.5,0,0,0,11,10H9a.5.5,0,0,0-.5.5V14"/></svg>