<svg xmlns="http://www.w3.org/2000/svg" viewBox="0 0 24 24"><defs><style>.a{fill:none;stroke:#000;stroke-linecap:round;stroke-linejoin:round;}</style></defs><title>protection-shield-3</title><line class="a" x1="12" y1="0.5" x2="12" y2="23.5"/><line class="a" x1="1.5" y1="11.5" x2="22.5" y2="11.5"/><line class="a" x1="8.5" y1="0.732" x2="8.5" y2="11.5"/><line class="a" x1="5" y1="1.458" x2="5" y2="11.5"/><line class="a" x1="19" y1="11.5" x2="19" y2="19.849"/><line class="a" x1="15.5" y1="11.5" x2="15.5" y2="22.36"/><path class="a" d="M1.5,3.775v7.637A12.311,12.311,0,0,0,9.719,22.88l1.121.414a3.365,3.365,0,0,0,2.32,0l1.121-.414A12.311,12.311,0,0,0,22.5,11.412V3.775a1.533,1.533,0,0,0-.934-1.406A24.256,24.256,0,0,0,12,.5,24.256,24.256,0,0,0,2.434,2.369,1.533,1.533,0,0,0,1.5,3.775Z"/></svg>