<svg xmlns="http://www.w3.org/2000/svg" viewBox="0 0 24 24"><defs><style>.a{fill:none;stroke:#000;stroke-linecap:round;stroke-linejoin:round;}</style></defs><title>protection-castle-gate</title><path class="a" d="M10.875,20.153.789,15.448a.5.5,0,0,1-.242-.665l.423-.906a.5.5,0,0,1,.664-.242l12.866,6"/><line class="a" x1="14.5" y1="5.233" x2="14.5" y2="22"/><line class="a" x1="22.5" y1="5.233" x2="22.5" y2="22"/><line class="a" x1="3.601" y1="14.553" x2="14.5" y2="6"/><path class="a" d="M20.5,9.5a2,2,0,0,0-4,0V11a.5.5,0,0,0,.5.5h3a.5.5,0,0,0,.5-.5Z"/><path class="a" d="M21.5,1A.5.5,0,0,1,22,.5h1a.5.5,0,0,1,.5.5V3.5a2,2,0,0,1-2,2h-6a2,2,0,0,1-2-2V1A.5.5,0,0,1,14,.5h1a.5.5,0,0,1,.5.5v.5a1,1,0,0,0,2,0V1A.5.5,0,0,1,18,.5h1a.5.5,0,0,1,.5.5v.5a1,1,0,0,0,2,0Z"/><path class="a" d="M12.5,23.5a3.452,3.452,0,0,1-2.5-1h0a3.448,3.448,0,0,1-2.5,1,3.45,3.45,0,0,1-2.5-1,3.45,3.45,0,0,1-2.5,1,3.484,3.484,0,0,1-2-.627"/></svg>