<svg xmlns="http://www.w3.org/2000/svg" viewBox="0 0 24 24"><defs><style>.a{fill:none;stroke:#000;stroke-linecap:round;stroke-linejoin:round;}</style></defs><title>protection-helmet</title><path class="a" d="M12,.5A8.5,8.5,0,0,0,3.5,9v8.87a.5.5,0,0,0,.044.2c.974,2.169,3.243,3.885,5.563,5.348a.5.5,0,0,0,.762-.486L8.633,13.125a.5.5,0,0,0-.423-.432q-1.181-.173-2.326-.445a.5.5,0,0,1-.384-.487V9.232a.5.5,0,0,1,.625-.484,23.515,23.515,0,0,0,4.406.691.5.5,0,0,1,.469.5c0,5.819-1.249,3.289.571,6.322a.5.5,0,0,0,.858,0c1.813-3.023.571-.519.571-6.322a.5.5,0,0,1,.469-.5,23.56,23.56,0,0,0,4.406-.691.5.5,0,0,1,.625.484v2.53a.5.5,0,0,1-.384.486,26.96,26.96,0,0,1-2.7.5L14.131,22.937a.5.5,0,0,0,.762.486c2.32-1.463,4.589-3.179,5.563-5.348a.5.5,0,0,0,.044-.2V9A8.5,8.5,0,0,0,12,.5Z"/></svg>