<svg xmlns="http://www.w3.org/2000/svg" viewBox="0 0 24 24"><defs><style>.a{fill:none;stroke:#000;stroke-linecap:round;stroke-linejoin:round;}</style></defs><title>protection-shield-5</title><polyline class="a" points="22 7.5 14 7.5 14 0.587"/><path class="a" d="M14,22.928V11.5h8c0-.029,0-.059,0-.088"/><path class="a" d="M2,11.412c0,.029,0,.059,0,.088h8V22.928"/><polyline class="a" points="10 0.587 10 7.5 2 7.5"/><path class="a" d="M21.105,2.369A22.4,22.4,0,0,0,12,.5,22.4,22.4,0,0,0,2.9,2.369,1.535,1.535,0,0,0,2,3.774v7.639A12.287,12.287,0,0,0,9.877,22.882l1.074.413a2.786,2.786,0,0,0,2.1,0l1.074-.413A12.287,12.287,0,0,0,22,11.413V3.774A1.535,1.535,0,0,0,21.105,2.369Z"/></svg>