<svg xmlns="http://www.w3.org/2000/svg" viewBox="0 0 24 24"><defs><style>.a{fill:none;stroke:#000;stroke-linecap:round;stroke-linejoin:round;}</style></defs><title>protection-shield-4</title><path class="a" d="M21.105,2.37A22.4,22.4,0,0,0,12,.5,22.4,22.4,0,0,0,2.9,2.37,1.534,1.534,0,0,0,2,3.775v7.637A12.287,12.287,0,0,0,9.877,22.881l1.074.414a2.8,2.8,0,0,0,2.1,0l1.074-.414A12.287,12.287,0,0,0,22,11.412V3.775A1.534,1.534,0,0,0,21.105,2.37Z"/><line class="a" x1="18.232" y1="14.606" x2="7.694" y2="4.068"/><line class="a" x1="5" y1="6.625" x2="15.968" y2="17.593"/><path class="a" d="M18.377,4.8A15.83,15.83,0,0,0,12,3.5,15.83,15.83,0,0,0,5.623,4.8,1.067,1.067,0,0,0,5,5.777V11.09a8.588,8.588,0,0,0,5.523,7.979l.747.288a1.947,1.947,0,0,0,1.46,0l.747-.288A8.588,8.588,0,0,0,19,11.09V5.777A1.067,1.067,0,0,0,18.377,4.8Z"/></svg>