<svg xmlns="http://www.w3.org/2000/svg" viewBox="0 0 24 24"><defs><style>.a{fill:none;stroke:#000;stroke-linecap:round;stroke-linejoin:round;}</style></defs><title>protection-sand-bag-soldier-1</title><path class="a" d="M7.5,21.5a2,2,0,0,1-2,2h-3a2,2,0,0,1,0-4h3A2,2,0,0,1,7.5,21.5Z"/><path class="a" d="M10.732,19.5A2,2,0,0,0,9,16.5H6a2,2,0,0,0-1.732,3"/><path class="a" d="M14.5,21.5a2,2,0,0,1-2,2h-3a2,2,0,0,1,0-4h3A2,2,0,0,1,14.5,21.5Z"/><path class="a" d="M23.5,15.5v-1a5,5,0,0,0-5-5"/><polyline class="a" points="13.5 14.5 13.5 17.5 16 17.5 16.5 23.5 20.5 23.5 20.583 22.5"/><path class="a" d="M15.036,4.5a3.5,3.5,0,0,0,6.928,0Z"/><path class="a" d="M14.5,4.5a4,4,0,0,1,8,0Z"/><path class="a" d="M18.9,16.4l-4.243-4.243a2,2,0,0,1,0-2.828l5.657,5.657Z"/><polyline class="a" points="14.661 9.333 11.833 6.504 12.54 5.797"/><path class="a" d="M20.318,14.99l2.828,2.828a.5.5,0,0,1,0,.707l-1.93,1.931a.5.5,0,0,1-.821-.174L18.9,16.4Z"/></svg>