<svg xmlns="http://www.w3.org/2000/svg" viewBox="0 0 24 24"><defs><style>.a{fill:none;stroke:#000;stroke-linecap:round;stroke-linejoin:round;}</style></defs><title>protection-helmet-viking</title><path class="a" d="M19.5,16.151v2.5a.5.5,0,0,1-.5.5H5a.5.5,0,0,1-.5-.5v-2.5"/><path class="a" d="M6.109,10.51A5.751,5.751,0,0,1,3,5.353a.5.5,0,0,0-.88-.329A6.743,6.743,0,0,0,4.5,15.568"/><path class="a" d="M17.891,10.51A5.751,5.751,0,0,0,21,5.353a.5.5,0,0,1,.88-.329A6.743,6.743,0,0,1,19.5,15.568"/><path class="a" d="M13.89,7.251a1,1,0,0,0-1-1.1H11.105a1,1,0,0,0-1,1.1l.89,8.9h2Z"/><path class="a" d="M10.173,7.876A7.5,7.5,0,0,0,4.5,15.151v1h15v-1a7.5,7.5,0,0,0-5.673-7.275"/></svg>