<svg xmlns="http://www.w3.org/2000/svg" viewBox="0 0 24 24"><defs><style>.a{fill:none;stroke:#000;stroke-linecap:round;stroke-linejoin:round;}</style></defs><title>protection-shield-knight</title><path class="a" d="M1.5,3.775v7.637A12.311,12.311,0,0,0,9.719,22.88l1.121.414a3.365,3.365,0,0,0,2.32,0l1.121-.414A12.311,12.311,0,0,0,22.5,11.412V3.775a1.533,1.533,0,0,0-.934-1.406A24.256,24.256,0,0,0,12,.5,24.256,24.256,0,0,0,2.434,2.369,1.533,1.533,0,0,0,1.5,3.775Z"/><path class="a" d="M18,8.254a.5.5,0,0,0-.685-.464A18.886,18.886,0,0,1,13.64,8.86a18.886,18.886,0,0,1,1.07-3.675.5.5,0,0,0-.464-.685H9.754a.5.5,0,0,0-.464.685A18.886,18.886,0,0,1,10.36,8.86,18.886,18.886,0,0,1,6.685,7.79.5.5,0,0,0,6,8.254v4.492a.5.5,0,0,0,.685.464,18.886,18.886,0,0,1,3.675-1.07,18.886,18.886,0,0,1-1.07,3.675.5.5,0,0,0,.464.685h4.492a.5.5,0,0,0,.464-.685,18.886,18.886,0,0,1-1.07-3.675,18.886,18.886,0,0,1,3.675,1.07A.5.5,0,0,0,18,12.746Z"/></svg>