<svg xmlns="http://www.w3.org/2000/svg" viewBox="0 0 24 24"><defs><style>.a{fill:none;stroke:#000;stroke-linecap:round;stroke-linejoin:round;}</style></defs><title>protection-shield-1</title><path class="a" d="M18.833,4.8A18.018,18.018,0,0,0,12,3.5,18.018,18.018,0,0,0,5.167,4.8a1.066,1.066,0,0,0-.667.978v5.314a8.63,8.63,0,0,0,5.917,7.979l.8.288a2.224,2.224,0,0,0,1.564,0l.8-.288A8.63,8.63,0,0,0,19.5,11.092V5.778A1.066,1.066,0,0,0,18.833,4.8Z"/><line class="a" x1="4.5" y1="9.875" x2="11.316" y2="3.514"/><line class="a" x1="5.086" y1="14.078" x2="15.971" y2="3.919"/><line class="a" x1="7.058" y1="16.987" x2="19.44" y2="5.431"/><line class="a" x1="10.061" y1="18.935" x2="19.5" y2="10.125"/><path class="a" d="M1.5,3.775v7.637A12.311,12.311,0,0,0,9.719,22.88l1.121.414a3.365,3.365,0,0,0,2.32,0l1.121-.414A12.311,12.311,0,0,0,22.5,11.412V3.775a1.533,1.533,0,0,0-.934-1.406A24.256,24.256,0,0,0,12,.5,24.256,24.256,0,0,0,2.434,2.369,1.533,1.533,0,0,0,1.5,3.775Z"/></svg>