<svg xmlns="http://www.w3.org/2000/svg" viewBox="0 0 24 24"><defs><style>.a{fill:none;stroke:#000;stroke-linecap:round;stroke-linejoin:round;}</style></defs><title>public-service-firefighter-truck-1</title><circle class="a" cx="19" cy="21.219" r="2"/><circle class="a" cx="5" cy="21.219" r="2"/><path class="a" d="M3,21.219H1a.5.5,0,0,1-.5-.5v-10a.5.5,0,0,1,.5-.5H11a.5.5,0,0,1,.5.5v8.5"/><line class="a" x1="17" y1="21.219" x2="7" y2="21.219"/><path class="a" d="M21,21.219h2a.5.5,0,0,0,.5-.5V16.926a.5.5,0,0,0-.147-.354L21.5,14.719l-2.357-4.243a.5.5,0,0,0-.437-.257H15a.5.5,0,0,0-.5.5v8.5"/><line class="a" x1="23.5" y1="19.219" x2="0.5" y2="19.219"/><line class="a" x1="14.5" y1="12.219" x2="11.5" y2="12.219"/><line class="a" x1="23" y1="0.781" x2="1.203" y2="10.219"/><line class="a" x1="21.5" y1="14.719" x2="14.5" y2="14.719"/><path class="a" d="M15.5,10.219v-1a1,1,0,0,1,1-1h1a1,1,0,0,1,1,1v1"/></svg>