<svg xmlns="http://www.w3.org/2000/svg" viewBox="0 0 24 24"><defs><style>.a{fill:none;stroke:#000;stroke-linecap:round;stroke-linejoin:round;}</style></defs><title>public-service-firefighter-truck</title><path class="a" d="M21,11.5h1a1,1,0,0,0,1-1v-2a1,1,0,0,0-1-1H21"/><line class="a" x1="21" y1="21.5" x2="18" y2="17.5"/><path class="a" d="M7,21.5v1a1,1,0,0,1-1,1H5a1,1,0,0,1-1-1v-1"/><path class="a" d="M20,21.5v1a1,1,0,0,1-1,1H18a1,1,0,0,1-1-1v-1"/><rect class="a" x="2" y="17.5" width="20" height="4" rx="1" ry="1"/><path class="a" d="M3,17.5V6.5a1,1,0,0,1,1-1H20a1,1,0,0,1,1,1v11"/><path class="a" d="M7,5.5v-1a1,1,0,0,0-1-1H5a1,1,0,0,0-1,1v1"/><path class="a" d="M20,5.5v-1a1,1,0,0,0-1-1H18a1,1,0,0,0-1,1v1"/><line class="a" x1="3" y1="11.5" x2="21" y2="11.5"/><circle class="a" cx="6.5" cy="15" r="1"/><circle class="a" cx="17.5" cy="15" r="1"/><line class="a" x1="12" y1="5.5" x2="12" y2="11.5"/><line class="a" x1="3" y1="21.5" x2="6" y2="17.5"/><line class="a" x1="6" y1="21.5" x2="9" y2="17.5"/><line class="a" x1="18" y1="21.5" x2="15" y2="17.5"/><polyline class="a" points="15 21.5 12 17.5 9 21.5"/><line class="a" x1="9.5" y1="13.5" x2="14.5" y2="13.5"/><line class="a" x1="9.5" y1="15.5" x2="14.5" y2="15.5"/><path class="a" d="M3,11.5H2a1,1,0,0,1-1-1v-2a1,1,0,0,1,1-1H3"/><polyline class="a" points="9 0.5 9 5.5 15 5.5 15 0.5"/><line class="a" x1="7.5" y1="1.5" x2="17" y2="1.5"/></svg>