<svg xmlns="http://www.w3.org/2000/svg" viewBox="0 0 24 24"><defs><style>.a{fill:none;stroke:#000;stroke-linecap:round;stroke-linejoin:round;}</style></defs><title>public-service-ambulance</title><path class="a" d="M7,21.5V23a.5.5,0,0,1-.5.5h-2A.5.5,0,0,1,4,23V21.5"/><path class="a" d="M20,21.5V23a.5.5,0,0,1-.5.5h-2A.5.5,0,0,1,17,23V21.5"/><path class="a" d="M2,20a1.5,1.5,0,0,0,1.5,1.5h17a1.5,1.5,0,0,0,0-3H3.5A1.5,1.5,0,0,0,2,20Z"/><path class="a" d="M21,18.586V13L19.109,6.853a.5.5,0,0,0-.478-.353H5.37a.5.5,0,0,0-.478.353L3,13v5.586"/><line class="a" x1="3.001" y1="13.5" x2="21.001" y2="13.5"/><path class="a" d="M16,18.5V16a.5.5,0,0,0-.5-.5h-7A.5.5,0,0,0,8,16v2.5"/><path class="a" d="M1,17V4.5a1,1,0,0,1,1-1H22a1,1,0,0,1,1,1V17"/><path class="a" d="M21,15.5a3,3,0,0,0-3,3"/><path class="a" d="M3,15.5a3,3,0,0,1,3,3"/><path class="a" d="M19,3.5a3,3,0,0,0-3-3H8a3,3,0,0,0-3,3"/><line class="a" x1="9" y1="0.5" x2="9" y2="3.5"/><line class="a" x1="15" y1="0.5" x2="15" y2="3.5"/></svg>