<svg xmlns="http://www.w3.org/2000/svg" viewBox="0 0 24 24"><defs><style>.a{fill:none;stroke:#000;stroke-linecap:round;stroke-linejoin:round;}</style></defs><title>punishment-prisoner-bars</title><circle class="a" cx="12" cy="3.5" r="2"/><path class="a" d="M15,12.5H14a1,1,0,0,0-1,1h0a1,1,0,0,0,1,1h1a2,2,0,0,0,2-2v-3a2,2,0,0,0-2-2H9a2,2,0,0,0-2,2v3a2,2,0,0,0,2,2h1a1,1,0,0,0,1-1h0a1,1,0,0,0-1-1H9"/><line class="a" x1="15" y1="23.5" x2="15" y2="14.5"/><line class="a" x1="9" y1="14.5" x2="9" y2="23.5"/><line class="a" x1="9" y1="9.5" x2="9" y2="0.5"/><line class="a" x1="15" y1="9.5" x2="15" y2="0.5"/><line class="a" x1="5" y1="0.5" x2="5" y2="23.5"/><line class="a" x1="19" y1="0.5" x2="19" y2="23.5"/><rect class="a" x="1" y="0.5" width="22" height="23" rx="1" ry="1"/><line class="a" x1="12" y1="17" x2="12" y2="23.5"/></svg>