<svg xmlns="http://www.w3.org/2000/svg" viewBox="0 0 24 24"><defs><style>.a{fill:none;stroke:#000;stroke-linecap:round;stroke-linejoin:round;}</style></defs><title>punishment-prisoner-transport</title><path class="a" d="M19.465,18.5H21.5a2,2,0,0,0,2-2v-5H7.5v5a2,2,0,0,0,2,2h3.035"/><line class="a" x1="11.5" y1="11.5" x2="11.5" y2="1.5"/><line class="a" x1="19.5" y1="11.5" x2="19.5" y2="1.5"/><line class="a" x1="15.5" y1="11.5" x2="15.5" y2="1.5"/><path class="a" d="M7.5,11.5v-9a1,1,0,0,1,1-1h14a1,1,0,0,1,1,1v9"/><circle class="a" cx="16" cy="19" r="3.5"/><circle class="a" cx="16" cy="19" r="1.5"/><line class="a" x1="7.5" y1="6.5" x2="23.5" y2="6.5"/><line class="a" x1="7.5" y1="16.5" x2="0.5" y2="16.5"/></svg>