<svg xmlns="http://www.w3.org/2000/svg" viewBox="0 0 24 24"><defs><style>.a{fill:none;stroke:#000;stroke-linecap:round;stroke-linejoin:round;}</style></defs><title>qr-code</title><rect class="a" x="0.5" y="0.5" width="7" height="7"/><rect class="a" x="2.5" y="2.5" width="3" height="3"/><rect class="a" x="0.5" y="16.5" width="7" height="7"/><rect class="a" x="2.5" y="18.5" width="3" height="3"/><rect class="a" x="16.5" y="16.5" width="3" height="3"/><rect class="a" x="16.5" y="0.5" width="7" height="7"/><rect class="a" x="18.5" y="2.5" width="3" height="3"/><line class="a" x1="13" y1="9.5" x2="9.5" y2="9.5"/><polyline class="a" points="9.5 11.5 9.5 14.5 13 14.5"/><polyline class="a" points="0.5 9.5 7.5 9.5 7.5 11.5"/><polyline class="a" points="22.495 14.5 22.495 9.5 23.5 9.5"/><line class="a" x1="20.495" y1="11.5" x2="20.495" y2="14.5"/><polyline class="a" points="20 9.5 15.495 9.5 15.495 11.5"/><polyline class="a" points="12.5 4.5 12.5 6.5 14.5 6.5 14.5 2.5"/><line class="a" x1="9.5" y1="7.5" x2="9.5" y2="4.5"/><line class="a" x1="11.5" y1="0.5" x2="14.5" y2="0.5"/><polyline class="a" points="9.5 0.5 9.5 2.5 11.5 2.5"/><line class="a" x1="2.5" y1="12.5" x2="5.5" y2="12.5"/><polyline class="a" points="0.5 11.5 0.5 14.5 2.5 14.5"/><polyline class="a" points="12.5 23.5 21.5 23.5 21.5 16.5 23.5 16.5 23.5 19.5"/><polyline class="a" points="9.5 17.5 9.5 21.5 12.5 21.5"/><polyline class="a" points="19.5 21.5 14.5 21.5 14.5 19"/><polyline class="a" points="11.495 19.5 11.495 16.5 14.5 16.5"/><line class="a" x1="5.5" y1="14.5" x2="7.5" y2="14.5"/><line class="a" x1="13" y1="11.5" x2="11" y2="11.5"/><line class="a" x1="15.495" y1="14.5" x2="18.495" y2="14.5"/><line class="a" x1="17.495" y1="14.5" x2="17.495" y2="12.5"/></svg>