<svg id="Light" xmlns="http://www.w3.org/2000/svg" viewBox="0 0 24 24"><defs><style>.cls-1{fill:none;stroke:#000;stroke-linecap:round;stroke-linejoin:round;}</style></defs><title>rabbit-2</title><path class="cls-1" d="M5.793,10.719A18.323,18.323,0,0,1,2.1,1.89,1,1,0,0,1,3.559.9c4.534,2.426,6.124,7.765,6.724,9.584"/><path class="cls-1" d="M18.207,10.719a18.323,18.323,0,0,0,3.7-8.829A1,1,0,0,0,20.441.9c-4.534,2.426-6.124,7.765-6.724,9.584"/><polyline class="cls-1" points="12.999 17.223 11.999 18.223 10.999 17.223"/><path class="cls-1" d="M9.75,14.973a.25.25,0,0,1,.25.25"/><path class="cls-1" d="M9.5,15.223a.25.25,0,0,1,.25-.25"/><path class="cls-1" d="M9.75,15.473a.249.249,0,0,1-.25-.25"/><path class="cls-1" d="M10,15.223a.249.249,0,0,1-.25.25"/><path class="cls-1" d="M14.25,14.973a.25.25,0,0,0-.25.25"/><path class="cls-1" d="M14.5,15.223a.25.25,0,0,0-.25-.25"/><path class="cls-1" d="M14.25,15.473a.249.249,0,0,0,.25-.25"/><path class="cls-1" d="M14,15.223a.249.249,0,0,0,.25.25"/><path class="cls-1" d="M12,18.223v5H10a1,1,0,0,1-1-1v-.535"/><path class="cls-1" d="M12,18.223v5h2a1,1,0,0,0,1-1v-.535"/><path class="cls-1" d="M12,10.223c-3.037,0-6,2.463-6,5.5a3.61,3.61,0,0,0-1,2.5,3.5,3.5,0,0,0,7,0,3.5,3.5,0,1,0,7,0,3.61,3.61,0,0,0-1-2.5C18,12.686,15.036,10.223,12,10.223Z"/></svg>