<svg id="Light" xmlns="http://www.w3.org/2000/svg" viewBox="0 0 24 24"><defs><style>.cls-1{fill:none;stroke:#000;stroke-linecap:round;stroke-linejoin:round;}</style></defs><title>raccoon-1</title><path class="cls-1" d="M19.48,12.5s.5,6-4.5,6-5.7-3.4-8.5-5.5c-1.369-1.027-3.675-1.117-4.994-1.072a1,1,0,0,0-.962,1.088A11.5,11.5,0,1,0,11.98.5c-8,0-5.5,4.5-10,4.5,0,0,1,2.5,3,2.5h7.5V9c0,3.5,1,6.5,3.5,6.5"/><path class="cls-1" d="M8.48,3.251a.249.249,0,0,1,.25.25"/><path class="cls-1" d="M8.23,3.5a.249.249,0,0,1,.25-.25"/><path class="cls-1" d="M8.48,3.751a.25.25,0,0,1-.25-.25"/><path class="cls-1" d="M8.73,3.5a.25.25,0,0,1-.25.25"/><path class="cls-1" d="M5.04,3.541,6.93,5.06c2.09,1.681,5.177-.433,2.906-2.7L8.413.935"/><path class="cls-1" d="M12.48,4.5a2.685,2.685,0,0,0,3-1.5A4.055,4.055,0,0,0,11.98.5"/><line class="cls-1" x1="8.653" y1="15.169" x2="3.653" y2="19.931"/><line class="cls-1" x1="10.522" y1="17.081" x2="8.807" y2="23.056"/><line class="cls-1" x1="13.571" y1="18.398" x2="14.756" y2="23.165"/></svg>