<svg id="Light" xmlns="http://www.w3.org/2000/svg" viewBox="0 0 24 24"><defs><style>.cls-1{fill:none;stroke:#000;stroke-linecap:round;stroke-linejoin:round;}</style></defs><title>radiology-scan-hand</title><path class="cls-1" d="M14.5,21.5l-12.5,0A1.512,1.512,0,0,1,.5,20V2A1.505,1.505,0,0,1,2,.5H15A1.5,1.5,0,0,1,16.5,2V15.5"/><path class="cls-1" d="M23.5,23.5l-3-4V14.941c0-1.694-2.081-3.3-4-4.941"/><path class="cls-1" d="M17.5,16.5l-2.25-2.25a1.061,1.061,0,0,0-1.5,0,1.248,1.248,0,0,0,0,1.5L16.5,19v1c0,1,2,3.5,2,3.5"/><line class="cls-1" x1="8.5" y1="4.5" x2="8.5" y2="13.5"/><path class="cls-1" d="M5,14.021c0,1.38,1.567,2.5,3.5,2.5s3.5-1.12,3.5-2.5-1.567-.5-3.5-.5S5,12.64,5,14.021Z"/><path class="cls-1" d="M4,5.706a9.148,9.148,0,0,1,9,0"/><path class="cls-1" d="M3.5,9.021a9.083,9.083,0,0,1,10,0"/><path class="cls-1" d="M4,11.7a9.153,9.153,0,0,1,9,0"/></svg>