<svg id="Light" xmlns="http://www.w3.org/2000/svg" viewBox="0 0 24 24"><defs><style>.cls-1{fill:none;stroke:#000;stroke-linecap:round;stroke-linejoin:round;}</style></defs><title>radiology-scanner</title><line class="cls-1" x1="23.5" y1="8.875" x2="23.5" y2="16.875"/><line class="cls-1" x1="21.5" y1="8.875" x2="21.5" y2="16.875"/><line class="cls-1" x1="19.5" y1="6.875" x2="18" y2="5.875"/><line class="cls-1" x1="14.5" y1="3.875" x2="12" y2="3.375"/><line class="cls-1" x1="15.5" y1="8.375" x2="19" y2="8.875"/><line class="cls-1" x1="15.5" y1="11.375" x2="19" y2="11.375"/><line class="cls-1" x1="15.5" y1="17.375" x2="19" y2="16.875"/><line class="cls-1" x1="15.5" y1="14.375" x2="19" y2="14.375"/><line class="cls-1" x1="13.5" y1="8.375" x2="13.5" y2="11.375"/><line class="cls-1" x1="13.5" y1="17.375" x2="13.5" y2="14.375"/><circle class="cls-1" cx="16.25" cy="4.625" r="0.25"/><circle class="cls-1" cx="5.75" cy="6.375" r="0.25"/><circle class="cls-1" cx="5.143" cy="10.375" r="0.25"/><line class="cls-1" x1="3.877" y1="5.929" x2="0.5" y2="5.125"/><line class="cls-1" x1="11" y1="7.875" x2="7.647" y2="6.827"/><line class="cls-1" x1="3.031" y1="10.375" x2="0.531" y2="10.375"/><line class="cls-1" x1="10.5" y1="10.875" x2="7.285" y2="10.554"/><circle class="cls-1" cx="5.75" cy="19.375" r="0.25"/><circle class="cls-1" cx="5.143" cy="15.375" r="0.25"/><line class="cls-1" x1="3.877" y1="19.821" x2="0.5" y2="20.625"/><line class="cls-1" x1="11" y1="17.875" x2="7.647" y2="18.923"/><line class="cls-1" x1="3.031" y1="15.375" x2="0.531" y2="15.375"/><line class="cls-1" x1="10.5" y1="14.875" x2="7.285" y2="15.196"/></svg>