<svg xmlns="http://www.w3.org/2000/svg" viewBox="0 0 24 24"><defs><style>.a{fill:none;stroke:#000;stroke-linecap:round;stroke-linejoin:round;}</style></defs><title>railroad-cargo-train</title><circle class="a" cx="12" cy="11.012" r="5.5"/><circle class="a" cx="12" cy="11.012" r="2"/><path class="a" d="M11.608,16.59,5.014,17.909a.5.5,0,0,0-.387.611l.792,3.169a.5.5,0,0,0,.409.373l5.868.9a2,2,0,0,0,.608,0l5.868-.9a.5.5,0,0,0,.409-.373l.792-3.169a.5.5,0,0,0-.387-.611L12.392,16.59A1.99,1.99,0,0,0,11.608,16.59Z"/><line class="a" x1="13.5" y1="1.012" x2="14.337" y2="6.031"/><line class="a" x1="9.663" y1="6.031" x2="10.5" y2="1.012"/><path class="a" d="M5.012,5.464A11.435,11.435,0,0,1,10.127,3.25"/><line class="a" x1="6.5" y1="11.012" x2="6.5" y2="4.496"/><line class="a" x1="17.5" y1="4.514" x2="17.5" y2="11.012"/><path class="a" d="M5.5,17.812v-1.8a1,1,0,0,1,1-1H8.225"/><line class="a" x1="10.5" y1="16.812" x2="10.5" y2="22.781"/><line class="a" x1="7.5" y1="17.412" x2="7.5" y2="22.319"/><line class="a" x1="16.5" y1="17.412" x2="16.5" y2="22.319"/><line class="a" x1="13.5" y1="16.812" x2="13.5" y2="22.781"/><path class="a" d="M15.775,15.012H17.5a1,1,0,0,1,1,1v1.8"/><path class="a" d="M13.873,3.25A11.443,11.443,0,0,1,19.03,5.5"/><line class="a" x1="9.5" y1="1.012" x2="14.5" y2="1.012"/></svg>