<svg xmlns="http://www.w3.org/2000/svg" viewBox="0 0 24 24"><defs><style>.a{fill:none;stroke:#000;stroke-linecap:round;stroke-linejoin:round;}</style></defs><title>railroad-train-1</title><line class="a" x1="12" y1="1.5" x2="12" y2="8.5"/><path class="a" d="M9,17.23V15.5a1,1,0,0,1,1-1h4a1,1,0,0,1,1,1v1.73"/><path class="a" d="M19,9.5V5.011A3.511,3.511,0,0,0,15.489,1.5H8.511A3.511,3.511,0,0,0,5,5.011V9.5"/><line class="a" x1="6" y1="18.5" x2="3.5" y2="22.5"/><line class="a" x1="18" y1="18.5" x2="20.5" y2="22.5"/><path class="a" d="M19,15.5a1.229,1.229,0,0,1-.99,1.206A37.157,37.157,0,0,1,12,17.5a37.142,37.142,0,0,1-6.01-.794A1.23,1.23,0,0,1,5,15.5v-6a20.53,20.53,0,0,1,7-1,20.53,20.53,0,0,1,7,1Z"/><path class="a" d="M6,16.708V18.5a27.327,27.327,0,0,0,6,1,27.327,27.327,0,0,0,6-1V16.708"/><path class="a" d="M5,13.5H7a1,1,0,0,0,0-2H5"/><path class="a" d="M19,13.5H17a1,1,0,0,1,0-2h2"/><line class="a" x1="11" y1="14.5" x2="11" y2="17.458"/><line class="a" x1="13" y1="14.5" x2="13" y2="17.458"/></svg>