<svg xmlns="http://www.w3.org/2000/svg" viewBox="0 0 24 24"><defs><style>.a{fill:none;stroke:#000;stroke-linecap:round;stroke-linejoin:round;}</style></defs><title>railroad-locomotive-1</title><line class="a" x1="0.5" y1="23.5" x2="23.5" y2="23.5"/><line class="a" x1="14.5" y1="19.5" x2="14.5" y2="21.5"/><line class="a" x1="9.5" y1="21.5" x2="9.5" y2="19.5"/><circle class="a" cx="5.5" cy="21.5" r="2"/><circle class="a" cx="18.5" cy="21.5" r="2"/><line class="a" x1="5.5" y1="21.5" x2="18.5" y2="21.5"/><line class="a" x1="0.5" y1="19.5" x2="23.5" y2="19.5"/><line class="a" x1="0.5" y1="9.5" x2="23.5" y2="9.5"/><line class="a" x1="1.5" y1="9.5" x2="1.5" y2="19.5"/><line class="a" x1="6.5" y1="9.5" x2="6.5" y2="19.5"/><line class="a" x1="22.5" y1="9.5" x2="22.5" y2="19.5"/><line class="a" x1="17.5" y1="9.5" x2="17.5" y2="19.5"/><line class="a" x1="2.5" y1="7.5" x2="21.5" y2="7.5"/><line class="a" x1="4.5" y1="7.5" x2="4.5" y2="9.5"/><line class="a" x1="19.5" y1="7.5" x2="19.5" y2="9.5"/><polyline class="a" points="14 7.5 14 5.5 10 5.5 10 7.5"/><path class="a" d="M12.9.5l2.732,2.647a.5.5,0,0,1,.006.712L14,5.5"/><path class="a" d="M11.092.5,8.365,3.147a.5.5,0,0,0-.006.712L10,5.5"/><line class="a" x1="0.5" y1="0.5" x2="23.5" y2="0.5"/><line class="a" x1="1.5" y1="17.5" x2="6.5" y2="17.5"/><line class="a" x1="17.5" y1="17.5" x2="22.5" y2="17.5"/><rect class="a" x="8.5" y="11.5" width="7" height="4" rx="0.5" ry="0.5"/></svg>