<svg xmlns="http://www.w3.org/2000/svg" viewBox="0 0 24 24"><defs><style>.a{fill:none;stroke:#000;stroke-linecap:round;stroke-linejoin:round;}</style></defs><title>railroad-locomotive-cargo</title><path class="a" d="M23.5,13.5a1,1,0,0,1-1,1H1.5a1,1,0,1,1,0-2h21A1,1,0,0,1,23.5,13.5Z"/><path class="a" d="M22.5,12.5v-8a1,1,0,0,0-1-1H2.5a1,1,0,0,0-1,1v8"/><line class="a" x1="4.5" y1="5.5" x2="4.5" y2="10.5"/><line class="a" x1="7.5" y1="5.5" x2="7.5" y2="10.5"/><line class="a" x1="10.5" y1="5.5" x2="10.5" y2="10.5"/><line class="a" x1="13.5" y1="5.5" x2="13.5" y2="10.5"/><line class="a" x1="16.5" y1="5.5" x2="16.5" y2="10.5"/><line class="a" x1="19.5" y1="5.5" x2="19.5" y2="10.5"/><line class="a" x1="0.5" y1="20.5" x2="23.5" y2="20.5"/><path class="a" d="M2.719,17.219l-.512-.512A2.782,2.782,0,0,1,1.5,15v-.5"/><path class="a" d="M9.281,17.219l.512-.512A2.782,2.782,0,0,0,10.5,15v-.5"/><path class="a" d="M14.719,17.219l-.512-.512A2.782,2.782,0,0,1,13.5,15v-.5"/><path class="a" d="M21.281,17.219l.512-.512A2.782,2.782,0,0,0,22.5,15v-.5"/><circle class="a" cx="4" cy="18" r="1.5"/><circle class="a" cx="8" cy="18" r="1.5"/><circle class="a" cx="20" cy="18" r="1.5"/><circle class="a" cx="16" cy="18" r="1.5"/><line class="a" x1="5.5" y1="18" x2="6.5" y2="18"/><line class="a" x1="17.5" y1="18" x2="18.5" y2="18"/></svg>