<svg id="Light" xmlns="http://www.w3.org/2000/svg" viewBox="0 0 24 24"><defs><style>.cls-1{fill:none;stroke:#000;stroke-linecap:round;stroke-linejoin:round;}</style></defs><title>rain-cloud-umbrella</title><path class="cls-1" d="M7.5,17.5c.424-1.7,3.388-1.7,3.812,0,.013-1.709,3.189-1.7,3.178,0A7.061,7.061,0,0,0,7.5,9.875,7.061,7.061,0,0,0,.508,17.5c-.011-1.7,3.165-1.709,3.178,0C4.11,15.8,7.074,15.8,7.5,17.5Z"/><path class="cls-1" d="M7.5,17.375v5a1.007,1.007,0,1,0,2,0"/><line class="cls-1" x1="7.5" y1="9.875" x2="7.5" y2="8.375"/><path class="cls-1" d="M22.593,8.98a2.4,2.4,0,0,0-.142-3.863,1.8,1.8,0,0,0-1.874-2.5,3.3,3.3,0,0,0-6.363.9,3,3,0,0,0-1.243,5.567"/><line class="cls-1" x1="14.6" y1="11.3" x2="16" y2="8.3"/><line class="cls-1" x1="17" y1="11.3" x2="18.4" y2="8.3"/><line class="cls-1" x1="19.1" y1="11.3" x2="20.5" y2="8.3"/></svg>