<svg id="Light" xmlns="http://www.w3.org/2000/svg" viewBox="0 0 24 24"><defs><style>.cls-1{fill:none;stroke:#000;stroke-linecap:round;stroke-linejoin:round;}</style></defs><title>rain-umbrella-boots</title><path class="cls-1" d="M16.5,9.632c.424-1.7,3.388-1.7,3.812,0,.013-1.709,3.189-1.7,3.178,0a7.016,7.016,0,1,0-13.98,0c-.011-1.7,3.165-1.709,3.178,0C13.112,7.936,16.076,7.936,16.5,9.632Z"/><path class="cls-1" d="M16.5,9.508v5a1.007,1.007,0,1,0,2,0"/><line class="cls-1" x1="16.502" y1="2.008" x2="16.502" y2="0.508"/><path class="cls-1" d="M1.5,11.508a1,1,0,0,0-1,1v9.984a1,1,0,0,0,1,1H12.417c2.7-4.622-3.261-6.6-5.958-4.389l.511-6.516a1,1,0,0,0-1-1.079Z"/><line class="cls-1" x1="6.744" y1="15.508" x2="5.002" y2="15.508"/></svg>