<svg id="Light" xmlns="http://www.w3.org/2000/svg" viewBox="0 0 24 24"><defs><style>.cls-1{fill:none;stroke:#000;stroke-linecap:round;stroke-linejoin:round;}</style></defs><title>rat-curve</title><path class="cls-1" d="M8.8,4.9a.25.25,0,0,1,.25.25"/><path class="cls-1" d="M8.545,5.153A.25.25,0,0,1,8.8,4.9"/><path class="cls-1" d="M8.8,5.4a.25.25,0,0,1-.25-.25"/><path class="cls-1" d="M9.045,5.153a.25.25,0,0,1-.25.25"/><path class="cls-1" d="M8.8,9.98a6.081,6.081,0,0,0,3.219-.8c2.011-1.207,2.414-3.219,2.011-6.035-3.218-.805-6.665-.4-8.327,1.1a3.535,3.535,0,0,0-2.7-.3C1.312,4.388.221,5.8.563,7.084A2.614,2.614,0,0,0,3.392,8.729a16.476,16.476,0,0,0-.229,2.861c0,4.023,2.012,10.057,10.862,9.655,9.253-.42,12.874-12.069,5.633-18.1"/><path class="cls-1" d="M.643,7.319a3.276,3.276,0,0,1,2.52-1.764c1.609,0,2.012.4,2.012.4"/><path class="cls-1" d="M3.392,8.729a2.9,2.9,0,0,0,1.38-.358"/><line class="cls-1" x1="14.025" y1="3.141" x2="12.818" y2="3.946"/><path class="cls-1" d="M8.8,12.394a4.973,4.973,0,0,0,3.621-.8c1.609-1.207.8-2.817-.4-2.414"/><path class="cls-1" d="M10.405,12.394s.028,1.261,1.637,1.261"/><path class="cls-1" d="M10.807,15.613A2.9,2.9,0,0,1,13.623,13.2a2.7,2.7,0,0,1,2.816,2.011A29.519,29.519,0,0,1,18.451,12.8c.8-.8,2.414,0,1.207,1.609-.871,1.16-2.012,3.218-2.816,4.425s-2.012,2.414-3.219,2.414"/></svg>