<svg xmlns="http://www.w3.org/2000/svg" viewBox="0 0 24 24"><defs><style>.a{fill:none;stroke:#000;stroke-linecap:round;stroke-linejoin:round;}</style></defs><title>rating-hotel</title><line class="a" x1="0.496" y1="23.5" x2="0.496" y2="11.5"/><line class="a" x1="0.496" y1="20.5" x2="23.496" y2="20.5"/><circle class="a" cx="4.496" cy="16.5" r="2"/><path class="a" d="M19.663,18.5a.833.833,0,0,0,.623-1.386C18.229,14.8,14.1,13.371,9.305,13.509a.833.833,0,0,0-.809.833V18a.5.5,0,0,0,.5.5Z"/><line class="a" x1="23.496" y1="23.5" x2="23.496" y2="13.5"/><path class="a" d="M19.969.787,21,3.5h2a.49.49,0,0,1,.346.855L21.606,5.566l.962,2.208a.524.524,0,0,1-.747.655L19.5,7.122,17.173,8.429a.524.524,0,0,1-.746-.655l.961-2.208L15.653,4.355A.489.489,0,0,1,16,3.5h2L19.026.787A.531.531,0,0,1,19.969.787Z"/><line class="a" x1="1.496" y1="2.5" x2="8.496" y2="2.5"/><line class="a" x1="1.496" y1="5.5" x2="8.496" y2="5.5"/><line class="a" x1="1.496" y1="8.5" x2="8.496" y2="8.5"/><path class="a" d="M11,2.25a.25.25,0,1,1-.25-.25.25.25,0,0,1,.25.25"/><path class="a" d="M11,5.25a.25.25,0,1,1-.25-.25.25.25,0,0,1,.25.25"/><path class="a" d="M11,8.25a.25.25,0,1,1-.25-.25.25.25,0,0,1,.25.25"/></svg>