<svg xmlns="http://www.w3.org/2000/svg" viewBox="0 0 24 24"><defs><style>.a{fill:none;stroke:#000;stroke-linecap:round;stroke-linejoin:round;}</style></defs><title>rating-five-star-hotel</title><line class="a" x1="20.998" y1="23.5" x2="2.998" y2="23.5"/><path class="a" d="M8.5,23.5V14a.5.5,0,0,1,.5-.5h6a.5.5,0,0,1,.5.5v9.5"/><path class="a" d="M9.5,13.5l2.053-4.106a.5.5,0,0,1,.894,0L14.5,13.5"/><path class="a" d="M11.72.667a.3.3,0,0,1,.542,0l.939,1.88h1.526a.3.3,0,0,1,.184.543l-1.247.952.516,1.89a.3.3,0,0,1-.474.322L11.991,4.968,10.367,6.186A.3.3,0,0,1,9.9,5.844l.631-1.8L9.161,3.1a.3.3,0,0,1,.172-.552h1.448Z"/><path class="a" d="M19.22,4.667a.3.3,0,0,1,.542,0l.939,1.88h1.526a.3.3,0,0,1,.184.543l-1.247.952.516,1.89a.3.3,0,0,1-.474.322L19.491,8.968l-1.624,1.218a.3.3,0,0,1-.467-.342l.631-1.8L16.661,7.1a.3.3,0,0,1,.172-.552h1.448Z"/><path class="a" d="M20.19,12.471a.3.3,0,0,1,.542,0l.939,1.879H23.2a.3.3,0,0,1,.184.544l-1.247.952.516,1.89a.3.3,0,0,1-.474.322l-1.715-1.287-1.624,1.218a.3.3,0,0,1-.467-.342l.631-1.8-1.37-.944a.3.3,0,0,1,.172-.552h1.448Z"/><path class="a" d="M3.19,12.471a.3.3,0,0,1,.542,0l.939,1.879H6.2a.3.3,0,0,1,.184.544l-1.247.952.516,1.89a.3.3,0,0,1-.474.322L3.461,16.771,1.837,17.989a.3.3,0,0,1-.467-.342L2,15.846.631,14.9A.3.3,0,0,1,.8,14.35H2.251Z"/><path class="a" d="M4.22,4.667a.3.3,0,0,1,.542,0L5.7,6.547H7.227a.3.3,0,0,1,.184.543l-1.247.952.516,1.89a.3.3,0,0,1-.474.322L4.491,8.968,2.867,10.186A.3.3,0,0,1,2.4,9.844l.631-1.8L1.661,7.1a.3.3,0,0,1,.172-.552H3.281Z"/><path class="a" d="M10.5,23.5V21a.5.5,0,0,1,.5-.5h2a.5.5,0,0,1,.5.5v2.5"/><line class="a" x1="10.498" y1="15.5" x2="10.498" y2="16"/><line class="a" x1="13.498" y1="15.5" x2="13.498" y2="16"/><line class="a" x1="10.498" y1="18" x2="10.498" y2="18.5"/><line class="a" x1="13.498" y1="18" x2="13.498" y2="18.5"/></svg>