<svg xmlns="http://www.w3.org/2000/svg" viewBox="0 0 24 24"><defs><style>.a{fill:none;stroke:#000;stroke-linecap:round;stroke-linejoin:round;}</style></defs><title>read-world</title><path class="a" d="M12,14c0-1.455,2.964-3.381,8.484-3.494a.508.508,0,0,1,.516.5v8.5a.5.5,0,0,1-.5.5c-5.533.11-8.5,2.038-8.5,3.5,0-1.457-2.971-3.385-8.5-3.5a.5.5,0,0,1-.5-.5v-8.5a.508.508,0,0,1,.516-.5C9.035,10.62,12,12.546,12,14Z"/><line class="a" x1="12" y1="14.001" x2="12" y2="23.376"/><path class="a" d="M10,14.742A20.1,20.1,0,0,0,5.52,13.7"/><path class="a" d="M10,17.742a20.265,20.265,0,0,0-4.521-1.048"/><path class="a" d="M14,14.742a20.2,20.2,0,0,1,4.523-1.048"/><path class="a" d="M14,17.742a20.213,20.213,0,0,1,4.524-1.048"/><path class="a" d="M4.566,9A7.5,7.5,0,1,1,19.434,9"/><path class="a" d="M9.624,9,9.189,7.259a1,1,0,0,0-.97-.758H4.651"/><path class="a" d="M17.99,3.5H15.281a1,1,0,0,0-.97.758l-.5,2a1,1,0,0,0,.97,1.242h1.052l.245,1.469"/></svg>