<svg xmlns="http://www.w3.org/2000/svg" viewBox="0 0 24 24"><defs><style>.a{fill:none;stroke:#000;stroke-linecap:round;stroke-linejoin:round;}</style></defs><title>read-human</title><path class="a" d="M3,13.5V10.817a1,1,0,0,1,1.268-.963L12,12V23.5l-8.268-2.3A1,1,0,0,1,3,20.241V16.5"/><path class="a" d="M12,23.5l8.268-2.3A1,1,0,0,0,21,20.241V16.5"/><path class="a" d="M21,13.5V10.817a1,1,0,0,0-1.268-.963L12,12"/><circle class="a" cx="12" cy="3.751" r="3.25"/><path class="a" d="M7.747,10.82A6.052,6.052,0,0,1,12,8.507a6.065,6.065,0,0,1,4.255,2.313"/><path class="a" d="M18,13.3,14.356,14.4a.5.5,0,0,0-.356.478v1.456a.5.5,0,0,0,.644.479L18,15.8"/><path class="a" d="M3,16.5a1.5,1.5,0,1,1,0-3H4a.5.5,0,0,1,.5.5v2a.5.5,0,0,1-.5.5Z"/><path class="a" d="M21,16.5a1.5,1.5,0,0,0,0-3H20a.5.5,0,0,0-.5.5v2a.5.5,0,0,0,.5.5Z"/></svg>