<svg id="Light" xmlns="http://www.w3.org/2000/svg" viewBox="0 0 24 24"><defs><style>.cls-1{fill:none;stroke:#000;stroke-linecap:round;stroke-linejoin:round;}</style></defs><title>real-estate-settings-building</title><path class="cls-1" d="M19.923,7.212a1.874,1.874,0,0,0,1.065,2.571l1.265.45a1.875,1.875,0,0,1,0,3.534l-1.265.45a1.874,1.874,0,0,0-1.065,2.571L20.5,18A1.874,1.874,0,0,1,18,20.5l-1.213-.576a1.874,1.874,0,0,0-2.571,1.065l-.45,1.265a1.875,1.875,0,0,1-3.534,0l-.45-1.265a1.874,1.874,0,0,0-2.571-1.065L6,20.5A1.874,1.874,0,0,1,3.5,18l.576-1.213a1.874,1.874,0,0,0-1.065-2.571l-1.265-.45a1.875,1.875,0,0,1,0-3.534l1.265-.45A1.874,1.874,0,0,0,4.077,7.212L3.5,6A1.874,1.874,0,0,1,6,3.5l1.213.576A1.874,1.874,0,0,0,9.783,3.012l.45-1.265a1.875,1.875,0,0,1,3.534,0l.45,1.265a1.874,1.874,0,0,0,2.571,1.065L18,3.5A1.874,1.874,0,0,1,20.5,6Z"/><path class="cls-1" d="M12.5,16.5H8a.5.5,0,0,1-.5-.5V7.809a.5.5,0,0,1,.724-.447L12.5,9.5Z"/><path class="cls-1" d="M12.5,10.5H17a.5.5,0,0,1,.5.5v5a.5.5,0,0,1-.5.5H12.5"/><line class="cls-1" x1="7.5" y1="10.5" x2="10" y2="10.5"/><line class="cls-1" x1="7.5" y1="12.5" x2="10" y2="12.5"/><line class="cls-1" x1="12.5" y1="9.5" x2="12.5" y2="7"/><line class="cls-1" x1="16.5" y1="10.5" x2="16.5" y2="8"/><line class="cls-1" x1="12.5" y1="12.5" x2="15" y2="12.5"/><line class="cls-1" x1="12.5" y1="14.5" x2="15" y2="14.5"/></svg>