<svg id="Light" xmlns="http://www.w3.org/2000/svg" viewBox="0 0 24 24"><defs><style>.cls-1{fill:none;stroke:#000;stroke-linecap:round;stroke-linejoin:round;}</style></defs><title>real-estate-sign-sale</title><rect class="cls-1" x="0.5" y="4.5" width="20" height="13" rx="1" ry="1"/><path class="cls-1" d="M23.5,23.5V1.5a1,1,0,0,0-1-1H1.437"/><line class="cls-1" x1="15.5" y1="4.5" x2="15.5" y2="0.5"/><line class="cls-1" x1="4.5" y1="4.5" x2="4.5" y2="0.5"/><path class="cls-1" d="M11.5,8.5v4a1,1,0,0,0,1,1h1"/><path class="cls-1" d="M5.5,8.5h-1a1,1,0,0,0-1,1c0,1.5,2,1.5,2,3a1,1,0,0,1-1,1h-1"/><path class="cls-1" d="M7.5,13.5v-4a1,1,0,0,1,2,0v4"/><line class="cls-1" x1="7.5" y1="11.5" x2="9.5" y2="11.5"/><path class="cls-1" d="M17.5,13.5h-1a1,1,0,0,1-1-1v-3a1,1,0,0,1,1-1h1"/><line class="cls-1" x1="15.5" y1="11.5" x2="17.5" y2="11.5"/></svg>