<svg id="Light" xmlns="http://www.w3.org/2000/svg" viewBox="0 0 24 24"><defs><style>.cls-1{fill:none;stroke:#000;stroke-linecap:round;stroke-linejoin:round;}</style></defs><title>real-estate-neighbourhood</title><path class="cls-1" d="M4.5,21.324v-2.5a1.5,1.5,0,0,1,3,0v2.5"/><polyline class="cls-1" points="2.5 15.506 2.5 21.324 9.5 21.324 9.5 15.506"/><path class="cls-1" d="M.5,17.324l4.831-4.391a1,1,0,0,1,1.341,0L11,16.824"/><path class="cls-1" d="M10.5,11.324v-2.5a1.5,1.5,0,1,1,3,0v2.5"/><polyline class="cls-1" points="8.5 5.506 8.5 11.324 15.5 11.324 15.5 5.506"/><path class="cls-1" d="M6.5,7.324l4.827-4.388a1,1,0,0,1,1.346,0L17.5,7.324"/><path class="cls-1" d="M16.5,21.324v-2.5a1.5,1.5,0,1,1,3,0v2.5"/><polyline class="cls-1" points="14.5 15.506 14.5 21.324 21.5 21.324 21.5 15.506"/><path class="cls-1" d="M13,16.824l4.328-3.9a1,1,0,0,1,1.341,0L23.5,17.324"/></svg>