<svg id="Light" xmlns="http://www.w3.org/2000/svg" viewBox="0 0 24 24"><defs><style>.cls-1{fill:none;stroke:#000;stroke-linecap:round;stroke-linejoin:round;}</style></defs><title>real-estate-search-house-2</title><path class="cls-1" d="M14.5,23.5v-6a1,1,0,0,0-1-1h-3"/><line class="cls-1" x1="10.5" y1="20.5" x2="10.5" y2="14.208"/><path class="cls-1" d="M4.5,14,.793,17.707a1,1,0,0,0-.293.707V23.5"/><line class="cls-1" x1="2.5" y1="16" x2="2.5" y2="12.5"/><line class="cls-1" x1="5.5" y1="7.5" x2="5.5" y2="4.5"/><path class="cls-1" d="M7.5,5.5v2h-2a1,1,0,0,0-1,1v12"/><line class="cls-1" x1="7.5" y1="9.5" x2="6.5" y2="9.5"/><line class="cls-1" x1="8.5" y1="12.5" x2="7.5" y2="12.5"/><line class="cls-1" x1="7.5" y1="15.5" x2="6.5" y2="15.5"/><line class="cls-1" x1="8.5" y1="18.5" x2="7.5" y2="18.5"/><circle class="cls-1" cx="16.5" cy="7.5" r="7"/><path class="cls-1" d="M13.5,5.632V9.5a1,1,0,0,0,1,1h4a1,1,0,0,0,1-1V5.632"/><path class="cls-1" d="M12.5,6.507l3.012-2.636a1.5,1.5,0,0,1,1.976,0L20.5,6.507"/><path class="cls-1" d="M15.5,10.5v-2a1,1,0,0,1,2,0v2"/></svg>