<svg id="Light" xmlns="http://www.w3.org/2000/svg" viewBox="0 0 24 24"><defs><style>.cls-1{fill:none;stroke:#000;stroke-linecap:round;stroke-linejoin:round;}</style></defs><title>real-estate-action-building-disable</title><circle class="cls-1" cx="17.5" cy="17.5" r="6"/><line class="cls-1" x1="13.258" y1="21.742" x2="21.743" y2="13.257"/><path class="cls-1" d="M7.5,23.5H.5V9.5a1,1,0,0,1,1-1h5a1,1,0,0,1,1,1Z"/><path class="cls-1" d="M6.5,8.5V4.825a.5.5,0,0,1,.3-.457l8-3.556a.5.5,0,0,1,.7.457V9.5"/><path class="cls-1" d="M5.5,23.5V21a.5.5,0,0,0-.5-.5H3a.5.5,0,0,0-.5.5v2.5"/><line class="cls-1" x1="0.5" y1="11.5" x2="4.5" y2="11.5"/><line class="cls-1" x1="12.5" y1="5.5" x2="15.5" y2="5.5"/><line class="cls-1" x1="10.5" y1="7.5" x2="15.5" y2="7.5"/><line class="cls-1" x1="0.5" y1="13.5" x2="2.5" y2="13.5"/><line class="cls-1" x1="8.5" y1="3.611" x2="8.5" y2="0.5"/><line class="cls-1" x1="7.5" y1="23.5" x2="11.5" y2="23.5"/></svg>