<svg id="Light" xmlns="http://www.w3.org/2000/svg" viewBox="0 0 24 24"><defs><style>.cls-1{fill:none;stroke:#000;stroke-linecap:round;stroke-linejoin:round;}</style></defs><title>real-estate-sign-board-sale</title><rect class="cls-1" x="2" y="9.043" width="20" height="11" rx="2" ry="2"/><path class="cls-1" d="M6.5,9.043,11.294,4.25a1,1,0,0,1,1.414,0L17.5,9.043"/><path class="cls-1" d="M13,12.043v4a1,1,0,0,0,1,1h1"/><path class="cls-1" d="M7,12.043H6a1,1,0,0,0-1,1c0,1.5,2,1.5,2,3a1,1,0,0,1-1,1H5"/><path class="cls-1" d="M9,17.043v-4a1,1,0,0,1,2,0v4"/><line class="cls-1" x1="9.001" y1="15.043" x2="11.001" y2="15.043"/><path class="cls-1" d="M19,17.043H18a1,1,0,0,1-1-1v-3a1,1,0,0,1,1-1h1"/><line class="cls-1" x1="17.001" y1="15.043" x2="19.001" y2="15.043"/></svg>