<svg id="Light" xmlns="http://www.w3.org/2000/svg" viewBox="0 0 24 24"><defs><style>.cls-1{fill:none;stroke:#000;stroke-linecap:round;stroke-linejoin:round;}</style></defs><title>real-estate-market-scale</title><path class="cls-1" d="M16,12.132V16a1,1,0,0,0,1,1h4a1,1,0,0,0,1-1V12.132"/><path class="cls-1" d="M15,13.007l3.012-2.636a1.5,1.5,0,0,1,1.976,0L23,13.007"/><path class="cls-1" d="M18,17V15a1,1,0,0,1,2,0v2"/><line class="cls-1" x1="12" y1="5" x2="12" y2="23"/><line class="cls-1" x1="9.081" y1="23" x2="14.892" y2="23"/><path class="cls-1" d="M13.491,3.51A1.491,1.491,0,1,1,12,2.019,1.49,1.49,0,0,1,13.491,3.51Z"/><polyline class="cls-1" points="22 9.703 19 1.405 16 9.703"/><line class="cls-1" x1="13.359" y1="2.69" x2="20.775" y2="1"/><polyline class="cls-1" points="1.535 14 5 4.595 8.476 14.019"/><circle class="cls-1" cx="5" cy="16" r="4"/><path class="cls-1" d="M6,14H4.644a.895.895,0,0,0-.332,1.725l1.376.55A.895.895,0,0,1,5.356,18H4"/><line class="cls-1" x1="5" y1="14" x2="5" y2="13.5"/><line class="cls-1" x1="5" y1="18.5" x2="5" y2="18"/><line class="cls-1" x1="10.52" y1="3.337" x2="3.225" y2="5"/><line class="cls-1" x1="20.775" y1="1" x2="13.251" y2="2.715"/></svg>