<svg id="Light" xmlns="http://www.w3.org/2000/svg" viewBox="0 0 24 24"><defs><style>.cls-1{fill:none;stroke:#000;stroke-linecap:round;stroke-linejoin:round;}</style></defs><title>real-estate-deal-key</title><path class="cls-1" d="M3.5,21.823v.5a.5.5,0,0,0,.5.5H20a.5.5,0,0,0,.5-.5v-10"/><line class="cls-1" x1="3.5" y1="11.823" x2="3.5" y2="13.823"/><path class="cls-1" d="M.5,11.323,11.326,1.439a1,1,0,0,1,1.348,0L23.5,11.323"/><circle class="cls-1" cx="2.5" cy="17.823" r="2"/><line class="cls-1" x1="8.5" y1="17.823" x2="8.5" y2="19.323"/><line class="cls-1" x1="10.5" y1="17.823" x2="10.5" y2="19.823"/><line class="cls-1" x1="4.5" y1="17.823" x2="12" y2="17.823"/><path class="cls-1" d="M8.5,15.823v-1.5a.5.5,0,0,1,.5-.5h6a.5.5,0,0,1,.5.5v8.5"/></svg>