<svg id="Light" xmlns="http://www.w3.org/2000/svg" viewBox="0 0 24 24"><defs><style>.cls-1{fill:none;stroke:#000;stroke-linecap:round;stroke-linejoin:round;}</style></defs><title>real-estate-deal-pay-building</title><path class="cls-1" d="M13.5,4.5H16a3,3,0,0,1,3,3v4"/><path class="cls-1" d="M5,12v4.5a3,3,0,0,0,3,3h3"/><polyline class="cls-1" points="16.5 9 19 11.5 21.5 9"/><polyline class="cls-1" points="7.5 14.5 5 12 2.5 14.5"/><circle class="cls-1" cx="18" cy="18.5" r="5"/><line class="cls-1" x1="18" y1="20.5" x2="18" y2="21.5"/><line class="cls-1" x1="18" y1="15.5" x2="18" y2="16.5"/><path class="cls-1" d="M16,20.5h3a1,1,0,0,0,0-2H17a1,1,0,0,1,0-2h3"/><path class="cls-1" d="M6,10.5H1.5A.5.5,0,0,1,1,10V1.309A.5.5,0,0,1,1.724.862L6,3Z"/><path class="cls-1" d="M6,4.5h4.5A.5.5,0,0,1,11,5v5a.5.5,0,0,1-.5.5H6"/><line class="cls-1" x1="1" y1="4.5" x2="3.5" y2="4.5"/><line class="cls-1" x1="1" y1="6.5" x2="3.5" y2="6.5"/><line class="cls-1" x1="6" y1="3" x2="6" y2="0.5"/><line class="cls-1" x1="10" y1="4.5" x2="10" y2="2"/><line class="cls-1" x1="6" y1="6.5" x2="8.5" y2="6.5"/><line class="cls-1" x1="6" y1="8.5" x2="8.5" y2="8.5"/></svg>