<svg id="Light" xmlns="http://www.w3.org/2000/svg" viewBox="0 0 24 24"><defs><style>.cls-1{fill:none;stroke:#000;stroke-linecap:round;stroke-linejoin:round;}</style></defs><title>real-estate-update-building-refresh</title><polyline class="cls-1" points="8.494 0.5 12.994 3.5 8.994 7"/><path class="cls-1" d="M21,17.863A10,10,0,1,1,12,3.5h.994"/><path class="cls-1" d="M21.95,12.5q.05.5.05,1a10.006,10.006,0,0,1-.315,2.5"/><path class="cls-1" d="M20,7.5a9.964,9.964,0,0,1,1.542,3"/><path class="cls-1" d="M16,4.331A9.99,9.99,0,0,1,18.5,5.9"/><path class="cls-1" d="M12,18.5H7.5A.5.5,0,0,1,7,18V9.809a.5.5,0,0,1,.724-.447L12,11.5Z"/><path class="cls-1" d="M12,12.5h4.5a.5.5,0,0,1,.5.5v5a.5.5,0,0,1-.5.5H12"/><line class="cls-1" x1="7" y1="12.5" x2="9.5" y2="12.5"/><line class="cls-1" x1="7" y1="14.5" x2="9.5" y2="14.5"/><line class="cls-1" x1="12" y1="11.5" x2="12" y2="9"/><line class="cls-1" x1="16" y1="12.5" x2="16" y2="10"/><line class="cls-1" x1="12" y1="14.5" x2="14.5" y2="14.5"/><line class="cls-1" x1="12" y1="16.5" x2="14.5" y2="16.5"/></svg>