<svg id="Light" xmlns="http://www.w3.org/2000/svg" viewBox="0 0 24 24"><defs><style>.cls-1{fill:none;stroke:#000;stroke-linecap:round;stroke-linejoin:round;}</style></defs><title>real-estate-action-house-information</title><path class="cls-1" d="M3.5,11.914v10.5a.5.5,0,0,0,.5.5h7.5"/><path class="cls-1" d="M.5,11.414,11.326,1.53a1,1,0,0,1,1.349,0L23.5,11.414"/><rect class="cls-1" x="10.5" y="5.914" width="3" height="3" rx="0.5" ry="0.5"/><circle class="cls-1" cx="17.499" cy="16.914" r="6"/><path class="cls-1" d="M17.5,19.914v-3.5a.5.5,0,0,0-.5-.5H16"/><path class="cls-1" d="M16.749,13.414a.25.25,0,1,1-.25.25.25.25,0,0,1,.25-.25"/><line class="cls-1" x1="15.999" y1="19.914" x2="18.999" y2="19.914"/></svg>