<svg id="Light" xmlns="http://www.w3.org/2000/svg" viewBox="0 0 24 24"><defs><style>.cls-1{fill:none;stroke:#000;stroke-linecap:round;stroke-linejoin:round;}</style></defs><title>real-estate-message-person-building-1</title><path class="cls-1" d="M9.5,12.25a.25.25,0,0,0,.25.25H12.5v2.9a.25.25,0,0,0,.427.177L16,12.5h7.25a.25.25,0,0,0,.25-.25V.75A.25.25,0,0,0,23.25.5H9.75A.25.25,0,0,0,9.5.75Z"/><g id="_Group_" data-name="&lt;Group&gt;"><circle class="cls-1" cx="3.5" cy="10.25" r="2.25"/><path class="cls-1" d="M3.5,13.5a3,3,0,0,0-3,3v2H2l.5,5h2l.5-5H6.5v-2A3,3,0,0,0,3.5,13.5Z"/></g><path class="cls-1" d="M17.5,9.5H14a.5.5,0,0,1-.5-.5V3.309a.5.5,0,0,1,.724-.447L17.5,4.5Z"/><path class="cls-1" d="M17.5,5.5H20a.5.5,0,0,1,.5.5V9a.5.5,0,0,1-.5.5H17.5"/><line class="cls-1" x1="13.5" y1="5.5" x2="15" y2="5.5"/><line class="cls-1" x1="13.5" y1="7.5" x2="15" y2="7.5"/><line class="cls-1" x1="17.5" y1="4.5" x2="17.5" y2="2.5"/></svg>