<svg id="Light" xmlns="http://www.w3.org/2000/svg" viewBox="0 0 24 24"><defs><style>.cls-1{fill:none;stroke:#000;stroke-linecap:round;stroke-linejoin:round;}</style></defs><title>real-estate-sign-board-sold</title><rect class="cls-1" x="2" y="9.043" width="20" height="11" rx="2" ry="2"/><path class="cls-1" d="M6.5,9.043,11.294,4.25a1,1,0,0,1,1.414,0L17.5,9.043"/><path class="cls-1" d="M10,12.043a1,1,0,0,0-1,1v3a1,1,0,0,0,2,0v-3A1,1,0,0,0,10,12.043Z"/><path class="cls-1" d="M13,12.043v4a1,1,0,0,0,1,1h1"/><path class="cls-1" d="M7,12.043H6a1,1,0,0,0-1,1c0,1.5,2,1.5,2,3a1,1,0,0,1-1,1H5"/><path class="cls-1" d="M17,17.043a2,2,0,0,0,2-2v-1a2,2,0,0,0-2-2Z"/></svg>