<svg id="Light" xmlns="http://www.w3.org/2000/svg" viewBox="0 0 24 24"><defs><style>.cls-1{fill:none;stroke:#000;stroke-linecap:round;stroke-linejoin:round;}</style></defs><title>real-estate-market-building-rise</title><path class="cls-1" d="M23.5,10.5l-5.293,5.293a1,1,0,0,1-1.414,0l-2.586-2.586a1,1,0,0,0-1.414,0L2.5,23.5"/><polyline class="cls-1" points="23.5 14.5 23.5 10.5 19.5 10.5"/><path class="cls-1" d="M.5,15a.5.5,0,0,0,.5.5H7.5V1.71a.5.5,0,0,0-.668-.471l-6,2.142A.5.5,0,0,0,.5,3.852Z"/><line class="cls-1" x1="1.5" y1="3" x2="1.5" y2="0.5"/><line class="cls-1" x1="7.5" y1="5.5" x2="4.5" y2="5.5"/><line class="cls-1" x1="14.5" y1="8.5" x2="11.5" y2="8.5"/><line class="cls-1" x1="7.5" y1="8.5" x2="3" y2="8.5"/><path class="cls-1" d="M5.5,15.5V12a.5.5,0,0,0-.5-.5H3a.5.5,0,0,0-.5.5v3.5"/><path class="cls-1" d="M7.5,5.5H14a.5.5,0,0,1,.5.5v4"/></svg>