<svg id="Light" xmlns="http://www.w3.org/2000/svg" viewBox="0 0 24 24"><defs><style>.cls-1{fill:none;stroke:#000;stroke-linecap:round;stroke-linejoin:round;}</style></defs><title>real-estate-message-house</title><path class="cls-1" d="M23.5,11.038c0,5.18-5.148,9.382-11.5,9.382a13.8,13.8,0,0,1-4.029-.592L2.663,22.3a.5.5,0,0,1-.658-.677L3.95,17.738a8.612,8.612,0,0,1-3.45-6.7C.5,5.856,5.648,1.655,12,1.655S23.5,5.856,23.5,11.038Z"/><path class="cls-1" d="M10.5,15.155v-2.5a1.5,1.5,0,0,1,3,0v2.5"/><path class="cls-1" d="M8.5,9.337v5.318a.5.5,0,0,0,.5.5h6a.5.5,0,0,0,.5-.5V9.337"/><path class="cls-1" d="M6.5,11.155l5.164-4.694a.5.5,0,0,1,.672,0L17.5,11.155"/></svg>