<svg id="Light" xmlns="http://www.w3.org/2000/svg" viewBox="0 0 24 24"><defs><style>.cls-1{fill:none;stroke:#000;stroke-linecap:round;stroke-linejoin:round;}</style></defs><title>real-estate-sign-sale-1</title><rect class="cls-1" x="6.801" y="-3.517" width="11" height="20" rx="2" ry="2" transform="translate(5.077 18.364) rotate(-86.491)"/><path class="cls-1" d="M13.453,4.049l-.245,3.993A1,1,0,0,0,14.145,9.1l1,.061"/><path class="cls-1" d="M7.464,3.682l-1-.061a1,1,0,0,0-1.059.937c-.092,1.5,1.9,1.619,1.812,3.116a1,1,0,0,1-1.059.937l-1-.061"/><path class="cls-1" d="M9.154,8.8,9.4,4.8a1,1,0,1,1,2,.123L11.15,8.917"/><line class="cls-1" x1="9.277" y1="6.799" x2="11.273" y2="6.921"/><path class="cls-1" d="M19.135,9.407l-1-.061a1,1,0,0,1-.937-1.06l.184-2.994a1,1,0,0,1,1.059-.937l1,.061"/><line class="cls-1" x1="17.262" y1="7.288" x2="19.258" y2="7.411"/><line class="cls-1" x1="10.966" y1="11.912" x2="10.406" y2="21.039"/><line class="cls-1" x1="12.962" y1="12.034" x2="12.412" y2="21.006"/><path class="cls-1" d="M.5,23.5A25.062,25.062,0,0,1,12,21a25.062,25.062,0,0,1,11.5,2.5"/></svg>