<svg id="Light" xmlns="http://www.w3.org/2000/svg" viewBox="0 0 24 24"><defs><style>.cls-1{fill:none;stroke:#000;stroke-linecap:round;stroke-linejoin:round;}</style></defs><title>real-estate-insurance-dollar-hand</title><path class="cls-1" d="M8.5,8.45v4.5a.5.5,0,0,0,.5.5h8a.5.5,0,0,0,.5-.5V8.45"/><path class="cls-1" d="M5.5,6.95,12.673.734a.5.5,0,0,1,.654,0L20.5,6.95"/><rect class="cls-1" x="0.5" y="14.45" width="4" height="8" rx="0.5" ry="0.5"/><path class="cls-1" d="M4.5,21.013c10.5,3.5,7,3.5,19-2.5a2.758,2.758,0,0,0-3-1L16.184,18.88"/><path class="cls-1" d="M4.5,15.45h3c2.353,0,4,2,4.5,2h3.5c1,0,1,2,0,2H10"/><path class="cls-1" d="M11.841,9.05A1.159,1.159,0,1,0,13,7.892a1.16,1.16,0,1,1,1.159-1.16"/><line class="cls-1" x1="13" y1="10.211" x2="13" y2="10.982"/><line class="cls-1" x1="13" y1="4.8" x2="13" y2="5.573"/></svg>