<svg id="Light" xmlns="http://www.w3.org/2000/svg" viewBox="0 0 24 24"><defs><style>.cls-1{fill:none;stroke:#000;stroke-linecap:round;stroke-linejoin:round;}</style></defs><title>real-estate-action-house-star</title><path class="cls-1" d="M3.5,11.914v10.5a.5.5,0,0,0,.5.5h7"/><path class="cls-1" d="M.5,11.414,11.326,1.53a1,1,0,0,1,1.349,0L23.5,11.414"/><rect class="cls-1" x="10.501" y="5.914" width="3" height="3" rx="0.5" ry="0.5"/><g id="_Group_" data-name="&lt;Group&gt;"><path class="cls-1" d="M18.2,11.344l1.539,3.57h2.994a.735.735,0,0,1,.518,1.283l-2.6,2.315,1.44,3.314a.785.785,0,0,1-1.117.982L17.5,20.847l-3.48,1.961a.785.785,0,0,1-1.117-.982l1.44-3.314-2.6-2.315a.734.734,0,0,1,.514-1.283h3l1.541-3.57A.794.794,0,0,1,18.2,11.344Z"/></g></svg>