<svg id="Light" xmlns="http://www.w3.org/2000/svg" viewBox="0 0 24 24"><defs><style>.cls-1{fill:none;stroke:#000;stroke-linecap:round;stroke-linejoin:round;}</style></defs><title>real-estate-app-building-smartphone</title><rect class="cls-1" x="4.5" y="0.5" width="15" height="23" rx="2" ry="2"/><line class="cls-1" x1="19.5" y1="19.5" x2="4.5" y2="19.5"/><path class="cls-1" d="M12.5,15.5H8a.5.5,0,0,1-.5-.5V6.309a.5.5,0,0,1,.724-.447L12.5,8Z"/><path class="cls-1" d="M12.5,9.5H16a.5.5,0,0,1,.5.5v5a.5.5,0,0,1-.5.5H12.5"/><line class="cls-1" x1="7.5" y1="9.5" x2="10" y2="9.5"/><line class="cls-1" x1="7.5" y1="11.5" x2="10" y2="11.5"/><line class="cls-1" x1="12.5" y1="8" x2="12.5" y2="5.5"/><line class="cls-1" x1="15.5" y1="9.5" x2="15.5" y2="7"/><line class="cls-1" x1="12.5" y1="11.5" x2="14" y2="11.5"/><line class="cls-1" x1="12.5" y1="13.5" x2="14" y2="13.5"/></svg>