<svg id="Light" xmlns="http://www.w3.org/2000/svg" viewBox="0 0 24 24"><defs><style>.cls-1{fill:none;stroke:#000;stroke-linecap:round;stroke-linejoin:round;}</style></defs><title>real-estate-message-person-building</title><path class="cls-1" d="M23.5,10.612a1,1,0,0,1-1,1H16l-3.087,2.646a.251.251,0,0,1-.413-.19V11.612h-4a1,1,0,0,1-1-1v-9a1,1,0,0,1,1-1h14a1,1,0,0,1,1,1Z"/><g id="_Group_" data-name="&lt;Group&gt;"><path class="cls-1" d="M11.5,23.331s-2.02-.892-3.432-1.415c-.926-.344-.794-1.906-.258-2.494a4.283,4.283,0,0,0,1.259-3.531A3,3,0,0,0,6,12.612a3,3,0,0,0-3.069,3.279A4.283,4.283,0,0,0,4.19,19.422c.536.588.668,2.15-.258,2.494C2.52,22.439.5,23.331.5,23.331"/></g><path class="cls-1" d="M16.5,9.612H13a.5.5,0,0,1-.5-.5V3.421a.5.5,0,0,1,.724-.447L16.5,4.612Z"/><path class="cls-1" d="M16.5,5.612H19a.5.5,0,0,1,.5.5v3a.5.5,0,0,1-.5.5H16.5"/><line class="cls-1" x1="12.5" y1="5.612" x2="14" y2="5.612"/><line class="cls-1" x1="12.5" y1="7.612" x2="14" y2="7.612"/><line class="cls-1" x1="16.5" y1="4.612" x2="16.5" y2="2.612"/></svg>