<svg id="Light" xmlns="http://www.w3.org/2000/svg" viewBox="0 0 24 24"><defs><style>.cls-1{fill:none;stroke:#000;stroke-linecap:round;stroke-linejoin:round;}</style></defs><title>real-estate-sign-rent-1</title><line class="cls-1" x1="10.966" y1="11.912" x2="10.407" y2="21.034"/><line class="cls-1" x1="12.962" y1="12.034" x2="12.412" y2="21"/><rect class="cls-1" x="6.801" y="-3.517" width="11" height="20" rx="2" ry="2" transform="translate(5.077 18.364) rotate(-86.491)"/><line class="cls-1" x1="18.137" y1="9.346" x2="18.443" y2="4.355"/><line class="cls-1" x1="17.445" y1="4.294" x2="19.442" y2="4.416"/><line class="cls-1" x1="5.162" y1="8.55" x2="5.468" y2="3.559"/><path class="cls-1" d="M5.468,3.559l.748.046a1.25,1.25,0,1,1-.153,2.5l-.748-.046"/><line class="cls-1" x1="7.158" y1="8.672" x2="5.814" y2="6.085"/><polyline class="cls-1" points="13.147 9.04 13.453 4.049 15.143 9.162 15.449 4.172"/><path class="cls-1" d="M11.151,8.917l-1-.061A1,1,0,0,1,9.215,7.8L9.4,4.8a1,1,0,0,1,1.059-.936l1,.061"/><line class="cls-1" x1="9.277" y1="6.799" x2="11.273" y2="6.921"/><path class="cls-1" d="M.5,23.5A25.062,25.062,0,0,1,12,21a25.062,25.062,0,0,1,11.5,2.5"/></svg>