<svg id="Light" xmlns="http://www.w3.org/2000/svg" viewBox="0 0 24 24"><defs><style>.cls-1{fill:none;stroke:#000;stroke-linecap:round;stroke-linejoin:round;}</style></defs><title>real-estate-deal-document</title><path class="cls-1" d="M10.5,9.5V13a.5.5,0,0,1-.5.5H5a.5.5,0,0,1-.5-.5V9.5"/><polyline class="cls-1" points="2.498 9 7.498 4.5 12.498 9"/><path class="cls-1" d="M15.5,5.5l1.154,1.3a.5.5,0,0,0,.753.054L20.5,4"/><path class="cls-1" d="M15.5,11.5l1.154,1.3a.5.5,0,0,0,.753.054L20.5,10"/><line class="cls-1" x1="3.498" y1="16.5" x2="11.498" y2="16.5"/><line class="cls-1" x1="3.498" y1="19.5" x2="11.498" y2="19.5"/><path class="cls-1" d="M23.5,17.086a1,1,0,0,1-.293.707l-5.414,5.414a1,1,0,0,1-.707.293H1.5a1,1,0,0,1-1-1V1.5a1,1,0,0,1,1-1h21a1,1,0,0,1,1,1Z"/><path class="cls-1" d="M23.41,17.5H18.5a1,1,0,0,0-1,1v4.91"/></svg>