<svg id="Light" xmlns="http://www.w3.org/2000/svg" viewBox="0 0 24 24"><defs><style>.cls-1{fill:none;stroke:#000;stroke-linecap:round;stroke-linejoin:round;}</style></defs><title>real-estate-dimensions-block</title><line class="cls-1" x1="2.5" y1="23.5" x2="2.5" y2="5.5"/><polyline class="cls-1" points="0.5 21.5 2.5 23.5 4.5 21.5"/><polyline class="cls-1" points="4.5 7.5 2.5 5.5 0.5 7.5"/><line class="cls-1" x1="5.5" y1="2.5" x2="23.5" y2="2.5"/><polyline class="cls-1" points="7.5 0.5 5.5 2.5 7.5 4.5"/><polyline class="cls-1" points="21.5 4.5 23.5 2.5 21.5 0.5"/><rect class="cls-1" x="7.5" y="7.5" width="16" height="16" rx="1" ry="1"/><path class="cls-1" d="M19.5,23.5V19a.5.5,0,0,1,.5-.5h1"/><line class="cls-1" x1="23.5" y1="15.5" x2="19.5" y2="15.5"/><line class="cls-1" x1="23.5" y1="12.5" x2="19.5" y2="12.5"/><path class="cls-1" d="M11.5,7.5V12a.5.5,0,0,0,.5.5h4a.5.5,0,0,0,.5-.5V7.5"/><path class="cls-1" d="M10.5,19.5V16a.5.5,0,0,0-.5-.5H7.5"/><line class="cls-1" x1="13.5" y1="23.5" x2="13.5" y2="19.5"/><path class="cls-1" d="M16.5,23.5V17a.5.5,0,0,0-.5-.5H13.5"/></svg>