<svg id="Light" xmlns="http://www.w3.org/2000/svg" viewBox="0 0 24 24"><defs><style>.cls-1{fill:none;stroke:#000;stroke-linecap:round;stroke-linejoin:round;}</style></defs><title>real-estate-action-building-key</title><path class="cls-1" d="M16.405,20.231a1.25,1.25,0,1,1,0-1.768A1.251,1.251,0,0,1,16.405,20.231Z"/><path class="cls-1" d="M19.048,17.942,23.5,13.5v-2h-2l-4.574,4.321a4,4,0,1,0,2.122,2.121Z"/><path class="cls-1" d="M7.5,23.5H.5V9.5a1,1,0,0,1,1-1h5a1,1,0,0,1,1,1Z"/><path class="cls-1" d="M6.5,8.5v-4L14.8.812a.5.5,0,0,1,.7.457V12.5"/><path class="cls-1" d="M5.5,23.5V21a.5.5,0,0,0-.5-.5H3a.5.5,0,0,0-.5.5v2.5"/><line class="cls-1" x1="0.5" y1="11.5" x2="4.5" y2="11.5"/><line class="cls-1" x1="12.5" y1="5.5" x2="15.5" y2="5.5"/><line class="cls-1" x1="10.5" y1="7.5" x2="15.5" y2="7.5"/><line class="cls-1" x1="0.5" y1="13.5" x2="2.5" y2="13.5"/><line class="cls-1" x1="8.5" y1="3.611" x2="8.5" y2="0.5"/><line class="cls-1" x1="7.5" y1="23.5" x2="11.5" y2="23.5"/></svg>