<svg id="Light" xmlns="http://www.w3.org/2000/svg" viewBox="0 0 24 24"><defs><style>.cls-1{fill:none;stroke:#000;stroke-linecap:round;stroke-linejoin:round;}</style></defs><title>real-estate-action-house-dollar</title><path class="cls-1" d="M3.5,11.3V21.8a.5.5,0,0,0,.5.5h7"/><path class="cls-1" d="M.5,10.8,11.326.913a1,1,0,0,1,1.348,0L23.5,10.8"/><rect class="cls-1" x="10.5" y="5.297" width="3" height="3" rx="0.5" ry="0.5"/><g id="_Group_" data-name="&lt;Group&gt;"><path class="cls-1" d="M19,14.3H16.967a1.342,1.342,0,0,0-.5,2.587l2.064.826a1.342,1.342,0,0,1-.5,2.587H16"/><line class="cls-1" x1="17.5" y1="21.297" x2="17.5" y2="20.297"/><line class="cls-1" x1="17.5" y1="14.297" x2="17.5" y2="13.297"/><circle class="cls-1" cx="17.5" cy="17.297" r="6"/></g></svg>