<svg id="Light" xmlns="http://www.w3.org/2000/svg" viewBox="0 0 24 24"><defs><style>.cls-1{fill:none;stroke:#000;stroke-linecap:round;stroke-linejoin:round;}</style></defs><title>real-estate-settings-house-2</title><path class="cls-1" d="M3.747,10.417v0H1a.5.5,0,0,0-.5.5v2a.5.5,0,0,0,.5.5H3.746a11.821,11.821,0,0,0,1,2.921L2.807,18.283a.5.5,0,0,0,0,.708l2.122,2.121a.5.5,0,0,0,.707,0l1.942-1.943a11.8,11.8,0,0,0,2.922,1v2.746a.5.5,0,0,0,.5.5h2a.5.5,0,0,0,.5-.5V20.173a11.8,11.8,0,0,0,2.92-1l1.944,1.943a.5.5,0,0,0,.707,0l2.121-2.122a.5.5,0,0,0,0-.707L19.25,16.34a11.821,11.821,0,0,0,1-2.921H23a.5.5,0,0,0,.5-.5v-2a.5.5,0,0,0-.5-.5H20.253"/><path class="cls-1" d="M7.5,4.319v7.6a.5.5,0,0,0,.5.5h8a.5.5,0,0,0,.5-.5v-7.6"/><path class="cls-1" d="M4.5,6.919,11.673.7a.5.5,0,0,1,.654,0L19.5,6.919"/><path class="cls-1" d="M13.5,12.419v-2.5a1.5,1.5,0,0,0-3,0v2.5"/><path class="cls-1" d="M15.354,14.92a4.5,4.5,0,0,1-6.71,0"/></svg>