<svg id="Light" xmlns="http://www.w3.org/2000/svg" viewBox="0 0 24 24"><defs><style>.cls-1{fill:none;stroke:#000;stroke-linecap:round;stroke-linejoin:round;}</style></defs><title>real-estate-message-couple-building</title><path class="cls-1" d="M17,1.5h2.5a1,1,0,0,1,1,1v7a1,1,0,0,1-1,1h-4l-2.573,2.576A.25.25,0,0,1,12.5,12.9V10.5h-7a1,1,0,0,1-1-1v-7a1,1,0,0,1,1-1h2"/><circle class="cls-1" cx="4.88" cy="16.25" r="2.75"/><path class="cls-1" d="M9.259,23.5A4.49,4.49,0,0,0,.5,23.5"/><circle class="cls-1" cx="19.12" cy="16.25" r="2.75"/><path class="cls-1" d="M23.5,23.5a4.49,4.49,0,0,0-8.759,0"/><path class="cls-1" d="M13.5,7.5H10A.5.5,0,0,1,9.5,7V1.309a.5.5,0,0,1,.724-.447L13.5,2.5Z"/><path class="cls-1" d="M13.5,3.5H16a.5.5,0,0,1,.5.5V7a.5.5,0,0,1-.5.5H13.5"/><line class="cls-1" x1="9.5" y1="3.5" x2="11" y2="3.5"/><line class="cls-1" x1="9.5" y1="5.5" x2="11" y2="5.5"/><line class="cls-1" x1="13.5" y1="2.5" x2="13.5" y2="0.5"/></svg>