<svg id="Light" xmlns="http://www.w3.org/2000/svg" viewBox="0 0 24 24"><defs><style>.cls-1{fill:none;stroke:#000;stroke-linecap:round;stroke-linejoin:round;}</style></defs><title>real-estate-settings-house-wrench</title><path class="cls-1" d="M10.5,15.5V13a1.5,1.5,0,0,1,3,0v2.5"/><polyline class="cls-1" points="8.5 9.682 8.5 15.5 15.5 15.5 15.5 9.682"/><path class="cls-1" d="M6.5,11.5l4.827-4.389a1,1,0,0,1,1.346,0L17.5,11.5"/><path class="cls-1" d="M17.622,8.5l.319-.319a4,4,0,0,0,4.388-.853A3.881,3.881,0,0,0,23.443,3.89a.5.5,0,0,0-.853-.262L21.417,4.847a.5.5,0,0,1-.36.153H19.5a.5.5,0,0,1-.5-.5V2.943a.5.5,0,0,1,.153-.36L20.371,1.41a.5.5,0,0,0-.262-.852A3.935,3.935,0,0,0,16.637,1.67,3.993,3.993,0,0,0,15.8,6.058l-.44.442"/><path class="cls-1" d="M6.5,15.378l-.441.442a4,4,0,0,0-4.388.854A3.877,3.877,0,0,0,.557,20.11a.5.5,0,0,0,.853.262l1.173-1.219A.5.5,0,0,1,2.943,19H4.5a.5.5,0,0,1,.5.5v1.557a.5.5,0,0,1-.153.36L3.629,22.59a.5.5,0,0,0,.262.852A3.932,3.932,0,0,0,7.363,22.33,3.993,3.993,0,0,0,8.2,17.942l.441-.442"/><path class="cls-1" d="M15.378,17.5l.442.441a4,4,0,0,0,.854,4.387,3.875,3.875,0,0,0,3.436,1.114.5.5,0,0,0,.262-.853l-1.219-1.173a.5.5,0,0,1-.153-.36V19.5a.5.5,0,0,1,.5-.5h1.557a.5.5,0,0,1,.36.154l1.172,1.218a.5.5,0,0,0,.853-.262,3.934,3.934,0,0,0-1.112-3.472,3.994,3.994,0,0,0-4.389-.837l-.44-.44"/><path class="cls-1" d="M8.622,6.5,8.18,6.058a4,4,0,0,0-.854-4.387A3.877,3.877,0,0,0,3.89.557a.5.5,0,0,0-.262.853L4.847,2.583A.5.5,0,0,1,5,2.943V4.5a.5.5,0,0,1-.5.5H2.943a.5.5,0,0,1-.36-.153L1.411,3.629a.5.5,0,0,0-.853.262A3.934,3.934,0,0,0,1.67,7.363,3.994,3.994,0,0,0,6.059,8.2l.3.3"/></svg>