<svg id="Light" xmlns="http://www.w3.org/2000/svg" viewBox="0 0 24 24"><defs><style>.cls-1{fill:none;stroke:#000;stroke-linecap:round;stroke-linejoin:round;}</style></defs><title>real-estate-location-building-pin</title><path class="cls-1" d="M10,21.13c-.44.716-.814,1.307-1.079,1.72a.5.5,0,0,1-.842,0C6.5,20.382,1,11.547,1,8A7.5,7.5,0,0,1,16,8a9.374,9.374,0,0,1-.7,3"/><circle class="cls-1" cx="8.5" cy="8" r="3"/><path class="cls-1" d="M23,23a.5.5,0,0,1-.5.5H17V11.809a.5.5,0,0,1,.724-.447l5,2.5a.5.5,0,0,1,.276.447Z"/><line class="cls-1" x1="22" y1="13.5" x2="22" y2="11"/><line class="cls-1" x1="17" y1="15.5" x2="19" y2="15.5"/><line class="cls-1" x1="12" y1="17.5" x2="14" y2="17.5"/><line class="cls-1" x1="12" y1="19.5" x2="14" y2="19.5"/><line class="cls-1" x1="17" y1="17.5" x2="20.5" y2="17.5"/><path class="cls-1" d="M17,15.5H12.5a.5.5,0,0,0-.5.5v7a.5.5,0,0,0,.5.5H17"/><path class="cls-1" d="M19,23.5V22a.5.5,0,0,1,.5-.5h1a.5.5,0,0,1,.5.5v1.5"/></svg>