<svg id="Light" xmlns="http://www.w3.org/2000/svg" viewBox="0 0 24 24"><defs><style>.cls-1{fill:none;stroke:#000;stroke-linecap:round;stroke-linejoin:round;}</style></defs><title>real-estate-sign-building-sold</title><path class="cls-1" d="M12,14.288V1.208a.5.5,0,0,1,.77-.421l6,3.857a.5.5,0,0,1,.23.421v9.227"/><line class="cls-1" x1="18" y1="4.149" x2="18" y2="0.792"/><line class="cls-1" x1="12" y1="5.292" x2="14" y2="5.292"/><line class="cls-1" x1="12" y1="8.292" x2="15" y2="8.292"/><line class="cls-1" x1="5" y1="10.292" x2="8" y2="10.292"/><line class="cls-1" x1="5" y1="13.292" x2="7" y2="13.292"/><path class="cls-1" d="M12,7.292H5.5a.5.5,0,0,0-.5.5v6.5"/><path class="cls-1" d="M18,17.292a3,3,0,0,1,0,6Z"/><path class="cls-1" d="M11.045,21.792a1.5,1.5,0,0,1-3,0v-3a1.5,1.5,0,0,1,3,0Z"/><path class="cls-1" d="M13,17.292v5a1,1,0,0,0,1,1h2"/><path class="cls-1" d="M6,17.292H4.3a1.3,1.3,0,0,0-.723,2.387l1.84,1.226A1.3,1.3,0,0,1,4.7,23.292H3"/></svg>