<svg id="Light" xmlns="http://www.w3.org/2000/svg" viewBox="0 0 24 24"><defs><style>.cls-1{fill:none;stroke:#000;stroke-linecap:round;stroke-linejoin:round;}</style></defs><title>real-estate-update-house-sync</title><path class="cls-1" d="M9.5,10.8v3.868a1,1,0,0,0,1,1h4a1,1,0,0,0,1-1V10.8"/><path class="cls-1" d="M8.5,11.674l3.012-2.636a1.5,1.5,0,0,1,1.976,0L16.5,11.674"/><path class="cls-1" d="M18.477,6.662A8.5,8.5,0,0,0,3.5,12.167v2.5"/><polyline class="cls-1" points="6.5 10.667 3.5 14.667 0.5 10.667"/><path class="cls-1" d="M5.523,17.672A8.5,8.5,0,0,0,20.5,12.167v-2.5"/><polyline class="cls-1" points="17.5 13.667 20.5 9.667 23.5 13.667"/></svg>