<svg id="Light" xmlns="http://www.w3.org/2000/svg" viewBox="0 0 24 24"><defs><style>.cls-1{fill:none;stroke:#000;stroke-linecap:round;stroke-linejoin:round;}</style></defs><title>real-estate-deal-shake-building</title><line class="cls-1" x1="17.5" y1="20.444" x2="13.571" y2="21.23"/><path class="cls-1" d="M14,16.792l-1.854.761a1.2,1.2,0,0,1-.982-2.188l1.853-.9a1.657,1.657,0,0,1,1.308-.075l3.383,1.294"/><path class="cls-1" d="M6.5,21.292H7.9l2.33,1.772a.685.685,0,0,0,.944.073l3.5-2.807a.684.684,0,0,0,.105-.949l-1.922-2.118"/><path class="cls-1" d="M11.01,15.467l-.25-.206a1.471,1.471,0,0,0-.87-.285,1.452,1.452,0,0,0-.545.1L6.5,16.292"/><path class="cls-1" d="M3.5,21.792a.5.5,0,0,0,.5.5H5.5a1,1,0,0,0,1-1v-5a1,1,0,0,0-1-1H4a.5.5,0,0,0-.5.5Z"/><path class="cls-1" d="M20.5,21.792a.5.5,0,0,1-.5.5H18.5a1,1,0,0,1-1-1v-5a1,1,0,0,1,1-1H20a.5.5,0,0,1,.5.5Z"/><path class="cls-1" d="M11.5,12.29V1.208a.5.5,0,0,1,.77-.421l6,3.857a.5.5,0,0,1,.23.421v7.229"/><line class="cls-1" x1="17.5" y1="4.149" x2="17.5" y2="0.792"/><line class="cls-1" x1="11.5" y1="5.292" x2="13.5" y2="5.292"/><line class="cls-1" x1="11.5" y1="8.292" x2="14.5" y2="8.292"/><line class="cls-1" x1="4.5" y1="10.292" x2="7.5" y2="10.292"/><path class="cls-1" d="M11.5,7.292H5a.5.5,0,0,0-.5.5v4.5"/></svg>