<svg id="Light" xmlns="http://www.w3.org/2000/svg" viewBox="0 0 24 24"><defs><style>.cls-1{fill:none;stroke:#000;stroke-linecap:round;stroke-linejoin:round;}</style></defs><title>real-estate-building</title><rect class="cls-1" x="0.5" y="0.5" width="20" height="20" rx="1" ry="1"/><path class="cls-1" d="M3.5,22.5a1,1,0,0,0,1,1h18a1,1,0,0,0,1-1V4.5a1,1,0,0,0-1-1"/><path class="cls-1" d="M15.5,16a.5.5,0,0,1-.5.5H9.5V4.809a.5.5,0,0,1,.724-.447l5,2.5a.5.5,0,0,1,.276.447Z"/><line class="cls-1" x1="14.5" y1="6.5" x2="14.5" y2="4"/><line class="cls-1" x1="9.5" y1="8.5" x2="11.5" y2="8.5"/><line class="cls-1" x1="4.5" y1="10.5" x2="6.5" y2="10.5"/><line class="cls-1" x1="4.5" y1="12.5" x2="6.5" y2="12.5"/><line class="cls-1" x1="9.5" y1="10.5" x2="13" y2="10.5"/><path class="cls-1" d="M9.5,8.5H5a.5.5,0,0,0-.5.5v7a.5.5,0,0,0,.5.5H9.5"/><path class="cls-1" d="M11.5,16.5V15a.5.5,0,0,1,.5-.5h1a.5.5,0,0,1,.5.5v1.5"/></svg>