<svg id="Light" xmlns="http://www.w3.org/2000/svg" viewBox="0 0 24 24"><defs><style>.cls-1{fill:none;stroke:#000;stroke-linecap:round;stroke-linejoin:round;}</style></defs><title>real-estate-action-house-like</title><path class="cls-1" d="M3.5,11.85v10.5a.5.5,0,0,0,.5.5H8.5"/><path class="cls-1" d="M.5,11.35,11.43,1.37a.845.845,0,0,1,1.14,0L23.5,11.35"/><rect class="cls-1" x="10.5" y="5.85" width="3" height="3" rx="0.5" ry="0.5"/><path class="cls-1" d="M13.5,21.041c4.26,2.187,3.5,1.78,6.663,1.78,1.3,0,1.961-.845,2.345-2.085l0-.008.945-2.6,0-.006a.988.988,0,0,0-.948-1.274h-2.43a1,1,0,0,1-.785-.384,1.312,1.312,0,0,1-.173-1l.437-2.054a.84.84,0,0,0-.161-.746.853.853,0,0,0-1.353.045l-2.423,3.722a.993.993,0,0,1-.81.417l-1.311,0"/><rect class="cls-1" x="10.5" y="15.85" width="3" height="7" rx="0.5" ry="0.5"/></svg>