<svg xmlns="http://www.w3.org/2000/svg" viewBox="0 0 24 24"><defs><style>.a{fill:none;stroke:#000;stroke-linecap:round;stroke-linejoin:round;}</style></defs><title>reception-hotel-bell</title><path class="a" d="M11.5,14.5V14a5,5,0,0,0-10,0v.5"/><path class="a" d="M10,3.5A3.627,3.627,0,0,1,10,4,3.5,3.5,0,0,1,3,4c0-.138-.015-.367,0-.5"/><rect class="a" x="0.5" y="14.5" width="23" height="9" rx="0.5" ry="0.5"/><path class="a" d="M15.5,14.5a3,3,0,0,1,6,0Z"/><path class="a" d="M10,3.5a12.494,12.494,0,0,0-7,0v-2a1,1,0,0,1,1-1H9a1,1,0,0,1,1,1Z"/><path class="a" d="M6.75,10.75a.25.25,0,1,1-.25-.25.25.25,0,0,1,.25.25"/><path class="a" d="M6.75,13a.25.25,0,1,1-.25-.25.25.25,0,0,1,.25.25"/><line class="a" x1="17.5" y1="9.5" x2="19.5" y2="9.5"/><line class="a" x1="18.5" y1="9.5" x2="18.5" y2="11.5"/><line class="a" x1="10.5" y1="21.5" x2="10.5" y2="17.5"/><line class="a" x1="14.5" y1="21.5" x2="14.5" y2="17.5"/><line class="a" x1="10.5" y1="19.5" x2="14.5" y2="19.5"/></svg>