<svg xmlns="http://www.w3.org/2000/svg" viewBox="0 0 24 24"><defs><style>.a{fill:none;stroke:#000;stroke-linecap:round;stroke-linejoin:round;}</style></defs><title>receipt-register</title><path class="a" d="M20,18.5h.5a1,1,0,0,1,1,1v3a1,1,0,0,1-1,1H3.5a1,1,0,0,1-1-1v-3"/><line class="a" x1="9.5" y1="4.502" x2="9.5" y2="7.643"/><line class="a" x1="12.375" y1="17.313" x2="8" y2="13"/><path class="a" d="M9.5,7.643A12.256,12.256,0,0,1,19.812,18.5"/><path class="a" d="M7.75,15.5a2.733,2.733,0,1,1,2.733-2.733"/><circle class="a" cx="13.25" cy="18.25" r="1.25"/><line class="a" x1="2.5" y1="18.5" x2="8.5" y2="18.5"/><line class="a" x1="17" y1="18.5" x2="20.016" y2="18.5"/><path class="a" d="M2.5,4.5h7v-3a1,1,0,0,0-1-1h-5a1,1,0,0,0-1,1v18"/><line class="a" x1="14.11" y1="9.356" x2="15" y2="7.75"/><line class="a" x1="16.349" y1="11.151" x2="17.628" y2="9.594"/><line class="a" x1="17.928" y1="13.121" x2="19.531" y2="12.063"/><line class="a" x1="14.5" y1="7.5" x2="15.5" y2="8"/><line class="a" x1="17.203" y1="9.23" x2="18.052" y2="9.958"/><line class="a" x1="19.248" y1="11.58" x2="19.814" y2="12.545"/></svg>