<svg xmlns="http://www.w3.org/2000/svg" viewBox="0 0 24 24"><defs><style>.a{fill:none;stroke:#000;stroke-linecap:round;stroke-linejoin:round;}</style></defs><title>reception-bell-call</title><path class="a" d="M15.139,23.5a1,1,0,0,0,.988-1.165,7.1,7.1,0,0,0-13.975,0A1,1,0,0,0,3.139,23.5Z"/><path class="a" d="M10.392.5a1.366,1.366,0,0,0,.225.925L13.2,5.347,9.5,10.072a1.506,1.506,0,0,0,.263,2.11,1.49,1.49,0,0,0,2.089-.248l6.789-8.676c-.324,3.659.258,4.637,1.045,5.253s1.6-.418,1.668-1.246L21.862.5"/><line class="a" x1="9.138" y1="16.5" x2="9.138" y2="14.5"/><line class="a" x1="11.638" y1="14.5" x2="6.638" y2="14.5"/></svg>