<svg id="Light" xmlns="http://www.w3.org/2000/svg" viewBox="0 0 24 24"><defs><style>.cls-1{fill:none;stroke:#000;stroke-linecap:round;stroke-linejoin:round;}</style></defs><title>recycling-trash-bin</title><path class="cls-1" d="M20.5,5.5H3.5l.839-4.2A1,1,0,0,1,5.32.5H18.68a1,1,0,0,1,.981.8Z"/><polygon class="cls-1" points="18 5.5 6 5.5 6.5 2.5 17.5 2.5 18 5.5"/><path class="cls-1" d="M18.609,22.624a1,1,0,0,1-.992.876H5.911a1,1,0,0,1-1-.907L3.5,7.5h17Z"/><path class="cls-1" d="M22.5,6.5a1,1,0,0,1-1,1H2.5a1,1,0,0,1,0-2h19A1,1,0,0,1,22.5,6.5Z"/><path class="cls-1" d="M18.609,22.624a1,1,0,0,1-.992.876H5.911a1,1,0,0,1-1-.907L3.5,7.5h17Z"/><polyline class="cls-1" points="9.748 16.145 9.033 14.621 7.234 15.007"/><path class="cls-1" d="M9.9,18.482H8.185a.806.806,0,0,1-.7-1.213l1.544-2.648"/><polyline class="cls-1" points="13.619 17.242 12.532 18.59 13.619 20.093"/><path class="cls-1" d="M15.245,15.567,16.3,17.393a.807.807,0,0,1-.7,1.21l-3.065-.013"/><polyline class="cls-1" points="12.417 13.399 14.219 13.575 14.991 12.088"/><path class="cls-1" d="M10.331,12.588l.969-1.677a.806.806,0,0,1,1.4,0l1.52,2.661"/></svg>