<svg id="Light" xmlns="http://www.w3.org/2000/svg" viewBox="0 0 24 24"><defs><style>.cls-1{fill:none;stroke:#000;stroke-linecap:round;stroke-linejoin:round;}</style></defs><title>recycling-trash-bin-2</title><path class="cls-1" d="M21.453,1.043a.5.5,0,0,0-.5-.543H3.045a.5.5,0,0,0-.5.543L4.421,22.587a1,1,0,0,0,1,.913H18.583a1,1,0,0,0,1-.913Z"/><polyline class="cls-1" points="15.184 6.951 14.548 8.917 12.446 8.648"/><polyline class="cls-1" points="6.382 12.292 8.286 11.887 8.699 13.751"/><polyline class="cls-1" points="14.746 17.81 13.267 16.361 14.746 14.912"/><path class="cls-1" d="M15.929,12.076l1.31,2.473a1.235,1.235,0,0,1-1.091,1.812H13.269"/><path class="cls-1" d="M9.613,8.743l1.351-2.3a1.234,1.234,0,0,1,2.128,0l1.456,2.473"/><path class="cls-1" d="M10.184,16.361H7.931a1.234,1.234,0,0,1-1.084-1.823l1.439-2.651"/></svg>