<svg xmlns="http://www.w3.org/2000/svg" viewBox="0 0 24 24"><defs><style>.a{fill:none;stroke:#000;stroke-linecap:round;stroke-linejoin:round;}</style></defs><title>religion-cao-dai</title><path class="a" d="M1,22.87a.278.278,0,0,1-.268-.443L11.768,1.313c.128-.244.336-.244.464,0L23.268,22.427A.278.278,0,0,1,23,22.87Z"/><circle class="a" cx="12" cy="15.87" r="2"/><path class="a" d="M18.519,15.61a.5.5,0,0,1,0,.519A7.687,7.687,0,0,1,12,19.87a7.687,7.687,0,0,1-6.519-3.741.5.5,0,0,1,0-.519A7.687,7.687,0,0,1,12,11.87,7.687,7.687,0,0,1,18.519,15.61Z"/></svg>