<svg xmlns="http://www.w3.org/2000/svg" viewBox="0 0 24 24"><defs><style>.a{fill:none;stroke:#000;stroke-linecap:round;stroke-linejoin:round;}</style></defs><title>religion-cao-dai-hands</title><path class="a" d="M18.5,5a7.281,7.281,0,0,1-13,0,7.281,7.281,0,0,1,13,0Z"/><circle class="a" cx="12" cy="5" r="2"/><rect class="a" x="14.5" y="20" width="6" height="3" rx="0.5" ry="0.5"/><path class="a" d="M19.5,20V18.469s2.605-2.58,3.706-3.675a1,1,0,0,0,.294-.709V6.438S21,5.531,21,12.5l-2.969,2.969.688-3c.343-1.438-.971-2.053-1.688-.938A23.457,23.457,0,0,0,15.5,15.492V20"/><rect class="a" x="3.5" y="20" width="6" height="3" rx="0.5" ry="0.5"/><path class="a" d="M4.5,20V18.469S2.035,15.876.829,14.785A1,1,0,0,1,.5,14.043v-7.6S3,5.531,3,12.5l2.969,2.969-.688-3c-.344-1.438.971-2.053,1.688-.938A23.457,23.457,0,0,1,8.5,15.492V20"/></svg>