<svg xmlns="http://www.w3.org/2000/svg" viewBox="0 0 24 24"><defs><style>.a{fill:none;stroke:#000;stroke-linecap:round;stroke-linejoin:round;}</style></defs><title>religion-devil-head</title><path class="a" d="M10.2,4.987a7.055,7.055,0,0,1,3.8.056"/><path class="a" d="M18.375,8.857a6.984,6.984,0,0,1,.625,2.9v4a7,7,0,0,1-14,0v-4a6.984,6.984,0,0,1,.625-2.9"/><path class="a" d="M19,11.253l2.512-1.57a1,1,0,0,1,1.524.957A6.929,6.929,0,0,1,19,16.253"/><path class="a" d="M18.983,11.263l2.529-1.58a1,1,0,0,1,1.524.957,6.932,6.932,0,0,1-4.054,5.622"/><path class="a" d="M5,11.253,2.488,9.683a1,1,0,0,0-1.524.957A6.929,6.929,0,0,0,5,16.253"/><path class="a" d="M5.017,11.263,2.488,9.683a1,1,0,0,0-1.524.957,6.932,6.932,0,0,0,4.054,5.622"/><path class="a" d="M9,6.253S6.056,4.15,5.954,1.488a.25.25,0,0,0-.451-.14c-1.014,1.367-2.913,4.886,1,8.4"/><path class="a" d="M15,6.253s2.944-2.1,3.046-4.765a.25.25,0,0,1,.451-.14c1.014,1.367,2.913,4.886-1,8.4"/><line class="a" x1="7" y1="12.253" x2="10.5" y2="13.753"/><line class="a" x1="17" y1="12.253" x2="13.5" y2="13.753"/><line class="a" x1="9" y1="13.11" x2="9" y2="14.753"/><line class="a" x1="15" y1="13.11" x2="15" y2="14.753"/><path class="a" d="M12,17.753c-3,0-4-1-4-1s0,3,4,3"/><path class="a" d="M12,17.753c3,0,4-1,4-1s0,3-4,3"/></svg>