<svg xmlns="http://www.w3.org/2000/svg" viewBox="0 0 24 24"><defs><style>.a{fill:none;stroke:#000;stroke-linecap:round;stroke-linejoin:round;}</style></defs><title>religion-shield</title><path class="a" d="M16.987,2.894A6.376,6.376,0,0,1,12.008.5h-.017A6.372,6.372,0,0,1,7.013,2.894,8.7,8.7,0,0,1,2,1.02V15.832S3.45,21.1,12,23.5c8.55-2.4,10-7.668,10-7.668V1.02A8.7,8.7,0,0,1,16.987,2.894Z"/><path class="a" d="M19,10.481a22.039,22.039,0,0,1-5.933.964A23.248,23.248,0,0,1,14,5.481H10a22.078,22.078,0,0,1,.965,5.966A21.794,21.794,0,0,1,5,10.481v4a21.979,21.979,0,0,1,5.965-.937A21.829,21.829,0,0,1,10,19.481h4a21.981,21.981,0,0,1-.937-5.931A23.261,23.261,0,0,1,19,14.481Z"/></svg>