<svg xmlns="http://www.w3.org/2000/svg" viewBox="0 0 24 24"><defs><style>.a{fill:none;stroke:#000;stroke-linecap:round;stroke-linejoin:round;}</style></defs><title>religion-hexagram</title><path class="a" d="M21.741,16.947c.142.235.034.427-.241.427H2.5c-.275,0-.383-.192-.241-.427L11.741,1.3a.278.278,0,0,1,.518,0Z"/><path class="a" d="M21.741,16.947c.142.235.034.427-.241.427H2.5c-.275,0-.383-.192-.241-.427L11.741,1.3a.278.278,0,0,1,.518,0Z"/><path class="a" d="M21.741,16.947c.142.235.034.427-.241.427H2.5c-.275,0-.383-.192-.241-.427L11.741,1.3a.278.278,0,0,1,.518,0Z"/><path class="a" d="M21.741,16.947c.142.235.034.427-.241.427H2.5c-.275,0-.383-.192-.241-.427L11.741,1.3a.278.278,0,0,1,.518,0Z"/><path class="a" d="M2.259,6.8c-.142-.235-.034-.428.241-.428h19c.275,0,.383.193.241.428L12,22.874Z"/><path class="a" d="M2.259,6.8c-.142-.235-.034-.428.241-.428h19c.275,0,.383.193.241.428L12,22.874Z"/></svg>