<svg xmlns="http://www.w3.org/2000/svg" viewBox="0 0 24 24"><defs><style>.a{fill:none;stroke:#000;stroke-linecap:round;stroke-linejoin:round;}</style></defs><title>religion-man-indian</title><line class="a" x1="12" y1="19" x2="12" y2="23.5"/><path class="a" d="M14.5,21.75a.25.25,0,1,1-.25.25.25.25,0,0,1,.25-.25"/><path class="a" d="M14,10.25a.25.25,0,1,1-.25.25.25.25,0,0,1,.25-.25"/><path class="a" d="M10,10.25a.25.25,0,1,1-.25.25.25.25,0,0,1,.25-.25"/><path class="a" d="M18,10.5l.3,3a4,4,0,0,1-2.314,3.917l-2.313,1.067a4,4,0,0,1-3.352,0L8.011,17.417A4,4,0,0,1,5.7,13.5l.3-3,2.135,2.847a2,2,0,0,0,2.233.7,5.162,5.162,0,0,1,3.264,0,2,2,0,0,0,2.233-.7Z"/><path class="a" d="M13,16.167a1.668,1.668,0,0,1-2,0"/><path class="a" d="M23,23.5v-.106a1.976,1.976,0,0,0-.77-1.579C20.9,20.8,17.73,19,12,19S3.105,20.8,1.77,21.815A1.976,1.976,0,0,0,1,23.394V23.5"/><path class="a" d="M18,10.5c0-1.378-2.85-2.282-4.622-2.71"/><path class="a" d="M10.622,7.79C8.85,8.218,6,9.122,6,10.5"/><ellipse class="a" cx="12" cy="7" rx="1.5" ry="2"/><path class="a" d="M18.024,10.733A5.282,5.282,0,0,0,20.5,6.5c0-3.314-3.806-6-8.5-6s-8.5,2.686-8.5,6a5.282,5.282,0,0,0,2.476,4.233"/><path class="a" d="M7.8,1.284c-.249,2.613.955,4.249,3.023,4.48"/></svg>