<svg xmlns="http://www.w3.org/2000/svg" viewBox="0 0 24 24"><defs><style>.a{fill:none;stroke:#000;stroke-linecap:round;stroke-linejoin:round;}</style></defs><title>religion-cao-dai-hand-1</title><path class="a" d="M11.559,18.371h3a4,4,0,0,1,4,4h-18"/><path class="a" d="M.559,14.371h7a4,4,0,0,1,4,4h-4.5"/><line class="a" x1="0.559" y1="13.371" x2="0.559" y2="23.371"/><path class="a" d="M11.059,12.371a.274.274,0,0,1-.262-.44L16.821.811c.131-.242.346-.243.478,0l6.088,11.122a.272.272,0,0,1-.26.439Z"/><path class="a" d="M20.393,8.371a3.779,3.779,0,0,1-6.668,0,3.779,3.779,0,0,1,6.668,0Z"/><path class="a" d="M17.059,7.871a.5.5,0,0,1,.5.5"/><path class="a" d="M16.559,8.371a.5.5,0,0,1,.5-.5"/><path class="a" d="M17.059,8.871a.5.5,0,0,1-.5-.5"/><path class="a" d="M17.559,8.371a.5.5,0,0,1-.5.5"/></svg>