<svg xmlns="http://www.w3.org/2000/svg" viewBox="0 0 24 24"><defs><style>.a{fill:none;stroke:#000;stroke-linecap:round;stroke-linejoin:round;}</style></defs><title>religion-woman-muslim</title><path class="a" d="M10.5,13a1.967,1.967,0,0,0,1.358.5h.284A1.965,1.965,0,0,0,13.5,13"/><path class="a" d="M11,9a1.089,1.089,0,0,0-1-.5A1.089,1.089,0,0,0,9,9"/><path class="a" d="M15,9a1.089,1.089,0,0,0-1-.5A1.089,1.089,0,0,0,13,9"/><path class="a" d="M16.5,9c0-2.485-2.015-3.5-4.5-3.5S7.5,6.515,7.5,9v2.5a4.5,4.5,0,0,0,9,0Z"/><path class="a" d="M16.471,17C18.016,15.581,19,12.982,19,8.5c0-3.866-3.134-8-7-8s-7,4.134-7,8c0,4.482.984,7.081,2.529,8.5A2.487,2.487,0,0,0,6,19c0,1.657,2.686,3,6,3s6-1.343,6-3A2.487,2.487,0,0,0,16.471,17Z"/><path class="a" d="M23.5,23.5v-1a4,4,0,0,0-2.6-3.745l-3.688-1.238"/><path class="a" d="M6.784,17.517,3.1,18.755A4,4,0,0,0,.5,22.5v1"/></svg>