<svg id="Light" xmlns="http://www.w3.org/2000/svg" viewBox="0 0 24 24"><defs><style>.cls-1{fill:none;stroke:#000;stroke-linecap:round;stroke-linejoin:round;}</style></defs><title>renewable-energy-power-socket</title><path class="cls-1" d="M1.5,2.5a1,1,0,0,0-1,1v17a1,1,0,0,0,1,1H5.75a.5.5,0,0,0,.4-.2l1.2-1.6a.5.5,0,0,1,.4-.2h8.5a.5.5,0,0,1,.4.2l1.2,1.6a.5.5,0,0,0,.4.2H22.5a1,1,0,0,0,1-1V3.5a1,1,0,0,0-1-1Z"/><path class="cls-1" d="M19,2.5l-.886,2.658a.5.5,0,0,1-.474.342H6.36a.5.5,0,0,1-.474-.342L5,2.5"/><line class="cls-1" x1="0.5" y1="16.5" x2="23.5" y2="16.5"/><rect class="cls-1" x="4.5" y="8.5" width="15" height="8" rx="2" ry="2"/><line class="cls-1" x1="17.5" y1="10.5" x2="17.5" y2="12.5"/><line class="cls-1" x1="14.5" y1="10.5" x2="14.5" y2="12.5"/><circle class="cls-1" cx="8.5" cy="12.5" r="2"/><path class="cls-1" d="M16,14a.25.25,0,0,1,.25.25"/><path class="cls-1" d="M15.75,14.25A.25.25,0,0,1,16,14"/><path class="cls-1" d="M16,14.5a.25.25,0,0,1-.25-.25"/><path class="cls-1" d="M16.25,14.25a.25.25,0,0,1-.25.25"/></svg>