<svg id="Light" xmlns="http://www.w3.org/2000/svg" viewBox="0 0 24 24"><defs><style>.cls-1{fill:none;stroke:#000;stroke-linecap:round;stroke-linejoin:round;}</style></defs><title>renewable-energy-earth</title><path class="cls-1" d="M14.4.564c-1.991.181-3.394,1.313-1.628,4.165-1.223,3.123.153,4,2.352,3.8,2.023-.184,5.188-2.594,6.283-4.986a.5.5,0,0,0-.37-.7C18.37,2.382,16.72.354,14.4.564Z"/><path class="cls-1" d="M7.25,7.149S14.2,3.161,18,4.077"/><path class="cls-1" d="M1,23.451a.5.5,0,0,1-.5-.5V15.657L1.877,5.882a.5.5,0,0,1,.495-.431H3.926a.5.5,0,0,1,.49.4L6.25,14.682l4.478-2.909a.5.5,0,0,1,.772.42v2.489l5.273-2.967a.5.5,0,0,1,.745.435v2.555l5.233-3a.5.5,0,0,1,.749.433V22.951a.5.5,0,0,1-.5.5H1Z"/></svg>