<svg id="Light" xmlns="http://www.w3.org/2000/svg" viewBox="0 0 24 24"><defs><style>.cls-1{fill:none;stroke:#000;stroke-linecap:round;stroke-linejoin:round;}</style></defs><title>renewable-energy-solar-smartphone</title><path class="cls-1" d="M3,13.5H1.5a1,1,0,0,0-1,1v8a1,1,0,0,0,1,1H2.691a.5.5,0,0,0,.447-.276l.224-.448a.5.5,0,0,1,.447-.276h6.382a.5.5,0,0,1,.447.276l.224.448a.5.5,0,0,0,.447.276H12.5a1,1,0,0,0,1-1v-8a1,1,0,0,0-1-1H3Z"/><path class="cls-1" d="M13.5,21.5h4a2,2,0,0,0,2-2v-4"/><path class="cls-1" d="M3,13.5l.862,1.724a.5.5,0,0,0,.447.276H9.691a.5.5,0,0,0,.447-.276L11,13.5"/><rect class="cls-1" x="3.5" y="17.5" width="7" height="3" rx="0.5" ry="0.5"/><rect class="cls-1" x="15.5" y="0.5" width="8" height="15" rx="1" ry="1"/><line class="cls-1" x1="23.5" y1="11.5" x2="15.5" y2="11.5"/><line class="cls-1" x1="19.75" y1="13.5" x2="19.75" y2="13.5"/><path class="cls-1" d="M19.5,13.25a.25.25,0,0,1,.25.25"/><line class="cls-1" x1="19.5" y1="13.25" x2="19.5" y2="13.25"/><path class="cls-1" d="M19.25,13.5a.25.25,0,0,1,.25-.25"/><line class="cls-1" x1="19.25" y1="13.5" x2="19.25" y2="13.5"/><path class="cls-1" d="M19.5,13.75a.25.25,0,0,1-.25-.25"/><line class="cls-1" x1="19.5" y1="13.75" x2="19.5" y2="13.75"/><path class="cls-1" d="M19.75,13.5a.25.25,0,0,1-.25.25"/></svg>