<svg xmlns="http://www.w3.org/2000/svg" viewBox="0 0 24 24"><defs><style>.a{fill:none;stroke:#000;stroke-linecap:round;stroke-linejoin:round;}</style></defs><title>reorder-down</title><path class="a" d="M2,23.5a1,1,0,0,1-1-1"/><path class="a" d="M10,23.5a1,1,0,0,0,1-1"/><line class="a" x1="1" y1="20.5" x2="1" y2="19.5"/><line class="a" x1="5" y1="23.5" x2="4" y2="23.5"/><line class="a" x1="5" y1="13.5" x2="4" y2="13.5"/><line class="a" x1="8" y1="23.5" x2="7" y2="23.5"/><line class="a" x1="8" y1="13.5" x2="7" y2="13.5"/><path class="a" d="M10,13.5a1,1,0,0,1,1,1"/><line class="a" x1="11" y1="16.5" x2="11" y2="17.5"/><path class="a" d="M2,13.5a1,1,0,0,0-1,1"/><line class="a" x1="1" y1="16.5" x2="1" y2="17.5"/><line class="a" x1="11" y1="19.5" x2="11" y2="20.5"/><rect class="a" x="1" y="0.5" width="10" height="10" rx="1" ry="1"/><polyline class="a" points="23 14.983 19 18.983 15 14.983"/><line class="a" x1="19" y1="3.5" x2="19" y2="18.983"/></svg>