<svg id="Light" xmlns="http://www.w3.org/2000/svg" viewBox="0 0 24 24"><defs><style>.cls-1{fill:none;stroke:#000;stroke-linecap:round;stroke-linejoin:round;}</style></defs><title>reptile-hippo-1</title><path class="cls-1" d="M.5,17.351l.856,1.039a.981.981,0,0,0,1.519,0l.952-1.156a.981.981,0,0,1,1.519,0L6.3,18.39a.981.981,0,0,0,1.519,0l.952-1.156a.981.981,0,0,1,1.519,0l.953,1.156a.98.98,0,0,0,1.518,0l.953-1.156a.981.981,0,0,1,1.519,0l.952,1.156a.981.981,0,0,0,1.519,0l.952-1.156a.981.981,0,0,1,1.519,0l.952,1.156a.981.981,0,0,0,1.519,0l.856-1.039"/><path class="cls-1" d="M.5,14.75H3.9a2.214,2.214,0,0,0,1.359-3.962L2,8.25a2.938,2.938,0,0,1,3-3,4.075,4.075,0,0,1,4,3.5,2.415,2.415,0,0,1,2,0c1,.5,1,1,1,1a2.335,2.335,0,0,1,2.5-1,1.283,1.283,0,0,1-.5,2.5"/><path class="cls-1" d="M4.5,7.25a.693.693,0,0,1,1,0"/><path class="cls-1" d="M9.75,10.75A.25.25,0,0,1,10,11"/><path class="cls-1" d="M9.5,11a.25.25,0,0,1,.25-.25"/><path class="cls-1" d="M9.75,11.25A.25.25,0,0,1,9.5,11"/><path class="cls-1" d="M10,11a.25.25,0,0,1-.25.25"/><line class="cls-1" x1="2" y1="8.25" x2="1.5" y2="9.25"/><line class="cls-1" x1="3.98" y1="9.79" x2="3.5" y2="10.75"/><line class="cls-1" x1="0.5" y1="14.75" x2="0.5" y2="13.75"/><line class="cls-1" x1="2.5" y1="14.75" x2="2.5" y2="13.75"/><path class="cls-1" d="M15.357,10.25s3.334-1.385,5.643,0c2.5,1.5,2.5,3,2.5,5"/></svg>