<svg xmlns="http://www.w3.org/2000/svg" viewBox="0 0 24 24"><defs><style>.a{fill:none;stroke:#000;stroke-linecap:round;stroke-linejoin:round;}</style></defs><title>resize-expand-sides</title><path class="a" d="M22,23a1,1,0,0,0,1-1"/><line class="a" x1="11" y1="23" x2="10" y2="23"/><line class="a" x1="8" y1="23" x2="7" y2="23"/><line class="a" x1="14" y1="23" x2="13" y2="23"/><line class="a" x1="17" y1="23" x2="16" y2="23"/><line class="a" x1="20" y1="23" x2="19" y2="23"/><line class="a" x1="23" y1="16" x2="23" y2="17"/><line class="a" x1="23" y1="13" x2="23" y2="14"/><line class="a" x1="23" y1="10" x2="23" y2="11"/><line class="a" x1="23" y1="7" x2="23" y2="8"/><line class="a" x1="23" y1="19" x2="23" y2="20"/><polyline class="a" points="5 23 5 5 23 5"/><polyline class="a" points="18 1 23 5 18 9"/><polyline class="a" points="1 18 5 23 9 18"/></svg>