<svg xmlns="http://www.w3.org/2000/svg" viewBox="0 0 24 24"><defs><style>.a{fill:none;stroke:#000;stroke-linecap:round;stroke-linejoin:round;}</style></defs><title>resize-expand</title><path class="a" d="M3.5,2.5a1,1,0,0,0-1,1"/><path class="a" d="M20.5,2.5a1,1,0,0,1,1,1"/><line class="a" x1="2.5" y1="5.5" x2="2.5" y2="6.5"/><line class="a" x1="6.5" y1="2.5" x2="5.5" y2="2.5"/><line class="a" x1="6.5" y1="21.5" x2="5.5" y2="21.5"/><line class="a" x1="9.5" y1="2.5" x2="8.5" y2="2.5"/><line class="a" x1="12.5" y1="2.5" x2="11.5" y2="2.5"/><line class="a" x1="15.5" y1="2.5" x2="14.5" y2="2.5"/><line class="a" x1="18.5" y1="2.5" x2="17.5" y2="2.5"/><line class="a" x1="9.5" y1="21.5" x2="8.5" y2="21.5"/><line class="a" x1="12.5" y1="21.5" x2="11.5" y2="21.5"/><line class="a" x1="15.5" y1="21.5" x2="14.5" y2="21.5"/><line class="a" x1="18.5" y1="21.5" x2="17.5" y2="21.5"/><path class="a" d="M20.5,21.5a1,1,0,0,0,1-1"/><line class="a" x1="21.5" y1="18.5" x2="21.5" y2="17.5"/><path class="a" d="M3.5,21.5a1,1,0,0,1-1-1"/><line class="a" x1="2.5" y1="18.5" x2="2.5" y2="17.5"/><line class="a" x1="21.5" y1="15.5" x2="21.5" y2="14.5"/><line class="a" x1="21.5" y1="12.5" x2="21.5" y2="11.5"/><line class="a" x1="21.5" y1="9.5" x2="21.5" y2="8.5"/><line class="a" x1="2.5" y1="15.5" x2="2.5" y2="14.5"/><line class="a" x1="2.5" y1="12.5" x2="2.5" y2="11.5"/><line class="a" x1="2.5" y1="9.5" x2="2.5" y2="8.5"/><line class="a" x1="21.5" y1="6.5" x2="21.5" y2="5.5"/><rect class="a" x="6.5" y="6.5" width="11" height="11" rx="1" ry="1"/></svg>