<?xml version="1.0" encoding="utf-8"?>
<!-- Generator: Adobe Illustrator 21.0.2, SVG Export Plug-In . SVG Version: 6.00 Build 0)  -->
<!DOCTYPE svg PUBLIC "-//W3C//DTD SVG 1.1//EN" "http://www.w3.org/Graphics/SVG/1.1/DTD/svg11.dtd">
<svg version="1.1" id="Layer_1" xmlns="http://www.w3.org/2000/svg" xmlns:xlink="http://www.w3.org/1999/xlink" x="0px" y="0px"
	 viewBox="0 0 24 24" style="enable-background:new 0 0 24 24;" xml:space="preserve">
<style type="text/css">
	.st0{fill:none;stroke:#000000;stroke-linecap:round;stroke-linejoin:round;}
</style>
<title>responsive-design-expand</title>
<line class="st0" x1="4.5" y1="4.5" x2="23.5" y2="4.5"/>
<path class="st0" d="M7.5,2.2c-0.1,0-0.2,0.1-0.2,0.2s0.1,0.2,0.2,0.2s0.2-0.1,0.2-0.2S7.6,2.2,7.5,2.2"/>
<path class="st0" d="M9.5,2.2c-0.1,0-0.2,0.1-0.2,0.2s0.1,0.2,0.2,0.2s0.2-0.1,0.2-0.2S9.6,2.2,9.5,2.2"/>
<path class="st0" d="M11.5,2.2c-0.1,0-0.2,0.1-0.2,0.2s0.1,0.2,0.2,0.2s0.2-0.1,0.2-0.2S11.6,2.2,11.5,2.2"/>
<path class="st0" d="M4.5,11.5v-9c0-1.1,0.9-2,2-2h15c1.1,0,2,0.9,2,2v10c0,1.1-0.9,2-2,2h-6"/>
<path class="st0" d="M2.5,13.5h9c1.1,0,2,0.9,2,2v6c0,1.1-0.9,2-2,2h-9c-1.1,0-2-0.9-2-2v-6C0.5,14.4,1.4,13.5,2.5,13.5z"/>
<line class="st0" x1="0.5" y1="16.5" x2="13.5" y2="16.5"/>
<line class="st0" x1="14.5" y1="11.5" x2="18.5" y2="7.5"/>
<polyline class="st0" points="15.5,7.5 18.5,7.5 18.5,10.5 "/>
<line class="st0" x1="12.5" y1="11.5" x2="8.5" y2="7.5"/>
<polyline class="st0" points="11.5,7.5 8.5,7.5 8.5,10.5 "/>
</svg>
