<svg id="Light" xmlns="http://www.w3.org/2000/svg" viewBox="0 0 24 24"><defs><style>.cls-1{fill:none;stroke:#000;stroke-linecap:round;stroke-linejoin:round;}</style></defs><title>restaurant-menu</title><rect class="cls-1" x="3.5" y="0.5" width="18" height="23" rx="2" ry="2"/><line class="cls-1" x1="2.5" y1="4.5" x2="4.5" y2="4.5"/><line class="cls-1" x1="2.5" y1="7.5" x2="4.5" y2="7.5"/><line class="cls-1" x1="2.5" y1="10.5" x2="4.5" y2="10.5"/><line class="cls-1" x1="2.5" y1="13.5" x2="4.5" y2="13.5"/><line class="cls-1" x1="2.5" y1="16.5" x2="4.5" y2="16.5"/><line class="cls-1" x1="2.5" y1="19.5" x2="4.5" y2="19.5"/><path class="cls-1" d="M6.477,7.441l2.3,2.3a1.95,1.95,0,1,0,2.757-2.758l-2.3-2.3"/><line class="cls-1" x1="7.855" y1="6.063" x2="17.523" y2="15.731"/><line class="cls-1" x1="14.899" y1="9.74" x2="8.854" y2="15.784"/><path class="cls-1" d="M15.818,6.063A1.949,1.949,0,1,1,18.575,8.82l-.919.92A1.95,1.95,0,0,1,14.9,6.982Z"/></svg>