<svg id="Light" xmlns="http://www.w3.org/2000/svg" viewBox="0 0 24 24"><defs><style>.cls-1{fill:none;stroke:#000;stroke-linecap:round;stroke-linejoin:round;}</style></defs><title>restaurant-dishes</title><path class="cls-1" d="M20.5,15H23a.5.5,0,0,0,.5-.5C23.443,6.77,21.852,1,20.5,1V22"/><path class="cls-1" d="M.5,2V6a3,3,0,0,0,6,0V2"/><line class="cls-1" x1="3.5" y1="2" x2="3.5" y2="22"/><circle class="cls-1" cx="12" cy="15.5" r="6.5"/><path class="cls-1" d="M11.692,18.751a.5.5,0,0,0,.615,0c.832-.649,3.063-2.528,3.063-3.991,0-2.074-2.757-2.73-3.37-.207-.613-2.523-3.37-1.867-3.37.207C8.63,16.222,10.86,18.1,11.692,18.751Z"/></svg>