<svg xmlns="http://www.w3.org/2000/svg" viewBox="0 0 24 24"><defs><style>.a{fill:none;stroke:#000;stroke-linecap:round;stroke-linejoin:round;}</style></defs><title>road-sign-2.5m-high</title><polyline class="a" points="11 4 12 5 13 4"/><polyline class="a" points="13 21 12 20 11 21"/><path class="a" d="M8,9A1,1,0,0,1,9,8H9a1,1,0,0,1,1,1h0a1.423,1.423,0,0,1-.312.89L8,12h2"/><path class="a" d="M16,8H14V9.5a.5.5,0,0,0,.5.5H15a1,1,0,0,1,0,2H14"/><path class="a" d="M12,11.75a.25.25,0,0,1,.25.25"/><path class="a" d="M11.75,12a.25.25,0,0,1,.25-.25"/><path class="a" d="M12,12.25a.25.25,0,0,1-.25-.25"/><path class="a" d="M12.25,12a.25.25,0,0,1-.25.25"/><polyline class="a" points="13.5 17.5 13.5 14 12 16.5 10.5 14 10.5 17.5"/><circle class="a" cx="12" cy="12" r="11"/></svg>