<svg xmlns="http://www.w3.org/2000/svg" viewBox="0 0 24 24"><defs><style>.a{fill:none;stroke:#000;stroke-linecap:round;stroke-linejoin:round;}</style></defs><title>road-sign-pedestrian</title><circle class="a" cx="12" cy="12" r="11.5"/><circle class="a" cx="9" cy="6" r="2.5"/><path class="a" d="M11.5,12a2.5,2.5,0,0,0-5,0l-.45,4.955a.5.5,0,0,0,.5.545h4.9a.5.5,0,0,0,.5-.545Z"/><line class="a" x1="11.431" y1="11.414" x2="13.5" y2="13.5"/><circle class="a" cx="17" cy="12.5" r="1.5"/><path class="a" d="M18.5,16.5a1.5,1.5,0,0,0-3,0V18a.5.5,0,0,0,.5.5h2a.5.5,0,0,0,.5-.5Z"/><line class="a" x1="16.5" y1="18.5" x2="16.5" y2="20.5"/><line class="a" x1="7.5" y1="17.5" x2="7.5" y2="20.5"/><line class="a" x1="10.5" y1="17.5" x2="10.5" y2="20.5"/><line class="a" x1="15.5" y1="16.5" x2="14.5" y2="15.5"/><line class="a" x1="17.5" y1="18.5" x2="18.5" y2="20"/></svg>