<svg xmlns="http://www.w3.org/2000/svg" viewBox="0 0 24 24"><defs><style>.a{fill:none;stroke:#000;stroke-linecap:round;stroke-linejoin:round;}</style></defs><title>road-sign-slippery</title><rect class="a" x="4.222" y="4.222" width="15.556" height="15.556" rx="1" ry="1" transform="translate(-4.971 12) rotate(-45)"/><path class="a" d="M15.707,9.707a1,1,0,0,1,.293.707V11a1,1,0,0,1-1,1H9a1,1,0,0,1-1-1v-.586a1,1,0,0,1,.293-.707L9,9h6Z"/><line class="a" x1="9" y1="13" x2="9" y2="12"/><line class="a" x1="15" y1="13" x2="15" y2="12"/><path class="a" d="M9,9l.361-1.164A1,1,0,0,1,10.347,7h3.306a1,1,0,0,1,.986.836L15,9"/><path class="a" d="M16,16.938a1,1,0,0,0-.827-.438,1,1,0,0,1,0-2"/><path class="a" d="M10.03,16.984a1,1,0,0,0-.857-.484,1,1,0,0,1,0-2"/></svg>