<svg xmlns="http://www.w3.org/2000/svg" viewBox="0 0 24 24"><defs><style>.a{fill:none;stroke:#000;stroke-linecap:round;stroke-linejoin:round;}</style></defs><title>road-sign-crossroad-2</title><rect class="a" x="3.868" y="3.868" width="16.263" height="16.263" rx="1" ry="1" transform="translate(-4.971 12) rotate(-45)"/><path class="a" d="M13.5,10.5V8a.5.5,0,0,0-.5-.5H11a.5.5,0,0,0-.5.5v2.5H8a.5.5,0,0,0-.5.5v2a.5.5,0,0,0,.5.5h2.5V16a.5.5,0,0,0,.5.5h2a.5.5,0,0,0,.5-.5V13.5H16a.5.5,0,0,0,.5-.5V11a.5.5,0,0,0-.5-.5Z"/></svg>