<svg xmlns="http://www.w3.org/2000/svg" viewBox="0 0 24 24"><defs><style>.a{fill:none;stroke:#000;stroke-linecap:round;stroke-linejoin:round;}</style></defs><title>road-sign-private-drive</title><path class="a" d="M23.5,19.5v3a1,1,0,0,1-1,1H1.5a1,1,0,0,1-1-1v-3"/><path class="a" d="M.5,4.5v-3a1,1,0,0,1,1-1h21a1,1,0,0,1,1,1v3"/><line class="a" x1="8.5" y1="12.5" x2="8.5" y2="7.5"/><line class="a" x1="11.5" y1="19.5" x2="11.5" y2="14.5"/><line class="a" x1="18.5" y1="12.5" x2="18.5" y2="7.5"/><line class="a" x1="17.5" y1="7.5" x2="19.5" y2="7.5"/><line class="a" x1="4.5" y1="12.5" x2="4.5" y2="7.5"/><path class="a" d="M4.5,7.5h.75a1.25,1.25,0,0,1,0,2.5H4.5"/><line class="a" x1="6.5" y1="12.5" x2="5" y2="10"/><line class="a" x1="7.5" y1="19.5" x2="7.5" y2="14.5"/><path class="a" d="M7.5,14.5h.75a1.25,1.25,0,0,1,0,2.5H7.5"/><line class="a" x1="9.5" y1="19.5" x2="8" y2="17"/><line class="a" x1="1.5" y1="12.5" x2="1.5" y2="7.5"/><path class="a" d="M1.5,7.5H2a1.5,1.5,0,0,1,0,3H1.5"/><path class="a" d="M10.5,7.5V9.2a5.954,5.954,0,0,0,1,3.3,5.954,5.954,0,0,0,1-3.3V7.5"/><path class="a" d="M13.5,14.5v1.7a5.954,5.954,0,0,0,1,3.3,5.954,5.954,0,0,0,1-3.3V14.5"/><path class="a" d="M14.5,12.5v-4a1,1,0,0,1,2,0v4"/><line class="a" x1="14.5" y1="10.5" x2="16.5" y2="10.5"/><path class="a" d="M3.5,19.5a2,2,0,0,0,2-2v-1a2,2,0,0,0-2-2Z"/><path class="a" d="M22.5,12.5h-1a1,1,0,0,1-1-1v-3a1,1,0,0,1,1-1h1"/><line class="a" x1="20.5" y1="10.5" x2="22.5" y2="10.5"/><path class="a" d="M19.5,19.5h-1a1,1,0,0,1-1-1v-3a1,1,0,0,1,1-1h1"/><line class="a" x1="17.5" y1="17.5" x2="19.5" y2="17.5"/></svg>