<svg xmlns="http://www.w3.org/2000/svg" viewBox="0 0 24 24"><defs><style>.a{fill:none;stroke:#000;stroke-linecap:round;stroke-linejoin:round;}</style></defs><title>road-sign-share-the-road</title><rect class="a" x="0.5" y="0.5" width="23" height="23" rx="1" ry="1"/><line class="a" x1="7.5" y1="14.5" x2="7.5" y2="9.5"/><line class="a" x1="6.5" y1="9.5" x2="8.5" y2="9.5"/><line class="a" x1="6.5" y1="7.5" x2="6.5" y2="2.5"/><line class="a" x1="8.5" y1="7.5" x2="8.5" y2="2.5"/><line class="a" x1="6.5" y1="5.5" x2="8.5" y2="5.5"/><line class="a" x1="10.5" y1="14.5" x2="10.5" y2="9.5"/><line class="a" x1="12.5" y1="14.5" x2="12.5" y2="9.5"/><line class="a" x1="10.5" y1="12.5" x2="12.5" y2="12.5"/><line class="a" x1="14.5" y1="7.5" x2="14.5" y2="2.5"/><path class="a" d="M14.5,2.5h.75a1.25,1.25,0,0,1,0,2.5H14.5"/><line class="a" x1="16.5" y1="7.5" x2="15" y2="5"/><line class="a" x1="4.5" y1="21.5" x2="4.5" y2="16.5"/><path class="a" d="M4.5,16.5h.75a1.25,1.25,0,0,1,0,2.5H4.5"/><line class="a" x1="6.5" y1="21.5" x2="5" y2="19"/><path class="a" d="M9.5,16.5a1,1,0,0,0-1,1v3a1,1,0,0,0,2,0v-3A1,1,0,0,0,9.5,16.5Z"/><path class="a" d="M4.5,2.5h-1a1,1,0,0,0-1,1c0,1.5,2,1.5,2,3a1,1,0,0,1-1,1h-1"/><path class="a" d="M10.5,7.5v-4a1,1,0,0,1,2,0v4"/><line class="a" x1="10.5" y1="5.5" x2="12.5" y2="5.5"/><path class="a" d="M12.5,21.5v-4a1,1,0,0,1,2,0v4"/><line class="a" x1="12.5" y1="19.5" x2="14.5" y2="19.5"/><path class="a" d="M16.5,21.5a2,2,0,0,0,2-2v-1a2,2,0,0,0-2-2Z"/><path class="a" d="M20.5,7.5h-1a1,1,0,0,1-1-1v-3a1,1,0,0,1,1-1h1"/><line class="a" x1="18.5" y1="5.5" x2="20.5" y2="5.5"/><path class="a" d="M16.5,14.5h-1a1,1,0,0,1-1-1v-3a1,1,0,0,1,1-1h1"/><line class="a" x1="14.5" y1="12.5" x2="16.5" y2="12.5"/></svg>