<svg xmlns="http://www.w3.org/2000/svg" viewBox="0 0 24 24"><defs><style>.a{fill:none;stroke:#000;stroke-linecap:round;stroke-linejoin:round;}</style></defs><title>road-sign-3-way</title><path class="a" d="M9.5,9.5v1.345a6.01,6.01,0,0,0,.429,2.228L10.5,14.5l1-3.5,1,3.5.571-1.427a6.01,6.01,0,0,0,.429-2.228V9.5"/><path class="a" d="M15.5,14.5v-4a1,1,0,0,1,2,0v4"/><line class="a" x1="15.5" y1="12.5" x2="17.5" y2="12.5"/><path class="a" d="M19.5,9.5V11a1,1,0,0,0,2,0V9.5"/><line class="a" x1="20.5" y1="12" x2="20.5" y2="14.5"/><rect class="a" x="0.5" y="6.5" width="23" height="11" rx="1" ry="1"/><path class="a" d="M2.5,10.5a1,1,0,0,1,1-1l.757,0a1.249,1.249,0,0,1,0,2.5,1.249,1.249,0,0,1,0,2.5l-.757,0a1,1,0,0,1-1-1"/></svg>