<svg xmlns="http://www.w3.org/2000/svg" viewBox="0 0 24 24"><defs><style>.a{fill:none;stroke:#000;stroke-linecap:round;stroke-linejoin:round;}</style></defs><title>road-sign-right-reverse-turn-ahead-1</title><rect class="a" x="3.868" y="3.868" width="16.263" height="16.263" rx="1" ry="1" transform="translate(-4.971 12) rotate(-45)"/><path class="a" d="M12,11.5a.5.5,0,0,0,.5-.5V9H11l2.146-2.146a.5.5,0,0,1,.708,0L16,9H14.5v4a.5.5,0,0,1-.5.5H12a.5.5,0,0,0-.5.5v3a.5.5,0,0,1-.5.5H10a.5.5,0,0,1-.5-.5V12a.5.5,0,0,1,.5-.5Z"/></svg>