<svg xmlns="http://www.w3.org/2000/svg" viewBox="0 0 24 24"><defs><style>.a{fill:none;stroke:#000;stroke-linecap:round;stroke-linejoin:round;}</style></defs><title>road-traffic-lights-1</title><path class="a" d="M15.5,16.5a1,1,0,0,1-1,1h-5a1,1,0,0,1-1-1V2.5a2,2,0,0,1,2-2h3a2,2,0,0,1,2,2Z"/><circle class="a" cx="12" cy="9" r="1.5"/><circle class="a" cx="12" cy="14" r="1.5"/><circle class="a" cx="12" cy="4" r="1.5"/><line class="a" x1="11.5" y1="17.5" x2="11.5" y2="23.5"/><path class="a" d="M15.5,2.5h2.9a.25.25,0,0,1,.177.427L15.5,6"/><path class="a" d="M15.5,7.5h2.9a.25.25,0,0,1,.177.427L15.5,11"/><path class="a" d="M15.5,12.5h2.9a.25.25,0,0,1,.177.427L15.5,16"/><path class="a" d="M8.5,2.5H5.6a.25.25,0,0,0-.177.427L8.5,6"/><path class="a" d="M8.5,7.5H5.6a.25.25,0,0,0-.177.427L8.5,11"/><path class="a" d="M8.5,12.5H5.6a.25.25,0,0,0-.177.427L8.5,16"/></svg>