<svg xmlns="http://www.w3.org/2000/svg" viewBox="0 0 24 24"><defs><style>.a{fill:none;stroke:#000;stroke-linecap:round;stroke-linejoin:round;}</style></defs><title>road-sign-66</title><path class="a" d="M2,3.775v7.637A12.285,12.285,0,0,0,9.828,22.88l1.067.414a3.063,3.063,0,0,0,2.21,0l1.067-.414A12.285,12.285,0,0,0,22,11.412V3.775a1.536,1.536,0,0,0-.89-1.406A22.143,22.143,0,0,0,12,.5,22.143,22.143,0,0,0,2.89,2.369,1.536,1.536,0,0,0,2,3.775Z"/><circle class="a" cx="8.5" cy="12" r="2.5"/><path class="a" d="M6,12V9.5a3,3,0,0,1,3-3h.5"/><circle class="a" cx="15.5" cy="12" r="2.5"/><path class="a" d="M13,12V9.5a3,3,0,0,1,3-3h.5"/></svg>