<svg xmlns="http://www.w3.org/2000/svg" viewBox="0 0 24 24"><defs><style>.a{fill:none;stroke:#000;stroke-linecap:round;stroke-linejoin:round;}</style></defs><title>road-sign-warning</title><path class="a" d="M1.311,20.479,11.123,2.561a1,1,0,0,1,1.754,0l9.812,17.918a1,1,0,0,1-.877,1.48H2.188A1,1,0,0,1,1.311,20.479Z"/><line class="a" x1="12" y1="9.459" x2="12" y2="15.959"/><path class="a" d="M12,18.209a.25.25,0,0,1,.25.25"/><path class="a" d="M11.75,18.459a.25.25,0,0,1,.25-.25"/><path class="a" d="M12,18.709a.25.25,0,0,1-.25-.25"/><path class="a" d="M12.25,18.459a.25.25,0,0,1-.25.25"/></svg>