<svg xmlns="http://www.w3.org/2000/svg" viewBox="0 0 24 24"><defs><style>.a{fill:none;stroke:#000;stroke-linecap:round;stroke-linejoin:round;}</style></defs><title>road-sign-stop</title><line class="a" x1="10.5" y1="14.5" x2="10.5" y2="9.5"/><line class="a" x1="9.5" y1="9.5" x2="11.5" y2="9.5"/><line class="a" x1="17.5" y1="14.5" x2="17.5" y2="9.5"/><path class="a" d="M17.5,9.5H18a1.5,1.5,0,0,1,0,3h-.5"/><path class="a" d="M14.5,9.5a1,1,0,0,0-1,1v3a1,1,0,0,0,2,0v-3A1,1,0,0,0,14.5,9.5Z"/><path class="a" d="M7.5,9.5h-1a1,1,0,0,0-1,1c0,1.5,2,1.5,2,3a1,1,0,0,1-1,1h-1"/><path class="a" d="M16.349.5h-8.7a1,1,0,0,0-.707.293L.793,6.944A1,1,0,0,0,.5,7.651v8.7a1,1,0,0,0,.293.707l6.151,6.151a1,1,0,0,0,.707.293h8.7a1,1,0,0,0,.707-.293l6.151-6.151a1,1,0,0,0,.293-.707v-8.7a1,1,0,0,0-.293-.707L17.056.793A1,1,0,0,0,16.349.5Z"/></svg>