<svg xmlns="http://www.w3.org/2000/svg" viewBox="0 0 24 24"><defs><style>.a{fill:none;stroke:#000;stroke-linecap:round;stroke-linejoin:round;}</style></defs><title>road-sign-4-way</title><path class="a" d="M9.5,9.5v1.345a6.01,6.01,0,0,0,.429,2.228L10.5,14.5l1-3.5,1,3.5.571-1.427a6.01,6.01,0,0,0,.429-2.228V9.5"/><path class="a" d="M15.5,14.5v-4a1,1,0,0,1,2,0v4"/><line class="a" x1="15.5" y1="12.5" x2="17.5" y2="12.5"/><path class="a" d="M19.5,9.5V11a1,1,0,0,0,2,0V9.5"/><line class="a" x1="20.5" y1="12" x2="20.5" y2="14.5"/><rect class="a" x="0.5" y="6.5" width="23" height="11" rx="1" ry="1"/><line class="a" x1="5.487" y1="14.49" x2="5.487" y2="13.49"/><path class="a" d="M5.487,13.49V9.5A5.5,5.5,0,0,0,2.5,13.49H5.487"/></svg>