<svg xmlns="http://www.w3.org/2000/svg" viewBox="0 0 24 24"><defs><style>.a{fill:none;stroke:#000;stroke-linecap:round;stroke-linejoin:round;}</style></defs><title>road-sign-turn-1</title><rect class="a" x="4.222" y="4.222" width="15.556" height="15.556" rx="1" ry="1" transform="translate(-4.971 12) rotate(-45)"/><path class="a" d="M9,8.5A.5.5,0,0,1,9.5,8H11V6.5a.5.5,0,0,1,.5-.5h1a.5.5,0,0,1,.5.5V13h1.5a.5.5,0,0,1,.5.5v1a.5.5,0,0,1-.5.5H13v1.5a.5.5,0,0,1-.5.5h-1a.5.5,0,0,1-.5-.5V10H9.5A.5.5,0,0,1,9,9.5Z"/></svg>