<svg xmlns="http://www.w3.org/2000/svg" viewBox="0 0 24 24"><defs><style>.a{fill:none;stroke:#000;stroke-linecap:round;stroke-linejoin:round;}</style></defs><title>road-sign-side-road-angle-right-1</title><rect class="a" x="3.868" y="3.868" width="16.263" height="16.263" rx="1" ry="1" transform="translate(12 28.971) rotate(-135)"/><path class="a" d="M11.146,6.354a.5.5,0,0,1,.708,0L14,8.5H12.5v2.172l3.8,3.8a.5.5,0,0,1,0,.707l-.707.707a.5.5,0,0,1-.707,0L12.5,13.5V16a.5.5,0,0,1-.5.5H11a.5.5,0,0,1-.5-.5V8.5H9Z"/></svg>