<svg xmlns="http://www.w3.org/2000/svg" viewBox="0 0 24 24"><defs><style>.a{fill:none;stroke:#000;stroke-linecap:round;stroke-linejoin:round;}</style></defs><title>road-sign-airport-close</title><rect class="a" x="4.222" y="4.222" width="15.556" height="15.556" rx="1" ry="1" transform="translate(-4.971 12) rotate(-45)"/><path class="a" d="M7.067,9.041a1.381,1.381,0,0,0-.99.889A1.294,1.294,0,0,0,6,10.37a1.363,1.363,0,0,0,.637,1.181l7.853,4.876a.479.479,0,0,0,.532-.015L17.9,14.391a.266.266,0,0,0,.04-.374.208.208,0,0,0-.045-.044l-1.208-1.066a.259.259,0,0,0-.3-.021l-1.475.879L13,12.425l3.639-2.252a.332.332,0,0,0,.037-.467.35.35,0,0,0-.053-.049L15.731,9a.332.332,0,0,0-.312-.044L10.4,10.82,8.084,9.236A1.289,1.289,0,0,0,7.067,9.041Z"/></svg>