<svg xmlns="http://www.w3.org/2000/svg" viewBox="0 0 24 24"><defs><style>.a{fill:none;stroke:#000;stroke-linecap:round;stroke-linejoin:round;}</style></defs><title>road-traffic-lights</title><rect class="a" x="6.5" y="0.5" width="11" height="23" rx="2" ry="2"/><circle class="a" cx="12" cy="12" r="2.5"/><circle class="a" cx="12" cy="19" r="2.5"/><circle class="a" cx="12" cy="5" r="2.5"/><path class="a" d="M6.5,2.5H2.707a.5.5,0,0,0-.353.854L6.5,7.5"/><path class="a" d="M6.5,9.5H2.707a.5.5,0,0,0-.353.854L6.5,14.5"/><path class="a" d="M6.5,16.5H2.707a.5.5,0,0,0-.353.854L6.5,21.5"/><path class="a" d="M17.5,2.5h3.793a.5.5,0,0,1,.353.854L17.5,7.5"/><path class="a" d="M17.5,9.5h3.793a.5.5,0,0,1,.353.854L17.5,14.5"/><path class="a" d="M17.5,16.5h3.793a.5.5,0,0,1,.353.854L17.5,21.5"/></svg>