<svg xmlns="http://www.w3.org/2000/svg" viewBox="0 0 24 24"><defs><style>.a{fill:none;stroke:#000;stroke-linecap:round;stroke-linejoin:round;}</style></defs><title>road-sign-no-buses</title><circle class="a" cx="12" cy="12" r="11.5"/><path class="a" d="M18.5,7.5H19a1,1,0,0,1,1,1v4"/><path class="a" d="M8,12.5v-4a1,1,0,0,1,1-1h5"/><path class="a" d="M14,12.5h6v2a1,1,0,0,1-1,1H18"/><path class="a" d="M6,15.5a1,1,0,0,1-1-1v-1a1,1,0,0,1,1-1H9"/><line class="a" x1="15" y1="15.5" x2="11" y2="15.5"/><circle class="a" cx="16.5" cy="15.5" r="1.5"/><path class="a" d="M7.094,14.976a1.505,1.505,0,0,1,.9-.89"/><path class="a" d="M9.918,15.99a1.5,1.5,0,0,1-.895.916"/><path class="a" d="M8,9.5H9.5a1,1,0,0,1,1,1"/><path class="a" d="M12.5,9.75a.25.25,0,0,1,.25.25"/><path class="a" d="M12.25,10a.25.25,0,0,1,.25-.25"/><path class="a" d="M12.5,10.25a.25.25,0,0,1-.25-.25"/><path class="a" d="M12.75,10a.25.25,0,0,1-.25.25"/><path class="a" d="M15,9.75a.25.25,0,0,1,.25.25"/><path class="a" d="M14.75,10A.25.25,0,0,1,15,9.75"/><path class="a" d="M15,10.25a.25.25,0,0,1-.25-.25"/><path class="a" d="M15.25,10a.25.25,0,0,1-.25.25"/><path class="a" d="M17.5,9.75a.25.25,0,0,1,.25.25"/><path class="a" d="M17.25,10a.25.25,0,0,1,.25-.25"/><path class="a" d="M17.5,10.25a.25.25,0,0,1-.25-.25"/><path class="a" d="M17.75,10a.25.25,0,0,1-.25.25"/><line class="a" x1="3.868" y1="20.132" x2="20.074" y2="3.926"/></svg>