<svg xmlns="http://www.w3.org/2000/svg" viewBox="0 0 24 24"><defs><style>.a{fill:none;stroke:#000;stroke-linecap:round;stroke-linejoin:round;}</style></defs><title>road-sign-divided-highway-ahead</title><path class="a" d="M10.5,6V9a1.5,1.5,0,0,0,3,0V6"/><rect class="a" x="3.868" y="3.868" width="16.263" height="16.263" rx="1" ry="1" transform="translate(-4.971 12) rotate(-45)"/><polyline class="a" points="6.5 9 7.5 8 8.5 9"/><path class="a" d="M7.5,8v4l3.854,3.854a.5.5,0,0,1,.146.353V19"/><polyline class="a" points="18.5 14 17.5 15 16.5 14"/><path class="a" d="M15.5,8v2.293a.5.5,0,0,0,.146.353l1.708,1.708a.5.5,0,0,1,.146.353V15"/></svg>