<svg xmlns="http://www.w3.org/2000/svg" viewBox="0 0 24 24"><defs><style>.a{fill:none;stroke:#000;stroke-linecap:round;stroke-linejoin:round;}</style></defs><title>road-sign-lane-crossing-right_1</title><rect class="a" x="3.868" y="3.868" width="16.263" height="16.263" rx="1" ry="1" transform="translate(28.971 12) rotate(135)"/><path class="a" d="M12.5,10V7.5h-1l1.646-1.646a.5.5,0,0,1,.708,0L15.5,7.5h-1v3.25a.5.5,0,0,1-.2.4l-3.6,2.7a.5.5,0,0,0-.2.4V17a.5.5,0,0,1-.5.5H9a.5.5,0,0,1-.5-.5V13Z"/><path class="a" d="M7.5,9.5a.5.5,0,0,0,.8.4l1-.75a.5.5,0,0,0,.2-.4V8A.5.5,0,0,0,9,7.5H8a.5.5,0,0,0-.5.5Z"/><path class="a" d="M13.5,17a.5.5,0,0,0,.5.5h1a.5.5,0,0,0,.5-.5V14.5a.5.5,0,0,0-.8-.4l-1,.75a.5.5,0,0,0-.2.4Z"/></svg>