<svg xmlns="http://www.w3.org/2000/svg" viewBox="0 0 24 24"><defs><style>.a{fill:none;stroke:#000;stroke-linecap:round;stroke-linejoin:round;}</style></defs><title>road-sign-right-curve</title><rect class="a" x="3.868" y="3.868" width="16.263" height="16.263" rx="1" ry="1" transform="translate(12 -4.971) rotate(45)"/><path class="a" d="M12.536,7.5l-.958.957,2.336,2.336a2,2,0,0,1,.586,1.414V16a.5.5,0,0,1-.5.5H12a.5.5,0,0,1-.5-.5V13.036a1,1,0,0,0-.293-.708l-1.5-1.5-.25-.25-.957.958V8A.5.5,0,0,1,9,7.5Z"/></svg>