<svg xmlns="http://www.w3.org/2000/svg" viewBox="0 0 24 24"><defs><style>.a{fill:none;stroke:#000;stroke-linecap:round;stroke-linejoin:round;}</style></defs><title>room-service-give-plate-1</title><line class="a" x1="0.5" y1="15.5" x2="0.5" y2="23.5"/><path class="a" d="M15.5,22.5a3,3,0,0,0-3-3H8.75a3,3,0,0,0-3-3H.5v6Z"/><line class="a" x1="5.75" y1="19.5" x2="9.5" y2="19.5"/><path class="a" d="M2.707,12.5a.5.5,0,0,0-.353.854l1,1a.5.5,0,0,0,.353.146H20.293a.5.5,0,0,0,.354-.146l1-1a.5.5,0,0,0-.354-.854"/><line class="a" x1="0.5" y1="12.5" x2="23.5" y2="12.5"/><circle class="a" cx="12" cy="2" r="1.5"/><path class="a" d="M3,12.5a9,9,0,0,1,18,0"/></svg>