<svg id="Light" xmlns="http://www.w3.org/2000/svg" viewBox="0 0 24 24"><defs><style>.cls-1{fill:none;stroke:#000;stroke-linecap:round;stroke-linejoin:round;}</style></defs><title>safety-fire-exit</title><path class="cls-1" d="M23.492,1.992A8.07,8.07,0,0,0,20.419.553a.253.253,0,0,0-.271.365,6.323,6.323,0,0,1,.614,2.39c.006.112.006.224.006.336a6.234,6.234,0,0,1-.8,3.072,6.163,6.163,0,0,1-1.118-1.909.249.249,0,0,0-.4-.109,6.217,6.217,0,0,0-1.954,4.538c0,.112,0,.224.007.336a6.254,6.254,0,0,0,6.243,5.914,6.383,6.383,0,0,0,.75-.049"/><path class="cls-1" d="M23.492,11.105a3.011,3.011,0,0,1-.336.321,2.742,2.742,0,0,1,.336-3.065V8.155a4.942,4.942,0,0,0-3.381,4.625,2.643,2.643,0,0,0,2.631,2.706"/><circle class="cls-1" cx="4.508" cy="4.953" r="2.5"/><path class="cls-1" d="M10.086,11.576a2.466,2.466,0,0,1,1.529,1.434,1.5,1.5,0,0,0,2.254.672,1.553,1.553,0,0,0,.5-1.868A5.45,5.45,0,0,0,9.315,8.453H8.552A4.5,4.5,0,0,0,4.89,10.338l-.406.568a2.5,2.5,0,0,1-2.035,1.047H2.008a1.5,1.5,0,1,0,0,3h.446a5.491,5.491,0,0,0,4.471-2.3l.074-.1H7a2.857,2.857,0,0,1-.06,3.7l-.588.67a3.5,3.5,0,0,0-.843,2.278v2.76a1.5,1.5,0,1,0,3,0V19.388a.5.5,0,0,1,.683-.466l1.817.715a1.5,1.5,0,1,0,1.342-2.684l-1.567-.54.415-.472"/></svg>