<svg id="Light" xmlns="http://www.w3.org/2000/svg" viewBox="0 0 24 24"><defs><style>.cls-1{fill:none;stroke:#000;stroke-linecap:round;stroke-linejoin:round;}</style></defs><title>safety-danger-electricity</title><circle class="cls-1" cx="8.5" cy="11" r="2.5"/><path class="cls-1" d="M12.469,23.5l-.4-5.352,1.119-.18A4.5,4.5,0,0,0,16.9,12.719l-.453-2.488a1.5,1.5,0,0,0-2.951.537l.452,2.488a1.5,1.5,0,0,1-1.237,1.749L7.6,15.83A6.521,6.521,0,0,0,3.646,17.7L1.939,19.408a1.5,1.5,0,0,0,2.122,2.121l1.706-1.706a3.489,3.489,0,0,1,1.573-.9L6.969,23.5"/><path class="cls-1" d="M.5.5H16a.5.5,0,0,1,.5.5V3a.5.5,0,0,0,.5.5h6.5"/><path class="cls-1" d="M13,2.5l-1.974.4a.25.25,0,0,0-.107.44L13,5l-.809,2.427a.25.25,0,0,0,.349.3L16,6l1.789,1.341a.249.249,0,0,0,.358-.061L19,6"/></svg>