<svg xmlns="http://www.w3.org/2000/svg" viewBox="0 0 24 24"><defs><style>.a{fill:none;stroke:#000;stroke-linecap:round;stroke-linejoin:round;}</style></defs><title>safety-helmet-mine</title><line class="a" x1="7" y1="4.272" x2="7" y2="10.272"/><line class="a" x1="17" y1="4.272" x2="17" y2="10.272"/><path class="a" d="M21.5,13.272a9.5,9.5,0,0,0-19,0,1,1,0,0,0-1,1v1a1,1,0,0,0,1,1H4.929l.364,1.274a1,1,0,0,0,.961.726H17.746a1,1,0,0,0,.961-.726l.364-1.274H21.5a1,1,0,0,0,1-1v-1A1,1,0,0,0,21.5,13.272Z"/><circle class="a" cx="12" cy="12.272" r="3.5"/><line class="a" x1="4.5" y1="13.272" x2="8.645" y2="13.272"/><line class="a" x1="15.355" y1="13.272" x2="19.5" y2="13.272"/></svg>