<svg id="Light" xmlns="http://www.w3.org/2000/svg" viewBox="0 0 24 24"><defs><style>.cls-1{fill:none;stroke:#000;stroke-linecap:round;stroke-linejoin:round;}</style></defs><title>safety-fire</title><rect class="cls-1" x="0.5" y="0.5" width="23" height="23" rx="1" ry="1"/><rect class="cls-1" x="3.5" y="12.5" width="17" height="8" rx="0.5" ry="0.5"/><circle class="cls-1" cx="12" cy="16.5" r="2"/><polyline class="cls-1" points="18 15 16.5 16.5 18 18"/><line class="cls-1" x1="20.5" y1="16.5" x2="16.5" y2="16.5"/><polyline class="cls-1" points="6 15 7.5 16.5 6 18"/><line class="cls-1" x1="3.5" y1="16.5" x2="7.5" y2="16.5"/><path class="cls-1" d="M6.5,8.5v-4a1,1,0,0,1,1-1h1"/><line class="cls-1" x1="6.5" y1="6.5" x2="8" y2="6.5"/><line class="cls-1" x1="10.5" y1="8.5" x2="10.5" y2="3.5"/><line class="cls-1" x1="12.5" y1="8.5" x2="12.5" y2="3.5"/><path class="cls-1" d="M12.5,3.5h.75a1.25,1.25,0,0,1,0,2.5H12.5"/><line class="cls-1" x1="14.5" y1="8.5" x2="13" y2="6"/><path class="cls-1" d="M18.5,8.5h-1a1,1,0,0,1-1-1v-3a1,1,0,0,1,1-1h1"/><line class="cls-1" x1="16.5" y1="6.5" x2="18.5" y2="6.5"/></svg>