<svg id="Light" xmlns="http://www.w3.org/2000/svg" viewBox="0 0 24 24"><defs><style>.cls-1{fill:none;stroke:#000;stroke-linecap:round;stroke-linejoin:round;}</style></defs><title>safety-rocky-road</title><path class="cls-1" d="M14.251,23.5,15.9,21.854a.5.5,0,0,1,.707,0L18.251,23.5"/><circle class="cls-1" cx="18.394" cy="2.573" r="2.072"/><path class="cls-1" d="M20.547,10.9l-1.6-1A2.5,2.5,0,0,1,17.89,8.542l-.3-.948a4.5,4.5,0,0,0-2.464-2.743L13.88,4.3A5.519,5.519,0,0,0,8.9,4.569L6.936,5.705a1.5,1.5,0,0,0,1.5,2.6L10.4,7.165a2.515,2.515,0,0,1,2.267-.122l.255.113L8.249,11.014a1.493,1.493,0,0,0-.5.8l-.413,1.708a1.5,1.5,0,0,1-1.067,1.1l-2.408.65A1.5,1.5,0,0,0,2.8,17.112,1.516,1.516,0,0,0,4.64,18.168l2.407-.65a4.5,4.5,0,0,0,3.2-3.288l.295-1.222.042-.034,1.38,2.892a1.5,1.5,0,0,1-.313,1.727l-1.762,1.7a1.5,1.5,0,0,0,2.082,2.161l1.763-1.7a4.5,4.5,0,0,0,.938-5.178l-1.58-3.311a1.6,1.6,0,0,0-.146-.24l2.045-1.689.039.121a5.507,5.507,0,0,0,2.322,2.987l1.6,1A1.5,1.5,0,0,0,20.547,10.9Z"/></svg>