<svg id="Light" xmlns="http://www.w3.org/2000/svg" viewBox="0 0 24 24"><defs><style>.cls-1{fill:none;stroke:#000;stroke-linecap:round;stroke-linejoin:round;}</style></defs><title>safety-slippery</title><circle class="cls-1" cx="15.84" cy="3.847" r="2.072"/><line class="cls-1" x1="1.5" y1="23.012" x2="14.5" y2="23.012"/><path class="cls-1" d="M22.116,5.908A1.5,1.5,0,0,0,20,5.794L18.755,6.91a4.265,4.265,0,0,1-5.831-.125l-.732-.716a4.245,4.245,0,0,1-1.281-2.9l-.025-.731a1.5,1.5,0,0,0-3,.1l.025.731A7.228,7.228,0,0,0,10.1,8.214l.732.716a7.192,7.192,0,0,0,1.1.861l-.617,1.9-3.23-.424a5.584,5.584,0,0,0-2.131.127l-2.831.723a1.5,1.5,0,1,0,.742,2.906L6.687,14.3a2.616,2.616,0,0,1,1-.06l2.072.272L4.71,17.01A1.5,1.5,0,0,0,6.042,19.7L11.6,16.942a3.479,3.479,0,0,0,1.9-2.319l1.21-3.726c.08.013.16.031.239.041a7.288,7.288,0,0,0,5.8-1.8L22,8.026A1.5,1.5,0,0,0,22.116,5.908Z"/></svg>