<svg id="Light" xmlns="http://www.w3.org/2000/svg" viewBox="0 0 24 24"><defs><style>.cls-1{fill:none;stroke:#000;stroke-linecap:round;stroke-linejoin:round;}</style></defs><title>safety-danger-mudslide</title><path class="cls-1" d="M2.25.5l1.494.6A2,2,0,0,1,4.962,2.562l.7,3.472a1.992,1.992,0,0,0,.386.84l8.4,10.737a2,2,0,0,1,.392.875l.7,3.835a1,1,0,0,1-.984,1.179H2.25"/><path class="cls-1" d="M17.1,5.379a.5.5,0,0,0-.482-.131l-1.859.492a.5.5,0,0,0-.355.353l-.5,1.855a.5.5,0,0,0,.128.483L15.386,9.8a.5.5,0,0,0,.483.131l1.858-.492a.5.5,0,0,0,.355-.352l.5-1.856a.5.5,0,0,0-.127-.483Z"/><path class="cls-1" d="M16.7,13.705a.5.5,0,0,0-.482-.131l-.758.2a.5.5,0,0,0-.355.353l-.205.756a.5.5,0,0,0,.128.484l.552.556a.5.5,0,0,0,.483.131l.758-.2a.5.5,0,0,0,.355-.352l.205-.757a.5.5,0,0,0-.128-.483Z"/><path class="cls-1" d="M11.2,5.577a.5.5,0,0,0-.482-.131l-.758.2A.5.5,0,0,0,9.608,6L9.4,6.756a.5.5,0,0,0,.128.483l.552.556a.5.5,0,0,0,.483.131l.758-.2a.5.5,0,0,0,.355-.353l.205-.756a.5.5,0,0,0-.128-.484Z"/><path class="cls-1" d="M21.683,22.3a.5.5,0,0,0,0-.5l-.548-.948a.5.5,0,0,0-.433-.25h-1.1a.5.5,0,0,0-.433.25l-.548.948a.5.5,0,0,0,0,.5l.548.949a.5.5,0,0,0,.433.25h1.1a.5.5,0,0,0,.433-.25Z"/><path class="cls-1" d="M12.077,2a.25.25,0,1,1-.25.25.25.25,0,0,1,.25-.25"/><path class="cls-1" d="M20.827,11.75a.25.25,0,1,1-.25.25.25.25,0,0,1,.25-.25"/><path class="cls-1" d="M20.327,16.5a.25.25,0,1,1-.25.25.25.25,0,0,1,.25-.25"/></svg>