<svg id="Light" xmlns="http://www.w3.org/2000/svg" viewBox="0 0 24 24"><defs><style>.cls-1{fill:none;stroke:#000;stroke-linecap:round;stroke-linejoin:round;}</style></defs><title>safety-fire-alarm</title><path class="cls-1" d="M4.5.5A.5.5,0,0,0,4,1V2a3.111,3.111,0,0,0,.186.964L5.814,7.036A.8.8,0,0,0,6.5,7.5h11a.8.8,0,0,0,.686-.464l1.628-4.072A3.111,3.111,0,0,0,20,2V1a.5.5,0,0,0-.5-.5Z"/><line class="cls-1" x1="4.8" y1="4.5" x2="19.2" y2="4.5"/><line class="cls-1" x1="12" y1="4.5" x2="12" y2="7.5"/><line class="cls-1" x1="15.5" y1="4.5" x2="15" y2="7.5"/><line class="cls-1" x1="8.5" y1="4.5" x2="9" y2="7.5"/><path class="cls-1" d="M7.05,23.5l.822-1.439a2.688,2.688,0,0,0-.721-3.485,2.688,2.688,0,0,1-.574-3.713L7.55,13.5"/><path class="cls-1" d="M11.9,23.5l.822-1.439A2.688,2.688,0,0,0,12,18.576a2.688,2.688,0,0,1-.575-3.713L12.4,13.5"/><path class="cls-1" d="M16.747,23.5l.823-1.439a2.688,2.688,0,0,0-.721-3.485,2.687,2.687,0,0,1-.575-3.713l.973-1.363"/><path class="cls-1" d="M17,7.5c0,1.381-2,3-5,3s-5-1.619-5-3"/></svg>