<svg id="Light" xmlns="http://www.w3.org/2000/svg" viewBox="0 0 24 24"><defs><style>.cls-1{fill:none;stroke:#000;stroke-linecap:round;stroke-linejoin:round;}</style></defs><title>safety-danger-cliff</title><circle class="cls-1" cx="17.742" cy="3" r="2"/><path class="cls-1" d="M21.876,11.886l-.365-1.069A5.111,5.111,0,0,0,19.14,7.989a14.448,14.448,0,0,0-1.606-.759L16,6.615a2.409,2.409,0,0,1-.386-.2l-.11-.069A9.966,9.966,0,0,1,12.3,3.11l-.073-.119A1.36,1.36,0,1,0,9.9,4.408l.073.119a12.694,12.694,0,0,0,4.082,4.13l.109.068c.016.01.035.016.052.027l-.875,2.19-2.809.237A5.07,5.07,0,0,0,8.67,11.7L6.3,12.89A1.36,1.36,0,0,0,7.52,15.321l2.369-1.186a2.376,2.376,0,0,1,.873-.246l.376-.032L8.684,16.762a1.36,1.36,0,1,0,2.077,1.755l4.178-4.945a5.087,5.087,0,0,0,.845-1.408l.927-2.32a11.36,11.36,0,0,1,1.115.527A2.4,2.4,0,0,1,18.937,11.7l.365,1.07a1.361,1.361,0,0,0,1.4.915,1.344,1.344,0,0,0,.326-.068A1.36,1.36,0,0,0,21.876,11.886Z"/><path class="cls-1" d="M2.051,18h3.5a.5.5,0,0,1,.5.5V23"/></svg>