<svg id="Light" xmlns="http://www.w3.org/2000/svg" viewBox="0 0 24 24"><defs><style>.cls-1{fill:none;stroke:#000;stroke-linecap:round;stroke-linejoin:round;}</style></defs><title>safety-vest</title><path class="cls-1" d="M4.5,2.5a2,2,0,0,1,2-2h11a2,2,0,0,1,2,2V6.1c0,2.243,1,4.485,3.2,4.923a1,1,0,0,1,.8.98V22.5a1,1,0,0,1-1,1H1.5a1,1,0,0,1-1-1V12a1,1,0,0,1,.8-.979C3.5,10.578,4.5,8.312,4.5,6.1Z"/><rect class="cls-1" x="4.5" y="13.5" width="2" height="8"/><rect class="cls-1" x="17.5" y="13.5" width="2" height="8"/><line class="cls-1" x1="0.5" y1="15.5" x2="4.5" y2="15.5"/><line class="cls-1" x1="19.5" y1="15.5" x2="23.5" y2="15.5"/><line class="cls-1" x1="6.5" y1="15.5" x2="17.5" y2="15.5"/><line class="cls-1" x1="0.5" y1="19.5" x2="4.5" y2="19.5"/><line class="cls-1" x1="19.5" y1="19.5" x2="23.5" y2="19.5"/><line class="cls-1" x1="6.5" y1="19.5" x2="17.5" y2="19.5"/><path class="cls-1" d="M8.5.5V6a3.5,3.5,0,0,0,7,0V.5"/></svg>