<svg id="Light" xmlns="http://www.w3.org/2000/svg" viewBox="0 0 24 24"><defs><style>.cls-1{fill:none;stroke:#000;stroke-linecap:round;stroke-linejoin:round;}</style></defs><title>sailing-boat-person</title><line class="cls-1" x1="3.501" y1="6.5" x2="16.501" y2="6.5"/><line class="cls-1" x1="3.501" y1="3.5" x2="20.501" y2="3.5"/><line class="cls-1" x1="3.501" y1="0.5" x2="20.501" y2="0.5"/><path class="cls-1" d="M22.939,20.971,22.5,19,1.063,17.051a.5.5,0,0,0-.545.531,6.57,6.57,0,0,0,1.189,3.4"/><path class="cls-1" d="M16.5,18.455V17a1,1,0,0,1,1-1h3a1,1,0,0,1,1,1v1.909"/><circle class="cls-1" cx="10.501" cy="14" r="2"/><line class="cls-1" x1="3.813" y1="17.301" x2="6.501" y2="13"/><path class="cls-1" d="M23.5,23.388c-2.5.521-4.06-1.979-4.06-1.979h0a4.4,4.4,0,0,1-3.621,2.056A3.822,3.822,0,0,1,12.5,21.409h0a5.282,5.282,0,0,1-3.922,2.056A4.6,4.6,0,0,1,4.96,21.409h0s-2,2.542-4.455,2.02"/></svg>