<svg id="Light" xmlns="http://www.w3.org/2000/svg" viewBox="0 0 24 24"><defs><style>.cls-1{fill:none;stroke:#000;stroke-linecap:round;stroke-linejoin:round;}</style></defs><title>sailing-boat-1</title><path class="cls-1" d="M2.482,21.256a.5.5,0,0,1,.384-.821H21.134a.5.5,0,0,1,.448.724l-1,2a.5.5,0,0,1-.448.276H7.943S4.307,23.435,2.482,21.256Z"/><path class="cls-1" d="M17.943,20.435v-11c0-4.1-1.176-7.6-2.14-8.7a.5.5,0,0,0-.676-.069A31.5,31.5,0,0,0,4.443,15.935s4.5,1.5,13.5,1.5"/><line class="cls-1" x1="6.699" y1="10.557" x2="17.943" y2="15.935"/><line class="cls-1" x1="9.421" y1="6.403" x2="17.94" y2="10.477"/></svg>