<svg id="Light" xmlns="http://www.w3.org/2000/svg" viewBox="0 0 24 24"><defs><style>.cls-1{fill:none;stroke:#000;stroke-linecap:round;stroke-linejoin:round;}</style></defs><title>sailing-boat-water-1</title><path class="cls-1" d="M23.5,22.915c-2.5.52-4.06-1.98-4.06-1.98h0a4.4,4.4,0,0,1-3.621,2.057A4.607,4.607,0,0,1,12.2,20.935h0a4.4,4.4,0,0,1-3.62,2.057A4.607,4.607,0,0,1,4.96,20.935h0s-2,2.542-4.455,2.021"/><path class="cls-1" d="M12.5,18.027A39.678,39.678,0,0,0,9.144,1.26a.5.5,0,0,0-.94.1l-.09.406C7.153,6.1,5.826,10.051,2.859,13.186a.5.5,0,0,0,.362.843l9.117.022"/><path class="cls-1" d="M21.5,20.027l.638-1.277a.5.5,0,0,0-.447-.723H2.435a.5.5,0,0,0-.416.777l.482.723"/><path class="cls-1" d="M10.615,5.07s6.451,2.77,8.679,9.3a.5.5,0,0,1-.473.662H12.409"/></svg>