<svg xmlns="http://www.w3.org/2000/svg" viewBox="0 0 24 24"><defs><style>.a{fill:none;stroke:#000;stroke-linecap:round;stroke-linejoin:round;}</style></defs><title>sauna-heat-stone</title><path class="a" d="M22,15a3.869,3.869,0,0,1,1,2.5c0,3.314-4.925,6-11,6s-11-2.686-11-6A3.868,3.868,0,0,1,2,15"/><path class="a" d="M7.307,2A4.975,4.975,0,0,0,5.693,5.226c0,2.016,1.614,4.032,1.614,6.049A4.975,4.975,0,0,1,5.693,14.5"/><path class="a" d="M18.307,2a4.978,4.978,0,0,0-1.614,3.226c0,2.016,1.614,4.033,1.614,6.049A4.978,4.978,0,0,1,16.693,14.5"/><path class="a" d="M13,.5a6.17,6.17,0,0,0-2,4c0,2.5,2,5,2,7.5a6.172,6.172,0,0,1-2,4"/></svg>