<svg xmlns="http://www.w3.org/2000/svg" viewBox="0 0 24 24"><defs><style>.a{fill:none;stroke:#000;stroke-linecap:round;stroke-linejoin:round;}</style></defs><title>sauna-heat-1</title><path class="a" d="M20,.745a2.93,2.93,0,0,0-.646,1.678c0,1.048.646,2.1.646,3.144a2.927,2.927,0,0,1-.646,1.678"/><path class="a" d="M17,.745a2.93,2.93,0,0,0-.646,1.678c0,1.048.646,2.1.646,3.144a2.927,2.927,0,0,1-.646,1.678"/><path class="a" d="M23,.745a2.93,2.93,0,0,0-.646,1.678c0,1.048.646,2.1.646,3.144a2.927,2.927,0,0,1-.646,1.678"/><path class="a" d="M19,11.836v10.41a1,1,0,0,1-1,1H6a1,1,0,0,1-1-1V11.836"/><path class="a" d="M15,23.246v-9.5a.5.5,0,0,0-.5-.5h-5a.5.5,0,0,0-.5.5v9.5"/><line class="a" x1="13" y1="16.246" x2="13" y2="18.246"/><polyline class="a" points="23 14.745 12 6.745 1 14.745"/></svg>