<svg xmlns="http://www.w3.org/2000/svg" viewBox="0 0 24 24"><defs><style>.a{fill:none;stroke:#000;stroke-linecap:round;stroke-linejoin:round;}</style></defs><title>saving-bank-1</title><line class="a" x1="2.504" y1="19.433" x2="2.504" y2="11.433"/><line class="a" x1="1.504" y1="19.433" x2="6.504" y2="19.433"/><line class="a" x1="0.504" y1="23.433" x2="23.504" y2="23.433"/><line class="a" x1="0.504" y1="21.433" x2="23.504" y2="21.433"/><line class="a" x1="1.504" y1="11.433" x2="6.504" y2="11.433"/><line class="a" x1="9.504" y1="19.433" x2="14.504" y2="19.433"/><line class="a" x1="9.504" y1="11.433" x2="14.504" y2="11.433"/><line class="a" x1="5.504" y1="19.433" x2="5.504" y2="11.433"/><line class="a" x1="10.504" y1="19.433" x2="10.504" y2="11.433"/><line class="a" x1="13.504" y1="19.433" x2="13.504" y2="11.433"/><line class="a" x1="17.504" y1="19.433" x2="22.504" y2="19.433"/><line class="a" x1="17.504" y1="11.433" x2="22.504" y2="11.433"/><line class="a" x1="18.504" y1="19.433" x2="18.504" y2="11.433"/><line class="a" x1="21.504" y1="19.433" x2="21.504" y2="11.433"/><path class="a" d="M1.65,8.538a.5.5,0,0,0,.307.895h20.1a.5.5,0,0,0,.309-.894L12.343.674a.5.5,0,0,0-.616,0Z"/></svg>