<svg xmlns="http://www.w3.org/2000/svg" viewBox="0 0 24 24"><defs><style>.a{fill:none;stroke:#000;stroke-linecap:round;stroke-linejoin:round;}</style></defs><title>saving-dog-guard-decrease</title><path class="a" d="M10.009,20.125a2.75,2.75,0,0,1,.057.563,2.813,2.813,0,0,1-5.625,0,2.75,2.75,0,0,1,.058-.563l1.164-3.937a1.687,1.687,0,0,1,3.183,0Z"/><path class="a" d="M5.566,16.75a5.385,5.385,0,0,0,1.688.562,5.376,5.376,0,0,0,1.687-.562"/><path class="a" d="M7.254,17.312v2.25a1.21,1.21,0,0,0,1.125,1.126h1.687"/><path class="a" d="M7.254,19.562a1.211,1.211,0,0,1-1.125,1.126H4.441"/><path class="a" d="M11.752,12.657a5.258,5.258,0,0,1,1.265,1.282,5.228,5.228,0,0,1-.167,6.186,14.9,14.9,0,0,1-3.418,2.342"/><path class="a" d="M12.879,13.749V11.688A1.8,1.8,0,0,0,11.191,10C10.066,10,9.5,11.688,9.5,11.688H5S4.441,10,3.316,10a1.8,1.8,0,0,0-1.687,1.688v1.989"/><path class="a" d="M4.91,22.243A18.649,18.649,0,0,1,2.1,20.684a5.233,5.233,0,0,1,.65-8.065"/><path class="a" d="M2,.5,6.312,4.808a2,2,0,0,0,1.663.571L14,4.626a2,2,0,0,1,1.7.611L23.5,13.5"/><polyline class="a" points="18.004 13.5 23.504 13.5 23.504 8"/><path class="a" d="M4.441,14.25a.25.25,0,1,1-.25.25.25.25,0,0,1,.25-.25"/><path class="a" d="M10.066,14.25a.25.25,0,1,0,.25.25.25.25,0,0,0-.25-.25"/></svg>