<svg xmlns="http://www.w3.org/2000/svg" viewBox="0 0 24 24"><defs><style>.a{fill:none;stroke:#000;stroke-linecap:round;stroke-linejoin:round;}</style></defs><title>saving-safe-1</title><rect class="a" x="0.504" y="1" width="23" height="20" rx="1" ry="1"/><path class="a" d="M19,8.492a2.5,2.5,0,1,1-5,0,2.5,2.5,0,0,1,5,0Z"/><path class="a" d="M16.5,8.25a.25.25,0,1,0,.25.25.25.25,0,0,0-.25-.25h0"/><rect class="a" x="3.504" y="4" width="18" height="14" rx="1" ry="1"/><polyline class="a" points="2.504 21 2.504 23 5.504 23 5.504 21"/><polyline class="a" points="18.504 21 18.504 23 21.504 23 21.504 21"/><path class="a" d="M15,12.75a.25.25,0,1,1-.25.25.25.25,0,0,1,.25-.25"/><path class="a" d="M18,12.75a.25.25,0,1,1-.25.25.25.25,0,0,1,.25-.25"/><path class="a" d="M15,15.25a.25.25,0,1,1-.25.25.25.25,0,0,1,.25-.25"/><path class="a" d="M18,15.25a.25.25,0,1,1-.25.25.25.25,0,0,1,.25-.25"/></svg>