<svg xmlns="http://www.w3.org/2000/svg" viewBox="0 0 24 24"><defs><style>.a{fill:none;stroke:#000;stroke-linecap:round;stroke-linejoin:round;}</style></defs><title>school-exam-a</title><path class="a" d="M13.638,23.5H5a1,1,0,0,1-1-1V1.5a1,1,0,0,1,1-1H19a1,1,0,0,1,1,1V18.032a1,1,0,0,1-.36.768l-5.362,4.468A1,1,0,0,1,13.638,23.5Z"/><path class="a" d="M14,23.431V19.5a1,1,0,0,1,1-1h4.883"/><line class="a" x1="6" y1="13.5" x2="16" y2="13.5"/><line class="a" x1="6" y1="17.5" x2="12" y2="17.5"/><path class="a" d="M14,9.5V5a1.5,1.5,0,0,1,3,0V9.5"/><line class="a" x1="14" y1="6.5" x2="17" y2="6.5"/></svg>