<svg xmlns="http://www.w3.org/2000/svg" viewBox="0 0 24 24"><defs><style>.a{fill:none;stroke:#000;stroke-linecap:round;stroke-linejoin:round;}</style></defs><title>school-locker-closed</title><path class="a" d="M8.5.5h-6a1,1,0,0,0-1,1v21a1,1,0,0,0,1,1h6Z"/><rect class="a" x="8.5" y="0.5" width="7" height="23"/><path class="a" d="M22.5,1.5a1,1,0,0,0-1-1h-6v23h6a1,1,0,0,0,1-1Z"/><line class="a" x1="11" y1="3" x2="13" y2="3"/><line class="a" x1="11" y1="5" x2="13" y2="5"/><line class="a" x1="11" y1="7" x2="13" y2="7"/><line class="a" x1="11" y1="18.5" x2="13" y2="18.5"/><line class="a" x1="11" y1="20.5" x2="13" y2="20.5"/><line class="a" x1="18" y1="3" x2="20" y2="3"/><line class="a" x1="18" y1="5" x2="20" y2="5"/><line class="a" x1="18" y1="7" x2="20" y2="7"/><line class="a" x1="18" y1="18.5" x2="20" y2="18.5"/><line class="a" x1="18" y1="20.5" x2="20" y2="20.5"/><line class="a" x1="4" y1="3" x2="6" y2="3"/><line class="a" x1="4" y1="5" x2="6" y2="5"/><line class="a" x1="4" y1="7" x2="6" y2="7"/><line class="a" x1="4" y1="18.5" x2="6" y2="18.5"/><line class="a" x1="4" y1="20.5" x2="6" y2="20.5"/><path class="a" d="M3.75,10.75A.25.25,0,0,1,4,11"/><path class="a" d="M3.5,11a.25.25,0,0,1,.25-.25"/><path class="a" d="M3.75,11.25A.25.25,0,0,1,3.5,11"/><path class="a" d="M4,11a.25.25,0,0,1-.25.25"/><path class="a" d="M10.75,10.75A.25.25,0,0,1,11,11"/><path class="a" d="M10.5,11a.25.25,0,0,1,.25-.25"/><path class="a" d="M10.75,11.25A.25.25,0,0,1,10.5,11"/><path class="a" d="M11,11a.25.25,0,0,1-.25.25"/><path class="a" d="M17.75,10.75A.25.25,0,0,1,18,11"/><path class="a" d="M17.5,11a.25.25,0,0,1,.25-.25"/><path class="a" d="M17.75,11.25A.25.25,0,0,1,17.5,11"/><path class="a" d="M18,11a.25.25,0,0,1-.25.25"/></svg>