<svg xmlns="http://www.w3.org/2000/svg" viewBox="0 0 24 24"><defs><style>.a{fill:none;stroke:#000;stroke-linecap:round;stroke-linejoin:round;}</style></defs><title>school-locker-2</title><rect class="a" x="1.5" y="1.5" width="21" height="21" rx="1" ry="1"/><line class="a" x1="8.5" y1="1.5" x2="8.5" y2="22.5"/><line class="a" x1="15.5" y1="1.5" x2="15.5" y2="22.5"/><line class="a" x1="3.5" y1="4.5" x2="6.5" y2="4.5"/><line class="a" x1="3.5" y1="6.5" x2="6.5" y2="6.5"/><line class="a" x1="3.5" y1="8.5" x2="6.5" y2="8.5"/><line class="a" x1="3.5" y1="19.5" x2="6.5" y2="19.5"/><line class="a" x1="3.5" y1="17.5" x2="6.5" y2="17.5"/><line class="a" x1="10.5" y1="4.5" x2="13.5" y2="4.5"/><line class="a" x1="10.5" y1="6.5" x2="13.5" y2="6.5"/><line class="a" x1="10.5" y1="8.5" x2="13.5" y2="8.5"/><line class="a" x1="10.5" y1="19.5" x2="13.5" y2="19.5"/><line class="a" x1="10.5" y1="17.5" x2="13.5" y2="17.5"/><line class="a" x1="15.5" y1="10" x2="22.5" y2="10"/><path class="a" d="M22.5,16H19a.5.5,0,0,0-.5.5v6"/><line class="a" x1="20.5" y1="16" x2="20.5" y2="14.5"/><path class="a" d="M18.5,10V7a.5.5,0,0,0-.5-.5H15.5"/></svg>