<svg xmlns="http://www.w3.org/2000/svg" viewBox="0 0 24 24"><defs><style>.a{fill:none;stroke:#000;stroke-linecap:round;stroke-linejoin:round;}</style></defs><title>school-teacher</title><line class="a" x1="2.5" y1="17.5" x2="2.5" y2="14.5"/><line class="a" x1="8.5" y1="17.5" x2="8.5" y2="14.5"/><line class="a" x1="2.5" y1="17.5" x2="8.5" y2="17.5"/><line class="a" x1="5.5" y1="23.5" x2="5.5" y2="19.5"/><line class="a" x1="5.5" y1="9" x2="5.5" y2="14"/><path class="a" d="M8,23.5l.5-6h2V14a5,5,0,0,0-10,0v3.5h2l.5,6Z"/><circle class="a" cx="5.5" cy="4" r="3.5"/><path class="a" d="M2.4,2.378A5.977,5.977,0,0,0,6.5,4a5.981,5.981,0,0,0,2.461-.526"/><path class="a" d="M13.5,17.5h8a2,2,0,0,0,2-2V2.5a2,2,0,0,0-2-2H10"/></svg>