<svg xmlns="http://www.w3.org/2000/svg" viewBox="0 0 24 24"><defs><style>.a{fill:none;stroke:#000;stroke-linecap:round;stroke-linejoin:round;}</style></defs><title>school-bag</title><path class="a" d="M8.5,3.5h7a4,4,0,0,1,4,4v16a0,0,0,0,1,0,0H4.5a0,0,0,0,1,0,0V7.5A4,4,0,0,1,8.5,3.5Z"/><path class="a" d="M9,3.5a3,3,0,0,1,6,0"/><path class="a" d="M4.5,23.5h-1a2,2,0,0,1-2-2v-5a2,2,0,0,1,2-2h1"/><path class="a" d="M19.5,14.5h1a2,2,0,0,1,2,2v5a2,2,0,0,1-2,2h-1"/><rect class="a" x="6.5" y="13.5" width="11" height="8" rx="2" ry="2"/><line class="a" x1="6.5" y1="16.5" x2="17.5" y2="16.5"/><line class="a" x1="14.5" y1="16.5" x2="14.5" y2="18"/><path class="a" d="M1.5,17.5h3"/><path class="a" d="M19.5,17.5h3"/></svg>