<svg xmlns="http://www.w3.org/2000/svg" viewBox="0 0 24 24"><defs><style>.a{fill:none;stroke:#000;stroke-linecap:round;stroke-linejoin:round;}</style></defs><title>school-locker</title><path class="a" d="M1.5,2.757h17a0,0,0,0,1,0,0v19a1,1,0,0,1-1,1H1.5a1,1,0,0,1-1-1v-18A1,1,0,0,1,1.5,2.757Z"/><path class="a" d="M9.5,2.757v20"/><line class="a" x1="0.5" y1="12.757" x2="18.5" y2="12.757"/><path class="a" d="M18.5,2.757l3.629-1.451a1,1,0,0,1,1.371.929V13.28a1,1,0,0,1-1.371.929L18.5,12.757"/><line class="a" x1="7.5" y1="5.257" x2="7.5" y2="8.257"/><path class="a" d="M7.5,10.007a.25.25,0,0,1,.25.25"/><path class="a" d="M7.25,10.257a.25.25,0,0,1,.25-.25"/><path class="a" d="M7.5,10.507a.249.249,0,0,1-.25-.25"/><path class="a" d="M7.75,10.257a.249.249,0,0,1-.25.25"/><line class="a" x1="7.5" y1="15.257" x2="7.5" y2="18.257"/><path class="a" d="M7.5,20.007a.25.25,0,0,1,.25.25"/><path class="a" d="M7.25,20.257a.25.25,0,0,1,.25-.25"/><path class="a" d="M7.5,20.507a.249.249,0,0,1-.25-.25"/><path class="a" d="M7.75,20.257a.249.249,0,0,1-.25.25"/><line class="a" x1="16.5" y1="15.257" x2="16.5" y2="18.257"/><path class="a" d="M16.5,20.007a.25.25,0,0,1,.25.25"/><path class="a" d="M16.25,20.257a.25.25,0,0,1,.25-.25"/><path class="a" d="M16.5,20.507a.249.249,0,0,1-.25-.25"/><path class="a" d="M16.75,20.257a.249.249,0,0,1-.25.25"/><line class="a" x1="9.5" y1="4.757" x2="18.5" y2="4.757"/><path class="a" d="M9.5,6.757H11a.5.5,0,0,1,.5.5v5.5"/><path class="a" d="M11.5,7.257a.5.5,0,0,1,.5-.5h1a.5.5,0,0,1,.5.5v5.5"/><path class="a" d="M16.722,12.757,13.771,8.178a.5.5,0,0,1,.149-.691l.841-.542a.5.5,0,0,1,.691.149L18.5,11.845"/></svg>