<svg xmlns="http://www.w3.org/2000/svg" viewBox="0 0 24 24"><defs><style>.a{fill:none;stroke:#000;stroke-linecap:round;stroke-linejoin:round;}</style></defs><title>science-axis</title><line class="a" x1="1" y1="19.5" x2="23" y2="19.5"/><line class="a" x1="12" y1="23.5" x2="12" y2="0.5"/><polyline class="a" points="20.5 17 23 19.5 20.5 22"/><polyline class="a" points="9.5 3 12 0.5 14.5 3"/><polyline class="a" points="17.5 5.5 20 3 22.5 5.5"/><polyline class="a" points="1.5 5.5 4 3 6.5 5.5"/><polyline class="a" points="3.5 22 1 19.5 3.5 17"/><path class="a" d="M4,3s2,16.5,8,16.5S20,3,20,3"/><line class="a" x1="11" y1="5.5" x2="13" y2="5.5"/><line class="a" x1="11" y1="10.5" x2="13" y2="10.5"/><line class="a" x1="11" y1="15.5" x2="13" y2="15.5"/></svg>