<svg xmlns="http://www.w3.org/2000/svg" viewBox="0 0 24 24"><defs><style>.a{fill:none;stroke:#000;stroke-linecap:round;stroke-linejoin:round;}</style></defs><title>science-black-hole</title><path class="a" d="M9.843,6.343a8,8,0,1,1,0,11.314"/><ellipse class="a" cx="10.25" cy="12" rx="2.75" ry="4"/><path class="a" d="M13.676,8h.644a5,5,0,0,1,2.236.528L23.5,12"/><line class="a" x1="0.5" y1="8" x2="6.676" y2="8"/><path class="a" d="M13.676,16h.644a5,5,0,0,0,2.236-.528L23.5,12"/><line class="a" x1="0.5" y1="16" x2="6.676" y2="16"/><line class="a" x1="9.5" y1="12" x2="23.5" y2="12"/><polyline class="a" points="2 6.5 3.5 8 2 9.5"/><polyline class="a" points="3.5 10.5 5 12 3.5 13.5"/><polyline class="a" points="2 14.5 3.5 16 2 17.5"/><line class="a" x1="0.5" y1="11.995" x2="5.5" y2="11.995"/></svg>