<svg xmlns="http://www.w3.org/2000/svg" viewBox="0 0 24 24"><defs><style>.a{fill:none;stroke:#000;stroke-linecap:round;stroke-linejoin:round;}</style></defs><title>science-perspective</title><path class="a" d="M14.973,12.5h5.165a1,1,0,0,1,.984.821l1.636,9a1,1,0,0,1-.983,1.179H2.226a1,1,0,0,1-.976-1.222l2.046-9a1,1,0,0,1,.975-.778h4.7"/><path class="a" d="M15.473,1.5h4.245a1,1,0,0,1,.962.725l1.429,5A1,1,0,0,1,21.147,8.5H2.892A1,1,0,0,1,1.95,7.164l1.786-5A1,1,0,0,1,4.678,1.5h3.8"/><path class="a" d="M7.971,8.5c1,0,1,1.5,1,2V13a5,5,0,0,1-3.247,4.684,1,1,0,0,0-.039,1.862,18.168,18.168,0,0,0,6.286.954,18.172,18.172,0,0,0,6.286-.954,1,1,0,0,0-.039-1.862A5,5,0,0,1,14.973,13V10.5c0-.5,0-2,1-2"/><line class="a" x1="11.973" y1="8.5" x2="11.973" y2="22"/><path class="a" d="M17.473,5c0,.553-2.463,1-5.5,1s-5.5-.447-5.5-1"/><path class="a" d="M15.643,15.5c0,.553-1.738,1-3.67,1s-3.67-.447-3.67-1"/><path class="a" d="M14.973,11.5c0,.553-1.343,1-3,1s-3-.447-3-1"/><line class="a" x1="11.973" y1="6" x2="11.973" y2="0.5"/><polyline class="a" points="9.973 2.5 11.973 0.5 13.973 2.5"/></svg>