<svg xmlns="http://www.w3.org/2000/svg" viewBox="0 0 24 24"><defs><style>.a{fill:none;stroke:#000;stroke-linecap:round;stroke-linejoin:round;}</style></defs><title>science-fiction-alien</title><path class="a" d="M18,12.5a6,6,0,0,0-12,0v9.093a1.907,1.907,0,0,0,3.774.389l.427-2.046a1.8,1.8,0,0,1,3.538.029l.372,1.943A1.962,1.962,0,0,0,18,21.538Z"/><line class="a" x1="12" y1="6.5" x2="12" y2="3.5"/><circle class="a" cx="12" cy="2" r="1.5"/><line class="a" x1="15.204" y1="7.427" x2="16.219" y2="4.519"/><path class="a" d="M18.189,3.805A1.5,1.5,0,1,1,17.506,1.8,1.5,1.5,0,0,1,18.189,3.805Z"/><line class="a" x1="8.816" y1="7.414" x2="7.819" y2="4.488"/><path class="a" d="M5.811,3.805A1.5,1.5,0,1,0,6.494,1.8,1.5,1.5,0,0,0,5.811,3.805Z"/><circle class="a" cx="12" cy="12" r="3.5"/><circle class="a" cx="12" cy="12" r="1"/></svg>