<svg xmlns="http://www.w3.org/2000/svg" viewBox="0 0 24 24"><defs><style>.a{fill:none;stroke:#000;stroke-linecap:round;stroke-linejoin:round;}</style></defs><title>science-elecricity-power</title><path class="a" d="M6.471,19h11a1,1,0,0,1,1,1v2.5a.5.5,0,0,1-.5.5h-12a.5.5,0,0,1-.5-.5V20A1,1,0,0,1,6.471,19Z"/><path class="a" d="M17.971,2.5a1.5,1.5,0,0,1-1.5,1.5h-9a1.5,1.5,0,0,1,0-3h9A1.5,1.5,0,0,1,17.971,2.5Z"/><line class="a" x1="9.971" y1="10" x2="13.971" y2="10"/><line class="a" x1="9.971" y1="7" x2="13.971" y2="7"/><line class="a" x1="9.971" y1="13" x2="13.971" y2="13"/><line class="a" x1="9.971" y1="16" x2="13.971" y2="16"/><path class="a" d="M4.471,5,1.121,9.188a.5.5,0,0,0,.39.812h1.96v3.5L6.893,8.794A.5.5,0,0,0,6.489,8H4.471Z"/><path class="a" d="M20.471,6l-3.35,4.188a.5.5,0,0,0,.39.812h1.96v3.5l3.422-4.706a.5.5,0,0,0-.4-.794H20.471Z"/><line class="a" x1="15.971" y1="19" x2="17.971" y2="15"/><line class="a" x1="7.971" y1="19" x2="5.971" y2="15"/></svg>