<svg xmlns="http://www.w3.org/2000/svg" viewBox="0 0 24 24"><defs><style>.a{fill:none;stroke:#000;stroke-linecap:round;stroke-linejoin:round;}</style></defs><title>science-fiction-weapon</title><path class="a" d="M20.272,12.66h-4.7l.993,4.386a5.954,5.954,0,0,1-.553,3.686l-.191.334c-.137.239-.024.434.251.434h7a.325.325,0,0,0,.326-.469l-3.464-9.294A6.867,6.867,0,0,1,22.572,3.66c-2.942-2.524-11-.421-11,1.5v7.5l.368,1.1a2.97,2.97,0,0,0,2.632,1.9h1.664"/><circle class="a" cx="2.073" cy="7.66" r="1.5"/><line class="a" x1="9.573" y1="3.16" x2="9.573" y2="12.16"/><line class="a" x1="7.573" y1="4.16" x2="7.573" y2="11.16"/><line class="a" x1="5.573" y1="5.16" x2="5.573" y2="10.16"/><line class="a" x1="15.572" y1="12.66" x2="11.572" y2="12.66"/><line class="a" x1="3.573" y1="7.66" x2="11.573" y2="7.66"/><rect class="a" x="13.572" y="6.66" width="4" height="2" rx="0.5" ry="0.5"/></svg>