<svg xmlns="http://www.w3.org/2000/svg" viewBox="0 0 24 24"><defs><style>.a{fill:none;stroke:#000;stroke-linecap:round;stroke-linejoin:round;}</style></defs><title>scooter</title><path class="a" d="M8.5,17a3,3,0,0,1-6,0"/><path class="a" d="M17.3,12.5h2.2a3.775,3.775,0,0,1,4,3.5H14.8"/><path class="a" d="M11.5,11a1,1,0,0,1-1,1h-7L1.646,10.145A.5.5,0,0,1,1.5,9.792V9.5A.5.5,0,0,1,2,9h9a.5.5,0,0,1,.5.5Z"/><path class="a" d="M19.5,8.915a.5.5,0,0,1-.667.471,2,2,0,0,1,0-3.772.5.5,0,0,1,.667.471Z"/><path class="a" d="M14.5,4H16a1.5,1.5,0,0,1,1.5,1.5V11a6,6,0,0,1-6,6H.5a5,5,0,0,1,5-5H8a5,5,0,0,1,4.972,4.469l.02.343"/><path class="a" d="M16.674,16A3,3,0,1,0,22.5,17a2.941,2.941,0,0,0-.175-1"/></svg>