<svg xmlns="http://www.w3.org/2000/svg" viewBox="0 0 24 24"><defs><style>.a{fill:none;stroke:#000;stroke-linecap:round;stroke-linejoin:round;}</style></defs><title>sea-transport-submarine</title><path class="a" d="M20.5,15a6,6,0,0,1-6,6h-8a6,6,0,0,1,0-12h8A6,6,0,0,1,20.5,15Z"/><line class="a" x1="22.5" y1="20" x2="22.5" y2="14"/><line class="a" x1="0.842" y1="17" x2="23.5" y2="17"/><path class="a" d="M9.5,7V5a2,2,0,0,0-2-2H6"/><circle class="a" cx="5" cy="13.5" r="1.5"/><circle class="a" cx="10" cy="13.5" r="1.5"/><circle class="a" cx="15" cy="13.5" r="1.5"/><path class="a" d="M12.5,9V7.5A.5.5,0,0,0,12,7H8a.5.5,0,0,0-.5.5V9"/></svg>