<svg id="Light" xmlns="http://www.w3.org/2000/svg" viewBox="0 0 24 24"><defs><style>.cls-1{fill:none;stroke:#000;stroke-linecap:round;stroke-linejoin:round;}</style></defs><title>seafood-fish</title><path class="cls-1" d="M22.856,1.128c.916.917,1.548,7.991-3.16,12.7A17.347,17.347,0,0,1,8.585,18.571L5.412,15.4A17.614,17.614,0,0,1,10.17,4.3C14.828-.358,21.939.211,22.856,1.128Z"/><path class="cls-1" d="M8.585,18.571l-2.1,4.309a1.121,1.121,0,0,1-2.03-.052l-.869-2.1L1.137,19.56a1.121,1.121,0,0,1-.017-2.014L5.412,15.4Z"/><path class="cls-1" d="M20.963,12.338c-.009.255-.2,3.378-4.433,7.943a1.122,1.122,0,0,1-1.619.028l-2.37-2.392"/><path class="cls-1" d="M5.793,12.609,3.124,9.939A1.123,1.123,0,0,1,2.879,8.72C3.448,7.336,5.2,4.474,10,4.47"/><path class="cls-1" d="M17.272,4.266a1.121,1.121,0,1,1-1.585,0A1.121,1.121,0,0,1,17.272,4.266Z"/></svg>