<svg id="Light" xmlns="http://www.w3.org/2000/svg" viewBox="0 0 24 24"><defs><style>.cls-1{fill:none;stroke:#000;stroke-linecap:round;stroke-linejoin:round;}</style></defs><title>seafood-sushi</title><path class="cls-1" d="M3.5,17c0,2.209,1.791,3.5,4,3.5h9c2.209,0,4-1.291,4-3.5"/><path class="cls-1" d="M12,11.5a13.453,13.453,0,0,1,9.775,4.192,1,1,0,0,0,1.725-.686,11.5,11.5,0,1,0-23,0,1,1,0,0,0,1.725.686A13.453,13.453,0,0,1,12,11.5Z"/><line class="cls-1" x1="4.309" y1="13.905" x2="9.028" y2="3.886"/><line class="cls-1" x1="11.436" y1="11.512" x2="15.022" y2="3.899"/><line class="cls-1" x1="16.992" y1="12.454" x2="19.784" y2="6.526"/></svg>