<svg id="Light" xmlns="http://www.w3.org/2000/svg" viewBox="0 0 24 24"><defs><style>.cls-1{fill:none;stroke:#000;stroke-linecap:round;stroke-linejoin:round;}</style></defs><title>seahorse</title><path class="cls-1" d="M11.523,18.5a6.277,6.277,0,0,1-2-5c0-3.5,1.5-4.92,1.5-5.92s-.5-2-1.5-2h-4.5v-2a13.991,13.991,0,0,0,3-.5c2-.5,1.5-2,4.5-2.5a4.7,4.7,0,0,1,4.5,1.5,8.167,8.167,0,0,0-2,5.5c0,3.5.5,4.92.5,9.42s-2,6.5-5.5,6.5c-5,0-4-4.5-2-4.5"/><path class="cls-1" d="M12.273,3a.25.25,0,0,1,.25.25"/><path class="cls-1" d="M12.023,3.25a.25.25,0,0,1,.25-.25"/><path class="cls-1" d="M12.273,3.5a.25.25,0,0,1-.25-.25"/><path class="cls-1" d="M12.523,3.25a.25.25,0,0,1-.25.25"/><path class="cls-1" d="M15.117,10.124S17.023,8.5,18.023,8.5s1.291,4.709.5,5.5c-.5.5-3.158-1.033-3.158-1.033"/><line class="cls-1" x1="15.235" y1="11.5" x2="17.023" y2="11.5"/></svg>