<svg xmlns="http://www.w3.org/2000/svg" viewBox="0 0 24 24"><defs><style>.a{fill:none;stroke:#000;stroke-linecap:round;stroke-linejoin:round;}</style></defs><title>search-engine-yahoo</title><path class="a" d="M19.026,8.5h2.191l.888-2H13.184l.345,2h2.454l-4.129,3.635C11.012,10.971,9.037,8.507,7.66,6.5H10.5v-2H.5v2H3.539c1.18.923,5.961,7.159,5.961,7.159V17.5s-2.625.525-3.113.559L6.219,19.5H15.5l1.041-1.441L13.5,17.5V13.629Z"/><path class="a" d="M20.519,16.888,21.9,17l1.6-6.2c-.268-.01-2.666-.24-2.981-.3Z"/><polyline class="a" points="20.62 18.529 20.625 19.431 21.489 19.5 21.62 18.617 20.62 18.529"/></svg>