<svg id="Light" xmlns="http://www.w3.org/2000/svg" viewBox="0 0 24 24"><defs><style>.cls-1{fill:none;stroke:#000;stroke-linecap:round;stroke-linejoin:round;}</style></defs><title>seasoning-pepper</title><path class="cls-1" d="M10.5,22.45A1,1,0,0,1,9.494,23.5H1.505a1,1,0,0,1-1-1.05c.183-3.66,1.347-8.95,5-8.95S10.316,18.79,10.5,22.45Z"/><path class="cls-1" d="M22.5,15.5a2.151,2.151,0,0,0-2-2h-6a2.151,2.151,0,0,0-2,2v7a1,1,0,0,0,1,1h8a1,1,0,0,0,1-1Z"/><rect class="cls-1" x="14.5" y="8.5" width="6" height="5"/><path class="cls-1" d="M21.5,5.5h-8v2a1.075,1.075,0,0,0,1,1h6a1.075,1.075,0,0,0,1-1Z"/><path class="cls-1" d="M23.5,4A1.5,1.5,0,0,0,22,2.5H13A1.5,1.5,0,0,0,11.5,4h0A1.5,1.5,0,0,0,13,5.5h9A1.5,1.5,0,0,0,23.5,4Z"/><line class="cls-1" x1="17.5" y1="2.5" x2="17.5" y2="0.5"/><path class="cls-1" d="M4.25,16a.25.25,0,1,1-.25.25A.25.25,0,0,1,4.25,16"/><path class="cls-1" d="M6.75,16a.25.25,0,1,1-.25.25A.25.25,0,0,1,6.75,16"/><line class="cls-1" x1="16.5" y1="0.5" x2="18.5" y2="0.5"/></svg>