<svg id="Light" xmlns="http://www.w3.org/2000/svg" viewBox="0 0 24 24"><defs><style>.cls-1{fill:none;stroke:#000;stroke-linecap:round;stroke-linejoin:round;}</style></defs><title>seasoning-pepper-ground</title><path class="cls-1" d="M18,21.5a2.151,2.151,0,0,0-2-2H8a2.151,2.151,0,0,0-2,2v1a1,1,0,0,0,1,1H17a1,1,0,0,0,1-1Z"/><path class="cls-1" d="M16,5.5V7.654a1.989,1.989,0,0,1-.115.666,10.314,10.314,0,0,0,0,8.36,1.989,1.989,0,0,1,.115.666V19.5"/><path class="cls-1" d="M8,5.5V7.654a1.989,1.989,0,0,0,.115.666,10.314,10.314,0,0,1,0,8.36A1.989,1.989,0,0,0,8,17.346V19.5"/><path class="cls-1" d="M18,4a1.5,1.5,0,0,0-1.5-1.5h-9A1.5,1.5,0,0,0,6,4H6A1.5,1.5,0,0,0,7.5,5.5h9A1.5,1.5,0,0,0,18,4Z"/><circle class="cls-1" cx="12" cy="1.5" r="1"/><line class="cls-1" x1="8" y1="7.5" x2="16" y2="7.5"/><line class="cls-1" x1="8" y1="17.5" x2="16" y2="17.5"/></svg>