<svg id="Light" xmlns="http://www.w3.org/2000/svg" viewBox="0 0 24 24"><defs><style>.cls-1{fill:none;stroke:#000;stroke-linecap:round;stroke-linejoin:round;}</style></defs><title>season-autumn</title><path class="cls-1" d="M22.266,13.515A.5.5,0,0,1,22.98,14c-.159,2.259-.986,8.127-5.28,8.127a3.682,3.682,0,1,1,0-7.363A11.668,11.668,0,0,0,22.266,13.515Z"/><path class="cls-1" d="M14.018,23.357a8.4,8.4,0,0,1,4.909-5.728"/><path class="cls-1" d="M12.063,23.357V17.6a9.589,9.589,0,0,1-6.831,1.1.5.5,0,0,1-.146-.924l2.477-1.415C1.123,14.639.95,8.5,1.03,6.8A.5.5,0,0,1,1.5,6.321,8.687,8.687,0,0,1,8.563,8.857a15.619,15.619,0,0,1,2.6-8.01.5.5,0,0,1,.8,0,15.612,15.612,0,0,1,2.6,8.01,8.688,8.688,0,0,1,7.065-2.536A.5.5,0,0,1,22.1,6.8a11.133,11.133,0,0,1-.951,5.064"/></svg>