<svg id="Light" xmlns="http://www.w3.org/2000/svg" viewBox="0 0 24 24"><defs><style>.cls-1{fill:none;stroke:#000;stroke-linecap:round;stroke-linejoin:round;}</style></defs><title>seat-child</title><circle class="cls-1" cx="9" cy="3" r="2.5"/><circle class="cls-1" cx="15" cy="5" r="2"/><path class="cls-1" d="M16.62,23.5c-.041,0-.082,0-.122,0a1.5,1.5,0,0,1-1.493-1.38l-.335-4.181a.493.493,0,0,0-.5-.439H11.751a3.512,3.512,0,0,1-3.469-3.036L7.515,9.217a1.5,1.5,0,0,1,2.969-.433l.769,5.265a.506.506,0,0,0,.5.452h2.423a3.483,3.483,0,0,1,3.485,3.184l.336,4.2A1.5,1.5,0,0,1,16.62,23.5Z"/><path class="cls-1" d="M17,9H14.653a1,1,0,0,0-.989,1.142l.214,1.5a1,1,0,0,0,.99.859h1.5a2,2,0,0,1,1.715.971L19,15"/><path class="cls-1" d="M12.5,19.5H8.584a2,2,0,0,1-1.947-1.542L5,11"/></svg>