<svg xmlns="http://www.w3.org/2000/svg" viewBox="0 0 24 24"><defs><style>.a{fill:none;stroke:#000;stroke-linecap:round;stroke-linejoin:round;}</style></defs><title>security-officer-scanner-beep</title><path class="a" d="M18.5,5.5H5.5v-1a2,2,0,0,1,2-2h9a2,2,0,0,1,2,2Z"/><line class="a" x1="18.501" y1="5.5" x2="18.501" y2="23.5"/><line class="a" x1="5.501" y1="5.5" x2="5.501" y2="23.5"/><line class="a" x1="20.521" y1="15" x2="23.479" y2="15"/><line class="a" x1="20.501" y1="11.313" x2="23.146" y2="10.126"/><line class="a" x1="20.501" y1="18.646" x2="23.146" y2="19.834"/><line class="a" x1="3.479" y1="15" x2="0.521" y2="15"/><line class="a" x1="3.501" y1="11.313" x2="0.854" y2="10.126"/><line class="a" x1="3.501" y1="18.646" x2="0.854" y2="19.834"/><path class="a" d="M13.5,2.5V1A.5.5,0,0,0,13,.5H11a.5.5,0,0,0-.5.5V2.5"/><circle class="a" cx="12.021" cy="9.75" r="2.25"/><path class="a" d="M12.021,13a3,3,0,0,0-3,3v2.5h1.5l.5,4.5h2l.5-4.5h1.5V16A3,3,0,0,0,12.021,13Z"/></svg>