<svg xmlns="http://www.w3.org/2000/svg" viewBox="0 0 24 24"><defs><style>.a{fill:none;stroke:#000;stroke-linecap:round;stroke-linejoin:round;}</style></defs><title>security-officer-animal</title><path class="a" d="M18.01,6a2.5,2.5,0,1,0,3.978,0Z"/><path class="a" d="M22,6H17.5L16.38,3.388a.5.5,0,0,1,.564-.686l5.424,1.162a.5.5,0,0,1,.343.712Z"/><line class="a" x1="17.499" y1="6" x2="15.499" y2="7"/><path class="a" d="M16.5,23V16.857l-2.766,3.5a1.5,1.5,0,1,1-2.467-1.707l4.5-6A1.5,1.5,0,0,1,17.037,12h1.179a.5.5,0,0,1,.429.243l.926,1.543a.5.5,0,0,0,.858,0l.925-1.543A.5.5,0,0,1,21.783,12H22.5a2.978,2.978,0,0,1,1,.171"/><line class="a" x1="23.5" y1="23" x2="0.5" y2="23"/><path class="a" d="M8.5,18.5,4.575,17.192a.5.5,0,0,0-.647.367A2.307,2.307,0,0,1,1.5,19.5V14H6.264a2,2,0,0,0,1.789-1.1L9.5,10,12.132,12.2A1.021,1.021,0,0,1,11.479,14H10.5Z"/><line class="a" x1="1.5" y1="17.5" x2="1.5" y2="23"/><line class="a" x1="8.5" y1="18.5" x2="8.5" y2="23"/><line class="a" x1="1.5" y1="14" x2="0.5" y2="11.5"/><line class="a" x1="9.5" y1="10" x2="10" y2="9"/><path class="a" d="M1.8,8a.5.5,0,0,1-.335-.872L5.5,3.5v-1a1.5,1.5,0,0,1,3,0V4S8.5,8,5,8Z"/><line class="a" x1="3.5" y1="8" x2="3.5" y2="9.5"/><line class="a" x1="5.5" y1="8" x2="5.5" y2="9.5"/><line class="a" x1="8.5" y1="3" x2="10" y2="3"/></svg>