<svg xmlns="http://www.w3.org/2000/svg" viewBox="0 0 24 24"><defs><style>.a{fill:none;stroke:#000;stroke-linecap:round;stroke-linejoin:round;}</style></defs><title>security-officer-luggage-check</title><line class="a" x1="20.5" y1="23" x2="20.5" y2="20.5"/><path class="a" d="M16.011,6a2.5,2.5,0,1,0,3.978,0Z"/><path class="a" d="M20,6H15.5L14.381,3.388a.5.5,0,0,1,.564-.686l5.424,1.162a.5.5,0,0,1,.342.713Z"/><line class="a" x1="15.5" y1="6" x2="13.5" y2="7"/><path class="a" d="M9.751,18l4.015-5.354A1.5,1.5,0,0,1,15.037,12H16.5L18,14.5,19.5,12h1a3,3,0,0,1,3,3v5.5a1.5,1.5,0,0,1-3,0v-5"/><polyline class="a" points="14.5 23 14.5 16.857 13.2 18.5"/><path class="a" d="M12.5,21a2,2,0,0,1-2,2h-6a2,2,0,0,1-2-2V20H12a.5.5,0,0,1,.5.5Z"/><path class="a" d="M3.5,13v7h-1a2,2,0,0,1-2-2V12"/><path class="a" d="M10.5,6a5,5,0,1,1-5-5"/><path class="a" d="M3.5,5.5,5.12,6.715a.5.5,0,0,0,.684-.08L10.5,1"/></svg>