<svg xmlns="http://www.w3.org/2000/svg" viewBox="0 0 24 24"><defs><style>.a{fill:none;stroke:#000;stroke-linecap:round;stroke-linejoin:round;}</style></defs><title>segway-1</title><line class="a" x1="11" y1="5.5" x2="11" y2="21.5"/><line class="a" x1="13" y1="5.5" x2="13" y2="21.5"/><path class="a" d="M11,11.5H8.639a2,2,0,0,0-1.961,1.608l-1.2,6A2,2,0,0,0,7.439,21.5H16.56a2,2,0,0,0,1.961-2.392l-1.2-6A2,2,0,0,0,15.36,11.5H13"/><path class="a" d="M23,21.5a2,2,0,0,1-4,0v-6a2,2,0,0,1,4,0Z"/><path class="a" d="M5,21.5a2,2,0,0,1-4,0v-6a2,2,0,0,1,4,0Z"/><rect class="a" x="7" y="0.5" width="10" height="5" rx="2" ry="2"/><path class="a" d="M16.727,1.5H21a1,1,0,0,1,0,2H17"/><path class="a" d="M7,3.5H3a1,1,0,0,1,0-2H7.269"/></svg>