<svg xmlns="http://www.w3.org/2000/svg" viewBox="0 0 24 24"><defs><style>.a{fill:none;stroke:#000;stroke-linecap:round;stroke-linejoin:round;}</style></defs><title>seo-search-star</title><path class="a" d="M15.541,2.831A9,9,0,0,1,5.506,17.582"/><polyline class="a" points="0.691 16.248 3.52 16.248 3.52 13.419"/><polyline class="a" points="18.369 2.813 15.541 2.813 15.541 5.641"/><path class="a" d="M3.52,16.229A9,9,0,0,1,13.486,1.444"/><path class="a" d="M10.248,4.889,11.53,7.53h2.5a.613.613,0,0,1,.431,1.07l-2.166,2.262,1.2,2.761a.654.654,0,0,1-.931.819l-2.9-1.634-2.9,1.634a.654.654,0,0,1-.931-.819l1.2-2.761L4.863,8.6a.613.613,0,0,1,.428-1.07h2.5L9.072,4.889A.661.661,0,0,1,10.248,4.889Z"/><line class="a" x1="15.894" y1="15.894" x2="17.373" y2="17.373"/><path class="a" d="M23.03,20.909a1.5,1.5,0,0,1-2.121,2.121l-4.243-4.242a.5.5,0,0,1,0-.707l1.415-1.415a.5.5,0,0,1,.707,0Z"/></svg>