<svg xmlns="http://www.w3.org/2000/svg" viewBox="0 0 24 24"><defs><style>.a{fill:none;stroke:#000;stroke-linecap:round;stroke-linejoin:round;}</style></defs><title>seo-search-laptop</title><line class="a" x1="8.293" y1="20.25" x2="12.293" y2="20.25"/><circle class="a" cx="17.293" cy="10.25" r="4"/><polyline class="a" points="12.793 14.25 6.293 14.25 6.293 12.25 11.793 12.25"/><line class="a" x1="19.876" y1="13.333" x2="23.293" y2="16.75"/><line class="a" x1="17.293" y1="3.75" x2="17.293" y2="1.75"/><line class="a" x1="13.793" y1="4.25" x2="12.793" y2="3.25"/><line class="a" x1="20.793" y1="4.25" x2="21.793" y2="3.25"/><path class="a" d="M11.293,9.25h-7a1,1,0,0,0-1,1v8h14v-2"/><path class="a" d="M19.586,20.543a1,1,0,0,1-.707,1.707H1.707A1,1,0,0,1,1,20.543L3.293,18.25h14Z"/></svg>