<svg xmlns="http://www.w3.org/2000/svg" viewBox="0 0 24 24"><defs><style>.a{fill:none;stroke:#000;stroke-linecap:round;stroke-linejoin:round;}</style></defs><title>seo-search-eye</title><circle class="a" cx="11.5" cy="11.5" r="8"/><line class="a" x1="17.157" y1="17.157" x2="23.5" y2="23.5"/><circle class="a" cx="11.5" cy="11.5" r="3"/><path class="a" d="M11.5,14.5a7.522,7.522,0,0,1-5.752-2.679.5.5,0,0,1,0-.641A7.526,7.526,0,0,1,11.5,8.5"/><path class="a" d="M11.5,14.5a7.526,7.526,0,0,0,5.754-2.679.5.5,0,0,0,0-.641A7.522,7.522,0,0,0,11.5,8.5"/><path class="a" d="M20.748,17.46A11,11,0,1,0,.5,11.5a10.933,10.933,0,0,0,2.091,6.434L1.6,21.4l3.466-.99a10.976,10.976,0,0,0,12.429.314"/></svg>