<svg xmlns="http://www.w3.org/2000/svg" viewBox="0 0 24 24"><defs><style>.a{fill:none;stroke:#000;stroke-linecap:round;stroke-linejoin:round;}</style></defs><title>seo-network-map</title><path class="a" d="M9.543.511a3,3,0,0,1,3,3c0,1.267-1.756,4.108-2.581,5.372a.5.5,0,0,1-.838,0C8.3,7.618,6.543,4.778,6.543,3.511A3,3,0,0,1,9.543.511Z"/><path class="a" d="M9.543,3.261a.25.25,0,1,1-.25.25.25.25,0,0,1,.25-.25"/><path class="a" d="M13.6,22.544a9,9,0,0,1-8.56-15.83"/><path class="a" d="M14.032,6.708a9.043,9.043,0,0,1,3.576,3.8"/><path class="a" d="M.6,13.511H4.715a2,2,0,0,1,1.414.585l1,1a2,2,0,0,1,0,2.829l-1,1a2,2,0,0,0-.586,1.414v2.236"/><path class="a" d="M17.608,10.511H13.043a2,2,0,0,0-2,2,1.978,1.978,0,0,0,.226.923"/><circle class="a" cx="17.137" cy="17.04" r="4.529"/><line class="a" x1="23.608" y1="23.511" x2="20.36" y2="20.263"/></svg>