<svg xmlns="http://www.w3.org/2000/svg" viewBox="0 0 24 24"><defs><style>.a{fill:none;stroke:#000;stroke-linecap:round;stroke-linejoin:round;}</style></defs><title>seo-search-graph-first-place</title><polyline class="a" points="0.5 2.5 0.5 19.5 9.822 19.5"/><path class="a" d="M6.5,19.5h-3V6A.5.5,0,0,1,4,5.5H6a.5.5,0,0,1,.5.5Z"/><path class="a" d="M8.5,19.5V11a.5.5,0,0,1,.5-.5h2a.5.5,0,0,1,.5.5v2"/><polyline class="a" points="15.983 16 17.5 15 17.5 19"/><line class="a" x1="2" y1="2" x2="3" y2="3"/><line class="a" x1="5" y1="0.5" x2="5" y2="2"/><line class="a" x1="8" y1="2" x2="7" y2="3"/><circle class="a" cx="17.029" cy="17.029" r="4.529"/><line class="a" x1="23.5" y1="23.5" x2="20.252" y2="20.252"/><line class="a" x1="16.5" y1="19" x2="18.5" y2="19"/></svg>