<svg xmlns="http://www.w3.org/2000/svg" viewBox="0 0 24 24"><defs><style>.a{fill:none;stroke:#000;stroke-linecap:round;stroke-linejoin:round;}</style></defs><title>shape-cube</title><line class="a" x1="2.294" y1="21.706" x2="8" y2="16"/><path class="a" d="M7.293,2.707A2.782,2.782,0,0,1,9,2H21a1,1,0,0,1,1,1V15a2.782,2.782,0,0,1-.707,1.707l-4.586,4.586A2.782,2.782,0,0,1,15,22H3a1,1,0,0,1-1-1V9a2.782,2.782,0,0,1,.707-1.707Z"/><polyline class="a" points="21.755 16 8 16 8 2.245"/><polyline class="a" points="16 21.755 16 8 21.706 2.294"/><line class="a" x1="16" y1="8.001" x2="2.244" y2="8.001"/></svg>