<svg id="Light" xmlns="http://www.w3.org/2000/svg" viewBox="0 0 24 24"><defs><style>.cls-1{fill:none;stroke:#000;stroke-linecap:round;stroke-linejoin:round;}</style></defs><title>shark</title><path class="cls-1" d="M5.87,11.5a.25.25,0,0,1,.25.25"/><path class="cls-1" d="M5.62,11.75a.25.25,0,0,1,.25-.25"/><path class="cls-1" d="M5.87,12a.25.25,0,0,1-.25-.25"/><path class="cls-1" d="M6.12,11.75a.25.25,0,0,1-.25.25"/><path class="cls-1" d="M9.37,11.75a2.415,2.415,0,0,1,0,2"/><path class="cls-1" d="M11.37,11.75a2.415,2.415,0,0,1,0,2"/><path class="cls-1" d="M23.5,8.3c-1.272.643-3.2,1.806-3.564,3.211A15.813,15.813,0,0,0,12.962,9.33l.408-4.08A7.087,7.087,0,0,0,9.015,9.329C5.308,9.574,2.644,10.47.5,12.25c1.5,1.75,2,2.25,6.218,2L5.577,15.805a25.6,25.6,0,0,0,4.8.432A5.594,5.594,0,0,0,14.37,18.75a17.473,17.473,0,0,1-.43-2.675,15.1,15.1,0,0,0,6-2.088c.364,1.4,2.292,2.568,3.564,3.211A13.4,13.4,0,0,1,23.5,8.3Z"/></svg>