<svg id="Light" xmlns="http://www.w3.org/2000/svg" viewBox="0 0 24 24"><defs><style>.cls-1{fill:none;stroke:#000;stroke-linecap:round;stroke-linejoin:round;}</style></defs><title>shellfish-lobster</title><path class="cls-1" d="M15,12.074c0-3.037-2-5.5-3-5.5s-3,2.463-3,5.5v2.5a6.338,6.338,0,0,1,3-1,6.338,6.338,0,0,1,3,1Z"/><path class="cls-1" d="M9.5,14.286s.5,8.788,2.5,8.788S14.5,14.3,14.5,14.3"/><path class="cls-1" d="M10.32,20.251S7.912,22.682,8.5,23.074a2.658,2.658,0,0,0,3-.2"/><path class="cls-1" d="M13.681,20.251s2.407,2.431,1.819,2.823a2.657,2.657,0,0,1-3-.2"/><path class="cls-1" d="M10,16.574a5.172,5.172,0,0,1,2-.5,5.172,5.172,0,0,1,2,.5"/><path class="cls-1" d="M10.5,19.574a3.169,3.169,0,0,1,1.5-.5,3.169,3.169,0,0,1,1.5.5"/><path class="cls-1" d="M15,12.074s1.5,1,2.5,0"/><path class="cls-1" d="M15,14.074s1.5,1,2.5,0"/><path class="cls-1" d="M14.35,16.074s1.65,1,2.65,0"/><path class="cls-1" d="M9,12.074s-1.5,1-2.5,0"/><path class="cls-1" d="M9,14.074s-1.5,1-2.5,0"/><path class="cls-1" d="M9.651,16.074s-1.651,1-2.651,0"/><path class="cls-1" d="M13,7.074l1-2s6,2,7,10"/><path class="cls-1" d="M20,4.574l-1-1,1-1-2-1.5s2.853-1.745,4.5,1c1.5,2.5,0,6-1.5,7"/><path class="cls-1" d="M18,1.074a3.75,3.75,0,0,0-1.5,3"/><path class="cls-1" d="M14.551,9.574a10.32,10.32,0,0,0,2.949.5"/><path class="cls-1" d="M11,7.074l-1-2s-6,2-7,10"/><path class="cls-1" d="M4,4.574l1-1-1-1,2-1.5s-2.853-1.745-4.5,1c-1.5,2.5,0,6,1.5,7"/><path class="cls-1" d="M6,1.074a3.75,3.75,0,0,1,1.5,3"/><path class="cls-1" d="M9.449,9.574a10.32,10.32,0,0,1-2.949.5"/><path class="cls-1" d="M13.25,11.074a.25.25,0,0,1,.25.25"/><path class="cls-1" d="M13,11.324a.25.25,0,0,1,.25-.25"/><path class="cls-1" d="M13.25,11.574a.25.25,0,0,1-.25-.25"/><path class="cls-1" d="M13.5,11.324a.25.25,0,0,1-.25.25"/><path class="cls-1" d="M10.75,11.074a.25.25,0,0,1,.25.25"/><path class="cls-1" d="M10.5,11.324a.25.25,0,0,1,.25-.25"/><path class="cls-1" d="M10.75,11.574a.25.25,0,0,1-.25-.25"/><path class="cls-1" d="M11,11.324a.25.25,0,0,1-.25.25"/></svg>