<svg id="Light" xmlns="http://www.w3.org/2000/svg" viewBox="0 0 24 24"><defs><style>.cls-1{fill:none;stroke:#000;stroke-linecap:round;stroke-linejoin:round;}</style></defs><title>shelf-drawers</title><rect class="cls-1" x="2.5" y="14.5" width="19" height="8" rx="1" ry="1"/><line class="cls-1" x1="4.5" y1="22.5" x2="4.5" y2="23.5"/><line class="cls-1" x1="19.5" y1="22.5" x2="19.5" y2="23.5"/><line class="cls-1" x1="12" y1="14.5" x2="12" y2="22.5"/><line class="cls-1" x1="20.5" y1="8.5" x2="20.5" y2="5.346"/><line class="cls-1" x1="3.5" y1="5.346" x2="3.5" y2="8.5"/><line class="cls-1" x1="20.5" y1="14.5" x2="20.5" y2="10.346"/><line class="cls-1" x1="3.5" y1="10.346" x2="3.5" y2="14.5"/><line class="cls-1" x1="3.5" y1="0.5" x2="3.5" y2="3.5"/><line class="cls-1" x1="20.5" y1="3.5" x2="20.5" y2="0.5"/><path class="cls-1" d="M8.5,17.744a.25.25,0,1,1-.25.25.25.25,0,0,1,.25-.25"/><path class="cls-1" d="M15.5,17.744a.25.25,0,1,0,.25.25.25.25,0,0,0-.25-.25"/><path class="cls-1" d="M21.4,4.3a.5.5,0,0,0-.4-.8H3a.5.5,0,0,0-.4.8l.6.8a1.13,1.13,0,0,0,.8.4H20a1.13,1.13,0,0,0,.8-.4Z"/><path class="cls-1" d="M21.4,9.3a.5.5,0,0,0-.4-.8H3a.5.5,0,0,0-.4.8l.6.8a1.13,1.13,0,0,0,.8.4H20a1.13,1.13,0,0,0,.8-.4Z"/></svg>