<svg id="Light" xmlns="http://www.w3.org/2000/svg" viewBox="0 0 24 24"><defs><style>.cls-1{fill:none;stroke:#000;stroke-linecap:round;stroke-linejoin:round;}</style></defs><title>shellfish-shrimp</title><path class="cls-1" d="M7.6,23.5h5.5a9,9,0,0,0,8.981-9.6,9.2,9.2,0,0,0-9.289-8.4H2.4a.5.5,0,0,0-.448.724l.7,1.406A7,7,0,0,0,8.922,11.5H11.9a4.63,4.63,0,0,1,4.672,4.058A4.5,4.5,0,0,1,12.1,20.5H9.6Z"/><path class="cls-1" d="M8.345,7.5a.249.249,0,0,1,.25.25"/><path class="cls-1" d="M8.1,7.75a.25.25,0,0,1,.25-.25"/><path class="cls-1" d="M8.345,8a.25.25,0,0,1-.25-.25"/><path class="cls-1" d="M8.6,7.75a.249.249,0,0,1-.25.25"/><path class="cls-1" d="M8.1,5.5a1.5,1.5,0,0,1,0-3h5.5"/><path class="cls-1" d="M6.1,5.5a2.5,2.5,0,0,1,0-5h11"/><path class="cls-1" d="M9.6,20.5a4.307,4.307,0,0,0-2.5-4l-.5,4L2.6,22s1.5,1.5,5,1.5"/><path class="cls-1" d="M12.6,5.5a3.75,3.75,0,0,1,0,6"/><path class="cls-1" d="M21.325,10.9A4.715,4.715,0,0,1,19.6,14a4.131,4.131,0,0,1-3.3.4"/><path class="cls-1" d="M14.735,19.645s.633,2.529,2.133,3.029"/></svg>