<svg id="Light" xmlns="http://www.w3.org/2000/svg" viewBox="0 0 24 24"><defs><style>.cls-1{fill:none;stroke:#000;stroke-linecap:round;stroke-linejoin:round;}</style></defs><title>shell-sea-grass</title><path class="cls-1" d="M12.515,13.981a3.5,3.5,0,0,0,.491-1.481c0-1-1-2-1-3s1-2,1-3-1-2-1-3a6.338,6.338,0,0,0-1-3,4.273,4.273,0,0,0-1.5,3c0,1,1,2,1,3s-1,2-1,3,1,2,1,3a2.69,2.69,0,0,1-.31,1.111"/><path class="cls-1" d="M20.858,15.726A2.114,2.114,0,0,0,21.006,15c0-1-1-2-1-3s1-2,1-3-1-2-1-3a6.338,6.338,0,0,0-1-3,4.273,4.273,0,0,0-1.5,3c0,1,1,2,1,3s-1,2-1,3,1,2,1,3"/><path class="cls-1" d="M5.725,14.452A5.238,5.238,0,0,1,5.006,12.5c0-1,1-2,1-3s-1-2-1-3a6.338,6.338,0,0,0-1-3,4.273,4.273,0,0,0-1.5,3c0,1,1,2,1,3s-1,2-1,3,1,2,1,3a3.333,3.333,0,0,1-.457,1.415"/><path class="cls-1" d="M2.022,23.5a.5.5,0,0,1-.5-.532C1.8,18.6,5.492,16,10.006,16s8.207,2.594,8.483,6.968a.5.5,0,0,1-.5.532Z"/><path class="cls-1" d="M18.445,22.5h3.533a.5.5,0,0,0,.5-.556,5,5,0,0,0-6.69-4.14"/></svg>