<svg xmlns="http://www.w3.org/2000/svg" viewBox="0 0 24 24"><defs><style>.a{fill:none;stroke:#000;stroke-linecap:round;stroke-linejoin:round;}</style></defs><title>shipment-crane</title><path class="a" d="M5.838,13.933a1.9,1.9,0,0,1-1.875,2,2.168,2.168,0,0,1-2.187-2,1.914,1.914,0,0,1,1.812-2v-4.5"/><path class="a" d="M16.588,8.433l-.969,14.5a.465.465,0,0,0,.469.5h3a.465.465,0,0,0,.469-.5l-.969-14.5"/><path class="a" d="M14.588,5.433h-14l.776,1.553a.889.889,0,0,0,.724.447h12.5"/><path class="a" d="M14.588,2.933a.743.743,0,0,1,.474-.658L20.114.591a.339.339,0,0,1,.474.342v7a.5.5,0,0,1-.5.5h-5a.5.5,0,0,1-.5-.5Z"/><path class="a" d="M20.588,7.433h1.5a.889.889,0,0,0,.724-.447l.552-1.106a.284.284,0,0,0-.276-.447h-2.5"/><rect class="a" x="0.588" y="18.433" width="12" height="5" rx="0.5" ry="0.5"/><line class="a" x1="3.588" y1="18.433" x2="3.588" y2="23.433"/><line class="a" x1="6.588" y1="18.433" x2="6.588" y2="23.433"/><line class="a" x1="9.588" y1="18.433" x2="9.588" y2="23.433"/><path class="a" d="M14.588,4.433h3a.5.5,0,0,0,.5-.5V1.266"/></svg>