<svg xmlns="http://www.w3.org/2000/svg" viewBox="0 0 24 24"><defs><style>.a{fill:none;stroke:#000;stroke-linecap:round;stroke-linejoin:round;}</style></defs><title>shipment-question</title><circle class="a" cx="17.5" cy="17.5" r="6"/><path class="a" d="M15.625,16.042A1.875,1.875,0,1,1,17.5,17.917v1"/><path class="a" d="M17.5,20.917a.25.25,0,1,1-.25.25.25.25,0,0,1,.25-.25"/><path class="a" d="M8.5,15.5h-7a1,1,0,0,1-1-1V4.914a1,1,0,0,1,.293-.707L4.207.793A1,1,0,0,1,4.914.5h5.172a1,1,0,0,1,.707.293l3.414,3.414a1,1,0,0,1,.293.707V8.5"/><line class="a" x1="14.41" y1="4.5" x2="0.59" y2="4.5"/><line class="a" x1="7.5" y1="0.5" x2="7.5" y2="4.5"/></svg>