<svg xmlns="http://www.w3.org/2000/svg" viewBox="0 0 24 24"><defs><style>.a{fill:none;stroke:#000;stroke-linecap:round;stroke-linejoin:round;}</style></defs><title>shipment-weight-lb</title><circle class="a" cx="12" cy="3.5" r="3"/><path class="a" d="M23.5,20.5v2a1,1,0,0,1-1,1H1.5a1,1,0,0,1-1-1v-2L3.87,8.7A3.036,3.036,0,0,1,6.789,6.5h10.42a3.036,3.036,0,0,1,2.919,2.2Z"/><path class="a" d="M7.5,11.5V18A1.5,1.5,0,0,0,9,19.5h2.5"/><path class="a" d="M17,13.5a2,2,0,0,1-2,2H13.5v-4H15A2,2,0,0,1,17,13.5Z"/><path class="a" d="M17,17.5a2,2,0,0,1-2,2H13.5v-4H15A2,2,0,0,1,17,17.5Z"/></svg>