<svg xmlns="http://www.w3.org/2000/svg" viewBox="0 0 24 24"><defs><style>.a{fill:none;stroke:#000;stroke-linecap:round;stroke-linejoin:round;}</style></defs><title>shipment-previous</title><polyline class="a" points="16.749 11 12.249 14.5 16.749 18"/><path class="a" d="M12.249,14.5h3.5a6,6,0,0,1,6,6v2"/><path class="a" d="M8.25,16.5h-5a1,1,0,0,1-1-1V5.914a1,1,0,0,1,.293-.707L5.958,1.793A1,1,0,0,1,6.665,1.5h5.171a1,1,0,0,1,.707.293l3.415,3.414a1,1,0,0,1,.292.707V7.5"/><line class="a" x1="9.25" y1="1.5" x2="9.25" y2="5.5"/><line class="a" x1="16.16" y1="5.5" x2="2.34" y2="5.5"/></svg>