<svg xmlns="http://www.w3.org/2000/svg" viewBox="0 0 24 24"><defs><style>.a{fill:none;stroke:#000;stroke-linecap:round;stroke-linejoin:round;}</style></defs><title>shipment-truck-2</title><path class="a" d="M14.5,17V6h5a4,4,0,0,1,4,4v8a1,1,0,0,1-1,1h-1"/><circle class="a" cx="17.5" cy="19" r="2"/><circle class="a" cx="4.5" cy="19" r="2"/><path class="a" d="M14.5,16.5V15H1.5a1,1,0,0,0-1,1v1"/><path class="a" d="M23.5,12h-5a1,1,0,0,1-1-1V6"/><path class="a" d="M14.5,6V5.328a2,2,0,0,0-.586-1.414L13,3"/><line class="a" x1="13.5" y1="19" x2="9" y2="19"/><line class="a" x1="23.5" y1="16.5" x2="21.5" y2="16.5"/></svg>