<svg xmlns="http://www.w3.org/2000/svg" viewBox="0 0 24 24"><defs><style>.a{fill:none;stroke:#000;stroke-linecap:round;stroke-linejoin:round;}</style></defs><title>shipment-lift-1</title><polyline class="a" points="2 12.5 6.5 8.5 11 12.5"/><line class="a" x1="6.5" y1="8.5" x2="6.5" y2="2.5"/><line class="a" x1="1" y1="2.5" x2="15.5" y2="2.5"/><line class="a" x1="15.5" y1="23.5" x2="15.5" y2="0.5"/><line class="a" x1="19.5" y1="0.5" x2="19.5" y2="23.5"/><line class="a" x1="19.5" y1="4.5" x2="15.5" y2="8"/><line class="a" x1="15.5" y1="0.5" x2="19.5" y2="4.5"/><line class="a" x1="15.5" y1="8" x2="19.5" y2="11.5"/><line class="a" x1="19.5" y1="11.5" x2="15.5" y2="15"/><line class="a" x1="15.5" y1="15" x2="19.5" y2="18.5"/><line class="a" x1="19.5" y1="18.5" x2="15.5" y2="22"/><rect class="a" x="0.5" y="12.5" width="12" height="7" rx="1" ry="1"/><line class="a" x1="3.5" y1="14.5" x2="3.5" y2="17.5"/><line class="a" x1="6.5" y1="14.5" x2="6.5" y2="17.5"/><line class="a" x1="9.5" y1="14.5" x2="9.5" y2="17.5"/><rect class="a" x="21.5" y="7" width="2" height="4" rx="0.5" ry="0.5"/><line class="a" x1="22.5" y1="2.5" x2="22.5" y2="7"/><line class="a" x1="19.5" y1="2.5" x2="23.5" y2="2.5"/></svg>