<svg xmlns="http://www.w3.org/2000/svg" viewBox="0 0 24 24"><defs><style>.a{fill:none;stroke:#000;stroke-linecap:round;stroke-linejoin:round;}</style></defs><title>shipment-deliver</title><rect class="a" x="19.5" y="12.531" width="4" height="8" rx="0.5" ry="0.5"/><path class="a" d="M19.5,19.094c-10.5,3.5-7,3.5-19-2.5a2.758,2.758,0,0,1,3-1l4.317,1.367"/><path class="a" d="M19.5,13.531h-3c-2.353,0-4,2-4.5,2H8.5c-1,0-1,2,0,2H14"/><path class="a" d="M17.5,11.531v-8a1,1,0,0,0-1-1H4.5a1,1,0,0,0-1,1V13.594"/><path class="a" d="M7.5,2.531V9.475a.5.5,0,0,0,.817.387L10.5,8.073l2.183,1.789a.5.5,0,0,0,.817-.387V2.531"/></svg>