<svg xmlns="http://www.w3.org/2000/svg" viewBox="0 0 24 24"><defs><style>.a{fill:none;stroke:#000;stroke-linecap:round;stroke-linejoin:round;}</style></defs><title>shipment-plane</title><path class="a" d="M22.254,14.3a1.61,1.61,0,0,1,1.156,1.037,1.521,1.521,0,0,1,.089.513,1.591,1.591,0,0,1-.743,1.378L13.6,22.915a.563.563,0,0,1-.622-.018L9.615,20.54a.31.31,0,0,1-.047-.437.29.29,0,0,1,.053-.052l1.409-1.243a.31.31,0,0,1,.3-.051L13.1,19.809l2.24-1.563-4.245-2.628a.385.385,0,0,1-.043-.544.371.371,0,0,1,.061-.058l1.038-.769a.386.386,0,0,1,.364-.052l5.85,2.178,2.706-1.847A1.5,1.5,0,0,1,22.254,14.3Z"/><path class="a" d="M6.5,16h-5a1,1,0,0,1-1-1V5.414a1,1,0,0,1,.293-.707L4.207,1.293A1,1,0,0,1,4.914,1h5.172a1,1,0,0,1,.707.293l3.414,3.414a1,1,0,0,1,.293.707V7"/><line class="a" x1="7.5" y1="1" x2="7.5" y2="5"/><line class="a" x1="14.41" y1="5" x2="0.59" y2="5"/></svg>