<svg xmlns="http://www.w3.org/2000/svg" viewBox="0 0 24 24"><defs><style>.a{fill:none;stroke:#000;stroke-linecap:round;stroke-linejoin:round;}</style></defs><title>shipment-boat</title><path class="a" d="M23.47,21.527c-1.4,2.256-4.957,2.874-8.236-.292h0c-3.083,3.106-6.675,2.637-8.236.219"/><path class="a" d="M10.531,21.583l-1.2-2.8a.5.5,0,0,1,.459-.7H21.53l-1,3"/><path class="a" d="M20.78,13.083h-4.5a.8.8,0,0,0-.75.85v4.15h6v-4.15A.8.8,0,0,0,20.78,13.083Z"/><path class="a" d="M15.53,18.083h-5v-2.25a.8.8,0,0,1,.833-.75H15.53Z"/><line class="a" x1="19.53" y1="13.083" x2="19.53" y2="11.083"/><path class="a" d="M6.53,15.583h-5a1,1,0,0,1-1-1V5A1,1,0,0,1,.823,4.29L4.237.876A1,1,0,0,1,4.944.583h5.172a1,1,0,0,1,.707.293L14.237,4.29A1,1,0,0,1,14.53,5V6.583"/><line class="a" x1="7.53" y1="0.583" x2="7.53" y2="4.583"/><line class="a" x1="14.44" y1="4.583" x2="0.62" y2="4.583"/></svg>