<svg xmlns="http://www.w3.org/2000/svg" viewBox="0 0 24 24"><defs><style>.a{fill:none;stroke:#000;stroke-linecap:round;stroke-linejoin:round;}</style></defs><title>shipment-package</title><path class="a" d="M23.5,6.14a1,1,0,0,0-.6-.917L12.4.657a1.006,1.006,0,0,0-.8,0L1.1,5.223a1,1,0,0,0-.6.917V17.817a1,1,0,0,0,.615.923L12.1,23.317a1,1,0,0,0,.8-.013L22.914,18.75a1,1,0,0,0,.586-.91Z"/><line class="a" x1="12.5" y1="10.484" x2="0.685" y2="5.561"/><line class="a" x1="12.5" y1="10.484" x2="23.319" y2="5.566"/><line class="a" x1="7.187" y1="2.579" x2="18.288" y2="7.857"/><path class="a" d="M9.5,12.936a.5.5,0,0,0-.3-.458l-5-2.188a.5.5,0,0,0-.7.459v3.908a.5.5,0,0,0,.3.458l5,2.188a.5.5,0,0,0,.7-.458Z"/><line class="a" x1="12.5" y1="23.426" x2="12.5" y2="10.484"/></svg>