<svg xmlns="http://www.w3.org/2000/svg" viewBox="0 0 24 24"><defs><style>.a{fill:none;stroke:#000;stroke-linecap:round;stroke-linejoin:round;}</style></defs><title>shipment-online-monitor</title><path class="a" d="M15.224,23H9.682a7.377,7.377,0,0,0,1.506-4h2.5A7.339,7.339,0,0,0,15.224,23Z"/><line class="a" x1="8" y1="23" x2="16.906" y2="23"/><path class="a" d="M22,19H2a.98.98,0,0,1-1-1V2A.98.98,0,0,1,2,1H22a.98.98,0,0,1,1,1V18A.98.98,0,0,1,22,19Z"/><line class="a" x1="1" y1="16" x2="23" y2="16"/><path class="a" d="M6,13.5V6.242a.5.5,0,0,1,.19-.392L8.4,4.108A.5.5,0,0,1,8.706,4h6.588a.5.5,0,0,1,.31.108L17.81,5.85a.5.5,0,0,1,.19.392V13.5"/><line class="a" x1="17.937" y1="6" x2="6.063" y2="6"/><line class="a" x1="12" y1="4" x2="12" y2="6"/><rect class="a" x="12" y="10.5" width="4" height="2" rx="0.5" ry="0.5"/></svg>