<svg id="Light" xmlns="http://www.w3.org/2000/svg" viewBox="0 0 24 24"><defs><style>.cls-1{fill:none;stroke:#000;stroke-linecap:round;stroke-linejoin:round;}</style></defs><title>shirt</title><line class="cls-1" x1="11.999" y1="4.5" x2="11.999" y2="7"/><line class="cls-1" x1="4.499" y1="8" x2="4.499" y2="11.5"/><line class="cls-1" x1="19.499" y1="8" x2="19.499" y2="11.5"/><line class="cls-1" x1="13.999" y1="9.5" x2="16.999" y2="9.5"/><path class="cls-1" d="M15.973.943A.5.5,0,0,1,16.5.5a7.5,7.5,0,0,1,7,7.483V11a.5.5,0,0,1-.5.5H19.5V23a.5.5,0,0,1-.5.5H5a.5.5,0,0,1-.5-.5V11.5H1A.5.5,0,0,1,.5,11V7.984A7.5,7.5,0,0,1,7.5.5a.5.5,0,0,1,.53.442,4,4,0,0,0,7.948,0Z"/></svg>