<svg id="Light" xmlns="http://www.w3.org/2000/svg" viewBox="0 0 24 24"><defs><style>.cls-1{fill:none;stroke:#000;stroke-linecap:round;stroke-linejoin:round;}</style></defs><title>shooting-rifle</title><path class="cls-1" d="M6.1,10.822h9a0,0,0,0,1,0,0v1.5a.5.5,0,0,1-.5.5H6.1a0,0,0,0,1,0,0v-2A0,0,0,0,1,6.1,10.822Z" transform="translate(-4.971 8.709) rotate(-36.815)"/><line class="cls-1" x1="13.602" y1="8.325" x2="23.209" y2="1.134"/><line class="cls-1" x1="21.608" y1="2.333" x2="20.709" y2="1.132"/><line class="cls-1" x1="5.198" y1="12.117" x2="6.397" y2="13.718"/><line class="cls-1" x1="10.002" y1="8.522" x2="11.2" y2="10.123"/><line class="cls-1" x1="9.201" y1="9.121" x2="10.802" y2="7.922"/><line class="cls-1" x1="4.798" y1="12.417" x2="5.599" y2="11.817"/><path class="cls-1" d="M7.6,15.319,3.95,22.592a.5.5,0,0,1-.847.076L.891,19.713a.5.5,0,0,1,.1-.7l6-4.494"/></svg>