<svg xmlns="http://www.w3.org/2000/svg" viewBox="0 0 24 24"><defs><style>.a{fill:none;stroke:#000;stroke-linecap:round;stroke-linejoin:round;}</style></defs><title>shopping-basket-star</title><path class="a" d="M19.089,13.858l1.282,2.769h2.5A.613.613,0,0,1,23.3,17.7l-2.166,2.135,1.2,2.761a.654.654,0,0,1-.931.819l-2.9-1.634-2.9,1.634a.654.654,0,0,1-.931-.819l1.2-2.761L13.7,17.7a.613.613,0,0,1,.429-1.07h2.495l1.285-2.769A.662.662,0,0,1,19.089,13.858Z"/><line class="a" x1="3.539" y1="5.5" x2="6.145" y2="0.5"/><line class="a" x1="17.434" y1="5.5" x2="14.829" y2="0.5"/><path class="a" d="M18.634,11.282,19.171,8.5H1.8L3.28,16.156A1.713,1.713,0,0,0,4.989,17.5H10"/><rect class="a" x="0.5" y="5.5" width="20" height="3" rx="1" ry="1"/><line class="a" x1="10.5" y1="11" x2="10.5" y2="14.039"/><line class="a" x1="6.592" y1="11" x2="7.026" y2="14.039"/></svg>