<svg xmlns="http://www.w3.org/2000/svg" viewBox="0 0 24 24"><defs><style>.a,.b{fill:none;stroke:#000;stroke-linecap:round;stroke-linejoin:round;}.b{fill-rule:evenodd;}</style></defs><title>shopping-bag-check</title><path class="a" d="M20.1,23.5H3.9A3,3,0,0,1,.922,20.128L2.5,7.5h19l1.578,12.628A3,3,0,0,1,20.1,23.5Z"/><path class="a" d="M6,5H4.566a1,1,0,0,0-.857.486L2.5,7.5h19L20.291,5.486A1,1,0,0,0,19.434,5H18"/><path class="a" d="M16,4.5a4,4,0,0,0-8,0v3h8Z"/><path class="b" d="M15.186,12.064l-4.65,4.65L8.85,15.1a.343.343,0,0,0-.484,0l-1.23,1.23a.343.343,0,0,0,0,.484L10.294,19.9a.343.343,0,0,0,.484,0L16.9,13.778a.343.343,0,0,0,0-.484l-1.23-1.23A.343.343,0,0,0,15.186,12.064Z"/></svg>