<svg xmlns="http://www.w3.org/2000/svg" viewBox="0 0 24 24"><defs><style>.a{fill:none;stroke:#000;stroke-linecap:round;stroke-linejoin:round;}</style></defs><title>shop</title><path class="a" d="M21.5,9.838V21a1,1,0,0,1-1,1H3.5a1,1,0,0,1-1-1V9.838"/><rect class="a" x="4.5" y="13" width="8" height="6" rx="0.5" ry="0.5"/><path class="a" d="M19.5,22h-5V13.5A.5.5,0,0,1,15,13h4a.5.5,0,0,1,.5.5Z"/><path class="a" d="M21.776,2.553A1,1,0,0,0,20.882,2H3.118a1,1,0,0,0-.894.553L.5,6h23Z"/><path class="a" d="M23.5,7a2.862,2.862,0,0,1-5,2,4.048,4.048,0,0,1-6.5.64A4.048,4.048,0,0,1,5.5,9a2.863,2.863,0,0,1-5-2V6h23Z"/><polyline class="a" points="5.5 9 5.5 6 6.5 2"/><polyline class="a" points="12 9.645 12 6 12 2"/><polyline class="a" points="18.5 9 18.5 6 17.5 2"/></svg>