<svg xmlns="http://www.w3.org/2000/svg" viewBox="0 0 24 24"><defs><style>.a{fill:none;stroke:#000;stroke-linecap:round;stroke-linejoin:round;}</style></defs><title>shopping-bag-carry</title><path class="a" d="M17,14.992v-1a5,5,0,0,0-10,0v1"/><polyline class="a" points="15.5 17.492 14.5 17.492 14 23.492 10 23.492 9.5 17.492 8.5 17.492"/><circle class="a" cx="12" cy="3.992" r="3.5"/><path class="a" d="M16.879,18.993a.64.64,0,0,1,.621-.485h4a.639.639,0,0,1,.621.484l.852,3.409a.876.876,0,0,1,.027.216.891.891,0,0,1-.89.891H16.89a.891.891,0,0,1-.89-.891.876.876,0,0,1,.027-.216Z"/><path class="a" d="M18,18.508l.336-2.014a1.18,1.18,0,0,1,2.328,0L21,18.508"/><path class="a" d="M1.879,18.993a.64.64,0,0,1,.621-.485h4a.639.639,0,0,1,.621.484L7.973,22.4A.876.876,0,0,1,8,22.617a.891.891,0,0,1-.89.891H1.89A.891.891,0,0,1,1,22.617a.876.876,0,0,1,.027-.216Z"/><path class="a" d="M3,18.508l.336-2.014a1.18,1.18,0,0,1,2.328,0L6,18.508"/></svg>