<svg xmlns="http://www.w3.org/2000/svg" viewBox="0 0 24 24"><defs><style>.a{fill:none;stroke:#000;stroke-linecap:round;stroke-linejoin:round;}</style></defs><title>shopping-bag-purse-barcode</title><line class="a" x1="5.503" y1="12" x2="5.503" y2="18.5"/><line class="a" x1="18.503" y1="12" x2="18.503" y2="18.5"/><line class="a" x1="7.503" y1="12" x2="7.503" y2="16"/><line class="a" x1="12.503" y1="12" x2="12.503" y2="16"/><line class="a" x1="14.503" y1="12" x2="14.503" y2="16"/><line class="a" x1="9.503" y1="12" x2="9.503" y2="16"/><line class="a" x1="16.503" y1="12" x2="16.503" y2="16"/><line class="a" x1="7.503" y1="18.5" x2="7.503" y2="18"/><line class="a" x1="9.503" y1="18.5" x2="9.503" y2="18"/><line class="a" x1="12.503" y1="18.5" x2="12.503" y2="18"/><line class="a" x1="14.503" y1="18.5" x2="14.503" y2="18"/><line class="a" x1="16.503" y1="18.5" x2="16.503" y2="18"/><path class="a" d="M20.1,23.5H3.9A3,3,0,0,1,.922,20.128L2.5,7.5h19l1.578,12.628A3,3,0,0,1,20.1,23.5Z"/><path class="a" d="M6,5H4.566a1,1,0,0,0-.857.486L2.5,7.5h19L20.291,5.486A1,1,0,0,0,19.434,5H18"/><path class="a" d="M16,4.5a4,4,0,0,0-8,0v3h8Z"/></svg>