<svg xmlns="http://www.w3.org/2000/svg" viewBox="0 0 24 24"><defs><style>.a{fill:none;stroke:#000;stroke-linecap:round;stroke-linejoin:round;}</style></defs><title>shop-dislike-circle</title><path class="a" d="M4.189.5a1,1,0,0,0-.934.644L1.674,5.292A2,2,0,0,0,1.66,6.677,2.751,2.751,0,0,0,7,5.75a2.75,2.75,0,0,0,5.5,0,2.75,2.75,0,0,0,5.5,0,2.751,2.751,0,0,0,5.34.927,1.994,1.994,0,0,0-.015-1.385l-1.58-4.148A1,1,0,0,0,20.811.5Z"/><polyline class="a" points="12.522 20.5 21.543 20.5 21.543 8.384"/><path class="a" d="M4.043,14.723C6.567,13.451,6.463,13.7,8.666,13.7c.932,0,1.4.6,1.675,1.49l0,0,.675,2.253v0a.706.706,0,0,1-.677.91H8.606a.709.709,0,0,0-.56.275.7.7,0,0,0-.124.609l.312,1.178a.6.6,0,0,1-.586.756.609.609,0,0,1-.5-.255l-1.73-2.441a.71.71,0,0,0-.579-.3h-.8"/><line class="a" x1="4.043" y1="19" x2="4.043" y2="14"/><circle class="a" cx="7.043" cy="17" r="6.5"/><line class="a" x1="3.543" y1="8.408" x2="3.543" y2="11.522"/></svg>