<svg xmlns="http://www.w3.org/2000/svg" viewBox="0 0 24 24"><defs><style>.a{fill:none;stroke:#000;stroke-linecap:round;stroke-linejoin:round;}</style></defs><title>shopping-basket-edit</title><path class="a" d="M16.987,22.5l-3.5,1,1-3.5,5.982-5.982a1.768,1.768,0,0,1,2.5,2.5Z"/><line class="a" x1="19.719" y1="14.768" x2="22.219" y2="17.268"/><line class="a" x1="14.487" y1="20" x2="16.987" y2="22.5"/><line class="a" x1="3.553" y1="5.5" x2="6.158" y2="0.5"/><line class="a" x1="17.447" y1="5.5" x2="14.842" y2="0.5"/><path class="a" d="M18.647,11.282,19.184,8.5H1.816l1.477,7.656A1.713,1.713,0,0,0,5,17.5h8.511"/><rect class="a" x="0.513" y="5.5" width="19.974" height="3" rx="1" ry="1"/><line class="a" x1="10.513" y1="11" x2="10.513" y2="14.039"/><line class="a" x1="6.605" y1="11" x2="7.039" y2="14.039"/></svg>