<svg xmlns="http://www.w3.org/2000/svg" viewBox="0 0 24 24"><defs><style>.a{fill:none;stroke:#000;stroke-linecap:round;stroke-linejoin:round;}</style></defs><title>shopping-bag-tag</title><path class="a" d="M17.378,9.5h2a1,1,0,0,1,1,1v12a1,1,0,0,1-1,1h-17a1,1,0,0,1-1-1v-12a1,1,0,0,1,1-1h2"/><path class="a" d="M6.378,10.5V5a4.5,4.5,0,0,1,9,0v5.5"/><line class="a" x1="8.378" y1="9.5" x2="13.378" y2="9.5"/><rect class="a" x="7.378" y="13.5" width="7" height="6" rx="0.5" ry="0.5"/><path class="a" d="M20.208,2.55a1,1,0,0,1,1.414,0l.707.708a1,1,0,0,1,0,1.414L19.793,7.207a1,1,0,0,1-.707.293H17.378V5.793a1,1,0,0,1,.293-.707Z"/></svg>