<svg xmlns="http://www.w3.org/2000/svg" viewBox="0 0 24 24"><defs><style>.a{fill:none;stroke:#000;stroke-linecap:round;stroke-linejoin:round;}</style></defs><title>shopping-cart-full</title><circle class="a" cx="5.421" cy="20.759" r="1.5"/><circle class="a" cx="16.421" cy="20.759" r="1.5"/><path class="a" d="M23.421,2.259h-2.6a.5.5,0,0,0-.487.386L16.421,19.259h-11"/><path class="a" d="M16.921,17.259H4.281a.5.5,0,0,1-.474-.342l-2.667-8a.5.5,0,0,1,.475-.658H18.983"/><path class="a" d="M10.921,8.259l3.65-3.65a.5.5,0,0,1,.7,0L19,8.259"/><path class="a" d="M5.921,8.259,3.13,2.036a.5.5,0,0,0-.671-.247l-1.6.759a.5.5,0,0,0-.24.658l2.3,5.053"/><path class="a" d="M6.921,8.259v-2.5a.5.5,0,0,1,.5-.5h4"/></svg>