<svg xmlns="http://www.w3.org/2000/svg" viewBox="0 0 24 24"><defs><style>.a{fill:none;stroke:#000;stroke-linecap:round;stroke-linejoin:round;}</style></defs><title>shopping-voucher-mail</title><path class="a" d="M19.5,8.75l4,2.75V22A1.5,1.5,0,0,1,22,23.5H2A1.5,1.5,0,0,1,.5,22V11.5l4-2.75"/><polyline class="a" points="3.5 20.5 8.5 16.5 15.5 16.5 20.5 20.5"/><line class="a" x1="23.5" y1="11.5" x2="17.5" y2="15.5"/><line class="a" x1="0.5" y1="11.5" x2="6.5" y2="15.5"/><path class="a" d="M19.5,14.166V1.5a1,1,0,0,0-1-1H5.5a1,1,0,0,0-1,1V14.166"/><path class="a" d="M16,4,14.12,9.171a.5.5,0,0,1-.47.329H10.071a.5.5,0,0,1-.459-.3L8.54,6.2A.5.5,0,0,1,9,5.5h6.455"/><path class="a" d="M10.75,11a.25.25,0,1,1-.25.25.25.25,0,0,1,.25-.25"/><path class="a" d="M13.25,11a.25.25,0,1,1-.25.25.25.25,0,0,1,.25-.25"/></svg>