<svg xmlns="http://www.w3.org/2000/svg" viewBox="0 0 24 24"><defs><style>.a{fill:none;stroke:#000;stroke-linecap:round;stroke-linejoin:round;}</style></defs><title>shop-pin</title><path class="a" d="M21.5,8.478V19.641a1,1,0,0,1-1,1h-6L12.384,23.18a.5.5,0,0,1-.768,0L9.5,20.641h-6a1,1,0,0,1-1-1V8.478"/><rect class="a" x="4.5" y="11.641" width="8" height="6" rx="1" ry="1"/><path class="a" d="M19.5,20.641h-5v-8a1,1,0,0,1,1-1h3a1,1,0,0,1,1,1Z"/><path class="a" d="M22.053,1.746a2,2,0,0,0-1.789-1.1H3.736A2,2,0,0,0,1.947,1.746L.5,4.641h23Z"/><path class="a" d="M23.5,5.641a2.862,2.862,0,0,1-5,2A4.047,4.047,0,0,1,12,8.28a4.049,4.049,0,0,1-6.5-.639,2.863,2.863,0,0,1-5-2v-1h23Z"/><polyline class="a" points="5.5 7.641 5.5 4.641 6.5 0.641"/><polyline class="a" points="12 8.286 12 4.641 12 0.641"/><polyline class="a" points="18.5 7.641 18.5 4.641 17.5 0.641"/></svg>