<svg xmlns="http://www.w3.org/2000/svg" viewBox="0 0 24 24"><defs><style>.a{fill:none;stroke:#000;stroke-linecap:round;stroke-linejoin:round;}</style></defs><title>shopping-bag-fire</title><path class="a" d="M5.5,8.5v-5a3,3,0,0,1,6,0v5"/><path class="a" d="M18.334,11.24a.5.5,0,0,1,.637.709,3.217,3.217,0,0,0,.6,4.052,3.65,3.65,0,0,0,.928-1.538.5.5,0,0,1,.753-.262A5.211,5.211,0,0,1,23.5,18.5a5,5,0,0,1-10,0A8.135,8.135,0,0,1,18.334,11.24Z"/><path class="a" d="M15.806,10.1l-.24-3.6a1.068,1.068,0,0,0-1.066-1H2.5a1.068,1.068,0,0,0-1.066,1L.5,20.436c0,.043,0,.085,0,.128A1.936,1.936,0,0,0,2.436,22.5H12.5"/><line class="a" x1="0.567" y1="19.5" x2="11.5" y2="19.5"/></svg>