<svg xmlns="http://www.w3.org/2000/svg" viewBox="0 0 24 24"><defs><style>.a{fill:none;stroke:#000;stroke-linecap:round;stroke-linejoin:round;}</style></defs><title>shop-sign-bag</title><path class="a" d="M.5,13.5v-9a2,2,0,0,1,2-2h17"/><circle class="a" cx="21.5" cy="2.5" r="2"/><rect class="a" x="4.5" y="8.5" width="16" height="15" rx="2" ry="2"/><line class="a" x1="8.5" y1="8.5" x2="8.5" y2="7.5"/><line class="a" x1="16.5" y1="8.5" x2="16.5" y2="7.5"/><line class="a" x1="8.5" y1="5.5" x2="8.5" y2="2.5"/><line class="a" x1="16.5" y1="5.5" x2="16.5" y2="2.5"/><path class="a" d="M10.5,15.5v-3a2,2,0,0,1,4,0v3"/><path class="a" d="M16.107,21.5A1.393,1.393,0,0,0,17.5,20.107a1.366,1.366,0,0,0-.016-.212l-.832-5.406A1.166,1.166,0,0,0,15.5,13.5h-6a1.166,1.166,0,0,0-1.152.988L7.516,19.9a1.366,1.366,0,0,0-.016.212A1.393,1.393,0,0,0,8.893,21.5Z"/></svg>