<svg xmlns="http://www.w3.org/2000/svg" viewBox="0 0 24 24"><defs><style>.a{fill:none;stroke:#000;stroke-linecap:round;stroke-linejoin:round;}</style></defs><title>shopping-bag-play</title><path class="a" d="M23.078,20.128A3,3,0,0,1,20.1,23.5H3.9A3,3,0,0,1,.922,20.128L2.5,7.5h19Z"/><path class="a" d="M6,5H4.566a1,1,0,0,0-.857.486L2.5,7.5h19L20.291,5.486A1,1,0,0,0,19.434,5H18"/><path class="a" d="M16,4.5a4,4,0,0,0-8,0v3h8Z"/><path class="a" d="M10.174,11.9a.5.5,0,0,0-.737.44v5.768a.5.5,0,0,0,.762.426l5-3.076a.5.5,0,0,0-.025-.866Z"/></svg>