<svg id="Light" xmlns="http://www.w3.org/2000/svg" viewBox="0 0 24 24"><defs><style>.cls-1{fill:none;stroke:#000;stroke-linecap:round;stroke-linejoin:round;}</style></defs><title>show-hat-cards</title><path class="cls-1" d="M19.5,20.833A2.635,2.635,0,0,1,16.9,23.5H7.1a2.633,2.633,0,0,1-2.6-2.667V11.5h15Z"/><line class="cls-1" x1="1.5" y1="11.5" x2="22.5" y2="11.5"/><line class="cls-1" x1="4.5" y1="15.5" x2="19.5" y2="15.5"/><path class="cls-1" d="M15.949,9.5,15.825,9a.5.5,0,0,0-.783-.281L13.993,9.5"/><path class="cls-1" d="M10.532,9.5l2.02-5.627a.5.5,0,0,1,.64-.3L20.529,6.2a.5.5,0,0,1,.3.64L19.878,9.5"/><path class="cls-1" d="M9.8,6.873c.18.779-.509,1.35-1.288,1.529s-1.649-.031-1.829-.811,1.11-2.307,1.11-2.307S9.619,6.094,9.8,6.873Z"/><line class="cls-1" x1="8.51" y1="8.402" x2="8.689" y2="9.181"/><path class="cls-1" d="M4.249,9.5,2.72,2.862a.5.5,0,0,1,.375-.6l7.6-1.75a.5.5,0,0,1,.6.375L12.2,4.844"/><path class="cls-1" d="M5.127,3.657a.25.25,0,0,1,.25.25"/><path class="cls-1" d="M4.877,3.907a.25.25,0,0,1,.25-.25"/><path class="cls-1" d="M5.127,4.157a.25.25,0,0,1-.25-.25"/><path class="cls-1" d="M5.377,3.907a.25.25,0,0,1-.25.25"/><path class="cls-1" d="M13.893,5.784a.249.249,0,0,1,.25.25"/><path class="cls-1" d="M13.643,6.034a.25.25,0,0,1,.25-.25"/><path class="cls-1" d="M13.893,6.284a.25.25,0,0,1-.25-.25"/><path class="cls-1" d="M14.143,6.034a.249.249,0,0,1-.25.25"/></svg>