<svg id="Light" xmlns="http://www.w3.org/2000/svg" viewBox="0 0 24 24"><defs><style>.cls-1{fill:none;stroke:#000;stroke-linecap:round;stroke-linejoin:round;}</style></defs><title>show-theater-masks</title><path class="cls-1" d="M23.5,13.5V6.752a.994.994,0,0,0-1.373-.923c-3.436,1.392-10.818,1.393-14.254,0A1,1,0,0,0,6.5,6.753V13.5c0,5.5,6.5,10,8.5,10S23.5,19,23.5,13.5Z"/><path class="cls-1" d="M17.5,4.773V1.5A.994.994,0,0,0,16.127.575C12.691,1.967,5.309,1.968,1.873.575A1,1,0,0,0,.5,1.5V8.246c0,3.169,2.16,6.008,4.373,7.844"/><path class="cls-1" d="M18,16.5a3,3,0,0,1-6,0"/><path class="cls-1" d="M17,12a1.5,1.5,0,1,1,3,0"/><path class="cls-1" d="M10,12a1.5,1.5,0,1,1,3,0"/></svg>