<svg id="Light" xmlns="http://www.w3.org/2000/svg" viewBox="0 0 24 24"><defs><style>.cls-1{fill:none;stroke:#000;stroke-linecap:round;stroke-linejoin:round;}</style></defs><title>skiing-cross-country</title><circle class="cls-1" cx="18" cy="3" r="2.5"/><path class="cls-1" d="M4,23.5H18A2.5,2.5,0,0,0,20.5,21"/><path class="cls-1" d="M.5,14.518l3.521,4.59a2.5,2.5,0,0,0,3.505.462"/><path class="cls-1" d="M16.5,21.53V18.836a4.51,4.51,0,0,0-1.489-3.345l-2.827-2.545L15.142,10a6.566,6.566,0,0,0,7.43-.486l.445-.411a1.5,1.5,0,0,0-2.035-2.2l-.445.411A3.507,3.507,0,0,1,16.4,7.191c-.171-.182-.32-.313-.357-.346A5.368,5.368,0,0,0,12.5,5.5H10.093a5.312,5.312,0,0,0-3.78,1.566L4.44,8.94a1.5,1.5,0,0,0,2.122,2.121L8.435,9.188A2.333,2.333,0,0,1,10.094,8.5h2.3L9.015,11.87A1.531,1.531,0,0,0,8.886,12l-.013.015L7.82,13.06a1.511,1.511,0,0,1-1.061.439H2"/><path class="cls-1" d="M4.5,16.5H6.758a4.528,4.528,0,0,0,3.18-1.316l.117-.116,2.95,2.654a1.5,1.5,0,0,1,.5,1.114V21.53"/><line class="cls-1" x1="22.451" y1="9.623" x2="21.5" y2="18.5"/><line class="cls-1" x1="23" y1="4.5" x2="22.762" y2="6.718"/><line class="cls-1" x1="20" y1="16" x2="23.5" y2="16.5"/><line class="cls-1" x1="4.085" y1="10.5" x2="0.5" y2="10.5"/></svg>