<svg id="Light" xmlns="http://www.w3.org/2000/svg" viewBox="0 0 24 24"><defs><style>.cls-1{fill:none;stroke:#000;stroke-linecap:round;stroke-linejoin:round;}</style></defs><title>skiing-cross-country-1</title><circle class="cls-1" cx="15.982" cy="3" r="2.5"/><path class="cls-1" d="M20.6,11.738l-.984-.14a1.493,1.493,0,0,1-1.048-.724l-.96-1.645a5.455,5.455,0,0,0-6.982-2.254L8.082,7.991A4.529,4.529,0,0,0,5.613,10.4l-.76,1.815A1.5,1.5,0,0,0,7.611,13.4l.76-1.816a1.511,1.511,0,0,1,.822-.8l1.86-.745-3.964,9.41a1.5,1.5,0,1,0,2.785,1.113l1.949-4.373,1.387.771a1.5,1.5,0,0,1,.771,1.312V20a1.5,1.5,0,0,0,3,0V18.266a4.507,4.507,0,0,0-2.314-3.935l-1.72-.956,1.365-3.412a2.494,2.494,0,0,1,.705.778l.96,1.645a4.488,4.488,0,0,0,3.146,2.171l.983.14a1.5,1.5,0,0,0,.495-2.959Z"/><path class="cls-1" d="M10.141,22.5a3.243,3.243,0,0,1-2.659,1c-1.756,0-4.005-1.974-5.189-3.148a.5.5,0,0,1,.355-.852H4.981"/><path class="cls-1" d="M18.482,21.5c0,1.105-1.067,2-3,2a6.476,6.476,0,0,1-3.5-1.644"/><path class="cls-1" d="M11.982,19.5h2"/></svg>