<svg id="Light" xmlns="http://www.w3.org/2000/svg" viewBox="0 0 24 24"><defs><style>.cls-1{fill:none;stroke:#000;stroke-linecap:round;stroke-linejoin:round;}</style></defs><title>skiing-cable-car</title><circle class="cls-1" cx="13.25" cy="9.25" r="2"/><path class="cls-1" d="M19.25,23.25a1,1,0,0,1-1-1v-1a2,2,0,0,0-2-2h-1a3,3,0,0,1-3-3v-2a1,1,0,0,1,2,0v2a1,1,0,0,0,1,1h1a4,4,0,0,1,4,4v1A1,1,0,0,1,19.25,23.25Z"/><path class="cls-1" d="M16.25,21.25h-2a5,5,0,0,1-5-5v-7a4,4,0,0,1,4-4V2.93"/><line class="cls-1" x1="2.25" y1="5.75" x2="21.75" y2="0.75"/></svg>