<svg id="Light" xmlns="http://www.w3.org/2000/svg" viewBox="0 0 24 24"><defs><style>.cls-1{fill:none;stroke:#000;stroke-linecap:round;stroke-linejoin:round;}</style></defs><title>skiing-snow-scooter</title><path class="cls-1" d="M7.652,14.555A3,3,0,0,0,10.5,18.5"/><path class="cls-1" d="M13.5,15.5a3,3,0,0,1-3,3H2a1.5,1.5,0,0,1-.531-2.9l5.058-1.843"/><path class="cls-1" d="M1.058,9.894A1.317,1.317,0,0,1,1.817,7.5H6a1.667,1.667,0,0,1,.89.312L8.61,9.188A1.667,1.667,0,0,0,9.5,9.5H12a1.667,1.667,0,0,0,.89-.312l1.72-1.376A1.667,1.667,0,0,1,15.5,7.5H18a1.181,1.181,0,0,1,.812.39l3.2,4a2.233,2.233,0,0,1,.159,2.559A2.27,2.27,0,0,1,20.21,15.5H10a3.153,3.153,0,0,1-1.817-.577Z"/><path class="cls-1" d="M23.5,17l-.793.793A2.414,2.414,0,0,1,21,18.5H15.5"/><path class="cls-1" d="M15,7.5,13.354,5.854A1.391,1.391,0,0,0,12.5,5.5h-2"/><line class="cls-1" x1="20.5" y1="18.5" x2="19" y2="15.5"/><path class="cls-1" d="M22.358,12.5H18.5a1,1,0,0,1,0-2h2.4"/><path class="cls-1" d="M2,18.5a1.5,1.5,0,1,0-.533-2.9"/></svg>