<svg id="Light" xmlns="http://www.w3.org/2000/svg" viewBox="0 0 24 24"><defs><style>.cls-1{fill:none;stroke:#000;stroke-linecap:round;stroke-linejoin:round;}</style></defs><title>skiing-cable-car-1</title><circle class="cls-1" cx="6.094" cy="3.067" r="2.5"/><path class="cls-1" d="M13.731,21.273,13.32,15.8a.5.5,0,0,0-.618-.449l-2.428.594a2.5,2.5,0,0,1-3.023-1.834L5.944,8.766a1.5,1.5,0,1,1,2.914-.714l1.189,4.857,1.943-.475a3.5,3.5,0,0,1,4.322,3.139l.374,4.978"/><path class="cls-1" d="M3.882,8.755l1.545,6.314A4,4,0,0,0,10.263,18l1.457-.357"/><path class="cls-1" d="M4.9,23.434l13.6-3.328a2.5,2.5,0,0,0,1.834-3.023"/><line class="cls-1" x1="12.593" y1="0.566" x2="12.593" y2="10.566"/></svg>