<svg id="Light" xmlns="http://www.w3.org/2000/svg" viewBox="0 0 24 24"><defs><style>.cls-1{fill:none;stroke:#000;stroke-linecap:round;stroke-linejoin:round;}</style></defs><title>skirt</title><path class="cls-1" d="M4.5,4.5h15V1.105a.606.606,0,0,0-.605-.6H5.1a.606.606,0,0,0-.605.605Z"/><line class="cls-1" x1="7.761" y1="21.079" x2="8.999" y2="4.5"/><path class="cls-1" d="M19.5,4.5l3.988,17.472a.5.5,0,0,1-.2.518,5.1,5.1,0,0,1-2.813,1.01,4.714,4.714,0,0,1-4.237-2.421A4.719,4.719,0,0,1,12,23.5a4.716,4.716,0,0,1-4.238-2.421A4.716,4.716,0,0,1,3.524,23.5,5.1,5.1,0,0,1,.71,22.49a.5.5,0,0,1-.2-.518L4.5,4.5"/><line class="cls-1" x1="16.238" y1="21.079" x2="14.999" y2="4.5"/></svg>