<svg id="Light" xmlns="http://www.w3.org/2000/svg" viewBox="0 0 24 24"><defs><style>.cls-1{fill:none;stroke:#000;stroke-linecap:round;stroke-linejoin:round;}</style></defs><title>sky</title><path class="cls-1" d="M13.2,5.066a1.825,1.825,0,0,0-1.9-2.412A3.129,3.129,0,0,0,5.217,3.688a2.877,2.877,0,0,0,0,5.754H12a2.355,2.355,0,0,0,1.2-4.376Z"/><polyline class="cls-1" points="20.5 18.276 20.5 23.442 14.5 23.442 14.5 18.276"/><polyline class="cls-1" points="13 19.442 17.5 15.942 22 19.442"/><line class="cls-1" x1="0.5" y1="23.442" x2="23.5" y2="23.442"/><polyline class="cls-1" points="7 12.442 8.5 10.942 10 12.442"/><polyline class="cls-1" points="10 20.442 8.5 21.942 7 20.442"/><line class="cls-1" x1="8.5" y1="10.942" x2="8.5" y2="13.442"/><line class="cls-1" x1="8.5" y1="19.442" x2="8.5" y2="21.942"/><line class="cls-1" x1="8.5" y1="15.442" x2="8.5" y2="17.442"/></svg>