<svg id="Light" xmlns="http://www.w3.org/2000/svg" viewBox="0 0 24 24"><defs><style>.cls-1{fill:none;stroke:#000;stroke-linecap:round;stroke-linejoin:round;}</style></defs><title>smart-light-signal</title><path class="cls-1" d="M13.014,18V13.5a1,1,0,1,1,1,1h-4a1,1,0,1,1,1-1V18"/><path class="cls-1" d="M6,19.01a8.5,8.5,0,1,1,12.021,0"/><path class="cls-1" d="M3.882,21.132a11.5,11.5,0,1,1,16.263,0"/><path class="cls-1" d="M14.014,18a5.247,5.247,0,0,0,3.5-5,5.5,5.5,0,0,0-11,0,5.247,5.247,0,0,0,3.5,5"/><path class="cls-1" d="M14.014,19.5a2,2,0,0,1-4,0V18h4Z"/><line class="cls-1" x1="12.014" y1="21.5" x2="12.014" y2="22.5"/></svg>