<svg xmlns="http://www.w3.org/2000/svg" viewBox="0 0 24 24"><defs><style>.a{fill:none;stroke:#000;stroke-linecap:round;stroke-linejoin:round;}</style></defs><title>smart-house-phone-cctv</title><rect class="a" x="16.5" y="11.5" width="7" height="12" rx="1" ry="1"/><line class="a" x1="16.5" y1="13.5" x2="23.5" y2="13.5"/><line class="a" x1="16.5" y1="21.5" x2="23.5" y2="21.5"/><path class="a" d="M15,1.5h2.5a3,3,0,0,1,3,3V9"/><path class="a" d="M5.5,11v4.5a3,3,0,0,0,3,3h4"/><polyline class="a" points="18 6.5 20.5 9 23 6.5"/><polyline class="a" points="8 13.5 5.5 11 3 13.5"/><path class="a" d="M8.041.793.868,3.016A.325.325,0,0,0,.7,3.56L3.309,6.929a.775.775,0,0,0,.784.247L9.5,5.5A2.464,2.464,0,1,0,8.041.793Z"/><path class="a" d="M8.912,5.683l.547,1.765A1.232,1.232,0,0,0,11,8.26l2.942-.912"/></svg>