<svg xmlns="http://www.w3.org/2000/svg" viewBox="0 0 24 24"><defs><style>.a{fill:none;stroke:#000;stroke-linecap:round;stroke-linejoin:round;}</style></defs><title>smart-house-play</title><path class="a" d="M13.5,9.5V8.287a.286.286,0,0,1,.434-.246l2.022,1.213a.287.287,0,0,1,0,.492l-2.022,1.213a.285.285,0,0,1-.289,0,.288.288,0,0,1-.145-.249Z"/><circle class="a" cx="14.5" cy="9.5" r="4"/><polyline class="a" points="23.5 8.5 14.5 0.5 5.5 8.5"/><path class="a" d="M20.5,5.834V14.5a1,1,0,0,1-1,1H9.5a1,1,0,0,1-1-1V5.834"/><rect class="a" x="-1" y="17" width="8" height="5" rx="1" ry="1" transform="translate(22.5 16.5) rotate(90)"/><path class="a" d="M4.338,13.014a2,2,0,0,0-2.676,0"/><path class="a" d="M5.5,11.378a4,4,0,0,0-5,0"/><path class="a" d="M3,21a.25.25,0,1,1-.25.25A.25.25,0,0,1,3,21"/></svg>