<svg xmlns="http://www.w3.org/2000/svg" viewBox="0 0 24 24"><defs><style>.a{fill:none;stroke:#000;stroke-linecap:round;stroke-linejoin:round;}</style></defs><title>smart-house-eye</title><polyline class="a" points="23.5 8.5 14.5 0.5 5.5 8.5"/><path class="a" d="M20.5,5.834V14.5a1,1,0,0,1-1,1H9.5a1,1,0,0,1-1-1V5.834"/><rect class="a" x="-1" y="17" width="8" height="5" rx="1" ry="1" transform="translate(22.5 16.5) rotate(90)"/><path class="a" d="M4.338,13.014a2,2,0,0,0-2.676,0"/><path class="a" d="M5.5,11.378a4,4,0,0,0-5,0"/><path class="a" d="M3,21a.25.25,0,1,1-.25.25A.25.25,0,0,1,3,21"/><path class="a" d="M18.108,9.068A5.241,5.241,0,0,0,14.5,7.5a5.241,5.241,0,0,0-3.608,1.568,1.305,1.305,0,0,0,0,1.865A5.24,5.24,0,0,0,14.5,12.5a5.24,5.24,0,0,0,3.608-1.567,1.305,1.305,0,0,0,0-1.865Z"/><path class="a" d="M14.5,9.75a.25.25,0,1,1-.25.25.25.25,0,0,1,.25-.25"/></svg>