<svg xmlns="http://www.w3.org/2000/svg" viewBox="0 0 24 24"><defs><style>.a{fill:none;stroke:#000;stroke-linecap:round;stroke-linejoin:round;}</style></defs><title>smart-house-window</title><path class="a" d="M19.071,2.5a2,2,0,0,1-2.828,0"/><path class="a" d="M21.192,4.622a5,5,0,0,1-7.071,0"/><path class="a" d="M23.314,6.743A8,8,0,0,1,12,6.743"/><path class="a" d="M14.5,12v9a1,1,0,0,1-1,1H1.5a1,1,0,0,1-1-1V9a1,1,0,0,1,1-1h8"/><line class="a" x1="7.5" y1="8" x2="7.5" y2="22"/><line class="a" x1="0.5" y1="15" x2="14.5" y2="15"/></svg>