<svg xmlns="http://www.w3.org/2000/svg" viewBox="0 0 24 24"><defs><style>.a{fill:none;stroke:#000;stroke-linecap:round;stroke-linejoin:round;}</style></defs><title>smart-house-call</title><polyline class="a" points="23.5 8.5 14.5 0.5 5.5 8.5"/><path class="a" d="M20.5,5.834V14.5a1,1,0,0,1-1,1H9.5a1,1,0,0,1-1-1V5.834"/><rect class="a" x="-1" y="17" width="8" height="5" rx="1" ry="1" transform="translate(22.5 16.5) rotate(90)"/><path class="a" d="M4.338,13.014a2,2,0,0,0-2.676,0"/><path class="a" d="M5.5,11.378a4,4,0,0,0-5,0"/><path class="a" d="M3,21a.25.25,0,1,1-.25.25A.25.25,0,0,1,3,21"/><path class="a" d="M15.249,13.423a1.486,1.486,0,0,1-.105-2.378l.358-.358a.913.913,0,0,1,1.292,0l1.549,1.55a.533.533,0,0,1-.176.871,5.325,5.325,0,0,1-6.94-6.941.533.533,0,0,1,.871-.176l1.55,1.55a.912.912,0,0,1,0,1.291l-.358.359a1.486,1.486,0,0,1-2.378-.105"/></svg>