<svg xmlns="http://www.w3.org/2000/svg" viewBox="0 0 24 24"><defs><style>.a{fill:none;stroke:#000;stroke-linecap:round;stroke-linejoin:round;}</style></defs><title>smart-house-phone</title><path class="a" d="M6.5,23.5h-2a2,2,0,0,1-2-2V2.5a2,2,0,0,1,2-2h10a2,2,0,0,1,2,2v14"/><line class="a" x1="2.5" y1="3.5" x2="16.5" y2="3.5"/><line class="a" x1="2.5" y1="20.5" x2="4.5" y2="20.5"/><path class="a" d="M9,23.5,6.847,20.92A1.5,1.5,0,1,1,9.154,19L11.5,21.824V12a1.5,1.5,0,0,1,3,0v6.5h3a4,4,0,0,1,4,4v1"/><path class="a" d="M5,10.5,8.711,7.614a1.355,1.355,0,0,1,1.578,0l1.211.942"/><path class="a" d="M6.5,11.5V14a.5.5,0,0,0,.5.5H9.5"/></svg>