<svg xmlns="http://www.w3.org/2000/svg" viewBox="0 0 24 24"><defs><style>.a{fill:none;stroke:#000;stroke-linecap:round;stroke-linejoin:round;}</style></defs><title>smart-house-phone-power-1</title><line class="a" x1="10.5" y1="7.006" x2="10.5" y2="10.006"/><path class="a" d="M12.975,8.469a3.5,3.5,0,1,1-4.95,0"/><rect class="a" x="16.5" y="11.506" width="7" height="12" rx="1" ry="1"/><line class="a" x1="16.5" y1="13.506" x2="23.5" y2="13.506"/><line class="a" x1="16.5" y1="21.506" x2="23.5" y2="21.506"/><path class="a" d="M3.5,8.006v9a.5.5,0,0,0,.5.5H14.5"/><path class="a" d="M17.5,5.662,11.305,1.1A1.49,1.49,0,0,0,9.681,1.08L.5,7.506"/><path class="a" d="M18.586,9.592a2,2,0,0,1,2.828,0"/><path class="a" d="M17.172,8.178a4,4,0,0,1,5.656,0"/></svg>