<svg xmlns="http://www.w3.org/2000/svg" viewBox="0 0 24 24"><defs><style>.a{fill:none;stroke:#000;stroke-linecap:round;stroke-linejoin:round;}</style></defs><title>smartwatch-shopping-cart</title><path class="a" d="M16,8l-1.88,5.171a.5.5,0,0,1-.47.329H10.071a.5.5,0,0,1-.459-.3l-1.072-3A.5.5,0,0,1,9,9.5h6.455"/><path class="a" d="M10.75,15a.25.25,0,1,1-.25.25.25.25,0,0,1,.25-.25"/><path class="a" d="M13.25,15a.25.25,0,1,1-.25.25.25.25,0,0,1,.25-.25"/><rect class="a" x="3.5" y="3.5" width="17" height="17" rx="2" ry="2"/><polygon class="a" points="16.5 3.5 7.5 3.5 8.5 0.5 15.5 0.5 16.5 3.5"/><polygon class="a" points="7.5 20.5 16.5 20.5 15.5 23.5 8.5 23.5 7.5 20.5"/></svg>