<svg xmlns="http://www.w3.org/2000/svg" viewBox="0 0 24 24"><defs><style>.a{fill:none;stroke:#000;stroke-linecap:round;stroke-linejoin:round;}</style></defs><title>smart-house-light-on</title><circle class="a" cx="6.5" cy="7.5" r="2"/><path class="a" d="M5.5,5.768V4A.5.5,0,0,1,6,3.5H7a.5.5,0,0,1,.5.5V5.768"/><polyline class="a" points="6.5 3.5 6.5 0.5 18.5 0.5 18.5 3.5"/><path class="a" d="M20.2,3.9c.168-.218.08-.4-.2-.4H17c-.275,0-.363.178-.2.4L18.2,5.7a.366.366,0,0,0,.61,0Z"/><path class="a" d="M19.914,7.914a2,2,0,0,1-2.828,0"/><path class="a" d="M21.328,9.329a4,4,0,0,1-5.656,0"/><path class="a" d="M22.743,10.743a6,6,0,0,1-8.486,0"/><line class="a" x1="6.5" y1="11.5" x2="6.5" y2="13"/><line class="a" x1="9.5" y1="10.5" x2="10.5" y2="11.5"/><line class="a" x1="10.5" y1="7.5" x2="12" y2="7.5"/><line class="a" x1="3.5" y1="10.5" x2="2.5" y2="11.5"/><line class="a" x1="2.5" y1="7.5" x2="1" y2="7.5"/><circle class="a" cx="13" cy="16.75" r="2.25"/><path class="a" d="M17.5,23.5a4.645,4.645,0,0,0-9,0Z"/></svg>