<svg id="Light" xmlns="http://www.w3.org/2000/svg" viewBox="0 0 24 24"><defs><style>.cls-1{fill:none;stroke:#000;stroke-linecap:round;stroke-linejoin:round;}</style></defs><title>snail</title><path class="cls-1" d="M8.689,15.5c-1.454-.119-2.189-.686-2.189-3"/><path class="cls-1" d="M14.5,20h9A3.6,3.6,0,0,0,20,17h-.3"/><path class="cls-1" d="M14.5,20h-8a6,6,0,0,1-6-6V11"/><circle class="cls-1" cx="14.5" cy="14" r="6"/><path class="cls-1" d="M14.5,20a4,4,0,0,1,0-8,2,2,0,0,1,0,4,1,1,0,0,1,0-2"/><line class="cls-1" x1="6.5" y1="11" x2="6.5" y2="12.5"/><path class="cls-1" d="M.5,11a3,3,0,0,1,6,0"/><path class="cls-1" d="M2.5,10.75a.25.25,0,0,1,.25.25"/><path class="cls-1" d="M2.25,11a.25.25,0,0,1,.25-.25"/><path class="cls-1" d="M2.5,11.25A.25.25,0,0,1,2.25,11"/><path class="cls-1" d="M2.75,11a.25.25,0,0,1-.25.25"/><path class="cls-1" d="M4.5,10.75a.25.25,0,0,1,.25.25"/><path class="cls-1" d="M4.25,11a.25.25,0,0,1,.25-.25"/><path class="cls-1" d="M4.5,11.25A.25.25,0,0,1,4.25,11"/><path class="cls-1" d="M4.75,11a.25.25,0,0,1-.25.25"/><line class="cls-1" x1="1.498" y1="6" x2="1.5" y2="8.765"/><line class="cls-1" x1="5.498" y1="6" x2="5.5" y2="8.765"/><circle class="cls-1" cx="1.5" cy="5" r="1"/><circle class="cls-1" cx="5.5" cy="5" r="1"/></svg>