<svg id="Light" xmlns="http://www.w3.org/2000/svg" viewBox="0 0 24 24"><defs><style>.cls-1{fill:none;stroke:#000;stroke-linecap:round;stroke-linejoin:round;}</style></defs><title>snail-1</title><path class="cls-1" d="M14.5,19.5h9a3.6,3.6,0,0,0-3.5-3h-.3"/><path class="cls-1" d="M14.5,19.5h-8a6,6,0,0,1-6-6c0-3.5,3.5-3.5,5-1a4.293,4.293,0,0,0,3.143,2.307"/><circle class="cls-1" cx="14.502" cy="13.5" r="6"/><path class="cls-1" d="M14.5,19.5a4,4,0,0,1,0-8,2,2,0,0,1,0,4,1,1,0,0,1,0-2"/><path class="cls-1" d="M3,13.25a.25.25,0,0,1,.25.25"/><path class="cls-1" d="M2.748,13.5A.249.249,0,0,1,3,13.25"/><path class="cls-1" d="M3,13.75a.249.249,0,0,1-.25-.25"/><path class="cls-1" d="M3.248,13.5a.25.25,0,0,1-.25.25"/><line class="cls-1" x1="1.5" y1="6.5" x2="3.002" y2="10.734"/><line class="cls-1" x1="5.498" y1="6.5" x2="3.002" y2="10.734"/><circle class="cls-1" cx="1.5" cy="5.5" r="1"/><circle class="cls-1" cx="5.498" cy="5.5" r="1"/></svg>