<svg xmlns="http://www.w3.org/2000/svg" viewBox="0 0 24 24"><defs><style>.a{fill:none;stroke:#000;stroke-linecap:round;stroke-linejoin:round;}</style></defs><title>social-media-google-plus-1</title><path class="a" d="M13.5,6.55A7.75,7.75,0,1,0,8.25,20c5.25,0,7.25-3.75,7.25-7.75q0-.38-.035-.749H8.5v2h4.812A4.721,4.721,0,0,1,8.25,18,5.75,5.75,0,1,1,12.025,7.913Z"/><polygon class="a" points="23.5 11.5 21.5 11.5 21.5 9.5 19.5 9.5 19.5 11.5 17.5 11.5 17.5 13.5 19.5 13.5 19.5 15.5 21.5 15.5 21.5 13.5 23.5 13.5 23.5 11.5"/></svg>