<svg xmlns="http://www.w3.org/2000/svg" viewBox="0 0 24 24"><defs><style>.a{fill:none;stroke:#000;stroke-linecap:round;stroke-linejoin:round;}</style></defs><title>social-music-rdio</title><path class="a" d="M12.5,8.269a5.294,5.294,0,0,0-4.553.777c-2.66,1.909-2.159,3.913-2.159,3.913s.124,3.166,3.878,3.166A4.735,4.735,0,0,0,14.5,12.3V3.564c4.058,2,5.436,3.307,8.594,3.225,0,0,.406-.086.406.722a2.047,2.047,0,0,1-.595,1.409,5.339,5.339,0,0,1-2.536,1.836,9.226,9.226,0,0,1,.1,1.328,9.789,9.789,0,0,1-9.984,9.582A9.788,9.788,0,0,1,.5,12.084,9.788,9.788,0,0,1,10.481,2.5a9.957,9.957,0,0,1,2.019.123Z"/></svg>