<svg xmlns="http://www.w3.org/2000/svg" viewBox="0 0 24 24"><defs><style>.a{fill:none;stroke:#000;stroke-linecap:round;stroke-linejoin:round;}</style></defs><title>social-media-hyves</title><path class="a" d="M21.4,2.757c-.144.445-1.323.648-1.582.98-.448.569-.279,2.338-.279,3.526v9.512a5.575,5.575,0,0,0,.094,1.763c.169.168.777.06,1.019.138,4.942,1.59-6.8,5.785-6.159,1.391.05-.347.345-.534.744-.7.269-.107.885-.046,1.114-.277.294-.289.067-1.5.044-2.178,0-.12.024-2.231-.044-2.326-.415-.531-7.531.733-8.094,1.585a14.936,14.936,0,0,0,.052,3.846c.189.3.972.166,1.154.23a1.681,1.681,0,0,1,1.029,1.534c-.187,1.519-7.185,2.937-6.884.048.052-.5.763-.8,1.26-.977.157-.058.465-.078.55-.184.19-.226.075-1.188,0-1.761-.205-1.7-.25-3.766-.277-5.52C5.113,11.3,5,9.844,5,7.678a6.331,6.331,0,0,0-.09-1.81c-.176-.217-.737-.179-1.07-.321C-1.9,3.078,12.815-.084,10.118,4.382c-.335.554-1.629.435-1.907.887a4.841,4.841,0,0,0-.1,1.484c0,1.808-.228,3.071-.09,4.916.019.27.106,1.117.283,1.205l8-1.3c.383-.32.146-1.263.09-1.717a15.23,15.23,0,0,1,0-3.714c.057-.509.218-1.491-.045-1.764-.168-.172-.826-.2-1.024-.279C9.476,1.654,22.978-1.866,21.4,2.757Z"/></svg>