<svg xmlns="http://www.w3.org/2000/svg" viewBox="0 0 24 24"><defs><style>.a{fill:none;stroke:#000;stroke-linecap:round;stroke-linejoin:round;}</style></defs><title>social-media-slide-share</title><path class="a" d="M12.088,17.946c1.548,0-.452,5.474,3.548,5.474a4.2,4.2,0,0,0,3.489-6.533c-.715-1.278,3.852-2.529,3.852-4.387a20.14,20.14,0,0,1-8.121,1.824c-2.3,0-2.768,1.086-2.768,1.086s-.472-1.088-2.769-1.086A21.224,21.224,0,0,1,1,12.471c0,1.858,4.763,3.138,4.049,4.416A4.2,4.2,0,0,0,8.54,23.42C12.54,23.42,10.54,17.946,12.088,17.946Z"/><path class="a" d="M21.04,13.261V2.5a2,2,0,0,0-2-2h-14a2,2,0,0,0-2,2V13.254"/><circle class="a" cx="15.54" cy="9.5" r="3"/><circle class="a" cx="8.54" cy="9.5" r="3"/></svg>