<svg xmlns="http://www.w3.org/2000/svg" viewBox="0 0 24 24"><defs><style>.a{fill:none;stroke:#000;stroke-linecap:round;stroke-linejoin:round;}</style></defs><title>social-media-gowalla-1</title><path class="a" d="M3.9,6.672A10.573,10.573,0,0,1,1.15,3.734,1.3,1.3,0,0,1,3.1,2.042C4.535,3.064,5.812,4.66,5.078,5.331S3.769,4.757,3.9,3.223,4.631.381,5.556.509,7.026,1.563,6.291,6c0,.032,8.366.829,8.271,8.4,0,1.373-2.1,2.3-2.469,2.3a2.523,2.523,0,0,1-.981,3.928c-2.522,1.309-5.938,2.012-6.45.415S7.505,17.593,9.453,18.1a3.774,3.774,0,0,1,.191-4.98c1.852-1.82,5.3.765,6.8,1.724s1.6,1.086,3.258.447,2.075-.7,2.777-.957,1.725.127.32,1.468-5.429,3.8-12.135,4.216a4.85,4.85,0,0,1-4.918-4.056c-.192-1.723.256-3.226.99-3.736s1.79.923.479,1.149a7.333,7.333,0,0,1-3-.128c0,.638-.256,2.013-1.374,1.246s.256-1.724.735-2.044,3.1-1.755,1.948-4.087c-.415.99-1.693,2.959-3.162,3.47C.589,12.452-.1,10.309,1.112,9A16.9,16.9,0,0,1,3.9,6.672Z"/></svg>