<svg xmlns="http://www.w3.org/2000/svg" viewBox="0 0 24 24"><defs><style>.a{fill:none;stroke:#000;stroke-linecap:round;stroke-linejoin:round;}</style></defs><title>social-music-soundcloud</title><path class="a" d="M12.83,17.484c.193,0,7.791,0,7.841,0a2.829,2.829,0,1,0-1.094-5.439,4.992,4.992,0,0,0-6.78-4.21c-.215.082-.272.167-.274.332V17.15A.333.333,0,0,0,12.83,17.484Z"/><line class="a" x1="10.523" y1="8.478" x2="10.523" y2="17.484"/><line class="a" x1="8.523" y1="9.478" x2="8.523" y2="17.484"/><line class="a" x1="6.523" y1="9.978" x2="6.523" y2="17.484"/><line class="a" x1="4.523" y1="11.978" x2="4.523" y2="17.484"/><line class="a" x1="2.523" y1="11.978" x2="2.523" y2="17.484"/><line class="a" x1="0.523" y1="12.981" x2="0.523" y2="16.972"/></svg>