<svg xmlns="http://www.w3.org/2000/svg" viewBox="0 0 24 24"><defs><style>.a{fill:none;stroke:#000;stroke-linecap:round;stroke-linejoin:round;}</style></defs><title>social-media-irc-galleria</title><path class="a" d="M13.359,12.731c.637,1.12,1.786,1.178,3.033.752a.2.2,0,0,1,.3.143,15.637,15.637,0,0,1,.043,1.757c0,.2.256.254.44.3a2.705,2.705,0,0,0,2.453-.737,3.62,3.62,0,0,0,.8-3.615,2.962,2.962,0,0,0-3.078-1.87,3.146,3.146,0,0,0-1.871.85c-.808.751-1.432,1.559-2.027,2.04-.142.115-.184.214-.085.384Zm3.53-1.623a.5.5,0,1,1-.5.5h0a.5.5,0,0,1,.5-.5M6.526,14.46c1.432-.028,3.26-.339,3.984-1.615a.254.254,0,0,0-.086-.383C9.829,11.98,9.205,11.173,8.4,10.42a3.147,3.147,0,0,0-1.87-.851,2.991,2.991,0,0,0-3.077,1.887,3.632,3.632,0,0,0,.8,3.615,2.712,2.712,0,0,0,2.735.651c.169-.055.285-.114.1-.283-.155-.141-.581-.468-.667-.723-.042-.141-.057-.256.114-.256Zm.453-3.235a.5.5,0,1,1,0,1h0a.5.5,0,0,1,0-1"/><path class="a" d="M11.648,14.641c1.639,2.293,3.837,3.5,6.193,3.3,3.041-.43,5.348-2.2,5.635-5.51.144-1.752-.349-4.824-4.759-4.824a8.936,8.936,0,0,0-6.369,3.2C10.709,8.512,8.495,7.319,6.155,7.524,3.1,7.955.79,9.721.518,13.018c-.143,1.766.351,4.824,4.746,4.824a8.946,8.946,0,0,0,6.384-3.2Z"/></svg>