<svg id="Light" xmlns="http://www.w3.org/2000/svg" viewBox="0 0 24 24"><defs><style>.cls-1{fill:none;stroke:#000;stroke-linecap:round;stroke-linejoin:round;}</style></defs><title>sofa-double-modern</title><path class="cls-1" d="M22,9.5c-.919,0-1.26-2.519-1.671-3.342A3,3,0,0,0,17.646,4.5H6.354A3,3,0,0,0,3.671,6.158C3.26,6.981,2.919,9.5,2,9.5"/><line class="cls-1" x1="4.428" y1="12.5" x2="19.572" y2="12.5"/><line class="cls-1" x1="7.508" y1="17.484" x2="6.5" y2="19.5"/><line class="cls-1" x1="16.492" y1="17.484" x2="17.5" y2="19.5"/><path class="cls-1" d="M10.5,10.5v-2a.5.5,0,0,0-.638-.48,6.75,6.75,0,0,1-3.723,0A.5.5,0,0,0,5.5,8.5v2"/><path class="cls-1" d="M18.5,10.5v-2a.5.5,0,0,0-.638-.48,6.75,6.75,0,0,1-3.723,0,.5.5,0,0,0-.639.48v2"/><path class="cls-1" d="M22.431,9.563a1.5,1.5,0,0,0-1.866,1c-.05.161-1.257,3.937-4.565,3.937H8c-3.308,0-4.515-3.776-4.565-3.937a1.5,1.5,0,0,0-2.872.868C.638,11.679,2.448,17.5,8,17.5h8c5.552,0,7.362-5.821,7.437-6.069A1.5,1.5,0,0,0,22.431,9.563Z"/></svg>