<svg id="Light" xmlns="http://www.w3.org/2000/svg" viewBox="0 0 24 24"><defs><style>.cls-1{fill:none;stroke:#000;stroke-linecap:round;stroke-linejoin:round;}</style></defs><title>soft-drinks-juice</title><path class="cls-1" d="M13.5,1.064V7a2.633,2.633,0,0,0,1,2.5,5.566,5.566,0,0,1,2,4v9a1,1,0,0,1-1,1h-7a1,1,0,0,1-1-1v-9a5.566,5.566,0,0,1,2-4,2.633,2.633,0,0,0,1-2.5V1.064"/><rect class="cls-1" x="7.5" y="14.5" width="9" height="5"/><path class="cls-1" d="M13.5,3.5h-3V1A.5.5,0,0,1,11,.5h2a.5.5,0,0,1,.5.5Z"/></svg>