<svg id="Light" xmlns="http://www.w3.org/2000/svg" viewBox="0 0 24 24"><defs><style>.cls-1{fill:none;stroke:#000;stroke-linecap:round;stroke-linejoin:round;}</style></defs><title>soft-drinks-bottle-heart</title><path class="cls-1" d="M12,19.65s3.5-2.52,3.5-4.387c0-2.154-2.863-2.835-3.5-.215-.637-2.62-3.5-1.939-3.5.215C8.5,17.13,12,19.65,12,19.65Z"/><path class="cls-1" d="M15.5,3.5h-7v-2a1,1,0,0,1,1-1h5a1,1,0,0,1,1,1Z"/><path class="cls-1" d="M9.5,3.5V8c-3,1-4,3.5-4,6.5v8a1,1,0,0,0,1,1h11a1,1,0,0,0,1-1v-8c0-3-1-5.5-4-6.5V3.5"/></svg>