<svg xmlns="http://www.w3.org/2000/svg" viewBox="0 0 24 24"><defs><style>.a{fill:none;stroke:#000;stroke-linecap:round;stroke-linejoin:round;}</style></defs><title>spa-soap</title><path class="a" d="M21.286,17.717a1.816,1.816,0,0,0-2.749-.215,1.825,1.825,0,0,0-1.552-2.444,1.823,1.823,0,0,0-1.558,2.419,1.8,1.8,0,0,0-2.715.24,1.873,1.873,0,0,0,1.705,2.662,1.792,1.792,0,0,0-.377,2.662A1.86,1.86,0,0,0,17,22.113a1.86,1.86,0,0,0,2.959.928,1.792,1.792,0,0,0-.377-2.662A1.874,1.874,0,0,0,21.286,17.717Z"/><circle class="a" cx="16.999" cy="19.5" r="1.488"/><path class="a" d="M12,23.5H4.5a2,2,0,0,1-2-2V8.5a2,2,0,0,1,2-2h8a2,2,0,0,1,2,2V14"/><path class="a" d="M10.5,6.5,9.625,4.314A.5.5,0,0,0,9.161,4H7.838a.5.5,0,0,0-.465.314L6.5,6.5"/><line class="a" x1="8.499" y1="0.5" x2="8.499" y2="4"/><path class="a" d="M12,.5H5.471A1,1,0,0,0,4.7.864L2.937,3"/></svg>