<svg xmlns="http://www.w3.org/2000/svg" viewBox="0 0 24 24"><defs><style>.a{fill:none;stroke:#000;stroke-linecap:round;stroke-linejoin:round;}</style></defs><title>spa-hand-flower-1</title><path class="a" d="M12,17.5h3a4,4,0,0,1,4,4H1"/><path class="a" d="M1,13.5H8a4,4,0,0,1,4,4H7.5"/><line class="a" x1="1" y1="12.5" x2="1" y2="22.5"/><circle class="a" cx="17.355" cy="7.317" r="1.771"/><path class="a" d="M22.888,5.52A2.275,2.275,0,0,0,19.58,4.255a2.276,2.276,0,1,0-4.451,0,2.276,2.276,0,1,0-1.375,4.232,2.276,2.276,0,1,0,3.6,2.615,2.276,2.276,0,1,0,3.6-2.615A2.276,2.276,0,0,0,22.888,5.52Z"/></svg>