<svg xmlns="http://www.w3.org/2000/svg" viewBox="0 0 24 24"><defs><style>.a{fill:none;stroke:#000;stroke-linecap:round;stroke-linejoin:round;}</style></defs><title>spa-lotus</title><path class="a" d="M15.052,8.391c0,3.878-3.053,7.022-3.053,7.022S8.947,12.269,8.947,8.391a11.056,11.056,0,0,1,2.667-6.58.5.5,0,0,1,.771,0A11.053,11.053,0,0,1,15.052,8.391Z"/><path class="a" d="M14.307,4.87a10.8,10.8,0,0,1,2.9-1.676.5.5,0,0,1,.665.347c.315,1.273.938,4.61-.314,7.319C15.979,14.285,12,15.413,12,15.413"/><path class="a" d="M18.3,7.354a9.879,9.879,0,0,1,3.35.095.5.5,0,0,1,.394.579c-.224,1.239-1.024,4.616-3.279,6.367-2.8,2.169-6.77,1.018-6.77,1.018"/><path class="a" d="M9.788,4.949a10.769,10.769,0,0,0-3-1.755.5.5,0,0,0-.665.347c-.315,1.274-.938,4.61.314,7.319C8.02,14.285,12,15.413,12,15.413"/><path class="a" d="M5.724,7.358a9.894,9.894,0,0,0-3.379.09.5.5,0,0,0-.394.58C2.176,9.267,2.975,12.644,5.23,14.4,8.026,16.564,12,15.413,12,15.413s0-.026-.01-.077"/><path class="a" d="M19.6,13.621c2.39.91,3.9,2.25,3.9,3.75,0,1.316-1.17,2.51-3.076,3.4a.5.5,0,0,1-.389.015l-3.9-1.485a.5.5,0,0,0-.633.673l.642,1.421a.5.5,0,0,1-.382.7A25.7,25.7,0,0,1,12,22.371c-6.35,0-11.5-2.24-11.5-5,0-1.5,1.51-2.84,3.9-3.75"/></svg>