<svg xmlns="http://www.w3.org/2000/svg" viewBox="0 0 24 24"><defs><style>.a{fill:none;stroke:#000;stroke-linecap:round;stroke-linejoin:round;}</style></defs><title>spa-candle-flower</title><path class="a" d="M22.475,17.649a1.818,1.818,0,0,0-2.749-.214,1.825,1.825,0,0,0-1.552-2.445,1.821,1.821,0,0,0-1.558,2.419,1.8,1.8,0,0,0-2.715.24,1.874,1.874,0,0,0,1.705,2.662,1.793,1.793,0,0,0-.377,2.664,1.861,1.861,0,0,0,2.959-.929,1.861,1.861,0,0,0,2.959.929,1.791,1.791,0,0,0-.377-2.664A1.874,1.874,0,0,0,22.475,17.649Z"/><path class="a" d="M19.676,19.432a1.489,1.489,0,1,1-1.488-1.488A1.488,1.488,0,0,1,19.676,19.432Z"/><path class="a" d="M11.688,23.5V21a.5.5,0,0,0-.5-.5h-5a.5.5,0,0,0-.5.5v2.5"/><path class="a" d="M9.294,11.755a.5.5,0,0,0-.763.561,2.892,2.892,0,0,1-.2,2.285,2.294,2.294,0,0,1-.573-.622.5.5,0,0,0-.7-.18,2.554,2.554,0,0,0-1.247,2.242,2.879,2.879,0,0,0,5.758,0A5.309,5.309,0,0,0,9.294,11.755Z"/><path class="a" d="M15.174,13.41c-.615-1.445-1.929-3.836-2.9-5.558a3,3,0,0,1,.6-3.7l1.657-1.5a.5.5,0,0,0,.165-.371V1a.5.5,0,0,0-.5-.5h-11a.5.5,0,0,0-.5.5V2.271a.5.5,0,0,0,.173.379L4.649,4.2a3,3,0,0,1,.7,3.647C2.934,12.52-2.026,23.5,4.688,23.5h7.5"/></svg>