<svg xmlns="http://www.w3.org/2000/svg" viewBox="0 0 24 24"><defs><style>.a{fill:none;stroke:#000;stroke-linecap:round;stroke-linejoin:round;}</style></defs><title>spa-hand-flower</title><rect class="a" x="0.5" y="13.531" width="4" height="8" rx="0.5" ry="0.5"/><path class="a" d="M4.5,20.094c10.5,3.5,7,3.5,19-2.5a2.758,2.758,0,0,0-3-1l-4.316,1.367"/><path class="a" d="M4.5,14.531h3c2.353,0,4,2,4.5,2h3.5c1,0,1,2,0,2H10"/><circle class="a" cx="16" cy="7.349" r="1.771"/><path class="a" d="M21.533,5.551a2.274,2.274,0,0,0-3.307-1.265,2.277,2.277,0,1,0-4.452,0A2.276,2.276,0,1,0,12.4,8.519,2.276,2.276,0,1,0,16,11.134a2.276,2.276,0,1,0,3.6-2.615A2.277,2.277,0,0,0,21.533,5.551Z"/></svg>