<svg xmlns="http://www.w3.org/2000/svg" viewBox="0 0 24 24"><defs><style>.a{fill:none;stroke:#000;stroke-linecap:round;stroke-linejoin:round;}</style></defs><title>spa-therapist-robe</title><path class="a" d="M22.5,8a6,6,0,0,0-6-6h-9a6,6,0,0,0-6,6V20a2,2,0,0,0,2,2h17a2,2,0,0,0,2-2Z"/><path class="a" d="M14.5,22V13.33a2,2,0,0,0-1.654-1.966C8.627,10.622,6.568,9.377,6.5,2.082"/><path class="a" d="M11.75,11.062s5.616.381,5.747-8.98"/><path class="a" d="M9.217,15.934A3.8,3.8,0,0,1,8,18.367a3.8,3.8,0,0,1-1.217-2.433A3.8,3.8,0,0,1,8,13.5,3.8,3.8,0,0,1,9.217,15.934Z"/><path class="a" d="M10.633,19.058A3.8,3.8,0,0,1,8,18.367a3.792,3.792,0,0,1,2.131-1.691,3.789,3.789,0,0,1,2.633.688A3.8,3.8,0,0,1,10.633,19.058Z"/><path class="a" d="M5.367,19.058A3.8,3.8,0,0,0,8,18.367a3.792,3.792,0,0,0-2.131-1.691,3.789,3.789,0,0,0-2.633.688A3.8,3.8,0,0,0,5.367,19.058Z"/></svg>