<svg xmlns="http://www.w3.org/2000/svg" viewBox="0 0 24 24"><defs><style>.a{fill:none;stroke:#000;stroke-linecap:round;stroke-linejoin:round;}</style></defs><title>space-rocket-launch</title><polygon class="a" points="4.999 4.107 0.999 0.505 0.999 23.505 4.999 23.505 4.999 4.107"/><line class="a" x1="4.999" y1="8.505" x2="8.999" y2="8.505"/><path class="a" d="M16,18.5s-1-12-1-13c0-1.5,2.5-5,2.5-5s2.5,3.5,2.5,5c0,2-1,13-1,13Z"/><path class="a" d="M19.49,12.857,20,13.5A34.047,34.047,0,0,1,22.5,17a6.806,6.806,0,0,1,.5,2.5V21.32a.5.5,0,0,1-.849.358L19,18.492"/><path class="a" d="M15.537,12.839,15,13.5A32.858,32.858,0,0,0,12.459,17,6.785,6.785,0,0,0,12,19.5v1.811a.5.5,0,0,0,.852.355l3.141-3.229"/><path class="a" d="M18.5,21a11.588,11.588,0,0,1-1,2.5,11.588,11.588,0,0,1-1-2.5,1,1,0,0,1,2,0Z"/><polyline class="a" points="4.999 5.607 0.999 9.607 4.999 13.357 0.999 17.107 4.999 21.107"/><path class="a" d="M11.5,11.107a2.5,2.5,0,0,1,0-5"/></svg>