<svg xmlns="http://www.w3.org/2000/svg" viewBox="0 0 24 24"><defs><style>.a{fill:none;stroke:#000;stroke-linecap:round;stroke-linejoin:round;}</style></defs><title>space-base</title><path class="a" d="M2.952,21.26v-7a1,1,0,0,1,1-1h13a1,1,0,0,1,1,1v7"/><path class="a" d="M16.952,13.26a6.5,6.5,0,0,0-13,0"/><path class="a" d="M19.367,23.26H1.536a.493.493,0,0,1-.487-.62,2,2,0,0,1,1.9-1.38h15a2,2,0,0,1,1.9,1.38A.493.493,0,0,1,19.367,23.26Z"/><path class="a" d="M10.452,6.76V4.819a1,1,0,0,1,1.117-.994,9.5,9.5,0,0,1,8.317,8.318,1,1,0,0,1-.993,1.117H16.952"/><line class="a" x1="20.542" y1="5.998" x2="18.433" y2="8.107"/><line class="a" x1="15.605" y1="5.278" x2="17.713" y2="3.171"/><path class="a" d="M17.5,2.214h5a.5.5,0,0,1,.5.5v.5a2,2,0,0,1-2,2H19a2,2,0,0,1-2-2v-.5a.5.5,0,0,1,.5-.5Z" transform="translate(8.484 -13.052) rotate(45)"/><path class="a" d="M8.452,21.26v-4.5a.5.5,0,0,1,.5-.5h3a.5.5,0,0,1,.5.5v4.5"/><path class="a" d="M5.452,17.51a.25.25,0,0,1,.25.25"/><path class="a" d="M5.2,17.76a.249.249,0,0,1,.25-.25"/><path class="a" d="M5.452,18.01a.249.249,0,0,1-.25-.25"/><path class="a" d="M5.7,17.76a.25.25,0,0,1-.25.25"/><path class="a" d="M15.452,17.51a.25.25,0,0,1,.25.25"/><path class="a" d="M15.2,17.76a.249.249,0,0,1,.25-.25"/><path class="a" d="M15.452,18.01a.249.249,0,0,1-.25-.25"/><path class="a" d="M15.7,17.76a.25.25,0,0,1-.25.25"/></svg>