<svg xmlns="http://www.w3.org/2000/svg" viewBox="0 0 24 24"><defs><style>.a{fill:none;stroke:#000;stroke-linecap:round;stroke-linejoin:round;}</style></defs><title>space-rocket-2</title><path class="a" d="M14,20H10V8a3.32,3.32,0,0,1,2-2.5A3.32,3.32,0,0,1,14,8Z"/><path class="a" d="M3,16.847V8.5a1.5,1.5,0,0,1,3,0v6.676"/><path class="a" d="M8,14.088V5C8,2.791,10.5.5,12,.5S16,2.791,16,5v9.088"/><path class="a" d="M10,13,3.5,16.536a3.243,3.243,0,0,0-2,2.964l8.5,0"/><path class="a" d="M14,19.5l8.5,0a3.245,3.245,0,0,0-2-2.964L14,13"/><line class="a" x1="12" y1="9.5" x2="12" y2="11.5"/><path class="a" d="M3,19.5l-.842,2.526A.339.339,0,0,0,2.5,22.5h4a.339.339,0,0,0,.342-.474L6,19.5"/><path class="a" d="M21,16.847V8.5a1.5,1.5,0,0,0-3,0v6.676"/><path class="a" d="M21,19.5l.842,2.526a.339.339,0,0,1-.342.474h-4a.339.339,0,0,1-.342-.474L18,19.5"/><path class="a" d="M10.066,20l-.92,3.022A.35.35,0,0,0,9.5,23.5h5a.352.352,0,0,0,.356-.479L13.948,20"/></svg>