<svg xmlns="http://www.w3.org/2000/svg" viewBox="0 0 24 24"><defs><style>.a{fill:none;stroke:#000;stroke-linecap:round;stroke-linejoin:round;}</style></defs><title>speech-translate-1</title><line class="a" x1="19.5" y1="11.5" x2="4.5" y2="11.5"/><line class="a" x1="12" y1="11.5" x2="12" y2="7"/><path class="a" d="M16,11.5c0,1-2.463,8.556-10.5,12"/><path class="a" d="M8,11.5c0,1,2.463,8.556,10.5,12"/><path class="a" d="M3.5,9.5a6,6,0,0,1,6-6"/><path class="a" d="M.5,9.5a9,9,0,0,1,9-9"/><path class="a" d="M20.5,9.5a6,6,0,0,0-6-6"/><path class="a" d="M23.5,9.5a9,9,0,0,0-9-9"/></svg>