<svg xmlns="http://www.w3.org/2000/svg" viewBox="0 0 24 24"><defs><style>.a{fill:none;stroke:#000;stroke-linecap:round;stroke-linejoin:round;}</style></defs><title>speech-translate</title><line class="a" x1="3.5" y1="23.5" x2="7.5" y2="23.5"/><path class="a" d="M18.5,23.5,12.463,8.64a.5.5,0,0,0-.926,0L5.5,23.5"/><line class="a" x1="20.5" y1="23.5" x2="16.5" y2="23.5"/><line class="a" x1="8" y1="17.5" x2="16" y2="17.5"/><path class="a" d="M3.5,9.5a6,6,0,0,1,6-6"/><path class="a" d="M.5,9.5a9,9,0,0,1,9-9"/><path class="a" d="M20.5,9.5a6,6,0,0,0-6-6"/><path class="a" d="M23.5,9.5a9,9,0,0,0-9-9"/></svg>