<svg id="Light" xmlns="http://www.w3.org/2000/svg" viewBox="0 0 24 24"><defs><style>.cls-1{fill:none;stroke:#000;stroke-linecap:round;stroke-linejoin:round;}</style></defs><title>spirits-glass</title><path class="cls-1" d="M10,23.5H2.723a1.5,1.5,0,0,1-1.478-1.24A57.254,57.254,0,0,1,.5,14.5c0-3,5-3.5,5-5.5V3.5"/><path class="cls-1" d="M8.5,3.5V9c0,.83.861,1.4,1.869,2"/><path class="cls-1" d="M8.5,3.5h-3V1A.5.5,0,0,1,6,.5H8a.5.5,0,0,1,.5.5Z"/><rect class="cls-1" x="3.5" y="15.5" width="7" height="5" rx="0.5" ry="0.5"/><path class="cls-1" d="M23,12.5a.5.5,0,0,1,.5.5v8.847c0,.909-1.209,1.653-2.129,1.653H14.68c-.921,0-2.18-.744-2.18-1.653V13a.5.5,0,0,1,.5-.5Z"/><line class="cls-1" x1="12.508" y1="16.5" x2="23.5" y2="16.5"/><line class="cls-1" x1="15.25" y1="18.5" x2="15.25" y2="18.5"/><path class="cls-1" d="M15.25,18.5a.25.25,0,1,0,.25.25.25.25,0,0,0-.25-.25"/><line class="cls-1" x1="20.75" y1="18.5" x2="20.75" y2="18.5"/><path class="cls-1" d="M20.75,18.5a.25.25,0,1,0,.25.25.25.25,0,0,0-.25-.25"/><line class="cls-1" x1="18" y1="21" x2="18" y2="21"/><path class="cls-1" d="M18,21a.25.25,0,1,0,.25.25A.25.25,0,0,0,18,21"/></svg>