<svg xmlns="http://www.w3.org/2000/svg" viewBox="0 0 24 24"><defs><style>.a{fill:none;stroke:#000;stroke-linecap:round;stroke-linejoin:round;}</style></defs><title>sports-car</title><circle class="a" cx="19.5" cy="15.5" r="2"/><line class="a" x1="5.5" y1="15.5" x2="0.5" y2="15.5"/><circle class="a" cx="7.5" cy="15.5" r="2"/><line class="a" x1="17.5" y1="15.5" x2="9.5" y2="15.5"/><path class="a" d="M1.5,15.5V11a.5.5,0,0,1,.5-.5H3.5l7-4h4.264a2,2,0,0,1,1.789,1.106L18,10.5h4A1.5,1.5,0,0,1,23.5,12v3a.5.5,0,0,1-.5.5H21.5"/><line class="a" x1="2.5" y1="10.5" x2="2.5" y2="8.5"/><line class="a" x1="3.468" y1="8.75" x2="0.564" y2="8"/><path class="a" d="M18,10.5H13.386a2,2,0,0,1-1.873-1.3L10.5,6.5"/></svg>