<svg id="Light" xmlns="http://www.w3.org/2000/svg" viewBox="0 0 24 24"><defs><style>.cls-1{fill:none;stroke:#000;stroke-linecap:round;stroke-linejoin:round;}</style></defs><title>sport-horse-riding</title><circle class="cls-1" cx="14.056" cy="4.75" r="2.5"/><path class="cls-1" d="M.556,16.25a2,2,0,0,1,1.478-1.931"/><path class="cls-1" d="M16.268,10.907a19.346,19.346,0,0,1,3.1-2.543.128.128,0,0,1,.127,0,.124.124,0,0,1,.064.11V10.25l3.654,2.284a.5.5,0,0,1,.2.6l-.251.672a1,1,0,0,1-1.107.407l-2.5-.461a11.828,11.828,0,0,0-2,6.5"/><path class="cls-1" d="M7.555,21.75a1.5,1.5,0,0,1-1.366-2.117L7.108,17.6a1.5,1.5,0,0,0-.488-1.462L4.58,14.389a1.5,1.5,0,0,1,.039-2.31l5-4a1.5,1.5,0,0,1,2.317.58l1.1,2.576a1.517,1.517,0,0,0,.636.712l2.125,1.5a1.5,1.5,0,1,1-1.488,2.606l-2.126-1.5a4.535,4.535,0,0,1-1.9-2.133l-.328-.766L7.91,13.29l.664.569a4.508,4.508,0,0,1,1.4,4.652,1.789,1.789,0,0,1-.075.205l-.972,2.15A1.505,1.505,0,0,1,7.555,21.75Z"/><line class="cls-1" x1="11.831" y1="3.61" x2="18.426" y2="5.45"/></svg>