<svg xmlns="http://www.w3.org/2000/svg" viewBox="0 0 24 24"><defs><style>.a{fill:none;stroke:#000;stroke-linecap:round;stroke-linejoin:round;}</style></defs><title>sports-car-1</title><line class="a" x1="14.767" y1="16" x2="7.231" y2="16"/><path class="a" d="M3.741,15.951A3.85,3.85,0,0,1,.5,12.149V10a.674.674,0,0,1,.485-.621L2.5,9H4.465a10.678,10.678,0,0,1,3.2.553A9.753,9.753,0,0,0,10.581,10H15c4.082,0,6.518.823,8.055,2.841a2.136,2.136,0,0,1-.408,3.013.5.5,0,0,1-.354.146H18.23"/><path class="a" d="M19.5,10.5A13.162,13.162,0,0,0,11,7,18.62,18.62,0,0,0,2.5,9"/><line class="a" x1="23.494" y1="14" x2="21.5" y2="14"/><line class="a" x1="0.5" y1="11" x2="2.5" y2="11"/><path class="a" d="M14.768,14H11.5a1.616,1.616,0,0,1-1.447-.895L9.5,12"/><line class="a" x1="9.529" y1="7.057" x2="11" y2="10"/><circle class="a" cx="16.5" cy="15" r="2"/><circle class="a" cx="5.5" cy="15" r="2"/></svg>