<svg id="Light" xmlns="http://www.w3.org/2000/svg" viewBox="0 0 24 24"><defs><style>.cls-1{fill:none;stroke:#000;stroke-linecap:round;stroke-linejoin:round;}</style></defs><title>squid</title><path class="cls-1" d="M10.244,10.106s.609-2.037,3.586-5.014a12.341,12.341,0,0,1,8.452-3.455A12.757,12.757,0,0,1,18.723,10.1c-2.977,2.976-4.862,3.624-4.862,3.624"/><path class="cls-1" d="M22.285,1.641s-2.212-2.335-9.573.326c.707,2.121,1.768,2.475,1.768,2.475"/><path class="cls-1" d="M22.258,1.614s2.315,2.192-.353,9.545c-2.122-.707-2.475-1.767-2.475-1.767"/><path class="cls-1" d="M10.061,12.043a.252.252,0,0,1,0,.354"/><path class="cls-1" d="M9.707,12.043a.252.252,0,0,1,.354,0"/><path class="cls-1" d="M9.707,12.4a.25.25,0,0,1,0-.354"/><path class="cls-1" d="M10.061,12.4a.25.25,0,0,1-.354,0"/><path class="cls-1" d="M11.828,13.811a.25.25,0,0,1,0,.354"/><path class="cls-1" d="M11.475,13.811a.249.249,0,0,1,.353,0"/><path class="cls-1" d="M11.475,14.165a.25.25,0,0,1,0-.354"/><path class="cls-1" d="M11.828,14.165a.25.25,0,0,1-.353,0"/><path class="cls-1" d="M13.073,15.306s1.5,1.5-1.5,3.5c-3.168,2.113-1,5,1,4"/><path class="cls-1" d="M8.073,10.806s-1-1-3.5,0-4.5-1-3.5-3.5,4-1.5,3,.5"/><path class="cls-1" d="M7.073,13.306a3.729,3.729,0,0,0-2.5,3c-.5,2.5-3,2.5-3.5,1"/><path class="cls-1" d="M9.573,15.306s.5,2.5-3.5,4c-3.14,1.178-3,3.5-2,4"/></svg>