<svg id="Light" xmlns="http://www.w3.org/2000/svg" viewBox="0 0 24 24"><defs><style>.cls-1{fill:none;stroke:#000;stroke-linecap:round;stroke-linejoin:round;}</style></defs><title>stairs-person-descend</title><circle class="cls-1" cx="8.25" cy="2.5" r="2"/><path class="cls-1" d="M11.25,23.5V20a.5.5,0,0,1,.5-.5h3.5V16a.5.5,0,0,1,.5-.5h3.5V12a.5.5,0,0,1,.5-.5h3.5"/><line class="cls-1" x1="23.25" y1="17.5" x2="17.25" y2="23.5"/><polyline class="cls-1" points="20.25 23.5 17.25 23.5 17.25 20.5"/><path class="cls-1" d="M12.75,17l-1.5-3V13l1.29-1.612a2,2,0,0,0,.311-1.952L12.237,7.8a2,2,0,0,0-1.873-1.3H5.9a2,2,0,0,0-1.727.992L2.75,9.929l-1.469.786a1.008,1.008,0,0,0,.794,1.844l1.563-.522a.492.492,0,0,0,.2-.12L6.25,9.5V15L3.989,21.332A.5.5,0,0,0,4.46,22h.981a.5.5,0,0,0,.447-.276L8.75,16l1.5,2"/></svg>