<svg id="Light" xmlns="http://www.w3.org/2000/svg" viewBox="0 0 24 24"><defs><style>.cls-1{fill:none;stroke:#000;stroke-linecap:round;stroke-linejoin:round;}</style></defs><title>stairs-person-ascend</title><path class="cls-1" d="M11.5,23.5V20a.5.5,0,0,1,.5-.5h3.5V16a.5.5,0,0,1,.5-.5h3.5V12a.5.5,0,0,1,.5-.5h3.5"/><line class="cls-1" x1="17.5" y1="23.5" x2="23.5" y2="17.5"/><polyline class="cls-1" points="20.5 17.5 23.5 17.5 23.5 20.5"/><path class="cls-1" d="M11.5,18V16l-2-3V10l1.73,1.73a.5.5,0,0,0,.6.08l2.31-1.32a.923.923,0,0,0-.871-1.626L12,9.5,10.594,7.39A2,2,0,0,0,8.93,6.5h-4.6a2,2,0,0,0-1.414.586L.646,9.353A.5.5,0,0,0,.5,9.707V12.5a1,1,0,0,0,2,0V10.583L4.5,9v3.8L3.1,20.915a.5.5,0,0,0,.493.585H4.623a.5.5,0,0,0,.481-.363L7,14.5,8.5,17v1.5"/><circle class="cls-1" cx="7" cy="2.5" r="2"/></svg>