<svg id="Light" xmlns="http://www.w3.org/2000/svg" viewBox="0 0 24 24"><defs><style>.cls-1{fill:none;stroke:#000;stroke-linecap:round;stroke-linejoin:round;}</style></defs><title>standing-lamp-double</title><line class="cls-1" x1="0.5" y1="23.5" x2="23.5" y2="23.5"/><line class="cls-1" x1="12" y1="23.5" x2="12" y2="0.5"/><path class="cls-1" d="M23.112,6.274a.5.5,0,0,1,.157.813L18.657,11.7a.5.5,0,0,1-.813-.157L16.28,7.894a1,1,0,0,1,.212-1.1l1.871-1.871a1,1,0,0,1,1.1-.212Z"/><path class="cls-1" d="M7.5,14.158a.5.5,0,0,1-.789.253L1.581,10.382a.5.5,0,0,1,.058-.826L5.075,7.568a1,1,0,0,1,1.119.079l2.08,1.635a1,1,0,0,1,.342,1.067Z"/><path class="cls-1" d="M12,5.5H9.841a1,1,0,0,0-.79.386L7.118,8.373"/><path class="cls-1" d="M12,2.5h1.868a1,1,0,0,1,.715.3L17.5,5.784"/></svg>