<svg id="Light" xmlns="http://www.w3.org/2000/svg" viewBox="0 0 24 24"><defs><style>.cls-1{fill:none;stroke:#000;stroke-linecap:round;stroke-linejoin:round;}</style></defs><title>standing-lamp</title><line class="cls-1" x1="10" y1="23.5" x2="14" y2="23.5"/><line class="cls-1" x1="12" y1="8.5" x2="12" y2="23.5"/><path class="cls-1" d="M10,6.5h4a0,0,0,0,1,0,0V8a.5.5,0,0,1-.5.5h-3A.5.5,0,0,1,10,8V6.5A0,0,0,0,1,10,6.5Z"/><path class="cls-1" d="M15.781,1.158A.5.5,0,0,0,15.306.5H8.694a.5.5,0,0,0-.475.658L10,6.5h4Z"/></svg>