<svg xmlns="http://www.w3.org/2000/svg" viewBox="0 0 24 24"><defs><style>.a{fill:none;stroke:#000;stroke-linecap:round;stroke-linejoin:round;}</style></defs><title>statistics-feed-burner</title><path class="a" d="M20.082,15.861C20.35,10.244,17.064,8.843,15,7.782c.312,3.5-2.031,3.718-3.719,3.9C14.031,5.594,9.937,5.187,9.937.5,3.885,4.652,3.8,12.238,4.138,15.762,2.2,16.574,1,17.682,1,18.906c0,2.486,4.925,4.5,11,4.5s11-2.014,11-4.5C23,17.73,21.888,16.663,20.082,15.861Z"/><path class="a" d="M16.314,11.187c-.752,3.054-3.164,5.115-5.525,4.646-1.8-.356-3.06-2.078-3.357-4.248a5.618,5.618,0,0,0-.769,2.842A5.432,5.432,0,0,0,12,19.948a5.432,5.432,0,0,0,5.337-5.521A5.621,5.621,0,0,0,16.314,11.187Z"/></svg>