<svg id="Light" xmlns="http://www.w3.org/2000/svg" viewBox="0 0 24 24"><defs><style>.cls-1{fill:none;stroke:#000;stroke-linecap:round;stroke-linejoin:round;}</style></defs><title>steampunk-decoration</title><circle class="cls-1" cx="12" cy="12" r="11.5"/><path class="cls-1" d="M11.643,4.508a7.5,7.5,0,0,1,7.735,8.844"/><path class="cls-1" d="M14.911,18.914A7.5,7.5,0,0,1,5.925,7.6"/><path class="cls-1" d="M13,15.378l-.15.49a.886.886,0,0,1-1.7,0l-.295-.968a.663.663,0,0,0-.783-.454l-.981.228a.893.893,0,0,1-.85-1.479l.687-.741a.669.669,0,0,0,0-.908l-.687-.741A.9.9,0,0,1,8.463,9.41"/><path class="cls-1" d="M11.7,7.549a.884.884,0,0,1,1.146.583l.295.968a.663.663,0,0,0,.783.454l.981-.228a.893.893,0,0,1,.85,1.479l-.687.741a.669.669,0,0,0,0,.908l.326.352"/><line class="cls-1" x1="12.763" y1="12.647" x2="16.958" y2="16.204"/><circle class="cls-1" cx="12" cy="12" r="1"/><line class="cls-1" x1="11.529" y1="11.117" x2="8.81" y2="6.019"/><path class="cls-1" d="M9.428,3.989A1.5,1.5,0,1,1,6.781,5.4,4.658,4.658,0,0,1,6.8,3.085a.5.5,0,0,1,.69-.368A4.674,4.674,0,0,1,9.428,3.989Z"/><path class="cls-1" d="M17,18.01a.75.75,0,0,1-.527-1.234l.97-1.144a.75.75,0,0,1,1.3.318l.352,1.544a.5.5,0,0,1-.518.61Z"/></svg>