<svg id="Light" xmlns="http://www.w3.org/2000/svg" viewBox="0 0 24 24"><defs><style>.cls-1{fill:none;stroke:#000;stroke-linecap:round;stroke-linejoin:round;}</style></defs><title>stove-induction-pot</title><line class="cls-1" x1="14.5" y1="21.5" x2="14.5" y2="18.5"/><line class="cls-1" x1="17.5" y1="21.5" x2="17.5" y2="20"/><line class="cls-1" x1="11.5" y1="21.5" x2="11.5" y2="20"/><line class="cls-1" x1="8.5" y1="21.5" x2="8.5" y2="18.5"/><line class="cls-1" x1="5.5" y1="21.5" x2="5.5" y2="20"/><line class="cls-1" x1="4.5" y1="23.5" x2="18.5" y2="23.5"/><path class="cls-1" d="M17.5,13.5a2,2,0,0,1-2,2h-7a2,2,0,0,1-2-2V2.5h11Z"/><line class="cls-1" x1="6.5" y1="5.5" x2="4.5" y2="5.5"/><line class="cls-1" x1="17.5" y1="5.5" x2="19.5" y2="5.5"/><line class="cls-1" x1="5.5" y1="2.5" x2="18.5" y2="2.5"/><path class="cls-1" d="M10,2.5a2,2,0,0,1,4,0"/></svg>