<svg id="Light" xmlns="http://www.w3.org/2000/svg" viewBox="0 0 24 24"><defs><style>.cls-1{fill:none;stroke:#000;stroke-linecap:round;stroke-linejoin:round;}</style></defs><title>stove-gas-1</title><circle class="cls-1" cx="18.5" cy="17.805" r="1.5"/><circle class="cls-1" cx="5.5" cy="17.805" r="1.5"/><rect class="cls-1" x="0.5" y="14.305" width="23" height="7" rx="1" ry="1"/><line class="cls-1" x1="18.5" y1="12.305" x2="18.5" y2="14.305"/><path class="cls-1" d="M20.5,12.305a1,1,0,0,1,1,1v1"/><path class="cls-1" d="M16.5,12.305a1,1,0,0,0-1,1v1"/><line class="cls-1" x1="5.5" y1="12.305" x2="5.5" y2="14.305"/><path class="cls-1" d="M7.5,12.305a1,1,0,0,1,1,1v1"/><path class="cls-1" d="M3.5,12.305a1,1,0,0,0-1,1v1"/><path class="cls-1" d="M18.377,2.719a.25.25,0,0,0-.318.359,2.948,2.948,0,0,1,.082,2.908,1.926,1.926,0,0,1-.659-.812.252.252,0,0,0-.348-.14,2.584,2.584,0,0,0-1.513,2.392,2.879,2.879,0,0,0,5.758,0A5.3,5.3,0,0,0,18.377,2.719Z"/><path class="cls-1" d="M5.377,2.719a.25.25,0,0,0-.318.359,2.948,2.948,0,0,1,.082,2.908,1.926,1.926,0,0,1-.659-.812.252.252,0,0,0-.348-.14A2.584,2.584,0,0,0,2.621,7.426a2.879,2.879,0,1,0,5.758,0A5.3,5.3,0,0,0,5.377,2.719Z"/></svg>