<svg xmlns="http://www.w3.org/2000/svg" viewBox="0 0 24 24"><defs><style>.a{fill:none;stroke:#000;stroke-linecap:round;stroke-linejoin:round;}</style></defs><title>study-brain-1</title><path class="a" d="M20,22.5l-1.339-4.016A1.993,1.993,0,0,0,20.5,16.5a3,3,0,0,0,3-3V12A2.994,2.994,0,0,0,21,9.052V9a3.5,3.5,0,0,0-3.5-3.5,4,4,0,0,0-4-4h-3a4,4,0,0,0-4,4A3.5,3.5,0,0,0,3,9H2.94a2.5,2.5,0,0,0,0,5H8a2.5,2.5,0,0,0,2.5,2.5H15l2,6"/><path class="a" d="M8,14a2.5,2.5,0,0,1,2.5-2.5"/><path class="a" d="M13.5,11.5a2.5,2.5,0,1,1,5,0"/><path class="a" d="M14,4.5A2.5,2.5,0,0,1,11.5,7H10A2.5,2.5,0,0,0,7.5,9.5"/><path class="a" d="M6.5,5.5A3.5,3.5,0,0,1,9.419,7.069"/><path class="a" d="M21,12.5A1.5,1.5,0,0,1,19.5,14"/></svg>