<svg xmlns="http://www.w3.org/2000/svg" viewBox="0 0 24 24"><defs><style>.a{fill:none;stroke:#000;stroke-linecap:round;stroke-linejoin:round;}</style></defs><title>study-desk</title><path class="a" d="M22.614,15.16a.5.5,0,0,1-.474.341H1.86a.5.5,0,0,1-.474-.341l-.667-2a.5.5,0,0,1,.475-.659H22.806a.5.5,0,0,1,.475.659Z"/><line class="a" x1="3" y1="15.501" x2="1.5" y2="23.501"/><line class="a" x1="21" y1="15.501" x2="22.5" y2="23.501"/><path class="a" d="M10.879,1.38a3,3,0,0,1,4.242,4.243Z"/><path class="a" d="M15.236,1.5A2.764,2.764,0,0,1,18,4.265V10.5"/><path class="a" d="M9.5,9.5h-5a1.5,1.5,0,0,0,0,3h5Z"/><line class="a" x1="10.5" y1="6.501" x2="9.5" y2="6.501"/><line class="a" x1="10.5" y1="9.501" x2="9.5" y2="9.501"/><path class="a" d="M9.5,6.5h-5a1.5,1.5,0,0,0,0,3h5Z"/><path class="a" d="M20,12.5H16a2,2,0,1,1,4,0Z"/></svg>