<svg xmlns="http://www.w3.org/2000/svg" viewBox="0 0 24 24"><defs><style>.a{fill:none;stroke:#000;stroke-linecap:round;stroke-linejoin:round;}</style></defs><title>style-three-pin-shark</title><path class="a" d="M12,.5a11.38,11.38,0,0,1,6.112,1.77c4.75,3.011,5.1,9.23,1.315,13.777A57.572,57.572,0,0,1,12,23.5a57.572,57.572,0,0,1-7.427-7.453C.789,11.5,1.138,5.281,5.888,2.27A11.38,11.38,0,0,1,12,.5Z"/><path class="a" d="M6.232,14.144a1,1,0,0,0,1.536,0l.964-1.157a1,1,0,0,1,1.536,0l.964,1.157a1,1,0,0,0,1.536,0l.964-1.157a1,1,0,0,1,1.536,0l.964,1.157a1,1,0,0,0,1.536,0"/><path class="a" d="M9.089,10.951C9.572,8.523,11.209,6.5,14,6.5A14.962,14.962,0,0,0,12.5,12"/><path class="a" d="M12.732,10.1a3.5,3.5,0,0,0,4.759-1.557.5.5,0,0,0-.436-.761A5.938,5.938,0,0,1,14,6.5c-1.691-.845-2.111-1.691-2.156-2.268a.5.5,0,0,0-.7-.418C7.846,5.281,9.434,8.141,9.89,8.842"/></svg>