<svg xmlns="http://www.w3.org/2000/svg" viewBox="0 0 24 24"><defs><style>.a{fill:none;stroke:#000;stroke-linecap:round;stroke-linejoin:round;}</style></defs><title>style-three-pin-facade</title><path class="a" d="M12.321,7.578a1,1,0,0,0,1.414.088l2.577-2.34a1,1,0,0,0-1.325-1.5L12.41,6.164a1.005,1.005,0,0,0-.089,1.414Z"/><polyline class="a" points="12.329 7.585 14.468 10.05 13.329 11.055"/><path class="a" d="M10.337,10.065a.974.974,0,0,1,1.669-.334l2.337,2.337a.969.969,0,0,1-.334,1.669L8,16.074Z"/><path class="a" d="M12,.574a11.38,11.38,0,0,1,6.112,1.77c4.75,3.011,5.1,9.23,1.315,13.777a59.333,59.333,0,0,1-7.106,7.189.5.5,0,0,1-.642,0,59.3,59.3,0,0,1-7.106-7.188C.789,11.574,1.138,5.355,5.888,2.344A11.38,11.38,0,0,1,12,.574Z"/></svg>