<svg xmlns="http://www.w3.org/2000/svg" viewBox="0 0 24 24"><defs><style>.a{fill:none;stroke:#000;stroke-linecap:round;stroke-linejoin:round;}</style></defs><title>style-two-pin-plane</title><path class="a" d="M21,10.063c0,6.227-7.121,12.058-8.695,13.27a.5.5,0,0,1-.61,0C10.122,22.122,3,16.29,3,10.063c0-5.246,3.753-9.5,9-9.5S21,4.817,21,10.063Z"/><path class="a" d="M17.337,7.285a1.381,1.381,0,0,1,.991.889,1.318,1.318,0,0,1,.076.44A1.361,1.361,0,0,1,17.767,9.8L9.915,14.671a.481.481,0,0,1-.533-.015L6.5,12.635a.266.266,0,0,1,0-.418l1.209-1.066a.266.266,0,0,1,.256-.044l1.514.9,1.92-1.34L7.769,8.417a.331.331,0,0,1-.037-.467A.3.3,0,0,1,7.784,7.9l.89-.66A.332.332,0,0,1,8.986,7.2L14,9.064,16.32,7.48A1.291,1.291,0,0,1,17.337,7.285Z"/></svg>