<svg xmlns="http://www.w3.org/2000/svg" viewBox="0 0 24 24"><defs><style>.a{fill:none;stroke:#000;stroke-linecap:round;stroke-linejoin:round;}</style></defs><title>style-one-pin-gas</title><path class="a" d="M21,9.756a9,9,0,1,0-13.492,7.79c1.688.974,2.143,2.049,4.057,5.443a.5.5,0,0,0,.871,0c1.934-3.431,2.372-4.471,4.056-5.443A8.983,8.983,0,0,0,21,9.756Z"/><rect class="a" x="8" y="5.756" width="6" height="9" rx="1" ry="1"/><line class="a" x1="8" y1="9.756" x2="14" y2="9.756"/><line class="a" x1="10" y1="7.756" x2="12" y2="7.756"/><path class="a" d="M14,13.756h1a1,1,0,0,0,1-1V8.292a1,1,0,0,1,.445-.833l1.055-.7"/></svg>