<svg xmlns="http://www.w3.org/2000/svg" viewBox="0 0 24 24"><defs><style>.a{fill:none;stroke:#000;stroke-linecap:round;stroke-linejoin:round;}</style></defs><title>style-three-pin-snorkel</title><path class="a" d="M12,.5a11.38,11.38,0,0,1,6.112,1.77c4.75,3.011,5.1,9.23,1.315,13.777A57.572,57.572,0,0,1,12,23.5a57.572,57.572,0,0,1-7.427-7.453C.789,11.5,1.138,5.281,5.888,2.27A11.38,11.38,0,0,1,12,.5Z"/><circle class="a" cx="11" cy="15.504" r="2"/><line class="a" x1="9" y1="15.504" x2="7" y2="15.504"/><path class="a" d="M13,15.5h2a3,3,0,0,0,3-3v-8"/><path class="a" d="M11,9.5a3,3,0,0,0,3,3h1a2,2,0,0,0,2-2,3,3,0,0,0-3-3H8a3,3,0,0,0-3,3,2,2,0,0,0,2,2H8A3,3,0,0,0,11,9.5Z"/><line class="a" x1="11" y1="9.504" x2="11" y2="7.504"/></svg>