<svg xmlns="http://www.w3.org/2000/svg" viewBox="0 0 24 24"><defs><style>.a{fill:none;stroke:#000;stroke-linecap:round;stroke-linejoin:round;}</style></defs><title>style-three-pin-shelter</title><path class="a" d="M12,.574a11.38,11.38,0,0,1,6.112,1.77c4.75,3.011,5.1,9.23,1.315,13.777a59.3,59.3,0,0,1-7.106,7.188.5.5,0,0,1-.642,0,59.333,59.333,0,0,1-7.106-7.189C.789,11.574,1.138,5.355,5.888,2.344A11.38,11.38,0,0,1,12,.574Z"/><line class="a" x1="7" y1="8.575" x2="7" y2="15.575"/><line class="a" x1="17" y1="8.575" x2="17" y2="15.575"/><path class="a" d="M12,5.575c-5,0-6,3-6,3H18S17,5.575,12,5.575Z"/><rect class="a" x="10" y="11.575" width="4" height="4"/><line class="a" x1="12" y1="11.575" x2="12" y2="13.575"/></svg>