<svg xmlns="http://www.w3.org/2000/svg" viewBox="0 0 24 24"><defs><style>.a{fill:none;stroke:#000;stroke-linecap:round;stroke-linejoin:round;}</style></defs><title>style-three-pin-rent</title><path class="a" d="M12,.5a11.38,11.38,0,0,1,6.112,1.77c4.75,3.011,5.1,9.23,1.315,13.777A57.572,57.572,0,0,1,12,23.5a57.572,57.572,0,0,1-7.427-7.453C.789,11.5,1.138,5.281,5.888,2.27A11.38,11.38,0,0,1,12,.5Z"/><path class="a" d="M11,6.5H10a1,1,0,0,0-1,1v3a1,1,0,0,0,1,1h1"/><line class="a" x1="9" y1="9.499" x2="11" y2="9.499"/><line class="a" x1="5" y1="13.499" x2="19" y2="13.499"/><line class="a" x1="12" y1="17.499" x2="12" y2="13.499"/><line class="a" x1="6" y1="4.499" x2="18" y2="4.499"/><polyline class="a" points="13 11.5 13 6.5 16 11.5 16 6.5"/><path class="a" d="M7,7.75A1.25,1.25,0,0,1,5.75,9H5V6.5h.75A1.25,1.25,0,0,1,7,7.75Z"/><line class="a" x1="5" y1="11.5" x2="5" y2="9"/><line class="a" x1="7" y1="11.5" x2="5" y2="9"/><line class="a" x1="18" y1="6.5" x2="20" y2="6.5"/><line class="a" x1="19" y1="6.5" x2="19" y2="11.5"/></svg>