<svg xmlns="http://www.w3.org/2000/svg" viewBox="0 0 24 24"><defs><style>.a{fill:none;stroke:#000;stroke-linecap:round;stroke-linejoin:round;}</style></defs><title>style-two-pin-car</title><path class="a" d="M21,10c0,7-9,13.5-9,13.5S3,17,3,10C3,4.754,6.753.5,12,.5S21,4.754,21,10Z"/><path class="a" d="M17,11.5a1,1,0,0,1-1,1H8a1,1,0,0,1-1-1v-.764a.993.993,0,0,1,.106-.447L8,8.5h8l.894,1.789a.993.993,0,0,1,.106.447Z"/><line class="a" x1="8" y1="14" x2="8" y2="12.5"/><line class="a" x1="16" y1="14" x2="16" y2="12.5"/><path class="a" d="M8,8.5l.361-2.164A1,1,0,0,1,9.347,5.5h5.306a1,1,0,0,1,.986.836L16,8.5"/><line class="a" x1="7.027" y1="10.5" x2="9.5" y2="10.5"/><line class="a" x1="14.5" y1="10.5" x2="16.992" y2="10.5"/></svg>