<svg xmlns="http://www.w3.org/2000/svg" viewBox="0 0 24 24"><defs><style>.a{fill:none;stroke:#000;stroke-linecap:round;stroke-linejoin:round;}</style></defs><title>style-three-pin-arrow-diagonal</title><path class="a" d="M12,.574a11.38,11.38,0,0,1,6.112,1.77c4.75,3.011,5.1,9.23,1.315,13.777a59.333,59.333,0,0,1-7.106,7.189.5.5,0,0,1-.642,0,59.3,59.3,0,0,1-7.106-7.188C.789,11.574,1.138,5.355,5.888,2.344A11.38,11.38,0,0,1,12,.574Z"/><polyline class="a" points="13 14.573 17 14.573 17 10.573"/><polyline class="a" points="11 4.573 7 4.573 7 8.573"/><line class="a" x1="17" y1="14.573" x2="13" y2="10.573"/><line class="a" x1="7" y1="4.573" x2="11" y2="8.573"/></svg>