<svg xmlns="http://www.w3.org/2000/svg" viewBox="0 0 24 24"><defs><style>.a{fill:none;stroke:#000;stroke-linecap:round;stroke-linejoin:round;}</style></defs><title>style-three-pin-paragliding</title><path class="a" d="M12,.5a11.38,11.38,0,0,1,6.112,1.77c4.75,3.011,5.1,9.23,1.315,13.777A57.572,57.572,0,0,1,12,23.5a57.572,57.572,0,0,1-7.427-7.453C.789,11.5,1.138,5.281,5.888,2.27A11.38,11.38,0,0,1,12,.5Z"/><circle class="a" cx="18" cy="10.502" r="2"/><path class="a" d="M4.292,7.2a.5.5,0,0,1,.459-.7h10.71a.5.5,0,0,1,.286.909C13.684,8.853,9.548,11.5,7,11.5,6.235,11.5,4.884,8.574,4.292,7.2Z"/><path class="a" d="M16.571,11.9c-1.842,1.934-5.2,2.828-9.071,2.6"/><line class="a" x1="11.598" y1="9.974" x2="15" y2="15.502"/></svg>