<svg xmlns="http://www.w3.org/2000/svg" viewBox="0 0 24 24"><defs><style>.a{fill:none;stroke:#000;stroke-linecap:round;stroke-linejoin:round;}</style></defs><title>style-three-pin-snow-walking</title><path class="a" d="M12,.5a11.38,11.38,0,0,1,6.112,1.77c4.75,3.011,5.1,9.23,1.315,13.777A57.572,57.572,0,0,1,12,23.5a57.572,57.572,0,0,1-7.427-7.453C.789,11.5,1.138,5.281,5.888,2.27A11.38,11.38,0,0,1,12,.5Z"/><circle class="a" cx="13.5" cy="5.003" r="1.5"/><path class="a" d="M13.949,15.186l-1.5-4.5a1.018,1.018,0,0,0-.1-.2l.581-1.624,0-.005a.955.955,0,0,0,.034-.112v0l.01-.045V8.685l.007-.039V8.634L13,8.6V8.583l0-.033V8.432L13,8.4l0-.022,0-.027,0-.022-.005-.023,0-.025-.005-.023-.006-.023-.007-.024L12.951,8.2l-.008-.024-.009-.024-.008-.02L12.917,8.1l-.01-.023L12.9,8.062l-.013-.024-.01-.018L12.862,8l-.01-.017-.015-.024-.012-.018-.016-.022L12.8,7.9l-.019-.025-.011-.013-.02-.024-.011-.012L12.715,7.8,12.7,7.792l-.024-.023-.011-.009-.026-.023-.01-.008L12.6,7.706,12.6,7.7l-.034-.024,0,0-.039-.024,0,0-.04-.023,0,0L12.431,7.6h0c-.026-.012-.053-.024-.08-.034a5.853,5.853,0,0,0-4.288.072,4.009,4.009,0,0,0-2.024,2.59,1,1,0,0,0,.686,1.237A1.053,1.053,0,0,0,7,11.5a1,1,0,0,0,.961-.726,2.022,2.022,0,0,1,1-1.349,3.071,3.071,0,0,1,1.725-.209L8.558,15.167a1,1,0,0,0,.606,1.277A.988.988,0,0,0,9.5,16.5a1,1,0,0,0,.942-.664l.836-2.341.773,2.321a1,1,0,0,0,1.9-.633Z"/><path class="a" d="M12.987,12.3a4.176,4.176,0,0,0,.439.219,3.959,3.959,0,0,0,1.563.322,4.825,4.825,0,0,0,1.9-.42,1,1,0,1,0-.788-1.838,2.321,2.321,0,0,1-1.887.1,3.361,3.361,0,0,1-1.445-1.375"/><line class="a" x1="13.066" y1="16.5" x2="16.5" y2="16.5"/><line class="a" x1="8.823" y1="16.239" x2="6.5" y2="14"/></svg>