<svg xmlns="http://www.w3.org/2000/svg" viewBox="0 0 24 24"><defs><style>.a{fill:none;stroke:#000;stroke-linecap:round;stroke-linejoin:round;}</style></defs><title>style-three-pin-dentist</title><path class="a" d="M12,.574a11.38,11.38,0,0,1,6.112,1.77c4.75,3.011,5.1,9.23,1.315,13.777a59.3,59.3,0,0,1-7.106,7.188.5.5,0,0,1-.642,0,59.333,59.333,0,0,1-7.106-7.189C.789,11.574,1.138,5.355,5.888,2.344A11.38,11.38,0,0,1,12,.574Z"/><path class="a" d="M16.13,8A2.3,2.3,0,0,0,12,6.491,2.3,2.3,0,0,0,7.87,8a3.762,3.762,0,0,0,1.224,3,5.568,5.568,0,0,0-.536,2.42,5.859,5.859,0,0,0,.154,1.342.443.443,0,0,0,.443.315.452.452,0,0,0,.468-.367A2.715,2.715,0,0,1,12,12.062a2.719,2.719,0,0,1,2.378,2.656.438.438,0,0,0,.452.356.461.461,0,0,0,.461-.33,5.846,5.846,0,0,0,.151-1.327A5.568,5.568,0,0,0,14.906,11,3.762,3.762,0,0,0,16.13,8Z"/></svg>