<svg xmlns="http://www.w3.org/2000/svg" viewBox="0 0 24 24"><defs><style>.a{fill:none;stroke:#000;stroke-linecap:round;stroke-linejoin:round;}</style></defs><title>style-three-pin-church-1</title><path class="a" d="M12,.574a11.38,11.38,0,0,1,6.112,1.77c4.75,3.011,5.1,9.23,1.315,13.777a59.333,59.333,0,0,1-7.106,7.189.5.5,0,0,1-.642,0,59.3,59.3,0,0,1-7.106-7.188C.789,11.574,1.138,5.355,5.888,2.344A11.38,11.38,0,0,1,12,.574Z"/><path class="a" d="M9,14.574v-5a3,3,0,1,1,6,0v5"/><line class="a" x1="12" y1="6.574" x2="12" y2="3.574"/><line class="a" x1="11" y1="4.574" x2="13" y2="4.574"/><path class="a" d="M12,9.324a.25.25,0,0,1,.25.25"/><path class="a" d="M11.75,9.574a.25.25,0,0,1,.25-.25"/><path class="a" d="M12,9.824a.25.25,0,0,1-.25-.25"/><path class="a" d="M12.25,9.574a.25.25,0,0,1-.25.25"/><line class="a" x1="12" y1="14.574" x2="12" y2="12.574"/><path class="a" d="M9,9.574,6.223,11.425A.5.5,0,0,0,6,11.841v2.733H18V11.841a.5.5,0,0,0-.223-.416L15,9.574"/></svg>