<svg xmlns="http://www.w3.org/2000/svg" viewBox="0 0 24 24"><defs><style>.a{fill:none;stroke:#000;stroke-linecap:round;stroke-linejoin:round;}</style></defs><title>style-three-pin-church</title><polyline class="a" points="8 11.574 8 15.574 16 15.574 16 11.574"/><polyline class="a" points="6.5 13.074 12 7.574 17.5 13.074"/><line class="a" x1="12" y1="7.574" x2="12" y2="4.574"/><line class="a" x1="11" y1="5.574" x2="13" y2="5.574"/><path class="a" d="M11,15.574v-2a1,1,0,1,1,2,0v2"/><path class="a" d="M12,.574a11.38,11.38,0,0,1,6.112,1.77c4.75,3.011,5.1,9.23,1.315,13.777a59.3,59.3,0,0,1-7.106,7.188.5.5,0,0,1-.642,0,59.333,59.333,0,0,1-7.106-7.189C.789,11.574,1.138,5.355,5.888,2.344A11.38,11.38,0,0,1,12,.574Z"/></svg>