<svg xmlns="http://www.w3.org/2000/svg" viewBox="0 0 24 24"><defs><style>.a{fill:none;stroke:#000;stroke-linecap:round;stroke-linejoin:round;}</style></defs><title>style-three-pin-gas</title><path class="a" d="M12,.574a11.38,11.38,0,0,1,6.112,1.77c4.75,3.011,5.1,9.23,1.315,13.777a59.333,59.333,0,0,1-7.106,7.189.5.5,0,0,1-.642,0,59.3,59.3,0,0,1-7.106-7.188C.789,11.574,1.138,5.355,5.888,2.344A11.38,11.38,0,0,1,12,.574Z"/><rect class="a" x="6" y="7.575" width="9" height="7" rx="1" ry="1"/><path class="a" d="M7,5.575h8a2,2,0,0,1,2,2v8"/><line class="a" x1="8" y1="5.575" x2="8" y2="7.575"/><line class="a" x1="13" y1="5.575" x2="13" y2="7.575"/><polygon class="a" points="12 11.075 10.5 9.575 9 11.075 9 12.575 12 12.575 12 11.075"/></svg>