<svg xmlns="http://www.w3.org/2000/svg" viewBox="0 0 24 24"><defs><style>.a{fill:none;stroke:#000;stroke-linecap:round;stroke-linejoin:round;}</style></defs><title>style-two-pin-off-map</title><line class="a" x1="1.276" y1="1.339" x2="22.724" y2="22.787"/><path class="a" d="M6.033,2.847A8.706,8.706,0,0,1,12,.563c5.246,0,9,4.254,9,9.5a11.7,11.7,0,0,1-1.95,6.012"/><path class="a" d="M16.006,19.973a32.887,32.887,0,0,1-3.7,3.36.5.5,0,0,1-.61,0C10.121,22.121,3,16.29,3,10.063a10.452,10.452,0,0,1,.441-3.03"/><path class="a" d="M8.984,5.574A5,5,0,0,1,15.6,13.035"/><path class="a" d="M12,14.563a5,5,0,0,1-5-5"/></svg>