<svg xmlns="http://www.w3.org/2000/svg" viewBox="0 0 24 24"><defs><style>.a{fill:none;stroke:#000;stroke-linecap:round;stroke-linejoin:round;}</style></defs><title>style-three-pin-hindu</title><path class="a" d="M12,.574a11.38,11.38,0,0,1,6.112,1.77c4.75,3.011,5.1,9.23,1.315,13.777a59.333,59.333,0,0,1-7.106,7.189.5.5,0,0,1-.642,0,59.3,59.3,0,0,1-7.106-7.188C.789,11.574,1.138,5.355,5.888,2.344A11.38,11.38,0,0,1,12,.574Z"/><path class="a" d="M6.5,11.075c-1,2.5,1.291,4.5,3.5,4.5a3.2,3.2,0,0,0,3.5-3.5c0-1.056-.832-1.785-1.5-2.5a6.142,6.142,0,0,0,1-2.5c0-1.657-1.343-2.5-3-2.5a2.509,2.509,0,0,0-2,1"/><path class="a" d="M15.5,14.075c1.5-.5,2.5-1.5,2.5-2.5,0-2-3.5-2-6-2H11"/><path class="a" d="M16,6.575c0,.828-.895,1.5-2,1.5H12.761"/><path class="a" d="M15,4.325a.25.25,0,0,1,.25.25"/><path class="a" d="M14.75,4.575a.25.25,0,0,1,.25-.25"/><path class="a" d="M15,4.825a.25.25,0,0,1-.25-.25"/><path class="a" d="M15.25,4.575a.25.25,0,0,1-.25.25"/></svg>