<svg xmlns="http://www.w3.org/2000/svg" viewBox="0 0 24 24"><defs><style>.a{fill:none;stroke:#000;stroke-linecap:round;stroke-linejoin:round;}</style></defs><title>style-three-pin-air-boat</title><path class="a" d="M12,.5a11.38,11.38,0,0,1,6.112,1.77c4.75,3.011,5.1,9.23,1.315,13.777A57.572,57.572,0,0,1,12,23.5a57.572,57.572,0,0,1-7.427-7.453C.789,11.5,1.138,5.281,5.888,2.27A11.38,11.38,0,0,1,12,.5Z"/><path class="a" d="M8,13.332V8.5a2,2,0,0,1,.8-1.6l2-1.5a2,2,0,0,1,2.4,0l2,1.5A2,2,0,0,1,16,8.5v5a4,4,0,0,1-8,0Z"/><path class="a" d="M14,13.5a2,2,0,0,1-4,0V9l2-1.5L14,9Z"/><line class="a" x1="10" y1="12.503" x2="14" y2="12.503"/><line class="a" x1="10" y1="10.503" x2="14" y2="10.503"/><line class="a" x1="6" y1="14.503" x2="6" y2="8.503"/><rect class="a" x="5" y="5.503" width="2" height="3" rx="0.5" ry="0.5"/><line class="a" x1="18" y1="14.503" x2="18" y2="8.503"/><rect class="a" x="17" y="5.503" width="2" height="3" rx="0.5" ry="0.5"/></svg>