<svg xmlns="http://www.w3.org/2000/svg" viewBox="0 0 24 24"><defs><style>.a{fill:none;stroke:#000;stroke-linecap:round;stroke-linejoin:round;}</style></defs><title>style-three-pin-car-buy</title><path class="a" d="M12,.574a11.38,11.38,0,0,1,6.112,1.77c4.75,3.011,5.1,9.23,1.315,13.777a59.333,59.333,0,0,1-7.106,7.189.5.5,0,0,1-.642,0,59.3,59.3,0,0,1-7.106-7.188C.789,11.574,1.138,5.355,5.888,2.344A11.38,11.38,0,0,1,12,.574Z"/><path class="a" d="M17,14.574a1,1,0,0,1-1,1H8a1,1,0,0,1-1-1V13.81a.987.987,0,0,1,.106-.447L8,11.574h8l.894,1.789A.99.99,0,0,1,17,13.81Z"/><line class="a" x1="8" y1="16.574" x2="8" y2="15.574"/><line class="a" x1="16" y1="16.574" x2="16" y2="15.574"/><path class="a" d="M8,11.574l.361-2.165a1,1,0,0,1,.986-.835"/><path class="a" d="M14.653,8.574a1,1,0,0,1,.986.835L16,11.574"/><line class="a" x1="7.027" y1="13.574" x2="9.5" y2="13.574"/><line class="a" x1="14.5" y1="13.574" x2="16.992" y2="13.574"/><line class="a" x1="12" y1="5.574" x2="12" y2="4.574"/><line class="a" x1="12" y1="9.574" x2="12" y2="8.574"/><path class="a" d="M13,5.574H11.5a.5.5,0,0,0-.5.5c0,1,2,1,2,2a.5.5,0,0,1-.5.5H11"/></svg>