<svg xmlns="http://www.w3.org/2000/svg" viewBox="0 0 24 24"><defs><style>.a{fill:none;stroke:#000;stroke-linecap:round;stroke-linejoin:round;}</style></defs><title>style-three-pin-car-repair_1</title><path class="a" d="M12,.574a11.38,11.38,0,0,1,6.112,1.77c4.75,3.011,5.1,9.23,1.315,13.777a59.333,59.333,0,0,1-7.106,7.189.5.5,0,0,1-.642,0,59.3,59.3,0,0,1-7.106-7.188C.789,11.574,1.138,5.355,5.888,2.344A11.38,11.38,0,0,1,12,.574Z"/><path class="a" d="M16,13.574a1,1,0,0,1-1,1H9a1,1,0,0,1-1-1V12.81a.994.994,0,0,1,.106-.448L9,11.574h6l.894.788A.994.994,0,0,1,16,12.81Z"/><line class="a" x1="9" y1="15.574" x2="9" y2="14.574"/><line class="a" x1="15" y1="15.574" x2="15" y2="14.574"/><path class="a" d="M9,11.574l.361-2.165a1,1,0,0,1,.986-.835h3.306a1,1,0,0,1,.986.835L15,11.574"/><path class="a" d="M18,14.574v-8a1,1,0,0,0-1-1H16"/><path class="a" d="M6,14.574v-8a1,1,0,0,1,1-1H8"/><path class="a" d="M9,4.574a1,1,0,0,0,0,2h6a1,1,0,0,0,0-2Z"/></svg>