<svg xmlns="http://www.w3.org/2000/svg" viewBox="0 0 24 24"><defs><style>.a{fill:none;stroke:#000;stroke-linecap:round;stroke-linejoin:round;}</style></defs><title>style-three-pin-kayak</title><path class="a" d="M12,.5a11.38,11.38,0,0,1,6.112,1.77c4.75,3.011,5.1,9.23,1.315,13.777A57.572,57.572,0,0,1,12,23.5a57.572,57.572,0,0,1-7.427-7.453C.789,11.5,1.138,5.281,5.888,2.27A11.38,11.38,0,0,1,12,.5Z"/><path class="a" d="M6.232,14.147a1,1,0,0,0,1.536,0l.964-1.157a1,1,0,0,1,1.536,0l.964,1.157a1,1,0,0,0,1.536,0l.964-1.157a1,1,0,0,1,1.536,0l.964,1.157a1,1,0,0,0,1.536,0"/><path class="a" d="M14,8.506h3v-2a3,3,0,0,1,0,6"/><path class="a" d="M7,12.506a3,3,0,0,1,0-6v2"/><path class="a" d="M11.276,7.782a.5.5,0,0,0-.611-.075l-1.616.97a.5.5,0,0,0-.1.782l1.094,1.1a.5.5,0,0,0,.782-.1l.97-1.617a.5.5,0,0,0-.075-.611Z"/><line class="a" x1="11.5" y1="8.006" x2="14.5" y2="5.006"/><line class="a" x1="14" y1="4.506" x2="15" y2="5.506"/></svg>