<svg xmlns="http://www.w3.org/2000/svg" viewBox="0 0 24 24"><defs><style>.a{fill:none;stroke:#000;stroke-linecap:round;stroke-linejoin:round;}</style></defs><title>style-three-pin-phone-box</title><path class="a" d="M12,.5a11.38,11.38,0,0,1,6.112,1.77c4.75,3.011,5.1,9.23,1.315,13.777A57.572,57.572,0,0,1,12,23.5a57.572,57.572,0,0,1-7.427-7.453C.789,11.5,1.138,5.281,5.888,2.27A11.38,11.38,0,0,1,12,.5Z"/><rect class="a" x="9" y="6.503" width="6" height="10"/><path class="a" d="M9,6.5a3,3,0,0,1,6,0Z"/><line class="a" x1="8" y1="16.503" x2="16" y2="16.503"/><line class="a" x1="8" y1="6.503" x2="16" y2="6.503"/><line class="a" x1="9" y1="12.503" x2="15" y2="12.503"/><line class="a" x1="9" y1="9.503" x2="15" y2="9.503"/><line class="a" x1="12" y1="6.503" x2="12" y2="12.503"/></svg>