<svg xmlns="http://www.w3.org/2000/svg" viewBox="0 0 24 24"><defs><style>.a{fill:none;stroke:#000;stroke-linecap:round;stroke-linejoin:round;}</style></defs><title>style-three-pin-water-scooter-1</title><path class="a" d="M12,.5a11.38,11.38,0,0,1,6.112,1.77c4.75,3.011,5.1,9.23,1.315,13.777A57.572,57.572,0,0,1,12,23.5a57.572,57.572,0,0,1-7.427-7.453C.789,11.5,1.138,5.281,5.888,2.27A11.38,11.38,0,0,1,12,.5Z"/><path class="a" d="M6.232,14.146a1,1,0,0,0,1.536,0l.964-1.156a1,1,0,0,1,1.536,0l.964,1.156a1,1,0,0,0,1.536,0l.964-1.156a1,1,0,0,1,1.536,0l.964,1.156a1,1,0,0,0,1.536,0"/><path class="a" d="M6,12.506l-1-2s.929-4.644,3.682-4.98a.5.5,0,0,1,.477.218L11,8.506h6a2,2,0,0,1,2,2l-.5,2"/><line class="a" x1="12" y1="8.506" x2="12" y2="10.506"/><line class="a" x1="5" y1="10.506" x2="19" y2="10.506"/><polyline class="a" points="9.8 6.706 11 5.506 13 5.506"/></svg>