<svg xmlns="http://www.w3.org/2000/svg" viewBox="0 0 24 24"><defs><style>.a{fill:none;stroke:#000;stroke-linecap:round;stroke-linejoin:round;}</style></defs><title>style-three-pin-question</title><path class="a" d="M12,.5a11.38,11.38,0,0,1,6.112,1.77c4.75,3.011,5.1,9.23,1.315,13.777A57.572,57.572,0,0,1,12,23.5a57.572,57.572,0,0,1-7.427-7.453C.789,11.5,1.138,5.281,5.888,2.27A11.38,11.38,0,0,1,12,.5Z"/><path class="a" d="M12,15.5a.25.25,0,0,1,.25.25"/><path class="a" d="M11.75,15.749A.25.25,0,0,1,12,15.5"/><path class="a" d="M12,16a.25.25,0,0,1-.25-.25"/><path class="a" d="M12.25,15.749A.25.25,0,0,1,12,16"/><path class="a" d="M9,8.5a3,3,0,1,1,4.2,2.75A2,2,0,0,0,12,13.083V13.5"/></svg>