<svg xmlns="http://www.w3.org/2000/svg" viewBox="0 0 24 24"><defs><style>.a{fill:none;stroke:#000;stroke-linecap:round;stroke-linejoin:round;}</style></defs><title>style-two-pin-cross</title><path class="a" d="M21,10.063c0,6.227-7.121,12.058-8.695,13.27a.5.5,0,0,1-.61,0C10.122,22.122,3,16.29,3,10.063c0-5.246,3.753-9.5,9-9.5S21,4.817,21,10.063Z"/><path class="a" d="M17,8.563a1,1,0,0,0-1-1H14v-2a1,1,0,0,0-1-1H11a1,1,0,0,0-1,1v2H8a1,1,0,0,0-1,1v2a1,1,0,0,0,1,1h2v2a1,1,0,0,0,1,1h2a1,1,0,0,0,1-1v-2h2a1,1,0,0,0,1-1Z"/></svg>