<svg xmlns="http://www.w3.org/2000/svg" viewBox="0 0 24 24"><defs><style>.a{fill:none;stroke:#000;stroke-linecap:round;stroke-linejoin:round;}</style></defs><title>style-three-pin-braille</title><path class="a" d="M12,.574a11.38,11.38,0,0,1,6.112,1.77c4.75,3.011,5.1,9.23,1.315,13.777a59.333,59.333,0,0,1-7.106,7.189.5.5,0,0,1-.642,0,59.3,59.3,0,0,1-7.106-7.188C.789,11.574,1.138,5.355,5.888,2.344A11.38,11.38,0,0,1,12,.574Z"/><path class="a" d="M12,9.573a1,1,0,1,1,2,0v2c1.5.375,3.242.509,2.894,2.019-.128.555-.71,2.387-.894,2.981H12.5l-2.5-2.5c-1-1.5,1-2.022,2-.5Z"/><path class="a" d="M15.5,4.823a.25.25,0,0,1,.25.25"/><path class="a" d="M15.25,5.073a.25.25,0,0,1,.25-.25"/><path class="a" d="M15.5,5.323a.25.25,0,0,1-.25-.25"/><path class="a" d="M15.75,5.073a.25.25,0,0,1-.25.25"/><path class="a" d="M9.5,8.823a.25.25,0,0,1,.25.25"/><path class="a" d="M9.25,9.073a.25.25,0,0,1,.25-.25"/><path class="a" d="M9.5,9.323a.25.25,0,0,1-.25-.25"/><path class="a" d="M9.75,9.073a.25.25,0,0,1-.25.25"/><path class="a" d="M12.5,4.823a.25.25,0,0,1,.25.25"/><path class="a" d="M12.25,5.073a.25.25,0,0,1,.25-.25"/><path class="a" d="M12.5,5.323a.25.25,0,0,1-.25-.25"/><path class="a" d="M12.75,5.073a.25.25,0,0,1-.25.25"/><path class="a" d="M6.5,8.823a.25.25,0,0,1,.25.25"/><path class="a" d="M6.25,9.073a.25.25,0,0,1,.25-.25"/><path class="a" d="M6.5,9.323a.25.25,0,0,1-.25-.25"/><path class="a" d="M6.75,9.073a.25.25,0,0,1-.25.25"/><path class="a" d="M9.5,4.823a.25.25,0,0,1,.25.25"/><path class="a" d="M9.25,5.073a.25.25,0,0,1,.25-.25"/><path class="a" d="M9.5,5.323a.25.25,0,0,1-.25-.25"/><path class="a" d="M9.75,5.073a.25.25,0,0,1-.25.25"/></svg>