<svg xmlns="http://www.w3.org/2000/svg" viewBox="0 0 24 24"><defs><style>.a{fill:none;stroke:#000;stroke-linecap:round;stroke-linejoin:round;}</style></defs><title>style-three-pin-signal-antenna</title><path class="a" d="M12,.5a11.38,11.38,0,0,1,6.112,1.77c4.75,3.011,5.1,9.23,1.315,13.777A57.572,57.572,0,0,1,12,23.5a57.572,57.572,0,0,1-7.427-7.453C.789,11.5,1.138,5.281,5.888,2.27A11.38,11.38,0,0,1,12,.5Z"/><path class="a" d="M15,17.5,12.479,9.1a.5.5,0,0,0-.958,0L9,17.5"/><path class="a" d="M9.172,11.328a4,4,0,0,1,0-5.657"/><path class="a" d="M14.828,5.671a4,4,0,0,1,0,5.657"/><path class="a" d="M7.757,12.742a6,6,0,0,1,0-8.485"/><path class="a" d="M16.243,4.257a6,6,0,0,1,0,8.485"/><line class="a" x1="10.501" y1="12.5" x2="13.499" y2="12.5"/><line class="a" x1="9.601" y1="15.5" x2="14.399" y2="15.5"/></svg>