<svg xmlns="http://www.w3.org/2000/svg" viewBox="0 0 24 24"><defs><style>.a{fill:none;stroke:#000;stroke-linecap:round;stroke-linejoin:round;}</style></defs><title>style-three-pin-skating</title><path class="a" d="M12,.5a11.38,11.38,0,0,1,6.112,1.77c4.75,3.011,5.1,9.23,1.315,13.777A57.572,57.572,0,0,1,12,23.5a57.572,57.572,0,0,1-7.427-7.453C.789,11.5,1.138,5.281,5.888,2.27A11.38,11.38,0,0,1,12,.5Z"/><path class="a" d="M7.324,5.382A.5.5,0,0,0,7,5.85V10.5a2,2,0,0,0,2,2h6a1,1,0,0,0,1-1h0a3,3,0,0,0-3-3h0a2,2,0,0,1-2-2V4.725a.5.5,0,0,0-.675-.468Z"/><circle class="a" cx="7.5" cy="14" r="1.5"/><circle class="a" cx="11.5" cy="14" r="1.5"/><circle class="a" cx="15.5" cy="14" r="1.5"/><line class="a" x1="9" y1="7.5" x2="11.268" y2="7.5"/></svg>