<svg xmlns="http://www.w3.org/2000/svg" viewBox="0 0 24 24"><defs><style>.a{fill:none;stroke:#000;stroke-linecap:round;stroke-linejoin:round;}</style></defs><title>style-two-pin-gas</title><path class="a" d="M21,10.063c0,6.227-7.121,12.058-8.695,13.27a.5.5,0,0,1-.61,0C10.122,22.122,3,16.29,3,10.063c0-5.246,3.753-9.5,9-9.5S21,4.817,21,10.063Z"/><rect class="a" x="8" y="5.563" width="6" height="9" rx="1" ry="1"/><line class="a" x1="8" y1="9.563" x2="14" y2="9.563"/><line class="a" x1="10" y1="7.563" x2="12" y2="7.563"/><path class="a" d="M14,13.563h1a1,1,0,0,0,1-1V8.1a1,1,0,0,1,.445-.832l1.055-.7"/></svg>