<svg xmlns="http://www.w3.org/2000/svg" viewBox="0 0 24 24"><defs><style>.a{fill:none;stroke:#000;stroke-linecap:round;stroke-linejoin:round;}</style></defs><title>style-three-pin-locker</title><path class="a" d="M12,.5a11.38,11.38,0,0,1,6.112,1.77c4.75,3.011,5.1,9.23,1.315,13.777A57.572,57.572,0,0,1,12,23.5a57.572,57.572,0,0,1-7.427-7.453C.789,11.5,1.138,5.281,5.888,2.27A11.38,11.38,0,0,1,12,.5Z"/><rect class="a" x="7" y="5.499" width="10" height="10" rx="0.5" ry="0.5"/><line class="a" x1="12" y1="5.499" x2="12" y2="15.499"/><line class="a" x1="9" y1="7.499" x2="10" y2="7.499"/><line class="a" x1="14" y1="7.499" x2="15" y2="7.499"/><path class="a" d="M9,11.749a.25.25,0,0,1,.25.25"/><path class="a" d="M8.75,12a.25.25,0,0,1,.25-.25"/><path class="a" d="M9,12.249A.25.25,0,0,1,8.75,12"/><path class="a" d="M9.25,12a.25.25,0,0,1-.25.25"/><path class="a" d="M14,11.749a.25.25,0,0,1,.25.25"/><path class="a" d="M13.75,12a.25.25,0,0,1,.25-.25"/><path class="a" d="M14,12.249a.25.25,0,0,1-.25-.25"/><path class="a" d="M14.25,12a.25.25,0,0,1-.25.25"/></svg>