<svg xmlns="http://www.w3.org/2000/svg" viewBox="0 0 24 24"><defs><style>.a{fill:none;stroke:#000;stroke-linecap:round;stroke-linejoin:round;}</style></defs><title>style-three-pin-tower</title><path class="a" d="M12,.5a11.38,11.38,0,0,1,6.112,1.77c4.75,3.011,5.1,9.23,1.315,13.777A57.572,57.572,0,0,1,12,23.5a57.572,57.572,0,0,1-7.427-7.453C.789,11.5,1.138,5.281,5.888,2.27A11.38,11.38,0,0,1,12,.5Z"/><path class="a" d="M8,10.5h8a0,0,0,0,1,0,0V12a.5.5,0,0,1-.5.5h-7A.5.5,0,0,1,8,12V10.5A0,0,0,0,1,8,10.5Z"/><line class="a" x1="9" y1="12.503" x2="8" y2="17.503"/><line class="a" x1="15" y1="12.503" x2="16" y2="17.503"/><line class="a" x1="8.4" y1="15.503" x2="15.6" y2="15.503"/><line class="a" x1="9" y1="12.503" x2="15.6" y2="15.503"/><polyline class="a" points="15 10.503 15 8.503 12 5.503 9 8.503 9 10.503"/><line class="a" x1="9" y1="8.503" x2="15" y2="8.503"/><line class="a" x1="12" y1="3.503" x2="14" y2="3.503"/><line class="a" x1="12" y1="3.503" x2="12" y2="5.503"/></svg>