<svg xmlns="http://www.w3.org/2000/svg" viewBox="0 0 24 24"><defs><style>.a{fill:none;stroke:#000;stroke-linecap:round;stroke-linejoin:round;}</style></defs><title>style-two-pin-skull</title><path class="a" d="M21,10.063c0,6.227-7.122,12.059-8.695,13.27a.5.5,0,0,1-.61,0C10.121,22.121,3,16.29,3,10.063c0-5.246,3.753-9.5,9-9.5S21,4.817,21,10.063Z"/><path class="a" d="M12,3.563a5.5,5.5,0,0,0-5.5,5.5v2.5a1,1,0,0,0,1,1h.153a1,1,0,0,1,.986.836l.222,1.328a1,1,0,0,0,.986.836h4.306a1,1,0,0,0,.986-.836l.222-1.328a1,1,0,0,1,.986-.836H16.5a1,1,0,0,0,1-1v-2.5A5.5,5.5,0,0,0,12,3.563Z"/><circle class="a" cx="9.5" cy="9.563" r="1"/><circle class="a" cx="14.5" cy="9.563" r="1"/><line class="a" x1="11" y1="15.563" x2="11" y2="13.063"/><line class="a" x1="13" y1="15.563" x2="13" y2="13.063"/></svg>