<svg xmlns="http://www.w3.org/2000/svg" viewBox="0 0 24 24"><defs><style>.a{fill:none;stroke:#000;stroke-linecap:round;stroke-linejoin:round;}</style></defs><title>style-one-pin-cross</title><path class="a" d="M21,9.756a9,9,0,1,0-13.492,7.79c1.688.974,2.143,2.049,4.057,5.443a.5.5,0,0,0,.871,0c1.934-3.431,2.372-4.471,4.056-5.443A8.983,8.983,0,0,0,21,9.756Z"/><path class="a" d="M17,8.756a1,1,0,0,0-1-1H14v-2a1,1,0,0,0-1-1H11a1,1,0,0,0-1,1v2H8a1,1,0,0,0-1,1v2a1,1,0,0,0,1,1h2v2a1,1,0,0,0,1,1h2a1,1,0,0,0,1-1v-2h2a1,1,0,0,0,1-1Z"/></svg>