<svg xmlns="http://www.w3.org/2000/svg" viewBox="0 0 24 24"><defs><style>.a{fill:none;stroke:#000;stroke-linecap:round;stroke-linejoin:round;}</style></defs><title>style-three-pin-swim-compete</title><path class="a" d="M12,.5a11.38,11.38,0,0,1,6.112,1.77c4.75,3.011,5.1,9.23,1.315,13.777A57.572,57.572,0,0,1,12,23.5a57.572,57.572,0,0,1-7.427-7.453C.789,11.5,1.138,5.281,5.888,2.27A11.38,11.38,0,0,1,12,.5Z"/><line class="a" x1="4.5" y1="10.503" x2="18" y2="5.503"/><path class="a" d="M9,17.5h4.5a3.613,3.613,0,0,0,2.5-1"/><circle class="a" cx="11.5" cy="12.003" r="1.5"/><path class="a" d="M8,9.207v5.3a1,1,0,0,0,1,1h2"/><path class="a" d="M16,6.244V11.5a1,1,0,0,0,1,1h2"/></svg>