<svg xmlns="http://www.w3.org/2000/svg" viewBox="0 0 24 24"><defs><style>.a{fill:none;stroke:#000;stroke-linecap:round;stroke-linejoin:round;}</style></defs><title>style-three-pin-palette</title><path class="a" d="M12,.574a11.38,11.38,0,0,1,6.112,1.77c4.75,3.011,5.1,9.23,1.315,13.777a59.3,59.3,0,0,1-7.106,7.188.5.5,0,0,1-.642,0,59.333,59.333,0,0,1-7.106-7.189C.789,11.574,1.138,5.355,5.888,2.344A11.38,11.38,0,0,1,12,.574Z"/><path class="a" d="M12,6.424a.25.25,0,0,1,.25.25"/><path class="a" d="M11.75,6.674a.25.25,0,0,1,.25-.25"/><path class="a" d="M12,6.924a.25.25,0,0,1-.25-.25"/><path class="a" d="M12.25,6.674a.25.25,0,0,1-.25.25"/><path class="a" d="M9.185,8.049a.25.25,0,0,1,.342-.092"/><path class="a" d="M9.277,8.39a.249.249,0,0,1-.092-.341"/><path class="a" d="M9.618,8.3a.25.25,0,0,1-.341.091"/><path class="a" d="M9.527,7.957a.251.251,0,0,1,.091.342"/><path class="a" d="M14.815,8.049a.25.25,0,0,0-.342-.092"/><path class="a" d="M14.723,8.39a.249.249,0,0,0,.092-.341"/><path class="a" d="M14.382,8.3a.25.25,0,0,0,.341.091"/><path class="a" d="M14.473,7.957a.251.251,0,0,0-.091.342"/><path class="a" d="M12,3.674A6.039,6.039,0,0,0,6,9.753c0,3.1,4.169,6.94,6.779,3.133A2.653,2.653,0,0,1,15,11.779c1.846,0,3,0,3-2.026A6.039,6.039,0,0,0,12,3.674Z"/></svg>