<svg xmlns="http://www.w3.org/2000/svg" viewBox="0 0 24 24"><defs><style>.a{fill:none;stroke:#000;stroke-linecap:round;stroke-linejoin:round;}</style></defs><title>style-three-pin-fish-prepare</title><path class="a" d="M12,.5a11.38,11.38,0,0,1,6.112,1.77c4.75,3.011,5.1,9.23,1.315,13.777A57.572,57.572,0,0,1,12,23.5a57.572,57.572,0,0,1-7.427-7.453C.789,11.5,1.138,5.281,5.888,2.27A11.38,11.38,0,0,1,12,.5Z"/><path class="a" d="M14,15.5A5.893,5.893,0,0,1,9,13s1-2.5,5-2.5S19,13,19,13A5.893,5.893,0,0,1,14,15.5Z"/><polygon class="a" points="9 13.004 6 10.504 6 15.504 9 13.004"/><path class="a" d="M15.507,12.5a.249.249,0,0,1,.25.25"/><path class="a" d="M15.257,12.746a.249.249,0,0,1,.25-.25"/><path class="a" d="M15.507,13a.25.25,0,0,1-.25-.25"/><path class="a" d="M15.757,12.746a.25.25,0,0,1-.25.25"/><path class="a" d="M14,8.5,6.378,6.6A.5.5,0,0,1,6,6.114V5.5h8Z"/><path class="a" d="M14,5.5h4v1.5a.5.5,0,0,1-.5.5H14"/></svg>