<svg xmlns="http://www.w3.org/2000/svg" viewBox="0 0 24 24"><defs><style>.a{fill:none;stroke:#000;stroke-linecap:round;stroke-linejoin:round;}</style></defs><title>style-three-pin-kayak-1</title><path class="a" d="M12,.5a11.38,11.38,0,0,1,6.112,1.77c4.75,3.011,5.1,9.23,1.315,13.777A57.572,57.572,0,0,1,12,23.5a57.572,57.572,0,0,1-7.427-7.453C.789,11.5,1.138,5.281,5.888,2.27A11.38,11.38,0,0,1,12,.5Z"/><path class="a" d="M15.5,12.006c0,4.387-2.965,7-3.5,7s-3.5-2.613-3.5-7,2.93-8.5,3.5-8.5S15.5,7.62,15.5,12.006Z"/><ellipse class="a" cx="12" cy="12.506" rx="1.5" ry="2"/><line class="a" x1="7" y1="8.506" x2="17" y2="8.506"/><rect class="a" x="17" y="7.506" width="3" height="2" rx="0.5" ry="0.5"/><rect class="a" x="4" y="7.506" width="3" height="2" rx="0.5" ry="0.5"/></svg>