<svg xmlns="http://www.w3.org/2000/svg" viewBox="0 0 24 24"><defs><style>.a{fill:none;stroke:#000;stroke-linecap:round;stroke-linejoin:round;}</style></defs><title>style-three-pin-train</title><path class="a" d="M12,.574a11.38,11.38,0,0,1,6.112,1.77c4.75,3.011,5.1,9.23,1.315,13.777a59.3,59.3,0,0,1-7.106,7.188.5.5,0,0,1-.642,0,59.333,59.333,0,0,1-7.106-7.189C.789,11.574,1.138,5.355,5.888,2.344A11.38,11.38,0,0,1,12,.574Z"/><rect class="a" x="8" y="6.574" width="8" height="8" rx="1" ry="1"/><line class="a" x1="8" y1="10.574" x2="16" y2="10.574"/><path class="a" d="M10,12.324a.25.25,0,0,1,.25.25"/><path class="a" d="M9.75,12.574a.25.25,0,0,1,.25-.25"/><path class="a" d="M10,12.824a.25.25,0,0,1-.25-.25"/><path class="a" d="M10.25,12.574a.25.25,0,0,1-.25.25"/><path class="a" d="M14,12.324a.25.25,0,0,1,.25.25"/><path class="a" d="M13.75,12.574a.25.25,0,0,1,.25-.25"/><path class="a" d="M14,12.824a.25.25,0,0,1-.25-.25"/><path class="a" d="M14.25,12.574a.25.25,0,0,1-.25.25"/><line class="a" x1="11" y1="4.574" x2="13" y2="4.574"/><line class="a" x1="9" y1="14.574" x2="6.33" y2="18.134"/><line class="a" x1="15" y1="14.574" x2="17.67" y2="18.134"/></svg>