<svg xmlns="http://www.w3.org/2000/svg" viewBox="0 0 24 24"><defs><style>.a{fill:none;stroke:#000;stroke-linecap:round;stroke-linejoin:round;}</style></defs><title>style-three-pin-vet</title><path class="a" d="M12,.574a11.38,11.38,0,0,1,6.112,1.77c4.75,3.011,5.1,9.23,1.315,13.777a59.3,59.3,0,0,1-7.106,7.188.5.5,0,0,1-.642,0,59.333,59.333,0,0,1-7.106-7.189C.789,11.574,1.138,5.355,5.888,2.344A11.38,11.38,0,0,1,12,.574Z"/><path class="a" d="M12,16.574c2.5,0,4-.691,4-2,0-2-1.817-2.084-2-3-.17-.849-.5-2-2-2s-1.83,1.151-2,2c-.183.916-2,1-2,3C8,15.883,9.5,16.574,12,16.574Z"/><circle class="a" cx="7.5" cy="9.574" r="1.5"/><circle class="a" cx="10" cy="6.574" r="1.5"/><circle class="a" cx="16.5" cy="9.574" r="1.5"/><circle class="a" cx="14" cy="6.574" r="1.5"/><line class="a" x1="12" y1="12.574" x2="12" y2="14.574"/><line class="a" x1="11" y1="13.574" x2="13" y2="13.574"/></svg>