<svg xmlns="http://www.w3.org/2000/svg" viewBox="0 0 24 24"><defs><style>.a{fill:none;stroke:#000;stroke-linecap:round;stroke-linejoin:round;}</style></defs><title>style-one-pin-home</title><path class="a" d="M21,9.756a9,9,0,1,0-13.492,7.79c1.688.974,2.143,2.049,4.057,5.443a.5.5,0,0,0,.871,0c1.934-3.431,2.372-4.471,4.056-5.443A8.983,8.983,0,0,0,21,9.756Z"/><path class="a" d="M10.5,13.756v-2.5a1.5,1.5,0,0,1,3,0v2.5"/><polyline class="a" points="8.5 7.938 8.5 13.756 15.5 13.756 15.5 7.938"/><polyline class="a" points="6.5 9.756 12 4.756 17.5 9.756"/></svg>