<svg xmlns="http://www.w3.org/2000/svg" viewBox="0 0 24 24"><defs><style>.a{fill:none;stroke:#000;stroke-linecap:round;stroke-linejoin:round;}</style></defs><title>style-one-pin-skull</title><path class="a" d="M21,9.756a9,9,0,1,0-13.492,7.79c1.688.974,2.143,2.049,4.057,5.443a.5.5,0,0,0,.871,0c1.934-3.431,2.372-4.471,4.056-5.443A8.983,8.983,0,0,0,21,9.756Z"/><path class="a" d="M12,3.756a5.5,5.5,0,0,0-5.5,5.5v2.5a1,1,0,0,0,1,1h.153a1,1,0,0,1,.986.836l.222,1.329a1,1,0,0,0,.986.835h4.306a1,1,0,0,0,.986-.835l.222-1.329a1,1,0,0,1,.986-.836H16.5a1,1,0,0,0,1-1v-2.5A5.5,5.5,0,0,0,12,3.756Z"/><circle class="a" cx="9.5" cy="9.756" r="1"/><circle class="a" cx="14.5" cy="9.756" r="1"/><line class="a" x1="11" y1="15.756" x2="11" y2="13.256"/><line class="a" x1="13" y1="15.756" x2="13" y2="13.256"/></svg>