<svg xmlns="http://www.w3.org/2000/svg" viewBox="0 0 24 24"><defs><style>.a{fill:none;stroke:#000;stroke-linecap:round;stroke-linejoin:round;}</style></defs><title>style-three-pin-shop</title><polyline class="a" points="17 9.574 17 14.574 7 14.574 7 9.574"/><rect class="a" x="13" y="11.574" width="2" height="3"/><polygon class="a" points="18 9.574 18 7.574 16.5 5.574 7.5 5.574 6 7.574 6 9.574 18 9.574"/><line class="a" x1="9" y1="8.074" x2="9" y2="9.574"/><line class="a" x1="12" y1="8.074" x2="12" y2="9.574"/><line class="a" x1="15" y1="8.074" x2="15" y2="9.574"/><line class="a" x1="9" y1="11.574" x2="11" y2="11.574"/><path class="a" d="M12,.574a11.38,11.38,0,0,1,6.112,1.77c4.75,3.011,5.1,9.23,1.315,13.777a59.333,59.333,0,0,1-7.106,7.189.5.5,0,0,1-.642,0,59.3,59.3,0,0,1-7.106-7.188C.789,11.574,1.138,5.355,5.888,2.344A11.38,11.38,0,0,1,12,.574Z"/></svg>