<svg xmlns="http://www.w3.org/2000/svg" viewBox="0 0 24 24"><defs><style>.a{fill:none;stroke:#000;stroke-linecap:round;stroke-linejoin:round;}</style></defs><title>style-three-pin-volcano</title><path class="a" d="M12,.5a11.38,11.38,0,0,1,6.112,1.77c4.75,3.011,5.1,9.23,1.315,13.777A57.572,57.572,0,0,1,12,23.5a57.572,57.572,0,0,1-7.427-7.453C.789,11.5,1.138,5.281,5.888,2.27A11.38,11.38,0,0,1,12,.5Z"/><path class="a" d="M10,9.5h4c.168,1.511,1.776,3.148,2.9,4.123a.5.5,0,0,1-.327.877H7.49a.5.5,0,0,1-.318-.884C8.352,12.642,10,11.009,10,9.5Z"/><path class="a" d="M7,7.5a2,2,0,1,1,4,0v2"/><path class="a" d="M17,7.5a2,2,0,1,0-4,0v2"/><line class="a" x1="12" y1="4.502" x2="12" y2="3.002"/></svg>