<svg xmlns="http://www.w3.org/2000/svg" viewBox="0 0 24 24"><defs><style>.a{fill:none;stroke:#000;stroke-linecap:round;stroke-linejoin:round;}</style></defs><title>style-three-pin-airchair</title><path class="a" d="M16,12.282a1,1,0,0,0-.7-.953,9.124,9.124,0,0,0-3.3-.755,9.124,9.124,0,0,0-3.3.755,1,1,0,0,0-.7.953v1.292a1,1,0,0,0,1,1h6a1,1,0,0,0,1-1Z"/><line class="a" x1="9" y1="14.574" x2="9" y2="15.574"/><line class="a" x1="15" y1="14.574" x2="15" y2="15.574"/><path class="a" d="M12,7.824a.25.25,0,0,1-.25-.25"/><path class="a" d="M12.25,7.574a.25.25,0,0,1-.25.25"/><path class="a" d="M12,7.324a.25.25,0,0,1,.25.25"/><path class="a" d="M11.75,7.574a.25.25,0,0,1,.25-.25"/><path class="a" d="M16,8.574v0a4,4,0,1,0-8,0v0"/><path class="a" d="M9.975,10.887A2.023,2.023,0,0,0,10,10.574a2,2,0,1,0-2,2"/><path class="a" d="M16,12.574a2,2,0,1,0-2-2,2.023,2.023,0,0,0,.025.313"/><path class="a" d="M12,.574a11.38,11.38,0,0,1,6.112,1.77c4.75,3.011,5.1,9.23,1.315,13.777a59.3,59.3,0,0,1-7.106,7.188.5.5,0,0,1-.642,0,59.333,59.333,0,0,1-7.106-7.189C.789,11.574,1.138,5.355,5.888,2.344A11.38,11.38,0,0,1,12,.574Z"/></svg>