<svg xmlns="http://www.w3.org/2000/svg" viewBox="0 0 24 24"><defs><style>.a{fill:none;stroke:#000;stroke-linecap:round;stroke-linejoin:round;}</style></defs><title>style-three-pin-skull</title><path class="a" d="M12,.5a11.38,11.38,0,0,1,6.112,1.77c4.75,3.011,5.1,9.23,1.315,13.777A57.572,57.572,0,0,1,12,23.5a57.572,57.572,0,0,1-7.427-7.453C.789,11.5,1.138,5.281,5.888,2.27A11.38,11.38,0,0,1,12,.5Z"/><circle class="a" cx="9.5" cy="9.501" r="1"/><circle class="a" cx="14.5" cy="9.501" r="1"/><line class="a" x1="11" y1="16.501" x2="11" y2="13.501"/><line class="a" x1="13" y1="16.501" x2="13" y2="13.501"/><path class="a" d="M18,9.5a6,6,0,1,0-12,0v2a1,1,0,0,0,1,1h.153a1,1,0,0,1,.986.836l.222,2.329a1,1,0,0,0,.986.835h5.306a1,1,0,0,0,.986-.836l.222-2.328a1,1,0,0,1,.986-.836H17a1,1,0,0,0,1-1Z"/></svg>