<svg xmlns="http://www.w3.org/2000/svg" viewBox="0 0 24 24"><defs><style>.a{fill:none;stroke:#000;stroke-linecap:round;stroke-linejoin:round;}</style></defs><title>style-three-pin-lotus</title><path class="a" d="M13.5,7.573a4.581,4.581,0,0,1-1.5,3,4.581,4.581,0,0,1-1.5-3,4.587,4.587,0,0,1,1.5-3A4.587,4.587,0,0,1,13.5,7.573Z"/><line class="a" x1="12" y1="12.073" x2="12" y2="10.573"/><path class="a" d="M16.5,11.574a1.452,1.452,0,0,1,.5.97c0,1.1-2.239,2-5,2s-5-.9-5-2a1.456,1.456,0,0,1,.5-.971"/><path class="a" d="M13.5,7.653c.021-.016.042-.032.064-.047a4.586,4.586,0,0,1,3.312-.531,4.59,4.59,0,0,1-1.563,2.968,4.583,4.583,0,0,1-3.312.53,4.583,4.583,0,0,1-3.312-.53A4.59,4.59,0,0,1,7.125,7.075a4.586,4.586,0,0,1,3.312.531c.022.015.043.031.064.047"/><path class="a" d="M12,.574a11.38,11.38,0,0,1,6.112,1.77c4.75,3.011,5.1,9.23,1.315,13.777a59.333,59.333,0,0,1-7.106,7.189.5.5,0,0,1-.642,0,59.3,59.3,0,0,1-7.106-7.188C.789,11.574,1.138,5.355,5.888,2.344A11.38,11.38,0,0,1,12,.574Z"/></svg>