<svg xmlns="http://www.w3.org/2000/svg" viewBox="0 0 24 24"><defs><style>.a{fill:none;stroke:#000;stroke-linecap:round;stroke-linejoin:round;}</style></defs><title>style-three-pin-snow-slide</title><path class="a" d="M12,.5a11.38,11.38,0,0,1,6.112,1.77c4.75,3.011,5.1,9.23,1.315,13.777A57.572,57.572,0,0,1,12,23.5a57.572,57.572,0,0,1-7.427-7.453C.789,11.5,1.138,5.281,5.888,2.27A11.38,11.38,0,0,1,12,.5Z"/><path class="a" d="M4.037,9.982l8.239,5.147a4.267,4.267,0,0,0,3.6.435"/><circle class="a" cx="16.5" cy="10.004" r="1.5"/><path class="a" d="M13,12.5a.982.982,0,0,1-.528-.153l-4-2.5a.99.99,0,0,1-.419-.531l-1-3a1,1,0,0,1,1.9-.633l.886,2.66,3.695,2.309A1,1,0,0,1,13,12.5Z"/></svg>