<svg xmlns="http://www.w3.org/2000/svg" viewBox="0 0 24 24"><defs><style>.a{fill:none;stroke:#000;stroke-linecap:round;stroke-linejoin:round;}</style></defs><title>style-three-pin-oc</title><path class="a" d="M12,.574a11.38,11.38,0,0,1,6.112,1.77c4.75,3.011,5.1,9.23,1.315,13.777a59.3,59.3,0,0,1-7.106,7.188.5.5,0,0,1-.642,0,59.333,59.333,0,0,1-7.106-7.189C.789,11.574,1.138,5.355,5.888,2.344A11.38,11.38,0,0,1,12,.574Z"/><path class="a" d="M10,11.574a2,2,0,0,1-4,0v-4a2,2,0,0,1,4,0Z"/><path class="a" d="M17,13.574a4,4,0,0,1,0-8"/></svg>