<svg xmlns="http://www.w3.org/2000/svg" viewBox="0 0 24 24"><defs><style>.a{fill:none;stroke:#000;stroke-linecap:round;stroke-linejoin:round;}</style></defs><title>style-three-pin-barrier</title><path class="a" d="M12,.5a11.38,11.38,0,0,1,6.112,1.77c4.75,3.011,5.1,9.23,1.315,13.777A57.572,57.572,0,0,1,12,23.5a57.572,57.572,0,0,1-7.427-7.453C.789,11.5,1.138,5.281,5.888,2.27A11.38,11.38,0,0,1,12,.5Z"/><rect class="a" x="6" y="7.503" width="12" height="4" rx="0.5" ry="0.5"/><line class="a" x1="8" y1="11.503" x2="8" y2="16.503"/><line class="a" x1="16" y1="11.503" x2="16" y2="16.503"/><line class="a" x1="6.147" y1="11.356" x2="10" y2="7.503"/><line class="a" x1="14" y1="11.503" x2="17.853" y2="7.651"/><line class="a" x1="10" y1="11.503" x2="14" y2="7.503"/><circle class="a" cx="8" cy="5.503" r="1"/><circle class="a" cx="16" cy="5.503" r="1"/><line class="a" x1="8" y1="6.503" x2="8" y2="7.503"/><line class="a" x1="16" y1="6.503" x2="16" y2="7.503"/></svg>