<svg xmlns="http://www.w3.org/2000/svg" viewBox="0 0 24 24"><defs><style>.a{fill:none;stroke:#000;stroke-linecap:round;stroke-linejoin:round;}</style></defs><title>style-three-pin-key-lock</title><path class="a" d="M12,.574a11.38,11.38,0,0,1,6.112,1.77c4.75,3.011,5.1,9.23,1.315,13.777a59.3,59.3,0,0,1-7.106,7.188.5.5,0,0,1-.642,0,59.333,59.333,0,0,1-7.106-7.189C.789,11.574,1.138,5.355,5.888,2.344A11.38,11.38,0,0,1,12,.574Z"/><path class="a" d="M17,8.574v-1a2,2,0,1,0-4,0v1"/><rect class="a" x="12" y="8.574" width="6" height="5" rx="0.5" ry="0.5"/><path class="a" d="M15,10.824a.25.25,0,0,1,.25.25"/><path class="a" d="M14.75,11.074a.25.25,0,0,1,.25-.25"/><path class="a" d="M15,11.324a.25.25,0,0,1-.25-.25"/><path class="a" d="M15.25,11.074a.25.25,0,0,1-.25.25"/><circle class="a" cx="8.5" cy="12.074" r="1.5"/><polyline class="a" points="9 10.663 9 6.574 8 6.574"/><line class="a" x1="9" y1="8.574" x2="8" y2="8.574"/></svg>