<svg xmlns="http://www.w3.org/2000/svg" viewBox="0 0 24 24"><defs><style>.a{fill:none;stroke:#000;stroke-linecap:round;stroke-linejoin:round;}</style></defs><title>style-three-pin-bicycle</title><circle class="a" cx="7.5" cy="11.074" r="2.5"/><circle class="a" cx="16.5" cy="11.074" r="2.5"/><polygon class="a" points="7.5 11.074 10.5 7.574 14.238 6.172 12 10.574 7.5 11.074"/><line class="a" x1="16.5" y1="11.074" x2="13.5" y2="4.574"/><line class="a" x1="8" y1="5.574" x2="10" y2="6.074"/><path class="a" d="M12,.574a11.38,11.38,0,0,1,6.112,1.77c4.75,3.011,5.1,9.23,1.315,13.777a59.3,59.3,0,0,1-7.106,7.188.5.5,0,0,1-.642,0,59.333,59.333,0,0,1-7.106-7.189C.789,11.574,1.138,5.355,5.888,2.344A11.38,11.38,0,0,1,12,.574Z"/></svg>