<svg xmlns="http://www.w3.org/2000/svg" viewBox="0 0 24 24"><defs><style>.a{fill:none;stroke:#000;stroke-linecap:round;stroke-linejoin:round;}</style></defs><title>style-three-pin-climbing</title><path class="a" d="M12,.5a11.38,11.38,0,0,1,6.112,1.77c4.75,3.011,5.1,9.23,1.315,13.777A57.572,57.572,0,0,1,12,23.5a57.572,57.572,0,0,1-7.427-7.453C.789,11.5,1.138,5.281,5.888,2.27A11.38,11.38,0,0,1,12,.5Z"/><path class="a" d="M18.5,5,17.146,6.355A.5.5,0,0,0,17,6.708V9.816a.5.5,0,0,1-.12.325l-2.76,3.22a.5.5,0,0,0-.12.325v2.608a.5.5,0,0,1-.146.353L11,19.5"/><circle class="a" cx="11" cy="4.501" r="2"/><path class="a" d="M11,16.5a1,1,0,0,1-.707-.293l-2-2a1,1,0,0,1-.263-.949l1-4a1,1,0,0,1,.728-.728l4-1a1,1,0,1,1,.484,1.94L11,10.5,10.5,13l1.207,1.793A1,1,0,0,1,11,16.5Z"/></svg>