<svg xmlns="http://www.w3.org/2000/svg" viewBox="0 0 24 24"><defs><style>.a{fill:none;stroke:#000;stroke-linecap:round;stroke-linejoin:round;}</style></defs><title>style-three-pin-plane-fly</title><path class="a" d="M12,.5a11.38,11.38,0,0,1,6.112,1.77c4.75,3.011,5.1,9.23,1.315,13.777A57.572,57.572,0,0,1,12,23.5a57.572,57.572,0,0,1-7.427-7.453C.789,11.5,1.138,5.281,5.888,2.27A11.38,11.38,0,0,1,12,.5Z"/><path class="a" d="M17.859,13.338,12,12.5l-5.859.837A1,1,0,0,1,5,12.348v-.861a1,1,0,0,1,.382-.786l6-4.714a1,1,0,0,1,1.236,0l6,4.714a1,1,0,0,1,.382.786v.861A1,1,0,0,1,17.859,13.338Z"/><polyline class="a" points="9 10.502 10.5 14.502 13.5 14.502 15 10.502"/></svg>