<svg xmlns="http://www.w3.org/2000/svg" viewBox="0 0 24 24"><defs><style>.a{fill:none;stroke:#000;stroke-linecap:round;stroke-linejoin:round;}</style></defs><title>supermarket-1</title><line class="a" x1="11.5" y1="4.5" x2="11.5" y2="0.5"/><path class="a" d="M11.5.5H15a.5.5,0,0,1,.5.5V2a.5.5,0,0,1-.5.5H11.5a0,0,0,0,1,0,0V.5A0,0,0,0,1,11.5.5Z"/><line class="a" x1="0.5" y1="23.5" x2="23.5" y2="23.5"/><path class="a" d="M2.5,20.5h5a0,0,0,0,1,0,0v3a0,0,0,0,1,0,0h-6a0,0,0,0,1,0,0v-2A1,1,0,0,1,2.5,20.5Z"/><path class="a" d="M15.5,20.5h5a1,1,0,0,1,1,1v2a0,0,0,0,1,0,0h-6a0,0,0,0,1,0,0v-3A0,0,0,0,1,15.5,20.5Z"/><path class="a" d="M8,15.5h7a.5.5,0,0,1,.5.5v7.5a0,0,0,0,1,0,0h-8a0,0,0,0,1,0,0V16A.5.5,0,0,1,8,15.5Z"/><line class="a" x1="11.5" y1="15.5" x2="11.5" y2="23.5"/><polyline class="a" points="2.5 20.5 2.5 12.5 20.5 12.5 20.5 20.5"/><path class="a" d="M1.5,10.5h20a0,0,0,0,1,0,0v1a1,1,0,0,1-1,1H2.5a1,1,0,0,1-1-1v-1A0,0,0,0,1,1.5,10.5Z"/><path class="a" d="M21.5,10.5l.915-1.829A.81.81,0,0,0,21.691,7.5H16.5L16.164,7A5.606,5.606,0,0,0,6.836,7L6.5,7.5H1.309A.81.81,0,0,0,.585,8.671L1.5,10.5"/></svg>