<svg xmlns="http://www.w3.org/2000/svg" viewBox="0 0 24 24"><defs><style>.a{fill:none;stroke:#000;stroke-linecap:round;stroke-linejoin:round;}</style></defs><title>surveillance-cctv</title><path class="a" d="M.5,20.5h6a3,3,0,0,0,3-3v-4"/><line class="a" x1="0.5" y1="17.5" x2="0.5" y2="23.5"/><polyline class="a" points="21.5 4.25 21.5 9 19.5 9"/><path class="a" d="M18.5.5H4.5a4,4,0,0,0-4,4v3a4,4,0,0,0,4,4H18c.828,0,1.5-.672,1.5-2v-4l3.765-2.353a.5.5,0,0,0,.235-.424V1A.5.5,0,0,0,23,.5Z"/><circle class="a" cx="10" cy="7.5" r="1.5"/><line class="a" x1="0.5" y1="7.5" x2="5.5" y2="7.5"/><line class="a" x1="0.5" y1="4.5" x2="4.5" y2="4.5"/></svg>