<svg xmlns="http://www.w3.org/2000/svg" viewBox="0 0 24 24"><defs><style>.a{fill:none;stroke:#000;stroke-linecap:round;stroke-linejoin:round;}</style></defs><title>surveillance-cctv-1</title><path class="a" d="M15.5,8a.5.5,0,0,1-.5.5H5A.5.5,0,0,1,4.5,8V3A2.5,2.5,0,0,1,7,.5H23a.5.5,0,0,1,.485.621l-.774,3.1a.5.5,0,0,1-.35.36L15.5,6.5Z"/><path class="a" d="M19.5,5.38V10a.5.5,0,0,1-.5.5H7.5a2,2,0,0,1-2-2"/><line class="a" x1="21.5" y1="7" x2="21.5" y2="9"/><line class="a" x1="8.5" y1="12.5" x2="12.5" y2="12.5"/><path class="a" d="M10.5,12.5v5.18a1,1,0,0,1-.8.981L.5,20.5"/><line class="a" x1="0.5" y1="17.5" x2="0.5" y2="23.5"/></svg>