<svg xmlns="http://www.w3.org/2000/svg" viewBox="0 0 24 24"><defs><style>.a{fill:none;stroke:#000;stroke-linecap:round;stroke-linejoin:round;}</style></defs><title>surveillance-camera-moving</title><path class="a" d="M8.811,17.31l-5.9,5.9a1,1,0,0,1-1.414,0L.793,22.5a1,1,0,0,1,0-1.414l5.9-5.9"/><path class="a" d="M7.157,13.544l-.472-.472a1,1,0,0,1,.036-1.448L19.039.676A.8.8,0,0,1,19.86.568l1.934.967a1.758,1.758,0,0,1,.671.671l.967,1.934a.8.8,0,0,1-.108.821L12.376,17.279a1,1,0,0,1-1.448.036l-.472-.472"/><path class="a" d="M11.709,13.854a1,1,0,0,1,.074,1.331l-1.571,1.964a1,1,0,0,1-1.488.083L6.768,15.276a1,1,0,0,1,.083-1.488l1.964-1.571a1,1,0,0,1,1.331.074Z"/><path class="a" d="M21.288,11.849a4.511,4.511,0,0,1-2.92,2.918"/><path class="a" d="M23.5,10.345a6.5,6.5,0,0,1-6.633,6.633"/><path class="a" d="M12.151,2.712a4.511,4.511,0,0,0-2.918,2.92"/><path class="a" d="M13.655.5A6.5,6.5,0,0,0,7.022,7.134"/></svg>