<svg xmlns="http://www.w3.org/2000/svg" viewBox="0 0 24 24"><defs><style>.a{fill:none;stroke:#000;stroke-linecap:round;stroke-linejoin:round;}</style></defs><title>sync-location</title><path class="a" d="M15,21.3c4.894-.632,8.5-2.764,8.5-5.3,0-1.425-1.142-2.719-3-3.695"/><path class="a" d="M3.5,12.305c-1.858.976-3,2.27-3,3.7,0,3.038,5.149,5.5,11.5,5.5"/><polyline class="a" points="10 23.5 12 21.5 10 19.5"/><path class="a" d="M18,6.5c0,2.794-4.266,8.7-5.6,10.479a.492.492,0,0,1-.792,0C10.266,15.2,6,9.294,6,6.5a6,6,0,0,1,12,0Z"/><circle class="a" cx="12" cy="6.5" r="2"/></svg>