<svg id="Light" xmlns="http://www.w3.org/2000/svg" viewBox="0 0 24 24"><defs><style>.cls-1{fill:none;stroke:#000;stroke-linecap:round;stroke-linejoin:round;}</style></defs><title>t-shirt</title><path class="cls-1" d="M7.778,2H5.847a2,2,0,0,0-1.437.609L.646,6.5a.5.5,0,0,0-.094.577l2.029,4.057a.5.5,0,0,0,.8.13L5,9.5V23a.5.5,0,0,0,.5.5h13A.5.5,0,0,0,19,23V9.5l1.618,1.764a.5.5,0,0,0,.8-.13l2.028-4.057a.5.5,0,0,0-.093-.577L19.589,2.609A2,2,0,0,0,18.151,2H16.218"/><path class="cls-1" d="M12,4.5,10.435,5.673a.5.5,0,0,1-.724-.135L7.92,2.675a1,1,0,0,1,.141-1.238l.351-.351A2,2,0,0,1,9.827.5H14.17a2,2,0,0,1,1.414.586l.352.352a1,1,0,0,1,.141,1.237L14.288,5.538a.5.5,0,0,1-.724.136L12,4.5"/><line class="cls-1" x1="14.896" y1="0.636" x2="11.998" y2="4.5"/><line class="cls-1" x1="11.999" y1="9.5" x2="11.998" y2="4.5"/><line class="cls-1" x1="11.998" y1="4.5" x2="9.1" y2="0.636"/></svg>