<svg id="Light" xmlns="http://www.w3.org/2000/svg" viewBox="0 0 24 24"><defs><style>.cls-1{fill:none;stroke:#000;stroke-linecap:round;stroke-linejoin:round;}</style></defs><title>table-candles</title><path class="cls-1" d="M19.014,7.008V9.5a7,7,0,0,1-14,0V7.008"/><line class="cls-1" x1="12.014" y1="7.008" x2="12.014" y2="23.5"/><line class="cls-1" x1="7.514" y1="23.5" x2="16.514" y2="23.5"/><path class="cls-1" d="M7.2,4.82a2.188,2.188,0,1,1-4.375,0c0-.862,1.115-2.946,1.753-4.067a.5.5,0,0,1,.869,0C6.086,1.874,7.2,3.958,7.2,4.82Z"/><path class="cls-1" d="M14.2,4.82a2.188,2.188,0,1,1-4.375,0c0-.862,1.115-2.946,1.753-4.067a.5.5,0,0,1,.869,0C13.086,1.874,14.2,3.958,14.2,4.82Z"/><path class="cls-1" d="M21.2,4.82a2.188,2.188,0,1,1-4.375,0c0-.862,1.115-2.946,1.753-4.067a.5.5,0,0,1,.869,0C20.086,1.874,21.2,3.958,21.2,4.82Z"/></svg>