<svg xmlns="http://www.w3.org/2000/svg" viewBox="0 0 24 24"><defs><style>.a{fill:none;stroke:#000;stroke-linecap:round;stroke-linejoin:round;}</style></defs><title>tag-dollar-1</title><path class="a" d="M22.5,16.843,16.843,22.5a2,2,0,0,1-2.829,0L3.515,12a1.994,1.994,0,0,1-.586-1.412l0-5.665a2,2,0,0,1,2-2h5.661A2,2,0,0,1,12,3.507L22.5,14.016A2,2,0,0,1,22.5,16.843Z"/><circle class="a" cx="7.922" cy="7.921" r="2"/><line class="a" x1="0.914" y1="0.914" x2="7.414" y2="7.414"/><path class="a" d="M13.3,11.449l-1.2,1.2a1.3,1.3,0,0,0,1.177,2.2l2.168-.434a1.3,1.3,0,0,1,1.177,2.2l-1.2,1.2"/><line class="a" x1="12.237" y1="12.51" x2="11.53" y2="11.803"/><line class="a" x1="16.48" y1="16.752" x2="17.187" y2="17.459"/></svg>