<svg xmlns="http://www.w3.org/2000/svg" viewBox="0 0 24 24"><defs><style>.a{fill:none;stroke:#000;stroke-linecap:round;stroke-linejoin:round;}</style></defs><title>tag-free</title><rect class="a" x="0.5" y="5.5" width="23" height="13" rx="2" ry="2"/><path class="a" d="M4.5,14.5v-4a1,1,0,0,1,1-1h1"/><line class="a" x1="4.5" y1="12.5" x2="6" y2="12.5"/><line class="a" x1="8.5" y1="14.5" x2="8.5" y2="9.5"/><path class="a" d="M8.5,9.5h.75a1.25,1.25,0,0,1,0,2.5H8.5"/><line class="a" x1="10.5" y1="14.5" x2="9" y2="12"/><path class="a" d="M14.5,14.5h-1a1,1,0,0,1-1-1v-3a1,1,0,0,1,1-1h1"/><line class="a" x1="12.5" y1="12.5" x2="14.5" y2="12.5"/><path class="a" d="M18.5,14.5h-1a1,1,0,0,1-1-1v-3a1,1,0,0,1,1-1h1"/><line class="a" x1="16.5" y1="12.5" x2="18.5" y2="12.5"/></svg>