<svg xmlns="http://www.w3.org/2000/svg" viewBox="0 0 24 24"><defs><style>.a{fill:none;stroke:#000;stroke-linecap:round;stroke-linejoin:round;}</style></defs><title>target-correct</title><line class="a" x1="9.5" y1="11.5" x2="14.5" y2="6.5"/><path class="a" d="M14.793,3.207a1,1,0,0,0-.293.707V6.5h2.586a1,1,0,0,0,.707-.293L20.5,3.5h-3V.5Z"/><path class="a" d="M9.5,16.5A5,5,0,1,1,14.271,10"/><path class="a" d="M9.5,20.5A9,9,0,1,1,12.464,3"/><circle class="a" cx="17.5" cy="17.5" r="6"/><path class="a" d="M20.174,15.756l-2.905,3.873a.752.752,0,0,1-1.131.081l-1.5-1.5"/></svg>