<svg xmlns="http://www.w3.org/2000/svg" viewBox="0 0 24 24"><defs><style>.a{fill:none;stroke:#000;stroke-linecap:round;stroke-linejoin:round;}</style></defs><title>target-path</title><path class="a" d="M20.941,2.783A5.5,5.5,0,0,1,22.653,5.14"/><path class="a" d="M22.619,9.107a5.495,5.495,0,0,1-1.754,2.327"/><path class="a" d="M3.059,22.217A5.5,5.5,0,0,1,1.347,19.86"/><path class="a" d="M1.381,15.893a5.495,5.495,0,0,1,1.754-2.327"/><line class="a" x1="16" y1="1.5" x2="17.5" y2="1.5"/><line class="a" x1="7.5" y1="23.5" x2="9" y2="23.5"/><line class="a" x1="14" y1="12.5" x2="17" y2="12.5"/><line class="a" x1="7" y1="12.5" x2="10" y2="12.5"/><line class="a" x1="12" y1="6" x2="12" y2="23.5"/><polyline class="a" points="9 9 12 6 15 9"/><circle class="a" cx="12" cy="2" r="1.5"/></svg>