<svg xmlns="http://www.w3.org/2000/svg" viewBox="0 0 24 24"><defs><style>.a{fill:none;stroke:#000;stroke-linecap:round;stroke-linejoin:round;}</style></defs><title>target-center-phone</title><path class="a" d="M9.75,21.25h0a.25.25,0,0,1,.25.25h0a.25.25,0,0,1-.25.25h0a.25.25,0,0,1-.25-.25h0a.25.25,0,0,1,.25-.25"/><path class="a" d="M16.25,10.5v11a2,2,0,0,1-2,2h-9a2,2,0,0,1-2-2V2.5a2,2,0,0,1,2-2h6.618A5.487,5.487,0,0,1,12.5.537"/><line class="a" x1="16.25" y1="19.5" x2="3.25" y2="19.5"/><line class="a" x1="12.5" y1="4.5" x2="3.25" y2="4.5"/><line class="a" x1="8.25" y1="2.5" x2="11.25" y2="2.5"/><line class="a" x1="9.75" y1="12" x2="14.25" y2="7.5"/><path class="a" d="M14.836,3.414a2,2,0,0,0-.586,1.414V7.5h2.672a2,2,0,0,0,1.414-.586L20.75,4.5h-3.5V1Z"/><circle class="a" cx="9.75" cy="12" r="3.5"/></svg>