<svg xmlns="http://www.w3.org/2000/svg" viewBox="0 0 24 24"><defs><style>.a{fill:none;stroke:#000;stroke-linecap:round;stroke-linejoin:round;}</style></defs><title>task-finger-show</title><path class="a" d="M17,18.5v1a2,2,0,0,1-2,2H14"/><path class="a" d="M2,15.5V5.5a2,2,0,0,1,2-2H6"/><path class="a" d="M13,3.5h2a2,2,0,0,1,2,2v7"/><path class="a" d="M11.232,1.5a2,2,0,0,0-3.464,0H7a1,1,0,0,0-1,1v2a1,1,0,0,0,1,1h5a1,1,0,0,0,1-1v-2a1,1,0,0,0-1-1Z"/><path class="a" d="M1,23.5V20.832A3.333,3.333,0,0,1,4.333,17.5H6V13a1.5,1.5,0,0,1,3,0v7l1.289-1.079a1.25,1.25,0,1,1,1.922,1.6L9.732,23.5"/><path class="a" d="M20.207,16.292l-1.5-1.5a1,1,0,1,0-1.414,1.414L19,17.912V20a2.416,2.416,0,0,0,.707,1.708L21.5,23.5"/><path class="a" d="M17,10l4.293,4.293A2.414,2.414,0,0,1,22,16v2a2.41,2.41,0,0,0,.707,1.707L23,20"/></svg>