<svg xmlns="http://www.w3.org/2000/svg" viewBox="0 0 24 24"><defs><style>.a{fill:none;stroke:#000;stroke-linecap:round;stroke-linejoin:round;}</style></defs><title>task-list-cash</title><polyline class="a" points="14.5 9.491 14.5 5.491 3.5 5.491 3.5 18.49 8.5 18.491"/><path class="a" d="M17.5,8.491v-5a1,1,0,0,0-1-1H12.052a3.329,3.329,0,0,0-6.1,0H1.5a1,1,0,0,0-1,1v17a1,1,0,0,0,1,1h8"/><line class="a" x1="6.5" y1="8.491" x2="11.5" y2="8.491"/><line class="a" x1="6.5" y1="11.491" x2="11.5" y2="11.491"/><line class="a" x1="6.5" y1="14.491" x2="9.5" y2="14.491"/><path class="a" d="M19,14.491H16.967a1.342,1.342,0,0,0-.5,2.588l2.064.825a1.342,1.342,0,0,1-.5,2.587H16"/><line class="a" x1="17.5" y1="21.491" x2="17.5" y2="20.491"/><line class="a" x1="17.5" y1="14.491" x2="17.5" y2="13.491"/><circle class="a" cx="17.5" cy="17.491" r="6"/></svg>