<svg xmlns="http://www.w3.org/2000/svg" viewBox="0 0 24 24"><defs><style>.a{fill:none;stroke:#000;stroke-linecap:round;stroke-linejoin:round;}</style></defs><title>task-list-pin-1</title><path class="a" d="M18.5,5.5H20a1,1,0,0,1,1,1V17.525A5.975,5.975,0,0,1,15.025,23.5H4a1,1,0,0,1-1-1V6.5a1,1,0,0,1,1-1h9"/><line class="a" x1="12" y1="9.5" x2="18.439" y2="3.061"/><circle class="a" cx="19.5" cy="2" r="1.5"/><path class="a" d="M16,23.42V19.5a1,1,0,0,1,1-1h3.92"/><line class="a" x1="6" y1="12.5" x2="17" y2="12.5"/><line class="a" x1="6" y1="15.5" x2="17" y2="15.5"/><line class="a" x1="6" y1="18.5" x2="11.5" y2="18.5"/></svg>