<svg xmlns="http://www.w3.org/2000/svg" viewBox="0 0 24 24"><defs><style>.a{fill:none;stroke:#000;stroke-linecap:round;stroke-linejoin:round;}</style></defs><title>task-list-check-1</title><polyline class="a" points="14.5 9.5 14.5 5.5 3.5 5.5 3.5 18.499 8.5 18.5"/><path class="a" d="M17.5,8.5v-5a1,1,0,0,0-1-1H12.052a3.329,3.329,0,0,0-6.1,0H1.5a1,1,0,0,0-1,1v17a1,1,0,0,0,1,1h8"/><line class="a" x1="6.5" y1="8.5" x2="11.5" y2="8.5"/><line class="a" x1="6.5" y1="11.5" x2="11.5" y2="11.5"/><line class="a" x1="6.5" y1="14.5" x2="9.5" y2="14.5"/><circle class="a" cx="17.5" cy="17.5" r="6"/><path class="a" d="M20.174,15.755l-2.905,3.874a.751.751,0,0,1-1.131.08l-1.5-1.5"/></svg>