<svg xmlns="http://www.w3.org/2000/svg" viewBox="0 0 24 24"><defs><style>.a{fill:none;stroke:#000;stroke-linecap:round;stroke-linejoin:round;}</style></defs><title>task-list-pen</title><path class="a" d="M15.5,22.5a1,1,0,0,1-1,1H4.5a1,1,0,0,1-1-1V6.5h12Z"/><path class="a" d="M1.5,16.5a1,1,0,0,1-1-1V3.5a3,3,0,1,1,3,3"/><path class="a" d="M15.5,6.5a3,3,0,0,0,0-6H3.5"/><line class="a" x1="9.5" y1="10.5" x2="13.5" y2="10.5"/><line class="a" x1="9.5" y1="14.5" x2="13.5" y2="14.5"/><line class="a" x1="9.5" y1="18.5" x2="13.5" y2="18.5"/><polyline class="a" points="5.5 10 6 10.5 8 8.5"/><polyline class="a" points="5.5 14 6 14.5 8 12.5"/><path class="a" d="M23.5,22a1.5,1.5,0,0,1-3,0V7.5a1.5,1.5,0,0,1,3,0Z"/><line class="a" x1="20.5" y1="21.5" x2="23.5" y2="21.5"/><line class="a" x1="20.5" y1="14.5" x2="23.5" y2="14.5"/><path class="a" d="M18.5,16V8.5A1.5,1.5,0,0,1,20,7h.586"/></svg>