<svg xmlns="http://www.w3.org/2000/svg" viewBox="0 0 24 24"><defs><style>.a{fill:none;stroke:#000;stroke-linecap:round;stroke-linejoin:round;}</style></defs><title>task-list-sync</title><polyline class="a" points="14.5 9.491 14.5 5.491 3.5 5.491 3.5 18.49 8.5 18.491"/><path class="a" d="M17.5,8.991v-5.5a1,1,0,0,0-1-1H12.052a3.329,3.329,0,0,0-6.1,0H1.5a1,1,0,0,0-1,1v17a1,1,0,0,0,1,1h7"/><line class="a" x1="6.5" y1="8.491" x2="11.5" y2="8.491"/><line class="a" x1="6.5" y1="11.491" x2="11.5" y2="11.491"/><line class="a" x1="6.5" y1="14.491" x2="9.5" y2="14.491"/><polyline class="a" points="15 18.491 11.5 18.491 11.5 21.991"/><path class="a" d="M22.917,19.724A5.572,5.572,0,0,1,12.1,18.491"/><polyline class="a" points="20 16.491 23.5 16.491 23.5 12.991"/><path class="a" d="M12.083,15.258A5.572,5.572,0,0,1,22.9,16.491"/></svg>