<svg xmlns="http://www.w3.org/2000/svg" viewBox="0 0 24 24"><defs><style>.a{fill:none;stroke:#000;stroke-linecap:round;stroke-linejoin:round;}</style></defs><title>task-finger-bandage</title><line class="a" x1="8.319" y1="3.5" x2="11.319" y2="3.5"/><line class="a" x1="8.319" y1="6.5" x2="11.319" y2="6.5"/><polyline class="a" points="6.319 6.5 8.319 5 6.319 3.5"/><path class="a" d="M9.319,23.5c-1.5-2-5.417-8.673-5.417-8.673a1.2,1.2,0,0,1,1.759-1.6L8.319,15.5V2a1.5,1.5,0,0,1,3,0V8.5h2a1,1,0,0,1,1,1h2a1,1,0,0,1,1,1h1.5a1.5,1.5,0,0,1,1.5,1.5v3.1a10.02,10.02,0,0,1-.385,2.748L18.319,23.5"/><line class="a" x1="14.319" y1="9.5" x2="14.319" y2="11.5"/><line class="a" x1="11.319" y1="8" x2="11.319" y2="11.5"/><line class="a" x1="17.319" y1="10.5" x2="17.319" y2="12.5"/></svg>