<svg xmlns="http://www.w3.org/2000/svg" viewBox="0 0 24 24"><defs><style>.a{fill:none;stroke:#000;stroke-linecap:round;stroke-linejoin:round;}</style></defs><title>task-list-search</title><polyline class="a" points="14.5 9.991 14.5 5.491 3.5 5.491 3.5 18.49 9.5 18.491"/><path class="a" d="M17.5,8.991v-5.5a1,1,0,0,0-1-1H12.052a3.329,3.329,0,0,0-6.1,0H1.5a1,1,0,0,0-1,1v17a1,1,0,0,0,1,1h9"/><line class="a" x1="6.5" y1="8.491" x2="11.5" y2="8.491"/><line class="a" x1="6.5" y1="11.491" x2="11.5" y2="11.491"/><line class="a" x1="6.5" y1="14.491" x2="9.5" y2="14.491"/><circle class="a" cx="17.029" cy="17.021" r="4.529"/><line class="a" x1="23.5" y1="23.491" x2="20.252" y2="20.244"/></svg>