<svg xmlns="http://www.w3.org/2000/svg" viewBox="0 0 24 24"><defs><style>.a{fill:none;stroke:#000;stroke-linecap:round;stroke-linejoin:round;}</style></defs><title>task-list-upload_1</title><polyline class="a" points="14.516 9.474 14.516 5.474 3.516 5.474 3.516 18.473 8.516 18.474"/><path class="a" d="M17.516,8.474v-5a1,1,0,0,0-1-1H12.068a3.329,3.329,0,0,0-6.1,0H1.516a1,1,0,0,0-1,1v17a1,1,0,0,0,1,1h8"/><line class="a" x1="6.516" y1="8.474" x2="11.516" y2="8.474"/><line class="a" x1="6.516" y1="11.474" x2="11.516" y2="11.474"/><line class="a" x1="6.516" y1="14.474" x2="9.516" y2="14.474"/><circle class="a" cx="17.516" cy="17.474" r="6"/><line class="a" x1="17.516" y1="20.474" x2="17.516" y2="14.474"/><line class="a" x1="17.516" y1="14.474" x2="15.266" y2="16.724"/><line class="a" x1="17.516" y1="14.474" x2="19.766" y2="16.724"/></svg>