<svg xmlns="http://www.w3.org/2000/svg" viewBox="0 0 24 24"><defs><style>.a{fill:none;stroke:#000;stroke-linecap:round;stroke-linejoin:round;}</style></defs><title>task-list-pin</title><path class="a" d="M20.5,9.5a1,1,0,0,0-1-1H4.5a1,1,0,0,0-1,1v13a1,1,0,0,0,1,1h9a2.782,2.782,0,0,0,1.707-.707l4.586-4.586A2.782,2.782,0,0,0,20.5,16.5Z"/><path class="a" d="M14.5,23.255V18.5a1,1,0,0,1,1-1h4.755"/><circle class="a" cx="11.5" cy="3.5" r="3"/><line class="a" x1="11.5" y1="6.5" x2="11.5" y2="9.5"/><path class="a" d="M11.5,2.5a1,1,0,0,1,1,1"/><line class="a" x1="7" y1="12.5" x2="15" y2="12.5"/><line class="a" x1="7" y1="15.5" x2="15" y2="15.5"/><line class="a" x1="7" y1="18.5" x2="12" y2="18.5"/></svg>