<svg xmlns="http://www.w3.org/2000/svg" viewBox="0 0 24 24"><defs><style>.a{fill:none;stroke:#000;stroke-linecap:round;stroke-linejoin:round;}</style></defs><title>taxi-1</title><path class="a" d="M19.5,12.75a.25.25,0,0,0-.25.25"/><path class="a" d="M19.75,13a.25.25,0,0,0-.25-.25"/><path class="a" d="M19.5,13.25a.25.25,0,0,0,.25-.25"/><path class="a" d="M19.25,13a.25.25,0,0,0,.25.25"/><path class="a" d="M17,12.75a.25.25,0,0,0-.25.25"/><path class="a" d="M17.25,13a.25.25,0,0,0-.25-.25"/><path class="a" d="M17,13.25a.25.25,0,0,0,.25-.25"/><path class="a" d="M16.75,13a.25.25,0,0,0,.25.25"/><path class="a" d="M14.5,12.75a.25.25,0,0,0-.25.25"/><path class="a" d="M14.75,13a.25.25,0,0,0-.25-.25"/><path class="a" d="M14.5,13.25a.25.25,0,0,0,.25-.25"/><path class="a" d="M14.25,13a.25.25,0,0,0,.25.25"/><path class="a" d="M12,12.75a.25.25,0,0,0-.25.25"/><path class="a" d="M12.25,13a.25.25,0,0,0-.25-.25"/><path class="a" d="M12,13.25a.25.25,0,0,0,.25-.25"/><path class="a" d="M11.75,13a.25.25,0,0,0,.25.25"/><path class="a" d="M9.5,12.75a.25.25,0,0,0-.25.25"/><path class="a" d="M9.75,13a.25.25,0,0,0-.25-.25"/><path class="a" d="M9.5,13.25A.25.25,0,0,0,9.75,13"/><path class="a" d="M9.25,13a.25.25,0,0,0,.25.25"/><path class="a" d="M7,12.75a.25.25,0,0,0-.25.25"/><path class="a" d="M7.25,13A.25.25,0,0,0,7,12.75"/><path class="a" d="M7,13.25A.25.25,0,0,0,7.25,13"/><path class="a" d="M6.75,13a.25.25,0,0,0,.25.25"/><path class="a" d="M4.5,12.75a.25.25,0,0,0-.25.25"/><path class="a" d="M4.75,13a.25.25,0,0,0-.25-.25"/><path class="a" d="M4.5,13.25A.25.25,0,0,0,4.75,13"/><path class="a" d="M4.25,13a.25.25,0,0,0,.25.25"/><circle class="a" cx="18.5" cy="17" r="2"/><line class="a" x1="5.5" y1="17" x2="0.5" y2="17"/><circle class="a" cx="7.5" cy="17" r="2"/><line class="a" x1="16.5" y1="17" x2="9.5" y2="17"/><line class="a" x1="23.5" y1="17" x2="20.5" y2="17"/><path class="a" d="M1.5,17V14a3,3,0,0,1,3-3h1a5.827,5.827,0,0,1,5.578-4H15.5a1,1,0,0,1,.894.553L18.118,11H20.5a2,2,0,0,1,2,2v4"/><path class="a" d="M14.563,6.972c0,.045-.3-1.023-.461-1.606A.5.5,0,0,0,13.62,5h-1.3a.5.5,0,0,0-.454.291L11.078,7"/><line class="a" x1="18.118" y1="11" x2="5.5" y2="11"/><line class="a" x1="11.5" y1="7" x2="11.5" y2="11"/></svg>