<svg id="Light" xmlns="http://www.w3.org/2000/svg" viewBox="0 0 24 24"><defs><style>.cls-1{fill:none;stroke:#000;stroke-linecap:round;stroke-linejoin:round;}</style></defs><title>tea-pot</title><path class="cls-1" d="M17.735,19.5a.5.5,0,0,0,.41-.213,7.5,7.5,0,1,0-12.289,0,.5.5,0,0,0,.41.213Z"/><path class="cls-1" d="M4.5,15a3,3,0,0,1-3-3V10.5a1,1,0,0,0-1-1"/><path class="cls-1" d="M19.294,16.745A2.958,2.958,0,0,0,20.5,17a3,3,0,1,0-1.808-5.389"/><line class="cls-1" x1="6" y1="10.5" x2="18" y2="10.5"/><circle class="cls-1" cx="12" cy="6" r="1.5"/></svg>