<svg xmlns="http://www.w3.org/2000/svg" viewBox="0 0 24 24"><defs><style>.a{fill:none;stroke:#000;stroke-linecap:round;stroke-linejoin:round;}</style></defs><title>team-meeting-message-lock</title><path class="a" d="M11.5,23.5s-2.02-.893-3.432-1.415c-.926-.345-.794-1.907-.258-2.494a4.284,4.284,0,0,0,1.259-3.532A3,3,0,0,0,6,12.78a3,3,0,0,0-3.069,3.279A4.284,4.284,0,0,0,4.19,19.591c.536.587.668,2.149-.258,2.494C2.52,22.607.5,23.5.5,23.5"/><path class="a" d="M23.5,23.5s-2.02-.893-3.432-1.415c-.926-.345-.794-1.907-.258-2.494a4.284,4.284,0,0,0,1.259-3.532,3.076,3.076,0,1,0-6.138,0,4.284,4.284,0,0,0,1.259,3.532c.536.587.668,2.149-.258,2.494C14.52,22.607,12.5,23.5,12.5,23.5"/><path class="a" d="M15.5,1.5h3a1,1,0,0,1,1,1v7a1,1,0,0,1-1,1h-4l-3,3v-3h-7a1,1,0,0,1-1-1v-7a1,1,0,0,1,1-1h3"/><rect class="a" x="8.5" y="3.497" width="6" height="5" rx="1" ry="1"/><path class="a" d="M11.5.5h0a2,2,0,0,0-2,2v1h4v-1A2,2,0,0,0,11.5.5Z"/><path class="a" d="M11.5,5.766a.25.25,0,1,1-.25.25.25.25,0,0,1,.25-.25"/></svg>