<svg xmlns="http://www.w3.org/2000/svg" viewBox="0 0 24 24"><defs><style>.a{fill:none;stroke:#000;stroke-linecap:round;stroke-linejoin:round;}</style></defs><title>team-approve-disapprove</title><path class="a" d="M9.164,22.251a5,5,0,0,0-8.664,0"/><path class="a" d="M2.255,13.734a4.987,4.987,0,0,0,5.536,1.114"/><circle class="a" cx="4.831" cy="15.248" r="3"/><path class="a" d="M23.5,22.251a5,5,0,0,0-8.664,0"/><path class="a" d="M16.591,13.734a4.987,4.987,0,0,0,5.536,1.114"/><circle class="a" cx="19.167" cy="15.248" r="3"/><line class="a" x1="20" y1="3.748" x2="17" y2="6.748"/><line class="a" x1="17" y1="3.748" x2="20" y2="6.748"/><path class="a" d="M7.283,3.585,5.346,6.168a.5.5,0,0,1-.754.053l-1-1"/><path class="a" d="M10.5,8.248a1,1,0,0,1-1,1h-2v2l-2.5-2H1.5a1,1,0,0,1-1-1v-6a1,1,0,0,1,1-1h8a1,1,0,0,1,1,1Z"/><path class="a" d="M13.5,8.248a1,1,0,0,0,1,1h2v2l2.5-2h3.5a1,1,0,0,0,1-1v-6a1,1,0,0,0-1-1h-8a1,1,0,0,0-1,1Z"/></svg>