<svg id="Light" xmlns="http://www.w3.org/2000/svg" viewBox="0 0 24 24"><defs><style>.cls-1{fill:none;stroke:#000;stroke-linecap:round;stroke-linejoin:round;}</style></defs><title>technology-hand-chip</title><line class="cls-1" x1="21" y1="16" x2="21" y2="14.5"/><line class="cls-1" x1="21" y1="22.5" x2="21" y2="21"/><path class="cls-1" d="M6.5,17.5A5.752,5.752,0,0,1,5,21a5.752,5.752,0,0,1-1.5-3.5A5.752,5.752,0,0,1,5,14,5.752,5.752,0,0,1,6.5,17.5Z"/><rect class="cls-1" x="17" y="16" width="5" height="5" rx="1" ry="1" transform="translate(1 38) rotate(-90)"/><line class="cls-1" x1="18" y1="16" x2="18" y2="14.5"/><line class="cls-1" x1="18" y1="22.5" x2="18" y2="21"/><line class="cls-1" x1="19.5" y1="19" x2="20.5" y2="19"/><path class="cls-1" d="M.5,23.5V4a1.5,1.5,0,0,1,3,0V8.5"/><path class="cls-1" d="M3.5,8.5V2a1.5,1.5,0,0,1,3,0V8.5"/><path class="cls-1" d="M6.5,8.5V3a1.5,1.5,0,0,1,3,0V9.5"/><path class="cls-1" d="M9.5,13V9a1.5,1.5,0,0,1,3,0v5.471a3,3,0,0,1-.632,1.842L9.632,19.188A2.994,2.994,0,0,0,9,21.029V23.5"/><line class="cls-1" x1="6.372" y1="18.5" x2="13.5" y2="18.5"/><line class="cls-1" x1="22" y1="20" x2="23.5" y2="20"/><line class="cls-1" x1="15.5" y1="20" x2="17" y2="20"/><line class="cls-1" x1="22" y1="17" x2="23.5" y2="17"/><line class="cls-1" x1="15.5" y1="17" x2="17" y2="17"/></svg>