<svg id="Light" xmlns="http://www.w3.org/2000/svg" viewBox="0 0 24 24"><defs><style>.cls-1{fill:none;stroke:#000;stroke-linecap:round;stroke-linejoin:round;}</style></defs><title>temperature-up</title><path class="cls-1" d="M4.5,16.261V4.75a1.5,1.5,0,0,0-3,0V16.261a2.5,2.5,0,1,0,3,0Z"/><path class="cls-1" d="M3,18a.25.25,0,0,1,.25.25"/><path class="cls-1" d="M2.75,18.25A.25.25,0,0,1,3,18"/><path class="cls-1" d="M3,18.5a.25.25,0,0,1-.25-.25"/><path class="cls-1" d="M3.25,18.25A.25.25,0,0,1,3,18.5"/><line class="cls-1" x1="7.5" y1="20.75" x2="23.5" y2="20.75"/><path class="cls-1" d="M21.975,7.7,17.329,9a1,1,0,0,0-.659.59l-1.522,3.776a1,1,0,0,1-.724.605l-6.4,1.33"/></svg>