<svg id="Light" xmlns="http://www.w3.org/2000/svg" viewBox="0 0 24 24"><defs><style>.cls-1,.cls-2,.cls-3{fill:none;stroke:#000;stroke-linecap:round;stroke-linejoin:round;}.cls-2{stroke-dasharray:1.021 2.043;}.cls-3{stroke-dasharray:1.021 2.043;}</style></defs><title>tennis-ball</title><circle class="cls-1" cx="12" cy="12" r="11.5"/><path class="cls-1" d="M4.142,3.6c.11.122.22.247.327.375"/><path class="cls-2" d="M5.656,5.64a12.018,12.018,0,0,1,1.838,6.431,11.83,11.83,0,0,1-2.62,6.923"/><path class="cls-1" d="M4.205,19.763q-.173.181-.351.355"/><path class="cls-1" d="M19.859,3.6q-.166.183-.328.376"/><path class="cls-3" d="M18.345,5.639a12.016,12.016,0,0,0-1.839,6.432,11.83,11.83,0,0,0,2.62,6.923"/><path class="cls-1" d="M19.8,19.763q.172.181.351.355"/></svg>