<svg id="Light" xmlns="http://www.w3.org/2000/svg" viewBox="0 0 24 24"><defs><style>.cls-1{fill:none;stroke:#000;stroke-linecap:round;stroke-linejoin:round;}</style></defs><title>tennis-forehand</title><circle class="cls-1" cx="12.5" cy="2.994" r="2.5"/><circle class="cls-1" cx="20.5" cy="7.494" r="2.5"/><path class="cls-1" d="M17.635,10.635l-7.5-3.5a1.5,1.5,0,0,0-1.921.588l-3,5A1.515,1.515,0,0,0,5,13.5v4.134a1.5,1.5,0,0,1-.464,1.085l-2.9,2.052a1.5,1.5,0,0,0-.358,2.091,1.516,1.516,0,0,0,2.091.358l2.976-2.1A4.472,4.472,0,0,0,8,17.633V15.9l4.206,2.068A1.5,1.5,0,0,1,13,19.294v2.7a1.5,1.5,0,1,0,3,0v-2.7A4.507,4.507,0,0,0,13.575,15.3L8.626,12.868l1.466-2.443,6.274,2.929a1.5,1.5,0,0,0,1.269-2.719Z"/></svg>