<svg id="Light" xmlns="http://www.w3.org/2000/svg" viewBox="0 0 24 24"><defs><style>.cls-1{fill:none;stroke:#000;stroke-linecap:round;stroke-linejoin:round;}</style></defs><title>ticket-add</title><path class="cls-1" d="M9,16.5H1.5a1,1,0,0,1-1-1V12.469a.5.5,0,0,1,.437-.5,3.5,3.5,0,0,0,0-6.946.5.5,0,0,1-.437-.5V1.5a1,1,0,0,1,1-1h21a1,1,0,0,1,1,1V4.531a.5.5,0,0,1-.437.5,3.5,3.5,0,0,0-3.025,3.991"/><path class="cls-1" d="M16.25,3A.25.25,0,1,1,16,2.75a.25.25,0,0,1,.25.25"/><path class="cls-1" d="M16.25,6A.25.25,0,1,1,16,5.75a.25.25,0,0,1,.25.25"/><path class="cls-1" d="M16.25,9A.25.25,0,1,1,16,8.75a.25.25,0,0,1,.25.25"/><g id="_Group_" data-name="&lt;Group&gt;"><circle class="cls-1" cx="17.5" cy="17.5" r="6"/><line class="cls-1" x1="17.5" y1="14.5" x2="17.5" y2="20.5"/><line class="cls-1" x1="20.5" y1="17.5" x2="14.5" y2="17.5"/></g></svg>