<svg id="Light" xmlns="http://www.w3.org/2000/svg" viewBox="0 0 24 24"><defs><style>.cls-1{fill:none;stroke:#000;stroke-linecap:round;stroke-linejoin:round;}</style></defs><title>ticket-person-pass</title><line class="cls-1" x1="1" y1="18.556" x2="4" y2="18.556"/><polyline class="cls-1" points="2.444 20.111 4 18.556 2.444 17"/><line class="cls-1" x1="23" y1="18.556" x2="20" y2="18.556"/><polyline class="cls-1" points="21.556 20.111 20 18.556 21.556 17"/><path class="cls-1" d="M6,13.5v9a1,1,0,0,1-1,1H1"/><path class="cls-1" d="M18,13.5v9a1,1,0,0,0,1,1h4"/><path class="cls-1" d="M1,11.5H5a1,1,0,0,1,1,1v1H1"/><path class="cls-1" d="M23,13.5H18v-1a1,1,0,0,1,1-1h4"/><circle class="cls-1" cx="12" cy="3" r="2.5"/><path class="cls-1" d="M12.5,23.5A1.5,1.5,0,0,0,14,22V15.5h1a1,1,0,0,0,1-1v-5a2,2,0,0,0-2-2H10a2,2,0,0,0-2,2v5a1,1,0,0,0,1,1h1V22a1.5,1.5,0,0,0,1.5,1.5Z"/></svg>