<svg id="Light" xmlns="http://www.w3.org/2000/svg" viewBox="0 0 24 24"><defs><style>.cls-1{fill:none;stroke:#000;stroke-linecap:round;stroke-linejoin:round;}</style></defs><title>ticket-exchange</title><path class="cls-1" d="M15,16a1.5,1.5,0,0,1,1.13-1.454.49.49,0,0,0,.37-.477V12a1,1,0,0,0-1-1H1.5a1,1,0,0,0-1,1v2.069a.49.49,0,0,0,.37.477,1.5,1.5,0,0,1,0,2.908.49.49,0,0,0-.37.477V20a1,1,0,0,0,1,1h14a1,1,0,0,0,1-1V17.931a.49.49,0,0,0-.37-.477A1.5,1.5,0,0,1,15,16Z"/><path class="cls-1" d="M18.5,13h4a1,1,0,0,0,1-1V9.931a.49.49,0,0,0-.37-.477,1.5,1.5,0,0,1,0-2.908.49.49,0,0,0,.37-.477V4a1,1,0,0,0-1-1H8.5a1,1,0,0,0-1,1V6.069a.49.49,0,0,0,.37.477A1.5,1.5,0,0,1,8.618,9"/><path class="cls-1" d="M.5,7.5a4,4,0,0,1,4-4h1"/><polyline class="cls-1" points="3.5 1.5 5.5 3.5 3.5 5.5"/><path class="cls-1" d="M23.5,16.5a4,4,0,0,1-4,4h-1"/><polyline class="cls-1" points="20.5 22.5 18.5 20.5 20.5 18.5"/><path class="cls-1" d="M5,13.25A.25.25,0,1,1,4.75,13a.25.25,0,0,1,.25.25"/><path class="cls-1" d="M5,15.75a.25.25,0,1,1-.25-.25.25.25,0,0,1,.25.25"/><path class="cls-1" d="M5,18.25A.25.25,0,1,1,4.75,18a.25.25,0,0,1,.25.25"/><path class="cls-1" d="M12,5.25A.25.25,0,1,1,11.75,5a.25.25,0,0,1,.25.25"/><path class="cls-1" d="M12,7.75a.25.25,0,1,1-.25-.25.25.25,0,0,1,.25.25"/></svg>