<svg id="Light" xmlns="http://www.w3.org/2000/svg" viewBox="0 0 24 24"><defs><style>.cls-1{fill:none;stroke:#000;stroke-linecap:round;stroke-linejoin:round;}</style></defs><title>ticket-day-30</title><path class="cls-1" d="M8.534,6.741A1,1,0,1,1,9.5,8a1,1,0,1,1-.964,1.269"/><path class="cls-1" d="M14.5,9a1,1,0,0,1-2,0V7a1,1,0,0,1,2,0Z"/><path class="cls-1" d="M22.5,4a1,1,0,0,1,1,1V8.031a.5.5,0,0,1-.437.5,3.5,3.5,0,0,0,0,6.946.5.5,0,0,1,.437.5V19a1,1,0,0,1-1,1H1.5a1,1,0,0,1-1-1V15.969a.5.5,0,0,1,.437-.5,3.5,3.5,0,0,0,0-6.946.5.5,0,0,1-.437-.5V5a1,1,0,0,1,1-1Z"/><path class="cls-1" d="M11.5,18V14a1,1,0,0,1,2,0v4"/><line class="cls-1" x1="11.5" y1="16" x2="13.5" y2="16"/><path class="cls-1" d="M15.5,13v1.5a1,1,0,0,0,2,0V13"/><line class="cls-1" x1="16.5" y1="15.5" x2="16.5" y2="18"/><path class="cls-1" d="M7.5,18a2,2,0,0,0,2-2V15a2,2,0,0,0-2-2Z"/></svg>