<svg id="Light" xmlns="http://www.w3.org/2000/svg" viewBox="0 0 24 24"><defs><style>.cls-1{fill:none;stroke:#000;stroke-linecap:round;stroke-linejoin:round;}</style></defs><title>ticket-buy</title><path class="cls-1" d="M19,7.5h3.5A.5.5,0,0,0,23,7V2a.5.5,0,0,0-.5-.5H1.5A.5.5,0,0,0,1,2V7a.5.5,0,0,0,.5.5H5"/><line class="cls-1" x1="4.5" y1="4.501" x2="20.5" y2="4.501"/><path class="cls-1" d="M17,4.5H7V16a1,1,0,0,0,1,1H9.042a.5.5,0,0,0,.493-.417,2.5,2.5,0,0,1,4.93,0,.5.5,0,0,0,.492.417H16a1,1,0,0,0,1-1V4.5Z"/><line class="cls-1" x1="10" y1="7.501" x2="14" y2="7.501"/><line class="cls-1" x1="9.5" y1="12.001" x2="9.5" y2="12.001"/><path class="cls-1" d="M9.5,12a.25.25,0,1,0,.25.25A.25.25,0,0,0,9.5,12"/><line class="cls-1" x1="12" y1="12.001" x2="12" y2="12.001"/><path class="cls-1" d="M12,12a.25.25,0,1,0,.25.25A.25.25,0,0,0,12,12"/><line class="cls-1" x1="14.5" y1="12.001" x2="14.5" y2="12.001"/><path class="cls-1" d="M14.5,12a.25.25,0,1,0,.25.25A.25.25,0,0,0,14.5,12"/><path class="cls-1" d="M10.034,22.5a.25.25,0,0,1-.192-.41l1.966-2.36a.25.25,0,0,1,.384,0l1.966,2.36a.25.25,0,0,1-.192.41Z"/></svg>