<svg id="Light" xmlns="http://www.w3.org/2000/svg" viewBox="0 0 24 24"><defs><style>.cls-1{fill:none;stroke:#000;stroke-linecap:round;stroke-linejoin:round;}</style></defs><title>tiger-footprint</title><path class="cls-1" d="M16.294,22.013c1.313,0,1.75,1.313,3.063,1.313a1.6,1.6,0,0,0,1.75-1.75c0-1.75-1.911-1.8-2.188-2.625-.437-1.313-.875-2.625-2.625-2.625s-2.187,1.312-2.625,2.625c-.276.83-2.187.875-2.187,2.625a1.6,1.6,0,0,0,1.75,1.75C14.544,23.326,14.982,22.013,16.294,22.013Z"/><ellipse class="cls-1" cx="14.107" cy="13.263" rx="1.313" ry="1.75"/><ellipse class="cls-1" cx="10.607" cy="17.201" rx="1.313" ry="1.75"/><ellipse class="cls-1" cx="18.482" cy="13.263" rx="1.313" ry="1.75"/><ellipse class="cls-1" cx="21.982" cy="17.201" rx="1.313" ry="1.75"/><path class="cls-1" d="M11.794,7.576a5.629,5.629,0,0,0-5.5-5.75,5.629,5.629,0,0,0-5.5,5.75c0,2.906,1.153,4.058,2.852,4.5a2.972,2.972,0,0,0,2.648,1.754,2.972,2.972,0,0,0,2.649-1.754C10.642,11.634,11.794,10.482,11.794,7.576Z"/><line class="cls-1" x1="5.294" y1="10.326" x2="7.294" y2="10.326"/><line class="cls-1" x1="6.294" y1="10.326" x2="6.294" y2="11.326"/><path class="cls-1" d="M4.044,6.826a.25.25,0,0,1,.25.25"/><path class="cls-1" d="M3.794,7.076a.25.25,0,0,1,.25-.25"/><path class="cls-1" d="M4.044,7.326a.25.25,0,0,1-.25-.25"/><path class="cls-1" d="M4.294,7.076a.25.25,0,0,1-.25.25"/><path class="cls-1" d="M8.544,6.826a.25.25,0,0,1,.25.25"/><path class="cls-1" d="M8.294,7.076a.25.25,0,0,1,.25-.25"/><path class="cls-1" d="M8.544,7.326a.25.25,0,0,1-.25-.25"/><path class="cls-1" d="M8.794,7.076a.25.25,0,0,1-.25.25"/><line class="cls-1" x1="9.794" y1="9.326" x2="11.616" y2="9.326"/><line class="cls-1" x1="0.973" y1="9.326" x2="2.794" y2="9.326"/><line class="cls-1" x1="6.294" y1="1.826" x2="6.294" y2="4.826"/><line class="cls-1" x1="5.294" y1="3.826" x2="7.294" y2="3.826"/><path class="cls-1" d="M7.978,2.1A1.913,1.913,0,0,1,9.915.705a2,2,0,0,1,1,3.732"/><path class="cls-1" d="M4.642,2.09A1.929,1.929,0,0,0,2.706.674a2,2,0,0,0-1,3.732"/></svg>