<svg id="Light" xmlns="http://www.w3.org/2000/svg" viewBox="0 0 24 24"><defs><style>.cls-1{fill:none;stroke:#000;stroke-linecap:round;stroke-linejoin:round;}</style></defs><title>toilet-paper-1</title><ellipse class="cls-1" cx="8" cy="4" rx="7.5" ry="3.5"/><ellipse class="cls-1" cx="8" cy="4" rx="3.5" ry="1.5"/><path class="cls-1" d="M15.5,20c0,1.934-3.358,3.5-7.5,3.5S.5,21.934.5,20V4"/><path class="cls-1" d="M15.5,4h7.186a.5.5,0,0,1,.429.757l-.893,1.488a.5.5,0,0,0,0,.511l1.21,2.051a.5.5,0,0,1,.016.479L22.182,11.8a.5.5,0,0,0,0,.448l1.264,2.529a.5.5,0,0,1-.019.483l-1.2,1.985a.5.5,0,0,0,0,.516l.891,1.485a.5.5,0,0,1-.429.757H15.5Z"/></svg>