<svg id="Light" xmlns="http://www.w3.org/2000/svg" viewBox="0 0 24 24"><defs><style>.cls-1{fill:none;stroke:#000;stroke-linecap:round;stroke-linejoin:round;}</style></defs><title>toilet-need-1</title><circle class="cls-1" cx="12.002" cy="2.999" r="2.5"/><path class="cls-1" d="M15,11a2.514,2.514,0,0,1-.935,1.95l-1.31.747A1.5,1.5,0,0,0,14.245,16.3l1.4-.8a1.322,1.322,0,0,0,.156-.1A4.769,4.769,0,0,0,18,11a3.5,3.5,0,0,0-3.5-3.5h-5A3.5,3.5,0,0,0,6,11a4.767,4.767,0,0,0,2.2,4.4,1.762,1.762,0,0,0,.156.1l1.4.8A1.5,1.5,0,1,0,11.243,13.7l-1.31-.747A2.516,2.516,0,0,1,9,11"/><path class="cls-1" d="M7.548,14.86l-.827,2.481A.5.5,0,0,0,7.2,18H8.618a.377.377,0,0,1,.314.17.371.371,0,0,1,.029.355l-1.2,2.8A1.562,1.562,0,0,0,8.349,23.3a1.5,1.5,0,0,0,2.134-.706l1.234-2.881A3.8,3.8,0,0,0,12,18a6.775,6.775,0,0,0,.283,1.71l1.234,2.881a1.5,1.5,0,0,0,2.134.706,1.562,1.562,0,0,0,.588-1.971l-1.2-2.8A.374.374,0,0,1,15.382,18h1.423a.5.5,0,0,0,.474-.658l-.827-2.481"/></svg>