<svg id="Light" xmlns="http://www.w3.org/2000/svg" viewBox="0 0 24 24"><defs><style>.cls-1{fill:none;stroke:#000;stroke-linecap:round;stroke-linejoin:round;}</style></defs><title>toilet-use-wrong</title><circle class="cls-1" cx="13.5" cy="3" r="2.5"/><path class="cls-1" d="M.5,23.5v-11a1,1,0,0,1,1-1h2a1,1,0,0,1,1,1v5A.5.5,0,0,0,5,18h8.5v1.072A1.972,1.972,0,0,1,11.452,21C10.5,21,10,21.5,10,23v.5"/><path class="cls-1" d="M11.5,16V14.307L9.109,15.369a1.5,1.5,0,0,1-2.071-1.708l1.5-6.5a1.5,1.5,0,0,1,2.924.674l-.824,3.571,1.753-.779A1.5,1.5,0,0,1,14.5,12v4"/><line class="cls-1" x1="23.5" y1="0.5" x2="19.258" y2="4.742"/><line class="cls-1" x1="23.5" y1="4.742" x2="19.258" y2="0.5"/><line class="cls-1" x1="4.5" y1="14.5" x2="0.5" y2="14.5"/></svg>