<svg id="Light" xmlns="http://www.w3.org/2000/svg" viewBox="0 0 24 24"><defs><style>.cls-1{fill:none;stroke:#000;stroke-linecap:round;stroke-linejoin:round;}</style></defs><title>toilet-seat-1</title><path class="cls-1" d="M20.5,3a.5.5,0,0,1-.5.5H4A.5.5,0,0,1,3.5,3V2.5a2,2,0,0,1,2-2h13a2,2,0,0,1,2,2Z"/><path class="cls-1" d="M19.5,13.5H4.5v-1a2,2,0,0,1,2-2h11a2,2,0,0,1,2,2Z"/><line class="cls-1" x1="5" y1="3.5" x2="5.518" y2="10.757"/><line class="cls-1" x1="19" y1="3.5" x2="18.482" y2="10.757"/><path class="cls-1" d="M19,13.5H5a4.989,4.989,0,0,0,2.62,4.392,2,2,0,0,1,1.015,2.116l-.528,2.9a.5.5,0,0,0,.492.59h6.8a.5.5,0,0,0,.492-.59l-.528-2.9a2,2,0,0,1,1.015-2.116A4.989,4.989,0,0,0,19,13.5Z"/></svg>