<svg id="Light" xmlns="http://www.w3.org/2000/svg" viewBox="0 0 24 24"><defs><style>.cls-1{fill:none;stroke:#000;stroke-linecap:round;stroke-linejoin:round;}</style></defs><title>toilet-need</title><circle class="cls-1" cx="12.002" cy="3" r="2.5"/><path class="cls-1" d="M15,11a2.514,2.514,0,0,1-.935,1.95l-1.31.747A1.5,1.5,0,0,0,14.245,16.3l1.4-.8a1.322,1.322,0,0,0,.156-.1A4.769,4.769,0,0,0,18,11a3.5,3.5,0,0,0-3.5-3.5h-5A3.5,3.5,0,0,0,6,11a4.767,4.767,0,0,0,2.2,4.4,1.762,1.762,0,0,0,.156.1l1.4.8A1.5,1.5,0,1,0,11.243,13.7l-1.31-.747A2.516,2.516,0,0,1,9,11"/><path class="cls-1" d="M15.7,15.47l-.685,2.741a.49.49,0,0,0,.025.314l1.235,2.884a1.5,1.5,0,0,1-2.758,1.182L12.285,19.71a3.525,3.525,0,0,1-.18-2.226l.353-1.41"/><path class="cls-1" d="M8.3,15.47l.685,2.741a.49.49,0,0,1-.025.314L7.727,21.409a1.5,1.5,0,1,0,2.758,1.182l1.234-2.881a3.525,3.525,0,0,0,.18-2.226l-.353-1.41"/></svg>