<svg xmlns="http://www.w3.org/2000/svg" viewBox="0 0 24 24"><defs><style>.a{fill:none;stroke:#000;stroke-linecap:round;stroke-linejoin:round;}</style></defs><title>tools-hammer-3</title><rect class="a" x="8.287" y="0.447" width="3" height="6" rx="0.5" ry="0.5" transform="translate(5.334 -5.925) rotate(45.179)"/><line class="a" x1="11.908" y1="3.454" x2="13.617" y2="5.174"/><line class="a" x1="11.473" y1="7.272" x2="9.78" y2="5.569"/><path class="a" d="M14.557,12.5,3.9,23.088a1.5,1.5,0,0,1-2.121-.007h0a1.5,1.5,0,0,1,.007-2.121L12.443,10.375"/><path class="a" d="M21.783,11.259l-5.167-5.2a3.116,3.116,0,0,0-3.948-.478,3,3,0,0,0-.427,4.588l3.34,3.356a.5.5,0,0,0,.546.1c1.626-.657,2.744-1.041,4,.218l1.256,1.263a.507.507,0,0,0,.777-.073A3,3,0,0,0,21.783,11.259Z"/></svg>