<svg xmlns="http://www.w3.org/2000/svg" viewBox="0 0 24 24"><defs><style>.a{fill:none;stroke:#000;stroke-linecap:round;stroke-linejoin:round;}</style></defs><title>tools-wood-saw</title><path class="a" d="M7.017,21.924l-.738.738a2.088,2.088,0,0,1-3.267-.4L.8,18.569a2.087,2.087,0,0,1,.314-2.551l1.476-1.476Z"/><path class="a" d="M22.888,6.052l-2.583.369-.342,2.39a.261.261,0,0,1-.221.222l-2.39.341-.341,2.39a.263.263,0,0,1-.222.222l-2.39.341-.341,2.39a.261.261,0,0,1-.222.221l-2.39.342-.341,2.39a.26.26,0,0,1-.222.221l-2.389.342-.369,2.583L7.017,21.924"/><line class="a" x1="1.343" y1="19.478" x2="2.588" y2="18.233"/><line class="a" x1="2.454" y1="21.319" x2="3.695" y2="20.078"/><path class="a" d="M3.7,16.384,16.429,3.653a2.875,2.875,0,0,1,4.06,0l2.4,2.4a2.086,2.086,0,0,0,0-2.952l-.922-.923a4.964,4.964,0,0,0-7.013,0L2.588,14.542"/></svg>