<svg xmlns="http://www.w3.org/2000/svg" viewBox="0 0 24 24"><defs><style>.a{fill:none;stroke:#000;stroke-linecap:round;stroke-linejoin:round;}</style></defs><title>tools-palette-spatula</title><path class="a" d="M3.487,22.988a1.75,1.75,0,1,1-2.475-2.475l5.205-5.2a.5.5,0,0,1,.707,0l1.767,1.768a.5.5,0,0,1,0,.707Z"/><path class="a" d="M23.353,4.536a.5.5,0,0,0,.135-.461A4.671,4.671,0,0,0,19.926.512a.5.5,0,0,0-.461.135L8.338,11.774a1,1,0,0,0,0,1.415l.353.352L6.923,15.309l1.768,1.768,1.768-1.768.353.354a1,1,0,0,0,1.414,0Z"/><line class="a" x1="22.833" y1="5.056" x2="17.53" y2="2.581"/><line class="a" x1="20.005" y1="7.885" x2="14.701" y2="5.41"/><line class="a" x1="17.176" y1="10.713" x2="11.873" y2="8.238"/><line class="a" x1="14.348" y1="13.541" x2="9.044" y2="11.067"/></svg>