<svg id="Light" xmlns="http://www.w3.org/2000/svg" viewBox="0 0 24 24"><defs><style>.cls-1{fill:none;stroke:#000;stroke-linecap:round;stroke-linejoin:round;}</style></defs><title>tools-kitchen-scale-1</title><path class="cls-1" d="M22.5,12c0,3.687-2.015,9.054-2.742,10.871a1,1,0,0,1-.929.629H5.171a1,1,0,0,1-.929-.629C3.515,21.054,1.5,15.687,1.5,12,1.5-3.336,22.5-3.33,22.5,12Z"/><circle class="cls-1" cx="12" cy="11" r="4.5"/><line class="cls-1" x1="12" y1="3.5" x2="12" y2="4.5"/><line class="cls-1" x1="12" y1="18.5" x2="12" y2="17.5"/><line class="cls-1" x1="4.5" y1="11" x2="5.5" y2="11"/><line class="cls-1" x1="19.5" y1="11" x2="18.5" y2="11"/><line class="cls-1" x1="6.697" y1="16.303" x2="7.404" y2="15.596"/><line class="cls-1" x1="17.303" y1="5.697" x2="16.596" y2="6.404"/><line class="cls-1" x1="17.303" y1="16.303" x2="16.596" y2="15.596"/><line class="cls-1" x1="6.697" y1="5.697" x2="7.404" y2="6.404"/><line class="cls-1" x1="7.5" y1="21.5" x2="16.5" y2="21.5"/><line class="cls-1" x1="12" y1="9" x2="12" y2="6.5"/></svg>