<svg xmlns="http://www.w3.org/2000/svg" viewBox="0 0 24 24"><defs><style>.a{fill:none;stroke:#000;stroke-linecap:round;stroke-linejoin:round;}</style></defs><title>tools-saw</title><path class="a" d="M21.177.579a.521.521,0,0,0-.605.039L4.33,13.974l5.511,5.51.388-4.3h4.156a.52.52,0,0,0,.52-.519V11.034h3.636a.519.519,0,0,0,.52-.519V6.876H22.7a.52.52,0,0,0,.52-.519V2.139a.518.518,0,0,0-.245-.44Z"/><path class="a" d="M9.841,19.484,7.593,22.63a2.078,2.078,0,0,1-3.16.261l-3.041-3.04a2.079,2.079,0,0,1,0-2.94L4.33,13.974l5.511,5.51"/><line class="a" x1="6.168" y1="20.218" x2="3.595" y2="17.646"/></svg>