<svg xmlns="http://www.w3.org/2000/svg" viewBox="0 0 24 24"><defs><style>.a{fill:none;stroke:#000;stroke-linecap:round;stroke-linejoin:round;}</style></defs><title>tools-crescent-double</title><path class="a" d="M21.307,4.42a1.257,1.257,0,1,1-.423-1.727A1.258,1.258,0,0,1,21.307,4.42Z"/><path class="a" d="M23.025,5.463a3.267,3.267,0,1,0-6-2.341L14.8,4.163a2.017,2.017,0,0,0-.868.778L7.024,16.321a.5.5,0,0,1-.217.195l-1.432.669a.5.5,0,0,1-.4.011,3.265,3.265,0,1,0,2,3.682L9.2,19.837a2.023,2.023,0,0,0,.868-.778l6.909-11.38a.5.5,0,0,1,.217-.2l1.432-.669a.5.5,0,0,1,.4-.011A3.269,3.269,0,0,0,23.025,5.463Z"/><path class="a" d="M4.842,20.884a1.257,1.257,0,1,1-.422-1.726A1.257,1.257,0,0,1,4.842,20.884Z"/></svg>