<svg xmlns="http://www.w3.org/2000/svg" viewBox="0 0 24 24"><defs><style>.a{fill:none;stroke:#000;stroke-linecap:round;stroke-linejoin:round;}</style></defs><title>tools-wench-1</title><path class="a" d="M22.993,4.48a.5.5,0,0,0-.814-.159L19.646,6.854A.5.5,0,0,1,19.293,7H17V4.707a.5.5,0,0,1,.146-.353l2.533-2.533a.5.5,0,0,0-.16-.814A6.5,6.5,0,0,0,11.212,9.96L1.086,20.086a2,2,0,0,0,2.828,2.828L14.04,12.788A6.5,6.5,0,0,0,22.993,4.48Z"/><line class="a" x1="17" y1="7" x2="21.596" y2="11.596"/><line class="a" x1="12.82" y1="8.687" x2="14.32" y2="7.187"/><line class="a" x1="14.07" y1="9.937" x2="15.57" y2="8.437"/><line class="a" x1="15.32" y1="11.187" x2="16.82" y2="9.687"/></svg>