<svg xmlns="http://www.w3.org/2000/svg" viewBox="0 0 24 24"><defs><style>.a{fill:none;stroke:#000;stroke-linecap:round;stroke-linejoin:round;}</style></defs><title>tools-crescent-wench</title><path class="a" d="M3.5,22.985A1.76,1.76,0,0,1,1.015,20.5l6.047-6.047a.5.5,0,0,1,.707,0l1.782,1.782a.5.5,0,0,1,0,.707Z"/><path class="a" d="M21.806,10.372a5.782,5.782,0,1,0-8.967-.989L7.771,14.451l1.777,1.778,5.069-5.068A5.782,5.782,0,0,0,21.806,10.372Z"/><path class="a" d="M20.029,8.594a3.269,3.269,0,1,1,0-4.622A3.27,3.27,0,0,1,20.029,8.594Z"/><line class="a" x1="15.406" y1="3.972" x2="20.029" y2="8.594"/></svg>