<svg xmlns="http://www.w3.org/2000/svg" viewBox="0 0 24 24"><defs><style>.a{fill:none;stroke:#000;stroke-linecap:round;stroke-linejoin:round;}</style></defs><title>toy</title><circle class="a" cx="4" cy="5" r="3.5"/><circle class="a" cx="13.5" cy="4" r="2.5"/><path class="a" d="M2.75,5A.25.25,0,0,1,3,5.25"/><path class="a" d="M2.5,5.25A.25.25,0,0,1,2.75,5"/><path class="a" d="M2.75,5.5a.25.25,0,0,1-.25-.25"/><path class="a" d="M3,5.25a.25.25,0,0,1-.25.25"/><path class="a" d="M13.75,4a.25.25,0,0,1,.25.25"/><path class="a" d="M13.5,4.25A.25.25,0,0,1,13.75,4"/><path class="a" d="M13.75,4.5a.25.25,0,0,1-.25-.25"/><path class="a" d="M14,4.25a.25.25,0,0,1-.25.25"/><path class="a" d="M10.258,10.4l-.4,2.451A2.006,2.006,0,0,1,7.564,14.5h0a2.006,2.006,0,0,1-1.653-2.3l.455-2.794a4.5,4.5,0,0,0,6.851-1.2"/><line class="a" x1="8.175" y1="10.358" x2="7.964" y2="12.243"/><polyline class="a" points="9.5 23.5 9.5 21.5 20.5 21.5 20.5 23.5"/><line class="a" x1="20.5" y1="21.5" x2="23.5" y2="19.5"/><line class="a" x1="9.5" y1="21.5" x2="6.5" y2="19.5"/><path class="a" d="M10.742,19.2a12.5,12.5,0,0,0,6.792-1.7"/><path class="a" d="M9.979,16.593a12.494,12.494,0,0,0,6.68-2.093"/><path class="a" d="M5.324,1.759A6.754,6.754,0,0,1,12.9,1.572"/><path class="a" d="M4.016,11.513a6.724,6.724,0,0,1-1.451-3.32"/><path class="a" d="M15.687,5.212a6.759,6.759,0,0,1-4.028,8.345"/></svg>