<svg xmlns="http://www.w3.org/2000/svg" viewBox="0 0 24 24"><defs><style>.a{fill:none;stroke:#000;stroke-linecap:round;stroke-linejoin:round;}</style></defs><title>toys-rocking-horse</title><path class="a" d="M5.619,18.2A7.273,7.273,0,0,1,12,13.566a7.01,7.01,0,0,1,6.291,4.665"/><path class="a" d="M2.865,17.309a12.629,12.629,0,0,1,3.552-4.993L5,7.066l-1.8.6A2.26,2.26,0,0,1,1.988,3.329L5.182,1.887a2,2,0,0,1,2.643,1L9.5,6.566h5a4,4,0,0,1,4,4v2.625c.646.268,1.968,2.271,2.636,4.122"/><line class="a" x1="17.482" y1="7.901" x2="22.917" y2="10.983"/><path class="a" d="M9.5,6.566l.9,3.621a.5.5,0,0,0,.485.379h2.72a.5.5,0,0,0,.485-.379l.9-3.591"/><path class="a" d="M12.007,23.072A27.932,27.932,0,0,1,1.774,21.147a2,2,0,0,1,1.462-3.732,24.257,24.257,0,0,0,17.529.005,2,2,0,1,1,1.46,3.732A27.915,27.915,0,0,1,12.007,23.072Z"/><path class="a" d="M5.428,1.8,7.15,1.107a2.5,2.5,0,0,1,3.238,1.364l1.7,4.1"/><path class="a" d="M4.5,4.316a.25.25,0,0,1,.25.25"/><path class="a" d="M4.251,4.566a.25.25,0,0,1,.25-.25"/><path class="a" d="M4.5,4.816a.25.25,0,0,1-.25-.25"/><path class="a" d="M4.751,4.566a.25.25,0,0,1-.25.25"/></svg>