<svg xmlns="http://www.w3.org/2000/svg" viewBox="0 0 24 24"><defs><style>.a{fill:none;stroke:#000;stroke-linecap:round;stroke-linejoin:round;}</style></defs><title>toys-car-push</title><path class="a" d="M23,8.5a.5.5,0,0,1,.5.5v5.5a1,1,0,0,1-1,1,1.167,1.167,0,0,1-1.121-.842,3,3,0,0,0-5.774.043,1.032,1.032,0,0,1-.978.8H9.371a1.032,1.032,0,0,1-.978-.8,3,3,0,0,0-5.774-.043A1.169,1.169,0,0,1,1.5,15.5a1,1,0,0,1-1-1v-4a2.006,2.006,0,0,1,2-2h3l.99-2.49A4.015,4.015,0,0,1,10.21,3.5H12.5a2.006,2.006,0,0,1,2,2v3Z"/><path class="a" d="M11.5,3.5v4a1,1,0,0,1-1,1h-5"/><path class="a" d="M18,8.5a18.508,18.508,0,0,1,2.988-5.393"/><circle class="a" cx="22" cy="2" r="1.5"/><circle class="a" cx="4.5" cy="20.5" r="3"/><circle class="a" cx="19.5" cy="20.5" r="3"/><line class="a" x1="7.5" y1="20.5" x2="16.5" y2="20.5"/><circle class="a" cx="4.5" cy="20.5" r="1"/><circle class="a" cx="19.5" cy="20.5" r="1"/><line class="a" x1="5.554" y1="17.69" x2="7.281" y2="13.084"/><line class="a" x1="18.446" y1="17.69" x2="16.719" y2="13.084"/></svg>