<svg xmlns="http://www.w3.org/2000/svg" viewBox="0 0 24 24"><defs><style>.a{fill:none;stroke:#000;stroke-linecap:round;stroke-linejoin:round;}</style></defs><title>toys-rocking-horse-1</title><line class="a" x1="11" y1="22.5" x2="15" y2="23.5"/><line class="a" x1="11" y1="20.5" x2="15" y2="21.5"/><line class="a" x1="11" y1="18" x2="15" y2="19"/><line class="a" x1="11" y1="16" x2="15" y2="17"/><path class="a" d="M22.144,17.626a1,1,0,0,0,.586-1.376c-.7-1.489-1.668-2.84-1.73-3.056V11.51a5.453,5.453,0,0,0-.833-3.029A4.173,4.173,0,0,0,16.682,6.5H10L9.2,4.808A4.12,4.12,0,0,0,3.755,2.759l-1.268.572A2.26,2.26,0,0,0,3.7,7.67l1.8-.6,1.417,5.25a12.959,12.959,0,0,0-3.09,3.916A1,1,0,0,0,4.4,17.63l.845.285A1.044,1.044,0,0,0,6.465,17.4a8.125,8.125,0,0,1,6.5-3.832c2.444,0,5.957,1.691,7.034,3.855a.967.967,0,0,0,1.168.528Z"/><path class="a" d="M10,6.5l.811,3.242a1,1,0,0,0,.97.758h3.938a1,1,0,0,0,.97-.758l.791-3.161"/><path class="a" d="M4.979,2.42A1.476,1.476,0,0,1,6.5.5h0a7.453,7.453,0,0,1,3.747,1.365A5.676,5.676,0,0,1,12.5,6.5h0"/><path class="a" d="M5.25,4a.25.25,0,0,1,.25.25"/><path class="a" d="M5,4.25A.25.25,0,0,1,5.25,4"/><path class="a" d="M5.25,4.5A.25.25,0,0,1,5,4.25"/><path class="a" d="M5.5,4.25a.25.25,0,0,1-.25.25"/><path class="a" d="M18.6,7H20a3,3,0,0,1,3,3h0"/></svg>