<svg xmlns="http://www.w3.org/2000/svg" viewBox="0 0 24 24"><defs><style>.a{fill:none;stroke:#000;stroke-linecap:round;stroke-linejoin:round;}</style></defs><title>toys-building</title><path class="a" d="M14.217,17.121h7.4a1,1,0,0,1,1,1v2.866a.833.833,0,0,1-.833.833H14.05a.833.833,0,0,1-.833-.833V18.121a1,1,0,0,1,1-1Z" transform="translate(28.124 43.881) rotate(-160.074)"/><path class="a" d="M17.833,16.941l3.843-10.6a.94.94,0,0,1,1.2-.563h0a.94.94,0,0,1,.563,1.2L19.6,17.582"/><rect class="a" x="0.5" y="17.5" width="10" height="5.5" rx="1" ry="1"/><rect class="a" x="0.5" y="12" width="10" height="5.5" rx="1" ry="1"/><rect class="a" x="3.5" y="6.5" width="10" height="5.5" rx="1" ry="1"/><rect class="a" x="0.5" y="1" width="10" height="5.5" rx="1" ry="1"/></svg>