<svg xmlns="http://www.w3.org/2000/svg" viewBox="0 0 24 24"><defs><style>.a{fill:none;stroke:#000;stroke-linecap:round;stroke-linejoin:round;}</style></defs><title>toys-lego</title><path class="a" d="M13.5,18h10a0,0,0,0,1,0,0v4.5a.5.5,0,0,1-.5.5H14a.5.5,0,0,1-.5-.5V18A0,0,0,0,1,13.5,18Z"/><rect class="a" x="13.5" y="13" width="10" height="5"/><rect class="a" x="13.5" y="8" width="10" height="5"/><path class="a" d="M14.5,3h8a1,1,0,0,1,1,1V8a0,0,0,0,1,0,0h-10a0,0,0,0,1,0,0V4A1,1,0,0,1,14.5,3Z"/><path class="a" d="M15.5,1h1a1,1,0,0,1,1,1V3a0,0,0,0,1,0,0h-3a0,0,0,0,1,0,0V2A1,1,0,0,1,15.5,1Z"/><path class="a" d="M20.5,1h1a1,1,0,0,1,1,1V3a0,0,0,0,1,0,0h-3a0,0,0,0,1,0,0V2A1,1,0,0,1,20.5,1Z"/><path class="a" d="M1.5,18h8a1,1,0,0,1,1,1v3.5a.5.5,0,0,1-.5.5H1a.5.5,0,0,1-.5-.5V19A1,1,0,0,1,1.5,18Z"/><path class="a" d="M2.5,16h1a1,1,0,0,1,1,1v1a0,0,0,0,1,0,0h-3a0,0,0,0,1,0,0V17A1,1,0,0,1,2.5,16Z"/><path class="a" d="M7.5,16h1a1,1,0,0,1,1,1v1a0,0,0,0,1,0,0h-3a0,0,0,0,1,0,0V17A1,1,0,0,1,7.5,16Z"/><path class="a" d="M11.5,8.1a1,1,0,0,0-1.3-.547L2.79,10.573a1,1,0,0,0-.547,1.3L3.11,14"/><line class="a" x1="5.909" y1="14.7" x2="11.314" y2="12.492"/><path class="a" d="M3.3,8.08h1a1,1,0,0,1,1,1v1a0,0,0,0,1,0,0h-3a0,0,0,0,1,0,0v-1A1,1,0,0,1,3.3,8.08Z" transform="translate(-3.152 2.112) rotate(-22.22)"/><path class="a" d="M7.929,6.189h1a1,1,0,0,1,1,1v1a0,0,0,0,1,0,0h-3a0,0,0,0,1,0,0v-1A1,1,0,0,1,7.929,6.189Z" transform="translate(-2.093 3.722) rotate(-22.22)"/></svg>