<svg xmlns="http://www.w3.org/2000/svg" viewBox="0 0 24 24"><defs><style>.a{fill:none;stroke:#000;stroke-linecap:round;stroke-linejoin:round;}</style></defs><title>toys-caterpillar</title><circle class="a" cx="7" cy="10" r="5.5"/><path class="a" d="M12.3,11.477A4.5,4.5,0,1,1,5,15.126"/><path class="a" d="M13.941,14.267a4,4,0,1,1-5.174,5.174"/><path class="a" d="M16.242,16.582a3.5,3.5,0,1,1-2.287,5.145"/><path class="a" d="M20.219,18.624A2.5,2.5,0,1,1,21,23.5a2.493,2.493,0,0,1-1.807-.772"/><circle class="a" cx="2" cy="2" r="1.5"/><circle class="a" cx="13.5" cy="3" r="1.5"/><path class="a" d="M2.977,3.138A4.124,4.124,0,0,1,4.881,6.1L5,7.016"/><path class="a" d="M12.107,3.558A4.458,4.458,0,0,0,10,7"/><path class="a" d="M4.75,9A.25.25,0,0,1,5,9.25"/><path class="a" d="M4.5,9.25A.25.25,0,0,1,4.75,9"/><path class="a" d="M4.75,9.5a.25.25,0,0,1-.25-.25"/><path class="a" d="M5,9.25a.25.25,0,0,1-.25.25"/><path class="a" d="M9.25,9a.25.25,0,0,1,.25.25"/><path class="a" d="M9,9.25A.25.25,0,0,1,9.25,9"/><path class="a" d="M9.25,9.5A.25.25,0,0,1,9,9.25"/><path class="a" d="M9.5,9.25a.25.25,0,0,1-.25.25"/><path class="a" d="M5.5,11.791a1.488,1.488,0,0,0,1.5.918,1.488,1.488,0,0,0,1.5-.918"/></svg>