<svg xmlns="http://www.w3.org/2000/svg" viewBox="0 0 24 24"><defs><style>.a{fill:none;stroke:#000;stroke-linecap:round;stroke-linejoin:round;}</style></defs><title>transportation-ticket-car-transfer-bus</title><path class="a" d="M23.5,20.75a1,1,0,0,1-1,1h-8a1,1,0,0,1-1-1v-.764a.993.993,0,0,1,.106-.447L14.5,17.75h8l.894,1.789a.993.993,0,0,1,.106.447Z"/><line class="a" x1="14.5" y1="23.25" x2="14.5" y2="21.75"/><line class="a" x1="22.5" y1="23.25" x2="22.5" y2="21.75"/><path class="a" d="M14.5,17.75l.361-2.164a1,1,0,0,1,.986-.836h5.306a1,1,0,0,1,.986.836L22.5,17.75"/><line class="a" x1="13.527" y1="19.75" x2="16" y2="19.75"/><line class="a" x1="21" y1="19.75" x2="23.492" y2="19.75"/><rect class="a" x="2.5" y="0.75" width="7" height="8" rx="1" ry="1"/><line class="a" x1="3.5" y1="8.75" x2="3.5" y2="9.75"/><line class="a" x1="8.5" y1="8.75" x2="8.5" y2="9.75"/><path class="a" d="M4,6.5a.25.25,0,0,1,.25.25"/><path class="a" d="M3.75,6.75A.25.25,0,0,1,4,6.5"/><path class="a" d="M4,7a.25.25,0,0,1-.25-.25"/><path class="a" d="M4.25,6.75A.25.25,0,0,1,4,7"/><path class="a" d="M8,6.5a.25.25,0,0,1,.25.25"/><path class="a" d="M7.75,6.75A.25.25,0,0,1,8,6.5"/><path class="a" d="M8,7a.25.25,0,0,1-.25-.25"/><path class="a" d="M8.25,6.75A.25.25,0,0,1,8,7"/><line class="a" x1="2.5" y1="4.75" x2="9.5" y2="4.75"/><line class="a" x1="0.5" y1="1.75" x2="0.5" y2="3.75"/><line class="a" x1="11.5" y1="1.75" x2="11.5" y2="3.75"/><path class="a" d="M12.5,6.25a6,6,0,0,1,6,6"/><path class="a" d="M12.5,18.25a6,6,0,0,1-6-6v-.5"/><polyline class="a" points="17 10.75 18.5 12.25 20 10.75"/><polyline class="a" points="8 13.25 6.5 11.75 5 13.25"/></svg>