<svg xmlns="http://www.w3.org/2000/svg" viewBox="0 0 24 24"><defs><style>.a{fill:none;stroke:#000;stroke-linecap:round;stroke-linejoin:round;}</style></defs><title>transportation-ticket-boat-plane-transfer</title><path class="a" d="M22.323,16.051a1.375,1.375,0,0,1,.987.886,1.288,1.288,0,0,1,.077.439,1.362,1.362,0,0,1-.635,1.177l-7.828,4.861a.481.481,0,0,1-.531-.015l-2.869-2.015a.266.266,0,0,1-.041-.373.319.319,0,0,1,.046-.044l1.2-1.062a.266.266,0,0,1,.256-.044l1.509.9,1.914-1.335-3.627-2.246a.33.33,0,0,1-.037-.465.343.343,0,0,1,.052-.049l.887-.658A.33.33,0,0,1,14,15.963l5,1.861,2.312-1.578A1.288,1.288,0,0,1,22.323,16.051Z"/><path class="a" d="M.541,8.96a3.277,3.277,0,0,0,2.676-.892,2.7,2.7,0,0,0,4.013,0,2.7,2.7,0,0,0,4.014,0,3.277,3.277,0,0,0,2.676.892"/><path class="a" d="M2.325,8.727,2.193,7.359a.892.892,0,0,1,.892-.892H12.45a.447.447,0,0,1,.376.688L11.519,8.316"/><polyline class="a" points="7.519 6.467 7.519 0.486 4.03 4.474 7.519 4.474"/><path class="a" d="M14.985,7.761a5.977,5.977,0,0,1,3,5.186"/><path class="a" d="M10.522,18.743a5.985,5.985,0,0,1-4.5-5.8v-.5"/><polyline class="a" points="16.49 11.452 17.985 12.947 19.481 11.452"/><polyline class="a" points="7.519 13.944 6.023 12.449 4.528 13.944"/></svg>