<svg xmlns="http://www.w3.org/2000/svg" viewBox="0 0 24 24"><defs><style>.a{fill:none;stroke:#000;stroke-linecap:round;stroke-linejoin:round;}</style></defs><title>transportation-ticket-car-transfer-plane</title><path class="a" d="M11.5.869a1.381,1.381,0,0,1,.991.889,1.318,1.318,0,0,1,.076.44,1.361,1.361,0,0,1-.637,1.181L4.079,8.255a.479.479,0,0,1-.532-.015L.668,6.219a.266.266,0,0,1-.041-.374A.273.273,0,0,1,.673,5.8L1.881,4.735a.268.268,0,0,1,.257-.044l1.514.9,1.92-1.34L1.933,2A.331.331,0,0,1,1.9,1.534a.343.343,0,0,1,.052-.049l.89-.66A.332.332,0,0,1,3.15.781L8.164,2.648l2.32-1.584A1.291,1.291,0,0,1,11.5.869Z"/><path class="a" d="M23.431,20.74a1,1,0,0,1-1,1h-8a1,1,0,0,1-1-1v-.764a.993.993,0,0,1,.106-.447l.894-1.789h8l.895,1.789a1,1,0,0,1,.105.447Z"/><line class="a" x1="14.431" y1="23.24" x2="14.431" y2="21.74"/><line class="a" x1="22.431" y1="23.24" x2="22.431" y2="21.74"/><path class="a" d="M14.431,17.74l.361-2.165a1,1,0,0,1,.986-.835h5.306a1,1,0,0,1,.987.835l.36,2.165"/><line class="a" x1="13.458" y1="19.74" x2="15.931" y2="19.74"/><line class="a" x1="20.931" y1="19.74" x2="23.424" y2="19.74"/><path class="a" d="M10.431,7.74a6,6,0,0,1,5.86,4.706"/><path class="a" d="M10.431,19.74a6,6,0,0,1-6-6"/><polyline class="a" points="14.502 11.305 16.29 12.446 17.431 10.658"/><polyline class="a" points="5.931 14.74 4.431 13.24 2.931 14.74"/><line class="a" x1="4.431" y1="13.74" x2="4.431" y2="13.24"/></svg>