<svg xmlns="http://www.w3.org/2000/svg" viewBox="0 0 24 24"><defs><style>.a{fill:none;stroke:#000;stroke-linecap:round;stroke-linejoin:round;}</style></defs><title>transportation-ticket-bus-transfer</title><rect class="a" x="2.5" y="0.5" width="7" height="8" rx="1" ry="1"/><line class="a" x1="3.5" y1="8.5" x2="3.5" y2="9.5"/><line class="a" x1="8.5" y1="8.5" x2="8.5" y2="9.5"/><path class="a" d="M4,6.25a.25.25,0,0,1,.25.25"/><path class="a" d="M3.75,6.5A.25.25,0,0,1,4,6.25"/><path class="a" d="M4,6.75a.25.25,0,0,1-.25-.25"/><path class="a" d="M4.25,6.5A.25.25,0,0,1,4,6.75"/><path class="a" d="M8,6.25a.25.25,0,0,1,.25.25"/><path class="a" d="M7.75,6.5A.25.25,0,0,1,8,6.25"/><path class="a" d="M8,6.75a.25.25,0,0,1-.25-.25"/><path class="a" d="M8.25,6.5A.25.25,0,0,1,8,6.75"/><line class="a" x1="2.5" y1="4.5" x2="9.5" y2="4.5"/><line class="a" x1="0.5" y1="1.5" x2="0.5" y2="3.5"/><line class="a" x1="11.5" y1="1.5" x2="11.5" y2="3.5"/><rect class="a" x="15.014" y="13.518" width="8" height="8" rx="1" ry="1"/><line class="a" x1="15.014" y1="17.518" x2="23.014" y2="17.518"/><path class="a" d="M17.014,19.268a.25.25,0,0,1,.25.25"/><path class="a" d="M16.764,19.518a.25.25,0,0,1,.25-.25"/><path class="a" d="M17.014,19.768a.25.25,0,0,1-.25-.25"/><path class="a" d="M17.264,19.518a.25.25,0,0,1-.25.25"/><path class="a" d="M21.014,19.268a.25.25,0,0,1,.25.25"/><path class="a" d="M20.764,19.518a.25.25,0,0,1,.25-.25"/><path class="a" d="M21.014,19.768a.25.25,0,0,1-.25-.25"/><path class="a" d="M21.264,19.518a.25.25,0,0,1-.25.25"/><line class="a" x1="18.014" y1="11.518" x2="20.014" y2="11.518"/><line class="a" x1="16.014" y1="21.518" x2="14.529" y2="23.497"/><line class="a" x1="22.014" y1="21.518" x2="23.5" y2="23.5"/><path class="a" d="M12,19a6.5,6.5,0,0,1-6.4-5.389"/><path class="a" d="M12,6a6.5,6.5,0,0,1,5.714,3.4"/><polyline class="a" points="15.611 9.113 17.713 9.4 18 7.298"/><polyline class="a" points="7.495 14.554 5.596 13.611 4.652 15.51"/></svg>