<svg xmlns="http://www.w3.org/2000/svg" viewBox="0 0 24 24"><defs><style>.a{fill:none;stroke:#000;stroke-linecap:round;stroke-linejoin:round;}</style></defs><title>travel-insurance-cover</title><path class="a" d="M12,12c0-.874,1.063-1.583,2.375-1.583S16.75,11.126,16.75,12a1.815,1.815,0,0,1,1.979-1.583A1.815,1.815,0,0,1,20.708,12v-.4A8.774,8.774,0,0,0,12,2.5a8.774,8.774,0,0,0-8.708,9.1V12a1.815,1.815,0,0,1,1.979-1.583A1.815,1.815,0,0,1,7.25,12c0-.874,1.063-1.583,2.375-1.583S12,11.126,12,12Z"/><line class="a" x1="12" y1="2.5" x2="12" y2="0.5"/><path class="a" d="M5,23.5a3,3,0,0,1,6,0Z"/><circle class="a" cx="8" cy="17" r="2"/><path class="a" d="M13.5,23.5a3,3,0,0,1,6,0Z"/><circle class="a" cx="16.5" cy="17" r="2"/><line class="a" x1="12" y1="12" x2="12" y2="17.23"/></svg>