<svg xmlns="http://www.w3.org/2000/svg" viewBox="0 0 24 24"><defs><style>.a{fill:none;stroke:#000;stroke-linecap:round;stroke-linejoin:round;}</style></defs><title>travel-paper-plane</title><path class="a" d="M15.193,22.033a.5.5,0,0,1-.863-.055l-3.116-6.232L6.836,12.811a.5.5,0,0,1,.2-.909L22.644,9.425a.5.5,0,0,1,.494.773Z"/><line class="a" x1="11.214" y1="15.746" x2="23.103" y2="9.595"/><path class="a" d="M3.022,13.454l.715-3.333h1.45a.845.845,0,0,0,.819-1.049L5.584,7.385a.844.844,0,0,0-.819-.639H1"/><path class="a" d="M6.624,15.186A6.75,6.75,0,1,1,14.277,8.5c0,.035,0,.07,0,.1"/><path class="a" d="M12.323,3.746h-1.6a.843.843,0,0,0-.819.639L9.483,6.072A.845.845,0,0,0,10.3,7.121h.888l.587,2.125"/></svg>