<svg xmlns="http://www.w3.org/2000/svg" viewBox="0 0 24 24"><defs><style>.a{fill:none;stroke:#000;stroke-linecap:round;stroke-linejoin:round;}</style></defs><title>travel-woman-luggage</title><path class="a" d="M10.42,4.577A3.43,3.43,0,0,0,10.478,4a3.5,3.5,0,0,0-7,0,3.43,3.43,0,0,0,.059.577,4.637,4.637,0,0,0,3.441-1.6A4.641,4.641,0,0,0,10.42,4.577Z"/><circle class="a" cx="6.978" cy="4" r="3.5"/><path class="a" d="M7,9a3.8,3.8,0,0,1,3.7,2.918L12.5,18.5H9.543l-1.054,5h-3l-1.054-5H1.5l1.805-6.582A3.8,3.8,0,0,1,7,9Z"/><path class="a" d="M18,21.5v-8h4a1,1,0,0,1,1,1v7a1,1,0,0,1-1,1H19"/><circle class="a" cx="18" cy="22.5" r="1"/><line class="a" x1="18" y1="13.5" x2="18" y2="9"/></svg>