<svg xmlns="http://www.w3.org/2000/svg" viewBox="0 0 24 24"><defs><style>.a{fill:none;stroke:#000;stroke-linecap:round;stroke-linejoin:round;}</style></defs><title>travel-insurance-shield</title><path class="a" d="M21.105,2.369A22.4,22.4,0,0,0,12,.5,22.4,22.4,0,0,0,2.9,2.369,1.535,1.535,0,0,0,2,3.774v7.639A12.288,12.288,0,0,0,9.877,22.882l1.074.413a2.786,2.786,0,0,0,2.1,0l1.074-.413A12.288,12.288,0,0,0,22,11.413V3.774A1.535,1.535,0,0,0,21.105,2.369Z"/><path class="a" d="M8.662,10.373l-2.21-.989A.5.5,0,0,0,6,9.407l-.912.524a.5.5,0,0,0-.022.854l3.29,2.124a.5.5,0,0,0,.455.045L12.75,11.4l-1.3,3.367a.5.5,0,0,0,.7.623l.785-.408a.5.5,0,0,0,.208-.2l2.475-4.522,3.179-1.4a1.175,1.175,0,0,0-.91-2.167Z"/><path class="a" d="M14.5,8.041,11,5.848a.5.5,0,0,0-.5-.021l-.863.446a.5.5,0,0,0-.048.861l2.693,1.791"/></svg>