<svg xmlns="http://www.w3.org/2000/svg" viewBox="0 0 24 24"><defs><style>.a{fill:none;stroke:#000;stroke-linecap:round;stroke-linejoin:round;}</style></defs><title>travel-man-luggage</title><path class="a" d="M8.5,23.5l.5-6h2.5V14a5,5,0,0,0-10,0v3.5H4l.5,6Z"/><path class="a" d="M7.667,4a5.805,5.805,0,0,0,2.286-.467,3.478,3.478,0,0,0-6.459-1.3A5.809,5.809,0,0,0,7.667,4Z"/><circle class="a" cx="6.5" cy="4" r="3.5"/><path class="a" d="M17.5,21.5v-8h4a1,1,0,0,1,1,1v7a1,1,0,0,1-1,1h-3"/><circle class="a" cx="17.5" cy="22.5" r="1"/><line class="a" x1="17.5" y1="13.5" x2="17.5" y2="9"/></svg>