<svg xmlns="http://www.w3.org/2000/svg" viewBox="0 0 24 24"><defs><style>.a{fill:none;stroke:#000;stroke-linecap:round;stroke-linejoin:round;}</style></defs><title>treasure-chest</title><path class="a" d="M23.5,7.5a4,4,0,0,0-4-4H4.5a4,4,0,0,0-4,4v2h23v-2Z"/><path class="a" d="M9.5,3.5c-3,0-3,4-3,4v2"/><path class="a" d="M14.5,3.5c3,0,3,4,3,4v2"/><path class="a" d="M23.5,9.5H.5v9a2,2,0,0,0,2,2h19a2,2,0,0,0,2-2Z"/><path class="a" d="M.5,11.5h9a.5.5,0,0,1,.5.5v.5a2,2,0,0,0,2,2h0a2,2,0,0,0,2-2V12a.5.5,0,0,1,.5-.5h9"/><line class="a" x1="12.004" y1="11.5" x2="12.004" y2="12.5"/><line class="a" x1="6.504" y1="11.5" x2="6.504" y2="20.5"/><line class="a" x1="17.504" y1="11.5" x2="17.504" y2="20.5"/></svg>