<svg id="Light" xmlns="http://www.w3.org/2000/svg" viewBox="0 0 24 24"><defs><style>.cls-1{fill:none;stroke:#000;stroke-linecap:round;stroke-linejoin:round;}</style></defs><title>tree-two</title><path class="cls-1" d="M10.75,16.388a1.5,1.5,0,0,1-1.5,1.5h-7a1.5,1.5,0,0,1-1.5-1.5L5.271,1.467a.5.5,0,0,1,.958,0Z"/><path class="cls-1" d="M5.75,16.388A3.5,3.5,0,0,1,9.7,12.916"/><path class="cls-1" d="M1.8,12.917A3.5,3.5,0,0,1,5.75,16.388"/><path class="cls-1" d="M5.75,11.888A2.5,2.5,0,0,1,8.626,9.416"/><path class="cls-1" d="M2.862,9.417A2.5,2.5,0,0,1,5.75,11.888"/><circle class="cls-1" cx="16.75" cy="9.888" r="6.5"/><path class="cls-1" d="M16.75,14.888a3.737,3.737,0,0,1,2.5-3.5"/><path class="cls-1" d="M14.25,9.888a2.5,2.5,0,0,1,2.5,2.5"/><line class="cls-1" x1="16.75" y1="22.888" x2="16.75" y2="7.888"/><line class="cls-1" x1="5.75" y1="22.888" x2="5.75" y2="6.888"/></svg>