<svg id="Light" xmlns="http://www.w3.org/2000/svg" viewBox="0 0 24 24"><defs><style>.cls-1{fill:none;stroke:#000;stroke-linecap:round;stroke-linejoin:round;}</style></defs><title>trekking-goal</title><circle class="cls-1" cx="8.249" cy="4.701" r="2"/><path class="cls-1" d="M3.03,7.743a1,1,0,0,0-1.247.667L.543,12.5a1,1,0,0,0,1.915.581L3.7,8.991A1,1,0,0,0,3.03,7.743Z"/><path class="cls-1" d="M11.956,12.511A5.132,5.132,0,0,1,8.327,9.984l-.491-.86a1.25,1.25,0,0,0-2.276.24l-4,12.5a1.25,1.25,0,1,0,2.381.761L5.376,18.14l1.7,4.543a1.265,1.265,0,0,0,1.609.732,1.25,1.25,0,0,0,.732-1.609L6.605,14.3l.546-1.706a7.627,7.627,0,0,0,4.394,2.386,1.251,1.251,0,0,0,.411-2.467Z"/><path class="cls-1" d="M16,.495h7a.5.5,0,0,1,.5.5v5.5a0,0,0,0,1,0,0h-8a0,0,0,0,1,0,0V.995a.5.5,0,0,1,.5-.5Z"/><line class="cls-1" x1="23.5" y1="6.495" x2="23.5" y2="14.495"/><line class="cls-1" x1="15.5" y1="6.495" x2="15.5" y2="14.495"/><line class="cls-1" x1="18" y1="2.495" x2="21" y2="2.495"/><line class="cls-1" x1="18" y1="4.495" x2="21" y2="4.495"/></svg>