<svg xmlns="http://www.w3.org/2000/svg" viewBox="0 0 24 24"><defs><style>.a{fill:none;stroke:#000;stroke-linecap:round;stroke-linejoin:round;}</style></defs><title>trip-multiple-destination</title><path class="a" d="M10.949.5a3.636,3.636,0,0,1,3.637,3.636c0,1.6-2.3,4.683-3.244,5.876a.5.5,0,0,1-.785,0C9.616,8.819,7.314,5.734,7.314,4.136A3.635,3.635,0,0,1,10.949.5Z"/><path class="a" d="M12.314,4.136a1.364,1.364,0,1,1-1.365-1.363A1.365,1.365,0,0,1,12.314,4.136Z"/><path class="a" d="M19.949,7.5a3.273,3.273,0,0,1,3.274,3.273c0,1.417-2.01,4.13-2.88,5.238a.5.5,0,0,1-.787,0c-.87-1.108-2.879-3.821-2.879-5.238A3.272,3.272,0,0,1,19.949,7.5Z"/><path class="a" d="M21.177,10.773a1.227,1.227,0,1,1-1.228-1.227A1.227,1.227,0,0,1,21.177,10.773Z"/><path class="a" d="M9.038,15.319c-.368,2.2-4.091,5.95-4.091,8.181,0-2.231-3.622-5.621-4.089-8.181A3.919,3.919,0,0,1,4.947,10.5,3.916,3.916,0,0,1,9.038,15.319Z"/><path class="a" d="M6.82,14.407a1.873,1.873,0,1,1-1.873-1.872A1.872,1.872,0,0,1,6.82,14.407Z"/><line class="a" x1="11.867" y1="12" x2="16.774" y2="15.27"/><line class="a" x1="7.502" y1="22.31" x2="17.449" y2="17.667"/></svg>