<svg xmlns="http://www.w3.org/2000/svg" viewBox="0 0 24 24"><defs><style>.a{fill:none;stroke:#000;stroke-linecap:round;stroke-linejoin:round;}</style></defs><title>trip-destination</title><path class="a" d="M5.59,7a5.088,5.088,0,0,1,5.088,5.09c0,2.332-3.506,6.928-4.7,8.423a.5.5,0,0,1-.783,0C4.006,19.017.5,14.422.5,12.09A5.088,5.088,0,0,1,5.59,7Z"/><path class="a" d="M7.5,12.09A1.909,1.909,0,1,1,5.59,10.181,1.908,1.908,0,0,1,7.5,12.09Z"/><path class="a" d="M5.59,23H13.5a1,1,0,0,0,1-1V15a1,1,0,0,1,1-1h4"/><path class="a" d="M19.5,1a4,4,0,0,1,4,4c0,1.782-2.6,5.24-3.608,6.514a.5.5,0,0,1-.784,0C18.1,10.241,15.5,6.782,15.5,5A4,4,0,0,1,19.5,1Z"/><circle class="a" cx="19.5" cy="5" r="1.5"/></svg>