<svg id="Light" xmlns="http://www.w3.org/2000/svg" viewBox="0 0 24 24"><defs><style>.cls-1{fill:none;stroke:#000;stroke-linecap:round;stroke-linejoin:round;}</style></defs><title>trousers-calves-2</title><line class="cls-1" x1="4.499" y1="3.5" x2="19.499" y2="3.5"/><line class="cls-1" x1="14.501" y1="0.5" x2="14.501" y2="3.5"/><line class="cls-1" x1="9.501" y1="0.5" x2="9.501" y2="3.5"/><path class="cls-1" d="M8,3.5A3.5,3.5,0,0,1,4.5,7"/><path class="cls-1" d="M16,3.5A3.5,3.5,0,0,0,19.5,7"/><path class="cls-1" d="M19,.5H5a.5.5,0,0,0-.5.5V23a.5.5,0,0,0,.5.5h5a.5.5,0,0,0,.5-.5V10.5c0-.625.948-1,1.5-1s1.5.375,1.5,1V23a.5.5,0,0,0,.5.5h5a.5.5,0,0,0,.5-.5V1A.5.5,0,0,0,19,.5Z"/></svg>