<svg id="Light" xmlns="http://www.w3.org/2000/svg" viewBox="0 0 24 24"><defs><style>.cls-1{fill:none;stroke:#000;stroke-linecap:round;stroke-linejoin:round;}</style></defs><title>trousers-calves</title><path class="cls-1" d="M19,23.5a.5.5,0,0,0,.5-.524L18.5,2.5H5.5l-1,20.476A.5.5,0,0,0,5,23.5h5.054a.5.5,0,0,0,.5-.443L12,10.5l1.449,12.557a.5.5,0,0,0,.5.443Z"/><path class="cls-1" d="M6,.5H18a.5.5,0,0,1,.5.5V2.5a0,0,0,0,1,0,0H5.5a0,0,0,0,1,0,0V1A.5.5,0,0,1,6,.5Z"/><path class="cls-1" d="M8.354,2.5A3.5,3.5,0,0,1,5.28,6.989"/><path class="cls-1" d="M15.644,2.5a3.5,3.5,0,0,0,3.074,4.489"/><path class="cls-1" d="M11.666,7.386A.5.5,0,0,1,11,6.915V2.5h2v3A2,2,0,0,1,11.666,7.386Z"/></svg>