<svg xmlns="http://www.w3.org/2000/svg" viewBox="0 0 24 24"><defs><style>.a{fill:none;stroke:#000;stroke-linecap:round;stroke-linejoin:round;}</style></defs><title>truck-2</title><line class="a" x1="6.227" y1="18.5" x2="15.775" y2="18.5"/><path class="a" d="M19.225,18.5H22.5a1,1,0,0,0,1-1v-5a4.234,4.234,0,0,0-.447-1.894L21,6.5a3.618,3.618,0,0,0-3.236-2H2.5a2,2,0,0,0-2,2v11a1,1,0,0,0,1,1H2.775"/><circle class="a" cx="17.5" cy="17.5" r="2"/><circle class="a" cx="4.5" cy="17.5" r="2"/><line class="a" x1="21" y1="6.5" x2="0.5" y2="6.5"/><path class="a" d="M23.5,16l-2.5-2.183A5.323,5.323,0,0,0,17.5,12.5H.5"/><line class="a" x1="4.5" y1="8.5" x2="2.5" y2="8.5"/><line class="a" x1="4.5" y1="10.5" x2="2.5" y2="10.5"/><path class="a" d="M6.5,6.5v3a1,1,0,0,0,1,1H23"/><line class="a" x1="11.5" y1="10.5" x2="11.5" y2="6.5"/><line class="a" x1="17.5" y1="10.5" x2="17.5" y2="6.5"/></svg>