<svg xmlns="http://www.w3.org/2000/svg" viewBox="0 0 24 24"><defs><style>.a{fill:none;stroke:#000;stroke-linecap:round;stroke-linejoin:round;}</style></defs><title>truck-moving</title><path class="a" d="M19.732,20.5H22.6a.9.9,0,0,0,.9-.9V17.5a4,4,0,0,0-4-4h-3v3a1,1,0,0,1-1,1H4.5v2.1a.9.9,0,0,0,.9.9H7.268"/><line class="a" x1="10.732" y1="20.5" x2="16.268" y2="20.5"/><circle class="a" cx="18" cy="21.5" r="2"/><circle class="a" cx="9" cy="21.5" r="2"/><path class="a" d="M19.5,13.5v3a1,1,0,0,0,1,1h3"/><path class="a" d="M13,8.5h2.5a1,1,0,0,1,1,1v7a1,1,0,0,1-1,1H1.5a1,1,0,0,1-1-1V10.846"/><path class="a" d="M5,9.5V7A1.5,1.5,0,0,1,8,7V9.5"/><path class="a" d="M3,3.682V9a.5.5,0,0,0,.5.5h6A.5.5,0,0,0,10,9V3.682"/><polyline class="a" points="1 5.5 6.5 0.5 12 5.5"/></svg>