<svg xmlns="http://www.w3.org/2000/svg" viewBox="0 0 24 24"><defs><style>.a{fill:none;stroke:#000;stroke-linecap:round;stroke-linejoin:round;}</style></defs><title>truck</title><path class="a" d="M7.186,20.36V22a.5.5,0,0,1-.5.5H4.667a.5.5,0,0,1-.5-.5V20.36"/><path class="a" d="M20.167,20.36V22a.5.5,0,0,1-.5.5H17.686a.5.5,0,0,1-.5-.5V20.36"/><path class="a" d="M18.167,9.5h-12v-6a2,2,0,0,1,2-2h8a2,2,0,0,1,2,2Z"/><path class="a" d="M18.167,9.5V14a.5.5,0,0,0,.5.5h1.5a2,2,0,0,1,2,2v2.86a1,1,0,0,1-1,1h-18a1,1,0,0,1-1-1V16.5a2,2,0,0,1,2-2h1.5a.5.5,0,0,0,.5-.5V9.5"/><path class="a" d="M3.167,9.5v-3a2.313,2.313,0,0,0-2.334-2"/><rect class="a" x="8.167" y="11.5" width="8" height="6" rx="0.5" ry="0.5"/><line class="a" x1="6.167" y1="4.5" x2="18.167" y2="4.5"/><line class="a" x1="10.167" y1="13.5" x2="10.167" y2="15.5"/><line class="a" x1="12.167" y1="13.5" x2="12.167" y2="15.5"/><line class="a" x1="14.167" y1="13.5" x2="14.167" y2="15.5"/><path class="a" d="M4.167,14.5V10a.5.5,0,0,0-.5-.5h-1a.5.5,0,0,0-.5.5v6.5"/><path class="a" d="M20.167,14.5V10a.5.5,0,0,1,.5-.5h1a.5.5,0,0,1,.5.5v6.5"/><path class="a" d="M21.167,9.5v-3a2,2,0,0,1,2-2"/><line class="a" x1="2.186" y1="18.36" x2="4.686" y2="18.36"/><line class="a" x1="19.686" y1="18.36" x2="22.186" y2="18.36"/><line class="a" x1="12.167" y1="9.5" x2="12.167" y2="4.5"/></svg>