<svg xmlns="http://www.w3.org/2000/svg" viewBox="0 0 24 24"><defs><style>.a{fill:none;stroke:#000;stroke-linecap:round;stroke-linejoin:round;}</style></defs><title>tuk-tuk</title><path class="a" d="M2,5.741v9.923a1.5,1.5,0,0,0,1.5,1.5h.063"/><polyline class="a" points="10 6.127 10 17.164 7.437 17.164"/><polyline class="a" points="10 17.164 17.5 17.164 21 13.664 18.456 6.54"/><line class="a" x1="21" y1="6.664" x2="0.5" y2="5.664"/><path class="a" d="M16.365,6.438l.911-1.827c.123-.246.325-.246.448,0l.965,1.94"/><path class="a" d="M19.684,9.98l-1.977,1.977A2.782,2.782,0,0,0,17,13.664v.5H6v-1a1,1,0,0,0-1-1H2"/><line class="a" x1="11.5" y1="9.664" x2="13" y2="14.164"/><path class="a" d="M21,13.664l.179.071A3.693,3.693,0,0,1,23.5,17.164h-6"/><circle class="a" cx="5.5" cy="17.664" r="2"/><path class="a" d="M18.5,17.164v.5a2,2,0,0,0,4,0v-.5"/></svg>