<svg id="Light" xmlns="http://www.w3.org/2000/svg" viewBox="0 0 24 24"><defs><style>.cls-1{fill:none;stroke:#000;stroke-linecap:round;stroke-linejoin:round;}</style></defs><title>tux</title><path class="cls-1" d="M4,2.5C1.143,7.735.5,14.512.5,21h3L6,9"/><path class="cls-1" d="M3,23.5H1A.5.5,0,0,1,.5,23V21h3v2A.5.5,0,0,1,3,23.5Z"/><path class="cls-1" d="M20,2.5c2.856,5.236,3.5,12.013,3.5,18.5h-3L18,9"/><path class="cls-1" d="M21,23.5h2a.5.5,0,0,0,.5-.5V21h-3v2A.5.5,0,0,0,21,23.5Z"/><path class="cls-1" d="M12,23.5a17.235,17.235,0,0,0,5.678-.876A.5.5,0,0,0,18,22.15V9c.5-4,1.322-6.3,2-6.5A32.3,32.3,0,0,0,15.716.532a.5.5,0,0,0-.41.029A7.129,7.129,0,0,1,12,1.5,7.129,7.129,0,0,1,8.692.561a.5.5,0,0,0-.41-.029A32.355,32.355,0,0,0,4,2.5C4.678,2.7,5.5,5,6,9V22.15a.5.5,0,0,0,.322.473A17.235,17.235,0,0,0,12,23.5Z"/><path class="cls-1" d="M18,20.5a19.961,19.961,0,0,1-6,1,19.961,19.961,0,0,1-6-1"/><line class="cls-1" x1="10.999" y1="3.499" x2="12.999" y2="3.499"/><line class="cls-1" x1="11.999" y1="14.501" x2="11.999" y2="23.499"/><path class="cls-1" d="M15.5.5c-.388,3.982-1.5,11-3.5,14-2-3-3.111-10.016-3.5-14"/></svg>