<svg id="Light" xmlns="http://www.w3.org/2000/svg" viewBox="0 0 24 24"><defs><style>.cls-1{fill:none;stroke:#000;stroke-linecap:round;stroke-linejoin:round;}</style></defs><title>underwear-female-set</title><path class="cls-1" d="M6,4.413A12.574,12.574,0,0,0,6.4,9.1"/><path class="cls-1" d="M10.512,9.707a9.2,9.2,0,0,0-7.452.328"/><line class="cls-1" x1="5.999" y1="4.413" x2="4.713" y2="0.5"/><path class="cls-1" d="M6,4.413c-1.988,1.468-2.9,3.7-3,6.522,2.571,1.819,5.143,1.252,7.714-.435A8.679,8.679,0,0,0,6,4.413Z"/><path class="cls-1" d="M18,4.413A12.574,12.574,0,0,1,17.6,9.1"/><path class="cls-1" d="M13.486,9.707a9.2,9.2,0,0,1,7.452.328"/><line class="cls-1" x1="17.999" y1="4.413" x2="19.285" y2="0.5"/><path class="cls-1" d="M18,4.413c1.989,1.468,2.9,3.7,3,6.522-2.571,1.819-5.143,1.252-7.714-.435A8.679,8.679,0,0,1,18,4.413Z"/><line class="cls-1" x1="10.713" y1="10.5" x2="13.285" y2="10.5"/><path class="cls-1" d="M20.111,14.8a84.56,84.56,0,0,1-16.224,0,.5.5,0,0,0-.537.409l-.268,1.582a.5.5,0,0,0,.4.575l2.887.533c1.292.238,3.873,4.021,4.635,5.348a.5.5,0,0,0,.434.252h1.118a.5.5,0,0,0,.435-.252c.761-1.327,3.34-5.109,4.634-5.348l2.887-.533a.5.5,0,0,0,.4-.575l-.269-1.582A.5.5,0,0,0,20.111,14.8Z"/></svg>