<svg id="Light" xmlns="http://www.w3.org/2000/svg" viewBox="0 0 24 24"><defs><style>.cls-1{fill:none;stroke:#000;stroke-linecap:round;stroke-linejoin:round;}</style></defs><title>underwear-shorts-male-1</title><path class="cls-1" d="M21.524.974a.5.5,0,0,0-.5-.474H2.973a.5.5,0,0,0-.5.474L1.61,17.4a2,2,0,0,0,2,2.105H8.5a2,2,0,0,0,2-2V12a1.5,1.5,0,0,1,3,0v5.5a2,2,0,0,0,2,2h4.892a2,2,0,0,0,2-2.105Z"/><path class="cls-1" d="M9.5,19.232V22.5a1,1,0,0,1-1,1h-5a1,1,0,0,1-1-1V19.165"/><line class="cls-1" x1="4.499" y1="23.5" x2="4.499" y2="19.5"/><line class="cls-1" x1="7.499" y1="23.5" x2="7.499" y2="19.5"/><path class="cls-1" d="M14.5,19.232V22.5a1,1,0,0,0,1,1h5a1,1,0,0,0,1-1V19.165"/><line class="cls-1" x1="19.499" y1="23.5" x2="19.499" y2="19.5"/><line class="cls-1" x1="16.499" y1="23.5" x2="16.499" y2="19.5"/><line class="cls-1" x1="2.394" y1="2.5" x2="21.604" y2="2.5"/><path class="cls-1" d="M2.184,6.5a4.5,4.5,0,0,0,4.287-4"/><path class="cls-1" d="M21.815,6.5a4.5,4.5,0,0,1-4.288-4"/></svg>