<svg id="Light" xmlns="http://www.w3.org/2000/svg" viewBox="0 0 24 24"><defs><style>.cls-1{fill:none;stroke:#000;stroke-linecap:round;stroke-linejoin:round;}</style></defs><title>underwear-shorts-male</title><path class="cls-1" d="M1.5.5h21a1,1,0,0,1,1,1v3a0,0,0,0,1,0,0H.5a0,0,0,0,1,0,0v-3A1,1,0,0,1,1.5.5Z"/><path class="cls-1" d="M14.5,4.5v7.434a1,1,0,0,1-.485.857L12,14,9.985,12.791a1,1,0,0,1-.486-.857V4.5"/><path class="cls-1" d="M.5,4.5v18a1,1,0,0,0,1,1H9.644a1,1,0,0,0,.988-.843L12,14l1.367,8.656a1,1,0,0,0,.988.844H22.5a1,1,0,0,0,1-1V4.5"/></svg>