<svg xmlns="http://www.w3.org/2000/svg" viewBox="0 0 24 24"><defs><style>.a{fill:none;stroke:#000;stroke-linecap:round;stroke-linejoin:round;}</style></defs><title>unicycle</title><circle class="a" cx="12" cy="16" r="7.5"/><circle class="a" cx="12" cy="16" r="5.5"/><circle class="a" cx="12" cy="16" r="1.5"/><line class="a" x1="12" y1="4.5" x2="12" y2="14.5"/><line class="a" x1="6.5" y1="16" x2="10.5" y2="16"/><line class="a" x1="12" y1="17.5" x2="12" y2="21.5"/><line class="a" x1="13.5" y1="16" x2="17.5" y2="16"/><line class="a" x1="13.065" y1="14.935" x2="15.889" y2="12.111"/><line class="a" x1="10.946" y1="14.935" x2="8.368" y2="11.868"/><line class="a" x1="10.94" y1="17.072" x2="8.37" y2="20.13"/><line class="a" x1="13.049" y1="17.072" x2="15.304" y2="20.398"/><path class="a" d="M13.5,2.5A8.511,8.511,0,0,1,9.5.929,3.24,3.24,0,0,0,7.5.5h-2a4,4,0,0,0,4,4h7.75c.69,0,1.25-.31,1.25-1s-.56-1-1.25-1Z"/></svg>