<svg xmlns="http://www.w3.org/2000/svg" viewBox="0 0 24 24"><defs><style>.a{fill:none;stroke:#000;stroke-linecap:round;stroke-linejoin:round;}</style></defs><title>user-idea</title><path class="a" d="M1,23.5a5.779,5.779,0,0,1,6-6,5.779,5.779,0,0,1,6,6Z"/><circle class="a" cx="7" cy="12" r="4"/><path class="a" d="M10.727,11.467A4.3,4.3,0,0,1,8.611,12a4.917,4.917,0,0,1-4.4-2.7"/><line class="a" x1="18.22" y1="13.5" x2="16.78" y2="13.5"/><line class="a" x1="19" y1="11.5" x2="16" y2="11.5"/><line class="a" x1="17.5" y1="0.5" x2="17.5" y2="1.5"/><line class="a" x1="11.8" y1="6.5" x2="13" y2="6.5"/><line class="a" x1="23" y1="6.5" x2="22" y2="6.5"/><line class="a" x1="12.5" y1="2" x2="13.5" y2="3"/><line class="a" x1="22.5" y1="2" x2="21.5" y2="3"/><path class="a" d="M20.5,6a3.089,3.089,0,0,0-3-3,3.089,3.089,0,0,0-3,3A2.942,2.942,0,0,0,16,8.5V9a.5.5,0,0,0,.5.5h2A.5.5,0,0,0,19,9V8.5A2.944,2.944,0,0,0,20.5,6Z"/><line class="a" x1="7" y1="19.5" x2="7" y2="20.5"/></svg>