<svg id="Light" xmlns="http://www.w3.org/2000/svg" viewBox="0 0 24 24"><defs><style>.cls-1{fill:none;stroke:#000;stroke-linecap:round;stroke-linejoin:round;}</style></defs><title>uv-meter</title><path class="cls-1" d="M15.659,8A5.986,5.986,0,0,1,16,10"/><path class="cls-1" d="M4,10a6,6,0,0,1,8-5.657"/><circle class="cls-1" cx="10" cy="10" r="1.5"/><line class="cls-1" x1="11.061" y1="8.939" x2="15.5" y2="4.5"/><circle class="cls-1" cx="18" cy="18" r="5.5"/><path class="cls-1" d="M15,15.5v4a1,1,0,0,0,2,0v-4"/><path class="cls-1" d="M19,15.5v1.7a5.954,5.954,0,0,0,1,3.3,5.954,5.954,0,0,0,1-3.3V15.5"/><path class="cls-1" d="M19.5,10A9.5,9.5,0,1,0,2.633,16H10.5"/></svg>