<svg id="Light" xmlns="http://www.w3.org/2000/svg" viewBox="0 0 24 24"><defs><style>.cls-1{fill:none;stroke:#000;stroke-linecap:round;stroke-linejoin:round;}</style></defs><title>uv-sun</title><path class="cls-1" d="M16.25,17.5V22a1.5,1.5,0,0,1-3,0V17.5"/><path class="cls-1" d="M22.25,17.5V19a7.5,7.5,0,0,1-1.5,4.5,7.5,7.5,0,0,1-1.5-4.5V17.5"/><circle class="cls-1" cx="10.25" cy="9" r="4"/><line class="cls-1" x1="10.25" y1="0.5" x2="10.25" y2="2.5"/><line class="cls-1" x1="18.75" y1="8.5" x2="16.75" y2="8.5"/><line class="cls-1" x1="10.25" y1="17.5" x2="10.25" y2="15.5"/><line class="cls-1" x1="1.75" y1="8.5" x2="3.75" y2="8.5"/><line class="cls-1" x1="4.24" y1="2.99" x2="5.654" y2="4.404"/><line class="cls-1" x1="15.906" y1="2.637" x2="14.492" y2="4.051"/><line class="cls-1" x1="16.261" y1="15.011" x2="14.847" y2="13.597"/><line class="cls-1" x1="3.887" y1="14.656" x2="5.301" y2="13.242"/><path class="cls-1" d="M16.25,17.5V22a1.5,1.5,0,0,1-3,0V17.5"/><path class="cls-1" d="M22.25,17.5V19a7.5,7.5,0,0,1-1.5,4.5,7.5,7.5,0,0,1-1.5-4.5V17.5"/></svg>