<svg xmlns="http://www.w3.org/2000/svg" viewBox="0 0 24 24"><defs><style>.a{fill:none;stroke:#000;stroke-linecap:round;stroke-linejoin:round;}</style></defs><title>vectors-square-link</title><path class="a" d="M17.611,21.854l-1.061,1.06a2,2,0,0,1-2.828,0l-.707-.707a2,2,0,0,1,0-2.828l3.03-3.031a1.715,1.715,0,0,1,2.424,0l.556.556"/><path class="a" d="M18.318,14.075l1.061-1.06a2,2,0,0,1,2.828,0l.707.707a2,2,0,0,1,0,2.828l-3.03,3.031a1.716,1.716,0,0,1-2.425,0l-.555-.556"/><line class="a" x1="19.5" y1="4.5" x2="19.5" y2="10.5"/><line class="a" x1="4.5" y1="2.5" x2="17.5" y2="2.5"/><line class="a" x1="2.5" y1="17.5" x2="2.5" y2="4.5"/><line class="a" x1="10.5" y1="19.5" x2="4.5" y2="19.5"/><rect class="a" x="0.5" y="0.5" width="4" height="4" rx="0.5" ry="0.5"/><rect class="a" x="17.5" y="0.5" width="4" height="4" rx="0.5" ry="0.5"/><rect class="a" x="0.5" y="17.5" width="4" height="4" rx="0.5" ry="0.5"/></svg>