<svg xmlns="http://www.w3.org/2000/svg" viewBox="0 0 24 24"><defs><style>.a{fill:none;stroke:#000;stroke-linecap:round;stroke-linejoin:round;}</style></defs><title>vectors-pen-subtract</title><polyline class="a" points="6.06 13.275 0.75 17.257 4.993 21.5 8.975 16.19"/><path class="a" d="M7.114,15.136a4,4,0,0,0,5.657,0c1.184-1.184,2.613-6.076,3.049-7.645A.862.862,0,0,0,14.759,6.43C13.19,6.866,8.3,8.3,7.114,9.479A4,4,0,0,0,7.114,15.136Z"/><line class="a" x1="15.599" y1="6.651" x2="11.18" y2="11.07"/><path class="a" d="M10.473,11.424a.25.25,0,1,1,0,.353.249.249,0,0,1,0-.353"/><line class="a" x1="16.25" y1="2.5" x2="23.25" y2="2.5"/></svg>