<svg id="Light" xmlns="http://www.w3.org/2000/svg" viewBox="0 0 24 24"><defs><style>.cls-1{fill:none;stroke:#000;stroke-linecap:round;stroke-linejoin:round;}</style></defs><title>vegetables-mushroom-soup</title><path class="cls-1" d="M7,6.329a.25.25,0,1,1-.25.25A.25.25,0,0,1,7,6.329"/><path class="cls-1" d="M10.5,6.329a.25.25,0,1,1-.25.25.25.25,0,0,1,.25-.25"/><path class="cls-1" d="M13.982,6.329a.25.25,0,1,1-.25.25.25.25,0,0,1,.25-.25"/><path class="cls-1" d="M12,21.5h2a1.5,1.5,0,0,0,0-3H12"/><path class="cls-1" d="M11,23.5a3.5,3.5,0,0,1,0-7,1,1,0,0,1,1,1v5A1,1,0,0,1,11,23.5Z"/><path class="cls-1" d="M18.933,16.493l.553,1.922a1.5,1.5,0,0,0,2.883-.831l-.553-1.921"/><path class="cls-1" d="M16.734,16.086a3.5,3.5,0,0,1,6.727-1.938,1,1,0,0,1-.684,1.238l-4.8,1.384A1,1,0,0,1,16.734,16.086Z"/><ellipse class="cls-1" cx="10.5" cy="5" rx="10" ry="4.5"/><path class="cls-1" d="M18.483,7.71C18.217,5.36,14.745,3.5,10.5,3.5S2.783,5.36,2.517,7.71"/><path class="cls-1" d="M.5,5V7a10,10,0,0,0,5.931,9.137"/><path class="cls-1" d="M20.185,9.5A10,10,0,0,0,20.5,7V5"/></svg>