<svg id="Light" xmlns="http://www.w3.org/2000/svg" viewBox="0 0 24 24"><defs><style>.cls-1{fill:none;stroke:#000;stroke-linecap:round;stroke-linejoin:round;}</style></defs><title>vegetables-beet-1</title><path class="cls-1" d="M17.411,18.136c-2.721,2.721-7.438,3.606-10.666,1.743a2.282,2.282,0,0,0-2.769.378,2.279,2.279,0,0,0,.378-2.769C2.491,14.259,3.377,9.542,6.1,6.822c3.125-3.126,7.834-2.772,10.96.353S20.537,15.01,17.411,18.136Z"/><path class="cls-1" d="M3.976,20.257l-.707.707S1.764,22.47.5,21.791"/><path class="cls-1" d="M18.032,8.321a7.976,7.976,0,0,0,2.434-5.75.5.5,0,0,0-.487-.5l-1.5-.038a.5.5,0,0,0-.512.5,5.484,5.484,0,0,1-1.653,3.969"/><path class="cls-1" d="M20.032,5.178a8.01,8.01,0,0,1,3.1.23.5.5,0,0,1,.352.6l-.361,1.457a.5.5,0,0,1-.621.36,5.484,5.484,0,0,0-4.386.615"/></svg>