<svg id="Light" xmlns="http://www.w3.org/2000/svg" viewBox="0 0 24 24"><defs><style>.cls-1{fill:none;stroke:#000;stroke-linecap:round;stroke-linejoin:round;}</style></defs><title>video-game-mario-flower-2</title><line class="cls-1" x1="9.5" y1="6.5" x2="9.5" y2="8"/><line class="cls-1" x1="14.5" y1="6.5" x2="14.5" y2="8"/><line class="cls-1" x1="12" y1="13.5" x2="9.5" y2="23.5"/><path class="cls-1" d="M.5,7A6.5,6.5,0,0,0,7,13.5H17a6.5,6.5,0,0,0,0-13H7A6.5,6.5,0,0,0,.5,7Z"/><path class="cls-1" d="M4,7a3.5,3.5,0,0,0,3.5,3.5h9a3.5,3.5,0,0,0,0-7h-9A3.5,3.5,0,0,0,4,7Z"/><path class="cls-1" d="M5.862,19.606A2,2,0,0,0,4.073,18.5H1a.5.5,0,0,0-.447.724l1.585,3.17A2,2,0,0,0,3.927,23.5H7a.5.5,0,0,0,.447-.724Z"/><path class="cls-1" d="M14.138,19.606A2,2,0,0,1,15.927,18.5H19a.5.5,0,0,1,.447.724l-1.585,3.17A2,2,0,0,1,16.073,23.5H13a.5.5,0,0,1-.447-.724Z"/></svg>