<svg xmlns="http://www.w3.org/2000/svg" viewBox="0 0 24 24"><defs><style>.a{fill:none;stroke:#000;stroke-linecap:round;stroke-linejoin:round;}</style></defs><title>video-game-logo-playstation</title><path class="a" d="M10.5,2V20.5a.5.5,0,0,0,.276.448l3,1.5A.5.5,0,0,0,14.5,22V3.192L11.224,1.553A.5.5,0,0,0,10.5,2Z"/><path class="a" d="M16.524,4.252v7.18a.492.492,0,0,0,.289.46,2.34,2.34,0,0,0,3.211-2.171V9.154A5,5,0,0,0,17.5,4.812Z"/><line class="a" x1="14.543" y1="3.192" x2="16.524" y2="4.252"/><path class="a" d="M21.92,14.849l.173.065a2.168,2.168,0,0,1,.369,3.88l-5.223,2.849A.5.5,0,0,1,16.5,21.2V19.645a.5.5,0,0,1,.276-.447l2.976-1.488S22.462,16.475,21.92,14.849Z"/><path class="a" d="M21.92,14.849A6.565,6.565,0,0,0,19.5,14.5"/><path class="a" d="M7.824,16.021a.5.5,0,0,1,.676.469v1.528a.5.5,0,0,1-.329.47l-2.442.888a4.092,4.092,0,0,1-4.751-1.5A2.644,2.644,0,0,1,2.07,13.944L7.8,11.4a.5.5,0,0,1,.7.457v1.493a.5.5,0,0,1-.314.464L4.358,15.344a.926.926,0,0,0,.669,1.727Z"/></svg>