<svg id="Light" xmlns="http://www.w3.org/2000/svg" viewBox="0 0 24 24"><defs><style>.cls-1{fill:none;stroke:#000;stroke-linecap:round;stroke-linejoin:round;}</style></defs><title>video-game-nintendo</title><path class="cls-1" d="M15.5,23.5a5,5,0,0,0,5-5V2.5a2.005,2.005,0,0,0-2-2H5.5a2.005,2.005,0,0,0-2,2v19a2.005,2.005,0,0,0,2,2Z"/><rect class="cls-1" x="6.5" y="3.5" width="11" height="8" rx="1" ry="1"/><line class="cls-1" x1="9.5" y1="16.5" x2="5.5" y2="16.5"/><line class="cls-1" x1="7.5" y1="14.5" x2="7.5" y2="18.5"/><line class="cls-1" x1="12.5" y1="21" x2="13.5" y2="20.5"/><line class="cls-1" x1="9.5" y1="21" x2="10.5" y2="20.5"/><path class="cls-1" d="M18,14.75a.25.25,0,0,1,.25.25"/><path class="cls-1" d="M17.75,15a.25.25,0,0,1,.25-.25"/><path class="cls-1" d="M18,15.25a.25.25,0,0,1-.25-.25"/><path class="cls-1" d="M18.25,15a.25.25,0,0,1-.25.25"/><path class="cls-1" d="M15,16.25a.25.25,0,0,1,.25.25"/><path class="cls-1" d="M14.75,16.5a.25.25,0,0,1,.25-.25"/><path class="cls-1" d="M15,16.75a.25.25,0,0,1-.25-.25"/><path class="cls-1" d="M15.25,16.5a.25.25,0,0,1-.25.25"/></svg>