<svg id="Light" xmlns="http://www.w3.org/2000/svg" viewBox="0 0 24 24"><defs><style>.cls-1{fill:none;stroke:#000;stroke-linecap:round;stroke-linejoin:round;}</style></defs><title>video-game-frog</title><path class="cls-1" d="M15.5,1.507a6.508,6.508,0,0,0-7,0"/><path class="cls-1" d="M6.1,4.522a6.463,6.463,0,0,0-.6,2.739l-1.474.386A3.5,3.5,0,0,0,5,14.511H19a3.5,3.5,0,0,0,.927-6.877L18.5,7.261a6.472,6.472,0,0,0-.608-2.75"/><polyline class="cls-1" points="9.5 10.511 8 12.511 6.5 10.511 17.5 10.511 16 12.511 14.5 10.511"/><path class="cls-1" d="M13.5,5.511l4-3.5a1.5,1.5,0,0,1,2.121,0L21,3.511"/><path class="cls-1" d="M10.5,5.511l-4-3.5a1.5,1.5,0,0,0-2.121,0L3,3.511"/><path class="cls-1" d="M8,14.538a5.986,5.986,0,0,0-2,4.473v1l2.5,3.5h7l2.5-3.5v-1a5.988,5.988,0,0,0-2-4.473"/><path class="cls-1" d="M8.5,23.511h-6a1,1,0,0,1-.521-1.854L6,20.011"/><path class="cls-1" d="M15.5,23.511h6a1,1,0,0,0,.522-1.854L18,20.011"/><path class="cls-1" d="M8.5,19.517v-.578a1,1,0,0,1,.328-.742l2.93-1.624a.5.5,0,0,1,.484,0l2.93,1.626a1,1,0,0,1,.328.74v.578"/><line class="cls-1" x1="8.5" y1="6.511" x2="8.5" y2="8.011"/><line class="cls-1" x1="15.5" y1="6.511" x2="15.5" y2="8.011"/></svg>