<svg id="Light" xmlns="http://www.w3.org/2000/svg" viewBox="0 0 24 24"><defs><style>.cls-1{fill:none;stroke:#000;stroke-linecap:round;stroke-linejoin:round;}</style></defs><title>video-game-tetris</title><path class="cls-1" d="M16.5,19V16a.5.5,0,0,0-.5-.5H12.5v4h-4v4H20a.5.5,0,0,0,.5-.5V20a.5.5,0,0,0-.5-.5H17A.5.5,0,0,1,16.5,19Z"/><path class="cls-1" d="M19.5,4.5V1A.5.5,0,0,0,19,.5H16a.5.5,0,0,0-.5.5V8a.5.5,0,0,0,.5.5h3a.5.5,0,0,1,.5.5v3a.5.5,0,0,0,.5.5h3a.5.5,0,0,0,.5-.5V5a.5.5,0,0,0-.5-.5Z"/><path class="cls-1" d="M4.5,7.5V4A.5.5,0,0,0,4,3.5H1A.5.5,0,0,0,.5,4v7.5h12V8a.5.5,0,0,0-.5-.5Z"/><polygon class="cls-1" points="0.5 11.5 0.5 15.5 8.5 15.5 8.5 19.5 12.5 19.5 12.5 11.5 0.5 11.5"/><path class="cls-1" d="M.5,15.5V23a.5.5,0,0,0,.5.5H8.5v-8Z"/></svg>