<svg id="Light" xmlns="http://www.w3.org/2000/svg" viewBox="0 0 24 24"><defs><style>.cls-1{fill:none;stroke:#000;stroke-linecap:round;stroke-linejoin:round;}</style></defs><title>video-game-key</title><path class="cls-1" d="M8.368,17.253l1.414,1.414a1,1,0,1,1-1.414,1.414l-.707.708A1,1,0,1,1,6.247,22.2l-1.7-1.7"/><path class="cls-1" d="M2,10.75a.25.25,0,0,1,.25-.25"/><path class="cls-1" d="M2.25,11A.25.25,0,0,1,2,10.75"/><path class="cls-1" d="M2.5,10.75a.25.25,0,0,1-.25.25"/><path class="cls-1" d="M2.25,10.5a.25.25,0,0,1,.25.25"/><path class="cls-1" d="M19.5,20.75a.25.25,0,0,1,.25-.25"/><path class="cls-1" d="M19.75,21a.25.25,0,0,1-.25-.25"/><path class="cls-1" d="M20,20.75a.25.25,0,0,1-.25.25"/><path class="cls-1" d="M19.75,20.5a.25.25,0,0,1,.25.25"/><path class="cls-1" d="M6.5,1.75a.25.25,0,0,1,.25-.25"/><path class="cls-1" d="M6.75,2a.25.25,0,0,1-.25-.25"/><path class="cls-1" d="M7,1.75A.25.25,0,0,1,6.75,2"/><path class="cls-1" d="M6.75,1.5A.25.25,0,0,1,7,1.75"/><line class="cls-1" x1="1" y1="5.5" x2="3" y2="5.5"/><line class="cls-1" x1="2" y1="4.5" x2="2" y2="6.5"/><line class="cls-1" x1="12" y1="22.5" x2="14" y2="22.5"/><line class="cls-1" x1="13" y1="21.5" x2="13" y2="23.5"/><circle class="cls-1" cx="16.5" cy="7" r="6.5"/><circle class="cls-1" cx="16.5" cy="7" r="3.5"/><path class="cls-1" d="M10.967,10.412,3.439,17.939a1.5,1.5,0,0,0,2.122,2.122l7.527-7.528"/></svg>