<svg id="Light" xmlns="http://www.w3.org/2000/svg" viewBox="0 0 24 24"><defs><style>.cls-1{fill:none;stroke:#000;stroke-linecap:round;stroke-linejoin:round;}</style></defs><title>video-game-mario-plant-maneater</title><path class="cls-1" d="M7.8,4.628a6,6,0,1,1,4.191,7.687"/><path class="cls-1" d="M12.5,7.5,9.143,11.277a1.447,1.447,0,1,0,2.228,1.843l3.734-4.859a2,2,0,0,0-1.441-3.214L7.55,4.611a1.446,1.446,0,1,0-.1,2.889Z"/><path class="cls-1" d="M14,14.5h.5a4,4,0,0,1,4,4v1a0,0,0,0,1,0,0h-1a4,4,0,0,1-4-4V15A.5.5,0,0,1,14,14.5Z"/><path class="cls-1" d="M22.5,14.5h1a0,0,0,0,1,0,0v1a4,4,0,0,1-4,4H19a.5.5,0,0,1-.5-.5v-.5a4,4,0,0,1,4-4Z" transform="translate(42 34) rotate(180)"/><path class="cls-1" d="M19.5,6.5A2.5,2.5,0,0,1,22,9a3.268,3.268,0,0,1-.326,1.425L18.7,16.588a2,2,0,0,0-.2.869V19.5"/><rect class="cls-1" x="10" y="19.5" width="13.5" height="3" rx="0.5" ry="0.5"/><line class="cls-1" x1="11" y1="22.5" x2="11" y2="23.5"/><line class="cls-1" x1="22.5" y1="22.5" x2="22.5" y2="23.5"/><circle class="cls-1" cx="2.5" cy="13" r="1.5"/><line class="cls-1" x1="0.5" y1="11" x2="1.439" y2="11.939"/><line class="cls-1" x1="0.5" y1="15" x2="1.439" y2="14.061"/><line class="cls-1" x1="4.5" y1="15" x2="3.561" y2="14.061"/><line class="cls-1" x1="4.5" y1="11" x2="3.561" y2="11.939"/></svg>