<svg id="Light" xmlns="http://www.w3.org/2000/svg" viewBox="0 0 24 24"><defs><style>.cls-1{fill:none;stroke:#000;stroke-linecap:round;stroke-linejoin:round;}</style></defs><title>video-game-flower-enemy</title><path class="cls-1" d="M8.006,5.046,8.554,9A5.25,5.25,0,0,0,18.946,9l.548-3.954"/><path class="cls-1" d="M18.75.5a2.247,2.247,0,0,0-1.591.658L13.75,4.5,10.341,1.158a2.251,2.251,0,1,0-3,3.346L11,7.478a4.211,4.211,0,0,0,5.5,0L20.16,4.5a2.25,2.25,0,0,0-1.41-4Z"/><line class="cls-1" x1="13.75" y1="13.5" x2="11" y2="23.5"/><path class="cls-1" d="M9.424,19.735A.5.5,0,0,1,9,20.5H6.206a2,2,0,0,1-1.7-.94L3.076,17.265A.5.5,0,0,1,3.5,16.5H6.294a2,2,0,0,1,1.7.94Z"/><path class="cls-1" d="M14.076,20.735a.5.5,0,0,0,.424.765h2.794a2,2,0,0,0,1.7-.94l1.434-2.295A.5.5,0,0,0,20,17.5H17.206a2,2,0,0,0-1.7.94Z"/></svg>