<svg id="Light" xmlns="http://www.w3.org/2000/svg" viewBox="0 0 24 24"><defs><style>.cls-1{fill:none;stroke:#000;stroke-linecap:round;stroke-linejoin:round;}</style></defs><title>video-game-mario</title><line class="cls-1" x1="4" y1="23.5" x2="20" y2="23.5"/><rect class="cls-1" x="5.5" y="8.5" width="13" height="15"/><line class="cls-1" x1="4" y1="8.5" x2="20" y2="8.5"/><line class="cls-1" x1="5.5" y1="11.5" x2="18.5" y2="11.5"/><line class="cls-1" x1="5.5" y1="14.5" x2="18.5" y2="14.5"/><line class="cls-1" x1="5.5" y1="17.5" x2="18.5" y2="17.5"/><line class="cls-1" x1="5.5" y1="20.5" x2="18.5" y2="20.5"/><path class="cls-1" d="M6,8.5c1.293-2.137,1.785-4.245-.165-5.892a.5.5,0,0,1,.336-.882A4.321,4.321,0,0,1,10.183,5.5a4.674,4.674,0,0,0-.139-4.223.5.5,0,0,1,.5-.77A6.087,6.087,0,0,1,15.507,6.5l1.109-1.331a.5.5,0,0,1,.884.32V8.5"/><line class="cls-1" x1="2" y1="2.5" x2="2" y2="5.5"/><line class="cls-1" x1="0.5" y1="4" x2="3.5" y2="4"/><line class="cls-1" x1="22" y1="0.5" x2="22" y2="3.5"/><line class="cls-1" x1="20.5" y1="2" x2="23.5" y2="2"/></svg>