<svg id="Light" xmlns="http://www.w3.org/2000/svg" viewBox="0 0 24 24"><defs><style>.cls-1{fill:none;stroke:#000;stroke-linecap:round;stroke-linejoin:round;}</style></defs><title>video-game-mario-character</title><path class="cls-1" d="M.5,17A6.5,6.5,0,0,0,7,23.5h6A6.5,6.5,0,0,0,19.5,17V7.027a.5.5,0,0,0-.556-.5A5,5,0,0,0,14.5,11.5V4.022a.5.5,0,0,0-.545-.5A6,6,0,0,0,8.5,9.5V4.016a.5.5,0,0,0-.533-.5A8,8,0,0,0,.5,11.5Z"/><path class="cls-1" d="M11,17.5a.5.5,0,0,1,.5.571,4.042,4.042,0,0,1-7.991,0A.5.5,0,0,1,4,17.5Z"/><line class="cls-1" x1="4.5" y1="12.5" x2="4.5" y2="15.5"/><line class="cls-1" x1="9.5" y1="12.5" x2="9.5" y2="15.5"/><path class="cls-1" d="M20,4A3.5,3.5,0,0,1,23.5.5"/><path class="cls-1" d="M14.489,1.562A3.489,3.489,0,0,1,17,.5"/><path class="cls-1" d="M9.009,1.542A3.488,3.488,0,0,1,11.5.5"/></svg>