<svg id="Light" xmlns="http://www.w3.org/2000/svg" viewBox="0 0 24 24"><defs><style>.cls-1{fill:none;stroke:#000;stroke-linecap:round;stroke-linejoin:round;}</style></defs><title>video-game-bowl-ghost</title><path class="cls-1" d="M14,7.762V5.5H10V7.762a8,8,0,1,0,4,0Z"/><line class="cls-1" x1="8" y1="5.5" x2="16" y2="5.5"/><path class="cls-1" d="M12.5,2.75a.25.25,0,0,1,.25.25"/><path class="cls-1" d="M12.25,3a.25.25,0,0,1,.25-.25"/><path class="cls-1" d="M12.5,3.25A.25.25,0,0,1,12.25,3"/><path class="cls-1" d="M12.75,3a.25.25,0,0,1-.25.25"/><circle class="cls-1" cx="16" cy="1.5" r="1"/><path class="cls-1" d="M12,10.5a4,4,0,0,0-4,4v3c0,1.1.672,2,1.5,2a1.453,1.453,0,0,0,1.25-.9,1.453,1.453,0,0,0,1.25.9,1.453,1.453,0,0,0,1.25-.9,1.453,1.453,0,0,0,1.25.9c.828,0,1.5-.9,1.5-2v-3A4,4,0,0,0,12,10.5Z"/><path class="cls-1" d="M10.5,14.25a.25.25,0,0,1,.25.25"/><path class="cls-1" d="M10.25,14.5a.25.25,0,0,1,.25-.25"/><path class="cls-1" d="M10.5,14.75a.25.25,0,0,1-.25-.25"/><path class="cls-1" d="M10.75,14.5a.25.25,0,0,1-.25.25"/><path class="cls-1" d="M13.5,14.25a.25.25,0,0,1,.25.25"/><path class="cls-1" d="M13.25,14.5a.25.25,0,0,1,.25-.25"/><path class="cls-1" d="M13.5,14.75a.25.25,0,0,1-.25-.25"/><path class="cls-1" d="M13.75,14.5a.25.25,0,0,1-.25.25"/></svg>