<svg id="Light" xmlns="http://www.w3.org/2000/svg" viewBox="0 0 24 24"><defs><style>.cls-1{fill:none;stroke:#000;stroke-linecap:round;stroke-linejoin:round;}</style></defs><title>video-game-boo</title><line class="cls-1" x1="11.5" y1="7.5" x2="11.5" y2="10.5"/><line class="cls-1" x1="7" y1="7.5" x2="7" y2="10.5"/><path class="cls-1" d="M3.95,5.434A3.173,3.173,0,0,0,7,7.5a3.335,3.335,0,0,0,2.25-.718A3.335,3.335,0,0,0,11.5,7.5a3.145,3.145,0,0,0,3.238-3.167"/><line class="cls-1" x1="6" y1="12.5" x2="15" y2="12.5"/><path class="cls-1" d="M14,12.5a7.7,7.7,0,0,0-3.786,5.186,3.35,3.35,0,0,0-.051.445,3.286,3.286,0,0,1-3.282,3.131A3.238,3.238,0,0,1,3.74,17.238,7.741,7.741,0,0,1,7.429,12.5"/><path class="cls-1" d="M10.667,12.5a7.7,7.7,0,0,0-3.786,5.186"/><path class="cls-1" d="M9.745,22.68a9.279,9.279,0,0,0,3.826.82c4.7,0,9.2-1.973,9.922-6.244a.5.5,0,0,0-.748-.513,3.474,3.474,0,0,1-2.831.421A2.367,2.367,0,0,1,18.5,15c3.313-.668,4.336-4.284,4.4-5.845a.546.546,0,0,0-.741-.525L18.5,10V8a7.5,7.5,0,0,0-15,0v2L1.293,8.789a.549.549,0,0,0-.784.593,9.2,9.2,0,0,0,1.568,3.6"/></svg>