<svg xmlns="http://www.w3.org/2000/svg" viewBox="0 0 24 24"><defs><style>.a{fill:none;stroke:#000;stroke-linecap:round;stroke-linejoin:round;}</style></defs><title>video-game-logo-companion-cube</title><path class="a" d="M12,15s2.75-2,2.75-3.48c0-1.71-2.25-2.25-2.75-.172-.5-2.078-2.75-1.538-2.75.172C9.25,13,12,15,12,15Z"/><circle class="a" cx="12" cy="12" r="5.5"/><path class="a" d="M6.5.5a1,1,0,0,1,1,1V6.02A6.5,6.5,0,0,0,6.02,7.5H1.5a1,1,0,0,1-1-1v-5a1,1,0,0,1,1-1Z"/><path class="a" d="M22.5.5a1,1,0,0,1,1,1v5a1,1,0,0,1-1,1H17.98A6.5,6.5,0,0,0,16.5,6.02V1.5a1,1,0,0,1,1-1Z"/><path class="a" d="M7.5,17.98V22.5a1,1,0,0,1-1,1h-5a1,1,0,0,1-1-1v-5a1,1,0,0,1,1-1H6.02A6.5,6.5,0,0,0,7.5,17.98Z"/><path class="a" d="M22.5,16.5a1,1,0,0,1,1,1v5a1,1,0,0,1-1,1h-5a1,1,0,0,1-1-1V17.98a6.5,6.5,0,0,0,1.48-1.48Z"/><path class="a" d="M14.5,1.5V4.94a7.322,7.322,0,0,0-5,0V1.5Z"/><path class="a" d="M14.5,19.06V22.5h-5V19.06a7.322,7.322,0,0,0,5,0Z"/><path class="a" d="M22.5,9.5v5H19.06a7.322,7.322,0,0,0,0-5Z"/><path class="a" d="M4.5,12a7.145,7.145,0,0,0,.44,2.5H1.5v-5H4.94A7.145,7.145,0,0,0,4.5,12Z"/><line class="a" x1="2.5" y1="7.5" x2="2.5" y2="9.5"/><line class="a" x1="2.5" y1="14.5" x2="2.5" y2="16.5"/><line class="a" x1="7.5" y1="2.5" x2="9.5" y2="2.5"/><line class="a" x1="14.5" y1="2.5" x2="16.5" y2="2.5"/><line class="a" x1="21.5" y1="7.5" x2="21.5" y2="9.5"/><line class="a" x1="21.5" y1="14.5" x2="21.5" y2="16.5"/><line class="a" x1="7.5" y1="21.5" x2="9.5" y2="21.5"/><line class="a" x1="14.5" y1="21.5" x2="16.5" y2="21.5"/></svg>