<svg id="Light" xmlns="http://www.w3.org/2000/svg" viewBox="0 0 24 24"><defs><style>.cls-1{fill:none;stroke:#000;stroke-linecap:round;stroke-linejoin:round;}</style></defs><title>video-game-cat</title><path class="cls-1" d="M2.719,8.22A8,8,0,0,0,8.5,21.75h7a8,8,0,0,0,7-11.877V2.75a.5.5,0,0,0-.9-.3l-3.1,3.805"/><path class="cls-1" d="M1.5,9.874V2.75a.5.5,0,0,1,.5-.5.491.491,0,0,1,.353.147L6.064,5.9A11.511,11.511,0,0,1,20,7.489"/><line class="cls-1" x1="12.5" y1="10.75" x2="12.5" y2="13.25"/><line class="cls-1" x1="19.5" y1="10.75" x2="19.5" y2="13.25"/><path class="cls-1" d="M18.5,17.75a2,2,0,0,1-4,0v-1.5a.5.5,0,0,1,.5-.5h3a.5.5,0,0,1,.5.5Z"/><line class="cls-1" x1="11.5" y1="15.25" x2="10" y2="16.75"/><line class="cls-1" x1="8.926" y1="15.25" x2="7.426" y2="16.75"/><line class="cls-1" x1="20" y1="15.25" x2="21.5" y2="16.75"/></svg>