<svg xmlns="http://www.w3.org/2000/svg" viewBox="0 0 24 24"><defs><style>.a{fill:none;stroke:#000;stroke-linecap:round;stroke-linejoin:round;}</style></defs><title>video-game-friend-star</title><path class="a" d="M12.418,11.972c-2.51.087-2.475-4.525-.873-4.982C14.043,6.276,14.359,11.906,12.418,11.972Z"/><path class="a" d="M13.924,20.5C4.125,20.5,9.756,10.354.5,10.354V7.293c12.348,0,5.568,9.619,13.549,10.057,4.961.272,5.5-5.518,6.047-7.73.263-1.064.748-2.014,2.035-1.82,1.164.173,1.359,1.186,1.388,2.173C23.676,15.34,20.75,20.5,13.924,20.5Z"/><path class="a" d="M16.647,4.993c2.4.175,2.335,5.883.285,5.807C14.906,10.724,14.738,4.856,16.647,4.993Z"/></svg>