<svg id="Light" xmlns="http://www.w3.org/2000/svg" viewBox="0 0 24 24"><defs><style>.cls-1{fill:none;stroke:#000;stroke-linecap:round;stroke-linejoin:round;}</style></defs><title>video-game-wii-rating</title><path class="cls-1" d="M12.465.787,13.492,3h2a.49.49,0,0,1,.346.855L14.1,5.566l.962,2.209a.523.523,0,0,1-.746.654L11.993,7.122,9.669,8.429a.523.523,0,0,1-.746-.654l.961-2.209L8.149,3.857A.489.489,0,0,1,8.492,3h2L11.522.787A.531.531,0,0,1,12.465.787Z"/><path class="cls-1" d="M7.2,8.99l-.584.574.962,2.209a.523.523,0,0,1-.746.654L4.507,11.12,2.183,12.427a.523.523,0,0,1-.746-.654L2.4,9.564.663,7.855A.489.489,0,0,1,1.006,7h2l1.03-2.215a.531.531,0,0,1,.943,0L6.006,7H7"/><path class="cls-1" d="M16.8,8.99l.584.574-.962,2.209a.523.523,0,0,0,.746.654l2.325-1.307,2.324,1.307a.523.523,0,0,0,.746-.654L21.6,9.564l1.736-1.709A.489.489,0,0,0,22.994,7h-2l-1.03-2.215a.531.531,0,0,0-.943,0L17.994,7H17"/><line class="cls-1" x1="5.5" y1="17" x2="5.5" y2="21"/><line class="cls-1" x1="7.5" y1="19" x2="3.5" y2="19"/><path class="cls-1" d="M17.75,16.75A.25.25,0,0,1,18,17"/><path class="cls-1" d="M17.5,17a.25.25,0,0,1,.25-.25"/><path class="cls-1" d="M17.75,17.25A.25.25,0,0,1,17.5,17"/><path class="cls-1" d="M18,17a.25.25,0,0,1-.25.25"/><path class="cls-1" d="M15.75,18.75A.25.25,0,0,1,16,19"/><path class="cls-1" d="M15.5,19a.25.25,0,0,1,.25-.25"/><path class="cls-1" d="M15.75,19.25A.25.25,0,0,1,15.5,19"/><path class="cls-1" d="M16,19a.25.25,0,0,1-.25.25"/><path class="cls-1" d="M17.75,20.75A.25.25,0,0,1,18,21"/><path class="cls-1" d="M17.5,21a.25.25,0,0,1,.25-.25"/><path class="cls-1" d="M17.75,21.25A.25.25,0,0,1,17.5,21"/><path class="cls-1" d="M18,21a.25.25,0,0,1-.25.25"/><path class="cls-1" d="M19.75,18.75A.25.25,0,0,1,20,19"/><path class="cls-1" d="M19.5,19a.25.25,0,0,1,.25-.25"/><path class="cls-1" d="M19.75,19.25A.25.25,0,0,1,19.5,19"/><path class="cls-1" d="M20,19a.25.25,0,0,1-.25.25"/><rect class="cls-1" x="1.5" y="14.5" width="21" height="9" rx="1" ry="1"/></svg>