<svg id="Light" xmlns="http://www.w3.org/2000/svg" viewBox="0 0 24 24"><defs><style>.cls-1{fill:none;stroke:#000;stroke-linecap:round;stroke-linejoin:round;}</style></defs><title>video-game-shwings</title><path class="cls-1" d="M12.436,6.648l-1.073-3.1a1,1,0,0,0-1.368-.579L4.338,5.609a1,1,0,0,0-.513,1.257L6.5,14,3.647,18.279a1,1,0,0,1-.385.34l-1.656.828A2,2,0,0,0,.5,21.236V21.5H5.421a2,2,0,0,0,1.068-.309l9.131-5.766"/><path class="cls-1" d="M6.262,4.711,9,12.152a3,3,0,0,1-.242,2.58L7.5,16.5"/><path class="cls-1" d="M15.118,14.533l1.041,1.852a1,1,0,0,1-.337,1.335L7.16,23.191a2,2,0,0,1-1.068.309H1.5a1,1,0,0,1-1-1v-1"/><line class="cls-1" x1="3.5" y1="8.5" x2="7.073" y2="6.912"/><line class="cls-1" x1="4.315" y1="10.582" x2="7.847" y2="9.013"/><line class="cls-1" x1="5.242" y1="12.892" x2="8.709" y2="11.352"/><path class="cls-1" d="M14.568,12.153a1.911,1.911,0,0,1,.179-3.313,2.45,2.45,0,0,1,2.965.347,3.018,3.018,0,0,1-1.069,4.977,3.8,3.8,0,0,1-4.091-.513,4.61,4.61,0,0,1-.9-5.989,6.216,6.216,0,0,1,5.021-2.9c2.383-.193,3.376-2.662,3.725-3.9a.5.5,0,0,1,.332-.341.5.5,0,0,1,.466.09,3.282,3.282,0,0,1,.6,4.985"/><path class="cls-1" d="M22.335,4.743A2,2,0,0,1,20.987,8.5"/><path class="cls-1" d="M21.928,8.515A2.005,2.005,0,0,1,20,11.061"/><path class="cls-1" d="M20,11.061a2,2,0,0,1-2,2.045"/></svg>