<svg xmlns="http://www.w3.org/2000/svg" viewBox="0 0 24 24"><defs><style>.a{fill:none;stroke:#000;stroke-linecap:round;stroke-linejoin:round;}</style></defs><title>video-projector-1</title><line class="a" x1="18.5" y1="12.5" x2="5.5" y2="12.5"/><line class="a" x1="1.5" y1="0.5" x2="22.5" y2="0.5"/><polygon class="a" points="10.5 3.5 10.5 9.5 16 6.5 10.5 3.5"/><path class="a" d="M7.605,17.711A2,2,0,0,0,6.5,19.5v2a1,1,0,0,0,1,1h11a1,1,0,0,0,1-1v-2a2,2,0,0,0-2-2h-1"/><circle class="a" cx="12" cy="17" r="2.5"/><path class="a" d="M12,16.75a.25.25,0,1,1-.25.25.25.25,0,0,1,.25-.25"/><line class="a" x1="7.5" y1="22.5" x2="7.5" y2="23.5"/><line class="a" x1="18.5" y1="22.5" x2="18.5" y2="23.5"/><line class="a" x1="6.5" y1="9.5" x2="4.5" y2="9.5"/><line class="a" x1="5.5" y1="6.5" x2="3.5" y2="6.5"/><line class="a" x1="4.5" y1="3.5" x2="2.5" y2="3.5"/><line class="a" x1="17.5" y1="9.5" x2="19.5" y2="9.5"/><line class="a" x1="18.5" y1="6.5" x2="20.5" y2="6.5"/><line class="a" x1="19.5" y1="3.5" x2="21.5" y2="3.5"/></svg>