<svg id="Light" xmlns="http://www.w3.org/2000/svg" viewBox="0 0 24 24"><defs><style>.cls-1{fill:none;stroke:#000;stroke-linecap:round;stroke-linejoin:round;}</style></defs><title>video-game-sonic-1</title><path class="cls-1" d="M11,21.047a6.993,6.993,0,0,0,5.817-3.106A4.746,4.746,0,0,1,20.523,19.9a.5.5,0,0,0,.873-.207c.838-3.274.182-5.5-.95-7.005a8.068,8.068,0,0,1,2.292,1.02.5.5,0,0,0,.739-.576c-1.412-4.552-4.34-5.921-7.061-6.163A7.073,7.073,0,0,1,18.9,4.919a.506.506,0,0,0-.023-.909C10.241.015,4.5,8.217,4.5,14.047v2"/><line class="cls-1" x1="0.5" y1="15.047" x2="2" y2="16.047"/><path class="cls-1" d="M7.5,19.547a3.229,3.229,0,0,0,2.5-1.5"/><path class="cls-1" d="M9.5,10.047V7.019a.5.5,0,0,1,.811-.391A8.775,8.775,0,0,1,13,10.047"/><path class="cls-1" d="M4.67,12.24a2,2,0,0,1,3.83.807v3"/><line class="cls-1" x1="6.5" y1="13.047" x2="6.5" y2="14.047"/><path class="cls-1" d="M11,21.047a2.5,2.5,0,0,0,0-5H2C2,21.047,8,21.047,11,21.047Z"/></svg>