<svg id="Light" xmlns="http://www.w3.org/2000/svg" viewBox="0 0 24 24"><defs><style>.cls-1{fill:none;stroke:#000;stroke-linecap:round;stroke-linejoin:round;}</style></defs><title>video-game-ping-pong</title><rect class="cls-1" x="0.5" y="0.5" width="23" height="23" rx="1" ry="1"/><line class="cls-1" x1="12" y1="0.5" x2="12" y2="3"/><line class="cls-1" x1="12" y1="5" x2="12" y2="7"/><line class="cls-1" x1="12" y1="9" x2="12" y2="11"/><line class="cls-1" x1="12" y1="13" x2="12" y2="15"/><line class="cls-1" x1="12" y1="17" x2="12" y2="19"/><line class="cls-1" x1="12" y1="21" x2="12" y2="23.5"/><path class="cls-1" d="M5.5,3.5a1,1,0,0,1,1-1h0a1,1,0,0,1,1,1h0a1.423,1.423,0,0,1-.312.89L5.5,6.5h2"/><path class="cls-1" d="M18.5,5.5a1,1,0,0,1-2,0v-2a1,1,0,0,1,2,0Z"/><path class="cls-1" d="M16.75,15.25a.25.25,0,0,1,.25.25"/><path class="cls-1" d="M16.5,15.5a.25.25,0,0,1,.25-.25"/><path class="cls-1" d="M16.75,15.75a.25.25,0,0,1-.25-.25"/><path class="cls-1" d="M17,15.5a.25.25,0,0,1-.25.25"/><line class="cls-1" x1="20.5" y1="9.5" x2="20.5" y2="15.5"/><line class="cls-1" x1="3.5" y1="12.5" x2="3.5" y2="18.5"/></svg>