<svg id="Light" xmlns="http://www.w3.org/2000/svg" viewBox="0 0 24 24"><defs><style>.cls-1{fill:none;stroke:#000;stroke-linecap:round;stroke-linejoin:round;}</style></defs><title>video-game-gamasutra-1</title><path class="cls-1" d="M5.5,16a.5.5,0,0,1-.5.5H1A.5.5,0,0,1,.5,16V10A.5.5,0,0,1,1,9.5H3A.5.5,0,0,0,3.5,9V5A.5.5,0,0,1,4,4.5H8A.5.5,0,0,0,8.5,4V2A.5.5,0,0,1,9,1.5h6a.5.5,0,0,1,.5.5V4a.5.5,0,0,0,.5.5h4a.5.5,0,0,1,.5.5V9a.5.5,0,0,0,.5.5h2a.5.5,0,0,1,.5.5v6a.5.5,0,0,1-.5.5H19a.5.5,0,0,1-.5-.5V14a.5.5,0,0,0-.5-.5H15a.5.5,0,0,0-.5.5v2a.5.5,0,0,1-.5.5H10a.5.5,0,0,1-.5-.5V14a.5.5,0,0,0-.5-.5H6a.5.5,0,0,0-.5.5Z"/><rect class="cls-1" x="6.5" y="7.5" width="4" height="3" rx="0.5" ry="0.5"/><rect class="cls-1" x="13.5" y="7.5" width="4" height="3" rx="0.5" ry="0.5"/><rect class="cls-1" x="10.5" y="19.5" width="3" height="3" rx="0.5" ry="0.5"/></svg>