<svg xmlns="http://www.w3.org/2000/svg" viewBox="0 0 24 24"><defs><style>.a{fill:none;stroke:#000;stroke-linecap:round;stroke-linejoin:round;}</style></defs><title>video-game-logo-starcraft</title><path class="a" d="M3.491,2.924a.5.5,0,0,1,.129-.8L6.761.553a.5.5,0,0,1,.471.013l3.016,1.723a.5.5,0,0,1,.252.434V23a.5.5,0,0,1-.819.386,16.541,16.541,0,0,1-4.065-4.641.985.985,0,0,1-.116-.467V5.14a.5.5,0,0,0-.146-.353Z"/><path class="a" d="M20.509,2.924a.5.5,0,0,0-.129-.8L17.239.553a.5.5,0,0,0-.471.013L13.752,2.289a.5.5,0,0,0-.252.434V23a.5.5,0,0,0,.819.386,16.541,16.541,0,0,0,4.065-4.641.985.985,0,0,0,.116-.467V5.14a.5.5,0,0,1,.146-.353Z"/></svg>