<svg xmlns="http://www.w3.org/2000/svg" viewBox="0 0 24 24"><defs><style>.a{fill:none;stroke:#000;stroke-linecap:round;stroke-linejoin:round;}</style></defs><title>vintage-man-moustache-1</title><path class="a" d="M11,10.361a1.089,1.089,0,0,0-1-.5,1.089,1.089,0,0,0-1,.5"/><path class="a" d="M15,10.361a1.089,1.089,0,0,0-1-.5,1.089,1.089,0,0,0-1,.5"/><path class="a" d="M13,12.361a1.536,1.536,0,0,0-1,.322,1.532,1.532,0,0,0-1-.322c-2.393,0-2.5,2.75-5.132,2.107a.257.257,0,0,0-.316.311c.411,1.582,3.182,1.582,3.948,1.582A3.047,3.047,0,0,0,12,15.126a3.05,3.05,0,0,0,2.5,1.235c.767,0,3.538,0,3.949-1.582a.257.257,0,0,0-.316-.311C15.5,15.111,15.393,12.361,13,12.361Z"/><path class="a" d="M5.945,8.371l.006.042c.021.154.044.3.068.448-.871.437-.6,2.4.477,2.889a1,1,0,0,1,.572.746,4.36,4.36,0,0,0,.723,1.74"/><path class="a" d="M16.209,14.237a4.364,4.364,0,0,0,.723-1.741,1,1,0,0,1,.572-.746c1.078-.49,1.348-2.452.477-2.889.027-.158.052-.322.074-.491"/><path class="a" d="M7.8,17.928a1,1,0,0,0-.587.047L3.1,19.616A4,4,0,0,0,.5,23.361"/><path class="a" d="M16.2,17.928a1,1,0,0,1,.587.047L20.9,19.616a4,4,0,0,1,2.6,3.745"/><path class="a" d="M6.1,6.238l.486-3.12A3,3,0,0,1,9.541.611h4.917a3,3,0,0,1,2.959,2.507l.485,3.12"/><path class="a" d="M2.5,5.611a45.6,45.6,0,0,0,19,0"/><path class="a" d="M13.246,23.361l-.764-2.8a.5.5,0,0,0-.964,0l-.764,2.8"/><line class="a" x1="17.312" y1="18.185" x2="15.358" y2="23.347"/><path class="a" d="M4.872,23.389l-1.065-.852a.5.5,0,0,1-.14-.6L5.139,18.8"/><path class="a" d="M19.128,23.389l1.065-.852a.5.5,0,0,0,.14-.6l-1.457-3.127"/><line class="a" x1="6.688" y1="18.185" x2="8.658" y2="23.389"/></svg>