<svg xmlns="http://www.w3.org/2000/svg" viewBox="0 0 24 24"><defs><style>.a{fill:none;stroke:#000;stroke-linecap:round;stroke-linejoin:round;}</style></defs><title>vintage-man-2</title><path class="a" d="M7.8,17.8a1.006,1.006,0,0,0-.587.047L3.1,19.483A4,4,0,0,0,.5,23.228"/><path class="a" d="M16.2,17.8a1.006,1.006,0,0,1,.587.047L20.9,19.483a4,4,0,0,1,2.6,3.745"/><path class="a" d="M10.5,13.244a1.967,1.967,0,0,0,1.358.5h.284a1.965,1.965,0,0,0,1.358-.5"/><path class="a" d="M11,10.244a1.089,1.089,0,0,0-1-.5,1.089,1.089,0,0,0-1,.5"/><path class="a" d="M15,10.244a1.089,1.089,0,0,0-1-.5,1.089,1.089,0,0,0-1,.5"/><path class="a" d="M5.6,9.228a2.062,2.062,0,0,0,.892,2.4,1,1,0,0,1,.572.746c.442,2.644,3.545,4.365,4.932,4.365s4.49-1.721,4.932-4.365a1,1,0,0,1,.572-.746,2.066,2.066,0,0,0,.9-2.386"/><path class="a" d="M2.5,4.244c0,4.667,19,4.667,19,0"/><path class="a" d="M17.948,7.044,16.574,1.8A1.5,1.5,0,0,0,14.345.973l-1.285.8a2,2,0,0,1-2.12,0L9.655.973A1.5,1.5,0,0,0,7.426,1.8L6.052,7.044"/><path class="a" d="M12,4.994a.25.25,0,1,1-.25.25.25.25,0,0,1,.25-.25"/><path class="a" d="M13.246,23.228l-.764-2.8a.5.5,0,0,0-.964,0l-.764,2.8"/><line class="a" x1="17.312" y1="18.052" x2="15.358" y2="23.214"/><path class="a" d="M4.872,23.256,3.807,22.4a.5.5,0,0,1-.14-.6l1.464-3.13"/><path class="a" d="M19.128,23.256l1.065-.852a.5.5,0,0,0,.14-.6l-1.476-3.135"/><line class="a" x1="6.688" y1="18.052" x2="8.658" y2="23.256"/></svg>