<svg xmlns="http://www.w3.org/2000/svg" viewBox="0 0 24 24"><defs><style>.a{fill:none;stroke:#000;stroke-linecap:round;stroke-linejoin:round;}</style></defs><title>vintage-car</title><circle class="a" cx="4.5" cy="17.059" r="3"/><line class="a" x1="4.5" y1="17.059" x2="4.5" y2="14.059"/><line class="a" x1="4.5" y1="17.059" x2="1.647" y2="16.132"/><line class="a" x1="4.5" y1="17.059" x2="2.737" y2="19.486"/><line class="a" x1="4.5" y1="17.059" x2="6.263" y2="19.486"/><line class="a" x1="4.5" y1="17.059" x2="7.353" y2="16.132"/><circle class="a" cx="19.5" cy="17.059" r="3"/><line class="a" x1="19.5" y1="17.059" x2="19.5" y2="14.059"/><line class="a" x1="19.5" y1="17.059" x2="16.647" y2="16.132"/><line class="a" x1="19.5" y1="17.059" x2="17.737" y2="19.486"/><line class="a" x1="19.5" y1="17.059" x2="21.263" y2="19.486"/><line class="a" x1="19.5" y1="17.059" x2="22.353" y2="16.132"/><path class="a" d="M.5,14.059a5,5,0,0,1,9,3h4.522a.5.5,0,0,0,.5-.455,5,5,0,0,1,8.98-2.545"/><polyline class="a" points="14.5 14.98 14.5 6.059 8.5 6.059 8.5 11.314"/><path class="a" d="M21.134,12.332a1,1,0,0,0,.366-.773,1.5,1.5,0,0,0-1.5-1.5H18.5a2,2,0,0,0-1.806,2.861"/><path class="a" d="M8.5,6.059A1.772,1.772,0,0,1,9.98,4.312l2.054-.342A2.118,2.118,0,0,1,14.5,6.059"/><line class="a" x1="2.5" y1="12.475" x2="2.5" y2="9.059"/><path class="a" d="M2.5,10.059h2a7,7,0,0,1,6.71,5H14.5"/><path class="a" d="M10.245,13.059H12a.5.5,0,0,0,.5-.5v-1.5a1,1,0,0,1,1-1h1"/></svg>