<svg xmlns="http://www.w3.org/2000/svg" viewBox="0 0 24 24"><defs><style>.a{fill:none;stroke:#000;stroke-linecap:round;stroke-linejoin:round;}</style></defs><title>vintage-car-8</title><path class="a" d="M8,13.5c-8.5-5.5-8.5,6-3.69,6H8Z"/><path class="a" d="M16,13.5c8.5-5.5,8.5,6,3.69,6H16Z"/><path class="a" d="M8,13.5l3.7-2.775a.5.5,0,0,1,.6,0L16,13.5"/><line class="a" x1="16" y1="19.5" x2="8" y2="19.5"/><circle class="a" cx="19.5" cy="15" r="1"/><circle class="a" cx="4.5" cy="15" r="1"/><line class="a" x1="10" y1="12" x2="10" y2="19.5"/><line class="a" x1="12" y1="10.625" x2="12" y2="19.5"/><line class="a" x1="14" y1="12" x2="14" y2="19.5"/><path class="a" d="M4,19.5V21a.5.5,0,0,0,.5.5h2A.5.5,0,0,0,7,21V19.5"/><path class="a" d="M17,19.5V21a.5.5,0,0,0,.5.5h2A.5.5,0,0,0,20,21V19.5"/><path class="a" d="M4,10.1V6.5a4,4,0,0,1,4-4h8a4,4,0,0,1,4,4v3.6"/><path class="a" d="M20.939,12.147a3.743,3.743,0,0,0-3.4-3.264,40.681,40.681,0,0,0-11.082,0,3.745,3.745,0,0,0-3.4,3.264"/><path class="a" d="M4,7.5H2.5a1.5,1.5,0,0,0,0,3H3.674"/><path class="a" d="M20,7.5h1.5a1.5,1.5,0,0,1,0,3H20.326"/></svg>