<svg xmlns="http://www.w3.org/2000/svg" viewBox="0 0 24 24"><defs><style>.a{fill:none;stroke:#000;stroke-linecap:round;stroke-linejoin:round;}</style></defs><title>vintage-car-luggage</title><line class="a" x1="16.771" y1="19.5" x2="6.228" y2="19.5"/><path class="a" d="M2.533,18.855l-1.2-.8A1.869,1.869,0,0,1,.5,16.5v-2a2.08,2.08,0,0,1,.781-1.625l3.438-2.75A2.85,2.85,0,0,1,6.5,9.5h5l4,4,7.509,1.408a.628.628,0,0,1,.491.592V17a.839.839,0,0,1-.457.7l-2.572,1.143"/><circle class="a" cx="18.5" cy="18.5" r="2"/><circle class="a" cx="4.5" cy="18.5" r="2"/><line class="a" x1="7.5" y1="13.5" x2="0.756" y2="13.5"/><polyline class="a" points="7.5 9.5 7.5 13.5 9 19.5"/><line class="a" x1="2" y1="15.5" x2="0.5" y2="15.5"/><line class="a" x1="15.5" y1="13.5" x2="14.5" y2="19.5"/><line class="a" x1="15.333" y1="14.5" x2="12.5" y2="14.5"/><line class="a" x1="12.5" y1="13.5" x2="12.5" y2="15.5"/><path class="a" d="M12.5,19.5v-1a1,1,0,0,0-1-1h-3"/><line class="a" x1="7.5" y1="6.5" x2="7.5" y2="9.5"/><line class="a" x1="11.5" y1="9.5" x2="13" y2="6.5"/><path class="a" d="M7.5,6.5h7a.889.889,0,0,0,.724-.447L15.5,5.5l.9-.3a.872.872,0,0,0-.276-1.7H7a.339.339,0,0,0-.342.474Z"/></svg>