<svg xmlns="http://www.w3.org/2000/svg" viewBox="0 0 24 24"><defs><style>.a{fill:none;stroke:#000;stroke-linecap:round;stroke-linejoin:round;}</style></defs><title>vintage-woman-1</title><path class="a" d="M.5,23.5a4,4,0,0,1,2.6-3.745l3.782-1.507a.5.5,0,0,1,.683.419L8,23.5"/><line class="a" x1="18" y1="23.5" x2="20.5" y2="23.5"/><line class="a" x1="10.5" y1="23.5" x2="12" y2="19"/><path class="a" d="M23.5,23.5a4,4,0,0,0-2.6-3.745l-3.782-1.507a.5.5,0,0,0-.683.419L16,23.5"/><line class="a" x1="13.5" y1="23.5" x2="12" y2="19"/><path class="a" d="M11,10a1.089,1.089,0,0,0-1-.5A1.089,1.089,0,0,0,9,10"/><path class="a" d="M15,10a1.089,1.089,0,0,0-1-.5,1.089,1.089,0,0,0-1,.5"/><path class="a" d="M2,6.4a46.086,46.086,0,0,0,20,0"/><path class="a" d="M17.932,7.117l-.568-4.036A3,3,0,0,0,14.393.5H9.607A3,3,0,0,0,6.636,3.081L6.068,7.117"/><path class="a" d="M10.52,13.75a1.967,1.967,0,0,0,1.359.5h.283a1.965,1.965,0,0,0,1.358-.5"/><path class="a" d="M5.732,11.545a5.173,5.173,0,0,1-1.961,3.173.5.5,0,0,0-.041.831,4.427,4.427,0,0,0,2.915.932"/><path class="a" d="M18.309,11.545a5.164,5.164,0,0,0,1.961,3.173.5.5,0,0,1,.04.831,4.425,4.425,0,0,1-2.915.932"/><path class="a" d="M5.85,7.088A12.914,12.914,0,0,0,6.039,9.5c-.871.437-.6,2.4.478,2.889a1,1,0,0,1,.572.746C7.53,15.779,10.633,17.5,12.02,17.5s4.49-1.721,4.932-4.365a1,1,0,0,1,.572-.746C18.6,11.9,18.872,9.937,18,9.5a12.977,12.977,0,0,0,.188-2.418"/></svg>