<svg xmlns="http://www.w3.org/2000/svg" viewBox="0 0 24 24"><defs><style>.a{fill:none;stroke:#000;stroke-linecap:round;stroke-linejoin:round;}</style></defs><title>vintage-man-2</title><path class="a" d="M13.5,12a2.5,2.5,0,0,1-3,0"/><path class="a" d="M14,9.25a.25.25,0,1,1-.25.25A.25.25,0,0,1,14,9.25"/><path class="a" d="M10,9.25a.25.25,0,1,1-.25.25A.25.25,0,0,1,10,9.25"/><path class="a" d="M2.5,4c0,4.667,19,4.667,19,0"/><path class="a" d="M18,7,16.574,1.56A1.5,1.5,0,0,0,14.345.729l-1.285.8a2,2,0,0,1-2.12,0L9.655.729a1.5,1.5,0,0,0-2.229.831L6,7V9.5a6,6,0,0,0,12,0Z"/><path class="a" d="M12,4.75a.25.25,0,1,1-.25.25A.25.25,0,0,1,12,4.75"/><path class="a" d="M23,23.5V21.394a1.976,1.976,0,0,0-.77-1.579C20.9,18.8,17.73,17,12,17S3.105,18.8,1.77,19.815A1.976,1.976,0,0,0,1,21.394V23.5"/><path class="a" d="M13.5,23.5l-1.018-3.731a.5.5,0,0,0-.964,0L10.5,23.5"/><line class="a" x1="17.241" y1="17.582" x2="15" y2="23.5"/><path class="a" d="M6,23.5,3.807,21.746a.5.5,0,0,1-.14-.6l1.438-3.072"/><path class="a" d="M18,23.5l2.193-1.754a.5.5,0,0,0,.14-.6L18.9,18.071"/><line class="a" x1="6.759" y1="17.582" x2="9" y2="23.5"/></svg>