<svg xmlns="http://www.w3.org/2000/svg" viewBox="0 0 24 24"><defs><style>.a{fill:none;stroke:#000;stroke-linecap:round;stroke-linejoin:round;}</style></defs><title>vintage-man-moustache-2</title><path class="a" d="M14,8.5a.25.25,0,1,1-.25.25A.25.25,0,0,1,14,8.5"/><path class="a" d="M10,8.5a.25.25,0,1,1-.25.25A.25.25,0,0,1,10,8.5"/><path class="a" d="M6,7.114V8.75A5.972,5.972,0,0,0,7.42,12.622"/><path class="a" d="M16.586,12.622A5.972,5.972,0,0,0,18,8.75V7.114"/><path class="a" d="M13.5,10.5a1.991,1.991,0,0,0-1.5.678,1.991,1.991,0,0,0-1.5-.678c-2.464,0-1.528,2.913-5.806,2.52a.125.125,0,0,0-.135.163C4.792,13.759,5.83,15.5,10,15.5a2.353,2.353,0,0,0,2-1.208A2.351,2.351,0,0,0,14,15.5c4.173,0,5.211-1.741,5.441-2.317a.125.125,0,0,0-.135-.163C15.031,13.413,15.966,10.5,13.5,10.5Z"/><path class="a" d="M2.5,6.5a45.636,45.636,0,0,0,19,0"/><path class="a" d="M23,23.5V21.394a1.976,1.976,0,0,0-.77-1.579C20.9,18.8,17.733,17,12,17s-8.895,1.8-10.23,2.815A1.976,1.976,0,0,0,1,21.394V23.5"/><path class="a" d="M13.5,23.5l-1.018-3.731a.5.5,0,0,0-.964,0L10.5,23.5"/><line class="a" x1="17.244" y1="17.582" x2="15.003" y2="23.5"/><path class="a" d="M6,23.5,3.81,21.746a.5.5,0,0,1-.14-.6l1.438-3.072"/><path class="a" d="M18,23.5,20.2,21.746a.5.5,0,0,0,.14-.6L18.9,18.071"/><line class="a" x1="6.762" y1="17.582" x2="9.003" y2="23.5"/><path class="a" d="M18.279,7.075A8.693,8.693,0,0,1,17.328,3.5a9.951,9.951,0,0,1,.159-1.833A.991.991,0,0,0,16.5.5h-9a.991.991,0,0,0-.984,1.167A9.951,9.951,0,0,1,6.678,3.5a8.693,8.693,0,0,1-.951,3.575"/><path class="a" d="M6.634,4.191a46.912,46.912,0,0,0,10.738,0"/></svg>