<svg xmlns="http://www.w3.org/2000/svg" viewBox="0 0 24 24"><defs><style>.a{fill:none;stroke:#000;stroke-linecap:round;stroke-linejoin:round;}</style></defs><title>virtual-home</title><path class="a" d="M9.55,17.5H8.5a2,2,0,0,0-2,2v2h13v-2a2,2,0,0,0-2-2H14.45"/><circle class="a" cx="12" cy="17" r="2.5"/><polygon class="a" points="10.5 5.5 10.5 10.5 15 8 10.5 5.5"/><polyline class="a" points="17.5 6.5 17.5 12.5 6.5 12.5 6.5 6.5"/><polyline class="a" points="4.5 6 12 0.5 19.5 6"/><line class="a" x1="7.5" y1="21.5" x2="7.5" y2="23.5"/><line class="a" x1="18.5" y1="21.5" x2="18.5" y2="23.5"/><polygon class="a" points="10.5 5.5 10.5 10.5 15 8 10.5 5.5"/><path class="a" d="M12,16.75a.25.25,0,1,1-.25.25.25.25,0,0,1,.25-.25"/><polyline class="a" points="17.5 6.5 17.5 12.5 6.5 12.5 6.5 6.5"/><polyline class="a" points="4.5 6 12 0.5 19.5 6"/></svg>