<svg xmlns="http://www.w3.org/2000/svg" viewBox="0 0 24 24"><defs><style>.a{fill:none;stroke:#000;stroke-linecap:round;stroke-linejoin:round;}</style></defs><title>virtual-box</title><line class="a" x1="7" y1="3.601" x2="7" y2="9.258"/><polygon class="a" points="11.5 6.343 7.015 3.601 11.5 0.5 16 3.601 11.5 6.343"/><polyline class="a" points="16 9.258 11.5 12 7.015 9.258"/><line class="a" x1="16" y1="3.601" x2="16" y2="9.258"/><line class="a" x1="11.5" y1="6.343" x2="11.5" y2="12"/><line class="a" x1="7" y1="3.601" x2="7" y2="9.258"/><polygon class="a" points="11.5 6.343 7.015 3.601 11.5 0.5 16 3.601 11.5 6.343"/><polyline class="a" points="16 9.258 11.5 12 7.015 9.258"/><line class="a" x1="16" y1="3.601" x2="16" y2="9.258"/><line class="a" x1="11.5" y1="6.343" x2="11.5" y2="12"/><line class="a" x1="15.5" y1="17" x2="20" y2="12.5"/><line class="a" x1="7.5" y1="17" x2="3" y2="12.5"/><path class="a" d="M9.05,19.5H8.5a2,2,0,0,0-2,2v1a1,1,0,0,0,1,1h11a1,1,0,0,0,1-1v-1a2,2,0,0,0-2-2H13.95"/><circle class="a" cx="11.5" cy="19" r="2.5"/><path class="a" d="M11.5,18.75a.25.25,0,1,1-.25.25.25.25,0,0,1,.25-.25"/></svg>