<svg id="Light" xmlns="http://www.w3.org/2000/svg" viewBox="0 0 24 24"><defs><style>.cls-1{fill:none;stroke:#000;stroke-linecap:round;stroke-linejoin:round;}</style></defs><title>volleyball-smash</title><circle class="cls-1" cx="14.017" cy="5.092" r="2.231"/><circle class="cls-1" cx="3.5" cy="3.5" r="3"/><path class="cls-1" d="M22.568,17.937l-.539-.09a9.679,9.679,0,0,1-2.974-1.022,2.2,2.2,0,0,1-1.133-1.948V10.419l1.355-.739a4.462,4.462,0,0,0,2.057-5.443l-1.092-3a1.116,1.116,0,0,0-2.1.762l1.092,3a2.232,2.232,0,0,1-1.029,2.721l-2.014,1.1A13.087,13.087,0,0,1,13.1,10.028a13.044,13.044,0,0,1-5.028.259l-.381-.06a1.116,1.116,0,1,0-.376,2.2c.147.025.295.048.443.069a15.3,15.3,0,0,0,2.175.156,15.265,15.265,0,0,0,3.527-.425v4.878a7.811,7.811,0,0,0,.631,3.074l1.133,2.644a1.116,1.116,0,1,0,2.051-.879L16.142,19.3a5.554,5.554,0,0,1-.438-2.061l.414.331a12.053,12.053,0,0,0,5.544,2.476l.539.089a1.115,1.115,0,1,0,.367-2.2Z"/></svg>