<svg id="Light" xmlns="http://www.w3.org/2000/svg" viewBox="0 0 24 24"><defs><style>.cls-1{fill:none;stroke:#000;stroke-linecap:round;stroke-linejoin:round;}</style></defs><title>volleyball-net</title><line class="cls-1" x1="1.5" y1="16" x2="1.5" y2="20.099"/><line class="cls-1" x1="21.5" y1="16" x2="21.5" y2="19.5"/><rect class="cls-1" x="1.5" y="7" width="20" height="9"/><line class="cls-1" x1="1.5" y1="10" x2="21.5" y2="10"/><line class="cls-1" x1="1.5" y1="13" x2="21.5" y2="13"/><line class="cls-1" x1="1.5" y1="7.5" x2="1.5" y2="16"/><line class="cls-1" x1="5.5" y1="7" x2="5.5" y2="16"/><line class="cls-1" x1="9.5" y1="7" x2="9.5" y2="16"/><line class="cls-1" x1="13.5" y1="7" x2="13.5" y2="16"/><line class="cls-1" x1="17.5" y1="7" x2="17.5" y2="16"/><path class="cls-1" d="M.5,23A11.09,11.09,0,0,1,7,21a8.76,8.76,0,0,1,6,2"/><path class="cls-1" d="M12.084,22.323A11.637,11.637,0,0,1,17.5,21a8.76,8.76,0,0,1,6,2"/><circle class="cls-1" cx="18.5" cy="3" r="2"/></svg>