<svg xmlns="http://www.w3.org/2000/svg" viewBox="0 0 24 24"><defs><style>.a{fill:none;stroke:#000;stroke-linecap:round;stroke-linejoin:round;}</style></defs><title>vr-play-device-1</title><path class="a" d="M14.5,21.5a2,2,0,0,1-2,2H10a1,1,0,0,1-.8-.4l-.9-1.2a1,1,0,0,0-1.6,0l-.9,1.2a1,1,0,0,1-.8.4H2.5a2,2,0,0,1-2-2v-3a2,2,0,0,1,2-2h10a2,2,0,0,1,2,2Z"/><circle class="a" cx="4" cy="20" r="1.5"/><circle class="a" cx="11" cy="20" r="1.5"/><path class="a" d="M14.5,18.5V13.736a1.236,1.236,0,0,0-2.342-.552,2.38,2.38,0,0,1-2.13,1.316H4.972a2.38,2.38,0,0,1-2.13-1.316A1.236,1.236,0,0,0,.5,13.736V18.5"/><path class="a" d="M13.5,5.225a.537.537,0,0,1,.814-.461l4.925,2.275a.538.538,0,0,1,0,.922l-4.925,2.275a.537.537,0,0,1-.814-.461Z"/><path class="a" d="M9.5,10.5v-9a1,1,0,0,1,1-1h12a1,1,0,0,1,1,1v12a1,1,0,0,1-1,1h-6"/></svg>