<svg xmlns="http://www.w3.org/2000/svg" viewBox="0 0 24 24"><defs><style>.a{fill:none;stroke:#000;stroke-linecap:round;stroke-linejoin:round;}</style></defs><title>vr-play-device</title><rect class="a" x="0.5" y="17.5" width="13" height="6" rx="1.5" ry="1.5"/><path class="a" d="M.5,19a4.087,4.087,0,0,1,.121-.985L1.5,14.5H3a3.411,3.411,0,0,0,2.414,1H8.586A3.411,3.411,0,0,0,11,14.5h1.5l.879,3.515A4.087,4.087,0,0,1,13.5,19"/><line class="a" x1="0.5" y1="20.5" x2="2.5" y2="20.5"/><line class="a" x1="11.5" y1="20.5" x2="13.5" y2="20.5"/><path class="a" d="M13.5,5.225a.537.537,0,0,1,.814-.461l4.925,2.275a.538.538,0,0,1,0,.922l-4.925,2.275a.537.537,0,0,1-.814-.461Z"/><path class="a" d="M9.5,12V1.5a1,1,0,0,1,1-1h12a1,1,0,0,1,1,1v12a1,1,0,0,1-1,1H15"/></svg>