<svg xmlns="http://www.w3.org/2000/svg" viewBox="0 0 24 24"><defs><style>.a{fill:none;stroke:#000;stroke-linecap:round;stroke-linejoin:round;}</style></defs><title>vr-user-headphones</title><path class="a" d="M1.5,12.5h1a0,0,0,0,1,0,0v5a0,0,0,0,1,0,0h-1a1,1,0,0,1-1-1v-3A1,1,0,0,1,1.5,12.5Z"/><path class="a" d="M22.5,12.5h1a0,0,0,0,1,0,0v5a0,0,0,0,1,0,0h-1a1,1,0,0,1-1-1v-3A1,1,0,0,1,22.5,12.5Z" transform="translate(45 30) rotate(180)"/><path class="a" d="M19.5,16.5a2,2,0,0,1-2,2h-3a1,1,0,0,1-.8-.4l-.9-1.2a1,1,0,0,0-1.6,0l-.9,1.2a1,1,0,0,1-.8.4h-3a2,2,0,0,1-2-2v-3a2,2,0,0,1,2-2h11a2,2,0,0,1,2,2Z"/><line class="a" x1="9" y1="13.5" x2="15" y2="13.5"/><path class="a" d="M17.2,11.51a6,6,0,0,0-10.406,0"/><path class="a" d="M8.337,20.25a5.992,5.992,0,0,0,7.326,0"/><path class="a" d="M2.5,12.5V12a9.5,9.5,0,0,1,19,0v.5"/></svg>