<svg xmlns="http://www.w3.org/2000/svg" viewBox="0 0 24 24"><defs><style>.a{fill:none;stroke:#000;stroke-linecap:round;stroke-linejoin:round;}</style></defs><title>vr-user-laptop</title><path class="a" d="M11.3,10.49a6,6,0,0,0,10.406,0"/><path class="a" d="M23.5,8.5a2,2,0,0,1-2,2H19a1,1,0,0,1-.8-.4l-.9-1.2a1,1,0,0,0-1.6,0l-.9,1.2a1,1,0,0,1-.8.4H11.5a2,2,0,0,1-2-2v-3a2,2,0,0,1,2-2h10a2,2,0,0,1,2,2Z"/><line class="a" x1="13.5" y1="5.5" x2="19.5" y2="5.5"/><path class="a" d="M21.7,3.51a6,6,0,0,0-10.406,0"/><path class="a" d="M.5,21.5a1.959,1.959,0,0,0,2,2h7a1.959,1.959,0,0,0,2-2Z"/><path class="a" d="M2.5,15.5h7a1,1,0,0,1,1,1v5a0,0,0,0,1,0,0h-9a0,0,0,0,1,0,0v-5A1,1,0,0,1,2.5,15.5Z"/><path class="a" d="M3.5,13.5v-1a1,1,0,0,1,1-1,1,1,0,0,0,0-2h-3a1,1,0,0,1,0-2h6"/></svg>