<svg xmlns="http://www.w3.org/2000/svg" viewBox="0 0 24 24"><defs><style>.a{fill:none;stroke:#000;stroke-linecap:round;stroke-linejoin:round;}</style></defs><title>vr-video-1</title><polyline class="a" points="1.5 7.626 7.5 9.876 13.5 7.626 13.5 11.5"/><polygon class="a" points="3.928 5.429 0.5 2 1.914 0.586 5.343 4.014 6.403 6.489 3.928 5.429"/><line class="a" x1="8.16" y1="5.81" x2="13.5" y2="7.626"/><polyline class="a" points="9.5 15.876 7.5 16.626 1.5 14.376 1.5 7.626 3 7.16"/><line class="a" x1="7.5" y1="9.836" x2="7.5" y2="16.586"/><path class="a" d="M23.5,21.5a2,2,0,0,1-2,2H19a1,1,0,0,1-.8-.4l-.9-1.2a1,1,0,0,0-1.6,0l-.9,1.2a1,1,0,0,1-.8.4H11.5a2,2,0,0,1-2-2v-3a2,2,0,0,1,2-2h10a2,2,0,0,1,2,2Z"/><circle class="a" cx="13" cy="20" r="1.5"/><circle class="a" cx="20" cy="20" r="1.5"/><path class="a" d="M23.5,18.5V13.736a1.236,1.236,0,0,0-2.342-.552,2.38,2.38,0,0,1-2.13,1.316H13.972a2.38,2.38,0,0,1-2.13-1.316,1.236,1.236,0,0,0-2.342.552V18.5"/></svg>