<svg id="Light" xmlns="http://www.w3.org/2000/svg" viewBox="0 0 24 24"><defs><style>.cls-1{fill:none;stroke:#000;stroke-linecap:round;stroke-linejoin:round;}</style></defs><title>waiting-room-lamp</title><circle class="cls-1" cx="7.5" cy="6.999" r="2.5"/><path class="cls-1" d="M14.953,23.5l-.219-2.628A1.509,1.509,0,0,0,13.239,19.5H10.352a3.517,3.517,0,0,1-3.481-3.143L6.525,13.27a1.5,1.5,0,1,1,2.951-.546l.358,3.154c.009.053.016.1.02.157a.5.5,0,0,0,.5.462H13.24a4.527,4.527,0,0,1,4.485,4.126l.239,2.865"/><path class="cls-1" d="M1.5,13.5H3.158a1,1,0,0,1,.985.83l.688,3.994A4,4,0,0,0,8.745,21.5H12.5l.25,2"/><line class="cls-1" x1="19" y1="0.498" x2="19" y2="2.998"/><path class="cls-1" d="M15.5,6.5a3.5,3.5,0,0,1,7,0V7a.5.5,0,0,1-.5.5H16a.5.5,0,0,1-.5-.5Z"/></svg>