<svg id="Light" xmlns="http://www.w3.org/2000/svg" viewBox="0 0 24 24"><defs><style>.cls-1{fill:none;stroke:#000;stroke-linecap:round;stroke-linejoin:round;}</style></defs><title>waiting-room-clock</title><circle class="cls-1" cx="6" cy="4" r="2.5"/><path class="cls-1" d="M15.624,23.5c-.042,0-.084,0-.126,0a1.5,1.5,0,0,1-1.493-1.376l-.271-3.249A1.509,1.509,0,0,0,12.239,17.5H9.352a3.516,3.516,0,0,1-3.481-3.142l-.847-4.087a1.5,1.5,0,0,1,2.951-.545l.858,4.154c.009.053.016.1.02.157a.5.5,0,0,0,.5.462h2.887a4.527,4.527,0,0,1,4.485,4.126L17,21.875A1.5,1.5,0,0,1,15.624,23.5Z"/><path class="cls-1" d="M.5,10.5H1.7a1,1,0,0,1,.975.777l1.154,5.047A4,4,0,0,0,7.746,19.5h2.872a1,1,0,0,1,.992.876l.25,2a1,1,0,0,1-.993,1.124H.5"/><circle class="cls-1" cx="19.5" cy="4.5" r="4"/><polyline class="cls-1" points="19.5 2.5 19.5 4.5 21 6"/></svg>