<svg id="Light" xmlns="http://www.w3.org/2000/svg" viewBox="0 0 24 24"><defs><style>.cls-1{fill:none;stroke:#000;stroke-linecap:round;stroke-linejoin:round;}</style></defs><title>walking</title><circle class="cls-1" cx="11.369" cy="3" r="2.5"/><path class="cls-1" d="M18.029,10.8l-1.1-.368a5.506,5.506,0,0,1-1.565-.819l-1.016-.763a5.7,5.7,0,0,0-5.963-.539h0A6.318,6.318,0,0,0,4.87,13.88,1.558,1.558,0,0,0,6,15.449a1.5,1.5,0,0,0,1.866-1.382,3.473,3.473,0,0,1,1.8-3.047l.2-.1v1.774a19.427,19.427,0,0,1-.463,4.218h0A10.462,10.462,0,0,1,7.193,21.06,1.5,1.5,0,0,0,9.54,22.929a15.35,15.35,0,0,0,2.689-5.184,12.7,12.7,0,0,1,2.717,4.721,1.5,1.5,0,1,0,2.846-.948,15.344,15.344,0,0,0-4.568-6.965.99.99,0,0,1-.355-.753V11.492l.691.518a8.5,8.5,0,0,0,2.418,1.267l1.176.392a1.5,1.5,0,0,0,1.959-1.2A1.553,1.553,0,0,0,18.029,10.8Z"/></svg>