<svg xmlns="http://www.w3.org/2000/svg" viewBox="0 0 24 24"><defs><style>.a{fill:none;stroke:#000;stroke-linecap:round;stroke-linejoin:round;}</style></defs><title>warehouse-cart-packages-2</title><circle class="a" cx="16" cy="21.5" r="1.5"/><circle class="a" cx="5" cy="21.5" r="1.5"/><path class="a" d="M23.5,1h-.611a1,1,0,0,0-.993.883L20.1,17.117a1,1,0,0,1-.993.883H.5"/><path class="a" d="M10.5,12h-8a1,1,0,0,0-1,1v2a1,1,0,0,0,1,1h8Z"/><path class="a" d="M8.5,10a1,1,0,0,0-1-1h-4a1,1,0,0,0-1,1v2h6Z"/><path class="a" d="M17.5,6a1,1,0,0,0-1-1h-5a1,1,0,0,0-1,1V16h6a1,1,0,0,0,1-1Z"/></svg>