<svg xmlns="http://www.w3.org/2000/svg" viewBox="0 0 24 24"><defs><style>.a{fill:none;stroke:#000;stroke-linecap:round;stroke-linejoin:round;}</style></defs><title>warehouse-storage</title><path class="a" d="M1,9V20a1,1,0,0,0,1,1H22a1,1,0,0,0,1-1V9"/><path class="a" d="M23,9H1S1,3,12,3,23,9,23,9Z"/><path class="a" d="M18,21H12V16h5.5a.5.5,0,0,1,.5.5Z"/><line class="a" x1="15" y1="16" x2="15" y2="18"/><path class="a" d="M12,21H6V16.5a.5.5,0,0,1,.5-.5H12Z"/><line class="a" x1="9" y1="16" x2="9" y2="18"/><path class="a" d="M15,16H9V12.5a.5.5,0,0,1,.5-.5h5a.5.5,0,0,1,.5.5Z"/><line class="a" x1="12" y1="12" x2="12" y2="14"/><line class="a" x1="10.5" y1="6" x2="13.5" y2="6"/></svg>