<svg xmlns="http://www.w3.org/2000/svg" viewBox="0 0 24 24"><defs><style>.a{fill:none;stroke:#000;stroke-linecap:round;stroke-linejoin:round;}</style></defs><title>warehouse-truck-delivery-1</title><path class="a" d="M20.75,12V8a1,1,0,0,0-1-1H16.812a3,3,0,0,0-2.458,1.28l-2.062,2.945a3,3,0,0,0-.542,1.721V16"/><line class="a" x1="19.25" y1="18" x2="16.2" y2="18"/><path class="a" d="M14.946,15.3l3.011-3.011A1,1,0,0,1,18.664,12H21.75a1,1,0,0,1,1,1v3.677"/><circle class="a" cx="13.75" cy="17.5" r="2.5"/><circle class="a" cx="21.25" cy="18" r="2"/><path class="a" d="M8.75,4V19a1,1,0,0,1-1,1h-5"/><rect class="a" x="0.75" y="12" width="6" height="6" rx="1" ry="1"/><line class="a" x1="3.75" y1="16" x2="5.25" y2="16"/></svg>