<svg xmlns="http://www.w3.org/2000/svg" viewBox="0 0 24 24"><defs><style>.a{fill:none;stroke:#000;stroke-linecap:round;stroke-linejoin:round;}</style></defs><title>warehouse-1</title><path class="a" d="M.5,5V7a.5.5,0,0,0,.5.5H23a.5.5,0,0,0,.5-.5V5C19.06.354,4.969.325.5,5Z"/><line class="a" x1="1.5" y1="22.496" x2="1.5" y2="7.496"/><line class="a" x1="22.5" y1="7.496" x2="22.5" y2="22.496"/><path class="a" d="M4.5,22.5v-11a1,1,0,0,1,1-1h13a1,1,0,0,1,1,1v11"/><line class="a" x1="4.5" y1="13.496" x2="19.5" y2="13.496"/><line class="a" x1="4.5" y1="16.496" x2="19.5" y2="16.496"/><line class="a" x1="4.5" y1="19.496" x2="19.5" y2="19.496"/><line class="a" x1="0.5" y1="22.496" x2="23.5" y2="22.496"/><line class="a" x1="10.25" y1="4.5" x2="13.75" y2="4.5"/></svg>