<svg xmlns="http://www.w3.org/2000/svg" viewBox="0 0 24 24"><defs><style>.a{fill:none;stroke:#000;stroke-linecap:round;stroke-linejoin:round;}</style></defs><title>warehouse-cart-packages-1</title><circle class="a" cx="5.5" cy="21.875" r="1.5"/><circle class="a" cx="19.5" cy="21.875" r="1.5"/><path class="a" d="M4.219,17.717a.5.5,0,0,0,.475.658H20a1,1,0,0,0,1-1v-13a1,1,0,0,0-1-1H9Z"/><path class="a" d="M9,3.375l.185-.741A1.617,1.617,0,0,0,8.34.8h0A1.619,1.619,0,0,0,6.719.9L6,1.375"/><path class="a" d="M9.5,12.375H15a0,0,0,0,1,0,0v6a0,0,0,0,1,0,0H9a0,0,0,0,1,0,0v-5.5A.5.5,0,0,1,9.5,12.375Z"/><path class="a" d="M15,11.375h3.5a.5.5,0,0,1,.5.5v6.5a0,0,0,0,1,0,0H15a0,0,0,0,1,0,0v-7A0,0,0,0,1,15,11.375Z"/><path class="a" d="M11.5,8.375h3a.5.5,0,0,1,.5.5v3.5a0,0,0,0,1,0,0H11a0,0,0,0,1,0,0v-3.5A.5.5,0,0,1,11.5,8.375Z"/><line class="a" x1="12.5" y1="16.375" x2="13.5" y2="16.375"/><line class="a" x1="17.5" y1="16.375" x2="19" y2="16.375"/><line class="a" x1="4.667" y1="16.375" x2="3" y2="16.375"/><line class="a" x1="6" y1="12.375" x2="4" y2="12.375"/><line class="a" x1="7.333" y1="8.375" x2="5.5" y2="8.375"/><line class="a" x1="8.667" y1="4.375" x2="7" y2="4.375"/></svg>