<svg id="Light" xmlns="http://www.w3.org/2000/svg" viewBox="0 0 24 24"><defs><style>.cls-1{fill:none;stroke:#000;stroke-linecap:round;stroke-linejoin:round;}</style></defs><title>water-protection-drop-1</title><path class="cls-1" d="M17.026,11.053a5,5,0,0,1-10,0c0-2.271,3.383-7.572,4.583-9.382a.5.5,0,0,1,.834,0C13.644,3.482,17.026,8.782,17.026,11.053Z"/><path class="cls-1" d="M19.014,17.536a12.173,12.173,0,0,1-6.988,2.017,12.156,12.156,0,0,1-7.018-2.038"/><path class="cls-1" d="M22.966,19.113a17.554,17.554,0,0,1-10.94,3.44A17.51,17.51,0,0,1,1.034,19.07"/></svg>