<svg id="Light" xmlns="http://www.w3.org/2000/svg" viewBox="0 0 24 24"><defs><style>.cls-1{fill:none;stroke:#000;stroke-linecap:round;stroke-linejoin:round;}</style></defs><title>water-straw</title><path class="cls-1" d="M16.369,21.829A2,2,0,0,1,14.4,23.5H7.6a2,2,0,0,1-1.973-1.671L3.007,6.082A.5.5,0,0,1,3.5,5.5h15a.5.5,0,0,1,.493.582Z"/><path class="cls-1" d="M21,.5H18.659a4,4,0,0,0-3.891,3.074L11.1,18.985"/><path class="cls-1" d="M4.216,13.336a4.734,4.734,0,0,0,3-1.853,4.7,4.7,0,0,0,7.578,0,4.734,4.734,0,0,0,2.995,1.853"/></svg>