<svg id="Light" xmlns="http://www.w3.org/2000/svg" viewBox="0 0 24 24"><defs><style>.cls-1{fill:none;stroke:#000;stroke-linecap:round;stroke-linejoin:round;}</style></defs><title>water-protection-drop-hold</title><path class="cls-1" d="M15.99,9.313A3.744,3.744,0,0,1,12,13,3.744,3.744,0,0,1,8,9.313c0-1.758,2.535-6.175,3.566-7.9a.5.5,0,0,1,.858,0C13.456,3.139,15.99,7.555,15.99,9.313Z"/><rect class="cls-1" x="14.5" y="20.5" width="6" height="3" rx="0.5" ry="0.5"/><path class="cls-1" d="M19.5,20.5V18.969s2.605-2.58,3.706-3.675a1,1,0,0,0,.294-.709V6.938S21,6.031,21,13l-2.969,2.969.688-3c.343-1.438-.971-2.053-1.688-.938A23.457,23.457,0,0,0,15.5,15.992V20.5"/><rect class="cls-1" x="3.5" y="20.5" width="6" height="3" rx="0.5" ry="0.5"/><path class="cls-1" d="M4.5,20.5V18.969S2.035,16.376.829,15.285A1,1,0,0,1,.5,14.543v-7.6S3,6.031,3,13l2.969,2.969-.688-3c-.344-1.438.971-2.053,1.688-.938A23.457,23.457,0,0,1,8.5,15.992V20.5"/></svg>