<svg id="Light" xmlns="http://www.w3.org/2000/svg" viewBox="0 0 24 24"><defs><style>.cls-1{fill:none;stroke:#000;stroke-linecap:round;stroke-linejoin:round;}</style></defs><title>water-fountain-drop</title><path class="cls-1" d="M3,8.283V23a.5.5,0,0,0,.5.5h5A.5.5,0,0,0,9,23V9A3.491,3.491,0,0,0,7.788,6.352"/><path class="cls-1" d="M22,11.346a.154.154,0,0,1-.154.154c-5.639,0-9.022.856-12.846,5v-7H21.5a.5.5,0,0,1,.5.5Z"/><path class="cls-1" d="M16.5,11.948V13a.5.5,0,0,0,.5.5h3.5A.5.5,0,0,0,21,13V11.507"/><path class="cls-1" d="M21,20.5a2,2,0,0,1-4,0,9.78,9.78,0,0,1,1.579-3.362.5.5,0,0,1,.842,0A9.768,9.768,0,0,1,21,20.5Z"/><path class="cls-1" d="M3.368,8.265A.524.524,0,0,1,2.68,8L2.045,6.557a.524.524,0,0,1,.271-.693L14.451.612a1.311,1.311,0,1,1,1.059,2.4Z"/></svg>