<svg id="Light" xmlns="http://www.w3.org/2000/svg" viewBox="0 0 24 24"><defs><style>.cls-1{fill:none;stroke:#000;stroke-linecap:round;stroke-linejoin:round;}</style></defs><title>water-bottle-1</title><line class="cls-1" x1="7" y1="11.5" x2="17" y2="11.5"/><line class="cls-1" x1="7" y1="17.5" x2="17" y2="17.5"/><path class="cls-1" d="M14.5,1.5a1,1,0,0,0-1-1h-3a1,1,0,0,0-1,1v2h5Z"/><path class="cls-1" d="M18.354,10.146a.5.5,0,0,0,.146-.353V7.5a4,4,0,0,0-4-4h-5a4,4,0,0,0-4,4V9.793a.5.5,0,0,0,.146.353L7,11.5,5.646,12.854a.5.5,0,0,0-.146.353v2.586a.5.5,0,0,0,.146.353L7,17.5,5.646,18.854a.5.5,0,0,0-.146.353V21.5a2,2,0,0,0,2,2h9a2,2,0,0,0,2-2V19.207a.5.5,0,0,0-.146-.353L17,17.5l1.354-1.354a.5.5,0,0,0,.146-.353V13.207a.5.5,0,0,0-.146-.353L17,11.5Z"/></svg>