<svg id="Light" xmlns="http://www.w3.org/2000/svg" viewBox="0 0 24 24"><defs><style>.cls-1{fill:none;stroke:#000;stroke-linecap:round;stroke-linejoin:round;}</style></defs><title>water-container</title><path class="cls-1" d="M12.75,11.25a.25.25,0,1,1-.25.25.25.25,0,0,1,.25-.25"/><path class="cls-1" d="M15.75,11.25a.25.25,0,1,1-.25.25.25.25,0,0,1,.25-.25"/><path class="cls-1" d="M8.5.5a1,1,0,0,0-1,1v4a2,2,0,0,0,2,2h5a2,2,0,0,0,2-2v-4a1,1,0,0,0-1-1Z"/><rect class="cls-1" x="9.5" y="7.5" width="5" height="2"/><line class="cls-1" x1="7.5" y1="2.5" x2="10" y2="2.5"/><line class="cls-1" x1="7.5" y1="4.5" x2="10" y2="4.5"/><rect class="cls-1" x="5.5" y="9.5" width="13" height="14" rx="1" ry="1"/><line class="cls-1" x1="5.5" y1="13.5" x2="18.5" y2="13.5"/><line class="cls-1" x1="5.5" y1="21.5" x2="18.5" y2="21.5"/><line class="cls-1" x1="12" y1="13.5" x2="12" y2="15"/><path class="cls-1" d="M13.566,21.5H10.434L10,18.062a.5.5,0,0,1,.5-.562h3a.5.5,0,0,1,.5.562Z"/></svg>