<svg id="Light" xmlns="http://www.w3.org/2000/svg" viewBox="0 0 24 24"><defs><style>.cls-1,.cls-2{fill:none;stroke:#000;stroke-linecap:round;stroke-linejoin:round;}.cls-2{stroke-dasharray:2.007 2.007;}</style></defs><title>water-fountain-drink</title><circle class="cls-1" cx="14" cy="3.5" r="2.5"/><path class="cls-1" d="M3,23a1.5,1.5,0,0,1-1.5-1.5v-10a1.5,1.5,0,0,1,.39-1.009l5-5.5a1.5,1.5,0,0,1,2.585.74l.636,3.5a1.489,1.489,0,0,0,1.122,1.188l.917.093a1.5,1.5,0,1,1-.3,2.985c-1.062-.107-1.046-.1-1.145-.122A4.473,4.473,0,0,1,7.159,9.763l-.093-.507L4.5,12.08V21.5A1.5,1.5,0,0,1,3,23Z"/><path class="cls-1" d="M22.5,20c-4.242,0-6.791-3.3-6.988-7.476a.5.5,0,0,1,.5-.524H22.5Z"/><line class="cls-1" x1="20.5" y1="12" x2="20.5" y2="10.5"/><path class="cls-2" d="M20.357,8.509a2.309,2.309,0,0,0-2.368-1.5"/><path class="cls-1" d="M17.033,7.311a2.308,2.308,0,0,0-.69.613L16,8.382"/></svg>