<svg id="Light" xmlns="http://www.w3.org/2000/svg" viewBox="0 0 24 24"><defs><style>.cls-1{fill:none;stroke:#000;stroke-linecap:round;stroke-linejoin:round;}</style></defs><title>water-fountain-sink-1</title><path class="cls-1" d="M20.523,9.5a1,1,0,0,1-2,0,6.615,6.615,0,0,1,1-2A6.615,6.615,0,0,1,20.523,9.5Z"/><path class="cls-1" d="M15.023,16.5v-1a2,2,0,0,1,2-2h3"/><path class="cls-1" d="M9.023,16.5v-1a2,2,0,0,0-2-2h-3"/><path class="cls-1" d="M1.258,16.5a.438.438,0,0,0-.378.658,12.961,12.961,0,0,0,22.229.1.5.5,0,0,0-.43-.755Z"/><path class="cls-1" d="M12.023,16.5V4.25a3.75,3.75,0,0,1,7.5,0V5"/></svg>