<svg id="Light" xmlns="http://www.w3.org/2000/svg" viewBox="0 0 24 24"><defs><style>.cls-1{fill:none;stroke:#000;stroke-linecap:round;stroke-linejoin:round;}</style></defs><title>weather-app-sun-coudy</title><rect class="cls-1" x="5" y="0.5" width="14" height="23" rx="2" ry="2"/><line class="cls-1" x1="5" y1="19.5" x2="19" y2="19.5"/><line class="cls-1" x1="11" y1="21.5" x2="13" y2="21.5"/><path class="cls-1" d="M16.388,11.932A1.05,1.05,0,0,0,15.3,10.473,1.924,1.924,0,0,0,11.582,11a1.755,1.755,0,0,0,.167,3.5H15.6a1.407,1.407,0,0,0,.788-2.568Z"/><path class="cls-1" d="M9.268,10.5A2,2,0,0,1,12,7.768"/><line class="cls-1" x1="11" y1="6" x2="11" y2="5"/><line class="cls-1" x1="8.525" y1="7.025" x2="7.818" y2="6.318"/><line class="cls-1" x1="8.525" y1="11.975" x2="7.818" y2="12.682"/><line class="cls-1" x1="14.182" y1="6.318" x2="13.475" y2="7.025"/><line class="cls-1" x1="7.5" y1="9.5" x2="6.5" y2="9.5"/></svg>