<svg id="Light" xmlns="http://www.w3.org/2000/svg" viewBox="0 0 24 24"><defs><style>.cls-1{fill:none;stroke:#000;stroke-linecap:round;stroke-linejoin:round;}</style></defs><title>weather-cloudy-thunder</title><line class="cls-1" x1="2.224" y1="2.223" x2="3" y2="3"/><line class="cls-1" x1="12.776" y1="2.223" x2="12" y2="3"/><path class="cls-1" d="M4.174,9.723A4,4,0,0,1,10.032,4.4"/><line class="cls-1" x1="0.5" y1="6.5" x2="1.5" y2="6.5"/><line class="cls-1" x1="7.5" y1="0.5" x2="7.5" y2="1.5"/><path class="cls-1" d="M19.5,20.5a4,4,0,0,0,2.251-7.306,3,3,0,0,0-3.123-4.169,5.5,5.5,0,0,0-10.6,1.5A5,5,0,0,0,8.5,20.5h1"/><path class="cls-1" d="M15.5,14.5l-3.94,4.588a.248.248,0,0,0-.037.267.251.251,0,0,0,.227.145H13.5v4l3.94-4.588a.248.248,0,0,0,.037-.267.251.251,0,0,0-.227-.145H15.5Z"/></svg>