<svg id="Light" xmlns="http://www.w3.org/2000/svg" viewBox="0 0 24 24"><defs><style>.cls-1{fill:none;stroke:#000;stroke-linecap:round;stroke-linejoin:round;}</style></defs><title>weather-cloud-sun-wind-1</title><line class="cls-1" x1="0.5" y1="18" x2="13.5" y2="18"/><line class="cls-1" x1="3.5" y1="20" x2="16.5" y2="20"/><line class="cls-1" x1="0.5" y1="22" x2="13.5" y2="22"/><path class="cls-1" d="M20.076,19.029a3.435,3.435,0,0,0,1.754-6.382,2.661,2.661,0,0,0-2.776-3.518,4.562,4.562,0,0,0-8.869,1.508A4.194,4.194,0,0,0,6,14.833"/><path class="cls-1" d="M5.628,10.5A3.5,3.5,0,0,1,10.5,5.628"/><line class="cls-1" x1="8.5" y1="3" x2="8.5" y2="2"/><line class="cls-1" x1="4.611" y1="4.611" x2="3.904" y2="3.904"/><line class="cls-1" x1="3" y1="8.5" x2="2" y2="8.5"/><line class="cls-1" x1="4.611" y1="12.389" x2="3.904" y2="13.096"/><line class="cls-1" x1="13.096" y1="3.904" x2="12.389" y2="4.611"/></svg>