<svg id="Light" xmlns="http://www.w3.org/2000/svg" viewBox="0 0 24 24"><defs><style>.cls-1{fill:none;stroke:#000;stroke-linecap:round;stroke-linejoin:round;}</style></defs><title>weather-night-rain-drops</title><path class="cls-1" d="M22.266,11.986a5.886,5.886,0,0,0,1.234-.427,5.806,5.806,0,0,1,0-10.491,5.8,5.8,0,0,0-8.157,3.975"/><path class="cls-1" d="M18.5,19.945a3.982,3.982,0,0,0,.251-6.751,3,3,0,0,0-3.123-4.169,5.5,5.5,0,0,0-10.6,1.5A5,5,0,0,0,3.5,20.078"/><path class="cls-1" d="M12.5,18a1.5,1.5,0,0,1-3,0c0-.828,1.5-3,1.5-3S12.5,17.172,12.5,18Z"/><path class="cls-1" d="M8.5,22a1.5,1.5,0,0,1-3,0c0-.828,1.5-3,1.5-3S8.5,21.172,8.5,22Z"/><path class="cls-1" d="M16.5,22a1.5,1.5,0,0,1-3,0c0-.828,1.5-3,1.5-3S16.5,21.172,16.5,22Z"/></svg>