<svg id="Light" xmlns="http://www.w3.org/2000/svg" viewBox="0 0 24 24"><defs><style>.cls-1{fill:none;stroke:#000;stroke-linecap:round;stroke-linejoin:round;}</style></defs><title>weather-cloud</title><line class="cls-1" x1="9.5" y1="0.5" x2="9.5" y2="1.5"/><line class="cls-1" x1="2.5" y1="2.5" x2="3.5" y2="3.5"/><line class="cls-1" x1="16.5" y1="2.5" x2="15.5" y2="3.5"/><line class="cls-1" x1="0.5" y1="9.5" x2="1.5" y2="9.5"/><path class="cls-1" d="M21.751,16.165A3,3,0,0,0,18.629,12,5.5,5.5,0,0,0,8.024,13.5,5.015,5.015,0,0,0,8.5,23.5h11a4.019,4.019,0,0,0,2.251-7.335Z"/><path class="cls-1" d="M14.7,6.507A6,6,0,0,0,3.5,9.5a5.928,5.928,0,0,0,.812,2.994"/></svg>