<svg id="Light" xmlns="http://www.w3.org/2000/svg" viewBox="0 0 24 24"><defs><style>.cls-1{fill:none;stroke:#000;stroke-linecap:round;stroke-linejoin:round;}</style></defs><title>weather-night-hail</title><path class="cls-1" d="M22.266,11.986a5.886,5.886,0,0,0,1.234-.427,5.806,5.806,0,0,1,0-10.491,5.8,5.8,0,0,0-8.157,3.975"/><path class="cls-1" d="M2.75,23a.25.25,0,0,1,.25.25"/><path class="cls-1" d="M2.5,23.25A.25.25,0,0,1,2.75,23"/><path class="cls-1" d="M2.75,23.5a.25.25,0,0,1-.25-.25"/><path class="cls-1" d="M3,23.25a.25.25,0,0,1-.25.25"/><line class="cls-1" x1="4.25" y1="21.75" x2="7.75" y2="18.25"/><path class="cls-1" d="M12.75,23a.25.25,0,0,1,.25.25"/><path class="cls-1" d="M12.5,23.25a.25.25,0,0,1,.25-.25"/><path class="cls-1" d="M12.75,23.5a.25.25,0,0,1-.25-.25"/><path class="cls-1" d="M13,23.25a.25.25,0,0,1-.25.25"/><line class="cls-1" x1="14.25" y1="21.75" x2="17.75" y2="18.25"/><path class="cls-1" d="M8.75,22a.25.25,0,0,1,.25.25"/><path class="cls-1" d="M8.5,22.25A.25.25,0,0,1,8.75,22"/><path class="cls-1" d="M8.75,22.5a.25.25,0,0,1-.25-.25"/><path class="cls-1" d="M9,22.25a.25.25,0,0,1-.25.25"/><line class="cls-1" x1="10.25" y1="20.75" x2="12.75" y2="18.25"/><path class="cls-1" d="M18.988,19.633a4,4,0,0,0-.236-6.439,3,3,0,0,0-3.123-4.169,5.5,5.5,0,0,0-10.606,1.5A5,5,0,0,0,2.951,19.8"/></svg>