<svg id="Light" xmlns="http://www.w3.org/2000/svg" viewBox="0 0 24 24"><defs><style>.cls-1{fill:none;stroke:#000;stroke-linecap:round;stroke-linejoin:round;}</style></defs><title>weather-app-sun-cloud-location</title><line class="cls-1" x1="2.55" y1="2.55" x2="3.257" y2="3.257"/><line class="cls-1" x1="0.5" y1="7.5" x2="1.5" y2="7.5"/><line class="cls-1" x1="2.55" y1="12.45" x2="3.257" y2="11.743"/><path class="cls-1" d="M23.5,17.435a2.864,2.864,0,0,0-3-2.935,2.864,2.864,0,0,0-3,2.935c0,2.077,1.714,4.779,3,6.065C21.786,22.214,23.5,19.858,23.5,17.435Z"/><circle class="cls-1" cx="20.5" cy="17.5" r="1"/><path class="cls-1" d="M22.364,13a3.507,3.507,0,0,0-.894-.879A2.612,2.612,0,0,0,18.737,8.5,4.814,4.814,0,0,0,9.458,9.8a4.359,4.359,0,0,0,.417,8.7H15.5"/><path class="cls-1" d="M4.376,10A4,4,0,0,1,10,4.379"/><line class="cls-1" x1="7.5" y1="0.5" x2="7.5" y2="1.5"/><line class="cls-1" x1="11.743" y1="3.257" x2="12.45" y2="2.55"/></svg>