<svg id="Light" xmlns="http://www.w3.org/2000/svg" viewBox="0 0 24 24"><defs><style>.cls-1{fill:none;stroke:#000;stroke-linecap:round;stroke-linejoin:round;}</style></defs><title>weather-rain-drops</title><path class="cls-1" d="M21.5,19.945a3.982,3.982,0,0,0,.251-6.751,3,3,0,0,0-3.123-4.169,5.5,5.5,0,0,0-10.6,1.5A5,5,0,0,0,6.5,20.078"/><line class="cls-1" x1="2.224" y1="2.223" x2="3" y2="3"/><line class="cls-1" x1="12.776" y1="2.223" x2="12" y2="3"/><path class="cls-1" d="M4.174,9.723A4,4,0,0,1,10.032,4.4"/><line class="cls-1" x1="0.5" y1="6.5" x2="1.5" y2="6.5"/><line class="cls-1" x1="7.5" y1="0.5" x2="7.5" y2="1.5"/><path class="cls-1" d="M15.5,18a1.5,1.5,0,0,1-3,0c0-.828,1.5-3,1.5-3S15.5,17.172,15.5,18Z"/><path class="cls-1" d="M11.5,22a1.5,1.5,0,0,1-3,0c0-.828,1.5-3,1.5-3S11.5,21.172,11.5,22Z"/><path class="cls-1" d="M19.5,22a1.5,1.5,0,0,1-3,0c0-.828,1.5-3,1.5-3S19.5,21.172,19.5,22Z"/></svg>