<svg id="Light" xmlns="http://www.w3.org/2000/svg" viewBox="0 0 24 24"><defs><style>.cls-1{fill:none;stroke:#000;stroke-linecap:round;stroke-linejoin:round;}</style></defs><title>weather-app-sun-location</title><path class="cls-1" d="M23,16.935A2.864,2.864,0,0,0,20,14a2.864,2.864,0,0,0-3,2.935c0,2.077,1.714,4.779,3,6.065C21.286,21.714,23,19.358,23,16.935Z"/><circle class="cls-1" cx="20" cy="17" r="1"/><path class="cls-1" d="M15,18.326A7,7,0,1,1,19,12"/><line class="cls-1" x1="12" y1="1" x2="12" y2="3"/><line class="cls-1" x1="12" y1="21" x2="12" y2="23"/><line class="cls-1" x1="4.222" y1="4.222" x2="5.636" y2="5.636"/><line class="cls-1" x1="1" y1="12" x2="3" y2="12"/><line class="cls-1" x1="21" y1="12" x2="23" y2="12"/><line class="cls-1" x1="4.222" y1="19.778" x2="5.636" y2="18.364"/><line class="cls-1" x1="18.364" y1="5.636" x2="19.778" y2="4.222"/></svg>