<svg id="Light" xmlns="http://www.w3.org/2000/svg" viewBox="0 0 24 24"><defs><style>.cls-1{fill:none;stroke:#000;stroke-linecap:round;stroke-linejoin:round;}</style></defs><title>weather-night-wind-1</title><path class="cls-1" d="M22.266,11.986a5.886,5.886,0,0,0,1.234-.427,5.806,5.806,0,0,1,0-10.491,5.8,5.8,0,0,0-8.157,3.975"/><path class="cls-1" d="M15.5,20.5h1a4,4,0,0,0,2.251-7.306,3,3,0,0,0-3.123-4.169,5.5,5.5,0,0,0-10.6,1.5A5,5,0,0,0,.5,15.5a4.909,4.909,0,0,0,.11,1"/><path class="cls-1" d="M.5,18.5H13a1.5,1.5,0,1,0-1.408-2"/><path class="cls-1" d="M.5,20.5H8a1.5,1.5,0,1,1-1.408,2"/></svg>