<svg xmlns="http://www.w3.org/2000/svg" viewBox="0 0 24 24"><defs><style>.a{fill:none;stroke:#000;stroke-linecap:round;stroke-linejoin:round;}</style></defs><title>web-service-squarespace</title><path class="a" d="M15.077,6.74,7.343,14.476A3.5,3.5,0,0,1,2.394,9.525L8.05,3.869a3.5,3.5,0,0,1,4.949,0l.225.225"/><path class="a" d="M4.68,12.238l7.37-7.369a3.5,3.5,0,0,1,4.949,0"/><path class="a" d="M9.255,17.637l7.769-7.768a3.5,3.5,0,1,1,4.951,4.949l-5.658,5.658a3.5,3.5,0,0,1-4.949,0l-.226-.227"/><path class="a" d="M19.625,12.167l-7.308,7.309a3.5,3.5,0,0,1-4.949,0"/></svg>