<svg xmlns="http://www.w3.org/2000/svg" viewBox="0 0 24 24"><defs><style>.a{fill:none;stroke:#000;stroke-linecap:round;stroke-linejoin:round;}</style></defs><title>webcam</title><path class="a" d="M10.417,19.5l-3.13,3.651a1,1,0,1,1-1.517-1.3L8.443,18.73"/><path class="a" d="M13.417,19.5l3.129,3.651a1,1,0,1,0,1.518-1.3L15.39,18.73"/><path class="a" d="M13.417,19.5c0,2.5-.5,4-1.5,4s-1.5-1.5-1.5-4"/><path class="a" d="M8.417,16.749V18.5a1,1,0,0,0,1,1h5a1,1,0,0,0,1-1V16.749"/><circle class="a" cx="11.917" cy="9" r="8.5"/><path class="a" d="M11.917,8.75a.25.25,0,1,1-.25.25.25.25,0,0,1,.25-.25"/><circle class="a" cx="11.917" cy="9" r="3.5"/><path class="a" d="M9.417.874V1.5c0,1.105,1,2,2.5,2s2.5-.895,2.5-2V.874"/></svg>