<svg xmlns="http://www.w3.org/2000/svg" viewBox="0 0 24 24"><defs><style>.a{fill:none;stroke:#000;stroke-linecap:round;stroke-linejoin:round;}</style></defs><title>wedding-cake</title><path class="a" d="M8,13.5h8a2,2,0,0,1,2,2V20a.5.5,0,0,1-.5.5H6.5A.5.5,0,0,1,6,20V15.5A2,2,0,0,1,8,13.5Z"/><line class="a" x1="12" y1="13.5" x2="12" y2="11.5"/><line class="a" x1="6" y1="11.5" x2="18" y2="11.5"/><path class="a" d="M16.5,11.5v-3a1,1,0,0,0-1-1h-7a1,1,0,0,0-1,1v3"/><path class="a" d="M14.5,7.5v-2a1,1,0,0,0-1-1h-3a1,1,0,0,0-1,1v2"/><path class="a" d="M13,20.5V21c0,1,1.335,2.035,2,2.5H9c.665-.461,2-1.5,2-2.5v-.5"/><line class="a" x1="12" y1="20.5" x2="12" y2="18"/><line class="a" x1="15" y1="20.5" x2="15" y2="17"/><line class="a" x1="9" y1="20.5" x2="9" y2="17"/><path class="a" d="M12.352,4.355a.5.5,0,0,1-.7,0L9.869,2.55a1.159,1.159,0,0,1-.236-1.386h0A1.294,1.294,0,0,1,11.652.852L12,1.183l.348-.331a1.294,1.294,0,0,1,2.019.312h0a1.159,1.159,0,0,1-.236,1.386Z"/><path class="a" d="M12,9.25a.25.25,0,0,1,.25.25"/><path class="a" d="M11.75,9.5A.25.25,0,0,1,12,9.25"/><path class="a" d="M12,9.75a.25.25,0,0,1-.25-.25"/><path class="a" d="M12.25,9.5a.25.25,0,0,1-.25.25"/><path class="a" d="M9.75,9.25A.25.25,0,0,1,10,9.5"/><path class="a" d="M9.5,9.5a.25.25,0,0,1,.25-.25"/><path class="a" d="M9.75,9.75A.25.25,0,0,1,9.5,9.5"/><path class="a" d="M10,9.5a.25.25,0,0,1-.25.25"/><path class="a" d="M14.25,9.25a.25.25,0,0,1,.25.25"/><path class="a" d="M14,9.5a.25.25,0,0,1,.25-.25"/><path class="a" d="M14.25,9.75A.25.25,0,0,1,14,9.5"/><path class="a" d="M14.5,9.5a.25.25,0,0,1-.25.25"/></svg>