<svg xmlns="http://www.w3.org/2000/svg" viewBox="0 0 24 24"><defs><style>.a{fill:none;stroke:#000;stroke-linecap:round;stroke-linejoin:round;}</style></defs><title>wedding-car-heart-balloon</title><path class="a" d="M18.654,2.582c-1.085-3.333-4.846-2.331-4.846.661,0,2.46,4.135,5.728,4.846,6.257.711-.529,4.846-3.8,4.846-6.257C23.5.251,19.739-.751,18.654,2.582Z"/><circle class="a" cx="3.867" cy="22" r="1.5"/><path class="a" d="M18.654,9.5l-.233,1.247a4.347,4.347,0,0,0,1.2,3.874h0a4.348,4.348,0,0,1,.2,5.941l-1.7,1.938H15.532"/><circle class="a" cx="14.117" cy="22" r="1.5"/><line class="a" x1="5.282" y1="22.5" x2="12.703" y2="22.5"/><path class="a" d="M17.367,22.5s-.248-1.5-.543-3.268a6.749,6.749,0,0,0-6.4-5.731,6.924,6.924,0,0,0-6.485,4.2L3.492,18.75c-2.119,0-3.24,1.109-2.946,3.326a.5.5,0,0,0,.5.424H2.453"/><path class="a" d="M13.976,18.5a3.981,3.981,0,0,0-7.717,0Z"/></svg>