<svg xmlns="http://www.w3.org/2000/svg" viewBox="0 0 24 24"><defs><style>.a{fill:none;stroke:#000;stroke-linecap:round;stroke-linejoin:round;}</style></defs><title>wedding-money-piggy</title><path class="a" d="M10.343,8.172A11.435,11.435,0,0,0,8.276,8.5,6.447,6.447,0,0,0,5.939,6.74.5.5,0,0,0,5.25,7.2V10.09A6.713,6.713,0,0,0,3.074,12.5l-1.324,0a.5.5,0,0,0-.5.5v3a.5.5,0,0,0,.5.5H3.074a5.8,5.8,0,0,0,2.454,3.405l-.761,1.843a1.266,1.266,0,0,0,.864,1.671A1.513,1.513,0,0,0,7.5,22.648l.665-1.611a11.447,11.447,0,0,0,6.327-.122l.716,1.733a1.513,1.513,0,0,0,1.873.771,1.266,1.266,0,0,0,.864-1.671l-.864-2.093a5.875,5.875,0,0,0,2.766-4.74,5.267,5.267,0,0,0-1.163-3.244"/><path class="a" d="M19.851,15.589c1.6,0,2.4-.8,2.4-2"/><path class="a" d="M7.5,12a.25.25,0,0,1,.25.25"/><path class="a" d="M7.25,12.25A.25.25,0,0,1,7.5,12"/><path class="a" d="M7.5,12.5a.25.25,0,0,1-.25-.25"/><path class="a" d="M7.75,12.25a.25.25,0,0,1-.25.25"/><path class="a" d="M16.611,10.623a.5.5,0,0,1-.722,0L11.136,5.665a3.025,3.025,0,0,1-.567-3.492h0a3.026,3.026,0,0,1,4.846-.786l.835.835.835-.835a3.026,3.026,0,0,1,4.846.786h0a3.025,3.025,0,0,1-.567,3.492Z"/></svg>