<svg xmlns="http://www.w3.org/2000/svg" viewBox="0 0 24 24"><defs><style>.a{fill:none;stroke:#000;stroke-linecap:round;stroke-linejoin:round;}</style></defs><title>wedding-cake-couple</title><line class="a" x1="0.5" y1="23.5" x2="23.5" y2="23.5"/><path class="a" d="M1.5,13v6.5a2,2,0,0,0,2,2h17a2,2,0,0,0,2-2V13"/><path class="a" d="M1.5,13A2.784,2.784,0,0,0,4,15.5,2.784,2.784,0,0,0,6.5,13a2.939,2.939,0,0,0,2.75,2.75A2.939,2.939,0,0,0,12,13a2.939,2.939,0,0,0,2.75,2.75A2.939,2.939,0,0,0,17.5,13,2.784,2.784,0,0,0,20,15.5,2.784,2.784,0,0,0,22.5,13V11.5a1,1,0,0,0-1-1H2.5a1,1,0,0,0-1,1Z"/><circle class="a" cx="8" cy="2" r="1.5"/><circle class="a" cx="16" cy="2" r="1.5"/><path class="a" d="M10.5,7a2.5,2.5,0,0,0-5,0v.5h1l.5,3H9l.5-3h1Z"/><path class="a" d="M18.5,10.5l-1-4.776a1.537,1.537,0,0,0-3.01,0L13.5,10.5"/></svg>