<svg xmlns="http://www.w3.org/2000/svg" viewBox="0 0 24 24"><defs><style>.a{fill:none;stroke:#000;stroke-linecap:round;stroke-linejoin:round;}</style></defs><title>wedding-cake-heart</title><path class="a" d="M15,5.325c2.772-1,6.388-.318,7.888,1.726h0c1.116,1.522.678,3.361-1.086,4.565L12.29,18.382a.5.5,0,0,1-.58,0L2.2,11.627C.434,10.427,0,8.592,1.112,7.071h0C2.612,5.027,6.228,4.337,9,5.332"/><path class="a" d="M23.5,8.7v4.678a4,4,0,0,1-1.684,3.261L12.29,23.408a.5.5,0,0,1-.58,0L2.184,16.642A4,4,0,0,1,.5,13.381V8.7"/><path class="a" d="M13.5,3a1.5,1.5,0,0,1-3,0A6.4,6.4,0,0,1,11.576.735a.5.5,0,0,1,.848,0A6.4,6.4,0,0,1,13.5,3Z"/><path class="a" d="M11,11.5V6a.5.5,0,0,1,.5-.5h1A.5.5,0,0,1,13,6v5.5a1,1,0,0,1-1,1h0A1,1,0,0,1,11,11.5Z"/></svg>