<svg xmlns="http://www.w3.org/2000/svg" viewBox="0 0 24 24"><defs><style>.a{fill:none;stroke:#000;stroke-linecap:round;stroke-linejoin:round;}</style></defs><title>wedding-car</title><path class="a" d="M5.488,19v.5a1.5,1.5,0,0,1-1.5,1.5h0a1.5,1.5,0,0,1-1.5-1.5V19"/><path class="a" d="M21.488,19v.5a1.5,1.5,0,0,1-1.5,1.5h0a1.5,1.5,0,0,1-1.5-1.5V19"/><path class="a" d="M11.988,11.117c-1.365-1.863-4-1.383-4,1.41.052,2.164,2.915,3.881,3.764,4.344a.492.492,0,0,0,.471,0c.85-.463,3.711-2.18,3.765-4.344C15.988,9.734,13.4,9.275,11.988,11.117Z"/><path class="a" d="M23.036,12.444,21,10,19.414,4.451A2,2,0,0,0,17.491,3H6.509A2,2,0,0,0,4.586,4.451L3,10,.964,12.444A2,2,0,0,0,.5,13.724V18a1,1,0,0,0,1,1h21a1,1,0,0,0,1-1V13.724A2,2,0,0,0,23.036,12.444Z"/><line class="a" x1="3" y1="10" x2="6.5" y2="10"/><line class="a" x1="0.5" y1="16" x2="5.5" y2="16"/><line class="a" x1="21" y1="10" x2="17.5" y2="10"/><line class="a" x1="23.5" y1="16" x2="18.5" y2="16"/></svg>