<svg xmlns="http://www.w3.org/2000/svg" viewBox="0 0 24 24"><defs><style>.a{fill:none;stroke:#000;stroke-linecap:round;stroke-linejoin:round;}</style></defs><title>wedding-dress</title><line class="a" x1="12.001" y1="18" x2="12.001" y2="23.5"/><line class="a" x1="10.001" y1="23.5" x2="14.001" y2="23.5"/><path class="a" d="M14.122,6.329C15.3,3.224,17.208.5,14,.5a4.855,4.855,0,0,0-2,1,4.843,4.843,0,0,0-2-1C6.8.5,8.707,3.224,9.88,6.329,5.111,7.844,5.19,11.693,4.066,18.605a.519.519,0,0,0,.3.555C9.613,21.344,12,18,12,18a7.345,7.345,0,0,0,7.611,1.147.512.512,0,0,0,.322-.56C18.874,12.019,18.991,7.876,14.122,6.329Z"/><path class="a" d="M4.324,16.955,5,16.988c.166.008.332.012.5.012A6.94,6.94,0,0,0,12,13.462c1.022,1.959,4.02,3.382,7,3.526l.692.033"/></svg>