<svg id="Light" xmlns="http://www.w3.org/2000/svg" viewBox="0 0 24 24"><defs><style>.cls-1{fill:none;stroke:#000;stroke-linecap:round;stroke-linejoin:round;}</style></defs><title>whale</title><path class="cls-1" d="M22,16.5c0,5.247-4.477,7-10,7s-10-1.753-10-7a10.181,10.181,0,0,1,10-10A10.181,10.181,0,0,1,22,16.5Z"/><path class="cls-1" d="M2,16.613A25.485,25.485,0,0,0,12,18.5a25.476,25.476,0,0,0,10-1.887"/><line class="cls-1" x1="12" y1="18.5" x2="12" y2="23.5"/><path class="cls-1" d="M7,18.076C7,20.838,9.239,23.5,12,23.5s5-2.662,5-5.424"/><path class="cls-1" d="M7.75,12.75A.25.25,0,0,1,8,13"/><path class="cls-1" d="M7.5,13a.25.25,0,0,1,.25-.25"/><path class="cls-1" d="M7.75,13.25A.25.25,0,0,1,7.5,13"/><path class="cls-1" d="M8,13a.25.25,0,0,1-.25.25"/><path class="cls-1" d="M16.25,12.75A.25.25,0,0,0,16,13"/><path class="cls-1" d="M16.5,13a.25.25,0,0,0-.25-.25"/><path class="cls-1" d="M16.25,13.25A.25.25,0,0,0,16.5,13"/><path class="cls-1" d="M16,13a.25.25,0,0,0,.25.25"/><path class="cls-1" d="M7,3a2.5,2.5,0,0,1,5,0,2.5,2.5,0,0,1,5,0"/><line class="cls-1" x1="12" y1="3" x2="12" y2="4.5"/></svg>