<svg id="Light" xmlns="http://www.w3.org/2000/svg" viewBox="0 0 24 24"><defs><style>.cls-1{fill:none;stroke:#000;stroke-linecap:round;stroke-linejoin:round;}</style></defs><title>wild-bird-eggs</title><path class="cls-1" d="M13.829,13.957a3.79,3.79,0,0,1-7.579,0c0-2.093,1.7-6.948,3.789-6.948S13.829,11.864,13.829,13.957Z"/><path class="cls-1" d="M15.269,16.4a3.789,3.789,0,0,0,2.981-3.7c0-2.092-1.7-6.947-3.789-6.947a1.9,1.9,0,0,0-1.257.576"/><path class="cls-1" d="M9.5.773a11.588,11.588,0,0,1,5,0"/><path class="cls-1" d="M2.293,5.829A11.577,11.577,0,0,1,5.83,2.293"/><path class="cls-1" d="M.773,14.5a11.588,11.588,0,0,1,0-5"/><path class="cls-1" d="M5.829,21.707A11.6,11.6,0,0,1,2.292,18.17"/><path class="cls-1" d="M14.5,23.227a11.588,11.588,0,0,1-5,0"/><path class="cls-1" d="M21.707,18.171a11.6,11.6,0,0,1-3.537,3.537"/><path class="cls-1" d="M23.227,9.5a11.588,11.588,0,0,1,0,5"/><path class="cls-1" d="M18.171,2.293A11.577,11.577,0,0,1,21.707,5.83"/></svg>