<svg id="Light" xmlns="http://www.w3.org/2000/svg" viewBox="0 0 24 24"><defs><style>.cls-1{fill:none;stroke:#000;stroke-linecap:round;stroke-linejoin:round;}</style></defs><title>wild-bird-sing</title><path class="cls-1" d="M15.5,23.5c-2.5-5,.5-6,.5-10-.5-2-5-6.5-7-7A6.917,6.917,0,0,0,3,17c2,3.5.5,5.5,0,6.5"/><polyline class="cls-1" points="10.197 4.705 13 0.5 15 8.004 22 7.5 17.248 12.252"/><path class="cls-1" d="M9,11.25a.25.25,0,0,1,.25.25"/><path class="cls-1" d="M8.75,11.5A.25.25,0,0,1,9,11.25"/><path class="cls-1" d="M9,11.75a.25.25,0,0,1-.25-.25"/><path class="cls-1" d="M9.25,11.5a.25.25,0,0,1-.25.25"/></svg>