<svg id="Light" xmlns="http://www.w3.org/2000/svg" viewBox="0 0 24 24"><defs><style>.cls-1{fill:none;stroke:#000;stroke-linecap:round;stroke-linejoin:round;}</style></defs><title>wild-pig-body</title><path class="cls-1" d="M18.032,10.418a.25.25,0,0,1,.25.25"/><path class="cls-1" d="M17.782,10.668a.249.249,0,0,1,.25-.25"/><path class="cls-1" d="M18.032,10.918a.249.249,0,0,1-.25-.25"/><path class="cls-1" d="M18.282,10.668a.25.25,0,0,1-.25.25"/><path class="cls-1" d="M20.1,16.232c1,0,2.178-1.232,2.178-1.232V12a5.319,5.319,0,0,1-2.5-2.582A5.378,5.378,0,0,0,18.28,7.5l.5-3s-3,2-5,2h-7a5.5,5.5,0,0,0-5.5,5.5c0,3,1,4,2.5,5s1.5,3.5,1.5,3.5h2v-1a2,2,0,0,1,2-2h3a2,2,0,0,1,2,2v1h2c0-.535.015-.975.042-1.336"/><path class="cls-1" d="M3.419,7.648S.782,7,1.282,3.5"/><path class="cls-1" d="M16.282,15.5a3.033,3.033,0,0,0,2,2.5,4.869,4.869,0,0,0,4.5-.5,6.668,6.668,0,0,1-4.5-3.5S16.282,13,16.282,15.5Z"/></svg>