<svg id="Light" xmlns="http://www.w3.org/2000/svg" viewBox="0 0 24 24"><defs><style>.cls-1{fill:none;stroke:#000;stroke-linecap:round;stroke-linejoin:round;}</style></defs><title>wild-bird-owl</title><circle class="cls-1" cx="5" cy="15" r="4.5"/><circle class="cls-1" cx="19" cy="15" r="4.5"/><path class="cls-1" d="M12,23.5,9.75,20.125A2.436,2.436,0,0,1,12,19a2.438,2.438,0,0,1,2.25,1.125Z"/><path class="cls-1" d="M9.5,8.5s-9,0-9-8Z"/><path class="cls-1" d="M14.5,8.5l9-8C23.5,8.5,14.5,8.5,14.5,8.5Z"/><line class="cls-1" x1="0.5" y1="19.583" x2="0.5" y2="23.5"/><path class="cls-1" d="M3.284,6.5A11.5,11.5,0,0,0,1.236,9.943"/><line class="cls-1" x1="23.5" y1="19.583" x2="23.5" y2="23.5"/><path class="cls-1" d="M20.716,6.5a11.487,11.487,0,0,1,2.048,3.444"/><path class="cls-1" d="M18.77,4.7a11.5,11.5,0,0,0-13.54,0"/><circle class="cls-1" cx="5" cy="15" r="1.5"/><circle class="cls-1" cx="19" cy="15" r="1.5"/></svg>