<svg id="Light" xmlns="http://www.w3.org/2000/svg" viewBox="0 0 24 24"><defs><style>.cls-1{fill:none;stroke:#000;stroke-linecap:round;stroke-linejoin:round;}</style></defs><title>wildlife-protection-tree-shield</title><g id="_Group_" data-name="&lt;Group&gt;"><line class="cls-1" x1="17.5" y1="13.5" x2="17.5" y2="19.5"/><line class="cls-1" x1="20.5" y1="16.5" x2="14.5" y2="16.5"/><path class="cls-1" d="M18.035,23.4l.553-.21c2.63-1,4.912-3.524,4.912-6.338V13.456a1.044,1.044,0,0,0-.628-.958,15.814,15.814,0,0,0-5.394-1,15.521,15.521,0,0,0-5.35,1,1.044,1.044,0,0,0-.628.958v3.393c0,2.814,2.238,5.336,4.868,6.338l.553.21A1.561,1.561,0,0,0,18.035,23.4Z"/></g><path class="cls-1" d="M.5.5V3.339A2,2,0,0,0,1.508,5.076L7.5,8.5v9"/><path class="cls-1" d="M3.638,6.293,5.164,4A2,2,0,0,0,5.5,2.894V.5"/><path class="cls-1" d="M7.5,14l6-6.5h2a2,2,0,0,0,2-2V4"/><line class="cls-1" x1="13.5" y1="7.5" x2="13.5" y2="5"/><polyline class="cls-1" points="7.5 8.5 10 5 8 3"/><line class="cls-1" x1="10" y1="5" x2="11.5" y2="3"/><path class="cls-1" d="M7.5,12.5H3.937A2,2,0,0,1,2.4,11.78L.5,9.5"/><line class="cls-1" x1="3.093" y1="12.313" x2="4.5" y2="9.5"/><path class="cls-1" d="M10.5,20.5H.5c0-1.657,3.134-3,7-3a15.8,15.8,0,0,1,2,.124"/><path class="cls-1" d="M14.75,2.5a.25.25,0,0,1,.25.25"/><path class="cls-1" d="M14.5,2.75a.25.25,0,0,1,.25-.25"/><path class="cls-1" d="M14.75,3a.25.25,0,0,1-.25-.25"/><path class="cls-1" d="M15,2.75a.25.25,0,0,1-.25.25"/><path class="cls-1" d="M8.75.5A.25.25,0,0,1,9,.75"/><path class="cls-1" d="M8.5.75A.25.25,0,0,1,8.75.5"/><path class="cls-1" d="M8.75,1A.25.25,0,0,1,8.5.75"/><path class="cls-1" d="M9,.75A.25.25,0,0,1,8.75,1"/><path class="cls-1" d="M3.25,14.5a.25.25,0,0,1,.25.25"/><path class="cls-1" d="M3,14.75a.25.25,0,0,1,.25-.25"/><path class="cls-1" d="M3.25,15A.25.25,0,0,1,3,14.75"/><path class="cls-1" d="M3.5,14.75a.25.25,0,0,1-.25.25"/><path class="cls-1" d="M20.25,8.5a.25.25,0,0,1,.25.25"/><path class="cls-1" d="M20,8.75a.25.25,0,0,1,.25-.25"/><path class="cls-1" d="M20.25,9A.25.25,0,0,1,20,8.75"/><path class="cls-1" d="M20.5,8.75a.25.25,0,0,1-.25.25"/></svg>