<svg id="Light" xmlns="http://www.w3.org/2000/svg" viewBox="0 0 24 24"><defs><style>.cls-1{fill:none;stroke:#000;stroke-linecap:round;stroke-linejoin:round;}</style></defs><title>wild-bird-flamingo</title><path class="cls-1" d="M16.237,1.842A2.846,2.846,0,0,1,17.521,1.5a3.222,3.222,0,0,1,2.958,3H16.021"/><path class="cls-1" d="M5.293,9.524A4.383,4.383,0,0,1,8.521,8a4.769,4.769,0,0,1,3,1.056V3a2.5,2.5,0,1,1,2.5,2.5,2.561,2.561,0,0,1-.5-.05V11.5c0,2.485-2.515,4.5-5,4.5s-5-2.015-5-4.5h4.5a1.469,1.469,0,0,1,1.5,1.5"/><path class="cls-1" d="M14.021,2.75a.25.25,0,0,0-.25.25"/><path class="cls-1" d="M14.271,3a.25.25,0,0,0-.25-.25"/><path class="cls-1" d="M14.021,3.25a.25.25,0,0,0,.25-.25"/><path class="cls-1" d="M13.771,3a.25.25,0,0,0,.25.25"/><line class="cls-1" x1="9.521" y1="15.894" x2="9.521" y2="23.5"/><polyline class="cls-1" points="8.032 15.974 6.521 19.5 12.021 19.5 12.521 21"/><line class="cls-1" x1="10.521" y1="23.5" x2="8.521" y2="23.5"/></svg>