<svg id="Light" xmlns="http://www.w3.org/2000/svg" viewBox="0 0 24 24"><defs><style>.cls-1{fill:none;stroke:#000;stroke-linecap:round;stroke-linejoin:round;}</style></defs><title>wild-pig</title><path class="cls-1" d="M15.5,17c0,1.215-1.567,1.65-3.5,1.65S8.5,18.215,8.5,17s1.567-3.85,3.5-3.85S15.5,15.785,15.5,17Z"/><path class="cls-1" d="M8.5,17.15a2,2,0,0,1-4,0,7.889,7.889,0,0,1,1.5-4S7,17.15,8.5,17.15Z"/><path class="cls-1" d="M15.5,17.15a2,2,0,0,0,4,0,7.889,7.889,0,0,0-1.5-4S17,17.15,15.5,17.15Z"/><path class="cls-1" d="M8.75,9.9a.25.25,0,0,1,.25.25"/><path class="cls-1" d="M8.5,10.15a.25.25,0,0,1,.25-.25"/><path class="cls-1" d="M8.75,10.4a.25.25,0,0,1-.25-.25"/><path class="cls-1" d="M9,10.15a.25.25,0,0,1-.25.25"/><circle class="cls-1" cx="10.75" cy="16.4" r="0.25"/><circle class="cls-1" cx="13.25" cy="16.4" r="0.25"/><path class="cls-1" d="M15.25,9.9a.25.25,0,0,1,.25.25"/><path class="cls-1" d="M15,10.15a.25.25,0,0,1,.25-.25"/><path class="cls-1" d="M15.25,10.4a.25.25,0,0,1-.25-.25"/><path class="cls-1" d="M15.5,10.15a.25.25,0,0,1-.25.25"/><path class="cls-1" d="M6.5,19.15s1,3,5.5,3,5.5-3,5.5-3"/><path class="cls-1" d="M6,22.15a7.977,7.977,0,0,1-4.5-7,11.2,11.2,0,0,1,2.211-6.16S.921,4.65,2.579,4.09c1.048-.354,3.868.56,3.868.56L8.105,2.41,9.211,3.53l2.763-1.68,2.763,1.68,1.105-1.12L17.5,4.65s2.82-.914,3.868-.56c1.658.56-1.079,4.9-1.079,4.9a11.2,11.2,0,0,1,2.211,6.16,7.977,7.977,0,0,1-4.5,7"/></svg>