<svg id="Light" xmlns="http://www.w3.org/2000/svg" viewBox="0 0 24 24"><defs><style>.cls-1{fill:none;stroke:#000;stroke-linecap:round;stroke-linejoin:round;}</style></defs><title>wildlife-protection-tree-shield-1</title><path class="cls-1" d="M2.89,2.37A1.536,1.536,0,0,0,2,3.776v7.637A12.285,12.285,0,0,0,9.828,22.881L10.9,23.3a3.063,3.063,0,0,0,2.21,0l1.067-.414A12.285,12.285,0,0,0,22,11.413V3.776a1.536,1.536,0,0,0-.89-1.406A22.143,22.143,0,0,0,12,.5,22.143,22.143,0,0,0,2.89,2.37Z"/><path class="cls-1" d="M7,16.5c0-1.105,2.239-2,5-2s5,.9,5,2"/><path class="cls-1" d="M12,14.5V10L9.553,8.777A1,1,0,0,1,9,7.883V6"/><path class="cls-1" d="M12,10l2.64-2.2A1,1,0,0,0,15,7.033V6"/><line class="cls-1" x1="12" y1="12.501" x2="15" y2="10.501"/><line class="cls-1" x1="12" y1="13.501" x2="9" y2="11.501"/><line class="cls-1" x1="12" y1="10.001" x2="12" y2="6.001"/><path class="cls-1" d="M17.25,11a.25.25,0,0,1,.25.25"/><path class="cls-1" d="M17,11.251a.25.25,0,0,1,.25-.25"/><path class="cls-1" d="M17.25,11.5a.25.25,0,0,1-.25-.25"/><path class="cls-1" d="M17.5,11.251a.25.25,0,0,1-.25.25"/><path class="cls-1" d="M18.25,7a.25.25,0,0,1,.25.25"/><path class="cls-1" d="M18,7.251A.25.25,0,0,1,18.25,7"/><path class="cls-1" d="M18.25,7.5a.25.25,0,0,1-.25-.25"/><path class="cls-1" d="M18.5,7.251a.25.25,0,0,1-.25.25"/><path class="cls-1" d="M7.25,4.5a.25.25,0,0,1,.25.25"/><path class="cls-1" d="M7,4.751a.25.25,0,0,1,.25-.25"/><path class="cls-1" d="M7.25,5A.25.25,0,0,1,7,4.751"/><path class="cls-1" d="M7.5,4.751A.25.25,0,0,1,7.25,5"/><path class="cls-1" d="M6.75,10a.25.25,0,0,1,.25.25"/><path class="cls-1" d="M6.5,10.251A.25.25,0,0,1,6.75,10"/><path class="cls-1" d="M6.75,10.5a.25.25,0,0,1-.25-.25"/><path class="cls-1" d="M7,10.251a.25.25,0,0,1-.25.25"/></svg>