<svg id="Light" xmlns="http://www.w3.org/2000/svg" viewBox="0 0 24 24"><defs><style>.cls-1{fill:none;stroke:#000;stroke-linecap:round;stroke-linejoin:round;}</style></defs><title>wine-barrel</title><path class="cls-1" d="M13.638,17.188C16.61,16.714,18.5,15.784,18.5,15V6c0-1.1-3.753-2.5-9-2.5S.5,4.895.5,6v9c0,.784,1.89,1.714,4.862,2.188"/><path class="cls-1" d="M7.5,17.43c.637.045,1.3.07,2,.07s1.363-.025,2-.07"/><path class="cls-1" d="M7.5,17a.5.5,0,0,0-.5-.5H5.91a.5.5,0,0,0-.49.4l-.8,4a.5.5,0,0,0,.49.6H7a.5.5,0,0,0,.5-.5Z"/><path class="cls-1" d="M13.58,16.9a.5.5,0,0,0-.49-.4H12a.5.5,0,0,0-.5.5v4a.5.5,0,0,0,.5.5h1.89a.5.5,0,0,0,.49-.6Z"/><path class="cls-1" d="M18.5,13c0,.828-3.753,1.5-9,1.5s-9-.672-9-1.5"/><path class="cls-1" d="M.5,8c0-.828,3.753-1.5,9-1.5s9,.672,9,1.5"/><line class="cls-1" x1="0.5" y1="10.5" x2="18.5" y2="10.5"/><line class="cls-1" x1="9.5" y1="2.5" x2="9.5" y2="18.5"/><line class="cls-1" x1="3.5" y1="3.5" x2="3.5" y2="17.5"/><line class="cls-1" x1="15.5" y1="3.5" x2="15.5" y2="17.5"/><path class="cls-1" d="M23.5,14.5v-1a1,1,0,0,0-1-1h-4"/><line class="cls-1" x1="21.5" y1="12.5" x2="21.5" y2="11"/></svg>