<svg id="Light" xmlns="http://www.w3.org/2000/svg" viewBox="0 0 24 24"><defs><style>.cls-1{fill:none;stroke:#000;stroke-linecap:round;stroke-linejoin:round;}</style></defs><title>wine-restaurant</title><polyline class="cls-1" points="0.5 7.5 1.5 16.5 0.5 22.5"/><path class="cls-1" d="M1.5,16.5h4a1,1,0,0,1,1,1v5"/><polyline class="cls-1" points="23.5 7.5 22.5 16.5 23.5 22.5"/><path class="cls-1" d="M22.5,16.5h-4a1,1,0,0,0-1,1v5"/><line class="cls-1" x1="4.5" y1="11.5" x2="19.5" y2="11.5"/><line class="cls-1" x1="12" y1="11.5" x2="12" y2="20.5"/><path class="cls-1" d="M15.445,22.5a3.967,3.967,0,0,0-6.89,0"/><path class="cls-1" d="M10.5,5.5A2.292,2.292,0,0,1,8.5,8a2.292,2.292,0,0,1-2-2.5Z"/><line class="cls-1" x1="8.5" y1="8" x2="8.5" y2="11.5"/><path class="cls-1" d="M17.5,11.5h-4V6.4A2.978,2.978,0,0,1,14,4.75,2.978,2.978,0,0,0,14.5,3.1V2a.5.5,0,0,1,.5-.5h1a.5.5,0,0,1,.5.5V3.1A2.978,2.978,0,0,0,17,4.75,2.978,2.978,0,0,1,17.5,6.4Z"/></svg>