<svg id="Light" xmlns="http://www.w3.org/2000/svg" viewBox="0 0 24 24"><defs><style>.cls-1{fill:none;stroke:#000;stroke-linecap:round;stroke-linejoin:round;}</style></defs><title>wine-glass-bottle</title><path class="cls-1" d="M13,13.5v2.389a3.072,3.072,0,0,0,2.406,3.054A3,3,0,0,0,19,16V13.5a.5.5,0,0,0-.5-.5h-5A.5.5,0,0,0,13,13.5Z"/><line class="cls-1" x1="16" y1="19" x2="16" y2="23.5"/><line class="cls-1" x1="13.5" y1="23.5" x2="18.5" y2="23.5"/><path class="cls-1" d="M13,10.862a1,1,0,0,0-.232-.64L10.732,7.778a1,1,0,0,1-.232-.64V1.5a1,1,0,0,0-1-1h-1a1,1,0,0,0-1,1V7.138a1,1,0,0,1-.232.64L5.232,10.222a1,1,0,0,0-.232.64V22.5a1,1,0,0,0,1,1h5.5"/><line class="cls-1" x1="7.5" y1="3.5" x2="10.5" y2="3.5"/></svg>