<svg xmlns="http://www.w3.org/2000/svg" viewBox="0 0 24 24"><defs><style>.a{fill:none;stroke:#000;stroke-linecap:round;stroke-linejoin:round;}</style></defs><title>wireless-payment-smartphone</title><path class="a" d="M9.5,13.5h-8l.861-5.164A1,1,0,0,1,3.351,7.5H7.657a1,1,0,0,1,.986.836Z"/><path class="a" d="M.5,13.5H10a.5.5,0,0,1,.5.5v9.5"/><line class="a" x1="4.504" y1="9.5" x2="6.504" y2="9.5"/><line class="a" x1="5.504" y1="7.5" x2="5.504" y2="5.5"/><rect class="a" x="2.504" y="3.5" width="6" height="2" rx="0.5" ry="0.5"/><rect class="a" x="13.504" y="7.5" width="10" height="16" rx="1.5" ry="1.5"/><line class="a" x1="13.504" y1="19.5" x2="23.504" y2="19.5"/><path class="a" d="M22,1.915a6.36,6.36,0,0,0-8,0"/><path class="a" d="M15.671,4.325a3.711,3.711,0,0,1,4.666,0"/><path class="a" d="M18.754,21a.25.25,0,1,1-.25.25.25.25,0,0,1,.25-.25"/><line class="a" x1="0.504" y1="15.5" x2="10.504" y2="15.5"/><line class="a" x1="18.504" y1="15.5" x2="18.504" y2="16.5"/><line class="a" x1="18.504" y1="10.5" x2="18.504" y2="11.5"/><path class="a" d="M16.5,15.5h3a1,1,0,1,0,0-2h-2a1,1,0,0,1,0-2h3"/></svg>