<svg id="Light" xmlns="http://www.w3.org/2000/svg" viewBox="0 0 24 24"><defs><style>.cls-1{fill:none;stroke:#000;stroke-linecap:round;stroke-linejoin:round;}</style></defs><title>wolf-howl-1</title><path class="cls-1" d="M17.291,10.176,14.25,12a17.741,17.741,0,0,0,.5-3.5,2.229,2.229,0,0,0-1.5-2,22.869,22.869,0,0,1-2,3c-1.5,2-2.5,1.5-4,2s-2.5,3-2.5,3a3.1,3.1,0,0,0-2,1,19.542,19.542,0,0,0-2,2.5s2.5,1.5,4,0"/><path class="cls-1" d="M16.75,9.5l.709.886a2,2,0,0,1-.3,2.8c-.312.256-.628.533-.906.811a6.665,6.665,0,0,0-2,5,5.989,5.989,0,0,0,1.5,4"/><path class="cls-1" d="M2.833,18.667A26.537,26.537,0,0,1,1.75,23"/><path class="cls-1" d="M8.5,13.5a.25.25,0,0,1,.25.25"/><path class="cls-1" d="M8.25,13.75a.25.25,0,0,1,.25-.25"/><path class="cls-1" d="M8.5,14a.25.25,0,0,1-.25-.25"/><path class="cls-1" d="M8.75,13.75A.25.25,0,0,1,8.5,14"/><path class="cls-1" d="M16.25,3.5A4.5,4.5,0,0,1,20.75,8"/><path class="cls-1" d="M16.25,1a7,7,0,0,1,7,7"/></svg>