<svg id="Light" xmlns="http://www.w3.org/2000/svg" viewBox="0 0 24 24"><defs><style>.cls-1{fill:none;stroke:#000;stroke-linecap:round;stroke-linejoin:round;}</style></defs><title>wolf-body-howl</title><path class="cls-1" d="M19.75,20.907v-5.5c0-2,1.5-3,1.5-6V1.628a1,1,0,0,0-.684-.949L20.457.643A1,1,0,0,0,19.335,1c-1.661,2.272-2.158,1.514-3.085,2.9a13.532,13.532,0,0,0-1.5,4l2.5-1"/><path class="cls-1" d="M15.75,9.407s-.5,1.5-6,3c-3.051.832-3.5,4.5-3.5,7v4"/><path class="cls-1" d="M11.25,15.907s0,2.5-1.5,3.5a2.721,2.721,0,0,0-1.5,2.5v1.5"/><path class="cls-1" d="M10.6,18.468a18.137,18.137,0,0,0,6.15-2.561v5.108"/><path class="cls-1" d="M21.25,20.907c-7.5,0-9,.5-11,2.5"/><path class="cls-1" d="M8.008,13.407a4.892,4.892,0,0,0-4.258,5c0,4.5-1,4.5-1,4.5s2.5.5,3.5-1.5"/><path class="cls-1" d="M18.5,4.407a.25.25,0,0,1,.25.25"/><path class="cls-1" d="M18.25,4.657a.25.25,0,0,1,.25-.25"/><path class="cls-1" d="M18.5,4.907a.25.25,0,0,1-.25-.25"/><path class="cls-1" d="M18.75,4.657a.25.25,0,0,1-.25.25"/></svg>