<svg id="Light" xmlns="http://www.w3.org/2000/svg" viewBox="0 0 24 24"><defs><style>.cls-1,.cls-2{fill:none;stroke:#000;stroke-linecap:round;stroke-linejoin:round;}.cls-1{fill-rule:evenodd;}</style></defs><title>wolf-sit-1</title><path class="cls-1" d="M2.778,23.5V18a7.807,7.807,0,0,0-.672-3.423A14.5,14.5,0,0,1,.778,8.263V.5l2.5,2h3.5c1,0,1.5,1,2.5,1.5a23.543,23.543,0,0,0,2.5,1s.5,1.5-.5,2a25.363,25.363,0,0,1-4.5,1"/><path class="cls-1" d="M7.693,7.857S9.949,11.586,12.778,13c3,1.5,5,3.5,5,6.5s-2,4-3,4h-6"/><path class="cls-1" d="M11.278,16a4.547,4.547,0,0,0-.5,5.5"/><line class="cls-2" x1="5.778" y1="17.5" x2="5.778" y2="23.5"/><path class="cls-2" d="M17.778,19.5s2.5.5,4.5-2.5.5-7-1.5-8c0,3.5-1.209,7.4-3.209,8.9"/><path class="cls-2" d="M6.528,4.5a.25.25,0,0,1,.25.25"/><path class="cls-2" d="M6.278,4.75a.25.25,0,0,1,.25-.25"/><path class="cls-2" d="M6.528,5a.25.25,0,0,1-.25-.25"/><path class="cls-2" d="M6.778,4.75a.25.25,0,0,1-.25.25"/></svg>