<svg id="Light" xmlns="http://www.w3.org/2000/svg" viewBox="0 0 24 24"><defs><style>.cls-1{fill:none;stroke:#000;stroke-linecap:round;stroke-linejoin:round;}</style></defs><title>yoga-back-stretch</title><circle class="cls-1" cx="5.81" cy="21" r="2.5"/><path class="cls-1" d="M18.192,23.5H12.31a2.5,2.5,0,0,1-2.441-3.041l1.845-7.267a1.983,1.983,0,0,0,.042-.767L10.31,2a1.5,1.5,0,0,1,3,0l1.5,11a1.535,1.535,0,0,1-.046.369L12.952,20.5h4.431l-1.915-3.829a1.5,1.5,0,1,1,2.684-1.342l2.276,4.553A2.5,2.5,0,0,1,18.192,23.5Z"/><line class="cls-1" x1="14.479" y1="14.491" x2="11.509" y2="13.999"/><line class="cls-1" x1="14.81" y1="20.5" x2="14.81" y2="23.5"/></svg>