<svg id="Light" xmlns="http://www.w3.org/2000/svg" viewBox="0 0 24 24"><defs><style>.cls-1{fill:none;stroke:#000;stroke-linecap:round;stroke-linejoin:round;}</style></defs><title>yoga-arm-stretch</title><circle class="cls-1" cx="3" cy="11.997" r="2.5"/><path class="cls-1" d="M22.671,23.339a1.5,1.5,0,0,0,.671-2.013c-.386-.772-3.658-7.77-5.032-10.682A2,2,0,0,0,16.5,9.5h-6V2a1.5,1.5,0,0,0-3,0V22a1.5,1.5,0,0,0,3,0V14.5h3.323l-3.165,6.829a1.5,1.5,0,0,0,2.684,1.342L17,15l3.658,7.671A1.508,1.508,0,0,0,22.671,23.339Z"/></svg>