<svg id="Light" xmlns="http://www.w3.org/2000/svg" viewBox="0 0 24 24"><defs><style>.cls-1{fill:none;stroke:#000;stroke-linecap:round;stroke-linejoin:round;}</style></defs><title>yoga-down-stretch</title><path class="cls-1" d="M4.016,12.752A2.5,2.5,0,0,1,6.968,8.925"/><path class="cls-1" d="M20.752,18.063,14.366,8.484a.5.5,0,0,0-.408-.222.465.465,0,0,0-.415.21L6.724,18.1a1.5,1.5,0,0,1-1.224.633H2a1.5,1.5,0,0,1,0-3H4.466a.5.5,0,0,0,.408-.211L11.1,6.739A3.59,3.59,0,0,1,14,5.262,3.5,3.5,0,0,1,16.862,6.82L23.248,16.4a1.5,1.5,0,1,1-2.5,1.664Z"/><line class="cls-1" x1="12.708" y1="9.651" x2="10.315" y2="7.84"/><line class="cls-1" x1="8.848" y1="15.099" x2="6.455" y2="13.288"/></svg>