<svg xmlns="http://www.w3.org/2000/svg" viewBox="0 0 24 24"><title>3d-pen-box</title><path d="M14.5,11.663a.5.5,0,0,0-.737-.44L7.606,14.538a.251.251,0,0,1-.231,0L2.822,12.265a.25.25,0,0,1-.007-.444L7.974,9.044a1,1,0,1,0-.948-1.761l-6.5,3.5A1,1,0,0,0,0,11.677v7.736a.5.5,0,0,0,.264.441l7,3.75a.5.5,0,0,0,.236.059.505.505,0,0,0,.25-.066l6.5-3.75a.5.5,0,0,0,.25-.434Z"/><path d="M23.2,11.183a.249.249,0,0,1-.2-.245V3.163a2,2,0,0,0-2-2h-.5a.248.248,0,0,1-.193-.091c-.021-.025-.042-.05-.064-.074A2,2,0,0,0,17.412.852L11.847,5.879a1,1,0,0,0-.071,1.414l.028.031a.25.25,0,0,1-.02.355l-2.8,2.477a.751.751,0,0,0,1,1.124l2.846-2.516a.21.21,0,0,1,.3.016,1,1,0,0,0,1.414.073L20.1,3.826a2.009,2.009,0,0,0,.418-.531.25.25,0,0,1,.22-.132h.014a.25.25,0,0,1,.25.25v7.75a2,2,0,0,0,2,2,1,1,0,0,0,.2-1.98Z"/></svg>