<svg xmlns="http://www.w3.org/2000/svg" viewBox="0 0 24 24"><title>3d-print-cash</title><path d="M9.553,16.574a.248.248,0,0,0-.061-.2.253.253,0,0,0-.187-.084H2.25a.249.249,0,0,1-.25-.25V2.25A.25.25,0,0,1,2.25,2H8.273a.25.25,0,0,1,.25.25v.818a.411.411,0,0,0,.081.245L9.423,4.4a.409.409,0,0,0,.654,0L10.9,3.313a.411.411,0,0,0,.081-.245V2.25a.25.25,0,0,1,.25-.25H17.25a.25.25,0,0,1,.25.25v7a.25.25,0,0,0,.242.25,7.919,7.919,0,0,1,1.455.177.25.25,0,0,0,.3-.245V1.75A1.752,1.752,0,0,0,17.75,0h-16A1.752,1.752,0,0,0,0,1.75v16A1.752,1.752,0,0,0,1.75,19.5H9.437a.25.25,0,0,0,.244-.3A7.977,7.977,0,0,1,9.5,17.5,8.094,8.094,0,0,1,9.553,16.574Z"/><path d="M6.8,4.2a.75.75,0,0,0-1.061,1.06L6.766,6.28a.75.75,0,0,0,1.06-1.06Z"/><path d="M12.7,4.2,11.674,5.22a.75.75,0,0,0,1.06,1.06l1.024-1.023A.75.75,0,0,0,12.7,4.2Z"/><path d="M9.318,7.5l-3.5,6a.5.5,0,0,0,.432.752h3.78a.252.252,0,0,0,.227-.144,8.025,8.025,0,0,1,2-2.644.249.249,0,0,0,.052-.315L10.182,7.5A.519.519,0,0,0,9.318,7.5Z"/><path d="M17.5,11A6.5,6.5,0,1,0,24,17.5,6.508,6.508,0,0,0,17.5,11Zm-.75,10.5a.25.25,0,0,0-.25-.25H16a.75.75,0,0,1,0-1.5h2.033a.592.592,0,0,0,.22-1.141l-2.063-.825a2.092,2.092,0,0,1,.36-3.992.25.25,0,0,0,.2-.245v-.3a.75.75,0,0,1,1.5,0v.25a.25.25,0,0,0,.25.25H19a.75.75,0,0,1,0,1.5H16.967a.592.592,0,0,0-.22,1.141l2.063.825a2.092,2.092,0,0,1-.36,3.992.25.25,0,0,0-.2.245v.3a.75.75,0,0,1-1.5,0Z"/></svg>