<svg xmlns="http://www.w3.org/2000/svg" viewBox="0 0 24 24"><title>3d-print-tshirt</title><path d="M9,18.5a.5.5,0,0,0,.5.5h5a.5.5,0,0,0,.5-.5V14.9a.25.25,0,0,1,.389-.208l.334.223a.5.5,0,0,0,.724-.192l1-2a.5.5,0,0,0-.127-.608l-3-2.5a.5.5,0,0,0-.674.03A2.525,2.525,0,0,1,12,10.5a2.525,2.525,0,0,1-1.646-.854.5.5,0,0,0-.674-.03l-3,2.5a.5.5,0,0,0-.127.608l1,2a.5.5,0,0,0,.319.259.492.492,0,0,0,.4-.067l.334-.223A.25.25,0,0,1,9,14.9Z"/><path d="M24,2.5a1,1,0,0,0-1-1H14.75a.25.25,0,0,1-.25-.25V.5A.5.5,0,0,0,14,0H10a.5.5,0,0,0-.5.5v.75a.25.25,0,0,1-.25.25H1a1,1,0,0,0,0,2H9.565a.249.249,0,0,1,.221.133,2.506,2.506,0,0,0,1.077,1.058A.251.251,0,0,1,11,4.914v.054a.093.093,0,0,1-.083.093,9.495,9.495,0,1,0,10.476,8.011,1,1,0,0,0-1.977.3A7.5,7.5,0,1,1,12,7a1,1,0,0,0,1-1V4.914a.251.251,0,0,1,.137-.223,2.511,2.511,0,0,0,1.077-1.058.249.249,0,0,1,.221-.133H23A1,1,0,0,0,24,2.5Z"/></svg>