<svg xmlns="http://www.w3.org/2000/svg" viewBox="0 0 24 24"><title>3d-print-triangle</title><path d="M8.47,8.28A.75.75,0,1,0,9.53,7.22L8.28,5.97A.75.75,0,0,0,7.22,7.03Z"/><path d="M15,8.5a.744.744,0,0,0,.53-.22l1.25-1.25a.75.75,0,0,0-1.06-1.06L14.47,7.22A.75.75,0,0,0,15,8.5Z"/><path d="M22,0H2A2,2,0,0,0,0,2V22a2,2,0,0,0,2,2H22a2,2,0,0,0,2-2V2A2,2,0,0,0,22,0ZM10,2a.5.5,0,0,1,.5.5V4.867a.5.5,0,0,0,.1.3l1,1.334a.5.5,0,0,0,.8,0l1-1.334a.5.5,0,0,0,.1-.3V2.5A.5.5,0,0,1,14,2h7.5a.5.5,0,0,1,.5.5v17a.5.5,0,0,1-.5.5H2.5a.5.5,0,0,1-.5-.5V2.5A.5.5,0,0,1,2.5,2Zm3.25,20.75A.75.75,0,1,1,14,22,.75.75,0,0,1,13.25,22.75Zm3.5,0A.75.75,0,1,1,17.5,22,.75.75,0,0,1,16.75,22.75Zm3.5,0A.75.75,0,1,1,21,22,.75.75,0,0,1,20.25,22.75Z"/><path d="M7,18H17a.5.5,0,0,0,.424-.765l-5-8a.52.52,0,0,0-.848,0l-5,8A.5.5,0,0,0,7,18Z"/></svg>