<svg xmlns="http://www.w3.org/2000/svg" viewBox="0 0 24 24"><title>3d-print-warning</title><path d="M2.251,16.3a.249.249,0,0,1-.25-.25V2.25A.25.25,0,0,1,2.251,2H8.273a.25.25,0,0,1,.25.25v.818a.406.406,0,0,0,.082.245L9.423,4.4a.41.41,0,0,0,.655,0L10.9,3.313a.406.406,0,0,0,.082-.245V2.25a.25.25,0,0,1,.25-.25h6.023a.251.251,0,0,1,.25.25V9.76a.25.25,0,0,0,.23.249,2.949,2.949,0,0,1,1.383.469.251.251,0,0,0,.387-.209V1.75A1.753,1.753,0,0,0,17.751,0h-16A1.752,1.752,0,0,0,0,1.75v16a1.752,1.752,0,0,0,1.75,1.75h8.83a.253.253,0,0,0,.222-.134l1.419-2.7A.25.25,0,0,0,12,16.3Z"/><path d="M6.8,4.2a.75.75,0,0,0-1.06,1.06L6.766,6.28A.75.75,0,1,0,7.827,5.22Z"/><path d="M12.7,4.2,11.674,5.22a.75.75,0,0,0,1.061,1.06l1.023-1.023A.75.75,0,0,0,12.7,4.2Z"/><path d="M18.781,12.271a1.449,1.449,0,0,0-2.561,0l-5.055,9.634a1.426,1.426,0,0,0,.047,1.408A1.454,1.454,0,0,0,12.445,24H22.556a1.456,1.456,0,0,0,1.233-.686,1.428,1.428,0,0,0,.047-1.409ZM17.5,15.25a.75.75,0,0,1,.75.75v3a.75.75,0,0,1-1.5,0V16A.75.75,0,0,1,17.5,15.25Zm-1,6a1,1,0,1,1,1,1A1,1,0,0,1,16.5,21.25Z"/><path d="M10.182,7.5a.519.519,0,0,0-.863,0l-3.5,6a.5.5,0,0,0,.432.752h7a.5.5,0,0,0,.431-.752Z"/></svg>