<svg xmlns="http://www.w3.org/2000/svg" viewBox="0 0 24 24"><title>ac-heat</title><path d="M24,9.5a.5.5,0,0,0-.5-.5H.5a.5.5,0,0,0-.5.5V12a1,1,0,0,0,1,1H2.2a.5.5,0,0,1,.447.276L3.47,14.92a1.488,1.488,0,0,0,1.34.83H19.19a1.488,1.488,0,0,0,1.34-.83l.822-1.644A.5.5,0,0,1,21.8,13H23a1,1,0,0,0,1-1Zm-4.982,3.974a.5.5,0,0,1-.447.276H5.429a.5.5,0,0,1-.447-.276l-.5-1a.5.5,0,0,1,.447-.724H19.071a.5.5,0,0,1,.447.724Z"/><path d="M12.64,17.231a1,1,0,0,0-1.28,1.538c.189.157.276.229-.253,1.321-.447.924-1.2,2.471.253,3.679a1,1,0,0,0,1.28-1.538c-.165-.137-.248-.206.267-1.27C13.359,20.026,14.117,18.462,12.64,17.231Z"/><path d="M6.379,17.231A1,1,0,0,0,5.1,18.769c.189.157.276.229-.253,1.321-.448.924-1.2,2.471.253,3.679a1,1,0,0,0,1.28-1.538c-.165-.137-.248-.206.267-1.27C7.1,20.026,7.856,18.462,6.379,17.231Z"/><path d="M18.883,17.231a1,1,0,1,0-1.28,1.538c.189.157.275.229-.253,1.321-.448.924-1.2,2.471.253,3.679a1,1,0,0,0,1.28-1.538c-.165-.137-.248-.206.267-1.27C19.6,20.026,20.36,18.462,18.883,17.231Z"/><path d="M21.5,0H2.5A2.5,2.5,0,0,0,0,2.5V7a.5.5,0,0,0,.5.5h23A.5.5,0,0,0,24,7V2.5A2.5,2.5,0,0,0,21.5,0ZM17,5.5a1,1,0,1,1,1-1A1,1,0,0,1,17,5.5Zm3.5,0a1,1,0,1,1,1-1A1,1,0,0,1,20.5,5.5Z"/></svg>