<svg id="Bold" xmlns="http://www.w3.org/2000/svg" viewBox="0 0 24 24"><title>accessories-umbrella</title><path d="M22.98,1.93a3.336,3.336,0,0,0-4.6.133L15.023,5.616a.5.5,0,0,0-.03.651,3.775,3.775,0,0,0,.391.423,3.832,3.832,0,0,0,.445.367.5.5,0,0,0,.648-.068l3.354-3.553a1.285,1.285,0,0,1,1.776-.051,1.258,1.258,0,0,1,.052,1.776l-.388.411a1,1,0,0,0,1.455,1.372l.387-.41A3.26,3.26,0,0,0,22.98,1.93Z"/><path d="M21,13.118a4.4,4.4,0,0,1-3.47-3.67A.5.5,0,0,0,17.074,9a4.057,4.057,0,0,1-2.72-1.215,4.057,4.057,0,0,1-1.37-2.646.5.5,0,0,0-.477-.433A4.4,4.4,0,0,1,8.642,1.449a.5.5,0,0,0-.9-.091C4.533,6.716.463,14.308,1.627,19.484a.5.5,0,0,1-.124.453l-1.23,1.3a1,1,0,1,0,1.454,1.373l1.23-1.3a.5.5,0,0,1,.446-.15c5.234.864,12.579-3.636,17.743-7.148A.5.5,0,0,0,21,13.118Z"/></svg>