<svg id="Bold" xmlns="http://www.w3.org/2000/svg" viewBox="0 0 24 24"><title>accessories-necklace-1</title><path d="M20.125,15.509A.5.5,0,0,1,20,15.178V10.2a2.044,2.044,0,0,1,.053-.461A5.267,5.267,0,0,0,20.19,8.55,8.385,8.385,0,0,0,12,0,8.385,8.385,0,0,0,3.81,8.55a5.267,5.267,0,0,0,.137,1.191A2.044,2.044,0,0,1,4,10.2v4.976a.5.5,0,0,1-.125.331,1.5,1.5,0,1,0,2.25,0A.5.5,0,0,1,6,15.179V14.6a.25.25,0,0,1,.448-.153q.217.282.44.555A.5.5,0,0,1,7,15.315v3.863a.5.5,0,0,1-.125.331,1.5,1.5,0,1,0,2.25,0A.5.5,0,0,1,9,19.179V17.941a.25.25,0,0,1,.425-.179c.559.548,1.051,1,1.407,1.314A.5.5,0,0,1,11,19.45v1.728a.5.5,0,0,1-.125.331,1.5,1.5,0,1,0,2.25,0A.5.5,0,0,1,13,21.178V19.45a.5.5,0,0,1,.168-.374c.356-.316.848-.766,1.407-1.314a.25.25,0,0,1,.425.179v1.238a.5.5,0,0,1-.125.33,1.5,1.5,0,1,0,2.25,0A.5.5,0,0,1,17,19.178V15.315A.5.5,0,0,1,17.112,15q.222-.273.44-.555A.25.25,0,0,1,18,14.6v.582a.5.5,0,0,1-.125.33,1.5,1.5,0,1,0,2.25,0ZM12.34,17.126a.5.5,0,0,1-.68,0C9.427,15.055,5.81,11.152,5.81,8.55A6.384,6.384,0,0,1,12,2a6.384,6.384,0,0,1,6.19,6.55C18.19,11.152,14.573,15.055,12.34,17.126Z"/></svg>