<svg xmlns="http://www.w3.org/2000/svg" viewBox="0 0 24 24"><title>accounting-bill-stack-1</title><path d="M22.858,7.593,17.417,11.22a1,1,0,0,1-.555.168H11.02a.735.735,0,0,0,0,1.469h6.368a.735.735,0,0,0,.407-.123l5.878-3.919a.734.734,0,1,0-.815-1.222Z"/><path d="M22.858,10.776,17.417,14.4a1,1,0,0,1-.555.168H11.02a.735.735,0,0,0,0,1.47h6.368a.737.737,0,0,0,.407-.123L23.673,12a.735.735,0,1,0-.815-1.223Z"/><path d="M22.858,13.96l-5.441,3.627a1,1,0,0,1-.555.168H11.02a.735.735,0,0,0,0,1.469h6.368A.727.727,0,0,0,17.8,19.1l5.878-3.918a.735.735,0,1,0-.815-1.223Z"/><path d="M5.633,11.388H.735a.735.735,0,1,0,0,1.469h4.9a.735.735,0,0,0,0-1.469Z"/><path d="M5.633,14.571H.735a.735.735,0,0,0,0,1.47h4.9a.735.735,0,0,0,0-1.47Z"/><path d="M5.633,17.755H.735a.735.735,0,1,0,0,1.469h4.9a.735.735,0,0,0,0-1.469Z"/><path d="M11.516,9.184a.489.489,0,0,0,.49.489h5.382a.485.485,0,0,0,.271-.082l5.878-3.918a.49.49,0,0,0-.272-.9H17.878a.486.486,0,0,0-.272.082L11.734,8.772A.5.5,0,0,0,11.516,9.184Z"/><path d="M12.469,5.124A.489.489,0,0,0,12,4.776H6.653a.485.485,0,0,0-.271.082L.509,8.772a.492.492,0,0,0,.273.9h5.34a.486.486,0,0,0,.272-.082l5.878-3.918A.49.49,0,0,0,12.469,5.124Z"/></svg>