<svg xmlns="http://www.w3.org/2000/svg" viewBox="0 0 24 24"><title>accounting-invoice-hand</title><path d="M8.3,16.292a1,1,0,0,0,1-1v-.328a.248.248,0,0,1,.2-.244,2.6,2.6,0,0,0,.413-4.962l-2.476-.99A.61.61,0,0,1,7.66,7.592H10.1a1,1,0,0,0,0-2H9.55a.25.25,0,0,1-.25-.25v-.25a1,1,0,0,0-2,0v.327a.249.249,0,0,1-.2.244,2.6,2.6,0,0,0-.413,4.962l2.477.99a.61.61,0,0,1-.228,1.177H6.5a1,1,0,0,0,0,2h.55a.25.25,0,0,1,.25.25v.25A1,1,0,0,0,8.3,16.292Z"/><path d="M15.848,12.576a1,1,0,0,0,1.7-.712V2.292a2,2,0,0,0-2-2h-13a2,2,0,0,0-2,2v17.5a2,2,0,0,0,2,2h10.5a1,1,0,0,0,0-2H3.55a1,1,0,0,1-1-1V3.292a1,1,0,0,1,1-1h11a1,1,0,0,1,1,1v8.572a1,1,0,0,0,.3.712Z"/><path d="M13.028,15.638l.009.01L16.7,19.785a.249.249,0,0,1,.063.166V22.5a2.626,2.626,0,0,0,.306,1.071.251.251,0,0,0,.226.142H23.2a.25.25,0,0,0,.207-.391l-1.438-2.105a.255.255,0,0,1-.044-.141V15.239c0-1.332-1.178-2.633-2.46-3.723a.252.252,0,0,0-.268-.036.249.249,0,0,0-.144.228l.023,3.954a.251.251,0,0,0,.056.157.75.75,0,0,1-1.109,1.007l-3.4-3.354a.245.245,0,0,0-.076-.052,1.363,1.363,0,0,0-1.512.278A1.453,1.453,0,0,0,13.028,15.638Z"/></svg>