<svg xmlns="http://www.w3.org/2000/svg" viewBox="0 0 24 24"><title>accounting-coins-bill</title><path d="M22.632.5h-21a1,1,0,0,0-1,1V8.206a.251.251,0,0,0,.1.2.248.248,0,0,0,.22.039A16.775,16.775,0,0,1,5.368,8a22.92,22.92,0,0,1,3,.154.25.25,0,0,0,.282-.275A3.385,3.385,0,0,1,8.632,7.5a3.5,3.5,0,1,1,7,0c0,.626-.544,3.544-3.509,3.485a.252.252,0,0,0-.18.072.249.249,0,0,0-.075.178V14.25a.25.25,0,0,0,.25.25H22.632a1,1,0,0,0,1-1V1.5A1,1,0,0,0,22.632.5ZM4.132,5a1,1,0,1,1,1-1A1,1,0,0,1,4.132,5Zm16,7a1,1,0,1,1,1-1A1,1,0,0,1,20.132,12Z"/><path d="M5.368,21A15.669,15.669,0,0,1,.7,20.366a.249.249,0,0,0-.333.235v1.9c0,.553,2.238,1,5,1s5-.447,5-1V20.6a.25.25,0,0,0-.334-.236A15.667,15.667,0,0,1,5.368,21Z"/><path d="M.7,16.366a.249.249,0,0,0-.333.235v2.375A.248.248,0,0,0,.5,19.2a11.807,11.807,0,0,0,4.866.8,11.718,11.718,0,0,0,4.866-.807.25.25,0,0,0,.134-.221V16.6a.25.25,0,0,0-.334-.236A15.667,15.667,0,0,1,5.368,17,15.669,15.669,0,0,1,.7,16.366Z"/><path d="M.368,10.5v.476A.248.248,0,0,0,.5,11.2a11.807,11.807,0,0,0,4.866.8,11.718,11.718,0,0,0,4.866-.807.25.25,0,0,0,.134-.221V10.5c0-.552-2.239-1-5-1S.368,9.948.368,10.5Z"/><path d="M.7,12.366a.249.249,0,0,0-.333.235v2.375A.248.248,0,0,0,.5,15.2a11.807,11.807,0,0,0,4.866.8,11.718,11.718,0,0,0,4.866-.807.25.25,0,0,0,.134-.221V12.6a.25.25,0,0,0-.334-.236A15.667,15.667,0,0,1,5.368,13,15.669,15.669,0,0,1,.7,12.366Z"/></svg>