<svg xmlns="http://www.w3.org/2000/svg" viewBox="0 0 24 24"><title>ads-window</title><path d="M23,7.5a1,1,0,0,0-1,1v13a.5.5,0,0,1-.5.5H2.5a.5.5,0,0,1-.5-.5V2.5A.5.5,0,0,1,2.5,2H15.25a1,1,0,0,0,0-2H2A2,2,0,0,0,0,2V22a2,2,0,0,0,2,2H22a2,2,0,0,0,2-2V8.5A1,1,0,0,0,23,7.5Z"/><path d="M17.5,10.25H19a.75.75,0,0,0,0-1.5H17.5a2.16,2.16,0,0,0-2.25,2.05,3.1,3.1,0,0,0,1.841,2.579c.8.524,1.159.807,1.159,1.322,0,.3-.344.549-.75.549H16a.75.75,0,0,0,0,1.5h1.5A2.159,2.159,0,0,0,19.75,14.7a3.1,3.1,0,0,0-1.841-2.579c-.8-.524-1.159-.807-1.159-1.322C16.75,10.5,17.094,10.25,17.5,10.25Z"/><path d="M7.5,16.75A.75.75,0,0,0,8.25,16V10.8A2.16,2.16,0,0,0,6,8.75,2.16,2.16,0,0,0,3.75,10.8V16a.75.75,0,0,0,1.5,0V14.4a.25.25,0,0,1,.25-.25h1a.25.25,0,0,1,.25.25V16A.75.75,0,0,0,7.5,16.75Zm-1-4.1h-1a.25.25,0,0,1-.25-.25V10.8c0-.3.344-.55.75-.55s.75.252.75.55v1.6A.25.25,0,0,1,6.5,12.651Z"/><path d="M9.75,9.5V16a.75.75,0,0,0,.75.75A3.571,3.571,0,0,0,14.25,13.4V12.1A3.572,3.572,0,0,0,10.5,8.75.75.75,0,0,0,9.75,9.5Zm1.5,1.216a.251.251,0,0,1,.116-.211.248.248,0,0,1,.239-.016A1.83,1.83,0,0,1,12.75,12.1v1.3a1.829,1.829,0,0,1-1.145,1.61.249.249,0,0,1-.355-.226Z"/><path d="M23.707,1.708A1,1,0,0,0,22.293.293L21.177,1.41a.252.252,0,0,1-.354,0L19.707.293a1,1,0,0,0-1.414,1.415l1.116,1.116a.249.249,0,0,1,0,.353L18.293,4.293a1,1,0,0,0,1.414,1.415l1.116-1.117a.252.252,0,0,1,.354,0l1.116,1.117a1,1,0,1,0,1.414-1.415L22.591,3.177a.249.249,0,0,1,0-.353Z"/></svg>