<svg xmlns="http://www.w3.org/2000/svg" viewBox="0 0 24 24"><title>adventure-car-atv</title><path d="M23.2,14.645A.249.249,0,0,1,23,14.4V10.886a1.262,1.262,0,0,0-1.261-1.261H17a.406.406,0,0,1-.276-.171l-.606-1.211a1.118,1.118,0,0,0-2.118.5v5.882a.25.25,0,0,1-.25.25H8.25a.25.25,0,0,1-.25-.25v-3.5a1.5,1.5,0,0,0-.731-1.288.248.248,0,0,1-.1-.307L8.139,7.1A1.14,1.14,0,0,1,9.2,6.375H9.75a1,1,0,0,0,0-2H9.2A3.132,3.132,0,0,0,6.281,6.354L5.036,9.468a.25.25,0,0,1-.232.157H3.744a1.492,1.492,0,0,0-1.437,1.069L1.165,14.5A.173.173,0,0,1,1,14.625a1,1,0,0,0,0,2h.833a.251.251,0,0,0,.236-.167,3.11,3.11,0,0,1,6.044.925.25.25,0,0,0,.25.242h7.274a.25.25,0,0,0,.25-.242,3.11,3.11,0,0,1,6.044-.925.251.251,0,0,0,.236.167H23a1,1,0,0,0,.2-1.98Z"/><rect x="9" y="11.625" width="4" height="2.25" rx="0.5" ry="0.5"/><circle cx="5" cy="17.5" r="2.125"/><circle cx="19" cy="17.5" r="2.125"/></svg>