<svg xmlns="http://www.w3.org/2000/svg" viewBox="0 0 24 24"><title>adventure-car-1</title><path d="M22.218,10.1H21.5a.248.248,0,0,1-.243-.2l-.751-3.369a3.732,3.732,0,0,0-3.928-2.871c-4.142.368-8.406,2.186-12.674,5.4l-.2.206L.534,13.582a2.471,2.471,0,0,0,.958,3.791.251.251,0,0,0,.348-.182,3.478,3.478,0,0,1,6.869.191.25.25,0,0,0,.248.217h8.1a.251.251,0,0,0,.248-.217,3.485,3.485,0,0,1,3.45-3.033,3.428,3.428,0,0,1,1.564.384.251.251,0,0,0,.328-.094l1.1-1.839a1.784,1.784,0,0,0-1.528-2.7ZM16.067,7.837A1.752,1.752,0,0,0,14.05,8.974L12.5,13.431a.25.25,0,0,1-.236.168H10.713A2.123,2.123,0,0,1,9.3,13.07a.051.051,0,0,1-.016-.039.054.054,0,0,1,.019-.037l.416-.328a.252.252,0,0,1,.351.042l.075.1a1,1,0,1,0,1.571-1.236l-.848-1.078h0L9.914,9.277a1,1,0,1,0-1.57,1.236l.182.231a.252.252,0,0,1-.042.352l-.513.4a.248.248,0,0,1-.327-.015L6.293,10.19A.251.251,0,0,1,6.324,9.8C11.209,6.445,15.3,5.712,16.7,5.653a.25.25,0,0,1,.247.332l-.587,1.689A.251.251,0,0,1,16.067,7.837ZM18.19,12,17,13.186a.224.224,0,0,1-.369-.232l.516-1.483a.249.249,0,0,1,.334-.148l.627.268a.252.252,0,0,1,.147.183A.249.249,0,0,1,18.19,12Zm.827-2.341a.249.249,0,0,1-.258.037l-.648-.277a.251.251,0,0,1-.138-.312l.358-1.028a.25.25,0,0,1,.48.028l.29,1.3A.249.249,0,0,1,19.017,9.657Z"/><circle cx="5.259" cy="17.849" r="2.499"/><circle cx="20.751" cy="17.849" r="2.499"/></svg>