<svg id="Bold" xmlns="http://www.w3.org/2000/svg" viewBox="0 0 24 24"><title>advertising-billboard-house</title><path d="M23,1.5A1.5,1.5,0,0,0,21.5,0H2.5A1.5,1.5,0,0,0,1,1.5v16A1.5,1.5,0,0,0,2.5,19a.5.5,0,0,1,.5.5V23a1,1,0,0,0,1,1H6a1,1,0,0,0,1-1V19.5a.5.5,0,0,1,.5-.5h9a.5.5,0,0,1,.5.5V23a1,1,0,0,0,1,1h2a1,1,0,0,0,1-1V19.5a.5.5,0,0,1,.5-.5A1.5,1.5,0,0,0,23,17.5ZM18.97,9.672A.5.5,0,0,1,18.5,10h-1a.5.5,0,0,0-.5.5V15a.5.5,0,0,1-.5.5H14a.5.5,0,0,1-.5-.5V12.75a1.5,1.5,0,0,0-3,0V15a.5.5,0,0,1-.5.5H7.5A.5.5,0,0,1,7,15V10.5a.5.5,0,0,0-.5-.5h-1a.5.5,0,0,1-.323-.881l6.5-5.5a.5.5,0,0,1,.647,0l6.5,5.5A.5.5,0,0,1,18.97,9.672Z"/></svg>