<svg xmlns="http://www.w3.org/2000/svg" viewBox="0 0 24 24"><title>adventure-car-atv-1</title><path d="M5.255,14.125a3.75,3.75,0,1,0,3.75,3.75A3.755,3.755,0,0,0,5.255,14.125Zm0,4.75a1,1,0,1,1,1-1A1,1,0,0,1,5.255,18.875Z"/><path d="M18.255,14.125a3.75,3.75,0,1,0,3.75,3.75A3.755,3.755,0,0,0,18.255,14.125Zm0,4.75a1,1,0,1,1,1-1A1,1,0,0,1,18.255,18.875Z"/><path d="M23.921,15.036A5.965,5.965,0,0,0,22.1,12.919a.25.25,0,0,1-.1-.2V10.871a2.094,2.094,0,0,0-.569-1.38L21.04,9.1a.244.244,0,0,1-.07-.14,2.721,2.721,0,0,0-.777-1.536,2.774,2.774,0,0,0-1.943-.8h-.036a.25.25,0,0,1-.234-.162L16.867,3.492a1.777,1.777,0,0,0-1.612-1.117h-2a1,1,0,0,0,0,2h1.633a.25.25,0,0,1,.234.162l.655,1.746a.251.251,0,0,1-.234.338H14.25a.75.75,0,0,0-.75.75v3a.25.25,0,0,1-.25.25H9.005a.25.25,0,0,1-.25-.25v-4a1,1,0,1,0-2,0v2a.25.25,0,0,1-.25.25H2.42A1.422,1.422,0,0,0,1,10.041v3.166a.25.25,0,0,1-.079.182,5.851,5.851,0,0,0-.786.893.75.75,0,1,0,1.23.86,4.343,4.343,0,0,1,.85-.912l.005-.005.009-.006a4.74,4.74,0,0,1,7.137,1.269,1.226,1.226,0,0,0,1.084.633h2.61a1.225,1.225,0,0,0,1.079-.624,4.767,4.767,0,0,1,4.111-2.376,4.906,4.906,0,0,1,2.6.746h0l0,0a4.577,4.577,0,0,1,1.721,1.835.75.75,0,0,0,1.342-.67Z"/></svg>