<svg id="Bold" xmlns="http://www.w3.org/2000/svg" viewBox="0 0 24 24"><title>agriculture-machine-tractor-2</title><path d="M4.5,14.5A3.5,3.5,0,1,0,8,18,3.5,3.5,0,0,0,4.5,14.5Zm0,4.5a1,1,0,1,1,1-1A1,1,0,0,1,4.5,19Z"/><path d="M16.5,15.5a3,3,0,1,0,3,3A3,3,0,0,0,16.5,15.5Zm0,4a1,1,0,1,1,1-1A1,1,0,0,1,16.5,19.5Z"/><path d="M23.7,11.319,22.785,10.1a1.508,1.508,0,0,0-1.2-.6H15.12a1.5,1.5,0,0,0-1.248.668l-.205.308a.5.5,0,0,1-.694.139l-.1-.068a.5.5,0,0,1-.152-.673l.173-.288a.75.75,0,0,0-1.286-.772l-1.5,2.5a.75.75,0,0,0,1.286.772l.04-.066a.5.5,0,0,1,.706-.159l.058.039a.5.5,0,0,1,.187.6,2.484,2.484,0,0,0-.126,1.411l.1.491a.5.5,0,0,1-.491.6H9.978a.5.5,0,0,1-.421-.23,6.005,6.005,0,0,0-.841-1.034.5.5,0,0,1-.136-.471l1.79-7.6a.5.5,0,0,1,.218-.307.888.888,0,0,0,.386-.968A2.5,2.5,0,0,0,8.548,2.5h-6.1A2.5,2.5,0,0,0,.027,4.393a.889.889,0,0,0,.349.944.5.5,0,0,1,.206.342l.9,6.782a.5.5,0,0,1-.225.487A6.1,6.1,0,0,0,.214,13.8a.75.75,0,0,0,1.073,1.049A4.5,4.5,0,0,1,9,18v1a.5.5,0,0,0,.5.5h2.527a.5.5,0,0,0,.5-.555A4.091,4.091,0,0,1,12.5,18.5a4,4,0,0,1,7.975-.444.5.5,0,0,0,.5.444H21.3a1.5,1.5,0,0,0,1.456-1.136l.763-3.053A.249.249,0,0,0,23.281,14H20.75a.75.75,0,0,1,0-1.5h3a.251.251,0,0,0,.25-.244A1.5,1.5,0,0,0,23.7,11.319ZM8.092,6.615l-.824,3.5a.5.5,0,0,1-.487.385h-.56a.5.5,0,0,1-.474-.342L4.975,7.842A.5.5,0,0,0,4.5,7.5H3.28a.5.5,0,0,1-.495-.434l-.067-.5A.5.5,0,0,1,3.214,6H7.606a.5.5,0,0,1,.486.615Z"/></svg>