<svg id="Bold" xmlns="http://www.w3.org/2000/svg" viewBox="0 0 24 24"><title>agriculture-machine-seeder-1</title><path d="M4.808,13.856a.5.5,0,0,0-.429-.091l-3.621.9A1,1,0,0,0,0,15.641v.609a1,1,0,0,0,1,1H4.5a.5.5,0,0,0,.5-.5v-2.5A.5.5,0,0,0,4.808,13.856Z"/><path d="M13.5,12.75h-3a.5.5,0,0,0-.354.146.621.621,0,0,0-.172.534,1.984,1.984,0,0,1,.026.32v3a.5.5,0,0,0,.5.5h3a.5.5,0,0,0,.5-.5v-3a1.984,1.984,0,0,1,.026-.32.617.617,0,0,0-.172-.534A.5.5,0,0,0,13.5,12.75Z"/><path d="M1.487,18.288a.749.749,0,0,0-.948.475l-.5,1.5a.749.749,0,1,0,1.422.474l.5-1.5A.75.75,0,0,0,1.487,18.288Z"/><path d="M4.461,18.763a.749.749,0,1,0-1.422.474l.5,1.5a.749.749,0,1,0,1.422-.474Z"/><path d="M23.242,14.67l-3.621-.9a.5.5,0,0,0-.429.091A.5.5,0,0,0,19,14.25v2.5a.5.5,0,0,0,.5.5H23a1,1,0,0,0,1-1v-.609A1,1,0,0,0,23.242,14.67Z"/><path d="M23.461,18.763a.749.749,0,1,0-1.422.474l.5,1.5a.749.749,0,1,0,1.422-.474Z"/><path d="M20.487,18.288a.75.75,0,0,0-.948.475l-.5,1.5a.749.749,0,0,0,1.422.474l.5-1.5A.75.75,0,0,0,20.487,18.288Z"/><rect x="6" y="12.75" width="3" height="8.5" rx="1" ry="1"/><path d="M16.238,11.584a.5.5,0,0,0,.122-.363l-.341-4.834a.5.5,0,0,1,.16-.4A1,1,0,0,0,16.5,5.25V3.75a1,1,0,0,0-2,0v.5a.5.5,0,0,1-.5.5H10a.5.5,0,0,1-.5-.5v-.5a1,1,0,0,0-2,0v1.5a1,1,0,0,0,.322.734.5.5,0,0,1,.159.4l-.339,4.838a.5.5,0,0,0,.458.534,2.1,2.1,0,0,1,1.1.395.249.249,0,0,0,.4-.181l.29-3.762a.5.5,0,0,1,.5-.461h3.222a.5.5,0,0,1,.5.461l.289,3.758a.254.254,0,0,0,.147.209.248.248,0,0,0,.254-.029,2.018,2.018,0,0,1,1.1-.394A.5.5,0,0,0,16.238,11.584Z"/><rect x="15" y="12.75" width="3" height="8.5" rx="1" ry="1"/></svg>