<svg id="Bold" xmlns="http://www.w3.org/2000/svg" viewBox="0 0 24 24"><title>agriculture-machine-plow</title><path d="M23.821,8.1a1.007,1.007,0,0,0-.851-.475h-.191a.5.5,0,0,1-.5-.5v-.25a.75.75,0,0,0-1.5,0v.25a.5.5,0,0,1-.5.5H7.072a.5.5,0,0,1-.45-.281c-.231-.474-.465-.949-.7-1.416-.833-1.665-1.777-3.553-4.9-3.553a1,1,0,0,0,0,2c1.882,0,2.317.869,3.105,2.447,1.508,3.016,3.032,6.354,3.67,7.767a.5.5,0,0,1-.088.545,1,1,0,0,0-.224.391,1.016,1.016,0,0,0,.08.766l2.484,4.552a1.5,1.5,0,0,0,1.317.782h5.379a1,1,0,0,0,.539-1.842,5.389,5.389,0,0,1-1.6-1.435,5.521,5.521,0,0,1-.628-1.272,2.982,2.982,0,0,1-.071-1.7L16.09,11a.5.5,0,0,1,.485-.379h3.7a.5.5,0,0,1,.5.5v.25a.75.75,0,0,0,1.5,0v-.282a.5.5,0,0,1,.4-.489.992.992,0,0,0,.687-.532l.5-1A.991.991,0,0,0,23.821,8.1Zm-9.853,3.146L13.3,13.933a.5.5,0,0,1-.563.373,12.919,12.919,0,0,0-1.954-.181,4.3,4.3,0,0,0-.58.04.5.5,0,0,1-.523-.29c-.249-.553-.658-1.454-1.161-2.54a.5.5,0,0,1,.454-.71h4.514a.5.5,0,0,1,.485.621Z"/></svg>