<svg id="Bold" xmlns="http://www.w3.org/2000/svg" viewBox="0 0 24 24"><title>agriculture-machine-plowing</title><path d="M15,14a.5.5,0,0,0,.5-.5v-3a1,1,0,0,0-2,0v3a.5.5,0,0,0,.5.5Z"/><path d="M23.333,11.057A.5.5,0,0,1,23,10.586V1.5a1,1,0,0,0-1-1H21a1,1,0,0,0-.821.43,1,1,0,0,1-.259.255L5.833,10.744A1.482,1.482,0,0,1,5,11a1,1,0,0,0-.764.356.407.407,0,0,1-.31.144H1a1,1,0,0,0,0,2H3.883a.5.5,0,0,1,.373.166A1,1,0,0,0,5,14H8.279a.25.25,0,0,1,.18.424C6.089,16.88,5,17.409,5,19.5a4,4,0,0,0,6.874,2.779.5.5,0,0,0,.1-.551,5.494,5.494,0,0,1,0-4.456.5.5,0,0,0-.1-.551A4,4,0,0,0,9.92,15.607a.25.25,0,0,1-.123-.416l.754-.786A1.314,1.314,0,0,1,11.5,14a.5.5,0,0,0,.5-.5v-2a.5.5,0,0,0-.5-.5H9.832a.25.25,0,0,1-.141-.457l9.919-6.73A.25.25,0,0,1,20,4.02V10.5a.5.5,0,0,1-.5.5h-2a.5.5,0,0,0-.5.5v2.158a.5.5,0,0,1-.138.344C14.107,16.9,13,17.368,13,19.5a4,4,0,1,0,4.92-3.893.25.25,0,0,1-.123-.416l.847-.883A1,1,0,0,1,19.366,14H23a1,1,0,0,0,1-1V12A1,1,0,0,0,23.333,11.057Z"/></svg>