<svg id="Bold" xmlns="http://www.w3.org/2000/svg" viewBox="0 0 24 24"><title>agriculture-machine-seeder</title><path d="M23.058,14.017l-5.718-.573a.249.249,0,0,1-.222-.206L16.16,7.647a.25.25,0,0,1,.246-.293h.523a.5.5,0,0,0,.5-.5V1.977a.5.5,0,0,0-.5-.5H7.071a.5.5,0,0,0-.5.5V6.854a.5.5,0,0,0,.5.5h.523a.25.25,0,0,1,.246.293l-.958,5.591a.251.251,0,0,1-.222.206l-5.718.572a1.018,1.018,0,0,0-.92,1.016v1.093a1.023,1.023,0,0,0,1.021,1.022H9.207a.249.249,0,0,0,.25-.25V13.413a.225.225,0,0,0-.075-.167.228.228,0,0,0-.173-.057.224.224,0,0,1-.244-.262l.919-5.365a.251.251,0,0,1,.247-.208h3.738a.251.251,0,0,1,.247.208l.92,5.365a.229.229,0,0,1-.058.192.226.226,0,0,1-.187.07.225.225,0,0,0-.173.058.221.221,0,0,0-.075.167V16.9a.249.249,0,0,0,.25.25h8.685a.5.5,0,0,0,.5-.5V15.032A1.016,1.016,0,0,0,23.058,14.017Z"/><rect x="10.957" y="10.908" width="2.087" height="6.261" rx="0.25" ry="0.25"/><path d="M3.045,18.263A1,1,0,0,0,1.78,18.9l-.77,2.312a1,1,0,0,0,.633,1.265.989.989,0,0,0,.315.051,1,1,0,0,0,.949-.683l.771-2.313A1,1,0,0,0,3.045,18.263Z"/><path d="M6.761,18.9a1,1,0,0,0-1.9.632l.771,2.313a1,1,0,1,0,1.9-.633Z"/><path d="M10.754,18.263a.985.985,0,0,0-1.136.406.933.933,0,0,0-.129.226l-.771,2.312a1,1,0,0,0,1.9.633l.771-2.313a1.04,1.04,0,0,0-.632-1.264Z"/><path d="M13.205,18.263a1.042,1.042,0,0,0-.633,1.264l.771,2.313a1,1,0,0,0,.949.683.989.989,0,0,0,.315-.051,1,1,0,0,0,.633-1.265L14.47,18.9a.971.971,0,0,0-.13-.226A.985.985,0,0,0,13.205,18.263Z"/><path d="M22.178,18.9a1,1,0,0,0-1.9.632l.771,2.313a1,1,0,0,0,1.9-.633Z"/><path d="M18.462,18.263A1,1,0,0,0,17.2,18.9l-.771,2.312a1,1,0,0,0,1.9.633l.771-2.313A1,1,0,0,0,18.462,18.263Z"/></svg>