<svg id="Bold" xmlns="http://www.w3.org/2000/svg" viewBox="0 0 24 24"><title>agriculture-machine-seeder-3</title><rect x="9.25" y="7.5" width="6" height="1.5" rx="0.5" ry="0.5"/><path d="M22.75,10.5h-5a.5.5,0,0,0-.493.582l.222,1.336a.5.5,0,0,1-.111.405.5.5,0,0,1-.382.177H15.514a.5.5,0,0,1-.382-.177.5.5,0,0,1-.111-.405l.222-1.336a.5.5,0,0,0-.493-.582h-5a.5.5,0,0,0-.493.582l.222,1.336a.5.5,0,0,1-.111.405A.5.5,0,0,1,8.986,13H7.514a.5.5,0,0,1-.382-.177.5.5,0,0,1-.111-.405l.222-1.336A.5.5,0,0,0,6.75,10.5h-5a.5.5,0,0,0-.493.582l.5,3a.5.5,0,0,0,.493.418h2a.5.5,0,0,1,.5.5v6a1,1,0,0,0,2,0V15a.5.5,0,0,1,.5-.5h5a.5.5,0,0,1,.5.5v6a1,1,0,0,0,2,0V15a.5.5,0,0,1,.5-.5h5a.5.5,0,0,1,.5.5v6a1,1,0,0,0,2,0V14.372a4.038,4.038,0,0,1,.054-.658l.439-2.632a.5.5,0,0,0-.493-.582Z"/><path d="M18.25,17a1.5,1.5,0,0,0-1.5,1.5v4a1.5,1.5,0,0,0,3,0v-4A1.5,1.5,0,0,0,18.25,17Z"/><path d="M10.25,17a1.5,1.5,0,0,0-1.5,1.5v4a1.5,1.5,0,0,0,3,0v-4A1.5,1.5,0,0,0,10.25,17Z"/><path d="M2.25,17a1.5,1.5,0,0,0-1.5,1.5v4a1.5,1.5,0,0,0,3,0v-4A1.5,1.5,0,0,0,2.25,17Z"/><path d="M22.75,7.5h-1a.5.5,0,0,1-.5-.5V5.5a2,2,0,0,0-2-2h-1a.5.5,0,0,1-.5-.5V1.5A1.5,1.5,0,0,0,16.25,0h-8a1.5,1.5,0,0,0-1.5,1.5V3a.5.5,0,0,1-.5.5h-1a2,2,0,0,0-2,2V7a.5.5,0,0,1-.5.5h-1a.5.5,0,0,0-.5.5v.5a.5.5,0,0,0,.5.5h5a.5.5,0,0,0,.5-.5V8a.5.5,0,0,0-.5-.5h-1a.5.5,0,0,1-.5-.5V6a.5.5,0,0,1,.5-.5h1a1,1,0,0,1,.6.2,1.489,1.489,0,0,0,.9.3h8a1.489,1.489,0,0,0,.9-.3,1.006,1.006,0,0,1,.6-.2h1a.5.5,0,0,1,.5.5V7a.5.5,0,0,1-.5.5h-1a.5.5,0,0,0-.5.5v.5a.5.5,0,0,0,.5.5h5a.5.5,0,0,0,.5-.5V8A.5.5,0,0,0,22.75,7.5Zm-9-3.5a.5.5,0,0,1-.5.5H8.75a.5.5,0,0,1-.5-.5V2.5a.5.5,0,0,1,.5-.5h4.5a.5.5,0,0,1,.5.5Z"/></svg>