<svg id="Bold" xmlns="http://www.w3.org/2000/svg" viewBox="0 0 24 24"><title>agriculture-machine-rottary-tiller</title><path d="M16.669,7.436a7.117,7.117,0,0,1,2.215,1.979.25.25,0,0,0,.378.03l1.8-1.8a1.49,1.49,0,0,0,.439-1.06V4A1.5,1.5,0,0,0,20,2.5H16.5A.5.5,0,0,0,16,3V6.283A1.33,1.33,0,0,0,16.669,7.436Z"/><path d="M4.745,9.445a.25.25,0,0,0,.378-.03A7.125,7.125,0,0,1,7.337,7.436a1.329,1.329,0,0,0,.67-1.153V3a.5.5,0,0,0-.5-.5h-3.5A1.5,1.5,0,0,0,2.507,4V6.586a1.49,1.49,0,0,0,.439,1.06Z"/><path d="M23.25,15.7a.5.5,0,0,1-.25-.433V13a2,2,0,0,0-2-2h-.539a.5.5,0,0,0-.48.641,6.558,6.558,0,0,1,.2.928.5.5,0,0,0,.494.431.324.324,0,0,1,.324.324V19.25a.5.5,0,0,1-.5.5h-.354a.25.25,0,0,1-.231-.347,1,1,0,0,0-1.81-.85l-.46.921a.5.5,0,0,1-.447.276H15.979a.251.251,0,0,1-.23-.349,1,1,0,0,0-1.81-.848l-.46.921a.5.5,0,0,1-.448.276H11.812a.25.25,0,0,1-.209-.112.254.254,0,0,1-.022-.236,1,1,0,0,0-1.809-.849l-.46.921a.5.5,0,0,1-.448.276H7.646a.25.25,0,0,1-.23-.347,1,1,0,0,0-1.811-.85l-.46.921a.5.5,0,0,1-.447.276H3.5a.5.5,0,0,1-.5-.5V13.324A.324.324,0,0,1,3.324,13a.5.5,0,0,0,.494-.431,6.558,6.558,0,0,1,.2-.928A.5.5,0,0,0,3.539,11H3a2,2,0,0,0-2,2v2.268a.5.5,0,0,1-.25.433A1.5,1.5,0,0,0,0,17v4a1.5,1.5,0,0,0,2.67.937.5.5,0,0,1,.39-.187h.947l-.4.8a1,1,0,0,0,1.79.894l.71-1.421a.5.5,0,0,1,.447-.276H7.769a.25.25,0,0,1,.223.362l-.22.441a1,1,0,1,0,1.789.894l.71-1.421a.5.5,0,0,1,.448-.276h1.217a.25.25,0,0,1,.223.362l-.22.441a1,1,0,1,0,1.789.894l.71-1.421a.5.5,0,0,1,.448-.276H16.1a.25.25,0,0,1,.224.362l-.221.441a1,1,0,0,0,1.79.894l.71-1.421a.5.5,0,0,1,.447-.276H20.94a.5.5,0,0,1,.39.187A1.5,1.5,0,0,0,24,21V17A1.5,1.5,0,0,0,23.25,15.7Z"/><path d="M4.762,13.075,4.5,15.91a1,1,0,0,0,1.992.18l.258-2.835A4.139,4.139,0,0,1,8.819,10.04a4.346,4.346,0,0,0,1.828-2.047A4.3,4.3,0,0,0,11,6.283a.533.533,0,0,1,.533-.533h.934A.533.533,0,0,1,13,6.283a4.325,4.325,0,0,0,2.181,3.757,4.139,4.139,0,0,1,2.065,3.215L17.5,16.09A1,1,0,0,0,18.5,17c.03,0,.061,0,.091,0A1,1,0,0,0,19.5,15.91l-.258-2.835A6.138,6.138,0,0,0,16.173,8.3,2.324,2.324,0,0,1,15,6.283V1.75A1.752,1.752,0,0,0,13.25,0h-2.5A1.752,1.752,0,0,0,9,1.75V6.283a2.311,2.311,0,0,1-.19.92,2.338,2.338,0,0,1-.983,1.1A6.138,6.138,0,0,0,4.762,13.075Z"/></svg>