<svg id="Bold" xmlns="http://www.w3.org/2000/svg" viewBox="0 0 24 24"><title>agriculture-machine</title><path d="M17.6,3.777A.5.5,0,0,0,18.018,4h2.464a.5.5,0,0,0,.416-.223l.684-1.025A1,1,0,0,0,21.75,2.2V1a1,1,0,0,0-1-1h-3a1,1,0,0,0-1,1V2.2a1,1,0,0,0,.168.555Z"/><path d="M2.75,16H10a1,1,0,0,0,0-2H2.75a1,1,0,0,0,0,2Z"/><path d="M22.55,20.166a.5.5,0,0,1-.3-.458V12.5a1.5,1.5,0,0,0-1.125-1.453.5.5,0,0,1-.375-.484V6a.5.5,0,0,0-.5-.5h-2a.5.5,0,0,0-.5.5v4.5a.5.5,0,0,1-.5.5h-.5a1.5,1.5,0,0,0-1.5,1.5.5.5,0,0,1-.5.5h-1a1.5,1.5,0,0,0-1.5,1.5V16a1.5,1.5,0,0,1-1.5,1.5H.75a.5.5,0,0,0-.5.5v.5A1.5,1.5,0,0,0,1.75,20H4.337a.25.25,0,0,1,.158.444,2,2,0,1,0,2.51,0A.25.25,0,0,1,7.163,20H10.75a.5.5,0,0,1,.5.5v1a2,2,0,0,0,2,2h7a.5.5,0,0,1,.3.1,2,2,0,1,0,2-3.434Zm-2.056.278a2.019,2.019,0,0,0-.578.756.5.5,0,0,1-.458.3H13.75a.5.5,0,0,1-.5-.5v-.5a.5.5,0,0,1,.5-.5h6.586a.25.25,0,0,1,.158.444Z"/></svg>