<svg xmlns="http://www.w3.org/2000/svg" viewBox="0 0 24 24"><title>aircraft-propeller-2</title><path d="M23.5,1.125h-.79a.469.469,0,0,0-.35.15L19.573,4.053a.252.252,0,0,1-.176.072H14.171a.248.248,0,0,1-.235-.166,4.966,4.966,0,0,0-9.442.187.246.246,0,0,1-.149.159,2.392,2.392,0,0,0-1.32,1.183.251.251,0,0,1-.223.137H1.247a1,1,0,0,0,0,2H2.8a.252.252,0,0,1,.223.136A2.5,2.5,0,0,0,5.247,9.125H11.53a.253.253,0,0,1,.181.078l2.782,2.922a3.719,3.719,0,0,0,2.56,1.01h1.69a.5.5,0,0,0,.43-.24.484.484,0,0,0,.02-.48L17.47,9.5a.251.251,0,0,1,.216-.378H19a5,5,0,0,0,5-5v-2.5A.5.5,0,0,0,23.5,1.125ZM11.578,3.982a.25.25,0,0,1-.226.143H7.143a.249.249,0,0,1-.193-.409,2.965,2.965,0,0,1,4.6,0A.252.252,0,0,1,11.578,3.982Z"/><path d="M1,5.125a1,1,0,0,0,1-1v-2a1,1,0,0,0-2,0v2A1,1,0,0,0,1,5.125Z"/><path d="M1,12.125a1,1,0,0,0,1-1v-2a1,1,0,0,0-2,0v2A1,1,0,0,0,1,12.125Z"/><path d="M10.1,17.628a4.212,4.212,0,0,0-3.6-2A4.264,4.264,0,0,0,2.423,18.73,3.253,3.253,0,0,0,0,21.875a1.5,1.5,0,0,0,1.5,1.5H13a1.5,1.5,0,0,0,1.5-1.5A4.265,4.265,0,0,0,10.1,17.628Zm2.21,3.637a.249.249,0,0,1-.207.11H2.527a.226.226,0,0,1-.159-.386,1.22,1.22,0,0,1,.887-.364c.017-.006.1,0,.141-.009a1,1,0,0,0,.876-.915,2.236,2.236,0,0,1,4.32-.635,1.01,1.01,0,0,0,1.057.631.835.835,0,0,0,.1-.017,2.319,2.319,0,0,1,.5-.055,2.252,2.252,0,0,1,2.085,1.406A.247.247,0,0,1,12.311,21.265Z"/></svg>