<svg xmlns="http://www.w3.org/2000/svg" viewBox="0 0 24 24"><title>aircraft-chopper-1</title><path d="M11.02,5.633h7.592a.98.98,0,1,0,0-1.96H11.02a.244.244,0,0,1-.244-.244V2.694a.98.98,0,0,0-1.96,0v.735a.244.244,0,0,1-.245.244H.98a.98.98,0,1,0,0,1.96H8.571a.244.244,0,0,1,.245.245V7.347a.244.244,0,0,1-.245.245H8.327C4.226,7.592.98,10.964.98,13.96a4.769,4.769,0,0,0,1.185,3.055l0,0h0l0,0a4.265,4.265,0,0,0,.63.593.246.246,0,0,1,.092.225l-.3,2.274a.246.246,0,0,1-.243.214H1.959a.248.248,0,0,1-.2-.1A.979.979,0,0,0,0,20.816a1.471,1.471,0,0,0,1.469,1.47H12.735a.98.98,0,0,0,0-1.959h-.877a.247.247,0,0,1-.243-.215l-.242-1.968a.242.242,0,0,1,.121-.242,7.107,7.107,0,0,0,3.025-4.449.242.242,0,0,1,.183-.179l3.292-.746a.245.245,0,0,0,.13-.4,3.874,3.874,0,0,1-.981-2.576A3.825,3.825,0,0,1,17.5,7.94a.243.243,0,0,0-.015-.235.248.248,0,0,0-.207-.113H11.02a.244.244,0,0,1-.244-.245V5.878A.244.244,0,0,1,11.02,5.633ZM3.27,15.185a2.642,2.642,0,0,1-.331-1.225c0-1.938,2.454-4.409,5.388-4.409H9.1a.246.246,0,0,1,.238.3A7.4,7.4,0,0,1,3.53,15.309.244.244,0,0,1,3.27,15.185Zm6.3,5.059a.248.248,0,0,1-.184.083H4.823a.245.245,0,0,1-.242-.277l.191-1.469a.245.245,0,0,1,.243-.213H9.209a.244.244,0,0,1,.243.215l.182,1.469A.25.25,0,0,1,9.574,20.244Zm1.254-8.689c.072-.176.139-.353.2-.533a.249.249,0,0,1,.1-.126.694.694,0,0,1,.385-.12h.98a.735.735,0,0,1,0,1.469h-.98a.722.722,0,0,1-.691-.529A.247.247,0,0,1,10.828,11.555Z"/><path d="M23.02,8.571H21.768a.245.245,0,0,1-.212-.122l-.871-1.51a.98.98,0,0,0-1.7.98l.871,1.51a.242.242,0,0,1,0,.244l-.871,1.509a.98.98,0,0,0,1.7.98l.871-1.509a.245.245,0,0,1,.212-.122H23.02a.98.98,0,0,0,0-1.96Z"/></svg>