<svg xmlns="http://www.w3.org/2000/svg" viewBox="0 0 24 24"><title>aircraft-military-plane-2</title><path d="M21.25,6.631H17.212a.25.25,0,0,0-.236.331,5.159,5.159,0,0,1,.244,2.249l-.459,4.143a.249.249,0,0,0,.248.277H21.25a2.5,2.5,0,0,0,2.5-2.5v-2A2.5,2.5,0,0,0,21.25,6.631Z"/><path d="M7.177,13.548a.247.247,0,0,0,.062-.194L6.78,9.212h0a5.158,5.158,0,0,1,.244-2.249.25.25,0,0,0-.236-.331H2.75a2.5,2.5,0,0,0-2.5,2.5v2a2.5,2.5,0,0,0,2.5,2.5H6.991A.249.249,0,0,0,7.177,13.548Z"/><path d="M8.077,20.861l-.315-2.837a.252.252,0,0,0-.325-.211A3.485,3.485,0,0,0,5.07,20.43a1,1,0,0,0,.98,1.2H7.914a.251.251,0,0,0,.244-.309A3.638,3.638,0,0,1,8.077,20.861Z"/><path d="M16.563,17.813a.252.252,0,0,0-.325.211l-.315,2.837a3.638,3.638,0,0,1-.081.459.251.251,0,0,0,.244.309H17.95a1,1,0,0,0,.98-1.2A3.486,3.486,0,0,0,16.563,17.813Z"/><path d="M15.3,5.964a.253.253,0,0,0-.194-.093H8.9a.248.248,0,0,0-.194.093A4.21,4.21,0,0,0,7.776,9.1l1.3,11.652a2.947,2.947,0,0,0,5.858,0L16.224,9.1A4.215,4.215,0,0,0,15.3,5.964Zm-1.285,3.5c-.385,3.444-.1,3-1.62,5.2a.529.529,0,0,1-.87,0c-1.425-2.074-1.266-1.777-1.538-5.2a2.025,2.025,0,1,1,4.028,0Z"/><path d="M7,3.371H9.444a.221.221,0,0,1,.168.079.223.223,0,0,1,.047.179c-.067.368-.106.707-.129.971a.249.249,0,0,0,.25.271h4.44a.252.252,0,0,0,.25-.271c-.022-.256-.059-.581-.122-.935a.25.25,0,0,1,.246-.294H17a1,1,0,0,0,0-2H13.569a.25.25,0,0,1-.188-.085,1.78,1.78,0,0,0-2.762,0,.25.25,0,0,1-.188.085H7a1,1,0,0,0,0,2Z"/></svg>