<svg xmlns="http://www.w3.org/2000/svg" viewBox="0 0 24 24"><title>aircraft-water-plane</title><path d="M5.069,12.01a.251.251,0,0,1,.26.052l.9.85a.25.25,0,0,0,.416-.126,5.472,5.472,0,0,1,1.1-2.253.25.25,0,0,0-.022-.339l-.337-.32a.248.248,0,0,1-.066-.258A3.615,3.615,0,0,0,7.5,8.5a3.751,3.751,0,1,0-2.431,3.51ZM2,8.5a1.75,1.75,0,1,1,1.75,1.75A1.752,1.752,0,0,1,2,8.5Z"/><path d="M20.25,4.75A3.755,3.755,0,0,0,16.5,8.5a3.615,3.615,0,0,0,.184,1.116.248.248,0,0,1-.066.258l-.337.32a.249.249,0,0,0-.022.339,5.472,5.472,0,0,1,1.1,2.253.25.25,0,0,0,.416.126l.9-.85a.251.251,0,0,1,.26-.052A3.75,3.75,0,1,0,20.25,4.75Zm0,5.5A1.75,1.75,0,1,1,22,8.5,1.752,1.752,0,0,1,20.25,10.25Z"/><path d="M22.2,15.605a1,1,0,0,0-1.342.448l-.329.658a1.418,1.418,0,0,1-1.276.789H15.436a.25.25,0,0,1-.181-.423A4.438,4.438,0,0,0,16.5,14a4.489,4.489,0,0,0-2.919-4.192A.249.249,0,0,1,13.42,9.6l-.084-.926-.082-.9A.25.25,0,0,1,13.5,7.5h1.222a.774.774,0,0,0,.152-1.534L13.2,5.631a.2.2,0,0,1-.161-.179,1.047,1.047,0,0,0-2.086,0,.2.2,0,0,1-.16.178l-1.673.335A.774.774,0,0,0,9.275,7.5H10.5a.25.25,0,0,1,.249.273l-.082.9L10.58,9.6a.248.248,0,0,1-.161.211A4.489,4.489,0,0,0,7.5,14a4.438,4.438,0,0,0,1.245,3.077.25.25,0,0,1-.181.423H4.75a1.418,1.418,0,0,1-1.276-.789l-.329-.658a1,1,0,0,0-1.79.894l.33.658A3.407,3.407,0,0,0,4.75,19.5h14.5a3.407,3.407,0,0,0,3.065-1.895l.33-.658A1,1,0,0,0,22.2,15.605ZM13.25,14h-2.5a.75.75,0,0,1,0-1.5h2.5a.75.75,0,0,1,0,1.5Z"/></svg>