<svg xmlns="http://www.w3.org/2000/svg" viewBox="0 0 24 24"><title>airport-stairs</title><path d="M.833,2.75a2.5,2.5,0,0,0,2.5,2.5H9.674a1,1,0,0,1,.919.606l5.1,10.119a.5.5,0,0,0,.446.275H21.5a.5.5,0,0,0,.441-.735L14.1.822A1,1,0,0,0,13.2.25H3.333A2.5,2.5,0,0,0,.833,2.75Z"/><path d="M6,9.75a.5.5,0,0,0,.5.5h2a.5.5,0,0,0,.5-.5,1.5,1.5,0,0,0-3,0Z"/><circle cx="5" cy="21.75" r="2"/><path d="M24,18.25a.5.5,0,0,0-.5-.5H11a.5.5,0,0,1-.5-.5v-5.5a.5.5,0,0,0-.5-.5H4.5a.5.5,0,0,0-.426.238l-4,6.5A.492.492,0,0,0,0,18.25v3a.5.5,0,0,0,.5.5H1.536a.5.5,0,0,0,.494-.428,3,3,0,0,1,5.94,0,.5.5,0,0,0,.494.428h7.072a.5.5,0,0,0,.494-.428,3,3,0,0,1,5.94,0,.5.5,0,0,0,.494.428H23.5a.5.5,0,0,0,.5-.5ZM8.561,15.087a.419.419,0,0,1-.419.418H4.479a.418.418,0,0,1-.361-.63L5.1,13.2A.418.418,0,0,1,5.457,13H8.142a.42.42,0,0,1,.419.418Z"/><circle cx="19" cy="21.75" r="2"/></svg>