<svg xmlns="http://www.w3.org/2000/svg" viewBox="0 0 24 24"><title>allowances-no-bikinis</title><path d="M6.322,14.87l-.246.913a.5.5,0,0,0,.3.6,10.821,10.821,0,0,1,4.342,3.142,5.78,5.78,0,0,1,.588.848.25.25,0,0,0,.219.13h.879a.25.25,0,0,0,.219-.13,5.78,5.78,0,0,1,.588-.848,9.891,9.891,0,0,1,.913-.968.25.25,0,0,0,.007-.36l-3.621-3.621a.251.251,0,0,0-.177-.073H6.805A.5.5,0,0,0,6.322,14.87Z"/><path d="M6.488,11.866a3.911,3.911,0,0,0,1.939.622L6.405,10.465a6.62,6.62,0,0,0-.154.929A.524.524,0,0,0,6.488,11.866Z"/><path d="M24,12A12,12,0,1,0,12,24,12.013,12.013,0,0,0,24,12ZM12,2a9.984,9.984,0,0,1,7.5,16.589l-2.132-2.132c.062-.026.132-.057.185-.077a.5.5,0,0,0,.3-.6l-.247-.913a.5.5,0,0,0-.483-.37H15.414l-2.559-2.559a3.923,3.923,0,0,0,4.157-.075.524.524,0,0,0,.237-.472,5.367,5.367,0,0,0-1.281-3.239V5.5a.75.75,0,0,0-1.5,0V7.957a5.714,5.714,0,0,0-2.167,3.43L10.494,9.58A5.5,5.5,0,0,0,9.032,7.957V5.5a.75.75,0,0,0-1.5,0V6.618L5.411,4.5A9.948,9.948,0,0,1,12,2Zm0,20A10.011,10.011,0,0,1,2,12,9.835,9.835,0,0,1,4.048,5.962l13.99,13.99A9.806,9.806,0,0,1,12,22Z"/></svg>