<svg xmlns="http://www.w3.org/2000/svg" viewBox="0 0 24 24"><title>allowances-no-food-1</title><path d="M11.3,5.045a.75.75,0,0,0-.75.75v4.5a.5.5,0,0,1-1,0V5.8a.75.75,0,0,0-1.5,0v4.5a.5.5,0,0,1-1,0V5.8a.75.75,0,0,0-1.5,0v4.5a3.248,3.248,0,0,0,2.167,3.056.5.5,0,0,1,.333.471V18.8a.75.75,0,0,0,1.5,0V13.822a.5.5,0,0,1,.333-.471A3.248,3.248,0,0,0,12.045,10.3V5.8A.75.75,0,0,0,11.3,5.045Z"/><path d="M14.3,5.05a.75.75,0,0,0-.75.75v13a.75.75,0,0,0,1.5,0V15.05a.5.5,0,0,1,.5-.5h1.211A1.251,1.251,0,0,0,18,13.145C17.986,13.063,16.7,5.05,14.3,5.05Z"/><path d="M12,0A12,12,0,1,0,24,12,12.013,12.013,0,0,0,12,0Zm0,22a9.94,9.94,0,0,1-5.806-1.867.5.5,0,0,1-.062-.761l.807-.808A1,1,0,0,0,5.525,17.15l-.824.825a.5.5,0,0,1-.757-.058A9.994,9.994,0,0,1,17.917,3.945a.5.5,0,0,1,.058.756l-.746.746a1,1,0,0,0,1.414,1.414l.729-.729a.5.5,0,0,1,.761.062A9.991,9.991,0,0,1,12,22Z"/></svg>