<svg xmlns="http://www.w3.org/2000/svg" viewBox="0 0 24 24"><title>allowances-no-food</title><path d="M12,0A12,12,0,1,0,24,12,12.013,12.013,0,0,0,12,0ZM20.1,17.862a.5.5,0,0,1-.759.06l-1.973-1.973a1,1,0,1,0-1.414,1.414l1.973,1.973a.5.5,0,0,1-.06.759A9.993,9.993,0,0,1,3.905,6.138a.5.5,0,0,1,.759-.06l1,1A1,1,0,1,0,7.079,5.664l-1-1a.5.5,0,0,1,.06-.759A9.993,9.993,0,0,1,20.1,17.862Z"/><path d="M12.522,13.1a.5.5,0,0,0-.545,0,3.978,3.978,0,0,1-2.171.647.465.465,0,0,0-.44.617l1.959,5.663a1,1,0,0,0,1.889,0l1.953-5.617a.5.5,0,0,0-.473-.664A3.979,3.979,0,0,1,12.522,13.1Z"/><path d="M15.983,7.042a.5.5,0,0,1-.281-.37,3.492,3.492,0,0,0-6.89,0,.5.5,0,0,1-.282.368A3,3,0,1,0,11.9,11.891a.5.5,0,0,1,.7,0,3,3,0,1,0,3.384-4.849Z"/></svg>