<svg xmlns="http://www.w3.org/2000/svg" viewBox="0 0 24 24"><title>allowances-no-pushing</title><circle cx="11.616" cy="4.408" r="2.204"/><path d="M6.093,18.612a1.224,1.224,0,0,0,1.107-.7l1.25-2.654a.243.243,0,0,1,.307-.125l1.758.66a.244.244,0,0,1,.141.32l-.329.823a1.224,1.224,0,0,0,1.136,1.679h0a1.223,1.223,0,0,0,1.136-.769l.3-.754a.244.244,0,0,0-.055-.264L7.76,11.738a.244.244,0,0,0-.394.069l-2.381,5.06A1.224,1.224,0,0,0,6.093,18.612Z"/><path d="M24,12A12,12,0,1,0,12,24,12.013,12.013,0,0,0,24,12ZM12,1.959a9.957,9.957,0,0,1,5.979,1.994.243.243,0,0,1,.086.273.245.245,0,0,1-.232.168H16.408a.98.98,0,0,0-.979.979V7.015a.244.244,0,0,0,.157.229,2.188,2.188,0,0,1,0,4.1.246.246,0,0,0-.157.229v2.373a.245.245,0,0,1-.418.173L12.392,11.5l-.98-.979H14.8a1.225,1.225,0,1,0,0-2.449H9.9a1.187,1.187,0,0,0-.555.14.244.244,0,0,1-.287-.044l-.551-.55-2.95-2.95a.242.242,0,0,1-.071-.185A.246.246,0,0,1,5.575,4.3,9.981,9.981,0,0,1,12,1.959Zm5.89,17.806a.245.245,0,0,1-.029.371,9.575,9.575,0,0,1-1.037.666,9.979,9.979,0,0,1-10.065-.253.245.245,0,0,1,.128-.453h7.039a.734.734,0,0,0,.735-.747h0a.735.735,0,0,0-.735-.722H4.587a.243.243,0,0,1-.185-.085A9.993,9.993,0,0,1,3.2,7.176a9.575,9.575,0,0,1,.666-1.037.245.245,0,0,1,.371-.029Zm1.494-1.277a.122.122,0,0,1-.037-.089l0-12.561a.245.245,0,0,1,.435-.155,9.975,9.975,0,0,1-.171,12.842.132.132,0,0,1-.091.044.125.125,0,0,1-.093-.037Z"/></svg>