<svg id="Bold" xmlns="http://www.w3.org/2000/svg" viewBox="0 0 24 24"><title>ambulance-helicopter</title><path d="M3.27,4.625H17.25a1,1,0,0,0,0-2H11.77a.5.5,0,0,1-.5-.5v-.25a1,1,0,0,0-2,0v.25a.5.5,0,0,1-.5.5H3.27a1,1,0,1,0,0,2Z"/><path d="M20.5,4.875a3.481,3.481,0,0,0-3.2,2.1.249.249,0,0,1-.229.151h-5.3a.5.5,0,0,1-.5-.5v-.5a.5.5,0,0,0-.5-.5h-1a.5.5,0,0,0-.5.5v.5a.5.5,0,0,1-.5.5H8.5a8.506,8.506,0,0,0-8.5,8.5,2.5,2.5,0,0,0,2.5,2.5h.3a.5.5,0,0,1,.463.688l-.817,2.01a.455.455,0,0,1-.041.079.25.25,0,0,1-.45-.063A1,1,0,0,0,0,21.125a2,2,0,0,0,2,2H12a2,2,0,0,0,2-2,1,1,0,0,0-1.958-.286.25.25,0,0,1-.45.064.516.516,0,0,1-.042-.081l-.877-2.16A.5.5,0,0,1,11,17.991c.58-.16.788-.5.888-1.166.394-2.579,4.905-5.469,5.864-6a.25.25,0,0,1,.3.042A3.45,3.45,0,0,0,20.5,11.875a3.5,3.5,0,0,0,0-7ZM9.186,20.9a.5.5,0,0,1-.415.221H5.229a.5.5,0,0,1-.463-.688L5.552,18.5l.016-.042a.5.5,0,0,1,.472-.334H7.961a.5.5,0,0,1,.471.333l.016.043.786,1.936A.5.5,0,0,1,9.186,20.9Zm1.064-7.529a.25.25,0,0,1-.25.25H8.5a.25.25,0,0,0-.25.25v1.5a.25.25,0,0,1-.25.25H6.5a.25.25,0,0,1-.25-.25v-1.5a.25.25,0,0,0-.25-.25H4.5a.25.25,0,0,1-.25-.25v-1.5a.25.25,0,0,1,.25-.25H6a.25.25,0,0,0,.25-.25v-1.5a.25.25,0,0,1,.25-.25H8a.25.25,0,0,1,.25.25v1.5a.25.25,0,0,0,.25.25H10a.25.25,0,0,1,.25.25Zm10.25-3.5a1.5,1.5,0,1,1,1.5-1.5A1.5,1.5,0,0,1,20.5,9.875Z"/></svg>