<svg id="Bold" xmlns="http://www.w3.org/2000/svg" viewBox="0 0 24 24"><title>ambulance-human</title><path d="M23.25,6.5h-2a.5.5,0,0,1-.5-.5V4a.5.5,0,0,0-.5-.5h-2a.5.5,0,0,0-.5.5V6a.5.5,0,0,1-.5.5h-2a.5.5,0,0,0-.5.5V9a.5.5,0,0,0,.5.5h2a.5.5,0,0,1,.5.5v2a.5.5,0,0,0,.5.5h2a.5.5,0,0,0,.5-.5V10a.5.5,0,0,1,.5-.5h2a.5.5,0,0,0,.5-.5V7A.5.5,0,0,0,23.25,6.5Z"/><path d="M12.125,2.547a.5.5,0,0,1-.375-.483V1a1,1,0,0,0-2,0V2a.5.5,0,0,1-.5.5h-5a.5.5,0,0,1-.5-.5V1a1,1,0,0,0-2,0V2.064a.5.5,0,0,1-.375.483A1.5,1.5,0,0,0,.25,4V20a1.5,1.5,0,0,0,1.125,1.452.5.5,0,0,1,.375.484V23a1,1,0,0,0,2,0V22a.5.5,0,0,1,.5-.5h5a.5.5,0,0,1,.5.5v1a1,1,0,0,0,2,0V21.936a.5.5,0,0,1,.375-.484A1.5,1.5,0,0,0,13.25,20V4A1.5,1.5,0,0,0,12.125,2.547ZM6.75,5A1.75,1.75,0,1,1,5,6.75,1.751,1.751,0,0,1,6.75,5Zm3,9a.5.5,0,0,1-.5.5H8.7a.5.5,0,0,0-.5.445l-.4,3.611A.5.5,0,0,1,7.3,19H6.2a.5.5,0,0,1-.5-.445l-.4-3.611a.5.5,0,0,0-.5-.445H4.25a.5.5,0,0,1-.5-.5V12.5a3,3,0,0,1,6,0Z"/></svg>