<svg id="Bold" xmlns="http://www.w3.org/2000/svg" viewBox="0 0 24 24"><title>ambulance-call</title><path d="M24,4.777a1.112,1.112,0,0,0-1.111-1.11H20.833a.5.5,0,0,1-.5-.5V1.111A1.112,1.112,0,0,0,19.222,0H16.778a1.112,1.112,0,0,0-1.111,1.111V3.167a.5.5,0,0,1-.5.5H13.111A1.112,1.112,0,0,0,12,4.777V7.223a1.112,1.112,0,0,0,1.111,1.11h2.056a.5.5,0,0,1,.5.5v2.056A1.112,1.112,0,0,0,16.778,12h2.444a1.112,1.112,0,0,0,1.111-1.111V8.833a.5.5,0,0,1,.5-.5h2.056A1.112,1.112,0,0,0,24,7.223Z"/><path d="M17.167,16.16a2.56,2.56,0,0,0-3.536,0h0l-.06.061a.5.5,0,0,1-.678.025,47.111,47.111,0,0,1-5.137-5.138.5.5,0,0,1,.027-.678l.059-.06h0a2.5,2.5,0,0,0,0-3.535L5.719,4.714a2.5,2.5,0,0,0-3.535,0L1.02,5.877a3.507,3.507,0,0,0-.441,4.4A46.906,46.906,0,0,0,13.72,23.422a3.509,3.509,0,0,0,4.4-.443l1.163-1.163a2.5,2.5,0,0,0,0-3.535Z"/></svg>