<svg id="Bold" xmlns="http://www.w3.org/2000/svg" viewBox="0 0 24 24"><title>american-football-run-ball-1</title><circle cx="10.194" cy="2.75" r="2.5"/><path d="M21.254,17.75a1.5,1.5,0,0,0-1.5-1.5H15.648a.5.5,0,0,1-.47-.327L12.8,9.465a.249.249,0,0,1,.161-.325l3.2-.986a.494.494,0,0,1,.581.231l1.206,2.109a1.5,1.5,0,1,0,2.6-1.488L19.35,6.9a3.47,3.47,0,0,0-3.027-1.766,3.581,3.581,0,0,0-1.041.156L10.4,6.79a.25.25,0,0,0-.1.421,5.036,5.036,0,0,1,1.146,1.566,6.092,6.092,0,0,1,.15,4.183,2.032,2.032,0,0,1-.423.766l.223.6L8.9,15.891a3.482,3.482,0,0,0-1.644,2.967V22.25a1.5,1.5,0,0,0,3,0V18.858a.5.5,0,0,1,.235-.423l1.983-1.24a3.507,3.507,0,0,0,3.176,2.055h4.106A1.5,1.5,0,0,0,21.254,17.75Z"/><path d="M7.754,10.75a2.5,2.5,0,0,1,2.392,1.813,4.413,4.413,0,0,0-.064-3.16A4.708,4.708,0,0,0,7.745,7.3a.554.554,0,0,0-.229-.05.544.544,0,0,0-.523.395,4.457,4.457,0,0,0,.055,3.105Z"/><path d="M7.754,14.75a1.5,1.5,0,0,0,0-3H5.979a.5.5,0,0,1-.5-.5.489.489,0,0,1,.069-.239,5.581,5.581,0,0,1-.264-2.363.2.2,0,0,0-.254-.207,3.208,3.208,0,0,0-2.273,3.046H2.746c0,.013.008.024.008.036A3.229,3.229,0,0,0,5.979,14.75Z"/></svg>