<svg id="Bold" xmlns="http://www.w3.org/2000/svg" viewBox="0 0 24 24"><title>amphibian-chameleon-2</title><path d="M14.594,4.626a8.722,8.722,0,0,1-1.155,5.332,2.747,2.747,0,0,1-2.375,1.369c-1.017,0-1.4-.375-3.12-1.556a.75.75,0,0,1,.85-1.237l1.557,1.072a1.805,1.805,0,0,0,.984.192C12.4,9.559,12.926,7.305,13,6.952a6.7,6.7,0,0,0-.212-3.881,7.222,7.222,0,0,0-.939-1.8,1.1,1.1,0,0,0-.8-.45,1.066,1.066,0,0,0-.851.31L7.371,4.415l-1.789,0C2.66,4.411,0,6.794,0,9.411c0,2.356,2.09,4,5.082,4h1.3a.25.25,0,0,1,.215.379,5.222,5.222,0,0,1-.93,1.121H4.038a1,1,0,0,0,0,2h.146A.995.995,0,0,0,5.87,17.966l.916-1.374a6.664,6.664,0,0,0,2.069-3,.251.251,0,0,1,.24-.18h6.849a2.376,2.376,0,0,1,2.167,1.415.251.251,0,0,1-.228.352H14.845a4,4,0,0,0,0,8s1.618,0,1.657-.007c5.256-.628,7.5-3.179,7.5-10.493C24,9.823,21.492,5.558,14.594,4.626ZM5.039,8.911a1,1,0,1,1-1-1A1,1,0,0,1,5.039,8.911ZM16.323,21.178H14.845a2,2,0,0,1,0-4h3.032a2.432,2.432,0,0,1-.247.3,2.375,2.375,0,0,1-1.7.7,1,1,0,0,0,0,2,8.139,8.139,0,0,0,4.854-1.635A5.332,5.332,0,0,1,16.323,21.178Z"/></svg>