<svg id="Bold" xmlns="http://www.w3.org/2000/svg" viewBox="0 0 24 24"><title>amusement-park-disneyland</title><path d="M9,13.5h6a.5.5,0,0,0,.379-.825L12.741,9.6a1,1,0,0,1-.241-.65v-.88a.5.5,0,0,1,.243-.428l1.582-.95a.749.749,0,0,0-.107-1.339l-2.032-.813a.5.5,0,0,0-.466.05A.5.5,0,0,0,11.5,5V8.946a1,1,0,0,1-.241.65L8.621,12.675A.5.5,0,0,0,9,13.5Z"/><path d="M2.075,16.263A.5.5,0,0,0,2.5,16.5h4a.5.5,0,0,0,.447-.724L5.105,12.093A1,1,0,0,1,5,11.646a.639.639,0,0,1,.311-.549l1.514-.909a.749.749,0,0,0-.107-1.339L4.686,8.036A.5.5,0,0,0,4,8.5v3.146a.993.993,0,0,1-.106.447L2.053,15.776A.5.5,0,0,0,2.075,16.263Z"/><path d="M21.718,8.849l-2.032-.813A.5.5,0,0,0,19,8.5v3.146a.993.993,0,0,1-.106.447l-1.841,3.683a.5.5,0,0,0,.447.724h4a.5.5,0,0,0,.447-.724l-1.842-3.683A1,1,0,0,1,20,11.646a.639.639,0,0,1,.311-.549l1.514-.909a.749.749,0,0,0-.107-1.339Z"/><path d="M18.538,3.349A.75.75,0,0,0,19.6,2.288l-1.06-1.06a.75.75,0,0,0-1.061,1.06Z"/><path d="M21.72,4.409A.75.75,0,0,0,20.659,5.47L21.72,6.53a.75.75,0,0,0,1.06-1.06Z"/><path d="M21.189,3.568a.751.751,0,0,0,.531-.219l1.06-1.061a.75.75,0,0,0-1.06-1.06l-1.061,1.06a.75.75,0,0,0,.53,1.28Z"/><path d="M18.007,6.75a.748.748,0,0,0,.531-.22L19.6,5.47a.75.75,0,0,0-1.06-1.061L17.477,5.47a.75.75,0,0,0,.53,1.28Z"/><path d="M4.932,2.561a.748.748,0,0,0,.53-.22L6.523,1.28A.75.75,0,0,0,5.462.22L4.4,1.28a.751.751,0,0,0,.53,1.281Z"/><path d="M3.341,4.462A.75.75,0,1,0,2.28,3.4L1.22,4.462a.75.75,0,1,0,1.06,1.06Z"/><path d="M5.462,5.522a.75.75,0,1,0,1.061-1.06L5.462,3.4A.75.75,0,0,0,4.4,4.462Z"/><path d="M2.28,2.341A.75.75,0,1,0,3.341,1.28L2.28.22A.75.75,0,0,0,1.22,1.28Z"/><path d="M21.5,17.5h-4a.5.5,0,0,0-.5.5v2.5a.5.5,0,0,1-.5.5H16a.5.5,0,0,1-.5-.5V15a.5.5,0,0,0-.5-.5H9a.5.5,0,0,0-.5.5v5.5A.5.5,0,0,1,8,21H7.5a.5.5,0,0,1-.5-.5V18a.5.5,0,0,0-.5-.5h-4A.5.5,0,0,0,2,18v5.5a.5.5,0,0,0,.5.5h19a.5.5,0,0,0,.5-.5V18A.5.5,0,0,0,21.5,17.5Z"/></svg>