<svg xmlns="http://www.w3.org/2000/svg" viewBox="0 0 24 24"><title>analytics-bars-3d</title><path d="M6.277,13.218l3.6-2.4a.137.137,0,0,0,.062-.115.138.138,0,0,0-.062-.116L6.624,8.419a1.219,1.219,0,0,0-1.248,0L2.124,10.587a.138.138,0,0,0-.062.116.137.137,0,0,0,.062.115l3.6,2.4A.5.5,0,0,0,6.277,13.218Z"/><path d="M1.542,11.683a.078.078,0,0,0-.042.07v8.612a1.618,1.618,0,0,0,.615,1.18l3.27,2.281a1.157,1.157,0,0,0,1.23,0l3.27-2.281a1.618,1.618,0,0,0,.615-1.18V11.753a.08.08,0,0,0-.124-.066L6.832,14.05a1.5,1.5,0,0,1-1.664,0L1.624,11.687A.078.078,0,0,0,1.542,11.683Z"/><path d="M13.542,3.433a.078.078,0,0,0-.042.07V20.365a1.618,1.618,0,0,0,.615,1.18l3.27,2.281a1.157,1.157,0,0,0,1.23,0l3.27-2.281a1.618,1.618,0,0,0,.615-1.18V3.5a.08.08,0,0,0-.124-.066L18.832,5.8a1.5,1.5,0,0,1-1.664,0L13.624,3.437A.078.078,0,0,0,13.542,3.433Z"/><path d="M18.277,4.968l3.6-2.4a.137.137,0,0,0,.062-.115.138.138,0,0,0-.062-.116L18.624.169a1.219,1.219,0,0,0-1.248,0L14.124,2.337a.138.138,0,0,0-.062.116.137.137,0,0,0,.062.115l3.6,2.4A.5.5,0,0,0,18.277,4.968Z"/></svg>