<svg xmlns="http://www.w3.org/2000/svg" viewBox="0 0 24 24"><title>analytics-graph-line</title><path d="M3.5,19.873a1,1,0,0,0,.772-1.635A10.009,10.009,0,0,1,2,11.947a1,1,0,0,0-2,.01,12.023,12.023,0,0,0,2.723,7.551A1,1,0,0,0,3.5,19.873Z"/><path d="M22.737,9.3a1,1,0,0,0-.843,1.135A10.2,10.2,0,0,1,22,11.9a10.018,10.018,0,0,1-2.236,6.3,1,1,0,0,0,1.552,1.262,12.019,12.019,0,0,0,2.556-9.32A.993.993,0,0,0,22.737,9.3Z"/><path d="M15.37,21.314a10.09,10.09,0,0,1-6.691.017,1,1,0,1,0-.664,1.887,12.049,12.049,0,0,0,8.029-.021,1,1,0,0,0-.674-1.883Z"/><path d="M2.049,7.1a1,1,0,0,0,1.373-.342A10.049,10.049,0,0,1,8.585,2.494,1,1,0,0,0,7.9.614,12.058,12.058,0,0,0,1.707,5.723,1,1,0,0,0,2.049,7.1Z"/><path d="M20.471,5.876a1,1,0,0,0,.768-1.638A12.018,12.018,0,0,0,14.345.125a1,1,0,0,0-.389,1.962A10.014,10.014,0,0,1,19.7,5.515,1,1,0,0,0,20.471,5.876Z"/><path d="M9.776,11.186l1.692,2.09a1.6,1.6,0,0,0,1.243.62h.072a1.582,1.582,0,0,0,1.237-.729L15.96,10.2l2.657-.313A1,1,0,0,0,18.383,7.9l-2.657.314a1.89,1.89,0,0,0-1.369.813L12.67,11.582,11.331,9.928a1.992,1.992,0,0,0-2.379-.505L8,9.871V7.55a1,1,0,0,0-2,0V16.4a1,1,0,0,0,1,1H17a1,1,0,0,0,0-2H8.25a.25.25,0,0,1-.25-.25V12.068Z"/></svg>