<svg xmlns="http://www.w3.org/2000/svg" viewBox="0 0 24 24"><title>analytics-graph</title><path d="M18.876,6.451A2.979,2.979,0,0,1,18.5,5a.153.153,0,0,0-.06-.121.157.157,0,0,0-.133-.025l-5,1.4a.253.253,0,0,0-.162.143.247.247,0,0,0,.008.214A2.976,2.976,0,0,1,13.5,8a.208.208,0,0,0,.263.2l4.961-1.386a.25.25,0,0,0,.152-.363Z"/><path d="M18.818,15.946a.248.248,0,0,0-.17-.136l-4.842-1.127a.248.248,0,0,0-.307.249V15a2.971,2.971,0,0,1-.29,1.285.251.251,0,0,0,.17.352l4.813,1.121a.255.255,0,0,0,.213-.049.249.249,0,0,0,.094-.2V17.5a2.979,2.979,0,0,1,.315-1.335A.255.255,0,0,0,18.818,15.946Z"/><path d="M1,0A1,1,0,0,0,0,1V22.522A1.485,1.485,0,0,0,1.489,24H23a1,1,0,0,0,0-2H2.25A.249.249,0,0,1,2,21.75V21.7a.249.249,0,0,1,.119-.213l6.314-3.881a.25.25,0,0,0,.039-.4,3,3,0,0,1-.778-1.147.25.25,0,0,0-.365-.124L2.381,18.978A.251.251,0,0,1,2,18.765V16.116a.248.248,0,0,1,.1-.2l6.636-5.1a.249.249,0,0,0,0-.4,3.022,3.022,0,0,1-.9-1.056.25.25,0,0,0-.375-.084L2.4,13.162a.25.25,0,0,1-.4-.2V1A1,1,0,0,0,1,0Z"/><circle cx="10.5" cy="8" r="2"/><circle cx="21.5" cy="5" r="2"/><circle cx="21.5" cy="17.5" r="2"/><circle cx="10.5" cy="15" r="2"/></svg>