<svg xmlns="http://www.w3.org/2000/svg" viewBox="0 0 24 24"><title>anchor</title><path d="M21.473,15.221a1.25,1.25,0,0,0-2.13-.978l-1.55,1.55a1,1,0,0,0,.689,1.706.253.253,0,0,1,.21.121.248.248,0,0,1,.009.242,7.561,7.561,0,0,1-5.093,3.953A.5.5,0,0,1,13,21.327v-9.45a.5.5,0,0,1,.5-.5h3a1,1,0,0,0,0-2h-3a.5.5,0,0,1-.5-.5V7.19a.5.5,0,0,1,.312-.463,3.5,3.5,0,1,0-2.624,0A.5.5,0,0,1,11,7.19V8.877a.5.5,0,0,1-.5.5h-3a1,1,0,0,0,0,2h3a.5.5,0,0,1,.5.5v9.45a.5.5,0,0,1-.608.488A7.561,7.561,0,0,1,5.3,17.862a.25.25,0,0,1,.218-.363,1,1,0,0,0,.69-1.706L4.655,14.241a1.25,1.25,0,0,0-2.128.98,9.5,9.5,0,0,0,18.946,0ZM10.5,3.5A1.5,1.5,0,1,1,12,5,1.5,1.5,0,0,1,10.5,3.5Z"/></svg>