<svg id="Bold" xmlns="http://www.w3.org/2000/svg" viewBox="0 0 24 24"><title>animal-print-paw-1</title><path d="M2.024,4.8a.25.25,0,0,0,.191-.359L1.9,3.8A1,1,0,0,0,.106,4.7l.26.522a.253.253,0,0,0,.161.13.25.25,0,0,0,.2-.036A2.942,2.942,0,0,1,2.024,4.8Z"/><path d="M7.518,1.794a.25.25,0,0,0,.192-.36L7.4.8A1,1,0,0,0,5.606,1.7l.25.5a.25.25,0,0,0,.362.1A2.946,2.946,0,0,1,7.518,1.794Z"/><path d="M23.165,5.479a.25.25,0,0,0,.38-.083l.349-.7A1,1,0,0,0,22.105,3.8s-.2.4-.348.7a.249.249,0,0,0,.167.355A3.125,3.125,0,0,1,23.165,5.479Z"/><path d="M17.317,2.294a.251.251,0,0,0,.362-.1l.25-.5A1,1,0,0,0,16.14.8l-.315.631a.247.247,0,0,0,0,.229.252.252,0,0,0,.189.131A2.951,2.951,0,0,1,17.317,2.294Z"/><path d="M7.6,3.3c-1.232.27-1.916,1.769-1.558,3.411C6.44,8.519,7.8,9.4,8.883,9.158c1.1-.238,1.95-1.622,1.558-3.41C10.083,4.105,8.838,3.023,7.6,3.3Z"/><path d="M2.152,6.3C.919,6.566.235,8.066.593,9.708c.4,1.811,1.758,2.694,2.838,2.45,1.1-.238,1.95-1.622,1.558-3.41C4.631,7.106,3.387,6.025,2.152,6.3Z"/><path d="M17.489,6.708c.36-1.642-.325-3.141-1.558-3.411s-2.478.808-2.838,2.451c-.393,1.8.465,3.173,1.558,3.41C15.99,9.449,17.166,8.188,17.489,6.708Z"/><path d="M21.514,6.3c-1.235-.274-2.479.808-2.838,2.451-.39,1.786.454,3.17,1.558,3.41,1.318.286,2.509-.943,2.838-2.45C23.43,8.066,22.746,6.566,21.514,6.3Z"/><path d="M12,10.5c-6.124,0-9.5,4.3-9.5,7.823a6.88,6.88,0,0,0,1.936,4.7,2.2,2.2,0,0,0,2.976.275,8.281,8.281,0,0,1,5.147-1.621,8.559,8.559,0,0,1,4.657,1.277,2.2,2.2,0,0,0,2.922-.621A6.716,6.716,0,0,0,21.5,18.32C21.5,13.761,16.923,10.5,12,10.5Z"/></svg>