<svg id="Bold" xmlns="http://www.w3.org/2000/svg" viewBox="0 0 24 24"><title>animal-print-bird-3</title><path d="M12,2.25a2.968,2.968,0,0,1,.923.146.25.25,0,0,0,.327-.238V1.25a1.25,1.25,0,0,0-2.5,0v.908a.25.25,0,0,0,.327.238A2.968,2.968,0,0,1,12,2.25Z"/><path d="M2.631,6.131a2.945,2.945,0,0,1,.755-.549.25.25,0,0,0,.064-.4L2.808,4.54A1.25,1.25,0,0,0,1.04,6.308l.642.642a.25.25,0,0,0,.4-.064A2.945,2.945,0,0,1,2.631,6.131Z"/><path d="M20.412,7.088a1.5,1.5,0,0,0-2.121,0l-3.937,3.937a.5.5,0,0,1-.854-.353V5a1.5,1.5,0,0,0-3,0v5.672a.5.5,0,0,1-.854.353L5.709,7.088A1.5,1.5,0,0,0,3.588,9.209l6.619,6.619a1,1,0,0,1,.293.707V19a1.5,1.5,0,0,0,3,0V16.535a1,1,0,0,1,.293-.707l6.619-6.619A1.5,1.5,0,0,0,20.412,7.088Z"/><path d="M21.369,6.131a2.945,2.945,0,0,0-.755-.549.25.25,0,0,1-.064-.4l.642-.642A1.25,1.25,0,1,1,22.96,6.308l-.642.642a.25.25,0,0,1-.4-.064A2.945,2.945,0,0,0,21.369,6.131Z"/><path d="M12,21.75a2.968,2.968,0,0,1-.923-.146.25.25,0,0,0-.327.238v.908a1.25,1.25,0,0,0,2.5,0v-.908a.25.25,0,0,0-.327-.238A2.968,2.968,0,0,1,12,21.75Z"/></svg>