<svg id="Bold" xmlns="http://www.w3.org/2000/svg" viewBox="0 0 24 24"><title>animal-products-turkey</title><path d="M23,23.25H1a1,1,0,0,1,0-2H23a1,1,0,0,1,0,2Z"/><path d="M10,7.75a1,1,0,0,1-.707-.293,2.771,2.771,0,0,1,0-3.914.77.77,0,0,0,0-1.086,1,1,0,0,1,1.414-1.414,2.771,2.771,0,0,1,0,3.914.77.77,0,0,0,0,1.086A1,1,0,0,1,10,7.75Z"/><path d="M14.5,7.75a1,1,0,0,1-.707-.293,2.771,2.771,0,0,1,0-3.914.77.77,0,0,0,0-1.086,1,1,0,0,1,1.414-1.414,2.771,2.771,0,0,1,0,3.914.77.77,0,0,0,0,1.086A1,1,0,0,1,14.5,7.75Z"/><path d="M23.328,5.968a2.132,2.132,0,0,0-.651-.444.5.5,0,0,1-.255-.256,2.156,2.156,0,0,0-.444-.651,2.336,2.336,0,0,0-3.223,0,2.217,2.217,0,0,0-.605,2.04.5.5,0,0,1-.136.458l-1.795,1.8a.993.993,0,0,1-.551.28,3.883,3.883,0,0,0-1.2.4c-2.78,1.452-4.327,3.921-1.914,6.334A.75.75,0,1,1,11.5,16.98a4.593,4.593,0,0,1-.283-6.762A.25.25,0,0,0,11,9.8,9.514,9.514,0,0,0,2.5,19.25a.5.5,0,0,0,.5.5H21a.5.5,0,0,0,.5-.5,9.43,9.43,0,0,0-2.4-6.3.5.5,0,0,1-.122-.4q.042-.325.051-.626a.5.5,0,0,1,.146-.339l1.658-1.657a.5.5,0,0,1,.454-.136,2.262,2.262,0,0,0,2.038-3.823Z"/></svg>