<svg id="Bold" xmlns="http://www.w3.org/2000/svg" viewBox="0 0 24 24"><title>animal-print-paw</title><path d="M2.545,8.505a.25.25,0,0,0,.246-.221.994.994,0,0,1,.1-.338A1,1,0,0,0,1.1,7.055,3.15,3.15,0,0,0,.775,8.634a.252.252,0,0,0,.121.2.249.249,0,0,0,.234.012A3.487,3.487,0,0,1,2.545,8.505Z"/><path d="M8.5,2.01a.249.249,0,0,0,.264-.221,1.013,1.013,0,0,1,.1-.343A1,1,0,1,0,7.068.555a3.106,3.106,0,0,0-.323,1.46.249.249,0,0,0,.34.228A3.415,3.415,0,0,1,8.5,2.01Z"/><path d="M23.29,7.055a1,1,0,1,0-1.791.891,1.025,1.025,0,0,1,.1.378.25.25,0,0,0,.218.228,3.7,3.7,0,0,1,1.4.475.25.25,0,0,0,.374-.188A3.153,3.153,0,0,0,23.29,7.055Z"/><path d="M17.318.554a1,1,0,1,0-1.79.893.994.994,0,0,1,.1.345.249.249,0,0,0,.23.223,3.652,3.652,0,0,1,1.413.408.247.247,0,0,0,.236,0,.252.252,0,0,0,.128-.2A3.135,3.135,0,0,0,17.318.554Z"/><path d="M17.938,17.079c-.556-.329-1.036-.613-1.151-.96-.727-2.191-1.552-4.674-4.787-4.674S7.94,13.928,7.213,16.12c-.115.346-.595.63-1.151.959-1.041.617-2.468,1.462-2.468,3.532A3.144,3.144,0,0,0,6.969,24a4.5,4.5,0,0,0,2.816-1.185A3.556,3.556,0,0,1,12,21.833a3.556,3.556,0,0,1,2.215.982A4.5,4.5,0,0,0,17.031,24a3.144,3.144,0,0,0,3.375-3.389C20.406,18.541,18.979,17.7,17.938,17.079Z"/><ellipse cx="8.406" cy="6.889" rx="2.656" ry="3.389"/><ellipse cx="2.656" cy="13.389" rx="2.656" ry="3.389"/><ellipse cx="15.594" cy="6.889" rx="2.656" ry="3.389"/><ellipse cx="21.344" cy="13.389" rx="2.656" ry="3.389"/></svg>