<svg id="Bold" xmlns="http://www.w3.org/2000/svg" viewBox="0 0 24 24"><title>anteater</title><path d="M24,16.431c0-4.543,0-9.24-2.688-11.39A17.5,17.5,0,0,0,8.945,1.934c-3.923.436-6.5,2-7.892,4.774a5.245,5.245,0,0,0-.114,4.185A7.46,7.46,0,0,0,0,14.428C0,15.6.541,16,.864,16.137a1.4,1.4,0,0,0,1.49-.356,5.275,5.275,0,0,0,.886-1.42,10.544,10.544,0,0,1,2.114-3.076,2.708,2.708,0,0,1,3.785-.119.252.252,0,0,1,.085.178.248.248,0,0,1-.07.185,8.14,8.14,0,0,0-2.147,4.32c-.564,3.383,1.257,4.031,1.335,4.057a.5.5,0,0,0,.489-.1.5.5,0,0,0,.159-.472c-.042-.209-.962-5,2.837-6.323a.25.25,0,0,1,.241.042c.342.282.932,1.034.932,2.879v4.75h-.25a.75.75,0,1,0,0,1.5h2.5a.739.739,0,0,0,.719-.6c.005-.014,1.009-4.675,1.3-6.02a.251.251,0,0,1,.388-.153,9.473,9.473,0,0,1,1.953,1.832,5.839,5.839,0,0,1,1.444,3.437h-.8a.75.75,0,0,0,0,1.5h3a.74.74,0,0,0,.711-.555.5.5,0,0,0,.039-.2ZM2.25,8.681a1,1,0,1,1,1,1A1,1,0,0,1,2.25,8.681ZM4.029,5.434a.5.5,0,0,1,.3-.638,2.5,2.5,0,0,1,1.039-.105A1.933,1.933,0,0,1,6.991,6.059a.5.5,0,0,1-.942.334.935.935,0,0,0-.8-.71C4.759,5.626,4.229,6,4.029,5.434Z"/><path d="M3.441,20.11a.8.8,0,0,1-.835.325c-.226-.086-.356-.344-.356-.709V17.931a.75.75,0,0,0-1.5,0v1.795a2.161,2.161,0,0,0,1.321,2.111,2.269,2.269,0,0,0,2.488-.727.75.75,0,0,0-1.118-1Z"/></svg>