<svg xmlns="http://www.w3.org/2000/svg" viewBox="0 0 24 24"><title>antique-sword-1</title><path d="M23.051.308l-4.6.418L18.168.86,6.961,12.088a.479.479,0,0,0-.085.584c.353.578.987,2.049.487,2.549l-.51.511s-.2.191-.336.021a7.81,7.81,0,0,1-.9-1.563,1,1,0,1,0-1.841.781,9.914,9.914,0,0,0,1.307,2.218.243.243,0,0,1-.018.325l-1.7,1.7a.242.242,0,0,1-.235.06A2.242,2.242,0,0,0,.969,23.029a2.195,2.195,0,0,0,3.182,0,2.24,2.24,0,0,0,.574-2.165.241.241,0,0,1,.059-.236l1.7-1.7a.242.242,0,0,1,.325-.017A9.856,9.856,0,0,0,8.623,20.06a1,1,0,1,0,.873-1.8,7.566,7.566,0,0,1-1.231-.768.212.212,0,0,1-.018-.328l.53-.53c.5-.5,1.961.123,2.539.477a.481.481,0,0,0,.584-.085L23.155,5.75l.079-.167L23.669.926A.5.5,0,0,0,23.051.308Z"/></svg>