<svg xmlns="http://www.w3.org/2000/svg" viewBox="0 0 24 24"><title>antique-swords</title><path d="M23.414,1.224a2,2,0,0,0-2.828,0C20.3,1.51,17.5,4.75,16.073,6.568a.249.249,0,0,1-.182.1.254.254,0,0,1-.192-.072L14.075,4.967a1,1,0,0,0-1.414,0,1,1,0,0,0,0,1.414l1.06,1.06a.249.249,0,0,1,0,.353l-.229.229a.5.5,0,0,0,0,.707l2.476,2.477a.5.5,0,0,0,.707,0l.229-.23a.252.252,0,0,1,.354,0l1.06,1.06a1,1,0,0,0,1.414-1.414L18.05,8.941a.25.25,0,0,1,.023-.374c1.764-1.376,4.91-4.084,5.341-4.515A2,2,0,0,0,23.414,1.224Z"/><path d="M6.326,15.191a20.71,20.71,0,0,0-5.053,7.535.5.5,0,0,0,.639.642,20.577,20.577,0,0,0,7.6-4.995l1.156-1.157a.5.5,0,0,0,0-.707L8.189,14.035a.5.5,0,0,0-.707,0Z"/><path d="M17.735,15.1l-7.4-7.4a.25.25,0,0,1,0-.353l1.06-1.06A1,1,0,1,0,9.985,4.87L4.329,10.527a1,1,0,1,0,1.414,1.414l1.06-1.06a.25.25,0,0,1,.353,0l7.4,7.4a20.735,20.735,0,0,0,7.535,5.053.5.5,0,0,0,.641-.64A20.559,20.559,0,0,0,17.735,15.1Z"/><path d="M5.672,7.416,6.824,6.263a.5.5,0,0,0,.051-.646C5.793,4.12,3.9,1.677,3.414,1.188A2,2,0,0,0,.586,4.017c.322.322,2.878,2.3,4.437,3.448A.5.5,0,0,0,5.672,7.416Z"/></svg>