<svg xmlns="http://www.w3.org/2000/svg" viewBox="0 0 24 24"><title>antique-sling</title><path d="M12.32,13.3,9.646,16.035a.5.5,0,0,0,.043.739,3.488,3.488,0,0,1,.607.631.5.5,0,0,0,.759.05l2.7-2.755a1,1,0,0,0-.01-1.41A1.008,1.008,0,0,0,12.32,13.3Z"/><path d="M22,0a2,2,0,0,0-2,2V4.048a6.417,6.417,0,0,1-1.3,3.9,1.51,1.51,0,0,1-1.2.595h0a1.508,1.508,0,0,1-1.2-.6,6.417,6.417,0,0,1-1.3-3.9V2a2,2,0,0,0-4,0V4.048a10.493,10.493,0,0,0,3.5,7.832A1.5,1.5,0,0,1,15,13v9.5A1.5,1.5,0,0,0,16.5,24h2A1.5,1.5,0,0,0,20,22.5V13a1.5,1.5,0,0,1,.5-1.12A10.493,10.493,0,0,0,24,4.048V2A2,2,0,0,0,22,0Z"/><path d="M4.99,12.186a.5.5,0,0,0,.781.1L9.87,8.21A.987.987,0,0,0,9.88,6.8a1,1,0,0,0-1.42-.01l-4.019,4a.5.5,0,0,0,.006.715A3.273,3.273,0,0,1,4.99,12.186Z"/><path d="M7.5,17.5A3.5,3.5,0,0,1,4,14a2,2,0,0,0-4,0,7.508,7.508,0,0,0,7.5,7.5,2,2,0,0,0,0-4Z"/></svg>