<svg xmlns="http://www.w3.org/2000/svg" viewBox="0 0 24 24"><title>antique-catapult-1</title><path d="M15,8.329a.25.25,0,0,1,.467-.124l4.883,8.546a.253.253,0,0,0,.135.112l1.438.5a.25.25,0,0,0,.3-.36L15.151,4.628a.531.531,0,0,0-.081-.106A.249.249,0,0,1,15,4.349V3.5a1,1,0,0,0-1-1H13a1,1,0,0,0-1,1V14.858a.25.25,0,0,0,.246.25,20.429,20.429,0,0,1,2.47.192A.251.251,0,0,0,15,15.052Z"/><path d="M9.381,15.285a.25.25,0,0,0,.115-.45L6.159,12.4a.25.25,0,0,0-.238-.031,4.418,4.418,0,0,1-1.593.307,4.465,4.465,0,0,1-2.219-.6.016.016,0,0,0-.02,0,.015.015,0,0,0,0,.02l2.988,4.034a.241.241,0,0,0,.272.084A19.918,19.918,0,0,1,9.381,15.285Z"/><path d="M23.53,18.918l-5.423-1.886a18.586,18.586,0,0,0-12.214,0L.47,18.918a.516.516,0,0,0-.347.488v2.135a.517.517,0,0,0,.517.517H23.36a.517.517,0,0,0,.517-.517V19.406A.516.516,0,0,0,23.53,18.918ZM12,19.5a1,1,0,1,1,1-1A1,1,0,0,1,12,19.5Z"/><path d="M.872,6.808A.25.25,0,0,0,.5,6.952,3.453,3.453,0,0,0,2.05,10.887l.486.293h0a3.459,3.459,0,0,0,4.2-.482.25.25,0,0,0-.046-.394Z"/></svg>