<svg xmlns="http://www.w3.org/2000/svg" viewBox="0 0 24 24"><title>antique-armor</title><path d="M9,17.359V14.5a.5.5,0,0,0-.5-.5h-4a.5.5,0,0,0-.5.5v2.859a3.492,3.492,0,0,0,1.559,2.912l.664.443a.493.493,0,0,0,.553,0l.665-.443A3.492,3.492,0,0,0,9,17.359Z"/><path d="M19,0H10a.5.5,0,0,0-.5.5.5.5,0,0,1-.518.5H4.5a.5.5,0,0,0-.3.9l1.2.9a.249.249,0,0,1,0,.4l-1.2.9a.5.5,0,0,0,.3.9H10a.5.5,0,0,0,.5-.5.478.478,0,0,1,.494-.5H17.75a.25.25,0,0,1,.25.25v9a.25.25,0,0,1-.25.25H14.284c-.258,0-.174-.279-.145-.454l.74-4.436a1,1,0,0,0-.539-1.058L11.447,6.105a1,1,0,0,0-.894,0L7.661,7.552a1,1,0,0,0-.54,1.059s.681,4.1.7,4.211A.268.268,0,0,0,8.1,13h.4A1.5,1.5,0,0,1,10,14.5v2.859A4.5,4.5,0,0,1,8,21.1l-.662.425c-.057.036-.12.237-.12.237L7.1,22.905A1,1,0,0,0,8.1,24h5.831a1,1,0,0,0,1-1.066l-.411-6.167a.25.25,0,0,1,.249-.267H17.75a.25.25,0,0,1,.25.25V23a1,1,0,0,0,2,0V1A1,1,0,0,0,19,0ZM12.75,10.882H12a.25.25,0,0,0-.25.25v.75a.75.75,0,0,1-1.5,0v-.75a.25.25,0,0,0-.25-.25H9.25a.75.75,0,0,1,0-1.5H10a.25.25,0,0,0,.25-.25v-.75a.75.75,0,1,1,1.5,0v.75a.25.25,0,0,0,.25.25h.75a.75.75,0,0,1,0,1.5Z"/></svg>