<svg id="Bold" xmlns="http://www.w3.org/2000/svg" viewBox="0 0 24 24"><title>appliances-stand-alone-mixer</title><path d="M24,2a2,2,0,0,0-2-2h-.75a.5.5,0,0,0-.5.5V4a.75.75,0,0,1-1.5,0V.5a.5.5,0,0,0-.5-.5h-1a.5.5,0,0,0-.5.5V4a.75.75,0,0,1-1.5,0V.5a.5.5,0,0,0-.5-.5H7.5A4.505,4.505,0,0,0,3,4.5V7A1,1,0,0,0,4,8H6a.5.5,0,0,1,.5.5v.577a.5.5,0,0,1-.349.477,1.158,1.158,0,0,0-.469.283c-.439.436-.83.768-1.157,1.048-.985.844-1.917,1.64-1.367,3.371C4.144,17.359,5.645,19,7.5,19s3.356-1.641,4.342-4.744c.552-1.738-.382-2.534-1.37-3.376-.339-.289-.723-.616-1.154-1.043a1.158,1.158,0,0,0-.469-.283A.5.5,0,0,1,8.5,9.077V8.5A.5.5,0,0,1,9,8h4a1,1,0,0,1,1,1v7.5A3.5,3.5,0,0,1,10.5,20H2a2,2,0,0,0,0,4H22.5A1.5,1.5,0,0,0,24,22.5ZM6.5,15.713a.25.25,0,0,1-.461.134,9.46,9.46,0,0,1-.975-2.2c-.148-.468-.148-.468.761-1.246.083-.07.17-.145.261-.224a.25.25,0,0,1,.414.189ZM9.175,12.4c.91.776.91.776.761,1.249a9.46,9.46,0,0,1-.975,2.2.25.25,0,0,1-.461-.134V12.368a.25.25,0,0,1,.413-.189ZM19,20a2,2,0,1,1,2-2A2,2,0,0,1,19,20Z"/></svg>