<svg id="Bold" xmlns="http://www.w3.org/2000/svg" viewBox="0 0 24 24"><title>appliances-blender</title><path d="M16.155,21a.25.25,0,0,0,.223-.362l-1.4-2.809A1.493,1.493,0,0,0,13.632,17H7.868a1.493,1.493,0,0,0-1.342.829l-1.4,2.809A.25.25,0,0,0,5.345,21Z"/><path d="M5.25,22a.5.5,0,0,0-.5.5A1.5,1.5,0,0,0,6.25,24h9a1.5,1.5,0,0,0,1.5-1.5.5.5,0,0,0-.5-.5Z"/><path d="M19.25,8a3,3,0,0,0-3-3h-.3a.25.25,0,0,1-.249-.274A7.251,7.251,0,0,0,15.75,4a2,2,0,0,0-2-2h-1.5A.25.25,0,0,1,12,1.75v-.5a1.25,1.25,0,0,0-2.5,0v.5A.25.25,0,0,1,9.25,2H7.75a2,2,0,0,0-2,2c-.036.162.9,9.383.9,9.383A2.6,2.6,0,0,0,9.23,15.75h3.04a2.6,2.6,0,0,0,2.49-1.886.5.5,0,0,1,.481-.364H16.25a3,3,0,0,0,3-3ZM7.379,5.558A.5.5,0,0,1,7.875,5h5.748a.5.5,0,0,1,.5.557l-.259,2.25a.5.5,0,0,1-.5.443H8.136a.5.5,0,0,1-.5-.442ZM17.25,10.5a1,1,0,0,1-1,1H15.3a.252.252,0,0,1-.185-.082.25.25,0,0,1-.063-.192l.393-4A.251.251,0,0,1,15.691,7h.559a1,1,0,0,1,1,1Z"/></svg>