<svg id="Bold" xmlns="http://www.w3.org/2000/svg" viewBox="0 0 24 24"><title>appliances-aspirator</title><path d="M7.5,4.5h9A.5.5,0,0,0,17,4V1a1,1,0,0,0-1-1H8A1,1,0,0,0,7,1V4A.5.5,0,0,0,7.5,4.5Z"/><path d="M7.5,24a1,1,0,0,1-.655-1.756.274.274,0,0,0,.049-.36c-.069-.1-.154-.225-.216-.315a2.24,2.24,0,0,1,.167-3.325,1,1,0,1,1,1.31,1.512.274.274,0,0,0-.049.36c.069.1.154.225.216.315a2.24,2.24,0,0,1-.167,3.325A1,1,0,0,1,7.5,24Z"/><path d="M12,24a1,1,0,0,1-.655-1.756.274.274,0,0,0,.049-.36c-.069-.1-.154-.225-.216-.315a2.24,2.24,0,0,1,.167-3.325,1,1,0,1,1,1.31,1.512.274.274,0,0,0-.049.36c.069.1.154.225.216.315a2.24,2.24,0,0,1-.167,3.325A1,1,0,0,1,12,24Z"/><path d="M16.5,24a1,1,0,0,1-.655-1.756.274.274,0,0,0,.049-.36c-.069-.1-.154-.225-.216-.315a2.24,2.24,0,0,1,.167-3.325,1,1,0,0,1,1.31,1.512.274.274,0,0,0-.049.36c.069.1.154.225.216.315a2.24,2.24,0,0,1-.167,3.325A1,1,0,0,1,16.5,24Z"/><path d="M24,13.42a2.5,2.5,0,0,0-.873-1.9l-6.3-5.4A.492.492,0,0,0,16.5,6h-9a.492.492,0,0,0-.325.121l-6.3,5.4A2.5,2.5,0,0,0,0,13.42V16a1,1,0,0,0,1,1H23a1,1,0,0,0,1-1ZM6.7,15.5H2.75a.75.75,0,0,1,0-1.5H6.7a.75.75,0,0,1,0,1.5Zm9.8,0a1,1,0,1,1,1-1A1,1,0,0,1,16.5,15.5Zm3.5,0a1,1,0,1,1,1-1A1,1,0,0,1,20,15.5Z"/></svg>