<svg id="Bold" xmlns="http://www.w3.org/2000/svg" viewBox="0 0 24 24"><title>archery-bow-1</title><path d="M22.928,19.452a1,1,0,0,1-.428-.82V11.9a2.4,2.4,0,0,0-2.4-2.4.4.4,0,0,1-.29-.124L18.3,7.805a.5.5,0,0,1,.007-.7l1.89-1.89,1.474-.368a2.292,2.292,0,0,0,1.674-1.674L23.985.621a.5.5,0,0,0-.606-.606L20.827.653a2.293,2.293,0,0,0-1.674,1.674L18.785,3.8,16.94,5.646a.5.5,0,0,1-.714-.008L14.869,4.222a.42.42,0,0,1-.119-.3A2.43,2.43,0,0,0,12.323,1.5H5.368a1,1,0,0,1-.82-.428A2.5,2.5,0,0,0,0,2.5V16a1,1,0,0,0,2,0V5.5A.5.5,0,0,1,2.5,5a2.481,2.481,0,0,0,1.712-.686.5.5,0,0,1,.7.009L9.793,9.207a1,1,0,1,0,1.414-1.415L7.341,3.927A.25.25,0,0,1,7.518,3.5h4.805a.427.427,0,0,1,.427.427,2.415,2.415,0,0,0,.674,1.679l1.4,1.462a.5.5,0,0,1-.008.7l-9.61,9.61a.845.845,0,0,1-.6.247,2.5,2.5,0,0,0-1.621.6l-2.814,2.4a.5.5,0,0,0,.2.866l1.335.334a.5.5,0,0,1,.375.423l.165,1.32a.5.5,0,0,0,.863.278l2.593-2.8a2.493,2.493,0,0,0,.665-1.7.731.731,0,0,1,.214-.516l9.6-9.6a.5.5,0,0,1,.359-.146.5.5,0,0,1,.356.154l1.462,1.525A2.411,2.411,0,0,0,20.1,11.5a.4.4,0,0,1,.4.4v4.58a.25.25,0,0,1-.427.177l-3.866-3.866a1,1,0,0,0-1.414,1.414l4.884,4.884a.5.5,0,0,1,.009.7A2.479,2.479,0,0,0,19,21.5a.5.5,0,0,1-.5.5H8a1,1,0,0,0,0,2H21.5a2.5,2.5,0,0,0,1.428-4.548Z"/></svg>