<svg id="Bold" xmlns="http://www.w3.org/2000/svg" viewBox="0 0 24 24"><title>armchair-1</title><path d="M4.023,10.428a.5.5,0,0,0,.326.394,5.52,5.52,0,0,1,3.412,3.583.5.5,0,0,0,.554.35A24.141,24.141,0,0,1,12,14.5a24.112,24.112,0,0,1,3.687.255.5.5,0,0,0,.555-.348,5.482,5.482,0,0,1,3.406-3.577.5.5,0,0,0,.329-.4L20.43,7.49A6.5,6.5,0,0,0,14,0H9.99A6.5,6.5,0,0,0,3.57,7.49Z"/><path d="M21.5,12a4.015,4.015,0,0,0-4,4.048.5.5,0,0,1-.632.483A18.756,18.756,0,0,0,12,16a18.756,18.756,0,0,0-4.868.531.5.5,0,0,1-.436-.086A.529.529,0,0,1,6.5,16a4,4,0,0,0-4-4,2.5,2.5,0,0,0-.961,4.809A.745.745,0,0,1,2,17.5v1a3.491,3.491,0,0,0,2.844,3.422.5.5,0,0,1,.406.491v.337a1.25,1.25,0,0,0,2.5,0V22.5a.5.5,0,0,1,.5-.5h7.5a.5.5,0,0,1,.5.5v.25a1.25,1.25,0,0,0,2.5,0v-.338a.5.5,0,0,1,.406-.491A3.49,3.49,0,0,0,22,18.5v-1a.743.743,0,0,1,.46-.691A2.5,2.5,0,0,0,21.5,12Z"/></svg>