<svg xmlns="http://www.w3.org/2000/svg" viewBox="0 0 24 24"><title>army-symbol-division</title><path d="M24,9.5a2,2,0,0,0-2-2H2a2,2,0,0,0-2,2V22a2,2,0,0,0,2,2H22a2,2,0,0,0,2-2Zm-2,12a.5.5,0,0,1-.5.5H2.5a.5.5,0,0,1-.5-.5V10a.5.5,0,0,1,.5-.5h19a.5.5,0,0,1,.5.5Z"/><path d="M5.793,5.707a1,1,0,0,0,1.414,0L8.323,4.591a.25.25,0,0,1,.354,0L9.793,5.707a1,1,0,0,0,1.414-1.414L10.091,3.177a.25.25,0,0,1,0-.354l1.116-1.116A1,1,0,0,0,9.793.293L8.677,1.409a.25.25,0,0,1-.354,0L7.207.293A1,1,0,0,0,5.793,1.707L6.909,2.823a.25.25,0,0,1,0,.354L5.793,4.293A1,1,0,0,0,5.793,5.707Z"/><path d="M12.793,4.293a1,1,0,1,0,1.414,1.414l1.116-1.116a.25.25,0,0,1,.354,0l1.116,1.116a1,1,0,0,0,1.414-1.414L17.091,3.177a.25.25,0,0,1,0-.354l1.116-1.116A1,1,0,0,0,16.793.293L15.677,1.409a.25.25,0,0,1-.354,0L14.207.293a1,1,0,0,0-1.414,1.414l1.116,1.116a.25.25,0,0,1,0,.354Z"/></svg>