<svg xmlns="http://www.w3.org/2000/svg" viewBox="0 0 24 24"><title>army-arrow-shield</title><path d="M24,1.953A1.959,1.959,0,0,0,22.043.006H1.959A1.958,1.958,0,0,0,.012,1.965L0,9.306A15.146,15.146,0,0,0,11.861,23.975a1,1,0,0,0,.4,0A15.145,15.145,0,0,0,23.988,9.2ZM9,14.744a.25.25,0,0,1-.427.177L6.8,13.577a.5.5,0,0,0-.6,0L4.427,14.921A.25.25,0,0,1,4,14.744V12.408a1,1,0,0,1,.293-.707l1.013-.784a.5.5,0,0,0,.194-.395V6.494a.5.5,0,0,0-.5-.5H4.5a.5.5,0,0,1-.354-.854l2-2a.5.5,0,0,1,.708,0l2,2a.5.5,0,0,1-.354.854H8a.5.5,0,0,0-.5.5v4.028a.5.5,0,0,0,.194.395l1.013.784A1,1,0,0,1,9,12.408Zm5.5,4.5a.25.25,0,0,1-.427.177L12.3,18.077a.5.5,0,0,0-.6,0L9.927,19.421a.25.25,0,0,1-.427-.177V16.908a1,1,0,0,1,.293-.707l1.013-.784A.5.5,0,0,0,11,15.022V8.494a.5.5,0,0,0-.5-.5H10a.5.5,0,0,1-.354-.854l2-2a.5.5,0,0,1,.708,0l2,2A.5.5,0,0,1,14,7.994h-.5a.5.5,0,0,0-.5.5v6.528a.5.5,0,0,0,.194.395l1.013.784a1,1,0,0,1,.293.707Zm5.5-4.5a.25.25,0,0,1-.427.177L17.8,13.577a.5.5,0,0,0-.6,0l-1.771,1.344A.25.25,0,0,1,15,14.744V12.408a1,1,0,0,1,.293-.707l1.013-.784a.5.5,0,0,0,.194-.395V6.494a.5.5,0,0,0-.5-.5h-.5a.5.5,0,0,1-.354-.854l2-2a.5.5,0,0,1,.708,0l2,2a.5.5,0,0,1-.354.854H19a.5.5,0,0,0-.5.5v4.028a.5.5,0,0,0,.194.395l1.013.784a1,1,0,0,1,.293.707Z"/></svg>