<svg xmlns="http://www.w3.org/2000/svg" viewBox="0 0 24 24"><title>army-dog-tag-1</title><path d="M20.636.6A.749.749,0,0,0,19.6.364L15.752,3.131a.251.251,0,0,1-.211.039A13.608,13.608,0,0,0,12,2.75a13.688,13.688,0,0,0-3.542.419.248.248,0,0,1-.211-.038L4.4.364A.75.75,0,1,0,3.6,1.636l2.782,2a.249.249,0,0,1,0,.405A2.065,2.065,0,0,0,5.5,5.75v15a2.113,2.113,0,0,0,1.065,1.834A10.847,10.847,0,0,0,12,23.75a10.847,10.847,0,0,0,5.435-1.166A2.111,2.111,0,0,0,18.5,20.75v-15a1.923,1.923,0,0,0-.086-.557.255.255,0,0,0-.157-.163.251.251,0,0,0-.224.03c-1.053.718-4.919,3.355-5,3.393A1.979,1.979,0,0,1,12,8.75a2,2,0,0,1,0-4,1.914,1.914,0,0,1,.667.119.249.249,0,0,1,.059.437L11.6,6.114A.75.75,0,1,0,12.4,7.386l8-5.75A.75.75,0,0,0,20.636.6ZM14.75,14.75a.75.75,0,0,1,1.5,0v2a.75.75,0,0,1-1.5,0Zm-3.5-3a.75.75,0,0,1,1.5,0v8a.75.75,0,0,1-1.5,0Zm-2,6a.75.75,0,0,1-1.5,0v-4a.75.75,0,0,1,1.5,0Z"/></svg>