<svg xmlns="http://www.w3.org/2000/svg" viewBox="0 0 24 24"><title>army-symbol-support</title><path d="M24,5.5a2,2,0,0,0-2-2H17a1,1,0,0,0,0,2h4.5A.5.5,0,0,1,22,6V18a.5.5,0,0,1-.5.5H17a1,1,0,0,0,0,2h5a2,2,0,0,0,2-2Z"/><path d="M7.5,18.5h-5A.5.5,0,0,1,2,18V6a.5.5,0,0,1,.5-.5H7a1,1,0,0,0,0-2H2a2,2,0,0,0-2,2v13a2,2,0,0,0,2,2H7.5a1,1,0,0,0,0-2Z"/><path d="M18.25,12A6.25,6.25,0,1,0,12,18.25,6.259,6.259,0,0,0,18.25,12ZM7.385,13.056a.25.25,0,0,1,.244-.306H9.586a.25.25,0,0,1,.177.427L8.378,14.562a.253.253,0,0,1-.205.072.249.249,0,0,1-.184-.116A4.688,4.688,0,0,1,7.385,13.056Zm.6-3.574a.249.249,0,0,1,.184-.116.253.253,0,0,1,.205.072l1.385,1.385a.25.25,0,0,1-.177.427H7.629a.25.25,0,0,1-.244-.306A4.688,4.688,0,0,1,7.989,9.482Zm8.626,1.462a.25.25,0,0,1-.244.306H14.414a.25.25,0,0,1-.177-.427l1.385-1.385a.253.253,0,0,1,.205-.072.249.249,0,0,1,.184.116A4.688,4.688,0,0,1,16.615,10.944ZM13.177,9.763a.25.25,0,0,1-.427-.177V7.629a.25.25,0,0,1,.094-.195.247.247,0,0,1,.211-.049,4.684,4.684,0,0,1,1.463.6.249.249,0,0,1,.116.184.253.253,0,0,1-.072.205ZM11.25,9.586a.25.25,0,0,1-.427.177L9.438,8.378a.253.253,0,0,1-.072-.205.249.249,0,0,1,.116-.184,4.688,4.688,0,0,1,1.462-.6.25.25,0,0,1,.306.244Zm-.427,4.651a.25.25,0,0,1,.427.177v1.957a.25.25,0,0,1-.094.2.247.247,0,0,1-.211.049,4.684,4.684,0,0,1-1.463-.6.249.249,0,0,1-.116-.184.253.253,0,0,1,.072-.205Zm1.927.177a.25.25,0,0,1,.427-.177l1.385,1.386a.249.249,0,0,1-.044.388,4.688,4.688,0,0,1-1.462.6.25.25,0,0,1-.306-.244Zm1.487-1.237a.25.25,0,0,1,.177-.427h1.957a.25.25,0,0,1,.244.306,4.688,4.688,0,0,1-.6,1.462.249.249,0,0,1-.388.044Z"/></svg>