<svg xmlns="http://www.w3.org/2000/svg" viewBox="0 0 24 24"><title>army-symbol-airborne-infantry</title><path d="M15.53,17.22l-1.146-1.147a1.252,1.252,0,0,0-1.768,0l-.439.44a.252.252,0,0,1-.354,0l-.439-.44a1.252,1.252,0,0,0-1.768,0L8.47,17.22a.75.75,0,0,0,1.06,1.06l.793-.793a.252.252,0,0,1,.354,0l.793.793a.749.749,0,0,0,1.06,0l.793-.793a.252.252,0,0,1,.354,0l.793.793a.75.75,0,1,0,1.06-1.06Z"/><path d="M24,4.75a2,2,0,0,0-2-2H2a2,2,0,0,0-2,2v14.5a2,2,0,0,0,2,2H22a2,2,0,0,0,2-2ZM2,6.22a.25.25,0,0,1,.4-.2L10.073,11.8a.252.252,0,0,1,0,.4L2.4,17.979a.25.25,0,0,1-.4-.2ZM4.634,5.2a.251.251,0,0,1,.151-.45H19.217a.249.249,0,0,1,.15.449L12.15,10.635a.249.249,0,0,1-.3,0Zm7.216,8.165a.249.249,0,0,1,.3,0L19.365,18.8a.25.25,0,0,1-.15.45H4.785a.25.25,0,0,1-.15-.45ZM13.927,12.2a.252.252,0,0,1,0-.4L21.6,6.021a.25.25,0,0,1,.4.2V17.78a.25.25,0,0,1-.4.2Z"/></svg>