<svg xmlns="http://www.w3.org/2000/svg" viewBox="0 0 24 24"><title>army-symbol-brigade</title><path d="M22,7.5H2a2,2,0,0,0-2,2V22a2,2,0,0,0,2,2H22a2,2,0,0,0,2-2V9.5A2,2,0,0,0,22,7.5Zm0,14a.5.5,0,0,1-.5.5H2.5a.5.5,0,0,1-.5-.5V10a.5.5,0,0,1,.5-.5h19a.5.5,0,0,1,.5.5Z"/><path d="M8.793,4.293a1,1,0,1,0,1.414,1.414l1.116-1.116a.25.25,0,0,1,.354,0l1.116,1.116a1,1,0,0,0,1.414-1.414L13.091,3.177a.25.25,0,0,1,0-.354l1.116-1.116A1,1,0,0,0,12.793.293L11.677,1.409a.25.25,0,0,1-.354,0L10.207.293A1,1,0,0,0,8.793,1.707L9.909,2.823a.25.25,0,0,1,0,.354Z"/></svg>