<svg id="Bold" xmlns="http://www.w3.org/2000/svg" viewBox="0 0 24 24"><title>arrow-dot-up</title><path d="M22.5,0H1.5A1.5,1.5,0,0,0,0,1.5v21A1.5,1.5,0,0,0,1.5,24h21A1.5,1.5,0,0,0,24,22.5V1.5A1.5,1.5,0,0,0,22.5,0Zm-3,11.5A1.5,1.5,0,1,1,18,10,1.5,1.5,0,0,1,19.5,11.5ZM10,17a1.5,1.5,0,1,1,1.5-1.5A1.5,1.5,0,0,1,10,17Zm1.5,2.5A1.5,1.5,0,1,1,10,18,1.5,1.5,0,0,1,11.5,19.5ZM10,13a1.5,1.5,0,1,1,1.5-1.5A1.5,1.5,0,0,1,10,13Zm0-4a1.5,1.5,0,1,1,1.5-1.5A1.5,1.5,0,0,1,10,9Zm.5-5.5A1.5,1.5,0,1,1,12,5,1.5,1.5,0,0,1,10.5,3.5ZM14,17a1.5,1.5,0,1,1,1.5-1.5A1.5,1.5,0,0,1,14,17Zm1.5,2.5A1.5,1.5,0,1,1,14,18,1.5,1.5,0,0,1,15.5,19.5ZM14,13a1.5,1.5,0,1,1,1.5-1.5A1.5,1.5,0,0,1,14,13Zm0-4a1.5,1.5,0,1,1,1.5-1.5A1.5,1.5,0,0,1,14,9ZM7.5,11.5A1.5,1.5,0,1,1,6,10,1.5,1.5,0,0,1,7.5,11.5Z"/></svg>