<svg xmlns="http://www.w3.org/2000/svg" viewBox="0 0 24 24"><title>artboard-expand</title><path d="M23,17.25H21.5a1,1,0,0,0,0,2H23a1,1,0,0,0,0-2Z"/><path d="M2.5,5.25H1a1,1,0,0,0,0,2H2.5a1,1,0,0,0,0-2Z"/><path d="M19,7.25a2,2,0,0,0-2-2H7.25A.25.25,0,0,1,7,5V2.25a1,1,0,0,0-2,0v15a2,2,0,0,0,2,2h9.75a.25.25,0,0,1,.25.25v2.75a1,1,0,0,0,2,0Zm-11.5,10a.5.5,0,0,1-.5-.5v-9a.5.5,0,0,1,.5-.5h9a.5.5,0,0,1,.5.5v9a.5.5,0,0,1-.5.5Z"/><path d="M21.207,4.457l2-2a1,1,0,0,0-1.414-1.414l-2,2a1,1,0,0,0,1.414,1.414Z"/><path d="M15.707,8.543a1,1,0,0,0-1.414,0l-1.5,1.5a1,1,0,1,0,1.414,1.414l1.5-1.5A1,1,0,0,0,15.707,8.543Z"/><path d="M10.293,12.543l-1.5,1.5a1,1,0,1,0,1.414,1.414l1.5-1.5a1,1,0,0,0-1.414-1.414Z"/></svg>