<svg id="Bold" xmlns="http://www.w3.org/2000/svg" viewBox="0 0 24 24"><title>asian-food-pork-bun</title><path d="M16.907,7.961A22.441,22.441,0,0,1,13.13,4.97a1.548,1.548,0,0,0-2.259,0h0A22.492,22.492,0,0,1,7.093,7.961C3.768,10.271,0,12.888,0,16.5,0,21.477,4.038,24,12,24s12-2.523,12-7.5C24,12.888,20.231,10.271,16.907,7.961Zm-7.3,2.425A13.849,13.849,0,0,1,6.9,12.628.75.75,0,0,1,5.867,12.4.751.751,0,0,1,6.1,11.36a12.311,12.311,0,0,0,2.411-2,.75.75,0,0,1,1.1,1.024ZM12.75,13a.75.75,0,0,1-1.5,0V10.5a.75.75,0,0,1,1.5,0Zm5.383-.6a.75.75,0,0,1-1.034.232,13.849,13.849,0,0,1-2.706-2.242.75.75,0,0,1,1.1-1.024,12.311,12.311,0,0,0,2.411,2A.751.751,0,0,1,18.133,12.4Z"/><path d="M4.5,7a1,1,0,0,1-.707-1.707c.342-.342.366-.418-.15-1.279-.469-.78-1.34-2.232.15-3.721A1,1,0,0,1,5.207,1.707c-.342.342-.366.418.15,1.279.469.78,1.34,2.232-.15,3.721A1,1,0,0,1,4.5,7Z"/><path d="M19.5,7a1,1,0,0,1-.707-.293c-1.49-1.489-.619-2.941-.15-3.721.516-.861.492-.937.15-1.279A1,1,0,0,1,20.207.293c1.49,1.489.619,2.941.15,3.721-.516.861-.492.937-.15,1.279A1,1,0,0,1,19.5,7Z"/></svg>