<svg id="Bold" xmlns="http://www.w3.org/2000/svg" viewBox="0 0 24 24"><title>asian-food-soup</title><path d="M11,13a1,1,0,0,1-.926-1.377C14.62.465,14.62.465,14.793.293A1,1,0,0,1,16.4,1.438c-.206.479-2.773,6.768-4.473,10.939A1,1,0,0,1,11,13Z"/><path d="M14.5,13a1,1,0,0,1-.831-1.555l6-9a1,1,0,0,1,1.664,1.11l-6,9A1,1,0,0,1,14.5,13Z"/><path d="M19.708,9.693a1,1,0,0,0-.416,1.956,10.935,10.935,0,0,1,2.1.629.25.25,0,0,1,0,.458C20.072,13.307,16.887,14,12,14s-8.084-.7-9.4-1.267a.251.251,0,0,1,0-.459,19.9,19.9,0,0,1,5.975-1.148,1,1,0,0,0-.152-1.994C4.581,9.425,0,10.247,0,12.5A11.758,11.758,0,0,0,12,24,11.758,11.758,0,0,0,24,12.5C24,11.206,22.636,10.314,19.708,9.693Z"/></svg>