<svg id="Bold" xmlns="http://www.w3.org/2000/svg" viewBox="0 0 24 24"><title>asian-interior-entrance</title><path d="M23.947,3.276l-1.5-3A.5.5,0,0,0,22,0H20.872a.5.5,0,0,0-.481.637l.33,1.157a.75.75,0,0,1-.515.927A.776.776,0,0,1,20,2.75a.75.75,0,0,1-.721-.544L18.752.363A.5.5,0,0,0,18.271,0H17.049a.5.5,0,0,0-.5.571l.189,1.323a.75.75,0,0,1-.637.848A.782.782,0,0,1,16,2.75a.752.752,0,0,1-.742-.645L15.018.429a.5.5,0,0,0-.5-.429H13.25a.5.5,0,0,0-.5.5V2a.75.75,0,0,1-1.5,0V.5a.5.5,0,0,0-.5-.5H9.477a.5.5,0,0,0-.5.429L8.743,2.105A.752.752,0,0,1,8,2.75a.782.782,0,0,1-.107-.008.75.75,0,0,1-.637-.848L7.446.571A.5.5,0,0,0,6.951,0H5.729a.5.5,0,0,0-.481.363L4.721,2.206A.75.75,0,0,1,4,2.75a.776.776,0,0,1-.206-.029.75.75,0,0,1-.515-.927L3.609.637A.5.5,0,0,0,3.128,0H2a.5.5,0,0,0-.447.276l-1.5,3A.5.5,0,0,0,.5,4h23a.5.5,0,0,0,.447-.724Z"/><path d="M12,8.681A7.279,7.279,0,0,0,7.719,21.846a.747.747,0,0,1,.309.605v1.475A.074.074,0,0,0,8.1,24H9a.5.5,0,0,0,.5-.5V21.768a.5.5,0,0,0-.269-.444,6,6,0,1,1,5.538,0,.5.5,0,0,0-.269.444V23.5a.5.5,0,0,0,.5.5h.472a.5.5,0,0,0,.5-.5V22.451a.747.747,0,0,1,.309-.605A7.279,7.279,0,0,0,12,8.681Z"/><path d="M23,5.5H1A.5.5,0,0,0,.5,6V23a1,1,0,0,0,1,1H6.454a.074.074,0,0,0,.074-.074v-.867a.5.5,0,0,0-.178-.383,8.778,8.778,0,1,1,11.3,0,.5.5,0,0,0-.178.383V23.5a.5.5,0,0,0,.5.5H22.5a1,1,0,0,0,1-1V6A.5.5,0,0,0,23,5.5Z"/></svg>