<svg xmlns="http://www.w3.org/2000/svg" viewBox="0 0 24 24"><title>astronomy-telescope</title><path d="M10.833,7.9a.566.566,0,0,0,.686.283,3.5,3.5,0,0,1,4,1.352.5.5,0,0,0,.637.165l3.2-1.609a.5.5,0,0,0,.187-.732c-.163-.235-2.056-3.965-2.183-4.345a.5.5,0,0,0-.7-.288L11.722,5.212A2,2,0,0,0,10.833,7.9Z"/><path d="M14.94,12.9a.5.5,0,0,1-.012-.418,2.5,2.5,0,1,0-4.6,0,.5.5,0,0,1-.012.418L5.539,22.556a1,1,0,0,0,1.793.888l3.823-7.722a.25.25,0,0,1,.474.111V23a1,1,0,0,0,2,0V15.833a.25.25,0,0,1,.474-.111l3.823,7.722a1,1,0,0,0,1.793-.888Z"/><path d="M23.576,6.53,20.433.275a.5.5,0,0,0-.672-.222l-.446.225a2,2,0,0,0-.889,2.685l1.8,3.574a2,2,0,0,0,2.685.889l.446-.225A.5.5,0,0,0,23.576,6.53Z"/><path d="M8.864,12.244a.5.5,0,0,0,.275-.484c-.007-.086-.01-.173-.01-.26a3.485,3.485,0,0,1,.879-2.319.5.5,0,0,0,.071-.558,4.562,4.562,0,0,1-.308-.681.5.5,0,0,0-.284-.3.5.5,0,0,0-.416.016L4.129,10.147a2,2,0,0,0-1.086,1.54.253.253,0,0,1-.136.193l-1.985,1a1,1,0,0,0,.9,1.788l1.985-1a.253.253,0,0,1,.236.006,2,2,0,0,0,1.884.048Z"/></svg>