<svg xmlns="http://www.w3.org/2000/svg" viewBox="0 0 24 24"><title>astronomy-planet</title><path d="M18.5,13.25H16.588a.5.5,0,0,1-.488-.393q-.065-.292-.155-.576a.5.5,0,0,1,.227-.585l1.656-.955a1,1,0,1,0-1-1.732l-1.659.958a.5.5,0,0,1-.62-.1c-.133-.147-.274-.288-.421-.422a.5.5,0,0,1-.1-.619l.958-1.659a1,1,0,0,0-1.732-1L12.3,7.828a.5.5,0,0,1-.584.227q-.282-.09-.575-.155a.5.5,0,0,1-.393-.488V5.5a1,1,0,0,0-2,0V7.412a.5.5,0,0,1-.393.488q-.292.064-.575.155A.5.5,0,0,1,7.2,7.828L6.241,6.172a1,1,0,0,0-1.732,1l.958,1.659a.5.5,0,0,1-.095.619c-.147.134-.288.275-.421.422a.5.5,0,0,1-.62.1L2.672,9.009a1,1,0,1,0-1,1.732l1.656.955a.5.5,0,0,1,.227.585q-.09.284-.155.576a.5.5,0,0,1-.488.393H1a1,1,0,0,0,0,2H2.912a.5.5,0,0,1,.488.393q.065.292.155.576a.5.5,0,0,1-.227.585l-1.656.955a1,1,0,1,0,1,1.732l1.659-.958a.5.5,0,0,1,.62.095c.133.147.274.288.421.422a.5.5,0,0,1,.095.619l-.958,1.659a1,1,0,0,0,1.732,1L7.2,20.672a.5.5,0,0,1,.584-.227q.282.09.575.155a.5.5,0,0,1,.393.488V23a1,1,0,0,0,2,0V21.088a.5.5,0,0,1,.393-.488q.292-.065.575-.155a.5.5,0,0,1,.584.227l.957,1.656a1,1,0,0,0,1.732-1l-.958-1.659a.5.5,0,0,1,.1-.619c.147-.134.288-.275.421-.422a.5.5,0,0,1,.62-.095l1.659.958a.992.992,0,0,0,.5.134,1,1,0,0,0,.5-1.866L16.172,16.8a.5.5,0,0,1-.227-.585q.09-.284.155-.576a.5.5,0,0,1,.488-.393H18.5a1,1,0,0,0,0-2ZM8.25,17.75a2,2,0,1,1,2-2A2,2,0,0,1,8.25,17.75Zm3-5a1,1,0,1,1,1-1A1,1,0,0,1,11.25,12.75Zm1.5,3a.5.5,0,1,1,.5-.5A.5.5,0,0,1,12.75,15.75Z"/><path d="M23.625,5.351l-.433-.25a.5.5,0,0,1-.246-.5,2.728,2.728,0,0,0,0-.707.5.5,0,0,1,.246-.5l.433-.25a.75.75,0,0,0-.75-1.3l-.434.25a.5.5,0,0,1-.554-.036,2.787,2.787,0,0,0-.611-.353.5.5,0,0,1-.307-.462V.75a.75.75,0,0,0-1.5,0v.5a.5.5,0,0,1-.307.462,2.81,2.81,0,0,0-.611.353A.5.5,0,0,1,18,2.1l-.435-.25a.75.75,0,0,0-.75,1.3l.433.251a.5.5,0,0,1,.246.5,2.72,2.72,0,0,0,0,.706.5.5,0,0,1-.246.5l-.433.251a.75.75,0,0,0,.375,1.4.739.739,0,0,0,.375-.1L18,6.4a.5.5,0,0,1,.553.036,2.81,2.81,0,0,0,.611.353.5.5,0,0,1,.307.462v.5a.75.75,0,0,0,1.5,0v-.5a.5.5,0,0,1,.307-.462,2.787,2.787,0,0,0,.611-.353.5.5,0,0,1,.554-.036l.434.25a.738.738,0,0,0,.374.1.75.75,0,0,0,.376-1.4ZM20.219,5.5a1.25,1.25,0,1,1,1.25-1.25A1.252,1.252,0,0,1,20.219,5.5Z"/></svg>