<svg xmlns="http://www.w3.org/2000/svg" viewBox="0 0 24 24"><title>astronomy-sun-eclipse</title><path d="M11.927,4.4A7.552,7.552,0,0,0,7.739,5.662a.25.25,0,0,0,.2.451,6.046,6.046,0,1,1-.02,11.76.25.25,0,0,0-.2.451A7.6,7.6,0,1,0,11.927,4.4Z"/><path d="M4.786,12A4.546,4.546,0,1,0,9.332,7.45,4.546,4.546,0,0,0,4.786,12Z"/><path d="M12,3.716a1,1,0,0,0,1-1V1.077a1,1,0,0,0-2,0V2.716A1,1,0,0,0,12,3.716Z"/><path d="M19.272,6.142l1.159-1.16a1,1,0,0,0-1.414-1.414l-1.159,1.16a1,1,0,1,0,1.414,1.414Z"/><path d="M22.923,11H21.285a1,1,0,1,0,0,2h1.638a1,1,0,1,0,0-2Z"/><path d="M19.272,17.857a1,1,0,1,0-1.414,1.414l1.159,1.159a1,1,0,1,0,1.414-1.414Z"/><path d="M12,20.284a1,1,0,0,0-1,1v1.639a1,1,0,1,0,2,0V21.284A1,1,0,0,0,12,20.284Z"/><path d="M4.728,17.857,3.569,19.016A1,1,0,0,0,4.983,20.43l1.159-1.159a1,1,0,1,0-1.414-1.414Z"/><path d="M3.716,12a1,1,0,0,0-1-1H1.077a1,1,0,0,0,0,2H2.716A1,1,0,0,0,3.716,12Z"/><path d="M4.728,6.142A1,1,0,1,0,6.142,4.728L4.983,3.568A1,1,0,0,0,3.569,4.982Z"/></svg>