<svg xmlns="http://www.w3.org/2000/svg" viewBox="0 0 24 24"><title>astronomy-comet</title><path d="M12.3,12.3a7.448,7.448,0,0,1,5.267-2.2.5.5,0,0,0-.042-.449l-5.59-8.9a.65.65,0,0,0-1.229.343L10.4,5.635a.25.25,0,0,1-.343.215L3.435,3.159a.655.655,0,0,0-.862.949l3.121,5.958a.25.25,0,0,1-.206.365l-4.388.28a.675.675,0,0,0-.682.471.7.7,0,0,0,.369.776l8.754,5.189a.5.5,0,0,0,.58-.05A7.442,7.442,0,0,1,12.3,12.3Z"/><path d="M17.6,11.605a6,6,0,1,0,6,6A6.036,6.036,0,0,0,17.6,11.605Zm4.943,5.347a.249.249,0,0,1-.152.263A2.414,2.414,0,0,1,19.746,13.3a.249.249,0,0,1,.3-.045,4.893,4.893,0,0,1,1.093.816A4.955,4.955,0,0,1,22.546,16.952ZM18.1,21.605a1.475,1.475,0,0,1-.286.874.251.251,0,0,1-.205.1A5.118,5.118,0,0,1,15.251,22a.249.249,0,0,1-.129-.179,1.263,1.263,0,0,1-.019-.219,1.5,1.5,0,1,1,3,0Z"/></svg>