<svg id="Bold" xmlns="http://www.w3.org/2000/svg" viewBox="0 0 24 24"><title>athletics-javelin-throwing</title><circle cx="13.592" cy="6.979" r="2.5"/><path d="M21.781,18.805a4.55,4.55,0,0,0-4.766-3.05l-.529.059a.249.249,0,0,1-.271-.194l-.31-1.395a.249.249,0,0,1,.2-.3l5.359-.884a1.5,1.5,0,0,0-.5-2.959l-9.211,1.532a1.5,1.5,0,0,1-1.638-.943L8.955,7.528A1.5,1.5,0,1,0,6.154,8.6l1.164,3.143a4.545,4.545,0,0,0,4.924,2.827l.41-.069a.251.251,0,0,1,.286.193l.522,2.354a.253.253,0,0,1-.039.2l-3.058,4.368a1.5,1.5,0,1,0,2.457,1.721L15.931,18.9l1.416-.157a1.489,1.489,0,0,1,1.588,1.016l.734,2.2A1.5,1.5,0,1,0,22.514,21Z"/><path d="M19.227.684a1,1,0,0,0-1.27-.62l-16,5.5a1,1,0,1,0,.65,1.89l16-5.5A1,1,0,0,0,19.227.684Z"/></svg>