<svg id="Bold" xmlns="http://www.w3.org/2000/svg" viewBox="0 0 24 24"><title>athletics-shooting</title><path d="M5.777,4.009a.25.25,0,0,0-.188.085.246.246,0,0,0-.06.2,2.486,2.486,0,0,0,4.942,0,.25.25,0,0,0-.248-.283Z"/><path d="M23,2.259a1,1,0,0,0-1,1v.5H17.25a1.5,1.5,0,0,0-1.5,1.5v1.5a.25.25,0,0,0,.25.25h1a2.406,2.406,0,0,1,.908.179.249.249,0,0,0,.344-.231v-.2h1.5a1,1,0,0,0,1-1H23a1,1,0,0,0,1-1v-1.5A1,1,0,0,0,23,2.259Z"/><path d="M11.75,3.009a1,1,0,0,0,0-2H10.278A3.069,3.069,0,0,0,8,.009,3,3,0,0,0,5,2.454a.5.5,0,0,0,.109.407.493.493,0,0,0,.242.148Z"/><path d="M18.5,9.509a1.5,1.5,0,0,0-1.5-1.5H4.914A4.913,4.913,0,0,0,0,12.923v1.586a1.5,1.5,0,0,0,3,0V12.923a1.9,1.9,0,0,1,.561-1.354,1.849,1.849,0,0,1,1.163-.547A.249.249,0,0,1,5,11.271v4.715l-.978,6.245a1.5,1.5,0,0,0,2.956.51l.776-4.5a.25.25,0,0,1,.492,0l.776,4.5a1.517,1.517,0,0,0,1.733,1.223,1.5,1.5,0,0,0,1.223-1.733L11,15.986V11.259a.25.25,0,0,1,.25-.25H17A1.5,1.5,0,0,0,18.5,9.509Z"/></svg>