<svg id="Bold" xmlns="http://www.w3.org/2000/svg" viewBox="0 0 24 24"><title>athletics-running-1</title><path d="M22.214,2.75H23.5a.5.5,0,0,0,.5-.5V.5a.5.5,0,0,0-.5-.5H12a12,12,0,0,0,0,24H23.5a.5.5,0,0,0,.5-.5V21.75a.5.5,0,0,0-.5-.5h-1a.75.75,0,0,1,0-1.5h1a.5.5,0,0,0,.5-.5V17.5a.5.5,0,0,0-.5-.5H18.25a.5.5,0,0,1-.5-.5v-.96a.5.5,0,0,1,.5-.5h4a1,1,0,0,0,1-1v-3a1,1,0,0,0-1-1H18.165a.5.5,0,0,1-.472-.333,1,1,0,0,0-1.943.333v11.5a.75.75,0,0,1-1.5,0V17.5a.5.5,0,0,0-.5-.5H13A5,5,0,0,1,13,7H23.5a.5.5,0,0,0,.5-.5V4.75a.5.5,0,0,0-.5-.5H22.214a.75.75,0,0,1,0-1.5ZM17.75,20.25a.5.5,0,0,1,.5-.5h.178a.75.75,0,0,1,0,1.5H18.25a.5.5,0,0,1-.5-.5Zm-8.178-.157a.746.746,0,0,1,.9-.555,7.783,7.783,0,0,0,1.81.212.765.765,0,0,1,.767.75.737.737,0,0,1-.734.75A9.339,9.339,0,0,1,10.127,21,.751.751,0,0,1,9.572,20.093ZM4.55,6.927A9.32,9.32,0,0,1,5.974,5.238.75.75,0,1,1,7,6.334,7.774,7.774,0,0,0,5.8,7.75.75.75,0,1,1,4.55,6.927Zm-.582,6.986a.751.751,0,0,1-.846-.641A9.187,9.187,0,0,1,3.036,12a9.371,9.371,0,0,1,.047-.936.76.76,0,0,1,.822-.67.75.75,0,0,1,.67.822,7.933,7.933,0,0,0,.033,1.852A.75.75,0,0,1,3.968,13.913Zm3.315,5a.75.75,0,0,1-1.058.074,9.28,9.28,0,0,1-1.484-1.634.75.75,0,0,1,1.221-.871,7.846,7.846,0,0,0,1.246,1.372A.752.752,0,0,1,7.283,18.914Zm4.749-14.66a7.733,7.733,0,0,0-1.83.279.75.75,0,1,1-.4-1.445,9.2,9.2,0,0,1,2.184-.333.733.733,0,0,1,.774.725A.75.75,0,0,1,12.032,4.254Zm6.085,0H16.081a.75.75,0,0,1,0-1.5h2.036a.75.75,0,0,1,0,1.5Z"/></svg>