<svg id="Bold" xmlns="http://www.w3.org/2000/svg" viewBox="0 0 24 24"><title>athletics-running</title><path d="M13,7h.5a.5.5,0,0,0,.5-.5V4.75a.5.5,0,0,0-.5-.5H12.286a7.75,7.75,0,0,0,0,15.5H13.5a.5.5,0,0,0,.5-.5V17.5a.5.5,0,0,0-.5-.5H13A5,5,0,0,1,13,7Z"/><path d="M15.5,4.75V6.5A.5.5,0,0,0,16,7h7.5a.5.5,0,0,0,.5-.5V4.25H16A.5.5,0,0,0,15.5,4.75Z"/><path d="M23.5,0H19.75a.5.5,0,0,0-.5.5V2.25a.5.5,0,0,0,.5.5H24V.5A.5.5,0,0,0,23.5,0Z"/><path d="M23.5,17H18a.5.5,0,0,1-.5-.5V15.474a.5.5,0,0,1,.3-.457l3.609-1.6a1,1,0,0,0,0-1.828l-4.5-2A1,1,0,0,0,15.5,10.5V20.75a.5.5,0,0,1-.5.5H12.286a9.25,9.25,0,0,1,0-18.5H17.25a.5.5,0,0,0,.5-.5V.5a.5.5,0,0,0-.5-.5H12a12,12,0,0,0,0,24H23.5a.5.5,0,0,0,.5-.5V21.75a.5.5,0,0,0-.5-.5H18a.5.5,0,0,1-.5-.5v-.5a.5.5,0,0,1,.5-.5h5.5a.5.5,0,0,0,.5-.5V17.5A.5.5,0,0,0,23.5,17Z"/></svg>