<svg id="Bold" xmlns="http://www.w3.org/2000/svg" viewBox="0 0 24 24"><title>athletics-team-running</title><circle cx="13.75" cy="2.5" r="2.5"/><path d="M22.175,11.119,21,8.272a1.5,1.5,0,0,0-.316-1.982A1.473,1.473,0,0,0,20.067,6l-.936-2.275a1,1,0,0,0-1.85.761l1,2.415c-.415.518-.964,1.308-2.037.912l-7-2.543A4.514,4.514,0,0,0,4.248,6.62L3.1,8a1.5,1.5,0,0,0,2.3,1.92L6.553,8.54a1.506,1.506,0,0,1,1.665-.449l1.441.524a.25.25,0,0,1,.15.319l-1.8,5.04A1.5,1.5,0,0,1,6.589,15H3.25a1.5,1.5,0,0,0,0,3H6.589a4.5,4.5,0,0,0,3.947-2.333.249.249,0,0,1,.312-.112l.913.365a1.506,1.506,0,0,1,.9,1.756l-1.82,4.458a1.5,1.5,0,1,0,2.91.729l1.82-4.46a4.516,4.516,0,0,0-2.695-5.268l-.983-.393a.25.25,0,0,1-.143-.316l.879-2.465a.257.257,0,0,1,.129-.142.251.251,0,0,1,.192-.008l2.265.823a4.492,4.492,0,0,0,4.315-.688l.8,1.935a1,1,0,1,0,1.85-.762Z"/></svg>