<svg id="Bold" xmlns="http://www.w3.org/2000/svg" viewBox="0 0 24 24"><title>athletics-long-jumping</title><circle cx="12.25" cy="2.5" r="2.5"/><path d="M5.033,15.377A1.5,1.5,0,0,0,6.25,16h4.481a.5.5,0,0,1,.244.063l4.046,2.249a1.5,1.5,0,0,0,1.458-2.624l-4.047-2.247a3.5,3.5,0,0,0-1.7-.441H8.678a.252.252,0,0,1-.2-.1.248.248,0,0,1-.034-.225L9.458,9.62a.246.246,0,0,1,.154-.157.25.25,0,0,1,.218.025c.513.332,1.579,1.019,1.616,1.037A4.523,4.523,0,0,0,13.458,11H16.25a1.5,1.5,0,0,0,0-3H13.458a1.5,1.5,0,0,1-.608-.129L9.566,5.741a1.5,1.5,0,0,0-2.239.784l-2.5,7.5A1.5,1.5,0,0,0,5.033,15.377Z"/><path d="M5.556,20.418A1,1,0,0,0,4.743,20H.5a.5.5,0,0,0-.5.5v3a.5.5,0,0,0,.5.5H7a.5.5,0,0,0,.417-.776Z"/><circle cx="11.75" cy="22.75" r="1.25"/><circle cx="9" cy="20.75" r="1.25"/><circle cx="17.25" cy="22.75" r="1.25"/><circle cx="14.5" cy="20.75" r="1.25"/><circle cx="22.75" cy="22.75" r="1.25"/><circle cx="20" cy="20.75" r="1.25"/><path d="M3,7.5H4.5a1,1,0,0,0,0-2H3a1,1,0,0,0,0,2Z"/><path d="M2,11.5H3.5a1,1,0,0,0,0-2H2a1,1,0,0,0,0,2Z"/><path d="M1,15.5H2.5a1,1,0,0,0,0-2H1a1,1,0,0,0,0,2Z"/></svg>