<svg xmlns="http://www.w3.org/2000/svg" viewBox="0 0 24 24"><title>auto-pilot-car-signal</title><path d="M10.25,2.749h.5a1,1,0,0,0,0-2h-.5a1,1,0,0,0,0,2Z"/><path d="M13.75,2.749h.5a1,1,0,0,0,0-2h-.5a1,1,0,0,0,0,2Z"/><path d="M17.25,2.749h.5a1,1,0,0,0,0-2h-.5a1,1,0,0,0,0,2Z"/><path d="M20.75,2.749H21a.25.25,0,0,1,.25.25v.25a1,1,0,0,0,2,0v-.5a2,2,0,0,0-2-2h-.5a1,1,0,0,0,0,2Z"/><path d="M23.25,6.249a1,1,0,1,0-2,0v.5a1,1,0,0,0,2,0Z"/><path d="M22.25,8.749a1,1,0,0,0-1,1v.5a1,1,0,1,0,2,0v-.5A1,1,0,0,0,22.25,8.749Z"/><path d="M6.975,1.525a.5.5,0,0,0-.146-.354A4,4,0,0,0,1.171,6.827a.5.5,0,0,0,.707,0L6.829,1.878A.5.5,0,0,0,6.975,1.525Z"/><path d="M6,5.249A.752.752,0,0,1,5.25,6a.75.75,0,0,0,0,1.5A2.252,2.252,0,0,0,7.5,5.249a.75.75,0,1,0-1.5,0Z"/><path d="M4.53,9.959a.75.75,0,0,0,.719.54.732.732,0,0,0,.211-.03c4.165-1.217,5.04-3.511,5.04-5.22a.75.75,0,1,0-1.5,0C9,6.99,7.667,8.261,5.039,9.03A.749.749,0,0,0,4.53,9.959Z"/><path d="M23.984,20.5a9.933,9.933,0,0,0-6.563-8.508.25.25,0,0,1-.171-.237v-.591a3,3,0,0,0-6,0v.595a.248.248,0,0,1-.178.239c-4.063,1.232-7.4,4.614-8.045,8.587a2.078,2.078,0,0,0,.464,1.679,2.032,2.032,0,0,0,.669.521.247.247,0,0,0,.255-.021.249.249,0,0,0,.1-.234,2.205,2.205,0,0,1-.018-.283,2.75,2.75,0,0,1,5.5,0,2.408,2.408,0,0,1-.045.453.248.248,0,0,0,.246.3h6.6a.249.249,0,0,0,.246-.3A2.408,2.408,0,0,1,17,22.249a2.75,2.75,0,1,1,5.5,0c0,.074,0,.147-.011.22a.25.25,0,0,0,.368.243,2.1,2.1,0,0,0,.587-.465A2.235,2.235,0,0,0,23.984,20.5Zm-12.8-5.825L9.935,17.171A1.494,1.494,0,0,1,8.594,18h-1.6a.5.5,0,0,1-.414-.78,9.914,9.914,0,0,1,3.933-3.212.5.5,0,0,1,.673.67Zm2.066-3.511a1,1,0,0,1,2,0v.1a.251.251,0,0,1-.266.25c-.2-.013-.408-.021-.614-.021-.285,0-.568.014-.85.037a.25.25,0,0,1-.27-.249Zm5.026,6.121A1.49,1.49,0,0,1,17,18H13.1a.8.8,0,0,1-.678-.378.79.79,0,0,1-.035-.775l1.008-2.018A1.493,1.493,0,0,1,14.736,14H16.5a1.493,1.493,0,0,1,1.342.829l.5,1A1.491,1.491,0,0,1,18.276,17.287Z"/><circle cx="7.25" cy="22.249" r="1.75"/><circle cx="19.75" cy="22.249" r="1.75"/></svg>