<svg xmlns="http://www.w3.org/2000/svg" viewBox="0 0 24 24"><title>auto-pilot-car-sound-warning</title><circle cx="14.375" cy="17.375" r="2"/><path d="M22.875,4.625H20.489a2.975,2.975,0,0,0-2.544,1.41l-2.912,4.551a.02.02,0,0,1-.012.008l-4.048.674A1.506,1.506,0,0,0,9.75,12.454l-.626,3.127A1.5,1.5,0,0,0,10.6,17.375h.562a.25.25,0,0,0,.247-.214,4.584,4.584,0,0,1,.259-1.069,3,3,0,0,1,5.427.006,4.58,4.58,0,0,1,.256,1.063.251.251,0,0,0,.248.214h5.781a.5.5,0,0,0,.5-.5V5.625A1,1,0,0,0,22.875,4.625Zm-1,5.5a.25.25,0,0,1-.25.25L18,10.38A.249.249,0,0,1,17.785,10l1.854-2.9a.993.993,0,0,1,.85-.474h1.136a.25.25,0,0,1,.25.25Z"/><path d="M2.125,12.236a7.463,7.463,0,0,1,2.092-5.2A1,1,0,0,0,2.775,5.654a9.5,9.5,0,0,0,0,13.164,1,1,0,0,0,1.442-1.385A7.469,7.469,0,0,1,2.125,12.236Z"/><path d="M7.053,7.739a1,1,0,0,0-1.413.043,6.5,6.5,0,0,0,0,8.907A1,1,0,0,0,7.1,15.318a4.5,4.5,0,0,1,0-6.164A1,1,0,0,0,7.053,7.739Z"/></svg>