<svg xmlns="http://www.w3.org/2000/svg" viewBox="0 0 24 24"><title>baby-care-clothes</title><path d="M22.82,4.08,21.761,3.02A11.972,11.972,0,0,0,15.07,0a.749.749,0,0,0-.82.738,2.25,2.25,0,0,1-4.5,0A.749.749,0,0,0,8.93,0,11.972,11.972,0,0,0,2.239,3.02L1.18,4.08a1.748,1.748,0,0,0,0,2.468L2.6,7.977a1.781,1.781,0,0,0,2.258.172.249.249,0,0,1,.395.2v12.9a2.75,2.75,0,0,0,5.5,0V18.5a1.25,1.25,0,0,1,2.5,0v2.75a2.75,2.75,0,0,0,5.5,0V8.353a.249.249,0,0,1,.395-.2A1.781,1.781,0,0,0,21.4,7.977l1.419-1.429A1.748,1.748,0,0,0,22.82,4.08ZM12,13.767a1,1,0,1,1,1-1A1,1,0,0,1,12,13.767Zm0-3.51a1,1,0,1,1,1-1A1,1,0,0,1,12,10.257Zm0-3.51a1,1,0,1,1,1-1A1,1,0,0,1,12,6.747Z"/></svg>