<svg xmlns="http://www.w3.org/2000/svg" viewBox="0 0 24 24"><title>baby-care-cot-mobile</title><path d="M24,4.5a1,1,0,0,0-1-1H13.5A.5.5,0,0,1,13,3V1a1,1,0,0,0-2,0V3a.5.5,0,0,1-.5.5H1a1,1,0,0,0,0,2H3.5A.5.5,0,0,1,4,6V9.141a.5.5,0,0,1-.312.463,3.5,3.5,0,1,0,2.624,0A.5.5,0,0,1,6,9.141V6a.5.5,0,0,1,.5-.5h4A.5.5,0,0,1,11,6v8.233a.5.5,0,0,1-.242.428,4.645,4.645,0,0,0-2.237,4.2c0,3.005,2.021,4.925,5.408,5.137h.049a.743.743,0,0,0,.509-1.284,5.426,5.426,0,0,1-1.361-3.91A5.22,5.22,0,0,1,14.5,15.063a.743.743,0,0,0,.182-.842.729.729,0,0,0-.726-.45c-.137.008-.272.018-.405.031A.5.5,0,0,1,13,13.3V6a.5.5,0,0,1,.5-.5h4A.5.5,0,0,1,18,6v5.909a1.006,1.006,0,0,1-.118.471l-2.414,4.514a1,1,0,0,0,.882,1.47h5.3a1,1,0,0,0,.882-1.47h0L20.118,12.38A1.006,1.006,0,0,1,20,11.909V6a.5.5,0,0,1,.5-.5H23A1,1,0,0,0,24,4.5Z"/></svg>