<svg xmlns="http://www.w3.org/2000/svg" viewBox="0 0 24 24"><title>baby-care-diaper</title><path d="M23.382,5.259a.5.5,0,0,1-.132-.339V3.913A1.665,1.665,0,0,0,21.587,2.25H2.413A1.665,1.665,0,0,0,.75,3.913V4.92a.5.5,0,0,1-.132.339A2.332,2.332,0,0,0,0,6.842V8.658a2.332,2.332,0,0,0,.618,1.583.5.5,0,0,1,.132.336,11.25,11.25,0,0,0,22.5,0,.5.5,0,0,1,.132-.336A2.332,2.332,0,0,0,24,8.658V6.842A2.332,2.332,0,0,0,23.382,5.259ZM2,8.658V6.842A.342.342,0,0,1,2.342,6.5H5.658A.342.342,0,0,1,6,6.842V8.658A.342.342,0,0,1,5.658,9H2.342A.342.342,0,0,1,2,8.658Zm8.153,10.266a.5.5,0,0,1-.6.344,8.742,8.742,0,0,1-6.172-5.5.5.5,0,0,1,.314-.647,5.152,5.152,0,0,1,1.616-.261,4.912,4.912,0,0,1,5.025,4.791A4.463,4.463,0,0,1,10.153,18.924ZM12,13.111a.679.679,0,0,1-.426-.151c-.927-.736-3.043-2.576-3.043-4.022a1.694,1.694,0,0,1,3.245-.844.249.249,0,0,0,.448,0,1.694,1.694,0,0,1,3.245.844c0,1.446-2.116,3.286-3.043,4.022A.679.679,0,0,1,12,13.111Zm8.614.658a8.742,8.742,0,0,1-6.172,5.5.5.5,0,0,1-.6-.344,4.463,4.463,0,0,1-.188-1.272,4.912,4.912,0,0,1,5.025-4.791,5.152,5.152,0,0,1,1.616.261.5.5,0,0,1,.314.647ZM22,8.658A.342.342,0,0,1,21.658,9H18.342A.342.342,0,0,1,18,8.658V6.842a.342.342,0,0,1,.342-.342h3.316A.342.342,0,0,1,22,6.842Z"/></svg>