<svg xmlns="http://www.w3.org/2000/svg" viewBox="0 0 24 24"><title>baby-girl</title><path d="M7.869,6.869a2.585,2.585,0,0,0,1.918-.893.5.5,0,0,0,.08-.6,2.448,2.448,0,0,1,.552-3.081.5.5,0,0,0,.032-.736L9.619.726a2.474,2.474,0,0,0-4.225,1.75V4.393A2.478,2.478,0,0,0,7.869,6.869Z"/><path d="M14.452,4.167a2.426,2.426,0,0,1-.32,1.208.5.5,0,0,0,.081.6,2.582,2.582,0,0,0,1.918.893,2.478,2.478,0,0,0,2.475-2.476V2.476A2.474,2.474,0,0,0,14.381.726l-.832.832a.5.5,0,0,0,.031.736A2.444,2.444,0,0,1,14.452,4.167Z"/><path d="M12,5.619a1.453,1.453,0,1,0-1.452-1.452A1.454,1.454,0,0,0,12,5.619Z"/><path d="M22.566,10.926a1,1,0,0,1-.38-.571A11.517,11.517,0,0,0,20.8,7.008,1,1,0,1,0,19.1,8.06a9.483,9.483,0,0,1,1.293,3.5,1,1,0,0,0,.637.783,1.5,1.5,0,0,1-.228,2.876,1,1,0,0,0-.755.672A8.46,8.46,0,0,1,12,22a8.46,8.46,0,0,1-8.042-6.107,1,1,0,0,0-.755-.672,1.5,1.5,0,0,1-.228-2.876,1,1,0,0,0,.637-.783,9.483,9.483,0,0,1,1.293-3.5A1,1,0,1,0,3.2,7.008a11.49,11.49,0,0,0-1.39,3.347,1,1,0,0,1-.38.571,3.5,3.5,0,0,0,.473,5.941,1,1,0,0,1,.467.506A10.5,10.5,0,0,0,12,24a10.5,10.5,0,0,0,9.626-6.627,1,1,0,0,1,.467-.506,3.5,3.5,0,0,0,.473-5.941Z"/><path d="M10.555,12.737a1.022,1.022,0,0,0-.993-1.032.974.974,0,0,0-.966.733.527.527,0,0,1-1.017.019,1,1,0,0,0-1.96.28,2.281,2.281,0,0,0,2.468,2.1A2.281,2.281,0,0,0,10.555,12.737Z"/><path d="M18.381,12.737a1,1,0,0,0-1.96-.28.527.527,0,0,1-1.017-.019.975.975,0,0,0-.966-.733,1.022,1.022,0,0,0-.993,1.032,2.281,2.281,0,0,0,2.468,2.1A2.281,2.281,0,0,0,18.381,12.737Z"/><path d="M12,20.1a3.6,3.6,0,0,0,3.156-1.468,1,1,0,0,0-1.72-1.02A1.852,1.852,0,0,1,12,18.1a1.852,1.852,0,0,1-1.436-.488,1,1,0,1,0-1.72,1.02A3.6,3.6,0,0,0,12,20.1Z"/></svg>