<svg xmlns="http://www.w3.org/2000/svg" viewBox="0 0 24 24"><title>baby-mother</title><path d="M9.435,10.906a1.863,1.863,0,0,1-2.082,0,.751.751,0,0,0-.918,1.188,3.253,3.253,0,0,0,3.918,0,.751.751,0,0,0-.918-1.188Z"/><circle cx="10.394" cy="8.5" r="1"/><circle cx="6.394" cy="8.5" r="1"/><path d="M14.791,12.167a.5.5,0,0,0,.244-.523A2.252,2.252,0,0,1,15.724,9.6a.5.5,0,0,0,.161-.372c0-.55,0-1.12.009-1.725a7.5,7.5,0,1,0-15,.007,23.65,23.65,0,0,1-.852,7.936,1.008,1.008,0,0,0,.526,1.2A19.46,19.46,0,0,0,8.4,18c.847,0,1.666-.035,2.447-.1a.5.5,0,0,0,.454-.442A7.01,7.01,0,0,1,14.791,12.167ZM13.394,9.5a5,5,0,0,1-10,0v-2a.5.5,0,0,1,.5-.5A4.992,4.992,0,0,0,7.985,4.875a.5.5,0,0,1,.818,0A5,5,0,0,0,12.894,7a.5.5,0,0,1,.5.5Z"/><path d="M19.465,19.212a.627.627,0,0,0-.857.22.343.343,0,0,1-.617,0,.625.625,0,0,0-1.076.636,1.591,1.591,0,0,0,2.769,0A.625.625,0,0,0,19.465,19.212Z"/><circle cx="16.8" cy="17.25" r="1"/><circle cx="19.8" cy="17.25" r="1"/><path d="M20.249,12.859a.251.251,0,0,1-.121-.374l.454-.68a1,1,0,0,0-1.664-1.11l-.24.361a.251.251,0,0,1-.437-.037l-.078-.175a1,1,0,1,0-1.827.812l.342.769a.251.251,0,0,1-.154.34,5.751,5.751,0,1,0,3.725.094ZM18.25,22A3.75,3.75,0,1,1,22,18.25,3.755,3.755,0,0,1,18.25,22Z"/></svg>