<svg id="Bold" xmlns="http://www.w3.org/2000/svg" viewBox="0 0 24 24"><title>bag-handle</title><path d="M15.447,4.894a.246.246,0,0,0,.111.167.251.251,0,0,0,.2.033,2.99,2.99,0,0,1,1.4-.022.249.249,0,0,0,.223-.059.253.253,0,0,0,.08-.217,5.5,5.5,0,0,0-10.91,0,.25.25,0,0,0,.3.276,2.99,2.99,0,0,1,1.4.022.25.25,0,0,0,.309-.2,3.5,3.5,0,0,1,6.894,0Z"/><path d="M23.991,20.254l-.571-9v0A3.512,3.512,0,0,0,19.929,8H18.437a.5.5,0,0,1-.484-.375,1.5,1.5,0,0,0-2.906,0A.5.5,0,0,1,14.563,8H9.437a.5.5,0,0,1-.484-.375,1.5,1.5,0,0,0-2.906,0A.5.5,0,0,1,5.563,8H4.071A3.514,3.514,0,0,0,.58,11.254l-.571,9A3.5,3.5,0,0,0,3.5,24H6a.5.5,0,0,0,.5-.5V10A.5.5,0,0,1,7,9.5H8a.5.5,0,0,1,.5.5V23.5A.5.5,0,0,0,9,24h6a.5.5,0,0,0,.5-.5V10a.5.5,0,0,1,.5-.5h1a.5.5,0,0,1,.5.5V23.5a.5.5,0,0,0,.5.5h2.5a3.5,3.5,0,0,0,3.491-3.746Z"/></svg>