<svg id="Bold" xmlns="http://www.w3.org/2000/svg" viewBox="0 0 24 24"><title>bag-carry</title><path d="M21.5,21.25a2.5,2.5,0,0,1-2.5-2.5v-7.5a1.73,1.73,0,0,0-.35-1.049.751.751,0,0,1,1.2-.9,3.23,3.23,0,0,1,.65,1.951v7.5a1,1,0,0,0,2,0V11.243a5.262,5.262,0,0,0-3.062-4.77.75.75,0,1,1,.625-1.363A6.763,6.763,0,0,1,24,11.243V18.75A2.5,2.5,0,0,1,21.5,21.25Z"/><path d="M16.5,12H13.515a.25.25,0,0,1-.237-.329,4.447,4.447,0,0,0,.2-.947.25.25,0,0,1,.249-.224H16.5a1,1,0,0,0,1-1V5.25A2.5,2.5,0,0,0,15,2.75H11.5a.5.5,0,0,0-.5.5V7.816a.5.5,0,0,0,.142.349A2.97,2.97,0,0,1,12,10.25a3,3,0,0,1-6,0,2.97,2.97,0,0,1,.858-2.085A.5.5,0,0,0,7,7.816V3.25a.5.5,0,0,0-.5-.5h-4A2.5,2.5,0,0,0,0,5.25V9.5a1,1,0,0,0,1,1H4.283a.251.251,0,0,1,.249.224,4.447,4.447,0,0,0,.2.947A.25.25,0,0,1,4.5,12H1a2.775,2.775,0,0,1-.687-.087.246.246,0,0,0-.216.044.25.25,0,0,0-.1.2v2.1a2.5,2.5,0,0,0,2.5,2.5H15a2.5,2.5,0,0,0,2.5-2.5v-2.1a.25.25,0,0,0-.313-.242A2.775,2.775,0,0,1,16.5,12Z"/><circle cx="9.007" cy="10.25" r="1.5"/></svg>