<svg xmlns="http://www.w3.org/2000/svg" viewBox="0 0 24 24"><title>baggage-add</title><path d="M9.276,15.417A8.019,8.019,0,0,1,14.939,9.77a7.938,7.938,0,0,1,4.244.038.245.245,0,0,0,.317-.234V7a2.006,2.006,0,0,0-2-2H15a.25.25,0,0,1-.25-.25V2.25A2.25,2.25,0,0,0,12.5,0h-5A2.25,2.25,0,0,0,5.25,2.25v2.5A.25.25,0,0,1,5,5H2.5a2.006,2.006,0,0,0-2,2V18a2.006,2.006,0,0,0,2,2H9.074a.244.244,0,0,0,.234-.316A7.935,7.935,0,0,1,9.276,15.417ZM7.75,4.75v-2A.25.25,0,0,1,8,2.5h4a.25.25,0,0,1,.25.25v2A.25.25,0,0,1,12,5H8A.25.25,0,0,1,7.75,4.75Z"/><path d="M17,11a6.5,6.5,0,1,0,6.5,6.5A6.508,6.508,0,0,0,17,11Zm3,7.25H18a.25.25,0,0,0-.25.25v2a.75.75,0,0,1-1.5,0v-2a.25.25,0,0,0-.25-.25H14a.75.75,0,0,1,0-1.5h2a.25.25,0,0,0,.25-.25v-2a.75.75,0,0,1,1.5,0v2a.25.25,0,0,0,.25.25h2a.75.75,0,0,1,0,1.5Z"/></svg>