<svg xmlns="http://www.w3.org/2000/svg" viewBox="0 0 24 24"><title>baggage-weight</title><path d="M11.525,5.75a5.75,5.75,0,1,0-5.75,5.75A5.756,5.756,0,0,0,11.525,5.75ZM5.775,9.5a3.75,3.75,0,1,1,3.75-3.75A3.755,3.755,0,0,1,5.775,9.5Z"/><path d="M6.716,3.572,4.883,5.622A.75.75,0,1,0,6,6.622l1.833-2.05a.75.75,0,0,0-1.118-1Z"/><path d="M22.975,13H20.5a.5.5,0,0,1-.5-.5V11.01a2,2,0,0,0-2-2H14a2,2,0,0,0-2,2V12.5a.5.5,0,0,1-.5.5H9.025a1,1,0,0,0-1,1v9a1,1,0,0,0,1,1h13.95a1,1,0,0,0,1-1V14A1,1,0,0,0,22.975,13ZM14,11.51a.5.5,0,0,1,.5-.5h3a.5.5,0,0,1,.5.5v.99a.5.5,0,0,1-.5.5h-3a.5.5,0,0,1-.5-.5ZM19.5,21h-7a.5.5,0,0,1,0-1h7a.5.5,0,0,1,0,1Zm0-4h-7a.5.5,0,0,1,0-1h7a.5.5,0,0,1,0,1Z"/></svg>