<svg xmlns="http://www.w3.org/2000/svg" viewBox="0 0 24 24"><title>baggage-roll</title><path d="M22.5,4.75h-2v-2a2,2,0,0,0-2-2h-3a2,2,0,0,0-2,2v2h-2A1.5,1.5,0,0,0,10,6.25v14a1.5,1.5,0,0,0,1.5,1.5v.5a1,1,0,0,0,2,0v-.5h7v.5a1,1,0,0,0,2,0v-.5a1.5,1.5,0,0,0,1.5-1.5v-14A1.5,1.5,0,0,0,22.5,4.75Zm-8,2.75a.75.75,0,0,1,.75.75v9.5a.75.75,0,0,1-1.5,0V8.25A.75.75,0,0,1,14.5,7.5Zm4.25.75a.75.75,0,0,1,1.5,0v9.5a.75.75,0,0,1-1.5,0ZM15.5,3a.25.25,0,0,1,.25-.25h2.5A.25.25,0,0,1,18.5,3V4.5a.25.25,0,0,1-.25.25h-2.5a.25.25,0,0,1-.25-.25Z"/><path d="M7.5,19.25H1a1,1,0,0,0,0,2H7.5a1,1,0,0,0,0-2Z"/><path d="M7.5,15.25H3.25a1,1,0,0,0,0,2H7.5a1,1,0,0,0,0-2Z"/><path d="M7.5,11.25H5.75a1,1,0,0,0,0,2H7.5a1,1,0,0,0,0-2Z"/></svg>