<svg xmlns="http://www.w3.org/2000/svg" viewBox="0 0 24 24"><title>baggage-leave</title><circle cx="8.5" cy="2.75" r="2.5"/><path d="M12.442,12.662a1.5,1.5,0,0,0-1.03-1.854L8.7,10.031A.5.5,0,0,1,8.4,9.8L6.8,7.006a1.5,1.5,0,0,0-2.626.038l-4,7.5A1.5,1.5,0,0,0,0,15.25v7a1.5,1.5,0,0,0,3,0V15.625l2.545-4.772.249.436a3.488,3.488,0,0,0,2.077,1.627l2.717.776A1.5,1.5,0,0,0,12.442,12.662Z"/><path d="M23,10.25H21.75v-1a2.75,2.75,0,0,0-5.5,0v1H15a1,1,0,0,0-1,1v5a1,1,0,0,0,1,1h8a1,1,0,0,0,1-1v-5A1,1,0,0,0,23,10.25Zm-4.75-1a.75.75,0,0,1,1.5,0v1h-1.5Z"/><path d="M23.5,18.75h-11a2.5,2.5,0,0,0,0,5h11a.5.5,0,0,0,.5-.5v-4A.5.5,0,0,0,23.5,18.75ZM13,21.25a.75.75,0,1,1,.75.75A.75.75,0,0,1,13,21.25Zm3.5,0a.75.75,0,1,1,.75.75A.75.75,0,0,1,16.5,21.25Zm3.5,0a.75.75,0,1,1,.75.75A.75.75,0,0,1,20,21.25Z"/></svg>