<svg xmlns="http://www.w3.org/2000/svg" viewBox="0 0 24 24"><title>baggage-1</title><path d="M16.5,5.75h-1a.5.5,0,0,1-.5-.5V3a.5.5,0,0,1,.5-.5,1.25,1.25,0,0,0,0-2.5h-7a1.25,1.25,0,0,0,0,2.5A.5.5,0,0,1,9,3V5.25a.5.5,0,0,1-.5.5h-1A2.5,2.5,0,0,0,5,8.25v12a2.494,2.494,0,0,0,2,2.437.312.312,0,0,1,.25.306V23a1,1,0,0,0,2,0,.25.25,0,0,1,.25-.25h5a.25.25,0,0,1,.25.25,1,1,0,0,0,2,0v-.007a.311.311,0,0,1,.25-.306,2.494,2.494,0,0,0,2-2.437v-12A2.5,2.5,0,0,0,16.5,5.75ZM11,3a.5.5,0,0,1,.5-.5h1A.5.5,0,0,1,13,3V5.25a.5.5,0,0,1-.5.5h-1a.5.5,0,0,1-.5-.5Zm5,15.25a1.5,1.5,0,0,1-1.5,1.5h-5A1.5,1.5,0,0,1,8,18.25v-2.5a1,1,0,0,1,1-1h6a1,1,0,0,1,1,1ZM15.5,10H11.25a.5.5,0,0,0-.5.5v1a.75.75,0,0,1-1.5,0v-1a.5.5,0,0,0-.5-.5H8.5a.75.75,0,0,1,0-1.5h7a.75.75,0,0,1,0,1.5Z"/></svg>