<svg id="Bold" xmlns="http://www.w3.org/2000/svg" viewBox="0 0 24 24"><title>bandage-leg</title><path d="M20.024,5.619a.5.5,0,0,0-.37-.483l-9-2.421a.5.5,0,0,0-.63.483v2.3a.5.5,0,0,0,.362.481l9,2.574a.5.5,0,0,0,.638-.48Z"/><path d="M16.582,18.563a.5.5,0,0,0-.113-.908l-5.8-1.735a.5.5,0,0,0-.643.479V18h-1.5a.5.5,0,0,0-.5.5v5a.5.5,0,0,0,.5.5h4.75a.5.5,0,0,0,.5-.5A5.748,5.748,0,0,1,16.582,18.563Z"/><path d="M15.272,23.5a.5.5,0,0,0,.5.5h2.752a1.5,1.5,0,0,0,1.5-1.5V19.75a.5.5,0,0,0-.5-.5h0A4.255,4.255,0,0,0,15.272,23.5Z"/><path d="M1.2,22.126A1.5,1.5,0,0,0,2.65,24H6.022a.5.5,0,0,0,.5-.5V18.525a.5.5,0,0,0-.55-.5A5.5,5.5,0,0,0,1.2,22.126Z"/><path d="M20.024,1a1,1,0,0,0-1-1h-8a1,1,0,0,0-.712.3.5.5,0,0,0,.228.833l8.854,2.381a.5.5,0,0,0,.63-.483Z"/><path d="M.082,12.287c-.394,1.26.66,2.674,2.4,3.218a4.4,4.4,0,0,0,1.314.207,2.437,2.437,0,0,0,2.491-1.483h0a1.752,1.752,0,0,0,.053-.8.25.25,0,0,1,.319-.278l16.056,4.814A1,1,0,0,0,24,17.005V12.188a1,1,0,0,0-.725-.96L5.51,6.132a3.206,3.206,0,0,0-2.275.175A2.453,2.453,0,0,0,1.859,7.638ZM2.93,14.073c-1.02-.319-1.52-1.006-1.416-1.339.072-.228.476-.432,1.054-.432a2.954,2.954,0,0,1,.871.139c1.019.319,1.519,1,1.416,1.338S3.949,14.394,2.93,14.073Z"/></svg>