<svg id="Bold" xmlns="http://www.w3.org/2000/svg" viewBox="0 0 24 24"><title>bandage-leg-hanging</title><path d="M22.76,14a1.506,1.506,0,0,0-1.45,1.11l-1.08,3.96a.5.5,0,0,1-.52.37l-4.78-.36-1.71.37a4.093,4.093,0,0,1-.85.09,3.982,3.982,0,0,1-2.31-.748.5.5,0,0,0-.254-.093l-2.324-.172a.476.476,0,0,0-.18.02L1.07,20.42a2.239,2.239,0,0,1-.57.08A.5.5,0,0,0,0,21v2.5a.5.5,0,0,0,.5.5h21A2.509,2.509,0,0,0,24,21.5V15.24A1.24,1.24,0,0,0,22.76,14Z"/><path d="M.5,19a.784.784,0,0,0,.14-.02l7.443-2.236a.5.5,0,0,0,.349-.56,4.026,4.026,0,0,1-.052-.644V9.573a.5.5,0,0,0-.623-.485L.37,10.96a.5.5,0,0,0-.37.49V18.5a.479.479,0,0,0,.2.4A.453.453,0,0,0,.5,19Z"/><path d="M17.161,4.967l.015.005,5.141,1.58a.5.5,0,0,0,.629-.612l-.665-2.39a2.75,2.75,0,0,0-5.374,1.133A.349.349,0,0,0,17.161,4.967Z"/><path d="M17.4,6.623l0,0,0,0a.181.181,0,0,0-.138.215L18.605,13a.5.5,0,0,0,.633.372L22.2,12.48a2.512,2.512,0,0,0,1.71-3.07l-.167-.6a.5.5,0,0,0-.334-.343l-6-1.848Z"/><path d="M12.375,18.041a2.568,2.568,0,0,0,.528-.056l2.616-.561a2.5,2.5,0,0,0,1.918-2.979L14.367.394A.5.5,0,0,0,13.878,0h-3.5a.5.5,0,0,0-.5.5V15.54a2.5,2.5,0,0,0,2.5,2.5Z"/></svg>