<svg id="Bold" xmlns="http://www.w3.org/2000/svg" viewBox="0 0 24 24"><title>barbecue-set</title><path d="M15.5,0a.5.5,0,0,0-.5.5v9a.5.5,0,0,1-.5.5H3.5a.5.5,0,0,0-.5.5,6.494,6.494,0,0,0,2.524,5.139,1,1,0,0,1,.378.931L5.01,22.859a1,1,0,0,0,.849,1.131A.988.988,0,0,0,6,24a1,1,0,0,0,.989-.859l.243-1.711a.5.5,0,0,1,.5-.43h3.544a.5.5,0,0,1,.495.43l.243,1.711A1,1,0,0,0,13,24a.988.988,0,0,0,.142-.01,1,1,0,0,0,.849-1.131L13.1,16.57a1,1,0,0,1,.378-.931,6.5,6.5,0,0,0,2.467-4.279.5.5,0,0,1,.418-.428A5.5,5.5,0,0,0,15.5,0ZM7.75,12.5a.75.75,0,0,1,.75-.75h2a.75.75,0,0,1,0,1.5h-2A.75.75,0,0,1,7.75,12.5Zm.4,6.5a.5.5,0,0,1-.5-.57l.156-1.1a.5.5,0,0,1,.58-.423,6.542,6.542,0,0,0,2.21,0,.5.5,0,0,1,.58.423l.156,1.1a.5.5,0,0,1-.495.57Z"/><path d="M13.25,9H4.75a.75.75,0,0,1,0-1.5h8.5a.75.75,0,0,1,0,1.5Z"/></svg>