<svg id="Bold" xmlns="http://www.w3.org/2000/svg" viewBox="0 0 24 24"><title>baseball-player</title><path d="M7.086,9.8a.249.249,0,0,0,.195.051.254.254,0,0,0,.169-.11l4.34-6.6A1.907,1.907,0,1,0,8.422,1.35L5.3,8.908a.25.25,0,0,0,.234.346A2.463,2.463,0,0,1,7.086,9.8Z"/><path d="M15.083,21.1a.5.5,0,0,1,.944,0l.8,2.309a.5.5,0,0,0,.471.335l2.143,0a.5.5,0,0,0,.475-.658l-1.363-4.089V13.254a3,3,0,0,0-3-3H12.3a4.5,4.5,0,0,0-3.183,1.318l-.573.572a.506.506,0,0,1-.738-.033l-1.1-1.317A1.5,1.5,0,1,0,4.4,12.714l1.1,1.318a3.528,3.528,0,0,0,2.747,1.262,3.443,3.443,0,0,0,2.417-1.029c.651-.651.858-.892,1.3-.974a.5.5,0,0,1,.591.493V19l-1.362,4.086a.5.5,0,0,0,.474.658h2.141a.5.5,0,0,0,.473-.336Z"/><circle cx="15.055" cy="6.254" r="2.5"/></svg>