<svg id="Bold" xmlns="http://www.w3.org/2000/svg" viewBox="0 0 24 24"><title>basketball-ball-dribble-player</title><path d="M6.149,15.485a2.484,2.484,0,0,1-2.113-1.173.25.25,0,0,0-.291-.1,3.494,3.494,0,1,0,4.6,3.308,3.454,3.454,0,0,0-.726-2.106.25.25,0,0,0-.24-.1A7.115,7.115,0,0,1,6.149,15.485Z"/><circle cx="12.345" cy="2.515" r="2.5"/><path d="M21.745,14.709a1.5,1.5,0,0,0,.788-1.969l-1.01-2.357a4.527,4.527,0,0,0-2.468-2.407L16.51,6.96a5.318,5.318,0,0,0-2.238-.492A5.5,5.5,0,0,0,9.527,9.214l-.964,1.3a1.491,1.491,0,0,1-1.048.724L5.9,11.505A1.5,1.5,0,0,0,4.67,13.232,1.516,1.516,0,0,0,6.4,14.464L8.008,14.2a4.487,4.487,0,0,0,3.147-2.171c.237-.319.911-1.28,1.376-1.795a.249.249,0,0,1,.421.085l1.168,3.347a.25.25,0,0,1-.115.3l-1.536.853a4.505,4.505,0,0,0-2.315,3.934v3.735a1.5,1.5,0,0,0,3,0V18.75a1.5,1.5,0,0,1,.772-1.311l1.135-.631a.25.25,0,0,1,.207-.016.247.247,0,0,1,.148.145l2.346,6.1a1.5,1.5,0,1,0,2.785-1.113L16.282,10.549a.25.25,0,0,1,.327-.32l1.334.534a1.513,1.513,0,0,1,.823.8l1.009,2.357A1.5,1.5,0,0,0,21.745,14.709Z"/></svg>