<svg id="Bold" xmlns="http://www.w3.org/2000/svg" viewBox="0 0 24 24"><title>bat</title><path d="M16.284,2.322A.5.5,0,0,1,16.751,2H19a1,1,0,0,0,0-2H5A1,1,0,0,0,5,2H7.2a.5.5,0,0,1,.465.317L8.832,5.3a1.753,1.753,0,0,1,.829.312L17.4,11.1a12.94,12.94,0,0,0-2.386-5.442Zm-6.33.361A.5.5,0,0,1,10.419,2h3.123a.5.5,0,0,1,.467.678l-.447,1.177a16.434,16.434,0,0,0-1.234-1.232.5.5,0,0,0-.656,0,16.24,16.24,0,0,0-1.25,1.25Z"/><path d="M16.969,12.319,8.938,6.627a.516.516,0,0,0-.393-.081.5.5,0,0,0-.326.235A11.08,11.08,0,0,0,6.5,12.354,8.465,8.465,0,0,0,7.8,17.4a5.549,5.549,0,0,1,.52-.729l1.507-1.786a2.838,2.838,0,0,1,4.347,0l1.506,1.786a5.382,5.382,0,0,1,.455.622L17.3,16.118a2.5,2.5,0,0,0-.331-3.8Z"/><path d="M14.534,17.639l-1.507-1.785a1.374,1.374,0,0,0-2.053,0L9.467,17.639A4.127,4.127,0,0,0,8.5,20.3V23.25a.75.75,0,0,0,1.28.53l.832-.832a3.884,3.884,0,0,0,2.776,0l.832.832,0,0A.749.749,0,0,0,15.5,23.25V20.3A4.125,4.125,0,0,0,14.534,17.639ZM13.5,21.6a1,1,0,1,1,1-1A1,1,0,0,1,13.5,21.6Zm-2-1a1,1,0,1,1-1-1A1,1,0,0,1,11.5,20.6Z"/></svg>