<svg xmlns="http://www.w3.org/2000/svg" viewBox="0 0 24 24"><title>bathroom-shower-person</title><path d="M5.251,3.256a1,1,0,0,0-.235-1.593A2.492,2.492,0,0,0,3.19,1.506L1.635.228A1,1,0,1,0,.365,1.773L1.646,2.825a2.5,2.5,0,0,0,.016,2.19,1,1,0,0,0,1.594.236Z"/><path d="M8.725,8.182a1,1,0,1,0,0,1.414A1,1,0,0,0,8.725,8.182Z"/><path d="M6.25,12.071a1,1,0,1,0-1.414,0A1,1,0,0,0,6.25,12.071Z"/><path d="M5.543,14.293a1,1,0,1,0,1.414,0A1,1,0,0,0,5.543,14.293Z"/><path d="M4.836,6.414a1,1,0,1,0,0,1.415A1,1,0,0,0,4.836,6.414Z"/><path d="M5.543,5.707a1,1,0,1,0,0-1.414A1,1,0,0,0,5.543,5.707Z"/><path d="M9.432,7.475a1,1,0,1,0,0-1.414A1,1,0,0,0,9.432,7.475Z"/><path d="M13.321,5a1,1,0,1,0-1.414,0A1,1,0,0,0,13.321,5Z"/><path d="M16.957,5.707a1,1,0,1,0-1.414,0A1,1,0,0,0,16.957,5.707Z"/><path d="M9.078,3.586a1,1,0,1,0-1.414,0A1,1,0,0,0,9.078,3.586Z"/><path d="M22.747,7.521A1.5,1.5,0,0,0,21.02,8.753a5.663,5.663,0,0,1-5.6,4.747H11.5a3,3,0,0,0,0,6H13a1.5,1.5,0,0,0,0-3H11.5a.5.5,0,0,1,0-1H13a2.5,2.5,0,0,1,0,5H11.75a.25.25,0,0,0-.25.25v3a.25.25,0,0,0,.25.25h5.5a.25.25,0,0,0,.25-.25V16.437a.251.251,0,0,1,.185-.242,8.643,8.643,0,0,0,6.294-6.948A1.5,1.5,0,0,0,22.747,7.521Z"/><circle cx="14.5" cy="10" r="2.5"/></svg>