<svg xmlns="http://www.w3.org/2000/svg" viewBox="0 0 24 24"><title>bathroom-hanger</title><path d="M18.489,20.984H5.511a.5.5,0,0,0-.5.5v1.5a1,1,0,0,0,1,1H17.99a1,1,0,0,0,1-1v-1.5A.5.5,0,0,0,18.489,20.984Z"/><path d="M24,11.543A2.163,2.163,0,0,0,23.356,10a19,19,0,0,0-10.134-4.92A.249.249,0,0,1,13,4.83V3.889a1,1,0,0,0-1-1,.437.437,0,0,1,0-.874.432.432,0,0,1,.319.139A1,1,0,1,0,13.775.789a2.433,2.433,0,1,0-2.907,3.819A.25.25,0,0,1,11,4.829v.085a.155.155,0,0,1-.141.155A18.955,18.955,0,0,0,.644,10,2.163,2.163,0,0,0,0,11.543,1.956,1.956,0,0,0,1.955,13.5H4.763a.25.25,0,0,1,.249.25v5.241a.5.5,0,0,0,.5.5H18.489a.5.5,0,0,0,.5-.5V13.747a.25.25,0,0,1,.249-.25h2.808A1.956,1.956,0,0,0,24,11.543ZM18.915,11.5a.219.219,0,0,1-.2-.12A2.5,2.5,0,0,0,16.492,10H7.508a2.5,2.5,0,0,0-2.224,1.369.25.25,0,0,1-.22.137l-2.616.029a.25.25,0,0,1-.184-.421C3.432,9.884,8.187,7.009,12,7.009c3.729,0,8.535,2.837,9.754,4.067a.25.25,0,0,1-.177.425Z"/></svg>