<svg xmlns="http://www.w3.org/2000/svg" viewBox="0 0 24 24"><title>bathroom-mirror-cabinet</title><path d="M20.66,15.51a10.045,10.045,0,0,0-6.32,0,.508.508,0,0,0-.34.48V22a1,1,0,0,0,1,1h5a1,1,0,0,0,1-1V15.99A.508.508,0,0,0,20.66,15.51Z"/><path d="M12.5,16.75H12a.75.75,0,0,0,0,1.5h.5a.5.5,0,0,0,.5-.5v-.5A.5.5,0,0,0,12.5,16.75Z"/><path d="M23,16.75h-.5a.5.5,0,0,0-.5.5v.5a.5.5,0,0,0,.5.5H23a.75.75,0,0,0,0-1.5Z"/><path d="M23.25,11H22.5a.5.5,0,0,1-.5-.5V1.25A1.25,1.25,0,0,0,20.75,0H3.25A1.25,1.25,0,0,0,2,1.25V10.5a.5.5,0,0,1-.5.5H.75a.75.75,0,0,0,0,1.5h22.5a.75.75,0,0,0,0-1.5ZM8.05,10h-1A3,3,0,0,1,4.11,7.6a.526.526,0,0,1,.1-.42A.532.532,0,0,1,4.6,7h5.9a.532.532,0,0,1,.39.18.526.526,0,0,1,.1.42A3,3,0,0,1,8.05,10Zm8.9,0h-1a3,3,0,0,1-2.94-2.4.526.526,0,0,1,.1-.42A.532.532,0,0,1,13.5,7h5.9a.532.532,0,0,1,.39.18.526.526,0,0,1,.1.42A3,3,0,0,1,16.95,10Z"/><path d="M8,17.75H7a.25.25,0,0,1-.25-.25,2.25,2.25,0,0,0-4.5,0,.25.25,0,0,1-.25.25H1a.75.75,0,0,0,0,1.5h.12a.5.5,0,0,1,.5.45L2,23.55a.5.5,0,0,0,.5.45h4a.5.5,0,0,0,.5-.45l.385-3.85a.5.5,0,0,1,.5-.45H8a.75.75,0,0,0,0-1.5Zm-3,0H4a.25.25,0,0,1-.25-.25.75.75,0,0,1,1.5,0A.25.25,0,0,1,5,17.75Z"/></svg>