<svg xmlns="http://www.w3.org/2000/svg" viewBox="0 0 24 24"><title>bathroom-hanger-1</title><path d="M1.125,20a.5.5,0,0,0-.5.5v2a1.5,1.5,0,0,0,1.5,1.5h11a1.5,1.5,0,0,0,1.5-1.5v-2a.5.5,0,0,0-.5-.5Z"/><path d="M23.375,5.25a1.992,1.992,0,0,0-3.589-1.2.5.5,0,0,1-.4.2H15.125a.5.5,0,0,1-.5-.5v-.5a1.25,1.25,0,0,1,2.412-.462A1,1,0,0,0,18.9,2.05,3.236,3.236,0,0,0,15.875,0h-12A3.254,3.254,0,0,0,.625,3.25V18a.5.5,0,0,0,.5.5h13a.5.5,0,0,0,.5-.5V16.5a.5.5,0,0,1,.5-.5h2.5a1.5,1.5,0,0,0,1.5-1.5V8.75a1,1,0,0,0-2,0V13.5a.5.5,0,0,1-.5.5h-1.5a.5.5,0,0,1-.5-.5V6.75a.5.5,0,0,1,.5-.5h4.261a.5.5,0,0,1,.4.2,1.992,1.992,0,0,0,3.589-1.2Z"/></svg>