<svg xmlns="http://www.w3.org/2000/svg" viewBox="0 0 24 24"><title>beacon-remote-house</title><path d="M23.563,7.674l-11-7.5a1,1,0,0,0-1.126,0l-11,7.5A1,1,0,1,0,1.563,9.326L2,9.028V17.5a1,1,0,0,0,2,0V7.8a.252.252,0,0,1,.109-.207l7.75-5.284a.25.25,0,0,1,.282,0l7.75,5.284A.252.252,0,0,1,20,7.8v9.7a1,1,0,0,0,2,0V9.028l.437.3a1,1,0,0,0,1.126-1.652Z"/><path d="M16.949,8.464a1,1,0,0,0,0-1.414,7,7,0,0,0-9.9,0A1,1,0,0,0,8.465,8.464a5,5,0,0,1,7.07,0A1,1,0,0,0,16.949,8.464Z"/><path d="M12,8.5A4.966,4.966,0,0,0,8.465,9.964a1,1,0,0,0,0,1.414,1.067,1.067,0,0,0,1.414,0c2.027-2.026,4.328.061,4.425.122a.989.989,0,0,0,1.231-1.536A4.966,4.966,0,0,0,12,8.5Z"/><path d="M17.5,14.5A1.5,1.5,0,0,0,16,13H8a1.5,1.5,0,0,0-1.5,1.5v8A1.5,1.5,0,0,0,8,24h8a1.5,1.5,0,0,0,1.5-1.5v-8Zm-4.659,5.772a.248.248,0,0,0-.091.193V21.75a.75.75,0,0,1-1.5,0V20.473a.251.251,0,0,0-.091-.193,1.277,1.277,0,0,1-.492-.989,1.333,1.333,0,1,1,2.666,0A1.267,1.267,0,0,1,12.841,20.272ZM15.25,19.5a.75.75,0,0,1-.75-.75,2.5,2.5,0,0,0-5,0,.75.75,0,0,1-1.5,0,4,4,0,0,1,8,0A.75.75,0,0,1,15.25,19.5Z"/></svg>