<svg xmlns="http://www.w3.org/2000/svg" viewBox="0 0 24 24"><title>beacon-remote-plane-1</title><path d="M21.137,3.673a3.541,3.541,0,0,0-1.181-2.492,3.545,3.545,0,0,0-5.1-.161L12.477,3.4,5.3,1.511A2.256,2.256,0,0,0,3.128,2.1l-.572.572A2.255,2.255,0,0,0,2.99,6.2L6.982,8.594a.249.249,0,0,1,.058.379L4.383,11.986a.252.252,0,0,1-.184.085l-.624.009a2.244,2.244,0,0,0-1.811.587L.475,13.847a1.628,1.628,0,0,0,.451,2.618,10.807,10.807,0,0,1,2.331,1.412,15.621,15.621,0,0,1,1.414,2.334,1.628,1.628,0,0,0,2.651.416l1.137-1.243a2.267,2.267,0,0,0,.6-1.822l.009-.624a.249.249,0,0,1,.084-.184l2.275-2.007a1,1,0,1,0-1.323-1.5L7.412,15.62a1,1,0,0,0-.339.736s0,1.374,0,1.438a.313.313,0,0,1-.077.229l-.546.6a.25.25,0,0,1-.4-.047,12.4,12.4,0,0,0-1.25-2.059,9.052,9.052,0,0,0-2.232-1.423.25.25,0,0,1-.046-.4l.608-.556a.262.262,0,0,1,.219-.067c.06.011,1.437,0,1.437,0a1,1,0,0,0,.737-.338L9.534,9.17A1,1,0,0,0,9.3,7.651L4.018,4.483a.255.255,0,0,1-.048-.4l.573-.573a.25.25,0,0,1,.244-.066l7.736,2.036a1,1,0,0,0,.962-.26l2.788-2.787a1.5,1.5,0,0,1,2.213.1.97.97,0,0,0,.112.11,1.491,1.491,0,0,1,.534,1.1.22.22,0,0,0,.2.211,8.466,8.466,0,0,1,1.483.274.248.248,0,0,0,.211-.036.252.252,0,0,0,.106-.186A3.129,3.129,0,0,0,21.137,3.673Z"/><path d="M18.5,5.409a6.952,6.952,0,0,0-4.949,2.05,1,1,0,1,0,1.414,1.414,5,5,0,0,1,7.07,0,1,1,0,1,0,1.414-1.414A6.952,6.952,0,0,0,18.5,5.409Z"/><path d="M24,14.5A1.5,1.5,0,0,0,22.5,13h-8A1.5,1.5,0,0,0,13,14.5v8A1.5,1.5,0,0,0,14.5,24h8A1.5,1.5,0,0,0,24,22.5Zm-4.659,5.777a.247.247,0,0,0-.091.192v1.281a.75.75,0,0,1-1.5,0V20.473a.251.251,0,0,0-.091-.193,1.278,1.278,0,0,1-.492-.991,1.333,1.333,0,1,1,2.666,0A1.272,1.272,0,0,1,19.341,20.274ZM21.75,19.5a.75.75,0,0,1-.75-.75,2.5,2.5,0,0,0-5,0,.75.75,0,0,1-1.5,0,4,4,0,0,1,8,0A.75.75,0,0,1,21.75,19.5Z"/><path d="M22.035,10.373a5,5,0,0,0-7.07,0,1,1,0,0,0,1.414,1.414,3.074,3.074,0,0,1,4.242,0,1,1,0,0,0,1.414-1.414Z"/></svg>