<svg id="Bold" xmlns="http://www.w3.org/2000/svg" viewBox="0 0 24 24"><title>beanie</title><rect x="6.5" y="15" width="4.5" height="7" rx="0.5" ry="0.5"/><rect x="12.5" y="15" width="5" height="7" rx="0.5" ry="0.5"/><path d="M4.5,15h-2A2.5,2.5,0,0,0,0,17.5v2A2.5,2.5,0,0,0,2.5,22h2a.5.5,0,0,0,.5-.5v-6A.5.5,0,0,0,4.5,15Z"/><path d="M21.5,15h-2a.5.5,0,0,0-.5.5v6a.5.5,0,0,0,.5.5h2A2.5,2.5,0,0,0,24,19.5v-2A2.5,2.5,0,0,0,21.5,15Z"/><path d="M9.25,13a.5.5,0,0,0,.5.5h4.5a.5.5,0,0,0,.5-.5V10.043c0-1.473,0-5.758-2.576-7.978A.272.272,0,0,0,12,2a.264.264,0,0,0-.173.065C9.251,4.284,9.25,8.57,9.25,10.043Z"/><path d="M3.5,13.5H7.25a.5.5,0,0,0,.5-.5V10.043A14.749,14.749,0,0,1,9.245,2.894a.249.249,0,0,0-.026-.285.252.252,0,0,0-.277-.074A9.016,9.016,0,0,0,3,11v2A.5.5,0,0,0,3.5,13.5Z"/><path d="M16.25,10.043V13a.5.5,0,0,0,.5.5H20.5A.5.5,0,0,0,21,13V11a9.015,9.015,0,0,0-5.941-8.464.25.25,0,0,0-.3.359A14.74,14.74,0,0,1,16.25,10.043Z"/></svg>