<svg id="Bold" xmlns="http://www.w3.org/2000/svg" viewBox="0 0 24 24"><title>beanie-winter-2</title><rect y="18" width="24" height="5" rx="2" ry="2"/><path d="M2.5,16.5h19A.5.5,0,0,0,22,16,11.2,11.2,0,0,0,14.357,5.836a.248.248,0,0,1-.175-.189.251.251,0,0,1,.085-.244l1.37-1.132a1,1,0,1,0-1.274-1.542l-.962.8a.25.25,0,0,1-.409-.194L13,2.006A1,1,0,0,0,12.006,1H12a1,1,0,0,0-1,.994l-.008,1.338a.25.25,0,0,1-.411.19l-.937-.788A1,1,0,1,0,8.356,4.266L9.718,5.41a.249.249,0,0,1-.091.431A11.2,11.2,0,0,0,2,16,.5.5,0,0,0,2.5,16.5Z"/></svg>