<svg id="Bold" xmlns="http://www.w3.org/2000/svg" viewBox="0 0 24 24"><title>beanie-winter</title><path d="M13.841,4.189a2.5,2.5,0,1,0-3.682,0A9.017,9.017,0,0,0,3,13v1.5a1,1,0,0,0,1,1H20a1,1,0,0,0,1-1V13A9.017,9.017,0,0,0,13.841,4.189Z"/><rect x="6.5" y="17" width="4.5" height="7" rx="0.5" ry="0.5"/><rect x="12.5" y="17" width="5" height="7" rx="0.5" ry="0.5"/><path d="M21.5,17h-2a.5.5,0,0,0-.5.5v6a.5.5,0,0,0,.5.5h2A2.5,2.5,0,0,0,24,21.5v-2A2.5,2.5,0,0,0,21.5,17Z"/><path d="M5,17.5a.5.5,0,0,0-.5-.5h-2A2.5,2.5,0,0,0,0,19.5v2A2.5,2.5,0,0,0,2.5,24h2a.5.5,0,0,0,.5-.5Z"/></svg>