<svg id="Bold" xmlns="http://www.w3.org/2000/svg" viewBox="0 0 24 24"><title>beanie-winter-3</title><path d="M19.414,9.073a18.056,18.056,0,0,0-4.087-2.839,28.921,28.921,0,0,1-2.748-1.682,1,1,0,0,0-1.158,0A29.157,29.157,0,0,1,8.672,6.235,18.094,18.094,0,0,0,4.586,9.072,8.549,8.549,0,0,0,2,15.179V21.5a2.5,2.5,0,0,0,5,0V19a.5.5,0,0,1,.5-.5A2.735,2.735,0,0,0,9.075,18a.5.5,0,0,1,.639.055,3.245,3.245,0,0,0,4.572,0A.5.5,0,0,1,14.925,18a2.735,2.735,0,0,0,1.575.5.5.5,0,0,1,.5.5v2.5a2.5,2.5,0,0,0,5,0V15.179A8.545,8.545,0,0,0,19.414,9.073ZM17.75,15.75a1.25,1.25,0,0,1-2.5,0,.75.75,0,0,0-1.5,0,1.75,1.75,0,0,1-3.5,0,.75.75,0,0,0-1.5,0,1.25,1.25,0,0,1-2.5,0v-2A1.252,1.252,0,0,1,7.5,12.5h9a1.252,1.252,0,0,1,1.25,1.25Z"/><path d="M12,3.5a1,1,0,0,0,1-1V1a1,1,0,0,0-2,0V2.5A1,1,0,0,0,12,3.5Z"/><path d="M14.75,4a.993.993,0,0,0,.707-.293l1.061-1.061A1,1,0,1,0,15.1,1.232L14.043,2.293A1,1,0,0,0,14.75,4Z"/><path d="M15.25,5a1,1,0,0,0,1,1h1.5a1,1,0,0,0,0-2h-1.5A1,1,0,0,0,15.25,5Z"/><path d="M8.543,3.707A1,1,0,1,0,9.957,2.293L8.9,1.232A1,1,0,1,0,7.482,2.646Z"/><path d="M6.25,6h1.5a1,1,0,0,0,0-2H6.25a1,1,0,0,0,0,2Z"/></svg>