<svg id="Bold" xmlns="http://www.w3.org/2000/svg" viewBox="0 0 24 24"><title>beard-style-shaving-machine</title><rect x="10" y="15.75" width="4" height="3" rx="0.5" ry="0.5"/><path d="M18,0a1,1,0,0,0-1,1V3a.5.5,0,0,1-1,0V1a1,1,0,0,0-2,0V3a.5.5,0,0,1-1,0V1a1,1,0,0,0-2,0V3a.5.5,0,0,1-1,0V1A1,1,0,0,0,8,1V3A.5.5,0,0,1,7,3V1A1,1,0,0,0,5,1V4a.975.975,0,0,0,.6.895.5.5,0,0,1,.274.3L6.3,6.475A1.5,1.5,0,0,0,7.721,7.5h8.558A1.5,1.5,0,0,0,17.7,6.475l.426-1.28a.5.5,0,0,1,.275-.3A.975.975,0,0,0,19,4V1A1,1,0,0,0,18,0Z"/><path d="M16.876,8.68a.5.5,0,0,0-.384-.18H7.508a.5.5,0,0,0-.384.18l0,.006a3.758,3.758,0,0,0-.869,2.4V18.25a5.75,5.75,0,0,0,11.5,0V11.087a3.758,3.758,0,0,0-.869-2.4ZM15,20.3a.5.5,0,0,1-.113.318,3.713,3.713,0,0,1-5.774,0A.5.5,0,0,1,9,20.3V14.5a3,3,0,0,1,6,0Z"/></svg>