<svg id="Bold" xmlns="http://www.w3.org/2000/svg" viewBox="0 0 24 24"><title>bear-body</title><path d="M.182,18.792A1.742,1.742,0,0,0,1.908,20.25H3.6a.748.748,0,0,0,.673-.422A24.973,24.973,0,0,1,.412,12.962,15.043,15.043,0,0,0,.182,18.792Z"/><path d="M22.534,10.224c-.113-.082-.235-.171-.367-.269C21.669,7.453,18.092,3.5,5.6,3.5a4.951,4.951,0,0,0-5,5c0,5.819,5.045,11.437,5.26,11.673a1,1,0,0,0,.74.327h4a1,1,0,0,0,1-1v-.719a2,2,0,0,0-1.515-1.94l-.2-.049.43-1.292h2.727l1.5,3.744A1.992,1.992,0,0,0,16.4,20.5h3.823a1,1,0,0,0,1-1v-.719a2,2,0,0,0-1.515-1.94l-.606-.153L18.9,15.5h1.643a2.3,2.3,0,0,0,2.108-1.17c.074-.1.54-.687.54-.687.491-.6.88-1.075.794-1.739C23.9,11.215,23.385,10.842,22.534,10.224ZM19,11a1,1,0,1,1,1-1A1,1,0,0,1,19,11Z"/></svg>