<svg id="Bold" xmlns="http://www.w3.org/2000/svg" viewBox="0 0 24 24"><title>bear-head</title><path d="M24,4.75a4,4,0,0,0-7.677-1.571,10.523,10.523,0,0,0-8.646,0A4,4,0,1,0,2.428,8.427a10.5,10.5,0,1,0,19.143,0A3.989,3.989,0,0,0,24,4.75ZM16.25,9A1.25,1.25,0,1,1,15,10.25,1.249,1.249,0,0,1,16.25,9Zm-6.136,3.5h3.772a.5.5,0,0,1,.5.5A2.111,2.111,0,0,1,12,15.005,2.111,2.111,0,0,1,9.614,13,.5.5,0,0,1,10.114,12.5ZM7.75,9A1.25,1.25,0,1,1,6.5,10.25,1.249,1.249,0,0,1,7.75,9Zm7,10.967A3.5,3.5,0,0,1,12,18.629a3.5,3.5,0,0,1-6.25-2.162.75.75,0,1,1,1.5,0,2,2,0,0,0,4,0,.75.75,0,1,1,1.5,0,2,2,0,0,0,4,0,.75.75,0,0,1,1.5,0A3.5,3.5,0,0,1,14.75,19.967Z"/></svg>