<svg id="Bold" xmlns="http://www.w3.org/2000/svg" viewBox="0 0 24 24"><title>bear-paw</title><path d="M17.065,8.786A6.631,6.631,0,0,0,15.8,4.873V2.587a2.617,2.617,0,0,0-2.5-2.5c-1.3,0-2.053,1.347-2.34,2H6.3c-.288-.653-1.038-2-2.34-2a2.616,2.616,0,0,0-2.5,2.5V4.778A6.671,6.671,0,0,0,.125,8.786c0,4.062,2.933,5.51,4.7,6.383a4.412,4.412,0,0,0,7.47.2C16.123,13.215,17.065,11.248,17.065,8.786Zm-7.99,3.7a.777.777,0,0,0-.9,0,1.778,1.778,0,0,1-2.225-.108.251.251,0,0,1-.065-.283l.49-1.174a.251.251,0,0,1,.139-.136.254.254,0,0,1,.2,0,5.457,5.457,0,0,0,1.917.547,5.465,5.465,0,0,0,1.917-.546.247.247,0,0,1,.194-.005.251.251,0,0,1,.139.136l.49,1.173a.248.248,0,0,1-.065.284A1.8,1.8,0,0,1,9.075,12.487ZM7.258,8.8a1.453,1.453,0,0,1,1.367-.966,1.468,1.468,0,0,1,1.383,1.008l.1.231a.25.25,0,0,1-.127.324,4.575,4.575,0,0,1-1.352.437A4.593,4.593,0,0,1,7.272,9.4a.251.251,0,0,1-.127-.324Zm5.109-1.21a1,1,0,1,1,1-1A1,1,0,0,1,12.367,7.593ZM3.875,6.586a1,1,0,1,1,1,1A1,1,0,0,1,3.875,6.586Zm2.429,8.1a.25.25,0,0,1,.242-.4,3.231,3.231,0,0,0,2.079-.313,3.225,3.225,0,0,0,2.079.313.249.249,0,0,1,.242.4,2.909,2.909,0,0,1-4.642,0Z"/><path d="M18.875,18.157c-2.347,0-4.25,1.567-4.25,3.5a2.68,2.68,0,0,0,.866,1.93.987.987,0,0,0,1.331.123,3.671,3.671,0,0,1,2.3-.553,3.824,3.824,0,0,1,2.083.572.985.985,0,0,0,1.308-.278,3.011,3.011,0,0,0,.609-1.794C23.125,19.724,21.222,18.157,18.875,18.157Z"/><path d="M14.961,18.329a.751.751,0,0,0,.335-1.006l-.5-1a.75.75,0,0,0-1.342.67l.5,1A.761.761,0,0,0,14.961,18.329Z"/><path d="M16.375,15.658v1a.75.75,0,0,0,1.5,0v-1a.75.75,0,0,0-1.5,0Z"/><rect x="19.375" y="14.908" width="1.5" height="2.5" rx="0.75" ry="0.75"/><path d="M23.461,15.987a.751.751,0,0,0-1.007.336l-.5,1a.75.75,0,0,0,.336,1.006.76.76,0,0,0,1.006-.336l.5-1A.751.751,0,0,0,23.461,15.987Z"/></svg>