<svg id="Bold" xmlns="http://www.w3.org/2000/svg" viewBox="0 0 24 24"><title>beard-style</title><path d="M23.891,3.276a1.174,1.174,0,0,0-1.076-1.058,1.239,1.239,0,0,0-1.356.746,36.5,36.5,0,0,1-2.494,4.641.5.5,0,0,1-.641.189c-1.907-.906-5.493-.961-6.324-.961s-4.41.055-6.318.959A.5.5,0,0,1,5.041,7.6a37.741,37.741,0,0,1-2.5-4.684A1.238,1.238,0,0,0,1.187,2.17,1.176,1.176,0,0,0,.11,3.228C-.209,7.243-.1,14.613,4.2,18.871A10.655,10.655,0,0,0,12,21.844a10.656,10.656,0,0,0,7.8-2.975C24.1,14.615,24.208,7.273,23.891,3.276Zm-6.32,9.317A3.627,3.627,0,0,1,14.5,14.952c-.512,0-.777-.168-.86-.548-.057-.256-.256-.56-.881-.56H11.247c-.626,0-.824.3-.882.562-.09.413-.355.6-.859.6a3.637,3.637,0,0,1-3.075-2.383,1,1,0,0,1,.493-1.3,13.981,13.981,0,0,1,5.118-.694,13.769,13.769,0,0,1,5.035.68A.993.993,0,0,1,17.571,12.593Z"/></svg>