<svg id="Bold" xmlns="http://www.w3.org/2000/svg" viewBox="0 0 24 24"><title>beard-style-shave</title><path d="M23,7.5H21.5A.5.5,0,0,1,21,7V4.5a1,1,0,0,0-1-1H4a1,1,0,0,0-1,1V7a.5.5,0,0,1-.5.5H1a1,1,0,0,0-1,1v7a1,1,0,0,0,1,1H2.5A.5.5,0,0,1,3,17v2.5a1,1,0,0,0,1,1H20a1,1,0,0,0,1-1V17a.5.5,0,0,1,.5-.5H23a1,1,0,0,0,1-1v-7A1,1,0,0,0,23,7.5ZM5.5,6A.5.5,0,0,1,6,5.5H18.5A.5.5,0,0,1,19,6V7a.5.5,0,0,1-.5.5H6A.5.5,0,0,1,5.5,7ZM19,18a.5.5,0,0,1-.5.5H6a.5.5,0,0,1-.5-.5V17a.5.5,0,0,1,.5-.5H18.5a.5.5,0,0,1,.5.5Zm1.745-5.491-1.484,1.114a.639.639,0,0,1-.764,0l-.7-.523a.5.5,0,0,0-.3-.1H13.674a.5.5,0,0,0-.373.167,1.743,1.743,0,0,1-2.6,0A.5.5,0,0,0,10.326,13H6.5a.5.5,0,0,0-.3.1l-.7.523a.639.639,0,0,1-.764,0L3.255,12.509a.636.636,0,0,1,0-1.018l1.484-1.114a.639.639,0,0,1,.764,0l.7.523a.5.5,0,0,0,.3.1h3.826a.5.5,0,0,0,.373-.167,1.743,1.743,0,0,1,2.6,0,.5.5,0,0,0,.373.167H17.5a.5.5,0,0,0,.3-.1l.7-.523a.639.639,0,0,1,.764,0l1.484,1.114a.636.636,0,0,1,0,1.018Z"/></svg>