<svg id="Bold" xmlns="http://www.w3.org/2000/svg" viewBox="0 0 24 24"><title>bed-window</title><path d="M22.75,18.4V17a2,2,0,0,0-2-2h-10a.5.5,0,0,1-.5-.5V14a2.1,2.1,0,0,0-1.9-2.1l-2.512-.251A2.358,2.358,0,0,0,3.25,14v.5a.5.5,0,0,1-1,0v-4a1,1,0,0,0-2,0v12a1,1,0,0,0,2,0V22a.5.5,0,0,1,.5-.5h18a.5.5,0,0,1,.5.5v.5a1,1,0,0,0,2,0v-3a.962.962,0,0,0-.333-.724A.5.5,0,0,1,22.75,18.4Zm-2-.4a.5.5,0,0,1-.5.5H2.75a.5.5,0,0,1-.5-.5v-.5a.5.5,0,0,1,.5-.5h17.5a.5.5,0,0,1,.5.5Z"/><rect x="19.75" y="5" width="4" height="3" rx="0.5" ry="0.5"/><path d="M22.75.5h-2.5a.5.5,0,0,0-.5.5V3a.5.5,0,0,0,.5.5h3a.5.5,0,0,0,.5-.5V1.5A1,1,0,0,0,22.75.5Z"/><rect x="14.25" y="5" width="4" height="3" rx="0.5" ry="0.5"/><path d="M23.25,9.5h-3a.5.5,0,0,0-.5.5v2a.5.5,0,0,0,.5.5h2.5a1,1,0,0,0,1-1V10A.5.5,0,0,0,23.25,9.5Z"/><path d="M14.75,3.5h3a.5.5,0,0,0,.5-.5V1a.5.5,0,0,0-.5-.5h-2.5a1,1,0,0,0-1,1V3A.5.5,0,0,0,14.75,3.5Z"/><path d="M15.25,12.5h2.5a.5.5,0,0,0,.5-.5V10a.5.5,0,0,0-.5-.5h-3a.5.5,0,0,0-.5.5v1.5A1,1,0,0,0,15.25,12.5Z"/></svg>