<svg id="Bold" xmlns="http://www.w3.org/2000/svg" viewBox="0 0 24 24"><title>beer-half-glass</title><path d="M12,0C9.413,0,3.5.42,3.5,3c0,.343,1.667,5.65,3.628,12.154a6.609,6.609,0,0,1-.864,5.513,1.942,1.942,0,0,0-.143,1.807,1.986,1.986,0,0,0,1.4,1.142A22.587,22.587,0,0,0,12,24a22.575,22.575,0,0,0,4.478-.385,2.041,2.041,0,0,0,1.406-1.152,1.938,1.938,0,0,0-.148-1.8l-.009-.015a6.587,6.587,0,0,1-.859-5.483C18.838,8.633,20.5,3.344,20.5,3,20.5.42,14.587,0,12,0ZM10.5,21.5a1,1,0,1,1,1-1A1,1,0,0,1,10.5,21.5ZM11,15a1,1,0,1,1,1-1A1,1,0,0,1,11,15Zm2.5,3.5a1,1,0,1,1,1-1A1,1,0,0,1,13.5,18.5Zm2.787-8.334a.5.5,0,0,1-.318.329A13.25,13.25,0,0,1,12,11,13.25,13.25,0,0,1,8.031,10.5a.5.5,0,0,1-.318-.329.034.034,0,0,1,.02-.043A11.675,11.675,0,0,1,12,9.5a11.737,11.737,0,0,1,4.266.621A.037.037,0,0,1,16.287,10.166Zm.739-2.44a.5.5,0,0,1-.628.332A15.726,15.726,0,0,0,12,7.5a15.726,15.726,0,0,0-4.4.558.5.5,0,0,1-.628-.332L6.38,5.76a.25.25,0,0,1,.3-.315A24.934,24.934,0,0,0,12,6a24.934,24.934,0,0,0,5.322-.555.25.25,0,0,1,.3.315ZM12,4a17.991,17.991,0,0,1-5.74-.765.249.249,0,0,1,0-.47A17.991,17.991,0,0,1,12,2a17.991,17.991,0,0,1,5.74.765.249.249,0,0,1,0,.47A17.991,17.991,0,0,1,12,4Z"/></svg>