<svg id="Bold" xmlns="http://www.w3.org/2000/svg" viewBox="0 0 24 24"><title>beer-glass-foam</title><path d="M20.75,4a4,4,0,0,0-4-4H6.25a3,3,0,0,0-.774,5.894.5.5,0,0,1,.366.405A20.177,20.177,0,0,0,7.49,11.69a11.92,11.92,0,0,1,.1,9.59,3.793,3.793,0,0,0-.34,1.22A1.5,1.5,0,0,0,8.75,24h6a1.5,1.5,0,0,0,1.5-1.5,4.076,4.076,0,0,0-.34-1.22,11.835,11.835,0,0,1-.16-8.89.25.25,0,0,1,.4-.1,2.753,2.753,0,0,0,4.6-2.04ZM9.25,9a1,1,0,1,1,1,1A1,1,0,0,1,9.25,9Zm2,11a1,1,0,1,1,1-1A1,1,0,0,1,11.25,20Zm1-6a1,1,0,1,1,1-1A1,1,0,0,1,12.25,14Zm6.5-3.75a.75.75,0,0,1-1.5,0V7.72a1,1,0,0,0-1.5-.86A1,1,0,0,1,14.25,6a1.022,1.022,0,0,1,.14-.5.963.963,0,0,0,0-1,.987.987,0,0,0-.86-.5H6.25a1,1,0,0,1,0-2h10.5a2.006,2.006,0,0,1,2,2Z"/></svg>