<svg id="Bold" xmlns="http://www.w3.org/2000/svg" viewBox="0 0 24 24"><title>beer-opener</title><path d="M23.414,9.4a2,2,0,0,0,0-2.829L17.433.586a2,2,0,0,0-2.829,0L9.6,5.592a2,2,0,0,0,0,2.829L15.58,14.4a2,2,0,0,0,2.828,0ZM19.933,8.361l-2.287,2.287a1.287,1.287,0,0,1-1.281.311.252.252,0,0,1-.156-.142.249.249,0,0,1,.007-.21c.27-.532.674-1.338.744-1.531a.89.89,0,0,0-.216-.914l-.9-.906a.89.89,0,0,0-.917-.216c-.188.062-1,.473-1.528.744a.25.25,0,0,1-.354-.147,1.284,1.284,0,0,1,.311-1.283l2.288-2.288a.684.684,0,0,1,.969,0l3.325,3.326A.684.684,0,0,1,19.933,8.361Z"/><path d="M12.737,13.738l-2.474-2.476a.5.5,0,0,0-.708,0l-8.9,8.9a2.25,2.25,0,0,0,3.182,3.182l8.9-8.9A.5.5,0,0,0,12.737,13.738Zm-9.53,8.469a1,1,0,1,1,0-1.414A1,1,0,0,1,3.207,22.207Z"/></svg>