<svg xmlns="http://www.w3.org/2000/svg" viewBox="0 0 24 24"><title>bendable-phone</title><path d="M16.5,2H12.307a.5.5,0,0,0-.382.823,8.554,8.554,0,0,1,2.014,5.546L14,9.5v11A1.5,1.5,0,0,0,15.5,22h7A1.5,1.5,0,0,0,24,20.5V9.5A7.508,7.508,0,0,0,16.5,2ZM20,18.5a1,1,0,1,1-1-1A1,1,0,0,1,20,18.5ZM21,8.251V14.5a.5.5,0,0,1-.5.5h-3a.5.5,0,0,1-.5-.5V8.285a9.1,9.1,0,0,0-.552-3.126.5.5,0,0,1,.588-.657C18.885,4.951,20.992,5.63,21,8.251Z"/><path d="M6.73,2.055a.506.506,0,0,0-.129,0A7.511,7.511,0,0,0,0,9.5,1.5,1.5,0,0,0,1.5,11h7A1.5,1.5,0,0,0,10,9.5a6.515,6.515,0,0,1,.78-3.091,6.712,6.712,0,0,1,.375-.609.5.5,0,0,0,.031-.517A6.022,6.022,0,0,0,6.73,2.055Z"/></svg>