<svg xmlns="http://www.w3.org/2000/svg" viewBox="0 0 24 24"><title>bendable-phone-touch</title><path d="M6,9.75H5.578A7.513,7.513,0,0,0,0,17a1.5,1.5,0,0,0,1.5,1.5h7A1.5,1.5,0,0,0,10,17a6.481,6.481,0,0,1,1.335-3.947.251.251,0,0,0,.015-.281A6.252,6.252,0,0,0,6,9.75Z"/><path d="M.266,4.97A3.749,3.749,0,0,0,5.193,6.933L7.835,5.8a.249.249,0,0,1,.3.076A3.767,3.767,0,0,0,11.1,7.326a3.73,3.73,0,0,0,1.477-.3l3.9-1.68a.251.251,0,0,1,.329.13.749.749,0,1,0,1.376-.592L16.388.7a.749.749,0,1,0-1.377.592L16.02,3.634a.251.251,0,0,1-.13.329l-3.905,1.68a2.249,2.249,0,0,1-2.232-.264.25.25,0,0,1,.051-.43l1.59-.684A.75.75,0,0,0,10.8,2.887L4.6,5.555a2.256,2.256,0,0,1-2.236-.262.249.249,0,0,1,.05-.43l7.956-3.424A.75.75,0,1,0,9.777.061L.658,3.985A.751.751,0,0,0,.266,4.97Z"/><path d="M24,16a7.508,7.508,0,0,0-7.5-7.5H9.381a.25.25,0,0,0-.106.476,7.807,7.807,0,0,1,3.414,3.114A6.467,6.467,0,0,1,14,16v6.5A1.5,1.5,0,0,0,15.5,24h7A1.5,1.5,0,0,0,24,22.5Zm-6.5,2.5A1.5,1.5,0,0,1,16,17V15.775a8.243,8.243,0,0,0-1.358-4.5.5.5,0,0,1-.016-.527.528.528,0,0,1,.465-.248l1.986.128A5.209,5.209,0,0,1,22,15.726V17a1.5,1.5,0,0,1-1.5,1.5ZM20,21a1,1,0,1,1-1-1A1,1,0,0,1,20,21Z"/></svg>