<svg xmlns="http://www.w3.org/2000/svg" viewBox="0 0 24 24"><title>bicycle-retro</title><path d="M18.18,8.748a.251.251,0,0,1-.207-.246V3.661a.251.251,0,0,1,.289-.247,1.769,1.769,0,0,1,1.711,1.827,1,1,0,0,0,2,0c0-2.318-1.754-3.876-4.4-3.876a1.562,1.562,0,0,0-1.006.289,1.508,1.508,0,0,0-.592,1.193V4.388a.25.25,0,0,1-.244.25,12.514,12.514,0,0,0-3.922.727.251.251,0,0,1-.334-.236V4.885a.25.25,0,0,1,.25-.25h.751a1,1,0,0,0,0-2h-5.5a1,1,0,0,0,0,2h2.25a.25.25,0,0,1,.25.25V6.312a.252.252,0,0,1-.119.213A12.757,12.757,0,0,0,6.528,8.878a12.039,12.039,0,0,0-2.62,4.77.251.251,0,0,1-.2.179,4.451,4.451,0,1,0,2.394.246.25.25,0,0,1-.145-.311,10.079,10.079,0,0,1,2.06-3.551,10.7,10.7,0,0,1,7.7-3.573.249.249,0,0,1,.256.25V8.5a.25.25,0,0,1-.207.246,7,7,0,1,0,2.414,0ZM6.92,18.188A2.447,2.447,0,1,1,3.1,16.164a.25.25,0,0,1,.391.215,9.971,9.971,0,0,0,.049,1.466,1,1,0,0,0,.992.889,1.055,1.055,0,0,0,.113-.006,1,1,0,0,0,.883-1.105,8.306,8.306,0,0,1-.041-1.231.251.251,0,0,1,.395-.2A2.433,2.433,0,0,1,6.92,18.188Zm10.053,2.447a5,5,0,0,1-1.316-9.824.253.253,0,0,1,.218.043.25.25,0,0,1,.1.2v3.582a1,1,0,0,0,2,0V11.053a.251.251,0,0,1,.316-.242,5,5,0,0,1-1.316,9.824Z"/></svg>