<svg id="Bold" xmlns="http://www.w3.org/2000/svg" viewBox="0 0 24 24"><title>bird-cage-empty</title><path d="M23.5,21.875a1,1,0,0,0-1-1H22v-7A10.016,10.016,0,0,0,13.557,4a2.25,2.25,0,1,0-3.114,0A10.016,10.016,0,0,0,2,13.875v7H1.5a1,1,0,0,0-1,1v1a1,1,0,0,0,1,1h21a1,1,0,0,0,1-1ZM8,7.1a.249.249,0,0,1,.129-.219,7.926,7.926,0,0,1,2.581-.9.251.251,0,0,1,.29.247v6.149a1,1,0,0,0,2,0V6.226a.249.249,0,0,1,.29-.247,7.926,7.926,0,0,1,2.581.9A.249.249,0,0,1,16,7.1v13.03a.25.25,0,0,1-.25.25h-2.5a.25.25,0,0,1-.25-.25v-2.75h1.25a1,1,0,0,0,0-2H9.75a1,1,0,0,0,0,2H11v2.75a.25.25,0,0,1-.25.25H8.25a.25.25,0,0,1-.25-.25Zm12,6.78v6.25a.25.25,0,0,1-.25.25h-1.5a.25.25,0,0,1-.25-.25V9.3a.251.251,0,0,1,.452-.149A7.964,7.964,0,0,1,20,13.875Zm-16,0A7.964,7.964,0,0,1,5.548,9.15.251.251,0,0,1,6,9.3V20.125a.25.25,0,0,1-.25.25H4.25a.25.25,0,0,1-.25-.25Z"/></svg>