<svg id="Bold" xmlns="http://www.w3.org/2000/svg" viewBox="0 0 24 24"><title>blood-drop-search</title><path d="M14.61,12.234a6.979,6.979,0,0,1-4.552-9.459.5.5,0,0,0-.026-.445A20.433,20.433,0,0,0,8.819.393a1.093,1.093,0,0,0-1.638,0C5.705,2.328,0,13.3,0,16.5,0,20.425,3.813,24,8,24s8-3.575,8-7.5a13.434,13.434,0,0,0-1.057-3.963A.5.5,0,0,0,14.61,12.234ZM7.731,21.055a.749.749,0,0,1-.9.565A5.233,5.233,0,0,1,3.3,18.834a.75.75,0,1,1,1.343-.668,3.736,3.736,0,0,0,2.528,1.991A.75.75,0,0,1,7.731,21.055Z"/><path d="M23.632,11.12l-2.388-2.4a.5.5,0,0,1-.086-.591,5.454,5.454,0,0,0,.654-2.6,5.53,5.53,0,1,0-5.53,5.53,5.458,5.458,0,0,0,2.6-.654.5.5,0,0,1,.59.086l2.4,2.388a1.23,1.23,0,0,0,1.759,0A1.236,1.236,0,0,0,23.632,11.12Zm-7.35-2.06a3.53,3.53,0,1,1,3.53-3.53A3.537,3.537,0,0,1,16.282,9.06Z"/></svg>