<svg id="Bold" xmlns="http://www.w3.org/2000/svg" viewBox="0 0 24 24"><title>blood-drop-type-a</title><path d="M15.28,14.176A7.97,7.97,0,0,1,10.249,3.14a.5.5,0,0,0-.018-.457A23.163,23.163,0,0,0,8.819.393a1.093,1.093,0,0,0-1.638,0C5.705,2.328,0,13.3,0,16.5,0,20.425,3.813,24,8,24s8-3.575,8-7.5a7.727,7.727,0,0,0-.379-1.984A.5.5,0,0,0,15.28,14.176ZM7.731,21.055a.749.749,0,0,1-.9.565A5.233,5.233,0,0,1,3.3,18.834a.75.75,0,1,1,1.343-.668,3.736,3.736,0,0,0,2.528,1.991A.75.75,0,0,1,7.731,21.055Z"/><path d="M17.5,4.25a1.045,1.045,0,0,0-1.05,1.038V5.85a.5.5,0,0,0,.5.5h1.1a.5.5,0,0,0,.5-.5V5.288A1.045,1.045,0,0,0,17.5,4.25Z"/><path d="M17.5,0A6.5,6.5,0,1,0,24,6.5,6.5,6.5,0,0,0,17.5,0Zm2.55,9.5a.75.75,0,0,1-1.5,0V8.35a.5.5,0,0,0-.5-.5h-1.1a.5.5,0,0,0-.5.5V9.5a.75.75,0,0,1-1.5,0V5.288a2.55,2.55,0,0,1,5.1,0Z"/></svg>