<svg id="Bold" xmlns="http://www.w3.org/2000/svg" viewBox="0 0 24 24"><title>board-game</title><rect x="17" y="8.5" width="7" height="7" rx="0.25" ry="0.25"/><rect x="8.5" y="17" width="7" height="7" rx="0.25" ry="0.25"/><rect x="8.5" width="7" height="7" rx="0.25" ry="0.25"/><rect y="8.5" width="7" height="7" rx="0.25" ry="0.25"/><path d="M8.75,8.5a.25.25,0,0,0-.25.25v6.5a.25.25,0,0,0,.25.25h6.5a.25.25,0,0,0,.25-.25V8.75a.25.25,0,0,0-.25-.25Zm3.25,5A1.5,1.5,0,1,1,13.5,12,1.5,1.5,0,0,1,12,13.5Z"/><path d="M17,6.75a.25.25,0,0,0,.25.25h6.5A.25.25,0,0,0,24,6.75V2.5A2.5,2.5,0,0,0,21.5,0H17.25A.25.25,0,0,0,17,.25ZM20.5,2A1.5,1.5,0,1,1,19,3.5,1.5,1.5,0,0,1,20.5,2Z"/><path d="M7,17.25A.25.25,0,0,0,6.75,17H.25a.25.25,0,0,0-.25.25V21.5A2.5,2.5,0,0,0,2.5,24H6.75A.25.25,0,0,0,7,23.75ZM3.5,22A1.5,1.5,0,1,1,5,20.5,1.5,1.5,0,0,1,3.5,22Z"/><path d="M17.25,17a.25.25,0,0,0-.25.25v6.5a.25.25,0,0,0,.25.25H21.5A2.5,2.5,0,0,0,24,21.5V17.25a.25.25,0,0,0-.25-.25Zm3.25,5A1.5,1.5,0,1,1,22,20.5,1.5,1.5,0,0,1,20.5,22Z"/><path d="M6.75,7A.25.25,0,0,0,7,6.75V.25A.25.25,0,0,0,6.75,0H2.5A2.5,2.5,0,0,0,0,2.5V6.75A.25.25,0,0,0,.25,7ZM3.5,2A1.5,1.5,0,1,1,2,3.5,1.5,1.5,0,0,1,3.5,2Z"/></svg>