<svg id="Bold" xmlns="http://www.w3.org/2000/svg" viewBox="0 0 24 24"><title>board-game-ludo</title><path d="M6.854,4.051a2.475,2.475,0,1,0,2.1,2.8A2.473,2.473,0,0,0,6.854,4.051Z"/><path d="M17.5,15A2.5,2.5,0,1,0,20,17.5,2.5,2.5,0,0,0,17.5,15Z"/><path d="M22,0H2A2,2,0,0,0,0,2V22a2,2,0,0,0,2,2H22a2,2,0,0,0,2-2V2A2,2,0,0,0,22,0ZM17.5,4A2.5,2.5,0,1,1,15,6.5,2.5,2.5,0,0,1,17.5,4ZM6.5,20A2.5,2.5,0,1,1,9,17.5,2.5,2.5,0,0,1,6.5,20Zm5-9a.5.5,0,0,1-.5.5H2.5A.5.5,0,0,1,2,11V2.5A.5.5,0,0,1,2.5,2H11a.5.5,0,0,1,.5.5ZM22,21.5a.5.5,0,0,1-.5.5H13a.5.5,0,0,1-.5-.5V13a.5.5,0,0,1,.5-.5h8.5a.5.5,0,0,1,.5.5Z"/></svg>