<svg id="Bold" xmlns="http://www.w3.org/2000/svg" viewBox="0 0 24 24"><title>board-game-dice-1</title><path d="M21.906,3.461,12.8.123a2.686,2.686,0,0,0-1.633.008S4.9,2.431,2.094,3.461a.545.545,0,0,0-.012,1.017L11.8,8.384a.55.55,0,0,0,.407,0l9.715-3.906A.544.544,0,0,0,21.906,3.461ZM12,5.454a1.091,1.091,0,1,1,1.091-1.091A1.09,1.09,0,0,1,12,5.454Z"/><path d="M23.251,5.582,13.16,9.639a.545.545,0,0,0-.342.506V23.451a.542.542,0,0,0,.756.5c2.4-1.038,9.67-4.206,9.67-4.206A1.26,1.26,0,0,0,24,18.594V6.088A.546.546,0,0,0,23.251,5.582ZM16.364,19.513a1.091,1.091,0,1,1,1.091-1.091A1.09,1.09,0,0,1,16.364,19.513ZM18.545,15.7A1.091,1.091,0,1,1,19.636,14.6,1.09,1.09,0,0,1,18.545,15.7Zm2.182-3.818a1.091,1.091,0,1,1,1.091-1.091A1.091,1.091,0,0,1,20.727,11.877Z"/><path d="M10.84,9.639.749,5.582A.545.545,0,0,0,0,6.088V18.594a1.26,1.26,0,0,0,.756,1.155s7.273,3.168,9.67,4.206a.542.542,0,0,0,.756-.5V10.145A.547.547,0,0,0,10.84,9.639ZM3.818,13.513a1.091,1.091,0,1,1,1.091-1.091A1.091,1.091,0,0,1,3.818,13.513Zm3.273,4.909a1.091,1.091,0,1,1,1.091-1.091A1.09,1.09,0,0,1,7.091,18.422Z"/></svg>