<svg id="Bold" xmlns="http://www.w3.org/2000/svg" viewBox="0 0 24 24"><title>board-game-geometry</title><path d="M5.939,11.435l5.537-4.079a.251.251,0,0,0-.042-.428L6.479,4.6a.25.25,0,0,0-.355.2l-.582,6.407A.25.25,0,0,0,5.939,11.435Z"/><path d="M14.6,6.623,22.948,9.4c.219.071.076-.235.076-.235l-5.89-7.461a.25.25,0,0,0-.42.043L14.452,6.274A.249.249,0,0,0,14.6,6.623Z"/><path d="M13.339,18.191,6.29,14.96a.25.25,0,0,0-.343.3l1.762,5.874a.25.25,0,0,0,.351.152l5.287-2.644A.25.25,0,0,0,13.339,18.191Z"/><path d="M12.447,8.5,6.405,12.955a.251.251,0,0,0,.044.429l7.632,3.5a.249.249,0,0,0,.349-.276l-1.589-7.95A.251.251,0,0,0,12.447,8.5Z"/><path d="M16.323,16.38,21.286,10.8a.25.25,0,0,0-.108-.4l-6.513-2.17a.25.25,0,0,0-.324.287l1.551,7.753A.249.249,0,0,0,16.323,16.38Z"/><path d="M19.242,21.743l-3.625-2.417a.248.248,0,0,0-.251-.016l-7.208,3.6s-.261.227.151.184c2.194-.228,9.338-1.005,10.848-1.169C19.339,21.908,19.349,21.814,19.242,21.743Z"/><path d="M23.281,10.81l-6.407,7.209a.25.25,0,0,0,.048.374l3.152,2.1a.828.828,0,0,1,.224.255c.1.162.2.155.273-.079.524-1.8,2.809-9.653,2.839-9.737S23.342,10.743,23.281,10.81Z"/><path d="M12.7,5.872a.25.25,0,0,0,.33-.114l2.247-4.5A.248.248,0,0,0,15.018.9c-1.728.315-7.537,1.375-8.9,1.662-.2.041-.119.151-.119.151Z"/><path d="M3.68,12.608a.244.244,0,0,0,.249-.22c.091-1.029.482-5.406.684-7.708a.25.25,0,0,0-.476-.126l-3.531,7.7a.25.25,0,0,0,.227.354Z"/><path d="M4.087,14.281a.244.244,0,0,0-.238-.173H1.014a.25.25,0,0,0-.2.394L6.252,22.22s.253.244.155-.088C5.92,20.463,4.386,15.292,4.087,14.281Z"/></svg>