<svg id="Bold" xmlns="http://www.w3.org/2000/svg" viewBox="0 0 24 24"><title>body-care-mask-alternate</title><ellipse cx="11.997" cy="16.75" rx="3.5" ry="2"/><ellipse cx="7.997" cy="8.999" rx="2.5" ry="1.5"/><ellipse cx="15.997" cy="8.999" rx="2.5" ry="1.5"/><path d="M23.25,12C23.25,5.245,18.2,0,12,0S.75,5.245.75,12C.75,18.658,5.726,24,12,24S23.25,18.656,23.25,12Zm-4.478,6.849a.5.5,0,0,1-.732.027l-.583-.583a1,1,0,0,0-1.414,1.415l.369.368a.5.5,0,0,1-.109.79,8.731,8.731,0,0,1-8.606,0,.5.5,0,0,1-.109-.79l.369-.368a1,1,0,0,0-1.414-1.415l-.583.583a.5.5,0,0,1-.732-.027,10.183,10.183,0,0,1-2.321-5.017A.5.5,0,0,1,3.4,13.25h.85a1,1,0,0,0,0-2H3.332a.5.5,0,0,1-.5-.559A10.324,10.324,0,0,1,4.762,5.739a.5.5,0,0,1,.757-.057l.524.525A1,1,0,0,0,7.457,4.792L6.97,4.306a.5.5,0,0,1,.073-.768,8.757,8.757,0,0,1,9.914,0,.5.5,0,0,1,.073.768l-.487.486a1,1,0,1,0,1.414,1.415l.524-.525a.5.5,0,0,1,.757.057,10.324,10.324,0,0,1,1.927,4.952.5.5,0,0,1-.5.559H19.75a1,1,0,0,0,0,2h.85a.5.5,0,0,1,.493.582A10.183,10.183,0,0,1,18.772,18.849Z"/></svg>