<svg id="Bold" xmlns="http://www.w3.org/2000/svg" viewBox="0 0 24 24"><title>body-care-perfume-1</title><path d="M5.25,6.25a1,1,0,0,0-1-1H1.75a1,1,0,0,0,0,2h2.5A1,1,0,0,0,5.25,6.25Z"/><path d="M3.75,10.616l.866-.5a1,1,0,1,0-1-1.732l-.866.5a1,1,0,1,0,1,1.732Z"/><path d="M2.75,3.616l.866.5a1,1,0,1,0,1-1.732l-.866-.5a1,1,0,0,0-1,1.732Z"/><path d="M14.078,20H5.422a.25.25,0,0,0-.182.423,6.481,6.481,0,0,0,9.021,0A.25.25,0,0,0,14.078,20Z"/><path d="M22.636,10.389c-.84-1.7-2.286-2.759-3.462-2.632a.2.2,0,0,1-.168-.052A10.209,10.209,0,0,0,12.682,5.25s-.685.018-1.014.036a.329.329,0,0,1-.218-.072,1.99,1.99,0,0,0-2.2-.9,2.048,2.048,0,0,0-1.5,2.012V7.75a.5.5,0,0,0,.5.5h.61A.145.145,0,0,1,9,8.4c0,.183.005.56.007.776a.162.162,0,0,1-.122.137A6.486,6.486,0,0,0,3.8,18.349a.257.257,0,0,0,.235.151H15.467a.257.257,0,0,0,.235-.151,6.485,6.485,0,0,0-5.041-9.032c-.057-.008-.169-.081-.169-.165,0-.2,0-.55.007-.751a.21.21,0,0,1,.095-.151h.656a.5.5,0,0,0,.5-.5V7.442a.18.18,0,0,1,.171-.192h.761A7.887,7.887,0,0,1,17.582,9a.223.223,0,0,1,.071.236,5.02,5.02,0,0,0,.5,3.368c.977,1.982,2.772,3.093,4.011,2.482S23.613,12.371,22.636,10.389Z"/></svg>