<svg id="Bold" xmlns="http://www.w3.org/2000/svg" viewBox="0 0 24 24"><title>body-care-perfume</title><path d="M15.344,20.457a.5.5,0,0,0-.688-.109,8.939,8.939,0,0,1-10.311,0,.5.5,0,0,0-.688.109L2.8,21.6A1.5,1.5,0,0,0,4,24H15a1.5,1.5,0,0,0,1.2-2.4Z"/><path d="M3.75,4.5h.5a.75.75,0,0,0,0-1.5h-.5a.75.75,0,0,0,0,1.5Z"/><path d="M2,3.75A.75.75,0,0,0,1.25,3H.75a.75.75,0,0,0,0,1.5h.5A.75.75,0,0,0,2,3.75Z"/><path d="M19.5,0a4.752,4.752,0,0,0-4.281,2.446.5.5,0,0,1-.46.3H13.34a.5.5,0,0,1-.476-.348A2.742,2.742,0,0,0,10.25.5H8.75A2.73,2.73,0,0,0,6.17,2.334.5.5,0,0,0,6.642,3H9A.5.5,0,0,1,9,4H6.5a.5.5,0,0,0-.5.5v.994a.5.5,0,0,1-.264.441,8,8,0,1,0,7.528,0A.5.5,0,0,1,13,5.494V4.75a.5.5,0,0,1,.5-.5h1.259a.5.5,0,0,1,.46.3A4.752,4.752,0,0,0,19.5,7C21.628,7,24,5.563,24,3.5S21.628,0,19.5,0ZM15.628,10.835a.5.5,0,0,1-.065.455.5.5,0,0,1-.407.21H3.844a.5.5,0,0,1-.472-.664,6.494,6.494,0,0,1,12.256,0Z"/></svg>