<svg xmlns="http://www.w3.org/2000/svg" viewBox="0 0 24 24"><title>body-scanner</title><path d="M18,22H14.005a.249.249,0,0,1-.249-.275l.445-4.45a.253.253,0,0,0-.063-.193A.251.251,0,0,0,13.953,17H10.047a.251.251,0,0,0-.185.082.253.253,0,0,0-.063.193l.445,4.45A.249.249,0,0,1,9.995,22H6a1,1,0,0,0,0,2H18a1,1,0,0,0,0-2Z"/><path d="M12,9.31A3.227,3.227,0,1,0,8.772,6.083,3.231,3.231,0,0,0,12,9.31Z"/><path d="M15.765,13a.249.249,0,0,0,.243-.309,4.119,4.119,0,0,0-8.016,0A.25.25,0,0,0,8.235,13Z"/><path d="M5,15a2.5,2.5,0,0,0-1.364-2.224.249.249,0,0,1-.136-.222V1a1,1,0,0,0-2,0V12.554a.249.249,0,0,1-.136.222,2.494,2.494,0,0,0,0,4.447.252.252,0,0,1,.136.223V23a1,1,0,0,0,2,0V17.446a.252.252,0,0,1,.136-.223A2.5,2.5,0,0,0,5,15Z"/><path d="M24,15a2.5,2.5,0,0,0-1.364-2.224.249.249,0,0,1-.136-.222V1a1,1,0,0,0-2,0V12.554a.249.249,0,0,1-.136.222,2.494,2.494,0,0,0,0,4.447.252.252,0,0,1,.136.223V23a1,1,0,0,0,2,0V17.446a.252.252,0,0,1,.136-.223A2.5,2.5,0,0,0,24,15Z"/><circle cx="7.5" cy="15" r="1"/><circle cx="10.5" cy="15" r="1"/><circle cx="13.5" cy="15" r="1"/><circle cx="16.5" cy="15" r="1"/></svg>