<svg xmlns="http://www.w3.org/2000/svg" viewBox="0 0 24 24"><title>bomb-rocket-1</title><path d="M4.14.231A1,1,0,0,0,2.5,1V5.563A2.483,2.483,0,0,0,3.383,7.47L5.164,9.087A.5.5,0,0,0,6,8.717V2.384a.987.987,0,0,0-.341-.752Z"/><path d="M20.925.1a1.013,1.013,0,0,0-1.084.153L18.359,1.617A1,1,0,0,0,18,2.384V8.717a.5.5,0,0,0,.836.37l1.764-1.6a2.493,2.493,0,0,0,.9-1.921V1A1,1,0,0,0,20.925.1Z"/><path d="M13.212,3.593A.249.249,0,0,1,13,3.346V1a1,1,0,0,0-2,0V3.346a.25.25,0,0,1-.212.247A4.455,4.455,0,0,0,7.536,5.436a.25.25,0,0,0-.036.13V18.472a.5.5,0,0,0,.625.485,15.575,15.575,0,0,1,7.75,0,.5.5,0,0,0,.625-.485V5.566a.26.26,0,0,0-.036-.13A4.455,4.455,0,0,0,13.212,3.593Z"/><path d="M15.394,20.38a14.094,14.094,0,0,0-6.788,0,.5.5,0,0,0-.351.322.5.5,0,0,0,.077.469,12.932,12.932,0,0,0,3.134,2.675,1,1,0,0,0,1.068,0,12.884,12.884,0,0,0,3.134-2.674.5.5,0,0,0-.274-.791Z"/></svg>