<svg id="Bold" xmlns="http://www.w3.org/2000/svg" viewBox="0 0 24 24"><title>bowling-set</title><path d="M2.758,6.846a.5.5,0,0,0,.49.4H6.7a.5.5,0,0,0,.491-.4c.022-.113.043-.224.063-.329C7.627,4.488,8.175,0,4.974,0S2.322,4.492,2.7,6.524C2.715,6.627,2.737,6.735,2.758,6.846Z"/><path d="M6.678,8.75H3.27a.5.5,0,0,0-.466.32c-.887,2.3-5.922,8.048.142,14.588A1.066,1.066,0,0,0,3.728,24H6.221A1.066,1.066,0,0,0,7,23.658c5.942-6.409,1.2-11.84.142-14.587A.5.5,0,0,0,6.678,8.75Z"/><path d="M16,8a7.978,7.978,0,0,0-5.944,2.646.5.5,0,0,0-.08.55c1.317,2.753,2.318,6.27.486,10.1a.5.5,0,0,0,.111.583A8,8,0,1,0,16,8Zm-2.134,3.733A1.067,1.067,0,1,1,14.933,12.8,1.067,1.067,0,0,1,13.866,11.733ZM16,17.066A1.066,1.066,0,1,1,17.066,16,1.067,1.067,0,0,1,16,17.066Zm3.2-3.2A1.067,1.067,0,1,1,20.266,12.8,1.067,1.067,0,0,1,19.2,13.867Z"/></svg>