<svg id="Bold" xmlns="http://www.w3.org/2000/svg" viewBox="0 0 24 24"><title>boxing-bag</title><path d="M7.5,16.5A1.5,1.5,0,0,0,9,18h1.5a.5.5,0,0,1,.5.5v2a.5.5,0,0,1-.5.5H9a1.5,1.5,0,0,0-1.5,1.5V23a1,1,0,0,0,1,1h7a1,1,0,0,0,1-1v-.5A1.5,1.5,0,0,0,15,21H13.5a.5.5,0,0,1-.5-.5v-2a.5.5,0,0,1,.5-.5H15a1.5,1.5,0,0,0,1.5-1.5v-.75a.5.5,0,0,0-.5-.5H8a.5.5,0,0,0-.5.5Z"/><path d="M16.5,1.5A1.5,1.5,0,0,0,15,0H9A1.5,1.5,0,0,0,7.5,1.5v.75a.5.5,0,0,0,.5.5h8a.5.5,0,0,0,.5-.5Z"/><rect x="7.5" y="4.25" width="9" height="9.5" rx="0.5" ry="0.5"/></svg>