<svg id="Bold" xmlns="http://www.w3.org/2000/svg" viewBox="0 0 24 24"><title>breakfast-cereal</title><path d="M11.28,10.781a.75.75,0,0,0,0-1.061l-.672-.672a.75.75,0,1,0-1.06,1.06l.672.672A.75.75,0,0,0,11.28,10.781Z"/><path d="M6.142,10.593l-.672.672a.75.75,0,1,0,1.06,1.06l.672-.672a.75.75,0,0,0-1.06-1.06Z"/><path d="M8.72,12.22a.749.749,0,0,0,0,1.06l.672.672a.75.75,0,1,0,1.06-1.06L9.78,12.22A.749.749,0,0,0,8.72,12.22Z"/><path d="M21.943,8.322a1,1,0,0,0-1.469.432.989.989,0,0,0,.358,1.221C21.594,10.484,22,11.023,22,11.5c0,1.461-3.8,3.5-10,3.5S2,12.961,2,11.5,5.8,8,12,8c.773,0,1.509.032,2.205.09a1,1,0,0,0,.179-1.983C13.593,6.036,12.793,6,12,6,6.183,6,0,7.928,0,11.5v1A11.771,11.771,0,0,0,12,24,11.771,11.771,0,0,0,24,12.5v-1A3.9,3.9,0,0,0,21.943,8.322Z"/><path d="M13.3,11.7a2.147,2.147,0,0,0-.293.7.5.5,0,0,0,.534.6l4.572-.007a.5.5,0,0,0,.5-.411,3,3,0,0,0-.263-1.838,1.059,1.059,0,0,1,.01-.9l3.6-8.208A1.166,1.166,0,1,0,19.821.7L16.192,8.977a.943.943,0,0,1-.584.54A3.8,3.8,0,0,0,13.3,11.7Z"/></svg>