<svg xmlns="http://www.w3.org/2000/svg" viewBox="0 0 24 24"><title>breakup-couple-woman-woman-1</title><path d="M12.044,5.75H10.5a.749.749,0,0,1-.7-1l1.353-3.722a.5.5,0,0,0-.2-.594A2.749,2.749,0,0,0,9.147.02,3.1,3.1,0,0,0,6.5,3.233c0,2.116,2.6,4.58,4.246,5.924a.25.25,0,0,0,.391-.1L12.278,6.09a.251.251,0,0,0-.234-.34Z"/><path d="M17.5,3.233A3.1,3.1,0,0,0,14.854.02a2.754,2.754,0,0,0-1.773.394.5.5,0,0,0-.208.254l-1.18,3.247a.249.249,0,0,0,.235.335H13.5a.751.751,0,0,1,.7,1.02L12.792,8.931a.251.251,0,0,0,.392.284C14.841,7.859,17.5,5.379,17.5,3.233Z"/><path d="M14.5,14.233a3.068,3.068,0,0,1-.7,2.352A1,1,0,1,0,15.2,18.007a3.938,3.938,0,0,0,.418-.487.25.25,0,0,1,.173-.1.256.256,0,0,1,.193.059,4.24,4.24,0,0,0,5.526,0,.256.256,0,0,1,.193-.059.25.25,0,0,1,.173.1,3.938,3.938,0,0,0,.418.487A1,1,0,1,0,23.7,16.585a3.068,3.068,0,0,1-.7-2.352,4.25,4.25,0,0,0-8.5,0Zm2.223.027a3.409,3.409,0,0,0,.909-.28,2.471,2.471,0,0,0,.916-.74.251.251,0,0,1,.4,0,2.471,2.471,0,0,0,.916.74,3.409,3.409,0,0,0,.909.28.25.25,0,0,1,.2.278,2.249,2.249,0,0,1-4.462,0A.25.25,0,0,1,16.723,14.26Z"/><path d="M21.478,19.017A.5.5,0,0,0,21,18.992a4.472,4.472,0,0,0-2.034,1.985.251.251,0,0,1-.434,0A4.472,4.472,0,0,0,16.5,18.992a.5.5,0,0,0-.477.025A5.251,5.251,0,0,0,13.5,23.5a.5.5,0,0,0,.5.5h9.5a.5.5,0,0,0,.5-.5A5.251,5.251,0,0,0,21.478,19.017Z"/><path d="M9.5,14.233a4.25,4.25,0,0,0-8.5,0,3.068,3.068,0,0,1-.7,2.352A1,1,0,1,0,1.7,18.007a3.938,3.938,0,0,0,.418-.487.25.25,0,0,1,.173-.1.256.256,0,0,1,.193.059,4.24,4.24,0,0,0,5.526,0,.256.256,0,0,1,.193-.059.25.25,0,0,1,.173.1,3.938,3.938,0,0,0,.418.487A1,1,0,0,0,10.2,16.585,3.068,3.068,0,0,1,9.5,14.233ZM5.25,16.5a2.253,2.253,0,0,1-2.231-1.962.25.25,0,0,1,.2-.278,3.409,3.409,0,0,0,.909-.28,2.471,2.471,0,0,0,.916-.74.251.251,0,0,1,.4,0,2.471,2.471,0,0,0,.916.74,3.409,3.409,0,0,0,.909.28.25.25,0,0,1,.2.278A2.253,2.253,0,0,1,5.25,16.5Z"/><path d="M7.978,19.017a.5.5,0,0,0-.477-.025,4.472,4.472,0,0,0-2.034,1.985.251.251,0,0,1-.434,0A4.472,4.472,0,0,0,3,18.992a.5.5,0,0,0-.477.025A5.251,5.251,0,0,0,0,23.5a.5.5,0,0,0,.5.5H10a.5.5,0,0,0,.5-.5A5.251,5.251,0,0,0,7.978,19.017Z"/></svg>