<svg id="Bold" xmlns="http://www.w3.org/2000/svg" viewBox="0 0 24 24"><title>breakfast-bread-toast-1</title><path d="M21,21H.5a.5.5,0,0,0-.5.5A2.5,2.5,0,0,0,2.5,24H19a2.5,2.5,0,0,0,2.5-2.5A.5.5,0,0,0,21,21Z"/><path d="M24,17a1,1,0,0,0-1-1H22a.5.5,0,0,1-.5-.5V12A2.5,2.5,0,0,0,19,9.5H2.5A2.5,2.5,0,0,0,0,12v7a.5.5,0,0,0,.5.5H21a.5.5,0,0,0,.5-.5v-.5A.5.5,0,0,1,22,18h1A1,1,0,0,0,24,17Zm-5,.25a.75.75,0,0,1-1.5,0v-5a.75.75,0,0,1,1.5,0Z"/><path d="M15,8.25a.751.751,0,0,1-.75-.75V4.687a1.75,1.75,0,0,1,1.312-1.7A.25.25,0,0,0,15.5,2.5H4.5a.25.25,0,0,0-.063.492,1.751,1.751,0,0,1,1.313,1.7V7.5A.751.751,0,0,1,5,8.25H4a.751.751,0,0,1-.75-.75V5.2A2.75,2.75,0,0,1,4.5,0h11a2.75,2.75,0,0,1,1.25,5.2V7.5a.751.751,0,0,1-.75.75Z"/></svg>