<svg xmlns="http://www.w3.org/2000/svg" viewBox="0 0 24 24"><title>browser-idea</title><path d="M16,22.125H14a.75.75,0,0,0,0,1.5h2a.75.75,0,0,0,0-1.5Z"/><path d="M15.75,11.375v-1.5a.75.75,0,0,0-1.5,0v1.5a.75.75,0,0,0,1.5,0Z"/><path d="M9.5,16.125H8a.75.75,0,0,0,0,1.5H9.5a.75.75,0,0,0,0-1.5Z"/><path d="M22,16.125H20.5a.75.75,0,0,0,0,1.5H22a.75.75,0,0,0,0-1.5Z"/><path d="M9.757,11.571A.75.75,0,1,0,8.7,12.631L9.97,13.905a.75.75,0,0,0,1.06-1.061Z"/><path d="M21.3,12.631a.75.75,0,1,0-1.061-1.06L18.97,12.844a.75.75,0,1,0,1.06,1.061Z"/><path d="M15,13.375a3.431,3.431,0,0,0-3.5,3.5,3.22,3.22,0,0,0,1.384,2.943.251.251,0,0,1,.116.211v.346a.5.5,0,0,0,.5.5h3a.5.5,0,0,0,.5-.5v-.36a.251.251,0,0,1,.116-.211A3.2,3.2,0,0,0,18.5,16.875,3.432,3.432,0,0,0,15,13.375Z"/><path d="M20,.375H4a3,3,0,0,0-3,3v11.5a3,3,0,0,0,3,3,1,1,0,0,0,0-2,1,1,0,0,1-1-1V5.625a.249.249,0,0,1,.25-.25h17.5a.249.249,0,0,1,.25.25v3.25a1,1,0,0,0,2,0v-5.5A3,3,0,0,0,20,.375ZM6.5,3.125a.75.75,0,1,1,.75.75A.749.749,0,0,1,6.5,3.125Zm2.5,0a.75.75,0,1,1,.75.75A.749.749,0,0,1,9,3.125Zm-3.5,0a.75.75,0,1,1-.75-.75A.75.75,0,0,1,5.5,3.125Z"/></svg>