<svg xmlns="http://www.w3.org/2000/svg" viewBox="0 0 24 24"><title>building-nature</title><path d="M2,5H17a.5.5,0,0,0,.468-.676L16.211.973A1.508,1.508,0,0,0,14.807,0H4.193a1.508,1.508,0,0,0-1.4.973L1.532,4.324A.5.5,0,0,0,2,5Z"/><path d="M23,22H21.5a.25.25,0,0,1-.25-.25v-.476a.245.245,0,0,1,.151-.223A2.243,2.243,0,0,0,22.75,19a67.259,67.259,0,0,0-1.77-7.14.521.521,0,0,0-.96,0A67.259,67.259,0,0,0,18.25,19,2.243,2.243,0,0,0,19.6,21.051a.245.245,0,0,1,.151.223v.476a.25.25,0,0,1-.25.25H16.25a.25.25,0,0,1-.25-.25V6.25A.25.25,0,0,0,15.75,6H3.25A.25.25,0,0,0,3,6.25v15.5a.25.25,0,0,1-.25.25H1a1,1,0,0,0,0,2H23a1,1,0,0,0,0-2ZM5.5,8.75H8a.75.75,0,0,1,0,1.5H5.5a.75.75,0,0,1,0-1.5ZM4.75,14a.75.75,0,0,1,.75-.75H8a.75.75,0,0,1,0,1.5H5.5A.75.75,0,0,1,4.75,14ZM11,21.75a.25.25,0,0,1-.25.25H8.25A.25.25,0,0,1,8,21.75V19.5a1.5,1.5,0,0,1,3,0Zm2.5-7H11a.75.75,0,0,1,0-1.5h2.5a.75.75,0,0,1,0,1.5Zm0-4.5H11a.75.75,0,0,1,0-1.5h2.5a.75.75,0,0,1,0,1.5Z"/></svg>