<svg xmlns="http://www.w3.org/2000/svg" viewBox="0 0 24 24"><title>buildings-2</title><path d="M10.75,2.5h2.5a.5.5,0,0,0,.5-.5V1a1,1,0,0,0-1-1h-1.5a1,1,0,0,0-1,1V2A.5.5,0,0,0,10.75,2.5Z"/><path d="M23,22a.25.25,0,0,1-.25-.25v-8a1,1,0,0,0-1-1h-1.5V12a.75.75,0,0,0-1.5,0v.75a1,1,0,0,0-1,1V21.5a.5.5,0,0,1-.5.5h-.5a.5.5,0,0,1-.5-.5V5a1,1,0,0,0-1-1H8.75a1,1,0,0,0-1,1V21.5a.5.5,0,0,1-.5.5h-.5a.5.5,0,0,1-.5-.5V13.75a1,1,0,0,0-1-1V12a.75.75,0,0,0-1.5,0v.75H2.25a1,1,0,0,0-1,1v8A.25.25,0,0,1,1,22a1,1,0,0,0,0,2H23a1,1,0,0,0,0-2ZM10,6.5h4A.75.75,0,0,1,14,8H10a.75.75,0,0,1,0-1.5Zm0,4h4A.75.75,0,0,1,14,12H10a.75.75,0,0,1,0-1.5Zm0,4h4A.75.75,0,0,1,14,16H10a.75.75,0,0,1,0-1.5ZM14.25,20H9.75a.75.75,0,0,1,0-1.5h4.5a.75.75,0,0,1,0,1.5Z"/></svg>