<svg xmlns="http://www.w3.org/2000/svg" viewBox="0 0 24 24"><title>building-modern-2</title><path d="M7.125,6h8a.5.5,0,0,0,.3-.9l-3.1-2.325a.5.5,0,0,1-.2-.4V1a1,1,0,0,0-2,0V2.375a.5.5,0,0,1-.2.4L6.825,5.1A.5.5,0,0,0,7.125,6Z"/><path d="M15.125,7.5h-8a.5.5,0,0,0-.5.5V23.5a.5.5,0,0,0,.5.5h8a.5.5,0,0,0,.5-.5V8A.5.5,0,0,0,15.125,7.5Zm-5,13a.75.75,0,0,1-1.5,0v-10a.75.75,0,0,1,1.5,0Zm3.5,0a.75.75,0,0,1-1.5,0v-10a.75.75,0,0,1,1.5,0Z"/><path d="M4.625,13h-4a.5.5,0,0,0-.5.5v10a.5.5,0,0,0,.5.5h4a.5.5,0,0,0,.5-.5v-10A.5.5,0,0,0,4.625,13Zm-1.25,8a.75.75,0,0,1-1.5,0V20a.75.75,0,0,1,1.5,0Zm0-4a.75.75,0,0,1-1.5,0V16a.75.75,0,0,1,1.5,0Z"/><path d="M23.42,12.811l-5.25-2.25a.75.75,0,0,0-1.045.689v12a.75.75,0,0,0,.75.75h5.25a.75.75,0,0,0,.75-.75V13.5A.749.749,0,0,0,23.42,12.811ZM19.875,20.5a.75.75,0,0,1-1.5,0v-1a.75.75,0,0,1,1.5,0Zm0-4.5a.75.75,0,0,1-1.5,0V15a.75.75,0,0,1,1.5,0Zm2.5,4.5a.75.75,0,0,1-1.5,0v-1a.75.75,0,0,1,1.5,0Zm0-4.5a.75.75,0,0,1-1.5,0V15a.75.75,0,0,1,1.5,0Z"/></svg>