<svg xmlns="http://www.w3.org/2000/svg" viewBox="0 0 24 24"><title>building-2</title><path d="M24,3a.75.75,0,0,0-.75-.75H.75a.75.75,0,0,0,0,1.5H1.5a.5.5,0,0,1,.5.5v17a.5.5,0,0,0,.5.5H9a.5.5,0,0,0,.5-.5v-2.5a2.5,2.5,0,0,1,5,0v2.5a.5.5,0,0,0,.5.5h6.5a.5.5,0,0,0,.5-.5v-17a.5.5,0,0,1,.5-.5h.75A.75.75,0,0,0,24,3ZM9.25,14.25h-4a.75.75,0,0,1,0-1.5h4a.75.75,0,0,1,0,1.5Zm0-4h-4a.75.75,0,0,1,0-1.5h4a.75.75,0,0,1,0,1.5Zm0-4h-4a.75.75,0,0,1,0-1.5h4a.75.75,0,0,1,0,1.5Zm9.5,8h-4a.75.75,0,0,1,0-1.5h4a.75.75,0,0,1,0,1.5Zm0-4h-4a.75.75,0,0,1,0-1.5h4a.75.75,0,0,1,0,1.5ZM19.5,5.5a.75.75,0,0,1-.75.75h-4a.75.75,0,0,1,0-1.5h4A.75.75,0,0,1,19.5,5.5Z"/></svg>