<svg xmlns="http://www.w3.org/2000/svg" viewBox="0 0 24 24"><title>bus-ticket</title><path d="M8.959,13.123H4.75a.25.25,0,0,1-.25-.25V3a1,1,0,0,1,1-1h13a1,1,0,0,1,1,1v8.377a.25.25,0,0,0,.25.25h1.5a.25.25,0,0,0,.25-.25v-.5a.25.25,0,0,1,.25-.25h.5A1.752,1.752,0,0,0,24,8.877v-3a1.752,1.752,0,0,0-1.75-1.75h-.5a.25.25,0,0,1-.25-.25V3a3,3,0,0,0-3-3H5.5a3,3,0,0,0-3,3v.877a.25.25,0,0,1-.25.25h-.5A1.752,1.752,0,0,0,0,5.877v3a1.752,1.752,0,0,0,1.75,1.75h.5a.25.25,0,0,1,.25.25v6.746a3,3,0,0,0,3,3H8.518a.25.25,0,0,0,.25-.25V15.127a3.457,3.457,0,0,1,.411-1.636.249.249,0,0,0-.22-.368ZM7.5,16.877h-2a.75.75,0,0,1,0-1.5h2a.75.75,0,0,1,0,1.5Z"/><path d="M7.866,21.627h-3a.25.25,0,0,0-.25.25v.25a1.75,1.75,0,0,0,3.5,0v-.25A.25.25,0,0,0,7.866,21.627Z"/><path d="M22,13H12a2,2,0,0,0-2,2v7a2,2,0,0,0,2,2H22a2,2,0,0,0,2-2V15A2,2,0,0,0,22,13Zm0,8.75a.25.25,0,0,1-.25.25h-9.5a.25.25,0,0,1-.25-.25V19a.25.25,0,0,1,.25-.25h9.5A.25.25,0,0,1,22,19Zm0-5.283a.25.25,0,0,1-.25.25h-9.5a.25.25,0,0,1-.25-.25V15.25a.25.25,0,0,1,.25-.25h9.5a.25.25,0,0,1,.25.25Z"/></svg>