<svg xmlns="http://www.w3.org/2000/svg" viewBox="0 0 24 24"><title>bus-school</title><path d="M22.25,4.012H4.5a1.752,1.752,0,0,0-1.75,1.75v5.245a.25.25,0,0,1-.219.248A1.753,1.753,0,0,0,1,12.992v4a.25.25,0,0,1-.25.25.75.75,0,0,0,0,1.5h.983c.006,0,.011,0,.017,0h.8a.25.25,0,0,0,.246-.294,2.667,2.667,0,0,1-.042-.46,3,3,0,0,1,6,0,2.667,2.667,0,0,1-.042.46.25.25,0,0,0,.246.294h7.593a.251.251,0,0,0,.247-.294,2.572,2.572,0,0,1-.043-.46,3,3,0,0,1,6,0,2.37,2.37,0,0,1-.016.281.251.251,0,0,0,.37.246,1.679,1.679,0,0,0,.371-.279A1.717,1.717,0,0,0,24,16.992V5.762A1.752,1.752,0,0,0,22.25,4.012ZM7,10.762a.25.25,0,0,1-.25.25H5a.25.25,0,0,1-.25-.25V7.012A.25.25,0,0,1,5,6.762H6.75a.25.25,0,0,1,.25.25Zm5.6,5a.5.5,0,0,1-.5.5H9.6a.5.5,0,0,1-.5-.5v-8a.5.5,0,0,1,.5-.5h2.5a.5.5,0,0,1,.5.5Zm4.4-5a.5.5,0,0,1-.5.5h-2a.5.5,0,0,1-.5-.5v-3a.5.5,0,0,1,.5-.5h2a.5.5,0,0,1,.5.5Zm5,0a.5.5,0,0,1-.5.5h-2a.5.5,0,0,1-.5-.5v-3a.5.5,0,0,1,.5-.5h2a.5.5,0,0,1,.5.5Z"/><circle cx="5.75" cy="17.988" r="2"/><circle cx="19.751" cy="17.988" r="2"/></svg>