<svg xmlns="http://www.w3.org/2000/svg" viewBox="0 0 24 24"><title>bus-double</title><path d="M20.5,8.5A.5.5,0,0,0,21,8V3.5A3.5,3.5,0,0,0,17.5,0H6.5A3.5,3.5,0,0,0,3,3.5V20a1.5,1.5,0,0,0,1.5,1.5.25.25,0,0,1,.25.25V23a1,1,0,0,0,1,1h1a1,1,0,0,0,1-1V22a.5.5,0,0,1,.5-.5h7.5a.5.5,0,0,1,.5.5v1a1,1,0,0,0,1,1h1a1,1,0,0,0,1-1V21.75a.25.25,0,0,1,.25-.25A1.5,1.5,0,0,0,21,20V15.5a1,1,0,0,0-.667-.943A.5.5,0,0,1,20,14.086V9A.5.5,0,0,1,20.5,8.5ZM5,17.5a.5.5,0,0,1,.5-.5h2a.5.5,0,0,1,.5.5v1a.5.5,0,0,1-.5.5h-2a.5.5,0,0,1-.5-.5Zm.5-3A.5.5,0,0,1,5,14V9a.5.5,0,0,1,.5-.5h7A.5.5,0,0,1,13,9v5a.5.5,0,0,1-.5.5ZM6,6a.5.5,0,0,1-.5-.5v-1A.5.5,0,0,1,6,4H18a.5.5,0,0,1,.5.5v1A.5.5,0,0,1,18,6Zm9,3a.5.5,0,0,1,.5-.5h2A.5.5,0,0,1,18,9v5a.5.5,0,0,1-.5.5h-2A.5.5,0,0,1,15,14Zm1,8.5a.5.5,0,0,1,.5-.5h2a.5.5,0,0,1,.5.5v1a.5.5,0,0,1-.5.5h-2a.5.5,0,0,1-.5-.5Z"/></svg>