<svg xmlns="http://www.w3.org/2000/svg" viewBox="0 0 24 24"><title>bus</title><path d="M20.252,6.5A.251.251,0,0,1,20,6.248V2.5A2.5,2.5,0,0,0,17.5,0H6.5A2.5,2.5,0,0,0,4,2.5V6.25a.25.25,0,0,1-.25.25H1.5A1.5,1.5,0,0,0,0,8v5a1.5,1.5,0,0,0,1.5,1.5,1,1,0,0,0,1-1v-5H3.75A.25.25,0,0,1,4,8.75V19.479a1.5,1.5,0,0,0,1.286,1.484.25.25,0,0,1,.214.248V23a1,1,0,0,0,1,1h2a1,1,0,0,0,1-1V21.229a.249.249,0,0,1,.25-.25h4.5a.249.249,0,0,1,.25.25V23a1,1,0,0,0,1,1h2a1,1,0,0,0,1-1V21.211a.251.251,0,0,1,.214-.248A1.5,1.5,0,0,0,20,19.479V8.75a.25.25,0,0,1,.25-.25H21.5v4.979a1,1,0,0,0,1,1,1.5,1.5,0,0,0,1.5-1.5v-5a1.5,1.5,0,0,0-1.5-1.5ZM17.5,7.5A.5.5,0,0,1,18,8v6a.5.5,0,0,1-.5.5H6.5A.5.5,0,0,1,6,14V8a.5.5,0,0,1,.5-.5ZM9.5,4V3a.5.5,0,0,1,.5-.5h4a.5.5,0,0,1,.5.5V4a.5.5,0,0,1-.5.5H10A.5.5,0,0,1,9.5,4Zm.75,14a.75.75,0,0,1-.75.75h-3a.75.75,0,0,1,0-1.5h3A.75.75,0,0,1,10.25,18Zm4.25.75a.75.75,0,0,1,0-1.5h3a.75.75,0,0,1,0,1.5Z"/></svg>