<svg xmlns="http://www.w3.org/2000/svg" viewBox="0 0 24 24"><title>business-ladder</title><path d="M14.691,23.921a1.614,1.614,0,0,0,2.032-1.036L23.6,3.373a1.613,1.613,0,0,0-3.068-1l-.5,1.431a.251.251,0,0,1-.265.165l-9.294-1.12a.25.25,0,0,1-.206-.332l.146-.406a1.613,1.613,0,1,0-3.068-1L.4,20.44a1.613,1.613,0,0,0,3.068,1l.343-.956a.25.25,0,0,1,.26-.164l9.476.944a.251.251,0,0,1,.211.332l-.1.294A1.614,1.614,0,0,0,14.691,23.921ZM9.4,4.932a.247.247,0,0,1,.265-.163L18.97,5.89a.245.245,0,0,1,.183.116.25.25,0,0,1,.023.215l-.963,2.731a.079.079,0,0,1-.082.053L8.605,8.054a.251.251,0,0,1-.211-.333ZM7.523,10.146a.252.252,0,0,1,.26-.165l9.409.94a.253.253,0,0,1,.186.115.248.248,0,0,1,.024.217l-.951,2.7a.251.251,0,0,1-.263.165l-9.407-.993a.249.249,0,0,1-.208-.333ZM4.893,18.39a.251.251,0,0,1-.21-.333L5.7,15.216a.249.249,0,0,1,.261-.164l9.423,1a.249.249,0,0,1,.209.331l-.982,2.789a.249.249,0,0,1-.26.165Z"/></svg>