<svg xmlns="http://www.w3.org/2000/svg" viewBox="0 0 24 24"><title>business-deal-cash-exchange</title><circle cx="3.5" cy="6.22" r="2.143"/><path d="M.5,14.97a.25.25,0,0,0,.25.25h.809a.25.25,0,0,1,.249.225l.384,3.835a.251.251,0,0,0,.249.226H4.559a.251.251,0,0,0,.249-.226l.384-3.835a.25.25,0,0,1,.249-.225H6.25a.25.25,0,0,0,.25-.25V12.648a3,3,0,0,0-6,0Z"/><circle cx="20.5" cy="6.22" r="2.143"/><path d="M23.5,14.97V12.648a3,3,0,1,0-6,0V14.97a.25.25,0,0,0,.25.25h.809a.25.25,0,0,1,.249.225l.384,3.835a.251.251,0,0,0,.249.226h2.118a.251.251,0,0,0,.249-.226l.384-3.835a.25.25,0,0,1,.249-.225h.809A.25.25,0,0,0,23.5,14.97Z"/><path d="M12.452,10.884c-1.265-.3-1.382-.4-1.382-1.125a1.091,1.091,0,0,1,2.1-.416,1.25,1.25,0,1,0,2.309-.958,3.579,3.579,0,0,0-1.913-1.931.25.25,0,0,1-.153-.23v-.71a1.25,1.25,0,0,0-2.5,0v.711a.25.25,0,0,1-.152.23,3.594,3.594,0,0,0-2.189,3.3c0,2.762,2.146,3.278,3.3,3.555,1.3.314,1.382.422,1.382,1.124a1.091,1.091,0,0,1-2.1.417,1.25,1.25,0,0,0-2.308.959,3.579,3.579,0,0,0,1.914,1.93.25.25,0,0,1,.153.231v.7a1.25,1.25,0,0,0,2.5,0v-.7a.25.25,0,0,1,.152-.23,3.6,3.6,0,0,0,2.187-3.3C15.75,11.676,13.6,11.16,12.452,10.884Z"/></svg>