<svg xmlns="http://www.w3.org/2000/svg" viewBox="0 0 24 24"><title>business-scale</title><path d="M12,24a1.5,1.5,0,0,0,1.5-1.5V20.25a.25.25,0,0,1,.25-.25h2.4a1.5,1.5,0,0,0,1.479-1.253L19.493,7.521a.3.3,0,0,0,0-.042A7.5,7.5,0,1,0,4.5,7.562a.3.3,0,0,0,0,.041L6.364,18.748A1.5,1.5,0,0,0,7.843,20h2.4a.25.25,0,0,1,.25.25V22.5A1.5,1.5,0,0,0,12,24Zm0-7a1.5,1.5,0,1,1,1.5-1.5A1.5,1.5,0,0,1,12,17ZM7.072,7.422A.251.251,0,0,1,7,7.237a5,5,0,0,1,9.987,0,.251.251,0,0,1-.25.263h-2.4a.25.25,0,0,1-.208-.389l.711-1.065a1,1,0,1,0-1.662-1.111L11.537,7.39a.252.252,0,0,1-.208.11H7.253A.245.245,0,0,1,7.072,7.422ZM8.5,11.75a.75.75,0,0,1,0-1.5h7a.75.75,0,0,1,0,1.5Z"/></svg>