<svg xmlns="http://www.w3.org/2000/svg" viewBox="0 0 24 24"><title>business-deal-cash-1</title><path d="M3.5,1.5v7A1.5,1.5,0,0,0,5,10h6.25a.25.25,0,0,1,.25.25V12.5a.5.5,0,0,0,.309.462A.493.493,0,0,0,12,13a.5.5,0,0,0,.354-.147l2.78-2.783A.249.249,0,0,1,15.311,10H19a1.5,1.5,0,0,0,1.5-1.5v-7A1.5,1.5,0,0,0,19,0H5A1.5,1.5,0,0,0,3.5,1.5Zm9.583,4.125H10.917a1.708,1.708,0,1,1,0-3.416h.208a.25.25,0,0,0,.25-.25V1.75a.625.625,0,0,1,1.25,0v.209a.25.25,0,0,0,.25.25h1.292a.625.625,0,1,1,0,1.25h-3.25a.458.458,0,1,0,0,.916h2.166a1.709,1.709,0,1,1,0,3.417h-.208a.249.249,0,0,0-.25.25V8.25a.625.625,0,0,1-1.25,0V8.042a.249.249,0,0,0-.25-.25H9.833a.625.625,0,0,1,0-1.25h3.25a.459.459,0,1,0,0-.917Z"/><path d="M4.176,20.775.824,22.032A.5.5,0,0,0,.5,22.5v1A.5.5,0,0,0,1,24H23a.5.5,0,0,0,.5-.5v-1a.5.5,0,0,0-.324-.468l-3.352-1.257a.5.5,0,0,1-.324-.467v-.931a.484.484,0,0,1,.108-.311A5.793,5.793,0,0,0,21,15.5c0-2.445-1.324-3.979-3.455-4a3.425,3.425,0,0,0-2.907,1.69c-1.566,2.708.183,5.186.757,5.881a.471.471,0,0,1,.105.306v.931a.5.5,0,0,1-.324.467l-3.088,1.159a.266.266,0,0,1-.176,0L8.824,20.775a.5.5,0,0,1-.324-.467v-.931a.484.484,0,0,1,.108-.311A5.793,5.793,0,0,0,10,15.5c0-2.445-1.324-3.979-3.455-4a3.476,3.476,0,0,0-2.907,1.69c-1.566,2.708.183,5.186.757,5.881a.471.471,0,0,1,.105.306v.931A.5.5,0,0,1,4.176,20.775Z"/></svg>