<svg xmlns="http://www.w3.org/2000/svg" viewBox="0 0 24 24"><title>business-deal-handshake-circle</title><path d="M7.25,13.75H7.9a.753.753,0,0,1,.464.161s1.727,1.362,2.267,1.794a.25.25,0,0,0,.317-.005l2.994-2.528A.252.252,0,0,0,14.028,13a.258.258,0,0,0-.064-.185l-1.2-1.317a.252.252,0,0,0-.28-.063l-.056.023a1.983,1.983,0,0,1-.733.143,1.957,1.957,0,0,1-1.812-1.236,1.953,1.953,0,0,1-.076-1.211.138.138,0,0,0-.043-.14.142.142,0,0,0-.145-.026L7.152,10.038a.249.249,0,0,0-.152.23V13.5A.249.249,0,0,0,7.25,13.75Z"/><path d="M11.522,10.06a.451.451,0,0,0,.346,0l.7-.287a.753.753,0,0,1,.841.191l1.922,2.117a1.531,1.531,0,0,1,.333.877.253.253,0,0,0,.1.185.248.248,0,0,0,.2.048l.838-.168a.249.249,0,0,0,.2-.245c0-.638,0-2.591,0-3.182a.25.25,0,0,0-.16-.235L14.058,8.3a.948.948,0,0,0-.706.046l-1.856.9a.782.782,0,0,1-.112.079.452.452,0,0,0,.138.735Z"/><path d="M12,24A12,12,0,1,0,0,12,12.013,12.013,0,0,0,12,24ZM2.5,15.5v-7A.5.5,0,0,1,3,8H5.5a1.5,1.5,0,0,1,1.089.47.25.25,0,0,0,.28.058L9.051,7.6a2.2,2.2,0,0,1,2.03.181L12.689,7A2.443,2.443,0,0,1,14.581,6.9L17.758,8.11a.244.244,0,0,0,.182,0A1.509,1.509,0,0,1,18.5,8H21a.5.5,0,0,1,.5.5v7a.5.5,0,0,1-.5.5H18.5a1.5,1.5,0,0,1-1.475-1.229.252.252,0,0,0-.106-.162.256.256,0,0,0-.189-.038l-2.828.566-2.255,1.849a1.431,1.431,0,0,1-1.925-.1L7.707,15.3a.256.256,0,0,0-.155-.054H6.935a.25.25,0,0,0-.2.107A1.5,1.5,0,0,1,5.5,16H3A.5.5,0,0,1,2.5,15.5Z"/></svg>