<svg xmlns="http://www.w3.org/2000/svg" viewBox="0 0 24 24"><title>business-magic-rabbit</title><path d="M5.458,17H7.314a.252.252,0,0,1,.248.286L6.9,21.947a1.3,1.3,0,0,0,.386,1.113,1.571,1.571,0,0,0,1.1.44h6.91a1.577,1.577,0,0,0,1.1-.44,1.305,1.305,0,0,0,.385-1.113h0l-.666-4.66A.252.252,0,0,1,16.362,17h2.18a1,1,0,0,0,0-2H5.458a1,1,0,1,0,0,2Z"/><path d="M20,3.909c1.5-1.5-1-4.5-3-3-.915.687-2.961,3.853-3.712,5.04a.251.251,0,0,1-.278.108,3.52,3.52,0,0,0-2.02,0,.251.251,0,0,1-.278-.108C9.961,4.762,7.915,1.6,7,.909c-2-1.5-4.5,1.5-3,3,.783.783,3.4,2.789,4.5,3.623a.251.251,0,0,1,.064.327,4,4,0,1,0,6.87,0,.25.25,0,0,1,.064-.327C16.6,6.7,19.217,4.692,20,3.909ZM10.25,10.5A.75.75,0,1,1,11,9.75.749.749,0,0,1,10.25,10.5Zm3.5,0a.75.75,0,1,1,.75-.75A.749.749,0,0,1,13.75,10.5Z"/></svg>