<svg xmlns="http://www.w3.org/2000/svg" viewBox="0 0 24 24"><title>business-deal-negotiate</title><path d="M8.5,12.5h.388a.25.25,0,0,1,.25.25v.75a1,1,0,0,0,1.625.781l2.157-1.726a.251.251,0,0,1,.156-.055h2.563a1,1,0,0,0,0-2h-3a.992.992,0,0,0-.625.22l-.579.463a.255.255,0,0,1-.215.047.251.251,0,0,1-.169-.14,1,1,0,0,0-.912-.59H8.75a.249.249,0,0,1-.25-.25v-8A.25.25,0,0,1,8.75,2H9.776a1,1,0,0,0,0-2H8.5a2,2,0,0,0-2,2v8.5A2,2,0,0,0,8.5,12.5Z"/><path d="M21.361,5.724a1,1,0,0,0,1-1V2a2,2,0,0,0-2-2H19.139a1,1,0,0,0,0,2h.972a.25.25,0,0,1,.25.25V4.724A1,1,0,0,0,21.361,5.724Z"/><path d="M19.6,21.2a.5.5,0,0,0,.037.644c.948,1,2.245,2.156,3.863,2.156a.5.5,0,0,0,.5-.5V7.5a.5.5,0,0,0-.5-.5c-2.677,0-5.863,1.251-5.925,7.175a.273.273,0,0,1-.026.109l-1.135,2.27a.994.994,0,0,0,.044.971,1.007,1.007,0,0,0,.851.475h.441a.25.25,0,0,1,.25.25V19a1,1,0,0,0,1,1h1a.25.25,0,0,1,.2.4Zm.538-7.424a1,1,0,1,1,1,1A1,1,0,0,1,20.138,13.776Z"/><path d="M.5,24c1.618,0,2.915-1.152,3.863-2.156A.5.5,0,0,0,4.4,21.2l-.6-.8A.25.25,0,0,1,4,20H5a1,1,0,0,0,1-1v-.75A.25.25,0,0,1,6.25,18h.441a1.007,1.007,0,0,0,.851-.475,1,1,0,0,0,.044-.972L6.452,14.284a.254.254,0,0,1-.027-.108C6.363,8.251,3.177,7,.5,7a.5.5,0,0,0-.5.5v16A.5.5,0,0,0,.5,24ZM2.862,12.776a1,1,0,1,1-1,1A1,1,0,0,1,2.862,12.776Z"/><path d="M14.983,6.424H13.189a1,1,0,0,0,0,2h.222a.1.1,0,0,1,.1.1,1,1,0,0,0,2,0v-.01a.217.217,0,0,1,.15-.208,2.179,2.179,0,0,0,.131-4.1l-1.821-.729a.18.18,0,0,1-.116-.17.184.184,0,0,1,.185-.183h1.794a1,1,0,0,0,0-2h-.22a.1.1,0,0,1-.1-.1,1,1,0,0,0-2,0v.012a.218.218,0,0,1-.151.207,2.179,2.179,0,0,0-.132,4.1l1.822.728a.184.184,0,0,1-.07.355Z"/></svg>