<svg xmlns="http://www.w3.org/2000/svg" viewBox="0 0 24 24"><title>business-lucky-cat</title><path d="M0,11.263a4.159,4.159,0,0,0,1.409,2.959.5.5,0,0,0,.348.141.521.521,0,0,0,.146-.021.5.5,0,0,0,.344-.375A14.688,14.688,0,0,1,3.514,10.3l.43-.82A.5.5,0,0,0,4,9.246v-4A1.061,1.061,0,0,0,2.982,4.218,2.766,2.766,0,0,0,1.8,4.395,2.638,2.638,0,0,0,0,6.763Z"/><path d="M20.6,10.579a.5.5,0,0,0-.64.652,16.022,16.022,0,0,1,1.12,5.546,8.345,8.345,0,0,1-.411,2.654.5.5,0,0,0,.726.59,5.245,5.245,0,0,0-.795-9.442Z"/><path d="M11.5,23.237c4.463,0,8.081-2,8.081-6.465a14.662,14.662,0,0,0-1.2-5.43.507.507,0,0,0-.326-.28.5.5,0,0,0-.422.077A6.141,6.141,0,0,1,14,12.237H9a6.138,6.138,0,0,1-3.632-1.1.5.5,0,0,0-.748.2,14.664,14.664,0,0,0-1.2,5.43C3.419,21.234,7.037,23.237,11.5,23.237Zm0-10a1.5,1.5,0,0,1,.9,2.7.251.251,0,0,1-.4-.2v-.494a.5.5,0,0,0-1,0v.493a.251.251,0,0,1-.4.2,1.5,1.5,0,0,1,.9-2.695Z"/><path d="M16.753.831a.5.5,0,0,0-.5,0L12.963,2.682a.256.256,0,0,1-.139.031c-.223-.015-.9-.056-1.324-.056h0c-.423,0-1.1.042-1.325.056a.242.242,0,0,1-.137-.03L6.762.88A.5.5,0,0,0,6.256.869.5.5,0,0,0,6,1.305v2.9a.242.242,0,0,1-.031.121A4.222,4.222,0,0,0,5,7.034a3.761,3.761,0,0,0,4,3.729h5a3.761,3.761,0,0,0,4-3.729,4.216,4.216,0,0,0-.969-2.707A.253.253,0,0,1,17,4.206V1.263A.5.5,0,0,0,16.753.831ZM9.976,6.667a.49.49,0,0,1-.254.07.5.5,0,0,1-.43-.246A1.509,1.509,0,0,0,8,5.755a.5.5,0,0,1,0-1,2.514,2.514,0,0,1,2.152,1.227A.5.5,0,0,1,9.976,6.667ZM15,5.755a1.509,1.509,0,0,0-1.292.736.5.5,0,0,1-.43.246.49.49,0,0,1-.254-.07.5.5,0,0,1-.176-.685A2.514,2.514,0,0,1,15,4.755a.5.5,0,0,1,0,1Z"/></svg>