<svg xmlns="http://www.w3.org/2000/svg" viewBox="0 0 24 24"><title>business-deal-handshake-circle-alternate</title><path d="M0,12A12,12,0,1,0,12,0,12.013,12.013,0,0,0,0,12ZM12,2A10,10,0,1,1,2,12,10.011,10.011,0,0,1,12,2Z"/><path d="M4.5,15.5H6.167a1.32,1.32,0,0,0,1.006-.468.254.254,0,0,1,.191-.088h.673A.252.252,0,0,1,8.191,15l1.742,1.361a1.354,1.354,0,0,0,1.81.088l1.924-1.567a.269.269,0,0,1,.109-.052l2.731-.542A1.344,1.344,0,0,0,17.833,15.5H19.5A.5.5,0,0,0,20,15V9a.5.5,0,0,0-.5-.5H17.833a1.28,1.28,0,0,0-.412.067.249.249,0,0,1-.168,0L14.308,7.444a2.252,2.252,0,0,0-1.736.095l-1.261.607a.246.246,0,0,1-.224,0,2.058,2.058,0,0,0-1.722-.081l-2.019.853a.249.249,0,0,1-.27-.049A1.318,1.318,0,0,0,6.167,8.5H4.5A.5.5,0,0,0,4,9v6A.5.5,0,0,0,4.5,15.5Zm7.008-5.764a.7.7,0,0,0,.1-.067l1.626-.782a.747.747,0,0,1,.554-.036l2.554.969a.25.25,0,0,1,.161.234v2.5a.25.25,0,0,1-.2.245l-.7.139a.251.251,0,0,1-.3-.213,1.441,1.441,0,0,0-.3-.709l-1.7-1.856a.755.755,0,0,0-.837-.187l-.616.251a.319.319,0,0,1-.241,0,.307.307,0,0,1-.163-.167A.3.3,0,0,1,11.508,9.736ZM7.5,10.645a.25.25,0,0,1,.153-.231l2.282-.965a.037.037,0,0,1,.036.007.036.036,0,0,1,.01.035,1.81,1.81,0,0,0,1.752,2.253,1.831,1.831,0,0,0,.679-.132.218.218,0,0,1,.239.054l.925,1.01a.251.251,0,0,1-.026.363c-.006,0-2.429,1.98-2.5,2.039a.251.251,0,0,1-.312,0L8.843,13.6a.747.747,0,0,0-.462-.16H7.75a.25.25,0,0,1-.25-.25Z"/></svg>