<svg xmlns="http://www.w3.org/2000/svg" viewBox="0 0 24 24"><title>business-magic-rabbit-hide</title><path d="M4.612,15.184H6.86a.249.249,0,0,1,.245.3l-1.3,6.888a1.359,1.359,0,0,0,.309,1.143A1.422,1.422,0,0,0,7.2,24h9.312a1.421,1.421,0,0,0,1.078-.489,1.352,1.352,0,0,0,.309-1.143L16.6,15.48a.249.249,0,0,1,.246-.3h2.544a.98.98,0,0,0,0-1.959H4.612a.98.98,0,1,0,0,1.959Z"/><path d="M19.837,3.34C21.306,1.87,18.857-1.068,16.9.4c-.9.672-2.9,3.769-3.634,4.935a.249.249,0,0,1-.278.107,3.471,3.471,0,0,0-1.972,0,.249.249,0,0,1-.278-.107C10,4.169,8,1.072,7.1.4,5.143-1.068,2.694,1.87,4.163,3.34c.767.766,3.326,2.727,4.406,3.546a.251.251,0,0,1,.064.327,3.9,3.9,0,0,0-.551,2,3.612,3.612,0,0,0,.579,1.956.253.253,0,0,0,.194.093H15.28a.253.253,0,0,0,.218-.127,4.436,4.436,0,0,0,.42-1.922,3.906,3.906,0,0,0-.55-2,.249.249,0,0,1,.063-.327C16.511,6.067,19.07,4.106,19.837,3.34ZM10.244,9.307a.735.735,0,1,1,.735-.736A.734.734,0,0,1,10.244,9.307Zm3.429,0a.735.735,0,1,1,.734-.736A.735.735,0,0,1,13.673,9.307Z"/></svg>