<svg id="Bold" xmlns="http://www.w3.org/2000/svg" viewBox="0 0 24 24"><title>cake-flour</title><path d="M18,10.5a4.479,4.479,0,0,1-2.7-.9.5.5,0,0,0-.6,0,4.489,4.489,0,0,1-5.4,0,.5.5,0,0,0-.6,0,4.494,4.494,0,0,1-4.02.7.5.5,0,0,0-.644.425C3.594,14.831,3,20.531,3,21.5A2.5,2.5,0,0,0,5.5,24h13A2.5,2.5,0,0,0,21,21.5c0-.969-.594-6.669-1.036-10.773a.5.5,0,0,0-.644-.425A4.463,4.463,0,0,1,18,10.5Zm-1.5,8a.5.5,0,0,1-.5.5H8a.5.5,0,0,1-.5-.5v-4A.5.5,0,0,1,8,14h8a.5.5,0,0,1,.5.5Z"/><path d="M3.658,4.5a.5.5,0,0,0-.48.361A4.181,4.181,0,0,0,3,6,3,3,0,0,0,8.765,7.169a.255.255,0,0,1,.47,0,3,3,0,0,0,5.53,0,.255.255,0,0,1,.47,0A3,3,0,0,0,21,6a4.181,4.181,0,0,0-.178-1.139.5.5,0,0,0-.48-.361Z"/><rect x="2.5" width="19" height="3" rx="1" ry="1"/></svg>