<svg id="Bold" xmlns="http://www.w3.org/2000/svg" viewBox="0 0 24 24"><title>camping-tent-map</title><path d="M23.707,8.793l-5-5.5A1,1,0,0,0,18,3H12.75a.25.25,0,0,1-.25-.25V1a1,1,0,0,0-2,0V2.75a.25.25,0,0,1-.25.25H1A1,1,0,0,0,.17,4.555L2.979,9.243a.5.5,0,0,1,0,.514L.17,14.445A1,1,0,0,0,1,16H18a1,1,0,0,0,.707-.293l5-5.5A1,1,0,0,0,23.707,8.793Zm-8.2,4.716A.986.986,0,0,1,14.65,14h-.9a.5.5,0,0,1-.429-.243L11.964,11.5a.249.249,0,0,0-.428,0l-1.357,2.261A.5.5,0,0,1,9.75,14h-.9a.986.986,0,0,1-.858-.491,1,1,0,0,1-.009-1l3.074-4.617a.249.249,0,0,0,0-.277L9.834,5.777a.5.5,0,1,1,.832-.554l.876,1.314a.25.25,0,0,0,.416,0l.876-1.314a.5.5,0,0,1,.832.554L12.443,7.612a.249.249,0,0,0,0,.277L15.5,12.473l.021.033A1,1,0,0,1,15.508,13.509Z"/><path d="M11.5,24a1,1,0,0,1-1-1V17.75a.751.751,0,0,1,.75-.75h.5a.751.751,0,0,1,.75.75V23A1,1,0,0,1,11.5,24Z"/></svg>