<svg id="Bold" xmlns="http://www.w3.org/2000/svg" viewBox="0 0 24 24"><title>camping-tent-forest</title><path d="M23.5,17h-5a.5.5,0,0,1-.5-.5V14.34a.5.5,0,0,1,.4-.489,7,7,0,1,0-2.8,0,.5.5,0,0,1,.4.489V16.5a.5.5,0,0,1-.5.5H14a.5.5,0,0,0-.419.772L16.1,21.637v0a2.437,2.437,0,0,1,.354,1.773.5.5,0,0,0,.493.588H23.5a.5.5,0,0,0,.5-.5v-6A.5.5,0,0,0,23.5,17ZM17,4.5a1,1,0,0,0-1,1v.975a.25.25,0,0,1-.336.235A3.379,3.379,0,0,0,14.5,6.5a1,1,0,0,0,0,2A1.5,1.5,0,0,1,16,10v1.583a.249.249,0,0,1-.316.241,5.012,5.012,0,1,1,2.878-.081.25.25,0,0,1-.306-.341A2.641,2.641,0,0,1,19.8,9.955a1,1,0,1,0-.594-1.91,4.059,4.059,0,0,0-.828.366A.25.25,0,0,1,18,8.2V5.5A1,1,0,0,0,17,4.5Z"/><path d="M2.26,17.772A.5.5,0,0,0,1.84,17H.5a.5.5,0,0,0-.5.5v2.063a.5.5,0,0,0,.919.272Z"/><path d="M14.837,22.454,8.993,13.462a.5.5,0,0,1,0-.545l1.038-1.6A.75.75,0,0,0,8.774,10.5l-.644.991a.251.251,0,0,1-.419,0l-.643-.99a.749.749,0,1,0-1.257.816l1.039,1.6a.5.5,0,0,1,0,.545l-5.844,8.99A1,1,0,0,0,1.843,24h2.4a.5.5,0,0,0,.426-.238l2.83-4.6a.5.5,0,0,1,.852,0l2.831,4.6A.5.5,0,0,0,11.6,24H14a1,1,0,0,0,.838-1.544Z"/></svg>