<svg id="Bold" xmlns="http://www.w3.org/2000/svg" viewBox="0 0 24 24"><title>camping-rv</title><path d="M21.5,2.612A2.5,2.5,0,0,0,18.987.125L2.487.209A2.5,2.5,0,0,0,0,2.722l.043,8.5A2.492,2.492,0,0,0,2.1,13.657a.25.25,0,0,1,.205.245l.008,1.558a6.007,6.007,0,0,0,6.031,5.97l7.232-.037a.248.248,0,0,1,.236.165,3.491,3.491,0,0,0,3.294,2.317l.75,0a.5.5,0,0,0,.5-.5l0-.25a.251.251,0,0,1,.249-.251l2-.01a1,1,0,0,0-.01-2l-2,.01a.249.249,0,0,1-.251-.248l0-.5a.25.25,0,0,1,.249-.252l2-.01a1,1,0,0,0-.01-2l-2,.01a.25.25,0,0,1-.252-.248v-.25a.5.5,0,0,0-.5-.5l-.75,0a3.492,3.492,0,0,0-3.27,2.35.251.251,0,0,1-.234.168l-7.233.037a4,4,0,0,1-4.02-3.98l-.008-1.5a.251.251,0,0,1,.249-.251l.765,0a.251.251,0,0,0,.248-.279,1.812,1.812,0,0,1-.015-.222,4,4,0,0,1,8-.041,2.036,2.036,0,0,1-.012.222.249.249,0,0,0,.063.2.255.255,0,0,0,.187.082c.467,0-.066,0,9.214-.049a1,1,0,0,0-.01-2l-1.2.008a.251.251,0,0,1-.252-.249ZM11.515,5.663a1,1,0,0,1-1,1l-7,.036a1,1,0,0,1-1-1l-.007-1.5a1,1,0,0,1,1-1l7-.036a1,1,0,0,1,1.006,1Zm7.5-.038a1,1,0,0,1-1,1l-2.5.013a1,1,0,0,1-1-1l-.008-1.5a1,1,0,0,1,1-1L18,3.13a1,1,0,0,1,1.005,1Z"/><circle cx="9.553" cy="13.173" r="2.5"/></svg>