<svg id="Bold" xmlns="http://www.w3.org/2000/svg" viewBox="0 0 24 24"><title>camping-shelter</title><path d="M.5,22.463a1,1,0,0,0,1,1h6a1,1,0,0,0,1-1v-2a.5.5,0,0,0-.5-.5H1a.5.5,0,0,0-.5.5Z"/><path d="M23.5,20.463a.5.5,0,0,0-.5-.5H16a.5.5,0,0,0-.5.5v2a1,1,0,0,0,1,1h6a1,1,0,0,0,1-1Z"/><rect x="0.5" y="14.463" width="8" height="3.5" rx="0.5" ry="0.5"/><rect x="0.5" y="8.963" width="23" height="3.5" rx="0.5" ry="0.5"/><rect x="15.5" y="14.463" width="8" height="3.5" rx="0.5" ry="0.5"/><path d="M1,6.963H23a.5.5,0,0,0,.246-.936L12.246.6a.5.5,0,0,0-.492,0l-11,5.425A.5.5,0,0,0,1,6.963Z"/></svg>