<svg id="Bold" xmlns="http://www.w3.org/2000/svg" viewBox="0 0 24 24"><title>canoe-person-1</title><circle cx="16.235" cy="3.886" r="2.5"/><path d="M4.947,17.027a2.508,2.508,0,0,1,2.126,1.179h0a2.115,2.115,0,0,0,1.488.874,2.788,2.788,0,0,0,1.909-1.045,2.617,2.617,0,0,1,1.282-.886.248.248,0,0,0,.13-.095l2.508-3.583a.25.25,0,0,0-.205-.394H2.91a1.018,1.018,0,0,0-.888.537,1,1,0,0,0,.047,1l1.605,2.518a.249.249,0,0,0,.308.1A2.452,2.452,0,0,1,4.947,17.027Z"/><path d="M13.456,11.207a1.51,1.51,0,0,1,1.824-.444l1.407.656a.25.25,0,0,1,.1.37l-3.529,5.042a.248.248,0,0,0-.035.216.253.253,0,0,0,.15.161,2.471,2.471,0,0,1,1.363,1.244,1.279,1.279,0,0,0,1.051.627,1.863,1.863,0,0,0,1.476-.846A2.418,2.418,0,0,1,19.4,17.027a2.508,2.508,0,0,1,2.127,1.18c.113.17.735.915,1.3.865a2.359,2.359,0,0,1,.625.04.251.251,0,0,0,.3-.246v-5.29a.5.5,0,0,0-.5-.5H18.3a.25.25,0,0,1-.2-.393l.376-.536A1.5,1.5,0,0,0,19.241,9.3L16.549,8.044a4.475,4.475,0,0,0-5.47,1.334l-1.766,2.3a.25.25,0,0,0,.2.4h3.154a.251.251,0,0,0,.2-.1Z"/><path d="M22.93,20.568A3.382,3.382,0,0,1,20.255,19a1.048,1.048,0,0,0-1.716.022,3.372,3.372,0,0,1-2.753,1.558,2.8,2.8,0,0,1-2.4-1.481,1.045,1.045,0,0,0-1.714-.16A4.3,4.3,0,0,1,8.56,20.579,3.555,3.555,0,0,1,5.8,19a1.04,1.04,0,0,0-1.638-.091c-.014.018-1.451,1.813-3.11,1.7A1.015,1.015,0,0,0,0,21.557a1,1,0,0,0,.946,1.051c.075,0,.148.006.222.006A5.835,5.835,0,0,0,4.9,21.007,5.238,5.238,0,0,0,8.56,22.579a5.857,5.857,0,0,0,3.81-1.5,4.576,4.576,0,0,0,3.416,1.5,5.155,5.155,0,0,0,3.622-1.5,4.788,4.788,0,0,0,3.661,1.482,1,1,0,1,0-.139-2Z"/></svg>