<svg id="Bold" xmlns="http://www.w3.org/2000/svg" viewBox="0 0 24 24"><title>canoe</title><path d="M5.834,17.105l-1,1.006a.5.5,0,0,1-.47.133,1.493,1.493,0,0,0-1.15.2l-.015.01L.7,20.169A1.5,1.5,0,0,0,.439,22.5l1.066,1.066a1.5,1.5,0,0,0,2.316-.241L5.56,20.791a1.494,1.494,0,0,0,.2-1.15.5.5,0,0,1,.133-.47l1.006-1a.75.75,0,0,0-1.061-1.061Z"/><path d="M23.561,1.505,22.5.439A1.5,1.5,0,0,0,20.179.68L18.44,3.209a1.494,1.494,0,0,0-.2,1.15.5.5,0,0,1-.133.47l-1.006,1A.75.75,0,0,0,18.166,6.9l1-1.006a.5.5,0,0,1,.47-.133,1.493,1.493,0,0,0,1.15-.2l.015-.01,2.5-1.719a1.5,1.5,0,0,0,.256-2.326Z"/><path d="M16.243,7.757C11.454,2.969,4.4,1.981,2.334,1.79a.5.5,0,0,0-.544.544c.191,2.065,1.179,9.12,5.967,13.909S19.6,22.019,21.666,22.21a.5.5,0,0,0,.544-.544C22.019,19.6,21.031,12.546,16.243,7.757Zm-.354,8.132a2.5,2.5,0,0,1-3.535,0L9.525,13.061a2.5,2.5,0,1,1,3.536-3.536l2.828,2.829A2.5,2.5,0,0,1,15.889,15.889Z"/></svg>