<svg id="Bold" xmlns="http://www.w3.org/2000/svg" viewBox="0 0 24 24"><title>cap-2</title><path d="M22.416,18.791a1,1,0,0,0-.489-.41,27.142,27.142,0,0,0-19.854,0,1.007,1.007,0,0,0-.489.41C.045,21.317.1,21.2.071,21.3A1.5,1.5,0,0,0,2.1,23.124,24.547,24.547,0,0,1,12,21.25a24.554,24.554,0,0,1,9.9,1.874A1.5,1.5,0,0,0,23.929,21.3C23.9,21.191,23.956,21.318,22.416,18.791Z"/><path d="M12,15a28.519,28.519,0,0,1,9.337,1.566A.5.5,0,0,0,22,16.093V12.75a10.016,10.016,0,0,0-8.571-9.9A.5.5,0,0,1,13,2.358V1.75a1,1,0,0,0-2,0v.608a.5.5,0,0,1-.429.494A10.015,10.015,0,0,0,2,12.75v3.342a.5.5,0,0,0,.663.473A28.509,28.509,0,0,1,12,15ZM6.5,9.465a1,1,0,0,1,.7-.954,16.151,16.151,0,0,1,9.6,0,1,1,0,0,1,.7.954V11.38a1,1,0,0,1-1.265.965,16.186,16.186,0,0,0-8.471,0A1,1,0,0,1,6.5,11.38Z"/></svg>