<svg id="Bold" xmlns="http://www.w3.org/2000/svg" viewBox="0 0 24 24"><title>cap-4</title><path d="M23.972,17.206A1.514,1.514,0,0,0,23,16.08L18.274,14.6a.491.491,0,0,0-.289,0L8.792,17.26a.5.5,0,0,0-.047.945l4.84,1.935a9.838,9.838,0,0,0,3.635.671,9.461,9.461,0,0,0,6.3-2.211A1.508,1.508,0,0,0,23.972,17.206Z"/><path d="M17.906,12.255A9.14,9.14,0,0,0,7.638,5.774a1.982,1.982,0,0,0,.088-.585,2,2,0,1,0-3.114,1.66A9.156,9.156,0,0,0,.113,16.2a1.663,1.663,0,0,0,.74,1.151,1.7,1.7,0,0,0,1.39.212l15.151-4.38A.749.749,0,0,0,17.906,12.255ZM11.1,13.281a.5.5,0,0,1-.3.25L6.5,14.774a.5.5,0,0,1-.621-.348,10.4,10.4,0,0,1,.1-6.435.5.5,0,0,1,.274-.275c.226-.092.464-.176.714-.25a.505.505,0,0,1,.421.066,10.635,10.635,0,0,1,3.742,5.356A.5.5,0,0,1,11.1,13.281Z"/></svg>