<svg id="Bold" xmlns="http://www.w3.org/2000/svg" viewBox="0 0 24 24"><title>cap</title><path d="M8.747,11.312v3.317a.5.5,0,0,0,.547.5,28.829,28.829,0,0,1,5.409,0,.5.5,0,0,0,.547-.5V11.314c0-3.7-.7-6.392-1.994-7.834A1,1,0,0,1,13,2.811V1.75a1,1,0,0,0-2,0V2.808a1,1,0,0,1-.257.669C9.444,4.919,8.747,7.611,8.747,11.312Z"/><path d="M16.75,14.977a.5.5,0,0,0,.41.491,28.7,28.7,0,0,1,4.177,1.1A.5.5,0,0,0,22,16.093V12.75a10.016,10.016,0,0,0-6.439-9.344.25.25,0,0,0-.308.353,16.037,16.037,0,0,1,1.5,7.552Z"/><path d="M21.9,23.124A1.5,1.5,0,0,0,23.93,21.3c-.034-.105.03.029-1.515-2.505a1,1,0,0,0-.488-.41,27.149,27.149,0,0,0-19.854,0,1,1,0,0,0-.488.41C.04,21.324.1,21.19.07,21.3A1.5,1.5,0,0,0,2.1,23.124,24.531,24.531,0,0,1,12,21.25,24.531,24.531,0,0,1,21.9,23.124Z"/><path d="M7.247,11.314a16.046,16.046,0,0,1,1.5-7.554.25.25,0,0,0-.309-.353A10.016,10.016,0,0,0,2,12.75v3.342a.5.5,0,0,0,.663.473,28.5,28.5,0,0,1,4.174-1.1.5.5,0,0,0,.41-.491Z"/></svg>