<svg xmlns="http://www.w3.org/2000/svg" viewBox="0 0 24 24"><title>car-dashboard-steering</title><path d="M12,0A12,12,0,1,0,24,12,12.013,12.013,0,0,0,12,0Zm0,3.5a8.494,8.494,0,0,1,7.824,5.2.25.25,0,0,1-.3.338,28.305,28.305,0,0,0-15.052,0,.25.25,0,0,1-.3-.338A8.494,8.494,0,0,1,12,3.5ZM13.5,12A1.5,1.5,0,1,1,12,10.5,1.5,1.5,0,0,1,13.5,12ZM4,13a6,6,0,0,1,5.924,6.947.247.247,0,0,1-.113.172.253.253,0,0,1-.2.029,8.5,8.5,0,0,1-6-6.857.249.249,0,0,1,.055-.2A.253.253,0,0,1,3.843,13Zm10.286,7.178a.156.156,0,0,1-.2-.121A5.3,5.3,0,0,1,14,19a6.006,6.006,0,0,1,6-6,1.419,1.419,0,0,1,.173.011.245.245,0,0,1,.172.1.251.251,0,0,1,.05.191A8.5,8.5,0,0,1,14.286,20.178Z"/></svg>