<svg xmlns="http://www.w3.org/2000/svg" viewBox="0 0 24 24"><title>car-repair-engine</title><path d="M22.907,13.92l-2.313-1.872L18.723,8.679a2.537,2.537,0,0,0-2.216-1.3h-5.5A2.518,2.518,0,0,0,8.952,8.432l-2.14,2.687a.251.251,0,0,1-.34.049L4.691,9.917a4.2,4.2,0,0,0-4.1-.4,1,1,0,0,0,.812,1.829,2.191,2.191,0,0,1,2.136.208l.9.63a.25.25,0,0,1-.055.439l-1.8.681a2.588,2.588,0,0,0,.149,5,.25.25,0,0,0,.287-.142,2.982,2.982,0,0,1,5.488.061.251.251,0,0,0,.231.154h7.779a.249.249,0,0,0,.23-.154,2.987,2.987,0,0,1,5.446-.168.25.25,0,0,0,.321.12A2.42,2.42,0,0,0,24,15.945,2.377,2.377,0,0,0,22.907,13.92ZM15,12.375a1,1,0,0,1-1,1H9.247a.5.5,0,0,1-.416-.778l1.679-2.519a1.575,1.575,0,0,1,1.314-.7H14a1,1,0,0,1,1,1Z"/><circle cx="5.747" cy="19.375" r="2"/><circle cx="19.5" cy="19.375" r="2"/><path d="M.582,6.375a2.151,2.151,0,0,0,.635,1.531.75.75,0,0,0,1.06-1.062.655.655,0,0,1-.2-.469.665.665,0,0,1,.2-.47,2.164,2.164,0,0,0,0-3.06.75.75,0,0,0-1.062,1.06.664.664,0,0,1,0,.94A2.149,2.149,0,0,0,.582,6.375Z"/><path d="M4.082,6.375a2.151,2.151,0,0,0,.635,1.531.75.75,0,0,0,1.06-1.062.655.655,0,0,1-.2-.469.665.665,0,0,1,.2-.47,2.164,2.164,0,0,0,0-3.06.75.75,0,0,0-1.062,1.06.664.664,0,0,1,0,.94A2.149,2.149,0,0,0,4.082,6.375Z"/></svg>