<svg xmlns="http://www.w3.org/2000/svg" viewBox="0 0 24 24"><title>car-dashboard-long-lights</title><path d="M12,0A12,12,0,1,0,24,12,12.013,12.013,0,0,0,12,0Zm3,16.751a1.5,1.5,0,0,1-1.5-1.5v-7a1.5,1.5,0,0,1,1.5-1.5,5,5,0,0,1,0,10Zm-3.822-4.515-5.031,1A.813.813,0,0,1,6,13.25a.75.75,0,0,1-.145-1.486l5.031-1a.75.75,0,0,1,.292,1.472Zm.59,2.618a.751.751,0,0,1-.59.881l-5.031,1A.732.732,0,0,1,6,16.749a.75.75,0,0,1-.145-1.485l5.031-1A.752.752,0,0,1,11.769,14.854Zm-.59-6.118-5.031,1A.732.732,0,0,1,6,9.75a.75.75,0,0,1-.145-1.485l5.031-1a.75.75,0,1,1,.292,1.471Z"/></svg>