<svg xmlns="http://www.w3.org/2000/svg" viewBox="0 0 24 24"><title>car-tool-spark-plug</title><path d="M16,8.736H14.75a.25.25,0,0,1-.25-.25v-3.5a2.5,2.5,0,0,0-.264-1.118l-.71-1.419a.256.256,0,0,1-.026-.112V1.514a1.5,1.5,0,1,0-3,0v.823a.256.256,0,0,1-.026.112l-.71,1.419A2.5,2.5,0,0,0,9.5,4.986v3.5a.25.25,0,0,1-.25.25H8a1.5,1.5,0,0,0,0,3h8a1.5,1.5,0,0,0,0-3Z"/><path d="M14.5,12.736h-5a1,1,0,0,0,0,2h5a1,1,0,0,0,0-2Z"/><path d="M14.5,15.736h-5a1,1,0,0,0,0,2h5a1,1,0,0,0,0-2Z"/><path d="M14.5,18.736h-5a1,1,0,0,0,0,2h2a.25.25,0,0,1,.25.25v.75a.25.25,0,0,1-.25.25H9.25a1,1,0,0,0,0,2h2.5a2,2,0,0,0,2-2v-1a.25.25,0,0,1,.25-.25h.5a1,1,0,1,0,0-2Z"/></svg>