<svg xmlns="http://www.w3.org/2000/svg" viewBox="0 0 24 24"><title>car-actions-music</title><path d="M5.25,12.7h-4A.25.25,0,0,0,1,12.95v.5a1.25,1.25,0,0,0,1.25,1.246h2A1.249,1.249,0,0,0,5.5,13.448v-.5A.25.25,0,0,0,5.25,12.7Z"/><path d="M13.145,11.705a.252.252,0,0,0,.191-.088,3.485,3.485,0,0,1,2.018-1.175L20.3,9.519a.249.249,0,0,0,.2-.245v-1.1a1.251,1.251,0,0,0-.366-.881L19.049,6.214a.493.493,0,0,1-.111-.167L16.888.941A1.491,1.491,0,0,0,15.5,0H5.172A1.493,1.493,0,0,0,3.779.939L1.838,5.772a.5.5,0,0,1-.11.167L.22,7.441A.744.744,0,0,0,0,7.969V10.46a1.249,1.249,0,0,0,1.25,1.245Zm-8.7-7.066,1-2.49a.25.25,0,0,1,.232-.157h9.308a.25.25,0,0,1,.232.157l1,2.49a.25.25,0,0,1-.232.342H4.679a.251.251,0,0,1-.207-.11A.248.248,0,0,1,4.448,4.639Z"/><path d="M23.277,11.214a2,2,0,0,0-1.645-.424l-6,1.12A2,2,0,0,0,14,13.869v4.912a.25.25,0,0,1-.273.248c-.075-.006-.151-.01-.227-.01A2.491,2.491,0,1,0,16,21.51V14.075a.249.249,0,0,1,.2-.245L21.7,12.8a.252.252,0,0,1,.2.053.249.249,0,0,1,.091.192v3.741a.25.25,0,0,1-.273.248c-.075-.007-.151-.01-.227-.01a2.491,2.491,0,1,0,2.5,2.49V12.748A1.985,1.985,0,0,0,23.277,11.214Z"/></svg>