<svg xmlns="http://www.w3.org/2000/svg" viewBox="0 0 24 24"><title>car-repair-fire-1</title><path d="M22.474,6.43a.5.5,0,0,0-.932.044,1.829,1.829,0,0,1-.389.622.25.25,0,0,1-.434-.141c-.493-4.563-4.642-6.78-4.836-6.88a.5.5,0,0,0-.66.7A1.968,1.968,0,0,1,14.7,3.384a14.574,14.574,0,0,0-1.688,1.448.253.253,0,0,1-.182.074.249.249,0,0,1-.179-.08,6.5,6.5,0,0,0-2.392-1.437l-.066-.026a.53.53,0,0,0-.8.316.454.454,0,0,0,.186.481c.309.386.006,1.233-.15,1.553a7.315,7.315,0,0,0-.507,3.813.25.25,0,0,0,.246.206h4.05A3.005,3.005,0,0,1,16.2,12.36l.21,1.682a.25.25,0,0,0,.127.188,4.01,4.01,0,0,1,1.721,1.9.249.249,0,0,0,.325.13,7.222,7.222,0,0,0,3.857-3.324A8.261,8.261,0,0,0,22.474,6.43Z"/><path d="M15.672,15.209a.248.248,0,0,1-.151-.2l-.316-2.526a2,2,0,0,0-1.984-1.752H4.986A2,2,0,0,0,3,12.484L2.686,15.01a.247.247,0,0,1-.151.2A2.744,2.744,0,0,0,.854,17.732v1.25a1.752,1.752,0,0,0,1.75,1.75.25.25,0,0,1,.25.25v1.25a1.75,1.75,0,0,0,3.5,0v-1.25a.249.249,0,0,1,.25-.25h5.5a.25.25,0,0,1,.25.25v1.25a1.75,1.75,0,0,0,3.5,0V20.911a.25.25,0,0,1,.187-.242,1.745,1.745,0,0,0,1.313-1.687v-1.25A2.745,2.745,0,0,0,15.672,15.209ZM13.406,14.9a.247.247,0,0,1-.187.084H4.988A.248.248,0,0,1,4.8,14.9a.252.252,0,0,1-.061-.2l.219-1.75a.25.25,0,0,1,.248-.219H13a.25.25,0,0,1,.248.219l.219,1.75A.248.248,0,0,1,13.406,14.9Z"/></svg>