<svg xmlns="http://www.w3.org/2000/svg" viewBox="0 0 24 24"><title>car-sun</title><path d="M17,3.091a1,1,0,0,0,1-1V1a1,1,0,0,0-2,0V2.091A1,1,0,0,0,17,3.091Z"/><path d="M20.442,4.531a.993.993,0,0,0,.707-.293l.772-.771a1,1,0,0,0-1.414-1.414l-.772.771a1,1,0,0,0,.707,1.707Z"/><path d="M23,6H21.909a1,1,0,0,0,0,2H23a1,1,0,0,0,0-2Z"/><path d="M21.149,9.767a1,1,0,0,0-1.414,1.414l.772.771a1,1,0,0,0,1.414-1.414Z"/><path d="M18,13V11.909a1,1,0,1,0-2,0V13a1,1,0,0,0,2,0Z"/><path d="M12.021,10.538a1,1,0,1,0,1.414,1.414l.771-.771a1,1,0,0,0-1.414-1.414Z"/><path d="M11,8h1.091a1,1,0,1,0,0-2H11a1,1,0,0,0,0,2Z"/><path d="M12.792,4.238a1,1,0,0,0,1.414-1.414l-.771-.771a1,1,0,0,0-1.414,1.414Z"/><path d="M17,3.815a3.205,3.205,0,1,0,3.2,3.2A3.208,3.208,0,0,0,17,3.815Z"/><path d="M18.118,21.25a.484.484,0,0,1-.477-.4l-.362-2.183a7.046,7.046,0,0,0-6.97-5.913,7.416,7.416,0,0,0-6.824,4.5l-.206.482a.5.5,0,0,1-.408.3,3.206,3.206,0,0,0-2.162,1,3.467,3.467,0,0,0-.66,2.844,1,1,0,0,0,.992.871h.3a.5.5,0,0,1,.433.25A2,2,0,0,0,5.23,23a.5.5,0,0,1,.433-.25h6.175a.5.5,0,0,1,.433.25,2,2,0,0,0,3.577-.24.016.016,0,0,1,.015-.01h2.255a.75.75,0,0,0,0-1.5Zm-4.43-3.733a.5.5,0,0,1-.422.233H6.97a.5.5,0,0,1-.452-.714,3.977,3.977,0,0,1,7.2,0A.5.5,0,0,1,13.688,17.517Z"/></svg>