<svg xmlns="http://www.w3.org/2000/svg" viewBox="0 0 24 24"><title>car-truck-woods</title><path d="M1.019,8.677H2.25a.25.25,0,0,1,.25.25V9.75a1,1,0,0,0,2,0V8.927a.25.25,0,0,1,.25-.25H5.981c.464,0,.691-.674.366-1.063L5.4,6.158a.051.051,0,0,1,0-.059.05.05,0,0,1,.057-.015c.45.177.938-.543.518-1.042L4.738,3.159a.05.05,0,0,1,.06-.074c.47.183.956-.619.476-1.089L3.9.2A.5.5,0,0,0,3.1.2L1.726,2c-.48.47.006,1.272.476,1.089a.05.05,0,0,1,.06.074L1.023,5.042c-.419.5.068,1.219.518,1.042A.05.05,0,0,1,1.6,6.1a.051.051,0,0,1,0,.059L.653,7.614C.328,8,.555,8.677,1.019,8.677Z"/><path d="M18.019,8.677H19.25a.25.25,0,0,1,.25.25V9.75a1,1,0,0,0,2,0V8.927a.25.25,0,0,1,.25-.25h1.231c.464,0,.691-.674.366-1.063L22.4,6.158a.051.051,0,0,1,0-.059.05.05,0,0,1,.057-.015c.45.177.937-.543.518-1.042L21.738,3.159a.05.05,0,0,1,.06-.074c.47.183.956-.619.476-1.089L20.9.2A.5.5,0,0,0,20.1.2L18.726,2c-.48.47.006,1.272.476,1.089a.05.05,0,0,1,.06.074L18.023,5.042c-.42.5.068,1.219.518,1.042A.05.05,0,0,1,18.6,6.1a.051.051,0,0,1,0,.059l-.948,1.456C17.328,8,17.555,8.677,18.019,8.677Z"/><path d="M9.519,8.677H10.75a.25.25,0,0,1,.25.25V9.75a1,1,0,0,0,2,0V8.927a.25.25,0,0,1,.25-.25h1.231c.464,0,.691-.674.366-1.063L13.9,6.158a.051.051,0,0,1,0-.059.05.05,0,0,1,.057-.015c.45.177.937-.543.518-1.042L13.238,3.159a.05.05,0,0,1,.06-.074c.47.183.956-.619.476-1.089L12.4.2A.5.5,0,0,0,11.6.2L10.226,2c-.48.47.006,1.272.476,1.089a.05.05,0,0,1,.06.074L9.523,5.042c-.42.5.068,1.219.518,1.042A.05.05,0,0,1,10.1,6.1a.051.051,0,0,1,0,.059L9.153,7.614C8.828,8,9.055,8.677,9.519,8.677Z"/><path d="M23.25,22a.75.75,0,0,0,0-1.5H23a.5.5,0,0,1-.5-.5V18a1,1,0,0,0-1-1h-7a.25.25,0,0,1-.25-.25v-3a2,2,0,0,0-2-2H8.677A1.99,1.99,0,0,0,6.82,13.008L5.286,16.843A.25.25,0,0,1,5.054,17H2a2,2,0,0,0-2,2v2a1,1,0,0,0,1,1h.26a.25.25,0,0,0,.249-.231,3,3,0,0,1,5.982,0A.251.251,0,0,0,7.74,22h5.52a.25.25,0,0,0,.249-.231,3,3,0,0,1,5.982,0A.251.251,0,0,0,19.74,22Zm-11-5.5a.25.25,0,0,1-.25.25H7.846a.25.25,0,0,1-.232-.343l1-2.5a.25.25,0,0,1,.232-.157H12a.25.25,0,0,1,.25.25Z"/><circle cx="4.5" cy="22" r="2"/><circle cx="16.5" cy="22" r="2"/></svg>