<svg xmlns="http://www.w3.org/2000/svg" viewBox="0 0 24 24"><title>car-4</title><path d="M15.606,18.013a.252.252,0,0,0-.224-.138H8.618a.252.252,0,0,0-.224.138l-.625,1.25a.25.25,0,0,0,.224.362h8.014a.25.25,0,0,0,.224-.362Z"/><path d="M22.384,9.125H23a1,1,0,0,0,1-1v-1a1,1,0,0,0-1-1H22a1.506,1.506,0,0,0-1.2.6.153.153,0,0,1-.272-.062l-.476-2.378A3.007,3.007,0,0,0,17.11,1.875H6.89A3.007,3.007,0,0,0,3.948,4.286L3.472,6.664a.153.153,0,0,1-.272.062,1.506,1.506,0,0,0-1.2-.6H1a1,1,0,0,0-1,1v1a1,1,0,0,0,1,1h.616a.25.25,0,0,1,.152.449A4.46,4.46,0,0,0,0,13.125v5a1.5,1.5,0,0,0,.943,1.386.093.093,0,0,1,.058.1c0,.012,0-.08,0,1.016a1.5,1.5,0,0,0,1.5,1.5h2a1.506,1.506,0,0,0,1.5-1.5V19.507a.256.256,0,0,1,.026-.112l1.3-2.605A.749.749,0,0,1,8,16.375h8a.749.749,0,0,1,.671.415l1.3,2.605a.256.256,0,0,1,.026.112v1.118a1.506,1.506,0,0,0,1.5,1.5h2a1.5,1.5,0,0,0,1.5-1.5V19.609a.093.093,0,0,1,.058-.1A1.5,1.5,0,0,0,24,18.125v-5a4.46,4.46,0,0,0-1.768-3.551.25.25,0,0,1,.152-.449Zm-18.041,4.9a.25.25,0,0,1-.2.1H3.5a2,2,0,0,1-1.98-1.714.252.252,0,0,1,.248-.286H3.774a.25.25,0,0,1,.243.19l.371,1.5A.249.249,0,0,1,4.343,14.029Zm13.55-1.594-.45,1.817a.248.248,0,0,1-.182.182l-.522.131a1.99,1.99,0,0,1-.486.06H7.324a1.985,1.985,0,0,1-.631-.1.145.145,0,0,1-.094-.1l-.492-1.987a.25.25,0,0,1,.243-.31h11.3a.25.25,0,0,1,.243.31Zm.876-3.9a.254.254,0,0,1-.194.091H5.425a.25.25,0,0,1-.246-.3l.73-3.647a1,1,0,0,1,.981-.8H17.11a1,1,0,0,1,.981.8l.73,3.647A.256.256,0,0,1,18.769,8.534Zm3.463,3.591a.248.248,0,0,1,.189.086.251.251,0,0,1,.059.2,2,2,0,0,1-1.98,1.714h-.646a.249.249,0,0,1-.242-.31l.371-1.5a.25.25,0,0,1,.243-.19Z"/></svg>