<svg xmlns="http://www.w3.org/2000/svg" viewBox="0 0 24 24"><title>car-3</title><path d="M22.936,9.625H23a1,1,0,0,0,1-1v-1a1,1,0,0,0-1-1H21.65a1.508,1.508,0,0,0-1.2.6.095.095,0,0,1-.168-.038l-.48-2.4A3.007,3.007,0,0,0,16.86,2.375H7.14A3.007,3.007,0,0,0,4.2,4.786l-.48,2.4a.095.095,0,0,1-.168.038,1.508,1.508,0,0,0-1.2-.6H1a1,1,0,0,0-1,1v1a1,1,0,0,0,1,1h.064a.25.25,0,0,1,.181.423A4.438,4.438,0,0,0,0,13.125v4a1.5,1.5,0,0,0,.857,1.349A.25.25,0,0,1,1,18.7v1.425a1.5,1.5,0,0,0,1.5,1.5h2a1.5,1.5,0,0,0,1.5-1.5v-1.25a.25.25,0,0,1,.25-.25h11.5a.25.25,0,0,1,.25.25v1.25a1.5,1.5,0,0,0,1.5,1.5h2a1.5,1.5,0,0,0,1.5-1.5V18.7a.25.25,0,0,1,.143-.226A1.5,1.5,0,0,0,24,17.125v-4a4.438,4.438,0,0,0-1.245-3.077.25.25,0,0,1,.181-.423Zm-19.686,8H1.5a.5.5,0,0,1-.5-.5v-.5a.5.5,0,0,1,.5-.5H3.25a.75.75,0,0,1,0,1.5Zm2.122-4.1a.248.248,0,0,1-.2.1H4a2,2,0,0,1-1.98-1.714.252.252,0,0,1,.248-.286H4.5a.675.675,0,0,1,.621.485l.3,1.2A.248.248,0,0,1,5.372,13.529Zm10.6-.246-.544,1.633a2.5,2.5,0,0,1-2.372,1.709H10.941A2.5,2.5,0,0,1,8.57,14.916l-.545-1.633a.5.5,0,0,1,.475-.658h7a.5.5,0,0,1,.475.658Zm2.444-4.749a.254.254,0,0,1-.194.091H5.775a.254.254,0,0,1-.194-.091.252.252,0,0,1-.051-.208l.629-3.147a1,1,0,0,1,.981-.8h9.72a1,1,0,0,1,.981.8l.63,3.147A.256.256,0,0,1,18.419,8.534Zm.406,5.091a.251.251,0,0,1-.243-.311l.3-1.2a.675.675,0,0,1,.621-.485h2.228a.248.248,0,0,1,.189.086.251.251,0,0,1,.059.2A2,2,0,0,1,20,13.625Zm4.175,3v.5a.5.5,0,0,1-.5.5H20.75a.75.75,0,0,1,0-1.5H22.5A.5.5,0,0,1,23,16.625Z"/></svg>