<svg xmlns="http://www.w3.org/2000/svg" viewBox="0 0 24 24"><title>car-dashboard-gear</title><path d="M21.25.25A2.746,2.746,0,0,0,20.1,5.493a.251.251,0,0,1,.146.227v5.03A.25.25,0,0,1,20,11H14.97a.251.251,0,0,1-.227-.145A2.756,2.756,0,0,0,13.4,9.507a.251.251,0,0,1-.146-.227V5.72a.251.251,0,0,1,.146-.227A2.746,2.746,0,1,0,9.757,1.854.251.251,0,0,1,9.53,2H5.47a.251.251,0,0,1-.227-.146,2.75,2.75,0,1,0,0,2.292A.251.251,0,0,1,5.47,4H9.53a.251.251,0,0,1,.227.145A2.756,2.756,0,0,0,11.1,5.493a.251.251,0,0,1,.146.227V9.28a.251.251,0,0,1-.146.227,2.739,2.739,0,0,0,0,4.986.251.251,0,0,1,.146.227V18.3a.217.217,0,0,1-.129.2,2.753,2.753,0,0,0-1.364,1.356A.251.251,0,0,1,9.53,20H5.47a.251.251,0,0,1-.227-.146,2.75,2.75,0,1,0,0,2.292A.251.251,0,0,1,5.47,22H9.53a.251.251,0,0,1,.227.146A2.746,2.746,0,1,0,13.4,18.507a.251.251,0,0,1-.146-.227V14.7a.217.217,0,0,1,.129-.2,2.753,2.753,0,0,0,1.364-1.356A.251.251,0,0,1,14.97,13h5.28a2,2,0,0,0,2-2V5.72a.251.251,0,0,1,.146-.227A2.746,2.746,0,0,0,21.25.25Z"/></svg>