<svg xmlns="http://www.w3.org/2000/svg" viewBox="0 0 24 24"><title>car-actions-search</title><path d="M5.2,12.621H1.237a.247.247,0,0,0-.247.247v.495A1.239,1.239,0,0,0,2.227,14.6h1.98a1.239,1.239,0,0,0,1.237-1.237v-.495A.247.247,0,0,0,5.2,12.621Z"/><path d="M11.36,11.63A6.726,6.726,0,0,1,16.27,9.5a7.219,7.219,0,0,1,4,.93.052.052,0,0,0,.02-.04V8.12a1.243,1.243,0,0,0-.36-.87L18.86,6.17a.355.355,0,0,1-.11-.16L16.72.93A1.491,1.491,0,0,0,15.34,0H5.12A1.491,1.491,0,0,0,3.74.93L1.82,5.74a.572.572,0,0,1-.11.16L.22,7.39A.749.749,0,0,0,0,7.92v2.47a1.233,1.233,0,0,0,1.24,1.24ZM4.4,4.61l.99-2.47a.247.247,0,0,1,.23-.16h9.21a.229.229,0,0,1,.23.16l.99,2.47a.236.236,0,0,1-.02.23.248.248,0,0,1-.21.11H4.63a.231.231,0,0,1-.2-.11A.238.238,0,0,1,4.4,4.61Z"/><path d="M23.707,22.293l-2.534-2.534a.25.25,0,0,1-.034-.311,5.509,5.509,0,1,0-1.691,1.691.25.25,0,0,1,.311.034l2.534,2.534a1,1,0,0,0,1.414-1.414ZM16.5,20A3.5,3.5,0,1,1,20,16.5,3.5,3.5,0,0,1,16.5,20Z"/></svg>