<svg xmlns="http://www.w3.org/2000/svg" viewBox="0 0 24 24"><title>car-garage-2</title><path d="M6.5,22h-3a.5.5,0,0,0-.5.5V23a1,1,0,0,0,1,1H6a1,1,0,0,0,1-1v-.5A.5.5,0,0,0,6.5,22Z"/><path d="M20.5,22h-3a.5.5,0,0,0-.5.5V23a1,1,0,0,0,1,1h2a1,1,0,0,0,1-1v-.5A.5.5,0,0,0,20.5,22Z"/><path d="M22,17.958a1.24,1.24,0,0,0-.366-.884L20.41,15.852a.5.5,0,0,1-.111-.168l-2-4.989a1.491,1.491,0,0,0-1.392-.943H7.089A1.491,1.491,0,0,0,5.7,10.7l-2,4.989a.5.5,0,0,1-.111.168L2.368,17.074A1.24,1.24,0,0,0,2,17.958v1.793A1.25,1.25,0,0,0,3.251,21h17.5A1.25,1.25,0,0,0,22,19.751ZM6.966,14.752a.5.5,0,0,1-.464-.686l.8-2a.5.5,0,0,1,.464-.314h8.468a.5.5,0,0,1,.464.314l.8,2a.5.5,0,0,1-.464.686Z"/><path d="M23.736,11.365a1,1,0,0,0-.064-1.412L13.348.527a1.987,1.987,0,0,0-2.7,0L.328,9.953A1,1,0,0,0,1.676,11.43l9.987-9.119a.5.5,0,0,1,.674,0l9.987,9.119a1,1,0,0,0,1.412-.065Z"/></svg>