<svg xmlns="http://www.w3.org/2000/svg" viewBox="0 0 24 24"><title>car-smart</title><circle cx="5.75" cy="17.375" r="2"/><path d="M23.385,15.471a.218.218,0,0,1-.135-.2V11.625a4.611,4.611,0,0,0-.657-2.372L21.243,7a.252.252,0,0,1,0-.252.249.249,0,0,1,.218-.127h.292a1,1,0,0,0,0-2H13.962a6.012,6.012,0,0,0-4.44,1.964l-3.14,3.454a.249.249,0,0,1-.185.082H3.537a3,3,0,0,0-2.9,2.227l-.6,2.265A.978.978,0,0,0,0,14.875a2.752,2.752,0,0,0,2.75,2.75.021.021,0,0,0,.017-.008.023.023,0,0,0,.006-.018,2.047,2.047,0,0,1-.023-.224,3,3,0,0,1,6,0,.249.249,0,0,0,.25.25h6.25a.25.25,0,0,0,.25-.25,3,3,0,0,1,6,0,.249.249,0,0,0,.25.25h.5a.97.97,0,0,0,.582-.2.243.243,0,0,1,.149-.05H23a1,1,0,0,0,1-1A.981.981,0,0,0,23.385,15.471ZM3.75,13.375H2.25a.5.5,0,0,1-.5-.5,1.5,1.5,0,0,1,1.5-1.5h1.5a.5.5,0,0,1,.5.5A1.5,1.5,0,0,1,3.75,13.375Zm12-4.25a1,1,0,0,1-1,1H9.576a.25.25,0,0,1-.185-.418L11,7.935a4.008,4.008,0,0,1,2.96-1.31H15.5a.25.25,0,0,1,.25.25Z"/><circle cx="18.5" cy="17.375" r="2"/></svg>