<svg xmlns="http://www.w3.org/2000/svg" viewBox="0 0 24 24"><title>car-dashboard-window-rear</title><path d="M23.461,4.466C15.505.33,8.435.33.536,4.467A1,1,0,0,0,.028,5.586l3,12.5a1,1,0,0,0,1.553.581q.786-.561,1.542-1.01a.25.25,0,0,1,.377.215v3.763a1,1,0,0,0,2,0V11.853a.25.25,0,0,1,.25-.25H10a.749.749,0,0,0,.592-1.21l-2.5-3.217a.776.776,0,0,0-1.184,0l-2.5,3.217A.749.749,0,0,0,5,11.6H6.25a.25.25,0,0,1,.25.25v3.181a.252.252,0,0,1-.14.225q-.71.348-1.431.785a.249.249,0,0,1-.225.016.245.245,0,0,1-.147-.172L2.2,6.081A.251.251,0,0,1,2.336,5.8c6.7-3.264,12.579-3.263,19.326,0a.248.248,0,0,1,.134.283L19.44,15.9a.251.251,0,0,1-.371.156l-.194-.113a.25.25,0,0,0-.375.216V17.92a.249.249,0,0,0,.115.21c.268.172.538.352.812.543a1,1,0,0,0,.573.18.982.982,0,0,0,.354-.065,1,1,0,0,0,.618-.7l3-12.5A1,1,0,0,0,23.461,4.466Z"/><path d="M19.674,11.183a.751.751,0,0,0-.082-.79l-2.5-3.217a.776.776,0,0,0-1.184,0l-2.5,3.217A.749.749,0,0,0,14,11.6h1.25a.25.25,0,0,1,.25.25v2.232a.25.25,0,0,1-.319.24,11.609,11.609,0,0,0-3.224-.471,11.137,11.137,0,0,0-2.258.239.25.25,0,0,0-.2.245v1.525a.25.25,0,0,0,.308.244,9.408,9.408,0,0,1,5.526.358.249.249,0,0,1,.166.235v4.936a1,1,0,0,0,2,0V11.853a.25.25,0,0,1,.25-.25H19A.75.75,0,0,0,19.674,11.183Z"/></svg>