<svg xmlns="http://www.w3.org/2000/svg" viewBox="0 0 24 24"><title>car-voyage-1</title><rect x="5" y="0.5" width="5" height="7" rx="1.5" ry="1.5"/><path d="M12.5,7.5h1.25a.5.5,0,0,0,.5-.5V3a.5.5,0,0,0-.5-.5H12.5A1.5,1.5,0,0,0,11,4V6A1.5,1.5,0,0,0,12.5,7.5Z"/><path d="M16.25,7.5H17.5A1.5,1.5,0,0,0,19,6V4a1.5,1.5,0,0,0-1.5-1.5H16.25a.5.5,0,0,0-.5.5V7A.5.5,0,0,0,16.25,7.5Z"/><path d="M21.4,14.8l-1.212-.909-.009-.012L18.43,9.508A1.99,1.99,0,0,0,16.573,8.25H7.427A1.99,1.99,0,0,0,5.57,9.508L3.821,13.879l-.009.012L2.6,14.8A1.506,1.506,0,0,0,2,16v3a1,1,0,0,0,.667.943A.5.5,0,0,1,3,20.414V22.5a1,1,0,0,0,1,1H6a1,1,0,0,0,1-1v-2a.5.5,0,0,1,.5-.5h9a.5.5,0,0,1,.5.5v2a1,1,0,0,0,1,1h2a1,1,0,0,0,1-1V20.414a.5.5,0,0,1,.333-.471A1,1,0,0,0,22,19V16A1.506,1.506,0,0,0,21.4,14.8Zm-3.951-1.77a.5.5,0,0,1-.415.22H6.966a.5.5,0,0,1-.465-.686l.8-2a.5.5,0,0,1,.464-.314h8.469a.5.5,0,0,1,.464.314l.8,2A.5.5,0,0,1,17.449,13.03Z"/></svg>