<svg xmlns="http://www.w3.org/2000/svg" viewBox="0 0 24 24"><title>car-repair-bottom</title><path d="M15.9,19.885l-.409-.235a.25.25,0,0,1-.121-.262,3.529,3.529,0,0,0,.057-.638,3.4,3.4,0,0,0-.065-.658.218.218,0,0,1,.106-.231l.423-.245a.5.5,0,0,0,.183-.683l-.5-.859a.5.5,0,0,0-.69-.179l-.365.219a.252.252,0,0,1-.292-.025,3.582,3.582,0,0,0-1.071-.636A.251.251,0,0,1,13,15.219V14.75a.5.5,0,0,0-.5-.5h-1a.5.5,0,0,0-.5.5v.469a.249.249,0,0,1-.165.234,3.942,3.942,0,0,0-1.144.642.249.249,0,0,1-.283.026l-.429-.243a.5.5,0,0,0-.679.183l-.508.872a.5.5,0,0,0-.051.38.5.5,0,0,0,.233.3l.419.243a.219.219,0,0,1,.1.232,3.4,3.4,0,0,0-.066.658,3.529,3.529,0,0,0,.059.638.248.248,0,0,1-.12.262l-.406.234a.5.5,0,0,0-.183.683l.5.872a.5.5,0,0,0,.677.187l.445-.248a.251.251,0,0,1,.283.026,3.917,3.917,0,0,0,1.145.644.248.248,0,0,1,.165.234v.468a.5.5,0,0,0,.5.5h1a.5.5,0,0,0,.5-.5v-.468a.251.251,0,0,1,.162-.235,3.574,3.574,0,0,0,1.073-.637.25.25,0,0,1,.29-.026l.382.225a.5.5,0,0,0,.688-.182l.492-.86A.5.5,0,0,0,15.9,19.885ZM12,20.25a1.5,1.5,0,1,1,1.5-1.5A1.5,1.5,0,0,1,12,20.25Z"/><path d="M23,22h-.25a.25.25,0,0,1-.25-.25V5a1,1,0,0,0-2,0v5.75a.25.25,0,0,1-.25.25h-2a.25.25,0,0,1-.25-.25V9.729a.249.249,0,0,1,.208-.246A1.253,1.253,0,0,0,19.25,8.25V6.707a1.284,1.284,0,0,0-.406-.921L17.618,4.725a.5.5,0,0,1-.156-.248l-.9-3.352A1.5,1.5,0,0,0,15.109,0H8.891A1.494,1.494,0,0,0,7.439,1.12l-.9,3.358a.5.5,0,0,1-.156.248l-1.266,1.1a1.258,1.258,0,0,0-.366.884V8.25A1.253,1.253,0,0,0,5.792,9.483.249.249,0,0,1,6,9.729V10.75a.25.25,0,0,1-.25.25h-2a.25.25,0,0,1-.25-.25V5a1,1,0,0,0-2,0V21.75a.25.25,0,0,1-.25.25H1a1,1,0,0,0,0,2H4a1,1,0,0,0,0-2H3.75a.25.25,0,0,1-.25-.25v-8.5A.25.25,0,0,1,3.75,13h16.5a.25.25,0,0,1,.25.25v8.5a.25.25,0,0,1-.25.25H20a1,1,0,0,0,0,2h3a1,1,0,0,0,0-2ZM15,10.75a.25.25,0,0,1-.25.25H9.25A.25.25,0,0,1,9,10.75v-1a.25.25,0,0,1,.25-.25h5.5a.25.25,0,0,1,.25.25Zm.068-7.1a.248.248,0,0,1-.2.1H9.13a.25.25,0,0,1-.242-.315l.336-1.25A.251.251,0,0,1,9.466,2h5.068a.251.251,0,0,1,.242.185l.335,1.25A.252.252,0,0,1,15.068,3.652Z"/></svg>