<svg xmlns="http://www.w3.org/2000/svg" viewBox="0 0 24 24"><title>car-voyage</title><path d="M7,2.5h.775a.5.5,0,0,1,.433.25A1.493,1.493,0,0,0,9.5,3.5h6A1.5,1.5,0,0,0,17,2V1.5A1.5,1.5,0,0,0,15.5,0h-6A1.493,1.493,0,0,0,8.208.75.5.5,0,0,1,7.775,1H7A.75.75,0,0,0,7,2.5Z"/><path d="M22.125,13.281a1,1,0,1,0-1.25-1.562l-.395.315a.5.5,0,0,1-.809-.336l-.021-.191V11.5A3.018,3.018,0,0,0,16.66,8.75H7.34a3.011,3.011,0,0,0-2.986,2.719v.012l-.024.217a.5.5,0,0,1-.809.336l-.395-.315a1,1,0,1,0-1.25,1.562l.853.683a.5.5,0,0,1,.035.751A2.471,2.471,0,0,0,2,16.5v2A1.5,1.5,0,0,0,3.5,20h17A1.5,1.5,0,0,0,22,18.5v-2a2.471,2.471,0,0,0-.763-1.785.5.5,0,0,1,.035-.751ZM6.344,11.673v-.011a.991.991,0,0,1,1-.912h9.32a1,1,0,0,1,1,.94V11.7l.164,1.5a.5.5,0,0,1-.5.554H6.673a.5.5,0,0,1-.5-.555ZM5.5,18.5A1.5,1.5,0,1,1,7,17,1.5,1.5,0,0,1,5.5,18.5Zm13,0A1.5,1.5,0,1,1,20,17,1.5,1.5,0,0,1,18.5,18.5Z"/><path d="M7.5,21h-3a.5.5,0,0,0-.5.5V22a2,2,0,0,0,4,0v-.5A.5.5,0,0,0,7.5,21Z"/><path d="M19.5,21h-3a.5.5,0,0,0-.5.5V22a2,2,0,0,0,4,0v-.5A.5.5,0,0,0,19.5,21Z"/><rect x="10" y="4.5" width="4" height="3.5" rx="0.5" ry="0.5"/><path d="M7,6v.5A1.5,1.5,0,0,0,8.5,8,.5.5,0,0,0,9,7.5V5a.5.5,0,0,0-.5-.5A1.5,1.5,0,0,0,7,6Z"/><path d="M15.5,4.5A.5.5,0,0,0,15,5V7.5a.5.5,0,0,0,.5.5A1.5,1.5,0,0,0,17,6.5V6A1.5,1.5,0,0,0,15.5,4.5Z"/></svg>