<svg xmlns="http://www.w3.org/2000/svg" viewBox="0 0 24 24"><title>car-key-1</title><path d="M9.5,9a4.482,4.482,0,0,0,4.032-2.5H19.5a.5.5,0,0,0,.354-.146l1.5-1.5a.5.5,0,0,0,0-.708l-1.5-1.5A.5.5,0,0,0,19.5,2.5H13.532A4.5,4.5,0,1,0,9.5,9Zm0-6.5a2,2,0,1,1-2,2A2,2,0,0,1,9.5,2.5Z"/><path d="M18.889,16a1.278,1.278,0,0,1-1.2-.786l-.742-1.856A3.751,3.751,0,0,0,13.469,11H9.14a2.5,2.5,0,0,0-2.452,2.011l-.356,1.783A1.5,1.5,0,0,1,4.861,16H3.5A2.5,2.5,0,0,0,1,18.5v2a1.5,1.5,0,0,0,1.214,1.473.252.252,0,0,0,.2-.047.242.242,0,0,0,.1-.178,3,3,0,0,1,5.98.01A.259.259,0,0,0,8.74,22h6.52a.259.259,0,0,0,.25-.242A3,3,0,0,1,18.5,19a3.059,3.059,0,0,1,3.009,2.734.251.251,0,0,0,.3.234A1.5,1.5,0,0,0,23,20.5v-.354A4.151,4.151,0,0,0,18.889,16Zm-2.605-.073a.167.167,0,0,1-.139.073H13.5A1.5,1.5,0,0,1,12,14.5V13a.5.5,0,0,1,.5-.5h.969a2.239,2.239,0,0,1,2.089,1.414l.743,1.857A.17.17,0,0,1,16.284,15.927Z"/><circle cx="5.5" cy="22" r="2"/><circle cx="18.5" cy="22" r="2"/></svg>