<svg xmlns="http://www.w3.org/2000/svg" viewBox="0 0 24 24"><title>car-dashboard-fuel</title><path d="M22.405,13.031a.75.75,0,0,0,0-1.061l-1.491-1.491a.752.752,0,0,0-.7-.212l-4.172.835a.249.249,0,0,1-.281-.152l-.331-.826A2.173,2.173,0,0,0,13.405,8.75h-1.78a.249.249,0,0,1-.25-.25V7.75a.25.25,0,0,1,.25-.25h.75a1,1,0,0,0,0-2h-4a1,1,0,0,0,0,2h.75a.25.25,0,0,1,.25.25V8.5a.249.249,0,0,1-.25.25H5.052a1.429,1.429,0,0,0-1.427,1.428v3.669a2.406,2.406,0,0,0,2.4,2.4h8.066A4.087,4.087,0,0,0,16.83,15.2l3.341-3.009a.25.25,0,0,1,.344.009l.83.83A.749.749,0,0,0,22.405,13.031Z"/><path d="M3.582,5.793a1,1,0,0,0-1.414,0L.418,7.543A1,1,0,0,0,1.832,8.958l1.75-1.75A1,1,0,0,0,3.582,5.793Z"/><path d="M22.739,14.658a.5.5,0,0,0-.364-.158.405.405,0,0,0-.371.165A4.288,4.288,0,0,0,20.875,17a1.556,1.556,0,0,0,1.531,1.5A1.513,1.513,0,0,0,23.875,17,4.117,4.117,0,0,0,22.739,14.658Z"/></svg>