<svg xmlns="http://www.w3.org/2000/svg" viewBox="0 0 24 24"><title>car-actions-shield-1</title><path d="M15.406,9.643a.25.25,0,0,0,.2-.341A1.5,1.5,0,1,1,18.5,8.75a1.462,1.462,0,0,1-.078.47.25.25,0,0,0,.218.33c.611.047,1.207.126,1.771.225a.254.254,0,0,0,.2-.055.25.25,0,0,0,.089-.192V8a2.738,2.738,0,0,0-1-2.115.253.253,0,0,1-.091-.195.249.249,0,0,1,.094-.193l.895-.716a1,1,0,0,0-1.249-1.562l-.725.58a.25.25,0,0,1-.405-.168l-.1-.88A3.018,3.018,0,0,0,15.137,0H5.817A3.011,3.011,0,0,0,2.83,2.725l-.1.889a.25.25,0,0,1-.405.168l-.7-.563A1,1,0,1,0,.376,4.781l.884.707a.25.25,0,0,1,0,.389A2.738,2.738,0,0,0,.25,8v2.25A1.752,1.752,0,0,0,2,12H9.735a.252.252,0,0,0,.214-.12,3.025,3.025,0,0,1,1.381-1.215A16.522,16.522,0,0,1,15.406,9.643ZM4,10.25a1.5,1.5,0,1,1,1.5-1.5A1.5,1.5,0,0,1,4,10.25ZM4.872,5a.249.249,0,0,1-.186-.083.252.252,0,0,1-.063-.194l.2-1.806a1.006,1.006,0,0,1,1-.917h9.32a1.013,1.013,0,0,1,1,.943l.2,1.78A.249.249,0,0,1,16.083,5Z"/><path d="M6.5,13h-4a.25.25,0,0,0-.25.25v.25a2.25,2.25,0,0,0,4.5,0v-.25A.25.25,0,0,0,6.5,13Z"/><path d="M23.072,12.041A16.365,16.365,0,0,0,17.478,11a15.986,15.986,0,0,0-5.55,1.04A1.544,1.544,0,0,0,11,13.456v3.393a7.716,7.716,0,0,0,5.19,6.805l.553.211a2.068,2.068,0,0,0,1.47,0l.554-.211C21.848,22.48,24,19.682,24,16.849V13.456A1.541,1.541,0,0,0,23.072,12.041ZM21,18H18.75a.25.25,0,0,0-.25.25V20.5a1,1,0,0,1-2,0V18.25a.25.25,0,0,0-.25-.25H14a1,1,0,0,1,0-2h2.25a.25.25,0,0,0,.25-.25V13.5a1,1,0,0,1,2,0v2.25a.25.25,0,0,0,.25.25H21a1,1,0,0,1,0,2Z"/></svg>