<svg xmlns="http://www.w3.org/2000/svg" viewBox="0 0 24 24"><title>car-retro-luggage</title><rect x="6.996" y="0.5" width="5" height="7" rx="1.5" ry="1.5"/><path d="M14.5,7.5h1.258a.5.5,0,0,0,.5-.5V3a.5.5,0,0,0-.5-.5H14.5A1.5,1.5,0,0,0,13,4V6A1.5,1.5,0,0,0,14.5,7.5Z"/><path d="M18.254,7.5H19.5A1.5,1.5,0,0,0,21,6V4a1.5,1.5,0,0,0-1.5-1.5H18.254a.5.5,0,0,0-.5.5V7A.5.5,0,0,0,18.254,7.5Z"/><path d="M23.246,20a.482.482,0,0,1-.476-.4l-.558-3.351A9.228,9.228,0,0,0,13.084,8.5a9.723,9.723,0,0,0-8.946,5.9l-.358.838a.5.5,0,0,1-.4.3C1.241,15.794.106,17.45,0,20.469A1,1,0,0,0,1,21.5h.082a.437.437,0,0,0,.434-.382,3,3,0,0,1,5.946-.046.5.5,0,0,0,.5.428h7.071a.5.5,0,0,0,.495-.428,3,3,0,0,1,5.939,0,.5.5,0,0,0,.495.428h1.285a.75.75,0,0,0,0-1.5ZM11.5,14.5a.5.5,0,0,1-.5.5H7.36a.5.5,0,0,1-.415-.779,8.076,8.076,0,0,1,3.894-3.05.5.5,0,0,1,.657.475Zm7.091.241A.5.5,0,0,1,18.15,15H14a.5.5,0,0,1-.5-.5V11.532a.5.5,0,0,1,.564-.5,6.686,6.686,0,0,1,4.512,3.2A.5.5,0,0,1,18.587,14.741Z"/><circle cx="4.496" cy="21.5" r="2"/><circle cx="18.496" cy="21.5" r="2"/></svg>