<svg xmlns="http://www.w3.org/2000/svg" viewBox="0 0 24 24"><title>car-sports</title><path d="M19.75,9.25c-.293,0-.584-.005-.867-.01-.249,0-.491-.008-.727-.009a.249.249,0,0,1-.223-.361l.462-.923a1,1,0,1,0-1.79-.894L15.2,9.867c-.05.1-.027.383-.639.383H10.98a.249.249,0,0,1-.214-.121A1.673,1.673,0,0,0,10.6,9.9a.252.252,0,0,1,.012-.342l1.85-1.85a1,1,0,1,0-1.414-1.414L8.159,9.177a.249.249,0,0,1-.177.073H4.75A4.756,4.756,0,0,0,0,14v1.5a1.252,1.252,0,0,0,1.25,1.25h1.3a.25.25,0,0,0,.247-.293A2.651,2.651,0,0,1,2.75,16a3,3,0,0,1,6,0,2.651,2.651,0,0,1-.042.457.249.249,0,0,0,.055.2.253.253,0,0,0,.192.089h6.59a.25.25,0,0,0,.247-.293A2.651,2.651,0,0,1,15.75,16a3,3,0,0,1,6,0,2.651,2.651,0,0,1-.042.457.249.249,0,0,0,.055.2.253.253,0,0,0,.192.089h.8A1.252,1.252,0,0,0,24,15.5V14C24,10.074,21.689,9.25,19.75,9.25Z"/><path d="M5.75,14a2,2,0,1,0,2,2A2,2,0,0,0,5.75,14Z"/><path d="M18.75,14a2,2,0,1,0,2,2A2,2,0,0,0,18.75,14Z"/></svg>