<svg xmlns="http://www.w3.org/2000/svg" viewBox="0 0 24 24"><title>car-repair-tow-truck-2</title><path d="M22.3,14.2h0l-1.43-.572a.246.246,0,0,1-.13-.12l-1.511-3.022a1.989,1.989,0,0,0-1.789-1.105H14.557a2,2,0,0,0-2,2v4.75a.25.25,0,0,1-.25.25h-2a.25.25,0,0,1-.25-.25v-4.75a.5.5,0,0,0-.147-.354l-3-3a.5.5,0,0,0-.353-.146H6.446a.25.25,0,0,1-.069-.491L19.868,3.567a.25.25,0,0,1,.318.241v1.02a1,1,0,0,0,1,1,.757.757,0,1,1-.537,1.292,1,1,0,0,0-1.412,1.416,2.757,2.757,0,1,0,3.1-4.459.25.25,0,0,1-.146-.227V3.1a.251.251,0,0,1,.182-.241l1.188-.336a.5.5,0,0,0,.168-.878L22.138.427A1.608,1.608,0,0,0,20.819.173L2.773,5.291A1.5,1.5,0,0,0,1.732,7.139L2,8.1a2.087,2.087,0,0,1,.056.274v3.25a.25.25,0,0,1-.25.25h-.75a1,1,0,0,0-1,1v6.5a1.985,1.985,0,0,0,.8,1.592.25.25,0,0,0,.385-.115,2.99,2.99,0,0,1,5.118-.891.251.251,0,0,0,.385,0,2.992,2.992,0,0,1,5.219,1.221.249.249,0,0,0,.243.193H14.4a.249.249,0,0,0,.243-.193,2.99,2.99,0,0,1,5.822,0,.249.249,0,0,0,.243.193h.846a2,2,0,0,0,2-2V16.052A1.99,1.99,0,0,0,22.3,14.2ZM6.557,11.876h-2a.5.5,0,0,1,0-1h2a.5.5,0,0,1,0,1Zm11.69,1.38a.249.249,0,0,1-.213.118H14.807a.25.25,0,0,1-.25-.25v-1.5a.25.25,0,0,1,.25-.25h2.477a.249.249,0,0,1,.224.138l.75,1.5A.253.253,0,0,1,18.247,13.256Z"/><circle cx="4.057" cy="21.876" r="2"/><circle cx="9.057" cy="21.876" r="2"/><circle cx="17.557" cy="21.876" r="2"/></svg>