<svg xmlns="http://www.w3.org/2000/svg" viewBox="0 0 24 24"><title>car-dashboard-gear-automatic</title><path d="M14.312,21.25h-2.25a.25.25,0,0,1-.25-.25V15.25a1.5,1.5,0,0,0-1.5-1.5H6.562a.25.25,0,0,1-.25-.25V6.738a.251.251,0,0,1,.154-.231,3,3,0,1,0-2.307,0,.25.25,0,0,1,.153.231V14.25a1.5,1.5,0,0,0,1.5,1.5h3.75a.249.249,0,0,1,.25.25v5.75a1.5,1.5,0,0,0,1.5,1.5h3a1,1,0,0,0,0-2Z"/><path d="M17.312,8.125a.875.875,0,0,0,.875-.875V5.875a.25.25,0,0,1,.25-.25h1.125a2.125,2.125,0,0,0,0-4.25h-2.25a.875.875,0,0,0-.875.875v5A.875.875,0,0,0,17.312,8.125Zm.875-4.75a.25.25,0,0,1,.25-.25h1.125a.375.375,0,0,1,0,.75H18.437a.25.25,0,0,1-.25-.25Z"/><path d="M18.312,16.375h-1a.875.875,0,0,0-.875.875v5a.875.875,0,0,0,.875.875h1a3.375,3.375,0,0,0,0-6.75Zm0,5a.125.125,0,0,1-.125-.125v-3a.125.125,0,0,1,.125-.125,1.625,1.625,0,0,1,0,3.25Z"/><path d="M17.312,15.625a.875.875,0,0,0,.875-.875v-.938a.251.251,0,0,1,.465-.129l.91,1.517a.876.876,0,0,0,.75.425.852.852,0,0,0,.234-.032.875.875,0,0,0,.641-.843v-5a.875.875,0,0,0-1.75,0v.938a.25.25,0,0,1-.464.129L18.063,9.3a.875.875,0,0,0-1.626.45v5A.875.875,0,0,0,17.312,15.625Z"/></svg>