<svg xmlns="http://www.w3.org/2000/svg" viewBox="0 0 24 24"><title>car-repair-tire</title><path d="M22.789,13.008l-2.151-2.056L19.051,7.44a2.532,2.532,0,0,0-2.1-1.482l-5.723-.476a2.524,2.524,0,0,0-2.138.883L6,9.645,2.335,10.693a2.583,2.583,0,0,0-.184,5.012.249.249,0,0,0,.306-.158,2.984,2.984,0,0,1,5.75.375.248.248,0,0,0,.231.2l5.537.3a.253.253,0,0,0,.214-.1,1.98,1.98,0,0,1,1.6-.789.249.249,0,0,0,.219-.154,3,3,0,0,1,5.541,0,.253.253,0,0,0,.221.154,1.976,1.976,0,0,1,1.317.492.25.25,0,0,0,.392-.077,2.341,2.341,0,0,0,.229-.828A2.379,2.379,0,0,0,22.789,13.008ZM15.9,8.881l-.165,1.993a1,1,0,0,1-1,.918.763.763,0,0,1-.082,0l-5.482-.455a.5.5,0,0,1-.35-.809l1.882-2.372a1.579,1.579,0,0,1,1.368-.592l2.912.241a1,1,0,0,1,.914,1.08Z"/><circle cx="5.281" cy="16.526" r="2"/><path d="M21.781,16.526H21.61a1,1,0,0,1-.943-.667,2,2,0,0,0-3.772,0,1,1,0,0,1-.943.667h-.171a1,1,0,0,0,0,2h6a1,1,0,0,0,0-2Z"/></svg>