<svg xmlns="http://www.w3.org/2000/svg" viewBox="0 0 24 24"><title>car-wagon</title><path d="M23.493,9.38l-.91-1.456a4.331,4.331,0,0,0-3.7-2.049H11.3A2.994,2.994,0,0,0,8.8,7.211L7.1,9.764a.253.253,0,0,1-.208.111H2.575a2.588,2.588,0,0,0-2.295,1.4.251.251,0,0,0,.222.366H2.73a.5.5,0,1,1,0,1H.27a.249.249,0,0,0-.246.293A2.575,2.575,0,0,0,.544,14.1l.969,1.211A2.781,2.781,0,0,0,3.5,16.342a.217.217,0,0,0,.234-.217,3,3,0,0,1,6,0A.255.255,0,0,0,9.8,16.3a.251.251,0,0,0,.177.073h5.163a.25.25,0,0,0,.25-.25,3,3,0,0,1,6,0,.231.231,0,0,0,.264.229,1.974,1.974,0,0,0,1.662-1.562l.607-3.039A3.71,3.71,0,0,0,23.493,9.38ZM12.23,9.625a.25.25,0,0,1-.25.25H9.893a.25.25,0,0,1-.208-.389l.777-1.166a1,1,0,0,1,.833-.445h.685a.25.25,0,0,1,.25.25Zm4.92.142a.25.25,0,0,1-.206.108H14.393a.25.25,0,0,1-.25-.25v-1.5a.25.25,0,0,1,.25-.25h1.989a.251.251,0,0,1,.234.162l.562,1.5A.251.251,0,0,1,17.15,9.767Z"/><circle cx="6.73" cy="16.125" r="2"/><circle cx="18.393" cy="16.125" r="2"/></svg>