<svg xmlns="http://www.w3.org/2000/svg" viewBox="0 0 24 24"><title>car-actions-check</title><path d="M5.25,12.75h-4A.25.25,0,0,0,1,13v.5a1.252,1.252,0,0,0,1.25,1.25h2A1.252,1.252,0,0,0,5.5,13.5V13A.25.25,0,0,0,5.25,12.75Z"/><path d="M11.851,11.75a.246.246,0,0,0,.171-.068,7.954,7.954,0,0,1,8.144-1.72.251.251,0,0,0,.334-.236V8.207a1.258,1.258,0,0,0-.366-.884L19.049,6.238a.5.5,0,0,1-.111-.168L16.888.944A1.494,1.494,0,0,0,15.5,0H5.171A1.5,1.5,0,0,0,3.778.943L1.838,5.794a.5.5,0,0,1-.111.168L.22,7.47A.747.747,0,0,0,0,8v2.5a1.252,1.252,0,0,0,1.25,1.25Zm-7.4-7.093,1-2.5A.25.25,0,0,1,5.679,2h9.308a.25.25,0,0,1,.232.157l1,2.5A.25.25,0,0,1,15.987,5H4.679a.25.25,0,0,1-.207-.11A.254.254,0,0,1,4.447,4.657Z"/><path d="M17.5,11A6.5,6.5,0,1,0,24,17.5,6.508,6.508,0,0,0,17.5,11Zm3.474,5.355-2.905,3.874a1.747,1.747,0,0,1-1.278.7c-.041,0-.083,0-.125,0a1.746,1.746,0,0,1-1.237-.515l-1.5-1.5A1,1,0,0,1,15.344,17.5l1.094,1.094a.25.25,0,0,0,.377-.026l2.559-3.413a1,1,0,1,1,1.6,1.2Z"/></svg>