<svg xmlns="http://www.w3.org/2000/svg" viewBox="0 0 24 24"><title>car-dashboard-speed</title><path d="M12,0A12,12,0,1,0,24,12,12.013,12.013,0,0,0,12,0ZM5.145,8.91l-.866-.5a.75.75,0,1,1,.75-1.3l.866.5a.75.75,0,0,1-.376,1.4A.738.738,0,0,1,5.145,8.91Zm.105,3.081a.75.75,0,0,1-.75.75h-1a.75.75,0,0,1,0-1.5h1A.75.75,0,0,1,5.25,11.991ZM14.24,12a2.25,2.25,0,1,1-2.25-2.25.633.633,0,0,1,.076.005.25.25,0,0,0,.233-.11l3.4-5.074a1,1,0,1,1,1.661,1.114L13.993,10.71a.25.25,0,0,0-.013.256A2.214,2.214,0,0,1,14.24,12ZM12.758,4.558a.75.75,0,0,1-1.5,0v-1a.75.75,0,0,1,1.5,0ZM7.393,4.025A.748.748,0,0,1,8.417,4.3l.5.866a.748.748,0,0,1-.274,1.024.738.738,0,0,1-.374.1.748.748,0,0,1-.65-.375l-.5-.866A.749.749,0,0,1,7.393,4.025ZM7.5,17a.5.5,0,0,1,.5-.5h8a.5.5,0,0,1,.5.5v2a.5.5,0,0,1-.5.5H8a.5.5,0,0,1-.5-.5ZM17.809,8.7a.75.75,0,0,1,.274-1.024l.866-.5h0a.75.75,0,0,1,.75,1.3l-.867.5A.75.75,0,0,1,17.809,8.7Zm.881,3.365a.75.75,0,0,1,.75-.75h1a.75.75,0,0,1,0,1.5h-1A.75.75,0,0,1,18.69,12.066Z"/></svg>