<svg id="Bold" xmlns="http://www.w3.org/2000/svg" viewBox="0 0 24 24"><title>card-game-cards</title><circle cx="5.261" cy="3.609" r="1"/><path d="M22.272,9.373a1.529,1.529,0,0,0-.827-2L15.4,4.872a.249.249,0,0,1-.155-.231V1.529A1.531,1.531,0,0,0,13.719,0L3.14,0A1.531,1.531,0,0,0,1.611,1.531l0,14.812a1.531,1.531,0,0,0,1.53,1.529h.522a.251.251,0,0,1,.246.294,1.528,1.528,0,0,0,.922,1.671l9.774,4.047a1.528,1.528,0,0,0,2-.827ZM3.611,2.252A.25.25,0,0,1,3.861,2L13,2a.249.249,0,0,1,.25.25V3.606a.25.25,0,0,1-.345.231l-1.232-.51a1.53,1.53,0,0,0-2,.827L4.884,15.717a.251.251,0,0,1-.231.154h-.79a.251.251,0,0,1-.25-.25ZM15.033,21.624a.25.25,0,0,1-.327.135l-8.442-3.5a.25.25,0,0,1-.135-.327L11.245,5.585a.249.249,0,0,1,.326-.135l8.442,3.5a.25.25,0,0,1,.135.136.244.244,0,0,1,0,.191Z"/><path d="M15.517,14,15,11.383a1.029,1.029,0,0,0-1.582-.655L11.2,12.212a1.026,1.026,0,0,0-.436,1.055l.518,2.618a1.028,1.028,0,0,0,.615.751,1.027,1.027,0,0,0,.967-.095l2.218-1.485A1.027,1.027,0,0,0,15.517,14Z"/><circle cx="12.25" cy="7.5" r="1"/><circle cx="14.19" cy="19.5" r="1"/></svg>