<svg xmlns="http://www.w3.org/2000/svg" viewBox="0 0 24 24"><title>cash-shield</title><path d="M9.647,23.347l1.068.413a3.546,3.546,0,0,0,2.57,0l1.068-.413A12.863,12.863,0,0,0,22.5,11.412V3.774a2.047,2.047,0,0,0-1.181-1.859A22.612,22.612,0,0,0,12,0,22.612,22.612,0,0,0,2.681,1.915,2.047,2.047,0,0,0,1.5,3.774v7.638A12.863,12.863,0,0,0,9.647,23.347ZM12.66,12.728l-2.437-1.219a3.568,3.568,0,0,1,.363-6.54.249.249,0,0,0,.164-.235V4.125a1.25,1.25,0,0,1,2.5,0V4.5a.25.25,0,0,0,.25.25h1a1.25,1.25,0,0,1,0,2.5H11.817a1.067,1.067,0,0,0-.477,2.022l2.437,1.219a3.568,3.568,0,0,1-.363,6.54.249.249,0,0,0-.164.235v.609a1.25,1.25,0,0,1-2.5,0V17.5a.25.25,0,0,0-.25-.25h-1a1.25,1.25,0,0,1,0-2.5h2.683a1.067,1.067,0,0,0,.477-2.022Z"/></svg>