<svg xmlns="http://www.w3.org/2000/svg" viewBox="0 0 24 24"><title>cash-search</title><path d="M10.125,19.875A9.688,9.688,0,0,0,15.7,18.117a.25.25,0,0,1,.32.028l5.041,5.041a1.5,1.5,0,0,0,2.122-2.122l-5.042-5.04a.249.249,0,0,1-.027-.32,9.747,9.747,0,1,0-7.992,4.171Zm1.317-8.192-3.37-1.259A2.552,2.552,0,0,1,6.625,7.955,2.528,2.528,0,0,1,8.914,5.421a.25.25,0,0,0,.211-.247V4.5a1,1,0,0,1,2,0v.625a.249.249,0,0,0,.25.25h1.25a1,1,0,0,1,0,2H9.5c-.875,0-.875.437-.875.58a.9.9,0,0,0,.183.612l3.37,1.26A2.55,2.55,0,0,1,13.625,12.3a2.528,2.528,0,0,1-2.289,2.534.25.25,0,0,0-.211.247v.673a1,1,0,0,1-2,0v-.625a.25.25,0,0,0-.25-.25H7.625a1,1,0,0,1,0-2H10.75c.875,0,.875-.436.875-.579A.9.9,0,0,0,11.442,11.683Z"/></svg>