<svg xmlns="http://www.w3.org/2000/svg" viewBox="0 0 24 24"><title>cash-payment-bill</title><path d="M23.8,3.028a1.5,1.5,0,0,0-1.5-1.5H8.3a1.5,1.5,0,0,0-1.5,1.5v8a1.5,1.5,0,0,0,1.5,1.5h14a1.5,1.5,0,0,0,1.5-1.5Zm-2,7.25a.25.25,0,0,1-.25.25H9.053a.25.25,0,0,1-.25-.25v-6.5a.25.25,0,0,1,.25-.25h12.5a.25.25,0,0,1,.25.25Z"/><circle cx="15.303" cy="7.028" r="2"/><path d="M20.2,16.527l-.011,0L16.671,17.7a.255.255,0,0,0-.153.142A2,2,0,0,1,14.7,19.028h-4a.5.5,0,0,1,0-1h4a1,1,0,0,0,0-2H11.2a7.12,7.12,0,0,0-4-1.5H5.141a4,4,0,0,0-1.789.423L.335,16.459a.25.25,0,0,0-.138.224v5.394a.249.249,0,0,0,.382.212L3.8,20.279a1.018,1.018,0,0,1,.857-.1c9.966,3.358,6.628,3.373,17.866-2.312A.518.518,0,0,0,22.6,17,2.48,2.48,0,0,0,20.2,16.527Z"/></svg>