<svg xmlns="http://www.w3.org/2000/svg" viewBox="0 0 24 24"><title>cash-payment-bills</title><path d="M22.263,3.354A1,1,0,0,0,21.5,3h-9a1,1,0,0,0-.991,1.132l1,7.5a1,1,0,1,0,1.982-.264L13.68,5.283a.252.252,0,0,1,.06-.2A.25.25,0,0,1,13.928,5h6.1a.25.25,0,0,1,.191.088.253.253,0,0,1,.056.2l-1.1,6.571A1,1,0,0,0,20,13.013a1.031,1.031,0,0,0,.165.014,1,1,0,0,0,.985-.836l1.338-8.026A1,1,0,0,0,22.263,3.354Z"/><path d="M19,14H12.97a.25.25,0,0,1-.225-.141l-.921-1.908a.5.5,0,0,0-.393-.279.491.491,0,0,0-.447.183L9.1,14.206l-.007.01A.867.867,0,0,1,8.5,14.5h-1A.5.5,0,0,0,7,15v6a.5.5,0,0,0,.2.4c2.3,1.725,4.083,2.6,5.3,2.6h5.546a1.713,1.713,0,0,0,1.929-1.342A55.867,55.867,0,0,0,21,15.5C21,14.754,20.313,14,19,14Z"/><path d="M4.833,13.5H1.75a.25.25,0,0,0-.25.25v9a.25.25,0,0,0,.25.25H4.833a.6.6,0,0,0,.667-.594V14.094A.6.6,0,0,0,4.833,13.5Z"/><circle cx="17" cy="9" r="1.5"/><path d="M10,11a.927.927,0,0,0,.165-.014,1,1,0,0,0,.822-1.151L9.729,2.291A.25.25,0,0,1,9.976,2H18a1,1,0,0,0,0-2H8.5a1,1,0,0,0-.986,1.165l1.5,9A1,1,0,0,0,10,11Z"/></svg>