<svg xmlns="http://www.w3.org/2000/svg" viewBox="0 0 24 24"><title>cash-map-directions</title><path d="M7,20.688a1,1,0,0,0,.838-.455C9.69,17.394,14,10.461,14,7.438A6.942,6.942,0,0,0,7,.572,6.942,6.942,0,0,0,0,7.438c0,3.025,4.31,9.957,6.163,12.8A1,1,0,0,0,7,20.688ZM5.542,13.039V13a.249.249,0,0,0-.25-.25H5.25a.875.875,0,1,1,0-1.75H7.23a.645.645,0,0,0,.358-1.182L5.441,8.386A2.4,2.4,0,0,1,6.565,4.007a.156.156,0,0,0,.143-.155V3.706a.875.875,0,1,1,1.75,0v.042a.25.25,0,0,0,.25.25H8.75a.875.875,0,0,1,0,1.75H6.77A.645.645,0,0,0,6.412,6.93L8.559,8.36a2.395,2.395,0,0,1-1.046,4.37.251.251,0,0,0-.221.249v.06a.875.875,0,0,1-1.75,0Z"/><path d="M12,23.429a1,1,0,1,0,0-2H10a1,1,0,0,0,0,2Z"/><path d="M16,21.179a.251.251,0,0,1-.25.25H15a1,1,0,0,0,0,2h1a2,2,0,0,0,2-2v-1a1,1,0,0,0-2,0Z"/><path d="M16,17.456a1,1,0,1,0,2,0v-1.25a1,1,0,0,0-2,0Z"/><path d="M17,14.429a1,1,0,0,0,1-1v-.75a.249.249,0,0,1,.25-.25H19a1,1,0,0,0,0-2H18a2,2,0,0,0-2,2v1A1,1,0,0,0,17,14.429Z"/><path d="M23,10.429H22a1,1,0,0,0,0,2h1a1,1,0,0,0,0-2Z"/></svg>