<svg xmlns="http://www.w3.org/2000/svg" viewBox="0 0 24 24"><title>cash-user-message</title><path d="M12.5,0A1.5,1.5,0,0,0,11,1.5v8A1.5,1.5,0,0,0,12.5,11h.25a.25.25,0,0,1,.25.25V13.5a.5.5,0,0,0,.291.454A.493.493,0,0,0,13.5,14a.5.5,0,0,0,.325-.12l3.289-2.819A.246.246,0,0,1,17.277,11H22.5A1.5,1.5,0,0,0,24,9.5v-8A1.5,1.5,0,0,0,22.5,0Zm3.833,4.875h2.334a1.792,1.792,0,0,1,0,3.584h-.292a.249.249,0,0,0-.25.25V9a.625.625,0,0,1-1.25,0V8.709a.249.249,0,0,0-.25-.25H15.167a.625.625,0,1,1,0-1.25h3.5a.542.542,0,0,0,0-1.084H16.333a1.792,1.792,0,0,1,0-3.583h.292a.25.25,0,0,0,.25-.25V2a.625.625,0,0,1,1.25,0v.292a.25.25,0,0,0,.25.25h1.458a.625.625,0,0,1,0,1.25h-3.5a.542.542,0,0,0,0,1.083Z"/><circle cx="5" cy="7.75" r="3.75"/><path d="M.5,21H1.885a.25.25,0,0,1,.245.2l.478,2.393a.5.5,0,0,0,.49.4L6.9,24h0a.5.5,0,0,0,.491-.4l.48-2.4a.25.25,0,0,1,.245-.2H9.5a.5.5,0,0,0,.5-.5V17A5,5,0,0,0,0,17v3.5A.5.5,0,0,0,.5,21Z"/></svg>