<svg xmlns="http://www.w3.org/2000/svg" viewBox="0 0 24 24"><title>cash-payment-bill-4</title><path d="M10.277,11.531a.75.75,0,0,0,1.5,0v-.187a.188.188,0,0,1,.188-.188.75.75,0,0,0,0-1.5h-.053A.218.218,0,0,1,11.7,9.5,1.757,1.757,0,0,0,8.39,9.354L7.771,10.9a.265.265,0,0,1-.494-.1V9.281a.75.75,0,0,0-1.5,0v.188a.187.187,0,0,1-.187.187.75.75,0,0,0,0,1.5h.052a.219.219,0,0,1,.21.156,1.756,1.756,0,0,0,3.312.146L9.783,9.91a.266.266,0,0,1,.494.1Z"/><path d="M16.09,2A1.5,1.5,0,0,0,14.59.5H3.09A1.5,1.5,0,0,0,1.59,2V20.5A1.5,1.5,0,0,0,3.09,22h8.864a1,1,0,0,0,0-2H4.59a1,1,0,0,1-1-1V3.5a1,1,0,0,1,1-1h8.5a1,1,0,0,1,1,1v7.84a1,1,0,0,0,.321.734h0a1,1,0,0,0,1.679-.734Z"/><path d="M11.988,15.43l3.67,4.147a.249.249,0,0,1,.063.166v2.544a2.63,2.63,0,0,0,.306,1.071.251.251,0,0,0,.226.142H22.16a.25.25,0,0,0,.207-.391L20.929,21a.255.255,0,0,1-.044-.141V15.03c0-1.479-1.453-2.92-2.889-4.077a.249.249,0,0,0-.406.2c0,2.96,0,3.59,0,3.744a.251.251,0,0,0,.08.2l.932.862a.75.75,0,0,1-1.019,1.1l-.4-.368-.96-.888-2.568-2.377a1.151,1.151,0,0,0-1.662.072A1.418,1.418,0,0,0,11.988,15.43Z"/></svg>