<svg xmlns="http://www.w3.org/2000/svg" viewBox="0 0 24 24"><title>cash-user-man-message</title><path d="M24,1.5A1.5,1.5,0,0,0,22.5,0h-10A1.5,1.5,0,0,0,11,1.5v8A1.5,1.5,0,0,0,12.5,11h.25a.25.25,0,0,1,.25.25V13.5a.5.5,0,0,0,.291.454A.493.493,0,0,0,13.5,14a.5.5,0,0,0,.325-.12l3.289-2.819A.246.246,0,0,1,17.277,11H22.5A1.5,1.5,0,0,0,24,9.5ZM16.333,4.875h2.334a1.792,1.792,0,0,1,0,3.584h-.292a.249.249,0,0,0-.25.25V9a.625.625,0,0,1-1.25,0V8.709a.249.249,0,0,0-.25-.25H15.167a.625.625,0,1,1,0-1.25h3.5a.542.542,0,0,0,0-1.084H16.333a1.792,1.792,0,0,1,0-3.583h.292a.25.25,0,0,0,.25-.25V2a.625.625,0,0,1,1.25,0v.292a.25.25,0,0,0,.25.25h1.458a.625.625,0,0,1,0,1.25h-3.5a.542.542,0,0,0,0,1.083Z"/><path d="M.5,20.5H2.35a.251.251,0,0,1,.247.215l.408,2.856A.5.5,0,0,0,3.5,24H7.591a.5.5,0,0,0,.5-.441l.331-2.837a.252.252,0,0,1,.249-.222H10.5A.5.5,0,0,0,11,20V17a5.51,5.51,0,0,0-3.409-5.087.247.247,0,0,1-.154-.216.251.251,0,0,1,.127-.233,4.25,4.25,0,1,0-4.128,0,.249.249,0,0,1,.127.233.247.247,0,0,1-.154.216A5.51,5.51,0,0,0,0,17v3A.5.5,0,0,0,.5,20.5Zm5.75-3.125a.75.75,0,0,1-1.5,0v-3a.75.75,0,0,1,1.5,0Zm-3-9.625a2.234,2.234,0,0,1,.106-.683.255.255,0,0,1,.152-.159.252.252,0,0,1,.219.024,5.377,5.377,0,0,0,2.856.818,5.347,5.347,0,0,0,1.043-.1.106.106,0,0,1,.086.022.1.1,0,0,1,.038.08,2.25,2.25,0,0,1-4.5,0Z"/></svg>