<svg xmlns="http://www.w3.org/2000/svg" viewBox="0 0 24 24"><title>cash-user</title><path d="M17.159,8.145a.249.249,0,0,1-.027.432,4.762,4.762,0,0,0-2.656,4.262V15.69a.5.5,0,0,0,.5.5h1.458a.251.251,0,0,1,.249.225l.645,6.448a.5.5,0,0,0,.5.45h2.85a.5.5,0,0,0,.5-.45l.644-6.448a.251.251,0,0,1,.249-.225h1.459a.5.5,0,0,0,.5-.5V12.839a4.777,4.777,0,0,0-2.481-4.186.252.252,0,0,1-.13-.213.25.25,0,0,1,.119-.218,4.081,4.081,0,1,0-4.373-.077ZM20,12.03a.75.75,0,1,1-1.5,0V10.338a.75.75,0,0,1,1.5,0ZM17.463,4.041a.251.251,0,0,1,.361-.125,5.056,5.056,0,0,0,2.6.722,5.1,5.1,0,0,0,.756-.058.252.252,0,0,1,.288.247,2.073,2.073,0,0,1-4.145-.063A2,2,0,0,1,17.463,4.041Z"/><path d="M1.476,15.812H10.17a1.5,1.5,0,0,0,1.5-1.5V13.2a.252.252,0,0,1,.122-.215,1.448,1.448,0,0,0,.564-.593l2.465-4.881h0a1.5,1.5,0,0,0-.663-2.014L6.4,1.574a1.5,1.5,0,0,0-1.145-.085,1.484,1.484,0,0,0-.869.749L1.917,7.12c-.011.024-.022.046-.031.069a.251.251,0,0,1-.232.156H1.476a1.5,1.5,0,0,0-1.5,1.5v5.467A1.5,1.5,0,0,0,1.476,15.812ZM4.228,6.981l1.6-3.172A.251.251,0,0,1,6.166,3.7L12.587,6.94a.25.25,0,0,1,.111.336L11.881,8.9a.112.112,0,0,1-.211-.05,1.5,1.5,0,0,0-1.5-1.5H4.451a.25.25,0,0,1-.223-.364ZM1.976,9.6a.249.249,0,0,1,.25-.25H9.42a.249.249,0,0,1,.25.25v3.967a.25.25,0,0,1-.25.25H2.226a.25.25,0,0,1-.25-.25Z"/><circle cx="5.929" cy="11.677" r="1.212"/></svg>