<svg xmlns="http://www.w3.org/2000/svg" viewBox="0 0 24 24"><title>cash-payment-coin-stash</title><path d="M16.7,4.028a17.374,17.374,0,0,0,5.333-.667.25.25,0,0,0,.167-.235v-.1a.5.5,0,0,0-.147-.353c-.117-.117-1.264-1.147-5.353-1.147s-5.237,1.03-5.354,1.147a.5.5,0,0,0-.146.353v.114a.25.25,0,0,0,.17.237A18.078,18.078,0,0,0,16.7,4.028Z"/><path d="M16.7,9.028a17.374,17.374,0,0,0,5.333-.667.25.25,0,0,0,.167-.235V4.7a.252.252,0,0,0-.1-.2.248.248,0,0,0-.219-.04,22.6,22.6,0,0,1-5.181.569,22.6,22.6,0,0,1-5.182-.569.249.249,0,0,0-.219.04.254.254,0,0,0-.1.2V8.142a.25.25,0,0,0,.17.237A18.078,18.078,0,0,0,16.7,9.028Z"/><path d="M16.7,10.028a22.6,22.6,0,0,1-5.182-.569.249.249,0,0,0-.219.04.254.254,0,0,0-.1.2v2.829c0,1.354,3.846,1.5,5.5,1.5s5.5-.146,5.5-1.5V9.7a.252.252,0,0,0-.1-.2.248.248,0,0,0-.219-.04A22.6,22.6,0,0,1,16.7,10.028Z"/><path d="M20.705,16.527l-.011,0L17.173,17.7a.255.255,0,0,0-.152.143A2,2,0,0,1,15.2,19.028h-4a.5.5,0,0,1,0-1h4a1,1,0,0,0,0-2H11.7a7.124,7.124,0,0,0-4-1.5H5.644a4,4,0,0,0-1.789.423L.838,16.459a.25.25,0,0,0-.138.224v5.394a.249.249,0,0,0,.382.212L4.3,20.279a1.018,1.018,0,0,1,.857-.1c9.964,3.358,6.629,3.373,17.861-2.309A.521.521,0,0,0,23.1,17,2.477,2.477,0,0,0,20.705,16.527Z"/></svg>