<svg xmlns="http://www.w3.org/2000/svg" viewBox="0 0 24 24"><title>cash-eye</title><path d="M12,20.025c4.988,0,8.3-3.125,11.453-6.622a2.071,2.071,0,0,0,0-2.8h0C20.278,7.071,16.992,3.975,12,3.975S3.7,7.093.548,10.6a2.068,2.068,0,0,0,0,2.806C3.73,16.938,7.018,20.025,12,20.025ZM17.272,7.848a.252.252,0,0,1,.321-.034,24.078,24.078,0,0,1,4.383,4.132.08.08,0,0,1,0,.109,23.954,23.954,0,0,1-4.382,4.132.251.251,0,0,1-.32-.035.247.247,0,0,1-.022-.32,6.5,6.5,0,0,0,0-7.663A.251.251,0,0,1,17.272,7.848ZM13.2,13.253l-2.938-1.1a2.092,2.092,0,0,1-1.177-2.027,2.086,2.086,0,0,1,1.946-2.087.248.248,0,0,0,.216-.247V7.137a.75.75,0,0,1,1.5,0v.621a.25.25,0,0,0,.25.25h1.162a.75.75,0,1,1,0,1.5h-2.7c-.4,0-.872.106-.872.615a.825.825,0,0,0,.209.625l2.938,1.1a2.09,2.09,0,0,1,1.177,2.026,2.086,2.086,0,0,1-1.946,2.087.25.25,0,0,0-.216.248v.652a.75.75,0,0,1-1.5,0v-.621a.249.249,0,0,0-.25-.25H9.838a.75.75,0,0,1,0-1.5h2.7c.4,0,.872-.107.872-.616A.826.826,0,0,0,13.2,13.253ZM6.408,7.814a.25.25,0,0,1,.342.355,6.5,6.5,0,0,0,0,7.662.25.25,0,0,1-.342.355,24.035,24.035,0,0,1-4.382-4.13.082.082,0,0,1,0-.109A23.947,23.947,0,0,1,6.408,7.814Z"/></svg>