<svg id="Bold" xmlns="http://www.w3.org/2000/svg" viewBox="0 0 24 24"><title>casino-lucky-clover</title><path d="M5.763,7.086h0l4.93.564.056,0a.5.5,0,0,0,.5-.55l-.5-4.982A2.347,2.347,0,0,0,9.889.531,2.318,2.318,0,0,0,8.165.014,2.354,2.354,0,0,0,6.051,2.186a.218.218,0,0,1-.21.2,2.2,2.2,0,0,0-1.278.517,2.327,2.327,0,0,0-.869,1.573A2.359,2.359,0,0,0,5.763,7.086Z"/><path d="M18.238,7.086h0l-4.929.564-.057,0a.5.5,0,0,1-.5-.55l.5-4.982A2.343,2.343,0,0,1,14.112.531,2.317,2.317,0,0,1,15.836.014a2.354,2.354,0,0,1,2.113,2.172.218.218,0,0,0,.21.2,2.2,2.2,0,0,1,1.278.517,2.323,2.323,0,0,1,.869,1.573A2.358,2.358,0,0,1,18.238,7.086Z"/><path d="M18.238,9.916h0l-4.929-.563a.505.505,0,0,0-.408.142.5.5,0,0,0-.146.406l.5,4.98A2.358,2.358,0,0,0,15.593,17a2.18,2.18,0,0,0,.242-.013,2.356,2.356,0,0,0,2.113-2.159.252.252,0,0,1,.227-.23,2.377,2.377,0,0,0,1.262-.5,2.318,2.318,0,0,0,.869-1.571A2.358,2.358,0,0,0,18.238,9.916Z"/><path d="M11.1,9.495a.508.508,0,0,0-.407-.142l-4.93.563h0a2.358,2.358,0,0,0-2.069,2.605A2.318,2.318,0,0,0,4.563,14.1a2.389,2.389,0,0,0,1.266.495.249.249,0,0,1,.222.231,2.357,2.357,0,0,0,2.113,2.167A2.193,2.193,0,0,0,8.406,17a2.358,2.358,0,0,0,2.338-2.12l.5-4.98A.5.5,0,0,0,11.1,9.495Z"/><path d="M15.75,22a2.5,2.5,0,0,1-2.5-2.5V18a1,1,0,0,0-2,0v1.5a4.505,4.505,0,0,0,4.5,4.5,1,1,0,0,0,0-2Z"/></svg>