<svg id="Bold" xmlns="http://www.w3.org/2000/svg" viewBox="0 0 24 24"><title>casino-chip-5</title><path d="M13.75,13.25a2,2,0,0,1-2,2h-.878a.75.75,0,0,1,0-1.5h.878a.5.5,0,0,0,0-1H11a.75.75,0,0,1-.75-.75V9.5A.75.75,0,0,1,11,8.75h2a.75.75,0,0,1,0,1.5H12a.25.25,0,0,0-.25.25v.514a.25.25,0,0,0,.222.248A2,2,0,0,1,13.75,13.25Z"/><path d="M12,0A12,12,0,1,0,24,12,12.013,12.013,0,0,0,12,0Zm4.827,3.571a.251.251,0,0,1,.361-.117,10.1,10.1,0,0,1,3.358,3.358.247.247,0,0,1,.024.207.25.25,0,0,1-.141.154L17.62,8.355a.248.248,0,0,1-.3-.087,6.572,6.572,0,0,0-1.587-1.587.249.249,0,0,1-.087-.3ZM12,2.5a1,1,0,1,1-1,1A1,1,0,0,1,12,2.5Zm-5.188.954a.251.251,0,0,1,.361.117L8.355,6.38a.248.248,0,0,1-.087.3A6.558,6.558,0,0,0,6.681,8.269a.249.249,0,0,1-.3.086L3.571,7.173a.251.251,0,0,1-.117-.361A10.1,10.1,0,0,1,6.812,3.454ZM2.5,12a1,1,0,1,1,1,1A1,1,0,0,1,2.5,12Zm4.673,8.429a.251.251,0,0,1-.361.117,10.1,10.1,0,0,1-3.358-3.358.247.247,0,0,1-.024-.207.25.25,0,0,1,.141-.154L6.38,15.645a.248.248,0,0,1,.3.087,6.572,6.572,0,0,0,1.587,1.587.249.249,0,0,1,.087.3ZM12,21.5a1,1,0,1,1,1-1A1,1,0,0,1,12,21.5Zm0-5A4.5,4.5,0,1,1,16.5,12,4.505,4.505,0,0,1,12,16.5Zm5.188,4.046a.251.251,0,0,1-.361-.117L15.645,17.62a.248.248,0,0,1,.087-.3,6.558,6.558,0,0,0,1.587-1.588.249.249,0,0,1,.3-.086l2.809,1.182a.251.251,0,0,1,.117.361A10.1,10.1,0,0,1,17.188,20.546ZM20.5,13a1,1,0,1,1,1-1A1,1,0,0,1,20.5,13Z"/></svg>