<svg id="Bold" xmlns="http://www.w3.org/2000/svg" viewBox="0 0 24 24"><title>casino-player-diamond</title><path d="M14.112,4.368a1.222,1.222,0,0,1,.973.486l2.082,2.253a.249.249,0,0,1-.183.419H14.693a.249.249,0,0,1-.217-.126L12.957,4.742a.25.25,0,0,1,.217-.374Zm-3.249.053a.105.105,0,0,1,.091-.053.1.1,0,0,1,.091.053l1.561,2.731a.25.25,0,0,1-.217.374H9.52A.249.249,0,0,1,9.3,7.152ZM6.872,4.8A1.184,1.184,0,0,1,7.8,4.368h.939a.25.25,0,0,1,.217.374L7.433,7.4a.25.25,0,0,1-.217.126H4.928a.25.25,0,0,1-.184-.419ZM4.025,9.59a1.188,1.188,0,0,1-.144-.174.25.25,0,0,1,.207-.39H7.016a.25.25,0,0,1,.242.19l1.008,4.031a.25.25,0,0,1-.421.236Zm7.4,6.325a.254.254,0,0,1-.182.183,1.214,1.214,0,0,1-.294.036,1.165,1.165,0,0,1-.293-.037.251.251,0,0,1-.182-.182L8.835,9.337a.25.25,0,0,1,.242-.311h3.754a.249.249,0,0,1,.2.1.245.245,0,0,1,.046.214Zm6.6-6.5a1.218,1.218,0,0,1-.15.182l0,0-3.812,3.884a.25.25,0,0,1-.421-.235L14.65,9.216a.25.25,0,0,1,.243-.19h2.926a.25.25,0,0,1,.208.389Zm3.451.443a7.246,7.246,0,0,1-.72-1.452C20.758,3.145,15.9,0,11.2,0A9.972,9.972,0,0,0,1.1,10.063c0,3.633,1.241,6.217,3.79,7.885A.25.25,0,0,1,5,18.157V23.5a.5.5,0,0,0,.5.5h10a.5.5,0,0,0,.5-.5V20.769a.25.25,0,0,1,.244-.25c1.628-.035,2.692-.245,3.425-.978.781-.781.96-3.026,1-4.282a.25.25,0,0,1,.252-.243c.259,0,.547,0,.8-.01,1.078-.048,1.139-.9,1.174-1.4C22.976,12.489,22.18,11.092,21.478,9.858Z"/></svg>