<svg id="Bold" xmlns="http://www.w3.org/2000/svg" viewBox="0 0 24 24"><title>casino-lucky-7</title><path d="M22.376,1.919,21.486.852A1.494,1.494,0,0,0,19.666.47a9.528,9.528,0,0,1-4.118,1A7.348,7.348,0,0,1,12.5.79,8.271,8.271,0,0,0,9.087.036,7.584,7.584,0,0,0,5.443.9.251.251,0,0,1,5.1.8,1.5,1.5,0,0,0,3.776,0h-1a1.5,1.5,0,0,0-1.5,1.5v7a1.5,1.5,0,0,0,1.5,1.5H3.849A1.5,1.5,0,0,0,5.321,8.783,2.635,2.635,0,0,1,8.015,6.777a7.361,7.361,0,0,1,2.222.625,9.282,9.282,0,0,0,3.161.811.38.38,0,0,1,.29.628A23.486,23.486,0,0,0,7.905,22.405,1.5,1.5,0,0,0,9.4,24h5.928a1.5,1.5,0,0,0,1.49-1.342c.54-5.067,4.58-16.012,5.806-19.246A1.506,1.506,0,0,0,22.376,1.919Z"/></svg>