<svg id="Bold" xmlns="http://www.w3.org/2000/svg" viewBox="0 0 24 24"><title>casino-lucky-horseshoe</title><path d="M20,5a2,2,0,0,0,2-2V2a2,2,0,0,0-2-2H17a2.5,2.5,0,0,0-2.5,2.5V5.566c0,2.12.09,4.011,1.2,5.715A4.982,4.982,0,0,1,16.5,14a4,4,0,0,1-4,4h-1a4,4,0,0,1-4-4,4.988,4.988,0,0,1,.8-2.72c1.107-1.7,1.2-3.594,1.2-5.714V2.5A2.5,2.5,0,0,0,7,0H4A2,2,0,0,0,2,2V3A2,2,0,0,0,4,5a.5.5,0,0,1,.5.5v.066a5.49,5.49,0,0,1-.889,2.991,10,10,0,1,0,16.778,0A5.5,5.5,0,0,1,19.5,5.566V5.5A.5.5,0,0,1,20,5ZM5,17a1,1,0,1,1,1-1A1,1,0,0,1,5,17ZM6.5,9.5a1,1,0,1,1,1-1A1,1,0,0,1,6.5,9.5ZM12,22a1,1,0,1,1,1-1A1,1,0,0,1,12,22ZM16.5,8.5a1,1,0,1,1,1,1A1,1,0,0,1,16.5,8.5ZM20,16a1,1,0,1,1-1-1A1,1,0,0,1,20,16Z"/></svg>