<svg id="Bold" xmlns="http://www.w3.org/2000/svg" viewBox="0 0 24 24"><title>cat-grass-1</title><path d="M18.647,16H4.752a.5.5,0,0,0-.492.592l.827,4.435A3.269,3.269,0,0,0,8.226,23.75h6.947a3.264,3.264,0,0,0,3.135-2.7l.83-4.457A.5.5,0,0,0,18.647,16Z"/><path d="M21.318,1.453a1,1,0,0,0-1.207.736L17.977,10.98a.249.249,0,0,1-.242.191H16.64a.248.248,0,0,1-.183-.08.245.245,0,0,1-.066-.189l.55-7.261a1,1,0,1,0-1.994-.151l-.565,7.45a.249.249,0,0,1-.249.231h-.992a.25.25,0,0,1-.25-.25V1.25a1,1,0,0,0-2,0v9.671a.25.25,0,0,1-.25.25H9.619a.25.25,0,0,1-.249-.23L8.781,3.486a1,1,0,1,0-1.994.159L7.36,10.9a.25.25,0,0,1-.249.27H6.282a.251.251,0,0,1-.243-.191L3.889,2.188a1,1,0,1,0-1.942.474l2.081,8.509H3.594a1.658,1.658,0,0,0,0,3.316H19.805a1.658,1.658,0,0,0,.181-3.306L22.054,2.66A1,1,0,0,0,21.318,1.453Z"/></svg>