<svg id="Bold" xmlns="http://www.w3.org/2000/svg" viewBox="0 0 24 24"><title>cat-sitting</title><path d="M21.794,19.072A3,3,0,0,0,19.5,18.007a1,1,0,0,0,0,2,1.007,1.007,0,0,1,.983,1.171,1.071,1.071,0,0,1-1.093.829H15.5a.5.5,0,0,1-.5-.5V11.573a.494.494,0,0,0-.653-.472A6.973,6.973,0,0,1,12,11.5a6.9,6.9,0,0,1-3.477-.926.505.505,0,0,0-.715.2l-1.636,3.27C3.408,14.463,1.5,16.875,1.5,20.007c0,1.326.5,3.991,2.84,3.991h15.05a3.075,3.075,0,0,0,3.066-2.5A2.988,2.988,0,0,0,21.794,19.072Z"/><path d="M12,10A4.734,4.734,0,0,0,16.988,5.57V.552A.563.563,0,0,0,16.112.1L14.08,1.552a5.415,5.415,0,0,0-4.158,0L7.89.1a.561.561,0,0,0-.876.451V5.57A4.734,4.734,0,0,0,12,10Zm2-5.5a1,1,0,1,1-1,1A1,1,0,0,1,14,4.5Zm-4,0a1,1,0,1,1-1,1A1,1,0,0,1,10,4.5Z"/></svg>