<svg id="Bold" xmlns="http://www.w3.org/2000/svg" viewBox="0 0 24 24"><title>cat-bell</title><path d="M3.83,16.53a.25.25,0,0,0-.248.281,8.6,8.6,0,0,0,7.389,7.157.251.251,0,0,0,.279-.249V21.891l-1.3-1.561a.5.5,0,0,1-.116-.321c0-.871.848-1.479,2.063-1.479s2.062.608,2.062,1.479a.5.5,0,0,1-.1.295L12.75,21.829V23.72a.251.251,0,0,0,.279.248,8.554,8.554,0,0,0,7.387-7.156.25.25,0,0,0-.248-.282Z"/><path d="M21.444,12.53H19.955a8.519,8.519,0,0,0-6.948-5.441V5.811A8.315,8.315,0,0,0,19.38,1.533,1,1,0,0,0,17.62.581,6.346,6.346,0,0,1,12.007,3.87,6.339,6.339,0,0,1,6.382.558,1,1,0,0,0,4.618,1.5a8.3,8.3,0,0,0,6.389,4.31V7.088A8.517,8.517,0,0,0,4.045,12.53H2.556c-.306,0-.556.337-.556.75v1c0,.412.25.75.556.75H21.444c.306,0,.556-.338.556-.75v-1C22,12.867,21.75,12.53,21.444,12.53Z"/></svg>