<svg id="Bold" xmlns="http://www.w3.org/2000/svg" viewBox="0 0 24 24"><title>cat-water</title><path d="M17.107,18.5a.25.25,0,0,0,.25-.25V17a1.5,1.5,0,0,0-1.432-1.493,2,2,0,0,1,3.815-.183,1,1,0,1,0,1.882-.676,3.979,3.979,0,0,0-6.765-1.266,3.98,3.98,0,0,0-6.769,1.277,1,1,0,1,0,1.883.67,2,2,0,0,1,3.817.178A1.5,1.5,0,0,0,12.357,17v1.25a.249.249,0,0,0,.25.25Z"/><path d="M11.357,7.287v-7c0-.275-.183-.369-.407-.209L7.016,2.887l0,0a6.606,6.606,0,0,0-2.324,0l0,0L.764.078C.54-.082.357.012.357.287v7c0,3.5,2.462,4.5,5.5,4.5S11.357,10.787,11.357,7.287Zm-4.433-.75a2,2,0,0,1,2.732-.73.5.5,0,0,1-.5.865.991.991,0,0,0-.758-.1,1,1,0,0,0-.608.466.5.5,0,1,1-.865-.5Zm-2.3.62a.5.5,0,0,1-.686-.172,1,1,0,0,0-1.372-.342.5.5,0,0,1-.515-.858A2,2,0,0,1,4.8,6.472.5.5,0,0,1,4.629,7.157Zm.874,2.6-.5-.5A.5.5,0,0,1,5.357,8.4h1a.5.5,0,0,1,.353.854l-.5.5a.5.5,0,0,1-.707,0Z"/><path d="M23.25,20H5.75a.373.373,0,0,0-.379.485l.394,1.575A2.7,2.7,0,0,0,8.25,24h12.5a2.7,2.7,0,0,0,2.485-1.94l.394-1.575A.373.373,0,0,0,23.25,20Z"/><circle cx="8.607" cy="18" r="1.25"/><circle cx="21.107" cy="18" r="1.25"/></svg>