<svg id="Bold" xmlns="http://www.w3.org/2000/svg" viewBox="0 0 24 24"><title>cat-grass</title><path d="M14.25,20h-12a.5.5,0,0,0-.493.582l.5,3A.5.5,0,0,0,2.75,24h11a.5.5,0,0,0,.493-.418l.5-3A.5.5,0,0,0,14.25,20Z"/><path d="M15.25,16.5H13.583l.355-1.22a1,1,0,1,0-1.92-.559l-.466,1.6a.249.249,0,0,1-.24.18H10.5a.25.25,0,0,1-.25-.25V9.071a1,1,0,1,0-2,0V16.25A.25.25,0,0,1,8,16.5H7.155a.25.25,0,0,1-.249-.23l-.461-5.849a1,1,0,1,0-1.994.159L4.9,16.231a.248.248,0,0,1-.249.269H4.216a.249.249,0,0,1-.242-.187L2.265,9.748a1,1,0,0,0-1.936.5L1.956,16.5H1.25a1,1,0,0,0,0,2h14a1,1,0,0,0,0-2Z"/><path d="M23.359.076a.758.758,0,0,0-.806.1L18.784,2.864a7.1,7.1,0,0,0-2.068,0L12.948.173a.759.759,0,0,0-.807-.1.761.761,0,0,0-.391.712v7c0,3.317,2.019,5,6,5s6-1.683,6-5v-7A.761.761,0,0,0,23.359.076ZM13.95,6.286a2,2,0,0,1,2.743.686.5.5,0,0,1-.858.514,1,1,0,0,0-1.371-.343.5.5,0,1,1-.514-.857ZM16.788,9.6a.5.5,0,0,1,.462-.309h1a.5.5,0,0,1,.354.853l-.5.5a.5.5,0,0,1-.708,0l-.5-.5A.5.5,0,0,1,16.788,9.6Zm4.261-2.424a1,1,0,0,0-1.366.365.5.5,0,1,1-.866-.5,2,2,0,0,1,2.733-.731.5.5,0,0,1-.5.866Z"/></svg>