<svg id="Bold" xmlns="http://www.w3.org/2000/svg" viewBox="0 0 24 24"><title>cat-carrier-1</title><path d="M20.173,16.5a.251.251,0,0,0-.24.178A1.5,1.5,0,0,1,18.5,17.75h-.75a.25.25,0,0,1-.25-.25V11a.25.25,0,0,1,.25-.25h.75a1.5,1.5,0,0,1,1.5,1.5v2.5a.25.25,0,0,0,.25.25H23.5a.5.5,0,0,0,.5-.5V9.75a2.5,2.5,0,0,0-2.5-2.5h-4V5.75a3,3,0,0,0-3-3h-5a3,3,0,0,0-3,3v1.5h-4A2.5,2.5,0,0,0,0,9.75V14.5a.5.5,0,0,0,.5.5H3.75A.25.25,0,0,0,4,14.75v-2.5a1.5,1.5,0,0,1,1.5-1.5h.75A.25.25,0,0,1,6.5,11v6.5a.25.25,0,0,1-.25.25H5.5a1.5,1.5,0,0,1-1.433-1.072.25.25,0,0,0-.24-.178H.5A.5.5,0,0,0,0,17v2.75a1.5,1.5,0,0,0,1.5,1.5h21a1.5,1.5,0,0,0,1.5-1.5V17a.5.5,0,0,0-.5-.5Zm-4.673,1a.25.25,0,0,1-.25.25h-2A.25.25,0,0,1,13,17.5V11a.25.25,0,0,1,.25-.25h2a.25.25,0,0,1,.25.25ZM8.5,5.75a1,1,0,0,1,1-1h5a1,1,0,0,1,1,1v1a.5.5,0,0,1-.5.5H9a.5.5,0,0,1-.5-.5ZM8.5,11a.25.25,0,0,1,.25-.25h2A.25.25,0,0,1,11,11v6.5a.25.25,0,0,1-.25.25h-2a.25.25,0,0,1-.25-.25Z"/></svg>