<svg id="Bold" xmlns="http://www.w3.org/2000/svg" viewBox="0 0 24 24"><title>ceiling-ball-chandelier-retro-1</title><path d="M4.832,9.694A.5.5,0,0,0,4.437,9.5H.563a.5.5,0,0,0-.484.625,2.5,2.5,0,0,0,4.842,0A.5.5,0,0,0,4.832,9.694Z"/><path d="M2.776,5.053l-1,.5A.5.5,0,0,0,1.5,6V8a.5.5,0,0,0,.5.5H3A.5.5,0,0,0,3.5,8V5.5a.5.5,0,0,0-.724-.447Z"/><path d="M2.5,4A1.669,1.669,0,0,0,4.167,2.333a3.8,3.8,0,0,0-.736-1.8,1.13,1.13,0,0,0-1.861,0A3.784,3.784,0,0,0,.834,2.333,1.668,1.668,0,0,0,2.5,4Z"/><circle cx="6" cy="16.25" r="0.75"/><circle cx="8.75" cy="17.25" r="0.75"/><circle cx="18.5" cy="16.25" r="0.75"/><circle cx="15.25" cy="17.25" r="0.75"/><path d="M21.776,5.053l-1,.5A.5.5,0,0,0,20.5,6V8a.5.5,0,0,0,.5.5h1a.5.5,0,0,0,.5-.5V5.5a.5.5,0,0,0-.724-.447Z"/><path d="M21.5,4a1.669,1.669,0,0,0,1.667-1.667,3.786,3.786,0,0,0-.736-1.8,1.13,1.13,0,0,0-1.861,0,3.791,3.791,0,0,0-.736,1.805A1.668,1.668,0,0,0,21.5,4Z"/><path d="M23.832,9.694a.5.5,0,0,0-.395-.194H19.563a.5.5,0,0,0-.484.625,2.5,2.5,0,0,0,4.842,0A.5.5,0,0,0,23.832,9.694Z"/><path d="M18.11,10.374a1.493,1.493,0,0,1,.267-1.293A.44.44,0,0,0,18.34,8.5a11.3,11.3,0,0,1-2.968-5.127A.5.5,0,0,0,14.889,3H13.5a.5.5,0,0,1-.5-.5V1a1,1,0,0,0-2,0V2.5a.5.5,0,0,1-.5.5H9.111a.5.5,0,0,0-.483.373A11.314,11.314,0,0,1,5.658,8.5a.436.436,0,0,0-.036.578,1.513,1.513,0,0,1,.268,1.294A3.469,3.469,0,0,1,4.833,12.1a.249.249,0,0,0-.083.186V13.5a.75.75,0,0,0,1.5,0v-.837a.251.251,0,0,1,.293-.247A5.516,5.516,0,0,0,7.5,12.5c.079,0,.152-.006.224-.013a.249.249,0,0,1,.193.062A.252.252,0,0,1,8,12.736V14.5a.75.75,0,0,0,1.5,0V12.327a.251.251,0,0,1,.155-.232,4.553,4.553,0,0,0,1.107-.646.145.145,0,0,1,.155-.017.147.147,0,0,1,.083.132v5.524a.5.5,0,0,1-.181.385,1.347,1.347,0,0,0-.219.227L9.287,19.45a1.76,1.76,0,0,0,0,2.1L10.6,23.3a1.75,1.75,0,0,0,2.8,0l1.313-1.75a1.76,1.76,0,0,0,0-2.1L13.4,17.7a1.268,1.268,0,0,0-.219-.226A.5.5,0,0,1,13,17.088V11.564a.147.147,0,0,1,.083-.132.145.145,0,0,1,.155.017,4.553,4.553,0,0,0,1.107.646.251.251,0,0,1,.155.232V14.5a.75.75,0,0,0,1.5,0V12.736a.251.251,0,0,1,.277-.249,2.231,2.231,0,0,0,.223.013,5.536,5.536,0,0,0,.958-.084.253.253,0,0,1,.2.055.25.25,0,0,1,.089.192V13.5a.75.75,0,0,0,1.5,0V12.285a.249.249,0,0,0-.083-.186A3.469,3.469,0,0,1,18.11,10.374ZM12,21.834,11,20.5l1-1.334L13,20.5Z"/></svg>