<svg id="Bold" xmlns="http://www.w3.org/2000/svg" viewBox="0 0 24 24"><title>ceiling-ball-chandelier-retro</title><path d="M22.975,6.764a.558.558,0,0,0-.949,0,6.324,6.324,0,0,0-1.015,2.246,1.47,1.47,0,0,0,.366.971.5.5,0,0,1,.123.328v.94a4.243,4.243,0,0,1-7.822,2.287.25.25,0,0,1,.266-.379,3.569,3.569,0,0,0,.806.092A3.754,3.754,0,0,0,18.5,9.5V7.811a.5.5,0,0,1,.123-.328,1.474,1.474,0,0,0,.366-.972,6.337,6.337,0,0,0-1.014-2.246.558.558,0,0,0-.949,0,6.353,6.353,0,0,0-1.015,2.247,1.47,1.47,0,0,0,.366.971.5.5,0,0,1,.123.328V9.5a1.75,1.75,0,0,1-3.5,0V4.977a.5.5,0,0,0-.547-.5c-.15.014-.3.022-.453.022s-.3-.008-.453-.022a.5.5,0,0,0-.547.5V9.5a1.75,1.75,0,0,1-3.5,0V7.811a.5.5,0,0,1,.123-.328,1.474,1.474,0,0,0,.366-.972A6.349,6.349,0,0,0,6.975,4.264a.559.559,0,0,0-.95,0A6.337,6.337,0,0,0,5.011,6.511a1.47,1.47,0,0,0,.366.971A.5.5,0,0,1,5.5,7.81V9.5a3.754,3.754,0,0,0,3.75,3.75,3.569,3.569,0,0,0,.806-.092.25.25,0,0,1,.266.379A4.243,4.243,0,0,1,2.5,11.25v-.939a.5.5,0,0,1,.123-.328,1.474,1.474,0,0,0,.366-.972A6.349,6.349,0,0,0,1.975,6.764a.559.559,0,0,0-.95,0A6.337,6.337,0,0,0,.011,9.011a1.47,1.47,0,0,0,.366.971A.5.5,0,0,1,.5,10.31v.94a6.262,6.262,0,0,0,4.629,6.037.5.5,0,0,1,.371.482V20.19a.5.5,0,0,1-.123.328,1.472,1.472,0,0,0-.366.971,6.342,6.342,0,0,0,1.015,2.246.557.557,0,0,0,.948,0,6.346,6.346,0,0,0,1.015-2.247,1.47,1.47,0,0,0-.366-.971.5.5,0,0,1-.123-.329V17.853a.469.469,0,0,1,.383-.461A6.211,6.211,0,0,0,10.6,16.165a.25.25,0,0,1,.4.2V18.19a.5.5,0,0,1-.123.328,1.472,1.472,0,0,0-.366.971,6.346,6.346,0,0,0,1.015,2.247.558.558,0,0,0,.949,0,6.337,6.337,0,0,0,1.014-2.246,1.47,1.47,0,0,0-.366-.971A.5.5,0,0,1,13,18.189V16.362a.25.25,0,0,1,.4-.2,6.22,6.22,0,0,0,2.689,1.223.5.5,0,0,1,.407.491V20.2a.5.5,0,0,1-.123.328,1.452,1.452,0,0,0-.366.959,6.328,6.328,0,0,0,1.015,2.247.558.558,0,0,0,.949,0,6.351,6.351,0,0,0,1.014-2.247,1.452,1.452,0,0,0-.366-.959A.5.5,0,0,1,18.5,20.2V17.769a.5.5,0,0,1,.37-.482A6.261,6.261,0,0,0,23.5,11.25v-.94a.5.5,0,0,1,.123-.328,1.47,1.47,0,0,0,.366-.971A6.367,6.367,0,0,0,22.975,6.764Z"/><path d="M15.877.751A.5.5,0,0,0,15.445,0H8.555a.5.5,0,0,0-.433.751A4.51,4.51,0,0,0,12,3,4.508,4.508,0,0,0,15.877.751Z"/></svg>