<svg id="Bold" xmlns="http://www.w3.org/2000/svg" viewBox="0 0 24 24"><title>ceiling-lamp-chandelier</title><path d="M10.443,15.992a.99.99,0,0,0-1.807-.808A14.731,14.731,0,0,1,6.725,18.3a.5.5,0,0,1-.5.161,2.166,2.166,0,0,0-.532-.068,2.227,2.227,0,1,0,2.227,2.227,1.914,1.914,0,0,0-.035-.358A.493.493,0,0,1,8,19.835,16.236,16.236,0,0,0,10.443,15.992ZM5.691,21.361a.743.743,0,1,1,.742-.743A.743.743,0,0,1,5.691,21.361Z"/><path d="M4.236,17.654a.486.486,0,0,1,.193-.175,10.242,10.242,0,0,0,5.592-7.172.989.989,0,1,0-1.952-.325,7.828,7.828,0,0,1-3.415,5.066.494.494,0,0,1-.648-.074,2.228,2.228,0,1,0,.23,2.68Zm-1.872-.445a.742.742,0,1,1,.743-.742A.742.742,0,0,1,2.364,17.209Z"/><path d="M13.228,19.918A.5.5,0,0,1,13,19.5V10.639a.99.99,0,1,0-1.979,0V19.5a.5.5,0,0,1-.224.415,2.227,2.227,0,1,0,2.428,0Zm-1.214,2.6a.742.742,0,1,1,.742-.742A.742.742,0,0,1,12.014,22.515Z"/><path d="M21.636,14.24A2.211,2.211,0,0,0,20,14.962a.494.494,0,0,1-.646.071,7.816,7.816,0,0,1-3.4-5.051.989.989,0,1,0-1.952.325,10.234,10.234,0,0,0,5.554,7.153.511.511,0,0,1,.194.178,2.222,2.222,0,1,0,1.881-3.4Zm0,2.969a.742.742,0,1,1,.742-.742A.743.743,0,0,1,21.636,17.209Z"/><path d="M18.337,18.391a2.181,2.181,0,0,0-.533.068.5.5,0,0,1-.5-.161,14.772,14.772,0,0,1-1.911-3.114.989.989,0,1,0-1.806.808,16.2,16.2,0,0,0,2.439,3.843.5.5,0,0,1,.121.425,1.914,1.914,0,0,0-.035.358,2.227,2.227,0,1,0,2.227-2.227Zm0,2.97a.743.743,0,1,1,.742-.743A.743.743,0,0,1,18.337,21.361Z"/><path d="M3.672,8.532a.989.989,0,0,0,1.287.552,18.307,18.307,0,0,1,14.11,0A.99.99,0,1,0,19.8,7.246,20.933,20.933,0,0,0,14.076,5.8a.093.093,0,0,1-.083-.1v-1A1.976,1.976,0,0,0,13,2.99a.5.5,0,0,1-.247-.429V.742a.742.742,0,1,0-1.484,0V2.561a.5.5,0,0,1-.248.429,1.976,1.976,0,0,0-.99,1.711v1a.093.093,0,0,1-.084.1A20.933,20.933,0,0,0,4.223,7.246.99.99,0,0,0,3.672,8.532Z"/></svg>