<svg id="Bold" xmlns="http://www.w3.org/2000/svg" viewBox="0 0 24 24"><title>chair-retro</title><path d="M19.75,18.5a4.548,4.548,0,0,0-.469-1.994.25.25,0,0,1,.03-.265A1.981,1.981,0,0,0,19.75,15a2,2,0,0,0-2-2H6.25a2,2,0,0,0-2,2,1.981,1.981,0,0,0,.439,1.241.25.25,0,0,1,.03.265A4.548,4.548,0,0,0,4.25,18.5a7.325,7.325,0,0,0,.5,2.149,9.965,9.965,0,0,1,.384,1.358A1,1,0,0,0,5.25,24a1.8,1.8,0,0,0,1.557-.707c.635-.88.229-2.1-.164-3.275A6.536,6.536,0,0,1,6.25,18.5a2.643,2.643,0,0,1,.325-1.235A.5.5,0,0,1,7.017,17h9.967a.5.5,0,0,1,.441.265A2.646,2.646,0,0,1,17.75,18.5a6.536,6.536,0,0,1-.393,1.518c-.393,1.177-.8,2.395-.164,3.275A1.8,1.8,0,0,0,18.75,24a1,1,0,0,0,.12-1.993,9.965,9.965,0,0,1,.384-1.358A7.325,7.325,0,0,0,19.75,18.5Z"/><path d="M6.75,10a7.852,7.852,0,0,1-.055.939.5.5,0,0,0,.5.561h9.616a.5.5,0,0,0,.5-.561A7.852,7.852,0,0,1,17.25,10a5.034,5.034,0,0,1,1.009-2.81A5,5,0,0,0,19.25,4.5,4.457,4.457,0,0,0,14.75,0H9.25a4.457,4.457,0,0,0-4.5,4.5,5,5,0,0,0,.991,2.69A5.034,5.034,0,0,1,6.75,10Z"/></svg>