<svg id="Bold" xmlns="http://www.w3.org/2000/svg" viewBox="0 0 24 24"><title>chair-bar-1</title><path d="M18.883.75H5.117A1.69,1.69,0,0,0,3.5,2.5,1.69,1.69,0,0,0,5.117,4.25H18.883A1.69,1.69,0,0,0,20.5,2.5,1.69,1.69,0,0,0,18.883.75Z"/><path d="M18.1,5.25H5.9a.25.25,0,0,0-.176.427l.841.841a2.5,2.5,0,0,0,1.767.732H10.75A.25.25,0,0,1,11,7.5V9.767a.2.2,0,0,1-.1.167l-.843.421a1,1,0,0,0,.859,1.806c.049-.019.088.006.088.085v1.019a.182.182,0,0,1-.091.162l-.856.428a1,1,0,0,0,.862,1.8c.011-.005.085-.047.085.055s0,.689,0,.871a.272.272,0,0,1-.191.279A6.5,6.5,0,0,0,5.8,21.286,1.507,1.507,0,0,0,7.235,23.25a1.462,1.462,0,0,0,1.413-1.01,3.5,3.5,0,0,1,6.7,0,1.462,1.462,0,0,0,1.413,1.01A1.507,1.507,0,0,0,18.2,21.286a6.5,6.5,0,0,0-5-4.419.239.239,0,0,1-.2-.234c0-.42,0-1.4,0-1.816,0-.123.03-.214.109-.253s.838-.419.838-.419a1,1,0,0,0-.867-1.8.06.06,0,0,1-.08-.061V11.235a.188.188,0,0,1,.078-.155l.869-.435a1,1,0,0,0-.834-1.817c-.069.028-.113,0-.113-.046V7.5a.25.25,0,0,1,.25-.25h2.422a2.5,2.5,0,0,0,1.767-.732l.841-.841A.25.25,0,0,0,18.1,5.25Z"/></svg>