<svg id="Bold" xmlns="http://www.w3.org/2000/svg" viewBox="0 0 24 24"><title>chair-1</title><path d="M18,18.5H17a.5.5,0,0,0-.5.5v4a1,1,0,0,0,2,0V19A.5.5,0,0,0,18,18.5Z"/><path d="M7,18.5H6a.5.5,0,0,0-.5.5v4a1,1,0,0,0,2,0V19A.5.5,0,0,0,7,18.5Z"/><path d="M21.5,15a1,1,0,0,0-1-1H19a.5.5,0,0,1-.5-.5v-4A.5.5,0,0,1,19,9a1,1,0,0,0,1-1V4a1,1,0,0,0-1-1,.5.5,0,0,1-.5-.5V1a1,1,0,0,0-2,0V2.5A.5.5,0,0,1,16,3H8a.5.5,0,0,1-.5-.5V1a1,1,0,0,0-2,0V2.5A.5.5,0,0,1,5,3,1,1,0,0,0,4,4V8A1,1,0,0,0,5,9a.5.5,0,0,1,.5.5v4A.5.5,0,0,1,5,14H3.5a1,1,0,0,0-1,1v1a1,1,0,0,0,1,1h17a1,1,0,0,0,1-1ZM16,9a.5.5,0,0,1,.5.5v4a.5.5,0,0,1-.5.5H8a.5.5,0,0,1-.5-.5v-4A.5.5,0,0,1,8,9Z"/></svg>