<svg id="Bold" xmlns="http://www.w3.org/2000/svg" viewBox="0 0 24 24"><title>chair-modern</title><path d="M20.746,13.932l-.641-1.5a1.5,1.5,0,0,0-1.379-.912H13.945A3.5,3.5,0,0,1,10.6,9.04l-2.2-7.247A2.5,2.5,0,0,0,6,.02H4.134a1,1,0,0,0-.555,1.832l.776.518a1.5,1.5,0,0,1,.666,1.189l.314,8.134a4.457,4.457,0,0,0,1.554,3.213.244.244,0,0,1,.071.273L4.051,22.658a1,1,0,0,0,.569,1.294,3.62,3.62,0,0,0,1.133-.039l6.117-3.094a.248.248,0,0,1,.225,0l6.117,3.094a3.619,3.619,0,0,0,1.133.039,1,1,0,0,0,.569-1.294l-2.449-6.3a.25.25,0,0,1,.233-.341h1.668a1.5,1.5,0,0,0,1.38-2.088ZM6.951,20.717l.713-1.832a.25.25,0,0,1,.345-.133l1.317.666a.25.25,0,0,1,0,.446s-2.032,1.018-2.169,1.1S6.887,20.882,6.951,20.717Zm9.889.26-2.2-1.113a.25.25,0,0,1,0-.446l1.317-.666a.25.25,0,0,1,.345.133s.681,1.777.736,1.892A.15.15,0,0,1,16.84,20.977Zm-1.553-4.128L12.1,18.463a.248.248,0,0,1-.225,0s-3.138-1.584-3.22-1.628a.2.2,0,0,1-.1-.235l.2-.524c.04-.1.219-.145.295-.131a4.262,4.262,0,0,0,.78.075h5.131a.345.345,0,0,1,.295.178l.113.291C15.416,16.609,15.388,16.8,15.287,16.849Z"/></svg>