<svg id="Bold" xmlns="http://www.w3.org/2000/svg" viewBox="0 0 24 24"><title>chair-5</title><path d="M23.274,5.017a2.5,2.5,0,0,0-3.522-3.548A11.58,11.58,0,0,1,12,4.249,11.568,11.568,0,0,1,4.266,1.482,2.5,2.5,0,0,0,.731,5.017,16.7,16.7,0,0,0,12,9.249,16.713,16.713,0,0,0,23.274,5.017Z"/><path d="M21.751,22.91a1,1,0,0,0-.089-1.411l-7.937-7a.249.249,0,0,1,0-.375l2.837-2.5a.5.5,0,0,0-.331-.875H14.72a.5.5,0,0,0-.331.125l-2.224,1.961a.25.25,0,0,1-.33,0L9.611,10.874a.5.5,0,0,0-.331-.125H7.769a.5.5,0,0,0-.331.875l2.838,2.5a.251.251,0,0,1,0,.375l-7.938,7A1,1,0,1,0,3.66,23l8.175-7.207a.25.25,0,0,1,.33,0L20.34,23a1,1,0,0,0,1.411-.089Z"/></svg>