<svg id="Bold" xmlns="http://www.w3.org/2000/svg" viewBox="0 0 24 24"><title>champagne-bottle</title><path d="M16.326,11.511a.267.267,0,0,0-.461-.074,4.821,4.821,0,0,1-3.842,1.813H12a4.818,4.818,0,0,1-3.844-1.839.276.276,0,0,0-.479.076A11.188,11.188,0,0,0,7,15.258V21.5A2.5,2.5,0,0,0,9.5,24h5A2.5,2.5,0,0,0,17,21.5V15.258A11.193,11.193,0,0,0,16.326,11.511ZM15,19a1,1,0,0,1-1,1H10a1,1,0,0,1-1-1V17a1,1,0,0,1,1-1h4a1,1,0,0,1,1,1Z"/><path d="M9.348,10.5a3.325,3.325,0,0,0,2.661,1.255h.014a3.328,3.328,0,0,0,2.66-1.237c.1-.131.365-.473.565-.721a.5.5,0,0,0,.057-.537A11.774,11.774,0,0,1,14,3.868V1.5A1.5,1.5,0,0,0,12.5,0h-1A1.5,1.5,0,0,0,10,1.5V3.868A12.085,12.085,0,0,1,8.73,9.212a.5.5,0,0,0,.049.546C8.983,10.016,9.252,10.371,9.348,10.5ZM12,7.5a1,1,0,1,1-1,1A1,1,0,0,1,12,7.5Z"/></svg>