<svg id="Bold" xmlns="http://www.w3.org/2000/svg" viewBox="0 0 24 24"><title>chef-gear-biscuits</title><path d="M5.5,1.5A5.506,5.506,0,0,0,0,7V17a5.5,5.5,0,0,0,11,0V7A5.506,5.506,0,0,0,5.5,1.5ZM4.205,11.763a5.532,5.532,0,0,1,0,3.474,4.026,4.026,0,0,0,0,2.526.749.749,0,0,1-.474.948.731.731,0,0,1-.237.039.75.75,0,0,1-.712-.513,5.532,5.532,0,0,1,0-3.474,4.026,4.026,0,0,0,0-2.526,5.532,5.532,0,0,1,0-3.474,4.026,4.026,0,0,0,0-2.526.75.75,0,1,1,1.423-.474,5.532,5.532,0,0,1,0,3.474A4.026,4.026,0,0,0,4.205,11.763Zm4.013,0a5.532,5.532,0,0,1,0,3.474,4.026,4.026,0,0,0,0,2.526.75.75,0,1,1-1.423.474,5.532,5.532,0,0,1,0-3.474,4.026,4.026,0,0,0,0-2.526,5.532,5.532,0,0,1,0-3.474,4.026,4.026,0,0,0,0-2.526.75.75,0,0,1,1.423-.474,5.532,5.532,0,0,1,0,3.474A4.026,4.026,0,0,0,8.218,11.763Z"/><path d="M18.5,1.5A5.506,5.506,0,0,0,13,7V17a5.5,5.5,0,0,0,11,0V7A5.506,5.506,0,0,0,18.5,1.5ZM17.2,11.763a5.532,5.532,0,0,1,0,3.474,4.026,4.026,0,0,0,0,2.526.749.749,0,0,1-.474.948.731.731,0,0,1-.237.039.75.75,0,0,1-.712-.513,5.532,5.532,0,0,1,0-3.474,4.026,4.026,0,0,0,0-2.526,5.532,5.532,0,0,1,0-3.474,4.026,4.026,0,0,0,0-2.526A.75.75,0,1,1,17.2,5.763a5.532,5.532,0,0,1,0,3.474A4.026,4.026,0,0,0,17.2,11.763Zm4.013,0a5.532,5.532,0,0,1,0,3.474,4.026,4.026,0,0,0,0,2.526.75.75,0,1,1-1.423.474,5.532,5.532,0,0,1,0-3.474,4.026,4.026,0,0,0,0-2.526,5.532,5.532,0,0,1,0-3.474,4.026,4.026,0,0,0,0-2.526.75.75,0,0,1,1.423-.474,5.532,5.532,0,0,1,0,3.474A4.026,4.026,0,0,0,21.218,11.763Z"/></svg>