<svg id="Bold" xmlns="http://www.w3.org/2000/svg" viewBox="0 0 24 24"><title>chef-gear-hat-1</title><path d="M17,2.5a7.925,7.925,0,0,0-3.246.832.25.25,0,0,0-.047.424c1.224.951,2.684,2.133,3.935,2.342A.75.75,0,1,1,17.4,7.577c-1.9-.316-3.587-1.9-5.4-3.235A9.6,9.6,0,0,0,7,2.5c-4.6,0-7,3.019-7,6a6.6,6.6,0,0,0,3.769,5.943A.5.5,0,0,0,4,14.5H20a.5.5,0,0,0,.231-.057A6.6,6.6,0,0,0,24,8.5C24,5.519,21.6,2.5,17,2.5Z"/><path d="M20,16H17.75a.5.5,0,0,0-.5.5V19a.75.75,0,0,1-1.5,0V16.5a.5.5,0,0,0-.5-.5h-2a.5.5,0,0,0-.5.5V19a.75.75,0,0,1-1.5,0V16.5a.5.5,0,0,0-.5-.5h-2a.5.5,0,0,0-.5.5V19a.75.75,0,0,1-1.5,0V16.5a.5.5,0,0,0-.5-.5H4a.5.5,0,0,0-.5.5V20A1.5,1.5,0,0,0,5,21.5H19A1.5,1.5,0,0,0,20.5,20V16.5A.5.5,0,0,0,20,16Z"/></svg>