<svg id="Bold" xmlns="http://www.w3.org/2000/svg" viewBox="0 0 24 24"><title>chef-gear-dumplings</title><path d="M12,0A12,12,0,1,0,24,12,12,12,0,0,0,12,0ZM9.952,5.783,12.78,2.694a.6.6,0,0,1,.846-.037A2.692,2.692,0,0,1,9.99,6.629.6.6,0,0,1,9.952,5.783Zm-2.746,11.2a2.692,2.692,0,0,1-3.7-.9.6.6,0,0,1,.2-.822l3.579-2.176a.6.6,0,0,1,.822.2A2.692,2.692,0,0,1,7.206,16.987Zm1.115-6.76A2.692,2.692,0,0,1,4.545,6.388a.6.6,0,0,1,.846.007L8.328,9.381A.6.6,0,0,1,8.321,10.227ZM12,9.5A2.5,2.5,0,1,1,9.5,12,2.5,2.5,0,0,1,12,9.5Zm2.919,10.163a2.693,2.693,0,0,1-4.653-2.712.6.6,0,0,1,.818-.215L14.7,18.845A.6.6,0,0,1,14.919,19.663Zm3.868-2.676a2.693,2.693,0,0,1-3.7-.9.6.6,0,0,1,.2-.822l3.578-2.176a.6.6,0,0,1,.822.2A2.692,2.692,0,0,1,18.787,16.987Zm-.565-6.406a2.692,2.692,0,0,1-3.075-2.246.6.6,0,0,1,.5-.683l4.138-.645a.6.6,0,0,1,.684.5A2.693,2.693,0,0,1,18.222,10.581Z"/><circle cx="12" cy="12" r="1"/></svg>