<svg id="Bold" xmlns="http://www.w3.org/2000/svg" viewBox="0 0 24 24"><title>chef-gear-cookies</title><path d="M7.985,13.294a8.44,8.44,0,0,0,1.491.134,7.564,7.564,0,0,0,1.7-.189.25.25,0,0,0,.072-.458A7.814,7.814,0,0,1,9.826,11.7a5.232,5.232,0,0,1-1.7-4.663A4.58,4.58,0,0,1,8.84,5.266a.251.251,0,0,0-.187-.389,7.255,7.255,0,0,0-3.5.526A3.714,3.714,0,0,0,2.8,8.077C2.393,10.368,4.717,12.708,7.985,13.294Z"/><path d="M14.781,12.514a8.633,8.633,0,0,0,1.514.136,7,7,0,0,0,2.811-.554,3.716,3.716,0,0,0,2.346-2.674c.41-2.291-1.914-4.631-5.182-5.217S10.009,5.007,9.6,7.3A3.718,3.718,0,0,0,10.87,10.62,7.546,7.546,0,0,0,14.781,12.514Zm1.712-6.061a.75.75,0,0,1,.959.453l.576,1.6a.75.75,0,0,1-1.412.507l-.576-1.6A.75.75,0,0,1,16.493,6.453Zm-2.952.537a.749.749,0,0,1,.959.452L15.059,9a.75.75,0,0,1-1.412.508l-.559-1.555A.751.751,0,0,1,13.541,6.99Z"/><path d="M23.5,11.43a.5.5,0,0,0-.5.5c0,1.252-4.185,3-11,3s-11-1.748-11-3a.5.5,0,0,0-1,0v.5c0,4.135,5.383,7.5,12,7.5s12-3.365,12-7.5v-.5A.5.5,0,0,0,23.5,11.43Z"/></svg>