<svg id="Bold" xmlns="http://www.w3.org/2000/svg" viewBox="0 0 24 24"><title>chicken-mother</title><path d="M15.57,8.918a.5.5,0,0,0-.239-.349,9.123,9.123,0,0,0-1.1-.546.249.249,0,0,0-.343.192,5.642,5.642,0,0,1-2.25,4.117,4.551,4.551,0,0,1-3.821.37A.75.75,0,0,1,8.337,11.3a3.116,3.116,0,0,0,2.5-.234c.854-.554,1.389-1.685,1.605-3.353a.251.251,0,0,0-.208-.279,6.331,6.331,0,0,0-4,.576.25.25,0,0,1-.356-.289A18.28,18.28,0,0,0,8.577,3,2.995,2.995,0,0,0,3.13,1.276c-.208.062-3.8,1.942-3.018,4.448.385,1.233,1.774,1.63,4.561.183a13.5,13.5,0,0,0-2.089,5.011,4.45,4.45,0,0,0,.791,3.759,4.37,4.37,0,0,0,1.7,1.184V18.25a1,1,0,1,0,2,0V16.375a13.305,13.305,0,0,0,2.25.114V18.25a1,1,0,0,0,2,0V16.2a5.791,5.791,0,0,0,2.863-1.815A6.79,6.79,0,0,0,15.57,8.918ZM6.327,2.75a1,1,0,1,1-1-1A1,1,0,0,1,6.327,2.75ZM1.543,5.276c-.2-.65.411-1.365,1.066-1.9a2.971,2.971,0,0,0,.68,1.55C2.524,5.28,1.722,5.431,1.543,5.276Z"/><path d="M21.5,17.317a2.99,2.99,0,1,0-5.6-2.084H15.21a1,1,0,0,0,0,2H15.9a3,3,0,0,0,1.3,1.576,2.586,2.586,0,0,0,.8,3.256V23a1,1,0,0,0,2,0v-.419c.1-.007.2-.014.3-.028l.254.763a1,1,0,1,0,1.9-.631l-.3-.9A3.736,3.736,0,0,0,23.5,18.993a1,1,0,0,0-.293-.707A4.141,4.141,0,0,0,21.5,17.317Zm-2.553,2.5c.471-1.4,2.156-.553,2.479-.378a1.551,1.551,0,0,1-1.168,1.088,1.218,1.218,0,0,1-1.182-.153A.586.586,0,0,1,18.947,19.813Zm-.237-4.58a1,1,0,1,1-1,1A1,1,0,0,1,18.71,15.233Z"/><path d="M15.71,5.237H16.4a2.994,2.994,0,0,0,1.3,1.576,2.588,2.588,0,0,0,.8,3.257V11a1,1,0,0,0,2,0v-.42c.1-.007.2-.014.3-.028l.255.764a1,1,0,0,0,1.9-.632l-.3-.9A3.737,3.737,0,0,0,24,7a1,1,0,0,0-.293-.707A4.152,4.152,0,0,0,22,5.321a2.99,2.99,0,1,0-5.6-2.084H15.71a1,1,0,0,0,0,2Zm5.048,3.29c-1.05.263-1.458-.259-1.311-.71.471-1.4,2.156-.552,2.479-.378A1.549,1.549,0,0,1,20.758,8.527ZM19.21,3.237a1,1,0,1,1-1,1A1,1,0,0,1,19.21,3.237Z"/></svg>