<svg id="Bold" xmlns="http://www.w3.org/2000/svg" viewBox="0 0 24 24"><title>christmas-tree</title><path d="M8.67,6.954a.251.251,0,0,1,.158.384L8.007,8.57a.25.25,0,0,0,.279.378l6.488-1.919a1.177,1.177,0,0,1,.328-.047,1,1,0,0,0,.849-1.527l-3.1-5a1.045,1.045,0,0,0-1.7,0l-3.1,5a1,1,0,0,0-.025,1.012A.922.922,0,0,0,8.67,6.954ZM12,4.232a.75.75,0,1,1-.75.75A.75.75,0,0,1,12,4.232Z"/><path d="M6.935,12.982H7.5a.25.25,0,0,1,.2.4L6.242,15.326a.25.25,0,0,0,.269.39l9.353-2.695a1,1,0,0,1,.277-.039h.924a1,1,0,0,0,.832-1.555L15.719,8.159a.5.5,0,0,0-.558-.2L7.106,10.34a1,1,0,0,0-.548.4l-.455.683a1,1,0,0,0,.832,1.555Zm7.565-2.75a.75.75,0,1,1-.75.75A.75.75,0,0,1,14.5,10.232Zm-4,1a.75.75,0,1,1-.75.75A.75.75,0,0,1,10.5,11.232Z"/><path d="M19.3,17.382l-2.444-3.258a.5.5,0,0,0-.538-.181L4.954,17.207a.489.489,0,0,0-.255.175,1,1,0,0,0,.8,1.6h5a.5.5,0,0,1,.5.5v3.5a1,1,0,0,0,2,0v-3.5a.5.5,0,0,1,.5-.5h5a1,1,0,0,0,.8-1.6Zm-7.8.35a.75.75,0,1,1,.75-.75A.75.75,0,0,1,11.5,17.732Zm5-.5a.75.75,0,1,1,.75-.75A.75.75,0,0,1,16.5,17.232Z"/></svg>