<svg id="Bold" xmlns="http://www.w3.org/2000/svg" viewBox="0 0 24 24"><title>christmas-angel</title><path d="M14.174,22.23c-5.3-.089-8.948-3.493-11.107-8.334a.5.5,0,0,0-.59-.278c-.118.033-.238.066-.363.1a1.5,1.5,0,0,0-.985,2.057C2.5,18.874,5.755,24,12.265,24c.138,0,.276,0,.417-.007a1.49,1.49,0,0,0,1.153-.6q.282-.378.544-.773a.25.25,0,0,0-.205-.388Z"/><path d="M23,3.375C23,1.4,19.89.5,17,.5s-6,.9-6,2.875a2.373,2.373,0,0,0,1.625,2.058.25.25,0,0,1,.11.349,4.357,4.357,0,0,0-.563,1.775.25.25,0,0,1-.4.178A28.463,28.463,0,0,1,5.329.668,1.5,1.5,0,0,0,2.919.553a7.232,7.232,0,0,0,.4,9.714A7.054,7.054,0,0,0,6.163,12a.25.25,0,0,1,.009.473q-.6.217-1.286.434a.5.5,0,0,0-.3.69C6.1,16.827,9.256,21.086,15.2,20.7a.5.5,0,0,0,.419-.282,25.266,25.266,0,0,0,2.171-7.783.5.5,0,0,1,.331-.408,4.489,4.489,0,0,0,3.022-4.23,4.4,4.4,0,0,0-.482-1.983.25.25,0,0,1,.139-.348C22.213,5.155,23,4.362,23,3.375ZM10.624,9.835a5.191,5.191,0,0,1-5.9-.982A5.178,5.178,0,0,1,3.674,3.128a.5.5,0,0,1,.864-.1,29.009,29.009,0,0,0,6.128,6.375.251.251,0,0,1-.042.428Zm6.022.658a2.5,2.5,0,1,1,2.5-2.5A2.5,2.5,0,0,1,16.646,10.493Zm3.925-6.9a5.739,5.739,0,0,1-1.53.474.508.508,0,0,1-.325-.05,4.309,4.309,0,0,0-3.943-.1.5.5,0,0,1-.335.031,4.992,4.992,0,0,1-1-.358.25.25,0,0,1,0-.448A8.435,8.435,0,0,1,17,2.5a8.415,8.415,0,0,1,3.568.65.25.25,0,0,1,0,.447Z"/></svg>