<svg id="Bold" xmlns="http://www.w3.org/2000/svg" viewBox="0 0 24 24"><title>christmas-snow</title><circle cx="1" cy="1" r="1"/><circle cx="1" cy="9.5" r="1"/><circle cx="4.5" cy="4.5" r="1"/><circle cx="9.5" cy="1.5" r="1"/><circle cx="8" cy="7" r="1"/><circle cx="13.5" cy="4.5" r="1"/><circle cx="17.5" cy="1" r="1"/><circle cx="23" cy="3.5" r="1"/><circle cx="11.5" cy="11" r="1"/><path d="M23.709,15.774a8.419,8.419,0,0,0-2.755-.746.5.5,0,0,1-.454-.5V13.437a.5.5,0,0,1,.5-.5h1.482a.622.622,0,0,0,.439-1.062l-.881-1.127a.25.25,0,0,1,.133-.395.623.623,0,0,0,.3-1.051L21.248,7.747a.249.249,0,0,1,.129-.4.627.627,0,0,0,.254-1.095L19.868,4.349a.5.5,0,0,0-.736,0L17.369,6.256a.627.627,0,0,0,.254,1.095.249.249,0,0,1,.129.4L16.523,9.3a.623.623,0,0,0,.3,1.051.25.25,0,0,1,.133.395l-.881,1.127a.622.622,0,0,0,.439,1.062H18a.5.5,0,0,1,.5.5v1.345a.5.5,0,0,1-.373.483A8.694,8.694,0,0,0,15.594,16.4l-1.438.933c-.138.09-.6.431-1.169.848-.41.3-.99.73-1.51,1.105a.25.25,0,0,0,.084.445l3.174.823a12.156,12.156,0,0,0,7.953-.656l1.015-.45a.5.5,0,0,0,.3-.457V16.229A.5.5,0,0,0,23.709,15.774Z"/><path d="M23.3,21.265A13.661,13.661,0,0,1,14.358,22L10.1,20.9a14.55,14.55,0,0,0-4.089-.466.506.506,0,0,1-.363-.142.5.5,0,0,1-.152-.358v-.5a.5.5,0,0,1,.5-.5H7.482a.622.622,0,0,0,.439-1.062L7.04,16.748a.25.25,0,0,1,.133-.395.623.623,0,0,0,.3-1.051L6.248,13.747a.249.249,0,0,1,.129-.4.627.627,0,0,0,.254-1.1L4.868,10.349a.5.5,0,0,0-.736,0L2.369,12.256a.627.627,0,0,0,.254,1.1.249.249,0,0,1,.129.4L1.523,15.3a.623.623,0,0,0,.3,1.051.25.25,0,0,1,.133.395l-.881,1.127a.622.622,0,0,0,.439,1.062H3a.5.5,0,0,1,.5.5v.89a.5.5,0,0,1-.385.486,14.69,14.69,0,0,0-2.1.663l-.7.281A.5.5,0,0,0,0,22.222V23.5a.5.5,0,0,0,.5.5h23a.5.5,0,0,0,.5-.5V21.722a.5.5,0,0,0-.228-.42A.5.5,0,0,0,23.3,21.265Z"/></svg>