<svg id="Bold" xmlns="http://www.w3.org/2000/svg" viewBox="0 0 24 24"><title>christmas-mistletoe</title><path d="M6.156,13.015,4.967,11.706A.75.75,0,1,1,6.076,10.7L7.66,12.441a.5.5,0,0,0,.478.152,4.036,4.036,0,0,1,1.1-.086.25.25,0,0,0,.265-.236,3.98,3.98,0,0,1,.815-2.2.5.5,0,0,0,.054-.52,1.489,1.489,0,0,0-1.2-.838L7.055,8.5a.5.5,0,0,1-.375-.234L5.719,6.712A1.508,1.508,0,0,0,4.442,6H1.5A1.5,1.5,0,0,0,0,7.5V9.794A1.508,1.508,0,0,0,.727,11.08l1.717,1.033a.5.5,0,0,1,.243.426L2.7,14.6A1.493,1.493,0,0,0,3.763,16.03l.655.2a.5.5,0,0,0,.638-.4A3.985,3.985,0,0,1,6.143,13.7.5.5,0,0,0,6.156,13.015Z"/><path d="M22.313,2.5H18.822a1.676,1.676,0,0,0-1.434.8L16.247,5.144a.686.686,0,0,1-.515.322l-2.515.254a1.679,1.679,0,0,0-1.486,1.347l-.309,1.549a.25.25,0,0,0,.353.274,4.008,4.008,0,0,1,3.773.173.5.5,0,0,0,.626-.093L17.59,7.411A.75.75,0,1,1,18.7,8.42l-1.554,1.71a.5.5,0,0,0-.076.563,4,4,0,0,1-.146,3.878.25.25,0,0,0,.286.369l2.393-.721a1.678,1.678,0,0,0,1.2-1.607l.012-2.447a.687.687,0,0,1,.333-.585l2.037-1.226A1.7,1.7,0,0,0,24,6.909V4.187A1.689,1.689,0,0,0,22.313,2.5Z"/><path d="M11.835,15.518a3,3,0,1,0-1.294,3.556,4,4,0,0,1,1.294-3.556Z"/><path d="M12.683,14.936A3.977,3.977,0,0,1,14.5,14.5a4.048,4.048,0,0,1,1.091.15A3,3,0,1,0,10.5,12.5a2.924,2.924,0,0,0,.015.3A4.016,4.016,0,0,1,12.683,14.936Z"/><circle cx="14.5" cy="18.5" r="3"/></svg>