<svg id="Bold" xmlns="http://www.w3.org/2000/svg" viewBox="0 0 24 24"><title>christmas-santa</title><path d="M16.869,21.454a2.194,2.194,0,0,1-2.641-2.17,2.572,2.572,0,0,0-4.176-2,.5.5,0,0,1-.605,0,2.573,2.573,0,0,0-4.176,2,2.194,2.194,0,0,1-2.641,2.17.5.5,0,0,0-.357.9,5.512,5.512,0,0,0,7.1-.959.5.5,0,0,1,.754,0,5.514,5.514,0,0,0,7.1.959.5.5,0,0,0-.357-.9Z"/><path d="M23.544,4.662a3,3,0,0,0-4.3-.845.5.5,0,0,1-.649-.054A9.728,9.728,0,0,0,9.055,1.1C5.538,2.106,3.8,4.85,2.935,8.424a.5.5,0,0,1-.408.377A2.994,2.994,0,0,0,3,14.752H16.5a3,3,0,0,0,0-6,.628.628,0,0,1-.572-.369l-.3-.65A1.455,1.455,0,0,1,17.2,5.7l.4.067a.5.5,0,0,1,.417.5,2.938,2.938,0,0,0,.443,1.583,3,3,0,1,0,5.088-3.18ZM16.5,10.752a1,1,0,0,1,0,2H3a1,1,0,0,1,0-2Zm5.3-3.228a1.5,1.5,0,1,1,.478-2.067A1.5,1.5,0,0,1,21.8,7.524Z"/></svg>