<svg xmlns="http://www.w3.org/2000/svg" viewBox="0 0 24 24"><title>church</title><path d="M13.334,8.369A.5.5,0,0,1,13,7.9V5.375a.5.5,0,0,1,.5-.5H14a1,1,0,0,0,0-2h-.5a.5.5,0,0,1-.5-.5v-.5a1,1,0,0,0-2,0v.5a.5.5,0,0,1-.5.5H10a1,1,0,0,0,0,2h.5a.5.5,0,0,1,.5.5V7.9a.5.5,0,0,1-.333.471A3.992,3.992,0,0,0,8,12.125v10.5a.5.5,0,0,0,.5.5h1a.5.5,0,0,0,.5-.5v-4.5a2,2,0,0,1,4,0v4.5a.5.5,0,0,0,.5.5h1a.5.5,0,0,0,.5-.5v-10.5A3.993,3.993,0,0,0,13.334,8.369ZM12,14.125a2,2,0,1,1,2-2A2,2,0,0,1,12,14.125Z"/><path d="M23,21.125h-.5a.5.5,0,0,1-.5-.5V16.982a.307.307,0,0,1,.474-.257,1,1,0,0,0,1.057-1.7l-.008,0-5.751-3.737A.5.5,0,0,0,17,11.7V22.125a1,1,0,0,0,1,1h5a1,1,0,0,0,0-2Z"/><path d="M6.74,11.265a.5.5,0,0,0-.511.02L.478,15.022l-.008,0a1,1,0,0,0,1.057,1.7A.307.307,0,0,1,2,16.982v3.643a.5.5,0,0,1-.5.5H1a1,1,0,0,0,0,2H6a1,1,0,0,0,1-1V11.7A.5.5,0,0,0,6.74,11.265Z"/></svg>