<svg id="Bold" xmlns="http://www.w3.org/2000/svg" viewBox="0 0 24 24"><title>clamp-press-1</title><path d="M19.625,3.25h-8.5a.5.5,0,0,1-.5-.5V2.5a.5.5,0,0,1,.5-.5h1a1,1,0,0,0,0-2h-6a1,1,0,0,0,0,2h1a.5.5,0,0,1,.5.5v.25a.5.5,0,0,1-.5.5H4.656a1.25,1.25,0,0,0,0,2.5H18.867a.5.5,0,0,1,.5.5c.014,1.831.01,8.168.008,10a.5.5,0,0,1-.5.5H4.656a1.25,1.25,0,1,0,0,2.5H7.125a.5.5,0,0,1,.5.5V20a.5.5,0,0,1-.5.5h-1a1,1,0,0,0,0,2h6a1,1,0,0,0,0-2h-1a.5.5,0,0,1-.5-.5v-.25a.5.5,0,0,1,.5-.5h7.75a.5.5,0,0,1,.5.5v3a1.25,1.25,0,0,0,2.5,0V6C21.875,4.1,20.745,3.25,19.625,3.25Z"/><rect x="2.125" y="12" width="14" height="3.5" rx="1" ry="1"/><rect x="2.125" y="7" width="14" height="3.5" rx="1" ry="1"/></svg>