<svg id="Bold" xmlns="http://www.w3.org/2000/svg" viewBox="0 0 24 24"><title>clean-car-gas</title><path d="M22.8,4.1a1,1,0,0,0-1.6-1.2l-2.25,3a1,1,0,0,0-.2.6v9a1,1,0,0,1-1,1H17.5A.5.5,0,0,1,17,16V1.5A1.5,1.5,0,0,0,15.5,0H2.5A1.5,1.5,0,0,0,1,1.5v21A1.5,1.5,0,0,0,2.5,24h13A1.5,1.5,0,0,0,17,22.5V19a.5.5,0,0,1,.5-.5h.25a3,3,0,0,0,3-3V12.433l.027-.017,1.5-1A.5.5,0,0,0,22.5,11V8.5A.5.5,0,0,0,22,8H20.75V6.833ZM11.117,18.219a3.233,3.233,0,0,1-2.788,1.156,2.106,2.106,0,0,1-.721-.285.5.5,0,0,1-.17-.671,6.905,6.905,0,0,1,2.527-2.794.5.5,0,1,0-.447-.895c-2,.992-3.575,4.006-4.247,6.124a.5.5,0,1,1-.956-.292A17.123,17.123,0,0,1,5.7,17.411a.5.5,0,0,0-.043-.558,2.176,2.176,0,0,1-.511-1.375,2.738,2.738,0,0,1,1.37-2.187A6.964,6.964,0,0,1,8.774,12.4a6.506,6.506,0,0,0,2.542-1.091.5.5,0,0,1,.755.19A7.3,7.3,0,0,1,11.117,18.219ZM15,7.5a.5.5,0,0,1-.5.5H3.5A.5.5,0,0,1,3,7.5v-5A.5.5,0,0,1,3.5,2h11a.5.5,0,0,1,.5.5Z"/></svg>