<svg xmlns="http://www.w3.org/2000/svg" viewBox="0 0 24 24"><title>cleaning-woman</title><path d="M11.908,17.978a.247.247,0,0,0,0-.206.251.251,0,0,0-.154-.138,2.211,2.211,0,0,1-1.038-.694,2.178,2.178,0,0,1-.517-1.448.25.25,0,0,0-.259-.253c-.626.022-2,.022-2.653-.012a.249.249,0,0,0-.258.2L6.56,17.906a.5.5,0,0,0,.492.594H8.447V23a1,1,0,0,0,1,1h2a.994.994,0,0,0,.881-.536.249.249,0,0,0,.017-.191C12.163,22.694,11.206,19.486,11.908,17.978Z"/><circle cx="10.447" cy="2.5" r="2.5"/><path d="M4.7,11.5a2.753,2.753,0,0,0,2.75,2.75h2.5a1.25,1.25,0,0,0,0-2.5h-2.5a.251.251,0,0,1-.25-.25,2.677,2.677,0,0,1,.068-.591,4.265,4.265,0,0,1,.193-.561,3.542,3.542,0,0,1,.313-.511.144.144,0,0,1,.256.107l-.1.806H9.947A2.242,2.242,0,0,1,12.1,12.4a.251.251,0,0,0,.4.125l.423-.352a.41.41,0,0,1,.1-.065.25.25,0,0,0,.145-.276L12.866,10.2a.089.089,0,0,1,.165-.061l.008.012a2.682,2.682,0,0,1,.19.41l.563,1.547a.752.752,0,0,1-.224.832l-.155.13h0l-1.766,1.47a1.242,1.242,0,0,0-.308.385,1.258,1.258,0,0,0,.148,1.377l.006,0a1.247,1.247,0,0,0,1.754.155l1.922-1.6a3.26,3.26,0,0,0,.973-3.606l-.563-1.547A5.264,5.264,0,0,0,10.646,6.25h-.7a4.984,4.984,0,0,0-1.317.192.251.251,0,0,1-.273-.1c-.613-.911-.2-.293-2.975-4.416A1,1,0,1,0,3.724,3.042l2.828,4.2a.25.25,0,0,1-.043.328A5.209,5.209,0,0,0,4.7,11.5Z"/><path d="M19.718,18.155a3.751,3.751,0,0,0-5.37-.9,3.894,3.894,0,0,0-.732,5.264l.441.654a1,1,0,0,0,1.388.271l.4-.268a.25.25,0,0,0,.077-.331l-1.256-2.2a.5.5,0,0,1,.869-.5l1.2,2.1a.254.254,0,0,0,.16.119.25.25,0,0,0,.2-.036l1.176-.792a.251.251,0,0,0,.077-.332l-1.18-2.065a.5.5,0,0,1,.869-.5l1.125,1.969a.251.251,0,0,0,.357.083l.492-.331a1,1,0,0,0,.27-1.389Z"/></svg>