<svg xmlns="http://www.w3.org/2000/svg" viewBox="0 0 24 24"><title>cleaning-vacuum</title><path d="M8.5,20H.5a.5.5,0,0,0-.5.5v2A1.5,1.5,0,0,0,1.5,24h6A1.5,1.5,0,0,0,9,22.5v-2A.5.5,0,0,0,8.5,20Z"/><circle cx="4.503" cy="14" r="1"/><path d="M23.862,22.49l-.829-1.16a1.489,1.489,0,0,0-1.341-.83H20.5A.5.5,0,0,1,20,20V18.5a.965.965,0,0,0-.335-.725A.5.5,0,0,1,19.5,17.4V3a3,3,0,0,0-6,0V13.5a.5.5,0,0,1-1,0v-6a4.5,4.5,0,0,0-9,0V9.532a.5.5,0,0,1-.437.5A3.5,3.5,0,0,0,0,13.5V18a.5.5,0,0,0,.5.5h8A.5.5,0,0,0,9,18V13.5a3.5,3.5,0,0,0-3.062-3.472.5.5,0,0,1-.438-.5V7.5a2.5,2.5,0,0,1,5,0v6a2.5,2.5,0,0,0,5,0V3a1,1,0,0,1,2,0V17.4a.5.5,0,0,1-.166.372A.964.964,0,0,0,17,18.5V20a.5.5,0,0,1-.5.5h-1.19a1.481,1.481,0,0,0-1.32.79l-.88,1.26A1,1,0,0,0,14,24h9a1,1,0,0,0,.851-.47A1.042,1.042,0,0,0,23.862,22.49ZM6.5,14a2,2,0,1,1-2-2A2.006,2.006,0,0,1,6.5,14Z"/></svg>