<svg xmlns="http://www.w3.org/2000/svg" viewBox="0 0 24 24"><title>cleaning-vacuum-1</title><path d="M5.492,21.5a4,4,0,0,1,4-4,3.479,3.479,0,0,1,.435.029.5.5,0,0,0,.565-.5V14.5a.5.5,0,0,0-.5-.5H.738a.5.5,0,0,0-.489.4,15.082,15.082,0,0,0,.608,7.559A1.5,1.5,0,0,0,2.285,23H5.434a.25.25,0,0,0,.2-.1.253.253,0,0,0,.038-.223A3.9,3.9,0,0,1,5.492,21.5Z"/><path d="M22.992,24a1,1,0,0,0,.948-1.316l-.666-2A1,1,0,0,0,22.325,20H20.492a.5.5,0,0,1-.5-.5V6.5a6.5,6.5,0,0,0-13,0,.5.5,0,0,1-.5.5,1,1,0,0,0-1,1v.556a.5.5,0,0,1-.434.5,5.128,5.128,0,0,0-3.483,2.16,5.5,5.5,0,0,0-.348.542.5.5,0,0,0,.434.747H9.992a.5.5,0,0,0,.5-.5V8a1,1,0,0,0-1-1,.5.5,0,0,1-.5-.5,4.5,4.5,0,0,1,9,0v13a.5.5,0,0,1-.5.5H15.659a1,1,0,0,0-.949.683h0l-.667,2A1,1,0,0,0,14.992,24Z"/><circle cx="9.492" cy="21.5" r="2.5"/></svg>