<svg xmlns="http://www.w3.org/2000/svg" viewBox="0 0 24 24"><title>cleaning-spray</title><path d="M12.434,10.54A1.493,1.493,0,0,0,11.282,10H10.75a.5.5,0,0,1-.5-.5V8a.5.5,0,0,0-.5-.5h-2a.5.5,0,0,0-.5.5V9.5a.5.5,0,0,1-.5.5H6.218a1.493,1.493,0,0,0-1.152.54L1.557,14.75A5.64,5.64,0,0,0,5.889,24h5.722a5.64,5.64,0,0,0,4.332-9.25Z"/><circle cx="19.25" cy="4" r="1"/><circle cx="22.75" cy="4" r="1"/><circle cx="22.75" cy="1" r="1"/><circle cx="22.75" cy="7" r="1"/><path d="M17.25,3.5a1,1,0,0,0-1-1h-.5a.5.5,0,0,1-.5-.5V1.5a1,1,0,0,0-1-1H7.75A5.506,5.506,0,0,0,2.25,6a.5.5,0,0,0,.5.5h8.132a.5.5,0,0,1,.487.389A3.989,3.989,0,0,0,15.25,10a1,1,0,0,0,0-2,1.994,1.994,0,0,1-1.8-1.143.25.25,0,0,1,.226-.357h.573a1,1,0,0,0,1-1V5a.5.5,0,0,1,.5-.5h.5A1,1,0,0,0,17.25,3.5Z"/></svg>