<svg id="Bold" xmlns="http://www.w3.org/2000/svg" viewBox="0 0 24 24"><title>climbing-mountain</title><path d="M24,.5a.5.5,0,0,0-.5-.5H23a.5.5,0,0,0-.416.223l-1.664,2.5a2.5,2.5,0,0,0-.42,1.386V7.172a1.511,1.511,0,0,1-.439,1.06l-.828.829a2.479,2.479,0,0,0-.733,1.767V15.49c0,.891-1.3,2.669-2.587,3.56l-1.344.471a.248.248,0,0,0-.161.29l.032.146a2.5,2.5,0,0,1-4.734,1.516.249.249,0,0,0-.313-.14l-.558.2a.5.5,0,0,0-.188.118l-1.5,1.5A.5.5,0,0,0,7.5,24h16a.5.5,0,0,0,.5-.5Z"/><path d="M12.325,21.964a1.5,1.5,0,0,0,1.139-1.789L12.9,17.619a4.49,4.49,0,0,0-3.587-3.451l-1.171-.213a.248.248,0,0,1-.175-.364l1.185-2.2a.25.25,0,0,1,.409-.045A4.482,4.482,0,0,0,13.044,13H15.5a1.5,1.5,0,0,0,0-3H13.044a1.51,1.51,0,0,1-1.222-.628c-.073-.1.015,0-1.717-1.887a1.5,1.5,0,0,0-2.425.3L4.19,14.271A1.515,1.515,0,0,0,4,15v3.146L2.158,21.824a1.5,1.5,0,0,0,2.684,1.341l2-3.994A1.5,1.5,0,0,0,7,18.5V16.8l1.772.322a1.5,1.5,0,0,1,1.2,1.151l.568,2.555A1.5,1.5,0,0,0,12.325,21.964Z"/><path d="M3.658,11.325,6.434,6.577A1.5,1.5,0,0,0,5.9,4.525l-.864-.5A1.5,1.5,0,0,0,2.98,4.56L.205,9.309a1.5,1.5,0,0,0,.539,2.05l.864.505A1.5,1.5,0,0,0,3.658,11.325Z"/><circle cx="11.5" cy="3.5" r="2.5"/></svg>