<svg id="Bold" xmlns="http://www.w3.org/2000/svg" viewBox="0 0 24 24"><title>clothes-design-animal-skin</title><path d="M23.351,2.1A1.5,1.5,0,0,0,21.974,0h-.89a1.5,1.5,0,0,0-1.306.765L16.747,6.151a.456.456,0,0,1-.819-.4,4,4,0,1,0-7.856,0c.123.57-.525.887-.819.4L4.223.766A1.5,1.5,0,0,0,2.916,0H2.025A1.5,1.5,0,0,0,.649,2.1S5,10.083,5,14.08v1.092a4.515,4.515,0,0,1-.593,2.233L1.92,21.756A1.5,1.5,0,0,0,3.223,24h1.4a1.5,1.5,0,0,0,1-.379l3.863-3.434,1.46,1.459a1.5,1.5,0,0,0,2.121,0l1.46-1.459,3.863,3.434a1.5,1.5,0,0,0,1,.379h1.4a1.5,1.5,0,0,0,1.3-2.244l-2.487-4.351A4.51,4.51,0,0,1,19,15.172V14.08C19,10.208,23.351,2.1,23.351,2.1Z"/></svg>