<svg id="Bold" xmlns="http://www.w3.org/2000/svg" viewBox="0 0 24 24"><title>clothes-design-sewing-machine</title><path d="M24,2a2,2,0,0,0-2-2H8.25a.5.5,0,0,0-.5.5v4a.75.75,0,0,1-1.5,0V.7A.5.5,0,0,0,5.611.216,4.989,4.989,0,0,0,2,5v5a1,1,0,0,0,1,1H4a.5.5,0,0,1,.5.5V16a1,1,0,0,0,2,0,.5.5,0,0,1,.5-.5,1,1,0,0,0,0-2,.5.5,0,0,1-.5-.5V11.5A.5.5,0,0,1,7,11H8a1,1,0,0,0,1-1V8a1.5,1.5,0,0,1,1.5-1.5h3A1.5,1.5,0,0,1,15,8v9.5a.5.5,0,0,1-.5.5H2.5A2.5,2.5,0,0,0,0,20.5v1A2.5,2.5,0,0,0,2.5,24h20A1.5,1.5,0,0,0,24,22.5ZM19.5,18a2,2,0,1,1,2-2A2,2,0,0,1,19.5,18Z"/></svg>