<svg id="Bold" xmlns="http://www.w3.org/2000/svg" viewBox="0 0 24 24"><title>clothes-design-pin-cushion</title><path d="M20.4,13.664a.257.257,0,0,0-.42.077L18.2,17.918a.747.747,0,0,1-.983.4.667.667,0,0,1-.3-.923l2.61-6.14a.243.243,0,0,1,.206-.145,2.5,2.5,0,0,0,2.175-3.159,2.468,2.468,0,0,0-1.737-1.735,2.5,2.5,0,0,0-2.546,4.068.234.234,0,0,1,.046.224c-.038.089-.255.606-.285.672a.179.179,0,0,1-.2.077,12.911,12.911,0,0,0-2.378-.908.25.25,0,0,0-.315.242v2.037a.75.75,0,0,1-1.5,0V4.938a.243.243,0,0,1,.136-.215,2.5,2.5,0,0,0,1.258-2.96,2.464,2.464,0,0,0-1.7-1.67,2.5,2.5,0,0,0-1.828,4.63A.242.242,0,0,1,11,4.939V9.812a.246.246,0,0,1-.237.247,7.943,7.943,0,0,0-3.158.805.245.245,0,0,0-.106.287l1.47,4.961a.749.749,0,0,1-.506.932.805.805,0,0,1-.932-.506L5.21,8.685a.24.24,0,0,1,.07-.246,2.5,2.5,0,0,0,.68-2.523h0A2.509,2.509,0,0,0,2.2,4.525,2.467,2.467,0,0,0,1.057,6.611,2.5,2.5,0,0,0,3.1,9.075a.245.245,0,0,1,.191.168L4.3,12.67s.108.208-.146.419A11.536,11.536,0,0,0,.5,21.5v1A1.5,1.5,0,0,0,2,24H22a1.5,1.5,0,0,0,1.5-1.5v-1A11.532,11.532,0,0,0,20.4,13.664Z"/></svg>