<svg id="Bold" xmlns="http://www.w3.org/2000/svg" viewBox="0 0 24 24"><title>coffee-read</title><path d="M12.937,13.5a.5.5,0,0,0-.5.5v5.5a2,2,0,0,0,2,2h4a1.993,1.993,0,0,0,1.723-1h.34a3.5,3.5,0,0,0,0-7ZM22,17a1.491,1.491,0,0,1-1.464,1.5.091.091,0,0,1-.07-.025.1.1,0,0,1-.029-.068V15.77a.249.249,0,0,1,.29-.247A1.483,1.483,0,0,1,22,17Z"/><path d="M23.937,23.25a.75.75,0,0,0-.75-.75h-12.5a.75.75,0,1,0,0,1.5h12.5A.75.75,0,0,0,23.937,23.25Z"/><path d="M10.887,18.332a.981.981,0,0,0,.432-.8V4.065a.5.5,0,0,1,.171-.376c.617-.54,2.8-1.45,6.619-1.659a.5.5,0,0,1,.528.5V11.75a1,1,0,0,0,2,0V1.828A1.841,1.841,0,0,0,20.081.513,1.876,1.876,0,0,0,18.765,0c-2.555.076-6.4.593-8.3,1.967a.248.248,0,0,1-.293,0C8.273.593,4.428.076,1.872,0A1.866,1.866,0,0,0,.557.513,1.842,1.842,0,0,0,0,1.828v11.56a1.815,1.815,0,0,0,1.5,1.789V18a1,1,0,0,0,1,1,1.02,1.02,0,0,0,.219-.024c.043-.009,4.451-.983,7.075-.233A1,1,0,0,0,10.887,18.332ZM2,2.529a.5.5,0,0,1,.528-.5c3.805.208,5.99,1.113,6.613,1.637a.5.5,0,0,1,.178.383V14.176a.5.5,0,0,1-.708.455,18,18,0,0,0-6.141-1.39.5.5,0,0,1-.47-.5ZM3.788,16.752a.251.251,0,0,1-.288-.247v-.881a.247.247,0,0,1,.086-.188.25.25,0,0,1,.2-.06A16.537,16.537,0,0,1,6.6,16a.25.25,0,0,1-.066.488A25.256,25.256,0,0,0,3.788,16.752Z"/></svg>