<svg id="Bold" xmlns="http://www.w3.org/2000/svg" viewBox="0 0 24 24"><title>coffee-jar</title><path d="M5.5,3.5h13A.5.5,0,0,0,19,3V1.5A1.5,1.5,0,0,0,17.5,0H6.5A1.5,1.5,0,0,0,5,1.5V3A.5.5,0,0,0,5.5,3.5Z"/><path d="M20.964,10.314l-2-5A.5.5,0,0,0,18.5,5H5.5a.5.5,0,0,0-.464.314l-2,5A.5.5,0,0,0,3,10.5v11A2.5,2.5,0,0,0,5.5,24h13A2.5,2.5,0,0,0,21,21.5v-11A.5.5,0,0,0,20.964,10.314ZM9.64,19a.635.635,0,0,0-.123.084.25.25,0,0,1-.34-.011c-1.366-1.352-1.593-3.937-.41-6.308A5.82,5.82,0,0,1,13.56,9.255a.25.25,0,0,1,.156.446c-1.927,1.541-2.021,3.549-2.1,5.207C11.537,16.665,11.473,18.053,9.64,19Zm6.591-2.508a5.921,5.921,0,0,1-4.569,3.5.25.25,0,0,1-.181-.437c1.48-1.309,1.564-3.025,1.636-4.572.086-1.862.16-3.469,2.383-4.659a.642.642,0,0,0,.093-.06.249.249,0,0,1,.337.028C17.2,11.666,17.384,14.182,16.231,16.49Z"/></svg>