<svg id="Bold" xmlns="http://www.w3.org/2000/svg" viewBox="0 0 24 24"><title>coffee-cold</title><path d="M6.947,22.741l0,.009A1.5,1.5,0,0,0,8.433,24h7.134a1.505,1.505,0,0,0,1.486-1.263v0l1.732-11.295a.5.5,0,0,1,.493-.424h1.212a1,1,0,0,0,0-2H19.335a.5.5,0,0,1-.489-.4,6.938,6.938,0,0,0-2.573-4.135,1,1,0,1,0-1.222,1.58A4.98,4.98,0,0,1,16.713,8.35a.5.5,0,0,1-.472.665H13.925a.5.5,0,0,1-.49-.6l1.148-5.779A.5.5,0,0,1,15.3,2.29l3.25,1.625a1,1,0,1,0,.894-1.787L15.6.21A2,2,0,0,0,12.752,1.6v.007L11.363,8.613a.5.5,0,0,1-.49.4H7.761a.5.5,0,0,1-.471-.666,4.988,4.988,0,0,1,3.46-3.172,1,1,0,0,0-.5-1.935A6.978,6.978,0,0,0,5.16,8.615a.5.5,0,0,1-.489.4H3.509a1,1,0,1,0,0,2H4.721a.5.5,0,0,1,.493.424Zm9.3-11.728a.5.5,0,0,1,.494.576l-.308,2a.5.5,0,0,1-.494.423H12.964a.5.5,0,0,1-.491-.593l.383-2a.5.5,0,0,1,.491-.406ZM10.4,13.605a.5.5,0,0,1-.49.4H8.061a.5.5,0,0,1-.494-.423l-.308-2a.5.5,0,0,1,.494-.576H10.3a.5.5,0,0,1,.49.594Z"/></svg>