<svg xmlns="http://www.w3.org/2000/svg" viewBox="0 0 24 24"><title>coin-purse-1</title><path d="M19.426,11.2A.5.5,0,0,1,19,10.705V9.625a1.5,1.5,0,0,0-1.5-1.5H6.5A1.5,1.5,0,0,0,5,9.625v1.08a.5.5,0,0,1-.427.493A5.7,5.7,0,0,0,0,17.169a6.066,6.066,0,0,0,6.11,5.956H17.89A6.066,6.066,0,0,0,24,17.169,5.7,5.7,0,0,0,19.426,11.2Z"/><path d="M3,8.625a1.25,1.25,0,0,0,1.25-1.25v-.5a.311.311,0,0,1,.338-.25H19.412a.311.311,0,0,1,.338.25v.5a1.25,1.25,0,0,0,2.5,0v-.5a2.8,2.8,0,0,0-2.838-2.75h-3.4a.25.25,0,0,1-.223-.364A1.939,1.939,0,0,0,16,2.875a2,2,0,0,0-2-2,1.977,1.977,0,0,0-1.785,1.01.25.25,0,0,1-.431,0A1.982,1.982,0,0,0,10,.875a2,2,0,0,0-2,2,1.939,1.939,0,0,0,.215.886.25.25,0,0,1-.223.364h-3.4A2.8,2.8,0,0,0,1.75,6.875v.5A1.25,1.25,0,0,0,3,8.625Z"/></svg>