<svg xmlns="http://www.w3.org/2000/svg" viewBox="0 0 24 24"><title>color-picker-alternate</title><path d="M17,9a1,1,0,0,0,0-2h-.75A.25.25,0,0,1,16,6.75V4.5A4.277,4.277,0,0,0,12,0,4.277,4.277,0,0,0,8,4.5V6.75A.25.25,0,0,1,7.75,7H7A1,1,0,0,0,7,9Z"/><path d="M8.25,10.5a.25.25,0,0,0-.25.25v1a.25.25,0,0,0,.25.25H10.5a.5.5,0,0,1,0,1H8.25a.25.25,0,0,0-.25.25v1.5a.25.25,0,0,0,.25.25H10.5a.5.5,0,0,1,0,1H8.25a.25.25,0,0,0-.25.25V17.5a5.138,5.138,0,0,0,2,4.113V23a1,1,0,0,0,1,1h2a1,1,0,0,0,1-1V21.613A5.138,5.138,0,0,0,16,17.5V10.75a.25.25,0,0,0-.25-.25Z"/></svg>