<svg xmlns="http://www.w3.org/2000/svg" viewBox="0 0 24 24"><title>color-triangle</title><path d="M20.8,4.279a.252.252,0,0,0,.1-.178.248.248,0,0,0-.065-.2A11.913,11.913,0,0,0,7.183,1.024a.25.25,0,0,0-.118.35L8.525,4a.249.249,0,0,0,.311.11A8.481,8.481,0,0,1,18,5.986a.252.252,0,0,0,.32.028Z"/><path d="M13.683,20.556a.249.249,0,0,0-.28-.175A8.5,8.5,0,0,1,7.129,5.037.25.25,0,0,0,7.2,4.711L5.748,2.09a.253.253,0,0,0-.16-.122.249.249,0,0,0-.2.035A11.988,11.988,0,0,0,12,24a11.834,11.834,0,0,0,2.359-.242.247.247,0,0,0,.165-.116.253.253,0,0,0,.025-.2Z"/><path d="M15.989,23.02a.252.252,0,0,0,.33.161A11.979,11.979,0,0,0,22.094,5.516a.251.251,0,0,0-.162-.109.247.247,0,0,0-.192.04L19.281,7.168a.251.251,0,0,0-.069.338,8.488,8.488,0,0,1-3.943,12.333.25.25,0,0,0-.143.3Z"/><path d="M17.052,16.194a.949.949,0,0,0,.835-1.4L12.835,5.414a.948.948,0,0,0-1.67,0L6.113,14.8a.949.949,0,0,0,.835,1.4Z"/></svg>