<svg xmlns="http://www.w3.org/2000/svg" viewBox="0 0 24 24"><title>color-spray</title><rect x="4" y="4" width="3" height="3" rx="1" ry="1"/><path d="M15.316,8.051l-3-1a1,1,0,0,0-.632,1.9l3,1a1,1,0,0,0,.632-1.9Z"/><path d="M14.684,2.051l-3,1a1,1,0,0,0,.632,1.9l3-1a1,1,0,0,0-.632-1.9Z"/><rect y="12" width="11" height="12" rx="1.5" ry="1.5"/><path d="M2,11H9a.5.5,0,0,0,.447-.724L8.724,8.83A1.491,1.491,0,0,0,7.382,8H3.618a1.492,1.492,0,0,0-1.342.829l-.723,1.447A.5.5,0,0,0,2,11Z"/><path d="M21.387,2.613A3.507,3.507,0,0,0,18,0a1,1,0,0,0,0,2,1.5,1.5,0,0,1,1.5,1.5,1,1,0,0,0,1,1,1.5,1.5,0,0,1,0,3,1,1,0,0,0-1,1A1.5,1.5,0,0,1,18,10a1,1,0,0,0,0,2,3.507,3.507,0,0,0,3.387-2.613,3.5,3.5,0,0,0,0-6.774Z"/></svg>