<svg xmlns="http://www.w3.org/2000/svg" viewBox="0 0 24 24"><title>color-bucket-1</title><path d="M21.868,14.326a1,1,0,0,0-1.735,0C19.159,16.025,18,18.273,18,19.334a3,3,0,1,0,6,0C24,18.275,22.841,16.026,21.868,14.326Z"/><path d="M18.544,10.72a.929.929,0,0,0-.313-1.044L10.645,2.09a1.539,1.539,0,0,0-2.121,0L6.6,4.011a.25.25,0,0,1-.22.07L2.172,3.338a1,1,0,1,0-.347,1.968l7.94,1.4a.25.25,0,0,1,.2.29l-.143.808a.25.25,0,0,1-.29.2L3.772,6.992a.249.249,0,0,0-.22.07L.731,9.883a2.5,2.5,0,0,0,0,3.536L5.4,18.09a2.5,2.5,0,0,0,3.535,0L15.231,11.8a2.313,2.313,0,0,1,1.353-.561h1A.932.932,0,0,0,18.544,10.72Z"/></svg>