<svg xmlns="http://www.w3.org/2000/svg" viewBox="0 0 24 24"><title>color-palette-1</title><path d="M23.5,12a2.492,2.492,0,0,0-4.816-.909.251.251,0,0,1-.233.159H13a.25.25,0,0,1-.25-.25V5.549a.251.251,0,0,1,.159-.233,2.5,2.5,0,1,0-1.818,0,.251.251,0,0,1,.159.233V11a.25.25,0,0,1-.25.25H5.549a.251.251,0,0,1-.233-.159,2.5,2.5,0,1,0,0,1.818.251.251,0,0,1,.233-.159H11a.25.25,0,0,1,.25.25v5.451a.251.251,0,0,1-.159.233,2.5,2.5,0,1,0,1.818,0,.251.251,0,0,1-.159-.233V13a.25.25,0,0,1,.25-.25h5.451a.251.251,0,0,1,.233.159A2.492,2.492,0,0,0,23.5,12Z"/><path d="M16.6,20.132A2.5,2.5,0,0,0,20.132,16.6a2.554,2.554,0,0,0-2.758-.5.249.249,0,0,1-.273-.054L15.03,13.97a.75.75,0,0,0-1.06,1.06l2.06,2.06a.25.25,0,0,1,.051.279,2.438,2.438,0,0,0-.217,1A2.484,2.484,0,0,0,16.6,20.132Z"/><path d="M7.4,3.868a2.56,2.56,0,0,0-3.535,0A2.5,2.5,0,0,0,5.636,8.136a2.438,2.438,0,0,0,1-.217.25.25,0,0,1,.279.051l2.06,2.06a.75.75,0,0,0,1.06-1.06L7.97,6.91a.25.25,0,0,1-.051-.279,2.438,2.438,0,0,0,.217-1A2.484,2.484,0,0,0,7.4,3.868Z"/><path d="M13.97,8.97a.75.75,0,1,0,1.06,1.06l2.06-2.06a.25.25,0,0,1,.279-.051,2.438,2.438,0,0,0,1,.217,2.5,2.5,0,0,0,1.768-4.268,2.558,2.558,0,0,0-3.535,0,2.484,2.484,0,0,0-.733,1.768,2.438,2.438,0,0,0,.217,1,.25.25,0,0,1-.051.279Z"/><path d="M10.03,13.97a.749.749,0,0,0-1.06,0L6.9,16.04a.249.249,0,0,1-.273.054,2.556,2.556,0,0,0-2.758.5,2.5,2.5,0,1,0,4.268,1.767,2.438,2.438,0,0,0-.217-1,.25.25,0,0,1,.051-.279l2.06-2.06A.749.749,0,0,0,10.03,13.97Z"/></svg>