<svg xmlns="http://www.w3.org/2000/svg" viewBox="0 0 24 24"><title>compass-south</title><path d="M16.59,15.042l-.777.359a9.1,9.1,0,0,1-7.626,0l-.777-.359a.455.455,0,0,0-.582.645l4.78,8.09a.456.456,0,0,0,.784,0l4.78-8.09a.455.455,0,0,0-.582-.645Z"/><path d="M12,14.5A7.25,7.25,0,1,0,4.75,7.25,7.258,7.258,0,0,0,12,14.5Zm.657-5.911-2.146-1.43A2.27,2.27,0,0,1,11.77,3h1.98a.75.75,0,0,1,0,1.5H11.77a.77.77,0,0,0-.427,1.411l2.146,1.43A2.27,2.27,0,0,1,12.23,11.5H10.25a.75.75,0,0,1,0-1.5h1.98a.77.77,0,0,0,.427-1.411Z"/></svg>