<svg xmlns="http://www.w3.org/2000/svg" viewBox="0 0 24 24"><title>compass-1</title><circle cx="12" cy="12" r="1.75"/><path d="M12,0A12,12,0,1,0,24,12,12.013,12.013,0,0,0,12,0Zm-.75,2.25a.75.75,0,0,1,1.5,0v1.5a.75.75,0,0,1-1.5,0Zm-7.5,10.5H2.25a.75.75,0,0,1,0-1.5h1.5a.75.75,0,0,1,0,1.5Zm.825-7.114A.75.75,0,0,1,5.636,4.575L6.7,5.636A.75.75,0,1,1,5.636,6.7ZM12.75,21.75a.75.75,0,0,1-1.5,0v-1.5a.75.75,0,0,1,1.5,0Zm1.179-6.475L7.25,18.057A1,1,0,0,1,5.925,16.8L8.4,9.909A2.493,2.493,0,0,1,9.91,8.4L16.8,5.925A1,1,0,0,1,18.058,7.25l-2.783,6.679A2.484,2.484,0,0,1,13.929,15.275Zm5.5,4.15a.75.75,0,0,1-1.061,0L17.3,18.364a.75.75,0,0,1,1.06-1.06l1.061,1.06A.75.75,0,0,1,19.425,19.425ZM21.75,12.75h-1.5a.75.75,0,0,1,0-1.5h1.5a.75.75,0,0,1,0,1.5Z"/></svg>