<svg xmlns="http://www.w3.org/2000/svg" viewBox="0 0 24 24"><title>compass</title><path d="M12,0A12,12,0,1,0,24,12,12.013,12.013,0,0,0,12,0Zm3.293,7.293,2-2a1,1,0,1,1,1.414,1.414l-2,2a1,1,0,0,1-1.414-1.414Zm-10-2a1,1,0,0,1,1.414,0l2,2A1,1,0,1,1,7.293,8.707l-2-2A1,1,0,0,1,5.293,5.293ZM8.707,16.707l-2,2a1,1,0,0,1-1.414-1.414l2-2a1,1,0,0,1,1.414,1.414Zm10,2a1,1,0,0,1-1.414,0l-2-2a1,1,0,0,1,1.414-1.414l2,2A1,1,0,0,1,18.707,18.707Zm3.521-6.357L14.6,13.7a.723.723,0,0,0-.505.5l-1.75,8.026a.363.363,0,0,1-.7,0L9.894,14.209a.724.724,0,0,0-.505-.5L2.019,12.35a.363.363,0,0,1,0-.7l7.528-1.4a.527.527,0,0,0,.419-.41l1.679-8.075a.363.363,0,0,1,.7,0l1.678,8.073a.524.524,0,0,0,.421.41l7.785,1.4a.363.363,0,0,1,0,.7Z"/><circle cx="12.001" cy="12" r="1.5"/></svg>