<svg id="Bold" xmlns="http://www.w3.org/2000/svg" viewBox="0 0 24 24"><title>concert-microphone</title><path d="M22.5,7.937a.5.5,0,0,1,.375-.484A1.5,1.5,0,0,0,24,6V2a2,2,0,0,0-2-2H2A2,2,0,0,0,0,2V6A1.5,1.5,0,0,0,1.125,7.453a.5.5,0,0,1,.375.484V21.5A.5.5,0,0,1,1,22a1,1,0,0,0,0,2H23a1,1,0,0,0,0-2,.5.5,0,0,1-.5-.5ZM2.5,5.5A.5.5,0,0,1,2,5V3.462A.25.25,0,0,1,2.44,3.3L3.972,5.087a.25.25,0,0,1-.189.413ZM4.314,2.413A.25.25,0,0,1,4.5,2H9.142a.25.25,0,0,1,.172.431L6.954,4.684a.5.5,0,0,1-.37.137.5.5,0,0,1-.355-.174Zm7.341.549a.5.5,0,0,1,.69,0l2.207,2.107a.25.25,0,0,1-.172.431H9.62a.25.25,0,0,1-.172-.431Zm3.031-.531A.25.25,0,0,1,14.858,2H19.5a.25.25,0,0,1,.189.413L17.771,4.647a.5.5,0,0,1-.355.174.5.5,0,0,1-.37-.137ZM21.56,3.3a.25.25,0,0,1,.44.163V5a.5.5,0,0,1-.5.5H20.217a.25.25,0,0,1-.189-.413Zm-9.38,17.02a.5.5,0,0,1,.64,0l1.487,1.239a.25.25,0,0,1-.16.442H10.853a.25.25,0,0,1-.16-.442ZM16.646,22a.25.25,0,0,1-.229-.35,1,1,0,0,0-.277-1.169l-2.46-2.05a.5.5,0,0,1-.18-.384V15.476a.25.25,0,0,1,.3-.245.96.96,0,0,0,.2.019,1,1,0,0,0,.448-1.894l-2.421-1.211a.5.5,0,0,1-.277-.439,2.249,2.249,0,1,0-1.313,2.09.5.5,0,0,1,.432.007l.356.177a.5.5,0,0,1,.276.447v3.62a.5.5,0,0,1-.18.384l-2.46,2.05a1,1,0,0,0-.277,1.169.25.25,0,0,1-.229.35H4a.5.5,0,0,1-.5-.5V8A.5.5,0,0,1,4,7.5H20a.5.5,0,0,1,.5.5V21.5a.5.5,0,0,1-.5.5Z"/></svg>