<svg id="Bold" xmlns="http://www.w3.org/2000/svg" viewBox="0 0 24 24"><title>concert-beach</title><path d="M16.25,4h.5a.25.25,0,0,1,.25.25v.5a.75.75,0,0,0,1.5,0v-.5A.25.25,0,0,1,18.75,4h.5a.75.75,0,0,0,0-1.5h-.5a.25.25,0,0,1-.25-.25v-.5a.75.75,0,0,0-1.5,0v.5a.25.25,0,0,1-.25.25h-.5a.75.75,0,0,0,0,1.5Z"/><circle cx="16.25" cy="7.75" r="0.75"/><circle cx="22.25" cy="0.75" r="0.75"/><path d="M23.655,18C20.109,14.93,12.115,15,12,15a30.164,30.164,0,0,0-3.5.22.5.5,0,0,1-.542-.365A13.862,13.862,0,0,1,7.5,11.25a13.752,13.752,0,0,1,.548-3.909.25.25,0,0,1,.4-.115l4.218,3.713a.55.55,0,0,0,.9-.291,4.531,4.531,0,0,0-1.394-3.98A5.4,5.4,0,0,0,10.094,5.3a.25.25,0,0,1-.037-.455l4.5-2.471a.548.548,0,0,0-.009-.966,4.579,4.579,0,0,0-4.137.351A5.355,5.355,0,0,0,8.5,3.48a.25.25,0,0,1-.443-.049,5.349,5.349,0,0,0-1.494-2.1A4.579,4.579,0,0,0,2.6.094a.548.548,0,0,0-.217.942L5.721,3.961a.249.249,0,0,1-.18.437,5.408,5.408,0,0,0-2.56.506A4.533,4.533,0,0,0,.213,8.091a.551.551,0,0,0,.723.6l4.4-1.542a.25.25,0,0,1,.3.354A14.962,14.962,0,0,0,4,14.5q0,.618.045,1.232a.5.5,0,0,1-.34.51A10.085,10.085,0,0,0,.35,18a1,1,0,0,0-.35.76v1.074a.25.25,0,0,0,.308.244A2.979,2.979,0,0,1,1,20c.5,0,.822-.281,1.355-.913a3.022,3.022,0,0,1,4.6-.023c.553.654.875.936,1.375.936s.822-.281,1.356-.913a3.021,3.021,0,0,1,4.6-.023c.554.655.876.936,1.376.936s.822-.282,1.356-.914a3.022,3.022,0,0,1,4.6-.022c.553.655.875.936,1.375.936a2.979,2.979,0,0,1,.692.081A.25.25,0,0,0,24,19.837V18.76A1,1,0,0,0,23.655,18Z"/><path d="M23,22a3.747,3.747,0,0,1-2.9-1.645,1.055,1.055,0,0,0-1.546.022A3.72,3.72,0,0,1,15.667,22a3.745,3.745,0,0,1-2.9-1.645,1.055,1.055,0,0,0-1.547.023A3.72,3.72,0,0,1,8.333,22a3.747,3.747,0,0,1-2.9-1.645,1.055,1.055,0,0,0-1.547.023A3.718,3.718,0,0,1,1,22a1,1,0,0,0,0,2,5.121,5.121,0,0,0,3.345-1.243.5.5,0,0,1,.64,0,5.128,5.128,0,0,0,6.694,0,.5.5,0,0,1,.639,0,5.128,5.128,0,0,0,6.694,0,.5.5,0,0,1,.64,0A5.131,5.131,0,0,0,23,24a1,1,0,0,0,0-2Z"/><path d="M19.4,9.268a1.5,1.5,0,1,0,1.44,1.885l.789-2.974A.248.248,0,0,1,21.812,8a.251.251,0,0,1,.245.078l.631.714A.75.75,0,0,0,23.812,7.8l-1.25-1.414a1.25,1.25,0,0,0-2.145.507L19.885,8.9A.5.5,0,0,1,19.4,9.268Z"/></svg>