<svg id="Bold" xmlns="http://www.w3.org/2000/svg" viewBox="0 0 24 24"><title>concert-guitarist</title><path d="M7.079,8.659a.25.25,0,0,1-.011-.431,4.075,4.075,0,1,0-4.414-.082.247.247,0,0,1,.11.222.25.25,0,0,1-.137.208A4.778,4.778,0,0,0,0,12.839V15.69a.5.5,0,0,0,.5.5H1.731a.5.5,0,0,1,.5.45l.622,6.223a.5.5,0,0,0,.5.45H6.2a.5.5,0,0,0,.5-.45l.623-6.223a.5.5,0,0,1,.5-.45H9.048a.5.5,0,0,0,.354-.147.5.5,0,0,0,.146-.353V12.839A4.778,4.778,0,0,0,7.079,8.659ZM5.524,12.03a.75.75,0,1,1-1.5,0V10.338a.75.75,0,0,1,1.5,0Zm-.6-5.192A2.073,2.073,0,0,1,2.938,4.167a.248.248,0,0,1,.149-.162.251.251,0,0,1,.22.02,5.076,5.076,0,0,0,2.643.738A5.183,5.183,0,0,0,6.7,4.708a.25.25,0,0,1,.286.273A2.078,2.078,0,0,1,4.925,6.838Z"/><path d="M23.627,16.422a3.86,3.86,0,0,0-2.757-2.014.573.573,0,0,1-.447-.648,2.649,2.649,0,0,0-.232-1.611,3.321,3.321,0,0,0-3.7-1.5.5.5,0,0,1-.538-.268L14.792,8.055a.5.5,0,0,1-.03-.371,1.559,1.559,0,0,0-.1-1.162L13.5,4.182a1.572,1.572,0,1,0-2.813,1.4l1.165,2.337a1.565,1.565,0,0,0,.871.776A.5.5,0,0,1,13,8.945l1.162,2.331a.5.5,0,0,1-.11.591,3.321,3.321,0,0,0-1.034,3.855,2.651,2.651,0,0,0,1.147,1.156.572.572,0,0,1,.249.747,3.859,3.859,0,0,0-.052,3.414,4.166,4.166,0,0,0,3.858,2.14,6.017,6.017,0,0,0,2.67-.644C23.445,21.261,24.672,18.519,23.627,16.422Zm-7.95-.826a1.572,1.572,0,1,1,2.107.7A1.574,1.574,0,0,1,15.677,15.6Zm4.85,3.807-1.918.956a.738.738,0,0,1-.334.079.75.75,0,0,1-.335-1.421l1.918-.956a.75.75,0,1,1,.669,1.342Z"/></svg>