<svg xmlns="http://www.w3.org/2000/svg" viewBox="0 0 24 24"><title>construction-paper-home</title><path d="M21.707,5.707,16.293.293A1,1,0,0,0,15.586,0H4A2,2,0,0,0,2,2V22a2,2,0,0,0,2,2H20a2,2,0,0,0,2-2V6.414A1,1,0,0,0,21.707,5.707ZM20,21.5a.5.5,0,0,1-.5.5H4.5a.5.5,0,0,1-.5-.5V2.5A.5.5,0,0,1,4.5,2H14.965a.5.5,0,0,1,.353.146l4.536,4.536A.5.5,0,0,1,20,7.035Z"/><path d="M11.723,7.2,6.152,12.042a.416.416,0,0,0-.126.466.429.429,0,0,0,.4.276H7.9V17.2a.631.631,0,0,0,.631.632H9.79a.632.632,0,0,0,.631-.632V15.626a1.579,1.579,0,0,1,3.158,0V17.2a.632.632,0,0,0,.631.632h1.264a.633.633,0,0,0,.631-.632V12.784h1.466a.429.429,0,0,0,.4-.276.416.416,0,0,0-.126-.466L12.277,7.2A.434.434,0,0,0,11.723,7.2Z"/></svg>