<svg id="Bold" xmlns="http://www.w3.org/2000/svg" viewBox="0 0 24 24"><title>console-lamp</title><path d="M7.5,17H.5a.5.5,0,0,0-.5.5v2A1.5,1.5,0,0,0,1.5,21H2.982a.25.25,0,0,1,.177.427l-.866.866a1,1,0,1,0,1.414,1.414l2.561-2.561A.5.5,0,0,1,6.621,21H7.5a.5.5,0,0,0,.5-.5v-3A.5.5,0,0,0,7.5,17Z"/><path d="M7.5,12h-6A1.5,1.5,0,0,0,0,13.5v2a.5.5,0,0,0,.5.5h7a.5.5,0,0,0,.5-.5v-3A.5.5,0,0,0,7.5,12Z"/><path d="M14.5,12h-5a.5.5,0,0,0-.5.5v8a.5.5,0,0,0,.5.5h5a.5.5,0,0,0,.5-.5v-8A.5.5,0,0,0,14.5,12Zm-3,5.5a1,1,0,1,1,1-1A1,1,0,0,1,11.5,17.5Z"/><path d="M22.5,12h-6a.5.5,0,0,0-.5.5v8a.5.5,0,0,0,.5.5h.879a.5.5,0,0,1,.353.146l2.561,2.561a1,1,0,0,0,1.414-1.414l-.866-.866A.25.25,0,0,1,21.018,21H22.5A1.5,1.5,0,0,0,24,19.5v-6A1.5,1.5,0,0,0,22.5,12Zm-1,5.5a1,1,0,1,1,1-1A1,1,0,0,1,21.5,17.5Z"/><path d="M2.75,5.75a2.708,2.708,0,0,0,.9-.156.249.249,0,0,1,.305.122A5.5,5.5,0,0,1,4.379,6.8a.249.249,0,0,1-.154.3A1.5,1.5,0,0,0,3.25,8.5v2a.5.5,0,0,0,.5.5h3a.5.5,0,0,0,.5-.5v-2A1.5,1.5,0,0,0,6.111,7.051a.252.252,0,0,1-.186-.2A6.848,6.848,0,0,0,5.1,4.679a.25.25,0,0,1,0-.256A2.725,2.725,0,0,0,5.5,3C5.5,1.486,3.464.5,3.057.315A.75.75,0,0,0,2.22.47l-2,2a.75.75,0,0,0-.155.837C.248,3.715,1.236,5.75,2.75,5.75Zm.143-3.832C3.477,2.261,4,2.721,4,3A1.252,1.252,0,0,1,2.75,4.25c-.28,0-.739-.522-1.082-1.107Z"/><path d="M23.669,5.972a1.365,1.365,0,0,0,.283-1.243l-1-3.666A1.487,1.487,0,0,0,21.5,0h-5a1.488,1.488,0,0,0-1.453,1.063l-1,3.666a1.365,1.365,0,0,0,.284,1.243A1.527,1.527,0,0,0,15.5,6.5h7A1.528,1.528,0,0,0,23.669,5.972Z"/><path d="M16.214,10.143a2.576,2.576,0,0,0,.038.442.5.5,0,0,0,.493.415h4.224a.5.5,0,0,0,.492-.415,2.576,2.576,0,0,0,.039-.442,2.643,2.643,0,0,0-5.286,0Z"/></svg>