<svg xmlns="http://www.w3.org/2000/svg" viewBox="0 0 24 24"><title>couple-frame</title><path d="M23.87,16.479a1.605,1.605,0,0,0,0-1.261l-1.284-2.981a.6.6,0,0,1,0-.473L23.87,8.783a1.605,1.605,0,0,0,0-1.261L22.586,4.54a.591.591,0,0,1,0-.47l.556-1.29A1.6,1.6,0,0,0,21.227.611L19.9.989a.617.617,0,0,1-.333,0L16.307.063a1.572,1.572,0,0,0-.881,0L12.167.989a.6.6,0,0,1-.334,0L8.575.063a1.572,1.572,0,0,0-.881,0L4.435.989a.617.617,0,0,1-.333,0L2.774.612A1.6,1.6,0,0,0,.859,2.781L1.414,4.07a.593.593,0,0,1,0,.471L.13,7.522a1.6,1.6,0,0,0,0,1.26l1.284,2.982a.6.6,0,0,1,0,.473L.13,15.217a1.608,1.608,0,0,0,0,1.262l1.284,2.982a.591.591,0,0,1,0,.47l-.556,1.29A1.6,1.6,0,0,0,2.773,23.39l1.33-.378a.572.572,0,0,1,.333,0l3.258.925a1.627,1.627,0,0,0,.881,0l3.259-.927a.572.572,0,0,1,.333,0l3.258.925a1.608,1.608,0,0,0,.881,0l3.259-.927a.608.608,0,0,1,.333,0l1.328.376a1.6,1.6,0,0,0,1.915-2.169l-.555-1.289a.593.593,0,0,1,0-.471ZM20,19.5a.5.5,0,0,1-.5.5H4.5a.5.5,0,0,1-.5-.5V4.5A.5.5,0,0,1,4.5,4h15a.5.5,0,0,1,.5.5Z"/><path d="M15.31,6.413a1.818,1.818,0,0,0-2.836-.439.709.709,0,0,1-.978,0,1.818,1.818,0,0,0-2.836.439A1.626,1.626,0,0,0,8.992,8.36l2.64,2.624a.5.5,0,0,0,.705,0L14.978,8.36A1.628,1.628,0,0,0,15.31,6.413Z"/><circle cx="8.25" cy="13.25" r="1.75"/><path d="M5.046,17.763a.506.506,0,0,0,.45.737H11a.506.506,0,0,0,.45-.737A3.582,3.582,0,0,0,5.046,17.763Z"/><circle cx="15.75" cy="13.25" r="1.75"/><path d="M12.546,17.763A.506.506,0,0,0,13,18.5H18.5a.506.506,0,0,0,.45-.737A3.582,3.582,0,0,0,12.546,17.763Z"/></svg>