<svg xmlns="http://www.w3.org/2000/svg" viewBox="0 0 24 24"><title>couple-frame-image</title><path d="M22,5H17.644a.5.5,0,0,1-.363-.156L13.147.493a1.581,1.581,0,0,0-2.294,0L6.719,4.844A.5.5,0,0,1,6.356,5H2A2,2,0,0,0,0,7V22a2,2,0,0,0,2,2H22a2,2,0,0,0,2-2V7A2,2,0,0,0,22,5ZM9.73,4.578l2.089-2.2a.251.251,0,0,1,.362,0l2.089,2.2A.25.25,0,0,1,14.089,5H9.911a.25.25,0,0,1-.181-.422ZM22,21.438a.562.562,0,0,1-.562.562H2.562A.562.562,0,0,1,2,21.438V7.562A.562.562,0,0,1,2.562,7H21.438A.562.562,0,0,1,22,7.562Z"/><path d="M12.352,12.65l2.205-2.191A1.389,1.389,0,0,0,14.84,8.8a1.553,1.553,0,0,0-2.422-.375.6.6,0,0,1-.835,0A1.554,1.554,0,0,0,9.16,8.8a1.389,1.389,0,0,0,.283,1.662l2.205,2.191A.5.5,0,0,0,12.352,12.65Z"/><path d="M7,12a4,4,0,1,0,4,4A4,4,0,0,0,7,12Zm0,6a2,2,0,0,1-1.92-2.56.248.248,0,0,1,.149-.162.245.245,0,0,1,.219.018A4.978,4.978,0,0,0,8.7,15.95a.249.249,0,0,1,.209.069.247.247,0,0,1,.074.207A2,2,0,0,1,7,18Z"/><path d="M20.5,16a4,4,0,0,0-8,0c0,1.656-.376,2.2-.492,2.33a1,1,0,1,0,1.484,1.34,2.8,2.8,0,0,0,.285-.377.251.251,0,0,1,.36-.068,3.99,3.99,0,0,0,4.726,0,.251.251,0,0,1,.36.068,2.8,2.8,0,0,0,.285.377,1,1,0,1,0,1.484-1.34C20.876,18.2,20.5,17.656,20.5,16Zm-4,2a2,2,0,0,1-1.954-1.576.25.25,0,0,1,.192-.3,2.967,2.967,0,0,0,.709-.235,2.337,2.337,0,0,0,.852-.683.251.251,0,0,1,.4,0,2.337,2.337,0,0,0,.852.683,2.967,2.967,0,0,0,.709.235.25.25,0,0,1,.192.3A2,2,0,0,1,16.5,18Z"/></svg>