<svg xmlns="http://www.w3.org/2000/svg" viewBox="0 0 24 24"><title>couple-man-man-1</title><path d="M14.854.018a2.821,2.821,0,0,0-2.495,1.021.47.47,0,0,1-.717,0A2.815,2.815,0,0,0,9.146.018,3.1,3.1,0,0,0,6.5,3.231c0,2.427,3.423,5.312,4.9,6.44a.981.981,0,0,0,1.208,0c1.472-1.127,4.9-4.013,4.9-6.44A3.1,3.1,0,0,0,14.854.018Z"/><path d="M6.847,13.47a.247.247,0,0,1-.119-.2.251.251,0,0,1,.094-.211,2.918,2.918,0,1,0-3.616,0,.251.251,0,0,1,.094.211.246.246,0,0,1-.118.2,3.515,3.515,0,0,0-1.682,3v2.011a.5.5,0,0,0,.5.5h.6a.5.5,0,0,1,.5.45l.413,4.123a.5.5,0,0,0,.5.45h2.01a.5.5,0,0,0,.5-.45l.412-4.123a.5.5,0,0,1,.5-.45h.6a.5.5,0,0,0,.5-.5V16.467A3.514,3.514,0,0,0,6.847,13.47ZM5.014,12.191A1.419,1.419,0,0,1,3.6,10.773a1.481,1.481,0,0,1,.028-.285.25.25,0,0,1,.367-.168,3.576,3.576,0,0,0,1.746.452,3.453,3.453,0,0,0,.4-.022.251.251,0,0,1,.273.3A1.421,1.421,0,0,1,5.014,12.191Z"/><path d="M20.818,13.47a.246.246,0,0,1-.118-.2.251.251,0,0,1,.094-.211,2.919,2.919,0,1,0-3.616,0,.251.251,0,0,1,.094.211.247.247,0,0,1-.119.2,3.516,3.516,0,0,0-1.681,3v2.011a.5.5,0,0,0,.5.5h.6a.5.5,0,0,1,.5.45l.412,4.123a.5.5,0,0,0,.5.45h2.01a.5.5,0,0,0,.5-.45l.412-4.123a.5.5,0,0,1,.5-.45H22a.5.5,0,0,0,.5-.5V16.467A3.515,3.515,0,0,0,20.818,13.47Zm-1.832-1.279a1.42,1.42,0,0,1-1.419-1.418,1.406,1.406,0,0,1,.029-.285.25.25,0,0,1,.367-.168,3.576,3.576,0,0,0,1.746.452,3.453,3.453,0,0,0,.4-.022.252.252,0,0,1,.273.3A1.422,1.422,0,0,1,18.986,12.191Z"/></svg>