<svg xmlns="http://www.w3.org/2000/svg" viewBox="0 0 24 24"><title>couple-house</title><path d="M23.683,1.638a3.022,3.022,0,0,0-4.806-.77l-.492.448a.5.5,0,0,1-.673,0L17.22.868a3.022,3.022,0,0,0-4.806.77,2.934,2.934,0,0,0,.562,3.419l4.612,4.748a.641.641,0,0,0,.921,0l4.612-4.748A2.934,2.934,0,0,0,23.683,1.638Z"/><path d="M7.324,12.118a.5.5,0,0,0-.647,0l-6.5,5.5A.5.5,0,0,0,.5,18.5H2v5a.5.5,0,0,0,.5.5H5a.5.5,0,0,0,.5-.5V21.25a1.5,1.5,0,0,1,3,0V23.5A.5.5,0,0,0,9,24h2.5a.5.5,0,0,0,.5-.5v-5h1.5a.5.5,0,0,0,.324-.882Z"/><path d="M13.681,10.393a.557.557,0,0,1-.75,0,1.368,1.368,0,0,0-2.175.348,1.328,1.328,0,0,0,.254,1.548L13.1,14.438a.291.291,0,0,0,.417,0L15.6,12.289a1.328,1.328,0,0,0,.254-1.548A1.368,1.368,0,0,0,13.681,10.393Z"/></svg>