<svg xmlns="http://www.w3.org/2000/svg" viewBox="0 0 24 24"><title>couple-film</title><path d="M21.5,2H2.5A2.5,2.5,0,0,0,0,4.5v15A2.5,2.5,0,0,0,2.5,22h19A2.5,2.5,0,0,0,24,19.5V4.5A2.5,2.5,0,0,0,21.5,2ZM11,3.5h2a1,1,0,0,1,0,2H11a1,1,0,0,1,0-2Zm-8,0H5a1,1,0,0,1,0,2H3a1,1,0,0,1,0-2Zm2,17H3a1,1,0,0,1,0-2H5a1,1,0,0,1,0,2Zm8,0H11a1,1,0,0,1,0-2h2a1,1,0,0,1,0,2Zm8,0H19a1,1,0,0,1,0-2h2a1,1,0,0,1,0,2Zm1-4a.5.5,0,0,1-.5.5H2.5a.5.5,0,0,1-.5-.5v-9A.5.5,0,0,1,2.5,7h19a.5.5,0,0,1,.5.5Zm-1-11H19a1,1,0,0,1,0-2h2a1,1,0,0,1,0,2Z"/><path d="M12.626,9.04l-.276.271a.5.5,0,0,1-.7,0l-.276-.271a2.3,2.3,0,0,0-3.634.577,2.19,2.19,0,0,0,.425,2.567l3.376,3.449a.642.642,0,0,0,.919,0l3.375-3.449a2.19,2.19,0,0,0,.425-2.567A2.3,2.3,0,0,0,12.626,9.04Z"/></svg>