<svg xmlns="http://www.w3.org/2000/svg" viewBox="0 0 24 24"><title>couple-woman-woman</title><path d="M17.5,3.232A3.1,3.1,0,0,0,14.854.019,2.835,2.835,0,0,0,12.2,1.239a.25.25,0,0,1-.406,0A2.831,2.831,0,0,0,9.146.019,3.1,3.1,0,0,0,6.5,3.232c0,2.427,3.423,5.312,4.9,6.44a.981.981,0,0,0,1.208,0C14.076,8.545,17.5,5.659,17.5,3.232Z"/><path d="M7.3,18.668a.5.5,0,0,0-.629.21l-1.208,2.1a.25.25,0,0,1-.434,0l-1.208-2.1a.5.5,0,0,0-.629-.21A5.26,5.26,0,0,0,0,23.5a.5.5,0,0,0,.5.5H10a.5.5,0,0,0,.5-.5A5.26,5.26,0,0,0,7.3,18.668Z"/><path d="M9.5,14.233a4.25,4.25,0,0,0-8.5,0,3.07,3.07,0,0,1-.7,2.352A1,1,0,1,0,1.7,18.007a3.794,3.794,0,0,0,.418-.488.249.249,0,0,1,.173-.1.252.252,0,0,1,.193.059,4.24,4.24,0,0,0,5.526,0,.252.252,0,0,1,.193-.059.249.249,0,0,1,.173.1,3.959,3.959,0,0,0,.418.488A1,1,0,0,0,10.2,16.585,3.07,3.07,0,0,1,9.5,14.233ZM5.25,16.5a2.253,2.253,0,0,1-2.231-1.962.251.251,0,0,1,.2-.278,3.409,3.409,0,0,0,.909-.28,2.471,2.471,0,0,0,.916-.74.25.25,0,0,1,.4,0,2.471,2.471,0,0,0,.916.74,3.409,3.409,0,0,0,.909.28.25.25,0,0,1,.2.278A2.253,2.253,0,0,1,5.25,16.5Z"/><path d="M20.8,18.668a.5.5,0,0,0-.629.21l-1.208,2.1a.25.25,0,0,1-.434,0l-1.208-2.1a.5.5,0,0,0-.629-.21A5.26,5.26,0,0,0,13.5,23.5a.5.5,0,0,0,.5.5h9.5a.5.5,0,0,0,.5-.5A5.26,5.26,0,0,0,20.8,18.668Z"/><path d="M14.5,14.233a3.07,3.07,0,0,1-.7,2.352A1,1,0,1,0,15.2,18.007a3.794,3.794,0,0,0,.418-.488.249.249,0,0,1,.173-.1.252.252,0,0,1,.193.059,4.24,4.24,0,0,0,5.526,0,.252.252,0,0,1,.193-.059.249.249,0,0,1,.173.1,3.959,3.959,0,0,0,.418.488A1,1,0,1,0,23.7,16.585a3.07,3.07,0,0,1-.7-2.352,4.25,4.25,0,0,0-8.5,0Zm2.223.027a3.409,3.409,0,0,0,.909-.28,2.471,2.471,0,0,0,.916-.74.25.25,0,0,1,.4,0,2.471,2.471,0,0,0,.916.74,3.409,3.409,0,0,0,.909.28.25.25,0,0,1,.2.278,2.249,2.249,0,0,1-4.462,0A.251.251,0,0,1,16.723,14.26Z"/></svg>