<svg id="Bold" xmlns="http://www.w3.org/2000/svg" viewBox="0 0 24 24"><title>crafts-carving</title><path d="M23.5,0H22A.5.5,0,0,0,21.6.207L13.877,10.9a.249.249,0,0,0,.054.347l4.45,3.266a.25.25,0,0,0,.35-.054L23.9,7.406a.5.5,0,0,0,.1-.3V.5A.5.5,0,0,0,23.5,0Z"/><path d="M7.372,16.939A6.818,6.818,0,0,0,10.143,7.7a5.662,5.662,0,0,0-7.66-2.3A4.729,4.729,0,0,0,.564,11.8a3.98,3.98,0,0,0,5.39,1.618A3.388,3.388,0,0,0,7.328,8.839a1,1,0,0,0-1.761.947,1.384,1.384,0,0,1-.562,1.874,1.978,1.978,0,0,1-2.68-.8A2.725,2.725,0,0,1,3.432,7.167a3.658,3.658,0,0,1,4.95,1.485,4.817,4.817,0,0,1-1.958,6.526,1,1,0,0,0,.948,1.761Z"/><path d="M13.056,12.46a.243.243,0,0,0-.186-.045.248.248,0,0,0-.164.1l-.339.469v0a2.5,2.5,0,0,0-.468,1.759.252.252,0,0,1-.076.208L6.9,19.664a2,2,0,0,0,.821,3.365l3.043.89a2,2,0,0,0,2.449-1.264l1.715-4.931a.249.249,0,0,1,.238-.167,2.591,2.591,0,0,0,.406-.03,2.483,2.483,0,0,0,1.636-.992l.345-.469a.252.252,0,0,0-.054-.35ZM11.4,21.774a.25.25,0,0,1-.306.158l-2.4-.7a.25.25,0,0,1-.1-.421l4.365-4.173a.115.115,0,0,1,.188.12Z"/></svg>