<svg id="Bold" xmlns="http://www.w3.org/2000/svg" viewBox="0 0 24 24"><title>crafts-origami</title><path d="M21.919,2.26,18.9,4.028a.25.25,0,0,1-.376-.216v-2.3a1.354,1.354,0,0,0-2.414-1L10.181,6.439A.251.251,0,0,1,10,6.512l-5.455,0a1.01,1.01,0,0,0-.737.3L.521,10.1A1.41,1.41,0,0,0,.1,11.688a1.411,1.411,0,0,0,1.423.825H5.857a.25.25,0,0,1,.221.134l3.548,6.789a.992.992,0,0,0,.168.241h0l0,0v0l.033.033h0c0,.043.26.186.36.221l10.427,3.915a1.3,1.3,0,0,0,1.641-.293,1.32,1.32,0,0,0-.106-1.677l-3.13-4.326a.25.25,0,0,1-.033-.232L23.872,3.911C24.372,2.585,23.278,1.474,21.919,2.26ZM16.1,3.356a.25.25,0,0,1,.427.177v9.793a.25.25,0,0,1-.453.146L11.957,7.79a.249.249,0,0,1,.026-.323ZM3.537,10.512a.25.25,0,0,1-.177-.426l.666-.666a.249.249,0,0,1,.4.061l.348.666a.251.251,0,0,1-.222.366ZM6.364,8.874a.249.249,0,0,1,.007-.245.252.252,0,0,1,.214-.12L9.255,8.5a.25.25,0,0,1,.25.25l.014,5.141a.25.25,0,0,1-.472.116Zm5.32,9.486a.25.25,0,0,1-.162-.234V11.373a.25.25,0,0,1,.452-.147L18.681,20.5a.249.249,0,0,1,0,.3.252.252,0,0,1-.287.083Zm7.323-6.928a.25.25,0,0,1-.485-.086V6.708a.248.248,0,0,1,.124-.215l2.143-1.254a.251.251,0,0,1,.362.3Z"/></svg>