<svg id="Bold" xmlns="http://www.w3.org/2000/svg" viewBox="0 0 24 24"><title>crafts-pottery</title><path d="M4.124,15.836a1.4,1.4,0,0,0-.458,1.823L5,19.876a.5.5,0,0,1-.857.516l-1.352-2.25a2.472,2.472,0,0,1,.125-2.485A.5.5,0,0,0,3,15.381V12.5a1.5,1.5,0,0,0-3,0v5.171a4.5,4.5,0,0,0,.986,2.812L3.65,23.812A.5.5,0,0,0,4.04,24H8a.5.5,0,0,0,.5-.5V20.49a4.492,4.492,0,0,0-.757-2.5C5.856,16.025,5.266,15.074,4.124,15.836Z"/><path d="M19.876,15.836a1.4,1.4,0,0,1,.458,1.823L19,19.876a.5.5,0,1,0,.857.516l1.352-2.25a2.472,2.472,0,0,0-.125-2.485A.5.5,0,0,1,21,15.381V12.5a1.5,1.5,0,0,1,3,0v5.171a4.5,4.5,0,0,1-.986,2.812L20.35,23.812a.5.5,0,0,1-.39.188H16a.5.5,0,0,1-.5-.5V20.49a4.492,4.492,0,0,1,.757-2.5C18.144,16.025,18.734,15.074,19.876,15.836Z"/><path d="M17.845,5.889a.878.878,0,0,1-.1-.814,6.6,6.6,0,0,0,.408-1.825C18.156,1.116,15.059,0,12,0S5.844,1.116,5.844,3.25a6.6,6.6,0,0,0,.408,1.825.881.881,0,0,1-.1.814,7.094,7.094,0,1,0,11.689,0ZM12,4.5c-2.819,0-4.156-1-4.156-1.25S9.181,2,12,2s4.156,1,4.156,1.25S14.819,4.5,12,4.5Z"/></svg>