<svg id="Bold" xmlns="http://www.w3.org/2000/svg" viewBox="0 0 24 24"><title>crafts-model-plane </title><path d="M2.5,3.5a1,1,0,0,0-1,1V7.05a.5.5,0,0,1-.272.446,2.248,2.248,0,0,0,0,4.006.5.5,0,0,1,.272.446V14.5a1,1,0,0,0,2,0V4.5A1,1,0,0,0,2.5,3.5Z"/><path d="M15,21H13.75a.5.5,0,0,1-.5-.5V14.983a.5.5,0,0,1,.433-.5l2.738-.367a1.313,1.313,0,0,0-.109-2.621H9.75a1.75,1.75,0,0,0,0,3.5,1.772,1.772,0,0,0,.232-.016l1.2-.161a.5.5,0,0,1,.567.5V20.5a.5.5,0,0,1-.5.5H10a3.012,3.012,0,0,0-2.939,2.4.5.5,0,0,0,.49.6h9.9a.5.5,0,0,0,.49-.6A3.011,3.011,0,0,0,15,21Z"/><path d="M22.5,0H21.039a1.5,1.5,0,0,0-1.471,1.206L18.79,5.1a.5.5,0,0,1-.49.4H17.135a.5.5,0,0,1-.41-.214A7.583,7.583,0,0,0,10.5,2.5,5.217,5.217,0,0,0,6.27,5.254a.5.5,0,0,1-.43.246H5.5a1,1,0,0,0-1,1v6a1,1,0,0,0,1,1l.511,0a.5.5,0,0,0,.5-.467A3.255,3.255,0,0,1,9.75,10h6.562a2.815,2.815,0,0,1,2.342,1.256.5.5,0,0,0,.57.2,32.049,32.049,0,0,0,3.086-1.2A2.843,2.843,0,0,0,24,7.651V1.5A1.5,1.5,0,0,0,22.5,0ZM13.852,5.829a10.893,10.893,0,0,1-3.5.671,3.729,3.729,0,0,1-1.766-.583.253.253,0,0,1-.12-.177.249.249,0,0,1,.06-.205A2.718,2.718,0,0,1,10.5,4.5a6.338,6.338,0,0,1,3.4.881.249.249,0,0,1-.049.448Z"/></svg>