<svg id="Bold" xmlns="http://www.w3.org/2000/svg" viewBox="0 0 24 24"><title>crafts-origami-alternate</title><path d="M18.633,15.664a.25.25,0,0,0,.484.089l4.646-12.13v0c.236-.623.008-.939-.149-1.072s-.5-.306-1.081.028L18.758,4.763a.251.251,0,0,0-.125.216Z"/><path d="M2.768,8.638a.249.249,0,0,0-.4-.061L.5,10.446A.935.935,0,0,0,.189,11.49a.935.935,0,0,0,.961.517H4.116a.252.252,0,0,0,.214-.121.249.249,0,0,0,.007-.245Z"/><path d="M11.034,5.356a.25.25,0,0,0-.028.32L16.678,13.8a.25.25,0,0,0,.455-.143V1.466a.933.933,0,0,0-.517-.961.933.933,0,0,0-1.044.314Z"/><path d="M11.605,8.717a.25.25,0,0,0-.455.144V19.746a.25.25,0,0,0,.158.233l8.78,3.46c.074.03.72.3,1.065-.138.125-.158.277-.507-.113-1.067Z"/><path d="M9.65,7.256a.25.25,0,0,0-.25-.25L4.15,7h0a.5.5,0,0,0-.444.732L9.178,18.206a.25.25,0,0,0,.472-.116Z"/></svg>