<svg xmlns="http://www.w3.org/2000/svg" viewBox="0 0 24 24"><title>credit-card-dollar-1-alternate</title><path d="M3,15a1,1,0,0,1-1-1V8a.5.5,0,0,1,.5-.5h17A.5.5,0,0,1,20,8V9.151a.981.981,0,0,0,.623.913l.021.008A.985.985,0,0,0,22,9.159V3a3,3,0,0,0-3-3H3A3,3,0,0,0,0,3V14a3,3,0,0,0,3,3H8.547a.947.947,0,0,0,.9-.742l.015-.058A.922.922,0,0,0,8.594,15ZM2,3A1,1,0,0,1,3,2H19a1,1,0,0,1,1,1V4a.5.5,0,0,1-.5.5H2.5A.5.5,0,0,1,2,4Z"/><path d="M8,11H5a1,1,0,0,0,0,2H8a1,1,0,0,0,0-2Z"/><path d="M17.5,11A6.5,6.5,0,1,0,24,17.5,6.5,6.5,0,0,0,17.5,11Zm-1.084,5.294,2.71,1.015a2.079,2.079,0,0,1-.665,3.906.249.249,0,0,0-.211.247V22a.75.75,0,0,1-1.5,0v-.5a.25.25,0,0,0-.25-.25h-1a.75.75,0,0,1,0-1.5H18c.5,0,.75-.173.75-.514a.745.745,0,0,0-.166-.53l-2.71-1.015a1.99,1.99,0,0,1-1.124-1.927,2.057,2.057,0,0,1,1.794-1.974.25.25,0,0,0,.206-.246V13a.75.75,0,0,1,1.5,0v.5a.25.25,0,0,0,.25.25h1a.75.75,0,0,1,0,1.5H17c-.406,0-.75.235-.75.514A.745.745,0,0,0,16.416,16.294Z"/></svg>