<svg xmlns="http://www.w3.org/2000/svg" viewBox="0 0 24 24"><title>credit-card-smartphone-alternate</title><path d="M3,15a1,1,0,0,1-1-1V7.75a.25.25,0,0,1,.25-.25h17.5a.25.25,0,0,1,.25.25V9.012a.987.987,0,0,0,.988.987h.029A.985.985,0,0,0,22,9.012V3a3,3,0,0,0-3-3H3A3,3,0,0,0,0,3V14a3,3,0,0,0,3,3h9.513a.987.987,0,0,0,.987-.987v-.026A.987.987,0,0,0,12.513,15ZM2,3A1,1,0,0,1,3,2H19a1,1,0,0,1,1,1V4.25a.25.25,0,0,1-.25.25H2.25A.25.25,0,0,1,2,4.25Z"/><path d="M8,11H5a1,1,0,0,0,0,2H8a1,1,0,0,0,0-2Z"/><path d="M22.526,12H17.474A1.493,1.493,0,0,0,16,13.509h0v8.982h0A1.493,1.493,0,0,0,17.474,24h5.052A1.493,1.493,0,0,0,24,22.491h0V13.509h0A1.493,1.493,0,0,0,22.526,12ZM21.5,21h-3a.5.5,0,0,1-.5-.5v-6a.5.5,0,0,1,.5-.5h3a.5.5,0,0,1,.5.5v6A.5.5,0,0,1,21.5,21Z"/></svg>