<svg xmlns="http://www.w3.org/2000/svg" viewBox="0 0 24 24"><title>credit-card-smartphone-exchange</title><path d="M5.728,5.25H3.87a.75.75,0,0,0,0,1.5H5.728a.75.75,0,0,0,0-1.5Z"/><path d="M11.013.25H2.728A2.364,2.364,0,0,0,.12,2.333V7.5a2.684,2.684,0,0,0,2.608,2.75h8.285A2.684,2.684,0,0,0,13.62,7.5V2.333A2.363,2.363,0,0,0,11.013.25Zm0,8.5H2.728A1.186,1.186,0,0,1,1.62,7.5V4a.25.25,0,0,1,.25-.25h10a.25.25,0,0,1,.25.25V7.5A1.186,1.186,0,0,1,11.013,8.75Z"/><path d="M10.287,20.377l-2.99-2A.749.749,0,0,0,6.13,19v.171a.25.25,0,0,1-.384.211A4,4,0,0,1,3.88,16a1,1,0,0,0-2,0,6.011,6.011,0,0,0,4.08,5.685.25.25,0,0,1,.17.236V23a.75.75,0,0,0,1.167.623l2.99-2a.749.749,0,0,0,0-1.246Z"/><path d="M15.456,3.625l3.01,2A.75.75,0,0,0,19.631,5V4.83a.25.25,0,0,1,.384-.211A4,4,0,0,1,21.88,8a1,1,0,0,0,2,0A6.009,6.009,0,0,0,19.8,2.316a.251.251,0,0,1-.17-.237V1A.75.75,0,0,0,18.466.375l-3.01,2a.751.751,0,0,0,0,1.25Z"/><path d="M21.87,9.75h-5a1.752,1.752,0,0,0-1.75,1.75V22a1.693,1.693,0,0,0,1.625,1.75H22A1.692,1.692,0,0,0,23.62,22V11.5A1.752,1.752,0,0,0,21.87,9.75Zm-2.5,13a.75.75,0,1,1,.75-.75A.75.75,0,0,1,19.37,22.75Zm-2.5-11.5h5a.25.25,0,0,1,.25.25V20a.25.25,0,0,1-.25.25h-5a.25.25,0,0,1-.25-.25V11.5A.25.25,0,0,1,16.87,11.25Z"/></svg>