<svg xmlns="http://www.w3.org/2000/svg" viewBox="0 0 24 24"><title>crime-man-riot-2</title><path d="M23.755,23.02V20.467a2.9,2.9,0,0,0-1.14-2.325A14.328,14.328,0,0,0,16.9,15.687a.246.246,0,0,1-.189-.285,14.374,14.374,0,0,0,.218-1.746.24.24,0,0,1,.066-.152,6.826,6.826,0,0,0,1.863-4.688V6.857a6.857,6.857,0,0,0-13.714,0V8.816A6.826,6.826,0,0,0,7.006,13.5a.24.24,0,0,1,.066.152A14.374,14.374,0,0,0,7.29,15.4a.246.246,0,0,1-.189.285,14.334,14.334,0,0,0-5.717,2.455A2.9,2.9,0,0,0,.245,20.467V23.02a.98.98,0,1,0,1.959,0V20.467a.956.956,0,0,1,.369-.768,12.645,12.645,0,0,1,5.1-2.132.244.244,0,0,1,.277.149,9.6,9.6,0,0,0,3.812,4.755.49.49,0,0,0,.47,0,9.6,9.6,0,0,0,3.812-4.755.245.245,0,0,1,.277-.149,12.632,12.632,0,0,1,5.1,2.132.954.954,0,0,1,.37.768V23.02a.98.98,0,1,0,1.959,0ZM7.1,7.885a.244.244,0,0,1,.238-.244,6.854,6.854,0,0,0,4.6-1.658.092.092,0,0,1,.124,0,6.854,6.854,0,0,0,4.6,1.659.245.245,0,0,1,.238.245v.929a4.852,4.852,0,0,1-.733,2.566.246.246,0,0,1-.345.074,6.821,6.821,0,0,0-7.64,0,.246.246,0,0,1-.345-.074A4.852,4.852,0,0,1,7.1,8.816Z"/><circle cx="13.959" cy="9.061" r="0.98"/><circle cx="10.041" cy="9.061" r="0.98"/></svg>