<svg xmlns="http://www.w3.org/2000/svg" viewBox="0 0 24 24"><title>crime-razor</title><path d="M21,20.5a2.9,2.9,0,0,0-.662.077.249.249,0,0,1-.273-.115,3.01,3.01,0,0,0-3.035-1.424.248.248,0,0,1-.276-.165,4.227,4.227,0,0,0-8.016.023.219.219,0,0,1-.245.146A2.9,2.9,0,0,0,8,19a3.007,3.007,0,0,0-2.92,2.307.249.249,0,0,1-.243.193H1.25a1.25,1.25,0,0,0,0,2.5H23.5a.5.5,0,0,0,.5-.5A3,3,0,0,0,21,20.5Z"/><path d="M1.675,12.852a1,1,0,0,0,.677.7.982.982,0,0,0,.923-.184l1.085-.824a.25.25,0,0,1,.4.215l-.051.83a1,1,0,0,0,1,1.062,1.016,1.016,0,0,0,.256-.033L17.186,11.63a1,1,0,0,0,.578-1.517l-.459-.7a.25.25,0,0,1,.241-.385l1.321.17a1,1,0,0,0,1.169-1.236L18.4,1.8a1.012,1.012,0,0,0-.679-.7.98.98,0,0,0-.922.185l-1.09.827a.25.25,0,0,1-.4-.215l.051-.832A1,1,0,0,0,14.1.033L2.877,3.021A1,1,0,0,0,2.3,4.536l.458.7a.251.251,0,0,1-.241.386L1.2,5.447a.992.992,0,0,0-.928.293,1.009,1.009,0,0,0-.24.944ZM5.01,7.886l1.862-.5a.25.25,0,0,0,.178-.306l-.132-.495A.75.75,0,0,1,8.367,6.2l.132.5a.251.251,0,0,0,.306.178l1.85-.493a.249.249,0,0,0,.177-.306l-.13-.489A.75.75,0,0,1,12.151,5.2l.13.49a.25.25,0,0,0,.306.177l2.087-.555a.75.75,0,0,1,.386,1.449l-2.087.555a.249.249,0,0,0-.177.306l.127.477a.75.75,0,1,1-1.449.386l-.127-.477a.251.251,0,0,0-.306-.178L9.19,8.325a.249.249,0,0,0-.177.306l.126.472a.75.75,0,0,1-.532.917.717.717,0,0,1-.193.026.752.752,0,0,1-.725-.558l-.125-.471a.251.251,0,0,0-.306-.178l-1.862.5a.712.712,0,0,1-.193.026A.75.75,0,0,1,5.01,7.886Z"/></svg>