<svg xmlns="http://www.w3.org/2000/svg" viewBox="0 0 24 24"><title>crime-wanted</title><path d="M22,0H2A2,2,0,0,0,0,2V22a2,2,0,0,0,2,2H8a1,1,0,0,0,0-2H2.25A.25.25,0,0,1,2,21.75V2.25A.25.25,0,0,1,2.25,2h19.5a.25.25,0,0,1,.25.25v19.5a.25.25,0,0,1-.25.25H16a1,1,0,0,0,0,2h6a2,2,0,0,0,2-2V2A2,2,0,0,0,22,0Z"/><path d="M11.75,17.5h2a.75.75,0,0,0,0-1.5h-.5a.25.25,0,0,1-.25-.25.75.75,0,0,0-1.5,0v.071a.249.249,0,0,1-.187.242A1.745,1.745,0,0,0,10,17.75c0,1.213,1.106,1.767,1.915,2.171.635.318,1.085.563,1.085.829a.25.25,0,0,1-.25.25h-2a.75.75,0,0,0,0,1.5h.5a.25.25,0,0,1,.25.25.75.75,0,0,0,1.5,0v-.071a.249.249,0,0,1,.187-.242A1.746,1.746,0,0,0,14.5,20.75c0-1.213-1.106-1.767-1.915-2.171-.635-.318-1.085-.563-1.085-.829A.25.25,0,0,1,11.75,17.5Z"/><path d="M16.165,15.092a.249.249,0,0,0,.232.158H19a1,1,0,0,0,1-1v-10a1,1,0,0,0-1-1H5a1,1,0,0,0-1,1v10a1,1,0,0,0,1,1H7.6a.249.249,0,0,0,.232-.158,4.47,4.47,0,0,1,8.33,0ZM9.005,8.248a3,3,0,1,1,3,3A3,3,0,0,1,9.005,8.248Z"/></svg>