<svg xmlns="http://www.w3.org/2000/svg" viewBox="0 0 24 24"><title>crime-woman-inmate</title><path d="M23.16,19.044a16.191,16.191,0,0,0-7.284-2.668.073.073,0,0,0-.081.057,4.174,4.174,0,0,1-8.117.24.249.249,0,0,0-.285-.181A15.679,15.679,0,0,0,.84,19.044a2.034,2.034,0,0,0-.651.795.25.25,0,0,0,.228.354H23.583a.25.25,0,0,0,.228-.354A2.034,2.034,0,0,0,23.16,19.044Z"/><rect y="22.193" width="24" height="1.792" rx="0.25" ry="0.25"/><path d="M10.969,8.515a.75.75,0,0,0-.75-.75h-1a.75.75,0,0,0,0,1.5h1A.75.75,0,0,0,10.969,8.515Z"/><path d="M12.969,11.954a.75.75,0,0,0-.75-.75h-1a.75.75,0,0,0,0,1.5h1A.75.75,0,0,0,12.969,11.954Z"/><path d="M14.219,7.765h-1a.75.75,0,0,0,0,1.5h1a.75.75,0,0,0,0-1.5Z"/><path d="M7.6,14.763a.249.249,0,0,1,.189.039,6.959,6.959,0,0,0,7.863-.008.253.253,0,0,1,.191-.039c.508.1,3.675,1.069,5.2-.759a.5.5,0,0,0-.231-.8c-2.559-.822-2.1-4.094-2.1-4.184V3.646a3.007,3.007,0,0,0-.129-.877A2.954,2.954,0,0,0,16.9.887h0A13.526,13.526,0,0,0,11.719.015,13.53,13.53,0,0,0,6.537.887,2.977,2.977,0,0,0,4.719,3.646V9.015c0,.089.429,3.368-2.113,4.184a.5.5,0,0,0-.231.8C3.9,15.825,7.114,14.858,7.6,14.763ZM6.719,3.646a.984.984,0,0,1,.591-.915,11.468,11.468,0,0,1,4.409-.716,12.353,12.353,0,0,1,4.409.716.966.966,0,0,1,.549.623,9.641,9.641,0,0,1,.042,2.1.251.251,0,0,1-.332.237,14.277,14.277,0,0,0-4.668-.676,14.277,14.277,0,0,0-4.668.676.251.251,0,0,1-.332-.237Zm5,10.369a5.006,5.006,0,0,1-5-5V8.174a.253.253,0,0,1,.131-.221,10.293,10.293,0,0,1,4.869-.938,10.309,10.309,0,0,1,4.868.936.25.25,0,0,1,.132.22v.844A5.006,5.006,0,0,1,11.719,14.015Z"/></svg>