<svg xmlns="http://www.w3.org/2000/svg" viewBox="0 0 24 24"><title>crime-man-thief-1</title><path d="M12.98,12.852a.626.626,0,0,0,.3-1.177,2.293,2.293,0,0,0-.427-.177,2.892,2.892,0,0,0-.845-.123H12a2.945,2.945,0,0,0-.849.124,2.309,2.309,0,0,0-.426.176.626.626,0,0,0,.3,1.177Z"/><path d="M22.533,18.792a15.02,15.02,0,0,0-6.821-2.634.25.25,0,0,1-.212-.247V14.774a.248.248,0,0,1,.116-.21A6.746,6.746,0,0,0,18.75,8.875v-2a6.75,6.75,0,0,0-13.5,0v2a6.746,6.746,0,0,0,3.134,5.689.248.248,0,0,1,.116.21v1.137a.25.25,0,0,1-.212.247,15.015,15.015,0,0,0-6.821,2.634A2.467,2.467,0,0,0,.5,20.769v2.606a.5.5,0,0,0,.5.5H23a.5.5,0,0,0,.5-.5V20.769A2.462,2.462,0,0,0,22.533,18.792ZM16,7.875a.5.5,0,0,1-.5.5h-1a.5.5,0,0,1,0-1h1A.5.5,0,0,1,16,7.875Zm-6,0a.5.5,0,0,1-.5.5h-1a.5.5,0,0,1,0-1h1A.5.5,0,0,1,10,7.875ZM8.849,2.7a.251.251,0,0,1,.4.2v.978a.75.75,0,0,0,1.5,0V1.994a.25.25,0,0,1,.5,0V3.375a.75.75,0,0,0,1.5,0V1.994a.25.25,0,1,1,.5,0V3.875a.75.75,0,0,0,1.5,0V2.9a.25.25,0,0,1,.4-.2A5.245,5.245,0,0,1,16.988,5.29a.251.251,0,0,1-.239.326c-2.229,0-7.269,0-9.5,0a.251.251,0,0,1-.239-.326A5.245,5.245,0,0,1,8.849,2.7ZM7.32,11.246a.25.25,0,0,1,.214-.363,6.485,6.485,0,0,0,4.313-1.592.25.25,0,0,1,.337,0,6.394,6.394,0,0,0,4.282,1.592.25.25,0,0,1,.214.363A5.269,5.269,0,0,1,7.32,11.246Z"/></svg>