<svg xmlns="http://www.w3.org/2000/svg" viewBox="0 0 24 24"><title>crime-man-thief-2</title><path d="M1.481,21.033A2.3,2.3,0,0,0,.5,22.9v.6A.5.5,0,0,0,1,24H23a.5.5,0,0,0,.5-.5v-.6a2.3,2.3,0,0,0-.981-1.871,15.687,15.687,0,0,0-6.8-2.435.249.249,0,0,1-.214-.247V16.4a.248.248,0,0,1,.116-.21A6.746,6.746,0,0,0,18.75,10.5v-2a6.76,6.76,0,0,0-4.484-6.356.247.247,0,0,1-.151-.152.245.245,0,0,1,.022-.214A2.444,2.444,0,0,0,14.5.5.5.5,0,0,0,14,0H10a.5.5,0,0,0-.5.5,2.444,2.444,0,0,0,.363,1.278.248.248,0,0,1,.023.214.251.251,0,0,1-.152.152A6.76,6.76,0,0,0,5.25,8.5v2a6.746,6.746,0,0,0,3.134,5.689.248.248,0,0,1,.116.21v1.952a.249.249,0,0,1-.214.247A15.687,15.687,0,0,0,1.481,21.033ZM12,14.75c-1.283,0-2.25-.538-2.25-1.25a2.321,2.321,0,0,1,4.5,0C14.25,14.212,13.283,14.75,12,14.75Zm.75-6.25c0-.748,1.164-1.25,2.25-1.25A1.283,1.283,0,0,1,16.25,8.5a1.832,1.832,0,0,1-1.75,1.75A1.8,1.8,0,0,1,12.75,8.5Zm-1.5,0A1.8,1.8,0,0,1,9.5,10.25,1.832,1.832,0,0,1,7.75,8.5,1.283,1.283,0,0,1,9,7.25C10.086,7.25,11.25,7.752,11.25,8.5Z"/></svg>