<svg xmlns="http://www.w3.org/2000/svg" viewBox="0 0 24 24"><title>crime-man-thief-3</title><path d="M16.445,16.591a.247.247,0,0,0-.237.042A7.358,7.358,0,0,1,12,18.375a7.363,7.363,0,0,1-4.211-1.744.247.247,0,0,0-.237-.042L2.92,18.162A4.519,4.519,0,0,0,0,22.375v1a.5.5,0,0,0,.5.5h23a.5.5,0,0,0,.5-.5v-1a4.524,4.524,0,0,0-2.937-4.219Z"/><circle cx="10" cy="3.375" r="0.75"/><circle cx="14" cy="3.375" r="0.75"/><circle cx="12" cy="3.875" r="0.75"/><path d="M5.155,7.986a.252.252,0,0,1-.033.227,2.148,2.148,0,0,0-.371,1.3,2.728,2.728,0,0,0,1.435,2.431.251.251,0,0,1,.142.188c.509,3.047,4.011,4.991,5.672,4.991s5.163-1.944,5.672-4.992a.251.251,0,0,1,.142-.187,2.728,2.728,0,0,0,1.435-2.431,2.148,2.148,0,0,0-.371-1.3.252.252,0,0,1-.033-.227A2.772,2.772,0,0,0,19,7.077a2.842,2.842,0,0,0-.044-.443,2.78,2.78,0,0,0-.792-1.554,2.866,2.866,0,0,0-3.615-.333L12.14,6.378a.247.247,0,0,1-.28,0L9.451,4.747a2.864,2.864,0,0,0-3.615.333,2.78,2.78,0,0,0-.792,1.554A2.842,2.842,0,0,0,5,7.077,2.772,2.772,0,0,0,5.155,7.986Zm12.038,2.6a1.752,1.752,0,0,0-1,1.306c-.375,2.248-3.162,3.738-4.191,3.738s-3.816-1.49-4.191-3.738a1.752,1.752,0,0,0-1-1.306,1.043,1.043,0,0,1-.476-.631A.253.253,0,0,1,6.4,9.686a.25.25,0,0,1,.27-.041,2.861,2.861,0,0,0,2.779-.238l1.524-1.032.885-.6a.247.247,0,0,1,.28,0l.885.6,1.524,1.032a2.861,2.861,0,0,0,2.779.238.25.25,0,0,1,.27.041.253.253,0,0,1,.071.264A1.043,1.043,0,0,1,17.193,10.581ZM9,7.625H8a.75.75,0,0,1,0-1.5H9a.75.75,0,0,1,0,1.5Zm7.75-.75a.75.75,0,0,1-.75.75H15a.75.75,0,0,1,0-1.5h1A.75.75,0,0,1,16.75,6.875Z"/><path d="M6.883,2.812a.749.749,0,0,0,1.06.044A5.858,5.858,0,0,1,12,1.625a5.858,5.858,0,0,1,4.057,1.231.75.75,0,1,0,1.015-1.1A7.268,7.268,0,0,0,12,.125,7.268,7.268,0,0,0,6.928,1.752.751.751,0,0,0,6.883,2.812Z"/><path d="M9.873,13.037a.741.741,0,0,0,.352.088.751.751,0,0,0,.663-.4.777.777,0,0,1,.457-.29,2.011,2.011,0,0,1,.582-.083h0a2,2,0,0,1,.576.082.794.794,0,0,1,.465.3.75.75,0,0,0,1.314-.722A2.2,2.2,0,0,0,12.943,11a3.511,3.511,0,0,0-1.014-.147h0A3.544,3.544,0,0,0,10.907,11a2.181,2.181,0,0,0-1.344,1.019A.751.751,0,0,0,9.873,13.037Z"/></svg>