<svg xmlns="http://www.w3.org/2000/svg" viewBox="0 0 24 24"><title>crime-seal-forfeit</title><path d="M21.968,22.2,20.9,16.686A1.508,1.508,0,0,0,19.428,15.5H4.571A1.512,1.512,0,0,0,3.1,16.7L2.033,22.186A1.5,1.5,0,0,0,3.5,24h17a1.5,1.5,0,0,0,1.468-1.8ZM7,22.25H5.5a.75.75,0,0,1,0-1.5H7a.75.75,0,0,1,0,1.5Zm5-.75c-1.657,0-3-.784-3-1.75S10.343,18,12,18s3,.784,3,1.75S13.656,21.5,12,21.5Zm6.5-2.75H17a.75.75,0,0,1,0-1.5h1.5a.75.75,0,0,1,0,1.5Z"/><path d="M5.767,11a.25.25,0,0,0-.247.286A2,2,0,0,0,7.5,13h9a2,2,0,0,0,1.979-1.714.25.25,0,0,0-.058-.2A.254.254,0,0,0,18.232,11Z"/><path d="M4.879,9.869H19.12a.374.374,0,0,0,.373-.367c0-.2.007-1.383.007-1.672a1.119,1.119,0,0,0-1.119-1.119l-.015,0H14.611a1.12,1.12,0,0,1-1.12-1.121,1.929,1.929,0,0,1,.477-1.272,2.61,2.61,0,1,0-3.937,0,1.929,1.929,0,0,1,.477,1.272,1.12,1.12,0,0,1-1.12,1.121H5.633l-.015,0A1.118,1.118,0,0,0,4.5,7.83c0,.289,0,1.474.006,1.672A.374.374,0,0,0,4.879,9.869Z"/></svg>