<svg xmlns="http://www.w3.org/2000/svg" viewBox="0 0 24 24"><title>crypto-currency-litecoin</title><path d="M12,1A11,11,0,1,0,23,12,11,11,0,0,0,12,1Zm5.5,16.75H9.11a1.251,1.251,0,0,1-1.226-1.5L8.4,13.7a.251.251,0,0,0-.346-.279L6.3,14.188a.78.78,0,0,1-.3.062.75.75,0,0,1-.3-1.437l3.03-1.326a.251.251,0,0,0,.145-.18l1.391-6.954a.75.75,0,1,1,1.47.294l-1.117,5.584a.25.25,0,0,0,.089.244.247.247,0,0,0,.257.034l2.735-1.2a.751.751,0,1,1,.6,1.375l-4.017,1.757a.25.25,0,0,0-.145.18l-.665,3.326a.246.246,0,0,0,.052.207.249.249,0,0,0,.193.092H17.5a.75.75,0,0,1,0,1.5Z"/></svg>