<svg xmlns="http://www.w3.org/2000/svg" viewBox="0 0 24 24"><title>crypto-currency-bitcoin-exhcange</title><path d="M18.5,6.5A6.5,6.5,0,1,0,12,13,6.5,6.5,0,0,0,18.5,6.5Zm-8.75-3a.75.75,0,0,1,.75-.75.25.25,0,0,0,.25-.25.75.75,0,0,1,1.5,0,.25.25,0,0,0,.25.25H13A2.253,2.253,0,0,1,15.25,5a2.219,2.219,0,0,1-.46,1.349.249.249,0,0,0,0,.3A2.219,2.219,0,0,1,15.25,8,2.253,2.253,0,0,1,13,10.25h-.5a.25.25,0,0,0-.25.25.75.75,0,0,1-1.5,0,.25.25,0,0,0-.25-.25.75.75,0,0,1-.75-.75Z"/><path d="M13,7.25H11.5a.25.25,0,0,0-.25.25v1a.25.25,0,0,0,.25.25H13a.75.75,0,0,0,0-1.5Z"/><path d="M11.5,4.25a.25.25,0,0,0-.25.25v1a.25.25,0,0,0,.25.25H13a.75.75,0,0,0,0-1.5Z"/><path d="M9.5,13H2a2,2,0,0,0-2,2v5.5a2,2,0,0,0,2,2H3.125a.25.25,0,0,1,.2.4l-.225.3a.5.5,0,0,0,.4.8H8a.5.5,0,0,0,.4-.8l-.225-.3a.25.25,0,0,1,.2-.4H9.5a2,2,0,0,0,2-2V15A2,2,0,0,0,9.5,13ZM2,15.25A.25.25,0,0,1,2.25,15l7,0a.249.249,0,0,1,.25.25v4a.25.25,0,0,1-.25.25h-7A.25.25,0,0,1,2,19.25Z"/><path d="M24,15a2,2,0,0,0-2-2H14.5a2,2,0,0,0-2,2v5.5a2,2,0,0,0,2,2h1.125a.25.25,0,0,1,.2.4l-.225.3a.5.5,0,0,0,.4.8h4.5a.5.5,0,0,0,.4-.8l-.225-.3a.25.25,0,0,1,.2-.4H22a2,2,0,0,0,2-2Zm-9.5.25a.25.25,0,0,1,.25-.25l7,0a.249.249,0,0,1,.25.25v4a.25.25,0,0,1-.25.25h-7a.25.25,0,0,1-.25-.25Z"/></svg>