<svg xmlns="http://www.w3.org/2000/svg" viewBox="0 0 24 24"><title>crypto-currency-bitcoin-world</title><path d="M17.28,10.481A6.72,6.72,0,1,0,24,17.2,6.72,6.72,0,0,0,17.28,10.481Zm3.6,8.16a2.153,2.153,0,0,1-1.291,1.967.25.25,0,0,0-.149.229v.684a.72.72,0,0,1-1.44,0v-.47a.25.25,0,0,0-.25-.25h-.46a.25.25,0,0,0-.25.25v.47a.72.72,0,1,1-1.44,0v-.48a.239.239,0,0,0-.24-.24.72.72,0,0,1-.72-.72v-5.76a.72.72,0,0,1,.72-.72.24.24,0,0,0,.24-.24v-.48a.72.72,0,0,1,1.44,0v.72h.71a.25.25,0,0,0,.25-.25v-.47a.72.72,0,1,1,1.44,0v.683a.25.25,0,0,0,.149.229,2.153,2.153,0,0,1,1.291,1.968,2.124,2.124,0,0,1-.438,1.289.249.249,0,0,0,0,.3A2.132,2.132,0,0,1,20.88,18.641Z"/><path d="M19.44,15.761a.721.721,0,0,0-.72-.72H16.33a.25.25,0,0,0-.25.25v.94a.25.25,0,0,0,.25.25h2.39A.721.721,0,0,0,19.44,15.761Z"/><path d="M18.72,17.921H16.33a.25.25,0,0,0-.25.25v.94a.25.25,0,0,0,.25.25h2.39a.72.72,0,0,0,0-1.44Z"/><path d="M9.143,17.841a.252.252,0,0,1,0-.205.641.641,0,0,0,.066-.276.7.7,0,0,0-.426-.644.257.257,0,0,1-.135-.147,16.145,16.145,0,0,1-.846-3.979.252.252,0,0,1,.25-.27h.928a.72.72,0,0,0,0-1.44H8.025a.248.248,0,0,1-.249-.265,13.483,13.483,0,0,1,.818-3.892.25.25,0,0,1,.234-.164h6.338a.249.249,0,0,1,.234.164A13.527,13.527,0,0,1,16,8.851a.721.721,0,0,0,.706.583.731.731,0,0,0,.138-.013.72.72,0,0,0,.57-.844,14.936,14.936,0,0,0-.434-1.692.25.25,0,0,1,.238-.326H20.3a.251.251,0,0,1,.211.116,9.965,9.965,0,0,1,1.491,4.087.959.959,0,0,0,1.9-.247A12.005,12.005,0,1,0,6.64,22.819.96.96,0,1,0,7.5,21.1a10.028,10.028,0,0,1-3.263-2.613.25.25,0,0,1,.193-.409h3.09a.248.248,0,0,1,.23.154c.19.455.393.911.622,1.367a.72.72,0,1,0,1.288-.645Q9.38,18.4,9.143,17.841Zm-2.825-7.2a.25.25,0,0,1-.25.237H2.284a.249.249,0,0,1-.247-.287A10,10,0,0,1,3.5,6.675a.25.25,0,0,1,.211-.116h3.06a.25.25,0,0,1,.238.327A14.773,14.773,0,0,0,6.318,10.643Zm3.41-5.524a.25.25,0,0,1-.218-.371A16.2,16.2,0,0,1,11.348,2.11a.252.252,0,0,1,.174-.088C11.681,2.012,11.839,2,12,2s.32.011.478.021a.248.248,0,0,1,.175.088A16.217,16.217,0,0,1,14.5,4.748a.25.25,0,0,1-.219.371ZM15.1,2.964a.25.25,0,0,1,.293-.373A10.138,10.138,0,0,1,18.85,4.686a.25.25,0,0,1-.17.433H16.454a.252.252,0,0,1-.226-.143A16.466,16.466,0,0,0,15.1,2.964ZM8.6,2.6a.25.25,0,0,1,.293.373,16.4,16.4,0,0,0-1.134,2,.249.249,0,0,1-.226.142h-2.2a.25.25,0,0,1-.17-.433A10.075,10.075,0,0,1,8.6,2.6ZM3.18,16.639a.25.25,0,0,1-.225-.14,10.062,10.062,0,0,1-1.009-3.917.251.251,0,0,1,.25-.263H6.1a.25.25,0,0,1,.249.232,17.211,17.211,0,0,0,.714,3.765.25.25,0,0,1-.239.323Z"/></svg>