<svg xmlns="http://www.w3.org/2000/svg" viewBox="0 0 24 24"><title>crypto-currency-bitcoin-world-alternate</title><path d="M13.9,8.448a.251.251,0,0,1-.15-.229V7.5a.75.75,0,0,0-1.5,0V8a.25.25,0,0,1-.25.25h-.5A.25.25,0,0,1,11.25,8V7.5a.75.75,0,0,0-1.5,0V8a.25.25,0,0,1-.25.25A.75.75,0,0,0,8.75,9v6a.75.75,0,0,0,.75.75.25.25,0,0,1,.25.25v.5a.75.75,0,0,0,1.5,0V16a.25.25,0,0,1,.25-.25H12a.25.25,0,0,1,.25.25v.5a.75.75,0,0,0,1.5,0v-.719a.251.251,0,0,1,.15-.229A2.244,2.244,0,0,0,15.25,13.5a2.219,2.219,0,0,0-.46-1.349.249.249,0,0,1,0-.3,2.219,2.219,0,0,0,.46-1.349A2.244,2.244,0,0,0,13.9,8.448ZM10.25,10a.25.25,0,0,1,.25-.25H13a.75.75,0,0,1,0,1.5H10.5a.25.25,0,0,1-.25-.25ZM13,14.25H10.5a.25.25,0,0,1-.25-.25V13a.25.25,0,0,1,.25-.25H13a.75.75,0,0,1,0,1.5Z"/><path d="M12,0A12,12,0,1,0,24,12,12.013,12.013,0,0,0,12,0Zm3.238,21.449a.25.25,0,0,1-.289-.374A15.278,15.278,0,0,0,16.186,18.8a.75.75,0,0,0-1.372-.608A13.737,13.737,0,0,1,12.42,21.9a.25.25,0,0,1-.171.085c-.083,0-.165.012-.249.012s-.166-.007-.249-.012a.25.25,0,0,1-.171-.085A13.737,13.737,0,0,1,9.186,18.2a.75.75,0,0,0-1.372.608,15.278,15.278,0,0,0,1.237,2.271.249.249,0,0,1-.289.374,10.017,10.017,0,0,1-4.629-3.3.25.25,0,0,1,.2-.4H7.1a.75.75,0,0,0,0-1.5H3.121a.249.249,0,0,1-.227-.147,9.907,9.907,0,0,1-.832-3.077.252.252,0,0,1,.249-.276H5.5a.75.75,0,0,0,0-1.5H2.311a.251.251,0,0,1-.249-.276,9.924,9.924,0,0,1,1.369-4.1.251.251,0,0,1,.215-.121H7.5a.75.75,0,0,0,0-1.5H5.236a.25.25,0,0,1-.173-.43A9.99,9.99,0,0,1,8.946,2.489a.25.25,0,0,1,.293.364A19.079,19.079,0,0,0,8.314,4.7.75.75,0,1,0,9.686,5.3a12.261,12.261,0,0,1,1.9-3.2.244.244,0,0,1,.174-.088C11.841,2.006,11.919,2,12,2s.159.006.239.012a.244.244,0,0,1,.174.088,12.261,12.261,0,0,1,1.9,3.2A.75.75,0,1,0,15.686,4.7a19.079,19.079,0,0,0-.925-1.843.249.249,0,0,1,.021-.282.252.252,0,0,1,.272-.082A9.99,9.99,0,0,1,18.937,4.82a.25.25,0,0,1-.173.43H16.5a.75.75,0,0,0,0,1.5h3.854a.251.251,0,0,1,.215.121,9.924,9.924,0,0,1,1.369,4.1.252.252,0,0,1-.249.276H18.5a.75.75,0,0,0,0,1.5h3.189a.251.251,0,0,1,.249.276,9.907,9.907,0,0,1-.832,3.077.249.249,0,0,1-.227.147H16.9a.75.75,0,1,0,0,1.5H19.67a.25.25,0,0,1,.2.4A10.017,10.017,0,0,1,15.238,21.449Z"/></svg>