<svg xmlns="http://www.w3.org/2000/svg" viewBox="0 0 24 24"><title>crypto-currency-bitcoin</title><path d="M11.5,8.25a.25.25,0,0,0-.25.25v1a.25.25,0,0,0,.25.25H13a.75.75,0,0,0,0-1.5Z"/><path d="M13,11.25H11.5a.25.25,0,0,0-.25.25v1a.25.25,0,0,0,.25.25H13a.75.75,0,0,0,0-1.5Z"/><path d="M20.5,0A2.5,2.5,0,0,0,18,2.5a2.459,2.459,0,0,0,.125.766.25.25,0,0,1-.06.255L16.982,4.6a.25.25,0,0,1-.332.019,7.473,7.473,0,0,0-9.3,0A.25.25,0,0,1,7.018,4.6L5.935,3.521a.25.25,0,0,1-.06-.255A2.459,2.459,0,0,0,6,2.5,2.5,2.5,0,1,0,3.5,5a2.454,2.454,0,0,0,.766-.125.25.25,0,0,1,.255.06L5.686,6.1a.25.25,0,0,1,.032.313A7.484,7.484,0,0,0,10.79,17.894a.25.25,0,0,1,.21.247v.913a.249.249,0,0,1-.136.222,2.5,2.5,0,1,0,2.272,0A.25.25,0,0,1,13,19.054v-.913a.25.25,0,0,1,.21-.247A7.484,7.484,0,0,0,18.282,6.413a.25.25,0,0,1,.032-.313l1.165-1.165a.25.25,0,0,1,.255-.06A2.454,2.454,0,0,0,20.5,5a2.5,2.5,0,0,0,0-5ZM9.75,7.5a.75.75,0,0,1,.75-.75.25.25,0,0,0,.25-.25.75.75,0,0,1,1.5,0,.25.25,0,0,0,.25.25H13A2.253,2.253,0,0,1,15.25,9a2.219,2.219,0,0,1-.46,1.349.249.249,0,0,0,0,.3A2.219,2.219,0,0,1,15.25,12,2.253,2.253,0,0,1,13,14.25h-.5a.25.25,0,0,0-.25.25.75.75,0,0,1-1.5,0,.25.25,0,0,0-.25-.25.75.75,0,0,1-.75-.75Z"/></svg>