<svg xmlns="http://www.w3.org/2000/svg" viewBox="0 0 24 24"><title>crypto-currency-bitcoin-network</title><path d="M11.966,2.057a.247.247,0,0,1,.18-.078H12.5a1,1,0,0,0,0-2C1.72-.021,0,9.3,0,12S1.72,24.021,12.5,24.021a1,1,0,0,0,0-2h-.357a.245.245,0,0,1-.178-.077,17.691,17.691,0,0,1-2.621-3.3.25.25,0,0,1,.216-.375H11.1a1,1,0,1,0,0-2H8.507a.248.248,0,0,1-.24-.182,13.9,13.9,0,0,1-.474-2.821A.25.25,0,0,1,8.042,13H10.1a1,1,0,1,0,0-2H8.042a.248.248,0,0,1-.249-.267,13.9,13.9,0,0,1,.474-2.822.251.251,0,0,1,.24-.182H11.1a1,1,0,0,0,0-2H9.56a.25.25,0,0,1-.216-.375A17.686,17.686,0,0,1,11.966,2.057ZM8.392,20.836a.251.251,0,0,1-.3.376,10.07,10.07,0,0,1-3.519-2.524.25.25,0,0,1,.186-.417H6.772A.249.249,0,0,1,7,18.419,13.575,13.575,0,0,0,8.392,20.836ZM6.181,15.964a.251.251,0,0,1-.244.307H3.129a.25.25,0,0,1-.228-.147,9.927,9.927,0,0,1-.818-2.841A.251.251,0,0,1,2.331,13h3.21a.251.251,0,0,1,.25.235A16.418,16.418,0,0,0,6.181,15.964Zm-.39-5.2a.25.25,0,0,1-.25.234H2.331a.25.25,0,0,1-.188-.085.253.253,0,0,1-.06-.2A9.949,9.949,0,0,1,2.9,7.875a.251.251,0,0,1,.228-.146H5.937a.251.251,0,0,1,.244.307A16.43,16.43,0,0,0,5.791,10.766ZM4.758,5.729a.25.25,0,0,1-.186-.417A10.066,10.066,0,0,1,8.09,2.788a.25.25,0,0,1,.3.376A13.573,13.573,0,0,0,7,5.581a.25.25,0,0,1-.229.148Z"/><path d="M14,18.021a1,1,0,0,0,1,1h.75a.25.25,0,0,1,.25.25v.75a1,1,0,0,0,2,0v-.75a.25.25,0,0,1,.25-.25h.5a.25.25,0,0,1,.25.25v.75a1,1,0,0,0,2,0v-.953a.249.249,0,0,1,.176-.239,3.965,3.965,0,0,0,1.633-6.63.251.251,0,0,1,0-.356,3.965,3.965,0,0,0-1.633-6.63A.25.25,0,0,1,21,4.974V4.021a1,1,0,0,0-2,0v.75a.25.25,0,0,1-.25.25h-.5a.25.25,0,0,1-.25-.25v-.75a1,1,0,0,0-2,0v.75a.25.25,0,0,1-.25.25H15a1,1,0,0,0-1,1Zm2-10.75a.25.25,0,0,1,.25-.25H20a2,2,0,0,1,0,4H16.25a.25.25,0,0,1-.25-.25Zm4,9.75H16.25a.25.25,0,0,1-.25-.25v-3.5a.25.25,0,0,1,.25-.25H20a2,2,0,0,1,0,4Z"/></svg>