<svg xmlns="http://www.w3.org/2000/svg" viewBox="0 0 24 24"><title>crypto-currency-bitcoin-exchange-1</title><path d="M6.5,16.642a1,1,0,0,0-1.006.133l-.726.569a.251.251,0,0,1-.359-.054A9.255,9.255,0,0,1,13.956,2.958,1.25,1.25,0,0,0,14.479.513,11.749,11.749,0,0,0,2.457,18.851a.249.249,0,0,1-.048.342l-.024.019a1,1,0,0,0,.357,1.753l3.471.929a1,1,0,0,0,1.253-1.072l-.359-3.365A1,1,0,0,0,6.5,16.642Z"/><path d="M21.651,5.308a.25.25,0,0,1,.038-.329l.437-.392a1,1,0,0,0-.475-1.726l-3.919-.77a1,1,0,0,0-1.156,1.252l.962,3.427a1,1,0,0,0,.684.689.985.985,0,0,0,.279.04,1,1,0,0,0,.668-.256l.262-.235a.25.25,0,0,1,.378.053,9.248,9.248,0,0,1-9.782,13.977,1.25,1.25,0,0,0-.533,2.443A11.745,11.745,0,0,0,21.651,5.308Z"/><path d="M8.751,16.888A1.25,1.25,0,0,0,10,18.138h.333a.25.25,0,0,1,.25.25V18.5a1.25,1.25,0,0,0,2.5,0v-.124a.249.249,0,0,1,.233-.249,3.7,3.7,0,0,0,3.434-3.683,3.65,3.65,0,0,0-.814-2.288.25.25,0,0,1,0-.312,3.65,3.65,0,0,0,.814-2.288,3.7,3.7,0,0,0-3.434-3.683.25.25,0,0,1-.233-.249V5.5a1.25,1.25,0,1,0-2.5,0V5.61a.25.25,0,0,1-.25.25H10a1.25,1.25,0,0,0-1.25,1.25Zm5.5-7.333a1.2,1.2,0,0,1-1.194,1.194H11.5a.25.25,0,0,1-.25-.25V8.61a.25.25,0,0,1,.25-.25h1.556A1.2,1.2,0,0,1,14.251,9.555Zm-1.194,6.083H11.5a.25.25,0,0,1-.25-.25V13.5a.25.25,0,0,1,.25-.25h1.556a1.195,1.195,0,0,1,0,2.389Z"/></svg>