<svg xmlns="http://www.w3.org/2000/svg" viewBox="0 0 24 24"><title>crypto-currency-bitcoin-monitor-shield</title><path d="M13,7.706H10.75v1.5H13a.75.75,0,1,0,0-1.5Z"/><path d="M10.75,4.706v1.5H13a.75.75,0,0,0,0-1.5Z"/><path d="M10.69,14.261a3.638,3.638,0,0,0,1.288.346,3.664,3.664,0,0,0,1.289-.346c3.081-1.174,5.233-3.972,5.233-6.8v-5a1.545,1.545,0,0,0-.928-1.416A16.419,16.419,0,0,0,11.978,0a16.018,16.018,0,0,0-5.55,1.04A1.545,1.545,0,0,0,5.5,2.456v5A7.715,7.715,0,0,0,10.69,14.261ZM9.25,3.956a.75.75,0,0,1,.75-.75h1a.25.25,0,0,0,.25-.25v-.5a.75.75,0,1,1,1.5,0v.5a.25.25,0,0,0,.25.25,2.24,2.24,0,0,1,1.665,3.75A2.24,2.24,0,0,1,13,10.706a.25.25,0,0,0-.25.25v.5a.75.75,0,0,1-1.5,0v-.5a.25.25,0,0,0-.25-.25H10a.75.75,0,0,1-.75-.75Z"/><path d="M22,3H21a1,1,0,0,0,0,2h.5a.5.5,0,0,1,.5.5v12a.5.5,0,0,1-.5.5H2.5a.5.5,0,0,1-.5-.5V5.5A.5.5,0,0,1,2.5,5H3A1,1,0,0,0,3,3H2A2,2,0,0,0,0,5V18a2,2,0,0,0,2,2h8.75a.25.25,0,0,1,.25.25v1.5a.25.25,0,0,1-.25.25H8a1,1,0,0,0,0,2h8a1,1,0,0,0,0-2H13.25a.25.25,0,0,1-.25-.25v-1.5a.25.25,0,0,1,.25-.25H22a2,2,0,0,0,2-2V5A2,2,0,0,0,22,3Z"/></svg>