<svg xmlns="http://www.w3.org/2000/svg" viewBox="0 0 24 24"><title>crypto-currency-nxtcoin</title><path d="M14.5,9.75a.75.75,0,0,1,0-1.5h4.691a1.247,1.247,0,0,1,1.118.689l1.741,3.484A.5.5,0,0,0,23,12.211c0-.07,0-.14,0-.211A11,11,0,0,0,1.883,7.7a.5.5,0,0,0,.013.42l2.929,5.859a.5.5,0,0,0,.447.276H9.5a.75.75,0,0,1,0,1.5H4.809a1.247,1.247,0,0,1-1.118-.689L1.95,11.577A.5.5,0,0,0,1,11.789c0,.07,0,.141,0,.211a11,11,0,0,0,21.117,4.305.5.5,0,0,0-.013-.42l-2.929-5.859a.5.5,0,0,0-.447-.276Zm4,6h-5a.749.749,0,0,1-.671-.415l-2.654-5.309a.5.5,0,0,0-.447-.276H5.5a.75.75,0,0,1,0-1.5h4.691a1.247,1.247,0,0,1,1.118.689l2.517,5.035a.5.5,0,0,0,.447.276H18.5a.75.75,0,0,1,0,1.5Z"/></svg>