<svg xmlns="http://www.w3.org/2000/svg" viewBox="0 0 24 24"><title>crypto-currency-peercoin</title><path d="M10.5,6.75a.25.25,0,0,0-.25-.25h-.5a.25.25,0,0,0-.25.25v8.5a.25.25,0,0,0,.25.25h.5a.25.25,0,0,0,.25-.25V6.75Z"/><path d="M12,1A11,11,0,1,0,23,12,11,11,0,0,0,12,1Zm2.5,12.5H11.75a.25.25,0,0,0-.25.25v1.5a.25.25,0,0,0,.25.25h.75a.5.5,0,0,1,0,1h-.75a.25.25,0,0,0-.25.25V19a.5.5,0,0,1-1,0V16.75a.25.25,0,0,0-.25-.25h-.5a.25.25,0,0,0-.25.25V19a.5.5,0,0,1-1,0V16.75a.25.25,0,0,0-.25-.25H7.5a.5.5,0,0,1,0-1h.75a.25.25,0,0,0,.25-.25V6.5a1,1,0,0,1,1-1h5a4,4,0,0,1,0,8Z"/><path d="M14.5,6.5H11.75a.25.25,0,0,0-.25.25v5.5a.25.25,0,0,0,.25.25H14.5a3,3,0,0,0,0-6Zm-.745,4.649A1.83,1.83,0,0,1,13,9.666V7.761a.25.25,0,0,1,.273-.249,3,3,0,0,1,2.554,1.98A1.414,1.414,0,0,1,13.755,11.149Z"/></svg>