<svg xmlns="http://www.w3.org/2000/svg" viewBox="0 0 24 24"><title>crypto-currency-bitcoin-dollar-exchange</title><path d="M21.6,16.605a.5.5,0,0,0-.707,0L18.9,18.613a.5.5,0,0,0,.354.853h0l.56,0a.252.252,0,0,1,.209.111.248.248,0,0,1,.022.236,4.04,4.04,0,0,1-3.785,2.165,1,1,0,0,0,0,2h0c2.97-.01,5.433-1.882,5.9-4.317a.25.25,0,0,1,.245-.2l.844,0A.5.5,0,0,0,23.6,18.6Z"/><path d="M1.905,7.358a.5.5,0,0,0,.353.146.493.493,0,0,0,.354-.148l1.994-2A.5.5,0,0,0,4.252,4.5h0l-.56,0a.25.25,0,0,1-.209-.112.246.246,0,0,1-.022-.235A4.04,4.04,0,0,1,7.244,1.988a1,1,0,0,0,0-2h0c-2.97.01-5.432,1.88-5.9,4.317a.249.249,0,0,1-.244.2l-.845,0A.5.5,0,0,0-.1,5.365Z"/><path d="M10,14.988a.752.752,0,0,0-.75-.75h-2.5a.25.25,0,0,0-.25.25v1a.25.25,0,0,0,.25.25h2.5A.752.752,0,0,0,10,14.988Z"/><path d="M9.248,17.238h-2.5a.25.25,0,0,0-.25.25v1a.25.25,0,0,0,.25.25h2.5a.75.75,0,0,0,0-1.5Z"/><path d="M8.045,9.012a7.5,7.5,0,1,0,7.5,7.5A7.508,7.508,0,0,0,8.045,9.012ZM6,20.993v-.5a.25.25,0,0,0-.25-.25.75.75,0,0,1-.75-.75v-6a.75.75,0,0,1,.75-.75.25.25,0,0,0,.25-.25v-.5a.75.75,0,0,1,1.5,0v.5a.25.25,0,0,0,.25.25h.5a.25.25,0,0,0,.25-.25v-.5a.75.75,0,0,1,1.5,0v.719a.251.251,0,0,0,.15.229,2.244,2.244,0,0,1,1.35,2.052,2.219,2.219,0,0,1-.46,1.349.251.251,0,0,0,0,.3,2.219,2.219,0,0,1,.46,1.348,2.244,2.244,0,0,1-1.35,2.052.251.251,0,0,0-.15.229v.719a.75.75,0,0,1-1.5,0v-.5a.25.25,0,0,0-.25-.25h-.5a.25.25,0,0,0-.25.25v.5a.75.75,0,0,1-1.5,0Z"/><path d="M18.748,10.993a5.5,5.5,0,1,0-5.5-5.5A5.507,5.507,0,0,0,18.748,10.993ZM20,2.243a.75.75,0,0,1,0,1.5H18.3a.368.368,0,0,0-.137.71l1.719.688a1.863,1.863,0,0,1-.2,3.531.25.25,0,0,0-.184.241v.122a.75.75,0,0,1-1.5,0V8.993a.25.25,0,0,0-.25-.25H17.5a.75.75,0,0,1,0-1.5h1.694a.368.368,0,0,0,.137-.71L17.61,5.846a1.865,1.865,0,0,1,.2-3.532A.249.249,0,0,0,18,2.073V1.951a.75.75,0,0,1,1.5,0v.042a.25.25,0,0,0,.25.25Z"/></svg>