<svg id="Bold" xmlns="http://www.w3.org/2000/svg" viewBox="0 0 24 24"><title>cupcake</title><path d="M8.446,18.517a.249.249,0,0,0-.227-.008,5.263,5.263,0,0,1-2.229.5,5.7,5.7,0,0,1-.944-.078.247.247,0,0,0-.228.079.253.253,0,0,0-.054.236l1.048,3.667A1.506,1.506,0,0,0,7.254,24h1.38a.5.5,0,0,0,.5-.558l-.557-4.736A.246.246,0,0,0,8.446,18.517Z"/><path d="M13.572,18.789a5.224,5.224,0,0,1-3.124.006.25.25,0,0,0-.323.268l.529,4.5a.5.5,0,0,0,.5.442h1.718a.5.5,0,0,0,.5-.442l.529-4.5a.25.25,0,0,0-.323-.268Z"/><path d="M18.974,18.926a5.614,5.614,0,0,1-.964.082,5.257,5.257,0,0,1-2.211-.49.249.249,0,0,0-.227.008.253.253,0,0,0-.127.189l-.556,4.727a.5.5,0,0,0,.5.558h1.379a1.507,1.507,0,0,0,1.443-1.088l1.049-3.671a.251.251,0,0,0-.283-.315Z"/><path d="M16.905,8.478c-.142-.057-.285-.111-.427-.163a.5.5,0,0,0-.6.216,4.5,4.5,0,0,1-7.755,0,.5.5,0,0,0-.6-.216c-.142.052-.285.106-.427.163C4.44,9.6,2.49,11.594,2.49,14a3.341,3.341,0,0,0,3.5,3.5,3.747,3.747,0,0,0,2.822-1.275.25.25,0,0,1,.376,0,3.695,3.695,0,0,0,5.624,0A.25.25,0,0,1,15,16.148a.246.246,0,0,1,.188.085,3.746,3.746,0,0,0,2.822,1.275,3.341,3.341,0,0,0,3.5-3.5C21.51,11.594,19.56,9.6,16.905,8.478Z"/><path d="M12,9.25a3,3,0,0,0,1.039-5.814.3.3,0,0,1-.181-.373A2.253,2.253,0,0,1,15,1.5.75.75,0,0,0,15,0a3.755,3.755,0,0,0-3.683,3.046.5.5,0,0,1-.324.378A3,3,0,0,0,12,9.25Z"/></svg>