<svg xmlns="http://www.w3.org/2000/svg" viewBox="0 0 24 24"><title>currency-yuan-increase</title><path d="M7.5,0a7,7,0,1,0,7,7A7.009,7.009,0,0,0,7.5,0ZM6.784,10.847V9.123a.25.25,0,0,0-.25-.25H5.9a.75.75,0,0,1,0-1.5h.634a.25.25,0,0,0,.25-.25V6.842a.25.25,0,0,0-.055-.157L4.771,4.236A.75.75,0,1,1,5.942,3.3l1.4,1.747a.249.249,0,0,0,.39,0L9.127,3.3h0a.751.751,0,0,1,1.172.938L8.339,6.685a.256.256,0,0,0-.055.157v.281a.25.25,0,0,0,.25.25h.634a.75.75,0,1,1,0,1.5H8.534a.25.25,0,0,0-.25.25v1.724a.75.75,0,0,1-1.5,0Z"/><path d="M23.5,11a.5.5,0,0,0-.5-.5H18a.5.5,0,0,0-.354.854l1.415,1.414a.251.251,0,0,1-.007.361l-4.583,4.225a.249.249,0,0,1-.325.012l-2.9-2.317a2.154,2.154,0,0,0-2.771.071l-.219.194-7.314,6.5a1.25,1.25,0,0,0,1.66,1.87l7.155-6.36a.251.251,0,0,1,.323-.009l2.9,2.324a2.164,2.164,0,0,0,2.805-.1h0l5.047-4.653a.251.251,0,0,1,.347.007l1.461,1.462A.5.5,0,0,0,23.5,16Z"/></svg>