<svg xmlns="http://www.w3.org/2000/svg" viewBox="0 0 24 24"><title>currency-euro-bubble</title><path d="M21.526,8.25a.249.249,0,0,1-.134-.324,4.079,4.079,0,0,0-5.3-5.3.249.249,0,0,1-.324-.134,4.1,4.1,0,0,0-7.53,0,.249.249,0,0,1-.324.134,4.079,4.079,0,0,0-5.3,5.3.25.25,0,0,1-.134.325,4.077,4.077,0,0,0,0,7.5.25.25,0,0,1,.134.325,4.079,4.079,0,0,0,5.3,5.3.249.249,0,0,1,.324.134,4.1,4.1,0,0,0,7.53,0,.249.249,0,0,1,.324-.134,4.079,4.079,0,0,0,5.3-5.3.25.25,0,0,1,.134-.325A4.078,4.078,0,0,0,21.526,8.25Zm-8,.756a1,1,0,1,1,0,2H9.812a.251.251,0,0,0-.249.225c-.022.226-.037.46-.037.714,0,.118.008.226.018.332a.249.249,0,0,0,.249.228h2.691a1,1,0,1,1,0,2H10.537a.25.25,0,0,0-.2.4c.819,1.066,2.307,1.535,4.68,1.535a1,1,0,1,1,0,2c-1.544,0-5.7-.015-7.051-3.769a.248.248,0,0,0-.235-.165H6.991a1,1,0,1,1,0-2h.3a.252.252,0,0,0,.249-.268c-.007-.094-.012-.19-.012-.292,0-.234.011-.455.028-.669a.248.248,0,0,0-.065-.189A.253.253,0,0,0,7.308,11H7.029a1,1,0,1,1,0-2H7.87a.249.249,0,0,0,.229-.15c1.477-3.4,5.426-3.406,6.92-3.406a1,1,0,1,1,0,2c-2.047,0-3.439.346-4.311,1.123a.25.25,0,0,0,.167.436Z"/></svg>