<svg xmlns="http://www.w3.org/2000/svg" viewBox="0 0 24 24"><title>currency-dollar-international</title><path d="M11.966,2.057a.247.247,0,0,1,.18-.078H12.5a1,1,0,0,0,0-2C.924-.021,0,10.527,0,12c0,1.448.909,12.021,12.5,12.021a1,1,0,0,0,0-2h-.354a.251.251,0,0,1-.183-.079,16.915,16.915,0,0,1-2.624-3.3.25.25,0,0,1,.217-.373H11.1a1,1,0,1,0,0-2H8.507a.248.248,0,0,1-.24-.182,13.9,13.9,0,0,1-.474-2.821A.25.25,0,0,1,8.042,13H10.1a1,1,0,1,0,0-2H8.042a.248.248,0,0,1-.249-.267,13.9,13.9,0,0,1,.474-2.822.251.251,0,0,1,.24-.182H11.1a1,1,0,0,0,0-2H9.56a.25.25,0,0,1-.216-.375A17.686,17.686,0,0,1,11.966,2.057ZM8.392,20.836a.251.251,0,0,1-.3.376,10.07,10.07,0,0,1-3.519-2.524.25.25,0,0,1,.186-.417H6.772A.249.249,0,0,1,7,18.419,13.575,13.575,0,0,0,8.392,20.836ZM6.181,15.964a.251.251,0,0,1-.244.307H3.129a.25.25,0,0,1-.228-.147,9.927,9.927,0,0,1-.818-2.841A.251.251,0,0,1,2.331,13h3.21a.251.251,0,0,1,.25.235A16.418,16.418,0,0,0,6.181,15.964Zm-.39-5.2a.25.25,0,0,1-.25.234H2.331a.25.25,0,0,1-.188-.085.253.253,0,0,1-.06-.2A9.949,9.949,0,0,1,2.9,7.875a.251.251,0,0,1,.228-.146H5.937a.251.251,0,0,1,.244.307A16.43,16.43,0,0,0,5.791,10.766ZM4.758,5.729a.25.25,0,0,1-.186-.417A10.066,10.066,0,0,1,8.09,2.788a.25.25,0,0,1,.3.376A13.573,13.573,0,0,0,7,5.581a.25.25,0,0,1-.229.148Z"/><path d="M21.324,11.582,17.778,9.753a2,2,0,0,1-1.05-1.776A1.928,1.928,0,0,1,18.6,6h3.9a1.5,1.5,0,0,0,0-3h-.75a.249.249,0,0,1-.25-.25V1.773a1.5,1.5,0,0,0-3,0v1a.25.25,0,0,1-.232.249,5,5,0,0,0-1.865,9.4l3.546,1.829A2,2,0,0,1,21,16.024,1.928,1.928,0,0,1,19.129,18h-3.9a1.5,1.5,0,0,0,0,3H16.25a.25.25,0,0,1,.25.25v.977a1.5,1.5,0,1,0,3,0V21.188a.25.25,0,0,1,.219-.248,4.988,4.988,0,0,0,1.605-9.358Z"/></svg>