<svg xmlns="http://www.w3.org/2000/svg" viewBox="0 0 24 24"><title>currency-euro-dollar-exchange</title><path d="M21.4,16.526a.489.489,0,0,0-.692,0l-1.954,1.965a.49.49,0,0,0,.347.835h.551a.243.243,0,0,1,.205.109.246.246,0,0,1,.021.231,3.956,3.956,0,0,1-3.708,2.12.98.98,0,0,0,0,1.96h0a5.693,5.693,0,0,0,5.78-4.23.245.245,0,0,1,.24-.2l.827,0a.49.49,0,0,0,.344-.837Z"/><path d="M2.11,7.461a.489.489,0,0,0,.692,0L4.756,5.494a.489.489,0,0,0-.347-.835h0l-.549,0a.244.244,0,0,1-.226-.34A3.955,3.955,0,0,1,7.34,2.2a.98.98,0,0,0,0-1.959h0A5.7,5.7,0,0,0,1.555,4.47a.245.245,0,0,1-.24.2l-.827,0a.489.489,0,0,0-.343.837Z"/><path d="M8,9.267a.246.246,0,0,0-.243-.2,7.345,7.345,0,1,0,7.416,7.415.245.245,0,0,0-.2-.242A8.829,8.829,0,0,1,8,9.267Zm-.17,7.389a.735.735,0,0,1,0,1.47H6.04a.244.244,0,0,0-.228.333A1.908,1.908,0,0,0,7.834,19.6a.735.735,0,0,1,0,1.47,3.3,3.3,0,0,1-3.583-2.74.244.244,0,0,0-.241-.2H3.915a.735.735,0,0,1,0-1.47H4.01a.245.245,0,0,0,.241-.2,3.3,3.3,0,0,1,3.583-2.74.735.735,0,0,1,0,1.47,1.908,1.908,0,0,0-2.022,1.136.244.244,0,0,0,.228.333Z"/><path d="M24,7.594a7.348,7.348,0,1,0-7.348,7.348A7.357,7.357,0,0,0,24,7.594ZM17.387,3.185a.245.245,0,0,0,.245.245h.734a.735.735,0,1,1,0,1.469H16.042a.8.8,0,0,0-.3,1.541l2.357.943a2.262,2.262,0,0,1-.508,4.341.243.243,0,0,0-.208.242v.485a.735.735,0,0,1-1.47,0V12a.245.245,0,0,0-.245-.245h-.735a.735.735,0,0,1,0-1.469h2.324a.8.8,0,0,0,.3-1.541L15.2,7.8a2.262,2.262,0,0,1,.508-4.34.245.245,0,0,0,.209-.243V2.736a.735.735,0,1,1,1.47,0Z"/></svg>