<svg xmlns="http://www.w3.org/2000/svg" viewBox="0 0 24 24"><title>currency-yuan-bill</title><path d="M21.143,7.488A.251.251,0,0,1,21,7.262V6a1,1,0,0,0-1-1H4A1,1,0,0,0,3,6V7.262a.25.25,0,0,1-.143.226,4.993,4.993,0,0,0,0,9.026A.25.25,0,0,1,3,16.74V18a1,1,0,0,0,1,1H20a1,1,0,0,0,1-1V16.74a.25.25,0,0,1,.143-.226,4.993,4.993,0,0,0,0-9.026Zm-7.429,4.655a1,1,0,0,1,0,2H13.25a.25.25,0,0,0-.25.25V16a1,1,0,0,1-2,0V14.393a.25.25,0,0,0-.25-.25h-.464a1,1,0,0,1,0-2h.464a.25.25,0,0,0,.25-.25v-.086a.257.257,0,0,0-.042-.139L8.882,8.555a1,1,0,0,1,1.664-1.11l1.246,1.869a.25.25,0,0,0,.416,0l1.246-1.869a1,1,0,0,1,1.664,1.11l-2.076,3.113a.257.257,0,0,0-.042.139v.086a.25.25,0,0,0,.25.25Z"/></svg>