<svg xmlns="http://www.w3.org/2000/svg" viewBox="0 0 24 24"><title>currency-euro-bill</title><path d="M21.143,7.487A.25.25,0,0,1,21,7.261V5.5a1,1,0,0,0-1-1H4a1,1,0,0,0-1,1V7.261a.25.25,0,0,1-.143.226,4.994,4.994,0,0,0,0,9.027A.25.25,0,0,1,3,16.74V18.5a1,1,0,0,0,1,1H20a1,1,0,0,0,1-1V16.74a.25.25,0,0,1,.143-.226,4.994,4.994,0,0,0,0-9.027ZM13.214,11a1,1,0,0,1,0,2h-1.8a.25.25,0,0,0-.212.382A3.682,3.682,0,0,0,14.357,15a1,1,0,0,1,0,2,5.5,5.5,0,0,1-5.413-3.815A.249.249,0,0,0,8.7,13h-.06a1,1,0,0,1,0-2H8.7a.249.249,0,0,0,.241-.185A5.5,5.5,0,0,1,14.357,7a1,1,0,0,1,0,2A3.682,3.682,0,0,0,11.2,10.618a.25.25,0,0,0,.212.382Z"/></svg>