<svg xmlns="http://www.w3.org/2000/svg" viewBox="0 0 24 24"><title>data-file-bars-refresh</title><rect x="14.5" y="5.5" width="2" height="8" rx="0.5" ry="0.5"/><rect x="18" y="7.5" width="2" height="6" rx="0.5" ry="0.5"/><path d="M21,.586A2,2,0,0,0,19.585,0H8A2,2,0,0,0,6,2V9.8a.246.246,0,0,0,.23.25c.35.019,1.016.068,1.487.14A.248.248,0,0,0,8,9.939V2.5A.5.5,0,0,1,8.5,2H19.379a.5.5,0,0,1,.353.146l2.122,2.122A.5.5,0,0,1,22,4.621V18a.5.5,0,0,1-.5.5H14.126a.243.243,0,0,0-.239.2,7.183,7.183,0,0,1-.408,1.454.244.244,0,0,0,.225.34H22a2,2,0,0,0,2-2V4.414A2,2,0,0,0,23.414,3Z"/><path d="M7.918,16.125a.5.5,0,0,0,.354.854h4.457a.5.5,0,0,0,.5-.5V12.021a.5.5,0,0,0-.854-.353l-1.3,1.3a.247.247,0,0,1-.343,0,6.312,6.312,0,0,0-4.078-1.716A6.465,6.465,0,0,0,0,17.546,6.375,6.375,0,0,0,11.357,21.6,1,1,0,1,0,9.8,20.354a4.376,4.376,0,1,1-3.42-7.1A4.336,4.336,0,0,1,9.3,14.372a.256.256,0,0,1,.005.367Z"/></svg>