<svg xmlns="http://www.w3.org/2000/svg" viewBox="0 0 24 24"><title>data-file-bars-heart</title><rect x="14.501" y="5.5" width="2" height="8" rx="0.5" ry="0.5"/><rect x="18.001" y="7.5" width="2" height="6" rx="0.5" ry="0.5"/><path d="M21,.586A2,2,0,0,0,19.586,0H8A2,2,0,0,0,6,2v9.518a.246.246,0,0,0,.119.228c.087.048.175.1.26.149a.411.411,0,0,0,.258-.016,5,5,0,0,1,1.2-.579A.242.242,0,0,0,8,11.07V2.5A.5.5,0,0,1,8.5,2H19.379a.5.5,0,0,1,.354.146l2.121,2.122A.5.5,0,0,1,22,4.621V18a.5.5,0,0,1-.5.5H13.97a.253.253,0,0,0-.207.111c-.238.334-.845,1.028-1.244,1.474a.249.249,0,0,0,.189.414H22a2,2,0,0,0,2-2V4.414A2,2,0,0,0,23.415,3Z"/><path d="M12.587,12.09A.25.25,0,0,0,13,11.9V10.5a.5.5,0,0,0-.5-.5h-1a.5.5,0,0,0-.5.5v.523a.309.309,0,0,0,.221.3A5.071,5.071,0,0,1,12.587,12.09Z"/><path d="M6.139,23.846a.5.5,0,0,0,.723,0l5.106-5.326A3.528,3.528,0,0,0,9.584,12.5a3.665,3.665,0,0,0-2.695,1.126l-.212.212a.249.249,0,0,1-.353,0l-.212-.212A3.665,3.665,0,0,0,3.417,12.5a3.528,3.528,0,0,0-2.391,6.012Z"/></svg>