<svg xmlns="http://www.w3.org/2000/svg" viewBox="0 0 24 24"><title>data-file-edit</title><path d="M14.267,9.948l1.507.9A1,1,0,0,0,17,10.7a.9.9,0,0,0,.105-.123l2.688-3.734a1,1,0,1,0-1.624-1.168l-2.015,2.8a.252.252,0,0,1-.332.068L14.3,7.638a1,1,0,0,0-1.331.279L10.66,11.182a1,1,0,0,0,1.631,1.157l1.644-2.321A.249.249,0,0,1,14.267,9.948Z"/><path d="M14,20.557a.246.246,0,0,0,.244.193H22a2,2,0,0,0,2-2V4.664a2,2,0,0,0-.586-1.414L21,.836A2,2,0,0,0,19.584.25H8a2,2,0,0,0-2,2v8.568A.249.249,0,0,0,6.072,11l1.5,1.5A.25.25,0,0,0,8,12.318V2.75a.5.5,0,0,1,.5-.5H19.378a.5.5,0,0,1,.353.146l2.122,2.122A.5.5,0,0,1,22,4.871V18.25a.5.5,0,0,1-.5.5H13.9a.247.247,0,0,0-.244.3C13.758,19.473,13.92,20.208,14,20.557Z"/><path d="M7.8,21.9l3.354-3.353a.252.252,0,0,0,0-.354l-6.58-6.58a2.71,2.71,0,0,0-3.606-.273,2.622,2.622,0,0,0-.2,3.881L7.444,21.9A.25.25,0,0,0,7.8,21.9Z"/><path d="M9.258,23.111l3.143.629a.466.466,0,0,0,.1.01.5.5,0,0,0,.49-.6l-.628-3.142a.25.25,0,0,0-.422-.128L9.13,22.689A.25.25,0,0,0,9.258,23.111Z"/></svg>