<svg xmlns="http://www.w3.org/2000/svg" viewBox="0 0 24 24"><title>data-file-search</title><path d="M8.754,21.2l2.506,2.506a1,1,0,0,0,1.414-1.414l-2.506-2.506a.241.241,0,0,1-.03-.3A5.515,5.515,0,1,0,8.45,21.171.241.241,0,0,1,8.754,21.2ZM5.5,20.033a3.5,3.5,0,1,1,3.5-3.5A3.5,3.5,0,0,1,5.5,20.033Z"/><path d="M24,18.5V4.414A2,2,0,0,0,23.414,3L21,.586A2,2,0,0,0,19.586,0H8A2,2,0,0,0,6,2V9.3a.242.242,0,0,0,.222.241,6.927,6.927,0,0,1,1.453.309A.243.243,0,0,0,8,9.624V2.5A.5.5,0,0,1,8.5,2H19.379a.5.5,0,0,1,.353.146l2.122,2.122A.5.5,0,0,1,22,4.621V18a.5.5,0,0,1-.5.5H12.382a.241.241,0,0,0-.23.169,6.889,6.889,0,0,1-.42,1.014.261.261,0,0,0,.012.232l.459.458a.472.472,0,0,0,.285.126H22A2,2,0,0,0,24,18.5Z"/><path d="M11.274,12.479a.981.981,0,0,0,1.018-.391l1.644-2.32a.25.25,0,0,1,.332-.071l1.507.905A1,1,0,0,0,17,10.451a.9.9,0,0,0,.105-.123l2.688-3.734a1,1,0,1,0-1.624-1.168l-2.015,2.8a.252.252,0,0,1-.332.068L14.3,7.387a1,1,0,0,0-1.329.279l-2.312,3.266a.961.961,0,0,0-.173.584.365.365,0,0,0,.053.136,7.237,7.237,0,0,1,.634.764A.289.289,0,0,0,11.274,12.479Z"/></svg>