<svg xmlns="http://www.w3.org/2000/svg" viewBox="0 0 24 24"><title>data-file-bars-disable</title><rect x="14.5" y="5.5" width="2" height="8" rx="0.5" ry="0.5"/><rect x="18" y="7.5" width="2" height="6" rx="0.5" ry="0.5"/><path d="M21,.586A2,2,0,0,0,19.585,0H8A2,2,0,0,0,6,2V9.275a.248.248,0,0,0,.242.25c.366.007,1.038.034,1.485.082A.245.245,0,0,0,8,9.359V2.5A.5.5,0,0,1,8.5,2H19.379a.5.5,0,0,1,.353.146l2.122,2.122A.5.5,0,0,1,22,4.621V18a.5.5,0,0,1-.5.5H14.642a.245.245,0,0,0-.241.21,7.956,7.956,0,0,1-.364,1.458.244.244,0,0,0,.228.331H22a2,2,0,0,0,2-2V4.414A2,2,0,0,0,23.414,3Z"/><path d="M12.566,12.3A.25.25,0,0,0,13,12.128V10.5a.5.5,0,0,0-.5-.5h-1a.5.5,0,0,0-.5.5v.229a.325.325,0,0,0,.156.271A8.012,8.012,0,0,1,12.566,12.3Z"/><path d="M6.5,24A6.5,6.5,0,1,0,0,17.5,6.5,6.5,0,0,0,6.5,24Zm3.967-8.6A4.484,4.484,0,0,1,4.4,21.466a.252.252,0,0,1-.052-.4l5.724-5.722A.252.252,0,0,1,10.467,15.4Zm-8.3.886a4.492,4.492,0,0,1,3.112-3.115,4.439,4.439,0,0,1,3.325.366.252.252,0,0,1,.052.4L2.931,19.654a.252.252,0,0,1-.4-.051A4.45,4.45,0,0,1,2.166,16.283Z"/></svg>