<svg xmlns="http://www.w3.org/2000/svg" viewBox="0 0 24 24"><title>data-file-bars-home</title><rect x="14.5" y="5.5" width="2" height="8" rx="0.5" ry="0.5"/><rect x="18" y="7.5" width="2" height="6" rx="0.5" ry="0.5"/><path d="M21,.586A2,2,0,0,0,19.585,0H8A2,2,0,0,0,6,2V9.868a.251.251,0,0,0,.33.233,2.489,2.489,0,0,1,1.34,0A.25.25,0,0,0,8,9.868V2.5A.5.5,0,0,1,8.5,2H19.379a.5.5,0,0,1,.353.146l2.122,2.122A.5.5,0,0,1,22,4.621V18a.5.5,0,0,1-.5.5H16.1a.237.237,0,0,0-.21.117,12.43,12.43,0,0,1-1.415,1.449.25.25,0,0,0,.171.433H22a2,2,0,0,0,2-2V4.415A2,2,0,0,0,23.414,3Z"/><path d="M12.161,13.5H12.5A.5.5,0,0,0,13,13V10.5a.5.5,0,0,0-.5-.5h-1a.5.5,0,0,0-.5.5V12.5a.25.25,0,0,0,.089.191l.84.711C11.88,13.355,12.051,13.5,12.161,13.5Z"/><path d="M7.324,12.119a.5.5,0,0,0-.647,0l-6.5,5.5A.5.5,0,0,0,.5,18.5H1.75a.249.249,0,0,1,.25.25V23.5a.5.5,0,0,0,.5.5h9a.5.5,0,0,0,.5-.5v-4.75a.249.249,0,0,1,.25-.25H13.5a.5.5,0,0,0,.324-.882Z"/></svg>