<svg xmlns="http://www.w3.org/2000/svg" viewBox="0 0 24 24"><title>data-file-settings</title><path d="M21,.617A2,2,0,0,0,19.586.031H8a2,2,0,0,0-2,2v6c0,.344.082.5.25.5a3.229,3.229,0,0,1,1.382.312A.251.251,0,0,0,8,8.625V2.531a.5.5,0,0,1,.5-.5H19.38a.5.5,0,0,1,.353.147L21.854,4.3A.5.5,0,0,1,22,4.652V18.031a.5.5,0,0,1-.5.5h-7.36a.25.25,0,0,0-.237.316,3.228,3.228,0,0,1,.022,1.377.249.249,0,0,0,.239.306H22a2,2,0,0,0,2-2V4.445a2,2,0,0,0-.586-1.414Z"/><path d="M12.4,11.6a.252.252,0,0,0,.319-.083L13.937,9.8a.249.249,0,0,1,.332-.07l1.507.9A1,1,0,0,0,17,10.482a.9.9,0,0,0,.105-.123L19.79,6.625a1,1,0,1,0-1.624-1.168l-2.015,2.8a.251.251,0,0,1-.332.068L14.3,7.418a1,1,0,0,0-1.33.28l-2.126,3a.248.248,0,0,0,.126.382A9.337,9.337,0,0,1,12.4,11.6Z"/><circle cx="6.251" cy="17" r="1.5"/><path d="M8.908,13a.449.449,0,0,1-.534-.31L7.95,11.293a1.775,1.775,0,0,0-3.4,0l-.424,1.393A.457.457,0,0,1,3.6,13L2.184,12.67a1.782,1.782,0,0,0-1.7,2.953l.988,1.065a.461.461,0,0,1,0,.624L.483,18.377a1.782,1.782,0,0,0,1.7,2.953L3.594,21a.452.452,0,0,1,.534.31l.424,1.393a1.775,1.775,0,0,0,3.4,0l.424-1.393A.45.45,0,0,1,8.907,21l1.411.326a1.782,1.782,0,0,0,1.7-2.953l-.988-1.065a.461.461,0,0,1,0-.624l.988-1.065a1.782,1.782,0,0,0-1.7-2.953ZM6.251,20a3,3,0,1,1,3-3A3,3,0,0,1,6.251,20Z"/></svg>