<svg xmlns="http://www.w3.org/2000/svg" viewBox="0 0 24 24"><title>data-file-bars-question</title><path d="M6.5,11A6.5,6.5,0,1,0,13,17.5,6.508,6.508,0,0,0,6.5,11Zm0,11.5a1,1,0,1,1,1-1A1,1,0,0,1,6.5,22.5Zm.933-4.171a.245.245,0,0,0-.183.215v.206a.75.75,0,0,1-1.5,0V18.2a1.256,1.256,0,0,1,.988-1.221,1.125,1.125,0,1,0-1.363-1.1.75.75,0,0,1-1.5,0,2.625,2.625,0,1,1,3.558,2.454Z"/><rect x="14.5" y="5.5" width="2" height="8" rx="0.5" ry="0.5"/><rect x="18" y="7.5" width="2" height="6" rx="0.5" ry="0.5"/><path d="M21,.586A2,2,0,0,0,19.585,0H8A2,2,0,0,0,6,2V9.275a.247.247,0,0,0,.242.25c.366.007,1.038.034,1.485.082A.245.245,0,0,0,8,9.359V2.5A.5.5,0,0,1,8.5,2H19.379a.5.5,0,0,1,.353.146l2.122,2.122A.5.5,0,0,1,22,4.621V18a.5.5,0,0,1-.5.5H14.642a.245.245,0,0,0-.241.21,7.966,7.966,0,0,1-.364,1.459.243.243,0,0,0,.228.33H22a2,2,0,0,0,2-2V4.415A2,2,0,0,0,23.414,3Z"/><path d="M12.5,10h-1a.5.5,0,0,0-.5.5v.229a.325.325,0,0,0,.156.271,8.012,8.012,0,0,1,1.41,1.3A.25.25,0,0,0,13,12.129V10.5A.5.5,0,0,0,12.5,10Z"/></svg>