<svg xmlns="http://www.w3.org/2000/svg" viewBox="0 0 24 24"><title>data-file-sync</title><path d="M21,.586A2,2,0,0,0,19.585,0H8A2,2,0,0,0,6,2V9.277a.247.247,0,0,0,.241.249c.365.009,1.037.041,1.485.093A.246.246,0,0,0,8,9.371V2.5A.5.5,0,0,1,8.5,2H19.379a.5.5,0,0,1,.353.146l2.122,2.122A.5.5,0,0,1,22,4.621V18a.5.5,0,0,1-.5.5H14.642a.245.245,0,0,0-.241.21,7.956,7.956,0,0,1-.364,1.458.244.244,0,0,0,.228.331H22a2,2,0,0,0,2-2V4.414A2,2,0,0,0,23.414,3Z"/><path d="M11.114,10.786a1.913,1.913,0,0,1,2.165-.372.223.223,0,0,0,.23-.045c.14-.2.418-.594.471-.664.071-.094.164-.082.272-.017l1.523.914A1,1,0,0,0,17,10.451a.9.9,0,0,0,.105-.123l2.688-3.734a1,1,0,1,0-1.624-1.168l-2.015,2.8a.252.252,0,0,1-.332.068L14.3,7.387a1,1,0,0,0-1.33.28L10.9,10.592C10.8,10.741,11.045,10.853,11.114,10.786Z"/><path d="M.309,23.142a.5.5,0,0,0,.545-.109l.974-.974a.244.244,0,0,1,.353.008,6.085,6.085,0,0,0,10.211-2.2,1,1,0,0,0-1.879-.687,4.022,4.022,0,0,1-1.277,1.929,4.163,4.163,0,0,1-5.656-.471.255.255,0,0,1,.014-.349L5.31,18.576a.5.5,0,0,0-.353-.853H.5a.5.5,0,0,0-.5.5V22.68A.5.5,0,0,0,.309,23.142Z"/><path d="M6.347,11a6.108,6.108,0,0,0-5.78,4.129,1,1,0,0,0,1.88.683A4.02,4.02,0,0,1,3.718,13.9a4.157,4.157,0,0,1,5.638.435.256.256,0,0,1-.012.351L7.69,16.338a.5.5,0,0,0,.353.853H12.5a.5.5,0,0,0,.5-.5V12.234a.5.5,0,0,0-.854-.353l-1.03,1.03a.243.243,0,0,1-.352-.008A6.126,6.126,0,0,0,6.347,11Z"/></svg>