<svg xmlns="http://www.w3.org/2000/svg" viewBox="0 0 24 24"><title>data-file-download</title><path d="M6.5,24A6.5,6.5,0,1,0,0,17.5,6.508,6.508,0,0,0,6.5,24ZM4.05,17.783A.5.5,0,0,1,4.5,17.5h.876a.125.125,0,0,0,.124-.121V14.5a1,1,0,0,1,2,0v2.875a.126.126,0,0,0,.124.125H8.5a.5.5,0,0,1,.391.812l-2,2.5a.517.517,0,0,1-.782,0l-2-2.5A.5.5,0,0,1,4.05,17.783Z"/><path d="M21,.586A2,2,0,0,0,19.586,0H8A2,2,0,0,0,6,2V9.275a.247.247,0,0,0,.242.25c.366.007,1.038.034,1.485.082A.245.245,0,0,0,8,9.359V2.5A.5.5,0,0,1,8.5,2H19.379a.5.5,0,0,1,.353.146l2.122,2.122A.5.5,0,0,1,22,4.621V18a.5.5,0,0,1-.5.5H14.641a.244.244,0,0,0-.24.21,7.956,7.956,0,0,1-.364,1.458.244.244,0,0,0,.228.331H22a2,2,0,0,0,2-2V4.414A2,2,0,0,0,23.414,3Z"/><path d="M12.5,11.8l1.438-2.03a.25.25,0,0,1,.332-.071l1.507.905A1,1,0,0,0,17,10.451a.9.9,0,0,0,.105-.123l2.688-3.734a1,1,0,1,0-1.624-1.168l-2.016,2.8a.25.25,0,0,1-.331.068L14.3,7.387a1,1,0,0,0-1.33.28l-2.042,2.884A.243.243,0,0,0,11,10.9a8.011,8.011,0,0,1,1.129.932A.243.243,0,0,0,12.5,11.8Z"/></svg>