<svg xmlns="http://www.w3.org/2000/svg" viewBox="0 0 24 24"><title>dating-rose-1</title><path d="M14.953,13.413a.251.251,0,0,0,.3.049,6.167,6.167,0,0,0,3.422-5.428V3.48C18.671,1.494,15.8,0,12,0S5.329,1.494,5.329,3.48V8.034A6.347,6.347,0,0,0,10.6,14.111a.5.5,0,0,1,.4.49V23a1,1,0,0,0,2,0V22a.5.5,0,0,1,.5-.5h1a4,4,0,0,0,4-4V16a.5.5,0,0,0-.5-.5H16.5a3.992,3.992,0,0,0-3.059,1.423A.25.25,0,0,1,13,16.761V13.575a.994.994,0,0,1,.219-.623A5.069,5.069,0,0,0,14.25,9.5a4.747,4.747,0,0,0-1.974-3.852.987.987,0,0,0-.562-.188c-2.992-.068-4.885-1.2-4.885-1.98C6.829,2.672,8.843,1.5,12,1.5c.747,0,1.527-.027,1.527.732a.73.73,0,0,1-.729.729H11.74a.8.8,0,0,1-.573-.237.75.75,0,0,0-1.06,1.062,2.3,2.3,0,0,0,1.633.675H12.8a2.234,2.234,0,0,0,2.23-2.2.25.25,0,0,1,.334-.232c1.152.413,1.809,1,1.809,1.456,0,.566-.988,1.312-2.663,1.708a.25.25,0,0,0-.138.4A6.215,6.215,0,0,1,15.75,9.5a6.6,6.6,0,0,1-.834,3.615A.249.249,0,0,0,14.953,13.413Z"/></svg>