<svg xmlns="http://www.w3.org/2000/svg" viewBox="0 0 24 24"><title>dating-flowers-vase</title><path d="M15.275,15.874a1,1,0,0,1-.536-1.288l.358-.9A.5.5,0,0,0,14.632,13H7.106a.5.5,0,0,0-.465.685l.358.9a1,1,0,0,1-.535,1.288A5.408,5.408,0,0,0,2.869,21a3.744,3.744,0,0,0,.607,2.09A2.005,2.005,0,0,0,5.153,24H16.585a2,2,0,0,0,1.677-.91A3.744,3.744,0,0,0,18.869,21,5.409,5.409,0,0,0,15.275,15.874Z"/><circle cx="6.401" cy="5.173" r="0.75"/><circle cx="17.662" cy="5.173" r="0.75"/><path d="M22.56,3.021h0a2.391,2.391,0,0,0-2.4-1.073.248.248,0,0,1-.272-.173,2.334,2.334,0,0,0-4.531,0,.25.25,0,0,1-.271.173A2.384,2.384,0,0,0,12.7,3.021,2.415,2.415,0,0,0,12.984,5.8a.5.5,0,0,1-.032.671,7.8,7.8,0,0,0-1.967,4.971.5.5,0,0,0,.5.554h1.011a.5.5,0,0,0,.5-.442,8.779,8.779,0,0,1,.555-2.431.25.25,0,0,1,.426-.056,2.231,2.231,0,0,0,.172.194,2.274,2.274,0,0,0,1.625.655A2.709,2.709,0,0,0,17.473,9.3a.249.249,0,0,1,.316,0,2.487,2.487,0,0,0,3.332-.033A2.4,2.4,0,0,0,21.58,6.65a.249.249,0,0,1,.092-.3A2.5,2.5,0,0,0,22.56,3.021ZM20.787,5.137a1.261,1.261,0,0,1-.608.185.748.748,0,0,0-.677.529.757.757,0,0,0,.265.823,1.188,1.188,0,0,1,.136.112A1.024,1.024,0,0,1,20.06,8.2a1.025,1.025,0,0,1-1.417-.155,1.308,1.308,0,0,1-.3-.492.75.75,0,0,0-1.415,0,1.315,1.315,0,0,1-.3.491,1.026,1.026,0,0,1-1.418.157,1.025,1.025,0,0,1,.155-1.419A1.306,1.306,0,0,1,15.5,6.67a.751.751,0,0,0-.419-1.348,1.279,1.279,0,0,1-.608-.185,1.021,1.021,0,0,1-.49-1.338.845.845,0,0,1,.748-.379,1.29,1.29,0,0,1,.669.194,1.2,1.2,0,0,1,.171.127.751.751,0,0,0,1.209-.771,1.342,1.342,0,0,1-.057-.359A1.034,1.034,0,0,1,17.617,1.5a1.021,1.021,0,0,1,.892,1.111,1.324,1.324,0,0,1-.06.376.75.75,0,0,0,1.22.768,1.288,1.288,0,0,1,.2-.143,1.018,1.018,0,0,1,1.413.187A1.022,1.022,0,0,1,20.787,5.137Z"/><path d="M2.88,9.265A2.486,2.486,0,0,0,6.211,9.3a.25.25,0,0,1,.316,0,1.311,1.311,0,0,1,.431.647c.169.566.318,1.129.445,1.67A.5.5,0,0,0,7.889,12H8.914a.5.5,0,0,0,.489-.609c-.086-.385-.184-.781-.292-1.182a.5.5,0,0,1,.244-.568,2.2,2.2,0,0,0,.5-.377,2.4,2.4,0,0,0,.46-2.613.249.249,0,0,1,.091-.3A2.493,2.493,0,0,0,11.3,3.02,2.392,2.392,0,0,0,8.918,1.944a.25.25,0,0,1-.27-.173A2.423,2.423,0,0,0,6.383,0,2.422,2.422,0,0,0,4.118,1.774a.25.25,0,0,1-.273.173,2.39,2.39,0,0,0-2.4,1.073h0A2.5,2.5,0,0,0,2.328,6.35a.249.249,0,0,1,.092.3A2.4,2.4,0,0,0,2.88,9.265ZM2.723,3.8a1.022,1.022,0,0,1,1.414-.187,1.279,1.279,0,0,1,.194.143.75.75,0,0,0,1.22-.768,1.324,1.324,0,0,1-.06-.376A1.021,1.021,0,0,1,6.383,1.5a1.034,1.034,0,0,1,.892,1.111,1.342,1.342,0,0,1-.057.359.751.751,0,0,0,1.209.771A1.227,1.227,0,0,1,8.6,3.612a1.021,1.021,0,0,1,1.414.186,1.023,1.023,0,0,1-.491,1.34,1.282,1.282,0,0,1-.607.184A.75.75,0,0,0,8.5,6.67a1.4,1.4,0,0,1,.143.116A1.024,1.024,0,0,1,8.8,8.2a1.025,1.025,0,0,1-1.417-.155,1.306,1.306,0,0,1-.3-.492.75.75,0,0,0-1.415,0,1.317,1.317,0,0,1-.3.491,1.026,1.026,0,0,1-1.418.157A1.024,1.024,0,0,1,4.1,6.786a1.315,1.315,0,0,1,.146-.119.751.751,0,0,0-.422-1.345,1.261,1.261,0,0,1-.608-.185A1.022,1.022,0,0,1,2.723,3.8Z"/></svg>