<svg xmlns="http://www.w3.org/2000/svg" viewBox="0 0 24 24"><title>dating-smartphone-chat</title><path d="M22,0H10A2,2,0,0,0,8,2V9a2,2,0,0,0,2,2h2.5a.5.5,0,0,1,.5.5v2a.5.5,0,0,0,.854.354l2.56-2.561A1,1,0,0,1,17.121,11H22a2,2,0,0,0,2-2V2A2,2,0,0,0,22,0ZM16.449,8.818a.711.711,0,0,1-.9,0C14.505,7.984,12,5.807,12,4.1c0-2.151,2.448-3.029,3.58-1.272a.5.5,0,0,0,.84,0C17.553,1.073,20,1.951,20,4.1,20,5.807,17.5,7.984,16.449,8.818Z"/><path d="M13,15.5H12a.5.5,0,0,0-.5.5v4a.5.5,0,0,1-.5.5H2.5A.5.5,0,0,1,2,20V6.5A.5.5,0,0,1,2.5,6H6a.5.5,0,0,0,.5-.5v-2A.5.5,0,0,0,6,3H3A3,3,0,0,0,0,6V21a3,3,0,0,0,3,3h7.5a3,3,0,0,0,3-3V16A.5.5,0,0,0,13,15.5Z"/></svg>