<svg xmlns="http://www.w3.org/2000/svg" viewBox="0 0 24 24"><title>death-noose</title><path d="M9.016,6.387a1,1,0,0,0,1.161.807l3.937-.71a1,1,0,1,0-.355-1.968l-.465.084A.25.25,0,0,1,13,4.354V1a1,1,0,0,0-2,0V4.8a.25.25,0,0,1-.206.246l-.971.176A1,1,0,0,0,9.016,6.387Z"/><path d="M12.972,10.405a.125.125,0,0,1,.054-.223l1.088-.2a1,1,0,1,0-.355-1.968l-3.936.71a1,1,0,0,0,.354,1.968l.136-.025a.125.125,0,0,1,.1.22C8.7,12.3,5.5,15.33,5.5,18.43a5.144,5.144,0,0,0,2.116,4.234A7.356,7.356,0,0,0,11.979,24c3.241,0,6.521-1.913,6.521-5.57C18.5,14.908,14.36,11.462,12.972,10.405ZM11.979,22C9.822,22,7.5,20.883,7.5,18.43c0-2.15,2.682-4.776,4.343-6.121a.25.25,0,0,1,.314,0C13.818,13.654,16.5,16.28,16.5,18.43,16.5,20.883,14.156,22,11.979,22Z"/></svg>