<svg id="Bold" xmlns="http://www.w3.org/2000/svg" viewBox="0 0 24 24"><title>decoration-bottle-1</title><path d="M16.65,15.176c-.656-.751-1.275-1.46-1.275-2.026a2.244,2.244,0,0,1,.421-1.108A4.331,4.331,0,0,0,16.525,9.7a4.288,4.288,0,0,0-1.26-2.612A3.549,3.549,0,0,1,14.225,5.1,1.8,1.8,0,0,1,15.79,3.4,1.725,1.725,0,0,0,15.371,0H8.629A1.725,1.725,0,0,0,8.21,3.4,1.8,1.8,0,0,1,9.775,5.1a3.549,3.549,0,0,1-1.04,1.988A4.288,4.288,0,0,0,7.475,9.7,4.331,4.331,0,0,0,8.2,12.042a2.235,2.235,0,0,1,.421,1.108c0,.566-.619,1.275-1.275,2.026-.969,1.11-2.175,2.491-2.175,4.3A4.4,4.4,0,0,0,9.7,24h4.6a4.4,4.4,0,0,0,4.525-4.525C18.825,17.667,17.619,16.286,16.65,15.176Z"/></svg>