<svg id="Bold" xmlns="http://www.w3.org/2000/svg" viewBox="0 0 24 24"><title>decoration-flowers</title><path d="M14.809,14.662A1,1,0,0,0,14,14.25H10a1,1,0,0,0-.809.412L5.635,18.377a3.322,3.322,0,0,0-.162,3.662A3.525,3.525,0,0,0,8.5,23.75H15.5a3.525,3.525,0,0,0,3.023-1.711,3.322,3.322,0,0,0-.162-3.662Z"/><path d="M18.128,3.826C12.564,6.051,12.5,12,12.5,12.254a1,1,0,0,0,1,1h0a1,1,0,0,0,1-1c0-.2.081-4.859,4.372-6.574a1,1,0,1,0-.744-1.857Z"/><path d="M5.128,5.683C9.419,7.4,9.5,12.06,9.5,12.254a1,1,0,0,0,2,0c0-.252-.064-6.2-5.628-8.428a1,1,0,1,0-.744,1.857Z"/><path d="M16.228,3.231c.5.069,1.189-1.3,1.265-1.844a1,1,0,0,0-1.981-.274C15.436,1.66,15.733,3.163,16.228,3.231Z"/><path d="M18.707,8.292c-.531-.151-2.061-.065-2.2.416s1.12,1.357,1.652,1.508a1,1,0,0,0,.545-1.924Z"/><path d="M21.939,5.619c-.551-.043-2.033.344-2.071.843s1.366,1.108,1.916,1.151a1,1,0,1,0,.155-1.994Z"/><path d="M23.289,1.042A1.576,1.576,0,0,0,21.136.465C20.382.9,18.8,2.724,19.194,3.406s2.764.224,3.518-.211A1.576,1.576,0,0,0,23.289,1.042Z"/><path d="M7.771,3.231c.5-.068.793-1.571.717-2.118a1,1,0,0,0-1.981.274C6.583,1.934,7.276,3.3,7.771,3.231Z"/><path d="M12,5.757c.5,0,1-1.447,1-2a1,1,0,1,0-2,0C11,4.308,11.5,5.756,12,5.757Z"/><path d="M5.838,10.216c.532-.151,1.788-1.027,1.652-1.508s-1.666-.567-2.2-.416a1,1,0,1,0,.545,1.924Z"/><path d="M2.061,5.619a1,1,0,1,0,.155,1.994c.55-.043,1.955-.653,1.916-1.151S2.612,5.576,2.061,5.619Z"/><path d="M4.806,3.406C5.2,2.724,3.618.9,2.864.465A1.576,1.576,0,0,0,1.288,3.2C2.042,3.63,4.412,4.088,4.806,3.406Z"/></svg>