<svg id="Bold" xmlns="http://www.w3.org/2000/svg" viewBox="0 0 24 24"><title>decoration-bottle</title><path d="M15.192,5.941a1.319,1.319,0,0,1-.942-1.2V3.583a.161.161,0,0,1,.162-.162,1.711,1.711,0,0,0,0-3.421H9.588a1.711,1.711,0,0,0,0,3.421.161.161,0,0,1,.162.162V4.737a1.319,1.319,0,0,1-.942,1.2A10.8,10.8,0,0,0,3.4,22.711,3.23,3.23,0,0,0,5.971,24H18.03A3.225,3.225,0,0,0,20.6,22.712,10.8,10.8,0,0,0,15.192,5.941ZM13.809,21H10.191a3.625,3.625,0,0,1-3.618-3.632,5.427,5.427,0,1,1,10.854,0A3.625,3.625,0,0,1,13.809,21Z"/></svg>