<svg id="Bold" xmlns="http://www.w3.org/2000/svg" viewBox="0 0 24 24"><title>deer-footprint</title><path d="M16.709,13.093C16.558,13.2,13,15.779,13,19c0,3.317.976,5,2.9,5C18,24,18,20.813,18,18a21.066,21.066,0,0,0-.514-4.621A.5.5,0,0,0,16.709,13.093Z"/><path d="M20.291,13.093a.5.5,0,0,0-.776.286A20.959,20.959,0,0,0,19,18c0,2.813,0,6,2.1,6,1.925,0,2.9-1.683,2.9-5C24,15.779,20.443,13.2,20.291,13.093Z"/><path d="M14,10.43V9h1c1.809,0,2.861-3,2.975-3.342A.5.5,0,0,0,17.5,5h-2a3.108,3.108,0,0,0-2.576,1.146,5.128,5.128,0,0,0-1.174-.658V5.25c0-.436,0-.75,1.25-.75,2.066,0,3.25-1.367,3.25-3.75a.75.75,0,0,0-1.5,0c0,1.385-.451,1.932-1,2.136V1.75a.75.75,0,0,0-1.5,0v1.3a2.028,2.028,0,0,0-2,2.039A8.609,8.609,0,0,0,9,5a8.043,8.043,0,0,0-1.751.181,2.036,2.036,0,0,0-2-2.131V1.75a.75.75,0,0,0-1.5,0V2.886c-.548-.2-1-.751-1-2.136a.75.75,0,0,0-1.5,0C1.25,3.133,2.435,4.5,4.5,4.5c1.25,0,1.25.314,1.25.75v.469a4.9,4.9,0,0,0-.673.427A3.109,3.109,0,0,0,2.5,5H.5a.5.5,0,0,0-.474.658C.14,6,1.192,9,3,9H4v1.43a2.5,2.5,0,0,0,1.113,2.08l.476.316.956,2.552A2.512,2.512,0,0,0,8.886,17h.227a2.511,2.511,0,0,0,2.341-1.622l.957-2.552.476-.316A2.5,2.5,0,0,0,14,10.43Zm-3-.18a1,1,0,1,1,1-1A1,1,0,0,1,11,10.25Zm-5-1a1,1,0,1,1,1,1A1,1,0,0,1,6,9.25Zm2.5,4.5h1a.75.75,0,0,1,0,1.5h-1a.75.75,0,0,1,0-1.5Z"/></svg>