<svg id="Bold" xmlns="http://www.w3.org/2000/svg" viewBox="0 0 24 24"><title>deer-2</title><path d="M23,0a1,1,0,0,0-1,1H18.251a5.506,5.506,0,0,0-5.5,5.5V8a.5.5,0,0,0,.5.5h1a.5.5,0,0,0,.5-.5V8h2.5a3,3,0,0,0,3-3,1,1,0,0,0-2,0,1,1,0,0,1-1,1H14.787a3.5,3.5,0,0,1,3.464-3H22a2,2,0,0,0,2-2A1,1,0,0,0,23,0Z"/><path d="M15.5,10H12.371a.5.5,0,0,1-.474-.342c-.295-.887-1.255-3.218-3.3-3.6A.584.584,0,0,0,8.5,6.046a.5.5,0,0,0-.5.5A5.125,5.125,0,0,0,10,11s-4,6-7,6H.5a.5.5,0,0,0-.5.5v6a.5.5,0,0,0,.5.5l7.675,0a.5.5,0,0,0,.457-.3c.454-1.019,1.946-4.358,2.368-5.2.5-1,2-1.5,4-1.5h5c1.5,0,1.5-1,1.5-1s-2.393-3.241-3-4C17.8,11.128,17,10,15.5,10Zm-1,4a1,1,0,1,1,1-1A1,1,0,0,1,14.5,14Z"/></svg>