<svg id="Bold" xmlns="http://www.w3.org/2000/svg" viewBox="0 0 24 24"><title>deer-sleep</title><path d="M7.5,5.7a6.008,6.008,0,0,0,3,.8,5.977,5.977,0,0,0,5.97-5.4A1,1,0,1,0,14.48.9a3.981,3.981,0,0,1-1,2.273A3,3,0,0,0,10.5.5a1,1,0,0,0,0,2,1,1,0,0,1,0,2,4,4,0,0,1-2-.536A1,1,0,1,0,7.5,5.7Z"/><path d="M19.719,7.875A5.245,5.245,0,0,0,20.5,5a.5.5,0,0,0-.5-.5,4.122,4.122,0,0,0-3.337,1.735A6.276,6.276,0,0,0,15,6C12.35,6,9.308,8.508,9.18,8.616a.5.5,0,0,0-.154.542A2.714,2.714,0,0,0,11.5,11h2c1.208,0,2,.1,2,1.5a2.1,2.1,0,0,1-.588,1.591c-1.026,1-3.247.956-4.717.919C9.942,15,5.5,15,5.5,15a4.5,4.5,0,0,0,0,9h4C14.514,24,23,22.1,23,15A9.343,9.343,0,0,0,19.719,7.875ZM15,9.5a1,1,0,1,1,1-1A1,1,0,0,1,15,9.5Z"/></svg>