<svg id="Bold" xmlns="http://www.w3.org/2000/svg" viewBox="0 0 24 24"><title>deforestation-saw-forbidden</title><path d="M17.339,13.038c-.031-.031-.494-.415-1.261-1.046a.5.5,0,0,0-.671.033l-2.552,2.552a.5.5,0,0,0-.12.515,17.907,17.907,0,0,0,.689,1.916l1.258,1.7a1.707,1.707,0,0,0,2.6.216l1.767-1.767a1.709,1.709,0,0,0,0-2.416Zm.647,3.062-1.769,1.768a.229.229,0,0,1-.162.06.218.218,0,0,1-.159-.1l-1-1.348a.25.25,0,0,1,.025-.325l1.529-1.529a.25.25,0,0,1,.354,0l1.177,1.177a.2.2,0,0,1,.06.147A.205.205,0,0,1,17.986,16.1Z"/><path d="M12,0A12,12,0,1,0,24,12,12.013,12.013,0,0,0,12,0ZM4.27,18.068a.5.5,0,0,1-.366-.2A10,10,0,0,1,17.863,3.9a.5.5,0,0,1,.06.759L13.388,9.2a.5.5,0,0,1-.671.032c-1.432-1.176-3.074-2.524-4.742-3.9A1,1,0,0,0,6.81,5.259l-.829.517a.994.994,0,0,0-.471.849V8.5a1,1,0,0,0,1,1H7a.5.5,0,0,1,.5.5v1a1,1,0,0,0,1,1H9.586a.414.414,0,0,1,.293.707L4.663,17.923A.5.5,0,0,1,4.27,18.068ZM12,22a9.949,9.949,0,0,1-5.864-1.9.5.5,0,0,1-.059-.759l13.26-13.26a.5.5,0,0,1,.759.06A9.995,9.995,0,0,1,12,22Z"/></svg>