<svg xmlns="http://www.w3.org/2000/svg" viewBox="0 0 24 24"><title>delivery-truck-1</title><path d="M7.5,15H8.75A.25.25,0,0,0,9,14.75V5A1,1,0,0,0,8,4H5.671a1.992,1.992,0,0,0-1.85,1.24v0L.5,13.153a.25.25,0,0,0,.23.347H2.75a.75.75,0,0,1,0,1.5H.25a.25.25,0,0,0-.25.25v1A1.752,1.752,0,0,0,1.75,18H4.259a.251.251,0,0,0,.25-.231A3,3,0,0,1,7.5,15ZM5.607,6.155A.251.251,0,0,1,5.839,6H6.75A.25.25,0,0,1,7,6.25v3.5a.25.25,0,0,1-.25.25H4.4A.253.253,0,0,1,4.2,9.889a.25.25,0,0,1-.023-.234Z"/><path d="M22.65,15a.25.25,0,0,0,.247-.284L21.884,7.284A.25.25,0,0,1,22.131,7H23a1,1,0,0,0,0-2H21.662a.251.251,0,0,1-.221-.131A1.644,1.644,0,0,0,20,4H10.5a.5.5,0,0,0-.5.5V14.75a.25.25,0,0,0,.25.25ZM15,9.5a.5.5,0,0,1-.5.5H12a.5.5,0,0,1-.5-.5V6a.5.5,0,0,1,.5-.5h2.5A.5.5,0,0,1,15,6Z"/><path d="M20.391,17.206l.014.051a.948.948,0,0,0,.9.743H23a1,1,0,0,0,0-2H21.262A.926.926,0,0,0,20.391,17.206Z"/><path d="M13.738,16H11.262a.926.926,0,0,0-.871,1.206l.014.051a.948.948,0,0,0,.9.743h2.386a.948.948,0,0,0,.9-.743l.014-.051A.926.926,0,0,0,13.738,16Z"/><circle cx="7.5" cy="18" r="2"/><circle cx="17.5" cy="18" r="2"/></svg>