<svg xmlns="http://www.w3.org/2000/svg" viewBox="0 0 24 24"><title>delivery-parachute</title><path d="M12.028,23.573a.25.25,0,0,0,.177.427h3.8a1.5,1.5,0,0,0,1.5-1.5V18.7a.25.25,0,0,0-.426-.177Z"/><path d="M20.748,6.745a9.058,9.058,0,0,0-17.515,0c-.118.442.378,1.323.391,1.341l4.047,5.6a.249.249,0,0,1-.128.385A1.5,1.5,0,0,0,6.49,15.5v3.045a.25.25,0,0,0,.427.177l4.3-4.3A.25.25,0,0,0,11.035,14h-.566a.25.25,0,0,1-.2-.105c-.474-.663-3.079-4.286-3.951-5.5a.25.25,0,0,1,.2-.4H17.379a.25.25,0,0,1,.2.393c-.889,1.276-3.65,5.243-3.857,5.585a.233.233,0,0,1-.037.046L6.563,21.2a.251.251,0,0,0-.073.177V22.5A1.5,1.5,0,0,0,7.99,24H9.361a.249.249,0,0,0,.177-.073l7.879-7.879a.251.251,0,0,0,.073-.177V15.5a1.5,1.5,0,0,0-1.068-1.431.249.249,0,0,1-.164-.158.253.253,0,0,1,.032-.226l3.961-5.608C20.7,7.446,20.868,7.2,20.748,6.745Z"/></svg>