<svg xmlns="http://www.w3.org/2000/svg" viewBox="0 0 24 24"><title>delivery-person-motorcycle</title><path d="M13.125,7a3.5,3.5,0,0,0,3.5-3.5,2.039,2.039,0,0,0-.013-.223A.251.251,0,0,1,16.861,3h.764a1,1,0,0,0,0-2H15.667A.253.253,0,0,1,15.5.934,3.5,3.5,0,1,0,13.125,7Zm0-2a1.5,1.5,0,0,1-1.5-1.5A1.391,1.391,0,0,1,11.66,3.2.25.25,0,0,1,11.9,3h2.442a.25.25,0,0,1,.244.195,1.391,1.391,0,0,1,.035.305A1.5,1.5,0,0,1,13.125,5Z"/><rect x="0.125" y="7.5" width="8" height="7" rx="1" ry="1"/><path d="M13.625,7.25a3.254,3.254,0,0,0-3.25,3.25v3a1.25,1.25,0,0,0,1.25,1.25h2.418a.251.251,0,0,1,.238.171L15.439,18.4a1.251,1.251,0,0,0,1.186.854,1.271,1.271,0,0,0,.4-.064,1.251,1.251,0,0,0,.79-1.582l-1.5-4.5a1.25,1.25,0,0,0-1.186-.854h-2a.25.25,0,0,1-.25-.25V10.5a.75.75,0,0,1,.361-.641.25.25,0,0,1,.252-.005l4.03,2.239a1.25,1.25,0,0,0,1.214-2.186l-4.5-2.5A1.251,1.251,0,0,0,13.625,7.25Z"/><circle cx="7.625" cy="21.5" r="2.5"/><path d="M19.625,24a2.25,2.25,0,0,0,2.415-1.438.25.25,0,0,0-.241-.315H17.451a.25.25,0,0,0-.241.315A2.25,2.25,0,0,0,19.625,24Z"/><path d="M5.875,15.5a3.755,3.755,0,0,0-3.75,3.75V20.5a1,1,0,0,0,2,0V19.25a1.752,1.752,0,0,1,1.75-1.75h3.75a1.5,1.5,0,0,1,1.5,1.5v.5a1.993,1.993,0,0,0,.984,1.712.251.251,0,0,0,.128.035h10.9a.749.749,0,0,0,.742-.748,3.11,3.11,0,0,0-2.559-3.1.251.251,0,0,1-.191-.243V15.9a.25.25,0,0,1,.362-.223l.914.457a.5.5,0,0,0,.724-.447V13.809a.5.5,0,0,0-.724-.447l-.914.457a.25.25,0,0,1-.362-.223V13a1,1,0,0,0-2,0v6.25a.25.25,0,0,1-.25.25h-5.5a.25.25,0,0,1-.25-.25V19a3.385,3.385,0,0,0-.252-1.271.25.25,0,0,1,.137-.324.976.976,0,0,0,.615-.905,1,1,0,0,0-1-1Z"/></svg>