<svg xmlns="http://www.w3.org/2000/svg" viewBox="0 0 24 24"><title>delivery-truck-boxes</title><path d="M4.5,20.344v2.25a1.2,1.2,0,0,0,.609,1.06,2.977,2.977,0,0,0,2.782,0,1.2,1.2,0,0,0,.609-1.06v-2.25a.25.25,0,0,0-.25-.25H4.75A.25.25,0,0,0,4.5,20.344Z"/><path d="M15.5,20.344v2.25a1.2,1.2,0,0,0,.609,1.06,2.977,2.977,0,0,0,2.782,0,1.2,1.2,0,0,0,.609-1.06V20.341a.247.247,0,0,0-.247-.247h-3.5A.25.25,0,0,0,15.5,20.344Z"/><path d="M13,10v4a.5.5,0,0,0,.5.5H18a.5.5,0,0,0,.5-.5V10a.48.48,0,0,0-.458-.5H13.5A.5.5,0,0,0,13,10Z"/><rect x="5.5" y="9.501" width="6" height="5" rx="0.5" ry="0.5"/><path d="M9.5,8h5a.5.5,0,0,0,.5-.5V4.126a.573.573,0,0,0-.5-.625h-5a.573.573,0,0,0-.5.625V7.5A.5.5,0,0,0,9.5,8Z"/><path d="M22.16,16.476a.971.971,0,0,0-.481-.4.26.26,0,0,1-.179-.238V2a2.034,2.034,0,0,0-2.062-2H4.563A2.034,2.034,0,0,0,2.5,2V15.839a.26.26,0,0,1-.179.238.975.975,0,0,0-.481.4,1,1,0,0,0-.043.971h0l.361.724A1.5,1.5,0,0,0,3.5,19h17a1.494,1.494,0,0,0,1.342-.829h0l.36-.721h0A1.006,1.006,0,0,0,22.16,16.476ZM19.5,3V15a1,1,0,0,1-1,1H5.507a1,1,0,0,1-1-1L4.558,3a1,1,0,0,1,1-1H18.5A1,1,0,0,1,19.5,3Z"/></svg>