<svg xmlns="http://www.w3.org/2000/svg" viewBox="0 0 24 24"><title>delivery-man-give</title><path d="M17.491,20.993l.014-3a1.488,1.488,0,0,1,.443-1.058,1.46,1.46,0,0,1,.415-.286.249.249,0,0,0,.144-.226l0-.452v0a1,1,0,0,0-1-.994h-11a1,1,0,0,0-1,1v.443a.25.25,0,0,0,.144.228,1.443,1.443,0,0,1,.423.294,1.494,1.494,0,0,1,.434,1.063l-.014,3a1.49,1.49,0,0,1-.443,1.058,1.445,1.445,0,0,1-.419.288.253.253,0,0,0-.146.227v.364a1,1,0,0,0,1,1.005l11,.051a1,1,0,0,0,1-1v-.429a.251.251,0,0,0-.144-.228,1.441,1.441,0,0,1-.418-.292A1.494,1.494,0,0,1,17.491,20.993Zm-3.5-1.386a.4.4,0,0,1-.652.314l-1.2-.952a.251.251,0,0,0-.309,0l-1.208.938a.4.4,0,0,1-.649-.319l.016-3.349a.25.25,0,0,1,.251-.249l3.523.017a.249.249,0,0,1,.176.074.245.245,0,0,1,.072.177Z"/><path d="M5.364,17.648a.489.489,0,0,0-.352-.148H5.005a1.5,1.5,0,0,0-1.5,1.493l0,1A1.5,1.5,0,0,0,4.967,21.5a.285.285,0,0,0,.051,0,.656.656,0,0,0,.33-.141A.5.5,0,0,0,5.5,21h0l.014-3A.5.5,0,0,0,5.364,17.648Z"/><path d="M19.007,17.5h0a.5.5,0,0,0-.5.5l-.014,3a.5.5,0,0,0,.145.354.586.586,0,0,0,.343.146.151.151,0,0,0,.03,0A1.5,1.5,0,0,0,20.5,20.007l0-1A1.5,1.5,0,0,0,19.007,17.5Z"/><path d="M12,12.581a3.133,3.133,0,0,0,1.882-.63.625.625,0,0,0-.764-.99,1.973,1.973,0,0,1-2.236,0,.625.625,0,0,0-.764.99A3.133,3.133,0,0,0,12,12.581Z"/><circle cx="14" cy="8.956" r="0.875"/><circle cx="10" cy="8.956" r="0.875"/><path d="M4.8,7.92a.25.25,0,0,1,.2.245v.291A7.023,7.023,0,0,0,7.913,14.14a1,1,0,1,0,1.168-1.623A5.019,5.019,0,0,1,7,8.456V7.694a.25.25,0,0,1,.2-.245,23.947,23.947,0,0,1,9.6,0,.25.25,0,0,1,.2.245v.762a5.017,5.017,0,0,1-2.084,4.062,1,1,0,0,0,1.168,1.624A7.022,7.022,0,0,0,19,8.456v-.5h0A1,1,0,0,0,19.274,6c-.283-.081-.567-.146-.851-.214a.251.251,0,0,1-.187-.194l-.628-3.14A1.494,1.494,0,0,0,16.568,1.3L12.431.063a1.506,1.506,0,0,0-.862,0L7.432,1.3a1.494,1.494,0,0,0-1.04,1.143l-.628,3.14a.251.251,0,0,1-.187.194c-.284.068-.568.133-.851.214a1,1,0,0,0-.688,1.236A.98.98,0,0,0,4.8,7.92Zm5.7-4.026a1.5,1.5,0,1,1,1.5,1.5A1.5,1.5,0,0,1,10.5,3.894Z"/></svg>