<svg xmlns="http://www.w3.org/2000/svg" viewBox="0 0 24 24"><title>delivery-person-motorcycle-1</title><rect x="0.25" y="7.5" width="7" height="7" rx="1" ry="1"/><path d="M4.5,15.746A3.755,3.755,0,0,0,.75,19.5v1.25a1,1,0,0,0,2,0V19.5a1.752,1.752,0,0,1,1.75-1.75c1.009,0,3.024,0,4.035,0h.007A1.5,1.5,0,0,1,10,19.246a2.5,2.5,0,0,0,2.5,2.5h4.85a.25.25,0,0,1,.242.188,2.738,2.738,0,0,0,5.36-.25.249.249,0,0,1,.2-.205.745.745,0,0,0,.6-.733A3.742,3.742,0,0,0,21.171,17.2.25.25,0,0,1,21,16.964v-.545a.251.251,0,0,1,.09-.192.255.255,0,0,1,.206-.054,1.068,1.068,0,0,0,.2.019,1.252,1.252,0,0,0,1.25-1.251V13.059a1.251,1.251,0,0,0-1.809-1.119L20.813,12a.248.248,0,0,1-.3-.06,1.991,1.991,0,0,0-1.512-.7h-.5a1,1,0,0,0,0,2h.25a.25.25,0,0,1,.25.25v6a.25.25,0,0,1-.25.25H12.5a.5.5,0,0,1-.5-.5,3.432,3.432,0,0,0-.308-1.407.061.061,0,0,1,.006-.06.058.058,0,0,1,.052-.029,1,1,0,0,0,0-2Z"/><circle cx="6.5" cy="21.25" r="2.75"/><path d="M12.689,15.25H13.74a.252.252,0,0,1,.178.074.246.246,0,0,1,.072.178l-.017,2.238A1.25,1.25,0,0,0,15.212,19h.011a1.25,1.25,0,0,0,1.25-1.24l.021-2.747a2.252,2.252,0,0,0-2.25-2.263H12.689a.75.75,0,0,1-.735-.9l.137-.682A.248.248,0,0,1,12.226,11a.251.251,0,0,1,.222,0l.609.3a4.265,4.265,0,0,0,1.9.449H16a1.25,1.25,0,0,0,0-2.5H14.958a1.753,1.753,0,0,1-.782-.185L11.809,7.882a1.25,1.25,0,0,0-1.785.873L9.5,11.362a3.249,3.249,0,0,0,3.186,3.888Z"/><path d="M13.5,7.5a3.755,3.755,0,0,0,3.75-3.75.249.249,0,0,1,.25-.25h1.25a1,1,0,0,0,0-2H16.6a.249.249,0,0,1-.2-.093A3.744,3.744,0,1,0,13.5,7.5ZM11.8,3.8a.16.16,0,0,1,.116-.051h3.065a.251.251,0,0,1,.247.292,1.751,1.751,0,0,1-3.468-.121A.161.161,0,0,1,11.8,3.8Z"/></svg>