<svg xmlns="http://www.w3.org/2000/svg" viewBox="0 0 24 24"><title>delivery-truck-clock</title><circle cx="10.163" cy="21.904" r="1.5"/><path d="M22.1,13.364h0a2.013,2.013,0,0,0-1.9-1.459l-2.491,0a.249.249,0,0,1-.241-.228,1.841,1.841,0,0,0-1.812-1.52h-2.4a.252.252,0,0,0-.225.14,7.538,7.538,0,0,1-6.722,4.148c-.213,0-.423-.011-.631-.03a.249.249,0,0,0-.273.249V19.9a1.75,1.75,0,0,0,1.75,1.75h.309a.25.25,0,0,0,.245-.2,2.485,2.485,0,0,1,4.889-.011.266.266,0,0,0,.248.216H16.97a.265.265,0,0,0,.248-.216,2.485,2.485,0,0,1,4.9.054.186.186,0,0,0,.2.155,1.692,1.692,0,0,0,1.384-.834,2.04,2.04,0,0,0,.2-1.66Zm-2.129.528a.247.247,0,0,1,.237.169c.07.2.211.631.489,1.518a.25.25,0,0,1-.239.325H17.667a.25.25,0,0,1-.25-.25l0-1.5a.25.25,0,0,1,.249-.25Z"/><circle cx="19.662" cy="21.904" r="1.5"/><path d="M6.317,13.211A6.308,6.308,0,1,0,.009,6.9,6.314,6.314,0,0,0,6.317,13.211ZM10.625,6.9A4.308,4.308,0,1,1,6.317,2.6,4.313,4.313,0,0,1,10.625,6.9Z"/><path d="M6.317,7.9H8.163a1,1,0,0,0,0-2h-.6a.25.25,0,0,1-.25-.25V4.6a1,1,0,0,0-2,0V6.9A1,1,0,0,0,6.317,7.9Z"/></svg>