<svg id="Bold" xmlns="http://www.w3.org/2000/svg" viewBox="0 0 24 24"><title>dentistry-tooth-hook</title><path d="M12.917,8.233a.5.5,0,0,0-.708,0L10.718,9.724a1,1,0,0,0,0,1.414l2.121,2.121a1,1,0,0,0,1.414,0l1.492-1.491a.5.5,0,0,0,0-.707Z"/><path d="M23.019.964a2.558,2.558,0,0,0-3.535,0l-5.506,5.5a.5.5,0,0,0,0,.708L16.805,10a.5.5,0,0,0,.707,0l5.507-5.5A2.5,2.5,0,0,0,23.019.964Z"/><path d="M10.719,12.905a.75.75,0,0,0-1.061,0L6.282,16.3a2,2,0,0,0-.308,2.431A2,2,0,1,1,2.25,19.746a1.979,1.979,0,0,1,.586-1.413,1,1,0,1,0-1.414-1.415,4,4,0,1,0,6.275.8l3.376-3.394a.748.748,0,0,0,.219-.53.758.758,0,0,0-.219-.531Z"/></svg>