<svg xmlns="http://www.w3.org/2000/svg" viewBox="0 0 24 24"><title>design-document-max-1</title><path d="M12.5,12.125A1.377,1.377,0,0,0,11.125,13.5v1.125a.25.25,0,0,0,.25.25h2.25a.25.25,0,0,0,.25-.25V13.5A1.377,1.377,0,0,0,12.5,12.125Z"/><path d="M22.5,0H1.5A1.5,1.5,0,0,0,0,1.5v21A1.5,1.5,0,0,0,1.5,24h21A1.5,1.5,0,0,0,24,22.5V1.5A1.5,1.5,0,0,0,22.5,0ZM9.125,19.5a.625.625,0,0,1-1.25,0V14.518c0-.112-.141-.088-.185,0l-.631,1.261a.625.625,0,0,1-1.118,0s-.579-1.167-.631-1.261-.185-.094-.185,0V19.5a.625.625,0,0,1-1.25,0v-8a.625.625,0,0,1,1.184-.279l1.217,2.434a.25.25,0,0,0,.448,0l1.217-2.434a.625.625,0,0,1,1.184.279Zm6,0a.625.625,0,0,1-1.25,0V16.375a.25.25,0,0,0-.25-.25h-2.25a.25.25,0,0,0-.25.25V19.5a.625.625,0,0,1-1.25,0V13.6a2.7,2.7,0,0,1,2.1-2.678A2.63,2.63,0,0,1,15.125,13.5Zm5.934-.279a.625.625,0,1,1-1.118.558l-1.217-2.435a.251.251,0,0,0-.448,0l-1.217,2.435a.625.625,0,1,1-1.118-.558l1.8-3.609a.252.252,0,0,0,0-.224l-1.8-3.609a.625.625,0,1,1,1.118-.558l1.217,2.435a.25.25,0,0,0,.448,0l1.217-2.435a.625.625,0,0,1,1.118.558l-1.8,3.609a.252.252,0,0,0,0,.224Z"/></svg>