<svg xmlns="http://www.w3.org/2000/svg" viewBox="0 0 24 24"><title>design-tool-pen</title><path d="M21.5,19a1,1,0,0,0-1,1,2,2,0,0,1-4,0V5a5.006,5.006,0,0,0-5-5h-2a5.006,5.006,0,0,0-5,5v.5a1,1,0,0,0,2,0V5a3,3,0,0,1,3-3h2a3,3,0,0,1,3,3V20a4,4,0,0,0,8,0A1,1,0,0,0,21.5,19Z"/><path d="M19,15a2.5,2.5,0,0,0,5,0V5.75a.25.25,0,0,0-.25-.25h-4.5a.25.25,0,0,0-.25.25Z"/><path d="M23.947,4.276l-2-4a.521.521,0,0,0-.894,0l-2,4a.154.154,0,0,0,.138.224h4.618a.154.154,0,0,0,.138-.224Z"/><path d="M10.75,13a.25.25,0,0,0,.25-.25V10.5A2.5,2.5,0,0,0,8.5,8h-2a.25.25,0,0,0-.25.25v4.5A.25.25,0,0,0,6.5,13Z"/><path d="M4.75,8.25A.25.25,0,0,0,4.5,8h-2A2.5,2.5,0,0,0,0,10.5v2.25A.25.25,0,0,0,.25,13H4.5a.25.25,0,0,0,.25-.25Z"/><path d="M0,18.5a5.5,5.5,0,0,0,11,0V14.75a.25.25,0,0,0-.25-.25H.25a.25.25,0,0,0-.25.25Z"/></svg>