<svg xmlns="http://www.w3.org/2000/svg" viewBox="0 0 24 24"><title>design-drawing-board</title><path d="M11,23a1,1,0,1,0,2,0v-4.75a.25.25,0,0,0-.25-.25h-1.5a.25.25,0,0,0-.25.25Z"/><path d="M3.105,22.551a1,1,0,0,0,1.79.894L7.437,18.36A.25.25,0,0,0,7.214,18H5.536a.249.249,0,0,0-.223.138Z"/><path d="M19.105,23.445a1,1,0,0,0,1.79-.894l-2.208-4.415A.249.249,0,0,0,18.464,18H16.786a.25.25,0,0,0-.223.362Z"/><path d="M23.5,16a1,1,0,0,0-1-1h-.75a.25.25,0,0,1-.25-.25V5.5A2.5,2.5,0,0,0,19,3H13.25a.25.25,0,0,1-.25-.25V1a1,1,0,1,0-2,0v1.75a.25.25,0,0,1-.25.25H5A2.5,2.5,0,0,0,2.5,5.5v9.25a.25.25,0,0,1-.25.25H1.5a1,1,0,1,0,0,2h21A1,1,0,0,0,23.5,16ZM4.5,5.5A.5.5,0,0,1,5,5H19a.5.5,0,0,1,.5.5v9.25a.25.25,0,0,1-.25.25H4.75a.25.25,0,0,1-.25-.25Z"/></svg>