<svg xmlns="http://www.w3.org/2000/svg" viewBox="0 0 24 24"><title>design-tool-glue</title><path d="M3.448,18a.253.253,0,0,0-.184-.073.25.25,0,0,0-.179.083L.192,21.247A.75.75,0,0,0,.751,22.5H4a.752.752,0,0,0,.507-.2L6,20.929a.244.244,0,0,0,.081-.178.25.25,0,0,0-.073-.183Z"/><path d="M7.27,20.035a1.256,1.256,0,0,0,1.7.068c.611-.524,1.8-1.278,2.894-.447a1.269,1.269,0,0,0,1.7-.171l.182-.227a.25.25,0,0,0-.018-.333L5.055,10.258a.249.249,0,0,0-.341-.011l-.273.238a1.257,1.257,0,0,0-.111,1.641c.832,1.094.078,2.282-.444,2.894a1.254,1.254,0,0,0,.065,1.7Z"/><path d="M14.312,18.1a.249.249,0,0,0,.372-.021L23.1,7.6a1.884,1.884,0,0,0-.133-2.486L18.379.523A1.841,1.841,0,0,0,15.9.443L5.844,9.256a.25.25,0,0,0-.012.365Z"/><path d="M24,23a1,1,0,0,0-1-1H9a1,1,0,0,0,0,2H23A1,1,0,0,0,24,23Z"/></svg>