<svg xmlns="http://www.w3.org/2000/svg" viewBox="0 0 24 24"><title>design-document-3ds-1</title><path d="M22.5,0H1.5A1.5,1.5,0,0,0,0,1.5v21A1.5,1.5,0,0,0,1.5,24h21A1.5,1.5,0,0,0,24,22.5V1.5A1.5,1.5,0,0,0,22.5,0ZM9.085,17.966a2.707,2.707,0,0,1-2.7,2.159H3.5a.625.625,0,0,1,0-1.25h3a1.375,1.375,0,0,0,0-2.75H5a.625.625,0,0,1,0-1.25H6.5a1.375,1.375,0,0,0,0-2.75h-3a.625.625,0,0,1,0-1.25H6.382a2.707,2.707,0,0,1,2.7,2.159,2.624,2.624,0,0,1-.7,2.292.244.244,0,0,0,0,.348A2.624,2.624,0,0,1,9.085,17.966ZM10.5,20.125a.625.625,0,0,1-.625-.625v-8a.625.625,0,0,1,.625-.625,4.625,4.625,0,0,1,0,9.25Zm7.305-5.671,1.95.974a2.48,2.48,0,0,1-1.109,4.7H16.5a.625.625,0,0,1,0-1.25h2.146a1.229,1.229,0,0,0,.549-2.329l-1.949-.974a2.479,2.479,0,0,1,1.108-4.7H20.5a.625.625,0,0,1,0,1.25H18.354a1.229,1.229,0,0,0-.549,2.329Z"/><path d="M11.125,12.5V18.5a.252.252,0,0,0,.312.246,3.376,3.376,0,0,0,0-6.486A.252.252,0,0,0,11.125,12.5Z"/></svg>