<svg xmlns="http://www.w3.org/2000/svg" viewBox="0 0 24 24"><title>design-document-3ds</title><path d="M11.125,10.059v3.882a.249.249,0,0,0,.331.24A2.237,2.237,0,0,0,12.875,12a2.237,2.237,0,0,0-1.419-2.181A.249.249,0,0,0,11.125,10.059Z"/><path d="M22.5,4.5H1.5A1.5,1.5,0,0,0,0,6V18a1.5,1.5,0,0,0,1.5,1.5h21A1.5,1.5,0,0,0,24,18V6A1.5,1.5,0,0,0,22.5,4.5Zm-13.375,9A2.014,2.014,0,0,1,7.26,15.621l-.757,0A1.736,1.736,0,0,1,4.875,13.8a.625.625,0,0,1,1.25,0c0,.339.2.575.375.575l.754,0c.337,0,.621-.4.621-.873s-.285-.873-.623-.873a.625.625,0,1,1,0-1.25c.338,0,.623-.4.623-.873s-.284-.872-.621-.873l-.757,0c-.175,0-.372.236-.372.575a.625.625,0,0,1-1.25,0A1.736,1.736,0,0,1,6.5,8.375l.76,0A2.014,2.014,0,0,1,9.125,10.5,2.29,2.29,0,0,1,8.7,11.853a.243.243,0,0,0,0,.294A2.29,2.29,0,0,1,9.125,13.5ZM10.5,15.625A.625.625,0,0,1,9.875,15V9a.625.625,0,0,1,.625-.625,3.625,3.625,0,0,1,0,7.25Zm5.927-4.758,1.84,1.226a1.928,1.928,0,0,1-1.07,3.532H15.5a.625.625,0,0,1,0-1.25h1.7a.678.678,0,0,0,.376-1.242l-1.84-1.226A1.928,1.928,0,0,1,16.8,8.375h1.7a.625.625,0,0,1,0,1.25H16.8a.678.678,0,0,0-.376,1.242Z"/></svg>