<svg xmlns="http://www.w3.org/2000/svg" viewBox="0 0 24 24"><title>design-file-ttf-1</title><path d="M23.707,5.708,18.293.293A1,1,0,0,0,17.586,0H6A2,2,0,0,0,4,2V7.75A.25.25,0,0,0,4.25,8h1.5A.25.25,0,0,0,6,7.75V2.5A.5.5,0,0,1,6.5,2H16.75a.25.25,0,0,1,.25.25V5a2,2,0,0,0,2,2h2.75a.25.25,0,0,1,.25.25V21.5a.5.5,0,0,1-.5.5H6.25A.25.25,0,0,1,6,21.75v-.5A.25.25,0,0,0,5.75,21H4.25a.25.25,0,0,0-.25.25V22a2,2,0,0,0,2,2H22a2,2,0,0,0,2-2V6.414A1,1,0,0,0,23.707,5.708Z"/><path d="M18,19V10a1,1,0,0,0-1-1H1a1,1,0,0,0-1,1v9a1,1,0,0,0,1,1H17A1,1,0,0,0,18,19ZM5.5,12.125H4.375a.25.25,0,0,0-.25.25V17.5a.625.625,0,0,1-1.25,0V12.375a.25.25,0,0,0-.25-.25H1.5a.625.625,0,0,1,0-1.25h4a.625.625,0,0,1,0,1.25Zm6,0H10.375a.25.25,0,0,0-.25.25V17.5a.625.625,0,0,1-1.25,0V12.375a.25.25,0,0,0-.25-.25H7.5a.625.625,0,0,1,0-1.25h4a.625.625,0,0,1,0,1.25Zm5,0h-2a.375.375,0,0,0-.375.375v1.125a.25.25,0,0,0,.25.25H15.5a.625.625,0,0,1,0,1.25H14.375a.25.25,0,0,0-.25.25V17.5a.625.625,0,0,1-1.25,0v-5A1.626,1.626,0,0,1,14.5,10.875h2a.625.625,0,0,1,0,1.25Z"/></svg>