<svg id="Bold" xmlns="http://www.w3.org/2000/svg" viewBox="0 0 24 24"><title>designer-community-design-float</title><path d="M12,0A12,12,0,1,0,24,12,12,12,0,0,0,12,0Zm0,22A10,10,0,1,1,22,12,10,10,0,0,1,12,22Z"/><circle cx="12" cy="12" r="4"/><path d="M4,10.62h2.3a.5.5,0,0,0,.47-.34,5.54,5.54,0,0,1,3.51-3.51.5.5,0,0,0,.34-.47V4A.5.5,0,0,0,10,3.51,8.74,8.74,0,0,0,3.51,10a.5.5,0,0,0,.49.61Z"/><path d="M13.72,6.77a5.52,5.52,0,0,1,3.51,3.51.5.5,0,0,0,.48.34H20a.5.5,0,0,0,.49-.61A8.73,8.73,0,0,0,14,3.51a.5.5,0,0,0-.61.49v2.3A.5.5,0,0,0,13.72,6.77Z"/><path d="M10.28,17.23a5.52,5.52,0,0,1-3.51-3.51.5.5,0,0,0-.48-.34H4a.5.5,0,0,0-.49.61A8.73,8.73,0,0,0,10,20.49a.5.5,0,0,0,.61-.49v-2.3A.5.5,0,0,0,10.28,17.23Z"/><path d="M20.4,13.57a.5.5,0,0,0-.39-.19h-2.3a.5.5,0,0,0-.47.34,5.52,5.52,0,0,1-3.5,3.51.5.5,0,0,0-.34.47V20a.5.5,0,0,0,.61.49,8.73,8.73,0,0,0,6.5-6.5A.5.5,0,0,0,20.4,13.57Z"/></svg>