<svg xmlns="http://www.w3.org/2000/svg" viewBox="0 0 24 24"><title>design-file-text-image</title><path d="M21.414,4.914,17.086.586A2,2,0,0,0,15.672,0H4A2,2,0,0,0,2,2V22a2,2,0,0,0,2,2H20a2,2,0,0,0,2-2V6.329A2,2,0,0,0,21.414,4.914ZM8.6,4.5A1.5,1.5,0,1,1,7.1,6,1.5,1.5,0,0,1,8.6,4.5ZM7.076,12.737l1.478-2.388a1,1,0,0,1,1.273-.206l1.579,1.206a.249.249,0,0,0,.349-.045L13.266,9.36a1,1,0,0,1,1.587.067L16.3,12.8a.5.5,0,0,1-.46.7H7.5A.5.5,0,0,1,7.076,12.737ZM16.5,20.75H6.5a.75.75,0,0,1,0-1.5h10a.75.75,0,0,1,0,1.5Zm0-3.5H6.5a.75.75,0,0,1,0-1.5h10a.75.75,0,0,1,0,1.5Z"/></svg>