<svg xmlns="http://www.w3.org/2000/svg" viewBox="0 0 24 24"><title>design-file-pen</title><path d="M9.458,14.7a1.5,1.5,0,1,0,2.122,0A1.5,1.5,0,0,0,9.458,14.7Z"/><path d="M21.414,4.914,17.086.586A2,2,0,0,0,15.672,0H4A2,2,0,0,0,2,2V22a2,2,0,0,0,2,2H20a2,2,0,0,0,2-2V6.329A2,2,0,0,0,21.414,4.914ZM11.355,19.406,6.931,20.76a1.123,1.123,0,0,1-1.409-1.414l1.353-4.42a5.5,5.5,0,0,1,4.54-3.822.249.249,0,0,1,.27.186,4.707,4.707,0,0,0,3.306,3.3.252.252,0,0,1,.187.271A5.5,5.5,0,0,1,11.355,19.406Zm7.28-7.086a3.305,3.305,0,0,1-4.674-4.674.5.5,0,0,1,.707,0l3.967,3.967a.5.5,0,0,1,0,.707Z"/></svg>