<svg xmlns="http://www.w3.org/2000/svg" viewBox="0 0 24 24"><title>design-tool-magnet</title><path d="M23.411,14.027a2,2,0,0,0,0-2.828L22,9.784a2,2,0,0,0-2.827,0h0l-2.887,2.887-3.594,3.594a3.5,3.5,0,0,1-4.951-4.949L11.33,7.722h0l2.888-2.888a2,2,0,0,0,0-2.828L12.8.591a2,2,0,0,0-2.827,0h0L7.089,3.479l-4.3,4.3A9.5,9.5,0,0,0,16.222,21.215l4.3-4.3h0ZM12.628,3.243a.251.251,0,0,1,0,.354L10.8,5.423a.25.25,0,0,1-.354,0L9.386,4.363a.252.252,0,0,1,0-.354l1.827-1.826a.25.25,0,0,1,.353,0Zm7.365,11.373a.252.252,0,0,1-.354,0l-1.06-1.061a.249.249,0,0,1,0-.353l1.826-1.827a.251.251,0,0,1,.354,0l1.061,1.061a.251.251,0,0,1,0,.354Z"/></svg>