<svg xmlns="http://www.w3.org/2000/svg" viewBox="0 0 24 24"><title>design-tool-magic-wand</title><path d="M23.543,10.547l-2.671-2.67a.39.39,0,0,1-.051-.185l1.394-4.185a1.314,1.314,0,0,0-1.722-1.723l-4.17,1.392a.412.412,0,0,1-.189-.037L13.453.457a1.211,1.211,0,0,0-2.132,1.026l.457,4.093a.428.428,0,0,1-.044.11L7.442,8.071a1.234,1.234,0,0,0,.334,2.363l2.83.652a.249.249,0,0,1,.121.42L.366,21.866a1.25,1.25,0,0,0,1.768,1.768l10.36-10.36a.25.25,0,0,1,.42.121l.653,2.831a1.234,1.234,0,0,0,2.363.334L18.3,12.287a.382.382,0,0,1,.1-.063l4.118.456A1.212,1.212,0,0,0,23.543,10.547Zm-4.923-.311A2.159,2.159,0,0,0,16.566,11.3l-1.156,2.08a.25.25,0,0,1-.462-.065l-.5-2.147a2.263,2.263,0,0,0-1.618-1.618l-2.146-.494a.251.251,0,0,1-.065-.463l2.081-1.156a2.166,2.166,0,0,0,1.061-2.055l-.144-1.294a.251.251,0,0,1,.426-.205l.672.673a2.275,2.275,0,0,0,2.222.523l2.5-.832a.25.25,0,0,1,.316.316l-.833,2.5a2.281,2.281,0,0,0,.525,2.221l.674.673a.251.251,0,0,1-.2.426Z"/></svg>