<svg xmlns="http://www.w3.org/2000/svg" viewBox="0 0 24 24"><title>design-file-vector-alternate</title><path d="M14.3,10.1c.177-.177.519-.1.7-.1a2,2,0,0,0,2-2h0a2,2,0,1,0-4,0c0,.173.07.481-.1.668L8.156,13.416c-.194.194-.483.085-.656.085a2,2,0,1,0,2,2h0c0-.182-.113-.489.087-.689Z"/><path d="M21.707,5.707,16.293.293A1,1,0,0,0,15.586,0H4A2,2,0,0,0,2,2V22a2,2,0,0,0,2,2H20a2,2,0,0,0,2-2V6.414A1,1,0,0,0,21.707,5.707ZM20,21.5a.5.5,0,0,1-.5.5H4.5a.5.5,0,0,1-.5-.5V2.5A.5.5,0,0,1,4.5,2H14.965a.5.5,0,0,1,.354.146l4.535,4.536A.5.5,0,0,1,20,7.035Z"/><path d="M16.917,11.5H15.749a4.336,4.336,0,0,0-4.332,4.332V17.5a1,1,0,0,0,2,0V15.832A2.334,2.334,0,0,1,15.749,13.5h1.168a1,1,0,0,0,0-2Z"/></svg>