<svg id="Bold" xmlns="http://www.w3.org/2000/svg" viewBox="0 0 24 24"><title>developer-community-www</title><path d="M20.38,10,23.83,4.5A1,1,0,0,0,23,3H17a1,1,0,0,0-1,.73L12.46,16.33l-2.5-9a1,1,0,0,0-.07-.25l-1-3.42A1,1,0,0,0,7,4.24l.91,3.27L5.48,16.3,2,3.7a1,1,0,1,0-1.93.54L4.52,20.3a1,1,0,0,0,1.93,0L9,11.23,11.5,20.3a1,1,0,0,0,1,.73h0a1,1,0,0,0,1-.73L17.74,5h3.43L18,10a1,1,0,0,0,.71,1.52A4,4,0,0,1,22,15.85c0,2-1.12,2.95-2.09,3.14s-2.18-.22-2.88-1.9a1,1,0,0,0-1.85.77,4.62,4.62,0,0,0,5.12,3.09c1.84-.37,3.69-2.09,3.69-5.1A6,6,0,0,0,20.38,10Z"/></svg>