<svg id="Bold" xmlns="http://www.w3.org/2000/svg" viewBox="0 0 24 24"><title>diagram-dash-fast-up</title><path d="M3.457,21.629a1.482,1.482,0,0,0,0-2.963H1.481a1.482,1.482,0,0,0,0,2.963Z"/><path d="M9.971,21.629h.06c.14,0,.279,0,.417-.011a1.481,1.481,0,0,0,1.4-1.556,1.5,1.5,0,0,0-1.557-1.4c-.1.006-.2.008-.311.007H8.4a1.482,1.482,0,0,0,0,2.963Z"/><path d="M15.106,16.116a6.5,6.5,0,0,1-1.118,1.149,1.482,1.482,0,0,0,1.852,2.313A9.436,9.436,0,0,0,17.47,17.9a1.481,1.481,0,0,0-2.364-1.786Z"/><path d="M18.09,13.938a1.482,1.482,0,0,0,1.434-1.11l.494-1.913a1.481,1.481,0,1,0-2.868-.742l-.495,1.912a1.482,1.482,0,0,0,1.435,1.853Z"/><path d="M23.779,6.639l-2.2-3.566a1.483,1.483,0,0,0-2.017-.493L15.973,4.792a1.481,1.481,0,0,0,.438,2.7l5.767,1.365a1.463,1.463,0,0,0,.341.039,1.481,1.481,0,0,0,1.26-2.259Z"/></svg>