<svg id="Bold" xmlns="http://www.w3.org/2000/svg" viewBox="0 0 24 24"><title>diagram-dash-wave-down</title><path d="M6.216,15.242A1.438,1.438,0,0,0,7.654,13.8V11.886a1.439,1.439,0,1,0-2.877,0V13.8A1.438,1.438,0,0,0,6.216,15.242Z"/><path d="M3.465.526,1.48.523a1.439,1.439,0,1,0,0,2.877H3.331l.068,0A1.438,1.438,0,0,0,3.465.526Z"/><path d="M6.216,3.734A1.438,1.438,0,0,0,4.777,5.172V7.09a1.439,1.439,0,1,0,2.877,0V5.172A1.438,1.438,0,0,0,6.216,3.734Z"/><path d="M7.654,19.225V18.6a1.439,1.439,0,0,0-2.877,0v.626A4.329,4.329,0,0,0,5.206,21.1,1.439,1.439,0,1,0,7.8,19.846,1.416,1.416,0,0,1,7.654,19.225Z"/><path d="M19.643,6.748a1.439,1.439,0,0,0,1.438-1.439V4.838a4.315,4.315,0,0,0-.535-2.081,1.439,1.439,0,1,0-2.519,1.39,1.419,1.419,0,0,1,.177.692v.47A1.439,1.439,0,0,0,19.643,6.748Z"/><path d="M16.441,1.685A1.439,1.439,0,0,0,14.677.672a4.339,4.339,0,0,0-2.333,1.589,1.439,1.439,0,1,0,2.307,1.72,1.444,1.444,0,0,1,.777-.531A1.439,1.439,0,0,0,16.441,1.685Z"/><path d="M11.491,7.794V9.712a1.439,1.439,0,1,0,2.877,0V7.794a1.439,1.439,0,1,0-2.877,0Z"/><path d="M10.356,20.631a1.439,1.439,0,0,0,.3,2.846,1.407,1.407,0,0,0,.3-.032,4.332,4.332,0,0,0,2.416-1.46,1.438,1.438,0,1,0-2.21-1.841A1.445,1.445,0,0,1,10.356,20.631Z"/><path d="M11.491,16.425a1.439,1.439,0,1,0,2.877,0V14.507a1.439,1.439,0,0,0-2.877,0Z"/><path d="M23.849,11.961a1.438,1.438,0,0,0-1.329-.888H21.331a.25.25,0,0,1-.25-.25V10.1a1.439,1.439,0,0,0-2.877,0v.719a.25.25,0,0,1-.25.25H16.766a1.439,1.439,0,0,0-1.018,2.456l2.878,2.877a1.439,1.439,0,0,0,2.034,0l2.877-2.877A1.438,1.438,0,0,0,23.849,11.961Z"/></svg>