<svg id="Bold" xmlns="http://www.w3.org/2000/svg" viewBox="0 0 24 24"><title>diagram-curve-rise</title><path d="M1.5,13.5A1.5,1.5,0,0,0,3,12V9A2.5,2.5,0,0,1,5.5,6.5h1A2.5,2.5,0,0,1,9,9v6a5.506,5.506,0,0,0,5.5,5.5h1A5.506,5.506,0,0,0,21,15V13.75a.25.25,0,0,1,.25-.25H22.5a1.5,1.5,0,0,0,1.06-2.561l-3-3a1.5,1.5,0,0,0-2.124,0l-3,3A1.5,1.5,0,0,0,16.5,13.5h1.25a.25.25,0,0,1,.25.25V15a2.5,2.5,0,0,1-2.5,2.5h-1A2.5,2.5,0,0,1,12,15V9A5.506,5.506,0,0,0,6.5,3.5h-1A5.506,5.506,0,0,0,0,9v3A1.5,1.5,0,0,0,1.5,13.5Z"/></svg>