<svg id="Bold" xmlns="http://www.w3.org/2000/svg" viewBox="0 0 24 24"><title>diagram-wave-down</title><path d="M23.577,13.5a1.443,1.443,0,0,0-1.021-2.464H21.363a.25.25,0,0,1-.25-.25V4.782A4.336,4.336,0,0,0,16.782.451H15.82a4.336,4.336,0,0,0-4.331,4.331V19.218a1.445,1.445,0,0,1-1.444,1.443H9.083a1.445,1.445,0,0,1-1.444-1.443V4.782A4.335,4.335,0,0,0,3.309.451H1.444a1.444,1.444,0,0,0,0,2.888H3.309A1.444,1.444,0,0,1,4.752,4.782V19.218a4.336,4.336,0,0,0,4.331,4.331h.962a4.336,4.336,0,0,0,4.331-4.331V4.782A1.445,1.445,0,0,1,15.82,3.339h.962a1.445,1.445,0,0,1,1.444,1.443v6.006a.25.25,0,0,1-.25.25H16.782A1.443,1.443,0,0,0,15.761,13.5l2.887,2.886a1.442,1.442,0,0,0,2.043,0Z"/></svg>