<svg id="Bold" xmlns="http://www.w3.org/2000/svg" viewBox="0 0 24 24"><title>diagram-fall-fast-dash</title><path d="M3.045,7.6A1.44,1.44,0,0,0,.366,8.655,5.3,5.3,0,0,0,1.9,10.772,1.44,1.44,0,0,0,3.741,8.561,2.4,2.4,0,0,1,3.045,7.6Z"/><path d="M19.68,16.732a1.44,1.44,0,0,0,1.44-1.44A8.011,8.011,0,0,0,20.933,13a1.44,1.44,0,0,0-2.777.761,5.911,5.911,0,0,1,.084,1.527A1.44,1.44,0,0,0,19.68,16.732Z"/><path d="M9.326,12a1.44,1.44,0,0,0,0-2.88H7.406a1.44,1.44,0,0,0,0,2.88Z"/><path d="M16.047,12.006a1.44,1.44,0,0,0,.077-2.878c-.267-.014-.259-.005-2-.008a1.44,1.44,0,0,0,0,2.88Z"/><path d="M1.44,4.8A1.44,1.44,0,0,0,2.88,3.36V1.44A1.44,1.44,0,0,0,0,1.44V3.36A1.44,1.44,0,0,0,1.44,4.8Z"/><path d="M23.89,19.129a1.438,1.438,0,0,0-1.33-.889H16.8A1.44,1.44,0,0,0,15.782,20.7l2.88,2.88a1.439,1.439,0,0,0,2.036,0l2.88-2.88A1.439,1.439,0,0,0,23.89,19.129Z"/></svg>