<svg id="Bold" xmlns="http://www.w3.org/2000/svg" viewBox="0 0 24 24"><title>diagram-arrow-bow</title><path d="M23.56,10.938l-3-3A1.5,1.5,0,0,0,18,9v1.25a.25.25,0,0,1-.25.25H13.842a.5.5,0,0,1-.493-.42A12.02,12.02,0,0,0,1.5-.016a1.5,1.5,0,0,0,0,3,9.016,9.016,0,0,1,8.752,6.9.5.5,0,0,1-.487.617H1.5a1.5,1.5,0,0,0,0,3H9.758a.5.5,0,0,1,.486.619A9.015,9.015,0,0,1,1.5,20.984a1.5,1.5,0,0,0,0,3A12.019,12.019,0,0,0,13.344,13.92a.5.5,0,0,1,.493-.42H17.75a.25.25,0,0,1,.25.25V15a1.5,1.5,0,0,0,2.561,1.061l3-3a1.5,1.5,0,0,0,0-2.124Z"/></svg>