<svg id="Bold" xmlns="http://www.w3.org/2000/svg" viewBox="0 0 24 24"><title>diagram-split-vertical</title><path d="M23.576,3.3,20.7.422A1.44,1.44,0,0,0,18.24,1.44V2.63a.25.25,0,0,1-.25.25h-.05A7.359,7.359,0,0,0,12.2,5.646a.249.249,0,0,1-.39,0A7.359,7.359,0,0,0,6.06,2.88H6.01a.25.25,0,0,1-.25-.25V1.44A1.44,1.44,0,0,0,3.3.422L.424,3.3a1.439,1.439,0,0,0,0,2.04L3.3,8.218A1.439,1.439,0,0,0,5.76,7.2V6.01a.25.25,0,0,1,.25-.25h.05a4.506,4.506,0,0,1,4.5,4.5v12.3a1.44,1.44,0,0,0,2.88,0v-12.3a4.506,4.506,0,0,1,4.5-4.5h.05a.25.25,0,0,1,.25.25V7.2A1.44,1.44,0,0,0,20.7,8.218L23.576,5.34a1.439,1.439,0,0,0,0-2.04Z"/></svg>