<svg id="Bold" xmlns="http://www.w3.org/2000/svg" viewBox="0 0 24 24"><title>diagram-steady-down</title><path d="M16.8,0A7.208,7.208,0,0,0,9.6,7.2v4.07a.25.25,0,0,1-.25.25H1.44a1.44,1.44,0,0,0,0,2.88H9.35a.25.25,0,0,1,.25.25v3.34a.25.25,0,0,1-.25.25H8.16A1.44,1.44,0,0,0,7.142,20.7l2.879,2.879a1.439,1.439,0,0,0,2.038,0L14.938,20.7A1.44,1.44,0,0,0,13.92,18.24H12.73a.25.25,0,0,1-.25-.25V14.65a.25.25,0,0,1,.25-.25H16.8A7.2,7.2,0,0,0,16.8,0Zm0,11.52H12.73a.25.25,0,0,1-.25-.25V7.2a4.32,4.32,0,1,1,4.32,4.32Z"/></svg>