<svg id="Bold" xmlns="http://www.w3.org/2000/svg" viewBox="0 0 24 24"><title>diagram-all-direction-expand</title><path d="M23.56,13.062a1.5,1.5,0,0,0,0-2.124l-3-3A1.5,1.5,0,0,0,18,9v1.25a.25.25,0,0,1-.25.25h-4a.25.25,0,0,1-.25-.25v-4A.25.25,0,0,1,13.75,6H15a1.5,1.5,0,0,0,1.061-2.561l-3-3a1.5,1.5,0,0,0-2.124,0l-3,3A1.5,1.5,0,0,0,9,6h1.25a.25.25,0,0,1,.25.25v4a.25.25,0,0,1-.25.25h-4A.25.25,0,0,1,6,10.25V9A1.5,1.5,0,0,0,3.439,7.939l-3,3a1.5,1.5,0,0,0,0,2.124l3,3A1.5,1.5,0,0,0,6,15V13.75a.25.25,0,0,1,.25-.25h4a.25.25,0,0,1,.25.25v4a.25.25,0,0,1-.25.25H9a1.5,1.5,0,0,0-1.061,2.561l3,3a1.5,1.5,0,0,0,2.124,0l3-3A1.5,1.5,0,0,0,15,18H13.75a.25.25,0,0,1-.25-.25v-4a.25.25,0,0,1,.25-.25h4a.25.25,0,0,1,.25.25V15a1.5,1.5,0,0,0,2.561,1.061Z"/></svg>