<svg id="Bold" xmlns="http://www.w3.org/2000/svg" viewBox="0 0 24 24"><title>diagram-lower-steady</title><path d="M23.577,8.581,20.7,5.7A1.44,1.44,0,0,0,18.24,6.72V7.91a.25.25,0,0,1-.25.25H12.48a4.325,4.325,0,0,0-4.32,4.32v7.2a1.442,1.442,0,0,1-1.44,1.44H4.32a1.442,1.442,0,0,1-1.44-1.44V1.44A1.44,1.44,0,0,0,0,1.44V19.68A4.325,4.325,0,0,0,4.32,24h2.4a4.325,4.325,0,0,0,4.32-4.32v-7.2a1.442,1.442,0,0,1,1.44-1.44h5.51a.25.25,0,0,1,.25.25v1.19A1.44,1.44,0,0,0,20.7,13.5l2.879-2.879a1.439,1.439,0,0,0,0-2.038Z"/></svg>