<svg id="Bold" xmlns="http://www.w3.org/2000/svg" viewBox="0 0 24 24"><title>diagram-wave-both-direction</title><path d="M4.871,15.47a1.44,1.44,0,0,0-1.569.312L.423,18.661A1.459,1.459,0,0,0,0,19.68,1.476,1.476,0,0,0,.423,20.7L3.3,23.578A1.44,1.44,0,0,0,5.76,22.56V16.8A1.439,1.439,0,0,0,4.871,15.47Z"/><path d="M18.067,12.041a1.44,1.44,0,0,0-2,2.071,2.411,2.411,0,0,1,.626,1.011,1.44,1.44,0,0,0,2.749-.86A5.306,5.306,0,0,0,18.067,12.041Z"/><path d="M8.069,6.078a1.432,1.432,0,0,0,.574-.12,2.383,2.383,0,0,1,.957-.2h.343a1.441,1.441,0,0,0,0-2.881H9.6a5.247,5.247,0,0,0-2.107.438,1.44,1.44,0,0,0,.576,2.76Z"/><path d="M14.743,5.761h1.92a1.441,1.441,0,0,0,0-2.881h-1.92a1.441,1.441,0,0,0,0,2.881Z"/><path d="M13.988,12a1.439,1.439,0,0,0-1.44-1.44H10.629a1.44,1.44,0,1,0,0,2.879h1.919A1.44,1.44,0,0,0,13.988,12Z"/><path d="M15.806,17.787a2.415,2.415,0,0,1-1.106.435,1.44,1.44,0,0,0,.177,2.869,1.58,1.58,0,0,0,.18-.011,5.313,5.313,0,0,0,2.43-.954,1.44,1.44,0,0,0-1.681-2.339Z"/><path d="M10.08,18.24H8.16a1.44,1.44,0,1,0,0,2.88h1.92a1.44,1.44,0,0,0,0-2.88Z"/><path d="M7.6,9.493A2.4,2.4,0,0,1,7.21,8.376a1.44,1.44,0,0,0-2.869.253,5.27,5.27,0,0,0,.869,2.465A1.44,1.44,0,1,0,7.6,9.493Z"/><path d="M23.577,3.3,20.7.422A1.44,1.44,0,0,0,18.24,1.44V7.2A1.44,1.44,0,0,0,20.7,8.219l2.879-2.88a1.439,1.439,0,0,0,0-2.038Z"/></svg>