<svg id="Bold" xmlns="http://www.w3.org/2000/svg" viewBox="0 0 24 24"><title>diagram-up-then-down</title><path d="M2.905,10.626A6.356,6.356,0,0,1,9.253,4.278H22.531a1.436,1.436,0,1,0,0-2.872H9.253a9.22,9.22,0,1,0,0,18.44H18.1a.25.25,0,0,1,.25.25v1.062A1.435,1.435,0,0,0,20.8,22.173l2.746-2.745a1.439,1.439,0,0,0,.314-.472l.007-.022a1.4,1.4,0,0,0,0-1.048l-.007-.021a1.439,1.439,0,0,0-.314-.472L20.8,14.648a1.435,1.435,0,0,0-2.451,1.015v1.061a.25.25,0,0,1-.25.25H9.253A6.356,6.356,0,0,1,2.905,10.626Z"/></svg>