<svg id="Bold" xmlns="http://www.w3.org/2000/svg" viewBox="0 0 24 24"><title>diagram-arrow-dash-corner-point-left</title><path d="M.469,8.572,7.1,14.732A1,1,0,0,0,7.78,15a1.017,1.017,0,0,0,.4-.083A1,1,0,0,0,8.78,14V10.75a.25.25,0,0,1,.25-.25h8.72a.25.25,0,0,1,.25.25V14a1,1,0,0,0,1,1h4a1,1,0,0,0,1-1V6.5a2,2,0,0,0-2-2H9.03a.25.25,0,0,1-.25-.25V1A1,1,0,0,0,7.1.267L.461,6.434A1.461,1.461,0,0,0,.469,8.572Z"/><rect x="18" y="16.5" width="6" height="3" rx="1" ry="1"/><rect x="18" y="21" width="6" height="3" rx="1" ry="1"/></svg>