<svg id="Bold" xmlns="http://www.w3.org/2000/svg" viewBox="0 0 24 24"><title>diagram-dash-rise-steady</title><path d="M8.412,16.136a1.452,1.452,0,0,1-.741.585,1.44,1.44,0,1,0,.942,2.721A4.342,4.342,0,0,0,10.834,17.7a1.44,1.44,0,0,0-2.422-1.56Z"/><path d="M1.44,19.68H3.36a1.44,1.44,0,1,0,0-2.88H1.44a1.44,1.44,0,0,0,0,2.88Z"/><path d="M16.389,10.08a1.44,1.44,0,1,0,0-2.88h-1.92a1.44,1.44,0,0,0,0,2.88Z"/><path d="M11.52,12.205V11.52a1.438,1.438,0,0,1,.129-.6,1.44,1.44,0,1,0-2.619-1.2,4.285,4.285,0,0,0-.39,1.8v.685a1.44,1.44,0,0,0,2.88,0Z"/><path d="M23.577,7.621,20.7,4.742A1.44,1.44,0,0,0,18.24,5.76v5.76a1.44,1.44,0,0,0,.889,1.33,1.415,1.415,0,0,0,.551.11,1.435,1.435,0,0,0,1.018-.422l2.879-2.879a1.439,1.439,0,0,0,0-2.038Z"/></svg>