<svg id="Bold" xmlns="http://www.w3.org/2000/svg" viewBox="0 0 24 24"><title>diagram-curve-rise-dash</title><path d="M0,12a1.44,1.44,0,0,0,2.88,0v-1.92a1.44,1.44,0,0,0-2.88,0Z"/><path d="M12,12.887a1.44,1.44,0,1,0-2.88,0v1.92a1.44,1.44,0,1,0,2.88,0Z"/><path d="M19.727,13.574a1.447,1.447,0,0,0-1.489,1.39,2.392,2.392,0,0,1-.333,1.136,1.44,1.44,0,0,0,2.476,1.472,5.288,5.288,0,0,0,.735-2.509A1.439,1.439,0,0,0,19.727,13.574Z"/><path d="M8.446,7.449a2.4,2.4,0,0,1,.59,1.033,1.44,1.44,0,0,0,2.777-.763A5.3,5.3,0,0,0,10.52,5.45a1.44,1.44,0,1,0-2.074,2Z"/><path d="M12.644,19.855a5.3,5.3,0,0,0,1.756.3h.617a1.44,1.44,0,0,0,0-2.88H14.4a2.449,2.449,0,0,1-.8-.136,1.44,1.44,0,1,0-.956,2.716Z"/><path d="M5.106,6.722a1.439,1.439,0,1,0-.2-2.872,5.245,5.245,0,0,0-2.483.825A1.44,1.44,0,1,0,3.984,7.1,2.391,2.391,0,0,1,5.106,6.722Z"/><path d="M23.578,10.977,20.7,8.1a1.439,1.439,0,0,0-2.038,0l-2.879,2.879A1.44,1.44,0,0,0,16.8,13.435h5.76a1.44,1.44,0,0,0,1.018-2.458Z"/></svg>