<svg id="Bold" xmlns="http://www.w3.org/2000/svg" viewBox="0 0 24 24"><title>diet-waist-1</title><path d="M20.866,15.759a.251.251,0,0,0-.211-.039A18.73,18.73,0,0,0,12.833,19.7a.249.249,0,0,0-.083.186V23a.5.5,0,0,0,.5.5h6.391a.494.494,0,0,0,.489-.4l.709-3.591,0-.018a19.639,19.639,0,0,0,.127-3.544A.248.248,0,0,0,20.866,15.759Z"/><path d="M20.7,14.41a.246.246,0,0,0,.054-.205A11.047,11.047,0,0,0,19.19,10.15,9.785,9.785,0,0,1,17.73,3.1l.391-2a.533.533,0,0,0-.1-.42A.534.534,0,0,0,17.63.5H6.371A.534.534,0,0,0,5.98.68a.533.533,0,0,0-.1.42l.391,2a9.785,9.785,0,0,1-1.46,7.05,11.047,11.047,0,0,0-1.568,4.055.246.246,0,0,0,.054.205.249.249,0,0,0,.192.09H20.512A.249.249,0,0,0,20.7,14.41ZM12,11.25a.75.75,0,1,1,.75-.75A.756.756,0,0,1,12,11.25Z"/><path d="M3.346,15.72a.25.25,0,0,0-.314.227A19.626,19.626,0,0,0,3.16,19.49l0,.019L3.871,23.1a.5.5,0,0,0,.489.4h6.39a.5.5,0,0,0,.5-.5V19.891a.249.249,0,0,0-.083-.186A18.738,18.738,0,0,0,3.346,15.72Z"/><path d="M3.25,9a.5.5,0,0,0,.379-.175l1.5-1.75a.5.5,0,0,0,0-.65l-1.5-1.75a.492.492,0,0,0-.552-.144A.5.5,0,0,0,2.75,5v.5a.25.25,0,0,1-.25.25H1.25a1,1,0,0,0,0,2H2.5A.25.25,0,0,1,2.75,8v.5a.5.5,0,0,0,.327.469A.494.494,0,0,0,3.25,9Z"/><path d="M22.75,5.75H21.5a.25.25,0,0,1-.25-.25V5a.5.5,0,0,0-.327-.469.49.49,0,0,0-.552.144l-1.5,1.75a.5.5,0,0,0,0,.65l1.5,1.75A.5.5,0,0,0,21.25,8.5V8a.25.25,0,0,1,.25-.25h1.25a1,1,0,0,0,0-2Z"/></svg>