<svg xmlns="http://www.w3.org/2000/svg" viewBox="0 0 24 24"><title>disability-blind</title><path d="M23.4,10.833c-1.359-1.819-5.192-6.05-11.4-6.05S1.956,9.014.6,10.832a1.934,1.934,0,0,0,0,2.335A15.852,15.852,0,0,0,6.7,18.1a.99.99,0,0,0,.645.26A13,13,0,0,0,12,19.217c6.211,0,10.044-4.231,11.4-6.049A1.934,1.934,0,0,0,23.4,10.833ZM2.221,12C3.42,10.406,6.727,6.783,12,6.783a11.054,11.054,0,0,1,3.844.689l-.859.859-7,7-.792.791A13.908,13.908,0,0,1,2.221,12ZM12,17.217a11.067,11.067,0,0,1-2.733-.34l.819-.819A4.451,4.451,0,0,0,12,16.5,4.5,4.5,0,0,0,16.5,12a4.447,4.447,0,0,0-.442-1.914l1.707-1.708A14.629,14.629,0,0,1,21.8,11.97C20.623,13.547,17.307,17.217,12,17.217Z"/><path d="M12,7.5A4.5,4.5,0,0,0,7.5,12a4.444,4.444,0,0,0,.253,1.427l5.674-5.674A4.444,4.444,0,0,0,12,7.5Z"/></svg>