<svg xmlns="http://www.w3.org/2000/svg" viewBox="0 0 24 24"><title>disability-hearing-aid</title><path d="M10.454,17.743a2.939,2.939,0,0,1,1.53-2.467A7.488,7.488,0,1,0,1.777,5.1.988.988,0,0,0,3.5,6.064a5.5,5.5,0,0,1,5.326-2.8,5.608,5.608,0,0,1,5,5.521,5.527,5.527,0,0,1-2.815,4.771,4.968,4.968,0,0,0-2.54,4.155,3.266,3.266,0,0,1-6.505.156.988.988,0,1,0-1.966.2,5.219,5.219,0,0,0,3.771,4.479,5.4,5.4,0,0,0,1.442.2,5.236,5.236,0,0,0,5.23-4.89C10.449,17.838,10.453,17.755,10.454,17.743Z"/><circle cx="5.376" cy="12.696" r="2.717"/><path d="M6.684,6.972a2.377,2.377,0,0,1,1.233-.343c1.581,0,2.441,1.411,2.591,2.81a.987.987,0,0,0,.982.882,1,1,0,0,0,.107-.006.987.987,0,0,0,.876-1.088c-.291-2.693-2.163-4.574-4.556-4.574a4.348,4.348,0,0,0-2.258.631A.987.987,0,1,0,6.684,6.972Z"/><path d="M17.865,15.566a.988.988,0,0,0,1.356-.339,5.78,5.78,0,0,0,0-5.957.988.988,0,0,0-1.694,1.017,3.81,3.81,0,0,1,0,3.923A.988.988,0,0,0,17.865,15.566Z"/><path d="M21.406,17.048a.988.988,0,0,0,1.356-.339,8.653,8.653,0,0,0,0-8.921.988.988,0,0,0-1.694,1.017,6.683,6.683,0,0,1,0,6.887A.988.988,0,0,0,21.406,17.048Z"/></svg>