<svg xmlns="http://www.w3.org/2000/svg" viewBox="0 0 24 24"><title>disability-braille</title><circle cx="1.856" cy="1.794" r="1.732"/><circle cx="7.299" cy="1.794" r="1.732"/><circle cx="16.701" cy="1.794" r="1.732"/><circle cx="22.144" cy="1.794" r="1.732"/><circle cx="7.299" cy="7.237" r="1.732"/><circle cx="16.701" cy="7.237" r="1.732"/><circle cx="22.144" cy="7.237" r="1.732"/><circle cx="1.856" cy="12.68" r="1.732"/><circle cx="16.701" cy="12.68" r="1.732"/><path d="M0,23.32a.619.619,0,0,0,.619.618h.989A1.609,1.609,0,0,0,3.216,22.33v-.495a1.6,1.6,0,0,0-.349-.99,1.593,1.593,0,0,0,.349-.989v-.5a1.609,1.609,0,0,0-1.608-1.608H.619A.619.619,0,0,0,0,18.371Zm1.237-4.083a.247.247,0,0,1,.248-.247h.123a.371.371,0,0,1,.371.371v.5a.371.371,0,0,1-.371.371H1.485a.248.248,0,0,1-.248-.248Zm0,2.474a.248.248,0,0,1,.248-.247h.123a.371.371,0,0,1,.371.371v.495a.371.371,0,0,1-.371.371H1.485a.248.248,0,0,1-.248-.247Z"/><path d="M11.876,18.371V23.32a.619.619,0,0,0,1.237,0V18.371a.619.619,0,0,0-1.237,0Z"/><path d="M7.175,19.608A1.857,1.857,0,0,0,5.32,17.753H4.577a.618.618,0,0,0-.618.618V23.32a.619.619,0,0,0,1.237,0v-.173a.247.247,0,0,1,.459-.127l.371.618a.619.619,0,0,0,.532.3A.618.618,0,0,0,7.087,23L6.068,21.3A1.856,1.856,0,0,0,7.175,19.608Zm-1.855.619A.124.124,0,0,1,5.2,20.1v-.99a.123.123,0,0,1,.124-.123.619.619,0,0,1,0,1.237Z"/><path d="M15.464,23.938h.99a.619.619,0,0,0,0-1.237h-.99a.371.371,0,0,1-.371-.371V18.371a.619.619,0,0,0-1.237,0V22.33A1.609,1.609,0,0,0,15.464,23.938Z"/><path d="M18.928,23.938h.99a.619.619,0,0,0,0-1.237h-.99a.371.371,0,0,1-.371-.371V18.371a.619.619,0,0,0-1.237,0V22.33A1.609,1.609,0,0,0,18.928,23.938Z"/><path d="M10.515,23.938a.619.619,0,0,0,.619-.618V19.361a1.608,1.608,0,0,0-3.216,0V23.32a.619.619,0,0,0,1.237,0V22.206a.247.247,0,0,1,.247-.247h.247a.248.248,0,0,1,.248.247V23.32A.618.618,0,0,0,10.515,23.938ZM9.4,20.722a.247.247,0,0,1-.247-.248V19.361a.371.371,0,1,1,.742,0v1.113a.248.248,0,0,1-.248.248Z"/><path d="M22.392,18.99h.989a.619.619,0,1,0,0-1.237h-.989a1.609,1.609,0,0,0-1.608,1.608V22.33a1.609,1.609,0,0,0,1.608,1.608h.989a.619.619,0,1,0,0-1.237h-.989a.371.371,0,0,1-.371-.371v-.124a.247.247,0,0,1,.247-.247h1.113a.619.619,0,1,0,0-1.237H22.268a.247.247,0,0,1-.247-.248V19.361A.371.371,0,0,1,22.392,18.99Z"/></svg>