<svg xmlns="http://www.w3.org/2000/svg" viewBox="0 0 24 24"><title>disability-sit-pregnancy</title><circle cx="9.73" cy="3" r="2.5"/><path d="M12.98,18.745H8.564a1,1,0,0,1-.973-.77L5.954,11.017a1,1,0,0,0-1.947.457l1.636,6.959a2.992,2.992,0,0,0,2.921,2.312H12.98a1,1,0,0,0,0-2Z"/><path d="M20.013,16.918l-.143-.857a7.5,7.5,0,0,0-1.07-2.885A7.258,7.258,0,0,0,11.257,10L11.1,8.783a1.5,1.5,0,0,0-2.969.434l.766,5.247A3.512,3.512,0,0,0,12.361,17.5h2.423a.493.493,0,0,1,.5.44l.335,4.18a1.5,1.5,0,1,0,2.99-.24l-.336-4.38H19.52A.5.5,0,0,0,20.013,16.918Z"/></svg>