<svg xmlns="http://www.w3.org/2000/svg" viewBox="0 0 24 24"><title>disability-blind-read-finger</title><circle cx="4.5" cy="6.761" r="1"/><circle cx="7.75" cy="6.761" r="1"/><circle cx="14.5" cy="6.761" r="1"/><circle cx="17.5" cy="6.761" r="1"/><circle cx="17.5" cy="10.011" r="1"/><circle cx="4.5" cy="10.261" r="1"/><circle cx="7.75" cy="10.261" r="1"/><circle cx="4.5" cy="13.761" r="1"/><path d="M21.253,19.99H19.5a.5.5,0,0,1-.5-.5V15.24a1.25,1.25,0,0,0-2.5,0v6.466a.25.25,0,0,1-.454.145l-1.067-1.5a1.05,1.05,0,0,0-1.858.978l1.26,2.394a.5.5,0,0,0,.443.268H23.5a.5.5,0,0,0,.5-.5v-.6A2.887,2.887,0,0,0,21.253,19.99Z"/><path d="M19.841,2.175A.5.5,0,0,1,20,2.541V16.547a1,1,0,0,0,2,0V2.012a1.978,1.978,0,0,0-.616-1.44A2.05,2.05,0,0,0,19.9.013c-4.618.2-7.248,1.643-8.583,2.715a.5.5,0,0,1-.625,0C9.353,1.657,6.722.213,2.1.013A2.048,2.048,0,0,0,.616.572,1.978,1.978,0,0,0,0,2.012V16.547a1.983,1.983,0,0,0,1.905,2c6.276.24,8.247,2.977,8.259,2.994a1,1,0,0,0,1.385.287.979.979,0,0,0,.432-.759c0-.029.019-.043.019-.076V5.013a.5.5,0,0,1,.15-.357c.733-.717,2.839-2.31,7.316-2.614A.5.5,0,0,1,19.841,2.175ZM10,18.317a.25.25,0,0,1-.378.215,15.415,15.415,0,0,0-7.15-1.963A.5.5,0,0,1,2,16.07L2.017,2.539a.5.5,0,0,1,.535-.5c4.47.305,6.572,1.9,7.3,2.613a.5.5,0,0,1,.15.358Z"/></svg>