<svg xmlns="http://www.w3.org/2000/svg" viewBox="0 0 24 24"><title>disability-blind-read-book-2</title><path d="M13.351,7.243a.249.249,0,0,0-.131-.419,5.161,5.161,0,0,0-.991-.1A6.441,6.441,0,0,0,7.382,9.15a.5.5,0,0,0,0,.649,7.752,7.752,0,0,0,1.562,1.389.5.5,0,0,0,.636-.068Z"/><path d="M21.75,1a1,1,0,0,0-1-1H4.25a2,2,0,0,0-2,2V21a3,3,0,0,0,3,3h13.5a2,2,0,0,0,2-2V20.415a.5.5,0,0,1,.333-.472A1,1,0,0,0,21.75,19Zm-3,20.5a.5.5,0,0,1-.5.5h-13a1,1,0,0,1,0-2h13a.5.5,0,0,1,.5.5ZM18.637,8.712a1.292,1.292,0,0,1,0,1.525,8.113,8.113,0,0,1-6.408,3.488,8.121,8.121,0,0,1-6.41-3.488h0a1.294,1.294,0,0,1,0-1.526,8.124,8.124,0,0,1,6.41-3.486A8.11,8.11,0,0,1,18.637,8.712Z"/><path d="M15.511,7.76a.5.5,0,0,0-.635.068l-3.771,3.878a.25.25,0,0,0,.132.42,5.245,5.245,0,0,0,.992.1A6.432,6.432,0,0,0,17.074,9.8a.5.5,0,0,0,0-.648A7.724,7.724,0,0,0,15.511,7.76Z"/></svg>