<svg xmlns="http://www.w3.org/2000/svg" viewBox="0 0 24 24"><title>disability-q</title><path d="M11.75,3.25a8.137,8.137,0,0,0-8,8.25,8.137,8.137,0,0,0,8,8.25,7.751,7.751,0,0,0,3.784-.989.25.25,0,0,1,.28.025L17.8,20.411a1.5,1.5,0,0,0,1.9-2.322l-1.542-1.262a.249.249,0,0,1-.043-.341A8.367,8.367,0,0,0,19.75,11.5,8.137,8.137,0,0,0,11.75,3.25ZM15.8,14.544a.251.251,0,0,1-.365.052L14.2,13.589a1.5,1.5,0,1,0-1.9,2.322l.384.314a.251.251,0,0,1-.109.439,4.236,4.236,0,0,1-.825.086,5.135,5.135,0,0,1-5-5.25,5.135,5.135,0,0,1,5-5.25,5.135,5.135,0,0,1,5,5.25A5.35,5.35,0,0,1,15.8,14.544Z"/></svg>