<svg xmlns="http://www.w3.org/2000/svg" viewBox="0 0 24 24"><title>disability-blind-alternate</title><path d="M23.4,10.833c-1.359-1.819-5.192-6.05-11.4-6.05S1.956,9.014.6,10.832a1.938,1.938,0,0,0,0,2.335h0A15.862,15.862,0,0,0,6.706,18.1a.987.987,0,0,0,.64.258A12.991,12.991,0,0,0,12,19.217c6.208,0,10.043-4.231,11.4-6.05A1.937,1.937,0,0,0,23.4,10.833ZM2.221,12C3.42,10.406,6.727,6.783,12,6.783a11.044,11.044,0,0,1,3.843.689L7.194,16.121A13.929,13.929,0,0,1,2.221,12ZM12,17.217a11.075,11.075,0,0,1-2.734-.34l8.5-8.5A14.613,14.613,0,0,1,21.8,11.97C20.622,13.547,17.3,17.217,12,17.217Z"/></svg>