<svg xmlns="http://www.w3.org/2000/svg" viewBox="0 0 24 24"><title>disability-walk-blind</title><path d="M14.484,14.55a.951.951,0,0,0-.078,1.351l7.117,7.536a1,1,0,1,0,1.454-1.374l-7.118-7.536a.945.945,0,0,0-1.358.007Z"/><path d="M2.25,15.25a1.5,1.5,0,0,0,1.5-1.5v-1.3a1.5,1.5,0,0,1,.728-1.286l.893-.536a.25.25,0,0,1,.379.215v3.245a.993.993,0,0,1-.132.5l-3.67,6.424a1.5,1.5,0,1,0,2.6,1.488l2.481-4.341a.25.25,0,0,1,.434,0l2.481,4.341a1.5,1.5,0,1,0,2.6-1.488l-3.67-6.423a.994.994,0,0,1-.132-.5v-2.38a.25.25,0,0,1,.418-.185l2.573,2.339a1.5,1.5,0,0,0,2.018-2.22L8.81,7.141a2.482,2.482,0,0,0-2.969-.294L2.935,8.59A4.5,4.5,0,0,0,.75,12.448v1.3A1.5,1.5,0,0,0,2.25,15.25Z"/><circle cx="7.25" cy="2.75" r="2.5"/></svg>