<svg xmlns="http://www.w3.org/2000/svg" viewBox="0 0 24 24"><title>disability-walking-aid</title><circle cx="15" cy="2.5" r="2.5"/><path d="M17.5,6.64h-5A3.99,3.99,0,0,0,8.8,9.157.25.25,0,0,0,9.03,9.5H9.5a1.973,1.973,0,0,1,1.333.52.249.249,0,0,0,.337,0,.485.485,0,0,1,.33-.129.5.5,0,0,1,.5.5V22.75a1.25,1.25,0,0,0,2.5,0V16.5a.5.5,0,0,1,1,0v6.25a1.25,1.25,0,0,0,2.5,0V10.39a.5.5,0,0,1,1,0v3.86a1.25,1.25,0,0,0,2.5,0V10.64A4.005,4.005,0,0,0,17.5,6.64Z"/><path d="M9.5,14.258V12.5a1,1,0,0,0,0-2h-6a1,1,0,0,0,0,2v1.758a4.917,4.917,0,0,0,2,3.656V22a1,1,0,0,0,0,2h2a1,1,0,0,0,0-2V17.914A4.913,4.913,0,0,0,9.5,14.258Zm-4-1.508a.25.25,0,0,1,.25-.25h1.5a.25.25,0,0,1,.25.25v1.508a2.015,2.015,0,0,1-.586,1.414l-.237.237a.25.25,0,0,1-.354,0l-.237-.237A2.015,2.015,0,0,1,5.5,14.258Z"/></svg>