<svg xmlns="http://www.w3.org/2000/svg" viewBox="0 0 24 24"><title>disability-partially-blind</title><path d="M23.614,13.183a2,2,0,0,0,0-2.366C22.229,8.918,18.326,4.5,12,4.5a12.855,12.855,0,0,0-2.329.216.5.5,0,0,1-.532-.257L8.384,3.033a1,1,0,0,0-1.768.935l.478.9a.5.5,0,0,1-.246.694A16.158,16.158,0,0,0,.387,10.817a2,2,0,0,0,0,2.366C1.771,15.083,5.674,19.5,12,19.5a12.855,12.855,0,0,0,2.329-.216.5.5,0,0,1,.532.258l.755,1.426a1,1,0,0,0,1.768-.935l-.478-.9a.5.5,0,0,1,.246-.693A16.163,16.163,0,0,0,23.614,13.183Zm-15.5,3.609a.5.5,0,0,1-.266-.234L4.363,9.971a.5.5,0,0,1,.121-.618c.168-.139.342-.278.524-.415a.5.5,0,0,1,.744.169L9.8,16.856a.25.25,0,0,1-.278.359A11,11,0,0,1,8.116,16.792ZM2.231,12.31a.5.5,0,0,1,0-.61c.166-.216.364-.458.588-.714a.251.251,0,0,1,.409.048L5.063,14.5a.25.25,0,0,1-.377.312A15.039,15.039,0,0,1,2.231,12.31Zm9.9,5.185a.5.5,0,0,1-.446-.269L7.006,8.265a.5.5,0,0,1,.229-.683c.208-.1.422-.192.641-.28a.5.5,0,0,1,.627.231l4.867,9.192a.5.5,0,0,1-.4.732C12.674,17.484,12.4,17.494,12.127,17.5Zm9.643-5.8a.5.5,0,0,1,0,.61A13.912,13.912,0,0,1,16.124,16.7a.5.5,0,0,1-.627-.23l-.372-.7a.5.5,0,0,1,.091-.59A4.394,4.394,0,0,0,16.5,12,4.5,4.5,0,0,0,12,7.5a4.325,4.325,0,0,0-.77.074.561.561,0,0,1-.6-.29.5.5,0,0,1,.4-.74c.313-.028.634-.044.963-.044C17.1,6.5,20.4,9.916,21.77,11.7Z"/></svg>