<svg xmlns="http://www.w3.org/2000/svg" viewBox="0 0 24 24"><title>discount-square</title><path d="M15.116,7.116l-8,8a1.25,1.25,0,1,0,1.767,1.768l8-8a1.25,1.25,0,0,0-1.767-1.768Z"/><circle cx="8" cy="8.135" r="2.25"/><circle cx="16" cy="16.135" r="2.25"/><path d="M2.913,22l-.652.031A.25.25,0,0,1,2,21.781v-.694a1,1,0,0,0-2,0v.956A1.958,1.958,0,0,0,1.956,24h.957a1,1,0,1,0,0-2Z"/><path d="M23,20.087a1,1,0,0,0-1,1l.031.651a.251.251,0,0,1-.069.184.247.247,0,0,1-.181.078h-.7a1,1,0,0,0,0,2h.957A1.959,1.959,0,0,0,24,22.043v-.956A1,1,0,0,0,23,20.087Z"/><path d="M2.913,0H1.956A1.958,1.958,0,0,0,0,1.957v.956a1,1,0,0,0,2,0l-.032-.651a.251.251,0,0,1,.069-.184A.247.247,0,0,1,2.218,2h.695a1,1,0,0,0,0-2Z"/><path d="M21.086,2l.652-.031a.251.251,0,0,1,.184.069A.247.247,0,0,1,22,2.219v.694a1,1,0,1,0,2,0V1.957A1.959,1.959,0,0,0,22.043,0h-.957a1,1,0,0,0,0,2Z"/><path d="M23,5.5a1,1,0,0,0-1,1V10a1,1,0,0,0,2,0V6.5A1,1,0,0,0,23,5.5Z"/><path d="M23,13a1,1,0,0,0-1,1v3.5a1,1,0,0,0,2,0V14A1,1,0,0,0,23,13Z"/><path d="M1,11a1,1,0,0,0,1-1V6.5a1,1,0,0,0-2,0V10A1,1,0,0,0,1,11Z"/><path d="M0,17.5a1,1,0,0,0,2,0V14a1,1,0,0,0-2,0Z"/><path d="M6.5,2H10a1,1,0,0,0,0-2H6.5a1,1,0,0,0,0,2Z"/><path d="M17.5,0H14a1,1,0,0,0,0,2h3.5a1,1,0,0,0,0-2Z"/><path d="M10,22H6.5a1,1,0,0,0,0,2H10a1,1,0,0,0,0-2Z"/><path d="M17.5,22H14a1,1,0,0,0,0,2h3.5a1,1,0,0,0,0-2Z"/></svg>