<svg xmlns="http://www.w3.org/2000/svg" viewBox="0 0 24 24"><title>discount-circle-dash</title><path d="M2,11.947a1.017,1.017,0,0,0-1-.995A1,1,0,0,0,0,11.957a12.018,12.018,0,0,0,2.723,7.55,1,1,0,0,0,1.545-1.269A10.012,10.012,0,0,1,2,11.947Z"/><path d="M15.37,21.314a10.09,10.09,0,0,1-6.691.017,1,1,0,1,0-.664,1.886,12.057,12.057,0,0,0,8.029-.02,1,1,0,0,0-.674-1.883Z"/><path d="M20.471,5.876a1,1,0,0,0,.768-1.638A12.025,12.025,0,0,0,14.345.124a1,1,0,0,0-.389,1.962A10.025,10.025,0,0,1,19.7,5.514,1,1,0,0,0,20.471,5.876Z"/><path d="M9.183,1.213A1,1,0,0,0,7.9.614,12.056,12.056,0,0,0,1.707,5.722a1,1,0,0,0,1.715,1.03A10.052,10.052,0,0,1,8.585,2.494,1,1,0,0,0,9.183,1.213Z"/><path d="M23.872,10.141a1,1,0,1,0-1.978.291A10.2,10.2,0,0,1,22,11.9a10.023,10.023,0,0,1-2.236,6.3,1,1,0,1,0,1.552,1.261,12.017,12.017,0,0,0,2.556-9.319Z"/><path d="M8.884,16.779l8-8a1.25,1.25,0,0,0-1.768-1.767l-8,8a1.25,1.25,0,0,0,1.768,1.767Z"/><circle cx="8.5" cy="8.395" r="2"/><circle cx="15.5" cy="15.395" r="2"/></svg>