<svg xmlns="http://www.w3.org/2000/svg" viewBox="0 0 24 24"><title>discount-50</title><path d="M12.01,10.254a.749.749,0,0,0-.748.748V13a.748.748,0,0,0,1.5,0V11A.749.749,0,0,0,12.01,10.254Z"/><path d="M24,12a4.357,4.357,0,0,0-2.272-3.86.251.251,0,0,1-.12-.29A4.415,4.415,0,0,0,16.15,2.391a.25.25,0,0,1-.29-.12,4.415,4.415,0,0,0-7.72,0,.249.249,0,0,1-.289.119A4.416,4.416,0,0,0,2.392,7.85a.251.251,0,0,1-.12.29,4.415,4.415,0,0,0,0,7.72.251.251,0,0,1,.12.29,4.415,4.415,0,0,0,5.459,5.458.249.249,0,0,1,.289.12,4.415,4.415,0,0,0,7.72,0,.251.251,0,0,1,.29-.12,4.414,4.414,0,0,0,5.458-5.458.25.25,0,0,1,.12-.29A4.357,4.357,0,0,0,24,12Zm-8.041,3.272a.748.748,0,0,1-.589-1.207l3.491-4.489a.748.748,0,1,1,1.18.919L16.55,14.983A.745.745,0,0,1,15.959,15.272Zm0-5.611a.873.873,0,1,1-.873.873A.873.873,0,0,1,15.96,9.661Zm3.491,3.491a.873.873,0,1,1-.873.873A.873.873,0,0,1,19.451,13.152Zm-5.236-.124a2.245,2.245,0,0,1-4.489,0v-2a2.245,2.245,0,0,1,4.489,0ZM7.052,11.285c.706.066,2.175.2,2.175,1.992a2,2,0,0,1-1.995,2H5.487a.748.748,0,1,1,0-1.5H7.232a.5.5,0,0,0,.5-.5c0-.394,0-.426-.817-.5-.706-.065-2.175-.2-2.175-1.992V9.537a.748.748,0,0,1,.748-.748H8.479a.748.748,0,0,1,0,1.5H6.485a.25.25,0,0,0-.25.25v.248C6.235,11.177,6.235,11.21,7.052,11.285Z"/></svg>