<svg xmlns="http://www.w3.org/2000/svg" viewBox="0 0 24 24"><title>discount-star-premium</title><path d="M12,0A12,12,0,1,0,24,12,12.014,12.014,0,0,0,12,0Zm0,20a8,8,0,1,1,8-8A8.009,8.009,0,0,1,12,20Z"/><path d="M16.366,9.5H14.027a.252.252,0,0,1-.225-.141l-1.213-2.5a.662.662,0,0,0-1.177,0L10.2,9.359a.25.25,0,0,1-.225.141H7.632A.612.612,0,0,0,7.2,10.569l2.051,2.144a.249.249,0,0,1,.049.272L8.169,15.594a.654.654,0,0,0,.931.818l2.778-1.564a.249.249,0,0,1,.245,0L14.9,16.412a.654.654,0,0,0,.931-.818L14.7,12.985a.25.25,0,0,1,.048-.272L16.8,10.569A.612.612,0,0,0,16.366,9.5Z"/></svg>