<svg id="Bold" xmlns="http://www.w3.org/2000/svg" viewBox="0 0 24 24"><title>diving-mask</title><path d="M22.625,5.771a1,1,0,0,0-1,1v8.291a4.659,4.659,0,0,1-4.5,4.688H13.608a.22.22,0,0,1-.205-.141,3.225,3.225,0,0,0-6.045-.019.252.252,0,0,1-.234.16H4.875a1,1,0,0,0,0,2H7.124a.252.252,0,0,1,.234.16,3.225,3.225,0,0,0,6.045-.019.22.22,0,0,1,.205-.141h3.517a6.684,6.684,0,0,0,6.5-6.688V6.771A1,1,0,0,0,22.625,5.771Z"/><path d="M22.625,0a1,1,0,0,0-1,1V3a1,1,0,0,0,2,0V1A1,1,0,0,0,22.625,0Z"/><path d="M9.877,12.312V10.5a.5.5,0,1,1,1,0v1.811a4.153,4.153,0,0,0,4,4.188h2.5a3.179,3.179,0,0,0,3-3.188v-1a4.855,4.855,0,0,0-5-4.812h-10a4.857,4.857,0,0,0-5,4.812v1a3.181,3.181,0,0,0,3,3.188h2.5A4.151,4.151,0,0,0,9.877,12.312ZM5.375,10a2.5,2.5,0,0,0-2.5,2.5.5.5,0,0,1-1,0A3.5,3.5,0,0,1,5.375,9a.5.5,0,0,1,0,1Z"/></svg>