<svg id="Bold" xmlns="http://www.w3.org/2000/svg" viewBox="0 0 24 24"><title>dog-poop-clean</title><path d="M2.258,22.188a2.25,2.25,0,0,0,2.25-2.25,11.515,11.515,0,0,0-1.8-4.217.563.563,0,0,0-.894,0,11.507,11.507,0,0,0-1.8,4.217A2.25,2.25,0,0,0,2.258,22.188Z"/><path d="M15.589,16.759,18,18.81a.25.25,0,0,1-.162.44h-.827a2.25,2.25,0,0,0-2.25,2.25v1.75a.75.75,0,0,0,1.5,0v-.5a.25.25,0,0,1,.25-.25h2.5a.25.25,0,0,1,.25.25v.5a.75.75,0,0,0,1.5,0V20.432a.25.25,0,0,1,.388-.208l.377.25a1.578,1.578,0,0,0,1.938-2.484l-.948-.839a1.66,1.66,0,0,0-2.349.155l-.485.623a.248.248,0,0,1-.171.1.251.251,0,0,1-.188-.058l-2.756-2.348a.723.723,0,0,0-.96,0l-.011.011A.755.755,0,0,0,15.589,16.759Z"/><circle cx="8.802" cy="2.5" r="2.5"/><path d="M1.622,14.55a4.062,4.062,0,0,0,.71-.29A4.464,4.464,0,0,0,4.8,10.25v-.11a.5.5,0,0,1,1,0V22.75a1.25,1.25,0,0,0,2.5,0V16.5a.5.5,0,0,1,1,0v6.25a1.25,1.25,0,0,0,2.5,0V10.14a.5.5,0,0,1,1,0V14a1.25,1.25,0,0,0,2.5,0V10.39a4.005,4.005,0,0,0-4-4h-5a4,4,0,0,0-3.99,3.76.34.34,0,0,0-.01.1,2,2,0,0,1-1.41,1.91,1.253,1.253,0,0,0,.37,2.45A1.133,1.133,0,0,0,1.622,14.55Z"/></svg>