<svg id="Bold" xmlns="http://www.w3.org/2000/svg" viewBox="0 0 24 24"><title>dog-food</title><path d="M23.5,18.438l-1.394-5.574A1.167,1.167,0,0,0,21,12H3a1.168,1.168,0,0,0-1.106.864L.5,18.438a2.079,2.079,0,0,0,.336,1.8A2.076,2.076,0,0,0,2.5,21h19a1.988,1.988,0,0,0,2-2.562ZM17.073,16v1a1,1,0,0,1-1,1h-8a1,1,0,0,1-1-1V16a1,1,0,0,1,1-1h8A1,1,0,0,1,17.073,16Z"/><path d="M3.573,10.523h0l17-.017a.5.5,0,0,0,.5-.5A3.426,3.426,0,0,0,17.74,6.285a3.286,3.286,0,0,0-.969.144,4.934,4.934,0,0,0-9.4,0,3.334,3.334,0,0,0-.966-.144c-1.963,0-3.334,1.537-3.334,3.738a.5.5,0,0,0,.5.5Z"/></svg>