<svg id="Bold" xmlns="http://www.w3.org/2000/svg" viewBox="0 0 24 24"><title>dog-pitbull</title><path d="M22.844,4.99,22.729,4.7C22.19,3.318,21.189.747,18.22.747H14.95a1.087,1.087,0,0,0-.985.636,1.3,1.3,0,0,0-.119.369,7.263,7.263,0,0,0-3.692,0,1.3,1.3,0,0,0-.119-.369A1.087,1.087,0,0,0,9.05.747H5.78C2.811.747,1.81,3.318,1.271,4.7l-.115.29a1.933,1.933,0,0,0,.034,1.87,1.78,1.78,0,0,0,1.13.707,8.629,8.629,0,0,0-.82,3.681A8.773,8.773,0,0,0,2.913,16a4.883,4.883,0,0,0,.537,4.318,4.287,4.287,0,0,0,4.071,1.665A7.753,7.753,0,0,0,12,23.253a7.753,7.753,0,0,0,4.479-1.275,4.285,4.285,0,0,0,4.071-1.665,4.883,4.883,0,0,0,.536-4.322,8.668,8.668,0,0,0,.594-8.425,1.783,1.783,0,0,0,1.13-.707A1.932,1.932,0,0,0,22.844,4.99ZM12,18.457a7.778,7.778,0,0,0,2.01,2.507,7.805,7.805,0,0,1-4.02,0A7.778,7.778,0,0,0,12,18.457Zm5.009,1.549c-2.915,0-4.026-4.472-4.036-4.517a1,1,0,0,0-1.946,0c-.01.045-1.121,4.517-4.036,4.517-2.3,0-2.625-2.134-2.187-3.361.576-1.624,2.413-3.116,5.041-4.092a1,1,0,0,0,.651-.938c0-.406.657-.878,1.5-.878s1.5.472,1.5.878a1,1,0,0,0,.651.938c2.628.976,4.465,2.468,5.042,4.093C19.64,17.89,19.311,20.006,17.009,20.006Zm-.259-9.019A1.25,1.25,0,1,1,18,9.737,1.25,1.25,0,0,1,16.75,10.987Zm-9.5-2.5A1.25,1.25,0,1,1,6,9.737,1.25,1.25,0,0,1,7.25,8.487Z"/></svg>