<svg id="Bold" xmlns="http://www.w3.org/2000/svg" viewBox="0 0 24 24"><title>dog-house-1</title><path d="M8.192,16.348A3.812,3.812,0,0,1,12,12.541a3.736,3.736,0,0,1,1.751.441.251.251,0,0,0,.332-.094,5.572,5.572,0,0,1,2.934-2.522,1.475,1.475,0,0,1,.435-.065,1.5,1.5,0,0,1,1.5,1.5v.815a.836.836,0,0,0,.759.832l.014,0a.835.835,0,0,0,.911-.833v-.931a.25.25,0,0,1,.427-.177l1,1a1,1,0,0,0,1.414-1.414L13.384,1A1.945,1.945,0,0,0,12,.429h0A1.941,1.941,0,0,0,10.616,1L.524,11.094a1,1,0,0,0,1.414,1.414l1-1a.25.25,0,0,1,.427.176V22.57a.978.978,0,0,0,.979.978H7.214a.831.831,0,0,0,.893-.873C8.107,21.019,8.14,20.237,8.192,16.348Z"/><path d="M9.7,19.873a.25.25,0,0,0-.094.2v3.252a.25.25,0,0,0,.25.25h6.85a.252.252,0,0,0,.2-.106l.159-.227a.251.251,0,0,0-.027-.321l-4.791-4.792a.251.251,0,0,0-.333-.019Z"/><path d="M23.486,17.836c0-.333-.27-.9-.6-.9H21.676a.6.6,0,0,1-.6-.6v-.6a1.208,1.208,0,0,0-1.207-1.207H17.7a.25.25,0,0,1-.25-.25V12.183a.252.252,0,0,0-.121-.214.249.249,0,0,0-.245-.007,5.188,5.188,0,0,0-2.536,4.05l-1.055.841a.249.249,0,0,0-.021.372l4.384,4.385a.247.247,0,0,0,.2.072.252.252,0,0,0,.183-.1l.362-.514a1.2,1.2,0,0,1,.986-.511h2.089a1.81,1.81,0,0,0,1.81-1.811Z"/></svg>