<svg id="Bold" xmlns="http://www.w3.org/2000/svg" viewBox="0 0 24 24"><title>dog-collar</title><path d="M13.444,17.188V14.8a18.564,18.564,0,0,1-2.888,0v2.4A17.756,17.756,0,0,0,13.444,17.188Z"/><path d="M23.828,8.189c-1.034-2.565-6.563-3.939-11.8-3.939C6.773,4.25,1.216,5.623.174,8.186A1,1,0,0,0,0,8.75v6.072c0,3.236,6.053,4.928,12.032,4.928C17.979,19.75,24,18.058,24,14.822V8.75A.992.992,0,0,0,23.828,8.189Zm-11.8,3.561a28.282,28.282,0,0,1-5.055-.422,18.018,18.018,0,0,1,5.056-.578,22.318,22.318,0,0,1,5.277.525A27.691,27.691,0,0,1,12.032,11.75Zm-9,1.75a.75.75,0,1,1-.75.75A.75.75,0,0,1,3.033,13.5Zm3,2.5a.75.75,0,1,1,.75-.75A.75.75,0,0,1,6.033,16Zm12-1.5a.75.75,0,1,1-.75.75A.75.75,0,0,1,18.033,14.5Zm3,.5a.75.75,0,1,1,.75-.75A.75.75,0,0,1,21.033,15ZM22,9.067c0,.317-.425.723-1.222,1.122a.251.251,0,0,1-.192.013A21.653,21.653,0,0,0,12.033,8.75a18.622,18.622,0,0,0-8.257,1.6.247.247,0,0,1-.187-.007C2.534,9.871,2,9.385,2,9.067,2,8.1,5.907,6.25,12.032,6.25,18.118,6.25,22,8.1,22,9.067Zm-12,9.08a.5.5,0,0,1-.445-.5v-3.4a.5.5,0,0,1,.554-.5,17.175,17.175,0,0,0,3.779,0,.5.5,0,0,1,.555.5v3.4a.5.5,0,0,1-.45.5,20.775,20.775,0,0,1-2.076.108A17.2,17.2,0,0,1,10,18.147Z"/></svg>