<svg id="Bold" xmlns="http://www.w3.org/2000/svg" viewBox="0 0 24 24"><title>dog-carrier</title><path d="M11.519,19.218a.249.249,0,0,0,.187.085h1.029a.25.25,0,0,0,.19-.088l1.218-1.421.076-.118,2.34-5.149c.008-.02.016-.041.025-.061a.25.25,0,0,0-.229-.349H2.343a.734.734,0,0,1,0-1.468H17.708a.435.435,0,0,1,.1.012.252.252,0,0,0,.2-.041,3.728,3.728,0,0,1,1.033-.52.249.249,0,0,0,.085-.428,2.172,2.172,0,0,0-.613-.367L16.881,4.592a1.489,1.489,0,0,0-1.445-1.128H13.967a.249.249,0,0,1-.248-.226A3.517,3.517,0,0,0,10.272,0,3.515,3.515,0,0,0,6.827,3.238a.25.25,0,0,1-.248.226H4.615a1.488,1.488,0,0,0-1.439,1.1L1.54,9.306a2.233,2.233,0,0,0,0,4.155L3.176,18.2A1.488,1.488,0,0,0,4.615,19.3H8.342a.254.254,0,0,0,.189-.086,1.962,1.962,0,0,1,.749-.539A2,2,0,0,1,11.519,19.218Zm1.466-3.878a.75.75,0,0,1,1.5,0v.989a.75.75,0,0,1-1.5,0Zm-3.463,0a.75.75,0,0,1,1.5,0v.989a.75.75,0,0,1-1.5,0Zm3.463-8.9a.75.75,0,0,1,1.5,0v.989a.75.75,0,1,1-1.5,0Zm-1.963.989a.75.75,0,0,1-1.5,0V6.437a.75.75,0,1,1,1.5,0ZM10.272,2A1.491,1.491,0,0,1,11.681,3.15a.25.25,0,0,1-.242.314H9.106a.25.25,0,0,1-.241-.314A1.488,1.488,0,0,1,10.272,2ZM6.061,6.437a.75.75,0,0,1,1.5,0v.989a.75.75,0,0,1-1.5,0Zm1.5,9.892a.75.75,0,0,1-1.5,0V15.34a.75.75,0,0,1,1.5,0Z"/><path d="M22.756,12.867a1.05,1.05,0,0,1-.981-.583,1.5,1.5,0,0,0-1.369-.9,2.473,2.473,0,0,0-2.466,1.731l-.572,1.258a.251.251,0,0,0,.085.309l2.76,1.912a.252.252,0,0,0,.337-.048,1.831,1.831,0,0,1,.647-.51,2.1,2.1,0,0,1,.9-.2,1.8,1.8,0,0,0,1.781-1.822A1.135,1.135,0,0,0,22.756,12.867Z"/><path d="M20.151,18.446a2.26,2.26,0,0,1-.065-.589.251.251,0,0,0-.108-.21l-2.871-1.989a.251.251,0,0,0-.37.1l-1.159,2.55a1.911,1.911,0,0,1-.287.45l-1.8,2.1a1.7,1.7,0,0,0-.323.593.5.5,0,0,1-.355.331,1.6,1.6,0,0,1-1.858-.951l-.232-.579a.75.75,0,0,0-1.393.558l.233.579a3.1,3.1,0,0,0,2.872,1.94,3.046,3.046,0,0,0,.742-.092l.051-.013a.253.253,0,0,1,.255.085,1.867,1.867,0,0,0,1.45.684h1.313a.251.251,0,0,0,.237-.169c.038-.112.127-.323.331-.834a2.889,2.889,0,0,0-.279-2.677.5.5,0,0,1,.832-.554,3.887,3.887,0,0,1,.375,3.6l-.115.293a.25.25,0,0,0,.232.343H21.9a.748.748,0,1,0,0-1.5h-.43a.5.5,0,0,1-.488-.39Z"/></svg>