<svg id="Bold" xmlns="http://www.w3.org/2000/svg" viewBox="0 0 24 24"><title>dog-poop</title><path d="M21.75,15.989a2.5,2.5,0,0,0-2.5-2.5H17.8c2.432-4.2-.209-6.7-3.033-6.975a.5.5,0,0,0-.543.427c-.551,3.918-8.47.5-8.47,4.461a2.087,2.087,0,0,0,2.087,2.087H5.25a2.5,2.5,0,0,0,0,5,2.5,2.5,0,0,0,0,5h14a2.5,2.5,0,0,0,0-5A2.5,2.5,0,0,0,21.75,15.989Z"/><path d="M4.75,6.011a1,1,0,0,0,.707-.293l1.5-1.5A1,1,0,0,0,5.543,2.8L4.75,3.6,3.957,2.8A1,1,0,0,0,2.543,4.218l1.5,1.5A1,1,0,0,0,4.75,6.011Z"/><path d="M18.543,3.718a1,1,0,0,0,1.414,0l1.5-1.5A1,1,0,0,0,20.043.8L19.25,1.6,18.457.8a1,1,0,0,0-1.414,1.414Z"/></svg>