<svg id="Bold" xmlns="http://www.w3.org/2000/svg" viewBox="0 0 24 24"><title>dressing-hanging-rack</title><path d="M17,10a1,1,0,0,0-2,0,2.986,2.986,0,0,1-1.636,2.658A.249.249,0,0,1,13,12.436V9.291a.5.5,0,0,1,.364-.481A5.008,5.008,0,0,0,17,4a1,1,0,0,0-2,0,2.986,2.986,0,0,1-1.636,2.658A.249.249,0,0,1,13,6.436V1a1,1,0,0,0-2,0V3.436a.25.25,0,0,1-.364.222A2.986,2.986,0,0,1,9,1,1,1,0,0,0,7,1a5.008,5.008,0,0,0,3.636,4.81A.5.5,0,0,1,11,6.291V9.436a.25.25,0,0,1-.364.222A2.986,2.986,0,0,1,9,7,1,1,0,0,0,7,7a5.008,5.008,0,0,0,3.636,4.81.5.5,0,0,1,.364.481V21.5a.5.5,0,0,1-.5.5H9a1,1,0,0,0,0,2h6a1,1,0,0,0,0-2H13.5a.5.5,0,0,1-.5-.5V15.291a.5.5,0,0,1,.364-.481A5.008,5.008,0,0,0,17,10Z"/></svg>