<svg id="Bold" xmlns="http://www.w3.org/2000/svg" viewBox="0 0 24 24"><title>dresser-drawers-1</title><path d="M10.75,15H2.25a.5.5,0,0,0-.5.5v5a1.5,1.5,0,0,0,1.286,1.485.249.249,0,0,1,.214.247V23a1,1,0,0,0,2,0v-.75A.25.25,0,0,1,5.5,22h5.25a.5.5,0,0,0,.5-.5v-6A.5.5,0,0,0,10.75,15Zm-2,3.75a1,1,0,1,1,1-1A1,1,0,0,1,8.75,18.75Z"/><path d="M21.75,15h-8.5a.5.5,0,0,0-.5.5v6a.5.5,0,0,0,.5.5H18.5a.25.25,0,0,1,.25.25V23a1,1,0,0,0,2,0v-.768a.249.249,0,0,1,.214-.247A1.5,1.5,0,0,0,22.25,20.5v-5A.5.5,0,0,0,21.75,15Zm-6.5,3.75a1,1,0,1,1,1-1A1,1,0,0,1,15.25,18.75Z"/><rect x="1.75" y="8" width="20.5" height="5.5" rx="0.5" ry="0.5"/><path d="M20.75,0H3.25a1.5,1.5,0,0,0-1.5,1.5V6a.5.5,0,0,0,.5.5h19.5a.5.5,0,0,0,.5-.5V1.5A1.5,1.5,0,0,0,20.75,0Z"/></svg>