<svg id="Bold" xmlns="http://www.w3.org/2000/svg" viewBox="0 0 24 24"><title>dressing-mirror</title><path d="M11.25,17.5a.5.5,0,0,0-.5-.5H3.25a.5.5,0,0,0-.5.5v5A1.5,1.5,0,0,0,4.25,24h6.5a.5.5,0,0,0,.5-.5Zm-2.5,3a1,1,0,1,1,1-1A1,1,0,0,1,8.75,20.5Z"/><path d="M20.75,17h-7.5a.5.5,0,0,0-.5.5v6a.5.5,0,0,0,.5.5h6.5a1.5,1.5,0,0,0,1.5-1.5v-5A.5.5,0,0,0,20.75,17Zm-5.5,3.5a1,1,0,1,1,1-1A1,1,0,0,1,15.25,20.5Z"/><path d="M22.75,14.5a1,1,0,0,0-1-1H20.5a.25.25,0,0,1-.25-.25v-5a8.25,8.25,0,0,0-16.5,0v5a.25.25,0,0,1-.25.25H2.25a1,1,0,0,0,0,2h19.5A1,1,0,0,0,22.75,14.5Zm-17-6.25a6.25,6.25,0,0,1,12.5,0v5a.25.25,0,0,1-.25.25H6a.25.25,0,0,1-.25-.25Z"/></svg>