<svg id="Bold" xmlns="http://www.w3.org/2000/svg" viewBox="0 0 24 24"><title>dresser-wardrobe</title><path d="M10.75,0H3.25a1.5,1.5,0,0,0-1.5,1.5v19a1.5,1.5,0,0,0,1.286,1.485.249.249,0,0,1,.214.247V23a1,1,0,0,0,2,0v-.75A.25.25,0,0,1,5.5,22h5.25a.5.5,0,0,0,.5-.5V.5A.5.5,0,0,0,10.75,0Zm-2,11.75a1,1,0,1,1,1-1A1,1,0,0,1,8.75,11.75Z"/><path d="M22.25,1.5A1.5,1.5,0,0,0,20.75,0h-7.5a.5.5,0,0,0-.5.5v21a.5.5,0,0,0,.5.5H18.5a.25.25,0,0,1,.25.25V23a1,1,0,0,0,2,0v-.768a.249.249,0,0,1,.214-.247A1.5,1.5,0,0,0,22.25,20.5Zm-7,10.25a1,1,0,1,1,1-1A1,1,0,0,1,15.25,11.75Z"/></svg>