<svg id="Bold" xmlns="http://www.w3.org/2000/svg" viewBox="0 0 24 24"><title>dresser-drawers-2</title><path d="M10.75,14H.75a.5.5,0,0,0-.5.5v8A1.5,1.5,0,0,0,1.75,24h9a.5.5,0,0,0,.5-.5v-9A.5.5,0,0,0,10.75,14ZM9.5,19.5a.75.75,0,0,1-1.5,0v-2a.75.75,0,0,1,1.5,0Z"/><path d="M23.25,14h-10a.5.5,0,0,0-.5.5v9a.5.5,0,0,0,.5.5h9a1.5,1.5,0,0,0,1.5-1.5v-8A.5.5,0,0,0,23.25,14ZM16,19.5a.75.75,0,0,1-1.5,0v-2a.75.75,0,0,1,1.5,0Z"/><rect x="0.25" y="7" width="23.5" height="5.5" rx="0.5" ry="0.5"/><path d="M22.25,0H1.75A1.5,1.5,0,0,0,.25,1.5V5a.5.5,0,0,0,.5.5h22.5a.5.5,0,0,0,.5-.5V1.5A1.5,1.5,0,0,0,22.25,0Z"/></svg>