<svg xmlns="http://www.w3.org/2000/svg" viewBox="0 0 24 24"><title>drone</title><path d="M21.88,8.348a.5.5,0,0,0-.49-.6H18.61a.5.5,0,0,0-.49.6l.09.616a.252.252,0,0,1-.248.286H14.9a.25.25,0,0,1-.242-.188,2.749,2.749,0,0,0-5.324,0A.25.25,0,0,1,9.1,9.25H6.038a.252.252,0,0,1-.248-.286l.09-.616a.5.5,0,0,0-.49-.6H2.61a.5.5,0,0,0-.49.6l.719,4.915a1.176,1.176,0,0,0,2.322,0l.065-.447a.251.251,0,0,1,.437-.128,7.869,7.869,0,0,0,4.629,2.418.25.25,0,0,1,.208.246V16a.25.25,0,0,1-.25.25H9a3,3,0,0,0-3,3v1.5a1,1,0,0,0,2,0v-1.5a1,1,0,0,1,1-1h1.268a.249.249,0,0,1,.247.214,1.5,1.5,0,0,0,2.97,0,.249.249,0,0,1,.247-.214H15a1,1,0,0,1,1,1v1.5a1,1,0,0,0,2,0v-1.5a3,3,0,0,0-3-3H13.75A.25.25,0,0,1,13.5,16v-.648a.25.25,0,0,1,.208-.246,7.869,7.869,0,0,0,4.629-2.418.251.251,0,0,1,.437.128l.065.447a1.176,1.176,0,0,0,2.322,0ZM12,11a1.25,1.25,0,1,1,1.25-1.25A1.252,1.252,0,0,1,12,11Z"/><path d="M23,4.25H21.25A.25.25,0,0,1,21,4V3.25a1,1,0,0,0-2,0V4a.25.25,0,0,1-.25.25H17a1,1,0,0,0,0,2h6a1,1,0,0,0,0-2Z"/><path d="M8,5.25a1,1,0,0,0-1-1H5.25A.25.25,0,0,1,5,4V3.25a1,1,0,0,0-2,0V4a.25.25,0,0,1-.25.25H1a1,1,0,0,0,0,2H7A1,1,0,0,0,8,5.25Z"/></svg>