<svg xmlns="http://www.w3.org/2000/svg" viewBox="0 0 24 24"><title>drone-camera</title><path d="M6,3.25a1,1,0,0,0,0-2H1a1,1,0,0,0,0,2Z"/><path d="M3.5,3.75a1,1,0,0,0-1,1v.065A1.75,1.75,0,0,0,1.75,6.25.75.75,0,0,0,2.5,7h2a.75.75,0,0,0,.75-.75A1.75,1.75,0,0,0,4.5,4.815V4.75A1,1,0,0,0,3.5,3.75Z"/><path d="M23,1.25H18a1,1,0,0,0,0,2h5a1,1,0,0,0,0-2Z"/><path d="M20.5,3.75a1,1,0,0,0-1,1v.065a1.75,1.75,0,0,0-.75,1.435A.75.75,0,0,0,19.5,7h2a.75.75,0,0,0,.75-.75,1.75,1.75,0,0,0-.75-1.435V4.75A1,1,0,0,0,20.5,3.75Z"/><path d="M21.565,8.25H18.217c-2.511,0-3.407-2-6.217-2s-3.707,2-6.218,2H2.435a1.5,1.5,0,0,0,0,3S4.913,11.227,6,11.236a.5.5,0,0,1,.5.5v1.379a.248.248,0,0,1-.095.2A7.866,7.866,0,0,0,3.5,19.75a2,2,0,0,0,2,2H6a1,1,0,0,0,0-2H5.982a.47.47,0,0,1-.468-.5,5.913,5.913,0,0,1,1.414-3.7.25.25,0,0,1,.369-.007,2.056,2.056,0,0,0,1.453.7h.7a.25.25,0,0,1,.17.433,3.5,3.5,0,1,0,4.754,0,.248.248,0,0,1-.063-.274.251.251,0,0,1,.233-.159H15.2a2.183,2.183,0,0,0,1.489-.721.245.245,0,0,1,.184-.075.254.254,0,0,1,.181.083,5.9,5.9,0,0,1,1.432,3.717.47.47,0,0,1-.468.5H18a1,1,0,0,0,0,2h.5a2,2,0,0,0,2-2A7.87,7.87,0,0,0,17.6,13.31a.248.248,0,0,1-.095-.2V11.736a.5.5,0,0,1,.5-.5c1.091-.009,3.569.014,3.569.014a1.5,1.5,0,0,0,0-3ZM12,20.75a1.5,1.5,0,1,1,1.5-1.5A1.5,1.5,0,0,1,12,20.75Zm3.5-7a.5.5,0,0,1-.5.5H9a.5.5,0,0,1-.5-.5V12.52a.25.25,0,0,1,.372-.218A5.968,5.968,0,0,0,12,13.25a5.971,5.971,0,0,0,3.128-.948.249.249,0,0,1,.248,0,.247.247,0,0,1,.124.215Z"/></svg>