<svg xmlns="http://www.w3.org/2000/svg" viewBox="0 0 24 24"><title>drone-picture</title><path d="M18.875,10.375h-5a.75.75,0,0,0,0,1.5h5a.75.75,0,0,0,0-1.5Z"/><path d="M5.875,11.875a.75.75,0,0,0,0-1.5h-5a.75.75,0,0,0,0,1.5Z"/><path d="M19.375,16.125a1.5,1.5,0,0,0-1.5-1.5h-.5a.25.25,0,0,1-.25-.25v-.75a.75.75,0,0,0-1.5,0v.75a.25.25,0,0,1-.25.25h-1a2.561,2.561,0,0,1-1.9-.845,3.5,3.5,0,0,0-5.2,0,2.565,2.565,0,0,1-1.9.845h-1a.25.25,0,0,1-.25-.25v-.75a.75.75,0,0,0-1.5,0v.75a.25.25,0,0,1-.25.25h-.5a1.5,1.5,0,0,0,0,3h3.5a2.557,2.557,0,0,1,.637.081.251.251,0,0,1,.182.193.248.248,0,0,1-.094.248,6.243,6.243,0,0,0-2.475,4.978.75.75,0,0,0,1.5,0,4.753,4.753,0,0,1,2.459-4.16.249.249,0,0,1,.266.015c.027.019.054.038.082.056A.251.251,0,0,1,8,19.382a2.25,2.25,0,1,0,3.748,0,.251.251,0,0,1,.069-.346c.028-.018.055-.037.082-.056a.249.249,0,0,1,.266-.015,4.753,4.753,0,0,1,2.459,4.16.75.75,0,0,0,1.5,0,6.243,6.243,0,0,0-2.475-4.978.25.25,0,0,1,.088-.441,2.563,2.563,0,0,1,.637-.081h3.5A1.5,1.5,0,0,0,19.375,16.125Zm-9.5,5.25a.75.75,0,1,1,.75-.75A.751.751,0,0,1,9.875,21.375Z"/><path d="M22.458,1.125H21.419l-.1-.237A1.411,1.411,0,0,0,20.059.125H17.983a1.425,1.425,0,0,0-1.284.8l-.079.2H13.292a1.4,1.4,0,0,0-1.417,1.389V7.736a1.4,1.4,0,0,0,1.417,1.389h9.166a1.4,1.4,0,0,0,1.417-1.389V2.514A1.4,1.4,0,0,0,22.458,1.125Zm-3.583,2a2,2,0,1,1-2,2A2,2,0,0,1,18.875,3.125Z"/></svg>