<svg xmlns="http://www.w3.org/2000/svg" viewBox="0 0 24 24"><title>drone-height</title><path d="M3.25,12.75a.75.75,0,0,0,0-1.5h-2a.75.75,0,0,0,0,1.5h.07a.181.181,0,0,1,.18.18v9.14a.181.181,0,0,1-.18.18H1.25a.75.75,0,0,0,0,1.5h2a.75.75,0,0,0,0-1.5H3.18A.181.181,0,0,1,3,22.07V12.93a.181.181,0,0,1,.18-.18Z"/><path d="M7.25,16.5a.5.5,0,0,0,0-1h-2a.5.5,0,0,0-.5.5v1.5a1,1,0,0,0,1,1h.5a.5.5,0,0,1,0,1h-1a.5.5,0,0,0,0,1h1a1.5,1.5,0,0,0,0-3H6a.25.25,0,0,1-.25-.25v-.5A.25.25,0,0,1,6,16.5Z"/><path d="M10.25,15.5A1.5,1.5,0,0,0,8.75,17v2a1.5,1.5,0,0,0,3,0V17A1.5,1.5,0,0,0,10.25,15.5Zm.5,3.5a.5.5,0,0,1-1,0V17a.5.5,0,0,1,1,0Z"/><path d="M22.75.25h-5a.75.75,0,0,0,0,1.5h5a.75.75,0,0,0,0-1.5Z"/><path d="M9.75,1.75a.75.75,0,0,0,0-1.5h-5a.75.75,0,0,0,0,1.5Z"/><path d="M21.75,4.5h-.5A.25.25,0,0,1,21,4.25V3a.75.75,0,0,0-1.5,0V4.25a.25.25,0,0,1-.25.25h-1a2.561,2.561,0,0,1-1.9-.845,3.5,3.5,0,0,0-5.2,0,2.565,2.565,0,0,1-1.9.845h-1A.25.25,0,0,1,8,4.25V3A.75.75,0,0,0,6.5,3V4.25a.25.25,0,0,1-.25.25h-.5a1.5,1.5,0,0,0,0,3h3.5a2.581,2.581,0,0,1,.784.123.181.181,0,0,1,.05.318A6.245,6.245,0,0,0,7.5,13,.75.75,0,0,0,9,13a4.754,4.754,0,0,1,2.5-4.182.18.18,0,0,1,.192.013c.055.04.113.079.171.117a.178.178,0,0,1,.079.117.176.176,0,0,1-.03.139,2.25,2.25,0,1,0,3.676,0,.176.176,0,0,1-.03-.139.178.178,0,0,1,.079-.117c.058-.038.116-.077.171-.117A.18.18,0,0,1,16,8.818,4.754,4.754,0,0,1,18.5,13,.75.75,0,0,0,20,13a6.245,6.245,0,0,0-2.584-5.059.181.181,0,0,1,.05-.318A2.581,2.581,0,0,1,18.25,7.5h3.5a1.5,1.5,0,0,0,0-3Zm-8,6.75a.75.75,0,1,1,.75-.75A.751.751,0,0,1,13.75,11.25Z"/></svg>