<svg xmlns="http://www.w3.org/2000/svg" viewBox="0 0 24 24"><title>drone-video</title><path d="M23.625,1.625a.5.5,0,0,0-.657-.475h0l-1.049.35a.251.251,0,0,1-.2-.021.248.248,0,0,1-.12-.165A1.5,1.5,0,0,0,20.125.125h-4a1.5,1.5,0,0,0-1.5,1.5v4a1.5,1.5,0,0,0,1.5,1.5h4a1.5,1.5,0,0,0,1.468-1.19.248.248,0,0,1,.12-.165.251.251,0,0,1,.2-.021l1.05.35a.5.5,0,0,0,.658-.474Z"/><path d="M19.875,11.125a.75.75,0,0,0-.75-.75h-5a.75.75,0,0,0,0,1.5h5A.75.75,0,0,0,19.875,11.125Z"/><path d="M6.125,11.875a.75.75,0,0,0,0-1.5h-5a.75.75,0,0,0,0,1.5Z"/><path d="M18.125,14.625h-.5a.25.25,0,0,1-.25-.25v-.75a.75.75,0,0,0-1.5,0v.75a.25.25,0,0,1-.25.25h-1a2.561,2.561,0,0,1-1.9-.845,3.5,3.5,0,0,0-5.2,0,2.565,2.565,0,0,1-1.9.845h-1a.25.25,0,0,1-.25-.25v-.75a.75.75,0,0,0-1.5,0v.75a.25.25,0,0,1-.25.25h-.5a1.5,1.5,0,0,0,0,3h3.5a2.557,2.557,0,0,1,.637.081.251.251,0,0,1,.182.193.248.248,0,0,1-.094.248,6.243,6.243,0,0,0-2.475,4.978.75.75,0,0,0,1.5,0,4.753,4.753,0,0,1,2.459-4.16.249.249,0,0,1,.266.015c.027.019.054.038.082.056a.251.251,0,0,1,.069.346,2.25,2.25,0,1,0,3.748,0,.251.251,0,0,1,.069-.346c.028-.018.055-.037.082-.056a.249.249,0,0,1,.266-.015,4.753,4.753,0,0,1,2.459,4.16.75.75,0,0,0,1.5,0A6.243,6.243,0,0,0,13.9,18.147a.25.25,0,0,1,.089-.441,2.549,2.549,0,0,1,.636-.081h3.5a1.5,1.5,0,0,0,0-3Zm-8,6.75a.75.75,0,1,1,.75-.75A.751.751,0,0,1,10.125,21.375Z"/></svg>