<svg id="Bold" xmlns="http://www.w3.org/2000/svg" viewBox="0 0 24 24"><title>duck-bill-platypus</title><path d="M18.707,8.213a1,1,0,0,0,0-1.414c-1.646-1.646-2.991-1.421-3.474-1.259L14.7,4.787a1.993,1.993,0,0,1,1.884-.758,2,2,0,0,0,2.106-.967,1.94,1.94,0,0,0,.081-1.7C18.423.535,17.609.006,15.79.006A6.5,6.5,0,0,0,9.528,4.779a4.823,4.823,0,0,0-.765.76c-.487-.162-1.83-.382-3.47,1.26A1,1,0,1,0,6.707,8.213a2.834,2.834,0,0,1,1.046-.729,5.615,5.615,0,0,0-.245,1.829,2.6,2.6,0,0,0-1.494.878,3.192,3.192,0,0,0-.494,2.761,1,1,0,1,0,1.96-.392,1.473,1.473,0,0,1,.075-1.093.56.56,0,0,1,.311-.182,5.46,5.46,0,0,0,.8,1.482A4.462,4.462,0,0,0,7.5,15.756a4.508,4.508,0,0,0,1.52,3.358.952.952,0,0,0-.02.142v2.738a2,2,0,0,0,2,2h2a2,2,0,0,0,2-2V19.256a.957.957,0,0,0-.02-.141,4.508,4.508,0,0,0,1.52-3.359,4.459,4.459,0,0,0-1.161-2.988,5.5,5.5,0,0,0,.8-1.484.572.572,0,0,1,.31.183,1.473,1.473,0,0,1,.075,1.093,1,1,0,1,0,1.96.392,3.192,3.192,0,0,0-.494-2.761,2.6,2.6,0,0,0-1.494-.878,5.635,5.635,0,0,0-.245-1.831,2.866,2.866,0,0,1,1.046.731A1,1,0,0,0,18.707,8.213ZM12.862,19.805a.249.249,0,0,1,.138.223l0,1.716a.255.255,0,0,1-.073.177.251.251,0,0,1-.177.073h-1.5a.25.25,0,0,1-.25-.25V20.029a.251.251,0,0,1,.138-.224l.75-.375a.252.252,0,0,1,.224,0Zm-2.612-4.3a1,1,0,1,1-1,1A1,1,0,0,1,10.25,15.506Zm3.5,2a1,1,0,1,1,1-1A1,1,0,0,1,13.75,17.506Z"/></svg>