<svg id="Bold" xmlns="http://www.w3.org/2000/svg" viewBox="0 0 24 24"><title>duck-2</title><path d="M11.927,21.117a.5.5,0,0,0-.478-.355H2.911a.5.5,0,0,0-.476.648c.21.665.421,1.307.626,1.913A1,1,0,0,0,4.005,24h7.47a1,1,0,0,0,.947-1.308Q12.149,21.862,11.927,21.117Z"/><path d="M23.247,17.424c-2.4-3.2-3.946-6.254-3.946-7.79C19.3,8.054,17.942,0,9.665,0A9.646,9.646,0,0,0,.03,9.634,37.428,37.428,0,0,0,1.684,18.9a.5.5,0,0,0,.479.363H10.78a.5.5,0,0,0,.485-.612c-.942-4.02-.521-5.567,0-5.826.419-.209,1.7.63,2.1.938,1.535,1.17,5.247,6.768,5.305,6.845a3.015,3.015,0,0,0,4.261.876C24.745,20.125,23.735,18.074,23.247,17.424ZM14.323,9.6a1.246,1.246,0,1,1,1.246-1.246A1.245,1.245,0,0,1,14.323,9.6ZM21.729,19.9c-.341.254-.939.217-1.455-.458-.351-.529-2.341-3.506-4.063-5.564A4.454,4.454,0,0,0,18.076,12.7a31.373,31.373,0,0,0,3.577,5.92C21.968,19.04,22.146,19.582,21.729,19.9Z"/></svg>