<svg id="Bold" xmlns="http://www.w3.org/2000/svg" viewBox="0 0 24 24"><title>duck-1</title><path d="M14.036,0A7.416,7.416,0,0,0,7.991,3.13,4,4,0,0,0,4.34,10.146c-.508,1.306-1.39,3.513-2.043,4.821a2.9,2.9,0,0,0,.876,3.718A3.182,3.182,0,0,0,7.4,18.121c1.21-1.21,3.2-3.007,4.548-4.214l.126.282c.815,2.189.166,3.736-.522,5.374A9.845,9.845,0,0,0,10.536,23.5a.5.5,0,0,0,.5.5h8.5a.5.5,0,0,0,.5-.5,29.761,29.761,0,0,1,1.114-8.81,21.5,21.5,0,0,0,.886-6.19C22.036,3.019,19.194,0,14.036,0ZM4.342,17.063a.913.913,0,0,1-.256-1.2c.865-1.731,2.081-4.883,2.433-5.809a1,1,0,0,0-.565-1.284A2,2,0,1,1,8.691,6.913c0,1.8,1.731,3.037,3.5,3.4v.763a.987.987,0,0,0-.23.152c-.954.838-4.2,3.712-5.976,5.483C5.425,17.268,4.811,17.4,4.342,17.063ZM14.786,7.75a1,1,0,1,1,1-1A1,1,0,0,1,14.786,7.75Z"/><path d="M7.871,10.829a.752.752,0,0,0-1.006.336l-.5,1a.75.75,0,1,0,1.342.67l.5-1A.75.75,0,0,0,7.871,10.829Z"/></svg>