<svg xmlns="http://www.w3.org/2000/svg" viewBox="0 0 24 24"><title>e-commerce-open-basket</title><path d="M23.073,18.9l-3.786-1.1a.25.25,0,0,1-.18-.24V13.5a1,1,0,0,0-2,0v6.561a.25.25,0,0,1-.456.142c-1.482-2.138-3.808-1.465-2.714.205l2.985,3.5a.25.25,0,0,0,.191.088H22.92a.249.249,0,0,0,.243-.192l.719-3.017.085-.367A1.284,1.284,0,0,0,23.073,18.9Z"/><path d="M14.749,16.75a1,1,0,0,0-1-1H8.84A.992.992,0,0,1,7.869,15L6.94,10.551a.249.249,0,0,1,.244-.3H19.75a1,1,0,0,0,0-2H17.786a.249.249,0,0,1-.229-.15L15.709,3.851a1,1,0,0,0-1.834.8L15.289,7.9a.25.25,0,0,1-.229.35H9.438a.25.25,0,0,1-.229-.35l1.413-3.252a1,1,0,1,0-1.834-.8L6.941,8.1a.249.249,0,0,1-.229.15H4.25a1,1,0,0,0,0,2h.381a.251.251,0,0,1,.245.2l1.04,4.976A2.989,2.989,0,0,0,8.84,17.75h4.909A1,1,0,0,0,14.749,16.75Z"/><path d="M9.5,11.75v2.5a.75.75,0,0,0,1.5,0v-2.5a.75.75,0,0,0-1.5,0Z"/><path d="M13.5,11.75v2.5a.75.75,0,0,0,1.5,0v-2.5a.75.75,0,0,0-1.5,0Z"/><path d="M4,6.25A2.253,2.253,0,0,1,6.25,4a.75.75,0,0,0,0-1.5A3.755,3.755,0,0,0,2.5,6.25a.75.75,0,0,0,1.5,0Z"/><path d="M6.25,1.5a.75.75,0,0,0,0-1.5A6.257,6.257,0,0,0,0,6.25a.75.75,0,0,0,1.5,0A4.756,4.756,0,0,1,6.25,1.5Z"/></svg>