<svg xmlns="http://www.w3.org/2000/svg" viewBox="0 0 24 24"><title>e-commerce-apparel</title><path d="M22.5,0H1.5A1.5,1.5,0,0,0,0,1.5v16A1.5,1.5,0,0,0,1.5,19h21A1.5,1.5,0,0,0,24,17.5V1.5A1.5,1.5,0,0,0,22.5,0ZM22,14.5a.5.5,0,0,1-.5.5H2.5a.5.5,0,0,1-.5-.5V2.5A.5.5,0,0,1,2.5,2h19a.5.5,0,0,1,.5.5Z"/><path d="M14.35,20.681a.5.5,0,0,0-.385-.181h-3.93a.5.5,0,0,0-.385.181l-2.1,2.532A.5.5,0,0,0,7.96,24h8.079a.5.5,0,0,0,.41-.787Z"/><path d="M17.175,5.136A1.5,1.5,0,0,0,15.719,4H13.5a.5.5,0,0,0-.5.5,1,1,0,0,1-2,0,.5.5,0,0,0-.5-.5H8.281A1.5,1.5,0,0,0,6.825,5.136l-.81,3.243A.5.5,0,0,0,6.5,9H7.75A.25.25,0,0,1,8,9.25V12.5a.5.5,0,0,0,.5.5h7a.5.5,0,0,0,.5-.5V9.25A.25.25,0,0,1,16.25,9H17.5a.5.5,0,0,0,.485-.621Z"/></svg>