<svg xmlns="http://www.w3.org/2000/svg" viewBox="0 0 24 24"><title>e-commerce-buy</title><path d="M6,8.5H5.5a.25.25,0,0,0-.25.25v1A.25.25,0,0,0,5.5,10H6A.75.75,0,0,0,6,8.5Z"/><path d="M6,5.5H5.5a.25.25,0,0,0-.25.25v1A.25.25,0,0,0,5.5,7H6A.75.75,0,0,0,6,5.5Z"/><path d="M14,12.756a1.99,1.99,0,0,1,1.416-.587H15.5a1.988,1.988,0,0,1,.762.151l3.51,1.445a.246.246,0,0,0,.19,0A6.5,6.5,0,0,0,17.5,1.25H6.5a6.5,6.5,0,0,0,0,13h6.674a.251.251,0,0,0,.25-.231A1.994,1.994,0,0,1,14,12.756ZM15.75,4.75a.75.75,0,0,1,1.5,0v1.5a1.25,1.25,0,0,0,2.5,0V4.75a.75.75,0,0,1,1.5,0v1.5a2.753,2.753,0,0,1-1.833,2.592.25.25,0,0,0-.167.236V10.75a.75.75,0,0,1-1.5,0V9.078a.25.25,0,0,0-.167-.236A2.753,2.753,0,0,1,15.75,6.25Zm-7.5,4.5A2.253,2.253,0,0,1,6,11.5H4.5a.75.75,0,0,1-.75-.75v-6A.75.75,0,0,1,4.5,4H6A2.249,2.249,0,0,1,7.8,7.6a.249.249,0,0,0,0,.3A2.241,2.241,0,0,1,8.25,9.25Zm1.6-.047V4.7a.75.75,0,1,1,1.5,0V9.2a.75.75,0,0,0,1.5,0V4.7a.75.75,0,1,1,1.5,0V9.2a2.25,2.25,0,0,1-4.5,0Z"/><path d="M22.293,22.457a1,1,0,0,0,1.414-1.414l-2.956-2.956a.249.249,0,0,1-.069-.224.252.252,0,0,1,.147-.183l1.077-.461A.5.5,0,0,0,21.9,16.3l-6.29-2.59a.5.5,0,0,0-.652.652l2.59,6.29a.5.5,0,0,0,.458.31h0a.5.5,0,0,0,.46-.3l.461-1.077a.252.252,0,0,1,.183-.147.249.249,0,0,1,.224.069Z"/></svg>