<svg xmlns="http://www.w3.org/2000/svg" viewBox="0 0 24 24"><title>e-commerce-basket-monitor</title><path d="M24,3.125a2,2,0,0,0-2-2H2a2,2,0,0,0-2,2v14a2,2,0,0,0,2,2H9.534a.25.25,0,0,1,.239.323,8.425,8.425,0,0,1-.83,1.8.251.251,0,0,1-.216.123H7a.75.75,0,1,0,0,1.5H17a.75.75,0,0,0,0-1.5h-1.74a.249.249,0,0,1-.215-.123,8.4,8.4,0,0,1-.826-1.8.25.25,0,0,1,.24-.323h7.513a2.007,2.007,0,0,0,2-1.972h0C24.011,14.293,24,17.514,24,3.125Zm-21,0H21a1,1,0,0,1,1,1v9a1,1,0,0,1-1,1H3a1,1,0,0,1-1-1v-9A1,1,0,0,1,3,3.125Z"/><path d="M16.5,7.625h-.758a.249.249,0,0,1-.223-.138L14.4,5.271a.749.749,0,0,0-1.339.673l.663,1.319a.25.25,0,0,1-.223.362H10.5a.25.25,0,0,1-.213-.119.248.248,0,0,1-.011-.243l.664-1.319A.75.75,0,0,0,9.6,5.271L8.481,7.487a.25.25,0,0,1-.224.138H7.5a.5.5,0,0,0-.485.62l.859,3.484h0a1.161,1.161,0,0,0,1.2.895h5.85a1.161,1.161,0,0,0,1.2-.9h0l.86-3.482a.5.5,0,0,0-.486-.62Z"/></svg>