<svg xmlns="http://www.w3.org/2000/svg" viewBox="0 0 24 24"><title>e-commerce-monitor-keyboard-basket</title><path d="M19.5.5H4.5a1.8,1.8,0,0,0-2,2v9c0,1.178,1.028,2,2.5,2h5.75a.25.25,0,0,1,.25.25v1a.25.25,0,0,1-.25.25H7.036a1,1,0,0,0,0,2H17a1,1,0,0,0,0-2H13.25a.25.25,0,0,1-.25-.25v-1a.25.25,0,0,1,.25-.25H19c1.472,0,2.5-.822,2.5-2v-9A1.8,1.8,0,0,0,19.5.5ZM9.4,10.5a1.1,1.1,0,0,1-1.125-.908L7.512,6.107A.5.5,0,0,1,8,5.5h.258a.249.249,0,0,0,.223-.138L9.6,3.146a.75.75,0,1,1,1.34.673l-.664,1.319A.25.25,0,0,0,10.5,5.5H13.5a.25.25,0,0,0,.224-.362l-.664-1.319a.75.75,0,1,1,1.34-.673l1.116,2.216a.249.249,0,0,0,.223.138H16a.5.5,0,0,1,.488.607l-.763,3.482A1.1,1.1,0,0,1,14.6,10.5Z"/><path d="M20.224,19.33a1.491,1.491,0,0,0-1.342-.83H5.5a1.494,1.494,0,0,0-1.342.829l-1,2A1.5,1.5,0,0,0,4.5,23.5H19.882a1.506,1.506,0,0,0,1.275-.711,1.488,1.488,0,0,0,.067-1.46ZM6,21a.5.5,0,0,1,.5-.5h1a.5.5,0,0,1,0,1h-1A.5.5,0,0,1,6,21Zm3.5,0a.5.5,0,0,1,.5-.5h1a.5.5,0,0,1,0,1H10A.5.5,0,0,1,9.5,21ZM13,21a.5.5,0,0,1,.5-.5h1a.5.5,0,0,1,0,1h-1A.5.5,0,0,1,13,21Zm3.5,0a.5.5,0,0,1,.5-.5h1a.5.5,0,0,1,0,1H17A.5.5,0,0,1,16.5,21Z"/></svg>