<svg xmlns="http://www.w3.org/2000/svg" viewBox="0 0 24 24"><title>e-commerce-cart-laptop</title><path d="M16.244,4.767a.752.752,0,0,0-.961.449l-.306.841a.248.248,0,0,1-.235.165H8.988a1.242,1.242,0,0,0-1.043.562,1.225,1.225,0,0,0-.123,1.137L8.91,10.962a1.245,1.245,0,0,0,1.149.76h3.578a1.256,1.256,0,0,0,1.176-.823l1.88-5.17A.751.751,0,0,0,16.244,4.767Z"/><circle cx="9.988" cy="13.472" r="1"/><circle cx="13.488" cy="13.472" r="1"/><path d="M23.692,19.21l-1.629-2.617a.5.5,0,0,1-.075-.264V3.972a2.34,2.34,0,0,0-2.213-2.444H4.2A2.34,2.34,0,0,0,1.988,3.972v12.36a.5.5,0,0,1-.073.26L.367,19.136a1.38,1.38,0,0,0-.35,1.058c.171,1.982,1.455,2.278,2.206,2.278H21.777c.751,0,2.036-.3,2.2-2.277A1.3,1.3,0,0,0,23.692,19.21Zm-8.454.262a.75.75,0,0,1-.75.75h-5a.75.75,0,0,1,0-1.5h5A.75.75,0,0,1,15.238,19.472ZM3.988,4.528a1,1,0,0,1,1-1h14a1,1,0,0,1,1,1v9.944a1,1,0,0,1-1,1h-14a1,1,0,0,1-1-1Z"/></svg>