<svg xmlns="http://www.w3.org/2000/svg" viewBox="0 0 24 24"><title>e-commerce-basket-browser</title><path d="M9.075,17.75h5.85a1.174,1.174,0,0,0,1.2-.975h0l.859-3.917a.5.5,0,0,0-.488-.607h-.758a.249.249,0,0,1-.223-.138L14.4,9.9a.75.75,0,1,0-1.34.673l.664,1.319a.25.25,0,0,1-.224.362H10.5a.25.25,0,0,1-.224-.362l.664-1.319A.75.75,0,1,0,9.6,9.9L8.481,12.112a.249.249,0,0,1-.223.138H7.5a.5.5,0,0,0-.488.607l.859,3.919h0A1.174,1.174,0,0,0,9.075,17.75Z"/><path d="M24,5.25a3,3,0,0,0-3-3H3a3,3,0,0,0-3,3v13.5a3,3,0,0,0,3,3H21a3,3,0,0,0,3-3ZM6,4.75a1,1,0,1,1,1,1A1,1,0,0,1,6,4.75Zm3.5,0a1,1,0,1,1,1,1A1,1,0,0,1,9.5,4.75Zm-5,0a1,1,0,1,1-1-1A1,1,0,0,1,4.5,4.75Zm17.5,14a1,1,0,0,1-1,1H3a1,1,0,0,1-1-1V8.25a1,1,0,0,1,1-1H21a1,1,0,0,1,1,1Z"/></svg>