<svg xmlns="http://www.w3.org/2000/svg" viewBox="0 0 24 24"><title>e-commerce-shopping-bag</title><path d="M19.941,16.824l-.9-8.342A1.677,1.677,0,0,0,17.357,7H15.75a.25.25,0,0,1-.25-.25v-1A3.635,3.635,0,0,0,12,2,3.635,3.635,0,0,0,8.5,5.75v1A.25.25,0,0,1,8.25,7H6.643A1.677,1.677,0,0,0,4.962,8.482l-.9,8.342A10.234,10.234,0,0,0,4,17.917,2.617,2.617,0,0,0,6.643,20.5H17.357A2.617,2.617,0,0,0,20,17.917,10.234,10.234,0,0,0,19.941,16.824Zm-9.441.593a.75.75,0,0,1,0-1.5h2.033a.592.592,0,0,0,.22-1.142L10.69,13.95a2.092,2.092,0,0,1,.36-3.992.249.249,0,0,0,.2-.244v-.3a.75.75,0,0,1,1.5,0v.25a.25.25,0,0,0,.25.25h.5a.75.75,0,0,1,0,1.5H11.467a.592.592,0,0,0-.22,1.141l2.063.825a2.092,2.092,0,0,1-.36,3.992.249.249,0,0,0-.2.244v.3a.75.75,0,0,1-1.5,0v-.25a.249.249,0,0,0-.25-.25Zm0-11.667A1.641,1.641,0,0,1,12,4a1.641,1.641,0,0,1,1.5,1.75v1a.25.25,0,0,1-.25.25h-2.5a.25.25,0,0,1-.25-.25Z"/><path d="M1,4A1,1,0,0,0,2,3V2.25A.25.25,0,0,1,2.25,2H3A1,1,0,0,0,3,0H2A2,2,0,0,0,0,2V3A1,1,0,0,0,1,4Z"/><path d="M3,22H2.25A.25.25,0,0,1,2,21.75V21a1,1,0,0,0-2,0v1a2,2,0,0,0,2,2H3a1,1,0,0,0,0-2Z"/><path d="M22,0H21a1,1,0,0,0,0,2h.75a.25.25,0,0,1,.25.25V3a1,1,0,0,0,2,0V2A2,2,0,0,0,22,0Z"/><path d="M23,20a1,1,0,0,0-1,1v.75a.25.25,0,0,1-.25.25H21a1,1,0,0,0,0,2h1a2,2,0,0,0,2-2V21A1,1,0,0,0,23,20Z"/></svg>