<svg xmlns="http://www.w3.org/2000/svg" viewBox="0 0 24 24"><title>e-commerce-cart</title><path d="M13.32,15.931a2,2,0,0,1,2.611-2.611l1.986.818a.25.25,0,0,0,.318-.119,9.5,9.5,0,1,0-4.216,4.216.25.25,0,0,0,.119-.318ZM6.25,14.25a1,1,0,1,1,1,1A1,1,0,0,1,6.25,14.25Zm4,0a1,1,0,1,1,1,1A1,1,0,0,1,10.25,14.25Zm4.712-9.763-2.5,7.5a.752.752,0,0,1-.712.513h-5a.752.752,0,0,1-.712-.513l-1.5-4.5A.751.751,0,0,1,5.25,6.5h7.279a.25.25,0,0,0,.237-.171l.772-2.316a.75.75,0,0,1,1.424.474Z"/><path d="M23.457,22.043,20.5,19.087a.25.25,0,0,1,.078-.407l1.077-.461a.5.5,0,0,0-.006-.922l-6.29-2.59a.512.512,0,0,0-.191-.038.5.5,0,0,0-.462.69l2.59,6.29a.5.5,0,0,0,.459.31h0a.5.5,0,0,0,.46-.3l.461-1.077a.252.252,0,0,1,.183-.147.249.249,0,0,1,.224.069l2.956,2.956a1,1,0,0,0,1.414-1.414Z"/></svg>