<svg xmlns="http://www.w3.org/2000/svg" viewBox="0 0 24 24"><title>e-commerce-basket-laptop</title><path d="M7.843,12.355h0a1.164,1.164,0,0,0,1.2.894h5.882a1.166,1.166,0,0,0,1.205-.9h0L17,8.87a.5.5,0,0,0-.485-.62h-.783a.25.25,0,0,1-.223-.138L14.391,5.9a.75.75,0,1,0-1.34.673l.663,1.319a.249.249,0,0,1-.223.362H10.484a.249.249,0,0,1-.223-.362l.663-1.319A.75.75,0,1,0,9.584,5.9L8.469,8.112a.25.25,0,0,1-.223.138H7.464a.5.5,0,0,0-.485.62Z"/><path d="M23.633,18.414l-2.114-2.205a.248.248,0,0,1-.061-.235.917.917,0,0,0,.029-.224V4.639A2.308,2.308,0,0,0,19.276,2.25H4.725A2.309,2.309,0,0,0,2.512,4.639V15.75a.871.871,0,0,0,.03.224.25.25,0,0,1-.062.235L.365,18.415a1.371,1.371,0,0,0-.347,1.057c.169,1.982,1.455,2.278,2.206,2.278H21.777c.751,0,2.035-.3,2.206-2.279A1.373,1.373,0,0,0,23.633,18.414Zm-8.4.336a.75.75,0,0,1-.75.75h-5a.75.75,0,0,1,0-1.5h5A.75.75,0,0,1,15.237,18.75ZM4.512,4.75a.5.5,0,0,1,.5-.5h14a.5.5,0,0,1,.5.5v9.5a.5.5,0,0,1-.5.5h-14a.5.5,0,0,1-.5-.5Z"/></svg>