<svg xmlns="http://www.w3.org/2000/svg" viewBox="0 0 24 24"><title>earth-sync</title><path d="M10.343,21.573a.491.491,0,0,0-.326-.235A9.8,9.8,0,0,1,7.59,20.5V19.221a2.445,2.445,0,0,1,.875-1.878A4.4,4.4,0,0,0,9.542,15.97,7.722,7.722,0,0,1,9.96,14.7a4.349,4.349,0,0,0,.08-.731,4.415,4.415,0,0,0-4.41-4.41H2.46a9.783,9.783,0,0,1,15.068-5.88H14.205a2.7,2.7,0,0,0,0,5.39,2.52,2.52,0,0,1,1.854.835.489.489,0,0,0,.4.158q.29-.023.584-.023a7.652,7.652,0,0,1,4.022,1.127.489.489,0,0,0,.6-.071l.216-.216A1.947,1.947,0,0,1,23.27,10.3a.339.339,0,0,0,.335-.393A11.756,11.756,0,1,0,7.435,22.6l.155.078v-.021a11.751,11.751,0,0,0,3.058.785.49.49,0,0,0,.434-.8A7.589,7.589,0,0,1,10.343,21.573Z"/><path d="M23.457,11.808a.49.49,0,0,0-.534.107l-1.107,1.106a.489.489,0,0,1-.669.022,6.247,6.247,0,1,0,.779,8.607A.98.98,0,1,0,20.4,20.426a4.287,4.287,0,1,1-.709-6.05.491.491,0,0,1,.044.732l-1.175,1.174a.49.49,0,0,0,.347.837H23.27a.49.49,0,0,0,.49-.49V12.261A.491.491,0,0,0,23.457,11.808Z"/></svg>