<svg xmlns="http://www.w3.org/2000/svg" viewBox="0 0 24 24"><title>earth-remove</title><path d="M10.907,22.022a.254.254,0,0,0-.174-.106,9.974,9.974,0,0,1-3.092-.928.25.25,0,0,1-.141-.225v-1.15A2.492,2.492,0,0,1,8.393,17.7a4.492,4.492,0,0,0,1.266-1.779,7.851,7.851,0,0,1,.264-.965,4.448,4.448,0,0,0,.077-.7,4.505,4.505,0,0,0-4.5-4.5H2.584a.25.25,0,0,1-.241-.314A9.982,9.982,0,0,1,16.889,3.282a.25.25,0,0,1-.122.468H14.25a2.75,2.75,0,0,0,0,5.5,2.554,2.554,0,0,1,1.358.408.246.246,0,0,0,.187.032,7.924,7.924,0,0,1,7.764,2.6A.25.25,0,0,0,24,12.138c0-.046,0-.092,0-.138A12,12,0,1,0,7.341,23.059l.159.078v-.02A11.927,11.927,0,0,0,12,24l.137,0a.25.25,0,0,0,.156-.44A7.969,7.969,0,0,1,10.907,22.022Z"/><path d="M17.5,11A6.5,6.5,0,1,0,24,17.5,6.508,6.508,0,0,0,17.5,11Zm1.414,6.854,1.237,1.237a.75.75,0,1,1-1.06,1.06l-1.237-1.237a.5.5,0,0,0-.708,0l-1.237,1.237a.75.75,0,1,1-1.06-1.06l1.237-1.237a.5.5,0,0,0,0-.708l-1.237-1.237a.75.75,0,0,1,1.06-1.06l1.237,1.237a.5.5,0,0,0,.708,0l1.237-1.237a.75.75,0,1,1,1.06,1.06l-1.237,1.237A.5.5,0,0,0,18.914,17.854Z"/></svg>