<svg xmlns="http://www.w3.org/2000/svg" viewBox="0 0 24 24"><title>earth-pin-1</title><path d="M12,0A9.5,9.5,0,0,0,8,18.119a2.5,2.5,0,0,1,1.218,1.222l1.873,4.076a1,1,0,0,0,1.817,0l1.876-4.08A2.5,2.5,0,0,1,16,18.118,9.5,9.5,0,0,0,12,0Zm0,16A6.493,6.493,0,0,1,8.414,4.09a.5.5,0,0,1,.777.416V7.938a.814.814,0,0,1-.488.746A1.219,1.219,0,0,0,7.971,9.8v.813a1.22,1.22,0,0,0,2.3.564,1.051,1.051,0,0,1,.93-.564h2.46a.814.814,0,0,0,.814-.813l.023-1.66a.812.812,0,0,0-.813-.813H13.28a.814.814,0,0,1-.813-.814L12.484,6a1.008,1.008,0,0,1,1.008-.992A1.008,1.008,0,0,0,14.5,4a.318.318,0,0,1,.463-.283A6.5,6.5,0,0,1,12,16Z"/></svg>