<svg xmlns="http://www.w3.org/2000/svg" viewBox="0 0 24 24"><title>earth-star</title><path d="M10.862,22.417a.5.5,0,0,0-.419-.548,9.967,9.967,0,0,1-2.8-.881.25.25,0,0,1-.141-.225v-1.15A2.492,2.492,0,0,1,8.393,17.7a4.484,4.484,0,0,0,1.118-1.434,2.556,2.556,0,0,1,.435-1.523A4.423,4.423,0,0,0,10,14.25a4.505,4.505,0,0,0-4.5-4.5H2.584a.25.25,0,0,1-.241-.314A9.982,9.982,0,0,1,16.889,3.282a.25.25,0,0,1-.122.468H14.25a2.75,2.75,0,0,0,0,5.5,2.581,2.581,0,0,1,1.511.5.5.5,0,0,0,.518.042A2.7,2.7,0,0,1,17.5,9.5a2.778,2.778,0,0,1,2.491,1.526l.045.1.895,2.075a.5.5,0,0,0,.459.3h1.35a2.77,2.77,0,0,1,.593.064.5.5,0,0,0,.6-.436A10.76,10.76,0,0,0,24,12,12,12,0,1,0,7.341,23.059l.159.078v-.02a11.894,11.894,0,0,0,2.846.757.5.5,0,0,0,.558-.6A2.754,2.754,0,0,1,10.862,22.417Z"/><path d="M22.74,15H20.4a.5.5,0,0,1-.459-.3l-1.279-2.966-.013-.027a1.293,1.293,0,0,0-2.317.027L15.055,14.7a.5.5,0,0,1-.459.3H12.258a1.231,1.231,0,0,0-1.166.759,1.272,1.272,0,0,0,.32,1.4l2.059,1.834a.5.5,0,0,1,.126.573L12.446,22.21a1.255,1.255,0,0,0,.314,1.452,1.278,1.278,0,0,0,1.506.166l2.989-1.684a.5.5,0,0,1,.491,0l2.99,1.684a1.277,1.277,0,0,0,1.506-.166,1.255,1.255,0,0,0,.315-1.451l-1.151-2.649a.5.5,0,0,1,.125-.573l2.078-1.851a1.264,1.264,0,0,0,.3-1.378A1.234,1.234,0,0,0,22.74,15Z"/></svg>