<svg xmlns="http://www.w3.org/2000/svg" viewBox="0 0 24 24"><title>earth-heart</title><path d="M13.163,21.9a.5.5,0,0,0-.4-.151c-.253.021-.507.033-.765.033a9.821,9.821,0,0,1-4.456-1.071V19.419a2.468,2.468,0,0,1,.884-1.9,4.429,4.429,0,0,0,1.094-1.4,5.008,5.008,0,0,1,.485-2.14,4.453,4.453,0,0,0-4.443-4.33h-3.2A9.884,9.884,0,0,1,17.585,3.713H14.228a2.723,2.723,0,1,0,0,5.446,2.577,2.577,0,0,1,2.2,1.245c0,.006.45.751.751,1.25a.5.5,0,0,0,.676.171,4.954,4.954,0,0,1,5.523.307.314.314,0,0,0,.5-.251A11.881,11.881,0,1,0,7.387,22.831l.157.077v-.02A11.824,11.824,0,0,0,12,23.763a11.476,11.476,0,0,0,1.74-.135.495.495,0,0,0,.282-.832Z"/><path d="M23.512,14.544a3.489,3.489,0,0,0-5.59-.907l-.127.127a.5.5,0,0,1-.7,0l-.127-.127a3.491,3.491,0,0,0-4.944,4.929l5.064,5.282a.5.5,0,0,0,.714,0l5.056-5.275A3.486,3.486,0,0,0,23.512,14.544Z"/></svg>