<svg xmlns="http://www.w3.org/2000/svg" viewBox="0 0 24 24"><title>earth-search</title><path d="M12,22a9.924,9.924,0,0,1-4.36-1.012.251.251,0,0,1-.14-.225v-1.15A2.492,2.492,0,0,1,8.393,17.7a4.516,4.516,0,0,0,1.119-1.435,6.969,6.969,0,0,1,.461-2.277A4.492,4.492,0,0,0,5.5,9.75H2.584a.25.25,0,0,1-.241-.314A9.982,9.982,0,0,1,16.889,3.282a.25.25,0,0,1-.122.468H14.25a2.75,2.75,0,0,0,0,5.5,2.588,2.588,0,0,1,1.253.329,6.922,6.922,0,0,1,7.431,4.174.5.5,0,0,0,.955-.128A12,12,0,1,0,7.341,23.059l.159.078v-.02a11.919,11.919,0,0,0,6.125.772.5.5,0,0,0,.128-.955,7.047,7.047,0,0,1-1.445-.834.492.492,0,0,0-.3-.1Z"/><path d="M21.362,19.949a.5.5,0,0,1-.076-.609,5.539,5.539,0,1,0-1.946,1.946.5.5,0,0,1,.609.077l2.344,2.344a1,1,0,0,0,1.414-1.414ZM13,16.529a3.529,3.529,0,1,1,3.529,3.529A3.533,3.533,0,0,1,13,16.529Z"/></svg>