<svg id="Bold" xmlns="http://www.w3.org/2000/svg" viewBox="0 0 24 24"><title>easter-egg</title><path d="M4.583,6.858a.5.5,0,0,0,.165.754,15.826,15.826,0,0,0,5.2,1.564,16.048,16.048,0,0,0,4.882-.1.5.5,0,0,0,.357-.718C13.942,5.894,11.871,4.268,9.51,4.233H9.432A6.234,6.234,0,0,0,4.583,6.858Z"/><path d="M8.032,20.386a6.35,6.35,0,0,1-.308-.672.5.5,0,0,0-.571-.307,1.7,1.7,0,0,1-.37.04,1.765,1.765,0,0,1-.425-.052,1.747,1.747,0,0,1-1.219-1.1l-.723-1.983a.248.248,0,0,0-.172-.1.244.244,0,0,0-.218.081l-.893.985a.5.5,0,0,0-.089.533,6.443,6.443,0,0,0,5.431,4,.25.25,0,0,0,.224-.4A6.772,6.772,0,0,1,8.032,20.386Z"/><path d="M4.433,14.723A1.738,1.738,0,0,1,5.8,15.737l.747,2.045a.249.249,0,0,0,.4.1l.32-.286a7.734,7.734,0,0,1,.4-2.866,7.335,7.335,0,0,1,2.491-3.586.25.25,0,0,0-.123-.447A17.419,17.419,0,0,1,3.952,8.889a.5.5,0,0,0-.693.249,12.463,12.463,0,0,0-.942,4.627,11.893,11.893,0,0,0,.07,1.483.25.25,0,0,0,.434.14l.094-.1A1.752,1.752,0,0,1,4.433,14.723Z"/><path d="M3.108,7.264a1,1,0,0,0-.343-1.371l-1.25-.75A1,1,0,0,0,.485,6.857l1.25.75a1,1,0,0,0,1.373-.343Z"/><path d="M19.911,8.008a1,1,0,0,0,.564-.175l1.839-1.258a1,1,0,0,0-1.128-1.65l-1.84,1.257a1,1,0,0,0,.565,1.826Z"/><path d="M4.418,3.638A1,1,0,0,0,6.082,2.529l-1-1.5A1,1,0,1,0,3.418,2.138Z"/><path d="M10.75,3.5a1,1,0,0,0,1-1V1a1,1,0,0,0-2,0V2.5A1,1,0,0,0,10.75,3.5Z"/><path d="M16.254,4.868A1,1,0,0,0,17.618,4.5l1-1.75a1,1,0,1,0-1.736-.992l-1,1.75A1,1,0,0,0,16.254,4.868Z"/><path d="M20.25,10.75a1,1,0,0,0,1,1H23a1,1,0,0,0,0-2H21.25A1,1,0,0,0,20.25,10.75Z"/><path d="M17.5,11.272c-4.169-1.388-7.657.091-8.886,3.774s.675,6.961,4.844,8.351a11.494,11.494,0,0,0,3.615.6,9.323,9.323,0,0,0,2.748-.4,5.666,5.666,0,0,0,3.927-3.51,5.662,5.662,0,0,0-1.035-5.164A10.525,10.525,0,0,0,17.5,11.272Zm-7.216,4.593a1,1,0,1,1,1,1A1,1,0,0,1,10.287,15.865Zm2,4.5a1,1,0,1,1,1-1A1,1,0,0,1,12.287,20.365Zm2-5.5a1,1,0,1,1,1-1A1,1,0,0,1,14.287,14.865Zm2,7.5a1,1,0,1,1,1-1A1,1,0,0,1,16.287,22.365Zm0-4a1,1,0,1,1,1-1A1,1,0,0,1,16.287,18.365Zm2.5-2.5a1,1,0,1,1,1,1A1,1,0,0,1,18.787,15.865Zm1.5,5a1,1,0,1,1,1-1A1,1,0,0,1,20.287,20.865Z"/></svg>