<svg id="Bold" xmlns="http://www.w3.org/2000/svg" viewBox="0 0 24 24"><title>eat-vending-machine</title><path d="M23.951,1.5a1.5,1.5,0,0,0-1.5-1.5h-9.5a1.494,1.494,0,0,0-1.132.526,3.94,3.94,0,0,1-.3,5.293A.251.251,0,0,0,11.451,6v.25a.252.252,0,0,0,.119.214,4.3,4.3,0,0,1,1.362,1.291l4.334,6.164a2.969,2.969,0,0,1,.417,2.282.25.25,0,0,0,.244.3H20.7a1,1,0,0,1,1,1v3a1,1,0,0,1-1,1h-6a1,1,0,0,1-1-1V18.534a.25.25,0,0,0-.149-.229,3.008,3.008,0,0,1-1.271-1.053l-.377-.527a.25.25,0,0,0-.453.145V22.5a1.5,1.5,0,0,0,1.5,1.5h9.5a1.5,1.5,0,0,0,1.5-1.5ZM16.7,8a.5.5,0,0,1-.5.5h-2a.5.5,0,0,1-.5-.5V7a.5.5,0,0,1,.5-.5h2a.5.5,0,0,1,.5.5Zm0-4a.5.5,0,0,1-.5.5h-2a.5.5,0,0,1-.5-.5V3a.5.5,0,0,1,.5-.5h2a.5.5,0,0,1,.5.5Zm5,8a.5.5,0,0,1-.5.5h-2a.5.5,0,0,1-.5-.5V11a.5.5,0,0,1,.5-.5h2a.5.5,0,0,1,.5.5Zm0-4a.5.5,0,0,1-.5.5h-2a.5.5,0,0,1-.5-.5V7a.5.5,0,0,1,.5-.5h2a.5.5,0,0,1,.5.5Zm0-4a.5.5,0,0,1-.5.5h-2a.5.5,0,0,1-.5-.5V3a.5.5,0,0,1,.5-.5h2a.5.5,0,0,1,.5.5Z"/><path d="M1.05,14.589a1.25,1.25,0,0,0,1.474-.976l.77-3.782a.5.5,0,0,1,.49-.4.492.492,0,0,1,.1.01.5.5,0,0,1,.39.59L3.284,14.9V22.75a1.25,1.25,0,0,0,2.5,0V16.5a.5.5,0,0,1,1,0v6.25a1.25,1.25,0,1,0,2.5,0V15.5l.681-3.347a.251.251,0,0,1,.449-.1l3.1,4.34a1.511,1.511,0,0,0,.951.642,1.447,1.447,0,0,0,.295.03,1.518,1.518,0,0,0,.832-.249,1.492,1.492,0,0,0,.423-2.078l-4.31-6.129A3,3,0,0,0,9.8,7.329l-4.29-.873A4,4,0,0,0,.8,9.577l-.72,3.538A1.25,1.25,0,0,0,1.05,14.589Z"/><circle cx="8.701" cy="3" r="2.5"/><path d="M18.865,20.751h0a1.5,1.5,0,0,0-.55-2.048l-.866-.5a1.5,1.5,0,1,0-1.5,2.6l.867.5a1.5,1.5,0,0,0,2.048-.55Z"/></svg>