<svg id="Bold" xmlns="http://www.w3.org/2000/svg" viewBox="0 0 24 24"><title>ecology-plant-hand-1</title><path d="M16.646,18.25h-8.5a.5.5,0,1,1,0-1h4a.5.5,0,0,0,.5-.5,3,3,0,0,0-3-3h-6a.25.25,0,0,1-.25-.25,1,1,0,0,0-2,0V23a1,1,0,0,0,2,0,.25.25,0,0,1,.25-.25h16.5a.5.5,0,0,0,.5-.5A4.005,4.005,0,0,0,16.646,18.25Z"/><path d="M22.168,5.216a.5.5,0,0,0-.332-.276.5.5,0,0,0-.423.086,6.491,6.491,0,0,1-2.542,1.091,6.976,6.976,0,0,0-2.258.892A2.737,2.737,0,0,0,15.243,9.2a2.113,2.113,0,0,0,.376,1.189.5.5,0,0,1,.017.527c-.12.207-.232.412-.336.613a.25.25,0,0,1-.456-.029,20.2,20.2,0,0,0-1.1-2.443.5.5,0,0,1,.128-.624,2.883,2.883,0,0,0,1.068-1.59,3.792,3.792,0,0,0-1.148-3.266A6.674,6.674,0,0,0,10.307,1.71,8.865,8.865,0,0,1,6.917.118.5.5,0,0,0,6.5.009a.5.5,0,0,0-.347.258c-1.378,2.606-.73,7.352.778,9.13A4.406,4.406,0,0,0,10.05,11.25a2.377,2.377,0,0,0,.317-.022,2.327,2.327,0,0,0,1-.395.5.5,0,0,0,.162-.636A24.153,24.153,0,0,0,8.9,6.063a.5.5,0,1,1,.786-.621c1.942,2.461,4.019,6.313,4.468,9.1a.75.75,0,0,0,.687.634.515.515,0,0,0,.055,0,.75.75,0,0,0,.717-.53c.642-2.073,2.183-4.988,4.169-5.98a.5.5,0,0,1,.447.895,6.761,6.761,0,0,0-2.466,2.689.5.5,0,0,0,.233.71,2.105,2.105,0,0,0,.435.135,2.18,2.18,0,0,0,.4.037,3.44,3.44,0,0,0,2.391-1.194A7.3,7.3,0,0,0,22.168,5.216Z"/></svg>