<svg id="Bold" xmlns="http://www.w3.org/2000/svg" viewBox="0 0 24 24"><title>ecology-human-mind-flower</title><path d="M21.478,9.858c-.221-.388-.5-.883-.639-1.2a1,1,0,0,1-.082-.381C20.679,3.093,15.858,0,11.2,0A9.972,9.972,0,0,0,1.1,10.063c0,3.582,1.206,6.144,3.683,7.812A.5.5,0,0,1,5,18.291V23.5a.5.5,0,0,0,.5.5h10a.5.5,0,0,0,.5-.5V21.012a.5.5,0,0,1,.483-.5,4.445,4.445,0,0,0,3.186-.972c.734-.733.936-2.761.989-4.045a.5.5,0,0,1,.5-.48c.19,0,.385,0,.563-.011,1.078-.047,1.139-.9,1.174-1.4C22.976,12.49,22.18,11.091,21.478,9.858ZM16.07,11.1a.5.5,0,0,0-.222.685,3.223,3.223,0,0,1,.395,1.666,2.229,2.229,0,0,1-2.92,2.121,3.273,3.273,0,0,1-1.461-.885.5.5,0,0,0-.719,0,3.261,3.261,0,0,1-1.46.885,2.229,2.229,0,0,1-2.92-2.121,3.2,3.2,0,0,1,.393-1.662.5.5,0,0,0-.221-.685A2.689,2.689,0,0,1,5.321,7.991,2.3,2.3,0,0,1,6.753,6.56a3.188,3.188,0,0,1,1.7-.14A.5.5,0,0,0,9.039,6,2.684,2.684,0,0,1,11.5,3.5,2.684,2.684,0,0,1,13.967,6a.5.5,0,0,0,.583.424,3.2,3.2,0,0,1,1.7.14,2.3,2.3,0,0,1,1.433,1.431A2.669,2.669,0,0,1,16.07,11.1Z"/><path d="M14.377,9.882a.672.672,0,0,1-.446-.481,2.479,2.479,0,0,0-.112-.345.671.671,0,0,1,.078-.65A1,1,0,1,0,12.279,7.23a.674.674,0,0,1-.594.277,2.47,2.47,0,0,0-.365,0,.676.676,0,0,1-.593-.276,1,1,0,0,0-.652-.4.988.988,0,0,0-.746.18,1,1,0,0,0-.22,1.4.673.673,0,0,1,.078.65,2.479,2.479,0,0,0-.112.345.675.675,0,0,1-.447.481,1,1,0,0,0-.641,1.262,1.021,1.021,0,0,0,1.263.639.67.67,0,0,1,.639.126,2.491,2.491,0,0,0,.3.215.675.675,0,0,1,.317.573,1,1,0,0,0,2,0,.675.675,0,0,1,.319-.574,2.469,2.469,0,0,0,.3-.215.671.671,0,0,1,.638-.125,1.02,1.02,0,0,0,1.264-.64A1,1,0,0,0,14.377,9.882ZM11.5,11a1,1,0,1,1,1-1A1,1,0,0,1,11.5,11Z"/></svg>