<svg xmlns="http://www.w3.org/2000/svg" viewBox="0 0 24 24"><title>educative-toys-alphabet</title><path d="M9,11.5h6a2.752,2.752,0,0,0,2.75-2.75v-6A2.752,2.752,0,0,0,15,0H9A2.752,2.752,0,0,0,6.25,2.75v6A2.752,2.752,0,0,0,9,11.5Zm.75-7.25a2.25,2.25,0,0,1,4.5,0v4.5a.75.75,0,0,1-1.5,0V7a.5.5,0,0,0-.5-.5h-.5a.5.5,0,0,0-.5.5V8.75a.75.75,0,0,1-1.5,0Z"/><path d="M11.75,5h.5a.5.5,0,0,0,.5-.5V4.25a.75.75,0,0,0-1.5,0V4.5A.5.5,0,0,0,11.75,5Z"/><path d="M8.75,12.5h-6A2.752,2.752,0,0,0,0,15.25v6A2.752,2.752,0,0,0,2.75,24h6a2.752,2.752,0,0,0,2.75-2.75v-6A2.752,2.752,0,0,0,8.75,12.5ZM7.635,18.524A2.248,2.248,0,0,1,5.75,22H4.25a.75.75,0,0,1-.75-.75v-6a.75.75,0,0,1,.75-.75h1.5a2.248,2.248,0,0,1,1.885,3.476A.5.5,0,0,0,7.635,18.524Z"/><path d="M5.75,19H5.5a.5.5,0,0,0-.5.5V20a.5.5,0,0,0,.5.5h.25a.75.75,0,0,0,0-1.5Z"/><path d="M5.75,16H5.5a.5.5,0,0,0-.5.5V17a.5.5,0,0,0,.5.5h.25a.75.75,0,0,0,0-1.5Z"/><path d="M21.25,12.5h-6a2.752,2.752,0,0,0-2.75,2.75v6A2.752,2.752,0,0,0,15.25,24h6A2.752,2.752,0,0,0,24,21.25v-6A2.752,2.752,0,0,0,21.25,12.5Zm-2,8a.75.75,0,0,1,0,1.5,3.75,3.75,0,0,1,0-7.5.75.75,0,0,1,0,1.5,2.25,2.25,0,0,0,0,4.5Z"/></svg>