<svg xmlns="http://www.w3.org/2000/svg" viewBox="0 0 24 24"><title>educative-toys-maths</title><path d="M22.75.772H1.25A1.252,1.252,0,0,0,0,2.022v9a1.252,1.252,0,0,0,1.25,1.25h21.5A1.252,1.252,0,0,0,24,11.022v-9A1.252,1.252,0,0,0,22.75.772ZM5,9.522a3,3,0,1,1,3-3A3,3,0,0,1,5,9.522Zm9.5-.5a.5.5,0,0,1-.5.5H10.5a.5.5,0,0,1-.5-.5v-5a.5.5,0,0,1,.5-.5H14a.5.5,0,0,1,.5.5Zm6.691.5H16.809a.5.5,0,0,1-.447-.724l2.191-4.381a.5.5,0,0,1,.894,0L21.638,8.8A.5.5,0,0,1,21.191,9.522Z"/><circle cx="20.5" cy="17.522" r="3"/><path d="M14.954,19.271l-4.335-2.322a1,1,0,0,0-1.473.853l-.124,4.4a1,1,0,0,0,1.422.934L14.9,21.06a1,1,0,0,0,.051-1.789Z"/><path d="M6.991,15.411,4.5,13.906a1,1,0,0,0-1.365.366L.635,18.6a1,1,0,0,0,.356,1.362l2.491,1.5a1,1,0,0,0,.5.135,1.012,1.012,0,0,0,.261-.035.994.994,0,0,0,.608-.466l2.5-4.329a.992.992,0,0,0,.1-.759A.982.982,0,0,0,6.991,15.411Z"/></svg>