<svg xmlns="http://www.w3.org/2000/svg" viewBox="0 0 24 24"><title>electricity-tower</title><path d="M5.5,0a1,1,0,0,0-.925.619l-3.5,8.5A1,1,0,0,0,2,10.5H7.124a.25.25,0,0,1,.235.335l-4.3,11.82a1.006,1.006,0,0,0,1.544,1.138L12.1,18.1a.249.249,0,0,1,.3,0L19.9,23.8a1.007,1.007,0,0,0,1.545-1.135L17.183,10.835a.25.25,0,0,1,.235-.335H22a1,1,0,0,0,.925-1.381l-3.5-8.5A1,1,0,0,0,18.5,0Zm8.378,5.555a.249.249,0,0,1,.006-.335l.684-.73A.25.25,0,0,1,15,4.661V6.173a.25.25,0,0,1-.438.164Zm-.445,2.53a.25.25,0,0,1-.188.415h-1.86a.25.25,0,0,1-.182-.421l.962-1.026a.249.249,0,0,1,.37.007Zm-.839-4.414a.251.251,0,0,1-.371-.006L11.13,2.415A.25.25,0,0,1,11.318,2h2.265a.25.25,0,0,1,.183.421ZM9.5,4.256a.25.25,0,0,1,.438-.165l.943,1.078a.25.25,0,0,1-.006.335L9.932,6.51A.25.25,0,0,1,9.5,6.339Zm6.2,8.373a.249.249,0,0,1-.084.283L12.4,15.358a.249.249,0,0,1-.3,0L8.91,12.935a.248.248,0,0,1-.083-.284L9.5,10.624a.123.123,0,0,1,.124-.124h5.151a.249.249,0,0,1,.245.2ZM6.106,2.155A.25.25,0,0,1,6.337,2H7.25a.25.25,0,0,1,.25.25v6a.25.25,0,0,1-.25.25H3.866a.251.251,0,0,1-.231-.345Zm.672,17.477a.25.25,0,0,1-.386-.284l1.54-4.236A.25.25,0,0,1,8.318,15l2.017,1.533a.251.251,0,0,1,0,.4ZM16.2,14.981a.25.25,0,0,1,.387.114l1.536,4.269a.25.25,0,0,1-.386.283l-3.577-2.718a.251.251,0,0,1,0-.4ZM17.25,8.5A.25.25,0,0,1,17,8.25v-6A.25.25,0,0,1,17.25,2h.413a.25.25,0,0,1,.231.155l2.471,6a.251.251,0,0,1-.231.345Z"/></svg>