<svg id="Bold" xmlns="http://www.w3.org/2000/svg" viewBox="0 0 24 24"><title>elephant-head-1</title><path d="M23.905,20.5a.5.5,0,0,0-.508-.2.9.9,0,0,1-1.126-.646.5.5,0,0,0-.322-.339.5.5,0,0,0-.46.074,2.38,2.38,0,0,1-2.327.594c-.5-.252-.791-.92-.849-1.867a9.148,9.148,0,0,0,4.878-2.125,1,1,0,0,0-.687-1.722,15.508,15.508,0,0,1-4.215-.916V7.289a4.85,4.85,0,0,0-1.7-3.554A6.561,6.561,0,0,0,12.222,1.98,4.784,4.784,0,0,0,8.4,0,4.678,4.678,0,0,0,5.387,1.141h0A5.773,5.773,0,0,0,3.5,5.5,5.655,5.655,0,0,0,6.11,10.389a.75.75,0,0,1-.769,1.287A7.158,7.158,0,0,1,2,5.5a7.634,7.634,0,0,1,.476-2.663.255.255,0,0,0-.029-.23A.252.252,0,0,0,2.24,2.5H.5A.5.5,0,0,0,0,3V23.5a.5.5,0,0,0,.5.5H5a.5.5,0,0,0,.5-.5v-1a6.571,6.571,0,0,1,4.34-6.485,13.146,13.146,0,0,0,5.168,2C15.1,20.156,16.43,23,19.289,23c3.458,0,4.6-1.879,4.643-1.959A.5.5,0,0,0,23.905,20.5ZM14.289,8.039a1.25,1.25,0,1,1-1.25-1.25A1.25,1.25,0,0,1,14.289,8.039Zm-3.23,6.4a1.069,1.069,0,1,1,1.1-1.827,22.009,22.009,0,0,0,4.026,2.1,25.8,25.8,0,0,0,3.333,1.09,8.219,8.219,0,0,1-3.968.278A11.159,11.159,0,0,1,11.059,14.442Z"/></svg>