<svg id="Bold" xmlns="http://www.w3.org/2000/svg" viewBox="0 0 24 24"><title>elephant</title><path d="M21.447,8.858,19.436,7.852A4.493,4.493,0,0,0,16,6.255H14.966c-.45,1.886-1.44,4.667-5.26,3.871a.75.75,0,0,1,.3-1.469,2.821,2.821,0,0,0,2.183-.218c1.12-.747,1.421-2.989,1.64-4.117a2.483,2.483,0,0,0-.469-1.7,3.2,3.2,0,0,0-2.658-.874l-.22.006c-1.6.042-2.791.072-3.8,1.3A5.151,5.151,0,0,0,4.282,2.8,5.094,5.094,0,0,0,0,7.905v7.35a5.994,5.994,0,0,0,1.646,3.853.5.5,0,0,0,.708,0l1.5-1.5a.5.5,0,0,0,0-.7A3.9,3.9,0,0,1,3,14.255v-.323a.5.5,0,0,1,.618-.486,12.008,12.008,0,0,0,1.6.264.5.5,0,0,1,.441.4l.078.385a21.633,21.633,0,0,1,.265,5.01l0,2.251a.5.5,0,0,0,.5.5h3a.5.5,0,0,0,.5-.5v-4a.5.5,0,0,1,.5-.5H16a.5.5,0,0,1,.5.5v4a.5.5,0,0,0,.5.5h3a.5.5,0,0,0,.5-.5s0-11.09,0-11.135a2.835,2.835,0,0,1,1.413,1.563,1.9,1.9,0,0,1,.089.57v4a1,1,0,0,0,2,0v-4A4.7,4.7,0,0,0,21.447,8.858ZM2.25,8a1,1,0,1,1,1,1A1,1,0,0,1,2.25,8Z"/></svg>