<svg id="Bold" xmlns="http://www.w3.org/2000/svg" viewBox="0 0 24 24"><title>equipment-ladder</title><rect x="2.5" width="19" height="4" rx="1.5" ry="1.5"/><path d="M12.936,5.679a.5.5,0,0,0-.384-.179h-1a.5.5,0,0,0-.492.411l-.249,1.383a.25.25,0,0,1-.246.206H5.1a.25.25,0,0,1-.246-.294l.2-1.117A.5.5,0,0,0,4.562,5.5H3.548a.5.5,0,0,0-.492.412L.02,22.82a.988.988,0,0,0,.8,1.16A.554.554,0,0,0,1,24a.988.988,0,0,0,.98-.82l.443-2.474a.25.25,0,0,1,.246-.206H8.132a.25.25,0,0,1,.246.293L8.02,22.82a.988.988,0,0,0,.8,1.16A.554.554,0,0,0,9,24a.988.988,0,0,0,.98-.82L13.044,6.088A.5.5,0,0,0,12.936,5.679ZM8.827,18.294a.25.25,0,0,1-.246.206H3.119a.25.25,0,0,1-.246-.294l.54-3A.25.25,0,0,1,3.659,15H9.121a.25.25,0,0,1,.246.294Zm.99-5.5A.25.25,0,0,1,9.571,13H4.109a.25.25,0,0,1-.246-.294l.54-3A.25.25,0,0,1,4.649,9.5h5.462a.25.25,0,0,1,.246.294Z"/><path d="M20.944,5.912a.5.5,0,0,0-.492-.412H19.438a.5.5,0,0,0-.492.589l.2,1.117A.25.25,0,0,1,18.9,7.5H15a1,1,0,0,0,0,2h4.351a.25.25,0,0,1,.246.206l.54,3a.25.25,0,0,1-.246.294H13.38c-.529,0-.98.392-.98,1.18l1.62,9A.988.988,0,0,0,15,24a.554.554,0,0,0,.18-.02.988.988,0,0,0,.8-1.16l-.358-2.027a.25.25,0,0,1,.246-.293h5.463a.25.25,0,0,1,.246.206l.443,2.474A.988.988,0,0,0,23,24a.554.554,0,0,0,.18-.02.988.988,0,0,0,.8-1.16Zm.129,12.5a.251.251,0,0,1-.192.09H15.419a.25.25,0,0,1-.246-.206l-.54-3A.25.25,0,0,1,14.879,15h5.462a.25.25,0,0,1,.246.206l.54,3A.25.25,0,0,1,21.073,18.41Z"/></svg>