<svg id="Bold" xmlns="http://www.w3.org/2000/svg" viewBox="0 0 24 24"><title>equipment-safety-mask</title><path d="M17.5,0H6.5A4.505,4.505,0,0,0,2,4.5V14a10,10,0,0,0,20,0V4.5A4.505,4.505,0,0,0,17.5,0ZM19,10a3,3,0,0,1-3,3H8a3,3,0,0,1-3-3V6.5a3,3,0,0,1,3-3h8a3,3,0,0,1,3,3Z"/><path d="M16,11.75H8A1.752,1.752,0,0,1,6.25,10V6.5A1.752,1.752,0,0,1,8,4.75h8A1.752,1.752,0,0,1,17.75,6.5V10A1.752,1.752,0,0,1,16,11.75ZM8,6.25a.25.25,0,0,0-.25.25V10a.25.25,0,0,0,.25.25h8a.25.25,0,0,0,.25-.25V6.5A.25.25,0,0,0,16,6.25Z"/></svg>