<svg id="Bold" xmlns="http://www.w3.org/2000/svg" viewBox="0 0 24 24"><title>equipment-pressure-measure</title><path d="M21,2.5A2.5,2.5,0,0,0,18.5,0H5.5A2.5,2.5,0,0,0,3,2.5v19A2.5,2.5,0,0,0,5.5,24h13A2.5,2.5,0,0,0,21,21.5ZM6.5,17.5a2.992,2.992,0,0,1,2.087-2.846.125.125,0,0,1,.163.119V20.05a.25.25,0,0,1-.341.233A2.988,2.988,0,0,1,6.5,17.5Zm3.83,2.872a.067.067,0,0,1-.055-.01.063.063,0,0,1-.025-.05V14.95a.25.25,0,0,1,.341-.233,2.984,2.984,0,0,1-.261,5.655ZM17,21a1,1,0,1,1,1-1A1,1,0,0,1,17,21Zm0-4a1,1,0,1,1,1-1A1,1,0,0,1,17,17Zm1.5-6a.5.5,0,0,1-.5.5H16a.251.251,0,0,1-.236-.169A3.981,3.981,0,0,0,12.33,8.654a.254.254,0,0,1-.2-.138L9.9,4.053a1,1,0,1,0-1.79.894l1.963,3.925a.249.249,0,0,1-.1.327,3.993,3.993,0,0,0-1.737,2.132A.251.251,0,0,1,8,11.5H6a.5.5,0,0,1-.5-.5V3A.5.5,0,0,1,6,2.5H18a.5.5,0,0,1,.5.5Z"/></svg>