<svg xmlns="http://www.w3.org/2000/svg" viewBox="0 0 24 24"><title>escalator-descend-person</title><path d="M7.423,9.031v3.69a.247.247,0,0,0,.42.177l2.474-2.422a.248.248,0,0,0,.075-.177V9.031a1.485,1.485,0,1,0-2.969,0Z"/><circle cx="8.907" cy="3.588" r="2.474"/><path d="M19.025,12.99h1.759a2.969,2.969,0,1,0,0-5.938H17.146a2.967,2.967,0,0,0-2.152.923L6.261,16.524a1.475,1.475,0,0,1-1.039.424H2.969a2.97,2.97,0,0,0,0,5.939H7.1a2.988,2.988,0,0,0,2.159-.93l8.725-8.543A1.477,1.477,0,0,1,19.025,12.99Z"/><path d="M23.71,15.506a.99.99,0,0,0-1.4,0l-3.682,3.682L17.6,18.156a.742.742,0,0,0-1.267.524v3.464a.743.743,0,0,0,.742.743h3.464a.742.742,0,0,0,.525-1.267l-1.032-1.033,3.681-3.681A.989.989,0,0,0,23.71,15.506Z"/></svg>