<svg xmlns="http://www.w3.org/2000/svg" viewBox="0 0 24 24"><title>escalator-people</title><path d="M13.5,8a1.5,1.5,0,0,0-3,0v2.792a.25.25,0,0,0,.425.178l2.5-2.447a.251.251,0,0,0,.075-.179Z"/><circle cx="12" cy="2.5" r="2.5"/><path d="M7.425,14.4a.251.251,0,0,0,.075-.179V13a1.5,1.5,0,0,0-3,0v3.25a.25.25,0,0,0,.25.25h.424a.251.251,0,0,0,.175-.071Z"/><circle cx="6" cy="7.5" r="2.5"/><path d="M24,11a3,3,0,0,0-3-3H17.324a3,3,0,0,0-2.174.933L6.326,17.571A1.49,1.49,0,0,1,5.276,18H3a3,3,0,0,0,0,6H7.176a3.017,3.017,0,0,0,2.181-.939l8.817-8.632A1.49,1.49,0,0,1,19.224,14H21A3,3,0,0,0,24,11Z"/></svg>