<svg id="Bold" xmlns="http://www.w3.org/2000/svg" viewBox="0 0 24 24"><title>exotic-food-buns</title><path d="M13.658,16.4a16.4,16.4,0,0,0-2.939-.377A2,2,0,0,0,9.1,16.7l-.746.853a.5.5,0,0,1-.752,0L6.859,16.7a2.006,2.006,0,0,0-1.617-.679A16.423,16.423,0,0,0,2.3,16.4,2.818,2.818,0,0,0,.231,19.124v1.449a1.409,1.409,0,0,0,1.409,1.41H14.322a1.409,1.409,0,0,0,1.409-1.41V19.125A2.818,2.818,0,0,0,13.658,16.4Z"/><path d="M1.64,14.983H13.46a.5.5,0,0,0,.448-.722l-1.875-3.787a2.9,2.9,0,0,1-.284-.972.5.5,0,0,0-.459-.444c-.2-.016-.395-.028-.572-.037A2,2,0,0,0,9.1,9.7l-.745.852a.5.5,0,0,1-.752,0L6.859,9.7a2.005,2.005,0,0,0-1.617-.68A16.516,16.516,0,0,0,2.3,9.4,2.818,2.818,0,0,0,.231,12.124v1.449A1.409,1.409,0,0,0,1.64,14.983Z"/><path d="M1.64,7.983H11.687a.5.5,0,0,0,.434-.252,2.9,2.9,0,0,1,1.228-1.155l1.3-.642a4.284,4.284,0,0,1,.682-.268.565.565,0,0,0,.4-.541A2.818,2.818,0,0,0,13.658,2.4a16.493,16.493,0,0,0-2.939-.378A2.008,2.008,0,0,0,9.1,2.7l-.746.853a.5.5,0,0,1-.752,0L6.859,2.7a2.005,2.005,0,0,0-1.617-.68A16.516,16.516,0,0,0,2.3,2.4,2.818,2.818,0,0,0,.231,5.124V6.573A1.409,1.409,0,0,0,1.64,7.983Z"/><path d="M23.715,18.126a16.426,16.426,0,0,0-.966-2.8,2,2,0,0,0-1.327-1.147l-1.094-.291a.5.5,0,0,1-.334-.674l.433-1.046a2,2,0,0,0-.108-1.751A16.464,16.464,0,0,0,18.677,7.95,2.818,2.818,0,0,0,15.314,7.3l-1.3.643a1.41,1.41,0,0,0-.638,1.888L19,21.2a1.409,1.409,0,0,0,1.888.638l1.3-.643A2.819,2.819,0,0,0,23.715,18.126Z"/></svg>