<svg id="Bold" xmlns="http://www.w3.org/2000/svg" viewBox="0 0 24 24"><title>exotic-food-samosa-dip</title><path d="M7.593,3.873a1.065,1.065,0,0,0-1.8.074A32.331,32.331,0,0,1,.178,12.355,1.058,1.058,0,0,0,1.058,14h11.31a1.057,1.057,0,0,0,.933-.559,1.075,1.075,0,0,0-.1-1.146A34.8,34.8,0,0,1,7.593,3.873Z"/><path d="M12.63,8a25.521,25.521,0,0,1,2.8.532.5.5,0,0,0,.581-.291,3.186,3.186,0,0,1,.49-.809A3.24,3.24,0,0,1,19,6.25a.75.75,0,0,1,0,1.5,1.748,1.748,0,0,0-1.349.635,1.483,1.483,0,0,0,.145,2.042,2.22,2.22,0,0,0,.6.39.621.621,0,0,1,.368.567,1.616,1.616,0,0,0,3.232,0V9.721a3.011,3.011,0,0,0-.1-.785A26.81,26.81,0,0,1,21.072.864.969.969,0,0,0,19.488.225l-7.28,6.084a.965.965,0,0,0-.327.94A.988.988,0,0,0,12.63,8Z"/><path d="M18.75,15.5c-2.528,0-5.25.782-5.25,2.5v.45a8.064,8.064,0,0,0,.576,2.99A4.074,4.074,0,0,0,17.858,24h1.784a4.076,4.076,0,0,0,3.783-2.56A8.063,8.063,0,0,0,24,18.45V18C24,16.282,21.279,15.5,18.75,15.5Zm0,3.5c-2.4,0-3.674-.732-3.751-.989C15.076,17.732,16.347,17,18.75,17c2.373,0,3.642.714,3.748,1C22.392,18.286,21.123,19,18.75,19Z"/></svg>