<svg xmlns="http://www.w3.org/2000/svg" viewBox="0 0 24 24"><title>family-walk-park</title><circle cx="8.876" cy="2.686" r="2.5"/><circle cx="20.625" cy="13.936" r="2"/><path d="M11.5,9.305a6.276,6.276,0,0,0-6.382-1.9c-2.252.614-3.846,2.94-4.427,4.974l-.255.89a1.5,1.5,0,1,0,2.885.826c.108-.379.692-3.165,2.585-3.781a.25.25,0,0,1,.326.262l-.306,3.053L2.163,20.3a1.5,1.5,0,1,0,2.425,1.764l2.868-5.443.8.966a.5.5,0,0,1,.115.319v3.276a1.5,1.5,0,0,0,3,0V17.91a3.5,3.5,0,0,0-.811-2.24L8.93,13.709s.114-1.077.194-1.809a.25.25,0,0,1,.454-.116l1.565,2.257a1.5,1.5,0,1,0,2.465-1.709C11.479,9.263,11.586,9.406,11.5,9.305Z"/><path d="M23.611,18.772a1,1,0,0,0-1.15-.822c-.972.154-1.5-.346-2.446-1.331-1.189-1.244-2.255-2.183-4.065-2.183a1,1,0,0,0,0,2,2.594,2.594,0,0,1,1.716.685L15.685,22.6a1,1,0,1,0,1.88.68l.765-2.113.243.115a.994.994,0,0,1,.553.895v.763a1,1,0,0,0,2,0v-.763a2.994,2.994,0,0,0-1.679-2.694l-.434-.2.219-.605a4.012,4.012,0,0,0,3.557,1.254A1,1,0,0,0,23.611,18.772Z"/><path d="M16.77,9.875a1,1,0,0,0,2,0V8.188h2.4a.5.5,0,0,0,.372-.835l-2.5-3.272h.828a.5.5,0,0,0,.41-.785L18.182.279a.5.5,0,0,0-.822,0L15.267,3.3a.5.5,0,0,0,.41.785h.828L14,7.353a.5.5,0,0,0,.371.835H16.77Z"/></svg>