<svg xmlns="http://www.w3.org/2000/svg" viewBox="0 0 24 24"><title>family-grandmother</title><path d="M21.75,14.473a2.253,2.253,0,0,0-2.25,2.25v6.25a1,1,0,0,0,2,0v-6.25c0-.275.5-.275.5,0v.25a1,1,0,0,0,2,0v-.25A2.253,2.253,0,0,0,21.75,14.473Z"/><path d="M14.888,9.005a.5.5,0,0,0-.7.111L12.7,11.188a.249.249,0,0,1-.406,0l-1.48-2.072a.5.5,0,0,0-.7-.111A4,4,0,0,0,8.59,11.351L7.012,18.364a.5.5,0,0,0,.488.609H9.1a.5.5,0,0,1,.5.45l.41,4.1a.5.5,0,0,0,.5.45h4a.5.5,0,0,0,.5-.45l.411-4.1a.5.5,0,0,1,.5-.45h1.6a.5.5,0,0,0,.488-.609L16.41,11.351A4,4,0,0,0,14.888,9.005Z"/><path d="M9.02,8.611a5.781,5.781,0,0,0,.6-.879.249.249,0,0,1,.367-.081,4.249,4.249,0,0,0,5.024,0,.252.252,0,0,1,.367.081,5.854,5.854,0,0,0,.6.879A1,1,0,0,0,17.52,7.335a3.149,3.149,0,0,1-.77-1.98V4.223a4.25,4.25,0,0,0-8.5,0V5.355a3.144,3.144,0,0,1-.771,1.98A1,1,0,0,0,9.02,8.611Zm1.453-4.378a3.409,3.409,0,0,0,.909-.28,2.471,2.471,0,0,0,.916-.74.251.251,0,0,1,.4,0,2.475,2.475,0,0,0,.915.74,3.427,3.427,0,0,0,.91.28.25.25,0,0,1,.2.278,2.249,2.249,0,0,1-4.462,0A.251.251,0,0,1,10.473,4.233Z"/><path d="M2.9,13.527A2.027,2.027,0,1,0,.876,11.5,2.026,2.026,0,0,0,2.9,13.527Z"/><path d="M2.9,13.973a2.9,2.9,0,0,0-2.9,2.9v1.759a.5.5,0,0,0,.5.5H1a.5.5,0,0,1,.5.45l.394,3.938a.5.5,0,0,0,.5.45H3.419a.5.5,0,0,0,.5-.45l.394-3.938a.5.5,0,0,1,.5-.45h.5a.5.5,0,0,0,.5-.5V16.876A2.9,2.9,0,0,0,2.9,13.973Z"/></svg>