<svg xmlns="http://www.w3.org/2000/svg" viewBox="0 0 24 24"><title>family-home-1</title><path d="M1.574,9.3l10.28-7.2a.251.251,0,0,1,.287,0L22.426,9.3a1,1,0,0,0,1.148-1.639L13.142.355a2.015,2.015,0,0,0-2.287,0L.426,7.661A1,1,0,0,0,1.574,9.3Z"/><path d="M22.966,15.032a3.971,3.971,0,1,0-1.351,2.98,3.411,3.411,0,0,0,.545.7,1,1,0,0,0,1.405-1.424C23.417,17.142,22.966,16.7,22.966,15.032ZM19,17a1.969,1.969,0,0,1-1.933-1.6.251.251,0,0,1,.191-.29,2.535,2.535,0,0,0,1.541-.913.252.252,0,0,1,.4,0,2.531,2.531,0,0,0,1.54.913.25.25,0,0,1,.191.29A1.968,1.968,0,0,1,19,17Z"/><path d="M4.5,19A3.948,3.948,0,1,0,.553,15.052,3.951,3.951,0,0,0,4.5,19ZM2.627,14.518A.251.251,0,0,1,3,14.372a4.859,4.859,0,0,0,2.487.68,4.912,4.912,0,0,0,.669-.046.252.252,0,0,1,.283.278,1.948,1.948,0,1,1-3.807-.766Z"/><path d="M19,19.633a4.539,4.539,0,0,0-2.846,1,.5.5,0,0,0-.089.689q.156.208.294.437a.5.5,0,0,0,.428.242h5.251a.5.5,0,0,0,.374-.832A4.552,4.552,0,0,0,19,19.633Z"/><path d="M4.5,19.6a4.521,4.521,0,0,0-3.431,1.57A.5.5,0,0,0,1.447,22H7.212a.5.5,0,0,0,.429-.242c.041-.068.083-.134.126-.2a.5.5,0,0,0-.063-.63A4.521,4.521,0,0,0,4.5,19.6Z"/><path d="M13.372,20.516a.252.252,0,0,1-.164-.2.249.249,0,0,1,.1-.238,2.251,2.251,0,1,0-2.619,0,.251.251,0,0,1-.063.439,4.227,4.227,0,0,0-2.607,2.839A.5.5,0,0,0,8.5,24h7a.5.5,0,0,0,.479-.644A4.229,4.229,0,0,0,13.372,20.516Z"/><path d="M13.727,6.524a1.835,1.835,0,0,0-1.431.341.5.5,0,0,1-.592,0,1.834,1.834,0,0,0-1.431-.341A1.941,1.941,0,0,0,9.2,9.805l2.073,2.163a1,1,0,0,0,1.446,0L14.8,9.805a1.941,1.941,0,0,0-1.069-3.281Z"/></svg>