<svg xmlns="http://www.w3.org/2000/svg" viewBox="0 0 24 24"><title>family-outdoors-swing-tree</title><path d="M21.17,2.462a1,1,0,0,1-.455-.615A3.568,3.568,0,0,0,19.9.332a1,1,0,1,0-1.488,1.336,1.481,1.481,0,0,1,.4.982,1,1,0,0,0,.258.67l.388.431a1,1,0,0,0,.328.24,2.545,2.545,0,0,1,1.63,2.224,2.619,2.619,0,0,1-1.9,2.336,1.035,1.035,0,0,0-.661.73,3.391,3.391,0,0,1-3.567,2.789A3.435,3.435,0,0,1,14,11.843a.776.776,0,0,0-.084-.034,4.8,4.8,0,0,1-.847-.486.942.942,0,0,0-1.079.026,3.674,3.674,0,0,1-.724.382.5.5,0,0,1-.685-.465V5.07a1,1,0,0,0-2,0V6.793a.251.251,0,0,1-.429.175,1.993,1.993,0,0,1-.571-1.4,1,1,0,0,0-2,0A4.006,4.006,0,0,0,8.247,9.342a.5.5,0,0,1,.334.471V11.5a.5.5,0,0,1-.591.492A3.576,3.576,0,0,1,6.052,11a2.627,2.627,0,0,1-.8-1.435,1,1,0,0,0-.675-1,2.647,2.647,0,0,1-2-2.346A2.645,2.645,0,0,1,4.548,3.88a.973.973,0,0,0,.642-.924,1.9,1.9,0,0,1,.462-1.289A1,1,0,0,0,4.162.333,3.727,3.727,0,0,0,3.337,1.86a1,1,0,0,1-.458.6,4.4,4.4,0,0,0-2.3,3.756A4.416,4.416,0,0,0,3,10.042a1,1,0,0,1,.457.537,5.014,5.014,0,0,0,1.084,1.734,5.651,5.651,0,0,0,3.593,1.715.5.5,0,0,1,.446.5V23a1,1,0,0,0,2,0V14.394a.5.5,0,0,1,.391-.488,6.58,6.58,0,0,0,1.4-.477.129.129,0,0,1,.126.007.176.176,0,0,1,.083.149v4.622a.532.532,0,0,1-.451.493,1,1,0,0,0-.051,1.948,18.1,18.1,0,0,0,9.045,0,1,1,0,0,0-.112-1.956.466.466,0,0,1-.431-.446V10.708a.69.69,0,0,1,.363-.609,4.453,4.453,0,0,0,2.475-3.884A4.411,4.411,0,0,0,21.17,2.462ZM15.031,19.146a.5.5,0,0,1-.45-.5V14.569a.5.5,0,0,1,.517-.5,6.166,6.166,0,0,0,2.773-.535.5.5,0,0,1,.71.455v4.663a.5.5,0,0,1-.453.5A16.184,16.184,0,0,1,15.031,19.146Z"/></svg>