<svg xmlns="http://www.w3.org/2000/svg" viewBox="0 0 24 24"><title>family-swing</title><path d="M12,0A12,12,0,1,0,24,12,12.013,12.013,0,0,0,12,0Zm0,16.454a7.459,7.459,0,0,1-3.335-.783.75.75,0,1,1,.67-1.342,5.99,5.99,0,0,0,5.33,0,.75.75,0,0,1,.67,1.342A7.459,7.459,0,0,1,12,16.454Zm7,2.3H17a.75.75,0,0,1,0-1.5h.185L16.329,6.979a.252.252,0,0,0-.249-.229H15a.25.25,0,0,0-.25.25v5a.75.75,0,0,1-1.5,0V7A.25.25,0,0,0,13,6.75H11a.25.25,0,0,0-.25.25v5a.75.75,0,0,1-1.5,0V7A.25.25,0,0,0,9,6.75H7.92a.252.252,0,0,0-.249.229L6.815,17.25H7a.75.75,0,0,1,0,1.5H5a.75.75,0,0,1,0-1.5h.31l.867-10.4A1.759,1.759,0,0,1,7.92,5.25h8.16a1.759,1.759,0,0,1,1.743,1.605l.867,10.4H19a.75.75,0,0,1,0,1.5Z"/></svg>