<svg xmlns="http://www.w3.org/2000/svg" viewBox="0 0 24 24"><title>famous-people-man-merlin-2</title><path d="M17.258,13.077a.248.248,0,0,0,.2-.338L12.525.31A.492.492,0,0,0,12.118,0a.593.593,0,0,0-.511.3L6.451,12.725a.247.247,0,0,0,.2.341A46.961,46.961,0,0,0,17.258,13.077Z"/><path d="M4.787,15.781A.248.248,0,0,1,5,16.02c.048,1.852.657,4.636-1.345,6.638a.5.5,0,0,0-.083.591.491.491,0,0,0,.542.243h0l3.612-.818a.247.247,0,0,1,.2.04,6.885,6.885,0,0,0,8.091-.054.248.248,0,0,1,.206-.04l3.522.87h0a.5.5,0,0,0,.468-.832c-1.989-1.989-1.382-4.278-1.344-6.619a.247.247,0,0,1,.212-.241c.865-.125,1.729-.268,2.592-.44a.991.991,0,0,0,.777-1.167,1.013,1.013,0,0,0-1.166-.777,47.191,47.191,0,0,1-18.578,0,1.014,1.014,0,0,0-1.166.777.991.991,0,0,0,.777,1.167C3.142,15.522,3.964,15.66,4.787,15.781Zm7.213.54q2.312,0,4.621-.22a.251.251,0,0,1,.19.064.245.245,0,0,1,.081.183v.712a4.926,4.926,0,0,1-1.17,3.187.251.251,0,0,1-.208.087.248.248,0,0,1-.193-.118,3.993,3.993,0,0,0-6.772,0,.248.248,0,0,1-.4.03A4.922,4.922,0,0,1,6.978,17.06v-.727a.249.249,0,0,1,.273-.247Q9.623,16.319,12,16.321Zm1.227,5.3a2.424,2.424,0,0,1-.427.177,2.912,2.912,0,0,1-.854.125h-.013a2.971,2.971,0,0,1-.857-.125,2.311,2.311,0,0,1-.433-.179.634.634,0,0,1,.3-1.192h1.983a.634.634,0,0,1,.3,1.193Z"/></svg>