<svg id="Bold" xmlns="http://www.w3.org/2000/svg" viewBox="0 0 24 24"><title>famous-character-vegeta</title><path d="M9.165,9.171l1,.5a.741.741,0,0,0,.334.079.75.75,0,0,0,.336-1.421l-1-.5a.75.75,0,0,0-.67,1.342Z"/><path d="M13.5,9.75a.741.741,0,0,0,.334-.079l1-.5a.75.75,0,0,0-.67-1.342l-1,.5A.75.75,0,0,0,13.5,9.75Z"/><path d="M22.5,16.5s-3.226.013-3.63.031a.254.254,0,0,1-.087-.012A21.164,21.164,0,0,0,12,15.5a21.164,21.164,0,0,0-6.783,1.019.254.254,0,0,1-.087.012c-.4-.018-3.63-.031-3.63-.031a1,1,0,0,0-1,1v2.251a1,1,0,0,0,.4.8l1,.749a.249.249,0,0,1,.1.2v2a.5.5,0,0,0,.5.5H6.269a.249.249,0,0,0,.244-.231,2,2,0,0,1,3.974,0,.249.249,0,0,0,.244.231h2.538a.249.249,0,0,0,.244-.231,2,2,0,0,1,3.974,0,.249.249,0,0,0,.244.231H21.5a.5.5,0,0,0,.5-.5v-2a.249.249,0,0,1,.1-.2l1-.75a1,1,0,0,0,.4-.8V17.5A1,1,0,0,0,22.5,16.5ZM16.609,19H13.783a1,1,0,0,0-.857.486l-.712,1.185a.249.249,0,0,1-.428,0l-.711-1.185A1,1,0,0,0,10.217,19H7.391A1.89,1.89,0,0,1,5.6,17.7a.251.251,0,0,1,.168-.311,18.434,18.434,0,0,1,3.3-.7.253.253,0,0,1,.255.142,3,3,0,0,0,5.368,0,.253.253,0,0,1,.255-.142,18.434,18.434,0,0,1,3.3.7.251.251,0,0,1,.168.311A1.89,1.89,0,0,1,16.609,19Z"/><path d="M8.252,13.432a.179.179,0,0,1,.066.026,6.919,6.919,0,0,0,7.364,0,.179.179,0,0,1,.066-.026c3.274-.579,5.114-4.865,5.858-7.094a.5.5,0,0,0-.752-.574l-1.465.977A.25.25,0,0,1,19,6.533V1.707a.5.5,0,0,0-.854-.353l-.892.892a.242.242,0,0,1-.358-.017,6.492,6.492,0,0,0-9.792,0,.242.242,0,0,1-.358.017l-.892-.892A.5.5,0,0,0,5,1.707V6.533a.25.25,0,0,1-.389.208L3.146,5.764a.5.5,0,0,0-.752.574C3.138,8.567,4.978,12.853,8.252,13.432ZM9.625,4.041a3.23,3.23,0,0,1,4.75,0,.253.253,0,0,1-.024.357L12.167,6.351a.251.251,0,0,1-.334,0L9.649,4.4A.253.253,0,0,1,9.625,4.041ZM8,6.82a.25.25,0,0,1,.311-.242l3.479.869a.443.443,0,0,0,.42,0l3.479-.869A.25.25,0,0,1,16,6.82v2.6a.252.252,0,0,1-.042.139s-.813,1.21-.888,1.333a.479.479,0,0,0-.07.25v.213a.36.36,0,0,1-.118.3A5.01,5.01,0,0,1,12,12.5a5.025,5.025,0,0,1-2.9-.852A.333.333,0,0,1,9,11.39v-.267a.4.4,0,0,0-.075-.236L8.042,9.563A.252.252,0,0,1,8,9.424Z"/></svg>