<svg xmlns="http://www.w3.org/2000/svg" viewBox="0 0 24 24"><title>famous-people-man-merlin-2</title><path d="M9.666,16.735c.021-.035.078-.131.352-.131s.33.1.352.132a.743.743,0,0,0,1.278-.759,1.8,1.8,0,0,0-1.63-.859,1.8,1.8,0,0,0-1.631.86.743.743,0,1,0,1.279.757Z"/><path d="M12.612,17a.735.735,0,0,0,.379.1.743.743,0,0,0,.64-.365c.021-.035.077-.131.351-.131s.331.1.353.132a.743.743,0,1,0,1.277-.759,1.8,1.8,0,0,0-1.63-.859,1.8,1.8,0,0,0-1.63.86A.742.742,0,0,0,12.612,17Z"/><path d="M22.637,12.629a.742.742,0,0,0-.886-.564c-1.053.234-2.118.415-3.187.57a.246.246,0,0,1-.26-.141L12.674.393a.774.774,0,0,0-1.348,0L5.7,12.494a.246.246,0,0,1-.26.141c-1.069-.155-2.134-.336-3.187-.57a.743.743,0,0,0-.322,1.451c1.051.234,2.114.416,3.182.574a.249.249,0,0,1,.212.241v.086a.242.242,0,0,1-.059.163A2.1,2.1,0,0,0,4.814,16,3.1,3.1,0,0,0,5,16.987a.257.257,0,0,1,.012.123,5.627,5.627,0,0,1-1.735,3.457.992.992,0,0,0,.1,1.6,2.669,2.669,0,0,0,2.344.394.248.248,0,0,1,.331.234V23.5a.5.5,0,0,0,.5.5H7.6a.249.249,0,0,0,.239-.314,8.242,8.242,0,0,1-.3-1.878,4.409,4.409,0,0,1,.739-2.437.247.247,0,0,0-.032-.312L8,18.815a.25.25,0,0,1-.061-.1,2.691,2.691,0,0,1-.1-.365,1.74,1.74,0,0,0-.993-1.293A1.266,1.266,0,0,1,6.3,15.97a.622.622,0,0,1,.1-.436.743.743,0,0,0,.411-.674l0-.256a.249.249,0,0,1,.274-.25A46.888,46.888,0,0,0,12,14.615a46.888,46.888,0,0,0,4.915-.261.248.248,0,0,1,.274.25l0,.256a.743.743,0,0,0,.411.674.622.622,0,0,1,.1.436,1.267,1.267,0,0,1-.552,1.087,1.735,1.735,0,0,0-.992,1.294,2.7,2.7,0,0,1-.092.35.25.25,0,0,1-.061.1l-.253.253a.247.247,0,0,0-.032.312,4.4,4.4,0,0,1,.743,2.441,8.242,8.242,0,0,1-.3,1.878A.249.249,0,0,0,16.4,24h1.056a.5.5,0,0,0,.495-.5V22.8a.249.249,0,0,1,.331-.234,2.668,2.668,0,0,0,2.343-.394.992.992,0,0,0,.1-1.6,5.629,5.629,0,0,1-1.736-3.457A.253.253,0,0,1,19,16.988a3.108,3.108,0,0,0,.188-.99,2.1,2.1,0,0,0-.449-1.418.242.242,0,0,1-.059-.163v-.086a.249.249,0,0,1,.212-.241c1.068-.158,2.131-.34,3.182-.574A.743.743,0,0,0,22.637,12.629Z"/><path d="M15.469,21.808a3.469,3.469,0,0,0-6.938,0,7.562,7.562,0,0,0,.4,2.029A.248.248,0,0,0,9.161,24h5.677a.246.246,0,0,0,.233-.163A7.53,7.53,0,0,0,15.469,21.808Zm-1.959-.294a2.031,2.031,0,0,1-1.417.542h-.187a2.03,2.03,0,0,1-1.416-.542.743.743,0,1,1,1.038-1.063.584.584,0,0,0,.378.118h.187a.586.586,0,0,0,.379-.118.743.743,0,1,1,1.038,1.063Z"/></svg>