<svg id="Bold" xmlns="http://www.w3.org/2000/svg" viewBox="0 0 24 24"><title>famous-character-2</title><path d="M9.221,8.559l1,.5a.618.618,0,0,0,.279.066.625.625,0,0,0,.279-1.184l-1-.5a.625.625,0,1,0-.558,1.118Z"/><path d="M13.5,9.125a.618.618,0,0,0,.279-.066l1-.5a.625.625,0,0,0-.558-1.118l-1,.5A.625.625,0,0,0,13.5,9.125Z"/><path d="M10.875,11.5a.625.625,0,0,0,.625.625h1a.625.625,0,0,0,0-1.25h-1A.625.625,0,0,0,10.875,11.5Z"/><path d="M7,14.5H9.692A1.982,1.982,0,0,0,11,15h2a1.982,1.982,0,0,0,1.309-.5H17A1.5,1.5,0,0,0,18.5,13V6.472a6.5,6.5,0,0,0-13,.011V13A1.5,1.5,0,0,0,7,14.5ZM8,7.494a2.48,2.48,0,0,1,3.269-2.36c.07.023.206.036.206-.131V4.317a.394.394,0,0,0-.126-.261l-.7-.7a.5.5,0,0,1,.708-.708s.48.479.533.534a.165.165,0,0,0,.22.006l.539-.54a.5.5,0,0,1,.708.708s-.729.724-.787.786a.3.3,0,0,0-.092.24V5c0,.161.1.188.151.169A2.483,2.483,0,0,1,16,7.494v.757a3.241,3.241,0,0,1-1.576,2.327A1,1,0,0,0,14,11.4V13a1,1,0,0,1-1,1H11a1,1,0,0,1-1-1V11.4a1,1,0,0,0-.424-.817A3.241,3.241,0,0,1,8,8.251Z"/><path d="M22.533,18.417a10.369,10.369,0,0,0-.974-.655.25.25,0,0,0-.314.047,9.328,9.328,0,0,1-1.959,1.643.257.257,0,0,1-.334-.052l-.974-1.169a.246.246,0,0,1,.065-.368,7.9,7.9,0,0,0,1.248-.93c.063-.059.053-.23-.015-.256A20.828,20.828,0,0,0,12,15.5a20.871,20.871,0,0,0-7.212,1.154c-.09.033-.079.28.019.367a8.039,8.039,0,0,0,1.117.823.246.246,0,0,1,.064.367l-.973,1.168a.257.257,0,0,1-.335.051,9.337,9.337,0,0,1-1.925-1.621.25.25,0,0,0-.314-.047,10.34,10.34,0,0,0-.973.655A2.459,2.459,0,0,0,.5,20.394V23.5A.5.5,0,0,0,1,24H23a.5.5,0,0,0,.5-.5V20.394A2.461,2.461,0,0,0,22.533,18.417ZM11.225,21.16a.258.258,0,0,1-.272.255,14.052,14.052,0,0,1-4.417-1.009.254.254,0,0,1-.093-.4l1.014-1.217a.242.242,0,0,1,.272-.072,12.182,12.182,0,0,0,3.266.7.246.246,0,0,1,.23.244Zm6.2-.737a14.084,14.084,0,0,1-4.43,1,.257.257,0,0,1-.271-.255v-1.5a.245.245,0,0,1,.23-.244,12.213,12.213,0,0,0,3.279-.686.242.242,0,0,1,.271.072l1.015,1.218A.255.255,0,0,1,17.426,20.423Z"/></svg>