<svg id="Bold" xmlns="http://www.w3.org/2000/svg" viewBox="0 0 24 24"><title>famous-character-kermit</title><path d="M22.534,14.812A5.508,5.508,0,0,0,18.649,13a5.707,5.707,0,0,0-2.051.337,1,1,0,0,0-.638.784l-.281,1.734a.5.5,0,0,1-.216.336.5.5,0,0,1-.394.07l-.606-.146h0a1,1,0,0,0-1.178.636,5.427,5.427,0,0,0,1.516,5.77A5.54,5.54,0,0,0,18.525,24c.1,0,.208,0,.311-.01a5.464,5.464,0,0,0,3.7-9.178ZM16.751,21.5A1.25,1.25,0,1,1,18,20.25,1.25,1.25,0,0,1,16.751,21.5Zm3.5-2.5a1.25,1.25,0,1,1,1.25-1.25A1.25,1.25,0,0,1,20.251,19Z"/><circle cx="12.751" cy="4.25" r="1"/><circle cx="4.252" cy="3.75" r="1"/><path d="M17,8.5a5.467,5.467,0,0,0-.271-1.687,4.692,4.692,0,0,1-.229-1.45V4A4,4,0,0,0,8.911,2.244a.458.458,0,0,1-.822,0A4,4,0,0,0,.5,4V5.364a4.692,4.692,0,0,1-.229,1.45A5.468,5.468,0,0,0,0,8.5a5.826,5.826,0,0,0,3.232,5.234c1.481.743,2.548,1.253,3.307,1.6A4.657,4.657,0,0,0,8.5,15.75a4.649,4.649,0,0,0,1.96-.411c.76-.351,1.827-.861,3.307-1.6A5.824,5.824,0,0,0,17,8.5ZM10.5,4a2,2,0,0,1,4,0V5.364A.637.637,0,0,1,13.862,6H11.135a.637.637,0,0,1-.636-.637ZM3.138,6A.637.637,0,0,1,2.5,5.364V4a2,2,0,0,1,4,0V5.364A.637.637,0,0,1,5.865,6ZM13,10.615l-2.789,1.323a4,4,0,0,1-3.424,0L4,10.615A1,1,0,0,1,4.5,8.75h8a1,1,0,0,1,.5,1.865Z"/></svg>