<svg id="Bold" xmlns="http://www.w3.org/2000/svg" viewBox="0 0 24 24"><title>famous-character-wonder-woman</title><circle cx="9.505" cy="9.002" r="0.75"/><circle cx="14.505" cy="9.002" r="0.75"/><path d="M12.889,10.971a1.252,1.252,0,0,1-1.768,0,.75.75,0,0,0-1.06,1.061,2.752,2.752,0,0,0,3.888,0,.75.75,0,1,0-1.06-1.061Z"/><path d="M21.939,18.4a9.035,9.035,0,0,0-1.3-.8.262.262,0,0,1-.131-.223V16.34a5.686,5.686,0,0,0-.933-3.053A9.5,9.5,0,0,1,18.505,9V6.686a6.733,6.733,0,0,0-1.241-4.011A6.479,6.479,0,0,0,11.806.005a6.679,6.679,0,0,0-6.3,6.749V9a9.463,9.463,0,0,1-1.068,4.286,5.687,5.687,0,0,0-.932,3.052v1a.276.276,0,0,1-.129.236,9.052,9.052,0,0,0-1.314.81A2.728,2.728,0,0,0,1,20.55V23a1,1,0,0,0,2,0V20.55a.714.714,0,0,1,.274-.574A9.081,9.081,0,0,1,5.828,18.69a.267.267,0,0,1,.216.019A2.607,2.607,0,0,1,7.505,21a.168.168,0,0,1-.1.1c-1.688.292-2.9,1.236-2.9,2.4a.5.5,0,0,0,.5.5h14a.5.5,0,0,0,.5-.5c0-1.16-1.208-2.1-2.894-2.4-.041-.007-.106-.074-.106-.1a2.6,2.6,0,0,1,1.45-2.287.262.262,0,0,1,.217-.019,9.179,9.179,0,0,1,2.554,1.29.712.712,0,0,1,.274.573V23a1,1,0,0,0,2,0V20.559A2.7,2.7,0,0,0,21.939,18.4ZM8.755,5a1.25,1.25,0,0,1,1.25-1.25h4A1.251,1.251,0,0,1,15.255,5a.226.226,0,0,1-.243.25h-1.5a1.24,1.24,0,0,0-.952.441s-.3.34-.378.445a.233.233,0,0,1-.36-.015L11.455,5.7a1.243,1.243,0,0,0-.954-.443H8.99A.215.215,0,0,1,8.755,5Zm6.75,15.76a.247.247,0,0,1-.243.244,5.417,5.417,0,0,0-2.323.58c-.063.034-.184-.047-.184-.206V20a.75.75,0,0,0-1.5,0v1.424a.152.152,0,0,1-.206.149,5.429,5.429,0,0,0-2.3-.569.247.247,0,0,1-.243-.244V18.255a.252.252,0,0,1,.212-.25,21.538,21.538,0,0,1,3.288-.253,21.3,21.3,0,0,1,3.288.256.252.252,0,0,1,.212.25Zm0-5.028a.244.244,0,0,1-.278.244,23.367,23.367,0,0,0-3.222-.226,23.667,23.667,0,0,0-3.222.223.243.243,0,0,1-.278-.243v-1.15c0-.212.181-.2.274-.151a6.748,6.748,0,0,0,6.459,0c.09-.049.267-.006.267.215Zm0-3.438a.261.261,0,0,1-.091.2,5.252,5.252,0,0,1-6.819,0,.264.264,0,0,1-.09-.2V7a.25.25,0,0,1,.25-.25h1.491a.244.244,0,0,1,.221.1l.585.689a1.248,1.248,0,0,0,1.905,0s.524-.62.6-.7a.279.279,0,0,1,.2-.082h1.5a.25.25,0,0,1,.25.25Z"/></svg>