<svg id="Bold" xmlns="http://www.w3.org/2000/svg" viewBox="0 0 24 24"><title>famous-character-yoda</title><path d="M1,6c.184,0,.331-.008.454-.015.323-.017.326-.02,1.123.965.271.334.616.763,1.074,1.312A3.344,3.344,0,0,0,5.374,9.345c.094.025.25-.1.236-.175A6.357,6.357,0,0,1,5.5,8V6a6.462,6.462,0,0,1,.425-2.309.3.3,0,0,0-.178-.281l-.3-.054A16.317,16.317,0,0,0,2.5,3C.918,3,.5,4.636.5,5.5A.5.5,0,0,0,1,6Z"/><path d="M18.5,6V8a6.371,6.371,0,0,1-.1,1.138c-.016.09.125.234.214.211a3.351,3.351,0,0,0,1.739-1.087c.458-.549.8-.978,1.074-1.312.8-.984.8-.98,1.123-.965.123.007.27.015.454.015a.5.5,0,0,0,.5-.5c0-.864-.418-2.5-2-2.5a16.317,16.317,0,0,0-2.945.356l-.3.054a.319.319,0,0,0-.164.316A6.474,6.474,0,0,1,18.5,6Z"/><path d="M6.659,15.719a.26.26,0,0,0-.247-.065c-.522.133-1,.281-1.45.438a.247.247,0,0,0-.078.421A8.372,8.372,0,0,1,7.861,23c0,.083,0,.165-.01.247a.248.248,0,0,0,.263.253H11a.25.25,0,0,0,.25-.25V20.414a.251.251,0,0,0-.073-.177Z"/><path d="M19.047,16.482a.281.281,0,0,0-.1-.422c-.419-.146-.87-.282-1.356-.407a.262.262,0,0,0-.246.066l-4.518,4.518a.251.251,0,0,0-.073.177V23.25a.25.25,0,0,0,.25.25h2.765a.261.261,0,0,0,.279-.25c0-.083-.008-.167-.008-.25A8.476,8.476,0,0,1,19.047,16.482Z"/><path d="M22.533,17.917a11,11,0,0,0-1.366-.881.6.6,0,0,0-.321,0,4.691,4.691,0,0,0-.412.262A7,7,0,0,0,17.54,23.25a.262.262,0,0,0,.257.25H23a.5.5,0,0,0,.5-.5V19.894A2.467,2.467,0,0,0,22.533,17.917Z"/><path d="M3.555,17.366c-.138-.1-.281-.194-.427-.282a.688.688,0,0,0-.379,0,10.715,10.715,0,0,0-1.282.835A2.467,2.467,0,0,0,.5,19.894V23a.5.5,0,0,0,.5.5H6.1a.26.26,0,0,0,.256-.249A6.946,6.946,0,0,0,3.555,17.366Z"/><path d="M15.175,15.2a25.428,25.428,0,0,0-6.35,0,.251.251,0,0,0-.138.427l3.136,3.137a.252.252,0,0,0,.354,0l3.136-3.137A.251.251,0,0,0,15.175,15.2Z"/><path d="M12,13.5A5.507,5.507,0,0,0,17.5,8V6a5.5,5.5,0,0,0-11,0V8A5.507,5.507,0,0,0,12,13.5ZM14.5,6a.75.75,0,1,1-.75.75A.75.75,0,0,1,14.5,6Zm-3.823,4.032,1.165.441a.467.467,0,0,0,.317,0l1.164-.441a.5.5,0,0,1,.354.936l-1.165.44a1.468,1.468,0,0,1-1.023,0l-1.166-.44a.5.5,0,0,1,.354-.936ZM9.5,6a.75.75,0,1,1-.75.75A.75.75,0,0,1,9.5,6Z"/></svg>