<svg xmlns="http://www.w3.org/2000/svg" viewBox="0 0 24 24"><title>famous-people-man-hulk-hogan</title><path d="M22.837,19.823A14.11,14.11,0,0,0,17.8,17.51a.25.25,0,0,0-.3.252c.02.721.008,1.4,0,2.542a1.5,1.5,0,0,1-1.974,1.423,5.234,5.234,0,0,1-.824-.356,4.379,4.379,0,0,1-5.4,0,5.234,5.234,0,0,1-.824.356A1.5,1.5,0,0,1,6.5,20.3c-.008-1.145-.02-1.824,0-2.542a.249.249,0,0,0-.3-.252,14.11,14.11,0,0,0-5.038,2.313A2.964,2.964,0,0,0,0,22.2V23a1,1,0,0,0,2,0v-.8a.977.977,0,0,1,.377-.785,9.816,9.816,0,0,1,1.51-.932.251.251,0,0,1,.363.224V23a.75.75,0,0,0,.75.75H19a.75.75,0,0,0,.75-.75v-2.3a.251.251,0,0,1,.363-.224,9.816,9.816,0,0,1,1.51.932A.977.977,0,0,1,22,22.2V23a1,1,0,0,0,2,0v-.8A2.964,2.964,0,0,0,22.837,19.823Z"/><circle cx="14" cy="9.5" r="1"/><circle cx="10" cy="9.5" r="1"/><path d="M7.494,19.485,7.5,20.3a.5.5,0,0,0,.658.474c2.173-.724,2.313-2.426,2.416-3.67.11-1.34.21-1.8,1.426-1.8s1.306.459,1.41,1.786c.1,1.246.23,2.954,2.432,3.688A.508.508,0,0,0,16,20.8a.5.5,0,0,0,.5-.5l.006-.824c.07-6.406-1.322-4.579-.182-5.476A7.016,7.016,0,0,0,19,8.5V7a7.008,7.008,0,0,0-7-7A6.662,6.662,0,0,0,5.063,5.653a.251.251,0,0,1-.4.169,3.215,3.215,0,0,0-2.432-.613.286.286,0,0,0-.162.1.249.249,0,0,0-.058.171A3.247,3.247,0,0,0,3.587,8.122a.25.25,0,0,1,0,.428A3.246,3.246,0,0,0,2.013,11.2a.284.284,0,0,0,.062.176.251.251,0,0,0,.158.091,3.231,3.231,0,0,0,.5.038,3.263,3.263,0,0,0,2.226-.894.249.249,0,0,1,.408.1A7.011,7.011,0,0,0,7.674,14C8.817,14.9,7.426,13.061,7.494,19.485ZM7.016,8.811a.251.251,0,0,1,.178-.255A17,17,0,0,1,12,8a17,17,0,0,1,4.806.556.249.249,0,0,1,.178.255,5,5,0,0,1-2.252,3.866.249.249,0,0,1-.269,0A4.585,4.585,0,0,0,12,12.054a4.582,4.582,0,0,0-2.463.626.247.247,0,0,1-.269,0A5,5,0,0,1,7.016,8.811Z"/></svg>