<svg id="Bold" xmlns="http://www.w3.org/2000/svg" viewBox="0 0 24 24"><title>famous-character-1</title><path d="M7.5,11.276v1.61a1.5,1.5,0,0,0,.918,1.383A21.333,21.333,0,0,0,12,14.5a17.159,17.159,0,0,0,3.582-.233,1.5,1.5,0,0,0,.918-1.383v-1.61c.608-.4,2.038-1.483,2.038-2.776v-2a6.538,6.538,0,0,0-13.076,0v2C5.462,9.793,6.892,10.875,7.5,11.276ZM7.5,6.5a4.481,4.481,0,0,1,2.862-4.182.5.5,0,0,1,.423.027.493.493,0,0,1,.251.342A1,1,0,0,0,12,3.5a.982.982,0,0,0,.967-.792.5.5,0,0,1,.246-.357.506.506,0,0,1,.433-.031A4.484,4.484,0,0,1,16.5,6.5V9a.5.5,0,0,1-.5.5c-.4,0-.9.339-.9.5v2.5a.5.5,0,0,1-.265.44A.489.489,0,0,1,14.6,13a.5.5,0,0,1-.278-.084l-.989-.66A1.523,1.523,0,0,0,12.5,12h-1a1.5,1.5,0,0,0-.833.256l-1,.661A.5.5,0,0,1,8.89,12.5V10c0-.161-.5-.5-.89-.5A.5.5,0,0,1,7.5,9Z"/><path d="M9.127,7.171l1,.5a.741.741,0,0,0,.334.079A.75.75,0,0,0,10.8,6.329l-1-.5a.75.75,0,0,0-.67,1.342Z"/><path d="M13.463,7.75a.744.744,0,0,0,.334-.079l1-.5a.75.75,0,0,0-.67-1.342l-1,.5a.75.75,0,0,0,.336,1.421Z"/><path d="M12,15.5a24.714,24.714,0,0,0-3.2.265.247.247,0,0,0-.182.36l.273.546a1.5,1.5,0,0,0,1.341.829h3.327a1.49,1.49,0,0,0,1.342-.829s.174-.317.279-.529a.265.265,0,0,0-.134-.4A24.249,24.249,0,0,0,12,15.5Z"/><path d="M19.927,18.846A.232.232,0,0,0,20,18.67V15.7a1.012,1.012,0,0,0-.373-.8l-.851-.64a.977.977,0,0,0-.81-.228,1,1,0,0,0-.7.475L15.8,17.127A2.48,2.48,0,0,1,13.563,18.5H10.236A2.485,2.485,0,0,1,8,17.118L6.733,14.5a1,1,0,0,0-.695-.474.977.977,0,0,0-.79.207l-.9.681A.987.987,0,0,0,4,15.686V18.67a.232.232,0,0,0,.073.176,14.708,14.708,0,0,1,3.606,4.992A.24.24,0,0,0,7.906,24h8.188a.24.24,0,0,0,.227-.162A14.708,14.708,0,0,1,19.927,18.846ZM12,23a1.75,1.75,0,1,1,1.75-1.75A1.752,1.752,0,0,1,12,23Z"/><path d="M3.171,19.376A.5.5,0,0,1,3,19V17.757c0-.257-.235-.2-.346-.133a12.936,12.936,0,0,0-1.149.793,2.465,2.465,0,0,0-.967,1.977V23.5a.5.5,0,0,0,.5.5H6.3a.252.252,0,0,0,.233-.351A15.69,15.69,0,0,0,3.171,19.376Z"/><path d="M22.5,18.417a13.265,13.265,0,0,0-1.134-.784c-.116-.07-.361-.141-.361.172V19a.5.5,0,0,1-.171.376,15.713,15.713,0,0,0-3.356,4.273.252.252,0,0,0,.233.351h5.256a.5.5,0,0,0,.5-.5V20.394A2.465,2.465,0,0,0,22.5,18.417Z"/></svg>