<svg id="Bold" xmlns="http://www.w3.org/2000/svg" viewBox="0 0 24 24"><title>famous-character-megaman</title><path d="M23.879,8.659A14.256,14.256,0,0,0,9.151.1a1.54,1.54,0,0,0-1.28,1.056L6.763,4.582a.251.251,0,0,1-.447.06l-.467-.713a2.053,2.053,0,0,0-3.027-.458A14.215,14.215,0,0,0,.4,6.048,2.052,2.052,0,0,0,.929,8.977l.57.372a.5.5,0,0,1,.176.636A10.454,10.454,0,0,0,.91,12.134a1.023,1.023,0,0,0,.347,1.028,1.011,1.011,0,0,0,1.067.146,7.268,7.268,0,0,1,4.559-.478.5.5,0,0,1,.4.489l.009,5.675a1,1,0,0,1-.2.606L5.352,21.9a.486.486,0,0,0-.087.18,1.571,1.571,0,0,0,.259,1.382A1.389,1.389,0,0,0,6.609,24H18.793a1,1,0,0,0,1-1V20.868a1,1,0,0,1,.164-.548,10.392,10.392,0,0,0,1.651-6.387,1.01,1.01,0,0,1,.15-.591c.364-.583,1.2-1.952,2.013-3.278A1.539,1.539,0,0,0,23.879,8.659ZM4.433,6.458A10.544,10.544,0,0,0,3.354,7.483a.639.639,0,0,1-.836.1.587.587,0,0,1-.12-.854A10.083,10.083,0,0,1,3.6,5.481a.641.641,0,1,1,.831.977ZM13.293,20.5a4,4,0,1,1,4-4A4,4,0,0,1,13.293,20.5ZM21.8,9.447l-.59.963a.249.249,0,0,1-.442-.031,10.538,10.538,0,0,0-8.062-6.212,10.775,10.775,0,0,0-3.338.04.249.249,0,0,1-.279-.323L9.58,2.37a.5.5,0,0,1,.444-.345,12.256,12.256,0,0,1,11.8,6.947A.5.5,0,0,1,21.8,9.447Z"/><circle cx="13.293" cy="16.499" r="2"/></svg>