<svg id="Bold" xmlns="http://www.w3.org/2000/svg" viewBox="0 0 24 24"><title>famous-character</title><path d="M19.5,7.5v-1a1.479,1.479,0,0,0-.919-1.368.478.478,0,0,1-.325-.381A6.493,6.493,0,0,0,5.705,4.9a.24.24,0,0,1-.163.168A1.5,1.5,0,0,0,4.5,6.5v1a1.5,1.5,0,0,0,.88,1.366.236.236,0,0,1,.144.2,6.5,6.5,0,0,0,12.952,0,.236.236,0,0,1,.144-.2A1.5,1.5,0,0,0,19.5,7.5ZM16,10.555a2.023,2.023,0,0,1-1.177,1.83,6.787,6.787,0,0,1-5.646,0A2.023,2.023,0,0,1,8,10.555V4.825a.85.85,0,0,1,.486-.743l1.345-.7a1.116,1.116,0,0,1,1.221.13l.594.515a.558.558,0,0,0,.708,0l.594-.515a1.116,1.116,0,0,1,1.221-.13l1.345.7A.85.85,0,0,1,16,4.825Z"/><path d="M10.749,8.25a.75.75,0,0,0,.336-1.421l-1-.5a.75.75,0,0,0-.67,1.342l1,.5A.741.741,0,0,0,10.749,8.25Z"/><path d="M13.915,6.329l-1,.5a.75.75,0,0,0,.336,1.421.741.741,0,0,0,.334-.079l1-.5a.75.75,0,1,0-.67-1.342Z"/><path d="M13.5,10h-3a.75.75,0,0,0,0,1.5h3a.75.75,0,0,0,0-1.5Z"/><path d="M17.052,16.027A22.972,22.972,0,0,0,12,15.5a22.972,22.972,0,0,0-5.052.527.25.25,0,0,0-.193.247v.874a.25.25,0,0,0,.209.247l4.995.833a.282.282,0,0,0,.082,0l5-.833a.25.25,0,0,0,.209-.247v-.874A.25.25,0,0,0,17.052,16.027Z"/><path d="M4.9,16.614a12.661,12.661,0,0,0-3.435,1.8,2.419,2.419,0,0,0-.9,1.475.257.257,0,0,0,.2.292l4.177.835a.25.25,0,0,0,.3-.245V16.852A.259.259,0,0,0,4.9,16.614Z"/><path d="M18.755,16.852v3.922a.25.25,0,0,0,.3.245l4.177-.835a.257.257,0,0,0,.2-.292,2.419,2.419,0,0,0-.9-1.475,12.661,12.661,0,0,0-3.435-1.8A.259.259,0,0,0,18.755,16.852Z"/><path d="M5.044,22.579.8,21.73a.25.25,0,0,0-.3.245V23.5A.5.5,0,0,0,1,24H5.245V22.824A.25.25,0,0,0,5.044,22.579Z"/><path d="M23.2,21.73l-4.245.849a.25.25,0,0,0-.2.245V24H23a.5.5,0,0,0,.5-.5V21.975A.25.25,0,0,0,23.2,21.73Z"/><path d="M16.954,18.94l-4.5.75a5.482,5.482,0,0,1-.906,0l-4.5-.75a.25.25,0,0,0-.291.247V23.75a.25.25,0,0,0,.25.25H9.269a.246.246,0,0,0,.242-.232,2.5,2.5,0,0,1,4.978,0,.246.246,0,0,0,.242.232H17a.25.25,0,0,0,.25-.25V19.187A.25.25,0,0,0,16.954,18.94Z"/></svg>