<svg id="Bold" xmlns="http://www.w3.org/2000/svg" viewBox="0 0 24 24"><title>farming-farmer-work</title><path d="M12.931,7.009a2.488,2.488,0,0,0,2.39-3.177.253.253,0,0,0-.142-.161.249.249,0,0,0-.215.008l-3.872,2.03a.252.252,0,0,0-.129.172.249.249,0,0,0,.052.208A2.481,2.481,0,0,0,12.931,7.009Z"/><path d="M7.785,5.2a1,1,0,0,0,1.35.421l.618-.324-.005-.009,6.17-3.235,0,.008.3-.156A1,1,0,1,0,15.289.13L13.925.846a.252.252,0,0,1-.287-.039L13.279.471A1.51,1.51,0,0,0,11.5.178L10.175.871A1.5,1.5,0,0,0,9.4,2.476l.076.514a.249.249,0,0,1-.131.258l-1.14.6A1,1,0,0,0,7.785,5.2Z"/><path d="M6.16,5.394,5.009,5.077a1.5,1.5,0,0,0-1.823.97l-1.03,3.09a1.5,1.5,0,0,0,1.177,1.952l1.845.308A1.5,1.5,0,0,0,6.92,9.916V8.007a.252.252,0,0,1,.317-.241l4.3,1.188a1.208,1.208,0,0,0-.254.169,1.4,1.4,0,0,0-.367.883v5.769a1,1,0,0,1-.191.588l-3.57,5.643a1.25,1.25,0,1,0,2.022,1.471l2.776-4.5a.25.25,0,0,1,.426,0l2.776,4.5a1.25,1.25,0,0,0,2.022-1.471l-3.57-5.643a1,1,0,0,1-.191-.588V13.024l.866.866a1.252,1.252,0,0,0,1.665.093l2.5-2a1.2,1.2,0,0,0,.426-.722.248.248,0,0,1,.312-.195,8.254,8.254,0,0,0,1.732.44,1,1,0,0,0,.265-1.964L6.214,5.41Zm9.885,4.8a.25.25,0,0,1,.089.436l-.7.558a.251.251,0,0,1-.333-.019l-1.036-1.036a.25.25,0,0,1,.243-.418Z"/></svg>