<svg id="Bold" xmlns="http://www.w3.org/2000/svg" viewBox="0 0 24 24"><title>farming-hay</title><path d="M8.5,15.25h7a7,7,0,0,0,0-14h-7a7,7,0,0,0,0,14Zm0-12a5,5,0,1,1-5,5A5.006,5.006,0,0,1,8.5,3.25Z"/><circle cx="8.5" cy="8.25" r="3"/><path d="M23,20.75h-.66a.25.25,0,0,1-.237-.33,5.277,5.277,0,0,1,1.1-1.713,1,1,0,1,0-1.414-1.414,6.854,6.854,0,0,0-.594.691.25.25,0,0,1-.4,0,6.868,6.868,0,0,0-.594-.691A1,1,0,0,0,18.787,18.7a5.283,5.283,0,0,1,1.1,1.715.249.249,0,0,1-.237.33H16.342a.249.249,0,0,1-.237-.33,5.277,5.277,0,0,1,1.1-1.713,1,1,0,0,0-1.414-1.414,7,7,0,0,0-.594.691.25.25,0,0,1-.4,0,6.868,6.868,0,0,0-.594-.691A1,1,0,0,0,12.788,18.7a5.3,5.3,0,0,1,1.1,1.715.25.25,0,0,1-.237.33h-3.31a.25.25,0,0,1-.237-.33,5.277,5.277,0,0,1,1.1-1.713,1,1,0,0,0-1.414-1.414,6.854,6.854,0,0,0-.594.691.252.252,0,0,1-.2.1.249.249,0,0,1-.2-.1,7.012,7.012,0,0,0-.594-.691A1,1,0,0,0,6.79,18.7a5.3,5.3,0,0,1,1.1,1.715.25.25,0,0,1-.237.33H4.344a.249.249,0,0,1-.236-.33,5.26,5.26,0,0,1,1.1-1.713,1,1,0,0,0-1.414-1.414,7,7,0,0,0-.594.691.25.25,0,0,1-.4,0,6.868,6.868,0,0,0-.594-.691A1,1,0,0,0,.791,18.7a5.283,5.283,0,0,1,1.1,1.715.249.249,0,0,1-.236.33H1a1,1,0,0,0,0,2H23a1,1,0,0,0,0-2Z"/></svg>