<svg id="Bold" xmlns="http://www.w3.org/2000/svg" viewBox="0 0 24 24"><title>farming-wind-cock-1</title><path d="M21.164,18.852a.5.5,0,0,1,0-.707l.439-.439A1,1,0,0,0,20.9,16H18.517a1.49,1.49,0,0,0-1.06.439l-.768.768a1,1,0,0,1-.707.293H13.4a.5.5,0,0,1-.5-.5V13.58a.5.5,0,0,1,.364-.48,6.019,6.019,0,0,0,4.386-5.749c.095-1.887.764-2.963,1.838-2.963.786,0,1.412.564,1.412.941a.5.5,0,1,0,1,0v-.5a3.5,3.5,0,0,0-7,0v.5a1.5,1.5,0,0,1-1.5,1.5H12.1a2.928,2.928,0,0,1-2.029-.774A.918.918,0,0,1,9.8,5.328c.272-3.023-.666-4.315-1.5-4.866A3.417,3.417,0,0,0,4.818.494,3.179,3.179,0,0,0,3.164,2.366a1,1,0,0,1-.26.456l-.654.654a.5.5,0,0,0,.353.853h2a1,1,0,0,1,1,1v2a6.01,6.01,0,0,0,4.886,5.9.5.5,0,0,1,.407.491V17a.5.5,0,0,1-.5.5H6.1a.5.5,0,0,1-.5-.5v-.5a.5.5,0,0,0-.853-.354l-2,2a.5.5,0,0,0,0,.707l2,2A.5.5,0,0,0,5.1,21a.513.513,0,0,0,.192-.038A.5.5,0,0,0,5.6,20.5V20a.5.5,0,0,1,.5-.5H10.4a.5.5,0,0,1,.5.5v3a1,1,0,0,0,2,0V20a.5.5,0,0,1,.5-.5h2.586a1,1,0,0,1,.707.293l.768.768a1.49,1.49,0,0,0,1.06.439H20.9a1,1,0,0,0,.707-1.707Zm-9.531-7.523a3.254,3.254,0,0,1-3.25-3.25A.25.25,0,0,1,8.809,7.9a6.433,6.433,0,0,0,5.425,1.35.251.251,0,0,1,.246.1.253.253,0,0,1,.017.265A3.25,3.25,0,0,1,11.633,11.329Z"/></svg>