<svg id="Bold" xmlns="http://www.w3.org/2000/svg" viewBox="0 0 24 24"><title>farming-field-sun</title><path d="M12,3a1,1,0,0,0,1-1V1a1,1,0,0,0-2,0V2A1,1,0,0,0,12,3Z"/><path d="M5.814,4.978A1,1,0,0,0,7.229,3.564L6.52,2.856A1,1,0,0,0,5.106,4.27Z"/><path d="M3.25,10.75h1a1,1,0,0,0,0-2h-1a1,1,0,0,0,0,2Z"/><path d="M18.186,4.978l.708-.708A1,1,0,0,0,17.48,2.856l-.709.708a1,1,0,0,0,1.415,1.414Z"/><path d="M18.748,9.75a1,1,0,0,0,1,1h1a1,1,0,0,0,0-2h-1A1,1,0,0,0,18.748,9.75Z"/><path d="M6.459,11.289a1,1,0,0,0,1.927-.535,3.75,3.75,0,1,1,7.228,0,1,1,0,0,0,1.927.535,5.75,5.75,0,1,0-11.082,0Z"/><path d="M5.373,13.886a.248.248,0,0,0-.269-.11,17.413,17.413,0,0,0-4.33,1.607A1.5,1.5,0,0,0,0,16.7v3.392a.25.25,0,0,0,.444.157l4.912-6.068A.247.247,0,0,0,5.373,13.886Z"/><path d="M12.524,13.426A.535.535,0,0,0,12,13h0a.534.534,0,0,0-.523.426L9.413,23.4a.5.5,0,0,0,.49.6H14.1a.5.5,0,0,0,.49-.6Z"/><path d="M8.929,13.148a.428.428,0,0,0-.295.158l-8.013,9.9A.488.488,0,0,0,1,24H6.839a.5.5,0,0,0,.489-.4l2.058-9.944a.425.425,0,0,0-.457-.509Z"/><path d="M23.226,15.383a17.413,17.413,0,0,0-4.33-1.607.25.25,0,0,0-.252.4l4.912,6.068A.25.25,0,0,0,24,20.087V16.7A1.5,1.5,0,0,0,23.226,15.383Z"/><path d="M15.366,13.306a.43.43,0,0,0-.295-.158.425.425,0,0,0-.457.509L16.672,23.6a.5.5,0,0,0,.489.4H23a.488.488,0,0,0,.379-.8Z"/></svg>