<svg id="Bold" xmlns="http://www.w3.org/2000/svg" viewBox="0 0 24 24"><title>farming-barn</title><path d="M23.243,8.361,12.317.106a.528.528,0,0,0-.634,0L.757,8.361A1.468,1.468,0,0,0,2.527,10.7l9.156-6.918a.528.528,0,0,1,.634,0L21.473,10.7a1.468,1.468,0,0,0,1.77-2.342Z"/><path d="M21.7,12.852l-9.25-7a.75.75,0,0,0-.906,0l-9.25,7a.751.751,0,0,0-.3.6v9.8a.75.75,0,0,0,.75.75h18.5a.75.75,0,0,0,.75-.75v-9.8A.751.751,0,0,0,21.7,12.852ZM8.277,14.174A.25.25,0,0,1,8.515,14h6.97a.25.25,0,0,1,.144.454l-3.34,2.365a.5.5,0,0,1-.578,0l-3.34-2.365A.25.25,0,0,1,8.277,14.174ZM6.635,20.658a.249.249,0,0,1-.135-.221V16.063a.249.249,0,0,1,.135-.221.253.253,0,0,1,.26.017l3.087,2.187a.251.251,0,0,1,0,.408L6.9,20.641A.253.253,0,0,1,6.635,20.658Zm9.088,1.668a.251.251,0,0,1-.239.174H8.516a.25.25,0,0,1-.145-.454l3.34-2.365a.5.5,0,0,1,.578,0l3.34,2.365A.25.25,0,0,1,15.723,22.326ZM17.5,20.437a.249.249,0,0,1-.135.221.253.253,0,0,1-.26-.017l-3.087-2.187a.251.251,0,0,1,0-.408l3.087-2.187a.253.253,0,0,1,.26-.017.249.249,0,0,1,.135.221Z"/></svg>