<svg id="Bold" xmlns="http://www.w3.org/2000/svg" viewBox="0 0 24 24"><title>farmer&amp;apos;s-market-vendor</title><path d="M22.672,3.768,12.658.111a2.016,2.016,0,0,0-1.33.005L1.343,3.763A2,2,0,0,0,0,5.652V23a1,1,0,0,0,2,0L2.014,6.345a1,1,0,0,1,.656-.938L11.642,2.12a1,1,0,0,1,.687,0l9.014,3.292A1,1,0,0,1,22,6.351V23a1,1,0,0,0,2,0V5.652A2,2,0,0,0,22.672,3.768Z"/><rect x="4.5" y="17.999" width="15" height="6" rx="1" ry="1"/><path d="M9.9,13.863a4.87,4.87,0,0,0-2,1.883.5.5,0,0,0,.431.753h7.373a.5.5,0,0,0,.43-.754,4.875,4.875,0,0,0-2.023-1.89.249.249,0,0,1-.022-.435,3.926,3.926,0,1,0-4.166.008.25.25,0,0,1-.02.435Zm.252-4.316a.249.249,0,0,1,.364-.145,5.087,5.087,0,0,0,2.548.7,4.8,4.8,0,0,0,.564-.034.25.25,0,0,1,.277.28,1.925,1.925,0,1,1-3.753-.8Z"/></svg>