<svg id="Bold" xmlns="http://www.w3.org/2000/svg" viewBox="0 0 24 24"><title>fast-food-hot-dog-sausage</title><path d="M21.546,15.894,19.22,13.567s-.252-.263-.252.057v1.663a.75.75,0,1,1-1.5,0V11.919a.255.255,0,0,0-.073-.177l-2.22-2.22s-.207-.136-.207.158v2.107a.75.75,0,1,1-1.5,0V7.919a.255.255,0,0,0-.073-.177l-2-2a.25.25,0,0,0-.427.177V8.2a.75.75,0,0,1-1.5,0V3.919A.255.255,0,0,0,9.4,3.742l-1.2-1.2a4.072,4.072,0,0,0-5.083-.614,4.006,4.006,0,0,0-.655,6.189L15.89,21.551a4.053,4.053,0,0,0,5.656,0A4.006,4.006,0,0,0,21.546,15.894Z"/></svg>