<svg id="Bold" xmlns="http://www.w3.org/2000/svg" viewBox="0 0 24 24"><title>fast-food-hot-dog</title><path d="M23.63,7.718a.5.5,0,0,0-.809-.147L7.571,22.821a.5.5,0,0,0,.148.809,3.865,3.865,0,0,0,4.426-.807L22.822,12.146A3.867,3.867,0,0,0,23.63,7.718Z"/><path d="M16.568.736A.5.5,0,0,0,16.282.37a3.866,3.866,0,0,0-4.427.807L1.177,11.855A3.866,3.866,0,0,0,.37,16.282a.5.5,0,0,0,.809.147l15.25-15.25A.5.5,0,0,0,16.568.736Z"/><path d="M21.254,2.746a3.021,3.021,0,0,0-4.271,0L2.747,16.982a3.02,3.02,0,1,0,4.27,4.272L21.254,7.017A3.023,3.023,0,0,0,21.254,2.746ZM18.969,5.432a1.91,1.91,0,0,0-1.424,1.424L17.23,8.224a3.422,3.422,0,0,1-2.549,2.549l-1.369.316a1.911,1.911,0,0,0-1.423,1.424l-.316,1.368a3.418,3.418,0,0,1-2.549,2.548l-1.368.316A1.912,1.912,0,0,0,6.232,18.17a.75.75,0,0,1-1.462-.338,3.421,3.421,0,0,1,2.549-2.548l1.369-.316a1.912,1.912,0,0,0,1.423-1.424l.316-1.369a3.42,3.42,0,0,1,2.548-2.548l1.369-.316a1.91,1.91,0,0,0,1.424-1.424l.315-1.368a3.421,3.421,0,0,1,2.549-2.548.75.75,0,1,1,.337,1.461Z"/></svg>