<svg id="Bold" xmlns="http://www.w3.org/2000/svg" viewBox="0 0 24 24"><title>fast-food-wrap</title><path d="M1.9,18.743a.25.25,0,0,0-.253.415l4.367,4.365a1.622,1.622,0,0,0,2.3,0l1.847-1.845a.251.251,0,0,0-.136-.424,5.415,5.415,0,0,1-.683-.158Z"/><path d="M16.018,7.414a1,1,0,0,0,.767.745l2.371.495a.249.249,0,0,0,.3-.283A4.013,4.013,0,0,0,15.77,5a.251.251,0,0,0-.259.308Z"/><path d="M23.05,4.34a.5.5,0,0,1-.185-.428,2.58,2.58,0,0,0-2.778-2.776A.5.5,0,0,1,19.66.951,2.622,2.622,0,0,0,16.193.434a.5.5,0,0,1-.428.06A3.011,3.011,0,0,0,13.335.8a2.739,2.739,0,0,0-1.353,3.025.5.5,0,0,1-.131.48L.467,15.684a1.605,1.605,0,0,0-.465,1A.5.5,0,0,0,.35,17.2l9.274,2.932a4.828,4.828,0,0,0,1.391.2c.1,0,.21,0,.315-.009a5.049,5.049,0,0,0,3.213-1.446l.613-.613A5.035,5.035,0,0,0,16.6,15.06v0a4.84,4.84,0,0,0-.183-1.676L14.005,3.328a.734.734,0,0,1,.341-.8.9.9,0,0,1,1.111.065A1,1,0,0,0,17.1,2.342a.632.632,0,0,1,.111-.17.614.614,0,0,1,.855-.005.594.594,0,0,1,.164.407,1,1,0,0,0,1.66.7.59.59,0,0,1,.833.832,1,1,0,0,0,.7,1.66.6.6,0,0,1,.4.159.613.613,0,0,1,.007.853.641.641,0,0,1-.177.118,1,1,0,0,0-.247,1.644c.472.43.1,1.04.021,1.158a.708.708,0,0,1-.733.3l-3.892-.813a.249.249,0,0,0-.294.3l.878,3.659a4.752,4.752,0,0,1,.139.6.25.25,0,0,0,.423.135l1.729-1.728a.5.5,0,0,1,.5-.126,2.24,2.24,0,0,0,.653.1,2.773,2.773,0,0,0,2.26-1.309,2.983,2.983,0,0,0,.421-2.589.5.5,0,0,1,.058-.429A2.624,2.624,0,0,0,23.05,4.34ZM8.785,17.169a.841.841,0,1,1,.841-.841A.841.841,0,0,1,8.785,17.169Zm0-3.362a.841.841,0,1,1,.841-.841A.841.841,0,0,1,8.785,13.807Zm3.363,0a.841.841,0,1,1,.841-.841A.841.841,0,0,1,12.148,13.807Zm0-3.362a.84.84,0,1,1,.841-.84A.841.841,0,0,1,12.148,10.445Z"/></svg>