<svg id="Bold" xmlns="http://www.w3.org/2000/svg" viewBox="0 0 24 24"><title>feed-digg</title><path d="M5.5,4.25a1,1,0,0,0-1,1v2.5H1a1,1,0,0,0-1,1v7a1,1,0,0,0,1,1H5.5a1,1,0,0,0,1-1V5.25A1,1,0,0,0,5.5,4.25Zm-1,10.5H2v-5H4.5Z"/><path d="M8.5,8.25a1,1,0,0,0-1,1v7a1,1,0,0,0,2,0v-7A1,1,0,0,0,8.5,8.25Z"/><path d="M8.5,4.25a1,1,0,0,0-1,1v1a1,1,0,0,0,2,0v-1A1,1,0,0,0,8.5,4.25Z"/><path d="M16,7.75H11.5a1,1,0,0,0-1,1v7a1,1,0,0,0,1,1H15v1H11.5a1,1,0,0,0,0,2H16a1,1,0,0,0,1-1v-10A1,1,0,0,0,16,7.75Zm-1,7H12.5v-5H15Z"/><path d="M23,7.75H18.5a1,1,0,0,0-1,1v7a1,1,0,0,0,1,1H22v1H18.5a1,1,0,0,0,0,2H23a1,1,0,0,0,1-1v-10A1,1,0,0,0,23,7.75Zm-1,7H19.5v-5H22Z"/></svg>