<svg id="Bold" xmlns="http://www.w3.org/2000/svg" viewBox="0 0 24 24"><title>feed-drupal</title><path d="M15.25,3.16c-1.53-1-2.86-1.92-3.17-2.83A.49.49,0,0,0,11.59,0a.5.5,0,0,0-.47.37c-.26,1-1.6,2.06-3.14,3.31C5.12,6,1.56,8.89,1.56,13.56a10.44,10.44,0,0,0,20.88,0C22.44,8,18.29,5.2,15.25,3.16Zm.8,17.95a4.73,4.73,0,0,1-2.68.88,4.78,4.78,0,0,1-2.77-.94.5.5,0,0,1,.6-.8,3.59,3.59,0,0,0,4.29,0,.5.5,0,1,1,.56.83Zm-3.76-2.67a2.43,2.43,0,0,1,2.08-1.19,1.77,1.77,0,0,1,1.5,1.05.5.5,0,1,1-.87.5c-.09-.17-.35-.55-.63-.55a1.45,1.45,0,0,0-1.24.73.5.5,0,1,1-.84-.54Zm6-.29a.49.49,0,0,1-.21.09c-.78.13-1.64-.66-2.55-1.5a5.62,5.62,0,0,0-1.26-1,9.85,9.85,0,0,0-1.69,1c-1.29.82-2.76,1.74-3.79,1.74a3.09,3.09,0,0,1-3.34-3.18,3.86,3.86,0,0,1,3.87-3.93,6.64,6.64,0,0,1,3.41,1.45,4.61,4.61,0,0,0,1.55.82,5.78,5.78,0,0,0,1.89-.85,5.85,5.85,0,0,1,2.45-1c.54,0,1,.42,1.24,1.16A5,5,0,0,1,18.28,18.15Z"/></svg>