<svg xmlns="http://www.w3.org/2000/svg" viewBox="0 0 24 24"><title>file-rar-1</title><path d="M19.875,13.5A1.377,1.377,0,0,0,18.5,12.123H17.374a.249.249,0,0,0-.249.249v2.249a.252.252,0,0,0,.252.252H18.5A1.377,1.377,0,0,0,19.875,13.5Z"/><path d="M22.5,0H1.5A1.5,1.5,0,0,0,0,1.5v21A1.5,1.5,0,0,0,1.5,24h21A1.5,1.5,0,0,0,24,22.5V1.5A1.5,1.5,0,0,0,22.5,0ZM6.275,16.389l2.667,2.668a.625.625,0,0,1-.884.883l-2.8-2.8s-.134-.056-.134.091V19.5a.625.625,0,0,1-1.25,0v-8a.625.625,0,0,1,.625-.625h2a2.625,2.625,0,0,1,0,5.25H6.312C6.235,16.123,6.153,16.267,6.275,16.389Zm8.85,3.109a.625.625,0,1,1-1.25,0V16.373a.25.25,0,0,0-.25-.25h-2.25a.25.25,0,0,0-.25.25V19.5a.625.625,0,0,1-1.25,0V13.6a2.7,2.7,0,0,1,2.1-2.679A2.629,2.629,0,0,1,15.125,13.5Zm3.15-3.109,2.667,2.668a.625.625,0,0,1-.884.883l-2.8-2.8s-.134-.056-.134.091V19.5a.625.625,0,1,1-1.25,0v-8a.625.625,0,0,1,.625-.625h2a2.625,2.625,0,0,1,0,5.25h-.188C18.235,16.123,18.153,16.267,18.275,16.389Z"/><path d="M7.875,13.5A1.377,1.377,0,0,0,6.5,12.123H5.374a.249.249,0,0,0-.249.249v2.249a.252.252,0,0,0,.252.252H6.5A1.377,1.377,0,0,0,7.875,13.5Z"/><path d="M12.5,12.123A1.377,1.377,0,0,0,11.125,13.5v1.124a.251.251,0,0,0,.251.251h2.246a.253.253,0,0,0,.253-.253V13.5A1.377,1.377,0,0,0,12.5,12.123Z"/></svg>