<svg xmlns="http://www.w3.org/2000/svg" viewBox="0 0 24 24"><title>file-rtf</title><path d="M7.375,10.5A.877.877,0,0,0,6.5,9.623H5.874a.249.249,0,0,0-.249.249v1.252a.249.249,0,0,0,.249.249H6.5A.876.876,0,0,0,7.375,10.5Z"/><path d="M22.5,4.5H1.5A1.5,1.5,0,0,0,0,6V18a1.5,1.5,0,0,0,1.5,1.5h21A1.5,1.5,0,0,0,24,18V6A1.5,1.5,0,0,0,22.5,4.5ZM6.618,12.732l1.824,1.825a.625.625,0,0,1-.884.883S5.742,13.631,5.713,13.6s-.088-.037-.088.02V15a.625.625,0,0,1-1.25,0V9A.625.625,0,0,1,5,8.373H6.5a2.124,2.124,0,0,1,.206,4.239C6.609,12.612,6.576,12.691,6.618,12.732ZM13,9.623h-.626a.249.249,0,0,0-.249.249V15a.625.625,0,0,1-1.25,0V9.872a.249.249,0,0,0-.249-.249H10a.625.625,0,0,1,0-1.25h3a.625.625,0,0,1,0,1.25Zm5,0H16a.375.375,0,0,0-.375.375v1.126a.249.249,0,0,0,.249.249H17a.625.625,0,0,1,0,1.25H15.874a.249.249,0,0,0-.249.249V15a.625.625,0,0,1-1.25,0V10A1.627,1.627,0,0,1,16,8.373h2a.625.625,0,0,1,0,1.25Z"/></svg>