<svg xmlns="http://www.w3.org/2000/svg" viewBox="0 0 24 24"><title>file-pdf</title><path d="M8,9.623H7.377a.252.252,0,0,0-.252.252v1.246a.252.252,0,0,0,.252.252H8a.875.875,0,0,0,0-1.75Z"/><path d="M12.451,9.822c-.105-.046-.326-.048-.326.164v3.978a.238.238,0,0,0,.327.21,2.375,2.375,0,0,0,0-4.352Z"/><path d="M22.5,4.5H1.5A1.5,1.5,0,0,0,0,6V18a1.5,1.5,0,0,0,1.5,1.5h21A1.5,1.5,0,0,0,24,18V6A1.5,1.5,0,0,0,22.5,4.5ZM8,12.623H7.377a.252.252,0,0,0-.252.252V15a.625.625,0,0,1-1.25,0V9A.625.625,0,0,1,6.5,8.373H8a2.125,2.125,0,0,1,0,4.25Zm3.5,3A.625.625,0,0,1,10.875,15V9a.625.625,0,0,1,.625-.625,3.625,3.625,0,0,1,0,7.25Zm8-6h-2a.375.375,0,0,0-.375.375v1.123a.252.252,0,0,0,.252.252H18.5a.625.625,0,0,1,0,1.25H17.377a.252.252,0,0,0-.252.252V15a.625.625,0,0,1-1.25,0V10A1.627,1.627,0,0,1,17.5,8.373h2a.625.625,0,0,1,0,1.25Z"/></svg>