<svg xmlns="http://www.w3.org/2000/svg" viewBox="0 0 24 24"><title>file-key</title><path d="M22.5,4.5H1.5A1.5,1.5,0,0,0,0,6V18a1.5,1.5,0,0,0,1.5,1.5h21A1.5,1.5,0,0,0,24,18V6A1.5,1.5,0,0,0,22.5,4.5ZM6.561,12.175l2.381,2.382a.625.625,0,0,1-.884.883l-1.806-1.8c-.04-.04-.127-.028-.127.075V15a.625.625,0,0,1-1.25,0V9a.625.625,0,0,1,1.25,0v1.241c0,.114.12.129.184.066S8.058,8.557,8.058,8.557a.625.625,0,0,1,.884.883L6.561,11.821A.25.25,0,0,0,6.561,12.175Zm4.815-.8H12.5a.625.625,0,0,1,0,1.25H11.373a.248.248,0,0,0-.248.248V14a.375.375,0,0,0,.375.375h2a.625.625,0,0,1,0,1.25h-2A1.626,1.626,0,0,1,9.875,14V10A1.627,1.627,0,0,1,11.5,8.373h2a.625.625,0,0,1,0,1.25h-2a.375.375,0,0,0-.375.375v1.124A.251.251,0,0,0,11.376,11.373ZM20.125,10A2.622,2.622,0,0,1,18.3,12.489a.247.247,0,0,0-.177.233V15a.625.625,0,0,1-1.25,0V12.722a.247.247,0,0,0-.176-.233A2.621,2.621,0,0,1,14.875,10V9a.625.625,0,1,1,1.25,0v1a1.375,1.375,0,0,0,2.75,0V9a.625.625,0,1,1,1.25,0Z"/></svg>