<svg id="Bold" xmlns="http://www.w3.org/2000/svg" viewBox="0 0 24 24"><title>fireplace-1</title><rect x="0.25" y="1" width="23.5" height="4" rx="1.5" ry="1.5"/><path d="M12.345,15.031a.306.306,0,0,0-.39.442c.732,1.117,1.024,2.749-.316,2.749a1.1,1.1,0,0,1-1.128-.745.305.305,0,0,0-.511-.1,3.056,3.056,0,1,0,5.306,2.067A4.9,4.9,0,0,0,12.345,15.031Z"/><rect x="8.75" y="6.5" width="6.5" height="4.5" rx="0.5" ry="0.5"/><rect x="16.75" y="6.5" width="6" height="4.5" rx="0.5" ry="0.5"/><rect x="1.25" y="6.5" width="6" height="4.5" rx="0.5" ry="0.5"/><rect x="19.75" y="12.5" width="3" height="4.5" rx="0.5" ry="0.5"/><rect x="1.25" y="12.5" width="3" height="4.5" rx="0.5" ry="0.5"/><path d="M18.25,16.5V13a.5.5,0,0,0-.5-.5H6.25a.5.5,0,0,0-.5.5v3.5a.5.5,0,0,0,.5.5h.459a.249.249,0,0,0,.215-.124,5.917,5.917,0,0,1,10.152,0,.249.249,0,0,0,.215.124h.459A.5.5,0,0,0,18.25,16.5Z"/><path d="M22.25,18.5H18.243a.5.5,0,0,0-.5.531c.005.073.007.146.007.219V22.5a.5.5,0,0,0,.5.5h4a.5.5,0,0,0,.5-.5V19A.5.5,0,0,0,22.25,18.5Z"/><path d="M5.757,18.5H1.75a.5.5,0,0,0-.5.5v3.5a.5.5,0,0,0,.5.5h4a.5.5,0,0,0,.5-.5V19.25c0-.073,0-.146.007-.219a.5.5,0,0,0-.5-.531Z"/></svg>