<svg id="Bold" xmlns="http://www.w3.org/2000/svg" viewBox="0 0 24 24"><title>fishing-catch</title><path d="M3.5,6.25a1,1,0,0,0,0,2h13a1,1,0,0,0,0-2Z"/><path d="M21.5,4.25a1,1,0,0,0-1-1H3.5a1,1,0,0,0,0,2h17A1,1,0,0,0,21.5,4.25Z"/><path d="M20.5.25H3.5a1,1,0,0,0,0,2h17a1,1,0,0,0,0-2Z"/><path d="M20.828,23.492a.262.262,0,0,0,.244.167h.017a.263.263,0,0,0,.237-.2l.7-2.905a.255.255,0,0,1,.093-.142c.519-.389.929-.734,1.208-.981a.519.519,0,0,0-.006-.779,19.417,19.417,0,0,0-5.012-3.2.245.245,0,0,1-.1-.084l-2.521-3.527a.513.513,0,0,0-.421-.219.521.521,0,0,0-.526.48l-.173,2.066a.25.25,0,0,1-.273.228c-.33-.032-.664-.053-1-.053s-.658.027-.982.059a.25.25,0,0,1-.225-.1l-1.173-1.564a.511.511,0,0,0-.414-.21.522.522,0,0,0-.522.45l-.257,1.8a.248.248,0,0,1-.17.2,15.679,15.679,0,0,0-2.056.838.25.25,0,0,1-.273-.035L5.977,14.72a.515.515,0,0,0-.337-.127.523.523,0,0,0-.521.6l.241,1.685a.253.253,0,0,1-.108.243c-.3.2-.578.4-.827.584a.251.251,0,0,1-.273.017L1.283,16.1a.52.52,0,0,0-.259-.071.525.525,0,0,0-.458.775l.678,1.247a2.093,2.093,0,0,1,0,2L.566,21.29a.525.525,0,0,0,.458.775A.531.531,0,0,0,1.283,22L4.151,20.37a.25.25,0,0,1,.274.018,15.405,15.405,0,0,0,8.863,3.362,13.764,13.764,0,0,0,6.6-1.891.25.25,0,0,1,.355.128ZM18.75,20a1,1,0,1,1,1-1A1,1,0,0,1,18.75,20Z"/></svg>