<svg id="Bold" xmlns="http://www.w3.org/2000/svg" viewBox="0 0 24 24"><title>fishing-fail</title><path d="M15.445.592a1,1,0,0,0-1.414,0L11.2,3.421a.25.25,0,0,1-.354,0L8.02.592A1,1,0,0,0,6.606,2.006L9.435,4.835a.249.249,0,0,1,0,.353L6.606,8.017A1,1,0,1,0,8.02,9.431L10.849,6.6a.25.25,0,0,1,.354,0l2.828,2.828a1,1,0,0,0,1.414-1.414L12.617,5.188a.249.249,0,0,1,0-.353l2.828-2.829A1,1,0,0,0,15.445.592Z"/><path d="M23.434,16.75a.525.525,0,0,0-.458-.775.531.531,0,0,0-.259.07L19.848,17.67a.249.249,0,0,1-.273-.017c-.249-.186-.53-.383-.827-.583a.251.251,0,0,1-.108-.243l.241-1.685a.524.524,0,0,0-.521-.6.514.514,0,0,0-.337.128l-1.239,1.062a.248.248,0,0,1-.273.034,15.54,15.54,0,0,0-2.056-.837.249.249,0,0,1-.17-.2l-.257-1.8a.521.521,0,0,0-.522-.449.511.511,0,0,0-.414.21L11.919,14.25a.253.253,0,0,1-.225.1c-.324-.032-.649-.059-.982-.059s-.673.02-1,.053a.251.251,0,0,1-.184-.057.247.247,0,0,1-.089-.171l-.174-2.067a.521.521,0,0,0-.525-.48.512.512,0,0,0-.421.22L5.8,15.314a.237.237,0,0,1-.1.084A19.441,19.441,0,0,0,.679,18.6a.518.518,0,0,0-.005.779c.278.246.688.592,1.207.981a.256.256,0,0,1,.093.141l.7,2.906a.261.261,0,0,0,.237.2h.018a.261.261,0,0,0,.243-.167l.582-1.5a.25.25,0,0,1,.355-.128,13.754,13.754,0,0,0,6.6,1.892,15.406,15.406,0,0,0,8.863-3.363.249.249,0,0,1,.273-.018l2.869,1.625a.52.52,0,0,0,.259.071.525.525,0,0,0,.458-.775l-.678-1.247a2.093,2.093,0,0,1,0-2ZM5,19.8a1,1,0,1,1,1-1A1,1,0,0,1,5,19.8Z"/></svg>