<svg id="Bold" xmlns="http://www.w3.org/2000/svg" viewBox="0 0 24 24"><title>fish-bowl</title><path d="M23.179,4.107A1.47,1.47,0,0,0,21.8,3.174H2.2a1.47,1.47,0,0,0-1.376.933A14.7,14.7,0,0,0,0,8.936a12,12,0,0,0,24,0A14.7,14.7,0,0,0,23.179,4.107ZM7.1,13.527a.5.5,0,0,1,.708-.707c.28.281,1.014,1.039,1.127,1.155a4.2,4.2,0,0,1,3.019-1.3c2.678,0,3.431,1.733,3.461,1.807a.5.5,0,0,1,.007.369c-.028.074-.716,1.824-3.468,1.824a4.3,4.3,0,0,1-3.019-1.3c-.031.031-.847.873-1.127,1.153A.5.5,0,0,1,7.1,15.82c.276-.276,1.121-1.146,1.121-1.146S7.38,13.8,7.1,13.527Zm-4.6-8.175a.25.25,0,0,1,.24-.178H21.254a.25.25,0,0,1,.24.178,12.456,12.456,0,0,1,.4,2.042.25.25,0,0,1-.061.2.253.253,0,0,1-.187.084H2.353a.25.25,0,0,1-.248-.28A12.435,12.435,0,0,1,2.506,5.352Z"/></svg>