<svg id="Bold" xmlns="http://www.w3.org/2000/svg" viewBox="0 0 24 24"><title>fishing-bait-fish</title><path d="M8.816,21.993c4.054,0,9.248-1.295,10.941-3.14a.544.544,0,0,1,.674-.1l2.751,1.586a.545.545,0,0,0,.783-.664l-.831-2.216A2.185,2.185,0,0,1,23.107,16l.809-2.426a.546.546,0,0,0-.858-.6l-2.481,1.982a.543.543,0,0,1-.747-.065C18.147,13,12.936,11.663,8.816,11.663A13.7,13.7,0,0,0,.678,13.942a.548.548,0,0,0-.069.8l2.469,2.716a.545.545,0,0,1-.4.912H.545a.545.545,0,0,0-.377.939C1.824,20.89,5.074,21.993,8.816,21.993ZM5.393,14.577a1,1,0,1,1-1,1A1,1,0,0,1,5.393,14.577Z"/><path d="M6,8.007h9a1,1,0,0,0,1-1v-.25a.25.25,0,0,1,.25-.25h5.5a2.25,2.25,0,1,0,0-4.5H1.908a1.5,1.5,0,0,0-1.3,2.244C1.505,5.825,3.88,8.007,6,8.007Zm7.75-4a.25.25,0,0,1,.25.25v1.5a.25.25,0,0,1-.25.25H6A4.854,4.854,0,0,1,3.26,4.433a.25.25,0,0,1,.177-.426Z"/></svg>