<svg id="Bold" xmlns="http://www.w3.org/2000/svg" viewBox="0 0 24 24"><title>fitness-bicycle-3</title><path d="M20.88,20.45a.246.246,0,0,1-.057-.2.251.251,0,0,1,.11-.174A3.977,3.977,0,0,0,22.75,16.75,4.027,4.027,0,0,0,19.829,12.9l-1.059-.223a.249.249,0,0,1-.158-.38,11.113,11.113,0,0,0,1.352-8.748.5.5,0,0,1,.131-.478l1.362-1.362A1,1,0,0,0,20.043.293l-4,4a1,1,0,1,0,1.414,1.414l.4-.4a.249.249,0,0,1,.425.152A8.861,8.861,0,0,1,16.431,11.9a.5.5,0,0,1-.5.181L7.968,10.4a.5.5,0,0,1-.378-.352L7.167,8.569a.251.251,0,0,1,.041-.219.249.249,0,0,1,.2-.1H8.25a1,1,0,0,0,.242-1.97l-6-1.5A1,1,0,0,0,1.418,6.305l.7,1.054a2,2,0,0,0,1.664.891h.833a.5.5,0,0,1,.481.363l.433,1.517a.244.244,0,0,1-.023.192.248.248,0,0,1-.154.118,5.492,5.492,0,0,0-2.49,9.2,5.376,5.376,0,0,0,1.256.919.249.249,0,0,1,.128.174.251.251,0,0,1-.056.209l-1.2,1.4a1,1,0,0,0,1.52,1.3l1.907-2.226a.5.5,0,0,1,.359-.174l11.5-.48a.5.5,0,0,1,.4.175l2.319,2.7a1,1,0,1,0,1.518-1.3Zm-7.567-4.927a.5.5,0,0,1-.364.606l-2.917.73a3.013,3.013,0,1,1-.35-2.841.25.25,0,0,1-.144.387l-2.47.617A.75.75,0,0,0,7.249,16.5l5.457-1.341A.5.5,0,0,1,13.313,15.523Z"/></svg>