<svg id="Bold" xmlns="http://www.w3.org/2000/svg" viewBox="0 0 24 24"><title>fitness-shaker</title><path d="M15,2H13.75a.5.5,0,0,1-.5-.5V1.25a1.25,1.25,0,0,0-2.5,0V1.5a.5.5,0,0,1-.5.5H9A2.5,2.5,0,0,0,6.5,4.5v1A.5.5,0,0,0,7,6H17a.5.5,0,0,0,.5-.5v-1A2.5,2.5,0,0,0,15,2Z"/><path d="M17,7.5H7a.5.5,0,0,0-.5.5V9.1a1.494,1.494,0,0,0,.419,1.04L8.4,11.676a.5.5,0,0,1,0,.7L6.933,13.856A1.493,1.493,0,0,0,6.5,14.911V21.5A2.5,2.5,0,0,0,9,24h6a2.5,2.5,0,0,0,2.5-2.5V14.922a1.51,1.51,0,0,0-.453-1.074L15.565,12.4a.5.5,0,0,1-.008-.707l1.517-1.556A1.492,1.492,0,0,0,17.5,9.093V8A.5.5,0,0,0,17,7.5ZM14.391,17l-2.785,3.242a.249.249,0,0,1-.439-.163V17.917a.5.5,0,0,0-.5-.5H9.8A.251.251,0,0,1,9.609,17l2.785-3.242a.249.249,0,0,1,.439.163v2.158a.5.5,0,0,0,.5.5H14.2a.251.251,0,0,1,.19.413Z"/></svg>