<svg id="Bold" xmlns="http://www.w3.org/2000/svg" viewBox="0 0 24 24"><title>flower-pot</title><path d="M17.68,18H6.18a.5.5,0,0,0-.485.621l.871,3.485A2.494,2.494,0,0,0,8.991,24h5.877a2.5,2.5,0,0,0,2.425-1.894l.872-3.485A.5.5,0,0,0,17.68,18Z"/><path d="M17.789,15H13.438a.5.5,0,0,1-.5-.509c.016-.895.055-1.779.14-2.716a.25.25,0,0,1,.395-.18,3.12,3.12,0,0,0,.992.48,2.609,2.609,0,0,0,.7.1,2.193,2.193,0,0,0,1.3-.414,2.725,2.725,0,0,0,.4-3.686.249.249,0,0,1,.12-.363,3.281,3.281,0,0,0,1.526-1.218,2.3,2.3,0,0,0,.317-2A2.3,2.3,0,0,0,17.393,3.06a3.192,3.192,0,0,0-1.951-.081.255.255,0,0,1-.207-.042.251.251,0,0,1-.1-.185A2.732,2.732,0,0,0,12.643,0a2.731,2.731,0,0,0-2.49,2.752.251.251,0,0,1-.1.185.254.254,0,0,1-.207.042,3.181,3.181,0,0,0-1.95.081A2.294,2.294,0,0,0,6.462,4.491,2.739,2.739,0,0,0,8.306,7.709a.255.255,0,0,1,.144.154.25.25,0,0,1-.026.21,2.725,2.725,0,0,0,.4,3.686,2.193,2.193,0,0,0,1.3.414,2.618,2.618,0,0,0,.6-.071.256.256,0,0,1,.22.052.251.251,0,0,1,.087.208c-.052.762-.078,1.472-.088,2.146a.5.5,0,0,1-.5.492H6.07a1,1,0,0,0-.97,1.242l.1.379A.5.5,0,0,0,5.68,17h12.5a.5.5,0,0,0,.485-.379l.094-.379A1,1,0,0,0,17.789,15ZM11.777,8.549a.363.363,0,0,0-.172-.309,1.908,1.908,0,0,1-.232-.169A.361.361,0,0,0,11.03,8,.885.885,0,0,1,9.936,7.45a.871.871,0,0,1,.556-1.095.361.361,0,0,0,.24-.257,2.023,2.023,0,0,1,.089-.273.361.361,0,0,0-.042-.348.867.867,0,1,1,1.4-1.019.357.357,0,0,0,.316.148,1.859,1.859,0,0,1,.289,0,.361.361,0,0,0,.319-.149.865.865,0,0,1,1.21-.192.87.87,0,0,1,.193,1.212.359.359,0,0,0-.043.348,1.892,1.892,0,0,1,.089.273.358.358,0,0,0,.24.257.868.868,0,0,1,.555,1.094A.878.878,0,0,1,14.256,8a.356.356,0,0,0-.342.067,2.033,2.033,0,0,1-.233.169.365.365,0,0,0-.171.309.867.867,0,1,1-1.733,0Z"/></svg>