<svg id="Bold" xmlns="http://www.w3.org/2000/svg" viewBox="0 0 24 24"><title>flower-roses</title><path d="M17.773,11.834a.483.483,0,0,1-.41.214H13.5a.5.5,0,0,1-.5-.5V8.312a.517.517,0,0,1,.321-.468A3.238,3.238,0,0,0,15.25,4.891V2.141a1.186,1.186,0,0,0-1.9-.949L12.3,1.979a.5.5,0,0,1-.6,0l-1.05-.787a1.187,1.187,0,0,0-1.9.949v2.75a3.238,3.238,0,0,0,1.929,2.953A.517.517,0,0,1,11,8.312v3.236a.5.5,0,0,1-.5.5H6.636a.5.5,0,0,1-.414-.219,8.281,8.281,0,0,1-1.14-3.24.51.51,0,0,1,.307-.526A3.235,3.235,0,0,0,7.25,5.141V2.391a1.186,1.186,0,0,0-1.9-.949L4.3,2.229a.5.5,0,0,1-.6,0L2.65,1.442a1.187,1.187,0,0,0-1.9.949v2.75A3.239,3.239,0,0,0,2.76,8.129a.489.489,0,0,1,.306.4A10.354,10.354,0,0,0,3.894,11.7a.251.251,0,0,1-.229.352H1.5a1.5,1.5,0,0,0,0,3h21a1.5,1.5,0,0,0,0-3H20.335a.251.251,0,0,1-.229-.352,10.354,10.354,0,0,0,.828-3.164.489.489,0,0,1,.306-.4,3.239,3.239,0,0,0,2.01-2.988V2.391a1.186,1.186,0,0,0-1.9-.949L20.3,2.229a.5.5,0,0,1-.6,0l-1.05-.787a1.187,1.187,0,0,0-1.9.949v2.75a3.236,3.236,0,0,0,1.884,2.933.479.479,0,0,1,.29.484A8.267,8.267,0,0,1,17.773,11.834Z"/><path d="M2.42,22.291a1,1,0,0,0,.971.757H20.61a1,1,0,0,0,.97-.758c0-.01,0-.02.006-.03l.945-5.122a.5.5,0,0,0-.492-.59H1.961a.5.5,0,0,0-.491.59Z"/></svg>