<svg id="Bold" xmlns="http://www.w3.org/2000/svg" viewBox="0 0 24 24"><title>flower-2</title><circle cx="12" cy="8.199" r="1.5"/><path d="M20.375,17.574a7.448,7.448,0,0,0-5.639,1.076,7.57,7.57,0,0,0-1.306,1.084.25.25,0,0,1-.43-.173V16.133a.25.25,0,0,1,.384-.211,3,3,0,0,0,4.241-3.981.5.5,0,0,1,.426-.742,3,3,0,0,0,0-6,.5.5,0,0,1-.426-.742,3,3,0,0,0-5.2-3,.5.5,0,0,1-.854,0,3,3,0,0,0-5.2,3.005.5.5,0,0,1-.426.742,3,3,0,0,0,0,6,.5.5,0,0,1,.426.742,3,3,0,0,0,4.241,3.981.25.25,0,0,1,.384.211v3.435a.25.25,0,0,1-.431.172,7.5,7.5,0,0,0-6.944-2.166.5.5,0,0,0-.388.591A7.355,7.355,0,0,0,10.413,24h3.174a7.355,7.355,0,0,0,7.176-5.835.5.5,0,0,0-.388-.591ZM12.75,11.949a.75.75,0,0,1-1.5,0V11.8a1,1,0,0,0-.562-.9,2.927,2.927,0,0,1-.365-.21,1,1,0,0,0-1.062-.04l-.134.078a.75.75,0,0,1-.75-1.3l.133-.076a1,1,0,0,0,.5-.938,2.844,2.844,0,0,1,0-.423,1,1,0,0,0-.5-.938l-.133-.076a.75.75,0,0,1,.75-1.3l.134.077a1,1,0,0,0,1.062-.038,2.82,2.82,0,0,1,.365-.212,1,1,0,0,0,.562-.9V4.449a.75.75,0,1,1,1.5,0V4.6a1,1,0,0,0,.562.9,2.82,2.82,0,0,1,.365.212,1,1,0,0,0,1.062.038l.134-.077a.75.75,0,0,1,.75,1.3l-.133.076a1,1,0,0,0-.5.938,2.831,2.831,0,0,1,0,.422,1,1,0,0,0,.5.939l.133.076a.75.75,0,0,1-.75,1.3l-.134-.078a1,1,0,0,0-1.062.04,2.927,2.927,0,0,1-.365.21,1,1,0,0,0-.562.9Z"/></svg>