<svg id="Bold" xmlns="http://www.w3.org/2000/svg" viewBox="0 0 24 24"><title>flower-3</title><path d="M12,10.693a2.066,2.066,0,1,0,2.066,2.066A2.067,2.067,0,0,0,12,10.693Z"/><path d="M7.782,4.339c.133.036.266.077.4.12a8.141,8.141,0,0,1,5.186,4.785.519.519,0,0,0,.253.284,3.643,3.643,0,0,1,1.361,1.187.516.516,0,0,0,.837.019,6.953,6.953,0,0,0,1.346-4.172c0-3.417-2.316-6.2-5.164-6.2A5.113,5.113,0,0,0,7.448,3.631a.517.517,0,0,0,.334.708Z"/><path d="M9.08,10.372a.513.513,0,0,0,.348-.152,3.637,3.637,0,0,1,1.55-.927.517.517,0,0,0,.277-.791A6.956,6.956,0,0,0,7.7,5.932c-3.25-1.056-6.61.289-7.489,3a5.11,5.11,0,0,0,1.7,5.338.51.51,0,0,0,.411.129.517.517,0,0,0,.366-.228c.075-.115.155-.229.237-.342A8.144,8.144,0,0,1,9.08,10.372Z"/><path d="M10.212,21.718A8.142,8.142,0,0,1,8.829,14.8a.517.517,0,0,0-.038-.378,3.648,3.648,0,0,1-.4-1.76.516.516,0,0,0-.666-.508A6.958,6.958,0,0,0,4.18,14.736c-2.008,2.765-1.768,6.375.536,8.049a5.112,5.112,0,0,0,5.6.033.515.515,0,0,0,.146-.769C10.378,21.942,10.294,21.831,10.212,21.718Z"/><path d="M20.791,17.121a.512.512,0,0,0-.429-.03c-.129.048-.261.094-.394.137a8.14,8.14,0,0,1-7.008-.823.517.517,0,0,0-.371-.081,3.639,3.639,0,0,1-1.8-.161.516.516,0,0,0-.688.477,6.952,6.952,0,0,0,1.363,4.167c2.008,2.764,5.516,3.651,7.82,1.978a5.112,5.112,0,0,0,1.763-5.318A.513.513,0,0,0,20.791,17.121Z"/><path d="M23.787,8.929a5.113,5.113,0,0,0-4.513-3.321.517.517,0,0,0-.57.537c.007.137.009.277.009.417a8.137,8.137,0,0,1-2.948,6.41.52.52,0,0,0-.192.329,3.624,3.624,0,0,1-.709,1.66.518.518,0,0,0,.241.8,6.954,6.954,0,0,0,4.384-.009C22.739,14.7,24.667,11.637,23.787,8.929Z"/></svg>