<svg id="Bold" xmlns="http://www.w3.org/2000/svg" viewBox="0 0 24 24"><title>flying-insect-bee-3</title><path d="M23.24,1.108a.994.994,0,0,0-1.035.023l-8.326,5.3a.25.25,0,0,0,.042.443c.048.019.1.04.145.061a4.461,4.461,0,0,1,2.172,2.027.248.248,0,0,0,.193.133,7.74,7.74,0,0,1,1.295.261c4.254-.615,5.849-2.727,6.015-7.343A.992.992,0,0,0,23.24,1.108Z"/><path d="M8.627,5.64a1.864,1.864,0,0,0-.749-.154,3.024,3.024,0,0,0-2.17,1.132L4.056,4.57a1.5,1.5,0,0,0-2.544.354L.339,7.661A1,1,0,0,0,.864,8.973a.979.979,0,0,0,.394.081,1,1,0,0,0,.919-.606l.846-1.973L4.687,8.539c-.412,1.543.029,3.03,1.129,3.512a1.845,1.845,0,0,0,.749.155A3.573,3.573,0,0,0,9.51,9.849C10.287,8.08,9.891,6.2,8.627,5.64Z"/><path d="M14.258,14.725a.5.5,0,0,0,.612.487l5.24-1.2a.5.5,0,0,0,.343-.282.5.5,0,0,0-.016-.444,5.509,5.509,0,0,0-4.907-2.738l-.322.013a2.868,2.868,0,0,0-1.745-2.249,3,3,0,0,0-1.872-.178.249.249,0,0,0-.193.229A6.247,6.247,0,0,1,9.69,12.244a.248.248,0,0,0-.038.3,2.992,2.992,0,0,0,4.606.742Z"/><path d="M14.646,16.8a.5.5,0,0,0-.388.487v.263a5.116,5.116,0,0,0,.435,2.143l6.565-1.511V17.052a10.985,10.985,0,0,0-.062-1.185.5.5,0,0,0-.61-.432Z"/><path d="M20.717,23.024a.5.5,0,0,0,.541-.5V20.351a.5.5,0,0,0-.613-.488l-4.029.928a.5.5,0,0,0-.164.9A9.482,9.482,0,0,0,20.717,23.024Z"/></svg>