<svg id="Bold" xmlns="http://www.w3.org/2000/svg" viewBox="0 0 24 24"><title>flying-insect-dragonfly-2</title><path d="M12.437,14.009a3.55,3.55,0,0,1-.874,0,.5.5,0,0,0-.394.121.5.5,0,0,0-.169.375V23a1,1,0,0,0,2,0V14.505a.5.5,0,0,0-.563-.5Z"/><path d="M13.556,6.69A3.967,3.967,0,0,1,12.4,6.381a1,1,0,0,0-.8,0,3.967,3.967,0,0,1-1.155.309.5.5,0,0,0-.444.5v3.277a2,2,0,1,0,4,0V7.187A.5.5,0,0,0,13.556,6.69Z"/><path d="M8,9.5A.5.5,0,0,0,8.5,9V7.08A1,1,0,0,0,8,6.214a4.041,4.041,0,0,1-1.039-.865A1,1,0,0,0,6.2,5H1A1,1,0,0,0,.269,6.682,8.886,8.886,0,0,0,6.748,9.5Z"/><path d="M23.917,5.6A1,1,0,0,0,23,5H17.8a1,1,0,0,0-.759.349A4.028,4.028,0,0,1,16,6.214a1,1,0,0,0-.5.866V9a.5.5,0,0,0,.5.5h1.252a8.886,8.886,0,0,0,6.479-2.818A1,1,0,0,0,23.917,5.6Z"/><path d="M16.75,2.75A2.748,2.748,0,0,0,12.308.584a.5.5,0,0,1-.616,0A2.749,2.749,0,1,0,10,5.5a2.739,2.739,0,0,0,1.692-.584.5.5,0,0,1,.616,0A2.748,2.748,0,0,0,16.75,2.75ZM10,4a1.25,1.25,0,1,1,1.25-1.25A1.252,1.252,0,0,1,10,4Zm4,0a1.25,1.25,0,1,1,1.25-1.25A1.252,1.252,0,0,1,14,4Z"/><path d="M8.527,10.939a.5.5,0,0,0-.5-.439H6.854a2,2,0,0,0-.894.211L1.79,12.8a1.427,1.427,0,0,0,.637,2.7H4.5a6.483,6.483,0,0,0,4.779-2.1.5.5,0,0,0,.02-.655A3.537,3.537,0,0,1,8.527,10.939Z"/><path d="M22.21,12.8l-4.17-2.085a2,2,0,0,0-.894-.211H15.969a.5.5,0,0,0-.5.439,3.537,3.537,0,0,1-.772,1.807.5.5,0,0,0,.02.655A6.483,6.483,0,0,0,19.5,15.5h2.073a1.427,1.427,0,0,0,.637-2.7Z"/></svg>