<svg id="Bold" xmlns="http://www.w3.org/2000/svg" viewBox="0 0 24 24"><title>flying-insect-honey</title><path d="M10.431,14.308,6,11.774a1.044,1.044,0,0,0-1.035,0L.526,14.308A1.045,1.045,0,0,0,0,15.214v5.05a1.045,1.045,0,0,0,.526.906L4.961,23.7A1.044,1.044,0,0,0,6,23.7l4.435-2.534a1.045,1.045,0,0,0,.526-.906v-5.05A1.045,1.045,0,0,0,10.431,14.308Z"/><path d="M23.474,14.308,19.04,11.774a1.046,1.046,0,0,0-1.036,0l-4.435,2.534a1.045,1.045,0,0,0-.526.906v5.05a1.045,1.045,0,0,0,.526.906L18,23.7a1.046,1.046,0,0,0,1.036,0l4.434-2.534A1.045,1.045,0,0,0,24,20.264v-5.05A1.045,1.045,0,0,0,23.474,14.308Z"/><path d="M17.478,8.786V3.736a1.044,1.044,0,0,0-.525-.906L12.518.3a1.046,1.046,0,0,0-1.036,0L7.048,2.83a1.043,1.043,0,0,0-.526.906v5.05a1.043,1.043,0,0,0,.526.906l4.434,2.534a1.046,1.046,0,0,0,1.036,0l4.435-2.534A1.044,1.044,0,0,0,17.478,8.786Z"/></svg>