<svg id="Bold" xmlns="http://www.w3.org/2000/svg" viewBox="0 0 24 24"><title>footwear-boots-cowboy</title><path d="M18.761.067a.5.5,0,0,0-.565.5V6.937a1.5,1.5,0,1,1-3,0V.569a.5.5,0,0,0-.567-.5c-1.523.205-2.993.656-3.614,1.463a1.49,1.49,0,0,0-.3,1.1l1.325,10.571a1.488,1.488,0,0,1-.436,1.258,7.152,7.152,0,0,1-2.949,1.387A12.421,12.421,0,0,0,1.818,20.18a2.843,2.843,0,0,0-.278.413,2.251,2.251,0,0,0,.76,2.848,3.361,3.361,0,0,0,1.64.5h9.825a1,1,0,0,0,.964-.74,5.229,5.229,0,0,1,2.207-2.949.5.5,0,0,1,.76.427v2.262a1,1,0,0,0,1,1h3a1,1,0,0,0,1-1V2.437C22.7,1.115,20.93.352,18.761.067Z"/></svg>