<svg id="Bold" xmlns="http://www.w3.org/2000/svg" viewBox="0 0 24 24"><title>fossil-energy-barrel</title><path d="M21.5,22h-1a.25.25,0,0,1-.25-.25V18a.25.25,0,0,0-.25-.25H4a.25.25,0,0,0-.25.25v3.75A.25.25,0,0,1,3.5,22h-1a1,1,0,0,0,0,2h19a1,1,0,0,0,0-2Z"/><path d="M21.5,14.25h-1a.25.25,0,0,1-.25-.25V10A.25.25,0,0,0,20,9.75H4a.25.25,0,0,0-.25.25v4a.25.25,0,0,1-.25.25h-1a1,1,0,0,0,0,2h19a1,1,0,0,0,0-2Z"/><path d="M21.5,6.25h-1A.25.25,0,0,1,20.25,6V2.25A.25.25,0,0,1,20.5,2h1a1,1,0,0,0,0-2H2.5a1,1,0,0,0,0,2h1a.25.25,0,0,1,.25.25V6a.25.25,0,0,1-.25.25h-1a1,1,0,0,0,0,2h19a1,1,0,0,0,0-2Z"/></svg>