<svg id="Bold" xmlns="http://www.w3.org/2000/svg" viewBox="0 0 24 24"><title>fossil-energy-plant</title><path d="M21.5,22h-.966a.25.25,0,0,1-.229-.149L15.784,11.6a.249.249,0,0,1,.229-.351H16.5a1,1,0,0,0,0-2H14.91a.25.25,0,0,1-.229-.149l-1.766-4A1,1,0,0,0,12,4.5h0a1,1,0,0,0-.915.6l-1.762,4a.251.251,0,0,1-.229.149H7.5a1,1,0,0,0,0,2h.493a.249.249,0,0,1,.229.351L3.71,21.851A.25.25,0,0,1,3.482,22H2.5a1,1,0,0,0,0,2h19a1,1,0,0,0,0-2Zm-6.764-7.018a.25.25,0,0,1,.218-.055.247.247,0,0,1,.174.143l1.211,2.745a.25.25,0,0,1-.392.29l-2.195-1.894a.252.252,0,0,1-.087-.189.255.255,0,0,1,.086-.19ZM11.6,8.9l.176-.4a.25.25,0,0,1,.458,0l.176.4a.249.249,0,0,1-.228.351h-.353A.25.25,0,0,1,11.6,8.9ZM9.932,12.681,10.5,11.4a.25.25,0,0,1,.229-.149H13.28a.25.25,0,0,1,.229.149l.564,1.279a.251.251,0,0,1-.065.29L12.165,14.56a.25.25,0,0,1-.327,0L10,12.971A.249.249,0,0,1,9.932,12.681ZM7.673,17.813l1.205-2.738a.249.249,0,0,1,.392-.089l.983.848a.251.251,0,0,1,0,.378L8.065,18.1a.25.25,0,0,1-.392-.29Zm9.287,4.024a.249.249,0,0,1-.234.163H7.286a.25.25,0,0,1-.164-.439l4.717-4.076a.25.25,0,0,1,.327,0l4.723,4.076A.247.247,0,0,1,16.96,21.837Z"/><path d="M14.247,4.2a1,1,0,0,0,1.395-.231,2.514,2.514,0,0,1,2.848-.906,1,1,0,0,0,.653-1.891A4.523,4.523,0,0,0,14.016,2.8,1,1,0,0,0,14.247,4.2Z"/><path d="M5.51,3.061a2.514,2.514,0,0,1,2.848.906A1,1,0,1,0,9.984,2.8,4.523,4.523,0,0,0,4.857,1.17,1,1,0,0,0,5.51,3.061Z"/><path d="M12,3.25a1,1,0,0,0,1-1V1a1,1,0,0,0-2,0V2.25A1,1,0,0,0,12,3.25Z"/></svg>