<svg id="Bold" xmlns="http://www.w3.org/2000/svg" viewBox="0 0 24 24"><title>fossil-energy-plant-alternate</title><path d="M12,2.5a1,1,0,0,0,1-1V1a1,1,0,0,0-2,0v.5A1,1,0,0,0,12,2.5Z"/><path d="M18.76,22.71,16.1,13.939a.248.248,0,0,1-.006-.121l.394-1.97a.5.5,0,0,0-.49-.6H8a.5.5,0,0,0-.49.6l.394,1.97a.248.248,0,0,1-.006.121L5.24,22.71A1,1,0,0,0,6.8,23.8L11.85,20a.249.249,0,0,1,.3,0L17.2,23.8A1,1,0,0,0,18.76,22.71Zm-8.689-3.877L8.653,19.9a.25.25,0,0,1-.389-.272L8.79,17.89a.251.251,0,0,1,.39-.127l.891.671A.249.249,0,0,1,10.071,18.833Zm1.779-1.564-2.2-1.654a.25.25,0,0,1-.089-.272l.126-.415a.25.25,0,0,1,.239-.178h4.146a.25.25,0,0,1,.239.178l.125.415a.25.25,0,0,1-.088.272l-2.2,1.654A.249.249,0,0,1,11.85,17.269Zm3.5,2.631-1.417-1.067a.249.249,0,0,1,0-.4l.891-.671a.25.25,0,0,1,.389.127l.527,1.738A.25.25,0,0,1,15.346,19.9Z"/><path d="M9.75,6.75h4.5a.75.75,0,0,0,0-1.5h-.394a.25.25,0,0,1-.249-.229l-.026-.316a1.586,1.586,0,0,0-3.162,0l-.026.316a.251.251,0,0,1-.25.229H9.75a.75.75,0,0,0,0,1.5Z"/><path d="M13.605,7.75H10.4a.25.25,0,0,0-.249.229L10,9.708a.5.5,0,0,0,.5.542h3a.5.5,0,0,0,.5-.542l-.144-1.729A.25.25,0,0,0,13.605,7.75Z"/></svg>