<svg id="Bold" xmlns="http://www.w3.org/2000/svg" viewBox="0 0 24 24"><title>fruit-scale</title><path d="M2.122,16.25a.249.249,0,0,0-.247.209l-.48,2.88A2.5,2.5,0,0,0,3.86,22.25H20.139a2.5,2.5,0,0,0,2.466-2.91l-.48-2.881a.249.249,0,0,0-.247-.209Zm8.045,3.833H4.833a.833.833,0,1,1,0-1.666h5.334a.833.833,0,0,1,0,1.666ZM18.5,18.25a1,1,0,1,1-1,1A1,1,0,0,1,18.5,18.25Zm-3.042,0a1,1,0,1,1-1,1A1,1,0,0,1,15.458,18.25Z"/><path d="M22.811,11.922l.03-.1A.25.25,0,0,0,22.6,11.5H1.4a.25.25,0,0,0-.239.325l.03.1c.392,1.261.88,2.83,2.752,2.83H20.059C21.929,14.75,22.4,13.247,22.811,11.922Z"/><path d="M22.107,10a.251.251,0,0,0,.229-.352L19.221,2.641a1.5,1.5,0,0,0-1.37-.891H6.149a1.5,1.5,0,0,0-1.37.891L1.665,9.648a.249.249,0,0,0,.018.238.251.251,0,0,0,.21.114Z"/></svg>