<svg id="Bold" xmlns="http://www.w3.org/2000/svg" viewBox="0 0 24 24"><title>fruit-acorn</title><path d="M24,2.347a1.57,1.57,0,0,0-.463-1.117L22.77.466A1.566,1.566,0,0,0,21.653,0h0a1.568,1.568,0,0,0-1.116.463L18.806,2.2a.5.5,0,0,1-.632.061,10.176,10.176,0,0,0-11.3-.046h0A1.5,1.5,0,0,0,6.64,4.527L19.475,17.361a1.489,1.489,0,0,0,1.058.44c.051,0,.1,0,.154-.008a1.494,1.494,0,0,0,1.1-.667,10.171,10.171,0,0,0-.047-11.3A.5.5,0,0,1,21.8,5.2l1.73-1.732A1.57,1.57,0,0,0,24,2.347Zm-7,8.408a.75.75,0,1,1,.75.75A.75.75,0,0,1,17,10.755Zm1.75,3.75a.75.75,0,1,1,.75-.75A.75.75,0,0,1,18.747,14.505Zm2-2a.75.75,0,1,1,.75-.75A.75.75,0,0,1,20.747,12.505Z"/><path d="M18.458,18.468,5.532,5.542A.465.465,0,0,0,5.168,5.4a.5.5,0,0,0-.358.162C1.372,9.32-1.751,14.207,1.147,21.929a1.583,1.583,0,0,0,.925.924A16.454,16.454,0,0,0,7.873,24c4.542,0,7.849-2.322,10.569-4.807a.5.5,0,0,0,.016-.722Z"/></svg>