<svg id="Bold" xmlns="http://www.w3.org/2000/svg" viewBox="0 0 24 24"><title>fruit-strawberry</title><path d="M11.492,4.847A5.545,5.545,0,0,0,6.653.008,1.026,1.026,0,0,0,5.508,1.152a5.543,5.543,0,0,0,4.839,4.84,1.025,1.025,0,0,0,1.145-1.145Z"/><path d="M18.2.3a1.022,1.022,0,0,0-.852-.293,5.545,5.545,0,0,0-4.84,4.839,1.025,1.025,0,0,0,1.145,1.145,5.543,5.543,0,0,0,4.839-4.84A1.02,1.02,0,0,0,18.2.3Z"/><path d="M16,7,7.944,7c-3.132.351-4.825,2.413-4.645,5.66C3.563,17.4,8,24,12,24s8.437-6.6,8.7-11.337C20.881,9.416,19.188,7.354,16,7Zm-4,3a1,1,0,1,1-1,1A1,1,0,0,1,12,10ZM7.5,12a1,1,0,1,1,1-1A1,1,0,0,1,7.5,12ZM10,16.5a1,1,0,1,1,1-1A1,1,0,0,1,10,16.5ZM12,21a1,1,0,1,1,1-1A1,1,0,0,1,12,21Zm2-4.5a1,1,0,1,1,1-1A1,1,0,0,1,14,16.5ZM16.5,12a1,1,0,1,1,1-1A1,1,0,0,1,16.5,12Z"/></svg>