<svg id="Bold" xmlns="http://www.w3.org/2000/svg" viewBox="0 0 24 24"><title>gardening-sprinkle-bottle</title><path d="M23.775,11.51,22.309,5.646a2.5,2.5,0,0,0-2.425-1.894h-1.62a.5.5,0,0,0-.485.621l.5,2a.5.5,0,0,0,.485.379h.4a.5.5,0,0,1,.486.378L20.865,12a1,1,0,0,0,.971.757H22.8a1,1,0,0,0,.971-1.242Z"/><path d="M4.2,5.252a.75.75,0,0,0-.75-.75H.945a.75.75,0,0,0,0,1.5h2.5A.75.75,0,0,0,4.2,5.252Z"/><path d="M3.861,2.128l-1.5-1a.75.75,0,0,0-.832,1.248l1.5,1a.75.75,0,1,0,.832-1.248Z"/><path d="M3.029,7.128l-1.5,1a.75.75,0,0,0,.832,1.248l1.5-1a.75.75,0,0,0-.832-1.248Z"/><path d="M17.673,8.023c-.032-.1-.061-.195-.086-.294L16.673,4.07a.751.751,0,0,0-.728-.568h-1a.5.5,0,0,1-.5-.5V1a1,1,0,0,0-2,0V3a.5.5,0,0,1-.5.5h-1a.749.749,0,0,0-.727.568.241.241,0,0,1-.233.182H8.562a.5.5,0,0,1-.372-.166,1,1,0,0,0-.745-.334h-2a.5.5,0,0,0-.5.5v2a.5.5,0,0,0,.5.5h2a1,1,0,0,0,.745-.333.5.5,0,0,1,.372-.167h.79a.248.248,0,0,1,.2.1.251.251,0,0,1,.045.215L9.3,7.729c-.025.1-.053.2-.086.294L7.9,11.974A3.993,3.993,0,0,0,7.7,13.238V21.5A2.5,2.5,0,0,0,10.2,24h6.5a2.5,2.5,0,0,0,2.5-2.5V13.238a4,4,0,0,0-.205-1.265ZM17.2,14.25a.5.5,0,0,1-.5.5H10.2a.5.5,0,0,1-.5-.5V13.076a1,1,0,0,1,.051-.316l1.139-3.416A.5.5,0,0,1,11.359,9h4.172a.5.5,0,0,1,.474.342l1.139,3.416a1,1,0,0,1,.051.316Z"/></svg>