<svg id="Bold" xmlns="http://www.w3.org/2000/svg" viewBox="0 0 24 24"><title>gardening-spirinkler</title><path d="M7.455,1.9A2.894,2.894,0,0,0,7.315.5,1,1,0,1,0,5.589,1.505a2.911,2.911,0,0,0,1.156.812.5.5,0,0,0,.71-.415Z"/><path d="M2.284,10.089A2.9,2.9,0,0,0,1,9.5a1,1,0,0,0,0,2,2.9,2.9,0,0,0,1.284-.589.5.5,0,0,0,0-.822Z"/><path d="M5.784,10.089A2.9,2.9,0,0,0,4.5,9.5a1,1,0,0,0,0,2,2.9,2.9,0,0,0,1.284-.589.5.5,0,0,0,0-.822Z"/><path d="M3.774,5.748a.5.5,0,0,0,.019-.464,2.886,2.886,0,0,0-.818-1.152,1,1,0,1,0-1,1.731A2.965,2.965,0,0,0,3.381,6,.5.5,0,0,0,3.774,5.748Z"/><path d="M6.006,5.883a1,1,0,0,0-1,1.731,2.98,2.98,0,0,0,1.407.133.5.5,0,0,0,.412-.712A2.906,2.906,0,0,0,6.006,5.883Z"/><path d="M7.354,4.528A2.908,2.908,0,0,0,8.51,5.34a.5.5,0,0,0,.71-.415,2.91,2.91,0,0,0-.139-1.406A1,1,0,1,0,7.354,4.528Z"/><path d="M18.411,1.505A1,1,0,1,0,16.685.5a2.894,2.894,0,0,0-.14,1.406.5.5,0,0,0,.71.415A2.911,2.911,0,0,0,18.411,1.505Z"/><path d="M23,9.5a2.9,2.9,0,0,0-1.284.589.5.5,0,0,0,0,.822A2.9,2.9,0,0,0,23,11.5a1,1,0,0,0,0-2Z"/><path d="M19.5,9.5a2.9,2.9,0,0,0-1.284.589.5.5,0,0,0,0,.822A2.9,2.9,0,0,0,19.5,11.5a1,1,0,0,0,0-2Z"/><path d="M22.392,4.5a1,1,0,0,0-1.367-.366,2.886,2.886,0,0,0-.818,1.152A.5.5,0,0,0,20.619,6a2.965,2.965,0,0,0,1.406-.133A1,1,0,0,0,22.392,4.5Z"/><path d="M19,7.614a1,1,0,1,0-1-1.731,2.906,2.906,0,0,0-.818,1.152.5.5,0,0,0,.412.712A2.98,2.98,0,0,0,19,7.614Z"/><path d="M15.026,5.319a.5.5,0,0,0,.464.021,2.908,2.908,0,0,0,1.156-.812,1,1,0,0,0-1.727-1.009,2.91,2.91,0,0,0-.139,1.406A.5.5,0,0,0,15.026,5.319Z"/><path d="M13.367,6.112a.5.5,0,0,1-.4-.37.938.938,0,0,0-.139-.3,1,1,0,0,0-1.658,0,.938.938,0,0,0-.139.3.5.5,0,0,1-.4.37C8.36,6.506,7,7.921,7,10c0,2.033,2.455,3.992,3.782,4.9a.5.5,0,0,1,.218.413v.51a.5.5,0,0,1-.192.394.937.937,0,0,0-.357.6L9.086,22.858A1,1,0,0,0,10.076,24h3.848a1,1,0,0,0,.99-1.142l-1.365-6.039a.937.937,0,0,0-.357-.6A.5.5,0,0,1,13,15.824v-.51a.5.5,0,0,1,.218-.413C14.545,13.992,17,12.033,17,10,17,7.921,15.64,6.506,13.367,6.112ZM11,12.024a.249.249,0,0,1-.415.187C9.711,11.44,9,10.6,9,10a1.887,1.887,0,0,1,1.691-1.86.25.25,0,0,1,.214.047.247.247,0,0,1,.1.2Zm2.415.187A.249.249,0,0,1,13,12.024V8.383a.247.247,0,0,1,.1-.2.25.25,0,0,1,.214-.047A1.887,1.887,0,0,1,15,10C15,10.6,14.289,11.44,13.415,12.211Z"/></svg>