<svg id="Bold" xmlns="http://www.w3.org/2000/svg" viewBox="0 0 24 24"><title>gardening-watering-pipe</title><path d="M23.11.954,19.055.5a.493.493,0,0,0-.388.124A.5.5,0,0,0,18.5,1V4a.5.5,0,0,0,.5.5.493.493,0,0,0,.055,0l4.055-.451A1,1,0,0,0,24,3.053V1.947A1,1,0,0,0,23.11.954Z"/><path d="M15.25,6.5H11a7,7,0,0,0,0,14h3.75a5.25,5.25,0,0,0,0-10.5H11.5a3.5,3.5,0,0,0,0,7h3a1,1,0,0,0,0-2h-3a1.5,1.5,0,0,1,0-3h3.25a3.25,3.25,0,0,1,0,6.5H11a5,5,0,0,1,0-10h4.25a6.75,6.75,0,0,1,0,13.5h-4A9.25,9.25,0,0,1,9.887,3.6a.5.5,0,0,1,.5.228A2.5,2.5,0,0,0,12.5,5h4a1,1,0,0,0,1-1V1a1,1,0,0,0-1-1h-4a2.5,2.5,0,0,0-2.2,1.32.5.5,0,0,1-.382.259A11.25,11.25,0,0,0,11.25,24h4a8.75,8.75,0,0,0,0-17.5Z"/></svg>