<svg id="Bold" xmlns="http://www.w3.org/2000/svg" viewBox="0 0 24 24"><title>gardening-seed-bag</title><path d="M1.137,21.727a1.137,1.137,0,1,0,1.137,1.136A1.137,1.137,0,0,0,1.137,21.727Z"/><path d="M4.684,21.727a1.137,1.137,0,1,0,1.138,1.136A1.137,1.137,0,0,0,4.684,21.727Z"/><path d="M8.232,21.727a1.137,1.137,0,1,0,1.137,1.136A1.137,1.137,0,0,0,8.232,21.727Z"/><path d="M4.639,19.907A1.137,1.137,0,1,0,3.5,21.044,1.138,1.138,0,0,0,4.639,19.907Z"/><path d="M8.186,19.907A1.137,1.137,0,1,0,7.05,21.044,1.138,1.138,0,0,0,8.186,19.907Z"/><path d="M7,16.95a1.137,1.137,0,1,0-1.137,1.138A1.138,1.138,0,0,0,7,16.95Z"/><path d="M23.908,11.836,19.925.984A1.5,1.5,0,0,0,17.734.221L16.688.872,4.015,5.523a1.5,1.5,0,0,0-.892,1.925l2.24,6.1a1,1,0,0,0,1.283.595l.47-.173a.5.5,0,0,1,.641.3l.345.939a1,1,0,0,0,1.283.594l.939-.344a.5.5,0,0,1,.641.3l.345.939a1,1,0,0,0,1.283.594l8.824-3.249,1.313-.2a1.5,1.5,0,0,0,1.178-2Zm-7.1-.915a3.234,3.234,0,0,1-2.907.813,2.068,2.068,0,0,1-.681-.37.5.5,0,0,1-.088-.686,6.893,6.893,0,0,1,2.843-2.47.5.5,0,0,0-.336-.942c-2.105.744-4.03,3.548-4.951,5.569a.5.5,0,0,1-.915-.405,17.247,17.247,0,0,1,1.754-2.961.5.5,0,0,0,.024-.56,2.175,2.175,0,0,1-.342-1.426,2.734,2.734,0,0,1,1.622-2.006,6.965,6.965,0,0,1,2.349-.614,6.5,6.5,0,0,0,2.654-.778.5.5,0,0,1,.727.279A7.3,7.3,0,0,1,16.812,10.921Z"/></svg>