<svg xmlns="http://www.w3.org/2000/svg" viewBox="0 0 24 24"><title>gas-can</title><path d="M2.46,5.507A2.718,2.718,0,0,1,3.3,5.375H7.2a.25.25,0,0,0,.2-.395L4.446.846a1.847,1.847,0,0,0-1.4-.721h-1.5A1.074,1.074,0,0,0,.625.6,1.072,1.072,0,0,0,.553,1.63l1.6,3.737A.25.25,0,0,0,2.46,5.507Z"/><path d="M20.8.875H13.3a2.521,2.521,0,0,0-2.118,1.309L9.072,6.4a1.046,1.046,0,0,1-.777.48h-5a1.252,1.252,0,0,0-1.25,1.25v14a1.753,1.753,0,0,0,1.75,1.75h18a1.752,1.752,0,0,0,1.75-1.75V3.625A2.752,2.752,0,0,0,20.8.875ZM14.437,15.852,18,19.418a1,1,0,1,1-1.414,1.414l-3.565-3.566a.25.25,0,0,0-.353,0L9.1,20.832A1,1,0,0,1,7.69,19.418l3.566-3.566a.25.25,0,0,0,0-.354L7.69,11.932A1,1,0,0,1,9.1,10.518l3.566,3.566a.25.25,0,0,0,.353,0l3.565-3.566A1,1,0,1,1,18,11.932L14.437,15.5A.25.25,0,0,0,14.437,15.852ZM20.8,6.625a1,1,0,0,1-1,1H13.3L13,7.332a1.487,1.487,0,0,1-.259-1.6l.605-1.21A1.775,1.775,0,0,1,14.8,3.625h5a1,1,0,0,1,1,1Z"/></svg>