<svg id="Bold" xmlns="http://www.w3.org/2000/svg" viewBox="0 0 24 24"><title>glasses-ski-1</title><path d="M20.626,8.375H18.563a.25.25,0,0,1-.16-.442l.194-.161A.9.9,0,0,0,18,6.125H6a.9.9,0,0,0-.6,1.647l.194.161a.25.25,0,0,1-.16.442H3.374C.585,8.375,0,10.007,0,11.375c0,4.013,2.71,6.162,5.228,6.461a5.413,5.413,0,0,0,6-4.414.779.779,0,0,1,1.54,0,5.416,5.416,0,0,0,5.346,4.453,5.489,5.489,0,0,0,.656-.039C21.29,17.537,24,15.388,24,11.375,24,10.007,23.415,8.375,20.626,8.375Zm-5.788.576a.745.745,0,0,1-.48.174H9.642a.745.745,0,0,1-.48-.174L8.1,8.067a.25.25,0,0,1,.16-.442h7.478a.25.25,0,0,1,.16.442Z"/></svg>