<svg id="Bold" xmlns="http://www.w3.org/2000/svg" viewBox="0 0 24 24"><title>global-warming-dead-plant</title><path d="M15.25,7.5a2.436,2.436,0,0,0,.566,1.648A1.862,1.862,0,0,1,16.25,10.5a3.175,3.175,0,0,1-.351,1.526A1,1,0,0,0,16.78,13.5h2.94a1,1,0,0,0,.88-1.475,3.179,3.179,0,0,1-.35-1.525,1.862,1.862,0,0,1,.434-1.352A2.436,2.436,0,0,0,21.25,7.5c0-1.579-1.886-2-3-2S15.25,5.921,15.25,7.5Z"/><path d="M23,22H13.25a.5.5,0,0,1-.5-.5V15.159a.25.25,0,0,1,.341-.233,1.176,1.176,0,0,1,.717.55,1.223,1.223,0,0,1,.043.67,2.366,2.366,0,0,0,.567,2.369,3.291,3.291,0,0,1,.751,1.69,1,1,0,0,0,1.378.712,2.926,2.926,0,0,0,1.7-3.345,3.4,3.4,0,0,0-1.309-2.443,2.831,2.831,0,0,0-1.081-.459.5.5,0,0,1-.336-.245,3.7,3.7,0,0,0-2.393-1.582.5.5,0,0,1-.377-.485V4a2,2,0,0,1,3.972-.335,1,1,0,0,0,1.973-.33A4,4,0,0,0,10.75,4V7.468a.5.5,0,0,1-.376.484A3.7,3.7,0,0,0,7.981,9.534a.5.5,0,0,1-.337.246,2.843,2.843,0,0,0-1.081.458,3.4,3.4,0,0,0-1.309,2.444,2.924,2.924,0,0,0,1.7,3.344,1,1,0,0,0,1.378-.712,3.3,3.3,0,0,1,.751-1.69,2.364,2.364,0,0,0,.567-2.368,1.227,1.227,0,0,1,.043-.671,1.183,1.183,0,0,1,.717-.55.25.25,0,0,1,.341.233V21.5a.5.5,0,0,1-.5.5H1a1,1,0,0,0,0,2H23a1,1,0,0,0,0-2Z"/></svg>