<svg id="Bold" xmlns="http://www.w3.org/2000/svg" viewBox="0 0 24 24"><title>gmo-food-chicken-leg</title><circle cx="3.545" cy="17.5" r="1"/><path d="M23.662,4.293l-4-4a1,1,0,1,0-1.414,1.414l.564.564a.5.5,0,0,1,0,.707l-.682.682a.5.5,0,0,1-.707,0L15.677,1.914a1,1,0,1,0-1.414,1.414l.759.759a.429.429,0,0,1,0,.6.426.426,0,0,0,0,.6l1.112,1.113a.5.5,0,1,1-.707.707L14.366,6.053a.5.5,0,0,0-.707,0l-.859.86a.5.5,0,0,0,0,.707l1.008,1.009a.5.5,0,0,1-.707.707L12.093,8.327a.5.5,0,0,0-.354-.147.5.5,0,0,0-.353.147l-.3.3a3,3,0,0,0-.7,3.129.5.5,0,0,1-.117.521l-.2.2a.5.5,0,0,1-.617.071A11.259,11.259,0,0,0,3.545,11c-1.995,0-3.5,2.794-3.5,6.5S1.55,24,3.545,24c3.687,0,6.789-1.524,8.194-3.765A.5.5,0,0,1,12.163,20H15.1a2.5,2.5,0,1,0,4.613-1.75.5.5,0,0,1,0-.5,2.5,2.5,0,1,0-4.52-2.083.5.5,0,0,1-.471.333h-2.05a.5.5,0,0,1-.466-.318,5.336,5.336,0,0,0-.231-.513.251.251,0,0,0-.4-.062l-2.9,2.9a.5.5,0,1,1-.707-.707l3.63-3.63a.5.5,0,0,1,.533-.113,3,3,0,0,0,3.194-.68l3.89-3.89a.5.5,0,0,1,.707,0l.707.707a1,1,0,0,0,1.414-1.414L20.3,6.532a.5.5,0,0,1,0-.707l.682-.681a.5.5,0,0,1,.707,0l.564.563a1,1,0,0,0,1.414-1.414ZM13.045,17.5h2.768a.75.75,0,0,0,.567-.259.743.743,0,0,0,.175-.6,1.135,1.135,0,0,1-.01-.144,1,1,0,1,1,1.515.857.751.751,0,0,0,0,1.286,1,1,0,1,1-1.515.857,1.135,1.135,0,0,1,.01-.144.743.743,0,0,0-.175-.6.75.75,0,0,0-.567-.259H13.045a.5.5,0,0,1,0-1Zm-9.5,5c-.815,0-2-1.948-2-5s1.185-5,2-5,2,1.948,2,5S4.361,22.5,3.545,22.5Z"/></svg>