<svg id="Bold" xmlns="http://www.w3.org/2000/svg" viewBox="0 0 24 24"><title>gmo-food-lab-bag</title><path d="M20.692,20.765a1,1,0,0,1-.078-.683q.126-.513.253-1.022A28.884,28.884,0,0,0,22,12a28.884,28.884,0,0,0-1.133-7.06q-.128-.509-.253-1.022a1,1,0,0,1,.078-.683l.532-1.064A1.5,1.5,0,0,0,19.882,0H4.118A1.5,1.5,0,0,0,2.776,2.171l.533,1.064a1,1,0,0,1,.077.683q-.125.51-.251,1.017A28.877,28.877,0,0,0,2,12a28.884,28.884,0,0,0,1.133,7.06q.127.509.253,1.022a1,1,0,0,1-.078.683l-.532,1.064A1.5,1.5,0,0,0,4.118,24H19.882a1.5,1.5,0,0,0,1.342-2.171ZM14.5,2.591a.75.75,0,1,1-.75.75A.75.75,0,0,1,14.5,2.591Zm-2.3,2.09a.955.955,0,1,1-.954.955A.954.954,0,0,1,12.2,4.681ZM15.25,9.5H15a.5.5,0,0,0-.5.5v6a2.5,2.5,0,0,1-5,0V10A.5.5,0,0,0,9,9.5H8.75a.75.75,0,0,1,0-1.5h6.5a.75.75,0,0,1,0,1.5Z"/><rect x="11" y="9.5" width="2" height="4.091" rx="0.5" ry="0.5"/></svg>