<svg xmlns="http://www.w3.org/2000/svg" viewBox="0 0 24 24"><title>gold-bars</title><path d="M9.427,16.783A1,1,0,0,0,8.451,16H3.056a1,1,0,0,0-.977.783l-1.555,6A1,1,0,0,0,1.5,24h8.507a1,1,0,0,0,.976-1.217Z"/><path d="M21.427,16.783A1,1,0,0,0,20.451,16h-5.4a1,1,0,0,0-.977.783l-1.555,6A1,1,0,0,0,13.5,24h8.507a1,1,0,0,0,.976-1.217Z"/><path d="M8.079,7.283l-1.555,6A1,1,0,0,0,7.5,14.5h8.507a1,1,0,0,0,.976-1.217l-1.556-6a1,1,0,0,0-.976-.783h-5.4A1,1,0,0,0,8.079,7.283Z"/><path d="M3.853,8.471a.749.749,0,0,0,.734.743H4.6A.751.751,0,0,0,5.352,8.5,3.57,3.57,0,0,1,8.46,5.357a.75.75,0,0,0,.016-1.5A3.42,3.42,0,0,1,5.353.777V.75A.749.749,0,0,0,4.6,0h0a.749.749,0,0,0-.75.748A3.421,3.421,0,0,1,.734,3.857.745.745,0,0,0,0,4.612a.753.753,0,0,0,.754.745A3.344,3.344,0,0,1,3.853,8.471Z"/><path d="M23.571,9.005l-.265-.038a1.507,1.507,0,0,1-1.273-1.273L22,7.429a.5.5,0,0,0-.99,0l-.038.265a1.507,1.507,0,0,1-1.274,1.273l-.264.038a.5.5,0,0,0,0,.99l.265.038a1.507,1.507,0,0,1,1.273,1.273l.038.265a.5.5,0,0,0,.99,0l.038-.265a1.507,1.507,0,0,1,1.274-1.273l.264-.038a.5.5,0,0,0,0-.99Z"/></svg>