<svg id="Bold" xmlns="http://www.w3.org/2000/svg" viewBox="0 0 24 24"><title>golf-cart</title><path d="M19.942,3.666A2.5,2.5,0,0,0,17.585,2H2.415A2.5,2.5,0,0,0,.057,3.668,1,1,0,0,0,1,5H19a1,1,0,0,0,.942-1.334Z"/><path d="M15.137,13.18a.5.5,0,0,0,.088-.7l-.582-.749a.5.5,0,0,1,.088-.7l.129-.1a.75.75,0,1,0-.92-1.185l-2.233,1.736a.749.749,0,0,0,.919,1.184l.131-.1a.5.5,0,0,1,.7.088l.583.75a.5.5,0,0,0,.7.088Z"/><circle cx="20" cy="20" r="2"/><path d="M24,15.5A3.5,3.5,0,0,0,20.5,12a.9.9,0,0,1-.837-.58l-1.723-4.6a.5.5,0,0,0-.468-.324H16.4a.5.5,0,0,0-.468.676l1.785,4.76a1,1,0,0,1-.336,1.151L14.9,14.949a1,1,0,0,0-.4.8V17.5a.5.5,0,0,1-.5.5H11.5a.5.5,0,0,1-.5-.5v-1A1.5,1.5,0,0,0,9.5,15h-2a.5.5,0,0,1-.5-.5v-2A1.5,1.5,0,0,0,5.5,11H5a.5.5,0,0,1-.5-.5V7A.5.5,0,0,0,4,6.5H3a.5.5,0,0,0-.5.5v3.542a.5.5,0,0,1-.417.493A2.5,2.5,0,0,0,0,13.5V19a1,1,0,0,0,1,1,.542.542,0,0,0,.535-.458,3,3,0,0,1,5.935.03A.5.5,0,0,0,7.964,20h8.572a.5.5,0,0,0,.494-.428,3,3,0,0,1,5.935-.03A.541.541,0,0,0,23.5,20a.5.5,0,0,0,.5-.5Z"/><circle cx="4.5" cy="20" r="2"/></svg>