<svg id="Bold" xmlns="http://www.w3.org/2000/svg" viewBox="0 0 24 24"><title>gorilla</title><path d="M12,0C6.441,0,1.75,8.56,1.75,14.25,1.75,19.9,6.061,24,12,24s10.25-4.1,10.25-9.75C22.25,8.56,17.559,0,12,0ZM9.5,6.25a2.852,2.852,0,0,1,1.95.941c.187.17.442.4.55.4s.363-.231.55-.4A2.852,2.852,0,0,1,14.5,6.25,4,4,0,0,1,16.974,13.4,5.467,5.467,0,0,1,17.5,15.75c0,.122,0,.242-.012.361a30.286,30.286,0,0,1-10.976,0c-.008-.119-.012-.239-.012-.361A5.467,5.467,0,0,1,7.026,13.4,4,4,0,0,1,9.5,6.25Zm2.5,15a5.506,5.506,0,0,1-4.9-3.011,32.3,32.3,0,0,0,4.9.374,32.305,32.305,0,0,0,4.9-.374A5.506,5.506,0,0,1,12,21.25Z"/><circle cx="9.5" cy="10.25" r="1.25"/><circle cx="14.5" cy="10.25" r="1.25"/><path d="M9.668,13.2a1,1,0,0,0,.277,1.387,3.7,3.7,0,0,0,4.11,0,1,1,0,1,0-1.11-1.664,1.7,1.7,0,0,1-1.89,0A1,1,0,0,0,9.668,13.2Z"/></svg>