<svg xmlns="http://www.w3.org/2000/svg" viewBox="0 0 24 24"><title>graphic-tablet-pen</title><path d="M13.538,16.366a.248.248,0,0,0-.176-.073H8a1,1,0,0,1-1-1v-11a1,1,0,0,1,1-1H21a1,1,0,0,1,1,1v11a.994.994,0,0,1-.269.681.249.249,0,0,0,.006.347l1.206,1.207a.251.251,0,0,0,.357,0,2.492,2.492,0,0,0,.7-1.732v-12a2.5,2.5,0,0,0-2.5-2.5H2.5A2.5,2.5,0,0,0,0,3.793v12a2.5,2.5,0,0,0,2.5,2.5H14.862a.25.25,0,0,0,.176-.427ZM4.25,10.545H2.75a.75.75,0,0,1,0-1.5h1.5a.75.75,0,0,1,0,1.5Zm.75,3a.75.75,0,0,1-.75.75H2.75a.75.75,0,0,1,0-1.5h1.5A.75.75,0,0,1,5,13.545ZM4.25,6.8H2.75a.75.75,0,0,1,0-1.5h1.5a.75.75,0,0,1,0,1.5Z"/><path d="M13.669,10.375a.506.506,0,0,0-.2-.12l-1.94-.647a.5.5,0,0,0-.632.633l.646,1.939a.494.494,0,0,0,.121.2l9.917,9.917a1.414,1.414,0,0,0,2-2Z"/></svg>