<svg xmlns="http://www.w3.org/2000/svg" viewBox="0 0 24 24"><title>graph-statistics-coffee</title><path d="M18.252,15.707a1,1,0,0,0,1.414,0,2.378,2.378,0,0,0,.07-3.534c-.457-.606-.457-.606-.1-.966a1,1,0,1,0-1.414-1.414,2.409,2.409,0,0,0-.085,3.585,2.2,2.2,0,0,1,.36.574s-.02.112-.248.341A1,1,0,0,0,18.252,15.707Z"/><path d="M13.5,17.548v2.976C13.5,22.571,15.174,24,17.571,24a3.944,3.944,0,0,0,3.342-1.444.251.251,0,0,1,.185-.1A2.8,2.8,0,0,0,24,19.929,2.637,2.637,0,0,0,21.775,17.5a.248.248,0,0,1-.173-.145.5.5,0,0,0-.459-.3H14A.5.5,0,0,0,13.5,17.548Zm8.143,1.878a.25.25,0,0,1,.131-.22.246.246,0,0,1,.255.011.9.9,0,0,1,.471.712.949.949,0,0,1-.562.767.2.2,0,0,1-.295-.172Z"/><path d="M2.5,12H6.75a.25.25,0,0,1,.25.25v1a.249.249,0,0,1-.25.25H3.625a1,1,0,0,0,0,2h9a1,1,0,0,0,0-2H9.25A.249.249,0,0,1,9,13.25v-1A.25.25,0,0,1,9.25,12H14a2.5,2.5,0,0,0,2.5-2.448c0-.017,0-.034,0-.052v-7A2.5,2.5,0,0,0,14,0H2.5A2.5,2.5,0,0,0,0,2.5v7c0,.018,0,.035,0,.052A2.5,2.5,0,0,0,2.5,12ZM2,2.5A.5.5,0,0,1,2.5,2H14a.5.5,0,0,1,.5.5V8a.5.5,0,0,1-.5.5H2.5A.5.5,0,0,1,2,8Z"/></svg>