<svg xmlns="http://www.w3.org/2000/svg" viewBox="0 0 24 24"><title>grid-perspective</title><path d="M6.772,9.6a.251.251,0,0,0-.288-.247l-3.226.5a.249.249,0,0,0-.212.247v3.8a.249.249,0,0,0,.212.247l3.226.5a.251.251,0,0,0,.288-.247Z"/><path d="M11.5,8.874a.251.251,0,0,0-.288-.247l-3.228.5a.249.249,0,0,0-.212.247v5.258a.249.249,0,0,0,.212.247l3.228.5a.251.251,0,0,0,.288-.247Z"/><path d="M16.228,9.371a.249.249,0,0,0-.212-.247l-3.228-.5a.251.251,0,0,0-.288.247v6.252a.251.251,0,0,0,.288.247l3.228-.5a.249.249,0,0,0,.212-.247Z"/><path d="M2.046,10.329a.251.251,0,0,0-.288-.248l-1.546.238A.251.251,0,0,0,0,10.567v2.866a.251.251,0,0,0,.212.248l1.546.238a.251.251,0,0,0,.288-.248Z"/><path d="M20.954,10.1a.249.249,0,0,0-.212-.247l-3.226-.5a.251.251,0,0,0-.288.247v4.8a.251.251,0,0,0,.288.247l3.226-.5a.249.249,0,0,0,.212-.247Z"/><path d="M24,10.567a.251.251,0,0,0-.212-.248l-1.546-.238a.251.251,0,0,0-.288.248v3.342a.251.251,0,0,0,.288.248l1.546-.238A.251.251,0,0,0,24,13.433Z"/><path d="M6.56,8.331a.25.25,0,0,0,.212-.247V5.19a.25.25,0,0,0-.105-.2.246.246,0,0,0-.226-.032L3.214,6.071a.249.249,0,0,0-.168.236V8.58a.249.249,0,0,0,.288.247Z"/><path d="M.288,14.7A.249.249,0,0,0,0,14.951v1.688a.251.251,0,0,0,.168.236l1.546.535a.249.249,0,0,0,.332-.236V15.189a.25.25,0,0,0-.212-.247Z"/><path d="M23.712,9.3A.249.249,0,0,0,24,9.049V7.361a.251.251,0,0,0-.168-.236L22.286,6.59a.249.249,0,0,0-.332.236V8.811a.25.25,0,0,0,.212.247Z"/><path d="M17.44,15.669a.25.25,0,0,0-.212.247V18.81a.25.25,0,0,0,.1.2.246.246,0,0,0,.226.032l3.227-1.117a.249.249,0,0,0,.168-.236V15.42a.249.249,0,0,0-.288-.247Z"/><path d="M11.5,16.643a.25.25,0,0,0-.212-.247L8.06,15.9a.25.25,0,0,0-.288.247v3.182a.251.251,0,0,0,.169.237l3.227,1.117a.251.251,0,0,0,.227-.033.248.248,0,0,0,.105-.2Z"/><path d="M24,14.951a.249.249,0,0,0-.288-.247l-1.546.238a.25.25,0,0,0-.212.247v1.985a.249.249,0,0,0,.332.236l1.546-.535A.251.251,0,0,0,24,16.639Z"/><path d="M16.228,16.147a.25.25,0,0,0-.288-.247l-3.228.5a.25.25,0,0,0-.212.247v3.8a.248.248,0,0,0,.105.2.251.251,0,0,0,.227.033l3.227-1.117a.251.251,0,0,0,.169-.237Z"/><path d="M11.5,2.144V1a.5.5,0,0,1,1,0V2.144L23.668,6.01A.249.249,0,0,0,24,5.774V2a2,2,0,0,0-2-2H2A2,2,0,0,0,0,2V5.774a.249.249,0,0,0,.332.236Z"/><path d="M12.5,21.856V23a.5.5,0,0,1-1,0V21.856L.332,17.99A.249.249,0,0,0,0,18.226V22a2,2,0,0,0,2,2H22a2,2,0,0,0,2-2V18.226a.249.249,0,0,0-.332-.236Z"/><path d="M17.228,8.084a.25.25,0,0,0,.212.247l3.226.5a.249.249,0,0,0,.288-.247V6.307a.249.249,0,0,0-.168-.236L17.559,4.954a.246.246,0,0,0-.226.032.25.25,0,0,0-.1.2Z"/><path d="M7.772,7.853A.25.25,0,0,0,8.06,8.1l3.228-.5a.25.25,0,0,0,.212-.247v-3.8a.248.248,0,0,0-.105-.2.251.251,0,0,0-.227-.033L7.941,4.434a.251.251,0,0,0-.169.237Z"/><path d="M6.772,15.916a.25.25,0,0,0-.212-.247l-3.226-.5a.249.249,0,0,0-.288.247v2.273a.249.249,0,0,0,.168.236l3.227,1.117a.246.246,0,0,0,.226-.032.25.25,0,0,0,.105-.2Z"/><path d="M12.5,7.357a.25.25,0,0,0,.212.247l3.228.5a.25.25,0,0,0,.288-.247V4.671a.251.251,0,0,0-.169-.237L12.832,3.317a.251.251,0,0,0-.227.033.248.248,0,0,0-.105.2Z"/><path d="M0,9.049A.249.249,0,0,0,.288,9.3l1.546-.238a.25.25,0,0,0,.212-.247V6.826a.249.249,0,0,0-.332-.236L.168,7.125A.251.251,0,0,0,0,7.361Z"/></svg>