<svg xmlns="http://www.w3.org/2000/svg" viewBox="0 0 24 24"><title>grid-ruler</title><path d="M24,2a2,2,0,0,0-2-2H2A2,2,0,0,0,0,2V22a2,2,0,0,0,2,2H16.5a3.741,3.741,0,0,0,2.414-1L23,18.914A3.745,3.745,0,0,0,24,16.5ZM18,16a2,2,0,0,0-2,2v3.75a.25.25,0,0,1-.25.25h-8a.25.25,0,0,1-.25-.25v-14a.25.25,0,0,1,.25-.25h14a.25.25,0,0,1,.25.25v8a.25.25,0,0,1-.25.25ZM22,5.75a.25.25,0,0,1-.25.25h-1.5A.25.25,0,0,1,20,5.75V4a.75.75,0,0,0-1.5,0V5.75a.25.25,0,0,1-.25.25h-2.5a.25.25,0,0,1-.25-.25V5A.75.75,0,0,0,14,5v.75a.25.25,0,0,1-.25.25h-2.5A.25.25,0,0,1,11,5.75V4A.75.75,0,0,0,9.5,4V5.75A.25.25,0,0,1,9.25,6H7.75a.25.25,0,0,1-.25-.25V2.25A.25.25,0,0,1,7.75,2H21.5a.5.5,0,0,1,.5.5ZM5.75,2A.25.25,0,0,1,6,2.25v3.5A.25.25,0,0,1,5.75,6H2.25A.25.25,0,0,1,2,5.75V2.5A.5.5,0,0,1,2.5,2ZM2,7.75a.25.25,0,0,1,.25-.25h3.5A.25.25,0,0,1,6,7.75v1.5a.25.25,0,0,1-.25.25H4A.75.75,0,0,0,4,11H5.75a.25.25,0,0,1,.25.25v2.5a.25.25,0,0,1-.25.25H5a.75.75,0,0,0,0,1.5h.75a.25.25,0,0,1,.25.25v2.5a.25.25,0,0,1-.25.25H4A.75.75,0,0,0,4,20H5.75a.25.25,0,0,1,.25.25v1.5a.25.25,0,0,1-.25.25H2.5a.5.5,0,0,1-.5-.5ZM18.427,20.659A.25.25,0,0,1,18,20.482V18.25a.25.25,0,0,1,.25-.25h2.232a.25.25,0,0,1,.177.427Z"/></svg>