<svg xmlns="http://www.w3.org/2000/svg" viewBox="0 0 24 24"><title>grid-ruler-alternate</title><path d="M15.25,17A1.752,1.752,0,0,1,17,15.25h6.75A.25.25,0,0,0,24,15V3a3,3,0,0,0-3-3H3A3,3,0,0,0,0,3V21a3,3,0,0,0,3,3H15a.25.25,0,0,0,.25-.25ZM22,7.25a.25.25,0,0,1-.25.25h-14a.25.25,0,0,0-.25.25v14a.25.25,0,0,1-.25.25h-1A.25.25,0,0,1,6,21.75v-2a.25.25,0,0,0-.25-.25H3A.75.75,0,0,1,3,18H5.75A.25.25,0,0,0,6,17.75v-2a.25.25,0,0,0-.25-.25H4A.75.75,0,0,1,4,14H5.75A.25.25,0,0,0,6,13.75v-2a.25.25,0,0,0-.25-.25H3A.75.75,0,0,1,3,10H5.75A.25.25,0,0,0,6,9.75v-2a.25.25,0,0,0-.25-.25H2.25A.25.25,0,0,1,2,7.25v-1A.25.25,0,0,1,2.25,6h3.5A.25.25,0,0,0,6,5.75V2.25A.25.25,0,0,1,6.25,2h1a.25.25,0,0,1,.25.25v3.5A.25.25,0,0,0,7.75,6h2A.25.25,0,0,0,10,5.75V3a.75.75,0,0,1,1.5,0V5.75a.25.25,0,0,0,.25.25h2A.25.25,0,0,0,14,5.75V4a.75.75,0,0,1,1.5,0V5.75a.25.25,0,0,0,.25.25h2A.25.25,0,0,0,18,5.75V3a.75.75,0,0,1,1.5,0V5.75a.25.25,0,0,0,.25.25h2a.25.25,0,0,1,.25.25Z"/><path d="M17,16.75a.253.253,0,0,0-.25.25v6.7a.251.251,0,0,0,.3.246A3.774,3.774,0,0,0,18.914,23L23,18.914a3.778,3.778,0,0,0,.945-1.867.251.251,0,0,0-.246-.3Z"/></svg>