<svg xmlns="http://www.w3.org/2000/svg" viewBox="0 0 24 24"><title>gun-silent</title><path d="M21.513,2.559,19.392.437a.5.5,0,0,0-.707,0L12.527,6.584a.5.5,0,0,0,0,.707l2.121,2.121a.5.5,0,0,0,.707,0l6.158-6.146A.5.5,0,0,0,21.513,2.559Z"/><path d="M14.649,12.24a.5.5,0,0,0,0-.707L11.114,8a.5.5,0,0,0-.707,0L5.1,13.3a.5.5,0,0,1-.707,0l-.348-.348a1,1,0,0,0-1.414,1.414l.378.378a.5.5,0,0,1,.053.643,2.506,2.506,0,0,0,.27,3.216l1.109,1.109a1,1,0,0,0,1.274.116,2.52,2.52,0,0,1,1.68-.594.677.677,0,0,1,.44.3l1.811,3.622a1.006,1.006,0,0,0,.734.54,1.087,1.087,0,0,0,.16.012,1,1,0,0,0,.708-.293l2.09-2.089a1,1,0,0,0,.2-1.13L12.9,18.82a.247.247,0,0,1,.05-.282l.922-.922a2.746,2.746,0,0,0,.515-3.175l-.565-1.13a.251.251,0,0,1,.047-.289Zm-3.531-1.408-6.01,6.01a.5.5,0,1,1-.708-.707l6.011-6.011a.5.5,0,0,1,.707.708Zm1.691,5.723-.408.408a.252.252,0,0,1-.22.069.248.248,0,0,1-.183-.14l-.563-1.206a.251.251,0,0,1,.05-.282l.891-.891a.25.25,0,0,1,.4.065l.267.534A1.249,1.249,0,0,1,12.809,16.555Z"/></svg>