<svg id="Bold" xmlns="http://www.w3.org/2000/svg" viewBox="0 0 24 24"><title>gymnastics-horse</title><circle cx="3" cy="2.5" r="2.5"/><path d="M5,14.5a1.5,1.5,0,0,0,3,0V10.548a.25.25,0,0,1,.376-.216L11.744,12.3a1.5,1.5,0,0,0,.756.2H22a1.5,1.5,0,0,0,0-3H16.725a.25.25,0,0,1-.177-.427l3.513-3.512a1.5,1.5,0,0,0-2.122-2.122L12.393,8.986a.25.25,0,0,1-.3.039L9.218,7.349A.25.25,0,0,1,9.1,7.165a.253.253,0,0,1,.071-.209l4.394-4.4A1.5,1.5,0,0,0,11.439.439L6.9,4.975A6.455,6.455,0,0,0,5,9.571Z"/><path d="M24,22a2.5,2.5,0,0,0-2.5-2.5H19.25a.25.25,0,0,0-.25.25V21a.5.5,0,0,1-1,0V17.97a1,1,0,0,0-2,0V19.5H8.25a.25.25,0,0,0-.25.25V21a.5.5,0,0,1-1,0V17.97a1,1,0,0,0-2,0V19.5H2.5A2.5,2.5,0,0,0,0,22v1.5a.5.5,0,0,0,.5.5h23a.5.5,0,0,0,.5-.5Z"/></svg>