<svg id="Bold" xmlns="http://www.w3.org/2000/svg" viewBox="0 0 24 24"><title>gymnastics-ribbon-person</title><path d="M9.648,20.952a.25.25,0,0,0-.273.249V24h3V21.138a.25.25,0,0,0-.285-.248,10.4,10.4,0,0,1-1.465.11C10.3,21,9.97,20.982,9.648,20.952Z"/><path d="M14.947,11.024a5.506,5.506,0,0,0-3.52-1.274H8.875a2.5,2.5,0,0,1-2.5-2.5V4.75a1.5,1.5,0,0,0-3,0v2.5a5.507,5.507,0,0,0,5.5,5.5h.5v3.92a.249.249,0,0,0,.212.247A6.71,6.71,0,0,0,10.625,17a7,7,0,0,0,1.556-.175.25.25,0,0,0,.194-.244V12.945a2.487,2.487,0,0,1,.651.384A7.177,7.177,0,0,0,15.413,14.9a.252.252,0,0,0,.268-.062,7.024,7.024,0,0,0,1.454-2.279.251.251,0,0,0-.2-.34A3.939,3.939,0,0,1,14.947,11.024Z"/><path d="M21.875,12.25h-.282a.251.251,0,0,0-.244.194,10.908,10.908,0,0,1-.872,2.445.25.25,0,0,0,.224.361h1.174a1.5,1.5,0,0,0,0-3Z"/><path d="M13.535,20.826a5.473,5.473,0,0,0,3.051.924h3.789a1.5,1.5,0,0,0,0-3H17.347a.243.243,0,0,0-.149.05,10.949,10.949,0,0,1-3.624,1.785.134.134,0,0,0-.039.241Z"/><path d="M20.625,10A9.989,9.989,0,0,0,4.764,1.908a.189.189,0,0,0,.111.342,2.477,2.477,0,0,1,1.689.667.251.251,0,0,0,.289.036A7.98,7.98,0,1,1,2.667,9.178,6.465,6.465,0,0,1,2.375,7.25V5.241a.25.25,0,0,0-.468-.122A9.908,9.908,0,0,0,.625,10a10,10,0,0,0,20,0Z"/><circle cx="11.375" cy="5.25" r="2.5"/></svg>