<svg id="Bold" xmlns="http://www.w3.org/2000/svg" viewBox="0 0 24 24"><title>gymnastics-rhythmic-ribbon</title><path d="M13.518,0A12.82,12.82,0,0,0,1.63,7.956a1,1,0,0,0,1.849.763A10.825,10.825,0,0,1,13.518,2,8.492,8.492,0,0,1,22,10.482a6.593,6.593,0,0,1-6.586,6.586A5.075,5.075,0,0,1,10.345,12,3.86,3.86,0,0,1,14.2,8.144a2.887,2.887,0,0,1,2.884,2.884,1,1,0,1,0,2,0A4.89,4.89,0,0,0,14.2,6.144,5.862,5.862,0,0,0,8.345,12a7.077,7.077,0,0,0,7.069,7.069A8.6,8.6,0,0,0,24,10.482,10.5,10.5,0,0,0,13.518,0Z"/><path d="M3.206,11.78a1.679,1.679,0,0,0-3.053,1.4l4.505,9.841a1.678,1.678,0,1,0,3.052-1.4Z"/></svg>