<svg id="Bold" xmlns="http://www.w3.org/2000/svg" viewBox="0 0 24 24"><title>gymnastics-jump</title><path d="M4.5,2.75H19.466a.25.25,0,0,0,.2-.393C18.787,1.091,16.05,0,11.981,0S5.174,1.091,4.29,2.357A.25.25,0,0,0,4.5,2.75Z"/><path d="M4.124,8.75H19.837a.5.5,0,0,0,.5-.537l-.262-3.5a.5.5,0,0,0-.5-.463H4.387a.5.5,0,0,0-.5.463l-.262,3.5a.5.5,0,0,0,.5.537Zm6.357-3h2.5a.75.75,0,1,1,0,1.5h-2.5a.75.75,0,0,1,0-1.5Z"/><path d="M21.479,23.462l-.431-5.749a.5.5,0,0,0-.5-.463H3.412a.5.5,0,0,0-.5.463l-.39,5.211A1,1,0,0,0,3.52,24H20.981a.5.5,0,0,0,.366-.16A.5.5,0,0,0,21.479,23.462Zm-8.5-2.712h-2.5a.75.75,0,0,1,0-1.5h2.5a.75.75,0,1,1,0,1.5Z"/><path d="M3.6,15.75H20.362a.5.5,0,0,0,.5-.537l-.337-4.5a.5.5,0,0,0-.5-.463H3.937a.5.5,0,0,0-.5.463l-.337,4.5a.5.5,0,0,0,.5.537Zm6.882-3.5h2.5a.75.75,0,1,1,0,1.5h-2.5a.75.75,0,0,1,0-1.5Z"/></svg>