<svg id="Bold" xmlns="http://www.w3.org/2000/svg" viewBox="0 0 24 24"><title>gymnastics-acrobatic-hanging-1</title><path d="M22.625,15.009a.5.5,0,0,1-.125-.33V1A1,1,0,0,0,20.557.667.5.5,0,0,1,20.085,1H3.915A.5.5,0,0,1,3.443.667,1,1,0,0,0,1.5,1V14.679a.5.5,0,0,1-.125.33A1.5,1.5,0,0,0,1,16v7a1,1,0,0,0,1,1H3a1,1,0,0,0,1-1V16a1.5,1.5,0,0,0-.375-.991.5.5,0,0,1-.125-.33V3.5A.5.5,0,0,1,4,3H6.5a.5.5,0,0,1,.5.5V8.563a.5.5,0,0,1-.3.459,3.25,3.25,0,1,0,2.6,0A.5.5,0,0,1,9,8.563V3.5A.5.5,0,0,1,9.5,3h5a.5.5,0,0,1,.5.5V8.563a.5.5,0,0,1-.3.459,3.25,3.25,0,1,0,2.6,0,.5.5,0,0,1-.3-.459V3.5a.5.5,0,0,1,.5-.5H20a.5.5,0,0,1,.5.5V14.679a.5.5,0,0,1-.125.33A1.5,1.5,0,0,0,20,16v7a1,1,0,0,0,1,1h1a1,1,0,0,0,1-1V16A1.5,1.5,0,0,0,22.625,15.009ZM9.25,12A1.25,1.25,0,1,1,8,10.75,1.252,1.252,0,0,1,9.25,12Zm8,0A1.25,1.25,0,1,1,16,10.75,1.252,1.252,0,0,1,17.25,12Z"/></svg>