<svg id="Bold" xmlns="http://www.w3.org/2000/svg" viewBox="0 0 24 24"><title>hair-skin-1</title><path d="M5.889,12.493A2.058,2.058,0,0,0,8,10.424V1A.988.988,0,0,0,7.155.014a.977.977,0,0,0-1.1.675A68.905,68.905,0,0,0,4,10.505,1.893,1.893,0,0,0,5.889,12.493Z"/><path d="M17.889,12.493A2.058,2.058,0,0,0,20,10.424V1a.988.988,0,0,0-.845-.991.975.975,0,0,0-1.1.675A68.905,68.905,0,0,0,16,10.505,1.893,1.893,0,0,0,17.889,12.493Z"/><path d="M23.5,10.5H21.968a1.025,1.025,0,0,0-1,.9,3,3,0,0,1-5.946,0c-.029-.211-.206-.9-1.284-.9H9.963a1.022,1.022,0,0,0-.99.9,3,3,0,0,1-5.946,0,1.025,1.025,0,0,0-1-.9H.5A.5.5,0,0,0,0,11V22.5A1.5,1.5,0,0,0,1.5,24h21A1.5,1.5,0,0,0,24,22.5V11A.5.5,0,0,0,23.5,10.5Zm-21,7.486h0A.993.993,0,1,1,2.5,16h0a.993.993,0,1,1,0,1.986ZM5.772,21.5h0a.993.993,0,1,1,0-1.986h0a.993.993,0,1,1,0,1.986Zm1.971-3.514h0a.993.993,0,1,1,0-1.986h0a.993.993,0,1,1,0,1.986ZM11.015,21.5h0a.993.993,0,1,1,0-1.986h0a.993.993,0,1,1,0,1.986Zm1.97-3.514h0a.993.993,0,1,1,0-1.986h0a.993.993,0,1,1,0,1.986ZM16.257,21.5h0a.993.993,0,1,1,0-1.986h0a.993.993,0,1,1,0,1.986Zm1.971-3.514h0a.993.993,0,1,1,0-1.986h0a.993.993,0,1,1,0,1.986ZM21.5,21.5h0a.993.993,0,1,1,0-1.986h0a.993.993,0,1,1,0,1.986Z"/></svg>