<svg id="Bold" xmlns="http://www.w3.org/2000/svg" viewBox="0 0 24 24"><title>hair-dress-round-brush</title><path d="M7.372,14.506a.5.5,0,0,0-.707,0L.6,20.567A2,2,0,1,0,3.432,23.4l6.061-6.061a.5.5,0,0,0,0-.707Z"/><path d="M23.688,8.089l-.81-.809a.355.355,0,0,1,0-.5,1.5,1.5,0,0,0,0-2.122L19.342,1.121a1.5,1.5,0,0,0-2.121,0,.356.356,0,0,1-.5,0L15.91.312A1,1,0,1,0,14.5,1.726l.706.706a.5.5,0,0,1,0,.707l-.54.541a.5.5,0,0,1-.707,0l-.707-.706a1,1,0,0,0-1.414,1.414l.707.706a.5.5,0,0,1,0,.708L12,6.341a.5.5,0,0,1-.707,0l-.706-.707A1,1,0,1,0,9.173,7.048l.706.707a.5.5,0,0,1,0,.707L9.338,9a.5.5,0,0,1-.707,0L7.925,8.3A1,1,0,0,0,6.511,9.71l.809.81a.352.352,0,0,1,0,.5,1.5,1.5,0,0,0,0,2.122l3.536,3.536a1.5,1.5,0,0,0,2.121,0,.355.355,0,0,1,.5,0l.809.81A1,1,0,0,0,15.7,16.073L15,15.367a.5.5,0,0,1,0-.707l.54-.54a.5.5,0,0,1,.353-.147.5.5,0,0,1,.354.146l.707.707a1,1,0,1,0,1.414-1.414l-.707-.706a.5.5,0,0,1-.147-.354A.5.5,0,0,1,17.658,12l.54-.541a.5.5,0,0,1,.708,0l.706.706a1,1,0,1,0,1.414-1.414l-.706-.706a.5.5,0,0,1,0-.707l.54-.54a.5.5,0,0,1,.707,0l.707.706a1,1,0,1,0,1.414-1.414ZM11.9,13.516a1,1,0,1,1,0-1.414A1,1,0,0,1,11.9,13.516ZM14.5,10.909a1,1,0,1,1,0-1.414A1,1,0,0,1,14.5,10.909ZM17.11,8.3a1,1,0,1,1,0-1.414A1,1,0,0,1,17.11,8.3ZM19.717,5.7a1,1,0,1,1,0-1.414A1,1,0,0,1,19.717,5.7Z"/></svg>