<svg id="Bold" xmlns="http://www.w3.org/2000/svg" viewBox="0 0 24 24"><title>hair-dress-brush</title><path d="M21.348,7.028a2.5,2.5,0,0,0,0-3.535,2.441,2.441,0,0,0-1.255-.663.5.5,0,0,1-.253-.137L17.458.312a1,1,0,1,0-1.414,1.414L17.458,3.14a.5.5,0,1,1-.707.707L15.337,2.433a1,1,0,1,0-1.414,1.414l1.414,1.414a.5.5,0,0,1-.707.707L13.216,4.554A1,1,0,0,0,11.8,5.968l1.414,1.414a.5.5,0,1,1-.707.707L11.1,6.675A1,1,0,1,0,9.681,8.089L12,10.4a.5.5,0,0,1,.144.407,1.5,1.5,0,0,1-.425.9L2.433,20.994a1.75,1.75,0,1,0,2.475,2.474Z"/></svg>