<svg id="Bold" xmlns="http://www.w3.org/2000/svg" viewBox="0 0 24 24"><title>hair-dress-bobby-pin</title><path d="M4.668,23.924a1.25,1.25,0,0,1-.884-2.134L19.462,6.112a2.073,2.073,0,0,0,0-2.932,2.075,2.075,0,0,0-2.931,0l-.6.6V5.96A1.553,1.553,0,0,1,14.38,7.512H12.931V8.96a1.553,1.553,0,0,1-1.551,1.552H9.931V11.96A1.553,1.553,0,0,1,8.38,13.512H6.2L3.565,16.146A1.25,1.25,0,0,1,1.8,14.378l2.854-2.853a1.736,1.736,0,0,1,1.237-.513H7.431V9.762a1.752,1.752,0,0,1,1.75-1.75h1.25V6.762a1.752,1.752,0,0,1,1.75-1.75h1.25V3.469a1.734,1.734,0,0,1,.513-1.237l.818-.819A4.573,4.573,0,1,1,21.229,7.88L5.552,23.558A1.246,1.246,0,0,1,4.668,23.924Z"/></svg>