<svg id="Bold" xmlns="http://www.w3.org/2000/svg" viewBox="0 0 24 24"><title>halloween-voodoo-doll</title><path d="M18.57,12.443a.249.249,0,0,1,.182-.426,5.161,5.161,0,1,0-5.058-5.058.25.25,0,0,1-.426.182L9.715,3.587a1.549,1.549,0,0,0-2.19,2.19l2.19,2.19a1.536,1.536,0,0,1,.416.761.5.5,0,0,1-.746.535L5.911,7.177a.5.5,0,0,1-.241-.47A2.838,2.838,0,1,0,2.839,9.375a2.781,2.781,0,0,0,1.479-.429.5.5,0,0,1,.522,0l7.545,4.531a.5.5,0,0,1-.516.857L8.25,12.157a.5.5,0,0,0-.611.075L3.875,16a1.549,1.549,0,0,0,2.19,2.19L8.62,15.631a1.032,1.032,0,0,1,1.46,1.46L7.525,19.645a1.549,1.549,0,1,0,2.19,2.19L15.554,16a1.55,1.55,0,0,1,2.19,0l2.19,2.19A1.548,1.548,0,1,0,22.123,16Zm1.121-4.734a.5.5,0,0,1,.5-.5h.1a.5.5,0,0,0,.5-.5V6.614a.5.5,0,0,1,1,0v.095a.5.5,0,0,0,.5.5h.1a.5.5,0,0,1,0,1h-.1a.5.5,0,0,0-.5.5v.1a.5.5,0,1,1-1,0v-.1a.5.5,0,0,0-.5-.5h-.1A.5.5,0,0,1,19.691,7.709ZM16.407,4.424a.5.5,0,0,1,.5-.5H17a.5.5,0,0,0,.5-.5V3.33a.5.5,0,0,1,1,0v.094a.5.5,0,0,0,.5.5h.1a.5.5,0,0,1,0,1H19a.5.5,0,0,0-.5.5v.095a.5.5,0,1,1-1,0V5.424a.5.5,0,0,0-.5-.5h-.095A.5.5,0,0,1,16.407,4.424ZM17.858,9.9a.5.5,0,0,1-.5-.5A1.155,1.155,0,0,0,16.2,8.245a.5.5,0,0,1,0-1A2.156,2.156,0,0,1,18.358,9.4.5.5,0,0,1,17.858,9.9Z"/></svg>