<svg id="Bold" xmlns="http://www.w3.org/2000/svg" viewBox="0 0 24 24"><title>halloween-cauldron</title><circle cx="21" cy="3" r="1"/><circle cx="6" cy="1.5" r="1"/><circle cx="17" cy="0.75" r="0.75"/><path d="M22.886,11.271A1.814,1.814,0,0,0,24,9.5a1.974,1.974,0,0,0-1.672-1.977.5.5,0,0,1-.442-.39,3.986,3.986,0,0,0-4.238-3.117.5.5,0,0,1-.465-.228,4.968,4.968,0,0,0-8.2-.237.5.5,0,0,1-.566.18A4.481,4.481,0,0,0,2.613,7.1c-.1.5-.578.374-.678.4A1.97,1.97,0,0,0,0,9.5a1.812,1.812,0,0,0,1.114,1.77.654.654,0,0,1,.4.8,9.152,9.152,0,0,0,.995,8.25A8.322,8.322,0,0,0,9.351,24h5.3A8.321,8.321,0,0,0,21.5,20.321a9.147,9.147,0,0,0,.994-8.249A.654.654,0,0,1,22.886,11.271Zm-4.221-1.4a1,1,0,0,0-.665.942V14a1.5,1.5,0,0,1-3,0V9a1.5,1.5,0,0,0-1.5-1.5H4.878a.251.251,0,0,1-.2-.106.245.245,0,0,1-.031-.227A2.5,2.5,0,0,1,7,5.5a2.475,2.475,0,0,1,1.57.575A1,1,0,0,0,10.156,5.6a2.975,2.975,0,0,1,5.679-.029,1,1,0,0,0,1.357.6A1.98,1.98,0,0,1,18,6a1.993,1.993,0,0,1,.665,3.874Z"/></svg>