<svg id="Bold" xmlns="http://www.w3.org/2000/svg" viewBox="0 0 24 24"><title>halloween-calendar-ghost</title><path d="M16.341,15.773,16.5,14.5a4.5,4.5,0,0,0-9,0l.159,1.273A7.785,7.785,0,0,1,7,20.08a.5.5,0,0,0,.645.663l.864-.346a1,1,0,0,1,.926.1l.507.338a1,1,0,0,0,1.11,0l.39-.26a1,1,0,0,1,1.11,0l.39.26a1,1,0,0,0,1.11,0l.507-.338a1,1,0,0,1,.926-.1l.864.346A.5.5,0,0,0,17,20.08,7.785,7.785,0,0,1,16.341,15.773ZM10.25,15.25a1,1,0,1,1,1-1A1,1,0,0,1,10.25,15.25Zm3.5,0a1,1,0,1,1,1-1A1,1,0,0,1,13.75,15.25Z"/><path d="M22,3H19a.5.5,0,0,1-.5-.5V1a1,1,0,0,0-2,0V5.75a.75.75,0,0,1-1.5,0V3.5a.5.5,0,0,0-.5-.5h-6A.5.5,0,0,1,8,2.5V1A1,1,0,0,0,6,1V5.75a.75.75,0,0,1-1.5,0V3.5A.5.5,0,0,0,4,3H2A2,2,0,0,0,0,5V22a2,2,0,0,0,2,2H22a2,2,0,0,0,2-2V5A2,2,0,0,0,22,3Zm0,18.5a.5.5,0,0,1-.5.5H2.5a.5.5,0,0,1-.5-.5V9.5A.5.5,0,0,1,2.5,9h19a.5.5,0,0,1,.5.5Z"/></svg>