<svg id="Bold" xmlns="http://www.w3.org/2000/svg" viewBox="0 0 24 24"><title>hamster-toy</title><path d="M23.5,20.154V3a3,3,0,0,0-3-3H3.5a3,3,0,0,0-3,3V20.154A.988.988,0,0,0,0,21v.5A2.5,2.5,0,0,0,2.5,24h19A2.5,2.5,0,0,0,24,21.5V21A.988.988,0,0,0,23.5,20.154ZM15.739,15.43a.251.251,0,0,1,.156-.055H21.25a.25.25,0,0,1,.25.25V19.75a.249.249,0,0,1-.25.25H20.125a.249.249,0,0,1-.25-.25V17.5a.875.875,0,0,0-1.75,0v2.25a.249.249,0,0,1-.25.25h-1.75a.249.249,0,0,1-.25-.25V18.56a.875.875,0,0,0-1.75,0v1.19a.249.249,0,0,1-.25.25H10.739a.25.25,0,0,1-.157-.445ZM7.3,20H7.125a.249.249,0,0,1-.25-.25v-7a.25.25,0,0,1,.25-.25H9.734a.251.251,0,0,1,.117.03l3.7,1.963a.248.248,0,0,1,.131.2.251.251,0,0,1-.092.218S7.346,19.936,7.3,20Zm.2-9.5A.5.5,0,0,1,7,11H5a.5.5,0,0,1-.5-.5v-1a1.5,1.5,0,0,1,3,0Zm-5,2.25a.25.25,0,0,1,.25-.25H4.875a.25.25,0,0,1,.25.25v7a.249.249,0,0,1-.25.25H2.75a.249.249,0,0,1-.25-.25ZM3.5,2H9.625V5a.875.875,0,0,0,1.75,0V2h2.75v9a.875.875,0,0,0,1.75,0V2h2.25v9.5a.875.875,0,0,0,1.75,0V2H20.5a1,1,0,0,1,1,1V13.375a.249.249,0,0,1-.25.25H15.706L11,11.273V10.5A5,5,0,0,0,4.971,5.6,4.765,4.765,0,0,0,2.5,6.976V3A1,1,0,0,1,3.5,2Z"/></svg>