<svg xmlns="http://www.w3.org/2000/svg" viewBox="0 0 24 24"><title>hand-hold-3d-box</title><path d="M22.942,8.664,19.2,7.106a.25.25,0,0,1,.1-.481h1.45a2.5,2.5,0,0,0,0-5h-4a.5.5,0,0,1-.5-.5,1,1,0,0,0-2,0,2.5,2.5,0,0,0,2.5,2.5h4a.5.5,0,0,1,0,1h-3a2,2,0,0,0-1.973,1.73.25.25,0,0,1-.151.2L10.558,8.664a.5.5,0,0,0-.308.461v6.5a.5.5,0,0,0,.308.461l6,2.5a.492.492,0,0,0,.384,0l6-2.5a.5.5,0,0,0,.308-.461v-6.5A.5.5,0,0,0,22.942,8.664Zm-6.288-.957a.246.246,0,0,1,.192,0L19.7,8.894a.25.25,0,0,1,0,.462l-2.85,1.187a.246.246,0,0,1-.192,0L13.8,9.356a.25.25,0,0,1,0-.462Z"/><path d="M13.75,19.375H6.25a.5.5,0,0,1,0-1h3a.5.5,0,0,0,.5-.5,2,2,0,0,0-2-2H2.5a.25.25,0,0,1-.25-.25.75.75,0,0,0-1.5,0v7.5a.75.75,0,0,0,1.5,0,.25.25,0,0,1,.25-.25H16.25a.5.5,0,0,0,.5-.5A3,3,0,0,0,13.75,19.375Z"/></svg>