<svg id="Bold" xmlns="http://www.w3.org/2000/svg" viewBox="0 0 24 24"><title>hardware-nuts-1</title><path d="M17.686,8.189a.5.5,0,0,0-.549.258c-.034.066-.071.13-.112.194L15.2,11.765a.5.5,0,0,0,.478.75Q15.84,12.5,16,12.5A3.5,3.5,0,1,1,12.5,16v-.065a.5.5,0,0,0-.607-.5,2.747,2.747,0,0,1-.589.065H8.5A.5.5,0,0,0,8,16a8,8,0,1,0,9.686-7.811Z"/><path d="M12.578,13.292,15.763,7.83a1.5,1.5,0,0,0,.013-1.6L12.568.7A1.493,1.493,0,0,0,11.3,0H4.7A1.5,1.5,0,0,0,3.422.712L.235,6.215a1.5,1.5,0,0,0-.008,1.6l3.207,5.5A1.5,1.5,0,0,0,4.7,14h6.609A1.5,1.5,0,0,0,12.578,13.292ZM8,10a3,3,0,1,1,3-3A3,3,0,0,1,8,10Z"/></svg>