<svg id="Bold" xmlns="http://www.w3.org/2000/svg" viewBox="0 0 24 24"><title>hardware-nail-round-head</title><path d="M22.625,2.789,21.211,1.375a4.5,4.5,0,0,0-6.364,0,.5.5,0,0,0,0,.707l7.071,7.071a.5.5,0,0,0,.707,0A4.5,4.5,0,0,0,22.625,2.789Z"/><path d="M9.094,17.941H2.024a.5.5,0,0,0-.354.147L.352,19.406a1,1,0,0,0,0,1.414L3.18,23.648a1,1,0,0,0,1.414,0L9.448,18.8a.5.5,0,0,0-.354-.854Z"/><path d="M13.1,13.941H6.023a.5.5,0,0,0-.353.147l-1.5,1.5a.5.5,0,0,0,.353.853h7.071a.5.5,0,0,0,.354-.146l1.5-1.5a.5.5,0,0,0-.353-.854Z"/><path d="M15.554,4.91a.5.5,0,0,0-.707,0L8.17,11.588a.5.5,0,0,0,.353.853H15.6a.5.5,0,0,0,.353-.146L19.09,9.153a.5.5,0,0,0,0-.707Z"/></svg>