<svg id="Bold" xmlns="http://www.w3.org/2000/svg" viewBox="0 0 24 24"><title>hardware-nuts</title><path d="M23.773,16.23l-3.21-5.54A1.5,1.5,0,0,0,19.3,10H16.52a.5.5,0,0,0-.432.248L14.243,13.41l-.37.64a3.156,3.156,0,0,1-1.48,1.24,2.859,2.859,0,0,1-1.09.21H8.932a.5.5,0,0,0-.433.25l-.266.46a1.513,1.513,0,0,0-.01,1.6l3.21,5.5a1.489,1.489,0,0,0,1.26.69H19.3a1.5,1.5,0,0,0,1.27-.71l3.19-5.46A1.513,1.513,0,0,0,23.773,16.23ZM15.993,14a3,3,0,1,1-3,3A3,3,0,0,1,15.993,14Z"/><path d="M15.777,6.23,12.567.69A1.5,1.5,0,0,0,11.307,0H4.7a1.492,1.492,0,0,0-1.27.71L.237,6.21a1.513,1.513,0,0,0-.01,1.6l3.21,5.5A1.489,1.489,0,0,0,4.7,14h6.61a1.5,1.5,0,0,0,1.27-.71l3.19-5.46A1.513,1.513,0,0,0,15.777,6.23ZM8,10a3,3,0,1,1,3-3A3.009,3.009,0,0,1,8,10Z"/></svg>