<svg id="Bold" xmlns="http://www.w3.org/2000/svg" viewBox="0 0 24 24"><title>hardware-hammer-nail</title><path d="M22.993,17H19a1,1,0,1,0,0,2h.454a.249.249,0,0,1,.247.209l.716,4.3a.589.589,0,0,0,1.163,0l.716-4.3A.249.249,0,0,1,22.539,19h.454a1,1,0,1,0,0-2Z"/><path d="M5.278,9.119a.5.5,0,0,0-.707,0L.154,13.536a.5.5,0,0,0-.147.353v5.653A.5.5,0,0,0,.316,20,.5.5,0,0,0,.86,19.9L8.1,12.652a.5.5,0,0,0,0-.706Z"/><path d="M19.056,10.178a1.5,1.5,0,0,0,0-2.119L18,7h0a1.021,1.021,0,0,0-1.412,0A1.025,1.025,0,0,1,15.17,7a1,1,0,0,1-.224-1.074,1.5,1.5,0,0,0-.334-1.606c-1.433-1.438-2.007-2.014-2.291-2.244l.006-.006A7.738,7.738,0,0,0,2.3,1.623a1,1,0,0,0,.638,1.8A5.013,5.013,0,0,1,6.689,4.88a3.385,3.385,0,0,1,.721.938.435.435,0,0,1-.093.555l-.982.98a.5.5,0,0,0,0,.707l2.827,2.826a.5.5,0,0,0,.706,0l1.061-1.06a1.022,1.022,0,0,1,1.413,0,1,1,0,0,1,0,1.413,1,1,0,0,0,0,1.413l1.06,1.06a1.487,1.487,0,0,0,1.06.44h0a1.491,1.491,0,0,0,1.059-.44Z"/></svg>