<svg id="Bold" xmlns="http://www.w3.org/2000/svg" viewBox="0 0 24 24"><title>hardware-hammer-nail-hit</title><path d="M17.809,1.261a1.951,1.951,0,0,0-3.645.009L12.3,6.182a.5.5,0,0,1-.467.323H.5a.5.5,0,0,0-.5.5v4a.5.5,0,0,0,.5.5H11.49a.5.5,0,0,1,.5.5v2a1,1,0,0,0,1,1h6a1,1,0,0,0,1-1V7.005a.5.5,0,0,0-.033-.18Z"/><path d="M17.984,17h-4a1,1,0,0,0,0,2h.243a.5.5,0,0,1,.493.417L15.4,23.5a.589.589,0,0,0,1.163,0l.681-4.085a.5.5,0,0,1,.493-.417h.243a1,1,0,0,0,0-2Z"/><path d="M23.572,20.814l-2.257-1.07a.749.749,0,0,0-.642,1.354l2.257,1.071a.75.75,0,0,0,.642-1.355Z"/><path d="M20.81,17.781a.736.736,0,0,0,.161-.018l2.44-.535a.749.749,0,0,0-.321-1.464l-2.44.535a.75.75,0,0,0,.16,1.482Z"/><path d="M10.428,19.744l-2.257,1.07a.75.75,0,0,0,.642,1.355L11.07,21.1a.749.749,0,0,0-.642-1.354Z"/><path d="M11.093,16.3l-2.44-.535a.749.749,0,0,0-.321,1.464l2.44.535a.736.736,0,0,0,.161.018.75.75,0,0,0,.16-1.482Z"/></svg>