<svg id="Bold" xmlns="http://www.w3.org/2000/svg" viewBox="0 0 24 24"><title>hardware-wench-screw</title><path d="M15.744,9.091a1,1,0,0,0,1-1v-.25a.249.249,0,0,1,.25-.249h.5a.749.749,0,0,0,0-1.5h-.5a.25.25,0,0,1-.25-.25v-.5a.249.249,0,0,1,.25-.249h.5a.749.749,0,0,0,0-1.5h-.5a.25.25,0,0,1-.25-.249v-.5a.25.25,0,0,1,.25-.249h1.247a1,1,0,1,0,0-2H13.248a1,1,0,1,0,0,2H14.5a.249.249,0,0,1,.249.249v.5A.249.249,0,0,1,14.5,3.6H14a.749.749,0,0,0,0,1.5h.5a.248.248,0,0,1,.249.249v.5a.249.249,0,0,1-.249.25H14a.749.749,0,0,0,0,1.5h.5a.248.248,0,0,1,.249.249v.25A1,1,0,0,0,15.744,9.091Z"/><path d="M16.381,20.673a.249.249,0,0,1,.165.312l-.075.238a1,1,0,0,0,1.907.592l.074-.238a.25.25,0,0,1,.313-.164l.476.148a.749.749,0,0,0,.445-1.431l-.477-.147a.251.251,0,0,1-.147-.122.247.247,0,0,1-.017-.19l.148-.477a.254.254,0,0,1,.122-.147.247.247,0,0,1,.19-.017l.477.148a.749.749,0,0,0,.444-1.43l-.477-.148a.25.25,0,0,1-.164-.313l.148-.477a.251.251,0,0,1,.313-.164l1.191.371a1.023,1.023,0,0,0,.3.044,1,1,0,0,0,.3-1.951l-4.767-1.481h0a1,1,0,0,0-.593,1.908l1.192.37a.254.254,0,0,1,.147.122.249.249,0,0,1,.017.191l-.148.475a.244.244,0,0,1-.122.147.251.251,0,0,1-.19.018l-.476-.149a.749.749,0,0,0-.445,1.431l.477.148a.25.25,0,0,1,.164.312l-.148.477a.254.254,0,0,1-.122.147.247.247,0,0,1-.19.017l-.477-.148a.749.749,0,0,0-.444,1.43Z"/><path d="M9.779,3.862A4.23,4.23,0,0,0,7.43.065a.5.5,0,0,0-.724.446V3.335a.5.5,0,0,1-.146.353l-.671.671a.5.5,0,0,1-.706,0l-.671-.671a.5.5,0,0,1-.146-.353V.5a.5.5,0,0,0-.72-.448,4.25,4.25,0,0,0-.507,7.337.5.5,0,0,1,.22.415V16.2a.5.5,0,0,1-.22.415,4.249,4.249,0,0,0,.507,7.336A.5.5,0,0,0,3.867,24a.493.493,0,0,0,.264-.076.5.5,0,0,0,.235-.423V20.665a.5.5,0,0,1,.146-.353l.671-.671a.5.5,0,0,1,.706,0l.671.671a.5.5,0,0,1,.146.353v2.824a.5.5,0,0,0,.724.446,4.251,4.251,0,0,0,.482-7.321.5.5,0,0,1-.22-.414V7.8a.5.5,0,0,1,.22-.414A4.226,4.226,0,0,0,9.779,3.862Z"/></svg>