<svg id="Bold" xmlns="http://www.w3.org/2000/svg" viewBox="0 0 24 24"><title>hat-lady-cowboy</title><path d="M23,11.724a1,1,0,0,0-1,1,3.505,3.505,0,0,1-1.945,3.136.5.5,0,0,1-.694-.279,28.285,28.285,0,0,1-1.213-5.327c-.329-2.114-.566-3.642-1.57-4.241a2.179,2.179,0,0,0-1.915-.04l-.6.216A5.783,5.783,0,0,1,12,6.725a5.783,5.783,0,0,1-2.059-.536l-.6-.216a2.18,2.18,0,0,0-1.915.04c-1,.6-1.241,2.127-1.57,4.241a28.285,28.285,0,0,1-1.213,5.327.5.5,0,0,1-.694.279A3.505,3.505,0,0,1,2,12.724a1,1,0,0,0-2,0,5.507,5.507,0,0,0,5.5,5.5h13a5.507,5.507,0,0,0,5.5-5.5A1,1,0,0,0,23,11.724Z"/></svg>