<svg id="Bold" xmlns="http://www.w3.org/2000/svg" viewBox="0 0 24 24"><title>hat-architect</title><path d="M22.526,13.358a.309.309,0,0,0-.526.22,2.492,2.492,0,0,1-.9,1.919c-1.117.934-3.787,2.5-9.1,2.5s-7.985-1.569-9.1-2.5A2.5,2.5,0,0,1,2,13.578a.309.309,0,0,0-.526-.22A4.427,4.427,0,0,0,0,16.5C0,20.145,5.271,23,12,23s12-2.855,12-6.5A4.427,4.427,0,0,0,22.526,13.358Z"/><path d="M6.688,4.865a.5.5,0,0,0-.124.633c.36.646,1.466,2.7,5.217,9.539a.249.249,0,0,0,.438,0C15.969,8.2,17.076,6.144,17.436,5.5a.5.5,0,0,0-.124-.633A8.472,8.472,0,0,0,14.225,3.3.305.305,0,0,1,14,3a2,2,0,0,0-4,0,.306.306,0,0,1-.225.295A8.472,8.472,0,0,0,6.688,4.865Z"/><path d="M5.473,6.631a.251.251,0,0,0-.424-.024A8.459,8.459,0,0,0,3.5,11.5v2.078a1,1,0,0,0,.359.767c.727.608,2.647,1.832,6.545,2.1a.251.251,0,0,0,.236-.37Z"/><path d="M18.951,6.607a.251.251,0,0,0-.424.024L13.36,16.077a.251.251,0,0,0,.236.37c3.9-.27,5.818-1.494,6.545-2.1a1,1,0,0,0,.359-.767V11.5A8.459,8.459,0,0,0,18.951,6.607Z"/></svg>