<svg id="Bold" xmlns="http://www.w3.org/2000/svg" viewBox="0 0 24 24"><title>hat-winter</title><path d="M19,15.5H18a.5.5,0,0,0-.5.5v2a2.5,2.5,0,0,1-2.569,2.5.5.5,0,0,0-.507.416,5.561,5.561,0,0,1-.233.905.494.494,0,0,0,.052.437.5.5,0,0,0,.377.227c.126.011.252.016.38.016A4.505,4.505,0,0,0,19.5,18V16A.5.5,0,0,0,19,15.5Z"/><path d="M2.5,11h7.75a.25.25,0,0,0,.25-.25V10a6.5,6.5,0,0,1,8.058-6.311.251.251,0,0,0,.3-.305A4.509,4.509,0,0,0,14.5,0h-4A8.51,8.51,0,0,0,2,8.5v2A.5.5,0,0,0,2.5,11Z"/><path d="M17,5a5.006,5.006,0,0,0-5,5v2a.5.5,0,0,1-.5.5h-1a.5.5,0,0,0-.5.5v1a2,2,0,0,1-4,0V13a.5.5,0,0,0-.5-.5h-3A.5.5,0,0,0,2,13v2a2,2,0,0,0,2,2,1,1,0,0,1,1,1v2a4,4,0,0,0,8,0V14.5a.5.5,0,0,1,.5-.5h6A2.5,2.5,0,0,0,22,11.5V10A5.006,5.006,0,0,0,17,5Z"/></svg>