<svg xmlns="http://www.w3.org/2000/svg" viewBox="0 0 24 24"><title>heater</title><path d="M15.55,7.707a1,1,0,0,0,1.414-1.414c-.328-.328-.236-.738.228-1.889.471-1.168,1.117-2.768-.228-4.111A1,1,0,1,0,15.55,1.707c.352.352.261.774-.213,1.949C14.872,4.811,14.234,6.391,15.55,7.707Z"/><path d="M9.782,7.707A1,1,0,1,0,11.2,6.293c-.328-.328-.237-.738.227-1.889C11.9,3.236,12.54,1.636,11.2.293A1,1,0,1,0,9.782,1.707c.352.352.26.774-.214,1.949C9.1,4.811,8.465,6.391,9.782,7.707Z"/><path d="M21.277,7.707a1,1,0,1,0,1.414-1.414c-.328-.328-.236-.738.228-1.889.471-1.168,1.117-2.768-.228-4.111a1,1,0,0,0-1.414,1.414c.352.352.261.774-.213,1.949C20.6,4.811,19.961,6.391,21.277,7.707Z"/><rect x="8.5" y="9.992" width="4.5" height="14" rx="1.5" ry="1.5"/><rect x="14" y="9.992" width="4.5" height="14" rx="1.5" ry="1.5"/><rect x="19.5" y="9.992" width="4.5" height="14" rx="1.5" ry="1.5"/><path d="M5.5,9.992,1.5,10A1.5,1.5,0,0,0,0,11.5v11A1.5,1.5,0,0,0,1.5,24l4-.008a1.5,1.5,0,0,0,1.5-1.5v-11A1.5,1.5,0,0,0,5.5,9.992ZM3.5,18.5a1,1,0,1,1,1-1A1,1,0,0,1,3.5,18.5Zm0-4a1,1,0,1,1,1-1A1,1,0,0,1,3.5,14.5Z"/></svg>