<svg xmlns="http://www.w3.org/2000/svg" viewBox="0 0 24 24"><title>heater-1</title><path d="M21.006,8.462c.024-2.837.047-5.518-1.538-7.117A5.311,5.311,0,0,0,15.5,0h-7A5.3,5.3,0,0,0,4.537,1.347C2.946,2.951,2.97,5.631,2.994,8.469L3,21.5A2.5,2.5,0,0,0,5.5,24h13A2.5,2.5,0,0,0,21,21.5ZM6.512,6.25a.5.5,0,0,1,.5-.5h10a.5.5,0,0,1,.5.5v1a.5.5,0,0,1-.5.5h-10a.5.5,0,0,1-.5-.5Zm2-3.75,7,0a2,2,0,0,1,1.415.585,1.959,1.959,0,0,1,.32.425.5.5,0,0,1-.437.743H7.221A.5.5,0,0,1,6.787,3.5,1.982,1.982,0,0,1,8.511,2.5ZM6.787,10a.5.5,0,0,1,.434-.748H16.8a.5.5,0,0,1,.434.749,1.985,1.985,0,0,1-1.724,1h-7A1.982,1.982,0,0,1,6.787,10ZM17.512,21.75h-3.5a.75.75,0,0,1,0-1.5h3.5a.75.75,0,0,1,0,1.5Z"/></svg>