<svg xmlns="http://www.w3.org/2000/svg" viewBox="0 0 24 24"><title>heavy-equipment-wrecking-ball</title><path d="M23.784,16.093a6.506,6.506,0,0,0-5-4.951,3.126,3.126,0,0,0-2.64-4.072L14.734.781a1,1,0,1,0-1.951.44L14.2,7.505a3.127,3.127,0,0,0-.668,4.8,6.5,6.5,0,1,0,10.256,3.785Zm-9.067-5.672a1.125,1.125,0,1,1,1.785.647,6.393,6.393,0,0,0-.937.207A1.123,1.123,0,0,1,14.717,10.421Z"/><path d="M9.221,19.357a19.152,19.152,0,0,1-7.527-3.776A1,1,0,0,0,.425,17.128,21.2,21.2,0,0,0,8.743,21.3a1,1,0,0,0,.478-1.942Z"/><path d="M1.885,13.76c.242.222.49.439.743.647A1,1,0,0,0,3.9,12.862c-.225-.184-.444-.376-.659-.573A1,1,0,1,0,1.885,13.76Z"/><path d="M4.785,15.927a17.537,17.537,0,0,0,3.806,1.7,1,1,0,0,0,.593-1.91,15.534,15.534,0,0,1-3.372-1.5,1,1,0,0,0-1.027,1.717Z"/><path d="M10.278,12.389A12.044,12.044,0,0,1,6.973,10.8a1,1,0,0,0-1.131,1.65A14.045,14.045,0,0,0,9.7,14.3a1,1,0,0,0,.582-1.914Z"/></svg>