<svg xmlns="http://www.w3.org/2000/svg" viewBox="0 0 24 24"><title>heavy-equipment-lift-hook-box</title><path d="M11,18.835a2,2,0,0,0,0,4H22a2,2,0,0,0,0-4Zm10,1.25a.75.75,0,1,1-.75.75A.75.75,0,0,1,21,20.085Zm-4.5,0a.75.75,0,1,1-.75.75A.75.75,0,0,1,16.5,20.085Zm-3.75.75a.75.75,0,1,1-.75-.75A.75.75,0,0,1,12.75,20.835Z"/><path d="M21.5,11.335H19.25a.25.25,0,0,1-.25-.25V8.835a2.5,2.5,0,0,0-2.5-2.5H13a1.3,1.3,0,0,0-1.151.775l-1.812,4.449a.5.5,0,0,0-.037.188v4.088a1.5,1.5,0,0,0,1.5,1.5h10a1.5,1.5,0,0,0,1.5-1.5v-3A1.5,1.5,0,0,0,21.5,11.335Zm-8.982-.5.762-2.161a.467.467,0,0,1,.447-.339h2.808A.466.466,0,0,1,17,8.8v2.161a.466.466,0,0,1-.465.467h-3.57A.467.467,0,0,1,12.518,10.835Z"/><path d="M7.534,13.335H5.25V6.279L8.928,9.432a.251.251,0,0,0,.222.053.248.248,0,0,0,.172-.149l1.137-2.792a2.656,2.656,0,0,1,.556-.846.251.251,0,0,0,.067-.209.248.248,0,0,0-.123-.182L4.052,1.361a1.49,1.49,0,0,0-1.71,2.425l.908.779v8.77H.966A.968.968,0,0,0,0,14.3v5.566a.968.968,0,0,0,.966.967H7.534a.968.968,0,0,0,.966-.967V14.3A.968.968,0,0,0,7.534,13.335Z"/></svg>