<svg xmlns="http://www.w3.org/2000/svg" viewBox="0 0 24 24"><title>heavy-equipment-hook</title><path d="M23,8.986a1,1,0,0,0,.421-1.907L8.553.185a2.692,2.692,0,0,0-2.8.588L.234,7.342A1,1,0,0,0,1,8.986H4a.25.25,0,0,1,.25.25v5.579L1.89,16.906a2.27,2.27,0,0,0-.71,1.58v3.5H1a1,1,0,0,0,0,2H13a1,1,0,1,0,0-2h-.07v-3.5a2.314,2.314,0,0,0-.683-1.572L9.75,14.62V9.236a.25.25,0,0,1,.25-.25h8.75a.25.25,0,0,1,.25.25v6.208a2,2,0,0,0,1.2,1.833.5.5,0,1,1-.7.459,1,1,0,0,0-2,0A2.5,2.5,0,1,0,21,15.444V9.236a.25.25,0,0,1,.25-.25ZM5.809,3.815a.25.25,0,0,1,.441.161v2.76a.25.25,0,0,1-.25.25H3.682a.25.25,0,0,1-.192-.411Zm-2.63,14.7a.868.868,0,0,1,.038-.112l1.033-.915v4.5H3.18Zm7.687-.154a.552.552,0,0,1,.064.126v3.5H9.75V17.319ZM7.75,21.986H6.25V9.236a.25.25,0,0,1,.25-.25h1a.25.25,0,0,1,.25.25Zm.75-15a.25.25,0,0,1-.25-.25V2.64a.25.25,0,0,1,.355-.227l9.861,4.573Z"/></svg>