<svg xmlns="http://www.w3.org/2000/svg" viewBox="0 0 24 24"><title>heavy-equipment-mortar-truck-1</title><path d="M23.5,16h-13a.5.5,0,0,1-.5-.5v-7a1,1,0,0,0-1-1H5.5a1.426,1.426,0,0,0-1.18.694L2.1,12.2l-1.6,1.6A1.872,1.872,0,0,0,0,15v3.5a1,1,0,0,0,1,1h.536a.5.5,0,0,0,.494-.428,3,3,0,0,1,5.94,0,.5.5,0,0,0,.494.428h7.374a.5.5,0,0,0,.487-.384,2.749,2.749,0,0,1,5.35,0,.5.5,0,0,0,.486.385H23.5A.5.5,0,0,0,24,19V16.5A.5.5,0,0,0,23.5,16ZM8.25,9.678v2.143a.429.429,0,0,1-.428.429H4.7a.428.428,0,0,1-.372-.641L5.555,9.466a.427.427,0,0,1,.372-.216h1.9A.428.428,0,0,1,8.25,9.678Z"/><path d="M23.5,4.705a.473.473,0,0,0-.137-.372l-1.695-1.7a.471.471,0,0,0-.373-.136,23.549,23.549,0,0,0-4.721.875.5.5,0,0,0-.2.83L21.8,9.634a.5.5,0,0,0,.83-.2A23.272,23.272,0,0,0,23.5,4.705Z"/><path d="M13.176,12.823c2.026,2.026,4.669,2.668,8-.667.06-.06.119-.123.176-.189a.5.5,0,0,0-.026-.679L14.712,4.67a.5.5,0,0,0-.678-.027c-.067.057-.131.116-.191.176C10.507,8.154,11.15,10.8,13.176,12.823Z"/><circle cx="5" cy="19.5" r="2"/><circle cx="19" cy="19.75" r="1.75"/></svg>