<svg id="Bold" xmlns="http://www.w3.org/2000/svg" viewBox="0 0 24 24"><title>hedgehog</title><path d="M22.637,11.629H17.663a4.519,4.519,0,0,0-.681-.8l4.634-1.711a1,1,0,0,0-.693-1.877l-6.509,2.4a4.665,4.665,0,0,0-.519-.032L17.55,6.647a1,1,0,0,0-1.26-1.553L10.507,9.788a.993.993,0,0,0-.123.119l-2.037.172,5.059-5A1,1,0,0,0,12,3.658L4.743,10.827A7.081,7.081,0,0,0,2.07,12.579a21.141,21.141,0,0,0-1.6,2,1.018,1.018,0,0,0,0,.917c.563,1.15,3.256,1.8,4.385,2.027a5.607,5.607,0,0,0,1.658.108l.9.3v1.7a1,1,0,0,0,2,0V18.563a11.98,11.98,0,0,0,2.675.307,10.24,10.24,0,0,0,3.042-.541v1.3a1,1,0,1,0,2,0V17.135a4.609,4.609,0,0,0,.586-.718l3.062,1.149a1,1,0,1,0,.7-1.873L18.4,14.534a4.123,4.123,0,0,0-.006-.905h4.245a1,1,0,0,0,0-2ZM4.386,12.87a1,1,0,1,1-1,1A1,1,0,0,1,4.386,12.87Z"/></svg>