<svg xmlns="http://www.w3.org/2000/svg" viewBox="0 0 24 24"><title>history-africa</title><path d="M5.157,21.232A.5.5,0,0,1,5,20.869V17.5a1,1,0,0,0-2,0v3.369a.5.5,0,0,1-.157.363,1.75,1.75,0,0,0-.567,1.242c0,.72,1.206,1.14,1.6,1.258a.429.429,0,0,0,.246,0c.394-.118,1.6-.537,1.6-1.258A1.75,1.75,0,0,0,5.157,21.232Z"/><path d="M21.157,21.232A.5.5,0,0,1,21,20.869V17.5a1,1,0,0,0-2,0v3.369a.5.5,0,0,1-.157.363,1.75,1.75,0,0,0-.567,1.242c0,.721,1.207,1.14,1.6,1.258a.429.429,0,0,0,.246,0c.395-.118,1.6-.538,1.6-1.258A1.75,1.75,0,0,0,21.157,21.232Z"/><path d="M15.909,20.627a6.363,6.363,0,0,1-1.147.728.5.5,0,0,1-.222.051H9.461a.5.5,0,0,1-.222-.051,6.374,6.374,0,0,1-1.148-.729,1,1,0,0,0-1.252,1.561,8.251,8.251,0,0,0,10.322,0,1,1,0,0,0-1.252-1.559Z"/><path d="M19.74,15.5c.81,0,1.42-.64,1.22-1.31a7.752,7.752,0,0,0-.775-1.763.029.029,0,0,1,0-.017,5.306,5.306,0,0,0,.47-4.2,2.984,2.984,0,0,0-.39-.63s.01-.01,0-.01A2.171,2.171,0,0,0,20.5,6.5c0-1.02-1.09-2.17-1.66-2.7a.5.5,0,0,0-.68,0,6.356,6.356,0,0,0-.66.7c0-1.019-1.088-2.167-1.659-2.7a.5.5,0,0,0-.682,0,8.178,8.178,0,0,0-.982,1.091A.1.1,0,0,1,14,2.833c0-1.018-1.088-2.166-1.659-2.7a.5.5,0,0,0-.682,0C11.088.667,10,1.815,10,2.833a.1.1,0,0,1-.177.059A8.178,8.178,0,0,0,8.841,1.8a.5.5,0,0,0-.682,0C7.588,2.333,6.5,3.481,6.5,4.5a6.356,6.356,0,0,0-.66-.7.5.5,0,0,0-.68,0C4.59,4.33,3.5,5.48,3.5,6.5a2.171,2.171,0,0,0,.24,1.07c-.01,0,0,.01,0,.01a2.984,2.984,0,0,0-.39.63,5.306,5.306,0,0,0,.47,4.2.029.029,0,0,1,0,.017A7.752,7.752,0,0,0,3.04,14.19c-.2.67.41,1.31,1.22,1.31a1.25,1.25,0,0,0,1.2-.74,2.626,2.626,0,0,1,.42-.73A3.446,3.446,0,0,1,7.77,13H9.53a5.033,5.033,0,0,1,.56.1,8.046,8.046,0,0,0,3.82,0,5.033,5.033,0,0,1,.56-.1h1.76a3.446,3.446,0,0,1,1.89,1.03,2.626,2.626,0,0,1,.42.73A1.25,1.25,0,0,0,19.74,15.5ZM14.57,9.43h-.52a3.458,3.458,0,0,1-1.9-.8.248.248,0,0,0-.308,0,3.454,3.454,0,0,1-1.9.8H9.43a6.465,6.465,0,0,0-4.251,1.394.246.246,0,0,1-.232.046A.249.249,0,0,1,4.78,10.7,2.842,2.842,0,0,1,4.73,8.81a1.467,1.467,0,0,1,.24-.37c.6-.713,1.892-.969,3.25-1.32a9.249,9.249,0,0,0,3.627-1.478.249.249,0,0,1,.306,0A9.249,9.249,0,0,0,15.78,7.12c1.358.351,2.652.607,3.25,1.32a1.467,1.467,0,0,1,.24.37,2.842,2.842,0,0,1-.05,1.892.249.249,0,0,1-.167.168.246.246,0,0,1-.232-.046A6.465,6.465,0,0,0,14.57,9.43Z"/><path d="M10.854,16.6a.5.5,0,0,0,0-.708A3.043,3.043,0,0,0,9,15a3.043,3.043,0,0,0-1.854.9.5.5,0,0,0,0,.708A3.043,3.043,0,0,0,9,17.5,3.043,3.043,0,0,0,10.854,16.6Z"/><path d="M16.854,16.6a.5.5,0,0,0,0-.708A3.043,3.043,0,0,0,15,15a3.043,3.043,0,0,0-1.854.9.5.5,0,0,0,0,.708A3.043,3.043,0,0,0,15,17.5,3.043,3.043,0,0,0,16.854,16.6Z"/></svg>