<svg xmlns="http://www.w3.org/2000/svg" viewBox="0 0 24 24"><title>history-sphinx-1</title><path d="M2.415,19.75H7.061a.5.5,0,0,0,.494-.583A6.48,6.48,0,0,1,7.5,18a.5.5,0,0,0-.5-.5,4.456,4.456,0,0,1-3.27-1.422.5.5,0,0,0-.839.183l-.95,2.83A.5.5,0,0,0,2.415,19.75Z"/><path d="M8.748,21.386A.5.5,0,0,0,8.4,21.25H1.58a.5.5,0,0,0-.474.342A1.884,1.884,0,0,0,1,22.21,1.788,1.788,0,0,0,2.79,24H9.5A1.5,1.5,0,0,0,11,22.5v0a.063.063,0,0,0-.055-.062A3.925,3.925,0,0,1,8.748,21.386Z"/><path d="M16.5,18a6.48,6.48,0,0,1-.055,1.167.5.5,0,0,0,.493.583h4.647a.5.5,0,0,0,.474-.659l-.95-2.83a.5.5,0,0,0-.84-.183A4.455,4.455,0,0,1,17,17.5.5.5,0,0,0,16.5,18Z"/><path d="M22.894,21.592a.5.5,0,0,0-.475-.342H15.6a.5.5,0,0,0-.343.136,3.924,3.924,0,0,1-2.2,1.047A.063.063,0,0,0,13,22.5v0A1.5,1.5,0,0,0,14.5,24h6.71A1.788,1.788,0,0,0,23,22.21,1.893,1.893,0,0,0,22.894,21.592Z"/><path d="M5.826,5.789A9.364,9.364,0,0,1,8.589,4.136a.5.5,0,0,0,.3-.615L8.15,1.14A1.59,1.59,0,0,0,6.61,0,1.609,1.609,0,0,0,5,1.61v3.8A.5.5,0,0,0,5.826,5.789Z"/><path d="M15.411,4.136a9.364,9.364,0,0,1,2.763,1.653A.5.5,0,0,0,19,5.41V1.61A1.609,1.609,0,0,0,17.39,0a1.59,1.59,0,0,0-1.54,1.14l-.738,2.381A.5.5,0,0,0,15.411,4.136Z"/><path d="M15,18.5v-2a.5.5,0,0,1,.5-.5H17a3,3,0,0,0,3-3A8,8,0,0,0,4,13a3,3,0,0,0,3,3H8.5a.5.5,0,0,1,.5.5v2a2.464,2.464,0,0,0,2.229,2.459,7.79,7.79,0,0,0,1.542,0A2.464,2.464,0,0,0,15,18.5Zm.5-8.5a1,1,0,1,1-1,1A1,1,0,0,1,15.5,10Zm-7,2a1,1,0,1,1,1-1A1,1,0,0,1,8.5,12ZM12,19a1,1,0,1,1,1-1A1,1,0,0,1,12,19Z"/></svg>