<svg xmlns="http://www.w3.org/2000/svg" viewBox="0 0 24 24"><title>history-man-aviator</title><path d="M5.27,8.253a.249.249,0,0,1-.048.183,2.133,2.133,0,0,0-.4,1.35,3.074,3.074,0,0,0,.457,1.533.241.241,0,0,1,.038.131v4.632a.742.742,0,1,0,1.484,0V14.556a.248.248,0,0,1,.451-.141A6.934,6.934,0,0,0,12.02,17.32a6.929,6.929,0,0,0,4.727-2.85.247.247,0,0,1,.449.143v1.469a.742.742,0,1,0,1.484,0V11.517a.248.248,0,0,1,.042-.137,3.055,3.055,0,0,0,.493-1.593,2.133,2.133,0,0,0-.4-1.351.25.25,0,0,1-.049-.183,10.935,10.935,0,0,0,.02-3.091,2.1,2.1,0,0,0,.138-.708,2.415,2.415,0,0,0-1.092-1.94.225.225,0,0,1-.059-.06,4.656,4.656,0,0,0-.284-.385C16.329.7,14.488,0,12.02,0S7.711.7,6.547,2.07c-.091.107-.17.223-.251.339a.248.248,0,0,1-.062.063A2.431,2.431,0,0,0,5.072,4.454a2.094,2.094,0,0,0,.168.78A11.048,11.048,0,0,0,5.27,8.253Zm12.668-3.8c0,.939-1.247,1.732-2.722,1.732S12.5,5.393,12.5,4.454s1.247-1.732,2.721-1.732S17.938,3.515,17.938,4.454ZM8.784,2.722c1.474,0,2.721.793,2.721,1.732S10.258,6.186,8.784,6.186,6.062,5.393,6.062,4.454,7.309,2.722,8.784,2.722Zm7.4,9.413c-.374,2.225-3.143,3.7-4.165,3.7s-3.79-1.475-4.164-3.7a1.757,1.757,0,0,0-.928-1.263.247.247,0,0,1-.124-.215V9.6a.247.247,0,0,1,.2-.243A1.684,1.684,0,0,0,8.358,8.067L8.49,7.6a.246.246,0,0,1,.238-.18h6.505a.248.248,0,0,1,.238.179l.117.408a1.723,1.723,0,0,0,1.4,1.353.247.247,0,0,1,.205.243v1.075a.249.249,0,0,1-.125.215A1.716,1.716,0,0,0,16.185,12.135Z"/><path d="M12.784,12.2a1.253,1.253,0,0,1-.218.092,1.831,1.831,0,0,1-.538.078h0a1.836,1.836,0,0,1-.545-.08,1.233,1.233,0,0,1-.219-.092.742.742,0,1,0-.723,1.3,2.671,2.671,0,0,0,.5.211,3.369,3.369,0,0,0,.988.149h.006a3.317,3.317,0,0,0,.983-.147,2.642,2.642,0,0,0,.5-.214.742.742,0,1,0-.727-1.294Z"/><path d="M11.138,9.933A.743.743,0,0,0,11.1,8.884a2,2,0,0,0-2.574,0A.742.742,0,0,0,9.536,9.971a.553.553,0,0,1,.552,0,.745.745,0,0,0,1.05-.038Z"/><path d="M12.9,8.884a.742.742,0,0,0,1.011,1.087.553.553,0,0,1,.552,0,.742.742,0,1,0,1.011-1.087A2,2,0,0,0,12.9,8.884Z"/><path d="M16.9,17.176l-.256-.074a.493.493,0,0,0-.532.178,5.491,5.491,0,0,1-2.107,1.537.244.244,0,0,0,.016.456l3.158,1.1A.247.247,0,0,0,17.5,20.1l-.428-2.726A.245.245,0,0,0,16.9,17.176Z"/><path d="M7.888,17.28a.493.493,0,0,0-.532-.178l-.256.074a.244.244,0,0,0-.176.2L6.5,20.094a.248.248,0,0,0,.328.271l3.124-1.107a.245.245,0,0,0,.019-.455A5.46,5.46,0,0,1,7.888,17.28Z"/><path d="M20.948,18.333l-2.474-.708a.248.248,0,0,0-.313.277l.514,3.27a.5.5,0,0,1-.489.571.458.458,0,0,1-.163-.028L13.071,19.99a.247.247,0,0,0-.329.233v3.53A.248.248,0,0,0,12.99,24H23.381a.494.494,0,0,0,.5-.5v-.99A4.483,4.483,0,0,0,20.948,18.333Z"/><path d="M5.98,21.715a.5.5,0,0,1-.655-.543L5.839,17.9a.248.248,0,0,0-.313-.277l-2.512.72a4.472,4.472,0,0,0-2.89,4.169v.99a.494.494,0,0,0,.5.5H11.01a.248.248,0,0,0,.248-.247V20.194a.248.248,0,0,0-.33-.233Z"/></svg>