<svg xmlns="http://www.w3.org/2000/svg" viewBox="0 0 24 24"><title>history-man-viking</title><path d="M19.38,4.454a.247.247,0,0,0,.41.076,6.762,6.762,0,0,0,1.465-3.317A1,1,0,0,0,20.786.14a.969.969,0,0,0-1.135.1,13.437,13.437,0,0,1-1.872,1.351.246.246,0,0,0-.121.182.25.25,0,0,0,.071.206A7.541,7.541,0,0,1,19.38,4.454Z"/><path d="M6.271,1.975a.247.247,0,0,0-.051-.388A13.432,13.432,0,0,1,4.349.236.969.969,0,0,0,3.214.14a1,1,0,0,0-.469,1.074A6.771,6.771,0,0,0,4.21,4.53a.247.247,0,0,0,.41-.076A7.51,7.51,0,0,1,6.271,1.975Z"/><path d="M.124,23.01a.99.99,0,1,0,1.979,0v-.847a.965.965,0,0,1,.373-.776C3.74,20.423,6.657,18.8,12,18.8a21.751,21.751,0,0,1,4.442.433.247.247,0,0,1,.044.471,27.24,27.24,0,0,1-6.121,1.564L6.9,21.713a.99.99,0,1,0,.25,1.964l3.468-.441c.256-.033,5.9-.774,8.854-2.9a.249.249,0,0,1,.25-.023,10.109,10.109,0,0,1,1.8,1.077.965.965,0,0,1,.373.776v.847a.99.99,0,1,0,1.979,0v-.847a2.926,2.926,0,0,0-1.151-2.349,14.834,14.834,0,0,0-7.078-2.726.247.247,0,0,1-.067-.469l.484-.223a4.5,4.5,0,0,0,2.607-4.346c0-.082.009-2.56.009-4.38a.247.247,0,0,0-.247-.247h-.99a.248.248,0,0,0-.247.247V9.107a.25.25,0,0,1-.069.172l-2.075,2.159-.018.021a1.137,1.137,0,0,1-1.264.387,5.625,5.625,0,0,0-3.54,0,1.181,1.181,0,0,1-1.323-.457l-.018-.02L6.873,9.278A.25.25,0,0,1,6.8,9.106V7.67a.248.248,0,0,0-.247-.247h-.99a.247.247,0,0,0-.247.247c0,1.513.018,4.22.011,4.324a4.526,4.526,0,0,0,2.6,4.4l.484.223a.247.247,0,0,1-.067.469,15.284,15.284,0,0,0-7.078,2.726A2.926,2.926,0,0,0,.124,22.163Zm10.243-9.049a.743.743,0,0,1,.72-.56h1.826a.742.742,0,0,1,.356,1.393,2.279,2.279,0,0,1-.428.179A2.875,2.875,0,0,1,12,15.1a2.949,2.949,0,0,1-.839-.122,2.346,2.346,0,0,1-.427-.178A.742.742,0,0,1,10.367,13.961Z"/><path d="M13.979,10a.99.99,0,0,0,.99-.99A.986.986,0,0,0,13.06,8.66.978.978,0,0,0,13.979,10Z"/><path d="M10.021,10a.99.99,0,0,0,.989-.99.99.99,0,0,0-1.979,0A.99.99,0,0,0,10.021,10Z"/><path d="M18.216,5.938a.248.248,0,0,0,.2-.1.252.252,0,0,0,.043-.214A6.611,6.611,0,0,0,12,.846,6.611,6.611,0,0,0,5.545,5.628a.247.247,0,0,0,.239.31Z"/></svg>