<svg xmlns="http://www.w3.org/2000/svg" viewBox="0 0 24 24"><title>history-chinese-urn</title><path d="M22.25,5.75a2.992,2.992,0,0,0-5.918-.629.25.25,0,0,1-.151.18.253.253,0,0,1-.234-.025A2.154,2.154,0,0,1,15,3.5a.5.5,0,0,1,.5-.5h1a1.5,1.5,0,0,0,0-3h-9a1.5,1.5,0,0,0,0,3h1a.5.5,0,0,1,.5.5,2.152,2.152,0,0,1-.947,1.776.25.25,0,0,1-.385-.154A2.991,2.991,0,0,0,1.75,5.75V12a11.474,11.474,0,0,0,6.037,9.337.086.086,0,0,1-.037.163,1.25,1.25,0,0,0,0,2.5h8.5a1.25,1.25,0,0,0,0-2.5.086.086,0,0,1-.037-.163A11.474,11.474,0,0,0,22.25,12ZM3.75,6.988V5.75a1,1,0,0,1,2,0v.3a.249.249,0,0,1-.14.224,8.271,8.271,0,0,0-1.456.907.25.25,0,0,1-.4-.2Zm13.5,11.157a.252.252,0,0,1-.179.076H6.928a.252.252,0,0,1-.179-.076A9.287,9.287,0,0,1,4,12.1a4.3,4.3,0,0,1,.861-2.732.249.249,0,0,1,.193-.092H18.946a.249.249,0,0,1,.193.092A4.3,4.3,0,0,1,20,12.1,9.287,9.287,0,0,1,17.251,18.145Zm3-11.157a.25.25,0,0,1-.4.2,8.271,8.271,0,0,0-1.456-.907.249.249,0,0,1-.14-.224v-.3a1,1,0,0,1,2,0Z"/><circle cx="9" cy="11.25" r="1.25"/><path d="M11.728,14.182a.751.751,0,0,0-.546-.91l-2-.5a1.922,1.922,0,0,0-.364,0l-2,.5A.75.75,0,0,0,7,14.75a.763.763,0,0,0,.183-.022l1.256-.315a.034.034,0,0,1,.032.057l-1.5,1.5a.75.75,0,0,0,1.06,1.06l.793-.793a.252.252,0,0,1,.354,0l.793.793a.75.75,0,0,0,1.06-1.06l-1.5-1.5a.034.034,0,0,1,.032-.057l1.256.315A.763.763,0,0,0,11,14.75.751.751,0,0,0,11.728,14.182Z"/><circle cx="15" cy="11.25" r="1.25"/><path d="M17.728,14.182a.751.751,0,0,0-.546-.91l-2-.5a1.843,1.843,0,0,0-.364,0l-2,.5A.75.75,0,0,0,13,14.75a.763.763,0,0,0,.183-.022l1.256-.315a.034.034,0,0,1,.032.057l-1.5,1.5a.75.75,0,0,0,1.06,1.06l.793-.793a.252.252,0,0,1,.354,0l.793.793a.75.75,0,0,0,1.06-1.06l-1.5-1.5a.034.034,0,0,1,.032-.057l1.256.315A.763.763,0,0,0,17,14.75.751.751,0,0,0,17.728,14.182Z"/></svg>