<svg xmlns="http://www.w3.org/2000/svg" viewBox="0 0 24 24"><title>history-seat</title><path d="M8.5,17.75H7.354A.5.5,0,0,0,6.923,18L5.756,20a.5.5,0,0,0,.432.752h.645a.5.5,0,0,0,.384-.18l1.667-2A.5.5,0,0,0,8.5,17.75Z"/><path d="M17.077,18a.5.5,0,0,0-.432-.248H15.5a.5.5,0,0,0-.384.82l1.666,2a.5.5,0,0,0,.385.18h.645A.5.5,0,0,0,18.244,20Z"/><path d="M6.443,9.25H17.558a.5.5,0,0,0,.491-.406l.192-1a.5.5,0,0,0-.491-.595H6.25a.5.5,0,0,0-.491.595l.194,1A.5.5,0,0,0,6.443,9.25Z"/><path d="M17.664,10.844a.5.5,0,0,0-.491-.594H6.831a.5.5,0,0,0-.491.6L6.991,14.2A.5.5,0,0,1,7,14.3V15.75a1,1,0,0,0,1,1h8a1,1,0,0,0,1-1v-.005l-.009-1.354A.541.541,0,0,1,17,14.3Z"/><path d="M2,3.25a2,2,0,0,0-2,2,1.5,1.5,0,0,0,1.5,1.5.5.5,0,0,1,.5.5v4a3,3,0,0,0,3,3,.53.53,0,0,0,.522-.626L4,5.25A2,2,0,0,0,2,3.25Z"/><path d="M22,3.25a2,2,0,0,0-2,2l-1.523,8.374A.531.531,0,0,0,19,14.25a3,3,0,0,0,3-3v-4a.5.5,0,0,1,.5-.5A1.5,1.5,0,0,0,24,5.25,2,2,0,0,0,22,3.25Z"/></svg>