<svg xmlns="http://www.w3.org/2000/svg" viewBox="0 0 24 24"><title>history-piggy</title><path d="M4.481,5.493c2.83-.284,5.727-.285,7.519-.285s4.7,0,7.519.282a.249.249,0,0,0,.271-.29l-.468-2.809A2.852,2.852,0,0,0,16.5,0h-9A2.852,2.852,0,0,0,4.678,2.391L4.209,5.2a.251.251,0,0,0,.272.29Zm6.635-3.169-.47-.47a.5.5,0,0,1,.708-.707l.469.47a.252.252,0,0,0,.354,0l.469-.47a.5.5,0,0,1,.708.707l-.47.47a.249.249,0,0,0,0,.353l.47.47a.5.5,0,0,1-.708.707l-.469-.47a.252.252,0,0,0-.354,0l-.469.47a.5.5,0,0,1-.708-.707l.47-.47A.249.249,0,0,0,11.116,2.324Z"/><path d="M12.75,12h-1.5a.75.75,0,0,0,0,1.5h1.5a.75.75,0,0,0,0-1.5Z"/><path d="M22.543,6.953l-.007,0-.015,0A55.346,55.346,0,0,0,12,6.208a55.3,55.3,0,0,0-10.538.744,1.927,1.927,0,0,0-.668,3.429.252.252,0,0,0,.37-.089,10.328,10.328,0,0,1,.789-1.3L2.377,8.4a.5.5,0,0,1,.813.582A9.8,9.8,0,0,0,1,15.086c0,2.071.721,4.939,2.8,6.184l1.108.667h0a1,1,0,0,0,1.219-.152l.25-.25a.252.252,0,0,1,.333-.018l1.626,1.3a1,1,0,0,0,1.332-.074l.153-.154a.252.252,0,0,1,.354,0l1.116,1.117a1,1,0,0,0,1.414,0l1.116-1.116a.249.249,0,0,1,.354,0l.153.153a1,1,0,0,0,1.331.074h0l1.626-1.3a.252.252,0,0,1,.333.018l.249.249h0a1,1,0,0,0,1.221.151L20.2,21.27h0c2.069-1.24,2.8-4.1,2.8-6.184a9.8,9.8,0,0,0-2.19-6.1.5.5,0,0,1,.813-.582l.424.593a10.447,10.447,0,0,1,.789,1.3.25.25,0,0,0,.37.089,1.927,1.927,0,0,0-.663-3.428ZM7,11a1,1,0,1,1,1-1A1,1,0,0,1,7,11Zm7.486,8.111a3.922,3.922,0,0,1-4.974,0A1.152,1.152,0,0,1,10.151,17h3.7a1.152,1.152,0,0,1,.637,2.111ZM15.5,15a1.259,1.259,0,0,1-1,.5h-5a1.256,1.256,0,0,1-1.207-1.6l.58-2.028a1.694,1.694,0,0,1,1.177-1.161A7.615,7.615,0,0,1,12,10.5a7.615,7.615,0,0,1,1.95.213,1.691,1.691,0,0,1,1.176,1.161l.58,2.027h0A1.263,1.263,0,0,1,15.5,15ZM17,11a1,1,0,1,1,1-1A1,1,0,0,1,17,11Z"/></svg>