<svg xmlns="http://www.w3.org/2000/svg" viewBox="0 0 24 24"><title>history-babushka</title><path d="M17.794,14.711a.249.249,0,0,0-.3.264c.014.173.022.348.022.525,0,3.584-2.467,6.5-5.5,6.5s-5.5-2.916-5.5-6.5c0-.178.008-.353.022-.526a.249.249,0,0,0-.3-.264,5.1,5.1,0,0,0-2.189.82.036.036,0,0,0-.009.015C4.251,18.937,5.136,24,8.5,24h7c3.337,0,4.236-4.971,4.463-8.352a.252.252,0,0,0-.1-.216A6,6,0,0,0,17.794,14.711Z"/><path d="M11.36,11.114a.78.78,0,0,1,1.286,0c.694,1.156,2.743,1.572,4.551,1.94a19.16,19.16,0,0,1,2.388.586.249.249,0,0,0,.328-.278C19.51,11,18,10.267,18,7.494V6A6,6,0,0,0,6,6V7.494c0,2.717-1.5,3.518-1.908,5.874a.25.25,0,0,0,.329.278,18.8,18.8,0,0,1,2.4-.592C8.623,12.687,10.667,12.27,11.36,11.114ZM12,2A4,4,0,1,1,8,6,4,4,0,0,1,12,2Z"/><circle cx="9.013" cy="16" r="1"/><circle cx="15.013" cy="16" r="1"/><circle cx="12.013" cy="15" r="1"/><path d="M12.1,4.2a.5.5,0,0,1,.816.023,2.864,2.864,0,0,0,1.607,1.113.251.251,0,0,0,.307-.323,2.99,2.99,0,0,0-5.721.23.249.249,0,0,0,.25.313A3.464,3.464,0,0,0,12.1,4.2Z"/></svg>