<svg xmlns="http://www.w3.org/2000/svg" viewBox="0 0 24 24"><title>history-man-aviator</title><path d="M12,17.552,9.13,15.4a.756.756,0,0,0-.545-.144,21.3,21.3,0,0,0-3.564.757,1.253,1.253,0,0,0-.843.868v0a.015.015,0,0,1-.01.013,12.227,12.227,0,0,0-2.7,1.518A2.466,2.466,0,0,0,.5,20.394V23.5A.5.5,0,0,0,1,24H11.25a.25.25,0,0,0,.25-.25V20a.5.5,0,0,1,1,0v3.75a.25.25,0,0,0,.25.25H23a.5.5,0,0,0,.5-.5V20.394a2.464,2.464,0,0,0-.967-1.977A12.171,12.171,0,0,0,19.84,16.9a.03.03,0,0,1-.018-.021,1.256,1.256,0,0,0-.844-.869,21.369,21.369,0,0,0-3.563-.756.764.764,0,0,0-.545.144m.572,1.446a.247.247,0,0,1,.186-.047,20.139,20.139,0,0,1,2.145.431.249.249,0,0,1,.177.17.252.252,0,0,1-.054.239l-2.462,2.736a.322.322,0,0,1-.2.106.313.313,0,0,1-.053,0,.331.331,0,0,1-.22-.094l-1.613-1.613a.25.25,0,0,1,.026-.377ZM8.818,20.483H8.777a.322.322,0,0,1-.21-.107L6.1,17.639a.251.251,0,0,1-.053-.239.248.248,0,0,1,.176-.17A20.139,20.139,0,0,1,8.372,16.8a.251.251,0,0,1,.187.047L10.628,18.4a.248.248,0,0,1,.1.182.253.253,0,0,1-.072.2L9.042,20.388A.339.339,0,0,1,8.818,20.483Z"/><circle cx="14" cy="8.5" r="1"/><circle cx="10" cy="8.5" r="1"/><path d="M16.586,13.78a.25.25,0,0,1,.414.189V14a1,1,0,0,0,2,0c0-8.81,0-7.38-.006-7.609a.094.094,0,0,1,.032-.074A3.1,3.1,0,0,0,20,3.833C20,1.964,18.024.5,15.5.5c-.309,0-.59.014-.858.035a.247.247,0,0,1-.117-.019,6.438,6.438,0,0,0-5.051,0,.254.254,0,0,1-.116.019C9.09.514,8.809.5,8.5.5,5.977.5,4,1.964,4,3.833a3.126,3.126,0,0,0,.929,2.444A.218.218,0,0,1,5,6.444C5,6.578,5,7.512,5,14a1,1,0,0,0,2,0v-.031a.25.25,0,0,1,.414-.189,6.974,6.974,0,0,0,9.172,0ZM6,3.833C6,3.2,7.069,2.5,8.5,2.5c1.472,0,2.5.309,2.5.75,0,.587-1.58,1.917-3.083,1.917C6.093,5.167,6,4.66,6,3.833ZM16.084,5.167C14.58,5.167,13,3.837,13,3.25c0-.441,1.028-.75,2.5-.75,1.431,0,2.5.7,2.5,1.333C18,4.66,17.907,5.167,16.084,5.167ZM12,13.5A4.992,4.992,0,0,1,7.04,8.945.25.25,0,0,1,7.172,8.7a2.484,2.484,0,0,0,1.2-1.408c.074-.22.27-.294.8-.294h5.664c.481,0,.723.073.8.294a2.484,2.484,0,0,0,1.2,1.408.25.25,0,0,1,.132.243A4.992,4.992,0,0,1,12,13.5Z"/><path d="M13,10.861H11a.639.639,0,0,0-.3,1.2,2.354,2.354,0,0,0,.434.179,2.969,2.969,0,0,0,.869.127,3.024,3.024,0,0,0,.87-.125,2.444,2.444,0,0,0,.435-.182.639.639,0,0,0-.3-1.2Z"/></svg>