<svg xmlns="http://www.w3.org/2000/svg" viewBox="0 0 24 24"><title>historical-building-pillar</title><path d="M8.5,9.51a1,1,0,0,0-1,1V23a1,1,0,0,0,2,0V10.51A1,1,0,0,0,8.5,9.51Z"/><path d="M12,9.51a1,1,0,0,0-1,1V23a1,1,0,0,0,2,0V10.51A1,1,0,0,0,12,9.51Z"/><path d="M15.5,9.51a1,1,0,0,0-1,1V23a1,1,0,0,0,2,0V10.51A1,1,0,0,0,15.5,9.51Z"/><path d="M19.5,0H4.5A4.482,4.482,0,0,0,1.744,8.031a3.924,3.924,0,0,0,2.1.625,2.539,2.539,0,0,0,2.728-2.51A1.433,1.433,0,0,0,5.484,4.77a.808.808,0,0,0-.948.586.75.75,0,1,1-1.376-.6A2.284,2.284,0,0,1,5.789,3.3,2.94,2.94,0,0,1,8.076,6.146a3.856,3.856,0,0,1-.19,1.2A.5.5,0,0,0,8.361,8h7.278a.5.5,0,0,0,.475-.655,3.856,3.856,0,0,1-.19-1.2A2.94,2.94,0,0,1,18.211,3.3,2.284,2.284,0,0,1,20.84,4.76a.75.75,0,1,1-1.376.6.808.808,0,0,0-.948-.586,1.433,1.433,0,0,0-1.092,1.376,2.539,2.539,0,0,0,2.728,2.51,3.924,3.924,0,0,0,2.1-.625A4.482,4.482,0,0,0,19.5,0Z"/></svg>