<svg xmlns="http://www.w3.org/2000/svg" viewBox="0 0 24 24"><title>history-vase</title><path d="M9.25,2.5h5.5a1.25,1.25,0,0,0,0-2.5H9.25a1.25,1.25,0,0,0,0,2.5Z"/><path d="M21.388,16.5H20a1,1,0,0,1-1-1V12a.5.5,0,0,0-.5-.5H15a.5.5,0,0,0-.5.5v.5a.5.5,0,0,0,.5.5h1a1,1,0,0,1,1,1v1.5a1,1,0,0,1-1,1H10.5a1,1,0,0,1-1-1V12a.5.5,0,0,0-.5-.5H5.5A.5.5,0,0,0,5,12v.5a.5.5,0,0,0,.5.5h1a1,1,0,0,1,1,1v1.5a1,1,0,0,1-1,1H2.612a.5.5,0,0,0-.452.714,8.357,8.357,0,0,0,.607,1.064.5.5,0,0,0,.416.222H20.817a.5.5,0,0,0,.416-.222,8.48,8.48,0,0,0,.607-1.064.5.5,0,0,0-.452-.714Z"/><path d="M19.5,22h-.836a.5.5,0,0,1-.278-.916,10.853,10.853,0,0,0,.936-.7A.5.5,0,0,0,19,19.5H5a.5.5,0,0,0-.321.884,10.853,10.853,0,0,0,.936.7A.5.5,0,0,1,5.335,22H4.5a1,1,0,0,0,0,2h15a1,1,0,0,0,0-2Z"/><path d="M17.46,6.929C15.872,6.16,14.5,5.5,14.5,4.5V4a.5.5,0,0,0-.5-.5H10a.5.5,0,0,0-.5.5v.5c0,1-1.372,1.66-2.96,2.429C4.294,8.016,1.5,9.369,1.5,12.5v2a5.211,5.211,0,0,0,.032.556.5.5,0,0,0,.5.444H6a.5.5,0,0,0,.5-.5v-.5A.5.5,0,0,0,6,14H5a1,1,0,0,1-1-1V11.5a1,1,0,0,1,1-1H9.5a1,1,0,0,1,1,1V15a.5.5,0,0,0,.5.5h4.5A.5.5,0,0,0,16,15v-.5a.5.5,0,0,0-.5-.5h-1a1,1,0,0,1-1-1V11.5a1,1,0,0,1,1-1H19a1,1,0,0,1,1,1V15a.5.5,0,0,0,.5.5h1.47a.5.5,0,0,0,.5-.444A4.965,4.965,0,0,0,22.5,14.5v-2C22.5,9.369,19.706,8.016,17.46,6.929Z"/></svg>