<svg xmlns="http://www.w3.org/2000/svg" viewBox="0 0 24 24"><title>history-urn</title><path d="M19.921,10.5a.5.5,0,0,0,.426-.761,9.11,9.11,0,0,0-2.692-2.5c-1.1-.772-2.052-1.439-2.208-2.372a1.863,1.863,0,0,1,.044-.745.5.5,0,0,0-.486-.618H8.995a.5.5,0,0,0-.486.618,1.863,1.863,0,0,1,.044.745C8.4,5.8,7.446,6.463,6.345,7.235a9.122,9.122,0,0,0-2.692,2.5.5.5,0,0,0,.427.761Z"/><path d="M16.749,2.5a1.25,1.25,0,0,0,0-2.5h-9.5a1.25,1.25,0,1,0,0,2.5Z"/><path d="M18.053,22.173a.5.5,0,0,1-.138-.7,19.436,19.436,0,0,0,1.053-1.738A.5.5,0,0,0,18.527,19H5.473a.5.5,0,0,0-.44.736,19.2,19.2,0,0,0,1.051,1.737.5.5,0,0,1-.138.7A1,1,0,0,0,6.5,24h11a1,1,0,0,0,1-1A.986.986,0,0,0,18.053,22.173Z"/><path d="M3,11.993A14.185,14.185,0,0,0,3.313,15.1a.5.5,0,0,0,.489.4H5.5A.5.5,0,0,0,6,15V14a1,1,0,0,1,1-1H9.75a1,1,0,0,1,1,1v1a.5.5,0,0,0,.5.5H13a.5.5,0,0,0,.5-.5V14a1,1,0,0,1,1-1h2.751a1,1,0,0,1,1,1v1a.5.5,0,0,0,.5.5H20.2a.5.5,0,0,0,.488-.4A14.185,14.185,0,0,0,21,11.993a.5.5,0,0,0-.5-.493H3.5A.5.5,0,0,0,3,11.993Z"/><path d="M20.11,17.163a.5.5,0,0,0-.473-.663H18.246a1,1,0,0,1-1-1v-1a.5.5,0,0,0-.5-.5H15a.5.5,0,0,0-.5.5v1a1,1,0,0,1-1,1H10.75a1,1,0,0,1-1-1v-1a.5.5,0,0,0-.5-.5H7.5a.5.5,0,0,0-.5.5v1a1,1,0,0,1-1,1H4.363a.5.5,0,0,0-.473.663c.061.175.123.347.188.516A.5.5,0,0,0,4.545,18h14.91a.5.5,0,0,0,.467-.321C19.987,17.51,20.049,17.338,20.11,17.163Z"/></svg>