<svg xmlns="http://www.w3.org/2000/svg" viewBox="0 0 24 24"><title>history-man-philosopher</title><path d="M23.007,20.7a11.271,11.271,0,0,0-1.431-.969L18.375,24H23.5a.5.5,0,0,0,.5-.5v-.675A2.7,2.7,0,0,0,23.007,20.7Z"/><path d="M19.208,18.643a17.7,17.7,0,0,0-2.154-.618A6.437,6.437,0,0,1,11.96,20a6.449,6.449,0,0,1-5.08-1.959A14.456,14.456,0,0,0,.991,20.7,2.7,2.7,0,0,0,0,22.825V23.5a.5.5,0,0,0,.5.5H12.615Z"/><path d="M3.96,10.654a2.98,2.98,0,0,1,.432-1.663c-.022-.18-.024-.346-.039-.521A1.5,1.5,0,0,1,4,7.51v-.6a5.136,5.136,0,0,0-1.336,1.43L.835,10.808A6.8,6.8,0,0,0,.142,15.36a.5.5,0,0,0,.486.385.561.561,0,0,0,.114-.013,5.254,5.254,0,0,0,3.285-2.365l.5-.806A3.869,3.869,0,0,1,3.96,10.654Z"/><path d="M11.09,9.726a2.02,2.02,0,0,0-2.6,0,.75.75,0,1,0,1.022,1.1.562.562,0,0,1,.557,0,.855.855,0,0,0,.091.056.741.741,0,0,0,.969-.1.76.76,0,0,0,.145-.235A.748.748,0,0,0,11.09,9.726Z"/><path d="M14.489,10.825a.75.75,0,0,0,1.022-1.1,2.02,2.02,0,0,0-2.6,0,.741.741,0,0,0,.9,1.177.659.659,0,0,0,.126-.078A.562.562,0,0,1,14.489,10.825Z"/><path d="M6.149,13.072a.251.251,0,0,1,.144.188,5,5,0,0,0,.787,1.933C7.444,16.773,8.6,18.5,11.959,18.5c3.282,0,4.461-1.65,4.853-3.2a5.056,5.056,0,0,0,.854-2.039.254.254,0,0,1,.145-.189,2.732,2.732,0,0,0,1.439-2.434A2.112,2.112,0,0,0,18.785,9.2a13.923,13.923,0,0,0,.127-1.416A.492.492,0,0,0,19,7.512v-4.4A2.511,2.511,0,0,0,17.111.716a18.594,18.594,0,0,0-10.222,0A2.51,2.51,0,0,0,5,3.107v4.4a.5.5,0,0,0,.046.187,13.961,13.961,0,0,0,.128,1.5,2.107,2.107,0,0,0-.464,1.443A2.73,2.73,0,0,0,6.149,13.072Zm7.628-9.656-1.5,1a.5.5,0,0,1-.554,0l-1.5-1a.5.5,0,1,1,.554-.832L12,3.4l1.223-.816a.5.5,0,0,1,.554.832ZM10.231,15.135a.751.751,0,0,1,1.021-.29,1.161,1.161,0,0,0,.224.094,1.846,1.846,0,0,0,.548.08h0a1.82,1.82,0,0,0,.544-.079,1.13,1.13,0,0,0,.221-.093.75.75,0,0,1,.734,1.308,2.72,2.72,0,0,1-.5.215,3.323,3.323,0,0,1-.995.149h-.006a3.35,3.35,0,0,1-1-.15,2.765,2.765,0,0,1-.5-.213A.752.752,0,0,1,10.231,15.135Zm6.96-3.429a1.752,1.752,0,0,0-1,1.3c-.008.05-.032.094-.043.143a2.544,2.544,0,0,1-1.185.346c-1,0-1-1.5-3-1.5s-2,1.5-3,1.5a2.5,2.5,0,0,1-1.135-.32c-.013-.057-.042-.109-.052-.168a1.749,1.749,0,0,0-1-1.306,1.275,1.275,0,0,1-.559-1.095.619.619,0,0,1,.105-.44.752.752,0,0,0,.4-.794,12.842,12.842,0,0,1-.165-1.692A17.525,17.525,0,0,1,17.4,7.675a12.49,12.49,0,0,1-.165,1.7.752.752,0,0,0,.406.794.616.616,0,0,1,.105.439A1.278,1.278,0,0,1,17.191,11.706Z"/></svg>