<svg id="Bold" xmlns="http://www.w3.org/2000/svg" viewBox="0 0 24 24"><title>hospital-building</title><path d="M7.5,9A4.5,4.5,0,1,0,3,4.5,4.505,4.505,0,0,0,7.5,9Zm-2-5.25h.75a.5.5,0,0,0,.5-.5V2.5a.75.75,0,0,1,1.5,0v.75a.5.5,0,0,0,.5.5H9.5a.75.75,0,0,1,0,1.5H8.75a.5.5,0,0,0-.5.5V6.5a.75.75,0,0,1-1.5,0V5.75a.5.5,0,0,0-.5-.5H5.5a.75.75,0,0,1,0-1.5Z"/><path d="M11.5,13h3a.5.5,0,0,0,.5-.5V7a1.466,1.466,0,0,0-1.048-1.422.5.5,0,0,0-.633.359,5.992,5.992,0,0,1-11.638,0,.5.5,0,0,0-.633-.359A1.466,1.466,0,0,0,0,7V23a1,1,0,0,0,1,1H8.042a.5.5,0,0,0,.493-.585A2.464,2.464,0,0,1,8.5,23V16A3,3,0,0,1,11.5,13ZM6,20.75H3a.75.75,0,0,1,0-1.5H6a.75.75,0,0,1,0,1.5Zm0-3.5H3a.75.75,0,0,1,0-1.5H6a.75.75,0,0,1,0,1.5Zm.5-3.5H3a.75.75,0,0,1,0-1.5H6.5a.75.75,0,0,1,0,1.5Z"/><path d="M22.5,14.5h-11A1.5,1.5,0,0,0,10,16v7a1,1,0,0,0,1,1h3.5a.5.5,0,0,0,.5-.5v-1a2,2,0,0,1,4,0v1a.5.5,0,0,0,.5.5H23a1,1,0,0,0,1-1V16A1.5,1.5,0,0,0,22.5,14.5Zm-7,3.75H13a.75.75,0,0,1,0-1.5h2.5a.75.75,0,0,1,0,1.5Zm5.5,0H18.5a.75.75,0,0,1,0-1.5H21a.75.75,0,0,1,0,1.5Z"/></svg>