<svg xmlns="http://www.w3.org/2000/svg" viewBox="0 0 24 24"><title>hotel-bedroom-1</title><path d="M1.6,9.8,11.7,2.224a.5.5,0,0,1,.6,0L22.4,9.8a1,1,0,1,0,1.2-1.6L13.2.4a2.015,2.015,0,0,0-2.4,0L.4,8.2A1,1,0,1,0,1.6,9.8Z"/><circle cx="5.5" cy="16.499" r="2"/><path d="M8.5,14.34V18a.5.5,0,0,0,.5.5H19.667a.834.834,0,0,0,.623-1.387C18.233,14.8,14.1,13.37,9.309,13.508A.833.833,0,0,0,8.5,14.34Z"/><path d="M24,14a1,1,0,0,0-2,0v5.5a.5.5,0,0,1-.5.5H2.5a.5.5,0,0,1-.5-.5v-7a1,1,0,0,0-2,0V23a1,1,0,0,0,2,0v-.5a.5.5,0,0,1,.5-.5h19a.5.5,0,0,1,.5.5V23a1,1,0,0,0,2,0Z"/></svg>