<svg xmlns="http://www.w3.org/2000/svg" viewBox="0 0 24 24"><title>hotel-double-bed-add</title><path d="M.9,15.5H9.248a.5.5,0,0,0,.477-.352A8.023,8.023,0,0,1,17.375,9.5a7.925,7.925,0,0,1,4.883,1.669.5.5,0,0,0,.8-.486l-.7-3.773a.5.5,0,0,0-.49-.41H2.385a.5.5,0,0,0-.49.41l-1.49,8a.56.56,0,0,0,.11.41A.527.527,0,0,0,.9,15.5Z"/><path d="M9.375,17.5c0-.159,0-.316.013-.472a.5.5,0,0,0-.5-.528H.625a.5.5,0,0,0-.5.5v3.25a2.253,2.253,0,0,0,2.25,2.25.248.248,0,0,1,.25.25v.5a.75.75,0,0,0,1.5,0V23a.5.5,0,0,1,.5-.5h5.547a.5.5,0,0,0,.424-.766A7.911,7.911,0,0,1,9.375,17.5Z"/><path d="M2.625,5.5H4.2A.5.5,0,0,0,4.7,5.082l.36-2.165A.5.5,0,0,1,5.549,2.5h4.576a.5.5,0,0,1,.5.5V5a.5.5,0,0,0,.5.5h2a.5.5,0,0,0,.5-.5V3a.5.5,0,0,1,.5-.5H18.7a.5.5,0,0,1,.494.417l.36,2.165a.5.5,0,0,0,.494.418h1.576a.5.5,0,0,0,.5-.5V2.25A2.253,2.253,0,0,0,19.875,0H4.375a2.253,2.253,0,0,0-2.25,2.25V5A.5.5,0,0,0,2.625,5.5Z"/><path d="M17.375,11a6.5,6.5,0,1,0,6.5,6.5A6.508,6.508,0,0,0,17.375,11Zm2.5,7.5h-1a.5.5,0,0,0-.5.5v1a1,1,0,0,1-2,0V19a.5.5,0,0,0-.5-.5h-1a1,1,0,0,1,0-2h1a.5.5,0,0,0,.5-.5V15a1,1,0,0,1,2,0v1a.5.5,0,0,0,.5.5h1a1,1,0,0,1,0,2Z"/></svg>