<svg xmlns="http://www.w3.org/2000/svg" viewBox="0 0 24 24"><title>hotel-double-bed-1</title><path d="M22.5,11.75H1.5A1.5,1.5,0,0,0,0,13.25v4A1.5,1.5,0,0,0,1.125,18.7a.5.5,0,0,1,.375.483V20.25a1,1,0,0,0,2,0v-1a.5.5,0,0,1,.5-.5H20a.5.5,0,0,1,.5.5v1a1,1,0,0,0,2,0V19.186a.5.5,0,0,1,.375-.483A1.5,1.5,0,0,0,24,17.25v-4A1.5,1.5,0,0,0,22.5,11.75Z"/><path d="M2.5,10.25a.5.5,0,0,0,.5.5H21a.5.5,0,0,0,.5-.5v-5A2.5,2.5,0,0,0,19,2.75H5a2.5,2.5,0,0,0-2.5,2.5Zm4-3h2A2.5,2.5,0,0,1,10.666,8.5a.5.5,0,0,1-.433.75H4.767a.5.5,0,0,1-.433-.75A2.5,2.5,0,0,1,6.5,7.25Zm9,0h2A2.5,2.5,0,0,1,19.666,8.5a.5.5,0,0,1-.433.75H13.767a.5.5,0,0,1-.433-.75A2.5,2.5,0,0,1,15.5,7.25Z"/></svg>