<svg xmlns="http://www.w3.org/2000/svg" viewBox="0 0 24 24"><title>house-nature</title><path d="M3.5,7H8A2.5,2.5,0,0,0,8,2a2.311,2.311,0,0,0-.924.176A.3.3,0,0,1,6.665,2,3.5,3.5,0,1,0,3.5,7Z"/><path d="M23,22H21.25a.25.25,0,0,1-.25-.25v-1.2a.243.243,0,0,1,.165-.228A4.03,4.03,0,0,0,24,16.625c0-1.689-2.666-8.026-3.813-10.677a.78.78,0,0,0-1.375,0C17.666,8.6,15,14.936,15,16.625a4.091,4.091,0,0,0,3.185,3.818A.255.255,0,0,0,18.5,20.2V18.436a.249.249,0,0,0-.073-.177l-1.281-1.28a.5.5,0,0,1,.708-.708s.4.411.473.474.173,0,.173-.13V13.062a.5.5,0,1,1,1,0V21.75a.25.25,0,0,1-.25.25h-6a.25.25,0,0,1-.25-.25V17.506c0-.141.146-.027.146-.027a.5.5,0,0,0,.708-.708l-1-1L7.707,10.625a1,1,0,0,0-1.414,0L1.147,15.771h0l-1,1a.5.5,0,0,0,.708.708S1,17.305,1,17.5v4.279a.263.263,0,0,1-.222.248A1,1,0,0,0,1,24H23a1,1,0,0,0,0-2ZM8.5,21.75a.25.25,0,0,1-.25.25H5.75a.25.25,0,0,1-.25-.25V19.125a1,1,0,0,1,1-1h1a1,1,0,0,1,1,1Z"/></svg>