<svg xmlns="http://www.w3.org/2000/svg" viewBox="0 0 24 24"><title>house-fire-1</title><path d="M21.42,8.468a2.114,2.114,0,0,1-.5.08.25.25,0,0,1-.208-.406,9.958,9.958,0,0,0,1.814-7.5A.75.75,0,0,0,21.123.4a1.625,1.625,0,0,1-1.213.933,10.274,10.274,0,0,0-5.86.879.252.252,0,0,1-.233,0,.249.249,0,0,1-.133-.191A3.757,3.757,0,0,0,13.113.483.74.74,0,0,0,12.438.14a.75.75,0,0,0-.629.419,2.259,2.259,0,0,1-1.151.815,6.134,6.134,0,0,0-3.68,3.6,4.745,4.745,0,0,0,.463,3.623.324.324,0,0,0,.51.05L8.9,7.631A2,2,0,0,1,10.362,7h0a2,2,0,0,1,1.46.636c.887.948,4.069,4.327,6.141,6.526a.5.5,0,0,0,.422.154,4.489,4.489,0,0,0,2.164-.79,5.281,5.281,0,0,0,1.832-4.353.75.75,0,0,0-.964-.7Z"/><path d="M11.092,8.316a1.035,1.035,0,0,0-1.459,0c-.7.745-8,8.5-8,8.5A1,1,0,0,0,2.363,18.5h1.5a.5.5,0,0,1,.5.5v4a1,1,0,0,0,1,1h10a1,1,0,0,0,1-1V19a.5.5,0,0,1,.5-.5h1.5a1,1,0,0,0,.726-1.687S12.442,9.759,11.092,8.316ZM11.863,16a.5.5,0,0,1-.5.5h-2a.5.5,0,0,1-.5-.5V14a.5.5,0,0,1,.5-.5h2a.5.5,0,0,1,.5.5Z"/></svg>