<svg xmlns="http://www.w3.org/2000/svg" viewBox="0 0 24 24"><title>house-heart</title><path d="M20.07,6.536a.249.249,0,0,0,.43-.172V1.493a.5.5,0,0,0-.5-.5H16.5a.5.5,0,0,0-.5.5v.589a.5.5,0,0,0,.139.345Z"/><path d="M23.722,11.8,12.722.3a1.034,1.034,0,0,0-1.445,0l-11,11.5A1,1,0,0,0,1,13.493H2.5a.5.5,0,0,1,.5.5v8.5a1.5,1.5,0,0,0,1.5,1.5h15a1.5,1.5,0,0,0,1.5-1.5v-8.5a.5.5,0,0,1,.5-.5H23a1,1,0,0,0,.722-1.692Zm-7.229,4.45-3.771,3.933a1,1,0,0,1-1.444,0L7.5,16.243a2.948,2.948,0,0,1,1.62-4.988,2.91,2.91,0,0,1,2.557.825l.146.146a.25.25,0,0,0,.353,0l.146-.146a2.949,2.949,0,0,1,4.17,4.171Z"/></svg>