<svg xmlns="http://www.w3.org/2000/svg" viewBox="0 0 24 24"><title>human-resources-offer-woman</title><path d="M1,14.75a1,1,0,0,0-1,1V23a1,1,0,0,0,2,0V15.75A1,1,0,0,0,1,14.75Z"/><path d="M15.5,19.5H6.375a.625.625,0,0,1,0-1.25H8.9a1,1,0,0,0,.92-1.394A2.233,2.233,0,0,0,7.764,15.5H3.5A.5.5,0,0,0,3,16v6.5a.5.5,0,0,0,.5.5H14.264A2.239,2.239,0,0,0,16.5,20.763V20.5A1,1,0,0,0,15.5,19.5Z"/><path d="M23.926,13.4a.317.317,0,0,0,.073-.23,6.4,6.4,0,0,0-.549-2.107c-.4-.846-2.068-1.432-4.163-2.253a.6.6,0,0,1-.37-.563V7.713a.018.018,0,0,1,.018-.018A4.479,4.479,0,0,0,21.832,7a.3.3,0,0,0,.131-.213.319.319,0,0,0-.071-.244c-.357-.414-.6-.914-.709-2.558C21,1.038,19.115,0,17.5,0s-3.494,1.038-3.683,3.989c-.105,1.644-.352,2.144-.709,2.558a.319.319,0,0,0-.071.244A.3.3,0,0,0,13.169,7a4.311,4.311,0,0,0,2.662.7.251.251,0,0,1,.178.073.247.247,0,0,1,.074.177v.3a.6.6,0,0,1-.37.563c-2.095.821-3.764,1.407-4.163,2.253A6.4,6.4,0,0,0,11,13.172a.313.313,0,0,0,.073.23.279.279,0,0,0,.21.1H23.716A.279.279,0,0,0,23.926,13.4Z"/></svg>