<svg xmlns="http://www.w3.org/2000/svg" viewBox="0 0 24 24"><title>human-resources-search-team</title><path d="M13.956,2.086A10.019,10.019,0,0,1,19.7,5.514a1,1,0,1,0,1.539-1.277A12.024,12.024,0,0,0,14.345.124a1,1,0,0,0-.389,1.962Z"/><path d="M2,11.946a1.022,1.022,0,0,0-1-.995,1,1,0,0,0-.995,1,12.021,12.021,0,0,0,2.723,7.551,1,1,0,1,0,1.545-1.27A10.009,10.009,0,0,1,2,11.946Z"/><path d="M23.872,10.14a1,1,0,1,0-1.978.291A10.215,10.215,0,0,1,22,11.9a10.018,10.018,0,0,1-2.236,6.3,1,1,0,0,0,1.552,1.262,12.019,12.019,0,0,0,2.556-9.32Z"/><path d="M15.37,21.313a10.09,10.09,0,0,1-6.691.017,1,1,0,1,0-.664,1.887,12.049,12.049,0,0,0,8.029-.021,1,1,0,0,0-.674-1.883Z"/><path d="M2.049,7.094a1,1,0,0,0,1.373-.342A10.042,10.042,0,0,1,8.585,2.494,1,1,0,0,0,7.9.614,12.056,12.056,0,0,0,1.707,5.722,1,1,0,0,0,2.049,7.094Z"/><circle cx="15.5" cy="8.895" r="2.5"/><path d="M15.5,12.145a3.98,3.98,0,0,0-2.361.771.25.25,0,0,0-.056.346,4.972,4.972,0,0,1,.911,2.645.251.251,0,0,0,.25.238h5a.25.25,0,0,0,.182-.079.248.248,0,0,0,.067-.188A4,4,0,0,0,15.5,12.145Z"/><path d="M9,12.145a4,4,0,0,0-3.991,3.734.246.246,0,0,0,.067.187.25.25,0,0,0,.182.079h7.484a.25.25,0,0,0,.182-.079.248.248,0,0,0,.067-.188A4,4,0,0,0,9,12.145Z"/><path d="M9.9,11.227A2.505,2.505,0,1,0,9,11.4,2.5,2.5,0,0,0,9.9,11.227Z"/></svg>