<svg xmlns="http://www.w3.org/2000/svg" viewBox="0 0 24 24"><title>human-resources-search-women</title><path d="M19.977,12.012a.25.25,0,0,0-.273-.054,6.972,6.972,0,0,1-2.129.518.249.249,0,0,0-.22.318,1.959,1.959,0,0,1,.071.71,2.006,2.006,0,0,1-.826,1.483,8.963,8.963,0,0,1-1.936,1.055.25.25,0,0,0-.025.456q.7.36,1.4.778h0a5.22,5.22,0,0,1,2.46,4.7V23.75a.25.25,0,0,0,.25.25h5a.25.25,0,0,0,.25-.25V22.488a2.81,2.81,0,0,0-1.307-2.56,16.426,16.426,0,0,0-2.955-1.391c-.268-.093-.551-.332-.551-.6V17.6a.252.252,0,0,1,.074-.178.246.246,0,0,1,.178-.072,5.651,5.651,0,0,0,3.609-1.025.383.383,0,0,0,.145-.287.41.41,0,0,0-.122-.311,2.431,2.431,0,0,1-.826-1.708.247.247,0,0,0-.156-.2,2.5,2.5,0,0,1-.857-.561Z"/><path d="M10,5.5c0-.124,0-.247.01-.368a.249.249,0,0,0-.181-.253,4.883,4.883,0,0,0-2.855.061.354.354,0,0,1-.044.011c-2.18.322-4.464,1.909-4.713,5.594-.159,2.349-.521,2.709-1.151,3.339a.5.5,0,0,0,.067.763,6.775,6.775,0,0,0,4.3,1.263h.154a.249.249,0,0,1,.253.25v.423c0,.327-.343.619-.668.732a19.891,19.891,0,0,0-3.589,1.7A3.452,3.452,0,0,0,0,22.15v1.6A.25.25,0,0,0,.25,24H15.333a.25.25,0,0,0,.25-.25v-1.6A3.448,3.448,0,0,0,14,19.017a19.923,19.923,0,0,0-3.589-1.7c-.326-.113-.668-.406-.668-.732v-.424a.247.247,0,0,1,.074-.177.251.251,0,0,1,.178-.073,6.886,6.886,0,0,0,4.458-1.261.517.517,0,0,0,.2-.382.548.548,0,0,0-.162-.413,3.075,3.075,0,0,1-1.009-2.2.249.249,0,0,0-.117-.179A6.994,6.994,0,0,1,10,5.5Z"/><path d="M17,0a5.5,5.5,0,1,0,2.949,10.14.25.25,0,0,1,.311.034l2.033,2.033a1,1,0,1,0,1.414-1.415L21.674,8.76a.25.25,0,0,1-.034-.311A5.5,5.5,0,0,0,17,0ZM13.5,5.5A3.5,3.5,0,1,1,17,9,3.5,3.5,0,0,1,13.5,5.5Z"/></svg>