<svg xmlns="http://www.w3.org/2000/svg" viewBox="0 0 24 24"><title>human-resources-offer-man</title><path d="M1.25,14.749a1,1,0,0,0-1,1V23a1,1,0,0,0,2,0v-7.25A1,1,0,0,0,1.25,14.749Z"/><path d="M15.75,19.5H6.625a.625.625,0,0,1,0-1.25H9.15a1,1,0,0,0,.92-1.393A2.234,2.234,0,0,0,8.014,15.5H3.75a.5.5,0,0,0-.5.5v6.5a.5.5,0,0,0,.5.5H14.514a2.238,2.238,0,0,0,2.236-2.236V20.5A1,1,0,0,0,15.75,19.5Z"/><path d="M23.132,10.983c-.454-.908-1.9-1.441-3.909-2.178h0l-.4-.147a.249.249,0,0,1-.163-.234V7.59a.248.248,0,0,1,.073-.176A2.629,2.629,0,0,0,19.489,5.9a.251.251,0,0,1,.052-.123,1.386,1.386,0,0,0,.246-.543A1.54,1.54,0,0,0,19.6,4a.017.017,0,0,1,0-.017A4.861,4.861,0,0,0,20.066,1.5C19.854.439,18.486.03,17.276,0a3.328,3.328,0,0,0-2.495.773.252.252,0,0,1-.137.086,1.242,1.242,0,0,0-.734.47,3.059,3.059,0,0,0-.018,2.523.251.251,0,0,1-.029.2,1.583,1.583,0,0,0-.15,1.178,1.386,1.386,0,0,0,.246.543.245.245,0,0,1,.052.123,2.629,2.629,0,0,0,.753,1.512.248.248,0,0,1,.073.176v.833a.249.249,0,0,1-.163.234l-.4.148h0c-2.006.738-3.455,1.27-3.907,2.178A6.213,6.213,0,0,0,9.75,13.5a.5.5,0,0,0,.5.5h13a.5.5,0,0,0,.5-.5A6.213,6.213,0,0,0,23.132,10.983Z"/></svg>