<svg xmlns="http://www.w3.org/2000/svg" viewBox="0 0 24 24"><title>human-resources-man-previous-1</title><path d="M23.992,11.609A10.707,10.707,0,0,0,12.89,1.294,10.843,10.843,0,0,0,3.158,8.455a.25.25,0,0,1-.254.163L.538,8.436a.519.519,0,0,0-.469.246.5.5,0,0,0,.015.53l3.069,4.6a.5.5,0,0,0,.383.221h.033a.5.5,0,0,0,.376-.171L7.524,9.775a.5.5,0,0,0-.338-.828L5.521,8.819a.25.25,0,0,1-.208-.353,8.81,8.81,0,0,1,7.651-5.173,8.712,8.712,0,0,1,9.03,8.39,8.922,8.922,0,0,1-1.482,5.251.25.25,0,0,1-.332.079,12.721,12.721,0,0,0-4.4-1.48.031.031,0,0,1-.027-.031v-.016a.03.03,0,0,1,.015-.026,4.252,4.252,0,0,0,1.985-3.6V8.615a1,1,0,0,0-.293-.707.244.244,0,0,1-.063-.107l-.008-.027a3.121,3.121,0,0,0-2.67-2.04c-2.25-.449-3.267.417-3.679,1a.25.25,0,0,1-.173.1A1.446,1.446,0,0,0,9.7,7.687a.858.858,0,0,0-.037.082.251.251,0,0,1-.067.091,1,1,0,0,0-.344.755v3.25a4.253,4.253,0,0,0,1.971,3.586.061.061,0,0,1,.029.052v.02l-.006.007A12.654,12.654,0,0,0,6.7,17.082a.254.254,0,0,1-.142.035,1,1,0,0,0-.911,1.522,9.5,9.5,0,0,0,7.993,4.073A10.592,10.592,0,0,0,23.992,11.609ZM13.863,9.883a.25.25,0,0,1,.28.029,3.2,3.2,0,0,0,1.408.638.249.249,0,0,1,.2.244v1.071a2.25,2.25,0,1,1-4.5,0v-1.42a.25.25,0,0,1,.272-.249A4.437,4.437,0,0,0,13.863,9.883Z"/></svg>