<svg xmlns="http://www.w3.org/2000/svg" viewBox="0 0 24 24"><title>human-resources-businessman-mail</title><path d="M14.068,2.461a2,2,0,0,0-2-2h-10a2,2,0,0,0-2,2V9.418a2,2,0,0,0,2,2h10a2,2,0,0,0,2-2ZM7.4,5.81a.249.249,0,0,1-.282.005C4.829,4.307,3.508,3.454,2.8,3a.249.249,0,0,1,.134-.46h8.345a.25.25,0,0,1,.144.454ZM2.068,5.348a.25.25,0,0,1,.388-.208C6.722,7.948,6.379,7.722,6.429,7.749a1.818,1.818,0,0,0,1.722-.026c.046-.025-.257.19,3.523-2.489a.25.25,0,0,1,.394.2v3.73a.249.249,0,0,1-.25.25h-9.5a.249.249,0,0,1-.25-.25Z"/><path d="M21.45,8.879a.251.251,0,0,1-.011-.432,4.081,4.081,0,1,0-4.373-.077.249.249,0,0,1-.027.432,4.762,4.762,0,0,0-2.656,4.262v2.851a.5.5,0,0,0,.5.5h1.458a.25.25,0,0,1,.249.225l.645,6.448a.5.5,0,0,0,.5.451h2.85a.5.5,0,0,0,.5-.451l.645-6.448a.249.249,0,0,1,.248-.225h1.46a.5.5,0,0,0,.5-.5V13.064A4.775,4.775,0,0,0,21.45,8.879Zm-1.543,3.376a.75.75,0,0,1-1.5,0V10.563a.75.75,0,1,1,1.5,0ZM17.326,4.39a.25.25,0,0,1,.368-.139,5.071,5.071,0,0,0,2.639.738,5.147,5.147,0,0,0,.944-.088.089.089,0,0,1,.106.088,2.076,2.076,0,0,1-4.151,0A1.976,1.976,0,0,1,17.326,4.39Z"/></svg>