<svg xmlns="http://www.w3.org/2000/svg" viewBox="0 0 24 24"><title>human-resources-businessman-clock</title><path d="M7.017,0a6.976,6.976,0,1,0,6.976,6.975A6.983,6.983,0,0,0,7.017,0Zm0,11.958A4.983,4.983,0,1,1,12,6.975,4.988,4.988,0,0,1,7.017,11.958Z"/><path d="M9.01,6.088H8.264a.25.25,0,0,1-.25-.25V4.484a1,1,0,1,0-1.993,0v2.6a1,1,0,0,0,1,1H9.01a1,1,0,1,0,0-1.993Z"/><path d="M21.312,9.316a.25.25,0,0,1-.026-.432,4.056,4.056,0,1,0-4.361.076.25.25,0,0,1-.011.432,4.761,4.761,0,0,0-2.471,4.171V16.4a.5.5,0,0,0,.5.5h1.453a.25.25,0,0,1,.249.225l.642,6.425a.5.5,0,0,0,.5.449H20.62a.5.5,0,0,0,.5-.449l.643-6.425a.25.25,0,0,1,.249-.225H23.46a.5.5,0,0,0,.5-.5v-2.84A4.743,4.743,0,0,0,21.312,9.316Zm-1.364,3.44a.748.748,0,0,1-1.5,0V11.07a.748.748,0,0,1,1.5,0ZM17.075,4.919a.252.252,0,0,1,.369-.138,5.059,5.059,0,0,0,2.628.734,5.029,5.029,0,0,0,.941-.088.1.1,0,0,1,.073.019.09.09,0,0,1,.033.069,2.068,2.068,0,0,1-4.136,0A1.992,1.992,0,0,1,17.075,4.919Z"/></svg>