<svg xmlns="http://www.w3.org/2000/svg" viewBox="0 0 24 24"><title>human-resources-rating-man</title><path d="M14.538,20.18a.25.25,0,0,1-.146-.208.247.247,0,0,1,.111-.228,4.517,4.517,0,1,0-4.982,0,.249.249,0,0,1,.111.228.253.253,0,0,1-.147.208A6.157,6.157,0,0,0,6.578,22.9.75.75,0,0,0,7.239,24h9.546a.749.749,0,0,0,.661-1.1A6.159,6.159,0,0,0,14.538,20.18ZM9.631,15.163A.251.251,0,0,1,10,15.034a5.833,5.833,0,0,0,4.373.821.124.124,0,0,1,.151.123,2.517,2.517,0,1,1-5.033,0A2.493,2.493,0,0,1,9.631,15.163Z"/><path d="M23.927,5.553a.985.985,0,0,0-.934-.612H21.511a.25.25,0,0,1-.234-.162L20.433,2.55A.54.54,0,0,0,20.41,2.5a1.054,1.054,0,0,0-1.856.049L18.01,3.986a.231.231,0,0,0-.016.078A2.5,2.5,0,0,1,16.75,6.118a.25.25,0,0,0-.086.3l.229.524a2.511,2.511,0,0,1-.62,2.868,2.213,2.213,0,0,1-.234.188.25.25,0,0,0-.086.3,1.033,1.033,0,0,0,1.461.506l1.957-1.1a.249.249,0,0,1,.245,0l1.957,1.1a1.04,1.04,0,0,0,.51.136,1.021,1.021,0,0,0,.688-.269,1,1,0,0,0,.251-1.157l-.717-1.647a.249.249,0,0,1,.085-.3l1.3-.912A1.006,1.006,0,0,0,23.927,5.553Z"/><path d="M7.718,9.815A2.512,2.512,0,0,1,7.1,6.946l.226-.518a.25.25,0,0,0-.086-.3A2.613,2.613,0,0,1,6,4.043a.251.251,0,0,0-.015-.077L5.445,2.55A.54.54,0,0,0,5.422,2.5a1.054,1.054,0,0,0-1.856.049L2.721,4.78a.25.25,0,0,1-.234.161H1a.985.985,0,0,0-.933.611,1.03,1.03,0,0,0,.3,1.155l1.233.859a.249.249,0,0,1,.086.305L.977,9.516a1,1,0,0,0,.251,1.157,1.019,1.019,0,0,0,1.2.133l1.957-1.1a.249.249,0,0,1,.245,0l1.956,1.1a1.041,1.041,0,0,0,.511.136,1.04,1.04,0,0,0,.948-.635.25.25,0,0,0-.086-.3A2.574,2.574,0,0,1,7.718,9.815Z"/><path d="M14.812,5.9a.249.249,0,0,1,.086-.3l1.3-.912a1.006,1.006,0,0,0,.239-1.1A.988.988,0,0,0,15.5,2.97H14.018a.248.248,0,0,1-.233-.161L12.94.58a.316.316,0,0,0-.022-.05A1.008,1.008,0,0,0,12.007,0a1.036,1.036,0,0,0-.945.58l-.846,2.229a.248.248,0,0,1-.233.161H8.5a.987.987,0,0,0-.934.611,1.031,1.031,0,0,0,.3,1.155L9.1,5.6a.252.252,0,0,1,.086.305L8.473,7.545A1,1,0,0,0,8.724,8.7a1.019,1.019,0,0,0,.687.269,1.041,1.041,0,0,0,.511-.136l1.956-1.1a.251.251,0,0,1,.246,0l1.956,1.1a1.041,1.041,0,0,0,.511.136,1.019,1.019,0,0,0,.687-.269,1,1,0,0,0,.251-1.157Z"/></svg>