<svg xmlns="http://www.w3.org/2000/svg" viewBox="0 0 24 24"><title>human-resources-offer-employee-1</title><circle cx="18.036" cy="3.691" r="3.692"/><path d="M18.036,8.726a6.033,6.033,0,0,0-5.8,4.38.253.253,0,0,0,.041.219.248.248,0,0,0,.2.1H23.594a.25.25,0,0,0,.24-.319A6.033,6.033,0,0,0,18.036,8.726Z"/><path d="M1.156,14.75a1,1,0,0,0-1,1V23a1,1,0,0,0,2,0V15.75A1,1,0,0,0,1.156,14.75Z"/><path d="M15.656,19.5H6.531a.625.625,0,1,1,0-1.25H9.057a1,1,0,0,0,.92-1.394A2.234,2.234,0,0,0,7.92,15.5H3.656a.5.5,0,0,0-.5.5v6.5a.5.5,0,0,0,.5.5H14.42a2.239,2.239,0,0,0,2.236-2.237V20.5A1,1,0,0,0,15.656,19.5Z"/></svg>