<svg xmlns="http://www.w3.org/2000/svg" viewBox="0 0 24 24"><title>human-resources-offer-woman-1</title><path d="M.971,14.75a1,1,0,0,0-1,1V23a1,1,0,0,0,2,0V15.75A1,1,0,0,0,.971,14.75Z"/><path d="M15.471,19.5H6.346a.625.625,0,0,1,0-1.25H8.872a1,1,0,0,0,.919-1.394A2.233,2.233,0,0,0,7.735,15.5H3.471a.5.5,0,0,0-.5.5v6.5a.5.5,0,0,0,.5.5H14.235a2.239,2.239,0,0,0,2.236-2.237V20.5A1,1,0,0,0,15.471,19.5Z"/><path d="M20.17,9.786a.249.249,0,0,0-.3.11l-1.431,2.485a.25.25,0,0,1-.433,0L16.574,9.9a.251.251,0,0,0-.3-.11,5.76,5.76,0,0,0-3.8,5.41.5.5,0,0,0,.5.5h10.5a.5.5,0,0,0,.5-.5A5.76,5.76,0,0,0,20.17,9.786Z"/><path d="M21.351,8.044a.25.25,0,0,1,.377.059,3.923,3.923,0,0,0,.6.758,1,1,0,1,0,1.4-1.423c-.336-.332-.783-.99-.783-2.863a4.575,4.575,0,1,0-9.15,0c0,1.873-.447,2.531-.783,2.863a1,1,0,0,0,1.4,1.423,3.916,3.916,0,0,0,.6-.757.25.25,0,0,1,.376-.06,4.567,4.567,0,0,0,5.957,0ZM17.1,4.384a2.734,2.734,0,0,0,1.089-.912.251.251,0,0,1,.4-.017,4.508,4.508,0,0,0,1.044.929,3.153,3.153,0,0,0,1.051.472.251.251,0,0,1,.188.3A2.575,2.575,0,0,1,15.833,5a.25.25,0,0,1,.2-.287A3.967,3.967,0,0,0,17.1,4.384Z"/></svg>