<svg id="Bold" xmlns="http://www.w3.org/2000/svg" viewBox="0 0 24 24"><title>humidity-none</title><path d="M17.721,10.046a.251.251,0,0,0-.046.288A10.923,10.923,0,0,1,19,15,7,7,0,0,1,7.624,20.459a.25.25,0,0,0-.333.018L6.225,21.542a.255.255,0,0,0-.073.189.248.248,0,0,0,.09.18A8.995,8.995,0,0,0,21,15a13.472,13.472,0,0,0-1.774-6,.25.25,0,0,0-.4-.061Z"/><path d="M23.707,1.707A1,1,0,0,0,23.814.419a1.05,1.05,0,0,0-.107-.126,1,1,0,0,0-1.414,0L17.277,5.309a.25.25,0,0,1-.38-.03A44.408,44.408,0,0,0,12.707.293a1,1,0,0,0-1.414,0C10.954.632,3,8.659,3,15a8.952,8.952,0,0,0,.755,3.606.25.25,0,0,1-.052.277l-3.41,3.41A1,1,0,0,0,1,24a1.024,1.024,0,0,0,.332-.056.994.994,0,0,0,.375-.237ZM5,15C5,10.633,9.785,4.894,11.815,2.657a.25.25,0,0,1,.37,0A44.484,44.484,0,0,1,15.512,6.78a.25.25,0,0,1-.027.321L5.657,16.929a.251.251,0,0,1-.418-.112A6.986,6.986,0,0,1,5,15Z"/></svg>