<svg id="Bold" xmlns="http://www.w3.org/2000/svg" viewBox="0 0 24 24"><title>ice-snowflake</title><path d="M23.966,14.642a1,1,0,0,0-1.226-.706h0l-3.571.962a.253.253,0,0,1-.19-.025l-.921-.531a.252.252,0,0,1-.117-.154A.246.246,0,0,1,17.968,14l.889-1.483a1,1,0,0,0,0-1.03L17.968,10a.246.246,0,0,1-.028-.191.252.252,0,0,1,.117-.154l.921-.531a.253.253,0,0,1,.19-.025l3.571.962A.99.99,0,0,0,23,10.1a1,1,0,0,0,.26-1.966L20.393,7.36a.25.25,0,0,1-.176-.306l.775-2.893a1,1,0,1,0-1.931-.518l-.965,3.6a.251.251,0,0,1-.117.152l-.958.553a.25.25,0,0,1-.34-.088l-.824-1.373A1,1,0,0,0,15,6H13.25A.25.25,0,0,1,13,5.75V4.518a.249.249,0,0,1,.073-.177l2.634-2.634A1,1,0,0,0,14.293.293L12.177,2.409a.25.25,0,0,1-.354,0L9.707.293A1,1,0,0,0,8.293,1.707l2.634,2.634A.249.249,0,0,1,11,4.518V5.75a.25.25,0,0,1-.25.25H9a1,1,0,0,0-.857.485L7.319,7.858a.25.25,0,0,1-.34.088l-.958-.553A.251.251,0,0,1,5.9,7.241l-.965-3.6a1,1,0,1,0-1.931.518l.775,2.893a.25.25,0,0,1-.176.306L.739,8.133a1,1,0,1,0,.522,1.93L4.832,9.1a.253.253,0,0,1,.19.025l.921.531a.252.252,0,0,1,.117.154A.246.246,0,0,1,6.032,10l-.889,1.483a1,1,0,0,0,0,1.03L6.032,14a.246.246,0,0,1,.028.191.252.252,0,0,1-.117.154l-.921.531a.253.253,0,0,1-.19.025l-3.571-.962a1,1,0,1,0-.522,1.93l2.868.773a.25.25,0,0,1,.176.306l-.775,2.893a1,1,0,0,0,.707,1.225.974.974,0,0,0,.26.035,1,1,0,0,0,.964-.742l.965-3.6a.251.251,0,0,1,.117-.152l.958-.553a.25.25,0,0,1,.34.088l.824,1.373A1,1,0,0,0,9,18h1.75a.25.25,0,0,1,.25.25v1.232a.249.249,0,0,1-.073.177L8.293,22.293a1,1,0,0,0,1.414,1.414l2.116-2.116a.25.25,0,0,1,.354,0l2.116,2.116a1,1,0,0,0,1.414-1.414l-2.634-2.634A.249.249,0,0,1,13,19.482V18.25a.25.25,0,0,1,.25-.25H15a1,1,0,0,0,.857-.485l.824-1.373a.25.25,0,0,1,.34-.088l.958.553a.251.251,0,0,1,.117.152l.965,3.6a1,1,0,0,0,.964.742.974.974,0,0,0,.26-.035,1,1,0,0,0,.707-1.225l-.775-2.893a.25.25,0,0,1,.176-.306l2.868-.773A1,1,0,0,0,23.966,14.642Zm-7.209-2.771a.254.254,0,0,1,0,.258L16.231,13a.25.25,0,0,1-.339.088l-1.517-.875a.251.251,0,0,1,0-.434l1.517-.875a.25.25,0,0,1,.339.088ZM14.292,8a.249.249,0,0,1,.214.121l.439.73a.253.253,0,0,1,.027.192.248.248,0,0,1-.117.153l-1.48.855A.25.25,0,0,1,13,9.835V8.25A.25.25,0,0,1,13.25,8Zm-4.8.121A.249.249,0,0,1,9.708,8H10.75a.25.25,0,0,1,.25.25V9.835a.25.25,0,0,1-.375.216L9.145,9.2a.248.248,0,0,1-.117-.153.253.253,0,0,1,.027-.192ZM7.243,12.129a.254.254,0,0,1,0-.258L7.769,11a.25.25,0,0,1,.339-.088l1.517.875a.251.251,0,0,1,0,.434l-1.517.875A.25.25,0,0,1,7.769,13ZM9.708,16a.249.249,0,0,1-.214-.121l-.439-.73a.253.253,0,0,1-.027-.192.248.248,0,0,1,.117-.153l1.48-.855a.25.25,0,0,1,.375.216V15.75a.25.25,0,0,1-.25.25Zm4.8-.121a.249.249,0,0,1-.214.121H13.25a.25.25,0,0,1-.25-.25V14.165a.25.25,0,0,1,.375-.216l1.48.855a.248.248,0,0,1,.117.153.253.253,0,0,1-.027.192Z"/></svg>