<svg id="Bold" xmlns="http://www.w3.org/2000/svg" viewBox="0 0 24 24"><title>ice-cream-cone-1</title><path d="M18.625,8.25v-.5a.92.92,0,1,0-1.833,0v.5a.994.994,0,0,1-.629.962l-8.1,2.661a2.64,2.64,0,0,0-1.164.784A1,1,0,0,1,6.14,13H5.875a.5.5,0,0,0-.441.735l5,9.359a1.6,1.6,0,0,0,2.876.019l5.008-9.378A.5.5,0,0,0,17.875,13H12.55a.25.25,0,0,1-.078-.488l4.22-1.385A2.991,2.991,0,0,0,18.625,8.25Z"/><path d="M7.875,10.083a1,1,0,0,1-1-1,2.345,2.345,0,0,1,1.68-2.24l5.574-1.771a.338.338,0,0,0,.246-.322V4.417a1,1,0,0,1,2,0V4.75A2.345,2.345,0,0,1,14.7,6.99L9.121,8.761a.338.338,0,0,0-.246.322A1,1,0,0,1,7.875,10.083Z"/><path d="M12.616,1.071a.5.5,0,0,0,.331-.348A1,1,0,0,1,14.913,1v.185a1.76,1.76,0,0,1-1.349,1.679L10.08,3.986a.3.3,0,0,0-.206.254,1,1,0,0,1-2-.027v-.37A1.76,1.76,0,0,1,9.224,2.164Z"/></svg>