<svg id="Bold" xmlns="http://www.w3.org/2000/svg" viewBox="0 0 24 24"><title>ice-road</title><path d="M23.268,21.914c-.013-.005-1.294-.538-1.294-4.04,0-3.62,1.4-4.567,1.472-4.615a1,1,0,0,0-.92-1.772c-.248.124-2.319,1.289-2.532,5.65a.249.249,0,0,1-.249.237h-.522a.245.245,0,0,1-.245-.245,1.5,1.5,0,0,0-1.087-1.441L15.473,15a.247.247,0,0,1-.163-.147L13.7,10.825a1.493,1.493,0,0,0-1.391-.942H10.783a.252.252,0,0,0-.178.074A6.472,6.472,0,0,1,7.2,11.769a.25.25,0,0,0-.2.245v2.613a.25.25,0,0,1-.25.25H1.5a1.5,1.5,0,0,0-1.5,1.5v4a1.5,1.5,0,0,0,1.212,1.47.251.251,0,0,0,.3-.224,3,3,0,0,1,5.973.021.251.251,0,0,0,.249.231h3.516a.25.25,0,0,0,.248-.231,3,3,0,0,1,5.974-.021.248.248,0,0,0,.3.224,1.5,1.5,0,0,0,1.212-1.47v-.749a.249.249,0,0,1,.249-.25h.608a.248.248,0,0,1,.247.216c.475,3.591,2.4,4.187,2.649,4.249a1.051,1.051,0,0,0,.248.03,1.014,1.014,0,0,0,.989-.75A.973.973,0,0,0,23.268,21.914Z"/><circle cx="4.495" cy="21.869" r="1.998"/><circle cx="14.483" cy="21.869" r="1.998"/><path d="M5.456,2.905a.748.748,0,0,0,1.06,0l1.5-1.5A.75.75,0,1,0,6.956.344l-.793.793a.25.25,0,0,1-.354,0L5.016.344a.75.75,0,1,0-1.06,1.061Z"/><path d="M8.016,10.405a.75.75,0,0,0,0-1.061l-1.5-1.5a.751.751,0,0,0-1.06,0l-1.5,1.5a.75.75,0,0,0,1.06,1.061l.793-.793a.25.25,0,0,1,.354,0l.793.793a.748.748,0,0,0,1.06,0Z"/><path d="M1.338,5.174a.781.781,0,0,0,.195-.026L3.583,4.6a.75.75,0,0,0,.53-.919l-.55-2.048a.75.75,0,1,0-1.449.388L2.4,3.1a.244.244,0,0,1-.025.19.248.248,0,0,1-.151.116L1.144,3.7a.75.75,0,0,0,.194,1.475Z"/><path d="M10.44,5.6h0L8.389,6.15a.751.751,0,0,0-.53.919l.55,2.049a.751.751,0,0,0,.724.556.781.781,0,0,0,.2-.026.75.75,0,0,0,.53-.919L9.567,7.647a.251.251,0,0,1,.177-.307l1.084-.289A.751.751,0,0,0,10.44,5.6Z"/><path d="M4.038,6.5a.754.754,0,0,0-.455-.35L1.534,5.6h0a.751.751,0,0,0-.388,1.45l1.084.289a.25.25,0,0,1,.151.117.243.243,0,0,1,.025.19l-.29,1.082a.75.75,0,0,0,.53.919.779.779,0,0,0,.194.026.752.752,0,0,0,.725-.556l.55-2.049A.749.749,0,0,0,4.038,6.5Z"/><path d="M7.934,4.25a.752.752,0,0,0,.455.349l2.05.549a.773.773,0,0,0,.194.026.75.75,0,0,0,.2-1.475l-1.084-.29A.249.249,0,0,1,9.567,3.1L9.858,2.02a.75.75,0,1,0-1.449-.388L7.859,3.68A.752.752,0,0,0,7.934,4.25Z"/><circle cx="5.986" cy="5.375" r="1.5"/></svg>