<svg id="Bold" xmlns="http://www.w3.org/2000/svg" viewBox="0 0 24 24"><title>ice-clean</title><circle cx="10" cy="18.5" r="3"/><path d="M21.5,19.5a4,4,0,0,1,0-8,1,1,0,0,0,0-2,6.011,6.011,0,0,0-5.879,4.8.25.25,0,0,1-.245.2h-.261a.25.25,0,0,1-.245-.2l-.22-1.092A1.5,1.5,0,0,0,13.18,12a.18.18,0,0,1-.18-.18V9.5A1.5,1.5,0,0,0,11.5,8h-3A1.5,1.5,0,0,0,7,9.5v2.434a.066.066,0,0,1-.128.021L3.948,3.184A1,1,0,0,0,3,2.5H1a1,1,0,0,0,0,2H2.1a.25.25,0,0,1,.237.171l2.651,7.952A.234.234,0,0,1,5,12.7v4.8a1.5,1.5,0,0,0,.6,1.2.249.249,0,0,0,.4-.2,4,4,0,0,1,8,0c0,.079,0,.157-.007.235a.254.254,0,0,0,.068.187.25.25,0,0,0,.182.078H16.5a.249.249,0,0,1,.2.1,6,6,0,0,0,4.8,2.4,1,1,0,0,0,0-2Z"/><path d="M23.8,16.6l-1.2-.9a.25.25,0,0,1,0-.4l1.2-.9a.5.5,0,0,0-.6-.8l-.8.6A.25.25,0,0,1,22,14V13a.5.5,0,0,0-1,0v1a.25.25,0,0,1-.4.2l-.8-.6a.5.5,0,0,0-.6.8l1.2.9a.25.25,0,0,1,0,.4l-1.2.9a.5.5,0,0,0,.6.8l.8-.6a.25.25,0,0,1,.4.2v1a.5.5,0,0,0,1,0V17a.25.25,0,0,1,.4-.2l.8.6a.5.5,0,1,0,.6-.8Z"/></svg>