<svg id="Bold" xmlns="http://www.w3.org/2000/svg" viewBox="0 0 24 24"><title>ice-water</title><path d="M0,18.5a1,1,0,0,0,1,1,4.625,4.625,0,0,0,3.279-1.3.251.251,0,0,1,.329-.014A5.692,5.692,0,0,0,8.167,19.5a5.74,5.74,0,0,0,3.673-1.41.249.249,0,0,1,.32,0,5.74,5.74,0,0,0,3.673,1.41,5.7,5.7,0,0,0,3.56-1.317.249.249,0,0,1,.329.015A4.626,4.626,0,0,0,23,19.5a1,1,0,0,0,0-2,2.772,2.772,0,0,1-2.43-1.428,1,1,0,0,0-.807-.565,1.012,1.012,0,0,0-.9.4A4.183,4.183,0,0,1,15.833,17.5a4.179,4.179,0,0,1-3.022-1.586A1,1,0,0,0,12,15.5a.983.983,0,0,0-.811.407A4.182,4.182,0,0,1,8.167,17.5a4.18,4.18,0,0,1-3.023-1.586,1,1,0,0,0-1.714.158A2.748,2.748,0,0,1,1,17.5,1,1,0,0,0,0,18.5Z"/><path d="M23,22a2.772,2.772,0,0,1-2.43-1.428,1,1,0,0,0-1.71-.163A4.183,4.183,0,0,1,15.833,22a4.179,4.179,0,0,1-3.022-1.586A1,1,0,0,0,12,20H12a1.008,1.008,0,0,0-.8.407A4.182,4.182,0,0,1,8.167,22a4.18,4.18,0,0,1-3.023-1.586,1,1,0,0,0-1.714.158A2.748,2.748,0,0,1,1,22a1,1,0,0,0,0,2,4.625,4.625,0,0,0,3.279-1.3.251.251,0,0,1,.329-.014A5.692,5.692,0,0,0,8.167,24a5.74,5.74,0,0,0,3.673-1.41.248.248,0,0,1,.32,0A5.74,5.74,0,0,0,15.833,24a5.692,5.692,0,0,0,3.559-1.317.251.251,0,0,1,.329.014A4.625,4.625,0,0,0,23,24a1,1,0,0,0,0-2Z"/><path d="M5.711,6.641a.974.974,0,0,0,.26-.035L7.861,6.1a.253.253,0,0,1,.19.025l1.573.908a.251.251,0,0,1,0,.434l-1.573.908a.253.253,0,0,1-.19.025l-1.89-.506a1,1,0,1,0-.518,1.931l1.183.317a.25.25,0,0,1,.177.307L6.5,11.632A1,1,0,0,0,7.2,12.856a.974.974,0,0,0,.26.035,1,1,0,0,0,.965-.742l.506-1.89a.251.251,0,0,1,.117-.152L10.625,9.2A.25.25,0,0,1,11,9.415v1.817a.249.249,0,0,1-.073.177L9.543,12.793a1,1,0,0,0,1.414,1.414l.866-.866a.25.25,0,0,1,.354,0l.866.866a1,1,0,0,0,1.414-1.414l-1.384-1.384A.249.249,0,0,1,13,11.232V9.415a.25.25,0,0,1,.375-.216l1.574.908a.251.251,0,0,1,.117.152l.506,1.89a1,1,0,0,0,.965.742.974.974,0,0,0,.26-.035,1,1,0,0,0,.707-1.224l-.317-1.183a.25.25,0,0,1,.177-.307l1.183-.317a1,1,0,1,0-.518-1.931l-1.89.506a.253.253,0,0,1-.19-.025l-1.573-.908a.251.251,0,0,1,0-.434l1.573-.908a.253.253,0,0,1,.19-.025l1.89.506a.974.974,0,0,0,.26.035,1,1,0,0,0,.258-1.966l-1.183-.317a.25.25,0,0,1-.177-.307L17.5,2.868a1,1,0,0,0-1.932-.517l-.506,1.89a.251.251,0,0,1-.117.152L13.375,5.3A.25.25,0,0,1,13,5.085V3.268a.249.249,0,0,1,.073-.177l1.384-1.384A1,1,0,0,0,13.043.293l-.866.866a.25.25,0,0,1-.354,0L10.957.293A1,1,0,0,0,9.543,1.707l1.384,1.384A.249.249,0,0,1,11,3.268V5.085a.25.25,0,0,1-.375.216L9.051,4.393a.251.251,0,0,1-.117-.152l-.506-1.89A1,1,0,0,0,6.5,2.868l.317,1.183a.25.25,0,0,1-.177.307l-1.183.317a1,1,0,0,0,.258,1.966Z"/></svg>