<svg xmlns="http://www.w3.org/2000/svg" viewBox="0 0 24 24"><title>idea-message</title><path d="M24,6.508a4.832,4.832,0,0,0-4.826-4.826H4.826A4.832,4.832,0,0,0,0,6.508v7.653a4.832,4.832,0,0,0,4.578,4.82.25.25,0,0,1,.237.243l.042,1.654a1.479,1.479,0,0,0,2.488,1.041l3.064-2.865a.254.254,0,0,1,.171-.067h2.857a.247.247,0,0,1,.166.063l3.226,2.876a1.479,1.479,0,0,0,2.462-1.142l-.04-1.552a.248.248,0,0,1,.234-.255A4.833,4.833,0,0,0,24,14.161Zm-2,7.653a2.83,2.83,0,0,1-2.826,2.826h-.956a1,1,0,0,0-1,1.026l.027,1.041a.252.252,0,0,1-.145.233.25.25,0,0,1-.271-.04l-2.251-2.006a.994.994,0,0,0-.665-.254H10.087a1,1,0,0,0-.683.269L7.232,19.287a.249.249,0,0,1-.42-.177l-.03-1.15a1,1,0,0,0-1-.973H4.826A2.83,2.83,0,0,1,2,14.161V6.508A2.83,2.83,0,0,1,4.826,3.682H19.174A2.83,2.83,0,0,1,22,6.508Z"/><path d="M12,4.313A3.873,3.873,0,0,0,8.131,8.182a3.829,3.829,0,0,0,.98,2.525.251.251,0,0,0,.188.085h5.4a.251.251,0,0,0,.188-.085,3.829,3.829,0,0,0,.98-2.525A3.873,3.873,0,0,0,12,4.313Z"/><path d="M9.815,11.792a.249.249,0,0,0-.25.25v.206a1.952,1.952,0,0,0,1.273,1.824.251.251,0,0,1,.162.234v.333a1,1,0,0,0,2,0v-.333a.251.251,0,0,1,.162-.234,1.952,1.952,0,0,0,1.273-1.824v-.206a.249.249,0,0,0-.25-.25Z"/></svg>