<svg xmlns="http://www.w3.org/2000/svg" viewBox="0 0 24 24"><title>idea-settings</title><path d="M24,11.5A1.5,1.5,0,0,0,22.5,10H20.838a.248.248,0,0,1-.241-.188,12.989,12.989,0,0,0-.657-1.989.249.249,0,0,1,.051-.279l1.2-1.2a1.5,1.5,0,0,0,0-2.121L19.777,2.807a1.5,1.5,0,0,0-2.121,0l-1.2,1.2a.25.25,0,0,1-.279.052A12.833,12.833,0,0,0,14.187,3.4.25.25,0,0,1,14,3.161V1.5A1.5,1.5,0,0,0,12.5,0h-1A1.5,1.5,0,0,0,10,1.5V3.161a.25.25,0,0,1-.187.242,12.952,12.952,0,0,0-1.989.656.248.248,0,0,1-.279-.051l-1.2-1.2a1.5,1.5,0,0,0-2.121,0L2.807,4.222a1.5,1.5,0,0,0,0,2.121l1.2,1.2a.249.249,0,0,1,.051.279A13.136,13.136,0,0,0,3.4,9.813.25.25,0,0,1,3.161,10H1.5A1.5,1.5,0,0,0,0,11.5v1A1.5,1.5,0,0,0,1.5,14H3.161a.249.249,0,0,1,.242.187,13.16,13.16,0,0,0,.657,1.988.249.249,0,0,1-.051.279l-1.2,1.2a1.5,1.5,0,0,0,0,2.121l1.415,1.415a1.5,1.5,0,0,0,2.121,0l.934-.934a.25.25,0,0,1,.4.073A2,2,0,0,0,9.5,21.5h.75a.249.249,0,0,1,.25.25v.75a1.5,1.5,0,0,0,3,0v-.75a.249.249,0,0,1,.25-.25h.75a2,2,0,0,0,1.819-1.168.25.25,0,0,1,.4-.073l.933.934a1.5,1.5,0,0,0,2.121,0l1.415-1.415a1.5,1.5,0,0,0,0-2.121l-1.2-1.2a.251.251,0,0,1-.051-.28,12.989,12.989,0,0,0,.657-1.989A.249.249,0,0,1,20.838,14H22.5A1.5,1.5,0,0,0,24,12.5Zm-9.5,5.359V19a.5.5,0,0,1-.5.5H10a.5.5,0,0,1-.5-.5V16.859a.49.49,0,0,0-.307-.461A4.993,4.993,0,0,1,6,11.582,5.808,5.808,0,0,1,12,6a5.808,5.808,0,0,1,6,5.582A4.993,4.993,0,0,1,14.807,16.4.49.49,0,0,0,14.5,16.859Z"/></svg>