<svg xmlns="http://www.w3.org/2000/svg" viewBox="0 0 24 24"><title>information-desk</title><circle cx="7.706" cy="9.595" r="3.368"/><path d="M13.434,17.722a2.868,2.868,0,0,0-2.868-2.868H9.888a.479.479,0,0,0-.416.24L8.113,17.476a.478.478,0,0,1-.83,0l-1.36-2.382a.476.476,0,0,0-.415-.24H4.83a2.868,2.868,0,0,0-2.868,2.867V20.09a.5.5,0,0,0,.5.5H12.934a.5.5,0,0,0,.5-.5Z"/><path d="M19.649,15.541a.75.75,0,0,0-.75.75v.861a.252.252,0,0,1-.17.237,2.883,2.883,0,0,0-1.971,2.726.5.5,0,0,0,.5.5h4.781a.5.5,0,0,0,.5-.5,2.882,2.882,0,0,0-1.97-2.726.251.251,0,0,1-.17-.237v-.861A.75.75,0,0,0,19.649,15.541Z"/><path d="M18.454.494A5.042,5.042,0,1,0,23.5,5.536,5.047,5.047,0,0,0,18.454.494Zm-.329,1.217a.957.957,0,1,1-.956.956A.957.957,0,0,1,18.125,1.711Zm1.7,7.224H17.557a.75.75,0,0,1,0-1.5h.136a.25.25,0,0,0,.25-.25V6.157a.25.25,0,0,0-.25-.25h-.136a.75.75,0,0,1,0-1.5h.757a1.13,1.13,0,0,1,1.129,1.128v1.65a.25.25,0,0,0,.25.25h.135a.75.75,0,0,1,0,1.5Z"/><rect x="0.245" y="21.506" width="23.511" height="2" rx="1" ry="1"/></svg>