<svg id="Bold" xmlns="http://www.w3.org/2000/svg" viewBox="0 0 24 24"><title>insect-earth</title><path d="M22.5,0H8a.5.5,0,0,0-.474.342A11.291,11.291,0,0,0,7,3.5a.5.5,0,0,0,.621.485c1.692-.424,8.032-.071,9.732,3.776.2.46.674.239.9.239,1.792,0,3.25,2.019,3.25,4.5a5.2,5.2,0,0,1-.974,3.192,1.8,1.8,0,0,0-.329,2.02.5.5,0,0,0,.411.259A2,2,0,1,1,18.5,19.958a1.97,1.97,0,0,1,.446-1.24.5.5,0,0,0,.108-.348c-.061-.873-.792-1.218-1.5-1.552C16.417,16.281,15,15.613,15,12.5a5.345,5.345,0,0,1,1.053-3.294.5.5,0,0,0,.032-.57A6.426,6.426,0,0,0,7.776,6.053.5.5,0,0,0,7.5,6.5a8.6,8.6,0,0,0,.565,2.966.5.5,0,0,0,.311.3A6.481,6.481,0,0,1,12.5,16c0,3.584-2.58,6.5-5.75,6.5S1,19.584,1,16A6.534,6.534,0,0,1,4.783,9.9a.49.49,0,0,0,.265-.255A9.127,9.127,0,0,0,6,6,12.344,12.344,0,0,0,4.429.243.5.5,0,0,0,4,0H1.5A1.5,1.5,0,0,0,0,1.5v21A1.5,1.5,0,0,0,1.5,24h21A1.5,1.5,0,0,0,24,22.5V1.5A1.5,1.5,0,0,0,22.5,0Z"/><path d="M17.96,11.49l.251-.753a.749.749,0,1,0-1.422-.474l-.251.753a.749.749,0,1,0,1.422.474Z"/><path d="M20.024,14.023a.749.749,0,0,0,0-1.06l-.494-.493a.75.75,0,1,0-1.06,1.06l.493.493A.75.75,0,0,0,20.024,14.023Z"/><path d="M5.971,12.279,6.643,13.7a.9.9,0,0,0-.092.159.98.98,0,0,0,.025.664.586.586,0,0,0-.26.068c-.01,0-.242.063-.629-.336a.75.75,0,1,0-1.078,1.043,2.392,2.392,0,0,0,1.514.788.743.743,0,0,0,.038.561l-.507-.259c-.058-.029-1.43-.7-2.762,1.145a.75.75,0,1,0,1.216.877c.439-.608.784-.7.863-.686l.292.149a2.934,2.934,0,0,0-.22.491c-.307.916-.131,1.8.393,1.977s1.2-.426,1.5-1.342a3.087,3.087,0,0,0,.12-.525l.254.045c.11.042.318.3.324.96a.75.75,0,0,0,.75.743H8.4a.75.75,0,0,0,.743-.757c-.015-1.693-.955-2.312-1.506-2.41l-.44-.079a.745.745,0,0,0,.341-.394,2.138,2.138,0,0,0,1.1.279,3.868,3.868,0,0,0,1.264-.236A.75.75,0,0,0,9.4,15.2c-.771.268-1.131.13-1.186.069a.732.732,0,0,0-.212-.25.983.983,0,0,0,.442-.532.893.893,0,0,0,.022-.178l1.484-.659a.75.75,0,0,0-.609-1.371l-1.414.628-.6-1.272a.75.75,0,1,0-1.355.642Z"/><circle cx="20.75" cy="19.708" r="0.75"/></svg>