<svg id="Bold" xmlns="http://www.w3.org/2000/svg" viewBox="0 0 24 24"><title>insect-4</title><path d="M22.56.045c-4.9.754-9.417,3.873-10.308,11.173l-.5,0C10.869,3.914,6.325.8,1.44.045a1.25,1.25,0,0,0-.38,2.47,9.113,9.113,0,0,1,8,7.661.25.25,0,0,0,.148.181c1.7.711,2.472,2.948,1.743,5.248a4.491,4.491,0,0,1-3.495,3.343.5.5,0,0,0-.448.5l0,1.107c.006.034.62,3.418,4.993,3.418s4.987-3.384,5-3.5V19.446a.5.5,0,0,0-.448-.5,4.485,4.485,0,0,1-3.5-3.343c-.729-2.3.039-4.537,1.743-5.248a.25.25,0,0,0,.148-.18,9.113,9.113,0,0,1,8-7.662,1.25,1.25,0,1,0-.38-2.47Z"/><path d="M15.9,11.624c-1.4,0-1.953,1.835-1.416,3.528.313.988,1.421,2.7,2.813,2.255,1.053-.334,1.5-1.885,1-3.464A2.968,2.968,0,0,0,15.9,11.624Z"/><path d="M9.518,15.152c.551-1.74-.063-3.528-1.416-3.528a2.968,2.968,0,0,0-2.4,2.319c-.5,1.579-.053,3.13,1,3.464C8.085,17.844,9.194,16.173,9.518,15.152Z"/></svg>