<svg id="Bold" xmlns="http://www.w3.org/2000/svg" viewBox="0 0 24 24"><title>insect-2</title><path d="M11.25,17.381a1.276,1.276,0,0,1-.267-.272L8.777,14.02a.254.254,0,0,0-.157-.1,4.482,4.482,0,0,1-3.165-2.312.251.251,0,0,0-.391-.07,1.238,1.238,0,0,1-.71.349,1.619,1.619,0,0,1-1.147-.594,1,1,0,0,0-1.414,1.414,3.236,3.236,0,0,0,3.707.917v1.511c-.277.159-.564.711-1.146.752a1.616,1.616,0,0,1-1.147-.594,1,1,0,0,0-1.414,1.414,3.306,3.306,0,0,0,3.707.917v1.51c-.276.159-.564.712-1.146.753a1.6,1.6,0,0,1-1.147-.594,1,1,0,0,0-1.414,1.414,3.226,3.226,0,0,0,4.181.653A5.426,5.426,0,0,0,10.8,24h.45Z"/><path d="M22.207,16.707a1,1,0,0,0-1.414-1.414,1.54,1.54,0,0,1-1.137.6c-.587-.034-.868-.588-1.156-.754v-1.51c0,.091.7.22.778.233a3.464,3.464,0,0,0,2.929-1.15,1,1,0,0,0-1.414-1.414,1.606,1.606,0,0,1-1.137.6,1.23,1.23,0,0,1-.718-.348.246.246,0,0,0-.212-.061.252.252,0,0,0-.178.131,4.48,4.48,0,0,1-3.168,2.31.248.248,0,0,0-.157.1l-2.2,3.087a1.263,1.263,0,0,1-.268.273V24h.45a5.423,5.423,0,0,0,4.826-2.64c-.041.075,2.064,1.464,4.181-.653a1,1,0,0,0-1.414-1.414,1.554,1.554,0,0,1-1.137.6c-.586-.034-.867-.587-1.156-.753V17.624A3.235,3.235,0,0,0,22.207,16.707Z"/><path d="M7.25,7.3A1.575,1.575,0,0,0,6.5,8.622v1.13a2.886,2.886,0,0,0,3,2.75h5a2.886,2.886,0,0,0,3-2.75V8.622a1.575,1.575,0,0,0-.752-1.329V2.5A2.43,2.43,0,0,0,14.25,0a1,1,0,0,0,0,2,.442.442,0,0,1,.5.5V5a.5.5,0,0,1-.5.5H9.75a.5.5,0,0,1-.5-.5V2.5c0-.168,0-.481.5-.5a1,1,0,0,0,0-2,2.43,2.43,0,0,0-2.5,2.5Z"/></svg>