<svg id="Bold" xmlns="http://www.w3.org/2000/svg" viewBox="0 0 24 24"><title>insect-cricket-body</title><path d="M23.981,13.638a.5.5,0,0,0-.053-.4.5.5,0,0,0-.326-.23l-2.4-.5-.705-5.638A1,1,0,0,0,19.5,6c-.316,0-1.551.16-4.125,2.219a8.309,8.309,0,0,0-2.3,2.613s-2.793-.588-3.962-.838a.5.5,0,0,0-.6.4,19.877,19.877,0,0,0-.294,3.339,6.412,6.412,0,0,0-1.951,1.027A4.01,4.01,0,0,0,5.113,16.5l-.086.258A1.079,1.079,0,0,1,4,17.5a1,1,0,1,0,0,2A3.077,3.077,0,0,0,6.924,17.4l.086-.258a2,2,0,0,1,1.155-1.225l1.191-.476c.219.139.457.274.713.4l-.439.9A1.209,1.209,0,0,1,8.5,17.5a1,1,0,0,0,0,2,3.168,3.168,0,0,0,2.954-1.952l.471-.961c-.009.019,2.676.636,2.917.673a20.2,20.2,0,0,0,2.846.242.5.5,0,0,0,.5-.558l-.556-4.817a.5.5,0,0,0-.4-.433l-2.091-.432a8.017,8.017,0,0,1,1.478-1.481,14.514,14.514,0,0,1,2.039-1.405L19.932,18.5H19.5a.75.75,0,1,0,0,1.5h3a.75.75,0,0,0,0-1.5h-.555l-.249-2A5.69,5.69,0,0,0,23.981,13.638Z"/><path d="M7.068,9.958a.5.5,0,0,0-.363-.574A9.577,9.577,0,0,1,2.658,7.575,1.632,1.632,0,0,1,2,6.5a1.314,1.314,0,0,1,.229-.815A1,1,0,0,0,.793,4.293,3.179,3.179,0,0,0,0,6.5C0,7.788.928,9.007,2.6,9.965a3.272,3.272,0,0,0,1.051,2.889,3.508,3.508,0,0,0,2.578.974.5.5,0,0,0,.5-.489A21.905,21.905,0,0,1,7.068,9.958Z"/></svg>