<svg id="Bold" xmlns="http://www.w3.org/2000/svg" viewBox="0 0 24 24"><title>insurance-cheap</title><path d="M24,3.516a.5.5,0,0,0-.5-.5h-2a.5.5,0,0,1-.5-.5v-2a.5.5,0,0,0-.5-.5h-3a.5.5,0,0,0-.5.5v2a.5.5,0,0,1-.5.5h-2a.5.5,0,0,0-.5.5v3a.5.5,0,0,0,.5.5h2a.5.5,0,0,1,.5.5v2a.5.5,0,0,0,.5.5h3a.5.5,0,0,0,.5-.5v-2a.5.5,0,0,1,.5-.5h2a.5.5,0,0,0,.5-.5Z"/><path d="M23.782,14.174a1,1,0,0,0-1.282-.6l-21.684,8A1,1,0,1,0,1.5,23.455l8.675-3.212a.25.25,0,0,1,.28.392L8.409,23.17a.5.5,0,0,0,.389.814h6.4a.5.5,0,0,0,.389-.814l-2.835-3.513a.251.251,0,0,1,.109-.392l10.319-3.81A1,1,0,0,0,23.782,14.174Z"/><path d="M6.5,18.016a6.5,6.5,0,1,0-6.5-6.5A6.508,6.508,0,0,0,6.5,18.016Zm-.95-10.2a.249.249,0,0,0,.2-.245V7.266a.75.75,0,0,1,1.5,0v.25a.25.25,0,0,0,.25.25H8a.75.75,0,0,1,0,1.5H5.967a.591.591,0,0,0-.221,1.14l2.065.826a2.085,2.085,0,0,1-.361,3.981.249.249,0,0,0-.2.245v.308a.75.75,0,0,1-1.5,0v-.25a.25.25,0,0,0-.25-.25H5a.75.75,0,1,1,0-1.5H7.033a.592.592,0,0,0,.221-1.141L5.189,11.8A2.085,2.085,0,0,1,5.55,7.818Z"/></svg>