<svg xmlns="http://www.w3.org/2000/svg" viewBox="0 0 24 24"><title>invitation</title><path d="M20.25,4a.75.75,0,0,0-.75-.75h-6a.75.75,0,0,0,0,1.5h6A.749.749,0,0,0,20.25,4Z"/><path d="M19.5,6.25h-3a.75.75,0,0,0,0,1.5h3a.75.75,0,0,0,0-1.5Z"/><path d="M7.75,3A3.25,3.25,0,1,0,11,6.25,3.254,3.254,0,0,0,7.75,3Zm0,5A1.75,1.75,0,1,1,9.5,6.25,1.752,1.752,0,0,1,7.75,8Z"/><path d="M13.25,24h6.5a.25.25,0,0,0,.25-.25V19.523a.228.228,0,0,1,0-.045l.782-4.3A.219.219,0,0,1,21,15a2.02,2.02,0,0,0,2-2V2a2,2,0,0,0-2-2H3A2,2,0,0,0,1,2V13a2,2,0,0,0,2,2H6.793a.249.249,0,0,1,.25.258C7.022,15.993,7,16.89,7,17.5c0,1.118,1.368,1.317,2,1a4.142,4.142,0,0,0,1.546-1.827.248.248,0,0,0,.017-.048l.359-1.436A.25.25,0,0,1,11.165,15h.515a.252.252,0,0,1,.243.311L11.5,17a5.731,5.731,0,0,0,0,3,9.045,9.045,0,0,0,1.431,1.929A.249.249,0,0,1,13,22.1V23.75A.25.25,0,0,0,13.25,24ZM12,10.542V12.75a.249.249,0,0,1-.25.25H3.5a.5.5,0,0,1-.5-.5V2.5A.5.5,0,0,1,3.5,2h17a.5.5,0,0,1,.5.5v10a.5.5,0,0,1-.5.5H16.25a.249.249,0,0,1-.25-.25V10.542C16,10.042,16,8,14,8S12,10.042,12,10.542Z"/></svg>