<svg xmlns="http://www.w3.org/2000/svg" viewBox="0 0 24 24"><title>job-search</title><path d="M23.645,22.292l-4.1-4.1a.25.25,0,0,1-.019-.332q.313-.391.592-.814a1,1,0,0,0-1.67-1.1,8.991,8.991,0,0,1-15.025,0,1,1,0,0,0-1.67,1.1A10.992,10.992,0,0,0,17.8,19.593a.251.251,0,0,1,.333.019l4.095,4.1a1,1,0,0,0,1.415-1.415Z"/><path d="M13.8,6.775H12.366a.875.875,0,0,0-.875.875v5.715a.875.875,0,0,0,.875.875H13.8A2.3,2.3,0,0,0,15.7,10.648a.252.252,0,0,1,0-.281,2.284,2.284,0,0,0,.4-1.288A2.307,2.307,0,0,0,13.8,6.775Zm-.554,2a.25.25,0,0,1,.25-.25h.3a.554.554,0,1,1,0,1.107h-.3a.25.25,0,0,1-.25-.25ZM13.8,12.49h-.3a.25.25,0,0,1-.25-.25v-.608a.25.25,0,0,1,.25-.25h.3a.554.554,0,0,1,0,1.108Z"/><path d="M5.776,9.079v2.857a2.3,2.3,0,1,0,4.608,0V9.079a2.3,2.3,0,0,0-4.608,0Zm2.858,0v2.857a.554.554,0,1,1-1.108,0V9.079a.554.554,0,1,1,1.108,0Z"/><path d="M4.67,11.936V7.65a.875.875,0,0,0-1.75,0v4.286a.554.554,0,1,1-1.108,0,.875.875,0,1,0-1.75,0,2.3,2.3,0,1,0,4.608,0Z"/><path d="M17.2,9.079a2.306,2.306,0,0,0,2.3,2.3.554.554,0,0,1,0,1.108H18.08a.875.875,0,0,0,0,1.75h1.429a2.3,2.3,0,0,0,0-4.608.554.554,0,1,1,0-1.107h1.429a.875.875,0,0,0,0-1.75H19.509A2.307,2.307,0,0,0,17.2,9.079Z"/><path d="M2.438,5.654a1,1,0,0,0,1.4-.175,8.977,8.977,0,0,1,14.193,0,1,1,0,1,0,1.578-1.228,10.976,10.976,0,0,0-17.349,0A1,1,0,0,0,2.438,5.654Z"/></svg>