<svg xmlns="http://www.w3.org/2000/svg" viewBox="0 0 24 24"><title>job-choose-candidate</title><path d="M13.5,13.374a1.5,1.5,0,1,1,3,0v4.25a.25.25,0,0,0,.25.25H19.5a4,4,0,0,1,4,4v1.251a.25.25,0,0,1-.25.25H11.607a.253.253,0,0,1-.186-.082L9.185,20.828a1.5,1.5,0,0,1,2.309-1.915L13.058,20.7a.25.25,0,0,0,.438-.164Z"/><circle cx="15.419" cy="2.846" r="2.222"/><path d="M11.678,9.957a.251.251,0,0,1-.183-.079.248.248,0,0,1-.067-.187,4,4,0,0,1,7.982,0,.248.248,0,0,1-.067.188.25.25,0,0,1-.182.079Z"/><circle cx="4.496" cy="8.346" r="2.222"/><path d="M.754,15.457a.25.25,0,0,1-.182-.079.248.248,0,0,1-.067-.187,4,4,0,0,1,7.982,0,.25.25,0,0,1-.249.267Z"/></svg>