<svg xmlns="http://www.w3.org/2000/svg" viewBox="0 0 24 24"><title>job-seach-profile</title><path d="M8.2,21.881l0,0a3,3,0,0,1,.391-4.224,3,3,0,0,1,3.533-.221.249.249,0,0,0,.384-.211V12a3,3,0,0,1,.923-2.163.25.25,0,0,0,.077-.18V4.5A1.5,1.5,0,0,0,12,3H1.5A1.5,1.5,0,0,0,0,4.5V21a1.5,1.5,0,0,0,1.5,1.5H8.182a.251.251,0,0,0,.228-.146.254.254,0,0,0-.038-.268ZM8.742,8.54A2.122,2.122,0,1,1,6.62,6.417,2.122,2.122,0,0,1,8.742,8.54ZM3.57,14.134a.25.25,0,0,1-.237-.329,3.465,3.465,0,0,1,6.575,0,.251.251,0,0,1-.035.225.247.247,0,0,1-.2.1Z"/><path d="M16.192,9.079a.25.25,0,0,0,.308-.243V2a2,2,0,0,0-2-2H3A1,1,0,0,0,3,2H14a.5.5,0,0,1,.5.5V8.836a.25.25,0,0,0,.308.243,3,3,0,0,1,1.384,0Z"/><path d="M24,22a4,4,0,0,0-4-4H17.25a.25.25,0,0,1-.25-.25V12a1.5,1.5,0,1,0-3,0v9.135a.25.25,0,0,1-.442.16L11.654,19a1.5,1.5,0,0,0-2.309,1.915l0,0,2.577,2.991a.252.252,0,0,0,.19.087H23.75a.25.25,0,0,0,.25-.25Z"/></svg>