<svg id="Bold" xmlns="http://www.w3.org/2000/svg" viewBox="0 0 24 24"><title>kitchen-window</title><path d="M23.055,3.167a.5.5,0,0,0,.416-.223l.445-.667A.5.5,0,0,0,24,2V1a1,1,0,0,0-1-1H1A1,1,0,0,0,0,1V2a.5.5,0,0,0,.084.277l.445.667a.5.5,0,0,0,.416.223Z"/><path d="M1.5,4.167a.5.5,0,0,0-.5.5V23a1,1,0,0,0,1,1h.5a.513.513,0,0,0,.444-.27A1.7,1.7,0,0,1,4.5,23a1.7,1.7,0,0,1,1.553.724A.5.5,0,0,0,6.5,24h1a.513.513,0,0,0,.444-.27A1.7,1.7,0,0,1,9.5,23a1.7,1.7,0,0,1,1.553.724A.5.5,0,0,0,11.5,24h1a.513.513,0,0,0,.444-.27A1.7,1.7,0,0,1,14.5,23a1.7,1.7,0,0,1,1.553.724A.5.5,0,0,0,16.5,24h1a.513.513,0,0,0,.444-.27A1.7,1.7,0,0,1,19.5,23a1.7,1.7,0,0,1,1.553.724A.5.5,0,0,0,21.5,24H22a1,1,0,0,0,1-1V4.667a.5.5,0,0,0-.5-.5ZM19.09,18.5a.25.25,0,0,1-.25.25h-.9a.249.249,0,0,1-.25-.25V15.987a.249.249,0,0,1,.25-.25h.9a.25.25,0,0,1,.25.25Zm-2.9,0a.25.25,0,0,1-.25.25h-.9a.25.25,0,0,1-.25-.25V15.987a.25.25,0,0,1,.25-.25h.9a.25.25,0,0,1,.25.25Zm3.652-4.263h-5.8a.75.75,0,0,0-.75.75V18.75a.25.25,0,0,1-.25.25H2.25A.25.25,0,0,1,2,18.75V13.5a.25.25,0,0,1,.25-.25h19.5a.25.25,0,0,1,.25.25v5.25a.25.25,0,0,1-.25.25h-.91a.25.25,0,0,1-.25-.25V14.987A.75.75,0,0,0,19.84,14.237ZM6.947,9.564l.307.923A.75.75,0,0,0,7.966,11a.782.782,0,0,0,.237-.038.751.751,0,0,0,.474-.949L8.433,9.28c.186-.014.371-.03.567-.03.126,0,.243.013.365.019l.394,1.181a.749.749,0,0,0,.711.513.789.789,0,0,0,.238-.038.751.751,0,0,0,.474-.949l-.139-.414c1.041.34,1.707.908,1.707,1.438v.5a.25.25,0,0,1-.25.25h-7a.25.25,0,0,1-.25-.25V11C5.25,10.471,5.911,9.906,6.947,9.564ZM2.5,7a.513.513,0,0,0,.444-.27A1.7,1.7,0,0,1,4.5,6a1.7,1.7,0,0,1,1.553.724A.5.5,0,0,0,6.5,7h1a.513.513,0,0,0,.444-.27A1.7,1.7,0,0,1,9.5,6a1.7,1.7,0,0,1,1.553.724A.5.5,0,0,0,11.5,7h1a.513.513,0,0,0,.444-.27A1.7,1.7,0,0,1,14.5,6a1.7,1.7,0,0,1,1.553.724A.5.5,0,0,0,16.5,7h1a.513.513,0,0,0,.444-.27A1.7,1.7,0,0,1,19.5,6a1.7,1.7,0,0,1,1.553.724A.5.5,0,0,0,21.5,7h.25a.25.25,0,0,1,.25.25V11.5a.25.25,0,0,1-.25.25H14.5a.25.25,0,0,1-.25-.25V11c0-1.822-2.306-3.25-5.25-3.25S3.75,9.178,3.75,11v.5a.25.25,0,0,1-.25.25H2.25A.25.25,0,0,1,2,11.5V7.25A.25.25,0,0,1,2.25,7Z"/></svg>