<svg id="Bold" xmlns="http://www.w3.org/2000/svg" viewBox="0 0 24 24"><title>kitchen-counter</title><path d="M13.5,9A1.5,1.5,0,0,0,12,7.5H10.541a.5.5,0,0,1-.5-.5V6.145a.5.5,0,0,1,.25-.433,1.892,1.892,0,0,0,.753-.791,1.944,1.944,0,0,0,.186-1.15L10.784.644A.751.751,0,0,0,10.041,0h-2A.751.751,0,0,0,7.3.644L6.852,3.771a1.934,1.934,0,0,0,.187,1.15,1.89,1.89,0,0,0,.752.791.5.5,0,0,1,.25.433V7a.5.5,0,0,1-.5.5H.5A.5.5,0,0,0,0,8v2.5a.5.5,0,0,0,.5.5h3a.5.5,0,0,1,.5.5V23a1,1,0,0,0,1,1H6a1,1,0,0,0,1-1V11.5a.5.5,0,0,1,.5-.5H12a1.5,1.5,0,0,0,1.5-1.5Z"/><path d="M22.666,14.915a.5.5,0,0,1,.275-.532A.98.98,0,0,0,23.5,13.5V12A1.5,1.5,0,0,0,22,10.5H16A1.5,1.5,0,0,0,14.5,12v1.5a.98.98,0,0,0,.559.883.5.5,0,0,1,.275.532l-1.32,7.921a1,1,0,0,0,.821,1.15A1.053,1.053,0,0,0,15,24a1,1,0,0,0,.985-.836l.625-3.746A.5.5,0,0,1,17.1,19H20.9a.5.5,0,0,1,.493.418l.625,3.746A1,1,0,0,0,23,24a1.053,1.053,0,0,0,.166-.014,1,1,0,0,0,.821-1.15ZM17.6,17a.5.5,0,0,1-.493-.582l.25-1.5a.5.5,0,0,1,.493-.418h2.292a.5.5,0,0,1,.493.418l.25,1.5A.5.5,0,0,1,20.4,17Z"/></svg>