<svg id="Bold" xmlns="http://www.w3.org/2000/svg" viewBox="0 0 24 24"><title>kitchenware-spatula-1</title><path d="M3.622,18.684a.5.5,0,0,0-.707,0L.5,21.1a1.7,1.7,0,1,0,2.4,2.4l2.418-2.418a.5.5,0,0,0,0-.707Z"/><path d="M11.128,14.567,9.434,12.873a.5.5,0,0,0-.707,0L4.682,16.917a.5.5,0,0,0,0,.707l1.694,1.694a.5.5,0,0,0,.708,0l4.044-4.044a.5.5,0,0,0,0-.707Z"/><path d="M23.414,8.717a2,2,0,0,0,0-2.828l-5.3-5.3a2,2,0,0,0-2.828,0L10.67,5.2A2,2,0,0,0,10.1,6.855l.53,4.347A2.48,2.48,0,0,0,12.8,13.371l4.347.53A2,2,0,0,0,18.8,13.33ZM12.758,7.4a.75.75,0,0,1-.53-1.28l2.827-2.829a.75.75,0,0,1,1.061,1.061L13.288,7.177A.744.744,0,0,1,12.758,7.4Zm1.287,3.308a.75.75,0,0,1-.53-1.28l4.949-4.951a.75.75,0,1,1,1.06,1.06l-4.949,4.951A.744.744,0,0,1,14.045,10.705Zm6.667-1.76-2.829,2.827a.75.75,0,0,1-1.06-1.06l2.828-2.828a.75.75,0,0,1,1.061,1.061Z"/></svg>