<svg id="Bold" xmlns="http://www.w3.org/2000/svg" viewBox="0 0 24 24"><title>kitchenware-scooper</title><path d="M22.664,1.336A4.563,4.563,0,0,0,15.4,6.688a.5.5,0,0,1-.089.587L14.1,8.489a.5.5,0,0,1-.509.122,2.826,2.826,0,0,0-1.849.032L.982,12.607a1.5,1.5,0,0,0,1.037,2.815L6.6,13.735a.5.5,0,0,1,.626.258,5.55,5.55,0,0,0,1.155,1.629,5.794,5.794,0,0,0,1.632,1.157.5.5,0,0,1,.255.624L8.578,21.981a1.5,1.5,0,0,0,2.815,1.037L15.357,12.26a2.823,2.823,0,0,0,.032-1.848.5.5,0,0,1,.122-.509l1.214-1.214a.5.5,0,0,1,.587-.089,4.563,4.563,0,0,0,5.352-7.264Zm-11.455,13.5a.25.25,0,0,1-.344.139,4.037,4.037,0,0,1-1.843-1.843.25.25,0,0,1,.139-.344L11.314,12a.535.535,0,0,1,.687.685ZM19.437,2.781a1.783,1.783,0,0,0-1.781,1.781.5.5,0,1,1-1,0,2.785,2.785,0,0,1,2.781-2.781.5.5,0,0,1,0,1Z"/></svg>