<svg id="Bold" xmlns="http://www.w3.org/2000/svg" viewBox="0 0 24 24"><title>kitchenware-hammer-meat</title><path d="M12.988,12.427a.5.5,0,0,1,0,.707L2.56,23.56A1.5,1.5,0,0,1,.439,21.44L10.865,11.013a.5.5,0,0,1,.707,0Z"/><path d="M22.614,8.954a1.093,1.093,0,0,0-.587-.8C18.1,6.188,17.812,5.9,15.845,1.974A1.088,1.088,0,0,0,14.1,1.692L9.32,6.476A1.09,1.09,0,0,0,9.6,8.22c3.924,1.961,4.213,2.249,6.18,6.18a1.089,1.089,0,0,0,.8.588,1.017,1.017,0,0,0,.173.014,1.094,1.094,0,0,0,.772-.319L22.309,9.9A1.092,1.092,0,0,0,22.614,8.954ZM21.8,8.6ZM14.455,2.045Zm2.72,12.284Z"/><path d="M8.25,5a.75.75,0,0,1-.75-.75V2.75A.75.75,0,0,1,8.25,2H9a.5.5,0,0,0,.5-.5V.75A.75.75,0,0,1,10.25,0h1.5a.75.75,0,0,1,0,1.5H11.5A.5.5,0,0,0,11,2v.75a.75.75,0,0,1-.75.75H9.5A.5.5,0,0,0,9,4v.25A.75.75,0,0,1,8.25,5Z"/><path d="M21.25,16h-1.5a.75.75,0,0,1,0-1.5H20a.5.5,0,0,0,.5-.5v-.75a.75.75,0,0,1,.75-.75H22a.5.5,0,0,0,.5-.5v-.25a.75.75,0,0,1,1.5,0v1.5a.75.75,0,0,1-.75.75H22.5a.5.5,0,0,0-.5.5v.75A.75.75,0,0,1,21.25,16Z"/></svg>