<svg id="Bold" xmlns="http://www.w3.org/2000/svg" viewBox="0 0 24 24"><title>kitchen-knife-set</title><path d="M17.386,15.775a11.385,11.385,0,0,1-2.329,2.362.25.25,0,0,1-.375-.307l.481-1.033a1,1,0,0,0-1.812-.845L12.1,18.633a1.7,1.7,0,0,0,.823,2.26,1.653,1.653,0,0,0,1.4,0,12.312,12.312,0,0,0,4.66-3.916,1,1,0,1,0-1.6-1.2Z"/><path d="M8.059,15.775A11.355,11.355,0,0,1,5.73,18.136a.25.25,0,0,1-.376-.306L5.836,16.8a1,1,0,0,0-1.813-.845L2.774,18.633a1.7,1.7,0,0,0,.824,2.26,1.651,1.651,0,0,0,1.4,0,12.3,12.3,0,0,0,4.66-3.916,1,1,0,1,0-1.6-1.2Z"/><path d="M15.085,12.4a.249.249,0,0,1-.226.144H12.7a.25.25,0,0,1-.226-.356l.51-1.093a2,2,0,0,0-.968-2.658l-.668-.312a.25.25,0,0,1-.121-.332l1.327-2.849a1.248,1.248,0,0,0-.6-1.659l-.446-.21a1.252,1.252,0,0,0-1.661.605L5.757,12.4a.249.249,0,0,1-.226.144H1a1,1,0,0,0,0,2H23a1,1,0,0,0,0-2h-.971a.251.251,0,0,1-.227-.356l.511-1.094a2,2,0,0,0-.969-2.657l-.668-.312a.25.25,0,0,1-.121-.332l1.328-2.849a1.249,1.249,0,0,0-.6-1.659l-.446-.21a1.249,1.249,0,0,0-1.661.605Zm4.406,0a.249.249,0,0,1-.226.144H17.616a.25.25,0,0,1-.226-.356l1.085-2.33a.5.5,0,0,1,.665-.242l.906.422a.5.5,0,0,1,.243.665ZM9.148,9.853a.5.5,0,0,1,.664-.242l.907.422a.5.5,0,0,1,.242.665l-.415.889c-.042.093-.215.457-.382.809a.25.25,0,0,1-.226.143H8.289a.251.251,0,0,1-.227-.356Z"/></svg>