<svg id="Bold" xmlns="http://www.w3.org/2000/svg" viewBox="0 0 24 24"><title>kitchenware-ladle</title><path d="M24,1.5A1.5,1.5,0,0,0,22.5,0c-7.333,0-9.926,7.441-10.414,12.547a.5.5,0,0,1-.5.453H4.5A1.5,1.5,0,0,0,3,14.5V18a6,6,0,0,0,12,0V14.022C15.011,13.7,15.438,3,22.5,3A1.5,1.5,0,0,0,24,1.5Z"/><path d="M5.528,9.379a.252.252,0,0,1,.206.042A2.96,2.96,0,0,0,7.5,10,3,3,0,0,0,9.058,4.443a.246.246,0,0,1-.117-.173A4.5,4.5,0,1,0,4.5,9.5,4.432,4.432,0,0,0,5.528,9.379ZM2,5a2.5,2.5,0,0,1,5-.044c0,.026,0,.053-.006.07a1,1,0,0,0,.751,1.012A1,1,0,1,1,6.707,7.6a1,1,0,0,0-1.2-.312,2.46,2.46,0,0,1-1,.215A2.5,2.5,0,0,1,2,5Z"/></svg>