<svg id="Bold" xmlns="http://www.w3.org/2000/svg" viewBox="0 0 24 24"><title>kitchen-shelf</title><path d="M15.581,19.41a.219.219,0,0,1-.081-.17V16.75a1,1,0,0,0-2,0v2.49a.219.219,0,0,1-.081.17A2.68,2.68,0,0,0,12.5,21.5a2.3,2.3,0,0,0,2,2.5,2.3,2.3,0,0,0,2-2.5A2.68,2.68,0,0,0,15.581,19.41Z"/><path d="M0,4.5a1,1,0,0,0,1,1H23a1,1,0,0,0,0-2H11.029a.25.25,0,0,1-.168-.435A3.464,3.464,0,0,0,12,.5a.5.5,0,0,0-.5-.5h-7A.5.5,0,0,0,4,.5,3.464,3.464,0,0,0,5.139,3.065a.25.25,0,0,1-.168.435H1A1,1,0,0,0,0,4.5Z"/><path d="M24,13.5a1,1,0,0,0-1-1H20.714a.25.25,0,0,1-.086-.485l.2-.075a1.873,1.873,0,0,0-.455-3.69h-.989a.249.249,0,0,1-.235-.167A1.225,1.225,0,0,0,18,7.25H14A1.252,1.252,0,0,0,12.75,8.5v3.75a.25.25,0,0,1-.25.25H9.029a.25.25,0,0,1-.168-.435A3.464,3.464,0,0,0,10,9.5.5.5,0,0,0,9.5,9h-7a.5.5,0,0,0-.5.5,3.464,3.464,0,0,0,1.139,2.565.25.25,0,0,1-.168.435H1a1,1,0,0,0,0,2H23A1,1,0,0,0,24,13.5Zm-3.25-3.377c0,.172-.116.32-.358.386l-.806.295a.25.25,0,0,1-.336-.235V10a.25.25,0,0,1,.25-.25h.877A.373.373,0,0,1,20.75,10.123Z"/><path d="M21.581,19.41a.219.219,0,0,1-.081-.17V16.75a1,1,0,0,0-2,0v2.49a.219.219,0,0,1-.081.17A2.68,2.68,0,0,0,18.5,21.5a2.3,2.3,0,0,0,2,2.5,2.3,2.3,0,0,0,2-2.5A2.68,2.68,0,0,0,21.581,19.41Z"/><path d="M10,16.75a1,1,0,0,0-2,0v3a.25.25,0,0,1-.25.25h-2A1.252,1.252,0,0,0,4.5,21.25a2.748,2.748,0,1,0,5.5,0h0Z"/></svg>