<svg id="Bold" xmlns="http://www.w3.org/2000/svg" viewBox="0 0 24 24"><title>kitchenware-spoon-set</title><path d="M17.25,22.5V14.117a2.481,2.481,0,0,0-.23-1.042,1.5,1.5,0,0,0-.58-.648l-.249-.152A.505.505,0,0,1,16,12.061L13.8,7.392a.249.249,0,0,1,.047-.279,3.251,3.251,0,1,0-2.1.987.251.251,0,0,1,.244.143L14.181,12.9a.5.5,0,0,1,.041.289l-.045.294a1.49,1.49,0,0,0,.123.861l.909,1.955a.25.25,0,0,1-.387.3l-1.765-1.486a1.5,1.5,0,0,0-.8-.343l-.293-.033a.5.5,0,0,1-.267-.115L8.129,11.61a.254.254,0,0,1-.08-.258,2.748,2.748,0,1,0-1.475,1.754.251.251,0,0,1,.268.035l3.568,3.005a.491.491,0,0,1,.158.242l.083.284a1.493,1.493,0,0,0,.474.729l1.711,1.441a.25.25,0,0,1-.227.432l-2.795-.757a1.505,1.505,0,0,0-.869.026l-.268.09a.5.5,0,0,1-.283.01l-3.8-.968a.25.25,0,0,1-.178-.175,2.25,2.25,0,1,0-.556,2.181.25.25,0,0,1,.241-.068l3.737.953a.5.5,0,0,1,.253.155l.2.232a1.5,1.5,0,0,0,.737.46l8.016,2.171a.251.251,0,0,0,.307-.306A2.986,2.986,0,0,1,17.25,22.5Z"/><path d="M24,3.75a3.75,3.75,0,1,0-4.75,3.614v4.083a.5.5,0,0,1-.084.278L19,11.971a1.493,1.493,0,0,0-.252.832v9.7a1.5,1.5,0,0,0,3,0V12.8a1.493,1.493,0,0,0-.252-.832l-.164-.246a.5.5,0,0,1-.084-.278V7.364A3.755,3.755,0,0,0,24,3.75Z"/></svg>