<svg id="Bold" xmlns="http://www.w3.org/2000/svg" viewBox="0 0 24 24"><title>kitchenware-honey</title><path d="M8.686,13.9a.5.5,0,0,0-.707,0l-7.54,7.54A1.5,1.5,0,0,0,2.56,23.56L10.1,16.021a.5.5,0,0,0,0-.707Z"/><path d="M7.639,10.022A1,1,0,0,0,8.3,11.727a1,1,0,0,1,.492.158,11.719,11.719,0,0,1,1.807,1.521,11.671,11.671,0,0,1,1.521,1.807.991.991,0,0,1,.158.492,1,1,0,0,0,1.706.657c1.086-1.086-.719-3.119-1.971-4.37C8.839,8.823,7.967,9.694,7.639,10.022Z"/><path d="M21.125,2.875C17.236-1.014,16.171.05,15.822.4a1,1,0,0,0,.8,1.7,1,1,0,0,1,.6.131,13.244,13.244,0,0,1,2.484,2.055,13.23,13.23,0,0,1,2.055,2.485.993.993,0,0,1,.131.6,1,1,0,0,0,1.7.8C23.95,7.829,25.014,6.764,21.125,2.875Z"/><path d="M8.407,5.694a1,1,0,0,0,.838,1.7,1,1,0,0,1,.6.108,17.543,17.543,0,0,1,3.691,2.966A17.619,17.619,0,0,1,16.5,14.158a1,1,0,0,1,.108.6,1,1,0,0,0,1.7.838c1.471-1.47-1.892-5.075-3.359-6.541C12.689,6.8,9.723,4.382,8.407,5.694Z"/><path d="M14.564,3.148c-.6-.392-2.182-1.429-3.122-.488a1,1,0,0,0,.838,1.7,1,1,0,0,1,.6.108,17.586,17.586,0,0,1,3.69,2.967,17.621,17.621,0,0,1,2.967,3.69.992.992,0,0,1,.107.6,1,1,0,0,0,1.7.838c1.47-1.469-1.889-5.071-3.359-6.54A22.814,22.814,0,0,0,14.564,3.148Z"/></svg>