<svg id="Bold" xmlns="http://www.w3.org/2000/svg" viewBox="0 0 24 24"><title>kitchenware-strainer</title><path d="M3.622,18.684a.5.5,0,0,0-.707,0L.5,21.1a1.7,1.7,0,1,0,2.4,2.4l2.418-2.418a.5.5,0,0,0,0-.707Z"/><path d="M11.128,14.567,9.434,12.873a.5.5,0,0,0-.707,0L4.683,16.917a.5.5,0,0,0,0,.707l1.693,1.694a.5.5,0,0,0,.708,0l4.044-4.044a.5.5,0,0,0,0-.707Z"/><path d="M16.5,0A7.5,7.5,0,1,0,24,7.5,7.5,7.5,0,0,0,16.5,0ZM12.257,9.207a1,1,0,1,1,1-1A1,1,0,0,1,12.257,9.207Zm1.475-3.475a1,1,0,1,1,1,1A1,1,0,0,1,13.732,5.732Zm2.061,7.011a1,1,0,1,1,1-1A1,1,0,0,1,15.793,12.743Zm.414-9.486a1,1,0,1,1,1,1A1,1,0,0,1,16.207,3.257Zm2.061,7.011a1,1,0,1,1,1-1A1,1,0,0,1,18.268,10.268Zm2.475-2.475a1,1,0,1,1,1-1A1,1,0,0,1,20.743,7.793Z"/></svg>