<svg id="Bold" xmlns="http://www.w3.org/2000/svg" viewBox="0 0 24 24"><title>kitchen-table</title><path d="M23.876,9.649a1.486,1.486,0,0,0-1.484-1.484H19.545a.138.138,0,0,1-.06-.264,2.374,2.374,0,0,0,1.422-2.192.5.5,0,0,0-.5-.513H12.5A.5.5,0,0,0,12,5.709,2.375,2.375,0,0,0,13.423,7.9a.139.139,0,0,1-.061.264H9.887a.248.248,0,0,1-.147-.447,3.708,3.708,0,0,0,1.518-2.972A.743.743,0,0,0,10.515,4a.222.222,0,0,1-.167-.367,3.672,3.672,0,0,0,.91-2.421A.739.739,0,0,0,10.515.5H4.082a.739.739,0,0,0-.742.721,3.672,3.672,0,0,0,.91,2.421A.222.222,0,0,1,4.082,4a.742.742,0,0,0-.742.742A3.708,3.708,0,0,0,4.858,7.718a.248.248,0,0,1-.147.447h-3.1a1.485,1.485,0,0,0,0,2.969H22.392A1.486,1.486,0,0,0,23.876,9.649Z"/><path d="M15.959,21.031a1.982,1.982,0,0,1-1.98-1.979V12.619a.494.494,0,0,0-.494-.495h-2.97a.494.494,0,0,0-.494.495v6.433a1.982,1.982,0,0,1-1.98,1.979,1.485,1.485,0,0,0,0,2.969h7.918a1.485,1.485,0,0,0,0-2.969Z"/><path d="M13.237,3.216a.743.743,0,0,0,.742.743h4.949a.743.743,0,0,0,.742-.743,3.217,3.217,0,0,0-6.433,0Z"/></svg>