<svg id="Bold" xmlns="http://www.w3.org/2000/svg" viewBox="0 0 24 24"><title>knife-board</title><path d="M19.9,14.679,9.058,18.426a.5.5,0,0,0-.31.636l.99,2.866a.59.59,0,0,0,.749.364L13.62,21.21a13.086,13.086,0,0,0,6.993-5.694.589.589,0,0,0-.71-.837Z"/><path d="M7.494,20.024a.5.5,0,0,0-.636-.309L2.2,21.325a1.07,1.07,0,1,0,.7,2.022l4.66-1.611a.5.5,0,0,0,.31-.635Z"/><path d="M22.5.6H8A1.5,1.5,0,0,0,6.5,2.1V4.7a.5.5,0,0,1-.613.487A21.454,21.454,0,0,0,2.5,4.6a2.5,2.5,0,0,0,0,5,28.093,28.093,0,0,0,3.391-.62.5.5,0,0,1,.609.488V12.1A1.5,1.5,0,0,0,8,13.6H22.5A1.5,1.5,0,0,0,24,12.1V2.1A1.5,1.5,0,0,0,22.5.6ZM2.5,8.1a1,1,0,1,1,1-1A1,1,0,0,1,2.5,8.1Z"/></svg>