<svg id="Bold" xmlns="http://www.w3.org/2000/svg" viewBox="0 0 24 24"><title>koala</title><path d="M20.5,3.75a6.589,6.589,0,0,0-3.225.834.5.5,0,0,0-.048.844,9.019,9.019,0,0,1,3.628,5.711.4.4,0,0,0,.76.088,1.957,1.957,0,0,0,.114-.362,1.762,1.762,0,0,0,1.358-.13A2.112,2.112,0,0,0,24,8.75C24,7.021,23.269,3.75,20.5,3.75Z"/><path d="M12,5.25a7.5,7.5,0,1,0,7.5,7.5A7.5,7.5,0,0,0,12,5.25Zm-3.5,7A1.25,1.25,0,1,1,9.75,11,1.249,1.249,0,0,1,8.5,12.25Zm3.5,5c-3.715,0-1.237-6,0-6C13.12,11.25,15.8,17.25,12,17.25Zm3.5-5A1.25,1.25,0,1,1,16.75,11,1.249,1.249,0,0,1,15.5,12.25Z"/><path d="M6.771,5.429a.5.5,0,0,0-.048-.844A6.579,6.579,0,0,0,3.5,3.75C.731,3.75,0,7.021,0,8.75a2.112,2.112,0,0,0,.913,1.985,1.773,1.773,0,0,0,1.358.13,1.957,1.957,0,0,0,.114.362.4.4,0,0,0,.76-.088A9.014,9.014,0,0,1,6.771,5.429Z"/></svg>