<svg xmlns="http://www.w3.org/2000/svg" viewBox="0 0 24 24"><title>lab-tube-experiment</title><path d="M17.5.62A1.5,1.5,0,0,0,16.285,0H7.714A1.5,1.5,0,0,0,6.5.62,1.52,1.52,0,0,0,6.3,2,12.844,12.844,0,0,1,7,6.19V19a5,5,0,0,0,10,0V6.19a12.853,12.853,0,0,1,.708-4.2A1.518,1.518,0,0,0,17.5.62ZM9.664,14.745A1.256,1.256,0,1,1,10.919,16,1.245,1.245,0,0,1,9.664,14.745ZM12.919,21a1.25,1.25,0,1,1,1.256-1.255A1.255,1.255,0,0,1,12.919,21Zm.506-9a1.24,1.24,0,0,1-1.25-1.239A1.25,1.25,0,1,1,13.425,12Zm2.006-9.379A14.8,14.8,0,0,0,15,6.19V7.5a.5.5,0,0,1-.5.5h-5a.5.5,0,0,1-.5-.5V6.19a14.9,14.9,0,0,0-.429-3.57A.5.5,0,0,1,9.052,2h5.893a.5.5,0,0,1,.486.621Z"/></svg>