<svg xmlns="http://www.w3.org/2000/svg" viewBox="0 0 24 24"><title>lab-flame-bottle</title><path d="M20.125,10h-2a2,2,0,0,0-1.96,1.6.5.5,0,0,1-.489.4H14.625a.5.5,0,0,1-.5-.5v-2a1,1,0,0,0-.6-.915.251.251,0,0,1-.1-.373,3.971,3.971,0,0,0,.7-2.326A6.514,6.514,0,0,0,10,.057a.74.74,0,0,0-.86.22.751.751,0,0,0-.049.9A2.982,2.982,0,0,1,9.56,2.733a.25.25,0,0,1-.408.2.739.739,0,0,0-.172-.1.757.757,0,0,0-.625,0,3.306,3.306,0,0,0-2.23,3.051,4.284,4.284,0,0,0,.6,2.283.251.251,0,0,1,.021.22.249.249,0,0,1-.162.151,1.006,1.006,0,0,0-.708.959v1.75a2,2,0,0,0,.8,1.6.5.5,0,0,1,.2.4l0,1.572a.5.5,0,0,1-.171.377L4.157,17.425A3.751,3.751,0,0,0,6.625,24h6.75a3.751,3.751,0,0,0,2.469-6.574L13.3,15.2a.5.5,0,0,1-.17-.376V14.5a.5.5,0,0,1,.5-.5h2.05a.5.5,0,0,1,.489.4,2,2,0,0,0,1.96,1.6h2a1,1,0,0,0,1-1V11A1,1,0,0,0,20.125,10Zm-5.6,8.931a1.7,1.7,0,0,1,.349.418.5.5,0,0,1-.27.731c-4.773,1.605-3.262-2.349-9.376.281a.25.25,0,0,1-.349-.248,1.748,1.748,0,0,1,.594-1.182l3.061-2.676a1,1,0,0,0,.342-.753l0-3.252a1,1,0,0,0-.724-.961.381.381,0,0,1-.276-.367A.422.422,0,0,1,8.3,10.5H11.7a.422.422,0,0,1,.3.124.417.417,0,0,1,.123.3.38.38,0,0,1-.276.367,1,1,0,0,0-.724.961l0,3.253a1,1,0,0,0,.342.752Zm4.6-5.431a.5.5,0,0,1-1,0v-1a.5.5,0,0,1,1,0Z"/></svg>