<svg id="Bold" xmlns="http://www.w3.org/2000/svg" viewBox="0 0 24 24"><title>laboratory-chromosome</title><path d="M9.913,10.425c.428-2.448-.107-4.587-1.2-4.777S6.4,7.287,5.972,9.735a8.783,8.783,0,0,0-.084,2.607l0,0-.006,0a8.758,8.758,0,0,0-.871-2.456c-1.151-2.2-2.877-3.573-3.856-3.062s-.84,2.712.311,4.915c2.09,4,3.705,3.029,4.786,2.958C7.3,14.436,9.135,14.869,9.913,10.425Z"/><path d="M6.249,14.7c-1.052.26-2.885-.174-3.663,4.271-.428,2.448.106,4.587,1.194,4.777S6.1,22.1,6.526,19.656a8.78,8.78,0,0,0,.085-2.606l0,0,.006,0a8.773,8.773,0,0,0,.871,2.455c1.151,2.2,2.878,3.574,3.857,3.062s.839-2.711-.311-4.914C8.946,13.655,7.331,14.624,6.249,14.7Z"/><path d="M17.837,9.787c1.083.056,2.711,1,4.746-3.024,1.12-2.218,1.229-4.42.243-4.918s-2.693.9-3.814,3.115a8.8,8.8,0,0,0-.838,2.471h0l0,0a8.788,8.788,0,0,0-.121-2.6c-.462-2.442-1.716-4.255-2.8-4.05s-1.59,2.352-1.128,4.794C14.954,10,16.782,9.541,17.837,9.787Z"/><path d="M17.839,9.787c-.82-.116-1.736,1.563-2.045,3.751s.1,4.054.926,4.17,1.735-1.563,2.044-3.75S18.659,9.9,17.839,9.787Z"/><path d="M8.683,3.692A1,1,0,0,0,9.949,3.06l.5-1.5a1,1,0,0,0-1.9-.632l-.5,1.5A1,1,0,0,0,8.683,3.692Z"/><path d="M1.911,4.569A1,1,0,1,0,3.325,3.155L2.207,2.037A1,1,0,0,0,.793,3.451Z"/><path d="M15.293,20.537l-1.5,1.5a1,1,0,0,0,1.414,1.414l1.5-1.5a1,1,0,0,0-1.414-1.414Z"/><path d="M20.707,20.051a1,1,0,0,0-1.414,1.414l1.5,1.5a1,1,0,0,0,1.414-1.414Z"/><path d="M22.816,13.8a1,1,0,0,0-1.265.632l-.5,1.5a1,1,0,0,0,1.9.632l.5-1.5A1,1,0,0,0,22.816,13.8Z"/></svg>