<svg id="Bold" xmlns="http://www.w3.org/2000/svg" viewBox="0 0 24 24"><title>laboratory-sperm</title><path d="M12,0A12,12,0,1,0,24,12,12.013,12.013,0,0,0,12,0Zm4,4a1,1,0,1,1-1,1A1,1,0,0,1,16,4ZM14.5,9A1.5,1.5,0,1,1,13,10.5,1.5,1.5,0,0,1,14.5,9ZM5.459,12.79a1.287,1.287,0,0,1-.936-.32A2.268,2.268,0,0,1,3.8,10.921a2.2,2.2,0,0,1,.481-1.658.5.5,0,0,0,.128-.328c.044-3.5,2.353-4.006,4.226-4.411a5.464,5.464,0,0,0,3.292-1.509.75.75,0,0,1,1.144.97A6.791,6.791,0,0,1,8.953,5.991C7.138,6.383,6,6.65,5.92,8.771a.5.5,0,0,0,.175.4,2.145,2.145,0,0,1,.7,1.5,2.434,2.434,0,0,1-.266,1.364A1.365,1.365,0,0,1,5.459,12.79ZM7.5,18A1.5,1.5,0,1,1,9,16.5,1.5,1.5,0,0,1,7.5,18ZM9,9a1,1,0,1,1,1,1A1,1,0,0,1,9,9Zm8,11.5a1,1,0,1,1,1-1A1,1,0,0,1,17,20.5Zm3.007-7.985a.5.5,0,0,0-.126.326c-.045,3.5-2.353,4-4.225,4.408a5.462,5.462,0,0,0-3.292,1.51,2.34,2.34,0,0,0-.308,2.062.75.75,0,0,1-1.456.362,3.825,3.825,0,0,1,.62-3.395,6.794,6.794,0,0,1,4.119-2.006c1.81-.39,2.944-.658,3.032-2.766a.5.5,0,0,0-.17-.4,2.258,2.258,0,0,1-.7-1.52,2.44,2.44,0,0,1,.267-1.366,1.368,1.368,0,0,1,1.065-.751c.834-.077,1.566.753,1.659,1.871A2.23,2.23,0,0,1,20.007,12.513Z"/></svg>