<svg xmlns="http://www.w3.org/2000/svg" viewBox="0 0 24 24"><title>landmark-chinese-pagoda-1</title><path d="M1.838,12.913a11.3,11.3,0,0,0,2.222.475.5.5,0,0,1,.44.5V15a.5.5,0,0,0,.5.5H19a.5.5,0,0,0,.5-.5V13.884a.5.5,0,0,1,.44-.5,11.3,11.3,0,0,0,2.222-.475.751.751,0,0,0-.169-1.459,10.7,10.7,0,0,1-4.709-1.365A.505.505,0,0,0,17,10H7a.505.505,0,0,0-.284.089,10.7,10.7,0,0,1-4.71,1.366A.751.751,0,0,0,1.838,12.913Z"/><path d="M23,22H21.5a.5.5,0,0,1-.5-.5V20a.5.5,0,0,1,.5-.5A1.5,1.5,0,0,0,23,18v-.5a.5.5,0,0,0-.5-.5H1.5a.5.5,0,0,0-.5.5V18a1.5,1.5,0,0,0,1.5,1.5A.5.5,0,0,1,3,20v1.5a.5.5,0,0,1-.5.5H1a1,1,0,0,0,0,2H23a1,1,0,0,0,0-2ZM5,20a.5.5,0,0,1,.5-.5h13a.5.5,0,0,1,.5.5v1.5a.5.5,0,0,1-.5.5H5.5a.5.5,0,0,1-.5-.5Z"/><path d="M5.185,5.617a4.775,4.775,0,0,0,2.34.621.5.5,0,0,1,.475.5V8a.5.5,0,0,0,.5.5h7A.5.5,0,0,0,16,8V6.738a.5.5,0,0,1,.474-.5,4.772,4.772,0,0,0,2.342-.622.75.75,0,0,0-.371-1.379,13.4,13.4,0,0,1-4.629-1.109.5.5,0,0,1-.025-.905l.656-.329A1,1,0,0,0,13.553.105L12.224.77a.5.5,0,0,1-.448,0L10.447.105a1,1,0,0,0-.894,1.789l.656.329a.5.5,0,0,1-.025.905A13.4,13.4,0,0,1,5.557,4.237.75.75,0,0,0,5.185,5.617Z"/></svg>