<svg xmlns="http://www.w3.org/2000/svg" viewBox="0 0 24 24"><title>landmark-golden-temple</title><path d="M22.25,12H1.75a.75.75,0,0,0,0,1.5.25.25,0,0,1,.25.25V16.5a.5.5,0,0,0,.5.5H4a.5.5,0,0,0,.5-.5v-1a1,1,0,0,1,2,0v1A.5.5,0,0,0,7,17h3a.5.5,0,0,0,.5-.5V15a1.5,1.5,0,0,1,3,0v1.5a.5.5,0,0,0,.5.5h3a.5.5,0,0,0,.5-.5v-1a1,1,0,0,1,2,0v1a.5.5,0,0,0,.5.5h1.5a.5.5,0,0,0,.5-.5V13.75a.25.25,0,0,1,.25-.25.75.75,0,0,0,0-1.5Z"/><path d="M21.5,18.5H2.5A.5.5,0,0,0,2,19v4.5a.5.5,0,0,0,.5.5H9a.5.5,0,0,0,.5-.5V23a2.5,2.5,0,0,1,5,0v.5a.5.5,0,0,0,.5.5h6.5a.5.5,0,0,0,.5-.5V19A.5.5,0,0,0,21.5,18.5Z"/><path d="M2.5,10.5h19A.5.5,0,0,0,22,10V9a1.5,1.5,0,0,0-1.5-1.5H18.463a.5.5,0,0,0-.494.426A3.064,3.064,0,0,1,17.393,9.3a.5.5,0,0,1-.8-.594A1.989,1.989,0,0,0,17,7.5c0-1.869-1.21-2.572-2.492-3.315a9.716,9.716,0,0,1-2.154-1.539.5.5,0,0,0-.708,0A10.839,10.839,0,0,1,9.239,4.333C8.051,5.03,7,5.758,7,7.5a1.989,1.989,0,0,0,.411,1.2.5.5,0,0,1-.8.594,3.056,3.056,0,0,1-.575-1.371A.5.5,0,0,0,5.537,7.5H3.5A1.5,1.5,0,0,0,2,9v1A.5.5,0,0,0,2.5,10.5Z"/><path d="M3,6H6a.5.5,0,0,0,.5-.5,3,3,0,0,0-.895-1.788A.5.5,0,0,1,5.5,3.4V1a1,1,0,0,0-2,0V3.4a.5.5,0,0,1-.1.306A3,3,0,0,0,2.5,5.5.5.5,0,0,0,3,6Z"/><path d="M18,6h3a.5.5,0,0,0,.5-.5,2.977,2.977,0,0,0-.894-1.775.5.5,0,0,1-.106-.307V1a1,1,0,0,0-2,0V3.418a.5.5,0,0,1-.106.307A2.977,2.977,0,0,0,17.5,5.5.5.5,0,0,0,18,6Z"/></svg>