<svg xmlns="http://www.w3.org/2000/svg" viewBox="0 0 24 24"><title>landmark-buckingham-palace</title><rect y="16" width="2" height="8" rx="0.5" ry="0.5"/><rect x="22" y="16" width="2" height="8" rx="0.5" ry="0.5"/><path d="M15.5,12.5h-.75a.25.25,0,0,1-.25-.25V10.5a.5.5,0,0,0-.026-.158l-.961-2.885a.234.234,0,0,1-.013-.079V5a.5.5,0,0,0-.036-.186L13.018,3.7A.244.244,0,0,1,13,3.605V1a1,1,0,0,0-2,0V3.605a.244.244,0,0,1-.018.093l-.446,1.116A.5.5,0,0,0,10.5,5V7.378a.234.234,0,0,1-.013.079l-.961,2.885A.5.5,0,0,0,9.5,10.5v1.75a.25.25,0,0,1-.25.25H8.5A.5.5,0,0,0,8,13v1a.5.5,0,0,0,.5.5h7A.5.5,0,0,0,16,14V13A.5.5,0,0,0,15.5,12.5Zm-3-2a.5.5,0,0,1-1,0v-1a.5.5,0,0,1,1,0Z"/><path d="M15.5,16h-7a.5.5,0,0,0-.5.5v7a.5.5,0,0,0,.5.5h7a.5.5,0,0,0,.5-.5v-7A.5.5,0,0,0,15.5,16ZM10,19.5a.5.5,0,0,1-1,0v-1a.5.5,0,0,1,1,0Zm2.5,0a.5.5,0,0,1-1,0v-1a.5.5,0,0,1,1,0Zm2.5,0a.5.5,0,0,1-1,0v-1a.5.5,0,0,1,1,0Z"/><path d="M20.5,11.5a.5.5,0,0,0-.5.5.121.121,0,0,1-.207.086l-.439-.44a.5.5,0,0,0-.708,0l-.439.44A.121.121,0,0,1,18,12a.5.5,0,0,0-1,0V23.5a.5.5,0,0,0,.5.5h3a.5.5,0,0,0,.5-.5V12A.5.5,0,0,0,20.5,11.5Zm-1,4a.5.5,0,0,1-1,0v-1a.5.5,0,0,1,1,0Z"/><path d="M6.5,11.5A.5.5,0,0,0,6,12a.121.121,0,0,1-.207.086l-.439-.44a.5.5,0,0,0-.708,0l-.439.44A.121.121,0,0,1,4,12a.5.5,0,0,0-1,0V23.5a.5.5,0,0,0,.5.5h3a.5.5,0,0,0,.5-.5V12A.5.5,0,0,0,6.5,11.5Zm-1,4a.5.5,0,0,1-1,0v-1a.5.5,0,0,1,1,0Z"/></svg>