<svg xmlns="http://www.w3.org/2000/svg" viewBox="0 0 24 24"><title>landmark-japan-castle-1</title><path d="M20.038,20.5H19.5a.25.25,0,0,1-.25-.25v-2a.5.5,0,0,0-.5-.5H5.25a.5.5,0,0,0-.5.5v2a.25.25,0,0,1-.25.25H3.962c-.335,0-.549.287-.741.581-.011.017-1.137,1.77-.893,2.323a1,1,0,0,0,.915.6H20.757a1,1,0,0,0,.916-.6c.24-.547-.886-2.31-.9-2.327C20.585,20.784,20.372,20.5,20.038,20.5Z"/><path d="M23.25,14.5a1,1,0,0,0-1.98-.2.25.25,0,0,1-.245.2h-.786a.248.248,0,0,1-.227-.146l-.924-2.02a1,1,0,0,0-.909-.584H15.224a.25.25,0,0,0-.176.427l1.9,1.9a.25.25,0,0,1-.177.427h-.593A.249.249,0,0,1,16,14.427L12.973,11.4a1.377,1.377,0,0,0-1.946,0L8,14.427a.249.249,0,0,1-.177.073H7.233a.25.25,0,0,1-.177-.427l1.9-1.9a.25.25,0,0,0-.176-.427H5.821a1,1,0,0,0-.909.584l-.924,2.021a.251.251,0,0,1-.227.146h-.6a.5.5,0,0,1-.472-.334A1,1,0,0,0,.75,14.5a2,2,0,0,0,2,2h18.5A2,2,0,0,0,23.25,14.5Zm-12.595,0a.25.25,0,0,1-.177-.427l1.345-1.345a.25.25,0,0,1,.354,0l1.345,1.345a.25.25,0,0,1-.177.427Z"/><path d="M2.5,8.5a2,2,0,0,0,2,2h15a2,2,0,0,0,2-2,1,1,0,0,0-1.98-.2.25.25,0,0,1-.245.2h-.567a.25.25,0,0,1-.232-.157l-.512-1.279A.5.5,0,0,0,17.5,6.75H15.974a.25.25,0,0,0-.176.427l.9.9a.25.25,0,0,1-.176.426H15.387a.251.251,0,0,1-.177-.073l-2.3-2.3a1.291,1.291,0,0,0-1.82,0h0l-2.3,2.3a.249.249,0,0,1-.177.073H7.482a.25.25,0,0,1-.177-.427l.9-.9a.25.25,0,0,0-.176-.427H6.5a.5.5,0,0,0-.464.314l-.512,1.28a.25.25,0,0,1-.232.157H4.915a.5.5,0,0,1-.472-.334A1,1,0,0,0,2.5,8.5Z"/><path d="M16.25,5.25a2,2,0,0,0,2-2,1,1,0,0,0-1.98-.2.25.25,0,0,1-.245.2H14.638a.25.25,0,0,1-.161-.059l-.556-.47a.25.25,0,0,1-.088-.187.254.254,0,0,1,.082-.19A1.751,1.751,0,0,0,14.5,1,1,1,0,0,0,12.527.767a.248.248,0,0,1-.183.185A1.638,1.638,0,0,1,12.007,1a1.712,1.712,0,0,1-.35-.048.251.251,0,0,1-.184-.185A1,1,0,0,0,9.5,1a1.751,1.751,0,0,0,.585,1.344.254.254,0,0,1,.082.19.25.25,0,0,1-.088.187l-.556.47a.25.25,0,0,1-.162.06h-1.2a.5.5,0,0,1-.472-.334A1,1,0,0,0,5.75,3.25a2,2,0,0,0,2,2Z"/></svg>