<svg xmlns="http://www.w3.org/2000/svg" viewBox="0 0 24 24"><title>landmark-brooklyn-bridge</title><path d="M1.207,8.314c.161-.033.318-.074.473-.12a.25.25,0,0,1,.32.24v3.033a.25.25,0,0,1-.25.25h-1a.5.5,0,0,0-.5.5v1a.5.5,0,0,0,.5.5H4a.25.25,0,0,1,.25.25v4.214a.251.251,0,0,0,.307.244,1.987,1.987,0,0,1,2.1.895h0s.053.076.151.188a.25.25,0,0,0,.438-.165V13.967a.25.25,0,0,1,.25-.25h9a.25.25,0,0,1,.25.25v5.786a.25.25,0,0,0,.4.2,2.641,2.641,0,0,0,.572-.6,2.049,2.049,0,0,1,1.761-.972.25.25,0,0,0,.265-.25V13.967a.25.25,0,0,1,.25-.25h3.25a.5.5,0,0,0,.5-.5v-1a.5.5,0,0,0-.5-.5h-1a.25.25,0,0,1-.25-.25V8.434a.25.25,0,0,1,.32-.24c.155.046.313.087.473.12a1,1,0,1,0,.414-1.956A5.02,5.02,0,0,1,19.25,1.467a1,1,0,1,0-2,0,5.05,5.05,0,0,1-5.25,5,5.05,5.05,0,0,1-5.25-5,1,1,0,0,0-2,0A5.02,5.02,0,0,1,.793,6.358a1,1,0,1,0,.414,1.956ZM19,6.7a.25.25,0,0,1,.422-.181,7.14,7.14,0,0,0,.966.772A.251.251,0,0,1,20.5,7.5v3.968a.25.25,0,0,1-.25.25h-1a.25.25,0,0,1-.25-.25Zm-3,.65a.252.252,0,0,1,.11-.208,7.41,7.41,0,0,0,.968-.771.251.251,0,0,1,.422.182v4.914a.25.25,0,0,1-.25.25h-1a.25.25,0,0,1-.25-.25Zm-3.25,1.3a.249.249,0,0,1,.22-.248,5.55,5.55,0,0,0,1.2-.314.25.25,0,0,1,.326.238v3.146a.25.25,0,0,1-.25.25H13a.25.25,0,0,1-.25-.25ZM9.5,8.321a.25.25,0,0,1,.326-.238,5.55,5.55,0,0,0,1.2.314.249.249,0,0,1,.22.248v2.822a.25.25,0,0,1-.25.25H9.75a.25.25,0,0,1-.25-.25Zm-3-1.768a.251.251,0,0,1,.422-.182,7.41,7.41,0,0,0,.968.771A.252.252,0,0,1,8,7.35v4.117a.25.25,0,0,1-.25.25h-1a.25.25,0,0,1-.25-.25ZM3.5,7.5a.25.25,0,0,1,.112-.208,7.14,7.14,0,0,0,.966-.772A.25.25,0,0,1,5,6.7v4.767a.25.25,0,0,1-.25.25h-1a.25.25,0,0,1-.25-.25Z"/><path d="M22.941,21.489a3.406,3.406,0,0,1-2.654-1.575,1.043,1.043,0,0,0-1.72.029A3.367,3.367,0,0,1,15.812,21.5a2.809,2.809,0,0,1-2.41-1.486,1.044,1.044,0,0,0-1.718-.156A4.308,4.308,0,0,1,8.573,21.5a3.565,3.565,0,0,1-2.766-1.584,1.04,1.04,0,0,0-1.638-.091c-.014.018-1.463,1.785-3.117,1.707a1,1,0,1,0-.1,2c.074,0,.148.006.221.006A5.61,5.61,0,0,0,4.578,22.2a.5.5,0,0,1,.635.01A5.138,5.138,0,0,0,8.573,23.5a5.741,5.741,0,0,0,3.482-1.235.5.5,0,0,1,.639.027A4.534,4.534,0,0,0,15.812,23.5a5.1,5.1,0,0,0,3.307-1.212.5.5,0,0,1,.643,0,4.664,4.664,0,0,0,3.292,1.2,1,1,0,1,0-.113-2Z"/></svg>