<svg id="Bold" xmlns="http://www.w3.org/2000/svg" viewBox="0 0 24 24"><title>landmarks-statue-flag</title><path d="M13.452,9.738a.25.25,0,0,0,.44-.069l.95-2.9a.248.248,0,0,1,.3-.165l5.222,1.286a1.249,1.249,0,0,0,1.577-.8l1.245-3.8a1.255,1.255,0,0,0-.82-1.583L16.933.1a1.412,1.412,0,0,0-1.25.1,1.383,1.383,0,0,0-.6,1.016l-2.359,7.2a.254.254,0,0,0,.025.208A12.7,12.7,0,0,0,13.452,9.738Z"/><path d="M12.258,11.185A1.008,1.008,0,0,0,12.4,9.956L10.658,7.118a3,3,0,0,0-2.653-1.6h-2a3,3,0,0,0-3,3V11.5a1,1,0,0,0,1,1h1v3a1,1,0,0,0,1,1h2a1,1,0,0,0,1-1V9.327a.25.25,0,0,1,.458-.139L10.7,11.041a1.007,1.007,0,0,0,1.56.144Z"/><circle cx="7.005" cy="2" r="2"/><path d="M13.505,24a.75.75,0,1,0,0-1.5H11.616a.249.249,0,0,1-.186-.083.252.252,0,0,1-.063-.193l.384-3.646a.752.752,0,0,0-.189-.58.6.6,0,0,0-.151-.121.251.251,0,0,1-.111-.294l1.835-5.6a.1.1,0,0,0-.16-.1,1.993,1.993,0,0,1-1.438.607.2.2,0,0,0-.193.14L9.723,17.578a.248.248,0,0,1-.237.172H4.005a.749.749,0,0,0-.746.828l.383,3.646a.248.248,0,0,1-.062.193.25.25,0,0,1-.186.083H1.505a.75.75,0,1,0,0,1.5Z"/></svg>