<svg xmlns="http://www.w3.org/2000/svg" viewBox="0 0 24 24"><title>landmark-cologne-cathedral</title><path d="M.5,8.5h2A.5.5,0,0,0,3,8V7A.5.5,0,0,1,4,7V8a.5.5,0,0,0,.5.5h2a.5.5,0,0,0,.416-.777L4.577,4.214A.459.459,0,0,1,4.96,3.5H5.5a1,1,0,0,0,0-2H5A.5.5,0,0,1,4.5,1a1,1,0,0,0-2,0,.5.5,0,0,1-.5.5H1.5a1,1,0,0,0,0,2h.541a.459.459,0,0,1,.382.714L.084,7.723A.5.5,0,0,0,.5,8.5Z"/><path d="M23.743,18.063l-4.5-2.5A.5.5,0,0,0,18.5,16v6a.5.5,0,0,1-.5.5h-.5A.5.5,0,0,1,17,22V14a.5.5,0,0,0-.165-.372l-5-4.5a.5.5,0,0,0-.669,0l-5,4.5A.5.5,0,0,0,6,14v8a.5.5,0,0,1-.5.5H5a.5.5,0,0,1-.5-.5V14a2,2,0,0,1,.662-1.487l1.673-1.505A.5.5,0,0,0,7,10.636V10.5a.5.5,0,0,0-.5-.5H.5a.5.5,0,0,0-.5.5V23.25A.75.75,0,0,0,.75,24H9.5a.5.5,0,0,0,.5-.5v-2a1,1,0,0,1,1-1h1a1,1,0,0,1,1,1v2a.5.5,0,0,0,.5.5h10a.5.5,0,0,0,.5-.5v-5A.5.5,0,0,0,23.743,18.063ZM9.25,17.5a.75.75,0,0,1-1.5,0v-1a.75.75,0,0,1,1.5,0Zm3,0a.75.75,0,0,1-1.5,0v-3a.75.75,0,0,1,1.5,0Zm3,0a.75.75,0,0,1-1.5,0v-1a.75.75,0,0,1,1.5,0ZM21.5,21a.5.5,0,0,1-1,0V19a.5.5,0,0,1,1,0Z"/></svg>