<svg xmlns="http://www.w3.org/2000/svg" viewBox="0 0 24 24"><title>landmark-colosseum-1</title><path d="M22.5,7.25H11.861a.5.5,0,0,0-.473.664l1.969,5.68a2.454,2.454,0,0,1,.143.833V20.75a.5.5,0,0,0,.5.5h1a.5.5,0,0,0,.5-.5V19A1.25,1.25,0,0,1,18,19v1.75a.5.5,0,0,0,.5.5h1a.5.5,0,0,0,.5-.5V19a1.25,1.25,0,0,1,2.5,0v1.616a.5.5,0,0,0,.751.432A1.5,1.5,0,0,0,24,19.75v-11A1.5,1.5,0,0,0,22.5,7.25Zm-4.5,7a.5.5,0,0,1-.5.5H16a.5.5,0,0,1-.5-.5V12.5a1.25,1.25,0,0,1,2.5,0Zm4.5,0a.5.5,0,0,1-.5.5H20.5a.5.5,0,0,1-.5-.5V12.5a1.25,1.25,0,0,1,2.5,0Z"/><path d="M.5,14.25h1a.5.5,0,0,0,.5-.5V12.5a1.25,1.25,0,0,1,2.5,0v1.25a.5.5,0,0,0,.5.5H6a.5.5,0,0,0,.5-.5V12.5a1.25,1.25,0,0,1,2.5,0v1.25a.5.5,0,0,0,.5.5h2.324a.123.123,0,0,0,.116-.165l-1.733-5a.5.5,0,0,0-.472-.336H.5a.5.5,0,0,0-.5.5v4.5A.5.5,0,0,0,.5,14.25Z"/><path d="M.5,7.75H9.042a.5.5,0,0,0,.472-.664L8.239,3.408A1,1,0,0,0,7.3,2.75H1a1,1,0,0,0-1,1v3.5A.5.5,0,0,0,.5,7.75ZM4.75,5a.75.75,0,0,1,1.5,0v.5a.75.75,0,0,1-1.5,0Zm-3,0a.75.75,0,0,1,1.5,0v.5a.75.75,0,0,1-1.5,0Z"/><path d="M11.5,15.25H.5a.5.5,0,0,0-.5.5v4.5a1,1,0,0,0,1,1h.5a.5.5,0,0,0,.5-.5V19a1.25,1.25,0,0,1,2.5,0v1.75a.5.5,0,0,0,.5.5H6a.5.5,0,0,0,.5-.5V19A1.25,1.25,0,0,1,9,19v1.75a.5.5,0,0,0,.5.5h2a.5.5,0,0,0,.5-.5v-5A.5.5,0,0,0,11.5,15.25Z"/></svg>