<svg xmlns="http://www.w3.org/2000/svg" viewBox="0 0 24 24"><title>landmark-london-tower</title><rect x="7.5" y="20.993" width="9" height="3" rx="0.5" ry="0.5"/><path d="M8,6.993h8a.5.5,0,0,0,.416-.777l-4-6a.518.518,0,0,0-.832,0l-4,6A.5.5,0,0,0,8,6.993Z"/><path d="M16,8.493H8a1.5,1.5,0,0,0-1.5,1.5v8a1.5,1.5,0,0,0,1.5,1.5h8a1.5,1.5,0,0,0,1.5-1.5v-8A1.5,1.5,0,0,0,16,8.493Zm-4,9a3.5,3.5,0,1,1,3.5-3.5A3.5,3.5,0,0,1,12,17.493Z"/><path d="M12.95,13.768a.5.5,0,0,1-.2-.4v-.875a.75.75,0,0,0-1.5,0v1.5a.749.749,0,0,0,.3.6l1.333,1a.75.75,0,1,0,.9-1.2Z"/></svg>