<svg xmlns="http://www.w3.org/2000/svg" viewBox="0 0 24 24"><title>landmark-empire-state</title><path d="M6.75,19h-3a1.5,1.5,0,0,0-1.5,1.5v1a.5.5,0,0,1-.5.5H1a1,1,0,0,0,0,2H6.75a.5.5,0,0,0,.5-.5v-4A.5.5,0,0,0,6.75,19Z"/><path d="M6.75,13.5h-2A1.5,1.5,0,0,0,3.25,15v2a.5.5,0,0,0,.5.5h3a.5.5,0,0,0,.5-.5V14A.5.5,0,0,0,6.75,13.5Z"/><path d="M6.75,9h-1a1.5,1.5,0,0,0-1.5,1.5v1a.5.5,0,0,0,.5.5h2a.5.5,0,0,0,.5-.5v-2A.5.5,0,0,0,6.75,9Z"/><path d="M12.75,13.5a.5.5,0,0,0-.5.5v3a.5.5,0,0,0,.5.5h3a.5.5,0,0,0,.5-.5V15a1.5,1.5,0,0,0-1.5-1.5Z"/><path d="M12.25,9.5v2a.5.5,0,0,0,.5.5h2a.5.5,0,0,0,.5-.5v-1A1.5,1.5,0,0,0,13.75,9h-1A.5.5,0,0,0,12.25,9.5Z"/><path d="M18.5,22h-.75a.5.5,0,0,1-.5-.5v-1a1.5,1.5,0,0,0-1.5-1.5h-3a.5.5,0,0,0-.5.5v4a.5.5,0,0,0,.5.5H18.5a1,1,0,0,0,0-2Z"/><path d="M12.75,7V5.667a.5.5,0,0,0-.1-.3l-1.8-2.4a.5.5,0,0,1-.1-.3V1a1,1,0,0,0-2,0V2.667a.5.5,0,0,1-.1.3l-1.8,2.4a.5.5,0,0,0-.1.3V7a.5.5,0,0,0,.5.5h1a.5.5,0,0,1,.5.5V23.5a.5.5,0,0,0,.5.5h1a.5.5,0,0,0,.5-.5V8a.5.5,0,0,1,.5-.5h1A.5.5,0,0,0,12.75,7Z"/><path d="M20.75,0a3.231,3.231,0,0,0-2.941,1.877.25.25,0,0,1-.261.143,2.25,2.25,0,1,0-.3,4.48h3.5a3.25,3.25,0,0,0,0-6.5Z"/></svg>