<svg xmlns="http://www.w3.org/2000/svg" viewBox="0 0 24 24"><title>landmark-rialto-bridge</title><path d="M23.683,8.034,15.159,4.7A.25.25,0,0,1,15,4.466V3.5a.5.5,0,0,0-.243-.429l-2.5-1.5a.5.5,0,0,0-.514,0l-2.5,1.5A.5.5,0,0,0,9,3.5v.966a.25.25,0,0,1-.159.233L.317,8.034A.5.5,0,0,0,0,8.5V14a.5.5,0,0,0,.683.466l1.158-.454A.249.249,0,0,0,2,13.78V11a1,1,0,0,1,2,0v1.8a.25.25,0,0,0,.341.233l1.5-.587A.25.25,0,0,0,6,12.214V9.5a1,1,0,0,1,2,0v1.736a.251.251,0,0,0,.341.233l1.5-.587A.251.251,0,0,0,10,10.649V7.5a2,2,0,0,1,4,0v3.149a.251.251,0,0,0,.159.233l1.5.587A.25.25,0,0,0,16,11.236V9.5a1,1,0,0,1,2,0v2.714a.25.25,0,0,0,.159.233l1.5.587A.25.25,0,0,0,20,12.8V11a1,1,0,0,1,2,0v2.78a.249.249,0,0,0,.159.232l1.158.454A.5.5,0,0,0,24,14V8.5A.5.5,0,0,0,23.683,8.034Z"/><path d="M23.683,15.534l-11.5-4.5a.5.5,0,0,0-.366,0l-11.5,4.5A.5.5,0,0,0,0,16v3.356a.25.25,0,0,0,.336.235,1.941,1.941,0,0,1,.932-.1c.844.12,1.889-.835,2.269-1.312a2.027,2.027,0,0,1,1.575-.768,2,2,0,0,1,1.713.96h0a3.111,3.111,0,0,0,.79.756A.25.25,0,0,0,8,18.917V18a4,4,0,0,1,8,0v1.119a.25.25,0,0,0,.33.237,2.485,2.485,0,0,0,1.209-.956,2.063,2.063,0,0,1,1.727-.99,2,2,0,0,1,1.709.955l.008.013c.068.1.852,1.192,1.744,1.071a1.939,1.939,0,0,1,.937.1A.25.25,0,0,0,24,19.317V16A.5.5,0,0,0,23.683,15.534Z"/><path d="M22.864,20.44c-1.618.231-2.728-1.536-2.737-1.55a1.048,1.048,0,0,0-1.726.022,3.275,3.275,0,0,1-2.672,1.553A2.731,2.731,0,0,1,13.4,18.988a1.045,1.045,0,0,0-1.723-.16,4.173,4.173,0,0,1-3.021,1.637A3.52,3.52,0,0,1,5.974,18.89,1.045,1.045,0,0,0,4.325,18.8c-.014.02-1.5,1.908-3.19,1.685a1,1,0,1,0-.27,1.981,4.013,4.013,0,0,0,.552.038,5.539,5.539,0,0,0,3.478-1.448.25.25,0,0,1,.331.006,5.038,5.038,0,0,0,3.426,1.407,5.623,5.623,0,0,0,3.554-1.343.249.249,0,0,1,.334.015,4.432,4.432,0,0,0,3.189,1.328,4.978,4.978,0,0,0,3.378-1.327.25.25,0,0,1,.336,0,4.488,4.488,0,0,0,3.693,1.281,1,1,0,1,0-.272-1.981Z"/></svg>