<svg xmlns="http://www.w3.org/2000/svg" viewBox="0 0 24 24"><title>landmark-chandi-borobudur</title><path d="M3.5,12.985a.813.813,0,0,0-.791.64l-.279,1.3a.5.5,0,0,0,.566.6,3.215,3.215,0,0,1,1.008,0,.5.5,0,0,0,.566-.6l-.278-1.3A.815.815,0,0,0,3.5,12.985Z"/><path d="M4,4.525A3.215,3.215,0,0,1,5,4.525a.5.5,0,0,0,.566-.6l-.278-1.3a.809.809,0,0,0-1.583,0l-.279,1.3A.5.5,0,0,0,4,4.525Z"/><path d="M19,4.525a3.215,3.215,0,0,1,1.008,0,.5.5,0,0,0,.566-.6l-.278-1.3a.809.809,0,0,0-1.583,0l-.279,1.3A.5.5,0,0,0,19,4.525Z"/><path d="M20.5,12.985a.813.813,0,0,0-.791.64l-.279,1.3a.5.5,0,0,0,.566.6,3.215,3.215,0,0,1,1.008,0,.5.5,0,0,0,.566-.6l-.278-1.3A.815.815,0,0,0,20.5,12.985Z"/><path d="M1.5,11.985h5a.5.5,0,0,0,.5-.5v-3.5a2.5,2.5,0,1,0-5,0v2.086a.5.5,0,0,1-.333.471A1.006,1.006,0,0,0,1,11.485.5.5,0,0,0,1.5,11.985Z"/><path d="M6.333,21.542A.5.5,0,0,1,6,21.071V18.985a2.5,2.5,0,0,0-5,0v2.086a.5.5,0,0,1-.333.471A1,1,0,0,0,0,22.485a.5.5,0,0,0,.5.5h6a.5.5,0,0,0,.5-.5A1,1,0,0,0,6.333,21.542Z"/><path d="M17.5,11.985h5a.5.5,0,0,0,.5-.5,1.006,1.006,0,0,0-.667-.943A.5.5,0,0,1,22,10.071V7.985a2.5,2.5,0,1,0-5,0v3.5A.5.5,0,0,0,17.5,11.985Z"/><path d="M23.333,21.542A.5.5,0,0,1,23,21.071V18.985a2.5,2.5,0,0,0-5,0v2.086a.5.5,0,0,1-.333.471,1,1,0,0,0-.667.943.5.5,0,0,0,.5.5h6a.5.5,0,0,0,.5-.5A1,1,0,0,0,23.333,21.542Z"/><path d="M6.5,15.485a.5.5,0,0,0-.5.5v.5a.5.5,0,0,0,.5.5h11a.5.5,0,0,0,.5-.5v-.5a.5.5,0,0,0-.5-.5.5.5,0,0,1-.5-.5.5.5,0,0,0-.5-.5h-9a.5.5,0,0,0-.5.5A.5.5,0,0,1,6.5,15.485Z"/><path d="M8.5,13.485h7a.5.5,0,0,0,.5-.5v-2.5a4.316,4.316,0,0,0-1.339-3.107A.5.5,0,0,1,14.5,7.01V6.485a1,1,0,0,0-1-1h-3a1,1,0,0,0-1,1V7.01a.5.5,0,0,1-.161.367A4.319,4.319,0,0,0,8,10.485v2.5A.5.5,0,0,0,8.5,13.485Z"/><path d="M11,4.485h2a.5.5,0,0,0,.464-.685l-1-2.5a.52.52,0,0,0-.928,0l-1,2.5A.5.5,0,0,0,11,4.485Z"/></svg>