<svg xmlns="http://www.w3.org/2000/svg" viewBox="0 0 24 24"><title>laundry-iron</title><path d="M2.357,4.577a1.4,1.4,0,0,1-.232-.308.5.5,0,0,0-.654-.206l-.866.418A1,1,0,0,0,.333,6.088l12.23,12.23a1.873,1.873,0,0,0,1.369.489,3.849,3.849,0,0,0,.914-.12c.158-.039.315-.086.469-.14a.5.5,0,0,0,.187-.825Z"/><path d="M23.667,20.938,21.1,18.375a.25.25,0,0,1-.018-.333,2.142,2.142,0,0,0,.13-.182A11,11,0,0,0,19.681,4.223c-5.1-5.1-13.256-2.054-15.609-1.014a.5.5,0,0,0-.151.811L22.253,22.352a1,1,0,0,0,1.414-1.414ZM18.09,14.653a.75.75,0,1,1,0-1.061A.751.751,0,0,1,18.09,14.653Zm1.768,1.768a.75.75,0,1,1,0-1.061A.752.752,0,0,1,19.858,16.421Zm.337-4.358a.5.5,0,0,1-.851.308l-7.1-7.1a.5.5,0,0,1,.308-.852,7.072,7.072,0,0,1,5.718,1.929A7.072,7.072,0,0,1,20.2,12.063Z"/></svg>