<svg xmlns="http://www.w3.org/2000/svg" viewBox="0 0 24 24"><title>laundry-machine-2</title><path d="M22.435,6.261H1.565a.517.517,0,0,0-.522.522V22.435A1.564,1.564,0,0,0,2.609,24H21.391a1.564,1.564,0,0,0,1.566-1.565V6.783A.517.517,0,0,0,22.435,6.261ZM12,21.913a6.783,6.783,0,1,1,6.783-6.783A6.8,6.8,0,0,1,12,21.913Z"/><path d="M21.391,0H2.609A1.568,1.568,0,0,0,1.043,1.565V4.174a.522.522,0,0,0,.522.522h20.87a.522.522,0,0,0,.522-.522V1.565A1.568,1.568,0,0,0,21.391,0ZM8.87,3.13H3.652a.522.522,0,1,1,0-1.043H8.87a.522.522,0,0,1,0,1.043Zm4.521.363A1.044,1.044,0,1,1,14.435,2.45,1.043,1.043,0,0,1,13.391,3.493Zm3.479,0A1.044,1.044,0,1,1,17.913,2.45,1.043,1.043,0,0,1,16.87,3.493Zm3.478-.068a1.044,1.044,0,1,1,1.043-1.044A1.043,1.043,0,0,1,20.348,3.425Z"/><circle cx="12" cy="15.13" r="3.652"/></svg>