<svg xmlns="http://www.w3.org/2000/svg" viewBox="0 0 24 24"><title>layers-1-alternate</title><rect x="8" y="2" width="16" height="12" rx="2" ry="2"/><path d="M19,15a1,1,0,0,0-.98.8.249.249,0,0,1-.245.2H6.25A.25.25,0,0,1,6,15.75V8.225a.25.25,0,0,1,.2-.245A1,1,0,0,0,6,6,2,2,0,0,0,4,8v8a2,2,0,0,0,2,2H18a2,2,0,0,0,2-2A1,1,0,0,0,19,15Z"/><path d="M15,19a1,1,0,0,0-.98.8.249.249,0,0,1-.245.2H2.25A.25.25,0,0,1,2,19.75V12.225a.25.25,0,0,1,.2-.245A1,1,0,0,0,2,10a2,2,0,0,0-2,2v8a2,2,0,0,0,2,2H14a2,2,0,0,0,2-2A1,1,0,0,0,15,19Z"/></svg>