<svg xmlns="http://www.w3.org/2000/svg" viewBox="0 0 24 24"><title>layers-grid-disable</title><path d="M8,19a.25.25,0,0,1-.25-.25V15A.25.25,0,0,1,8,14.75H9.475a.252.252,0,0,0,.236-.166,7.815,7.815,0,0,1,.419-.97.25.25,0,0,0-.222-.364H8A.25.25,0,0,1,7.75,13V8A.25.25,0,0,1,8,7.75h4a.25.25,0,0,1,.25.25v2.51a.25.25,0,0,0,.393.205,8.124,8.124,0,0,1,.971-.582.252.252,0,0,0,.136-.223V8A.25.25,0,0,1,14,7.75h3.75A.25.25,0,0,1,18,8V9.064a.25.25,0,0,0,.22.248,7.878,7.878,0,0,1,1.454.321A.25.25,0,0,0,20,9.4V3a3,3,0,0,0-3-3H3A3,3,0,0,0,0,3V18a3,3,0,0,0,3,3H9.781a.251.251,0,0,0,.211-.116.247.247,0,0,0,.015-.24,7.936,7.936,0,0,1-.514-1.454A.25.25,0,0,0,9.25,19ZM6.25,13a.25.25,0,0,1-.25.25H2.25A.25.25,0,0,1,2,13V8a.25.25,0,0,1,.25-.25H6A.25.25,0,0,1,6.25,8ZM8,6.25A.25.25,0,0,1,7.75,6V2.25A.25.25,0,0,1,8,2h4a.25.25,0,0,1,.25.25V6a.25.25,0,0,1-.25.25ZM18,3V6a.25.25,0,0,1-.25.25H14A.25.25,0,0,1,13.75,6V2.25A.25.25,0,0,1,14,2h3A1,1,0,0,1,18,3ZM3,2H6a.25.25,0,0,1,.25.25V6A.25.25,0,0,1,6,6.25H2.25A.25.25,0,0,1,2,6V3A1,1,0,0,1,3,2ZM2,18V15a.25.25,0,0,1,.25-.25H6a.25.25,0,0,1,.25.25v3.75A.25.25,0,0,1,6,19H3A1,1,0,0,1,2,18Z"/><path d="M17.25,10.5A6.75,6.75,0,1,0,24,17.25,6.758,6.758,0,0,0,17.25,10.5Zm2.288,2.6a.251.251,0,0,1,.055.4l-6.1,6.1a.249.249,0,0,1-.212.071.253.253,0,0,1-.184-.126,4.7,4.7,0,0,1-.6-2.288,4.756,4.756,0,0,1,4.75-4.75A4.7,4.7,0,0,1,19.538,13.1ZM17.25,22a4.7,4.7,0,0,1-2.288-.6.252.252,0,0,1-.126-.184.249.249,0,0,1,.071-.212l6.1-6.1a.251.251,0,0,1,.4.055A4.7,4.7,0,0,1,22,17.25,4.756,4.756,0,0,1,17.25,22Z"/></svg>