<svg xmlns="http://www.w3.org/2000/svg" viewBox="0 0 24 24"><title>layers-select</title><path d="M23,14a1,1,0,0,0-1,1v.5a.5.5,0,0,1-.5.5H21a1,1,0,0,0,0,2h1a2,2,0,0,0,2-2V15A1,1,0,0,0,23,14Z"/><path d="M22,0H21a1,1,0,0,0,0,2h.5a.5.5,0,0,1,.5.5V3a1,1,0,0,0,2,0V2A2,2,0,0,0,22,0Z"/><path d="M7,4A1,1,0,0,0,8,3V2.5A.5.5,0,0,1,8.5,2H9A1,1,0,0,0,9,0H8A2,2,0,0,0,6,2V3A1,1,0,0,0,7,4Z"/><path d="M23,7a1,1,0,0,0-1,1v2a1,1,0,0,0,2,0V8A1,1,0,0,0,23,7Z"/><path d="M16,0H14a1,1,0,0,0,0,2h2a1,1,0,0,0,0-2Z"/><path d="M8,18H9a1,1,0,0,0,0-2H8.5a.5.5,0,0,1-.5-.5V15a1,1,0,0,0-2,0v1A2,2,0,0,0,8,18Z"/><path d="M7,11a1,1,0,0,0,1-1V8A1,1,0,0,0,6,8v2A1,1,0,0,0,7,11Z"/><path d="M16,16H14a1,1,0,0,0,0,2h2a1,1,0,0,0,0-2Z"/><path d="M16,22H2.5a.5.5,0,0,1-.5-.5V8A1,1,0,0,0,0,8V22a2,2,0,0,0,2,2H16a1,1,0,0,0,0-2Z"/></svg>