<svg xmlns="http://www.w3.org/2000/svg" viewBox="0 0 24 24"><title>layers-grid-remove</title><path d="M8,19a.25.25,0,0,1-.25-.25V15A.25.25,0,0,1,8,14.75H9.825a.251.251,0,0,0,.233-.159,8.021,8.021,0,0,1,.456-.97.247.247,0,0,0,0-.248.251.251,0,0,0-.215-.123H8A.25.25,0,0,1,7.75,13V8A.25.25,0,0,1,8,7.75h4a.25.25,0,0,1,.25.25v2.95a.25.25,0,0,0,.4.2,7.976,7.976,0,0,1,.97-.641.249.249,0,0,0,.128-.218V8A.25.25,0,0,1,14,7.75h3.75A.25.25,0,0,1,18,8V9.294a.251.251,0,0,0,.228.249,7.935,7.935,0,0,1,1.454.265A.25.25,0,0,0,20,9.568V3a3,3,0,0,0-3-3H3A3,3,0,0,0,0,3V18a3,3,0,0,0,3,3H9.927a.25.25,0,0,0,.229-.349,7.875,7.875,0,0,1-.47-1.455.25.25,0,0,0-.244-.2ZM6.25,13a.25.25,0,0,1-.25.25H2.25A.25.25,0,0,1,2,13V8a.25.25,0,0,1,.25-.25H6A.25.25,0,0,1,6.25,8ZM8,6.25A.25.25,0,0,1,7.75,6V2.25A.25.25,0,0,1,8,2h4a.25.25,0,0,1,.25.25V6a.25.25,0,0,1-.25.25ZM18,3V6a.25.25,0,0,1-.25.25H14A.25.25,0,0,1,13.75,6V2.25A.25.25,0,0,1,14,2h3A1,1,0,0,1,18,3ZM3,2H6a.25.25,0,0,1,.25.25V6A.25.25,0,0,1,6,6.25H2.25A.25.25,0,0,1,2,6V3A1,1,0,0,1,3,2ZM2,18V15a.25.25,0,0,1,.25-.25H6a.25.25,0,0,1,.25.25v3.75A.25.25,0,0,1,6,19H3A1,1,0,0,1,2,18Z"/><path d="M17.5,11A6.5,6.5,0,1,0,24,17.5,6.508,6.508,0,0,0,17.5,11Zm-2.651,8.091,1.414-1.414a.252.252,0,0,0,0-.354l-1.414-1.414a.75.75,0,0,1,1.06-1.06l1.414,1.414a.252.252,0,0,0,.354,0l1.414-1.414a.75.75,0,1,1,1.06,1.06l-1.414,1.414a.252.252,0,0,0,0,.354l1.414,1.414a.75.75,0,1,1-1.06,1.06l-1.414-1.414a.252.252,0,0,0-.354,0l-1.414,1.414a.75.75,0,1,1-1.06-1.06Z"/></svg>