<svg xmlns="http://www.w3.org/2000/svg" viewBox="0 0 24 24"><title>legal-hammer</title><path d="M3,21h8a1,1,0,0,0,1-1V18.5A1.5,1.5,0,0,0,10.5,17h-7A1.5,1.5,0,0,0,2,18.5V20A1,1,0,0,0,3,21Z"/><path d="M23,18a1.623,1.623,0,0,0,0-2.336L16.186,9.531a.25.25,0,0,1-.009-.362L17.94,7.405a.25.25,0,0,1,.327-.023A1.5,1.5,0,0,0,20.226,5.12L15.545.439A1.5,1.5,0,0,0,13.283,2.4a.249.249,0,0,1-.023.326L7.725,8.259a.251.251,0,0,1-.327.024,1.5,1.5,0,0,0-1.959,2.261l4.681,4.681a1.5,1.5,0,0,0,2.262-1.959.249.249,0,0,1,.024-.326l1.763-1.764a.25.25,0,0,1,.363.01L20.667,18A1.624,1.624,0,0,0,23,18Z"/><path d="M12.5,22H1.5a1,1,0,0,0,0,2h11a1,1,0,0,0,0-2Z"/></svg>