<svg xmlns="http://www.w3.org/2000/svg" viewBox="0 0 24 24"><title>legal-judge</title><path d="M11.25,17.462v2a.75.75,0,0,0,1.5,0v-2a.75.75,0,0,0-1.5,0Z"/><path d="M22.482,18.878h0A16.488,16.488,0,0,0,14.2,15.992a.5.5,0,0,0-.522.653l1.283,3.928a1.155,1.155,0,0,1-.247,1.091.863.863,0,0,1-1.2.1,2.633,2.633,0,0,0-3.008,0,.864.864,0,0,1-1.2-.1,1.147,1.147,0,0,1-.253-1.071l1.288-3.948a.5.5,0,0,0-.521-.653,16.477,16.477,0,0,0-8.287,2.886A2.532,2.532,0,0,0,.5,20.918v2.544a.5.5,0,0,0,.5.5H23a.5.5,0,0,0,.5-.5V20.918A2.532,2.532,0,0,0,22.482,18.878Z"/><path d="M10.959,11.368a.75.75,0,0,0-.918,1.187,3.249,3.249,0,0,0,3.918,0,.75.75,0,0,0-.918-1.187A1.863,1.863,0,0,1,10.959,11.368Z"/><path d="M3,10.962a2,2,0,0,0,.755,1.564.249.249,0,0,1,.058.324A2.17,2.17,0,0,0,3.5,13.962a2,2,0,0,0,4,0,.161.161,0,0,1,.28-.109,5.719,5.719,0,0,0,8.44,0,.161.161,0,0,1,.28.109,2,2,0,1,0,4,0,2.17,2.17,0,0,0-.313-1.112.249.249,0,0,1,.058-.324,2,2,0,0,0,.244-2.9.249.249,0,0,1,0-.333,2,2,0,0,0-.918-3.25.251.251,0,0,1-.173-.186A7.576,7.576,0,0,0,13.071.043a.5.5,0,0,0-.4.118A.5.5,0,0,0,12.5.538V5.862a.5.5,0,0,0,.167.374,5.777,5.777,0,0,0,3.354,1.451.25.25,0,0,1,.229.25V9.962a4.25,4.25,0,0,1-8.5,0V7.937a.251.251,0,0,1,.229-.25,5.777,5.777,0,0,0,3.354-1.451.5.5,0,0,0,.167-.374V.538a.5.5,0,0,0-.571-.5A7.576,7.576,0,0,0,4.6,5.859a.251.251,0,0,1-.173.186A2,2,0,0,0,3.511,9.3a.249.249,0,0,1,0,.333A1.992,1.992,0,0,0,3,10.962Z"/><circle cx="14" cy="8.962" r="1"/><circle cx="10" cy="8.962" r="1"/></svg>