<svg xmlns="http://www.w3.org/2000/svg" viewBox="0 0 24 24"><title>legal-scale-unequal</title><path d="M24,10.356a1,1,0,0,0-.086-.388L20.827,3.022a.25.25,0,0,1,.136-.334l.654-.258A1,1,0,0,0,20.883.569L13.342,3.546A.25.25,0,0,1,13,3.314V2a1,1,0,0,0-2,0V4.3a.251.251,0,0,1-.158.233L1.883,8.069A1,1,0,0,0,2.25,10h.04a.25.25,0,0,1,.237.352L.087,15.843A1,1,0,0,0,0,16.231v.019a4.5,4.5,0,0,0,9,0,.745.745,0,0,0-.047-.26,1.007,1.007,0,0,0-.052-.145L5.842,8.936a.256.256,0,0,1,0-.2.251.251,0,0,1,.14-.137l4.679-1.847A.249.249,0,0,1,11,6.988V21.25a.25.25,0,0,1-.25.25H7.581a1,1,0,1,0,0,2h8.811a1,1,0,0,0,0-2H13.25a.25.25,0,0,1-.25-.25V6a.25.25,0,0,1,.158-.232L17.2,4.175a.249.249,0,0,1,.32.333L15.1,9.97a1.007,1.007,0,0,0-.052.145.745.745,0,0,0-.047.26,4.5,4.5,0,0,0,9,0ZM2.813,15.5a.251.251,0,0,1-.228-.352l1.684-3.792a.25.25,0,0,1,.457,0l1.68,3.792a.251.251,0,0,1-.228.352ZM17.822,9.625a.251.251,0,0,1-.228-.352l1.68-3.792a.25.25,0,0,1,.457,0l1.684,3.792a.251.251,0,0,1-.228.352Z"/></svg>