<svg xmlns="http://www.w3.org/2000/svg" viewBox="0 0 24 24"><title>lift</title><path d="M22.5,0H1.5A1.5,1.5,0,0,0,0,1.5v21A1.5,1.5,0,0,0,1.5,24h21A1.5,1.5,0,0,0,24,22.5V1.5A1.5,1.5,0,0,0,22.5,0ZM14.8,2.776A.5.5,0,0,1,15.25,2.5h3a.5.5,0,0,1,.4.8l-1.5,2a.5.5,0,0,1-.8,0l-1.5-2A.5.5,0,0,1,14.8,2.776ZM5.35,4.7l1.5-2a.518.518,0,0,1,.8,0l1.5,2a.5.5,0,0,1-.4.8h-3a.5.5,0,0,1-.4-.8ZM11,21.5a.5.5,0,0,1-.5.5H4a.5.5,0,0,1-.5-.5V9A.5.5,0,0,1,4,8.5h6.5A.5.5,0,0,1,11,9Zm9.5,0a.5.5,0,0,1-.5.5H13.5a.5.5,0,0,1-.5-.5V9a.5.5,0,0,1,.5-.5H20a.5.5,0,0,1,.5.5Z"/></svg>