<svg id="Bold" xmlns="http://www.w3.org/2000/svg" viewBox="0 0 24 24"><title>lion-footprint</title><path d="M14.25,7.158a7.6,7.6,0,0,0-2.97-6.031,4.328,4.328,0,0,0-4.03-.5,4.331,4.331,0,0,0-4.03.5A7.6,7.6,0,0,0,.25,7.158c0,4.857,5.2,8,7,8S14.25,12.015,14.25,7.158ZM9.788,10.2A2.472,2.472,0,0,1,7.25,12.158,2.472,2.472,0,0,1,4.712,10.2,3.851,3.851,0,0,1,2.75,7.1a4.247,4.247,0,0,1,4.5-3.937A4.247,4.247,0,0,1,11.75,7.1,3.851,3.851,0,0,1,9.788,10.2Z"/><path d="M19.375,19.283c-.438-1.313-.875-2.625-2.625-2.625s-2.188,1.312-2.625,2.625c-.277.83-2.188.875-2.188,2.625a1.6,1.6,0,0,0,1.75,1.75c1.313,0,1.75-1.313,3.063-1.313s1.75,1.313,3.062,1.313a1.6,1.6,0,0,0,1.75-1.75C21.562,20.158,19.652,20.113,19.375,19.283Z"/><path d="M13.25,13.6c0,.967.588,1.75,1.312,1.75s1.313-.783,1.313-1.75-.588-1.75-1.313-1.75S13.25,12.629,13.25,13.6Z"/><path d="M11.062,15.783c-.724,0-1.312.783-1.312,1.75s.588,1.75,1.312,1.75,1.313-.784,1.313-1.75S11.787,15.783,11.062,15.783Z"/><path d="M18.937,15.345c.725,0,1.313-.783,1.313-1.75s-.588-1.75-1.313-1.75-1.312.784-1.312,1.75S18.213,15.345,18.937,15.345Z"/><path d="M22.437,15.783c-.724,0-1.312.783-1.312,1.75s.588,1.75,1.312,1.75,1.313-.784,1.313-1.75S23.162,15.783,22.437,15.783Z"/><path d="M7.75,8.908h-1a.75.75,0,0,0,0,1.5h1a.75.75,0,1,0,0-1.5Z"/><circle cx="5" cy="6.908" r="1"/><circle cx="9.5" cy="6.908" r="1"/></svg>