<svg id="Bold" xmlns="http://www.w3.org/2000/svg" viewBox="0 0 24 24"><title>lioness</title><path d="M15.079,21.46A4.565,4.565,0,0,1,12,20.261a4.565,4.565,0,0,1-3.079,1.2c-1,0-.889-.185-.989-.085A4.442,4.442,0,0,0,12,24c2.705,0,4.214-2.477,4.067-2.626C15.968,21.274,16.081,21.46,15.079,21.46Z"/><path d="M19,0a5.492,5.492,0,0,0-3.654,1.39,1.03,1.03,0,0,0-.186.221,9.029,9.029,0,0,0-6.32,0,1.03,1.03,0,0,0-.186-.221A5.492,5.492,0,0,0,5,0C3.76,0,0,.77,0,4.5A5.52,5.52,0,0,0,2.732,9.253a1.01,1.01,0,0,0,.293.113C3.009,9.589,3,11.907,3,11.907,3,14.81,6,15,5.842,16.321v.56A3.08,3.08,0,0,0,11.8,17.988a2,2,0,0,1-1.681-1.323A.5.5,0,0,1,10.585,16h2.83a.5.5,0,0,1,.472.667,2,2,0,0,1-1.682,1.323,3.08,3.08,0,0,0,5.953-1.107v-.56C18.158,15,21,14.812,21,11.907c0,0-.008-2.318-.025-2.541a.989.989,0,0,0,.293-.113A5.52,5.52,0,0,0,24,4.5C24-.029,19.116,0,19,0ZM2.734,6.641a3.5,3.5,0,0,1-.709-2.559,6.443,6.443,0,0,1,1.769.549A10.518,10.518,0,0,0,2.734,6.641ZM8,11.25A1.25,1.25,0,1,1,9.25,10,1.25,1.25,0,0,1,8,11.25Zm8,0A1.25,1.25,0,1,1,17.25,10,1.25,1.25,0,0,1,16,11.25Zm5.267-4.609a10.609,10.609,0,0,0-1.061-2.01,6.433,6.433,0,0,1,1.769-.549A3.508,3.508,0,0,1,21.267,6.641Z"/></svg>