<svg id="Bold" xmlns="http://www.w3.org/2000/svg" viewBox="0 0 24 24"><title>lion</title><path d="M18.581.887A6.271,6.271,0,0,0,12,1.27,6.271,6.271,0,0,0,5.419.887,10.44,10.44,0,0,0,.5,9.615,14.159,14.159,0,0,0,12,23.865,14.159,14.159,0,0,0,23.5,9.615,10.44,10.44,0,0,0,18.581.887ZM12,18.687a3.183,3.183,0,0,0,2.286.727A2.442,2.442,0,0,1,12,20.608a2.448,2.448,0,0,1-2.288-1.194A3.221,3.221,0,0,0,12,18.687Zm4.889-4.548a.5.5,0,0,0-.145.636,2.438,2.438,0,0,1,.324,1.212c0,1.381-1.068,1.932-3.068,1.932a1.851,1.851,0,0,1-1.4-.728.744.744,0,0,0,.147-.444V15.536a2.732,2.732,0,0,0,1.421-1.282.752.752,0,0,0,.057-.517,18.2,18.2,0,0,1-.478-3.818,1.586,1.586,0,0,1,1.75-1.75.75.75,0,0,0,0-1.5,3.081,3.081,0,0,0-3.25,3.25,19.323,19.323,0,0,0,.447,3.855.942.942,0,0,1-.7.4.944.944,0,0,1-.7-.394,19.325,19.325,0,0,0,.447-3.856A3.081,3.081,0,0,0,8.5,6.669a.75.75,0,0,0,0,1.5,1.586,1.586,0,0,1,1.75,1.75,18.276,18.276,0,0,1-.478,3.818.752.752,0,0,0,.057.517,2.732,2.732,0,0,0,1.421,1.282v1.211a.744.744,0,0,0,.147.444,1.851,1.851,0,0,1-1.4.728c-2,0-3.068-.551-3.068-1.932a2.438,2.438,0,0,1,.324-1.212.5.5,0,0,0-.145-.636C5.31,12.687,5,10,5,8.419a4,4,0,0,1,4-4,3.945,3.945,0,0,1,2.666,1.039.506.506,0,0,0,.668,0A3.945,3.945,0,0,1,15,4.419a4,4,0,0,1,4,4C19,10,18.69,12.687,16.889,14.139Z"/><circle cx="8.218" cy="10.108" r="1"/><circle cx="15.968" cy="10.108" r="1"/></svg>