<svg id="Bold" xmlns="http://www.w3.org/2000/svg" viewBox="0 0 24 24"><title>livestock-ram</title><path d="M21.5,8.375S15.25.875,11.25.875C8.684.875,7.581,3.07,7.316,4.644A5.285,5.285,0,0,0,0,9.519a1,1,0,0,0,2,0A3.279,3.279,0,0,1,7.864,7.5l.037.044A2.753,2.753,0,0,0,10.25,8.875a4.012,4.012,0,0,0,1.982-.45,1.211,1.211,0,0,0,.518-.95,1.344,1.344,0,0,0-1.5-1.5.5.5,0,0,1,0-1,2.324,2.324,0,0,1,2.5,2.5,2.385,2.385,0,0,1-1.5,2.1v2.8c0,1.726,1.191,2.26,2.751,2.426a3.6,3.6,0,0,1,.353,2.994,2.258,2.258,0,0,1-2.777,1.033,1,1,0,0,0-1.334.667A2.213,2.213,0,0,1,6.9,18.913a1,1,0,0,0-2,0,4.213,4.213,0,0,0,7.9,2.029,4.255,4.255,0,0,0,4.326-2.221,4.343,4.343,0,0,0,.051-3.846H21c1.5,0,3,0,3-1.5S23.5,10.375,21.5,8.375Zm-3.25,1.5a1,1,0,1,1,1-1A1,1,0,0,1,18.25,9.878Z"/></svg>