<svg id="Bold" xmlns="http://www.w3.org/2000/svg" viewBox="0 0 24 24"><title>livestock-lamb</title><path d="M23.688,9.2l-2.12-3.323a6.484,6.484,0,0,0-5.9-3.753A5.97,5.97,0,0,0,12.4,3.1a4.511,4.511,0,0,0-6.217-.427A4.525,4.525,0,0,0,1.067,7.125c0,.057,0,.112,0,.168a4.5,4.5,0,0,0,0,5.664,4.462,4.462,0,0,0,1.292,3.3,1.227,1.227,0,0,0-.044.329v4.535a1.25,1.25,0,0,0,2.5,0V17.556a4.473,4.473,0,0,0,1.369.026,4.5,4.5,0,0,0,5.761,0c.124.017.247.028.37.035v3.508a1.25,1.25,0,0,0,2.5,0v-4.1A4.487,4.487,0,0,0,16.7,14.893a8.379,8.379,0,0,0,2.857-2.15c.52.2.511.283.969.283a3.489,3.489,0,0,0,3.039-2.052A1.5,1.5,0,0,0,23.688,9.2ZM7.894,10.456a.5.5,0,0,1,.054-.591L9.675,7.923a6.672,6.672,0,0,0,1.442,4A2.843,2.843,0,0,1,7.894,10.456Zm7.777,2.669c-.8,0-4-2.667-4-5a4,4,0,0,1,8,0C19.671,10.458,16.472,13.125,15.671,13.125ZM20.26,11.33a8.586,8.586,0,0,0,.893-2.2l1.108,1.248A2.11,2.11,0,0,1,20.26,11.33Z"/><circle cx="14.067" cy="8.623" r="1"/><circle cx="17.067" cy="8.623" r="1"/></svg>