<svg id="Bold" xmlns="http://www.w3.org/2000/svg" viewBox="0 0 24 24"><title>livestock-cow</title><path d="M21.716,7.685a4.894,4.894,0,0,0-1.225-.529,7.532,7.532,0,0,0,1.333-2.667A5.375,5.375,0,0,0,21.3.659,1.163,1.163,0,0,0,20.269.04h-.034a1.152,1.152,0,0,0-1.022.675c-.75,1.643-2.613,2.551-2.754,2.4A2,2,0,0,0,14.608,2.5a2.978,2.978,0,0,0-5.216,0,2,2,0,0,0-1.851.614A4.373,4.373,0,0,1,4.784.716,1.149,1.149,0,0,0,3.764.041,1.1,1.1,0,0,0,2.7.66a5.369,5.369,0,0,0-.523,3.829A7.522,7.522,0,0,0,3.507,7.156a4.955,4.955,0,0,0-1.223.529C-.5,9.356.032,11.639.056,11.735A.5.5,0,0,0,.42,12.1a9.592,9.592,0,0,0,4.353-.029,29.919,29.919,0,0,0,.76,3.713,1.009,1.009,0,0,0-.575,1.261,39.015,39.015,0,0,0,1.765,4.3,4.687,4.687,0,0,0,4.192,2.623H13.1a4.687,4.687,0,0,0,4.192-2.626,36.879,36.879,0,0,0,1.754-4.3,1.026,1.026,0,0,0-.577-1.253,30.117,30.117,0,0,0,.76-3.714,9.576,9.576,0,0,0,4.353.029.5.5,0,0,0,.364-.364C23.968,11.639,24.5,9.356,21.716,7.685ZM7.146,17.228a14.321,14.321,0,0,1,9.711.007,35.024,35.024,0,0,1-1.367,3.231,2.675,2.675,0,0,1-2.392,1.5H10.915a2.677,2.677,0,0,1-2.392-1.5C8.014,19.411,7.552,18.325,7.146,17.228Zm2.1-6.886A1.25,1.25,0,1,1,8,11.592,1.25,1.25,0,0,1,9.25,10.342ZM16,11.592a1.25,1.25,0,1,1-1.25-1.25A1.25,1.25,0,0,1,16,11.592Z"/><path d="M10.5,17.842a.75.75,0,0,0-.75.75v1a.75.75,0,0,0,1.5,0v-1A.75.75,0,0,0,10.5,17.842Z"/><path d="M13.5,17.842a.75.75,0,0,0-.75.75v1a.75.75,0,0,0,1.5,0v-1A.75.75,0,0,0,13.5,17.842Z"/></svg>