<svg id="Bold" xmlns="http://www.w3.org/2000/svg" viewBox="0 0 24 24"><title>locker-room-key</title><path d="M21.5,3H2.5A2.5,2.5,0,0,0,0,5.5v1A.5.5,0,0,0,.5,7h23a.5.5,0,0,0,.5-.5v-1A2.5,2.5,0,0,0,21.5,3Z"/><path d="M23.5,8.5H.5A.5.5,0,0,0,0,9v9.5A2.5,2.5,0,0,0,2.5,21h19A2.5,2.5,0,0,0,24,18.5V9A.5.5,0,0,0,23.5,8.5Zm-3.854,6.354-1,1a.5.5,0,0,1-.353.146H12.532a.5.5,0,0,0-.448.278,4,4,0,1,1,0-3.556.5.5,0,0,0,.448.278h5.761a.5.5,0,0,1,.353.146l1,1A.5.5,0,0,1,19.646,14.854Z"/><circle cx="8.5" cy="14.5" r="1.5"/></svg>