<svg id="Bold" xmlns="http://www.w3.org/2000/svg" viewBox="0 0 24 24"><title>locker-room-suitcase-key-1</title><path d="M16.25,13a.5.5,0,0,1-.5-.5V11.25a2,2,0,0,0-2-2h-3.5a2,2,0,0,0-2,2V12.5a.5.5,0,0,1-.5.5.5.5,0,0,0-.5.5v10a.5.5,0,0,0,.5.5h8.5a.5.5,0,0,0,.5-.5v-10A.5.5,0,0,0,16.25,13Zm-2.5-.5a.5.5,0,0,1-.5.5h-2.5a.5.5,0,0,1-.5-.5v-.75a.5.5,0,0,1,.5-.5h2.5a.5.5,0,0,1,.5.5Z"/><path d="M19.5,13h-.75a.5.5,0,0,0-.5.5v10a.5.5,0,0,0,.5.5h.75A1.5,1.5,0,0,0,21,22.5v-8A1.5,1.5,0,0,0,19.5,13Z"/><path d="M5.25,13H4.5A1.5,1.5,0,0,0,3,14.5v8A1.5,1.5,0,0,0,4.5,24h.75a.5.5,0,0,0,.5-.5v-10A.5.5,0,0,0,5.25,13Z"/><path d="M19.354,4.146l-1.5-1.5A.5.5,0,0,0,17.5,2.5H11.532a4.5,4.5,0,1,0,0,4H17.5a.5.5,0,0,0,.354-.146l1.5-1.5A.5.5,0,0,0,19.354,4.146ZM7.5,6.5a2,2,0,1,1,2-2A2,2,0,0,1,7.5,6.5Z"/></svg>