<svg xmlns="http://www.w3.org/2000/svg" viewBox="0 0 24 24"><title>love-gift-diamond</title><path d="M16.46,8.959a.25.25,0,0,0,.259.021l3.144-1.571a.25.25,0,0,0,.034-.427L13.651,2.5a.25.25,0,0,0-.4.2V6.5a.248.248,0,0,0,.1.2Z"/><path d="M17.25,10.546v2.76a.249.249,0,0,0,.138.223l3.25,1.625A.25.25,0,0,0,21,14.931V8.921a.25.25,0,0,0-.362-.223l-3.25,1.625A.249.249,0,0,0,17.25,10.546Z"/><path d="M15.75,13.575v-3.15a.249.249,0,0,0-.1-.2l-3-2.187a.249.249,0,0,0-.294,0l-3,2.187a.249.249,0,0,0-.1.2v3.15a.249.249,0,0,0,.1.2l3,2.187a.249.249,0,0,0,.294,0l3-2.187A.249.249,0,0,0,15.75,13.575Z"/><path d="M7.75,13.4V10.542a.249.249,0,0,0-.138-.224L4.362,8.693A.25.25,0,0,0,4,8.917V14.94a.247.247,0,0,0,.354.228c.793-.385,2.685-1.3,3.242-1.539A.251.251,0,0,0,7.75,13.4Z"/><path d="M5.141,7.406,8.285,8.978a.248.248,0,0,0,.258-.022l3.109-2.267a.249.249,0,0,0,.1-.2V2.7a.25.25,0,0,0-.4-.2L5.107,6.979A.25.25,0,0,0,5.141,7.406Z"/><path d="M19.984,16.5l-3.145-1.572a.248.248,0,0,0-.259.022L13.358,17.3a.248.248,0,0,0-.1.2v3.788a.25.25,0,0,0,.4.2l6.367-4.565A.25.25,0,0,0,19.984,16.5Z"/><path d="M8.388,14.931a.249.249,0,0,0-.266-.018c-.514.275-2.329,1.2-3.11,1.6a.248.248,0,0,0-.028.424l6.375,4.57a.25.25,0,0,0,.4-.2V17.513a.249.249,0,0,0-.1-.2Z"/><path d="M23,20.25H22a.25.25,0,0,1-.25-.25V19a.75.75,0,0,0-1.5,0v1a.25.25,0,0,1-.25.25H19a.75.75,0,0,0,0,1.5h1a.25.25,0,0,1,.25.25v1a.75.75,0,0,0,1.5,0V22a.25.25,0,0,1,.25-.25h1a.75.75,0,0,0,0-1.5Z"/><path d="M5,3.75a.75.75,0,0,0,0-1.5H4A.25.25,0,0,1,3.75,2V1a.75.75,0,0,0-1.5,0V2A.25.25,0,0,1,2,2.25H1a.75.75,0,0,0,0,1.5H2A.25.25,0,0,1,2.25,4V5a.75.75,0,0,0,1.5,0V4A.25.25,0,0,1,4,3.75Z"/></svg>