<svg xmlns="http://www.w3.org/2000/svg" viewBox="0 0 24 24"><title>love-plant</title><path d="M11.263,11.218a1.012,1.012,0,0,0,1.46,0h0l4.862-5.071a3.6,3.6,0,0,0-1.969-6.1A3.562,3.562,0,0,0,12.5,1.056a.71.71,0,0,1-1,0,3.6,3.6,0,0,0-5.764.936,3.592,3.592,0,0,0,.667,4.146Zm-4.136-8.4A2.309,2.309,0,0,1,8.845,1.565a.5.5,0,0,1,.15.988,1.292,1.292,0,0,0-.973.708A1.305,1.305,0,0,0,8,4.391a.5.5,0,1,1-.909.416A2.3,2.3,0,0,1,7.127,2.814Z"/><path d="M21.141,10.968a.25.25,0,0,1-.35-.267c.349-2.167-2.133-3.025-3.433-1.321-.982,1.286-.4,4.331-.088,5.623a.65.65,0,0,0,.651.5c1.33-.039,4.419-.283,5.4-1.568C24.622,12.228,23.14,10.06,21.141,10.968Z"/><path d="M7.183,11.058C5.766,9.2,3.056,10.15,3.468,12.525a.25.25,0,0,1-.353.269C.933,11.771-.7,14.134.72,15.991c1.063,1.393,4.411,1.657,5.852,1.7a.7.7,0,0,0,.706-.538C7.617,15.752,8.246,12.451,7.183,11.058Z"/><path d="M16.2,15.632a.751.751,0,0,0-1,.134,4.725,4.725,0,0,1-1.865,1.318.249.249,0,0,1-.344-.231v-3.6a.751.751,0,0,0-.75-.75h-.5a.751.751,0,0,0-.75.75v6.185a.249.249,0,0,1-.344.232,4.732,4.732,0,0,1-1.865-1.318.75.75,0,0,0-1-.135l-.413.286a.75.75,0,0,0-.152,1.1,6.873,6.873,0,0,0,3.416,2.186.5.5,0,0,1,.357.479V23a1,1,0,0,0,2,0V19.679a.5.5,0,0,1,.357-.479,6.88,6.88,0,0,0,3.416-2.186.752.752,0,0,0-.151-1.1Z"/></svg>