<svg xmlns="http://www.w3.org/2000/svg" viewBox="0 0 24 24"><title>love-heart-balloon</title><path d="M11.544,12.805a.632.632,0,0,0,.913,0l6.012-6.271a3.827,3.827,0,0,0-5.413-5.412L12,2.178,10.944,1.122A3.827,3.827,0,1,0,5.532,6.534Z"/><path d="M16.5,13a11.666,11.666,0,0,0-4.019,1.576,1,1,0,0,1-.962,0A11.643,11.643,0,0,0,7.5,13a3,3,0,0,0,0,6,3.452,3.452,0,0,0,.966-.183.25.25,0,0,1,.262.4l-.98,1.121a1,1,0,1,0,1.5,1.316l1.31-1.5a.25.25,0,0,1,.438.164V23a1,1,0,0,0,2,0V20.326a.25.25,0,0,1,.438-.164l1.31,1.5a1,1,0,1,0,1.5-1.316l-.981-1.121a.251.251,0,0,1,.263-.4A3.452,3.452,0,0,0,16.5,19a3,3,0,0,0,0-6ZM9.48,16.224A7.741,7.741,0,0,1,7.5,17a1,1,0,0,1,0-2,7.729,7.729,0,0,1,1.981.776.25.25,0,0,1,0,.448ZM16.5,17a7.729,7.729,0,0,1-1.981-.776.249.249,0,0,1,0-.448A7.741,7.741,0,0,1,16.5,15a1,1,0,0,1,0,2Z"/></svg>