<svg xmlns="http://www.w3.org/2000/svg" viewBox="0 0 24 24"><title>love-boat</title><circle cx="5" cy="14.5" r="2"/><path d="M23,15.5a1,1,0,0,0-1,1v1a.5.5,0,0,1-.5.5h-.522a.5.5,0,0,1-.5-.455A5,5,0,0,0,15.5,13h-6a1,1,0,0,0-1,1v3.5A.5.5,0,0,1,8,18H2.5a.5.5,0,0,1-.5-.5V11a1,1,0,0,0-2,0V23a1,1,0,0,0,2,0V21.5a.5.5,0,0,1,.5-.5h19a.5.5,0,0,1,.5.5V23a1,1,0,0,0,2,0V16.5A1,1,0,0,0,23,15.5Z"/><path d="M17.011,6.864a.452.452,0,0,0,.646,0L20.885,3.54a2.055,2.055,0,0,0,.393-2.394A2.115,2.115,0,0,0,17.914.608l-.243.221a.5.5,0,0,1-.674,0L16.754.608a2.115,2.115,0,0,0-3.364.538,2.054,2.054,0,0,0,.393,2.394Z"/><path d="M11.1,10.938a.292.292,0,0,0,.418,0L13.6,8.789a1.328,1.328,0,0,0,.255-1.548,1.369,1.369,0,0,0-2.176-.348.557.557,0,0,1-.75,0,1.368,1.368,0,0,0-2.175.348A1.328,1.328,0,0,0,9.01,8.789Z"/></svg>