<svg xmlns="http://www.w3.org/2000/svg" viewBox="0 0 24 24"><title>love-arrow-bow</title><path d="M23.707,12.707a1,1,0,0,0,0-1.414L21.414,9a1,1,0,0,0-1.707.707V10.75a.5.5,0,0,1-.5.5H3.3a.25.25,0,0,1-.2-.4L8.183,3.972a.5.5,0,0,1,.5-.192,7.506,7.506,0,0,1,6.229,5.591.5.5,0,0,0,.482.371h1.514a.5.5,0,0,0,.486-.621A9.691,9.691,0,0,0,8.531,1.527C8.072,1.5,7.75,1.186,7.75.5a.5.5,0,0,0-.5-.5h-1a.5.5,0,0,0-.5.5V1.752a1.8,1.8,0,0,0,.355,1.075.5.5,0,0,1,0,.594L.2,11.405a1,1,0,0,0,0,1.19L6.1,20.58a.5.5,0,0,1,0,.593,1.8,1.8,0,0,0-.355,1.075V23.5a.5.5,0,0,0,.5.5h1a.5.5,0,0,0,.5-.5c0-.686.322-1,.781-1.027,5.156-.363,8.664-4.288,9.152-9.272a.5.5,0,0,1,.5-.451h1.026a.5.5,0,0,1,.5.5v1.043A1,1,0,0,0,21.414,15ZM8.684,20.218a.5.5,0,0,1-.5-.193L3.094,13.149a.25.25,0,0,1,.2-.4H14.674a.5.5,0,0,1,.5.561A7.592,7.592,0,0,1,8.684,20.218Z"/></svg>