<svg xmlns="http://www.w3.org/2000/svg" viewBox="0 0 24 24"><title>love-heart-hold</title><path d="M23.853,21.808,22.073,18.9A.5.5,0,0,1,22,18.641V14.505c0-1.773-1.708-3.069-3.517-4.441a.508.508,0,0,1-.058-.759,4.953,4.953,0,0,0,1.069-5.88A5.084,5.084,0,0,0,11.407,2.13l-1.057.963a.5.5,0,0,1-.674,0L8.62,2.13a5.084,5.084,0,0,0-8.086,1.3,4.934,4.934,0,0,0,.945,5.753l7.759,7.988a1.08,1.08,0,0,0,1.55,0,.64.64,0,0,0,.146-.656,3.624,3.624,0,0,1-.2-1.385,3.747,3.747,0,0,1,4.916-3.366.5.5,0,0,0,.516-.127l.15-.153a.5.5,0,0,1,.662-.049l.3.227C18.487,12.579,20,13.725,20,14.505v4.559a1,1,0,0,0,.147.522l2,3.267a1,1,0,0,0,1.706-1.045Z"/><path d="M16.1,13.576a2.378,2.378,0,0,0-3.371,3.349L14.349,18.7a.5.5,0,0,1,.131.337v1.027c0,1.3,1.516,2.589,1.98,2.952a.875.875,0,0,0,1.081-1.377,3.871,3.871,0,0,1-1.311-1.575V18.506A.878.878,0,0,0,16,17.915l-1.985-2.171a.628.628,0,0,1,.89-.884l2.015,1.864a.875.875,0,0,0,1.188-1.285Z"/></svg>