<svg xmlns="http://www.w3.org/2000/svg" viewBox="0 0 24 24"><title>love-gift-flowers</title><path d="M5,5.442A.5.5,0,0,0,5.442,5c.12-1.044.3-3.549-.618-4.465A1.5,1.5,0,0,0,2.2,1.9a.251.251,0,0,1-.3.3A1.5,1.5,0,0,0,.538,4.824C1.455,5.74,3.96,5.562,5,5.442Z"/><path d="M23.712,19.645l-3.436-2.074a.5.5,0,0,0-.656.126A9.445,9.445,0,0,1,17.7,19.619a.5.5,0,0,0-.127.657l2.074,3.436a.541.541,0,0,0,.833.151l1.693-1.692,1.692-1.693A.541.541,0,0,0,23.712,19.645Z"/><path d="M17.7,5.324h0l-.3-.3a1.353,1.353,0,0,0-.963-.4h0a1.364,1.364,0,0,0-.965.4L5.022,15.462a1.368,1.368,0,0,0,0,1.932l.306.305a8.65,8.65,0,0,0,6.141,2.536A8.756,8.756,0,0,0,17.7,5.324Z"/><path d="M7.121,10.568c-.364-.985-1.338-3.3-2.569-3.7a1.5,1.5,0,0,0-1.724,2.4.249.249,0,0,1-.133.409,1.5,1.5,0,0,0-.029,2.953c1.231.4,3.385-.887,4.261-1.465A.5.5,0,0,0,7.121,10.568Z"/><path d="M10.568,7.121a.5.5,0,0,0,.591-.194c.578-.876,1.868-3.03,1.465-4.261A1.5,1.5,0,0,0,9.671,2.7a.249.249,0,0,1-.409.133,1.5,1.5,0,0,0-2.4,1.724C7.268,5.783,9.583,6.757,10.568,7.121Z"/></svg>