<svg xmlns="http://www.w3.org/2000/svg" viewBox="0 0 24 24"><title>love-gift-chocolate-box</title><path d="M23.343,10.154l0,0-9.849,7a2.572,2.572,0,0,1-2.977,0L.7,10.18l0,0C.6,10.112.5,10.046.415,9.977a.25.25,0,0,0-.4.2v1.513a4.884,4.884,0,0,0,2.053,3.975l9.328,6.625a1.048,1.048,0,0,0,1.212,0l9.328-6.625a4.884,4.884,0,0,0,2.053-3.975V10.178a.251.251,0,0,0-.4-.2C23.507,10.039,23.426,10.1,23.343,10.154Z"/><path d="M23.311,3.791A6.745,6.745,0,0,0,17.9,1.518,6.639,6.639,0,0,0,12.211,4.19a.25.25,0,0,1-.421,0A6.642,6.642,0,0,0,6.1,1.518,6.742,6.742,0,0,0,.689,3.791C-1.123,6.26,1.323,8.173,1.82,8.526l9.85,7a.571.571,0,0,0,.66,0l9.854-7C24.017,7.276,24.47,5.37,23.311,3.791Z"/></svg>