<svg xmlns="http://www.w3.org/2000/svg" viewBox="0 0 24 24"><title>love-heart-balloons</title><path d="M9.614,17.936a1.856,1.856,0,0,1-.616.11,1.906,1.906,0,0,1-.711-.142.25.25,0,0,0-.342.212c-.14,1.754-.5,3.52-1.154,4.177a1,1,0,1,0,1.414,1.414c1.181-1.181,1.6-3.6,1.742-5.517a.25.25,0,0,0-.333-.254Z"/><path d="M22.881,12.042a2.725,2.725,0,0,0-2.546-.463.469.469,0,0,1-.584-.3,2.717,2.717,0,0,0-1.057-1.394.5.5,0,0,0-.7.149,22.448,22.448,0,0,1-3.725,4.34.5.5,0,0,0-.146.481,19.62,19.62,0,0,0,1.652,4.277.5.5,0,0,0,.439.262.444.444,0,0,0,.063,0c.244-.03,5.99-.78,7.3-3.321A3.14,3.14,0,0,0,22.881,12.042Z"/><path d="M13.936.087A4.549,4.549,0,0,0,9.394,1.852a.5.5,0,0,1-.788,0A4.55,4.55,0,0,0,4.064.087,5.227,5.227,0,0,0,0,5.549c0,4.9,8.362,10.67,8.718,10.913a.5.5,0,0,0,.564,0C9.638,16.219,18,10.452,18,5.549A5.227,5.227,0,0,0,13.936.087Z"/></svg>