<svg xmlns="http://www.w3.org/2000/svg" viewBox="0 0 24 24"><title>love-song</title><path d="M20.549,11.991a.5.5,0,0,1-.734-.365,1.7,1.7,0,0,0-3.286-.332c-.679,1.368.546,4.17,1.014,5.144a.489.489,0,0,0,.543.271c1.057-.215,4.033-.933,4.713-2.3A1.7,1.7,0,0,0,20.549,11.991Z"/><path d="M20.67,8.023c.868-.917,3.6-3.99,3.276-5.96a2.192,2.192,0,0,0-4.235-.645.5.5,0,0,1-.84.139,2.192,2.192,0,0,0-3.8,1.969c.324,1.97,3.9,4,5.015,4.594A.488.488,0,0,0,20.67,8.023Z"/><path d="M13.4,5.977a1.5,1.5,0,0,0-1.351-.206l-8,2.666A1.5,1.5,0,0,0,3.027,9.86V18.5a.5.5,0,0,1-.5.5,2.5,2.5,0,1,0,2.5,2.5V15.081a.5.5,0,0,1,.342-.475l6-2a.5.5,0,0,1,.658.474V15.5a.5.5,0,0,1-.5.5,2.5,2.5,0,1,0,2.5,2.5V7.193A1.5,1.5,0,0,0,13.4,5.977ZM12.027,9.919a.5.5,0,0,1-.342.475l-6,2a.5.5,0,0,1-.658-.475V10.581a.5.5,0,0,1,.342-.474l6-2a.5.5,0,0,1,.658.475Z"/></svg>