<svg xmlns="http://www.w3.org/2000/svg" viewBox="0 0 24 24"><title>love-heart-hands-hold-3</title><path d="M20.455,2.49a4.5,4.5,0,0,0-7.212-1.17l-.889.889a.5.5,0,0,1-.707,0l-.89-.889A4.5,4.5,0,1,0,4.389,7.688l6.69,6.979a1.276,1.276,0,0,0,1.842,0l6.69-6.979A4.5,4.5,0,0,0,20.455,2.49Z"/><path d="M4.124,15.836a1.4,1.4,0,0,0-.458,1.823L5,19.876a.5.5,0,0,1-.857.516l-1.352-2.25a2.472,2.472,0,0,1,.125-2.485A.5.5,0,0,0,3,15.381V12.5a1.5,1.5,0,0,0-3,0v5.171a4.5,4.5,0,0,0,.986,2.812L3.65,23.812A.5.5,0,0,0,4.04,24H8a.5.5,0,0,0,.5-.5V20.49a4.492,4.492,0,0,0-.757-2.5C5.856,16.025,5.266,15.074,4.124,15.836Z"/><path d="M22.5,11A1.5,1.5,0,0,0,21,12.5v2.881a.5.5,0,0,0,.084.276,2.472,2.472,0,0,1,.125,2.485l-1.352,2.25A.5.5,0,0,1,19,19.876l1.334-2.217a1.4,1.4,0,0,0-.458-1.823c-1.142-.762-1.732.189-3.619,2.157a4.492,4.492,0,0,0-.757,2.5V23.5a.5.5,0,0,0,.5.5h3.96a.5.5,0,0,0,.39-.188l2.664-3.329A4.5,4.5,0,0,0,24,17.671V12.5A1.5,1.5,0,0,0,22.5,11Z"/></svg>