<svg xmlns="http://www.w3.org/2000/svg" viewBox="0 0 24 24"><title>love-heart-hands-hold-2</title><path d="M15.5,19.5H6.375a.625.625,0,0,1,0-1.25H8.9a1,1,0,0,0,.92-1.395A2.235,2.235,0,0,0,7.764,15.5H3.5A.5.5,0,0,0,3,16v6.5a.5.5,0,0,0,.5.5H14a2.5,2.5,0,0,0,2.5-2.5A1,1,0,0,0,15.5,19.5Z"/><path d="M1,14.5a1,1,0,0,0-1,1V23a1,1,0,0,0,2,0V15.5A1,1,0,0,0,1,14.5Z"/><path d="M20.5,1H10A2.5,2.5,0,0,0,7.5,3.5a1,1,0,0,0,1,1h9.125a.625.625,0,0,1,0,1.25H15.1a1,1,0,0,0-.92,1.395A2.235,2.235,0,0,0,16.236,8.5H20.5A.5.5,0,0,0,21,8V1.5A.5.5,0,0,0,20.5,1Z"/><path d="M23,0a1,1,0,0,0-1,1V8.5a1,1,0,0,0,2,0V1A1,1,0,0,0,23,0Z"/><path d="M12,15.777a.5.5,0,0,0,.361-.153l3.048-3.181a2.017,2.017,0,1,0-2.852-2.852.789.789,0,0,1-1.114,0,2.017,2.017,0,1,0-2.852,2.852l3.048,3.181A.5.5,0,0,0,12,15.777Z"/></svg>