<svg xmlns="http://www.w3.org/2000/svg" viewBox="0 0 24 24"><title>love-heart-ranking</title><path d="M14.854.018a2.822,2.822,0,0,0-2.495,1.02.468.468,0,0,1-.717,0,2.821,2.821,0,0,0-2.5-1.02A3.1,3.1,0,0,0,6.5,3.231c0,2.427,3.423,5.312,4.9,6.44a.981.981,0,0,0,1.208,0c1.472-1.127,4.9-4.013,4.9-6.44A3.1,3.1,0,0,0,14.854.018Z"/><rect x="2" y="10" width="3.5" height="14" rx="1" ry="1"/><rect x="13" y="16" width="3.5" height="8" rx="1" ry="1"/><rect x="18.5" y="10" width="3.5" height="14" rx="1" ry="1"/><rect x="7.5" y="13.5" width="3.5" height="10.5" rx="1" ry="1"/></svg>