<svg xmlns="http://www.w3.org/2000/svg" viewBox="0 0 24 24"><title>love-heart-arrow</title><path d="M7.862,7.2A.5.5,0,0,0,7.9,6.459l-.792-.792a.5.5,0,0,1-.146-.327L6.861,3.5a2.5,2.5,0,0,0-.695-1.6L4.451.15A.5.5,0,0,0,3.6.438L3.3,2.861a.5.5,0,0,1-.434.435L.439,3.6a.5.5,0,0,0-.283.86l1.78,1.686a2.5,2.5,0,0,0,1.594.691l1.836.1a.5.5,0,0,1,.327.146l.778.778A.5.5,0,0,0,7.2,7.837,5.6,5.6,0,0,1,7.862,7.2Z"/><path d="M23.32,20.053a.5.5,0,0,0-.843-.256l-.266.266a.5.5,0,0,1-.707,0l-2.253-2.254a.5.5,0,0,1-.014-.692c1.421-1.544,2.633-3.353,2.633-5.045a4.311,4.311,0,0,0-3.358-4.5,3.741,3.741,0,0,0-3.623,1.292.5.5,0,0,1-.758,0,3.745,3.745,0,0,0-3.622-1.291,4.311,4.311,0,0,0-3.358,4.5c0,4.006,6.789,8.689,7.077,8.887a.507.507,0,0,0,.565,0c.066-.046.478-.333,1.07-.791a.5.5,0,0,0,.047-.75l-1.849-1.849a.75.75,0,0,1,1.06-1.061l4.969,4.969a.5.5,0,0,1,0,.707l-.292.292a.5.5,0,0,0,.255.844l3.349.67a.5.5,0,0,0,.588-.589Z"/></svg>