<svg xmlns="http://www.w3.org/2000/svg" viewBox="0 0 24 24"><title>love-gift-couple-box</title><path d="M22.5,5.624H18.732a.25.25,0,0,1-.2-.4A3.377,3.377,0,0,0,13.4.864a6.919,6.919,0,0,0-1.171,2.1.25.25,0,0,1-.464,0A6.919,6.919,0,0,0,10.6.864,3.377,3.377,0,0,0,5.47,5.228a.25.25,0,0,1-.2.4H1.5A1.5,1.5,0,0,0,0,7.124v2.5a1,1,0,0,0,1,1h.5a.5.5,0,0,1,.5.5v11.5a1.5,1.5,0,0,0,1.5,1.5h17a1.5,1.5,0,0,0,1.5-1.5v-11.5a.5.5,0,0,1,.5-.5H23a1,1,0,0,0,1-1v-2.5A1.5,1.5,0,0,0,22.5,5.624ZM7.234,2.278a1.38,1.38,0,0,1,1.949,0,10.516,10.516,0,0,1,1.211,2.753.25.25,0,0,1-.307.32A10.021,10.021,0,0,1,7.234,4.225,1.38,1.38,0,0,1,7.234,2.278ZM7.75,8.624a2,2,0,1,1-2,2A2,2,0,0,1,7.75,8.624Zm2.75,9.5a.25.25,0,0,1-.25.25H9.662a.5.5,0,0,0-.5.438l-.418,3.344a.249.249,0,0,1-.248.218H7a.249.249,0,0,1-.248-.218l-.418-3.344a.5.5,0,0,0-.5-.438H5.25a.25.25,0,0,1-.25-.25v-2a2.75,2.75,0,0,1,5.5,0Zm7.75-7.5a2,2,0,1,1-2-2A2,2,0,0,1,18.25,10.624ZM13.607,5.03a10.5,10.5,0,0,1,1.21-2.752,1.377,1.377,0,0,1,1.949,1.947A10.029,10.029,0,0,1,13.913,5.35a.25.25,0,0,1-.306-.32ZM19,18.124a.25.25,0,0,1-.25.25h-.588a.5.5,0,0,0-.5.438l-.418,3.344a.249.249,0,0,1-.248.218H15.5a.249.249,0,0,1-.248-.218l-.418-3.344a.5.5,0,0,0-.5-.438H13.75a.25.25,0,0,1-.25-.25v-2a2.75,2.75,0,0,1,5.5,0Z"/></svg>