<svg id="Bold" xmlns="http://www.w3.org/2000/svg" viewBox="0 0 24 24"><title>make-up-mirror</title><path d="M7.457,13.163A15.141,15.141,0,0,1,12,12.5a15.141,15.141,0,0,1,4.543.663.5.5,0,0,0,.486-.107,7.5,7.5,0,1,0-10.058,0A.5.5,0,0,0,7.457,13.163Z"/><path d="M12,14c-4.767,0-8.5,2.2-8.5,5s3.733,5,8.5,5,8.5-2.2,8.5-5S16.767,14,12,14Zm0,8c-3.706,0-6.5-1.29-6.5-3s2.794-3,6.5-3,6.5,1.29,6.5,3S15.706,22,12,22Z"/><path d="M13.3,17.062a.5.5,0,0,0-.415.156,6.94,6.94,0,0,0-1.7,3.165.5.5,0,0,0,.476.613c3.249.076,5.835-1,5.835-2C17.5,18.234,15.837,17.309,13.3,17.062Z"/></svg>