<svg id="Bold" xmlns="http://www.w3.org/2000/svg" viewBox="0 0 24 24"><title>make-up-hand-mirror</title><path d="M21.222,2.777A9.493,9.493,0,0,0,5.776,13.208a.5.5,0,0,1-.136.578L1.318,17.443a3.717,3.717,0,1,0,5.238,5.239l3.657-4.322a.5.5,0,0,1,.579-.137A9.493,9.493,0,0,0,21.222,2.777ZM4.976,21.144a1.5,1.5,0,1,1-1.061-2.56h0a1.5,1.5,0,0,1,1.06,2.56ZM19.1,14.08a6.493,6.493,0,1,1,0-9.183A6.493,6.493,0,0,1,19.1,14.08Z"/><path d="M15.938,4.854A5.64,5.64,0,0,0,10.893,6.4a1,1,0,1,0,1.414,1.414,3.662,3.662,0,0,1,3.258-1,1,1,0,1,0,.373-1.964Z"/></svg>