<svg id="Bold" xmlns="http://www.w3.org/2000/svg" viewBox="0 0 24 24"><title>make-up-brush-set</title><path d="M24,2.5A2.5,2.5,0,0,0,21.5,0H2.5A2.5,2.5,0,0,0,0,2.5v19A2.5,2.5,0,0,0,2.5,24h19A2.5,2.5,0,0,0,24,21.5ZM6.5,20a1.5,1.5,0,0,1-3,0V10.5A.5.5,0,0,1,4,10H6a.5.5,0,0,1,.5.5ZM6.614,8.158A.5.5,0,0,1,6.14,8.5H3.86a.5.5,0,0,1-.474-.342L2,4c0-.653,1.5-1.48,3-1.48S8,3.347,8,4ZM14.5,20.666a.833.833,0,0,1-.833.834H10.833A.833.833,0,0,1,10,20.666V17.832A.833.833,0,0,1,10.833,17h2.834a.833.833,0,0,1,.833.832Zm0-7a.833.833,0,0,1-.833.834H10.833A.833.833,0,0,1,10,13.666V10.832A.833.833,0,0,1,10.833,10h2.834a.833.833,0,0,1,.833.832Zm0-7a.833.833,0,0,1-.833.834H10.833A.833.833,0,0,1,10,6.666V3.832A.833.833,0,0,1,10.833,3h2.834a.833.833,0,0,1,.833.832Zm7,14a.833.833,0,0,1-.833.834H17.833A.833.833,0,0,1,17,20.666V17.832A.833.833,0,0,1,17.833,17h2.834a.833.833,0,0,1,.833.832Zm0-7a.833.833,0,0,1-.833.834H17.833A.833.833,0,0,1,17,13.666V10.832A.833.833,0,0,1,17.833,10h2.834a.833.833,0,0,1,.833.832Zm0-7a.833.833,0,0,1-.833.834H17.833A.833.833,0,0,1,17,6.666V3.832A.833.833,0,0,1,17.833,3h2.834a.833.833,0,0,1,.833.832Z"/></svg>