<svg id="Bold" xmlns="http://www.w3.org/2000/svg" viewBox="0 0 24 24"><title>make-up-lipstick</title><path d="M7.963,11.79a.991.991,0,0,0-.707-.293h0a.989.989,0,0,0-.7.293l-4.7,4.7a1.5,1.5,0,0,0,0,2.121l4.95,4.95A1.485,1.485,0,0,0,7.859,24h0a1.491,1.491,0,0,0,1.061-.439l4.7-4.7a1,1,0,0,0,0-1.414Z"/><path d="M21.66.112a1.5,1.5,0,0,0-1.63.33l-5.906,5.9a.5.5,0,0,1-.381.145A.966.966,0,0,0,13,6.763L9.109,10.652a.5.5,0,0,0,0,.707l4.95,4.95a.5.5,0,0,0,.707,0l3.889-3.89a.959.959,0,0,0,.277-.75.5.5,0,0,1,.146-.384L22,8.362a2.005,2.005,0,0,0,.59-1.409V1.5A1.516,1.516,0,0,0,21.66.112Zm-8.1,9.333-1.414,1.414a.5.5,0,1,1-.707-.707l1.414-1.414a.5.5,0,1,1,.707.707Zm7.031-2.7a.5.5,0,0,1-.146.353L17.95,9.593a.5.5,0,0,1-.707,0L15.825,8.175a.5.5,0,0,1-.146-.353.5.5,0,0,1,.147-.354l3.911-3.9a.5.5,0,0,1,.853.354Z"/></svg>