<svg id="Bold" xmlns="http://www.w3.org/2000/svg" viewBox="0 0 24 24"><title>make-up-mascara</title><path d="M19.035,5.371a.5.5,0,0,1-.285-.452V4A1.252,1.252,0,0,0,17.5,2.75h-2A1.252,1.252,0,0,0,14.25,4v.919a.5.5,0,0,1-.285.452A1.251,1.251,0,0,0,13.25,6.5V20.75a3.25,3.25,0,0,0,6.5,0V6.5A1.25,1.25,0,0,0,19.035,5.371Z"/><path d="M8.75,3.885h.5a1,1,0,0,0,0-2h-.5a.5.5,0,0,1-.5-.5V1a1,1,0,0,0-2,0v.385a.5.5,0,0,1-.5.5h-.5a1,1,0,0,0,0,2h.5a.5.5,0,0,1,.5.5v.5a.5.5,0,0,1-.5.5h-.5a1,1,0,0,0,0,2h.5a.5.5,0,0,1,.5.5v.5a.5.5,0,0,1-.5.5h-.5a1,1,0,0,0,0,2h.5a.5.5,0,0,1,.5.5V12.5a.5.5,0,0,1-.5.5,1.252,1.252,0,0,0-1.25,1.25V15a.5.5,0,0,0,.5.5H9.5A.5.5,0,0,0,10,15v-.751A1.252,1.252,0,0,0,8.75,13a.5.5,0,0,1-.5-.5V11.385a.5.5,0,0,1,.5-.5h.5a1,1,0,0,0,0-2h-.5a.5.5,0,0,1-.5-.5v-.5a.5.5,0,0,1,.5-.5h.5a1,1,0,0,0,0-2h-.5a.5.5,0,0,1-.5-.5v-.5A.5.5,0,0,1,8.75,3.885Z"/><path d="M9.5,16.5H5a.5.5,0,0,0-.5.5v4.25a2.75,2.75,0,0,0,5.5,0V17A.5.5,0,0,0,9.5,16.5Z"/></svg>