<svg xmlns="http://www.w3.org/2000/svg" viewBox="0 0 24 24"><title>maps-search</title><path d="M10.824,19.868a1,1,0,0,0-1.394-.233L9.4,19.66a.25.25,0,0,1-.395-.2V6.657a.5.5,0,0,1,.209-.407l4.4-3.139a.25.25,0,0,1,.395.2V9a1,1,0,0,0,2,0V3.314a.25.25,0,0,1,.395-.2l4.4,3.139A.5.5,0,0,1,21,6.657v4.479a1,1,0,0,0,2,0V6.143a1.506,1.506,0,0,0-.628-1.221L15.872.279a1.5,1.5,0,0,0-1.744,0l-5.8,4.145a.5.5,0,0,1-.6-.011L2.427.321A1.5,1.5,0,0,0,0,1.5V16.386a1.505,1.505,0,0,0,.6,1.2l6.506,4.882a1.5,1.5,0,0,0,1.772.019l1.713-1.223A1,1,0,0,0,10.824,19.868ZM2,3.027a.25.25,0,0,1,.4-.2l4.4,3.4a.5.5,0,0,1,.2.4V19.386a.25.25,0,0,1-.4.2l-4.4-3.3a.5.5,0,0,1-.2-.4Z"/><path d="M23.707,23.707a1,1,0,0,0,0-1.414L21.313,19.9a.5.5,0,0,1-.077-.608,5.509,5.509,0,1,0-1.946,1.946.5.5,0,0,1,.608.076l2.395,2.395a1,1,0,0,0,1.414,0ZM13,16.5A3.5,3.5,0,1,1,16.5,20,3.5,3.5,0,0,1,13,16.5Z"/></svg>