<svg xmlns="http://www.w3.org/2000/svg" viewBox="0 0 24 24"><title>maps-pin-2</title><path d="M24,12.1a1,1,0,0,0-.713-.958l-7-2.1a1,1,0,0,0-1.245.671.964.964,0,0,0-.026.287.016.016,0,0,0-.016.016V19.83a.5.5,0,0,1-.378.485l-5,1.252A.5.5,0,0,1,9,21.082V12.017A.018.018,0,0,0,8.983,12a.988.988,0,0,0-.708-.962l-7-2A1,1,0,0,0,0,10V20.9a1,1,0,0,0,.713.958l7,2.1a1.068,1.068,0,0,0,.516.015l7.617-1.908a.5.5,0,0,1,.259,0l6.62,1.891A1,1,0,0,0,24,23ZM2,11.989a.5.5,0,0,1,.637-.481l4,1.142A.5.5,0,0,1,7,13.131v7.853a.5.5,0,0,1-.644.479l-4-1.2A.5.5,0,0,1,2,19.786Zm20,9.022a.5.5,0,0,1-.637.481l-4-1.143A.5.5,0,0,1,17,19.868V12.015a.5.5,0,0,1,.644-.479l4,1.2a.5.5,0,0,1,.356.479Z"/><path d="M11,6.837V17.25a1,1,0,0,0,2,0V6.837a3.5,3.5,0,1,0-2,0Z"/></svg>