<svg xmlns="http://www.w3.org/2000/svg" viewBox="0 0 24 24"><title>maps-mark</title><path d="M23.109,3.21a1.5,1.5,0,0,0-1.891-1.367L17.076,2.962a.255.255,0,0,1-.137,0L12.144,1.521a.5.5,0,0,0-.288,0L7.061,2.96a.255.255,0,0,1-.137,0L2.784,1.843A1.5,1.5,0,0,0,.891,3.21L0,19.649a1.5,1.5,0,0,0,1.135,1.537h0l5.243,1.3a.5.5,0,0,0,.251,0l5.3-1.447a.247.247,0,0,1,.132,0l5.3,1.447a.5.5,0,0,0,.251,0l5.243-1.3h0A1.5,1.5,0,0,0,24,19.649ZM3.777,13.88a4.411,4.411,0,0,0-.806.291.763.763,0,0,1-.32.071.75.75,0,0,1-.321-1.428,5.982,5.982,0,0,1,1.078-.388.75.75,0,0,1,.369,1.454Zm5.008-.048A.75.75,0,0,1,7.752,14.92a4.282,4.282,0,0,0-1.624-.964.75.75,0,1,1,.46-1.428A5.786,5.786,0,0,1,8.785,13.832ZM12.532,17.4a3.366,3.366,0,0,1-2.78-.318.751.751,0,0,1,.776-1.285,1.861,1.861,0,0,0,1.538.177.75.75,0,0,1,.466,1.426Zm3.044-2.851-.64.769a.75.75,0,0,1-1.152-.96l.64-.769a.75.75,0,1,1,1.152.96ZM21.03,10.47a.75.75,0,1,1-1.06,1.06l-1.293-1.293a.252.252,0,0,0-.354,0L17.03,11.53a.75.75,0,1,1-1.06-1.06l1.293-1.293a.252.252,0,0,0,0-.354L15.97,7.53a.75.75,0,1,1,1.06-1.06l1.293,1.293a.252.252,0,0,0,.354,0L19.97,6.47a.75.75,0,0,1,1.06,1.06L19.737,8.823a.252.252,0,0,0,0,.354Z"/></svg>