<svg id="Bold" xmlns="http://www.w3.org/2000/svg" viewBox="0 0 24 24"><title>marine-mammal-dolphin</title><path d="M2.262,12.574a19.753,19.753,0,0,1,2.475-1.481.5.5,0,0,1,.622.147A5.756,5.756,0,0,0,8.43,13.411,1,1,0,0,0,9.6,12.043a7.165,7.165,0,0,1-.482-1.806.5.5,0,0,1,.461-.571c3.128-.213,5.751,1.143,7.82,4.041a.5.5,0,0,1-.04.63,6.693,6.693,0,0,0-1.558,3.1.853.853,0,0,0,.376.919.854.854,0,0,0,.994-.045l1.977-1.538a.5.5,0,0,1,.564-.034l2.433,1.46a.863.863,0,0,0,1.3-.869,5.809,5.809,0,0,0-2.284-3.678.506.506,0,0,1-.2-.384c-.2-6.51-4.25-9.291-6.363-10.3a.5.5,0,0,1-.259-.608,4.514,4.514,0,0,1,.264-.636,1.006,1.006,0,0,0-.041-.989,1.022,1.022,0,0,0-.871-.468C9.68.36,8.082,1.074,7.2,2.147a1,1,0,0,1-.484.322,7.387,7.387,0,0,0-4.522,3.4,4.162,4.162,0,0,0-.388,3.116L.26,11.017a1.053,1.053,0,0,0,.1,1.406A1.514,1.514,0,0,0,2.262,12.574ZM6.251,5.915a.75.75,0,1,1-.75.75A.75.75,0,0,1,6.251,5.915Z"/><path d="M23,21.736a3.745,3.745,0,0,1-2.9-1.646,1.055,1.055,0,0,0-1.546.023,3.72,3.72,0,0,1-2.884,1.623,3.743,3.743,0,0,1-2.9-1.646,1.055,1.055,0,0,0-1.547.024,3.72,3.72,0,0,1-2.884,1.622,3.745,3.745,0,0,1-2.9-1.646,1.055,1.055,0,0,0-1.547.024A3.718,3.718,0,0,1,1,21.736a1,1,0,0,0,0,2,5.121,5.121,0,0,0,3.345-1.243.5.5,0,0,1,.64,0,5.128,5.128,0,0,0,6.694,0,.5.5,0,0,1,.639,0,5.128,5.128,0,0,0,6.694,0,.5.5,0,0,1,.64,0A5.131,5.131,0,0,0,23,23.736a1,1,0,0,0,0-2Z"/></svg>