<svg id="Bold" xmlns="http://www.w3.org/2000/svg" viewBox="0 0 24 24"><title>marine-mammal-dolphin-2</title><path d="M23.61,12.488a.734.734,0,0,0-.665-.159l-2.517.608L18.965,10.28a.75.75,0,0,0-1.14-.211,4.6,4.6,0,0,0-1.472,2.917,4.55,4.55,0,0,0,.695,2.746c-.347.47-1.36.687-3.119.316-2.387-.5-2.92-2.064-3.535-3.87a10.692,10.692,0,0,0-.959-2.236A6.337,6.337,0,0,0,6.443,7.348a4.52,4.52,0,0,0-1.288-.3l-3.7-4.388a.749.749,0,0,0-1.313.6L1.16,9.58c-1.607,3.42.384,6.685,1.613,8.135-.373,1.352-.564,2.447-.58,2.538A.751.751,0,0,0,3.35,21l2.2-1.474A12.742,12.742,0,0,0,12.83,21.6c1.537,0,6.011-.194,7.565-4.553A3.2,3.2,0,0,0,23.053,15.9a7.238,7.238,0,0,0,.816-2.776A.751.751,0,0,0,23.61,12.488ZM5.2,10.537a1,1,0,1,1,1,1.084A1,1,0,0,1,5.2,10.537Zm-2.3.074a11.508,11.508,0,0,0,1.559,3.017,10.085,10.085,0,0,0-.9,1.761A5.108,5.108,0,0,1,2.9,10.611Z"/></svg>