<svg id="Bold" xmlns="http://www.w3.org/2000/svg" viewBox="0 0 24 24"><title>marine-mammal-seal</title><path d="M21.625,20.37a15.077,15.077,0,0,1-2.678-3.594,21.375,21.375,0,0,1-1.954-8.457L20.3,8.98a1,1,0,1,0,.392-1.96l-2.142-.429,1.893-.946a1,1,0,1,0-.894-1.79L16.965,5.148c0-.248,0-.475,0-.7A5,5,0,0,0,7.02,4.5c0,.191,0,.408.005.648L4.444,3.855a1,1,0,0,0-.894,1.79l1.893.946L3.3,7.02A1,1,0,0,0,2.517,8.2a1.009,1.009,0,0,0,1.176.784L7.01,8.317a20.966,20.966,0,0,1-1.957,8.459A15.077,15.077,0,0,1,2.375,20.37C1.577,21.226,1,21.845,1,22.5,1,24,2.859,24,4.5,24c2.562,0,4.338-3.012,4.338-4.25a.75.75,0,0,1,1.5,0,5.929,5.929,0,0,1-1.75,3.735,11.554,11.554,0,0,0,6.7.037A6.037,6.037,0,0,1,13.5,19.75a.75.75,0,0,1,1.5,0C15,21.087,16.849,24,19.5,24c1.641,0,3.5,0,3.5-1.5C23,21.845,22.423,21.226,21.625,20.37ZM9.5,5.5a1,1,0,1,1,1-1A1,1,0,0,1,9.5,5.5Zm3.351,1.354-.5.5a.5.5,0,0,1-.707,0l-.5-.5A.5.5,0,0,1,11.5,6h1a.5.5,0,0,1,.354.854ZM14.5,5.5a1,1,0,1,1,1-1A1,1,0,0,1,14.5,5.5Z"/></svg>