<svg id="Bold" xmlns="http://www.w3.org/2000/svg" viewBox="0 0 24 24"><title>marine-mammal-seal-ball</title><path d="M21.063,19.888a3.577,3.577,0,0,0-2.236.233A7.91,7.91,0,0,0,16.291,16.5c-2.14-1.833-6.375-1.754-7.858-1.658A10.553,10.553,0,0,0,7.381,10.6,4.73,4.73,0,0,0,6.2,9.4a4.751,4.751,0,1,0-3.268-.16A8.824,8.824,0,0,0,.965,15.378a10.831,10.831,0,0,0,.626,4.411.252.252,0,0,0,.326.131,6.066,6.066,0,0,1,1.335-.381A.751.751,0,0,1,3.5,21.02,4.376,4.376,0,0,0,.2,23.509a.249.249,0,0,0,.224.36H4.615a2.551,2.551,0,0,0,2.374-1.916.75.75,0,0,1,1.454.368,4.4,4.4,0,0,1-.5,1.179.251.251,0,0,0,.214.38c2.627,0,15.312,0,15.312,0a.5.5,0,0,0,.5-.5A3.567,3.567,0,0,0,21.063,19.888ZM5.215,11.128a1,1,0,1,1-1,1A1,1,0,0,1,5.215,11.128Zm2.32-6.259A2.756,2.756,0,0,1,5.507,7.523a5.921,5.921,0,0,0,.528-2.654,5.919,5.919,0,0,0-.528-2.653A2.755,2.755,0,0,1,7.535,4.869Zm-5.5,0A2.755,2.755,0,0,1,4.063,2.216a5.905,5.905,0,0,0-.528,2.653,5.907,5.907,0,0,0,.528,2.654A2.756,2.756,0,0,1,2.035,4.869Z"/></svg>