<svg id="Bold" xmlns="http://www.w3.org/2000/svg" viewBox="0 0 24 24"><title>martial-arts-mask-helmet</title><path d="M23.749,16.845a1.009,1.009,0,0,0-.682-.366A4.478,4.478,0,0,1,19,12V7A7,7,0,0,0,5,7v5A4.479,4.479,0,0,1,.933,16.479a1,1,0,0,0-.9,1.113A5,5,0,0,0,5,22a3.838,3.838,0,0,0,3.53-1.736A.251.251,0,0,1,9,20.392c0,.171,0,.372,0,.608a3,3,0,0,0,6,0c0-.236.005-.437.005-.608a.25.25,0,0,1,.465-.127A3.841,3.841,0,0,0,19,22a5,5,0,0,0,4.965-4.408A1.006,1.006,0,0,0,23.749,16.845ZM8.627,4.107A3.832,3.832,0,0,1,12,2.5a3.832,3.832,0,0,1,3.373,1.607.25.25,0,0,1-.206.393H8.832a.25.25,0,0,1-.205-.393Zm6.325,9.8A3.825,3.825,0,0,1,12,15.5a3.825,3.825,0,0,1-2.952-1.594.25.25,0,0,1,.2-.406h5.513a.25.25,0,0,1,.2.406Zm1.413-3.32c-.031.18-.068.357-.109.53a.5.5,0,0,1-.487.384H8.23a.5.5,0,0,1-.486-.384c-.041-.173-.078-.35-.109-.53A.5.5,0,0,1,8.128,10h7.744a.5.5,0,0,1,.493.586ZM16.3,7.835a.5.5,0,0,1-.37.165H8.069a.5.5,0,0,1-.5-.549c.018-.178.039-.352.064-.523A.5.5,0,0,1,8.129,6.5H15.87a.5.5,0,0,1,.495.428c.025.171.046.345.064.522A.5.5,0,0,1,16.3,7.835Z"/></svg>