<svg id="Bold" xmlns="http://www.w3.org/2000/svg" viewBox="0 0 24 24"><title>martial-arts-sword-fencing</title><path d="M4.129,18.458a.5.5,0,0,0-.707,0L.439,21.44A1.5,1.5,0,0,0,1.5,24h0a1.487,1.487,0,0,0,1.058-.441l2.983-2.981a.5.5,0,0,0,0-.707Z"/><path d="M23.817.183a.626.626,0,0,0-.853-.029L8.251,12.986a1,1,0,0,1-.927.21,5.491,5.491,0,0,0-4.6.9.5.5,0,0,0-.07.766l6.486,6.486a.5.5,0,0,0,.766-.07,5.821,5.821,0,0,0,1.074-3.083,4.922,4.922,0,0,0-.178-1.512,1,1,0,0,1,.21-.927L23.846,1.035A.627.627,0,0,0,23.817.183Z"/></svg>