<svg id="Bold" xmlns="http://www.w3.org/2000/svg" viewBox="0 0 24 24"><title>matches-fire</title><path d="M21.578,11.135a.5.5,0,0,0-.8-.237,8.621,8.621,0,0,1-1.947,1.248.249.249,0,0,1-.354-.211A13.149,13.149,0,0,0,7.758.006a.5.5,0,0,0-.509.748A9.609,9.609,0,0,1,8.5,5.5a9.07,9.07,0,0,1-.629,3.322.251.251,0,0,1-.443.045A8.774,8.774,0,0,1,6.38,6.579a.5.5,0,0,0-.8-.242A9.964,9.964,0,0,0,2,14c0,.18,0,.359.01.537A10,10,0,0,0,22,14,9.851,9.851,0,0,0,21.578,11.135ZM12,21.25a4.019,4.019,0,0,1-4-4.113,7.56,7.56,0,0,1,4.65-6.884.251.251,0,0,1,.292.385,4.28,4.28,0,0,0-.47,4.161.254.254,0,0,0,.177.138.251.251,0,0,0,.216-.06,2.3,2.3,0,0,0,.735-1.055.245.245,0,0,1,.138-.158.251.251,0,0,1,.211,0A3.7,3.7,0,0,1,16,17.25,3.922,3.922,0,0,1,12,21.25Z"/></svg>