<svg id="Bold" xmlns="http://www.w3.org/2000/svg" viewBox="0 0 24 24"><title>material-brick</title><rect x="1.5" y="6" width="4" height="5" rx="0.5" ry="0.5"/><rect x="12.5" y="6" width="5" height="5" rx="0.5" ry="0.5"/><rect x="9" width="6" height="5" rx="0.5" ry="0.5"/><rect x="6.5" y="6" width="5" height="5" rx="0.5" ry="0.5"/><rect x="9" y="12" width="6" height="4.5" rx="0.5" ry="0.5"/><rect x="18.5" y="6" width="4" height="5" rx="0.5" ry="0.5"/><path d="M3,16.5H7.5A.5.5,0,0,0,8,16V12.5a.5.5,0,0,0-.5-.5H2a.5.5,0,0,0-.5.5V15A1.5,1.5,0,0,0,3,16.5Z"/><path d="M16.5,16.5H21A1.5,1.5,0,0,0,22.5,15V12.5A.5.5,0,0,0,22,12H16.5a.5.5,0,0,0-.5.5V16A.5.5,0,0,0,16.5,16.5Z"/><path d="M2,5H7.5A.5.5,0,0,0,8,4.5V.5A.5.5,0,0,0,7.5,0H3A1.5,1.5,0,0,0,1.5,1.5v3A.5.5,0,0,0,2,5Z"/><path d="M16.5,5H22a.5.5,0,0,0,.5-.5v-3A1.5,1.5,0,0,0,21,0H16.5a.5.5,0,0,0-.5.5v4A.5.5,0,0,0,16.5,5Z"/><path d="M23,22H21a.5.5,0,0,1-.5-.5v-1A.5.5,0,0,1,21,20h2a1,1,0,0,0,0-2H1a1,1,0,0,0,0,2H3a.5.5,0,0,1,.5.5v1A.5.5,0,0,1,3,22H1a1,1,0,0,0,0,2H23a1,1,0,0,0,0-2Zm-12-.5a.5.5,0,0,1-.5.5H6a.5.5,0,0,1-.5-.5v-1A.5.5,0,0,1,6,20h4.5a.5.5,0,0,1,.5.5Zm7.5,0a.5.5,0,0,1-.5.5H13.5a.5.5,0,0,1-.5-.5v-1a.5.5,0,0,1,.5-.5H18a.5.5,0,0,1,.5.5Z"/></svg>