<svg id="Bold" xmlns="http://www.w3.org/2000/svg" viewBox="0 0 24 24"><title>measure-caliber</title><path d="M23.707,5.243,18.757.293a1,1,0,0,0-1.414,0L.293,17.343a1,1,0,0,0,0,1.414l4.95,4.95a1,1,0,0,0,1.414,0l17.05-17.05A1,1,0,0,0,23.707,5.243ZM19.8,4.2a2.37,2.37,0,0,1,.586,2.379.251.251,0,0,1-.416.1L17.319,4.029a.25.25,0,0,1,.1-.416A2.37,2.37,0,0,1,19.8,4.2ZM4.2,16.428a2.37,2.37,0,0,1,2.379-.586.25.25,0,0,1,.1.416L4.029,18.91a.25.25,0,0,1-.416-.1A2.37,2.37,0,0,1,4.2,16.428ZM7.572,19.8a2.37,2.37,0,0,1-2.379.586.25.25,0,0,1-.1-.416l2.652-2.652a.25.25,0,0,1,.237-.066.247.247,0,0,1,.178.169A2.367,2.367,0,0,1,7.572,19.8Zm2.741-9.488a2.28,2.28,0,0,1,.623-.44.218.218,0,0,1,.314.2v3.86a.218.218,0,0,1-.314.2,2.28,2.28,0,0,1-.623-.44A2.387,2.387,0,0,1,10.313,10.313Zm3.374,3.374a2.255,2.255,0,0,1-.573.415.249.249,0,0,1-.364-.222V10.12a.25.25,0,0,1,.364-.222,2.255,2.255,0,0,1,.573.415A2.387,2.387,0,0,1,13.687,13.687Zm2.741-6.115a2.37,2.37,0,0,1-.586-2.379.25.25,0,0,1,.416-.1L18.91,7.742a.25.25,0,0,1-.1.416A2.37,2.37,0,0,1,16.428,7.572Z"/></svg>