<svg id="Bold" xmlns="http://www.w3.org/2000/svg" viewBox="0 0 24 24"><title>medical-specialty-breathing</title><path d="M21.428,9.856a7.235,7.235,0,0,1-.721-1.45C20.707,3.145,15.845,0,11.143,0a9.925,9.925,0,0,0-10,10.063c0,3.5,1.271,6.124,3.78,7.813a.5.5,0,0,1,.22.415V23.5a.5.5,0,0,0,.5.5h2.5a.5.5,0,0,0,.5-.5V14.119A6.054,6.054,0,0,1,13.2,8.152a5.912,5.912,0,0,1,6.264,2.479l.562.844a.5.5,0,0,1-.138.693l-2.5,1.664a.5.5,0,0,1-.693-.139l-.562-.843a1.909,1.909,0,0,0-1.972-.812,2,2,0,0,0-1.525,2V23.5a.5.5,0,0,0,.5.5h2.5a.5.5,0,0,0,.5-.5v-3a.5.5,0,0,1,.5-.5h1.5a2.5,2.5,0,0,0,2.5-2.5V15.516a.5.5,0,0,1,.5-.5c.187,0,.378,0,.552-.01a1.245,1.245,0,0,0,.963-.52,1.222,1.222,0,0,0,.19-.743l0-.138C22.931,12.489,22.133,11.091,21.428,9.856Z"/><circle cx="16.893" cy="10.75" r="1"/><circle cx="13.393" cy="10.25" r="1"/><circle cx="10.893" cy="12.75" r="1"/></svg>