<svg id="Bold" xmlns="http://www.w3.org/2000/svg" viewBox="0 0 24 24"><title>medical-folder</title><path d="M24,9a1.5,1.5,0,0,0-1.5-1.5H6.5A1.5,1.5,0,0,0,5,9V19a1.5,1.5,0,0,1-3,0V4a.5.5,0,0,1,.5-.5H6.586L8.5,5.414A1.986,1.986,0,0,0,9.914,6H20.5a1,1,0,0,0,0-2H9.914L8,2.086A1.986,1.986,0,0,0,6.586,1.5H1.5A1.5,1.5,0,0,0,0,3V19a3.5,3.5,0,0,0,3.5,3.5H20a4,4,0,0,0,4-4Zm-5.5,7a.5.5,0,0,1-.5.5H16.5a.5.5,0,0,0-.5.5v1.5a.5.5,0,0,1-.5.5h-2a.5.5,0,0,1-.5-.5V17a.5.5,0,0,0-.5-.5H11a.5.5,0,0,1-.5-.5V14a.5.5,0,0,1,.5-.5h1.5A.5.5,0,0,0,13,13V11.5a.5.5,0,0,1,.5-.5h2a.5.5,0,0,1,.5.5V13a.5.5,0,0,0,.5.5H18a.5.5,0,0,1,.5.5Z"/></svg>