<svg id="Bold" xmlns="http://www.w3.org/2000/svg" viewBox="0 0 24 24"><title>medical-instrument-syringe</title><path d="M18.392,7.022a.5.5,0,0,1,.553-.105A3.385,3.385,0,0,0,20.3,7.2a3.5,3.5,0,1,0-3.5-3.5,3.385,3.385,0,0,0,.287,1.351.5.5,0,0,1-.1.553L15.636,6.95a.5.5,0,0,1-.707,0l-.217-.217a.5.5,0,0,1-.106-.552,3.388,3.388,0,0,0,.286-1.351,3.477,3.477,0,0,0-1.025-2.475,3.586,3.586,0,0,0-4.949,0A3.476,3.476,0,0,0,7.892,4.83a1,1,0,1,0,2,0,1.485,1.485,0,0,1,.44-1.06,1.535,1.535,0,0,1,2.121,0,1.5,1.5,0,0,1,0,2.118h0L9.124,9.22l-4.95,4.949a3.992,3.992,0,0,0-.77,4.542.5.5,0,0,1-.1.569L.5,22.089A1,1,0,0,0,1.911,23.5L4.719,20.7a.5.5,0,0,1,.571-.1,3.985,3.985,0,0,0,4.541-.772l4.949-4.95,3.331-3.33h0a1.5,1.5,0,1,1,1.059,2.563,1,1,0,0,0,0,2A3.494,3.494,0,1,0,17.818,9.4a.5.5,0,0,1-.548-.107l-.22-.22a.5.5,0,0,1,0-.707ZM20.3,2.2a1.5,1.5,0,1,1-1.5,1.5A1.5,1.5,0,0,1,20.3,2.2Zm-4.66,8.281a.5.5,0,0,1,0,.707L14.427,12.4a.5.5,0,0,1-.707,0l-1.061-1.06L11.6,10.28a.5.5,0,0,1,0-.707l1.21-1.21a.5.5,0,0,1,.707,0Z"/></svg>