<svg id="Bold" xmlns="http://www.w3.org/2000/svg" viewBox="0 0 24 24"><title>medical-room-clock-man</title><path d="M5.5,10a5,5,0,1,0-5-5A5.006,5.006,0,0,0,5.5,10Zm0-8a3,3,0,1,1-3,3A3,3,0,0,1,5.5,2Z"/><path d="M5.5,6.3H6.586a.75.75,0,0,0,0-1.5H6.25V3.934a.75.75,0,0,0-1.5,0V5.553A.75.75,0,0,0,5.5,6.3Z"/><path d="M14.5,17.646a.251.251,0,0,0-.182-.241,2.506,2.506,0,0,1-1.808-2.178A.249.249,0,0,0,12.261,15H7.734L5.117,11.325A2,2,0,0,0,1.88,13.674l3.216,4.5A2.007,2.007,0,0,0,6.713,19H14.25a.25.25,0,0,0,.25-.25Z"/><path d="M22.5,20h-.75a.25.25,0,0,0-.25.25V23a2.437,2.437,0,0,1-.1.681.252.252,0,0,0,.041.219.249.249,0,0,0,.2.1H23a.5.5,0,0,0,.5-.5V21A1,1,0,0,0,22.5,20Z"/><path d="M14.5,23V20.25a.25.25,0,0,0-.25-.25H2a1,1,0,0,0-1,1v2.5a.5.5,0,0,0,.5.5H14.356a.252.252,0,0,0,.2-.1.248.248,0,0,0,.04-.219A2.473,2.473,0,0,1,14.5,23Z"/><circle cx="18" cy="3.5" r="2.5"/><path d="M20,23V16h1a1,1,0,0,0,1-1V10a2,2,0,0,0-2-2H16a2,2,0,0,0-2,2v5a1,1,0,0,0,1,1h1v7a1,1,0,0,0,1,1h2A1,1,0,0,0,20,23Z"/></svg>