<svg id="Bold" xmlns="http://www.w3.org/2000/svg" viewBox="0 0 24 24"><title>medical-instrument-walking-aid</title><path d="M8.355,21.025A1.5,1.5,0,0,0,6.932,20H5.374a1.5,1.5,0,0,0-1.423,1.025L3.4,22.683A1,1,0,0,0,4.347,24H7.96a1,1,0,0,0,.948-1.316Z"/><path d="M19.489,19.4a.251.251,0,0,1-.113-.173l-.471-3.047A2.276,2.276,0,0,0,16.65,14.25H8.979a.5.5,0,0,1-.495-.566L9.507,6.005A3.75,3.75,0,0,1,12.4,2.857a.5.5,0,0,0,.323-.239.5.5,0,0,0,.044-.4,2.37,2.37,0,0,1-.05-1.251.5.5,0,0,0-.575-.6,6.258,6.258,0,0,0-5.11,5.312L5.291,18.717A.25.25,0,0,0,5.539,19H6.932a2.44,2.44,0,0,1,.333.023.5.5,0,0,0,.564-.429l.188-1.41a.5.5,0,0,1,.5-.434h7.522a.5.5,0,0,1,.5.424l.313,2.033a.249.249,0,0,1-.105.244,2.5,2.5,0,1,0,2.751-.049Z"/><path d="M13.653,1.5a1.5,1.5,0,0,0,1.5,1.5h4a1.5,1.5,0,0,0,0-3h-4A1.5,1.5,0,0,0,13.653,1.5Z"/></svg>