<svg id="Bold" xmlns="http://www.w3.org/2000/svg" viewBox="0 0 24 24"><title>medical-app-smartphone-listen</title><path d="M21.5,18a2,2,0,0,0-2-2,1.974,1.974,0,0,0-1.59.809.5.5,0,0,1-.4.2A3.5,3.5,0,0,0,14,20.5V21a1,1,0,0,1-2,0V18.369a.5.5,0,0,1,.417-.493A8.51,8.51,0,0,0,19.5,9.5V6a2,2,0,0,0-2-2,1,1,0,0,0-.333,1.943.5.5,0,0,1,.333.472V9.5a6.5,6.5,0,0,1-13,0V6.415a.5.5,0,0,1,.333-.472A1,1,0,0,0,4.5,4a2,2,0,0,0-2,2V9.5a8.51,8.51,0,0,0,7.083,8.376.5.5,0,0,1,.417.493V21a3,3,0,0,0,6,0v-.5a1.492,1.492,0,0,1,1.554-1.487.5.5,0,0,1,.379.2A1.964,1.964,0,0,0,19.5,20,2,2,0,0,0,21.5,18Z"/><path d="M6.5,11.5A1.5,1.5,0,0,0,8,13h6a1.5,1.5,0,0,0,1.5-1.5V1.5A1.5,1.5,0,0,0,14,0H8A1.5,1.5,0,0,0,6.5,1.5Zm2-9A.5.5,0,0,1,9,2h4a.5.5,0,0,1,.5.5v7a.5.5,0,0,1-.5.5H9a.5.5,0,0,1-.5-.5Z"/></svg>