<svg id="Bold" xmlns="http://www.w3.org/2000/svg" viewBox="0 0 24 24"><title>medical-condition-flu</title><path d="M21.428,9.856a7.235,7.235,0,0,1-.721-1.45C20.707,3.145,15.845,0,11.143,0a9.925,9.925,0,0,0-10,10.063c0,3.5,1.271,6.124,3.779,7.813a.5.5,0,0,1,.221.415V23.5a.5.5,0,0,0,.5.5h10a.5.5,0,0,0,.5-.5v-3a.5.5,0,0,1,.5-.5h1.5a2.5,2.5,0,0,0,2.5-2.5V15.516a.5.5,0,0,1,.5-.5c.187,0,.378,0,.552-.01a1.245,1.245,0,0,0,.963-.52,1.222,1.222,0,0,0,.19-.743l0-.138C22.931,12.489,22.133,11.091,21.428,9.856ZM11.25,15.012a1.066,1.066,0,1,1,1.072-1.066A1.07,1.07,0,0,1,11.25,15.012Zm.572-5.994a1.072,1.072,0,1,1,1.071,1.065A1.07,1.07,0,0,1,11.822,9.018Zm2.715,8.732a1.066,1.066,0,1,1,1.071-1.065A1.07,1.07,0,0,1,14.537,17.75Zm0-4.381A1.066,1.066,0,1,1,15.608,12.3,1.069,1.069,0,0,1,14.537,13.369Zm1.118-6.554a1.072,1.072,0,1,1,1.072,1.067A1.07,1.07,0,0,1,15.655,6.815Zm.548,3.834a1.072,1.072,0,1,1,1.071,1.066A1.07,1.07,0,0,1,16.2,10.649ZM17.822,16.1a1.066,1.066,0,1,1,1.071-1.066A1.07,1.07,0,0,1,17.822,16.1Z"/></svg>