<svg id="Bold" xmlns="http://www.w3.org/2000/svg" viewBox="0 0 24 24"><title>medical-specialty-liver</title><path d="M10.952,14.968c-.427.041-1.116.1-1.723.178a1.229,1.229,0,0,0-.511.226.5.5,0,0,0-.218.414V22.5A.5.5,0,0,0,9,23h2a.5.5,0,0,0,.5-.5V15.466a.5.5,0,0,0-.548-.5Z"/><path d="M23.6,2.425A2.862,2.862,0,0,0,21.112,1H14.293A.506.506,0,0,0,14,1.093l-.5.36a4.674,4.674,0,0,0-1.727,5.31.752.752,0,0,1-.474.949.789.789,0,0,1-.238.038.748.748,0,0,1-.711-.513A6.153,6.153,0,0,1,11.4,1.407.25.25,0,0,0,11.2,1h-.7A10.512,10.512,0,0,0,0,11.5v6.429a1.942,1.942,0,0,0,1.151,1.792,2,2,0,0,0,2.166-.334,14.584,14.584,0,0,0,1.831-2.208C6.3,15.613,7.6,13.839,9.043,13.657c.515-.064,1.078-.117,1.667-.173,2.555-.242,5.736-.543,7.6-2.055,3.019-2.452,3.718-3.265,5.341-6.2A2.8,2.8,0,0,0,23.6,2.425Z"/></svg>