<svg id="Bold" xmlns="http://www.w3.org/2000/svg" viewBox="0 0 24 24"><title>medical-nanobots-1</title><path d="M11.118,7.222,9.543,5.952a.5.5,0,0,1-.04-.743l.176-.176a1.1,1.1,0,0,0,0-1.56L6.529.323a1.1,1.1,0,0,0-1.56,0l-3.15,3.15a1.1,1.1,0,0,0,0,1.56L2,5.209a.5.5,0,0,1-.04.743L.38,7.222h0A1,1,0,0,0,.128,8.5l0,.006,2,3.5a.305.305,0,0,0,.479.061l.92-.921a.5.5,0,0,0,.08-.6L2.5,8.625a.5.5,0,0,1,.122-.641l.844-.673a.5.5,0,0,1,.665.038l.468.467a.5.5,0,0,1,.146.354V9.547a.5.5,0,0,0,.579.494,2.643,2.643,0,0,1,.842,0,.5.5,0,0,0,.579-.494V8.17A.5.5,0,0,1,6.9,7.816l.467-.467a.5.5,0,0,1,.666-.038l.844.673a.5.5,0,0,1,.122.641l-1.1,1.915a.5.5,0,0,0,.079.6l.921.921A.3.3,0,0,0,9.369,12l2-3.5,0-.006a1.007,1.007,0,0,0-.252-1.276ZM5.749,6A1.75,1.75,0,1,1,7.5,4.253,1.746,1.746,0,0,1,5.749,6Z"/><path d="M11.118,18.719l-1.575-1.27a.5.5,0,0,1-.186-.362.506.506,0,0,1,.146-.381l.176-.176a1.1,1.1,0,0,0,0-1.56l-3.15-3.15a1.1,1.1,0,0,0-1.56,0l-3.15,3.15a1.1,1.1,0,0,0,0,1.56L2,16.706a.5.5,0,0,1-.04.743L.38,18.719l0,0A1,1,0,0,0,.127,20l0,.007,2,3.493.006.01a1,1,0,0,0,1.738-1l0,0L2.5,20.122a.5.5,0,0,1,.122-.64l.845-.673a.5.5,0,0,1,.665.037l.468.467a.5.5,0,0,1,.146.354V23a1,1,0,0,0,2,0V19.667a.5.5,0,0,1,.147-.354l.467-.467a.5.5,0,0,1,.666-.037l.845.673a.5.5,0,0,1,.121.64L7.631,22.5l0,0a1,1,0,0,0,1.739,1l.006-.01,2-3.493,0-.007a1,1,0,0,0-.252-1.275ZM5.749,17.5A1.75,1.75,0,1,1,7.5,15.75,1.746,1.746,0,0,1,5.749,17.5Z"/><path d="M23.62,18.719l-1.576-1.27a.5.5,0,0,1-.186-.362A.506.506,0,0,1,22,16.706l.177-.176a1.1,1.1,0,0,0,0-1.56l-3.15-3.15a1.1,1.1,0,0,0-1.56,0l-3.15,3.15a1.1,1.1,0,0,0,0,1.56l.176.176a.506.506,0,0,1,.146.381.5.5,0,0,1-.186.362l-1.575,1.27,0,0A1,1,0,0,0,12.629,20l0,.006,2,3.493.006.01a1,1,0,0,0,1.739-1l0,0-1.364-2.376a.5.5,0,0,1,.121-.64l.845-.673a.5.5,0,0,1,.666.037l.467.467a.5.5,0,0,1,.147.354V23a1,1,0,0,0,2,0V19.667a.5.5,0,0,1,.146-.354l.468-.467a.5.5,0,0,1,.665-.037l.845.673a.5.5,0,0,1,.122.64L20.132,22.5l0,0a1,1,0,0,0,1.739,1l.005-.009,2-3.493,0-.007a1,1,0,0,0-.251-1.275ZM18.251,17.5A1.75,1.75,0,1,1,20,15.75,1.746,1.746,0,0,1,18.251,17.5Z"/><path d="M12.632,8.505l2,3.493.007.012a.3.3,0,0,0,.471.056l.921-.921a.5.5,0,0,0,.08-.6l-1.1-1.918a.5.5,0,0,1,.121-.64l.845-.674a.5.5,0,0,1,.666.038l.467.467a.5.5,0,0,1,.147.354V9.546a.5.5,0,0,0,.58.493,2.689,2.689,0,0,1,.84,0,.5.5,0,0,0,.58-.494V8.17a.5.5,0,0,1,.146-.354l.468-.467a.5.5,0,0,1,.665-.038l.845.674a.5.5,0,0,1,.122.64l-1.1,1.918a.5.5,0,0,0,.08.6l.916.917a.306.306,0,0,0,.48-.059l2-3.5,0-.006a1,1,0,0,0-.251-1.276h0l-1.576-1.27A.5.5,0,0,1,22,5.209l.177-.176a1.1,1.1,0,0,0,0-1.56L19.031.323a1.1,1.1,0,0,0-1.56,0l-3.15,3.15a1.1,1.1,0,0,0,0,1.56l.176.176a.5.5,0,0,1-.04.743l-1.575,1.27h0A1.007,1.007,0,0,0,12.628,8.5Zm5.619-6a1.75,1.75,0,1,1-1.75,1.75A1.746,1.746,0,0,1,18.251,2.5Z"/></svg>