<svg id="Bold" xmlns="http://www.w3.org/2000/svg" viewBox="0 0 24 24"><title>medical-specialty-back</title><path d="M17.563,10.192l-.38-1.14A3,3,0,0,0,14.337,7H9.662A3,3,0,0,0,6.816,9.052l-.38,1.14a3,3,0,0,0,.273,2.492h0s.527.848.592.916a1.283,1.283,0,0,0,2.041-1.526L8.5,10.5a.5.5,0,0,1,.881-.473l.831,1.552a2.173,2.173,0,0,1,.3,1.194,1.97,1.97,0,0,1,2.715.727h.423a2.271,2.271,0,0,1,.165-1.962l.808-1.511a.5.5,0,0,1,.881.473l-.82,1.531A1.288,1.288,0,0,0,15.771,14c.857,0,1.125-.661,1.519-1.317A3,3,0,0,0,17.563,10.192Z"/><circle cx="20.5" cy="17.001" r="2.5"/><circle cx="12" cy="3.001" r="2.5"/><path d="M7.5,20.751H1a1,1,0,0,0,0,2H7.5a1,1,0,0,0,0-2Z"/><path d="M23,20.751H18a1,1,0,0,0,0,2h5a1,1,0,0,0,0-2Z"/><path d="M14.955,16.5H12.5a.25.25,0,0,1-.25-.25V14.5a.75.75,0,1,0-1.5,0v1.75a.25.25,0,0,1-.25.25h-4a.25.25,0,0,1-.25-.25V14.5a.75.75,0,1,0-1.5,0v1.75a.25.25,0,0,1-.25.25h-1a.25.25,0,0,1-.25-.25V14.5a.75.75,0,1,0-1.5,0v2c0,.008,0,.016,0,.024A1.5,1.5,0,0,0,2,19.5h9.842a.25.25,0,0,1,.212.382l-.826,1.323a1.5,1.5,0,1,0,2.544,1.59l2.5-4A1.5,1.5,0,0,0,14.955,16.5Z"/></svg>