<svg id="Bold" xmlns="http://www.w3.org/2000/svg" viewBox="0 0 24 24"><title>medical-specialty-skin</title><path d="M24,6.681A2.878,2.878,0,0,0,21.123,3.8L2.887,3.78h0A2.88,2.88,0,0,0,0,6.658L0,18.3a1.922,1.922,0,0,0,1.92,1.92H22.076A1.922,1.922,0,0,0,24,18.3ZM3,14.776H3A.993.993,0,1,1,3,12.79H3a.993.993,0,1,1,0,1.986ZM5.772,17.79h0a.994.994,0,1,1,0-1.987h0a.994.994,0,1,1,0,1.987Zm1.971-3.014h0a.993.993,0,1,1,0-1.986h0a.993.993,0,1,1,0,1.986Zm3.271,3.014h0a.994.994,0,1,1,0-1.987h0a.994.994,0,1,1,0,1.987Zm1.971-3.014h0a.993.993,0,1,1,0-1.986h0a.993.993,0,1,1,0,1.986Zm3.272,3.014h0a.994.994,0,1,1,0-1.987h0a.994.994,0,1,1,0,1.987Zm1.971-3.014h0a.993.993,0,1,1,0-1.986h0a.993.993,0,1,1,0,1.986Zm-.755-3.153c-2.739,0-2.737-2.84-5.476-2.843s-2.741,2.835-5.478,2.832c-2.3,0-2.668-2.012-4.357-2.649A.25.25,0,0,1,2,8.729v-2a.952.952,0,0,1,.953-.952L21.045,5.8A.951.951,0,0,1,22,6.75v2a.25.25,0,0,1-.162.234C20.144,9.619,19.778,11.625,17.473,11.623ZM21,17.79h0A.994.994,0,1,1,21,15.8h0a.994.994,0,1,1,0,1.987Z"/></svg>