<svg id="Bold" xmlns="http://www.w3.org/2000/svg" viewBox="0 0 24 24"><title>medical-notes</title><path d="M7,12.714v2.571a.643.643,0,0,0,.643.643H9.572a.5.5,0,0,1,.5.5v1.929a.641.641,0,0,0,.642.642h2.572a.642.642,0,0,0,.643-.642V16.428a.5.5,0,0,1,.5-.5h1.928A.643.643,0,0,0,17,15.285V12.714a.643.643,0,0,0-.643-.643H14.429a.5.5,0,0,1-.5-.5V9.642A.643.643,0,0,0,13.286,9H10.714a.642.642,0,0,0-.642.643v1.929a.5.5,0,0,1-.5.5H7.643A.643.643,0,0,0,7,12.714Z"/><path d="M19.5,3H16.75a.25.25,0,0,0-.25.25v1.5a.249.249,0,0,0,.25.25H19a.5.5,0,0,1,.5.5v16a.5.5,0,0,1-.5.5H5a.5.5,0,0,1-.5-.5V5.5A.5.5,0,0,1,5,5H7.25a.249.249,0,0,0,.25-.25v-1.5A.25.25,0,0,0,7.25,3H4.5a2,2,0,0,0-2,2V22a2,2,0,0,0,2,2h15a2,2,0,0,0,2-2V5A2,2,0,0,0,19.5,3Z"/><path d="M10,6.5h4a1,1,0,0,0,1-1V3A3.009,3.009,0,0,0,11.192.107,3.046,3.046,0,0,0,9,3.087V5.5A1,1,0,0,0,10,6.5ZM12,2a.75.75,0,1,1-.75.75A.75.75,0,0,1,12,2Z"/></svg>