<svg id="Bold" xmlns="http://www.w3.org/2000/svg" viewBox="0 0 24 24"><title>medical-app-laptop-1</title><path d="M10.468,14.25a.5.5,0,0,0,.5.5h2a.5.5,0,0,0,.5-.5v-1.5a.5.5,0,0,1,.5-.5h1.5a.5.5,0,0,0,.5-.5v-2a.5.5,0,0,0-.5-.5h-1.5a.5.5,0,0,1-.5-.5V7.25a.5.5,0,0,0-.5-.5h-2a.5.5,0,0,0-.5.5v1.5a.5.5,0,0,1-.5.5h-1.5a.5.5,0,0,0-.5.5v2a.5.5,0,0,0,.5.5h1.5a.5.5,0,0,1,.5.5Z"/><path d="M3.468,14.733a1,1,0,0,0,1-1V5.417a.667.667,0,0,1,.667-.667H18.8a.667.667,0,0,1,.666.667v8.316a1,1,0,0,0,2,0V5.417A2.669,2.669,0,0,0,18.8,2.75H5.135A2.67,2.67,0,0,0,2.468,5.417v8.316A1,1,0,0,0,3.468,14.733Z"/><path d="M23.894,16.442a.5.5,0,0,0-.394-.192h-8a.5.5,0,0,0-.5.5c0,.71-1.232,1.5-3,1.5s-3-.79-3-1.5a.5.5,0,0,0-.5-.5H.5a.5.5,0,0,0-.485.621A5.772,5.772,0,0,0,5.623,21.25H18.377a5.773,5.773,0,0,0,5.608-4.379A.5.5,0,0,0,23.894,16.442Z"/></svg>