<svg id="Bold" xmlns="http://www.w3.org/2000/svg" viewBox="0 0 24 24"><title>medical-room-wait</title><path d="M19.285,12.987a.25.25,0,0,0,.091-.414,4.45,4.45,0,0,0-3.126-1.292h-1a4.449,4.449,0,0,0-3.127,1.293.25.25,0,0,0,.092.414l3.451,1.232a.255.255,0,0,0,.168,0Z"/><path d="M21.25,20.281a1.5,1.5,0,0,1-1.5-1.5v-2a1.5,1.5,0,0,1,1.5-1.5h1c.077,0,.152,0,.227.01a.249.249,0,0,0,.273-.249V13.49a.5.5,0,0,0-.664-.471c-.037.027-6.168,2.233-6.168,2.233a.5.5,0,0,1-.336,0L9.418,13.019a.5.5,0,0,0-.668.471v1.552a.255.255,0,0,0,.081.185.251.251,0,0,0,.192.064c.075-.007.15-.01.227-.01h1a1.5,1.5,0,0,1,1.5,1.5v2a1.5,1.5,0,0,1-1.5,1.5h-1c-.077,0-.152,0-.227-.01a.249.249,0,0,0-.273.249v.409a.5.5,0,0,0,.332.47l6.332,2.262a1.006,1.006,0,0,0,.672,0L22.418,21.4a.5.5,0,0,0,.332-.47V20.52a.255.255,0,0,0-.081-.185.251.251,0,0,0-.192-.064c-.075.006-.15.01-.227.01Z"/><circle cx="15.75" cy="7.281" r="2.5"/><path d="M10.25,19.281a.5.5,0,0,0,.5-.5v-2a.5.5,0,0,0-.5-.5h-1a1.5,1.5,0,0,0,0,3Z"/><path d="M23.494,16.942a1.544,1.544,0,0,0-1.244-.661h-1a.5.5,0,0,0-.5.5v2a.5.5,0,0,0,.5.5h1a1.5,1.5,0,0,0,1.244-2.339Z"/><path d="M10.25,6.531v-2.5a.5.5,0,0,0-.5-.5H7.25A.25.25,0,0,1,7,3.281V.781a.5.5,0,0,0-.5-.5H4a.5.5,0,0,0-.5.5v2.5a.25.25,0,0,1-.25.25H.75a.5.5,0,0,0-.5.5v2.5a.5.5,0,0,0,.5.5h2.5a.25.25,0,0,1,.25.25v2.5a.5.5,0,0,0,.5.5H6.5a.5.5,0,0,0,.5-.5v-2.5a.25.25,0,0,1,.25-.25h2.5A.5.5,0,0,0,10.25,6.531Z"/></svg>