<svg id="Bold" xmlns="http://www.w3.org/2000/svg" viewBox="0 0 24 24"><title>medical-nanobot-lungs</title><path d="M18.447,15.426A7.992,7.992,0,0,1,12.47,11.3a.25.25,0,0,0-.47.119V13.2a.25.25,0,0,1-.406.2l-.906-.725a.5.5,0,0,1-.188-.39V1a1,1,0,0,0-2,0V12.279a.5.5,0,0,1-.188.39l-.906.725A.25.25,0,0,1,7,13.2V9.7A1.7,1.7,0,0,0,5.3,8,3.083,3.083,0,0,0,2.832,9.244,14.164,14.164,0,0,0,0,17.5v4.2A2.3,2.3,0,0,0,2.3,24a4.211,4.211,0,0,0,1.328-.215l1.892-.631A2.162,2.162,0,0,0,7,21.1v-4.58a.5.5,0,0,1,.188-.391l2-1.6a.5.5,0,0,1,.624,0l2,1.6a.5.5,0,0,1,.188.391V21.1a2.162,2.162,0,0,0,1.48,2.053l1.892.631A4.206,4.206,0,0,0,16.7,24,2.3,2.3,0,0,0,19,21.7V17.5a11.849,11.849,0,0,0-.123-1.649A.5.5,0,0,0,18.447,15.426Z"/><path d="M23.625,7.225,22.04,5.954A.5.5,0,0,1,22,5.21l.177-.176a1.109,1.109,0,0,0,0-1.567L19.033.324a1.108,1.108,0,0,0-1.566,0L14.324,3.467a1.109,1.109,0,0,0,0,1.567l.177.176a.5.5,0,0,1-.041.744L12.874,7.225A1,1,0,0,0,12.632,8.5l2,3.495A1,1,0,1,0,16.368,11L15.005,8.622a.5.5,0,0,1,.121-.639l.843-.675a.5.5,0,0,1,.667.036l.468.469a.5.5,0,0,1,.146.353V11.5a1,1,0,0,0,2,0V8.166a.5.5,0,0,1,.146-.353l.469-.469a.5.5,0,0,1,.666-.036l.843.675a.5.5,0,0,1,.121.639L20.132,11A1,1,0,0,0,21.868,12l2-3.495A1,1,0,0,0,23.625,7.225ZM18.25,6A1.75,1.75,0,1,1,20,4.25,1.749,1.749,0,0,1,18.25,6Z"/></svg>