<svg id="Bold" xmlns="http://www.w3.org/2000/svg" viewBox="0 0 24 24"><title>medical-hospital-2</title><path d="M18.289,11.488a1,1,0,0,0-.446,1.342A1.487,1.487,0,0,1,18,13.5c0,1.245-2.261,1.858-4.561,2.345a.252.252,0,0,1-.216-.056.249.249,0,0,1-.085-.207l.156-2.076C13.679,8.364,14,2.442,14,2a2,2,0,0,0-4,0c0,.442.321,6.364.706,11.506l.156,2.076a.251.251,0,0,1-.3.263C8.26,15.357,6,14.745,6,13.5a1.487,1.487,0,0,1,.157-.67,1,1,0,1,0-1.788-.9A3.515,3.515,0,0,0,4,13.5c0,1.932,1.515,2.949,3.472,3.608a.25.25,0,0,1,.05.451A2.752,2.752,0,0,0,6,20a3,3,0,0,0,3,3,1,1,0,0,0,0-2,1,1,0,0,1-1-1c0-.688,1.282-1.164,2.791-1.539a.249.249,0,0,1,.309.222c.141,1.739.28,3.232.4,4.857a.5.5,0,0,0,.991,0c.125-1.625.263-3.118.4-4.857a.249.249,0,0,1,.31-.222C14.718,18.836,16,19.312,16,20a1,1,0,0,1-1,1,1,1,0,0,0,0,2,3,3,0,0,0,3-3,2.752,2.752,0,0,0-1.522-2.441.25.25,0,0,1,.05-.451C18.485,16.449,20,15.432,20,13.5a3.515,3.515,0,0,0-.369-1.566A1,1,0,0,0,18.289,11.488Z"/><path d="M6.5,6.5A.5.5,0,0,1,6,7H4.415a.5.5,0,0,0-.379.826,10.534,10.534,0,0,0,4.638,3.128.251.251,0,0,0,.232-.04A.248.248,0,0,0,9,10.7C8.716,6.456,8.5,2.412,8.5,2c0-.026.007-.049.008-.075A2.305,2.305,0,0,0,6.377.5H2a.5.5,0,0,0-.5.5,10.262,10.262,0,0,0,.123,1.577A.5.5,0,0,0,2.117,3H4.5a.5.5,0,0,1,0,1H2.636a.5.5,0,0,0-.469.674,10.455,10.455,0,0,0,.457,1.051A.5.5,0,0,0,3.071,6H6A.5.5,0,0,1,6.5,6.5Z"/><path d="M19,3.5a.5.5,0,0,1,.5-.5h2.383a.5.5,0,0,0,.494-.423A10.262,10.262,0,0,0,22.5,1,.5.5,0,0,0,22,.5H17.623a2.307,2.307,0,0,0-2.131,1.425c0,.026.008.049.008.075,0,.414-.217,4.457-.5,8.7a.248.248,0,0,0,.1.214.251.251,0,0,0,.232.04,10.531,10.531,0,0,0,4.639-3.128A.5.5,0,0,0,19.585,7H18a.5.5,0,0,1,0-1h2.929a.5.5,0,0,0,.447-.275,10.455,10.455,0,0,0,.457-1.051A.5.5,0,0,0,21.364,4H19.5A.5.5,0,0,1,19,3.5Z"/></svg>