<svg id="Bold" xmlns="http://www.w3.org/2000/svg" viewBox="0 0 24 24"><title>medical-instrument-ambulance-bed</title><path d="M24,11.75a2,2,0,0,0-2-2H7.119A1.507,1.507,0,0,1,5.68,8.674L3.942,2.762a2.057,2.057,0,0,0-2.179-1.5A2,2,0,0,0,.081,3.813l1.972,6.708A4.526,4.526,0,0,0,6.371,13.75H22A2,2,0,0,0,24,11.75Z"/><path d="M6.059,5.674A1.5,1.5,0,0,0,7.5,6.751a1.48,1.48,0,0,0,.424-.062A1.5,1.5,0,0,0,8.938,4.827l-1.029-3.5a1.5,1.5,0,0,0-2.879.847Z"/><path d="M5.5,19.771a1.99,1.99,0,1,0,2,1.99A2,2,0,0,0,5.5,19.771Z"/><path d="M18.5,19.771a1.99,1.99,0,1,0,2,1.99A2,2,0,0,0,18.5,19.771Z"/><path d="M16.351,19.676a.5.5,0,0,0-.082-.764l-2.158-1.444A.25.25,0,0,1,14,17.26a.253.253,0,0,1,.111-.208l2.013-1.344a.25.25,0,0,0-.138-.458H13.351a.5.5,0,0,0-.277.084l-.8.531a.5.5,0,0,1-.554,0l-.8-.531a.5.5,0,0,0-.277-.084H8.015a.25.25,0,0,0-.139.458l2.013,1.344A.253.253,0,0,1,10,17.26a.248.248,0,0,1-.111.208L7.731,18.912a.5.5,0,0,0-.082.764A2.988,2.988,0,0,1,8.5,21.76a.5.5,0,0,0,.5.5h6a.5.5,0,0,0,.5-.5A2.988,2.988,0,0,1,16.351,19.676Zm-6.225.584a.25.25,0,0,1-.139-.458l1.736-1.157a.5.5,0,0,1,.554,0L14.013,19.8a.25.25,0,0,1-.139.458Z"/></svg>