<svg id="Bold" xmlns="http://www.w3.org/2000/svg" viewBox="0 0 24 24"><title>medical-instrument-tweezers-3</title><path d="M24,1.354A1.355,1.355,0,0,0,22.647,0,1.336,1.336,0,0,0,21.8.3L6.943,12.346a.251.251,0,0,1-.392-.106,3.386,3.386,0,1,0-3.16,4.586,3.574,3.574,0,0,0,2.136-.758l5.127-4.157a.5.5,0,0,1,.665.031l.738.724a.5.5,0,0,1,.038.672L7.931,18.473a3.585,3.585,0,0,0-.757,2.135,3.392,3.392,0,1,0,4.586-3.159.25.25,0,0,1-.106-.391L23.7,2.206A1.351,1.351,0,0,0,24,1.354ZM2,13.435a1.392,1.392,0,1,1,1.391,1.391A1.393,1.393,0,0,1,2,13.435Zm9.957,7.173a1.392,1.392,0,1,1-1.392-1.39A1.393,1.393,0,0,1,11.957,20.608ZM13.993,11a.5.5,0,0,1-.738.042l-.29-.285A.5.5,0,0,1,13,10.009l3.382-2.742a.249.249,0,0,1,.351.351Z"/></svg>