<svg id="Bold" xmlns="http://www.w3.org/2000/svg" viewBox="0 0 24 24"><title>medical-nanobot-blood</title><path d="M13.681,13.944A7.485,7.485,0,0,1,9.788,3.661a.248.248,0,0,0,0-.216A19.514,19.514,0,0,0,8.758,1.416a.931.931,0,0,0-1.517,0C5.95,3.443,1.5,14.424,1.5,17.468a6.5,6.5,0,1,0,13,0,14.226,14.226,0,0,0-.673-3.362A.253.253,0,0,0,13.681,13.944Z"/><path d="M22.124,7.219,20.542,5.952a.5.5,0,0,1-.187-.362.5.5,0,0,1,.145-.382l.175-.175a1.106,1.106,0,0,0,0-1.566L17.533.324a1.109,1.109,0,0,0-1.567,0L12.824,3.467a1.108,1.108,0,0,0,0,1.566L13,5.208a.5.5,0,0,1-.041.744L11.375,7.219A1,1,0,0,0,11.132,8.5l2,3.5a1,1,0,0,0,.869.5.988.988,0,0,0,.5-.132A1,1,0,0,0,14.868,11L13.505,8.617a.5.5,0,0,1,.121-.638l.842-.673a.5.5,0,0,1,.666.037l.469.47a.5.5,0,0,1,.147.353V11.5a1,1,0,0,0,2,0V8.166a.5.5,0,0,1,.146-.353l.47-.47a.5.5,0,0,1,.666-.037l.841.673A.5.5,0,0,1,20,8.617L18.632,11A1,1,0,0,0,19,12.368a.988.988,0,0,0,.495.132,1,1,0,0,0,.869-.5l2-3.5A1,1,0,0,0,22.124,7.219ZM16.75,6A1.75,1.75,0,1,1,18.5,4.25,1.749,1.749,0,0,1,16.75,6Z"/></svg>