<svg id="Bold" xmlns="http://www.w3.org/2000/svg" viewBox="0 0 24 24"><title>medical-nanobots</title><path d="M23.621,18.721l0,0-1.576-1.27A.5.5,0,0,1,22,16.706l.176-.176a1.1,1.1,0,0,0,0-1.56l-3.15-3.15a1.1,1.1,0,0,0-1.56,0l-3.15,3.15a1.1,1.1,0,0,0,0,1.56l.176.176a.5.5,0,0,1-.039.743l-1.576,1.27,0,0A1,1,0,0,0,12.628,20l0,.007,2,3.493.006.01a1,1,0,0,0,1.738-1l0,0L15,20.122a.5.5,0,0,1,.122-.64l.845-.673a.5.5,0,0,1,.665.037l.468.468a.5.5,0,0,1,.146.353V23a1,1,0,0,0,2,0V19.667a.5.5,0,0,1,.146-.353l.468-.468a.5.5,0,0,1,.665-.037l.845.673a.5.5,0,0,1,.122.64L20.131,22.5l0,0a1,1,0,0,0,1.739,1l.006-.01,2-3.493,0-.007A1,1,0,0,0,23.621,18.721ZM18.25,17.5A1.75,1.75,0,1,1,20,15.75,1.746,1.746,0,0,1,18.25,17.5Z"/><path d="M11.121,18.721l0,0-1.576-1.27a.5.5,0,0,1-.039-.743l.176-.176a1.1,1.1,0,0,0,0-1.56L6.53,11.82a1.1,1.1,0,0,0-1.56,0L1.82,14.97a1.1,1.1,0,0,0,0,1.56L2,16.706a.5.5,0,0,1-.039.743L.381,18.719l0,0A1,1,0,0,0,.128,20l0,.007,2,3.493.006.01a1,1,0,0,0,1.739-1l0,0L2.5,20.122a.5.5,0,0,1,.122-.64l.845-.673a.5.5,0,0,1,.665.037l.468.468a.5.5,0,0,1,.146.353V23a1,1,0,0,0,2,0V19.667a.5.5,0,0,1,.146-.353l.468-.468a.5.5,0,0,1,.665-.037l.845.673a.5.5,0,0,1,.122.64L7.631,22.5l0,0a1,1,0,0,0,1.74,1l0-.008,2-3.493,0-.007A1,1,0,0,0,11.121,18.721ZM5.75,17.5A1.75,1.75,0,1,1,7.5,15.75,1.746,1.746,0,0,1,5.75,17.5Z"/><path d="M17.125,7.219,15.542,5.953a.5.5,0,0,1-.041-.745l.175-.174a1.109,1.109,0,0,0,0-1.567L12.533.325a1.106,1.106,0,0,0-1.566,0L7.824,3.467a1.109,1.109,0,0,0,0,1.567L8,5.208a.5.5,0,0,1-.041.745L6.375,7.219A1,1,0,0,0,6.132,8.5l2,3.5A1,1,0,0,0,9,12.5a.988.988,0,0,0,.5-.132A1,1,0,0,0,9.868,11L8.505,8.617a.5.5,0,0,1,.122-.638l.841-.673a.5.5,0,0,1,.666.037l.47.47a.5.5,0,0,1,.146.353V11.5a1,1,0,0,0,2,0V8.166a.5.5,0,0,1,.146-.353l.47-.47a.5.5,0,0,1,.666-.037l.841.673A.5.5,0,0,1,15,8.617L13.632,11A1,1,0,0,0,14,12.368a.988.988,0,0,0,.5.132,1,1,0,0,0,.869-.5l2-3.5A1,1,0,0,0,17.125,7.219ZM11.75,6A1.75,1.75,0,1,1,13.5,4.25,1.749,1.749,0,0,1,11.75,6Z"/></svg>