<svg xmlns="http://www.w3.org/2000/svg" viewBox="0 0 24 24"><title>meeting-remote</title><path d="M6.765,12.588h11.47A2.768,2.768,0,0,0,21,9.823V2.764A2.768,2.768,0,0,0,18.235,0H6.765A2.768,2.768,0,0,0,4,2.764V9.823A2.768,2.768,0,0,0,6.765,12.588ZM6,2.764A.766.766,0,0,1,6.765,2h11.47A.766.766,0,0,1,19,2.764V9.823a.766.766,0,0,1-.765.765H16.478a.248.248,0,0,1-.176-.073,5.142,5.142,0,0,0-2.161-1.29.249.249,0,0,1-.058-.453,2.85,2.85,0,1,0-2.929.015.25.25,0,0,1-.053.454A5.14,5.14,0,0,0,8.99,10.515a.251.251,0,0,1-.176.073H6.765A.766.766,0,0,1,6,9.823Z"/><path d="M23.39,23.185a5.154,5.154,0,0,0-2.54-1.7.25.25,0,0,1-.058-.454,2.849,2.849,0,1,0-2.931.016.25.25,0,0,1-.053.454A5.108,5.108,0,0,0,15.9,22.578a.251.251,0,0,1-.334,0,5.117,5.117,0,0,0-1.962-1.1.251.251,0,0,1-.058-.454,2.85,2.85,0,1,0-2.93.016.25.25,0,0,1-.053.454,5.123,5.123,0,0,0-2.012,1.178.249.249,0,0,1-.344,0,5.136,5.136,0,0,0-2.037-1.186.25.25,0,0,1-.055-.454,2.85,2.85,0,1,0-2.93,0,.25.25,0,0,1-.056.454,5.149,5.149,0,0,0-2.515,1.7A.5.5,0,0,0,1,24H23a.5.5,0,0,0,.39-.814Z"/></svg>