<svg xmlns="http://www.w3.org/2000/svg" viewBox="0 0 24 24"><title>meeting-headphones-1</title><path d="M21.639,10.094a.249.249,0,0,1-.141-.219,9.5,9.5,0,0,0-19,0,.251.251,0,0,1-.14.221A2.716,2.716,0,0,0,.75,12.5v3a2.934,2.934,0,0,0,3.083,2.75H6.167a.75.75,0,0,0,.75-.75v-7a.75.75,0,0,0-.75-.75H4.776a.247.247,0,0,1-.183-.079.256.256,0,0,1-.067-.188,7.491,7.491,0,0,1,14.948,0,.256.256,0,0,1-.067.188.251.251,0,0,1-.183.079H17.833a.75.75,0,0,0-.75.75v7a.75.75,0,0,0,.75.75h.917a.25.25,0,0,1,.25.25,2,2,0,0,1-2,2H15.36a.252.252,0,0,1-.208-.11,2,2,0,1,0,0,2.221.253.253,0,0,1,.208-.111H17a4,4,0,0,0,4-4v-.175a.25.25,0,0,1,.176-.239A2.787,2.787,0,0,0,23.25,15.5v-3A2.719,2.719,0,0,0,21.639,10.094Z"/></svg>