<svg xmlns="http://www.w3.org/2000/svg" viewBox="0 0 24 24"><title>meeting-team-laptop-man-1</title><path d="M23.5,11.5h-.75a.249.249,0,0,1-.25-.25V2a2,2,0,0,0-2-2H7.5a2,2,0,0,0-2,2V7.3a.25.25,0,0,0,.077.18.245.245,0,0,0,.183.07c.08,0,.16,0,.24,0a6.008,6.008,0,0,1,1.2.121.248.248,0,0,0,.208-.052A.251.251,0,0,0,7.5,7.424V2.5A.5.5,0,0,1,8,2H20a.5.5,0,0,1,.5.5V11a.5.5,0,0,1-.5.5H11.987a.25.25,0,0,0-.24.322,6.014,6.014,0,0,1,.215,2.4.252.252,0,0,0,.063.194.249.249,0,0,0,.186.083H21.5A2.5,2.5,0,0,0,24,12,.5.5,0,0,0,23.5,11.5Z"/><circle cx="14.294" cy="4.624" r="1.625"/><path d="M12,9.5h4.588a.409.409,0,0,0,.383-.555,2.844,2.844,0,0,0-5.353,0A.408.408,0,0,0,12,9.5Z"/><path d="M10.5,13.475a4.575,4.575,0,1,0-6.9,3.936.25.25,0,0,1-.02.44,6.326,6.326,0,0,0-1.021.611A6.245,6.245,0,0,0,0,23.5a.5.5,0,0,0,.5.5H12a.5.5,0,0,0,.5-.5,6.273,6.273,0,0,0-3.947-5.81.249.249,0,0,1-.049-.438A4.574,4.574,0,0,0,10.5,13.475ZM3.492,12.63a.253.253,0,0,1,.156-.154.248.248,0,0,1,.218.028,5.9,5.9,0,0,0,3.251.971,5.971,5.971,0,0,0,1.226-.128.13.13,0,0,1,.109.027.127.127,0,0,1,.048.1,2.575,2.575,0,1,1-5.008-.845ZM7,20.038v1.338a.75.75,0,0,1-1.5,0V20.038a.75.75,0,0,1,1.5,0Z"/></svg>