<svg xmlns="http://www.w3.org/2000/svg" viewBox="0 0 24 24"><title>meeting-smartphone-message</title><path d="M12.5,12.371a.25.25,0,0,0-.105-.2,4.486,4.486,0,0,1-.947-.914.25.25,0,0,0-.448.153v6.8a.25.25,0,0,1-.353.228c-.707-.32-1.944-.779-2.307-.912a.253.253,0,0,1-.158-.182,2.16,2.16,0,0,1-.013-.664.253.253,0,0,1,.06-.124,4.059,4.059,0,0,0,1.009-3.028A2.8,2.8,0,0,0,6.5,10.5a2.8,2.8,0,0,0-2.738,3.026,4,4,0,0,0,.987,3,.26.26,0,0,1,.054.1,2.311,2.311,0,0,1,.045.663.249.249,0,0,1-.161.216c-.4.151-1.633.616-2.333.935A.25.25,0,0,1,2,18.207V6.911A.415.415,0,0,1,2.417,6.5H10.25a.249.249,0,0,0,.25-.25v-2A.25.25,0,0,0,10.25,4H2.438A2.441,2.441,0,0,0,0,6.437V21.062A2.44,2.44,0,0,0,2.438,23.5h8.124A2.44,2.44,0,0,0,13,21.062V15.079a.252.252,0,0,0-.045-.143A2.494,2.494,0,0,1,12.5,13.5Z"/><path d="M21,.5H15a3,3,0,0,0-3,3v5a3.005,3.005,0,0,0,1.846,2.77A.251.251,0,0,1,14,11.5v2a1,1,0,0,0,1.832.555l1.629-2.443a.248.248,0,0,1,.208-.112H21a3,3,0,0,0,3-3v-5A3,3,0,0,0,21,.5Zm1,8a1,1,0,0,1-1,1H17a1,1,0,0,0-.832.446.2.2,0,0,1-.168.09.2.2,0,0,1-.168-.09A1,1,0,0,0,15,9.5a1,1,0,0,1-1-1v-5a1,1,0,0,1,1-1h6a1,1,0,0,1,1,1Z"/><path d="M20,3.749H16a.75.75,0,0,0,0,1.5h4a.75.75,0,1,0,0-1.5Z"/><path d="M20,6.749H16a.75.75,0,1,0,0,1.5h4a.75.75,0,1,0,0-1.5Z"/></svg>