<svg xmlns="http://www.w3.org/2000/svg" viewBox="0 0 24 24"><title>meeting-monitor-webcam</title><path d="M24,1.749a1.5,1.5,0,0,0-1.5-1.5H1.5A1.5,1.5,0,0,0,0,1.749v16a1.5,1.5,0,0,0,1.5,1.5H9.7a.25.25,0,0,1,.249.275c-.167,1.7-.788,2.023-2.4,3.438a.5.5,0,0,0,.409.787h8.079a.5.5,0,0,0,.41-.787c-1.611-1.415-2.231-1.738-2.4-3.438a.25.25,0,0,1,.063-.192.254.254,0,0,1,.186-.083h8.2a1.5,1.5,0,0,0,1.5-1.5Zm-2,13a.5.5,0,0,1-.5.5H2.5a.5.5,0,0,1-.5-.5v-12a.5.5,0,0,1,.5-.5h19a.5.5,0,0,1,.5.5Z"/><path d="M13.737,10.735a1.607,1.607,0,0,1-.047-.889,4.048,4.048,0,0,0,1.048-3.071,2.752,2.752,0,1,0-5.476,0,4,4,0,0,0,1.017,3.03,1.92,1.92,0,0,1,.039.895c-2.136.791-3.411,1.574-3.787,2.326a.5.5,0,0,0,.448.723H17.021a.5.5,0,0,0,.448-.723C17.093,12.274,15.818,11.491,13.737,10.735Z"/></svg>