<svg xmlns="http://www.w3.org/2000/svg" viewBox="0 0 24 24"><title>meeting-team-laptop-1</title><path d="M24,12.067a.5.5,0,0,0-.5-.5h-.75a.25.25,0,0,1-.25-.25V2.067a2,2,0,0,0-2-2H7.5a2,2,0,0,0-2,2V6.578a.25.25,0,0,0,.272.25c.158-.014.317-.021.478-.021a5.575,5.575,0,0,1,.957.082A.25.25,0,0,0,7.5,6.643V2.567a.5.5,0,0,1,.5-.5H20a.5.5,0,0,1,.5.5v8.5a.5.5,0,0,1-.5.5H12.034a.25.25,0,0,0-.249.274c.016.174.025.35.025.529a5.533,5.533,0,0,1-.321,1.863.248.248,0,0,0,.031.228.251.251,0,0,0,.2.106H21.5A2.5,2.5,0,0,0,24,12.067Z"/><circle cx="14.292" cy="4.692" r="1.625"/><path d="M12,9.567h4.588a.408.408,0,0,0,.382-.555,2.844,2.844,0,0,0-5.353,0A.409.409,0,0,0,12,9.567Z"/><circle cx="6.247" cy="12.37" r="4.063"/><path d="M5.038,17.8A6.254,6.254,0,0,0,0,23.672a.249.249,0,0,0,.25.26H12.242a.252.252,0,0,0,.181-.077.248.248,0,0,0,.069-.183A6.254,6.254,0,0,0,7.457,17.8a6.31,6.31,0,0,0-2.419,0Z"/></svg>