<svg xmlns="http://www.w3.org/2000/svg" viewBox="0 0 24 24"><title>meeting-laptop</title><path d="M19.641,11.346a.249.249,0,0,0-.173.237v4.781a1,1,0,0,0,2,0v-5.8a.25.25,0,0,0-.442-.16A3,3,0,0,1,19.641,11.346Z"/><path d="M5.114,5.5A2.67,2.67,0,0,0,2.469,8.184V16.5a1,1,0,0,0,2,0V8.176A.667.667,0,0,1,5.122,7.5h4.1a.25.25,0,0,0,.25-.25v-1.5a.249.249,0,0,0-.25-.25Z"/><path d="M23.5,19h-8a.5.5,0,0,0-.5.5c0,.71-1.232,1.5-3,1.5s-3-.79-3-1.5a.5.5,0,0,0-.5-.5H.5a.5.5,0,0,0-.485.622A5.773,5.773,0,0,0,5.623,24H18.377a5.77,5.77,0,0,0,5.608-4.378A.5.5,0,0,0,23.5,19Z"/><path d="M23.34,1.517l-2.807.748a.25.25,0,0,1-.314-.242V1.5a1.5,1.5,0,0,0-1.5-1.5h-6.25a1.5,1.5,0,0,0-1.5,1.5v7a1.5,1.5,0,0,0,1.5,1.5h6.25a1.5,1.5,0,0,0,1.5-1.5V7.976a.249.249,0,0,1,.314-.242l2.807.748A.5.5,0,0,0,23.969,8V2a.5.5,0,0,0-.2-.4A.492.492,0,0,0,23.34,1.517Z"/></svg>