<svg id="Bold" xmlns="http://www.w3.org/2000/svg" viewBox="0 0 24 24"><title>messaging-kik-1</title><path d="M24,11c0-5.45-5.38-9.88-12-9.88S0,5.59,0,11s5.38,9.88,12,9.88a14.34,14.34,0,0,0,3.81-.51.5.5,0,0,1,.34,0l5,2.31a1,1,0,0,0,1.32-1.35l-1.6-3.19a.5.5,0,0,1,.11-.59A8.89,8.89,0,0,0,24,11ZM13.55,17a1,1,0,0,1-1.39-.28L9.89,13.29a.25.25,0,0,0-.36-.06l-.43.34a.25.25,0,0,0-.1.2v2.39a1,1,0,0,1-2,0V5.65a1,1,0,1,1,2,0V10.6a.25.25,0,0,0,.4.2l2.48-1.93a1,1,0,0,1,1.23,1.58l-1.61,1.25a.25.25,0,0,0-.05.34l2.38,3.57A1,1,0,0,1,13.55,17Zm2.95-2.83a1.5,1.5,0,1,1,1.5-1.5A1.5,1.5,0,0,1,16.5,14.15Z"/></svg>