<svg id="Bold" xmlns="http://www.w3.org/2000/svg" viewBox="0 0 24 24"><title>messaging-google-talk</title><path d="M12,.84c-6.62,0-12,4.47-12,10a9.08,9.08,0,0,0,3.33,6.9c0,1.09-.75,2.34-2.2,3.72a1,1,0,0,0,.69,1.72,1,1,0,0,0,.34-.06C5.28,22,8.81,20.73,9.56,20.58a14.52,14.52,0,0,0,2.44.21c6.62,0,12-4.47,12-10S18.62.84,12,.84Zm0,17.95a12.4,12.4,0,0,1-2.21-.2h0c-.23,0-.6-.11-5.05,1.46a5,5,0,0,0,.56-3,1,1,0,0,0-.37-.65A7.21,7.21,0,0,1,2,10.81c0-4.4,4.49-8,10-8s10,3.58,10,8S17.51,18.79,12,18.79Z"/><path d="M14.32,4.93a1,1,0,1,0-.4,2c2.38.49,4,2.17,4,4.09A3.9,3.9,0,0,1,16.2,14.1a1,1,0,0,0,1.17,1.63A5.87,5.87,0,0,0,20,11C20,8.1,17.64,5.61,14.32,4.93Z"/></svg>