<svg xmlns="http://www.w3.org/2000/svg" viewBox="0 0 24 24"><title>mobile-shopping-shop-hand</title><path d="M23.947,4.276,22.224.83A1.491,1.491,0,0,0,20.882,0H18.008a.25.25,0,0,0-.24.322l1.211,4.034A.5.5,0,0,1,19,4.5V8.373a.252.252,0,0,0,.132.221,3.423,3.423,0,0,0,.686.277A.25.25,0,0,1,20,9.112V18.5a.5.5,0,0,1-.5.5h-9a.5.5,0,0,1-.5-.5V17.25a.25.25,0,0,1,.25-.25H11.5a2.992,2.992,0,0,0,.872-.13.25.25,0,0,1,.308.155l.062.172a.5.5,0,0,0,.459.3h3.578a.5.5,0,0,0,.47-.329l1.091-3a.5.5,0,0,0-.47-.671.129.129,0,0,1-.128-.111.72.72,0,0,0-.03-.126l-.5-1.5a.75.75,0,0,0-1.424.474l.311.934a.248.248,0,0,1-.034.225.25.25,0,0,1-.2.1h-1.2a.248.248,0,0,1-.243-.192A3.005,3.005,0,0,0,11.5,11H10.25a.25.25,0,0,1-.25-.25V9.112a.251.251,0,0,1,.182-.241,3.423,3.423,0,0,0,.686-.277A.252.252,0,0,0,11,8.373V4.5a.5.5,0,0,1,.021-.144L12.232.322A.25.25,0,0,0,11.992,0H9.118A1.492,1.492,0,0,0,7.776.829L6.053,4.276A.512.512,0,0,0,6,4.5v.858a.248.248,0,0,1-.207.246A7.013,7.013,0,0,0,0,12.5v5.546A3.808,3.808,0,0,0,1.887,21.5.251.251,0,0,1,2,21.71V23a1,1,0,0,0,2,0V21a1,1,0,0,0-.521-.878C2.318,19.489,2,19.042,2,18.046V12.5A5.007,5.007,0,0,1,6.494,7.526a.249.249,0,0,1,.225.1,3.486,3.486,0,0,0,1.148.982A.251.251,0,0,1,8,8.827V10.75a.25.25,0,0,1-.25.25H6a1,1,0,0,0,0,2h5.5a1,1,0,0,1,0,2h-3a1,1,0,0,0-1,1,2.19,2.19,0,0,1-1.076,1.893,2.229,2.229,0,0,1-.3.147A1,1,0,0,0,6.5,19.967a1.012,1.012,0,0,0,.375-.073,4.205,4.205,0,0,0,.738-.387.253.253,0,0,1,.256-.011.25.25,0,0,1,.131.22V21.5A2.5,2.5,0,0,0,10.5,24h9A2.5,2.5,0,0,0,22,21.5V8.828a.249.249,0,0,1,.133-.221A3.548,3.548,0,0,0,24,5.5v-1A.512.512,0,0,0,23.947,4.276ZM16,21.5a1,1,0,1,1-1-1A1,1,0,0,1,16,21.5Z"/><path d="M12.011,4.538A.251.251,0,0,0,12,4.61V8.728a.248.248,0,0,0,.091.193,4.488,4.488,0,0,0,5.818,0A.251.251,0,0,0,18,8.729V4.61a.251.251,0,0,0-.011-.072L16.682.178A.25.25,0,0,0,16.442,0H13.558a.25.25,0,0,0-.24.178Z"/></svg>