<svg xmlns="http://www.w3.org/2000/svg" viewBox="0 0 24 24"><title>mobile-launch</title><path d="M21.582,1.7A1,1,0,0,0,20.168.287l-.946.947A.251.251,0,0,1,19,1.3c-.482-.079-.974-.156-1.244-.186A3.091,3.091,0,0,0,15.143,2.24L12.656,6.135a.25.25,0,0,1-.312.094l-.116-.051a2,2,0,0,0-2.268.454L9,7.653a.5.5,0,0,0,.254.831l1.668.372h0l2.093,2.094h0l.371,1.664a.5.5,0,0,0,.832.255l1.021-.964a2,2,0,0,0,.454-2.267l-.05-.113a.25.25,0,0,1,.094-.312l3.9-2.487a3.092,3.092,0,0,0,1.121-2.618c-.03-.269-.107-.761-.185-1.244a.252.252,0,0,1,.069-.217Zm-3.336,3.53a1.137,1.137,0,1,1,0-1.608A1.137,1.137,0,0,1,18.246,5.231Z"/><path d="M7.482,14.481a4.412,4.412,0,0,0,3.346-.91,1.681,1.681,0,0,0,0-2.662,1.681,1.681,0,0,0-2.662,0,4.425,4.425,0,0,0-.911,3.347A.248.248,0,0,0,7.482,14.481Z"/><path d="M12.125,3.007V.507a.5.5,0,0,0-.5-.5h-7a2.5,2.5,0,0,0-2.5,2.5v19a2.5,2.5,0,0,0,2.5,2.5h9a2.5,2.5,0,0,0,2.5-2.5v-5.5a1,1,0,0,0-2,0v2a.5.5,0,0,1-.5.5h-9a.5.5,0,0,1-.5-.5v-14a.5.5,0,0,1,.5-.5h7A.5.5,0,0,0,12.125,3.007Zm-3,17.5a1,1,0,1,1-1,1A1,1,0,0,1,9.125,20.508Z"/></svg>