<svg xmlns="http://www.w3.org/2000/svg" viewBox="0 0 24 24"><title>modern-architecture-building-1</title><path d="M23,22a.5.5,0,0,1-.5-.5V1.5A1.5,1.5,0,0,0,21,0H3A1.5,1.5,0,0,0,1.5,1.5V6.75a.5.5,0,0,0,.5.5H15a.5.5,0,0,1,.5.5V21.5a.5.5,0,0,1-.5.5h-.5a.5.5,0,0,1-.5-.5V17.25a.5.5,0,0,0-.5-.5H9a.5.5,0,0,1-.354-.146A.512.512,0,0,1,8.5,16.25v-7a.5.5,0,0,0-.5-.5H2a.5.5,0,0,0-.5.5V21.5A.5.5,0,0,1,1,22a1,1,0,0,0,0,2H4.5a.5.5,0,0,0,.5-.5V20.75a.5.5,0,0,1,.5-.5h3a.5.5,0,0,1,.5.5V23.5a.5.5,0,0,0,.5.5H23a1,1,0,0,0,0-2ZM6,16.5H4A.75.75,0,0,1,4,15H6a.75.75,0,0,1,0,1.5ZM6,13H4a.75.75,0,0,1,0-1.5H6A.75.75,0,0,1,6,13Zm14,6H18a.75.75,0,0,1,0-1.5h2A.75.75,0,0,1,20,19Zm0-3.5H18A.75.75,0,0,1,18,14h2a.75.75,0,0,1,0,1.5ZM20,12H18a.75.75,0,0,1,0-1.5h2A.75.75,0,0,1,20,12Zm0-3.5H18A.75.75,0,0,1,18,7h2a.75.75,0,0,1,0,1.5Z"/></svg>