<svg xmlns="http://www.w3.org/2000/svg" viewBox="0 0 24 24"><title>modern-architecture-twin-building</title><path d="M2.5,6.981h6a.5.5,0,0,0,.5-.5v-1a.5.5,0,0,0-.061-.238L6.378.5A1.038,1.038,0,0,0,4.622.5L2.061,5.243A.5.5,0,0,0,2,5.481v1A.5.5,0,0,0,2.5,6.981Z"/><path d="M15.5,6.981h6a.5.5,0,0,0,.5-.5v-1a.5.5,0,0,0-.061-.238L19.378.5a1.038,1.038,0,0,0-1.756,0L15.061,5.243A.5.5,0,0,0,15,5.481v1A.5.5,0,0,0,15.5,6.981Z"/><path d="M22,8.481H15a1,1,0,0,0-1,1v1.5a.5.5,0,0,1-.5.5h-3a.5.5,0,0,1-.5-.5v-1.5a1,1,0,0,0-1-1H2a1,1,0,0,0-1,1v14a.5.5,0,0,0,.5.5h8a.5.5,0,0,0,.5-.5v-8.5a.5.5,0,0,1,.5-.5h3a.5.5,0,0,1,.5.5v8.5a.5.5,0,0,0,.5.5h8a.5.5,0,0,0,.5-.5v-14A1,1,0,0,0,22,8.481Zm-14.75,12H3.75a.75.75,0,0,1,0-1.5h3.5a.75.75,0,0,1,0,1.5Zm0-4H3.75a.75.75,0,0,1,0-1.5h3.5a.75.75,0,0,1,0,1.5Zm0-4H3.75a.75.75,0,0,1,0-1.5h3.5a.75.75,0,1,1,0,1.5Zm13,8h-3.5a.75.75,0,0,1,0-1.5h3.5a.75.75,0,0,1,0,1.5Zm0-4h-3.5a.75.75,0,0,1,0-1.5h3.5a.75.75,0,0,1,0,1.5Zm0-4h-3.5a.75.75,0,0,1,0-1.5h3.5a.75.75,0,0,1,0,1.5Z"/></svg>