<svg xmlns="http://www.w3.org/2000/svg" viewBox="0 0 24 24"><title>modern-weapon-van-machine-gun</title><circle cx="4.5" cy="18.75" r="2"/><path d="M22.5,12.75H19a.5.5,0,0,1-.5-.5V9.457a1.5,1.5,0,0,0-.439-1.06L16.825,7.161a.251.251,0,0,1-.023-.328A.962.962,0,0,0,17,6.25V5.5a.25.25,0,0,1,.25-.25h1A.751.751,0,0,1,19,6v.5a.75.75,0,0,0,1.5,0,2.75,2.75,0,0,0-2.75-2.75h-.389a.539.539,0,0,1-.442-.272A.5.5,0,0,0,16.5,3.25h-3a1,1,0,0,0-.943.666.494.494,0,0,1-.465.334H7.25a1,1,0,0,0,0,2h5a.25.25,0,0,1,.25.25v.25a.5.5,0,0,0,.5.5h.879a.5.5,0,0,1,.353.146l2.122,2.122a.5.5,0,0,1,.146.353V12.25a.5.5,0,0,1-.5.5H14.75a.5.5,0,0,1-.5-.5V9.75a1.5,1.5,0,0,0-1.5-1.5H8.676A2.5,2.5,0,0,0,6.441,9.631L5.02,12.474a.5.5,0,0,1-.447.276H2.5A2.5,2.5,0,0,0,0,15.25v2.5a1,1,0,0,0,1,1h.036a.5.5,0,0,0,.495-.428,3,3,0,0,1,5.862-.369,1.029,1.029,0,0,0,.976.8h4.262a1.03,1.03,0,0,0,.976-.8,3,3,0,0,1,5.786,0,1.029,1.029,0,0,0,.976.8H23a1,1,0,0,0,1-1v-3.5A1.5,1.5,0,0,0,22.5,12.75Zm-10.25-1a1,1,0,0,1-1,1H7.927a.5.5,0,0,1-.447-.724L8.092,10.8a1,1,0,0,1,.894-.553H11.25a1,1,0,0,1,1,1Z"/><circle cx="16.5" cy="18.75" r="2"/></svg>