<svg xmlns="http://www.w3.org/2000/svg" viewBox="0 0 24 24"><title>money-wallet</title><path d="M19.625,18.5a3.75,3.75,0,0,1,0-7.5h2.25a.25.25,0,0,0,.25-.25V8.25a2.5,2.5,0,0,0-2.5-2.5h-17a2.5,2.5,0,0,0-2.5,2.5v13a2.5,2.5,0,0,0,2.5,2.5h17a2.5,2.5,0,0,0,2.5-2.5v-2.5a.25.25,0,0,0-.25-.25Z"/><path d="M22.625,12.5h-3a2.25,2.25,0,0,0,0,4.5h3a1.506,1.506,0,0,0,1.25-1.5V14A1.506,1.506,0,0,0,22.625,12.5Z"/><path d="M19.812,1.176a1.22,1.22,0,0,0-1.5-.884L5.44,3.757a.25.25,0,0,0,.065.491l14.76.022a.249.249,0,0,0,.243-.311Z"/></svg>