<svg xmlns="http://www.w3.org/2000/svg" viewBox="0 0 24 24"><title>monetization-browser-bag</title><path d="M9,17.75a6.153,6.153,0,0,0,6.417,6c3.63,0,6.583-2.691,6.583-6,0-3.567-2.783-5.231-4.12-6.031h0a.251.251,0,0,1-.089-.339l1.218-2.132a1,1,0,0,0-.867-1.5H12.861a1,1,0,0,0-.868,1.5l1.2,2.095a.249.249,0,0,1,.023.191.254.254,0,0,1-.12.152C11.7,12.445,9,14.107,9,17.75ZM14.55,13.3a.249.249,0,0,0,.2-.245V12.75a.75.75,0,0,1,1.5,0V13a.249.249,0,0,0,.25.25H17a.75.75,0,0,1,0,1.5H14.967a.592.592,0,0,0-.22,1.142l2.063.825a2.084,2.084,0,0,1-.36,3.98.25.25,0,0,0-.2.245v.308a.75.75,0,0,1-1.5,0V21a.25.25,0,0,0-.25-.25H14a.75.75,0,0,1,0-1.5h2.033a.592.592,0,0,0,.22-1.141l-2.063-.825a2.084,2.084,0,0,1,.36-3.981Z"/><path d="M20,.25H4a3,3,0,0,0-3,3v11.5a3,3,0,0,0,3,3H7a1,1,0,0,0,0-2H4a1,1,0,0,1-1-1V5.5a.25.25,0,0,1,.25-.25h17.5A.25.25,0,0,1,21,5.5v7.25a1,1,0,0,0,2,0V3.25A3,3,0,0,0,20,.25ZM4.75,3.75A.75.75,0,1,1,5.5,3,.749.749,0,0,1,4.75,3.75Zm2.5,0A.75.75,0,1,1,8,3,.749.749,0,0,1,7.25,3.75Zm2.5,0A.75.75,0,1,1,10.5,3,.749.749,0,0,1,9.75,3.75Z"/></svg>