<svg xmlns="http://www.w3.org/2000/svg" viewBox="0 0 24 24"><title>money-bags</title><path d="M6.2,10.209a.22.22,0,0,0-.042-.3.06.06,0,0,0-.034-.011H3.133a.251.251,0,0,0-.167.064A6.934,6.934,0,0,0,.5,15.144a4,4,0,0,0,4,4c.311,0,.6-.013.869-.037a.246.246,0,0,0,.2-.139.249.249,0,0,0-.014-.245A6.609,6.609,0,0,1,4.5,15.144,8.185,8.185,0,0,1,6.2,10.209Z"/><path d="M6.237,6.978a.7.7,0,0,0-.744-1.033,5.067,5.067,0,0,1-1.986,0,.7.7,0,0,0-.744,1.033L3.5,8.268a.251.251,0,0,0,.217.126H5.284A.251.251,0,0,0,5.5,8.268Z"/><path d="M21.034,9.958a.251.251,0,0,0-.167-.064H17.943a.246.246,0,0,0-.154.053l-.021.016a.125.125,0,0,0-.022.173A8.21,8.21,0,0,1,19.5,15.144a6.609,6.609,0,0,1-1.057,3.579.25.25,0,0,0,.188.384c.269.024.558.037.869.037a4,4,0,0,0,4-4A6.934,6.934,0,0,0,21.034,9.958Z"/><path d="M21.237,6.978a.7.7,0,0,0-.744-1.033,5.067,5.067,0,0,1-1.986,0,.7.7,0,0,0-.744,1.033l.736,1.29a.251.251,0,0,0,.217.126h1.568a.251.251,0,0,0,.217-.126Z"/><path d="M9.306,7.256a.251.251,0,0,0,.224.138h4.94a.251.251,0,0,0,.224-.138L15.523,5.6a1,1,0,0,0-1.391-1.316.814.814,0,0,1-.408.109.823.823,0,0,1-.661-.33l-.208-.277a1.068,1.068,0,0,0-1.71,0l-.208.277a.823.823,0,0,1-.661.33.814.814,0,0,1-.408-.109A1,1,0,0,0,8.477,5.6Z"/><path d="M18,15.144c0-2.8-1.74-4.817-3.6-6.2a.254.254,0,0,0-.15-.049H9.746a.254.254,0,0,0-.15.049c-1.856,1.384-3.6,3.4-3.6,6.2a5.767,5.767,0,0,0,6,5.5A5.767,5.767,0,0,0,18,15.144Zm-5.062,3.382a.25.25,0,0,0-.188.243v.158a.75.75,0,0,1-1.5,0v-.083a.25.25,0,0,0-.25-.25h-.3a.75.75,0,0,1,0-1.5h1.762a.414.414,0,0,0,.413-.413.41.41,0,0,0-.26-.383l-1.788-.716a1.908,1.908,0,0,1,.235-3.621.249.249,0,0,0,.188-.242V11.56a.75.75,0,0,1,1.5,0v.084a.25.25,0,0,0,.25.25h.3a.75.75,0,0,1,0,1.5H11.538a.413.413,0,0,0-.154.8l1.789.715a1.908,1.908,0,0,1-.235,3.621Z"/></svg>