<svg xmlns="http://www.w3.org/2000/svg" viewBox="0 0 24 24"><title>monetization-user-coins</title><path d="M3.331,7.5H1a1,1,0,0,0,0,2h.75A.25.25,0,0,1,2,9.75V10a1,1,0,0,0,2,0V9.74a.25.25,0,0,1,.229-.249A1.834,1.834,0,0,0,6,7.5C6,6.314,4.813,5.516,3.559,4.67c-.3-.2-.711-.479-1.038-.718A.251.251,0,0,1,2.669,3.5H5a1,1,0,0,0,0-2H4.25A.249.249,0,0,1,4,1.25V1A1,1,0,0,0,2,1v.259a.249.249,0,0,1-.232.249A1.792,1.792,0,0,0,0,3.5C0,4.687,1.186,5.484,2.441,6.329c.3.2.712.48,1.038.72a.25.25,0,0,1-.148.451Z"/><path d="M7.25,24h9.5a.5.5,0,0,0,.5-.5,5.251,5.251,0,0,0-2.785-4.629.249.249,0,0,1-.035-.418,4.091,4.091,0,1,0-4.93.04.251.251,0,0,1-.028.42A5.24,5.24,0,0,0,6.75,23.5.5.5,0,0,0,7.25,24Zm5.5-2.254a.75.75,0,0,1-1.5,0V20.641a.75.75,0,0,1,1.5,0ZM9.942,14.627a.251.251,0,0,1,.369-.139,5.084,5.084,0,0,0,2.653.742,5.235,5.235,0,0,0,.952-.087.094.094,0,0,1,.074.018.1.1,0,0,1,.033.069,2.088,2.088,0,1,1-4.175,0A2,2,0,0,1,9.942,14.627Z"/><path d="M21.331,7.5H19a1,1,0,0,0,0,2h.75a.25.25,0,0,1,.25.25V10a1,1,0,0,0,2,0V9.74a.25.25,0,0,1,.229-.249A1.834,1.834,0,0,0,24,7.5c0-1.186-1.187-1.984-2.441-2.83-.3-.2-.711-.479-1.038-.718a.251.251,0,0,1,.148-.452H23a1,1,0,0,0,0-2h-.75A.249.249,0,0,1,22,1.25V1a1,1,0,0,0-2,0v.259a.249.249,0,0,1-.232.249A1.792,1.792,0,0,0,18,3.5c0,1.187,1.186,1.984,2.441,2.829.3.2.712.48,1.038.72a.25.25,0,0,1-.148.451Z"/><path d="M8.5,6.5h7a1,1,0,0,0,0-2h-7a1,1,0,0,0,0,2Z"/></svg>