<svg xmlns="http://www.w3.org/2000/svg" viewBox="0 0 24 24"><title>monetization-touch-coin</title><path d="M8.5,17a8.45,8.45,0,0,0,3.864-.93.25.25,0,0,0,.136-.222V14a3,3,0,0,1,3-3,2.875,2.875,0,0,1,.823.123.25.25,0,0,0,.31-.168A8.5,8.5,0,1,0,8.5,17Zm1.75-8H7.083a2.333,2.333,0,0,1,0-4.666h.584a.25.25,0,0,0,.25-.25V3.5a.75.75,0,0,1,1.5,0v.584a.25.25,0,0,0,.25.25h2.166a.75.75,0,1,1,0,1.5H7.083a.833.833,0,0,0,0,1.666H10.25a2.334,2.334,0,0,1,0,4.667H9.667a.249.249,0,0,0-.25.25V13a.75.75,0,0,1-1.5,0v-.583a.249.249,0,0,0-.25-.25H5.5a.75.75,0,0,1,0-1.5h4.75A.834.834,0,0,0,10.25,9Z"/><path d="M14,21.16a.25.25,0,0,1-.438.165L12,19.538a1.5,1.5,0,0,0-2.309,1.915c.006.007-.1-.108,2.237,2.465a.246.246,0,0,0,.185.082H23.75a.249.249,0,0,0,.25-.25V22.5a4,4,0,0,0-4-4H17.25a.25.25,0,0,1-.25-.25V14a1.5,1.5,0,0,0-3,0Z"/></svg>