<svg id="Bold" xmlns="http://www.w3.org/2000/svg" viewBox="0 0 24 24"><title>monitor-heart-beat</title><path d="M3.758,12.392a.5.5,0,0,0,.423-.234L5.19,10.551a1.587,1.587,0,0,1,1.441-.789,1.645,1.645,0,0,1,1.378.867l.916,1.641a.25.25,0,0,0,.449-.025l1.6-3.829a1.663,1.663,0,0,1,1.7-1.05,1.723,1.723,0,0,1,1.447,1.342l1.329,5.558a.248.248,0,0,0,.223.191.25.25,0,0,0,.251-.152l.357-.854a1.673,1.673,0,0,1,1.525-1.059H21.6a.5.5,0,0,0,.464-.311A11.516,11.516,0,0,0,23,7.752C23,3.138,20.324.868,17.672.665a5.632,5.632,0,0,0-5.446,3.417.251.251,0,0,1-.452,0A5.618,5.618,0,0,0,6.328.665C3.676.868,1,3.138,1,7.752a11.516,11.516,0,0,0,.936,4.329.5.5,0,0,0,.463.311Z"/><path d="M18.39,14.392a.5.5,0,0,0-.461.307l-.862,2.058a1.669,1.669,0,0,1-1.523,1.06,1.75,1.75,0,0,1-.177-.01,1.721,1.721,0,0,1-1.446-1.342l-1.329-5.558a.25.25,0,0,0-.474-.038l-1.372,3.277A1.673,1.673,0,0,1,9.336,15.2a1.622,1.622,0,0,1-1.548-.865L6.764,12.5a.25.25,0,0,0-.43-.012l-.7,1.112a1.639,1.639,0,0,1-1.386.79H3.969a.5.5,0,0,0-.42.771,28.806,28.806,0,0,0,7.905,8.043,1.119,1.119,0,0,0,1.093,0,28.8,28.8,0,0,0,7.9-8.042.5.5,0,0,0-.42-.771Z"/></svg>