<svg id="Bold" xmlns="http://www.w3.org/2000/svg" viewBox="0 0 24 24"><title>monitor-heart-desktop</title><path d="M24,1.5A1.5,1.5,0,0,0,22.5,0H1.5A1.5,1.5,0,0,0,0,1.5v16A1.5,1.5,0,0,0,1.5,19h21A1.5,1.5,0,0,0,24,17.5V1.5ZM2,2.5A.5.5,0,0,1,2.5,2h19a.5.5,0,0,1,.5.5V7.822a.5.5,0,0,1-.5.5H18.671a.5.5,0,0,1-.471-.33L16.924,4.466a1.514,1.514,0,0,0-2.885.055L12.51,9.845a.25.25,0,0,1-.471.028L10.444,6.067a1.521,1.521,0,0,0-2.729-.245L6.126,8.108a.5.5,0,0,1-.41.214H2.5a.5.5,0,0,1-.5-.5Zm20,12a.5.5,0,0,1-.5.5H2.5a.5.5,0,0,1-.5-.5V10.822a.5.5,0,0,1,.5-.5h4a1,1,0,0,0,.821-.429L8.658,7.969a.251.251,0,0,1,.232-.105.248.248,0,0,1,.2.152l1.885,4.5A1.5,1.5,0,0,0,12.4,13.5l.072,0a1.473,1.473,0,0,0,1.382-1.081L15.33,7.266a.251.251,0,0,1,.232-.181.248.248,0,0,1,.243.165L16.547,9.3a1.487,1.487,0,0,0,1.434,1.024H21.5a.5.5,0,0,1,.5.5Z"/><path d="M14.35,20.681a.5.5,0,0,0-.385-.181h-3.93a.5.5,0,0,0-.385.181l-2.1,2.532A.5.5,0,0,0,7.96,24h8.079a.5.5,0,0,0,.41-.787Z"/></svg>