<svg id="Bold" xmlns="http://www.w3.org/2000/svg" viewBox="0 0 24 24"><title>monitor-heart-rate-1</title><path d="M2,19c.628,0,.985-.466,1.649-1.529C4.3,16.428,5.19,15,6.994,15s2.7,1.428,3.346,2.471C11,18.534,11.361,19,11.99,19s.987-.466,1.651-1.53c.651-1.042,1.544-2.47,3.347-2.47s2.7,1.428,3.351,2.47c.666,1.063,1.024,1.53,1.655,1.53s.989-.467,1.655-1.53c.1-.154.2-.316.309-.48A.244.244,0,0,0,24,16.852V10.227a.249.249,0,0,0-.25-.25H18.481A1.507,1.507,0,0,1,17.04,8.892l0-.008L16.31,6.656a.25.25,0,0,0-.48.014l-1.47,5.677,0,.011a1.485,1.485,0,0,1-1.384,1.14l-.077,0a1.5,1.5,0,0,1-1.424-1.043l0-.012L9.592,7.481a.251.251,0,0,0-.446-.045l-1.3,2.072A1,1,0,0,1,7,9.977H.25a.249.249,0,0,0-.25.25v6.63A.251.251,0,0,0,.041,17c.108.163.211.324.306.476C1.012,18.534,1.369,19,2,19Z"/><path d="M21.994,21c-1.8,0-2.7-1.428-3.35-2.47C17.978,17.467,17.62,17,16.988,17s-.986.466-1.651,1.53C14.686,19.572,13.794,21,11.99,21S9.3,19.572,8.644,18.53C7.979,17.466,7.623,17,6.994,17s-.986.466-1.65,1.529C4.693,19.572,3.8,21,2,21a2.908,2.908,0,0,1-1.613-.47A.249.249,0,0,0,0,20.74v.76A2.5,2.5,0,0,0,2.5,24h19A2.5,2.5,0,0,0,24,21.5v-.764a.25.25,0,0,0-.386-.21A2.912,2.912,0,0,1,21.994,21Z"/><path d="M6.308,7.977a.249.249,0,0,0,.212-.118L8.187,5.2,8.2,5.186a1.487,1.487,0,0,1,1.411-.8,1.507,1.507,0,0,1,1.345,1.04l0,.012,1.578,4.174a.249.249,0,0,0,.475-.026L14.53,3.715l0-.011a1.479,1.479,0,0,1,1.4-1.14h.01a1.473,1.473,0,0,1,1.489,1.084l0,.009L18.788,7.8a.25.25,0,0,0,.238.173H23.75a.25.25,0,0,0,.25-.25V2.5A2.5,2.5,0,0,0,21.5,0H2.5A2.5,2.5,0,0,0,0,2.5V7.727a.25.25,0,0,0,.25.25Z"/></svg>