<svg id="Bold" xmlns="http://www.w3.org/2000/svg" viewBox="0 0 24 24"><title>movie-cinema-watch-1</title><path d="M21,0H3A3,3,0,0,0,0,3v9a3,3,0,0,0,3,3H21a3,3,0,0,0,3-3V3A3,3,0,0,0,21,0Zm1,12a1,1,0,0,1-1,1H3a1,1,0,0,1-1-1V3A1,1,0,0,1,3,2H21a1,1,0,0,1,1,1Z"/><path d="M9.542,3.786a.377.377,0,0,0-.409.058.574.574,0,0,0-.192.442v6.428a.578.578,0,0,0,.192.443.378.378,0,0,0,.409.057l5.574-2.949a.883.883,0,0,0,0-1.53Z"/><circle cx="3.502" cy="18.203" r="2.199"/><path d="M3.5,21.2a3.589,3.589,0,0,0-3.26,2.089A.5.5,0,0,0,.7,24H6.308a.5.5,0,0,0,.453-.71A3.588,3.588,0,0,0,3.5,21.2Z"/><circle cx="20.502" cy="18.199" r="2.199"/><path d="M20.5,21.2a3.589,3.589,0,0,0-3.26,2.089A.5.5,0,0,0,17.7,24h5.612a.5.5,0,0,0,.453-.71A3.588,3.588,0,0,0,20.5,21.2Z"/><circle cx="12.002" cy="18.199" r="2.199"/><path d="M12,21.2a3.589,3.589,0,0,0-3.26,2.089A.5.5,0,0,0,9.2,24h5.612a.5.5,0,0,0,.453-.71A3.588,3.588,0,0,0,12,21.2Z"/></svg>