<svg xmlns="http://www.w3.org/2000/svg" viewBox="0 0 24 24"><title>moving-walkway-luggage</title><circle cx="16.909" cy="2.708" r="2.445"/><path d="M23.022,12.489a.978.978,0,1,0,0-1.956h-2.2a.978.978,0,0,0-.978.978h0a.978.978,0,0,0,.978.978Z"/><path d="M8.62,11.626l0-.02a.961.961,0,0,0-.959-1.073H.978a.978.978,0,0,0,0,1.956H7.661A.968.968,0,0,0,8.62,11.626Z"/><path d="M9.048,17.38H8.8a.245.245,0,0,0-.245.244v5.869a.245.245,0,0,0,.245.244h.245a.979.979,0,0,0,.978-.978v-4.4A.979.979,0,0,0,9.048,17.38Z"/><path d="M1.223,17.38a.978.978,0,0,0-.978.978v4.4a.978.978,0,0,0,.978.978h.244a.245.245,0,0,0,.245-.244V17.624a.245.245,0,0,0-.245-.244Z"/><path d="M7.58,16.972a2.445,2.445,0,1,0-4.89,0v6.521a.244.244,0,0,0,.244.244h4.4a.244.244,0,0,0,.244-.244Zm-1.467.163a.245.245,0,0,1-.244.245H4.4a.245.245,0,0,1-.244-.245v-.163a.978.978,0,1,1,1.956,0Z"/><path d="M18.376,8.088A1.468,1.468,0,0,0,16.046,6.9l-5.38,3.913a1.467,1.467,0,1,0,1.726,2.372l2.661-1.935a.245.245,0,0,1,.389.2V21.537a.245.245,0,0,1-.245.244H11.982a.978.978,0,0,0,0,1.956h11.04a.978.978,0,0,0,0-1.956h-4.4a.244.244,0,0,1-.244-.244Z"/></svg>