<svg id="Bold" xmlns="http://www.w3.org/2000/svg" viewBox="0 0 24 24"><title>movie-star</title><path d="M23.383,10.315a1.937,1.937,0,0,0,.474-2.139A1.911,1.911,0,0,0,22.041,7H17.248a1,1,0,0,1-.9-.569L13.8,1.108,13.8,1.1a2.024,2.024,0,0,0-3.6.01L7.649,6.432a1,1,0,0,1-.9.568H1.956A1.907,1.907,0,0,0,.143,8.173a1.937,1.937,0,0,0,.469,2.136l4.275,4.382a1,1,0,0,1,.2,1.1L2.73,21.215a1.951,1.951,0,0,0,.492,2.258A2.008,2.008,0,0,0,4.571,24a2.037,2.037,0,0,0,1-.268l5.934-3.342a1,1,0,0,1,.982,0l5.934,3.342a2,2,0,0,0,2.353-.259,1.953,1.953,0,0,0,.492-2.258l-2.359-5.427a1,1,0,0,1,.2-1.1ZM12,17.5A2.5,2.5,0,1,1,14.5,15,2.5,2.5,0,0,1,12,17.5Zm2.5-6.75h-5a.75.75,0,0,1,0-1.5h5a.75.75,0,1,1,0,1.5Z"/></svg>