<svg id="Bold" xmlns="http://www.w3.org/2000/svg" viewBox="0 0 24 24"><title>natural-disaster-fire</title><path d="M21.619,13.113a1,1,0,0,0-.592-.888,1.018,1.018,0,0,0-1.059.14,8.116,8.116,0,0,1-2.39,1.38.25.25,0,0,1-.293-.373l3.6-5.429A1.418,1.418,0,0,0,18.9,6L14.7,8.913a.25.25,0,0,1-.357-.334,28.576,28.576,0,0,1,5.1-5.991A1.485,1.485,0,0,0,18.009.065C12.07,1.86,4.242,8.6,2.653,14.921a6.68,6.68,0,0,0,1.6,6.688A7.72,7.72,0,0,0,9.816,24a9.619,9.619,0,0,0,3.834-.855C18.014,21.25,21.738,16.561,21.619,13.113ZM14.59,15.042a7.316,7.316,0,0,1-2.736,4.76,3.707,3.707,0,0,1-5.235-.523,4.048,4.048,0,0,1,0-5.716A3.785,3.785,0,0,1,9.08,12.379a.516.516,0,0,1,.512.573l-.26,2.34a.5.5,0,0,0,.446.559,3.88,3.88,0,0,0,3.463-1.411.772.772,0,0,1,1.349.6Z"/></svg>