<svg id="Bold" xmlns="http://www.w3.org/2000/svg" viewBox="0 0 24 24"><title>natural-disaster-earthquake</title><path d="M1.766,8.613H3.25a.25.25,0,0,1,.25.25v1.75a1,1,0,0,0,2,0V8.863a.25.25,0,0,1,.25-.25H7.234a1,1,0,0,0,.916-1.4v0L5.415.985a1,1,0,0,0-1.831,0L.85,7.212a1,1,0,0,0,.916,1.4Z"/><path d="M16.766,8.613H18.25a.25.25,0,0,1,.25.25v1.75a1,1,0,0,0,2,0V8.863a.25.25,0,0,1,.25-.25h1.484a1,1,0,0,0,.916-1.4v0L20.415.985a1,1,0,0,0-1.831,0L15.85,7.212a1,1,0,0,0,.916,1.4Z"/><path d="M23.5,12.613H14.784a.248.248,0,0,0-.192.09L13.32,14.229a.5.5,0,0,0,.064.7l2.136,1.78a.5.5,0,0,1-.015.781L10.947,21a.5.5,0,0,1-.769-.583l1.16-2.9a.5.5,0,0,0-.216-.62L8.387,15.334a.5.5,0,0,1-.211-.631l.746-1.742a.249.249,0,0,0-.23-.348H.5a.5.5,0,0,0-.5.5v10a.5.5,0,0,0,.5.5h23a.5.5,0,0,0,.5-.5v-10A.5.5,0,0,0,23.5,12.613Z"/></svg>