<svg id="Bold" xmlns="http://www.w3.org/2000/svg" viewBox="0 0 24 24"><title>natural-disaster-flood-building</title><path d="M19.564,16.822A4.637,4.637,0,0,0,23,18.281a1,1,0,0,0,0-2,2.774,2.774,0,0,1-2.43-1.427,1,1,0,0,0-.807-.566,1.016,1.016,0,0,0-.9.4,4.617,4.617,0,0,1-1.237,1.073.251.251,0,0,0-.123.216v1.672a.25.25,0,0,0,.344.232A6.359,6.359,0,0,0,19.564,16.822Z"/><path d="M5.144,14.7a1.012,1.012,0,0,0-.9-.41,1,1,0,0,0-.811.569A2.75,2.75,0,0,1,1,16.281a1,1,0,0,0,0,2,4.637,4.637,0,0,0,3.436-1.459,6.359,6.359,0,0,0,1.72,1.061.249.249,0,0,0,.344-.232V15.979a.252.252,0,0,0-.123-.216A4.592,4.592,0,0,1,5.144,14.7Z"/><path d="M19.564,11.1A4.638,4.638,0,0,0,23,12.563a1,1,0,0,0,0-2,2.772,2.772,0,0,1-2.43-1.428,1,1,0,0,0-.807-.566,1.012,1.012,0,0,0-.9.4,4.656,4.656,0,0,1-1.237,1.073.251.251,0,0,0-.123.215v1.672a.249.249,0,0,0,.344.232A6.334,6.334,0,0,0,19.564,11.1Z"/><path d="M5.144,8.977a1.013,1.013,0,0,0-.9-.411,1,1,0,0,0-.811.569A2.75,2.75,0,0,1,1,10.563a1,1,0,0,0,0,2A4.638,4.638,0,0,0,4.436,11.1a6.334,6.334,0,0,0,1.72,1.061.249.249,0,0,0,.344-.232V10.26a.251.251,0,0,0-.123-.215A4.612,4.612,0,0,1,5.144,8.977Z"/><path d="M17.456,23.343a.25.25,0,0,0,.338.279,6.346,6.346,0,0,0,1.77-1.081A4.641,4.641,0,0,0,23,24a1,1,0,0,0,0-2,2.772,2.772,0,0,1-2.43-1.428,1,1,0,0,0-.807-.565,1.014,1.014,0,0,0-.9.4,4.637,4.637,0,0,1-1.237,1.073.251.251,0,0,0-.123.215v1.178A2.492,2.492,0,0,1,17.456,23.343Z"/><path d="M6.5,21.7a.251.251,0,0,0-.123-.215,4.612,4.612,0,0,1-1.233-1.068,1.01,1.01,0,0,0-.9-.41,1,1,0,0,0-.811.568A2.748,2.748,0,0,1,1,22a1,1,0,0,0,0,2,4.641,4.641,0,0,0,3.436-1.459,6.346,6.346,0,0,0,1.77,1.081.253.253,0,0,0,.252-.04.25.25,0,0,0,.086-.239,2.492,2.492,0,0,1-.044-.468Z"/><path d="M16,2a2,2,0,0,0-2-2H10A2,2,0,0,0,8,2V23a1,1,0,0,0,2,0V2.5a.5.5,0,0,1,.5-.5h3a.5.5,0,0,1,.5.5V5.75a.25.25,0,0,1-.25.25H12.5a1,1,0,0,0,0,2h1.25a.25.25,0,0,1,.25.25v2.5a.25.25,0,0,1-.25.25H12.5a1,1,0,0,0,0,2h1.25a.25.25,0,0,1,.25.25v2.5a.25.25,0,0,1-.25.25H12.5a1,1,0,0,0,0,2h1.25a.25.25,0,0,1,.25.25V23a1,1,0,0,0,2,0Z"/></svg>