<svg id="Bold" xmlns="http://www.w3.org/2000/svg" viewBox="0 0 24 24"><title>nautic-sports-surfing</title><circle cx="6.998" cy="3.479" r="2.5"/><path d="M12.716,9.156a.253.253,0,0,0-.052-.191A4.028,4.028,0,0,0,9.5,7.479h-5a3.913,3.913,0,0,0-4,3.89v3.61a1.25,1.25,0,0,0,2.5,0v-3.86a.5.5,0,0,1,1,0v11.61a1.25,1.25,0,0,0,2.5,0v-6.25a.5.5,0,0,1,1,0v6.25a1.25,1.25,0,0,0,2.5,0V11.119a.5.5,0,0,1,1,0,4.522,4.522,0,0,0,1.117,3.071.253.253,0,0,0,.285.065.25.25,0,0,0,.152-.249A22.632,22.632,0,0,1,12.716,9.156Z"/><path d="M23.135,16.226A21.079,21.079,0,0,0,19.994.652a1.568,1.568,0,0,0-2.514,0,21.086,21.086,0,0,0-3.136,15.593l1.257,6.1a2,2,0,0,0,1.966,1.633h2.34a2,2,0,0,0,1.964-1.62Zm-6.72.767a.25.25,0,0,1-.423-.135L15.641,14.8a.249.249,0,0,1,.069-.219l5.6-5.6a.249.249,0,0,1,.423.136,20.519,20.519,0,0,1,.24,2.2.253.253,0,0,1-.073.19Z"/></svg>