<svg id="Bold" xmlns="http://www.w3.org/2000/svg" viewBox="0 0 24 24"><title>nautic-sports-water-skiing</title><path d="M13.5,8.979H23a1,1,0,1,0,0-2H13.5a1,1,0,0,0,0,2Z"/><circle cx="2.504" cy="2.5" r="2.5"/><path d="M9.176,18.254a4.543,4.543,0,0,0-2.492-3.86l-1.365-.683a1.51,1.51,0,0,1-.763-.9L3.694,9.8a.25.25,0,0,1,.239-.323H9.564a1.5,1.5,0,0,0,0-3h-8a1.541,1.541,0,0,0-1.5,1.941l1.626,5.273a4.514,4.514,0,0,0,2.289,2.7l1.364.682a1.492,1.492,0,0,1,.823,1.2l.036.38a.249.249,0,0,0,.113.186c.673.436,1.128,1.639,2.246,1.639a2.793,2.793,0,0,0,1.889-1.016,2.5,2.5,0,0,1,2.026-1.035,2.467,2.467,0,0,1,1.132.285.248.248,0,0,0,.2.014l1.712-.6c4.7-1.653,4.79-1.685,5.744-2.712.124-.134.269-.29.457-.478A1,1,0,1,0,20.3,13.522c-.21.21-.371.383-.508.532-.619.665-.619.665-4.943,2.186C13.642,16.666,9.51,18.134,9.176,18.254Z"/><path d="M22.93,21.953c-1.58.119-2.666-1.557-2.675-1.569a1.048,1.048,0,0,0-1.715.022,3.372,3.372,0,0,1-2.753,1.558,2.806,2.806,0,0,1-2.406-1.482,1.043,1.043,0,0,0-1.716-.156,4.3,4.3,0,0,1-3.1,1.638,3.56,3.56,0,0,1-2.76-1.58,1.041,1.041,0,0,0-1.637-.091c-.014.019-1.464,1.831-3.11,1.7A.974.974,0,0,0,0,22.942C-.008,23.13.044,24,1.17,24A5.851,5.851,0,0,0,4.9,22.393,5.243,5.243,0,0,0,8.56,23.964a5.863,5.863,0,0,0,3.811-1.5,4.576,4.576,0,0,0,3.416,1.5,5.155,5.155,0,0,0,3.622-1.5,4.769,4.769,0,0,0,3.66,1.482A1,1,0,0,0,24,22.882,1.016,1.016,0,0,0,22.93,21.953Z"/></svg>