<svg xmlns="http://www.w3.org/2000/svg" viewBox="0 0 24 24"><title>navigation-smartphone-finger</title><path d="M12,13a.5.5,0,0,0,.354-.146C12.543,12.664,17,8.171,17,5A5,5,0,0,0,7,5c0,3.171,4.457,7.664,4.646,7.854A.5.5,0,0,0,12,13ZM10.25,5A1.75,1.75,0,1,1,12,6.75,1.752,1.752,0,0,1,10.25,5Z"/><path d="M19,19H17.75a.25.25,0,0,1-.25-.25v-4a1.75,1.75,0,0,0-3.5,0v4.906a.25.25,0,0,1-.454.146l-.115-.162a.226.226,0,0,1-.016-.026,1.55,1.55,0,0,0-2.736,1.458l1.4,2.66a.5.5,0,0,0,.442.268H22a.5.5,0,0,0,.5-.5v-1A3.5,3.5,0,0,0,19,19Z"/><path d="M8.25,17h-4A.25.25,0,0,1,4,16.75V5.25A.25.25,0,0,1,4.25,5h.5a1,1,0,0,0,0-2H2.5A2.5,2.5,0,0,0,0,5.5v11A2.5,2.5,0,0,0,2.5,19H8.25a1,1,0,0,0,0-2Z"/><path d="M21.5,3H19.25a1,1,0,0,0,0,2h.5a.25.25,0,0,1,.25.25V17.207a.5.5,0,0,0,.364.481,4.961,4.961,0,0,1,1.8.941.5.5,0,0,0,.562.049A2.506,2.506,0,0,0,24,16.5V5.5A2.5,2.5,0,0,0,21.5,3Z"/></svg>