<svg xmlns="http://www.w3.org/2000/svg" viewBox="0 0 24 24"><title>network-user</title><path d="M12.093,23.877c.183,0,.36,0,.542-.011a.969.969,0,0,0-.076-1.936c-.092,0-.183.006-.275.007a.251.251,0,0,1-.208-.107,23.652,23.652,0,0,1-1.888-3.166.25.25,0,0,1,.225-.359h.731a.97.97,0,0,0,0-1.939H9.438a.248.248,0,0,1-.238-.173,15.851,15.851,0,0,1-.717-3.429.25.25,0,0,1,.249-.274H10.9a.969.969,0,1,0,0-1.938H8.724a.251.251,0,0,1-.184-.081.246.246,0,0,1-.065-.191,13.362,13.362,0,0,1,.434-2.452.251.251,0,0,1,.241-.183h2.72a.969.969,0,1,0,0-1.938H10.1a.249.249,0,0,1-.212-.119.246.246,0,0,1-.011-.242,16,16,0,0,1,2.11-3.185.253.253,0,0,1,.182-.089c.175-.006.455-.017.571-.01.537.037.8-.39.823-.927A.968.968,0,0,0,12.638.126c-.119-.005-.237,0-.356,0l-.154.005A11.638,11.638,0,0,0,.26,11.611,11.979,11.979,0,0,0,12.093,23.877ZM9.287,21.053a.25.25,0,0,1-.3.361,9.878,9.878,0,0,1-4.11-2.69.25.25,0,0,1,.184-.419h2.7A.25.25,0,0,1,8,18.458,23.027,23.027,0,0,0,9.287,21.053ZM4.686,5.288A9.765,9.765,0,0,1,8.663,2.665a.25.25,0,0,1,.3.368,16.537,16.537,0,0,0-1.3,2.518.249.249,0,0,1-.231.156H4.87a.25.25,0,0,1-.184-.419Zm-1.642,2.5a.252.252,0,0,1,.228-.147h3.4a.25.25,0,0,1,.244.306,15.5,15.5,0,0,0-.356,2.369.249.249,0,0,1-.249.232H2.56a.249.249,0,0,1-.19-.087.254.254,0,0,1-.058-.2A9.562,9.562,0,0,1,3.044,7.792ZM3.2,16.224a10.286,10.286,0,0,1-.954-3.46.251.251,0,0,1,.064-.192A.254.254,0,0,1,2.5,12.49H6.315a.251.251,0,0,1,.249.231,17.593,17.593,0,0,0,.588,3.329.249.249,0,0,1-.241.316H3.428A.251.251,0,0,1,3.2,16.224Z"/><path d="M18.412,8.6a5.337,5.337,0,0,0-5.33,5.331v3.391a.484.484,0,0,0,.484.485h1.747a.249.249,0,0,1,.249.229l.429,5.142a.484.484,0,0,0,.482.443H20.35a.483.483,0,0,0,.482-.443l.429-5.142a.249.249,0,0,1,.249-.229h1.747a.485.485,0,0,0,.485-.485V13.935A5.337,5.337,0,0,0,18.412,8.6Zm.726,6.25a.727.727,0,0,1-1.453,0V11.027a.727.727,0,0,1,1.453,0Z"/><path d="M18.412,8.12a3.877,3.877,0,1,0-3.877-3.876A3.88,3.88,0,0,0,18.412,8.12ZM16.178,3.328a.251.251,0,0,1,.371-.109,5.19,5.19,0,0,0,2.929.9,5.2,5.2,0,0,0,1.066-.114.235.235,0,0,1,.2.048.242.242,0,0,1,.089.187,2.423,2.423,0,0,1-4.845,0A2.348,2.348,0,0,1,16.178,3.328Z"/></svg>