<svg id="Bold" xmlns="http://www.w3.org/2000/svg" viewBox="0 0 24 24"><title>night-moon-new-1</title><path d="M15.122,2.184A11.572,11.572,0,0,0,4.434.668a1,1,0,0,0,0,1.9,9.943,9.943,0,0,1,0,18.878,1,1,0,0,0,0,1.9A12.489,12.489,0,0,0,8.387,24a11.438,11.438,0,0,0,6.749-2.21A12.311,12.311,0,0,0,20.25,12,12.35,12.35,0,0,0,15.122,2.184ZM13.966,20.167a9.453,9.453,0,0,1-5.319,1.824.25.25,0,0,1-.157-.45A11.936,11.936,0,0,0,8.48,2.458a.25.25,0,0,1,.156-.45,9.424,9.424,0,0,1,5.316,1.8,10.315,10.315,0,0,1,4.3,8.2A10.278,10.278,0,0,1,13.966,20.167Z"/></svg>