<svg id="Bold" xmlns="http://www.w3.org/2000/svg" viewBox="0 0 24 24"><title>night-moon-new</title><path d="M19.566,23.34a1,1,0,0,0,0-1.9,9.943,9.943,0,0,1,0-18.878,1,1,0,0,0,0-1.9A11.57,11.57,0,0,0,8.878,2.184,12.35,12.35,0,0,0,3.75,12,12.311,12.311,0,0,0,8.864,21.79,11.438,11.438,0,0,0,15.613,24,12.484,12.484,0,0,0,19.566,23.34Zm-9.532-3.173A10.278,10.278,0,0,1,5.75,12a10.315,10.315,0,0,1,4.3-8.2,9.38,9.38,0,0,1,5.541-1.8.179.179,0,0,1,.105.324,11.937,11.937,0,0,0-.185,19.212.25.25,0,0,1-.157.45A9.465,9.465,0,0,1,10.034,20.167Z"/></svg>