<svg id="Bold" xmlns="http://www.w3.org/2000/svg" viewBox="0 0 24 24"><title>night-stand-retro</title><circle cx="12" cy="10.25" r="1"/><circle cx="12" cy="15.25" r="1"/><path d="M21.5,19c0-2.28,2.36-9.36-.33-13.76A.52.52,0,0,0,20.74,5H3.26a.52.52,0,0,0-.43.24C.12,9.66,2.5,16.68,2.5,19a6.56,6.56,0,0,1-1.35,3.71.48.48,0,0,0-.092.271.505.505,0,0,0,.5.519h.757a.5.5,0,0,0,.336-.13,5.812,5.812,0,0,0,1.734-3.176.5.5,0,0,1,.3-.367C7.9,18.479,8.384,21.5,12,21.5s4.106-3.021,7.315-1.673a.5.5,0,0,1,.3.367,5.813,5.813,0,0,0,1.735,3.177.5.5,0,0,0,.335.129h.757a.522.522,0,0,0,.45-.27.511.511,0,0,0-.04-.52A6.56,6.56,0,0,1,21.5,19Zm-3-3a1,1,0,0,1-1,1H6.5a1,1,0,0,1-1-1V14a1,1,0,0,1,1-1h11a1,1,0,0,1,1,1Zm0-5a1,1,0,0,1-1,1H6.5a1,1,0,0,1-1-1V9a1,1,0,0,1,1-1h11a1,1,0,0,1,1,1Z"/><path d="M22.5.5H1.5a1.5,1.5,0,0,0,0,3h21a1.5,1.5,0,0,0,0-3Z"/></svg>