<svg id="Bold" xmlns="http://www.w3.org/2000/svg" viewBox="0 0 24 24"><title>night-moon-gibbous-1</title><path d="M17.1,2.713A11.716,11.716,0,0,0,7.333.208,1,1,0,0,0,6.876.42C6.7.567,2.5,4.118,2.5,12S6.7,23.437,6.874,23.585a1.008,1.008,0,0,0,.458.211,12.531,12.531,0,0,0,2.242.2,11.709,11.709,0,0,0,7.576-2.763A12.014,12.014,0,0,0,21.5,12,12.261,12.261,0,0,0,17.1,2.713ZM15.868,19.7a9.8,9.8,0,0,1-7.819,2.186.251.251,0,0,1-.14-.071C7.087,20.992,4.5,17.923,4.5,12S7.089,3.012,7.91,2.187a.244.244,0,0,1,.14-.07,9.712,9.712,0,0,1,7.773,2.132A10.237,10.237,0,0,1,19.5,12,10.016,10.016,0,0,1,15.868,19.7Z"/></svg>