<svg id="Bold" xmlns="http://www.w3.org/2000/svg" viewBox="0 0 24 24"><title>night-moon-begin</title><path d="M4.935,16.937a1,1,0,1,0,1.414-1.414A8,8,0,0,1,8.911,2.484a.25.25,0,0,1,.346.235c0,.049,0,.1,0,.147a9.761,9.761,0,0,0,9.75,9.75h.143a.25.25,0,0,1,.234.347,8.026,8.026,0,0,1-2.248,3.043,1,1,0,1,0,1.283,1.534,10.005,10.005,0,0,0,3.439-5.952,1,1,0,0,0-1.2-1.148,7.752,7.752,0,0,1-9.225-9.226,1,1,0,0,0-1.149-1.2,10,10,0,0,0-5.35,16.922Z"/><path d="M22.994,22H1.006a1,1,0,0,0,0,2H22.994a1,1,0,0,0,0-2Z"/><path d="M12.6,12.631a.772.772,0,0,0-1.2,0L8.655,16.3h0c-.015.02-.028.041-.041.062A.749.749,0,0,0,9.256,17.5h1.5a.25.25,0,0,1,.25.25V20a1,1,0,0,0,2,0V17.75a.25.25,0,0,1,.25-.25h1.5a.746.746,0,0,0,.672-.416.756.756,0,0,0,.074-.413.743.743,0,0,0-.146-.37Z"/></svg>