<svg id="Bold" xmlns="http://www.w3.org/2000/svg" viewBox="0 0 24 24"><title>non-gmo-fire</title><path d="M18.958,10.8a.5.5,0,0,0-.483.129L7.427,21.978a.5.5,0,0,0,.089.778A8.366,8.366,0,0,0,11.971,24a7.292,7.292,0,0,0,6.237-2.98c1.711-2.4,2.105-6.094,1.1-9.865A.5.5,0,0,0,18.958,10.8Z"/><path d="M22.371,2.709a1,1,0,0,0-1.414,0L17.709,5.958a.5.5,0,0,1-.772-.08A17.153,17.153,0,0,0,10.7.119a1.015,1.015,0,0,0-1.378,1.36,10.609,10.609,0,0,1,.008,9.785.5.5,0,0,1-.869-.011,6.047,6.047,0,0,1-.458-1.061,1,1,0,0,0-.694-.668,1.017,1.017,0,0,0-.94.212,7.942,7.942,0,0,0-2.38,8.286,8.8,8.8,0,0,0,.315.9.5.5,0,0,1-.109.544l-2.57,2.57a1,1,0,1,0,1.414,1.414L22.371,4.123A1,1,0,0,0,22.371,2.709Z"/></svg>