<svg xmlns="http://www.w3.org/2000/svg" viewBox="0 0 24 24"><title>office-lamp</title><path d="M19.824,12.75a.249.249,0,0,0-.209-.047.247.247,0,0,0-.169.132l-1.87,3.739a.25.25,0,0,0,.147.35,8.553,8.553,0,0,1,1.349.562.259.259,0,0,0,.193.016.253.253,0,0,0,.146-.126l1.823-3.645a.25.25,0,0,0-.159-.353A3.488,3.488,0,0,1,19.824,12.75Z"/><path d="M13.625,4.593a.251.251,0,0,0-.2-.012.247.247,0,0,0-.144.139,4.492,4.492,0,0,1-.747,1.214.251.251,0,0,0,.075.386l5.648,2.892a.251.251,0,0,0,.355-.155,3.486,3.486,0,0,1,.64-1.245.25.25,0,0,0-.082-.379Z"/><circle cx="21.982" cy="9.997" r="2"/><path d="M11.281.875a3,3,0,0,0-4.243,0l-.8.8a.248.248,0,0,1-.212.07l-3.918-.56A1.836,1.836,0,0,0,.556,4.293L7.863,11.6a1.835,1.835,0,0,0,3.111-1.556l-.559-3.918a.252.252,0,0,1,.07-.212l.8-.795A3.006,3.006,0,0,0,11.281.875Z"/><path d="M8.715,22.034A1.5,1.5,0,0,0,10.142,24h9.681a1.5,1.5,0,0,0,1.427-1.963A6.44,6.44,0,0,0,14.982,18,6.439,6.439,0,0,0,8.715,22.034Z"/></svg>