<svg xmlns="http://www.w3.org/2000/svg" viewBox="0 0 24 24"><title>office-employee</title><path d="M22.867,21.953H19.01a.251.251,0,0,1-.242-.315l1.322-4.956a.879.879,0,0,0-.18-.795,1.014,1.014,0,0,0-.778-.356H4.868a1.014,1.014,0,0,0-.778.356.879.879,0,0,0-.18.795l1.322,4.956a.251.251,0,0,1-.242.315H1.133a.988.988,0,0,0,0,1.975H22.867a.988.988,0,0,0,0-1.975ZM12,18a1.235,1.235,0,1,1-1.235,1.235A1.235,1.235,0,0,1,12,18Z"/><path d="M6.279,13.565a.5.5,0,0,0,.5.485H17.216a.5.5,0,0,0,.5-.485,5.724,5.724,0,0,0-3.2-5.141A.25.25,0,0,1,14.482,8a4.386,4.386,0,1,0-5.052.037.25.25,0,0,1-.029.428A5.725,5.725,0,0,0,6.279,13.565ZM12,9.668a.741.741,0,0,1,.741.741v1.216a.741.741,0,1,1-1.482,0V10.409A.741.741,0,0,1,12,9.668ZM9.652,3.691a.247.247,0,0,1,.155-.154.25.25,0,0,1,.216.026,5.606,5.606,0,0,0,3.038.893,5.613,5.613,0,0,0,1.131-.118.121.121,0,0,1,.1.024.123.123,0,0,1,.045.094,2.41,2.41,0,1,1-4.819,0A2.306,2.306,0,0,1,9.652,3.691Z"/></svg>