<svg xmlns="http://www.w3.org/2000/svg" viewBox="0 0 24 24"><title>office-shelf-corner</title><path d="M23.109,10.791a1,1,0,1,0-1.218-1.586L18.1,12.123a.251.251,0,0,0-.1.2v1.892a.251.251,0,0,0,.4.2Z"/><path d="M21.886,16.209,18.1,19.161a.251.251,0,0,0-.1.2v1.9a.25.25,0,0,0,.4.2l4.71-3.669a1,1,0,1,0-1.228-1.578Z"/><rect x="0.5" y="10.748" width="16" height="5.5" rx="0.25" ry="0.25"/><path d="M.75,17.748A.25.25,0,0,0,.5,18v4.25a1.5,1.5,0,0,0,1.5,1.5H15a1.5,1.5,0,0,0,1.5-1.5V18a.25.25,0,0,0-.25-.25Z"/><path d="M.5,7.268V9a.25.25,0,0,0,.25.25h15.5A.25.25,0,0,0,16.5,9v-.75a1.5,1.5,0,0,0-1.5-1.5H5.029a.25.25,0,0,1-.134-.461L6.54,5.248l4.994-3.154A1,1,0,1,0,10.466.4L2.794,5.248.966,6.4A1,1,0,0,0,.5,7.268Z"/></svg>