<svg xmlns="http://www.w3.org/2000/svg" viewBox="0 0 24 24"><title>office-tape-1</title><path d="M23,12.087a2.5,2.5,0,0,0-2.869-1.736L7.97,12.7a2.494,2.494,0,0,1-2.243-.686L4.232,10.524A3.516,3.516,0,0,0,1.758,9.5H1a1,1,0,0,0-1,1,4.615,4.615,0,0,0,.136,1.107l1.5,6A2.5,2.5,0,0,0,4.062,19.5H21.146a2.489,2.489,0,0,0,2.321-1.571l.312-.779a3.471,3.471,0,0,0,.056-2.273Z"/><path d="M.929,8.5h0l7.951.564a.25.25,0,0,1,.228.3A6.039,6.039,0,0,0,9,10.5q0,.091,0,.183a.25.25,0,0,0,.3.238l1.61-.311A.112.112,0,0,0,11,10.5a4,4,0,0,1,7.669-1.592.251.251,0,0,0,.277.146l.9-.174a4.126,4.126,0,0,1,.581-.069.247.247,0,0,0,.2-.11.254.254,0,0,0,.028-.224A6,6,0,0,0,10.112,7.021a.25.25,0,0,1-.221.105L1.071,6.5h0a1,1,0,0,0-.141,2Z"/></svg>