<svg xmlns="http://www.w3.org/2000/svg" viewBox="0 0 24 24"><title>office-drawing-board</title><path d="M22.316,22.106h-.85a.25.25,0,0,1-.25-.25V4.613a.256.256,0,0,1,.019-.1l1.011-2.465a1.5,1.5,0,0,0-1.4-2.047H7A1.49,1.49,0,0,0,5.6.952l-3.878,9.46a.249.249,0,0,0,.231.344H18.51a.249.249,0,0,0,.231-.155l.438-1.067s.237-.365.237-.046V21.856a.25.25,0,0,1-.25.25h-.85a.9.9,0,0,0,0,1.8h4a.9.9,0,0,0,0-1.8ZM15.239,4.391l-1.667,4a1,1,0,0,1-.923.615H8.816a1,1,0,0,1-.923-1.384l1.667-4a1,1,0,0,1,.923-.616h3.833a1,1,0,0,1,.923,1.385Z"/><path d="M17.936,12.565a.222.222,0,0,0-.234-.309H1.208a.372.372,0,0,0-.322.2,1.5,1.5,0,0,0,1.4,2.047h.883a.25.25,0,0,1,.25.25v7.1a.25.25,0,0,1-.25.25h-.85a.9.9,0,0,0,0,1.8h4a.9.9,0,0,0,0-1.8h-.85a.25.25,0,0,1-.25-.25v-7.1a.25.25,0,0,1,.25-.25H16.134a1.494,1.494,0,0,0,1.395-.948Z"/><path d="M15.143,18.95a.248.248,0,0,1,.094-.267,1.491,1.491,0,0,0,.568-1.363,1.572,1.572,0,0,0-1.59-1.314h-3.9a1.51,1.51,0,0,0-1.061.44,1.492,1.492,0,0,0,.139,2.236.254.254,0,0,1,.095.271l-1.13,3.766a1,1,0,0,0,.671,1.245,1.044,1.044,0,0,0,1.245-.671s.158-.514.185-.618a.228.228,0,0,1,.222-.169H13.9a.278.278,0,0,1,.274.183c.03.1.181.6.181.6a1.061,1.061,0,0,0,1.245.671,1,1,0,0,0,.671-1.245Zm-1.809,1.556H11.255a.118.118,0,0,1-.1-.163c.026-.085.348-1.159.348-1.159a.25.25,0,0,1,.239-.178h1.14a.25.25,0,0,1,.239.178s.315,1.04.338,1.127A.151.151,0,0,1,13.334,20.506Z"/></svg>