<svg xmlns="http://www.w3.org/2000/svg" viewBox="0 0 24 24"><title>official-building</title><path d="M13.4,1.9A.5.5,0,0,1,13,1.41V1a1,1,0,0,0-2,0v.41a.5.5,0,0,1-.4.489,7.024,7.024,0,0,0-4.728,3.48.25.25,0,0,0,.219.371H17.909a.25.25,0,0,0,.219-.371A7.024,7.024,0,0,0,13.4,1.9Z"/><path d="M5.679,6.75a.5.5,0,0,0-.487.383A6.949,6.949,0,0,0,5,8.75v3.312c0,.138.1.2.218.128l5.563-3.121a2.508,2.508,0,0,1,2.439,0l5.562,3.121c.12.067.218.01.218-.128V8.75a6.949,6.949,0,0,0-.192-1.617.5.5,0,0,0-.487-.383Z"/><path d="M18.744,13.315,12.73,9.941a1.477,1.477,0,0,0-1.459,0L5.256,13.315a.5.5,0,0,0,.244.936.5.5,0,0,1,.5.5V21.9a.5.5,0,0,1-.168.374A.963.963,0,0,0,5.5,23a1,1,0,0,0,1,1h11a1,1,0,0,0,1-1,.963.963,0,0,0-.332-.724A.5.5,0,0,1,18,21.9V14.751a.5.5,0,0,1,.5-.5.5.5,0,0,0,.244-.936Zm-8.244.936a.5.5,0,0,1,.5.5V21.5a.5.5,0,0,1-.5.5h-2a.5.5,0,0,1-.5-.5V14.751a.5.5,0,0,1,.5-.5ZM16,21.5a.5.5,0,0,1-.5.5h-2a.5.5,0,0,1-.5-.5V14.751a.5.5,0,0,1,.5-.5h2a.5.5,0,0,1,.5.5Z"/><path d="M3.5,13.25h-2A1.5,1.5,0,0,0,0,14.75V21a1,1,0,0,0,1,1H3.5a.5.5,0,0,0,.5-.5V13.75A.5.5,0,0,0,3.5,13.25Z"/><path d="M22.5,13.25h-2a.5.5,0,0,0-.5.5V21.5a.5.5,0,0,0,.5.5H23a1,1,0,0,0,1-1V14.75A1.5,1.5,0,0,0,22.5,13.25Z"/></svg>