<svg xmlns="http://www.w3.org/2000/svg" viewBox="0 0 24 24"><title>office-chair-table-2</title><path d="M8.5,7a1,1,0,0,0,1-1V5.5a2.5,2.5,0,0,1,5,0V6a1,1,0,0,0,2,0V5.5a4.5,4.5,0,0,0-9,0V6A1,1,0,0,0,8.5,7Z"/><path d="M16.875,14.547a.5.5,0,0,1-.375-.484V13a1,1,0,0,0-2,0v1a.5.5,0,0,1-.5.5H10a.5.5,0,0,1-.5-.5V13a1,1,0,0,0-2,0v1.064a.5.5,0,0,1-.375.484A1.5,1.5,0,0,0,7.5,17.5h9a1.5,1.5,0,0,0,.375-2.952Z"/><path d="M23,8.5H1a1,1,0,0,0,0,2h.5A.5.5,0,0,1,2,11V22a1,1,0,0,0,2,0V11a.5.5,0,0,1,.5-.5h15a.5.5,0,0,1,.5.5V22a1,1,0,0,0,2,0V11a.5.5,0,0,1,.5-.5H23a1,1,0,0,0,0-2Z"/><path d="M7.005,21.9A1,1,0,0,0,7.9,23c.035,0,.068,0,.1,0a1,1,0,0,0,.994-.9l.305-3.05a.5.5,0,0,0-.5-.55H7.8a.5.5,0,0,0-.5.451Z"/><path d="M15.2,18.5a.5.5,0,0,0-.5.55l.305,3.05A1,1,0,0,0,16,23c.033,0,.066,0,.1,0A1,1,0,0,0,17,21.9l-.3-2.95a.5.5,0,0,0-.5-.451Z"/></svg>