<svg xmlns="http://www.w3.org/2000/svg" viewBox="0 0 24 24"><title>office-file-adobe</title><path d="M11.1,10.336a.521.521,0,0,1-.164-.32,15.827,15.827,0,0,0-.812-3.445A1.412,1.412,0,0,0,8.94,5.593a1.628,1.628,0,0,0-1.519.78A1.7,1.7,0,0,0,7.429,8.2a14.74,14.74,0,0,0,1.953,2.562.48.48,0,0,1,.137.307,12.436,12.436,0,0,1-.063,2.364.511.511,0,0,1-.217.349A12.958,12.958,0,0,0,6.66,16.121a1.592,1.592,0,0,0-.3,1.622,1.637,1.637,0,0,0,1.332.992,1.671,1.671,0,0,0,.211.013,1.725,1.725,0,0,0,1.4-.73,8.925,8.925,0,0,0,1.451-3.257.493.493,0,0,1,.229-.318,12.294,12.294,0,0,1,1.909-.91.527.527,0,0,1,.394.019,12.647,12.647,0,0,0,3.735,1.065,1.479,1.479,0,0,0,1.442-.605,1.7,1.7,0,0,0-1.393-2.656,11.744,11.744,0,0,0-3.639.433.49.49,0,0,1-.377-.043A11.377,11.377,0,0,1,11.1,10.336Z"/><path d="M21.707,5.705,16.293.291A1,1,0,0,0,15.586,0H4A2,2,0,0,0,2,2V22a2,2,0,0,0,2,2H20a2,2,0,0,0,2-2V6.412A1,1,0,0,0,21.707,5.705ZM19.5,22H4.5a.5.5,0,0,1-.5-.5V2.5A.5.5,0,0,1,4.5,2H14.965a.5.5,0,0,1,.353.147L19.854,6.68A.5.5,0,0,1,20,7.033V21.5A.5.5,0,0,1,19.5,22Z"/></svg>