<svg xmlns="http://www.w3.org/2000/svg" viewBox="0 0 24 24"><title>office-file-pps-1</title><path d="M23.707,5.705,18.293.291A1,1,0,0,0,17.586,0H6A2,2,0,0,0,4,2v5.75A.25.25,0,0,0,4.25,8h1.5A.25.25,0,0,0,6,7.748V2.5A.5.5,0,0,1,6.5,2H16.75a.25.25,0,0,1,.25.25V5a2,2,0,0,0,2,2h2.75a.25.25,0,0,1,.25.25V21.5a.5.5,0,0,1-.5.5H6.249A.249.249,0,0,1,6,21.749v-.5A.251.251,0,0,0,5.749,21H4.25a.25.25,0,0,0-.25.25V22a2,2,0,0,0,2,2H22a2,2,0,0,0,2-2V6.412A1,1,0,0,0,23.707,5.705Z"/><path d="M4,12.123H3.377a.252.252,0,0,0-.252.252v1.246a.252.252,0,0,0,.252.252H4a.875.875,0,0,0,0-1.75Z"/><path d="M9,12.123H8.377a.252.252,0,0,0-.252.252v1.246a.252.252,0,0,0,.252.252H9a.875.875,0,0,0,0-1.75Z"/><path d="M18,19V10a1,1,0,0,0-1-1H1a1,1,0,0,0-1,1v9a1,1,0,0,0,1,1H17A1,1,0,0,0,18,19ZM4,15.119H3.377a.252.252,0,0,0-.252.252v2.123a.625.625,0,0,1-1.25,0v-6a.625.625,0,0,1,.625-.625H4a2.125,2.125,0,0,1,0,4.25Zm5,0H8.377a.252.252,0,0,0-.252.252v2.123a.625.625,0,0,1-1.25,0v-6a.625.625,0,0,1,.625-.625H9a2.125,2.125,0,0,1,0,4.25Zm4.427-1.754,1.84,1.227a1.927,1.927,0,0,1-1.07,3.531H12.5a.625.625,0,0,1,0-1.25h1.7a.678.678,0,0,0,.376-1.242L12.733,14.4a1.927,1.927,0,0,1,1.07-3.531h1.7a.625.625,0,0,1,0,1.25H13.8a.678.678,0,0,0-.376,1.242Z"/></svg>