<svg xmlns="http://www.w3.org/2000/svg" viewBox="0 0 24 24"><title>office-razor</title><path d="M1.755,17.381a1.874,1.874,0,0,0-.5,1.207v4.657a.676.676,0,0,0,1.205.5l4.92-4.865a.251.251,0,0,0,0-.355L4.192,15.339a.249.249,0,0,0-.351,0Z"/><path d="M14.213,2.522a.249.249,0,0,0-.354,0l-9.12,9.121a1.5,1.5,0,0,0,0,2.121l4.242,4.241a1.5,1.5,0,0,0,2.121,0l9.122-9.12a.25.25,0,0,0,0-.353Zm1.4,4.614a1.318,1.318,0,0,1,0,1.861L9.352,15.253a.5.5,0,0,1-.707,0L7.493,14.1a.5.5,0,0,1,0-.707l6.255-6.257A1.318,1.318,0,0,1,15.609,7.136Z"/><path d="M21.527,1.26a4.544,4.544,0,0,0-6.177-.126.251.251,0,0,0-.027.377l5.916,5.915a.249.249,0,0,0,.376-.026A4.582,4.582,0,0,0,21.527,1.26Z"/></svg>