<svg xmlns="http://www.w3.org/2000/svg" viewBox="0 0 24 24"><title>office-shredder</title><path d="M23,7.248a3,3,0,0,0-3-3H19A.25.25,0,0,1,18.75,4V3.5a1,1,0,0,0-.293-.707l-2.5-2.5A1,1,0,0,0,15.25,0h-8a2,2,0,0,0-2,2V4a.25.25,0,0,1-.25.25H4a3,3,0,0,0-3,3V22a2,2,0,0,0,2,2H21a2,2,0,0,0,2-2Zm-6.25-.5A.25.25,0,0,1,16.5,7h-9a.25.25,0,0,1-.25-.25V2.5a.5.5,0,0,1,.5-.5h6.982a.249.249,0,0,1,.177.073l1.768,1.768a.249.249,0,0,1,.073.177Zm1.5,1.75h1.5a.75.75,0,0,1,0,1.5h-1.5a.75.75,0,0,1,0-1.5ZM21,21.5a.5.5,0,0,1-.5.5H3.5a.5.5,0,0,1-.5-.5v-9.75a.5.5,0,0,1,.5-.5h17a.5.5,0,0,1,.5.5Z"/><path d="M7.65,19.2a.75.75,0,0,0,1.05.15c1.482-1.111,1.368-4.734,1.3-5.895a.75.75,0,0,0-1.5.09c.119,2-.134,4.18-.7,4.605A.75.75,0,0,0,7.65,19.2Z"/><path d="M5.416,18.123c1.855-1.237,1.849-2.182,1.836-4.251l0-.374a.75.75,0,1,0-1.5,0l0,.383c.012,2,.013,2.206-1.169,2.994a.75.75,0,0,0,.832,1.248Z"/><path d="M18.584,18.123a.75.75,0,1,0,.832-1.248c-1.182-.789-1.181-1-1.169-2.992l0-.385a.75.75,0,1,0-1.5,0l0,.376C16.735,15.942,16.729,16.886,18.584,18.123Z"/><path d="M15.3,19.348a.75.75,0,0,0,.9-1.2c-.358-.269-.729-.608-.7-4.65a.75.75,0,1,0-1.5,0C13.961,18.763,14.772,18.953,15.3,19.348Z"/><path d="M12,19.748a.75.75,0,0,0,.75-.75V13.5a.75.75,0,1,0-1.5,0V19A.75.75,0,0,0,12,19.748Z"/></svg>