<svg xmlns="http://www.w3.org/2000/svg" viewBox="0 0 24 24"><title>office-stamp-document-alternate</title><path d="M24,7a1,1,0,0,0-.293-.707l-6-6A1,1,0,0,0,17,0H6A2,2,0,0,0,4,2V7.084a.251.251,0,0,0,.342.233,4.458,4.458,0,0,1,1.421-.311A.249.249,0,0,0,6,6.757V2.5A.5.5,0,0,1,6.5,2h9.75a.25.25,0,0,1,.25.25V5.5a2,2,0,0,0,2,2h3.25a.25.25,0,0,1,.25.25V21.5a.5.5,0,0,1-.5.5H12.75a.25.25,0,0,0-.25.25V23a2.48,2.48,0,0,1-.1.682.25.25,0,0,0,.241.318H22a2,2,0,0,0,2-2Z"/><path d="M10,24a1,1,0,0,0,1-1v-.75a.25.25,0,0,0-.25-.25H1.25a.25.25,0,0,0-.25.25V23a1,1,0,0,0,1,1Z"/><path d="M1,20.5H11a1,1,0,0,0,1-1,2,2,0,0,0-2-2H9a2,2,0,0,1-2-1.942v0A2.006,2.006,0,0,1,7.8,13.9a3,3,0,1,0-3.6,0A2.008,2.008,0,0,1,5,15.554v0A2,2,0,0,1,3,17.5H2a2,2,0,0,0-2,2A1,1,0,0,0,1,20.5Z"/></svg>