<svg xmlns="http://www.w3.org/2000/svg" viewBox="0 0 24 24"><title>office-printer</title><path d="M23.75,19a.25.25,0,0,0,.25-.25V14.5A1.5,1.5,0,0,0,22.5,13h-3a.5.5,0,0,0-.354.147l-1.78,1.78a.249.249,0,0,1-.177.073H15.25a.25.25,0,0,1-.25-.25v-4.5a.25.25,0,0,1,.25-.25H22.5A1.5,1.5,0,0,0,24,8.5V7a1.5,1.5,0,0,0-1.5-1.5H10.536a.25.25,0,0,1-.067-.49l10.8-3.047A1,1,0,1,0,20.729.036L1.324,5.509A1.5,1.5,0,0,0,0,7v11.75A.25.25,0,0,0,.25,19ZM11,10.5A1.5,1.5,0,0,1,9.5,12H5a1.5,1.5,0,0,1-1.5-1.5V9A.5.5,0,0,1,4,8.5h6.5A.5.5,0,0,1,11,9Z"/><path d="M.25,20.5a.25.25,0,0,0-.25.25V22.5A1.5,1.5,0,0,0,1.5,24h21A1.5,1.5,0,0,0,24,22.5v-1.75a.25.25,0,0,0-.25-.25Z"/></svg>