<svg xmlns="http://www.w3.org/2000/svg" viewBox="0 0 24 24"><title>office-file-pps</title><path d="M17.5,6h3.9a.25.25,0,0,0,.177-.427L16.427.425A.25.25,0,0,0,16,.6V4.5A1.5,1.5,0,0,0,17.5,6Z"/><path d="M12,14.127h-.623a.252.252,0,0,0-.252.252v1.246a.252.252,0,0,0,.252.252H12a.875.875,0,0,0,0-1.75Z"/><path d="M7,14.127H6.377a.252.252,0,0,0-.252.252v1.246a.252.252,0,0,0,.252.252H7a.875.875,0,1,0,0-1.75Z"/><path d="M21.75,7H17.5A2.5,2.5,0,0,1,15,4.5V.248A.25.25,0,0,0,14.75,0H4A2,2,0,0,0,2,2V22a2,2,0,0,0,2,2H20a2,2,0,0,0,2-2V7.248A.25.25,0,0,0,21.75,7ZM7,17.123H6.377a.252.252,0,0,0-.252.252V19.5a.625.625,0,0,1-1.25,0v-6a.625.625,0,0,1,.625-.625H7a2.125,2.125,0,0,1,0,4.25Zm5,0h-.623a.252.252,0,0,0-.252.252V19.5a.625.625,0,0,1-1.25,0v-6a.625.625,0,0,1,.625-.625H12a2.125,2.125,0,0,1,0,4.25Zm4.427-1.758,1.84,1.227a1.927,1.927,0,0,1-1.07,3.531H15.5a.625.625,0,0,1,0-1.25h1.7a.678.678,0,0,0,.376-1.242L15.733,16.4a1.927,1.927,0,0,1,1.07-3.531h1.7a.625.625,0,0,1,0,1.25H16.8a.678.678,0,0,0-.376,1.242Z"/></svg>