<svg xmlns="http://www.w3.org/2000/svg" viewBox="0 0 24 24"><title>office-glue</title><path d="M12.606.577C12.477.055,12.139,0,12,0s-.477.057-.606.579l0,.017L9.98,7.2a.25.25,0,0,0,.244.3h3.551a.25.25,0,0,0,.245-.3Z"/><path d="M16.676,12.1a.251.251,0,0,1-.176-.239V10.5A1.5,1.5,0,0,0,15,9H9a1.5,1.5,0,0,0-1.5,1.5v1.358a.251.251,0,0,1-.176.239A2.49,2.49,0,0,0,5.5,14.5v7A2.5,2.5,0,0,0,8,24h8a2.5,2.5,0,0,0,2.5-2.5v-7A2.49,2.49,0,0,0,16.676,12.1ZM16,20a.5.5,0,0,1-.5.5h-7A.5.5,0,0,1,8,20V16a.5.5,0,0,1,.5-.5h7a.5.5,0,0,1,.5.5Z"/></svg>