<svg xmlns="http://www.w3.org/2000/svg" viewBox="0 0 24 24"><title>office-stationery</title><rect x="7.5" y="11.508" width="4.5" height="4" rx="0.25" ry="0.25"/><path d="M11.75,10.008a.25.25,0,0,0,.25-.25V4.508a2.25,2.25,0,1,0-4.5,0v5.25a.25.25,0,0,0,.25.25Z"/><path d="M17.393,11.117l.231-.283a.25.25,0,0,1,.223-.09.253.253,0,0,1,.2.141l.113.236-.445,4.11a.251.251,0,0,0,.248.277h1.509a.249.249,0,0,0,.248-.223l.459-4.231a1,1,0,0,0-.092-.539l-.866-1.81a.248.248,0,0,1-.011-.187l.58-1.731a.252.252,0,0,1,.344-.147,2.62,2.62,0,0,0,3.724-2.089h0l.116-1.075a2.622,2.622,0,1,0-5.213-.564l-.105.966a.084.084,0,0,1-.086.056.083.083,0,0,1-.073-.072l0-.011.105-.958a2.622,2.622,0,1,0-5.214-.564L13.266,3.4a2.618,2.618,0,0,0,2.323,2.889,2.573,2.573,0,0,0,.907-.06.249.249,0,0,1,.308.211l.233,1.829a.251.251,0,0,1-.055.19l-1.325,1.617a1,1,0,0,0-.22.526l-.5,4.626a.252.252,0,0,0,.249.277h1.509a.249.249,0,0,0,.248-.223ZM21.43,2.576a.62.62,0,0,1,.551.685l-.116,1.075a.612.612,0,0,1-.684.551.62.62,0,0,1-.552-.68c0-.035,0-.029.116-1.08A.621.621,0,0,1,21.43,2.576ZM15.805,4.3a.621.621,0,0,1-.551-.685l.116-1.075a.622.622,0,0,1,1.237.133L16.49,3.75v0h0A.619.619,0,0,1,15.805,4.3Z"/><rect y="17.008" width="24" height="7" rx="1.5" ry="1.5"/><path d="M5.5,15.008V4.508a.509.509,0,0,0-.042-.2l-1.75-4a.521.521,0,0,0-.916,0l-1.75,4a.509.509,0,0,0-.042.2v10.5a.5.5,0,0,0,.5.5H5A.5.5,0,0,0,5.5,15.008Z"/></svg>