<svg xmlns="http://www.w3.org/2000/svg" viewBox="0 0 24 24"><title>office-chair-table</title><path d="M3.5,8.249V6a5.414,5.414,0,0,1,.131-1.194A.25.25,0,0,0,3.387,4.5H2a2.007,2.007,0,0,0-2,2v15a1,1,0,0,0,2,0V9a.5.5,0,0,1,.5-.5h.75A.25.25,0,0,0,3.5,8.249Z"/><path d="M22.5,4.5H14.613a.25.25,0,0,0-.244.306A5.414,5.414,0,0,1,14.5,6v2.25a.25.25,0,0,0,.25.25h.75A.5.5,0,0,1,16,9v1a.5.5,0,0,0,.5.5h7A.5.5,0,0,0,24,10V6A1.5,1.5,0,0,0,22.5,4.5ZM20,8.5a1,1,0,1,1,1-1A1,1,0,0,1,20,8.5Z"/><path d="M23.5,12h-7a.5.5,0,0,0-.5.5V18a1.5,1.5,0,0,0,1.5,1.5h4a.5.5,0,0,1,.5.5v1.5a1,1,0,0,0,2,0v-9A.5.5,0,0,0,23.5,12ZM20,16a1,1,0,1,1,1-1A1,1,0,0,1,20,16Z"/><path d="M14,14.5a.5.5,0,0,1-.5-.5V6a4.5,4.5,0,0,0-9,0v8a.5.5,0,0,1-.5.5,1,1,0,1,0,0,2,.5.5,0,0,1,.5.5v4.5a1,1,0,0,0,2,0V17a.5.5,0,0,1,.5-.5h4a.5.5,0,0,1,.5.5v4.5a1,1,0,0,0,2,0V17a.5.5,0,0,1,.5-.5,1,1,0,1,0,0-2ZM11.5,14a.5.5,0,0,1-.5.5H7a.5.5,0,0,1-.5-.5V11a.5.5,0,0,1,.5-.5h4a.5.5,0,0,1,.5.5Z"/></svg>