<svg xmlns="http://www.w3.org/2000/svg" viewBox="0 0 24 24"><title>office-shelf-1</title><path d="M23,22H18.25a.25.25,0,0,1-.25-.25v-6a1.252,1.252,0,0,0-1.25-1.25h-1.5A1.252,1.252,0,0,0,14,15.748v6a.25.25,0,0,1-.25.25h-1a.25.25,0,0,1-.25-.25v-5a1.252,1.252,0,0,0-1.25-1.25H9.75a1.252,1.252,0,0,0-1.25,1.25v5a.25.25,0,0,1-.25.25h-1a.25.25,0,0,1-.25-.25v-7A1.252,1.252,0,0,0,5.75,13.5H4.25A1.252,1.252,0,0,0,3,14.748v7a.25.25,0,0,1-.25.25H1a1,1,0,0,0,0,2H23a1,1,0,0,0,0-2Z"/><path d="M1,11H23a1,1,0,0,0,0-2H21.831a.25.25,0,0,1-.191-.088.254.254,0,0,1-.056-.2,1.257,1.257,0,0,0-.076-.681L19.232,2.475h0A1.25,1.25,0,0,0,17.6,1.792l-1.852.759a1.252,1.252,0,0,0-.682,1.631L16.9,8.653a.25.25,0,0,1-.024.234A.247.247,0,0,1,16.671,9H14.25a.25.25,0,0,1-.25-.25v-7.5A1.252,1.252,0,0,0,12.75,0h-1.5A1.252,1.252,0,0,0,10,1.248v7.5A.25.25,0,0,1,9.75,9h-1a.25.25,0,0,1-.25-.25v-5.5A1.252,1.252,0,0,0,7.25,2H5.75A1.252,1.252,0,0,0,4.5,3.248v5.5A.25.25,0,0,1,4.25,9H1a1,1,0,0,0,0,2Z"/></svg>