<svg xmlns="http://www.w3.org/2000/svg" viewBox="0 0 24 24"><title>office-folder-sealed</title><path d="M21.5,3a3.006,3.006,0,0,0-3-3H5.5a3.006,3.006,0,0,0-3,3V21a3.039,3.039,0,0,0,3,3h13a3.04,3.04,0,0,0,3-3ZM18.411,19.092A3.2,3.2,0,0,0,16,18H8a3.2,3.2,0,0,0-2.411,1.094l-.651.743a.25.25,0,0,1-.438-.164V6.223a.25.25,0,0,1,.479-.1l.705,1.609A2.526,2.526,0,0,0,8,9.248h8a2.527,2.527,0,0,0,2.316-1.515l.705-1.61a.25.25,0,0,1,.479.1V19.671a.25.25,0,0,1-.438.165Zm-.478,2.491a.25.25,0,0,1-.188.415H6.255a.25.25,0,0,1-.188-.415L7.1,20.409A1.2,1.2,0,0,1,8,20h8a1.2,1.2,0,0,1,.905.411ZM18.5,2a.093.093,0,0,1,.078.042.094.094,0,0,1,.008.089l-2.1,4.8A.528.528,0,0,1,16,7.248H8a.527.527,0,0,1-.484-.317l-2.1-4.8a.089.089,0,0,1,.008-.088A.091.091,0,0,1,5.5,2Z"/><circle cx="12" cy="4.498" r="1.5"/><circle cx="12" cy="13.015" r="1.5"/></svg>