<svg xmlns="http://www.w3.org/2000/svg" viewBox="0 0 24 24"><title>old-people-man-3</title><path d="M21,18.369a.25.25,0,0,0-.125-.216A18.551,18.551,0,0,0,11.5,16C5.661,16,2.394,17.828.967,18.917A2.462,2.462,0,0,0,0,20.894V23.5a.5.5,0,0,0,.5.5H9.148a.251.251,0,0,0,.241-.181l1.63-5.706a.52.52,0,0,1,.962,0l1.63,5.706a.251.251,0,0,0,.241.181h6.9a.25.25,0,0,0,.25-.25Z"/><path d="M18.427,9.982a.029.029,0,0,1,.021-.025l.024-.01A1,1,0,0,0,19,9.065V4.882a1.5,1.5,0,0,0-1.314-1.488L17.6,3.383a.25.25,0,0,1-.2-.142c0-.009-.009-.018-.014-.027a7,7,0,0,0-11.778,0,.215.215,0,0,0-.014.026.25.25,0,0,1-.2.142l-.087.011A1.5,1.5,0,0,0,4,4.882V9.065a1,1,0,0,0,.528.882.093.093,0,0,1,.05.07,7,7,0,0,0,13.849-.035ZM11.5,14A5,5,0,0,1,6.507,9.273a.021.021,0,0,1,.008-.016l.259-.173A3.486,3.486,0,0,0,8.25,6.931l.431-1.938a1.507,1.507,0,0,0-.355-1.335q-.039-.042-.081-.081A.25.25,0,0,1,8.252,3.2a4.983,4.983,0,0,1,6.5,0,.249.249,0,0,1,.087.185.252.252,0,0,1-.08.188q-.042.039-.081.081a1.507,1.507,0,0,0-.355,1.335l.431,1.938a3.486,3.486,0,0,0,1.476,2.153l.258.173a.016.016,0,0,1,.008.016A5,5,0,0,1,11.5,14Z"/><path d="M10.5,4.5h2a.5.5,0,0,0,0-1h-2a.5.5,0,0,0,0,1Z"/><path d="M10.5,6.5h2a.5.5,0,0,0,0-1h-2a.5.5,0,0,0,0,1Z"/><circle cx="13.5" cy="9.02" r="1"/><circle cx="9.5" cy="9.02" r="1"/><path d="M12.577,11.132h-2a.639.639,0,0,0-.3,1.2,2.3,2.3,0,0,0,.437.181,3.267,3.267,0,0,0,.873.126,3,3,0,0,0,.863-.125,2.3,2.3,0,0,0,.436-.181.639.639,0,0,0-.3-1.2Z"/><path d="M22,20.894V23a1,1,0,0,0,2,0V14.75a3.25,3.25,0,0,0-6.5,0v.75a1,1,0,0,0,2,0v-.75a1.25,1.25,0,0,1,2.5,0v6.144Z"/></svg>