<svg xmlns="http://www.w3.org/2000/svg" viewBox="0 0 24 24"><title>old-people-man-1</title><path d="M17.989,12.59a.252.252,0,0,1,.2-.12A2.5,2.5,0,0,0,20.5,9.982V9.964a.033.033,0,0,1,.015-.027A4,4,0,0,0,19.49,2.606a.25.25,0,0,1-.173-.157A3,3,0,0,0,16.5.482a2.949,2.949,0,0,0-1.18.254.249.249,0,0,1-.21-.005,7.137,7.137,0,0,0-6.22,0,.245.245,0,0,1-.21.005A2.949,2.949,0,0,0,7.5.482,3,3,0,0,0,4.683,2.449a.25.25,0,0,1-.173.157A4,4,0,0,0,3.469,9.928a.063.063,0,0,1,.031.054A2.5,2.5,0,0,0,5.815,12.47a.252.252,0,0,1,.2.12,6.983,6.983,0,0,0,11.978,0ZM16.25,7.982a1.195,1.195,0,1,1-1.194-1.194A1.2,1.2,0,0,1,16.25,7.982Zm-2.385-5.64a.249.249,0,0,1,.155.259,3.68,3.68,0,0,0-.02.381,3.47,3.47,0,0,0,.628,1.993.25.25,0,0,1-.151.387,2.685,2.685,0,0,0-1.942,1.705.25.25,0,0,1-.235.165h-.485a.249.249,0,0,1-.235-.166A2.742,2.742,0,0,0,9.567,5.3a.25.25,0,0,1-.156-.384A3.475,3.475,0,0,0,10,2.982,3.715,3.715,0,0,0,9.98,2.6a.248.248,0,0,1,.155-.258A5.09,5.09,0,0,1,13.865,2.342ZM9,6.732a1.25,1.25,0,1,1-1.25,1.25A1.251,1.251,0,0,1,9,6.732Zm3,7.25a5.006,5.006,0,0,1-4.7-3.3.25.25,0,0,1,.358-.3A2.711,2.711,0,0,0,9,10.732,2.742,2.742,0,0,0,11.58,8.9a.249.249,0,0,1,.235-.166H12.3a.25.25,0,0,1,.235.165,2.686,2.686,0,0,0,2.521,1.779,2.644,2.644,0,0,0,1.3-.339.25.25,0,0,1,.357.3A5,5,0,0,1,12,13.982Z"/><path d="M23.5,20.876a2.462,2.462,0,0,0-.967-1.977C21.106,17.81,17.839,15.982,12,15.982S2.894,17.81,1.467,18.9A2.462,2.462,0,0,0,.5,20.876v2.606a.5.5,0,0,0,.5.5H9.648a.251.251,0,0,0,.241-.181l1.63-5.706a.52.52,0,0,1,.962,0l1.63,5.706a.251.251,0,0,0,.241.181H23a.5.5,0,0,0,.5-.5Z"/><path d="M13,11.343H11a.639.639,0,0,0-.3,1.2,2.354,2.354,0,0,0,.434.179,2.964,2.964,0,0,0,.869.127,3.024,3.024,0,0,0,.87-.125,2.444,2.444,0,0,0,.435-.182.639.639,0,0,0-.3-1.2Z"/></svg>