<svg xmlns="http://www.w3.org/2000/svg" viewBox="0 0 24 24"><title>old-people-man-3</title><path d="M23.859,13.015a2.991,2.991,0,0,0-5.98-.118c0,.04-.012.077-.012.118v.749a.749.749,0,1,0,1.5,0v-.749a1.5,1.5,0,0,1,3,0v9.737a.749.749,0,1,0,1.5,0Z"/><path d="M10.705,18.727A7.707,7.707,0,0,1,5.9,16.47a.251.251,0,0,0-.241-.06A12.029,12.029,0,0,0,1.012,18.8a2.643,2.643,0,0,0-.871,2.01v2.7a.5.5,0,0,0,.5.5H9.252l.895-3.133a.519.519,0,0,1,.96,0L12,24h8.611a.5.5,0,0,0,.5-.5v-2.7a2.643,2.643,0,0,0-.871-2.01,11.928,11.928,0,0,0-4.521-2.353.249.249,0,0,0-.242.058A7.693,7.693,0,0,1,10.705,18.727Z"/><path d="M11.4,12.194a1.311,1.311,0,0,1-.219.093,1.968,1.968,0,0,1-1.1,0,1.2,1.2,0,0,1-.219-.092A.749.749,0,1,0,9.129,13.5a2.626,2.626,0,0,0,.5.215,3.409,3.409,0,0,0,2,0,2.681,2.681,0,0,0,.5-.215.749.749,0,0,0-.734-1.306Z"/><path d="M9.735,9.9A.747.747,0,0,0,9.7,8.847a2.014,2.014,0,0,0-2.6,0,.749.749,0,0,0,1.02,1.1.557.557,0,0,1,.557,0A.748.748,0,0,0,9.735,9.9Z"/><path d="M11.515,8.847a.749.749,0,0,0,1.02,1.1.557.557,0,0,1,.557,0,.749.749,0,0,0,1.02-1.1A2.014,2.014,0,0,0,11.515,8.847Z"/><path d="M18.616,3.9c0-.882-.366-1.253-2.274-1.738a.251.251,0,0,1-.13-.081C14.331-.159,10.946,0,10.705,0c-2.491,0-4.349.7-5.523,2.088h0l-1.409.352A1.513,1.513,0,0,0,2.638,3.9V7.046a1.481,1.481,0,0,0,.921,1.373.248.248,0,0,1,.144.145.253.253,0,0,1-.013.205,2.266,2.266,0,0,0-.245,1.109,2.724,2.724,0,0,0,1.438,2.43.251.251,0,0,1,.143.187c.51,3.043,4.016,4.984,5.679,4.984s5.169-1.941,5.68-4.985a.245.245,0,0,1,.142-.186,2.726,2.726,0,0,0,1.438-2.43A2.253,2.253,0,0,0,17.7,8.725a.25.25,0,0,1,.107-.347,1.525,1.525,0,0,0,.811-1.332ZM15,7.24a1.49,1.49,0,0,0,.865.918.206.206,0,0,1,.127.215c-.01.08-.02.161-.034.244a.75.75,0,0,0,.4.794.619.619,0,0,1,.105.439,1.271,1.271,0,0,1-.558,1.093,1.744,1.744,0,0,0-1,1.3c-.377,2.246-3.171,3.734-4.2,3.734S6.88,14.493,6.5,12.248a1.75,1.75,0,0,0-1-1.3A1.271,1.271,0,0,1,4.943,9.85a.621.621,0,0,1,.1-.439.749.749,0,0,0,.405-.794c-.016-.1-.028-.188-.039-.28a.249.249,0,0,1,.129-.251A1.522,1.522,0,0,0,6.266,7.2L7.03,4a1.457,1.457,0,0,0-.114-1.185.248.248,0,0,1,.07-.323A6.185,6.185,0,0,1,10.705,1.5a6.363,6.363,0,0,1,3.6.9.249.249,0,0,1,.071.341,1.423,1.423,0,0,0-.162,1.217Z"/><path d="M9.628,2.779a.734.734,0,0,0-.361.1.741.741,0,0,0,.361,1.393h2a.749.749,0,0,0,.748-.749.737.737,0,0,0-.556-.71.728.728,0,0,0-.192-.039Z"/><path d="M8.879,6.024a.749.749,0,0,0,.749.749h2a.749.749,0,0,0,0-1.5h-2A.75.75,0,0,0,8.879,6.024Z"/></svg>