<svg xmlns="http://www.w3.org/2000/svg" viewBox="0 0 24 24"><title>old-people-man-2</title><path d="M12.952,12.838a1.235,1.235,0,0,1-.835.287h-.284A1.231,1.231,0,0,1,11,12.838a.75.75,0,0,0-1.048,1.074,2.7,2.7,0,0,0,1.882.713h.284A2.7,2.7,0,0,0,14,13.912a.75.75,0,0,0-1.046-1.074Z"/><path d="M10.33,9.758a.75.75,0,1,0,1.29-.766,1.821,1.821,0,0,0-1.645-.867,1.819,1.819,0,0,0-1.645.868.75.75,0,1,0,1.291.764c.021-.036.078-.132.354-.132S10.309,9.722,10.33,9.758Z"/><path d="M13.975,8.125a1.819,1.819,0,0,0-1.645.868.75.75,0,1,0,1.291.764c.021-.036.078-.132.354-.132s.334.1.355.133a.75.75,0,1,0,1.29-.766A1.821,1.821,0,0,0,13.975,8.125Z"/><path d="M10.975,4.625h2a.75.75,0,1,0,0-1.5h-2a.75.75,0,0,0,0,1.5Z"/><path d="M11.475,5.125a.75.75,0,0,0,0,1.5h1a.75.75,0,1,0,0-1.5Z"/><path d="M17.189,13.961a.25.25,0,0,1,.27-.135,2.873,2.873,0,0,0,.516.049,3,3,0,0,0,3-3v-.026a.016.016,0,0,1,.008-.014,4,4,0,0,0-.718-7.248.248.248,0,0,1-.141-.119,3.022,3.022,0,0,0-2.649-1.593,2.238,2.238,0,0,0-.319.027.251.251,0,0,1-.208-.068A6.86,6.86,0,0,0,12.016.125,6.9,6.9,0,0,0,7.067,1.84a.248.248,0,0,1-.209.066,2.7,2.7,0,0,0-.383-.031,3.025,3.025,0,0,0-2.65,1.593.249.249,0,0,1-.14.119,4,4,0,0,0-.718,7.248.016.016,0,0,1,.008.014v.026a3,3,0,0,0,3,3,2.873,2.873,0,0,0,.516-.049.25.25,0,0,1,.27.135,6.912,6.912,0,0,0,5.214,3.664A6.911,6.911,0,0,0,17.189,13.961Zm-5.214,2.164a5.416,5.416,0,0,1-4.082-3.287l-.318-.993a.736.736,0,0,0-.757-.506.251.251,0,0,1-.131-.028l-.006,0A1.531,1.531,0,0,1,5.975,9.99c-.006-.329.089-.591.244-.668l.165-.082a.251.251,0,0,0,.135-.265l-.031-.183c-.035-.213-.064-.43-.086-.647a.248.248,0,0,1,.059-.188.253.253,0,0,1,.176-.087A3.009,3.009,0,0,0,9.475,4.875a2.967,2.967,0,0,0-.8-2.027.25.25,0,0,1,.047-.38,5.966,5.966,0,0,1,3.3-.843,5.972,5.972,0,0,1,3.244.811.251.251,0,0,1,.048.385,2.963,2.963,0,0,0-.833,2.054,3.036,3.036,0,0,0,2.838,3,.25.25,0,0,1,.235.275q-.033.326-.087.647l-.03.183a.25.25,0,0,0,.135.265l.165.082a.733.733,0,0,1,.244.667,1.532,1.532,0,0,1-.706,1.319l-.006,0a.256.256,0,0,1-.131.028.738.738,0,0,0-.757.506l-.318.993A5.416,5.416,0,0,1,11.975,16.125Z"/><path d="M16.9,17.735l-.256-.073a.492.492,0,0,0-.532.177,5.483,5.483,0,0,1-2.107,1.537.245.245,0,0,0,.016.457l3.158,1.1a.247.247,0,0,0,.325-.272l-.428-2.727A.245.245,0,0,0,16.9,17.735Z"/><path d="M6.824,20.925l3.124-1.108a.244.244,0,0,0,.019-.454,5.472,5.472,0,0,1-2.079-1.524.492.492,0,0,0-.532-.177l-.256.073a.245.245,0,0,0-.176.2L6.5,20.653A.248.248,0,0,0,6.824,20.925Z"/><path d="M20.939,18.89l-2.465-.705a.248.248,0,0,0-.313.276l.514,3.27a.5.5,0,0,1-.489.572.482.482,0,0,1-.163-.028l-4.952-1.726a.251.251,0,0,0-.225.032.248.248,0,0,0-.1.2v2.845a.248.248,0,0,0,.248.247H23.382a.494.494,0,0,0,.494-.5v-.3A4.509,4.509,0,0,0,20.939,18.89Z"/><path d="M10.928,20.521,5.98,22.275a.526.526,0,0,1-.166.028.5.5,0,0,1-.316-.114.5.5,0,0,1-.173-.458l.514-3.269a.248.248,0,0,0-.313-.276l-2.5.717a4.488,4.488,0,0,0-2.9,4.172v.3a.494.494,0,0,0,.5.5H11.01a.248.248,0,0,0,.248-.247V20.754a.248.248,0,0,0-.33-.233Z"/></svg>