<svg id="Bold" xmlns="http://www.w3.org/2000/svg" viewBox="0 0 24 24"><title>online-reading-readernaut</title><path d="M23.49,15.66c-.33,0-8,.26-11.49,4.08C8.54,15.92.84,15.67.51,15.66c-.06,0-.13,0-.18.07a.25.25,0,0,0-.08.18v3a.25.25,0,0,0,.25.25,15.94,15.94,0,0,1,11.31,4.58.26.26,0,0,0,.19.08l.09,0a.26.26,0,0,0,.1-.07A16,16,0,0,1,23.5,19.21a.25.25,0,0,0,.25-.25V15.91a.25.25,0,0,0-.08-.18A.2.2,0,0,0,23.49,15.66Z"/><path d="M6,15.13a8.09,8.09,0,0,1,5.58,2.61.5.5,0,0,0,.38.18h0a.5.5,0,0,0,.37-.17A9.09,9.09,0,0,1,18,15.1h.06a.5.5,0,0,0,.39-.3,7,7,0,1,0-12.91,0A.59.59,0,0,0,6,15.13Z"/><path d="M22.5,8.31V4.05a2,2,0,1,0-1,0v4a.49.49,0,0,0-.29.1,10,10,0,0,0-18.42,0,.49.49,0,0,0-.29-.1A2.5,2.5,0,0,0,0,10.59v1a2.5,2.5,0,0,0,2.5,2.5.5.5,0,0,0,.5-.5v-1.5a9,9,0,0,1,18,0v1.5a.5.5,0,0,0,.5.5,2.5,2.5,0,0,0,2.5-2.5v-1A2.5,2.5,0,0,0,22.5,8.31Z"/></svg>