<svg id="Bold" xmlns="http://www.w3.org/2000/svg" viewBox="0 0 24 24"><title>online-reading-scribd</title><circle cx="19.47" cy="18.5" r="3.5"/><path d="M14.77,18.61a4.23,4.23,0,0,1,1.56-3.26.52.52,0,0,0,.15-.56l0-.13C15.32,11.45,12.32,10.12,9.91,9c-2.2-1-3.55-1.64-3.55-2.92S8,4.05,9.45,4.05a5,5,0,0,1,1.39.17,3,3,0,0,0,.38,2.33,3,3,0,0,0,5.52-1.61C16.74,3,13.57,0,9.19,0,5.3,0,2.26,2.67,2.26,6.09c0,3.93,3,5.42,5.65,6.74,2.21,1.1,4.12,2,4.12,4.16a2.79,2.79,0,0,1-1.81,2.7,3.59,3.59,0,0,1-3.79-1A2.94,2.94,0,0,0,7,16.88a3,3,0,0,0-6,0A8.55,8.55,0,0,0,9.61,24a7.18,7.18,0,0,0,5.71-2.69.5.5,0,0,0,0-.57A4.18,4.18,0,0,1,14.77,18.61Z"/></svg>