<svg xmlns="http://www.w3.org/2000/svg" viewBox="0 0 24 24"><title>optimization-graph-line</title><path d="M23.124,9.95,21.39,9.733a.25.25,0,0,1-.21-.184,9.4,9.4,0,0,0-.959-2.3.251.251,0,0,1,.019-.279l1.075-1.383a1,1,0,0,0-.082-1.321l-1.5-1.5a1,1,0,0,0-1.321-.082L17.033,3.76a.25.25,0,0,1-.279.019,9.392,9.392,0,0,0-2.3-.958.25.25,0,0,1-.184-.211L14.051.876A1,1,0,0,0,13.059,0H10.941a1,1,0,0,0-.992.876L9.732,2.61a.25.25,0,0,1-.184.211,9.392,9.392,0,0,0-2.3.958.25.25,0,0,1-.279-.019L5.584,2.684a1,1,0,0,0-1.32.083l-1.5,1.5a1,1,0,0,0-.082,1.322L3.76,6.968a.251.251,0,0,1,.019.279,9.4,9.4,0,0,0-.959,2.3.25.25,0,0,1-.21.184L.877,9.95A1,1,0,0,0,0,10.942v2.117a1,1,0,0,0,.876.992l1.734.217a.248.248,0,0,1,.21.183,9.4,9.4,0,0,0,.959,2.3.251.251,0,0,1-.019.279L2.685,18.416a1,1,0,0,0,.082,1.321l1.5,1.5a1,1,0,0,0,1.321.082h0l1.383-1.075a.25.25,0,0,1,.279-.019,9.415,9.415,0,0,0,2.3.958.249.249,0,0,1,.184.21l.217,1.735a1,1,0,0,0,.992.875h2.118a1,1,0,0,0,.992-.875l.217-1.735a.249.249,0,0,1,.184-.21,9.415,9.415,0,0,0,2.3-.958.25.25,0,0,1,.279.019l1.383,1.076a1,1,0,0,0,1.32-.083l1.5-1.5a1,1,0,0,0,.082-1.322L20.24,17.033a.251.251,0,0,1-.019-.279,9.4,9.4,0,0,0,.959-2.3.248.248,0,0,1,.21-.183l1.734-.217A1,1,0,0,0,24,13.059V10.942A1,1,0,0,0,23.124,9.95ZM12,18.973a7,7,0,1,1,7-7A7,7,0,0,1,12,18.973Z"/><path d="M15.852,9.768,13.787,11.6a.249.249,0,0,1-.314.013L12.106,10.6a1.873,1.873,0,0,0-1.134-.339,1.767,1.767,0,0,0-1.119.431L7.336,12.928a1,1,0,1,0,1.328,1.495L10.9,12.441a.25.25,0,0,1,.315-.013l1.366,1.011a1.868,1.868,0,0,0,1.135.34,1.769,1.769,0,0,0,1.119-.431l2.349-2.084a1,1,0,1,0-1.328-1.5Z"/></svg>