<svg xmlns="http://www.w3.org/2000/svg" viewBox="0 0 24 24"><title>optimization-clock</title><path d="M15.25,24a6.5,6.5,0,1,0-6.5-6.5A6.508,6.508,0,0,0,15.25,24ZM14.5,13.5a.75.75,0,0,1,1.5,0v3a.25.25,0,0,0,.25.25h2a.75.75,0,0,1,0,1.5h-3a.75.75,0,0,1-.75-.75Z"/><path d="M11.457,9.293a1,1,0,0,0-1.414,0l-2.5,2.5a1,1,0,0,0,1.414,1.415l2.5-2.5A1,1,0,0,0,11.457,9.293Z"/><path d="M20.457,9.293a1,1,0,1,0-1.414,1.415l2.5,2.5a1,1,0,0,0,1.414-1.415Z"/><path d="M19.75,0h-16a3,3,0,0,0-3,3V14.5a3,3,0,0,0,3,3h2.5a1,1,0,0,0,0-2H3.75a1,1,0,0,1-1-1V5.25A.25.25,0,0,1,3,5H20.5a.25.25,0,0,1,.25.25V8a1,1,0,0,0,2,0V3A3,3,0,0,0,19.75,0ZM4.5,3.5a.75.75,0,1,1,.75-.75A.749.749,0,0,1,4.5,3.5ZM7,3.5a.75.75,0,1,1,.75-.75A.749.749,0,0,1,7,3.5Zm2.5,0a.75.75,0,1,1,.75-.75A.749.749,0,0,1,9.5,3.5Z"/></svg>