<svg xmlns="http://www.w3.org/2000/svg" viewBox="0 0 24 24"><title>optimization-plane</title><path d="M23.873,19.339l-1.705-4.267a.25.25,0,0,0-.232-.157H2.064a.25.25,0,0,0-.232.157l-1.7,4.266a1.777,1.777,0,0,0,.111,1.548,1.516,1.516,0,0,0,1.311.779h20.9a1.517,1.517,0,0,0,1.311-.778A1.777,1.777,0,0,0,23.873,19.339ZM6.5,18.415H5a.75.75,0,0,1,0-1.5H6.5a.75.75,0,0,1,0,1.5Z"/><path d="M2.631,13.072a.254.254,0,0,0,.025.233.251.251,0,0,0,.207.11H21.137a.25.25,0,0,0,.232-.343l-.759-1.9a1.547,1.547,0,0,0-1.423-1.008H11.036a.247.247,0,0,0-.132.038L8.125,11.928A1.559,1.559,0,0,1,6.4,11.88L4.336,10.431a.252.252,0,0,0-.246-.023,2.16,2.16,0,0,0-.21.105.5.5,0,0,0-.094.071,1.666,1.666,0,0,0-.395.588Z"/><path d="M6.853,8.253a.25.25,0,0,1-.277.014l-1.594-.95a.254.254,0,0,0-.107-.034H4.849a.31.31,0,0,0-.2.07l-1.031.864a.29.29,0,0,0-.053.052.31.31,0,0,0,.047.437l3.358,2.357a.567.567,0,0,0,.325.1.558.558,0,0,0,.3-.085l9.162-5.688A1.594,1.594,0,0,0,17.5,4.013a1.522,1.522,0,0,0-.09-.513,1.61,1.61,0,0,0-1.155-1.037,1.511,1.511,0,0,0-1.187.228l-2.6,1.774a.252.252,0,0,1-.229.028L6.512,2.36a.391.391,0,0,0-.134-.024.385.385,0,0,0-.23.076L5.11,3.181a.378.378,0,0,0-.062.058.385.385,0,0,0,.044.544L9.024,6.217a.252.252,0,0,1,.118.2.249.249,0,0,1-.1.211Z"/></svg>