<svg xmlns="http://www.w3.org/2000/svg" viewBox="0 0 24 24"><title>optimization-graph</title><path d="M24,10.942a1,1,0,0,0-.876-.992L21.39,9.733a.25.25,0,0,1-.21-.184,9.4,9.4,0,0,0-.959-2.3.251.251,0,0,1,.019-.279l1.075-1.383a1,1,0,0,0-.082-1.321l-1.5-1.5a1,1,0,0,0-1.321-.082L17.033,3.76a.25.25,0,0,1-.279.019,9.392,9.392,0,0,0-2.3-.958.25.25,0,0,1-.184-.211L14.051.876A1,1,0,0,0,13.059,0H10.941a1,1,0,0,0-.992.876L9.732,2.61a.25.25,0,0,1-.184.211,9.392,9.392,0,0,0-2.3.958.25.25,0,0,1-.279-.019L5.584,2.684a1,1,0,0,0-1.32.083l-1.5,1.5a1,1,0,0,0-.082,1.322L3.76,6.968a.251.251,0,0,1,.019.279,9.4,9.4,0,0,0-.959,2.3.25.25,0,0,1-.21.184L.877,9.95A1,1,0,0,0,0,10.942v2.117a1,1,0,0,0,.876.992l1.734.217a.248.248,0,0,1,.21.183,9.4,9.4,0,0,0,.959,2.3.251.251,0,0,1-.019.279L2.685,18.416a1,1,0,0,0,.082,1.321l1.5,1.5a1,1,0,0,0,1.321.082h0l1.383-1.075a.25.25,0,0,1,.279-.019,9.415,9.415,0,0,0,2.3.958.249.249,0,0,1,.184.21l.217,1.735a1,1,0,0,0,.992.875h2.118a1,1,0,0,0,.992-.875l.217-1.735a.249.249,0,0,1,.184-.21,9.415,9.415,0,0,0,2.3-.958.25.25,0,0,1,.279.019l1.383,1.076a1,1,0,0,0,1.32-.083l1.5-1.5a1,1,0,0,0,.082-1.322L20.24,17.033a.251.251,0,0,1-.019-.279,9.4,9.4,0,0,0,.959-2.3.248.248,0,0,1,.21-.183l1.734-.217A1,1,0,0,0,24,13.059ZM12,18.973a7,7,0,1,1,7-7A7,7,0,0,1,12,18.973Z"/><path d="M13,13h1.5a.464.464,0,0,0,.5-.416V8.417A.464.464,0,0,0,14.5,8H13a.464.464,0,0,0-.5.417v4.167A.464.464,0,0,0,13,13Z"/><rect x="8.5" y="10" width="2.5" height="3" rx="0.5" ry="0.5"/><path d="M15,14H8.5a1,1,0,0,0,0,2H15a1,1,0,0,0,0-2Z"/></svg>