<svg id="Bold" xmlns="http://www.w3.org/2000/svg" viewBox="0 0 24 24"><title>organic-seedling-growth</title><path d="M1,12.5h.018c7.2-.126,11.135-3.026,12.33-9.092a.5.5,0,0,1,.491-.4H14.5a.5.5,0,0,0,.354-.854l-2-2a.5.5,0,0,0-.707,0l-2,2A.5.5,0,0,0,10.5,3h.269a.5.5,0,0,1,.486.618C10.122,8.31,6.982,10.39.983,10.5A1,1,0,0,0,1,12.5Z"/><path d="M22.746,21.5H18a.5.5,0,0,1-.5-.5V9.282a2.289,2.289,0,0,1,.284-1.1,7.231,7.231,0,0,1,3.06-2.334.5.5,0,1,1,.311.95A6.42,6.42,0,0,0,18.5,8.875a.25.25,0,0,0,.059.372,2.1,2.1,0,0,0,1.145.319,3.655,3.655,0,0,0,2.2-.857A7.3,7.3,0,0,0,23.827,2.2a.5.5,0,0,0-.72-.3,6.494,6.494,0,0,1-2.674.709c-1.779.19-3.771.747-4.038,2.515a2.053,2.053,0,0,0,.112,1.025.5.5,0,0,1-.073.477A4.142,4.142,0,0,0,15.5,9.282V13.39a.25.25,0,0,1-.412.19.453.453,0,0,1-.166-.316,1.4,1.4,0,0,0-.08-.346A2.35,2.35,0,0,0,13.127,11.6a4,4,0,0,0-2.355.214,4.842,4.842,0,0,1-2.015.3.492.492,0,0,0-.408.14.5.5,0,0,0-.147.406,5.857,5.857,0,0,0,3.391,4.259,4.008,4.008,0,0,0,1.1.171,1.673,1.673,0,0,0,1.329-.483.248.248,0,0,0,.065-.209.252.252,0,0,0-.123-.179,8.052,8.052,0,0,0-2.542-.829.5.5,0,0,1,.147-.989,5.7,5.7,0,0,1,3.669,1.663,1.3,1.3,0,0,1,.258.777V21a.5.5,0,0,1-.5.5H1.25a1.25,1.25,0,0,0,0,2.5h21.5a1.25,1.25,0,0,0,0-2.5Z"/></svg>