<svg id="Bold" xmlns="http://www.w3.org/2000/svg" viewBox="0 0 24 24"><title>organic-plant-grow-1</title><path d="M9.339,16.1a.5.5,0,0,0,.648-.466A11.036,11.036,0,0,1,11.014,11.5.5.5,0,0,0,10.977,11,9,9,0,0,0,3.5,7a.5.5,0,0,0-.5.5A9.016,9.016,0,0,0,9.339,16.1Z"/><path d="M9,7.057a10.554,10.554,0,0,1,2.8,2.517.25.25,0,0,0,.2.1.253.253,0,0,0,.2-.1A10.581,10.581,0,0,1,15,7.054a.5.5,0,0,0,.237-.452A9.815,9.815,0,0,0,12.35.141a.514.514,0,0,0-.707,0A9.85,9.85,0,0,0,8.766,6.605.5.5,0,0,0,9,7.057Z"/><path d="M11.5,16v2.25a.75.75,0,0,0,1.5,0V16.881a.5.5,0,0,1,.421-.494A9.013,9.013,0,0,0,21,7.5a.5.5,0,0,0-.5-.5A9.01,9.01,0,0,0,11.5,16Z"/><path d="M23,22a3.745,3.745,0,0,1-2.9-1.646,1.056,1.056,0,0,0-1.546.023A3.72,3.72,0,0,1,15.667,22a3.743,3.743,0,0,1-2.9-1.646,1.055,1.055,0,0,0-1.547.024A3.72,3.72,0,0,1,8.333,22a3.745,3.745,0,0,1-2.9-1.646,1.055,1.055,0,0,0-1.547.024A3.718,3.718,0,0,1,1,22a1,1,0,0,0,0,2,5.126,5.126,0,0,0,3.346-1.243.5.5,0,0,1,.639,0,5.128,5.128,0,0,0,6.694,0,.5.5,0,0,1,.639,0,5.129,5.129,0,0,0,6.7,0,.5.5,0,0,1,.639,0A5.131,5.131,0,0,0,23,24a1,1,0,0,0,0-2Z"/></svg>