<svg id="Bold" xmlns="http://www.w3.org/2000/svg" viewBox="0 0 24 24"><title>os-system-microsoft</title><path d="M20.77,14.22a11,11,0,0,1-3.68.7A6.39,6.39,0,0,1,13,13.6a.5.5,0,0,0-.79.25l-2,7a.5.5,0,0,0,0,.32c.18.45,3,1.78,4.62,1.78a11.52,11.52,0,0,0,4.35-1,.5.5,0,0,0,.29-.32l2-6.84a.5.5,0,0,0-.65-.61Z"/><path d="M10.74,12.67a7.72,7.72,0,0,0-4.17-1.42,12.11,12.11,0,0,0-4.22,1,.5.5,0,0,0-.29.32L0,19.6a.5.5,0,0,0,.67.6,9.87,9.87,0,0,1,3.64-.83A6.45,6.45,0,0,1,8.09,20.7a.5.5,0,0,0,.28.08.49.49,0,0,0,.17,0,.5.5,0,0,0,.31-.33L11,13.24A.5.5,0,0,0,10.74,12.67Z"/><path d="M3.19,10.16a10,10,0,0,1,3.75-.88,6.41,6.41,0,0,1,3.64,1.32.5.5,0,0,0,.28.08.49.49,0,0,0,.17,0,.5.5,0,0,0,.31-.33l2.07-7.09a.5.5,0,0,0,0-.14h0a.5.5,0,0,0-.24-.43,7.62,7.62,0,0,0-4.4-1.39,11.09,11.09,0,0,0-4,.93.5.5,0,0,0-.29.33l-2,7a.5.5,0,0,0,.67.6Z"/><path d="M23.83,4.18a.5.5,0,0,0-.53-.08A9.37,9.37,0,0,1,19.57,5a6.48,6.48,0,0,1-4-1.35.49.49,0,0,0-.46-.08.5.5,0,0,0-.33.34L12.68,11a.62.62,0,0,0,.22.57A8.27,8.27,0,0,0,17.56,13a9.64,9.64,0,0,0,4.11-1,.51.51,0,0,0,.17-.13.51.51,0,0,0,.11-.19l2-7A.5.5,0,0,0,23.83,4.18Z"/></svg>