<svg id="Bold" xmlns="http://www.w3.org/2000/svg" viewBox="0 0 24 24"><title>outdoors-woodchopping</title><path d="M13.471,9.378a.5.5,0,0,0,.461.323.611.611,0,0,0,.073-.005A5.028,5.028,0,0,0,16.8,8.282a6.715,6.715,0,0,0,1.651-3.054.5.5,0,0,0-.308-.58L14.866,3.389a.512.512,0,0,1-.174-.113L12.157.74A.821.821,0,0,0,11,.74L9.546,2.19a.822.822,0,0,0,0,1.161l2.536,2.535a.512.512,0,0,1,.113.174Z"/><path d="M19.525,24a4.621,4.621,0,0,0,.549-.033,4.5,4.5,0,0,0,3.879-3.785,4.429,4.429,0,0,0-3.5-5.01.744.744,0,0,0-.579.121.768.768,0,0,0-.318.514h0l-.429,3.007a.249.249,0,0,1-.247.214H15.823a.761.761,0,0,0-.552.24.752.752,0,0,0-.2.56,4.489,4.489,0,0,0,1.606,3.14A4.43,4.43,0,0,0,19.525,24Z"/><path d="M9.237,23.273l3.846-.533a.5.5,0,0,0,.43-.533,4.385,4.385,0,0,0-2.928-3.842.5.5,0,0,0-.631.277l-1.513,3.6a.751.751,0,0,0,.693,1.039A.726.726,0,0,0,9.237,23.273Z"/><path d="M17.513,16.938a.752.752,0,0,0,.735-.91h0l-.825-3.8a.5.5,0,0,0-.565-.387,4.379,4.379,0,0,0-3.607,3.212.5.5,0,0,0,.323.608L17.279,16.9A.727.727,0,0,0,17.513,16.938Z"/><path d="M9.619,5.372a.247.247,0,0,0-.353,0L.24,14.4a.821.821,0,0,0,0,1.16l.58.58a.82.82,0,0,0,1.161,0l9.025-9.025a.249.249,0,0,0,0-.353Z"/><path d="M15.364,2.4a.25.25,0,0,0,.354,0l.419-.419a.82.82,0,0,0,0-1.161l-.58-.58a.821.821,0,0,0-1.16,0l-.421.421a.251.251,0,0,0,0,.354Z"/></svg>