<svg id="Bold" xmlns="http://www.w3.org/2000/svg" viewBox="0 0 24 24"><title>outdoors-pig-apple</title><path d="M23.933,1.067a1,1,0,0,0-1-1H12.61a1.492,1.492,0,0,0-1.491,1.492v19.17a1.492,1.492,0,0,0,1.491,1.492H22.933a1,1,0,0,0,0-2H13.619a.5.5,0,0,1-.5-.5V2.567a.5.5,0,0,1,.5-.5h9.314A1,1,0,0,0,23.933,1.067Z"/><path d="M.5,12.615a.5.5,0,0,0-.43.495V23.433a.5.5,0,0,0,.908.291l1.928-2.7a1.465,1.465,0,0,1,1.072-.608l3.889-.324a2.48,2.48,0,0,0,2-1.355l.541-1.082a1.486,1.486,0,0,0-.663-1.99l-1.81-.906a.246.246,0,0,1-.118-.124,3.628,3.628,0,0,0-1.741-1.821.25.25,0,0,1-.135-.277,1.925,1.925,0,0,0,.043-.409,1.975,1.975,0,1,0-3.949,0v.047a.25.25,0,0,1-.215.253Z"/><path d="M16.281,9.439a2.66,2.66,0,0,0-.947,2.44,5.087,5.087,0,0,0,.9,2.316,2.226,2.226,0,0,0,1.8.892,2.407,2.407,0,0,0,.828-.149l.238-.086a.251.251,0,0,1,.171,0l.237.086a2.269,2.269,0,0,0,2.626-.743,5.076,5.076,0,0,0,.9-2.317,2.657,2.657,0,0,0-.947-2.439,2.31,2.31,0,0,0-2.766-.155.25.25,0,0,1-.267,0A2.306,2.306,0,0,0,16.281,9.439Z"/><path d="M20.379,8.14l.983-.984a1,1,0,1,0-1.414-1.414l-.983.984A1,1,0,1,0,20.379,8.14Z"/></svg>