<svg id="Bold" xmlns="http://www.w3.org/2000/svg" viewBox="0 0 24 24"><title>outdoors-bird-house</title><path d="M19,12a3,3,0,0,0-2.981,2.671.5.5,0,0,1-.263.387,8.967,8.967,0,0,0-2.324,1.775A.25.25,0,0,1,13,16.662V11.1a.5.5,0,0,1,.5-.5H15a1.1,1.1,0,0,0,1.1-1.1V6.3a.5.5,0,0,1,.5-.5H18a.5.5,0,0,0,.312-.89l-6-4.8a.5.5,0,0,0-.625,0l-6,4.8A.5.5,0,0,0,6,5.8H7.4a.5.5,0,0,1,.5.5V9.5A1.1,1.1,0,0,0,9,10.6h1.5a.5.5,0,0,1,.5.5v3.693a.25.25,0,0,1-.419.183,7.438,7.438,0,0,0-1.826-1.237.5.5,0,0,1-.28-.39A3.249,3.249,0,1,0,7.7,15.883a.5.5,0,0,1,.634-.1A5.494,5.494,0,0,1,11,20.5V23a1,1,0,0,0,2,0,6.974,6.974,0,0,1,3.277-5.934.5.5,0,0,1,.616.068A3,3,0,1,0,19,12ZM12.75,9h-1.5a.5.5,0,0,1-.5-.5V6.25a1.25,1.25,0,0,1,2.5,0V8.5A.5.5,0,0,1,12.75,9Z"/></svg>