<svg id="Bold" xmlns="http://www.w3.org/2000/svg" viewBox="0 0 24 24"><title>outdoors-tree-gate</title><path d="M23.819,16.466l-2.038-2.912a.327.327,0,0,1,.268-.515,1,1,0,0,0,.843-1.537L20.5,7.748a.248.248,0,0,1,.083-.349,1.014,1.014,0,0,0,.36-.367,1,1,0,0,0-.013-1.008L18.388,1.782a.5.5,0,0,0-.857,0L14.985,6.024a1,1,0,0,0-.013,1.008,1.014,1.014,0,0,0,.36.367.25.25,0,0,1,.084.349L13.359,10.98a.5.5,0,0,0,.208.721A2.5,2.5,0,0,1,15,13.961v3.578a.5.5,0,0,0,.5.5h.711a.5.5,0,0,1,.5.5v2.672a1.25,1.25,0,0,0,2.5,0V18.539a.5.5,0,0,1,.5-.5H23a1,1,0,0,0,.82-1.573Z"/><path d="M12.5,12.461a1.5,1.5,0,0,0-1.5,1.5v.75a.5.5,0,0,1-.5.5H9a.5.5,0,0,1-.5-.5v-.75a1.5,1.5,0,1,0-3,0v.75a.5.5,0,0,1-.5.5H3.5a.5.5,0,0,1-.5-.5v-.75a1.5,1.5,0,0,0-3,0v7.5a1,1,0,0,0,1,1H2a1,1,0,0,0,1-1v-.25a.5.5,0,0,1,.5-.5H5a.5.5,0,0,1,.5.5v.25a1,1,0,0,0,1,1h1a1,1,0,0,0,1-1v-.25a.5.5,0,0,1,.5-.5h1.5a.5.5,0,0,1,.5.5v.25a1,1,0,0,0,1,1h1a1,1,0,0,0,1-1v-7.5A1.5,1.5,0,0,0,12.5,12.461Zm-7,5.75a.5.5,0,0,1-.5.5H3.5a.5.5,0,0,1-.5-.5v-.5a.5.5,0,0,1,.5-.5H5a.5.5,0,0,1,.5.5Zm5.5,0a.5.5,0,0,1-.5.5H9a.5.5,0,0,1-.5-.5v-.5a.5.5,0,0,1,.5-.5h1.5a.5.5,0,0,1,.5.5Z"/></svg>