<svg id="Bold" xmlns="http://www.w3.org/2000/svg" viewBox="0 0 24 24"><title>outdoors-shelter-home</title><path d="M15,24h4.5A1.5,1.5,0,0,0,21,22.5V13.418a.25.25,0,0,1,.377-.215l1.114.658a1,1,0,1,0,1.018-1.722L17.123,8.365A.251.251,0,0,1,17,8.15V1a1,1,0,0,0-2,0V6.673a.25.25,0,0,1-.377.215L12.509,5.639a1,1,0,0,0-1.018,0l-11,6.5a1,1,0,0,0,1.018,1.722L2.623,13.2A.25.25,0,0,1,3,13.418V22.5A1.5,1.5,0,0,0,4.5,24H9a1,1,0,0,0,1-1V17a.5.5,0,0,1,.5-.5h3a.5.5,0,0,1,.5.5v6A1,1,0,0,0,15,24Z"/><path d="M24,2.75a.5.5,0,0,0-.5-.5H21.575a.25.25,0,0,1-.226-.143A1.5,1.5,0,0,0,20,1.25H18.5a.5.5,0,0,0-.5.5v4a.5.5,0,0,0,.5.5h1.775a.25.25,0,0,1,.245.2,1,1,0,0,0,.98.8h2a.5.5,0,0,0,.5-.5Z"/></svg>