<svg id="Bold" xmlns="http://www.w3.org/2000/svg" viewBox="0 0 24 24"><title>outdoors-dog-house</title><path d="M8.291,12.075a.25.25,0,0,1,.177.314,1.934,1.934,0,0,0-.081.552v.994a1.94,1.94,0,0,1-.2.865l-.559,1.118a1.937,1.937,0,0,0-.2.865V20.2a.967.967,0,0,0,1.934,0V18.1a1.935,1.935,0,0,1,.567-1.368l.458-.458a.25.25,0,0,1,.426.177v.848a.966.966,0,0,0,.1.432l1.452,2.9a.966.966,0,0,0,.864.534h0a.967.967,0,0,0,.864-1.4l-1.226-2.452a.246.246,0,0,1-.014-.19q.163-.5.3-.919a.479.479,0,0,1,.459-.333h2.319a.484.484,0,0,1,.482.444l.335,4.011a.967.967,0,0,0,.958.839h.121a.967.967,0,0,0,.967-.967v-.711c0-3.927.03-4.962,1.864-8.348a.249.249,0,0,1,.22-.131h1.3a1.137,1.137,0,0,0,1.071-.431l.313-.841a.241.241,0,0,0-.092-.285L20.832,7.694a.25.25,0,0,1-.111-.208V6.1a.241.241,0,0,0-.242-.242.239.239,0,0,0-.118.031A6.2,6.2,0,0,0,17,10.3a.96.96,0,0,1-.931.709H10.322a1.837,1.837,0,0,0-.527.08.248.248,0,0,1-.217-.038,2.7,2.7,0,0,0-1-.451,2.7,2.7,0,0,0-3.1,1.687l-.692,1.844a.75.75,0,1,0,1.4.527l.692-1.844a1.19,1.19,0,0,1,.629-.658c.02-.009.034-.027.054-.036A1.192,1.192,0,0,1,8.291,12.075Z"/><path d="M3.833,21.915a.249.249,0,0,1-.25-.25V8.2a.25.25,0,0,1,.177-.239L23.187,2.074A1,1,0,0,0,22.607.16L.812,6.767A1,1,0,0,0,1.1,8.724a.941.941,0,0,0,.183-.017.251.251,0,0,1,.3.245V21.915A1.97,1.97,0,0,0,3.55,23.883H22.9a1,1,0,0,0,0-2Z"/></svg>