<svg id="Bold" xmlns="http://www.w3.org/2000/svg" viewBox="0 0 24 24"><title>outdoors-camp-fire-roasting</title><path d="M11.669,11.529a.318.318,0,0,0-.4.458,5.242,5.242,0,0,1,.267,4.219,1,1,0,0,1-1.566.447,2.122,2.122,0,0,1-.649-.877.3.3,0,0,0-.433-.168A4.38,4.38,0,0,0,7.1,19.537a4.675,4.675,0,0,0,9.345-.211A7.637,7.637,0,0,0,11.669,11.529Z"/><path d="M5.25,3H3.6a.252.252,0,0,1-.249-.273L3.5,1.091A1,1,0,1,0,1.5.91L0,17.41A1,1,0,0,0,.91,18.5c.03,0,.061,0,.091,0a1,1,0,0,0,1-.91L3.12,5.228A.25.25,0,0,1,3.369,5H5.25a.25.25,0,0,0,.25-.25v-1.5A.249.249,0,0,0,5.25,3Z"/><path d="M22.5.91a1,1,0,1,0-1.992.181l.149,1.637A.252.252,0,0,1,20.4,3H18.75a.249.249,0,0,0-.25.25v1.5a.25.25,0,0,0,.25.25h1.881a.25.25,0,0,1,.249.227L22,17.591A1,1,0,0,0,23,18.5c.03,0,.061,0,.091,0A1,1,0,0,0,24,17.41Z"/><rect x="7" y="1.001" width="10" height="6.5" rx="1.5" ry="1.5"/></svg>