<svg id="Bold" xmlns="http://www.w3.org/2000/svg" viewBox="0 0 24 24"><title>outdoors-camp-fire-guitar</title><path d="M19.425,12.075a.3.3,0,0,0-.378.438,5,5,0,0,1,.281,3.959,1,1,0,0,1-1.62.42,2.016,2.016,0,0,1-.523-.756.29.29,0,0,0-.414-.16,4.186,4.186,0,0,0-1.713,3.756,4.469,4.469,0,0,0,8.934-.2A7.3,7.3,0,0,0,19.425,12.075Z"/><path d="M13.013,7.815l2.1-2.1a.5.5,0,0,1,.347-.146,1.749,1.749,0,0,0,1.214-.512l2.062-2.062A1.754,1.754,0,1,0,16.257.512L14.2,2.574a1.752,1.752,0,0,0-.513,1.215.5.5,0,0,1-.146.347l-2.1,2.1a.5.5,0,0,1-.6.081,4.737,4.737,0,0,0-1.707-.588,3.225,3.225,0,0,0-2.774.843A2.961,2.961,0,0,0,5.538,8.2a.629.629,0,0,1-.7.526A4.3,4.3,0,0,0,1.2,9.878,4.341,4.341,0,0,0,.032,13.506a6.45,6.45,0,0,0,1.9,3.81,6.316,6.316,0,0,0,4.386,1.928,4.24,4.24,0,0,0,3.052-1.2,4.314,4.314,0,0,0,1.155-3.632.636.636,0,0,1,.527-.7,2.975,2.975,0,0,0,1.623-.817,3.718,3.718,0,0,0,.253-4.482A.5.5,0,0,1,13.013,7.815ZM6.3,15.822a.837.837,0,0,1-1.183,0L3.429,14.13a.837.837,0,1,1,1.183-1.183L6.3,14.638A.837.837,0,0,1,6.3,15.822Zm3.608-4a1.754,1.754,0,1,1-2.48-2.481,1.8,1.8,0,0,1,2.48,0,1.754,1.754,0,0,1,0,2.481Z"/></svg>