<svg id="Bold" xmlns="http://www.w3.org/2000/svg" viewBox="0 0 24 24"><title>outdoors-watch-house</title><path d="M21,13.5H3a.5.5,0,0,0-.5.5v.5a2,2,0,0,0,2,2h.658a.5.5,0,0,1,.48.642L4.08,22.4a1.247,1.247,0,0,0,1.8,1.445L12,20.467l6.126,3.38A1.245,1.245,0,0,0,19.92,22.4l-1.558-5.259a.5.5,0,0,1,.48-.642H19.5a2,2,0,0,0,2-2V14A.5.5,0,0,0,21,13.5ZM9.533,19.543,7.054,20.911a.25.25,0,0,1-.361-.289l.7-2.352a.253.253,0,0,1,.145-.161.25.25,0,0,1,.215.013l1.783.983a.249.249,0,0,1,0,.438ZM14.2,16.97l-2.077,1.146a.253.253,0,0,1-.242,0L9.8,16.97a.25.25,0,0,1,.121-.469h4.154a.25.25,0,0,1,.121.469Zm3.026,3.917a.25.25,0,0,1-.278.024l-2.479-1.368a.25.25,0,0,1,0-.438l1.783-.983a.249.249,0,0,1,.36.148l.7,2.352A.248.248,0,0,1,17.224,20.887Z"/><path d="M6.97,10a.53.53,0,0,1,.53.53v.97A.5.5,0,0,0,8,12h8a.5.5,0,0,0,.5-.5v-.97a.53.53,0,0,1,.53-.53,1,1,0,0,0,.61-1.793L13.2,4.79a.5.5,0,0,1-.2-.4V3.555a.5.5,0,0,1,.342-.475l1.833-.61a.5.5,0,0,0,.071-.918L12.5.136A1,1,0,0,0,11,1V4.393a.5.5,0,0,1-.2.4L6.36,8.208A1,1,0,0,0,6.97,10Z"/></svg>