<svg id="Bold" xmlns="http://www.w3.org/2000/svg" viewBox="0 0 24 24"><title>paralympics-swimming</title><path d="M7.073,11.731h0a2.115,2.115,0,0,0,1.488.874,2.8,2.8,0,0,0,1.911-1.045,2.579,2.579,0,0,1,2-1.006,2.506,2.506,0,0,1,2.261,1.425,1.281,1.281,0,0,0,1.051.626,1.863,1.863,0,0,0,1.475-.845,2.342,2.342,0,0,1,.287-.394.249.249,0,0,0,.018-.312l-4.285-6a1.491,1.491,0,0,1-.247-.561,1.583,1.583,0,0,0-.965-1.207,1.507,1.507,0,0,0-2,1.7A4.483,4.483,0,0,0,10.841,6.8l.295.414L6.287,10.547a.249.249,0,0,0,.009.418A2.418,2.418,0,0,1,7.073,11.731Z"/><circle cx="18.5" cy="6.092" r="2.375"/><path d="M1.169,16.141A5.834,5.834,0,0,0,4.9,14.533,5.24,5.24,0,0,0,8.56,16.105a5.865,5.865,0,0,0,3.811-1.5,4.667,4.667,0,0,0,3.416,1.5,5.146,5.146,0,0,0,3.621-1.5,4.763,4.763,0,0,0,3.661,1.483A1,1,0,0,0,24,15.023,1.022,1.022,0,0,0,22.93,14.1c-1.566.144-2.668-1.556-2.675-1.57a1.049,1.049,0,0,0-1.716.023,3.374,3.374,0,0,1-2.752,1.557,2.8,2.8,0,0,1-2.405-1.481,1.044,1.044,0,0,0-1.713-.161A4.31,4.31,0,0,1,8.56,14.105a3.557,3.557,0,0,1-2.76-1.58,1.04,1.04,0,0,0-1.638-.09c-.014.018-1.438,1.831-3.11,1.7A.981.981,0,0,0,0,15.083C-.009,15.27.043,16.141,1.169,16.141Z"/><path d="M22.93,18.761c-1.585.136-2.667-1.556-2.675-1.57a1.043,1.043,0,0,0-1.72.03,3.362,3.362,0,0,1-2.748,1.551,2.8,2.8,0,0,1-2.4-1.482,1.046,1.046,0,0,0-1.715-.16A4.307,4.307,0,0,1,8.56,18.772,3.557,3.557,0,0,1,5.8,17.191a1.041,1.041,0,0,0-1.638-.09c-.022.028-1.51,1.823-3.11,1.7A.983.983,0,0,0,0,19.75c-.01.187.042,1.058,1.168,1.058A5.844,5.844,0,0,0,4.9,19.2,5.24,5.24,0,0,0,8.56,20.772a5.86,5.86,0,0,0,3.811-1.5,4.576,4.576,0,0,0,3.416,1.5,5.151,5.151,0,0,0,3.622-1.5,4.791,4.791,0,0,0,3.66,1.483,1,1,0,1,0-.139-2Z"/></svg>