<svg id="Bold" xmlns="http://www.w3.org/2000/svg" viewBox="0 0 24 24"><title>paralympics-tennis</title><path d="M22.9,12.258A7.017,7.017,0,0,0,16.44,8H10.055A4.851,4.851,0,0,1,7.146,6.975L6.527,5.857a3.474,3.474,0,0,0,.222-3.92A3.263,3.263,0,0,0,2.427.332,3.285,3.285,0,0,0,1.5,4.849,3.49,3.49,0,0,0,4.739,6.757l.516.931a1.241,1.241,0,0,0,.424,1.284A7.021,7.021,0,0,0,10,10.5a.249.249,0,0,1,.247.25v4.5a1,1,0,0,0,1,1h.5V17a.5.5,0,0,1-.5.5H8.491l.425-1.7A1.25,1.25,0,0,0,6.491,15.2L5.036,21.018a1.249,1.249,0,0,0,2.424.606L7.991,19.5h3.256a.5.5,0,0,1,.5.5v2.5a1.5,1.5,0,0,0,3,0V20a.5.5,0,0,1,.5-.5H18.5l.531,2.124a1.249,1.249,0,0,0,2.424-.606L20,15.2a1.249,1.249,0,1,0-2.424.607L18,17.5H15.247a.5.5,0,0,1-.5-.5v-.75h.5a1,1,0,0,0,1-1v-4.5a.25.25,0,0,1,.25-.25h.417A4.084,4.084,0,0,1,20.6,13.232a1.249,1.249,0,1,0,2.3-.974ZM3.252,3.878c-.388-.7-.32-1.539.146-1.8.423-.233,1.173.055,1.6.827.388.7.32,1.538-.146,1.8C4.434,4.934,3.683,4.656,3.252,3.878Z"/><circle cx="13.248" cy="4" r="2.5"/><circle cx="8.748" cy="1.25" r="1.25"/></svg>