<svg id="Bold" xmlns="http://www.w3.org/2000/svg" viewBox="0 0 24 24"><title>paralympics-race</title><path d="M22.1,17.411a.249.249,0,0,0-.115.244,1.592,1.592,0,0,1,.018.22,3.75,3.75,0,1,1-4.585-3.649.25.25,0,0,0,.19-.2l.293-1.567a.248.248,0,0,0-.062-.216.252.252,0,0,0-.21-.079,5.754,5.754,0,0,0-5.033,4.709H9.521a4.96,4.96,0,0,0-1.857.357l-.359.144A4,4,0,1,0,8,19.625c0-.123-.025-.238-.036-.358l.444-.178a2.974,2.974,0,0,1,1.113-.214h3.072a5.747,5.747,0,0,0,11.407-1,5.678,5.678,0,0,0-.286-1.777.251.251,0,0,0-.467-.022A3,3,0,0,1,22.1,17.411ZM4,21.625a2,2,0,1,1,2-2A2,2,0,0,1,4,21.625Z"/><circle cx="14.75" cy="2.875" r="2.5"/><path d="M22.1,7.036a3.492,3.492,0,0,0-2.6-1.161,3.052,3.052,0,0,0-.69.073l-3.7.977a1.5,1.5,0,0,0-1.088,1.744l.485,2.424a.251.251,0,0,0,.121.168.256.256,0,0,0,.206.019l2.384-.831a.25.25,0,0,0,.162-.285l-.047-.238a.5.5,0,0,1,.363-.581l1.774-.469a.434.434,0,0,1,.395.165.58.58,0,0,1,.086.574L19.024,14.6a1.5,1.5,0,1,0,2.949.55l.924-4.935A3.488,3.488,0,0,0,22.1,7.036Z"/></svg>