<svg xmlns="http://www.w3.org/2000/svg" viewBox="0 0 24 24"><title>parking-ramp-1</title><path d="M23.846,18.426a.247.247,0,0,0-.272.054l-4.28,4.279a.25.25,0,0,0,.091.411,1.046,1.046,0,0,0,.369.067h3A1.249,1.249,0,0,0,24,21.989V18.656A.248.248,0,0,0,23.846,18.426Z"/><path d="M23.846,13.435a.25.25,0,0,0-.272.054l-5,4.99a.249.249,0,0,0-.073.177v2.169a.25.25,0,0,0,.426.177l5-4.994A.251.251,0,0,0,24,15.831V13.666A.251.251,0,0,0,23.846,13.435Z"/><path d="M18.506,15.831a.25.25,0,0,0,.426.176l4.606-4.6a.25.25,0,0,0,.073-.188.247.247,0,0,0-.089-.18,1.186,1.186,0,0,0-.771-.287H20.009a.254.254,0,0,1-.163-.06L8.542,1a1,1,0,0,0-1.3,1.517L18.419,12.1a.249.249,0,0,1,.087.189Z"/><path d="M5.244,21.24H1.249a.25.25,0,0,0-.25.25v.5a1.25,1.25,0,0,0,1.249,1.249h2a1.25,1.25,0,0,0,1.248-1.249v-.5A.25.25,0,0,0,5.244,21.24Z"/><path d="M15.247,21.24H11.252a.25.25,0,0,0-.25.25v.5a1.25,1.25,0,0,0,1.248,1.249h2A1.25,1.25,0,0,0,15.5,21.989v-.5A.25.25,0,0,0,15.247,21.24Z"/><path d="M15.046,14.735a.5.5,0,0,1-.11-.167L12.887,9.447A1.489,1.489,0,0,0,11.5,8.5H5.166a1.493,1.493,0,0,0-1.392.942L1.836,14.292a.5.5,0,0,1-.111.168L.219,15.966A.749.749,0,0,0,0,16.5v2.5a1.25,1.25,0,0,0,1.249,1.248h14A1.25,1.25,0,0,0,16.5,18.993V16.7a1.254,1.254,0,0,0-.366-.883Zm-2.852-1.346a.25.25,0,0,1-.206.109H4.674a.248.248,0,0,1-.231-.342l1-2.5a.25.25,0,0,1,.232-.157h5.315a.249.249,0,0,1,.232.157l1,2.5A.248.248,0,0,1,12.194,13.389Z"/></svg>