<svg xmlns="http://www.w3.org/2000/svg" viewBox="0 0 24 24"><title>park-fonutain-1</title><path d="M8,4.5a1,1,0,0,0,1-1V3a1,1,0,0,1,2,0V6.5a1,1,0,0,0,2,0V3a1,1,0,0,1,2,0v.5a1,1,0,0,0,2,0V3A3,3,0,0,0,12.136.651a.219.219,0,0,1-.272,0A3,3,0,0,0,7,3v.5A1,1,0,0,0,8,4.5Z"/><path d="M5.277,9.532a4.807,4.807,0,0,0,1.436,1.336A8.859,8.859,0,0,0,12,12.5a8.345,8.345,0,0,0,6.916-3.223A.5.5,0,0,0,18.5,8.5H5.5a.5.5,0,0,0-.416.777C5.1,9.3,5.165,9.394,5.277,9.532Z"/><path d="M17.4,22.706C16.8,22.447,16.079,22,16,21.341c0-.042,0-.1,0-.139a.5.5,0,0,0-.583-.494A21.021,21.021,0,0,1,12,21a21.093,21.093,0,0,1-3.415-.291A.5.5,0,0,0,8,21.2a.774.774,0,0,1,0,.1c-.074.694-.8,1.148-1.394,1.406A.675.675,0,0,0,6.872,24H17.128a.675.675,0,0,0,.268-1.294Z"/><path d="M22,13.5H2a.5.5,0,0,0-.5.5c0,4.746,6.868,6,10.5,6s10.5-1.254,10.5-6A.5.5,0,0,0,22,13.5Z"/></svg>