<svg id="Bold" xmlns="http://www.w3.org/2000/svg" viewBox="0 0 24 24"><title>party-decoration</title><path d="M0,1.75c0,.1.9,6.081.9,6.081a1,1,0,0,0,1.74.514L5.971,4.563a.5.5,0,0,1,.517-.148l1.3.384a.5.5,0,0,1,.354.41l.691,4.957a1,1,0,0,0,1.735.531l3.391-3.778a.5.5,0,0,1,.514-.145l.976.288a.5.5,0,0,1,.353.41l.685,4.909a1,1,0,0,0,1.735.53l3.357-3.74a.5.5,0,0,1,.514-.146l.624.184A.96.96,0,0,0,23,9.25a1,1,0,0,0,.283-1.959l-22-6.5A1,1,0,0,0,0,1.75Z"/><path d="M24,14.751a1.088,1.088,0,0,0-.006-.114,1,1,0,0,0-1.107-.88l-22,2.5A1,1,0,0,0,1,18.25a1.093,1.093,0,0,0,.115-.006l.307-.035a.5.5,0,0,1,.489.244l2.511,4.3a1.007,1.007,0,0,0,.868.5l.09,0a1.006,1.006,0,0,0,.848-.662L7.945,17.75a.5.5,0,0,1,.414-.33l.951-.108a.5.5,0,0,1,.488.245l2.522,4.32a1,1,0,0,0,.867.5c.031,0,.061,0,.091,0a1.006,1.006,0,0,0,.848-.662l1.728-4.857a.5.5,0,0,1,.414-.33l.868-.1a.5.5,0,0,1,.488.245L20.1,20.9a1,1,0,0,0,.862.5c.031,0,.062,0,.093,0a1,1,0,0,0,.851-.66l2.068-5.817A.49.49,0,0,0,24,14.751Z"/></svg>