<svg id="Bold" xmlns="http://www.w3.org/2000/svg" viewBox="0 0 24 24"><title>party-music</title><path d="M22.033,19.661a.25.25,0,0,1-.265-.075l-4.82-5.562a.25.25,0,0,0-.439.167,5.763,5.763,0,0,1-1.168,3.588.25.25,0,0,0,.035.341l4.21,3.648a.25.25,0,0,1,.074.266,1.5,1.5,0,0,0,2.487,1.527l1.414-1.415a1.5,1.5,0,0,0,0-2.121A1.538,1.538,0,0,0,22.033,19.661Z"/><path d="M5.19,9.294a.25.25,0,0,0,.346-.018,5.794,5.794,0,0,1,5.242-1.7.25.25,0,0,0,.23-.411L5.781,1.137A3.3,3.3,0,0,0,3.41,0,3.384,3.384,0,0,0,.964.964a3.294,3.294,0,0,0,.172,4.817Z"/><path d="M14.47,11.651,18.6,7.525a.251.251,0,0,1,.258-.059A1.559,1.559,0,0,0,19.9,7.448a.25.25,0,0,1,.265.057l.64.64a.75.75,0,0,0,1.06-1.061l-.53-.531a.247.247,0,0,1,0-.353l.5-.5a.251.251,0,0,1,.354,0l.53.53a.75.75,0,0,0,1.06-1.06l-.662-.663a.248.248,0,0,1-.052-.277A2.5,2.5,0,0,0,19.771.935a.248.248,0,0,1-.277-.052L18.831.22A.75.75,0,1,0,17.77,1.28l.53.531a.249.249,0,0,1,0,.353l-.5.5a.249.249,0,0,1-.353,0l-.53-.53a.75.75,0,0,0-1.061,1.06l.636.636a.249.249,0,0,1,.056.267,1.514,1.514,0,0,0-.014,1.047.249.249,0,0,1-.059.26L12.349,9.53a.249.249,0,0,1-.292.044,4.522,4.522,0,0,0-5.346.644,4.053,4.053,0,0,0-.985,1.628.25.25,0,0,1-.218.172,6,6,0,1,0,4.739,10.22,5.942,5.942,0,0,0,1.734-3.746.255.255,0,0,1,.173-.218,4.06,4.06,0,0,0,1.628-.985,4.522,4.522,0,0,0,.643-5.345A.252.252,0,0,1,14.47,11.651ZM5.28,21.28a.749.749,0,0,1-1.06,0l-1.5-1.5a.75.75,0,0,1,1.06-1.06l1.5,1.5A.749.749,0,0,1,5.28,21.28Zm5.07-4.8h0a2,2,0,1,1,0-2.83A2,2,0,0,1,10.35,16.479Z"/></svg>