<svg id="Bold" xmlns="http://www.w3.org/2000/svg" viewBox="0 0 24 24"><title>party-hats</title><path d="M19.5,19.5a4.483,4.483,0,0,0-1.481.25.5.5,0,0,0-.277.707A6.45,6.45,0,0,1,18.5,23.5a.5.5,0,0,0,.5.5h4.469a.5.5,0,0,0,.5-.562A4.5,4.5,0,0,0,19.5,19.5Z"/><path d="M17.728,14.5h3.544a.5.5,0,0,0,.467-.679L19.967,9.213a.5.5,0,0,0-.934,0l-1.772,4.608a.5.5,0,0,0,.467.679Z"/><path d="M19.5,18.5A2.5,2.5,0,0,0,22,16a.5.5,0,0,0-.5-.5h-4a.5.5,0,0,0-.5.5A2.5,2.5,0,0,0,19.5,18.5Z"/><path d="M5.981,19.75A4.5,4.5,0,0,0,.035,23.438a.5.5,0,0,0,.5.562H5a.5.5,0,0,0,.5-.5,6.461,6.461,0,0,1,.757-3.043.5.5,0,0,0-.276-.707Z"/><path d="M2.728,14.5H6.272a.5.5,0,0,0,.467-.679L4.967,9.213a.5.5,0,0,0-.934,0L2.261,13.821a.5.5,0,0,0,.467.679Z"/><path d="M4.5,18.5A2.5,2.5,0,0,0,7,16a.5.5,0,0,0-.5-.5h-4A.5.5,0,0,0,2,16,2.5,2.5,0,0,0,4.5,18.5Z"/><path d="M8.677,11.5h6.646a.5.5,0,0,0,.478-.647L12.478.353a.5.5,0,0,0-.956,0L8.2,10.853a.5.5,0,0,0,.478.647Z"/><path d="M13.718,18.8a.249.249,0,0,1-.027-.457A3.758,3.758,0,0,0,15.75,15a3.69,3.69,0,0,0-.518-1.877.749.749,0,0,0-.648-.373H9.416a.749.749,0,0,0-.648.373A3.69,3.69,0,0,0,8.25,15a3.758,3.758,0,0,0,2.059,3.347.249.249,0,0,1-.027.457A5.009,5.009,0,0,0,7,23.5a.5.5,0,0,0,.5.5h9a.5.5,0,0,0,.5-.5A5.009,5.009,0,0,0,13.718,18.8Z"/></svg>