<svg id="Bold" xmlns="http://www.w3.org/2000/svg" viewBox="0 0 24 24"><title>payment-paypal</title><path d="M21.71,6.44a.75.75,0,0,0-1.31.74,4,4,0,0,1,.28,2.88,6,6,0,0,1-6,4.82H11.09a.75.75,0,0,0-.73.57L9,20.88H4.7a.75.75,0,0,0,0,1.5H9.58a.75.75,0,0,0,.73-.57l1.37-5.44h3a7.48,7.48,0,0,0,7.43-6A5.5,5.5,0,0,0,21.71,6.44Z"/><path d="M7.55,19.23l1.4-5.61H12a7.26,7.26,0,0,0,7.35-5.82,4.93,4.93,0,0,0-.81-4.34,5.26,5.26,0,0,0-4.1-1.84H6.16A.5.5,0,0,0,5.67,2l-4,17a.5.5,0,0,0,.49.61H7.06A.5.5,0,0,0,7.55,19.23ZM8.76,9.82l1-4.48A.5.5,0,0,1,10.29,5h2.39A2.3,2.3,0,0,1,14,5.38a2.2,2.2,0,0,1,.77,2.45,3.39,3.39,0,0,1-1,1.65,3.76,3.76,0,0,1-.55.43h0a3.26,3.26,0,0,1-1.72.52H9.24a.5.5,0,0,1-.49-.61Z"/></svg>