<svg id="Bold" xmlns="http://www.w3.org/2000/svg" viewBox="0 0 24 24"><title>peacock-head</title><path d="M16.875,8.5c-.339,0-.832-.5-1.309-.99A5.147,5.147,0,0,0,11.875,5.5a9.336,9.336,0,0,0-1.75.141V2.328A1.5,1.5,0,0,0,8.875,0a8.009,8.009,0,0,0-8,8A1.5,1.5,0,0,0,3.109,9.308h3.67a11.115,11.115,0,0,0-.154,1.941c0,8.506-1.879,10.828-3.456,11.279A.75.75,0,0,0,3.375,24h9a.75.75,0,0,0,.75-.75v-4.5c0-1.729.365-5.75,3.75-5.75a12.8,12.8,0,0,1,5.165.921.758.758,0,0,0,1.085-.671C23.125,9.493,19.037,8.5,16.875,8.5Zm-2.5,1a1,1,0,1,1-1-1A1,1,0,0,1,14.375,9.5ZM6.119,3.83a4.974,4.974,0,0,1,2.006-.774v2.78Zm-2.2,3.479a4.971,4.971,0,0,1,.782-2.064L6.769,7.309Z"/></svg>