<svg id="Bold" xmlns="http://www.w3.org/2000/svg" viewBox="0 0 24 24"><title>pelican</title><path d="M7.076,18.34h0a2.118,2.118,0,0,0,1.488.874,2.793,2.793,0,0,0,1.911-1.046,2.582,2.582,0,0,1,2-1.006,2.506,2.506,0,0,1,2.26,1.425,1.279,1.279,0,0,0,1.051.627,1.863,1.863,0,0,0,1.475-.846A2.415,2.415,0,0,1,19.4,17.162a2.505,2.505,0,0,1,1.932.91,15.444,15.444,0,0,0,2.51-4.673.5.5,0,0,0-.477-.648H22.226a.5.5,0,0,1-.472-.666,14.457,14.457,0,0,0,.607-2.253.5.5,0,0,0-.14-.436.493.493,0,0,0-.437-.138l-6.517,1.109a.5.5,0,0,1-.532-.716l2.581-5.177a.5.5,0,0,0-.057-.536c-.088-.109-2.181-2.687-4.889-2.687a4.43,4.43,0,0,0-3.4,1.505H8.962C2.316,2.156.3,6.13.1,6.575a.989.989,0,0,0-.076.62c.36,2.114,2.14,6.056,6.349,6.056.169,0,.334,0,.5-.015a9.131,9.131,0,0,0-.5,3.015,5.678,5.678,0,0,0,.189,1.494A2.484,2.484,0,0,1,7.076,18.34ZM11.865,5a1,1,0,1,1,1-1A1,1,0,0,1,11.865,5ZM8.778,4.747a1.03,1.03,0,0,0,.2,0L9.89,6H3.12A7.761,7.761,0,0,1,8.778,4.747ZM2.318,8H9.324l-.365,1.15a3.686,3.686,0,0,1-1.343,1.958,5.21,5.21,0,0,1-1.246.142A4.415,4.415,0,0,1,2.318,8Z"/><path d="M22.931,20.7c-1.567.146-2.667-1.556-2.675-1.569a1.048,1.048,0,0,0-1.716.022,3.371,3.371,0,0,1-2.751,1.558,2.8,2.8,0,0,1-2.4-1.482,1.045,1.045,0,0,0-1.713-.161,4.3,4.3,0,0,1-3.108,1.643,3.56,3.56,0,0,1-2.76-1.58,1.039,1.039,0,0,0-1.637-.091c-.014.018-1.476,1.825-3.109,1.7a1,1,0,1,0-.106,2c.076,0,.149.006.222.006A5.838,5.838,0,0,0,4.9,21.142a5.24,5.24,0,0,0,3.663,1.572,5.86,5.86,0,0,0,3.81-1.5,4.578,4.578,0,0,0,3.416,1.5,5.145,5.145,0,0,0,3.62-1.5A4.78,4.78,0,0,0,23.07,22.7a1,1,0,0,0-.139-2Z"/></svg>