<svg xmlns="http://www.w3.org/2000/svg" viewBox="0 0 24 24"><title>people-man-graduate</title><path d="M.5,13.985h3a.5.5,0,0,0,.5-.5A10.623,10.623,0,0,0,2.778,8.86a.256.256,0,0,1-.028-.114V5.205a.75.75,0,0,0-1.5,0V8.746a.252.252,0,0,1-.027.114A10.608,10.608,0,0,0,0,13.485.5.5,0,0,0,.5,13.985Z"/><path d="M21.187,20.271l-.017-.006L16.2,18.618a.5.5,0,0,0-.5.114l-3.357,3.231a.5.5,0,0,1-.691,0l-3.4-3.218a.5.5,0,0,0-.5-.112L2.814,20.271a4.517,4.517,0,0,0-2.8,3.087.5.5,0,0,0,.483.627h23a.5.5,0,0,0,.483-.626A4.51,4.51,0,0,0,21.187,20.271Z"/><path d="M23.586,1.993,12.429.052a2.5,2.5,0,0,0-.858,0L.414,1.993a.5.5,0,0,0,0,.985l11.157,1.94a2.441,2.441,0,0,0,.858,0l11.157-1.94a.5.5,0,0,0,0-.985Z"/><path d="M18.458,5.393,12.343,6.456a2.037,2.037,0,0,1-.685,0L5.543,5.393a.25.25,0,0,0-.293.246V10a.249.249,0,0,1-.063.166,2.1,2.1,0,0,0-.476,1.455,2.726,2.726,0,0,0,1.433,2.429l.151.192c.51,3.047,4.02,4.99,5.686,4.99s5.175-1.943,5.685-4.989l.151-.192a2.733,2.733,0,0,0,1.433-2.43,2.118,2.118,0,0,0-.442-1.407.251.251,0,0,1-.058-.159V5.639A.249.249,0,0,0,18.458,5.393Zm-1.266,7.3a1.753,1.753,0,0,0-1,1.306c-.377,2.249-3.174,3.739-4.207,3.739S8.15,16.246,7.773,14a1.757,1.757,0,0,0-1-1.306A1.276,1.276,0,0,1,6.21,11.6a.638.638,0,0,1,.1-.433.748.748,0,0,0,.438-.678V8.548a.249.249,0,0,1,.1-.2.253.253,0,0,1,.216-.044A19.469,19.469,0,0,0,12,8.952a19.471,19.471,0,0,0,4.937-.646.25.25,0,0,1,.313.242v1.821a.743.743,0,0,0,.395.787.622.622,0,0,1,.105.44A1.276,1.276,0,0,1,17.192,12.691Z"/><path d="M12.939,14.306a1.385,1.385,0,0,1-.237.1,1.992,1.992,0,0,1-.575.081h0a1.993,1.993,0,0,1-.58-.082,1.365,1.365,0,0,1-.238-.1.75.75,0,0,0-.711,1.321,2.728,2.728,0,0,0,.51.21,3.5,3.5,0,0,0,1.017.149h.007a3.449,3.449,0,0,0,1.014-.147,2.841,2.841,0,0,0,.511-.212.75.75,0,1,0-.714-1.319Z"/><path d="M11.189,12a.75.75,0,0,0-.055-1.059,2.1,2.1,0,0,0-2.636,0,.75.75,0,0,0,1,1.115.636.636,0,0,1,.628,0A.75.75,0,0,0,11.189,12Z"/><path d="M13.064,10.945a.75.75,0,0,0,1,1.115.636.636,0,0,1,.628,0,.75.75,0,1,0,1-1.115A2.1,2.1,0,0,0,13.064,10.945Z"/></svg>