<svg xmlns="http://www.w3.org/2000/svg" viewBox="0 0 24 24"><title>people-man-4</title><path d="M7.375,17.436a14.264,14.264,0,0,0-5.908,2.481A2.464,2.464,0,0,0,.5,21.894V23.5A.5.5,0,0,0,1,24H23a.5.5,0,0,0,.5-.5V21.894a2.464,2.464,0,0,0-.967-1.977,14.264,14.264,0,0,0-5.908-2.481.5.5,0,0,0-.48.175c-.083.1-1.26,2.889-4.145,2.889s-4.062-2.791-4.146-2.891A.5.5,0,0,0,7.375,17.436Z"/><path d="M15.587,16.5A7,7,0,0,0,19,10.5v-2a6.961,6.961,0,0,0-1.5-4.316h0c0-2.1-1.642-2.383-2.841-2.593S13,1.232,13,.5a.5.5,0,0,0-.169-.374A.491.491,0,0,0,12.439,0C8.776.454,6.5,2.056,6.5,4.184h0A6.961,6.961,0,0,0,5,8.5v2a6.985,6.985,0,0,0,10.587,6ZM7,10.5v-2a4.876,4.876,0,0,1,.326-1.743A.248.248,0,0,1,7.5,6.6a.252.252,0,0,1,.224.051A6.6,6.6,0,0,0,12,8a6.611,6.611,0,0,0,4.306-1.283.25.25,0,0,1,.4.105A4.919,4.919,0,0,1,17,8.5v2a5,5,0,0,1-10,0Z"/><circle cx="14" cy="10.75" r="1"/><circle cx="10" cy="10.75" r="1"/><path d="M10.457,13.344a.638.638,0,0,0,.317.719,2.31,2.31,0,0,0,.435.18,2.99,2.99,0,0,0,.867.126h.006a2.976,2.976,0,0,0,.863-.125,2.3,2.3,0,0,0,.436-.181.639.639,0,0,0-.3-1.2h-2A.639.639,0,0,0,10.457,13.344Z"/></svg>