<svg xmlns="http://www.w3.org/2000/svg" viewBox="0 0 24 24"><title>people-man-moustache-1</title><path d="M4.751,10.019a2.729,2.729,0,0,0,1.435,2.432.251.251,0,0,1,.142.188,4.427,4.427,0,0,0,.14.584.248.248,0,0,1-.051.239.252.252,0,0,1-.231.081,3.637,3.637,0,0,1-.529-.137A.5.5,0,0,0,5,13.88c0,1.141.78,2.5,4.5,2.5a3.6,3.6,0,0,0,2.339-.838.25.25,0,0,1,.322,0,3.521,3.521,0,0,0,2.339.837c3.72,0,4.5-1.359,4.5-2.5a.5.5,0,0,0-.658-.474,3.749,3.749,0,0,1-.527.137.25.25,0,0,1-.282-.32,4.441,4.441,0,0,0,.14-.585.251.251,0,0,1,.142-.187,2.729,2.729,0,0,0,1.435-2.432,2.159,2.159,0,0,0-.4-1.364A.25.25,0,0,1,18.8,8.47c.361-2.713-.074-4.816-1.293-6.255C16.336.831,14.482.13,12,.13s-4.336.7-5.509,2.085C5.364,3.546,4.819,5.59,5.2,8.47a.25.25,0,0,1-.049.185A2.157,2.157,0,0,0,4.751,10.019ZM9.679,1.957A.25.25,0,0,1,10,2.2v.466A3.128,3.128,0,0,0,11.82,5.527a10.115,10.115,0,0,0,4,.851.25.25,0,0,1,.241.2l.3,1.5a.984.984,0,0,0,.713.755.249.249,0,0,1,.18.2.737.737,0,0,0,.392.525.627.627,0,0,1,.1.439,1.281,1.281,0,0,1-.557,1.1,1.75,1.75,0,0,0-1,1.306,2.129,2.129,0,0,1-.049.221.252.252,0,0,1-.173.175.248.248,0,0,1-.238-.058l-.075-.07A3.639,3.639,0,0,0,13,11.38a2.216,2.216,0,0,0-.9.179.253.253,0,0,1-.2,0,2.209,2.209,0,0,0-.9-.179,3.641,3.641,0,0,0-2.657,1.28l-.073.069a.251.251,0,0,1-.412-.117,2.106,2.106,0,0,1-.048-.22,1.75,1.75,0,0,0-1-1.306,1.281,1.281,0,0,1-.557-1.1.627.627,0,0,1,.1-.439.754.754,0,0,0,.405-.794c-.049-.294-.085-.577-.113-.852A.251.251,0,0,1,6.9,7.63H8.5a.75.75,0,0,0,0-1.5H6.868a.249.249,0,0,1-.248-.277c.019-.179.045-.351.077-.519a.249.249,0,0,1,.245-.2H8a.75.75,0,0,0,0-1.5H7.8a.249.249,0,0,1-.193-.408l.031-.037A4.121,4.121,0,0,1,9.679,1.957Z"/><path d="M16.951,16.974l-.259-.074a.5.5,0,0,0-.537.18,5.534,5.534,0,0,1-2.129,1.552.248.248,0,0,0,.017.462l3.19,1.111a.25.25,0,0,0,.329-.275l-.433-2.754A.249.249,0,0,0,16.951,16.974Z"/><path d="M7.845,17.08a.5.5,0,0,0-.537-.18l-.259.074a.25.25,0,0,0-.178.2l-.432,2.747a.251.251,0,0,0,.331.275l3.156-1.12a.247.247,0,0,0,.02-.459A5.515,5.515,0,0,1,7.845,17.08Z"/><path d="M5.917,21.561a.506.506,0,0,1-.167.029.5.5,0,0,1-.494-.578l.518-3.3a.249.249,0,0,0-.315-.279l-2.538.727A4.52,4.52,0,0,0,0,22.37v1a.5.5,0,0,0,.5.5H11a.25.25,0,0,0,.25-.25v-3.6a.25.25,0,0,0-.334-.236Z"/><path d="M21.042,18.144l-2.5-.715a.25.25,0,0,0-.316.279l.519,3.3a.5.5,0,0,1-.494.578.474.474,0,0,1-.165-.029l-5-1.743a.249.249,0,0,0-.332.236V23.62a.25.25,0,0,0,.25.25H23.5a.5.5,0,0,0,.5-.5v-1A4.531,4.531,0,0,0,21.042,18.144Z"/><path d="M8.489,9.331a.75.75,0,0,0,1.022,1.1.562.562,0,0,1,.557,0,.75.75,0,1,0,1.022-1.1A2.02,2.02,0,0,0,8.489,9.331Z"/><path d="M13.421,10.63a.746.746,0,0,0,.511-.2.562.562,0,0,1,.557,0,.75.75,0,1,0,1.022-1.1,2.02,2.02,0,0,0-2.6,0,.75.75,0,0,0,.511,1.3Z"/></svg>