<svg xmlns="http://www.w3.org/2000/svg" viewBox="0 0 24 24"><title>people-man-3</title><path d="M3.5,9.5a3.488,3.488,0,0,0,2.476,3.331.252.252,0,0,1,.155.136,9.466,9.466,0,0,0,1.193,1.977,6.485,6.485,0,0,0,4.655,2.744,6.528,6.528,0,0,0,4.672-2.764,9.431,9.431,0,0,0,1.182-1.944.251.251,0,0,1,.156-.136A3.489,3.489,0,0,0,20.163,8a.25.25,0,0,1,.033-.267,3.5,3.5,0,0,0-2.133-5.687.251.251,0,0,1-.189-.146,1.5,1.5,0,0,0-2.156-.679.25.25,0,0,1-.287-.018,5.5,5.5,0,0,0-6.862,0,.25.25,0,0,1-.287.018A1.5,1.5,0,0,0,6.126,1.9a.251.251,0,0,1-.189.146A3.5,3.5,0,0,0,3.8,7.732.25.25,0,0,1,3.837,8,3.491,3.491,0,0,0,3.5,9.5Zm5,4.514A8.332,8.332,0,0,1,6.8,7.94a.25.25,0,0,1,.285-.222A2.83,2.83,0,0,0,8.853,7.4a.249.249,0,0,1,.311.054,3.743,3.743,0,0,0,5.672,0,.25.25,0,0,1,.311-.054,2.828,2.828,0,0,0,1.754.325.248.248,0,0,1,.188.05.253.253,0,0,1,.1.171,8.212,8.212,0,0,1-1.709,6.051,5.141,5.141,0,0,1-3.5,2.195A5.161,5.161,0,0,1,8.5,14.014Z"/><path d="M21.08,18.287l-.017-.006-4.476-1.5a.5.5,0,0,0-.562.178,4.985,4.985,0,0,1-8.05,0,.5.5,0,0,0-.562-.178L2.92,18.287A4.519,4.519,0,0,0,0,22.5v1a.5.5,0,0,0,.5.5h23a.5.5,0,0,0,.5-.5v-1A4.519,4.519,0,0,0,21.08,18.287Z"/><path d="M13.954,12.818a.748.748,0,0,0-1.016-.3,1.286,1.286,0,0,1-.235.1,1.98,1.98,0,0,1-.576.082h0a2.051,2.051,0,0,1-.582-.083,1.248,1.248,0,0,1-.234-.1.75.75,0,1,0-.715,1.318,2.765,2.765,0,0,0,.512.213,3.572,3.572,0,0,0,1.017.148h.006a3.521,3.521,0,0,0,1.014-.147,2.773,2.773,0,0,0,.511-.213A.75.75,0,0,0,13.954,12.818Z"/><path d="M9,10.463a.75.75,0,0,0,.5-.193.633.633,0,0,1,.625,0,.75.75,0,1,0,1.006-1.113,2.094,2.094,0,0,0-2.637,0A.75.75,0,0,0,9,10.463Z"/><path d="M13.565,10.463a.747.747,0,0,0,.5-.192.63.63,0,0,1,.626,0A.75.75,0,1,0,15.7,9.157a2.1,2.1,0,0,0-2.636,0,.75.75,0,0,0,.5,1.307Z"/></svg>