<svg xmlns="http://www.w3.org/2000/svg" viewBox="0 0 24 24"><title>people-man-cap-2</title><path d="M4.71,10.014a2.729,2.729,0,0,0,1.439,2.433.25.25,0,0,1,.144.187c.511,3.048,4.021,4.991,5.686,4.991s5.176-1.943,5.687-4.989a.252.252,0,0,1,.145-.189,2.731,2.731,0,0,0,1.439-2.434,2.116,2.116,0,0,0-.465-1.443c.046-.324.078-.638.1-.945H22a.75.75,0,0,0,0-1.5H18.9c-.054-.954-.278-6-6.919-6-3.618,0-7,1.579-6.935,6.726a13.861,13.861,0,0,0,.13,1.719A2.112,2.112,0,0,0,4.71,10.014ZM11,3.625h2a.75.75,0,0,1,0,1.5H11a.75.75,0,0,1,0-1.5Zm6.191,7.456a1.746,1.746,0,0,0-1,1.3c-.378,2.249-3.176,3.739-4.209,3.739s-3.83-1.49-4.207-3.738a1.747,1.747,0,0,0-1-1.306,1.275,1.275,0,0,1-.559-1.1.626.626,0,0,1,.1-.439.752.752,0,0,0,.406-.794c-.033-.194-.059-.382-.081-.567a.5.5,0,0,1,.5-.56h9.687a.5.5,0,0,1,.5.56c-.022.185-.048.373-.081.566a.752.752,0,0,0,.406.8.616.616,0,0,1,.105.439A1.279,1.279,0,0,1,17.191,11.081Z"/><path d="M12.751,12.453a1.626,1.626,0,0,1-.764.172h0a1.651,1.651,0,0,1-.771-.174.75.75,0,1,0-.731,1.31,3.259,3.259,0,0,0,1.506.364,3.144,3.144,0,0,0,1.5-.365.75.75,0,1,0-.734-1.307Z"/><path d="M11.089,10.161A.751.751,0,0,0,11.05,9.1a2.019,2.019,0,0,0-2.6,0,.75.75,0,0,0,1.022,1.1.557.557,0,0,1,.557,0A.751.751,0,0,0,11.089,10.161Z"/><path d="M12.869,9.1a.75.75,0,0,0,1.022,1.1.558.558,0,0,1,.559,0,.75.75,0,0,0,1.02-1.1A2.022,2.022,0,0,0,12.869,9.1Z"/><path d="M21.08,18.162l-.017-.006-4.476-1.5a.5.5,0,0,0-.562.178,4.947,4.947,0,0,1-2.888,1.908.5.5,0,0,0-.387.488v4.148a.5.5,0,0,0,.5.5H23.5a.5.5,0,0,0,.5-.5v-1A4.519,4.519,0,0,0,21.08,18.162Zm-5.33,3.713a.75.75,0,1,1-.75-.75A.75.75,0,0,1,15.75,21.875Z"/><path d="M11.25,19.227a.5.5,0,0,0-.387-.488,4.947,4.947,0,0,1-2.888-1.908.5.5,0,0,0-.562-.178L2.92,18.162A4.519,4.519,0,0,0,0,22.375v1a.5.5,0,0,0,.5.5H10.75a.5.5,0,0,0,.5-.5Z"/></svg>