<svg xmlns="http://www.w3.org/2000/svg" viewBox="0 0 24 24"><title>people-woman-3</title><path d="M22.534,18.917h0a14.255,14.255,0,0,0-5.908-2.481.5.5,0,0,0-.552.279A4.557,4.557,0,0,1,12,19.5a4.662,4.662,0,0,1-4.073-2.785.5.5,0,0,0-.552-.279,14.939,14.939,0,0,0-5.909,2.481A2.466,2.466,0,0,0,.5,20.894V23.5A.5.5,0,0,0,1,24H23a.5.5,0,0,0,.5-.5V20.894A2.466,2.466,0,0,0,22.534,18.917Z"/><path d="M15.587,15.5A7,7,0,0,0,19,9.5v-2a6.884,6.884,0,0,0-.192-1.6.251.251,0,0,1,.123-.278A2.992,2.992,0,1,0,15.21,1.078a.25.25,0,0,1-.3.066,6.915,6.915,0,0,0-5.828,0,.25.25,0,0,1-.3-.066A2.992,2.992,0,1,0,5.069,5.626a.251.251,0,0,1,.123.278A6.884,6.884,0,0,0,5,7.5v2a6.985,6.985,0,0,0,10.587,6ZM7,9.5V8.491a.251.251,0,0,1,.243-.25,7,7,0,0,0,4.694-1.693.1.1,0,0,1,.126,0,7,7,0,0,0,4.694,1.7.249.249,0,0,1,.243.25V9.5a5,5,0,0,1-10,0Z"/><circle cx="14" cy="10" r="1"/><circle cx="10" cy="10" r="1"/><path d="M10.458,12.611a.638.638,0,0,0,.312.719,2.308,2.308,0,0,0,.438.183,3.017,3.017,0,0,0,.869.127,2.977,2.977,0,0,0,.866-.125,2.378,2.378,0,0,0,.441-.184.639.639,0,0,0-.307-1.2h-2A.639.639,0,0,0,10.458,12.611Z"/></svg>