<svg xmlns="http://www.w3.org/2000/svg" viewBox="0 0 24 24"><title>people-man-moustache-1</title><path d="M.517,23.5a.5.5,0,0,0,.5.5H11.126a.25.25,0,0,0,.25-.25V19.471a.592.592,0,0,1,.057-.254.247.247,0,0,0,0-.214.25.25,0,0,0-.165-.136,3,3,0,0,1-2.121-1.994A.248.248,0,0,0,8.88,16.7a15.2,15.2,0,0,0-7.4,2.722A2.463,2.463,0,0,0,.517,21.4Z"/><path d="M12.731,18.867a.249.249,0,0,0-.164.35.592.592,0,0,1,.057.254V23.75a.25.25,0,0,0,.25.25H22.983a.5.5,0,0,0,.5-.5V21.4a2.461,2.461,0,0,0-.966-1.974,15.189,15.189,0,0,0-7.4-2.722.249.249,0,0,0-.268.171A3,3,0,0,1,12.731,18.867Z"/><circle cx="13.997" cy="9.023" r="0.998"/><circle cx="10.003" cy="9.023" r="0.998"/><path d="M4.933,13.862a.5.5,0,0,0,.077.536c.625.719,1.5,1.614,4.494,1.614a3.478,3.478,0,0,0,2.312-.965.249.249,0,0,1,.368,0,3.476,3.476,0,0,0,2.312.965c2.99,0,3.869-.895,4.494-1.614a.5.5,0,0,0-.381-.826,5.509,5.509,0,0,1-.82-.051.25.25,0,0,1-.166-.4,6.952,6.952,0,0,0,1.366-4.139v-2a6.989,6.989,0,0,0-13.978,0v2a6.956,6.956,0,0,0,1.365,4.139.251.251,0,0,1-.165.4,5.518,5.518,0,0,1-.82.051A.5.5,0,0,0,4.933,13.862ZM13.5,11.02a1.988,1.988,0,0,0-1.331.508.25.25,0,0,1-.333,0A1.988,1.988,0,0,0,10.5,11.02c-1.181,0-1.581.67-2.149,1.323a.036.036,0,0,1-.023.011.031.031,0,0,1-.024-.01,4.976,4.976,0,0,1-1.3-3.358V7.525a.249.249,0,0,1,.249-.25H9.005a.749.749,0,0,0,0-1.5h-1.5a.25.25,0,0,1-.237-.328,5.071,5.071,0,0,1,.208-.525A.251.251,0,0,1,7.7,4.779h.8a.749.749,0,0,0,.749-.749.72.72,0,0,0-.291-.579.251.251,0,0,1-.1-.2.255.255,0,0,1,.1-.2,4.992,4.992,0,0,1,1.086-.635.25.25,0,0,1,.345.192c.663,4.359,3.64,4.671,6.3,4.671h.047a.249.249,0,0,1,.25.25V8.986a4.984,4.984,0,0,1-1.3,3.359.033.033,0,0,1-.023.01.03.03,0,0,1-.023-.011C15.079,11.69,14.679,11.02,13.5,11.02Z"/></svg>