<svg xmlns="http://www.w3.org/2000/svg" viewBox="0 0 24 24"><title>people-woman-13</title><path d="M22.534,21.167h0a14.255,14.255,0,0,0-5.908-2.481.491.491,0,0,0-.479.173c-.084.1-1.206,2.891-4.146,2.891a4.743,4.743,0,0,1-4.145-2.89.493.493,0,0,0-.48-.174,14.267,14.267,0,0,0-5.909,2.481A2.466,2.466,0,0,0,.5,23.144v.106a.5.5,0,0,0,.5.5H23a.5.5,0,0,0,.5-.5v-.106A2.466,2.466,0,0,0,22.534,21.167Z"/><path d="M19,11c-.012-1.458.028-1.779-.035-2.406a.253.253,0,0,1,.123-.241A2.026,2.026,0,0,0,20,6.448v-2.9a2.108,2.108,0,0,0-.9-1.909A3.041,3.041,0,0,0,16.613,1.5a.249.249,0,0,1-.261-.088A2.971,2.971,0,0,0,14,.25H10A2.969,2.969,0,0,0,7.708,1.338a.253.253,0,0,1-.243.085A3.578,3.578,0,0,0,5.054,1.6,2.091,2.091,0,0,0,4,3.553V6.447A2.1,2.1,0,0,0,4.928,8.3a.25.25,0,0,1,.114.237C4.966,9.221,5.014,9.486,5,11c-.058,6.11,5.065,7.251,7,7.251C12.451,18.25,19.059,18.184,19,11ZM6.019,3.544a.251.251,0,0,1,.219-.256,7.15,7.15,0,0,1,2.813.77c.3.146.361.273.324.391a2.656,2.656,0,0,0-.1,1.19.252.252,0,0,1-.143.259,6.53,6.53,0,0,1-2.9.8.249.249,0,0,1-.206-.253C6.022,4.8,6.02,3.908,6.019,3.544Zm11.692-.287a.25.25,0,0,1,.277.238c.025.622-.02,2.316-.01,2.951a.25.25,0,0,1-.272.253,12.49,12.49,0,0,1-2.821-.961.25.25,0,0,1-.15-.258,2.3,2.3,0,0,0-.076-.89A.25.25,0,0,1,14.8,4.3,14.571,14.571,0,0,1,17.711,3.257ZM10.75,5.25A1.25,1.25,0,1,1,12,6.5,1.252,1.252,0,0,1,10.75,5.25ZM7,11.25V10.241a.249.249,0,0,1,.243-.249A7.016,7.016,0,0,0,11.9,8.335a.156.156,0,0,1,.208,0,7.019,7.019,0,0,0,4.653,1.658.249.249,0,0,1,.243.25V11.25a5,5,0,0,1-10,0Z"/><circle cx="14" cy="11.75" r="1"/><circle cx="10" cy="11.75" r="1"/><path d="M12.943,15.265a2.378,2.378,0,0,0,.441-.184.639.639,0,0,0-.307-1.2h-2a.639.639,0,0,0-.307,1.2,2.308,2.308,0,0,0,.438.183,3.017,3.017,0,0,0,.869.127A2.977,2.977,0,0,0,12.943,15.265Z"/></svg>