<svg xmlns="http://www.w3.org/2000/svg" viewBox="0 0 24 24"><title>people-man-beanie-1</title><circle cx="13.979" cy="11.876" r="0.99"/><circle cx="10.021" cy="11.876" r="0.99"/><path d="M10.472,14.444a.634.634,0,0,0,.315.712,2.322,2.322,0,0,0,.43.177,2.967,2.967,0,0,0,.858.125h.006a2.927,2.927,0,0,0,.855-.124,2.3,2.3,0,0,0,.431-.179.633.633,0,0,0-.3-1.189h-1.98A.633.633,0,0,0,10.472,14.444Z"/><path d="M17.932,6.68a.247.247,0,0,0,.237-.317A6.448,6.448,0,0,0,13.65,1.952a.248.248,0,0,1-.181-.277,1.188,1.188,0,0,0,.016-.19,1.485,1.485,0,1,0-2.97,0,1.188,1.188,0,0,0,.016.19.248.248,0,0,1-.181.277A6.448,6.448,0,0,0,5.831,6.363a.247.247,0,0,0,.237.317Z"/><path d="M22.725,20.555a13.846,13.846,0,0,0-4.84-2.26c-.378-.1-.635-.164-.782-.2a.246.246,0,0,1-.185-.186,1.412,1.412,0,0,0-.1-.316.958.958,0,0,0-.291-.325.248.248,0,0,1-.019-.391,6.9,6.9,0,0,0,2.423-5.249V10.618a.247.247,0,0,1,.1-.2.966.966,0,0,0,.4-.772c0-1.389.005-.9-.027-1.123a.981.981,0,0,0-.963-.856H5.567a.991.991,0,0,0-.99.99v.989a.966.966,0,0,0,.4.772.246.246,0,0,1,.1.2v1.011A6.9,6.9,0,0,0,7.5,16.878a.248.248,0,0,1-.019.391.958.958,0,0,0-.291.325,1.011,1.011,0,0,0-.123.339.218.218,0,0,1-.168.179c-.145.031-.269.06-.779.183a12.673,12.673,0,0,0-4.841,2.261A2.941,2.941,0,0,0,.124,23.01a.99.99,0,1,0,1.979,0,1,1,0,0,1,.373-.881,12,12,0,0,1,4.24-1.946c.114-.03.33-.091.514-.144a.247.247,0,0,1,.316.237v2.982a.5.5,0,0,0,.5.5h2.474a.5.5,0,0,0,.495-.5V21.251A.248.248,0,0,1,11.276,21c.236.018.478.027.724.027a7.1,7.1,0,0,0,4.1-1.1.248.248,0,0,1,.275-.015.87.87,0,0,0,.263.106c.227.051.438.107.65.163a12,12,0,0,1,4.239,1.945,1,1,0,0,1,.374.882.99.99,0,1,0,1.979,0A2.944,2.944,0,0,0,22.725,20.555ZM12,16.577a4.954,4.954,0,0,1-4.948-4.948v-.742a.247.247,0,0,1,.247-.248h9.4a.247.247,0,0,1,.247.248v.742A4.954,4.954,0,0,1,12,16.577Z"/></svg>