<svg xmlns="http://www.w3.org/2000/svg" viewBox="0 0 24 24"><title>people-man-12</title><path d="M21.924,19.086a.247.247,0,0,0,.233-.006.251.251,0,0,0,.128-.195l.213-2.34a.5.5,0,0,0-.841-.409l-1.943,1.829a.25.25,0,0,0,.116.426A9.113,9.113,0,0,1,21.924,19.086Z"/><path d="M4.17,18.391a.25.25,0,0,0,.117-.425l-1.944-1.83a.5.5,0,0,0-.841.409l.213,2.34a.251.251,0,0,0,.361.2A9.093,9.093,0,0,1,4.17,18.391Z"/><path d="M23.817,23.83a.5.5,0,0,0,.121-.394,4.53,4.53,0,0,0-1.691-3,7.1,7.1,0,0,0-3.056-1.157c-.3-.063-.607-.126-.907-.2l-2.072-.523a.5.5,0,0,0-.47.125l-3.59,3.478a.251.251,0,0,1-.34.008L7.945,18.739a.5.5,0,0,0-.454-.111l-1.776.449c-.3.076-.6.139-.906.2a7.107,7.107,0,0,0-3.057,1.157,4.532,4.532,0,0,0-1.69,3,.5.5,0,0,0,.5.564H23.441A.5.5,0,0,0,23.817,23.83Z"/><path d="M11.979,18.75a6.281,6.281,0,0,0,3.387-1.441,5.876,5.876,0,0,0,2.3-3.548.252.252,0,0,1,.145-.189,2.731,2.731,0,0,0,1.439-2.434c0-.053,0-.106,0-.158a.25.25,0,0,1,.187-.256c1.653-.425,4.1-1.209,4.219-1.248a.5.5,0,0,0,0-.952c-.366-.118-3-.958-4.584-1.337a.254.254,0,0,1-.191-.222,7.293,7.293,0,0,0-.5-2.186.25.25,0,0,1,0-.2C19.146,2.961,19.931.78,19.971.669a.5.5,0,0,0-.82-.527c-.016.016-1.282,1.239-2.51,2.178a.248.248,0,0,1-.286.012,6.067,6.067,0,0,0-1.361-.64.251.251,0,0,0-.3.352A9.642,9.642,0,0,1,15.278,3.4a.249.249,0,0,0,.112.137,3.669,3.669,0,0,1,.975.776c1,1.18,1.294,3.053.874,5.566a.751.751,0,0,0,.406.794.616.616,0,0,1,.105.439,1.279,1.279,0,0,1-.559,1.1,1.746,1.746,0,0,0-1,1.3c-.378,2.249-3.176,3.739-4.209,3.739s-3.83-1.49-4.207-3.738a1.747,1.747,0,0,0-1-1.306,1.275,1.275,0,0,1-.559-1.1.626.626,0,0,1,.1-.439.752.752,0,0,0,.406-.794C6.3,7.363,6.6,5.49,7.6,4.31a3.684,3.684,0,0,1,1.02-.8.249.249,0,0,0,.114-.137A9.911,9.911,0,0,1,9.314,2.03a.249.249,0,0,0-.3-.352,6.112,6.112,0,0,0-1.388.642.25.25,0,0,1-.286-.013C6.119,1.37,4.865.158,4.849.142a.5.5,0,0,0-.82.527c.04.11.809,2.25,1.571,3.859a.252.252,0,0,1,0,.205A7.288,7.288,0,0,0,5.08,6.974a.25.25,0,0,1-.19.222C3.3,7.58.71,8.407.347,8.524a.5.5,0,0,0,0,.952c.122.039,2.527.81,4.179,1.238a.249.249,0,0,1,.187.255c0,.056,0,.113,0,.17a2.729,2.729,0,0,0,1.439,2.433.25.25,0,0,1,.144.187A5.873,5.873,0,0,0,8.6,17.316,6.268,6.268,0,0,0,11.979,18.75Z"/><path d="M12.792,13.078a1.8,1.8,0,0,1-1.54,0,.75.75,0,1,0-.731,1.31,3.287,3.287,0,0,0,3,0,.75.75,0,1,0-.734-1.307Z"/><path d="M11.129,10.786a.751.751,0,0,0-.039-1.06,2.019,2.019,0,0,0-2.6,0,.75.75,0,0,0,1.022,1.1.557.557,0,0,1,.557,0,.753.753,0,0,0,1.061-.039Z"/><path d="M12.91,9.726a.75.75,0,0,0,1.022,1.1.557.557,0,0,1,.557,0,.75.75,0,1,0,1.022-1.1A2.019,2.019,0,0,0,12.91,9.726Z"/><path d="M9.5,4.5a2.5,2.5,0,0,0,5,0c0-1.2-1.74-3.779-2.089-4.284a.517.517,0,0,0-.822,0C11.24.721,9.5,3.3,9.5,4.5Z"/></svg>