<svg xmlns="http://www.w3.org/2000/svg" viewBox="0 0 24 24"><title>people-man-5</title><path d="M12.792,15.578a1.2,1.2,0,0,1-.22.093,1.834,1.834,0,0,1-.544.079h0a1.837,1.837,0,0,1-.55-.081,1.2,1.2,0,0,1-.222-.093.75.75,0,1,0-.731,1.31,2.717,2.717,0,0,0,.5.214,3.7,3.7,0,0,0,1.005.15,3.346,3.346,0,0,0,.993-.148,2.669,2.669,0,0,0,.5-.217.75.75,0,1,0-.734-1.307Z"/><path d="M11.129,13.286a.751.751,0,0,0-.039-1.06,2.017,2.017,0,0,0-2.6,0,.75.75,0,0,0,1.022,1.1.557.557,0,0,1,.557,0,.753.753,0,0,0,1.061-.039Z"/><path d="M12.91,12.226a.75.75,0,0,0,1.022,1.1.557.557,0,0,1,.557,0,.75.75,0,1,0,1.022-1.1A2.017,2.017,0,0,0,12.91,12.226Z"/><path d="M6.149,15.572a.25.25,0,0,1,.144.187c.511,3.048,4.021,4.991,5.686,4.991s5.176-1.943,5.687-4.989a.252.252,0,0,1,.145-.189,2.731,2.731,0,0,0,1.439-2.434,2.16,2.16,0,0,0-.4-1.364.252.252,0,0,1-.049-.185c.362-2.709-.072-4.809-1.29-6.248C16.334,3.954,14.474,3.25,11.979,3.25s-4.353.7-5.529,2.091C5.232,6.779,4.8,8.88,5.159,11.589a.252.252,0,0,1-.049.185,2.156,2.156,0,0,0-.4,1.365A2.729,2.729,0,0,0,6.149,15.572Zm11.042-1.366a1.746,1.746,0,0,0-1,1.3c-.378,2.249-3.176,3.739-4.209,3.739s-3.83-1.49-4.207-3.738a1.747,1.747,0,0,0-1-1.306,1.275,1.275,0,0,1-.559-1.1.626.626,0,0,1,.1-.439.735.735,0,0,0,.393-.526.248.248,0,0,1,.179-.194A.985.985,0,0,0,7.6,11.2l.3-1.5a.25.25,0,0,1,.241-.2c3.524-.061,3.779-1.728,3.8-1.969a.031.031,0,0,1,.031-.029h.024a.032.032,0,0,1,.031.029c.018.241.273,1.908,3.8,1.969a.25.25,0,0,1,.241.2l.3,1.5a.986.986,0,0,0,.712.755.248.248,0,0,1,.179.194.738.738,0,0,0,.393.526.616.616,0,0,1,.105.439A1.279,1.279,0,0,1,17.191,14.206Z"/><path d="M22.373,8.922a.25.25,0,0,1-.176-.206A10.144,10.144,0,0,0,12,0,10.144,10.144,0,0,0,1.8,8.716a.25.25,0,0,1-.176.206A2.283,2.283,0,0,0,0,11.107v2.286a2.286,2.286,0,0,0,2.286,2.286H3.429A.572.572,0,0,0,4,15.107V9.393a.572.572,0,0,0-.571-.572.106.106,0,0,1-.082-.037A.109.109,0,0,1,3.323,8.7,8.658,8.658,0,0,1,12,1.5a8.658,8.658,0,0,1,8.677,7.2.109.109,0,0,1-.024.087.106.106,0,0,1-.082.037A.572.572,0,0,0,20,9.393v5.714a.572.572,0,0,0,.571.572h1.143A2.286,2.286,0,0,0,24,13.393V11.107A2.283,2.283,0,0,0,22.373,8.922Z"/><path d="M20.4,21.246a26.658,26.658,0,0,1-3.815-.968.5.5,0,0,0-.562.178C15.25,21.509,13.972,22,12,22s-3.25-.491-4.025-1.544a.5.5,0,0,0-.562-.178,24.789,24.789,0,0,1-3.7.919C2.02,21.508,1,21.7.341,23.312A.5.5,0,0,0,.8,24H23.2a.5.5,0,0,0,.463-.688C23.023,21.745,22.037,21.557,20.4,21.246Z"/></svg>