<svg xmlns="http://www.w3.org/2000/svg" viewBox="0 0 24 24"><title>people-man-9</title><path d="M18.948,8.445c.387-2.759-.041-4.9-1.276-6.353C16.5.7,14.636,0,12.142,0S7.788.7,6.612,2.092C5.377,3.549,4.949,5.686,5.336,8.445a2.12,2.12,0,0,0-.463,1.446,2.726,2.726,0,0,0,1.439,2.431.249.249,0,0,1,.143.187c.511,3.048,4.022,4.991,5.687,4.991s5.176-1.943,5.687-4.991a.248.248,0,0,1,.143-.187,2.727,2.727,0,0,0,1.44-2.431A2.125,2.125,0,0,0,18.948,8.445Zm-1.594,2.51a1.749,1.749,0,0,0-1,1.306C15.973,14.51,13.175,16,12.142,16s-3.83-1.49-4.207-3.738a1.749,1.749,0,0,0-1-1.307,1.273,1.273,0,0,1-.558-1.094.623.623,0,0,1,.106-.44.752.752,0,0,0,.4-.794c-.074-.445-.122-.867-.15-1.27a.487.487,0,0,1,.235-.446A8.944,8.944,0,0,0,9.106,5.04a.5.5,0,0,1,.729-.055,8.913,8.913,0,0,0,6.014,2.327,7.612,7.612,0,0,0,1.1-.085.5.5,0,0,1,.57.545c-.027.275-.064.56-.114.855a.751.751,0,0,0,.4.794.625.625,0,0,1,.105.44A1.273,1.273,0,0,1,17.354,10.955Z"/><path d="M17.233,20.335a.249.249,0,0,0,.329-.274l-.433-2.755a.25.25,0,0,0-.178-.2l-.259-.074a.5.5,0,0,0-.537.18,5.534,5.534,0,0,1-2.129,1.552.248.248,0,0,0,.017.462Z"/><path d="M6.77,20.327l3.156-1.119a.247.247,0,0,0,.02-.459,5.515,5.515,0,0,1-2.1-1.539.5.5,0,0,0-.537-.18l-.259.074a.25.25,0,0,0-.178.2l-.432,2.747A.25.25,0,0,0,6.77,20.327Z"/><path d="M21.042,18.274l-2.5-.715a.25.25,0,0,0-.316.279l.519,3.305a.5.5,0,0,1-.494.577.474.474,0,0,1-.165-.029l-6.053-2.109a.249.249,0,0,0-.166,0L5.917,21.691a.506.506,0,0,1-.167.029.5.5,0,0,1-.494-.577l.518-3.3a.248.248,0,0,0-.081-.226.252.252,0,0,0-.234-.053l-2.538.727A4.52,4.52,0,0,0,0,22.5v1a.5.5,0,0,0,.5.5h9.76a.248.248,0,0,0,.234-.164l1.037-2.813a.5.5,0,0,1,.938,0l1.037,2.813A.248.248,0,0,0,13.74,24H23.5a.5.5,0,0,0,.5-.5v-1A4.531,4.531,0,0,0,21.042,18.274Z"/><path d="M12.125,14.286h0a3.5,3.5,0,0,1-1.017-.148,2.735,2.735,0,0,1-.512-.212.75.75,0,1,1,.715-1.319,1.332,1.332,0,0,0,.235.1,2.039,2.039,0,0,0,.581.082h0a2.023,2.023,0,0,0,.578-.081,1.432,1.432,0,0,0,.235-.1.75.75,0,0,1,.714,1.319,2.8,2.8,0,0,1-.51.212A3.479,3.479,0,0,1,12.125,14.286Z"/><path d="M9,10.555a.75.75,0,0,1-.5-1.307,2.1,2.1,0,0,1,2.636,0,.75.75,0,1,1-1,1.114.63.63,0,0,0-.626,0A.75.75,0,0,1,9,10.555Z"/><path d="M13.565,10.555a.751.751,0,0,1-.5-1.308,2.1,2.1,0,0,1,2.635,0,.75.75,0,0,1-1,1.114.632.632,0,0,0-.627,0A.748.748,0,0,1,13.565,10.555Z"/></svg>