<svg xmlns="http://www.w3.org/2000/svg" viewBox="0 0 24 24"><title>people-man-glasses-2</title><path d="M0,23a1,1,0,0,0,2,0V21.394a.98.98,0,0,1,.376-.785,11.026,11.026,0,0,1,2.786-1.5.25.25,0,0,1,.338.234v4.4a.25.25,0,0,0,.25.25h12.5a.25.25,0,0,0,.25-.25v-4.4a.25.25,0,0,1,.338-.234,11,11,0,0,1,2.785,1.5.978.978,0,0,1,.377.785V23a1,1,0,0,0,2,0V21.394a2.959,2.959,0,0,0-1.164-2.374C21.358,17.892,17.985,16,12,16S2.642,17.892,1.163,19.02A2.961,2.961,0,0,0,0,21.394Zm14.786-4.838a.249.249,0,0,1,.162.408,3.755,3.755,0,0,1-5.9,0,.251.251,0,0,1,.163-.409,24.111,24.111,0,0,1,5.572,0Z"/><path d="M18.854,10.412a.242.242,0,0,1,.067-.126l.347-.347A2.484,2.484,0,0,0,20,8.171V6.5a1.5,1.5,0,0,0-1.152-1.453.25.25,0,0,1-.181-.167,6.994,6.994,0,0,0-13.334,0,.25.25,0,0,1-.181.167A1.5,1.5,0,0,0,4,6.5V8.171a2.484,2.484,0,0,0,.732,1.768l.347.347a.242.242,0,0,1,.067.126,7,7,0,0,0,13.708,0ZM12,2a5,5,0,0,1,4.4,2.631.25.25,0,0,1-.22.369H7.824a.25.25,0,0,1-.22-.369A5,5,0,0,1,12,2Zm0,12a4.987,4.987,0,0,1-4.357-2.58.25.25,0,0,1,.154-.363c.024-.006.048-.014.071-.022L11.83,9.594a.505.505,0,0,1,.341,0l3.961,1.441c.026.01.053.018.079.027a.249.249,0,0,1,.158.146.255.255,0,0,1-.014.214A4.986,4.986,0,0,1,12,14Z"/></svg>