<svg xmlns="http://www.w3.org/2000/svg" viewBox="0 0 24 24"><title>people-man-1</title><path d="M21.063,19.156l-2.528-.849a.251.251,0,0,0-.312.145,6.678,6.678,0,0,1-12.43-.005.248.248,0,0,0-.311-.145l-2.562.86A4.519,4.519,0,0,0,0,23.375a.5.5,0,0,0,.5.5h23a.5.5,0,0,0,.5-.5A4.524,4.524,0,0,0,21.063,19.156Z"/><path d="M12,21.185A5.175,5.175,0,0,0,16.766,18a.251.251,0,0,0-.151-.334l-.957-.322a.5.5,0,0,0-.6.231,3.5,3.5,0,0,1-6.124,0,.5.5,0,0,0-.6-.231l-.967.325a.249.249,0,0,0-.15.334A5.21,5.21,0,0,0,12,21.185Z"/><path d="M12.792,12.452a1.14,1.14,0,0,1-.222.094,1.815,1.815,0,0,1-.544.079h0a1.846,1.846,0,0,1-.548-.08,1.161,1.161,0,0,1-.224-.094.75.75,0,1,0-.731,1.31,2.767,2.767,0,0,0,.5.214,3.35,3.35,0,0,0,1,.15h0a3.374,3.374,0,0,0,1-.148,2.7,2.7,0,0,0,.5-.216.75.75,0,0,0-.734-1.309Z"/><path d="M11.128,10.161A.749.749,0,0,0,11.09,9.1a2.02,2.02,0,0,0-2.6,0,.75.75,0,0,0,1.022,1.1.559.559,0,0,1,.557,0A.751.751,0,0,0,11.128,10.161Z"/><path d="M12.91,9.1a.75.75,0,0,0,1.022,1.1.559.559,0,0,1,.557,0,.75.75,0,0,0,1.022-1.1A2.02,2.02,0,0,0,12.91,9.1Z"/><path d="M5.174,8.57a2.113,2.113,0,0,0-.464,1.444,2.731,2.731,0,0,0,1.439,2.433.25.25,0,0,1,.144.187c.511,3.048,4.021,4.991,5.686,4.991s5.176-1.943,5.687-4.989a.252.252,0,0,1,.145-.189,2.732,2.732,0,0,0,1.439-2.434,2.116,2.116,0,0,0-.465-1.443c.359-2.559.014-4.831-1.275-6.354C16.334.829,14.474.125,11.979.125S7.626.828,6.45,2.216C5.173,3.722,4.811,5.983,5.174,8.57Zm12.017,2.511a1.746,1.746,0,0,0-1,1.3c-.378,2.249-3.176,3.739-4.209,3.739s-3.83-1.49-4.207-3.738a1.747,1.747,0,0,0-1-1.306,1.275,1.275,0,0,1-.559-1.1.76.76,0,0,1,.062-.36h.346A1.754,1.754,0,0,0,8.334,8.219l.223-1.11a4.98,4.98,0,0,0,3.422-1.216A4.99,4.99,0,0,0,15.4,7.109l.222,1.11a1.754,1.754,0,0,0,1.716,1.406h.351a.86.86,0,0,1,.058.359A1.281,1.281,0,0,1,17.191,11.081Z"/></svg>