<svg xmlns="http://www.w3.org/2000/svg" viewBox="0 0 24 24"><title>people-man-3</title><path d="M16.734,2.507a.253.253,0,0,1-.192-.109,5.5,5.5,0,0,0-9.085,0,.253.253,0,0,1-.192.109,4,4,0,0,0-3,6.346.251.251,0,0,1,.027.247,3.487,3.487,0,0,0,2.076,4.7.247.247,0,0,1,.148.135,6,6,0,0,0,10.968,0,.247.247,0,0,1,.148-.135,3.487,3.487,0,0,0,2.076-4.7.249.249,0,0,1,.027-.247,4,4,0,0,0-3-6.346ZM12,15.5a4,4,0,0,1-4-4V9.74a.25.25,0,0,1,.231-.249,2.991,2.991,0,0,0,1.546-.572.252.252,0,0,1,.286-.008,3.635,3.635,0,0,0,3.874,0,.252.252,0,0,1,.286.008,2.991,2.991,0,0,0,1.546.572A.251.251,0,0,1,16,9.74V11.5A4,4,0,0,1,12,15.5Z"/><path d="M23.5,21.894a2.464,2.464,0,0,0-.967-1.977,14.264,14.264,0,0,0-5.908-2.481.5.5,0,0,0-.552.279A4.557,4.557,0,0,1,12,20.5a4.557,4.557,0,0,1-4.073-2.785.5.5,0,0,0-.552-.279,14.264,14.264,0,0,0-5.908,2.481A2.464,2.464,0,0,0,.5,21.894V23.5A.5.5,0,0,0,1,24H23a.5.5,0,0,0,.5-.5Z"/><circle cx="14" cy="11" r="1"/><circle cx="10" cy="11" r="1"/><path d="M13.077,13.112h-2a.639.639,0,0,0-.3,1.2,2.31,2.31,0,0,0,.435.18,2.99,2.99,0,0,0,.867.126h.006a2.976,2.976,0,0,0,.863-.125,2.3,2.3,0,0,0,.436-.181.639.639,0,0,0-.3-1.2Z"/></svg>