<svg xmlns="http://www.w3.org/2000/svg" viewBox="0 0 24 24"><title>people-woman-glasses-3</title><path d="M6.15,16.373a2.142,2.142,0,0,0,1.765-.786,6.736,6.736,0,0,0,4.064,2.038,6.747,6.747,0,0,0,4.09-2.061,2.137,2.137,0,0,0,1.781.809,5.057,5.057,0,0,0,3.54-1.7.5.5,0,0,0-.232-.789,3.911,3.911,0,0,1-2.116-2.817,3.165,3.165,0,0,0,.208-1.05,2.116,2.116,0,0,0-.465-1.443,12.814,12.814,0,0,0,.128-2.144A6.1,6.1,0,0,0,17.438,2C16.265.756,14.436.125,12,.125,11.463.125,8.373.079,6.562,2A5.678,5.678,0,0,0,5.116,5.5,11.645,11.645,0,0,0,5.174,8.57a2.112,2.112,0,0,0-.464,1.444,3.166,3.166,0,0,0,.232,1.1,3.87,3.87,0,0,1-2.1,2.763.5.5,0,0,0-.232.789A5.057,5.057,0,0,0,6.15,16.373Zm5.472-8a2.458,2.458,0,0,0-.385-.75h1.526a2.458,2.458,0,0,0-.385.75ZM9.25,8.125a1,1,0,1,1-1,1A1,1,0,0,1,9.25,8.125Zm6.5,1a1,1,0,1,1-1-1A1,1,0,0,1,15.75,9.125Zm-3.771,7c-1.032,0-3.83-1.49-4.207-3.738a1.747,1.747,0,0,0-1-1.306,1.275,1.275,0,0,1-.559-1.1.626.626,0,0,1,.1-.439.752.752,0,0,0,.406-.794c-.066-.394-.108-.765-.138-1.127h.681a2.471,2.471,0,0,0-.513,1.5,2.493,2.493,0,0,0,4.872.75h.756a2.492,2.492,0,1,0,4.359-2.25h.641c-.031.361-.073.733-.139,1.127a.751.751,0,0,0,.406.794.616.616,0,0,1,.105.439,1.279,1.279,0,0,1-.559,1.1,1.746,1.746,0,0,0-1,1.3C15.81,14.635,13.012,16.125,11.979,16.125Z"/><path d="M16.951,16.98l-.259-.075a.5.5,0,0,0-.537.18,5.545,5.545,0,0,1-2.129,1.553.247.247,0,0,0,.017.461l3.19,1.111a.249.249,0,0,0,.329-.274l-.433-2.755A.247.247,0,0,0,16.951,16.98Z"/><path d="M7.845,17.085a.5.5,0,0,0-.537-.18l-.259.075a.247.247,0,0,0-.178.2l-.432,2.747a.251.251,0,0,0,.331.275l3.156-1.119a.248.248,0,0,0,.02-.46A5.515,5.515,0,0,1,7.845,17.085Z"/><path d="M21.042,18.149l-2.5-.715a.25.25,0,0,0-.316.279l.519,3.305a.5.5,0,0,1-.659.548l-4.67-1.627a.5.5,0,0,0-.665.472v2.964a.5.5,0,0,0,.5.5H23.5a.5.5,0,0,0,.5-.5v-1A4.531,4.531,0,0,0,21.042,18.149Z"/><path d="M5.917,21.566a.5.5,0,0,1-.661-.548l.518-3.3a.247.247,0,0,0-.081-.226.252.252,0,0,0-.234-.053l-2.538.727A4.52,4.52,0,0,0,0,22.375v1a.5.5,0,0,0,.5.5H10.75a.5.5,0,0,0,.5-.5V20.384a.5.5,0,0,0-.667-.472Z"/><path d="M12.792,12.453a1.554,1.554,0,0,1-.764.172h0a1.653,1.653,0,0,1-.772-.174.75.75,0,1,0-.731,1.31,3.181,3.181,0,0,0,1.5.364h.006a3.146,3.146,0,0,0,1.5-.365.75.75,0,1,0-.734-1.307Z"/></svg>