<svg xmlns="http://www.w3.org/2000/svg" viewBox="0 0 24 24"><title>people-woman-9</title><path d="M22.319,18.531h0a12.118,12.118,0,0,0-2.825-1.554.246.246,0,0,1-.152-.206.37.37,0,0,0-.01-.058.493.493,0,0,0-.32-.339,19.114,19.114,0,0,0-2.787-.694.489.489,0,0,0-.388.1l-3.683,2.94a.246.246,0,0,1-.306,0l-3.683-2.94a.479.479,0,0,0-.388-.1,19.146,19.146,0,0,0-2.787.694.493.493,0,0,0-.32.339.28.28,0,0,0-.009.058.249.249,0,0,1-.153.206,12.152,12.152,0,0,0-2.826,1.554,2.416,2.416,0,0,0-.946,1.936V23.51a.49.49,0,0,0,.49.49H22.776a.489.489,0,0,0,.489-.49V20.467A2.416,2.416,0,0,0,22.319,18.531Zm-11.344,1.13L9.628,20.737a.246.246,0,0,1-.335-.028l-3-3.333a.244.244,0,0,1,.12-.4c.4-.1.8-.194,1.207-.271a.242.242,0,0,1,.2.049l3.161,2.524a.244.244,0,0,1,0,.383Zm6.737-2.285-3,3.333a.246.246,0,0,1-.335.028l-1.347-1.076a.245.245,0,0,1,0-.383l3.161-2.524a.242.242,0,0,1,.2-.049c.409.077.81.167,1.207.271a.244.244,0,0,1,.12.4Z"/><path d="M7.891,14.575a.245.245,0,0,1,.27,0,6.856,6.856,0,0,0,7.506.029.243.243,0,0,1,.27,0c1.336.892,4.076.873,5.214-.488a.491.491,0,0,0-.227-.783c-2.525-.811-2.114-4.412-2.114-4.5V6.874a6.874,6.874,0,1,0-13.747,0V8.838c0,.087.384,3.639-2.114,4.441a.491.491,0,0,0-.227.783C4.064,15.666,6.883,15.225,7.891,14.575ZM7.027,7.846A.245.245,0,0,1,7.266,7.6a6.869,6.869,0,0,0,4.609-1.662.092.092,0,0,1,.124,0A6.87,6.87,0,0,0,16.608,7.6a.244.244,0,0,1,.238.245v.99a4.91,4.91,0,1,1-9.819,0Z"/><path d="M13.9,10.311a.982.982,0,1,0-.982-.982A.982.982,0,0,0,13.9,10.311Z"/><path d="M9.973,10.311a.982.982,0,1,0-.982-.982A.982.982,0,0,0,9.973,10.311Z"/><path d="M10.421,11.9a.63.63,0,0,0,.312.706,2.38,2.38,0,0,0,.426.176,3.008,3.008,0,0,0,1.706,0,2.3,2.3,0,0,0,.428-.178.627.627,0,0,0-.3-1.179H11.03A.629.629,0,0,0,10.421,11.9Z"/></svg>