<svg xmlns="http://www.w3.org/2000/svg" viewBox="0 0 24 24"><title>people-woman-10</title><path d="M9.3,16.756a.735.735,0,0,0-.82-.629c-.76.1-1.5.228-2.268.4a.735.735,0,0,0-.565.622l-.033.255a.246.246,0,0,1-.167.2,12.709,12.709,0,0,0-3.77,1.9,2.416,2.416,0,0,0-.946,1.936V23.51a.489.489,0,0,0,.489.49h9.8a.245.245,0,0,0,.245-.245V19.279a.246.246,0,0,0-.156-.229A2.822,2.822,0,0,1,9.3,16.756ZM7.019,18.028a.245.245,0,0,1,.2-.209c.2-.039.393-.074.589-.107a.244.244,0,0,1,.27.158,4.381,4.381,0,0,0,1,1.584.248.248,0,0,1,.064.229.244.244,0,0,1-.162.175,8.97,8.97,0,0,0-1.907.878A.245.245,0,0,1,6.7,20.5Z"/><path d="M12.891,19.05a.246.246,0,0,0-.156.229v4.476A.245.245,0,0,0,12.98,24h9.8a.489.489,0,0,0,.489-.49V21.447a2.414,2.414,0,0,0-.947-1.936,12.7,12.7,0,0,0-3.769-1.9.246.246,0,0,1-.167-.2l-.033-.255a.735.735,0,0,0-.565-.622c-.766-.174-1.508-.306-2.268-.4a.734.734,0,0,0-.82.629A2.822,2.822,0,0,1,12.891,19.05ZM17.3,20.5a.245.245,0,0,1-.372.239,8.965,8.965,0,0,0-1.907-.877.245.245,0,0,1-.1-.405,4.388,4.388,0,0,0,1-1.583.244.244,0,0,1,.27-.158c.2.033.392.068.589.107a.244.244,0,0,1,.2.209Z"/><path d="M12,0A6.865,6.865,0,0,0,5.143,6.857V8.816A6.865,6.865,0,0,0,12,15.673a6.788,6.788,0,0,0,2.834-.621.145.145,0,0,1,.205.132.245.245,0,0,0,.362.215C18.647,13.628,19.676,9,18.8,5.548A7,7,0,0,0,12,0Zm0,13.714a4.9,4.9,0,0,1-4.9-4.9V7.885A.245.245,0,0,1,7.34,7.64a7.061,7.061,0,0,0,4.206-1.352.244.244,0,0,1,.345.047c.162.215.327.426.5.637a9.879,9.879,0,0,1,2.5,5.621.245.245,0,0,1-.1.232A4.841,4.841,0,0,1,12,13.714Z"/><circle cx="10.041" cy="9.061" r="0.98"/><path d="M11.1,11.129a.626.626,0,0,0-.3,1.175,2.289,2.289,0,0,0,.429.179,3,3,0,0,0,1.7,0,2.282,2.282,0,0,0,.432-.18.627.627,0,0,0-.3-1.176Z"/></svg>