<svg xmlns="http://www.w3.org/2000/svg" viewBox="0 0 24 24"><title>people-woman-beanie</title><path d="M22.685,20.218a13.023,13.023,0,0,0-3.665-1.894.5.5,0,0,0-.661.431,1.194,1.194,0,0,1-.088.359.476.476,0,0,0,.285.638,11.488,11.488,0,0,1,3.218,1.659,1.224,1.224,0,0,1,.476.983V23a.75.75,0,0,0,1.5,0v-.606A2.715,2.715,0,0,0,22.685,20.218Z"/><path d="M5.75,18.5a.313.313,0,0,0-.407-.3,13.244,13.244,0,0,0-4.028,2.016A2.715,2.715,0,0,0,.25,22.394V23a.75.75,0,0,0,1.5,0v-.606a1.224,1.224,0,0,1,.476-.983,11.51,11.51,0,0,1,3.285-1.682.5.5,0,0,0,.321-.6A2.481,2.481,0,0,1,5.75,18.5Z"/><path d="M10.894,11.026a.751.751,0,0,0-.056-1.059,2.1,2.1,0,0,0-2.635,0,.75.75,0,1,0,1,1.115.632.632,0,0,1,.627,0A.751.751,0,0,0,10.894,11.026Z"/><path d="M13.772,11.082a.632.632,0,0,1,.627,0,.75.75,0,1,0,1-1.115,2.1,2.1,0,0,0-2.634,0,.75.75,0,1,0,1,1.115Z"/><path d="M11.5,20.975c.167.008.329.025.5.025,4.131,0,5.381-1.991,5.336-3.578a2.761,2.761,0,0,0-.056-.488,4.79,4.79,0,0,0,4.11-1.641.5.5,0,0,0-.232-.788c-1.181-.393-1.819-1.728-2.164-2.977a3.128,3.128,0,0,0,.156-.889,2.1,2.1,0,0,0-.454-1.41A1.341,1.341,0,0,0,19.75,7.875V6.125A1.319,1.319,0,0,0,18.5,4.75h-.3C17.651,2.282,16.388,0,12,0S6.349,2.282,5.8,4.75H5.5A1.319,1.319,0,0,0,4.25,6.125v1.75a1.363,1.363,0,0,0,.888,1.31,2.093,2.093,0,0,0-.486,1.454,3.15,3.15,0,0,0,.267,1.18,3.808,3.808,0,0,1-2.077,2.686.5.5,0,0,0-.232.788A5.057,5.057,0,0,0,6.15,17a2.163,2.163,0,0,0,1.739-.747,7.78,7.78,0,0,0,.8.685c-.229.019-.459.05-.688.064a1.007,1.007,0,0,0-1,1v.5a1.574,1.574,0,0,0,.5,1.072V23.5A.5.5,0,0,0,8,24h3a.5.5,0,0,0,.5-.5ZM5.75,6.75a.5.5,0,0,1,.5-.5h11.5a.5.5,0,0,1,.5.5v.5a.5.5,0,0,1-.5.5H6.25a.5.5,0,0,1-.5-.5Zm1.96,6.262a1.752,1.752,0,0,0-1-1.306,1.281,1.281,0,0,1-.557-1.1.625.625,0,0,1,.105-.44.74.74,0,0,0,.358-.92H17.189a.74.74,0,0,0,.358.92.634.634,0,0,1,.1.44,1.28,1.28,0,0,1-.556,1.1,1.747,1.747,0,0,0-1,1.306,4.877,4.877,0,0,1-2.5,3.139c-.78.185-1.56.337-2.341.466C10,16.221,8.023,14.888,7.71,13.012Z"/><path d="M13.659,13.63a.749.749,0,0,0-1.016-.3,1.966,1.966,0,0,1-1.634,0,.75.75,0,0,0-.711,1.321,3.433,3.433,0,0,0,3.059,0A.749.749,0,0,0,13.659,13.63Z"/></svg>