<svg xmlns="http://www.w3.org/2000/svg" viewBox="0 0 24 24"><title>people-woman-glasses-2</title><path d="M17.85,16.373a5.057,5.057,0,0,0,3.54-1.7.5.5,0,0,0-.232-.789,3.911,3.911,0,0,1-2.116-2.817,3.165,3.165,0,0,0,.208-1.05,2.116,2.116,0,0,0-.465-1.443c.014-.1.019-.186.03-.281a1.507,1.507,0,0,1-.229-.414H20a.5.5,0,0,0,.5-.5c0-1.977-5.56-2.5-8.5-2.5s-8.5.523-8.5,2.5a.5.5,0,0,0,.5.5H5.414a1.5,1.5,0,0,1-.266.451c.01.083.014.16.026.244a2.112,2.112,0,0,0-.464,1.444,3.161,3.161,0,0,0,.232,1.1,3.87,3.87,0,0,1-2.1,2.763.5.5,0,0,0-.232.789,5.057,5.057,0,0,0,3.54,1.7,2.142,2.142,0,0,0,1.765-.786,6.736,6.736,0,0,0,4.064,2.038,6.747,6.747,0,0,0,4.09-2.061A2.137,2.137,0,0,0,17.85,16.373Zm-6.228-8a2.4,2.4,0,0,0-.22-.5h1.2a2.4,2.4,0,0,0-.22.5Zm4.128.75a1,1,0,1,1-1-1A1,1,0,0,1,15.75,9.125Zm-6.5-1a1,1,0,1,1-1,1A1,1,0,0,1,9.25,8.125Zm2.729,8c-1.032,0-3.83-1.49-4.207-3.738a1.747,1.747,0,0,0-1-1.306,1.275,1.275,0,0,1-.559-1.1.626.626,0,0,1,.1-.439.751.751,0,0,0,.406-.794c-.051-.3-.089-.594-.119-.877h.5a2.465,2.465,0,0,0-.348,1.25,2.493,2.493,0,0,0,4.872.75h.756a2.493,2.493,0,0,0,4.872-.75,2.465,2.465,0,0,0-.348-1.25h.456c-.03.283-.068.575-.119.877a.751.751,0,0,0,.406.794.616.616,0,0,1,.105.439,1.279,1.279,0,0,1-.559,1.1,1.746,1.746,0,0,0-1,1.3C15.81,14.635,13.012,16.125,11.979,16.125Z"/><path d="M16.951,16.98l-.259-.075a.5.5,0,0,0-.537.18,5.545,5.545,0,0,1-2.129,1.553.247.247,0,0,0,.017.461l3.19,1.112a.25.25,0,0,0,.329-.275l-.433-2.755A.247.247,0,0,0,16.951,16.98Z"/><path d="M6.77,20.2l3.156-1.119a.248.248,0,0,0,.02-.46,5.515,5.515,0,0,1-2.1-1.539.5.5,0,0,0-.537-.18l-.259.075a.247.247,0,0,0-.178.2l-.432,2.747A.251.251,0,0,0,6.77,20.2Z"/><path d="M5.431,21.48a.5.5,0,0,1-.175-.462l.518-3.3a.248.248,0,0,0-.081-.226.252.252,0,0,0-.234-.053l-2.538.727A4.52,4.52,0,0,0,0,22.375v1a.5.5,0,0,0,.5.5H10.75a.5.5,0,0,0,.5-.5V20.384a.5.5,0,0,0-.667-.472L5.917,21.566A.5.5,0,0,1,5.431,21.48Z"/><path d="M21.042,18.149l-2.5-.715a.25.25,0,0,0-.316.279l.519,3.305a.5.5,0,0,1-.659.548l-4.67-1.627a.5.5,0,0,0-.665.472v2.964a.5.5,0,0,0,.5.5H23.5a.5.5,0,0,0,.5-.5v-1A4.531,4.531,0,0,0,21.042,18.149Z"/><path d="M12.792,12.453a1.554,1.554,0,0,1-.764.172h0a1.653,1.653,0,0,1-.772-.174.75.75,0,1,0-.731,1.31,3.047,3.047,0,0,0,1.507.364,3.146,3.146,0,0,0,1.5-.365.75.75,0,1,0-.734-1.307Z"/><path d="M12,3.875a26.526,26.526,0,0,1,5.941.6.5.5,0,0,0,.593-.651A5.116,5.116,0,0,0,17.438,2C16.265.756,14.436.125,12,.125,11.47.125,8.38.071,6.562,2a5.116,5.116,0,0,0-1.1,1.822.5.5,0,0,0,.593.651A26.526,26.526,0,0,1,12,3.875Z"/></svg>