<svg xmlns="http://www.w3.org/2000/svg" viewBox="0 0 24 24"><title>people-woman-14</title><path d="M20.709,18.78l-3.618-.956a.749.749,0,0,0-.918.541C15.785,19.892,14.03,21,12,21s-3.787-1.11-4.172-2.639a.749.749,0,0,0-.92-.541l-3.7.987A4.77,4.77,0,0,0,.25,23.25a.75.75,0,0,0,1.5,0,3.25,3.25,0,0,1,1.925-3.02l.825-.219V23.5A.5.5,0,0,0,5,24H19a.5.5,0,0,0,.5-.5V20.008l.744.2A3.26,3.26,0,0,1,22.25,23.25a.75.75,0,0,0,1.5,0A4.785,4.785,0,0,0,20.709,18.78Z"/><path d="M2.6,7.7a1.318,1.318,0,0,1,.912-.579,2.918,2.918,0,0,1,1.845.668,1.988,1.988,0,0,0-.647,1.6,3.109,3.109,0,0,0,.435,1.5c-.322,1.318-.973,2.864-2.3,3.29a.5.5,0,0,0-.327.337.5.5,0,0,0,.1.46,5.117,5.117,0,0,0,3.569,1.672,2.763,2.763,0,0,0,.793-.109,2.1,2.1,0,0,0,1.338-1.209A6.484,6.484,0,0,0,11.979,17a6.541,6.541,0,0,0,3.746-1.738,2.117,2.117,0,0,0,1.378,1.28,2.758,2.758,0,0,0,.793.109,5.116,5.116,0,0,0,3.568-1.672.506.506,0,0,0,.1-.46.5.5,0,0,0-.328-.337C19.86,13.74,19.209,12.1,18.9,10.749a3.144,3.144,0,0,0,.35-1.361,2,2,0,0,0-.64-1.595.733.733,0,0,0,.246-.454A6.683,6.683,0,0,0,17.514,1.96C16.344.659,14.489,0,12,0S7.655.659,6.486,1.96a5.313,5.313,0,0,0-1.2,2.333A3.588,3.588,0,0,0,3.873,3.021a1.98,1.98,0,0,0-1.708.058.75.75,0,1,0,.67,1.342A.486.486,0,0,1,3.282,4.4,3.031,3.031,0,0,1,4.4,5.7,3.18,3.18,0,0,0,3.345,5.63,2.813,2.813,0,0,0,1.4,6.8a.75.75,0,0,0,1.2.9Zm9.379,7.8c-1.032,0-3.83-1.49-4.207-3.738a1.747,1.747,0,0,0-1-1.306,1.275,1.275,0,0,1-.559-1.1.626.626,0,0,1,.1-.439A.748.748,0,0,0,6.65,7.915a.621.621,0,0,0-.074-.095,16.373,16.373,0,0,1,10.815-.01.69.69,0,0,0-.082.105.748.748,0,0,0,.336,1.006.616.616,0,0,1,.105.439,1.279,1.279,0,0,1-.559,1.1,1.746,1.746,0,0,0-1,1.3C15.81,14.01,13.012,15.5,11.979,15.5Z"/><path d="M12.745,12.322a1.7,1.7,0,0,1-.811.178h0a1.8,1.8,0,0,1-.819-.18.75.75,0,0,0-.711,1.321,3.435,3.435,0,0,0,3.06,0,.75.75,0,1,0-.715-1.318Z"/><path d="M11.071,9.519a.752.752,0,0,0-.053-1.06,2.094,2.094,0,0,0-2.637,0A.751.751,0,0,0,9.387,9.573a.628.628,0,0,1,.625,0A.751.751,0,0,0,11.071,9.519Z"/><path d="M12.946,8.459a.751.751,0,0,0,1.006,1.114.628.628,0,0,1,.625,0,.751.751,0,0,0,1.006-1.114A2.094,2.094,0,0,0,12.946,8.459Z"/></svg>