<svg xmlns="http://www.w3.org/2000/svg" viewBox="0 0 24 24"><title>people-woman-7</title><path d="M9.984,13.111a.751.751,0,0,0,.011,1.06,2.7,2.7,0,0,0,1.884.715h.283a2.7,2.7,0,0,0,1.883-.714A.75.75,0,0,0,13,13.1a1.229,1.229,0,0,1-.834.287h-.283a1.229,1.229,0,0,1-.833-.286A.751.751,0,0,0,9.984,13.111Z"/><path d="M9.387,10.823a.628.628,0,0,1,.625,0,.751.751,0,0,0,1.006-1.114,2.094,2.094,0,0,0-2.637,0,.751.751,0,1,0,1.006,1.114Z"/><path d="M13.952,10.823a.628.628,0,0,1,.625,0,.751.751,0,0,0,1.006-1.114,2.094,2.094,0,0,0-2.637,0,.751.751,0,0,0,1.006,1.114Z"/><path d="M22.248,19.812h0a7.1,7.1,0,0,0-3.056-1.157c-.3-.063-2.638-.64-2.638-.64a.5.5,0,0,0-.616.4A3.842,3.842,0,0,1,12,21.381a3.844,3.844,0,0,1-3.938-2.968.5.5,0,0,0-.22-.333.5.5,0,0,0-.395-.065s-2.335.577-2.638.64a7.107,7.107,0,0,0-3.057,1.157A4.529,4.529,0,0,0,0,23.376V23.5a.5.5,0,0,0,.5.5h23a.5.5,0,0,0,.5-.5v-.124A4.529,4.529,0,0,0,22.248,19.812Z"/><path d="M5.077,6.8a10.056,10.056,0,0,0,.1,2.395,2.111,2.111,0,0,0-.463,1.442,2.729,2.729,0,0,0,1.439,2.433.25.25,0,0,1,.144.187c.511,3.048,4.021,4.991,5.686,4.991s5.176-1.943,5.687-4.989a.252.252,0,0,1,.145-.189,2.731,2.731,0,0,0,1.439-2.434A2.114,2.114,0,0,0,18.786,9.2a10.135,10.135,0,0,0,.1-2.373,1.7,1.7,0,0,0,.865-1.477V3.653a1.752,1.752,0,0,0-2-1.733l-.128.018A3.5,3.5,0,0,0,14.5,0h-5A3.5,3.5,0,0,0,6.376,1.939L6.247,1.92a1.752,1.752,0,0,0-2,1.733V5.347A1.683,1.683,0,0,0,5.077,6.8ZM12,6a1.5,1.5,0,0,1-.851-.267.727.727,0,0,0-.136-.467,1.247,1.247,0,0,1,0-1.532.727.727,0,0,0,.136-.467,1.49,1.49,0,0,1,1.7,0,.727.727,0,0,0,.136.467,1.247,1.247,0,0,1,0,1.532.727.727,0,0,0-.136.467A1.5,1.5,0,0,1,12,6Zm6.25-.653a.249.249,0,0,1-.086.189.237.237,0,0,1-.2.058l-3.286-.469a2.786,2.786,0,0,0,0-1.25l3.285-.469a.239.239,0,0,1,.2.058.249.249,0,0,1,.086.189ZM5.75,3.653A.249.249,0,0,1,6,3.4l.036,0,3.286.469a2.786,2.786,0,0,0,0,1.25l-3.285.469a.243.243,0,0,1-.2-.058.249.249,0,0,1-.086-.189Zm11.441,8.053a1.75,1.75,0,0,0-1,1.3c-.377,2.249-3.175,3.739-4.208,3.739s-3.83-1.49-4.207-3.738a1.747,1.747,0,0,0-1-1.306,1.275,1.275,0,0,1-.559-1.1.626.626,0,0,1,.1-.439.752.752,0,0,0,.406-.794c-.049-.292-.09-.591-.122-.89a6.87,6.87,0,0,0,4.864-1.549,2.07,2.07,0,0,0,.88.027A7.054,7.054,0,0,0,17.36,8.5c-.032.3-.073.591-.121.879a.752.752,0,0,0,.406.8.616.616,0,0,1,.105.439A1.279,1.279,0,0,1,17.191,11.706Z"/></svg>