<svg xmlns="http://www.w3.org/2000/svg" viewBox="0 0 24 24"><title>people-woman-cap-3</title><path d="M17.85,16.373a5.057,5.057,0,0,0,3.54-1.705.5.5,0,0,0-.232-.788,3.911,3.911,0,0,1-2.116-2.817,3.165,3.165,0,0,0,.208-1.05,2.116,2.116,0,0,0-.465-1.443c.046-.325.075-.638.1-.945H22a.75.75,0,0,0,0-1.5H18.874c-.284-4.725-3.595-6-6.895-6-5.791,0-7.455,3.808-6.8,8.445a2.112,2.112,0,0,0-.464,1.444,3.166,3.166,0,0,0,.232,1.1,3.87,3.87,0,0,1-2.1,2.763.5.5,0,0,0-.232.788,5.057,5.057,0,0,0,3.54,1.705,2.142,2.142,0,0,0,1.765-.786,6.736,6.736,0,0,0,4.064,2.038,6.747,6.747,0,0,0,4.09-2.061A2.137,2.137,0,0,0,17.85,16.373ZM11,3.625h2a.75.75,0,0,1,0,1.5H11a.75.75,0,0,1,0-1.5Zm.979,12.5c-1.032,0-3.83-1.49-4.207-3.738a1.747,1.747,0,0,0-1-1.306,1.275,1.275,0,0,1-.559-1.1.626.626,0,0,1,.1-.439.752.752,0,0,0,.406-.794c-.049-.295-.085-.577-.113-.852a.251.251,0,0,1,.249-.275H17.1a.251.251,0,0,1,.249.275c-.028.275-.064.557-.113.851a.752.752,0,0,0,.406.8.616.616,0,0,1,.105.439,1.279,1.279,0,0,1-.559,1.1,1.746,1.746,0,0,0-1,1.3C15.81,14.635,13.012,16.125,11.979,16.125Z"/><path d="M12.751,12.453a1.626,1.626,0,0,1-.764.172h0a1.651,1.651,0,0,1-.771-.174.75.75,0,1,0-.731,1.31,3.277,3.277,0,0,0,3,0,.75.75,0,1,0-.734-1.307Z"/><path d="M11.089,10.161A.751.751,0,0,0,11.05,9.1a2.019,2.019,0,0,0-2.6,0,.75.75,0,0,0,1.022,1.1.557.557,0,0,1,.557,0A.751.751,0,0,0,11.089,10.161Z"/><path d="M12.869,9.1a.75.75,0,0,0,1.022,1.1.558.558,0,0,1,.559,0,.75.75,0,0,0,1.02-1.1A2.022,2.022,0,0,0,12.869,9.1Z"/><path d="M7.975,17.331a.5.5,0,0,0-.562-.178L2.92,18.662A4.519,4.519,0,0,0,0,22.875v.5a.5.5,0,0,0,.5.5H10.75a.5.5,0,0,0,.5-.5V19.726a.5.5,0,0,0-.388-.487A4.947,4.947,0,0,1,7.975,17.331Z"/><path d="M21.063,18.656l-4.476-1.5a.5.5,0,0,0-.562.178,4.947,4.947,0,0,1-2.887,1.908.5.5,0,0,0-.388.487v3.649a.5.5,0,0,0,.5.5H23.5a.5.5,0,0,0,.5-.5v-.5A4.524,4.524,0,0,0,21.063,18.656ZM15,22.875a.75.75,0,1,1,.75-.75A.75.75,0,0,1,15,22.875Z"/></svg>