<svg xmlns="http://www.w3.org/2000/svg" viewBox="0 0 24 24"><title>people-woman-11</title><path d="M17.146,15.338a5.351,5.351,0,0,0,1.317.161,3.8,3.8,0,0,0,2.921-1.12.5.5,0,0,0-.231-.8C18.511,12.734,19,9.711,19,7A7,7,0,0,0,5.123,5.718a.25.25,0,0,1-.4.151,3.227,3.227,0,0,0-2.49-.66.286.286,0,0,0-.162.1.249.249,0,0,0-.058.171A3.247,3.247,0,0,0,3.587,8.122a.25.25,0,0,1,0,.428A3.246,3.246,0,0,0,2.013,11.2a.284.284,0,0,0,.062.176.251.251,0,0,0,.158.091A3.207,3.207,0,0,0,4.44,11a.25.25,0,0,1,.365.3,3.508,3.508,0,0,1-1.958,2.214.5.5,0,0,0-.327.337.5.5,0,0,0,.1.46,3.8,3.8,0,0,0,2.921,1.119,5.351,5.351,0,0,0,1.317-.161,3.48,3.48,0,0,0,1.028-.436.25.25,0,0,1,.274,0,6.97,6.97,0,0,0,7.643.032.252.252,0,0,1,.275,0A3.478,3.478,0,0,0,17.146,15.338ZM7,8.805A.25.25,0,0,1,7.18,8.56,16.961,16.961,0,0,1,12,8a16.95,16.95,0,0,1,4.82.56A.249.249,0,0,1,17,8.805a5,5,0,1,1-10,0Z"/><circle cx="14" cy="9.5" r="1"/><circle cx="10" cy="9.5" r="1"/><path d="M13.077,11.631h-2a.639.639,0,0,0-.3,1.2,2.451,2.451,0,0,0,.435.18,3.024,3.024,0,0,0,.867.126h.006a2.976,2.976,0,0,0,.863-.125,2.433,2.433,0,0,0,.436-.181.64.64,0,0,0-.3-1.2Z"/><path d="M0,23a1,1,0,0,0,2,0V21.394a.98.98,0,0,1,.376-.785,11.026,11.026,0,0,1,2.786-1.5.25.25,0,0,1,.338.234v4.4a.25.25,0,0,0,.25.25h12.5a.25.25,0,0,0,.25-.25v-4.4a.25.25,0,0,1,.338-.234,11,11,0,0,1,2.785,1.5.978.978,0,0,1,.377.785V23a1,1,0,0,0,2,0V21.394a2.959,2.959,0,0,0-1.164-2.374C21.358,17.892,17.985,16,12,16S2.642,17.892,1.163,19.02A2.961,2.961,0,0,0,0,21.394Zm14.786-4.838a.249.249,0,0,1,.162.408,3.755,3.755,0,0,1-5.9,0,.251.251,0,0,1,.163-.409,24.111,24.111,0,0,1,5.572,0Z"/></svg>