<svg xmlns="http://www.w3.org/2000/svg" viewBox="0 0 24 24"><title>performance-presentation-graph</title><path d="M12,0a1,1,0,0,0-1,1V1.31a.25.25,0,0,1-.25.249H2.026a1.5,1.5,0,0,0-1.5,1.5V17.018a1.5,1.5,0,0,0,1.5,1.5h8.727a.25.25,0,0,1,.25.249v1.1a.25.25,0,0,1-.105.2L7.93,22.191a1,1,0,0,0,1.159,1.624l2.766-1.976a.246.246,0,0,1,.29,0l2.766,1.976a1,1,0,0,0,1.159-1.624L13.1,20.071a.25.25,0,0,1-.105-.2v-1.1a.25.25,0,0,1,.25-.249h8.727a1.5,1.5,0,0,0,1.5-1.5V3.055a1.5,1.5,0,0,0-1.5-1.5H13.247A.25.25,0,0,1,13,1.31V1A1,1,0,0,0,12,0Zm2.306,8.7,1.969,1.968a.247.247,0,0,0,.352,0l2.9-2.9a1,1,0,1,1,1.41,1.411l-3.072,3.072a2,2,0,0,1-2.82,0l-1.969-1.97a.249.249,0,0,0-.352,0L10.105,12.9a1.983,1.983,0,0,1-1.411.585h0A1.975,1.975,0,0,1,7.283,12.9l-1-1a.25.25,0,0,0-.353,0l-.864.863a1,1,0,0,1-1.41-1.41l1.04-1.04a2.044,2.044,0,0,1,2.821,0l1,1a.25.25,0,0,0,.353,0L11.486,8.7A1.994,1.994,0,0,1,14.306,8.7Z"/></svg>