<svg xmlns="http://www.w3.org/2000/svg" viewBox="0 0 24 24"><title>performance-phone-increase</title><path d="M15.441,11.33a.251.251,0,0,1-.362.053l-.487-.389h0a2,2,0,0,0-3.038.666l-1.226,2.454a.165.165,0,0,1-.119.087.162.162,0,0,1-.14-.046,2,2,0,0,0-3.077.306l-.477.716a1,1,0,0,0,1.664,1.11l.352-.53a.183.183,0,0,1,.135-.081.176.176,0,0,1,.147.053,2,2,0,0,0,3.2-.521L13.2,12.83a.25.25,0,0,1,.379-.083l.457.365a2,2,0,0,0,2.894-.424l2.3-3.327a.25.25,0,0,1,.382-.035l.527.528A.5.5,0,0,0,20.5,10a.489.489,0,0,0,.191-.038A.5.5,0,0,0,21,9.5v-3a.5.5,0,0,0-.5-.5h-3a.5.5,0,0,0-.354.854l.676.675a.253.253,0,0,1,.029.32Z"/><path d="M17,16a1,1,0,0,0-2,0v2.25a.249.249,0,0,1-.25.25H5.25A.249.249,0,0,1,5,18.25V5.75a.25.25,0,0,1,.25-.25H16a1,1,0,0,0,1-1V3a3,3,0,0,0-3-3H6A3,3,0,0,0,3,3V21a3,3,0,0,0,3,3h8a3,3,0,0,0,3-3Zm-7,4a1,1,0,1,1-1,1A1,1,0,0,1,10,20Z"/></svg>