<svg xmlns="http://www.w3.org/2000/svg" viewBox="0 0 24 24"><title>performance-increase-mail</title><path d="M23.875,23V15.1a.25.25,0,0,0-.394-.2l-7.818,5.518a.5.5,0,0,1-.575,0l-7.819-5.5a.25.25,0,0,0-.394.2V23a1,1,0,0,0,1,1h15A1,1,0,0,0,23.875,23Z"/><path d="M10.375,13a1,1,0,0,0-1,1v1.041a.251.251,0,0,0,.106.2l2,1.406a.25.25,0,0,0,.394-.2V14a1,1,0,0,0-1-1Z"/><path d="M14.875,10.42a1.043,1.043,0,0,0-1,1.08v6.7a.251.251,0,0,0,.106.2l1.249.878a.249.249,0,0,0,.288,0l1.251-.883a.249.249,0,0,0,.106-.2V11.5a1.043,1.043,0,0,0-1-1.08Z"/><path d="M19.875,7.5a1,1,0,0,0-1,1v7.936a.25.25,0,0,0,.394.2l2.5-1.765a.249.249,0,0,0,.106-.2V8.5a1,1,0,0,0-1-1Z"/><path d="M.418,15.207a1,1,0,0,0,1.414,0L11.2,5.841a.251.251,0,0,1,.354,0l.909.91a2,2,0,0,0,2.828,0l3.263-3.263a.25.25,0,0,1,.353,0l.866.867a.5.5,0,0,0,.354.146.489.489,0,0,0,.191-.038A.5.5,0,0,0,20.625,4V.5a.5.5,0,0,0-.5-.5h-3.5a.5.5,0,0,0-.354.854l.867.866a.25.25,0,0,1,0,.353L14.052,5.159a.25.25,0,0,1-.354,0l-.909-.909a2,2,0,0,0-2.828,0L.418,13.793A1,1,0,0,0,.418,15.207Z"/></svg>