<svg xmlns="http://www.w3.org/2000/svg" viewBox="0 0 24 24"><title>perspective-grid</title><path d="M22,0H2A2,2,0,0,0,0,2V22a2,2,0,0,0,2,2H22a2,2,0,0,0,2-2V2A2,2,0,0,0,22,0ZM6.708,22a.25.25,0,0,1-.2-.4A16.05,16.05,0,0,0,9.255,15.59a.251.251,0,0,1,.29-.191,6.664,6.664,0,0,1,2.094.757,8.662,8.662,0,0,0,3.284,1.079.25.25,0,0,1,.2.346,14.249,14.249,0,0,1-2.885,4.343.253.253,0,0,1-.18.076ZM2,11.112a.25.25,0,0,1,.08-.183L3.734,9.4A6.682,6.682,0,0,1,6.788,7.8a.25.25,0,0,1,.3.174A14.408,14.408,0,0,1,7.652,12c0,.369-.018.735-.047,1.1a.249.249,0,0,1-.223.229,8.693,8.693,0,0,0-5,2.257A.225.225,0,0,1,2,15.419ZM12.06,2a.253.253,0,0,1,.18.076,14.223,14.223,0,0,1,3.218,5.187.252.252,0,0,1-.041.239.248.248,0,0,1-.223.092,6.645,6.645,0,0,1-2.563-.826,8.692,8.692,0,0,0-4.1-1.137.247.247,0,0,1-.222-.15A16.026,16.026,0,0,0,6.508,2.4a.25.25,0,0,1,.2-.4Zm.571,12.42a8.664,8.664,0,0,0-2.823-1,.249.249,0,0,1-.206-.265c.029-.382.05-.766.05-1.154a16.318,16.318,0,0,0-.5-3.963.249.249,0,0,1,.283-.308,6.651,6.651,0,0,1,2.2.775,8.68,8.68,0,0,0,4.2,1.138.25.25,0,0,1,.244.212A14.131,14.131,0,0,1,16.261,12a14.329,14.329,0,0,1-.348,3.1.251.251,0,0,1-.255.2A6.7,6.7,0,0,1,12.631,14.42Zm5.439-4.8a.251.251,0,0,1,.182-.278A8.678,8.678,0,0,0,21.589,7.6.249.249,0,0,1,22,7.788V11.96a.251.251,0,0,1-.073.177l-1.2,1.2a6.649,6.649,0,0,1-2.344,1.516.249.249,0,0,1-.336-.273A16.187,16.187,0,0,0,18.261,12,16.092,16.092,0,0,0,18.07,9.617ZM22,4.308a.251.251,0,0,1-.073.177l-1.2,1.2a6.645,6.645,0,0,1-2.885,1.683.249.249,0,0,1-.308-.167,16.039,16.039,0,0,0-2.42-4.8.25.25,0,0,1,.2-.4H21.5a.5.5,0,0,1,.5.5ZM3.451,2a.253.253,0,0,1,.18.076,14.24,14.24,0,0,1,2.5,3.515.251.251,0,0,1-.156.353A8.688,8.688,0,0,0,2.377,7.932a.223.223,0,0,1-.242.041A.225.225,0,0,1,2,7.767V2.5A.5.5,0,0,1,2.5,2ZM2,18.765a.25.25,0,0,1,.08-.184l1.654-1.527a6.68,6.68,0,0,1,3.115-1.615.249.249,0,0,1,.295.309,14.158,14.158,0,0,1-3.513,6.176.254.254,0,0,1-.18.076H2.5a.5.5,0,0,1-.5-.5ZM15.317,22a.25.25,0,0,1-.2-.4,16.032,16.032,0,0,0,2.253-4.289.251.251,0,0,1,.191-.165,8.708,8.708,0,0,0,4.031-1.9.249.249,0,0,1,.266-.036A.251.251,0,0,1,22,15.44V21.5a.5.5,0,0,1-.5.5Z"/></svg>