<svg id="Bold" xmlns="http://www.w3.org/2000/svg" viewBox="0 0 24 24"><title>pet-tracking-cat-smartphone</title><path d="M8.89,13.542a8.043,8.043,0,0,0-2.047.352.5.5,0,0,0-.295.681l1.044,2.294a1.053,1.053,0,0,0,.966.631,1.144,1.144,0,0,0,.287-.038,1.058,1.058,0,0,0,.8-1.136l-.219-2.332A.5.5,0,0,0,8.89,13.542Z"/><path d="M18,10.5a.5.5,0,0,0,.447-.276l.724-1.448a.5.5,0,0,1,.447-.276h1.07A1.814,1.814,0,0,0,22.5,6.688V6.5A.5.5,0,0,0,22,6c-.336,0-.573-.459-.923-1.214a3.651,3.651,0,0,0-1.847-2.17.5.5,0,0,1-.333-.405L18.7.743a.512.512,0,0,0-.033-.122A1,1,0,0,0,17.743,0h0a1.015,1.015,0,0,0-.944.677l-.987,3.669A3.491,3.491,0,0,1,12.576,6.5H5.889a2.462,2.462,0,0,0-1.046.238.5.5,0,0,1-.425,0A3.313,3.313,0,0,1,2.5,3.75,1.562,1.562,0,0,1,4,2a.485.485,0,0,1,.5.5c0,.352-.448.605-.447.605a1,1,0,1,0,.894,1.79A2.808,2.808,0,0,0,6.5,2.5,2.476,2.476,0,0,0,4,0,3.552,3.552,0,0,0,.5,3.75,5.325,5.325,0,0,0,3.058,8.277a.5.5,0,0,1,.208.6c-.749,2.006-2.231,5.966-2.675,7.062a1.089,1.089,0,0,0,.535,1.429,1.3,1.3,0,0,0,.572.13,1.425,1.425,0,0,0,1.232-.731c.144-.243.28-.479.412-.707,1.277-2.221,2.048-3.562,6.9-3.562h.014a13.279,13.279,0,0,1,3.317.335.5.5,0,0,0,.6-.319,2.974,2.974,0,0,1,2.8-2.016Zm.75-6a.75.75,0,1,1-.75.75A.749.749,0,0,1,18.75,4.5Z"/><path d="M22.03,12H16.97a1.494,1.494,0,0,0-1.47,1.51v8.98A1.494,1.494,0,0,0,16.97,24h5.06a1.494,1.494,0,0,0,1.47-1.51V13.51A1.494,1.494,0,0,0,22.03,12ZM22,20.5a.508.508,0,0,1-.5.5h-4a.5.5,0,0,1-.5-.5V14a.5.5,0,0,1,.5-.5h4a.5.5,0,0,1,.5.5Z"/></svg>