<svg id="Bold" xmlns="http://www.w3.org/2000/svg" viewBox="0 0 24 24"><title>pet-tracking-dog-search</title><path d="M18.664,9.842c.06.02.11.04.16.06l.08-.149A2.478,2.478,0,0,1,21.052,8.5,2.945,2.945,0,0,0,24,5.558,2.048,2.048,0,0,0,21.961,3.51a1.041,1.041,0,0,1-.939-.579A2.557,2.557,0,0,0,19,1.527a.5.5,0,0,1-.363-.22L17.925.234a.52.52,0,0,0-.449-.219.5.5,0,0,0-.419.279L15.049,4.309a3.171,3.171,0,0,1-.471.829.5.5,0,0,0,.041.659Zm.592-6.331a.749.749,0,1,1-.749.749A.749.749,0,0,1,19.256,3.511Z"/><path d="M15.223,9.629a.5.5,0,0,0,.264-.844L13.205,6.51a.5.5,0,0,0-.484-.129,3.508,3.508,0,0,1-.918.126H5.021a3,3,0,0,0-.739.1.5.5,0,0,1-.431-.091C1.658,4.8,2.015,1.162,2.025,1.123A1,1,0,0,0,.037.9c-.019.183-.426,4.156,1.989,6.645a.5.5,0,0,1,.064.615,3.353,3.353,0,0,0-.534,1.829l-.029,1.774a.505.505,0,0,1-.052.216l-1.4,2.794a.545.545,0,0,0-.05.22v2.747a1.748,1.748,0,0,0,3.5,0V16.105a1.553,1.553,0,0,1,.25-.839l1.069-1.6A1.5,1.5,0,0,1,6.09,13h4.093a.5.5,0,0,0,.422-.234A6.945,6.945,0,0,1,15.223,9.629Z"/><path d="M23.634,21.855l-2.327-2.327a.251.251,0,0,1-.04-.3A5.442,5.442,0,0,0,22,16.5a5.493,5.493,0,1,0-5.493,5.494,5.442,5.442,0,0,0,2.731-.736.25.25,0,0,1,.3.04l2.328,2.327a1.248,1.248,0,0,0,1.765-1.765Zm-7.125-1.864a3.5,3.5,0,1,1,3.5-3.5A3.5,3.5,0,0,1,16.509,19.991Z"/></svg>