<svg id="Bold" xmlns="http://www.w3.org/2000/svg" viewBox="0 0 24 24"><title>pet-tracking-dog-signal</title><path d="M23.816,20.113l-5.4-4.415a.5.5,0,0,0-.669.033l-7.69,7.689a.34.34,0,0,0,.24.58H23.5a.5.5,0,0,0,.5-.5v-3A.5.5,0,0,0,23.816,20.113Z"/><path d="M14.252,12.3A.5.5,0,0,1,14.077,12a8.05,8.05,0,0,0-3.793-5.882.943.943,0,0,0-1.406.823V8.812a.5.5,0,0,1-.5.5c-2.889.03-4.757.33-4.815,3.341a.5.5,0,0,1-.177.372,15.055,15.055,0,0,1-3.085,1.65A.5.5,0,0,0,0,15.135v1.329a3.167,3.167,0,0,0,3.164,3.164H6.237a1.278,1.278,0,0,1,1.045.543L8.309,21.6a.5.5,0,0,0,.759.062l7.092-7.092a.5.5,0,0,0-.037-.741ZM7,13.5a1,1,0,1,1,1-1A1,1,0,0,1,7,13.5Z"/><circle cx="17.5" cy="8.765" r="1.75"/><path d="M12.621,3.709a7.823,7.823,0,0,1,9.758,0,1,1,0,1,0,1.242-1.568,9.821,9.821,0,0,0-12.242,0,1,1,0,1,0,1.242,1.568Z"/><path d="M20.5,6.728a1,1,0,0,0,.647-1.762,5.621,5.621,0,0,0-7.293,0,1,1,0,0,0,1.293,1.525,3.586,3.586,0,0,1,4.707,0A1,1,0,0,0,20.5,6.728Z"/></svg>