<svg id="Bold" xmlns="http://www.w3.org/2000/svg" viewBox="0 0 24 24"><title>pets-paw-heart</title><path d="M23.332,5.114A6.337,6.337,0,0,0,13.264,3.483L12,4.634,10.751,3.5A6.271,6.271,0,0,0,5.275,1.759,6.225,6.225,0,0,0,.668,5.114,6.16,6.16,0,0,0,1.842,12.3l9.451,9.732a.983.983,0,0,0,1.414,0L22.151,12.3A6.16,6.16,0,0,0,23.332,5.114ZM8.247,9.474A1.247,1.247,0,1,1,7,10.72,1.247,1.247,0,0,1,8.247,9.474Zm.969,4.9,1.822-2.487a1.193,1.193,0,0,1,1.923,0l1.824,2.5a1.229,1.229,0,0,1-.961,1.943H10.176a1.218,1.218,0,0,1-1.063-.683A1.246,1.246,0,0,1,9.216,14.371Zm1.523-6.143a1.246,1.246,0,1,1,1.246,1.246A1.246,1.246,0,0,1,10.739,8.228Zm3.769,2.492a1.246,1.246,0,1,1,1.246,1.247A1.247,1.247,0,0,1,14.508,10.72Z"/></svg>