<svg id="Bold" xmlns="http://www.w3.org/2000/svg" viewBox="0 0 24 24"><title>pets-tick-free</title><path d="M17.927,8.652a2.564,2.564,0,0,1-1.436,1.384l-6.71,6.71a.512.512,0,0,0,.088.793A3.922,3.922,0,0,0,12,18.128,3.752,3.752,0,0,0,15.4,16.2l.265.408a1.017,1.017,0,0,1,.167.5v2.043a.766.766,0,1,0,1.532,0l-.006-2.137a2.632,2.632,0,0,0-.386-1.2l-.753-1.161a.766.766,0,0,0-.212-.216,6.828,6.828,0,0,0,.09-.929,2.145,2.145,0,0,1,1.074,1.109l.254.593a.766.766,0,1,0,1.408-.6l-.254-.594a3.723,3.723,0,0,0-2.611-2.158c-.007-.037-.017-.074-.025-.112A4.176,4.176,0,0,0,19.349,9.22a.766.766,0,0,0-.426-1A.828.828,0,0,0,17.927,8.652Z"/><path d="M12,0A12,12,0,1,0,24,12,12,12,0,0,0,12,0ZM22,12A10,10,0,0,1,5.518,19.614a.5.5,0,0,1-.03-.734L18.88,5.489a.5.5,0,0,1,.734.029A9.957,9.957,0,0,1,22,12ZM2,12A10,10,0,0,1,17.629,3.734.5.5,0,0,1,17.7,4.5L13.976,8.226c-.09-.072-.171-.161-.265-.224a2.042,2.042,0,1,0-3.422,0,4.206,4.206,0,0,0-.53.448c-.017-.007-.029-.022-.047-.028-.838-.309-.943-.591-1.334-1.637-.078-.21-.163-.437-.263-.686a.766.766,0,0,0-1.422.568c.1.238.176.455.25.654A3.475,3.475,0,0,0,8.811,9.7c-.1.175-.2.345-.283.533a2.656,2.656,0,0,1-2.455-1.58.766.766,0,1,0-1.422.568,4.176,4.176,0,0,0,3.408,2.518c-.008.038-.018.075-.025.112a3.723,3.723,0,0,0-2.611,2.158.766.766,0,0,0,1.408.6A2.143,2.143,0,0,1,7.905,13.5a6.8,6.8,0,0,0,.051.744L4.5,17.7a.5.5,0,0,1-.767-.072A9.954,9.954,0,0,1,2,12Z"/></svg>