<svg id="Bold" xmlns="http://www.w3.org/2000/svg" viewBox="0 0 24 24"><title>pets-paw-bubble</title><path d="M24,12a4.475,4.475,0,0,0-2.395-3.979A4.5,4.5,0,0,0,15.979,2.4a4.5,4.5,0,0,0-7.958,0A4.5,4.5,0,0,0,2.4,8.021a4.5,4.5,0,0,0,0,7.958,4.5,4.5,0,0,0,5.626,5.626,4.5,4.5,0,0,0,7.958,0,4.5,4.5,0,0,0,5.626-5.626A4.475,4.475,0,0,0,24,12Zm-7.5.5A1.5,1.5,0,1,1,18,11,1.5,1.5,0,0,1,16.5,12.5Zm-9,0A1.5,1.5,0,1,1,9,11,1.5,1.5,0,0,1,7.5,12.5Zm1.433,2.347,2.231-2.9a1,1,0,0,1,1.671,0l2.232,2.9a1,1,0,0,1-.836,1.549H9.768a1,1,0,0,1-.835-1.549ZM12,6.5A1.5,1.5,0,1,1,10.5,8,1.5,1.5,0,0,1,12,6.5Z"/></svg>