<svg xmlns="http://www.w3.org/2000/svg" viewBox="0 0 24 24"><title>phone-translate</title><path d="M5.5,3.5A.5.5,0,0,1,6,3H17a.5.5,0,0,1,.5.5v.75a.25.25,0,0,0,.25.25h1.5a.25.25,0,0,0,.25-.25V3a3,3,0,0,0-3-3H6.5a3,3,0,0,0-3,3V4.25a.25.25,0,0,0,.25.25h1.5a.25.25,0,0,0,.25-.25Z"/><path d="M17.5,19a.5.5,0,0,1-.5.5H6a.5.5,0,0,1-.5-.5V17.5h-2V21a3,3,0,0,0,3,3h10a3,3,0,0,0,3-3V17.75a.25.25,0,0,0-.25-.25h-1.5a.25.25,0,0,0-.25.25Z"/><path d="M23.25,9.5a.752.752,0,0,0-.75-.75h-2a.25.25,0,0,1-.25-.25v-1a.75.75,0,0,0-1.5,0v1a.25.25,0,0,1-.25.25h-2a.75.75,0,0,0,0,1.5h.134a.249.249,0,0,1,.242.189,5.311,5.311,0,0,0,1.108,2.121.252.252,0,0,1,.051.224.248.248,0,0,1-.152.171,7.309,7.309,0,0,1-1.047.313.75.75,0,0,0,.326,1.464,7.954,7.954,0,0,0,2.214-.829.248.248,0,0,1,.247,0,7.986,7.986,0,0,0,2.214.829.75.75,0,0,0,.326-1.464,7.309,7.309,0,0,1-1.047-.313.248.248,0,0,1-.152-.171.252.252,0,0,1,.051-.224,5.311,5.311,0,0,0,1.108-2.121.249.249,0,0,1,.242-.189H22.5a.752.752,0,0,0,.75-.75Zm-3.571,2.31a.25.25,0,0,1-.359,0,3.893,3.893,0,0,1-.807-1.213.251.251,0,0,1,.023-.235.248.248,0,0,1,.208-.112h1.511a.253.253,0,0,1,.208.111.249.249,0,0,1,.022.235A3.88,3.88,0,0,1,19.679,11.81Z"/><path d="M8.884,8.621A.75.75,0,1,0,8.116,9.91a1.25,1.25,0,0,1,0,2.15.75.75,0,0,0,.77,1.288,2.751,2.751,0,0,0,0-4.727Z"/><path d="M11.635,5.916a.75.75,0,1,0-.879,1.216,4.749,4.749,0,0,1,.261,7.5.75.75,0,0,0,.961,1.153,6.251,6.251,0,0,0-.343-9.872Z"/><path d="M3,7.749A2.253,2.253,0,0,0,.75,10v4.5a.75.75,0,0,0,1.5,0v-2a.25.25,0,0,1,.25-.25h1a.25.25,0,0,1,.25.25v2a.75.75,0,1,0,1.5,0V10A2.253,2.253,0,0,0,3,7.749Zm-.5,3a.249.249,0,0,1-.25-.25V10a.75.75,0,0,1,1.5,0v.5a.249.249,0,0,1-.25.25Z"/></svg>