<svg xmlns="http://www.w3.org/2000/svg" viewBox="0 0 24 24"><title>pin-location-2</title><path d="M10.181,8.669a.5.5,0,0,1,.323.467V19.944a1.247,1.247,0,1,0,2.493,0V9.136a.5.5,0,0,1,.324-.467,4.488,4.488,0,1,0-3.14,0Z"/><path d="M16.481,17.575a.992.992,0,0,0-1.058.926,1.007,1.007,0,0,0,.888,1.1,26.014,26.014,0,0,1,3.865.6.5.5,0,0,1,0,.968,35.953,35.953,0,0,1-8.174.79,35.953,35.953,0,0,1-8.174-.79.5.5,0,0,1,0-.968,26.014,26.014,0,0,1,3.865-.6,1.007,1.007,0,0,0,.888-1.1.99.99,0,0,0-1.058-.926C.033,18.257.033,20.088.033,20.69.033,23.761,9.192,24,12,24s11.967-.239,11.967-3.31C23.967,20.088,23.967,18.257,16.481,17.575Z"/></svg>