<svg xmlns="http://www.w3.org/2000/svg" viewBox="0 0 24 24"><title>pin-shine</title><path d="M12,6a7.183,7.183,0,0,0-7.15,7.52c0,4.44,4.56,8.65,6.52,10.25A.94.94,0,0,0,12,24a.922.922,0,0,0,.63-.23c1.96-1.6,6.52-5.81,6.52-10.25A7.183,7.183,0,0,0,12,6Zm0,10.5A3.5,3.5,0,1,1,15.5,13,3.5,3.5,0,0,1,12,16.5Z"/><path d="M4.314,6.5l-2.5-1.115A1.25,1.25,0,1,0,.686,7.616l2.5,1.115A1.25,1.25,0,1,0,4.314,6.5Z"/><path d="M7.324,4.685a1.25,1.25,0,0,0,2.344-.869l-1.246-3a1.25,1.25,0,0,0-2.344.869Z"/><path d="M23.865,5.936a1.25,1.25,0,0,0-1.68-.55L19.686,6.5a1.25,1.25,0,1,0,1.129,2.23l2.5-1.115A1.25,1.25,0,0,0,23.865,5.936Z"/><path d="M15.069,5.422a1.247,1.247,0,0,0,1.607-.737l1.246-3A1.25,1.25,0,0,0,15.578.816l-1.246,3A1.249,1.249,0,0,0,15.069,5.422Z"/></svg>