<svg xmlns="http://www.w3.org/2000/svg" viewBox="0 0 24 24"><title>pin-remove-2</title><path d="M12,0A7.258,7.258,0,0,0,4.75,7.25c0,2.36,1.749,5.085,3.44,7.721a27.253,27.253,0,0,1,2.529,4.49.514.514,0,0,1,.031.174V22.75a1.25,1.25,0,0,0,2.5,0V19.635a.514.514,0,0,1,.031-.174,27.253,27.253,0,0,1,2.529-4.49C17.5,12.335,19.25,9.61,19.25,7.25A7.258,7.258,0,0,0,12,0Zm2.475,8.914a.75.75,0,0,1-1.061,1.061l-1.06-1.061a.5.5,0,0,0-.708,0l-1.06,1.061A.75.75,0,0,1,9.525,8.914l1.061-1.06a.5.5,0,0,0,0-.708L9.525,6.086a.75.75,0,0,1,1.061-1.061l1.06,1.061a.5.5,0,0,0,.708,0l1.06-1.061a.75.75,0,0,1,1.061,1.061l-1.061,1.06a.5.5,0,0,0,0,.708Z"/></svg>