<svg id="Bold" xmlns="http://www.w3.org/2000/svg" viewBox="0 0 24 24"><title>ping-pong-table</title><rect x="5.75" y="7.25" width="5.5" height="4" rx="0.5" ry="0.5"/><rect x="5.75" y="12.75" width="5.5" height="4" rx="0.5" ry="0.5"/><rect x="12.75" y="12.75" width="5.5" height="4" rx="0.5" ry="0.5"/><rect y="7.25" width="4.25" height="9.5" rx="0.5" ry="0.5"/><rect x="12.75" y="7.25" width="5.5" height="4" rx="0.5" ry="0.5"/><rect x="19.75" y="7.25" width="4.25" height="9.5" rx="0.5" ry="0.5"/><path d="M10.75,18.25H.5a.5.5,0,0,0-.5.5V19a1.5,1.5,0,0,0,1.5,1.5h9.25a.5.5,0,0,0,.5-.5V18.75A.5.5,0,0,0,10.75,18.25Z"/><path d="M23.5,18.25H13.25a.5.5,0,0,0-.5.5V20a.5.5,0,0,0,.5.5H22.5A1.5,1.5,0,0,0,24,19v-.25A.5.5,0,0,0,23.5,18.25Z"/><path d="M10.75,3.5H1.5A1.5,1.5,0,0,0,0,5v.25a.5.5,0,0,0,.5.5H10.75a.5.5,0,0,0,.5-.5V4A.5.5,0,0,0,10.75,3.5Z"/><path d="M22.5,3.5H13.25a.5.5,0,0,0-.5.5V5.25a.5.5,0,0,0,.5.5H23.5a.5.5,0,0,0,.5-.5V5A1.5,1.5,0,0,0,22.5,3.5Z"/></svg>