<svg xmlns="http://www.w3.org/2000/svg" viewBox="0 0 24 24"><title>plane-info-center</title><circle cx="8" cy="3.275" r="3"/><path d="M12,9.776a2,2,0,0,0-2-2H9.467a.25.25,0,0,0-.208.111L8.208,9.464a.25.25,0,0,1-.416,0L6.741,7.887a.25.25,0,0,0-.208-.111H6a2,2,0,0,0-2,2v1a.5.5,0,0,0,.5.5h7a.5.5,0,0,0,.5-.5Z"/><path d="M.5,23.225a.5.5,0,0,0,.5.5H23a.5.5,0,0,0,.5-.5v-8.5a2.5,2.5,0,0,0-2.5-2.5H3a2.5,2.5,0,0,0-2.5,2.5ZM12,14.276a4,4,0,1,1-4,4A4,4,0,0,1,12,14.276Z"/><path d="M15.941,3.2a.518.518,0,0,0-.622-.079l-.714.414a.517.517,0,0,0-.118.8l1.441,1.556a.518.518,0,0,0,.547.137l5.406-1.844a1.3,1.3,0,0,0,.77-.766l.037-.113a1.243,1.243,0,0,0-1.741-1.495l-.01.005-1.13.534a.25.25,0,0,1-.248-.019L17.711,1.063A.514.514,0,0,0,17.254,1l-.747.255a.517.517,0,0,0-.335.363A.522.522,0,0,0,16.3,2.1l.963,1.067a.25.25,0,0,1-.107.4l-.478.158a.249.249,0,0,1-.254-.059Z"/><path d="M12,18.025a.75.75,0,0,0-.75.75v1.5a.75.75,0,0,0,1.5,0v-1.5A.75.75,0,0,0,12,18.025Z"/><circle cx="12" cy="16.276" r="1"/></svg>