<svg id="Bold" xmlns="http://www.w3.org/2000/svg" viewBox="0 0 24 24"><title>plant-bonsai-2</title><path d="M21.554,5.338a.5.5,0,0,1-.3-.307A4.524,4.524,0,0,0,17,2a3.965,3.965,0,0,0-.456.027.5.5,0,0,1-.432-.166,5.473,5.473,0,0,0-8.224,0,.5.5,0,0,1-.432.166A3.965,3.965,0,0,0,7,2,4.522,4.522,0,0,0,2.748,5.031a.5.5,0,0,1-.3.307A2.7,2.7,0,0,0,.5,8c0,1.767,1.645,3,4,3H5.533a.5.5,0,0,1,.476.346,4.909,4.909,0,0,0,4.53,3.378.5.5,0,0,1,.461.5V15.5a.5.5,0,0,1-.5.5H6.25a1,1,0,0,0,0,2h11.5a1,1,0,0,0,0-2H13.5a.5.5,0,0,1-.5-.5v-.278a.5.5,0,0,1,.461-.5,4.911,4.911,0,0,0,4.53-3.377A.5.5,0,0,1,18.467,11H19.5c2.355,0,4-1.233,4-3A2.7,2.7,0,0,0,21.554,5.338ZM11,12.229a.5.5,0,0,1-.552.5A2.871,2.871,0,0,1,8.23,11.382.25.25,0,0,1,8.441,11H10.5a.5.5,0,0,1,.5.5Zm4.77-.847a2.875,2.875,0,0,1-2.218,1.344.5.5,0,0,1-.386-.126A.5.5,0,0,1,13,12.229V11.5a.5.5,0,0,1,.5-.5h2.058a.25.25,0,0,1,.212.382Z"/><path d="M16.1,19H7.9a.5.5,0,0,0-.494.578L7.9,22.686A1.5,1.5,0,0,0,9.383,24h5.234A1.5,1.5,0,0,0,16.1,22.7l.494-3.117A.5.5,0,0,0,16.1,19Z"/></svg>