<svg id="Bold" xmlns="http://www.w3.org/2000/svg" viewBox="0 0 24 24"><title>plant-bonsai</title><path d="M15.806,18H8.194a1,1,0,0,0-.812.416,1.02,1.02,0,0,0-.123.938L8.8,22.975A1.5,1.5,0,0,0,10.221,24h3.558A1.5,1.5,0,0,0,15.2,23l1.56-3.679A1,1,0,0,0,15.806,18Z"/><path d="M16.952,5.014a.5.5,0,0,1-.468-.462C16.314,2.221,14.819,0,12,0S7.686,2.221,7.516,4.552a.5.5,0,0,1-.468.462C4.5,5.17,2.5,6.665,2.5,9.5c0,3,2.239,4.5,5,4.5h2.75a.5.5,0,0,1,.5.5v2a.5.5,0,0,0,.5.5h1.5a.5.5,0,0,0,.5-.5v-2a.5.5,0,0,1,.5-.5H16.5c2.761,0,5-1.5,5-4.5C21.5,6.665,19.5,5.17,16.952,5.014Z"/></svg>