<svg id="Bold" xmlns="http://www.w3.org/2000/svg" viewBox="0 0 24 24"><title>plant-1</title><path d="M12,9a1,1,0,0,0-1,1V23a1,1,0,0,0,2,0V10A1,1,0,0,0,12,9Z"/><path d="M12.782.28a1.231,1.231,0,0,0-1.563,0A4.815,4.815,0,0,0,9.25,3.86c0,2.318,2.247,3.8,2.343,3.857a.749.749,0,0,0,.813,0c.1-.061,2.344-1.539,2.344-3.857A4.91,4.91,0,0,0,12.782.28Z"/><path d="M6.043,18.46a7.468,7.468,0,0,0-4.427.14h0A1.251,1.251,0,0,0,1,20.535,7.48,7.48,0,0,0,4.519,23.22a7.351,7.351,0,0,0,4.429-.141,1.251,1.251,0,0,0,.618-1.934A7.468,7.468,0,0,0,6.043,18.46Z"/><path d="M6.043,12.46a7.468,7.468,0,0,0-4.427.14h0A1.251,1.251,0,0,0,1,14.535,7.48,7.48,0,0,0,4.519,17.22a7.351,7.351,0,0,0,4.429-.141,1.251,1.251,0,0,0,.618-1.934A7.468,7.468,0,0,0,6.043,12.46Z"/><path d="M5.385,11.127a6.018,6.018,0,0,0,3.625-.113,1.148,1.148,0,0,0,.571-1.777,6.122,6.122,0,0,0-2.887-2.2,6.126,6.126,0,0,0-3.627.112h0A1.149,1.149,0,0,0,2.5,8.928,6.113,6.113,0,0,0,5.385,11.127Z"/><path d="M17.957,18.46a7.468,7.468,0,0,1,4.427.14h0A1.251,1.251,0,0,1,23,20.535a7.48,7.48,0,0,1-3.523,2.685,7.351,7.351,0,0,1-4.429-.141,1.251,1.251,0,0,1-.618-1.934A7.468,7.468,0,0,1,17.957,18.46Z"/><path d="M17.957,12.46a7.468,7.468,0,0,1,4.427.14h0A1.251,1.251,0,0,1,23,14.535a7.48,7.48,0,0,1-3.523,2.685,7.351,7.351,0,0,1-4.429-.141,1.251,1.251,0,0,1-.618-1.934A7.468,7.468,0,0,1,17.957,12.46Z"/><path d="M18.615,11.127a6.018,6.018,0,0,1-3.625-.113,1.148,1.148,0,0,1-.571-1.777,6.122,6.122,0,0,1,2.887-2.2,6.126,6.126,0,0,1,3.627.112h0A1.149,1.149,0,0,1,21.5,8.928,6.113,6.113,0,0,1,18.615,11.127Z"/></svg>