<svg xmlns="http://www.w3.org/2000/svg" viewBox="0 0 24 24"><title>plane-boarding-pass-1</title><path d="M23.2,10.53a1,1,0,0,0,.8-.98V5.5A1.5,1.5,0,0,0,22.5,4H1.5A1.5,1.5,0,0,0,0,5.5V9.55a1,1,0,0,0,.8.98,1.5,1.5,0,0,1,0,2.94,1,1,0,0,0-.8.98V18.5A1.5,1.5,0,0,0,1.5,20h21A1.5,1.5,0,0,0,24,18.5V14.45a1,1,0,0,0-.8-.98,1.5,1.5,0,0,1,0-2.94ZM5.25,18.25A.75.75,0,1,1,6,17.5.75.75,0,0,1,5.25,18.25Zm0-3.667a.75.75,0,1,1,.75-.75A.75.75,0,0,1,5.25,14.583Zm0-3.666a.75.75,0,1,1,.75-.75A.75.75,0,0,1,5.25,10.917Zm0-3.667A.75.75,0,1,1,6,6.5.75.75,0,0,1,5.25,7.25Zm13.7,3.989-6.761,4.2a.416.416,0,0,1-.459-.014l-2.478-1.74a.229.229,0,0,1-.036-.322.24.24,0,0,1,.04-.038l1.04-.918a.229.229,0,0,1,.221-.038l1.026.612a.5.5,0,0,0,.542-.02l1.077-.751a.25.25,0,0,0-.011-.418l-2.81-1.739a.285.285,0,0,1-.032-.4.305.305,0,0,1,.045-.043l.766-.568A.287.287,0,0,1,11.39,9l4.075,1.517a.5.5,0,0,0,.456-.055L17.7,9.245a1.106,1.106,0,0,1,.876-.167,1.183,1.183,0,0,1,.853.765,1.13,1.13,0,0,1,.066.378A1.175,1.175,0,0,1,18.951,11.239Z"/></svg>