<svg xmlns="http://www.w3.org/2000/svg" viewBox="0 0 24 24"><title>plane-trip-land-cancel</title><path d="M10.182,5.209a.249.249,0,0,0,.143.145L14.554,7a.247.247,0,0,0,.268-.057.252.252,0,0,0,.054-.27L12.9,1.83a1,1,0,0,0-.532-.544L10.143.332A1,1,0,0,0,8.814,1.606Z"/><path d="M17.551,9.765a.25.25,0,0,0,.109-.472,2.8,2.8,0,0,0-.278-.126L5.761,4.654A.247.247,0,0,1,5.614,4.5L4.8,2.047a1,1,0,0,0-.554-.6L1.646.332a1,1,0,0,0-1.395.919V6.316a1.492,1.492,0,0,0,.943,1.392L6.457,9.813a.25.25,0,0,1,.013.459L1.619,12.536a1,1,0,0,0,.071,1.842L4.419,15.4a1.015,1.015,0,0,0,.634.023l5.689-1.673a.249.249,0,0,0,.144-.112,7.96,7.96,0,0,1,6.665-3.875Z"/><path d="M23.594,16.368a5.933,5.933,0,0,0-4.464-4.462A6.011,6.011,0,0,0,11.9,19.129a5.938,5.938,0,0,0,5.835,4.62A6.006,6.006,0,0,0,23.594,16.368Zm-9.461,3.115a4.013,4.013,0,0,1,5.347-5.347.25.25,0,0,1,.068.4l-5.013,5.013A.251.251,0,0,1,14.133,19.483Zm6.444,1.1a4.015,4.015,0,0,1-4.56.787.251.251,0,0,1-.068-.4l5.013-5.012a.25.25,0,0,1,.4.068A4.007,4.007,0,0,1,20.577,20.58Z"/></svg>