<svg xmlns="http://www.w3.org/2000/svg" viewBox="0 0 24 24"><title>plane-trip-international</title><path d="M7.737,15.55a1,1,0,0,0-.774-1.184,6.146,6.146,0,0,1-2.546-1.2.251.251,0,0,1-.091-.245L4.62,11.45a.25.25,0,0,1,.245-.2h.1A1.5,1.5,0,0,0,6.425,9.385l-.5-2A1.5,1.5,0,0,0,4.469,6.249H2.694a.25.25,0,0,1-.232-.344,6.227,6.227,0,0,1,9.146-2.917.142.142,0,0,1-.077.261,1.5,1.5,0,0,0-1.455,1.136l-.5,2a1.5,1.5,0,0,0,1.455,1.864h.417a.251.251,0,0,1,.247.209l.218,1.311a3.39,3.39,0,0,0,.565,1.372.25.25,0,0,0,.32.081l.03-.016a2.509,2.509,0,0,1,2.472.1.474.474,0,0,0,.7-.24A8.248,8.248,0,1,0,0,8.249a8.28,8.28,0,0,0,6.553,8.074.969.969,0,0,0,.206.022A1,1,0,0,0,7.737,15.55Z"/><path d="M23.842,14.39a1.78,1.78,0,0,0-2.281-.922l-3.3,1.315a.5.5,0,0,1-.451-.04l-3.058-1.916a1.008,1.008,0,0,0-.989-.041l-1.027.53a1,1,0,0,0-.095,1.72l1.473.98a.251.251,0,0,1-.046.441l-2.148.857a.5.5,0,0,1-.39-.008L9.5,16.4a1,1,0,0,0-.907.046l-1.073.617a1,1,0,0,0-.043,1.707l3.657,2.361a1,1,0,0,0,.907.089l2.716-1.07a.25.25,0,0,1,.325.323l-.837,2.173a1,1,0,0,0,1.395,1.247l.963-.5a1,1,0,0,0,.419-.408l2.534-4.631a.5.5,0,0,1,.237-.217l3.146-1.386a1.778,1.778,0,0,0,.9-2.356Z"/></svg>