<svg xmlns="http://www.w3.org/2000/svg" viewBox="0 0 24 24"><title>plane-trip-person</title><circle cx="9.376" cy="3.008" r="2.5"/><path d="M23.43,4.926l-2.555-1.7V1a1,1,0,0,0-2,0V3.223l-2.555,1.7A1,1,0,1,0,17.43,6.59l1.445-.964v2.1l-1.055.7a1,1,0,1,0,1.11,1.664l.945-.63.945.63a1,1,0,1,0,1.11-1.664l-1.055-.7v-2.1l1.445.964a1,1,0,1,0,1.11-1.664Z"/><path d="M15.375,10.5a1.572,1.572,0,0,1-1.493-.823A5.442,5.442,0,0,0,9.258,7C3.861,7,3,11.925,2.889,13.237a.25.25,0,0,0,.249.271H5.631a.249.249,0,0,0,.25-.236,3.349,3.349,0,0,1,1.613-2.766.249.249,0,0,1,.253-.006.252.252,0,0,1,.128.219v2.728a.251.251,0,0,0,.159.233,2.5,2.5,0,0,1,1.591,2.328V17.85a.25.25,0,0,0,.483.09c.021-.056.043-.111.063-.167a14.455,14.455,0,0,1,3.281,5.176A1.5,1.5,0,0,0,16.3,22a18.585,18.585,0,0,0-5.423-7.71V11.373a.242.242,0,0,1,.449-.127A4.537,4.537,0,0,0,15.375,13.5a1.5,1.5,0,0,0,0-3Z"/><path d="M4.653,22.508a.251.251,0,0,0-.245.3,1.5,1.5,0,0,0,2.667.59c.025-.033.157-.21.357-.5a.25.25,0,0,0-.215-.391H4.653Z"/><rect x="0.125" y="15.008" width="8" height="6" rx="1" ry="1"/></svg>