<svg xmlns="http://www.w3.org/2000/svg" viewBox="0 0 24 24"><title>police-man-spy-1</title><path d="M7.375,23.375a.25.25,0,0,0-.25-.25H5.5a.623.623,0,0,1-.587-.411L3.1,17.722a.25.25,0,0,0-.357-.133,10.964,10.964,0,0,0-1.274.829A2.464,2.464,0,0,0,.5,20.4V23.5A.5.5,0,0,0,1,24H7.125a.249.249,0,0,0,.25-.25Z"/><path d="M5.878,21.711a.249.249,0,0,0,.235.164H8a.625.625,0,0,1,.625.625v.858a.25.25,0,0,0,.158.233.253.253,0,0,0,.274-.061L11.064,21.4a.25.25,0,0,0,0-.343l-4.536-4.8a.253.253,0,0,0-.246-.07,16.47,16.47,0,0,0-1.925.634.25.25,0,0,0-.142.317Z"/><path d="M19.087,22.714a.623.623,0,0,1-.587.411H16.875a.25.25,0,0,0-.25.25v.375a.249.249,0,0,0,.25.25H23a.5.5,0,0,0,.5-.5V20.4a2.462,2.462,0,0,0-.967-1.977,10.941,10.941,0,0,0-1.273-.829.25.25,0,0,0-.357.133Z"/><path d="M10.848,23.454a.25.25,0,0,0,.182.421h4.1a.249.249,0,0,0,.25-.25V22.5A.625.625,0,0,1,16,21.875h1.887a.249.249,0,0,0,.235-.164l1.663-4.572a.25.25,0,0,0-.142-.317,16.536,16.536,0,0,0-1.787-.595.252.252,0,0,0-.248.07Z"/><path d="M10.76,19.059a.25.25,0,0,0,.046.273l.926.98a.249.249,0,0,0,.364,0l1.042-1.1a.25.25,0,0,0,.047-.273L12.457,17.3a.522.522,0,0,0-.915,0Z"/><path d="M4.814,9.707a.253.253,0,0,0-.2.057.25.25,0,0,0-.088.19v1.085a2.134,2.134,0,0,0,1.2,1.914.253.253,0,0,1,.139.2.9.9,0,0,0,.114.372A6.971,6.971,0,0,0,16.55,15.318a6.932,6.932,0,0,0,1.514-1.777.883.883,0,0,0,.115-.369.251.251,0,0,1,.14-.2,2.138,2.138,0,0,0,1.206-1.921V9.963a.251.251,0,0,0-.087-.19.248.248,0,0,0-.2-.057,46.786,46.786,0,0,1-7.211.562A46.472,46.472,0,0,1,4.814,9.707ZM15.565,13a.25.25,0,0,1,.111.411,5.137,5.137,0,0,1-1,.812,4.918,4.918,0,0,1-5.372-.041,5.184,5.184,0,0,1-.937-.775.251.251,0,0,1-.059-.238A.246.246,0,0,1,8.483,13a13.608,13.608,0,0,0,3.4-1.895.249.249,0,0,1,.277,0A13.8,13.8,0,0,0,15.565,13Z"/><path d="M12.025,4.751a30.384,30.384,0,0,0,5.5-.516.249.249,0,0,0,.193-.319l-.889-2.887,0-.006a1.5,1.5,0,0,0-1.9-.944,10.334,10.334,0,0,1-2.9.633,10.348,10.348,0,0,1-2.9-.633,1.486,1.486,0,0,0-1.147.08,1.518,1.518,0,0,0-.755.875l0,.006L6.336,3.916a.249.249,0,0,0,.193.319A30.459,30.459,0,0,0,12.025,4.751Z"/><path d="M2.808,8.048a.682.682,0,0,0,.525.422,45.094,45.094,0,0,0,8.692.82,45.094,45.094,0,0,0,8.692-.82.669.669,0,0,0,.51-.39.854.854,0,0,0-.095-.759L21.1,7.272a.234.234,0,0,1-.029-.076c-.082-.4-1.534-1.4-1.979-1.7a.248.248,0,0,0-.227-.027,29.135,29.135,0,0,1-6.844.784,32.649,32.649,0,0,1-6.984-.78.245.245,0,0,0-.188.033A6.107,6.107,0,0,0,2.92,7.318.831.831,0,0,0,2.808,8.048Z"/></svg>