<svg xmlns="http://www.w3.org/2000/svg" viewBox="0 0 24 24"><title>police-woman-spy-2</title><path d="M23.983,23.373a5,5,0,0,0-2.119-2.941.252.252,0,0,0-.244-.012l-1.3.667a.249.249,0,0,0-.092.363,1.529,1.529,0,0,1,.27.869,1.5,1.5,0,0,1-.463,1.067c-.16.153-.329.262-.251.457a.25.25,0,0,0,.232.157H23.5a.5.5,0,0,0,.483-.627Z"/><path d="M18.589,21.185a.251.251,0,0,1,.065-.4l3.07-1.534a.5.5,0,0,0,.088-.838l-1.218-.976a4.174,4.174,0,0,0,.79-.707.5.5,0,0,0-.231-.8c-1.374-.442-2.024-2.087-2.333-3.434a3.14,3.14,0,0,0,.35-1.36,1.885,1.885,0,0,0-.936-1.809h0a2.572,2.572,0,0,0-.093-1.016c1.351-.177,2.7-.4,4.022-.692a.75.75,0,0,0-.326-1.464c-1.169.26-2.352.456-3.541.621l-1.723-5.45A2,2,0,0,0,13.7.264L12.5.95a1,1,0,0,1-.992,0L10.3.264a2,2,0,0,0-2.88,1.082L5.7,6.779c-1.189-.165-2.372-.361-3.541-.621a.75.75,0,1,0-.326,1.464c1.325.295,2.669.514,4.019.691a3.614,3.614,0,0,0-.1.966C4.9,9.458,4.618,10.5,4.63,11.14a3.1,3.1,0,0,0,.435,1.5c-.322,1.317-.973,2.863-2.3,3.29a.5.5,0,0,0-.231.8,4.2,4.2,0,0,0,.834.737l-1.182.946a.5.5,0,0,0,.088.838l3.07,1.534a.251.251,0,0,1,.065.4l-.765.764a.5.5,0,0,0,.008.715l1.25,1.2A.5.5,0,0,0,6.25,24h11.5a.5.5,0,0,0,.346-.139l1.25-1.2a.5.5,0,0,0,.008-.715Zm-1.478-8.979a1.753,1.753,0,0,0-1,1.306c-.378,2.248-3.175,3.738-4.208,3.738s-3.83-1.49-4.207-3.737a1.746,1.746,0,0,0-1-1.307,1.274,1.274,0,0,1-.558-1.095.87.87,0,0,1,.033-.258,3.679,3.679,0,0,0,.65.883,3.734,3.734,0,0,0,5.157,0l.035-.037a3.622,3.622,0,0,0,5.664-.578A1.274,1.274,0,0,1,17.111,12.206ZM12,8.731c1.547,0,3.093-.087,4.631-.238a2.082,2.082,0,0,1,.12.666A2.147,2.147,0,0,1,14.606,11.3a2.123,2.123,0,0,1-1.932-1.233A.749.749,0,0,0,12,9.64h0a.752.752,0,0,0-.678.432,2.115,2.115,0,0,1-.409.6,2.2,2.2,0,0,1-3.034,0,2.116,2.116,0,0,1-.5-2.181C8.914,8.644,10.457,8.731,12,8.731Zm1.588,12.545a.25.25,0,0,1-.231.058.246.246,0,0,1-.175-.163l-.47-1.409a.751.751,0,0,0-1.424,0l-.47,1.41a.249.249,0,0,1-.175.163.253.253,0,0,1-.232-.058,18.682,18.682,0,0,1-2.74-3.118.249.249,0,0,1,.038-.324,2.162,2.162,0,0,0,.391-.489.251.251,0,0,1,.17-.118.247.247,0,0,1,.2.05A6.305,6.305,0,0,0,11.9,18.75a6.363,6.363,0,0,0,3.5-1.532.25.25,0,0,1,.377.072,2.107,2.107,0,0,0,.474.588.25.25,0,0,1,.044.331A18.7,18.7,0,0,1,13.588,21.276Z"/><path d="M3.963,23.386A1.5,1.5,0,0,1,3.5,22.319a1.529,1.529,0,0,1,.27-.869.247.247,0,0,0,.036-.2.251.251,0,0,0-.128-.16l-1.3-.668a.25.25,0,0,0-.244.011A5,5,0,0,0,.017,23.373.5.5,0,0,0,.5,24H3.982a.25.25,0,0,0,.232-.157C4.292,23.647,4.124,23.54,3.963,23.386Z"/><path d="M12.5,14.251h-1a.75.75,0,1,0,0,1.5h1a.75.75,0,1,0,0-1.5Z"/></svg>