<svg xmlns="http://www.w3.org/2000/svg" viewBox="0 0 24 24"><title>police-hat-2</title><path d="M19.706,18.045A.491.491,0,0,0,19.5,18H4.5a.5.5,0,0,0-.207.045,1.947,1.947,0,0,0-1.16,1.537,1.875,1.875,0,0,0,.788,1.744,13.542,13.542,0,0,0,16.158,0,1.875,1.875,0,0,0,.789-1.743A1.946,1.946,0,0,0,19.706,18.045Z"/><path d="M20,16.5a.5.5,0,0,0,.5-.5V14.946a.5.5,0,0,0-.387-.487l-.858-.2A28.6,28.6,0,0,0,12,13.25a28.6,28.6,0,0,0-7.254,1.008l-.858.2a.5.5,0,0,0-.388.487V16a.5.5,0,0,0,.5.5Z"/><path d="M23.176,8.079a2.491,2.491,0,0,0-1.1-1.53L13.449.463a2.5,2.5,0,0,0-2.9,0L1.952,6.53a2.5,2.5,0,0,0-.8,3.485l2.115,2.748a.5.5,0,0,0,.51.182L4.4,12.8A29.778,29.778,0,0,1,12,11.75,29.788,29.788,0,0,1,19.6,12.8l.623.146a.5.5,0,0,0,.51-.182l2.145-2.791A2.515,2.515,0,0,0,23.176,8.079Zm-8.959-1.5.5.535A.644.644,0,0,1,14.1,8.181l-.709-.164a.478.478,0,0,0-.565.328l-.213.7a.641.641,0,0,1-1.227,0l-.213-.7a.477.477,0,0,0-.565-.328L9.9,8.181a.644.644,0,0,1-.613-1.068l.5-.535a.484.484,0,0,0,0-.656l-.5-.535A.644.644,0,0,1,9.9,4.319l.709.165a.479.479,0,0,0,.565-.328l.213-.7a.641.641,0,0,1,1.227,0l.213.7a.479.479,0,0,0,.565.328l.709-.165a.644.644,0,0,1,.613,1.068l-.5.535A.484.484,0,0,0,14.217,6.578Z"/></svg>