<svg xmlns="http://www.w3.org/2000/svg" viewBox="0 0 24 24"><title>police-woman-1</title><path d="M.5,23.5A.5.5,0,0,0,1,24H23a.5.5,0,0,0,.5-.5V21.394a2.459,2.459,0,0,0-.967-1.976C21.106,18.328,17.839,16.5,12,16.5S2.894,18.328,1.467,19.417A2.462,2.462,0,0,0,.5,21.394Zm16.361-.54-.609-.407a2.247,2.247,0,0,1-1-1.872v-.929a.249.249,0,0,1,.25-.25h3a.249.249,0,0,1,.25.25v.929a2.246,2.246,0,0,1-1,1.872l-.609.407a.251.251,0,0,1-.278,0Z"/><path d="M17.146,15.839A5.351,5.351,0,0,0,18.463,16a3.8,3.8,0,0,0,2.921-1.12.5.5,0,0,0-.231-.8c-2.548-.818-2.162-4.023-2.153-8.147a.248.248,0,0,1,.112-.208,1.462,1.462,0,0,0,.591-.755l.771-2.316a.5.5,0,0,0-.556-.651c-2.324.388-4.059-.375-6.257-1.339C13.188.461,12.7.247,12.189.037a.5.5,0,0,0-.378,0c-.511.21-1,.424-1.472.631-2.2.964-3.935,1.725-6.257,1.339a.5.5,0,0,0-.556.651L4.3,4.974a1.457,1.457,0,0,0,.591.755A.248.248,0,0,1,5,5.937c.01,4.009.425,7.259-2.153,8.087a.5.5,0,0,0-.231.8,3.8,3.8,0,0,0,2.921,1.12,5.351,5.351,0,0,0,1.317-.162,3.435,3.435,0,0,0,1.029-.437.252.252,0,0,1,.274,0,6.972,6.972,0,0,0,7.641.032.252.252,0,0,1,.275,0A3.46,3.46,0,0,0,17.146,15.839Zm-5.132-9.5a.251.251,0,0,1-.278,0l-.609-.407a2.247,2.247,0,0,1-1-1.872V3.127a.249.249,0,0,1,.25-.25h3a.249.249,0,0,1,.25.25v.929a2.246,2.246,0,0,1-1,1.872ZM7,9.5V7.792a.249.249,0,0,1,.369-.219A9.691,9.691,0,0,0,12,8.75a9.683,9.683,0,0,0,4.631-1.178.25.25,0,0,1,.369.22V9.5a5,5,0,0,1-10,0Z"/><circle cx="14" cy="10.001" r="1"/><circle cx="10" cy="10.001" r="1"/><path d="M13.077,12.132h-2a.639.639,0,0,0-.3,1.2,2.3,2.3,0,0,0,.437.181,2.967,2.967,0,0,0,.868.126,3.016,3.016,0,0,0,.868-.125,2.365,2.365,0,0,0,.439-.182.64.64,0,0,0-.307-1.2Z"/></svg>