<svg xmlns="http://www.w3.org/2000/svg" viewBox="0 0 24 24"><title>police-rotating-light</title><path d="M23,11.25H20.5a1,1,0,0,0,0,2H23a1,1,0,0,0,0-2Z"/><path d="M19,7.25a1,1,0,0,0,.707-.293l2-2a1,1,0,1,0-1.414-1.414l-2,2A1,1,0,0,0,19,7.25Z"/><path d="M4.5,11.75a1,1,0,0,0-1-1H1a1,1,0,0,0,0,2H3.5A1,1,0,0,0,4.5,11.75Z"/><path d="M4.293,6.957A1,1,0,0,0,5.707,5.543l-2-2A1,1,0,0,0,2.293,4.957Z"/><path d="M12,5.25a1,1,0,0,0,1-1v-3a1,1,0,0,0-2,0v3A1,1,0,0,0,12,5.25Z"/><path d="M5.125,18.709a.5.5,0,0,0,.5.541H10.75a.5.5,0,0,0,.5-.5V17.263a.25.25,0,0,0-.139-.224,2,2,0,1,1,1.778,0,.25.25,0,0,0-.139.224V18.75a.5.5,0,0,0,.5.5h5.127a.5.5,0,0,0,.5-.541l-.711-8.686a2.49,2.49,0,0,0-2.49-2.273H8.326a2.49,2.49,0,0,0-2.49,2.278Z"/><path d="M19,20.75H5a2,2,0,0,0-2,2v.5a.5.5,0,0,0,.5.5h17a.5.5,0,0,0,.5-.5v-.5A2,2,0,0,0,19,20.75Z"/></svg>