<svg xmlns="http://www.w3.org/2000/svg" viewBox="0 0 24 24"><title>police-rotating-light-1</title><path d="M12,5.75a1,1,0,0,0,1-1v-3a1,1,0,0,0-2,0v3A1,1,0,0,0,12,5.75Z"/><path d="M18.379,7.871a1,1,0,0,0,.707-.293l2.121-2.121a1,1,0,1,0-1.414-1.414L17.672,6.164a1,1,0,0,0,.707,1.707Z"/><path d="M23,11.75H20.5a1,1,0,0,0,0,2H23a1,1,0,0,0,0-2Z"/><path d="M4.914,7.578A1,1,0,1,0,6.328,6.164L4.207,4.043A1,1,0,0,0,2.793,5.457Z"/><path d="M4.5,12.75a1,1,0,0,0-1-1H1a1,1,0,0,0,0,2H3.5A1,1,0,0,0,4.5,12.75Z"/><path d="M17.327,17.25a.5.5,0,0,0,.5-.543L17.2,9.463A2.5,2.5,0,0,0,14.717,7.25H9.283A2.5,2.5,0,0,0,6.8,9.478l-.623,7.229a.5.5,0,0,0,.129.381.5.5,0,0,0,.369.162Z"/><path d="M17,18.75H7a2.5,2.5,0,0,0-2.5,2.5v.5A1.5,1.5,0,0,0,6,23.25H18a1.5,1.5,0,0,0,1.5-1.5v-.5A2.5,2.5,0,0,0,17,18.75Z"/></svg>