<svg xmlns="http://www.w3.org/2000/svg" viewBox="0 0 24 24"><title>police-man-spy-2</title><path d="M12,18.116a.489.489,0,0,0-.477.379v0L10.3,23.387V23.4a.49.49,0,0,0,.478.594h2.449a.491.491,0,0,0,.383-.184.485.485,0,0,0,.1-.41v-.007L12.478,18.5v0A.489.489,0,0,0,12,18.116Z"/><path d="M7.705,17.52c-.541.1-1.033.224-1.5.355a.248.248,0,0,0-.16.143L4.815,21a.244.244,0,0,0,.079.288l3.512,2.63.011.009a.247.247,0,0,0,.159.058h.477a.491.491,0,0,0,.48-.587l0-.006L8.275,17.9v0A.494.494,0,0,0,7.705,17.52Z"/><path d="M3.852,21.676a.266.266,0,0,1-.031-.026.49.49,0,0,1-.111-.537l.938-2.277a.245.245,0,0,0-.32-.32,11.924,11.924,0,0,0-2.646,1.478,2.409,2.409,0,0,0-.947,1.937V23.5a.489.489,0,0,0,.489.49H6.363a.245.245,0,0,0,.229-.158.242.242,0,0,0-.087-.285Z"/><path d="M19.185,21l-1.229-2.986a.248.248,0,0,0-.16-.143c-.468-.13-.96-.253-1.5-.355a.493.493,0,0,0-.569.379v0L14.469,23.4l0,.006a.491.491,0,0,0,.48.587h.477a.247.247,0,0,0,.159-.058l.011-.009,3.512-2.63A.244.244,0,0,0,19.185,21Z"/><path d="M22.317,20a11.863,11.863,0,0,0-2.645-1.478.245.245,0,0,0-.32.319l.937,2.277a.488.488,0,0,1-.11.537.266.266,0,0,1-.031.026L17.5,23.546a.244.244,0,0,0,.142.443h5.138a.49.49,0,0,0,.49-.49V21.931A2.406,2.406,0,0,0,22.317,20Z"/><path d="M19.437,14.444a.125.125,0,0,0-.134-.163,6.209,6.209,0,0,1-1.662-.04.251.251,0,0,1-.153-.4A6.945,6.945,0,0,0,19,9.512V8.386a.25.25,0,0,1,.25-.25H20a1,1,0,1,0,0-2h-.982a.25.25,0,0,1-.245-.2C18.38,3.885,17.493,1.406,16.108.4A1.994,1.994,0,0,0,14.586.041a2.057,2.057,0,0,0-1.354.873,1.555,1.555,0,0,1-2.472,0A2.057,2.057,0,0,0,9.407.041,2,2,0,0,0,7.884.4C6.5,1.406,5.612,3.885,5.223,5.932a.25.25,0,0,1-.245.2H4a1,1,0,1,0,0,2h.75a.25.25,0,0,1,.25.25V9.512A6.945,6.945,0,0,0,6.5,13.84a.248.248,0,0,1,.038.243.251.251,0,0,1-.19.158,6.212,6.212,0,0,1-1.662.04.126.126,0,0,0-.135.163c.23.577,1.268,2.318,5.441,2.318a2.275,2.275,0,0,0,1.8-.926.253.253,0,0,1,.2-.1.25.25,0,0,1,.2.1,2.275,2.275,0,0,0,1.8.926C18.169,16.762,19.208,15.021,19.437,14.444ZM16.5,9.356a1.633,1.633,0,0,1-1.18.44,2.73,2.73,0,0,1-2.493-1.615.25.25,0,0,1,.237-.33H16.76a.253.253,0,0,1,.187.084.248.248,0,0,1,.061.2A2.033,2.033,0,0,1,16.5,9.356ZM6.984,8.13a.251.251,0,0,1,.248-.279h3.694a.25.25,0,0,1,.237.33A2.729,2.729,0,0,1,8.671,9.8a1.633,1.633,0,0,1-1.181-.44A2.039,2.039,0,0,1,6.984,8.13ZM13.5,11.762a1.991,1.991,0,0,0-1.333.509.249.249,0,0,1-.333,0,1.992,1.992,0,0,0-1.334-.51A2.464,2.464,0,0,0,8.417,13h0a4.837,4.837,0,0,1-.99-1.5.25.25,0,0,1,.3-.337,3.267,3.267,0,0,0,.943.137,4.448,4.448,0,0,0,3.143-1.373.249.249,0,0,1,.364,0A4.448,4.448,0,0,0,15.322,11.3a3.266,3.266,0,0,0,.942-.137.25.25,0,0,1,.3.337,4.837,4.837,0,0,1-.99,1.5h0A2.466,2.466,0,0,0,13.5,11.762Z"/></svg>