<svg xmlns="http://www.w3.org/2000/svg" viewBox="0 0 24 24"><title>police-man-3</title><path d="M.5,23.5A.5.5,0,0,0,1,24H23a.5.5,0,0,0,.5-.5V21.394a2.464,2.464,0,0,0-.967-1.977C21.105,18.328,17.838,16.5,12,16.5S2.9,18.328,1.466,19.417A2.466,2.466,0,0,0,.5,21.394Zm14.25-3.07V19.5a.25.25,0,0,1,.25-.25h3a.25.25,0,0,1,.25.25v.93a2.247,2.247,0,0,1-1,1.872l-.609.406a.251.251,0,0,1-.278,0l-.609-.406A2.247,2.247,0,0,1,14.75,20.43Z"/><path d="M19.1,6a.249.249,0,0,0,.242-.311,7.582,7.582,0,0,0-14.684,0A.249.249,0,0,0,4.9,6ZM12.079,4.737a.247.247,0,0,1-.158,0A2.724,2.724,0,0,1,10.25,2a.25.25,0,0,1,.25-.25h3a.25.25,0,0,1,.25.25A2.724,2.724,0,0,1,12.079,4.737Z"/><path d="M12,16.5a7.008,7.008,0,0,0,7-7V9.207A.247.247,0,0,1,19.117,9a1.356,1.356,0,0,0,.446-.436,1.489,1.489,0,0,0,.179-1.154l-.055-.217A.248.248,0,0,0,19.445,7H4.555a.248.248,0,0,0-.242.189l-.055.217h0A1.489,1.489,0,0,0,4.437,8.56,1.356,1.356,0,0,0,4.883,9,.247.247,0,0,1,5,9.207V9.5A7.008,7.008,0,0,0,12,16.5Zm0-2A5,5,0,0,1,7.018,9.866a.251.251,0,0,1,.081-.2A.248.248,0,0,1,7.307,9.6,29.82,29.82,0,0,0,12,10a29.82,29.82,0,0,0,4.693-.4.245.245,0,0,1,.208.062.251.251,0,0,1,.081.2A5,5,0,0,1,12,14.5Z"/><path d="M13,11.861H11a.639.639,0,0,0-.3,1.2,2.354,2.354,0,0,0,.434.179,2.964,2.964,0,0,0,.869.127,3.024,3.024,0,0,0,.87-.125,2.444,2.444,0,0,0,.435-.182.639.639,0,0,0-.3-1.2Z"/></svg>