<svg xmlns="http://www.w3.org/2000/svg" viewBox="0 0 24 24"><title>police-man-2</title><path d="M23.5,21.394a2.462,2.462,0,0,0-.967-1.977C21.106,18.328,17.839,16.5,12,16.5S2.894,18.328,1.467,19.417A2.462,2.462,0,0,0,.5,21.394V23.5A.5.5,0,0,0,1,24H23a.5.5,0,0,0,.5-.5Zm-6.639,1.565-.609-.406a2.247,2.247,0,0,1-1-1.872v-.93a.25.25,0,0,1,.25-.25h3a.25.25,0,0,1,.25.25v.93a2.246,2.246,0,0,1-1,1.872l-.609.406a.251.251,0,0,1-.278,0Z"/><path d="M19,9.5V8.189a.25.25,0,0,1,.211-.247c.848-.133,1.686-.284,2.506-.466a1,1,0,0,0,.759-1.193,1.041,1.041,0,0,0-1.193-.759,44.346,44.346,0,0,1-18.566,0,.967.967,0,0,0-.646.09.982.982,0,0,0-.547.669,1,1,0,0,0,.759,1.193c.82.182,1.658.333,2.506.466A.25.25,0,0,1,5,8.189V9.5a7,7,0,0,0,14,0Zm-3.5,1.75A1.752,1.752,0,0,1,13.75,9.5c0-.452,0-.75,1.75-.75a4.9,4.9,0,0,1,1.323.121A.25.25,0,0,1,17,9.11V9.5a4.946,4.946,0,0,1-.107,1,.24.24,0,0,1-.052.109A1.739,1.739,0,0,1,15.5,11.25Zm-8.341-.638a.245.245,0,0,1-.052-.109A4.946,4.946,0,0,1,7,9.5V9.11a.25.25,0,0,1,.177-.239A4.9,4.9,0,0,1,8.5,8.75c1.75,0,1.75.3,1.75.75a1.743,1.743,0,0,1-3.091,1.112ZM12,14.5a4.934,4.934,0,0,1-3.368-1.336.25.25,0,0,1,.155-.433A3.259,3.259,0,0,0,11.7,9.984a.253.253,0,0,1,.143-.183.369.369,0,0,1,.324,0,.25.25,0,0,1,.143.183,3.26,3.26,0,0,0,2.908,2.747.25.25,0,0,1,.155.433A4.934,4.934,0,0,1,12,14.5Z"/><path d="M17.741,4.878a.256.256,0,0,0,.174-.105.251.251,0,0,0,.038-.2l-.429-1.861A3.485,3.485,0,0,0,14.113,0H9.887A3.485,3.485,0,0,0,6.476,2.713l-.429,1.86a.251.251,0,0,0,.211.3A45.494,45.494,0,0,0,17.741,4.878Zm-5.629-.427a.252.252,0,0,1-.224,0,2.9,2.9,0,0,1-1.382-2.69.252.252,0,0,1,.069-.184.25.25,0,0,1,.18-.077h2.49a.25.25,0,0,1,.18.077.252.252,0,0,1,.069.184A2.9,2.9,0,0,1,12.112,4.451Z"/></svg>