<svg xmlns="http://www.w3.org/2000/svg" viewBox="0 0 24 24"><title>police-woman-5</title><path d="M21.026,18.27,16.14,17.035a.5.5,0,0,0-.409.075,8.168,8.168,0,0,1-2.6,1.228.5.5,0,0,0-.377.485V23.5a.5.5,0,0,0,.5.5H23.5a.5.5,0,0,0,.5-.5v-1A4.531,4.531,0,0,0,21.026,18.27ZM19,20v.43a2,2,0,0,1-.891,1.664L17.5,22.5l-.609-.406A2,2,0,0,1,16,20.43V20a.5.5,0,0,1,.5-.5h2A.5.5,0,0,1,19,20Z"/><path d="M11.25,18.832a.5.5,0,0,0-.38-.485,8.115,8.115,0,0,1-2.636-1.233.5.5,0,0,0-.409-.074l-4.9,1.247A4.519,4.519,0,0,0,0,22.5v1a.5.5,0,0,0,.5.5H10.75a.5.5,0,0,0,.5-.5Z"/><path d="M12.741,12.328a1.7,1.7,0,0,1-.811.178,1.9,1.9,0,0,1-.823-.18.75.75,0,0,0-.711,1.321,3.435,3.435,0,0,0,3.06,0,.75.75,0,1,0-.715-1.318Z"/><path d="M10.992,10.026a.751.751,0,0,0-.055-1.059,2.1,2.1,0,0,0-2.636,0,.75.75,0,1,0,1.006,1.113.63.63,0,0,1,.626,0A.749.749,0,0,0,10.992,10.026Z"/><path d="M12.866,8.968a.75.75,0,1,0,1.006,1.113.63.63,0,0,1,.626,0,.75.75,0,1,0,1-1.115A2.1,2.1,0,0,0,12.866,8.968Z"/><path d="M12,7.464A42.266,42.266,0,0,0,22.163,6.232a.75.75,0,0,0-.326-1.464c-1.2.267-2.419.467-3.641.634l-.337-2.39A3.516,3.516,0,0,0,14.394,0H9.606A3.516,3.516,0,0,0,6.141,3.012L5.8,5.4c-1.222-.167-2.439-.367-3.641-.634a.75.75,0,0,0-.326,1.464A42.284,42.284,0,0,0,12,7.464ZM10,2.93V2.5a.5.5,0,0,1,.5-.5h3a.5.5,0,0,1,.5.5v.43a2.5,2.5,0,0,1-1.113,2.08l-.61.406a.5.5,0,0,1-.554,0l-.61-.406A2.5,2.5,0,0,1,10,2.93Z"/><path d="M8.132,15.387A6.6,6.6,0,0,0,12,17.25a6.6,6.6,0,0,0,3.868-1.863,2.076,2.076,0,0,0,.909.864c1.832.886,4.069-.784,4.612-1.458a.5.5,0,0,0-.231-.788,3.057,3.057,0,0,1-1.674-1.671,7.678,7.678,0,0,1-.531-1.452,3.121,3.121,0,0,0,.3-1.243,1.964,1.964,0,0,0-.692-1.634c-.416.058-.831.123-1.249.17a.747.747,0,0,0,.338.995.634.634,0,0,1,.1.44,1.281,1.281,0,0,1-.557,1.1,1.75,1.75,0,0,0-1,1.306C15.816,14.26,13.029,15.75,12,15.75s-3.816-1.49-4.191-3.738a1.75,1.75,0,0,0-1-1.306,1.281,1.281,0,0,1-.557-1.1.634.634,0,0,1,.1-.44.747.747,0,0,0,.338-.995c-.418-.047-.833-.112-1.249-.17a1.964,1.964,0,0,0-.692,1.634,3.121,3.121,0,0,0,.3,1.243,7.535,7.535,0,0,1-.545,1.48,3.041,3.041,0,0,1-1.66,1.643.5.5,0,0,0-.231.788c.537.666,2.757,2.324,4.584,1.469A2.074,2.074,0,0,0,8.132,15.387Z"/></svg>