<svg xmlns="http://www.w3.org/2000/svg" viewBox="0 0 24 24"><title>police-woman-spy-1</title><path d="M17.146,15.714a5.4,5.4,0,0,0,1.317.161,3.8,3.8,0,0,0,2.921-1.12.5.5,0,0,0-.231-.8c-1.352-.434-2.105-2.169-2.439-3.885.023-.23.036-.462.036-.7v-.25H20a.744.744,0,0,0,.551-1.25A.742.742,0,0,0,20,7.626H4a.765.765,0,0,0-.75.75.75.75,0,0,0,.75.75H5.25v.25c0,.221.012.439.033.655C4.947,11.741,4.2,13.466,2.847,13.9a.5.5,0,0,0-.231.8,3.8,3.8,0,0,0,2.921,1.12,5.351,5.351,0,0,0,1.317-.161,3.092,3.092,0,0,0,1.358-.7,6.731,6.731,0,0,0,7.542.023A3.03,3.03,0,0,0,17.146,15.714ZM6.75,9.376v-.25h10.5v.25a5.25,5.25,0,0,1-10.5,0Z"/><path d="M13.077,11.237h-2a.64.64,0,0,0-.3,1.2,2.488,2.488,0,0,0,.436.181,3.289,3.289,0,0,0,.877.125,2.949,2.949,0,0,0,.861-.126,2.408,2.408,0,0,0,.431-.179.639.639,0,0,0-.3-1.2Z"/><path d="M18.6,6.626C18.26,4.4,17.372,1.488,15.965.466A1.738,1.738,0,0,0,14.632.151a1.806,1.806,0,0,0-1.19.769,1.815,1.815,0,0,1-2.884,0A1.805,1.805,0,0,0,9.369.151,1.729,1.729,0,0,0,8.035.466C6.628,1.488,5.74,4.4,5.4,6.626Z"/><path d="M11.512,17.766l-1.25,5.5a.5.5,0,0,0,.488.61h2.5a.5.5,0,0,0,.488-.61l-1.25-5.5A.519.519,0,0,0,11.512,17.766Z"/><path d="M8.5,23.876h.487a.5.5,0,0,0,.388-.185.493.493,0,0,0,.1-.418L8.2,17.156a.5.5,0,0,0-.582-.388c-.552.1-1.054.229-1.531.362a.252.252,0,0,0-.164.146L4.665,20.324a.251.251,0,0,0,.065.282l3.608,3.207A.249.249,0,0,0,8.5,23.876Z"/><path d="M4.5,18.111a.25.25,0,0,0-.327-.326,12.2,12.2,0,0,0-2.7,1.508A2.461,2.461,0,0,0,.5,21.271v2.105a.5.5,0,0,0,.5.5H6.246a.25.25,0,0,0,.166-.437L3.668,21a.5.5,0,0,1-.13-.564Z"/><path d="M15.009,23.876H15.5a.249.249,0,0,0,.166-.063l3.608-3.207a.251.251,0,0,0,.065-.282L18.08,17.276a.248.248,0,0,0-.163-.145c-.478-.134-.98-.259-1.532-.363a.5.5,0,0,0-.582.388L14.52,23.273a.493.493,0,0,0,.1.418A.5.5,0,0,0,15.009,23.876Z"/><path d="M17.754,23.876H23a.5.5,0,0,0,.5-.5V21.271a2.459,2.459,0,0,0-.968-1.977,12.15,12.15,0,0,0-2.7-1.509.251.251,0,0,0-.272.054.248.248,0,0,0-.055.272l.957,2.325a.5.5,0,0,1-.13.564l-2.744,2.439a.25.25,0,0,0,.166.437Z"/></svg>