<svg xmlns="http://www.w3.org/2000/svg" viewBox="0 0 24 24"><title>police-man-1</title><path d="M21.026,18.27l-5-1.263a.251.251,0,0,0-.207.04A7.13,7.13,0,0,1,11.979,18.5a7.123,7.123,0,0,1-3.835-1.449.251.251,0,0,0-.207-.04L2.92,18.287A4.519,4.519,0,0,0,0,22.5v1a.5.5,0,0,0,.5.5h23a.5.5,0,0,0,.5-.5v-1A4.531,4.531,0,0,0,21.026,18.27Zm-4.3,5.146-.61-.406A2.5,2.5,0,0,1,15,20.93V20a.5.5,0,0,1,.5-.5h3a.5.5,0,0,1,.5.5v.93a2.5,2.5,0,0,1-1.113,2.08l-.61.406a.5.5,0,0,1-.554,0Z"/><path d="M10.521,13.386a2.767,2.767,0,0,0,.5.214,3.35,3.35,0,0,0,1,.15h0a3.374,3.374,0,0,0,1-.148,2.7,2.7,0,0,0,.5-.216.75.75,0,0,0-.734-1.309,1.14,1.14,0,0,1-.222.094,1.815,1.815,0,0,1-.544.079h0a1.846,1.846,0,0,1-.548-.08,1.161,1.161,0,0,1-.224-.094.75.75,0,1,0-.731,1.31Z"/><path d="M20.475,1.658a.5.5,0,0,0-.582-.646c-2.75.6-5.6,1.036-7.542-.869a.5.5,0,0,0-.7,0c-1.941,1.906-4.791,1.473-7.542.869a.5.5,0,0,0-.582.646L5.34,6.614a2.656,2.656,0,0,0,.406.841.251.251,0,0,1-.1.371l-.006,0a1.886,1.886,0,0,0-.934,1.81,2.731,2.731,0,0,0,1.439,2.433.252.252,0,0,1,.144.187c.511,3.048,4.021,4.991,5.686,4.991s5.176-1.943,5.687-4.989a.254.254,0,0,1,.145-.189A2.732,2.732,0,0,0,19.25,9.638a1.885,1.885,0,0,0-.936-1.809.236.236,0,0,1-.085-.349,2.732,2.732,0,0,0,.423-.853ZM9.776,4.086v-.93a.5.5,0,0,1,.5-.5h3a.5.5,0,0,1,.5.5v.93a2.5,2.5,0,0,1-1.113,2.08l-.609.406a.5.5,0,0,1-.555,0l-.609-.406A2.492,2.492,0,0,1,9.776,4.086Zm7.415,6.62a1.75,1.75,0,0,0-1,1.3c-.377,2.249-3.175,3.739-4.208,3.739s-3.83-1.49-4.207-3.738a1.747,1.747,0,0,0-1-1.306,1.275,1.275,0,0,1-.559-1.1.618.618,0,0,1,.105-.439.724.724,0,0,0,.369-.433A.25.25,0,0,1,7.049,8.6a6.92,6.92,0,0,0,.845.416A10.874,10.874,0,0,0,12,9.75a10.866,10.866,0,0,0,4.069-.724,6.934,6.934,0,0,0,.847-.41.247.247,0,0,1,.212-.017.249.249,0,0,1,.149.152.732.732,0,0,0,.368.42.615.615,0,0,1,.105.438A1.281,1.281,0,0,1,17.191,10.706Z"/></svg>