<svg xmlns="http://www.w3.org/2000/svg" viewBox="0 0 24 24"><title>police-woman-3</title><path d="M23.5,23.5V21.4a2.461,2.461,0,0,0-.967-1.978C21.105,18.327,17.838,16.5,12,16.5S2.9,18.327,1.467,19.417A2.461,2.461,0,0,0,.5,21.4V23.5A.5.5,0,0,0,1,24H23A.5.5,0,0,0,23.5,23.5Zm-6.639-.541-.609-.405a2.249,2.249,0,0,1-1-1.872v-.931a.25.25,0,0,1,.25-.25h3a.25.25,0,0,1,.25.25v.931a2.246,2.246,0,0,1-1,1.872l-.609.405a.251.251,0,0,1-.278,0Z"/><path d="M17.854,5.363a.249.249,0,0,0,.211-.3l-.541-2.346A3.484,3.484,0,0,0,14.113,0H9.887A3.484,3.484,0,0,0,6.476,2.713L5.935,5.059a.249.249,0,0,0,.211.3A45.429,45.429,0,0,0,17.854,5.363Zm-5.742-.912a.252.252,0,0,1-.224,0,2.9,2.9,0,0,1-1.382-2.69.252.252,0,0,1,.069-.184.25.25,0,0,1,.18-.077h2.49a.25.25,0,0,1,.18.077.252.252,0,0,1,.069.184A2.9,2.9,0,0,1,12.112,4.451Z"/><path d="M13.077,12.111h-2a.64.64,0,0,0-.307,1.2,2.355,2.355,0,0,0,.438.182,3.017,3.017,0,0,0,.869.127,2.977,2.977,0,0,0,.866-.125,2.375,2.375,0,0,0,.441-.183.64.64,0,0,0-.307-1.2Z"/><path d="M21.337,5.768a44.591,44.591,0,0,1-18.674,0,.777.777,0,0,0-.895.569.75.75,0,0,0,.569.9c.883.2,1.788.354,2.7.492a.249.249,0,0,1,.212.243c.023,1.365.162,5.233-2.4,6.057a.5.5,0,0,0-.231.8,3.8,3.8,0,0,0,2.921,1.12,4.156,4.156,0,0,0,2.539-.74.251.251,0,0,1,.291-.014,6.734,6.734,0,0,0,7.228.024.251.251,0,0,1,.294.019A4.27,4.27,0,0,0,18.463,16a3.8,3.8,0,0,0,2.921-1.12.5.5,0,0,0-.231-.8c-2.55-.819-2.434-4.927-2.406-6.118a.25.25,0,0,1,.212-.242c.915-.138,1.821-.3,2.7-.492a.75.75,0,0,0,.569-.9A.781.781,0,0,0,21.337,5.768ZM6.75,9.25c0-.451,0-.75,1.75-.75s1.75.3,1.75.75a1.75,1.75,0,0,1-3.5,0ZM15.5,8.5c1.75,0,1.75.3,1.75.75a1.75,1.75,0,0,1-3.5,0C13.75,8.8,13.75,8.5,15.5,8.5ZM8.008,12.9a.251.251,0,0,1,.217-.411A2.493,2.493,0,0,0,8.5,12.5a3.243,3.243,0,0,0,3.2-2.76.248.248,0,0,1,.147-.191.363.363,0,0,1,.312,0,.248.248,0,0,1,.147.191,3.243,3.243,0,0,0,3.2,2.76,2.493,2.493,0,0,0,.275-.015.251.251,0,0,1,.217.411,5.225,5.225,0,0,1-7.984,0Z"/></svg>