<svg xmlns="http://www.w3.org/2000/svg" viewBox="0 0 24 24"><title>police-woman-spy-1</title><path d="M2.842,15.505a.5.5,0,0,0-.231.789A5.053,5.053,0,0,0,6.151,18a2.135,2.135,0,0,0,1.8-.842,6.741,6.741,0,0,0,4.11,2.094A6.7,6.7,0,0,0,16.1,17.231,2.156,2.156,0,0,0,17.85,18a5.055,5.055,0,0,0,3.54-1.7.5.5,0,0,0-.231-.789,3.844,3.844,0,0,1-2.092-2.733,3.143,3.143,0,0,0,.246-1.133c0-.055,0-.254,0-.3a2.046,2.046,0,0,0-2-2.084h-2.5a2.01,2.01,0,0,0-1.91,1.5h-1.68a2.01,2.01,0,0,0-1.91-1.5h-2.5a2.046,2.046,0,0,0-2,2.084c0,.053,0,.252,0,.3a3.117,3.117,0,0,0,.175.948C4.64,13.819,4.005,15.119,2.842,15.505Zm6.971-4.171a1.841,1.841,0,0,1-1.75,1.916,1.841,1.841,0,0,1-1.75-1.916.547.547,0,0,1,.5-.584h2.5A.548.548,0,0,1,9.813,11.334Zm2.25,6.416a5.531,5.531,0,0,1-3.968-3,3.276,3.276,0,0,0,3.084-2.5h1.768a3.276,3.276,0,0,0,3.085,2.5A5.53,5.53,0,0,1,12.063,17.75Zm5.25-7a.548.548,0,0,1,.5.584,1.841,1.841,0,0,1-1.75,1.916,1.841,1.841,0,0,1-1.75-1.916.547.547,0,0,1,.5-.584Z"/><path d="M1.9,7.372A46.851,46.851,0,0,0,12.063,8.481,46.838,46.838,0,0,0,22.226,7.372.75.75,0,0,0,21.9,5.908c-1.194.266-2.4.465-3.616.632L16.636,1.327A2,2,0,0,0,13.761.264L12.56.95a1.007,1.007,0,0,1-.993,0l-1.2-.686A2,2,0,0,0,7.485,1.345L5.842,6.54c-1.214-.167-2.423-.366-3.616-.632A.75.75,0,1,0,1.9,7.372Z"/><path d="M23.984,23.374A4.507,4.507,0,0,0,21.2,20.29l-4.45-1.755a.5.5,0,0,0-.681.419l-.413,4.5a.5.5,0,0,0,.5.546H23.5a.5.5,0,0,0,.484-.626Z"/><path d="M12.439,20.511a.52.52,0,0,0-.877,0l-1.5,2.75A.5.5,0,0,0,10.5,24h3a.5.5,0,0,0,.439-.739Z"/><path d="M12.8,14.329a1.964,1.964,0,0,1-1.625,0,.751.751,0,0,0-.721,1.317,3.433,3.433,0,0,0,3.067,0,.751.751,0,0,0-.721-1.317Z"/><path d="M7.815,18.575a.5.5,0,0,0-.444-.041L2.856,20.285A4.536,4.536,0,0,0,.017,23.372.5.5,0,0,0,.5,24H7.972a.5.5,0,0,0,.5-.546l-.42-4.5A.5.5,0,0,0,7.815,18.575Z"/></svg>