<svg id="Bold" xmlns="http://www.w3.org/2000/svg" viewBox="0 0 24 24"><title>pollution-water</title><path d="M.866,11.628a1.252,1.252,0,0,0,1.768,0l.646-.647A.75.75,0,0,0,2.22,9.921l-.116.117a.5.5,0,0,1-.708,0L1.28,9.921A.75.75,0,0,0,.22,10.982Z"/><path d="M19.5,2.514a1.251,1.251,0,0,0,1.768,0l.646-.646A.75.75,0,0,0,20.854.807l-.117.116a.5.5,0,0,1-.707,0L19.914.807a.75.75,0,0,0-1.06,1.061Z"/><path d="M21.6,14.058a.5.5,0,0,1-.708,0l-.116-.116A.75.75,0,0,0,19.72,15l.646.646a1.253,1.253,0,0,0,1.768,0L22.78,15a.75.75,0,0,0-1.06-1.061Z"/><path d="M6.844,12.945A.5.5,0,0,1,7,13.307v6.324A.5.5,0,0,0,7.167,20a1.668,1.668,0,0,0,1.167.482c.755,0,1.215-.473,1.737-1.09a2.525,2.525,0,0,1,1.938-.882h0a2.47,2.47,0,0,1,1.9.858c.551.652,1,1.114,1.758,1.114a1.688,1.688,0,0,0,1.165-.48A.5.5,0,0,0,17,19.631V13.307a.5.5,0,0,1,.156-.362,7.5,7.5,0,1,0-10.312,0Zm3.906-.931a.75.75,0,0,1-1.5,0v-1a.75.75,0,0,1,1.5,0Zm4,1a.75.75,0,0,1-1.5,0v-2a.75.75,0,0,1,1.5,0ZM12,2.014a5.506,5.506,0,0,1,5.5,5.5,5.409,5.409,0,0,1-.309,1.8.25.25,0,0,1-.447.051,1.45,1.45,0,0,0-.71-.586,11.044,11.044,0,0,0-8.068,0,1.45,1.45,0,0,0-.71.586.25.25,0,0,1-.447-.051,5.409,5.409,0,0,1-.309-1.8A5.506,5.506,0,0,1,12,2.014Z"/><path d="M23,21.986a3.745,3.745,0,0,1-2.9-1.646,1.056,1.056,0,0,0-1.546.023,3.72,3.72,0,0,1-2.884,1.623,3.743,3.743,0,0,1-2.9-1.646,1.055,1.055,0,0,0-1.547.024,3.72,3.72,0,0,1-2.883,1.622,3.745,3.745,0,0,1-2.9-1.646,1.055,1.055,0,0,0-1.547.024A3.718,3.718,0,0,1,1,21.986a1,1,0,0,0,0,2,5.126,5.126,0,0,0,3.346-1.243.5.5,0,0,1,.639,0,5.126,5.126,0,0,0,6.694,0,.5.5,0,0,1,.639,0,5.126,5.126,0,0,0,6.694,0,.5.5,0,0,1,.64,0A5.126,5.126,0,0,0,23,23.986a1,1,0,0,0,0-2Z"/></svg>