<svg id="Bold" xmlns="http://www.w3.org/2000/svg" viewBox="0 0 24 24"><title>pollution-fish-alternate</title><path d="M4.985,12.165a5.745,5.745,0,0,0,.78.55.252.252,0,0,0,.379-.192,12.434,12.434,0,0,1,.231-1.45.505.505,0,0,0-.162-.488,6.994,6.994,0,0,1-.783-.822,1.055,1.055,0,0,0-1.547.024A3.718,3.718,0,0,1,1,11.409a1,1,0,0,0,0,2,5.116,5.116,0,0,0,3.345-1.244A.5.5,0,0,1,4.985,12.165Z"/><path d="M23,11.409a3.745,3.745,0,0,1-2.9-1.646.864.864,0,0,0-.244-.2.5.5,0,0,0-.731.33,9.7,9.7,0,0,1-.759,2.177.25.25,0,0,0,.374.311c.1-.071.188-.144.275-.217a.5.5,0,0,1,.64,0A5.126,5.126,0,0,0,23,13.409a1,1,0,0,0,0-2Z"/><path d="M17.4,6.149c-.673-.722-4.747-1.156-7.513,1.421a8.512,8.512,0,0,0-2.31,6.085.5.5,0,0,1-.441.492l-1.8.213a1,1,0,0,0-.614,1.675l1.911,2.053A1,1,0,0,0,8.346,17.6l.34-1.773a.5.5,0,0,1,.524-.4c.219.015.469.025.743.025a8.048,8.048,0,0,0,5.5-1.892c2.768-2.577,2.621-6.677,1.948-7.4ZM15.4,9.1a.5.5,0,0,1-.476.347.514.514,0,0,1-.153-.024l-.122-.04a.5.5,0,0,0-.629.324l-.04.122a.5.5,0,0,1-.476.347.514.514,0,0,1-.153-.024.5.5,0,0,1-.323-.629l.04-.123a.5.5,0,0,0-.323-.629l-.123-.04a.5.5,0,1,1,.307-.952l.122.039a.5.5,0,0,0,.629-.322l.04-.122a.5.5,0,1,1,.952.305l-.04.123a.5.5,0,0,0,.032.382.494.494,0,0,0,.291.247l.123.04A.5.5,0,0,1,15.4,9.1Z"/></svg>