<svg id="Bold" xmlns="http://www.w3.org/2000/svg" viewBox="0 0 24 24"><title>pollution-pm10</title><path d="M18.253,5.532a1,1,0,0,0-1.125.477l-1.16,2.063a.251.251,0,0,1-.436,0l-1.16-2.063A1,1,0,0,0,12.5,6.5v8a1,1,0,1,0,2,0V11.271a.25.25,0,0,1,.468-.123.9.9,0,0,0,1.564,0,.25.25,0,0,1,.468.123V14.5a1,1,0,1,0,2,0v-8A1,1,0,0,0,18.253,5.532Z"/><path d="M7,5.5a1,1,0,0,0-1,1v8a1,1,0,1,0,2,0V12a.5.5,0,0,1,.5-.5H9a3,3,0,0,0,0-6Zm3,3a1,1,0,0,1-1,1H8.5A.5.5,0,0,1,8,9V8a.5.5,0,0,1,.5-.5H9A1,1,0,0,1,10,8.5Z"/><path d="M18.25,22a.25.25,0,0,1-.25-.25v-3.5a1.25,1.25,0,0,0-2-1l-1.2.9a.75.75,0,0,0,.9,1.2l.4-.3a.25.25,0,0,1,.4.2v2.5a.25.25,0,0,1-.25.25.75.75,0,0,0,0,1.5h2a.75.75,0,0,0,0-1.5Z"/><path d="M21.75,17a2.252,2.252,0,0,0-2.25,2.25v2a2.25,2.25,0,0,0,4.5,0v-2A2.252,2.252,0,0,0,21.75,17Zm.75,4.25a.75.75,0,0,1-1.5,0v-2a.75.75,0,0,1,1.5,0Z"/><path d="M12.41,18.993C12.282,19,12.147,19,12,19a11.867,11.867,0,0,1-3.287-.458,1.024,1.024,0,0,0-.684.038L4.407,20.133a.251.251,0,0,1-.315-.356l1.1-1.892a.993.993,0,0,0-.22-1.269A7.558,7.558,0,0,1,2,10.75C2,6.2,6.486,2.5,12,2.5s10,3.7,10,8.25a6.914,6.914,0,0,1-.529,2.648.99.99,0,0,0,.406,1.228,1,1,0,0,0,1.445-.478A8.877,8.877,0,0,0,24,10.75C24,5.1,18.617.5,12,.5S0,5.1,0,10.75a9.3,9.3,0,0,0,2.776,6.563.5.5,0,0,1,.083.609L1.2,20.763A1.49,1.49,0,0,0,2.486,23a1.507,1.507,0,0,0,.589-.121L8.34,20.623a.5.5,0,0,1,.32-.025A13.937,13.937,0,0,0,12,21c.148,0,.286,0,.417-.006a1.025,1.025,0,0,0,.981-1.185A.967.967,0,0,0,12.41,18.993Z"/></svg>