<svg id="Bold" xmlns="http://www.w3.org/2000/svg" viewBox="0 0 24 24"><title>pollution-drop-skull</title><circle cx="10" cy="14.495" r="1"/><circle cx="14" cy="14.495" r="1"/><path d="M12.4.193a.518.518,0,0,0-.8,0C11.271.63,3.5,10.96,3.5,15.5a8.5,8.5,0,0,0,17,0C20.5,10.96,12.729.63,12.4.193Zm2.325,17.578a.5.5,0,0,0-.224.417V19.5a.5.5,0,1,1-1,0v-1a.5.5,0,0,0-1,0v1a.5.5,0,0,1-1,0v-1a.5.5,0,0,0-1,0v1a.5.5,0,1,1-1,0v-1.3a.5.5,0,0,0-.223-.418A3.772,3.772,0,0,1,7.5,14.5a4.5,4.5,0,1,1,9,0A3.773,3.773,0,0,1,14.724,17.771Z"/></svg>