<svg id="Bold" xmlns="http://www.w3.org/2000/svg" viewBox="0 0 24 24"><title>pollution-o2-message</title><path d="M17.523,18.359A2.18,2.18,0,0,0,18,17a1.75,1.75,0,0,0-3.5,0A.75.75,0,0,0,16,17c0-.275.5-.275.5,0a.68.68,0,0,1-.148.422l-1.687,2.11a.749.749,0,0,0,.585,1.218h2a.75.75,0,0,0,0-1.5.211.211,0,0,1-.165-.343Z"/><path d="M14.75,8.75a3,3,0,0,0-6,0v4a3,3,0,0,0,6,0Zm-2,4a1,1,0,0,1-2,0v-4a1,1,0,0,1,2,0Z"/><path d="M12,.75C5.383.75,0,5.348,0,11a9.305,9.305,0,0,0,2.776,6.563.5.5,0,0,1,.083.609L1.2,21.012a1.488,1.488,0,0,0,1.873,2.117L8.34,20.873a.5.5,0,0,1,.32-.026,13.934,13.934,0,0,0,3.059.4.975.975,0,0,0,.994-1.078,1.038,1.038,0,0,0-1.008-.924,11.755,11.755,0,0,1-2.991-.453,1.021,1.021,0,0,0-.685.038L4.407,20.382a.249.249,0,0,1-.286-.064.252.252,0,0,1-.029-.292l1.1-1.891a.993.993,0,0,0-.22-1.269A7.559,7.559,0,0,1,2,11C2,6.451,6.486,2.75,12,2.75S22,6.451,22,11a7.167,7.167,0,0,1-1.9,4.842.981.981,0,0,0,.008,1.3,1,1,0,0,0,1.5-.01A9.268,9.268,0,0,0,24,11C24,5.348,18.617.75,12,.75Z"/></svg>