<svg id="Bold" xmlns="http://www.w3.org/2000/svg" viewBox="0 0 24 24"><title>pool-player-table</title><circle cx="6.5" cy="3.499" r="2.5"/><path d="M17.479,1.2A1,1,0,1,0,15.521.8L13.381,11.26,10.5,8.378A3,3,0,0,0,8.377,7.5H4a4.005,4.005,0,0,0-4,4v3.61a1.25,1.25,0,1,0,2.5,0v-3.86a.5.5,0,0,1,1,0v11.5a1.25,1.25,0,0,0,2.5,0v-6.14a.5.5,0,0,1,1,0v6.14a1.25,1.25,0,0,0,2.5,0V11.619l3.161,3.161L11.021,22.8a1,1,0,1,0,1.958.4l1.6-7.821a1.487,1.487,0,0,0,.495-2.418Z"/><path d="M23.5,12H18a1,1,0,0,0-1,1v1.5a1,1,0,0,0,1,1h5.5A.5.5,0,0,0,24,15V12.5A.5.5,0,0,0,23.5,12Z"/><path d="M23.5,16.5h-4a.5.5,0,0,0-.38.175.5.5,0,0,0-.114.4l1,6.5A.5.5,0,0,0,20.5,24h3a.5.5,0,0,0,.5-.5V17A.5.5,0,0,0,23.5,16.5Z"/></svg>