<svg id="Bold" xmlns="http://www.w3.org/2000/svg" viewBox="0 0 24 24"><title>power-tools-electric-saw</title><path d="M23.534,18.21A4.968,4.968,0,0,0,22,13.69l-.966-.89a.25.25,0,0,1-.015-.352l.17-.184a2.748,2.748,0,0,0-.16-3.878,2.811,2.811,0,0,0-3.879.159l-.314.342a.222.222,0,0,1-.169.071.484.484,0,0,0-.377.153l-.506.551a.25.25,0,0,1-.353.014L14.693,9a.249.249,0,0,1-.015-.352l.507-.551a1,1,0,1,0-1.468-1.352l-.508.551a.25.25,0,0,1-.352.015L11.388,5.958a.25.25,0,0,1-.015-.352l.507-.551A1,1,0,1,0,10.412,3.7L9.9,4.254a.25.25,0,0,1-.353.014L8.093,2.925a.249.249,0,0,1-.07-.254L8.432,1.28A1,1,0,0,0,6.517.717l-.293.994a.249.249,0,0,1-.266.177,3.648,3.648,0,0,0-2.038.366.251.251,0,0,1-.282-.039l-.733-.674A1,1,0,1,0,1.554,3.009l.719.663a.25.25,0,0,1,.06.283,3.412,3.412,0,0,0-.289,1.506,3.235,3.235,0,0,0,.076.568.25.25,0,0,1-.154.286l-.935.361a1,1,0,0,0,.4,1.929.968.968,0,0,0,.318-.067L3.1,8.015a.251.251,0,0,1,.259.049L4.82,9.409a.249.249,0,0,1,.015.352l-.507.551A1,1,0,0,0,5.8,11.664l.506-.551a.251.251,0,0,1,.353-.015L8.125,12.45a.253.253,0,0,1,.08.173.25.25,0,0,1-.066.18l-.507.55A1,1,0,0,0,9.1,14.706l.507-.551a.251.251,0,0,1,.353-.015l.6.55a.5.5,0,0,1,.1.6,1.5,1.5,0,0,0,.306,1.809l6.713,6.107a3.013,3.013,0,0,0,2.883.67,2.884,2.884,0,0,0,2.053-2.052l.915-3.6Zm-9.981-6.867L12.2,12.811a.5.5,0,0,1-.7.03L7.09,8.785h0L4.52,6.419A1.5,1.5,0,0,1,4.433,4.3h0a1.5,1.5,0,0,1,2.115-.088l2.57,2.367h0l4.4,4.056a.493.493,0,0,1,.161.346A.5.5,0,0,1,13.553,11.343Zm4.7-1.783a1.277,1.277,0,0,1,1.763-.073,1.249,1.249,0,0,1,.072,1.763.5.5,0,0,1-.7.029l-1.1-1.014a.5.5,0,0,1-.029-.7Zm3.336,8.23,0,.021-.9,3.521a.925.925,0,0,1-.686.632,1.02,1.02,0,0,1-.983-.243l0,0-.947-.813a.5.5,0,0,1-.14-.561l1.961-5.008a.474.474,0,0,1,.764-.176A2.96,2.96,0,0,1,21.584,17.79Z"/></svg>