<svg id="Bold" xmlns="http://www.w3.org/2000/svg" viewBox="0 0 24 24"><title>power-tools-circular-saw</title><path d="M16.787,12.625a4.787,4.787,0,1,0-9.574,0,1.5,1.5,0,0,1-1.5,1.5H3.441a.25.25,0,0,0-.231.153,4.775,4.775,0,0,0-.293,1.061A.573.573,0,0,0,3.483,16h1.8a3.4,3.4,0,0,0,.764,1.848,2.632,2.632,0,0,0,.026,3.436.573.573,0,0,0,.876.069l1.273-1.306a7.844,7.844,0,0,0,2.139.867,2.812,2.812,0,0,0,2.7,2.455.571.571,0,0,0,.66-.564v-1.8a3.414,3.414,0,0,0,1.849-.765A2.631,2.631,0,0,0,19,20.215a.573.573,0,0,0,.069-.876l-1.306-1.273a7.825,7.825,0,0,0,.867-2.138,2.378,2.378,0,0,0,2.077-1.445.25.25,0,0,0-.226-.358H18.287A1.5,1.5,0,0,1,16.787,12.625ZM12,16.572a2.286,2.286,0,1,1,2.286-2.286A2.285,2.285,0,0,1,12,16.572Z"/><path d="M12,.623A11.848,11.848,0,0,0,.012,12.026a.574.574,0,0,0,.571.6H5.468a.251.251,0,0,0,.25-.241A6.207,6.207,0,0,1,12,6.338a6.207,6.207,0,0,1,6.282,6.045.25.25,0,0,0,.25.242h4.885a.573.573,0,0,0,.571-.6A11.848,11.848,0,0,0,12,.623Z"/></svg>