<svg id="Bold" xmlns="http://www.w3.org/2000/svg" viewBox="0 0 24 24"><title>pregnancy-eggs</title><path d="M16.5,13c-4.14,0-7.5,2.47-7.5,5.5s3.36,5.5,7.5,5.5S24,21.53,24,18.5,20.636,13,16.5,13Zm0,8.75c-2.379,0-4.25-1.43-4.25-3.25a.75.75,0,0,1,1.5,0c0,.95,1.26,1.75,2.75,1.75s2.75-.8,2.75-1.75a.75.75,0,0,1,1.5,0C20.745,20.32,18.875,21.75,16.5,21.75Z"/><path d="M11.882,1.28A4.888,4.888,0,0,0,7.5.09a9.061,9.061,0,0,0-4.806,2.6C-.235,5.618-.869,9.742,1.275,11.887a4.592,4.592,0,0,0,3.32,1.27,8.609,8.609,0,0,0,5.873-2.684,9.066,9.066,0,0,0,2.6-4.808A4.874,4.874,0,0,0,11.882,1.28Zm-3,7.6c-1.706,1.705-4.049,1.961-5.3.707a.75.75,0,1,1,1.06-1.061c.6.6,2.032.444,3.182-.707,1.054-1.053,1.378-2.511.707-3.181A.75.75,0,0,1,9.584,3.578C10.872,4.867,10.562,7.2,8.877,8.881Z"/></svg>