<svg id="Bold" xmlns="http://www.w3.org/2000/svg" viewBox="0 0 24 24"><title>pregnancy-ultrasound-baby</title><path d="M23.542,15.111a.751.751,0,0,0,.028-1.006l-1.249-1.461a.5.5,0,0,0-.366-.175.5.5,0,0,0-.377.155,13.867,13.867,0,0,1-1.16,1.082.75.75,0,1,1-.959-1.154,12.5,12.5,0,0,0,1.035-.965.8.8,0,0,1,.114-.1.5.5,0,0,0,.213-.347.5.5,0,0,0-.116-.39L19.214,9.007a.5.5,0,0,0-.73-.034,9.984,9.984,0,0,1-2.3,1.625.737.737,0,0,1-.338.081A.75.75,0,0,1,15.51,9.26a10.4,10.4,0,0,0,2.038-1.447.5.5,0,0,0,.048-.7L15.07,4.159a.75.75,0,0,0-.549-.263.724.724,0,0,0-.563.231A3.44,3.44,0,0,1,12,4.54a3.44,3.44,0,0,1-1.958-.413.75.75,0,0,0-1.112.032L6.409,7.108a.5.5,0,0,0,.051.7,13.649,13.649,0,0,0,1.231.985.749.749,0,0,1-.414,1.375.743.743,0,0,1-.414-.125A10.883,10.883,0,0,1,5.515,8.969a.505.505,0,0,0-.371-.139.5.5,0,0,0-.356.175L3.3,10.752a.5.5,0,0,0,.1.738.792.792,0,0,1,.114.1,12.5,12.5,0,0,0,1.035.965.75.75,0,0,1-.959,1.154,13.867,13.867,0,0,1-1.16-1.082.5.5,0,0,0-.743.02L.43,14.105a.751.751,0,0,0,.028,1.006,15.835,15.835,0,0,0,23.084,0ZM10.281,16.648a.741.741,0,0,1-.105-.007,13.047,13.047,0,0,1-3.5-1.009.75.75,0,0,1,.611-1.369,11.562,11.562,0,0,0,3.1.892.75.75,0,0,1-.1,1.493Zm-.444-5.3a.75.75,0,0,1,.35-1.459,9.345,9.345,0,0,0,1.834.215,7.189,7.189,0,0,0,.882-.053.76.76,0,0,1,.833.657.75.75,0,0,1-.656.834,9.1,9.1,0,0,1-1.056.062A7.228,7.228,0,0,1,9.837,11.343Zm5.413,6.3A2.25,2.25,0,1,1,17.5,15.4,2.25,2.25,0,0,1,15.25,17.646Z"/></svg>