<svg id="Bold" xmlns="http://www.w3.org/2000/svg" viewBox="0 0 24 24"><title>pregnancy-sperm-1</title><path d="M18.994,1.257c-2.88,0-4.785,1.148-5.578,2.325a.251.251,0,0,1-.314.087,1.04,1.04,0,0,1-.4-.33,3.048,3.048,0,0,0-2.66-1.259A3.016,3.016,0,0,0,7.57,3.67L7.025,4.684a1,1,0,0,1-1.656.166A2.993,2.993,0,0,0,3.062,3.77H1a1,1,0,0,0,0,2H3.062a1,1,0,0,1,.771.36,3,3,0,0,0,4.953-.5l.546-1.014a1.031,1.031,0,0,1,1.747-.112,3.02,3.02,0,0,0,2.1,1.222.249.249,0,0,1,.182.117c.751,1.21,2.679,2.421,5.637,2.421,2.488,0,5.006-1.2,5.006-3.5C24,2.485,21.421,1.257,18.994,1.257Z"/><path d="M15.539,10.27a5.045,5.045,0,0,0-3.3,1.056.25.25,0,0,1-.326,0,2.936,2.936,0,0,0-2.389-.671C7.412,11,7.605,12.713,6.613,12.877a.967.967,0,0,1-.833-.268,2.939,2.939,0,0,0-2.091-.866H2.5a1,1,0,0,0,0,2H3.689a.956.956,0,0,1,.678.28,2.963,2.963,0,0,0,2.094.867c2.448,0,2.395-2.1,3.383-2.263a.934.934,0,0,1,.8.259,2.905,2.905,0,0,0,.967.635.248.248,0,0,1,.112.091,4.536,4.536,0,0,0,3.812,1.606c1.72,0,3.461-.85,3.461-2.474C19,11.137,17.217,10.27,15.539,10.27Z"/><path d="M13.539,17.8a5.041,5.041,0,0,0-3.31,1.062.251.251,0,0,1-.322,0,2.887,2.887,0,0,0-2.387-.681C5.4,18.527,5.613,20.238,4.611,20.4a.977.977,0,0,1-.832-.269,2.934,2.934,0,0,0-2.09-.864H1a1,1,0,0,0,0,2h.689a.951.951,0,0,1,.677.279,2.966,2.966,0,0,0,2.092.867c2.458,0,2.4-2.1,3.385-2.263a.912.912,0,0,1,.8.259,2.875,2.875,0,0,0,.967.635.25.25,0,0,1,.112.091,4.533,4.533,0,0,0,3.812,1.606c1.72,0,3.461-.849,3.461-2.474C17,18.662,15.217,17.8,13.539,17.8Z"/></svg>