<svg id="Bold" xmlns="http://www.w3.org/2000/svg" viewBox="0 0 24 24"><title>pregnancy-vgr</title><path d="M15.417,6.447a.926.926,0,0,0-1.307,0l-.478.478a.25.25,0,0,0,0,.353l.955.954a.249.249,0,0,0,.353,0l.477-.477A.925.925,0,0,0,15.417,6.447Z"/><path d="M19.93,1.693,6.19,4.657A2,2,0,0,0,4.657,6.19L1.693,19.93A2,2,0,0,0,4.07,22.307l13.74-2.964a2,2,0,0,0,1.533-1.533L22.307,4.07A2,2,0,0,0,19.93,1.693ZM8.583,13.282a9.178,9.178,0,0,1,2.58,5.161.75.75,0,0,1-.848.848,9.187,9.187,0,0,1-5.161-2.58L3.97,15.527a.75.75,0,1,1,1.06-1.061L6.215,15.65a7.666,7.666,0,0,0,2.914,1.818c.1.035.246-.11.21-.213a7.666,7.666,0,0,0-1.816-2.913L6.338,13.158A.75.75,0,0,1,7.4,12.1Zm4.342-3.553a.75.75,0,1,1-1.061,1.06L11.47,10.4A.925.925,0,0,0,10.162,11.7L12.53,14.07a.924.924,0,0,0,1.512-1c-.022-.055-.074-.168-.145-.1l-.182.182A.75.75,0,0,1,12.654,12.1l.789-.789a.75.75,0,0,1,1.061,0l.394.394a2.424,2.424,0,1,1-3.428,3.429L9.1,12.763A2.424,2.424,0,1,1,12.53,9.335Zm7.325-.26a.749.749,0,0,1-.75.75H16.968c-.166,0-.24.154-.153.242l.847.846A.75.75,0,0,1,16.6,12.368L11.865,7.632a.75.75,0,0,1,0-1.061l1.089-1.089a2.518,2.518,0,0,1,3.307-.288,2.418,2.418,0,0,1,.57,3.157.245.245,0,0,0,.215.369H19.5A.75.75,0,0,1,20.25,9.469Z"/></svg>