<svg xmlns="http://www.w3.org/2000/svg" viewBox="0 0 24 24"><title>presentation-projector-screen-budget-analytics</title><path d="M24,1.75A1.5,1.5,0,0,0,22.5.25H1.5a1.5,1.5,0,0,0-.214,2.984.25.25,0,0,1,.214.248V18.025a.251.251,0,0,1-.2.245,1,1,0,0,0,.2,1.98H11a.249.249,0,0,1,.25.25v.314a.249.249,0,0,1-.107.2,1.5,1.5,0,1,0,1.714,0,.249.249,0,0,1-.107-.2V20.5a.249.249,0,0,1,.25-.25h9.5a1,1,0,0,0,.2-1.98.249.249,0,0,1-.2-.245V3.482a.251.251,0,0,1,.214-.248A1.5,1.5,0,0,0,24,1.75ZM20.5,18a.25.25,0,0,1-.25.25H3.75A.25.25,0,0,1,3.5,18V3.5a.249.249,0,0,1,.25-.25h16.5a.249.249,0,0,1,.25.25Z"/><path d="M8.75,16.25A.75.75,0,0,0,9.5,17H19a.75.75,0,0,0,0-1.5h-.75a.25.25,0,0,1-.25-.25v-4.5a1,1,0,0,0-1-1H16a1,1,0,0,0-1,1v4.5a.25.25,0,0,1-.25.25h-1a.25.25,0,0,1-.25-.25v-1.5a1,1,0,0,0-1-1h-1a1,1,0,0,0-1,1v1.5a.25.25,0,0,1-.25.25H9.5A.75.75,0,0,0,8.75,16.25Z"/><path d="M10,10.947A2.3,2.3,0,0,0,8.975,9.031L7.135,7.8A.3.3,0,0,1,7.3,7.25H9a1,1,0,0,0,.184-1.984.249.249,0,0,1-.2-.2A1,1,0,0,0,7.012,5.1a.25.25,0,0,1-.195.208,2.295,2.295,0,0,0-.792,4.156L7.865,10.7a.3.3,0,0,1-.168.555H6a1,1,0,0,0-.184,1.983.249.249,0,0,1,.2.2,1,1,0,0,0,1.97-.041.249.249,0,0,1,.194-.21A2.292,2.292,0,0,0,10,10.947Z"/></svg>