<svg xmlns="http://www.w3.org/2000/svg" viewBox="0 0 24 24"><title>presentation-projector-screen-play</title><path d="M9.769,14.677a.539.539,0,0,0,.538,0l5.921-3.384a.539.539,0,0,0,0-.936L10.307,6.975a.54.54,0,0,0-.807.468V14.21A.539.539,0,0,0,9.769,14.677Z"/><path d="M24,1.75A1.5,1.5,0,0,0,22.5.25H1.5a1.5,1.5,0,0,0-.214,2.984.25.25,0,0,1,.214.248V18.025a.251.251,0,0,1-.2.245,1,1,0,0,0,.2,1.98H11a.249.249,0,0,1,.25.25v.314a.249.249,0,0,1-.107.2,1.5,1.5,0,1,0,1.714,0,.249.249,0,0,1-.107-.2V20.5a.249.249,0,0,1,.25-.25h9.5a1,1,0,0,0,.2-1.98.249.249,0,0,1-.2-.245V3.482a.251.251,0,0,1,.214-.248A1.5,1.5,0,0,0,24,1.75ZM20.5,18a.25.25,0,0,1-.25.25H3.75A.25.25,0,0,1,3.5,18V3.5a.249.249,0,0,1,.25-.25h16.5a.249.249,0,0,1,.25.25Z"/></svg>