<svg xmlns="http://www.w3.org/2000/svg" viewBox="0 0 24 24"><title>presentation-board</title><path d="M.25,5.25A.249.249,0,0,0,0,5.5v9.25a1.5,1.5,0,0,0,1.5,1.5H8.629a.25.25,0,0,1,.177.426l-5.19,5.19a1.25,1.25,0,0,0,1.768,1.767l4.439-4.439a.25.25,0,0,1,.427.177V22.75a1.25,1.25,0,0,0,2.5,0V19.371a.25.25,0,0,1,.427-.177l4.439,4.439a1.25,1.25,0,0,0,1.768-1.767l-5.19-5.19a.25.25,0,0,1,.177-.426H22.5a1.5,1.5,0,0,0,1.5-1.5V5.5a.249.249,0,0,0-.25-.25Z"/><path d="M23.75,3.75A.25.25,0,0,0,24,3.5v-2A1.5,1.5,0,0,0,22.5,0H1.5A1.5,1.5,0,0,0,0,1.5v2a.25.25,0,0,0,.25.25Z"/></svg>