<svg xmlns="http://www.w3.org/2000/svg" viewBox="0 0 24 24"><title>presentation-analytics</title><path d="M22.525,3H16.25A.25.25,0,0,1,16,2.75V2a1,1,0,0,0-2,0v.75a.25.25,0,0,1-.25.25H9.5a1,1,0,0,0,0,2H21.75a.249.249,0,0,1,.25.25v8.5a.25.25,0,0,1-.25.25H11a1,1,0,0,0,0,2h2.75a.249.249,0,0,1,.25.25v2.821a.25.25,0,0,1-.105.2l-1.976,1.412a1,1,0,1,0,1.162,1.627l1.74-1.242a.249.249,0,0,1,.29,0l1.74,1.242a1,1,0,0,0,1.394-.232,1,1,0,0,0-.232-1.395l-1.908-1.363a.25.25,0,0,1-.105-.2V16.25a.249.249,0,0,1,.25-.25h6.275C23.38,16,24,15.158,24,14V5C24,3.841,23.38,3,22.525,3Z"/><path d="M12.207,12.368l3-3a.25.25,0,0,1,.354,0l.7.7a1.5,1.5,0,0,0,2.121,0l2.112-2.112a1,1,0,1,0-1.414-1.415L17.5,8.125a.25.25,0,0,1-.353,0l-.7-.7a1.5,1.5,0,0,0-2.12,0l-3.529,3.53a1,1,0,1,0,1.414,1.414Z"/><path d="M4.274,8.532A3.016,3.016,0,1,0,1.258,5.516,3.019,3.019,0,0,0,4.274,8.532Z"/><path d="M4.274,9.419A4.279,4.279,0,0,0,0,13.693V16.21a.5.5,0,0,0,.5.5H1.708a.25.25,0,0,1,.249.225l.563,5.614a.5.5,0,0,0,.5.451H5.532a.5.5,0,0,0,.5-.451l.562-5.614a.25.25,0,0,1,.249-.225H8.049a.5.5,0,0,0,.353-.146.5.5,0,0,0,.147-.354V13.693A4.279,4.279,0,0,0,4.274,9.419Z"/></svg>