<svg xmlns="http://www.w3.org/2000/svg" viewBox="0 0 24 24"><title>presentation-audience</title><path d="M9.236,18.349a2.85,2.85,0,1,0,2.85-2.849A2.853,2.853,0,0,0,9.236,18.349Z"/><path d="M4.694,21.2a2.85,2.85,0,1,0-2.85-2.851A2.853,2.853,0,0,0,4.694,21.2Z"/><path d="M16.464,18.349a2.85,2.85,0,1,0,2.85-2.849A2.853,2.853,0,0,0,16.464,18.349Z"/><path d="M23.389,23.186a5.155,5.155,0,0,0-4.033-1.931h0A5.158,5.158,0,0,0,15.869,22.6a.249.249,0,0,1-.333,0,5.321,5.321,0,0,0-7.071,0,.25.25,0,0,1-.334,0,5.157,5.157,0,0,0-3.486-1.346h0A5.155,5.155,0,0,0,.611,23.186.5.5,0,0,0,1,24H23a.5.5,0,0,0,.389-.814Z"/><path d="M8.644,9.5h0l6.723,0a.5.5,0,0,0,.48-.637,3.913,3.913,0,0,0-2.53-2.649,3.248,3.248,0,1,0-2.62.009,4.025,4.025,0,0,0-2.533,2.64.5.5,0,0,0,.479.641Z"/><path d="M5,12a1,1,0,0,0,1,1h.478a.249.249,0,0,1,.245.2l.3,1.495A1,1,0,1,0,8.98,14.3l-.2-1a.248.248,0,0,1,.245-.3h5.95a.248.248,0,0,1,.245.3l-.2,1a1,1,0,1,0,1.96.393l.3-1.495a.249.249,0,0,1,.245-.2H18a1,1,0,0,0,0-2H6A1,1,0,0,0,5,12Z"/></svg>