<svg xmlns="http://www.w3.org/2000/svg" viewBox="0 0 24 24"><title>presentation-board-graph</title><path d="M24,1.5A1.5,1.5,0,0,0,22.5,0H1.5A1.5,1.5,0,0,0,0,1.5v6a.25.25,0,0,0,.25.25H5.841a.251.251,0,0,0,.23-.152l.756-1.764a1.246,1.246,0,0,1,1.149-.757H8a1.243,1.243,0,0,1,1.144.8l1.281,3.331a.25.25,0,0,0,.453.03l1.556-2.851a1.25,1.25,0,0,1,2.156-.065l1.06,1.7a.246.246,0,0,0,.228.116.249.249,0,0,0,.211-.146l1.728-3.8a.75.75,0,0,1,1.366.621L17.069,9.461a1.249,1.249,0,0,1-2.2.146l-1.1-1.759a.25.25,0,0,0-.432.012l-1.664,3.05a1.251,1.251,0,0,1-1.1.651l-.081,0a1.256,1.256,0,0,1-1.084-.8l-1.23-3.2a.25.25,0,0,0-.463-.009l-.4.936a1.249,1.249,0,0,1-1.148.758H.25A.249.249,0,0,0,0,9.5v5A1.5,1.5,0,0,0,1.5,16H10a.249.249,0,0,1,.25.25v.916a.251.251,0,0,1-.1.2,2.1,2.1,0,0,0-.239.205L5.616,21.866a1.25,1.25,0,0,0,1.768,1.767l3.939-3.939a.25.25,0,0,1,.354,0l3.939,3.939a1.25,1.25,0,0,0,1.768-1.767l-4.293-4.293a2.1,2.1,0,0,0-.239-.205.251.251,0,0,1-.1-.2V16.25A.249.249,0,0,1,13,16h9.5A1.5,1.5,0,0,0,24,14.5Z"/></svg>