<svg xmlns="http://www.w3.org/2000/svg" viewBox="0 0 24 24"><title>presentation-speaker</title><path d="M22,0H2A2,2,0,0,0,0,2V14a2,2,0,0,0,2,2H5.5a1,1,0,0,0,0-2h-3a.5.5,0,0,1-.5-.5V2.5A.5.5,0,0,1,2.5,2h19a.5.5,0,0,1,.5.5v11a.5.5,0,0,1-.5.5h-3a1,1,0,0,0,0,2H22a2,2,0,0,0,2-2V2A2,2,0,0,0,22,0Z"/><circle cx="12.003" cy="8.75" r="3.25"/><path d="M15.769,15.289a.5.5,0,0,0,.083-.439A3.974,3.974,0,0,0,12,12a4.024,4.024,0,0,0-3.836,2.863.5.5,0,0,0,.477.641l6.723-.016h0A.5.5,0,0,0,15.769,15.289Z"/><path d="M18,17H6a1,1,0,0,0,0,2h.683l.837,4.2a1,1,0,0,0,.98.8h7a1,1,0,0,0,.98-.8l.843-4.2H18a1,1,0,0,0,0-2Zm-7.247,3.75A1.25,1.25,0,1,1,12,22,1.251,1.251,0,0,1,10.753,20.75Z"/></svg>