<svg xmlns="http://www.w3.org/2000/svg" viewBox="0 0 24 24"><title>presentation-projector-screen-pin</title><path d="M11.831,15.6a.25.25,0,0,0,.338,0C12.93,14.9,16,11.94,16,9.749a4,4,0,1,0-8,0C8,11.939,11.07,14.9,11.831,15.6ZM12,8.749a1,1,0,1,1-1,1A1,1,0,0,1,12,8.749Z"/><path d="M24,1.749a1.5,1.5,0,0,0-1.5-1.5H1.5a1.5,1.5,0,0,0-.214,2.985.25.25,0,0,1,.214.248V18.024a.25.25,0,0,1-.2.245,1,1,0,0,0,.2,1.98H11a.25.25,0,0,1,.25.25v.315a.249.249,0,0,1-.107.2,1.5,1.5,0,1,0,1.714,0,.249.249,0,0,1-.107-.2V20.5a.25.25,0,0,1,.25-.25h9.5a1,1,0,0,0,.2-1.98.249.249,0,0,1-.2-.245V3.482a.25.25,0,0,1,.214-.248A1.5,1.5,0,0,0,24,1.749ZM20.5,18a.249.249,0,0,1-.25.25H3.75A.249.249,0,0,1,3.5,18V3.5a.25.25,0,0,1,.25-.25h16.5a.25.25,0,0,1,.25.25Z"/></svg>