<svg xmlns="http://www.w3.org/2000/svg" viewBox="0 0 24 24"><title>presentation-projector-screen-settings</title><path d="M24,1.75A1.5,1.5,0,0,0,22.5.25H1.5a1.5,1.5,0,0,0-.214,2.984.25.25,0,0,1,.214.248V18.025a.251.251,0,0,1-.2.245,1,1,0,0,0,.2,1.98H11a.249.249,0,0,1,.25.25v.314a.249.249,0,0,1-.107.2,1.5,1.5,0,1,0,1.714,0,.249.249,0,0,1-.107-.2V20.5a.249.249,0,0,1,.25-.25h9.5a1,1,0,0,0,.2-1.98.249.249,0,0,1-.2-.245V3.482a.251.251,0,0,1,.214-.248A1.5,1.5,0,0,0,24,1.75ZM20.5,18a.25.25,0,0,1-.25.25H3.75A.25.25,0,0,1,3.5,18V3.5a.249.249,0,0,1,.25-.25h16.5a.249.249,0,0,1,.25.25Z"/><path d="M7.3,12.118a1.115,1.115,0,0,0,1.062,1.848l1.227-.284a.829.829,0,0,1,.978.568l.368,1.21a1.109,1.109,0,0,0,2.124,0l.368-1.21a.829.829,0,0,1,.978-.568l1.227.284A1.115,1.115,0,0,0,16.7,12.118l-.858-.926a.834.834,0,0,1,0-1.135l.858-.926a1.115,1.115,0,0,0-1.062-1.848l-1.227.284A.829.829,0,0,1,13.43,7l-.368-1.211a1.109,1.109,0,0,0-2.124,0L10.57,7a.829.829,0,0,1-.978.567L8.365,7.283A1.115,1.115,0,0,0,7.3,9.131l.858.926a.834.834,0,0,1,0,1.135ZM12,9.375a1.25,1.25,0,1,1-1.25,1.25A1.25,1.25,0,0,1,12,9.375Z"/></svg>