<svg xmlns="http://www.w3.org/2000/svg" viewBox="0 0 24 24"><title>presentation-projector-1</title><path d="M4.5,18c-.077,0-.152,0-.227-.011a.251.251,0,0,0-.192.065A.248.248,0,0,0,4,18.238V22.5A1.5,1.5,0,0,0,5.5,24h13A1.5,1.5,0,0,0,20,22.5V18.238a.25.25,0,0,0-.273-.249c-.075.007-.15.011-.227.011Zm10.75,3.5a.75.75,0,0,1-1.5,0v-1a.75.75,0,0,1,1.5,0Zm2.5,0a.75.75,0,0,1-1.5,0v-1a.75.75,0,0,1,1.5,0Z"/><path d="M4.5,13A1.5,1.5,0,0,0,3,14.5v1A1.5,1.5,0,0,0,4.5,17h15A1.5,1.5,0,0,0,21,15.5v-1a1.5,1.5,0,0,0-1.072-1.438.249.249,0,0,1-.178-.239V7.75a2,2,0,0,0-2-2h-2a.253.253,0,0,1-.15-.05.99.99,0,0,0-.6-.2H8a1,1,0,0,0-1,1v1a1,1,0,0,0,1,1h7a1,1,0,0,0,.917-.6.248.248,0,0,1,.229-.149h1.1a.5.5,0,0,1,.5.5v4.5a.25.25,0,0,1-.25.25Z"/><path d="M15,1.5A1.5,1.5,0,0,0,13.5,0h-4A1.5,1.5,0,0,0,8,1.5V4.25a.25.25,0,0,0,.25.25h6.5A.25.25,0,0,0,15,4.25ZM11.541,2.75a1,1,0,1,1,1-1A1,1,0,0,1,11.541,2.75Z"/></svg>