<svg xmlns="http://www.w3.org/2000/svg" viewBox="0 0 24 24"><title>presentation-microphone-1</title><path d="M15.25,4.75a.25.25,0,0,0,.25-.25v-1a3.5,3.5,0,0,0-7,0v1a.25.25,0,0,0,.25.25Z"/><path d="M22.482,4.693a.252.252,0,0,1-.033-.223,1.5,1.5,0,0,0-.363-1.531l-.793-.793a1.852,1.852,0,0,0-2.707,0,1.852,1.852,0,0,0,0,2.707l.793.793a1.49,1.49,0,0,0,1.06.438,1.576,1.576,0,0,0,.316-.032.25.25,0,0,1,.286.157,2.14,2.14,0,0,1-.309,2.083L18.1,10.926a.252.252,0,0,1-.177.074H13a.25.25,0,0,1-.25-.25V9.114a.25.25,0,0,1,.183-.241,3.509,3.509,0,0,0,2.525-2.835.249.249,0,0,0-.247-.288H8.789a.249.249,0,0,0-.247.288,3.509,3.509,0,0,0,2.525,2.835.251.251,0,0,1,.183.241V10.75A.25.25,0,0,1,11,11H6.078a.252.252,0,0,1-.177-.074L3.268,8.292a2.14,2.14,0,0,1-.309-2.083.25.25,0,0,1,.286-.157,1.576,1.576,0,0,0,.316.032,1.49,1.49,0,0,0,1.06-.438l.793-.793a1.852,1.852,0,0,0,0-2.707,1.852,1.852,0,0,0-2.707,0l-.793.793A1.5,1.5,0,0,0,1.551,4.47a.252.252,0,0,1-.033.223,4.134,4.134,0,0,0,.336,5.014L3,10.851a.25.25,0,0,1,.071.215.255.255,0,0,1-.132.184,1.922,1.922,0,0,0-.8.763,2.076,2.076,0,0,0,.089,2.115L4.2,17.415A3.472,3.472,0,0,0,7,19H9.25a.249.249,0,0,1,.25.25V23.5a.5.5,0,0,0,.5.5h4a.5.5,0,0,0,.5-.5V19.25a.249.249,0,0,1,.25-.25H17a3.47,3.47,0,0,0,2.8-1.586l1.97-3.285a2.078,2.078,0,0,0,.089-2.116,1.922,1.922,0,0,0-.8-.763.255.255,0,0,1-.132-.184A.251.251,0,0,1,21,10.851l1.144-1.144A4.134,4.134,0,0,0,22.482,4.693Z"/></svg>