<svg xmlns="http://www.w3.org/2000/svg" viewBox="0 0 24 24"><title>presentation-desk-paper</title><path d="M.41,18.374a.249.249,0,0,0-.247.288l.164,1.075a1.5,1.5,0,0,0,1.455,1.137H9.3a.25.25,0,0,1,.25.25v2.25a.5.5,0,0,0,.5.5h4a.5.5,0,0,0,.5-.5v-2.25a.25.25,0,0,1,.25-.25H22.22a1.507,1.507,0,0,0,1.464-1.183l.153-1.03a.25.25,0,0,0-.247-.287Z"/><path d="M23.523,17.374a.251.251,0,0,0,.206-.109.247.247,0,0,0,.027-.231l-2.994-7.7a1.49,1.49,0,0,0-1.4-.957H8.8a.25.25,0,0,0-.25.25v2.75a.75.75,0,0,1-1.5,0V8.117A1.987,1.987,0,0,1,7.634,6.7L8.141,6.2a.25.25,0,0,1,.241-.065,2.131,2.131,0,0,0,1.946-.449l2.09-1.81A2.133,2.133,0,1,0,9.626.645L7.535,2.455a2.139,2.139,0,0,0-.692,2.05.248.248,0,0,1-.068.228l-.555.555A3.97,3.97,0,0,0,5.048,8.117v.007a.25.25,0,0,1-.25.25H4.732a1.49,1.49,0,0,0-1.4.952c-2.129,5.314-2.844,7.1-3.087,7.7a.25.25,0,0,0,.232.343Zm-4.653-1.72a.6.6,0,0,1-.464.22H10.648a.6.6,0,0,1-.588-.718l.96-4.8a.6.6,0,0,1,.588-.482h5.838a.6.6,0,0,1,.589.482l.96,4.8A.6.6,0,0,1,18.87,15.654Z"/></svg>