<svg xmlns="http://www.w3.org/2000/svg" viewBox="0 0 24 24"><title>primitive-symbols-man</title><path d="M16.5,13a3.25,3.25,0,0,0,3.25-3.25V6.25a1.25,1.25,0,0,0-2.5,0v3.5a.752.752,0,0,1-.75.75h-3a.25.25,0,0,1-.25-.25V7.938a.243.243,0,0,1,.158-.226,4,4,0,1,0-2.82.022.242.242,0,0,1,.162.227V10.25a.25.25,0,0,1-.25.25h-3a.752.752,0,0,1-.75-.75V6.25a1.25,1.25,0,0,0-2.5,0v3.5A3.25,3.25,0,0,0,7.5,13h3a.25.25,0,0,1,.25.25V15.2a.248.248,0,0,1-.06.162L5.051,21.936a1.25,1.25,0,1,0,1.9,1.627l4.861-5.671a.251.251,0,0,1,.38,0l4.861,5.671a1.3,1.3,0,0,0,1.762.136,1.25,1.25,0,0,0,.136-1.763L13.31,15.357a.248.248,0,0,1-.06-.162V13.25A.25.25,0,0,1,13.5,13Z"/></svg>