<svg xmlns="http://www.w3.org/2000/svg" viewBox="0 0 24 24"><title>primitive-symbols-bull</title><path d="M23.842,16.948l-1.493-3.063a.251.251,0,0,1,.066-.306A3.7,3.7,0,0,0,20.081,7h-.517a4.511,4.511,0,0,0-1.68.324A7.353,7.353,0,0,1,14.842,8a7.04,7.04,0,0,1-1.928-.269l-1.949-.557A4.48,4.48,0,0,0,9.731,7a4.179,4.179,0,0,0-1.341.21.25.25,0,0,1-.328-.233A3.757,3.757,0,0,0,5.241,3.4l-3.46-.865A1,1,0,1,0,1.3,4.47l3.46.865a1.73,1.73,0,0,1,1.3,1.4A.249.249,0,0,1,6,6.928a.252.252,0,0,1-.172.1,3.1,3.1,0,0,0-1.526.606.25.25,0,0,1-.2.045,2.922,2.922,0,0,1-2.176-1.8,1,1,0,0,0-1.857.742A4.849,4.849,0,0,0,2.876,9.4a.249.249,0,0,1,.148.313l-.418,1.256a1.705,1.705,0,0,0,2.681,1.873l.006,0,.945-.712a.25.25,0,0,1,.229-.037.247.247,0,0,1,.161.168l.382,1.335c.031.111.074.217.115.324a.035.035,0,0,1,0,.033l-2.664,4a1,1,0,0,0,1.664,1.109l2.056-3.084a.25.25,0,0,1,.369-.053c.055.046.11.09.166.133a.251.251,0,0,1,.1.23l-.512,4.1a1,1,0,0,0,.868,1.116,1.063,1.063,0,0,0,.125.008,1,1,0,0,0,.991-.876l.431-3.446a.251.251,0,0,1,.281-.217,3.978,3.978,0,0,0,.536.039h3.71a5.974,5.974,0,0,0,2.776-.689.249.249,0,0,1,.358.16l.069.27a.244.244,0,0,1-.028.19l-1.232,2.055A1,1,0,0,0,18.9,20.015L20.286,17.7h0a1.512,1.512,0,0,0,.171-1.143v0l-.333-1.311a.25.25,0,0,1,.111-.275l.087-.053a.251.251,0,0,1,.2-.028.255.255,0,0,1,.155.129l1.3,2.67A.256.256,0,0,1,22,17.8v2.7a1,1,0,0,0,2,0V17.618A1.522,1.522,0,0,0,23.842,16.948Z"/></svg>