<svg xmlns="http://www.w3.org/2000/svg" viewBox="0 0 24 24"><title>primitive-symbols-woman</title><path d="M6.992,8.1a3.952,3.952,0,0,0,1.486-.784.272.272,0,0,1,.256.006A4.2,4.2,0,0,0,15.282,7.3a.213.213,0,0,1,.209-.014,3.977,3.977,0,0,0,1.52.811.992.992,0,0,0,1.2-.719,1.006,1.006,0,0,0-.71-1.219A1.764,1.764,0,0,1,16.247,4.6a4.249,4.249,0,0,0-8.5.028A1.645,1.645,0,0,1,6.5,6.157a1,1,0,0,0-.719,1.21A1.08,1.08,0,0,0,6.992,8.1Z"/><path d="M19.323,22.26,16.1,12.576a4.317,4.317,0,0,0-8.19,0L4.677,22.26a1.038,1.038,0,0,0,.984,1.365H18.339a1.038,1.038,0,0,0,.984-1.365Z"/></svg>