<svg xmlns="http://www.w3.org/2000/svg" viewBox="0 0 24 24"><title>products-purse</title><path d="M22.378,17.478,20.99,9.72a1.438,1.438,0,0,0-1.422-1.181H18.292c-.014,0-.138.013-.152.014l-12.3,0c-.023,0-.1-.01-.126-.01H4.432A1.442,1.442,0,0,0,3.009,9.72L1.622,17.479a5.11,5.11,0,0,0,1.124,4.19,5.228,5.228,0,0,0,4.02,1.87H17.233a5.237,5.237,0,0,0,4.025-1.872A5.115,5.115,0,0,0,22.378,17.478ZM5.96,13.272a.75.75,0,1,1,0-1.5h12a.75.75,0,0,1,0,1.5h-8.5a.25.25,0,0,0-.25.25v2.017a.75.75,0,1,1-1.5,0V13.522a.25.25,0,0,0-.25-.25Z"/><path d="M6.459,7.539a1,1,0,0,0,1-1c0-4.316,5.324-4.943,7.646-3.036a3.731,3.731,0,0,1,1.354,3.036,1,1,0,0,0,2,0c0-3.99-3.27-6.078-6.5-6.078s-6.5,2.088-6.5,6.078A1,1,0,0,0,6.459,7.539Z"/></svg>