<svg xmlns="http://www.w3.org/2000/svg" viewBox="0 0 24 24"><title>professions-man-chef-3</title><path d="M23.5,23.269a2.464,2.464,0,0,0-.967-1.977C21.105,20.2,17.838,18.375,12,18.375a24.869,24.869,0,0,0-3.031.181.25.25,0,0,0-.219.248v4.821a.25.25,0,0,0,.25.25H23a.5.5,0,0,0,.5-.5ZM11.75,21.625a1,1,0,1,1-1-1A1,1,0,0,1,11.75,21.625Z"/><path d="M7.25,19.144a.25.25,0,0,0-.094-.195.247.247,0,0,0-.211-.049,14.034,14.034,0,0,0-5.479,2.392A2.466,2.466,0,0,0,.5,23.269v.106a.5.5,0,0,0,.5.5H7a.25.25,0,0,0,.25-.25Z"/><path d="M19.25,5.006A3,3,0,0,0,17.8,2.469,3.472,3.472,0,0,0,15.5,2a.252.252,0,0,1-.249-.117,3.889,3.889,0,0,0-6.5,0A.25.25,0,0,1,8.5,2a3.468,3.468,0,0,0-2.3.473A2.992,2.992,0,0,0,4.75,5.006,2.932,2.932,0,0,0,5.877,7.293a.251.251,0,0,1,.075.287A6.461,6.461,0,0,0,5.5,9.958v1.834a6.5,6.5,0,1,0,13,0V9.958a6.461,6.461,0,0,0-.452-2.378.249.249,0,0,1,.075-.286A2.934,2.934,0,0,0,19.25,5.006ZM16.5,11.792a4.5,4.5,0,0,1-9,0V9.958a.033.033,0,0,1,.01-.023.031.031,0,0,1,.024-.008c1.485.124,2.976.2,4.468.2s2.982-.073,4.464-.2a.031.031,0,0,1,.024.008.033.033,0,0,1,.01.023Z"/><circle cx="14" cy="11.625" r="1"/><circle cx="10" cy="11.625" r="1"/><path d="M13.077,13.737h-2a.639.639,0,0,0-.3,1.2,2.31,2.31,0,0,0,.435.18,2.99,2.99,0,0,0,.867.126h.006a2.976,2.976,0,0,0,.863-.125,2.3,2.3,0,0,0,.436-.181.639.639,0,0,0-.3-1.2Z"/></svg>