<svg xmlns="http://www.w3.org/2000/svg" viewBox="0 0 24 24"><title>professions-man-doctor-2</title><path d="M4.75,18.266a.251.251,0,0,0-.341-.233,12.684,12.684,0,0,0-3.095,1.685A2.71,2.71,0,0,0,.25,21.893V23a.75.75,0,0,0,1.5,0V21.893a1.222,1.222,0,0,1,.475-.983,10.965,10.965,0,0,1,2.434-1.362.147.147,0,0,0,.091-.136Z"/><path d="M22.686,19.718a13.32,13.32,0,0,0-4.011-2.008.251.251,0,0,1-.174-.238V17A.75.75,0,0,0,17,17v2.951a.251.251,0,0,1-.159.233A2.491,2.491,0,0,0,15.25,22.5V23a.75.75,0,0,0,1.5,0v-.5a1,1,0,0,1,2,0V23a.75.75,0,0,0,1.5,0v-.5a2.492,2.492,0,0,0-1.59-2.316.249.249,0,0,1-.159-.232v-.369a.251.251,0,0,1,.338-.235c.174.066.34.132.5.2a10.965,10.965,0,0,1,2.434,1.362,1.222,1.222,0,0,1,.475.983V23a.75.75,0,0,0,1.5,0V21.893A2.71,2.71,0,0,0,22.686,19.718Z"/><path d="M12.021,19a3.786,3.786,0,0,1-.488-.035.25.25,0,0,0-.283.248V23a.75.75,0,0,0,1.5,0V19.218a.25.25,0,0,0-.281-.248A3.7,3.7,0,0,1,12.021,19Z"/><path d="M17.708,12.758a.247.247,0,0,1,.143-.186,2.731,2.731,0,0,0,1.439-2.433,2.156,2.156,0,0,0-.4-1.365.252.252,0,0,1-.049-.185c.338-2.542-.031-4.762-1.291-6.248C16.374.953,14.514.25,12.021.25S7.666.954,6.49,2.341c-1.27,1.5-1.625,3.73-1.29,6.248a.252.252,0,0,1-.049.185,2.16,2.16,0,0,0-.4,1.364,2.732,2.732,0,0,0,1.439,2.434.253.253,0,0,1,.145.187c.511,3.048,4.021,4.991,5.687,4.991S17.2,15.807,17.708,12.758Zm-10.9-1.552a1.279,1.279,0,0,1-.559-1.1c0-.048,0-.092,0-.131A.251.251,0,0,1,6.5,9.75h.156A1.754,1.754,0,0,0,8.375,8.343l.184-.921a.25.25,0,0,1,.227-.2,5.106,5.106,0,0,0,3.071-1.051.249.249,0,0,1,.327,0,5.11,5.11,0,0,0,3.07,1.05.25.25,0,0,1,.227.2l.185.92h0A1.754,1.754,0,0,0,17.382,9.75h.155a.249.249,0,0,1,.249.228c0,.039,0,.083,0,.132a1.275,1.275,0,0,1-.559,1.1,1.742,1.742,0,0,0-1,1.3c-.378,2.249-3.176,3.739-4.208,3.739S8.19,14.76,7.812,12.51A1.747,1.747,0,0,0,6.809,11.206Z"/><path d="M10.272,12.866a.751.751,0,0,0,.29,1.02,2.767,2.767,0,0,0,.5.214,3.353,3.353,0,0,0,1,.15h0a3.365,3.365,0,0,0,1-.149,2.691,2.691,0,0,0,.5-.215.75.75,0,1,0-.732-1.309,1.2,1.2,0,0,1-.222.094,1.817,1.817,0,0,1-.545.079h0a1.844,1.844,0,0,1-.547-.08,1.161,1.161,0,0,1-.224-.094A.751.751,0,0,0,10.272,12.866Z"/><path d="M9.55,10.325a.563.563,0,0,1,.559,0,.75.75,0,0,0,1.022-1.1,2.02,2.02,0,0,0-2.6,0,.75.75,0,1,0,1.02,1.1Z"/><path d="M13.461,10.525a.75.75,0,0,0,.511-.2.559.559,0,0,1,.557,0,.75.75,0,0,0,1.022-1.1,2.02,2.02,0,0,0-2.6,0,.75.75,0,0,0,.511,1.3Z"/><path d="M6.8,16.312a.733.733,0,0,0-.3-.062.75.75,0,0,0-.75.75v2.219a.251.251,0,0,1-.149.229,2.25,2.25,0,1,0,1.8,0,.251.251,0,0,1-.15-.229V17a.769.769,0,0,0-.454-.688ZM6.5,22.25a.75.75,0,1,1,.75-.75A.751.751,0,0,1,6.5,22.25Z"/></svg>