<svg xmlns="http://www.w3.org/2000/svg" viewBox="0 0 24 24"><title>professions-woman-clerk</title><path d="M10.1,13.25a.75.75,0,0,0,.3,1.016,3.217,3.217,0,0,0,1.534.359,3.255,3.255,0,0,0,1.526-.36.75.75,0,1,0-.715-1.318,1.7,1.7,0,0,1-.811.178h0a1.8,1.8,0,0,1-.819-.18A.751.751,0,0,0,10.1,13.25Z"/><path d="M9.387,10.2a.628.628,0,0,1,.625,0,.751.751,0,0,0,1.006-1.114,2.094,2.094,0,0,0-2.637,0A.751.751,0,0,0,9.387,10.2Z"/><path d="M13.952,10.2a.628.628,0,0,1,.625,0,.751.751,0,0,0,1.006-1.114,2.094,2.094,0,0,0-2.637,0A.751.751,0,0,0,13.952,10.2Z"/><path d="M12,4.375a19.551,19.551,0,0,1,6.038.9.5.5,0,0,0,.671-.577,5.79,5.79,0,0,0-1.2-2.481C16.334.829,14.474.125,11.979.125S7.626.829,6.45,2.216A5.793,5.793,0,0,0,5.244,4.721a.5.5,0,0,0,.675.574A19.37,19.37,0,0,1,12,4.375Z"/><path d="M6.185,17.276a2.165,2.165,0,0,0,2.131-1.318,6.484,6.484,0,0,0,3.663,1.667,6.541,6.541,0,0,0,3.746-1.738A2.218,2.218,0,0,0,17.9,17.276,5.116,5.116,0,0,0,21.464,15.6a.506.506,0,0,0,.1-.46.5.5,0,0,0-.328-.337c-1.373-.442-2.024-2.086-2.333-3.433a3.144,3.144,0,0,0,.35-1.361,2.116,2.116,0,0,0-.465-1.443c.01-.067.013-.129.021-.2H19a.506.506,0,0,0,.2-.039.5.5,0,0,0,.3-.461c0-1.718-3.888-2.5-7.5-2.5s-7.5.782-7.5,2.5a.5.5,0,0,0,.3.461.506.506,0,0,0,.2.039h.153c.008.066.011.128.021.2a2.112,2.112,0,0,0-.464,1.444,3.109,3.109,0,0,0,.435,1.5c-.322,1.318-.973,2.864-2.3,3.29a.5.5,0,0,0-.327.337.5.5,0,0,0,.1.46A5.117,5.117,0,0,0,6.185,17.276Zm11.105-8.9c-.017.126-.029.247-.051.376a.752.752,0,0,0,.406.8.616.616,0,0,1,.105.439,1.279,1.279,0,0,1-.559,1.1,1.746,1.746,0,0,0-1,1.3c-.378,2.249-3.176,3.739-4.209,3.739s-3.83-1.49-4.207-3.738a1.747,1.747,0,0,0-1-1.306,1.275,1.275,0,0,1-.559-1.1.626.626,0,0,1,.1-.439.752.752,0,0,0,.406-.794c-.022-.13-.034-.251-.051-.377Z"/><path d="M16.951,17.979l-.259-.074a.5.5,0,0,0-.537.18,5.556,5.556,0,0,1-2.129,1.553.247.247,0,0,0,.017.461l3.19,1.111a.25.25,0,0,0,.329-.274l-.433-2.755A.25.25,0,0,0,16.951,17.979Z"/><path d="M7.845,18.085a.5.5,0,0,0-.537-.18l-.259.074a.25.25,0,0,0-.178.2l-.432,2.747a.251.251,0,0,0,.331.275l3.156-1.12a.247.247,0,0,0,.02-.459A5.515,5.515,0,0,1,7.845,18.085Z"/><path d="M5.917,22.566a.5.5,0,0,1-.661-.548l.518-3.3a.247.247,0,0,0-.081-.226.252.252,0,0,0-.234-.053l-2.5.715a.893.893,0,0,0-.087.03A4.518,4.518,0,0,0,0,23.375a.5.5,0,0,0,.5.5H10.75a.5.5,0,0,0,.5-.5V21.384a.5.5,0,0,0-.667-.472Z"/><path d="M21.085,19.166A.827.827,0,0,0,21,19.138l-2.46-.7a.25.25,0,0,0-.316.279l.519,3.305a.5.5,0,0,1-.659.548l-4.67-1.627a.5.5,0,0,0-.665.472v1.964a.5.5,0,0,0,.5.5H23.5a.5.5,0,0,0,.5-.5A4.529,4.529,0,0,0,21.085,19.166Z"/></svg>