<svg xmlns="http://www.w3.org/2000/svg" viewBox="0 0 24 24"><title>professions-man-construction-1</title><path d="M22.616,19.367a15.372,15.372,0,0,0-7.434-2.759.245.245,0,0,1-.08-.461,6.855,6.855,0,0,0,3.755-6.106V9.306a.245.245,0,0,1,.245-.245h.245a.98.98,0,1,0,0-1.959h-.359a.244.244,0,0,1-.241-.2,6.785,6.785,0,0,0-4-5.078.25.25,0,0,1-.142-.174A1.955,1.955,0,0,0,12.678,0H11.323a1.971,1.971,0,0,0-1.93,1.648.248.248,0,0,1-.142.173,6.784,6.784,0,0,0-4,5.078.245.245,0,0,1-.241.2H4.653a.98.98,0,1,0,0,1.959H4.9a.245.245,0,0,1,.245.245v.735A6.855,6.855,0,0,0,8.9,16.147a.245.245,0,0,1-.08.461,15.379,15.379,0,0,0-7.433,2.758,2.9,2.9,0,0,0-1.14,2.326V23.02a.98.98,0,1,0,1.959,0V21.692a.953.953,0,0,1,.369-.768A9.293,9.293,0,0,1,3.6,20.252a.214.214,0,0,1,.32.186v2.827a.49.49,0,0,0,.49.49H19.592a.49.49,0,0,0,.49-.49V20.438a.214.214,0,0,1,.32-.186,9.317,9.317,0,0,1,1.026.672.955.955,0,0,1,.368.768V23.02a.98.98,0,1,0,1.959,0V21.692A2.9,2.9,0,0,0,22.616,19.367Zm-6.405-.61a.244.244,0,0,1,.2.24v1.819a.49.49,0,0,1-.49.49H12.98a.245.245,0,0,1-.245-.245V18.635a.244.244,0,0,1,.254-.245A20.787,20.787,0,0,1,16.211,18.757Zm-4.946,2.3a.245.245,0,0,1-.245.245H8.082a.49.49,0,0,1-.49-.49V19a.244.244,0,0,1,.2-.24,20.8,20.8,0,0,1,3.222-.367.244.244,0,0,1,.254.245ZM13.489,6.817a.246.246,0,0,1-.241.285h-2.5a.246.246,0,0,1-.241-.285l.778-4.653a.246.246,0,0,1,.242-.205h.938a.246.246,0,0,1,.241.205ZM7.1,10.041V9.306a.245.245,0,0,1,.245-.245h9.306a.245.245,0,0,1,.245.245v.735a4.9,4.9,0,0,1-9.8,0Z"/><circle cx="13.959" cy="10.511" r="0.98"/><circle cx="10.041" cy="10.511" r="0.98"/><path d="M12.08,14.076a2.9,2.9,0,0,0,.846-.123,2.293,2.293,0,0,0,.427-.177.626.626,0,0,0-.3-1.177H11.1a.626.626,0,0,0-.3,1.177,2.309,2.309,0,0,0,.426.176,2.945,2.945,0,0,0,.849.124Z"/></svg>