<svg xmlns="http://www.w3.org/2000/svg" viewBox="0 0 24 24"><title>professions-man-clown</title><path d="M3.526,13.652a.249.249,0,0,1,.173.156,3,3,0,0,0,2.817,1.967,2.847,2.847,0,0,0,.658-.079.249.249,0,0,1,.253.09,6.943,6.943,0,0,0,4.589,2.644,6.94,6.94,0,0,0,4.589-2.645.251.251,0,0,1,.253-.089,2.917,2.917,0,0,0,.658.079,3,3,0,0,0,2.817-1.967.252.252,0,0,1,.174-.156A4,4,0,0,0,21.532,6.32a.032.032,0,0,1-.016-.027V6.275a3.476,3.476,0,0,0-2.14-3.225.254.254,0,0,1-.134-.134A3.5,3.5,0,0,0,15.156.882a.247.247,0,0,1-.175-.02A5.561,5.561,0,0,0,9.045.857a.25.25,0,0,1-.18.023A3.5,3.5,0,0,0,4.79,2.916a.254.254,0,0,1-.134.134,3.478,3.478,0,0,0-2.14,3.225V6.3a.016.016,0,0,1-.008.014,4,4,0,0,0,1.018,7.336Zm8.49,3.278c-1.029,0-3.816-1.49-4.192-3.738a1.746,1.746,0,0,0-1-1.306,1.28,1.28,0,0,1-.556-1.095.623.623,0,0,1,.105-.44.752.752,0,0,0,.4-.794l-.016-.094a.251.251,0,0,1,.285-.287A3.077,3.077,0,0,0,9.5,8.462a.249.249,0,0,1,.317-.01,3.716,3.716,0,0,0,4.5-.08.093.093,0,0,1,.125.005,3.114,3.114,0,0,0,2.551.8.249.249,0,0,1,.284.286l-.016.1a.752.752,0,0,0,.4.794.623.623,0,0,1,.1.44,1.278,1.278,0,0,1-.557,1.095,1.747,1.747,0,0,0-1,1.306C15.832,15.44,13.045,16.93,12.016,16.93Z"/><path d="M23.652,23.223a4.525,4.525,0,0,0-2.568-2.444l-.008,0L19.344,20.2a.087.087,0,0,0-.106.046A3.038,3.038,0,0,1,15.459,21.8a.25.25,0,0,0-.25.042,4.981,4.981,0,0,1-6.386,0,.247.247,0,0,0-.25-.042,3.039,3.039,0,0,1-3.779-1.556.086.086,0,0,0-.1-.046l-1.748.587-.009,0A4.511,4.511,0,0,0,.343,23.311.5.5,0,0,0,.807,24h0L23.2,23.92a.5.5,0,0,0,.457-.7Z"/><path d="M8.539,20.705a.5.5,0,0,1,.615.079,3.983,3.983,0,0,0,5.724,0,.5.5,0,0,1,.615-.079,2.013,2.013,0,0,0,2.656-.572.249.249,0,0,0-.124-.381l-1.85-.621a.5.5,0,0,0-.373.022,8.839,8.839,0,0,1-7.591-.009.508.508,0,0,0-.354-.013l-1.849.621a.25.25,0,0,0-.125.381A2.013,2.013,0,0,0,8.539,20.705Z"/><path d="M13.881,13.775a1.865,1.865,0,1,0-1.865,1.865A1.865,1.865,0,0,0,13.881,13.775Z"/><path d="M9.662,11.065c.021-.036.078-.132.354-.132s.334.1.355.132a.75.75,0,1,0,1.29-.765,1.821,1.821,0,0,0-1.645-.867,1.82,1.82,0,0,0-1.645.867.75.75,0,1,0,1.291.765Z"/><path d="M12.634,11.328a.751.751,0,0,0,1.028-.263c.021-.036.078-.132.354-.132s.334.1.355.132a.75.75,0,1,0,1.29-.765,1.821,1.821,0,0,0-1.645-.867,1.82,1.82,0,0,0-1.645.867A.75.75,0,0,0,12.634,11.328Z"/></svg>