<svg xmlns="http://www.w3.org/2000/svg" viewBox="0 0 24 24"><title>professions-man-nurse-1</title><circle cx="13.98" cy="9.155" r="0.99"/><circle cx="10.02" cy="9.155" r="0.99"/><path d="M12.081,12.737a2.96,2.96,0,0,0,.855-.123,2.368,2.368,0,0,0,.431-.18.633.633,0,0,0-.3-1.189h-1.98a.633.633,0,0,0-.3,1.19,2.436,2.436,0,0,0,.431.178,3,3,0,0,0,.858.124Z"/><path d="M.123,20.431V23.01a.99.99,0,1,0,1.979,0h0V20.431a.961.961,0,0,1,.374-.776c1.182-.9,3.816-2.374,8.524-2.56a.249.249,0,0,1,.182.068.252.252,0,0,1,.076.179V23.01h0a.742.742,0,1,0,1.484,0h0V17.342A.246.246,0,0,1,13,17.1c4.708.186,7.342,1.657,8.525,2.56a.963.963,0,0,1,.373.776V23.01h0a.99.99,0,1,0,1.979,0V20.431a2.928,2.928,0,0,0-1.151-2.35,15.335,15.335,0,0,0-7.148-2.736.247.247,0,0,1-.09-.458,6.925,6.925,0,0,0,3.44-5.979V6.928a6.928,6.928,0,0,0-13.856,0v1.98a6.925,6.925,0,0,0,3.44,5.979.247.247,0,0,1-.09.458,15.325,15.325,0,0,0-7.147,2.736A2.926,2.926,0,0,0,.123,20.431ZM7.051,8.908v-.94a.249.249,0,0,1,.241-.248,6.926,6.926,0,0,0,4.646-1.675.091.091,0,0,1,.124,0,6.924,6.924,0,0,0,4.646,1.676.249.249,0,0,1,.241.248v.939a4.949,4.949,0,0,1-9.9,0Z"/><path d="M7.794,22.515a.247.247,0,0,1,.247-.247h.495a.743.743,0,0,0,0-1.485H8.041a.246.246,0,0,1-.247-.247v-.5a.743.743,0,0,0-1.485,0v.5a.247.247,0,0,1-.248.247H5.567a.743.743,0,1,0,0,1.485h.494a.248.248,0,0,1,.248.247v.5h0a.743.743,0,1,0,1.485,0h0Z"/><circle cx="14.969" cy="19.3" r="0.99"/><path d="M15.959,22.269a.99.99,0,0,0-1.979,0,.99.99,0,0,0,1.979,0Z"/></svg>