<svg xmlns="http://www.w3.org/2000/svg" viewBox="0 0 24 24"><title>professions-woman-office-2</title><path d="M12.745,12.952a1.7,1.7,0,0,1-.811.178h0a1.788,1.788,0,0,1-.819-.18.75.75,0,0,0-.711,1.321,3.317,3.317,0,0,0,1.528.359h.006a3.243,3.243,0,0,0,1.526-.36.75.75,0,1,0-.715-1.318Z"/><path d="M6.177,16.383a2.279,2.279,0,0,0,1.83-.7,6.683,6.683,0,0,0,3.972,1.952,6.723,6.723,0,0,0,4.034-2.008,2.329,2.329,0,0,0,1.89.761,5.6,5.6,0,0,0,3.531-1.393.5.5,0,0,0-.225-.836,3.653,3.653,0,0,1-2.3-2.784,3.143,3.143,0,0,0,.346-1.352,2.116,2.116,0,0,0-.465-1.443c.388-2.759-.041-4.9-1.275-6.354C16.334.834,14.474.13,11.979.13S7.626.834,6.45,2.221C5.216,3.678,4.787,5.815,5.174,8.575a2.112,2.112,0,0,0-.464,1.444,3.106,3.106,0,0,0,.426,1.489,3.57,3.57,0,0,1-2.265,2.646.5.5,0,0,0-.225.836A5.6,5.6,0,0,0,6.177,16.383ZM17.238,9A2.5,2.5,0,0,0,15.729,7.3a10.752,10.752,0,0,0,1.313.076c.124,0,.238,0,.353,0a13.348,13.348,0,0,1-.156,1.38A.767.767,0,0,0,17.238,9ZM15.83,9.63a1,1,0,1,1-1-1A1,1,0,0,1,15.83,9.63Zm-3.851,6.5c-1.032,0-3.83-1.49-4.207-3.738a1.747,1.747,0,0,0-1-1.306,1.275,1.275,0,0,1-.559-1.1.626.626,0,0,1,.1-.439.751.751,0,0,0,.406-.794,13.546,13.546,0,0,1-.156-1.391A6.773,6.773,0,0,0,11.89,5.44a6.083,6.083,0,0,0,2.927,1.692A2.491,2.491,0,0,0,12.458,8.88H11.7a2.5,2.5,0,1,0,0,1.5h.756a2.493,2.493,0,0,0,4.872-.75,2.45,2.45,0,0,0-.082-.6.745.745,0,0,0,.4.524.616.616,0,0,1,.105.439,1.278,1.278,0,0,1-.559,1.1,1.746,1.746,0,0,0-1,1.3C15.81,14.64,13.012,16.13,11.979,16.13ZM10.33,9.63a1,1,0,1,1-1-1A1,1,0,0,1,10.33,9.63Z"/><path d="M16.951,16.974l-.259-.074a.5.5,0,0,0-.537.18,5.534,5.534,0,0,1-2.129,1.552.248.248,0,0,0,.017.462l3.19,1.111a.25.25,0,0,0,.329-.275l-.433-2.754A.249.249,0,0,0,16.951,16.974Z"/><path d="M7.845,17.08a.5.5,0,0,0-.537-.18l-.259.074a.25.25,0,0,0-.178.2l-.432,2.747a.251.251,0,0,0,.331.275l3.156-1.12a.247.247,0,0,0,.02-.459A5.515,5.515,0,0,1,7.845,17.08Z"/><path d="M5.917,21.561a.5.5,0,0,1-.661-.549l.518-3.3a.249.249,0,0,0-.315-.279l-2.538.727A4.52,4.52,0,0,0,0,22.37v1a.5.5,0,0,0,.5.5H10.75a.5.5,0,0,0,.5-.5V20.378a.5.5,0,0,0-.667-.471Z"/><path d="M21.042,18.144l-2.5-.715a.25.25,0,0,0-.316.279l.519,3.3a.5.5,0,0,1-.659.549l-4.67-1.628a.5.5,0,0,0-.665.473V23.37a.5.5,0,0,0,.5.5H23.5a.5.5,0,0,0,.5-.5v-1A4.531,4.531,0,0,0,21.042,18.144Z"/></svg>