<svg xmlns="http://www.w3.org/2000/svg" viewBox="0 0 24 24"><title>professions-man-office-2</title><path d="M12,15.673a6.865,6.865,0,0,0,6.857-6.857V6.857a6.857,6.857,0,0,0-13.714,0V8.816A6.865,6.865,0,0,0,12,15.673Zm3.673-6.857a.98.98,0,1,1-.979-.979A.981.981,0,0,1,15.673,8.816Zm-3.248-.89a.245.245,0,0,1-.228.156H11.8a.245.245,0,0,1-.228-.156,2.46,2.46,0,0,0-.593-.886.245.245,0,0,1,.044-.387,5.9,5.9,0,0,0,.814-.584.244.244,0,0,1,.32,0,5.957,5.957,0,0,0,.809.592.243.243,0,0,1,.116.182.247.247,0,0,1-.074.2A2.446,2.446,0,0,0,12.425,7.926ZM9.306,7.837a.98.98,0,1,1-.979.979A.981.981,0,0,1,9.306,7.837ZM7.806,11.3a.245.245,0,0,1,.329-.339,2.4,2.4,0,0,0,1.171.3,2.44,2.44,0,0,0,2.269-1.559.246.246,0,0,1,.228-.155H12.2a.246.246,0,0,1,.228.155,2.44,2.44,0,0,0,2.269,1.559,2.4,2.4,0,0,0,1.171-.3.245.245,0,0,1,.329.339,4.851,4.851,0,0,1-8.388,0Z"/><path d="M12.08,12.607a2.933,2.933,0,0,0,.846-.123,2.293,2.293,0,0,0,.427-.177.626.626,0,0,0-.3-1.177H11.1a.626.626,0,0,0-.3,1.178,2.309,2.309,0,0,0,.426.176,2.945,2.945,0,0,0,.849.124Z"/><path d="M22.776,24a.489.489,0,0,0,.489-.49V20.957a2.408,2.408,0,0,0-.947-1.936c-1.4-1.067-4.6-2.858-10.318-2.858S3.08,17.954,1.682,19.021a2.408,2.408,0,0,0-.947,1.936V23.51a.489.489,0,0,0,.489.49H9.7a.244.244,0,0,0,.236-.178l1.6-5.589a.509.509,0,0,1,.942,0l1.6,5.589A.244.244,0,0,0,14.3,24Z"/></svg>