<svg xmlns="http://www.w3.org/2000/svg" viewBox="0 0 24 24"><title>professions-man-office-1</title><path d="M.5,20.769v2.606a.5.5,0,0,0,.5.5H9.648a.251.251,0,0,0,.241-.181l1.63-5.706a.52.52,0,0,1,.962,0l1.63,5.706a.251.251,0,0,0,.241.181H23a.5.5,0,0,0,.5-.5V20.769a2.462,2.462,0,0,0-.967-1.977,15.417,15.417,0,0,0-7.713-2.759.25.25,0,0,1-.071-.478A7,7,0,0,0,19,9.125v-2a7,7,0,0,0-14,0v2a7,7,0,0,0,4.251,6.43.25.25,0,0,1-.071.478,15.417,15.417,0,0,0-7.713,2.759A2.462,2.462,0,0,0,.5,20.769ZM7,9.125v-.95a.251.251,0,0,1,.243-.25,6.992,6.992,0,0,0,4.694-1.693.1.1,0,0,1,.126,0,7,7,0,0,0,4.694,1.694.251.251,0,0,1,.243.25v.949a5,5,0,0,1-10,0Z"/><circle cx="14" cy="9.375" r="1"/><circle cx="10" cy="9.375" r="1"/><path d="M12.082,12.994a2.976,2.976,0,0,0,.863-.125,2.3,2.3,0,0,0,.436-.181.639.639,0,0,0-.3-1.2h-2a.639.639,0,0,0-.3,1.2,2.31,2.31,0,0,0,.435.18,2.99,2.99,0,0,0,.867.126Z"/></svg>