<svg xmlns="http://www.w3.org/2000/svg" viewBox="0 0 24 24"><title>professions-woman-chef-2</title><path d="M2.847,14.024a.5.5,0,0,0-.231.8A3.8,3.8,0,0,0,5.537,15.94a3.962,3.962,0,0,0,2.668-.854.249.249,0,0,1,.3-.034,6.931,6.931,0,0,0,6.958.023.249.249,0,0,1,.3.039,4.16,4.16,0,0,0,2.7.886,3.8,3.8,0,0,0,2.921-1.119.5.5,0,0,0-.231-.8C18.468,13.222,19,10,19,8.348a.248.248,0,0,1,.136-.222.251.251,0,0,1,.26.019,3.232,3.232,0,0,0,2.371.568.284.284,0,0,0,.166-.1.249.249,0,0,0,.054-.166A3.246,3.246,0,0,0,20.413,5.8a.25.25,0,0,1,0-.428,3.247,3.247,0,0,0,1.574-2.646.282.282,0,0,0-.066-.181.257.257,0,0,0-.154-.086A3.222,3.222,0,0,0,18.633,3.8.25.25,0,0,1,18.2,3.77,6.986,6.986,0,0,0,6.05,3.331a.248.248,0,0,1-.044.053A3.841,3.841,0,0,0,4.75,6.236V7a.25.25,0,0,0,.125.217A.25.25,0,0,1,5,7.433C5,10.05,5.578,13.147,2.847,14.024ZM15.1,3.1a.25.25,0,0,1-.182.444l-5.1-.51a.25.25,0,0,1-.091-.471A4.919,4.919,0,0,1,15.1,3.1ZM16.75,7.25A.25.25,0,0,1,17,7.5V9A5,5,0,0,1,7,9V7.5a.25.25,0,0,1,.25-.25Z"/><path d="M10.38,11.712a.641.641,0,0,0,.317.72,2.4,2.4,0,0,0,.435.179,4.157,4.157,0,0,0,.863.125h.022a2.987,2.987,0,0,0,.853-.125,2.441,2.441,0,0,0,.435-.181.639.639,0,0,0-.3-1.2H11A.64.64,0,0,0,10.38,11.712Z"/><path d="M16.435,24H23a.5.5,0,0,0,.5-.5V20.9a2.463,2.463,0,0,0-.967-1.978,11.994,11.994,0,0,0-2.45-1.4.251.251,0,0,0-.319.107l0,0-3.542,6a.251.251,0,0,0,0,.255A.251.251,0,0,0,16.435,24Z"/><path d="M.5,20.9V23.5A.5.5,0,0,0,1,24H8.326a.249.249,0,0,0,.186-.083l.009-.01,3.048-3.042a.249.249,0,0,0,.01-.342L8.052,16.557a.5.5,0,0,0-.467-.16,14.53,14.53,0,0,0-6.118,2.52A2.461,2.461,0,0,0,.5,20.9Z"/><path d="M18.31,16.962a.252.252,0,0,0-.161-.145c-.244-.07-.5-.136-.76-.2a.25.25,0,0,0-.247.078l0,.005L10.782,23.58a.25.25,0,0,0,.183.42h3.191a.251.251,0,0,0,.219-.128l0,0L18.3,17.184a.236.236,0,0,0,.033-.1A.24.24,0,0,0,18.31,16.962Z"/><circle cx="14" cy="9.25" r="1"/><circle cx="10" cy="9.25" r="1"/></svg>