<svg xmlns="http://www.w3.org/2000/svg" viewBox="0 0 24 24"><title>professions-man-astronaut</title><path d="M5.006,14.027a.244.244,0,0,0,.162-.168.249.249,0,0,0-.048-.229A7.109,7.109,0,0,1,3.5,9V8A8.444,8.444,0,0,1,4.687,3.672.251.251,0,0,0,4.434,3.3,3.752,3.752,0,0,0,1.25,7v8.374a.25.25,0,0,0,.384.211A14.864,14.864,0,0,1,5.006,14.027Z"/><path d="M20.5,8V9a7.109,7.109,0,0,1-1.62,4.63.25.25,0,0,0,.114.4,14.867,14.867,0,0,1,3.372,1.557.249.249,0,0,0,.384-.211V7a3.744,3.744,0,0,0-3.171-3.685.25.25,0,0,0-.256.374A8.448,8.448,0,0,1,20.5,8Z"/><path d="M22.533,16.917a13.476,13.476,0,0,0-4.655-2.186.249.249,0,0,0-.216.042A9.347,9.347,0,0,1,12,16.5a9.341,9.341,0,0,1-5.662-1.728.252.252,0,0,0-.216-.041,13.473,13.473,0,0,0-4.656,2.186A2.466,2.466,0,0,0,.5,18.894V23a.5.5,0,0,0,.5.5H23a.5.5,0,0,0,.5-.5V18.894A2.464,2.464,0,0,0,22.533,16.917ZM20.25,19a.75.75,0,0,1-.75.75h-2a.75.75,0,0,1,0-1.5h2A.75.75,0,0,1,20.25,19Zm-13,0a.75.75,0,0,1-.75.75h-2a.75.75,0,0,1,0-1.5h2A.75.75,0,0,1,7.25,19ZM8.5,19a.5.5,0,0,1,.5-.5h6a.5.5,0,0,1,.5.5v3.25a.25.25,0,0,1-.25.25H8.75a.25.25,0,0,1-.25-.25Z"/><path d="M12,15.5c3.733,0,7.5-2.01,7.5-6.5V8a7.5,7.5,0,0,0-15,0V9C4.5,13.49,8.267,15.5,12,15.5Zm0-13a5.451,5.451,0,0,1,5.5,5.4c0,2.982-2.462,3.6-5.5,3.6s-5.5-.618-5.5-3.6A5.451,5.451,0,0,1,12,2.5Z"/></svg>