<svg xmlns="http://www.w3.org/2000/svg" viewBox="0 0 24 24"><title>professions-woman-telecommunicator</title><path d="M18.483,13.37a.249.249,0,0,0-.238.173A6.874,6.874,0,0,1,16.113,16.6a.249.249,0,0,0,.046.412,2.441,2.441,0,0,0,1.156.257A5.117,5.117,0,0,0,20.884,15.6a.5.5,0,0,0-.231-.8,2.855,2.855,0,0,1-1.527-1.312.251.251,0,0,0-.214-.12Z"/><path d="M16.951,17.974l-.259-.074a.5.5,0,0,0-.537.18,5.556,5.556,0,0,1-2.129,1.553.247.247,0,0,0,.017.461l3.19,1.111a.25.25,0,0,0,.329-.275l-.433-2.754A.25.25,0,0,0,16.951,17.974Z"/><path d="M6.77,21.2l3.156-1.12a.247.247,0,0,0,.02-.459,5.535,5.535,0,0,1-2.1-1.539.5.5,0,0,0-.537-.18l-.259.074a.25.25,0,0,0-.178.2l-.432,2.747A.251.251,0,0,0,6.77,21.2Z"/><path d="M21.042,19.144l-2.5-.715a.25.25,0,0,0-.316.279l.519,3.3a.5.5,0,0,1-.659.549l-4.67-1.628a.5.5,0,0,0-.665.473V23.38a.5.5,0,0,0,.5.5H23.49a.51.51,0,0,0,.51-.51A4.531,4.531,0,0,0,21.042,19.144Z"/><path d="M5.431,22.474a.5.5,0,0,1-.175-.462l.518-3.3a.249.249,0,0,0-.315-.279l-2.538.727A4.52,4.52,0,0,0,0,23.37a.51.51,0,0,0,.51.51H10.75a.5.5,0,0,0,.5-.5v-2a.5.5,0,0,0-.667-.471L5.917,22.561A.5.5,0,0,1,5.431,22.474Z"/><path d="M8.381,9.079a.751.751,0,0,0,1.006,1.114.628.628,0,0,1,.625,0,.751.751,0,0,0,1.006-1.114A2.094,2.094,0,0,0,8.381,9.079Z"/><path d="M13.952,10.193a.628.628,0,0,1,.625,0,.751.751,0,0,0,1.006-1.114,2.094,2.094,0,0,0-2.637,0,.751.751,0,0,0,1.006,1.114Z"/><path d="M8.316,15.953a6.484,6.484,0,0,0,3.663,1.667,5.186,5.186,0,0,0,2.313-.716.75.75,0,0,0-.721-1.316,3.746,3.746,0,0,1-1.592.532c-1.032,0-3.83-1.49-4.207-3.738a1.749,1.749,0,0,0-1-1.307A1.272,1.272,0,0,1,6.21,9.98a.624.624,0,0,1,.1-.439.752.752,0,0,0,.406-.794c-.065-.391-.108-.762-.137-1.12a.252.252,0,0,1,.249-.27,6.641,6.641,0,0,0,4.927-1.8.187.187,0,0,1,.261,0,6.779,6.779,0,0,0,5.105,1.808.251.251,0,0,1,.184.081.246.246,0,0,1,.066.19c-.029.354-.071.72-.136,1.107a.749.749,0,0,0,.011.3v2.4a4.275,4.275,0,0,1-3.379,1.675h-1.5a.75.75,0,0,0,0,1.5h1.5a5.776,5.776,0,0,0,4.346-2H19.5a2.25,2.25,0,0,0,0-4.5h-.665c.281-2.543-.158-4.531-1.325-5.909S14.474.12,11.979.12,7.626.823,6.45,2.211C5.216,3.668,4.787,5.8,5.174,8.565a2.112,2.112,0,0,0-.464,1.444,3.109,3.109,0,0,0,.435,1.5,8.953,8.953,0,0,1-.255.866A3.61,3.61,0,0,1,2.847,14.8a.5.5,0,0,0-.231.8,5.117,5.117,0,0,0,3.569,1.673A2.214,2.214,0,0,0,8.316,15.953Z"/></svg>