<svg xmlns="http://www.w3.org/2000/svg" viewBox="0 0 24 24"><title>professions-man-doctor-1</title><path d="M12,19.279a.75.75,0,0,0-.75.75v2.5a.75.75,0,0,0,1.5,0v-2.5A.75.75,0,0,0,12,19.279Z"/><circle cx="14.75" cy="22.279" r="0.75"/><circle cx="14.75" cy="19.779" r="0.75"/><path d="M20.643,18.669l-2.905-.975a.75.75,0,1,0-.476,1.422l2.88.966a3.265,3.265,0,0,1,2.108,3.043.75.75,0,0,0,1.5,0A4.777,4.777,0,0,0,20.643,18.669Z"/><path d="M6.313,17.568l-2.98,1A4.771,4.771,0,0,0,.25,23.017a.75.75,0,0,0,1.5,0,3.259,3.259,0,0,1,2.084-3.035L6.79,18.99a.75.75,0,1,0-.477-1.422Z"/><path d="M8.489,9.255a.75.75,0,1,0,1.022,1.1.557.557,0,0,1,.557,0,.75.75,0,0,0,1.022-1.1A2.02,2.02,0,0,0,8.489,9.255Z"/><path d="M12.91,9.255a.75.75,0,1,0,1.022,1.1.557.557,0,0,1,.557,0,.75.75,0,0,0,1.022-1.1A2.02,2.02,0,0,0,12.91,9.255Z"/><path d="M17.811,12.6a2.731,2.731,0,0,0,1.439-2.434,1.884,1.884,0,0,0-.936-1.809A.75.75,0,0,0,17.645,9.7c.024.012.11.148.105.439a1.276,1.276,0,0,1-.559,1.1,1.7,1.7,0,0,0-.67.555.251.251,0,0,1-.289.087,12.694,12.694,0,0,0-8.5,0,.25.25,0,0,1-.289-.088,1.722,1.722,0,0,0-.673-.558,1.273,1.273,0,0,1-.559-1.1.626.626,0,0,1,.1-.439.75.75,0,1,0-.669-1.342,1.886,1.886,0,0,0-.935,1.81A2.731,2.731,0,0,0,6.149,12.6a.25.25,0,0,1,.144.187c.511,3.047,4.021,4.991,5.686,4.991s5.176-1.944,5.687-4.989A.254.254,0,0,1,17.811,12.6Zm-5.832,3.678a5.614,5.614,0,0,1-3.82-2.656.249.249,0,0,1,.134-.355,11.119,11.119,0,0,1,7.375-.005.251.251,0,0,1,.135.356A5.615,5.615,0,0,1,11.979,16.279Z"/><path d="M15.773,1.921a8.347,8.347,0,0,1,1.343.551.251.251,0,0,1,.134.222V5.467a.251.251,0,0,1-.085.188.256.256,0,0,1-.2.06c-.465-.063-.931-.117-1.395-.162a.75.75,0,0,0-.144,1.493c.814.079,1.638.187,2.449.323a.85.85,0,0,0,.123.01.752.752,0,0,0,.75-.75v-4.5a.749.749,0,0,0-.3-.6A7.838,7.838,0,0,0,16.227.491a.75.75,0,0,0-.454,1.43Z"/><path d="M6,7.379a.85.85,0,0,0,.123-.01c.811-.136,1.635-.244,2.449-.323a.75.75,0,0,0-.144-1.493c-.464.045-.93.1-1.4.162a.25.25,0,0,1-.283-.248V2.694a.251.251,0,0,1,.134-.222,8.255,8.255,0,0,1,1.343-.551A.75.75,0,1,0,7.773.491,7.838,7.838,0,0,0,5.55,1.529a.749.749,0,0,0-.3.6v4.5a.752.752,0,0,0,.75.75Z"/><path d="M12,6.625a3.25,3.25,0,1,0-3.25-3.25A3.254,3.254,0,0,0,12,6.625Zm0-2.25a1,1,0,1,1,1-1A1,1,0,0,1,12,4.375Z"/></svg>