<svg xmlns="http://www.w3.org/2000/svg" viewBox="0 0 24 24"><title>professions-man-clerk</title><path d="M.5,23.5A.5.5,0,0,0,1,24H23a.5.5,0,0,0,.5-.5V20.394a2.464,2.464,0,0,0-.967-1.977,11.707,11.707,0,0,0-2.168-1.279.249.249,0,0,1-.138-.283.63.63,0,0,0,0-.308.752.752,0,0,0-.49-.521,21.023,21.023,0,0,0-3.079-.765.756.756,0,0,0-.594.153l-3.906,3.118a.25.25,0,0,1-.312,0L7.938,15.414a.754.754,0,0,0-.594-.153,21.023,21.023,0,0,0-3.079.765.752.752,0,0,0-.49.521.63.63,0,0,0,0,.308.25.25,0,0,1-.138.283,11.707,11.707,0,0,0-2.168,1.279A2.464,2.464,0,0,0,.5,20.394Zm5.63-6.074a.249.249,0,0,1,.126-.41c.3-.072.6-.138.9-.2a.249.249,0,0,1,.2.05l3.2,2.551a.247.247,0,0,1,.094.2.25.25,0,0,1-.094.2l-1.137.907a.248.248,0,0,1-.341-.028Zm8.8,3.265a.248.248,0,0,1-.341.028l-1.137-.907a.25.25,0,0,1-.094-.2.247.247,0,0,1,.094-.2l3.2-2.551a.249.249,0,0,1,.2-.05c.3.058.6.124.9.2a.249.249,0,0,1,.126.41Z"/><path d="M12,16a7.008,7.008,0,0,0,7-7V7.5a.25.25,0,0,1,.25-.25H20a1,1,0,0,0,0-2h-.388a.249.249,0,0,1-.248-.221c-.14-1.186-.119-1.006-.13-1.1A2.06,2.06,0,0,0,17.25,2h-.365a.249.249,0,0,1-.175-.072,6.717,6.717,0,0,0-9.42,0A.249.249,0,0,1,7.115,2H6.75A2.057,2.057,0,0,0,4.767,3.912v0c-.013.117,0,.006-.13,1.114a.25.25,0,0,1-.248.221H4a1,1,0,0,0,0,2h.75A.25.25,0,0,1,5,7.5V9A7.008,7.008,0,0,0,12,16ZM6.772,4.2A.249.249,0,0,1,7.017,4l9.991-.015a.25.25,0,0,1,.248.212c.022.15.045.393.088.775a.251.251,0,0,1-.248.278H6.87A.219.219,0,0,1,6.653,5C6.7,4.6,6.744,4.35,6.772,4.2ZM12,14A5.006,5.006,0,0,1,7,9V7.5a.25.25,0,0,1,.25-.25h9.5A.25.25,0,0,1,17,7.5V9A5.006,5.006,0,0,1,12,14Z"/><circle cx="14" cy="9.25" r="1"/><circle cx="10" cy="9.25" r="1"/><path d="M13.077,11.362h-2a.639.639,0,0,0-.3,1.2,2.31,2.31,0,0,0,.435.18,2.99,2.99,0,0,0,.867.126h.006a2.976,2.976,0,0,0,.863-.125,2.3,2.3,0,0,0,.436-.181.639.639,0,0,0-.3-1.2Z"/></svg>