<svg xmlns="http://www.w3.org/2000/svg" viewBox="0 0 24 24"><title>professions-woman-magician</title><path d="M1,22.266v1.356a.25.25,0,0,0,.25.25h21.5a.25.25,0,0,0,.25-.25V22.266a1.976,1.976,0,0,0-.77-1.579C20.9,19.668,17.73,17.872,12,17.872s-8.895,1.8-10.23,2.815A1.976,1.976,0,0,0,1,22.266Zm7.277-2.307a.553.553,0,0,1,.756-.279l2.474,1.237a1.1,1.1,0,0,0,.986,0l2.474-1.237a.553.553,0,0,1,.756.279,3.729,3.729,0,0,1,0,2.823.553.553,0,0,1-.756.279l-2.474-1.237a1.1,1.1,0,0,0-.986,0L9.033,23.061a.553.553,0,0,1-.756-.279A3.729,3.729,0,0,1,8.277,19.959Z"/><path d="M1.455,7.692a1,1,0,0,0,.784,1.177c1.169.234,2.342.412,3.516.56a.251.251,0,0,1,.219.231c.034.522.026.33.026,1.65a.265.265,0,0,1-.008.063c-.333,1.284-.857,2.418-2.145,2.832a.5.5,0,0,0-.288.71A2.929,2.929,0,0,0,6.1,16.32a2.351,2.351,0,0,0,1.4-.423.25.25,0,0,1,.32.024,5.974,5.974,0,0,0,8.35,0,.25.25,0,0,1,.32-.024,2.346,2.346,0,0,0,1.4.423,2.929,2.929,0,0,0,2.542-1.405.5.5,0,0,0-.288-.71c-1.288-.414-1.812-1.548-2.145-2.832A.259.259,0,0,1,18,11.31a16.306,16.306,0,0,1,.028-1.649.251.251,0,0,1,.219-.232c1.173-.148,2.345-.326,3.514-.56a.995.995,0,0,0-.322-1.962l-.018,0a51.473,51.473,0,0,1-9.391.914,50.534,50.534,0,0,1-9.4-.916A1,1,0,0,0,1.455,7.692ZM8,11.622H8l0-1.591v-.015a.094.094,0,0,1,.028-.074A.091.091,0,0,1,8.1,9.916c1.3.1,2.6.169,3.9.169s2.6-.066,3.893-.169a.1.1,0,0,1,.079.029.1.1,0,0,1,.03.078c0,.021,0,.042,0,.063v1.536a4,4,0,0,1-8,0Z"/><path d="M18.026,6.433a.251.251,0,0,0,.219-.232L18.5,2.142a1,1,0,0,0-.626-.991A15.108,15.108,0,0,0,13.555.194a18.351,18.351,0,0,0-3.11,0,15.108,15.108,0,0,0-4.317.957,1,1,0,0,0-.626.991l.254,4.052a.25.25,0,0,0,.218.232A47.8,47.8,0,0,0,18.026,6.433Z"/><circle cx="14" cy="11.372" r="1"/><circle cx="10" cy="11.372" r="1"/><path d="M13.077,13.253h-2a.64.64,0,0,0-.3,1.2,2.443,2.443,0,0,0,.437.181,3.024,3.024,0,0,0,.867.126h.006a2.976,2.976,0,0,0,.863-.125,2.433,2.433,0,0,0,.436-.181.64.64,0,0,0-.3-1.2Z"/></svg>