<svg xmlns="http://www.w3.org/2000/svg" viewBox="0 0 24 24"><title>professions-man-bellboy</title><path d="M23,23a1.934,1.934,0,0,0-.77-1.554,13.516,13.516,0,0,0-4.952-2.175.227.227,0,0,0-.278.22.5.5,0,0,1-.185.387,7.594,7.594,0,0,1-4.088,1.643.249.249,0,0,0-.227.248V23.75a.25.25,0,0,0,.25.25h10a.25.25,0,0,0,.25-.25Z"/><path d="M16,17.4a.25.25,0,0,0-.39-.207,7.777,7.777,0,0,1-2.9,1.24.249.249,0,0,0-.207.246v1.548a.251.251,0,0,0,.277.249A6.518,6.518,0,0,0,15.9,19.319a.252.252,0,0,0,.1-.2Z"/><path d="M8,19.116a.25.25,0,0,0,.1.2,6.518,6.518,0,0,0,3.119,1.154.251.251,0,0,0,.277-.249v-1.54a.249.249,0,0,0-.209-.246,7.716,7.716,0,0,1-2.9-1.22A.25.25,0,0,0,8,17.425Z"/><path d="M7.185,19.873A.5.5,0,0,1,7,19.486a.227.227,0,0,0-.278-.22A13.516,13.516,0,0,0,1.77,21.441,1.934,1.934,0,0,0,1,23v.755a.25.25,0,0,0,.25.25h10a.25.25,0,0,0,.25-.25V21.764a.249.249,0,0,0-.227-.248A7.594,7.594,0,0,1,7.185,19.873Z"/><path d="M13.97,12.332a.752.752,0,0,0-1.059.078,1.249,1.249,0,0,1-.927.34h0a1.281,1.281,0,0,1-.936-.341.75.75,0,0,0-1.058-.076.74.74,0,0,0-.152.925.794.794,0,0,0,.075.133,2.4,2.4,0,0,0,.9.632,3.02,3.02,0,0,0,.788.191,3.228,3.228,0,0,0,.382.036h0a3.092,3.092,0,0,0,.412-.039,2.945,2.945,0,0,0,.745-.183,2.381,2.381,0,0,0,.906-.638.693.693,0,0,0,.074-.133A.739.739,0,0,0,13.97,12.332Z"/><path d="M9,10.026a.751.751,0,0,0,.511-.2.562.562,0,0,1,.557,0,.75.75,0,0,0,1.022-1.1,2.02,2.02,0,0,0-2.6,0A.75.75,0,0,0,9,10.026Z"/><path d="M13.421,10.026a.751.751,0,0,0,.511-.2.562.562,0,0,1,.557,0,.75.75,0,0,0,1.022-1.1,2.02,2.02,0,0,0-2.6,0,.75.75,0,0,0,.511,1.3Z"/><path d="M18.75,3.6A3.185,3.185,0,0,0,16.734.717a15.961,15.961,0,0,0-9.465,0A3.183,3.183,0,0,0,5.25,3.6L5.275,8a.251.251,0,0,1-.066.171,2.078,2.078,0,0,0-.5,1.473,2.731,2.731,0,0,0,1.439,2.433.252.252,0,0,1,.144.187c.511,3.048,4.021,4.991,5.686,4.991s5.176-1.943,5.687-4.989a.254.254,0,0,1,.145-.189A2.732,2.732,0,0,0,19.25,9.638a2.109,2.109,0,0,0-.469-1.446.253.253,0,0,1-.062-.166Zm-1.687,1a.25.25,0,0,1,.187.242V5.873a.25.25,0,0,1-.316.241,18.589,18.589,0,0,0-9.868,0,.25.25,0,0,1-.316-.241V4.841A.25.25,0,0,1,6.937,4.6,20.081,20.081,0,0,1,17.063,4.6Zm.128,6.107a1.746,1.746,0,0,0-1,1.3c-.378,2.249-3.176,3.739-4.209,3.739s-3.83-1.49-4.207-3.738a1.747,1.747,0,0,0-1-1.306A1.275,1.275,0,0,1,6.21,9.611a.619.619,0,0,1,.105-.44A.728.728,0,0,0,6.7,8.662a.251.251,0,0,1,.158-.182c.357-.133.717-.256,1.08-.36a14.678,14.678,0,0,1,8.083-.006c.361.1.719.223,1.074.354a.252.252,0,0,1,.159.186.73.73,0,0,0,.39.517.616.616,0,0,1,.105.439A1.278,1.278,0,0,1,17.191,10.706Z"/></svg>