<svg xmlns="http://www.w3.org/2000/svg" viewBox="0 0 24 24"><title>professions-man-post</title><path d="M4.5,8.757a.757.757,0,0,0,.3-.06s.092-.039.247-.1a.126.126,0,0,1,.156.056.062.062,0,0,1-.006.071,2.131,2.131,0,0,0-.443,1.416,2.734,2.734,0,0,0,1.439,2.435.253.253,0,0,1,.145.187c.511,3.047,4.021,4.991,5.687,4.991s5.175-1.944,5.687-4.992a.247.247,0,0,1,.143-.186,2.731,2.731,0,0,0,1.439-2.434,2.133,2.133,0,0,0-.441-1.417.06.06,0,0,1,0-.074.1.1,0,0,1,.037-.035.114.114,0,0,1,.1-.008c.14.054.218.086.223.089A.75.75,0,0,0,19.8,7.318c-.046-.02-.41-.172-1-.375a.251.251,0,0,1-.169-.225A33.27,33.27,0,0,0,17.989,2.4a.5.5,0,0,0-.318-.366l-5.5-2a.5.5,0,0,0-.342,0l-5.5,2a.5.5,0,0,0-.318.366,33.27,33.27,0,0,0-.633,4.319.251.251,0,0,1-.169.225c-.595.2-.959.355-1,.375a.75.75,0,0,0,.3,1.439ZM10,2.507a.5.5,0,0,1,.5-.5h3a.5.5,0,0,1,.5.5v.43a2.5,2.5,0,0,1-1.113,2.08l-.61.406a.5.5,0,0,1-.554,0l-.61-.406A2.5,2.5,0,0,1,10,2.937Zm7.28,6.375a.754.754,0,0,0,.406.793.624.624,0,0,1,.1.439,1.273,1.273,0,0,1-.559,1.095,1.745,1.745,0,0,0-1,1.306c-.378,2.249-3.176,3.739-4.208,3.739s-3.831-1.49-4.209-3.74a1.75,1.75,0,0,0-1-1.3,1.278,1.278,0,0,1-.559-1.1c0-.29.081-.426.105-.438a.753.753,0,0,0,.4-.8c-.032-.191-.06-.393-.085-.6a.248.248,0,0,1,.182-.27A19.632,19.632,0,0,1,12,7.257a19.689,19.689,0,0,1,5.183.763.25.25,0,0,1,.181.271C17.339,8.495,17.311,8.7,17.28,8.882Z"/><path d="M12.792,12.581a1.176,1.176,0,0,1-.222.094,1.964,1.964,0,0,1-1.1,0,1.131,1.131,0,0,1-.222-.094.751.751,0,0,0-.731,1.311,2.787,2.787,0,0,0,.5.214,3.417,3.417,0,0,0,1,.15,3.319,3.319,0,0,0,1-.149,2.648,2.648,0,0,0,.5-.216.75.75,0,0,0-.734-1.308Z"/><path d="M11.128,10.29a.749.749,0,0,0-.038-1.06,2.019,2.019,0,0,0-2.6,0,.75.75,0,0,0,1.022,1.1.557.557,0,0,1,.557,0A.749.749,0,0,0,11.128,10.29Z"/><path d="M12.91,9.23a.75.75,0,0,0,1.022,1.1.557.557,0,0,1,.557,0,.75.75,0,1,0,1.022-1.1A2.019,2.019,0,0,0,12.91,9.23Z"/><path d="M16.951,17.1l-.259-.074a.5.5,0,0,0-.537.18,5.534,5.534,0,0,1-2.129,1.552.248.248,0,0,0,.017.462l3.19,1.111a.25.25,0,0,0,.329-.275L17.129,17.3A.249.249,0,0,0,16.951,17.1Z"/><path d="M7.845,17.207a.5.5,0,0,0-.537-.18l-.259.074a.25.25,0,0,0-.178.2L6.439,20.05a.251.251,0,0,0,.331.275L9.926,19.2a.247.247,0,0,0,.02-.459A5.515,5.515,0,0,1,7.845,17.207Z"/><path d="M21.042,18.271l-2.5-.715a.25.25,0,0,0-.316.279l.519,3.305a.5.5,0,0,1-.494.577.474.474,0,0,1-.165-.029l-5-1.743a.249.249,0,0,0-.332.236v3.566A.25.25,0,0,0,13,24H23.5a.5.5,0,0,0,.5-.5v-1A4.531,4.531,0,0,0,21.042,18.271Z"/><path d="M5.917,21.688a.506.506,0,0,1-.167.029.5.5,0,0,1-.494-.577l.518-3.3a.247.247,0,0,0-.081-.226.252.252,0,0,0-.234-.053l-2.538.727A4.52,4.52,0,0,0,0,22.5v1a.5.5,0,0,0,.5.5H11a.25.25,0,0,0,.25-.25V20.152a.249.249,0,0,0-.106-.205.253.253,0,0,0-.228-.031Z"/></svg>