<svg xmlns="http://www.w3.org/2000/svg" viewBox="0 0 24 24"><title>professions-woman-nurse-1</title><circle cx="13.75" cy="9" r="1"/><circle cx="10" cy="9" r="1"/><path d="M10.457,11.613a.639.639,0,0,0,.315.719,2.3,2.3,0,0,0,.437.181,2.967,2.967,0,0,0,.868.126,3.016,3.016,0,0,0,.868-.125,2.3,2.3,0,0,0,.439-.182.639.639,0,0,0-.307-1.2h-2A.639.639,0,0,0,10.457,11.613Z"/><path d="M1,24a1,1,0,0,0,1-1V20.393a.972.972,0,0,1,.377-.784c1.194-.912,3.856-2.4,8.613-2.587a.253.253,0,0,1,.183.07.25.25,0,0,1,.077.18V23a.75.75,0,0,0,1.5,0V17.272a.25.25,0,0,1,.077-.18.253.253,0,0,1,.183-.07c4.757.189,7.419,1.675,8.614,2.588a.971.971,0,0,1,.376.783V23a1,1,0,0,0,2,0V20.393a2.957,2.957,0,0,0-1.163-2.374,11.624,11.624,0,0,0-1.533-.978.25.25,0,0,1-.019-.429c.366-.241.571-.4.589-.414a.5.5,0,0,0,.031-.76c-2.927-2.723-2.4-6.59-2.405-7.954a7.5,7.5,0,1,0-14.993.08c0,.768.7,4.984-2.412,7.874a.5.5,0,0,0,.031.76c.017.013.223.173.589.415a.25.25,0,0,1-.02.429,11.489,11.489,0,0,0-1.531.977A2.955,2.955,0,0,0,0,20.393V23A1,1,0,0,0,1,24ZM11.786,4.576a.25.25,0,0,1,.428,0,5,5,0,0,0,4.524,2.418.251.251,0,0,1,.262.25V9.5a5,5,0,1,1-10,0V7.244a.251.251,0,0,1,.262-.25A5,5,0,0,0,11.786,4.576Z"/><path d="M8.5,22.249a.75.75,0,0,0,0-1.5H8a.25.25,0,0,1-.25-.25V20a.75.75,0,0,0-1.5,0v.5a.25.25,0,0,1-.25.25H5.5a.75.75,0,0,0,0,1.5H6a.25.25,0,0,1,.25.25V23a.75.75,0,0,0,1.5,0v-.5a.25.25,0,0,1,.25-.25Z"/><circle cx="14.75" cy="19.25" r="1"/><path d="M15.75,22.25a1,1,0,0,0-2,0,1,1,0,0,0,2,0Z"/></svg>