<svg xmlns="http://www.w3.org/2000/svg" viewBox="0 0 24 24"><title>professions-man-office-2</title><path d="M24,22.379a4.53,4.53,0,0,0-1.753-3.565,7.1,7.1,0,0,0-3.056-1.156c-.245-.051-1.906-.46-2.538-.616a.5.5,0,0,0-.433.1A7.38,7.38,0,0,1,12,18.879a7.385,7.385,0,0,1-4.221-1.741.5.5,0,0,0-.432-.1c-.632.156-2.293.565-2.538.616a7.106,7.106,0,0,0-3.057,1.156A4.532,4.532,0,0,0,0,22.379v1a.5.5,0,0,0,.5.5H9.631a.5.5,0,0,0,.475-.346c.1-.3.311-.929.782-2.338a1.193,1.193,0,0,1,2.264,0c.47,1.409.684,2.038.781,2.336a.5.5,0,0,0,.475.346H23.5a.5.5,0,0,0,.5-.5Zm-4.229-1a.75.75,0,0,1-.75.75h-2a.75.75,0,0,1,0-1.5h2A.75.75,0,0,1,19.771,21.379Z"/><path d="M10.542,14.034a3.072,3.072,0,0,0,1.5.364h.006a3.094,3.094,0,0,0,1.5-.365.75.75,0,0,0-.734-1.308,1.62,1.62,0,0,1-.764.173h0a1.594,1.594,0,0,1-.772-.174.75.75,0,0,0-.73,1.31Z"/><path d="M12,17.629c1.665,0,5.176-1.944,5.688-4.992a.245.245,0,0,1,.142-.186,2.729,2.729,0,0,0,1.44-2.433,2.117,2.117,0,0,0-.464-1.443C20.076-.454,12.161.129,12,.129S3.924-.452,5.194,8.575a2.117,2.117,0,0,0-.464,1.443,2.729,2.729,0,0,0,1.44,2.433.249.249,0,0,1,.143.187C6.824,15.685,10.335,17.629,12,17.629ZM8.271,9.879a1,1,0,1,1,1,1A1,1,0,0,1,8.271,9.879Zm1-2.5a2.454,2.454,0,0,0-.775.135l.08-.4A4.983,4.983,0,0,0,12,5.9a4.983,4.983,0,0,0,3.424,1.217L15.5,7.5a2.443,2.443,0,0,0-3.1,1.629h-.755A2.5,2.5,0,0,0,9.271,7.379Zm5.5,1.5a1,1,0,1,1-1,1A1,1,0,0,1,14.771,8.879Zm2.44,2.205a1.73,1.73,0,0,0-.541.4,2.479,2.479,0,0,0,.6-1.607,2.414,2.414,0,0,0-.028-.271c.041,0,.077.021.118.021h.347a.77.77,0,0,1,.062.36A1.272,1.272,0,0,1,17.211,11.084ZM7.793,12.391a1.752,1.752,0,0,0-1-1.307A1.272,1.272,0,0,1,6.23,9.989a.77.77,0,0,1,.062-.36h.347A1.494,1.494,0,0,0,6.8,9.6a2.354,2.354,0,0,0-.028.279,2.524,2.524,0,0,0,2.5,2.5,2.5,2.5,0,0,0,2.372-1.75H12.4a2.5,2.5,0,0,0,2.373,1.75,2.6,2.6,0,0,0,1.744-.714,1.724,1.724,0,0,0-.307.725c-.378,2.249-3.176,3.739-4.208,3.739S8.17,14.639,7.793,12.391Z"/></svg>