<svg xmlns="http://www.w3.org/2000/svg" viewBox="0 0 24 24"><title>professions-woman-post</title><path d="M12.792,12.581a1.808,1.808,0,0,1-1.54,0,.751.751,0,0,0-.731,1.311,3.2,3.2,0,0,0,1.5.364,3.054,3.054,0,0,0,1.5-.365.75.75,0,0,0-.734-1.308Z"/><path d="M11.128,10.29a.749.749,0,0,0-.038-1.06,2.019,2.019,0,0,0-2.6,0,.75.75,0,0,0,1.022,1.1.562.562,0,0,1,.557,0A.75.75,0,0,0,11.128,10.29Z"/><path d="M12.91,9.23a.75.75,0,0,0,1.022,1.1.562.562,0,0,1,.557,0,.75.75,0,1,0,1.022-1.1A2.019,2.019,0,0,0,12.91,9.23Z"/><path d="M16.951,17.591l-.259-.074a.5.5,0,0,0-.537.18,5.544,5.544,0,0,1-2.129,1.552.248.248,0,0,0,.017.462l3.19,1.111a.25.25,0,0,0,.329-.275l-.433-2.755A.249.249,0,0,0,16.951,17.591Z"/><path d="M6.77,20.814,9.926,19.7a.247.247,0,0,0,.02-.459,5.515,5.515,0,0,1-2.1-1.539.5.5,0,0,0-.537-.18l-.259.074a.25.25,0,0,0-.178.2L6.439,20.54A.25.25,0,0,0,6.77,20.814Z"/><path d="M5.431,22.091a.5.5,0,0,1-.175-.462l.518-3.3a.249.249,0,0,0-.315-.279l-2.538.727A4.519,4.519,0,0,0,0,22.987v.51a.5.5,0,0,0,.5.5H10.75a.5.5,0,0,0,.5-.5V21a.5.5,0,0,0-.667-.471L5.917,22.178A.5.5,0,0,1,5.431,22.091Z"/><path d="M21.042,18.761l-2.5-.715a.247.247,0,0,0-.234.053.251.251,0,0,0-.082.226l.519,3.3a.5.5,0,0,1-.659.549l-4.67-1.628a.5.5,0,0,0-.665.472V23.5a.5.5,0,0,0,.5.5H23.5a.5.5,0,0,0,.5-.5v-.51A4.53,4.53,0,0,0,21.042,18.761Z"/><path d="M17.022,16.789a2.763,2.763,0,0,0,.793.109,5.117,5.117,0,0,0,3.569-1.673.5.5,0,0,0-.231-.8c-1.209-.389-1.857-1.71-2.207-2.939a3.126,3.126,0,0,0,.344-1.348A2.112,2.112,0,0,0,18.826,8.7c.007-.046.011-.1.017-.143.228.084.356.138.362.141A.75.75,0,0,0,19.8,7.318c-.05-.021-.477-.2-1.168-.429a32.023,32.023,0,0,0-.639-4.49.5.5,0,0,0-.318-.366l-5.5-2a.5.5,0,0,0-.342,0l-5.5,2a.5.5,0,0,0-.318.366,32.023,32.023,0,0,0-.639,4.49c-.691.229-1.118.408-1.168.429a.75.75,0,0,0,.3,1.439c.2,0,.257-.053.7-.217.007.053.012.108.019.159a2.113,2.113,0,0,0-.465,1.442,3.139,3.139,0,0,0,.32,1.3c-.345,1.245-1,2.6-2.223,2.993a.5.5,0,0,0-.231.8A5.117,5.117,0,0,0,6.185,16.9a2.763,2.763,0,0,0,.793-.109,2.07,2.07,0,0,0,1.168-.9,6.626,6.626,0,0,0,3.875,1.86,6.611,6.611,0,0,0,3.847-1.834A2.071,2.071,0,0,0,17.022,16.789ZM10,2.507a.5.5,0,0,1,.5-.5h3a.5.5,0,0,1,.5.5v.43a2.5,2.5,0,0,1-1.113,2.08l-.61.406a.5.5,0,0,1-.554,0l-.61-.406A2.5,2.5,0,0,1,10,2.937Zm2.021,13.747c-1.033,0-3.831-1.49-4.209-3.74a1.75,1.75,0,0,0-1-1.3,1.278,1.278,0,0,1-.559-1.1c0-.29.081-.426.105-.438a.751.751,0,0,0,.4-.8c-.032-.191-.06-.393-.085-.6a.248.248,0,0,1,.182-.27A19.632,19.632,0,0,1,12,7.257a19.689,19.689,0,0,1,5.183.763.249.249,0,0,1,.181.27c-.025.205-.053.4-.084.592a.754.754,0,0,0,.406.793.624.624,0,0,1,.1.439,1.273,1.273,0,0,1-.559,1.095,1.745,1.745,0,0,0-1,1.306C15.851,14.764,13.053,16.254,12.021,16.254Z"/></svg>