<svg xmlns="http://www.w3.org/2000/svg" viewBox="0 0 24 24"><title>project-book-building</title><path d="M22.625,6a1,1,0,0,0-1-1H6.125a1.5,1.5,0,0,1,0-3h15.5a1,1,0,0,0,0-2H6.125a3.5,3.5,0,0,0-3.5,3.5v3a.5.5,0,0,1-.5.5.75.75,0,0,0,0,1.5h2.75a.5.5,0,0,1,0,1H3.125a.5.5,0,0,0-.5.5v2a.5.5,0,0,1-.5.5.75.75,0,0,0,0,1.5h2.75a.5.5,0,0,1,0,1H3.125a.5.5,0,0,0-.5.5v2a.5.5,0,0,1-.5.5.75.75,0,0,0,0,1.5h2.75a.5.5,0,0,1,0,1H3.125a.5.5,0,0,0-.5.5,3,3,0,0,0,3,3h16a1,1,0,0,0,1-1Zm-5.75,13.25a.5.5,0,0,1-.5.5h-1.5a.5.5,0,0,1-.5-.5v-1a.5.5,0,0,0-.5-.5h-1a.5.5,0,0,0-.5.5v1a.5.5,0,0,1-.5.5h-1.5a.5.5,0,0,1-.5-.5v-7.5a.5.5,0,0,1,.276-.447l3-1.5a.5.5,0,0,1,.448,0l3,1.5a.5.5,0,0,1,.276.447Z"/><path d="M14.875,12.25h-3a.5.5,0,0,0,0,1h3a.5.5,0,0,0,0-1Z"/><path d="M14.875,14.75h-3a.5.5,0,0,0,0,1h3a.5.5,0,0,0,0-1Z"/></svg>