<svg xmlns="http://www.w3.org/2000/svg" viewBox="0 0 24 24"><title>project-blueprint-create</title><path d="M24,5.249a1,1,0,0,0-1-1h-.242a.251.251,0,0,0-.217.125,3.365,3.365,0,0,1-.54.7L19.828,7.249H20a1,1,0,0,1,1,1v3a.25.25,0,0,1-.25.25H16.5a.75.75,0,0,0,0,1.5h4.25a.25.25,0,0,1,.25.25v6a1,1,0,0,1-1,1H18.5a.25.25,0,0,1-.25-.25v-4.25A.75.75,0,0,0,17.5,15h-5a.75.75,0,0,0-.75.75V20a.25.25,0,0,1-.25.25H9A.25.25,0,0,1,8.75,20v-3.75A1.277,1.277,0,0,0,7.45,15H3.25a.25.25,0,0,1-.25-.25v-1.5A.25.25,0,0,1,3.25,13H8a.75.75,0,0,0,0-1.5H3.25a.25.25,0,0,1-.25-.25v-1A.25.25,0,0,1,3.25,10H8A.75.75,0,0,0,8,8.5H3.25A.25.25,0,0,1,3,8.249a1,1,0,0,1,1-1h7.156a.25.25,0,0,0,.245-.2l.138-.691a2,2,0,0,1,.547-1.022l.659-.659a.25.25,0,0,0-.177-.427H1a1,1,0,0,0-1,1v17a1,1,0,0,0,1,1H23a1,1,0,0,0,1-1ZM16.75,16.5v1h-3.5v-1ZM13.25,19h3.5v1.25h-3.5ZM7,16.5a.25.25,0,0,1,.25.25V20a.25.25,0,0,1-.25.25H4a1,1,0,0,1-1-1v-2.5a.25.25,0,0,1,.25-.25Z"/><path d="M13.146,6.4a.5.5,0,0,0-.136.256l-.5,2.5a.5.5,0,0,0,.136.451.5.5,0,0,0,.452.137l2.5-.5a.505.505,0,0,0,.256-.137L20.94,4.016a1.914,1.914,0,0,0-2.707-2.707Z"/></svg>