<svg xmlns="http://www.w3.org/2000/svg" viewBox="0 0 24 24"><title>project-blueprint-idea</title><path d="M23,12.5a1,1,0,0,0-1,1V15a.25.25,0,0,1-.25.25H19.5a.75.75,0,0,0,0,1.5h2.25A.25.25,0,0,1,22,17v1.5a.25.25,0,0,1-.25.25H20A1.251,1.251,0,0,0,18.75,20V21.75a.25.25,0,0,1-.25.25h-6a.25.25,0,0,1-.25-.25V20.5a.75.75,0,0,0-1.5,0V21.75a.25.25,0,0,1-.25.25H2.25A.25.25,0,0,1,2,21.75V16a.25.25,0,0,1,.25-.25H10.5a.25.25,0,0,1,.25.25v1.5a.75.75,0,0,0,1.5,0v-2A1.252,1.252,0,0,0,11,14.249H2.25A.25.25,0,0,1,2,14V12a.249.249,0,0,1,.25-.25H5A1.251,1.251,0,0,0,6.25,10.5v-2a.75.75,0,1,0-1.5,0V10.25H2.25A.25.25,0,0,1,2,10V6.751a.25.25,0,0,1,.25-.25H7a1,1,0,0,0,0-2H1.478A1.485,1.485,0,0,0,0,5.987V22.514A1.485,1.485,0,0,0,1.478,24H22.522A1.485,1.485,0,0,0,24,22.514V13.5A1,1,0,0,0,23,12.5Zm-2.75,7.75H22V22H20.25Z"/><path d="M14.727,10.454v.591a1.182,1.182,0,0,0,.773,1.109V13a1,1,0,1,0,2,0v-.845a1.183,1.183,0,0,0,.772-1.109v-.591A3.478,3.478,0,0,0,20.045,7.5,3.651,3.651,0,0,0,16.5,3.954,3.651,3.651,0,0,0,12.955,7.5,3.479,3.479,0,0,0,14.727,10.454Z"/><path d="M16.5,3.182a1,1,0,0,0,1-1V1a1,1,0,0,0-2,0V2.182A1,1,0,0,0,16.5,3.182Z"/><path d="M20.968,4.446,21.8,3.61A1,1,0,0,0,20.388,2.2l-.835.836a1,1,0,0,0,1.415,1.414Z"/><path d="M20.818,6.909a1,1,0,0,0,1,1H23a1,1,0,0,0,0-2H21.818A1,1,0,0,0,20.818,6.909Z"/><path d="M12.032,4.446a1,1,0,0,0,1.415-1.414L12.611,2.2A1,1,0,0,0,11.2,3.61Z"/><path d="M10,7.909h1.182a1,1,0,0,0,0-2H10a1,1,0,0,0,0,2Z"/></svg>