<svg xmlns="http://www.w3.org/2000/svg" viewBox="0 0 24 24"><title>promo-mail</title><path d="M14,6.5a1,1,0,0,0,1-1V2a2,2,0,0,0-2-2H2A2,2,0,0,0,0,2V17.5a2,2,0,0,0,2,2h.5a1,1,0,0,0,0-2A.5.5,0,0,1,2,17V2.5A.5.5,0,0,1,2.5,2h10a.5.5,0,0,1,.5.5v3A1,1,0,0,0,14,6.5Z"/><path d="M5,4.25a.75.75,0,0,0-1.5,0v9a.75.75,0,0,0,1.5,0Z"/><circle cx="7.5" cy="5" r="1.5"/><circle cx="16" cy="12.5" r="1.5"/><path d="M22,8H10a2,2,0,0,0-2,2v2.5a1,1,0,0,0,2,0v-2a.5.5,0,0,1,.5-.5h11a.5.5,0,0,1,.5.5v6a.5.5,0,0,1-.5.5h-2a1,1,0,0,0,0,2H22a2,2,0,0,0,2-2V10A2,2,0,0,0,22,8Z"/><path d="M5,17v5a2,2,0,0,0,2,2h8a2,2,0,0,0,2-2V17a2,2,0,0,0-2-2H7A2,2,0,0,0,5,17Zm10,4.5a.5.5,0,0,1-.5.5h-7a.5.5,0,0,1-.5-.5V19.577a.25.25,0,0,1,.343-.232L10.722,20.7a.756.756,0,0,0,.556,0l3.379-1.352a.25.25,0,0,1,.343.232ZM7.5,17h7a.5.5,0,0,1,.5.5.137.137,0,0,1-.086.127l-3.821,1.529a.259.259,0,0,1-.186,0L7.086,17.627A.137.137,0,0,1,7,17.5.5.5,0,0,1,7.5,17Z"/></svg>