<svg xmlns="http://www.w3.org/2000/svg" viewBox="0 0 24 24"><title>protection-shield</title><path d="M23.527,1.048A1.007,1.007,0,0,0,22.555,1,12.578,12.578,0,0,1,17,2a12.591,12.591,0,0,1-5.556-1A1,1,0,0,0,10,1.9V19.751a1,1,0,0,0,.448.835C11.092,21.011,13.018,22,17,22s5.908-.989,6.553-1.415A1,1,0,0,0,24,19.751V1.9A.991.991,0,0,0,23.527,1.048ZM20.5,9a.5.5,0,0,1-.5.5H14a.5.5,0,0,1-.5-.5V7a.5.5,0,0,1,.5-.5h6a.5.5,0,0,1,.5.5Z"/><path d="M6.5.5A1.5,1.5,0,0,0,5,2V14.25a.25.25,0,0,1-.25.25H1.5a1.5,1.5,0,0,0,0,3h6A.5.5,0,0,0,8,17V2A1.5,1.5,0,0,0,6.5.5Z"/><path d="M7.5,19h-2a.5.5,0,0,0-.5.5V22a1.5,1.5,0,0,0,3,0V19.5A.5.5,0,0,0,7.5,19Z"/></svg>