<svg xmlns="http://www.w3.org/2000/svg" viewBox="0 0 24 24"><title>protection-shield-bolt</title><path d="M24,1.953A1.959,1.959,0,0,0,22.044.006H1.959A1.958,1.958,0,0,0,.013,1.965L0,9.306A15.147,15.147,0,0,0,11.862,23.975a.974.974,0,0,0,.194.019,1,1,0,0,0,.2-.021A15.145,15.145,0,0,0,23.988,9.2Zm-7.895,8.511L8.9,18.4a.288.288,0,0,1-.478-.3l2.249-5.765a.251.251,0,0,0-.233-.341H8.315a.576.576,0,0,1-.5-.859L11.73,4.286a.574.574,0,0,1,.5-.292h2.886a.575.575,0,0,1,.493.873l-2.4,4.254a.249.249,0,0,0,.217.373h2.257a.576.576,0,0,1,.42.97Z"/></svg>