<svg xmlns="http://www.w3.org/2000/svg" viewBox="0 0 24 24"><title>protection-sand-bag-soldier</title><path d="M7.5,12h4.3a.5.5,0,0,0,.479-.357,6.492,6.492,0,0,1,.9-1.857A.5.5,0,0,0,12.764,9H2V8.25a.75.75,0,0,0-1.5,0v1.5a.75.75,0,0,0,.75.75H5.212A2.5,2.5,0,0,0,7.5,12Z"/><path d="M6.75,19.5H3.25a1.75,1.75,0,0,0,0,3.5h3.5a1.75,1.75,0,0,0,0-3.5Z"/><path d="M15.25,19.5h-3.5a1.75,1.75,0,0,0,0,3.5h3.5a1.75,1.75,0,0,0,0-3.5Z"/><path d="M18.5,8.5a5,5,0,0,0-5,5v.414a3.236,3.236,0,0,1,1,2.336,3.174,3.174,0,0,1-.189,1.081.5.5,0,0,0,.471.669h.468a3.254,3.254,0,0,1,3.25,3.25,3.218,3.218,0,0,1-.988,2.32.25.25,0,0,0,.174.43H22.5a1,1,0,0,0,1-1V13.5A5,5,0,0,0,18.5,8.5Z"/><path d="M7.75,14.5a1.75,1.75,0,0,0,0,3.5h3.5a1.75,1.75,0,0,0,0-3.5Z"/><path d="M16.05,5.5a.5.5,0,0,0-.49.6,3,3,0,0,0,5.88,0,.5.5,0,0,0-.491-.6Z"/><path d="M15.036,4h6.928a.5.5,0,0,0,.5-.571,4,4,0,0,0-7.919,0,.5.5,0,0,0,.5.571Z"/></svg>