<svg xmlns="http://www.w3.org/2000/svg" viewBox="0 0 24 24"><title>protection-sand-bag-soldier-1</title><path d="M15.44,6.1a.5.5,0,0,0-.491-.6h-4.9a.5.5,0,0,0-.49.6,3,3,0,0,0,5.88,0Z"/><path d="M9.036,4h6.927a.5.5,0,0,0,.5-.571,4,4,0,0,0-7.919,0,.5.5,0,0,0,.5.571Z"/><path d="M23.911,22.59l-1.867-4.1A.511.511,0,0,1,22,18.283v-5.27a2.844,2.844,0,0,0-.453-1.758.251.251,0,0,1-.046-.146V7.5a.75.75,0,0,0-.75-.75h-1.5a.75.75,0,0,0,0,1.5h.5A.25.25,0,0,1,20,8.5v1.793a.249.249,0,0,1-.167.235A.5.5,0,0,0,19.5,11V23a1,1,0,0,0,1,1H23a1,1,0,0,0,.912-1.41Z"/><path d="M5.25,20.5H1.75a1.75,1.75,0,0,0,0,3.5h3.5a1.75,1.75,0,0,0,0-3.5Z"/><path d="M13.75,20.5h-3.5a1.75,1.75,0,0,0,0,3.5h3.5a1.75,1.75,0,0,0,0-3.5Z"/><path d="M12.5,8.5A4.5,4.5,0,0,0,8,13v.75a.25.25,0,0,0,.25.25h1.5A3.254,3.254,0,0,1,13,17.25a3.168,3.168,0,0,1-.189,1.08.5.5,0,0,0,.47.67h.469a2.962,2.962,0,0,1,2.772,1.56.25.25,0,0,0,.469-.121L17,13A4.5,4.5,0,0,0,12.5,8.5Z"/><path d="M6.25,19h3.5a1.75,1.75,0,0,0,0-3.5H6.25a1.75,1.75,0,0,0,0,3.5Z"/></svg>