<svg xmlns="http://www.w3.org/2000/svg" viewBox="0 0 24 24"><title>protection-helmet-viking</title><path d="M4.311,8.991a.5.5,0,0,1,.034.635,9.431,9.431,0,0,0-1.7,3.94.5.5,0,0,1-.87.24,7.17,7.17,0,0,1-.022-9.367.543.543,0,0,1,.59-.159.532.532,0,0,1,.34.509A6.139,6.139,0,0,0,4.311,8.991Z"/><path d="M23.975,9.1a7.138,7.138,0,0,1-1.763,4.713.5.5,0,0,1-.868-.242,9.434,9.434,0,0,0-1.7-3.942.5.5,0,0,1,.037-.637,6.053,6.053,0,0,0,1.622-4.2.532.532,0,0,1,.94-.35A7.1,7.1,0,0,1,23.975,9.1Z"/><path d="M19.5,15.749a.5.5,0,0,0,.5-.5,8,8,0,0,0-16,0,.5.5,0,0,0,.5.5Z"/><path d="M4.5,17.249a.5.5,0,0,0-.5.5v1a1,1,0,0,0,1,1H19a1,1,0,0,0,1-1v-1a.5.5,0,0,0-.5-.5Z"/></svg>