<svg xmlns="http://www.w3.org/2000/svg" viewBox="0 0 24 24"><title>protection-sand-bag-1</title><path d="M5.25,20.5H1.75a1.75,1.75,0,0,0,0,3.5h3.5a1.75,1.75,0,0,0,0-3.5Z"/><path d="M5.25,15.5H1.75a1.75,1.75,0,0,0,0,3.5h3.5a1.75,1.75,0,0,0,0-3.5Z"/><path d="M18.25,19h3.5a1.75,1.75,0,0,0,0-3.5h-3.5a1.75,1.75,0,0,0,0,3.5Z"/><path d="M13.75,20.5h-3.5a1.75,1.75,0,0,0,0,3.5h3.5a1.75,1.75,0,0,0,0-3.5Z"/><path d="M22.25,20.5h-3.5a1.75,1.75,0,0,0,0,3.5h3.5a1.75,1.75,0,0,0,0-3.5Z"/><path d="M21.5,14a.5.5,0,0,0,.5-.5V12a4.505,4.505,0,0,0-4.5-4.5H13.25A.25.25,0,0,1,13,7.25V5.75a.25.25,0,0,1,.25-.25H17a.5.5,0,0,0,.5-.5V2a.5.5,0,0,0-.5-.5H13.25A.25.25,0,0,1,13,1.25a1.25,1.25,0,0,0-2.5,0v6a.25.25,0,0,1-.25.25H6.5A4.505,4.505,0,0,0,2,12v1.5a.5.5,0,0,0,.5.5H5.25A3.254,3.254,0,0,1,8.5,17.25a3.178,3.178,0,0,1-.189,1.081A.5.5,0,0,0,8.782,19h5.936a.5.5,0,0,0,.471-.669A3.178,3.178,0,0,1,15,17.25,3.254,3.254,0,0,1,18.25,14ZM16,12.5H8a1,1,0,0,1,0-2h8a1,1,0,0,1,0,2Z"/></svg>