<svg xmlns="http://www.w3.org/2000/svg" viewBox="0 0 24 24"><title>protection-vest</title><path d="M12,7.1c1.085,0,2.424-1.827,3.184-4.993a.25.25,0,0,0-.378-.269,5.363,5.363,0,0,1-2.8.718h0a5.372,5.372,0,0,1-2.81-.721.25.25,0,0,0-.379.269C9.575,5.276,10.914,7.1,12,7.1Z"/><path d="M23.97,12.412a1.008,1.008,0,0,0-.594-1.172c-3.882-1.59-3.371-4.891-2.442-8.423a1.5,1.5,0,0,0-.984-1.806L17.36.163a.246.246,0,0,0-.21.026.252.252,0,0,0-.116.177C16.345,5.31,14.347,8.6,12,8.6h0C9.651,8.6,7.654,5.309,6.965.363a.249.249,0,0,0-.326-.2l-2.592.853a1.5,1.5,0,0,0-.98,1.805C3.994,6.349,4.505,9.651.624,11.24A1.008,1.008,0,0,0,.03,12.412L2.725,23.1a1,1,0,0,0,.97.756h16.61a1,1,0,0,0,.97-.756ZM10,18.353a1,1,0,0,1-1,1H6a1,1,0,0,1-1-1v-1a1,1,0,0,1,1-1H9a1,1,0,0,1,1,1Zm0-5a1,1,0,0,1-1,1H7a1,1,0,0,1-1-1v-1a1,1,0,0,1,1-1H9a1,1,0,0,1,1,1Zm4-1a1,1,0,0,1,1-1h2a1,1,0,0,1,1,1v1a1,1,0,0,1-1,1H15a1,1,0,0,1-1-1Zm5,6a1,1,0,0,1-1,1H15a1,1,0,0,1-1-1v-1a1,1,0,0,1,1-1h3a1,1,0,0,1,1,1Z"/></svg>