<svg xmlns="http://www.w3.org/2000/svg" viewBox="0 0 24 24"><title>protection-shield-2</title><path d="M10,.223H1.959A1.96,1.96,0,0,0,.012,2.181L0,8.972a.5.5,0,0,0,.146.354A.5.5,0,0,0,.5,9.473H10a.5.5,0,0,0,.5-.5V.723A.5.5,0,0,0,10,.223Z"/><path d="M10,12.473H.635a.25.25,0,0,0-.243.306A15.215,15.215,0,0,0,10.17,23.736a.25.25,0,0,0,.33-.237V12.973A.5.5,0,0,0,10,12.473Z"/><path d="M23.357,12.473H14a.5.5,0,0,0-.5.5V23.527a.25.25,0,0,0,.33.237A15.211,15.211,0,0,0,23.6,12.779a.25.25,0,0,0-.244-.306Z"/><path d="M23.988,2.181A1.96,1.96,0,0,0,22.041.223H14a.5.5,0,0,0-.5.5v8.25a.5.5,0,0,0,.5.5h9.5a.5.5,0,0,0,.354-.147A.5.5,0,0,0,24,8.972Z"/></svg>