<svg xmlns="http://www.w3.org/2000/svg" viewBox="0 0 24 24"><title>public-service-firefighter-truck</title><path d="M24,8.5a1,1,0,0,0-1-1H21.75a.25.25,0,0,1-.25-.25V6.5a1.491,1.491,0,0,0-.643-1.223.251.251,0,0,1-.107-.205V3.5A1.252,1.252,0,0,0,19.5,2.25h-2A1.252,1.252,0,0,0,16.25,3.5V4.75A.25.25,0,0,1,16,5h-.75A.25.25,0,0,1,15,4.75v-2a.25.25,0,0,1,.25-.25.75.75,0,0,0,0-1.5A.25.25,0,0,1,15,.75a.75.75,0,0,0-1.5,0,.25.25,0,0,1-.25.25h-2.5A.25.25,0,0,1,10.5.75.75.75,0,0,0,9,.75.25.25,0,0,1,8.75,1a.75.75,0,0,0,0,1.5A.25.25,0,0,1,9,2.75v2A.25.25,0,0,1,8.75,5H8a.25.25,0,0,1-.25-.25V3.5A1.252,1.252,0,0,0,6.5,2.25h-2A1.252,1.252,0,0,0,3.25,3.5V5.072a.25.25,0,0,1-.107.205A1.491,1.491,0,0,0,2.5,6.5v.75a.25.25,0,0,1-.25.25H1a1,1,0,0,0-1,1v3a1,1,0,0,0,1,1H2.25a.25.25,0,0,1,.25.25v4.405a.251.251,0,0,1-.156.232A1.744,1.744,0,0,0,1.25,19v1.5A1.752,1.752,0,0,0,3,22.25h.25a.25.25,0,0,1,.25.25A1.5,1.5,0,0,0,5,24H6a1.5,1.5,0,0,0,1.5-1.5.25.25,0,0,1,.25-.25h8.5a.25.25,0,0,1,.25.25A1.5,1.5,0,0,0,18,24h1a1.5,1.5,0,0,0,1.5-1.5.25.25,0,0,1,.25-.25H21a1.752,1.752,0,0,0,1.75-1.75V19a1.744,1.744,0,0,0-1.094-1.613.251.251,0,0,1-.156-.232V12.75a.25.25,0,0,1,.25-.25H23a1,1,0,0,0,1-1Zm-10.75-6a.25.25,0,0,1,.25.25V4.5a.25.25,0,0,1-.25.25h-2.5a.25.25,0,0,1-.25-.25V2.75a.25.25,0,0,1,.25-.25Zm2.7,18.25a.249.249,0,0,1-.188-.086l-1.309-1.5a.25.25,0,0,1,.188-.414h1.846a.247.247,0,0,1,.188.086l1.309,1.5a.249.249,0,0,1-.188.414Zm-9.754,0a.249.249,0,0,1-.188-.414l1.309-1.5a.247.247,0,0,1,.188-.086H9.355a.25.25,0,0,1,.188.414l-1.309,1.5a.249.249,0,0,1-.188.086ZM18.5,6.5a1,1,0,0,1,1,1V12a.5.5,0,0,1-.5.5H13.25a.5.5,0,0,1-.5-.5V7a.5.5,0,0,1,.5-.5Zm1.25,9a1.25,1.25,0,1,1-1.25-1.25A1.25,1.25,0,0,1,19.75,15.5Zm-4.5.5a.75.75,0,0,1-.75.75h-5a.75.75,0,0,1,0-1.5h5A.75.75,0,0,1,15.25,16Zm-4.5-9.5a.5.5,0,0,1,.5.5v5a.5.5,0,0,1-.5.5H5a.5.5,0,0,1-.5-.5V7.5a1,1,0,0,1,1-1Zm-4,9A1.25,1.25,0,1,1,5.5,14.25,1.25,1.25,0,0,1,6.75,15.5Zm5.076,3.329a.231.231,0,0,1,.348,0l1.314,1.507a.249.249,0,0,1-.188.414H10.7a.249.249,0,0,1-.188-.414ZM17.75,4A.25.25,0,0,1,18,3.75h1a.25.25,0,0,1,.25.25v.5a.25.25,0,0,1-.25.25H18a.25.25,0,0,1-.25-.25Zm-13,0A.25.25,0,0,1,5,3.75H6A.25.25,0,0,1,6.25,4v.5A.25.25,0,0,1,6,4.75H5a.25.25,0,0,1-.25-.25Zm-2,16.5V19A.25.25,0,0,1,3,18.75H4.855a.25.25,0,0,1,.188.414l-1.309,1.5a.249.249,0,0,1-.188.086H3A.25.25,0,0,1,2.75,20.5Zm18.5,0a.25.25,0,0,1-.25.25h-.546a.249.249,0,0,1-.188-.086l-1.309-1.5a.25.25,0,0,1,.188-.414H21a.25.25,0,0,1,.25.25Z"/></svg>