<svg xmlns="http://www.w3.org/2000/svg" viewBox="0 0 24 24"><title>public-service-ambulance-1</title><path d="M22,17.743a1,1,0,0,0,1-1V1.25a1,1,0,0,0-1-1H2a1,1,0,0,0-1,1V16.743a1,1,0,0,0,1,1A.146.146,0,0,1,2.092,18a2.244,2.244,0,0,0,1.183,3.985.249.249,0,0,1,.225.249v.512a1,1,0,0,0,1,1h2a1,1,0,0,0,1-1v-.5A.25.25,0,0,1,7.75,22h8.5a.25.25,0,0,1,.25.25v.5a1,1,0,0,0,1,1h2a1,1,0,0,0,1-1v-.512a.249.249,0,0,1,.225-.249A2.247,2.247,0,0,0,21.909,18,.145.145,0,0,1,22,17.743ZM18,2.75a.5.5,0,0,1,.5-.5h2a.5.5,0,0,1,.5.5v1a.5.5,0,0,1-.5.5h-2a.5.5,0,0,1-.5-.5Zm2,12.493V17a.5.5,0,0,1-.5.5h-2A.5.5,0,0,1,17,17V15.243a.5.5,0,0,1,.5-.5h2A.5.5,0,0,1,20,15.243ZM8,2.75a.5.5,0,0,1,.5-.5h7a.5.5,0,0,1,.5.5v1a.5.5,0,0,1-.5.5h-7a.5.5,0,0,1-.5-.5Zm9.755,3.993a.436.436,0,0,1,.416.3l1.288,4.561a.5.5,0,0,1-.481.636H5.029a.5.5,0,0,1-.481-.636L5.829,7.046a.437.437,0,0,1,.416-.3Zm-11.255,8a.5.5,0,0,1,.5.5V17a.5.5,0,0,1-.5.5h-2A.5.5,0,0,1,4,17V15.243a.5.5,0,0,1,.5-.5ZM3,2.75a.5.5,0,0,1,.5-.5h2a.5.5,0,0,1,.5.5v1a.5.5,0,0,1-.5.5h-2a.5.5,0,0,1-.5-.5ZM20.5,20.5H3.5A.749.749,0,0,1,3.488,19H20.512a.749.749,0,0,1-.012,1.5Z"/></svg>