<svg xmlns="http://www.w3.org/2000/svg" viewBox="0 0 24 24"><title>public-service-ambulance</title><path d="M23.384,18.884A1.242,1.242,0,0,0,23.75,18V4.75A1.753,1.753,0,0,0,22,3H19.873a.249.249,0,0,1-.242-.188A3.756,3.756,0,0,0,16,0H8A3.756,3.756,0,0,0,4.369,2.812.249.249,0,0,1,4.127,3H2A1.751,1.751,0,0,0,.25,4.75V18a1.234,1.234,0,0,0,.894,1.181.25.25,0,0,1,.172.3A2.107,2.107,0,0,0,1.25,20a2.253,2.253,0,0,0,2.025,2.239.25.25,0,0,1,.225.249V23a1,1,0,0,0,1,1h2a1,1,0,0,0,1-1v-.5a.25.25,0,0,1,.25-.25h8.5a.25.25,0,0,1,.25.25V23a1,1,0,0,0,1,1h2a1,1,0,0,0,1-1v-.512a.25.25,0,0,1,.225-.249A2.253,2.253,0,0,0,22.75,20a2.137,2.137,0,0,0-.065-.515.249.249,0,0,1,.176-.3A1.175,1.175,0,0,0,23.384,18.884Zm-2.732-7.2a.252.252,0,0,1-.044.217.25.25,0,0,1-.2.1H3.389a.25.25,0,0,1-.242-.314l1.642-6.24a.5.5,0,0,1,.48-.35h13.26a.5.5,0,0,1,.48.35ZM4.251,17.25a.5.5,0,0,1-.5-.5V14.8a.5.5,0,0,1,.6-.49,3,3,0,0,1,2.34,2.34.5.5,0,0,1-.1.416.5.5,0,0,1-.387.184ZM8,16.75v-1a.5.5,0,0,1,.5-.5h7a.5.5,0,0,1,.5.5v1a.5.5,0,0,1-.5.5h-7A.5.5,0,0,1,8,16.75Zm9.31-.1a3,3,0,0,1,2.34-2.34.5.5,0,0,1,.6.49v1.95a.5.5,0,0,1-.5.5H17.8a.5.5,0,0,1-.491-.6Zm.638-14.025A.25.25,0,0,1,17.732,3H16a.25.25,0,0,1-.25-.25v-1A.25.25,0,0,1,16,1.5,2.252,2.252,0,0,1,17.948,2.625ZM8,1.5a.25.25,0,0,1,.25.25v1A.25.25,0,0,1,8,3H6.268a.25.25,0,0,1-.216-.375A2.252,2.252,0,0,1,8,1.5ZM21.25,20a.75.75,0,0,1-.75.75H3.5a.744.744,0,0,1-.337-1.41H20.837A.743.743,0,0,1,21.25,20Z"/></svg>