<svg xmlns="http://www.w3.org/2000/svg" viewBox="0 0 24 24"><title>public-service-firefighter-truck-1</title><path d="M23.473,10.861,2.452.124A1,1,0,0,0,1.543,1.9l16.889,8.626a.25.25,0,0,1-.114.472H12.485a1,1,0,0,0-1,1v8.49a.249.249,0,0,1-.249.25h-1a.25.25,0,0,1-.25-.25V12a1.5,1.5,0,0,0-1.5-1.5H5.284a1.527,1.527,0,0,0-1.34.848L1.892,15.906a.25.25,0,0,1-.124.124L.44,16.641a.922.922,0,0,0-.44.813v3.785a.989.989,0,0,0,1,1h.513a.246.246,0,0,0,.185-.083.252.252,0,0,0,.064-.193,2.058,2.058,0,0,1-.013-.224,3.246,3.246,0,0,1,6.492,0,2.058,2.058,0,0,1-.013.224.252.252,0,0,0,.249.276H15.5a.252.252,0,0,0,.249-.276,2.058,2.058,0,0,1-.013-.224,3.246,3.246,0,0,1,6.492,0,2.06,2.06,0,0,1-.012.224.243.243,0,0,0,.063.193.249.249,0,0,0,.186.083h.513a.988.988,0,0,0,1-1V12l0-.012A.985.985,0,0,0,23.473,10.861ZM7.99,15.746A.248.248,0,0,1,7.741,16H4.427a.25.25,0,0,1-.21-.114.254.254,0,0,1-.018-.238l1.348-3a.248.248,0,0,1,.227-.147H7.741a.248.248,0,0,1,.249.249Z"/><path d="M8.74,9.5a.749.749,0,0,0,.749-.749v-.5A1.75,1.75,0,0,0,7.741,6.507h-1A1.75,1.75,0,0,0,4.994,8.255v.5a.749.749,0,0,0,.749.749Z"/><circle cx="4.994" cy="21.738" r="2.247"/><circle cx="18.977" cy="21.738" r="2.247"/></svg>