<svg xmlns="http://www.w3.org/2000/svg" viewBox="0 0 24 24"><title>punishment-handcuffs</title><path d="M8.832,13.8,8.079,10.76A1,1,0,0,0,7.108,10H3.891a1,1,0,0,0-.971.759l-.742,2.989a1.5,1.5,0,0,1-.431.732A5.5,5.5,0,1,0,11,18.5a5.233,5.233,0,0,0-1.735-3.961A1.491,1.491,0,0,1,8.832,13.8ZM5.5,21A2.5,2.5,0,1,1,8,18.5,2.5,2.5,0,0,1,5.5,21Z"/><path d="M22.265,14.539a1.491,1.491,0,0,1-.433-.735l-.753-3.044a1,1,0,0,0-.971-.76H16.891a1,1,0,0,0-.971.759l-.742,2.989a1.5,1.5,0,0,1-.431.732A5.5,5.5,0,1,0,24,18.5,5.233,5.233,0,0,0,22.265,14.539ZM18.5,21A2.5,2.5,0,1,1,21,18.5,2.5,2.5,0,0,1,18.5,21Z"/><path d="M17.25,7.75v.5a.5.5,0,0,0,.5.5h1.5a.5.5,0,0,0,.5-.5v-.5a7.75,7.75,0,0,0-15.5,0v.5a.5.5,0,0,0,.5.5h1.5a.5.5,0,0,0,.5-.5v-.5a5.25,5.25,0,0,1,10.5,0Z"/></svg>