<svg id="Bold" xmlns="http://www.w3.org/2000/svg" viewBox="0 0 24 24"><title>rabbit-side</title><path d="M21.6,7.655,10.492.9A2.249,2.249,0,1,0,8.154,4.742l6.857,4.172a4.955,4.955,0,0,0-.782,1.514H6.5a6.5,6.5,0,0,0,0,13h4.83a.5.5,0,0,0,.5-.5V21.759a.416.416,0,0,0-.416-.416h-3.5a.751.751,0,0,1-.744-.842,4.792,4.792,0,0,0-.7-3.236A1.85,1.85,0,0,0,5,16.678a.75.75,0,0,1,0-1.5,3.31,3.31,0,0,1,2.6,1.1,5.564,5.564,0,0,1,1.1,3.568h2.713a1.918,1.918,0,0,1,1.916,1.916v1.169a.5.5,0,0,0,.5.5H17.5a1.5,1.5,0,0,0,.019-3,5.435,5.435,0,0,0,1.462-3.5H19a5,5,0,0,0,2.6-9.273Zm-2.1,4.273a1,1,0,1,1,1-1A1,1,0,0,1,19.5,11.928Z"/></svg>