<svg id="Bold" xmlns="http://www.w3.org/2000/svg" viewBox="0 0 24 24"><title>raccoon-1</title><circle cx="8.998" cy="4.631" r="1"/><path d="M10.284,15.5a.5.5,0,0,0-.712-.02L4.448,20.408a.5.5,0,0,0,.031.748,12.081,12.081,0,0,0,6.871,2.7.5.5,0,0,0,.532-.5V17.106a.5.5,0,0,0-.231-.421A7.152,7.152,0,0,1,10.284,15.5Z"/><path d="M7.287,12.383c-1.516-1.143-4.1-1.241-5.5-1.191a1.689,1.689,0,0,0-1.219.582,1.725,1.725,0,0,0-.429,1.283A11.641,11.641,0,0,0,2.644,19.3a.5.5,0,0,0,.738.049l5.232-5.027a.5.5,0,0,0,.02-.7A10.4,10.4,0,0,0,7.287,12.383Z"/><path d="M16.291.92a2.663,2.663,0,0,1-.261,2.713,2.263,2.263,0,0,1-1.809.785,3.662,3.662,0,0,1-.892-.116A.75.75,0,0,1,13.7,2.847c.32.082.9.168,1.176-.167a1.236,1.236,0,0,0,0-1.255A2.308,2.308,0,0,0,13.149.19C12.8.159,12.455.142,12.1.142c-4.746,0-6,1.626-7,2.933A2.694,2.694,0,0,1,2.519,4.5a.752.752,0,0,0-.7,1.028C1.869,5.643,3,8.414,5.39,8.414h6.437v.7c0,4.322,1.476,6.935,3.958,7.034a7.4,7.4,0,0,0,1.795-3.3.75.75,0,0,1,1.467.311c-.926,4.534-3.565,4.594-5.086,4.349a.5.5,0,0,0-.579.494v5.24a.5.5,0,0,0,.58.494A11.9,11.9,0,0,0,16.291.92Zm-5.5,4.813a2.27,2.27,0,0,1-3.068,0L6.594,4.807a.255.255,0,0,1-.04-.348A4.686,4.686,0,0,1,9.227,2.507a.256.256,0,0,1,.249.066l.863.876C11.176,4.294,11.342,5.127,10.793,5.733Z"/></svg>