<svg id="Bold" xmlns="http://www.w3.org/2000/svg" viewBox="0 0 24 24"><title>radiology-scanning</title><path d="M18.5,8.5H5.5A1.5,1.5,0,0,0,4,10v8a1.5,1.5,0,0,0,1.5,1.5h13A1.5,1.5,0,0,0,20,18V10A1.5,1.5,0,0,0,18.5,8.5Zm-.783,3.468A.751.751,0,0,1,17,12.5a.739.739,0,0,1-.22-.033l-1.616-.494a10.793,10.793,0,0,0-2.14-.421.25.25,0,0,0-.274.249v1.26a.249.249,0,0,0,.223.248,8.742,8.742,0,0,1,2.2.535l1.309.507a.75.75,0,0,1-.271,1.449.761.761,0,0,1-.271-.051l-1.309-.507a7.181,7.181,0,0,0-1.593-.412.249.249,0,0,0-.2.058.254.254,0,0,0-.086.189V16.25a.25.25,0,0,0,.25.25h1A.75.75,0,0,1,14,18H10a.75.75,0,0,1,0-1.5h1a.25.25,0,0,0,.25-.25V15.076a.249.249,0,0,0-.285-.247,7.181,7.181,0,0,0-1.593.412l-1.309.507a.75.75,0,0,1-.542-1.4l1.309-.507a8.742,8.742,0,0,1,2.2-.535.249.249,0,0,0,.223-.248V11.8a.25.25,0,0,0-.274-.249,10.793,10.793,0,0,0-2.14.421l-1.616.494a.75.75,0,0,1-.44-1.434L8.4,10.538a12.379,12.379,0,0,1,7.208,0l1.616.494A.75.75,0,0,1,17.717,11.968Z"/><path d="M14.083,21H9.917a.5.5,0,0,0-.5.521l.083,2A.5.5,0,0,0,10,24h4a.5.5,0,0,0,.5-.479l.083-2a.5.5,0,0,0-.5-.521Z"/><circle cx="12" cy="3.5" r="3.5"/></svg>