<svg id="Bold" xmlns="http://www.w3.org/2000/svg" viewBox="0 0 24 24"><title>radiology-scan-doctor</title><path d="M22.5,0h-10A1.5,1.5,0,0,0,11,1.5v10A1.5,1.5,0,0,0,12.5,13h10A1.5,1.5,0,0,0,24,11.5V1.5A1.5,1.5,0,0,0,22.5,0Zm-.445,5A.749.749,0,0,1,21,5.055l-.642-.583-.088-.052a3.22,3.22,0,0,0-1.037-.17H18.75a.5.5,0,0,0-.5.5v.525a.5.5,0,0,0,.452.5A4.79,4.79,0,0,1,19.77,6a1.762,1.762,0,0,1,.5.27l.891.686a.75.75,0,0,1-.916,1.188l-.887-.684a3.545,3.545,0,0,0-.511-.149.5.5,0,0,0-.6.49v.95a.5.5,0,0,0,.5.5H19a.75.75,0,0,1,0,1.5H16a.75.75,0,0,1,0-1.5h.25a.5.5,0,0,0,.5-.5V7.8a.5.5,0,0,0-.592-.492,3.209,3.209,0,0,0-.448.117l-.959.722a.75.75,0,1,1-.916-1.188l.888-.684A1.766,1.766,0,0,1,15.231,6,4.77,4.77,0,0,1,16.3,5.771a.5.5,0,0,0,.452-.5V4.75a.5.5,0,0,0-.5-.5h-.479a3.22,3.22,0,0,0-1.037.17l-.088.052L14,5.055A.75.75,0,1,1,13,3.945l.641-.583A1.715,1.715,0,0,1,14.256,3a4.73,4.73,0,0,1,1.515-.248h3.458A4.752,4.752,0,0,1,20.746,3a1.724,1.724,0,0,1,.618.365l.64.582A.75.75,0,0,1,22.055,5Z"/><path d="M6.641,9.133A4.082,4.082,0,1,0,3.1,9.072,4.769,4.769,0,0,0,0,13.526v2.851a.5.5,0,0,0,.5.5H1.732a.5.5,0,0,1,.5.45l.622,6.224a.5.5,0,0,0,.5.45H6.2a.5.5,0,0,0,.5-.45l.623-6.224a.5.5,0,0,1,.5-.45H9.048A.5.5,0,0,0,9.4,16.73a.5.5,0,0,0,.146-.353V13.526A4.781,4.781,0,0,0,6.641,9.133ZM5.524,13.217a.75.75,0,0,1-1.5,0V11.525a.75.75,0,0,1,1.5,0Zm-.6-5.692A2.077,2.077,0,0,1,2.85,5.451a1.981,1.981,0,0,1,.094-.6.249.249,0,0,1,.368-.138,5.076,5.076,0,0,0,2.638.737A5.152,5.152,0,0,0,6.7,5.4a.251.251,0,0,1,.286.267A2.075,2.075,0,0,1,4.925,7.525Z"/></svg>