<svg xmlns="http://www.w3.org/2000/svg" viewBox="0 0 24 24"><title>railroad-locomotive-cargo</title><path d="M1.5,13.25h21a.5.5,0,0,0,.5-.5V4.25a1.5,1.5,0,0,0-1.5-1.5H2.5A1.5,1.5,0,0,0,1,4.25v8.5A.5.5,0,0,0,1.5,13.25Zm16.45-7.5a.8.8,0,0,1,1.6,0v4.5a.8.8,0,0,1-1.6,0Zm-4.5,0a.8.8,0,0,1,1.6,0v4.5a.8.8,0,0,1-1.6,0Zm-4.5,0a.8.8,0,1,1,1.6,0v4.5a.8.8,0,0,1-1.6,0Zm-4.5,0a.8.8,0,0,1,1.6,0v4.5a.8.8,0,1,1-1.6,0Z"/><circle cx="2.667" cy="19.25" r="2"/><circle cx="7.333" cy="19.25" r="2"/><circle cx="21.333" cy="19.25" r="2"/><circle cx="16.667" cy="19.25" r="2"/><path d="M23,14.5H1a1,1,0,0,0,0,2H23a1,1,0,0,0,0-2Z"/></svg>