<svg xmlns="http://www.w3.org/2000/svg" viewBox="0 0 24 24"><title>railroad</title><path d="M4,0A1,1,0,0,0,3,1V2.75A.25.25,0,0,1,2.75,3H1A1,1,0,0,0,0,4V7A1,1,0,0,0,1,8H2.75A.25.25,0,0,1,3,8.25v1.5a.25.25,0,0,1-.25.25H1a1,1,0,0,0-1,1v3a1,1,0,0,0,1,1H2.75a.25.25,0,0,1,.25.25v1.5a.25.25,0,0,1-.25.25H1a1,1,0,0,0-1,1v3a1,1,0,0,0,1,1H2.75a.25.25,0,0,1,.25.25V23a1,1,0,0,0,2,0V1A1,1,0,0,0,4,0Z"/><path d="M16,0a1,1,0,0,0-1,1V2.75a.25.25,0,0,1-.25.25H9.25A.25.25,0,0,1,9,2.75V1A1,1,0,0,0,7,1V23a1,1,0,0,0,2,0v-.75A.25.25,0,0,1,9.25,22h5.5a.25.25,0,0,1,.25.25V23a1,1,0,0,0,2,0V1A1,1,0,0,0,16,0ZM15,16.75a.25.25,0,0,1-.25.25H9.25A.25.25,0,0,1,9,16.75v-1.5A.25.25,0,0,1,9.25,15h5.5a.25.25,0,0,1,.25.25Zm0-7a.25.25,0,0,1-.25.25H9.25A.25.25,0,0,1,9,9.75V8.25A.25.25,0,0,1,9.25,8h5.5a.25.25,0,0,1,.25.25Z"/><path d="M21.25,8H23a1,1,0,0,0,1-1V4a1,1,0,0,0-1-1H21.25A.25.25,0,0,1,21,2.75V1a1,1,0,0,0-2,0V23a1,1,0,0,0,2,0v-.75a.25.25,0,0,1,.25-.25H23a1,1,0,0,0,1-1V18a1,1,0,0,0-1-1H21.25a.25.25,0,0,1-.25-.25v-1.5a.25.25,0,0,1,.25-.25H23a1,1,0,0,0,1-1V11a1,1,0,0,0-1-1H21.25A.25.25,0,0,1,21,9.75V8.25A.25.25,0,0,1,21.25,8Z"/></svg>