<svg xmlns="http://www.w3.org/2000/svg" viewBox="0 0 24 24"><title>railroad-metro</title><path d="M23.926,22.489l-3.872-9.5a.251.251,0,0,1,0-.179A13.435,13.435,0,0,0,20.9,8.3a8.077,8.077,0,0,0-2.051-5.7C17.293.962,14.989.134,12,.134S6.706.962,5.153,2.6A8.077,8.077,0,0,0,3.1,8.3a13.416,13.416,0,0,0,.826,4.456.254.254,0,0,1,0,.178L.072,22.492a1,1,0,0,0,1.856.748l.188-.468a.25.25,0,0,1,.232-.156h19.3a.249.249,0,0,1,.231.156l.193.471a1,1,0,0,0,.926.623.981.981,0,0,0,.377-.074A1,1,0,0,0,23.926,22.489Zm-5.877-5.928q.29-.383.554-.792a.25.25,0,0,1,.441.042l.329.806a.251.251,0,0,1-.232.345h-.892a.251.251,0,0,1-.2-.4ZM6.614,6.972a.753.753,0,0,1,.639-.356h9.5A.751.751,0,0,1,17.423,7.7l-.75,1.5A.75.75,0,0,1,16,9.616H8A.749.749,0,0,1,7.332,9.2l-.75-1.5A.75.75,0,0,1,6.614,6.972Zm8.021,10.309a4.514,4.514,0,0,1-5.27,0,2.021,2.021,0,0,1-.14-2.094A3.062,3.062,0,0,1,12,13.634a3.062,3.062,0,0,1,2.774,1.552A2.023,2.023,0,0,1,14.635,17.281ZM4.6,16.618l.338-.838a.249.249,0,0,1,.442-.042q.273.425.574.823a.251.251,0,0,1-.2.4H4.828a.25.25,0,0,1-.232-.344Zm16.242,3.887a.25.25,0,0,1-.207.111H3.355a.25.25,0,0,1-.207-.11.253.253,0,0,1-.025-.234l.466-1.154a.249.249,0,0,1,.231-.156H8.232A.251.251,0,0,1,8.365,19a7.116,7.116,0,0,0,2.716,1.058,5.588,5.588,0,0,0,1.837,0A7.123,7.123,0,0,0,15.634,19a.251.251,0,0,1,.133-.038H20.16a.25.25,0,0,1,.232.155l.47,1.155A.245.245,0,0,1,20.838,20.505Z"/></svg>