<svg xmlns="http://www.w3.org/2000/svg" viewBox="0 0 24 24"><title>railroad-train</title><path d="M23.015,22.143l-2.826-1.7a.25.25,0,0,1-.067-.37A1.726,1.726,0,0,0,20.5,19V12.979c0-.014,0-.028,0-.041L20,7a3,3,0,0,0-3-3H15.25A.25.25,0,0,1,15,3.75V2.25A.25.25,0,0,1,15.25,2H16.5a1,1,0,0,0,0-2h-9a1,1,0,0,0,0,2H8.75A.25.25,0,0,1,9,2.25v1.5A.25.25,0,0,1,8.75,4H7A2.983,2.983,0,0,0,4,6.917l-.5,6.021c0,.013,0,.027,0,.041V19a1.72,1.72,0,0,0,.378,1.077.25.25,0,0,1-.067.37l-2.826,1.7a1,1,0,1,0,1.03,1.714l5.118-3.071a.256.256,0,0,1,.129-.036h9.476a.256.256,0,0,1,.129.036l5.118,3.071a1,1,0,1,0,1.03-1.714ZM11,2.25A.25.25,0,0,1,11.25,2h1.5a.25.25,0,0,1,.25.25v1.5a.25.25,0,0,1-.25.25h-1.5A.25.25,0,0,1,11,3.75ZM7.5,18A1.5,1.5,0,1,1,9,16.5,1.5,1.5,0,0,1,7.5,18Zm9,0A1.5,1.5,0,1,1,18,16.5,1.5,1.5,0,0,1,16.5,18Zm1.825-6.08a.25.25,0,0,1-.184.08H5.858a.249.249,0,0,1-.249-.27L6,7A1,1,0,0,1,7,6H17a1.027,1.027,0,0,1,1,1.083l.387,4.647A.248.248,0,0,1,18.325,11.92Z"/></svg>