<svg xmlns="http://www.w3.org/2000/svg" viewBox="0 0 24 24"><title>railroad-locomotive</title><path d="M22.041,15.665H1.959A1.961,1.961,0,0,0,0,17.624a.98.98,0,0,0,1.94.2.244.244,0,0,1,.239-.2h.27a.245.245,0,0,1,.245.245,2.449,2.449,0,0,0,4.9,0,.246.246,0,0,1,.245-.245h.49a.245.245,0,0,1,.244.245,2.449,2.449,0,0,0,4.9,0,.246.246,0,0,1,.245-.245h.8a.245.245,0,0,1,.2.385,1.47,1.47,0,1,0,2.411,0,.243.243,0,0,1-.017-.253.246.246,0,0,1,.218-.132H18.43a.244.244,0,0,1,.2.385,1.47,1.47,0,1,0,2.411,0,.245.245,0,0,1,.2-.385h.578a.244.244,0,0,1,.239.2.98.98,0,0,0,1.94-.2A1.961,1.961,0,0,0,22.041,15.665Z"/><path d="M2.776,5.641h.163a.245.245,0,0,1,.245.245V7.755a.244.244,0,0,1-.14.221A1.465,1.465,0,0,0,2.2,9.3v4.9a.49.49,0,0,0,.49.49H6.612a.49.49,0,0,0,.49-.49V9.3a1.465,1.465,0,0,0-.84-1.322.244.244,0,0,1-.14-.221V5.886a.245.245,0,0,1,.245-.245h.327a.98.98,0,1,0,0-1.959H2.776a.98.98,0,1,0,0,1.959Z"/><path d="M8.571,14.685H22.286a.49.49,0,0,0,.49-.49V10.277a1.472,1.472,0,0,0-1.47-1.469h-.245a.245.245,0,0,1-.245-.245V6.376a.245.245,0,0,1,.245-.245h.327a.98.98,0,1,0,0-1.959h-9.8a.98.98,0,1,0,0,1.959h.163A.245.245,0,0,1,12,6.376V8.563a.245.245,0,0,1-.245.245H8.571a.489.489,0,0,0-.489.49v4.9A.489.489,0,0,0,8.571,14.685Zm5.388-6.857a1.471,1.471,0,0,1,1.47-1.469h1.959a1.471,1.471,0,0,1,1.469,1.469v2.939a.49.49,0,0,1-.49.49H14.449a.49.49,0,0,1-.49-.49Z"/></svg>