<svg id="Bold" xmlns="http://www.w3.org/2000/svg" viewBox="0 0 24 24"><title>rain-cloud-umbrella</title><path d="M24,7.25a3.248,3.248,0,0,0-2.335-3.112.251.251,0,0,1-.178-.221,4.25,4.25,0,0,0-8.312-.876.25.25,0,0,1-.159.165,3.753,3.753,0,0,0-2.372,4.573.247.247,0,0,0,.162.169c.242.079.48.169.712.268A.25.25,0,0,0,11.84,8.1l.246-.494a.25.25,0,0,0,.016-.186A2.249,2.249,0,0,1,13.9,4.527a.747.747,0,0,0,.627-.642A2.751,2.751,0,0,1,20,4.25a2.858,2.858,0,0,1-.028.395.755.755,0,0,0,.193.6.789.789,0,0,0,.585.258,1.749,1.749,0,0,1,1.46,2.713.267.267,0,0,0-.032.071,2.018,2.018,0,0,1-.139.361l-.689,1.378a.249.249,0,0,0,.292.352A3.254,3.254,0,0,0,24,7.25Z"/><path d="M13.753,9.584a.248.248,0,0,0,.211.053.252.252,0,0,0,.173-.133l.835-1.672A.239.239,0,0,0,15,7.706a.749.749,0,0,0-1.419-.291l-.648,1.3a.25.25,0,0,0,.084.319A9.046,9.046,0,0,1,13.753,9.584Z"/><path d="M16.777,10.374a.234.234,0,0,0,.02-.058,2.018,2.018,0,0,1,.164-.461l1.011-2.023A.239.239,0,0,0,18,7.706a.749.749,0,0,0-1.419-.291l-1.5,3A.747.747,0,0,0,15,10.77a.255.255,0,0,0,.054.148c.117.146.228.3.335.45a.251.251,0,0,0,.126.094.749.749,0,0,0,.906-.377Z"/><path d="M20.921,8.085a.75.75,0,1,0-1.342-.67l-1.5,3a.75.75,0,0,0,.336,1.006.741.741,0,0,0,.334.079.752.752,0,0,0,.672-.415Z"/><path d="M7,21.5a2.5,2.5,0,0,0,5,0,1,1,0,0,0-2,0,.5.5,0,0,1-1,0V18.25A.25.25,0,0,0,8.75,18H7.25a.25.25,0,0,0-.25.25Z"/><path d="M7,8.345a.25.25,0,0,1-.212.247A8.013,8.013,0,0,0,0,16.5a.5.5,0,0,0,.5.5h15a.5.5,0,0,0,.5-.5A8.013,8.013,0,0,0,9.212,8.592.25.25,0,0,1,9,8.345V8A1,1,0,1,0,7,8Z"/></svg>