<svg xmlns="http://www.w3.org/2000/svg" viewBox="0 0 24 24"><title>rating-five-star</title><path d="M14.68,8.4a.816.816,0,0,0,.334-.9l-.523-1.9a.248.248,0,0,1,.079-.256l1.438-1.216A.815.815,0,0,0,15.482,2.7H13.8a.25.25,0,0,1-.232-.157L12.759.513a.815.815,0,0,0-1.514,0L10.434,2.54A.25.25,0,0,1,10.2,2.7H8.518a.815.815,0,0,0-.527,1.437L9.434,5.357a.25.25,0,0,1,.079.257L8.992,7.486a.816.816,0,0,0,1.285.863l1.571-1.217a.249.249,0,0,1,.307,0l1.569,1.231A.817.817,0,0,0,14.68,8.4Z"/><path d="M4.481,13.32l1.57,1.231a.815.815,0,0,0,1.289-.858l-.523-1.9a.25.25,0,0,1,.079-.257l1.438-1.216a.815.815,0,0,0-.526-1.438H6.128A.25.25,0,0,1,5.9,8.727L5.085,6.7a.815.815,0,0,0-1.514,0L2.76,8.727a.248.248,0,0,1-.231.157H.844a.816.816,0,0,0-.527,1.438L1.76,11.544a.25.25,0,0,1,.079.257l-.521,1.872a.815.815,0,0,0,1.285.863l1.572-1.217A.248.248,0,0,1,4.481,13.32Z"/><path d="M23.682,10.322a.815.815,0,0,0-.527-1.438h-1.68a.248.248,0,0,1-.231-.157L20.433,6.7a.815.815,0,0,0-1.514,0l-.811,2.027a.25.25,0,0,1-.232.157H16.192a.815.815,0,0,0-.527,1.438l1.443,1.222a.25.25,0,0,1,.079.257l-.521,1.872a.815.815,0,0,0,1.285.863l1.571-1.217a.249.249,0,0,1,.307,0L21.4,14.551a.816.816,0,0,0,1.29-.858l-.524-1.9a.248.248,0,0,1,.08-.257Z"/><path d="M21.314,18.159h-1.68A.25.25,0,0,1,19.4,18l-.811-2.028a.816.816,0,0,0-1.514,0L16.266,18a.25.25,0,0,1-.232.156H14.35a.816.816,0,0,0-.527,1.438l1.443,1.222a.25.25,0,0,1,.079.257l-.521,1.873a.816.816,0,0,0,1.285.863l1.571-1.218a.251.251,0,0,1,.307,0l1.57,1.231a.815.815,0,0,0,1.289-.858l-.523-1.9a.25.25,0,0,1,.079-.257L21.84,19.6a.816.816,0,0,0-.526-1.439Z"/><path d="M10.622,18.159H8.942A.25.25,0,0,1,8.71,18L7.9,15.975a.816.816,0,0,0-1.514,0L5.574,18a.25.25,0,0,1-.232.156H3.658A.816.816,0,0,0,3.131,19.6l1.443,1.222a.25.25,0,0,1,.079.257l-.521,1.873a.816.816,0,0,0,1.285.863l1.571-1.218a.251.251,0,0,1,.307,0l1.569,1.231a.816.816,0,0,0,1.29-.858l-.523-1.9a.25.25,0,0,1,.079-.257L11.148,19.6a.816.816,0,0,0-.526-1.439Z"/></svg>