<svg id="Bold" xmlns="http://www.w3.org/2000/svg" viewBox="0 0 24 24"><title>ray</title><path d="M21.42,2.58C17.666-1.175,11.393-.789,7.144,3.461a.75.75,0,0,0,.114,1.154l1.91,1.273a.249.249,0,0,1,.084.319l-.243.486a.248.248,0,0,1-.353.1l-.528-.321A1,1,0,0,0,7.09,8.182l.7.428a.25.25,0,0,1,.094.325l-.326.652a.25.25,0,0,1-.335.111L6.61,9.39a1,1,0,1,0-.894,1.787l.551.276a.251.251,0,0,1,.128.152.247.247,0,0,1-.024.2L.136,22.5A1,1,0,0,0,1.5,23.863L12.2,17.628a.254.254,0,0,1,.2-.024.251.251,0,0,1,.152.128l.275.551a1,1,0,1,0,1.788-.894l-.309-.617a.251.251,0,0,1,.112-.335l.6-.3a.252.252,0,0,1,.336.112l.428.856a1,1,0,1,0,1.787-.894l-.428-.856a.249.249,0,0,1,.112-.335l.544-.272a.248.248,0,0,1,.319.085l1.273,1.909a.752.752,0,0,0,.55.33.729.729,0,0,0,.6-.216C24.788,12.606,25.176,6.336,21.42,2.58ZM20.512,8.4a1.068,1.068,0,1,1,0-1.51A1.066,1.066,0,0,1,20.512,8.4ZM15.226,3.11a1.068,1.068,0,1,1,0,1.51A1.062,1.062,0,0,1,15.226,3.11ZM4.593,19.748a.25.25,0,0,1-.342-.342L7.91,13.132a.249.249,0,0,1,.392-.051L10.918,15.7a.25.25,0,0,1,.071.209.246.246,0,0,1-.121.184Z"/></svg>