<svg id="Bold" xmlns="http://www.w3.org/2000/svg" viewBox="0 0 24 24"><title>real-estate-building-person</title><path d="M20.5,13.5A3.5,3.5,0,0,0,17,17v2a.5.5,0,0,0,.5.5h.605a.5.5,0,0,1,.5.445l.4,3.611a.5.5,0,0,0,.5.444h2a.5.5,0,0,0,.5-.444l.4-3.611a.5.5,0,0,1,.5-.445H23.5A.5.5,0,0,0,24,19V17A3.5,3.5,0,0,0,20.5,13.5Z"/><circle cx="20.5" cy="10" r="2.5"/><path d="M6.724,6.053l-3-1.5a.5.5,0,0,0-.448,0l-3,1.5A.5.5,0,0,0,0,6.5V14a.5.5,0,0,0,.5.5H2a.5.5,0,0,0,.5-.5V13a.5.5,0,0,1,.5-.5H4a.5.5,0,0,1,.5.5v1a.5.5,0,0,0,.5.5H6.5A.5.5,0,0,0,7,14V6.5A.5.5,0,0,0,6.724,6.053ZM5,10.5H2a.5.5,0,0,1,0-1H5a.5.5,0,0,1,0,1ZM5,8H2A.5.5,0,0,1,2,7H5A.5.5,0,0,1,5,8Z"/><path d="M14.692,2.538l-6-2.5A.5.5,0,0,0,8,.5V14a.5.5,0,0,0,.5.5H10a.5.5,0,0,0,.5-.5V13a.5.5,0,0,1,.5-.5h1a.5.5,0,0,1,.5.5v1a.5.5,0,0,0,.5.5h1.5A.5.5,0,0,0,15,14V3A.5.5,0,0,0,14.692,2.538ZM13,10.5H10a.5.5,0,0,1,0-1h3a.5.5,0,0,1,0,1ZM13,8H10a.5.5,0,0,1,0-1h3a.5.5,0,0,1,0,1Zm0-2.5H10a.5.5,0,0,1,0-1h3a.5.5,0,0,1,0,1Z"/></svg>