<svg id="Bold" xmlns="http://www.w3.org/2000/svg" viewBox="0 0 24 24"><title>real-estate-action-building-dollar</title><path d="M6.724,6.053l-3-1.5a.5.5,0,0,0-.448,0l-3,1.5A.5.5,0,0,0,0,6.5V14a.5.5,0,0,0,.5.5H2a.5.5,0,0,0,.5-.5V13a.5.5,0,0,1,.5-.5H4a.5.5,0,0,1,.5.5v1a.5.5,0,0,0,.5.5H6.5A.5.5,0,0,0,7,14V6.5A.5.5,0,0,0,6.724,6.053ZM5,10.5H2a.5.5,0,0,1,0-1H5a.5.5,0,0,1,0,1ZM5,8H2A.5.5,0,0,1,2,7H5A.5.5,0,0,1,5,8Z"/><path d="M14.677,10.02A.5.5,0,0,0,15,9.553V3a.5.5,0,0,0-.308-.462l-6-2.5A.5.5,0,0,0,8,.5V14a.5.5,0,0,0,.5.5H9.76a.5.5,0,0,0,.455-.293A8.038,8.038,0,0,1,14.677,10.02ZM10,4.5h3a.5.5,0,0,1,0,1H10a.5.5,0,0,1,0-1ZM10,7h3a.5.5,0,0,1,0,1H10a.5.5,0,0,1,0-1Zm0,3.5a.5.5,0,0,1,0-1h3a.5.5,0,0,1,0,1Z"/><path d="M17.5,11A6.5,6.5,0,1,0,24,17.5,6.508,6.508,0,0,0,17.5,11Zm1.112,10.158a.5.5,0,0,0-.362.481v.111a.75.75,0,0,1-1.5,0,.5.5,0,0,0-.5-.5H16a.75.75,0,0,1,0-1.5h2.033a.593.593,0,0,0,.592-.592.587.587,0,0,0-.371-.548l-2.065-.827a2.084,2.084,0,0,1,.2-3.941.5.5,0,0,0,.362-.48V13.25a.75.75,0,0,1,1.5,0,.5.5,0,0,0,.5.5H19a.75.75,0,0,1,0,1.5H16.967a.592.592,0,0,0-.221,1.141l2.065.826a2.084,2.084,0,0,1-.2,3.941Z"/></svg>