<svg id="Bold" xmlns="http://www.w3.org/2000/svg" viewBox="0 0 24 24"><title>real-estate-market-building-rise</title><path d="M2.5,14V13a.5.5,0,0,1,.5-.5H4a.5.5,0,0,1,.5.5v1a.5.5,0,0,0,.5.5H6.5A.5.5,0,0,0,7,14V6.5a.5.5,0,0,0-.276-.447l-3-1.5a.5.5,0,0,0-.448,0l-3,1.5A.5.5,0,0,0,0,6.5V14a.5.5,0,0,0,.5.5H2A.5.5,0,0,0,2.5,14ZM2,7H5A.5.5,0,0,1,5,8H2A.5.5,0,0,1,2,7Zm-.5,3A.5.5,0,0,1,2,9.5H5a.5.5,0,0,1,0,1H2A.5.5,0,0,1,1.5,10Z"/><path d="M8.317,11.729a.5.5,0,0,0,.549-.125l1.777-1.91a3.714,3.714,0,0,1,3.718-1.057A.5.5,0,0,0,15,8.156V3a.5.5,0,0,0-.308-.462l-6-2.5A.5.5,0,0,0,8,.5V11.263A.5.5,0,0,0,8.317,11.729ZM10,4.5h3a.5.5,0,0,1,0,1H10a.5.5,0,0,1,0-1ZM10,7h3a.5.5,0,0,1,0,1H10a.5.5,0,0,1,0-1Z"/><path d="M23.25,9h-4a.75.75,0,0,0-.53,1.28l.907.908a.5.5,0,0,1,.032.673l-1.64,1.974a.5.5,0,0,1-.794-.033l-2-2.849h0a2.246,2.246,0,0,0-3.484-.235L1.335,21.9a1.25,1.25,0,0,0,1.83,1.7L12.94,13.1a.5.5,0,0,1,.775.053l2.03,2.894a2.251,2.251,0,0,0,3.55.164l.009-.01,2.071-2.492a.5.5,0,0,1,.738-.035l.607.607A.75.75,0,0,0,24,13.75v-4A.75.75,0,0,0,23.25,9Z"/></svg>