<svg id="Bold" xmlns="http://www.w3.org/2000/svg" viewBox="0 0 24 24"><title>real-estate-favorite-house-choose</title><path d="M12.1,15.913a.265.265,0,0,0,.407-.224v-5.2a3,3,0,0,1,3-3,.428.428,0,0,0,.311-.72c-2.072-2.2-5.2-5.522-6.081-6.463a1.032,1.032,0,0,0-1.46,0c-.7.745-8,8.5-8,8.5A1,1,0,0,0,1,10.486H2.5a.5.5,0,0,1,.5.5v4a1,1,0,0,0,1,1H8.668a.5.5,0,0,0,.263-.075A2.948,2.948,0,0,1,12.1,15.913Z"/><path d="M9.359,19.44l-.024-.032a1.5,1.5,0,0,1,2.319-1.9l1.462,1.758A.5.5,0,0,0,14,18.944V10.5a1.5,1.5,0,0,1,3,0v6a.5.5,0,0,0,.5.5H20a4,4,0,0,1,4,4v2.5a.5.5,0,0,1-.5.5H12.763a.5.5,0,0,1-.412-.216Z"/></svg>