<svg id="Bold" xmlns="http://www.w3.org/2000/svg" viewBox="0 0 24 24"><title>real-estate-deal-key</title><path d="M23.721,11.8,12.722.3a1.035,1.035,0,0,0-1.445,0l-11,11.5A1,1,0,0,0,1,13.493H2.5a.5.5,0,0,1,.5.5V16.52a.5.5,0,0,0,.444.5,4,4,0,0,1,2.88,1.753.5.5,0,0,0,.416.222H8.5a.5.5,0,0,0,.5-.5v-3.5a.5.5,0,0,1,.5-.5h5a.5.5,0,0,1,.5.5v8.5a.5.5,0,0,0,.5.5h4a1.5,1.5,0,0,0,1.5-1.5v-8.5a.5.5,0,0,1,.5-.5H23A1,1,0,0,0,23.721,11.8Z"/><path d="M13,19.993H6.129a.471.471,0,0,1-.425-.27A3,3,0,1,0,5.7,22.278a.5.5,0,0,1,.452-.285H7a.5.5,0,0,1,.5.5,1,1,0,0,0,2,0,.5.5,0,1,1,1,0v.5a1,1,0,0,0,2,0v-.5a.5.5,0,0,1,.5-.5,1,1,0,0,0,0-2Zm-10,2a1,1,0,1,1,1-1A1,1,0,0,1,3,21.993Z"/></svg>