<svg id="Bold" xmlns="http://www.w3.org/2000/svg" viewBox="0 0 24 24"><title>real-estate-sign-house-sale</title><path d="M23.844,10.636,13.03.409a1.5,1.5,0,0,0-2.06,0L.156,10.636A.5.5,0,0,0,.5,11.5h2A.5.5,0,0,1,3,12v2.5a.5.5,0,0,0,.5.5h17a.5.5,0,0,0,.5-.5V12a.5.5,0,0,1,.5-.5h2A.5.5,0,0,0,23.844,10.636Z"/><path d="M9.5,16.5a2.253,2.253,0,0,0-2.25,2.25v4.5a.75.75,0,0,0,1.5,0v-2A.25.25,0,0,1,9,21h1a.25.25,0,0,1,.25.25v2a.75.75,0,0,0,1.5,0v-4.5A2.253,2.253,0,0,0,9.5,16.5Zm-.5,3a.25.25,0,0,1-.25-.25v-.5a.75.75,0,0,1,1.5,0v.5a.25.25,0,0,1-.25.25Z"/><path d="M19,18h2a.75.75,0,0,0,0-1.5H19a1.752,1.752,0,0,0-1.75,1.75v4A1.752,1.752,0,0,0,19,24h2a.75.75,0,0,0,0-1.5H19a.25.25,0,0,1-.25-.25v-1A.25.25,0,0,1,19,21h1a.75.75,0,0,0,0-1.5H19a.25.25,0,0,1-.25-.25v-1A.25.25,0,0,1,19,18Z"/><path d="M16,22.5H14a.25.25,0,0,1-.25-.25v-5a.75.75,0,0,0-1.5,0v5A1.752,1.752,0,0,0,14,24h2a.75.75,0,0,0,0-1.5Z"/><path d="M4.3,18H6a.75.75,0,0,0,0-1.5H4.3a2.053,2.053,0,0,0-1.139,3.761L5,21.487A.553.553,0,0,1,4.7,22.5H3A.75.75,0,0,0,3,24H4.7a2.053,2.053,0,0,0,1.139-3.761L4,19.013A.553.553,0,0,1,4.3,18Z"/></svg>