<svg id="Bold" xmlns="http://www.w3.org/2000/svg" viewBox="0 0 24 24"><title>real-estate-settings-building-2</title><path d="M23,9.25H18a.5.5,0,0,0-.5.5v3a1.5,1.5,0,0,1-1.5,1.5H8a1.5,1.5,0,0,1-1.5-1.5v-3a.5.5,0,0,0-.5-.5H1a1,1,0,0,0-1,1v2a1,1,0,0,0,1,1H2.968a.5.5,0,0,1,.483.37A13.418,13.418,0,0,0,4,15.278a.5.5,0,0,1-.108.547L2.453,17.261a.991.991,0,0,0-.293.707,1.009,1.009,0,0,0,.293.707L4.575,20.8a.852.852,0,0,0,.688.294l.039,0a1,1,0,0,0,.687-.293L7.423,19.36a.5.5,0,0,1,.549-.107A13.039,13.039,0,0,0,9.63,19.8a.5.5,0,0,1,.37.483V22.25a1,1,0,0,0,1,1h2a1,1,0,0,0,1-1V20.282a.5.5,0,0,1,.37-.483,13.183,13.183,0,0,0,1.657-.545.5.5,0,0,1,.547.107L18.011,20.8a1,1,0,0,0,1.414,0l2.121-2.121a1,1,0,0,0,0-1.414l-1.435-1.436A.5.5,0,0,1,20,15.278a13.418,13.418,0,0,0,.545-1.658.5.5,0,0,1,.483-.37H23a1,1,0,0,0,1-1v-2A1,1,0,0,0,23,9.25Z"/><path d="M8,13.25H9.5a.5.5,0,0,0,.5-.5v-2a.5.5,0,0,1,.5-.5h3a.5.5,0,0,1,.5.5v2a.5.5,0,0,0,.5.5H16a.5.5,0,0,0,.5-.5v-9a.5.5,0,0,0-.235-.424l-4-2.5a.5.5,0,0,0-.53,0l-4,2.5A.5.5,0,0,0,7.5,3.75v9A.5.5,0,0,0,8,13.25Zm2.5-9h3a.75.75,0,0,1,0,1.5h-3a.75.75,0,0,1,0-1.5Zm0,3h3a.75.75,0,0,1,0,1.5h-3a.75.75,0,0,1,0-1.5Z"/></svg>