<svg id="Bold" xmlns="http://www.w3.org/2000/svg" viewBox="0 0 24 24"><title>real-estate-action-house-download</title><path d="M9.5,17.5a7.987,7.987,0,0,1,13.137-6.118.5.5,0,0,0,.322.118H23.5a.5.5,0,0,0,.344-.863L13.029.408a1.5,1.5,0,0,0-2.059,0L.156,10.637A.5.5,0,0,0,.5,11.5h2A.5.5,0,0,1,3,12V22a1,1,0,0,0,1,1h6.638a.5.5,0,0,0,.4-.8A7.938,7.938,0,0,1,9.5,17.5Z"/><path d="M17.5,11A6.5,6.5,0,1,0,24,17.5,6.508,6.508,0,0,0,17.5,11Zm2.391,7.312-2,2.5a.5.5,0,0,1-.782,0l-2-2.5A.5.5,0,0,1,15.5,17.5H16a.5.5,0,0,0,.5-.5V14.5a1,1,0,0,1,2,0V17a.5.5,0,0,0,.5.5h.5A.5.5,0,0,1,19.891,18.312Z"/></svg>