<svg id="Bold" xmlns="http://www.w3.org/2000/svg" viewBox="0 0 24 24"><title>real-estate-favorite-building-choose</title><path d="M6.724,6.053l-3-1.5a.5.5,0,0,0-.448,0l-3,1.5A.5.5,0,0,0,0,6.5V14a.5.5,0,0,0,.5.5H2a.5.5,0,0,0,.5-.5V13a.5.5,0,0,1,.5-.5H4a.5.5,0,0,1,.5.5v1a.5.5,0,0,0,.5.5H6.5A.5.5,0,0,0,7,14V6.5A.5.5,0,0,0,6.724,6.053ZM5,10.5H2a.5.5,0,0,1,0-1H5a.5.5,0,0,1,0,1ZM5,8H2A.5.5,0,0,1,2,7H5A.5.5,0,0,1,5,8Z"/><path d="M8.5,14.5h3.008a.5.5,0,0,0,.5-.5V11a.5.5,0,0,0-.5-.5H10a.5.5,0,0,1,0-1h2.152a.5.5,0,0,0,.41-.214,2.992,2.992,0,0,1,2.012-1.253A.5.5,0,0,0,15,7.538V3a.5.5,0,0,0-.308-.462l-6-2.5A.5.5,0,0,0,8,.5V14A.5.5,0,0,0,8.5,14.5ZM10,4.5h3a.5.5,0,0,1,0,1H10a.5.5,0,0,1,0-1ZM10,7h3a.5.5,0,0,1,0,1H10a.5.5,0,0,1,0-1Z"/><path d="M24,21.5A4.505,4.505,0,0,0,19.5,17h-2a.5.5,0,0,1-.5-.5V11a2,2,0,0,0-4,0v7.061a.5.5,0,0,1-.884.319l-.578-.694a2,2,0,0,0-3.1,2.526l.015.02L11.1,23.8a.5.5,0,0,0,.4.2h12a.5.5,0,0,0,.5-.5Z"/></svg>