<svg id="Bold" xmlns="http://www.w3.org/2000/svg" viewBox="0 0 24 24"><title>real-estate-favorite-hold-house-1</title><path d="M15,9.913a1,1,0,0,0,1-1v-2.5a.5.5,0,0,1,.5-.5h1a.5.5,0,0,0,.336-.871L12.672.348a1,1,0,0,0-1.344,0L6.164,5.042a.5.5,0,0,0,.336.871h1a.5.5,0,0,1,.5.5v2.5a1,1,0,0,0,1,1h1a1,1,0,0,0,1-1v-2a1,1,0,0,1,2,0v2a1,1,0,0,0,1,1Z"/><rect x="3" y="20.913" width="6" height="3" rx="0.5" ry="0.5"/><path d="M4,19.413a.5.5,0,0,0,.5.5h3a.5.5,0,0,0,.5-.5V15.479a.5.5,0,0,0-.021-.145,22.378,22.378,0,0,0-1.51-3.89c-.717-1.115-2.032-.5-1.688.937l.383,1.67a.392.392,0,0,1-.66.365L2.646,12.558a.5.5,0,0,1-.147-.35C2.467,7.768,1.4,6.635.666,6.379A.5.5,0,0,0,0,6.851v7.105a1,1,0,0,0,.329.742c1.035.936,3,2.977,3.532,3.538A.5.5,0,0,1,4,18.582Z"/><rect x="15" y="20.913" width="6" height="3" rx="0.5" ry="0.5"/><path d="M21.5,12.208a.5.5,0,0,1-.147.35L19.5,14.416a.392.392,0,0,1-.66-.365l.383-1.67c.343-1.437-.971-2.052-1.688-.937a22.378,22.378,0,0,0-1.51,3.89.5.5,0,0,0-.021.145v3.934a.5.5,0,0,0,.5.5h3a.5.5,0,0,0,.5-.5v-.831a.5.5,0,0,1,.139-.346c.536-.561,2.5-2.6,3.532-3.538A1,1,0,0,0,24,13.956v-7.1a.5.5,0,0,0-.666-.472C22.605,6.635,21.533,7.768,21.5,12.208Z"/></svg>