<svg id="Bold" xmlns="http://www.w3.org/2000/svg" viewBox="0 0 24 24"><title>real-estate-sign-board-sold</title><path d="M18.745,13.487a.25.25,0,0,0-.406.2v3.354a.251.251,0,0,0,.406.2,1.662,1.662,0,0,0,.63-1.3V14.788A1.659,1.659,0,0,0,18.745,13.487Z"/><path d="M9.714,13.128a.519.519,0,0,0-.518.517v3.429a.518.518,0,0,0,1.036,0V13.645A.518.518,0,0,0,9.714,13.128Z"/><path d="M20.5,8.859h-.881a.5.5,0,0,1-.361-.154L13.569,2.779h0a2.247,2.247,0,0,0-3.134,0h0L4.742,8.705a.5.5,0,0,1-.361.154H3.5a2.5,2.5,0,0,0-2.5,2.5v8a2.5,2.5,0,0,0,2.5,2.5h17a2.5,2.5,0,0,0,2.5-2.5v-8A2.5,2.5,0,0,0,20.5,8.859Zm-14.982,6a2.693,2.693,0,0,1,1.393,2.215,1.77,1.77,0,0,1-1.768,1.768H4a.625.625,0,0,1,0-1.25H5.143a.519.519,0,0,0,.518-.518c0-.52-.323-.787-.893-1.215a2.69,2.69,0,0,1-1.393-2.214,1.77,1.77,0,0,1,1.768-1.767H6.286a.625.625,0,1,1,0,1.25H5.143a.518.518,0,0,0-.518.517C4.625,14.165,4.948,14.431,5.518,14.859Zm5.964,2.215a1.768,1.768,0,0,1-3.536,0V13.645a1.768,1.768,0,0,1,3.536,0Zm3.947,1.768H14.286a1.77,1.77,0,0,1-1.768-1.768V12.5a.625.625,0,0,1,1.25,0v4.571a.519.519,0,0,0,.518.518h1.143a.625.625,0,0,1,0,1.25ZM7.953,8.859a.25.25,0,0,1-.181-.423L11.878,4.16a.177.177,0,0,1,.246,0l4.1,4.274a.25.25,0,0,1-.181.423Zm12.672,7.072a2.914,2.914,0,0,1-2.911,2.911.626.626,0,0,1-.625-.625V12.5a.625.625,0,0,1,.625-.625,2.914,2.914,0,0,1,2.911,2.91Z"/></svg>