<svg id="Bold" xmlns="http://www.w3.org/2000/svg" viewBox="0 0 24 24"><title>real-estate-dimensions-plan</title><path d="M23,9a1,1,0,0,0,1-1V4.5A1.5,1.5,0,0,0,22.5,3H17a.5.5,0,0,1-.5-.5v-1A1.5,1.5,0,0,0,15,0H4.5A1.5,1.5,0,0,0,3,1.5V9a.5.5,0,0,1-.5.5h-1A1.5,1.5,0,0,0,0,11V22.5A1.5,1.5,0,0,0,1.5,24H12a1.5,1.5,0,0,0,1.5-1.5V21a.5.5,0,0,1,.5-.5h8.5A1.5,1.5,0,0,0,24,19V12a1,1,0,0,0-1-1,2.5,2.5,0,0,1-2.164-1.249A.5.5,0,0,1,21.268,9ZM5.75,18.75a.5.5,0,0,1-.5.5H2.5a.5.5,0,0,1-.5-.5v-.5a.5.5,0,0,1,.5-.5H5.25a.5.5,0,0,1,.5.5ZM2,21.25a.5.5,0,0,1,.5-.5H5.25a.5.5,0,0,1,.5.5v.25a.5.5,0,0,1-.5.5H2.5a.5.5,0,0,1-.5-.5Zm9.5.25a.5.5,0,0,1-.5.5H7.75a.5.5,0,0,1-.5-.5V17a.75.75,0,0,0-.75-.75h-4a.5.5,0,0,1-.5-.5V12a.5.5,0,0,1,.5-.5H6.25a1,1,0,0,0,0-2H5.5A.5.5,0,0,1,5,9V2.5A.5.5,0,0,1,5.5,2H14a.5.5,0,0,1,.5.5V9a.5.5,0,0,1-.5.5H9.75a1,1,0,0,0,0,2H11a.5.5,0,0,1,.5.5v1a1,1,0,0,0,1,1,2,2,0,0,1,1.489.666.5.5,0,0,1-.372.834H12.5a1,1,0,0,0-1,1ZM22,6.5a.5.5,0,0,1-.5.5h-2a1,1,0,0,0-1,1v.5a4.508,4.508,0,0,0,3.15,4.293.5.5,0,0,1,.35.477V18a.5.5,0,0,1-.5.5H14a.5.5,0,0,1,0-1h1.5a1,1,0,0,0,1-1V16a4,4,0,0,0-2.887-3.842.157.157,0,0,1-.113-.15V12a.5.5,0,0,1,.5-.5h1.5a1,1,0,0,0,1-1v-5A.5.5,0,0,1,17,5h4.5a.5.5,0,0,1,.5.5Z"/></svg>