<svg id="Bold" xmlns="http://www.w3.org/2000/svg" viewBox="0 0 24 24"><title>real-estate-action-house-location</title><path d="M11.89,15.157a2.5,2.5,0,0,1,3.212-3.23l5.222,1.958A.5.5,0,0,0,21,13.417V12a.5.5,0,0,1,.5-.5h2a.5.5,0,0,0,.344-.863L13.029.408a1.5,1.5,0,0,0-2.059,0L.156,10.637A.5.5,0,0,0,.5,11.5h2A.5.5,0,0,1,3,12V22a1,1,0,0,0,1,1H14.148a.5.5,0,0,0,.467-.678Z"/><path d="M23.352,16.622l-8.774-3.29a1,1,0,0,0-1.287,1.292l3.322,8.73a.993.993,0,0,0,.933.646l.064,0a1,1,0,0,0,.909-.761h0l.845-3.462a.5.5,0,0,1,.365-.367l3.513-.879a1,1,0,0,0,.11-1.906Z"/></svg>