<svg id="Bold" xmlns="http://www.w3.org/2000/svg" viewBox="0 0 24 24"><title>real-estate-market-house-decrease</title><path d="M23.836,15.7l-5.164-4.695a1,1,0,0,0-1.345,0L12.163,15.7a.5.5,0,0,0,.337.87h1a.5.5,0,0,1,.5.5V19.75a1,1,0,0,0,1,1h6a1,1,0,0,0,1-1V17.074a.5.5,0,0,1,.5-.5h1A.5.5,0,0,0,23.836,15.7Z"/><path d="M6.5,20.75h3a.5.5,0,0,0,.5-.5V6.75a1,1,0,0,0-1-1H7a1,1,0,0,0-1,1v13.5A.5.5,0,0,0,6.5,20.75Z"/><path d="M.5,20.75h3a.5.5,0,0,0,.5-.5V1.75a1,1,0,0,0-1-1H1a1,1,0,0,0-1,1v18.5A.5.5,0,0,0,.5,20.75Z"/><path d="M21.5,22H1a1,1,0,0,0,0,2H21.5a1,1,0,0,0,0-2Z"/><path d="M14.357,6.625a.5.5,0,0,1,0,.707L14.1,7.6a.75.75,0,0,0,.53,1.28h3a.75.75,0,0,0,.75-.75v-3A.75.75,0,0,0,17.1,4.6l-.263.262a.5.5,0,0,1-.707,0L11.634.366A1.25,1.25,0,0,0,9.866,2.134Z"/></svg>