<svg id="Bold" xmlns="http://www.w3.org/2000/svg" viewBox="0 0 24 24"><title>real-estate-neighbourhood</title><path d="M6.208,12.391a1.027,1.027,0,0,0-1.414,0L.147,17.037a.5.5,0,0,0,.354.854H1a.5.5,0,0,1,.5.5v2.5a1,1,0,0,0,1,1h1a1,1,0,0,0,1-1v-2a1,1,0,0,1,2,0v2a1,1,0,0,0,1,1h1a1,1,0,0,0,1-1v-2.5a.5.5,0,0,1,.5-.5h.5a.5.5,0,0,0,.353-.854Z"/><path d="M23.853,17.037l-4.647-4.646a1.027,1.027,0,0,0-1.414,0l-4.646,4.646a.5.5,0,0,0,.353.854H14a.5.5,0,0,1,.5.5v2.5a1,1,0,0,0,1,1h1a1,1,0,0,0,1-1v-2a1,1,0,0,1,2,0v2a1,1,0,0,0,1,1h1a1,1,0,0,0,1-1v-2.5a.5.5,0,0,1,.5-.5h.5A.5.5,0,0,0,23.853,17.037Z"/><path d="M13,10.891a1,1,0,0,0,1,1h1a1,1,0,0,0,1-1v-2.5a.5.5,0,0,1,.5-.5H17a.5.5,0,0,0,.354-.854L12.707,2.391a1.029,1.029,0,0,0-1.414,0L6.646,7.037A.5.5,0,0,0,7,7.891h.5a.5.5,0,0,1,.5.5v2.5a1,1,0,0,0,1,1h1a1,1,0,0,0,1-1v-2a1,1,0,1,1,2,0Z"/></svg>