<svg id="Bold" xmlns="http://www.w3.org/2000/svg" viewBox="0 0 24 24"><title>real-estate-location-house-pin</title><path d="M6.749,10a.5.5,0,0,0,.386-.183C7.48,9.4,10.5,5.669,10.5,3.75a3.75,3.75,0,0,0-7.5,0C3,5.669,6.019,9.4,6.363,9.817A.5.5,0,0,0,6.749,10ZM5,3.75A1.75,1.75,0,1,1,6.749,5.5,1.75,1.75,0,0,1,5,3.75Z"/><path d="M23.822,17.618l-6.5-5.5a.5.5,0,0,0-.647,0l-3.451,2.921a.5.5,0,0,0,0,.763l1.244,1.053A1.5,1.5,0,0,1,13.5,19.5a.5.5,0,0,0-.5.5v3.5a.5.5,0,0,0,.5.5H15a.5.5,0,0,0,.5-.5V21.25a1.5,1.5,0,1,1,3,0V23.5a.5.5,0,0,0,.5.5h2.5a.5.5,0,0,0,.5-.5V19a.5.5,0,0,1,.5-.5h1A.5.5,0,0,0,23.822,17.618Z"/><path d="M13.824,17.618l-6.5-5.5a.5.5,0,0,0-.647,0l-6.5,5.5A.5.5,0,0,0,.5,18.5h1A.5.5,0,0,1,2,19v4.5a.5.5,0,0,0,.5.5H5a.5.5,0,0,0,.5-.5V21.25a1.5,1.5,0,1,1,3,0V23.5A.5.5,0,0,0,9,24h2.5a.5.5,0,0,0,.5-.5V19a.5.5,0,0,1,.5-.5h1A.5.5,0,0,0,13.824,17.618Z"/></svg>