<svg id="Bold" xmlns="http://www.w3.org/2000/svg" viewBox="0 0 24 24"><title>real-estate-sign-sale-1</title><path d="M10.878,13.409a.5.5,0,0,0-.529.468L10.034,19a.5.5,0,0,0,.521.531c.77-.034,1.346-.035,1.968-.026a.5.5,0,0,0,.506-.469l.31-4.976a.5.5,0,0,0-.469-.53Z"/><path d="M23.734,23.058A25.57,25.57,0,0,0,12,20.5,25.57,25.57,0,0,0,.266,23.058.5.5,0,0,0,.5,24h23A.5.5,0,0,0,23.734,23.058Z"/><path d="M10.189,6.227l.249.015a.251.251,0,0,0,.265-.234l.068-1.122a.375.375,0,1,0-.748-.047L9.955,5.962A.25.25,0,0,0,10.189,6.227Z"/><path d="M3.949,11.98l15.97.98a2.5,2.5,0,0,0,2.648-2.343L23,3.631A2.505,2.505,0,0,0,20.652.982L4.684,0A2.5,2.5,0,0,0,2.035,2.346L1.606,9.333A2.5,2.5,0,0,0,3.949,11.98ZM16.76,5.253a1.629,1.629,0,0,1,1.721-1.524l1,.062a.625.625,0,0,1,.586.662.639.639,0,0,1-.662.586l-1-.061a.37.37,0,0,0-.4.352l-.069,1.122A.251.251,0,0,0,18,6.633a.253.253,0,0,0,.172.084l1.123.068a.625.625,0,0,1-.076,1.248L18.1,7.965a.249.249,0,0,0-.265.234l-.008.124a.378.378,0,0,0,.353.4l1,.06a.625.625,0,1,1-.076,1.248l-1-.06a1.629,1.629,0,0,1-1.524-1.722ZM12.829,4.01a.625.625,0,1,1,1.248.076l-.245,3.992a.376.376,0,0,0,.352.4l1,.061A.625.625,0,1,1,15.1,9.785l-1-.061A1.628,1.628,0,0,1,12.584,8ZM8.652,6.759v0l.122-1.993a1.626,1.626,0,0,1,3.245.2l-.246,3.993a.625.625,0,1,1-1.248-.076L10.6,7.755a.25.25,0,0,0-.234-.265l-.249-.015a.251.251,0,0,0-.181.062.253.253,0,0,0-.084.172L9.778,8.832a.636.636,0,0,1-.662.586.626.626,0,0,1-.586-.662l.123-1.995ZM5.2,7.925l1,.061a.375.375,0,0,0,.4-.35c.025-.418-.218-.646-.688-1.045A2.451,2.451,0,0,1,4.782,4.519,1.63,1.63,0,0,1,6.5,3l1,.062a.625.625,0,0,1,.586.662.638.638,0,0,1-.662.586l-1-.062a.385.385,0,0,0-.4.353c-.025.416.218.643.688,1.043A2.448,2.448,0,0,1,7.843,7.711,1.625,1.625,0,0,1,6.122,9.234l-1-.061A.625.625,0,1,1,5.2,7.925Z"/></svg>