<svg id="Bold" xmlns="http://www.w3.org/2000/svg" viewBox="0 0 24 24"><title>real-estate-action-house-percent</title><path d="M17.5,9.5a7.954,7.954,0,0,1,5.137,1.883.5.5,0,0,0,.321.117H23.5a.5.5,0,0,0,.344-.863L13.03.409a1.5,1.5,0,0,0-2.06,0h0L.157,10.636A.5.5,0,0,0,.5,11.5h2A.5.5,0,0,1,3,12V22a1,1,0,0,0,1,1h6.638a.5.5,0,0,0,.4-.795A7.987,7.987,0,0,1,17.5,9.5Z"/><polygon points="19.5 19.999 19.5 19.999 19.5 19.998 19.5 19.999"/><polygon points="15.5 14.998 15.5 14.999 15.5 14.999 15.5 14.998"/><path d="M17.5,11A6.5,6.5,0,1,0,24,17.5,6.508,6.508,0,0,0,17.5,11Zm-2,3a1,1,0,1,1-1,1A1,1,0,0,1,15.5,14Zm4,7a1,1,0,1,1,1-1A1,1,0,0,1,19.5,21Zm1.53-5.97-6,6a.75.75,0,1,1-1.06-1.06l6-6a.75.75,0,1,1,1.061,1.06Z"/></svg>