<svg id="Bold" xmlns="http://www.w3.org/2000/svg" viewBox="0 0 24 24"><title>real-estate-action-house-information</title><path d="M9.5,17.5a7.987,7.987,0,0,1,13.137-6.117.5.5,0,0,0,.321.117H23.5a.5.5,0,0,0,.344-.863L13.029.408a1.5,1.5,0,0,0-2.059,0L.157,10.636A.5.5,0,0,0,.5,11.5h2A.5.5,0,0,1,3,12V22a1,1,0,0,0,1,1h6.638a.5.5,0,0,0,.4-.795A7.939,7.939,0,0,1,9.5,17.5Z"/><path d="M17.5,11A6.5,6.5,0,1,0,24,17.5,6.508,6.508,0,0,0,17.5,11Zm-.75,2.249a1,1,0,1,1-1,1A1,1,0,0,1,16.75,13.248Zm2.25,8.5H16a.75.75,0,0,1,0-1.5h.25a.5.5,0,0,0,.5-.5v-1.5a.5.5,0,0,0-.5-.5H16a.75.75,0,0,1,0-1.5h1a1.252,1.252,0,0,1,1.25,1.25v2.25a.5.5,0,0,0,.5.5H19a.75.75,0,0,1,0,1.5Z"/></svg>