<svg id="Bold" xmlns="http://www.w3.org/2000/svg" viewBox="0 0 24 24"><title>real-estate-deal-document-building</title><path d="M11.974,10.209l-3.5-1.75a.5.5,0,0,0-.448,0l-3.5,1.75a.5.5,0,0,0-.276.447v8.75a.5.5,0,0,0,.5.5H6.583a.5.5,0,0,0,.5-.5v-1.25a.5.5,0,0,1,.5-.5H8.917a.5.5,0,0,1,.5.5v1.25a.5.5,0,0,0,.5.5H11.75a.5.5,0,0,0,.5-.5v-8.75A.5.5,0,0,0,11.974,10.209ZM10,15.24H6.5a.5.5,0,0,1,0-1H10a.5.5,0,0,1,0,1Zm0-2.917H6.5a.5.5,0,0,1,0-1H10a.5.5,0,0,1,0,1Z"/><path d="M18.4,4.479l-2.88,2.645a.5.5,0,0,1-.715-.039l-.618-.707a1.25,1.25,0,0,0-1.883,1.644L13.7,9.615a1.851,1.851,0,0,0,2.647.148L20.1,6.321A1.251,1.251,0,0,0,18.4,4.479Z"/><path d="M21.5,0H2.5A2.5,2.5,0,0,0,0,2.5v19A2.5,2.5,0,0,0,2.5,24H17a1.008,1.008,0,0,0,.708-.294l6-6A1.1,1.1,0,0,0,24,17V2.5A2.5,2.5,0,0,0,21.5,0ZM22,15.5a.5.5,0,0,1-.5.5H18a2,2,0,0,0-2,2v3.5a.5.5,0,0,1-.5.5H2.5a.5.5,0,0,1-.5-.5V2.5A.5.5,0,0,1,2.5,2h19a.5.5,0,0,1,.5.5Z"/></svg>