<svg id="Bold" xmlns="http://www.w3.org/2000/svg" viewBox="0 0 24 24"><title>real-estate-insurance-dollar-hand-1</title><path d="M13.5,19.5H6a.5.5,0,0,1-.352-.854A.5.5,0,0,1,6,18.5H9a.5.5,0,0,0,.5-.5,2,2,0,0,0-2-2H2.25A.25.25,0,0,1,2,15.75a.75.75,0,0,0-1.5,0v7.5a.75.75,0,0,0,1.5,0A.25.25,0,0,1,2.25,23H16a.5.5,0,0,0,.5-.5A3,3,0,0,0,13.5,19.5Z"/><path d="M23.331,6.626,16.163.252a1,1,0,0,0-1.328,0L7.667,6.626A.5.5,0,0,0,8,7.5h2a.5.5,0,0,1,.5.5v5a1,1,0,0,0,1,1h8a1,1,0,0,0,1-1V8a.5.5,0,0,1,.5-.5h2A.5.5,0,0,0,23.331,6.626Zm-6.72,4.532a.5.5,0,0,0-.362.48v.112a.75.75,0,1,1-1.5,0,.5.5,0,0,0-.5-.5H14a.75.75,0,0,1,0-1.5h2.033a.592.592,0,0,0,.22-1.141L14.19,7.784a2.084,2.084,0,0,1,.2-3.942.5.5,0,0,0,.361-.48V3.25a.75.75,0,0,1,1.5,0,.5.5,0,0,0,.5.5H17a.75.75,0,0,1,0,1.5H14.966a.592.592,0,0,0-.22,1.142l2.063.825a2.084,2.084,0,0,1-.2,3.941Z"/></svg>