<svg id="Bold" xmlns="http://www.w3.org/2000/svg" viewBox="0 0 24 24"><title>real-estate-action-building-search</title><path d="M6.724,6.053l-3-1.5a.5.5,0,0,0-.448,0l-3,1.5A.5.5,0,0,0,0,6.5V14a.5.5,0,0,0,.5.5H2a.5.5,0,0,0,.5-.5V13a.5.5,0,0,1,.5-.5H4a.5.5,0,0,1,.5.5v1a.5.5,0,0,0,.5.5H6.5A.5.5,0,0,0,7,14V6.5A.5.5,0,0,0,6.724,6.053ZM5,10.5H2a.5.5,0,0,1,0-1H5a.5.5,0,0,1,0,1ZM5,8H2A.5.5,0,0,1,2,7H5A.5.5,0,0,1,5,8Z"/><path d="M11.877,10.818a.5.5,0,0,0-.466-.318H10a.5.5,0,0,1,0-1h3a.5.5,0,0,1,.5.5.116.116,0,0,0,.053.1.118.118,0,0,0,.112.009,6.953,6.953,0,0,1,.97-.351A.5.5,0,0,0,15,9.275V3a.5.5,0,0,0-.308-.462l-6-2.5A.5.5,0,0,0,8,.5V14a.5.5,0,0,0,.5.5h.931a.5.5,0,0,0,.471-.333,6.991,6.991,0,0,1,1.848-2.8A.5.5,0,0,0,11.877,10.818ZM10,4.5h3a.5.5,0,0,1,0,1H10a.5.5,0,0,1,0-1ZM10,7h3a.5.5,0,0,1,0,1H10a.5.5,0,0,1,0-1Z"/><path d="M23.634,21.866l-2.2-2.2a.5.5,0,0,1-.087-.589A5.44,5.44,0,0,0,22,16.5,5.5,5.5,0,1,0,16.5,22a5.44,5.44,0,0,0,2.58-.65.5.5,0,0,1,.59.087l2.2,2.2a1.25,1.25,0,0,0,1.768-1.768ZM16.5,20A3.5,3.5,0,1,1,20,16.5,3.5,3.5,0,0,1,16.5,20Z"/></svg>