<svg id="Bold" xmlns="http://www.w3.org/2000/svg" viewBox="0 0 24 24"><title>real-estate-action-house-dollar</title><path d="M9.5,17.5a7.987,7.987,0,0,1,13.137-6.118.5.5,0,0,0,.321.118H23.5a.5.5,0,0,0,.344-.863L13.031.41h0a1.505,1.505,0,0,0-2.06,0v0L.157,10.636A.5.5,0,0,0,.5,11.5h2A.5.5,0,0,1,3,12V22a1,1,0,0,0,1,1h6.638a.5.5,0,0,0,.4-.795A7.932,7.932,0,0,1,9.5,17.5Z"/><path d="M17.5,11A6.5,6.5,0,1,0,24,17.5,6.508,6.508,0,0,0,17.5,11Zm1.111,10.158a.5.5,0,0,0-.362.48v.112a.75.75,0,1,1-1.5,0,.5.5,0,0,0-.5-.5H16a.75.75,0,1,1,0-1.5h2.033a.592.592,0,0,0,.22-1.141l-2.064-.826a2.084,2.084,0,0,1,.2-3.941.5.5,0,0,0,.362-.48v-.112a.75.75,0,1,1,1.5,0,.5.5,0,0,0,.5.5H19a.75.75,0,0,1,0,1.5H16.966a.591.591,0,0,0-.22,1.14l2.064.827a2.084,2.084,0,0,1-.2,3.941Z"/></svg>