<svg id="Bold" xmlns="http://www.w3.org/2000/svg" viewBox="0 0 24 24"><title>real-estate-house-person</title><path d="M17.033,10.478a.042.042,0,0,0,.011-.035A3.036,3.036,0,0,1,17,9.993a3.383,3.383,0,0,1,.251-1.267.5.5,0,0,0-.1-.53c-1.64-1.74-6.314-6.7-7.42-7.886a1.033,1.033,0,0,0-1.46,0c-.7.746-8,8.5-8,8.5A1,1,0,0,0,1,10.493H2.5a.5.5,0,0,1,.5.5v4a1,1,0,0,0,1,1H7a.5.5,0,0,0,.5-.5v-3.5a1.5,1.5,0,0,1,3,0v3.5a.5.5,0,0,0,.5.5h3a1,1,0,0,0,1-1v-4a.5.5,0,0,1,.5-.5H17A.045.045,0,0,0,17.033,10.478Z"/><path d="M20.5,13.493a3.5,3.5,0,0,0-3.5,3.5v2a.5.5,0,0,0,.5.5h.605a.5.5,0,0,1,.5.445l.4,3.611a.5.5,0,0,0,.5.444h2a.5.5,0,0,0,.5-.444l.4-3.611a.5.5,0,0,1,.5-.445H23.5a.5.5,0,0,0,.5-.5v-2A3.5,3.5,0,0,0,20.5,13.493Z"/><circle cx="20.5" cy="9.993" r="2.5"/></svg>