<svg id="Bold" xmlns="http://www.w3.org/2000/svg" viewBox="0 0 24 24"><title>real-estate-settings-house</title><path d="M22.421,9.763l-1.266-.451a1.375,1.375,0,0,1-.78-1.885l.576-1.213A2.375,2.375,0,0,0,17.787,3.05l-1.213.576a1.376,1.376,0,0,1-1.886-.782l-.45-1.264a2.375,2.375,0,0,0-4.476,0l-.45,1.266a1.377,1.377,0,0,1-1.886.781L6.214,3.05A2.375,2.375,0,0,0,3.049,6.214l.576,1.213a1.375,1.375,0,0,1-.78,1.885l-1.266.451a2.374,2.374,0,0,0,0,4.474l1.266.451a1.375,1.375,0,0,1,.78,1.885l-.576,1.213A2.375,2.375,0,0,0,6.213,20.95l1.213-.576a1.376,1.376,0,0,1,1.886.782l.45,1.264a2.375,2.375,0,0,0,4.476,0l.45-1.266a1.376,1.376,0,0,1,1.886-.781l1.212.576a2.375,2.375,0,0,0,3.165-3.164l-.576-1.213a1.375,1.375,0,0,1,.78-1.885l1.266-.451a2.374,2.374,0,0,0,0-4.474ZM17.5,12h-1a.5.5,0,0,0-.5.5v3a.5.5,0,0,1-.5.5h-2a.5.5,0,0,1-.5-.5V14a1,1,0,0,0-2,0v1.5a.5.5,0,0,1-.5.5h-2a.5.5,0,0,1-.5-.5v-3a.5.5,0,0,0-.5-.5h-1a.5.5,0,0,1-.336-.87l5.163-4.694a.994.994,0,0,1,1.346,0l5.163,4.694A.5.5,0,0,1,17.5,12Z"/></svg>