<svg id="Bold" xmlns="http://www.w3.org/2000/svg" viewBox="0 0 24 24"><title>real-estate-insurance-building-1</title><path d="M13,19.5H5.5a.5.5,0,0,1,0-1h3A.5.5,0,0,0,9,18a2,2,0,0,0-2-2H1.75a.25.25,0,0,1-.25-.25.75.75,0,0,0-1.5,0v7.5a.75.75,0,0,0,1.5,0A.25.25,0,0,1,1.75,23H15.5a.5.5,0,0,0,.5-.5A3,3,0,0,0,13,19.5Z"/><path d="M15.724,6.053l-3-1.5a.5.5,0,0,0-.448,0l-3,1.5A.5.5,0,0,0,9,6.5V14a.5.5,0,0,0,.5.5H11a.5.5,0,0,0,.5-.5V13a.5.5,0,0,1,.5-.5h1a.5.5,0,0,1,.5.5v1a.5.5,0,0,0,.5.5h1.5A.5.5,0,0,0,16,14V6.5A.5.5,0,0,0,15.724,6.053ZM14.5,10a.5.5,0,0,1-.5.5H11a.5.5,0,0,1,0-1h3A.5.5,0,0,1,14.5,10ZM14,8H11a.5.5,0,0,1,0-1h3a.5.5,0,0,1,0,1Z"/><path d="M23.692,2.538l-6-2.5A.5.5,0,0,0,17,.5V14a.5.5,0,0,0,.5.5H19a.5.5,0,0,0,.5-.5V13a.5.5,0,0,1,.5-.5h1a.5.5,0,0,1,.5.5v1a.5.5,0,0,0,.5.5h1.5A.5.5,0,0,0,24,14V3A.5.5,0,0,0,23.692,2.538ZM22,10.5H19a.5.5,0,0,1,0-1h3a.5.5,0,0,1,0,1ZM22,8H19a.5.5,0,0,1,0-1h3a.5.5,0,0,1,0,1Zm.5-3a.5.5,0,0,1-.5.5H19a.5.5,0,0,1,0-1h3A.5.5,0,0,1,22.5,5Z"/></svg>