<svg id="Bold" xmlns="http://www.w3.org/2000/svg" viewBox="0 0 24 24"><title>real-estate-action-building-shield</title><path d="M6.724,6.053l-3-1.5a.5.5,0,0,0-.448,0l-3,1.5A.5.5,0,0,0,0,6.5V14a.5.5,0,0,0,.5.5H2a.5.5,0,0,0,.5-.5V13a.5.5,0,0,1,.5-.5H4a.5.5,0,0,1,.5.5v1a.5.5,0,0,0,.5.5H6.5A.5.5,0,0,0,7,14V6.5A.5.5,0,0,0,6.724,6.053ZM5,10.5H2a.5.5,0,0,1,0-1H5a.5.5,0,0,1,0,1ZM5,8H2A.5.5,0,0,1,2,7H5A.5.5,0,0,1,5,8Z"/><path d="M11.379,10.569A.086.086,0,0,0,11.3,10.5H10a.5.5,0,0,1,0-1h3a.5.5,0,0,1,.4.2.5.5,0,0,0,.507.195q.329-.07.677-.13A.5.5,0,0,0,15,9.276V3a.5.5,0,0,0-.308-.462l-6-2.5A.5.5,0,0,0,8,.5V14a.5.5,0,0,0,.5.5H9a.5.5,0,0,0,.5-.5v-.544a3.044,3.044,0,0,1,1.83-2.791A.084.084,0,0,0,11.379,10.569ZM10,4.5h3a.5.5,0,0,1,0,1H10a.5.5,0,0,1,0-1ZM10,7h3a.5.5,0,0,1,0,1H10a.5.5,0,0,1,0-1Z"/><path d="M23.072,12.04A16.443,16.443,0,0,0,17.478,11a16.018,16.018,0,0,0-5.55,1.04A1.545,1.545,0,0,0,11,13.456v3.393c0,2.593,1.678,5.464,5.743,7.015a2.057,2.057,0,0,0,1.471,0C22.289,22.309,24,19.44,24,16.849V13.456A1.545,1.545,0,0,0,23.072,12.04ZM20.5,17.25H18.75a.5.5,0,0,0-.5.5V19.5a.75.75,0,0,1-1.5,0V17.75a.5.5,0,0,0-.5-.5H14.5a.75.75,0,0,1,0-1.5h1.75a.5.5,0,0,0,.5-.5V13.5a.75.75,0,0,1,1.5,0v1.75a.5.5,0,0,0,.5.5H20.5a.75.75,0,0,1,0,1.5Z"/></svg>