<svg id="Bold" xmlns="http://www.w3.org/2000/svg" viewBox="0 0 24 24"><title>real-estate-market-building-decrease</title><path d="M10,20.25a.5.5,0,0,1-.5.5h-3a.5.5,0,0,1-.5-.5V6.75a1,1,0,0,1,1-1H9a1,1,0,0,1,1,1Z"/><path d="M1,.75H3a1,1,0,0,1,1,1v18.5a.5.5,0,0,1-.5.5H.5a.5.5,0,0,1-.5-.5V1.75A1,1,0,0,1,1,.75Z"/><path d="M1,22H23a1,1,0,0,1,0,2H1a1,1,0,0,1,0-2Z"/><path d="M10.634.366,14.75,4.482a.5.5,0,0,0,.707,0l.263-.262A.746.746,0,0,1,16.25,4a.75.75,0,0,1,.75.75v3a.75.75,0,0,1-.75.75h-3a.75.75,0,0,1-.53-1.28l.262-.263a.5.5,0,0,0,0-.707L8.866,2.134A1.25,1.25,0,0,1,10.634.366Z"/><path d="M15,11.75v8.5a.5.5,0,0,0,.5.5h2a.5.5,0,0,0,.5-.5v-1.5a.5.5,0,0,1,.5-.5h2a.5.5,0,0,1,.5.5v1.5a.5.5,0,0,0,.5.5h2a.5.5,0,0,0,.5-.5v-8.5a.5.5,0,0,0-.235-.424l-4-2.5a.5.5,0,0,0-.53,0l-4,2.5A.5.5,0,0,0,15,11.75ZM17.25,16a.75.75,0,0,1,.75-.75h3a.75.75,0,0,1,0,1.5H18A.75.75,0,0,1,17.25,16Zm0-3a.75.75,0,0,1,.75-.75h3a.75.75,0,0,1,0,1.5H18A.75.75,0,0,1,17.25,13Z"/></svg>