<svg id="Bold" xmlns="http://www.w3.org/2000/svg" viewBox="0 0 24 24"><title>real-estate-app-building-laptop</title><path d="M23.5,20h-.25a.5.5,0,0,1-.5-.5V17.75a1,1,0,0,0-2,0V19.5a.5.5,0,0,1-.5.5H3.75a.5.5,0,0,1-.5-.5V8.5a.5.5,0,0,1,.5-.5h1a1,1,0,0,0,0-2h-1a2.5,2.5,0,0,0-2.5,2.5v11a.5.5,0,0,1-.5.5H.5a.5.5,0,0,0-.5.5A3.5,3.5,0,0,0,3.5,24h17A3.5,3.5,0,0,0,24,20.5.5.5,0,0,0,23.5,20Z"/><path d="M8,18.062a2.054,2.054,0,0,0,.787-.157l2.668-1.1a.5.5,0,0,1,.385,0A8.747,8.747,0,1,0,7.274,12.35a.5.5,0,0,1,0,.417L6.142,15.188a2.016,2.016,0,0,0,.4,2.269A2.054,2.054,0,0,0,8,18.062Zm.223-2.6,1.17-2.507a1,1,0,0,0-.034-.911A6.751,6.751,0,1,1,15.25,15.5a6.675,6.675,0,0,1-3.107-.757,1.007,1.007,0,0,0-.842-.037L8.54,15.8a.251.251,0,0,1-.319-.339Z"/><path d="M12.25,13.25h1.5a.5.5,0,0,0,.5-.5v-1a.5.5,0,0,1,.5-.5h1a.5.5,0,0,1,.5.5v1a.5.5,0,0,0,.5.5h1.5a.5.5,0,0,0,.5-.5V5.25a.5.5,0,0,0-.276-.447l-3-1.5a.5.5,0,0,0-.448,0l-3,1.5a.5.5,0,0,0-.276.447v7.5A.5.5,0,0,0,12.25,13.25Zm1.5-7.5h3a.5.5,0,0,1,0,1h-3a.5.5,0,0,1,0-1Zm0,2.5h3a.5.5,0,0,1,0,1h-3a.5.5,0,0,1,0-1Z"/></svg>