<svg id="Bold" xmlns="http://www.w3.org/2000/svg" viewBox="0 0 24 24"><title>real-estate-favorite-heart-building</title><path d="M22.151,11.759a6.158,6.158,0,0,0,1.181-7.187A6.338,6.338,0,0,0,13.264,2.941l-.927.845a.5.5,0,0,1-.673,0l-.913-.831A6.278,6.278,0,0,0,5.275,1.218,6.227,6.227,0,0,0,.669,4.572a6.146,6.146,0,0,0,1.156,7.161l9.423,10.794a1,1,0,0,0,1.505,0ZM15.5,15.632a.5.5,0,0,1-.5.5H13.5a.5.5,0,0,1-.5-.5v-1a.5.5,0,0,0-.5-.5h-1a.5.5,0,0,0-.5.5v1a.5.5,0,0,1-.5.5H9a.5.5,0,0,1-.5-.5v-7.5a.5.5,0,0,1,.276-.447l3-1.5a.5.5,0,0,1,.447,0l3,1.5a.5.5,0,0,1,.277.447Z"/><path d="M14,9.132a.5.5,0,0,0-.5-.5h-3a.5.5,0,0,0,0,1h3A.5.5,0,0,0,14,9.132Z"/><path d="M13.5,11.132h-3a.5.5,0,0,0,0,1h3a.5.5,0,0,0,0-1Z"/></svg>