<svg id="Bold" xmlns="http://www.w3.org/2000/svg" viewBox="0 0 24 24"><title>real-estate-deal-pay-building</title><path d="M16.5,11A6.5,6.5,0,1,0,23,17.5,6.508,6.508,0,0,0,16.5,11Zm1.112,10.158a.5.5,0,0,0-.362.48v.112a.75.75,0,1,1-1.5,0,.5.5,0,0,0-.5-.5H15a.75.75,0,1,1,0-1.5h2.033a.592.592,0,0,0,.22-1.142l-2.063-.825a2.084,2.084,0,0,1,.2-3.941.5.5,0,0,0,.362-.48V13.25a.75.75,0,0,1,1.5,0,.5.5,0,0,0,.5.5H18a.75.75,0,1,1,0,1.5H15.968a.592.592,0,0,0-.22,1.141l2.063.825a2.085,2.085,0,0,1-.2,3.942Z"/><path d="M8.5,18.75H7.249a2,2,0,0,1-2-2V16a.5.5,0,0,1,.5-.5h1a.75.75,0,0,0,.53-1.28l-2.5-2.5a.749.749,0,0,0-1.06,0l-2.5,2.5a.75.75,0,0,0,.53,1.28h1a.5.5,0,0,1,.5.5v.75a4,4,0,0,0,4,4H8.5a1,1,0,0,0,0-2Z"/><path d="M10.753,2.75a1,1,0,0,0,1,1h3a2,2,0,0,1,2,2A.25.25,0,0,1,16.5,6h-1.25a.75.75,0,0,0-.53,1.28l2.5,2.5a.748.748,0,0,0,1.06,0l2.5-2.5A.75.75,0,0,0,20.253,6H19a.25.25,0,0,1-.25-.25,4,4,0,0,0-4-4h-3A1,1,0,0,0,10.753,2.75Z"/><path d="M1.5,10H3a.5.5,0,0,0,.5-.5v-1A.5.5,0,0,1,4,8H5a.5.5,0,0,1,.5.5v1A.5.5,0,0,0,6,10H7.5A.5.5,0,0,0,8,9.5V2a.5.5,0,0,0-.276-.447l-3-1.5a.5.5,0,0,0-.448,0l-3,1.5A.5.5,0,0,0,1,2V9.5A.5.5,0,0,0,1.5,10ZM3,2.5H6a.5.5,0,1,1,0,1H3a.5.5,0,1,1,0-1ZM3,5H6A.5.5,0,1,1,6,6H3A.5.5,0,1,1,3,5Z"/></svg>