<svg id="Bold" xmlns="http://www.w3.org/2000/svg" viewBox="0 0 24 24"><title>real-estate-message-house-buy</title><path d="M15.08,14a.5.5,0,0,0-.6-.1l-1.537.814a2.707,2.707,0,0,1-3.66-3.658l.922-1.741a.5.5,0,0,0-.077-.577c-.161-.17-.3-.315-.4-.425a1.035,1.035,0,0,0-1.459,0c-.7.746-8,8.5-8,8.5A1,1,0,0,0,1,18.5H2.5A.5.5,0,0,1,3,19v4a1,1,0,0,0,1,1H7a.5.5,0,0,0,.5-.5V20a1.5,1.5,0,0,1,3,0v3.5a.5.5,0,0,0,.5.5h3a1,1,0,0,0,1-1V19a.5.5,0,0,1,.5-.5H17a1,1,0,0,0,.724-1.688Z"/><path d="M17.5,0A6.508,6.508,0,0,0,11,6.5a6.436,6.436,0,0,0,.418,2.3.5.5,0,0,1-.025.411l-1.225,2.314a1.708,1.708,0,0,0,2.308,2.308l2.314-1.225a.5.5,0,0,1,.411-.025A6.436,6.436,0,0,0,17.5,13a6.5,6.5,0,0,0,0-13Zm0,11.5a4.943,4.943,0,0,1-2.2-.509.752.752,0,0,0-.682.01l-2.84,1.5-.006,0a.207.207,0,0,1-.278-.281L13,9.382a.752.752,0,0,0,.01-.682A4.943,4.943,0,0,1,12.5,6.5a5,5,0,1,1,5,5Z"/><path d="M16.654,5h2.6a.75.75,0,0,0,0-1.5H18.5a.25.25,0,0,1-.25-.25.75.75,0,0,0-1.5,0V3.4a.1.1,0,0,1-.1.1A1.654,1.654,0,0,0,16,6.674l2.406,1.031a.152.152,0,0,1,.092.141A.154.154,0,0,1,18.346,8h-2.6a.75.75,0,0,0,0,1.5h.75a.25.25,0,0,1,.25.25.75.75,0,0,0,1.5,0V9.6a.1.1,0,0,1,.1-.1A1.654,1.654,0,0,0,19,6.326L16.592,5.3a.152.152,0,0,1-.092-.141A.154.154,0,0,1,16.654,5Z"/></svg>