<svg id="Bold" xmlns="http://www.w3.org/2000/svg" viewBox="0 0 24 24"><title>real-estate-sign-building-rent</title><path d="M8.5,12.5A.5.5,0,0,1,9,13v1a.5.5,0,0,0,.5.5H11a.5.5,0,0,0,.5-.5V6.5a.5.5,0,0,0-.276-.448l-3-1.5a.5.5,0,0,0-.448,0l-3,1.5A.5.5,0,0,0,4.5,6.5V14a.5.5,0,0,0,.5.5H6.5A.5.5,0,0,0,7,14V13a.5.5,0,0,1,.5-.5ZM6.5,7h3a.5.5,0,0,1,0,1h-3a.5.5,0,0,1,0-1Zm0,3.5a.5.5,0,0,1,0-1h3a.5.5,0,0,1,0,1Z"/><path d="M13,14.5h6a.5.5,0,0,0,.5-.5V3a.5.5,0,0,0-.308-.462l-6-2.5A.5.5,0,0,0,12.5.5V14A.5.5,0,0,0,13,14.5Zm1.5-10h3a.5.5,0,0,1,0,1h-3a.5.5,0,0,1,0-1Zm0,2.5h3a.5.5,0,0,1,0,1h-3a.5.5,0,0,1,0-1Zm0,2.5h3a.5.5,0,0,1,0,1h-3a.5.5,0,0,1,0-1Z"/><path d="M16,16.5a.75.75,0,0,0-.75.75v1.764a.25.25,0,0,1-.474.112l-1.105-2.211a.75.75,0,0,0-1.421.335v6a.75.75,0,0,0,1.5,0V21.486a.25.25,0,0,1,.474-.112l1.105,2.211A.75.75,0,0,0,16,24a.723.723,0,0,0,.172-.021.748.748,0,0,0,.578-.729v-6A.75.75,0,0,0,16,16.5Z"/><path d="M9,18h2a.75.75,0,0,0,0-1.5H9a1.752,1.752,0,0,0-1.75,1.75v4A1.752,1.752,0,0,0,9,24h2a.75.75,0,0,0,0-1.5H9a.25.25,0,0,1-.25-.25v-1A.25.25,0,0,1,9,21h1a.75.75,0,0,0,0-1.5H9a.25.25,0,0,1-.25-.25v-1A.25.25,0,0,1,9,18Z"/><path d="M2.25,23.25a.75.75,0,0,0,1.5,0v-.586a.25.25,0,0,1,.427-.177L5.47,23.78a.75.75,0,0,0,1.06-1.06L5.1,21.291a.25.25,0,0,1,.1-.414A2.244,2.244,0,0,0,4.5,16.5H3a.75.75,0,0,0-.75.75ZM4.5,19.5H4a.25.25,0,0,1-.25-.25v-1A.25.25,0,0,1,4,18h.5a.75.75,0,0,1,0,1.5Z"/><path d="M21,16.5H18A.75.75,0,0,0,18,18h.5a.25.25,0,0,1,.25.25v5a.75.75,0,0,0,1.5,0v-5A.25.25,0,0,1,20.5,18H21a.75.75,0,0,0,0-1.5Z"/></svg>