<svg id="Bold" xmlns="http://www.w3.org/2000/svg" viewBox="0 0 24 24"><title>real-estate-location-house-pin-1</title><path d="M10.1,19.959a2,2,0,0,1-.891-3.485l5.851-4.953a.5.5,0,0,0,.144-.2A10.25,10.25,0,0,0,16,8,8,8,0,1,0,0,8c0,4.243,7.273,15.307,7.583,15.775a.5.5,0,0,0,.834,0c.1-.155.969-1.473,2.08-3.317l0-.01A.5.5,0,0,0,10.1,19.959ZM8,10.5A2.5,2.5,0,1,1,10.5,8,2.5,2.5,0,0,1,8,10.5Z"/><path d="M23.822,17.618l-6.5-5.5a.5.5,0,0,0-.647,0l-6.5,5.5a.5.5,0,0,0,.323.882h1a.5.5,0,0,1,.5.5v4.5a.5.5,0,0,0,.5.5H15a.5.5,0,0,0,.5-.5V21.25a1.5,1.5,0,0,1,3,0V23.5a.5.5,0,0,0,.5.5h2.5a.5.5,0,0,0,.5-.5V19a.5.5,0,0,1,.5-.5h1A.5.5,0,0,0,23.822,17.618Z"/></svg>