<svg id="Bold" xmlns="http://www.w3.org/2000/svg" viewBox="0 0 24 24"><title>real-estate-person-search-house</title><path d="M12.749,6.75a.5.5,0,0,1,.5.5v2.5a.5.5,0,0,0,.5.5h5a.5.5,0,0,0,.5-.5V7.25a.5.5,0,0,1,.5-.5.5.5,0,0,0,.325-.88l-3.5-3a.5.5,0,0,0-.65,0l-3.5,3A.5.5,0,0,0,12.749,6.75Z"/><path d="M24,2a2,2,0,0,0-2-2H10.5a2,2,0,0,0-2,2v9.5a2,2,0,0,0,2,2h.25a.5.5,0,0,1,.5.5v1.146a1.356,1.356,0,0,0,2.311.958l2.457-2.458a.5.5,0,0,1,.353-.146H22a2,2,0,0,0,2-2Zm-2,9a.5.5,0,0,1-.5.5h-5.75a1,1,0,0,0-.707.293l-1.366,1.366a.25.25,0,0,1-.427-.177V12.5a1,1,0,0,0-1-1H11a.5.5,0,0,1-.5-.5V2.5A.5.5,0,0,1,11,2H21.5a.5.5,0,0,1,.5.5Z"/><path d="M10.464,22.685c-.414-.181-1.849-.8-2.911-1.2-.047-.017-.19-.071-.259-.356a1.419,1.419,0,0,1,.221-1.107A4.367,4.367,0,0,0,8.79,16.481,3.243,3.243,0,0,0,5.5,13a3.243,3.243,0,0,0-3.29,3.481,4.368,4.368,0,0,0,1.276,3.547,1.428,1.428,0,0,1,.22,1.106c-.07.285-.213.339-.259.356-1.063.393-2.5,1.014-2.913,1.2C-.153,22.986-.188,24,.5,24h10C11.185,24,11.152,22.986,10.464,22.685Z"/></svg>