<svg id="Bold" xmlns="http://www.w3.org/2000/svg" viewBox="0 0 24 24"><title>real-estate-action-building-star</title><path d="M6.723,6.052l-3-1.5a.5.5,0,0,0-.448,0l-3,1.5A.5.5,0,0,0,0,6.5V14a.5.5,0,0,0,.5.5H2a.5.5,0,0,0,.5-.5V13a.5.5,0,0,1,.5-.5H4a.5.5,0,0,1,.5.5v1a.5.5,0,0,0,.5.5H6.5A.5.5,0,0,0,7,14V6.5A.5.5,0,0,0,6.723,6.052ZM5,10.5H2a.5.5,0,0,1,0-1H5a.5.5,0,0,1,0,1ZM5,8H2A.5.5,0,0,1,2,7H5A.5.5,0,0,1,5,8Z"/><path d="M13.61,13.5a.5.5,0,0,0,.46-.3c.239-.555.716-1.663.883-2.022A.5.5,0,0,0,15,10.964V3a.5.5,0,0,0-.308-.462l-6-2.5A.5.5,0,0,0,8,.5V14a.5.5,0,0,0,.5.5H9.9a.5.5,0,0,0,.361-.155,2.766,2.766,0,0,1,2-.845ZM10,4.5h3a.5.5,0,0,1,0,1H10a.5.5,0,0,1,0-1ZM10,7h3a.5.5,0,0,1,0,1H10a.5.5,0,0,1,0-1Zm0,3.5a.5.5,0,0,1,0-1h3a.5.5,0,0,1,0,1Z"/><path d="M23.61,17.138a1.262,1.262,0,0,0,.3-1.378A1.232,1.232,0,0,0,22.74,15H20.4a.5.5,0,0,1-.459-.3l-1.279-2.966-.012-.027a1.294,1.294,0,0,0-2.318.027L15.055,14.7a.5.5,0,0,1-.459.3H12.259a1.23,1.23,0,0,0-1.166.76,1.27,1.27,0,0,0,.32,1.4l2.058,1.834a.5.5,0,0,1,.126.573l-1.15,2.649a1.253,1.253,0,0,0,.314,1.451,1.28,1.28,0,0,0,1.506.166l2.989-1.683a.5.5,0,0,1,.491,0l2.99,1.684a1.275,1.275,0,0,0,1.505-.166,1.254,1.254,0,0,0,.316-1.45l-1.152-2.65a.5.5,0,0,1,.126-.573Z"/></svg>