<svg id="Bold" xmlns="http://www.w3.org/2000/svg" viewBox="0 0 24 24"><title>real-estate-sign-board-sold-1</title><path d="M17.125,11.786V10.714a1.514,1.514,0,0,0-.47-1.1.251.251,0,0,0-.423.181v2.9a.25.25,0,0,0,.423.181A1.514,1.514,0,0,0,17.125,11.786Z"/><path d="M8.107,9.2a.446.446,0,0,0-.446.446v3.214a.447.447,0,0,0,.893,0V9.643A.447.447,0,0,0,8.107,9.2Z"/><path d="M24,2a2,2,0,0,0-2-2H1.5a1,1,0,0,0,0,2H3a.5.5,0,0,1,.5.5V4.25a.5.5,0,0,1-.5.5H1.5A1.5,1.5,0,0,0,0,6.25v10a1.5,1.5,0,0,0,1.5,1.5H19.25a1.5,1.5,0,0,0,1.5-1.5v-10a1.5,1.5,0,0,0-1.5-1.5H17.5a.5.5,0,0,1-.5-.5V2.5a.5.5,0,0,1,.5-.5h4a.5.5,0,0,1,.5.5V23a1,1,0,0,0,2,0ZM5.5,2.5A.5.5,0,0,1,6,2h8.5a.5.5,0,0,1,.5.5V4.25a.5.5,0,0,1-.5.5H6a.5.5,0,0,1-.5-.5ZM4.2,10.75a2.586,2.586,0,0,1,1.321,2.107,1.7,1.7,0,0,1-1.7,1.7H2.75a.625.625,0,0,1,0-1.25H3.822a.446.446,0,0,0,.446-.446c0-.47-.281-.7-.821-1.108A2.584,2.584,0,0,1,2.125,9.643a1.7,1.7,0,0,1,1.7-1.7H4.893a.625.625,0,0,1,0,1.25H3.822a.447.447,0,0,0-.447.446C3.375,10.112,3.657,10.345,4.2,10.75ZM9.8,12.857a1.7,1.7,0,0,1-3.393,0V9.643a1.7,1.7,0,0,1,3.393,0Zm3.66,1.7H12.393a1.7,1.7,0,0,1-1.7-1.7V8.572a.625.625,0,0,1,1.25,0v4.285a.447.447,0,0,0,.447.446h1.071a.625.625,0,1,1,0,1.25Zm4.911-3.839v1.072a2.771,2.771,0,0,1-2.768,2.767.625.625,0,0,1-.625-.625V8.572a.625.625,0,0,1,.625-.625A2.771,2.771,0,0,1,18.375,10.714Z"/></svg>