<svg id="Bold" xmlns="http://www.w3.org/2000/svg" viewBox="0 0 24 24"><title>real-estate-insurance-house</title><rect y="14.058" width="4" height="9" rx="1" ry="1"/><path d="M23.724,19.067a.5.5,0,0,0,.129-.8,3.236,3.236,0,0,0-3.482-1.13c-.058.017-1.967.628-2.024.646a.5.5,0,0,0-.348.485,2.25,2.25,0,0,1-2.249,2.29H10.5a.5.5,0,0,1,0-1h5.25a1.25,1.25,0,0,0,0-2.5l-3.557.007a.494.494,0,0,1-.272-.08c-.122-.078-.286-.2-.428-.3A6.836,6.836,0,0,0,7.5,15.058h-2a.5.5,0,0,0-.5.5v5.9a.5.5,0,0,0,.339.474c.706.239,1.341.46,1.917.66C9.88,23.5,11.344,24,12.674,24c1.624,0,3.049-.742,6.139-2.386C20.094,20.933,21.689,20.085,23.724,19.067Z"/><path d="M18.168,2.919A.5.5,0,0,0,19,2.545V1a1,1,0,0,0-1-1H16.2a.5.5,0,0,0-.332.874Z"/><path d="M5.5,7.5h2A.5.5,0,0,1,8,8v5a1,1,0,0,0,1,1h1.5a1,1,0,0,0,1-1V10.5A.5.5,0,0,1,12,10h2a.5.5,0,0,1,.5.5V13a1,1,0,0,0,1,1H17a1,1,0,0,0,1-1V8a.5.5,0,0,1,.5-.5h2a.5.5,0,0,0,.332-.874L13.664.252h0a1,1,0,0,0-1.328,0L5.168,6.626A.5.5,0,0,0,5.5,7.5Z"/></svg>