<svg xmlns="http://www.w3.org/2000/svg" viewBox="0 0 24 24"><title>receipt-register</title><path d="M19.914,17.75a.25.25,0,0,0,.246-.3,12.674,12.674,0,0,0-.745-2.553.249.249,0,0,1,.094-.3l1.042-.688a1,1,0,1,0-1.1-1.669l-.839.554a.25.25,0,0,1-.346-.071,12.7,12.7,0,0,0-.784-1.059.25.25,0,0,1,0-.317l.919-1.12a1,1,0,1,0-1.545-1.27l-.761.928a.249.249,0,0,1-.169.09.253.253,0,0,1-.184-.056,12.673,12.673,0,0,0-1.178-.864.25.25,0,0,1-.082-.331l.394-.712a1,1,0,0,0-1.75-.97l-.427.772a.25.25,0,0,1-.312.11A12.7,12.7,0,0,0,10.2,7.26a.25.25,0,0,1-.2-.245V1.5A1.5,1.5,0,0,0,8.5,0h-5A1.5,1.5,0,0,0,2,1.5v16a.25.25,0,0,0,.25.25Z"/><path d="M20.522,19.25H2.25A.25.25,0,0,0,2,19.5v3.062A1.472,1.472,0,0,0,3.5,24h17A1.472,1.472,0,0,0,22,22.562V20.686A1.469,1.469,0,0,0,20.522,19.25Z"/></svg>