<svg id="Bold" xmlns="http://www.w3.org/2000/svg" viewBox="0 0 24 24"><title>recycling-bag-1</title><path d="M24,22.421l-.894-17A1.5,1.5,0,0,0,21.605,4H17.1a.5.5,0,0,1-.485-.381,4.751,4.751,0,0,0-9.228,0A.5.5,0,0,1,6.9,4H2.4A1.5,1.5,0,0,0,.9,5.421L0,22.421A1.5,1.5,0,0,0,1.5,24h21A1.5,1.5,0,0,0,24,22.421ZM9.716,3.222a2.745,2.745,0,0,1,4.568,0A.5.5,0,0,1,13.869,4H10.131a.5.5,0,0,1-.415-.778ZM10,20.25H6.214A1.75,1.75,0,0,1,4.7,17.626l1.2-2.09a.5.5,0,0,0-.184-.683l-.649-.374a.5.5,0,0,1,.119-.916l2.732-.734a.5.5,0,0,1,.613.353l.734,2.732a.5.5,0,0,1-.179.525.489.489,0,0,1-.3.1.508.508,0,0,1-.25-.066l-.65-.375a.5.5,0,0,0-.683.183L6,18.375a.25.25,0,0,0,.216.375H10a.75.75,0,0,1,0,1.5ZM11.783,8.341l-1.775,3.078a.75.75,0,0,1-1.3-.749l1.775-3.078A1.752,1.752,0,0,1,12,6.716h0a1.751,1.751,0,0,1,1.516.88L14.554,9.4a.5.5,0,0,0,.683.185l.65-.373a.5.5,0,0,1,.732.564l-.74,2.731a.5.5,0,0,1-.233.3.512.512,0,0,1-.249.066.487.487,0,0,1-.131-.018l-2.73-.739a.5.5,0,0,1-.118-.916l.651-.373a.5.5,0,0,0,.184-.683L12.216,8.342a.249.249,0,0,0-.433,0Zm7.488,11.036a1.756,1.756,0,0,1-1.514.873H15.5a.5.5,0,0,0-.5.5v.75a.5.5,0,0,1-.309.462A.512.512,0,0,1,14.5,22a.5.5,0,0,1-.354-.146l-2-2a.5.5,0,0,1,0-.708l2-2A.5.5,0,0,1,15,17.5v.75a.5.5,0,0,0,.5.5h2.257a.251.251,0,0,0,.216-.125.247.247,0,0,0,0-.249l-1.827-3.185a.75.75,0,0,1,1.3-.747l1.827,3.185A1.754,1.754,0,0,1,19.271,19.377Z"/></svg>