<svg id="Bold" xmlns="http://www.w3.org/2000/svg" viewBox="0 0 24 24"><title>recycling-label</title><path d="M19.293,6.3V1a1,1,0,0,0-1-1h0l-5.55.006A.993.993,0,0,0,12.035.3L.293,12.042a1,1,0,0,0,0,1.415L5.832,19h0a.988.988,0,0,0,.708.293h0a1,1,0,0,0,.708-.3L19.007,7A1,1,0,0,0,19.293,6.3Zm-4-.295a2,2,0,1,1,2-2A2,2,0,0,1,15.293,6Z"/><path d="M23.935,13.654a.5.5,0,0,0-.677-.386,8.853,8.853,0,0,1-3.72.417,6.656,6.656,0,0,0-3.9.643A3.793,3.793,0,0,0,13.5,17.05a2.791,2.791,0,0,0,.382,1.651.5.5,0,0,1-.107.619,20.461,20.461,0,0,0-3.247,3.509.75.75,0,0,0,1.24.844,24.289,24.289,0,0,1,6.843-6.033.75.75,0,0,1,.767,1.289,23.261,23.261,0,0,0-3.534,2.584.5.5,0,0,0-.026.724,2.279,2.279,0,0,0,.6.441,2.514,2.514,0,0,0,1.148.257,5.417,5.417,0,0,0,2.694-.886C22.261,20.851,24.4,16.565,23.935,13.654Z"/></svg>