<svg id="Bold" xmlns="http://www.w3.org/2000/svg" viewBox="0 0 24 24"><title>recycling-trash-bin-1</title><path d="M22.816,3.223,21.113.668A1.5,1.5,0,0,0,19.865,0H4.135A1.5,1.5,0,0,0,2.887.668l-1.7,2.555A.5.5,0,0,0,1.6,4H22.4a.5.5,0,0,0,.416-.777Z"/><path d="M22.3,5.5H1.705a.5.5,0,0,0-.5.554l1.8,16.6A1.5,1.5,0,0,0,4.5,24h15a1.5,1.5,0,0,0,1.492-1.342l1.8-16.6a.5.5,0,0,0-.5-.554ZM13.56,20.756a.25.25,0,0,1-.31-.243V17.5a.5.5,0,0,1,.5-.5h1.389a1.861,1.861,0,1,0,0-3.721,1.605,1.605,0,0,0-.327.034.245.245,0,0,1-.191-.041.25.25,0,0,1-.105-.166,2.547,2.547,0,0,0-5.032,0,.253.253,0,0,1-.1.166.248.248,0,0,1-.192.041,1.608,1.608,0,0,0-.328-.034A1.861,1.861,0,0,0,8.86,17h1.39a.5.5,0,0,1,.5.5v3.013a.25.25,0,0,1-.31.243,6.5,6.5,0,1,1,3.12,0Z"/></svg>