<svg id="Bold" xmlns="http://www.w3.org/2000/svg" viewBox="0 0 24 24"><title>recycling-trash-bin-2</title><path d="M23.109.324A1,1,0,0,0,22.372,0H1.628a1,1,0,0,0-1,1.086L2.506,22.63A1.491,1.491,0,0,0,4,24H20a1.491,1.491,0,0,0,1.494-1.37L23.368,1.086A1,1,0,0,0,23.109.324ZM10.045,17.5H6.26a2,2,0,0,1-1.734-3l1.206-2.091a.5.5,0,0,0-.184-.682l-.433-.25a.5.5,0,0,1,.12-.916l2.731-.734a.5.5,0,0,1,.613.353l.734,2.732a.5.5,0,0,1-.178.525.494.494,0,0,1-.3.1.5.5,0,0,1-.249-.066l-.434-.25a.5.5,0,0,0-.683.183l-.989,1.715a.251.251,0,0,0,.217.375h3.353a1,1,0,1,1,0,2ZM11.827,5.842l-1.557,2.7a1,1,0,1,1-1.732-1l1.774-3.078a2.1,2.1,0,0,1,1.735-1,2,2,0,0,1,1.732,1l1.038,1.808a.5.5,0,0,0,.682.185l.434-.248a.5.5,0,0,1,.731.563l-.739,2.731a.5.5,0,0,1-.482.369.487.487,0,0,1-.131-.018l-2.731-.739a.5.5,0,0,1-.118-.916l.434-.249a.5.5,0,0,0,.185-.683l-.821-1.43a.25.25,0,0,0-.434,0ZM19.533,16.5a2.008,2.008,0,0,1-1.731,1H15.545a.5.5,0,0,0-.5.5v.5a.5.5,0,0,1-.308.462.513.513,0,0,1-.192.038.5.5,0,0,1-.353-.146l-2-2a.5.5,0,0,1,0-.708l2-2a.5.5,0,0,1,.853.354V15a.5.5,0,0,0,.5.5h1.826a.251.251,0,0,0,.216-.125.247.247,0,0,0,0-.249l-1.612-2.811a1,1,0,1,1,1.734-.995L19.537,14.5A2.007,2.007,0,0,1,19.533,16.5Z"/></svg>