<svg xmlns="http://www.w3.org/2000/svg" viewBox="0 0 24 24"><title>reflect-left</title><path d="M12,8a1,1,0,0,0-1,1V23a1,1,0,0,0,2,0V9A1,1,0,0,0,12,8Z"/><path d="M21.939,8.646l-6.293,6.293a1.5,1.5,0,0,0,0,2.122l6.293,6.293A1.174,1.174,0,0,0,24,22.5V9.5A1.173,1.173,0,0,0,21.939,8.646ZM22,19.982a.25.25,0,0,1-.427.177l-3.982-3.982a.25.25,0,0,1,0-.354l3.982-3.982a.25.25,0,0,1,.427.177Z"/><path d="M2.061,8.646A1.173,1.173,0,0,0,0,9.5v13a1.175,1.175,0,0,0,2.061.854l6.293-6.293a1.5,1.5,0,0,0,0-2.122Z"/><path d="M10.008,3.914l-.761-.173a.243.243,0,0,1-.111-.415A4.948,4.948,0,0,1,12.5,2a5.006,5.006,0,0,1,5,5,1,1,0,0,0,2,0A7,7,0,0,0,6.75,3.018a.245.245,0,0,1-.254.1L5.107,2.8A1,1,0,0,0,3.991,4.224L5.605,7.447a1.023,1.023,0,0,0,1.435.395l3.286-2.111A1,1,0,0,0,10.008,3.914Z"/></svg>