<svg xmlns="http://www.w3.org/2000/svg" viewBox="0 0 24 24"><title>religion-ankh</title><path d="M22,10a1,1,0,0,0-1-1H16.892a.25.25,0,0,1-.22-.369A6.563,6.563,0,0,0,17.5,5.5,5.346,5.346,0,0,0,12,0,5.346,5.346,0,0,0,6.5,5.5a6.563,6.563,0,0,0,.828,3.131A.25.25,0,0,1,7.108,9H3a1,1,0,0,0-1,1v2a1,1,0,0,0,1,1H8.9a.5.5,0,0,1,.5.545l-.856,9.412A.951.951,0,0,0,9.5,24h5a.951.951,0,0,0,.953-1.043L14.6,13.545A.5.5,0,0,1,15.1,13H21a1,1,0,0,0,1-1ZM12.3,8.9a.5.5,0,0,1-.6,0c-.225-.169-2.2-1.7-2.2-3.4A2.276,2.276,0,0,1,12,3a2.276,2.276,0,0,1,2.5,2.5C14.5,7.2,12.525,8.731,12.3,8.9Z"/></svg>