<svg xmlns="http://www.w3.org/2000/svg" viewBox="0 0 24 24"><title>religion-angel</title><path d="M12,8.25a29.3,29.3,0,0,1-6.284-.644.5.5,0,0,0-.541.225A7.951,7.951,0,0,0,4,12v4a8,8,0,0,0,16,0V12a7.951,7.951,0,0,0-1.175-4.169.5.5,0,0,0-.541-.225A29.3,29.3,0,0,1,12,8.25ZM12,22a6.006,6.006,0,0,1-6-6V12.668a.5.5,0,0,1,.312-.463,4.393,4.393,0,0,0,2.2-1.992.249.249,0,0,1,.375-.073c1.1.887,3.542,2.122,8.632,2.326a.5.5,0,0,1,.48.5V16A6.006,6.006,0,0,1,12,22Z"/><path d="M12,0C8.286,0,2,.737,2,3.5S8.286,7,12,7s10-.737,10-3.5S15.714,0,12,0Zm0,5A19.962,19.962,0,0,1,4.893,3.963a.5.5,0,0,1,0-.926A19.962,19.962,0,0,1,12,2a19.971,19.971,0,0,1,7.107,1.037.5.5,0,0,1,0,.926A19.971,19.971,0,0,1,12,5Z"/><path d="M10.53,15.47a.75.75,0,0,0,0-1.061,2.306,2.306,0,0,0-3.182,0A.751.751,0,0,0,8.41,15.47a.768.768,0,0,1,1.06,0A.749.749,0,0,0,10.53,15.47Z"/><path d="M13.47,14.409a.75.75,0,0,0,1.06,1.061.768.768,0,0,1,1.06,0,.751.751,0,0,0,1.062-1.061A2.3,2.3,0,0,0,13.47,14.409Z"/><path d="M13.237,18.237a1.789,1.789,0,0,1-2.475,0A.75.75,0,1,0,9.7,19.3a3.25,3.25,0,0,0,4.6,0,.75.75,0,0,0-1.061-1.061Z"/></svg>