<svg xmlns="http://www.w3.org/2000/svg" viewBox="0 0 24 24"><title>religion-man-muslim-1</title><path d="M.124,22.763a.99.99,0,1,0,1.979,0v-.99a1.2,1.2,0,0,1,.373-.881c1.182-.9,3.816-2.373,8.524-2.56a.246.246,0,0,1,.182.069.25.25,0,0,1,.076.178v4.679a.742.742,0,0,0,1.484,0V18.547a.217.217,0,0,1,.225-.216c4.729.181,7.372,1.657,8.558,2.562a.963.963,0,0,1,.372.775v1.1a.99.99,0,1,0,1.979,0v-1.1a2.926,2.926,0,0,0-1.151-2.349,14.472,14.472,0,0,0-5.7-2.472.247.247,0,0,1-.091-.442A4.709,4.709,0,0,0,18.919,12.3a.115.115,0,0,1,0-.019c.022-5.734.012-5.422,0-5.514l-.576-3.457A3.946,3.946,0,0,0,14.433,0H9.567a3.946,3.946,0,0,0-3.9,3.308L5.086,6.765c-.016.09-.029-.123,0,5.44v.019a4.763,4.763,0,0,0,1.982,4.181.247.247,0,0,1-.091.442,14.467,14.467,0,0,0-5.7,2.471A3.162,3.162,0,0,0,.124,21.773ZM9.567,1.979h4.866a1.974,1.974,0,0,1,1.953,1.655l.418,2.51a.244.244,0,0,1-.075.221.249.249,0,0,1-.227.06A19.244,19.244,0,0,0,12,5.938a19.244,19.244,0,0,0-4.5.487.247.247,0,0,1-.3-.281l.418-2.51A1.974,1.974,0,0,1,9.567,1.979ZM12,7.423a16.644,16.644,0,0,1,4.772.613.248.248,0,0,1,.176.237v.98a.245.245,0,0,1-.069.172l-1.956,2.028a1.008,1.008,0,0,0-.079.094.889.889,0,0,1-1,.311,5.884,5.884,0,0,0-3.7,0,.891.891,0,0,1-1-.311,1.008,1.008,0,0,0-.079-.094L7.121,9.425a.245.245,0,0,1-.069-.172v-.98a.248.248,0,0,1,.176-.237A16.644,16.644,0,0,1,12,7.423Zm-1.633,6.785a.743.743,0,0,1,.72-.56h1.826a.743.743,0,0,1,.356,1.394,2.277,2.277,0,0,1-.428.178,2.842,2.842,0,0,1-.841.122,2.914,2.914,0,0,1-.839-.122,2.346,2.346,0,0,1-.427-.178A.742.742,0,0,1,10.367,14.208Z"/><circle cx="14.474" cy="19.794" r="0.99"/><circle cx="14.474" cy="22.763" r="0.99"/><circle cx="13.979" cy="9.258" r="0.99"/><circle cx="10.021" cy="9.258" r="0.99"/></svg>