<svg xmlns="http://www.w3.org/2000/svg" viewBox="0 0 24 24"><title>religion-devil-head</title><path d="M23.533,10.7a1.5,1.5,0,0,0-2.286-1.437l-1.909,1.193a7.444,7.444,0,0,0-.421-1.481,6.188,6.188,0,0,0-.02-7.922.749.749,0,0,0-1.35.419,5.918,5.918,0,0,1-2.029,3.686,7.472,7.472,0,0,0-7.064-.027,5.881,5.881,0,0,1-2-3.66A.756.756,0,0,0,5.925.781.747.747,0,0,0,5.1,1.05,6.189,6.189,0,0,0,5.025,8.9a7.508,7.508,0,0,0-.439,1.5L2.753,9.259A1.5,1.5,0,0,0,.467,10.7,7.436,7.436,0,0,0,4.5,16.539a7.5,7.5,0,0,0,14.908.053A7.473,7.473,0,0,0,23.533,10.7Zm-7.875,7.291c-.434.827-1.42,1.766-3.658,1.766s-3.223-.939-3.658-1.766a.5.5,0,0,1,.62-.7A8.591,8.591,0,0,0,12,17.753a8.591,8.591,0,0,0,3.038-.466.5.5,0,0,1,.62.7Zm-8.609-6.3.348-.3a1.749,1.749,0,0,1,2.653.421l.635,1.063a.749.749,0,0,1-.921,1.081l-2.5-1a.75.75,0,0,1-.215-1.261Zm7.271,2.261a.75.75,0,0,1-.922-1.081l.636-1.063a1.748,1.748,0,0,1,2.653-.42l.348.3a.75.75,0,0,1-.215,1.261Z"/></svg>