<svg xmlns="http://www.w3.org/2000/svg" viewBox="0 0 24 24"><title>religion-hexagram</title><path d="M22.6,16.408l-2.76-4.553L22.6,7.3a1.25,1.25,0,0,0-1.1-1.947H15.9L13.115.764a1.313,1.313,0,0,0-2.229,0L8.1,5.354H2.5A1.25,1.25,0,0,0,1.4,7.3h0l2.76,4.553L1.4,16.408a1.249,1.249,0,0,0,1.1,1.946H8.1l3.041,5.019a1,1,0,0,0,1.71,0L15.9,18.354h5.6a1.249,1.249,0,0,0,1.1-1.946ZM19.781,7.354a.251.251,0,0,1,.214.38L18.881,9.572a.25.25,0,0,1-.428,0L17.339,7.734a.251.251,0,0,1,.214-.38Zm-2.362,4.371a.251.251,0,0,1,0,.259l-2.576,4.25a.248.248,0,0,1-.214.12H9.371a.248.248,0,0,1-.214-.12l-2.576-4.25a.251.251,0,0,1,0-.259l2.576-4.25a.249.249,0,0,1,.214-.121h5.258a.249.249,0,0,1,.214.121ZM11.786,3.137a.251.251,0,0,1,.428,0l1.114,1.838a.25.25,0,0,1-.214.379H10.886a.25.25,0,0,1-.214-.379Zm-7.781,4.6a.251.251,0,0,1,.214-.38H6.447a.251.251,0,0,1,.214.38L5.547,9.572a.251.251,0,0,1-.428,0Zm.214,8.62a.25.25,0,0,1-.214-.379L5.12,14.136a.25.25,0,0,1,.427,0l1.114,1.839a.25.25,0,0,1-.213.379Zm8,4.218a.251.251,0,0,1-.428,0l-1.114-1.838a.251.251,0,0,1,.214-.38h2.228a.251.251,0,0,1,.214.38Zm5.339-4.218a.25.25,0,0,1-.214-.379l1.114-1.838a.251.251,0,0,1,.428,0L20,15.975a.25.25,0,0,1-.214.379Z"/></svg>