<svg xmlns="http://www.w3.org/2000/svg" viewBox="0 0 24 24"><title>religion-buddhism</title><path d="M24,12A12,12,0,1,0,12,24,12.017,12.017,0,0,0,24,12ZM2.083,13.282A.25.25,0,0,1,2.331,13H8.983a.25.25,0,0,1,.177.427l-4.7,4.7a.249.249,0,0,1-.374-.024A9.946,9.946,0,0,1,2.083,13.282Zm2-7.385a.249.249,0,0,1,.374-.024l4.7,4.7A.25.25,0,0,1,8.983,11H2.331a.25.25,0,0,1-.188-.085.253.253,0,0,1-.06-.2A9.946,9.946,0,0,1,4.086,5.9Zm17.831,4.821a.25.25,0,0,1-.248.282H15.017a.25.25,0,0,1-.177-.427l4.7-4.7a.249.249,0,0,1,.374.024A9.946,9.946,0,0,1,21.917,10.718Zm-8.49-1.559A.25.25,0,0,1,13,8.982V2.331a.25.25,0,0,1,.282-.248,9.95,9.95,0,0,1,4.819,2,.25.25,0,0,1,.024.375ZM11,8.982a.25.25,0,0,1-.427.177l-4.7-4.7A.249.249,0,0,1,5.8,4.266a.251.251,0,0,1,.1-.182,9.95,9.95,0,0,1,4.819-2A.25.25,0,0,1,11,2.331Zm-.427,5.859a.25.25,0,0,1,.427.177v6.651a.25.25,0,0,1-.282.248,9.95,9.95,0,0,1-4.819-2,.25.25,0,0,1-.024-.375ZM13,15.018a.25.25,0,0,1,.427-.177l4.7,4.7a.249.249,0,0,1,.073.193.251.251,0,0,1-.1.182,9.95,9.95,0,0,1-4.819,2A.25.25,0,0,1,13,21.669Zm1.84-1.591A.25.25,0,0,1,15.017,13h6.652a.25.25,0,0,1,.188.085.253.253,0,0,1,.06.2,9.946,9.946,0,0,1-2,4.821.249.249,0,0,1-.374.024Z"/></svg>