<svg xmlns="http://www.w3.org/2000/svg" viewBox="0 0 24 24"><title>religion-angel-1</title><path d="M7.94,12.775a.5.5,0,0,0-.225-.847C5.665,11.42,3.1,10.455,1.993,9.241A.768.768,0,0,0,1.2,9.032.731.731,0,0,0,.683,9.7c-.088,2.263.7,5.337,2.181,6.564a2.36,2.36,0,0,0,1.278.562.252.252,0,0,1,.212.167,1.836,1.836,0,0,0,.583.847,1.582,1.582,0,0,0,.44.249.5.5,0,0,0,.676-.466v-.439A6.09,6.09,0,0,1,7.94,12.775Z"/><path d="M22.8,9.032a.759.759,0,0,0-.79.21c-1.1,1.2-3.683,2.2-5.824,2.718a.5.5,0,0,0-.231.846,6.09,6.09,0,0,1,1.852,4.4v.452a.5.5,0,0,0,.622.486,1.645,1.645,0,0,0,.639-.312,1.836,1.836,0,0,0,.583-.847.252.252,0,0,1,.212-.167,2.36,2.36,0,0,0,1.278-.562c1.477-1.227,2.269-4.3,2.181-6.563A.731.731,0,0,0,22.8,9.032Z"/><path d="M16.292,21.532l.011-4.325a4.456,4.456,0,0,0-4.363-4.544,4.455,4.455,0,0,0-4.386,4.522L7.543,21.51A3.743,3.743,0,0,1,7,23.275a.5.5,0,0,0,.451.715h8.914a.5.5,0,0,0,.451-.716A3.626,3.626,0,0,1,16.292,21.532Z"/><path d="M7.5,7.5A4.49,4.49,0,0,0,10,11.505a4.337,4.337,0,0,0,3.95.032A4.493,4.493,0,1,0,7.5,7.5Zm6.6.431a.25.25,0,0,1,.275.323A2.494,2.494,0,0,1,9.5,7.5a2.185,2.185,0,0,1,.013-.23.251.251,0,0,1,.379-.186A6.258,6.258,0,0,0,13.167,8,6.284,6.284,0,0,0,14.1,7.928Z"/><path d="M7.5,2.01h9a1,1,0,1,0,0-2h-9a1,1,0,0,0,0,2Z"/></svg>