<svg xmlns="http://www.w3.org/2000/svg" viewBox="0 0 24 24"><title>religion-shield</title><path d="M22.5,1.016a.5.5,0,0,0-.786-.41A8.136,8.136,0,0,1,16.987,2.39,5.873,5.873,0,0,1,12.4.182a.535.535,0,0,0-.795,0A5.868,5.868,0,0,1,7.013,2.39,8.126,8.126,0,0,1,2.287.606a.5.5,0,0,0-.787.41V15.827a.5.5,0,0,0,.018.133c.062.227,1.626,5.572,10.347,8.017a.515.515,0,0,0,.27,0c8.721-2.445,10.285-7.79,10.347-8.017a.5.5,0,0,0,.018-.133Zm-3,13.461a.5.5,0,0,1-.651.476,21.206,21.206,0,0,0-4.688-.844.5.5,0,0,0-.537.536,19.931,19.931,0,0,0,.851,4.676.5.5,0,0,1-.475.656H10a.5.5,0,0,1-.474-.658,19.967,19.967,0,0,0,.876-4.684.5.5,0,0,0-.536-.538,20.024,20.024,0,0,0-4.71.854.492.492,0,0,1-.449-.069.5.5,0,0,1-.207-.4v-4A.5.5,0,0,1,5.159,10a19.847,19.847,0,0,0,4.705.878.5.5,0,0,0,.538-.537,20.087,20.087,0,0,0-.877-4.709A.5.5,0,0,1,10,4.977h4a.5.5,0,0,1,.477.65,21.21,21.21,0,0,0-.846,4.711.5.5,0,0,0,.538.537A20.082,20.082,0,0,0,18.842,10a.5.5,0,0,1,.658.475Z"/></svg>