<svg xmlns="http://www.w3.org/2000/svg" viewBox="0 0 24 24"><title>religion-man-indian</title><path d="M21.08,18.287l-.017-.006-.93-.313a.5.5,0,0,0-.628.3c-1.049,2.8-4.075,3.518-6.291,3.679a.5.5,0,0,0-.464.5V23.5a.5.5,0,0,0,.5.5H23.5a.5.5,0,0,0,.5-.5v-1A4.519,4.519,0,0,0,21.08,18.287Z"/><path d="M11.25,22.444a.5.5,0,0,0-.464-.5c-2.212-.161-5.241-.874-6.291-3.679a.5.5,0,0,0-.628-.3l-.947.319A4.519,4.519,0,0,0,0,22.5v1a.5.5,0,0,0,.5.5H10.75a.5.5,0,0,0,.5-.5Z"/><path d="M11.129,10.786a.762.762,0,0,0-.039-1.06,2.019,2.019,0,0,0-2.6,0,.75.75,0,0,0,1.022,1.1.557.557,0,0,1,.557,0,.924.924,0,0,0,.511.2A.751.751,0,0,0,11.129,10.786Z"/><path d="M13.867,10.864a.559.559,0,0,1,.622-.039.75.75,0,1,0,1.022-1.1,2.019,2.019,0,0,0-2.6,0,.761.761,0,0,0-.038,1.06A.742.742,0,0,0,13.867,10.864Z"/><path d="M6.186,13.071c.123.057.123.14.189.319-.452.961-1.234,3.1-.251,4.823C6.988,19.731,8.965,20.5,12,20.5s5.012-.769,5.876-2.287c.983-1.725.2-3.862-.251-4.823.067-.182.067-.263.189-.319a2.233,2.233,0,0,0,.924-.8,3.077,3.077,0,0,0,.506-1.567A5.727,5.727,0,0,0,21.25,6.5C21.25,2.794,17.273,0,12,0S2.75,2.794,2.75,6.5a5.727,5.727,0,0,0,2.006,4.2,3.077,3.077,0,0,0,.506,1.567A2.233,2.233,0,0,0,6.186,13.071ZM12,7.75c-.678,0-1.25-.8-1.25-1.75S11.322,4.25,12,4.25s1.25.8,1.25,1.75S12.678,7.75,12,7.75Zm-1.857.631a2.42,2.42,0,0,0,3.719-.005,14.936,14.936,0,0,1,3.39.851v.1h0a.748.748,0,0,0,.394.843.634.634,0,0,1,.1.44,1.585,1.585,0,0,1-.161.654.906.906,0,0,1-.4.442,1.752,1.752,0,0,0-1,1.306c0,.017,0,.033,0,.05A2.334,2.334,0,0,1,15,13.5c-.183,0-.3-.1-.577-.4A2.957,2.957,0,0,0,12,12a2.957,2.957,0,0,0-2.423,1.1c-.28.3-.394.4-.577.4a2.334,2.334,0,0,1-1.193-.438c0-.017,0-.033,0-.05a1.752,1.752,0,0,0-1-1.306.916.916,0,0,1-.4-.452,1.6,1.6,0,0,1-.157-.644.751.751,0,0,1,.088-.422A.749.749,0,0,0,6.789,9.5V9.226A14.878,14.878,0,0,1,10.143,8.381Zm1.726,9.369h-.006a3.154,3.154,0,0,1-1.5-.364.75.75,0,1,1,.731-1.31,1.576,1.576,0,0,0,.771.174h0a1.613,1.613,0,0,0,.764-.172.75.75,0,1,1,.734,1.307A3.1,3.1,0,0,1,11.869,17.75ZM19.75,6.5a4.009,4.009,0,0,1-1,2.559V8.707a.749.749,0,0,0-.464-.692h0a16.432,16.432,0,0,0-3.676-1.048A3.77,3.77,0,0,0,14.75,6,3.035,3.035,0,0,0,12,2.75,2.89,2.89,0,0,0,9.333,5.243,1.6,1.6,0,0,1,8.7,4.982,3.858,3.858,0,0,1,7.438,2.439,10.916,10.916,0,0,1,12,1.5C16.346,1.5,19.75,3.7,19.75,6.5Zm-15.5,0A4.13,4.13,0,0,1,6.067,3.253,4.807,4.807,0,0,0,7.844,6.216a3.108,3.108,0,0,0,1.491.548c.015.072.036.14.055.21A16.377,16.377,0,0,0,5.751,8.015h0a.764.764,0,0,0-.461.69h0v.4A4.029,4.029,0,0,1,4.25,6.5Z"/></svg>