<svg xmlns="http://www.w3.org/2000/svg" viewBox="0 0 24 24"><title>religion-bible</title><path d="M19.75,4V2a2,2,0,0,0-2-2H5.25a3,3,0,0,0-3,3V21a3,3,0,0,0,3,3h14.5a2,2,0,0,0,2-2V6A2,2,0,0,0,19.75,4Zm-11,9a.5.5,0,0,1-.5-.5v-1a.5.5,0,0,1,.5-.5h2a.5.5,0,0,0,.5-.5v-2a.5.5,0,0,1,.5-.5h1a.5.5,0,0,1,.5.5v2a.5.5,0,0,0,.5.5h2a.5.5,0,0,1,.5.5v1a.5.5,0,0,1-.5.5h-2a.5.5,0,0,0-.5.5v5a.5.5,0,0,1-.5.5h-1a.5.5,0,0,1-.5-.5v-5a.5.5,0,0,0-.5-.5ZM5.25,2h12a.5.5,0,0,1,.5.5v1a.5.5,0,0,1-.5.5h-12a1,1,0,0,1,0-2Z"/></svg>