<svg xmlns="http://www.w3.org/2000/svg" viewBox="0 0 24 24"><title>religion-cross</title><path d="M16.5,8.65H14.25a.5.5,0,0,1-.5-.5V5.9A1.252,1.252,0,0,0,12.5,4.65h-1A1.252,1.252,0,0,0,10.25,5.9V8.15a.5.5,0,0,1-.5.5H7.5A1.252,1.252,0,0,0,6.25,9.9v1A1.251,1.251,0,0,0,7.5,12.15H9.75a.5.5,0,0,1,.5.5V18.4a1.251,1.251,0,0,0,1.25,1.25h1a1.251,1.251,0,0,0,1.25-1.25V12.65a.5.5,0,0,1,.5-.5H16.5a1.251,1.251,0,0,0,1.25-1.25v-1A1.252,1.252,0,0,0,16.5,8.65Z"/><path d="M6.792,4.956a1,1,0,0,0,.8-1.6l-1.2-1.6a1,1,0,0,0-1.6,1.2l1.2,1.6A1,1,0,0,0,6.792,4.956Z"/><path d="M2.72,9.694a.973.973,0,0,0,.316.052A1,1,0,0,0,3.352,7.8l-1.9-.632a1,1,0,1,0-.632,1.9Z"/><path d="M2.788,14.861,1.058,15.9a1,1,0,1,0,1.029,1.714l1.73-1.038a1,1,0,1,0-1.029-1.715Z"/><path d="M7.642,19.2a1,1,0,0,0-1.4.233L5.081,21.067a1,1,0,1,0,1.627,1.162L7.874,20.6A1,1,0,0,0,7.642,19.2Z"/><path d="M19.011,1.552a1,1,0,0,0-1.4.2l-1.2,1.6a1,1,0,1,0,1.6,1.2l1.2-1.6A1,1,0,0,0,19.011,1.552Z"/><path d="M23.811,7.8a1,1,0,0,0-1.266-.632l-1.93.643a1,1,0,0,0,.633,1.9l1.93-.644A1,1,0,0,0,23.811,7.8Z"/><path d="M22.942,15.9l-1.73-1.039a1,1,0,0,0-1.029,1.715l1.73,1.038a.991.991,0,0,0,.513.143,1,1,0,0,0,.516-1.857Z"/><path d="M17.753,19.435A1,1,0,1,0,16.126,20.6l1.166,1.632a1,1,0,1,0,1.627-1.162Z"/></svg>