<svg xmlns="http://www.w3.org/2000/svg" viewBox="0 0 24 24"><title>religion-cao-dai-hands-2</title><path d="M19.18,6.984a1.511,1.511,0,0,0,0-1.469,8.284,8.284,0,0,0-14.487,0,1.51,1.51,0,0,0,0,1.471,8.284,8.284,0,0,0,14.488,0ZM11.936,9.25A6.246,6.246,0,0,1,6.672,6.389a.251.251,0,0,1,0-.278,6.273,6.273,0,0,1,10.528,0,.251.251,0,0,1,0,.278A6.246,6.246,0,0,1,11.936,9.25Z"/><circle cx="11.936" cy="6.25" r="2"/><path d="M6.867,15.284a1.376,1.376,0,1,0-2.251,1.583L5.4,17.95a.5.5,0,0,1-.8.6L3.5,17.083a2.52,2.52,0,0,1-.5-1.5V11.25a1.5,1.5,0,0,0-3,0v5.672a5.014,5.014,0,0,0,1.1,3.123l2.013,2.517a.5.5,0,0,0,.391.188H8a.5.5,0,0,0,.5-.5V19.113a5.061,5.061,0,0,0-.93-2.774Z"/><path d="M22.5,9.75a1.5,1.5,0,0,0-1.5,1.5v4.333a2.52,2.52,0,0,1-.5,1.5L19.4,18.55a.5.5,0,1,1-.8-.6l.784-1.083a1.376,1.376,0,1,0-2.251-1.583l-.7,1.055a5.061,5.061,0,0,0-.93,2.774V22.25a.5.5,0,0,0,.5.5h4.5a.5.5,0,0,0,.391-.188L22.9,20.045A5.014,5.014,0,0,0,24,16.922V11.25A1.5,1.5,0,0,0,22.5,9.75Z"/></svg>