<svg xmlns="http://www.w3.org/2000/svg" viewBox="0 0 24 24"><title>religion-cao-dai-hand</title><rect y="14.029" width="4" height="9" rx="1" ry="1"/><path d="M20.363,17.111l-.016,0-2,.639a.5.5,0,0,0-.348.485,2.25,2.25,0,0,1-2.249,2.29H10.5a.5.5,0,0,1,0-1h5.25a1.25,1.25,0,0,0,0-2.5l-3.628.008A.259.259,0,0,1,12,17c-.12-.07-.329-.222-.5-.35A6.836,6.836,0,0,0,7.5,15.029h-2a.5.5,0,0,0-.5.5v5.9a.5.5,0,0,0,.339.474c.706.239,1.34.46,1.917.66,2.624.911,4.088,1.409,5.418,1.409,1.624,0,3.048-.742,6.139-2.386,1.281-.681,2.876-1.529,4.91-2.546a.5.5,0,0,0,.13-.8A3.243,3.243,0,0,0,20.363,17.111Z"/><path d="M11.117,12.771H23.185a.767.767,0,0,0,.7-1.179L17.8.469a.741.741,0,0,0-1.356,0L10.416,11.593a.768.768,0,0,0,.7,1.178Zm6-6.5a3.869,3.869,0,0,1,3.334,2,3.779,3.779,0,0,1-6.668,0A3.869,3.869,0,0,1,17.117,6.271Z"/><circle cx="17.117" cy="8.271" r="1"/></svg>