<svg id="Bold" xmlns="http://www.w3.org/2000/svg" viewBox="0 0 24 24"><title>renewable-energy-solar-power</title><path d="M23.919,15.507A.878.878,0,0,0,23.125,15H21.5a.5.5,0,0,1-.5-.5v-5a.5.5,0,0,0-.89-.313l-5.9,7.371A.875.875,0,0,0,14.875,18H16.5a.5.5,0,0,1,.5.5v5a.5.5,0,0,0,.89.312l5.9-7.37A.879.879,0,0,0,23.919,15.507Z"/><circle cx="6.5" cy="6.5" r="2.5"/><path d="M6.5,3a1,1,0,0,0,1-1V1a1,1,0,0,0-2,0V2A1,1,0,0,0,6.5,3Z"/><path d="M2.611,4.025A1,1,0,1,0,4.025,2.611L3.318,1.9A1,1,0,0,0,1.9,3.318Z"/><path d="M3,6.5a1,1,0,0,0-1-1H1a1,1,0,0,0,0,2H2A1,1,0,0,0,3,6.5Z"/><path d="M2.611,8.975,1.9,9.682A1,1,0,0,0,3.318,11.1l.707-.707A1,1,0,1,0,2.611,8.975Z"/><path d="M5.5,11v1a1,1,0,0,0,2,0V11a1,1,0,0,0-2,0Z"/><path d="M8.975,8.975a1,1,0,0,0,0,1.414l.707.707A1,1,0,0,0,11.1,9.682l-.707-.707A1,1,0,0,0,8.975,8.975Z"/><path d="M10,6.5a1,1,0,0,0,1,1h1a1,1,0,0,0,0-2H11A1,1,0,0,0,10,6.5Z"/><path d="M10.389,4.025l.707-.707A1,1,0,0,0,9.682,1.9l-.707.707a1,1,0,1,0,1.414,1.414Z"/><path d="M14.653,5.809a.5.5,0,0,0,.854-.354.356.356,0,0,1,.51-.322,7.01,7.01,0,0,1,2.672,2.233A1,1,0,1,0,20.311,6.2,8.991,8.991,0,0,0,15.85,2.914a.5.5,0,0,1-.343-.475V1.455a.5.5,0,0,0-.854-.353l-2,2a.5.5,0,0,0,0,.707Z"/><path d="M11.36,17.1a.5.5,0,0,0-.853.353.358.358,0,0,1-.511.323,6.988,6.988,0,0,1-3.2-3.095,1,1,0,0,0-1.775.923A8.972,8.972,0,0,0,10.164,20a.5.5,0,0,1,.343.475v.984a.5.5,0,0,0,.309.462.508.508,0,0,0,.191.038.5.5,0,0,0,.353-.146l2-2a.5.5,0,0,0,0-.707Z"/></svg>