<svg id="Bold" xmlns="http://www.w3.org/2000/svg" viewBox="0 0 24 24"><title>renewable-energy-water-dam</title><path d="M23,15.972a3.745,3.745,0,0,1-2.9-1.646,1.055,1.055,0,0,0-1.546.023,3.72,3.72,0,0,1-2.884,1.623,3.743,3.743,0,0,1-2.9-1.646,1.055,1.055,0,0,0-1.547.024,6.387,6.387,0,0,1-.875.893,1,1,0,0,0-.205,1.333.985.985,0,0,0,1.421.251c.035-.028.069-.055.1-.083a.532.532,0,0,1,.657-.017,5.125,5.125,0,0,0,6.7,0,.5.5,0,0,1,.637,0A5.126,5.126,0,0,0,23,17.972a1,1,0,0,0,0-2Z"/><path d="M9.064,12.42a5.145,5.145,0,0,0,2.593-1.174.538.538,0,0,1,.66-.019,5.125,5.125,0,0,0,6.7,0,.5.5,0,0,1,.637,0A5.126,5.126,0,0,0,23,12.472a1,1,0,0,0,0-2,3.745,3.745,0,0,1-2.9-1.646,1.055,1.055,0,0,0-1.546.023,3.72,3.72,0,0,1-2.884,1.623,3.743,3.743,0,0,1-2.9-1.646,1.055,1.055,0,0,0-1.547.024,4.033,4.033,0,0,1-2.436,1.6.994.994,0,0,0,.283,1.968Z"/><path d="M5.5,4.487a1,1,0,0,0-1-.987H1a1,1,0,0,0-1,1v15a1,1,0,0,0,1,1H9.249a1,1,0,0,0,.739-1.673C8.676,17.387,5.613,13.107,5.5,4.487Z"/></svg>