<svg id="Bold" xmlns="http://www.w3.org/2000/svg" viewBox="0 0 24 24"><title>renewable-energy-wind-turbine</title><path d="M9.826,10.632a.5.5,0,0,0,.62.054,3.534,3.534,0,0,1,3.1-.4.5.5,0,0,0,.659-.433L14.824,1.8a1.647,1.647,0,0,0-3.19-.689L8.824,8.854a1,1,0,0,0,.251,1.064Z"/><path d="M10.838,18.365l.243-1.008a.5.5,0,0,0-.264-.563,3.532,3.532,0,0,1-1.891-2.482.5.5,0,0,0-.7-.355L.935,17.444a1.647,1.647,0,0,0,1,3.107l8.108-1.438A1,1,0,0,0,10.838,18.365Z"/><path d="M23.617,19.233l-5.3-6.3a1,1,0,0,0-1.046-.315l-.994.294a.5.5,0,0,0-.357.51,3.528,3.528,0,0,1-1.2,2.879.5.5,0,0,0-.171.405.5.5,0,0,0,.216.383l6.662,4.566a1.647,1.647,0,0,0,2.192-2.418Z"/><path d="M3.053,14.632a1,1,0,0,0,1-1A8.353,8.353,0,0,1,7.645,6.774,1,1,0,0,0,6.5,5.131a10.353,10.353,0,0,0-4.451,8.5A1,1,0,0,0,3.053,14.632Z"/><path d="M16.334,20.986a8.371,8.371,0,0,1-7.545.169,1,1,0,0,0-.864,1.8,10.38,10.38,0,0,0,9.354-.212,1,1,0,1,0-.945-1.762Z"/><path d="M17.077,6.728a8.326,8.326,0,0,1,3.606,5.956,1,1,0,0,0,1.988-.229A10.329,10.329,0,0,0,18.2,5.071a1,1,0,0,0-1.12,1.657Z"/><path d="M12.4,11.612a2.02,2.02,0,1,0,2.02,2.02A2.02,2.02,0,0,0,12.4,11.612Z"/></svg>