<svg id="Bold" xmlns="http://www.w3.org/2000/svg" viewBox="0 0 24 24"><title>renewable-energy-earth</title><path d="M9.481,6.192h0c2.33-1.5,5.949-3.128,8.644-2.538a.6.6,0,0,1-.258,1.181,8.47,8.47,0,0,0-4.593.749.5.5,0,0,0-.293.606c.492,1.652,2.286,2.189,4,1.96,2.09-.279,5.334-2.971,6-5.6a.606.606,0,0,0-.567-.753A7.858,7.858,0,0,1,19.194.9a8.4,8.4,0,0,0-2.8-.875,3.305,3.305,0,0,0-2.949,1.017,2.647,2.647,0,0,0-.562,1.743.5.5,0,0,1-.319.471A20.676,20.676,0,0,0,8.8,5.191a.6.6,0,0,0,.678,1Z"/><path d="M23.5,11.318a1.009,1.009,0,0,0-1,0l-4.109,2.36a.251.251,0,0,1-.375-.217V12.2a1,1,0,0,0-1.49-.872l-4.155,2.338A.25.25,0,0,1,12,13.447V12.241a1,1,0,0,0-1.545-.839L6.9,13.714a.248.248,0,0,1-.232.021.252.252,0,0,1-.149-.18L4.905,5.8A1,1,0,0,0,3.926,5H2.372a1,1,0,0,0-.99.86L.058,15.29A5.964,5.964,0,0,0,0,16.124V23a1,1,0,0,0,1,1H23a1,1,0,0,0,1-1V12.184A1,1,0,0,0,23.5,11.318Z"/></svg>