<svg id="Bold" xmlns="http://www.w3.org/2000/svg" viewBox="0 0 24 24"><title>renewable-energy-paper-turbine</title><circle cx="12" cy="12" r="2"/><path d="M9.962,9.691a.5.5,0,0,0-.108-.545L1.707,1A1,1,0,0,0,0,1.707V9.5a.5.5,0,0,0,.5.5h9A.5.5,0,0,0,9.962,9.691Z"/><path d="M2,11a.5.5,0,0,0-.354.854L5.4,15.6a.5.5,0,0,0,.708,0l2.75-2.75A.5.5,0,0,0,9,12.5v-1a.5.5,0,0,0-.5-.5Z"/><path d="M11.146,8.854A.5.5,0,0,0,11.5,9h1a.5.5,0,0,0,.5-.5V2a.5.5,0,0,0-.854-.354L8.4,5.4a.5.5,0,0,0,0,.708Z"/><path d="M17.9,8.4l-2.75,2.75A.5.5,0,0,0,15,11.5v1a.5.5,0,0,0,.5.5H22a.5.5,0,0,0,.354-.854L18.6,8.4A.5.5,0,0,0,17.9,8.4Z"/><path d="M12.854,15.146A.5.5,0,0,0,12.5,15h-1a.5.5,0,0,0-.5.5V22a.5.5,0,0,0,.309.462.512.512,0,0,0,.191.038.5.5,0,0,0,.354-.146L15.6,18.6a.5.5,0,0,0,0-.708Z"/><path d="M14.309,9.962A.512.512,0,0,0,14.5,10a.5.5,0,0,0,.354-.146L23,1.707A1,1,0,0,0,22.293,0H14.5a.5.5,0,0,0-.5.5v9A.5.5,0,0,0,14.309,9.962Z"/><path d="M23.5,14h-9a.5.5,0,0,0-.354.854L22.293,23A1,1,0,0,0,24,22.293V14.5A.5.5,0,0,0,23.5,14Z"/><path d="M9.691,14.038a.5.5,0,0,0-.545.108L1,22.293A1,1,0,0,0,1.707,24H9.5a.5.5,0,0,0,.5-.5v-9A.5.5,0,0,0,9.691,14.038Z"/></svg>