<svg id="Bold" xmlns="http://www.w3.org/2000/svg" viewBox="0 0 24 24"><title>renewable-energy-solar-smartphone</title><path d="M19.5,14.75a1,1,0,0,0-1,1V19a1,1,0,0,1-1,1h-3a.5.5,0,0,1-.5-.5v-5A1.5,1.5,0,0,0,12.5,13h-.926a.5.5,0,0,0-.477.349l-.482,1.526a1.016,1.016,0,0,1-.924.625H4.309a.992.992,0,0,1-.894-.553l-.51-1.6A.5.5,0,0,0,2.429,13H1.5A1.5,1.5,0,0,0,0,14.5v8A1.5,1.5,0,0,0,1.5,24H2.691a.992.992,0,0,0,.894-.553A.81.81,0,0,1,4.309,23H9.691a.81.81,0,0,1,.724.447.992.992,0,0,0,.894.553H12.5A1.5,1.5,0,0,0,14,22.5a.5.5,0,0,1,.5-.5h3a3,3,0,0,0,3-3V15.75A1,1,0,0,0,19.5,14.75ZM11,20.5a.5.5,0,0,1-.5.5h-7a.5.5,0,0,1-.5-.5v-2a.5.5,0,0,1,.5-.5h7a.5.5,0,0,1,.5.5Z"/><path d="M22,0H17a2,2,0,0,0-2,2v9.5a2,2,0,0,0,2,2h5a2,2,0,0,0,2-2V2A2,2,0,0,0,22,0Zm0,11a.5.5,0,0,1-.5.5h-4A.5.5,0,0,1,17,11V2.5a.5.5,0,0,1,.5-.5h4a.5.5,0,0,1,.5.5Z"/><circle cx="19.5" cy="9.5" r="1"/></svg>