<svg xmlns="http://www.w3.org/2000/svg" viewBox="0 0 24 24"><title>resize-expand-corner-1</title><path d="M7,7.25a.75.75,0,0,1-1.5,0v-1a.75.75,0,0,1,1.5,0Z"/><path d="M11.75,1.5a.75.75,0,0,1,0-1.5h1a.75.75,0,0,1,0,1.5Z"/><path d="M16.75,1.5a.75.75,0,0,1,0-1.5h1a.75.75,0,0,1,0,1.5Z"/><path d="M16.75,18.5a.75.75,0,0,1,0-1.5h1a.75.75,0,0,1,0,1.5Z"/><path d="M24,12.25a.75.75,0,0,1-1.5,0v-1a.75.75,0,0,1,1.5,0Z"/><path d="M24,7.25a.75.75,0,0,1-1.5,0v-1a.75.75,0,0,1,1.5,0Z"/><path d="M9,.75A.75.75,0,0,0,8.25,0H7A1.5,1.5,0,0,0,5.5,1.5V2.75a.75.75,0,0,0,1.5,0v-1a.25.25,0,0,1,.25-.25h1A.75.75,0,0,0,9,.75Z"/><path d="M23.25,3.5A.75.75,0,0,0,24,2.75V1.5A1.5,1.5,0,0,0,22.5,0H21.25a.75.75,0,0,0,0,1.5h1a.25.25,0,0,1,.25.25v1A.75.75,0,0,0,23.25,3.5Z"/><path d="M23.25,15a.75.75,0,0,1,.75.75V17a1.5,1.5,0,0,1-1.5,1.5H21.25a.75.75,0,0,1,0-1.5h1a.25.25,0,0,0,.25-.25v-1A.75.75,0,0,1,23.25,15Z"/><path d="M13.5,17.75a.75.75,0,0,0-.75-.75h-1.5a.25.25,0,0,1-.25-.25V15a2,2,0,0,0-2-2H7.25A.25.25,0,0,1,7,12.75v-1.5a.75.75,0,0,0-1.5,0v1.5a.25.25,0,0,1-.25.25H2a2,2,0,0,0-2,2v7a2,2,0,0,0,2,2H9a2,2,0,0,0,2-2V18.75a.25.25,0,0,1,.25-.25h1.5A.75.75,0,0,0,13.5,17.75ZM9,21.5a.5.5,0,0,1-.5.5h-6a.5.5,0,0,1-.5-.5v-6a.5.5,0,0,1,.5-.5h6a.5.5,0,0,1,.5.5Z"/><path d="M20.5,4.25a.75.75,0,0,0-.75-.75H14.207a.707.707,0,0,0-.5,1.207l1.909,1.909a.25.25,0,0,1,0,.354l-3.323,3.323a1,1,0,0,0,1.414,1.414L17.03,8.384a.25.25,0,0,1,.354,0l1.909,1.909a.707.707,0,0,0,1.207-.5Z"/></svg>