<svg id="Bold" xmlns="http://www.w3.org/2000/svg" viewBox="0 0 24 24"><title>rhino</title><path d="M20.8,13.938C22.979,11.545,24,8.355,24,3.953a1.452,1.452,0,0,0-2.719-.708C19.532,6.37,17.658,8.059,14.859,9.01l1-4.395a1.439,1.439,0,0,0-2.268-1.409L9.883,5.993c-.289-.19.091.034-2.5-1.451a5.962,5.962,0,0,0,.375-2.481,1.134,1.134,0,0,0-1.787-.876L2.849,3.405C2,3.343,1.375,3.343,1.375,3.343H.5a.5.5,0,0,0-.5.5v17.5a.5.5,0,0,0,.459.5.492.492,0,0,0,.534-.416c.222-1.334,1.428-2.388,3.564-3.075a34.969,34.969,0,0,1,2.972,2.555A4.493,4.493,0,0,0,10.6,22.112H12.27a.5.5,0,0,0,.317-.887l-.671-.549a.75.75,0,1,1,.95-1.16l4.147,3.394a.5.5,0,0,0,.51.074,6.746,6.746,0,0,0,3.084-2.546,6.139,6.139,0,0,0,.89-4.649A6.241,6.241,0,0,0,20.8,13.938Zm-9.938-1.676a1.249,1.249,0,1,1-.358-1.731A1.25,1.25,0,0,1,10.857,12.262Zm.8-5.1,1.892-1.423-.528,2.318Zm5.008,3.286a12.425,12.425,0,0,0,5.239-4.418,11,11,0,0,1-2.4,6.348A26.526,26.526,0,0,0,16.669,10.446Z"/></svg>