<svg xmlns="http://www.w3.org/2000/svg" viewBox="0 0 24 24"><title>road-sign-lane-narrowing-left-alternate</title><path d="M23.707,11.293l-11-11a1,1,0,0,0-1.414,0l-11,11a1,1,0,0,0,0,1.414l11,11a1,1,0,0,0,1.414,0l11-11A1,1,0,0,0,23.707,11.293Zm-2.3.884-9.232,9.232a.25.25,0,0,1-.354,0L2.591,12.177a.25.25,0,0,1,0-.354l9.232-9.232a.25.25,0,0,1,.354,0l9.232,9.232A.25.25,0,0,1,21.409,12.177Z"/><path d="M11.5,5.5a1,1,0,0,0-1,1V9.02a.25.25,0,0,1-.057.159L8.229,11.863A1,1,0,0,0,8,12.5V16a1,1,0,0,0,2,0V12.948a.25.25,0,0,1,.057-.159l2-2.426.015-.017A1.51,1.51,0,0,0,12.5,9.293V6.5A1,1,0,0,0,11.5,5.5Z"/><path d="M14,5.5a1,1,0,0,0-1,1V16a1,1,0,0,0,2,0V6.5A1,1,0,0,0,14,5.5Z"/></svg>