<svg xmlns="http://www.w3.org/2000/svg" viewBox="0 0 24 24"><title>road-sign-railway-ahead</title><rect x="10.75" y="11.75" width="2.5" height="1.5" rx="0.25" ry="0.25"/><rect x="10.75" y="14.75" width="2.5" height="1.5" rx="0.25" ry="0.25"/><rect x="10.75" y="8.75" width="2.5" height="1.5" rx="0.25" ry="0.25"/><path d="M23.53,11.47l-11-11a.749.749,0,0,0-1.06,0l-11,11a.749.749,0,0,0,0,1.06l11,11a.748.748,0,0,0,1.06,0l11-11A.749.749,0,0,0,23.53,11.47ZM15,10.25a.75.75,0,0,1,0,1.5.25.25,0,0,0-.25.25v1a.25.25,0,0,0,.25.25.75.75,0,0,1,0,1.5.25.25,0,0,0-.25.25v1a.25.25,0,0,0,.25.25.75.75,0,0,1,0,1.5.25.25,0,0,0-.25.25.75.75,0,0,1-1.5,0,.25.25,0,0,0-.25-.25H11a.25.25,0,0,0-.25.25.75.75,0,0,1-1.5,0A.25.25,0,0,0,9,17.75a.75.75,0,0,1,0-1.5A.25.25,0,0,0,9.25,16V15A.25.25,0,0,0,9,14.75a.75.75,0,0,1,0-1.5A.25.25,0,0,0,9.25,13V12A.25.25,0,0,0,9,11.75a.75.75,0,0,1,0-1.5A.25.25,0,0,0,9.25,10V9A.25.25,0,0,0,9,8.75a.75.75,0,0,1,0-1.5A.25.25,0,0,0,9.25,7V6.5a.75.75,0,0,1,1.5,0V7a.25.25,0,0,0,.25.25h2A.25.25,0,0,0,13.25,7V6.5a.75.75,0,0,1,1.5,0V7a.25.25,0,0,0,.25.25.75.75,0,0,1,0,1.5.25.25,0,0,0-.25.25v1A.25.25,0,0,0,15,10.25Z"/></svg>