<svg xmlns="http://www.w3.org/2000/svg" viewBox="0 0 24 24"><title>road-sign-keep-left-alternate</title><path d="M1,0A1,1,0,0,0,0,1V23a1,1,0,0,0,2,0V1A1,1,0,0,0,1,0Z"/><path d="M23,0a1,1,0,0,0-1,1V23a1,1,0,0,0,2,0V1A1,1,0,0,0,23,0Z"/><path d="M20.5,20a1,1,0,0,0-1-1H8.5a.25.25,0,0,1-.25-.25V17.5a.75.75,0,0,0-1.186-.61l-3.5,2.5a.75.75,0,0,0,0,1.22l3.5,2.5A.75.75,0,0,0,8.25,22.5V21.25A.25.25,0,0,1,8.5,21h11A1,1,0,0,0,20.5,20Z"/><path d="M13,16.25a.75.75,0,0,0,.75-.75v-1a.25.25,0,0,1,.25-.25h.5a.75.75,0,0,0,0-1.5H14a.25.25,0,0,1-.25-.25v-1a.25.25,0,0,1,.25-.25h1a.75.75,0,0,0,0-1.5H14a1.752,1.752,0,0,0-1.75,1.75v4A.75.75,0,0,0,13,16.25Z"/><path d="M17,11.25a.25.25,0,0,1,.25.25v4a.75.75,0,0,0,1.5,0v-4a.25.25,0,0,1,.25-.25.75.75,0,0,0,0-1.5H17a.75.75,0,0,0,0,1.5Z"/><path d="M5,7.75A.75.75,0,0,0,5.75,7a.127.127,0,0,1,.226-.079l.439.548a.75.75,0,1,0,1.17-.938l-1.5-1.875a.25.25,0,0,1,0-.312l1.5-1.875a.75.75,0,1,0-1.17-.938l-.439.548A.127.127,0,0,1,5.75,2a.75.75,0,0,0-1.5,0V7A.75.75,0,0,0,5,7.75Z"/><path d="M17,7.75A.75.75,0,0,0,17.75,7V5.938a.249.249,0,0,1,.2-.245A2.244,2.244,0,0,0,17.5,1.25H17a.75.75,0,0,0-.75.75V7A.75.75,0,0,0,17,7.75ZM18.25,3.5A.25.25,0,1,1,18,3.25.25.25,0,0,1,18.25,3.5Z"/><path d="M6,16.25H7a.75.75,0,0,0,0-1.5H6a.25.25,0,0,1-.25-.25v-4a.75.75,0,0,0-1.5,0v4A1.752,1.752,0,0,0,6,16.25Z"/><path d="M10,7.75h1a.75.75,0,0,0,0-1.5H10a.25.25,0,0,1,0-.5h1a.75.75,0,0,0,0-1.5H10A.25.25,0,0,1,9.75,4V3A.25.25,0,0,1,10,2.75h1a.75.75,0,0,0,0-1.5H10A1.752,1.752,0,0,0,8.25,3V6A1.752,1.752,0,0,0,10,7.75Z"/><path d="M10,16.25h1a.75.75,0,0,0,0-1.5H10a.25.25,0,0,1,0-.5h1a.75.75,0,0,0,0-1.5H10a.25.25,0,0,1-.25-.25v-1a.25.25,0,0,1,.25-.25h1a.75.75,0,0,0,0-1.5H10A1.752,1.752,0,0,0,8.25,11.5v3A1.752,1.752,0,0,0,10,16.25Z"/><path d="M14,7.75h1a.75.75,0,0,0,0-1.5H14a.25.25,0,0,1,0-.5h1a.75.75,0,0,0,0-1.5H14A.25.25,0,0,1,13.75,4V3A.25.25,0,0,1,14,2.75h1a.75.75,0,0,0,0-1.5H14A1.752,1.752,0,0,0,12.25,3V6A1.752,1.752,0,0,0,14,7.75Z"/></svg>