<svg xmlns="http://www.w3.org/2000/svg" viewBox="0 0 24 24"><title>road-sign-crossroad-2</title><path d="M12.53.22a.749.749,0,0,0-1.06,0L.22,11.47a.749.749,0,0,0,0,1.06L11.47,23.78a.748.748,0,0,0,1.06,0L23.78,12.53a.749.749,0,0,0,0-1.06Zm4,12.78a.5.5,0,0,1-.5.5h-2.25a.25.25,0,0,0-.25.25V16a.5.5,0,0,1-.5.5h-2a.5.5,0,0,1-.5-.5V13.75a.25.25,0,0,0-.25-.25H8.031a.5.5,0,0,1-.5-.5V11a.5.5,0,0,1,.5-.5h2.25a.25.25,0,0,0,.25-.25V8a.5.5,0,0,1,.5-.5h2a.5.5,0,0,1,.5.5v2.25a.25.25,0,0,0,.25.25h2.25a.5.5,0,0,1,.5.5Z"/></svg>