<svg xmlns="http://www.w3.org/2000/svg" viewBox="0 0 24 24"><title>road-sign-obstruction-1-alternate</title><path d="M16.5,0h-9a1,1,0,0,0-1,1V23a1,1,0,0,0,1,1h9a1,1,0,0,0,1-1V1A1,1,0,0,0,16.5,0ZM11.24,21.846a.251.251,0,0,1-.231.154H8.75a.25.25,0,0,1-.25-.25V19.491a.25.25,0,0,1,.427-.177l2.259,2.259A.253.253,0,0,1,11.24,21.846Zm4.26-.1a.25.25,0,0,1-.25.25H13.812a.252.252,0,0,1-.21-.113.508.508,0,0,0-.072-.09L8.573,16.84a.251.251,0,0,1-.073-.177V13.741a.25.25,0,0,1,.427-.177l6.5,6.5a.251.251,0,0,1,.073.177Zm0-4.337a.25.25,0,0,1-.427.177l-6.5-6.5a.251.251,0,0,1-.073-.177V7.991a.25.25,0,0,1,.427-.177l6.5,6.5a.249.249,0,0,1,.073.177Zm0-5.75a.25.25,0,0,1-.427.176l-6.5-6.5A.251.251,0,0,1,8.5,5.163V2.25A.25.25,0,0,1,8.75,2h.009a.251.251,0,0,1,.177.073l6.491,6.491a.251.251,0,0,1,.073.177Zm0-5.75a.25.25,0,0,1-.427.177L11.41,2.427A.25.25,0,0,1,11.587,2H15.25a.25.25,0,0,1,.25.25Z"/></svg>