<svg xmlns="http://www.w3.org/2000/svg" viewBox="0 0 24 24"><title>road-sign-speed-limit-35-alternate</title><path d="M11.75,18.127a2,2,0,0,0-1.991-2l-.759,0H9a1.752,1.752,0,0,0-1.75,1.75.75.75,0,0,0,1.5,0A.249.249,0,0,1,9,17.625l.756,0a.5.5,0,0,1,0,1,.75.75,0,1,0,0,1.5.5.5,0,0,1,0,1l-.753,0a.25.25,0,0,1-.25-.25.75.75,0,0,0-1.5,0A1.752,1.752,0,0,0,9,22.625H9l.757,0a2,2,0,0,0,1.653-3.108.251.251,0,0,1,0-.278A1.983,1.983,0,0,0,11.75,18.127Z"/><path d="M14,17.625h2a.75.75,0,0,0,0-1.5H13a.75.75,0,0,0-.75.75v1.25c0,1.8,1.473,1.931,2.181,2,.819.076.819.108.819.5a.5.5,0,0,1-.5.5H13a.75.75,0,0,0,0,1.5h1.75a2,2,0,0,0,2-2c0-1.8-1.473-1.931-2.181-2-.819-.076-.819-.108-.819-.5v-.25A.25.25,0,0,1,14,17.625Z"/><path d="M8.5,8.875a.75.75,0,0,0-.75.75v5a.75.75,0,0,0,1.5,0v-5A.75.75,0,0,0,8.5,8.875Z"/><path d="M16.5,8.875a.75.75,0,0,0-.75.75v5a.75.75,0,0,0,1.5,0v-5A.75.75,0,0,0,16.5,8.875Z"/><path d="M20.5,8.875h-2a.75.75,0,0,0,0,1.5.25.25,0,0,1,.25.25v4a.75.75,0,0,0,1.5,0v-4a.25.25,0,0,1,.25-.25.75.75,0,0,0,0-1.5Z"/><path d="M7,7.875a.75.75,0,0,0,.75-.75V6.063a.249.249,0,0,1,.2-.245A2.244,2.244,0,0,0,7.5,1.375H7a.75.75,0,0,0-.75.75v5A.75.75,0,0,0,7,7.875Zm1-4.5a.25.25,0,1,1-.25.25A.25.25,0,0,1,8,3.375Z"/><path d="M6.5,13.875h-1a.25.25,0,0,1-.25-.25v-4a.75.75,0,0,0-1.5,0v4a1.752,1.752,0,0,0,1.75,1.75h1a.75.75,0,0,0,0-1.5Z"/><path d="M5.75,6.125a2.553,2.553,0,0,0-1.3-2.1c-.508-.381-.7-.557-.7-.9A.25.25,0,0,1,4,2.875H5a.75.75,0,0,0,0-1.5H4a1.752,1.752,0,0,0-1.75,1.75,2.553,2.553,0,0,0,1.3,2.1c.508.381.7.557.7.9a.25.25,0,0,1-.25.25H3a.75.75,0,0,0,0,1.5H4A1.752,1.752,0,0,0,5.75,6.125Z"/><path d="M13.143,12.511a.058.058,0,0,1,.107.029v2.085a.75.75,0,0,0,1.5,0v-5a.75.75,0,0,0-1.393-.386l-.643,1.071a.25.25,0,0,1-.428,0l-.643-1.071a.75.75,0,0,0-1.393.386v5a.75.75,0,0,0,1.5,0V12.54a.058.058,0,0,1,.107-.029A.78.78,0,0,0,13.143,12.511Z"/><path d="M19,1.375a.75.75,0,0,0-.75.75v5a.75.75,0,0,0,.75.75,2.752,2.752,0,0,0,2.75-2.75v-1A2.752,2.752,0,0,0,19,1.375Zm1.25,3.75a.25.25,0,0,1-.5,0v-1a.25.25,0,0,1,.5,0Z"/><path d="M12,7.875h1a.75.75,0,0,0,0-1.5H12a.25.25,0,0,1,0-.5h1a.75.75,0,0,0,0-1.5H12a.25.25,0,0,1-.25-.25v-1a.25.25,0,0,1,.25-.25h1a.75.75,0,0,0,0-1.5H12a1.752,1.752,0,0,0-1.75,1.75v3A1.752,1.752,0,0,0,12,7.875Z"/><path d="M17,6.375H16a.25.25,0,0,1,0-.5h1a.75.75,0,0,0,0-1.5H16a.25.25,0,0,1-.25-.25v-1a.25.25,0,0,1,.25-.25h1a.75.75,0,0,0,0-1.5H16a1.752,1.752,0,0,0-1.75,1.75v3A1.752,1.752,0,0,0,16,7.875h1a.75.75,0,0,0,0-1.5Z"/></svg>