<svg xmlns="http://www.w3.org/2000/svg" viewBox="0 0 24 24"><title>road-sign-obstruction-horizontal</title><path d="M21.763,11.823,16.7,6.765a.049.049,0,0,0-.036-.015H13.914a.25.25,0,0,0-.177.427l3.94,3.939a1.249,1.249,0,0,1,0,1.769l-3.938,3.938a.25.25,0,0,0,.177.427h2.729a.188.188,0,0,0,.161-.09.491.491,0,0,1,.077-.1l4.882-4.882A.252.252,0,0,0,21.763,11.823Z"/><path d="M23.25,6.75H19.414a.25.25,0,0,0-.177.427l3.94,3.939a1.249,1.249,0,0,1,0,1.769l-3.937,3.938a.25.25,0,0,0,.176.427H23.25A.75.75,0,0,0,24,16.5v-9A.75.75,0,0,0,23.25,6.75Z"/><path d="M16.336,12a.251.251,0,0,0-.073-.177L12.177,7.738a.25.25,0,0,0-.354,0L7.737,11.823a.251.251,0,0,0,0,.354l4.086,4.086a.251.251,0,0,0,.354,0l4.086-4.086A.251.251,0,0,0,16.336,12Z"/><path d="M.823,12.884a1.251,1.251,0,0,1,0-1.768l3.94-3.939a.25.25,0,0,0-.177-.427H.75A.75.75,0,0,0,0,7.5v9a.75.75,0,0,0,.75.75H4.585a.25.25,0,0,0,.177-.427Z"/><path d="M6.323,12.884a1.251,1.251,0,0,1,0-1.768l3.94-3.939a.25.25,0,0,0-.177-.427H7.415a.251.251,0,0,0-.177.073l-5,5a.251.251,0,0,0,0,.354l5,5a.249.249,0,0,0,.177.073h2.671a.25.25,0,0,0,.177-.427Z"/></svg>