<svg xmlns="http://www.w3.org/2000/svg" viewBox="0 0 24 24"><title>road-sign-mudslide</title><path d="M23.53,12.53a.749.749,0,0,0,0-1.06l-11-11a.749.749,0,0,0-1.06,0l-11,11a.749.749,0,0,0,0,1.06l11,11a.748.748,0,0,0,1.06,0Zm-7.28,3.22H7A.75.75,0,0,1,6.25,15V9.5a.747.747,0,0,1,.22-.53L8.616,6.823a1.25,1.25,0,0,1,2.134.884V9.586a.248.248,0,0,0,.073.176l1.024,1.025a1.739,1.739,0,0,1,.445.757l.722,2.525a.251.251,0,0,0,.24.181h3a.75.75,0,0,1,0,1.5Zm-4-8.25a.75.75,0,1,1,.75.75A.75.75,0,0,1,12.25,7.5Zm1.75,3A1.5,1.5,0,1,1,15.5,12,1.5,1.5,0,0,1,14,10.5Z"/></svg>