<svg xmlns="http://www.w3.org/2000/svg" viewBox="0 0 24 24"><title>road-sign-lane-crossing-left</title><path d="M23.53,12.53a.749.749,0,0,0,0-1.06l-11-11a.749.749,0,0,0-1.06,0l-11,11a.749.749,0,0,0,0,1.06l11,11a.748.748,0,0,0,1.06,0ZM9.616,11.677a1.244,1.244,0,0,1-.366-.884V9.5A.25.25,0,0,0,9,9.25H8.5a.75.75,0,0,1-.53-1.28l1.5-1.5a.749.749,0,0,1,1.06,0l1.5,1.5a.75.75,0,0,1-.53,1.28H11a.25.25,0,0,0-.25.25v1.086a.251.251,0,0,0,.073.177l3.561,3.56a1.258,1.258,0,0,1,.366.884V17.25a.75.75,0,0,1-1.5,0V15.414a.251.251,0,0,0-.073-.177ZM10.75,15v2.5a.75.75,0,0,1-1.5,0V15a.75.75,0,0,1,1.5,0Zm4-4.5a.75.75,0,0,1-1.5,0V7a.75.75,0,0,1,1.5,0Z"/></svg>