<svg xmlns="http://www.w3.org/2000/svg" viewBox="0 0 24 24"><title>road-sign-stop-arrow-alternate</title><path d="M23.707,11.293l-11-11a1,1,0,0,0-1.414,0l-11,11a1,1,0,0,0,0,1.414l11,11a1,1,0,0,0,1.414,0l11-11A1,1,0,0,0,23.707,11.293Zm-2.3.884-9.232,9.232a.25.25,0,0,1-.354,0L2.591,12.177a.25.25,0,0,1,0-.354l9.232-9.232a.25.25,0,0,1,.354,0l9.232,9.232A.25.25,0,0,1,21.409,12.177Z"/><path d="M13.8,10.146A.5.5,0,0,0,13.45,10h-2.9a.5.5,0,0,0-.353.146L8.146,12.2A.5.5,0,0,0,8,12.55v2.9a.5.5,0,0,0,.146.353L10.2,17.854A.5.5,0,0,0,10.55,18h2.9a.5.5,0,0,0,.353-.146L15.854,15.8A.5.5,0,0,0,16,15.45v-2.9a.5.5,0,0,0-.146-.353Z"/><path d="M10.5,7.5h.25a.25.25,0,0,1,.25.25v.5a1,1,0,0,0,2,0v-.5a.25.25,0,0,1,.25-.25h.25a.75.75,0,0,0,.53-1.28l-1.5-1.5a.749.749,0,0,0-1.06,0l-1.5,1.5A.75.75,0,0,0,10.5,7.5Z"/></svg>