<svg xmlns="http://www.w3.org/2000/svg" viewBox="0 0 24 24"><title>road-sign-speed-limit-70-alternate</title><path d="M15.9,7.2a3.6,3.6,0,0,0-3.6,3.6v2.6a3.6,3.6,0,1,0,7.2,0V10.8A3.6,3.6,0,0,0,15.9,7.2Zm1.6,6.2a1.6,1.6,0,1,1-3.2,0V10.8a1.6,1.6,0,1,1,3.2,0Z"/><path d="M10.05,7.2H6.15A1.652,1.652,0,0,0,4.5,8.85V9.5a1,1,0,0,0,2,0V9.449a.25.25,0,0,1,.25-.25H9.189a.25.25,0,0,1,.234.337L7.162,15.653a1,1,0,0,0,1.876.694L11.6,9.427A1.651,1.651,0,0,0,10.05,7.2Z"/><path d="M12,0A12,12,0,1,0,24,12,12.013,12.013,0,0,0,12,0Zm0,22A10,10,0,1,1,22,12,10.011,10.011,0,0,1,12,22Z"/></svg>