<svg xmlns="http://www.w3.org/2000/svg" viewBox="0 0 24 24"><title>road-sign-deadend-alternate_1</title><path d="M23,0H1A1,1,0,0,0,0,1V23a1,1,0,0,0,1,1H23a1,1,0,0,0,1-1V1A1,1,0,0,0,23,0ZM22,21.75a.25.25,0,0,1-.25.25H2.25A.25.25,0,0,1,2,21.75V2.25A.25.25,0,0,1,2.25,2h19.5a.25.25,0,0,1,.25.25Z"/><path d="M13.25,13.25a.75.75,0,0,0-.75.75.213.213,0,0,1-.411.079l-.143-.357A.75.75,0,0,0,10.5,14v5A.75.75,0,0,0,12,19a.213.213,0,0,1,.411-.079l.143.357a.749.749,0,0,0,.7.472.691.691,0,0,0,.142-.014A.749.749,0,0,0,14,19V14A.75.75,0,0,0,13.25,13.25Z"/><path d="M16,10.5v-4a1.75,1.75,0,0,0-3.5,0v4a.75.75,0,0,0,1.5,0v-1a.25.25,0,0,1,.5,0v1a.75.75,0,0,0,1.5,0Zm-1.5-3a.25.25,0,0,1-.5,0v-1c0-.275.5-.275.5,0Z"/><path d="M7.5,8.5v-1A2.752,2.752,0,0,0,4.75,4.75.75.75,0,0,0,4,5.5v5a.75.75,0,0,0,.75.75A2.752,2.752,0,0,0,7.5,8.5ZM6,8.5a.25.25,0,0,1-.5,0v-1a.25.25,0,0,1,.5,0Z"/><path d="M15.5,13.25a.75.75,0,0,0-.75.75v5a.75.75,0,0,0,.75.75A2.752,2.752,0,0,0,18.25,17V16A2.752,2.752,0,0,0,15.5,13.25ZM16.75,17a.25.25,0,0,1-.5,0V16a.25.25,0,0,1,.5,0Z"/><path d="M17.5,4.75a.75.75,0,0,0-.75.75v5a.75.75,0,0,0,.75.75A2.752,2.752,0,0,0,20.25,8.5v-1A2.752,2.752,0,0,0,17.5,4.75ZM18.75,8.5a.25.25,0,0,1-.5,0v-1a.25.25,0,0,1,.5,0Z"/><path d="M11.75,10.5A.75.75,0,0,0,11,9.75H10a.25.25,0,0,1,0-.5h1a.75.75,0,0,0,0-1.5H10a.25.25,0,0,1-.25-.25v-1A.25.25,0,0,1,10,6.25h1a.75.75,0,0,0,0-1.5H10A1.752,1.752,0,0,0,8.25,6.5v3A1.752,1.752,0,0,0,10,11.25h1A.75.75,0,0,0,11.75,10.5Z"/><path d="M8,14.75H9a.75.75,0,0,0,0-1.5H8A1.752,1.752,0,0,0,6.25,15v3A1.752,1.752,0,0,0,8,19.75H9a.75.75,0,0,0,0-1.5H8a.25.25,0,0,1,0-.5H9a.75.75,0,0,0,0-1.5H8A.25.25,0,0,1,7.75,16V15A.25.25,0,0,1,8,14.75Z"/></svg>