<svg xmlns="http://www.w3.org/2000/svg" viewBox="0 0 24 24"><title>road-sign-divided-highway-1</title><path d="M23.53,11.47l-11-11a.749.749,0,0,0-1.06,0l-11,11a.749.749,0,0,0,0,1.06l11,11a.748.748,0,0,0,1.06,0l11-11A.749.749,0,0,0,23.53,11.47ZM11.181,16.53l-1,1a.751.751,0,0,1-1.06,0l-1-1a.75.75,0,0,1,.53-1.28A.25.25,0,0,0,8.9,15v-.585a.251.251,0,0,0-.073-.177L7.267,12.677a1.244,1.244,0,0,1-.366-.884V8A.75.75,0,0,1,8.4,8v3.586a.251.251,0,0,0,.073.177l1.561,1.561a1.244,1.244,0,0,1,.366.884V15a.25.25,0,0,0,.25.25.75.75,0,0,1,.53,1.28Zm.97-6.03a1.5,1.5,0,0,1-1.5-1.5V6.25A.25.25,0,0,1,10.9,6h2.5a.25.25,0,0,1,.25.25V9A1.5,1.5,0,0,1,12.151,10.5Zm5.25,1.293a1.244,1.244,0,0,1-.366.884l-1.561,1.561a.251.251,0,0,0-.073.177V15a.25.25,0,0,0,.25.25.75.75,0,0,1,.53,1.28l-1,1a.751.751,0,0,1-1.06,0l-1-1a.75.75,0,0,1,.53-1.28A.25.25,0,0,0,13.9,15v-.792a1.244,1.244,0,0,1,.366-.884l1.561-1.561a.251.251,0,0,0,.073-.177V8a.75.75,0,0,1,1.5,0Z"/></svg>