<svg xmlns="http://www.w3.org/2000/svg" viewBox="0 0 24 24"><title>road-sign-side-road-angle-right-1-alternate</title><path d="M12.573,10.538a.249.249,0,0,1-.073-.177V9.25A.25.25,0,0,1,12.75,9h.75a.5.5,0,0,0,.354-.854L11.707,6a1,1,0,0,0-1.414,0L8.146,8.146A.5.5,0,0,0,8.5,9h.75a.25.25,0,0,1,.25.25V16a1,1,0,0,0,1,1h1a1,1,0,0,0,1-1v-.69a.25.25,0,0,1,.427-.176l1.109,1.108a1,1,0,0,0,1.414,0l.707-.707a1,1,0,0,0,0-1.414Z"/><path d="M23.707,11.293l-11-11a1,1,0,0,0-1.414,0l-11,11a1,1,0,0,0,0,1.414l11,11a1,1,0,0,0,1.414,0l11-11A1,1,0,0,0,23.707,11.293Zm-2.3.884-9.232,9.232a.25.25,0,0,1-.354,0L2.591,12.177a.25.25,0,0,1,0-.354l9.232-9.232a.25.25,0,0,1,.354,0l9.232,9.232A.25.25,0,0,1,21.409,12.177Z"/></svg>