<svg xmlns="http://www.w3.org/2000/svg" viewBox="0 0 24 24"><title>road-sign-speed-limit-10</title><path d="M14.515,17.75a.752.752,0,0,0-.75.75v2a.75.75,0,0,0,1.5,0v-2A.751.751,0,0,0,14.515,17.75Z"/><path d="M20,3.75a.25.25,0,0,0-.25.25V5a.25.25,0,0,0,.5,0V4A.25.25,0,0,0,20,3.75Z"/><path d="M8,3.75a.25.25,0,1,0-.25-.25A.25.25,0,0,0,8,3.75Z"/><path d="M23.25,0H.75A.75.75,0,0,0,0,.75v22.5A.75.75,0,0,0,.75,24h22.5a.75.75,0,0,0,.75-.75V.75A.75.75,0,0,0,23.25,0Zm-13,3A1.752,1.752,0,0,1,12,1.25h1a.75.75,0,0,1,0,1.5H12a.25.25,0,0,0-.25.25V4a.25.25,0,0,0,.25.25h1a.75.75,0,0,1,0,1.5H12a.25.25,0,0,0,0,.5h1a.75.75,0,0,1,0,1.5H12A1.752,1.752,0,0,1,10.25,6Zm-4-1A.75.75,0,0,1,7,1.25h.5a2.244,2.244,0,0,1,.45,4.443.249.249,0,0,0-.2.245V7a.75.75,0,0,1-1.5,0Zm3,7.5v5a.75.75,0,0,1-1.5,0v-5a.75.75,0,0,1,1.5,0ZM2.25,7A.75.75,0,0,1,3,6.25H4A.25.25,0,0,0,4.25,6c0-.343-.192-.519-.7-.9A2.553,2.553,0,0,1,2.25,3,1.752,1.752,0,0,1,4,1.25H5a.75.75,0,0,1,0,1.5H4A.25.25,0,0,0,3.75,3c0,.343.192.519.7.9A2.553,2.553,0,0,1,5.75,6,1.752,1.752,0,0,1,4,7.75H3A.75.75,0,0,1,2.25,7ZM6.5,15.25h-1A1.752,1.752,0,0,1,3.75,13.5v-4a.75.75,0,0,1,1.5,0v4a.25.25,0,0,0,.25.25h1a.75.75,0,0,1,0,1.5Zm4.515,7.5h-2a.75.75,0,0,1,0-1.5.25.25,0,0,0,.25-.25V18.5a.25.25,0,0,0-.4-.2l-.4.3a.751.751,0,0,1-.9-1.2l1.2-.9a1.25,1.25,0,0,1,2,1V21a.25.25,0,0,0,.25.25.75.75,0,0,1,0,1.5Zm.842-10.364a.058.058,0,0,0-.107.029V14.5a.75.75,0,0,1-1.5,0v-5a.75.75,0,0,1,1.393-.386l.643,1.071a.25.25,0,0,0,.428,0l.643-1.071A.75.75,0,0,1,14.75,9.5v5a.75.75,0,0,1-1.5,0V12.415a.058.058,0,0,0-.107-.029A.78.78,0,0,1,11.857,12.386ZM16.765,20.5a2.25,2.25,0,0,1-4.5,0v-2a2.25,2.25,0,0,1,4.5,0Zm.485-6a.75.75,0,0,1-1.5,0v-5a.75.75,0,0,1,1.5,0ZM17,7.75H16A1.752,1.752,0,0,1,14.25,6V3A1.752,1.752,0,0,1,16,1.25h1a.75.75,0,0,1,0,1.5H16a.25.25,0,0,0-.25.25V4a.25.25,0,0,0,.25.25h1a.75.75,0,0,1,0,1.5H16a.25.25,0,0,0,0,.5h1a.75.75,0,0,1,0,1.5Zm3.5,2.5a.25.25,0,0,0-.25.25v4a.75.75,0,0,1-1.5,0v-4a.25.25,0,0,0-.25-.25.75.75,0,0,1,0-1.5h2a.75.75,0,0,1,0,1.5ZM21.75,5A2.752,2.752,0,0,1,19,7.75.75.75,0,0,1,18.25,7V2A.75.75,0,0,1,19,1.25,2.752,2.752,0,0,1,21.75,4Z"/></svg>