<svg xmlns="http://www.w3.org/2000/svg" viewBox="0 0 24 24"><title>road-sign-2-way-alternate</title><path d="M12.75,8.741a.75.75,0,0,0-.75.75v1.361a.25.25,0,0,1-.49.067l-.039-.134a.75.75,0,0,0-1.442,0l-.039.134a.25.25,0,0,1-.49-.067V9.491a.75.75,0,0,0-1.5,0v1.344a6.727,6.727,0,0,0,.483,2.507l.571,1.428a.75.75,0,0,0,1.417-.073l.039-.134a.249.249,0,0,1,.48,0l.039.134a.749.749,0,0,0,.683.543h.038a.748.748,0,0,0,.7-.471l.571-1.428a6.727,6.727,0,0,0,.483-2.507V9.491A.75.75,0,0,0,12.75,8.741Z"/><path d="M15.75,8.741A1.752,1.752,0,0,0,14,10.491v4a.75.75,0,0,0,1.5,0v-1a.25.25,0,0,1,.5,0v1a.75.75,0,0,0,1.5,0v-4A1.752,1.752,0,0,0,15.75,8.741Zm.25,2.75a.25.25,0,0,1-.5,0v-1c0-.275.5-.275.5,0Z"/><path d="M20.75,8.741a.75.75,0,0,0-.75.75v1.5c0,.276-.5.276-.5,0v-1.5a.75.75,0,0,0-1.5,0v1.5a1.746,1.746,0,0,0,.875,1.509.25.25,0,0,1,.125.216v1.775a.75.75,0,0,0,1.5,0V12.716a.251.251,0,0,1,.125-.216,1.746,1.746,0,0,0,.875-1.509v-1.5A.75.75,0,0,0,20.75,8.741Z"/><path d="M23,4.5H1a1,1,0,0,0-1,1v13a1,1,0,0,0,1,1H23a1,1,0,0,0,1-1V5.5A1,1,0,0,0,23,4.5ZM22,17.25a.25.25,0,0,1-.25.25H2.25A.25.25,0,0,1,2,17.25V6.75a.25.25,0,0,1,.25-.25h19.5a.25.25,0,0,1,.25.25Z"/><path d="M6.394,12.408A2.059,2.059,0,0,0,7,10.943a2.2,2.2,0,0,0-4.292-.7.75.75,0,1,0,1.422.475.7.7,0,0,1,1.37.221.573.573,0,0,1-.167.405L2.72,13.961a.75.75,0,0,0,.53,1.28h3a.75.75,0,0,0,0-1.5H5.664a.25.25,0,0,1-.176-.427Z"/></svg>