<svg xmlns="http://www.w3.org/2000/svg" viewBox="0 0 24 24"><title>road-sign-speed-limit-90-alternate</title><path d="M15.993,7.572a3.48,3.48,0,0,0-3.476,3.476v2.476a3.476,3.476,0,0,0,6.952,0V11.048A3.481,3.481,0,0,0,15.993,7.572Zm1.476,5.952a1.476,1.476,0,0,1-2.952,0V11.048a1.476,1.476,0,0,1,2.952,0Z"/><path d="M7.945,7.572a3.476,3.476,0,0,0,0,6.952.186.186,0,0,1,.061.361,2.07,2.07,0,0,1-.68.115H6.707a1,1,0,0,0,0,2h.619a4.1,4.1,0,0,0,4.1-4.1V11.048A3.48,3.48,0,0,0,7.945,7.572Zm0,4.952a1.476,1.476,0,1,1,1.476-1.476A1.478,1.478,0,0,1,7.945,12.524Z"/><path d="M12,0A12,12,0,1,0,24,12,12.013,12.013,0,0,0,12,0Zm0,22A10,10,0,1,1,22,12,10.011,10.011,0,0,1,12,22Z"/></svg>