<svg xmlns="http://www.w3.org/2000/svg" viewBox="0 0 24 24"><title>road-sign-2.5m-high-1</title><path d="M23.53,11.47l-11-11a.749.749,0,0,0-1.06,0l-11,11a.749.749,0,0,0,0,1.06l11,11a.748.748,0,0,0,1.06,0l11-11A.749.749,0,0,0,23.53,11.47ZM10.307,4.213A.751.751,0,0,1,11,3.75h2a.75.75,0,0,1,.53,1.28l-1,1a.748.748,0,0,1-1.06,0l-1-1A.749.749,0,0,1,10.307,4.213ZM12.75,12a.75.75,0,1,1-.75-.75A.75.75,0,0,1,12.75,12Zm-5.426.325a.749.749,0,0,1,.091-.794L9.1,9.422A.685.685,0,0,0,9.25,9c0-.275-.5-.275-.5,0a.75.75,0,0,1-1.5,0,1.75,1.75,0,0,1,3.5,0,2.18,2.18,0,0,1-.476,1.358l-.439.549a.208.208,0,0,0-.025.223.211.211,0,0,0,.19.12.75.75,0,0,1,0,1.5H8A.75.75,0,0,1,7.324,12.325Zm6.369,8.462A.751.751,0,0,1,13,21.25H11a.75.75,0,0,1-.53-1.28l1-1a.749.749,0,0,1,1.06,0l1,1A.749.749,0,0,1,13.693,20.787ZM14.25,17.5a.75.75,0,0,1-1.5,0v-.585a.058.058,0,0,0-.107-.029.78.78,0,0,1-1.286,0,.058.058,0,0,0-.107.029V17.5a.75.75,0,0,1-1.5,0V14a.75.75,0,0,1,1.393-.386l.643,1.071a.25.25,0,0,0,.428,0l.643-1.071A.75.75,0,0,1,14.25,14ZM15,9.25a1.75,1.75,0,0,1,0,3.5H14a.75.75,0,0,1,0-1.5h1a.25.25,0,0,0,0-.5h-.5A1.252,1.252,0,0,1,13.25,9.5V8A.75.75,0,0,1,14,7.25h2a.75.75,0,0,1,0,1.5H15a.25.25,0,0,0,0,.5Z"/></svg>