<svg xmlns="http://www.w3.org/2000/svg" viewBox="0 0 24 24"><title>road-sign-speed-limit-10-alternate</title><path d="M11.015,21.25a.25.25,0,0,1-.25-.25V17.5a1.25,1.25,0,0,0-2-1l-1.2.9a.75.75,0,0,0,.9,1.2l.4-.3a.25.25,0,0,1,.4.2V21a.25.25,0,0,1-.25.25.75.75,0,0,0,0,1.5h2a.75.75,0,0,0,0-1.5Z"/><path d="M14.515,16.25a2.253,2.253,0,0,0-2.25,2.25v2a2.25,2.25,0,0,0,4.5,0v-2A2.253,2.253,0,0,0,14.515,16.25Zm.75,4.25a.75.75,0,0,1-1.5,0v-2a.75.75,0,0,1,1.5,0Z"/><path d="M8.5,8.75a.75.75,0,0,0-.75.75v5a.75.75,0,0,0,1.5,0v-5A.75.75,0,0,0,8.5,8.75Z"/><path d="M16.5,8.75a.75.75,0,0,0-.75.75v5a.75.75,0,0,0,1.5,0v-5A.75.75,0,0,0,16.5,8.75Z"/><path d="M20.5,8.75h-2a.75.75,0,0,0,0,1.5.25.25,0,0,1,.25.25v4a.75.75,0,0,0,1.5,0v-4a.25.25,0,0,1,.25-.25.75.75,0,0,0,0-1.5Z"/><path d="M7,7.75A.75.75,0,0,0,7.75,7V5.938a.249.249,0,0,1,.2-.245A2.244,2.244,0,0,0,7.5,1.25H7A.75.75,0,0,0,6.25,2V7A.75.75,0,0,0,7,7.75Zm1-4.5a.25.25,0,1,1-.25.25A.25.25,0,0,1,8,3.25Z"/><path d="M6.5,13.75h-1a.25.25,0,0,1-.25-.25v-4a.75.75,0,0,0-1.5,0v4A1.752,1.752,0,0,0,5.5,15.25h1a.75.75,0,0,0,0-1.5Z"/><path d="M5.75,6a2.553,2.553,0,0,0-1.3-2.1c-.508-.381-.7-.557-.7-.9A.25.25,0,0,1,4,2.75H5a.75.75,0,0,0,0-1.5H4A1.752,1.752,0,0,0,2.25,3a2.553,2.553,0,0,0,1.3,2.1c.508.381.7.557.7.9A.25.25,0,0,1,4,6.25H3a.75.75,0,0,0,0,1.5H4A1.752,1.752,0,0,0,5.75,6Z"/><path d="M13.143,12.386a.058.058,0,0,1,.107.029V14.5a.75.75,0,0,0,1.5,0v-5a.75.75,0,0,0-1.393-.386l-.643,1.071a.25.25,0,0,1-.428,0l-.643-1.071A.75.75,0,0,0,10.25,9.5v5a.75.75,0,0,0,1.5,0V12.415a.058.058,0,0,1,.107-.029A.78.78,0,0,0,13.143,12.386Z"/><path d="M19,1.25a.75.75,0,0,0-.75.75V7a.75.75,0,0,0,.75.75A2.752,2.752,0,0,0,21.75,5V4A2.752,2.752,0,0,0,19,1.25ZM20.25,5a.25.25,0,0,1-.5,0V4a.25.25,0,0,1,.5,0Z"/><path d="M12,7.75h1a.75.75,0,0,0,0-1.5H12a.25.25,0,0,1,0-.5h1a.75.75,0,0,0,0-1.5H12A.25.25,0,0,1,11.75,4V3A.25.25,0,0,1,12,2.75h1a.75.75,0,0,0,0-1.5H12A1.752,1.752,0,0,0,10.25,3V6A1.752,1.752,0,0,0,12,7.75Z"/><path d="M17,6.25H16a.25.25,0,0,1,0-.5h1a.75.75,0,0,0,0-1.5H16A.25.25,0,0,1,15.75,4V3A.25.25,0,0,1,16,2.75h1a.75.75,0,0,0,0-1.5H16A1.752,1.752,0,0,0,14.25,3V6A1.752,1.752,0,0,0,16,7.75h1a.75.75,0,0,0,0-1.5Z"/></svg>