<svg xmlns="http://www.w3.org/2000/svg" viewBox="0 0 24 24"><title>road-sign-4-way</title><path d="M5.073,11.29a.249.249,0,0,0-.276.073,4.815,4.815,0,0,0-.662,1.019.25.25,0,0,0,.226.358h.626a.25.25,0,0,0,.25-.25v-.965A.25.25,0,0,0,5.073,11.29Z"/><path d="M15.75,10.5v1a.25.25,0,0,0,.5,0v-1C16.25,10.225,15.75,10.225,15.75,10.5Z"/><path d="M23.25,5.75H.75A.75.75,0,0,0,0,6.5v11a.75.75,0,0,0,.75.75h22.5A.75.75,0,0,0,24,17.5V6.5A.75.75,0,0,0,23.25,5.75ZM6.737,14.49a.75.75,0,0,1-1.5,0,.25.25,0,0,0-.25-.25H3a.749.749,0,0,1-.739-.878A6.274,6.274,0,0,1,5.655,8.827.75.75,0,0,1,6.737,9.5Zm7.013-3.646a6.725,6.725,0,0,1-.483,2.508L12.7,14.778a.749.749,0,0,1-.7.472h-.038a.75.75,0,0,1-.683-.543l-.039-.134a.249.249,0,0,0-.48,0l-.039.134a.75.75,0,0,1-1.417.072l-.571-1.427a6.716,6.716,0,0,1-.483-2.507V9.5a.75.75,0,0,1,1.5,0v1.36a.25.25,0,0,0,.49.068l.039-.134a.75.75,0,0,1,1.442,0l.039.134a.25.25,0,0,0,.49-.068V9.5a.75.75,0,0,1,1.5,0Zm4,3.656a.75.75,0,0,1-1.5,0v-1a.25.25,0,0,0-.5,0v1a.75.75,0,0,1-1.5,0v-4a1.75,1.75,0,0,1,3.5,0Zm4-3.5a1.746,1.746,0,0,1-.875,1.509.25.25,0,0,0-.125.216V14.5a.75.75,0,0,1-1.5,0V12.725a.25.25,0,0,0-.125-.216A1.746,1.746,0,0,1,18.25,11V9.5a.75.75,0,0,1,1.5,0V11c0,.275.5.275.5,0V9.5a.75.75,0,0,1,1.5,0Z"/></svg>