<svg xmlns="http://www.w3.org/2000/svg" viewBox="0 0 24 24"><title>road-sign-lane-crossing-right -alternate</title><path d="M14.707,6.71a1,1,0,0,0-1.414,0L11.646,8.356A.5.5,0,0,0,12,9.21h.25a.25.25,0,0,1,.25.25v.457a.249.249,0,0,1-.1.2L8.9,12.742a1.007,1.007,0,0,0-.4.8V16.5a1,1,0,0,0,1,1h1a1,1,0,0,0,1-1V14.668a.249.249,0,0,1,.1-.2l3.5-2.625a1,1,0,0,0,.4-.8V9.46a.25.25,0,0,1,.25-.25H16a.5.5,0,0,0,.353-.854Z"/><path d="M9.351,10.092l1-.749a1,1,0,0,0,.4-.8v-.75a1,1,0,0,0-1-1h-1a1,1,0,0,0-1,1v1.5a1,1,0,0,0,.552.9,1.012,1.012,0,0,0,.449.1A1,1,0,0,0,9.351,10.092Z"/><path d="M15.7,13.4a1,1,0,0,0-1.046.1l-1,.75a1.007,1.007,0,0,0-.4.8V16a1,1,0,0,0,1,1h1a1,1,0,0,0,1-1V14.293A.994.994,0,0,0,15.7,13.4Z"/><path d="M23.707,11.293l-11-11a1,1,0,0,0-1.414,0l-11,11a1,1,0,0,0,0,1.414l11,11a1,1,0,0,0,1.414,0l11-11A1,1,0,0,0,23.707,11.293Zm-2.3.884-9.232,9.232a.25.25,0,0,1-.354,0L2.591,12.177a.25.25,0,0,1,0-.354l9.232-9.232a.25.25,0,0,1,.354,0l9.232,9.232A.25.25,0,0,1,21.409,12.177Z"/></svg>