<svg xmlns="http://www.w3.org/2000/svg" viewBox="0 0 24 24"><title>road-sign-road-narrowing</title><path d="M23.53,12.53a.749.749,0,0,0,0-1.06l-11-11a.749.749,0,0,0-1.06,0l-11,11a.749.749,0,0,0,0,1.06l11,11a.748.748,0,0,0,1.06,0ZM16.75,16a.75.75,0,0,1-1.5,0V12.9a.249.249,0,0,0-.065-.168L12.841,10.15a1.217,1.217,0,0,1-.341-.857V6.5a.75.75,0,0,1,1.5,0V9.1a.249.249,0,0,0,.065.168l2.344,2.582a1.217,1.217,0,0,1,.341.857ZM11.5,6.5V9.293a1.244,1.244,0,0,1-.366.884L8.815,12.733a.249.249,0,0,0-.065.168V16a.75.75,0,0,1-1.5,0V12.707a1.244,1.244,0,0,1,.366-.884L9.935,9.267A.249.249,0,0,0,10,9.1V6.5a.75.75,0,0,1,1.5,0Z"/></svg>