<svg xmlns="http://www.w3.org/2000/svg" viewBox="0 0 24 24"><title>road-sign-no-horn-alternate</title><path d="M12,0A12,12,0,1,0,24,12,12.013,12.013,0,0,0,12,0Zm0,22a9.95,9.95,0,0,1-6.155-2.125.254.254,0,0,1-.1-.182.249.249,0,0,1,.073-.192l2.325-2.326a1,1,0,0,0-1.414-1.414L4.422,18.073a.251.251,0,0,1-.376-.026,9.99,9.99,0,0,1,14-14,.251.251,0,0,1,.026.376L16.587,5.907A1,1,0,1,0,18,7.321l1.5-1.5a.25.25,0,0,1,.374.023A9.994,9.994,0,0,1,12,22Z"/><path d="M19.943,10.057a.751.751,0,0,0-.818.163l-.707.707a.247.247,0,0,1-.176.073h-6.87a.261.261,0,0,1-.1-.022l-4.6-2.089h0a1.25,1.25,0,0,0-1.767,1.138v3.447a1.246,1.246,0,0,0,1.767,1.137l.913-.414a.25.25,0,0,1,.289.06A3.758,3.758,0,0,0,10.656,15.5h4.5a2.253,2.253,0,0,0,2.25-2.25,2.116,2.116,0,0,0-.05-.446.249.249,0,0,1,.244-.3h.642a.247.247,0,0,1,.176.073l.707.707a.75.75,0,0,0,.531.22.761.761,0,0,0,.287-.057.75.75,0,0,0,.463-.693v-2A.75.75,0,0,0,19.943,10.057ZM15.156,14h-4.5A2.178,2.178,0,0,1,9.6,13.72a.25.25,0,0,1,.018-.446l1.654-.752a.261.261,0,0,1,.1-.022h3.784a.75.75,0,0,1,0,1.5Z"/><path d="M11.656,9.75h1a.75.75,0,0,0,0-1.5h-1a.75.75,0,1,0,0,1.5Z"/><path d="M14.651,9.75h1a.75.75,0,0,0,0-1.5h-1a.75.75,0,0,0,0,1.5Z"/></svg>