<svg xmlns="http://www.w3.org/2000/svg" viewBox="0 0 24 24"><title>road-sign-traffic-left-alternate</title><path d="M23.707,11.293l-11-11a1,1,0,0,0-1.414,0l-11,11a1,1,0,0,0,0,1.414l11,11a1,1,0,0,0,1.414,0l11-11A1,1,0,0,0,23.707,11.293ZM12.177,21.409a.25.25,0,0,1-.354,0L2.591,12.177a.25.25,0,0,1,0-.354l9.232-9.232a.25.25,0,0,1,.354,0l9.232,9.232a.25.25,0,0,1,0,.354Z"/><path d="M9.47,7.47l-2,2A.75.75,0,0,0,8,10.75h.75A.25.25,0,0,1,9,11v5a1,1,0,0,0,2,0V11a.25.25,0,0,1,.25-.25H12a.75.75,0,0,0,.53-1.28l-2-2A.749.749,0,0,0,9.47,7.47Z"/><path d="M13.813,13.726a.25.25,0,0,1,.187.242V16a1,1,0,0,0,2,0V13.968a.25.25,0,0,1,.187-.242A.75.75,0,0,0,16,12.25H14a.75.75,0,0,0-.187,1.476Z"/></svg>