<svg xmlns="http://www.w3.org/2000/svg" viewBox="0 0 24 24"><title>road-sign-turn-right-1-alternate</title><path d="M11.293,23.707a1,1,0,0,0,1.414,0l11-11a1,1,0,0,0,0-1.414l-11-11a1,1,0,0,0-1.414,0l-11,11a1,1,0,0,0,0,1.414Zm-8.7-11.53a.25.25,0,0,1,0-.354l9.232-9.232a.25.25,0,0,1,.354,0l9.232,9.232a.25.25,0,0,1,0,.354l-9.232,9.232a.25.25,0,0,1-.354,0Z"/><path d="M13,9a.25.25,0,0,0,.25-.25V8a.75.75,0,0,1,1.28-.53l2,2a.749.749,0,0,1,0,1.06l-2,2a.746.746,0,0,1-.53.22.75.75,0,0,1-.75-.75v-.75A.25.25,0,0,0,13,11H12a1,1,0,0,0-1,1v4a1,1,0,0,1-2,0V12a3,3,0,0,1,3-3Z"/></svg>