<svg xmlns="http://www.w3.org/2000/svg" viewBox="0 0 24 24"><title>road-sign-left-reverse-turn-ahead-1</title><path d="M23.78,12.53a.749.749,0,0,0,0-1.06L12.53.22a.749.749,0,0,0-1.06,0L.22,11.47a.749.749,0,0,0,0,1.06L11.47,23.78a.748.748,0,0,0,1.06,0Zm-11.74.97h-2a.5.5,0,0,1-.5-.5V9.25A.25.25,0,0,0,9.29,9H8.643a.25.25,0,0,1-.177-.427l1.72-1.719a.5.5,0,0,1,.707,0l1.72,1.719A.25.25,0,0,1,12.436,9H11.79a.249.249,0,0,0-.25.25V11a.5.5,0,0,0,.5.5h2a.5.5,0,0,1,.5.5v5a.5.5,0,0,1-.5.5h-1a.5.5,0,0,1-.5-.5V14A.5.5,0,0,0,12.04,13.5Z"/></svg>