<svg xmlns="http://www.w3.org/2000/svg" viewBox="0 0 24 24"><title>road-sign-side-road-left-alternate</title><path d="M14.5,7h-2a1,1,0,0,0-1,1V9.959a.251.251,0,0,1-.171.238l-3.4,1.131a1,1,0,0,0-.542,1.463l.973,1.622a1,1,0,0,0,1.174.435l1.632-.545a.25.25,0,0,1,.329.237V16a1,1,0,0,0,1,1h2a1,1,0,0,0,1-1V8A1,1,0,0,0,14.5,7Z"/><path d="M23.707,11.293l-11-11a1,1,0,0,0-1.414,0l-11,11a1,1,0,0,0,0,1.414l11,11a1,1,0,0,0,1.414,0l11-11A1,1,0,0,0,23.707,11.293Zm-2.3.884-9.232,9.232a.25.25,0,0,1-.354,0L2.591,12.177a.25.25,0,0,1,0-.354l9.232-9.232a.25.25,0,0,1,.354,0l9.232,9.232A.25.25,0,0,1,21.409,12.177Z"/></svg>