<svg xmlns="http://www.w3.org/2000/svg" viewBox="0 0 24 24"><title>road-sign-slide-right</title><path d="M.47,12.53l11,11a.748.748,0,0,0,1.06,0l11-11a.749.749,0,0,0,0-1.06l-11-11a.749.749,0,0,0-1.06,0l-11,11A.749.749,0,0,0,.47,12.53Zm8.78,1.677a1.258,1.258,0,0,1,.366-.884l2.561-2.56a.251.251,0,0,0,.073-.177V10A.25.25,0,0,0,12,9.75H11a.75.75,0,0,1-.53-1.28l2-2a.749.749,0,0,1,1.06,0l2,2A.75.75,0,0,1,15,9.75H14a.25.25,0,0,0-.25.25v1a.747.747,0,0,1-.22.53l-2.707,2.707a.251.251,0,0,0-.073.177V17a.75.75,0,0,1-1.5,0Z"/></svg>