<svg xmlns="http://www.w3.org/2000/svg" viewBox="0 0 24 24"><title>road-sign-cattle-alternate</title><path d="M23.707,11.293l-11-11a1,1,0,0,0-1.414,0l-11,11a1,1,0,0,0,0,1.414l11,11a1,1,0,0,0,1.414,0l11-11A1,1,0,0,0,23.707,11.293Zm-2.3.884-9.232,9.232a.25.25,0,0,1-.354,0L2.591,12.177a.25.25,0,0,1,0-.354l9.232-9.232a.25.25,0,0,1,.354,0l9.232,9.232A.25.25,0,0,1,21.409,12.177Z"/><path d="M14.954,11.324a.25.25,0,0,1-.071-.209l.02-.158a.249.249,0,0,1,.183-.21,2.251,2.251,0,0,0,1.664-2.17v-.5a.75.75,0,1,0-1.5,0v.5a.751.751,0,0,1-.75.75h-.164a.251.251,0,0,1-.128-.035,1.5,1.5,0,0,0-.765-.215H10.557a1.5,1.5,0,0,0-.765.215.251.251,0,0,1-.128.035H9.5a.751.751,0,0,1-.75-.75v-.5a.75.75,0,1,0-1.5,0v.5a2.252,2.252,0,0,0,1.663,2.17.249.249,0,0,1,.183.21l.02.16a.246.246,0,0,1-.071.208l-1.9,1.9a.5.5,0,0,0-.089.585,1.532,1.532,0,0,0,1.411.691,3.118,3.118,0,0,0,.78-.112.25.25,0,0,1,.311.21l.39,3.062a1.5,1.5,0,0,0,1.5,1.417h1.108a1.5,1.5,0,0,0,1.5-1.4l.39-3.081a.252.252,0,0,1,.312-.211,3.1,3.1,0,0,0,.779.112,1.529,1.529,0,0,0,1.411-.691.5.5,0,0,0-.089-.585Z"/></svg>