<svg xmlns="http://www.w3.org/2000/svg" viewBox="0 0 24 24"><title>road-sign-road-narrows-alternate</title><path d="M23.707,11.293l-11-11a1,1,0,0,0-1.414,0l-11,11a1,1,0,0,0,0,1.414l11,11a1,1,0,0,0,1.414,0l11-11A1,1,0,0,0,23.707,11.293Zm-2.3.884-9.232,9.232a.25.25,0,0,1-.354,0L2.591,12.177a.25.25,0,0,1,0-.354l9.232-9.232a.25.25,0,0,1,.354,0l9.232,9.232A.25.25,0,0,1,21.409,12.177Z"/><path d="M11.354,8.692l-1.6-1.846A1,1,0,1,0,8.244,8.154L9.689,9.821a.254.254,0,0,1,.061.164v4.026a.247.247,0,0,1-.061.164L8.244,15.846a1,1,0,1,0,1.512,1.308l1.549-1.794.011-.012a1.51,1.51,0,0,0,.434-1.055V9.707a1.448,1.448,0,0,0-.384-1ZM9.828,14.015a.155.155,0,0,1,.019-.023Zm.023-4.007.045.053C9.88,10.044,9.865,10.026,9.851,10.008Z"/><path d="M14.311,9.825l1.445-1.671a1,1,0,1,0-1.512-1.308L12.7,8.64l-.011.012a1.49,1.49,0,0,0-.434,1.055v4.586a1.467,1.467,0,0,0,.384,1l.012.013,1.6,1.846a1,1,0,1,0,1.512-1.308l-1.445-1.667a.254.254,0,0,1-.061-.164V9.989A.247.247,0,0,1,14.311,9.825ZM14.1,13.939a.6.6,0,0,1,.047.055Zm.049-3.931.018-.022A.142.142,0,0,1,14.153,10.008Z"/></svg>