<svg xmlns="http://www.w3.org/2000/svg" viewBox="0 0 24 24"><title>road-sign-lane-crossing-right</title><path d="M11.47,23.53a.748.748,0,0,0,1.06,0l11-11a.749.749,0,0,0,0-1.06l-11-11a.749.749,0,0,0-1.06,0l-11,11a.749.749,0,0,0,0,1.06Zm-.647-8.293a.251.251,0,0,0-.073.177V17.25a.75.75,0,0,1-1.5,0V15.207a1.258,1.258,0,0,1,.366-.884l3.561-3.56a.251.251,0,0,0,.073-.177V9.5A.25.25,0,0,0,13,9.25h-.5a.75.75,0,0,1-.53-1.28l1.5-1.5a.749.749,0,0,1,1.06,0l1.5,1.5a.75.75,0,0,1-.53,1.28H15a.25.25,0,0,0-.25.25v1.293a1.244,1.244,0,0,1-.366.884ZM14,14.25a.75.75,0,0,1,.75.75v2.5a.75.75,0,0,1-1.5,0V15A.75.75,0,0,1,14,14.25ZM9.25,7a.75.75,0,0,1,1.5,0v3.5a.75.75,0,0,1-1.5,0Z"/></svg>