<svg xmlns="http://www.w3.org/2000/svg" viewBox="0 0 24 24"><title>road-sign-no-parking-allowed-alternate</title><path d="M12,0A12,12,0,1,0,24,12,12.013,12.013,0,0,0,12,0Zm0,22a9.948,9.948,0,0,1-6.156-2.126.251.251,0,0,1-.026-.371l2.257-2.332A1,1,0,0,0,6.637,15.78L4.424,18.068a.25.25,0,0,1-.2.076.248.248,0,0,1-.184-.1,9.99,9.99,0,0,1,14-14,.25.25,0,0,1,.022.379L15.95,6.468a1,1,0,1,0,1.389,1.439L19.5,5.818a.248.248,0,0,1,.191-.07.254.254,0,0,1,.18.095A9.994,9.994,0,0,1,12,22Z"/><path d="M12.687,7.75h-2a1,1,0,0,0-1,1v8a1,1,0,0,0,2,0V14a.249.249,0,0,1,.25-.25h.75a3,3,0,0,0,0-6Zm0,4h-.75a.249.249,0,0,1-.25-.25V10a.249.249,0,0,1,.25-.25h.75a1,1,0,0,1,0,2Z"/></svg>