<svg xmlns="http://www.w3.org/2000/svg" viewBox="0 0 24 24"><title>road-sign-66-1-alternate</title><path d="M23,3.539a2,2,0,0,0-2.942-1.764L18.111,2.814a.249.249,0,0,1-.234,0L12.927.228a2,2,0,0,0-1.854,0L6.122,2.815a.247.247,0,0,1-.233,0L3.942,1.775A2,2,0,0,0,1,3.54v7.371a13.365,13.365,0,0,0,8.466,12.4l1.069.414a4.056,4.056,0,0,0,2.931,0l1.067-.414A13.364,13.364,0,0,0,23,10.911ZM5.063,4.641a2,2,0,0,0,1.869.008l4.952-2.588a.25.25,0,0,1,.232,0l4.951,2.588a2,2,0,0,0,1.869-.008l1.7-.906A.251.251,0,0,1,21,3.956V5.372a.25.25,0,0,1-.25.25H3.25A.25.25,0,0,1,3,5.372V3.956a.25.25,0,0,1,.368-.22Zm8.748,16.806-1.067.413a2.051,2.051,0,0,1-1.487,0l-1.069-.413A11.353,11.353,0,0,1,3,10.911V7.871a.25.25,0,0,1,.25-.25h17.5a.25.25,0,0,1,.25.25v3.04A11.353,11.353,0,0,1,13.811,21.447Z"/><path d="M8.5,11.246a3.218,3.218,0,0,0-1.039.175.25.25,0,0,1-.3-.362A2.121,2.121,0,0,1,9,10h.5a.875.875,0,0,0,0-1.75H9a3.88,3.88,0,0,0-3.875,3.875v2.5A3.375,3.375,0,1,0,8.5,11.246Zm0,5a1.625,1.625,0,1,1,1.625-1.625A1.627,1.627,0,0,1,8.5,16.246Z"/><path d="M15.5,11.246a3.218,3.218,0,0,0-1.039.175.25.25,0,0,1-.3-.362A2.121,2.121,0,0,1,16,10h.5a.875.875,0,0,0,0-1.75H16a3.88,3.88,0,0,0-3.875,3.875v2.5A3.375,3.375,0,1,0,15.5,11.246Zm0,5a1.625,1.625,0,1,1,1.625-1.625A1.627,1.627,0,0,1,15.5,16.246Z"/></svg>