<svg xmlns="http://www.w3.org/2000/svg" viewBox="0 0 24 24"><title>road-sign-left-curve-ahead-alternate</title><path d="M11.293,23.707a1,1,0,0,0,1.414,0l11-11a1,1,0,0,0,0-1.414l-11-11a1,1,0,0,0-1.414,0l-11,11a1,1,0,0,0,0,1.414Zm-8.7-11.53a.25.25,0,0,1,0-.354l9.232-9.232a.25.25,0,0,1,.354,0l9.232,9.232a.25.25,0,0,1,0,.354l-9.232,9.232a.25.25,0,0,1-.354,0Z"/><path d="M11.492,8.568a.25.25,0,0,0,.018.37l1.466,1.211A3.006,3.006,0,0,1,14,12.407V16.5a1,1,0,0,1-2,0V12.407a.991.991,0,0,0-.32-.734l-1.627-1.345a.25.25,0,0,0-.336.016l-.187.186a.746.746,0,0,1-.53.22A.75.75,0,0,1,8.25,10V8A.75.75,0,0,1,9,7.25h2a.75.75,0,0,1,.53,1.28Z"/></svg>