<svg xmlns="http://www.w3.org/2000/svg" viewBox="0 0 24 24"><title>road-sign-side-road-right-1-alternate_1</title><path d="M15.146,10h-2V8a1,1,0,0,0-1-1h-2a1,1,0,0,0-1,1v8a1,1,0,0,0,1,1h2a1,1,0,0,0,1-1V14h2a1,1,0,0,0,1-1V11A1,1,0,0,0,15.146,10Z"/><path d="M23.707,11.293l-11-11a1,1,0,0,0-1.414,0l-11,11a1,1,0,0,0,0,1.414l11,11a1,1,0,0,0,1.414,0l11-11A1,1,0,0,0,23.707,11.293Zm-2.3.884-9.232,9.232a.25.25,0,0,1-.354,0L2.591,12.177a.25.25,0,0,1,0-.354l9.232-9.232a.25.25,0,0,1,.354,0l9.232,9.232A.25.25,0,0,1,21.409,12.177Z"/></svg>