<svg xmlns="http://www.w3.org/2000/svg" viewBox="0 0 24 24"><title>road-sign-right-curve-ahead</title><path d="M23.53,12.53a.749.749,0,0,0,0-1.06l-11-11a.749.749,0,0,0-1.06,0l-11,11a.749.749,0,0,0,0,1.06l11,11a.748.748,0,0,0,1.06,0ZM15.75,10a.75.75,0,0,1-1.28.53l-.405-.4a.251.251,0,0,0-.342-.011l-1.546,1.353a1.252,1.252,0,0,0-.427.941V16.5a.75.75,0,0,1-1.5,0V12.408a2.75,2.75,0,0,1,.939-2.07l1.446-1.265a.25.25,0,0,0,.085-.18.247.247,0,0,0-.073-.185L12.47,8.53A.75.75,0,0,1,13,7.25h2a.777.777,0,0,1,.75.75Z"/></svg>