<svg xmlns="http://www.w3.org/2000/svg" viewBox="0 0 24 24"><title>road-sign-2.5m-high</title><path d="M12,.25A11.75,11.75,0,1,0,23.75,12,11.763,11.763,0,0,0,12,.25ZM10.307,3.713A.751.751,0,0,1,11,3.25h2a.75.75,0,0,1,.53,1.28l-1,1a.748.748,0,0,1-1.06,0l-1-1A.749.749,0,0,1,10.307,3.713ZM12.75,12a.75.75,0,1,1-.75-.75A.75.75,0,0,1,12.75,12Zm-5.25.75a.75.75,0,0,1-.585-1.219L8.6,9.422A.682.682,0,0,0,8.75,9c0-.275-.5-.275-.5,0a.75.75,0,0,1-1.5,0,1.75,1.75,0,0,1,3.5,0,2.175,2.175,0,0,1-.477,1.358l-.438.549a.208.208,0,0,0-.025.223.211.211,0,0,0,.19.12.75.75,0,0,1,0,1.5Zm6.193,8.537A.751.751,0,0,1,13,21.75H11a.75.75,0,0,1-.53-1.28l1-1a.749.749,0,0,1,1.06,0l1,1A.749.749,0,0,1,13.693,21.287ZM14.25,17.5a.75.75,0,0,1-1.5,0v-.585a.058.058,0,0,0-.107-.029.78.78,0,0,1-1.286,0,.058.058,0,0,0-.107.029V17.5a.75.75,0,0,1-1.5,0V14a.75.75,0,0,1,1.393-.386l.643,1.071a.25.25,0,0,0,.428,0l.643-1.071A.75.75,0,0,1,14.25,14ZM15.5,9.25a1.75,1.75,0,0,1,0,3.5h-1a.75.75,0,0,1,0-1.5h1a.25.25,0,0,0,0-.5H15A1.252,1.252,0,0,1,13.75,9.5V8a.75.75,0,0,1,.75-.75h2a.75.75,0,0,1,0,1.5h-1a.25.25,0,0,0,0,.5Z"/></svg>