<svg xmlns="http://www.w3.org/2000/svg" viewBox="0 0 24 24"><title>road-sign-left-reverse-turn-ahead-1-alternate</title><path d="M13.75,11.192H12a.25.25,0,0,1-.25-.25v-1a.25.25,0,0,1,.25-.25h.75a.5.5,0,0,0,.354-.853L10.957,6.692a1,1,0,0,0-1.414,0L7.4,8.839a.5.5,0,0,0,.354.853H8.5a.25.25,0,0,1,.25.25v3.25a1,1,0,0,0,1,1H11.5a.25.25,0,0,1,.25.25v2.75a1,1,0,0,0,1,1h1a1,1,0,0,0,1-1v-5A1,1,0,0,0,13.75,11.192Z"/><path d="M23.707,12.707a1,1,0,0,0,0-1.414l-11-11a1,1,0,0,0-1.414,0l-11,11a1,1,0,0,0,0,1.414l11,11a1,1,0,0,0,1.414,0Zm-2.3-.884a.25.25,0,0,1,0,.354l-9.232,9.232a.25.25,0,0,1-.354,0L2.591,12.177a.25.25,0,0,1,0-.354l9.232-9.232a.25.25,0,0,1,.354,0Z"/></svg>