<svg xmlns="http://www.w3.org/2000/svg" viewBox="0 0 24 24"><title>road-curvy</title><path d="M20.5,13h3.25a.25.25,0,0,0,.25-.25v-2a.75.75,0,0,0-.75-.75h-4.5a.25.25,0,0,0-.25.25v7a.25.25,0,0,0,.25.25h4.5a.75.75,0,0,0,.75-.75v-2a.25.25,0,0,0-.25-.25H20.5a.75.75,0,0,1,0-1.5Z"/><path d="M8.75,0a8.75,8.75,0,0,0,0,17.5A.25.25,0,0,0,9,17.25v-2.5a.25.25,0,0,0-.25-.25,6.018,6.018,0,0,1-1.316-.146.749.749,0,1,1,.33-1.462A4.618,4.618,0,0,0,8.75,13,.249.249,0,0,0,9,12.75v-2.5A.25.25,0,0,0,8.75,10,1.25,1.25,0,1,1,10,8.75v14.5a.749.749,0,0,0,.75.75h0l6-.016a.749.749,0,0,0,.748-.75V8.75A8.76,8.76,0,0,0,8.75,0ZM4.582,11.611a.748.748,0,0,1-1-.344,5.765,5.765,0,0,1-.358-4.1.75.75,0,1,1,1.442.413A4.253,4.253,0,0,0,4.5,8.75a4.2,4.2,0,0,0,.427,1.858A.751.751,0,0,1,4.582,11.611ZM10.717,4.09a.748.748,0,0,1-.911.541,4.29,4.29,0,0,0-2.936.306.75.75,0,0,1-.664-1.345,5.784,5.784,0,0,1,3.97-.414A.749.749,0,0,1,10.717,4.09Zm3.783,17.9a.75.75,0,1,1-1.5,0V17.961a.75.75,0,0,1,1.5,0Zm0-9.211a.75.75,0,0,1-1.5,0V8.992a.75.75,0,0,1,1.5,0Z"/></svg>