<svg xmlns="http://www.w3.org/2000/svg" viewBox="0 0 24 24"><title>road-sign-right-curve-1-alternate</title><path d="M14.207,6.5a1,1,0,0,0-1.414,0L10.646,8.646A.5.5,0,0,0,11,9.5h.75a.25.25,0,0,1,.25.25v1.439a.249.249,0,0,1-.073.177L9.293,14A.991.991,0,0,0,9,14.707V17.5a1,1,0,0,0,1,1h1a1,1,0,0,0,1-1V15.811a.249.249,0,0,1,.073-.177L14.707,13A.991.991,0,0,0,15,12.293V9.75a.25.25,0,0,1,.25-.25H16a.5.5,0,0,0,.354-.854Z"/><path d="M23.707,11.293l-11-11a1,1,0,0,0-1.414,0l-11,11a1,1,0,0,0,0,1.414l11,11a1,1,0,0,0,1.414,0l11-11A1,1,0,0,0,23.707,11.293Zm-2.3.884-9.232,9.232a.25.25,0,0,1-.354,0L2.591,12.177a.25.25,0,0,1,0-.354l9.232-9.232a.25.25,0,0,1,.354,0l9.232,9.232A.25.25,0,0,1,21.409,12.177Z"/></svg>