<svg xmlns="http://www.w3.org/2000/svg" viewBox="0 0 24 24"><title>road-sign-traffic-priority-left</title><path d="M23.78,12.53a.749.749,0,0,0,0-1.06L12.53.22a.749.749,0,0,0-1.06,0L.22,11.47a.749.749,0,0,0,0,1.06L11.47,23.78a.748.748,0,0,0,1.06,0ZM7.674,9A.25.25,0,0,1,7.5,8.573L9.217,6.854a.5.5,0,0,1,.707,0l1.72,1.719A.25.25,0,0,1,11.467,9h-.646a.25.25,0,0,0-.25.25V16.5a.5.5,0,0,1-.5.5h-1a.5.5,0,0,1-.5-.5V9.25A.25.25,0,0,0,8.321,9Zm6.9,7.5V14a.5.5,0,0,1,.5-.5h1a.5.5,0,0,1,.5.5v2.5a.5.5,0,0,1-.5.5h-1A.5.5,0,0,1,14.571,16.5Zm2-4.25h-2a.75.75,0,1,1,0-1.5h2a.75.75,0,0,1,0,1.5Z"/></svg>