<svg xmlns="http://www.w3.org/2000/svg" viewBox="0 0 24 24"><title>road-sign-hairpin-turn-right-alternate</title><path d="M23.707,12.707a1,1,0,0,0,0-1.414l-11-11a1,1,0,0,0-1.414,0l-11,11a1,1,0,0,0,0,1.414l11,11a1,1,0,0,0,1.414,0Zm-11.53,8.7a.25.25,0,0,1-.354,0L2.591,12.177a.25.25,0,0,1,0-.354l9.232-9.232a.25.25,0,0,1,.354,0l9.232,9.232a.25.25,0,0,1,0,.354Z"/><path d="M8,10.5v6a1,1,0,0,0,2,0v-6a2.5,2.5,0,0,1,5,0,.25.25,0,0,1-.25.25h-.875a.75.75,0,0,0-.577,1.229l2.125,2.562a.749.749,0,0,0,.577.272h0a.75.75,0,0,0,.578-.276l2.093-2.562a.75.75,0,0,0-.58-1.225H17.25A.25.25,0,0,1,17,10.5a4.5,4.5,0,0,0-9,0Z"/></svg>