<svg xmlns="http://www.w3.org/2000/svg" viewBox="0 0 24 24"><title>road-sign-horn-alternate</title><path d="M12,0A12,12,0,1,0,24,12,12.013,12.013,0,0,0,12,0Zm0,22A10,10,0,1,1,22,12,10.011,10.011,0,0,1,12,22Z"/><path d="M19.287,10.057a.749.749,0,0,0-.817.163l-.707.707a.251.251,0,0,1-.177.073H10.717a.266.266,0,0,1-.1-.022L6.018,8.889h0A1.251,1.251,0,0,0,4.25,10.027v3.447a1.247,1.247,0,0,0,1.768,1.137L6.93,14.2a.25.25,0,0,1,.289.06A3.759,3.759,0,0,0,10,15.5h4.5a2.253,2.253,0,0,0,2.25-2.25,2.053,2.053,0,0,0-.05-.446.254.254,0,0,1,.049-.211.25.25,0,0,1,.2-.093h.642a.251.251,0,0,1,.177.073l.707.707a.746.746,0,0,0,.53.22.75.75,0,0,0,.75-.75v-2A.75.75,0,0,0,19.287,10.057ZM14.5,14H10a2.174,2.174,0,0,1-1.058-.28.249.249,0,0,1,.018-.446l1.653-.752a.266.266,0,0,1,.1-.022H14.5a.75.75,0,0,1,0,1.5Z"/><path d="M11,9.75h1a.75.75,0,0,0,0-1.5H11a.75.75,0,0,0,0,1.5Z"/><path d="M14,9.75h1a.75.75,0,0,0,0-1.5H14a.75.75,0,0,0,0,1.5Z"/></svg>