<svg xmlns="http://www.w3.org/2000/svg" viewBox="0 0 24 24"><title>road-sign-side-road-angle-left-1</title><path d="M12.53.22a.749.749,0,0,0-1.06,0L.22,11.47a.749.749,0,0,0,0,1.06L11.47,23.78a.748.748,0,0,0,1.06,0L23.78,12.53a.749.749,0,0,0,0-1.06ZM11.555,16.5V14.6a.25.25,0,0,0-.427-.177L9.166,16.389a.5.5,0,0,1-.707,0l-.707-.707a.5.5,0,0,1,0-.707l3.73-3.73a.251.251,0,0,0,.073-.177V9.25a.25.25,0,0,0-.25-.25h-.646a.25.25,0,0,1-.177-.427L12.2,6.854a.5.5,0,0,1,.707,0l1.719,1.719A.25.25,0,0,1,14.452,9h-.647a.25.25,0,0,0-.25.25V16.5a.5.5,0,0,1-.5.5h-1A.5.5,0,0,1,11.555,16.5Z"/></svg>