<svg xmlns="http://www.w3.org/2000/svg" viewBox="0 0 24 24"><title>road-sign-no-u-turn-left</title><path d="M21.154,4.269a.247.247,0,0,0-.18-.089.25.25,0,0,0-.187.073L17.645,7.4a.75.75,0,0,1-1.061-1.061l3.14-3.141a.25.25,0,0,0-.016-.368A11.98,11.98,0,0,0,2.826,19.709a.251.251,0,0,0,.369.016L6.229,16.69a.75.75,0,1,1,1.06,1.061L4.254,20.787a.246.246,0,0,0-.073.187.254.254,0,0,0,.088.181A11.98,11.98,0,0,0,21.154,4.269ZM16.229,17a.75.75,0,1,1-1.5,0V11a2.75,2.75,0,1,0-5.5,0v1.188a.25.25,0,0,0,.425.179l.926-.9a.75.75,0,0,1,1.048,1.074L9,15.1A.763.763,0,0,1,7.9,15.038L5.805,12.476a.75.75,0,1,1,1.161-.95l.319.391a.25.25,0,0,0,.444-.158V11a4.25,4.25,0,0,1,8.5,0Z"/></svg>