<svg xmlns="http://www.w3.org/2000/svg" viewBox="0 0 24 24"><title>road-sign-u-turn-right</title><path d="M12,0A12,12,0,1,0,24,12,12.013,12.013,0,0,0,12,0Zm5.594,11.25a.75.75,0,0,1,.58,1.225l-2.093,2.562c-.011.013-.026.023-.037.036s-.024.024-.037.036a.679.679,0,0,1-.507.2.745.745,0,0,1-.306-.069.8.8,0,0,1-.071-.048.722.722,0,0,1-.175-.136c-.007-.008-.018-.011-.025-.019L12.8,12.479a.75.75,0,0,1,.577-1.229H14.5a.25.25,0,0,0,.25-.25,2.75,2.75,0,0,0-5.5,0v6a.75.75,0,0,1-1.5,0V11a4.25,4.25,0,0,1,8.5,0,.25.25,0,0,0,.25.25Z"/></svg>