<svg xmlns="http://www.w3.org/2000/svg" viewBox="0 0 24 24"><title>road-traffic-lights</title><path d="M5.25,2H2.707A1,1,0,0,0,2,3.707L5.074,6.78A.25.25,0,0,0,5.5,6.6V2.25A.25.25,0,0,0,5.25,2Z"/><path d="M5.25,9H2.707A1,1,0,0,0,2,10.707L5.074,13.78A.25.25,0,0,0,5.5,13.6V9.25A.25.25,0,0,0,5.25,9Z"/><path d="M5.25,16H2.707A1,1,0,0,0,2,17.707L5.074,20.78A.25.25,0,0,0,5.5,20.6V16.25A.25.25,0,0,0,5.25,16Z"/><path d="M18.655,6.834a.248.248,0,0,0,.272-.054L22,3.707A1,1,0,0,0,21.293,2H18.75a.25.25,0,0,0-.25.25V6.6A.248.248,0,0,0,18.655,6.834Z"/><path d="M21.293,9H18.75a.25.25,0,0,0-.25.25V13.6a.25.25,0,0,0,.427.177L22,10.707A1,1,0,0,0,21.293,9Z"/><path d="M21.293,16H18.75a.25.25,0,0,0-.25.25V20.6a.25.25,0,0,0,.427.177L22,17.707A1,1,0,0,0,21.293,16Z"/><path d="M15.5,0h-7a2,2,0,0,0-2,2V22a2,2,0,0,0,2,2h7a2,2,0,0,0,2-2V2A2,2,0,0,0,15.5,0ZM12,22a2.5,2.5,0,1,1,2.5-2.5A2.5,2.5,0,0,1,12,22Zm0-7.25a2.5,2.5,0,1,1,2.5-2.5A2.5,2.5,0,0,1,12,14.75ZM12,7.5A2.5,2.5,0,1,1,14.5,5,2.5,2.5,0,0,1,12,7.5Z"/></svg>