<svg xmlns="http://www.w3.org/2000/svg" viewBox="0 0 24 24"><title>road-sign-4m-high</title><path d="M9.608,11.818a.189.189,0,0,0-.211.093q-.027.053-.051.108a.166.166,0,0,0,.154.231A.25.25,0,0,0,9.75,12,.188.188,0,0,0,9.608,11.818Z"/><path d="M12,.25A11.75,11.75,0,1,0,23.75,12,11.763,11.763,0,0,0,12,.25ZM10.307,3.713A.751.751,0,0,1,11,3.25h2a.75.75,0,0,1,.53,1.28l-1,1a.748.748,0,0,1-1.06,0l-1-1A.749.749,0,0,1,10.307,3.713ZM9.75,14.5V14a.25.25,0,0,0-.25-.25h-1A.75.75,0,0,1,7.75,13v-.5A2.752,2.752,0,0,1,10.5,9.75a.75.75,0,0,1,.75.75v4a.75.75,0,0,1-1.5,0Zm3.943,6.287A.751.751,0,0,1,13,21.25H11a.75.75,0,0,1-.53-1.28l1-1a.749.749,0,0,1,1.06,0l1,1A.749.749,0,0,1,13.693,20.787ZM16.75,14.5a.75.75,0,0,1-1.5,0V13.415a.058.058,0,0,0-.107-.029.78.78,0,0,1-1.286,0,.058.058,0,0,0-.107.029V14.5a.75.75,0,0,1-1.5,0v-4a.75.75,0,0,1,1.393-.386l.643,1.071a.25.25,0,0,0,.428,0l.643-1.071a.75.75,0,0,1,1.393.386Z"/></svg>