<svg xmlns="http://www.w3.org/2000/svg" viewBox="0 0 24 24"><title>road-sign-pedestrian-alternate</title><circle cx="8.835" cy="5.633" r="2.449"/><path d="M11.257,10.21a.243.243,0,0,1-.049-.083A2.585,2.585,0,0,0,8.835,8.572a2.449,2.449,0,0,0-2.449,2.449l-.441,4.853a.49.49,0,0,0,.488.535.2.2,0,0,1,.2.2v2.5a.735.735,0,1,0,1.469,0V16.654a.245.245,0,0,1,.245-.245h.98a.245.245,0,0,1,.245.245V19.1a.735.735,0,1,0,1.469,0V16.628a.219.219,0,0,1,.22-.219.49.49,0,0,0,.488-.533l-.217-2.5a.245.245,0,0,1,.427-.185l.249.278a.735.735,0,0,0,1.1-.981Z"/><circle cx="16.672" cy="12" r="1.469"/><path d="M12,0A12,12,0,1,0,24,12,12.013,12.013,0,0,0,12,0Zm7.486,18.681a.245.245,0,0,1-.413-.081A.623.623,0,0,0,19,18.45l-.815-1.223a.242.242,0,0,1-.041-.136V15.429a1.465,1.465,0,0,0-2.631-.89.244.244,0,0,1-.3.07l-.655-.327a.735.735,0,0,0-.657,1.314l1.173.586a.246.246,0,0,1,.135.219v2.7a.735.735,0,0,0,1.47,0v-.683a.245.245,0,0,1,.174-.234.242.242,0,0,1,.274.1l.655.982a.733.733,0,0,0,.611.327.06.06,0,0,1,.057.04.058.058,0,0,1-.018.066,9.956,9.956,0,1,1,1.061-1.017Z"/></svg>