<svg xmlns="http://www.w3.org/2000/svg" viewBox="0 0 24 24"><title>road-sign-left-curve-1</title><path d="M23.78,12.53a.749.749,0,0,0,0-1.06L12.53.22a.749.749,0,0,0-1.06,0L.22,11.47a.749.749,0,0,0,0,1.06L11.47,23.78a.748.748,0,0,0,1.06,0ZM14.508,17a.5.5,0,0,1-.5.5h-1a.5.5,0,0,1-.5-.5V15.207a.5.5,0,0,0-.147-.354L9.654,12.146a.5.5,0,0,1-.146-.354V8.75a.25.25,0,0,0-.25-.25H8.611a.25.25,0,0,1-.176-.427l1.719-1.72a.5.5,0,0,1,.707,0l1.72,1.72A.25.25,0,0,1,12.4,8.5h-.646a.25.25,0,0,0-.25.25v2.042a.5.5,0,0,0,.146.354l2.707,2.707a.5.5,0,0,1,.147.354Z"/></svg>