<svg xmlns="http://www.w3.org/2000/svg" viewBox="0 0 24 24"><title>road-sign-no-buses-alternate</title><path d="M19.468,7.673a.244.244,0,0,0-.211.069l-8,8a.245.245,0,0,0,.173.418h1.61a.245.245,0,0,0,.241-.2,2.434,2.434,0,0,1,4.789-.012.244.244,0,0,0,.272.2,1.713,1.713,0,0,0,1.5-1.7V8.571a1.663,1.663,0,0,0-.189-.769A.246.246,0,0,0,19.468,7.673Zm-1.835,4.083a.98.98,0,1,1,.979-.98A.98.98,0,0,1,17.633,11.756Z"/><path d="M15.673,14.94a1.47,1.47,0,0,0-1.218,2.291,1.5,1.5,0,0,0,.359.365,1.462,1.462,0,0,0,1.9-.148,1.5,1.5,0,0,0,.179-.217,1.47,1.47,0,0,0-1.219-2.291Z"/><path d="M12,0A12,12,0,1,0,24,12,12.013,12.013,0,0,0,12,0ZM4.439,18.177a.25.25,0,0,1-.189.071.245.245,0,0,1-.178-.094A10.035,10.035,0,0,1,18.154,4.072a.246.246,0,0,1,.023.367L15.831,6.785a.247.247,0,0,1-.174.072H8.327A1.716,1.716,0,0,0,6.612,8.571V11.51a.245.245,0,0,1-.245.245H5.388a1.717,1.717,0,0,0-1.715,1.714v.98a1.713,1.713,0,0,0,1.5,1.7.246.246,0,0,0,.273-.2A2.441,2.441,0,0,1,7.837,13.96a1.973,1.973,0,0,1,.244.015.244.244,0,0,1,.143.416l-.509.51a.255.255,0,0,1-.131.068A1.457,1.457,0,0,0,6.4,16.156a.251.251,0,0,1-.068.131l-.826.825ZM12.3,10.32l-1,1a.249.249,0,0,1-.2.07.244.244,0,0,1-.18-.115.93.93,0,0,1-.142-.5.979.979,0,0,1,.979-.979.928.928,0,0,1,.5.142.244.244,0,0,1,.115.18A.249.249,0,0,1,12.3,10.32ZM9.8,9.775v1.469a.49.49,0,0,1-.49.49H8.579a.49.49,0,0,1-.49-.49V9.285a.491.491,0,0,1,.49-.49h.245A.98.98,0,0,1,9.8,9.775ZM12,22.041a9.98,9.98,0,0,1-5.433-1.609c-.246-.159-.487-.326-.718-.5a.244.244,0,0,1-.024-.368L19.561,5.825a.246.246,0,0,1,.368.024c.178.232.344.472.5.718A10.026,10.026,0,0,1,12,22.041Z"/></svg>