<svg xmlns="http://www.w3.org/2000/svg" viewBox="0 0 24 24"><title>road-sign-side-road-angle-left-3-alternate</title><path d="M23.707,11.293l-11-11a1,1,0,0,0-1.414,0l-11,11a1,1,0,0,0,0,1.414l11,11a1,1,0,0,0,1.414,0l11-11A1,1,0,0,0,23.707,11.293Zm-2.3.884-9.232,9.232a.25.25,0,0,1-.354,0L2.591,12.177a.25.25,0,0,1,0-.354l9.232-9.232a.25.25,0,0,1,.354,0l9.232,9.232A.25.25,0,0,1,21.409,12.177Z"/><path d="M13,6.5a1,1,0,0,0-1,1v2.982a.249.249,0,0,1-.073.177L8.793,13.793a1,1,0,1,0,1.414,1.414l1.366-1.366a.25.25,0,0,1,.427.177V15.5a1,1,0,0,0,2,0v-8A1,1,0,0,0,13,6.5Z"/></svg>