<svg xmlns="http://www.w3.org/2000/svg" viewBox="0 0 24 24"><title>road-sign-width-4m</title><path d="M9.608,11.818a.189.189,0,0,0-.211.093q-.027.053-.051.108a.166.166,0,0,0,.154.231A.25.25,0,0,0,9.75,12,.188.188,0,0,0,9.608,11.818Z"/><path d="M23.53,11.47l-11-11a.749.749,0,0,0-1.06,0l-11,11a.749.749,0,0,0,0,1.06l11,11a.748.748,0,0,0,1.06,0l11-11A.749.749,0,0,0,23.53,11.47ZM6.03,12.53l-1,1a.746.746,0,0,1-.53.22A.75.75,0,0,1,3.75,13V11a.75.75,0,0,1,1.28-.53l1,1A.749.749,0,0,1,6.03,12.53Zm5.22,1.97a.75.75,0,0,1-1.5,0V14a.25.25,0,0,0-.25-.25h-1A.75.75,0,0,1,7.75,13v-.5A2.752,2.752,0,0,1,10.5,9.75a.75.75,0,0,1,.75.75Zm5.5,0a.75.75,0,0,1-1.5,0V13.415a.058.058,0,0,0-.107-.029.78.78,0,0,1-1.286,0,.058.058,0,0,0-.107.029V14.5a.75.75,0,0,1-1.5,0v-4a.75.75,0,0,1,1.393-.386l.643,1.071a.25.25,0,0,0,.428,0l.643-1.071a.75.75,0,0,1,1.393.386Zm3.5-1.5a.75.75,0,0,1-1.28.53l-1-1a.749.749,0,0,1,0-1.06l1-1a.75.75,0,0,1,1.28.53Z"/></svg>