<svg xmlns="http://www.w3.org/2000/svg" viewBox="0 0 24 24"><title>road-sign-slide-left-alternate</title><path d="M23.707,11.293l-11-11a1,1,0,0,0-1.414,0l-11,11a1,1,0,0,0,0,1.414l11,11a1,1,0,0,0,1.414,0l11-11A1,1,0,0,0,23.707,11.293ZM12.177,21.409a.25.25,0,0,1-.354,0L2.591,12.177a.25.25,0,0,1,0-.354l9.232-9.232a.25.25,0,0,1,.354,0l9.232,9.232a.25.25,0,0,1,0,.354Z"/><path d="M10.47,6.47l-2,2A.75.75,0,0,0,9,9.75h.75A.25.25,0,0,1,10,10v1a1,1,0,0,0,.293.707l2.634,2.634a.249.249,0,0,1,.073.177V17a1,1,0,0,0,2,0V14.207a1.494,1.494,0,0,0-.439-1.061l-2.488-2.487A.249.249,0,0,1,12,10.482V10a.25.25,0,0,1,.25-.25H13a.75.75,0,0,0,.53-1.28l-2-2A.749.749,0,0,0,10.47,6.47Z"/></svg>