<svg xmlns="http://www.w3.org/2000/svg" viewBox="0 0 24 24"><title>road-sign-traffic-priority-left-alternate</title><path d="M12.962,9.384a.5.5,0,0,0-.108-.545L10.707,6.692a1,1,0,0,0-1.414,0L7.146,8.839a.5.5,0,0,0,.354.853h.75a.25.25,0,0,1,.25.25V15.5a1,1,0,0,0,1,1h1a1,1,0,0,0,1-1V9.942a.25.25,0,0,1,.25-.25h.75A.5.5,0,0,0,12.962,9.384Z"/><rect x="14" y="13.192" width="3" height="3.308" rx="1" ry="1"/><path d="M17.5,10.692h-4a1,1,0,0,0,0,2h4a1,1,0,0,0,0-2Z"/><path d="M23.707,11.293l-11-11a1,1,0,0,0-1.414,0l-11,11a1,1,0,0,0,0,1.414l11,11a1,1,0,0,0,1.414,0l11-11A1,1,0,0,0,23.707,11.293Zm-2.3.884-9.232,9.232a.25.25,0,0,1-.354,0L2.591,12.177a.25.25,0,0,1,0-.354l9.232-9.232a.25.25,0,0,1,.354,0l9.232,9.232A.25.25,0,0,1,21.409,12.177Z"/></svg>