<svg xmlns="http://www.w3.org/2000/svg" viewBox="0 0 24 24"><title>road-sign-keep-right -alternate</title><path d="M23,0a1,1,0,0,0-1,1V23a1,1,0,0,0,2,0V1A1,1,0,0,0,23,0Z"/><path d="M1,0A1,1,0,0,0,0,1V23a1,1,0,0,0,2,0V1A1,1,0,0,0,1,0Z"/><path d="M20.436,19.632l-3.5-2.5a.751.751,0,0,0-1.186.611v1.249a.25.25,0,0,1-.25.25H4.5a1,1,0,1,0,0,2h11a.25.25,0,0,1,.25.25v1.25a.751.751,0,0,0,1.186.61l3.5-2.5a.75.75,0,0,0,0-1.221Z"/><path d="M7.25,9.746v5a.75.75,0,0,0,1.5,0v-5a.75.75,0,0,0-1.5,0Z"/><path d="M20,9H18a.75.75,0,1,0,0,1.5.25.25,0,0,1,.25.25v4a.75.75,0,0,0,1.5,0v-4A.25.25,0,0,1,20,10.5.75.75,0,1,0,20,9Z"/><path d="M15.25,9.746v2a.25.25,0,1,1-.5,0v-2a.75.75,0,0,0-1.5,0v5a.75.75,0,0,0,1.5,0v-1a.25.25,0,1,1,.5,0v1a.75.75,0,0,0,1.5,0v-5a.75.75,0,0,0-1.5,0Z"/><path d="M4.75,14.745a.174.174,0,0,1,.322-.09l.285.475a.75.75,0,1,0,1.286-.771l-.835-1.391a.25.25,0,0,1,.073-.335A1.991,1.991,0,0,0,4.75,9H4a.75.75,0,0,0-.75.749v5a.75.75,0,0,0,1.5,0Zm.25-4a.25.25,0,1,1-.25.25A.25.25,0,0,1,5,10.746Z"/><path d="M5,8a.75.75,0,0,0,.75-.75.125.125,0,0,1,.085-.119.127.127,0,0,1,.141.04l.439.548a.749.749,0,1,0,1.17-.937L6.085,4.9a.25.25,0,0,1,0-.312l1.5-1.874a.749.749,0,1,0-1.17-.937l-.439.547a.125.125,0,0,1-.141.041.127.127,0,0,1-.085-.12.75.75,0,0,0-1.5,0v5A.75.75,0,0,0,5,8Z"/><path d="M17,8a.75.75,0,0,0,.75-.75V6.186a.249.249,0,0,1,.2-.245A2.243,2.243,0,0,0,17.5,1.5H17a.75.75,0,0,0-.75.75v5A.75.75,0,0,0,17,8Zm1-4.5a.25.25,0,1,1-.25.25A.25.25,0,0,1,18,3.5Z"/><path d="M10,8h1a.75.75,0,1,0,0-1.5H10A.25.25,0,0,1,10,6h1a.75.75,0,0,0,0-1.5H10a.25.25,0,0,1-.25-.25v-1A.25.25,0,0,1,10,3h1a.75.75,0,0,0,0-1.5H10a1.752,1.752,0,0,0-1.75,1.75v3A1.752,1.752,0,0,0,10,8Z"/><path d="M14,8h1a.75.75,0,1,0,0-1.5H14A.25.25,0,0,1,14,6h1a.75.75,0,0,0,0-1.5H14a.25.25,0,0,1-.25-.25v-1A.25.25,0,0,1,14,3h1a.75.75,0,0,0,0-1.5H14a1.752,1.752,0,0,0-1.75,1.75v3A1.752,1.752,0,0,0,14,8Z"/><path d="M9.25,10.746v3a1.75,1.75,0,0,0,3.5,0v-1A.749.749,0,0,0,12,12h-.5a.75.75,0,0,0-.375,1.4.25.25,0,0,1,.125.216v.134c0,.275-.5.275-.5,0v-3A.25.25,0,0,1,11,10.5h1A.75.75,0,1,0,12,9H11A1.752,1.752,0,0,0,9.25,10.746Z"/></svg>