<svg id="Bold" xmlns="http://www.w3.org/2000/svg" viewBox="0 0 24 24"><title>rollerblades</title><circle cx="4.5" cy="21.5" r="2.5"/><circle cx="12" cy="21.5" r="2.5"/><circle cx="19.5" cy="21.5" r="2.5"/><path d="M4.112,1.677l1.3,10.349a3.026,3.026,0,0,1-.026.916l-.585,3.2A1.5,1.5,0,0,0,6.261,18H17.039a2.94,2.94,0,0,0,.411-5.851l-2.166-.417A1.5,1.5,0,0,1,13.977,10.3l.051-.495a.5.5,0,0,0-.5-.551H10a.75.75,0,0,1,0-1.5h3.787a.5.5,0,0,0,.5-.449l.154-1.5a.5.5,0,0,0-.5-.551H10.979a.75.75,0,0,1,0-1.5H14.2a.5.5,0,0,0,.5-.449l.169-1.647A1.5,1.5,0,0,0,13.372,0H5.6a1.5,1.5,0,0,0-1.49,1.672Z"/></svg>