<svg xmlns="http://www.w3.org/2000/svg" viewBox="0 0 24 24"><title>room-service-plates</title><circle cx="12" cy="3.163" r="2.413"/><path d="M3.869,2.539a.75.75,0,0,0-.75.75v.382a.249.249,0,0,1-.17.237,2.886,2.886,0,0,0-1.811,1.82.254.254,0,0,1-.2.169.735.735,0,0,0-.683.74.75.75,0,0,0,.75.75H6.739a.75.75,0,0,0,.75-.75.734.734,0,0,0-.683-.74.249.249,0,0,1-.2-.169,2.887,2.887,0,0,0-1.813-1.82.251.251,0,0,1-.17-.237V3.289A.75.75,0,0,0,3.869,2.539Z"/><path d="M20.131,2.539a.75.75,0,0,0-.75.75v.382a.25.25,0,0,1-.17.237A2.887,2.887,0,0,0,17.4,5.728a.251.251,0,0,1-.2.169.735.735,0,0,0-.683.74.75.75,0,0,0,.75.75H23a.75.75,0,0,0,.75-.75.734.734,0,0,0-.683-.74.252.252,0,0,1-.205-.169,2.886,2.886,0,0,0-1.811-1.82.249.249,0,0,1-.17-.237V3.289A.75.75,0,0,0,20.131,2.539Z"/><path d="M9.165,22.054a1.2,1.2,0,1,0,2.391,0V16.575a.479.479,0,0,1,.957,0v5.479a1.2,1.2,0,1,0,2.391,0V14.891a.25.25,0,0,0-.25-.25H9.415a.25.25,0,0,0-.25.25Z"/><path d="M9.33,6.989a3.1,3.1,0,0,0-2.714,1.6l-.411.743a.717.717,0,0,1-.579.367A.762.762,0,0,1,5,9.411L3.9,7.946A1.2,1.2,0,0,0,1.991,9.38l1.1,1.465A3.1,3.1,0,0,0,5.575,12.09c.084,0,.169,0,.255-.01A3.059,3.059,0,0,0,8.289,10.5l.418-.754a.244.244,0,0,1,.458.118v3.568a.25.25,0,0,0,.25.25h5.239a.25.25,0,0,0,.25-.25V9.868a.244.244,0,0,1,.458-.118l.42.756a3.059,3.059,0,0,0,2.457,1.574c.086.006.17.01.255.01a3.094,3.094,0,0,0,2.484-1.244l1.1-1.466a1.2,1.2,0,0,0-1.913-1.434l-1.1,1.466a.747.747,0,0,1-.622.285.715.715,0,0,1-.578-.368l-.413-.742a3.108,3.108,0,0,0-2.716-1.6h-1a.478.478,0,0,0-.409.232L12.437,8.7a.478.478,0,0,1-.82,0l-.888-1.478a.479.479,0,0,0-.41-.232Z"/></svg>