<svg xmlns="http://www.w3.org/2000/svg" viewBox="0 0 24 24"><title>room-service-cart</title><path d="M22.749,21.5a1,1,0,0,0,1-1h0v-7a1,1,0,0,0-1-1H21.5a.251.251,0,0,1-.25-.249c0-.655-.006-.534.051-.751a.987.987,0,0,1,.949-.75c.7,0,1.5-.044,1.5-1,0-.912-.759-1-1.5-1a2.994,2.994,0,0,0-2.974,2.75,3.154,3.154,0,0,0-.025.75.252.252,0,0,1-.074.177A.247.247,0,0,1,19,12.5h-.75a2,2,0,0,0-2,2v4a1.915,1.915,0,0,0,.119.663.25.25,0,0,1-.235.336H14.5a.249.249,0,0,1-.25-.25V6.5a3,3,0,0,1,3-3H20.5a.25.25,0,0,1,.25.25v.5a.25.25,0,0,1-.25.25H18.765a1,1,0,1,0,0,2h3.984a1,1,0,0,0,.2-1.979.25.25,0,0,1-.2-.245V3.724a.248.248,0,0,1,.2-.244,1,1,0,0,0,0-1.96.25.25,0,0,1-.2-.245V1a1,1,0,1,0-2,0v.25a.25.25,0,0,1-.25.25H17.25a5,5,0,0,0-5,5v1.75A.25.25,0,0,1,12,8.5H5.531a2.5,2.5,0,0,0-2.425,1.894L.3,22.134a1.5,1.5,0,0,0,2.91.728l.959-4.3a.25.25,0,0,1,.389-.149l.971.694a1.5,1.5,0,0,1,.571.808l.712,2.992a1.5,1.5,0,0,0,2.885-.824l-.712-2.992a4.522,4.522,0,0,0-1.712-2.425l-2.1-1.5a.249.249,0,0,1-.1-.264l.8-3.216a.248.248,0,0,1,.242-.189H12a.255.255,0,0,1,.25.256c-.033,8.886.018,8.907-.048,8.989A1.977,1.977,0,0,0,11.75,22a2,2,0,0,0,2,2,2.024,2.024,0,0,0,1.988-2.2.252.252,0,0,1,.241-.3h6.77Z"/><path d="M8.251,1.433a.905.905,0,0,0-.6-.856,5.685,5.685,0,0,0-3.792,0,.9.9,0,0,0-.6.856V2.25a.25.25,0,0,0,.25.25H8a.25.25,0,0,0,.25-.25Z"/><path d="M3.251,4.5a2.5,2.5,0,0,0,5,0V3.75A.25.25,0,0,0,8,3.5H3.5a.25.25,0,0,0-.25.25Z"/></svg>