<svg id="Bold" xmlns="http://www.w3.org/2000/svg" viewBox="0 0 24 24"><title>rooster-1</title><path d="M1.49,8.316a.251.251,0,0,0,.4.01,10,10,0,0,1,15.727-.011.251.251,0,0,0,.4-.01c.07-.1.135-.2.2-.306A4,4,0,0,0,13.35,2.252a4,4,0,0,0-7.2,0A4,4,0,0,0,1.287,8C1.35,8.108,1.418,8.214,1.49,8.316Z"/><circle cx="11.251" cy="11.25" r="1.25"/><path d="M17.877,12A8.5,8.5,0,0,0,1.251,14.5V23a1,1,0,0,0,1,1H9.412a.251.251,0,0,0,.2-.4,4.543,4.543,0,0,1-.9-2.716V17.794A1.725,1.725,0,0,0,7.5,16.206.75.75,0,1,1,8,14.794a3.205,3.205,0,0,1,2.212,3v3.091a3.07,3.07,0,0,0,3.066,3.066A2.927,2.927,0,0,0,16.251,21V19a.25.25,0,0,1,.112-.209c.6-.4,1.967-1.543,5.571-.343a1,1,0,0,0,1.317-.948A5.808,5.808,0,0,0,17.877,12Zm-6.626,2A2.75,2.75,0,1,1,14,11.25,2.75,2.75,0,0,1,11.251,14Zm5.427,2.349a.25.25,0,0,1-.332-.2A7.662,7.662,0,0,1,16.251,15c0-.988,1.439-1,1.5-1a3.846,3.846,0,0,1,2.839,1.632.25.25,0,0,1-.234.4A7.722,7.722,0,0,0,16.678,16.349Z"/></svg>