<svg xmlns="http://www.w3.org/2000/svg" viewBox="0 0 24 24"><title>rotate-alternate</title><path d="M9.811,3.688a1.5,1.5,0,0,0-2.121,0L.438,10.94a1.5,1.5,0,0,0,0,2.121L7.69,20.312a1.5,1.5,0,0,0,2.121,0l7.251-7.251a1.5,1.5,0,0,0,0-2.121Z"/><path d="M23.121,14.122a3,3,0,0,0,0-4.243L21.884,8.641a.25.25,0,0,1,0-.353l.177-.177a.5.5,0,0,0-.283-.849L19.3,6.909a.5.5,0,0,0-.566.566l.353,2.475a.5.5,0,0,0,.849.283l.177-.177a.25.25,0,0,1,.353,0l1.237,1.238a1,1,0,0,1,0,1.413L20.47,13.944a.25.25,0,0,1-.353,0l-.177-.177a.5.5,0,0,0-.849.282l-.353,2.476a.5.5,0,0,0,.566.565l2.474-.353a.5.5,0,0,0,.283-.849l-.177-.176a.252.252,0,0,1,0-.354Z"/></svg>