<svg xmlns="http://www.w3.org/2000/svg" viewBox="0 0 24 24"><title>rotate-front-alternate</title><path d="M23.9,6.8a.5.5,0,0,0-.4-.8h-.25A.25.25,0,0,1,23,5.75V4a3,3,0,0,0-3-3H18.25A.25.25,0,0,1,18,.75V.5a.5.5,0,0,0-.8-.4l-2,1.5a.5.5,0,0,0,0,.8l2,1.5a.5.5,0,0,0,.8-.4V3.25A.25.25,0,0,1,18.25,3H20a1,1,0,0,1,1,1V5.75a.25.25,0,0,1-.25.25H20.5a.5.5,0,0,0-.4.8l1.5,2a.5.5,0,0,0,.8,0Z"/><rect y="4" width="13" height="13" rx="2" ry="2"/><path d="M20,12a2,2,0,0,0-2-2H15.5a1,1,0,0,0,0,2h2a.5.5,0,0,1,.5.5v9a.5.5,0,0,1-.5.5h-9a.5.5,0,0,1-.5-.5v-2a1,1,0,0,0-2,0V22a2,2,0,0,0,2,2H18a2,2,0,0,0,2-2Z"/><path d="M9.75,19.25a.75.75,0,0,0,.75.75h4.75a.75.75,0,0,0,.75-.75V14.5a.75.75,0,0,0-1.5,0v3.75a.25.25,0,0,1-.25.25H10.5A.75.75,0,0,0,9.75,19.25Z"/></svg>