<svg xmlns="http://www.w3.org/2000/svg" viewBox="0 0 24 24"><title>rotate-front</title><path d="M23.9,6.8a.5.5,0,0,0-.4-.8h-.25A.25.25,0,0,1,23,5.75V4a3,3,0,0,0-3-3H18.25A.25.25,0,0,1,18,.75V.5a.5.5,0,0,0-.8-.4l-2,1.5a.5.5,0,0,0,0,.8l2,1.5a.5.5,0,0,0,.3.1.508.508,0,0,0,.224-.053A.5.5,0,0,0,18,3.5V3.25A.25.25,0,0,1,18.25,3H20a1,1,0,0,1,1,1V5.75a.25.25,0,0,1-.25.25H20.5a.5.5,0,0,0-.4.8l1.5,2a.5.5,0,0,0,.8,0Z"/><path d="M20,12a2,2,0,0,0-2-2H14V6a2,2,0,0,0-2-2H2A2,2,0,0,0,0,6V16a2,2,0,0,0,2,2H6v4a2,2,0,0,0,2,2H18a2,2,0,0,0,2-2ZM2,6.5A.5.5,0,0,1,2.5,6l9,0a.5.5,0,0,1,.5.5v9a.5.5,0,0,1-.5.5h-9a.5.5,0,0,1-.5-.5Zm16,15a.5.5,0,0,1-.5.5h-9a.5.5,0,0,1-.5-.5V18.25A.25.25,0,0,1,8.25,18h1a.25.25,0,0,1,.25.25V19.5a1,1,0,0,0,1,1h5a1,1,0,0,0,1-1v-5a1,1,0,0,0-1-1H14.25a.25.25,0,0,1-.25-.25v-1a.25.25,0,0,1,.25-.25H17.5a.5.5,0,0,1,.5.5Z"/></svg>