<svg xmlns="http://www.w3.org/2000/svg" viewBox="0 0 24 24"><title>safety-fire-exit-stairs</title><path d="M20.5,7.972a3,3,0,0,0,3-3A5.523,5.523,0,0,0,20.338.051a.25.25,0,0,0-.315.362,3.17,3.17,0,0,1,.259,2.756.247.247,0,0,1-.179.15.251.251,0,0,1-.225-.063,1.64,1.64,0,0,1-.442-.64.252.252,0,0,0-.142-.149.247.247,0,0,0-.206.007,2.694,2.694,0,0,0-1.588,2.5A3,3,0,0,0,20.5,7.972Z"/><path d="M15.5,16.972v2.75a.25.25,0,0,1-.25.25H11.5a1,1,0,0,0-1,1v2.5a.5.5,0,0,0,.5.5H23a.5.5,0,0,0,.5-.5v-11a.5.5,0,0,0-.5-.5H21.5a1,1,0,0,0-1,1v2.75a.25.25,0,0,1-.25.25H16.5A1,1,0,0,0,15.5,16.972Z"/><circle cx="5" cy="3.472" r="2.5"/><path d="M2,12.972H3.16a5.5,5.5,0,0,0,4.177-1.921l.179-.21a.25.25,0,0,1,.4.03l.236.377a2.486,2.486,0,0,1-.239,2.971l-.555.634A5.5,5.5,0,0,0,6,18.475v1.5a1.5,1.5,0,0,0,3,0v-1.5a2.483,2.483,0,0,1,.438-1.4.251.251,0,0,1,.3-.091l2.206.882a1.479,1.479,0,0,0,.557.108,1.5,1.5,0,0,0,.557-2.893l-1.612-.645a.251.251,0,0,1-.147-.3,5.4,5.4,0,0,0-.385-4.087.25.25,0,0,1,.321-.344,2.442,2.442,0,0,1,1.145.988l.335.557A1.5,1.5,0,1,0,15.286,9.7l-.335-.556a5.524,5.524,0,0,0-4.716-2.671H9.84A5.492,5.492,0,0,0,5.663,8.393l-.6.707a2.5,2.5,0,0,1-1.9.872H2a1.5,1.5,0,0,0,0,3Z"/></svg>