<svg xmlns="http://www.w3.org/2000/svg" viewBox="0 0 24 24"><title>safety-slippery</title><path d="M15.674,5.838a2.651,2.651,0,0,0,.331.021,2.5,2.5,0,0,0,2.474-2.174,2.5,2.5,0,1,0-2.8,2.153Z"/><path d="M1,22.5a1,1,0,0,0,1,1H14.5a1,1,0,0,0,0-2H2A1,1,0,0,0,1,22.5Z"/><path d="M8.575,10.776a5.594,5.594,0,0,0-2.131.127l-2.831.723a1.5,1.5,0,1,0,.741,2.906l2.833-.722a2.613,2.613,0,0,1,.652-.083,2.665,2.665,0,0,1,.345.023l1.257.165a.25.25,0,0,1,.078.472L5.21,16.522a1.5,1.5,0,0,0,1.332,2.689L12.1,16.455a3.483,3.483,0,0,0,1.9-2.32l1.143-3.52a.25.25,0,0,1,.274-.17,6.9,6.9,0,0,0,.974.067A7.3,7.3,0,0,0,21.26,8.654L22.5,7.538a1.5,1.5,0,1,0-2-2.231L19.255,6.422A4.281,4.281,0,0,1,16.4,7.514a4.209,4.209,0,0,1-.893-.1A4.261,4.261,0,0,1,13.424,6.3l-.732-.716a4.245,4.245,0,0,1-1.281-2.9l-.025-.731A1.5,1.5,0,0,0,9.882.5H9.835a1.5,1.5,0,0,0-1.447,1.55l.025.731a7.234,7.234,0,0,0,2.181,4.945l.733.715a6.8,6.8,0,0,0,.94.757.249.249,0,0,1,.1.284L11.869,11a.249.249,0,0,1-.27.171Z"/></svg>