<svg xmlns="http://www.w3.org/2000/svg" viewBox="0 0 24 24"><title>safety-exit-right</title><path d="M19.445,1.316a2.5,2.5,0,0,0-3,1.864,2.5,2.5,0,1,0,4.867,1.141h0A2.5,2.5,0,0,0,19.445,1.316Z"/><path d="M23.1,14.294a1.5,1.5,0,0,0-1.25-1.751l-2.9-.44a1,1,0,0,1-.814-.86l-.03-.24a6.907,6.907,0,0,0-.5-1.908A7.216,7.216,0,0,0,8.383,5.179L5.413,6.321A1.556,1.556,0,0,0,4.406,8.052a1.506,1.506,0,0,0,2.008,1.1L9.46,7.979A4.157,4.157,0,0,1,10.951,7.7a4.219,4.219,0,0,1,1.581.308.248.248,0,0,1,.151.18.252.252,0,0,1-.064.225L1.294,20.211A1.5,1.5,0,1,0,3.458,22.29l6.407-6.674a.251.251,0,0,1,.347-.014l1.848,1.65a.249.249,0,0,1,.081.224.252.252,0,0,1-.144.19L8.963,19.045a1.5,1.5,0,0,0,1.243,2.731l4.087-1.859a2.5,2.5,0,0,0,.612-4.157l-2.6-2.311a.251.251,0,0,1-.014-.36l2.58-2.688a4.173,4.173,0,0,1,.259.976l.03.24a3.983,3.983,0,0,0,3.254,3.437l2.986.454a1.574,1.574,0,0,0,.226.017A1.5,1.5,0,0,0,23.1,14.294Z"/></svg>