<svg id="Bold" xmlns="http://www.w3.org/2000/svg" viewBox="0 0 24 24"><title>safety-helmet-mine</title><path d="M7.215,15.286a.5.5,0,0,0,.5-.515v-.057a4.249,4.249,0,0,1,1.024-2.757.5.5,0,0,0,.119-.323V6.207a.5.5,0,0,0-.687-.463A10.3,10.3,0,0,0,1.728,14.76a.5.5,0,0,0,.5.526Z"/><path d="M15.143,11.634a.5.5,0,0,0,.119.323,4.249,4.249,0,0,1,1.024,2.757v.057a.5.5,0,0,0,.5.515h4.988a.5.5,0,0,0,.5-.526A10.3,10.3,0,0,0,15.83,5.744a.5.5,0,0,0-.687.463Z"/><path d="M15.612,17a4.262,4.262,0,0,1-7.224,0H1.714a1.715,1.715,0,0,0,0,3.429H22.286a1.715,1.715,0,0,0,0-3.429Z"/><path d="M10.571,10.029a.5.5,0,0,0,.605.489,3.859,3.859,0,0,1,1.648,0,.5.5,0,0,0,.605-.489V3.857a.287.287,0,0,0-.286-.286H10.857a.287.287,0,0,0-.286.286Z"/><circle cx="12" cy="14.714" r="2.571"/></svg>