<svg xmlns="http://www.w3.org/2000/svg" viewBox="0 0 24 24"><title>safety-fire-right</title><path d="M18.339.512A2.056,2.056,0,0,0,16.9,0a1.983,1.983,0,0,0-1.382.66,2,2,0,0,0,.149,2.825l.641.577a.25.25,0,0,1-.167.436H9.5A2.012,2.012,0,0,0,7.517,6.275a.251.251,0,0,0,.3.268A2.321,2.321,0,0,1,9.731,7a2.358,2.358,0,0,1,.83,1.307.25.25,0,0,0,.244.192h5.331a.25.25,0,0,1,.167.436l-.642.578a2,2,0,0,0,2.678,2.973l5-4.5a2,2,0,0,0,0-2.973Z"/><path d="M7.7,8.179A4.864,4.864,0,0,1,4.99,9H.5a.5.5,0,0,0-.5.5v3a.5.5,0,0,0,.5.5H3.559A5.907,5.907,0,0,0,9.075,9.165a.87.87,0,0,0-.276-.99A.9.9,0,0,0,7.7,8.179Z"/><path d="M5.483,13.986A5.988,5.988,0,0,0,.055,17.82a.875.875,0,0,0,.277.991.829.829,0,0,0,.523.183,1.038,1.038,0,0,0,.576-.188,4.865,4.865,0,0,1,2.71-.821H7.688a5.907,5.907,0,0,0,5.517-3.834.875.875,0,0,0-.277-.991.9.9,0,0,0-1.1,0,4.867,4.867,0,0,1-2.71.82H5.483Z"/><path d="M7.693,19.179a4.864,4.864,0,0,1-2.71.82H.5a.5.5,0,0,0-.5.5v3a.5.5,0,0,0,.5.5H5.187c2.48,0,3.06-1.588,3.733-3.427l.149-.407a.87.87,0,0,0-.275-.989A.9.9,0,0,0,7.693,19.179Z"/></svg>