<svg xmlns="http://www.w3.org/2000/svg" viewBox="0 0 24 24"><title>safety-do-not-touch-fire</title><path d="M8.415,14.419a.734.734,0,0,0-1.038,1.039.305.305,0,0,1,0,.431,1.774,1.774,0,0,0,0,2.508.734.734,0,0,0,1.038-1.039.307.307,0,0,1,0-.43A1.776,1.776,0,0,0,8.415,14.419Z"/><path d="M10.315,15.458a.305.305,0,0,1,0,.431,1.776,1.776,0,0,0,0,2.508.735.735,0,0,0,1.039-1.039.3.3,0,0,1,0-.43,1.744,1.744,0,0,0,.487-.966.246.246,0,0,0-.068-.212l-1.332-1.331a.091.091,0,0,0-.126,0A.735.735,0,0,0,10.315,15.458Z"/><path d="M13.136,18.4a.734.734,0,0,0,1.038,0,.173.173,0,0,0,.051-.123.169.169,0,0,0-.051-.122L13.042,17.02a.245.245,0,0,0-.418.179A1.748,1.748,0,0,0,13.136,18.4Z"/><path d="M4.7,10.668a.987.987,0,0,0,.921.666,1.205,1.205,0,0,0,.264-.04l.694-.236a.246.246,0,0,0,.094-.4L5.532,9.51a.244.244,0,0,0-.279-.048h0A.973.973,0,0,0,4.7,10.668Z"/><path d="M22.36,5.957a11.382,11.382,0,0,0-2.42-2.935,11.946,11.946,0,0,0-16.61.7c-.017.015-.04.021-.056.037a.861.861,0,0,0-.061.092c-.124.133-.249.264-.366.4a12.109,12.109,0,0,0-1.073,1.5,11.993,11.993,0,0,0,17.969,15.4c.138-.117.269-.242.4-.365a1.059,1.059,0,0,0,.092-.062c.016-.016.022-.039.037-.057A11.95,11.95,0,0,0,22.36,5.957ZM12,1.959a9.951,9.951,0,0,1,6.389,2.314.246.246,0,0,1,.087.177.242.242,0,0,1-.071.185L16.258,6.782a.245.245,0,0,1-.2.07L13.146,6.5a4.61,4.61,0,0,0-2.351.313l-1.934.926a.244.244,0,0,1-.279-.048L5.559,4.664A.246.246,0,0,1,5.575,4.3,9.976,9.976,0,0,1,12,1.959Zm.146,7.32c-.264.206-.642.563-.859.772a.244.244,0,0,1-.343,0L10.591,9.7a.244.244,0,0,1,0-.345,9.635,9.635,0,0,1,1.1-.964.49.49,0,1,1,.589.782c-.049.038-.087.073-.134.11Zm3.468,10.313H5.64a.505.505,0,0,1-.336-.127A10.005,10.005,0,0,1,3.2,7.176a9.575,9.575,0,0,1,.666-1.037.245.245,0,0,1,.371-.029L17.3,19.174a.245.245,0,0,1-.173.418ZM19.7,18.425a.247.247,0,0,1-.362.016l-6.321-6.322a.244.244,0,0,1,0-.342c2.477-2.594,3.864-.719,6.346-3.176L20.55,7.407a.246.246,0,0,1,.211-.068.241.241,0,0,1,.18.13A9.941,9.941,0,0,1,19.7,18.425Z"/></svg>