<svg xmlns="http://www.w3.org/2000/svg" viewBox="0 0 24 24"><title>safety-call-firefighters</title><path d="M12.812,18.164a1.6,1.6,0,0,0-2.252.086l-.44.427a.25.25,0,0,1-.334.012,32.281,32.281,0,0,1-4.514-4.644.249.249,0,0,1,.021-.334l.439-.426a1.6,1.6,0,0,0,.151-2.25L4.306,9.414A1.6,1.6,0,0,0,2.054,9.5l-.988.96a2.459,2.459,0,0,0-.5,3.012,31.612,31.612,0,0,0,9.66,9.937A2.459,2.459,0,0,0,13.249,23l.989-.961a1.6,1.6,0,0,0,.149-2.249Z"/><path d="M8.949,5.446a.87.87,0,0,0-.279.991,5.908,5.908,0,0,0,5.517,3.835h5.182a4.941,4.941,0,0,1,2.778.866.883.883,0,0,0,.489.149.877.877,0,0,0,.819-1.181,5.909,5.909,0,0,0-5.429-3.834h-5.27a4.94,4.94,0,0,1-2.778-.865A.873.873,0,0,0,8.949,5.446Z"/><path d="M23.25,12.771H17.132a4.945,4.945,0,0,1-2.779-.865.875.875,0,0,0-1.307,1.031,5.908,5.908,0,0,0,5.517,3.835H23.25a.5.5,0,0,0,.5-.5v-3A.5.5,0,0,0,23.25,12.771Z"/><path d="M23.25,1.257H17.126A4.94,4.94,0,0,1,14.345.389.876.876,0,0,0,13.04,1.423a5.909,5.909,0,0,0,5.518,3.834H23.25a.5.5,0,0,0,.5-.5v-3A.5.5,0,0,0,23.25,1.257Z"/></svg>