<svg xmlns="http://www.w3.org/2000/svg" viewBox="0 0 24 24"><title>safety-call-firefighters-2</title><path d="M5,10.5a1,1,0,0,0,1-1A3.5,3.5,0,0,1,9.5,6a1,1,0,0,0,0-2A5.506,5.506,0,0,0,4,9.5,1,1,0,0,0,5,10.5Z"/><path d="M9.5,2a1,1,0,0,0,0-2A9.511,9.511,0,0,0,0,9.5a1,1,0,0,0,2,0A7.508,7.508,0,0,1,9.5,2Z"/><path d="M14.5,4a1,1,0,0,0,0,2A3.5,3.5,0,0,1,18,9.5a1,1,0,0,0,2,0A5.506,5.506,0,0,0,14.5,4Z"/><path d="M14.5,0a1,1,0,0,0,0,2A7.508,7.508,0,0,1,22,9.5a1,1,0,0,0,2,0A9.511,9.511,0,0,0,14.5,0Z"/><path d="M11.75,9a7.5,7.5,0,1,0,7.5,7.5A7.508,7.508,0,0,0,11.75,9Zm0,12a3.116,3.116,0,0,1-3.115-3.115,4.179,4.179,0,0,1,.633-1.78.5.5,0,0,1,.837-.047l.094.127a.5.5,0,0,0,.88-.151,5.689,5.689,0,0,0-.072-3.006.5.5,0,0,1,.74-.552,6.515,6.515,0,0,1,3.118,5.409A3.115,3.115,0,0,1,11.75,21Z"/></svg>