<svg xmlns="http://www.w3.org/2000/svg" viewBox="0 0 24 24"><title>safety-warning-sun</title><path d="M23.9,22.163,12.81.974a.948.948,0,0,0-1.619,0L.105,22.159a.891.891,0,0,0-.1.421.9.9,0,0,0,.9.9H23.1a.9.9,0,0,0,.9-.9A.885.885,0,0,0,23.9,22.163Zm-9.775-10.01.707-.707a.5.5,0,1,1,.707.707l-.707.707a.5.5,0,0,1-.707-.707ZM11.5,10.481a.5.5,0,0,1,1,0v1a.5.5,0,1,1-1,0Zm-3.036.965a.5.5,0,0,1,.707,0l.707.707a.5.5,0,1,1-.707.707l-.707-.707A.5.5,0,0,1,8.464,11.446ZM7,14.981a.5.5,0,0,1,.5-.5h1a.5.5,0,0,1,0,1h-1A.5.5,0,0,1,7,14.981ZM9.878,17.81l-.707.707a.5.5,0,1,1-.707-.707l.707-.707a.5.5,0,1,1,.707.707ZM12.5,19.481a.5.5,0,0,1-1,0v-1a.5.5,0,0,1,1,0Zm-.5-2.5a2,2,0,1,1,2-2A2,2,0,0,1,12,16.981Zm3.536,1.536a.5.5,0,0,1-.707,0l-.707-.707a.5.5,0,1,1,.707-.707l.707.707A.5.5,0,0,1,15.536,18.517Zm.964-3.036h-1a.5.5,0,0,1,0-1h1a.5.5,0,0,1,0,1Z"/></svg>