<svg xmlns="http://www.w3.org/2000/svg" viewBox="0 0 24 24"><title>safety-danger-electricity</title><path d="M11.653,10.4,15.5,9.3a.248.248,0,0,1,.259.08l2.289,2.76a.987.987,0,0,0,.761.358,1,1,0,0,0,.276-.039.993.993,0,0,0,.706-.823l.577-4.454A.99.99,0,0,0,18.4,6.924l-.211,1.635a.247.247,0,0,1-.436.126l-.99-1.194a1,1,0,0,0-1.033-.32l-2.267.649a.248.248,0,0,1-.3-.324l.467-1.254a1,1,0,0,0-.119-.917,1.058,1.058,0,0,0-.824-.418l-2.5.037a.1.1,0,0,1-.1-.067.1.1,0,0,1,.03-.114A.99.99,0,1,0,8.853,3.238L6.462,5.217a.989.989,0,0,0,.631,1.752h.015l3.8-.056a.25.25,0,0,1,.206.1.246.246,0,0,1,.029.229L10.454,9.1a.99.99,0,0,0,1.2,1.3Z"/><path d="M8.983,11.032a2.5,2.5,0,0,0-1.83.491,2.474,2.474,0,0,0,1.185,4.415,2.532,2.532,0,0,0,.324.022,2.475,2.475,0,0,0,.321-4.928Z"/><path d="M2.227,23.845a1.48,1.48,0,0,0,1.05-.435l1.688-1.688a3.414,3.414,0,0,1,1.179-.768.248.248,0,0,1,.336.258l-.173,1.566a.989.989,0,0,0,.983,1.1H10.5a.988.988,0,0,0,.984-1.093L11.222,20.3a.248.248,0,0,1,.207-.27l.716-.115A4.663,4.663,0,0,0,14.88,18.5a4.438,4.438,0,0,0,1.1-3.812l-.447-2.461a1.488,1.488,0,0,0-1.461-1.219,1.5,1.5,0,0,0-.594.124,1.547,1.547,0,0,0-.851,1.71l.432,2.378a1.483,1.483,0,0,1-1.224,1.731l-5.061.817a6.458,6.458,0,0,0-3.908,1.852L1.253,21.235a1.559,1.559,0,0,0-.16,2.084A1.48,1.48,0,0,0,2.227,23.845Z"/><path d="M.99,2.1h14.1a.248.248,0,0,1,.247.248V3.588a1.486,1.486,0,0,0,1.485,1.484H23.01a.99.99,0,1,0,0-1.979H17.567a.247.247,0,0,1-.247-.248V1.608A1.486,1.486,0,0,0,15.835.124H.99A.99.99,0,1,0,.99,2.1Z"/></svg>