<svg xmlns="http://www.w3.org/2000/svg" viewBox="0 0 24 24"><title>safety-exit-left</title><path d="M2.4,16.478a.5.5,0,0,0,.353.147.508.508,0,0,0,.191-.038.5.5,0,0,0,.309-.462v-.75a.249.249,0,0,1,.25-.25H5.75a1,1,0,0,0,0-2H3.5a.25.25,0,0,1-.25-.25v-.75a.5.5,0,0,0-.853-.354l-2,2a.5.5,0,0,0,0,.707Z"/><circle cx="10.5" cy="3.375" r="2.5"/><path d="M5.511,9.754a5.506,5.506,0,0,0,3.58,1.319,5.6,5.6,0,0,0,1.88-.327l.345-.132a.25.25,0,0,1,.312.122l1.309,2.617a.25.25,0,0,1-.074.312l-2.214,1.66a3.52,3.52,0,0,0-1.4,2.8v3.5a1.5,1.5,0,0,0,3,0v-3.5a.5.5,0,0,1,.2-.4l1.7-1.278a.251.251,0,0,1,.374.088l.27.54A3.474,3.474,0,0,0,17.92,19.01,3.227,3.227,0,0,0,18.245,19l4.141-.376a1.5,1.5,0,0,0-.134-2.994,1.288,1.288,0,0,0-.138.007s-4.169.378-4.183.378a.5.5,0,0,1-.45-.276l-3-6a.25.25,0,0,1,.17-.356,2.533,2.533,0,0,1,.532-.057,2.483,2.483,0,0,1,1.811.784l1.657,1.76a1.5,1.5,0,1,0,2.184-2.057L19.178,8.047a5.487,5.487,0,0,0-5.966-1.368L9.931,7.932a2.473,2.473,0,0,1-.838.146,2.509,2.509,0,0,1-1.63-.6L5.726,5.987A1.5,1.5,0,1,0,3.774,8.264Z"/></svg>