<svg xmlns="http://www.w3.org/2000/svg" viewBox="0 0 24 24"><title>safety-extinguish-fire</title><path d="M6,2H18a1,1,0,0,0,0-2H6A1,1,0,0,0,6,2Z"/><path d="M12.174,12.06a.527.527,0,0,0-.712.71,4.826,4.826,0,0,1,.279,3.645.528.528,0,0,1-.879.2,2.392,2.392,0,0,1-.5-.74.495.495,0,0,0-.681-.252,4.111,4.111,0,0,0-2.4,3.781,4.721,4.721,0,0,0,9.438,0A8.451,8.451,0,0,0,12.174,12.06Z"/><circle cx="12" cy="4.5" r="1.5"/><circle cx="12" cy="8.5" r="1.5"/><path d="M17.031,3.1a1.5,1.5,0,1,0,.836.786A1.494,1.494,0,0,0,17.031,3.1Z"/><path d="M19.513,7.529h0a1.5,1.5,0,1,0-1.365,2.118,1.484,1.484,0,0,0,.616-.133A1.5,1.5,0,0,0,19.513,7.529Z"/><path d="M21.2,12.322a1.5,1.5,0,1,0-.786.837A1.491,1.491,0,0,0,21.2,12.322Z"/><path d="M22.805,14.82h0a1.5,1.5,0,1,0-.75,1.985A1.5,1.5,0,0,0,22.805,14.82Z"/><path d="M8.117,3.133a1.5,1.5,0,0,0-2.02,1.9A1.505,1.505,0,0,0,7.5,6a1.507,1.507,0,0,0,.531-.1,1.5,1.5,0,0,0,.087-2.77Z"/><path d="M6.471,6.779a1.5,1.5,0,0,0-1.984.749h0a1.5,1.5,0,0,0,.75,1.984,1.479,1.479,0,0,0,.615.133,1.5,1.5,0,0,0,.619-2.867Z"/><path d="M4.825,10.425a1.5,1.5,0,1,0,.786.836A1.5,1.5,0,0,0,4.825,10.425Z"/><path d="M3.18,14.07a1.5,1.5,0,0,0-1.985.75h0a1.5,1.5,0,1,0,1.985-.75Z"/></svg>