<svg xmlns="http://www.w3.org/2000/svg" viewBox="0 0 24 24"><title>safety-911</title><path d="M1.764,13.767A1.593,1.593,0,0,0,4,13.957l1.644-1.541A1.594,1.594,0,0,0,5.6,10.17l-.418-.446a.251.251,0,0,1-.006-.334A32.183,32.183,0,0,1,9.889,4.974.249.249,0,0,1,10.221,5l.417.445a1.594,1.594,0,0,0,2.24.191L14.522,4.1a1.593,1.593,0,0,0-.046-2.246l-.939-1A2.449,2.449,0,0,0,10.544.294,31.519,31.519,0,0,0,.465,9.742a2.453,2.453,0,0,0,.359,3.023Z"/><path d="M11.276,22.006a1,1,0,1,0,0,1.994h4.653a1,1,0,0,0,0-1.994h-1.08a.248.248,0,0,1-.249-.249V16.315a1.288,1.288,0,0,0-1.288-1.287,1.705,1.705,0,0,0-1.2.5l-1.54,1.539a1,1,0,0,0,1.41,1.409l.2-.2a.249.249,0,0,1,.425.176v3.306a.249.249,0,0,1-.249.249Z"/><path d="M23.9,23a1,1,0,0,0-1-1h-1.08a.249.249,0,0,1-.249-.249V16.315a1.288,1.288,0,0,0-1.288-1.287,1.705,1.705,0,0,0-1.2.5L17.55,17.065a1,1,0,0,0,1.409,1.409l.2-.2a.249.249,0,0,1,.425.176v3.306a.248.248,0,0,1-.249.249H18.254a1,1,0,0,0,0,1.994h4.653A1,1,0,0,0,23.9,23Z"/><path d="M5.461,22.006a1,1,0,0,0,0,1.994h.582a3.908,3.908,0,0,0,3.9-3.905V18.351a3.323,3.323,0,1,0-3.322,3.323.116.116,0,0,1,.038.225,1.844,1.844,0,0,1-.62.107ZM6.625,19.68a1.329,1.329,0,1,1,1.329-1.329A1.331,1.331,0,0,1,6.625,19.68Z"/></svg>