<svg xmlns="http://www.w3.org/2000/svg" viewBox="0 0 24 24"><title>safety-board</title><path d="M22.5,12.5H1.5A1.5,1.5,0,0,0,0,14v8.5A1.5,1.5,0,0,0,1.5,24h21A1.5,1.5,0,0,0,24,22.5V14A1.5,1.5,0,0,0,22.5,12.5Zm-17.25,5a.75.75,0,0,1-1.5,0v-2a.75.75,0,0,1,1.5,0Zm3,0a.75.75,0,0,1-1.5,0v-2a.75.75,0,0,1,1.5,0Zm9,0a.75.75,0,0,1-1.5,0v-2a.75.75,0,0,1,1.5,0Zm1,4.5a.75.75,0,1,1,.75-.75A.75.75,0,0,1,18.25,22Zm.5-4.5v-2a.75.75,0,0,1,1.5,0v2a.75.75,0,0,1-1.5,0Zm2,4.5a.75.75,0,1,1,.75-.75A.75.75,0,0,1,20.75,22Z"/><path d="M17.31,9.856a.25.25,0,0,1,.19.243v.4a.5.5,0,0,0,.5.5h1a.5.5,0,0,0,.5-.5v-.4a.251.251,0,0,1,.19-.243,5,5,0,1,0-2.38,0ZM19.25,2.45a.25.25,0,0,1,.109-.206.246.246,0,0,1,.232-.026,2.988,2.988,0,0,1,1.691,1.69.25.25,0,0,1-.232.342H19.5A.25.25,0,0,1,19.25,4Zm0,3.55a.25.25,0,0,1,.25-.25h1.55a.251.251,0,0,1,.233.341,2.993,2.993,0,0,1-1.691,1.691.25.25,0,0,1-.342-.232ZM15.717,3.909a2.991,2.991,0,0,1,1.692-1.691.25.25,0,0,1,.341.232V4a.25.25,0,0,1-.25.25H15.95a.251.251,0,0,1-.233-.341Zm.027,1.95a.248.248,0,0,1,.206-.109H17.5a.25.25,0,0,1,.25.25V7.55a.25.25,0,0,1-.109.206.246.246,0,0,1-.232.026,2.991,2.991,0,0,1-1.691-1.69A.248.248,0,0,1,15.744,5.859Z"/><path d="M4.31,9.856a.25.25,0,0,1,.19.243v.4A.5.5,0,0,0,5,11H6a.5.5,0,0,0,.5-.5v-.4a.251.251,0,0,1,.19-.243,5,5,0,1,0-2.38,0ZM6.25,2.45a.25.25,0,0,1,.109-.206.246.246,0,0,1,.232-.026A2.991,2.991,0,0,1,8.283,3.909a.251.251,0,0,1-.233.341H6.5A.25.25,0,0,1,6.25,4ZM6.25,6a.25.25,0,0,1,.25-.25H8.05a.251.251,0,0,1,.233.341A2.993,2.993,0,0,1,6.592,7.782.25.25,0,0,1,6.25,7.55ZM2.717,3.909A2.991,2.991,0,0,1,4.409,2.218a.25.25,0,0,1,.341.232V4a.25.25,0,0,1-.25.25H2.95a.251.251,0,0,1-.233-.341Zm.027,1.95A.248.248,0,0,1,2.95,5.75H4.5A.25.25,0,0,1,4.75,6V7.55a.25.25,0,0,1-.109.206.246.246,0,0,1-.232.026,2.991,2.991,0,0,1-1.691-1.69A.248.248,0,0,1,2.744,5.859Z"/></svg>