<svg xmlns="http://www.w3.org/2000/svg" viewBox="0 0 24 24"><title>safety-fire-extinguisher</title><path d="M21.954.875a.5.5,0,0,0-.395-.12l-6.066.809a1,1,0,0,0-.868.991v.391a1,1,0,0,0,.868.992l6.066.808a.5.5,0,0,0,.566-.5v-3A.5.5,0,0,0,21.954.875Z"/><rect x="11.375" y="11.352" width="3.25" height="8.398" rx="0.5" ry="0.5"/><path d="M11.926,5.141a.5.5,0,0,1-.3-.459V4.25a.5.5,0,0,1,.5-.5h.5a.5.5,0,0,0,.5-.5v-.5a.5.5,0,0,0-.5-.5H9.255a.49.49,0,0,1-.2-.043L4.281.086a1,1,0,0,0-.812,1.828L4.9,2.549a.249.249,0,0,1,.148.211.253.253,0,0,1-.117.23A6.489,6.489,0,0,0,1.875,8.5V20.749a1,1,0,0,0,2,0V8.5A4.5,4.5,0,0,1,8.094,4.011a.5.5,0,0,1,.531.5v.172a.5.5,0,0,1-.3.459,4.486,4.486,0,0,0-2.7,4.109V22.5a1.5,1.5,0,0,0,1.5,1.5h6a1.5,1.5,0,0,0,1.5-1.5v-.75a.5.5,0,0,0-.5-.5h-3A1.252,1.252,0,0,1,9.875,20V11.1a1.252,1.252,0,0,1,1.25-1.25h3a.5.5,0,0,0,.5-.5v-.1A4.486,4.486,0,0,0,11.926,5.141Z"/></svg>