<svg id="Bold" xmlns="http://www.w3.org/2000/svg" viewBox="0 0 24 24"><title>sailing-boat-2</title><path d="M1,17.4h.705a.25.25,0,0,1,.25.25V18.6a.221.221,0,0,1-.222.221,1,1,0,0,0,0,2H4.178a1,1,0,1,0,0-2,.222.222,0,0,1-.223-.222v-.95a.25.25,0,0,1,.25-.25h3.3a.988.988,0,0,0,.936-.689l.007-.021a.982.982,0,0,0-.936-1.29H1a1,1,0,0,0,0,2Z"/><path d="M23,17.4a1,1,0,1,0,0-2H16.345a.981.981,0,0,0-.936,1.289l.007.022a.988.988,0,0,0,.936.689Z"/><path d="M23,14.217a.75.75,0,0,0,.75-.75V8.578a.75.75,0,0,0-.75-.75H10.206a.25.25,0,0,1-.2-.4l2.048-2.633a1,1,0,0,0-1.578-1.229L7.236,7.732a.251.251,0,0,1-.2.1H3.478A1.239,1.239,0,0,0,2.25,9.233c.386,2.841,3.211,4.984,6.572,4.984Z"/><path d="M11.93,20.556a2.689,2.689,0,1,0-2.689-2.689A2.689,2.689,0,0,0,11.93,20.556Z"/></svg>