<svg id="Bold" xmlns="http://www.w3.org/2000/svg" viewBox="0 0 24 24"><title>sailing-boat-person</title><path d="M22,16.257a1.5,1.5,0,0,0-1.5-1.5h-3a1.5,1.5,0,0,0-1.5,1.5v.176a.249.249,0,0,0,.227.249l5.5.5A.249.249,0,0,0,22,16.933Z"/><path d="M17.5,7a1,1,0,0,0-1-1H3.5a1,1,0,0,0,0,2h13A1,1,0,0,0,17.5,7Z"/><path d="M21.5,4a1,1,0,0,0-1-1H3.5a1,1,0,0,0,0,2h17A1,1,0,0,0,21.5,4Z"/><path d="M21.5,1a1,1,0,0,0-1-1H3.5a1,1,0,0,0,0,2h17A1,1,0,0,0,21.5,1Z"/><circle cx="11.75" cy="13.507" r="2.25"/><path d="M3.708,16.407a.249.249,0,0,1-.237.12l-2.409-.219-.047,0a.5.5,0,0,0-.5.533,6.55,6.55,0,0,0,1.128,3.3.251.251,0,0,0,.336.074,4.175,4.175,0,0,0,1-.85,2.5,2.5,0,0,1,4.089.227h0a2.112,2.112,0,0,0,1.487.874,2.792,2.792,0,0,0,1.888-1.017,2.5,2.5,0,0,1,4.287.39,1.281,1.281,0,0,0,1.051.627,1.868,1.868,0,0,0,1.477-.846A2.415,2.415,0,0,1,19.4,18.413a2.5,2.5,0,0,1,2.127,1.18c.114.17.741.922,1.3.865.056,0,.109.005.164.005l-.451-2.028a.251.251,0,0,0-.222-.2L6.249,16.779a.247.247,0,0,1-.2-.137A.25.25,0,0,1,6.06,16.4l.378-.606,1.877-3a1,1,0,1,0-1.695-1.06L4.207,15.59C4.1,15.764,3.84,16.189,3.708,16.407Z"/><path d="M22.931,21.954c-1.568.127-2.668-1.556-2.676-1.569a1.049,1.049,0,0,0-1.716.022,3.372,3.372,0,0,1-2.753,1.558,2.8,2.8,0,0,1-2.4-1.482,1.044,1.044,0,0,0-1.717-.156,4.3,4.3,0,0,1-3.1,1.638,3.558,3.558,0,0,1-2.76-1.58,1.041,1.041,0,0,0-1.638-.091c-.014.019-1.461,1.84-3.109,1.7A.983.983,0,0,0,0,22.942a1,1,0,0,0,.946,1.052Q1.06,24,1.169,24a5.7,5.7,0,0,0,3.559-1.463.251.251,0,0,1,.329.007,5.182,5.182,0,0,0,3.5,1.421A5.8,5.8,0,0,0,12.2,22.607a.25.25,0,0,1,.332.015,4.548,4.548,0,0,0,3.258,1.343,5.118,5.118,0,0,0,3.455-1.342.25.25,0,0,1,.334,0,4.722,4.722,0,0,0,3.494,1.325,1,1,0,1,0-.138-2Z"/></svg>