<svg id="Bold" xmlns="http://www.w3.org/2000/svg" viewBox="0 0 24 24"><title>sailing-boat-water-1</title><path d="M15.331,14.847a.5.5,0,0,0,.5.471h3.657a1,1,0,0,0,.946-1.324,16.414,16.414,0,0,0-5.976-7.825.25.25,0,0,0-.39.263A45.438,45.438,0,0,1,15.331,14.847Z"/><path d="M2.626,18.71a.5.5,0,0,0,.7.182,2.58,2.58,0,0,1,1.351-.378h0a2.471,2.471,0,0,1,1.9.858c.551.652,1,1.114,1.757,1.114s1.216-.473,1.738-1.09a2.525,2.525,0,0,1,1.938-.882h0a2.47,2.47,0,0,1,1.9.858c.551.652,1,1.114,1.758,1.114s1.216-.473,1.738-1.091a2.637,2.637,0,0,1,3.838-.023,6.362,6.362,0,0,0,.579.622.5.5,0,0,0,.808-.21l.621-1.822a1,1,0,0,0-.894-1.448H14.384a.5.5,0,0,1-.5-.482,39.314,39.314,0,0,0-3.4-15.3,1.25,1.25,0,0,0-2.35.263C7.058,5.849,5.819,9.461,2.979,12.461a1.251,1.251,0,0,0,.9,2.11l7.954.018a.5.5,0,0,1,.5.47q.027.462.045.936a.5.5,0,0,1-.5.519H3.1a1,1,0,0,0-.882.529.98.98,0,0,0,.03.993Z"/><path d="M23,21.986a3.747,3.747,0,0,1-2.9-1.645,1.055,1.055,0,0,0-1.546.022,3.72,3.72,0,0,1-2.884,1.623,3.745,3.745,0,0,1-2.9-1.645,1.055,1.055,0,0,0-1.547.023,3.72,3.72,0,0,1-2.884,1.622,3.747,3.747,0,0,1-2.9-1.645,1.055,1.055,0,0,0-1.547.023A3.718,3.718,0,0,1,1,21.986a1,1,0,0,0,0,2,5.126,5.126,0,0,0,3.346-1.243.5.5,0,0,1,.639,0,5.128,5.128,0,0,0,6.694,0,.5.5,0,0,1,.639,0,5.129,5.129,0,0,0,6.7,0,.5.5,0,0,1,.639,0A5.131,5.131,0,0,0,23,23.986a1,1,0,0,0,0-2Z"/></svg>