<svg id="Bold" xmlns="http://www.w3.org/2000/svg" viewBox="0 0 24 24"><title>sailing-archor</title><path d="M1.169,19.868A5.833,5.833,0,0,0,4.9,18.261a5.237,5.237,0,0,0,3.663,1.572,5.863,5.863,0,0,0,3.811-1.5,4.576,4.576,0,0,0,3.416,1.5,5.155,5.155,0,0,0,3.622-1.5,4.834,4.834,0,0,0,3.661,1.482A1,1,0,0,0,24,18.751a1.022,1.022,0,0,0-1.068-.929c-1.59.134-2.667-1.555-2.675-1.569a1.049,1.049,0,0,0-1.716.022,3.372,3.372,0,0,1-2.753,1.558,2.8,2.8,0,0,1-2.4-1.481,1.044,1.044,0,0,0-1.717-.157,4.3,4.3,0,0,1-3.105,1.638A3.554,3.554,0,0,1,5.8,16.253a1.042,1.042,0,0,0-1.638-.091c-.014.019-1.473,1.838-3.11,1.7A.981.981,0,0,0,0,18.811C-.009,19,.043,19.868,1.169,19.868Z"/><path d="M12.006,15a6.24,6.24,0,0,0,6.243-5.956A1,1,0,0,0,17.25,8H16.212a.75.75,0,0,0,0,1.5H16.7a4.732,4.732,0,0,1-3.636,3.874.254.254,0,0,1-.211-.049.247.247,0,0,1-.094-.195V7.5a.249.249,0,0,1,.25-.25H14a.75.75,0,0,0,0-1.5h-.994a.249.249,0,0,1-.25-.25V4.362a2.25,2.25,0,1,0-1.5,0V5.5a.25.25,0,0,1-.25.25H10a.75.75,0,0,0,0,1.5h1.006a.25.25,0,0,1,.25.25v5.63a.25.25,0,0,1-.094.195.257.257,0,0,1-.212.049A4.733,4.733,0,0,1,7.313,9.5H7.8A.75.75,0,0,0,7.8,8H6.761a1,1,0,0,0-1,1.047A6.24,6.24,0,0,0,12.006,15Zm0-13.5a.75.75,0,1,1-.75.75A.752.752,0,0,1,12.006,1.5Z"/><path d="M22.93,21.954c-1.59.15-2.667-1.556-2.675-1.569a1.049,1.049,0,0,0-1.716.022,3.372,3.372,0,0,1-2.753,1.558,2.8,2.8,0,0,1-2.4-1.482,1.045,1.045,0,0,0-1.717-.156,4.3,4.3,0,0,1-3.105,1.638A3.557,3.557,0,0,1,5.8,20.385a1.041,1.041,0,0,0-1.638-.091C4.148,20.312,2.771,22,1.17,22c-.952,0-1.151.577-1.169.942C-.009,23.13.043,24,1.169,24A5.838,5.838,0,0,0,4.9,22.393a5.242,5.242,0,0,0,3.663,1.572,5.863,5.863,0,0,0,3.811-1.5,4.576,4.576,0,0,0,3.416,1.5,5.155,5.155,0,0,0,3.622-1.5,4.788,4.788,0,0,0,3.661,1.482A1,1,0,0,0,24,22.883,1.018,1.018,0,0,0,22.93,21.954Z"/></svg>