<svg xmlns="http://www.w3.org/2000/svg" viewBox="0 0 24 24"><title>saving-money-tree</title><path d="M19.618,8.98a.249.249,0,0,1-.189-.282,7.447,7.447,0,0,0,.093-1.175A7.518,7.518,0,0,0,4.6,6.217a.249.249,0,0,1-.161.192A5.84,5.84,0,0,0,.75,12.182c0,2.825,1.6,6.125,6.125,6.125H10a.25.25,0,0,1,.25.25V19.75A.25.25,0,0,1,10,20H8.443A1,1,0,0,0,7.5,21.316l.78,2.342A.5.5,0,0,0,8.75,24h6a.5.5,0,0,0,.475-.342l.78-2.342A1,1,0,0,0,15.057,20H13.5a.25.25,0,0,1-.25-.25V18.557a.25.25,0,0,1,.25-.25h5.022a4.728,4.728,0,0,0,1.1-9.327ZM12,16a1,1,0,0,1-1-1v-.368a.25.25,0,0,0-.25-.25h-.691a1,1,0,0,1,0-2H12.69a.736.736,0,0,0,.274-1.419l-2.67-1.069a2.726,2.726,0,0,1,.5-5.214.25.25,0,0,0,.2-.245V4a1,1,0,0,1,2,0v.368a.25.25,0,0,0,.25.25h.691a1,1,0,0,1,0,2H11.31a.736.736,0,0,0-.274,1.419l2.67,1.069a2.726,2.726,0,0,1-.5,5.214.25.25,0,0,0-.2.245V15A1,1,0,0,1,12,16Z"/></svg>