<svg xmlns="http://www.w3.org/2000/svg" viewBox="0 0 24 24"><title>saving-bull</title><path d="M23.523,11.25c0-1.641-1.508-2.5-3-2.5a3.464,3.464,0,0,1-2.585-1.28A1.282,1.282,0,0,1,17.8,6.352a.249.249,0,0,1,.177-.169,2.259,2.259,0,0,0,1.491-1.209,2.925,2.925,0,0,0,0-2.448.5.5,0,0,0-.448-.276,2.279,2.279,0,0,0-1.947,1.276,2.842,2.842,0,0,0-.13,2.112.249.249,0,0,1-.007.17,2.315,2.315,0,0,0,.17,2.222,4.453,4.453,0,0,0,3.414,1.72c.692,0,2,.313,2,1.5a1.506,1.506,0,0,1-.506,1.149.249.249,0,0,0-.047.313,4.025,4.025,0,0,1,.221.428.249.249,0,0,0,.388.092A2.517,2.517,0,0,0,23.523,11.25Z"/><path d="M8.645,16.765a.247.247,0,0,0-.174-.193A9.1,9.1,0,0,0,6.615,16.3a.249.249,0,0,0-.2.079c-.589.631-1.392,1.55-1.392,1.867a5.056,5.056,0,0,0,.754,1.614.5.5,0,0,0,.648.185l.369-.185a.5.5,0,0,0,.262-.324,1.708,1.708,0,0,1,.467-.79,4.171,4.171,0,0,1,1.039-.6.25.25,0,0,0,.145-.2,2.343,2.343,0,0,0,.014-.248A5.081,5.081,0,0,0,8.645,16.765Z"/><path d="M22.024,17.25l-.014-.028a.25.25,0,0,0-.418-.049,7.024,7.024,0,0,1-1.086,1.045c-.162.127-.3.239-.428.336a.251.251,0,0,0,.059.428,1.663,1.663,0,0,1,.887.768,2.237,2.237,0,0,1,.181,1.411.5.5,0,0,0,.492.589h.9a.5.5,0,0,0,.493-.417l.4-2.385a.25.25,0,0,0-.139-.267A3.006,3.006,0,0,1,22.024,17.25Z"/><path d="M18.729,18.335l.01-.007c.055-.041.277-.209,1.148-.895a3.47,3.47,0,0,0,1.636-2.683,3.515,3.515,0,0,0-2.973-3.245,6.306,6.306,0,0,1-3.44-2.3,4.529,4.529,0,0,0-3.354-1.922c-.228-.019-.471-.029-.732-.029C8.3,7.25,6.081,9,3.746,10.634a.25.25,0,0,1-.393-.191,4.828,4.828,0,0,0-.074-.634,3.243,3.243,0,0,0-2.238-2.2.25.25,0,0,0-.288.385,2.618,2.618,0,0,1,.576,2.179c-.238,1.008-.935,2.207-.844,2.7a1.274,1.274,0,0,0,.073.245.121.121,0,0,1-.034.136s0,3.5.5,4,2-.5,2.5-1a3.308,3.308,0,0,0,.588-.86.251.251,0,0,1,.225-.14h.207a13.137,13.137,0,0,1,4.7.553.439.439,0,0,1,.063.038.491.491,0,0,1,.171.207A4.359,4.359,0,0,1,9.722,17.7a8.986,8.986,0,0,1-.9,3.243l-.007.018c-.015.042-.029.084-.043.124a.5.5,0,0,0,.472.665H9.73a.5.5,0,0,0,.437-.257l2.285-4.114a.249.249,0,0,1,.219-.129h2.063a.249.249,0,0,0,.247-.288c-.047-.308-.1-.517-.112-.588a.264.264,0,0,0-.017-.047,3.786,3.786,0,0,1-.329-1.577.5.5,0,0,1,1,0,2.984,2.984,0,0,0,.269,1.244.192.192,0,0,1,.014.036,9.428,9.428,0,0,1-.112,4.988l-.008.027-.021.1a.5.5,0,0,0,.488.608h1.461a.5.5,0,0,0,.49-.4l.178-.89,0-.017.227-1.755A.5.5,0,0,1,18.729,18.335Z"/></svg>