<svg xmlns="http://www.w3.org/2000/svg" viewBox="0 0 24 24"><title>saving-bank-1</title><path d="M7,12a1,1,0,0,0,0-2H3a1,1,0,0,0,0,2h.25a.249.249,0,0,1,.25.25v4a.25.25,0,0,1-.25.25H3a1,1,0,0,0,0,2H7a1,1,0,0,0,0-2H6.75a.25.25,0,0,1-.25-.25v-4A.249.249,0,0,1,6.75,12Z"/><path d="M14,12a1,1,0,0,0,0-2H10a1,1,0,0,0,0,2h.25a.249.249,0,0,1,.25.25v4a.25.25,0,0,1-.25.25H10a1,1,0,0,0,0,2h4a1,1,0,0,0,0-2h-.25a.25.25,0,0,1-.25-.25v-4a.249.249,0,0,1,.25-.25Z"/><path d="M21.5,12a1,1,0,0,0,0-2h-4a1,1,0,0,0,0,2h.25a.249.249,0,0,1,.25.25v4a.25.25,0,0,1-.25.25H17.5a1,1,0,0,0,0,2h4a1,1,0,0,0,0-2h-.25a.25.25,0,0,1-.25-.25v-4a.249.249,0,0,1,.25-.25Z"/><path d="M2.453,8.5h19.2a1,1,0,0,0,.926-.574.884.884,0,0,0-.306-1.075L13.137.2a1.073,1.073,0,0,0-1.2-.026L1.87,6.825h0A.886.886,0,0,0,1.518,7.9,1,1,0,0,0,2.453,8.5Z"/><path d="M23.916,23.223l-2-3A.5.5,0,0,0,21.5,20H2.5a.5.5,0,0,0-.416.223l-2,3A.5.5,0,0,0,.5,24h23a.5.5,0,0,0,.416-.777Z"/></svg>