<svg xmlns="http://www.w3.org/2000/svg" viewBox="0 0 24 24"><title>science-neurons</title><path d="M23.086,18.4a1,1,0,0,0-.407-1.354L20.43,15.839a.249.249,0,0,1-.131-.207,2.639,2.639,0,0,0-1.061-1.972.25.25,0,0,1-.1-.2V10.54a.25.25,0,0,1,.1-.2,2.635,2.635,0,0,0,1.033-1.792.251.251,0,0,1,.129-.19l2.278-1.226a1,1,0,0,0-.947-1.762L19.811,6.4a.25.25,0,0,1-.3-.044,2.612,2.612,0,0,0-3.209-.4.25.25,0,0,1-.248.007l-1.324-.713a.249.249,0,0,1-.129-.19,2.631,2.631,0,0,0-1.033-1.791.253.253,0,0,1-.1-.2V1.143a1,1,0,0,0-2,0V2.61a.248.248,0,0,1-.182.24A2.643,2.643,0,0,0,9.362,5.391a2.573,2.573,0,0,0,.023.342.248.248,0,0,1-.129.253L8.481,6.4a.25.25,0,0,1-.295-.044,2.6,2.6,0,0,0-3.7,0,.252.252,0,0,1-.295.043L2.268,5.37a1,1,0,0,0-.947,1.762L3.6,8.358a.253.253,0,0,1,.129.19A2.633,2.633,0,0,0,4.762,10.34a.25.25,0,0,1,.1.2v2.92a.25.25,0,0,1-.1.2A2.639,2.639,0,0,0,3.7,15.632a.248.248,0,0,1-.131.207L1.321,17.05a1,1,0,0,0,.947,1.762l2.035-1.1a.25.25,0,0,1,.284.033,2.63,2.63,0,0,0,3.106.289.249.249,0,0,1,.248-.006l1.324.712a.25.25,0,0,1,.129.19,2.631,2.631,0,0,0,1.033,1.791.253.253,0,0,1,.1.2v1.931a1,1,0,0,0,2,0V21.39a.251.251,0,0,1,.182-.241,2.636,2.636,0,0,0,1.9-2.215.249.249,0,0,1,.129-.19l1.324-.713a.25.25,0,0,1,.248.007,2.63,2.63,0,0,0,3.106-.289.252.252,0,0,1,.284-.033l2.035,1.1a1,1,0,0,0,1.354-.408ZM18.8,15.776a1.138,1.138,0,1,1-1.138-1.137A1.14,1.14,0,0,1,18.8,15.776ZM12,19.747a1.138,1.138,0,1,1,1.138-1.138A1.14,1.14,0,0,1,12,19.747Zm0-3.776a2.608,2.608,0,0,0-1.851.775.25.25,0,0,1-.295.044l-.775-.417a.25.25,0,0,1-.129-.254,2.577,2.577,0,0,0,.023-.343,2.642,2.642,0,0,0-1.928-2.54A.25.25,0,0,1,6.863,13V11a.248.248,0,0,1,.182-.24A2.636,2.636,0,0,0,8.94,8.548a.254.254,0,0,1,.13-.19l1.324-.712a.25.25,0,0,1,.248.006,2.612,2.612,0,0,0,3.209-.4.249.249,0,0,1,.295-.043l.775.417a.249.249,0,0,1,.129.254,2.562,2.562,0,0,0-.023.342,2.642,2.642,0,0,0,1.928,2.54.25.25,0,0,1,.182.24V13a.248.248,0,0,1-.182.24,2.642,2.642,0,0,0-1.928,2.54,2.589,2.589,0,0,0,.023.343.248.248,0,0,1-.129.253l-.775.418a.25.25,0,0,1-.295-.044A2.609,2.609,0,0,0,12,15.971Zm-5.665.944a1.138,1.138,0,1,1,1.138-1.139A1.14,1.14,0,0,1,6.335,16.915ZM5.2,8.224A1.138,1.138,0,1,1,6.335,9.361,1.14,1.14,0,0,1,5.2,8.224Zm7.941-2.833A1.138,1.138,0,1,1,12,4.253,1.139,1.139,0,0,1,13.138,5.391Zm4.527,1.694a1.138,1.138,0,1,1-1.138,1.139A1.14,1.14,0,0,1,17.665,7.085Z"/></svg>