<svg xmlns="http://www.w3.org/2000/svg" viewBox="0 0 24 24"><title>science-cells</title><path d="M4.375,12.5v-1a1,1,0,0,0-2,0v1a1,1,0,0,0,2,0Z"/><path d="M8.338,19.365l-.866-.5a1,1,0,0,0-1,1.732l.866.5a1,1,0,1,0,1-1.732Z"/><path d="M16.265,19.365l-.865.5a1,1,0,1,0,1,1.732l.865-.5a1,1,0,1,0-1-1.732Z"/><path d="M20.229,12.5v1a1,1,0,0,0,2,0v-1a1,1,0,0,0-2,0Z"/><path d="M16.265,5.635l.866.5a1,1,0,1,0,1-1.732l-.866-.5a1,1,0,0,0-1,1.732Z"/><path d="M8.338,5.635l.866-.5A1,1,0,1,0,8.2,3.4l-.866.5a1,1,0,1,0,1,1.732Z"/><path d="M4.125,7.313a1,1,0,1,1,0-1.324,1,1,0,1,0,1.5-1.328,3,3,0,1,0,.006,3.974,1,1,0,1,0-1.5-1.322Z"/><path d="M4.125,18.063a1,1,0,1,1,0-1.324,1,1,0,1,0,1.5-1.328,3,3,0,1,0,.006,3.974,1,1,0,1,0-1.5-1.322Z"/><path d="M21.125,10.9a3,3,0,0,0,2.25-1.017,1,1,0,0,0-1.5-1.322,1,1,0,1,1,0-1.324,1,1,0,1,0,1.5-1.328A3,3,0,1,0,21.125,10.9Z"/><path d="M21.875,19.063a1,1,0,1,1,0-1.324,1,1,0,1,0,1.5-1.328,3,3,0,1,0,.006,3.974,1,1,0,0,0-1.5-1.322Z"/><path d="M12.874,6a3,3,0,0,0,2.25-1.016,1,1,0,1,0-1.5-1.324,1,1,0,1,1,0-1.323,1,1,0,0,0,1.5-1.327A3,3,0,1,0,12.874,6Z"/><path d="M12.875,21.661a1,1,0,1,1,0-1.324,1,1,0,0,0,1.5-1.327,3,3,0,1,0,.006,3.973,1,1,0,1,0-1.5-1.322Z"/></svg>