<svg xmlns="http://www.w3.org/2000/svg" viewBox="0 0 24 24"><title>science-electricity</title><path d="M5.25,12.25h1a.75.75,0,0,0,0-1.5h-1a.75.75,0,0,0,0,1.5Z"/><path d="M2.25,20.75H2a.5.5,0,0,1-.5-.5V20A.75.75,0,0,0,0,20v1.5a.75.75,0,0,0,.75.75h1.5a.75.75,0,0,0,0-1.5Z"/><path d="M.75,17.75A.75.75,0,0,0,1.5,17V16A.75.75,0,0,0,0,16v1A.75.75,0,0,0,.75,17.75Z"/><path d="M2.25,10.75H.75A.75.75,0,0,0,0,11.5V13a.75.75,0,0,0,1.5,0v-.25a.5.5,0,0,1,.5-.5h.25a.75.75,0,0,0,0-1.5Z"/><path d="M16.5,11.5a.75.75,0,0,0,.75.75h1a.75.75,0,0,0,0-1.5h-1A.75.75,0,0,0,16.5,11.5Z"/><path d="M23.25,19.25a.75.75,0,0,0-.75.75v.25a.5.5,0,0,1-.5.5h-.25a.75.75,0,0,0,0,1.5h1.5A.75.75,0,0,0,24,21.5V20A.75.75,0,0,0,23.25,19.25Z"/><path d="M23.25,15.25a.75.75,0,0,0-.75.75v1A.75.75,0,0,0,24,17V16A.75.75,0,0,0,23.25,15.25Z"/><path d="M23.25,10.75h-1.5a.75.75,0,0,0,0,1.5H22a.5.5,0,0,1,.5.5V13A.75.75,0,0,0,24,13V11.5A.75.75,0,0,0,23.25,10.75Z"/><path d="M17.25,18.5h-8a.5.5,0,0,0-.5.5v.5a.5.5,0,0,1-.5.5h-1a.5.5,0,0,0-.5.5V22a.5.5,0,0,0,.5.5h1a.5.5,0,0,1,.5.5v.5a.5.5,0,0,0,.5.5h8a.5.5,0,0,0,.5-.5V19A.5.5,0,0,0,17.25,18.5Z"/><path d="M7,17.25a.75.75,0,0,0,0-1.5H6.75a.5.5,0,0,1-.5-.5V15a.75.75,0,0,0-1.5,0v.25a.5.5,0,0,1-.5.5H4a.75.75,0,0,0,0,1.5h.25a.5.5,0,0,1,.5.5V18a.75.75,0,0,0,1.5,0v-.25a.5.5,0,0,1,.5-.5Z"/><path d="M20,15.75H17a.75.75,0,0,0,0,1.5h3a.75.75,0,0,0,0-1.5Z"/><path d="M9.7,11.541a.5.5,0,0,1,.307.437,1.924,1.924,0,0,0,.986,1.671.5.5,0,0,1,.258.437V14.5a.75.75,0,0,0,1.5,0v-.414a.5.5,0,0,1,.258-.437,1.924,1.924,0,0,0,.986-1.671.5.5,0,0,1,.307-.437,6,6,0,1,0-4.6,0ZM12,2a4,4,0,0,1,1.429,7.736.5.5,0,0,1-.679-.467V8.018a.5.5,0,0,1,.146-.354L14.03,6.53a.75.75,0,0,0-1.06-1.06l-.616.616a.5.5,0,0,1-.708,0L11.03,5.47A.75.75,0,0,0,9.97,6.53L11.1,7.664a.5.5,0,0,1,.146.354V9.269a.5.5,0,0,1-.679.467A4,4,0,0,1,12,2Z"/></svg>