<svg xmlns="http://www.w3.org/2000/svg" viewBox="0 0 24 24"><title>science-fiction-alien-1</title><path d="M12,.25C5.009.25,1,3.9,1,10.25c0,6.582,7.633,13.5,11,13.5s11-6.918,11-13.5C23,3.9,18.991.25,12,.25Zm1.583,14.429a5.847,5.847,0,0,1,1.059-4.494c1.1-1.338,2.894-2.016,5.344-2.016a.5.5,0,0,1,.5.45,6.472,6.472,0,0,1-1.461,4.6,6.36,6.36,0,0,1-4.948,1.86A.5.5,0,0,1,13.583,14.679Zm-3.166,0a.5.5,0,0,1-.491.4,6.36,6.36,0,0,1-4.948-1.86,6.472,6.472,0,0,1-1.461-4.6.5.5,0,0,1,.5-.45c2.45,0,4.248.678,5.344,2.016A5.847,5.847,0,0,1,10.417,14.679Z"/></svg>