<svg xmlns="http://www.w3.org/2000/svg" viewBox="0 0 24 24"><title>science-physics-law_1</title><path d="M23.5,0H.5A.5.5,0,0,0,0,.5v2A.5.5,0,0,0,.5,3h8a.5.5,0,0,1,.5.5v.876a.5.5,0,0,1-.318.466A5.008,5.008,0,0,0,5.5,9.5v7A.5.5,0,0,1,5,17H4.5a2,2,0,0,0-2,2v3a2,2,0,0,0,2,2h4a2,2,0,0,0,2-2V19a2,2,0,0,0-2-2H8a.5.5,0,0,1-.5-.5V13.97a.249.249,0,0,1,.381-.212,5,5,0,0,0,7.185-2.221.252.252,0,0,1,.206-.147.249.249,0,0,1,.228.108l3.12,4.564a.5.5,0,0,1-.131.7l-.826.565a1,1,0,0,0,.38,1.808l3.475.654a1.061,1.061,0,0,0,.185.017,1,1,0,0,0,.982-.816l.653-3.474A1,1,0,0,0,21.791,14.5l-.825.565a.5.5,0,0,1-.7-.131c-1.182-1.728-5.672-8.3-5.685-8.312a5.025,5.025,0,0,0-2.268-1.78A.5.5,0,0,1,12,4.376V3.5a.5.5,0,0,1,.5-.5h11a.5.5,0,0,0,.5-.5V.5A.5.5,0,0,0,23.5,0ZM12.144,7.155a.249.249,0,0,1,.265.034,3,3,0,1,1-3.818,0A.25.25,0,0,1,9,7.381V9a1.5,1.5,0,0,0,3,0V7.381A.249.249,0,0,1,12.144,7.155Z"/></svg>