<svg xmlns="http://www.w3.org/2000/svg" viewBox="0 0 24 24"><title>science-momentum</title><path d="M16.509,6.381A.25.25,0,0,1,16.722,6H23a1,1,0,0,0,0-2H1A1,1,0,0,0,1,6H2a.5.5,0,0,1,.5.5v6.292a.5.5,0,0,1-.312.464,3.5,3.5,0,1,0,4.577,4.506.252.252,0,0,1,.47,0,3.5,3.5,0,1,0,4.577-4.506.5.5,0,0,1-.312-.464V6.5A.5.5,0,0,1,12,6h1.52a.734.734,0,0,1,.629.358l3.56,5.806a.5.5,0,0,1-.024.558,3.5,3.5,0,1,0,5.8.252h0a3.508,3.508,0,0,0-3.561-1.623.5.5,0,0,1-.508-.231ZM9.5,12.792a.5.5,0,0,1-.312.464,3.518,3.518,0,0,0-1.956,1.99.248.248,0,0,1-.464,0,3.518,3.518,0,0,0-1.956-1.99.5.5,0,0,1-.312-.464V6.5A.5.5,0,0,1,5,6H9a.5.5,0,0,1,.5.5Z"/></svg>