<svg xmlns="http://www.w3.org/2000/svg" viewBox="0 0 24 24"><title>science-physics-law</title><path d="M24,4a1.752,1.752,0,0,0-1.75-1.75H1.75A1.752,1.752,0,0,0,0,4V20a1.752,1.752,0,0,0,1.75,1.75h20.5A1.752,1.752,0,0,0,24,20ZM3.25,14.5a.5.5,0,0,0,.5.5H4.5a.75.75,0,0,1,0,1.5H3.75a.5.5,0,0,0-.5.5v.5a.5.5,0,0,0,.5.5H5.5a.75.75,0,0,1,0,1.5h-2a1.752,1.752,0,0,1-1.75-1.75v-4A1.752,1.752,0,0,1,3.5,12h2a.75.75,0,0,1,0,1.5H3.75a.5.5,0,0,0-.5.5ZM9,17.75H8a.75.75,0,0,1,0-1.5H9a.75.75,0,0,1,0,1.5Zm0-2.5H8a.75.75,0,0,1,0-1.5H9a.75.75,0,0,1,0,1.5Zm6.75,3.5a.75.75,0,0,1-1.5,0V16.605a.249.249,0,0,0-.366-.221.824.824,0,0,1-.384.082.811.811,0,0,1-.384-.083.25.25,0,0,0-.366.222V18.75a.75.75,0,0,1-1.5,0v-6a.75.75,0,0,1,1.421-.335l.605,1.21a.25.25,0,0,0,.448,0l.605-1.21a.75.75,0,0,1,1.421.335ZM20.5,18a.75.75,0,0,1,0,1.5,3.75,3.75,0,0,1,0-7.5.75.75,0,0,1,0,1.5,2.25,2.25,0,0,0,0,4.5Zm.563-9.421a.25.25,0,0,0,.237.171h.2a.75.75,0,0,1,0,1.5H18.3a.75.75,0,0,1-.45-1.35l2.56-1.921a.84.84,0,0,0,.34-.679.85.85,0,1,0-1.7,0,.75.75,0,1,1-1.5,0,2.35,2.35,0,1,1,3.761,1.88l-.161.12A.25.25,0,0,0,21.063,8.579Z"/></svg>