<svg xmlns="http://www.w3.org/2000/svg" viewBox="0 0 24 24"><title>science-atom-positive-negative</title><path d="M23.517,8.616a1,1,0,1,0-1.92.562,9.986,9.986,0,1,1-7.178-6.884A1,1,0,1,0,14.9.354a11.982,11.982,0,1,0,8.616,8.262Z"/><path d="M12,5.75A6.25,6.25,0,1,0,18.25,12,6.257,6.257,0,0,0,12,5.75ZM15,13H13.5a.5.5,0,0,0-.5.5V15a1,1,0,0,1-2,0V13.5a.5.5,0,0,0-.5-.5H9a1,1,0,0,1,0-2h1.5a.5.5,0,0,0,.5-.5V9a1,1,0,0,1,2,0v1.5a.5.5,0,0,0,.5.5H15a1,1,0,0,1,0,2Z"/><circle cx="19.5" cy="4" r="3.25"/></svg>