<svg xmlns="http://www.w3.org/2000/svg" viewBox="0 0 24 24"><title>scooter-1</title><path d="M15.138,7.69a.251.251,0,0,0-.238,0,5.606,5.606,0,0,1-1.7.574A.25.25,0,0,0,13,8.51v3.865a.5.5,0,0,1-.5.5h-1a.5.5,0,0,1-.5-.5V8.507a.25.25,0,0,0-.205-.246,6.206,6.206,0,0,1-1.7-.566.252.252,0,0,0-.234,0A6.47,6.47,0,0,0,5.5,13.375v3.25a4.513,4.513,0,0,0,3.176,4.3A.251.251,0,0,0,9,20.689V17.625a3,3,0,0,1,6,0v3.064a.252.252,0,0,0,.1.2.248.248,0,0,0,.222.037,4.5,4.5,0,0,0,3.176-4.3v-3.25A6.492,6.492,0,0,0,15.138,7.69Z"/><path d="M12,15.625a2.006,2.006,0,0,0-2,2v4a2,2,0,0,0,4,0v-4A2,2,0,0,0,12,15.625Z"/><path d="M21.5,2.875a1,1,0,0,0-1-1H15.792A.254.254,0,0,1,15.61,1.8,4.989,4.989,0,0,0,12,.375,5,5,0,0,0,8.384,1.8a.25.25,0,0,1-.181.077H3.5a1,1,0,0,0,0,2H7.258a.25.25,0,0,1,.249.227C7.654,5.648,9.28,7.375,12,7.375c2.675,0,4.344-1.669,4.49-3.272a.249.249,0,0,1,.249-.228H20.5A1,1,0,0,0,21.5,2.875Zm-8,1a1.5,1.5,0,1,1-1.5-1.5A1.5,1.5,0,0,1,13.5,3.875Z"/></svg>