<svg xmlns="http://www.w3.org/2000/svg" viewBox="0 0 24 24"><title>scooter-2</title><path d="M11.1,14.4a2.91,2.91,0,0,1,1.8,0,.246.246,0,0,0,.224-.036.25.25,0,0,0,.1-.2V9.908a.25.25,0,0,0-.293-.247,5.263,5.263,0,0,1-1.862,0,.247.247,0,0,0-.2.055.25.25,0,0,0-.089.192v4.253a.249.249,0,0,0,.326.237Z"/><path d="M17.042,7.968a3.849,3.849,0,0,0-.42-.337.25.25,0,0,0-.339.048A5.508,5.508,0,0,1,14.366,9.2a.251.251,0,0,0-.142.226v5.739a.25.25,0,0,0,.059.161A2.971,2.971,0,0,1,15,17.254v4.3a.179.179,0,0,0,.179.179,3.266,3.266,0,0,0,3.319-3.2V11.353A4.611,4.611,0,0,0,17.042,7.968Z"/><path d="M9.634,9.2A5.517,5.517,0,0,1,7.717,7.679a.25.25,0,0,0-.339-.048,3.748,3.748,0,0,0-.414.333A4.6,4.6,0,0,0,5.5,11.353v7.181a3.266,3.266,0,0,0,3.319,3.2A.179.179,0,0,0,9,21.557v-4.3a2.971,2.971,0,0,1,.715-1.924.25.25,0,0,0,.059-.161V9.43A.251.251,0,0,0,9.634,9.2Z"/><path d="M20.245,0h-2a1.742,1.742,0,0,0-1.361.656.253.253,0,0,1-.2.094h-2.2a.25.25,0,0,1-.155-.041,4.206,4.206,0,0,0-4.674,0A.25.25,0,0,1,9.508.75H7.31A.253.253,0,0,1,7.115.656,1.742,1.742,0,0,0,5.754,0h-2a1.749,1.749,0,0,0,0,3.5h2A1.713,1.713,0,0,0,6.6,3.272a1.764,1.764,0,0,0,.521-.431.248.248,0,0,1,.194-.093h.381a.25.25,0,0,1,.239.322,4.088,4.088,0,0,0-.177,1.177,4.247,4.247,0,0,0,8.494,0A4.088,4.088,0,0,0,16.07,3.07a.25.25,0,0,1,.239-.322h.381a.248.248,0,0,1,.194.093,1.764,1.764,0,0,0,.521.431,1.713,1.713,0,0,0,.841.226h2a1.749,1.749,0,0,0,0-3.5ZM12,5.747a1.5,1.5,0,1,1,1.5-1.5A1.5,1.5,0,0,1,12,5.747Z"/><path d="M12,15.256a2,2,0,0,0-2,2V22a2,2,0,0,0,4,0V17.254A2,2,0,0,0,12,15.256Z"/></svg>