<svg xmlns="http://www.w3.org/2000/svg" viewBox="0 0 24 24"><title>sea-transport-ship</title><path d="M1.9,20.335a.246.246,0,0,0,.295.055,4,4,0,0,0,1.132-.913,2.5,2.5,0,0,1,1.913-.917A2.46,2.46,0,0,1,7.33,19.716h0a1.979,1.979,0,0,0,1.386.816,2.63,2.63,0,0,0,1.8-.985,2.537,2.537,0,0,1,1.967-.987,2.46,2.46,0,0,1,2.218,1.4,1.155,1.155,0,0,0,.964.574,1.744,1.744,0,0,0,1.375-.789,2.368,2.368,0,0,1,2.1-1.183,2.46,2.46,0,0,1,2.087,1.158h0a3.06,3.06,0,0,0,.594.587.244.244,0,0,0,.327-.04,6.59,6.59,0,0,0,1.607-3.717,1.229,1.229,0,0,0-1.223-1.337h-1.2a.245.245,0,0,1-.235-.175l-1.178-3.928a1.464,1.464,0,0,0-1.41-1.049H17.151a.245.245,0,0,1-.245-.245V6.869a.49.49,0,0,0-.491-.49H14.453a.49.49,0,0,0-.491.49V9.813a.245.245,0,0,1-.245.245H10.282a.245.245,0,0,1-.245-.245V6.869a.49.49,0,0,0-.491-.49H7.583a.49.49,0,0,0-.49.49V9.813a.246.246,0,0,1-.246.245H5.5a1.48,1.48,0,0,0-1.41,1.05L2.907,15.035a.245.245,0,0,1-.235.175h-1.2A1.228,1.228,0,0,0,.25,16.547,6.6,6.6,0,0,0,1.9,20.335ZM5,14.894l.81-2.7a.245.245,0,0,1,.235-.175H17.955a.245.245,0,0,1,.235.175l.81,2.7a.245.245,0,0,1-.235.316H5.233A.245.245,0,0,1,5,14.894Z"/><path d="M9.055,5.4a.981.981,0,0,0,.981-.981.983.983,0,0,1,.982-.981A2.457,2.457,0,0,0,13.471.981a.982.982,0,0,0-1.963,0,.491.491,0,0,1-.49.491A2.946,2.946,0,0,0,8.074,4.416.981.981,0,0,0,9.055,5.4Z"/><path d="M14.943,5.4a.981.981,0,0,0,.981-.981.983.983,0,0,1,.982-.981A2.457,2.457,0,0,0,19.359.981a.982.982,0,0,0-1.963,0,.491.491,0,0,1-.49.491,2.946,2.946,0,0,0-2.944,2.944A.981.981,0,0,0,14.943,5.4Z"/><path d="M23.767,22.822a.987.987,0,0,0-1.1-.843c-1.6.211-2.686-1.472-2.694-1.484a1.027,1.027,0,0,0-1.683.022A3.223,3.223,0,0,1,15.66,22a2.673,2.673,0,0,1-2.293-1.413,1.026,1.026,0,0,0-1.681-.157A4.117,4.117,0,0,1,8.716,22,3.4,3.4,0,0,1,6.081,20.5,1.023,1.023,0,0,0,4.475,20.4c-.014.018-1.493,1.835-3.139,1.615a.981.981,0,1,0-.26,1.945A3.978,3.978,0,0,0,1.615,24,5.486,5.486,0,0,0,5.03,22.6a.246.246,0,0,1,.322.007,4.99,4.99,0,0,0,3.364,1.356,5.577,5.577,0,0,0,3.489-1.3.247.247,0,0,1,.325.015,4.384,4.384,0,0,0,3.13,1.281,4.93,4.93,0,0,0,3.316-1.28.246.246,0,0,1,.327,0,4.468,4.468,0,0,0,3.621,1.237A.982.982,0,0,0,23.767,22.822Z"/></svg>