<svg xmlns="http://www.w3.org/2000/svg" viewBox="0 0 24 24"><title>sea-transport-sailing-boat</title><path d="M1.826,13.4a1.011,1.011,0,0,0,.365.069H9a1,1,0,0,0,0-2H3.984a.251.251,0,0,1-.192-.411l6.281-7.5a.25.25,0,0,1,.442.161V15.909a.25.25,0,0,1-.25.25l-8.638.005a.5.5,0,0,0-.486.614,11.813,11.813,0,0,0,1.126,2.894.245.245,0,0,0,.172.126.25.25,0,0,0,.206-.052,3.974,3.974,0,0,0,.521-.509A2.552,2.552,0,0,1,5.115,18.3,2.508,2.508,0,0,1,7.241,19.48h0a2.016,2.016,0,0,0,1.412.832,2.681,2.681,0,0,0,1.808-.975,2.5,2.5,0,0,1,4.286.39,1.179,1.179,0,0,0,.982.585,1.776,1.776,0,0,0,1.4-.8A2.414,2.414,0,0,1,19.269,18.3a2.507,2.507,0,0,1,2.126,1.18s.02.026.054.068a.255.255,0,0,0,.219.09.249.249,0,0,0,.2-.133,11.349,11.349,0,0,0,1.029-2.741.5.5,0,0,0-.487-.613l-9.641.005a.251.251,0,0,1-.25-.25V1.654A1.5,1.5,0,0,0,9.865.691l-8.64,10.32a1.5,1.5,0,0,0-.3,1.335A1.552,1.552,0,0,0,1.826,13.4Z"/><path d="M17.918,11.081a.251.251,0,0,1-.208.389H14.875a1,1,0,0,0,0,2h4.24a1.5,1.5,0,0,0,1.246-2.335L15.489,3.863a1,1,0,1,0-1.661,1.114Z"/><path d="M23.991,22.645a1,1,0,0,0-1.124-.858c-1.62.222-2.737-1.5-2.745-1.513a1.047,1.047,0,0,0-1.715.022,3.283,3.283,0,0,1-2.678,1.516,2.723,2.723,0,0,1-2.336-1.44,1.042,1.042,0,0,0-1.716-.156,4.2,4.2,0,0,1-3.024,1.6,3.462,3.462,0,0,1-2.685-1.539,1.043,1.043,0,0,0-1.636-.092c-.015.018-1.515,1.871-3.2,1.646A1,1,0,0,0,.868,23.81a4.284,4.284,0,0,0,.548.036A5.6,5.6,0,0,0,4.9,22.423a.249.249,0,0,1,.327.006,5.09,5.09,0,0,0,3.428,1.383,5.684,5.684,0,0,0,3.556-1.321.25.25,0,0,1,.331.015,4.472,4.472,0,0,0,3.189,1.306,5.029,5.029,0,0,0,3.38-1.3.25.25,0,0,1,.333,0,4.549,4.549,0,0,0,3.691,1.26A1,1,0,0,0,23.991,22.645Z"/></svg>