<svg xmlns="http://www.w3.org/2000/svg" viewBox="0 0 24 24"><title>sea-transport-buoy</title><path d="M22.92,21.612c-1.677.083-3.14-1.7-3.153-1.714a1,1,0,0,0-1.64.117,3.269,3.269,0,0,1-2.639,1.509,3.086,3.086,0,0,1-2.618-1.469,1,1,0,0,0-1.765,0,3.06,3.06,0,0,1-2.617,1.47,3.267,3.267,0,0,1-2.636-1.5,1,1,0,0,0-1.638-.13c-.015.018-1.45,1.762-3.143,1.7a1,1,0,1,0-.081,2,5.728,5.728,0,0,0,3.754-1.443.251.251,0,0,1,.328.009,4.992,4.992,0,0,0,3.416,1.366,4.929,4.929,0,0,0,3.334-1.259.249.249,0,0,1,.331,0,4.93,4.93,0,0,0,3.335,1.259,4.984,4.984,0,0,0,3.41-1.362.251.251,0,0,1,.328-.008,5.8,5.8,0,0,0,3.583,1.461c.069,0,.139,0,.209,0a1,1,0,0,0-.1-2Z"/><path d="M.965,17.611c.068,0,.134,0,.2,0a5.8,5.8,0,0,0,3.581-1.459.251.251,0,0,1,.328.009,5.5,5.5,0,0,0,1.48.982,1,1,0,1,0,.816-1.826,3.788,3.788,0,0,1-1.522-1.3,1,1,0,0,0-.787-.488.989.989,0,0,0-.851.368c-.014.018-1.486,1.807-3.15,1.717a1.019,1.019,0,0,0-1.047.951A1,1,0,0,0,.965,17.611Z"/><path d="M14.956,16.611a1,1,0,0,0,1,.966h.035a5.135,5.135,0,0,0,3.278-1.342.248.248,0,0,1,.334,0,4.7,4.7,0,0,0,3.441,1.333,1,1,0,0,0-.111-2A3.445,3.445,0,0,1,20.281,14a1.048,1.048,0,0,0-1.716.023,3.386,3.386,0,0,1-2.643,1.559A1,1,0,0,0,14.956,16.611Z"/><path d="M11.487,17.885a2.5,2.5,0,0,0,1.136-4.725.25.25,0,0,1-.136-.222v-2.3a.25.25,0,0,1,.25-.25h3.75a1,1,0,0,0,0-2h-3.75a.25.25,0,0,1-.25-.25v-.5a.25.25,0,0,1,.25-.25h3.75a1,1,0,0,0,0-2h-3.75a.25.25,0,0,1-.25-.25v-.5a.25.25,0,0,1,.25-.25h3.75a1,1,0,0,0,0-2h-3.75a.25.25,0,0,1-.25-.25v-.75a1,1,0,0,0-2,0V12.938a.25.25,0,0,1-.136.222,2.5,2.5,0,0,0,1.136,4.725Z"/></svg>