<svg xmlns="http://www.w3.org/2000/svg" viewBox="0 0 24 24"><title>sea-transport-submarine</title><path d="M23,13.749a1,1,0,0,0-1,1v1.5a.25.25,0,0,1-.25.25h-.3a.25.25,0,0,1-.248-.281,5.919,5.919,0,0,0,.048-.719,6.758,6.758,0,0,0-6.75-6.75H14a.25.25,0,0,1-.25-.25V6.749A1.252,1.252,0,0,0,12.5,5.5h-1.25a.25.25,0,0,1-.25-.25v-.5a3,3,0,0,0-3-3H6.5a1,1,0,0,0,0,2H8a1,1,0,0,1,1,1v.5a.25.25,0,0,1-.25.25H8.5a1.252,1.252,0,0,0-1.25,1.25V8.5a.25.25,0,0,1-.25.25H6.75a6.75,6.75,0,0,0,0,13.5H14.5a6.724,6.724,0,0,0,5.959-3.616.251.251,0,0,1,.222-.134h1.07a.25.25,0,0,1,.25.25V20a1,1,0,0,0,2,0v-5.25A1,1,0,0,0,23,13.749ZM5.5,17A1.5,1.5,0,1,1,7,15.5,1.5,1.5,0,0,1,5.5,17Zm5.25,0a1.5,1.5,0,1,1,1.5-1.5A1.5,1.5,0,0,1,10.749,17ZM16,17a1.5,1.5,0,1,1,1.5-1.5A1.5,1.5,0,0,1,16,17Z"/></svg>