<svg id="Bold" xmlns="http://www.w3.org/2000/svg" viewBox="0 0 24 24"><title>seafood-tuna</title><path d="M7.7,15.608a1,1,0,0,0,.576-.184l2.229-1.57a.25.25,0,0,0-.024-.424L7.715,11.92a.25.25,0,0,0-.361.153l-.616,2.27a.99.99,0,0,0,.39,1.082A1,1,0,0,0,7.7,15.608Z"/><path d="M10.536,3.312H14.57a.25.25,0,0,0,.156-.445L12.278.908a1,1,0,0,0-1.6.539L10.294,3A.249.249,0,0,0,10.536,3.312Z"/><path d="M22.857,18.312h-5a.5.5,0,0,0-.5.5V20.36a.5.5,0,0,0,.45.5l4.918.445a1,1,0,0,0,1.132-.991v-1A1,1,0,0,0,22.857,18.312Z"/><path d="M15.357,18.312H4.833a15.268,15.268,0,0,0-4.125.751.5.5,0,0,0-.2.831,11.715,11.715,0,0,0,8.27,3.418h6.583a.5.5,0,0,0,.5-.5v-4A.5.5,0,0,0,15.357,18.312Z"/><path d="M23.223,9.815a1,1,0,0,0-.365-.924l-1.131-.9a.25.25,0,0,1-.006-.385l1.786-1.531a1,1,0,0,0-.651-1.759H9.735A8.75,8.75,0,0,0,5.129,5.645a.239.239,0,0,1-.285-.008L1.754,3.258A1,1,0,0,0,.167,4.267L.838,7.286.27,8.991A1,1,0,0,0,1.676,10.2l2.647-1.36a.246.246,0,0,1,.279.038,4.2,4.2,0,0,0,.855.573l6.06,3.149a5.514,5.514,0,0,0,2.653.685,5.423,5.423,0,0,0,2.07-.41L22.614,10.6A.988.988,0,0,0,23.223,9.815Zm-5.116-2a1,1,0,1,1,1-1A1,1,0,0,1,18.107,7.812Z"/></svg>