<svg id="Bold" xmlns="http://www.w3.org/2000/svg" viewBox="0 0 24 24"><title>seafood-sushi</title><path d="M20.328,17.073a11.493,11.493,0,0,0-16.655,0,2.905,2.905,0,0,1-.383.339.5.5,0,0,0-.189.512C3.52,19.773,5.212,21,7.5,21h9c2.288,0,3.979-1.226,4.4-3.077a.5.5,0,0,0-.189-.512A3.04,3.04,0,0,1,20.328,17.073Z"/><path d="M12.383,11.779a.5.5,0,0,0,.4.244,13.012,13.012,0,0,1,2.883.5.5.5,0,0,0,.592-.267l2.98-6.327a.5.5,0,0,0-.156-.616A11.857,11.857,0,0,0,16.4,3.828a.5.5,0,0,0-.635.253l-3.405,7.23A.5.5,0,0,0,12.383,11.779Z"/><path d="M5.507,13.528a.248.248,0,0,0,.291.038,12.79,12.79,0,0,1,4.266-1.424.5.5,0,0,0,.379-.282l3.774-8.013a.5.5,0,0,0-.377-.707,12.177,12.177,0,0,0-3.352-.046.5.5,0,0,0-.391.283L5.452,13.24A.249.249,0,0,0,5.507,13.528Z"/><path d="M21.089,7.166a.5.5,0,0,0-.83.114l-2.578,5.471a.5.5,0,0,0,.225.658,13.06,13.06,0,0,1,3.508,2.628A1.5,1.5,0,0,0,24,15.008,11.87,11.87,0,0,0,21.089,7.166Z"/><path d="M8.057,3.822a.25.25,0,0,0-.272-.064A12,12,0,0,0,0,15.009a1.5,1.5,0,0,0,2.264,1.285.5.5,0,0,0,.2-.217C2.994,14.942,7.041,6.346,8.1,4.1A.251.251,0,0,0,8.057,3.822Z"/></svg>