<svg id="Bold" xmlns="http://www.w3.org/2000/svg" viewBox="0 0 24 24"><title>search-engine-google</title><path d="M23.7,14.29a.5.5,0,0,0-.45-.28H16.66a.5.5,0,0,0-.32.11l-2.44,2a.5.5,0,0,0,.32.89h4v3.55c0,.12,0,.22,0,.31v0a3.26,3.26,0,0,1-.38.15,12.47,12.47,0,0,1-4.11.29A9.88,9.88,0,0,1,5,13,9,9,0,0,1,9.55,3.15a7.39,7.39,0,0,1,5.67-.49,8.74,8.74,0,0,1,3.33,2L18,5.73a.5.5,0,0,0,0,.55.49.49,0,0,0,.53.17L20,6a.5.5,0,0,0,.22-.13l2.25-2.29a.5.5,0,0,0,.14-.38.5.5,0,0,0-.18-.36C18.57-.31,11.87-.94,7.17,1.43A12.38,12.38,0,0,0,.25,11.79,12,12,0,0,0,5.54,22a13.64,13.64,0,0,0,7.61,2A20.26,20.26,0,0,0,22,22a.5.5,0,0,0,.27-.45V16.62l1.41-1.81A.5.5,0,0,0,23.7,14.29Z"/></svg>