<svg id="Bold" xmlns="http://www.w3.org/2000/svg" viewBox="0 0 24 24"><title>seasoning-salt</title><path d="M17,4.5A4.505,4.505,0,0,0,12.5,0h-1A4.5,4.5,0,0,0,7,4.5V6A1.5,1.5,0,0,0,8.5,7.5h7A1.5,1.5,0,0,0,17,6Zm-6.5-.75A.75.75,0,1,1,11.25,3,.75.75,0,0,1,10.5,3.75Zm3,0A.75.75,0,1,1,14.25,3,.75.75,0,0,1,13.5,3.75Z"/><path d="M19.482,16.966a.5.5,0,0,0-.5-.466H5.017a.5.5,0,0,0-.5.466c-.012.178-.015,1.222-.009,1.544a.5.5,0,0,0,.5.49H18.991a.5.5,0,0,0,.5-.49C19.5,18.188,19.494,17.144,19.482,16.966Z"/><path d="M5.212,20.5a.5.5,0,0,0-.492.592C5.094,23.082,6.065,24,8.5,24h7c2.435,0,3.406-.918,3.78-2.908a.5.5,0,0,0-.492-.592Z"/><path d="M18.475,15a.5.5,0,0,0,.476-.653,21.454,21.454,0,0,0-2.575-5.125A.5.5,0,0,0,15.961,9H8.039a.5.5,0,0,0-.415.222,21.454,21.454,0,0,0-2.575,5.125A.5.5,0,0,0,5.525,15Z"/></svg>