<svg id="Bold" xmlns="http://www.w3.org/2000/svg" viewBox="0 0 24 24"><title>seasoning-pepper-ground</title><path d="M18,22a1.5,1.5,0,0,0-1.5-1.5h-9A1.5,1.5,0,0,0,6,22v1a1,1,0,0,0,1,1H17a1,1,0,0,0,1-1Z"/><path d="M8.5,19a.5.5,0,0,1-.5-.5v-.9a2.015,2.015,0,0,1,.115-.666c1.18-3.342,1.18-4.268,0-7.61A1.989,1.989,0,0,1,8,8.654V8a.5.5,0,0,1,.5-.5h7A.5.5,0,0,1,16,8v.654a1.989,1.989,0,0,1-.115.666c-1.18,3.342-1.18,4.268,0,7.61A2.015,2.015,0,0,1,16,17.6v.9a.5.5,0,0,1-.5.5Z"/><path d="M18,4.5A1.5,1.5,0,0,0,16.5,3H14.122a.251.251,0,0,1-.236-.333,2,2,0,1,0-3.772,0A.251.251,0,0,1,9.878,3H7.5a1.5,1.5,0,0,0,0,3h9A1.5,1.5,0,0,0,18,4.5Z"/></svg>