<svg id="Bold" xmlns="http://www.w3.org/2000/svg" viewBox="0 0 24 24"><title>seasoning-pepper</title><path d="M21,15H15a2.151,2.151,0,0,0-2,2v6a1,1,0,0,0,1,1h8a1,1,0,0,0,1-1V17A2.151,2.151,0,0,0,21,15Z"/><path d="M15.5,13.5h5A.5.5,0,0,0,21,13V9.9a.5.5,0,0,1,.315-.464A1.09,1.09,0,0,0,22,8.5V8a.5.5,0,0,0-.5-.5h-7A.5.5,0,0,0,14,8v.5a1,1,0,0,0,.667.943A.5.5,0,0,1,15,9.915V13A.5.5,0,0,0,15.5,13.5Z"/><path d="M5.5,13C.835,13,.112,20.214,0,22.425A1.5,1.5,0,0,0,1.505,24H9.494A1.5,1.5,0,0,0,11,22.426h0C10.888,20.214,10.165,13,5.5,13ZM4.25,17A.75.75,0,1,1,5,16.25.75.75,0,0,1,4.25,17Zm2.5,0a.75.75,0,1,1,.75-.75A.75.75,0,0,1,6.75,17Z"/><path d="M22.5,3h-3a.5.5,0,0,1-.5-.5.626.626,0,0,1,.385-.577A1,1,0,0,0,19,0H17a1,1,0,0,0-.385,1.923A.627.627,0,0,1,17,2.5a.5.5,0,0,1-.5.5h-3a1.5,1.5,0,0,0,0,3h9a1.5,1.5,0,0,0,0-3Z"/></svg>