<svg id="Bold" xmlns="http://www.w3.org/2000/svg" viewBox="0 0 24 24"><title>seasoning-chilli</title><path d="M18.922,9.614a.5.5,0,0,0,.654,0A5.205,5.205,0,0,1,22.31,8.277a.5.5,0,0,0,.44-.5V7.25a3.5,3.5,0,0,0-2.013-3.168.5.5,0,0,1-.258-.286.5.5,0,0,1,.022-.384A2.5,2.5,0,0,1,22.75,2a1,1,0,0,0,0-2,4.508,4.508,0,0,0-4.36,3.386,1,1,0,0,1-.561.666,3.5,3.5,0,0,0-2.079,3.2v.531a.5.5,0,0,0,.439.5A5.323,5.323,0,0,1,18.922,9.614Z"/><path d="M19.817,11.492a.75.75,0,0,1-1.132,0,5.3,5.3,0,0,0-2.3-1.649.5.5,0,0,0-.637.481v1.13a6.912,6.912,0,0,1-4.407,6.47c-3.091,1.216-6.5.157-9.343-2.9A1.01,1.01,0,0,0,.292,16a11.274,11.274,0,0,0,10.741,8c6.351,0,11.717-5.133,11.717-11.208V10.324a.5.5,0,0,0-.636-.482A5.306,5.306,0,0,0,19.817,11.492Z"/></svg>