<svg xmlns="http://www.w3.org/2000/svg" viewBox="0 0 24 24"><title>seat-vip</title><circle cx="5.501" cy="4.535" r="2.5"/><path d="M15.853,18.4A4.521,4.521,0,0,0,11.4,14.533H9.843A1.5,1.5,0,0,1,8.387,13.4L7.456,9.671a1.5,1.5,0,1,0-2.91.726l.931,3.728a4.493,4.493,0,0,0,4.366,3.408H11.4a1.507,1.507,0,0,1,1.484,1.288l.631,3.888a1.5,1.5,0,0,0,2.971-.424Z"/><path d="M10.639,20.884a1,1,0,0,0-.948-.86A6.962,6.962,0,0,1,3.04,14.732c-.459-1.824-.647-2.6-.864-3.476a1,1,0,0,0-.97-.757H.5A.5.5,0,0,0,0,11V23a1,1,0,0,0,1,1h9a1,1,0,0,0,.991-1.143C10.969,22.711,10.766,21.8,10.639,20.884Z"/><path d="M17.749,1.5a.75.75,0,0,0,0-1.5h-2a.75.75,0,0,0,0,1.5H16V6h-.25a.75.75,0,0,0,0,1.5h2a.75.75,0,0,0,0-1.5H17.5V1.5Z"/><path d="M21.749,0h-1.5a.75.75,0,0,0-.75.75v6a.75.75,0,0,0,1.5,0V4.5h.75a2.25,2.25,0,1,0,0-4.5Zm0,3H21V1.5h.75a.75.75,0,0,1,0,1.5Z"/><path d="M11.75,7.5a.75.75,0,0,0,.6-.3A8.3,8.3,0,0,0,14,2.25V.75a.75.75,0,0,0-1.5,0v1.5a6.8,6.8,0,0,1-.75,3.089A6.8,6.8,0,0,1,11,2.25V.75a.75.75,0,0,0-1.5,0v1.5A8.3,8.3,0,0,0,11.15,7.2.75.75,0,0,0,11.75,7.5Z"/></svg>