<svg xmlns="http://www.w3.org/2000/svg" viewBox="0 0 24 24"><title>seat-child</title><circle cx="8.5" cy="3" r="2.5"/><circle cx="14.5" cy="5" r="2"/><path d="M17.659,17.684A3.483,3.483,0,0,0,14.174,14.5H11.751a.506.506,0,0,1-.5-.452l-.769-5.265a1.5,1.5,0,0,0-2.968.434l.766,5.247A3.512,3.512,0,0,0,11.751,17.5h2.423a.493.493,0,0,1,.5.44l.335,4.18A1.5,1.5,0,1,0,18,21.88Z"/><path d="M19.857,14.486l-.917-1.531A3.02,3.02,0,0,0,16.367,11.5H15.084a.249.249,0,0,1-.247-.215l-.143-1A.25.25,0,0,1,14.942,10H17a1,1,0,0,0,0-2H14.653a2,2,0,0,0-1.98,2.283l.214,1.5a2.009,2.009,0,0,0,1.98,1.717h1.5a1.009,1.009,0,0,1,.859.486l.917,1.529a1,1,0,1,0,1.714-1.029Z"/><path d="M12.5,18.75H8.584a1,1,0,0,1-.974-.77L5.974,11.022a1,1,0,0,0-1.948.457l1.637,6.959A2.991,2.991,0,0,0,8.584,20.75H12.5a1,1,0,0,0,0-2Z"/></svg>