<svg xmlns="http://www.w3.org/2000/svg" viewBox="0 0 24 24"><title>seat-find</title><circle cx="6.023" cy="2.497" r="2.497"/><path d="M15.43,2.668a.5.5,0,0,0-.545-.108.5.5,0,0,0-.308.461V4.27a.25.25,0,0,1-.25.25H11.955a1,1,0,0,0,0,2h2.372a.25.25,0,0,1,.25.25V8.016a.5.5,0,0,0,.308.462.513.513,0,0,0,.192.038.5.5,0,0,0,.353-.147l2.5-2.5a.5.5,0,0,0,0-.706Z"/><path d="M19.259,15.968H16.013a1,1,0,0,0-1,1v1a1,1,0,0,0,1,1h4.595a2.5,2.5,0,0,0,2.484-2.236l.859-8.165a3.488,3.488,0,0,0-.16-1.473L22.745,3.954a1,1,0,0,0-1.263-.631l-.947.315A1,1,0,0,0,19.9,4.9l1.045,3.137.023.21-.718,6.824A1,1,0,0,1,19.259,15.968Z"/><rect x="14.515" y="20.004" width="8.991" height="3.996" rx="1.498" ry="1.498"/><path d="M.029,11.868v1.393a1.5,1.5,0,0,0,3,0V11.868a1.5,1.5,0,0,1,.668-1.247l.443-.295a.248.248,0,0,1,.256-.013.251.251,0,0,1,.132.22v4.139a.244.244,0,0,1-.018.093l-2.872,7.18a1.5,1.5,0,0,0,2.783,1.113l1.5-3.743a.25.25,0,0,1,.458-.013l1.789,3.834a1.5,1.5,0,1,0,2.716-1.269L7.545,14.726a.255.255,0,0,1-.023-.105V10.957a.25.25,0,0,1,.408-.194l2.639,2.159a1.5,1.5,0,1,0,1.9-2.32L8.689,7.511a4.477,4.477,0,0,0-5.342-.262l-1.316.878A4.491,4.491,0,0,0,.029,11.868Z"/></svg>