<svg xmlns="http://www.w3.org/2000/svg" viewBox="0 0 24 24"><title>security-officer-gate</title><path d="M10.479,10.921a2.456,2.456,0,0,0,4.911.007l.022-.727a.251.251,0,0,0-.25-.258H10.729a.249.249,0,0,0-.25.25Z"/><path d="M8.566,8.476a.5.5,0,0,0,.5.5c1.566,0,4.7-.011,6.262-.011a.5.5,0,0,0,.441-.33l.322-.966a.991.991,0,0,0-.7-1.273L10.47,5.166h0a.745.745,0,0,0-.887.958l.508,1.523a.25.25,0,0,1-.035.225.247.247,0,0,1-.2.1H9.066a.481.481,0,0,0-.161.033A.5.5,0,0,0,8.566,8.476Z"/><path d="M23.439,5.478,12.439.1a1.009,1.009,0,0,0-.878,0l-11,5.377a1,1,0,0,0-.561.9V23a1,1,0,0,0,1,1H23a1,1,0,0,0,1-1V6.377A1,1,0,0,0,23.439,5.478ZM16.889,21.75a.25.25,0,0,1-.25.25h-.478a.25.25,0,0,1-.25-.25V18.355a.489.489,0,0,1,.978,0ZM22,21.5a.5.5,0,0,1-.5.5H19.583a.249.249,0,0,1-.25-.25V18.6a3.911,3.911,0,0,0-3.911-3.911H14.288a.5.5,0,0,0-.464.315L13.2,16.566a.257.257,0,0,1-.225.156.246.246,0,0,1-.225-.156l-.636-1.575a.476.476,0,0,0-.449-.3H9.844L7.152,13.343a.735.735,0,0,1-.192-1.176l1.5-1.5A1.222,1.222,0,1,0,6.736,8.935l-1.5,1.5a3.178,3.178,0,0,0,.826,5.09l3.986,1.992V21.75a.249.249,0,0,1-.25.25H2.5a.5.5,0,0,1-.5-.5V7.313a.5.5,0,0,1,.28-.449l9.5-4.644a.507.507,0,0,1,.44,0l9.5,4.644a.5.5,0,0,1,.28.449Z"/></svg>