<svg xmlns="http://www.w3.org/2000/svg" viewBox="0 0 24 24"><title>segway-1</title><path d="M22,13.625a2,2,0,0,0-2,2v6a2,2,0,0,0,4,0v-6A2,2,0,0,0,22,13.625Z"/><path d="M2,13.625a2,2,0,0,0-2,2v6a2,2,0,0,0,4,0v-6A2,2,0,0,0,2,13.625Z"/><path d="M22,2.375a1,1,0,0,0-1-1H18.25a.25.25,0,0,0-.25.25v1.5a.25.25,0,0,0,.25.25H21A1,1,0,0,0,22,2.375Z"/><path d="M5.75,1.375H3a1,1,0,0,0,0,2H5.75A.25.25,0,0,0,6,3.125v-1.5A.25.25,0,0,0,5.75,1.375Z"/><path d="M16.728,13.073a1.8,1.8,0,0,0-1.765-1.448H14.75a.25.25,0,0,0-.25.25v4.25a.75.75,0,0,1-1.5,0v-11a.25.25,0,0,1,.25-.25H16a1,1,0,0,0,1-1v-2.5a1,1,0,0,0-1-1H8a1,1,0,0,0-1,1v2.5a1,1,0,0,0,1,1h2.75a.25.25,0,0,1,.25.25v11a.75.75,0,0,1-1.5,0v-4.25a.25.25,0,0,0-.25-.25H8.915A1.8,1.8,0,0,0,7.15,13.073l-1.08,5.4a1.8,1.8,0,0,0,1.765,2.152h8.209a1.8,1.8,0,0,0,1.765-2.152Z"/></svg>