<svg xmlns="http://www.w3.org/2000/svg" viewBox="0 0 24 24"><title>segway-person</title><circle cx="17.25" cy="2.5" r="2.5"/><path d="M17.262,5.872l-.99-.146A2,2,0,0,0,14,7.41l-1.24,8.37a.25.25,0,0,0,.29.283,4.129,4.129,0,0,1,.7-.063,4.429,4.429,0,0,1,2.47.76.249.249,0,0,0,.214.031.253.253,0,0,0,.158-.147l.46-1.174a31.277,31.277,0,0,0,1.822-6.834l.073-.492A2,2,0,0,0,17.262,5.872Z"/><path d="M13.75,17a3.5,3.5,0,1,0,3.5,3.5A3.5,3.5,0,0,0,13.75,17Zm0,5a1.5,1.5,0,1,1,1.5-1.5A1.5,1.5,0,0,1,13.75,22Z"/><path d="M6.25,6.75h5.564a1,1,0,0,0,0-2H6.25a1,1,0,0,0,0,2Z"/><path d="M12.314,9.25a1,1,0,0,0-1-1H5.25a1,1,0,0,0,0,2h6.064A1,1,0,0,0,12.314,9.25Z"/><path d="M11.814,12.75a1,1,0,0,0-1-1H7.75a1,1,0,0,0,0,2h3.064A1,1,0,0,0,11.814,12.75Z"/></svg>