<svg xmlns="http://www.w3.org/2000/svg" viewBox="0 0 24 24"><title>seo-search-eye</title><path d="M11.875,8.527A5.057,5.057,0,0,0,7.22,11.651a.252.252,0,0,0,0,.2,5.033,5.033,0,0,0,9.312,0,.247.247,0,0,0,0-.2A5.019,5.019,0,0,0,11.875,8.527Zm0,5.223a2,2,0,1,1,2-2A2,2,0,0,1,11.875,13.75Z"/><path d="M22.375,24a1.5,1.5,0,0,0,1.061-2.561l-4.362-4.361a.25.25,0,0,1-.028-.32,8.746,8.746,0,1,0-2.453,2.359.25.25,0,0,1,.311.033l4.41,4.411A1.5,1.5,0,0,0,22.375,24ZM18.09,11.976a6.543,6.543,0,0,1-12.43,0,.745.745,0,0,1,0-.453,6.543,6.543,0,0,1,12.43,0A.739.739,0,0,1,18.09,11.976Z"/><path d="M1.445,22.18a.746.746,0,0,0,.737.191l3.01-.86a.248.248,0,0,1,.207.032,11.733,11.733,0,0,0,11.335.909.75.75,0,0,0-.621-1.366A10.23,10.23,0,0,1,5.881,20.052a.75.75,0,0,0-.646-.114l-1.735.5a.252.252,0,0,1-.245-.064.249.249,0,0,1-.064-.246l.5-1.734a.751.751,0,0,0-.114-.646,10.246,10.246,0,1,1,18.552-6,10.158,10.158,0,0,1-1.033,4.492.75.75,0,1,0,1.347.658,11.616,11.616,0,0,0,1.186-5.15A11.75,11.75,0,1,0,2.082,18.227a.248.248,0,0,1,.033.207l-.86,3.01A.75.75,0,0,0,1.445,22.18Z"/></svg>