<svg xmlns="http://www.w3.org/2000/svg" viewBox="0 0 24 24"><title>seo-search-laptop</title><path d="M18.368,18.66A2.05,2.05,0,0,0,16.994,18H4.744a.25.25,0,0,1-.25-.25v-8a.25.25,0,0,1,.25-.25h6.262a1,1,0,0,0,0-2H4.494a2,2,0,0,0-2,2v9a.427.427,0,0,0,.009.081.251.251,0,0,1-.09.244L.38,20.451a1,1,0,0,0-.368.891A1.775,1.775,0,0,0,1.994,23h17a1.774,1.774,0,0,0,1.982-1.656.977.977,0,0,0-.369-.894A23.949,23.949,0,0,1,18.368,18.66Zm-5.874,2.59h-4a.75.75,0,0,1,0-1.5h4a.75.75,0,0,1,0,1.5Z"/><path d="M21.593,13.686a.252.252,0,0,1-.027-.322,4.924,4.924,0,0,0,.928-2.864,5,5,0,1,0-5,5,4.9,4.9,0,0,0,2.269-.57.249.249,0,0,1,.292.045l2.232,2.233A1,1,0,1,0,23.7,15.793Zm-4.1-.186a3,3,0,1,1,3-3A3,3,0,0,1,17.494,13.5Z"/><path d="M16.494,2V4a1,1,0,0,0,2,0V2a1,1,0,0,0-2,0Z"/><path d="M12.287,2.793a1,1,0,0,0,0,1.415l1,1A1,1,0,0,0,14.7,3.793l-1-1A1,1,0,0,0,12.287,2.793Z"/><path d="M21.287,2.793l-1,1A1,1,0,0,0,21.7,5.208l1-1a1,1,0,0,0-1.414-1.415Z"/></svg>