<svg xmlns="http://www.w3.org/2000/svg" viewBox="0 0 24 24"><title>seo-label</title><path d="M16.235,13.409a.748.748,0,0,0-.531.219L13.583,15.75a.748.748,0,0,0,0,1.06.767.767,0,0,0,1.059,0h0l2.122-2.121a.749.749,0,0,0-.53-1.28Z"/><path d="M9.845.647A1.511,1.511,0,0,0,8.785.208H1.708a1.5,1.5,0,0,0-1.5,1.5L.214,8.788a1.493,1.493,0,0,0,.44,1.06L14.161,23.354a1.5,1.5,0,0,0,2.121,0l7.071-7.07a1.5,1.5,0,0,0,0-2.121Zm-4.016,9.6a2.046,2.046,0,0,1-1.452-.6l-1.2-1.2A.75.75,0,0,1,4.238,7.38l1.2,1.2a.553.553,0,0,0,.933-.5L5.937,5.913A2.054,2.054,0,0,1,9.4,4.058l1.2,1.2a.75.75,0,0,1-1.06,1.06l-1.2-1.2a.553.553,0,0,0-.933.5l.433,2.168a2.051,2.051,0,0,1-2.012,2.455Zm5.5,1.8a.746.746,0,0,1-.531-.22l-.707-.707a.25.25,0,0,0-.353,0l-.707.707a.249.249,0,0,0-.073.177.244.244,0,0,0,.073.176l1.414,1.415a.75.75,0,1,1-1.061,1.061L7.968,13.231a1.75,1.75,0,0,1,0-2.474L10.8,7.928a1.755,1.755,0,0,1,2.475,0l1.414,1.415a.75.75,0,1,1-1.06,1.06L12.21,8.989a.25.25,0,0,0-.353,0L11.15,9.7a.25.25,0,0,0,0,.354l.707.707a.75.75,0,0,1-.53,1.28Zm6.5,3.712L15.7,17.871a2.25,2.25,0,0,1-3.182-3.183l2.121-2.121a2.251,2.251,0,0,1,3.184,3.182Z"/></svg>