<svg xmlns="http://www.w3.org/2000/svg" viewBox="0 0 24 24"><title>seo-search-settings</title><path d="M19.345,16.517a.251.251,0,0,1-.033-.313A10.508,10.508,0,1,0,16.2,19.312a.25.25,0,0,1,.313.034l4.069,4.068a2,2,0,1,0,2.828-2.828ZM10.5,19A8.5,8.5,0,1,1,19,10.5,8.509,8.509,0,0,1,10.5,19Z"/><path d="M15.167,9.017A1.109,1.109,0,0,0,14.112,7.18l-1.219.283a.822.822,0,0,1-.972-.564l-.366-1.2a1.1,1.1,0,0,0-2.11,0L9.079,6.9a.821.821,0,0,1-.971.564L6.889,7.18A1.109,1.109,0,0,0,5.834,9.017l.853.92a.83.83,0,0,1,0,1.127l-.853.92a1.109,1.109,0,0,0,1.055,1.837l1.219-.283a.821.821,0,0,1,.971.564l.366,1.2a1.1,1.1,0,0,0,2.11,0l.366-1.2a.822.822,0,0,1,.972-.564l1.219.283a1.109,1.109,0,0,0,1.055-1.837l-.853-.92a.828.828,0,0,1,0-1.127ZM10.5,11.742A1.242,1.242,0,1,1,11.742,10.5,1.241,1.241,0,0,1,10.5,11.742Z"/></svg>