<svg xmlns="http://www.w3.org/2000/svg" viewBox="0 0 24 24"><title>seo-search-star</title><path d="M1.514,15.658l-.706.707a.5.5,0,0,0,.353.853H3.989a.5.5,0,0,0,.5-.5V13.89a.5.5,0,0,0-.853-.354l-.3.3a.251.251,0,0,1-.4-.059A7.921,7.921,0,0,1,2,10a8.009,8.009,0,0,1,8-8,7.928,7.928,0,0,1,3.517.812,1,1,0,0,0,.879-1.8A9.907,9.907,0,0,0,10,0,10.011,10.011,0,0,0,0,10a9.9,9.9,0,0,0,1.548,5.347A.25.25,0,0,1,1.514,15.658Z"/><path d="M14.927,9.07A.613.613,0,0,0,14.5,8h-2.34a.247.247,0,0,1-.224-.141l-1.214-2.5a.662.662,0,0,0-1.177,0L8.325,7.86A.25.25,0,0,1,8.1,8H5.761a.612.612,0,0,0-.428,1.07l2.051,2.142a.252.252,0,0,1,.048.273L6.3,14.094a.654.654,0,0,0,.931.818l2.778-1.565a.249.249,0,0,1,.245,0l2.778,1.565a.654.654,0,0,0,.931-.818l-1.134-2.609a.251.251,0,0,1,.049-.273Z"/><path d="M23.411,20.583l-3.8-3.8a1,1,0,0,0-1.259-.127.25.25,0,0,1-.314-.032l-.141-.141a.249.249,0,0,1-.02-.33,9.988,9.988,0,0,0,.574-11.5.251.251,0,0,1,.035-.311l.706-.706a.5.5,0,0,0-.353-.854H16.011a.5.5,0,0,0-.5.5V6.111a.5.5,0,0,0,.308.462.5.5,0,0,0,.545-.108l.295-.295a.249.249,0,0,1,.214-.07.246.246,0,0,1,.183.129A8,8,0,0,1,6.424,17.159a1,1,0,1,0-.9,1.788,10,10,0,0,0,10.625-1.069.25.25,0,0,1,.331.02l.14.14a.25.25,0,0,1,.032.315,1,1,0,0,0,.13,1.261l3.8,3.8a2,2,0,0,0,2.828-2.829Z"/></svg>