<svg xmlns="http://www.w3.org/2000/svg" viewBox="0 0 24 24"><title>shape-cube-alternate</title><rect x="8.75" y="8.75" width="6.5" height="6.5" rx="0.25" ry="0.25"/><path d="M7,7.25A.25.25,0,0,0,7.25,7V2.293a.25.25,0,0,0-.427-.177L2.116,6.823a.25.25,0,0,0,.177.427Z"/><path d="M17,16.75a.25.25,0,0,0-.25.25v4.707a.25.25,0,0,0,.427.177l4.707-4.707a.25.25,0,0,0-.177-.427Z"/><path d="M7.177,15.763a.251.251,0,0,0,.073-.177V9A.25.25,0,0,0,7,8.75H1.5A.25.25,0,0,0,1.25,9V21.086a.25.25,0,0,0,.427.177Z"/><path d="M15.25,17a.25.25,0,0,0-.25-.25H8.414a.251.251,0,0,0-.177.073l-5.5,5.5a.25.25,0,0,0,.176.427H15a.25.25,0,0,0,.25-.25Z"/><path d="M16.823,8.237a.251.251,0,0,0-.073.177V15a.25.25,0,0,0,.25.25h5.5a.25.25,0,0,0,.25-.25V2.914a.25.25,0,0,0-.427-.177Z"/><path d="M8.75,7A.25.25,0,0,0,9,7.25h6.586a.251.251,0,0,0,.177-.073l5.5-5.5a.25.25,0,0,0-.177-.427H9a.25.25,0,0,0-.25.25Z"/></svg>