<svg xmlns="http://www.w3.org/2000/svg" viewBox="0 0 24 24"><title>share-location-hand</title><path d="M16.714,16.5a1.058,1.058,0,0,0,.8-.369c.213-.251,5.234-6.177,5.234-10.1a6.036,6.036,0,1,0-12.071,0c0,3.921,5.02,9.844,5.234,10.094A1.053,1.053,0,0,0,16.714,16.5ZM14.5,6.036A2.215,2.215,0,1,1,16.714,8.25,2.215,2.215,0,0,1,14.5,6.036Z"/><path d="M16.75,19.5H7.625a.625.625,0,0,1,0-1.25H10.15a1,1,0,0,0,.92-1.394A2.235,2.235,0,0,0,9.014,15.5H4.75a.5.5,0,0,0-.5.5v6.5a.5.5,0,0,0,.5.5H15.514a2.238,2.238,0,0,0,2.236-2.236V20.5A1,1,0,0,0,16.75,19.5Z"/><path d="M2.25,14.75a1,1,0,0,0-1,1V23a1,1,0,0,0,2,0V15.75A1,1,0,0,0,2.25,14.75Z"/></svg>