<svg id="Bold" xmlns="http://www.w3.org/2000/svg" viewBox="0 0 24 24"><title>shark-hammer</title><path d="M21.115,19.292a8.638,8.638,0,0,0,.375-4.452.5.5,0,0,0-.648-.377,5.863,5.863,0,0,0-2.758,2.2,8.91,8.91,0,0,0-.981,1.886c-.583.179-2.225.561-3.249-.462-.841-.841-.74-1.876-.555-3.755.042-.431.086-.887.123-1.38A34.425,34.425,0,0,1,17,13.438a.5.5,0,0,0,.447-.724,9.759,9.759,0,0,0-4.1-4.174,13.5,13.5,0,0,0-.775-3.125.455.455,0,0,1,.077-.459.53.53,0,0,1,.5-.185,20.947,20.947,0,0,1,2.7.641.51.51,0,0,0,.45-.069.5.5,0,0,0,.207-.405V1.188A.5.5,0,0,0,16.089.7l-2-.36-.021,0A34.056,34.056,0,0,0,9.5.063,34.074,34.074,0,0,0,4.911.335l-2,.36a.5.5,0,0,0-.411.493v3.75a.5.5,0,0,0,.207.405.509.509,0,0,0,.45.069,20.993,20.993,0,0,1,2.7-.641.514.514,0,0,1,.5.185.455.455,0,0,1,.077.459A13.47,13.47,0,0,0,5.657,8.54a9.753,9.753,0,0,0-4.1,4.174A.5.5,0,0,0,2,13.438a35.807,35.807,0,0,1,3.586-.489c.4,4.913,2.323,8.091,5.728,9.452,2.269.91,5.556-.055,6.563-.391a9.152,9.152,0,0,0,1.9,1.375A5.474,5.474,0,0,0,22,23.938a.5.5,0,0,0,.5-.5C22.5,23.313,22.483,20.588,21.115,19.292ZM8.75,8.938a.75.75,0,0,1,1.5,0v3.5a.75.75,0,1,1-1.5,0Z"/></svg>