<svg id="Bold" xmlns="http://www.w3.org/2000/svg" viewBox="0 0 24 24"><title>shark-1</title><path d="M17.66,8.131A1.5,1.5,0,0,1,16.526,7a5.512,5.512,0,0,0-3.212-3.852,1,1,0,0,0-1.372,1.119,5.324,5.324,0,0,1-.256,2.717,4.485,4.485,0,0,1-2.152,2.35A20.259,20.259,0,0,0,5.609,11.3C4.88,9.3,3.673,6.947,1.443,6.72a.986.986,0,0,0-.969.5,1,1,0,0,0,.061,1.09,8.669,8.669,0,0,1,0,8.8,1,1,0,0,0,.909,1.585c1.835-.186,3.234-1.5,4.165-3.9a23.868,23.868,0,0,0,7.157,2.165l.849.166a8.18,8.18,0,0,1-.13,2.561,1,1,0,0,0,1.367,1.167A5.5,5.5,0,0,0,17.979,17.2c3.36-.835,5.68-2.661,5.68-4.5C23.659,10.81,21.192,8.929,17.66,8.131ZM15.106,12.28l-1,2a.5.5,0,0,1-.895-.447l1-2a.5.5,0,1,1,.895.447Zm2.5,0-1,2a.5.5,0,0,1-.9-.447l1-2a.5.5,0,1,1,.9.447Zm2.553,1.276a1,1,0,1,1,1-1A1,1,0,0,1,20.159,13.556Z"/></svg>