<svg id="Bold" xmlns="http://www.w3.org/2000/svg" viewBox="0 0 24 24"><title>shell-1</title><path d="M8.1,1.062A.249.249,0,0,0,7.936.623H5a1.5,1.5,0,0,0-1.5,1.5V5.6a.25.25,0,0,0,.429.174c1.223-1.257,2.339-2.594,3.39-3.9A6.145,6.145,0,0,1,8.1,1.062Z"/><path d="M16.681,1.869a50.344,50.344,0,0,0,3.894,4.41A.25.25,0,0,0,21,6.1V2.123a1.5,1.5,0,0,0-1.5-1.5H16.064a.25.25,0,0,0-.163.439A6.081,6.081,0,0,1,16.681,1.869Z"/><path d="M23.32,10.527l-1.1-.83h0a38.974,38.974,0,0,1-6.711-6.89,4.5,4.5,0,0,0-7.022,0A38.935,38.935,0,0,1,1.778,9.7l-1.109.839A1.837,1.837,0,0,0,.034,12.12a10.914,10.914,0,0,0,.571,2.642.249.249,0,0,0,.421.086L4.7,10.785a.5.5,0,0,1,.77.63L1.605,16.659a.251.251,0,0,0-.016.272A13.86,13.86,0,0,0,4.36,20.378a.252.252,0,0,0,.223.057.249.249,0,0,0,.175-.148L7.873,12.77a.5.5,0,0,1,.937.334L6.257,21.573a.249.249,0,0,0,.111.286,11.149,11.149,0,0,0,4.4,1.517.25.25,0,0,0,.191-.058.248.248,0,0,0,.088-.179l.478-9.565a.5.5,0,0,1,1,0L13,23.134a.249.249,0,0,0,.28.236,11.165,11.165,0,0,0,4.392-1.533.25.25,0,0,0,.11-.287L15.234,13.1a.5.5,0,0,1,.937-.334l3.1,7.489a.249.249,0,0,0,.4.089A13.826,13.826,0,0,0,22.43,16.9a.249.249,0,0,0-.016-.271l-3.844-5.21a.5.5,0,0,1,.77-.63l3.646,4.028a.249.249,0,0,0,.421-.087,10.892,10.892,0,0,0,.559-2.606A1.84,1.84,0,0,0,23.32,10.527Z"/></svg>