<svg id="Bold" xmlns="http://www.w3.org/2000/svg" viewBox="0 0 24 24"><title>shellfish-lobster</title><path d="M7.258,3.393A.5.5,0,0,0,7.465,2.8,4.278,4.278,0,0,0,5.943.788,3.765,3.765,0,0,0,1.882.467L3.857,2.418a1.46,1.46,0,0,1,.491.749.754.754,0,0,1-.881.808,1.446,1.446,0,0,1-.636-.44L.776,1.47A4.445,4.445,0,0,0,.34,5.128a4.451,4.451,0,0,0,2.084,2.5.5.5,0,0,0,.657-.164A13.665,13.665,0,0,1,7.258,3.393Z"/><path d="M20.9,3.779a.75.75,0,0,1-1.061-1.06L22.1.463c-.041-.024-.082-.047-.124-.069a3.959,3.959,0,0,0-5.239,1.921,4.786,4.786,0,0,0-.217.474.5.5,0,0,0,.208.609,13.35,13.35,0,0,1,4.185,4.071.5.5,0,0,0,.656.163A4.415,4.415,0,0,0,23.349,5.8,4.2,4.2,0,0,0,23.2,1.484Z"/><path d="M13.9,16.2a3.879,3.879,0,0,0-2.251-.61c-.9.139-1.6.883-2.494.956.079.739.188,1.568.337,2.39a6.833,6.833,0,0,1,2.5-.545,6.817,6.817,0,0,1,2.5.545c.15-.824.259-1.655.338-2.394C14.821,16.628,14.267,16.379,13.9,16.2Z"/><path d="M11.994,19.9a6.5,6.5,0,0,0-2.933.921c-.6.683-1.225,1.539-1.167,2.107a.729.729,0,0,0,.322.545A3.055,3.055,0,0,0,9.935,24a3.611,3.611,0,0,0,1.76-.484,1.107,1.107,0,0,0,.6,0,3.615,3.615,0,0,0,1.76.484,3.053,3.053,0,0,0,1.719-.531.728.728,0,0,0,.323-.545c.057-.568-.564-1.423-1.168-2.107A6.5,6.5,0,0,0,11.994,19.9Z"/><path d="M16.828,10.381a1.175,1.175,0,0,1-1.018,0,8.714,8.714,0,0,0-.51-1.6,2.509,2.509,0,0,1-.391.332,7.614,7.614,0,0,0-.71-1.352c.075-.074.743-1.368.743-1.368,1.437.857,4.368,3.254,5.059,8.783a1,1,0,0,0,1.985-.248c-1.064-8.508-6.9-10.724-7.151-10.814a1,1,0,0,0-1.236.492l-.8,1.639a1.6,1.6,0,0,0-.807-.188,1.558,1.558,0,0,0-.761.237l-.844-1.688a1,1,0,0,0-1.236-.492C8.9,4.205,3.065,6.421,2,14.929a1,1,0,0,0,1.985.248c.691-5.532,3.625-7.928,5.059-8.784,0,0,.667,1.294.742,1.368a7.624,7.624,0,0,0-.71,1.353,2.478,2.478,0,0,1-.391-.333,8.746,8.746,0,0,0-.511,1.6,1.169,1.169,0,0,1-1.024,0,10.255,10.255,0,0,0-.7,1.331,2.368,2.368,0,0,0,1.546.257c0,.032,0,1.778,0,1.778-.516-.057-.478-.437-1-.437a.75.75,0,0,0-.53,1.28,2.259,2.259,0,0,0,1.8.653.978.978,0,0,0,.25.2,1,1,0,0,0,.483.124c.774,0,1.426-1,3-1a4.879,4.879,0,0,1,2.325.763,1.4,1.4,0,0,0,.675.237,1.006,1.006,0,0,0,.734-.32,2.256,2.256,0,0,0,1.8-.653.75.75,0,0,0-.531-1.28c-.524,0-.484.384-1,.437,0,0,0-1.746,0-1.778a2.414,2.414,0,0,0,1.547-.257A8.975,8.975,0,0,0,16.828,10.381Z"/></svg>