<svg id="Bold" xmlns="http://www.w3.org/2000/svg" viewBox="0 0 24 24"><title>shellfish-shrimp</title><path d="M22.291,13.007a5.746,5.746,0,0,1-6.032,3.455,3.759,3.759,0,0,1-1.377,2.816,3.582,3.582,0,0,0,4.594,2.409A9.026,9.026,0,0,0,22.291,13.007Z"/><path d="M13.533,19.991a6.423,6.423,0,0,1-2.012.152.5.5,0,0,0-.416.222L9.2,23.223A.5.5,0,0,0,9.617,24h3.81a9.066,9.066,0,0,0,3.659-.775A5.069,5.069,0,0,1,13.533,19.991Z"/><path d="M21.229,10.358a9.425,9.425,0,0,0-7.4-4.475,5.77,5.77,0,0,1-.442,6.838,3.962,3.962,0,0,1,2.558,2.155A4.252,4.252,0,0,0,21.229,10.358Z"/><path d="M13.248,9a4.39,4.39,0,0,0-1.366-3.143H8.542c-.189,0-.294-.472-.294-.607A.752.752,0,0,1,9,4.5h5.5a.75.75,0,0,0,0-1.5H9A2.245,2.245,0,0,0,6.833,5.857h-1.5a3.042,3.042,0,0,1-1.1-2.232A2.127,2.127,0,0,1,6.36,1.5H19.011a.75.75,0,0,0,0-1.5H6.36A3.629,3.629,0,0,0,2.735,3.625a4.44,4.44,0,0,0,.642,2.232H3.245A.977.977,0,0,0,2.371,7.27l.67,1.339a7.13,7.13,0,0,0,6.41,3.962h1.856A4.23,4.23,0,0,0,13.248,9Zm-5.3-.5a.953.953,0,1,1,.953.952A.953.953,0,0,1,7.95,8.5Z"/><path d="M6.47,16.369a.492.492,0,0,0-.44.033.5.5,0,0,0-.242.369L5.349,20.28,1.822,21.6a.494.494,0,0,0-.312.362.5.5,0,0,0,.134.459C1.709,22.489,3.26,24,6.76,24a.5.5,0,0,0,.416-.223l1.9-2.857a.5.5,0,0,0,.084-.277A4.573,4.573,0,0,0,6.47,16.369Z"/></svg>