<svg id="Bold" xmlns="http://www.w3.org/2000/svg" viewBox="0 0 24 24"><title>shelf-tv</title><path d="M24,13.5A1.5,1.5,0,0,0,22.5,12h-9a.5.5,0,0,1-.5-.5V11a.5.5,0,0,1,.5-.5H18a2.006,2.006,0,0,0,2-2V2a2.005,2.005,0,0,0-2-2H6A2.005,2.005,0,0,0,4,2V8.5a2.006,2.006,0,0,0,2,2h4.5a.5.5,0,0,1,.5.5v.5a.5.5,0,0,1-.5.5h-9A1.5,1.5,0,0,0,0,13.5v10a.5.5,0,0,0,.5.5H4a.484.484,0,0,0,.48-.37l.54-2.05A1.289,1.289,0,0,1,6,21H18a1.308,1.308,0,0,1,.99.58l.57,2.06a.5.5,0,0,0,.48.36H23.5a.5.5,0,0,0,.5-.5Zm-13.5,4a.5.5,0,0,1-.5.5H3a.5.5,0,0,1-.5-.5v-2A.5.5,0,0,1,3,15h7a.5.5,0,0,1,.5.5Zm-4-9A.5.5,0,0,1,6,8V2.5A.5.5,0,0,1,6.5,2h11a.5.5,0,0,1,.5.5V8a.5.5,0,0,1-.5.5Zm15,9a.5.5,0,0,1-.5.5H14a.5.5,0,0,1-.5-.5v-2A.5.5,0,0,1,14,15h7a.5.5,0,0,1,.5.5Z"/></svg>