<svg id="Bold" xmlns="http://www.w3.org/2000/svg" viewBox="0 0 24 24"><title>shelf-books</title><path d="M24,2a2,2,0,0,0-2-2H2A2,2,0,0,0,0,2V22a2,2,0,0,0,2,2H22a2,2,0,0,0,2-2ZM19.846,19a.25.25,0,0,1-.232-.343l1.315-3.286A1,1,0,0,0,20,14H18.5a.5.5,0,0,0-.464.314l-1.812,4.529a.25.25,0,0,1-.232.157h-.384a.25.25,0,0,1-.232-.343l1.588-3.971A.5.5,0,0,0,16.5,14h-2a.5.5,0,0,0-.464.314l-1.812,4.529a.25.25,0,0,1-.232.157h-.384a.25.25,0,0,1-.232-.343l1.588-3.971A.5.5,0,0,0,12.5,14H10.838a1,1,0,0,0-.928.629L8.224,18.843A.25.25,0,0,1,7.992,19H2.5a.5.5,0,0,1-.5-.5V12a.5.5,0,0,1,.5-.5h19a.5.5,0,0,1,.5.5v6.5a.5.5,0,0,1-.5.5ZM21.5,2a.5.5,0,0,1,.5.5V9.25a.25.25,0,0,1-.25.25h-1.5A.25.25,0,0,1,20,9.25V5a.5.5,0,0,0-.5-.5h-2A.5.5,0,0,0,17,5V9.25a.25.25,0,0,1-.25.25h-6.5A.25.25,0,0,1,10,9.25V5a.5.5,0,0,0-.5-.5h-2A.5.5,0,0,0,7,5V9.25a.25.25,0,0,1-.25.25h-.5A.25.25,0,0,1,6,9.25V5a.5.5,0,0,0-.5-.5h-2A.5.5,0,0,0,3,5V9.25a.25.25,0,0,1-.25.25h-.5A.25.25,0,0,1,2,9.25V2.5A.5.5,0,0,1,2.5,2Z"/></svg>