<svg xmlns="http://www.w3.org/2000/svg" viewBox="0 0 24 24"><title>shipment-delivered</title><path d="M11.091,14.317a2.8,2.8,0,0,1,2.248-1.135h2.587a.25.25,0,0,0,.242-.314l-.421-1.6a2.615,2.615,0,0,1,.5-2.307,2.565,2.565,0,0,1,1.094-.78.249.249,0,0,0,.162-.234V1.5a1,1,0,0,0-1-1h-4.75a.25.25,0,0,0-.25.25V6.293a.5.5,0,0,1-.853.353L9.176,5.177a.251.251,0,0,0-.354,0L7.353,6.646A.5.5,0,0,1,6.5,6.293V.75A.25.25,0,0,0,6.249.5H1.5a1,1,0,0,0-1,1v14a1,1,0,0,0,1,1h8.826a.252.252,0,0,0,.185-.082.248.248,0,0,0,.064-.191A2.775,2.775,0,0,1,11.091,14.317Z"/><path d="M16.362,23.463c1.141,0,1.945.037,2.614.037a8.562,8.562,0,0,0,4.382-1.19.25.25,0,0,0,.143-.226l0-6.853a.25.25,0,0,0-.213-.247,1.426,1.426,0,0,1-.941-.526L19.177,9.97a1.109,1.109,0,0,0-1.98.92l.572,2.166a1.3,1.3,0,0,1-1.253,1.626H13.339A1.3,1.3,0,0,0,12.1,16.355v0l0,.006,1.189,4.345,0,.006,0,.007C13.8,22.352,14.657,23.463,16.362,23.463Z"/></svg>