<svg xmlns="http://www.w3.org/2000/svg" viewBox="0 0 24 24"><title>shipment-cash</title><path d="M8.75,4A.249.249,0,0,0,9,4.25h5.353a.25.25,0,0,0,.177-.427L11.646.939A1.511,1.511,0,0,0,10.585.5H9a.249.249,0,0,0-.25.25Z"/><path d="M15.3,9.186a.249.249,0,0,0,.2-.244V6a.25.25,0,0,0-.25-.25H.75A.249.249,0,0,0,.5,6v9A1.5,1.5,0,0,0,2,16.5H8.8a.249.249,0,0,0,.248-.227A8.009,8.009,0,0,1,15.3,9.186Z"/><path d="M7,4.25A.25.25,0,0,0,7.25,4V.75A.25.25,0,0,0,7,.5H5.414A1.511,1.511,0,0,0,4.353.939L1.469,3.823a.25.25,0,0,0,.177.427Z"/><path d="M17,10.5A6.5,6.5,0,1,0,23.5,17,6.508,6.508,0,0,0,17,10.5ZM16.25,21a.249.249,0,0,0-.25-.25h-.5a.75.75,0,0,1,0-1.5h2.034a.592.592,0,0,0,.219-1.141l-2.062-.825a2.084,2.084,0,0,1,.36-3.981.25.25,0,0,0,.2-.245V12.75a.75.75,0,0,1,1.5,0V13a.25.25,0,0,0,.25.25h.5a.75.75,0,0,1,0,1.5H16.467a.591.591,0,0,0-.219,1.141l2.062.825a2.084,2.084,0,0,1-.36,3.981.25.25,0,0,0-.2.245v.308a.75.75,0,0,1-1.5,0Z"/></svg>