<svg xmlns="http://www.w3.org/2000/svg" viewBox="0 0 24 24"><title>shipment-truck-2</title><path d="M11.125,6.375a.966.966,0,0,0-.2-.579.244.244,0,0,1-.049-.165,1.231,1.231,0,0,1,.363-.812l.914-.914a.75.75,0,0,0-1.06-1.06l-.914.914A2.7,2.7,0,0,0,9.434,5.2a.218.218,0,0,1-.215.179H5.125a5.006,5.006,0,0,0-5,5v8a2,2,0,0,0,2,2H3.472a.25.25,0,0,0,.242-.312,2.784,2.784,0,0,1-.089-.688,3,3,0,0,1,6,0,2.784,2.784,0,0,1-.089.688.251.251,0,0,0,.242.312h.347a.971.971,0,0,0,.582-.2.249.249,0,0,1,.149-.049H15.92a.25.25,0,0,0,.247-.293,2.651,2.651,0,0,1-.042-.457,3,3,0,0,1,6,0,2.651,2.651,0,0,1-.042.457.249.249,0,0,0,.055.2.252.252,0,0,0,.192.089h.8a.75.75,0,0,0,.75-.75v-3a1.752,1.752,0,0,0-1.75-1.75h-9.25a.25.25,0,0,0-.25.25v2a.75.75,0,0,1-1.5,0Zm-9,4a3,3,0,0,1,3-3h.75a.25.25,0,0,1,.25.25v3.5a.25.25,0,0,1-.25.25h-3.5a.25.25,0,0,1-.25-.25Z"/><circle cx="6.625" cy="19.375" r="2"/><circle cx="19.125" cy="19.375" r="2"/></svg>