<svg xmlns="http://www.w3.org/2000/svg" viewBox="0 0 24 24"><title>shipment-give</title><path d="M6.879,3.741a.25.25,0,0,0-.379.214V8.647a.5.5,0,0,0,.243.429L10.621,11.4A.25.25,0,0,0,11,11.189V6.355a.249.249,0,0,0-.121-.214Z"/><path d="M16.538,2.853a.25.25,0,0,0,.007-.443L12.239.061a.5.5,0,0,0-.478,0L7.392,2.444a.25.25,0,0,0-.009.434L11.4,5.29a.247.247,0,0,0,.24.009Z"/><path d="M12,11.276a.249.249,0,0,0,.362.223l4.862-2.43a.5.5,0,0,0,.276-.447V3.894a.25.25,0,0,0-.362-.223l-5,2.5A.251.251,0,0,0,12,6.394Z"/><rect x="14.5" y="21" width="6" height="3" rx="0.5" ry="0.5"/><path d="M21,12.493a.258.258,0,0,1-.073.181l-2.281,2.281a.25.25,0,0,1-.421-.233l.493-2.151v0c.343-1.438-.971-2.051-1.688-.937a18.664,18.664,0,0,0-1.343,3.356A3.954,3.954,0,0,0,15.5,16.2v3.651a.25.25,0,0,0,.25.25h3.619a.244.244,0,0,0,.2-.1c.423-.607,2.6-3.728,3.67-5.151a1.283,1.283,0,0,0,.258-.778V6.745a.242.242,0,0,0-.239-.244C22.64,6.48,21.021,6.957,21,12.493Z"/><rect x="3.5" y="21" width="6" height="3" rx="0.5" ry="0.5"/><path d="M8.25,20.1a.25.25,0,0,0,.25-.25V16.2a3.954,3.954,0,0,0-.188-1.212,18.664,18.664,0,0,0-1.343-3.356c-.717-1.114-2.031-.5-1.688.937v0l.494,2.151A.253.253,0,0,1,5.652,15a.25.25,0,0,1-.3-.042L3.073,12.674A.258.258,0,0,1,3,12.493C2.979,6.957,1.36,6.48.739,6.5A.247.247,0,0,0,.5,6.75v7.4a.893.893,0,0,0,.174.527C1.655,16.012,3.987,19.362,4.427,20a.246.246,0,0,0,.2.105Z"/></svg>