<svg xmlns="http://www.w3.org/2000/svg" viewBox="0 0 24 24"><title>shipment-truck-1</title><path d="M24,16.765a1.749,1.749,0,0,0-1.307-1.692l-3.464-.908a.642.642,0,0,1-.479-.62,5.251,5.251,0,0,0-2.48-4.476L14,7.652a.9.9,0,0,0-.259-.107.252.252,0,0,1-.164-.135A4.23,4.23,0,0,0,9.769,5H7.5a.5.5,0,0,0-.5.5V19.25a.25.25,0,0,1-.25.25h-1a.25.25,0,0,1-.25-.25V3.96A3.451,3.451,0,0,0,2.938.529L.609.012h0A.5.5,0,0,0,0,.5V19.274a.25.25,0,0,0,.386.209A2.949,2.949,0,0,1,2,19a3,3,0,0,1,3,3,2.8,2.8,0,0,1-.089.689.252.252,0,0,0,.045.215.248.248,0,0,0,.2.1c7.9,0,9.694.017,10.208-.014a.251.251,0,0,0,.227-.311A2.781,2.781,0,0,1,15.5,22a2.994,2.994,0,1,1,5.988,0,.252.252,0,0,0,.072.18.249.249,0,0,0,.178.075H23.25A.75.75,0,0,0,24,21.5ZM11,10.5a.5.5,0,0,1,.5.5v3a.5.5,0,0,1-.5.5H10a.5.5,0,0,1-.5-.5V11a.5.5,0,0,1,.5-.5Zm5.743,2.986a.25.25,0,0,1-.25.264h-1.77a.25.25,0,0,1-.25-.25V10.734a.249.249,0,0,1,.374-.216A3.454,3.454,0,0,1,16.743,13.486Z"/><circle cx="18.5" cy="22" r="2"/><circle cx="2" cy="22" r="2"/></svg>