<svg xmlns="http://www.w3.org/2000/svg" viewBox="0 0 24 24"><title>shipment-smartphone-1</title><path d="M1.023,4.276A.249.249,0,0,0,.791,4.3a.252.252,0,0,0-.11.206c0,.6,0,2.341,0,7.441a1,1,0,0,0,.6.916l6.551,2.866a.25.25,0,0,0,.35-.229V7.279a.251.251,0,0,0-.158-.233Z"/><path d="M15.408,3.328a.25.25,0,0,0-.015-.465L8.568.454a1,1,0,0,0-.755.037l-.007,0L1.857,3.072a.25.25,0,0,0,.007.462L8.48,6.152a.5.5,0,0,0,.382,0Z"/><path d="M16.514,4.976a.25.25,0,0,0,.167-.235c0-.225,0-.381,0-.492a.251.251,0,0,0-.349-.23l-7,3.014a.25.25,0,0,0-.151.23v8.128a.249.249,0,0,0,.367.221l2.5-1.326a.249.249,0,0,0,.133-.22V11.1A6.5,6.5,0,0,1,16.514,4.976Z"/><path d="M18.752,6.353h0a6.007,6.007,0,0,0-4.276,1.772,1,1,0,0,0,1.414,1.414A4.02,4.02,0,0,1,18.75,8.353h0a4.02,4.02,0,0,1,2.862,1.186,1,1,0,1,0,1.414-1.414A6.007,6.007,0,0,0,18.752,6.353Z"/><path d="M16.505,10.548a1,1,0,0,0,1.414,1.415,1.23,1.23,0,0,1,1.736,0,1,1,0,1,0,1.414-1.414A3.232,3.232,0,0,0,16.505,10.548Z"/><path d="M21.181,13.1H16.175a1.972,1.972,0,0,0-2,1.939c.007,7.418.006,6.437.006,6.811a1.868,1.868,0,0,0,2,1.75h5a1.868,1.868,0,0,0,2-1.75V15.04A1.971,1.971,0,0,0,21.181,13.1Zm-.5,7h-4a.5.5,0,0,1-.5-.5c0-2.469,0-2.025,0-4a.5.5,0,0,1,.493-.505l4.006-.05a.5.5,0,0,1,.506.5V19.6A.5.5,0,0,1,20.681,20.1Z"/></svg>