<svg xmlns="http://www.w3.org/2000/svg" viewBox="0 0 24 24"><title>shipment-question</title><path d="M8.5,3.75A.25.25,0,0,0,8.75,4H14.1a.25.25,0,0,0,.177-.427L11.4.689A1.511,1.511,0,0,0,10.336.25H8.75A.25.25,0,0,0,8.5.5Z"/><path d="M15.069,9.562a.248.248,0,0,0,.182-.24V5.75A.25.25,0,0,0,15,5.5H.5a.25.25,0,0,0-.25.25v9a1.5,1.5,0,0,0,1.5,1.5H9.1a.25.25,0,0,0,.247-.212A8.01,8.01,0,0,1,15.069,9.562Z"/><path d="M6.75,4A.249.249,0,0,0,7,3.75V.5A.249.249,0,0,0,6.75.25H5.165A1.511,1.511,0,0,0,4.1.689L1.22,3.573A.25.25,0,0,0,1.4,4Z"/><path d="M17.25,10.75a6.5,6.5,0,1,0,6.5,6.5A6.508,6.508,0,0,0,17.25,10.75Zm2.625,4.875a2.64,2.64,0,0,1-1.731,2.468A.219.219,0,0,0,18,18.3v.2a.75.75,0,0,1-1.5,0v-.553a1.257,1.257,0,0,1,.988-1.222,1.125,1.125,0,1,0-1.363-1.1.75.75,0,0,1-1.5,0,2.625,2.625,0,0,1,5.25,0ZM17.25,20.25a1,1,0,1,1-1,1A1,1,0,0,1,17.25,20.25Z"/></svg>