<svg xmlns="http://www.w3.org/2000/svg" viewBox="0 0 24 24"><title>shipment-online-monitor-1</title><path d="M11.5,6.01a.249.249,0,0,0-.154-.239l-5-2.085A.249.249,0,0,0,6,3.915C6,4.435,6,5.847,6,9.8a1,1,0,0,0,.611.921l4.542,1.921a.25.25,0,0,0,.347-.231C11.5,7.549,11.493,6.342,11.5,6.01Z"/><path d="M16.8,2.96a.251.251,0,0,0,0-.462L12.385.66a1.007,1.007,0,0,0-.77,0L10.787,1a.25.25,0,0,0-.014.456L15.1,3.574a.252.252,0,0,0,.205.006Z"/><path d="M13.464,4.349a.25.25,0,0,0,.014-.456L9.452,1.929a1,1,0,0,0-.823-.024L7.2,2.5a.25.25,0,0,0,0,.462L11.615,4.8a1,1,0,0,0,.77,0Z"/><path d="M12.5,12.417a.25.25,0,0,0,.346.231l4.539-1.892A1,1,0,0,0,18,9.833c0-3.977,0-5.4,0-5.918a.249.249,0,0,0-.346-.229L12.649,5.771a.248.248,0,0,0-.153.239C12.507,6.342,12.5,7.551,12.5,12.417Z"/><path d="M23.5,3.5h0a3,3,0,0,0-3-3,1,1,0,1,0,.014,2,.99.99,0,0,1,.986,1V14.042a1,1,0,0,1-1,1H3.5a1,1,0,0,1-1-1V3.5a.99.99,0,0,1,.986-1A1,1,0,1,0,3.5.5a3,3,0,0,0-3,3v13a3,3,0,0,0,3,3h7.75a.25.25,0,0,1,.25.25v1.5a.25.25,0,0,1-.25.25H8.5a1,1,0,0,0,0,2h8a1,1,0,0,0,0-2H13.75a.25.25,0,0,1-.25-.25v-1.5a.25.25,0,0,1,.25-.25h6.736a3.006,3.006,0,0,0,3-2.94v0Z"/></svg>