<svg xmlns="http://www.w3.org/2000/svg" viewBox="0 0 24 24"><title>shipment-touch</title><path d="M10.827,10.294a3,3,0,0,1,2.9,2.225.249.249,0,0,0,.241.185h2.862a1,1,0,0,0,1-1V1.7a1,1,0,0,0-1-1h-2.75a.25.25,0,0,0-.25.25V5.2A.5.5,0,0,1,13,5.583l-1.511-1.3a.249.249,0,0,0-.326,0l-1.511,1.3A.5.5,0,0,1,8.827,5.2V.954A.25.25,0,0,0,8.577.7H5.827a1,1,0,0,0-1,1v10a1,1,0,0,0,1,1H7.688a.249.249,0,0,0,.241-.185A3,3,0,0,1,10.827,10.294Z"/><path d="M9.327,20.456a.251.251,0,0,1-.162.234.248.248,0,0,1-.276-.07l-1.56-1.782,0-.005a1.5,1.5,0,0,0-2.309,1.915l.008.009,2.228,2.457a.252.252,0,0,0,.185.082h11.64a.25.25,0,0,0,.25-.25V21.794a4,4,0,0,0-4-4h-2.75a.25.25,0,0,1-.25-.25v-4.25a1.5,1.5,0,0,0-3,0Z"/></svg>