<svg xmlns="http://www.w3.org/2000/svg" viewBox="0 0 24 24"><title>shipment-upload</title><path d="M13.25,22.944a.251.251,0,0,0,.353.228l9.311-4.232a1,1,0,0,0,.586-.91V6.886a.25.25,0,0,0-.353-.228L13.4,11.09a.248.248,0,0,0-.147.227Zm4.9-9.624a.5.5,0,0,1,.708,0l1.5,1.5a.5.5,0,0,1-.354.854h-.5a.249.249,0,0,0-.25.25v1.75a.75.75,0,0,1-1.5,0v-1.75a.249.249,0,0,0-.25-.25H17a.5.5,0,0,1-.354-.854Z"/><path d="M7.581,9.437a.25.25,0,0,0-.346.23v2.007a.75.75,0,0,1-1.5,0V8.834A.249.249,0,0,0,5.581,8.6L.846,6.631a.249.249,0,0,0-.235.022A.253.253,0,0,0,.5,6.861V18.007a1,1,0,0,0,.615.923L11.4,23.217a.25.25,0,0,0,.346-.231V11.34a.251.251,0,0,0-.154-.231Z"/><path d="M15.9,2.822a.25.25,0,0,0,0-.456L12.4.847a1,1,0,0,0-.8,0L1.993,5.025a.25.25,0,0,0,0,.46L6.2,7.234a.247.247,0,0,0,.2,0Z"/><path d="M12.386,9.814a.253.253,0,0,0,.2,0L22.062,5.5a.25.25,0,0,0,0-.456L18.345,3.432a.252.252,0,0,0-.2,0L8.689,7.82a.25.25,0,0,0,.01.457Z"/></svg>