<svg xmlns="http://www.w3.org/2000/svg" viewBox="0 0 24 24"><title>shipment-add</title><path d="M8.75,3.75A.25.25,0,0,0,9,4h5.353a.25.25,0,0,0,.177-.427L11.646.689A1.494,1.494,0,0,0,10.585.25H9A.25.25,0,0,0,8.75.5Z"/><path d="M7,4a.25.25,0,0,0,.25-.25V.5A.25.25,0,0,0,7,.25H5.414a1.49,1.49,0,0,0-1.06.439L1.469,3.573A.25.25,0,0,0,1.646,4Z"/><path d="M15.3,9.436a.249.249,0,0,0,.2-.244V5.75a.25.25,0,0,0-.25-.25H.75a.25.25,0,0,0-.25.25v9A1.5,1.5,0,0,0,2,16.25H8.852a.25.25,0,0,0,.247-.212A8.014,8.014,0,0,1,15.3,9.436Z"/><path d="M17,10.75a6.5,6.5,0,1,0,6.5,6.5A6.508,6.508,0,0,0,17,10.75Zm.75,9a.75.75,0,0,1-1.5,0v-1.5A.25.25,0,0,0,16,18H14.5a.75.75,0,0,1,0-1.5H16a.25.25,0,0,0,.25-.25v-1.5a.75.75,0,0,1,1.5,0v1.5a.25.25,0,0,0,.25.25h1.5a.75.75,0,0,1,0,1.5H18a.25.25,0,0,0-.25.25Z"/></svg>