<svg xmlns="http://www.w3.org/2000/svg" viewBox="0 0 24 24"><title>shipment-monitor</title><path d="M19.962,3h0a3,3,0,0,0-3-3H3.038a3,3,0,0,0-3,3v8.5a3,3,0,0,0,3,3H8.75a.249.249,0,0,1,.25.25v1.5a.249.249,0,0,1-.25.25H6.462a1,1,0,0,0,0,2h5.5a1,1,0,0,0,0-2H11.25a.25.25,0,0,1-.25-.25v-1.5a.25.25,0,0,1,.25-.25h5.7a3.011,3.011,0,0,0,3-2.942v0ZM2.038,3a1,1,0,0,1,1-1H16.962a1,1,0,0,1,1,1V9.042a1,1,0,0,1-1,1H3.038a1,1,0,0,1-1-1Z"/><path d="M22.962,15.5h-1.75a.25.25,0,0,0-.25.25v2.783a.25.25,0,0,1-.388.208l-.973-.648a.246.246,0,0,0-.277,0l-.973.648a.25.25,0,0,1-.389-.208V15.75a.25.25,0,0,0-.25-.25h-1.75a1,1,0,0,0-1,1V23a1,1,0,0,0,1,1h7a1,1,0,0,0,1-1V16.5A1,1,0,0,0,22.962,15.5Z"/></svg>