<svg xmlns="http://www.w3.org/2000/svg" viewBox="0 0 24 24"><title>shipment-hook</title><path d="M22.844,13.04a.264.264,0,0,1-.061-.023l-7.312-3.9h0a1,1,0,0,0-.941,1.766l3.088,1.646A.25.25,0,0,1,17.5,13H6.5a.25.25,0,0,1-.118-.471l3.088-1.646A1,1,0,0,0,8.53,9.117h0l-7.312,3.9a.264.264,0,0,1-.061.023A1.5,1.5,0,0,0,0,14.5v8A1.5,1.5,0,0,0,1.5,24h21A1.5,1.5,0,0,0,24,22.5v-8A1.5,1.5,0,0,0,22.844,13.04ZM20.25,16v5a.75.75,0,0,1-1.5,0V16a.75.75,0,0,1,1.5,0Zm-5,0v5a.75.75,0,0,1-1.5,0V16a.75.75,0,0,1,1.5,0Zm-5,0v5a.75.75,0,0,1-1.5,0V16a.75.75,0,0,1,1.5,0Zm-5,0v5a.75.75,0,0,1-1.5,0V16a.75.75,0,0,1,1.5,0Z"/><path d="M12,9a3,3,0,0,0,3-3,1,1,0,0,0-2,0,1,1,0,0,1-2,0,1.074,1.074,0,0,1,.708-.942A2.013,2.013,0,0,0,13,3.187V1a1,1,0,0,0-2,0V3.018a.251.251,0,0,1-.15.23A3.043,3.043,0,0,0,9,6,3,3,0,0,0,12,9Z"/></svg>