<svg xmlns="http://www.w3.org/2000/svg" viewBox="0 0 24 24"><title>shipment-upload-information</title><path d="M24,1.043A1.043,1.043,0,0,0,22.957,0H1.043A1.043,1.043,0,0,0,0,1.043V22.957A1.043,1.043,0,0,0,1.043,24H22.957A1.043,1.043,0,0,0,24,22.957Zm-10.854,5.6,3-3a.5.5,0,0,1,.708,0l3,3A.5.5,0,0,1,19.5,7.5H17.75a.25.25,0,0,0-.25.25V14a1,1,0,0,1-2,0V7.75a.25.25,0,0,0-.25-.25H13.5a.5.5,0,0,1-.354-.854Zm-9,0,3-3a.5.5,0,0,1,.708,0l3,3A.5.5,0,0,1,10.5,7.5H8.75a.25.25,0,0,0-.25.25V14a1,1,0,0,1-2,0V7.75a.25.25,0,0,0-.25-.25H4.5a.5.5,0,0,1-.354-.854ZM20.5,20.5H3.5a1,1,0,0,1,0-2h17a1,1,0,0,1,0,2Z"/></svg>