<svg xmlns="http://www.w3.org/2000/svg" viewBox="0 0 24 24"><title>shipment-international</title><path d="M20.7,11.5l0,0,.053,0a.75.75,0,0,0,.75-.75C21.5,3.02,14.624,0,10.75,0a10.751,10.751,0,0,0-5.1,20.215A.75.75,0,1,0,6.362,18.9a9.274,9.274,0,0,1-2.508-1.979A.25.25,0,0,1,4.04,16.5H5.635a.75.75,0,0,0,0-1.5H2.687a.25.25,0,0,1-.224-.139,9.238,9.238,0,0,1-.906-3.083.249.249,0,0,1,.249-.278ZM2.465,6.639A.251.251,0,0,1,2.689,6.5H6.117a.251.251,0,0,1,.245.3,16.605,16.605,0,0,0-.354,2.956.25.25,0,0,1-.25.242H1.806a.249.249,0,0,1-.249-.278A9.176,9.176,0,0,1,2.465,6.639ZM19.943,9.722a.251.251,0,0,1-.249.278H15.742a.25.25,0,0,1-.25-.242A16.6,16.6,0,0,0,15.139,6.8a.25.25,0,0,1,.245-.3h3.427a.251.251,0,0,1,.224.139A9.176,9.176,0,0,1,19.943,9.722Zm-5.953.02a.249.249,0,0,1-.25.258H7.76a.249.249,0,0,1-.25-.259,15.056,15.056,0,0,1,.416-3.05A.25.25,0,0,1,8.169,6.5h5.163a.249.249,0,0,1,.242.191A15.056,15.056,0,0,1,13.99,9.742Zm3.648-5.159A.25.25,0,0,1,17.452,5H14.827a.249.249,0,0,1-.236-.168,16.511,16.511,0,0,0-1.086-2.457.25.25,0,0,1,.3-.355A9.283,9.283,0,0,1,17.638,4.583ZM11.075,1.506a.248.248,0,0,1,.2.107A15.164,15.164,0,0,1,12.94,4.7a.219.219,0,0,1-.2.3H8.81a.25.25,0,0,1-.232-.343A15.091,15.091,0,0,1,10.23,1.613a.248.248,0,0,1,.2-.107q.16-.006.324-.006C10.859,1.5,10.967,1.5,11.075,1.506Zm-3.381.513a.25.25,0,0,1,.3.356A16.466,16.466,0,0,0,6.91,4.832.25.25,0,0,1,6.674,5H4.048a.25.25,0,0,1-.186-.417A9.282,9.282,0,0,1,7.694,2.019Z"/><path d="M20.3,14.25h-.967a.219.219,0,0,1-.2-.139A1.752,1.752,0,0,0,17.5,13h-8a1.752,1.752,0,0,0-1.75,1.75v6a1.751,1.751,0,0,0,.991,1.576.247.247,0,0,1,.128.145,2.25,2.25,0,0,0,4.193.179.251.251,0,0,1,.229-.15h2.918a.25.25,0,0,1,.229.15,2.249,2.249,0,0,0,4.01.225.25.25,0,0,1,.216-.125H22.1a1.954,1.954,0,0,0,1.9-2v-2.5A3.863,3.863,0,0,0,20.3,14.25Zm-2.55,7.5a.75.75,0,1,1,.75.75A.751.751,0,0,1,17.75,21.75ZM11,22.5a.75.75,0,1,1,.75-.75A.751.751,0,0,1,11,22.5Zm10.98-4.536a.252.252,0,0,1-.248.286H20.25A.25.25,0,0,1,20,18V16.518a.25.25,0,0,1,.286-.248A2.007,2.007,0,0,1,21.98,17.964Z"/></svg>