<svg xmlns="http://www.w3.org/2000/svg" viewBox="0 0 24 24"><title>shipment-truck</title><path d="M10.5,1.5H.5A.5.5,0,0,0,0,2V13.5a.5.5,0,0,0,.5.5h11a.5.5,0,0,0,.5-.5V2.694A1.358,1.358,0,0,0,10.5,1.5ZM9,5v5.5a.75.75,0,0,1-1.5,0V5A.75.75,0,0,1,9,5ZM4.5,5v5.5a.75.75,0,0,1-1.5,0V5A.75.75,0,0,1,4.5,5Z"/><path d="M11.5,15.5H.5A.5.5,0,0,0,0,16v2.273a.25.25,0,0,0,.386.21A2.949,2.949,0,0,1,2,18a3,3,0,0,1,2.91,2.308.251.251,0,0,0,.243.192h.694a.25.25,0,0,0,.243-.192,2.986,2.986,0,0,1,5.453-.883.25.25,0,0,0,.463-.131C12.006,18.7,12,17.706,12,16A.5.5,0,0,0,11.5,15.5Z"/><path d="M20.221,4.162a.25.25,0,0,1-.147-.1l-.742-1.112h0C18.029.973,14.641,1,14.5,1a1,1,0,0,0-1,1V20a1,1,0,0,0,1,1h.26a.25.25,0,0,0,.249-.231,3,3,0,0,1,5.983,0,.25.25,0,0,0,.249.231H22a2,2,0,0,0,2-2V9A5,5,0,0,0,20.221,4.162ZM22,9v2.734a.25.25,0,0,1-.074.177.255.255,0,0,1-.179.073l-2.5-.033A.249.249,0,0,1,19,11.7V6.262a.252.252,0,0,1,.081-.185.255.255,0,0,1,.192-.065A3,3,0,0,1,22,9Z"/><circle cx="2" cy="21" r="2"/><circle cx="9" cy="21" r="2"/><circle cx="18" cy="21" r="2"/></svg>