<svg xmlns="http://www.w3.org/2000/svg" viewBox="0 0 24 24"><title>shipment-barcode</title><path d="M22.5.5H16a.5.5,0,0,0-.5.5V7.512a.5.5,0,0,1-.75.433l-.018-.01-2.495-1.31a.5.5,0,0,0-.472,0L9.24,8.01a.5.5,0,0,1-.183.058A.491.491,0,0,1,8.741,8,.5.5,0,0,1,8.5,7.572V1A.5.5,0,0,0,8,.5H1.5a1,1,0,0,0-1,1v21a1,1,0,0,0,1,1h21a1,1,0,0,0,1-1V1.5A1,1,0,0,0,22.5.5Zm-12.25,19a.75.75,0,0,1-1.5,0V14.024a.75.75,0,0,1,1.5,0Zm3.5,0a.75.75,0,0,1-1.5,0v-.976a.75.75,0,0,1,1.5,0Zm0-3.476a.75.75,0,0,1-1.5,0v-2a.75.75,0,0,1,1.5,0Zm3.5,3.476a.75.75,0,0,1-1.5,0V14.024a.75.75,0,0,1,1.5,0Zm3.5-.024a.75.75,0,0,1-1.5,0V18.5a.75.75,0,0,1,1.5,0Zm0-3.476a.75.75,0,0,1-1.5,0V14a.75.75,0,0,1,1.5,0Z"/></svg>