<svg xmlns="http://www.w3.org/2000/svg" viewBox="0 0 24 24"><title>shipment-next</title><path d="M6.75,4.75A.25.25,0,0,0,7,4.5V1.25A.25.25,0,0,0,6.75,1H5.164A1.511,1.511,0,0,0,4.1,1.439L1.219,4.323A.25.25,0,0,0,1.4,4.75Z"/><path d="M15.068,11.811a.248.248,0,0,0,.182-.24V6.5A.25.25,0,0,0,15,6.25H.5a.249.249,0,0,0-.25.25v9A1.5,1.5,0,0,0,1.75,17H9.476a.249.249,0,0,0,.235-.167A8.01,8.01,0,0,1,15.068,11.811Z"/><path d="M8.5,4.5a.249.249,0,0,0,.25.25H14.1a.25.25,0,0,0,.177-.427L11.4,1.439A1.511,1.511,0,0,0,10.335,1H8.75a.249.249,0,0,0-.25.25Z"/><path d="M17.75,13a7.008,7.008,0,0,0-7,7v2a1,1,0,0,0,2,0V20a5.006,5.006,0,0,1,5-5H18a.249.249,0,0,1,.25.25V17.5a.5.5,0,0,0,.807.395l4.408-3.429.092-.071a.5.5,0,0,0,0-.79l-4.5-3.5a.5.5,0,0,0-.807.395v2.25A.249.249,0,0,1,18,13Z"/></svg>