<svg id="Bold" xmlns="http://www.w3.org/2000/svg" viewBox="0 0 24 24"><title>shirt-male</title><path d="M18.952,2.668a13.161,13.161,0,0,0-1.778-.738.979.979,0,0,1-.39-.242L15.535.439A1.5,1.5,0,0,0,14.475,0H9.526A1.5,1.5,0,0,0,8.465.439L7.218,1.687a1,1,0,0,1-.394.241A12.82,12.82,0,0,0,4.5,2.953,8.363,8.363,0,0,0,0,10.5v1.2a2,2,0,0,0,1.571,1.956l2.537.56a.5.5,0,0,1,.392.489V22.48a1.5,1.5,0,0,0,.427,1.064A1.482,1.482,0,0,0,6,24H18a1.475,1.475,0,0,0,1.064-.447A1.507,1.507,0,0,0,19.5,22.48V14.705a.5.5,0,0,1,.392-.488l2.537-.561A2,2,0,0,0,24,11.7V10.5A8.412,8.412,0,0,0,18.952,2.668ZM4.5,11.943a.248.248,0,0,1-.094.2.251.251,0,0,1-.21.049l-2-.443A.25.25,0,0,1,2,11.5v-1A6.184,6.184,0,0,1,4.083,5.7a.25.25,0,0,1,.417.186ZM13,10.5a1,1,0,0,1-2,0V7.76a.249.249,0,0,1,.107-.205c.119-.083.248-.192.74-.572a.249.249,0,0,1,.306,0c.5.387.626.493.752.58a.217.217,0,0,1,.1.18Zm2.166-4.469a1,1,0,0,1-1.441.417c-.745-.473-1.33-.9-1.585-1.092a.228.228,0,0,0-.28,0c-.255.192-.84.619-1.585,1.092a1,1,0,0,1-1.441-.417,10.635,10.635,0,0,1-.776-2.922A.249.249,0,0,1,8.129,2.9L9.222,1.8a.25.25,0,0,1,.411.09,6.859,6.859,0,0,0,2.205,2.98.267.267,0,0,0,.324,0,6.859,6.859,0,0,0,2.205-2.98.25.25,0,0,1,.411-.09L15.871,2.9a.249.249,0,0,1,.071.212A10.635,10.635,0,0,1,15.166,6.031ZM22,11.5a.249.249,0,0,1-.2.243l-2,.441a.252.252,0,0,1-.211-.05.248.248,0,0,1-.093-.194V5.887a.25.25,0,0,1,.417-.186A6.159,6.159,0,0,1,22,10.5Z"/></svg>