<svg id="Bold" xmlns="http://www.w3.org/2000/svg" viewBox="0 0 24 24"><title>shirt</title><path d="M16.537,0a1,1,0,0,0-1.059.884,3.512,3.512,0,0,1-2.384,2.938.5.5,0,0,0-.344.475V7a.75.75,0,0,1-1.5,0V4.3a.5.5,0,0,0-.344-.475A3.512,3.512,0,0,1,8.522.886,1,1,0,0,0,7.463,0,8.017,8.017,0,0,0,0,7.984V11a1,1,0,0,0,1,1H4a.5.5,0,0,1,.5.5V23a1,1,0,0,0,1,1h13a1,1,0,0,0,1-1V12.5A.5.5,0,0,1,20,12h3a1,1,0,0,0,1-1V7.984A8.017,8.017,0,0,0,16.537,0Zm.713,10.5h-2.5a.75.75,0,0,1,0-1.5h2.5a.75.75,0,0,1,0,1.5Z"/></svg>