<svg id="Bold" xmlns="http://www.w3.org/2000/svg" viewBox="0 0 24 24"><title>shooting-rifle-aim</title><path d="M23,10.5H5.75A1.252,1.252,0,0,0,4.5,11.75a.75.75,0,0,1-.75.75H1.25A1.252,1.252,0,0,0,0,13.75v1A1.252,1.252,0,0,0,1.25,16h5.5a1.229,1.229,0,0,0,1.024-.536l1.329-1.6a1,1,0,0,1,.77-.362H13.75a1.251,1.251,0,0,0,1.13-.715.5.5,0,0,1,.451-.285H23a1,1,0,0,0,0-2Z"/><path d="M21.715,14.584a1,1,0,0,0-1.288.584,9.053,9.053,0,0,1-7.141,5.738.246.246,0,0,1-.2-.058A.25.25,0,0,1,13,20.659V19.346a.5.5,0,0,1,.4-.489A7.035,7.035,0,0,0,18.063,15.5a1,1,0,0,0-1.731-1,5.022,5.022,0,0,1-3.016,2.323.248.248,0,0,1-.217-.042.252.252,0,0,1-.1-.2V16a1,1,0,0,0-2,0v.584a.25.25,0,0,1-.316.242,5.051,5.051,0,0,1-.94-.362,1,1,0,1,0-.9,1.783,6.933,6.933,0,0,0,1.76.611.5.5,0,0,1,.4.49v1.313a.248.248,0,0,1-.086.189.255.255,0,0,1-.2.059,8.937,8.937,0,0,1-5.049-2.517,1,1,0,1,0-1.409,1.42A10.915,10.915,0,0,0,10.8,22.934a.25.25,0,0,1,.22.209.994.994,0,0,0,1.97,0,.25.25,0,0,1,.22-.209A11.064,11.064,0,0,0,22.3,15.871,1,1,0,0,0,21.715,14.584Z"/><path d="M2.03,10.726a1.021,1.021,0,0,0,.225.025,1,1,0,0,0,.974-.776A8.942,8.942,0,0,1,10.715,3.09a.254.254,0,0,1,.2.059A.251.251,0,0,1,11,3.338V4.652a.5.5,0,0,1-.4.49A7.01,7.01,0,0,0,6.769,7.349a1,1,0,0,0,1.494,1.33,5,5,0,0,1,2.421-1.5A.249.249,0,0,1,11,7.418V8.5a1,1,0,0,0,2,0V7.415a.25.25,0,0,1,.315-.241,4.969,4.969,0,0,1,2.247,1.317,1,1,0,1,0,1.424-1.4A6.938,6.938,0,0,0,13.4,5.14a.5.5,0,0,1-.4-.491V3.34a.25.25,0,0,1,.286-.248,9.018,9.018,0,0,1,6.94,5.252,1,1,0,1,0,1.827-.813,11.018,11.018,0,0,0-8.848-6.465.249.249,0,0,1-.22-.209.995.995,0,0,0-1.97,0,.25.25,0,0,1-.22.209A10.937,10.937,0,0,0,1.279,9.527,1,1,0,0,0,2.03,10.726Z"/></svg>