<svg xmlns="http://www.w3.org/2000/svg" viewBox="0 0 24 24"><title>shop-like-circle</title><path d="M19.1,6.838a.254.254,0,0,0-.183-.079.248.248,0,0,0-.183.08,3.729,3.729,0,0,1-5.408,0,.248.248,0,0,0-.182-.08.251.251,0,0,0-.183.079,3.726,3.726,0,0,1-5.407,0,.251.251,0,0,0-.366,0,3.73,3.73,0,0,1-3.64,1.043.124.124,0,0,0-.107.021A.126.126,0,0,0,3.4,8V9.41a.251.251,0,0,1-.1.2A8,8,0,1,0,14.958,20.121.25.25,0,0,1,15.172,20h6.681a.249.249,0,0,0,.25-.25V8.25A.249.249,0,0,0,21.85,8h-.044A3.687,3.687,0,0,1,19.1,6.838ZM8.1,22a6,6,0,1,1,6-6A6.007,6.007,0,0,1,8.1,22Z"/><path d="M4.652,19.046A6,6,0,0,0,7.834,20c.152,0,.315,0,.5-.007.251-.006.542-.012.891-.012a2.211,2.211,0,0,0,2.155-1.852l.648-2.162.049-.174A1.2,1.2,0,0,0,10.9,14.318H9.16a.21.21,0,0,1-.166-.082.2.2,0,0,1-.035-.174l.312-1.179a1.108,1.108,0,0,0-.21-.976,1.148,1.148,0,0,0-1.763.059l-1.73,2.44a.21.21,0,0,1-.171.088H5.1a1,1,0,0,0-1,1V18.15A1,1,0,0,0,4.652,19.046Z"/><path d="M23.822,5.163a1.155,1.155,0,0,0-.01-.842L22.154.172A.3.3,0,0,0,21.87,0H4.424a.3.3,0,0,0-.283.171L2.48,4.32a1.162,1.162,0,0,0-.008.843A2.134,2.134,0,0,0,4.487,6.5a2.074,2.074,0,0,0,2.137-2,.75.75,0,1,1,1.5,0,2.074,2.074,0,0,0,2.137,2,2.073,2.073,0,0,0,2.135-2,.75.75,0,0,1,1.5,0,2.142,2.142,0,0,0,4.274,0,.75.75,0,0,1,1.5,0,2.073,2.073,0,0,0,2.136,2A2.137,2.137,0,0,0,23.822,5.163Z"/></svg>