<svg xmlns="http://www.w3.org/2000/svg" viewBox="0 0 24 24"><title>shop-sign-bag</title><path d="M21.5,0a2.5,2.5,0,0,0-2.226,1.364.252.252,0,0,1-.223.136H3a3,3,0,0,0-3,3v9a1,1,0,0,0,2,0v-9a1,1,0,0,1,1-1H7.75A.25.25,0,0,1,8,3.75V5.5a1,1,0,0,0,2,0V3.75a.25.25,0,0,1,.25-.25h5.5a.25.25,0,0,1,.25.25V5.5a1,1,0,0,0,2,0V3.75a.25.25,0,0,1,.25-.25h.82a.22.22,0,0,1,.2.12A2.5,2.5,0,1,0,21.5,0Z"/><path d="M14,14a.25.25,0,0,0,.25-.25V13a1.25,1.25,0,0,0-2.5,0v.75A.25.25,0,0,0,12,14Z"/><path d="M21.5,10.5A2.5,2.5,0,0,0,19,8H7a2.5,2.5,0,0,0-2.5,2.5v11A2.5,2.5,0,0,0,7,24H19a2.5,2.5,0,0,0,2.5-2.5Zm-4.269,4.813.748,4.663A1.753,1.753,0,0,1,16.246,22H9.754A1.756,1.756,0,0,1,8,20.246a1.706,1.706,0,0,1,.021-.267l.748-4.668a1.539,1.539,0,0,1,1.272-1.29.249.249,0,0,0,.209-.246V13a2.75,2.75,0,0,1,5.5,0v.775a.249.249,0,0,0,.209.246A1.539,1.539,0,0,1,17.231,15.313Z"/></svg>