<svg xmlns="http://www.w3.org/2000/svg" viewBox="0 0 24 24"><title>shopping-basket-sad-1</title><path d="M22,8.625h-.24a.249.249,0,0,1-.235-.166L20,4.2a4.259,4.259,0,0,0-4-2.821H8A4.259,4.259,0,0,0,4,4.2L2.475,8.459a.249.249,0,0,1-.235.166H2a1.5,1.5,0,0,0,0,3,.073.073,0,0,1,.073.063l1.213,8.9a2.451,2.451,0,0,0,2.48,2.039H18.234a2.451,2.451,0,0,0,2.48-2.039l1.213-8.9A.073.073,0,0,1,22,11.625a1.5,1.5,0,0,0,0-3ZM6.352,5.037A1.755,1.755,0,0,1,8,3.875h8a1.755,1.755,0,0,1,1.648,1.162l1.073,3a.25.25,0,0,1-.235.334H5.514a.25.25,0,0,1-.235-.334ZM7.5,14.875a1.25,1.25,0,1,1,1.25-1.25A1.25,1.25,0,0,1,7.5,14.875ZM12,16.44a4.956,4.956,0,0,1,4.123,2.2.75.75,0,0,1-1.246.835,3.46,3.46,0,0,0-5.754,0,.75.75,0,0,1-1.246-.835A4.955,4.955,0,0,1,12,16.44Zm4.5-1.565a1.25,1.25,0,1,1,1.25-1.25A1.25,1.25,0,0,1,16.5,14.875Z"/></svg>