<svg xmlns="http://www.w3.org/2000/svg" viewBox="0 0 24 24"><title>shop-basket</title><path d="M6.257,5.415a.257.257,0,0,0-.009.067V9.3a.25.25,0,0,0,.114.209A4.924,4.924,0,0,0,8.65,10.3c.133.011.266.016.4.016a4.664,4.664,0,0,0,2.061-.474.249.249,0,0,0,.14-.224V.25A.25.25,0,0,0,11,0H7.936A.249.249,0,0,0,7.7.185C7.6.552,7.277,1.71,6.257,5.415Z"/><path d="M12.748,9.611a.249.249,0,0,0,.14.224,4.727,4.727,0,0,0,2.473.46,4.868,4.868,0,0,0,2.379-.842.018.018,0,0,0,.008-.015V5.482a.252.252,0,0,0-.009-.067C16.719,1.707,16.4.551,16.3.185A.248.248,0,0,0,16.06,0H13a.25.25,0,0,0-.25.25Z"/><path d="M24,5.262V5.255a.317.317,0,0,0,0-.053V5.2a.312.312,0,0,0-.011-.053V5.137a.441.441,0,0,0-.023-.064L22.235.966A1.5,1.5,0,0,0,20.881,0H18.134a.249.249,0,0,0-.241.316l1.329,4.832a.788.788,0,0,1,.026.2V8.92a.25.25,0,0,0,.158.232l.092.035V13.75a.25.25,0,0,1-.25.25H4.748a.25.25,0,0,1-.25-.25V9.188l.091-.034a.251.251,0,0,0,.159-.233V5.347a.788.788,0,0,1,.026-.2L6.1.316A.249.249,0,0,0,5.862,0H3.119A1.5,1.5,0,0,0,1.765.966L.044,5.073a.441.441,0,0,0-.023.064v.005A.312.312,0,0,0,.009,5.2V5.2a.317.317,0,0,0,0,.053v.927A3.245,3.245,0,0,0,1.99,9.1a3.328,3.328,0,0,0,.335.127.251.251,0,0,1,.173.238v4.321a.25.25,0,0,1-.2.245,1.5,1.5,0,0,0-1.177,1.632l.778,7A1.5,1.5,0,0,0,3.394,24H20.6a1.5,1.5,0,0,0,1.491-1.334l.778-7h0A1.5,1.5,0,0,0,21.7,14.034a.25.25,0,0,1-.2-.245V9.474a.249.249,0,0,1,.173-.238,3.254,3.254,0,0,0,.335-.129A3.294,3.294,0,0,0,24,6.182v-.92ZM13.134,17.9a.25.25,0,0,0,.218-.372l-.509-.913a.75.75,0,1,1,1.31-.73l1.107,1.982a.248.248,0,0,0,.128.111,1.13,1.13,0,0,1,.5.383,1.08,1.08,0,0,1,.14,1.02l-1.4,2.472A1.1,1.1,0,0,1,13.6,22.5H10.369a1.127,1.127,0,0,1-1.032-.66L8.013,19.48a1.082,1.082,0,0,1,.078-1.094,1.1,1.1,0,0,1,.517-.408.247.247,0,0,0,.128-.112l1.107-1.981a.75.75,0,0,1,1.31.73l-.509.913a.249.249,0,0,0,0,.248.247.247,0,0,0,.215.124Z"/></svg>