<svg xmlns="http://www.w3.org/2000/svg" viewBox="0 0 24 24"><title>shopping-basket-search</title><path d="M17.411,11a.108.108,0,0,0,.1-.081l.352-1.337a.5.5,0,0,0-.483-.627H2.379a.5.5,0,0,0-.489.6l1.276,5.994A1.956,1.956,0,0,0,5.132,17h5.651a.25.25,0,0,0,.249-.225A6.421,6.421,0,0,1,17.411,11Zm-6.911.614V14a.5.5,0,0,1-1,0V11.614a.5.5,0,0,1,1,0ZM6.628,14.645a.488.488,0,0,1-.085.007.5.5,0,0,1-.492-.417L5.643,11.85a.5.5,0,0,1,.409-.576.5.5,0,0,1,.577.408l.408,2.386A.5.5,0,0,1,6.628,14.645Z"/><path d="M19.763,6.167a1.441,1.441,0,0,0-1.439-1.439H17.182a.25.25,0,0,1-.222-.135L14.848.538a1,1,0,0,0-1.774.924l1.511,2.9a.251.251,0,0,1-.222.366H5.4a.249.249,0,0,1-.213-.121.246.246,0,0,1-.008-.245l1.51-2.9A1,1,0,1,0,4.916.538L2.8,4.593a.249.249,0,0,1-.221.135H1.439a1.439,1.439,0,0,0,0,2.878H18.324A1.441,1.441,0,0,0,19.763,6.167Z"/><path d="M21.659,20.245a.248.248,0,0,1-.037-.306,4.919,4.919,0,1,0-1.683,1.682.25.25,0,0,1,.306.038l2.048,2.048a1,1,0,0,0,1.414-1.414ZM14.5,17.411a2.912,2.912,0,1,1,2.911,2.912A2.915,2.915,0,0,1,14.5,17.411Z"/></svg>