<svg xmlns="http://www.w3.org/2000/svg" viewBox="0 0 24 24"><title>shopping-cart</title><circle cx="6" cy="21.75" r="2.25"/><circle cx="15.25" cy="21.75" r="2.25"/><path d="M23,0H20.684A1.5,1.5,0,0,0,19.2,1.252L16.437,16.545a.252.252,0,0,1-.246.2H5a.5.5,0,0,1,0-1h7.758a2.5,2.5,0,0,0,0-5H3.5a.5.5,0,0,1,0-1H14.25a2.5,2.5,0,0,0,0-5H1a1,1,0,0,0,0,2H14.25a.5.5,0,0,1,0,1H3.5a2.5,2.5,0,0,0,0,5h9.258a.5.5,0,0,1,0,1H5a2.5,2.5,0,0,0,0,5H16.816A1.5,1.5,0,0,0,18.3,17.5L21.063,2.205A.252.252,0,0,1,21.309,2H23a1,1,0,0,0,0-2Z"/></svg>