<svg xmlns="http://www.w3.org/2000/svg" viewBox="0 0 24 24"><title>shopping-cart-woman-1</title><path d="M13.5,8.5a1,1,0,0,0-1-1h-1A2.236,2.236,0,0,0,9.316,9.322L9.081,10.79a.249.249,0,0,1-.246.21H1.372A1.374,1.374,0,0,0,0,12.372a1.352,1.352,0,0,0,.058.394l1.319,4.4A1.18,1.18,0,0,0,2.5,18H7.634a.251.251,0,0,1,.247.29l-.164,1.025A.219.219,0,0,1,7.5,19.5h-5a1,1,0,0,0,0,2h5a2.234,2.234,0,0,0,2.183-1.822l1.6-9.993A.219.219,0,0,1,11.5,9.5h1A1,1,0,0,0,13.5,8.5Z"/><circle cx="2.5" cy="23" r="1"/><circle cx="8" cy="23" r="1"/><path d="M17.562,2.7a.5.5,0,0,1,.414-.22h0A.5.5,0,0,1,18.4,2.7c.034.047.892,1.24,3.4,1.3a.19.19,0,0,0,.139-.057.187.187,0,0,0,.053-.14A4,4,0,0,0,14,3.765a.22.22,0,0,0,.061.165A.223.223,0,0,0,14.22,4C16.694,3.927,17.526,2.749,17.562,2.7Z"/><path d="M18.138,3.841a.25.25,0,0,0-.313,0,5.708,5.708,0,0,1-3.388,1.147.252.252,0,0,0-.224.333,4,4,0,0,0,7.552,0,.25.25,0,0,0-.223-.333A5.777,5.777,0,0,1,18.138,3.841Z"/><path d="M23.98,18.361s-1.01-3.5-2.01-7a4.145,4.145,0,0,0-7.961,0c-1,3.5-1.991,7-1.991,7A.5.5,0,0,0,12.5,19h2.374a.25.25,0,0,1,.245.2L16,23.6a.5.5,0,0,0,.49.4h3a.5.5,0,0,0,.49-.4l.88-4.4A.25.25,0,0,1,21.1,19h2.4a.5.5,0,0,0,.48-.639Z"/></svg>