<svg xmlns="http://www.w3.org/2000/svg" viewBox="0 0 24 24"><title>shopping-bag-smiley</title><path d="M22,7.5A1.5,1.5,0,0,0,20.5,6H17.75a.25.25,0,0,1-.25-.25V5.5a5.5,5.5,0,0,0-11,0v.25A.25.25,0,0,1,6.25,6H3.5A1.5,1.5,0,0,0,2,7.5v14A2.5,2.5,0,0,0,4.5,24h15A2.5,2.5,0,0,0,22,21.5Zm-10,2a6,6,0,1,1-6,6A6.006,6.006,0,0,1,12,9.5Zm-3.5-4a3.5,3.5,0,0,1,7,0v.25a.25.25,0,0,1-.25.25H8.75a.25.25,0,0,1-.25-.25Z"/><circle cx="9.5" cy="14" r="1"/><circle cx="14.5" cy="14" r="1"/><path d="M14.348,17.347a.76.76,0,0,0-1.011.3,1.453,1.453,0,0,1-1.337.6,1.455,1.455,0,0,1-1.336-.6.75.75,0,0,0-1.335.684A2.933,2.933,0,0,0,12,19.75a2.933,2.933,0,0,0,2.671-1.415A.741.741,0,0,0,14.348,17.347Z"/></svg>