<svg xmlns="http://www.w3.org/2000/svg" viewBox="0 0 24 24"><title>shopping-basket-like</title><path d="M1.714,8.25a.25.25,0,0,0-.245.3L1.91,10.67a.248.248,0,0,1-.053.211,8,8,0,1,0,13.6,8.028.249.249,0,0,1,.232-.159H20a.5.5,0,0,0,.489-.4l2.042-9.8a.25.25,0,0,0-.245-.3ZM8,22a6,6,0,1,1,6-6A6.006,6.006,0,0,1,8,22Z"/><path d="M23.5,7.25a.5.5,0,0,0,.5-.5v-1a1.5,1.5,0,0,0-1.5-1.5H21.307a.247.247,0,0,1-.2-.105L18.518.524a1.251,1.251,0,0,0-2.036,1.453l1.342,1.878a.249.249,0,0,1-.2.4H6.156a.249.249,0,0,1-.217-.374L7.085,1.87A1.25,1.25,0,0,0,4.915.63l-2,3.494A.251.251,0,0,1,2.7,4.25H1.5A1.5,1.5,0,0,0,0,5.75v1a.5.5,0,0,0,.5.5Z"/><path d="M11.49,18.129l.649-2.163.049-.173a1.206,1.206,0,0,0-1.177-1.475H9.275a.212.212,0,0,1-.166-.081.2.2,0,0,1-.035-.175l.313-1.179a1.109,1.109,0,0,0-.211-.976,1.149,1.149,0,0,0-1.763.059l-1.729,2.44a.211.211,0,0,1-.171.088h-.3a1,1,0,0,0-1,1v2.657a1,1,0,0,0,.556.9A6,6,0,0,0,7.949,20c.153,0,.316,0,.5-.007.251-.005.542-.012.891-.012A2.209,2.209,0,0,0,11.49,18.129Z"/></svg>