<svg xmlns="http://www.w3.org/2000/svg" viewBox="0 0 24 24"><title>shopping-cart-man-message</title><path d="M17.208,17.351a.5.5,0,0,0,.478.649h2.063a.25.25,0,0,1,.25.25V19.5a.5.5,0,0,0,.5.5h1.4a.25.25,0,0,1,.177.427l-1.479,1.479a.5.5,0,0,0-.093.581A2.4,2.4,0,0,0,22.5,24h1.25a.25.25,0,0,0,.25-.25V5.867a.249.249,0,0,0-.348-.23C19.416,7.434,18.693,12.612,17.208,17.351ZM22,14.5a1,1,0,1,1,1-1A1,1,0,0,1,22,14.5Z"/><path d="M17,11.75a1,1,0,0,0,1-1V2a2,2,0,0,0-2-2H2A2,2,0,0,0,0,2V13.5a2,2,0,0,0,2,2H8.512a.246.246,0,0,1,.169.066l2.642,2.421A1,1,0,0,0,12,18.25a1.015,1.015,0,0,0,.4-.084,1,1,0,0,0,.6-.916v-1.5a.25.25,0,0,1,.25-.25H15a1,1,0,0,0,0-2H12a1,1,0,0,0-1,1,.21.21,0,0,1-.351.155l-.973-.892A1,1,0,0,0,9,13.5H3a1,1,0,0,1-1-1V3A1,1,0,0,1,3,2H15a1,1,0,0,1,1,1v7.75A1,1,0,0,0,17,11.75Z"/><path d="M10.649,9.75a1.255,1.255,0,0,0,1.174-.822h0c.469-1.293,1.41-3.878,1.879-5.171a.75.75,0,1,0-1.41-.512l-.3.841a.25.25,0,0,1-.235.165H6a1.248,1.248,0,0,0-1.043.562A1.223,1.223,0,0,0,4.83,5.943C4.839,5.962,5.916,8.981,5.925,9a1.252,1.252,0,0,0,1.146.749Z"/><circle cx="7.499" cy="11.25" r="1"/><circle cx="10.249" cy="11.25" r="1"/></svg>