<svg xmlns="http://www.w3.org/2000/svg" viewBox="0 0 24 24"><title>shopping-bag-tag</title><path d="M18.5,9h-2.75a.25.25,0,0,1-.25-.25V5.5a5.5,5.5,0,0,0-11,0V8.75a.25.25,0,0,1-.25.25H1.5A1.5,1.5,0,0,0,0,10.5v12A1.5,1.5,0,0,0,1.5,24h17A1.5,1.5,0,0,0,20,22.5v-12A1.5,1.5,0,0,0,18.5,9Zm-12,5a.5.5,0,0,1,.5-.5h6a.5.5,0,0,1,.5.5v5a.5.5,0,0,1-.5.5H7a.5.5,0,0,1-.5-.5Zm0-8.5a3.5,3.5,0,0,1,7,0V8.75a.25.25,0,0,1-.25.25h-6.5a.25.25,0,0,1-.25-.25Z"/><path d="M23.484,1.229,22.777.521A1.789,1.789,0,0,0,20.3.52L17.766,3.056a1.738,1.738,0,0,0-.513,1.237V6a.75.75,0,0,0,.75.75h1.708a1.737,1.737,0,0,0,1.237-.512L23.484,3.7a1.748,1.748,0,0,0,0-2.474Z"/></svg>