<svg xmlns="http://www.w3.org/2000/svg" viewBox="0 0 24 24"><title>shop-like</title><path d="M10.26,15.946H7.83a.245.245,0,0,1-.192-.093.231.231,0,0,1-.041-.2L8.033,14a1.59,1.59,0,0,0-.3-1.413,1.656,1.656,0,0,0-2.545.085L2.759,16.091a.241.241,0,0,1-.2.1H.751a.75.75,0,0,0-.75.75v4.5a.748.748,0,0,0,.408.667l.594.3C3.735,23.794,4.451,24,5.957,24c.218,0,.452,0,.711-.01.351-.007.758-.017,1.246-.017,1.494,0,2.524-.878,3.066-2.628l.942-3.143,0-.013a1.739,1.739,0,0,0-1.666-2.242Z"/><path d="M23.836,5.115,22.257.967A1.51,1.51,0,0,0,20.854,0H4.233a1.506,1.506,0,0,0-1.4.966L1.252,5.114a2.493,2.493,0,0,0-.019,1.732,3.245,3.245,0,0,0,1.2,1.569.253.253,0,0,1,.108.206V11a1,1,0,0,0,2,0V9.215a.251.251,0,0,1,.214-.248A3.252,3.252,0,0,0,6.847,7.759a.251.251,0,0,1,.393,0,3.246,3.246,0,0,0,5.107,0,.251.251,0,0,1,.393,0,3.246,3.246,0,0,0,5.107,0,.251.251,0,0,1,.393,0A3.246,3.246,0,0,0,20.794,9a.232.232,0,0,1,.233.234L21,19.252a.251.251,0,0,1-.25.249H19.491a.25.25,0,0,1-.25-.25V13.5a1,1,0,0,0-1-1h-3a1,1,0,0,0-1,1v5.75a.25.25,0,0,1-.25.25,1,1,0,0,0,0,2h8a1,1,0,0,0,1-1l.04-12.293a.247.247,0,0,1,.072-.175,3.23,3.23,0,0,0,.751-1.19A2.5,2.5,0,0,0,23.836,5.115Z"/></svg>