<svg xmlns="http://www.w3.org/2000/svg" viewBox="0 0 24 24"><title>shop-barista</title><path d="M22.25,18H1.706A1.65,1.65,0,0,0,0,19.583V23.25A.75.75,0,0,0,.75,24H23.206a.75.75,0,0,0,.75-.75V19.583A1.65,1.65,0,0,0,22.25,18Z"/><path d="M2,16.5h8a.5.5,0,0,0,.5-.5V11.5A2.5,2.5,0,0,0,8,9H5.25A.25.25,0,0,1,5,8.75v-.5A.25.25,0,0,1,5.25,8H5.5a1,1,0,0,0,1-1V6a1,1,0,0,0-1-1h-3a1,1,0,0,0-1,1V7a1,1,0,0,0,1,1h.25A.25.25,0,0,1,3,8.25v.821a.219.219,0,0,1-.121.2A2.5,2.5,0,0,0,1.5,11.5V16A.5.5,0,0,0,2,16.5ZM5,11H7a.5.5,0,0,1,0,1H5a.5.5,0,0,1,0-1Z"/><path d="M17.505,8.5a6.486,6.486,0,0,0-5.452,2.954,1,1,0,1,0,1.676,1.092.146.146,0,0,1,.165-.061.148.148,0,0,1,.106.142V15.5a1,1,0,0,0,1,1h5a1,1,0,0,0,1-1V13a.25.25,0,0,1,.47-.118A4.471,4.471,0,0,1,22,15v.5a1,1,0,0,0,2,0V15A6.505,6.505,0,0,0,17.505,8.5ZM18,13H17a1,1,0,0,1-1-1V10.937a.25.25,0,0,1,.177-.238,4.511,4.511,0,0,1,2.647,0,.25.25,0,0,1,.176.239V12A1,1,0,0,1,18,13Z"/><path d="M12,3.75h.951a.25.25,0,0,1,.25.264c0,.078-.007.157-.007.236a4.254,4.254,0,1,0,.571-2.125.252.252,0,0,1-.217.125H12a.75.75,0,0,0,0,1.5ZM17.444,6.5a2.253,2.253,0,0,1-2.25-2.25,2.371,2.371,0,0,1,.018-.282.249.249,0,0,1,.248-.218h3.968a.249.249,0,0,1,.248.218,2.178,2.178,0,0,1,.018.282A2.252,2.252,0,0,1,17.444,6.5Z"/></svg>