<svg xmlns="http://www.w3.org/2000/svg" viewBox="0 0 24 24"><title>shopping-basket-remove</title><path d="M17.348,10.968a.252.252,0,0,0,.2-.184l.316-1.2a.5.5,0,0,0-.483-.627H2.379a.5.5,0,0,0-.489.6l1.276,5.994A1.956,1.956,0,0,0,5.132,17h5.79a.249.249,0,0,0,.244-.2A7.507,7.507,0,0,1,17.348,10.968Zm-6.848.647V14a.5.5,0,0,1-1,0V11.615a.5.5,0,0,1,1,0Zm-3.872,3.03a.488.488,0,0,1-.085.007.5.5,0,0,1-.492-.416L5.643,11.85a.5.5,0,0,1,.986-.168l.408,2.386A.5.5,0,0,1,6.628,14.645Z"/><path d="M19.763,6.167a1.441,1.441,0,0,0-1.439-1.439H17.182a.25.25,0,0,1-.222-.135L14.848.538a1,1,0,0,0-1.774.924l1.511,2.9a.253.253,0,0,1-.008.246.251.251,0,0,1-.214.12H5.4a.25.25,0,0,1-.221-.366l1.51-2.9A1,1,0,0,0,4.916.538L2.8,4.593a.249.249,0,0,1-.221.135H1.439a1.439,1.439,0,0,0,0,2.878H18.324A1.441,1.441,0,0,0,19.763,6.167Z"/><path d="M18.439,12.879A5.561,5.561,0,1,0,24,18.44,5.566,5.566,0,0,0,18.439,12.879Zm2.32,6.82a.75.75,0,1,1-1.061,1.06l-1.082-1.082a.249.249,0,0,0-.353,0l-1.082,1.082A.75.75,0,0,1,16.12,19.7L17.2,18.617a.25.25,0,0,0,0-.354L16.12,17.181a.75.75,0,0,1,1.061-1.061L18.263,17.2a.249.249,0,0,0,.353,0L19.7,16.12a.75.75,0,0,1,1.061,1.061l-1.082,1.082a.25.25,0,0,0,0,.354Z"/></svg>