<svg xmlns="http://www.w3.org/2000/svg" viewBox="0 0 24 24"><title>shopping-bag-user-message</title><path d="M10.082,2.75a2.691,2.691,0,0,0-2.75,2.622v.72a.25.25,0,0,1-.175.238A1.635,1.635,0,0,0,6.02,7.62l-.666,4.053a1.768,1.768,0,0,0-.023.282A1.834,1.834,0,0,0,7.2,13.75h5.771a1.833,1.833,0,0,0,1.864-1.795,1.734,1.734,0,0,0-.022-.28l-.665-4.056A1.635,1.635,0,0,0,13.007,6.33a.249.249,0,0,1-.175-.238v-.72A2.691,2.691,0,0,0,10.082,2.75Zm0,1.5a1.192,1.192,0,0,1,1.25,1.122V6a.25.25,0,0,1-.25.25h-2A.25.25,0,0,1,8.832,6V5.372A1.192,1.192,0,0,1,10.082,4.25Z"/><path d="M17.5,3V5.293a1,1,0,0,0,2,0V3a3,3,0,0,0-3-3H3A3,3,0,0,0,0,3V14a3,3,0,0,0,3,3H7.564a.249.249,0,0,1,.177.073l2.78,2.78a1.49,1.49,0,0,0,1.059.44,1.5,1.5,0,0,0,1.5-1.5V17.25a.25.25,0,0,1,.25-.25h1.75a1,1,0,0,0,0-2h-3a1,1,0,0,0-1,1v.982a.25.25,0,0,1-.427.177L8.789,15.293A1,1,0,0,0,8.082,15H3a1,1,0,0,1-1-1V3A1,1,0,0,1,3,2H16.5A1,1,0,0,1,17.5,3Z"/><path d="M17.2,17.354a.5.5,0,0,0,.478.646h2.066a.249.249,0,0,1,.25.25V19.5a.5.5,0,0,0,.5.5h1.392a.25.25,0,0,1,.176.428l-1.471,1.455a.5.5,0,0,0-.1.582A2.412,2.412,0,0,0,22.5,24H23.75a.25.25,0,0,0,.25-.25V5.805a.253.253,0,0,0-.094-.2.25.25,0,0,0-.211-.048C19.118,6.6,18.672,12.527,17.2,17.354ZM21.458,14a.961.961,0,1,1,.96-.96A.96.96,0,0,1,21.458,14Z"/></svg>