<svg xmlns="http://www.w3.org/2000/svg" viewBox="0 0 24 24"><title>shop-sale-1</title><path d="M11,19.875A.875.875,0,0,0,11.873,19V14.5a2.375,2.375,0,0,0-4.75,0V19a.875.875,0,0,0,1.75,0V17.125a.25.25,0,0,1,.25-.25h.75a.25.25,0,0,1,.25.25V19A.875.875,0,0,0,11,19.875Zm-1.875-4.75a.25.25,0,0,1-.25-.25V14.5a.625.625,0,0,1,1.25,0v.375a.25.25,0,0,1-.25.25Z"/><path d="M20.873,14A.126.126,0,0,1,21,13.875h2a.875.875,0,1,0,0-1.75H21A1.877,1.877,0,0,0,19.123,14v4A1.877,1.877,0,0,0,21,19.875h2a.875.875,0,1,0,0-1.75H21A.126.126,0,0,1,20.873,18v-.875a.25.25,0,0,1,.25-.25H22a.875.875,0,1,0,0-1.75h-.875a.25.25,0,0,1-.25-.25Z"/><path d="M14.5,12.125a.875.875,0,0,0-.875.875v5A1.877,1.877,0,0,0,15.5,19.875h2a.875.875,0,1,0,0-1.75h-2A.126.126,0,0,1,15.373,18V13A.875.875,0,0,0,14.5,12.125Z"/><path d="M5.373,17.7a2.173,2.173,0,0,0-.97-1.812L2.564,14.659a.428.428,0,0,1,.237-.784H4.5a.875.875,0,1,0,0-1.75H2.8a2.178,2.178,0,0,0-1.208,3.99l1.84,1.226a.428.428,0,0,1-.238.784H1.5a.875.875,0,0,0,0,1.75H3.2A2.18,2.18,0,0,0,5.373,17.7Z"/><path d="M21.5,23a1,1,0,0,0-1-1H3.5a1,1,0,0,0,0,2h17A1,1,0,0,0,21.5,23Z"/><path d="M17.748,5.483a.244.244,0,0,0-.009-.066c-.109-.4-1.188-4.329-1.434-5.233A.249.249,0,0,0,16.064,0H13a.25.25,0,0,0-.25.25V9.612a.249.249,0,0,0,.14.224,4.729,4.729,0,0,0,2.473.46,4.869,4.869,0,0,0,2.379-.843.018.018,0,0,0,.008-.015Z"/><path d="M23.956,5.073,22.235.967A1.5,1.5,0,0,0,20.881,0H18.134a.249.249,0,0,0-.241.316l1.329,4.832a.8.8,0,0,1,.026.2V8.92a.251.251,0,0,0,.159.233A3.349,3.349,0,0,0,24,6.183v-.91A.532.532,0,0,0,23.956,5.073Z"/><path d="M11.248.25A.25.25,0,0,0,11,0H7.932a.25.25,0,0,0-.241.184c-.246.9-1.325,4.836-1.434,5.233a.244.244,0,0,0-.009.066V9.3a.251.251,0,0,0,.113.209A4.943,4.943,0,0,0,8.65,10.3c.133.011.266.015.4.015a4.68,4.68,0,0,0,2.061-.473.249.249,0,0,0,.14-.224Z"/><path d="M4.748,5.348a.8.8,0,0,1,.026-.2L6.1.316A.249.249,0,0,0,5.862,0H3.119A1.5,1.5,0,0,0,1.765.967L.044,5.073a.532.532,0,0,0-.042.2v.91A3.247,3.247,0,0,0,1.99,9.1a3.34,3.34,0,0,0,2.6.05.25.25,0,0,0,.159-.233Z"/></svg>