<svg xmlns="http://www.w3.org/2000/svg" viewBox="0 0 24 24"><title>shopping-bag-barcode-1</title><path d="M22.25,6.5H18a.25.25,0,0,1-.25-.25V5.5a5.5,5.5,0,0,0-11,0v.75a.25.25,0,0,1-.25.25H1.75A1.5,1.5,0,0,0,.25,8V22.5A1.5,1.5,0,0,0,1.75,24h20.5a1.5,1.5,0,0,0,1.5-1.5V8A1.5,1.5,0,0,0,22.25,6.5Zm-2.413,5V19a.625.625,0,0,1-1.25,0V11.5a.625.625,0,0,1,1.25,0Zm-6.395,5.24a.625.625,0,0,1-.625-.625V11.5a.625.625,0,0,1,1.25,0v4.615A.625.625,0,0,1,13.442,16.74Zm.625,1.683V19a.625.625,0,0,1-1.25,0v-.577a.625.625,0,0,1,1.25,0ZM10.558,16.74a.625.625,0,0,1-.625-.625V11.5a.625.625,0,0,1,1.25,0v4.615A.625.625,0,0,1,10.558,16.74Zm.625,1.683V19a.625.625,0,0,1-1.25,0v-.577a.625.625,0,0,1,1.25,0Zm4.519,0a.625.625,0,0,1,1.25,0V19a.625.625,0,1,1-1.25,0Zm.625-1.683a.625.625,0,0,1-.625-.625V11.5a.625.625,0,1,1,1.25,0v4.615A.625.625,0,0,1,16.327,16.74ZM7.048,18.423a.625.625,0,0,1,1.25,0V19a.625.625,0,0,1-1.25,0Zm.625-1.683a.625.625,0,0,1-.625-.625V11.5a.625.625,0,0,1,1.25,0v4.615A.625.625,0,0,1,7.673,16.74ZM5.413,11.5V19a.625.625,0,0,1-1.25,0V11.5a.625.625,0,0,1,1.25,0Zm3.337-6a3.5,3.5,0,0,1,7,0v.75a.25.25,0,0,1-.25.25H9a.25.25,0,0,1-.25-.25Z"/></svg>