<svg xmlns="http://www.w3.org/2000/svg" viewBox="0 0 24 24"><title>shopping-cart-man-1</title><path d="M13.6,8.5a1,1,0,0,0-1-1h-1A2.236,2.236,0,0,0,9.416,9.322L9.181,10.79a.25.25,0,0,1-.247.21H1.372A1.371,1.371,0,0,0,.058,12.766l1.319,4.4A1.166,1.166,0,0,0,2.5,18H7.734a.251.251,0,0,1,.247.29l-.164,1.024A.22.22,0,0,1,7.6,19.5h-5a1,1,0,0,0,0,2h5a2.236,2.236,0,0,0,2.183-1.822l1.6-9.992A.22.22,0,0,1,11.6,9.5h1A1,1,0,0,0,13.6,8.5Z"/><circle cx="2.6" cy="23" r="1"/><circle cx="8.1" cy="23" r="1"/><path d="M14.5,4a4,4,0,0,0,7.981.392.251.251,0,0,0-.318-.265,8.676,8.676,0,0,1-2.382.36,6.179,6.179,0,0,1-4.6-2.02.25.25,0,0,0-.413.083A3.972,3.972,0,0,0,14.5,4Z"/><path d="M22.342,3.026a.041.041,0,0,0,.026-.048,4,4,0,0,0-6.693-1.807.249.249,0,0,0-.01.342C17.405,3.48,19.536,3.96,22.342,3.026Z"/><path d="M18.5,8.5A5.506,5.506,0,0,0,13,14v3.5a.5.5,0,0,0,.5.5h1.81a.25.25,0,0,1,.249.229L16,23.542a.5.5,0,0,0,.5.458h4a.5.5,0,0,0,.5-.458l.443-5.313A.25.25,0,0,1,21.69,18H23.5a.5.5,0,0,0,.5-.5V14A5.506,5.506,0,0,0,18.5,8.5Z"/></svg>