<svg xmlns="http://www.w3.org/2000/svg" viewBox="0 0 24 24"><title>shop-pin</title><path d="M20.747,10.9a.25.25,0,0,0-.245.25v5.287a.563.563,0,0,1-.563.563H4.065a.563.563,0,0,1-.563-.563v-5.29a.25.25,0,0,0-.245-.25,4.8,4.8,0,0,1-1.426-.249.251.251,0,0,0-.329.238v8.669a1.75,1.75,0,0,0,2,1.726H8.916a.249.249,0,0,1,.192.09l1.741,2.088a1.5,1.5,0,0,0,2.3,0L14.9,21.371a.249.249,0,0,1,.192-.09H20.5a1.75,1.75,0,0,0,2-1.726V10.888a.25.25,0,0,0-.33-.237A4.788,4.788,0,0,1,20.747,10.9Z"/><path d="M0,5.273v.909A3.246,3.246,0,0,0,1.989,9.1,3.406,3.406,0,0,0,5.247,8.82a.251.251,0,0,1,.313.036,4.9,4.9,0,0,0,3.487,1.456,4.618,4.618,0,0,0,2.8-.93.251.251,0,0,1,.3,0,4.668,4.668,0,0,0,3.21.914A4.8,4.8,0,0,0,18.44,8.858a.252.252,0,0,1,.314-.038,3.392,3.392,0,0,0,3.252.287A3.294,3.294,0,0,0,24,6.182V5.273a.52.52,0,0,0-.042-.2l-.754-1.8L22.235.966A1.5,1.5,0,0,0,20.881,0H3.119A1.5,1.5,0,0,0,1.765.966L.8,3.273l-.754,1.8A.52.52,0,0,0,0,5.273Z"/></svg>