<svg xmlns="http://www.w3.org/2000/svg" viewBox="0 0 24 24"><title>shopping-basket-star</title><path d="M11.691,15.708a2.547,2.547,0,0,1,2.374-1.573H15.17a.248.248,0,0,0,.229-.151l.738-1.708.018-.041.02-.041a2.617,2.617,0,0,1,1.433-1.285.255.255,0,0,0,.155-.171l.107-.406a.5.5,0,0,0-.483-.627H2.381a.5.5,0,0,0-.49.6L3.168,16.3A1.956,1.956,0,0,0,5.134,17.75H11.38a.25.25,0,0,0,.239-.325A2.52,2.52,0,0,1,11.691,15.708ZM10.5,12.364V14.75a.5.5,0,0,1-1,0V12.364a.5.5,0,0,1,1,0ZM6.63,15.4a.5.5,0,0,1-.085.007.5.5,0,0,1-.492-.417L5.644,12.6a.5.5,0,0,1,.987-.168l.408,2.386A.5.5,0,0,1,6.63,15.4Z"/><path d="M19.765,6.917a1.441,1.441,0,0,0-1.439-1.439H17.184a.25.25,0,0,1-.222-.135L14.849,1.288a1,1,0,1,0-1.773.924l1.511,2.9a.251.251,0,0,1-.222.366H5.4a.251.251,0,0,1-.222-.366l1.511-2.9a1,1,0,1,0-1.773-.924L2.805,5.343a.249.249,0,0,1-.222.135H1.441a1.439,1.439,0,0,0,0,2.878H18.326A1.441,1.441,0,0,0,19.765,6.917Z"/><path d="M22.933,15.635H20.842a.248.248,0,0,1-.229-.151L19.486,12.87l-.011-.023a1.094,1.094,0,0,0-1.961.023l-1.128,2.614a.25.25,0,0,1-.23.151H14.065a1.041,1.041,0,0,0-.987.642,1.079,1.079,0,0,0,.27,1.182L15.184,19.1a.249.249,0,0,1,.063.286l-1.024,2.355a1.063,1.063,0,0,0,.266,1.228,1.081,1.081,0,0,0,1.275.14l2.613-1.471a.251.251,0,0,1,.246,0L21.237,23.1a1.079,1.079,0,0,0,1.274-.14,1.06,1.06,0,0,0,.267-1.227l-1.024-2.356a.249.249,0,0,1,.063-.286l1.851-1.651a1.067,1.067,0,0,0,.253-1.165A1.041,1.041,0,0,0,22.933,15.635Z"/></svg>