<svg xmlns="http://www.w3.org/2000/svg" viewBox="0 0 24 24"><title>shopping-bag-download</title><path d="M23.823,19.66,22.245,7.032V7.025a.766.766,0,0,0-.028-.124l0-.01-.005-.017L21.167,3.94a.744.744,0,0,0-.041-.091A1.729,1.729,0,0,0,19.6,2.875h-1a.75.75,0,0,0,0,1.5h1a.234.234,0,0,1,.172.126l.547,1.54a.251.251,0,0,1-.236.334H17.352a.25.25,0,0,1-.25-.25v-1a5,5,0,0,0-10,0v1a.25.25,0,0,1-.25.25H4.01a.25.25,0,0,1-.231-.347l.633-1.494a.255.255,0,0,1,.19-.159h1a.75.75,0,0,0,0-1.5h-1A1.752,1.752,0,0,0,3.054,3.9L1.811,6.83l0,.008c-.007.016-.013.033-.019.051l0,.014a.7.7,0,0,0-.027.127v0L.177,19.66A3.75,3.75,0,0,0,3.9,23.875H20.1a3.75,3.75,0,0,0,3.721-4.215Zm-15.1-4.535h1.485a.25.25,0,0,0,.25-.25V11.3a.294.294,0,0,1,.294-.294H13.1a.294.294,0,0,1,.294.294v3.573a.25.25,0,0,0,.25.25h1.485a.294.294,0,0,1,.228.479l-3.2,3.946a.3.3,0,0,1-.457,0L8.494,15.6A.294.294,0,0,1,8.722,15.125Zm.38-10a3,3,0,0,1,6,0v1a.25.25,0,0,1-.25.25h-5.5a.25.25,0,0,1-.25-.25Z"/></svg>