<svg xmlns="http://www.w3.org/2000/svg" viewBox="0 0 24 24"><title>shopping-bag-fire</title><path d="M9.784,19a.25.25,0,0,0,.249-.273C10.011,18.488,10,18.245,10,18a11.037,11.037,0,0,1,5.988-9.695.251.251,0,0,0,.132-.245l-.055-.6A1.573,1.573,0,0,0,14.5,6H12.75a.25.25,0,0,1-.25-.25V4a4,4,0,0,0-8,0V5.75A.25.25,0,0,1,4.25,6H2.5A1.57,1.57,0,0,0,.936,7.452L.694,10.067.117,18.733a.248.248,0,0,0,.067.188A.25.25,0,0,0,.366,19ZM6.5,4a2,2,0,0,1,4,0V5.75a.25.25,0,0,1-.25.25H6.75a.25.25,0,0,1-.25-.25Z"/><path d="M10.3,20.182a.248.248,0,0,0-.24-.182H.266a.25.25,0,0,0-.249.233l-.012.18,0,.151A2.439,2.439,0,0,0,2.436,23h8.823a.25.25,0,0,0,.2-.394A7.983,7.983,0,0,1,10.3,20.182Z"/><path d="M21.308,12.87a1.5,1.5,0,0,0-1.857.151.25.25,0,0,1-.418-.219,2.345,2.345,0,0,1,.3-.846,1.5,1.5,0,0,0-1.911-2.128h0A9.183,9.183,0,0,0,12,18a6,6,0,0,0,12,0A6.209,6.209,0,0,0,21.308,12.87ZM18,22a4,4,0,0,1-4-4,7.02,7.02,0,0,1,2.6-5.322.25.25,0,0,1,.409.207A4.158,4.158,0,0,0,18.4,16.246l.5.449a.251.251,0,0,0,.334,0l.5-.451a4.021,4.021,0,0,0,.794-1.02.253.253,0,0,1,.191-.126.25.25,0,0,1,.214.082A4.272,4.272,0,0,1,22,18,4,4,0,0,1,18,22Z"/></svg>