<svg id="Bold" xmlns="http://www.w3.org/2000/svg" viewBox="0 0 24 24"><title>shorts-2</title><path d="M22.422,3a.5.5,0,0,0,.5-.526L22.841.948a1,1,0,0,0-1-.948H2.158a1,1,0,0,0-1,.947l-.08,1.527a.5.5,0,0,0,.5.526Z"/><path d="M24,22.947,23.053,4.974a.5.5,0,0,0-.5-.474H1.447a.5.5,0,0,0-.5.474L0,22.949A1,1,0,0,0,1,24H8.538a1,1,0,0,0,.991-.862l1.26-9.083a1.223,1.223,0,0,1,2.422,0l1.26,9.083a1.006,1.006,0,0,0,.991.862H23a1,1,0,0,0,1-1.053ZM7.493,7.12A4.963,4.963,0,0,1,3.151,11a.535.535,0,0,1-.594-.558l.179-3.433A.533.533,0,0,1,3.268,6.5h3.7a.534.534,0,0,1,.527.62Zm13.838,3.735a.536.536,0,0,1-.425.142A4.963,4.963,0,0,1,16.564,7.12a.534.534,0,0,1,.526-.62h3.7a.534.534,0,0,1,.533.506l.178,3.433A.532.532,0,0,1,21.331,10.855Z"/></svg>