<svg id="Bold" xmlns="http://www.w3.org/2000/svg" viewBox="0 0 24 24"><title>shorts-1</title><path d="M22.107,2a.5.5,0,0,0,.5-.534L22.57.934a1,1,0,0,0-1-.934H2.428a1,1,0,0,0-1,.933l-.036.533a.5.5,0,0,0,.5.534Z"/><path d="M24,22.026,22.775,3.966a.5.5,0,0,0-.5-.466H13.254a.25.25,0,0,0-.24.319l1.707,5.975a.75.75,0,0,1-1.442.412L12.24,6.571a.25.25,0,0,0-.48,0l-1.039,3.635a.75.75,0,0,1-1.442-.412l1.707-5.975a.25.25,0,0,0-.24-.319H1.724a.5.5,0,0,0-.5.466L0,22.027A1,1,0,0,0,.9,23.087l8.605.907a1.006,1.006,0,0,0,1.08-.765c.074-.316.167-1.111.312-2.381.18-1.581.405-3.549.621-4.463a.519.519,0,0,1,.974,0c.216.915.441,2.884.621,4.466.145,1.269.238,2.063.312,2.38a1,1,0,0,0,.973.77.955.955,0,0,0,.106-.006l8.606-.907A1,1,0,0,0,24,22.026Z"/></svg>