<svg id="Bold" xmlns="http://www.w3.org/2000/svg" viewBox="0 0 24 24"><title>show-hat-magician-1</title><path d="M18.358,17.652A22.955,22.955,0,0,1,12,18.5a22.955,22.955,0,0,1-6.358-.848A.5.5,0,0,0,5,18.131v3.627a1,1,0,0,0,.43.822C6.045,23.007,7.916,24,12,24s5.955-.993,6.569-1.42A1,1,0,0,0,19,21.758V18.131a.5.5,0,0,0-.642-.479Z"/><path d="M2,2.25A.25.25,0,0,1,2.25,2H2.5a.5.5,0,0,0,0-1H2.25A.25.25,0,0,1,2,.75V.5a.5.5,0,0,0-1,0V.75A.25.25,0,0,1,.75,1H.5a.5.5,0,0,0,0,1H.75A.25.25,0,0,1,1,2.25V2.5a.5.5,0,0,0,1,0Z"/><path d="M21.5,5.5h-.25A.25.25,0,0,1,21,5.25V5a.5.5,0,0,0-1,0v.25a.25.25,0,0,1-.25.25H19.5a.5.5,0,0,0,0,1h.25a.25.25,0,0,1,.25.25V7a.5.5,0,0,0,1,0V6.75a.25.25,0,0,1,.25-.25h.25a.5.5,0,0,0,0-1Z"/><path d="M23.917.6A1,1,0,0,0,22.6.084l-11.5,5A1,1,0,0,0,11.5,7a.988.988,0,0,0,.4-.083l11.5-5A1,1,0,0,0,23.917.6Z"/><path d="M12,9C6.477,9,2,10.791,2,13s4.477,4,10,4,10-1.791,10-4S17.523,9,12,9Zm0,5.5c-3.722,0-6-.971-6-1.5s2.278-1.5,6-1.5,6,.971,6,1.5S15.722,14.5,12,14.5Z"/><path d="M2.25,5a.752.752,0,0,0,.414.671l1.18.589a2,2,0,0,1,.9.9l.59,1.18a.75.75,0,0,0,1.342,0l.59-1.18a2,2,0,0,1,.9-.9l1.179-.589a.75.75,0,0,0,0-1.342L8.156,3.74a2,2,0,0,1-.9-.895l-.59-1.18a.78.78,0,0,0-1.342,0l-.59,1.18a2,2,0,0,1-.895.9l-1.18.589A.752.752,0,0,0,2.25,5Z"/></svg>