<svg id="Bold" xmlns="http://www.w3.org/2000/svg" viewBox="0 0 24 24"><title>skiing-cross-country</title><circle cx="17.752" cy="2.491" r="2.25"/><path d="M22.209,10.126a6.791,6.791,0,0,1-1.281.556.253.253,0,0,0-.172.212l-.345,3.217L19.643,14a1,1,0,1,0-.283,1.98l.838.12-.114,1.063c-.091.855.442,1.095,1,1.1a.939.939,0,0,0,.983-.887l.106-.993s.776.107.823.107a1,1,0,0,0,.141-1.99l-.751-.107.447-4.171a.25.25,0,0,0-.111-.236.252.252,0,0,0-.261-.008Z"/><path d="M20.751,19.259a1,1,0,0,0-1,1,1.5,1.5,0,0,1-1.5,1.5H4.257a1,1,0,0,0,0,2h14a3.5,3.5,0,0,0,3.5-3.5A1,1,0,0,0,20.751,19.259Z"/><path d="M6.266,20.575a3.479,3.479,0,0,0,2.125-.721,1,1,0,1,0-1.216-1.587,1.5,1.5,0,0,1-2.1-.277L1.792,13.714A1,1,0,1,0,.207,14.931l3.279,4.276A3.493,3.493,0,0,0,6.266,20.575Z"/><path d="M4.456,10.741a1.423,1.423,0,0,0,1.861-.172L8.145,8.741a2.484,2.484,0,0,1,1.768-.732H12.03a.25.25,0,0,1,.177.427l-3.84,3.84a2.481,2.481,0,0,1-1.768.733H3.334a.25.25,0,0,0-.2.4l1.917,2.5a.251.251,0,0,0,.2.1H6.6A5.414,5.414,0,0,0,9.788,14.96a.25.25,0,0,1,.323.026L12.522,17.4a2.488,2.488,0,0,1,.732,1.769v1.093a.25.25,0,0,0,.25.25H16a.25.25,0,0,0,.25-.25V19.166a5.464,5.464,0,0,0-1.611-3.89l-2.34-2.34a.252.252,0,0,1,0-.354l3.263-3.264a.25.25,0,0,1,.3-.041,5.971,5.971,0,0,0,2.914.759A6.75,6.75,0,0,0,22.5,8.811a1.5,1.5,0,0,0,.683-1.759L23.333,5.6l.279-2.606a1,1,0,0,0-.887-1.1.989.989,0,0,0-1.1.887l-.244,2.277L21.269,6.1c-.671.229-1.284.94-2.5.94a2.942,2.942,0,0,1-1.916-.707,5.5,5.5,0,0,0-3.577-1.324H9.913A5.462,5.462,0,0,0,6.024,6.62C3.838,8.808,4.207,8.4,4,8.741H1a1,1,0,0,0,0,2Z"/></svg>