<svg id="Bold" xmlns="http://www.w3.org/2000/svg" viewBox="0 0 24 24"><title>skiing-snowboard</title><path d="M2.015,4.455.321,5.634a.751.751,0,1,0,.858,1.232l1.3-.906a.25.25,0,0,1,.393.205V7.75a.75.75,0,0,0,1.5,0V6.165a.25.25,0,0,1,.393-.205l1.3.906a.75.75,0,0,0,.857-1.232L5.23,4.455a.25.25,0,0,1,0-.41L6.923,2.866a.75.75,0,0,0-.857-1.232l-1.3.906a.25.25,0,0,1-.393-.205V.75a.75.75,0,0,0-1.5,0V2.335a.25.25,0,0,1-.393.205l-1.3-.906A.751.751,0,0,0,.321,2.866L2.015,4.045a.25.25,0,0,1,0,.41Z"/><path d="M8.346,10.216a.251.251,0,0,0-.273.054l-6.9,6.9a4,4,0,0,0,5.656,5.658L8.207,21.45a1,1,0,0,0,.293-.707v-10.3A.251.251,0,0,0,8.346,10.216Z"/><path d="M13.346,5.216a.251.251,0,0,0-.273.054l-2.28,2.28a1,1,0,0,0-.293.707v10.3a.25.25,0,0,0,.427.177l2.28-2.28a1,1,0,0,0,.293-.707V5.447A.251.251,0,0,0,13.346,5.216Z"/><path d="M22.828,1.171a4,4,0,0,0-5.656,0L15.793,2.55a1,1,0,0,0-.293.707v10.3a.25.25,0,0,0,.427.177l6.9-6.9A4,4,0,0,0,22.828,1.171Z"/></svg>