<svg id="Bold" xmlns="http://www.w3.org/2000/svg" viewBox="0 0 24 24"><title>skiing-chest-slide</title><circle cx="21.375" cy="10.896" r="2.5"/><path d="M20.619,20.263a.249.249,0,0,0-.234.04,1.45,1.45,0,0,1-1.466.22l-17.421-7a1,1,0,1,0-.746,1.855l17.427,7a3.518,3.518,0,0,0,3.137-.284,3.408,3.408,0,0,0,1.336-1.571.25.25,0,0,0-.329-.328,2.293,2.293,0,0,1-1.7.066Z"/><path d="M13.6,14.779a.249.249,0,0,0-.145-.159L1.5,9.774a1,1,0,1,0-.752,1.853l13.565,5.5a.25.25,0,0,0,.29-.387A5.816,5.816,0,0,1,13.6,14.779Z"/><path d="M22.046,16.554l-3.819-1.91a1.5,1.5,0,0,1-.772-.929l-.637-2.231a1.5,1.5,0,0,0-.944-1L8.481,7.765a1.5,1.5,0,0,1-.7-.516L3.826,1.976a1.5,1.5,0,0,0-2.4,1.8L5.381,9.05a4.484,4.484,0,0,0,2.1,1.543l6.663,2.46.425,1.485a4.506,4.506,0,0,0,2.314,2.789L20.7,19.238a1.5,1.5,0,1,0,1.342-2.684Z"/></svg>