<svg id="Bold" xmlns="http://www.w3.org/2000/svg" viewBox="0 0 24 24"><title>skiing-skiis</title><path d="M3.333,20.057A.5.5,0,0,1,3,19.585V7.117a.5.5,0,0,1,.167-.373A1,1,0,0,0,3.5,6V1.5a1.5,1.5,0,0,0-3,0V6a1,1,0,0,0,.333.744A.5.5,0,0,1,1,7.117V19.585a.5.5,0,0,1-.333.472,1,1,0,0,0,0,1.886A.5.5,0,0,1,1,22.414V23a1,1,0,0,0,2,0v-.586a.5.5,0,0,1,.333-.471,1,1,0,0,0,0-1.886Z"/><path d="M23.333,20.057A.5.5,0,0,1,23,19.585V7.117a.5.5,0,0,1,.167-.373A1,1,0,0,0,23.5,6V1.5a1.5,1.5,0,0,0-3,0V6a1,1,0,0,0,.333.744A.5.5,0,0,1,21,7.117V19.585a.5.5,0,0,1-.333.472,1,1,0,0,0,0,1.886.5.5,0,0,1,.333.471V23a1,1,0,0,0,2,0v-.586a.5.5,0,0,1,.333-.471,1,1,0,0,0,0-1.886Z"/><path d="M10.808,10.021a.5.5,0,0,0-.429-.091l-5,1.248A.5.5,0,0,0,5,11.663v2.424a.5.5,0,0,0,.621.485l5-1.248A.5.5,0,0,0,11,12.839V10.415A.5.5,0,0,0,10.808,10.021Z"/><path d="M8,0A3,3,0,0,0,5,3V9.087a.5.5,0,0,0,.621.485l5-1.248A.5.5,0,0,0,11,7.839V3A3,3,0,0,0,8,0Z"/><path d="M10.808,15.021a.5.5,0,0,0-.429-.091l-5,1.248A.5.5,0,0,0,5,16.663V23a1,1,0,0,0,1,1h4a1,1,0,0,0,1-1V15.415A.5.5,0,0,0,10.808,15.021Z"/><path d="M18.621,11.178l-5-1.248a.5.5,0,0,0-.621.485v2.424a.5.5,0,0,0,.379.485l5,1.248A.5.5,0,0,0,19,14.087V11.663A.5.5,0,0,0,18.621,11.178Z"/><path d="M16,0a3,3,0,0,0-3,3V7.839a.5.5,0,0,0,.379.485l5,1.248A.5.5,0,0,0,19,9.087V3A3,3,0,0,0,16,0Z"/><path d="M18.621,16.178l-5-1.248a.5.5,0,0,0-.621.485V23a1,1,0,0,0,1,1h4a1,1,0,0,0,1-1V16.663A.5.5,0,0,0,18.621,16.178Z"/></svg>