<svg id="Bold" xmlns="http://www.w3.org/2000/svg" viewBox="0 0 24 24"><title>skiing-ice-skates</title><path d="M8.005,10.779a.417.417,0,0,0-.417.417v.622A3.817,3.817,0,0,0,11.4,15.631h8.652a.208.208,0,0,0,.175-.1.2.2,0,0,0,.014-.2,4.854,4.854,0,0,0-4.4-2.824h-1.11a4.01,4.01,0,0,1-3.178-1.569.419.419,0,0,0-.33-.163Z"/><path d="M10.708,6.2a.417.417,0,0,0-.417-.417H8.005a.417.417,0,0,0-.417.417V9.113a.417.417,0,0,0,.417.416h2.338a.417.417,0,0,0,.412-.483,3.391,3.391,0,0,1-.047-.556Z"/><path d="M23,19.5a1,1,0,0,0-1,1A1.5,1.5,0,0,1,20.5,22h-3a.5.5,0,0,1-.5-.5v-1a.5.5,0,0,1,.5-.5h.556a2.639,2.639,0,0,0,2.636-2.635.484.484,0,0,0-.485-.484H11.4a5.068,5.068,0,0,1-5.062-5.063v-6.1a1.181,1.181,0,0,1,1.18-1.18h2.773a.417.417,0,0,0,.417-.416V.971A.972.972,0,0,0,9.4.061L1.63,2.973a.978.978,0,0,0-.63.91V17.365A2.638,2.638,0,0,0,3.635,20H5a.5.5,0,0,1,.5.5v1A.5.5,0,0,1,5,22H1a1,1,0,0,0,0,2H20.5A3.5,3.5,0,0,0,24,20.5,1,1,0,0,0,23,19.5Zm-15.5,1A.5.5,0,0,1,8,20h6.5a.5.5,0,0,1,.5.5v1a.5.5,0,0,1-.5.5H8a.5.5,0,0,1-.5-.5Z"/></svg>