<svg xmlns="http://www.w3.org/2000/svg" viewBox="0 0 24 24"><title>smart-house-music</title><path d="M23.773,6.882,15.416.15a.65.65,0,0,0-.831,0L6.228,6.882a.63.63,0,0,0-.189.7.643.643,0,0,0,.6.416H8.5a.5.5,0,0,1,.5.5v5.866A.639.639,0,0,0,9.643,15H20.357A.638.638,0,0,0,21,14.366V8.5a.5.5,0,0,1,.5-.5h1.857a.643.643,0,0,0,.6-.416A.629.629,0,0,0,23.773,6.882ZM19.25,10A1.75,1.75,0,1,1,17.5,8.25.249.249,0,0,0,17.75,8V5.955a.25.25,0,0,0-.3-.247l-3.408,1.1c-.21.045-.3.149-.3.27V12A1.75,1.75,0,1,1,12,10.25h.028a.219.219,0,0,0,.222-.219V7.08a1.754,1.754,0,0,1,1.428-1.721l3.409-1.1a1.768,1.768,0,0,1,1.531.351,1.74,1.74,0,0,1,.632,1.347Z"/><path d="M2.414,14.057a1.281,1.281,0,0,1,1.672,0,.75.75,0,1,0,1-1.114,2.819,2.819,0,0,0-3.68,0,.75.75,0,1,0,1,1.114Z"/><path d="M6.219,10.793a4.871,4.871,0,0,0-5.938,0,.75.75,0,1,0,.938,1.17,3.3,3.3,0,0,1,4.062,0,.75.75,0,1,0,.938-1.17Z"/><path d="M4.75,15.25h-3A1.752,1.752,0,0,0,0,17v5.25A1.752,1.752,0,0,0,1.75,24h3A1.752,1.752,0,0,0,6.5,22.25V17A1.752,1.752,0,0,0,4.75,15.25Zm.25,7a.25.25,0,0,1-.25.25h-3a.25.25,0,0,1-.25-.25V17a.25.25,0,0,1,.25-.25h3A.25.25,0,0,1,5,17Z"/></svg>