<svg xmlns="http://www.w3.org/2000/svg" viewBox="0 0 24 24"><title>smart-house-ventilator</title><path d="M23.772,6.882,15.416.15a.652.652,0,0,0-.832,0L6.228,6.882a.628.628,0,0,0-.189.7.643.643,0,0,0,.6.416H8.5a.5.5,0,0,1,.5.5v5.866A.639.639,0,0,0,9.643,15H20.357A.638.638,0,0,0,21,14.366V8.5a.5.5,0,0,1,.5-.5h1.857a.643.643,0,0,0,.6-.416A.628.628,0,0,0,23.772,6.882Zm-5.133,1.16a2.091,2.091,0,0,1-1.8.949.251.251,0,0,0-.2.113.248.248,0,0,0-.025.224l1.252,3.337a.251.251,0,0,1-.232.338,2.621,2.621,0,0,1-1.685-.364,2.1,2.1,0,0,1-.949-1.8.249.249,0,0,0-.337-.22l-3.337,1.252A.251.251,0,0,1,11,11.643a2.63,2.63,0,0,1,.364-1.685,2.091,2.091,0,0,1,1.8-.949.251.251,0,0,0,.2-.113.248.248,0,0,0,.025-.224L12.126,5.335a.249.249,0,0,1,.027-.229.251.251,0,0,1,.2-.109,2.62,2.62,0,0,1,1.685.364,2.1,2.1,0,0,1,.949,1.8.249.249,0,0,0,.337.22l3.337-1.252A.251.251,0,0,1,19,6.356,2.615,2.615,0,0,1,18.639,8.042Z"/><path d="M2.414,14.057a1.281,1.281,0,0,1,1.672,0,.75.75,0,1,0,1-1.114,2.819,2.819,0,0,0-3.68,0,.75.75,0,1,0,1,1.114Z"/><path d="M6.219,10.793a4.871,4.871,0,0,0-5.938,0,.75.75,0,1,0,.938,1.17,3.3,3.3,0,0,1,4.062,0,.75.75,0,1,0,.938-1.17Z"/><path d="M4.75,15.25h-3A1.752,1.752,0,0,0,0,17v5.25A1.752,1.752,0,0,0,1.75,24h3A1.752,1.752,0,0,0,6.5,22.25V17A1.752,1.752,0,0,0,4.75,15.25Zm.25,7a.25.25,0,0,1-.25.25h-3a.25.25,0,0,1-.25-.25V17a.25.25,0,0,1,.25-.25h3A.25.25,0,0,1,5,17Z"/></svg>