<svg xmlns="http://www.w3.org/2000/svg" viewBox="0 0 24 24"><title>smartwatch-shopping-basket</title><path d="M16.256,6.8a.751.751,0,0,0-.961.449l-.306.841a.248.248,0,0,1-.235.165H9a1.242,1.242,0,0,0-1.042.561,1.227,1.227,0,0,0-.124,1.138L8.922,12.99a1.245,1.245,0,0,0,1.149.76h3.578a1.256,1.256,0,0,0,1.176-.823L16.7,7.756A.749.749,0,0,0,16.256,6.8Z"/><circle cx="10" cy="15.5" r="1"/><circle cx="13.5" cy="15.5" r="1"/><path d="M18.5,2.5H17.415a1,1,0,0,1-.949-.684L15.975.342A.5.5,0,0,0,15.5,0h-7a.5.5,0,0,0-.475.342L7.534,1.816a1,1,0,0,1-.949.684H5.5a3,3,0,0,0-3,3v13a3,3,0,0,0,3,3H6.585a1,1,0,0,1,.949.684l.491,1.474A.5.5,0,0,0,8.5,24h7a.5.5,0,0,0,.475-.342l.491-1.474a1,1,0,0,1,.949-.684H18.5a3,3,0,0,0,3-3V5.5A3,3,0,0,0,18.5,2.5Zm1,16a1,1,0,0,1-1,1H5.5a1,1,0,0,1-1-1V5.5a1,1,0,0,1,1-1h13a1,1,0,0,1,1,1Z"/></svg>