<svg id="Bold" xmlns="http://www.w3.org/2000/svg" viewBox="0 0 24 24"><title>smart-light-smartphone</title><path d="M22,0H14.5a2,2,0,0,0-2,2v.5A.5.5,0,0,0,13,3h1a.5.5,0,0,0,.5-.5A.5.5,0,0,1,15,2h6.5a.5.5,0,0,1,.5.5V16a.5.5,0,0,1-.5.5H15a.5.5,0,0,1-.5-.5V14.5A.5.5,0,0,0,14,14H13a.5.5,0,0,0-.5.5V18a2,2,0,0,0,2,2H22a2,2,0,0,0,2-2V2A2,2,0,0,0,22,0Z"/><path d="M5.75,9A5.757,5.757,0,0,0,0,14.75a5.57,5.57,0,0,0,1.56,4.01A.751.751,0,0,0,2.1,19H4.5a.5.5,0,0,0,.5-.5V16.034a.25.25,0,0,0-.111-.208L3.08,14.62a.749.749,0,1,1,.84-1.24l1.691,1.128a.251.251,0,0,0,.278,0L7.58,13.38a.749.749,0,0,1,.84,1.24L6.611,15.826a.25.25,0,0,0-.111.208V18.5A.5.5,0,0,0,7,19H9.4a.751.751,0,0,0,.54-.24,5.57,5.57,0,0,0,1.56-4.01A5.757,5.757,0,0,0,5.75,9Z"/><path d="M7.75,20h-4a.5.5,0,0,0-.5.5,2.492,2.492,0,0,0,1.591,2.316A.251.251,0,0,1,5,23.049v.2a.75.75,0,0,0,1.5,0v-.2a.251.251,0,0,1,.159-.233A2.493,2.493,0,0,0,8.25,20.5.5.5,0,0,0,7.75,20Z"/><path d="M13.265,12.289a.751.751,0,0,0,.381-.99A8.279,8.279,0,0,0,9.45,7.1a.75.75,0,0,0-.608,1.371,6.786,6.786,0,0,1,3.433,3.433.749.749,0,0,0,.99.381Z"/><path d="M9.4,5.469a9.771,9.771,0,0,1,5.887,5.9.751.751,0,0,0,.707.5.761.761,0,0,0,.251-.043.749.749,0,0,0,.455-.958,11.272,11.272,0,0,0-6.794-6.81A.75.75,0,0,0,9.4,5.469Z"/></svg>