<svg xmlns="http://www.w3.org/2000/svg" viewBox="0 0 24 24"><title>smart-house-phone-remote</title><path d="M23.7,9.6,12.554.2a.859.859,0,0,0-1.108,0L.3,9.6A.854.854,0,0,0,.858,11.1H3.026a.5.5,0,0,1,.5.5v8.041a.857.857,0,0,0,.858.855H7.25a.25.25,0,0,0,.25-.25v-4a2.994,2.994,0,0,1,1.231-2.42.25.25,0,0,0,.083-.3,2.057,2.057,0,0,1-.129-.458.249.249,0,0,0-.129-.182A2,2,0,0,1,8.249,9.57a6.159,6.159,0,0,1,7.5,0,2,2,0,0,1-.307,3.323.251.251,0,0,0-.129.182,2.057,2.057,0,0,1-.129.458.249.249,0,0,0,.083.3A3,3,0,0,1,16.5,16.252v4a.25.25,0,0,0,.25.25h2.964a.856.856,0,0,0,.857-.855V11.6a.5.5,0,0,1,.5-.5h2.071A.854.854,0,0,0,23.7,9.6Z"/><path d="M11.164,13.574a1.281,1.281,0,0,1,1.672,0,.751.751,0,0,0,1-1.116,2.822,2.822,0,0,0-3.68,0,.751.751,0,0,0,1,1.116Z"/><path d="M9.969,11.661a3.3,3.3,0,0,1,4.062,0,.75.75,0,0,0,.938-1.17,4.871,4.871,0,0,0-5.938,0,.75.75,0,0,0,.938,1.17Z"/><path d="M15.25,16.252A1.753,1.753,0,0,0,13.5,14.5h-3a1.753,1.753,0,0,0-1.75,1.75v6A1.752,1.752,0,0,0,10.5,24h3a1.752,1.752,0,0,0,1.75-1.75ZM13.5,22.5h-3a.25.25,0,0,1-.25-.25v-6A.251.251,0,0,1,10.5,16h3a.251.251,0,0,1,.25.25v6A.25.25,0,0,1,13.5,22.5Z"/></svg>