<svg xmlns="http://www.w3.org/2000/svg" viewBox="0 0 24 24"><title>smart-house-phone</title><path d="M6.825,16.584a.154.154,0,0,0-.1-.273H2.479a.414.414,0,0,1-.417-.411V3.16a.414.414,0,0,1,.417-.411h9.167a.413.413,0,0,1,.416.411V8a.251.251,0,0,0,.367.221,3.446,3.446,0,0,1,.934-.335.25.25,0,0,0,.2-.245V2.749A2.44,2.44,0,0,0,11.125.311H3A2.441,2.441,0,0,0,.562,2.749V17.374A2.44,2.44,0,0,0,3,19.811H5.325a.248.248,0,0,0,.183-.08.244.244,0,0,0,.066-.189A3.5,3.5,0,0,1,6.825,16.584Z"/><path d="M23.438,21.811a4.881,4.881,0,0,0-4.876-4.875H16.438V11.311a2.375,2.375,0,1,0-4.75,0v6.715a.251.251,0,0,1-.443.16l-.356-.428a2.375,2.375,0,1,0-3.653,3.036l2.143,2.577a.875.875,0,0,0,1.346-1.119L8.582,19.675a.625.625,0,1,1,.961-.8L11.89,21.7a.875.875,0,0,0,1.548-.559V11.311a.625.625,0,1,1,1.25,0v6.5a.874.874,0,0,0,.874.875h3a3.13,3.13,0,0,1,3.126,3.125v1a.875.875,0,1,0,1.75,0Z"/><path d="M10.98,9.33,7.463,6.708a.233.233,0,0,0-.3,0L3.645,9.33a.224.224,0,0,0-.068.253.231.231,0,0,0,.218.15H4.839a.249.249,0,0,1,.25.25v2.144a.342.342,0,0,0,.342.342h.881a.249.249,0,0,0,.25-.25v-.908a.75.75,0,1,1,1.5,0v.908a.25.25,0,0,0,.25.25h.882a.343.343,0,0,0,.342-.342V9.983a.249.249,0,0,1,.25-.25H10.83a.235.235,0,0,0,.218-.15A.228.228,0,0,0,10.98,9.33Z"/></svg>