<svg id="Bold" xmlns="http://www.w3.org/2000/svg" viewBox="0 0 24 24"><title>social-media-tuenti</title><path d="M21.49,3a.51.51,0,0,0-.17-.18A9.29,9.29,0,0,0,14.61,0H9.39A9.4,9.4,0,0,0,0,9.39v5.22a9.38,9.38,0,0,0,3.16,7A9.26,9.26,0,0,0,9.39,24H21.52A2.48,2.48,0,0,0,24,21.52V9.39A9.37,9.37,0,0,0,21.49,3ZM10.4,14.18,7.85,18.37a.75.75,0,1,1-1.28-.78L9.11,13.4a.75.75,0,1,1,1.28.78ZM9.24,10.07a1.5,1.5,0,1,1,1.5-1.51A1.5,1.5,0,0,1,9.24,10.07Zm6.34,8.33a.75.75,0,0,1-1.23-.86,8.82,8.82,0,0,0-.43-10.66.75.75,0,1,1,1.16-1,10.32,10.32,0,0,1,.5,12.48Z"/></svg>