<svg id="Bold" xmlns="http://www.w3.org/2000/svg" viewBox="0 0 24 24"><title>social-media-gowalla-2</title><path d="M20.48,10h-7a.5.5,0,0,0-.5.5V14.1a2.69,2.69,0,0,1-1.33-.67A5.24,5.24,0,0,1,10.4,9.47c0-3.72,1.67-4.74,2.5-5,.44,2.38,2,3.39,3.41,3.31A3.15,3.15,0,0,0,19.2,4.38C19.2,1.81,16.64,0,13,0A11,11,0,0,0,6.33,2.21,8.48,8.48,0,0,0,3,9.18C3,14,4.93,17,8.71,18.35,8.8,20.72,9.14,24,13.9,24c5.22,0,7.08-3.26,7.08-6V10.47A.5.5,0,0,0,20.48,10Zm-6.21,9.44a2.5,2.5,0,0,1-1.72.78h0a1.46,1.46,0,0,1-1.06-.42,1.56,1.56,0,0,1-.38-1.4A2.66,2.66,0,0,1,11.85,17h0a2,2,0,0,1,2.78-.37A2,2,0,0,1,14.27,19.41Z"/></svg>