<svg id="Bold" xmlns="http://www.w3.org/2000/svg" viewBox="0 0 24 24"><title>social-music-spotify</title><path d="M4.11,5.48a16.25,16.25,0,0,1,15.8,0,1,1,0,1,0,1-1.74,18.28,18.28,0,0,0-17.77,0,1,1,0,0,0,1,1.74Z"/><path d="M18.73,8.75a1,1,0,0,0,.56-1.83,13.33,13.33,0,0,0-14.42-.1A1,1,0,0,0,6,8.49a11.29,11.29,0,0,1,12.21.09A1,1,0,0,0,18.73,8.75Z"/><path d="M17.41,10A8.32,8.32,0,0,0,6.59,10a1,1,0,1,0,1.33,1.49,6.32,6.32,0,0,1,8.15,0A1,1,0,1,0,17.41,10Z"/><path d="M12,12.6A10.47,10.47,0,0,0,1.55,22a.5.5,0,0,0,.5.55h0l4.82,0a.5.5,0,0,0,.49-.4A4.75,4.75,0,0,1,12,18.36a5.2,5.2,0,0,1,4.64,3.79.5.5,0,0,0,.49.38h4.82a.5.5,0,0,0,.5-.55A10.44,10.44,0,0,0,12,12.6Z"/></svg>