<svg id="Bold" xmlns="http://www.w3.org/2000/svg" viewBox="0 0 24 24"><title>social-media-brightkite</title><path d="M22.73,0H7.65A2.58,2.58,0,0,0,5,1.76L.78,23.4a.5.5,0,0,0,.49.6l.16,0c.78-.26,19-6.49,20.52-7.18A2.08,2.08,0,0,0,23.23,15V.5A.5.5,0,0,0,22.73,0ZM17.41,12.51a3.58,3.58,0,0,1-3.1,2.69,6.17,6.17,0,0,1-4.57-1.11V3.3l3-.43V7.14a2.43,2.43,0,0,1,2.17-1A2.26,2.26,0,0,1,17.2,7.73,7.89,7.89,0,0,1,17.41,12.51Z"/><path d="M14.15,8.46c-1.11-.13-1.38.38-1.38.38V13s1.47.49,1.94-.33S15.39,8.6,14.15,8.46Z"/></svg>