<svg id="Bold" xmlns="http://www.w3.org/2000/svg" viewBox="0 0 24 24"><title>social-media-friends-feed</title><path d="M19.5,5h3a.5.5,0,0,0,.5-.5v-3a.5.5,0,0,0-.5-.5h-4A4.5,4.5,0,0,0,14,5.5v2a.5.5,0,0,1-.5.5h-4A.5.5,0,0,1,9,7.5v-1A1.5,1.5,0,0,1,10.5,5h3a.5.5,0,0,0,.5-.5v-3a.5.5,0,0,0-.5-.5h-4A4.5,4.5,0,0,0,5,5.5v2a.5.5,0,0,1-.5.5h-3a.5.5,0,0,0-.5.5v3a.5.5,0,0,0,.5.5h3a.5.5,0,0,1,.5.5v10a.5.5,0,0,0,.5.5h3a.5.5,0,0,0,.5-.5v-10a.5.5,0,0,1,.5-.5h4a.5.5,0,0,1,.5.5v10a.5.5,0,0,0,.5.5h3a.5.5,0,0,0,.5-.5v-10a.5.5,0,0,1,.5-.5h4a.5.5,0,0,0,.5-.5v-3a.5.5,0,0,0-.5-.5h-4a.5.5,0,0,1-.5-.5v-1A1.5,1.5,0,0,1,19.5,5Z"/></svg>