<svg id="Bold" xmlns="http://www.w3.org/2000/svg" viewBox="0 0 24 24"><title>social-media-retweet</title><path d="M12.86,15.65a.5.5,0,0,0-.35-.15h-5A.5.5,0,0,1,7,15V10.5H8.5a.5.5,0,0,0,.37-.83l-4-4.5a.52.52,0,0,0-.75,0l-4,4.5a.5.5,0,0,0,.37.83H2v6.2a3.1,3.1,0,0,0,3.12,2.8H15.5a.5.5,0,0,0,.35-.85Z"/><path d="M24,13.8a.5.5,0,0,0-.46-.3H22v-6a3.27,3.27,0,0,0-3.12-3H8.5a.5.5,0,0,0-.35.85l3,3a.5.5,0,0,0,.35.15h5A.5.5,0,0,1,17,9v4.5H15.5a.5.5,0,0,0-.37.83l4,4.5a.5.5,0,0,0,.75,0l4-4.5A.5.5,0,0,0,24,13.8Z"/></svg>