<svg id="Bold" xmlns="http://www.w3.org/2000/svg" viewBox="0 0 24 24"><title>social-photobucket</title><path d="M12,7.5a1,1,0,0,0,0,2,3,3,0,0,1,3,3,1,1,0,0,0,2,0A5,5,0,0,0,12,7.5Z"/><path d="M22,4.78H15.94a8.58,8.58,0,0,0-7.87,0H6V3.87a1,1,0,0,0-1-1H3.13a1,1,0,0,0-1,1v.91H2a2,2,0,0,0-2,2V18.22a2,2,0,0,0,2,2H8.06a8.58,8.58,0,0,0,7.87,0H22a2,2,0,0,0,2-2V6.74A2,2,0,0,0,22,4.78ZM2,6.78H5.5a8.6,8.6,0,0,0,0,11.41L2,18.22Zm3.39,5.7A6.65,6.65,0,1,1,12,19.13,6.66,6.66,0,0,1,5.35,12.48Zm13.15,5.7a8.6,8.6,0,0,0,0-11.41l3.52,0,0,11.44Z"/></svg>