<svg id="Bold" xmlns="http://www.w3.org/2000/svg" viewBox="0 0 24 24"><title>social-media-google</title><path d="M6.1,7.4a.5.5,0,0,0,.68-.06A7,7,0,0,1,17.1,7.21a.5.5,0,0,0,.71,0l2.92-2.74a.5.5,0,0,0,0-.71,12,12,0,0,0-17.83.4A.5.5,0,0,0,3,4.9Z"/><path d="M5.24,14.79a.5.5,0,0,0,.14-.53,6.89,6.89,0,0,1,0-4.46.5.5,0,0,0-.16-.55L1.95,6.64a.5.5,0,0,0-.76.17,11.93,11.93,0,0,0,.15,10.65.5.5,0,0,0,.78.14Z"/><path d="M24,10.5a.5.5,0,0,0-.5-.5h-10a.5.5,0,0,0-.5.5v4a.5.5,0,0,0,.5.5h4.84a6.79,6.79,0,0,1-1.14,1.67.5.5,0,0,0,0,.67l2.67,3a.5.5,0,0,0,.73,0A12,12,0,0,0,24,12.6Z"/><path d="M15.52,18.46a.5.5,0,0,0-.58-.12,6.93,6.93,0,0,1-8.1-1.63.5.5,0,0,0-.7,0l-3,2.68a.5.5,0,0,0,0,.71,12,12,0,0,0,15,2.25.5.5,0,0,0,.12-.76Z"/></svg>