<svg id="Bold" xmlns="http://www.w3.org/2000/svg" viewBox="0 0 24 24"><title>social-bookmark-zootool</title><path d="M20.71,18.29a.5.5,0,0,0-.8-.29c-2.12,1.71-4.3.43-6.62-.92a11.64,11.64,0,0,0-4.06-1.75,72.45,72.45,0,0,1,6-7c3.28-3.57,4.11-4.53,4.17-5l.23-2a.79.79,0,0,0-.24-.71A.88.88,0,0,0,18.7.39h-.06a24.45,24.45,0,0,1-6,.52A8.2,8.2,0,0,1,9,.14,1,1,0,0,0,7.73.3a6.22,6.22,0,0,0-1.5,3.1,2.2,2.2,0,0,0,.1,1.13C6.92,6,9.74,5.92,11.64,5.67L3.53,15.24c-.44.52-.44,2.72-.17,3.41a.71.71,0,0,0,.57.51H4.7a10.07,10.07,0,0,1,7.23,2.53A9.06,9.06,0,0,0,16.81,24l.42,0a3.09,3.09,0,0,0,2.34-1.05A5.57,5.57,0,0,0,20.71,18.29Z"/></svg>