<svg id="Bold" xmlns="http://www.w3.org/2000/svg" viewBox="0 0 24 24"><title>social-media-iwiw</title><path d="M17.62,5.39a2.06,2.06,0,0,0-.76-2.81L13.51.64C12-.21,11.63-.21,10.17.62L3.24,4.83l-.05,0C1.71,5.71,1.5,6.07,1.5,7.77v8.45c0,1.72.19,2,1.69,2.92l7,4.24a3.43,3.43,0,0,0,1.64.62,3.48,3.48,0,0,0,1.67-.64l3.49-2a2.06,2.06,0,0,0-2.17-3.5l-3,1.73L5.5,15.79V8.21l6.32-3.78,3,1.72A2.07,2.07,0,0,0,17.62,5.39Z"/><path d="M21,5.93H20A1.47,1.47,0,0,0,18.5,7.33v9.14A1.51,1.51,0,0,0,20,17.93h1a1.45,1.45,0,0,0,1.45-1.45V7.33A1.41,1.41,0,0,0,21,5.93Z"/><path d="M10.91,7.11,7.35,9.18a.5.5,0,0,0-.25.43v4a1.48,1.48,0,0,0,1.46,1.6,1.56,1.56,0,0,0,1.54-1.6V11.18L12.37,10a1.61,1.61,0,0,0-1.46-2.86Z"/></svg>