<svg id="Bold" xmlns="http://www.w3.org/2000/svg" viewBox="0 0 24 24"><title>social-media-foursquare</title><path d="M23.52.54a.75.75,0,0,0-.82.19l-9,9.8L10.65,7.46a.52.52,0,0,0-.71,0L8.69,8.71a4.91,4.91,0,1,0-5.76,7.64l7,7a.5.5,0,0,0,.71,0l7.59-7.6a.5.5,0,0,0,0-.71l-1-1,6.52-5.62A.75.75,0,0,0,24,7.85V1.24A.75.75,0,0,0,23.52.54Zm-1,7L10.26,18,6.91,15.17A.75.75,0,0,0,6.42,15a.74.74,0,0,0-.27,0,3.43,3.43,0,1,1,2.2-3.2,3.4,3.4,0,0,1-.26,1.31.75.75,0,0,0,.1.75L9.7,15.85a.75.75,0,0,0,.56.29.76.76,0,0,0,.58-.24L22.5,3.17Z"/></svg>