<svg id="Bold" xmlns="http://www.w3.org/2000/svg" viewBox="0 0 24 24"><title>social-media-bnter</title><path d="M21.69,2.94H2.31A2.32,2.32,0,0,0,0,5.25V16.63a2.32,2.32,0,0,0,2.31,2.32H2.7a2.93,2.93,0,0,1-.4,1.37.5.5,0,0,0,.43.75h0c.11,0,2.51-.14,3.27-2.12H21.69A2.32,2.32,0,0,0,24,16.63V5.25A2.32,2.32,0,0,0,21.69,2.94ZM4.32,13.41A1.36,1.36,0,1,1,5.68,12,1.36,1.36,0,0,1,4.32,13.41Zm8.14,3.25a2.67,2.67,0,0,1-2.54-1.84.5.5,0,0,1,.38-.65l4.23-.86a.5.5,0,0,1,.6.46c0,.07,0,.14,0,.21A2.68,2.68,0,0,1,12.45,16.66Zm7.32-3.25A1.36,1.36,0,1,1,21.13,12,1.36,1.36,0,0,1,19.77,13.41Z"/></svg>