<svg id="Bold" xmlns="http://www.w3.org/2000/svg" viewBox="0 0 24 24"><title>social-music-spotify-1</title><path d="M12,0A12,12,0,1,0,24,12,12,12,0,0,0,12,0Zm5.38,17.72a.75.75,0,0,1-1.06.07,9.59,9.59,0,0,0-4.89-2,9.64,9.64,0,0,0-5.24.6A.75.75,0,0,1,5.56,15a11,11,0,0,1,6.08-.73,11,11,0,0,1,5.67,2.4A.75.75,0,0,1,17.38,17.72Zm.55-4a.75.75,0,0,1-1.06.07,9.59,9.59,0,0,0-4.88-2,9.57,9.57,0,0,0-5.26.61A.75.75,0,1,1,6.09,11a10.94,10.94,0,0,1,6.11-.74,11,11,0,0,1,5.66,2.39A.75.75,0,0,1,17.93,13.75Zm.64-3.91a.75.75,0,0,1-1.06.05,9.49,9.49,0,0,0-5-2.1,9.54,9.54,0,0,0-5.33.65.75.75,0,1,1-.66-1.35,11,11,0,0,1,6.2-.78,11,11,0,0,1,5.75,2.48A.75.75,0,0,1,18.57,9.84Z"/></svg>