<svg id="Bold" xmlns="http://www.w3.org/2000/svg" viewBox="0 0 24 24"><title>sofa-couch</title><path d="M20.5,7.5H14.633a1.508,1.508,0,0,1-1.287-.729l-.875-1.457A5.826,5.826,0,0,0,7.5,2.5,5.01,5.01,0,0,0,2.761,5.9a.5.5,0,0,0,.4.654A5.436,5.436,0,0,1,7.5,12v.563a.5.5,0,0,0,.581.493,42.358,42.358,0,0,1,15.3.353A.5.5,0,0,0,24,12.922V11A3.5,3.5,0,0,0,20.5,7.5Z"/><path d="M23.611,15.013A39.993,39.993,0,0,0,6.6,14.856a.5.5,0,0,1-.6-.489V12A3.875,3.875,0,0,0,2.5,8a2.5,2.5,0,0,0-.961,4.81A.744.744,0,0,1,2,13.5v2a3.492,3.492,0,0,0,2.82,3.416A.25.25,0,0,1,5,19.273l-.39.78a1,1,0,0,0,1.79.894l.835-1.671A.5.5,0,0,1,7.677,19H18.823a.5.5,0,0,1,.447.276l.835,1.671a1,1,0,1,0,1.79-.894l-.346-.691A.25.25,0,0,1,21.773,19H22.5A1.5,1.5,0,0,0,24,17.5v-2A.5.5,0,0,0,23.611,15.013Z"/></svg>