<svg id="Bold" xmlns="http://www.w3.org/2000/svg" viewBox="0 0 24 24"><title>soft-drinks-can</title><path d="M17.914,9.586,16.149,7.662A.5.5,0,0,0,15.78,7.5H8.22a.5.5,0,0,0-.369.162L6.086,9.586A2,2,0,0,0,5.5,11v9.379a5.122,5.122,0,0,0,.82,2.779A1.933,1.933,0,0,0,7.955,24h8.089a1.936,1.936,0,0,0,1.637-.843,5.118,5.118,0,0,0,.819-2.778V11A2,2,0,0,0,17.914,9.586Z"/><path d="M6,5A1,1,0,0,0,7,6H17a1,1,0,0,0,0-2H10.85a.5.5,0,0,1-.429-.243L9.358,1.985a1.006,1.006,0,0,0-1.372-.342,1,1,0,0,0-.344,1.372l.364.606A.25.25,0,0,1,7.792,4H7A1,1,0,0,0,6,5Z"/><circle cx="12.25" cy="0.75" r="0.75"/><circle cx="14.75" cy="2" r="0.75"/><circle cx="12.25" cy="3" r="0.75"/></svg>