<svg xmlns="http://www.w3.org/2000/svg" viewBox="0 0 24 24"><title>spa-lotus</title><path d="M21.766,15.863a9.145,9.145,0,0,1-1.983,1.272,10.24,10.24,0,0,1-4.311.886,14.01,14.01,0,0,1-3.351-.418.5.5,0,0,0-.242,0,14.018,14.018,0,0,1-3.351.418,10.24,10.24,0,0,1-4.311-.886,9.145,9.145,0,0,1-1.983-1.272.5.5,0,0,0-.659.019A2.925,2.925,0,0,0,.5,17.991c0,2.76,5.15,5,11.5,5a25.7,25.7,0,0,0,3.759-.274.5.5,0,0,0,.382-.7L15.5,20.6a.5.5,0,0,1,.633-.673l3.9,1.485a.5.5,0,0,0,.389-.014c1.906-.892,3.076-2.086,3.076-3.4a2.925,2.925,0,0,0-1.075-2.109A.5.5,0,0,0,21.766,15.863Z"/><path d="M23.791,10.016a.955.955,0,0,0-.624-.521,12.591,12.591,0,0,0-1.4-.276.5.5,0,0,0-.555.379,9.922,9.922,0,0,1-1.6,3.576,10.2,10.2,0,0,1-3.327,2.843.25.25,0,0,0,.143.468,8.257,8.257,0,0,0,2.725-.711,10.563,10.563,0,0,0,4.636-4.946A.954.954,0,0,0,23.791,10.016Z"/><path d="M4.849,15.774a8.263,8.263,0,0,0,2.725.711.25.25,0,0,0,.144-.468A10.193,10.193,0,0,1,4.39,13.174,9.922,9.922,0,0,1,2.788,9.6a.5.5,0,0,0-.555-.379,12.544,12.544,0,0,0-1.4.276.953.953,0,0,0-.619,1.334A10.558,10.558,0,0,0,4.849,15.774Z"/><path d="M17.052,8.253a11.964,11.964,0,0,1-1.915,6.158.25.25,0,0,0,.332.351A8.777,8.777,0,0,0,18.4,12.287,10.55,10.55,0,0,0,20.073,5.72a.953.953,0,0,0-1.186-.869,12.578,12.578,0,0,0-1.8.615.5.5,0,0,0-.292.571A9.924,9.924,0,0,1,17.052,8.253Z"/><path d="M8.53,14.762a.25.25,0,0,0,.332-.352A11.961,11.961,0,0,1,6.947,8.253,9.924,9.924,0,0,1,7.2,6.037a.5.5,0,0,0-.291-.571,12.578,12.578,0,0,0-1.8-.615.953.953,0,0,0-1.186.87A10.549,10.549,0,0,0,5.6,12.287,8.776,8.776,0,0,0,8.53,14.762Z"/><path d="M12,15.776a.5.5,0,0,0,.358-.152c.131-.135,3.194-3.337,3.194-7.371a11.582,11.582,0,0,0-2.781-6.9,1.032,1.032,0,0,0-1.543,0,11.585,11.585,0,0,0-2.781,6.9c0,4.034,3.063,7.236,3.194,7.371A.5.5,0,0,0,12,15.776Z"/></svg>