<svg xmlns="http://www.w3.org/2000/svg" viewBox="0 0 24 24"><title>space-moon-flag</title><path d="M4.753,9.5A4.75,4.75,0,1,0,0,4.75,4.756,4.756,0,0,0,4.753,9.5ZM1.679,3.7a3.249,3.249,0,0,1,4.45-1.889.25.25,0,0,1-.069.474A1.372,1.372,0,0,0,4.75,3.749v1a1.5,1.5,0,0,0,1.5,1.5.5.5,0,0,1,.5.5v.306a.5.5,0,0,1-.228.42,3.244,3.244,0,0,1-3.251.167A.5.5,0,0,1,3,7.2V5.749A1.5,1.5,0,0,0,1.988,4.331.5.5,0,0,1,1.679,3.7Z"/><path d="M23.266,20.088a40.471,40.471,0,0,0-8.719-1.412,1,1,0,0,0-1.047.994,1.006,1.006,0,0,0,.953,1,38.431,38.431,0,0,1,8.28,1.342,1,1,0,1,0,.533-1.928Z"/><path d="M23,6H11a1,1,0,0,0-1,1V18.224a.5.5,0,0,1-.465.5A42.154,42.154,0,0,0,.721,20.3a1,1,0,1,0,.558,1.921,40.184,40.184,0,0,1,8.183-1.483.5.5,0,0,1,.538.5V23a1,1,0,0,0,2,0V18a.5.5,0,0,1,.5-.5H23a1,1,0,0,0,1-1V7A1,1,0,0,0,23,6Zm-1,9a.5.5,0,0,1-.5.5h-9A.5.5,0,0,1,12,15v-.5a.5.5,0,0,1,.5-.5h9a.5.5,0,0,1,.5.5Zm0-3a.5.5,0,0,1-.5.5h-9A.5.5,0,0,1,12,12v-.5a.5.5,0,0,1,.5-.5h9a.5.5,0,0,1,.5.5Zm0-3a.5.5,0,0,1-.5.5h-5A.5.5,0,0,1,16,9V8.5a.5.5,0,0,1,.5-.5h5a.5.5,0,0,1,.5.5Z"/></svg>