<svg xmlns="http://www.w3.org/2000/svg" viewBox="0 0 24 24"><title>space-earth</title><circle cx="2.319" cy="22" r="2"/><path d="M1.319,14.112v4.423a.5.5,0,0,0,.572.5,2.977,2.977,0,0,1,.857,0,.5.5,0,0,0,.571-.5V15.161a.248.248,0,0,1,.083-.185.245.245,0,0,1,.193-.063A4,4,0,0,0,7.51,12.855a.5.5,0,0,0-.2-.678L5.339,11.094a.5.5,0,0,1-.2-.678.378.378,0,0,1,.276-.192A1.5,1.5,0,1,0,3.84,9.359a.373.373,0,0,1-.013.335.5.5,0,0,1-.679.2L1.175,8.81a.5.5,0,0,0-.679.2,4.009,4.009,0,0,0,.677,4.752A.5.5,0,0,1,1.319,14.112Z"/><circle cx="15.319" cy="22" r="2"/><path d="M18,0a6,6,0,1,0,6,6A6,6,0,0,0,18,0Zm2.62,8.778a.5.5,0,0,1-.2.4,3.993,3.993,0,0,1-4.5.238.5.5,0,0,1-.239-.428V7.246a1.754,1.754,0,0,0-1.219-1.668.5.5,0,0,1-.331-.6A4,4,0,0,1,20,2.536.249.249,0,0,1,19.89,3a1.676,1.676,0,0,0-1.771,1.746V6a1.751,1.751,0,0,0,1.749,1.75.741.741,0,0,1,.75.749Z"/><path d="M14.886,19.032a.5.5,0,0,0,.425-.432l.325-2.6a1.781,1.781,0,0,0-3.513-.569L11.49,18.6A.5.5,0,0,1,11,19H9.319a1.5,1.5,0,0,0-1.5,1.5.5.5,0,0,1-.5.5H5.784a.5.5,0,0,0-.5.572,3.068,3.068,0,0,1,0,.856.5.5,0,0,0,.5.572h6.071a.5.5,0,0,0,.495-.572,3,3,0,0,1,2.536-3.4Z"/></svg>