<svg xmlns="http://www.w3.org/2000/svg" viewBox="0 0 24 24"><title>space-base</title><path d="M10.664,4.053a1.042,1.042,0,0,0-1.04,1.04v.874a.5.5,0,0,0,.413.492,8.335,8.335,0,0,1,6.775,6.98.5.5,0,0,0,.494.427H18.4a1.04,1.04,0,0,0,1.033-1.161C18.824,7.529,14.181,4.053,10.664,4.053Z"/><path d="M15.341,16.2H1.829A1.039,1.039,0,0,0,.79,17.244V23.48a.52.52,0,0,0,.52.52h5.2a.52.52,0,0,0,.52-.52V20.622a1.559,1.559,0,1,1,3.118,0V23.48a.52.52,0,0,0,.52.52h5.2a.52.52,0,0,0,.52-.52V17.244A1.039,1.039,0,0,0,15.341,16.2ZM3.388,20.882a.78.78,0,1,1,.78-.779A.779.779,0,0,1,3.388,20.882Zm10.394,0a.78.78,0,1,1,.779-.779A.78.78,0,0,1,13.782,20.882Z"/><path d="M1.829,15.166H15.341a.519.519,0,0,0,.519-.52,7.275,7.275,0,0,0-14.55,0A.519.519,0,0,0,1.829,15.166Z"/><path d="M22.905,3.244,19.965.3a1.039,1.039,0,1,0-1.47,1.47.519.519,0,0,1,0,.736L16.414,4.592a.5.5,0,0,0,.04.744,10.821,10.821,0,0,1,1.457,1.406.5.5,0,0,0,.733.028L20.7,4.714a.52.52,0,0,1,.735,0,1.039,1.039,0,0,0,1.469-1.47Z"/></svg>