<svg xmlns="http://www.w3.org/2000/svg" viewBox="0 0 24 24"><title>space-science</title><path d="M22.771,12.94a.7.7,0,0,1-.412-.637l0-2.8a1,1,0,0,0-1-1h0a1,1,0,0,0-1,1l0,1.593a.5.5,0,0,1-.7.456l-.359-.16a1,1,0,0,0-1.41.912v3.2a.5.5,0,0,1-.5.5h-2.11a.5.5,0,0,1-.486-.385l-.934-3.946A4,4,0,0,0,13.7,7.523a.5.5,0,0,1-.025-.511,14.388,14.388,0,0,0,1.616-5.359A1.506,1.506,0,0,0,12.733.442L7.967,5.208a.5.5,0,0,1-.707,0L4.07,2.019A1,1,0,0,0,2.656,3.433l3.189,3.19a.5.5,0,0,1,0,.707L1.078,12.1a1.507,1.507,0,0,0,1.059,2.568A14.136,14.136,0,0,0,7.65,13.04a.5.5,0,0,1,.509.025,3.984,3.984,0,0,0,.389.227.5.5,0,0,1,.2.711l-1.1,1.762A.5.5,0,0,1,7.22,16H3.863a.5.5,0,0,0-.5.5v7a.5.5,0,0,0,.5.5h4a.5.5,0,0,0,.5-.5V22a2,2,0,0,1,4,0v1.5a.5.5,0,0,0,.5.5h10a.5.5,0,0,0,.5-.5V13.853A1,1,0,0,0,22.771,12.94ZM12.708,15.905a.248.248,0,0,1-.2.1H10.305a.248.248,0,0,1-.218-.129.251.251,0,0,1,.006-.254l1.158-1.851a.5.5,0,0,1,.277-.213,3.656,3.656,0,0,0,.388-.141.252.252,0,0,1,.341.173l.5,2.107A.251.251,0,0,1,12.708,15.905Zm.127-12.071A12.541,12.541,0,0,1,4.471,12.2a.25.25,0,0,1-.249-.416l8.2-8.2a.251.251,0,0,1,.417.249Z"/></svg>