<svg xmlns="http://www.w3.org/2000/svg" viewBox="0 0 24 24"><title>speech-translate</title><path d="M9.326,4.25a5.458,5.458,0,0,0-5.4,5.5,1,1,0,1,0,2,0,3.456,3.456,0,0,1,3.4-3.5,1,1,0,0,0,0-2Z"/><path d="M9.315,2.25a1,1,0,0,0,0-2A9.42,9.42,0,0,0,0,9.75a1,1,0,0,0,2,0A7.417,7.417,0,0,1,9.315,2.25Z"/><path d="M18.076,9.75a1,1,0,0,0,2,0,5.458,5.458,0,0,0-5.4-5.5,1,1,0,0,0,0,2A3.456,3.456,0,0,1,18.076,9.75Z"/><path d="M14.685.25a1,1,0,0,0,0,2A7.417,7.417,0,0,1,22,9.75a1,1,0,0,0,2,0A9.42,9.42,0,0,0,14.685.25Z"/><path d="M21.5,22.75a1,1,0,0,0-1-1H19.338a.252.252,0,0,1-.232-.155L13.39,7.687a1.5,1.5,0,0,0-2.778-.006L4.894,21.6a.252.252,0,0,1-.232.155H3.5a1,1,0,0,0,0,2h4a1,1,0,0,0,0-2H7.365a.251.251,0,0,1-.231-.345L8.5,18.076a.25.25,0,0,1,.231-.155h6.534a.25.25,0,0,1,.231.155l1.368,3.329a.251.251,0,0,1-.231.345H16.5a1,1,0,0,0,0,2h4A1,1,0,0,0,21.5,22.75ZM9.761,15.921a.25.25,0,0,1-.231-.345L12,9.566l2.47,6.01a.25.25,0,0,1-.231.345Z"/></svg>