<svg xmlns="http://www.w3.org/2000/svg" viewBox="0 0 24 24"><title>sports-car-convertible</title><path d="M7.25,11h4a.5.5,0,0,0,.5-.5,2.5,2.5,0,0,0-5,0A.5.5,0,0,0,7.25,11Z"/><circle cx="6.75" cy="17" r="2"/><circle cx="20.25" cy="17" r="2"/><path d="M22.184,7.242l.882-.294a1,1,0,0,0-.632-1.9l-4.5,1.5A1,1,0,0,0,18.25,8.5c.081,0,.781-.216,1.1-.315.094-.029.155.006.156.1,0,.438.009,1.727.009,1.883a.35.35,0,0,1-.387.335h-.611a.6.6,0,0,1-.391-.275c-.876-1.693-3.171-2.378-4.27-2.616a.5.5,0,0,0-.6.49v2.4a2,2,0,0,1-2,2H4.568A4,4,0,0,0,.99,14.711L.276,16.138A.25.25,0,0,0,.5,16.5H3.6a.244.244,0,0,0,.236-.193,2.989,2.989,0,0,1,5.82,0A.244.244,0,0,0,9.9,16.5H17.1a.244.244,0,0,0,.236-.193,2.99,2.99,0,0,1,5.86.193h.05v-5a1,1,0,0,0-1-1,.2.2,0,0,1-.236-.218c0-.2-.008-2.1-.011-2.754C22,7.387,22.184,7.242,22.184,7.242Z"/></svg>