<svg xmlns="http://www.w3.org/2000/svg" viewBox="0 0 24 24"><title>sports-car</title><path d="M23,14.75a.25.25,0,0,1-.25-.25v-3a1.247,1.247,0,0,0-.625-1.079A.251.251,0,0,1,22,10.205V8.468a.25.25,0,0,1,.187-.242l1-.258a1,1,0,0,0-.5-1.936l-2.905.75a1,1,0,0,0,.024,1.938A.25.25,0,0,1,20,8.963v.645a.25.25,0,0,1-.393.205L14.678,6.384C14.619,6.343,14.5,6.25,14,6.25H9A2.988,2.988,0,0,0,6.316,7.912l-1.1,2.2a.249.249,0,0,1-.223.138H2.26A2.253,2.253,0,0,0,.01,12.5v3a1.252,1.252,0,0,0,1.25,1.25h.546a.25.25,0,0,0,.246-.293A2.651,2.651,0,0,1,2.01,16a3,3,0,0,1,6,0,2.651,2.651,0,0,1-.042.457.25.25,0,0,0,.247.293h5.83a.25.25,0,0,0,.247-.293A2.651,2.651,0,0,1,14.25,16a3,3,0,0,1,6,0,2.651,2.651,0,0,1-.042.457.248.248,0,0,0,.055.2.253.253,0,0,0,.192.089H23a1,1,0,0,0,0-2ZM12.432,8.588l-.376,1a1.01,1.01,0,0,1-.946.659H7.786a.25.25,0,0,1-.224-.362L8.1,8.808A1,1,0,0,1,9,8.25h3.2a.248.248,0,0,1,.205.108A.251.251,0,0,1,12.432,8.588Z"/><circle cx="5.01" cy="16" r="2"/><circle cx="17.25" cy="16" r="2"/></svg>