<svg id="Bold" xmlns="http://www.w3.org/2000/svg" viewBox="0 0 24 24"><title>sport-curling</title><circle cx="15" cy="3.25" r="2.5"/><path d="M10.471,13.5a.249.249,0,0,1-.053-.308l1.56-2.808a.251.251,0,0,1,.416-.033c.028.036.056.073.083.11a9.24,9.24,0,0,0,7.451,3.794H20.5a1.5,1.5,0,0,0,0-3h-.572A6.236,6.236,0,0,1,14.9,8.691,7.142,7.142,0,0,0,3.07,9.106l-.217.349A1.5,1.5,0,1,0,5.4,11.045l.217-.349A4.121,4.121,0,0,1,9.019,8.751a.25.25,0,0,1,.225.371l-2.7,4.857a1.5,1.5,0,0,1-1.312.771H1.5a1.5,1.5,0,0,0,0,3H5.234a4.508,4.508,0,0,0,3.393-1.543.249.249,0,0,1,.172-.086.252.252,0,0,1,.182.063L11,17.976a1.5,1.5,0,0,1,.5,1.122V21.75a1.5,1.5,0,0,0,3,0V19.1a4.506,4.506,0,0,0-1.511-3.365Z"/><path d="M23,19.75h-.75A.25.25,0,0,1,22,19.5v-1a2,2,0,0,0-2-2H18.5a1,1,0,0,0,0,2H20v1a.25.25,0,0,1-.25.25H18a1,1,0,0,0-1,1v1.5a1,1,0,0,0,1,1h5a1,1,0,0,0,1-1v-1.5A1,1,0,0,0,23,19.75Z"/></svg>