<svg xmlns="http://www.w3.org/2000/svg" viewBox="0 0 24 24"><title>sports-car-1</title><path d="M21.482,11.393h2.25a.25.25,0,0,0,.25-.25v-.768a1.168,1.168,0,0,0-.864-1.106l-.137-.035a2.73,2.73,0,0,1-.918-.422,16.765,16.765,0,0,0-9.081-2.687A11.926,11.926,0,0,0,4.2,10.25a1.26,1.26,0,0,1-.545.394A6.743,6.743,0,0,0,.529,12.913,2.642,2.642,0,0,0,.022,14.1a.249.249,0,0,0,.247.29H1.482a.5.5,0,0,1,0,1H.533a.249.249,0,0,0-.217.374,3.876,3.876,0,0,0,.666.815.989.989,0,0,0,.706.293h2.64a.249.249,0,0,0,.242-.311,2.8,2.8,0,0,1-.088-.689A2.99,2.99,0,0,1,9.632,13.8a.25.25,0,0,0,.18.077h2.669a1.113,1.113,0,0,0,1-.618l.552-1.106a.5.5,0,0,1,.895.448L14.376,13.7a2.105,2.105,0,0,1-1.895,1.171H10.635a.249.249,0,0,0-.242.311,2.711,2.711,0,0,1,0,1.378.249.249,0,0,0,.242.311h4.693a.249.249,0,0,0,.242-.311,2.8,2.8,0,0,1-.088-.689,3,3,0,0,1,6,0c0,.051,0,.1,0,.153a.249.249,0,0,0,.376.228,4.277,4.277,0,0,0,1.174-1.014,4.363,4.363,0,0,0,.954-2.718.132.132,0,0,0-.132-.131H21.482a.5.5,0,0,1,0-1ZM13.857,8.505l-.616,1.233a.251.251,0,0,1-.222.138l-4.6.033a.25.25,0,0,1-.129-.466,9.235,9.235,0,0,1,4.691-1.318c.225,0,.447.007.665.019a.249.249,0,0,1,.21.361Z"/><circle cx="18.482" cy="15.875" r="2"/><circle cx="7.482" cy="15.875" r="2"/></svg>