<svg id="Bold" xmlns="http://www.w3.org/2000/svg" viewBox="0 0 24 24"><title>squid-shell</title><path d="M6.413,14.179a8.635,8.635,0,0,1,.792-3.865.251.251,0,0,1,.221-.134H9.769a.249.249,0,0,0,.25-.252A4.5,4.5,0,0,1,14.51,5.42a3.744,3.744,0,0,1,3.144,1.7.75.75,0,1,1-1.256.82A2.25,2.25,0,0,0,14.51,6.92a3,3,0,0,0-2.991,2.991,4.969,4.969,0,0,0,5,4.289A6.318,6.318,0,0,0,18.1,14l-.5-1a.75.75,0,0,1,1.342-.67,10.111,10.111,0,0,1,.549,1.126,6.355,6.355,0,0,0,3.38-5.611,7.813,7.813,0,0,0-.242-1.935l-1.65.476a.75.75,0,0,1-.416-1.441L22.114,4.5a7.841,7.841,0,0,0-5.2-4.237l-.41,2.054a.758.758,0,0,1-.883.588.75.75,0,0,1-.588-.883L15.429.049c-.123-.005-.246-.008-.37-.008A9.632,9.632,0,0,0,7.751,3.393l1.9,1.143a.75.75,0,0,1-.771,1.287L6.858,4.607A9.57,9.57,0,0,0,5.413,9.412a10.249,10.249,0,0,0-1,4.767,12.331,12.331,0,0,0,.572,3.731,8.5,8.5,0,0,1,.428,2.569c0,.8-.314,1.276-.933,1.431a1.691,1.691,0,0,1-1.775-.6c-.232-.439.117-1.14.935-1.874A1,1,0,1,0,2.3,17.951c-2.228,2-1.7,3.674-1.364,4.3,1.378,2.6,6.474,2.408,6.474-1.772a10.4,10.4,0,0,0-.5-3.113A10.348,10.348,0,0,1,6.413,14.179Z"/><path d="M23.225,17.746a3.427,3.427,0,0,0-3.312-2.567,6.34,6.34,0,0,0-2.5.514c-1.683.649-4.173.158-5.14-1.348a1,1,0,1,0-1.682,1.082,5.11,5.11,0,0,0,1.248,1.337,3.538,3.538,0,0,0-.947,1.334A2.521,2.521,0,0,1,9.44,15.627a1,1,0,0,0-2,.127c.326,5.1,5.345,4.429,5.656,5.315a1.236,1.236,0,0,1-.792.68c-.23.086-.8.249-1.114-.143a1,1,0,0,0-1.561,1.25c1.6,1.993,5.042.717,5.433-1.415a2.171,2.171,0,0,0-1.014-2.2,4.161,4.161,0,0,0-1.227-.543,1.787,1.787,0,0,1,1.5-.879,5.633,5.633,0,0,0,3.806-.256,4.383,4.383,0,0,1,1.782-.381,1.419,1.419,0,0,1,1.385,1.1,1.78,1.78,0,0,1-.9,2.042,1.648,1.648,0,0,1-1.494-.014,1,1,0,0,0-.983,1.742A3.72,3.72,0,0,0,23.225,17.746Z"/><circle cx="8.664" cy="12.429" r="1"/></svg>