<svg xmlns="http://www.w3.org/2000/svg" viewBox="0 0 24 24"><title>stairs-person-descend</title><circle cx="8" cy="2" r="2"/><path d="M12.616,17.263a.5.5,0,0,0,.022-.487l-1.585-3.17A.5.5,0,0,1,11,13.382v-.707a.5.5,0,0,1,.11-.312l1.18-1.475A2,2,0,0,0,12.6,8.936L11.987,7.3A2,2,0,0,0,10.114,6H5.648a2,2,0,0,0-1.727.992L2.587,9.28a.5.5,0,0,1-.247.213l-1.809.722a1.008,1.008,0,0,0,.794,1.844l2.063-.522a.481.481,0,0,0,.2-.12L5.146,9.854A.5.5,0,0,1,6,10.207v4.206a.509.509,0,0,1-.029.169l-2.232,6.25a.5.5,0,0,0,.47.668h.982a.5.5,0,0,0,.447-.276l2.5-5a.5.5,0,0,1,.847-.077l1.157,1.542a.5.5,0,0,0,.647.135,2.489,2.489,0,0,1,1.4-.324A.5.5,0,0,0,12.616,17.263Z"/><path d="M23.5,11H20a1,1,0,0,0-1,1v2.5a.5.5,0,0,1-.5.5H16a1,1,0,0,0-1,1v2.5a.5.5,0,0,1-.5.5H12a1,1,0,0,0-1,1v3.5a.5.5,0,0,0,.5.5h12a.5.5,0,0,0,.5-.5v-12A.5.5,0,0,0,23.5,11Z"/></svg>