<svg xmlns="http://www.w3.org/2000/svg" viewBox="0 0 24 24"><title>stairs-descend</title><path d="M21,19.5A1.5,1.5,0,0,0,19.5,18h-2a.5.5,0,0,1-.5-.5v-2A1.5,1.5,0,0,0,15.5,14h-2a.5.5,0,0,1-.5-.5v-2A1.5,1.5,0,0,0,11.5,10h-2A.5.5,0,0,1,9,9.5v-2A1.5,1.5,0,0,0,7.5,6H1A1,1,0,0,0,0,7V23a1,1,0,0,0,1,1H20a1,1,0,0,0,1-1Z"/><path d="M23.691,6.788a.5.5,0,0,0-.545.108L22.061,7.982a.5.5,0,0,1-.708,0L13.811.439a1.5,1.5,0,0,0-2.122,2.122L19.232,10.1a.5.5,0,0,1,0,.708L18.146,11.9a.5.5,0,0,0,.354.854h5a.5.5,0,0,0,.5-.5v-5A.5.5,0,0,0,23.691,6.788Z"/></svg>