<svg xmlns="http://www.w3.org/2000/svg" viewBox="0 0 24 24"><title>startup-launch</title><path d="M1.5,23.5A.5.5,0,0,0,2,24H20.5a.5.5,0,0,0,.5-.5,2.926,2.926,0,0,0-2.781-2.992.25.25,0,0,1-.231-.22A2.353,2.353,0,0,0,15.5,18.5h-.8a.251.251,0,0,0-.238.173,10.083,10.083,0,0,1-2.13,3.362,1.5,1.5,0,0,1-2.17,0,10.083,10.083,0,0,1-2.13-3.362A.251.251,0,0,0,7.8,18.5H7a2.362,2.362,0,0,0-2.479,1.8.251.251,0,0,1-.231.212A2.927,2.927,0,0,0,1.5,23.5Z"/><path d="M11.25,15.478a1.887,1.887,0,0,0-1.945,1.958c0,1.231,1.268,2.8,1.757,3.356a.25.25,0,0,0,.376,0c.488-.557,1.757-2.124,1.757-3.356A1.887,1.887,0,0,0,11.25,15.478Z"/><path d="M13.646,2.492a8.071,8.071,0,0,0-1.272-.721.25.25,0,0,1-.136-.273.735.735,0,0,0,.014-.142V1a1,1,0,0,0-2,0v.356a.735.735,0,0,0,.014.142.25.25,0,0,1-.136.273,8.009,8.009,0,0,0-1.271.721,3.5,3.5,0,0,0-1.2,2.987l0,.01,1.128,5.13a.251.251,0,0,1-.155.287l-.156.06A2.263,2.263,0,0,0,7.03,13.145c.08,2.774.087,2.575,2.543,1.015v0l0,0h3.35l1.628,1.035a.566.566,0,0,0,.869-.462l.046-1.587a2.264,2.264,0,0,0-1.451-2.179l-.156-.06a.25.25,0,0,1-.154-.287c.069-.314,1.051-4.827,1.135-5.14A3.5,3.5,0,0,0,13.646,2.492ZM11.252,6.68a1.287,1.287,0,1,1,1.287-1.286A1.286,1.286,0,0,1,11.252,6.68Z"/><path d="M21.3,12H23a1,1,0,0,0,.184-1.982.253.253,0,0,1-.2-.2A1,1,0,0,0,21,10v.018a.016.016,0,0,1-.013.015,2.3,2.3,0,0,0-.962,4.186l1.84,1.226A.3.3,0,0,1,21.7,16H20a1,1,0,0,0-.183,1.983.252.252,0,0,1,.2.2,1,1,0,0,0,1.97-.039.25.25,0,0,1,.2-.207,2.3,2.3,0,0,0,.793-4.157l-1.84-1.226A.3.3,0,0,1,21.3,12Z"/><path d="M2.7,7H1A1,1,0,0,0,.817,8.983a.252.252,0,0,1,.2.2,1,1,0,0,0,1.97-.039.25.25,0,0,1,.195-.207,2.3,2.3,0,0,0,.793-4.157L2.135,3.555A.3.3,0,0,1,2.3,3H4a1,1,0,0,0,.184-1.982.253.253,0,0,1-.2-.2A1,1,0,0,0,2,1v.018a.016.016,0,0,1-.013.015,2.3,2.3,0,0,0-.962,4.186l1.84,1.226A.3.3,0,0,1,2.7,7Z"/></svg>