<svg id="Bold" xmlns="http://www.w3.org/2000/svg" viewBox="0 0 24 24"><title>stove-steamer-induction</title><path d="M19.25,9.5H4.75a.75.75,0,0,0,0,1.5H5.5a.5.5,0,0,1,.5.5v1C6,15.081,7.292,16,8.5,16h7c1.208,0,2.5-.919,2.5-3.5v-1a.5.5,0,0,1,.5-.5h.75a.75.75,0,0,0,0-1.5Z"/><path d="M4,3.25A.75.75,0,0,0,4.75,4H5.5a.5.5,0,0,1,.5.5v3a.5.5,0,0,0,.5.5h11a.5.5,0,0,0,.5-.5v-3a.5.5,0,0,1,.5-.5h.75a.75.75,0,0,0,0-1.5H15.162a.5.5,0,0,1-.487-.385,2.749,2.749,0,0,0-5.35,0,.5.5,0,0,1-.487.385H4.75A.75.75,0,0,0,4,3.25ZM12,1.5a1.249,1.249,0,0,1,1.082.624.251.251,0,0,1-.216.376H11.134a.25.25,0,0,1-.216-.375A1.25,1.25,0,0,1,12,1.5Z"/><path d="M5.077,18.739A6.487,6.487,0,0,0,3.75,21.75,2.176,2.176,0,0,0,6,24a2.176,2.176,0,0,0,2.25-2.25,6.479,6.479,0,0,0-1.326-3.01A1.134,1.134,0,0,0,5.077,18.739Z"/><path d="M11.025,18.035a7.512,7.512,0,0,0-1.532,3.458A2.425,2.425,0,0,0,12,24a2.425,2.425,0,0,0,2.507-2.507,7.493,7.493,0,0,0-1.532-3.457A1.2,1.2,0,0,0,11.025,18.035Z"/><path d="M18.924,18.74a1.134,1.134,0,0,0-1.847,0A6.487,6.487,0,0,0,15.75,21.75a2.25,2.25,0,0,0,4.5,0A6.479,6.479,0,0,0,18.924,18.74Z"/></svg>