<svg xmlns="http://www.w3.org/2000/svg" viewBox="0 0 24 24"><title>street-light</title><path d="M.5,3.5a2,2,0,0,0,2,2h4a2,2,0,0,0,2-2V2.367a.25.25,0,0,1,.318-.241A3,3,0,0,1,11,5h0V17a.5.5,0,0,0,.5.5h1A.5.5,0,0,0,13,17V5h0a2.994,2.994,0,0,1,2.182-2.876.25.25,0,0,1,.318.241V3.5a2,2,0,0,0,2,2h4a2,2,0,0,0,2-2V2a2,2,0,0,0-2-2h-5a5.16,5.16,0,0,0-4.5,2A5.168,5.168,0,0,0,7.5,0h-5a2,2,0,0,0-2,2Zm21-.5a.5.5,0,0,1-.5.5H18a.5.5,0,0,1-.5-.5V2.5A.5.5,0,0,1,18,2h3a.5.5,0,0,1,.5.5Zm-19-.5A.5.5,0,0,1,3,2H6a.5.5,0,0,1,.5.5V3a.5.5,0,0,1-.5.5H3A.5.5,0,0,1,2.5,3Z"/><path d="M2.168,6.947l-1,1.5A1,1,0,1,0,2.832,9.556l1-1.5A1,1,0,0,0,2.168,6.947Z"/><path d="M5.945,6.67a1,1,0,0,0-.277,1.386l1,1.5A1,1,0,1,0,8.332,8.447l-1-1.5A1,1,0,0,0,5.945,6.67Z"/><path d="M21.832,6.947a1,1,0,0,0-1.664,1.109l1,1.5a1,1,0,1,0,1.664-1.109Z"/><path d="M18.055,6.67a1,1,0,0,0-1.387.277l-1,1.5a1,1,0,1,0,1.664,1.109l1-1.5A1,1,0,0,0,18.055,6.67Z"/><path d="M23,22H15.531a.5.5,0,0,1-.486-.379l-.371-1.485A1.5,1.5,0,0,0,13.219,19H10.781a1.5,1.5,0,0,0-1.455,1.136l-.371,1.485A.5.5,0,0,1,8.47,22H1a1,1,0,0,0,0,2H23a1,1,0,0,0,0-2Z"/></svg>