<svg xmlns="http://www.w3.org/2000/svg" viewBox="0 0 24 24"><title>style-three-pin-bill</title><path d="M12,0C6.21,0,1.5,4.262,1.5,9.5c0,5.748,7.3,12.285,9.54,14.152a1.5,1.5,0,0,0,1.921,0C15.2,21.784,22.5,15.246,22.5,9.5,22.5,4.262,17.79,0,12,0Zm6,12.5a.5.5,0,0,1-.5.5H6.5a.5.5,0,0,1-.5-.5v-6A.5.5,0,0,1,6.5,6h11a.5.5,0,0,1,.5.5Z"/><circle cx="12" cy="9.5" r="1.5"/><path d="M8.5,7h-1a.5.5,0,0,0-.5.5v1a.5.5,0,0,0,.309.462.5.5,0,0,0,.545-.108l1-1A.5.5,0,0,0,8.5,7Z"/><path d="M16.691,10.038a.5.5,0,0,0-.545.108l-1,1A.5.5,0,0,0,15.5,12h1a.5.5,0,0,0,.5-.5v-1A.5.5,0,0,0,16.691,10.038Z"/></svg>