<svg xmlns="http://www.w3.org/2000/svg" viewBox="0 0 24 24"><title>style-three-pin-adventure-park</title><path d="M12,0C6.21,0,1.5,4.262,1.5,9.5c0,5.747,7.3,12.285,9.54,14.152a1.5,1.5,0,0,0,1.921,0C15.2,21.784,22.5,15.246,22.5,9.5,22.5,4.262,17.79,0,12,0Zm2.851,17.561a1,1,0,0,1-.828.439H9.977a1,1,0,0,1-.928-1.371L11.058,11.6a.5.5,0,0,0-.113-.541,1.5,1.5,0,1,1,2.11,0,.5.5,0,0,0-.113.541l2.009,5.025A1,1,0,0,1,14.851,17.561Zm2.82-6.638a.5.5,0,0,0,.329.555,1.684,1.684,0,0,1,.288.131,1.75,1.75,0,1,1-2.615,1.373.5.5,0,0,0-.033-.222.73.73,0,0,1,.042-.635,4.251,4.251,0,1,0-7.364,0,.727.727,0,0,1,.042.635.5.5,0,0,0-.033.222,1.747,1.747,0,1,1-2.615-1.373A1.684,1.684,0,0,1,6,11.478a.5.5,0,0,0,.329-.555,5.459,5.459,0,0,1,0-1.848A.5.5,0,0,0,6,8.517a1.541,1.541,0,0,1-.283-.126,1.75,1.75,0,0,1,1.75-3.032,1.763,1.763,0,0,1,.26.185.5.5,0,0,0,.643.009,5.78,5.78,0,0,1,1.6-.927.5.5,0,0,0,.314-.561,1.633,1.633,0,0,1-.03-.315,1.75,1.75,0,0,1,3.5,0,1.633,1.633,0,0,1-.03.315.5.5,0,0,0,.314.561,5.78,5.78,0,0,1,1.6.927.5.5,0,0,0,.643-.009A1.744,1.744,0,0,1,18.928,6a1.751,1.751,0,0,1-.64,2.391,1.541,1.541,0,0,1-.283.126.5.5,0,0,0-.334.558A5.459,5.459,0,0,1,17.671,10.923Z"/></svg>