<svg xmlns="http://www.w3.org/2000/svg" viewBox="0 0 24 24"><title>style-three-pin-tomb</title><path d="M12.75,9.25v-1a.5.5,0,0,1,.5-.5.75.75,0,0,0,0-1.5.5.5,0,0,1-.5-.5.75.75,0,0,0-1.5,0,.5.5,0,0,1-.5.5.75.75,0,0,0,0,1.5.5.5,0,0,1,.5.5v1a.75.75,0,0,0,1.5,0Z"/><path d="M12,0C6.21,0,1.5,4.262,1.5,9.5c0,5.748,7.3,12.285,9.54,14.152a1.5,1.5,0,0,0,1.921,0C15.2,21.784,22.5,15.246,22.5,9.5,22.5,4.262,17.79,0,12,0ZM8.5,7a3.5,3.5,0,0,1,7,0v4.412a.5.5,0,0,1-.636.481,10.632,10.632,0,0,0-5.728,0,.5.5,0,0,1-.636-.481Zm7.215,7.033a.753.753,0,0,1-.964.443,8.345,8.345,0,0,0-5.5,0,.75.75,0,1,1-.521-1.407,9.86,9.86,0,0,1,6.544,0A.752.752,0,0,1,15.715,14.033Z"/></svg>