<svg xmlns="http://www.w3.org/2000/svg" viewBox="0 0 24 24"><title>style-three-pin-car-key</title><circle cx="15.25" cy="5.5" r="0.75"/><path d="M13,9.5H11a1.74,1.74,0,0,0-1.946,1.712A.249.249,0,0,0,9.3,11.5h5.4a.249.249,0,0,0,.247-.288A1.74,1.74,0,0,0,13,9.5Z"/><path d="M12,0C6.21,0,1.5,4.262,1.5,9.5c0,5.748,7.3,12.285,9.54,14.152a1.5,1.5,0,0,0,1.921,0C15.2,21.784,22.5,15.246,22.5,9.5,22.5,4.262,17.79,0,12,0ZM6.75,6A1.752,1.752,0,0,1,8.5,4.25h4.752a.251.251,0,0,0,.2-.1,2.258,2.258,0,1,1-.395,1.8.249.249,0,0,0-.245-.2H11a.25.25,0,0,0-.25.25v.75a.75.75,0,0,1-1.5,0V6A.25.25,0,0,0,9,5.75H8.5A.25.25,0,0,0,8.25,6v.75a.75.75,0,0,1-1.5,0Zm9.861,9.152a.253.253,0,0,0-.111.208v.89a.75.75,0,0,1-1.5,0v-.5a.25.25,0,0,0-.25-.25H9.25a.25.25,0,0,0-.25.25v.5a.75.75,0,0,1-1.5,0v-.89a.25.25,0,0,0-.111-.208,2.014,2.014,0,0,1-.688-.793A.25.25,0,0,1,6.926,14H8.5a.5.5,0,0,0,0-1H6.928a.25.25,0,0,1-.226-.358A2.005,2.005,0,0,1,7.87,11.608a.251.251,0,0,0,.17-.214C8.215,9.505,9.225,8.5,11,8.5h2c1.775,0,2.785,1.005,2.96,2.894a.251.251,0,0,0,.17.214A2.005,2.005,0,0,1,17.3,12.642a.25.25,0,0,1-.226.358H15.5a.5.5,0,0,0,0,1h1.574a.25.25,0,0,1,.225.359A2.014,2.014,0,0,1,16.611,15.152Z"/></svg>