<svg xmlns="http://www.w3.org/2000/svg" viewBox="0 0 24 24"><title>style-three-pin-restaurant</title><path d="M12,0C6.21,0,1.5,4.262,1.5,9.5c0,5.747,7.3,12.285,9.54,14.152a1.5,1.5,0,0,0,1.921,0C15.2,21.784,22.5,15.246,22.5,9.5,22.5,4.262,17.79,0,12,0Zm.5,8.75a3.248,3.248,0,0,1-2.167,3.056.5.5,0,0,0-.333.471V15.75a.75.75,0,0,1-1.5,0V12.277a.5.5,0,0,0-.333-.471A3.248,3.248,0,0,1,6,8.75v-3a.75.75,0,0,1,1.5,0V9a.5.5,0,0,0,1,0V5.75a.75.75,0,0,1,1.5,0V9a.5.5,0,0,0,1,0V5.75a.75.75,0,0,1,1.5,0Zm4.75,5H16.5a.5.5,0,0,0-.5.5v1.5a.75.75,0,0,1-1.5,0v-10a.749.749,0,0,1,1.084-.671C17.813,6.188,18,9.749,18,13A.75.75,0,0,1,17.25,13.75Z"/></svg>