<svg xmlns="http://www.w3.org/2000/svg" viewBox="0 0 24 24"><title>style-three-pin-block</title><path d="M14.92,6.52a.25.25,0,0,0-.038-.385A5.168,5.168,0,0,0,12,5.25,5.256,5.256,0,0,0,6.75,10.5a5.168,5.168,0,0,0,.885,2.882.249.249,0,0,0,.183.11.252.252,0,0,0,.2-.072Z"/><path d="M9.08,14.48a.252.252,0,0,0-.072.2.249.249,0,0,0,.11.183A5.168,5.168,0,0,0,12,15.75a5.256,5.256,0,0,0,5.25-5.25,5.168,5.168,0,0,0-.885-2.882.249.249,0,0,0-.183-.11.252.252,0,0,0-.2.072Z"/><path d="M12,0C6.21,0,1.5,4.262,1.5,9.5c0,5.747,7.3,12.285,9.54,14.152a1.5,1.5,0,0,0,1.921,0C15.2,21.784,22.5,15.246,22.5,9.5,22.5,4.262,17.79,0,12,0Zm0,17.25a6.75,6.75,0,1,1,6.75-6.75A6.758,6.758,0,0,1,12,17.25Z"/></svg>