<svg xmlns="http://www.w3.org/2000/svg" viewBox="0 0 24 24"><title>style-three-pin-brush</title><path d="M12,0C6.21,0,1.5,4.262,1.5,9.5c0,5.747,7.3,12.285,9.54,14.152a1.5,1.5,0,0,0,1.921,0C15.2,21.784,22.5,15.246,22.5,9.5,22.5,4.262,17.79,0,12,0Zm6,7.5a1,1,0,0,1-1,1H9a1,1,0,0,1-1-1,.25.25,0,0,0-.25-.25h-1a.25.25,0,0,0-.25.25V9.75a.25.25,0,0,0,.25.25h5.5A1.752,1.752,0,0,1,14,11.75v1.043a.249.249,0,0,0,.167.235.5.5,0,0,1,.333.472v4.25a1.25,1.25,0,0,1-2.5,0V13.5a.5.5,0,0,1,.333-.472.249.249,0,0,0,.167-.235V11.75a.25.25,0,0,0-.25-.25H6.75A1.752,1.752,0,0,1,5,9.75V7.5A1.752,1.752,0,0,1,6.75,5.75h1A.25.25,0,0,0,8,5.5a1,1,0,0,1,1-1h8a1,1,0,0,1,1,1Z"/></svg>