<svg xmlns="http://www.w3.org/2000/svg" viewBox="0 0 24 24"><title>style-three-pin-binoculars</title><path d="M7.5,10.5a2,2,0,0,0-2,2,.5.5,0,0,0,1,0,1,1,0,0,1,1-1,.5.5,0,0,0,0-1Z"/><path d="M12,0C6.21,0,1.5,4.262,1.5,9.5c0,5.748,7.3,12.285,9.54,14.152a1.5,1.5,0,0,0,1.921,0C15.2,21.784,22.5,15.246,22.5,9.5,22.5,4.262,17.79,0,12,0ZM7.5,15.5a3,3,0,1,1,3-3A3,3,0,0,1,7.5,15.5Zm5.665-5.477A.25.25,0,0,1,13,9.788V8.479a.5.5,0,0,0-.4-.489,2.981,2.981,0,0,0-1.2,0,.5.5,0,0,0-.4.489V9.788a.25.25,0,0,1-.443.159,3.942,3.942,0,0,0-5.057-.9.25.25,0,0,1-.36-.3L6.6,4.961A2.278,2.278,0,0,1,11,5.778v.249a.5.5,0,0,0,.556.5,3.955,3.955,0,0,1,.888,0,.5.5,0,0,0,.556-.5V5.778a2.279,2.279,0,0,1,4.405-.818L18.86,8.743a.25.25,0,0,1-.36.3,3.942,3.942,0,0,0-5.057.9A.251.251,0,0,1,13.165,10.023ZM16.5,15.5a3,3,0,1,1,3-3A3,3,0,0,1,16.5,15.5Z"/><path d="M17,10.5a2,2,0,0,0-2,2,.5.5,0,0,0,1,0,1,1,0,0,1,1-1,.5.5,0,0,0,0-1Z"/></svg>