<svg xmlns="http://www.w3.org/2000/svg" viewBox="0 0 24 24"><title>style-three-pin-wifi</title><path d="M12,0C6.21,0,1.5,4.262,1.5,9.5c0,5.747,7.3,12.285,9.54,14.152a1.5,1.5,0,0,0,1.921,0C15.2,21.784,22.5,15.246,22.5,9.5,22.5,4.262,17.79,0,12,0Zm0,16a2,2,0,1,1,2-2A2,2,0,0,1,12,16Zm3.922-4.927a.749.749,0,0,1-1.05.143,4.757,4.757,0,0,0-5.745,0,.75.75,0,0,1-.908-1.194,6.26,6.26,0,0,1,7.561,0A.75.75,0,0,1,15.922,11.073ZM18.6,7.95a.752.752,0,0,1-.6.3.743.743,0,0,1-.45-.151,9.278,9.278,0,0,0-11.1,0A.743.743,0,0,1,6,8.25.75.75,0,0,1,5.548,6.9a10.788,10.788,0,0,1,12.9,0A.751.751,0,0,1,18.6,7.95Z"/></svg>