<svg xmlns="http://www.w3.org/2000/svg" viewBox="0 0 24 24"><title>style-three-pin-arrow-double</title><path d="M12,0C6.21,0,1.5,4.262,1.5,9.5c0,5.747,7.3,12.285,9.54,14.152a1.5,1.5,0,0,0,1.921,0C15.2,21.784,22.5,15.246,22.5,9.5,22.5,4.262,17.79,0,12,0Zm1.181,9.349a.749.749,0,0,1,0-1.06l.634-.635a.5.5,0,0,0,.132-.474l-.232-.929a.5.5,0,0,1,.347-.6l3.081-.88a.5.5,0,0,1,.491.127.5.5,0,0,1,.127.491l-.88,3.08a.5.5,0,0,1-.481.363.507.507,0,0,1-.121-.015l-.928-.232a.5.5,0,0,0-.475.131l-.635.635a.748.748,0,0,1-1.06,0Zm-2.362,2.362a.75.75,0,0,1,0,1.061l-.373.373a.5.5,0,0,0-.146.353v.992a.5.5,0,0,1-.147.354L8.394,16.6a.5.5,0,0,1-.354.146.489.489,0,0,1-.191-.038.5.5,0,0,1-.309-.462V15.24a.25.25,0,0,0-.25-.25H6.28a.5.5,0,0,1-.353-.853l1.76-1.761a.5.5,0,0,1,.353-.146h.992a.5.5,0,0,0,.353-.146l.374-.374A.75.75,0,0,1,10.819,11.711Zm7.254,2.426a.5.5,0,0,1-.353.853H16.71a.25.25,0,0,0-.25.25v1.01a.5.5,0,0,1-.309.462.489.489,0,0,1-.191.038.5.5,0,0,1-.354-.146l-1.759-1.76a.5.5,0,0,1-.147-.354V13.5a.5.5,0,0,0-.146-.354l-4.43-4.43a.5.5,0,0,0-.475-.131l-.928.232a.5.5,0,0,1-.6-.348l-.88-3.08a.5.5,0,0,1,.618-.618l3.08.88a.5.5,0,0,1,.348.6l-.232.929a.5.5,0,0,0,.132.474l4.429,4.43a.5.5,0,0,0,.354.146h.992a.5.5,0,0,1,.353.146Z"/></svg>