<svg xmlns="http://www.w3.org/2000/svg" viewBox="0 0 24 24"><title>style-three-pin-water-scooter-1</title><path d="M12,0C6.21,0,1.5,4.262,1.5,9.5c0,5.747,7.3,12.285,9.54,14.152a1.5,1.5,0,0,0,1.921,0C15.2,21.784,22.5,15.246,22.5,9.5,22.5,4.262,17.79,0,12,0Zm5,15a3.515,3.515,0,0,1-2.351-.83.219.219,0,0,0-.3,0A3.52,3.52,0,0,1,12,15a3.513,3.513,0,0,1-2.35-.83.219.219,0,0,0-.3,0A3.52,3.52,0,0,1,7,15a.5.5,0,0,1,0-1c.827,0,1.812-.353,2.018-1.128a.519.519,0,0,1,.966,0C10.191,13.647,11.174,14,12,14s1.812-.353,2.018-1.128a.519.519,0,0,1,.966,0C15.191,13.647,16.175,14,17,14a.5.5,0,0,1,0,1Zm1.06-2.133a.178.178,0,0,1-.172.133A1.731,1.731,0,0,0,17,12.75a1.812,1.812,0,0,1-.7-.138.252.252,0,0,1-.138-.153,1.752,1.752,0,0,0-1.655-1.227,1.725,1.725,0,0,0-1.662,1.209.248.248,0,0,1-.118.144,1.6,1.6,0,0,1-.73.165,1.811,1.811,0,0,1-.7-.138.252.252,0,0,1-.138-.153A1.752,1.752,0,0,0,9.51,11.232a1.725,1.725,0,0,0-1.662,1.209.248.248,0,0,1-.118.144A1.6,1.6,0,0,1,7,12.75a1.679,1.679,0,0,0-.188.01.248.248,0,0,1-.25-.137L5.431,10.362A.25.25,0,0,1,5.654,10l12.885,0a.251.251,0,0,1,.241.318C18.525,11.23,18.175,12.421,18.061,12.867ZM5.456,9a.25.25,0,0,1-.24-.322C5.625,7.33,6.661,4.766,8.682,4.52a.5.5,0,0,1,.477.219l.189.283a.246.246,0,0,0,.183.11.249.249,0,0,0,.2-.072l.913-.913A.5.5,0,0,1,11,4h2a.5.5,0,0,1,0,1H11.311a.25.25,0,0,0-.177.074l-.981.98a.122.122,0,0,0-.015.154l.788,1.181a.25.25,0,0,0,.208.111H17a1.991,1.991,0,0,1,1.8,1.141.252.252,0,0,1-.015.241A.249.249,0,0,1,18.573,9Z"/></svg>