<svg xmlns="http://www.w3.org/2000/svg" viewBox="0 0 24 24"><title>style-three-pin-movie-reel</title><path d="M12,0C6.21,0,1.5,4.262,1.5,9.5c0,5.748,7.3,12.285,9.54,14.152a1.5,1.5,0,0,0,1.921,0C15.2,21.784,22.5,15.246,22.5,9.5,22.5,4.262,17.79,0,12,0Zm5.5,6V7a.25.25,0,0,1-.25.25H14.914a.25.25,0,0,1-.177-.427L16.78,4.78a.062.062,0,0,1,.078-.006A1.5,1.5,0,0,1,17.5,6ZM10.414,7.25a.25.25,0,0,1-.177-.427L12.28,4.78a.652.652,0,0,0,.114-.151.249.249,0,0,1,.219-.129h1.723a.25.25,0,0,1,.177.427l-2.25,2.25a.251.251,0,0,1-.177.073ZM6.5,6A1.5,1.5,0,0,1,8,4.5H9.836a.25.25,0,0,1,.177.427l-2.25,2.25a.251.251,0,0,1-.177.073H6.75A.25.25,0,0,1,6.5,7Zm11,8A1.5,1.5,0,0,1,16,15.5H8A1.5,1.5,0,0,1,6.5,14V9a.25.25,0,0,1,.25-.25h10.5A.25.25,0,0,1,17.5,9Z"/><path d="M9.715,10.089A.5.5,0,0,0,9.5,10.5v3a.5.5,0,0,0,.5.5.511.511,0,0,0,.176-.032l4-1.5a.5.5,0,0,0,0-.936l-4-1.5A.5.5,0,0,0,9.715,10.089Z"/></svg>