<svg xmlns="http://www.w3.org/2000/svg" viewBox="0 0 24 24"><title>style-three-pin-disabled</title><path d="M12,0C6.21,0,1.5,4.262,1.5,9.5c0,5.747,7.3,12.285,9.54,14.152a1.5,1.5,0,0,0,1.921,0C15.2,21.784,22.5,15.246,22.5,9.5,22.5,4.262,17.79,0,12,0Zm2.278,14.9a4.25,4.25,0,0,1-7.245-4.446.75.75,0,1,1,1.285.775,2.751,2.751,0,0,0,4.69,2.875.749.749,0,1,1,1.27.8Zm3.546-1.409a.75.75,0,0,1,.352,1.458l-1.458.352a.749.749,0,0,1-.9-.553l-.528-2.187a.5.5,0,0,0-.6-.369l-2.673.645A1.749,1.749,0,0,1,9.9,11.545L8.932,7.552a.5.5,0,0,0-.24-.318,2,2,0,1,1,2.046-.048.5.5,0,0,0-.22.541l.015.064a.5.5,0,0,0,.6.369l2.674-.646a.75.75,0,0,1,.352,1.458l-2.673.646a.5.5,0,0,0-.369.6l.234.972a.25.25,0,0,0,.3.184l3.889-.938a.75.75,0,0,1,.9.553l.528,2.187a.5.5,0,0,0,.6.369Z"/></svg>