<svg xmlns="http://www.w3.org/2000/svg" viewBox="0 0 24 24"><title>style-three-pin-tennis</title><path d="M12,0C6.21,0,1.5,4.262,1.5,9.5c0,5.747,7.3,12.285,9.54,14.152a1.5,1.5,0,0,0,1.921,0C15.2,21.784,22.5,15.246,22.5,9.5,22.5,4.262,17.79,0,12,0ZM6.5,6a2,2,0,1,1,2,2A2,2,0,0,1,6.5,6Zm11.805,5.912a4.831,4.831,0,0,1-3.057,1.435c-.1.008-.21.011-.312.011a3.883,3.883,0,0,1-1.8-.43.5.5,0,0,0-.585.09L9.03,16.534a.75.75,0,0,1-1.06-1.06l3.522-3.523a.5.5,0,0,0,.09-.583A4.5,4.5,0,0,1,12.591,6.2a4.83,4.83,0,0,1,3.056-1.434,3.739,3.739,0,0,1,4.092,4.091A4.835,4.835,0,0,1,18.305,11.912Z"/><path d="M15.956,6.254c-.067,0-.134,0-.2.007a3.333,3.333,0,0,0-2.1,1,2.833,2.833,0,0,0-.357,3.951,2.319,2.319,0,0,0,1.848.641,3.472,3.472,0,0,0,3.1-3.1A2.326,2.326,0,0,0,17.6,6.9,2.285,2.285,0,0,0,15.956,6.254Z"/></svg>