<svg xmlns="http://www.w3.org/2000/svg" viewBox="0 0 24 24"><title>style-three-pin-bow</title><path d="M12,0C6.21,0,1.5,4.262,1.5,9.5c0,5.747,7.3,12.285,9.54,14.152a1.5,1.5,0,0,0,1.921,0C15.2,21.784,22.5,15.246,22.5,9.5,22.5,4.262,17.79,0,12,0Zm7.764,10.9-1.857,1.393a.5.5,0,0,1-.3.1.5.5,0,0,1-.5-.5V11.5a.5.5,0,0,0-.5-.5H6.885a.25.25,0,0,0-.188.415l3.042,3.463a.5.5,0,0,0,.482.159,4.648,4.648,0,0,0,3.33-2.849.465.465,0,0,1,.433-.295h1.005a.464.464,0,0,1,.442.607A6.507,6.507,0,0,1,9.25,17a.928.928,0,0,1-.929-.929.875.875,0,0,1,.167-.514.5.5,0,0,0-.03-.622L5.39,11.442a1.458,1.458,0,0,1,0-1.883L8.458,6.065a.5.5,0,0,0,.03-.622.875.875,0,0,1-.167-.514A.928.928,0,0,1,9.25,4a6.507,6.507,0,0,1,6.181,4.5.464.464,0,0,1-.442.607H13.984a.465.465,0,0,1-.433-.295,4.648,4.648,0,0,0-3.33-2.849.5.5,0,0,0-.482.159L6.7,9.585A.25.25,0,0,0,6.885,10h9.722a.5.5,0,0,0,.5-.5V9.107a.5.5,0,0,1,.8-.4L19.764,10.1a.5.5,0,0,1,0,.8Z"/></svg>