<svg xmlns="http://www.w3.org/2000/svg" viewBox="0 0 24 24"><title>style-three-pin-hold-home</title><path d="M12,0C6.21,0,1.5,4.262,1.5,9.5c0,5.747,7.3,12.285,9.54,14.152a1.5,1.5,0,0,0,1.921,0C15.2,21.784,22.5,15.246,22.5,9.5,22.5,4.262,17.79,0,12,0ZM8,7.5a.5.5,0,0,1-.354-.854l4-4a.5.5,0,0,1,.708,0l4,4A.5.5,0,0,1,16,7.5a.5.5,0,0,0-.5.5V9.5a1,1,0,0,1-1,1H14a1,1,0,0,1-1-1v-1a1,1,0,0,0-2,0v1a1,1,0,0,1-1,1H9.5a1,1,0,0,1-1-1V8A.5.5,0,0,0,8,7.5Zm9.938,6.847c-1.3.79-4.479,2.658-5.438,2.654s-1.961-.593-4.145-1.608A.25.25,0,0,0,8,15.62v.131a.75.75,0,1,1-1.5,0v-4a.75.75,0,1,1,1.5,0A.249.249,0,0,0,8.249,12H9.5c1.33,0,2.217,1,2.5,1h1.5a.483.483,0,0,1,.246.074.5.5,0,0,1,.215.231.506.506,0,0,1,.039.2.5.5,0,0,1-.5.5h-2a.5.5,0,0,0,0,1h2a1.5,1.5,0,0,0,1.426-1.046.252.252,0,0,1,.155-.16l1.724-.613a1.252,1.252,0,0,1,1.189.351.5.5,0,0,1-.056.815Z"/></svg>