<svg xmlns="http://www.w3.org/2000/svg" viewBox="0 0 24 24"><title>style-three-pin-baseball</title><path d="M12,0C6.21,0,1.5,4.262,1.5,9.5c0,5.748,7.3,12.285,9.54,14.152a1.5,1.5,0,0,0,1.921,0C15.2,21.784,22.5,15.246,22.5,9.5,22.5,4.262,17.79,0,12,0Zm-.951,14.731a.5.5,0,0,1-.6.3,5.682,5.682,0,0,1-1.428-.625.5.5,0,0,1-.091-.781c1.4-1.394,5.807-5.8,7.2-7.2a.5.5,0,0,1,.78.093,5.68,5.68,0,0,1,.625,1.43.5.5,0,0,1-.3.6A11.132,11.132,0,0,0,13.47,10.97,11.377,11.377,0,0,0,11.049,14.731Zm1.9-10.461a.5.5,0,0,1,.6-.3,5.686,5.686,0,0,1,1.424.623.5.5,0,0,1,.093.78c-1.395,1.394-5.806,5.8-7.2,7.2a.5.5,0,0,1-.781-.091,5.728,5.728,0,0,1-.627-1.434.5.5,0,0,1,.3-.6A11.158,11.158,0,0,0,10.53,8.03,11.383,11.383,0,0,0,12.951,4.27Zm-2.413-.327a.5.5,0,0,1,.573.71A9.212,9.212,0,0,1,9.47,6.97,9.212,9.212,0,0,1,7.153,8.611a.5.5,0,0,1-.71-.573A5.762,5.762,0,0,1,10.538,3.943Zm2.924,11.114a.5.5,0,0,1-.573-.71A9.212,9.212,0,0,1,14.53,12.03a9.212,9.212,0,0,1,2.317-1.641.5.5,0,0,1,.71.573A5.762,5.762,0,0,1,13.462,15.057Z"/></svg>