<svg xmlns="http://www.w3.org/2000/svg" viewBox="0 0 24 24"><title>style-three-pin-shinto</title><path d="M13.25,7.5a.5.5,0,0,0-.5.5v1.25a.5.5,0,0,0,.5.5h.777a.5.5,0,0,0,.5-.561l-.155-1.25a.5.5,0,0,0-.5-.439Z"/><path d="M22.389,7.937a8.668,8.668,0,0,0-4.01-6.032,12.126,12.126,0,0,0-12.758,0,8.668,8.668,0,0,0-4.01,6.032,10.786,10.786,0,0,0,2.577,8.486,59.243,59.243,0,0,0,7.17,7.252,1,1,0,0,0,1.284,0,60.382,60.382,0,0,0,7.17-7.253A10.786,10.786,0,0,0,22.389,7.937ZM18.75,10.5a.75.75,0,0,1-.75.75H16.856a.5.5,0,0,0-.5.562l.384,3.1a.749.749,0,0,1-.652.836.726.726,0,0,1-.093.006.749.749,0,0,1-.743-.657l-.422-3.4a.5.5,0,0,0-.5-.439H9.663a.5.5,0,0,0-.5.439l-.422,3.4A.749.749,0,0,1,8,15.746a.726.726,0,0,1-.093-.006.749.749,0,0,1-.652-.836l.384-3.1a.5.5,0,0,0-.5-.562H6a.75.75,0,0,1,0-1.5H7.454a.5.5,0,0,0,.5-.438l.155-1.25a.5.5,0,0,0-.5-.562H7.39a.5.5,0,0,1-.485-.378l-.6-2.4a.5.5,0,0,1,.728-.558A10.384,10.384,0,0,0,12,5.5a10.384,10.384,0,0,0,4.966-1.334.5.5,0,0,1,.728.558l-.6,2.4a.5.5,0,0,1-.485.378h-.219a.5.5,0,0,0-.5.562l.155,1.25a.5.5,0,0,0,.5.438H18A.75.75,0,0,1,18.75,10.5Z"/><path d="M11.25,8a.5.5,0,0,0-.5-.5h-.622a.5.5,0,0,0-.5.439l-.155,1.25a.5.5,0,0,0,.5.561h.777a.5.5,0,0,0,.5-.5Z"/></svg>