<svg xmlns="http://www.w3.org/2000/svg" viewBox="0 0 24 24"><title>style-one-pin-book</title><path d="M12,0A9.5,9.5,0,0,0,8,18.119a2.5,2.5,0,0,1,1.218,1.222l1.873,4.076a1,1,0,0,0,1.817,0l1.876-4.08A2.5,2.5,0,0,1,16,18.118,9.5,9.5,0,0,0,12,0Zm-.5,14.283a.5.5,0,0,1-.5.5.492.492,0,0,1-.224-.053l-4-2a.5.5,0,0,1-.276-.447v-6a.5.5,0,0,1,.724-.447l4,2a.5.5,0,0,1,.276.447Zm.5-7.5a.492.492,0,0,1-.224-.053L8.209,4.947a.5.5,0,0,1,.448-.894L12,5.725l3.343-1.672a.5.5,0,1,1,.448.894L12.224,6.73A.492.492,0,0,1,12,6.783Zm5.5,5.5a.5.5,0,0,1-.276.447l-4,2a.492.492,0,0,1-.224.053.5.5,0,0,1-.5-.5v-6a.5.5,0,0,1,.276-.447l4-2a.5.5,0,0,1,.724.447Z"/></svg>