<svg xmlns="http://www.w3.org/2000/svg" viewBox="0 0 24 24"><title>style-three-pin-x-remove</title><path d="M12,0C6.21,0,1.5,4.262,1.5,9.5c0,5.749,7.3,12.286,9.54,14.152a1.5,1.5,0,0,0,1.921,0C15.2,21.784,22.5,15.246,22.5,9.5,22.5,4.262,17.79,0,12,0Zm4.207,13.293a1,1,0,1,1-1.414,1.414l-2.439-2.439a.5.5,0,0,0-.708,0L9.207,14.707a1,1,0,1,1-1.414-1.414l2.439-2.439a.5.5,0,0,0,0-.708L7.793,7.707A1,1,0,1,1,9.207,6.293l2.439,2.439a.5.5,0,0,0,.708,0l2.439-2.439a1,1,0,1,1,1.414,1.414l-2.439,2.439a.5.5,0,0,0,0,.708Z"/></svg>