<svg xmlns="http://www.w3.org/2000/svg" viewBox="0 0 24 24"><title>style-three-pin-signal-antenna</title><path d="M11.169,13.5a.25.25,0,0,0-.239.178l-.3,1a.25.25,0,0,0,.239.322h2.262a.25.25,0,0,0,.239-.322l-.3-1a.25.25,0,0,0-.239-.178Z"/><path d="M12,0C6.21,0,1.5,4.262,1.5,9.5c0,5.747,7.3,12.285,9.54,14.152a1.5,1.5,0,0,0,1.921,0C15.2,21.784,22.5,15.246,22.5,9.5,22.5,4.262,17.79,0,12,0ZM7.142,11.857a4.748,4.748,0,0,1,0-6.717A.75.75,0,1,1,8.2,6.2a3.25,3.25,0,0,0,0,4.6.75.75,0,1,1-1.06,1.061Zm8.074,6.359a.75.75,0,0,1-.935-.5l-.311-1.037a.25.25,0,0,0-.239-.178H10.269a.25.25,0,0,0-.239.178l-.311,1.037a.75.75,0,0,1-1.438-.43L10.8,8.878a1.25,1.25,0,0,1,2.394,0l2.522,8.405A.751.751,0,0,1,15.216,18.216ZM16.858,5.14a4.748,4.748,0,0,1,0,6.717A.75.75,0,1,1,15.8,10.8a3.25,3.25,0,0,0,0-4.6.75.75,0,1,1,1.06-1.06Z"/><path d="M12.231,12a.25.25,0,0,0,.239-.322l-.231-.769a.249.249,0,0,0-.478,0l-.231.769a.25.25,0,0,0,.239.322Z"/></svg>