<svg xmlns="http://www.w3.org/2000/svg" viewBox="0 0 24 24"><title>style-three-pin-call</title><path d="M12,0C6.21,0,1.5,4.262,1.5,9.5c0,5.747,7.3,12.285,9.54,14.152a1.5,1.5,0,0,0,1.921,0C15.2,21.784,22.5,15.246,22.5,9.5,22.5,4.262,17.79,0,12,0Zm3.838,14.214a1.412,1.412,0,0,1,0,1.993l-.676.674a1.99,1.99,0,0,1-2.5.251,27.133,27.133,0,0,1-7.6-7.6,2,2,0,0,1,.251-2.5l.674-.674a1.411,1.411,0,0,1,1.993,0L9.205,7.582a1.412,1.412,0,0,1,0,1.993.383.383,0,0,0-.019.52,27.38,27.38,0,0,0,2.91,2.91.383.383,0,0,0,.52-.02,1.444,1.444,0,0,1,1.992,0ZM11,7.5a.5.5,0,0,1,.5-.5,3,3,0,0,1,3,3,.5.5,0,0,1-1,0,2,2,0,0,0-2-2A.5.5,0,0,1,11,7.5Zm6,3a.5.5,0,0,1-.5-.5,5.006,5.006,0,0,0-5-5,.5.5,0,0,1,0-1,6.006,6.006,0,0,1,6,6A.5.5,0,0,1,17,10.5Z"/></svg>