<svg xmlns="http://www.w3.org/2000/svg" viewBox="0 0 24 24"><title>style-one-pin-gym</title><path d="M12,0A9.5,9.5,0,0,0,8,18.119a2.5,2.5,0,0,1,1.218,1.222l1.873,4.076a1,1,0,0,0,1.818,0l1.875-4.079A2.5,2.5,0,0,1,16,18.118,9.5,9.5,0,0,0,12,0Zm7,10H18a.5.5,0,0,0-.5.5v.75a1.75,1.75,0,0,1-3.5,0V10.5a.5.5,0,0,0-.5-.5h-3a.5.5,0,0,0-.5.5v.75a1.75,1.75,0,0,1-3.5,0V10.5A.5.5,0,0,0,6,10H5A.75.75,0,0,1,5,8.5H6A.5.5,0,0,0,6.5,8V7.25a1.75,1.75,0,0,1,3.5,0V8a.5.5,0,0,0,.5.5h3A.5.5,0,0,0,14,8V7.25a1.75,1.75,0,0,1,3.5,0V8a.5.5,0,0,0,.5.5h1A.75.75,0,0,1,19,10Z"/></svg>