<svg xmlns="http://www.w3.org/2000/svg" viewBox="0 0 24 24"><title>style-three-pin-church</title><path d="M12,0C6.21,0,1.5,4.262,1.5,9.5c0,5.748,7.3,12.285,9.54,14.152a1.5,1.5,0,0,0,1.921,0C15.2,21.784,22.5,15.246,22.5,9.5,22.5,4.262,17.79,0,12,0Zm5.467,11.679A.5.5,0,0,1,17,12h-.5a.5.5,0,0,0-.5.5v4a1,1,0,0,1-1,1H14a1,1,0,0,1-1-1v-2a1,1,0,0,0-2,0v2a1,1,0,0,1-1,1H9a1,1,0,0,1-1-1v-4a.5.5,0,0,0-.5-.5H7a.5.5,0,0,1-.334-.872l4.418-3.977a.5.5,0,0,0,.166-.371V6.25a.5.5,0,0,0-.5-.5h-.5a.75.75,0,0,1,0-1.5h.5a.5.5,0,0,0,.5-.5v-.5a.75.75,0,0,1,1.5,0v.5a.5.5,0,0,0,.5.5h.5a.75.75,0,0,1,0,1.5h-.5a.5.5,0,0,0-.5.5v.53a.5.5,0,0,0,.166.371l4.418,3.977A.5.5,0,0,1,17.467,11.679Z"/></svg>