<svg xmlns="http://www.w3.org/2000/svg" viewBox="0 0 24 24"><title>style-three-pin-camera_1</title><path d="M12,0C6.21,0,1.5,4.262,1.5,9.5c0,5.747,7.3,12.285,9.54,14.152a1.5,1.5,0,0,0,1.921,0C15.2,21.784,22.5,15.246,22.5,9.5,22.5,4.262,17.79,0,12,0Zm6.5,13.5A1.5,1.5,0,0,1,17,15H7a1.5,1.5,0,0,1-1.5-1.5v-6A1.5,1.5,0,0,1,7,6H8.279a.5.5,0,0,0,.475-.342l.211-.633A1.5,1.5,0,0,1,10.388,4h3.225a1.5,1.5,0,0,1,1.423,1.025l.211.633A.5.5,0,0,0,15.721,6H17a1.5,1.5,0,0,1,1.5,1.5Z"/><circle cx="12" cy="10" r="3"/></svg>