<svg xmlns="http://www.w3.org/2000/svg" viewBox="0 0 24 24"><defs><style>.a{fill:none;stroke:#000;stroke-linecap:round;stroke-linejoin:round;}</style></defs><title>style-three-pin-hat</title><line class="a" x1="9" y1="11.574" x2="7" y2="11.574"/><path class="a" d="M15,6.574H10a1,1,0,0,0-1,1v4h8v-3A2,2,0,0,0,15,6.574Z"/><line class="a" x1="15" y1="9.574" x2="15" y2="11.574"/><line class="a" x1="11" y1="8.574" x2="13" y2="8.574"/><circle class="a" cx="14" cy="12.574" r="1"/><path class="a" d="M12,.574a11.38,11.38,0,0,1,6.112,1.77c4.75,3.011,5.1,9.23,1.315,13.777a59.333,59.333,0,0,1-7.106,7.189.5.5,0,0,1-.642,0,59.3,59.3,0,0,1-7.106-7.188C.789,11.574,1.138,5.355,5.888,2.344A11.38,11.38,0,0,1,12,.574Z"/></svg>