<svg xmlns="http://www.w3.org/2000/svg" viewBox="0 0 24 24"><title>style-three-pin-braille</title><path d="M12,0C6.21,0,1.5,4.262,1.5,9.5c0,5.747,7.3,12.285,9.54,14.152a1.5,1.5,0,0,0,1.921,0C15.2,21.784,22.5,15.246,22.5,9.5,22.5,4.262,17.79,0,12,0ZM6.561,10a1,1,0,1,1,1-1A1,1,0,0,1,6.561,10Zm9-6a1,1,0,1,1-1,1A1,1,0,0,1,15.561,4Zm-3,0a1,1,0,1,1-1,1A1,1,0,0,1,12.561,4Zm-3,0a1,1,0,1,1-1,1A1,1,0,0,1,9.561,4Zm-1,5a1,1,0,1,1,1,1A1,1,0,0,1,8.561,9Zm8.394,5.02c-.108.469-.542,1.855-.784,2.629a.5.5,0,0,1-.478.351H12.768a.5.5,0,0,1-.353-.146L10.061,14.5c-1.126-1.244.371-1.864,1.606-.988a.25.25,0,0,0,.394-.2V10a1,1,0,1,1,2,0v1.605a.5.5,0,0,0,.39.487C15.843,12.408,17.274,12.638,16.955,14.02Z"/></svg>