<svg xmlns="http://www.w3.org/2000/svg" viewBox="0 0 24 24"><title>style-three-pin-stationary</title><path d="M12,0C6.21,0,1.5,4.262,1.5,9.5c0,5.747,7.3,12.285,9.54,14.152a1.5,1.5,0,0,0,1.921,0C15.2,21.784,22.5,15.246,22.5,9.5,22.5,4.262,17.79,0,12,0Zm1.584,5.471c.154-.527,1.026-1.2,1.605-1.6a.541.541,0,0,1,.779.227,4.413,4.413,0,0,1,.5,2.208,1.5,1.5,0,1,1-2.88-.839Zm-.92,3.465v0a.5.5,0,0,1,.635-.411l1.767.514a.5.5,0,0,1,.314.689v0l-.726,1.625a.25.25,0,0,1-.228.148h-1.85a.25.25,0,0,1-.247-.287Zm-1.746,2.279a.251.251,0,0,1-.247.285H9.155a.25.25,0,0,1-.247-.215L8.459,8.12a.25.25,0,0,1,.213-.282l1.485-.212a.249.249,0,0,1,.282.212Zm-.677-4.78a.168.168,0,0,1-.142.189l-1.648.235a.17.17,0,0,1-.191-.143l.211-2.335a.5.5,0,0,1,.919-.13ZM16.5,16a.5.5,0,0,1-.5.5H8a.5.5,0,0,1-.5-.5V13a.5.5,0,0,1,.5-.5h8a.5.5,0,0,1,.5.5Z"/></svg>