<svg xmlns="http://www.w3.org/2000/svg" viewBox="0 0 24 24"><title>style-three-pin-locker</title><path d="M9.5,6.51H8a.5.5,0,0,0,0,1H9.5a.5.5,0,0,0,0-1Z"/><circle cx="8.25" cy="10.76" r="0.75"/><path d="M12,0C6.21,0,1.5,4.262,1.5,9.5c0,5.747,7.3,12.285,9.54,14.152a1.5,1.5,0,0,0,1.921,0C15.2,21.784,22.5,15.246,22.5,9.5,22.5,4.262,17.79,0,12,0Zm-.5,14.5a.5.5,0,0,1-.5.5H7a.5.5,0,0,1-.5-.5v-9A.5.5,0,0,1,7,5l4,.009a.5.5,0,0,1,.5.5Zm6.5,0a.5.5,0,0,1-.5.5h-4a.5.5,0,0,1-.5-.5V5.509a.5.5,0,0,1,.5-.5L17.5,5a.5.5,0,0,1,.5.5Z"/><path d="M16,6.51H14.5a.5.5,0,0,0,0,1H16a.5.5,0,0,0,0-1Z"/><circle cx="14.75" cy="10.76" r="0.75"/></svg>