<svg xmlns="http://www.w3.org/2000/svg" viewBox="0 0 24 24"><title>style-three-pin-paw</title><path d="M12,0C6.21,0,1.5,4.262,1.5,9.5c0,5.748,7.3,12.285,9.54,14.152a1.5,1.5,0,0,0,1.921,0C15.2,21.784,22.5,15.246,22.5,9.5,22.5,4.262,17.79,0,12,0Zm2.25,4.5A1.5,1.5,0,1,1,12.75,6,1.5,1.5,0,0,1,14.25,4.5Zm-4.5,0A1.5,1.5,0,1,1,8.25,6,1.5,1.5,0,0,1,9.75,4.5ZM7,11A1.5,1.5,0,1,1,8.5,9.5,1.5,1.5,0,0,1,7,11Zm5,5.25c-2.209,0-4-1.119-4-2.5a2.059,2.059,0,0,1,.964-1.627,4,4,0,0,0,1.291-1.595A1.981,1.981,0,0,1,12,9.25a1.981,1.981,0,0,1,1.745,1.278,3.976,3.976,0,0,0,1.291,1.595A2.059,2.059,0,0,1,16,13.75C16,15.131,14.209,16.25,12,16.25ZM17,11a1.5,1.5,0,1,1,1.5-1.5A1.5,1.5,0,0,1,17,11Z"/></svg>