<svg xmlns="http://www.w3.org/2000/svg" viewBox="0 0 24 24"><title>style-three-pin-bill_1</title><path d="M12,0C6.21,0,1.5,4.262,1.5,9.5c0,5.747,7.3,12.285,9.54,14.152a1.5,1.5,0,0,0,1.921,0C15.2,21.784,22.5,15.246,22.5,9.5,22.5,4.262,17.79,0,12,0Zm5.354,7.146a.208.208,0,0,1,.044.226.206.206,0,0,1-.191.128H15a.5.5,0,0,1-.5-.5V4.793a.206.206,0,0,1,.128-.191.208.208,0,0,1,.226.044ZM17.5,15.5a1,1,0,0,1-1,1h-8a1,1,0,0,1-1-1V5.5a1,1,0,0,1,1-1h4.75a.25.25,0,0,1,.25.25V7A1.5,1.5,0,0,0,15,8.5h2.25a.25.25,0,0,1,.25.25Z"/><path d="M11.342,10.21H13a.5.5,0,0,0,0-1h-.45a.249.249,0,0,1-.25-.25V8.51a.5.5,0,0,0-1,0V9a.249.249,0,0,1-.2.245,1.236,1.236,0,0,0-.313,2.32l1.58.791a.241.241,0,0,1-.107.457H10.6a.5.5,0,0,0,0,1h.45a.25.25,0,0,1,.25.25v.45a.5.5,0,1,0,1,0v-.486a.25.25,0,0,1,.2-.245,1.236,1.236,0,0,0,.312-2.321l-1.58-.79a.238.238,0,0,1-.133-.216A.242.242,0,0,1,11.342,10.21Z"/></svg>