<svg xmlns="http://www.w3.org/2000/svg" viewBox="0 0 24 24"><title>style-three-pin-volcano</title><path d="M12,0C6.21,0,1.5,4.262,1.5,9.5c0,5.747,7.3,12.285,9.54,14.152a1.5,1.5,0,0,0,1.921,0C15.2,21.784,22.5,15.246,22.5,9.5,22.5,4.262,17.79,0,12,0Zm4,4.25a.75.75,0,0,1,0,1.5A1.252,1.252,0,0,0,14.75,7a.75.75,0,0,1-1.5,0A2.752,2.752,0,0,1,16,4.25ZM11.25,3.5a.75.75,0,0,1,1.5,0V5a.75.75,0,0,1-1.5,0ZM8,4.25A2.752,2.752,0,0,1,10.75,7a.75.75,0,0,1-1.5,0A1.252,1.252,0,0,0,8,5.75a.75.75,0,0,1,0-1.5Zm9.511,10.1a1.006,1.006,0,0,1-.938.652H7.491a1,1,0,0,1-.636-1.771C8.561,11.818,9.5,10.493,9.5,9.5A.5.5,0,0,1,10,9h.25a.25.25,0,0,1,.25.25V11.5a.5.5,0,0,0,1,0V9.25A.25.25,0,0,1,11.75,9h.5a.25.25,0,0,1,.25.25V10.5a.5.5,0,0,0,1,0V9.25A.25.25,0,0,1,13.75,9H14a.5.5,0,0,1,.5.445c.113,1.022,1.083,2.371,2.731,3.8A1,1,0,0,1,17.511,14.348Z"/></svg>