<svg xmlns="http://www.w3.org/2000/svg" viewBox="0 0 24 24"><title>style-three-pin-climb-rope</title><path d="M16.707,1.013A.5.5,0,0,0,16,1.468V5a.75.75,0,1,1-1.5,0V.691A.5.5,0,0,0,14.093.2,11.33,11.33,0,0,0,12,0C6.21,0,1.5,4.262,1.5,9.5c0,3.308,2.417,6.872,4.9,9.661a.5.5,0,0,0,.874-.332v-.391a6.583,6.583,0,0,1,.972-3.327.75.75,0,0,1,1.238.847,5.111,5.111,0,0,0-.71,2.481V21.4a.5.5,0,0,0,.156.363c.863.818,1.615,1.471,2.113,1.886a1.5,1.5,0,0,0,1.921,0C15.2,21.784,22.5,15.246,22.5,9.5A9.463,9.463,0,0,0,16.707,1.013ZM7.5,6.6a2,2,0,1,1,2,2A2,2,0,0,1,7.5,6.6Zm9.447,10.8a1,1,0,0,1-1.342-.448L14.881,15.5H11.5a1,1,0,0,1-.962-.725l-1-3.5a1,1,0,0,1,.568-1.194L13.36,8.686,14.7,6.9a1,1,0,1,1,1.6,1.2l-1.5,2.008a1,1,0,0,1-.39.312l-1.929.867a.5.5,0,0,0-.266.288.5.5,0,0,0,.024.391l.628,1.258a.5.5,0,0,0,.448.276H15.5a1,1,0,0,1,.894.553l1,2A1,1,0,0,1,16.947,17.4Z"/></svg>