<svg xmlns="http://www.w3.org/2000/svg" viewBox="0 0 24 24"><title>style-one-pin-tunnel</title><path d="M12,0A9.5,9.5,0,0,0,8,18.119a2.509,2.509,0,0,1,1.218,1.222l1.872,4.076a1,1,0,0,0,1.817,0l1.876-4.079A2.5,2.5,0,0,1,16,18.118,9.5,9.5,0,0,0,12,0Zm0,5a1,1,0,1,1,1-1,1,1,0,0,1-1,1,5.564,5.564,0,0,1,5.5,4.95.494.494,0,0,1-.126.385A.5.5,0,0,1,17,10.5H7a.5.5,0,0,1-.371-.165A.494.494,0,0,1,6.5,9.95,5.564,5.564,0,0,1,12,5Zm6,8H6a.75.75,0,0,1,0-1.5H18A.75.75,0,0,1,18,13Z"/><path d="M9.7,7.728a.5.5,0,0,0,.288-.092A3.476,3.476,0,0,1,12,7a.5.5,0,0,0,0-1,4.467,4.467,0,0,0-2.589.819.5.5,0,0,0,.288.909Z"/></svg>