<svg xmlns="http://www.w3.org/2000/svg" viewBox="0 0 24 24"><title>style-three-pin-car-repair</title><path d="M13,9.5H11a1.74,1.74,0,0,0-1.946,1.712A.249.249,0,0,0,9.3,11.5h5.4a.249.249,0,0,0,.247-.288A1.74,1.74,0,0,0,13,9.5Z"/><path d="M12,0C6.21,0,1.5,4.262,1.5,9.5c0,5.748,7.3,12.285,9.54,14.152a1.5,1.5,0,0,0,1.921,0C15.2,21.784,22.5,15.246,22.5,9.5,22.5,4.262,17.79,0,12,0ZM9.561,4a1.246,1.246,0,0,0-.976.469.75.75,0,0,1-1.17-.938,2.738,2.738,0,0,1,4.725.8.252.252,0,0,0,.236.166h2.185a.75.75,0,0,1,0,1.5H12.376a.252.252,0,0,0-.236.166,2.738,2.738,0,0,1-4.725.8.75.75,0,0,1,1.17-.938A1.25,1.25,0,1,0,9.561,4ZM17.3,14.359a2.014,2.014,0,0,1-.688.793.253.253,0,0,0-.111.208v.89a.75.75,0,0,1-1.5,0v-.5a.25.25,0,0,0-.25-.25H9.25a.25.25,0,0,0-.25.25v.5a.75.75,0,0,1-1.5,0v-.89a.253.253,0,0,0-.111-.208,2.014,2.014,0,0,1-.688-.793A.25.25,0,0,1,6.926,14H8.5a.5.5,0,0,0,0-1H6.928a.25.25,0,0,1-.226-.358A2.005,2.005,0,0,1,7.87,11.608a.251.251,0,0,0,.17-.214A3.136,3.136,0,0,1,9.178,9.025a.25.25,0,0,1,.185-.046,1.29,1.29,0,0,0,.2.021,3.686,3.686,0,0,0,1.779-.469.252.252,0,0,1,.12-.031H13c1.775,0,2.785,1.005,2.96,2.894a.251.251,0,0,0,.17.214A2.005,2.005,0,0,1,17.3,12.642a.25.25,0,0,1-.226.358H15.5a.5.5,0,0,0,0,1h1.574a.25.25,0,0,1,.225.359Z"/></svg>