<svg xmlns="http://www.w3.org/2000/svg" viewBox="0 0 24 24"><title>style-two-pin-wifi</title><path d="M12,0A9.511,9.511,0,0,0,2.5,9.5c0,6.547,6.538,12.488,8.541,14.153a1.5,1.5,0,0,0,1.917,0c2-1.665,8.542-7.608,8.542-14.154A9.511,9.511,0,0,0,12,0Zm0,17a1.75,1.75,0,1,1,1.75-1.75A1.752,1.752,0,0,1,12,17Zm4.278-4.634a1,1,0,0,1-1.406.15,4.543,4.543,0,0,0-5.744,0,1,1,0,0,1-1.256-1.557,6.531,6.531,0,0,1,8.256,0A1,1,0,0,1,16.278,12.366ZM18,9.623a1,1,0,0,1-.628-.222,8.493,8.493,0,0,0-10.744,0A1,1,0,0,1,5.372,7.844a10.481,10.481,0,0,1,13.256,0A1,1,0,0,1,18,9.623Z"/></svg>