<svg xmlns="http://www.w3.org/2000/svg" viewBox="0 0 24 24"><title>style-three-pin-barn</title><path d="M12,0C6.21,0,1.5,4.262,1.5,9.5c0,5.747,7.3,12.285,9.54,14.152a1.5,1.5,0,0,0,1.921,0C15.2,21.784,22.5,15.246,22.5,9.5,22.5,4.262,17.79,0,12,0Zm6.407,9.23a.5.5,0,0,1-.407.791h-.5a.5.5,0,0,0-.5.5V14a1,1,0,0,1-1,1H14.5a.5.5,0,0,1-.5-.5v-.99a2,2,0,1,0-4,0v.99a.5.5,0,0,1-.5.5H8a1,1,0,0,1-1-1V10.521a.5.5,0,0,0-.5-.5H6a.5.5,0,0,1-.407-.791l2.5-3.5A.5.5,0,0,1,8.3,5.562l3.5-1.511a.5.5,0,0,1,.4,0l3.5,1.511a.5.5,0,0,1,.209.168Z"/><rect x="11" y="7.021" width="2" height="2" rx="0.5" ry="0.5"/></svg>