<svg xmlns="http://www.w3.org/2000/svg" viewBox="0 0 24 24"><title>style-three-pin-car-buy</title><path d="M13,11.5H11a1.74,1.74,0,0,0-1.946,1.712A.249.249,0,0,0,9.3,13.5h5.4a.249.249,0,0,0,.247-.288A1.74,1.74,0,0,0,13,11.5Z"/><path d="M12,0C6.21,0,1.5,4.262,1.5,9.5c0,5.748,7.3,12.285,9.54,14.152a1.5,1.5,0,0,0,1.921,0C15.2,21.784,22.5,15.246,22.5,9.5,22.5,4.262,17.79,0,12,0Zm.649,7.084L10.52,5.664a1.72,1.72,0,0,1,.541-3.1.25.25,0,0,0,.189-.243V2.25a.75.75,0,0,1,1.5,0A.25.25,0,0,0,13,2.5h.5a.75.75,0,0,1,0,1.5H11.478a.227.227,0,0,0-.127.416l2.129,1.42a1.72,1.72,0,0,1-.541,3.105.25.25,0,0,0-.189.243V9.25a.75.75,0,0,1-1.5,0A.25.25,0,0,0,11,9h-.5a.75.75,0,0,1,0-1.5h2.022a.227.227,0,0,0,.127-.416Zm3.962,10.068a.253.253,0,0,0-.111.208v.89a.75.75,0,0,1-1.5,0v-.5a.25.25,0,0,0-.25-.25H9.25a.25.25,0,0,0-.25.25v.5a.75.75,0,0,1-1.5,0v-.89a.25.25,0,0,0-.111-.208,2.014,2.014,0,0,1-.688-.793A.25.25,0,0,1,6.926,16H8.5a.5.5,0,0,0,0-1H6.928a.25.25,0,0,1-.226-.358A2.005,2.005,0,0,1,7.87,13.608a.251.251,0,0,0,.17-.214C8.215,11.505,9.225,10.5,11,10.5h2c1.775,0,2.785,1.005,2.96,2.894a.251.251,0,0,0,.17.214A2.005,2.005,0,0,1,17.3,14.642a.25.25,0,0,1-.226.358H15.5a.5.5,0,0,0,0,1h1.574a.25.25,0,0,1,.225.359A2.014,2.014,0,0,1,16.611,17.152Z"/></svg>