<svg xmlns="http://www.w3.org/2000/svg" viewBox="0 0 24 24"><title>style-three-pin-drink-food</title><path d="M12,0C6.21,0,1.5,4.262,1.5,9.5c0,5.748,7.3,12.285,9.54,14.152a1.5,1.5,0,0,0,1.921,0,42.885,42.885,0,0,0,5.955-6.064,2.16,2.16,0,0,0,.156-.2C20.955,14.942,22.5,12.14,22.5,9.5,22.5,4.262,17.79,0,12,0Zm5.933,10.75a1.906,1.906,0,0,1,0,1A.5.5,0,0,1,17.5,12h-7a.5.5,0,0,1-.433-.25,1.906,1.906,0,0,1,0-1,1.5,1.5,0,0,1,1.3-.75h5.267A1.5,1.5,0,0,1,17.933,10.75Zm-9.393.6a.5.5,0,0,1-.2.524,2,2,0,0,0,0,3.26.5.5,0,0,1,.2.524A.449.449,0,0,1,8.1,16H6a.5.5,0,0,1-.5-.438l-1-8A.5.5,0,0,1,5,7H7.267a.5.5,0,0,0,.487-.386l.4-1.686A2.49,2.49,0,0,1,10.584,3H11.75a.5.5,0,0,1,0,1H10.584A1.5,1.5,0,0,0,9.123,5.157L8.834,6.386A.5.5,0,0,0,9.321,7H11a.5.5,0,0,1,.5.562l-.067.538a.5.5,0,0,1-.44.435A2.48,2.48,0,0,0,8.5,11,1.517,1.517,0,0,0,8.54,11.346Zm9.393,4.9a1.5,1.5,0,0,1-1.3.75H11.367a1.5,1.5,0,0,1-1.3-.75,1.906,1.906,0,0,1,0-1A.5.5,0,0,1,10.5,15h7a.5.5,0,0,1,.433.25A1.906,1.906,0,0,1,17.933,16.25ZM18.5,14h-9a.5.5,0,0,1,0-1h9a.5.5,0,0,1,0,1Z"/></svg>