<svg xmlns="http://www.w3.org/2000/svg" viewBox="0 0 24 24"><title>style-three-pin-theater</title><path d="M12,0C6.21,0,1.5,4.262,1.5,9.5c0,5.747,7.3,12.285,9.54,14.152a1.5,1.5,0,0,0,1.921,0C15.2,21.784,22.5,15.246,22.5,9.5,22.5,4.262,17.79,0,12,0ZM9.247,15.3a.571.571,0,0,1-.434.2H6.571A.571.571,0,0,1,6,14.929V12.085a.5.5,0,0,1,.647-.478,4.116,4.116,0,0,1,2.73,3.232A.569.569,0,0,1,9.247,15.3ZM6.55,9.973a.5.5,0,0,1-.55-.5V5.5a1,1,0,0,1,1-1h3.975a.5.5,0,0,1,.5.55A5.5,5.5,0,0,1,6.55,9.973ZM18,14.929a.571.571,0,0,1-.571.571H15.187a.572.572,0,0,1-.564-.661,4.116,4.116,0,0,1,2.73-3.232.5.5,0,0,1,.647.478Zm0-5.454a.5.5,0,0,1-.55.5A5.5,5.5,0,0,1,12.527,5.05a.5.5,0,0,1,.5-.55H17a1,1,0,0,1,1,1Z"/></svg>