<svg xmlns="http://www.w3.org/2000/svg" viewBox="0 0 24 24"><title>style-three-pin-bin</title><path d="M9.5,9a.5.5,0,0,0-.5.5v5a.5.5,0,0,0,1,0v-5A.5.5,0,0,0,9.5,9Z"/><path d="M12,9a.5.5,0,0,0-.5.5v5a.5.5,0,0,0,1,0v-5A.5.5,0,0,0,12,9Z"/><path d="M14.5,9a.5.5,0,0,0-.5.5v5a.5.5,0,0,0,1,0v-5A.5.5,0,0,0,14.5,9Z"/><path d="M13,4.5H11a.5.5,0,0,0-.5.5v.25a.25.25,0,0,0,.25.25h2.5a.25.25,0,0,0,.25-.25V5A.5.5,0,0,0,13,4.5Z"/><path d="M12,0C6.21,0,1.5,4.262,1.5,9.5c0,5.747,7.3,12.285,9.54,14.152a1.5,1.5,0,0,0,1.921,0C15.2,21.784,22.5,15.246,22.5,9.5,22.5,4.262,17.79,0,12,0Zm4.5,14.5A1.5,1.5,0,0,1,15,16H9a1.5,1.5,0,0,1-1.5-1.5v-6A.5.5,0,0,1,8,8h8a.5.5,0,0,1,.5.5Zm2-8.25a.75.75,0,0,1-.75.75H6.25a.75.75,0,0,1,0-1.5h3a.25.25,0,0,0,.25-.25V5A1.5,1.5,0,0,1,11,3.5h2A1.5,1.5,0,0,1,14.5,5v.25a.25.25,0,0,0,.25.25h3A.75.75,0,0,1,18.5,6.25Z"/></svg>