<svg xmlns="http://www.w3.org/2000/svg" viewBox="0 0 24 24"><title>style-three-pin-plane-world</title><path d="M10.2,6a.25.25,0,0,0,.229-.35,5.62,5.62,0,0,0-.732-1.238.247.247,0,0,0-.2-.094.25.25,0,0,0-.2.094A5.6,5.6,0,0,0,8.57,5.65.25.25,0,0,0,8.8,6Z"/><path d="M12,8.5a8.344,8.344,0,0,1-.1,1.249.219.219,0,0,0,.217.251h1.425a.249.249,0,0,0,.238-.174,4.124,4.124,0,0,0,0-2.652A.249.249,0,0,0,13.544,7H12.157a.254.254,0,0,0-.189.086.25.25,0,0,0-.058.2A8.464,8.464,0,0,1,12,8.5Z"/><path d="M7,8.5a8.464,8.464,0,0,1,.09-1.214A.249.249,0,0,0,6.843,7H5.456a.249.249,0,0,0-.238.174,4.142,4.142,0,0,0,0,2.652A.249.249,0,0,0,5.456,10H6.843a.254.254,0,0,0,.189-.086.25.25,0,0,0,.058-.2A8.464,8.464,0,0,1,7,8.5Z"/><path d="M11.576,5.83a.25.25,0,0,0,.237.17h.921a.25.25,0,0,0,.19-.413,4.481,4.481,0,0,0-1.451-1.11.25.25,0,0,0-.33.341A6.882,6.882,0,0,1,11.576,5.83Z"/><path d="M11,8.5a7.371,7.371,0,0,0-.118-1.294A.251.251,0,0,0,10.635,7H8.363a.25.25,0,0,0-.246.206,7.184,7.184,0,0,0,0,2.588A.251.251,0,0,0,8.365,10h2.271a.25.25,0,0,0,.247-.207A7.526,7.526,0,0,0,11,8.5Z"/><path d="M12,0C6.21,0,1.5,4.262,1.5,9.5c0,5.747,7.3,12.285,9.54,14.152a1.5,1.5,0,0,0,1.921,0C15.2,21.784,22.5,15.246,22.5,9.5,22.5,4.262,17.79,0,12,0ZM9.5,14a5.5,5.5,0,1,1,5.047-3.313l0,.007a.52.52,0,0,1-.469.306H8.8a.25.25,0,0,0-.229.351A4.878,4.878,0,0,0,9.794,13.1l.01.008A.5.5,0,0,1,9.5,14Zm10.047.092h0l-6.6,4.1a.4.4,0,0,1-.447-.013L10.1,16.487a.224.224,0,0,1-.046-.323.273.273,0,0,1,.034-.034l.01-.008,1-.884a.223.223,0,0,1,.222-.044l1.133.676a.251.251,0,0,0,.271-.01l1.169-.816a.25.25,0,0,0-.011-.417L11.171,12.95a.256.256,0,0,1-.083-.084.279.279,0,0,1,.027-.324.285.285,0,0,1,.044-.041l.748-.554a.276.276,0,0,1,.262-.037l4.091,1.523a.25.25,0,0,0,.228-.028l1.842-1.257a1.084,1.084,0,0,1,.855-.164,1.158,1.158,0,0,1,.832.747,1.1,1.1,0,0,1,.064.369A1.147,1.147,0,0,1,19.547,14.092Z"/><path d="M7.187,6a.249.249,0,0,0,.237-.17,6.882,6.882,0,0,1,.433-1.012.25.25,0,0,0-.33-.341,4.481,4.481,0,0,0-1.451,1.11A.251.251,0,0,0,6.266,6Z"/><path d="M7.424,11.17A.25.25,0,0,0,7.187,11H6.266a.25.25,0,0,0-.189.413,4.478,4.478,0,0,0,1.45,1.11.25.25,0,0,0,.33-.342A6.868,6.868,0,0,1,7.424,11.17Z"/></svg>