<svg xmlns="http://www.w3.org/2000/svg" viewBox="0 0 24 24"><title>style-three-pin-fish-trekking</title><path d="M12,0C6.21,0,1.5,4.262,1.5,9.5c0,5.747,7.3,12.285,9.54,14.152a1.5,1.5,0,0,0,1.921,0C15.2,21.784,22.5,15.246,22.5,9.5,22.5,4.262,17.79,0,12,0Zm3.75,6.75a.75.75,0,0,1,.75.75v.75a.75.75,0,0,1-1.5,0V7.5A.75.75,0,0,1,15.75,6.75ZM13,2.5a2,2,0,1,1-2,2A2,2,0,0,1,13,2.5ZM7.716,11.347a1.006,1.006,0,0,1-.371-.07h0l-1.457-.583a1,1,0,0,1-.461-1.484l1.428-2.14A1,1,0,0,1,8.08,6.705l.925.4a1,1,0,0,1,.539,1.278l-.9,2.328a1,1,0,0,1-.535.558A.984.984,0,0,1,7.716,11.347ZM16.5,17A.75.75,0,0,1,15,17V14a.75.75,0,0,1,1.5,0Zm.226-6.675a.992.992,0,0,1-.019,1.382A3.748,3.748,0,0,1,14,12.5a3.293,3.293,0,0,1-1.158-.214.25.25,0,0,0-.319.328l1.406,3.515a1,1,0,0,1-1.858.742l-.914-2.286a.25.25,0,0,0-.469.014l-.739,2.217a1.022,1.022,0,0,1-1.265.633,1,1,0,0,1-.633-1.265l2.5-7.5a1,1,0,0,1,1.9.632.318.318,0,0,0,.059.306A2.058,2.058,0,0,0,14,10.5a2.506,2.506,0,0,0,1.353-.26A1,1,0,0,1,16.726,10.325Z"/></svg>