<svg xmlns="http://www.w3.org/2000/svg" viewBox="0 0 24 24"><title>style-three-pin-snow-shoes-skies</title><path d="M8.75,10.5a.25.25,0,0,0-.25.25v1.069a.179.179,0,0,0,.32.111,9.078,9.078,0,0,0,.751-1.05.25.25,0,0,0-.213-.38Z"/><path d="M7.18,11.93a.179.179,0,0,0,.32-.111V10.75a.25.25,0,0,0-.25-.25H6.638a.25.25,0,0,0-.213.379A8.169,8.169,0,0,0,7.18,11.93Z"/><path d="M8.75,8a.25.25,0,0,0-.25.25v1a.25.25,0,0,0,.25.25h1.3a.251.251,0,0,0,.239-.175,4.489,4.489,0,0,0,.2-1.094A.217.217,0,0,0,10.275,8Z"/><path d="M7.5,8.25A.25.25,0,0,0,7.25,8H5.758a.25.25,0,0,0-.182.079.248.248,0,0,0-.067.187,4.459,4.459,0,0,0,.2,1.059A.249.249,0,0,0,5.95,9.5h1.3a.25.25,0,0,0,.25-.25Z"/><path d="M7.25,7a.25.25,0,0,0,.25-.25V5.88a.25.25,0,0,0-.334-.236,2.52,2.52,0,0,0-1.242.967A.25.25,0,0,0,6.132,7Z"/><path d="M9.868,7a.25.25,0,0,0,.208-.389,2.52,2.52,0,0,0-1.242-.967A.25.25,0,0,0,8.5,5.88v.87A.25.25,0,0,0,8.75,7Z"/><path d="M16.75,14a.25.25,0,0,0-.25.25v.87a.25.25,0,0,0,.334.236,2.52,2.52,0,0,0,1.242-.967A.25.25,0,0,0,17.868,14Z"/><path d="M15.25,10.5a.25.25,0,0,0,.25-.25V9.181a.179.179,0,0,0-.32-.111,9.144,9.144,0,0,0-.75,1.05.25.25,0,0,0,.213.38Z"/><path d="M16.75,11.5a.25.25,0,0,0-.25.25v1a.25.25,0,0,0,.25.25h1.492a.25.25,0,0,0,.182-.079.248.248,0,0,0,.067-.187,4.459,4.459,0,0,0-.2-1.059.249.249,0,0,0-.238-.175Z"/><path d="M12,0C6.21,0,1.5,4.262,1.5,9.5c0,5.747,7.3,12.285,9.54,14.152a1.5,1.5,0,0,0,1.921,0C15.2,21.784,22.5,15.246,22.5,9.5,22.5,4.262,17.79,0,12,0ZM9.069,13.158A.252.252,0,0,0,9,13.33V15.5a1,1,0,0,1-2,0V13.33a.252.252,0,0,0-.069-.172A7.977,7.977,0,0,1,4.5,8a3.5,3.5,0,0,1,7,0A7.975,7.975,0,0,1,9.069,13.158ZM16,16.5A3.508,3.508,0,0,1,12.5,13a7.975,7.975,0,0,1,2.431-5.158A.252.252,0,0,0,15,7.67V5.5a1,1,0,0,1,2,0V7.67a.252.252,0,0,0,.069.172A7.977,7.977,0,0,1,19.5,13,3.508,3.508,0,0,1,16,16.5Z"/><path d="M16.82,9.07a.179.179,0,0,0-.32.111V10.25a.25.25,0,0,0,.25.25h.608a.249.249,0,0,0,.218-.128.245.245,0,0,0,0-.252A9.078,9.078,0,0,0,16.82,9.07Z"/><path d="M14.132,14a.25.25,0,0,0-.208.389,2.52,2.52,0,0,0,1.242.967.25.25,0,0,0,.334-.236v-.87a.25.25,0,0,0-.25-.25Z"/><path d="M15.5,11.75a.25.25,0,0,0-.25-.25h-1.3a.249.249,0,0,0-.238.175,4.459,4.459,0,0,0-.2,1.059.244.244,0,0,0,.067.187.25.25,0,0,0,.182.079H15.25a.25.25,0,0,0,.25-.25Z"/></svg>