<svg xmlns="http://www.w3.org/2000/svg" viewBox="0 0 24 24"><title>style-three-pin-first-aid</title><path d="M12.5,0C6.71,0,2,4.262,2,9.5c0,5.747,7.3,12.285,9.54,14.152a1.5,1.5,0,0,0,1.921,0C15.7,21.784,23,15.246,23,9.5,23,4.262,18.29,0,12.5,0Zm6,12.5A1.5,1.5,0,0,1,17,14H8a1.5,1.5,0,0,1-1.5-1.5v-5A1.5,1.5,0,0,1,8,6H9a.5.5,0,0,0,.5-.5V4.75A1.752,1.752,0,0,1,11.25,3h2.5A1.752,1.752,0,0,1,15.5,4.75V5.5A.5.5,0,0,0,16,6h1a1.5,1.5,0,0,1,1.5,1.5Z"/><path d="M14,4.75a.251.251,0,0,0-.25-.25h-2.5a.251.251,0,0,0-.25.25V5.5a.5.5,0,0,0,.5.5h2a.5.5,0,0,0,.5-.5Z"/><path d="M14,9.25h-.25a.5.5,0,0,1-.5-.5V8.5a.75.75,0,0,0-1.5,0v.25a.5.5,0,0,1-.5.5H11a.75.75,0,0,0,0,1.5h.25a.5.5,0,0,1,.5.5v.25a.75.75,0,0,0,1.5,0v-.25a.5.5,0,0,1,.5-.5H14a.75.75,0,0,0,0-1.5Z"/></svg>