<svg xmlns="http://www.w3.org/2000/svg" viewBox="0 0 24 24"><title>style-one-pin-information</title><path d="M12,0A9.5,9.5,0,0,0,8,18.119a2.509,2.509,0,0,1,1.218,1.222l1.872,4.076a1,1,0,0,0,1.817,0l1.876-4.079A2.5,2.5,0,0,1,16,18.118,9.5,9.5,0,0,0,12,0Zm0,15.5a6,6,0,1,1,6-6A6.006,6.006,0,0,1,12,15.5Z"/><circle cx="11.5" cy="6" r="1.25"/><path d="M14.5,13a1,1,0,0,0-1-1,.5.5,0,0,1-.5-.5v-2A1.5,1.5,0,0,0,11.5,8h-1a1,1,0,0,0,0,2,.5.5,0,0,1,.5.5v1a.5.5,0,0,1-.5.5,1,1,0,0,0,0,2h3A1,1,0,0,0,14.5,13Z"/></svg>