<svg xmlns="http://www.w3.org/2000/svg" viewBox="0 0 24 24"><title>style-three-pin-fish-prepare</title><circle cx="15.507" cy="13.241" r="0.75"/><path d="M12,0C6.21,0,1.5,4.262,1.5,9.5c0,5.747,7.3,12.285,9.54,14.152a1.5,1.5,0,0,0,1.921,0C15.2,21.784,22.5,15.246,22.5,9.5,22.5,4.262,17.79,0,12,0Zm2.5,5.5A.5.5,0,0,1,15,5h3a.5.5,0,0,1,.5.5v1a1,1,0,0,1-1,1H15a.5.5,0,0,1-.5-.5Zm-9,0A.5.5,0,0,1,6,5h7a.5.5,0,0,1,.5.5v3A.5.5,0,0,1,13,9c-.116,0-6.664-1.883-6.775-1.915A1,1,0,0,1,5.5,6.125Zm13.929,8.255A6.357,6.357,0,0,1,14,16.5a6.505,6.505,0,0,1-4.929-2.1.25.25,0,0,0-.345-.025L6.32,16.384A.5.5,0,0,1,6,16.5a.507.507,0,0,1-.212-.047A.5.5,0,0,1,5.5,16V11a.5.5,0,0,1,.82-.384L8.666,12.57a.247.247,0,0,0,.186.057.251.251,0,0,0,.17-.093A6,6,0,0,1,14,10.5c4.289,0,5.418,2.7,5.464,2.814A.5.5,0,0,1,19.429,13.757Z"/></svg>