<svg xmlns="http://www.w3.org/2000/svg" viewBox="0 0 24 24"><title>style-one-pin-restaurant</title><path d="M12,0A9.5,9.5,0,0,0,8,18.119a2.5,2.5,0,0,1,1.218,1.222l1.873,4.076a1,1,0,0,0,1.817,0l1.876-4.08A2.5,2.5,0,0,1,16,18.118,9.5,9.5,0,0,0,12,0Zm.5,7.75a3.248,3.248,0,0,1-2.167,3.056.5.5,0,0,0-.333.471V14.75a.75.75,0,0,1-1.5,0V11.277a.5.5,0,0,0-.333-.471A3.248,3.248,0,0,1,6,7.75v-3a.75.75,0,0,1,1.5,0V8a.5.5,0,0,0,1,0V4.75a.75.75,0,0,1,1.5,0V8a.5.5,0,0,0,1,0V4.75a.75.75,0,0,1,1.5,0Zm2-3a.749.749,0,0,1,1.084-.671C17.813,5.188,18,8.749,18,12a.75.75,0,0,1-.75.75H16.5a.5.5,0,0,0-.5.5v1.5a.75.75,0,0,1-1.5,0Z"/></svg>