<svg xmlns="http://www.w3.org/2000/svg" viewBox="0 0 24 24"><title>style-three-pin-fish-rod</title><path d="M12,0C6.21,0,1.5,4.262,1.5,9.5c0,5.747,7.3,12.285,9.54,14.152a1.5,1.5,0,0,0,1.921,0C15.2,21.784,22.5,15.246,22.5,9.5,22.5,4.262,17.79,0,12,0Zm5.158,15.286a.25.25,0,0,0-.15.135.253.253,0,0,0,0,.2l.008.017a.751.751,0,0,1-.411.978,1.264,1.264,0,0,1-.474.1,1.194,1.194,0,0,1-.567-.144,1.348,1.348,0,0,1,.176-2.445.738.738,0,0,1,.121-.038c1.906-.422,2.422-1.118,2.391-1.268-.016-.07-.422-.349-1.3-.171-2.615.534-4.114-.436-4.4-1.562-.292-1.163.541-2.75,3.755-3.715,1.255-.377,1.732-.877,1.747-1.12.008-.138-.174-.371-.595-.555-1.332-.581-4.212-.354-7.411,2.164a.251.251,0,0,0,.012.4,2.74,2.74,0,1,1-3.794,3.831.25.25,0,0,0-.375-.039l-.456.428a1,1,0,0,1-1.37-1.458L6.146,9.071a.5.5,0,0,0,.073-.086A2.749,2.749,0,0,1,7.654,7.906a.5.5,0,0,0,.189-.112c3.93-3.727,8-4.444,10.218-3.473a2.149,2.149,0,0,1,1.49,2.019c-.037.617-.452,1.757-2.813,2.467-2.235.671-2.811,1.594-2.732,1.912s.943.8,2.643.458c1.75-.355,2.871.4,3.068,1.33S19.308,14.577,17.158,15.286Z"/><circle cx="8.5" cy="10.508" r="1.5"/></svg>