<svg xmlns="http://www.w3.org/2000/svg" viewBox="0 0 24 24"><title>style-three-pin-rent</title><path d="M5.75,7a.249.249,0,0,0-.25.25v1a.25.25,0,0,0,.25.25.75.75,0,1,0,0-1.5Z"/><path d="M12,0C6.21,0,1.5,4.262,1.5,9.5c0,5.747,7.3,12.285,9.54,14.152a1.5,1.5,0,0,0,1.921,0C15.2,21.784,22.5,15.246,22.5,9.5,22.5,4.262,17.79,0,12,0ZM7.391,11.185a.5.5,0,0,1-.782.625l-.664-.83a.25.25,0,0,0-.445.156V11.5a.5.5,0,0,1-1,0v-5A.5.5,0,0,1,5,6h.75a1.746,1.746,0,0,1,.615,3.381.254.254,0,0,0-.153.168.25.25,0,0,0,.046.222ZM11,9a.5.5,0,0,1,0,1H9.75a.25.25,0,0,0-.25.25v.25a.5.5,0,0,0,.5.5h1a.5.5,0,0,1,0,1H10a1.5,1.5,0,0,1-1.5-1.5v-3A1.5,1.5,0,0,1,10,6h1a.5.5,0,0,1,0,1H10a.5.5,0,0,0-.5.5v1.25A.25.25,0,0,0,9.75,9Zm5.5,2.5a.5.5,0,0,1-.366.481A.482.482,0,0,1,16,12a.5.5,0,0,1-.429-.243L13.964,9.077a.25.25,0,0,0-.464.128V11.5a.5.5,0,0,1-1,0v-5a.5.5,0,0,1,.929-.258l1.607,2.678A.25.25,0,0,0,15.5,8.79V6.5a.5.5,0,0,1,1,0ZM20,7h-.25a.249.249,0,0,0-.25.25V11.5a.5.5,0,0,1-1,0V7.248A.249.249,0,0,0,18.25,7H18a.5.5,0,0,1,0-1h2a.5.5,0,0,1,0,1Z"/></svg>