<svg xmlns="http://www.w3.org/2000/svg" viewBox="0 0 24 24"><title>style-three-pin-pull</title><path d="M12,0C6.21,0,1.5,4.262,1.5,9.5c0,5.749,7.3,12.286,9.54,14.152a1.5,1.5,0,0,0,1.921,0C15.2,21.784,22.5,15.245,22.5,9.5,22.5,4.262,17.79,0,12,0Zm2.5,3A1.5,1.5,0,1,1,13,4.5,1.5,1.5,0,0,1,14.5,3Zm.633,12.236a.387.387,0,0,0,.367.264,2.873,2.873,0,0,0,1.97-.78.75.75,0,0,1,1.06,1.06A4.356,4.356,0,0,1,15.5,17H8a.75.75,0,0,1,0-1.5h.908a.5.5,0,0,0,.471-.332L11.492,9.25a.5.5,0,0,0-.532-.665,2.184,2.184,0,0,0-.582.158,2.675,2.675,0,0,0-1.429,1.573,1.022,1.022,0,0,1-1.265.633.982.982,0,0,1-.666-.895.5.5,0,0,0-.243-.406L4.743,8.429a.5.5,0,1,1,.514-.858L7.008,8.622a.5.5,0,0,0,.665-.14A4.4,4.4,0,0,1,13.429,7.1a1,1,0,0,1,.512,1.238l-.515,1.444a.5.5,0,0,0,0,.326Z"/><path d="M13.052,15.318l-.546-1.636a.25.25,0,0,0-.472-.005l-.593,1.659a.124.124,0,0,0,.016.112.121.121,0,0,0,.1.052h1.364a.138.138,0,0,0,.112-.057A.14.14,0,0,0,13.052,15.318Z"/></svg>