<svg xmlns="http://www.w3.org/2000/svg" viewBox="0 0 24 24"><title>style-three-pin-church-1</title><circle cx="12" cy="9.5" r="1"/><path d="M12,0C6.21,0,1.5,4.262,1.5,9.5c0,5.747,7.3,12.285,9.54,14.152a1.5,1.5,0,0,0,1.921,0C15.2,21.784,22.5,15.246,22.5,9.5,22.5,4.262,17.79,0,12,0ZM8,14.75a.25.25,0,0,1-.25.25H6a.5.5,0,0,1-.5-.5V12.035a1.5,1.5,0,0,1,.668-1.248l1.443-.962A.25.25,0,0,1,8,10.033Zm7-.25a.5.5,0,0,1-.5.5H13a.25.25,0,0,1-.25-.25v-2a.75.75,0,0,0-1.5,0v2A.25.25,0,0,1,11,15H9.5a.5.5,0,0,1-.5-.5V9a3,3,0,0,1,2.077-2.843.251.251,0,0,0,.173-.238V5.5A.25.25,0,0,0,11,5.25h-.25a.75.75,0,0,1,0-1.5H11a.25.25,0,0,0,.25-.25V3.25a.75.75,0,0,1,1.5,0V3.5a.25.25,0,0,0,.25.25h.25a.75.75,0,0,1,0,1.5H13a.25.25,0,0,0-.25.25v.419a.25.25,0,0,0,.173.238A3,3,0,0,1,15,9Zm3.5,0a.5.5,0,0,1-.5.5H16.25a.25.25,0,0,1-.25-.25V10.033a.25.25,0,0,1,.389-.208l1.443.962a1.5,1.5,0,0,1,.668,1.248Z"/></svg>