<svg xmlns="http://www.w3.org/2000/svg" viewBox="0 0 24 24"><title>style-three-pin-house-repair</title><path d="M12,0C6.21,0,1.5,4.262,1.5,9.5c0,5.747,7.3,12.285,9.54,14.152a1.5,1.5,0,0,0,1.921,0C15.2,21.784,22.5,15.246,22.5,9.5,22.5,4.262,17.79,0,12,0Zm5,13.51a.75.75,0,0,1-.75.75H13.237a.5.5,0,0,0-.462.308,2.738,2.738,0,0,1-4.671.661.749.749,0,1,1,1.17-.937,1.251,1.251,0,1,0,0-1.563.749.749,0,1,1-1.17-.937,2.737,2.737,0,0,1,4.671.661.5.5,0,0,0,.462.307H16.25A.75.75,0,0,1,17,13.51Zm1.416-4.874A.75.75,0,0,1,18,10.01a.74.74,0,0,1-.415-.126L12.277,6.347a.5.5,0,0,0-.554,0L6.416,9.884a.75.75,0,0,1-.832-1.248l6-4a.75.75,0,0,1,.832,0l1.7,1.13a.25.25,0,0,0,.389-.208V5.01a.5.5,0,0,1,.5-.5h2a.5.5,0,0,1,.5.5V7.758a.5.5,0,0,0,.223.416Z"/></svg>