<svg xmlns="http://www.w3.org/2000/svg" viewBox="0 0 24 24"><title>style-three-pin-polaroid</title><path d="M12,0C6.21,0,1.5,4.262,1.5,9.5c0,5.748,7.3,12.285,9.54,14.152a1.5,1.5,0,0,0,1.921,0C15.2,21.784,22.5,15.246,22.5,9.5,22.5,4.262,17.79,0,12,0Zm5.5,14A2.5,2.5,0,0,1,15,16.5H9A2.5,2.5,0,0,1,6.5,14V8.495A.5.5,0,0,1,7,8H17a.5.5,0,0,1,.5.5Zm0-8a.5.5,0,0,1-.5.5H7A.5.5,0,0,1,6.5,6V5.5a2,2,0,0,1,2-2h7a2,2,0,0,1,2,2Z"/><path d="M8.5,4.5H8a.5.5,0,0,0,0,1h.5a.5.5,0,0,0,0-1Z"/><path d="M11,4.5h-.5a.5.5,0,0,0,0,1H11a.5.5,0,0,0,0-1Z"/><path d="M12,9a3,3,0,1,0,3,3A3,3,0,0,0,12,9Zm2,3.5a.5.5,0,0,1-1,0v-1a.5.5,0,0,1,1,0Z"/></svg>