<svg xmlns="http://www.w3.org/2000/svg" viewBox="0 0 24 24"><title>style-three-pin-fishing</title><path d="M19.331,2.715a.5.5,0,0,0-.831.374V6.75a.75.75,0,0,1-1.5,0V1.464a.5.5,0,0,0-.293-.455A11.347,11.347,0,0,0,12,0C6.21,0,1.5,4.262,1.5,9.5c0,5.747,7.3,12.285,9.54,14.152a1.5,1.5,0,0,0,1.921,0C15.2,21.784,22.5,15.246,22.5,9.5A9.046,9.046,0,0,0,19.331,2.715ZM10.5,13a5.481,5.481,0,0,1-3.809-1.976.252.252,0,0,0-.193-.08.249.249,0,0,0-.187.093L5.78,11.7A1,1,0,0,1,4,11.078V8.927A1,1,0,0,1,5.779,8.3l.532.664A.253.253,0,0,0,6.5,9.06a.256.256,0,0,0,.193-.081A5.481,5.481,0,0,1,10.5,7c2.538,0,4.338,2.608,4.414,2.72a.5.5,0,0,1,0,.561C14.838,10.4,13.038,13,10.5,13Zm8,1.748a2.75,2.75,0,0,1-5.5,0,.75.75,0,0,1,1.5,0,1.25,1.25,0,0,0,2.5,0v-1.5a.75.75,0,0,1,1.5,0ZM17.75,11.5a1.5,1.5,0,1,1,1.5-1.5A1.5,1.5,0,0,1,17.75,11.5Z"/><circle cx="12.007" cy="9.744" r="0.75"/></svg>