<svg xmlns="http://www.w3.org/2000/svg" viewBox="0 0 24 24"><title>style-three-pin-barrier</title><path d="M11.594,6.047A4.243,4.243,0,0,0,8.743,7.733a.5.5,0,0,0,.832.555,3.236,3.236,0,0,1,2.149-1.25.5.5,0,0,0-.13-.991Z"/><path d="M12,0C6.21,0,1.5,4.262,1.5,9.5c0,5.747,7.3,12.285,9.54,14.152a1.5,1.5,0,0,0,1.921,0C15.2,21.784,22.5,15.246,22.5,9.5,22.5,4.262,17.79,0,12,0Zm2.738,4.263a.5.5,0,0,1,.69-.152,7.025,7.025,0,0,1,2.893,3.745.5.5,0,0,1-.322.63.515.515,0,0,1-.154.024.5.5,0,0,1-.475-.346,6.033,6.033,0,0,0-2.481-3.211A.5.5,0,0,1,14.738,4.263Zm-2.661,9.215-1.334.5a.476.476,0,0,1-.175.032H7.659a.5.5,0,0,1-.5-.5v-.5a.5.5,0,0,1,.5-.5H11.9a.5.5,0,0,1,.176.968Zm6.336-2.927a.5.5,0,0,1-.2.959H6.5a.5.5,0,0,1-.439-.739L6.62,9.743a.487.487,0,0,0,.059-.194,5,5,0,0,1,9.955-.041.5.5,0,0,0,.3.411Z"/></svg>