<svg xmlns="http://www.w3.org/2000/svg" viewBox="0 0 24 24"><title>style-one-pin-global</title><path d="M12,0A9.5,9.5,0,0,0,8,18.119a2.509,2.509,0,0,1,1.218,1.222l1.872,4.076a1,1,0,0,0,1.817,0l1.876-4.079A2.5,2.5,0,0,1,16,18.118,9.5,9.5,0,0,0,12,0Zm.19,14.818a.249.249,0,0,1-.38,0,6.049,6.049,0,0,1-1.157-2.247.249.249,0,0,1,.239-.321h2.216a.249.249,0,0,1,.2.1.253.253,0,0,1,.04.221A6.048,6.048,0,0,1,12.19,14.818ZM10.542,10.75a.25.25,0,0,1-.249-.229c-.026-.321-.043-.658-.043-1.021s.017-.7.043-1.021a.249.249,0,0,1,.249-.229h2.916a.25.25,0,0,1,.249.229c.026.321.043.658.043,1.021s-.017.7-.043,1.021a.249.249,0,0,1-.249.229ZM6,9.5a5.988,5.988,0,0,1,.093-1.044.25.25,0,0,1,.246-.206h2.2a.252.252,0,0,1,.25.268c-.023.313-.038.637-.038.982s.015.669.038.982a.252.252,0,0,1-.25.268h-2.2a.25.25,0,0,1-.246-.206A5.988,5.988,0,0,1,6,9.5Zm5.809-5.319a.251.251,0,0,1,.38,0,6.03,6.03,0,0,1,1.158,2.248.249.249,0,0,1-.239.321H10.892a.249.249,0,0,1-.2-.1.253.253,0,0,1-.04-.221A6.06,6.06,0,0,1,11.809,4.181Zm3.4,4.337a.252.252,0,0,1,.25-.268h2.2a.25.25,0,0,1,.246.206,5.906,5.906,0,0,1,0,2.088.25.25,0,0,1-.246.206h-2.2a.252.252,0,0,1-.25-.268c.023-.313.038-.637.038-.982S15.235,8.831,15.212,8.518Zm1.9-2.149a.25.25,0,0,1-.214.381H15.169a.25.25,0,0,1-.243-.192A8.813,8.813,0,0,0,14.1,4.363a.251.251,0,0,1,.321-.349A6.044,6.044,0,0,1,17.112,6.369ZM9.575,4.014a.251.251,0,0,1,.321.349,8.813,8.813,0,0,0-.822,2.195.251.251,0,0,1-.243.192H7.1a.251.251,0,0,1-.214-.381A6.044,6.044,0,0,1,9.575,4.014ZM6.888,12.631A.25.25,0,0,1,7.1,12.25H8.831a.25.25,0,0,1,.243.192,8.813,8.813,0,0,0,.822,2.2.25.25,0,0,1-.321.348A6.036,6.036,0,0,1,6.888,12.631Zm7.537,2.354a.25.25,0,0,1-.321-.348,8.813,8.813,0,0,0,.822-2.2.251.251,0,0,1,.243-.192H16.9a.251.251,0,0,1,.214.381A6.036,6.036,0,0,1,14.425,14.985Z"/></svg>