<svg xmlns="http://www.w3.org/2000/svg" viewBox="0 0 24 24"><title>style-three-pin-camera</title><path d="M12,0C6.21,0,1.5,4.262,1.5,9.5c0,5.747,7.3,12.285,9.54,14.152a1.5,1.5,0,0,0,1.921,0C15.2,21.784,22.5,15.246,22.5,9.5,22.5,4.262,17.79,0,12,0ZM6,6.75A2.25,2.25,0,1,1,8.25,9,2.25,2.25,0,0,1,6,6.75ZM14.5,14a1,1,0,0,1-1,1H8a1,1,0,0,1-1-1V11a1,1,0,0,1,1-1h5.5a1,1,0,0,1,1,1Zm-1-5A1.5,1.5,0,1,1,15,7.5,1.5,1.5,0,0,1,13.5,9ZM18,14a.5.5,0,0,1-.724.447l-1.074-.8a.5.5,0,0,1-.2-.4v-1.5a.5.5,0,0,1,.2-.4l1.074-.8A.5.5,0,0,1,18,11Z"/><path d="M11,11.5H9a.5.5,0,0,0,0,1h2a.5.5,0,0,0,0-1Z"/></svg>