<svg xmlns="http://www.w3.org/2000/svg" viewBox="0 0 24 24"><title>surveillance-camera-moving</title><path d="M5.328,16.936a.25.25,0,0,0-.369-.015L.385,21.5a.994.994,0,0,0,0,1.41l.71.71a1,1,0,0,0,1.41,0L7.079,19.04a.246.246,0,0,0,.073-.187.252.252,0,0,0-.088-.181C6.942,18.569,5.43,17.058,5.328,16.936Z"/><path d="M23.524,4.045l-.959-1.93a1.848,1.848,0,0,0-.68-.68L19.954.475a.764.764,0,0,0-.819.11L6.818,11.522a1,1,0,0,0-.257,1.12.249.249,0,0,0,.388.1l.145-.116h0a2.234,2.234,0,0,1,2.97.16l1.15,1.15a2.235,2.235,0,0,1,.16,2.97h0l-.117.146a.25.25,0,0,0,.1.388,1,1,0,0,0,1.119-.257L23.415,4.865A.763.763,0,0,0,23.524,4.045Z"/><path d="M9.361,13.5A1.233,1.233,0,0,0,7.722,13.4h0L6.286,14.554a1.229,1.229,0,0,0-.1,1.832l1.43,1.43a1.232,1.232,0,0,0,.87.36c.023,0,.046,0,.069,0a1.241,1.241,0,0,0,.893-.46L10.6,16.277a1.23,1.23,0,0,0-.092-1.639Z"/><path d="M19.538,10.944a2.91,2.91,0,0,1-1.885,1.885.75.75,0,0,0,.228,1.465.789.789,0,0,0,.228-.035,4.419,4.419,0,0,0,2.859-2.86.75.75,0,0,0-1.43-.455Z"/><path d="M23.141,9.415a.75.75,0,0,0-.734.766,5.363,5.363,0,0,1-1.582,3.933A5.307,5.307,0,0,1,16.891,15.7a.732.732,0,0,0-.765.735.749.749,0,0,0,.734.765h.147a6.906,6.906,0,0,0,6.9-7.048A.745.745,0,0,0,23.141,9.415Z"/><path d="M12.6,3.031a4.436,4.436,0,0,0-1.776,1.084A4.36,4.36,0,0,0,9.742,5.892a.749.749,0,0,0,.486.942.789.789,0,0,0,.228.035.748.748,0,0,0,.714-.522,2.913,2.913,0,0,1,1.886-1.886.75.75,0,0,0-.456-1.43Z"/><path d="M7.553,7.874h.016A.751.751,0,0,0,8.3,7.108,5.36,5.36,0,0,1,9.885,3.175a5.422,5.422,0,0,1,3.934-1.581.777.777,0,0,0,.766-.735A.751.751,0,0,0,13.85.094,6.9,6.9,0,0,0,6.8,7.14.749.749,0,0,0,7.553,7.874Z"/></svg>