<svg xmlns="http://www.w3.org/2000/svg" viewBox="0 0 24 24"><title>surveillance-cctv</title><path d="M21,6a1,1,0,0,0-1,1v3a1,1,0,0,0,2,0V7A1,1,0,0,0,21,6Z"/><path d="M23,0H4.5A4.5,4.5,0,0,0,.338,2.812.5.5,0,0,0,.8,3.5H4.5a.5.5,0,0,1,0,1H.5A.5.5,0,0,0,0,5V6a.5.5,0,0,0,.5.5h5a.5.5,0,0,1,0,1H.531a.5.5,0,0,0-.5.563A4.506,4.506,0,0,0,4.5,12H8.25a.5.5,0,0,1,.5.5v4.25a1.556,1.556,0,0,1-1.5,1.75H3a.5.5,0,0,1-.5-.5V16.75a1.25,1.25,0,0,0-2.5,0v6a1.25,1.25,0,0,0,2.5,0V21.5A.5.5,0,0,1,3,21H7.25a4.049,4.049,0,0,0,4-4.25V12.5a.5.5,0,0,1,.5-.5H16.5c1,0,2-.773,2-2.5V6.6a.5.5,0,0,1,.262-.44L23.53,3.571A1,1,0,0,0,24,2.723V1A1,1,0,0,0,23,0ZM10,9.5A1.5,1.5,0,1,1,11.5,8,1.5,1.5,0,0,1,10,9.5Z"/></svg>