<svg xmlns="http://www.w3.org/2000/svg" viewBox="0 0 24 24"><title>surveillance-cctv-wifi</title><path d="M16.25,11a1,1,0,0,0,1-1V5.754a.5.5,0,0,0-.6-.491l-1.705.34a.5.5,0,0,0-.368.308A2.506,2.506,0,0,1,12.25,7.5H3.75a.5.5,0,0,0-.5.5v.5A2.5,2.5,0,0,0,5.75,11H6.774a.5.5,0,0,1,.5.494l.033,2.734a.5.5,0,0,1-.433.5l-4.057.549a.5.5,0,0,1-.567-.5V13.5a1,1,0,0,0-2,0v6a1,1,0,0,0,2,0V17.81a.5.5,0,0,1,.433-.495l4.96-.673A2.007,2.007,0,0,0,9.25,14.681V11.5a.5.5,0,0,1,.5-.5Z"/><path d="M2.25,5a1,1,0,0,0,1,1h9a1,1,0,0,0,1-1V4.82a.5.5,0,0,1,.4-.49l6.38-1.269a.952.952,0,0,0,.675-.641l.513-1.177a.994.994,0,0,0-.182-.858A1.007,1.007,0,0,0,20.25,0h-15a3,3,0,0,0-3,3Z"/><path d="M19.25,5a1,1,0,0,0-1,1V8a1,1,0,0,0,2,0V6A1,1,0,0,0,19.25,5Z"/><circle cx="17.25" cy="22.25" r="1.75"/><path d="M23.371,15.626a9.821,9.821,0,0,0-12.242,0,1,1,0,1,0,1.242,1.568,7.823,7.823,0,0,1,9.758,0,1,1,0,1,0,1.242-1.568Z"/><path d="M13.6,18.451A1,1,0,0,0,14.9,19.977a3.586,3.586,0,0,1,4.707,0A1,1,0,1,0,20.9,18.451,5.621,5.621,0,0,0,13.6,18.451Z"/></svg>