<svg xmlns="http://www.w3.org/2000/svg" viewBox="0 0 24 24"><title>surveillance-camera-smartphone</title><path d="M13.124,0h-12A1,1,0,0,0,.177,1.316l.22,1A1,1,0,0,0,1.346,3H12.9a1,1,0,0,0,.949-.684l.22-1A1,1,0,0,0,13.124,0Z"/><path d="M13.1,5.045a.5.5,0,0,0-.5-.545H1.648a.5.5,0,0,0-.5.545,6,6,0,0,0,11.952,0ZM7.125,9a1.5,1.5,0,1,1,1.5-1.5A1.5,1.5,0,0,1,7.125,9Z"/><path d="M22.125,11h-6a1.5,1.5,0,0,0-1.5,1.5v10a1.5,1.5,0,0,0,1.5,1.5h6a1.5,1.5,0,0,0,1.5-1.5v-10A1.5,1.5,0,0,0,22.125,11Zm0,9.5a.5.5,0,0,1-.5.5h-5a.5.5,0,0,1-.5-.5V13a.5.5,0,0,1,.5-.5h5a.5.5,0,0,1,.5.5Z"/><path d="M23.6,5.006a7.073,7.073,0,0,0-8.942,0A.75.75,0,1,0,15.6,6.174a5.577,5.577,0,0,1,7.058,0A.75.75,0,0,0,23.6,5.006Z"/><path d="M17.263,8.584a2.944,2.944,0,0,1,3.724,0,.751.751,0,0,0,.943-1.168,4.437,4.437,0,0,0-5.61,0,.751.751,0,0,0,.943,1.168Z"/><path d="M3.125,15a1,1,0,0,0,1-1V12a1,1,0,0,0-2,0v2A1,1,0,0,0,3.125,15Z"/><path d="M12.125,19.5h-2.5a1,1,0,0,0,0,2h2.5a1,1,0,0,0,0-2Z"/><path d="M5.625,19.5h-1.5V18a1,1,0,0,0-2,0v1.5a2,2,0,0,0,2,2h1.5a1,1,0,0,0,0-2Z"/></svg>