<svg xmlns="http://www.w3.org/2000/svg" viewBox="0 0 24 24"><title>surveillance-camera</title><path d="M23.288,2.885A1,1,0,0,0,22.5,2.5H1.5A1,1,0,0,0,.53,3.743l.5,2.5A1,1,0,0,0,2,7H22a1,1,0,0,0,.97-.757l.5-2.5A1,1,0,0,0,23.288,2.885Z"/><path d="M12,12.25A3.755,3.755,0,0,0,8.25,16v4.421a.5.5,0,0,0,.328.469,9.9,9.9,0,0,0,6.844,0,.5.5,0,0,0,.328-.469V16A3.755,3.755,0,0,0,12,12.25ZM12,19a2,2,0,1,1,2-2A2,2,0,0,1,12,19Z"/><path d="M21.161,8.5H2.839a.5.5,0,0,0-.482.368,9.944,9.944,0,0,0,3.59,10.573.5.5,0,0,0,.8-.4V16a5.25,5.25,0,0,1,10.5,0v3.044a.5.5,0,0,0,.8.4,9.944,9.944,0,0,0,3.59-10.573A.5.5,0,0,0,21.161,8.5Z"/></svg>