<svg xmlns="http://www.w3.org/2000/svg" viewBox="0 0 24 24"><title>surveillance-target</title><path d="M12,0A12,12,0,1,0,24,12,12.013,12.013,0,0,0,12,0Zm7.515,4.485a.75.75,0,0,1,0,1.061L12.53,12.53a.75.75,0,0,1-1.06-1.06l6.984-6.985A.75.75,0,0,1,19.515,4.485ZM12,15.25A3.254,3.254,0,0,0,15.25,12a.75.75,0,0,1,1.5,0A4.75,4.75,0,1,1,12,7.25a.75.75,0,0,1,0,1.5,3.25,3.25,0,0,0,0,6.5Zm0-12.5a9.162,9.162,0,0,1,4.047.93.75.75,0,1,1-.657,1.349A7.67,7.67,0,0,0,12,4.25a7.759,7.759,0,0,0-7.68,6.729.311.311,0,0,1-.312.271H4a3.226,3.226,0,0,0-.568.051.5.5,0,0,1-.585-.56A9.254,9.254,0,0,1,12,2.75ZM2.25,14.5A1.75,1.75,0,1,1,4,16.25,1.752,1.752,0,0,1,2.25,14.5ZM12,21.25a9.211,9.211,0,0,1-6.811-3.011.5.5,0,0,1,.156-.79,3.2,3.2,0,0,0,.385-.214.5.5,0,0,1,.635.076A7.749,7.749,0,0,0,19.187,9.094a.75.75,0,1,1,1.39-.563A9.254,9.254,0,0,1,12,21.25Z"/></svg>