<svg id="Bold" xmlns="http://www.w3.org/2000/svg" viewBox="0 0 24 24"><title>swan</title><path d="M12,0A12.013,12.013,0,0,0,0,12a7.427,7.427,0,0,0,.563,2.852,63.355,63.355,0,0,1,2.519,7.6A1.99,1.99,0,0,0,5.029,24,3.224,3.224,0,0,0,8.25,20.779V12A3.8,3.8,0,0,1,12,8a4,4,0,0,1,0,8,.5.5,0,0,0-.5.5v7a.5.5,0,0,0,.5.5A12,12,0,0,0,12,0ZM3.5,13.5a1,1,0,1,1,1,1A1,1,0,0,1,3.5,13.5Zm2.75,7.279A1.223,1.223,0,0,1,5.03,22a42.411,42.411,0,0,0-1.389-4.555,3.985,3.985,0,0,0,1.98.04,2.865,2.865,0,0,0,.629-.236Z"/></svg>