<svg id="Bold" xmlns="http://www.w3.org/2000/svg" viewBox="0 0 24 24"><title>sweater-1</title><path d="M6.508,18.25a.25.25,0,0,0-.25.25v3.478a.522.522,0,0,0,.522.522H17.22a.522.522,0,0,0,.522-.522V18.5a.25.25,0,0,0-.25-.25Z"/><rect x="6.258" y="13" width="11.483" height="3.5" rx="0.25" ry="0.25"/><path d="M23.987,15.04,21.725,5.252A3.13,3.13,0,0,0,19.821,3L16.163,1.537a.522.522,0,0,0-.542.1A5.461,5.461,0,0,1,12,3.065,5.461,5.461,0,0,1,8.379,1.634a.522.522,0,0,0-.542-.1L4.178,3a3.131,3.131,0,0,0-1.9,2.256L.013,15.04a.523.523,0,0,0,.357.617l2.718.827a.52.52,0,0,0,.66-.379L5.684,7.88a.291.291,0,0,1,.574.067V11a.25.25,0,0,0,.25.25H17.492a.25.25,0,0,0,.25-.25V7.947a.291.291,0,0,1,.574-.067l1.935,8.225a.521.521,0,0,0,.661.379l2.718-.827A.523.523,0,0,0,23.987,15.04Z"/></svg>