<svg xmlns="http://www.w3.org/2000/svg" viewBox="0 0 24 24"><title>swimming-pool-stairs</title><path d="M8,19.5a1,1,0,0,0,1-1v-1a.5.5,0,0,1,.5-.5H15a.5.5,0,0,1,.5.5v1a1,1,0,0,0,2,0V3.5a1.5,1.5,0,0,1,3,0,1,1,0,0,0,2,0,3.5,3.5,0,0,0-7,0v2A.5.5,0,0,1,15,6H9.5A.5.5,0,0,1,9,5.5v-2a1.5,1.5,0,0,1,3,0,1,1,0,0,0,2,0,3.5,3.5,0,0,0-7,0v15A1,1,0,0,0,8,19.5Zm1-11A.5.5,0,0,1,9.5,8H15a.5.5,0,0,1,.5.5V10a.5.5,0,0,1-.5.5H9.5A.5.5,0,0,1,9,10ZM9,13a.5.5,0,0,1,.5-.5H15a.5.5,0,0,1,.5.5v1.5a.5.5,0,0,1-.5.5H9.5a.5.5,0,0,1-.5-.5Z"/><path d="M22.868,21.941c-1.629.214-2.739-1.5-2.746-1.513a1.044,1.044,0,0,0-1.719.028,3.265,3.265,0,0,1-2.674,1.51,2.725,2.725,0,0,1-2.336-1.44,1.046,1.046,0,0,0-1.713-.16,4.2,4.2,0,0,1-3.027,1.6,3.465,3.465,0,0,1-2.685-1.538,1.041,1.041,0,0,0-1.638-.091c-.015.018-1.522,1.854-3.2,1.644a1,1,0,0,0-.264,1.983A4.287,4.287,0,0,0,1.417,24a5.478,5.478,0,0,0,3.324-1.3.5.5,0,0,1,.633.011,5.042,5.042,0,0,0,3.279,1.252,5.624,5.624,0,0,0,3.4-1.2.5.5,0,0,1,.636.027,4.455,4.455,0,0,0,3.044,1.17,5,5,0,0,0,3.226-1.173.5.5,0,0,1,.64,0,4.459,4.459,0,0,0,3.537,1.127,1,1,0,0,0,.859-1.123A1.01,1.01,0,0,0,22.868,21.941Z"/></svg>