<svg id="Bold" xmlns="http://www.w3.org/2000/svg" viewBox="0 0 24 24"><title>swimming-lifeguard</title><path d="M12.153,23.624a4.287,4.287,0,0,0,2.576-.966.249.249,0,0,1,.31,0,4.01,4.01,0,0,0,2.546.936,4.448,4.448,0,0,0,2.622-.892.25.25,0,0,1,.309.012,3.63,3.63,0,0,0,2.386.88,1,1,0,0,0,0-2,1.8,1.8,0,0,1-1.53-.939,1.043,1.043,0,0,0-1.717-.157,2.875,2.875,0,0,1-2.07,1.1,2.361,2.361,0,0,1-1.807-1.038,1.039,1.039,0,0,0-1.637-.091c-.009.012-1.02,1.234-2.065,1.153a.98.98,0,0,0-1.052.946,1,1,0,0,0,.947,1.052C12.032,23.623,12.093,23.624,12.153,23.624Z"/><path d="M14.733,18.558a.249.249,0,0,1,.3,0,4.529,4.529,0,0,0,1.7.846,3.846,3.846,0,0,0,.852.095,4.085,4.085,0,0,0,1.165-.184,5.246,5.246,0,0,0,1.46-.713.248.248,0,0,1,.3.012,3.835,3.835,0,0,0,1.876.832,3.664,3.664,0,0,0,.514.053,1,1,0,0,0,0-2,1.8,1.8,0,0,1-1.53-.94,1.046,1.046,0,0,0-1.713-.162,2.9,2.9,0,0,1-2.074,1.1,2.36,2.36,0,0,1-1.807-1.039,1.041,1.041,0,0,0-1.637-.09c-.009.011-1.02,1.21-2.065,1.152a.981.981,0,0,0-1.052.946,1,1,0,0,0,.947,1.052c.061,0,.122,0,.182,0a3.566,3.566,0,0,0,1.016-.164A5.29,5.29,0,0,0,14.733,18.558Z"/><path d="M3.07,2.251a2.231,2.231,0,1,0,4.461,0A2.293,2.293,0,0,0,5.237.021,2.176,2.176,0,0,0,3.07,2.251Z"/><path d="M10.181,15.73a1.482,1.482,0,0,0,2.094.607,1.557,1.557,0,0,0,.512-2.029L10.994,10.72a1.981,1.981,0,0,0-1.77-1.093H6.813a.25.25,0,0,1-.25-.25V7.155a1.484,1.484,0,1,0-2.967,0v3.956a1.483,1.483,0,0,0,1.483,1.483H8.458a.251.251,0,0,1,.224.138Z"/><path d="M1.439,14.556a.25.25,0,0,1,.082.217L.6,22.615a1,1,0,0,0,.876,1.11.961.961,0,0,0,.119.007,1,1,0,0,0,.992-.883l.161-1.369a.25.25,0,0,1,.248-.221H6.836a.25.25,0,0,1,.248.221l.19,1.616a1,1,0,0,0,.992.883.961.961,0,0,0,.119-.007,1,1,0,0,0,.876-1.11l-.989-8.406a1.493,1.493,0,0,0-1.241-1.13H3.412a.984.984,0,0,1-.975-.9l-.343-4.12A.981.981,0,0,0,1.014,7.4,1,1,0,0,0,.1,8.474l.343,4.12A2.954,2.954,0,0,0,1.439,14.556Zm2.005.99a.251.251,0,0,1,.249-.22H6.138a.251.251,0,0,1,.249.22l.055.467a.252.252,0,0,1-.062.2.249.249,0,0,1-.187.083H3.638a.249.249,0,0,1-.187-.083.252.252,0,0,1-.062-.2ZM3.1,18.513a.251.251,0,0,1,.248-.221H6.487a.249.249,0,0,1,.248.221l.055.467a.249.249,0,0,1-.248.279H3.288a.251.251,0,0,1-.248-.279Z"/></svg>