<svg id="Bold" xmlns="http://www.w3.org/2000/svg" viewBox="0 0 24 24"><title>swimming-goggles</title><path d="M13.95,17.349a.751.751,0,0,0-1.058.077,1.253,1.253,0,0,1-.928.341h0a1.282,1.282,0,0,1-.937-.341.75.75,0,1,0-1.134.981,2.744,2.744,0,0,0,2.071.86h0a2.7,2.7,0,0,0,2.063-.86A.75.75,0,0,0,13.95,17.349Z"/><path d="M12,.75c-5.238,0-9.5,4.71-9.5,10.5a11.1,11.1,0,0,0,2.406,6.976,3.945,3.945,0,0,1,.446.687A7.378,7.378,0,0,0,12,23.25a7.378,7.378,0,0,0,6.648-4.337,4.042,4.042,0,0,1,.446-.687A11.1,11.1,0,0,0,21.5,11.25C21.5,5.46,17.238.75,12,.75ZM7.053,9.358a6,6,0,0,1,9.894,0,.251.251,0,0,1-.206.392H15.132a3.376,3.376,0,0,0-1.966.633l-.876.623a.5.5,0,0,1-.58,0l-.876-.623A3.376,3.376,0,0,0,8.868,9.75H7.259a.251.251,0,0,1-.206-.392Zm-1.93,3.63a.292.292,0,0,1,0-.476l.7-.5a1.386,1.386,0,0,1,.807-.263H8.868a1.386,1.386,0,0,1,.807.263l.7.5a.292.292,0,0,1,0,.476l-.7.5a1.386,1.386,0,0,1-.807.263H6.632a1.386,1.386,0,0,1-.807-.263ZM17.6,16.047c-.835,3.177-2.907,5.2-5.6,5.2s-4.754-2.019-5.593-5.186a.25.25,0,0,1,.244-.314c.267,0,.789,0,2.217,0a3.376,3.376,0,0,0,1.966-.633l.876-.623a.5.5,0,0,1,.58,0l.876.623a3.376,3.376,0,0,0,1.966.633h2.236a.236.236,0,0,1,.229.3Zm1.28-3.059-.7.5a1.386,1.386,0,0,1-.807.263H15.132a1.386,1.386,0,0,1-.807-.263l-.7-.5a.292.292,0,0,1,0-.476l.7-.5a1.386,1.386,0,0,1,.807-.263h2.236a1.386,1.386,0,0,1,.807.263l.7.5a.292.292,0,0,1,0,.476Z"/></svg>