<svg id="Bold" xmlns="http://www.w3.org/2000/svg" viewBox="0 0 24 24"><title>t-shirt</title><path d="M23.568,6.293,19.816,2.414A3.012,3.012,0,0,0,17.66,1.5H16.622a.5.5,0,0,1-.376-.17c-.029-.033-.441-.447-.441-.447A3.089,3.089,0,0,0,14.779.212l-.006,0A3.021,3.021,0,0,0,13.678,0H10.322A3.021,3.021,0,0,0,9.227.209l-.006,0A3.089,3.089,0,0,0,8.2.883s-.412.414-.441.447a.5.5,0,0,1-.376.17H6.34a3.012,3.012,0,0,0-2.156.914L.432,6.293A1.516,1.516,0,0,0,.185,8.087l1.994,3.36a1.507,1.507,0,0,0,1.1.81,1.49,1.49,0,0,0,.592-.023.5.5,0,0,1,.618.486V22.5a1.5,1.5,0,0,0,1.5,1.5H18.008a1.5,1.5,0,0,0,1.5-1.5V12.72a.5.5,0,0,1,.618-.486,1.49,1.49,0,0,0,.592.023,1.507,1.507,0,0,0,1.1-.81l1.994-3.36A1.516,1.516,0,0,0,23.568,6.293Zm-13.082.392a.578.578,0,0,1-.228.385l-.907.681a.452.452,0,0,1-.644-.115L7.128,5.105A.87.87,0,0,1,7.252,4.02s.351-.351.373-.371a.586.586,0,0,1,.859.085l1.891,2.517A.585.585,0,0,1,10.486,6.685ZM9.573,2.668a.429.429,0,0,1-.038-.437A.4.4,0,0,1,9.9,2h4.194a.4.4,0,0,1,.361.231.43.43,0,0,1-.039.437L12.2,5.721a.251.251,0,0,1-.405,0Zm7.283,2.437L15.278,7.636a.434.434,0,0,1-.291.194.426.426,0,0,1-.353-.079l-.908-.681a.584.584,0,0,1-.116-.819L15.5,3.734a.585.585,0,0,1,.858-.085c.022.02.374.371.374.371A.869.869,0,0,1,16.856,5.105Z"/></svg>