<svg id="Bold" xmlns="http://www.w3.org/2000/svg" viewBox="0 0 24 24"><title>table-candles</title><path d="M7.188,4.57c0-.862-1.116-2.946-1.754-4.068a.5.5,0,0,0-.869,0C3.927,1.625,2.813,3.708,2.813,4.57a2.188,2.188,0,1,0,4.375,0Z"/><path d="M12,6.758A2.189,2.189,0,0,0,14.188,4.57c0-.862-1.116-2.946-1.754-4.068a.5.5,0,0,0-.869,0C10.927,1.625,9.813,3.708,9.813,4.57A2.188,2.188,0,0,0,12,6.758Z"/><path d="M19.434.5a.5.5,0,0,0-.869,0c-.638,1.122-1.752,3.205-1.752,4.067a2.188,2.188,0,1,0,4.375,0C21.188,3.708,20.072,1.624,19.434.5Z"/><path d="M19.5,8.25h-1a.5.5,0,0,0-.5.5v.5A6.006,6.006,0,0,1,13.305,15.1a.251.251,0,0,1-.3-.244V8.75a.5.5,0,0,0-.5-.5h-1a.5.5,0,0,0-.5.5v6.107a.25.25,0,0,1-.094.2.254.254,0,0,1-.211.049A6.006,6.006,0,0,1,6,9.25v-.5a.5.5,0,0,0-.5-.5h-1a.5.5,0,0,0-.5.5v.5a8.007,8.007,0,0,0,6.788,7.9A.25.25,0,0,1,11,17.4v4.1a.25.25,0,0,1-.25.25H7.5a1,1,0,0,0,0,2h9a1,1,0,0,0,0-2H13.25A.25.25,0,0,1,13,21.5V17.4a.25.25,0,0,1,.212-.247A8.007,8.007,0,0,0,20,9.25v-.5A.5.5,0,0,0,19.5,8.25Z"/></svg>