<svg id="Bold" xmlns="http://www.w3.org/2000/svg" viewBox="0 0 24 24"><title>table-lamp-colorful</title><path d="M19.477,15.846c-.082-.332-.218-.841-.423-1.615-.557-2.1-1.595-6-3.469-13.473A.993.993,0,0,0,14.62,0H9.38a.993.993,0,0,0-.965.758C6.541,8.233,5.5,12.136,4.946,14.231c-.205.774-.341,1.283-.423,1.615a.918.918,0,0,0,.181.779c.185.237.319.227.566.461,1.475,1.478,1.51,2.805.152,4.4A1.5,1.5,0,0,0,6.5,24h11a1.5,1.5,0,0,0,1.078-2.518c-1.358-1.591-1.323-2.918.152-4.4.247-.234.381-.224.566-.461A.918.918,0,0,0,19.477,15.846ZM14.49,8.5a1,1,0,1,1-1,1A1,1,0,0,1,14.49,8.5Zm-3-3.5a1,1,0,1,1-1,1A1,1,0,0,1,11.49,5Zm-1,6a1.5,1.5,0,1,1-1.5,1.5A1.5,1.5,0,0,1,10.49,11ZM7.965,22a.25.25,0,0,1-.219-.371,4.391,4.391,0,0,0,.178-4.268A.25.25,0,0,1,8.149,17h7.7a.25.25,0,0,1,.225.361,4.391,4.391,0,0,0,.178,4.268.25.25,0,0,1-.219.371Z"/></svg>