<svg xmlns="http://www.w3.org/2000/svg" viewBox="0 0 24 24"><title>tag-dollar</title><path d="M22.5,0H14a2.9,2.9,0,0,0-2.061.854L.5,12.293a1.707,1.707,0,0,0,0,2.414L9.293,23.5a1.707,1.707,0,0,0,2.414,0L23.146,12.061A2.892,2.892,0,0,0,24,10V1.5A1.5,1.5,0,0,0,22.5,0ZM14.187,10.714c.561,2.089,1.09,4.062-.044,5.2a2.844,2.844,0,0,1-4.065,0l-.013-.014a.252.252,0,0,0-.354,0l-.782.783a1,1,0,1,1-1.414-1.414l.782-.783a.25.25,0,0,0,0-.354L6.959,12.792a1,1,0,0,1,1.414-1.415l2.215,2.215v0l.007.006,0,0,.008.008.886.886a.848.848,0,0,0,1.237,0c.318-.318-.237-2.383-.473-3.264-.561-2.089-1.09-4.062.045-5.2a2.722,2.722,0,0,1,4.064,0h0l.013.013a.252.252,0,0,0,.354,0l.783-.782a1,1,0,1,1,1.414,1.414l-.783.782a.25.25,0,0,0,0,.353l1.338,1.339a1,1,0,0,1-1.414,1.414L15.863,8.362l-.01-.009,0-.006-.009-.009,0,0-.885-.885a.757.757,0,0,0-1.236,0C13.4,7.768,13.951,9.833,14.187,10.714Z"/></svg>