<svg xmlns="http://www.w3.org/2000/svg" viewBox="0 0 24 24"><title>tag-yuan</title><path d="M22.5,0H14a2.9,2.9,0,0,0-2.061.854L.5,12.293a1.707,1.707,0,0,0,0,2.414L9.293,23.5a1.707,1.707,0,0,0,2.414,0L23.146,12.061A2.892,2.892,0,0,0,24,10V1.5A1.5,1.5,0,0,0,22.5,0ZM13.414,14.448A1,1,0,1,1,12,15.862l-.95-.949a.249.249,0,0,0-.353,0L9.136,16.474A1,1,0,0,1,7.722,15.06L9.283,13.5a.251.251,0,0,0,0-.354l-.95-.949a1,1,0,0,1,1.414-1.414l.95.949a.249.249,0,0,0,.353,0l.184-.184a.248.248,0,0,0,.041-.3A4.459,4.459,0,0,1,12,5.893L13.833,4.06a1,1,0,0,1,1.414,1.414L13.414,7.307a2.456,2.456,0,0,0,0,3.475,2.519,2.519,0,0,0,3.475,0l1.833-1.834a1,1,0,1,1,1.414,1.414L18.3,12.2a4.463,4.463,0,0,1-5.354.725.25.25,0,0,0-.3.041l-.183.183a.249.249,0,0,0,0,.354Z"/></svg>