<svg xmlns="http://www.w3.org/2000/svg" viewBox="0 0 24 24"><title>tag-new</title><path d="M1,4.5H23a1,1,0,0,0,0-2H1a1,1,0,0,0,0,2Z"/><path d="M23,19.5H1a1,1,0,0,0,0,2H23a1,1,0,0,0,0-2Z"/><path d="M5.708,8.5v1.705a.25.25,0,0,1-.474.111L4.1,8.053A1,1,0,0,0,2.208,8.5v7a1,1,0,0,0,2,0V13.8a.25.25,0,0,1,.474-.111l1.131,2.263a1,1,0,0,0,1.9-.447v-7a1,1,0,0,0-2,0Z"/><path d="M11.375,9.5h2.333a1,1,0,0,0,0-2H11.375A2.169,2.169,0,0,0,9.208,9.667v4.666A2.169,2.169,0,0,0,11.375,16.5h2.333a1,1,0,0,0,0-2H11.375a.167.167,0,0,1-.167-.167V13.25a.25.25,0,0,1,.25-.25h1.084a1,1,0,1,0,0-2H11.458a.25.25,0,0,1-.25-.25V9.667A.167.167,0,0,1,11.375,9.5Z"/><path d="M20.3,8.429l-.208,2.91a.124.124,0,0,1-.1.113.122.122,0,0,1-.134-.066,1.042,1.042,0,0,0-1.79,0,.123.123,0,0,1-.233-.047l-.208-2.911a1,1,0,1,0-1.994.142l.5,7a1,1,0,0,0,1.892.376l.714-1.43a.25.25,0,0,1,.448,0l.715,1.43a1,1,0,0,0,.9.553.929.929,0,0,0,.195-.02,1,1,0,0,0,.8-.909l.5-7A1,1,0,1,0,20.3,8.429Z"/><path d="M1,4.528H23a1,1,0,1,0,0-2H1a1,1,0,1,0,0,2Z"/><path d="M23,19.528H1a1,1,0,0,0,0,2H23a1,1,0,0,0,0-2Z"/><path d="M5.708,8.528v1.705a.25.25,0,0,1-.474.111L4.1,8.081a1,1,0,0,0-1.895.447v7a1,1,0,0,0,2,0v-1.7a.25.25,0,0,1,.474-.111l1.131,2.263a1,1,0,0,0,1.9-.447v-7a1,1,0,1,0-2,0Z"/><path d="M11.375,9.528h2.333a1,1,0,0,0,0-2H11.375A2.169,2.169,0,0,0,9.208,9.7v4.666a2.169,2.169,0,0,0,2.167,2.167h2.333a1,1,0,0,0,0-2H11.375a.167.167,0,0,1-.167-.167V13.278a.25.25,0,0,1,.25-.25h1.084a1,1,0,0,0,0-2H11.458a.25.25,0,0,1-.25-.25V9.7A.167.167,0,0,1,11.375,9.528Z"/><path d="M20.3,8.457l-.208,2.91a.124.124,0,0,1-.1.113.122.122,0,0,1-.134-.066,1.042,1.042,0,0,0-1.79,0,.123.123,0,0,1-.233-.047l-.208-2.911a1,1,0,1,0-1.994.142l.5,7a1,1,0,0,0,1.892.376l.714-1.43a.25.25,0,0,1,.448,0l.715,1.431a1,1,0,0,0,.9.553.929.929,0,0,0,.195-.02,1,1,0,0,0,.8-.909l.5-7A1,1,0,1,0,20.3,8.457Z"/></svg>