<svg xmlns="http://www.w3.org/2000/svg" viewBox="0 0 24 24"><title>target-center</title><path d="M23.9,2.7a.5.5,0,0,0-.4-.2H21.75a.25.25,0,0,1-.25-.25V.5a.5.5,0,0,0-.648-.477A14.867,14.867,0,0,0,19,.769V3.835a.251.251,0,0,1-.073.178l-.5.5A.25.25,0,0,1,18,4.335V1.3a5.388,5.388,0,0,0-2.7,2.95,2.983,2.983,0,0,0,.586,2.511.252.252,0,0,1-.027.322l-.89.89a.247.247,0,0,1-.333.017A8.993,8.993,0,0,0,1.92,20.549a.249.249,0,0,1,0,.309L.716,22.38a1,1,0,0,0,.164,1.4,1.01,1.01,0,0,0,1.4-.164l1.052-1.33a.25.25,0,0,1,.344-.046,8.961,8.961,0,0,0,10.857-.153.25.25,0,0,1,.34.03l1.376,1.544a1.015,1.015,0,0,0,1.412.081,1,1,0,0,0,.082-1.411l-1.5-1.684a.252.252,0,0,1-.015-.316,8.947,8.947,0,0,0,.449-10.015.255.255,0,0,0-.4-.043L15,11.558a.242.242,0,0,0-.041.288,6.764,6.764,0,1,1-1.984-2.292.256.256,0,0,1,.1.183.251.251,0,0,1-.072.2l-.727.727a.252.252,0,0,1-.319.029,5.161,5.161,0,0,0-4.152-.8,5.253,5.253,0,1,0,6.1,6.947,5.1,5.1,0,0,0-.013-3.681.252.252,0,0,0-.411-.081l-1.213,1.213a.244.244,0,0,0-.067.213,2.975,2.975,0,0,1-.192,1.649A3.331,3.331,0,0,1,9.4,18.226a3.25,3.25,0,0,1-1.093-6.4,3.174,3.174,0,0,1,2.094.249.255.255,0,0,1,.137.184.252.252,0,0,1-.07.218l-.88.881A1.718,1.718,0,0,0,9,13.25,1.75,1.75,0,1,0,10.75,15a1.731,1.731,0,0,0-.107-.582l6.274-6.274a.25.25,0,0,1,.321-.028,3.2,3.2,0,0,0,1.863.667,2.683,2.683,0,0,0,.65-.08c2.68-.662,4.165-5.355,4.227-5.554A.5.5,0,0,0,23.9,2.7Z"/></svg>