<svg xmlns="http://www.w3.org/2000/svg" viewBox="0 0 24 24"><title>target-correct</title><path d="M14.5,3.914V5.5a.249.249,0,0,1-.1.2,1.168,1.168,0,0,0-.107.093l-5,5a1,1,0,1,0,1.414,1.414l5-5A.938.938,0,0,0,15.8,7.1.251.251,0,0,1,16,7h1.586a1.507,1.507,0,0,0,1.06-.44l2.708-2.707A.5.5,0,0,0,21,3H18.75a.25.25,0,0,1-.25-.25V.5a.5.5,0,0,0-.854-.354L14.939,2.853A1.491,1.491,0,0,0,14.5,3.914Z"/><path d="M10,5.5a6,6,0,0,0,0,12,1,1,0,0,0,0-2,4,4,0,0,1,0-8,1,1,0,0,0,0-2Z"/><path d="M10,21.5a1,1,0,0,0,0-2A8,8,0,1,1,12.225,3.813a1,1,0,1,0,.554-1.921A10,10,0,1,0,10,21.5Z"/><path d="M17.5,24A6.5,6.5,0,1,0,11,17.5,6.508,6.508,0,0,0,17.5,24Zm-3.394-6.323a.752.752,0,0,1,1.061,0l1.3,1.3a.255.255,0,0,0,.2.073.248.248,0,0,0,.182-.1L19.574,15.3a.75.75,0,0,1,1.2.9L17.868,20.08a1.5,1.5,0,0,1-1.1.6l-.109,0a1.493,1.493,0,0,1-1.056-.441l-1.5-1.5A.75.75,0,0,1,14.106,17.677Z"/></svg>