<svg xmlns="http://www.w3.org/2000/svg" viewBox="0 0 24 24"><title>target-center-phone</title><path d="M18.757,6.662l2.351-2.35a.488.488,0,0,0-.345-.832H18.092a.249.249,0,0,1-.25-.25V.56a.486.486,0,0,0-.831-.345l-2.35,2.35a2.416,2.416,0,0,0-.713,1.722V5.922a.25.25,0,0,1-.117.212.442.442,0,0,0-.085.066L8.877,11.068a.974.974,0,0,0,1.377,1.377l4.869-4.868a.53.53,0,0,0,.074-.1.217.217,0,0,1,.186-.105h1.653A2.418,2.418,0,0,0,18.757,6.662Z"/><path d="M8.95,9.909a.974.974,0,0,0-.616-1.847,3.895,3.895,0,1,0,4.928,4.926.974.974,0,0,0-1.849-.614A1.948,1.948,0,1,1,8.95,9.909Z"/><path d="M5.184,23.928h8.764a2.437,2.437,0,0,0,2.434-2.434V11.757a.974.974,0,0,0-1.948,0v6.566a.25.25,0,0,1-.25.25H4.947a.25.25,0,0,1-.25-.25V4.218a.249.249,0,0,1,.25-.25H12a.487.487,0,0,0,.487-.488V1.047A.486.486,0,0,0,12,.56H5.184A2.436,2.436,0,0,0,2.75,2.994v18.5A2.437,2.437,0,0,0,5.184,23.928Zm4.382-3.407a.974.974,0,1,1-.974.974A.975.975,0,0,1,9.566,20.521Z"/></svg>