<svg xmlns="http://www.w3.org/2000/svg" viewBox="0 0 24 24"><title>task-list-text</title><path d="M18.487,18.237a.253.253,0,0,0-.25.25v5.089a.251.251,0,0,0,.305.244,6.993,6.993,0,0,0,5.278-5.279.251.251,0,0,0-.049-.21.248.248,0,0,0-.2-.094Z"/><path d="M16.737,18.487a1.752,1.752,0,0,1,1.75-1.75h5.25a.25.25,0,0,0,.25-.25V2.012a2,2,0,0,0-2-2H2.013a2,2,0,0,0-2,2V21.987a2,2,0,0,0,2,2H16.487a.25.25,0,0,0,.25-.25Zm4.026-7.225a.75.75,0,1,1,0,1.5h-13a.25.25,0,0,0-.25.25v3.25a.25.25,0,0,0,.25.25h6.5a.75.75,0,0,1,0,1.5h-6.5a.25.25,0,0,0-.25.25v2.5a.75.75,0,0,1-1.5,0v-2.5a.25.25,0,0,0-.25-.25h-2.5a.75.75,0,1,1,0-1.5h2.5a.25.25,0,0,0,.25-.25v-3.25a.25.25,0,0,0-.25-.25h-2.5a.75.75,0,0,1,0-1.5h2.5a.25.25,0,0,0,.25-.25V7.762a.25.25,0,0,0-.25-.25h-2.5a.75.75,0,1,1,0-1.5h2.5a.25.25,0,0,0,.25-.25v-2.5a.75.75,0,0,1,1.5,0v2.5a.25.25,0,0,0,.25.25h13a.75.75,0,0,1,0,1.5h-13a.25.25,0,0,0-.25.25v3.25a.25.25,0,0,0,.25.25Z"/></svg>