<svg xmlns="http://www.w3.org/2000/svg" viewBox="0 0 24 24"><title>task-list-pin-alternate</title><path d="M19,7H14.285a.25.25,0,0,0-.25.25V9H18.5a.5.5,0,0,1,.5.5V16a1.171,1.171,0,0,1-.057.322.25.25,0,0,1-.24.178H15.285a1.752,1.752,0,0,0-1.75,1.75v3.443a.249.249,0,0,1-.173.238A1.254,1.254,0,0,1,13,22H5.5a.5.5,0,0,1-.5-.5V9.5A.5.5,0,0,1,5.5,9H8.785a.249.249,0,0,0,.25-.25V7.25A.25.25,0,0,0,8.785,7H5A2,2,0,0,0,3,9V22a2,2,0,0,0,2,2h8a3.749,3.749,0,0,0,2.414-1L20,18.414A3.751,3.751,0,0,0,21,16V9A2,2,0,0,0,19,7ZM15.462,20.124a.25.25,0,0,1-.427-.177v-1.7a.253.253,0,0,1,.25-.25h1.7a.25.25,0,0,1,.177.427Z"/><path d="M6.535,13.5a.75.75,0,0,0,.75.75h9.5a.75.75,0,0,0,0-1.5h-9.5A.75.75,0,0,0,6.535,13.5Z"/><path d="M10.285,17.25h-3a.75.75,0,0,0,0,1.5h3a.75.75,0,0,0,0-1.5Z"/><path d="M10.381,5.769A.251.251,0,0,1,10.535,6V9a1,1,0,0,0,2,0V6a.251.251,0,0,1,.154-.231,3,3,0,1,0-2.308,0Z"/></svg>