<svg xmlns="http://www.w3.org/2000/svg" viewBox="0 0 24 24"><title>task-list-text-alternate</title><path d="M24,2.013a2,2,0,0,0-2-2H2a2,2,0,0,0-2,2V21.987a2,2,0,0,0,2,2H17.025a7.02,7.02,0,0,0,4.932-2.043A6.93,6.93,0,0,0,24,17.013Zm-22,.5a.5.5,0,0,1,.5-.5h19a.5.5,0,0,1,.5.5V16.487a.25.25,0,0,1-.25.25H18.5a1.752,1.752,0,0,0-1.75,1.75v3.25a.25.25,0,0,1-.25.25H2.5a.5.5,0,0,1-.5-.5ZM18.578,21.736a.25.25,0,0,1-.328-.237V18.487a.253.253,0,0,1,.25-.25h3.016a.252.252,0,0,1,.2.1.248.248,0,0,1,.035.224,4.974,4.974,0,0,1-3.176,3.171Z"/><path d="M14.25,15.513H7.75a.25.25,0,0,1-.25-.25v-2.25a.25.25,0,0,1,.25-.25h12a.75.75,0,0,0,0-1.5h-12a.25.25,0,0,1-.25-.25V8.763a.25.25,0,0,1,.25-.25h12a.75.75,0,0,0,0-1.5h-12a.25.25,0,0,1-.25-.25v-2.5a.75.75,0,0,0-1.5,0v2.5a.25.25,0,0,1-.25.25H4.25a.75.75,0,0,0,0,1.5h1.5a.25.25,0,0,1,.25.25v2.25a.25.25,0,0,1-.25.25H4.25a.75.75,0,1,0,0,1.5h1.5a.25.25,0,0,1,.25.25v2.25a.25.25,0,0,1-.25.25H4.25a.75.75,0,1,0,0,1.5h1.5a.25.25,0,0,1,.25.25v2.5a.75.75,0,0,0,1.5,0v-2.5a.25.25,0,0,1,.25-.25h6.5a.75.75,0,1,0,0-1.5Z"/></svg>