<svg xmlns="http://www.w3.org/2000/svg" viewBox="0 0 24 24"><title>task-list-lock</title><path d="M12,7.749H6a.75.75,0,0,0,0,1.5h6a.75.75,0,0,0,0-1.5Z"/><path d="M12,11.249H6a.75.75,0,0,0,0,1.5h6a.75.75,0,0,0,0-1.5Z"/><path d="M10,16.249a.75.75,0,0,0,0-1.5H6a.75.75,0,1,0,0,1.5Z"/><path d="M12.25,19H3.5a.5.5,0,0,1-.5-.5V5.5A.5.5,0,0,1,3.5,5h11a.5.5,0,0,1,.5.5v5.873a.247.247,0,0,0,.448.145,4.472,4.472,0,0,1,2.369-1.6A.243.243,0,0,0,18,9.683V3.5A1.5,1.5,0,0,0,16.5,2h-4a.241.241,0,0,1-.208-.121,3.827,3.827,0,0,0-6.588,0A.241.241,0,0,1,5.5,2h-4A1.5,1.5,0,0,0,0,3.5v17A1.5,1.5,0,0,0,1.5,22H12.25a.25.25,0,0,0,.25-.25v-2.5A.25.25,0,0,0,12.25,19Z"/><path d="M22.611,15.511a.123.123,0,0,1-.111-.119V14.249a3.5,3.5,0,0,0-7,0v1.134a.114.114,0,0,1-.113.128A1.5,1.5,0,0,0,14,17v5.5A1.5,1.5,0,0,0,15.5,24h7A1.5,1.5,0,0,0,24,22.5V17A1.5,1.5,0,0,0,22.611,15.511ZM19,21.249a1,1,0,1,1,1-1A1,1,0,0,1,19,21.249Zm1.5-5.866a.119.119,0,0,1-.106.116l-2.782,0a.12.12,0,0,1-.112-.116V14.249a1.5,1.5,0,0,1,3,0Z"/></svg>