<svg xmlns="http://www.w3.org/2000/svg" viewBox="0 0 24 24"><title>task-list-warning</title><path d="M12,7.749H6a.75.75,0,0,0,0,1.5h6a.75.75,0,0,0,0-1.5Z"/><path d="M12.751,12a.75.75,0,0,0-.75-.75H6a.75.75,0,1,0,0,1.5h6A.75.75,0,0,0,12.751,12Z"/><path d="M6,14.749a.75.75,0,1,0,0,1.5h4a.75.75,0,0,0,0-1.5Z"/><path d="M10.59,19H3.5a.5.5,0,0,1-.5-.5V5.5A.5.5,0,0,1,3.5,5h11a.5.5,0,0,1,.5.5v5.217a.249.249,0,0,0,.417.186A2.892,2.892,0,0,1,17.7,10a.252.252,0,0,0,.3-.24V3.5A1.5,1.5,0,0,0,16.5,2h-4a.239.239,0,0,1-.207-.121,3.828,3.828,0,0,0-6.589,0A.239.239,0,0,1,5.5,2h-4A1.5,1.5,0,0,0,0,3.5v17A1.5,1.5,0,0,0,1.5,22h7.89a.24.24,0,0,0,.229-.151c.2-.48.87-1.84,1.2-2.492A.248.248,0,0,0,10.59,19Z"/><path d="M23.836,21.905,18.781,12.27a1.449,1.449,0,0,0-2.561,0L11.165,21.9a1.428,1.428,0,0,0,.047,1.409A1.456,1.456,0,0,0,12.445,24H22.556a1.457,1.457,0,0,0,1.233-.685A1.428,1.428,0,0,0,23.836,21.905ZM16.751,16a.75.75,0,1,1,1.5,0v2.75a.75.75,0,0,1-1.5,0Zm.75,6.25a1,1,0,1,1,1-1A1,1,0,0,1,17.5,22.249Z"/></svg>