<svg xmlns="http://www.w3.org/2000/svg" viewBox="0 0 24 24"><title>task-list-multiple</title><path d="M23.5,9a3,3,0,0,0-3-3h-.26a.249.249,0,0,1-.249-.231A3,3,0,0,0,17,3h-.26a.249.249,0,0,1-.249-.231A3,3,0,0,0,13.5,0H3.5a3,3,0,0,0-3,3V15a3,3,0,0,0,3,3h.26a.25.25,0,0,1,.249.231A3,3,0,0,0,7,21h.26a.251.251,0,0,1,.249.231A3,3,0,0,0,10.5,24h10a3,3,0,0,0,3-3Zm-20,7a1,1,0,0,1-1-1V3a1,1,0,0,1,1-1h10a1,1,0,0,1,.943.667A.25.25,0,0,1,14.207,3H7A3,3,0,0,0,4,6v9.75a.249.249,0,0,1-.25.25ZM7,19a1,1,0,0,1-1-1V6A1,1,0,0,1,7,5H17a1,1,0,0,1,.943.667A.25.25,0,0,1,17.707,6H10.5a3,3,0,0,0-3,3v9.75a.249.249,0,0,1-.25.25Zm14.5,2a1,1,0,0,1-1,1h-10a1,1,0,0,1-1-1V9a1,1,0,0,1,1-1h10a1,1,0,0,1,1,1Z"/><path d="M15.219,9.663a.752.752,0,0,0-1.055.118l-1.3,1.627a.248.248,0,0,1-.181.094.251.251,0,0,1-.191-.073l-.21-.21a.75.75,0,1,0-1.06,1.061l1,1a.759.759,0,0,0,1.116-.061h0l2-2.5A.751.751,0,0,0,15.219,9.663Z"/><path d="M19.25,11.5h-2a.75.75,0,0,0,0,1.5h2a.75.75,0,0,0,0-1.5Z"/><path d="M15.219,15.163a.752.752,0,0,0-1.055.118l-1.3,1.627a.248.248,0,0,1-.181.094.251.251,0,0,1-.191-.073l-.21-.21a.75.75,0,1,0-1.06,1.061l1,1a.759.759,0,0,0,1.116-.061h0l2-2.5A.751.751,0,0,0,15.219,15.163Z"/><path d="M20,17.749a.75.75,0,0,0-.75-.75h-2a.75.75,0,0,0,0,1.5h2A.75.75,0,0,0,20,17.749Z"/></svg>