<svg xmlns="http://www.w3.org/2000/svg" viewBox="0 0 24 24"><title>taxi-station</title><path d="M24,20.875a1,1,0,0,0-1-1h-.25a.25.25,0,0,1-.25-.25V17.85a.25.25,0,0,1,.125-.216,1.746,1.746,0,0,0,.875-1.509v-.75a1.945,1.945,0,0,0-.573-1.384l-.815-.814a.18.18,0,0,1-.051-.125.176.176,0,0,1,.176-.177h.513a1,1,0,0,0,0-2h-1a.842.842,0,0,0-.3.057.25.25,0,0,1-.2-.009.254.254,0,0,1-.129-.149L20.552,9A2.514,2.514,0,0,0,18.21,7.375H12.29A2.525,2.525,0,0,0,9.933,9.042l-.558,1.732a.25.25,0,0,1-.129.149.254.254,0,0,1-.2.009.841.841,0,0,0-.3-.057h-1a1,1,0,0,0,0,2h.513a.177.177,0,0,1,.125.3l-.816.815A1.944,1.944,0,0,0,7,15.375v.75a1.746,1.746,0,0,0,.875,1.509A.25.25,0,0,1,8,17.85v1.775a.25.25,0,0,1-.25.25h-2a.251.251,0,0,1-.231-.154A3.013,3.013,0,0,0,3.9,18.111a.251.251,0,0,1-.154-.231v-7a.25.25,0,0,1,.25-.25h.25A1.252,1.252,0,0,0,5.5,9.375v-6a1.252,1.252,0,0,0-1.25-1.25h-3A1.252,1.252,0,0,0,0,3.375v6a1.252,1.252,0,0,0,1.25,1.25H1.5a.25.25,0,0,1,.25.25v6.75a.25.25,0,0,1-.25.25H1a1,1,0,0,0,0,2H2.75a1,1,0,0,1,1,1,1,1,0,0,0,1,1H23A1,1,0,0,0,24,20.875ZM11.821,9.7a.5.5,0,0,1,.469-.325h5.92a.5.5,0,0,1,.453.28l.61,1.893a.252.252,0,0,1-.036.224.249.249,0,0,1-.2.1h-7.57a.249.249,0,0,1-.2-.1.251.251,0,0,1-.036-.224ZM11.75,19.875a.25.25,0,0,1-.25-.25v-1.5a.25.25,0,0,1,.25-.25h7a.25.25,0,0,1,.25.25v1.5a.25.25,0,0,1-.25.25Z"/></svg>