<svg xmlns="http://www.w3.org/2000/svg" viewBox="0 0 24 24"><title>taxi-1</title><path d="M23.25,15.808a.25.25,0,0,1-.25-.25v-1a3.751,3.751,0,0,0-3.55-3.74.249.249,0,0,1-.219-.157,6.907,6.907,0,0,0-5.718-4.053.247.247,0,0,1-.211-.16l-.487-1.279a1.254,1.254,0,0,0-1.135-.726h-1.3a1.253,1.253,0,0,0-1.2.915c-.068.244-.16.634-.244,1.006a.25.25,0,0,1-.244.195H8.5A1.989,1.989,0,0,0,6.711,7.664l-1.5,3.006a.249.249,0,0,1-.224.138H3.749A2.752,2.752,0,0,0,1,13.557v2a.249.249,0,0,1-.25.25.75.75,0,0,0,0,1.5H2.3a.25.25,0,0,0,.248-.211,2.982,2.982,0,0,1,5.9,0,.25.25,0,0,0,.248.211H13.3a.25.25,0,0,0,.248-.211,2.982,2.982,0,0,1,5.9,0,.25.25,0,0,0,.248.211H23.25a.75.75,0,0,0,0-1.5ZM4.5,13.558a.75.75,0,1,1,.75-.75A.75.75,0,0,1,4.5,13.558Zm3.056-3.112L8.431,8.7a.251.251,0,0,1,.224-.138h2.6a.25.25,0,0,1,.25.25v1.75a.25.25,0,0,1-.25.25H7.78a.25.25,0,0,1-.224-.362Zm.694,3.112a.75.75,0,1,1,.75-.75A.75.75,0,0,1,8.25,13.558Zm3.75,0a.75.75,0,1,1,.75-.75A.75.75,0,0,1,12,13.558Zm3.75,0a.75.75,0,1,1,.75-.75A.75.75,0,0,1,15.75,13.558Zm1.069-2.892a.249.249,0,0,1-.226.142H13.75a.25.25,0,0,1-.25-.25V8.9a.249.249,0,0,1,.09-.192.252.252,0,0,1,.206-.054A5.145,5.145,0,0,1,16.787,10.4.25.25,0,0,1,16.819,10.666ZM19.5,13.558a.75.75,0,1,1,.75-.75A.75.75,0,0,1,19.5,13.558Z"/><circle cx="5.5" cy="17.558" r="2"/><circle cx="16.5" cy="17.558" r="2"/></svg>