<svg xmlns="http://www.w3.org/2000/svg" viewBox="0 0 24 24"><title>taxi-van</title><path d="M23.39,10.625l-9,0a.249.249,0,0,1-.25-.25V6.625a.25.25,0,0,1,.25-.25h8.25a1,1,0,0,0,0-2H11.754A3,3,0,0,0,9.179,5.837L6.5,10.671a.248.248,0,0,1-.178.125l-4.333.723A1.506,1.506,0,0,0,.765,12.7l-.125.622a.25.25,0,0,0,.246.3h1.5a.5.5,0,1,1,0,1H.586a.251.251,0,0,0-.246.2l-.2,1A1.5,1.5,0,0,0,1.61,17.625h.54a.251.251,0,0,0,.249-.231,3,3,0,0,1,5.982,0,.25.25,0,0,0,.25.231H15.65a.251.251,0,0,0,.249-.231,3,3,0,0,1,5.982,0,.25.25,0,0,0,.25.231H23.39a.5.5,0,0,0,.5-.5v-6A.5.5,0,0,0,23.39,10.625ZM12.14,10.38a.25.25,0,0,1-.25.25H9.232a.25.25,0,0,1-.219-.371L10.9,6.849a.993.993,0,0,1,.85-.474h.136a.25.25,0,0,1,.25.25Z"/><circle cx="5.39" cy="17.625" r="2"/><circle cx="18.89" cy="17.625" r="2"/><path d="M15.39,8.375v.5a.75.75,0,0,0,1.5,0v-.5a.75.75,0,0,0-1.5,0Z"/><path d="M20.39,8.375v.5a.75.75,0,0,0,1.5,0v-.5a.75.75,0,0,0-1.5,0Z"/></svg>