<svg id="Bold" xmlns="http://www.w3.org/2000/svg" viewBox="0 0 24 24"><title>tea-cup</title><path d="M20.75,22H1.25a1,1,0,0,0,0,2h19.5a1,1,0,0,0,0-2Z"/><path d="M5.025,6.707A1,1,0,0,0,6.439,5.293a.769.769,0,0,1,0-1.086,2.773,2.773,0,0,0,0-3.914A1,1,0,0,0,5.025,1.707a.77.77,0,0,1,0,1.086A2.771,2.771,0,0,0,5.025,6.707Z"/><path d="M9.525,6.707a1,1,0,0,0,1.414-1.414.769.769,0,0,1,0-1.086,2.773,2.773,0,0,0,0-3.914A1,1,0,0,0,9.525,1.707a.77.77,0,0,1,0,1.086A2.771,2.771,0,0,0,9.525,6.707Z"/><path d="M14.025,6.707a1,1,0,0,0,1.414-1.414.769.769,0,0,1,0-1.086,2.773,2.773,0,0,0,0-3.914,1,1,0,0,0-1.415,1.414.77.77,0,0,1,0,1.086A2.771,2.771,0,0,0,14.025,6.707Z"/><path d="M18.75,8H9.25A.25.25,0,0,0,9,8.25V9.988a.251.251,0,0,0,.139.224A2,2,0,0,1,10.25,12v2.5a.5.5,0,0,1-.5.5h-3a.5.5,0,0,1-.5-.5V12a2,2,0,0,1,1.111-1.788A.252.252,0,0,0,7.5,9.988V8.25A.25.25,0,0,0,7.25,8h-4a1,1,0,0,0-1,1v3.5a8,8,0,0,0,8.532,7.983,7.773,7.773,0,0,0,5.108-2.406A.25.25,0,0,1,16.07,18h2.68a5,5,0,0,0,0-10Zm0,8h-1a.25.25,0,0,1-.228-.351,8.463,8.463,0,0,0,.725-3.423V10.5a.5.5,0,0,1,.5-.5,3,3,0,0,1,0,6Z"/></svg>