<svg id="Bold" xmlns="http://www.w3.org/2000/svg" viewBox="0 0 24 24"><title>tea-glass-herbal</title><path d="M9.749,23a2.232,2.232,0,0,1,.66-1.591L11.6,20.215a.5.5,0,0,0,.146-.354V17.5A2.253,2.253,0,0,1,14,15.25c.069,0,.138,0,.205.009a.5.5,0,0,0,.545-.5V14.5a2.238,2.238,0,0,1,1.028-1.877A.5.5,0,0,0,16,12.251L17,1.61a1.588,1.588,0,0,0-.42-1.157A1.518,1.518,0,0,0,15.5,0H1.5A1.568,1.568,0,0,0,.357.524,1.561,1.561,0,0,0,0,1.629L1.8,21.256A2.983,2.983,0,0,0,4.789,24H9.3a.5.5,0,0,0,.492-.6A2.073,2.073,0,0,1,9.749,23ZM2.792,7.5a.249.249,0,0,1-.248-.227l-.472-5a.248.248,0,0,1,.063-.191A.253.253,0,0,1,2.321,2H14.679a.249.249,0,0,1,.249.273l-.473,5a.248.248,0,0,1-.248.227Z"/><path d="M24,15a.75.75,0,0,0-.75-.75h-.836a.25.25,0,0,1-.177-.427l.293-.293a.75.75,0,0,0-1.061-1.06l-.293.293a.25.25,0,0,1-.427-.177V11.5a.75.75,0,0,0-1.5,0v2.982a.5.5,0,0,1-.146.354l-.927.927a.25.25,0,0,1-.427-.177V14.5a.75.75,0,0,0-1.5,0v2.982a.5.5,0,0,1-.146.354l-.927.927a.25.25,0,0,1-.427-.177V17.5a.75.75,0,0,0-1.5,0v2.982a.5.5,0,0,1-.146.354L11.469,22.47a.75.75,0,1,0,1.061,1.06L14.164,21.9a.5.5,0,0,1,.353-.146H17.5a.75.75,0,0,0,0-1.5H16.414a.25.25,0,0,1-.177-.427l.927-.927a.5.5,0,0,1,.353-.146H20.5a.75.75,0,0,0,0-1.5H19.414a.25.25,0,0,1-.177-.427l.927-.927a.5.5,0,0,1,.353-.146H23.25A.75.75,0,0,0,24,15Z"/></svg>