<svg id="Bold" xmlns="http://www.w3.org/2000/svg" viewBox="0 0 24 24"><title>tea-bottle-herbal</title><rect x="3.75" width="6" height="3" rx="0.5" ry="0.5"/><path d="M10.6,20.465a.5.5,0,0,0,.146-.354V17.75A2.242,2.242,0,0,1,12.386,15.6a.5.5,0,0,0,.364-.481v-.459c0-2.786-.862-5.14-3.387-6.263A.989.989,0,0,1,8.75,7.5V5a.5.5,0,0,0-.5-.5h-3a.5.5,0,0,0-.5.5V7.5a.989.989,0,0,1-.613.894C1.612,9.517.75,11.871.75,14.657V22a2,2,0,0,0,2,2H8.262a.5.5,0,0,0,.5-.55,1.9,1.9,0,0,1-.01-.2,2.235,2.235,0,0,1,.659-1.591ZM6.75,17a2.073,2.073,0,0,1-2.073-2.073c0-.81,1.037-2.2,1.644-2.949a.553.553,0,0,1,.858,0c.608.746,1.644,2.139,1.644,2.949A2.072,2.072,0,0,1,6.75,17Z"/><path d="M22.5,14.5H21.414a.25.25,0,0,1-.177-.427l.293-.293a.75.75,0,0,0-1.06-1.06l-.293.293a.25.25,0,0,1-.427-.177V11.75a.75.75,0,0,0-1.5,0v2.982a.5.5,0,0,1-.146.354l-.927.927a.25.25,0,0,1-.427-.177V14.75a.75.75,0,0,0-1.5,0v2.982a.5.5,0,0,1-.146.354l-.927.927a.25.25,0,0,1-.427-.177V17.75a.75.75,0,0,0-1.5,0v2.982a.5.5,0,0,1-.146.354L10.47,22.72a.75.75,0,1,0,1.06,1.06l1.634-1.634A.5.5,0,0,1,13.518,22H16.5a.75.75,0,0,0,0-1.5H15.414a.25.25,0,0,1-.177-.427l.927-.927A.5.5,0,0,1,16.518,19H19.5a.75.75,0,0,0,0-1.5H18.414a.25.25,0,0,1-.177-.427l.927-.927A.5.5,0,0,1,19.518,16H22.5a.75.75,0,0,0,0-1.5Z"/></svg>