<svg id="Bold" xmlns="http://www.w3.org/2000/svg" viewBox="0 0 24 24"><title>tea-box-herbal</title><path d="M1.821,8.5h9.737a.5.5,0,0,0,.369-.164L15.533,4.37A.221.221,0,0,0,15.37,4H4.63a.5.5,0,0,0-.389.187l-2.81,3.5a.5.5,0,0,0,.39.813Z"/><path d="M11.5,20V10a.5.5,0,0,0-.5-.5H.429A.429.429,0,0,0,0,9.929v9.238A1.331,1.331,0,0,0,1.326,20.5H11A.5.5,0,0,0,11.5,20ZM9,15a1,1,0,0,1-1,1H3a1,1,0,0,1-1-1V13a1,1,0,0,1,1-1H8a1,1,0,0,1,1,1Z"/><path d="M4.923,3H15.077a.426.426,0,0,0,.423-.429V2.143A2.373,2.373,0,0,0,12.961,0H7.039A2.373,2.373,0,0,0,4.5,2.143v.428A.426.426,0,0,0,4.923,3Z"/><path d="M12.5,9.387V15.1a.5.5,0,0,0,.637.481,2.252,2.252,0,0,1,.613-.085c.069,0,.137,0,.205.009a.5.5,0,0,0,.545-.5V14.75a2.253,2.253,0,0,1,2.25-2.25c.069,0,.137,0,.2.009a.5.5,0,0,0,.545-.5V11.75a2.243,2.243,0,0,1,1.976-2.228.291.291,0,0,0,.171-.5L16.732,5.4a.5.5,0,0,0-.76-.023L12.63,9.05A.5.5,0,0,0,12.5,9.387Z"/><path d="M23.25,14.5H22.164a.25.25,0,0,1-.177-.427l.293-.293a.75.75,0,0,0-1.06-1.06l-.293.293a.25.25,0,0,1-.427-.177V11.75a.75.75,0,0,0-1.5,0v2.982a.5.5,0,0,1-.146.354l-.927.927a.25.25,0,0,1-.427-.177V14.75a.75.75,0,0,0-1.5,0v2.982a.5.5,0,0,1-.146.354l-.927.927a.25.25,0,0,1-.427-.177V17.75a.75.75,0,0,0-1.5,0v2.982a.5.5,0,0,1-.146.354L11.22,22.72a.75.75,0,1,0,1.06,1.06l1.634-1.634A.5.5,0,0,1,14.268,22H17.25a.75.75,0,0,0,0-1.5H16.164a.25.25,0,0,1-.177-.427l.927-.927A.5.5,0,0,1,17.268,19H20.25a.75.75,0,0,0,0-1.5H19.164a.25.25,0,0,1-.177-.427l.927-.927A.5.5,0,0,1,20.268,16H23.25a.75.75,0,0,0,0-1.5Z"/></svg>