<svg xmlns="http://www.w3.org/2000/svg" viewBox="0 0 24 24"><title>team-approve-disapprove</title><path d="M11,1.837A1.5,1.5,0,0,0,9.5.337h-8A1.5,1.5,0,0,0,0,1.837v6a1.5,1.5,0,0,0,1.5,1.5H4.737a.255.255,0,0,1,.156.054l2.3,1.836a.5.5,0,0,0,.312.11.51.51,0,0,0,.217-.05A.5.5,0,0,0,8,10.837V9.587a.25.25,0,0,1,.25-.25H9.5a1.5,1.5,0,0,0,1.5-1.5ZM5.945,6.206a1.248,1.248,0,0,1-.911.5c-.029,0-.058,0-.089,0a1.242,1.242,0,0,1-.883-.367l-1-1a.75.75,0,0,1,1.06-1.061l.594.594a.251.251,0,0,0,.377-.027L6.683,2.724a.749.749,0,1,1,1.2.9Z"/><path d="M22.5.337h-8a1.5,1.5,0,0,0-1.5,1.5v6a1.5,1.5,0,0,0,1.5,1.5h1.25a.25.25,0,0,1,.25.25v1.25a.5.5,0,0,0,.283.45.51.51,0,0,0,.217.05.5.5,0,0,0,.312-.11l2.295-1.836a.255.255,0,0,1,.156-.054H22.5a1.5,1.5,0,0,0,1.5-1.5v-6A1.5,1.5,0,0,0,22.5.337ZM20.53,5.806a.75.75,0,1,1-1.06,1.061l-.793-.793a.25.25,0,0,0-.354,0l-.793.793a.75.75,0,0,1-1.06-1.061l.793-.793a.25.25,0,0,0,0-.353l-.793-.793a.75.75,0,0,1,1.06-1.061l.793.793a.25.25,0,0,0,.354,0l.793-.793a.75.75,0,0,1,1.06,1.061l-.793.793a.25.25,0,0,0,0,.353Z"/><path d="M7.86,21.018a.25.25,0,0,1-.022-.436,3.925,3.925,0,1,0-4.167.009.25.25,0,0,1-.02.435,4.891,4.891,0,0,0-2.213,2.279.25.25,0,0,0,.226.357h8.2a.249.249,0,0,0,.225-.357A4.894,4.894,0,0,0,7.86,21.018ZM3.9,16.709a.25.25,0,0,1,.364-.144,5.086,5.086,0,0,0,2.548.7A4.826,4.826,0,0,0,7.6,17.2a.068.068,0,0,1,.053.015.065.065,0,0,1,.023.049,1.926,1.926,0,1,1-3.77-.552Z"/><path d="M20.253,20.98a.25.25,0,0,1-.03-.435,3.925,3.925,0,1,0-4.162.084.25.25,0,0,1-.012.436,4.906,4.906,0,0,0-2.143,2.24.252.252,0,0,0,.015.241.249.249,0,0,0,.211.116h8.2a.25.25,0,0,0,.226-.357A4.881,4.881,0,0,0,20.253,20.98Zm-4.1-3.719a.065.065,0,0,1,.023-.049.068.068,0,0,1,.053-.015,4.826,4.826,0,0,0,.782.064,5.085,5.085,0,0,0,2.547-.7.249.249,0,0,1,.364.145,1.893,1.893,0,0,1,.081.551,1.925,1.925,0,1,1-3.85,0Z"/></svg>