<svg xmlns="http://www.w3.org/2000/svg" viewBox="0 0 24 24"><title>team-meeting-message-women-question</title><path d="M18.75,11.5a1.752,1.752,0,0,0,1.75-1.75v-8A1.752,1.752,0,0,0,18.75,0H5.25A1.752,1.752,0,0,0,3.5,1.748v8A1.752,1.752,0,0,0,5.25,11.5h5.5a.25.25,0,0,1,.25.25v2a.75.75,0,0,0,1.28.53l2.707-2.71a.251.251,0,0,1,.177-.073Zm-4.53-1.28-1.293,1.294a.25.25,0,0,1-.427-.177v-.587a.75.75,0,0,0-.75-.75H5.25A.25.25,0,0,1,5,9.748v-8a.25.25,0,0,1,.25-.25h13.5a.25.25,0,0,1,.25.25v8a.25.25,0,0,1-.25.25h-4A.747.747,0,0,0,14.22,10.218Z"/><path d="M12.25,2.5A2.253,2.253,0,0,0,10,4.751a.75.75,0,1,0,1.5,0,.75.75,0,1,1,.75.75.75.75,0,0,0,0,1.5,2.25,2.25,0,0,0,0-4.5Z"/><circle cx="12.25" cy="8.251" r="0.75"/><path d="M9,16.751a4,4,0,0,0-8,0,2.874,2.874,0,0,1-.7,2.288,1,1,0,1,0,1.4,1.423,3.839,3.839,0,0,0,.449-.53.251.251,0,0,1,.361-.051,3.993,3.993,0,0,0,4.976,0,.251.251,0,0,1,.361.051,3.839,3.839,0,0,0,.449.53,1,1,0,1,0,1.4-1.423A2.874,2.874,0,0,1,9,16.751Zm-4,2A2,2,0,0,1,3.035,17.12a.249.249,0,0,1,.189-.289A2.735,2.735,0,0,0,4.8,15.925a.25.25,0,0,1,.4,0,2.735,2.735,0,0,0,1.577.906.249.249,0,0,1,.189.29A2,2,0,0,1,5,18.751Z"/><path d="M5,21a4.135,4.135,0,0,0-3.692,2.266A.5.5,0,0,0,1.75,24h6.5a.5.5,0,0,0,.442-.734A4.135,4.135,0,0,0,5,21Z"/><path d="M23.7,19.039a2.874,2.874,0,0,1-.7-2.288,4,4,0,1,0-8,0,2.874,2.874,0,0,1-.7,2.288,1,1,0,1,0,1.4,1.423,3.839,3.839,0,0,0,.449-.53.251.251,0,0,1,.361-.051,3.993,3.993,0,0,0,4.976,0,.251.251,0,0,1,.361.051,3.839,3.839,0,0,0,.449.53,1,1,0,1,0,1.4-1.423ZM19,18.751a2,2,0,0,1-1.965-1.631.249.249,0,0,1,.189-.289,2.735,2.735,0,0,0,1.577-.906.25.25,0,0,1,.4,0,2.735,2.735,0,0,0,1.577.906.249.249,0,0,1,.189.29A2,2,0,0,1,19,18.751Z"/><path d="M19,21a4.135,4.135,0,0,0-3.692,2.266A.5.5,0,0,0,15.75,24h6.5a.5.5,0,0,0,.442-.734A4.135,4.135,0,0,0,19,21Z"/></svg>