<svg xmlns="http://www.w3.org/2000/svg" viewBox="0 0 24 24"><title>team-meeting-message-question</title><path d="M5,10h6.25a.25.25,0,0,1,.25.25V12.5a.5.5,0,0,0,.309.462A.493.493,0,0,0,12,13a.5.5,0,0,0,.354-.146l2.78-2.783A.25.25,0,0,1,15.311,10H19a1.5,1.5,0,0,0,1.5-1.5v-7A1.5,1.5,0,0,0,19,0H5A1.5,1.5,0,0,0,3.5,1.5v7A1.5,1.5,0,0,0,5,10Zm6.5-2.5a1,1,0,1,1,1,1A1,1,0,0,1,11.5,7.5Zm1-1.49a.625.625,0,0,1,0-1.25,1.125,1.125,0,1,0-1.125-1.125.625.625,0,0,1-1.25,0A2.375,2.375,0,1,1,12.5,6.009Z"/><path d="M23.5,22.5a.5.5,0,0,0-.324-.468l-3.352-1.257a.5.5,0,0,1-.324-.467v-.931a.479.479,0,0,1,.108-.31A5.8,5.8,0,0,0,21,15.5c0-2.445-1.324-3.978-3.455-4a3.425,3.425,0,0,0-2.907,1.69c-1.566,2.709.183,5.186.757,5.881a.473.473,0,0,1,.105.306v.931a.5.5,0,0,1-.324.467l-3.088,1.158a.243.243,0,0,1-.176,0L8.824,20.774a.5.5,0,0,1-.324-.467v-.931a.479.479,0,0,1,.108-.31A5.8,5.8,0,0,0,10,15.5c0-2.445-1.324-3.978-3.455-4a3.476,3.476,0,0,0-2.907,1.69c-1.566,2.709.183,5.186.757,5.881a.473.473,0,0,1,.105.306v.931a.5.5,0,0,1-.324.467L.824,22.031A.5.5,0,0,0,.5,22.5v1A.5.5,0,0,0,1,24H23a.5.5,0,0,0,.5-.5Z"/></svg>