<svg xmlns="http://www.w3.org/2000/svg" viewBox="0 0 24 24"><title>team-meeting-chat</title><path d="M10.652,13.746a.984.984,0,0,0,.613.214.994.994,0,0,0,.425-.1.981.981,0,0,0,.555-.884v-.773a.218.218,0,0,1,.2-.217,1.964,1.964,0,0,0,1.764-1.952V2.2A1.963,1.963,0,0,0,12.245.235H1.951A1.963,1.963,0,0,0-.01,2.2v7.842A1.963,1.963,0,0,0,1.951,12H8.382a.256.256,0,0,1,.157.055Zm-8.7-11.3A.25.25,0,0,1,2.2,2.2H12a.25.25,0,0,1,.25.25V9.788a.249.249,0,0,1-.25.25h-.73a.982.982,0,0,0-.893.574.251.251,0,0,1-.383.092l-.563-.45a.974.974,0,0,0-.612-.216H2.2a.249.249,0,0,1-.25-.25Z"/><path d="M3.912,4.892h6.372a.736.736,0,1,0,0-1.471H3.912a.736.736,0,1,0,0,1.471Z"/><path d="M7.343,6.362H3.912a.736.736,0,1,0,0,1.471H7.343a.736.736,0,0,0,0-1.471Z"/><path d="M11.5,21.509a.248.248,0,0,0-.076-.252,4.693,4.693,0,0,0-.723-.522.249.249,0,0,1-.034-.407A3.69,3.69,0,1,0,6,20.362a.25.25,0,0,1-.028.408A4.668,4.668,0,0,0,4.024,23.1a.49.49,0,0,0,.458.664h6.54a.247.247,0,0,0,.181-.078.251.251,0,0,0,.069-.186c0-.075-.007-.15-.007-.226A6.845,6.845,0,0,1,11.5,21.509ZM6.642,17.061a.248.248,0,0,1,.145-.164.25.25,0,0,1,.22.013,4.287,4.287,0,0,0,2.941.519.068.068,0,0,1,.058.016.07.07,0,0,1,.026.054,1.725,1.725,0,0,1-3.45,0A1.625,1.625,0,0,1,6.642,17.061Z"/><path d="M15.779,17.793a.251.251,0,0,1-.029.428,5.679,5.679,0,0,0-3.1,5.053.49.49,0,0,0,.49.49H23.52a.49.49,0,0,0,.49-.49,5.679,5.679,0,0,0-3.174-5.09.249.249,0,0,1-.034-.428,4.144,4.144,0,0,0,.6-.514,4.358,4.358,0,1,0-6.357-.094A4.254,4.254,0,0,0,15.779,17.793Zm3.289,3.566a.736.736,0,0,1-1.471,0V20.151a.736.736,0,0,1,1.471,0Zm-3.2-7.115a2.294,2.294,0,0,1,.13-.758.251.251,0,0,1,.372-.128,5.523,5.523,0,0,0,4.136.768.12.12,0,0,1,.144.118,2.424,2.424,0,0,1-2.392,2.391,2.358,2.358,0,0,1-.9-.179A2.391,2.391,0,0,1,15.871,14.244Z"/></svg>