<svg xmlns="http://www.w3.org/2000/svg" viewBox="0 0 24 24"><title>team-meeting-message-women-lock</title><path d="M18.75,12.016a1.752,1.752,0,0,0,1.75-1.75V1.749A1.753,1.753,0,0,0,18.75,0h-3a.75.75,0,0,0,0,1.5h3a.251.251,0,0,1,.25.25v8.517a.25.25,0,0,1-.25.25h-4a.749.749,0,0,0-.53.22L12.927,12.03a.25.25,0,0,1-.427-.177v-.587a.75.75,0,0,0-.75-.75h-7a.251.251,0,0,1-.25-.25V1.749a.251.251,0,0,1,.25-.25h3a.75.75,0,0,0,0-1.5h-3A1.753,1.753,0,0,0,3,1.749v8.517a1.753,1.753,0,0,0,1.75,1.75h6a.249.249,0,0,1,.25.25v2a.751.751,0,0,0,.463.693.761.761,0,0,0,.287.057.749.749,0,0,0,.531-.22l2.707-2.71a.249.249,0,0,1,.177-.073Z"/><path d="M8,4.769v3a1.753,1.753,0,0,0,1.75,1.75h4a1.752,1.752,0,0,0,1.75-1.75v-3a1.749,1.749,0,0,0-.875-1.515.25.25,0,0,1-.125-.216V2.769a2.75,2.75,0,0,0-5.5,0v.269a.25.25,0,0,1-.124.216A1.75,1.75,0,0,0,8,4.769Zm6,3a.25.25,0,0,1-.25.25h-4a.251.251,0,0,1-.25-.25v-3a.251.251,0,0,1,.25-.25h4a.25.25,0,0,1,.25.25Zm-3.5-5a1.25,1.25,0,1,1,2.5,0,.249.249,0,0,1-.25.25h-2A.25.25,0,0,1,10.5,2.769Z"/><circle cx="11.75" cy="6.289" r="0.75"/><path d="M4.75,21.634A4.557,4.557,0,0,0,.993,23.607.25.25,0,0,0,1.2,24H8.3a.249.249,0,0,0,.206-.391A4.556,4.556,0,0,0,4.75,21.634Z"/><path d="M8.716,17.3a3.966,3.966,0,1,0-7.932,0c0,1.663-.451,2.108-.6,2.255a1,1,0,0,0,1.4,1.423,3.4,3.4,0,0,0,.4-.472.246.246,0,0,1,.166-.1.251.251,0,0,1,.191.048,3.957,3.957,0,0,0,4.811,0,.25.25,0,0,1,.356.055,3.4,3.4,0,0,0,.4.472,1,1,0,1,0,1.4-1.423C9.167,19.407,8.716,18.962,8.716,17.3ZM4.75,19.265a1.97,1.97,0,0,1-1.933-1.6.251.251,0,0,1,.193-.29,3.017,3.017,0,0,0,.687-.23,2.33,2.33,0,0,0,.876-.715.25.25,0,0,1,.195-.106.255.255,0,0,1,.2.091,3.8,3.8,0,0,0,.833.73,2.817,2.817,0,0,0,.688.341.25.25,0,0,1,.165.3A1.968,1.968,0,0,1,4.75,19.265Z"/><path d="M19.25,21.634a4.557,4.557,0,0,0-3.757,1.973A.25.25,0,0,0,15.7,24h7.1a.249.249,0,0,0,.206-.391A4.556,4.556,0,0,0,19.25,21.634Z"/><path d="M23.815,19.554c-.148-.147-.6-.592-.6-2.255a3.966,3.966,0,1,0-7.932,0c0,1.663-.451,2.108-.6,2.255a1,1,0,0,0,1.4,1.423,3.4,3.4,0,0,0,.4-.472.246.246,0,0,1,.166-.1.251.251,0,0,1,.191.048,3.957,3.957,0,0,0,4.811,0,.25.25,0,0,1,.356.055,3.4,3.4,0,0,0,.4.472,1,1,0,1,0,1.4-1.423Zm-4.565-.289a1.97,1.97,0,0,1-1.933-1.6.251.251,0,0,1,.193-.29,3.017,3.017,0,0,0,.687-.23,2.33,2.33,0,0,0,.876-.715.25.25,0,0,1,.2-.106.255.255,0,0,1,.2.091,3.8,3.8,0,0,0,.833.73,2.817,2.817,0,0,0,.688.341.25.25,0,0,1,.165.3A1.968,1.968,0,0,1,19.25,19.265Z"/></svg>