<svg id="Bold" xmlns="http://www.w3.org/2000/svg" viewBox="0 0 24 24"><title>temperature-celsius-low-alternate</title><path d="M6.25,18.417H5a.25.25,0,0,1-.25-.25v-3.25a1.25,1.25,0,0,0-2.5,0v3.25a.25.25,0,0,1-.25.25H.75a.749.749,0,0,0-.6,1.2h0L2.9,23.286a.751.751,0,0,0,1.2,0l2.75-3.667a.75.75,0,0,0-.6-1.2Z"/><path d="M14.5.417a9.5,9.5,0,1,0,9.5,9.5A9.511,9.511,0,0,0,14.5.417Zm0,17a7.5,7.5,0,1,1,7.5-7.5A7.508,7.508,0,0,1,14.5,17.417Z"/><circle cx="10.5" cy="6.601" r="1.5"/><path d="M16.637,7.714H18a1,1,0,0,0,0-2H16.637a4.637,4.637,0,1,0,0,9.273H18a1,1,0,0,0,0-2H16.637a2.637,2.637,0,1,1,0-5.273Z"/></svg>