<svg id="Bold" xmlns="http://www.w3.org/2000/svg" viewBox="0 0 24 24"><title>temperature-celsius-low</title><path d="M6.25,18.417H5a.25.25,0,0,1-.25-.25v-3.25a1.25,1.25,0,0,0-2.5,0v3.25a.25.25,0,0,1-.25.25H.75a.749.749,0,0,0-.6,1.2h0L2.9,23.286a.751.751,0,0,0,1.2,0l2.75-3.667a.75.75,0,0,0-.6-1.2Z"/><path d="M15,.417a9,9,0,1,0,9,9A9,9,0,0,0,15,.417Zm-4,7a1.5,1.5,0,1,1,1.5-1.5A1.5,1.5,0,0,1,11,7.417Zm6,6h1.5a.75.75,0,0,1,0,1.5H17a4.75,4.75,0,0,1,0-9.5h1.5a.75.75,0,0,1,0,1.5H17a3.25,3.25,0,0,0,0,6.5Z"/></svg>