<svg id="Bold" xmlns="http://www.w3.org/2000/svg" viewBox="0 0 24 24"><title>temperature-thermometer-sunny</title><path d="M19.75,11.25a7.009,7.009,0,0,0-7-7,.251.251,0,0,0-.25.251c0,.188,0,.576,0,1.53a.215.215,0,0,0,.065.155.22.22,0,0,0,.155.064h.03a5,5,0,0,1,1.268,9.836.25.25,0,0,0-.181.292A8.056,8.056,0,0,1,14,17.837a.249.249,0,0,0,.306.239A7.013,7.013,0,0,0,19.75,11.25Z"/><path d="M23,10.25H21.5a1,1,0,0,0,0,2H23a1,1,0,0,0,0-2Z"/><path d="M18.938,6.063a1,1,0,0,0,.707-.293l1.06-1.061A1,1,0,0,0,19.291,3.3L18.23,4.355a1,1,0,0,0,.708,1.708Z"/><path d="M12.75,3.5a1,1,0,0,0,1-1V1a1,1,0,0,0-2,0v.411a.249.249,0,0,0,.028.114,6.44,6.44,0,0,1,.608,1.762.251.251,0,0,0,.207.2A1.009,1.009,0,0,0,12.75,3.5Z"/><path d="M19.645,16.73a1,1,0,0,0-1.415,1.415l1.061,1.06a1,1,0,0,0,1.414-1.414Z"/><path d="M6,24a6.006,6.006,0,0,0,6-6,5.941,5.941,0,0,0-1.44-3.9.248.248,0,0,1-.06-.162V4.5a4.5,4.5,0,0,0-9,0v9.438a.248.248,0,0,1-.06.162A5.941,5.941,0,0,0,0,18,6.006,6.006,0,0,0,6,24Zm0-2a4,4,0,0,1-2.8-6.856,1,1,0,0,0,.3-.714V4.5a2.5,2.5,0,0,1,5,0v9.93a1,1,0,0,0,.3.714A4,4,0,0,1,6,22Z"/><path d="M6.889,16.208a.25.25,0,0,1-.139-.224V6.5a.75.75,0,0,0-1.5,0v9.484a.25.25,0,0,1-.139.224,2,2,0,1,0,1.778,0Z"/></svg>