<svg id="Bold" xmlns="http://www.w3.org/2000/svg" viewBox="0 0 24 24"><title>temperature-thermometer-high</title><path d="M12.524,16.424a1,1,0,0,1-.274-.687V3a3,3,0,0,0-6,0V15.736a1,1,0,0,1-.274.688A4.455,4.455,0,0,0,4.75,19.5a4.5,4.5,0,1,0,7.774-3.076ZM9.25,21.5a2,2,0,0,1-1-3.733.5.5,0,0,0,.25-.433V3A.75.75,0,0,1,10,3V17.335a.5.5,0,0,0,.25.433,2,2,0,0,1-1,3.732Z"/><path d="M18.25,4h-3.5a1,1,0,0,1,0-2h3.5a1,1,0,0,1,0,2Z"/><path d="M15.75,8.5h-1a1,1,0,0,1,0-2h1a1,1,0,0,1,0,2Z"/><path d="M16.75,12a1,1,0,0,1-1,1h-1a1,1,0,0,1,0-2h1A1,1,0,0,1,16.75,12Z"/></svg>