<svg id="Bold" xmlns="http://www.w3.org/2000/svg" viewBox="0 0 24 24"><title>tennis-forehand</title><circle cx="12.182" cy="2.745" r="2.5"/><circle cx="21.183" cy="6.245" r="2.5"/><path d="M17.317,10.385l-7.5-3.5A1.5,1.5,0,0,0,7.9,7.473l-3,5a1.516,1.516,0,0,0-.214.777v4.133a1.5,1.5,0,0,1-.464,1.085L.951,21.02a1.5,1.5,0,0,0-.359,2.091,1.517,1.517,0,0,0,2.091.358s3.423-2.665,3.462-2.7a4.5,4.5,0,0,0,1.537-3.387V16.055a.25.25,0,0,1,.118-.212.246.246,0,0,1,.242-.012l3.846,1.89a1.5,1.5,0,0,1,.794,1.324v3.2a1.5,1.5,0,0,0,3,0v-3.2a4.51,4.51,0,0,0-2.426-3.993l-4.7-2.314a.25.25,0,0,1-.13-.153.254.254,0,0,1,.026-.2l1.21-2.016a.25.25,0,0,1,.32-.1l6.07,2.833a1.5,1.5,0,1,0,1.27-2.719Z"/></svg>