<svg id="Bold" xmlns="http://www.w3.org/2000/svg" viewBox="0 0 24 24"><title>tennis-racquet-ball</title><path d="M4.444,7.157A3.186,3.186,0,1,0,1.259,3.972,3.188,3.188,0,0,0,4.444,7.157Z"/><path d="M22,2.005C19.072-.919,14-.6,10.682,2.711a8.63,8.63,0,0,0-2.354,8.6,1,1,0,0,1,.035.468c-.16.97-.356,1.858-.531,2.566a1.989,1.989,0,0,1-.527.932L5.586,17a.5.5,0,0,1-.513.121,1.75,1.75,0,0,0-1.8.42L.516,20.3a1.75,1.75,0,0,0,0,2.476l.707.707a1.75,1.75,0,0,0,2.474,0l2.762-2.762a1.753,1.753,0,0,0,.421-1.8A.5.5,0,0,1,7,18.414L8.718,16.7a2,2,0,0,1,.932-.526c.7-.175,1.587-.37,2.551-.53a.994.994,0,0,1,.472.036,8.608,8.608,0,0,0,8.616-2.359C24.6,10,24.919,4.928,22,2.005ZM17.827,4.462l1.5-1.5a.5.5,0,0,1,.642-.056A4.693,4.693,0,0,1,21.1,4.034a.5.5,0,0,1-.057.642l-1.5,1.5a.5.5,0,0,1-.707,0l-1-1A.5.5,0,0,1,17.827,4.462Zm-.09,3.3a.5.5,0,0,1-.147.353l-1.309,1.3a.5.5,0,0,1-.706,0l-.991-.991a.5.5,0,0,1,0-.706l1.3-1.309a.5.5,0,0,1,.707,0l1,1A.5.5,0,0,1,17.737,7.76ZM15.219,2.381a.249.249,0,0,1,.178-.176A6.224,6.224,0,0,1,17.215,2a.25.25,0,0,1,.167.426l-.791.8a.5.5,0,0,1-.708,0l-.6-.6A.251.251,0,0,1,15.219,2.381ZM11.537,4.749a7.686,7.686,0,0,1,1.425-1.37.5.5,0,0,1,.65.048L14.65,4.465a.5.5,0,0,1,0,.707l-1.3,1.308a.5.5,0,0,1-.354.147.5.5,0,0,1-.354-.146L11.574,5.415A.5.5,0,0,1,11.537,4.749ZM10.133,9.5a.253.253,0,0,1-.16-.222,6.332,6.332,0,0,1,.3-2.174.251.251,0,0,1,.179-.168A.248.248,0,0,1,10.684,7l.723.723a.5.5,0,0,1,0,.706L10.4,9.441A.252.252,0,0,1,10.133,9.5Zm4.2,1.859-1.709,1.7a.5.5,0,0,1-.643.054,4.712,4.712,0,0,1-1.091-1.092.5.5,0,0,1,.053-.643l1.7-1.709a.5.5,0,0,1,.707,0l.982.982a.5.5,0,0,1,.146.354A.5.5,0,0,1,14.332,11.357Zm2.736,2.2a.253.253,0,0,1-.168.179,6.347,6.347,0,0,1-2.176.294.25.25,0,0,1-.165-.427l1.012-1.008a.5.5,0,0,1,.706,0l.724.725A.252.252,0,0,1,17.068,13.554Zm3.553-2.518a7.748,7.748,0,0,1-1.37,1.427.5.5,0,0,1-.666-.037l-1.066-1.065a.5.5,0,0,1,0-.708l1.309-1.3a.5.5,0,0,1,.706,0l1.037,1.036A.5.5,0,0,1,20.621,11.036Zm1-2.255a.249.249,0,0,1-.242-.065l-.6-.6a.5.5,0,0,1,0-.708l.8-.791A.25.25,0,0,1,22,6.785,6.277,6.277,0,0,1,21.8,8.6.249.249,0,0,1,21.618,8.781Z"/></svg>