<svg id="Bold" xmlns="http://www.w3.org/2000/svg" viewBox="0 0 24 24"><title>ticket-concert</title><path d="M9.638,20.619a2.249,2.249,0,0,1,0-3.181l7.111-7.111a1,1,0,0,0,.293-.707V5a1.5,1.5,0,0,0-3,0V8a1,1,0,0,1-1,1h-4.5a1,1,0,0,1-1-1V2.5a1.5,1.5,0,0,0-3,0V9.764a.5.5,0,0,1-.86.347L2.665,9.06A1.55,1.55,0,0,0,.292,11.043l5.449,7.068a1,1,0,0,0,.457.331.5.5,0,0,1,.333.475L6.5,23.5A.5.5,0,0,0,7,24h5.413a.25.25,0,0,0,.177-.427Z"/><path d="M23.78,14.941l-1.06-1.06a.75.75,0,0,0-1.061,0A.75.75,0,1,1,20.6,12.82a.75.75,0,0,0,0-1.06L19.538,10.7a.75.75,0,0,0-1.061,0L10.7,18.478a.748.748,0,0,0,0,1.06L11.76,20.6a.75.75,0,0,0,1.061,0,.769.769,0,0,1,1.06,0,.751.751,0,0,1,0,1.06.75.75,0,0,0,0,1.061l1.06,1.06a.75.75,0,0,0,1.061,0l4.556-4.556,0,0,.005-.006L23.78,16A.75.75,0,0,0,23.78,14.941Zm-5.161,4.1-2.534,2.533a.249.249,0,0,1-.426-.184,2.458,2.458,0,0,0-2.572-2.572A.249.249,0,0,1,12.9,18.4l2.533-2.534a.5.5,0,0,1,.707,0l2.476,2.475A.5.5,0,0,1,18.619,19.044Zm2.952-2.955-1.186,1.186a.5.5,0,0,1-.707,0L17.2,14.8a.5.5,0,0,1,0-.707l1.185-1.185a.25.25,0,0,1,.427.186,2.469,2.469,0,0,0,2.568,2.568.25.25,0,0,1,.187.427Z"/><path d="M20.135,6.826A1.75,1.75,0,0,0,21.8,5l-.133-2.825a.251.251,0,0,1,.379-.226l.817.491a.75.75,0,1,0,.771-1.286L22.018.179a1.25,1.25,0,0,0-1.892,1.13l.083,1.759a.251.251,0,0,1-.238.262,1.75,1.75,0,1,0,.164,3.5Z"/></svg>