<svg xmlns="http://www.w3.org/2000/svg" viewBox="0 0 24 24"><title>ticket-add</title><circle cx="15.34" cy="3.34" r="0.99"/><circle cx="15.34" cy="6.062" r="0.99"/><circle cx="15.34" cy="8.784" r="0.99"/><path d="M9.6,15.464H2.227a.248.248,0,0,1-.248-.248v-1.9a.248.248,0,0,1,.183-.239,4.454,4.454,0,0,0,0-8.593.248.248,0,0,1-.183-.239v-1.9A.248.248,0,0,1,2.227,2.1h19.3a.247.247,0,0,1,.247.248v1.9a.247.247,0,0,1-.182.239,4.442,4.442,0,0,0-3.241,4.89.248.248,0,0,0,.214.212,7.793,7.793,0,0,1,1.569.367.247.247,0,0,0,.312-.321,2.411,2.411,0,0,1-.156-.851,2.476,2.476,0,0,1,2.164-2.455,1.487,1.487,0,0,0,1.3-1.473V2.1A1.982,1.982,0,0,0,21.773.124H1.979A1.982,1.982,0,0,0,0,2.1V4.856A1.487,1.487,0,0,0,1.3,6.329a2.474,2.474,0,0,1,0,4.909A1.487,1.487,0,0,0,0,12.711v2.753a1.982,1.982,0,0,0,1.979,1.979H9.406a.247.247,0,0,0,.247-.239,7.923,7.923,0,0,1,.185-1.439.247.247,0,0,0-.242-.3Z"/><path d="M17.567,11.01A6.433,6.433,0,1,0,24,17.443,6.441,6.441,0,0,0,17.567,11.01Zm2.474,7.176H18.557a.247.247,0,0,0-.248.247v1.485a.742.742,0,0,1-1.484,0V18.433a.247.247,0,0,0-.248-.247H15.093a.743.743,0,0,1,0-1.485h1.484a.248.248,0,0,0,.248-.247V14.969a.742.742,0,1,1,1.484,0v1.485a.248.248,0,0,0,.248.247h1.484a.743.743,0,1,1,0,1.485Z"/></svg>