<svg xmlns="http://www.w3.org/2000/svg" viewBox="0 0 24 24"><title>ticket-clock</title><circle cx="15.5" cy="3.875" r="1"/><circle cx="15.5" cy="6.625" r="1"/><path d="M15.5,8.375A1.056,1.056,0,0,0,14.569,9a.25.25,0,0,0,.316.321A8.093,8.093,0,0,1,16,9.025a.25.25,0,0,0,.107-.442A.98.98,0,0,0,15.5,8.375Z"/><path d="M22,.625H2a2,2,0,0,0-2,2V5.406A1.5,1.5,0,0,0,1.313,6.9a2.5,2.5,0,0,1,0,4.96A1.5,1.5,0,0,0,0,13.344v2.781a2,2,0,0,0,2,2H9.319a.25.25,0,0,0,.248-.282,7.553,7.553,0,0,1-.067-.968c0-.163.006-.324.017-.484a.25.25,0,0,0-.25-.266H2.25a.25.25,0,0,1-.25-.25V13.958a.249.249,0,0,1,.184-.241,4.5,4.5,0,0,0,0-8.684A.249.249,0,0,1,2,4.792V2.875a.25.25,0,0,1,.25-.25h19.5a.25.25,0,0,1,.25.25V4.792a.249.249,0,0,1-.184.241A4.5,4.5,0,0,0,18.568,8.7a.25.25,0,0,0,.207.285,7.9,7.9,0,0,1,1.41.359.254.254,0,0,0,.218-.025.251.251,0,0,0,.114-.188A2.489,2.489,0,0,1,22.687,6.9,1.5,1.5,0,0,0,24,5.406V2.625A2,2,0,0,0,22,.625Z"/><path d="M17.5,10.375a6.5,6.5,0,1,0,6.5,6.5A6.508,6.508,0,0,0,17.5,10.375Zm0,11a4.5,4.5,0,1,1,4.5-4.5A4.505,4.505,0,0,1,17.5,21.375Z"/><path d="M19.5,15.875h-.75a.25.25,0,0,1-.25-.25V14.486a1,1,0,0,0-2,0v2.389a1,1,0,0,0,1,1h2a1,1,0,0,0,0-2Z"/></svg>