<svg xmlns="http://www.w3.org/2000/svg" viewBox="0 0 24 24"><title>ticket-remove</title><circle cx="15.5" cy="3.625" r="1"/><circle cx="15.5" cy="6.375" r="1"/><path d="M14.6,9.527a.249.249,0,0,0,.313.123,8,8,0,0,1,1.485-.4.127.127,0,0,0,.106-.125,1,1,0,0,0-2,0A.916.916,0,0,0,14.6,9.527Z"/><path d="M22,.375H2a2,2,0,0,0-2,2V5.156A1.5,1.5,0,0,0,1.313,6.645a2.5,2.5,0,0,1,0,4.96A1.5,1.5,0,0,0,0,13.094v2.781a2,2,0,0,0,2,2H9.267a.251.251,0,0,0,.25-.266c-.011-.16-.017-.321-.017-.484a7.553,7.553,0,0,1,.067-.968.25.25,0,0,0-.248-.282H2.25a.25.25,0,0,1-.25-.25V13.708a.249.249,0,0,1,.184-.241,4.5,4.5,0,0,0,0-8.684A.249.249,0,0,1,2,4.542V2.625a.25.25,0,0,1,.25-.25h19.5a.25.25,0,0,1,.25.25V4.542a.249.249,0,0,1-.186.241,4.466,4.466,0,0,0-3.3,4.138.25.25,0,0,0,.218.267,7.826,7.826,0,0,1,1.447.323.25.25,0,0,0,.326-.254c0-.044,0-.088,0-.132a2.5,2.5,0,0,1,2.187-2.48A1.5,1.5,0,0,0,24,5.156V2.375A2,2,0,0,0,22,.375Z"/><path d="M17.5,10.625a6.5,6.5,0,1,0,6.5,6.5A6.508,6.508,0,0,0,17.5,10.625Zm2.5,7.25H15a.75.75,0,0,1,0-1.5h5a.75.75,0,0,1,0,1.5Z"/></svg>