<svg id="Bold" xmlns="http://www.w3.org/2000/svg" viewBox="0 0 24 24"><title>ticket-movie</title><path d="M23,9a1,1,0,0,0,1-1V5.5A2.5,2.5,0,0,0,21.5,3H2.5A2.5,2.5,0,0,0,0,5.5V8A1,1,0,0,0,1,9a3,3,0,0,1,0,6,1,1,0,0,0-1,1v2.5A2.5,2.5,0,0,0,2.5,21h19A2.5,2.5,0,0,0,24,18.5V16a1,1,0,0,0-1-1,3,3,0,0,1,0-6ZM12,5a1,1,0,1,1-1,1A1,1,0,0,1,12,5ZM6,19a1,1,0,1,1,1-1A1,1,0,0,1,6,19ZM6,7A1,1,0,1,1,7,6,1,1,0,0,1,6,7Zm6,12a1,1,0,1,1,1-1A1,1,0,0,1,12,19Zm3.21-7.435-1.349,1.09a.249.249,0,0,0-.077.282l.656,1.749a.5.5,0,0,1-.758.583l-1.542-1.1a.249.249,0,0,0-.29,0l-1.541,1.1a.5.5,0,0,1-.759-.582l.656-1.749a.249.249,0,0,0-.077-.282L8.78,11.565a.5.5,0,0,1,.314-.889h1.441a.25.25,0,0,0,.23-.153l.773-1.832a.5.5,0,0,1,.922,0l.765,1.831a.25.25,0,0,0,.231.153H14.9a.5.5,0,0,1,.314.889ZM18,19a1,1,0,1,1,1-1A1,1,0,0,1,18,19ZM18,7a1,1,0,1,1,1-1A1,1,0,0,1,18,7Z"/></svg>