<svg xmlns="http://www.w3.org/2000/svg" viewBox="0 0 24 24"><title>ticket-day-1-alternate</title><path d="M22.687,9.52A1.5,1.5,0,0,0,24,8.031V4a2,2,0,0,0-2-2H2A2,2,0,0,0,0,4V8.031A1.5,1.5,0,0,0,1.313,9.52,2.307,2.307,0,0,1,3.25,12a2.307,2.307,0,0,1-1.937,2.48A1.5,1.5,0,0,0,0,15.969V20a2,2,0,0,0,2,2H22a2,2,0,0,0,2-2V15.969a1.5,1.5,0,0,0-1.313-1.489A2.307,2.307,0,0,1,20.75,12,2.307,2.307,0,0,1,22.687,9.52Zm-1.033,6.771a.5.5,0,0,1,.346.475V19.5a.5.5,0,0,1-.5.5H2.5a.5.5,0,0,1-.5-.5V16.766a.5.5,0,0,1,.346-.475A4.344,4.344,0,0,0,5.25,12a4.344,4.344,0,0,0-2.9-4.291A.5.5,0,0,1,2,7.234V4.5A.5.5,0,0,1,2.5,4h19a.5.5,0,0,1,.5.5V7.234a.5.5,0,0,1-.346.475A4.344,4.344,0,0,0,18.75,12,4.344,4.344,0,0,0,21.654,16.291Z"/><path d="M13,9.25h-.25V6.5A1.252,1.252,0,0,0,11.5,5.25H11a.75.75,0,0,0,0,1.5h.25v2.5H11a.75.75,0,0,0,0,1.5h2a.75.75,0,0,0,0-1.5Z"/><path d="M12,11.75a1.752,1.752,0,0,0-1.75,1.75v4a.75.75,0,0,0,1.5,0V16.25h.5V17.5a.75.75,0,0,0,1.5,0v-4A1.752,1.752,0,0,0,12,11.75Zm-.25,3V13.5c0-.275.5-.275.5,0v1.25Z"/><path d="M17.5,11.75a.75.75,0,0,0-.75.75V14c0,.275-.5.275-.5,0V12.5a.75.75,0,0,0-1.5,0V14a1.748,1.748,0,0,0,1,1.574V17.5a.75.75,0,0,0,1.5,0V15.574a1.748,1.748,0,0,0,1-1.574V12.5A.75.75,0,0,0,17.5,11.75Z"/><path d="M6.5,11.75a.75.75,0,0,0-.75.75v5a.75.75,0,0,0,.75.75A2.752,2.752,0,0,0,9.25,15.5v-1A2.752,2.752,0,0,0,6.5,11.75ZM7.75,15.5a1.246,1.246,0,0,1-.5,1v-3a1.246,1.246,0,0,1,.5,1Z"/></svg>