<svg xmlns="http://www.w3.org/2000/svg" viewBox="0 0 24 24"><title>ticket</title><path d="M23.2,10.53a1,1,0,0,0,.8-.98V5.5A1.5,1.5,0,0,0,22.5,4H1.5A1.5,1.5,0,0,0,0,5.5V9.55a1,1,0,0,0,.8.98,1.5,1.5,0,0,1,0,2.94,1,1,0,0,0-.8.98V18.5A1.5,1.5,0,0,0,1.5,20h21A1.5,1.5,0,0,0,24,18.5V14.45a1,1,0,0,0-.8-.98,1.5,1.5,0,0,1,0-2.94ZM5.25,18.25A.75.75,0,1,1,6,17.5.75.75,0,0,1,5.25,18.25Zm0-3.667a.75.75,0,1,1,.75-.75A.75.75,0,0,1,5.25,14.583Zm0-3.666a.75.75,0,1,1,.75-.75A.75.75,0,0,1,5.25,10.917Zm0-3.667A.75.75,0,1,1,6,6.5.75.75,0,0,1,5.25,7.25Zm11.75,9a1.75,1.75,0,1,1,1.75-1.75A1.751,1.751,0,0,1,17,16.25Zm1.5-7.5h-9a.75.75,0,0,1,0-1.5h9a.75.75,0,0,1,0,1.5Z"/></svg>