<svg xmlns="http://www.w3.org/2000/svg" viewBox="0 0 24 24"><title>ticket-day-30</title><path d="M11.75,13.5v1.25h.5V13.5C12.25,13.225,11.75,13.225,11.75,13.5Z"/><path d="M6.75,13.5v3a1.246,1.246,0,0,0,.5-1v-1A1.246,1.246,0,0,0,6.75,13.5Z"/><path d="M14.217,9V7a.25.25,0,1,0-.5,0V9C13.717,9.275,14.217,9.275,14.217,9Z"/><path d="M23.125,9.023A1,1,0,0,0,24,8.031V4a1.5,1.5,0,0,0-1.5-1.5H1.5A1.5,1.5,0,0,0,0,4V8.031a1,1,0,0,0,.875.992,3,3,0,0,1,0,5.954A1,1,0,0,0,0,15.969V20a1.5,1.5,0,0,0,1.5,1.5h21A1.5,1.5,0,0,0,24,20V15.969a1,1,0,0,0-.875-.992,3,3,0,0,1,0-5.954ZM15.25,14V12.5a.75.75,0,0,1,1.5,0V14c0,.275.5.275.5,0V12.5a.75.75,0,0,1,1.5,0V14a1.748,1.748,0,0,1-1,1.574V17.5a.75.75,0,0,1-1.5,0V15.574A1.748,1.748,0,0,1,15.25,14Zm-3.5,2.25V17.5a.75.75,0,0,1-1.5,0v-4a1.75,1.75,0,0,1,3.5,0v4a.75.75,0,0,1-1.5,0V16.25ZM8.25,10A.75.75,0,0,1,9,9.25h.967a.25.25,0,0,0,0-.5.75.75,0,1,1,0-1.5.25.25,0,0,0,0-.5H9a.75.75,0,0,1,0-1.5h.967A1.752,1.752,0,0,1,11.717,7,1.734,1.734,0,0,1,11.4,8a1.734,1.734,0,0,1,.315,1,1.752,1.752,0,0,1-1.75,1.75H9A.75.75,0,0,1,8.25,10Zm.5,4.5v1A2.752,2.752,0,0,1,6,18.25a.75.75,0,0,1-.75-.75v-5A.75.75,0,0,1,6,11.75,2.752,2.752,0,0,1,8.75,14.5ZM12.217,9V7a1.75,1.75,0,1,1,3.5,0V9a1.75,1.75,0,0,1-3.5,0Z"/></svg>