<svg id="Bold" xmlns="http://www.w3.org/2000/svg" viewBox="0 0 24 24"><title>tiger-head</title><path d="M23.508,5.284l-1.39-.837a3.757,3.757,0,0,0-.089-1.915,3.445,3.445,0,0,0-2.6-2.305,3.349,3.349,0,0,0-2.639.341,3.62,3.62,0,0,0-1.37,1.674A35.406,35.406,0,0,0,1.035,9.454,2.813,2.813,0,0,0,.184,12.6l3,8.136a1.967,1.967,0,0,0,1.4,1.235c1.32.319,2.13-.741,2.674-1.164a10.171,10.171,0,0,0,3.477,2.972,1,1,0,0,0,1.447-1.07c-.252-1.344-.456-2.871-.614-4.264,3.352-1.213,4.816.32,4.869.378a1,1,0,0,0,1.4.126,6.425,6.425,0,0,0,.571-.558A11.834,11.834,0,0,1,22.05,23.22a1,1,0,0,0,1.942-.335V6.141A1,1,0,0,0,23.508,5.284ZM17.241,16.638a.25.25,0,0,1-.331.077,6.7,6.7,0,0,0-5.27-.391.249.249,0,0,1-.317-.218c-.045-.49-.08-.914-.107-1.248a.249.249,0,0,1,.206-.265,1.066,1.066,0,0,1,.57.011,1,1,0,0,0,2,0,2.076,2.076,0,0,0-.768-1.567,2.782,2.782,0,0,0-2.463-.349A26.4,26.4,0,0,0,3.91,16.061a.25.25,0,0,1-.367-.125l-.822-2.227a.251.251,0,0,1,.091-.291,50.717,50.717,0,0,1,9.007-5.177c2.425-.956,5.56-1.783,6.721-.294a3.234,3.234,0,0,1,.572,1.8.25.25,0,0,1-.272.265l-2.26-.2a1,1,0,0,0-.175,1.993l2.241.2a.249.249,0,0,1,.179.1.246.246,0,0,1,.044.2c-.094.447-.208.888-.332,1.308a.251.251,0,0,1-.349.155l-1.261-.61a1,1,0,0,0-.87,1.8l1.461.706a.249.249,0,0,1,.109.347C17.51,16.223,17.355,16.468,17.241,16.638ZM9.729,19.971a.25.25,0,0,1-.435.2,8.98,8.98,0,0,1-1.931-3.622.249.249,0,0,1,.119-.283q.8-.448,1.44-.755a.249.249,0,0,1,.357.2C9.372,16.8,9.521,18.354,9.729,19.971Zm-4.461-2.4a.249.249,0,0,1,.216-.023.254.254,0,0,1,.152.155,11.477,11.477,0,0,0,.484,1.2.251.251,0,0,1-.074.3c-.25.194-.489.39-.714.589a.249.249,0,0,1-.4-.1l-.5-1.367a.249.249,0,0,1,.1-.3C4.743,17.9,4.992,17.744,5.268,17.574Z"/><circle cx="12.242" cy="10.551" r="1.25"/></svg>