<svg xmlns="http://www.w3.org/2000/svg" viewBox="0 0 24 24"><title>toilet-sign</title><path d="M5.581,9.5A4.75,4.75,0,1,0,.831,4.75,4.756,4.756,0,0,0,5.581,9.5ZM7.649,4.931a.5.5,0,0,1,.551.645A2.748,2.748,0,0,1,2.831,4.75c0-.071,0-.14.009-.209a.5.5,0,0,1,.75-.39A6.241,6.241,0,0,0,6.748,5,5.993,5.993,0,0,0,7.649,4.931Z"/><path d="M5.581,10.238a5,5,0,0,0-5,5v3a.5.5,0,0,0,.5.5H2.627a.5.5,0,0,1,.5.452l.418,4.352a.5.5,0,0,0,.5.458h3.08a.5.5,0,0,0,.5-.458l.419-4.352a.5.5,0,0,1,.5-.452h1.546a.5.5,0,0,0,.5-.5v-3A5,5,0,0,0,5.581,10.238Z"/><path d="M18.081,9.5a4.75,4.75,0,1,0-4.75-4.75A4.756,4.756,0,0,0,18.081,9.5Zm2.75-4.75a2.75,2.75,0,0,1-5.5,0c0-.021.006-.041.006-.062a4.606,4.606,0,0,0,2.41-1.1.5.5,0,0,1,.669,0,4.6,4.6,0,0,0,2.409,1.1C20.825,4.709,20.831,4.729,20.831,4.75Z"/><path d="M23.4,18.6,21.845,13.14a3.891,3.891,0,0,0-7.527,0L12.763,18.6a.5.5,0,0,0,.48.636h1.928a.5.5,0,0,1,.491.4L16.5,23.6a.5.5,0,0,0,.49.4h2.18a.5.5,0,0,0,.49-.4l.84-3.958a.5.5,0,0,1,.49-.4h1.928A.5.5,0,0,0,23.4,18.6Z"/></svg>