<svg xmlns="http://www.w3.org/2000/svg" viewBox="0 0 24 24"><title>toilet-sign-1</title><path d="M23.4,18.613l-1.555-5.462a3.875,3.875,0,0,0-.875-1.611.5.5,0,0,0-.787.058L18.5,14.126a.5.5,0,0,1-.832,0L15.98,11.6a.5.5,0,0,0-.38-.221.5.5,0,0,0-.407.163,3.852,3.852,0,0,0-.875,1.611l-1.555,5.462a.5.5,0,0,0,.48.637h1.928a.5.5,0,0,1,.49.4L16.5,23.6a.5.5,0,0,0,.49.4h2.18a.5.5,0,0,0,.49-.4l.84-3.946a.5.5,0,0,1,.49-.4h1.928a.5.5,0,0,0,.481-.637Z"/><path d="M5.581,10.25a5,5,0,0,0-5,5v3a.5.5,0,0,0,.5.5H2.627a.5.5,0,0,1,.5.452l.418,4.34a.5.5,0,0,0,.5.458h3.08a.5.5,0,0,0,.5-.458l.419-4.34a.5.5,0,0,1,.5-.452h1.546a.5.5,0,0,0,.5-.5v-3A5,5,0,0,0,5.581,10.25Zm.947,4.724-.5,1a.5.5,0,0,1-.894,0l-.5-1a.5.5,0,0,1-.046-.306l.5-3a.5.5,0,0,1,.986,0l.5,3A.5.5,0,0,1,6.528,14.974Z"/><path d="M5.581,9.5A4.75,4.75,0,1,0,.831,4.75,4.756,4.756,0,0,0,5.581,9.5ZM2.84,4.541a.5.5,0,0,1,.75-.39A6.241,6.241,0,0,0,6.748,5a5.993,5.993,0,0,0,.9-.069.5.5,0,0,1,.552.645,2.748,2.748,0,0,1-5.37-.826C2.831,4.68,2.834,4.61,2.84,4.541Z"/><path d="M18.081,9.5a4.75,4.75,0,1,0-4.75-4.75A4.756,4.756,0,0,0,18.081,9.5ZM15.332,4.738a.061.061,0,0,1,.052-.056A4.6,4.6,0,0,0,17.746,3.59a.5.5,0,0,1,.669,0,4.59,4.59,0,0,0,2.363,1.092.065.065,0,0,1,.053.056V4.75a2.75,2.75,0,0,1-5.5,0Z"/></svg>