<svg xmlns="http://www.w3.org/2000/svg" viewBox="0 0 24 24"><title>toilet-paper</title><path d="M19.729.5c-2.243,0-4,2.855-4,6.5s1.757,6.5,4,6.5,4-2.855,4-6.5S21.972.5,19.729.5Zm0,8.5c-.553,0-1-.895-1-2s.447-2,1-2,1,.9,1,2S20.282,9,19.729,9Z"/><path d="M17.291.219A.114.114,0,0,0,17.245,0H7.229c-1.93,0-3.5,2.691-3.5,6V18.5a.5.5,0,0,0,.5.5H8.26a1.991,1.991,0,0,1,1.984,1.742,1.994,1.994,0,0,0,1.539,1.7A3.5,3.5,0,0,0,14.729,19V6C14.729,3.248,15.815.924,17.291.219ZM7.77,11.75H6.27a.75.75,0,0,1,0-1.5h1.5a.75.75,0,0,1,0,1.5Zm4.5,0h-1.5a.75.75,0,0,1,0-1.5h1.5a.75.75,0,0,1,0,1.5Z"/><path d="M11.007,23.78A3.5,3.5,0,0,1,8.76,20.968a.524.524,0,0,0-.5-.468H.771a.5.5,0,0,0-.493.583A3.5,3.5,0,0,0,3.729,24h7.243A.113.113,0,0,0,11.007,23.78Z"/></svg>