<svg xmlns="http://www.w3.org/2000/svg" viewBox="0 0 24 24"><title>toilet-paper-1</title><path d="M22.741,12.121a.5.5,0,0,1,0-.449l1.15-2.286a1,1,0,0,0-.031-.958L22.8,6.633a.5.5,0,0,1,0-.511l.739-1.232a1,1,0,0,0-.857-1.515H18a.5.5,0,0,0-.5.5v16a.5.5,0,0,0,.5.5h4.686a1,1,0,0,0,.857-1.515l-.735-1.226a.5.5,0,0,1,0-.516l1.045-1.727a1,1,0,0,0,.039-.965Z"/><path d="M8,7.625c4.678,0,7.821-1.939,7.821-3.75S12.678.125,8,.125.179,2.064.179,3.875,3.321,7.625,8,7.625Zm0-5.25c1.933,0,3.5.672,3.5,1.5s-1.567,1.5-3.5,1.5S4.5,4.7,4.5,3.875,6.067,2.375,8,2.375Z"/><path d="M15.732,7.2a.5.5,0,0,0-.515.03A13.011,13.011,0,0,1,8,9.125a13.008,13.008,0,0,1-7.217-1.9A.5.5,0,0,0,0,7.637V19.875c0,2.243,3.514,4,8,4s8-1.757,8-4V7.637A.5.5,0,0,0,15.732,7.2Z"/></svg>