<svg id="Bold" xmlns="http://www.w3.org/2000/svg" viewBox="0 0 24 24"><title>tools-pickaxe</title><path d="M20.048,5.719a1,1,0,0,0,0-1.415L19.7,3.951a1,1,0,0,0-1.414,0l-.122.122a.5.5,0,0,1-.671.032A17.4,17.4,0,0,0,7.013.126,1.009,1.009,0,0,0,6,.888.989.989,0,0,0,6.54,2.024,32.528,32.528,0,0,1,13.122,6.21a.5.5,0,0,1,.037.741l-.183.183a1,1,0,0,0,0,1.413l2.474,2.475a1,1,0,0,0,1.414,0l.183-.182a.5.5,0,0,1,.741.036,32.55,32.55,0,0,1,4.186,6.583.99.99,0,0,0,.9.572A1.051,1.051,0,0,0,23.112,18a1,1,0,0,0,.762-1.016,17.414,17.414,0,0,0-3.98-10.475.5.5,0,0,1,.032-.671Z"/><path d="M12.8,10.137a.75.75,0,0,0-1.06,0L.491,21.387a1.252,1.252,0,0,0,0,1.768l.353.354a1.251,1.251,0,0,0,1.768,0l11.249-11.25a.752.752,0,0,0,0-1.061Z"/></svg>