<svg id="Bold" xmlns="http://www.w3.org/2000/svg" viewBox="0 0 24 24"><title>tools-wheel-unscrew</title><path d="M9.732,21.983a.248.248,0,0,0-.117-.163A.767.767,0,0,1,9.47,21.7l-2.43-2.44a3.1,3.1,0,0,0-3.7-.424.249.249,0,0,1-.3-.037l-.558-.559a1.019,1.019,0,0,0-.83-.28,1,1,0,0,0-.73.481A3,3,0,0,0,3.5,22.973a3.051,3.051,0,0,0,1.53-.419,1.028,1.028,0,0,0,.48-.741.985.985,0,0,0-.29-.829.25.25,0,0,1,.336-.368.86.86,0,0,1,.064.058l2.44,2.44a2.976,2.976,0,0,0,2.12.879c.1,0,.192,0,.288-.013a.25.25,0,0,0,.146-.433A2.957,2.957,0,0,1,9.732,21.983Z"/><path d="M23.207,1.709a.994.994,0,0,0,0-1.41,1.007,1.007,0,0,0-1.419,0L20.2,1.858a.058.058,0,0,1-.076.006.977.977,0,0,0-1.41,0l-2.73,2.73A1,1,0,0,0,15.98,6a.058.058,0,0,1-.006.076l-.3.305a3.006,3.006,0,0,0,0,4.25l2.44,2.44a.841.841,0,0,1,.122.151.257.257,0,0,0,.158.111,3,3,0,0,1,1.48.8c.03.027.058.056.086.085a.25.25,0,0,0,.43-.149c.009-.1.014-.2.014-.3a2.969,2.969,0,0,0-.88-2.12L17.08,9.213a1,1,0,0,1,0-1.409l.207-.207a.248.248,0,0,1,.309-.035.946.946,0,0,0,.5.151.988.988,0,0,0,.71-.3l2.73-2.73a.983.983,0,0,0,.29-.7,1,1,0,0,0-.147-.513.25.25,0,0,1,.039-.307Z"/><path d="M16.338,14.836l-5.1,5.1a2,2,0,0,0,2.829,2.828l5.1-5.1a2,2,0,0,0,0-2.829A2.047,2.047,0,0,0,16.338,14.836Z"/></svg>