<svg id="Bold" xmlns="http://www.w3.org/2000/svg" viewBox="0 0 24 24"><title>tools-wench-1</title><path d="M23.215,3.889a.507.507,0,0,0-.81-.128L18.328,7.838a.506.506,0,0,0,0,.717l3.214,3.214a.507.507,0,0,0,.358.149h.019a.505.505,0,0,0,.366-.176A7.065,7.065,0,0,0,23.215,3.889Z"/><path d="M16.16,8.54a.5.5,0,0,1-.143-.409l.266-2.4a.5.5,0,0,1,.143-.3L20.254,1.61A.507.507,0,0,0,20.126.8a7.1,7.1,0,0,0-9.847,8.9.5.5,0,0,1-.112.536L.746,19.655A2.533,2.533,0,1,0,4.324,23.24l9.407-9.409a.5.5,0,0,1,.539-.112,7.111,7.111,0,0,0,5.856-.275.506.506,0,0,0,.128-.81Z"/></svg>