<svg id="Bold" xmlns="http://www.w3.org/2000/svg" viewBox="0 0 24 24"><title>tools-wench-2</title><path d="M23.46,7.855a.5.5,0,0,0-.415-.779H21.351a.5.5,0,0,1-.343-.136l-1.591-1.5a.5.5,0,0,1,0-.728l1.591-1.5a.5.5,0,0,1,.343-.136h1.694A.5.5,0,0,0,23.46,2.3a5.053,5.053,0,0,0-.622-.757,5,5,0,0,0-8.427,4.578.5.5,0,0,1-.135.459l-9.21,9.21a.5.5,0,0,1-.382.145A4,4,0,1,0,8.446,19.7a.5.5,0,0,1,.146-.381l9.219-9.218a.5.5,0,0,1,.458-.136,4.972,4.972,0,0,0,4.569-1.358A5.045,5.045,0,0,0,23.46,7.855ZM5.514,20.985a1.5,1.5,0,1,1,0-2.121A1.5,1.5,0,0,1,5.514,20.985Z"/></svg>