<svg id="Bold" xmlns="http://www.w3.org/2000/svg" viewBox="0 0 24 24"><title>tools-wood-saw</title><path d="M24,4.576a2.569,2.569,0,0,0-.758-1.83l-.923-.923a5.466,5.466,0,0,0-7.72,0L4.057,12.366a.5.5,0,0,0-.075.61l1.107,1.846a.5.5,0,0,0,.782.1L16.783,4.006a2.374,2.374,0,0,1,3.353,0l.816.817a.249.249,0,0,1-.141.424l-.936.134a1,1,0,0,0-.848.849L18.79,7.885a.25.25,0,0,1-.212.212l-1.656.237a1,1,0,0,0-.848.848l-.237,1.656a.249.249,0,0,1-.212.212l-1.655.236a1,1,0,0,0-.849.849l-.236,1.655a.25.25,0,0,1-.212.212l-1.656.237a1,1,0,0,0-.848.848l-.237,1.656a.25.25,0,0,1-.212.212l-1.656.236a1,1,0,0,0-.848.849l-.025.175a.248.248,0,0,0,.033.164L8.75,20.922a.042.042,0,0,0,.044.02.041.041,0,0,0,.032-.035l.237-1.656a.249.249,0,0,1,.212-.212l1.462-.209a1.266,1.266,0,0,0,1.07-1.069h0l.209-1.462a.25.25,0,0,1,.212-.212l1.461-.209a1.269,1.269,0,0,0,1.071-1.069l.208-1.462a.25.25,0,0,1,.213-.212l1.46-.209a1.268,1.268,0,0,0,1.071-1.07l.209-1.462a.249.249,0,0,1,.212-.212L19.6,9.972a1.265,1.265,0,0,0,1.07-1.07l.209-1.462a.249.249,0,0,1,.212-.212l1.656-.237a.984.984,0,0,0,.84-.947.259.259,0,0,1,.037-.121A2.564,2.564,0,0,0,24,4.576Z"/><path d="M7.371,22.276a.5.5,0,0,0,.075-.611L3.017,14.284a.493.493,0,0,0-.367-.239.509.509,0,0,0-.415.142L.759,15.664A2.584,2.584,0,0,0,.37,18.825l2.214,3.691a2.587,2.587,0,0,0,4.049.5Z"/></svg>