<svg id="Bold" xmlns="http://www.w3.org/2000/svg" viewBox="0 0 24 24"><title>tools-palette-spatula</title><path d="M6.849,15.384a1.03,1.03,0,0,0-1.415,0L.659,20.159a2.25,2.25,0,0,0,3.182,3.182l4.776-4.776a1,1,0,0,0,0-1.413Z"/><path d="M23.976,3.968A5.185,5.185,0,0,0,20.033.023a1,1,0,0,0-.922.27L17.162,2.242a.5.5,0,0,0,.142.807l5.3,2.475a.5.5,0,0,0,.565-.1l.535-.535h0A.994.994,0,0,0,23.976,3.968Z"/><path d="M21.148,6.5l-5.3-2.475a.5.5,0,0,0-.565.1L13.62,5.784a.5.5,0,0,0,.142.807l5.3,2.475a.5.5,0,0,0,.565-.1l1.661-1.66a.5.5,0,0,0-.143-.807Z"/><path d="M14.077,13.57,8.775,11.1a.5.5,0,0,0-.565.1l-.226.226a1.5,1.5,0,0,0,0,2.121.5.5,0,0,1,0,.706l-.075.075a.5.5,0,0,0,0,.707L8.97,16.091a.5.5,0,0,0,.707,0l.074-.075a.5.5,0,0,1,.707,0,1.5,1.5,0,0,0,2.122,0l1.639-1.639a.5.5,0,0,0-.142-.807Z"/><path d="M17.607,10.041,12.3,7.566a.5.5,0,0,0-.565.1L10.091,9.314a.5.5,0,0,0,.142.807l5.3,2.474a.5.5,0,0,0,.565-.1l1.648-1.648a.5.5,0,0,0-.142-.807Z"/></svg>