<svg id="Bold" xmlns="http://www.w3.org/2000/svg" viewBox="0 0 24 24"><title>tools-pliers</title><path d="M22.98,2.937a.5.5,0,0,0-.784-.1L20,5.035a.5.5,0,0,0-.141.428,1.571,1.571,0,1,1-1.352-1.325A.5.5,0,0,0,18.924,4l2.209-2.208a.5.5,0,0,0-.1-.786,5.413,5.413,0,0,0-8.137,4.45.5.5,0,0,0,.353.5,7.243,7.243,0,0,1,4.779,4.8.5.5,0,0,0,.5.355,5.411,5.411,0,0,0,4.456-8.17Z"/><path d="M15.007,17.12A5.772,5.772,0,1,0,6.813,9L.419,15.458a.524.524,0,0,0,.186.859c3.171,1.2,8.917-7.886,11.933-4.9S6.516,20.236,7.751,23.4a.525.525,0,0,0,.861.178Z"/></svg>