<svg xmlns="http://www.w3.org/2000/svg" viewBox="0 0 24 24"><title>toys-castle</title><path d="M22,20H2a2,2,0,0,0-2,2v1.5a.5.5,0,0,0,.5.5h23a.5.5,0,0,0,.5-.5V22A2,2,0,0,0,22,20Z"/><path d="M1.5,6H7A1.5,1.5,0,0,0,8.5,4.5v-3A1.5,1.5,0,0,0,7,0H6.25A1.251,1.251,0,0,0,5,1.25a.251.251,0,0,1-.25.25h-1a.251.251,0,0,1-.25-.25A1.251,1.251,0,0,0,2.25,0H1.5A1.5,1.5,0,0,0,0,1.5v3A1.5,1.5,0,0,0,1.5,6Z"/><path d="M14,19h1.5a.5.5,0,0,0,.5-.5V10a.5.5,0,0,0-.5-.5h-7A.5.5,0,0,0,8,10v8.5a.5.5,0,0,0,.5.5H10a.5.5,0,0,0,.5-.5V15a1.5,1.5,0,0,1,3,0v3.5A.5.5,0,0,0,14,19Z"/><path d="M2,7a.5.5,0,0,0-.5.5v11A.5.5,0,0,0,2,19H6.5a.5.5,0,0,0,.5-.5V7.5A.5.5,0,0,0,6.5,7Zm2.3,5.5a1,1,0,1,1,1-1A1,1,0,0,1,4.3,12.5Z"/><path d="M22.5,0h-.75A1.251,1.251,0,0,0,20.5,1.25a.251.251,0,0,1-.25.25h-1A.251.251,0,0,1,19,1.25,1.251,1.251,0,0,0,17.75,0H17a1.5,1.5,0,0,0-1.5,1.5v3A1.5,1.5,0,0,0,17,6h5.5A1.5,1.5,0,0,0,24,4.5v-3A1.5,1.5,0,0,0,22.5,0Z"/><path d="M22,19a.5.5,0,0,0,.5-.5V7.5A.5.5,0,0,0,22,7H17.5a.5.5,0,0,0-.5.5v11a.5.5,0,0,0,.5.5Zm-2.3-8.5a1,1,0,1,1-1,1A1,1,0,0,1,19.7,10.5Z"/></svg>