<svg xmlns="http://www.w3.org/2000/svg" viewBox="0 0 24 24"><title>toys-building</title><path d="M15,11V8a2,2,0,0,0-2-2h-.5a.5.5,0,0,1-.5-.5V3a2,2,0,0,0-2-2H2A2,2,0,0,0,0,3V6A2,2,0,0,0,2,8h.5a.5.5,0,0,1,.5.5v2a.5.5,0,0,1-.5.5H2a2,2,0,0,0-2,2v3a1.987,1.987,0,0,0,.114.666.992.992,0,0,1,0,.669A1.981,1.981,0,0,0,0,18v3a2,2,0,0,0,2,2h8a2,2,0,0,0,2-2V18a1.981,1.981,0,0,0-.114-.665,1,1,0,0,1,0-.669A1.987,1.987,0,0,0,12,16V13h1A2,2,0,0,0,15,11ZM2.5,6A.5.5,0,0,1,2,5.5v-2A.5.5,0,0,1,2.5,3h7a.5.5,0,0,1,.5.5v2a.5.5,0,0,1-.5.5ZM10,20.5a.5.5,0,0,1-.5.5h-7a.5.5,0,0,1-.5-.5v-2a.5.5,0,0,1,.5-.5h7a.5.5,0,0,1,.5.5Zm0-5a.5.5,0,0,1-.5.5h-7a.5.5,0,0,1-.5-.5v-2a.5.5,0,0,1,.5-.5h7a.5.5,0,0,1,.5.5ZM12.5,11h-7a.5.5,0,0,1-.5-.5v-2A.5.5,0,0,1,5.5,8h7a.5.5,0,0,1,.5.5v2A.5.5,0,0,1,12.5,11Z"/><path d="M23.913,6.635a1.439,1.439,0,1,0-2.706-.981L17.534,15.786a.5.5,0,0,1-.641.3l-1.811-.656a.832.832,0,0,0-1.067.5l-.977,2.694a1,1,0,0,0,.6,1.281l6.955,2.521a1,1,0,0,0,1.281-.6l.976-2.694a.833.833,0,0,0-.5-1.068l-1.811-.656a.5.5,0,0,1-.3-.641Z"/></svg>