<svg xmlns="http://www.w3.org/2000/svg" viewBox="0 0 24 24"><title>toys-propeller-hat</title><path d="M0,3A2.752,2.752,0,0,0,2.75,5.75H8.79a.5.5,0,0,1,.351.144A1.171,1.171,0,0,0,10,6.25h.5a.5.5,0,0,1,.5.5V9.344a.5.5,0,0,1-.439.5,12.153,12.153,0,0,0-9.932,8.17.5.5,0,0,0,.409.657A85.94,85.94,0,0,0,12,19.25a85.94,85.94,0,0,0,10.962-.584.5.5,0,0,0,.408-.657,12.153,12.153,0,0,0-9.931-8.17.5.5,0,0,1-.439-.5V6.75a.5.5,0,0,1,.5-.5H14a1.241,1.241,0,0,0,.513-.11.5.5,0,0,1,.508.058C16.672,7.447,19.378,9.25,21.25,9.25a2.75,2.75,0,0,0,0-5.5h-6.2a.5.5,0,0,1-.4-.194,3.346,3.346,0,0,0-5.073-.27.5.5,0,0,1-.668.048C7.308,2.081,4.639.25,2.75.25A2.752,2.752,0,0,0,0,3Z"/><path d="M23.944,20.56a.5.5,0,0,0-.563-.438A86.083,86.083,0,0,1,12,20.75,86.083,86.083,0,0,1,.619,20.122a.5.5,0,0,0-.564.438c-.02.178-.037.358-.05.539a1.753,1.753,0,0,0,1.364,1.839A52.66,52.66,0,0,0,12,23.75a52.66,52.66,0,0,0,10.631-.812A1.753,1.753,0,0,0,24,21.1C23.982,20.918,23.965,20.739,23.944,20.56Z"/></svg>