<svg xmlns="http://www.w3.org/2000/svg" viewBox="0 0 24 24"><title>toys-ball</title><path d="M12,0A12,12,0,1,0,24,12,12.013,12.013,0,0,0,12,0Zm8.18,6.255a.25.25,0,0,1-.249.39A3.3,3.3,0,0,1,18.2,5.791a3.3,3.3,0,0,1-.85-1.722.25.25,0,0,1,.39-.249A10.074,10.074,0,0,1,20.18,6.255ZM5.582,18.983a.5.5,0,0,1-.566-.566C6.2,10.205,11.176,7.2,15.625,6.2a.5.5,0,0,1,.53.217,4.734,4.734,0,0,0,1.43,1.43.5.5,0,0,1,.217.53C16.8,12.824,13.793,17.8,5.582,18.983ZM2,12A10,10,0,0,1,14.968,2.45a.5.5,0,0,1,.35.517,5.826,5.826,0,0,0-.006.825.5.5,0,0,1-.381.517A14.906,14.906,0,0,0,3.584,15.457a.5.5,0,0,1-.951.045A9.948,9.948,0,0,1,2,12Zm20,0A10,10,0,0,1,8.5,21.367a.5.5,0,0,1,.045-.951A14.9,14.9,0,0,0,19.691,9.069a.5.5,0,0,1,.517-.381,5.688,5.688,0,0,0,.825-.006.5.5,0,0,1,.517.35A9.971,9.971,0,0,1,22,12Z"/></svg>