<svg xmlns="http://www.w3.org/2000/svg" viewBox="0 0 24 24"><title>toys-beach-ball</title><path d="M12,0A12,12,0,1,0,24,12,12.013,12.013,0,0,0,12,0ZM3.145,14.9a.5.5,0,0,1-.79-.261,10.005,10.005,0,0,1,.381-6.408.5.5,0,0,1,.487-.31,58.026,58.026,0,0,1,5.962.532A.5.5,0,0,1,9.6,8.9a4.284,4.284,0,0,0,.246,1.064.5.5,0,0,1-.236.616A46.235,46.235,0,0,0,3.145,14.9ZM11.58,8.47a2.31,2.31,0,1,1,2.31,2.31A2.312,2.312,0,0,1,11.58,8.47Zm2.369,13.339a.5.5,0,0,1-.57-.651,31.675,31.675,0,0,0,1.391-8.1.5.5,0,0,1,.356-.455,4.361,4.361,0,0,0,.487-.179.5.5,0,0,1,.571.123,23.325,23.325,0,0,1,3.7,5.168.5.5,0,0,1-.064.52A10.015,10.015,0,0,1,13.949,21.809Zm4.34-14.96a.5.5,0,0,1-.528-.274,4.324,4.324,0,0,0-2.932-2.311.5.5,0,0,1-.384-.407,10.2,10.2,0,0,0-.283-1.236.247.247,0,0,1,.059-.244.25.25,0,0,1,.242-.07,10.028,10.028,0,0,1,5.72,3.951A.25.25,0,0,1,20,6.651C19.369,6.692,18.781,6.769,18.289,6.849Z"/></svg>