<svg xmlns="http://www.w3.org/2000/svg" viewBox="0 0 24 24"><title>toys-caterpillar</title><path d="M20.431,17a1,1,0,0,1-.765-.333,4.244,4.244,0,0,0-2.168-1.3,1,1,0,0,1-.6-.415,4.971,4.971,0,0,0-2.324-1.86,1,1,0,0,1-.548-.518,4.987,4.987,0,0,0-.259-.5,1,1,0,0,1-.123-.685,6.5,6.5,0,0,0-1.543-5.46.5.5,0,0,1,0-.669.4.4,0,0,1,.5-.075A2.25,2.25,0,1,0,11.52,2.958a.5.5,0,0,1-.2.336,4.745,4.745,0,0,0-.885.852.5.5,0,0,1-.591.145,6.515,6.515,0,0,0-4.213-.338.5.5,0,0,1-.521-.18,5.151,5.151,0,0,0-.521-.583.5.5,0,0,1-.143-.467A2.25,2.25,0,1,0,2.25,4.5a2.272,2.272,0,0,0,.455-.046.5.5,0,0,1,.437.119.432.432,0,0,1-.016.656,6.5,6.5,0,0,0,.682,10.533,1,1,0,0,1,.425.554,5.207,5.207,0,0,0,3.6,3.494,1,1,0,0,1,.6.458,5.028,5.028,0,0,0,4.84,2.455,1,1,0,0,1,.7.191,4.247,4.247,0,0,0,3.99.577,1,1,0,0,1,.834.067A3.5,3.5,0,1,0,20.431,17ZM7.25,14.75a4.5,4.5,0,1,1,4.5-4.5A4.505,4.505,0,0,1,7.25,14.75Zm5.5,6a3.006,3.006,0,0,1-1.816-.617.246.246,0,0,1-.095-.237A.25.25,0,0,1,11,19.7a5.271,5.271,0,0,0,3.409-3.983.251.251,0,0,1,.169-.192.248.248,0,0,1,.249.057A3,3,0,0,1,12.75,20.75ZM20.378,22a.25.25,0,0,1-.2-.374,4.227,4.227,0,0,0,.566-2.259.25.25,0,0,1,.35-.238A1.5,1.5,0,0,1,20.378,22Z"/><circle cx="5.5" cy="9" r="1"/><circle cx="9" cy="9" r="1"/><path d="M8.945,11.317a.75.75,0,0,0-.919.528.818.818,0,0,1-.776.364.82.82,0,0,1-.776-.365.75.75,0,0,0-1.448.394A2.217,2.217,0,0,0,7.25,13.709a2.214,2.214,0,0,0,2.224-1.473A.749.749,0,0,0,8.945,11.317Z"/></svg>