<svg xmlns="http://www.w3.org/2000/svg" viewBox="0 0 24 24"><title>traffic-light</title><path d="M23,0H7.25a1,1,0,0,0-1,1v.75a.5.5,0,0,1-.5.5A3.254,3.254,0,0,0,2.5,5.5V21a.5.5,0,0,1-.5.5H1.25a1.25,1.25,0,0,0,0,2.5h5a1.25,1.25,0,0,0,0-2.5H5.5A.5.5,0,0,1,5,21V5.5a.75.75,0,0,1,.75-.75.5.5,0,0,1,.5.5V7a1,1,0,0,0,1,1H23a1,1,0,0,0,1-1V1A1,1,0,0,0,23,0ZM10,5.5A1.5,1.5,0,1,1,11.5,4,1.5,1.5,0,0,1,10,5.5Zm5,0A1.5,1.5,0,1,1,16.5,4,1.5,1.5,0,0,1,15,5.5Zm5,0A1.5,1.5,0,1,1,21.5,4,1.5,1.5,0,0,1,20,5.5Z"/></svg>