<svg xmlns="http://www.w3.org/2000/svg" viewBox="0 0 24 24"><title>transform-inside</title><path d="M14.5,2H16a1,1,0,0,0,0-2H14.5a1,1,0,0,0,0,2Z"/><path d="M4,1H1A1,1,0,0,0,1,3H4A17.019,17.019,0,0,1,21,20v3a1,1,0,0,0,2,0V20A19.021,19.021,0,0,0,4,1Z"/><path d="M12.116,10.116,5.9,16.336a.25.25,0,0,1-.354,0l-1.689-1.69A.5.5,0,0,0,3,15v5.5a.5.5,0,0,0,.5.5H9a.5.5,0,0,0,.354-.854l-1.69-1.689a.25.25,0,0,1,0-.354l6.22-6.219a1.25,1.25,0,0,0-1.768-1.768Z"/><path d="M23,7a1,1,0,0,0-1,1V9.5a1,1,0,0,0,2,0V8A1,1,0,0,0,23,7Z"/><path d="M22,0H20.5a1,1,0,0,0,0,2h1.25a.25.25,0,0,1,.25.25V3.5a1,1,0,0,0,2,0V2A2,2,0,0,0,22,0Z"/></svg>