<svg xmlns="http://www.w3.org/2000/svg" viewBox="0 0 24 24"><title>transform-shrink</title><path d="M22.01,1.632a.25.25,0,0,1,0-.355l.071-.07A.5.5,0,0,0,21.8.358L19.321.005a.5.5,0,0,0-.566.566l.353,2.475a.5.5,0,0,0,.849.282l.285-.285a.25.25,0,0,1,.348-.005A5.872,5.872,0,0,1,22,7a1,1,0,0,0,2,0A7.84,7.84,0,0,0,22.01,1.632Z"/><path d="M6.4,20.253a.5.5,0,0,0-.87.211l-.089.392a.25.25,0,0,1-.293.189,5.9,5.9,0,0,1-3.3-2.607A1,1,0,0,0,.153,19.5,7.835,7.835,0,0,0,4.69,22.99a.247.247,0,0,1,.157.11.25.25,0,0,1,.033.19l-.022.1a.5.5,0,0,0,.69.569l2.285-1.015a.5.5,0,0,0,.178-.78Z"/><path d="M23,10a1,1,0,0,0-1-1H20.173a.25.25,0,0,1-.248-.22,10,10,0,1,0-3.769,9.1.25.25,0,0,1,.331.02l2.087,2.087a1,1,0,0,0,1.414-1.414l-7.147-7.147A.25.25,0,0,1,13.018,11H22A1,1,0,0,0,23,10ZM10,9a1,1,0,0,0-.707,1.707l5.41,5.409a.251.251,0,0,1-.031.38A8,8,0,1,1,17.9,8.709.251.251,0,0,1,17.649,9Z"/></svg>