<svg xmlns="http://www.w3.org/2000/svg" viewBox="0 0 24 24"><title>transportation-ticket-boat-transfer</title><path d="M1.681,8.322a.213.213,0,0,0,.362.138,2,2,0,0,1,2.828,0,.815.815,0,0,0,.6.308.815.815,0,0,0,.6-.308,2,2,0,0,1,2.828,0,.736.736,0,0,0,1.2,0,2,2,0,0,1,2.829,0,.836.836,0,0,0,.447.263.249.249,0,0,0,.265-.11l.091-.143h0a1.2,1.2,0,0,0-1.009-1.844H8.772a.25.25,0,0,1-.25-.25V.769A.75.75,0,0,0,7.208.275l-3.5,4a.75.75,0,0,0,.564,1.244h2.5a.25.25,0,0,1,.25.25v.606a.25.25,0,0,1-.25.25H3.324a1.654,1.654,0,0,0-1.643,1.68v.016Z"/><path d="M7.346,10.949a.252.252,0,0,1,.274,0,3.374,3.374,0,0,0,3.756,0,.249.249,0,0,1,.271,0,4.387,4.387,0,0,0,2.547.574.75.75,0,0,0,0-1.5,2.561,2.561,0,0,1-2.154-.675.75.75,0,0,0-1.061,0,1.974,1.974,0,0,1-2.966,0,.749.749,0,0,0-1.06,0,1.974,1.974,0,0,1-2.966,0,.749.749,0,0,0-1.06,0,2.563,2.563,0,0,1-2.155.675.75.75,0,0,0,0,1.5,4.385,4.385,0,0,0,2.547-.574.251.251,0,0,1,.272,0,3.372,3.372,0,0,0,3.755,0Z"/><path d="M17.556,18.835v-5.6a.75.75,0,0,0-1.315-.494l-3.5,4a.75.75,0,0,0,.565,1.244h2.5a.25.25,0,0,1,.25.25v.605a.25.25,0,0,1-.25.25H12.358a1.655,1.655,0,0,0-1.643,1.681v.018a.211.211,0,0,0,.36.137,2,2,0,0,1,1.414-.586h0a2,2,0,0,1,1.415.587.735.735,0,0,0,1.2,0,2.059,2.059,0,0,1,2.829,0,.735.735,0,0,0,1.2,0,2,2,0,0,1,1.415-.586h0a2,2,0,0,1,1.415.587.831.831,0,0,0,.445.262.25.25,0,0,0,.265-.11l.091-.143h0a1.2,1.2,0,0,0-1.006-1.845H17.806A.25.25,0,0,1,17.556,18.835Z"/><path d="M23.228,22.48a2.558,2.558,0,0,1-2.154-.676.752.752,0,0,0-1.061,0,1.972,1.972,0,0,1-2.966,0,.772.772,0,0,0-1.061,0,1.97,1.97,0,0,1-2.965,0,.752.752,0,0,0-1.061,0,2.559,2.559,0,0,1-2.154.676.75.75,0,0,0,0,1.5,4.387,4.387,0,0,0,2.547-.574.249.249,0,0,1,.271,0,3.374,3.374,0,0,0,3.756,0,.248.248,0,0,1,.274,0,3.374,3.374,0,0,0,3.756,0,.249.249,0,0,1,.271,0,4.385,4.385,0,0,0,2.547.574.75.75,0,0,0,0-1.5Z"/><path d="M11.026,19.257a1,1,0,0,0,.167-1.986A4.975,4.975,0,0,1,8.537,15.9a.124.124,0,0,1,.04-.2.75.75,0,0,0,0-1.386L6.622,13.49a.754.754,0,0,0-.981.4l-.816,1.958a.75.75,0,0,0,.692,1.039.742.742,0,0,0,.285-.056l.487-.2a.248.248,0,0,1,.29.075,7,7,0,0,0,4.278,2.533A.974.974,0,0,0,11.026,19.257Z"/><path d="M15.259,8.514a4.777,4.777,0,0,1,.537.537.254.254,0,0,1,.054.215.247.247,0,0,1-.138.174l-.024.012-.135.063a.751.751,0,0,0,.065,1.385l.543.2,1.454.524a.748.748,0,0,0,.573-.028.745.745,0,0,0,.386-.424l.718-2a.75.75,0,0,0-1.025-.933l-.253.119a.25.25,0,0,1-.31-.082,6.734,6.734,0,0,0-1.158-1.292,1,1,0,1,0-1.287,1.531Z"/></svg>