<svg id="Bold" xmlns="http://www.w3.org/2000/svg" viewBox="0 0 24 24"><title>transfusion-water</title><path d="M12.75,9.75A2.75,2.75,0,0,0,10,7H8.5A.5.5,0,0,1,8,6.5V6.257a.5.5,0,0,1,.321-.466A2.994,2.994,0,0,0,10.25,3V2.5a.5.5,0,0,1,.5-.5h6.5a3,3,0,0,1,3,3V23a1,1,0,0,0,2,0V5a5,5,0,0,0-5-5h-7a2,2,0,0,0-2,2V3a1,1,0,0,1-2,0V2a1,1,0,0,0-2,0V3A2.994,2.994,0,0,0,6.179,5.791a.5.5,0,0,1,.321.466V6.5A.5.5,0,0,1,6,7H4.5A2.75,2.75,0,0,0,1.75,9.75V19a2.5,2.5,0,0,0,2.5,2.5H6a.25.25,0,0,1,.25.25V23a1,1,0,0,0,2,0V21.745a.25.25,0,0,1,.25-.25h1.75a2.5,2.5,0,0,0,2.5-2.5Zm-2,.469v.75a.5.5,0,0,1-.5.5h-6a.5.5,0,0,1-.5-.5v-.75A1.25,1.25,0,0,1,5,8.969H9.5A1.25,1.25,0,0,1,10.75,10.219Z"/></svg>