<svg xmlns="http://www.w3.org/2000/svg" viewBox="0 0 24 24"><title>transportation-ticket-boat-bus-transfer</title><path d="M14.221,10a2.561,2.561,0,0,1-2.154-.675.749.749,0,0,0-1.06,0,1.974,1.974,0,0,1-2.966,0,.75.75,0,0,0-1.061,0,1.974,1.974,0,0,1-2.966,0,.749.749,0,0,0-1.06,0A2.561,2.561,0,0,1,.8,10a.75.75,0,0,0,0,1.5,4.389,4.389,0,0,0,2.547-.574.249.249,0,0,1,.271,0,3.374,3.374,0,0,0,3.756,0,.246.246,0,0,1,.273,0,3.374,3.374,0,0,0,3.756,0,.249.249,0,0,1,.271,0,4.389,4.389,0,0,0,2.547.574.75.75,0,0,0,0-1.5Z"/><path d="M15.887,10.393c.037.029.108.092.183.16a.253.253,0,0,1,.082.2.25.25,0,0,1-.106.189.682.682,0,0,0-.306.6.778.778,0,0,0,.463.693l1.96.812a.749.749,0,0,0,.98-.4l.812-1.96a.75.75,0,0,0-.979-.981l-.528.219a.249.249,0,0,1-.288-.072A6.925,6.925,0,0,0,17.122,8.82a1,1,0,0,0-1.4.168,1.046,1.046,0,0,0,.169,1.405Z"/><path d="M13.127,19.316a4.985,4.985,0,0,1-4.936-3.078.123.123,0,0,1,.011-.11.119.119,0,0,1,.1-.052.75.75,0,0,0,.53-1.28l-1.5-1.5a.75.75,0,0,0-1.061,0l-1.5,1.5a.75.75,0,0,0,.531,1.28h.547a.249.249,0,0,1,.24.182A6.948,6.948,0,0,0,12.8,21.326c.152,0,.3,0,.458-.014a1,1,0,1,0-.126-2Z"/><path d="M22.2,13.252h-5A1.753,1.753,0,0,0,15.45,15v6a1.743,1.743,0,0,0,.875,1.508.252.252,0,0,1,.125.217v.52a.75.75,0,0,0,1.5,0V23a.25.25,0,0,1,.25-.25h3a.25.25,0,0,1,.25.25v.245a.75.75,0,0,0,1.5,0v-.52a.251.251,0,0,1,.125-.216A1.746,1.746,0,0,0,23.95,21V15A1.752,1.752,0,0,0,22.2,13.252Zm-4.5,7.5a.75.75,0,1,1,.75-.75A.75.75,0,0,1,17.7,20.748Zm4,0a.75.75,0,1,1,.75-.75A.75.75,0,0,1,21.7,20.748Zm.75-3a.249.249,0,0,1-.25.25h-5a.25.25,0,0,1-.25-.25V15a.247.247,0,0,1,.25-.25h5a.246.246,0,0,1,.25.25Z"/><path d="M1.709,8.305a.212.212,0,0,0,.361.138,2,2,0,0,1,2.828,0,.817.817,0,0,0,.6.308.815.815,0,0,0,.6-.308,2,2,0,0,1,2.829,0,.736.736,0,0,0,1.2,0,2,2,0,0,1,2.828,0,.836.836,0,0,0,.447.263.249.249,0,0,0,.265-.11l.091-.143h0a1.2,1.2,0,0,0-1.008-1.844H8.8a.249.249,0,0,1-.25-.25V.752A.751.751,0,0,0,7.235.258l-3.5,4A.75.75,0,0,0,4.3,5.5H6.8a.25.25,0,0,1,.25.25v.606a.25.25,0,0,1-.25.25H3.352a1.654,1.654,0,0,0-1.644,1.68V8.3Z"/></svg>