<svg xmlns="http://www.w3.org/2000/svg" viewBox="0 0 24 24"><title>transportation-ticket-car-transfer-1</title><path d="M13.749,7.6A4.98,4.98,0,0,1,16.4,9.79a.253.253,0,0,1,.022.2,6.447,6.447,0,0,1-.925.152.738.738,0,0,0-.383.392.749.749,0,0,0,.163.817l2.289,1.5a.748.748,0,0,0,1.06,0l1.5-1.5a.75.75,0,0,0-.53-1.28h-.706a.249.249,0,0,1-.235-.164,6.979,6.979,0,0,0-4.25-4.2A1,1,0,0,0,13.749,7.6Z"/><path d="M10.63,17.1a4.977,4.977,0,0,1-3.143-2.861.121.121,0,0,1,.011-.115.125.125,0,0,1,.1-.054.75.75,0,0,0,.53-1.28l-1.5-1.5a.749.749,0,0,0-1.06,0l-1.5,1.5a.75.75,0,0,0,.53,1.28h.547a.25.25,0,0,1,.24.181,6.97,6.97,0,0,0,4.658,4.762A1,1,0,0,0,10.63,17.1Z"/><path d="M23.815,19.2a.722.722,0,0,0-.1-.154l-.7-.81a.254.254,0,0,1-.058-.133l-.328-2.644A1.744,1.744,0,0,0,20.9,14H15.6a1.751,1.751,0,0,0-1.73,1.494l-.324,2.613a.247.247,0,0,1-.058.132l-.7.811a.722.722,0,0,0-.1.154,1.753,1.753,0,0,0-.185.782V20.5a1.746,1.746,0,0,0,.875,1.509.25.25,0,0,1,.125.216V23.25a.75.75,0,0,0,1.5,0V22.5a.25.25,0,0,1,.25-.25h6a.25.25,0,0,1,.25.25v.75a.75.75,0,0,0,1.5,0V22.225a.25.25,0,0,1,.125-.216A1.746,1.746,0,0,0,24,20.5v-.514A1.753,1.753,0,0,0,23.815,19.2Zm-8.682-1.735.216-1.75a.25.25,0,0,1,.245-.219H20.9a.249.249,0,0,1,.247.219l.217,1.75a.257.257,0,0,1-.061.2.253.253,0,0,1-.187.084H15.381a.253.253,0,0,1-.187-.084A.257.257,0,0,1,15.133,17.469Zm-.025,3.448a.75.75,0,1,1,.75-.75A.75.75,0,0,1,15.108,20.917Zm6.25,0a.75.75,0,1,1,.75-.75A.75.75,0,0,1,21.358,20.917Z"/><path d="M11.213,5.05l-.7-.81a.254.254,0,0,1-.058-.133l-.328-2.644A1.744,1.744,0,0,0,8.4,0H3.1a1.751,1.751,0,0,0-1.73,1.494L1.043,4.107a.247.247,0,0,1-.058.132l-.7.811a.722.722,0,0,0-.1.154A1.753,1.753,0,0,0,0,5.986V6.5A1.746,1.746,0,0,0,.875,8.009.25.25,0,0,1,1,8.225V9.25a.75.75,0,0,0,1.5,0V8.5a.25.25,0,0,1,.25-.25h6A.25.25,0,0,1,9,8.5v.75a.75.75,0,0,0,1.5,0V8.225a.25.25,0,0,1,.125-.216A1.746,1.746,0,0,0,11.5,6.5V5.986a1.753,1.753,0,0,0-.185-.782A.722.722,0,0,0,11.213,5.05ZM2.633,3.469l.216-1.75A.25.25,0,0,1,3.094,1.5H8.4a.249.249,0,0,1,.247.219l.217,1.75a.257.257,0,0,1-.061.2.253.253,0,0,1-.187.084H2.881a.253.253,0,0,1-.187-.084A.257.257,0,0,1,2.633,3.469ZM2.608,6.917a.75.75,0,1,1,.75-.75A.75.75,0,0,1,2.608,6.917Zm6.25,0a.75.75,0,1,1,.75-.75A.75.75,0,0,1,8.858,6.917Z"/></svg>