<svg xmlns="http://www.w3.org/2000/svg" viewBox="0 0 24 24"><title>travel-man-luggage</title><path d="M21.5,13h-2a.5.5,0,0,1-.5-.5V8.75a1,1,0,0,0-2,0V19.531a.468.468,0,0,0,.474.469A2.5,2.5,0,0,1,20,22.5a.5.5,0,0,0,.5.5h1A1.5,1.5,0,0,0,23,21.5v-7A1.5,1.5,0,0,0,21.5,13Z"/><circle cx="17.5" cy="22.5" r="1.5"/><path d="M8.86,9.206a.25.25,0,0,1-.14-.214.248.248,0,0,1,.124-.223,4.7,4.7,0,1,0-4.688,0,.247.247,0,0,1-.016.437,5.441,5.441,0,0,0-3.083,4.9v2.969a.991.991,0,0,0,.989.99H3.115a.494.494,0,0,1,.493.454l.382,4.576A.994.994,0,0,0,4.976,24H8.024a.994.994,0,0,0,.986-.907l.382-4.577a.494.494,0,0,1,.493-.454h1.069a.991.991,0,0,0,.989-.99V14.1A5.441,5.441,0,0,0,8.86,9.206ZM6.5,7.423A2.725,2.725,0,0,1,3.778,4.7a2.625,2.625,0,0,1,.139-.841A.494.494,0,0,1,4.646,3.6a5.7,5.7,0,0,0,3.009.857,5.529,5.529,0,0,0,1.121-.117.372.372,0,0,1,.446.364A2.725,2.725,0,0,1,6.5,7.423Z"/></svg>