<svg xmlns="http://www.w3.org/2000/svg" viewBox="0 0 24 24"><title>travel-insurance-plane</title><path d="M8.891,2.816l1.733.717a.249.249,0,0,0,.2,0L14.4,1.972a.25.25,0,0,0-.005-.461L11.366.259a1,1,0,0,0-.764,0L8.891.968a1,1,0,0,0,0,1.848Z"/><path d="M6.71,9.936a1,1,0,0,0,1.08.222l4.239-1.7a.25.25,0,0,1,.327.32l-1.4,3.747a.992.992,0,0,0,.266,1.094,1.112,1.112,0,0,0,1.117.152l1.977-.988a1,1,0,0,0,.448-.448l3.058-6.118a.252.252,0,0,1,.137-.122l3.574-1.332a2.145,2.145,0,0,0,.707-3.479A2.153,2.153,0,0,0,19.906.824l-.017.007L8.945,5.591,6.912,4.574a1,1,0,0,0-.84-.025l-1.967.844a1,1,0,0,0-.312,1.626Z"/><rect y="13.883" width="5" height="9" rx="1" ry="1"/><path d="M23.854,17.989a3.241,3.241,0,0,0-3.516-1.119l-2.5.856a.291.291,0,0,0-.174.312,2.012,2.012,0,0,1,.031.345,2.461,2.461,0,0,1-.77,1.781A2.75,2.75,0,0,1,15,20.883H11a1.484,1.484,0,0,1-1.126-.516c-.122-.14-.3-.484.146-.484H15a1.511,1.511,0,1,0,0-3H12.3a.227.227,0,0,1-.161-.061A7.024,7.024,0,0,0,7.5,14.883H6.25a.25.25,0,0,0-.25.25v6.611a.253.253,0,0,0,.171.237c.5.171.963.334,1.383.481,2.5.876,3.89,1.355,5.146,1.355,1.519,0,2.841-.7,5.7-2.241,1.364-.737,3.061-1.653,5.329-2.786a.5.5,0,0,0,.269-.368A.5.5,0,0,0,23.854,17.989Z"/></svg>