<svg xmlns="http://www.w3.org/2000/svg" viewBox="0 0 24 24"><title>travel-insurance-shield</title><path d="M21.312,1.914A22.881,22.881,0,0,0,12,0,22.877,22.877,0,0,0,2.688,1.914,2.045,2.045,0,0,0,1.5,3.774v7.639A12.865,12.865,0,0,0,9.7,23.349,9.167,9.167,0,0,0,12.01,24a8.943,8.943,0,0,0,2.293-.651,12.865,12.865,0,0,0,8.2-11.936V3.774A2.045,2.045,0,0,0,21.312,1.914ZM19.186,9.232l-3.1,1.365-2.451,4.478a1.008,1.008,0,0,1-.42.411s-.706.333-1.112.473A.963.963,0,0,1,11,14.643l.918-2.382L8.95,13.432a1.007,1.007,0,0,1-.92-.091L4.664,11.168a1.012,1.012,0,0,1,.045-1.727L5.641,8.9a1.017,1.017,0,0,1,.919-.046l2.066.925,2.63-1.05-1.962-1.3a1.012,1.012,0,0,1,.1-1.741l.882-.457a1.009,1.009,0,0,1,1,.044l3.365,2.107,3.226-1.288a1.7,1.7,0,0,1,2.185.883A1.86,1.86,0,0,1,19.186,9.232Z"/></svg>