<svg xmlns="http://www.w3.org/2000/svg" viewBox="0 0 24 24"><title>travel-paper-plane</title><path d="M4.27,12a3,3,0,0,0,3-3,1.5,1.5,0,0,0-1.5-1.5.5.5,0,0,1-.5-.5,2,2,0,0,0-2-2,.242.242,0,0,1-.2-.378A5.991,5.991,0,0,1,8.02,2a5.9,5.9,0,0,1,2.015.353.5.5,0,0,1,.1.889A2.987,2.987,0,0,0,8.77,5.75a1.5,1.5,0,0,0,1.5,1.5.5.5,0,0,1,.5.5,2,2,0,0,0,2,2H13.8a.5.5,0,0,1,.375.169.955.955,0,0,0,.553.315,1,1,0,0,0,1.162-.806A8,8,0,1,0,.02,8a8.026,8.026,0,0,0,4.045,6.956,1,1,0,0,0,.99-1.738,5.825,5.825,0,0,1-.98-.708A.292.292,0,0,1,4.27,12Z"/><path d="M23.021,10.206a.042.042,0,0,0-.048-.029L7.364,12.654a1,1,0,0,0-.4,1.819l3.193,2.139a.5.5,0,0,0,.508.029L23,10.259A.044.044,0,0,0,23.021,10.206Z"/><path d="M23.948,11.566a.13.13,0,0,0-.155-.029L11.95,17.665a.5.5,0,0,0-.218.668l2.558,5.115a1,1,0,0,0,.828.55l.066,0a1,1,0,0,0,.831-.442l7.943-11.835A.128.128,0,0,0,23.948,11.566Z"/></svg>