<svg xmlns="http://www.w3.org/2000/svg" viewBox="0 0 24 24"><title>travel-insurance-cover</title><path d="M9.368,20.392a.248.248,0,0,1-.059-.419,2.488,2.488,0,0,0,.868-2.74A2.456,2.456,0,0,0,8.5,15.6a2.506,2.506,0,0,0-3.2,2.4,2.475,2.475,0,0,0,.981,1.971.248.248,0,0,1-.056.42,3.486,3.486,0,0,0-1.925,3.092.507.507,0,0,0,.5.517h6a.507.507,0,0,0,.5-.517A3.485,3.485,0,0,0,9.368,20.392Z"/><path d="M17.868,20.392a.248.248,0,0,1-.059-.419,2.488,2.488,0,0,0,.868-2.74A2.456,2.456,0,0,0,17,15.6a2.506,2.506,0,0,0-3.2,2.4,2.475,2.475,0,0,0,.981,1.971.248.248,0,0,1-.056.42,3.486,3.486,0,0,0-1.925,3.092.507.507,0,0,0,.5.517h6a.507.507,0,0,0,.5-.517A3.485,3.485,0,0,0,17.868,20.392Z"/><path d="M13.214,2.088A.245.245,0,0,1,13,1.846V1a1,1,0,0,0-2,0v.846a.245.245,0,0,1-.214.242,8.506,8.506,0,0,0-7.339,8.558V11a.5.5,0,0,0,1,0c0-.5.586-.917,1.28-.917s1.279.42,1.279.917a.5.5,0,0,0,1,0c0-.39.767-.842,1.758-.842a2.872,2.872,0,0,1,1.074.2.252.252,0,0,1,.162.234V15.5a1,1,0,0,0,2,0V10.588a.287.287,0,0,1,.174-.239,2.892,2.892,0,0,1,1.063-.191c.99,0,1.757.452,1.757.842a.5.5,0,0,0,1,0c0-.5.586-.917,1.279-.917s1.28.42,1.28.917a.5.5,0,0,0,1,0v-.354A8.506,8.506,0,0,0,13.214,2.088Z"/></svg>