<svg xmlns="http://www.w3.org/2000/svg" viewBox="0 0 24 24"><title>treasure-chest</title><path d="M6.107,3H4.5A4.507,4.507,0,0,0,0,7.5V9a.5.5,0,0,0,.5.5H5.25a.5.5,0,0,0,.5-.5V6a6.486,6.486,0,0,1,.582-2.643A.249.249,0,0,0,6.107,3Z"/><path d="M15.606,3.1a.5.5,0,0,0-.294-.1H8.7a.5.5,0,0,0-.29.092C7.278,3.9,7.25,5.9,7.25,6V9a.5.5,0,0,0,.5.5h8.5a.5.5,0,0,0,.5-.5V6C16.75,5.9,16.722,3.909,15.606,3.1Z"/><path d="M19.5,3H17.893a.25.25,0,0,0-.226.357A6.473,6.473,0,0,1,18.25,6V9a.5.5,0,0,0,.5.5H23.5A.5.5,0,0,0,24,9V7.5A4.507,4.507,0,0,0,19.5,3Z"/><path d="M5.25,11H.5a.5.5,0,0,0-.5.5v7A2.5,2.5,0,0,0,2.5,21H5.25a.5.5,0,0,0,.5-.5v-9A.5.5,0,0,0,5.25,11Z"/><path d="M16.25,11H15a.5.5,0,0,0-.5.5v1a2.5,2.5,0,0,1-5,0v-1A.5.5,0,0,0,9,11H7.75a.5.5,0,0,0-.5.5v9a.5.5,0,0,0,.5.5h8.5a.5.5,0,0,0,.5-.5v-9A.5.5,0,0,0,16.25,11Z"/><path d="M23.5,11H18.75a.5.5,0,0,0-.5.5v9a.5.5,0,0,0,.5.5H21.5A2.5,2.5,0,0,0,24,18.5v-7A.5.5,0,0,0,23.5,11Z"/><circle cx="12" cy="12.499" r="1"/></svg>