<svg id="Bold" xmlns="http://www.w3.org/2000/svg" viewBox="0 0 24 24"><title>trees-hive</title><path d="M22.909,7.636h-.272a.273.273,0,0,1-.164-.491A1.091,1.091,0,1,0,21.163,5.4L18.4,7.473a.25.25,0,0,1-.4-.2V5.727a1.638,1.638,0,0,0-1.637-1.636H12.009A2.743,2.743,0,0,0,9.386,6.068L8.967,7.536a.25.25,0,0,1-.48,0L8.065,6.059A2.727,2.727,0,0,0,5.454,4.091,1.638,1.638,0,0,0,3.818,5.727V15a2.73,2.73,0,0,1-2.727,2.727A1.093,1.093,0,0,0,0,18.82a1.093,1.093,0,0,0,1.091,1.089H20.727a1.091,1.091,0,0,0,0-2.182A2.73,2.73,0,0,1,18,15V10.745a.5.5,0,0,1,.2-.4c.176-.129.423-.313.574-.425a.492.492,0,0,1,.3-.1h3.834a1.091,1.091,0,1,0,0-2.182Zm-9.273,2.455a.546.546,0,0,1-1.091,0V7.364a.546.546,0,1,1,1.091,0Z"/></svg>