<svg id="Bold" xmlns="http://www.w3.org/2000/svg" viewBox="0 0 24 24"><title>tree-christmas</title><path d="M13,19.6H11a.5.5,0,0,0-.5.5v2.4a1.5,1.5,0,0,0,3,0V20.1A.5.5,0,0,0,13,19.6Z"/><path d="M19.3,16.471,16.4,12.98a.248.248,0,0,1-.034-.265.252.252,0,0,1,.227-.144h.469a1,1,0,0,0,.832-1.553l-2.731-4.1a.25.25,0,0,1,.153-.383.913.913,0,0,0,.627-.494A.994.994,0,0,0,15.9,5.018L12.832.418a1.037,1.037,0,0,0-1.664,0L8.1,5.018a.994.994,0,0,0-.049,1.025.913.913,0,0,0,.627.494.25.25,0,0,1,.153.383L6.1,11.018a1,1,0,0,0,.832,1.553H7.4a.252.252,0,0,1,.227.144.248.248,0,0,1-.034.265L4.7,16.471a1,1,0,0,0,.8,1.6h13a1,1,0,0,0,.8-1.6Z"/></svg>