<svg id="Bold" xmlns="http://www.w3.org/2000/svg" viewBox="0 0 24 24"><title>trees-log</title><circle cx="8" cy="7" r="1.25"/><path d="M8,11.5h9a4.5,4.5,0,0,0,0-9H8a4.5,4.5,0,0,0,0,9ZM17.5,7a.5.5,0,0,1,0,1h-1a.5.5,0,0,1,0-1Zm-4-2h3a.5.5,0,0,1,0,1h-3a.5.5,0,0,1,0-1Zm0,3h1a.5.5,0,0,1,0,1h-1a.5.5,0,0,1,0-1ZM8,4.25A2.75,2.75,0,1,1,5.25,7,2.752,2.752,0,0,1,8,4.25Z"/><circle cx="4.5" cy="17" r="1.25"/><circle cx="11.25" cy="17" r="1.25"/><path d="M19.5,12.5H4.5a4.5,4.5,0,0,0,0,9h15a4.5,4.5,0,0,0,0-9Zm-15,7.25A2.75,2.75,0,1,1,7.25,17,2.752,2.752,0,0,1,4.5,19.75Zm6.75,0A2.75,2.75,0,1,1,14,17,2.752,2.752,0,0,1,11.25,19.75ZM18,19H16.5a.5.5,0,0,1,0-1H18a.5.5,0,0,1,0,1Zm-1.5-3a.5.5,0,0,1,0-1H20a.5.5,0,0,1,0,1ZM21,18H20a.5.5,0,0,1,0-1h1a.5.5,0,0,1,0,1Z"/></svg>