<svg id="Bold" xmlns="http://www.w3.org/2000/svg" viewBox="0 0 24 24"><title>trekking-mountain</title><path d="M14.444,7.291A.974.974,0,0,0,15.6,6.205l-.339-2.824a1,1,0,1,0-1.986.238l.338,2.816a1.01,1.01,0,0,0,.806.851Z"/><path d="M14.887,11.617a.963.963,0,0,0-.532,1l.4,3.354a.266.266,0,0,0,.44.166l1.245-1.106a.5.5,0,0,0,.165-.435l-.267-2.226a1,1,0,0,0-1.432-.76Z"/><circle cx="10.167" cy="2.5" r="2.5"/><path d="M1.981,17.988a1.277,1.277,0,1,0,2.161,1.36l1.931-3.077a1.312,1.312,0,0,0,.14-.589v-1.2a.25.25,0,0,1,.089-.192.253.253,0,0,1,.205-.054l1.262.23a1.32,1.32,0,0,1,1.052,1.011l.779,2.9a1.333,1.333,0,0,0,.082.222.248.248,0,0,0,.28.137l2.03-.451a.249.249,0,0,0,.2-.241,1.279,1.279,0,0,0-.045-.35l-.75-2.794a3.952,3.952,0,0,0-3.152-3.031l-.988-.18a.251.251,0,0,1-.175-.365L8.089,9.452a.251.251,0,0,1,.4-.057,3.8,3.8,0,0,0,3.037,1.453H13.9a1.318,1.318,0,1,0,0-2.636H11.524A1.326,1.326,0,0,1,10.45,7.66a1.226,1.226,0,0,0-.1-.125L8.941,6a1.317,1.317,0,0,0-.973-.426,1.466,1.466,0,0,0-.162.009,1.318,1.318,0,0,0-1,.684l-3.068,5.7a1.331,1.331,0,0,0-.166.64V14.9a2,2,0,0,1-.211.894Z"/><path d="M5.272,3.349l-.758-.444a1.4,1.4,0,0,0-1.046-.143,1.37,1.37,0,0,0-.841.638L.189,7.572a1.381,1.381,0,0,0,.5,1.887l.758.443a1.372,1.372,0,0,0,.693.19,1.419,1.419,0,0,0,.353-.046,1.369,1.369,0,0,0,.84-.638h0L5.767,5.235a1.376,1.376,0,0,0-.5-1.886Z"/><path d="M24,15.789a.5.5,0,0,0-.723-.447l-.615.307a1.993,1.993,0,0,1-1.38.152l-2.257-.564a2,2,0,0,0-1.814.445l-3.323,2.954a2,2,0,0,1-.895.457l-3.572.794a2.013,2.013,0,0,0-.766.352l-.991.743a2,2,0,0,1-1.2.4,1.952,1.952,0,0,1-.285-.021L4.705,21.15a1.963,1.963,0,0,0-.285-.021,1.994,1.994,0,0,0-1.493.673L1.734,23.151a.5.5,0,0,0,.374.831L23.5,24a.5.5,0,0,0,.5-.5Z"/></svg>