<svg xmlns="http://www.w3.org/2000/svg" viewBox="0 0 24 24"><title>trip-pins</title><path d="M4.5,12.333a.5.5,0,0,0,.354-.146C5.022,12.017,9,8.008,9,5.167a4.5,4.5,0,0,0-9,0c0,2.841,3.978,6.85,4.146,7.02A.5.5,0,0,0,4.5,12.333ZM2.694,5.167A1.584,1.584,0,1,1,4.277,6.75,1.585,1.585,0,0,1,2.694,5.167Z"/><path d="M19,10.333a5.006,5.006,0,0,0-5,5C14,18.5,18.457,23,18.646,23.187a.5.5,0,0,0,.708,0C19.543,23,24,18.5,24,15.333A5.006,5.006,0,0,0,19,10.333Zm0,6.75a1.75,1.75,0,1,1,1.75-1.75A1.751,1.751,0,0,1,19,17.083Z"/><path d="M4.5,13.833a1,1,0,0,0-1,1v1.5a1,1,0,0,0,2,0v-1.5A1,1,0,0,0,4.5,13.833Z"/><path d="M4.5,18.833a1,1,0,0,0-1,1v1.5a1,1,0,0,0,2,0v-1.5A1,1,0,0,0,4.5,18.833Z"/><path d="M9.5,20.333H8a1,1,0,0,0,0,2H9.5a1,1,0,0,0,0-2Z"/><path d="M14.5,20.333H13a1,1,0,0,0,0,2h1.5a1,1,0,0,0,0-2Z"/></svg>