<svg xmlns="http://www.w3.org/2000/svg" viewBox="0 0 24 24"><title>trip-destination</title><path d="M5.5,21h0a1,1,0,0,0,.761-.351C6.454,20.423,11,15.057,11,11.5a5.5,5.5,0,0,0-11,0c0,3.558,4.545,8.922,4.739,9.149A1,1,0,0,0,5.5,21ZM3,11.5A2.5,2.5,0,1,1,5.5,14,2.5,2.5,0,0,1,3,11.5Z"/><path d="M19.5,13H15a2,2,0,0,0-2,2v6.75a.25.25,0,0,1-.25.25H5.5a1,1,0,0,0,0,2H13a2,2,0,0,0,2-2V15.25a.25.25,0,0,1,.25-.25H19.5a1,1,0,0,0,0-2Z"/><path d="M19.5,12a.5.5,0,0,0,.354-.146C20.023,11.684,24,7.671,24,4.5a4.5,4.5,0,0,0-9,0c0,3.171,3.977,7.184,4.146,7.354A.5.5,0,0,0,19.5,12ZM18,4.5A1.5,1.5,0,1,1,19.5,6,1.5,1.5,0,0,1,18,4.5Z"/></svg>