<svg xmlns="http://www.w3.org/2000/svg" viewBox="0 0 24 24"><title>trip-road-circle</title><path d="M18.887,13a.5.5,0,0,0,.353-.146c.185-.185,4.51-4.55,4.51-7.991a4.864,4.864,0,0,0-9.728,0c0,3.441,4.327,7.806,4.511,7.991A.5.5,0,0,0,18.887,13ZM17.25,4.864A1.637,1.637,0,1,1,18.886,6.5,1.637,1.637,0,0,1,17.25,4.864Z"/><path d="M19.149,14.481a1.767,1.767,0,0,1-.262.019,2,2,0,0,1-1.414-.586c-2.108-2.105-4.739-5.673-4.937-8.709a.5.5,0,0,0-.387-.455A9.573,9.573,0,0,0,10,4.5,9.739,9.739,0,0,0,.8,17.477a.5.5,0,0,0,.8.211c.4-.351.8-.676,1.187-.959a.75.75,0,0,1,.889,1.209,19.8,19.8,0,0,0-1.552,1.285.5.5,0,0,0-.071.66,9.739,9.739,0,0,0,17.662-4.867.5.5,0,0,0-.569-.535ZM9.6,16.134a5.769,5.769,0,0,0-1.084-.1h0a5.875,5.875,0,0,0-1.548.211.739.739,0,0,1-.2.026.75.75,0,0,1-.2-1.474,7.443,7.443,0,0,1,1.939-.263h0a7.365,7.365,0,0,1,1.361.129A.75.75,0,1,1,9.6,16.134Zm7.283,2.2a.752.752,0,0,1-.715.522.762.762,0,0,1-.228-.035,18.193,18.193,0,0,1-2.827-1.269.762.762,0,0,1-.331-1.018.739.739,0,0,1,1-.325l.023.012A16.812,16.812,0,0,0,16.4,17.4.75.75,0,0,1,16.885,18.337Z"/></svg>