<svg xmlns="http://www.w3.org/2000/svg" viewBox="0 0 24 24"><title>truck</title><path d="M22.65,2.5a3,3,0,0,0-3,3V8.451a.25.25,0,0,1-.084.187A.481.481,0,0,0,19.4,9v3.75a.25.25,0,0,1-.25.25h-.4a.25.25,0,0,1-.25-.25V3.5A2.5,2.5,0,0,0,16,1H8A2.5,2.5,0,0,0,5.5,3.5v9.25a.25.25,0,0,1-.25.25h-.4a.25.25,0,0,1-.25-.25V9a.481.481,0,0,0-.166-.362.252.252,0,0,1-.084-.187V5.5a3,3,0,0,0-3-3,1,1,0,0,0,0,2,1,1,0,0,1,1,1V8.451a.25.25,0,0,1-.084.187A.479.479,0,0,0,2.1,9v4.805a.248.248,0,0,1-.054.155A2.469,2.469,0,0,0,1.5,15.5v3A1.5,1.5,0,0,0,3,20h.233a.249.249,0,0,1,.25.25V22a1,1,0,0,0,1,1H6.5a1,1,0,0,0,1-1V20.25a.25.25,0,0,1,.25-.25h8.5a.249.249,0,0,1,.25.25V22a1,1,0,0,0,1,1h1.981a1,1,0,0,0,1-1V20.25a.25.25,0,0,1,.25-.25H21a1.5,1.5,0,0,0,1.5-1.5v-3a2.469,2.469,0,0,0-.546-1.54.25.25,0,0,1-.054-.155V9a.482.482,0,0,0-.166-.362.25.25,0,0,1-.084-.187V5.5a1,1,0,0,1,1-1,1,1,0,0,0,0-2ZM7.5,8V5A.5.5,0,0,1,8,4.5h2.5A.5.5,0,0,1,11,5V8a.5.5,0,0,1-.5.5H8A.5.5,0,0,1,7.5,8Zm8.733,9a.5.5,0,0,1-.5.5h-7.5a.5.5,0,0,1-.5-.5V12a.5.5,0,0,1,.5-.5h7.5a.5.5,0,0,1,.5.5ZM16.5,8a.5.5,0,0,1-.5.5H13.5A.5.5,0,0,1,13,8V5a.5.5,0,0,1,.5-.5H16a.5.5,0,0,1,.5.5Z"/><path d="M9.484,12.25a.75.75,0,0,0-.75.75v3a.75.75,0,0,0,1.5,0V13A.75.75,0,0,0,9.484,12.25Z"/><path d="M11.984,12.25a.75.75,0,0,0-.75.75v3a.75.75,0,0,0,1.5,0V13A.75.75,0,0,0,11.984,12.25Z"/><path d="M14.4,12.25a.75.75,0,0,0-.75.75v3a.75.75,0,0,0,1.5,0V13A.75.75,0,0,0,14.4,12.25Z"/></svg>