<svg xmlns="http://www.w3.org/2000/svg" viewBox="0 0 24 24"><title>truck-empty-1</title><path d="M5.839,6.625H12.25a.25.25,0,0,0,.25-.25V4.625a.75.75,0,0,0-.75-.75h-1a6.741,6.741,0,0,0-5.1,2.337.25.25,0,0,0,.19.413Z"/><path d="M23.25,19.375H23v-.25a1.252,1.252,0,0,0-1.25-1.25h-1.2a.25.25,0,0,0-.2.406A2.948,2.948,0,0,1,21,20.125a2.651,2.651,0,0,1-.042.457.248.248,0,0,0,.055.2.253.253,0,0,0,.192.089H23.25a.75.75,0,0,0,0-1.5Z"/><path d="M16.154,17.771a.248.248,0,0,0,.1-.2V4.875a1,1,0,0,1,1-1h.5a1,1,0,0,0,0-2h-.5a3,3,0,0,0-3,3v12.75a.25.25,0,0,1-.25.25H12.75a.25.25,0,0,1-.25-.25V7.875a.25.25,0,0,0-.25-.25H4.878a.25.25,0,0,0-.225.141,5.736,5.736,0,0,0-.258.6A6.57,6.57,0,0,0,4,10.625v2.5a.25.25,0,0,1-.25.25H3.44a2.74,2.74,0,0,0-2.71,2.3l-.72,4.3a.75.75,0,0,0,.738.874l1.042,0a.251.251,0,0,0,.247-.291A2.669,2.669,0,0,1,2,20.125a3,3,0,0,1,6,0,2.651,2.651,0,0,1-.042.457.248.248,0,0,0,.055.2.253.253,0,0,0,.192.089H14.8a.25.25,0,0,0,.247-.293A2.651,2.651,0,0,1,15,20.125,2.989,2.989,0,0,1,16.154,17.771Zm-6.4-4.766a.5.5,0,0,1-.48.37H6.784a.5.5,0,0,1-.5-.5v-2.25a5.425,5.425,0,0,1,.121-1.1.5.5,0,0,1,.49-.4H10a.5.5,0,0,1,.5.5Z"/><circle cx="5" cy="20.125" r="2"/><circle cx="18" cy="20.125" r="2"/></svg>