<svg xmlns="http://www.w3.org/2000/svg" viewBox="0 0 24 24"><title>truck-2</title><path d="M23.75,13.5H6.233a4.524,4.524,0,0,0-2.785.965L.054,17.139A.142.142,0,0,0,0,17.25,1.752,1.752,0,0,0,1.75,19h1.6a.251.251,0,0,0,.243-.311A2.8,2.8,0,0,1,3.5,18a3,3,0,0,1,6,0,2.8,2.8,0,0,1-.089.689A.251.251,0,0,0,9.654,19h6.692a.251.251,0,0,0,.243-.311A2.8,2.8,0,0,1,16.5,18a3,3,0,0,1,6,0,2.761,2.761,0,0,1-.074.628.249.249,0,0,0,.313.3A1.747,1.747,0,0,0,24,17.25v-3.5A.25.25,0,0,0,23.75,13.5Z"/><path d="M21.25,4H6.486A4.344,4.344,0,0,0,2.579,6.415L.526,10.521A5.007,5.007,0,0,0,0,12.75v2.643a.251.251,0,0,0,.405.2l2.424-1.91a5.524,5.524,0,0,1,3.4-1.18H23.75a.25.25,0,0,0,.25-.25V6.75A2.753,2.753,0,0,0,21.25,4ZM7,9.75a.25.25,0,0,1-.25.25H4a.5.5,0,0,1-.447-.724l1-2A.5.5,0,0,1,5,7H6.75A.25.25,0,0,1,7,7.25Zm5.5,0a.25.25,0,0,1-.25.25h-3A.25.25,0,0,1,9,9.75V7.25A.25.25,0,0,1,9.25,7h3a.25.25,0,0,1,.25.25ZM18,9.5a.5.5,0,0,1-.5.5H14.75a.25.25,0,0,1-.25-.25V7.25A.25.25,0,0,1,14.75,7H17.5a.5.5,0,0,1,.5.5Zm3.75,1h-1.5a.75.75,0,0,1,0-1.5h1.5a.75.75,0,0,1,0,1.5Zm0-2.5h-1.5a.75.75,0,0,1,0-1.5h1.5a.75.75,0,0,1,0,1.5Z"/><circle cx="6.5" cy="18" r="2"/><circle cx="19.5" cy="18" r="2"/></svg>