<svg xmlns="http://www.w3.org/2000/svg" viewBox="0 0 24 24"><title>tuk-tuk-1</title><path d="M12,16a2,2,0,0,0-2,2v4a2,2,0,0,0,4,0V18A2,2,0,0,0,12,16Z"/><path d="M18.986,19H23a.25.25,0,0,0,.25-.25v-2.5A2.752,2.752,0,0,0,20.5,13.5a2.683,2.683,0,0,0-.686.091.25.25,0,0,1-.314-.242V10.92a2.368,2.368,0,0,0-.106-.66c-.243-.693-1.22-3.49-1.81-5.177a.253.253,0,0,1,.033-.228.25.25,0,0,1,.2-.105H18a1,1,0,0,0,0-2H15.5a.25.25,0,0,1-.25-.25V1.75A1.752,1.752,0,0,0,13.5,0h-3A1.753,1.753,0,0,0,8.75,1.75V2.5a.249.249,0,0,1-.25.25H6a1,1,0,0,0,0,2h.226a.251.251,0,0,1,.236.334c-.6,1.689-1.586,4.459-1.831,5.136a2.43,2.43,0,0,0-.131.7v2.429a.25.25,0,0,1-.314.242A2.683,2.683,0,0,0,3.5,13.5,2.752,2.752,0,0,0,.75,16.25v2.5A.25.25,0,0,0,1,19H5a.25.25,0,0,1,.25.25v.5A.25.25,0,0,1,5,20H1a.25.25,0,0,0-.25.25v1.5a2.25,2.25,0,0,0,4.5,0V20.8a.25.25,0,0,1,.406-.2A2.948,2.948,0,0,0,7.5,21.25H8.75A.25.25,0,0,0,9,21V18a3,3,0,0,1,6,0v3a.25.25,0,0,0,.25.25H16.5a2.948,2.948,0,0,0,1.844-.649.251.251,0,0,1,.406.2v.953a2.25,2.25,0,0,0,4.5,0v-1.5A.25.25,0,0,0,23,20H18.986a.25.25,0,0,1-.25-.25v-.5A.25.25,0,0,1,18.986,19ZM8,15.25a1,1,0,1,1,1-1A1,1,0,0,1,8,15.25Zm-.722-5.5a.251.251,0,0,1-.236-.334c.53-1.483,1.266-3.554,1.6-4.5A.251.251,0,0,1,8.88,4.75h6.293a.25.25,0,0,1,.236.168c.331.95,1.055,3.021,1.571,4.5a.25.25,0,0,1-.236.333ZM16,15.25a1,1,0,1,1,1-1A1,1,0,0,1,16,15.25Z"/></svg>