<svg xmlns="http://www.w3.org/2000/svg" viewBox="0 0 24 24"><title>tuk-tuk</title><path d="M21.326,12.708a.244.244,0,0,1-.129-.142L19.391,7.551a.247.247,0,0,1,.034-.233.251.251,0,0,1,.213-.1l1.563.077h.05a1,1,0,0,0,.048-2l-2.406-.119a.25.25,0,0,1-.212-.138L18.4,4.466a1.038,1.038,0,0,0-1.789,0l-.219.438a.25.25,0,0,1-.236.138L1.052,4.3H1.047a1,1,0,0,0-.1,2l.061,0a.25.25,0,0,1,.238.25v9A2.236,2.236,0,0,0,2.234,17.4a.25.25,0,0,0,.382-.141,2.985,2.985,0,0,1,5.834.328A.249.249,0,0,0,8.7,17.8h8.863a.251.251,0,0,1,.246.2A2.485,2.485,0,0,0,22.7,18a.25.25,0,0,1,.246-.2H23a1,1,0,0,0,1-1A4.464,4.464,0,0,0,21.326,12.708ZM8.25,13.045A.25.25,0,0,1,8,13.3H7a.25.25,0,0,1-.25-.25A1.752,1.752,0,0,0,5,11.3H4a.25.25,0,0,1-.25-.25V6.7a.251.251,0,0,1,.262-.25l4,.2a.249.249,0,0,1,.238.25Zm10.2-3.256-1.518,1.519a3.57,3.57,0,0,0-.884,1.781.249.249,0,0,1-.246.206H14.234A.25.25,0,0,1,14,13.124l-1.3-3.9a1,1,0,0,0-1.9.633l1.035,3.1a.25.25,0,0,1-.237.329H10.5a.25.25,0,0,1-.25-.25V7.016a.251.251,0,0,1,.262-.25l6.964.344a.251.251,0,0,1,.223.166l.8,2.252A.25.25,0,0,1,18.445,9.789Z"/><circle cx="5.5" cy="18.045" r="2"/></svg>