<svg xmlns="http://www.w3.org/2000/svg" viewBox="0 0 24 24"><title>tv-flat-screen-disable</title><path d="M22.5,1.5H1.5A1.5,1.5,0,0,0,0,3V16.5A1.5,1.5,0,0,0,1.5,18h8.75a.25.25,0,0,1,.25.25v2a.25.25,0,0,1-.25.25H7a1,1,0,0,0,0,2H17a1,1,0,0,0,0-2H13.75a.25.25,0,0,1-.25-.25v-2a.25.25,0,0,1,.25-.25H22.5A1.5,1.5,0,0,0,24,16.5V3A1.5,1.5,0,0,0,22.5,1.5ZM22,15.615a.386.386,0,0,1-.385.385H2.385A.386.386,0,0,1,2,15.615V3.885A.386.386,0,0,1,2.385,3.5h19.23A.386.386,0,0,1,22,3.885Z"/><path d="M12,4.5a5.25,5.25,0,1,0,5.25,5.25A5.256,5.256,0,0,0,12,4.5ZM8.959,10.864a3.1,3.1,0,0,1-.017-2.191A3.307,3.307,0,0,1,10.908,6.7a3.1,3.1,0,0,1,2.206.011.253.253,0,0,1,.1.416L9.375,10.961A.254.254,0,0,1,8.959,10.864Zm6.1-.034a3.3,3.3,0,0,1-1.972,1.975,3.094,3.094,0,0,1-2.2-.014.253.253,0,0,1-.1-.416l3.837-3.836a.253.253,0,0,1,.416.1A3.093,3.093,0,0,1,15.057,10.83Z"/></svg>