<svg id="Bold" xmlns="http://www.w3.org/2000/svg" viewBox="0 0 24 24"><title>underwear-bra-1</title><path d="M10.748,17.434a.5.5,0,0,0,.238-.55c-.965-4.044-2.692-6.99-7.594-8.074A.5.5,0,0,1,3,8.322V1A1,1,0,0,0,1,1V8.72a.979.979,0,0,1-.072.37c-.057.144-.14.359-.237.647a.5.5,0,0,0,.356.645C5.164,11.39,7.574,13.6,9.022,17.706a.5.5,0,0,0,.7.281Q10.227,17.732,10.748,17.434Z"/><path d="M.726,11.85a.5.5,0,0,0-.617.422A13.692,13.692,0,0,0,0,14a19.838,19.838,0,0,0,.513,4.611.5.5,0,0,0,.329.363,9.946,9.946,0,0,0,3.172.525,11.035,11.035,0,0,0,3.311-.533.5.5,0,0,0,.324-.641C6.385,14.672,4.331,12.749.726,11.85Z"/><path d="M19.972,21.006a15,15,0,0,1-7.464-2.27,1.026,1.026,0,0,0-1.016,0,15,15,0,0,1-7.464,2.27,11.082,11.082,0,0,1-2.264-.238.5.5,0,0,0-.6.554L1.4,23.133a1,1,0,0,0,.379.665.96.96,0,0,0,.751.188A56.144,56.144,0,0,1,12,23a56.067,56.067,0,0,1,9.472.987A.944.944,0,0,0,21.63,24a.975.975,0,0,0,.593-.2,1,1,0,0,0,.379-.666l.233-1.811a.5.5,0,0,0-.6-.553A11.1,11.1,0,0,1,19.972,21.006Z"/><path d="M22.953,10.382a.5.5,0,0,0,.356-.645c-.1-.289-.181-.5-.238-.648A1,1,0,0,1,23,8.718V1a1,1,0,0,0-2,0V8.322a.5.5,0,0,1-.392.488c-4.9,1.084-6.629,4.03-7.594,8.074a.5.5,0,0,0,.238.55q.522.3,1.03.553a.5.5,0,0,0,.7-.281C16.426,13.6,18.836,11.39,22.953,10.382Z"/><path d="M16.351,18.325a.506.506,0,0,0,.026.389.5.5,0,0,0,.3.252,11.035,11.035,0,0,0,3.311.533,9.946,9.946,0,0,0,3.172-.525.5.5,0,0,0,.329-.363A19.838,19.838,0,0,0,24,14a13.692,13.692,0,0,0-.109-1.728.5.5,0,0,0-.617-.422C19.669,12.749,17.615,14.672,16.351,18.325Z"/></svg>