<svg xmlns="http://www.w3.org/2000/svg" viewBox="0 0 24 24"><title>unicycle</title><path d="M13.208,9.105A.249.249,0,0,1,13,8.859V5.75a.25.25,0,0,1,.25-.25h4a1.786,1.786,0,0,0,2-1.75,1.786,1.786,0,0,0-2-1.75H13.5A7.11,7.11,0,0,1,10.208.727L9.914.555A4.088,4.088,0,0,0,7.5,0h-2a.75.75,0,0,0-.75.75A4.756,4.756,0,0,0,9.5,5.5h1.25a.25.25,0,0,1,.25.25V8.859a.251.251,0,0,1-.209.247,7.5,7.5,0,1,0,2.419,0ZM12,21.25a4.748,4.748,0,0,1-1.322-9.308.25.25,0,0,1,.32.24v2.461a.249.249,0,0,1-.111.208,2,2,0,1,0,2.222,0A.253.253,0,0,1,13,14.643V12.18a.251.251,0,0,1,.32-.24A4.748,4.748,0,0,1,12,21.25Z"/></svg>