<svg id="Bold" xmlns="http://www.w3.org/2000/svg" viewBox="0 0 24 24"><title>uv-sun</title><path d="M12.347,16.051a.251.251,0,0,0-.258-.38A4.506,4.506,0,1,1,14.14,14.7a.169.169,0,0,0-.051.19A.172.172,0,0,0,14.25,15a2.238,2.238,0,0,1,1.35.45.249.249,0,0,0,.3,0,2.25,2.25,0,0,1,.487-.278.244.244,0,0,0,.105-.083A6.5,6.5,0,1,0,11.25,17.75c.175,0,.349-.007.52-.021A.25.25,0,0,0,12,17.48v-.23A2.231,2.231,0,0,1,12.347,16.051Z"/><path d="M3.5,11.25a1,1,0,0,0-1-1H1a1,1,0,0,0,0,2H2.5A1,1,0,0,0,3.5,11.25Z"/><path d="M4.355,5.77A1,1,0,0,0,5.77,4.355L4.709,3.3A1,1,0,0,0,3.3,4.709Z"/><path d="M11.25,3.5a1,1,0,0,0,1-1V1a1,1,0,0,0-2,0V2.5A1,1,0,0,0,11.25,3.5Z"/><path d="M4.355,16.73,3.3,17.791A1,1,0,1,0,4.709,19.2l1.061-1.06A1,1,0,0,0,4.355,16.73Z"/><path d="M19,11.25a1,1,0,0,0,1,1h1.5a1,1,0,0,0,0-2H20A1,1,0,0,0,19,11.25Z"/><path d="M17.438,6.063a1,1,0,0,0,.707-.293L19.2,4.709A1,1,0,0,0,17.791,3.3L16.73,4.355a1,1,0,0,0,.708,1.708Z"/><path d="M18,17.25a.75.75,0,0,0-1.5,0v4.5a.75.75,0,0,1-1.5,0v-4.5a.75.75,0,0,0-1.5,0v4.5a2.25,2.25,0,0,0,4.5,0Z"/><path d="M23.25,16.5a.75.75,0,0,0-.75.75v1.5a6.793,6.793,0,0,1-.519,2.591.25.25,0,0,1-.462,0A6.793,6.793,0,0,1,21,18.75v-1.5a.75.75,0,0,0-1.5,0v1.5a8.3,8.3,0,0,0,1.65,4.95.75.75,0,0,0,1.2,0A8.3,8.3,0,0,0,24,18.75v-1.5A.75.75,0,0,0,23.25,16.5Z"/></svg>