<svg xmlns="http://www.w3.org/2000/svg" viewBox="0 0 24 24"><title>vectors-path-corner</title><path d="M24,9.5a1,1,0,0,0-1-1H20a1,1,0,0,0-1,1v.426a.249.249,0,0,1-.232.249,12.115,12.115,0,0,0-4.852,1.289.162.162,0,0,1-.239-.142,2.972,2.972,0,0,0-.239-1.172.249.249,0,0,1,.05-.272L16.465,6.8a.248.248,0,0,1,.3-.047,3.583,3.583,0,1,0-1.605-1.7.251.251,0,0,1-.048.277L12.06,8.478a.25.25,0,0,1-.273.058,2.969,2.969,0,0,0-1.11-.214,3,3,0,0,0-2.756,4.184.251.251,0,0,1-.05.273L5.536,15.2a.251.251,0,0,1-.3.048,3.579,3.579,0,1,0,1.606,1.7.249.249,0,0,1,.048-.276l2.413-2.5a.25.25,0,0,1,.272-.059,2.976,2.976,0,0,0,1.1.209H10.7a.25.25,0,0,1,.23.35,11.04,11.04,0,0,0-.766,4.086A.25.25,0,0,1,9.91,19H9.5a1,1,0,0,0-1,1v3a1,1,0,0,0,1,1h3a1,1,0,0,0,1-1V20a1,1,0,0,0-1-1h-.09a.249.249,0,0,1-.25-.258A6.561,6.561,0,0,1,13.685,14.1a8.254,8.254,0,0,1,5.078-1.913.216.216,0,0,1,.166.057A.219.219,0,0,1,19,12.4v.1a1,1,0,0,0,1,1h3a1,1,0,0,0,1-1ZM18.419,2a1.581,1.581,0,1,1-1.58,1.581A1.582,1.582,0,0,1,18.419,2ZM3.581,20a1.581,1.581,0,1,1,1.58-1.581A1.582,1.582,0,0,1,3.581,20Zm6.1-8.678a1,1,0,1,1,1,1A1,1,0,0,1,9.677,11.322Z"/></svg>