<svg xmlns="http://www.w3.org/2000/svg" viewBox="0 0 24 24"><title>vectors-line-path</title><path d="M24,2a2,2,0,0,0-2-2H19a2,2,0,0,0-2,2V5a1.942,1.942,0,0,0,.039.391.25.25,0,0,1-.069.225L5.616,16.97a.252.252,0,0,1-.226.069A1.925,1.925,0,0,0,5,17H2a2,2,0,0,0-2,2v3a2,2,0,0,0,2,2H5a2,2,0,0,0,2-2V19a1.932,1.932,0,0,0-.039-.39.252.252,0,0,1,.069-.226L18.384,7.03a.249.249,0,0,1,.226-.068A2.007,2.007,0,0,0,19,7h3a2,2,0,0,0,2-2ZM5,21.75a.25.25,0,0,1-.25.25H2.25A.25.25,0,0,1,2,21.75v-2.5A.25.25,0,0,1,2.25,19h2.5a.25.25,0,0,1,.25.25Zm17-17a.25.25,0,0,1-.25.25h-2.5A.25.25,0,0,1,19,4.75V2.25A.25.25,0,0,1,19.25,2h2.5a.25.25,0,0,1,.25.25Z"/></svg>