<svg xmlns="http://www.w3.org/2000/svg" viewBox="0 0 24 24"><title>vectors-pen-add-1</title><path d="M23.707,8.548,17.952,2.793a1,1,0,0,0-1.526.133l-4.5,6.419a1,1,0,0,0,.112,1.281l3.836,3.836a1,1,0,0,0,1.281.112l6.419-4.5A1,1,0,0,0,23.707,8.548Z"/><path d="M10.547,11.157a.5.5,0,0,0-.56-.1l-5.275,2.4a.5.5,0,0,0-.293.455c0,.066-.023,6.6-1.835,9.315a.5.5,0,0,0,.693.693C6,22.1,12.526,22.082,12.592,22.082a.5.5,0,0,0,.455-.293l2.4-5.276a.5.5,0,0,0-.1-.56Zm.582,7.043a2,2,0,1,1,0-2.828A2,2,0,0,1,11.129,18.2Z"/><path d="M3.5,8.25a1.25,1.25,0,0,0,2.5,0v-2A.25.25,0,0,1,6.25,6h2a1.25,1.25,0,0,0,0-2.5h-2A.25.25,0,0,1,6,3.25v-2a1.25,1.25,0,0,0-2.5,0v2a.25.25,0,0,1-.25.25h-2a1.25,1.25,0,0,0,0,2.5h2a.25.25,0,0,1,.25.25Z"/></svg>