<svg id="Bold" xmlns="http://www.w3.org/2000/svg" viewBox="0 0 24 24"><title>vegetables-beet-1</title><path d="M23.6,5.86a8.4,8.4,0,0,0-2.034-.3.5.5,0,0,0-.475.313,9.732,9.732,0,0,1-1.111,2.014.251.251,0,0,0,.254.391,5.72,5.72,0,0,1,2.71.1A.52.52,0,0,0,23.594,8l.376-1.516A.52.52,0,0,0,23.6,5.86Z"/><path d="M18.211,8.281a.5.5,0,0,1,.034-.615,8.289,8.289,0,0,0,2.062-5.489.52.52,0,0,0-.506-.52l-1.562-.039a.519.519,0,0,0-.533.524,5.714,5.714,0,0,1-1.254,3.615.5.5,0,0,1-.675.1,7.94,7.94,0,0,0-10.35.777C2.476,9.584,1.681,14.524,3.617,17.88a1.121,1.121,0,0,1,.134.513c.03.73-.569,1.074-.755,1.309-.332.324-1.112.843-1.508.631A1,1,0,0,0,.541,22.1a2.4,2.4,0,0,0,1.151.287,4.18,4.18,0,0,0,2.715-1.263c.263-.207.6-.828,1.37-.768a1.01,1.01,0,0,1,.434.123,8.359,8.359,0,0,0,4.18,1.057,10.141,10.141,0,0,0,7.067-2.867,7.745,7.745,0,0,0,2.321-5.878A8.569,8.569,0,0,0,18.211,8.281Zm-5-.642a.751.751,0,0,1-.913.54,4.259,4.259,0,0,0-3.839.833.744.744,0,0,1-.474.17.75.75,0,0,1-.475-1.331,5.8,5.8,0,0,1,5.16-1.125A.75.75,0,0,1,13.212,7.639Z"/></svg>