<svg id="Bold" xmlns="http://www.w3.org/2000/svg" viewBox="0 0 24 24"><title>vegetables-broccoli</title><path d="M14.691,14.746a8.043,8.043,0,0,0-5.421-5.4.5.5,0,0,0-.625.267C6.518,14.4,2.935,17.381.391,19.962a1.023,1.023,0,0,0-.187,1.4L2.637,23.8a1.022,1.022,0,0,0,1.4-.187c2.585-2.548,5.572-6.139,10.375-8.264A.5.5,0,0,0,14.691,14.746Z"/><path d="M22.63,9.514a4.512,4.512,0,0,0-1.167-.839.5.5,0,0,1-.276-.465,5.195,5.195,0,0,0-5.394-5.4.5.5,0,0,1-.466-.275,4.491,4.491,0,0,0-.838-1.167,4.687,4.687,0,0,0-6.629,0,4.534,4.534,0,0,0-1,1.518.5.5,0,0,1-.379.306A5.02,5.02,0,0,0,3.79,4.7a5.209,5.209,0,0,0,0,7.369,4.346,4.346,0,0,0,.782.591.5.5,0,0,0,.667-.134,19.931,19.931,0,0,0,1.88-3.183.5.5,0,0,0-.274-.68,3.569,3.569,0,0,1-.329-.145.75.75,0,1,1,.676-1.339,2.171,2.171,0,0,0,2.759-.776.75.75,0,1,1,1.272.794,3.731,3.731,0,0,1-.35.473.5.5,0,0,0,.161.78A9.261,9.261,0,0,1,15.6,12.919a.5.5,0,0,0,.776.17,3.76,3.76,0,0,1,.425-.31.75.75,0,0,1,.794,1.273,2.128,2.128,0,0,0-.776,2.76.75.75,0,0,1-.333,1.007.738.738,0,0,1-.336.08.75.75,0,0,1-.671-.413,3.429,3.429,0,0,1-.144-.328.5.5,0,0,0-.68-.274,19.928,19.928,0,0,0-3.183,1.879.5.5,0,0,0-.134.667,4.355,4.355,0,0,0,.591.783,5.21,5.21,0,0,0,7.368,0,5.023,5.023,0,0,0,1.507-2.689.5.5,0,0,1,.306-.379,4.534,4.534,0,0,0,1.518-1A4.694,4.694,0,0,0,22.63,9.514Z"/></svg>