<svg id="Bold" xmlns="http://www.w3.org/2000/svg" viewBox="0 0 24 24"><title>vegetables-beet</title><path d="M14,5.572a.411.411,0,0,0,.44.443,4.9,4.9,0,0,0,4.7-4.579A.411.411,0,0,0,18.707,1,4.9,4.9,0,0,0,14,5.572Z"/><path d="M10,5.572a.411.411,0,0,1-.44.443,4.9,4.9,0,0,1-4.7-4.579A.411.411,0,0,1,5.293,1,4.9,4.9,0,0,1,10,5.572Z"/><path d="M14.293,17.808a1.05,1.05,0,0,1,.46-.868C16.713,15.614,19,13.526,19,11c0-3.437-3.328-3.947-5.513-4A.5.5,0,0,1,13,6.5V1a1,1,0,0,0-2,0V6.5a.5.5,0,0,1-.487.5C8.329,7.053,5,7.563,5,11c0,2.526,2.287,4.614,4.247,5.94A1.048,1.048,0,0,1,9.215,18.7c-.811.545-2.5,1.68-1.242,3.841a1,1,0,1,0,1.728-1c-.291-.5-.314-.542.63-1.177.084-.056.177-.119.275-.188a.25.25,0,0,1,.394.2V23a1,1,0,0,0,2,0V20.371a.25.25,0,0,1,.394-.2c.1.069.191.132.275.188.945.635.921.676.63,1.177a1,1,0,1,0,1.729,1c1.256-2.161-.432-3.3-1.243-3.841A1.051,1.051,0,0,1,14.293,17.808Zm-4.6-7.891C8.4,10.24,8.214,10.95,8.2,11.533a.751.751,0,0,1-.749.729H7.426A.748.748,0,0,1,6.7,11.49,3.109,3.109,0,0,1,9.327,8.462a.75.75,0,1,1,.364,1.455Z"/></svg>