<svg xmlns="http://www.w3.org/2000/svg" viewBox="0 0 24 24"><title>ventilator</title><path d="M18.5,21h-4a.5.5,0,0,1-.5-.5V18.894a.5.5,0,0,0-.571-.5,10.006,10.006,0,0,1-2.857,0,.5.5,0,0,0-.572.5V20.5a.5.5,0,0,1-.5.5h-4a1.5,1.5,0,0,0,0,3h13a1.5,1.5,0,1,0,0-3Z"/><path d="M12,17A8.5,8.5,0,1,0,3.5,8.5,8.51,8.51,0,0,0,12,17ZM13.247,5.863,14.574,2.57a.5.5,0,0,1,.7-.254A7.005,7.005,0,0,1,19,8.5c0,.083,0,.167,0,.25a.5.5,0,0,1-.57.475l-3.762-.532A.2.2,0,0,1,14.5,8.5a2.484,2.484,0,0,0-1.071-2.041A.5.5,0,0,1,13.247,5.863ZM12,11a2.489,2.489,0,0,0,1.06-.235.5.5,0,0,1,.605.145l2.178,2.782a.5.5,0,0,1,.1.394.5.5,0,0,1-.226.338,6.936,6.936,0,0,1-7.429,0,.5.5,0,0,1-.127-.731L10.33,10.91a.5.5,0,0,1,.606-.145A2.481,2.481,0,0,0,12,11ZM5.185,9.112a.5.5,0,0,1-.18-.363c0-.082,0-.166,0-.249A7,7,0,0,1,8.719,2.321a.5.5,0,0,1,.7.254l1.325,3.288a.5.5,0,0,1-.177.6A2.484,2.484,0,0,0,9.495,8.5a.194.194,0,0,1-.168.193l-3.752.531A.5.5,0,0,1,5.185,9.112Z"/></svg>