<svg id="Bold" xmlns="http://www.w3.org/2000/svg" viewBox="0 0 24 24"><title>video-game-sonic-1</title><path d="M23.957,12.6c-1.024-3.281-2.912-5.344-5.623-6.158a.5.5,0,0,1-.146-.886,7.991,7.991,0,0,1,.94-.572.992.992,0,0,0,.541-.911,1.008,1.008,0,0,0-.59-.9,9.866,9.866,0,0,0-8.938-.056,12.459,12.459,0,0,0-6.133,8.62A.55.55,0,0,0,4,11.832v2.589a.5.5,0,0,1-.5.5H2a.286.286,0,0,1-.225-.11A.972.972,0,0,0,1,14.421,1,1,0,0,0,.779,16.4.283.283,0,0,1,1,16.673v.248a5.006,5.006,0,0,0,5,5h5a3.457,3.457,0,0,0,2.409-.984A2,2,0,0,1,14,20.544a7.507,7.507,0,0,0,2.9-2.239.5.5,0,0,1,.475-.184,4.3,4.3,0,0,1,2.76,1.715.99.99,0,0,0,.971.343,1.027,1.027,0,0,0,.782-.745,9.776,9.776,0,0,0,.059-5.273.357.357,0,0,1,.534-.4A.991.991,0,0,0,23.6,13.7,1.007,1.007,0,0,0,23.957,12.6ZM5,12.421a2,2,0,0,1,4,0v2a.5.5,0,0,1-.5.5h-3a.5.5,0,0,1-.5-.5Zm6,7.5H6a3.005,3.005,0,0,1-2.94-2.4.5.5,0,0,1,.491-.6H11a1.5,1.5,0,0,1,0,3ZM12.64,9.426a.5.5,0,0,1-.431.245H10a.5.5,0,0,1-.5-.5V6.643a.5.5,0,0,1,.811-.391A9.355,9.355,0,0,1,12.646,8.93.5.5,0,0,1,12.64,9.426Z"/><path d="M7,14.171a.75.75,0,0,0,.75-.75v-1a.75.75,0,0,0-1.5,0v1A.75.75,0,0,0,7,14.171Z"/></svg>