<svg id="Bold" xmlns="http://www.w3.org/2000/svg" viewBox="0 0 24 24"><title>video-game-mario-mushroom-1</title><path d="M12,0C3.723,0,0,7.522,0,12.864a6.871,6.871,0,0,0,4.01,6.654,1,1,0,0,1,.593.716A4.758,4.758,0,0,0,9.252,24h5.5A4.758,4.758,0,0,0,19.4,20.234a1,1,0,0,1,.593-.716A6.871,6.871,0,0,0,24,12.864C24,7.522,20.277,0,12,0Zm2.75,2.25A2.25,2.25,0,1,1,12.5,4.5,2.25,2.25,0,0,1,14.75,2.25ZM4,10.236a3.5,3.5,0,1,1,3.5,3.5A3.5,3.5,0,0,1,4,10.236ZM17.5,19.25A2.754,2.754,0,0,1,14.748,22h-5.5A2.754,2.754,0,0,1,6.5,19.25V16.979a.5.5,0,0,1,.275-.447A13.22,13.22,0,0,1,12,15.75a13.22,13.22,0,0,1,5.225.782.5.5,0,0,1,.275.447Zm.5-6.014a1.5,1.5,0,1,1,1.5-1.5A1.5,1.5,0,0,1,18,13.236Z"/><path d="M9.5,16.986a.75.75,0,0,0-.75.75v2a.75.75,0,0,0,1.5,0v-2A.75.75,0,0,0,9.5,16.986Z"/><path d="M14.5,16.986a.75.75,0,0,0-.75.75v2a.75.75,0,1,0,1.5,0v-2A.75.75,0,0,0,14.5,16.986Z"/></svg>