<svg xmlns="http://www.w3.org/2000/svg" viewBox="0 0 24 24"><title>video-projector</title><path d="M9.343,9.937l7.2-4a.5.5,0,0,0,0-.874l-7.2-4A.5.5,0,0,0,8.6,1.5v8a.5.5,0,0,0,.246.431A.566.566,0,0,0,9.343,9.937Z"/><path d="M5.5,10.5a1,1,0,0,0-1-1h-1a1,1,0,0,0,0,2h1A1,1,0,0,0,5.5,10.5Z"/><path d="M4,6A1,1,0,0,0,3,5H2A1,1,0,0,0,2,7H3A1,1,0,0,0,4,6Z"/><path d="M2,2A1,1,0,0,0,2,0H1A1,1,0,0,0,1,2Z"/><path d="M20.5,9.5h-1a1,1,0,0,0,0,2h1a1,1,0,0,0,0-2Z"/><path d="M7,15a1,1,0,0,0-1-1H5a1,1,0,0,0,0,2H6A1,1,0,0,0,7,15Z"/><path d="M19,14H18a1,1,0,0,0,0,2h1a1,1,0,0,0,0-2Z"/><path d="M22,5H21a1,1,0,0,0,0,2h1a1,1,0,0,0,0-2Z"/><path d="M23,0H22a1,1,0,0,0,0,2h1a1,1,0,0,0,0-2Z"/><path d="M17.5,17H15.24a.249.249,0,0,0-.249.231,3,3,0,0,1-5.982,0A.251.251,0,0,0,8.76,17H8.5A2.5,2.5,0,0,0,6,19.5v1a1.491,1.491,0,0,0,.5,1.11V23a1,1,0,0,0,2,0v-.75A.25.25,0,0,1,8.75,22h8.5a.25.25,0,0,1,.25.25V23a1,1,0,0,0,2,0V21.61A1.491,1.491,0,0,0,20,20.5v-1A2.5,2.5,0,0,0,17.5,17Z"/><path d="M12,19a2,2,0,1,0-2-2A2,2,0,0,0,12,19Zm-.75-2a.75.75,0,1,1,.75.75A.75.75,0,0,1,11.25,17Z"/></svg>