<svg id="Bold" xmlns="http://www.w3.org/2000/svg" viewBox="0 0 24 24"><title>video-game-mario-question-box</title><path d="M22.5,0H1.5A1.5,1.5,0,0,0,0,1.5v21A1.5,1.5,0,0,0,1.5,24h21A1.5,1.5,0,0,0,24,22.5V1.5A1.5,1.5,0,0,0,22.5,0ZM3,22a1,1,0,1,1,1-1A1,1,0,0,1,3,22ZM3,4A1,1,0,1,1,4,3,1,1,0,0,1,3,4Zm9,17.5A1.5,1.5,0,1,1,13.5,20,1.5,1.5,0,0,1,12,21.5Zm1.5-7.2V16a.5.5,0,0,1-.5.5H11a.5.5,0,0,1-.5-.5V12.5a1,1,0,0,1,1-1H12a2.5,2.5,0,0,0,2.414-3.166,2.47,2.47,0,0,0-1.748-1.748,2.506,2.506,0,0,0-3.135,2.02A.486.486,0,0,1,9.044,9H7.025a.493.493,0,0,1-.5-.524A5.5,5.5,0,1,1,13.5,14.3ZM21,22a1,1,0,1,1,1-1A1,1,0,0,1,21,22ZM21,4a1,1,0,1,1,1-1A1,1,0,0,1,21,4Z"/></svg>