<svg id="Bold" xmlns="http://www.w3.org/2000/svg" viewBox="0 0 24 24"><title>video-game-disk-controller</title><path d="M11.33,15.459h7.8a1,1,0,0,0,.909-.582A10.5,10.5,0,1,0,5.686,19.829a.5.5,0,0,0,.721-.346,5.02,5.02,0,0,1,4.92-4.024Zm3.1-6.45L18.2,7.391a.5.5,0,0,1,.678.317,9.032,9.032,0,0,1,0,5.1.5.5,0,0,1-.677.318l-3.683-1.581a.5.5,0,0,1-.3-.528,3.793,3.793,0,0,0,.035-.514,3.737,3.737,0,0,0-.112-.91A.5.5,0,0,1,14.426,9.009ZM7.285,8.572a.5.5,0,0,1-.614.206L2.859,7.257a.5.5,0,0,1-.253-.7,9.038,9.038,0,0,1,3.6-3.6.5.5,0,0,1,.7.255L8.4,6.928a.5.5,0,0,1-.162.583A3.789,3.789,0,0,0,7.285,8.572ZM8.25,10.5a2.25,2.25,0,1,1,2.25,2.25A2.253,2.253,0,0,1,8.25,10.5Z"/><path d="M20.481,16.96l-9.152,0a3.52,3.52,0,0,0,0,7.04,3.393,3.393,0,0,0,2.256-.843,1,1,0,0,1,.659-.247h3.321a1,1,0,0,1,.659.248A3.394,3.394,0,0,0,20.479,24a3.52,3.52,0,1,0,0-7.04Zm-8.22,4.019h-.215a.5.5,0,0,0-.5.5v.214a.5.5,0,0,1-1,0v-.213a.5.5,0,0,0-.5-.5H9.833a.5.5,0,1,1,0-1h.214a.5.5,0,0,0,.5-.5v-.215a.5.5,0,0,1,1,0v.214a.5.5,0,0,0,.5.5h.214a.5.5,0,0,1,0,1Zm6.679.251a.75.75,0,1,1,.75-.75A.75.75,0,0,1,18.94,21.23Zm1.619,1.619a.75.75,0,1,1,.75-.75A.75.75,0,0,1,20.559,22.849Zm0-3.238a.75.75,0,1,1,.75-.75A.75.75,0,0,1,20.56,19.611Zm1.618,1.619a.75.75,0,1,1,.75-.75A.75.75,0,0,1,22.178,21.23Z"/></svg>