<svg id="Bold" xmlns="http://www.w3.org/2000/svg" viewBox="0 0 24 24"><title>video-game-wii-music</title><path d="M5,13V4.585a1.032,1.032,0,0,1,.853-.993L11.288,2.02A1,1,0,0,1,12.5,3V7a.5.5,0,0,1-.5.5A2.5,2.5,0,1,0,14.5,10V3A2.986,2.986,0,0,0,13.382.66,3.019,3.019,0,0,0,10.8.082L5.362,1.654A3.019,3.019,0,0,0,3,4.585V10a.5.5,0,0,1-.5.5A2.5,2.5,0,1,0,5,13Z"/><path d="M19.5,15H8.5a4.5,4.5,0,1,0,3.877,6.749.5.5,0,0,1,.433-.249h2.38a.5.5,0,0,1,.433.249A4.492,4.492,0,1,0,19.5,15ZM10,20.247H9.75a.5.5,0,0,0-.5.5V21a.75.75,0,0,1-1.5,0v-.25a.5.5,0,0,0-.5-.5H7a.75.75,0,0,1,0-1.5h.25a.5.5,0,0,0,.5-.5V18a.75.75,0,0,1,1.5,0v.25a.5.5,0,0,0,.5.5H10a.75.75,0,0,1,0,1.5Zm7.75-.05a.75.75,0,1,1,.75-.75A.75.75,0,0,1,17.75,20.2Zm2,2a.75.75,0,1,1,.75-.75A.75.75,0,0,1,19.75,22.2Zm0-4a.75.75,0,1,1,.75-.75A.75.75,0,0,1,19.75,18.2Zm2,2a.75.75,0,1,1,.75-.75A.75.75,0,0,1,21.75,20.2Z"/></svg>