<svg id="Bold" xmlns="http://www.w3.org/2000/svg" viewBox="0 0 24 24"><title>video-game-cat</title><path d="M23.106,9.95A1,1,0,0,1,23,9.5V2.75a1,1,0,0,0-1.79-.614L18.662,5.261a.5.5,0,0,1-.639.116A11.992,11.992,0,0,0,6.447,5.109a.5.5,0,0,1-.574-.08L2.709,2.045A.986.986,0,0,0,2,1.75a1,1,0,0,0-1,1V9.519a1,1,0,0,1-.1.446A8.491,8.491,0,0,0,8.5,22.25h7a8.5,8.5,0,0,0,7.606-12.3Zm-9.856,3.3a.75.75,0,0,1-1.5,0v-2a.75.75,0,0,1,1.5,0Zm5.25,4.5a2,2,0,0,1-4,0v-1.5a.5.5,0,0,1,.5-.5h3a.5.5,0,0,1,.5.5Zm1.75-4.5a.75.75,0,0,1-1.5,0v-2a.75.75,0,0,1,1.5,0Z"/></svg>