<svg id="Bold" xmlns="http://www.w3.org/2000/svg" viewBox="0 0 24 24"><title>video-game-control-directions</title><path d="M23.579,11.215A2.345,2.345,0,0,0,24,9.875,2.377,2.377,0,0,0,21.625,7.5H20a.75.75,0,0,0-.75.75v6.5a.75.75,0,0,0,.75.75h1.625A2.377,2.377,0,0,0,24,13.125a2.345,2.345,0,0,0-.421-1.34A.5.5,0,0,1,23.579,11.215ZM21.625,14H21.25a.5.5,0,0,1-.5-.5v-.75a.5.5,0,0,1,.5-.5h.375a.875.875,0,0,1,0,1.75Zm0-3.25H21.25a.5.5,0,0,1-.5-.5V9.5a.5.5,0,0,1,.5-.5h.375a.875.875,0,0,1,0,1.75Z"/><path d="M14.667,15.833A2.419,2.419,0,0,0,12.25,18.25v5a.75.75,0,0,0,1.5,0V22a.5.5,0,0,1,.5-.5h.833a.5.5,0,0,1,.5.5v1.25a.75.75,0,0,0,1.5,0v-5A2.419,2.419,0,0,0,14.667,15.833Zm.916,3.667a.5.5,0,0,1-.5.5H14.25a.5.5,0,0,1-.5-.5V18.25a.917.917,0,1,1,1.833,0Z"/><path d="M16,9.73V6.27a1.656,1.656,0,0,0-1.654-1.655H11.885a.5.5,0,0,1-.5-.5V1.654A1.656,1.656,0,0,0,9.731,0H6.269A1.656,1.656,0,0,0,4.615,1.654V4.115a.5.5,0,0,1-.5.5H1.654A1.656,1.656,0,0,0,0,6.27V9.73a1.656,1.656,0,0,0,1.654,1.655H4.115a.5.5,0,0,1,.5.5v2.461A1.656,1.656,0,0,0,6.269,16H9.731a1.656,1.656,0,0,0,1.654-1.654V11.885a.5.5,0,0,1,.5-.5h2.461A1.656,1.656,0,0,0,16,9.73ZM4.25,9a.5.5,0,0,1-.854.354l-1.5-1a.5.5,0,0,1,0-.708l1.5-1A.5.5,0,0,1,4.25,7Zm5.1,3.6-1,1.5a.5.5,0,0,1-.708,0l-1-1.5A.5.5,0,0,1,7,11.75H9a.5.5,0,0,1,.354.854Zm.108-8.663A.5.5,0,0,1,9,4.25H7A.5.5,0,0,1,6.646,3.4l1-1.5a.5.5,0,0,1,.708,0l1,1.5A.5.5,0,0,1,9.462,3.941ZM14.1,8.354l-1.5,1A.5.5,0,0,1,11.75,9V7a.5.5,0,0,1,.854-.354l1.5,1A.5.5,0,0,1,14.1,8.354Z"/></svg>