<svg id="Bold" xmlns="http://www.w3.org/2000/svg" viewBox="0 0 24 24"><title>video-game-pacman-1</title><circle cx="13.534" cy="2.021" r="0.75"/><circle cx="16.75" cy="1.25" r="1.25"/><circle cx="10.75" cy="14.25" r="0.75"/><path d="M14.833,7.483h0a.5.5,0,0,1-.333-.47V6.5A.5.5,0,0,1,15,6h1a1,1,0,0,0,0-2H8A1,1,0,0,0,8,6H9a.5.5,0,0,1,.5.5v.513a.5.5,0,0,1-.333.47,8.5,8.5,0,1,0,5.666,0Zm-.024,12.07a4.5,4.5,0,1,1,0-7.107.5.5,0,0,1,.046.748c-.337.336-.96.96-2.094,2.094a1.006,1.006,0,0,0,0,1.419l2.1,2.1a.5.5,0,0,1-.045.747Z"/></svg>