<svg xmlns="http://www.w3.org/2000/svg" viewBox="0 0 24 24"><title>video-game-logo-dota2</title><path d="M24,1.5A1.5,1.5,0,0,0,22.5,0H1.5A1.5,1.5,0,0,0,0,1.5v21A1.5,1.5,0,0,0,1.5,24h21A1.5,1.5,0,0,0,24,22.5ZM15.227,4.728,18.234,3.6a.5.5,0,0,1,.488.077l2.006,1.605a.5.5,0,0,1,.162.549l-1.134,3.4a.5.5,0,0,1-.828.2L15.049,5.549A.5.5,0,0,1,15.227,4.728ZM9.62,19.408a.5.5,0,0,1-.31.351L6.272,20.9a.5.5,0,0,1-.5-.084L3.29,18.742a.5.5,0,0,1-.136-.587L4.689,14.7a.5.5,0,0,1,.827-.133L9.5,18.954A.5.5,0,0,1,9.62,19.408ZM20.8,15.825a.5.5,0,0,1,.17.441l-.419,3.348a.5.5,0,0,1-.434.434l-3.351.419a.5.5,0,0,1-.438-.167L3.039,5.116A.5.5,0,0,1,3.294,4.3l2.955-.739a.5.5,0,0,1,.447.106Z"/></svg>