<svg xmlns="http://www.w3.org/2000/svg" viewBox="0 0 24 24"><title>video-game-logo-creeper</title><path d="M13.75,11.5V10a.25.25,0,0,0-.25-.25h-3a.25.25,0,0,0-.25.25v1.5A1.252,1.252,0,0,1,9,12.75H7.5a.25.25,0,0,0-.25.25v5.5a.25.25,0,0,0,.25.25h1a.25.25,0,0,0,.25-.25v-1A1.252,1.252,0,0,1,10,16.25h4a1.252,1.252,0,0,1,1.25,1.25v1a.25.25,0,0,0,.25.25h1a.25.25,0,0,0,.25-.25V13a.25.25,0,0,0-.25-.25H15A1.252,1.252,0,0,1,13.75,11.5Z"/><rect x="5.25" y="5.25" width="3.5" height="3" rx="0.25" ry="0.25"/><rect x="15.25" y="5.25" width="3.5" height="3" rx="0.25" ry="0.25"/><path d="M22.5,0H1.5A1.5,1.5,0,0,0,0,1.5v21A1.5,1.5,0,0,0,1.5,24h21A1.5,1.5,0,0,0,24,22.5V1.5A1.5,1.5,0,0,0,22.5,0ZM20.25,8.5A1.252,1.252,0,0,1,19,9.75H15.5a.25.25,0,0,0-.25.25v1a.25.25,0,0,0,.25.25H17a1.252,1.252,0,0,1,1.25,1.25V19A1.252,1.252,0,0,1,17,20.25H15A1.252,1.252,0,0,1,13.75,19V18a.25.25,0,0,0-.25-.25h-3a.25.25,0,0,0-.25.25v1A1.252,1.252,0,0,1,9,20.25H7A1.252,1.252,0,0,1,5.75,19V12.5A1.252,1.252,0,0,1,7,11.25H8.5A.25.25,0,0,0,8.75,11V10a.25.25,0,0,0-.25-.25H5A1.252,1.252,0,0,1,3.75,8.5V5A1.252,1.252,0,0,1,5,3.75H9A1.252,1.252,0,0,1,10.25,5V8a.25.25,0,0,0,.25.25h3A.25.25,0,0,0,13.75,8V5A1.252,1.252,0,0,1,15,3.75h4A1.252,1.252,0,0,1,20.25,5Z"/></svg>