<svg id="Bold" xmlns="http://www.w3.org/2000/svg" viewBox="0 0 24 24"><title>video-game-flower-enemy</title><path d="M9.363,18.979l-.9-2.55a2.487,2.487,0,0,0-1.815-1.608l-2.725-.6A1,1,0,0,0,2.76,15.525l.9,2.552a2.487,2.487,0,0,0,1.815,1.607l2.728.606a1,1,0,0,0,1.158-1.311Z"/><path d="M21.257,18.6a1,1,0,0,0-.743-.694L17.787,17.3a2.482,2.482,0,0,0-2.324.687l-1.9,1.93a1,1,0,0,0,.5,1.678l2.727.605a2.573,2.573,0,0,0,.549.061,2.485,2.485,0,0,0,1.776-.748l1.9-1.929A1,1,0,0,0,21.257,18.6Z"/><path d="M14.251,13.837a5.775,5.775,0,0,0,4.365-4.769l.372-2.686a1,1,0,0,1,.3-.585l.278-.267A3.11,3.11,0,1,0,15.421.9l-2.146,2.1a.5.5,0,0,1-.7,0l-2.14-2.1a3.11,3.11,0,0,0-5.307,2.2A3.053,3.053,0,0,0,6.223,5.476l.34.325a1,1,0,0,1,.3.585l.371,2.685a5.778,5.778,0,0,0,4.253,4.743.5.5,0,0,1,.37.532A24.536,24.536,0,0,1,9.3,22.519a1,1,0,1,0,1.753.962,25.887,25.887,0,0,0,2.818-9.2A.5.5,0,0,1,14.251,13.837ZM11,7.279l-3.451-3.3A1.11,1.11,0,1,1,9.028,2.331l3.2,3.133a1,1,0,0,0,1.4,0l3.2-3.139a1.109,1.109,0,0,1,1.894.784,1.174,1.174,0,0,1-.479.923L14.853,7.28a2.941,2.941,0,0,1-3.857,0Z"/></svg>