<svg id="Bold" xmlns="http://www.w3.org/2000/svg" viewBox="0 0 24 24"><title>video-game-angry-birds</title><circle cx="15" cy="11.502" r="1"/><circle cx="9" cy="11.502" r="1"/><path d="M12,3a6.561,6.561,0,0,0-.784.048.5.5,0,0,1-.531-.327L9.94.662a1,1,0,1,0-1.88.68L8.785,3.35a.25.25,0,0,1-.368.3L6.03,2.155a1,1,0,1,0-1.06,1.7l1.437.9a.5.5,0,0,1,.085.781A16.016,16.016,0,0,0,2,16c0,5.01,3.738,8,10,8s10-2.988,10-8C22,10.768,17.8,3,12,3Zm4.29,15.849A18.278,18.278,0,0,1,12,20.5a18.278,18.278,0,0,1-4.29-1.651.5.5,0,0,1-.09-.844C8.714,17.154,10.968,15.5,12,15.5s3.286,1.652,4.38,2.505a.5.5,0,0,1-.09.844ZM17.4,12.205a2.45,2.45,0,0,1-1.653,1.688,2.509,2.509,0,0,1-3.148-1.68.625.625,0,0,0-1.206,0,2.509,2.509,0,0,1-3.148,1.68A2.45,2.45,0,0,1,6.6,12.205,2.509,2.509,0,0,1,7.855,9.28a.251.251,0,0,0,.036-.423L7.55,8.6a.75.75,0,1,1,.9-1.2L11.4,9.615a1,1,0,0,0,1.2,0L15.55,7.4a.75.75,0,1,1,.9,1.2l-.341.255a.254.254,0,0,0-.1.221.251.251,0,0,0,.135.2A2.509,2.509,0,0,1,17.4,12.205Z"/></svg>