<svg id="Bold" xmlns="http://www.w3.org/2000/svg" viewBox="0 0 24 24"><title>video-game-control-gear</title><path d="M14,13.5v1a.5.5,0,0,0,.5.5h5a.5.5,0,0,0,.5-.5v-1A1.505,1.505,0,0,0,18.5,12h-3A1.506,1.506,0,0,0,14,13.5Z"/><path d="M21.5,16h-10a.5.5,0,0,1-.5-.5V10.124a.5.5,0,0,1,.318-.466,5,5,0,1,0-3.636,0A.5.5,0,0,1,8,10.124V15.5a.5.5,0,0,1-.5.5h-5a1,1,0,0,0-1,1v2a.5.5,0,0,0,.5.5H22a.5.5,0,0,0,.5-.5V17A1,1,0,0,0,21.5,16Z"/><path d="M20.91,21H3.09a.5.5,0,0,0-.493.582l.321,1.925A.612.612,0,0,0,3.5,24h17a.612.612,0,0,0,.582-.493l.321-1.925A.5.5,0,0,0,20.91,21Z"/></svg>