<svg id="Bold" xmlns="http://www.w3.org/2000/svg" viewBox="0 0 24 24"><title>video-game-mario-enemy</title><path d="M9.319,14.45a2.5,2.5,0,0,0,2.5-2.5,2.381,2.381,0,0,0-.114-.725.5.5,0,0,0-.6-.331,18.668,18.668,0,0,1-3.806.568.5.5,0,0,0-.476.5A2.5,2.5,0,0,0,9.319,14.45Z"/><path d="M18.316,11.886a.468.468,0,0,1,.506-.413c.206.018.4.027.547.027a4,4,0,0,0,3.916-4.832,4.028,4.028,0,0,0-3.493-3.137.5.5,0,0,1-.438-.5V2.5a2.5,2.5,0,0,0-5,0,.7.7,0,0,1-.315.587A4.462,4.462,0,0,0,11.869,7,5.692,5.692,0,0,0,12.8,9.93a3.01,3.01,0,0,1,.406,1.012,5.237,5.237,0,0,1,.11,1.008A3.991,3.991,0,1,1,5.338,11.9a.439.439,0,0,0-.409-.446A15.377,15.377,0,0,1,1.9,10.964a1,1,0,0,0-1.093.4A.985.985,0,0,0,.823,12.51l3.1,4.306a8.784,8.784,0,0,0,2.233,1.916c.908.575,1.214.768,1.214,3.768A1.658,1.658,0,0,0,8.788,24h5.066c1.327,0,2-.5,2-1.5a2,2,0,0,0-2-2h-.37a.25.25,0,0,1-.168-.435,7.109,7.109,0,0,1,1.1-.8,5.982,5.982,0,0,0,1.945-1.743A.5.5,0,0,1,17,17.376l.727.382a1.751,1.751,0,0,0,2.639-1.508,1.738,1.738,0,0,0-1.076-1.613L18.228,14.1a.5.5,0,0,1-.258-.583A9.882,9.882,0,0,0,18.316,11.886ZM17.6,6.5a.75.75,0,0,1-1.5,0V5a.75.75,0,0,1,1.5,0Z"/></svg>