<svg id="Bold" xmlns="http://www.w3.org/2000/svg" viewBox="0 0 24 24"><title>video-game-the-sims</title><path d="M22.75,19h-.5a.25.25,0,0,1-.25-.25v-.5a.75.75,0,0,0-1.5,0v.5a.25.25,0,0,1-.25.25h-.5a.75.75,0,0,0,0,1.5h.5a.25.25,0,0,1,.25.25v.5a.75.75,0,0,0,1.5,0v-.5a.25.25,0,0,1,.25-.25h.5a.75.75,0,0,0,0-1.5Z"/><path d="M4.25,3a.75.75,0,0,0,0-1.5h-.5a.25.25,0,0,1-.25-.25V.75A.75.75,0,0,0,2,.75v.5a.25.25,0,0,1-.25.25h-.5a.75.75,0,0,0,0,1.5h.5A.25.25,0,0,1,2,3.25v.5a.75.75,0,0,0,1.5,0v-.5A.25.25,0,0,1,3.75,3Z"/><path d="M16.726,11.25h2.731a.3.3,0,0,0,.25-.466l-4.78-7.17a.25.25,0,0,0-.451.2l1.765,7.058A.5.5,0,0,0,16.726,11.25Z"/><path d="M19.722,12.908a.3.3,0,0,0-.265-.158H16.726a.5.5,0,0,0-.485.379l-1.765,7.058a.25.25,0,0,0,.451.2l4.78-7.17A.3.3,0,0,0,19.722,12.908Z"/><path d="M3.778,11.092a.3.3,0,0,0,.265.158H6.774a.5.5,0,0,0,.485-.379L9.024,3.813a.25.25,0,0,0-.451-.2l-4.78,7.17A.3.3,0,0,0,3.778,11.092Z"/><path d="M6.774,12.75H4.043a.3.3,0,0,0-.25.466l4.78,7.17a.25.25,0,0,0,.451-.2L7.259,13.129A.5.5,0,0,0,6.774,12.75Z"/><path d="M8.956,11.058a.5.5,0,0,0,.394.192h4.8a.5.5,0,0,0,.485-.621L12.044.23a.3.3,0,0,0-.588,0l-2.591,10.4A.5.5,0,0,0,8.956,11.058Z"/><path d="M14.544,12.942a.5.5,0,0,0-.394-.192H9.35a.5.5,0,0,0-.485.621l2.591,10.4a.3.3,0,0,0,.588,0l2.591-10.4A.5.5,0,0,0,14.544,12.942Z"/></svg>