<svg id="Bold" xmlns="http://www.w3.org/2000/svg" viewBox="0 0 24 24"><title>video-game-controller</title><path d="M6,3.75H9a2,2,0,0,1,2,2v4.5a1,1,0,0,0,2,0V5.75a4,4,0,0,0-4-4H6a1,1,0,0,0,0,2Z"/><path d="M18.5,11.25a5.489,5.489,0,0,0-3.637,1.375.5.5,0,0,1-.331.125H9.468a.5.5,0,0,1-.33-.125,5.5,5.5,0,1,0,0,8.25.5.5,0,0,1,.331-.125h5.064a.5.5,0,0,1,.33.125A5.5,5.5,0,1,0,18.5,11.25Zm-11.25,6H6.5a.5.5,0,0,0-.5.5v.75a.75.75,0,0,1-1.5,0v-.75a.5.5,0,0,0-.5-.5H3.25a.75.75,0,0,1,0-1.5H4a.5.5,0,0,0,.5-.5V14.5a.75.75,0,0,1,1.5,0v.75a.5.5,0,0,0,.5.5h.75a.75.75,0,0,1,0,1.5Zm8.75.5a1,1,0,1,1,1-1A1,1,0,0,1,16,17.75Zm2.5,2.5a1,1,0,1,1,1-1A1,1,0,0,1,18.5,20.25Zm0-5a1,1,0,1,1,1-1A1,1,0,0,1,18.5,15.25Zm2.5,2.5a1,1,0,1,1,1-1A1,1,0,0,1,21,17.75Z"/></svg>