<svg id="Bold" xmlns="http://www.w3.org/2000/svg" viewBox="0 0 24 24"><title>video-game-flappy-bird</title><path d="M21,11.25a.858.858,0,0,1-.85-.735A8.482,8.482,0,0,0,5.126,6.442a1,1,0,0,1-.917.365L1.136,6.385A1,1,0,0,0,0,7.375v.563a4.946,4.946,0,0,0,1.687,3.716v.784a4.383,4.383,0,0,0,2.271,3.836A4.938,4.938,0,0,0,8.875,20.75a6.572,6.572,0,0,0,2.366-.438,1.009,1.009,0,0,1,.4-.065,8.421,8.421,0,0,0,6.275-2.683,1,1,0,0,1,.728-.314H21a3,3,0,0,0,0-6ZM8.875,18.75a2.925,2.925,0,0,1-2.6-1.571.249.249,0,0,1,.222-.366h2.94a1,1,0,0,0,0-2H6.062a2.4,2.4,0,0,1-.788-.134A2.371,2.371,0,0,1,3.787,13.1a.251.251,0,0,1,.29-.314,4.321,4.321,0,0,0,.86.092H7.812a1,1,0,0,0,0-2H4.937a3,3,0,0,1-1.678-.526A2.944,2.944,0,0,1,2.167,8.913a.25.25,0,0,1,.27-.331L9.8,9.593a4.625,4.625,0,0,1-.926,9.157ZM16.25,10.5a.75.75,0,0,1-.75-.75V8.25a.75.75,0,0,1,1.5,0v1.5A.75.75,0,0,1,16.25,10.5ZM21,15.25H18a1,1,0,0,1,0-2h3a1,1,0,0,1,0,2Z"/></svg>