<svg id="Bold" xmlns="http://www.w3.org/2000/svg" viewBox="0 0 24 24"><title>video-game-tetris</title><path d="M22,2.5A2.5,2.5,0,0,0,19.5,0H4.5A2.5,2.5,0,0,0,2,2.5v19A2.5,2.5,0,0,0,4.5,24h15A2.5,2.5,0,0,0,22,21.5ZM10.5,19.25a.75.75,0,0,1-.75.75h-1a.25.25,0,0,0-.25.25v.984a.75.75,0,0,1-1.5,0V20.25A.25.25,0,0,0,6.75,20h-1a.75.75,0,0,1,0-1.5h1A.25.25,0,0,0,7,18.25v-.984a.75.75,0,0,1,1.5,0v.984a.25.25,0,0,0,.25.25h1A.75.75,0,0,1,10.5,19.25ZM15,22a1,1,0,1,1,1-1A1,1,0,0,1,15,22Zm2.5-2.5a1,1,0,1,1,1-1A1,1,0,0,1,17.5,19.5Zm1-5.5a.5.5,0,0,1-.5.5H11.5A.5.5,0,0,1,11,14V12h4.5A1.5,1.5,0,0,0,17,10.5v-4A1.5,1.5,0,0,0,15.5,5h-3a1,1,0,0,0,0,2h2a.5.5,0,0,1,.5.5v2a.5.5,0,0,1-.5.5h-4A1.5,1.5,0,0,0,9,11.5V14a.5.5,0,0,1-.5.5H6a.5.5,0,0,1-.5-.5V3.5A.5.5,0,0,1,6,3H18a.5.5,0,0,1,.5.5Z"/><circle cx="9" cy="6.25" r="1.5"/></svg>