<svg id="Bold" xmlns="http://www.w3.org/2000/svg" viewBox="0 0 24 24"><title>video-game-nintendo-1</title><path d="M22.5,0H1.5A1.5,1.5,0,0,0,0,1.5v9.25a.5.5,0,0,0,.5.5h23a.5.5,0,0,0,.5-.5V1.5A1.5,1.5,0,0,0,22.5,0Zm-4,8.5A.5.5,0,0,1,18,9H6a.5.5,0,0,1-.5-.5v-6A.5.5,0,0,1,6,2H18a.5.5,0,0,1,.5.5Z"/><path d="M23.5,12.75H.5a.5.5,0,0,0-.5.5V22.5A1.5,1.5,0,0,0,1.5,24h21A1.5,1.5,0,0,0,24,22.5V13.25A.5.5,0,0,0,23.5,12.75ZM20.25,16a.75.75,0,1,1-.75.75A.75.75,0,0,1,20.25,16ZM5.5,19.25H5a.25.25,0,0,0-.25.25V20a.75.75,0,0,1-1.5,0v-.5A.25.25,0,0,0,3,19.25H2.5a.75.75,0,0,1,0-1.5H3a.25.25,0,0,0,.25-.25V17a.75.75,0,0,1,1.5,0v.5a.25.25,0,0,0,.25.25h.5a.75.75,0,0,1,0,1.5Zm11,2.25a.5.5,0,0,1-.5.5H8a.5.5,0,0,1-.5-.5v-6A.5.5,0,0,1,8,15h8a.5.5,0,0,1,.5.5ZM18.75,19a.75.75,0,1,1,.75-.75A.75.75,0,0,1,18.75,19Zm1.5,1.5a.75.75,0,1,1,.75-.75A.75.75,0,0,1,20.25,20.5Zm1.5-1.5a.75.75,0,1,1,.75-.75A.75.75,0,0,1,21.75,19Z"/></svg>