<svg xmlns="http://www.w3.org/2000/svg" viewBox="0 0 24 24"><title>video-game-logo-heart</title><path d="M10.368,14.454a.5.5,0,0,0,0-.85l-3.1-1.926A.5.5,0,0,0,6.5,12.1v3.854a.5.5,0,0,0,.764.425Z"/><path d="M4.854,10.46a.5.5,0,0,0-.236-.425L.764,7.642A.5.5,0,0,0,0,8.067v4.785a.5.5,0,0,0,.764.425l3.854-2.392A.5.5,0,0,0,4.854,10.46Z"/><path d="M11.243,8.251a.5.5,0,0,0-.507.012L7.882,10.035a.5.5,0,0,0,0,.85l2.854,1.771a.5.5,0,0,0,.764-.425V8.688A.5.5,0,0,0,11.243,8.251Z"/><path d="M11.243,15.39a.5.5,0,0,0-.507.012l-3.387,2.1a.5.5,0,0,0,.03.866l3.387,1.794a.5.5,0,0,0,.734-.441v-3.9A.5.5,0,0,0,11.243,15.39Z"/><path d="M11.247,5.932l-4.015-2.1a.5.5,0,0,0-.732.443V8.817a.5.5,0,0,0,.764.425l4.013-2.491a.472.472,0,0,0-.03-.819Z"/><path d="M4.752,3.89l-3.512,2a.5.5,0,0,0-.016.859l3.512,2.18A.5.5,0,0,0,5.5,8.507V4.324a.5.5,0,0,0-.748-.434Z"/><path d="M5.243,11.976a.5.5,0,0,0-.507.012l-3.592,2.23a.5.5,0,0,0,.029.867l3.593,1.9a.5.5,0,0,0,.734-.442V12.413A.5.5,0,0,0,5.243,11.976Z"/><path d="M17.243,11.665a.5.5,0,0,0-.507.013l-3.1,1.926a.5.5,0,0,0,0,.85l3.1,1.927a.5.5,0,0,0,.764-.425V12.1A.5.5,0,0,0,17.243,11.665Z"/><path d="M23.743,7.63a.5.5,0,0,0-.507.012l-3.854,2.393a.5.5,0,0,0,0,.85l3.854,2.392A.5.5,0,0,0,24,12.852V8.067A.5.5,0,0,0,23.743,7.63Z"/><path d="M12.757,12.668a.5.5,0,0,0,.507-.012l2.854-1.771a.5.5,0,0,0,0-.85L13.264,8.263a.5.5,0,0,0-.764.425v3.543A.5.5,0,0,0,12.757,12.668Z"/><path d="M13.264,15.4a.5.5,0,0,0-.764.425v3.9a.5.5,0,0,0,.734.441l3.387-1.794a.5.5,0,0,0,.03-.866Z"/><path d="M16.768,3.833l-4.015,2.1a.472.472,0,0,0-.03.819l4.013,2.491a.5.5,0,0,0,.764-.425V4.276a.5.5,0,0,0-.732-.443Z"/><path d="M18.757,8.944a.5.5,0,0,0,.507-.013l3.512-2.18a.5.5,0,0,0-.016-.859l-3.512-2a.5.5,0,0,0-.748.434V8.507A.5.5,0,0,0,18.757,8.944Z"/><path d="M19.264,11.988a.5.5,0,0,0-.764.425v4.133a.5.5,0,0,0,.734.442l3.593-1.9a.5.5,0,0,0,.029-.867Z"/></svg>