<svg xmlns="http://www.w3.org/2000/svg" viewBox="0 0 24 24"><title>video-game-logo-xbox-1</title><path d="M7.065,3.1a17.232,17.232,0,0,1,4.549,1.216,1,1,0,0,0,.771,0A17.242,17.242,0,0,1,16.936,3.1,1,1,0,0,0,17.258,1.2h0a12.081,12.081,0,0,0-10.514,0A1,1,0,0,0,7.065,3.1Z"/><path d="M20.939,19.479c-.491-3.932-4.627-8.344-8.335-11.163a1.007,1.007,0,0,0-1.209,0c-3.707,2.819-7.843,7.23-8.334,11.163a.994.994,0,0,0,.267.814A11.853,11.853,0,0,0,12,24a11.852,11.852,0,0,0,8.671-3.706,1,1,0,0,0,.268-.815Z"/><path d="M7.922,6.952A1,1,0,0,0,7.73,5.269,14.047,14.047,0,0,0,3.707,3.938a.992.992,0,0,0-.9.347A12.038,12.038,0,0,0,.724,16.119a1,1,0,0,0,1.933-.232A13.465,13.465,0,0,1,7.922,6.952Z"/><path d="M16.078,6.952a1,1,0,0,1,.192-1.683,14.084,14.084,0,0,1,4.023-1.332,1,1,0,0,1,.9.348,12.038,12.038,0,0,1,2.079,11.834,1,1,0,0,1-1.933-.232A13.465,13.465,0,0,0,16.078,6.952Z"/></svg>