<svg id="Bold" xmlns="http://www.w3.org/2000/svg" viewBox="0 0 24 24"><title>video-game-mario-1</title><path d="M14.719,19.212a.557.557,0,0,0-.069-.745l-1.36-1.225a.751.751,0,0,1,1-1.116l4.131,3.723A1.984,1.984,0,0,1,19,21.25a1.849,1.849,0,0,1-.078.536l-.009.031a.744.744,0,0,0,.123.616l.016.02a.734.734,0,0,0,.6.3h1.6A2.253,2.253,0,0,0,23.5,20.5V19.04a2.273,2.273,0,0,0-.314-1.135l0,0-3.4-5.78A.247.247,0,0,1,20,11.75a3.995,3.995,0,0,0,.409-7.969,1,1,0,0,1-.714-.434,4.762,4.762,0,0,0-3.945-2.1,3.576,3.576,0,0,0-3.694,3.083.5.5,0,0,1-.492.417H11a5.006,5.006,0,0,0-5,5,4.828,4.828,0,0,0,.031.55.468.468,0,0,1-.385.514,3.822,3.822,0,0,0-2.054,1.041A3.758,3.758,0,0,0,2.5,14.5a3.7,3.7,0,0,0,.667,2.128.5.5,0,0,1-.042.624L.348,20.29c-.011.012-.022.025-.032.038A1.531,1.531,0,0,0,0,21.25a1.5,1.5,0,0,0,1.5,1.5H5a1,1,0,0,0,1-1,.921.921,0,0,0-.2-.587.357.357,0,0,0-.049-.054L5.6,20.966a.5.5,0,0,1,.068-.778l3.506-2.337a.5.5,0,0,1,.358-.078A1.752,1.752,0,0,1,11,19.5V22a.742.742,0,0,0,.75.75h3.29a.957.957,0,0,0,.677-1.637l-.934-.933A.735.735,0,0,1,14.719,19.212ZM17,9.75a2.482,2.482,0,0,1-1.356-.4A1.741,1.741,0,0,1,15,8a2,2,0,0,1,.627-1.472A1,1,0,0,0,16,5.75V3.878a.5.5,0,0,1,.666-.472,2.744,2.744,0,0,1,1.681,1.676,1,1,0,0,0,.943.668H20a2,2,0,0,1,0,4Z"/></svg>