<svg id="Bold" xmlns="http://www.w3.org/2000/svg" viewBox="0 0 24 24"><title>video-game-mario-flower-2</title><path d="M24,7a7.008,7.008,0,0,0-7-7H7A7,7,0,0,0,7,14h4v9a1,1,0,0,0,2,0V14h4A7.008,7.008,0,0,0,24,7ZM7.5,10.5a3.5,3.5,0,0,1,0-7h9a3.5,3.5,0,0,1,0,7Z"/><path d="M8.309,19.382A2.485,2.485,0,0,0,6.073,18H3a1,1,0,0,0-.895,1.447l1.586,3.171A2.485,2.485,0,0,0,5.927,24H9A1,1,0,0,0,9.9,22.553Z"/><path d="M21,18H17.927a2.485,2.485,0,0,0-2.236,1.382l-1.586,3.171A1,1,0,0,0,15,24h3.073a2.485,2.485,0,0,0,2.236-1.382L21.9,19.447A1,1,0,0,0,21,18Z"/><path d="M9.5,5a1,1,0,0,0-1,1V8a1,1,0,0,0,2,0V6A1,1,0,0,0,9.5,5Z"/><path d="M14.5,5a1,1,0,0,0-1,1V8a1,1,0,0,0,2,0V6A1,1,0,0,0,14.5,5Z"/></svg>