<svg id="Bold" xmlns="http://www.w3.org/2000/svg" viewBox="0 0 24 24"><title>video-game-flower-3</title><path d="M8.75,11.5v1a.75.75,0,0,0,1.5,0v-1a.75.75,0,0,0-1.5,0Z"/><path d="M13.75,11.5v1a.75.75,0,0,0,1.5,0v-1a.75.75,0,0,0-1.5,0Z"/><path d="M14.962,15.256a.5.5,0,0,0-.461-.307h-5a.5.5,0,0,0-.357.85,4,4,0,0,0,5.715,0A.5.5,0,0,0,14.962,15.256Z"/><path d="M8.693,5.633a.5.5,0,0,0,.6.082,5.455,5.455,0,0,1,1.563-.589.5.5,0,0,0,.4-.49l0-4.048a.5.5,0,0,0-.561-.5,10.727,10.727,0,0,0-4.85,1.856.5.5,0,0,0-.068.764Z"/><path d="M1.723,10.75H6a.5.5,0,0,0,.5-.48A5.4,5.4,0,0,1,7.575,7.24a.5.5,0,0,0-.047-.652L4.613,3.673a.5.5,0,0,0-.73.025,10.732,10.732,0,0,0-2.659,6.525.5.5,0,0,0,.5.527Z"/><path d="M7.39,16.989A5.451,5.451,0,0,1,6.5,14V12.75a.5.5,0,0,0-.5-.5H1.707a.5.5,0,0,0-.5.5v.457A10.733,10.733,0,0,0,3.883,20.3a.5.5,0,0,0,.73.025l2.711-2.712A.5.5,0,0,0,7.39,16.989Z"/><path d="M22.293,12.25H18a.5.5,0,0,0-.5.5V14a5.451,5.451,0,0,1-.89,2.989.5.5,0,0,0,.066.626l2.711,2.712a.5.5,0,0,0,.73-.025,10.733,10.733,0,0,0,2.676-7.095V12.75A.5.5,0,0,0,22.293,12.25Z"/><path d="M16.425,7.239a5.434,5.434,0,0,1,1.07,3.032.5.5,0,0,0,.5.479h4.282a.5.5,0,0,0,.5-.527A10.732,10.732,0,0,0,20.117,3.7a.5.5,0,0,0-.73-.025L16.473,6.588A.5.5,0,0,0,16.425,7.239Z"/><path d="M10.5,7.25A.75.75,0,0,0,9.75,8a2.25,2.25,0,0,0,4.5,0V5.993a.311.311,0,0,1,.461-.273.5.5,0,0,0,.593-.085l2.924-2.924a.5.5,0,0,0-.067-.764A10.715,10.715,0,0,0,13.311.092a.5.5,0,0,0-.561.5V8a.75.75,0,0,1-1.5,0A.75.75,0,0,0,10.5,7.25Z"/><path d="M10.853,19.373A5.467,5.467,0,0,1,9.01,18.61a.5.5,0,0,0-.625.066L5.771,21.289a.5.5,0,0,0,.068.764,10.71,10.71,0,0,0,4.85,1.855.5.5,0,0,0,.561-.5l0-3.55A.5.5,0,0,0,10.853,19.373Z"/><path d="M15.615,18.676a.5.5,0,0,0-.625-.066,5.459,5.459,0,0,1-1.845.764.5.5,0,0,0-.4.489v3.549a.5.5,0,0,0,.561.5,10.727,10.727,0,0,0,4.85-1.856.5.5,0,0,0,.068-.764Z"/></svg>