<svg xmlns="http://www.w3.org/2000/svg" viewBox="0 0 24 24"><title>video-game-logo-obs</title><path d="M12,0A12,12,0,1,0,24,12,12.013,12.013,0,0,0,12,0Zm8.227,16.75A.534.534,0,0,1,20,16.083a3.5,3.5,0,1,0-6.08.709,1,1,0,0,1-.06,1.241A6.5,6.5,0,0,1,3.617,17.44a.481.481,0,0,1,.156-.69.534.534,0,0,1,.691.137,3.5,3.5,0,1,0,2.426-5.62A1,1,0,0,1,5.845,10.6,6.5,6.5,0,0,1,11.48,2.021.48.48,0,0,1,12,2.5a.536.536,0,0,1-.464.531,3.5,3.5,0,1,0,3.654,4.91,1,1,0,0,1,1.1-.568A6.5,6.5,0,0,1,20.9,16.54.48.48,0,0,1,20.227,16.75Z"/></svg>