<svg id="Bold" xmlns="http://www.w3.org/2000/svg" viewBox="0 0 24 24"><title>video-game-bottle</title><path d="M7.619,2.716a7.662,7.662,0,0,1,1.53,1.816.5.5,0,0,0,.541.232,10.262,10.262,0,0,1,4.564-.014.5.5,0,0,0,.536-.228,7.068,7.068,0,0,1,1.52-1.746,3.346,3.346,0,0,0,1.078-1.571.918.918,0,0,0-.147-.817A.965.965,0,0,0,16.471,0H7.529a.965.965,0,0,0-.77.388.917.917,0,0,0-.147.816A3.324,3.324,0,0,0,7.619,2.716Z"/><path d="M22.448,18.992,20.487,12A9,9,0,0,0,3.5,12.032l-1.949,6.96A3.942,3.942,0,0,0,5.35,24h13.3a3.945,3.945,0,0,0,3.8-5.008ZM9.4,10.8c.214-.211.732-.713,2.082-2.08a.736.736,0,0,1,1.042,0c.793.8,1.673,1.66,2.081,2.091a.251.251,0,0,1-.071.4l-2.307,1.153a.5.5,0,0,1-.448,0L9.46,11.2a.25.25,0,0,1-.063-.4Zm-.344,7.223V12.8a.252.252,0,0,1,.118-.213.255.255,0,0,1,.244-.011l1.684.843a.5.5,0,0,1,.276.447v3.091a.5.5,0,0,1-.276.447l-1.684.842a.25.25,0,0,1-.362-.223Zm5.684,2.049c-.2.223-.7.677-2.216,2.216a.736.736,0,0,1-1.042,0c-1.51-1.538-2.014-1.991-2.216-2.217a.25.25,0,0,1,.075-.39l2.438-1.219a.5.5,0,0,1,.448,0l2.438,1.219a.251.251,0,0,1,.075.391Zm.21-2.05a.249.249,0,0,1-.361.224L12.9,17.4a.5.5,0,0,1-.276-.447V13.862a.5.5,0,0,1,.276-.447l1.685-.842a.248.248,0,0,1,.361.223Z"/></svg>