<svg xmlns="http://www.w3.org/2000/svg" viewBox="0 0 24 24"><title>vintage-man-1</title><path d="M7.762,17.574a.506.506,0,0,0-.448-.039L2.92,19.287A4.519,4.519,0,0,0,0,23.5a.5.5,0,0,0,.5.5H8a.5.5,0,0,0,.5-.545l-.5-5.5A.5.5,0,0,0,7.762,17.574Z"/><path d="M6.688,9.164a.747.747,0,0,0-1-.334,1.885,1.885,0,0,0-.932,1.809,2.726,2.726,0,0,0,1.435,2.432.251.251,0,0,1,.142.188C6.837,16.306,10.339,18.25,12,18.25s5.163-1.944,5.672-4.992a.251.251,0,0,1,.142-.187,2.726,2.726,0,0,0,1.435-2.432,1.885,1.885,0,0,0-.932-1.809.75.75,0,0,0-.671,1.341.627.627,0,0,1,.1.439,1.281,1.281,0,0,1-.557,1.1,1.752,1.752,0,0,0-1,1.306C15.816,15.26,13.029,16.75,12,16.75s-3.816-1.49-4.191-3.738a1.752,1.752,0,0,0-1-1.306,1.281,1.281,0,0,1-.557-1.1.627.627,0,0,1,.1-.439A.748.748,0,0,0,6.688,9.164Z"/><path d="M1.837,7.233A49.38,49.38,0,0,0,12,8.34,49.408,49.408,0,0,0,22.163,7.233a.75.75,0,0,0-.326-1.465c-1.139.253-2.291.446-3.449.608a.249.249,0,0,1-.273-.171L16.573,1.327A2,2,0,0,0,13.7.264L12.5.95a1,1,0,0,1-.992,0L10.3.264A2,2,0,0,0,7.421,1.345L5.885,6.2a.248.248,0,0,1-.273.172c-1.157-.162-2.31-.355-3.449-.608a.75.75,0,0,0-.326,1.465Z"/><path d="M21.09,19.29l-4.4-1.755a.5.5,0,0,0-.684.42l-.5,5.5A.5.5,0,0,0,16,24h7.5a.5.5,0,0,0,.5-.5A4.518,4.518,0,0,0,21.09,19.29Z"/><path d="M12.464,19.565a.52.52,0,0,0-.928,0l-1.5,3.749A.5.5,0,0,0,10.5,24h3a.5.5,0,0,0,.464-.686Z"/><path d="M11.929,13.656h0a2.16,2.16,0,0,1-.625-.089,1.5,1.5,0,0,1-.266-.109.6.6,0,0,0-.568,1.057,2.665,2.665,0,0,0,.482.2,3.43,3.43,0,0,0,.975.142h0a3.357,3.357,0,0,0,.971-.141,2.685,2.685,0,0,0,.485-.2.6.6,0,1,0-.573-1.055,1.368,1.368,0,0,1-.263.108A2.136,2.136,0,0,1,11.929,13.656Z"/><path d="M8.4,10.079a.6.6,0,1,0,.8.891.772.772,0,0,1,.827,0,.6.6,0,1,0,.8-.891A1.937,1.937,0,0,0,8.4,10.079Z"/><path d="M13.369,11.125a.6.6,0,0,0,.4-.155.774.774,0,0,1,.828,0,.6.6,0,1,0,.8-.891,1.935,1.935,0,0,0-2.434,0,.6.6,0,0,0,.4,1.046Z"/></svg>