<svg xmlns="http://www.w3.org/2000/svg" viewBox="0 0 24 24"><title>vintage-car</title><path d="M4.75,14.309a3.5,3.5,0,1,0,3.5,3.5A3.5,3.5,0,0,0,4.75,14.309Zm0,5a1.5,1.5,0,1,1,1.5-1.5A1.5,1.5,0,0,1,4.75,19.309Z"/><path d="M19.25,14.309a3.5,3.5,0,1,0,3.5,3.5A3.5,3.5,0,0,0,19.25,14.309Zm0,5a1.5,1.5,0,1,1,1.5-1.5A1.5,1.5,0,0,1,19.25,19.309Z"/><path d="M23.729,12.949a6.253,6.253,0,0,0-1.95-1.36.249.249,0,0,1-.136-.15,2,2,0,0,0-1.893-1.38h-1.5a2.5,2.5,0,0,0-2.435,1.957.251.251,0,0,1-.106.153.134.134,0,0,1-.209-.112V5.809a3.119,3.119,0,0,0-3.63-3.076l-2.055.342A2.764,2.764,0,0,0,7.5,5.809V10.25a.25.25,0,0,1-.333.236,7.281,7.281,0,0,0-2.417-.427H4a.25.25,0,0,1-.25-.25v-.5a.75.75,0,0,0-1.5,0v2.109a.25.25,0,0,1-.144.227,6.255,6.255,0,0,0-1.834,1.3A.954.954,0,0,0,0,13.617a1,1,0,0,0,.622.93,1,1,0,0,0,1.1-.223A4.216,4.216,0,0,1,4.75,13.059a4.2,4.2,0,0,1,4.232,3.863,1.246,1.246,0,0,0,1.245,1.137h3.546a1.246,1.246,0,0,0,1.245-1.138,4.254,4.254,0,0,1,7.258-2.6A1.007,1.007,0,0,0,24,13.617.957.957,0,0,0,23.729,12.949ZM13.5,9.826a.25.25,0,0,1-.25.25H9.75a.25.25,0,0,1-.25-.25V7.059a.25.25,0,0,1,.25-.25h3.5a.25.25,0,0,1,.25.25Z"/></svg>