<svg xmlns="http://www.w3.org/2000/svg" viewBox="0 0 24 24"><title>vintage-man-moustache-2</title><path d="M19.99,13.348a.5.5,0,0,0-.545-.6,6.751,6.751,0,0,1-1.291.035.249.249,0,0,1-.193-.38A6.966,6.966,0,0,0,19,8.75V8.189a.25.25,0,0,1,.211-.247c.848-.133,1.686-.284,2.506-.466a1,1,0,1,0-.434-1.952c-.885.2-1.8.353-2.714.489a.25.25,0,0,1-.271-.161A7.009,7.009,0,0,1,17.825,3.5a9.455,9.455,0,0,1,.151-1.741A1.473,1.473,0,0,0,17.66.544,1.5,1.5,0,0,0,16.5,0h-9A1.5,1.5,0,0,0,6.34.544a1.473,1.473,0,0,0-.316,1.215A9.455,9.455,0,0,1,6.175,3.5,7.019,7.019,0,0,1,5.7,5.852a.25.25,0,0,1-.271.161c-.919-.136-1.829-.292-2.714-.489a1,1,0,0,0-.434,1.952c.82.182,1.658.333,2.506.466A.25.25,0,0,1,5,8.189V8.75a6.966,6.966,0,0,0,1.039,3.658.25.25,0,0,1-.193.38,6.834,6.834,0,0,1-1.291-.035.5.5,0,0,0-.545.6c.023.118.641,2.9,5.99,2.9a2.711,2.711,0,0,0,1.892-.78.156.156,0,0,1,.216,0A2.711,2.711,0,0,0,14,16.25C19.349,16.25,19.967,13.466,19.99,13.348ZM12,8.505a47.316,47.316,0,0,0,4.759-.239.223.223,0,0,1,.169.055A.22.22,0,0,1,17,8.483V8.75a4.941,4.941,0,0,1-.851,2.753A.194.194,0,0,1,16,11.59a.2.2,0,0,1-.161-.07A2.773,2.773,0,0,0,13.5,10.25a2.5,2.5,0,0,0-1.364.4.25.25,0,0,1-.273,0,2.5,2.5,0,0,0-1.363-.4,2.773,2.773,0,0,0-2.335,1.27A.2.2,0,0,1,8,11.59a.194.194,0,0,1-.153-.087A4.939,4.939,0,0,1,7,8.75V8.483a.218.218,0,0,1,.241-.217A47.316,47.316,0,0,0,12,8.505Z"/><path d="M12,17.5a.5.5,0,0,0-.488.389l-1.25,5.5A.5.5,0,0,0,10.75,24h2.5a.5.5,0,0,0,.488-.611l-1.25-5.5A.5.5,0,0,0,12,17.5Z"/><path d="M8.5,24h.487a.5.5,0,0,0,.388-.185.493.493,0,0,0,.1-.418L8.2,17.28a.5.5,0,0,0-.582-.388c-.552.1-1.054.229-1.531.362a.252.252,0,0,0-.164.146L4.665,20.448a.251.251,0,0,0,.065.282l3.608,3.207A.249.249,0,0,0,8.5,24Z"/><path d="M4.5,18.235a.25.25,0,0,0-.327-.326,12.2,12.2,0,0,0-2.7,1.508A2.461,2.461,0,0,0,.5,21.4V23.5A.5.5,0,0,0,1,24H6.246a.25.25,0,0,0,.166-.437L3.668,21.124a.5.5,0,0,1-.13-.564Z"/><path d="M15.009,24H15.5a.249.249,0,0,0,.166-.063L19.27,20.73a.251.251,0,0,0,.065-.282L18.08,17.4a.248.248,0,0,0-.163-.145c-.478-.134-.98-.259-1.532-.363a.5.5,0,0,0-.582.388L14.52,23.4a.493.493,0,0,0,.1.418A.5.5,0,0,0,15.009,24Z"/><path d="M17.754,24H23a.5.5,0,0,0,.5-.5V21.4a2.459,2.459,0,0,0-.968-1.977,12.15,12.15,0,0,0-2.7-1.509.251.251,0,0,0-.272.054.248.248,0,0,0-.055.272l.957,2.325a.5.5,0,0,1-.13.564l-2.744,2.439a.25.25,0,0,0,.166.437Z"/></svg>