<svg xmlns="http://www.w3.org/2000/svg" viewBox="0 0 24 24"><title>vintage-car-convertible</title><path d="M23.791,12.943a.249.249,0,0,0-.239-.175H21a.5.5,0,0,1,0-1h1.746a.25.25,0,0,0,.191-.411A4.486,4.486,0,0,0,19.9,9.768a.252.252,0,0,1-.179-.1,4.88,4.88,0,0,0-3.634-1.892,1,1,0,0,0-1.085,1v1.2a.252.252,0,0,1-.092.194,3.774,3.774,0,0,1-2.408.584,6.628,6.628,0,0,1-1.943-.264.249.249,0,0,1-.119-.4l1.83-2.2a1,1,0,0,0-1.536-1.282L8.19,9.66A.251.251,0,0,1,8,9.75H3.5A3.487,3.487,0,0,0,.552,11.384a.251.251,0,0,0,.211.384H1.5a.5.5,0,0,1,0,1H.267a.249.249,0,0,0-.248.219A2.074,2.074,0,0,0,0,13.25a3.494,3.494,0,0,0,2.2,3.239.251.251,0,0,0,.339-.277A2.6,2.6,0,0,1,2.5,15.75a3,3,0,0,1,6,0,2.8,2.8,0,0,1-.089.689.251.251,0,0,0,.243.311h5.692a.251.251,0,0,0,.243-.311,2.8,2.8,0,0,1-.089-.689,3,3,0,0,1,6,0,2.8,2.8,0,0,1-.089.689.251.251,0,0,0,.243.311H21.5a2.5,2.5,0,0,0,2.5-2.5A4.35,4.35,0,0,0,23.791,12.943Z"/><circle cx="5.5" cy="15.75" r="2"/><circle cx="17.5" cy="15.75" r="2"/></svg>