<svg xmlns="http://www.w3.org/2000/svg" viewBox="0 0 24 24"><title>vintage-man-2</title><path d="M12,17.5a.5.5,0,0,0-.488.389l-1.25,5.5A.5.5,0,0,0,10.75,24h2.5a.5.5,0,0,0,.488-.611l-1.25-5.5A.5.5,0,0,0,12,17.5Z"/><path d="M7.615,16.892c-.552.1-1.054.229-1.531.363a.248.248,0,0,0-.164.145L4.665,20.448a.251.251,0,0,0,.065.282l3.608,3.207A.249.249,0,0,0,8.5,24h.487a.5.5,0,0,0,.388-.185.493.493,0,0,0,.1-.418L8.2,17.281A.5.5,0,0,0,7.615,16.892Z"/><path d="M.5,21.4V23.5A.5.5,0,0,0,1,24H6.246a.25.25,0,0,0,.166-.437L3.668,21.124a.5.5,0,0,1-.13-.564L4.5,18.235a.25.25,0,0,0-.327-.326,12.2,12.2,0,0,0-2.7,1.508A2.463,2.463,0,0,0,.5,21.4Z"/><path d="M17.917,17.255c-.478-.134-.98-.259-1.532-.363a.5.5,0,0,0-.582.389L14.52,23.4a.493.493,0,0,0,.1.418.5.5,0,0,0,.388.185H15.5a.249.249,0,0,0,.166-.063L19.27,20.73a.251.251,0,0,0,.065-.282L18.08,17.4A.252.252,0,0,0,17.917,17.255Z"/><path d="M23.5,21.4a2.46,2.46,0,0,0-.968-1.977,12.191,12.191,0,0,0-2.7-1.509.25.25,0,0,0-.327.327l.957,2.324a.5.5,0,0,1-.13.564l-2.744,2.439a.25.25,0,0,0,.166.437H23a.5.5,0,0,0,.5-.5Z"/><circle cx="14" cy="9.731" r="1"/><circle cx="10" cy="9.731" r="1"/><path d="M13.077,11.862h-2a.639.639,0,0,0-.3,1.2,2.451,2.451,0,0,0,.435.18,3.024,3.024,0,0,0,.867.126h.006a2.976,2.976,0,0,0,.863-.125,2.433,2.433,0,0,0,.436-.181.64.64,0,0,0-.3-1.2Z"/><path d="M12,5.251a21.925,21.925,0,0,0,6-.75.25.25,0,0,0,.171-.3l-.636-2.426,0-.011A2.5,2.5,0,0,0,13.815.382l-1.285.8a1.007,1.007,0,0,1-1.06,0l-1.285-.8A2.5,2.5,0,0,0,6.461,1.8l0,.01L5.832,4.2A.25.25,0,0,0,6,4.5,21.885,21.885,0,0,0,12,5.251Z"/><path d="M1.5,4c0,1.043.6,2.468,3.335,3.456A.25.25,0,0,1,5,7.692V10a7,7,0,0,0,14,0V7.694a.25.25,0,0,1,.165-.235C21.131,6.747,22.5,5.634,22.5,4a1.038,1.038,0,0,0-1-1,1,1,0,0,0-1,1c0,1.207-3.416,2.5-8.5,2.5S3.5,5.208,3.5,4a1,1,0,0,0-1-1,.984.984,0,0,0-.629.24A.983.983,0,0,0,1.5,4ZM17,10A5,5,0,0,1,7,10V8.347A.25.25,0,0,1,7.3,8.1,26.567,26.567,0,0,0,12,8.5a26.693,26.693,0,0,0,4.7-.4.25.25,0,0,1,.3.246Z"/></svg>