<svg xmlns="http://www.w3.org/2000/svg" viewBox="0 0 24 24"><title>vintage-woman-3</title><path d="M12,17.5a.5.5,0,0,0-.488.389l-1.25,5.5a.5.5,0,0,0,.488.61h2.5a.5.5,0,0,0,.488-.61l-1.25-5.5A.5.5,0,0,0,12,17.5Z"/><path d="M7.615,16.892c-.552.1-1.054.229-1.531.363a.249.249,0,0,0-.164.146L4.665,20.449a.252.252,0,0,0,.065.282l3.608,3.206A.249.249,0,0,0,8.5,24h.487a.5.5,0,0,0,.388-.184.494.494,0,0,0,.1-.418L8.2,17.281A.5.5,0,0,0,7.615,16.892Z"/><path d="M.5,21.4V23.5A.5.5,0,0,0,1,24H6.246a.25.25,0,0,0,.166-.436L3.668,21.125a.5.5,0,0,1-.13-.565L4.5,18.235a.25.25,0,0,0-.327-.326,12.194,12.194,0,0,0-2.7,1.509A2.46,2.46,0,0,0,.5,21.4Z"/><path d="M17.917,17.255c-.478-.133-.98-.259-1.532-.363a.5.5,0,0,0-.582.389L14.52,23.4a.494.494,0,0,0,.1.418.5.5,0,0,0,.388.184H15.5a.249.249,0,0,0,.166-.063l3.608-3.206a.252.252,0,0,0,.065-.282L18.08,17.4A.252.252,0,0,0,17.917,17.255Z"/><path d="M23.5,23.5V21.4a2.457,2.457,0,0,0-.968-1.976,12.109,12.109,0,0,0-2.7-1.509.25.25,0,0,0-.327.326l.957,2.324a.5.5,0,0,1-.13.565l-2.744,2.439a.25.25,0,0,0,.166.436H23A.5.5,0,0,0,23.5,23.5Z"/><circle cx="14" cy="9.731" r="1"/><circle cx="10" cy="9.731" r="1"/><path d="M13.077,11.863h-2a.639.639,0,0,0-.3,1.2,2.378,2.378,0,0,0,.435.18,3.024,3.024,0,0,0,.867.126h.006a2.976,2.976,0,0,0,.863-.125,2.433,2.433,0,0,0,.436-.181.639.639,0,0,0-.3-1.2Z"/><path d="M12,5.5a21.739,21.739,0,0,0,6.058-.77.251.251,0,0,0,.17-.3l-.7-2.656,0-.011A2.5,2.5,0,0,0,13.815.382l-1.285.8a1.007,1.007,0,0,1-1.06,0l-1.285-.8A2.5,2.5,0,0,0,6.461,1.8l0,.01L5.772,4.428a.249.249,0,0,0,.169.3A21.711,21.711,0,0,0,12,5.5Z"/><path d="M1.5,4c0,1.043.6,2.469,3.335,3.456A.251.251,0,0,1,5,7.691c.017,2.607.378,6.02-2.154,6.833a.5.5,0,0,0-.327.337.5.5,0,0,0,.1.459,3.8,3.8,0,0,0,2.921,1.12,4.612,4.612,0,0,0,2.345-.6.248.248,0,0,1,.273,0,6.972,6.972,0,0,0,7.644.032.248.248,0,0,1,.275,0,4.414,4.414,0,0,0,2.389.622,3.8,3.8,0,0,0,2.921-1.12.5.5,0,0,0-.231-.8c-2.547-.818-2.171-4.258-2.154-6.89a.252.252,0,0,1,.165-.234C21.13,6.748,22.5,5.634,22.5,4a1,1,0,0,0-2,0c0,1.207-3.416,2.5-8.5,2.5S3.5,5.208,3.5,4a1,1,0,0,0-1-1A1.013,1.013,0,0,0,1.5,4ZM17,10A5,5,0,0,1,7,10V8.347a.251.251,0,0,1,.09-.193A.249.249,0,0,1,7.3,8.1,26.567,26.567,0,0,0,12,8.5a26.693,26.693,0,0,0,4.7-.4.246.246,0,0,1,.205.054.249.249,0,0,1,.09.192Z"/></svg>