<svg xmlns="http://www.w3.org/2000/svg" viewBox="0 0 24 24"><title>vintage-man-moustache-3</title><path d="M12.468,19.324a.521.521,0,0,0-.936,0l-1.5,4A.5.5,0,0,0,10.5,24h3a.5.5,0,0,0,.468-.676Z"/><path d="M8,17.955a.5.5,0,0,0-.684-.42l-1.2.479a.246.246,0,0,0-.145.157.4.4,0,0,1-.022.053L4.783,20.553a.249.249,0,0,0,.112.335l1.329.665a.5.5,0,0,1,.192.724l-.889,1.334A.25.25,0,0,0,5.735,24H8a.5.5,0,0,0,.5-.545Z"/><path d="M3.776,21.447a.5.5,0,0,1-.223-.671l.794-1.588a.25.25,0,0,0-.316-.344C2.894,19.3,0,20.13,0,23.5a.5.5,0,0,0,.5.5H3.932a.25.25,0,0,0,.208-.111l.972-1.46a.249.249,0,0,0-.1-.362Z"/><path d="M19.969,18.843a.25.25,0,0,0-.316.345l.794,1.588a.5.5,0,0,1-.223.671l-1.24.62a.249.249,0,0,0-.1.362l.972,1.46a.25.25,0,0,0,.208.111H23.5a.5.5,0,0,0,.5-.5C24,20.428,21.6,19.494,19.969,18.843Z"/><path d="M17.517,21.872a.5.5,0,0,1,.259-.319l1.329-.665a.249.249,0,0,0,.112-.335l-1.164-2.329a.408.408,0,0,1-.022-.054.246.246,0,0,0-.146-.156l-1.2-.479a.5.5,0,0,0-.684.42l-.5,5.5A.5.5,0,0,0,16,24h2.265a.25.25,0,0,0,.208-.389l-.889-1.334A.5.5,0,0,1,17.517,21.872Z"/><path d="M18.448,14.776a.257.257,0,0,0-.316-.311,2.614,2.614,0,0,1-1.34.018.193.193,0,0,1-.108-.295,4.973,4.973,0,0,0,.818-1.98.217.217,0,0,1,.123-.161,2.664,2.664,0,0,0,1.4-2.371,2.123,2.123,0,0,0-.384-1.324.25.25,0,0,1-.048-.183,9.211,9.211,0,0,0-.36-4.5.251.251,0,0,1,0-.175A5.121,5.121,0,0,0,18.5,2.43a1,1,0,0,0-.335-.885.986.986,0,0,0-.91-.212,4.12,4.12,0,0,1-1.021.1.248.248,0,0,1-.157-.053A6.516,6.516,0,0,0,12.07,0h-.009A6.484,6.484,0,0,0,8.048,1.4a.261.261,0,0,1-.149.054,3.683,3.683,0,0,1-1.031-.106,1,1,0,0,0-1.242,1.1,5.315,5.315,0,0,0,.207.907.243.243,0,0,1-.007.172,9.046,9.046,0,0,0-.42,4.644.255.255,0,0,1-.048.183,2.116,2.116,0,0,0-.383,1.324,2.658,2.658,0,0,0,1.4,2.37.224.224,0,0,1,.124.163,4.95,4.95,0,0,0,.817,1.979.193.193,0,0,1-.108.295,2.618,2.618,0,0,1-1.341-.018.257.257,0,0,0-.316.311c.411,1.582,3.182,1.582,3.949,1.582a3.05,3.05,0,0,0,2.314-1.008.249.249,0,0,1,.371,0A3.05,3.05,0,0,0,14.5,16.358C15.266,16.358,18.037,16.358,18.448,14.776ZM13,12.358a1.6,1.6,0,0,0-.867.226.252.252,0,0,1-.267,0A1.6,1.6,0,0,0,11,12.358a3.006,3.006,0,0,0-2.176,1.014.176.176,0,0,1-.141.047.181.181,0,0,1-.128-.077,3.474,3.474,0,0,1-.577-1.381A1.716,1.716,0,0,0,7,10.682,1.144,1.144,0,0,1,6.485,9.8a1.081,1.081,0,0,1,.023-.439.246.246,0,0,1,.109-.142.749.749,0,0,0,.347-.763A10.235,10.235,0,0,1,6.853,5.58a.25.25,0,0,1,.4-.169,3.532,3.532,0,0,0,.67.4A1,1,0,0,0,9.2,5.4a.18.18,0,0,1,.24-.07,5.554,5.554,0,0,0,2.617.691,5.544,5.544,0,0,0,2.628-.7.181.181,0,0,1,.243.071,1,1,0,0,0,1.282.411,3.332,3.332,0,0,0,.55-.322.25.25,0,0,1,.394.177,10.364,10.364,0,0,1-.123,2.793.748.748,0,0,0,.347.762.252.252,0,0,1,.109.141,1.081,1.081,0,0,1,.024.44,1.143,1.143,0,0,1-.512.887,1.715,1.715,0,0,0-.981,1.279,3.466,3.466,0,0,1-.578,1.382.173.173,0,0,1-.127.076.177.177,0,0,1-.141-.046A3.011,3.011,0,0,0,13,12.358Z"/><path d="M10,7.821a1.82,1.82,0,0,0-1.645.867.75.75,0,0,0,1.291.765c.021-.036.078-.132.354-.132s.334.1.355.133a.75.75,0,1,0,1.29-.766A1.821,1.821,0,0,0,10,7.821Z"/><path d="M15.383,9.716a.75.75,0,0,0,.262-1.028A1.821,1.821,0,0,0,14,7.821a1.82,1.82,0,0,0-1.645.867.75.75,0,0,0,1.291.765c.021-.036.078-.132.354-.132s.334.1.355.133a.751.751,0,0,0,1.028.262Z"/></svg>