<svg xmlns="http://www.w3.org/2000/svg" viewBox="0 0 24 24"><title>vintage-car-8</title><path d="M21.851,11.241a3.284,3.284,0,0,0-.62-.369.252.252,0,0,1-.144-.227v-.27a.25.25,0,0,1,.25-.25H21.5a1.5,1.5,0,0,0,0-3h-.25a.25.25,0,0,1-.25-.25v-.75a5.006,5.006,0,0,0-5-5H8a5.006,5.006,0,0,0-5,5v.75a.25.25,0,0,1-.25.25H2.5a1.5,1.5,0,0,0,0,3h.337a.25.25,0,0,1,.25.25v.184a.25.25,0,0,1-.154.231,3.356,3.356,0,0,0-.784.451,4.914,4.914,0,0,0-1.28,5.3A3.652,3.652,0,0,0,3.318,18.98a.25.25,0,0,1,.182.24v2.655a1,1,0,0,0,1,1h2a1,1,0,0,0,1-1v-2.5a.25.25,0,0,1,.25-.25h8.5a.25.25,0,0,1,.25.25v2.5a1,1,0,0,0,1,1h2a1,1,0,0,0,1-1V19.22a.248.248,0,0,1,.182-.24,3.652,3.652,0,0,0,2.449-2.438A4.914,4.914,0,0,0,21.851,11.241ZM4.5,15.125a1.25,1.25,0,1,1,1.25-1.25A1.25,1.25,0,0,1,4.5,15.125ZM16,16.875a.25.25,0,0,1-.25.25H8.25a.25.25,0,0,1-.25-.25V13.088a.251.251,0,0,1,.123-.215l3.368-1.989h0a1,1,0,0,1,1.018,0l3.367,1.988a.251.251,0,0,1,.123.215ZM6.459,8.508a6.589,6.589,0,0,0-1.132.252A.252.252,0,0,1,5.1,8.724a.249.249,0,0,1-.1-.2v-2.4a3,3,0,0,1,3-3h8a3,3,0,0,1,3,3v2.4a.249.249,0,0,1-.1.2.252.252,0,0,1-.224.036,6.589,6.589,0,0,0-1.132-.252A40.681,40.681,0,0,0,6.459,8.508ZM19.5,15.125a1.25,1.25,0,1,1,1.25-1.25A1.25,1.25,0,0,1,19.5,15.125Z"/></svg>