<svg xmlns="http://www.w3.org/2000/svg" viewBox="0 0 24 24"><title>virtual-house</title><path d="M21,20.5A2.5,2.5,0,0,0,18.5,18H16.583a.249.249,0,0,1-.241-.184,4.5,4.5,0,0,0-8.713.113A.093.093,0,0,1,7.538,18H7.5A2.5,2.5,0,0,0,5,20.5v2A1.5,1.5,0,0,0,6.5,24h13A1.5,1.5,0,0,0,21,22.5Zm-9-4A2.5,2.5,0,1,1,9.5,19,2.5,2.5,0,0,1,12,16.5Z"/><path d="M16.793,13.793a1,1,0,0,0,1.414,1.414l1.061-1.061a1,1,0,0,0-1.414-1.414Z"/><path d="M22.707,9.293a1,1,0,0,0-1.414,0l-1.061,1.06a1,1,0,0,0,1.414,1.414l1.061-1.06A1,1,0,0,0,22.707,9.293Z"/><path d="M7.207,15.207a1,1,0,0,0,0-1.414L6.146,12.732a1,1,0,0,0-1.414,1.414l1.061,1.061A1,1,0,0,0,7.207,15.207Z"/><path d="M2.707,9.293a1,1,0,0,0-1.414,1.414l1.061,1.06a1,1,0,0,0,1.414-1.414Z"/><path d="M6,9a1.5,1.5,0,0,0,1.5,1.5h9A1.5,1.5,0,0,0,18,9V4a.5.5,0,0,0-.231-.422l-5.5-3.5a.5.5,0,0,0-.538,0l-5.5,3.5A.5.5,0,0,0,6,4Zm4.748-5.434,3.5,2a.5.5,0,0,1,0,.868l-3.5,2A.5.5,0,0,1,10,8V4A.5.5,0,0,1,10.748,3.566Z"/></svg>