<svg xmlns="http://www.w3.org/2000/svg" viewBox="0 0 24 24"><title>virtual-touch-board</title><path d="M14.666,4.5a1,1,0,0,0-1,1v4.13a.25.25,0,0,1-.41.192l-.449-.376a.833.833,0,0,0-1.282,1.065l1.578,1.9a.249.249,0,0,0,.193.091H18.75a.25.25,0,0,0,.25-.25V10.723A2.222,2.222,0,0,0,16.778,8.5h-.861a.249.249,0,0,1-.25-.25V5.5A1,1,0,0,0,14.666,4.5Z"/><path d="M21,2a2,2,0,0,0-2-2H5A2,2,0,0,0,3,2V6.5a1,1,0,0,0,2,0v-4A.5.5,0,0,1,5.5,2h13a.5.5,0,0,1,.5.5v4a1,1,0,0,0,2,0Z"/><path d="M17.5,16.5H15.583a.251.251,0,0,1-.241-.184,4.5,4.5,0,0,0-8.707.089.125.125,0,0,1-.121.095H6.5A2.5,2.5,0,0,0,4,19v2a1.5,1.5,0,0,0,.857,1.355A.249.249,0,0,1,5,22.582V23a1,1,0,0,0,2,0v-.25a.25.25,0,0,1,.25-.25h9.5a.25.25,0,0,1,.25.25V23a1,1,0,0,0,2,0v-.42a.249.249,0,0,1,.143-.225A1.5,1.5,0,0,0,20,21V19A2.5,2.5,0,0,0,17.5,16.5ZM11,15a2.5,2.5,0,1,1-2.5,2.5A2.5,2.5,0,0,1,11,15Z"/></svg>