<svg xmlns="http://www.w3.org/2000/svg" viewBox="0 0 24 24"><title>virtual-boxes</title><path d="M17.015,8.48V4.395a.25.25,0,0,0-.38-.213L12.87,6.476a.248.248,0,0,0-.12.213v4.779a.25.25,0,0,0,.38.214l3.162-1.92h0A1.509,1.509,0,0,0,17.015,8.48Z"/><path d="M11.871,5.169a.25.25,0,0,0,.26,0l3.838-2.34a.25.25,0,0,0,.011-.419L12.852.263h0a1.511,1.511,0,0,0-1.7,0l-3.11,2.15a.25.25,0,0,0,.012.419Z"/><path d="M11.25,6.689a.25.25,0,0,0-.12-.214L7.4,4.192a.249.249,0,0,0-.38.213V8.481a1.511,1.511,0,0,0,.717,1.28l3.138,1.917a.249.249,0,0,0,.38-.213Z"/><path d="M17.5,16.5H15.581a.251.251,0,0,1-.24-.181,4.5,4.5,0,0,0-8.706.086.125.125,0,0,1-.121.095H6.5A2.5,2.5,0,0,0,4,19v2a1.5,1.5,0,0,0,.857,1.355A.25.25,0,0,1,5,22.58V23a1,1,0,0,0,2,0v-.25a.25.25,0,0,1,.25-.25h9.5a.25.25,0,0,1,.25.25V23a1,1,0,0,0,2,0V22.58a.25.25,0,0,1,.143-.226A1.5,1.5,0,0,0,20,21V19A2.5,2.5,0,0,0,17.5,16.5ZM11,15a2.5,2.5,0,1,1-2.5,2.5A2.5,2.5,0,0,1,11,15Z"/></svg>