<svg xmlns="http://www.w3.org/2000/svg" viewBox="0 0 24 24"><title>virtual-box</title><path d="M21,20.5A2.5,2.5,0,0,0,18.5,18H16.583a.249.249,0,0,1-.241-.184,4.5,4.5,0,0,0-8.713.113A.093.093,0,0,1,7.538,18H7.5A2.5,2.5,0,0,0,5,20.5v2A1.5,1.5,0,0,0,6.5,24h13A1.5,1.5,0,0,0,21,22.5Zm-9-4A2.5,2.5,0,1,1,9.5,19,2.5,2.5,0,0,1,12,16.5Z"/><path d="M17.015,8.48V4.395a.25.25,0,0,0-.38-.213L12.87,6.476a.248.248,0,0,0-.12.213v4.779a.25.25,0,0,0,.38.214l3.162-1.92h0A1.509,1.509,0,0,0,17.015,8.48Z"/><path d="M11.871,5.169a.25.25,0,0,0,.26,0l3.838-2.34a.25.25,0,0,0,.011-.419L12.852.263h0a1.511,1.511,0,0,0-1.7,0l-3.11,2.15a.25.25,0,0,0,.012.419Z"/><path d="M11.25,6.689a.25.25,0,0,0-.12-.214L7.4,4.192a.249.249,0,0,0-.38.213V8.481a1.511,1.511,0,0,0,.717,1.28l3.138,1.917a.249.249,0,0,0,.38-.213Z"/><path d="M16.793,13.792a1,1,0,0,0,1.414,1.414l1.061-1.06a1,1,0,0,0-1.414-1.415Z"/><path d="M22.707,9.292a1,1,0,0,0-1.414,0l-1.061,1.061a1,1,0,0,0,1.414,1.414l1.061-1.061A1,1,0,0,0,22.707,9.292Z"/><path d="M7.207,15.206a1,1,0,0,0,0-1.414L6.146,12.731a1,1,0,0,0-1.414,1.415l1.061,1.06A1,1,0,0,0,7.207,15.206Z"/><path d="M2.707,9.292a1,1,0,1,0-1.414,1.414l1.061,1.061a1,1,0,0,0,1.414-1.414Z"/></svg>