<svg xmlns="http://www.w3.org/2000/svg" viewBox="0 0 24 24"><title>virtual-tap-finger</title><path d="M21,20.5A2.5,2.5,0,0,0,18.5,18H16.583a.251.251,0,0,1-.241-.184,4.5,4.5,0,0,0-8.707.089A.125.125,0,0,1,7.514,18H7.5A2.5,2.5,0,0,0,5,20.5v2A1.5,1.5,0,0,0,6.5,24h13A1.5,1.5,0,0,0,21,22.5Zm-9-4A2.5,2.5,0,1,1,9.5,19,2.5,2.5,0,0,1,12,16.5Z"/><path d="M11.166,4.5a1,1,0,0,0-1,1v4.13a.25.25,0,0,1-.41.192l-.449-.376a.833.833,0,0,0-1.282,1.065l1.578,1.9A.249.249,0,0,0,9.8,12.5H15.25a.25.25,0,0,0,.25-.25V10.723A2.222,2.222,0,0,0,13.278,8.5h-.861a.249.249,0,0,1-.25-.25V5.5A1,1,0,0,0,11.166,4.5Z"/><path d="M4,7.5a1,1,0,0,0,1-1v-4A.5.5,0,0,1,5.5,2h13a.5.5,0,0,1,.5.5v4a1,1,0,0,0,2,0V2a2,2,0,0,0-2-2H5A2,2,0,0,0,3,2V6.5A1,1,0,0,0,4,7.5Z"/><path d="M17.854,12.734,16.793,13.8a1,1,0,1,0,1.414,1.414l1.061-1.061a1,1,0,1,0-1.414-1.414Z"/><path d="M22.707,9.3a1,1,0,0,0-1.414,0l-1.061,1.06a1,1,0,1,0,1.414,1.414l1.061-1.06A1,1,0,0,0,22.707,9.3Z"/><path d="M6.5,15.5A1,1,0,0,0,7.207,13.8L6.146,12.734a1,1,0,1,0-1.414,1.414l1.061,1.061A1,1,0,0,0,6.5,15.5Z"/><path d="M2.707,9.3a1,1,0,1,0-1.414,1.414l1.061,1.06a1,1,0,1,0,1.414-1.414Z"/></svg>