<svg xmlns="http://www.w3.org/2000/svg" viewBox="0 0 24 24"><title>vr-controller-1</title><path d="M10.312,3.833a.25.25,0,0,0,.272.023A2.98,2.98,0,0,1,12,3.5H22a2.98,2.98,0,0,1,1.416.356.25.25,0,0,0,.362-.279c-.268-1.088-.793-3.2-.793-3.2A.5.5,0,0,0,22.5,0H21a.5.5,0,0,0-.354.146A2.892,2.892,0,0,1,18.586,1H15.414a2.892,2.892,0,0,1-2.06-.854A.5.5,0,0,0,13,0H11.5a.5.5,0,0,0-.485.379s-.525,2.11-.793,3.2A.251.251,0,0,0,10.312,3.833Z"/><path d="M22,4.5H12a2,2,0,0,0-2,2v3a2,2,0,0,0,2,2h8v9a.5.5,0,0,1-1,0v-2A2.5,2.5,0,0,0,16.5,16h-1a1,1,0,0,0,0,2h1a.5.5,0,0,1,.5.5v2a2.5,2.5,0,0,0,5,0v-9a2,2,0,0,0,2-2v-3A2,2,0,0,0,22,4.5Zm-8,5A1.5,1.5,0,1,1,15.5,8,1.5,1.5,0,0,1,14,9.5Zm6,0A1.5,1.5,0,1,1,21.5,8,1.5,1.5,0,0,1,20,9.5Z"/><path d="M10,15H3a3,3,0,0,0-3,3v4.5a1.5,1.5,0,0,0,2.7.9l2.462-3.3a.251.251,0,0,1,.2-.1H7.634a.251.251,0,0,1,.2.1L10.3,23.4a1.5,1.5,0,0,0,2.7-.9V18A3,3,0,0,0,10,15ZM2.75,19.5a1,1,0,1,1,1-1A1,1,0,0,1,2.75,19.5Zm7.751,0a1,1,0,1,1,1-1A1,1,0,0,1,10.5,19.5Z"/></svg>