<svg xmlns="http://www.w3.org/2000/svg" viewBox="0 0 24 24"><title>vr-laptop-1</title><path d="M10.312,3.833a.25.25,0,0,0,.272.023A2.98,2.98,0,0,1,12,3.5H22a2.98,2.98,0,0,1,1.416.356.25.25,0,0,0,.362-.279c-.268-1.088-.793-3.2-.793-3.2A.5.5,0,0,0,22.5,0H21a.5.5,0,0,0-.354.146A2.892,2.892,0,0,1,18.586,1H15.414a2.892,2.892,0,0,1-2.06-.854A.5.5,0,0,0,13,0H11.5a.5.5,0,0,0-.485.379s-.525,2.11-.793,3.2A.251.251,0,0,0,10.312,3.833Z"/><path d="M22,4.5H12a2,2,0,0,0-2,2v3a2,2,0,0,0,2,2h8v9a.5.5,0,0,1-1,0v-2A2.5,2.5,0,0,0,16.5,16H14a1,1,0,0,0,0,2h2.5a.5.5,0,0,1,.5.5v2a2.5,2.5,0,0,0,5,0v-9a2,2,0,0,0,2-2v-3A2,2,0,0,0,22,4.5Zm-8,5A1.5,1.5,0,1,1,15.5,8,1.5,1.5,0,0,1,14,9.5Zm6,0A1.5,1.5,0,1,1,21.5,8,1.5,1.5,0,0,1,20,9.5Z"/><path d="M11.5,21h-.25V16.5a2,2,0,0,0-2-2H2.75a2,2,0,0,0-2,2V21H.5a.5.5,0,0,0-.5.5A2.41,2.41,0,0,0,2.5,24h7A2.41,2.41,0,0,0,12,21.5.5.5,0,0,0,11.5,21Zm-2.25-.25A.25.25,0,0,1,9,21H3a.25.25,0,0,1-.25-.25v-4A.25.25,0,0,1,3,16.5l6,0a.252.252,0,0,1,.177.074.248.248,0,0,1,.073.176Z"/></svg>