<svg xmlns="http://www.w3.org/2000/svg" viewBox="0 0 24 24"><title>vr-phone</title><path d="M6,8.5A.5.5,0,0,1,5.5,8V2.5A.5.5,0,0,1,6,2H18a.5.5,0,0,1,.5.5V8a.5.5,0,0,1-.5.5H14.75a.25.25,0,0,0-.25.25v1.5a.25.25,0,0,0,.25.25H18.5a2,2,0,0,0,2-2V2a2,2,0,0,0-2-2H5.5a2,2,0,0,0-2,2V8.5a2,2,0,0,0,2,2H9.25a.25.25,0,0,0,.25-.25V8.75a.25.25,0,0,0-.25-.25Z"/><path d="M21.5,15H16.084a.252.252,0,0,0-.19.087c-.444.517-2.124,2.178-2.124,2.178a2.5,2.5,0,0,1-3.54,0S8.55,15.6,8.106,15.087A.252.252,0,0,0,7.916,15H2.5a2,2,0,0,0-2,2v4a3,3,0,0,0,3,3H7.76a2,2,0,0,0,1.3-.482l.986-.845a3,3,0,0,1,3.9,0l.986.845a2,2,0,0,0,1.3.482H20.5a3,3,0,0,0,3-3V17A2,2,0,0,0,21.5,15Z"/><path d="M11.47,16.03a.748.748,0,0,0,1.06,0l2-2A.75.75,0,0,0,14,12.75h-.75A.25.25,0,0,1,13,12.5v-5a1,1,0,0,0-2,0v5a.25.25,0,0,1-.25.25H10a.75.75,0,0,0-.53,1.28Z"/></svg>