<svg xmlns="http://www.w3.org/2000/svg" viewBox="0 0 24 24"><title>vr-user-play-1</title><path d="M22,0H13a2,2,0,0,0-2,2V8.286a.25.25,0,0,0,.135.222,9.054,9.054,0,0,1,4.092,4.344.25.25,0,0,0,.229.148H22a2,2,0,0,0,2-2V2A2,2,0,0,0,22,0ZM19.894,6.5a.935.935,0,0,1-.453.8l-3.033,1.82A.931.931,0,0,1,15,8.32V4.68a.931.931,0,0,1,1.408-.8L19.441,5.7A.933.933,0,0,1,19.894,6.5Z"/><path d="M7,9A6.994,6.994,0,0,0,.311,13.93,1.983,1.983,0,0,0,0,15v3a2,2,0,0,0,2,2H4.5a1,1,0,0,0,.8-.4l.9-1.2a1,1,0,0,1,1.6,0l.9,1.2a1,1,0,0,0,.8.4H12a2,2,0,0,0,2-2V15a1.989,1.989,0,0,0-.306-1.063A6.958,6.958,0,0,0,7,9ZM4.5,16h-2a.5.5,0,0,1,0-1h2a.5.5,0,0,1,0,1Zm3,0h-1a.5.5,0,0,1,0-1h1a.5.5,0,0,1,0,1ZM3.531,13a.25.25,0,0,1-.182-.421,5.022,5.022,0,0,1,7.312,0,.25.25,0,0,1-.183.421Z"/><path d="M11.147,21.447a1,1,0,0,0-1.385-.28,5.078,5.078,0,0,1-5.524,0,1,1,0,0,0-1.105,1.666,6.99,6.99,0,0,0,7.734,0A1,1,0,0,0,11.147,21.447Z"/></svg>