<svg xmlns="http://www.w3.org/2000/svg" viewBox="0 0 24 24"><title>vr-user-box-1</title><path d="M3.731,5.927,6.206,6.988a.5.5,0,0,0,.657-.657L5.8,3.856A.522.522,0,0,0,5.7,3.7L2.268.271a.5.5,0,0,0-.707,0L.146,1.685a.5.5,0,0,0,0,.708L3.575,5.821A.5.5,0,0,0,3.731,5.927Z"/><path d="M14.573,7.978a.248.248,0,0,0,.178-.24.8.8,0,0,0-.108-.458.76.76,0,0,0-.379-.317L8.823,4.923a.75.75,0,1,0-.527,1.4L11.947,7.7,8,9.314,2.284,6.971a.75.75,0,0,0-1.034.694v6.46a.75.75,0,0,0,.513.711l6,2A.74.74,0,0,0,8,16.875a.954.954,0,0,0,.342-.072.25.25,0,0,0,.169-.25c-.007-.142-.011-.284-.011-.428A8.516,8.516,0,0,1,14.573,7.978Z"/><path d="M23.254,13.067a6.758,6.758,0,0,0-12.5-.005A2,2,0,0,0,10,14.625v3a2,2,0,0,0,2,2h2.5a1,1,0,0,0,.8-.4l.9-1.2a1,1,0,0,1,1.6,0l.9,1.2a1,1,0,0,0,.8.4H22a2,2,0,0,0,2-2v-3A2,2,0,0,0,23.254,13.067ZM14.5,15.625h-2a.5.5,0,0,1,0-1h2a.5.5,0,0,1,0,1Zm3,0h-1a.5.5,0,0,1,0-1h1a.5.5,0,0,1,0,1Zm-4.3-3a.25.25,0,0,1-.19-.412,5.269,5.269,0,0,1,8,0,.25.25,0,0,1-.191.412Z"/><path d="M21.257,21.416a.75.75,0,0,0-1.052-.135,5.319,5.319,0,0,1-6.41,0,.75.75,0,1,0-.916,1.188,6.742,6.742,0,0,0,8.242,0A.751.751,0,0,0,21.257,21.416Z"/></svg>