<svg xmlns="http://www.w3.org/2000/svg" viewBox="0 0 24 24"><title>warehouse-cart-package-ribbon</title><path d="M3.5,15.5h10a1,1,0,0,0,1-1V8a1,1,0,0,0-1-1H10.75a.25.25,0,0,0-.25.25V10a.5.5,0,0,1-.8.4l-.9-.675a.5.5,0,0,0-.6,0l-.9.675a.5.5,0,0,1-.8-.4V7.25A.25.25,0,0,0,6.25,7H3.5a1,1,0,0,0-1,1v6.5A1,1,0,0,0,3.5,15.5Z"/><circle cx="4.5" cy="22" r="2"/><circle cx="14" cy="22" r="2"/><path d="M24,1a1,1,0,0,0-1-1H21.63a3.013,3.013,0,0,0-2.939,2.4L15.85,16.2a1,1,0,0,1-.98.8H1a1,1,0,0,0,0,2H14.87a3.013,3.013,0,0,0,2.939-2.395L20.65,2.8a1,1,0,0,1,.98-.8H23A1,1,0,0,0,24,1Z"/><rect x="5" width="7" height="6" rx="1" ry="1"/></svg>