<svg xmlns="http://www.w3.org/2000/svg" viewBox="0 0 24 24"><title>warehouse-cart</title><path d="M21.337,22H17.768a.252.252,0,0,0-.248.286,2,2,0,0,0,3.973-.117A.156.156,0,0,0,21.337,22Z"/><path d="M23,19H9.531a.5.5,0,0,1-.486-.379L7.864,13.894a2.487,2.487,0,0,0-1.54-1.725A.5.5,0,0,1,6,11.7V7.329a.5.5,0,0,1,.32-.466,1.987,1.987,0,0,0,.669-.43L9.357,4.125a1.014,1.014,0,0,0,.071-.076A2.469,2.469,0,0,0,7.531,0H2.467A2.467,2.467,0,0,0,.572,4.046a.828.828,0,0,0,.07.075L3.01,6.432a1.988,1.988,0,0,0,.671.431A.5.5,0,0,1,4,7.329v4.576a.5.5,0,0,1-.249.433A2.5,2.5,0,0,0,2.5,14.5v4A.5.5,0,0,0,3,19a2.988,2.988,0,0,1,2.7,1.715A.5.5,0,0,0,6.149,21H23a1,1,0,0,0,0-2ZM6,2.5A.5.5,0,0,1,6.5,2H7.531a.469.469,0,0,1,.405.706.306.306,0,0,1-.042.053L6.424,4.19A.25.25,0,0,1,6,4.011ZM4,4.01a.251.251,0,0,1-.425.179L2.105,2.755A.26.26,0,0,1,2.064,2.7.461.461,0,0,1,2,2.467.467.467,0,0,1,2.467,2H3.5a.5.5,0,0,1,.5.5Z"/><circle cx="3" cy="22" r="2"/></svg>