<svg xmlns="http://www.w3.org/2000/svg" viewBox="0 0 24 24"><title>warehouse-cart-packages-3</title><path d="M10.75,19h8a1,1,0,0,0,1-1V11a1,1,0,0,0-1-1h-8a1,1,0,0,0-1,1v7A1,1,0,0,0,10.75,19Zm5-2.75h2a.75.75,0,0,1,0,1.5h-2a.75.75,0,0,1,0-1.5Z"/><rect x="9.75" y="3.5" width="7" height="5" rx="1" ry="1"/><path d="M20.457,22.293,19.25,21.086a2,2,0,0,0-1.415-.586H9.4a.268.268,0,0,1-.246-.2,2.985,2.985,0,0,0-.828-1.446.254.254,0,0,1-.08-.183V2a2,2,0,0,0-2-2h-2a1,1,0,0,0,0,2H6a.25.25,0,0,1,.25.25V17.759a.259.259,0,0,1-.242.251A3,3,0,1,0,8.76,22.62a.254.254,0,0,1,.214-.12h8.448a1,1,0,0,1,.707.293l.914.914a1,1,0,0,0,1.414-1.414Z"/></svg>