<svg xmlns="http://www.w3.org/2000/svg" viewBox="0 0 24 24"><title>warehouse-packages</title><path d="M23,22H21.25a.25.25,0,0,1-.25-.25v-1a.25.25,0,0,1,.25-.25H23a1,1,0,0,0,0-2H1a1,1,0,0,0,0,2H2.75a.25.25,0,0,1,.25.25v1a.25.25,0,0,1-.25.25H1a1,1,0,0,0,0,2H23a1,1,0,0,0,0-2Zm-4-.25a.25.25,0,0,1-.25.25h-5.5a.25.25,0,0,1-.25-.25v-1a.25.25,0,0,1,.25-.25h5.5a.25.25,0,0,1,.25.25Zm-14-1a.25.25,0,0,1,.25-.25h5.5a.25.25,0,0,1,.25.25v1a.25.25,0,0,1-.25.25H5.25A.25.25,0,0,1,5,21.75Z"/><path d="M8.5,8h8a.5.5,0,0,0,.5-.5V1a1,1,0,0,0-1-1H9A1,1,0,0,0,8,1V7.5A.5.5,0,0,0,8.5,8Z"/><path d="M12.5,10.5V17a.5.5,0,0,0,.5.5h8a.5.5,0,0,0,.5-.5V10.5a1,1,0,0,0-1-1h-7A1,1,0,0,0,12.5,10.5Z"/><path d="M2.5,17.5h8A.5.5,0,0,0,11,17V10.5a1,1,0,0,0-1-1H3a1,1,0,0,0-1,1V17A.5.5,0,0,0,2.5,17.5Z"/></svg>