<svg xmlns="http://www.w3.org/2000/svg" viewBox="0 0 24 24"><title>warehouse-cart-packages-1</title><circle cx="6" cy="22.125" r="1.75"/><circle cx="19.5" cy="22.125" r="1.75"/><path d="M22.75,4.875a2,2,0,0,0-2-2H10.229a.249.249,0,0,1-.249-.241A2.6,2.6,0,0,0,8.537.4,2.621,2.621,0,0,0,5.914.564L5.2,1.043a1,1,0,0,0,1.11,1.664l.717-.479a.619.619,0,0,1,.944.663l-.174.695,0,.018L7.253,5.2a.25.25,0,0,1-.237.171H5.75a1,1,0,0,0,0,2h.433A.25.25,0,0,1,6.42,7.7l-.833,2.5a.25.25,0,0,1-.237.171H3.75a1,1,0,0,0,0,2h.766a.25.25,0,0,1,.2.1.248.248,0,0,1,.034.225L3.92,15.2a.25.25,0,0,1-.237.171H2.25a1,1,0,0,0,0,2h.6a.25.25,0,0,1,.237.329l-.066.2a1.5,1.5,0,0,0,1.422,1.974H20.75a2,2,0,0,0,2-2Zm-2,12.75a.25.25,0,0,1-.25.25H20a.25.25,0,0,1-.25-.25v-6.25a.5.5,0,0,0-.5-.5h-3a.5.5,0,0,0-.5.5v6.25a.25.25,0,0,1-.25.25h-1a.25.25,0,0,1-.25-.25v-4.25a.5.5,0,0,0-.5-.5h-5a.5.5,0,0,0-.5.5v4.25a.25.25,0,0,1-.25.25H5.485a.248.248,0,0,1-.2-.1.251.251,0,0,1-.035-.225l4.167-12.5a.25.25,0,0,1,.237-.171H20.5a.25.25,0,0,1,.25.25Z"/></svg>