<svg xmlns="http://www.w3.org/2000/svg" viewBox="0 0 24 24"><title>warehouse-cart-packages-2</title><circle cx="15.84" cy="21.36" r="1.92"/><circle cx="5.28" cy="21.36" r="1.92"/><path d="M20.733,17.264a1.919,1.919,0,0,1-1.907,1.7H.96a.96.96,0,0,1,0-1.92H17.972a.96.96,0,0,0,.954-.848L20.547,2.416A1.919,1.919,0,0,1,22.454.72h.586a.96.96,0,1,1,0,1.92h-.373a.24.24,0,0,0-.238.212Z"/><rect x="0.96" y="11.76" width="8.64" height="3.84" rx="0.96" ry="0.96"/><rect x="3.84" y="7.44" width="5.76" height="2.88" rx="0.96" ry="0.96"/><rect x="11.04" y="5.04" width="6.72" height="10.56" rx="0.96" ry="0.96"/></svg>