<svg xmlns="http://www.w3.org/2000/svg" viewBox="0 0 24 24"><title>warehouse-storage-3</title><path d="M2,23.988a1,1,0,0,1-1-1v-12.5a1,1,0,0,1,2,0v12.5A1,1,0,0,1,2,23.988Z"/><path d="M22,23.988a1,1,0,0,1-1-1v-12.5a1,1,0,0,1,2,0v12.5A1,1,0,0,1,22,23.988Z"/><rect x="8.5" y="10.654" width="7" height="6" rx="0.5" ry="0.5"/><rect x="12.5" y="17.654" width="7" height="6" rx="0.5" ry="0.5"/><rect x="4.5" y="17.654" width="7" height="6" rx="0.5" ry="0.5"/><path d="M23.455,8.488A.566.566,0,0,0,24,7.9V4.49a.583.583,0,0,0-.373-.554L12.71.042a.507.507,0,0,0-.331,0L.387,3.943A.581.581,0,0,0,0,4.5V7.9a.566.566,0,0,0,.545.584Z"/></svg>