<svg xmlns="http://www.w3.org/2000/svg" viewBox="0 0 24 24"><title>warehouse-cart-package-ribbon-1</title><path d="M10.731,20.211,3.767,18.745a3,3,0,0,0-2.739.813l-.735.734a1,1,0,0,0,1.414,1.416l.734-.735a1,1,0,0,1,.912-.272l6.969,1.468a.989.989,0,0,0,1.187-.9l0-.02A.98.98,0,0,0,10.731,20.211Z"/><path d="M24,1a1,1,0,0,0-1-1H21.1a3,3,0,0,0-2.928,2.349L14.943,16.9a.993.993,0,0,0,.773,1.182l.027.006a.975.975,0,0,0,1.153-.754L20.129,2.783A.992.992,0,0,1,21.1,2H23A1,1,0,0,0,24,1Z"/><circle cx="15" cy="21.5" r="2.5"/><path d="M2.758,16.787l8.731,2.183a1,1,0,0,0,1.213-.728L16.1,4.66a1,1,0,0,0-.727-1.212L13.187,2.9a.248.248,0,0,0-.3.182L12.17,5.937a.5.5,0,0,1-.81.258l-.989-.847a.251.251,0,0,0-.217-.054l-1.271.282a.5.5,0,0,1-.593-.609L9,2.114a.252.252,0,0,0-.028-.19.258.258,0,0,0-.154-.114L6.638,1.265a1,1,0,0,0-1.212.727L2.03,15.574A1,1,0,0,0,2.758,16.787Z"/></svg>