<svg id="Bold" xmlns="http://www.w3.org/2000/svg" viewBox="0 0 24 24"><title>water-glass-1</title><path d="M20.5,1.61a1.588,1.588,0,0,0-.42-1.157A1.518,1.518,0,0,0,19,0H5A1.567,1.567,0,0,0,3.857.524,1.562,1.562,0,0,0,3.5,1.629c.84,8.98.4,4.169,1.8,19.627A2.983,2.983,0,0,0,8.289,24h7.42A2.984,2.984,0,0,0,18.7,21.257C20.161,5.108,19.6,11.2,20.5,1.61ZM17.955,7.273a.249.249,0,0,1-.249.227H6.292a.25.25,0,0,1-.249-.227l-.471-5a.248.248,0,0,1,.063-.191A.252.252,0,0,1,5.82,2H18.179a.251.251,0,0,1,.184.081.248.248,0,0,1,.064.192Z"/></svg>