<svg id="Bold" xmlns="http://www.w3.org/2000/svg" viewBox="0 0 24 24"><title>water-container</title><path d="M19,12.5A1.5,1.5,0,0,0,17.5,11h-.927a.25.25,0,0,1-.16-.442A3.011,3.011,0,0,0,17.5,8.25V2a2,2,0,0,0-2-2h-7a2,2,0,0,0-2,2V8.25a3.011,3.011,0,0,0,1.087,2.308.25.25,0,0,1-.16.442H6.5A1.5,1.5,0,0,0,5,12.5v10A1.5,1.5,0,0,0,6.5,24h11A1.5,1.5,0,0,0,19,22.5v-10Zm-3.25.25a.75.75,0,1,1-.75.75A.75.75,0,0,1,15.75,12.75ZM15,2a.5.5,0,0,1,.5.5V8.25a1,1,0,0,1-1,1,1,1,0,0,0-1,1v.25a.5.5,0,0,1-.5.5H11a.5.5,0,0,1-.5-.5v-.25a1,1,0,0,0-1-1,1,1,0,0,1-1-1,.5.5,0,0,1,.5-.5h1a.75.75,0,0,0,0-1.5H9a.5.5,0,0,1-.5-.5v-.5a.5.5,0,0,1,.5-.5h1a.75.75,0,0,0,0-1.5H9a.5.5,0,0,1-.5-.5V2.5A.5.5,0,0,1,9,2ZM13.5,13.5a.75.75,0,1,1-.75-.75A.75.75,0,0,1,13.5,13.5ZM17,20.747A1.253,1.253,0,0,1,15.746,22h-1.54a.25.25,0,0,1-.248-.281l.412-3.3a.594.594,0,0,0-.589-.667H10.219a.594.594,0,0,0-.589.667l.412,3.3A.25.25,0,0,1,9.794,22H8.254A1.253,1.253,0,0,1,7,20.747V16.5a.5.5,0,0,1,.5-.5h9a.5.5,0,0,1,.5.5Z"/></svg>