<svg id="Bold" xmlns="http://www.w3.org/2000/svg" viewBox="0 0 24 24"><title>water-bottle-1</title><path d="M9.5,3h5a.5.5,0,0,0,.5-.5v-1A1.5,1.5,0,0,0,13.5,0h-3A1.5,1.5,0,0,0,9,1.5v1A.5.5,0,0,0,9.5,3Z"/><path d="M15.75,11.5H8.25a2.75,2.75,0,0,0,0,5.5h7.5a2.75,2.75,0,0,0,0-5.5Z"/><path d="M16.5,18.5h-9a2,2,0,0,0-2,2v.75A2.75,2.75,0,0,0,8.25,24h7.5a2.75,2.75,0,0,0,2.75-2.75V20.5A2,2,0,0,0,16.5,18.5Z"/><path d="M15.75,4.5H8.25A2.75,2.75,0,0,0,5.5,7.25V8a2,2,0,0,0,2,2h9a2,2,0,0,0,2-2V7.25A2.75,2.75,0,0,0,15.75,4.5Z"/></svg>