<svg id="Bold" xmlns="http://www.w3.org/2000/svg" viewBox="0 0 24 24"><title>water-glass</title><path d="M5.5,12.756a2.85,2.85,0,0,0-1.026.209.315.315,0,0,0-.2.416c.041.194,1.25,5.993,1.25,5.993a5.454,5.454,0,0,0,3.4,4.056.255.255,0,0,0,.343-.271S8.25,15.525,8.25,15.506A2.752,2.752,0,0,0,5.5,12.756Z"/><path d="M19.437,12.937a2.833,2.833,0,0,0-.937-.181,2.752,2.752,0,0,0-2.75,2.75l-1.015,7.653a.254.254,0,0,0,.342.271,5.449,5.449,0,0,0,3.4-4.056s1.185-5.732,1.25-6A.375.375,0,0,0,19.437,12.937Z"/><path d="M12,13.256a2.253,2.253,0,0,0-2.25,2.25l1.1,8.237a.243.243,0,0,0,.213.215,11.7,11.7,0,0,0,1.863,0,.245.245,0,0,0,.216-.216l1.111-8.334A2.245,2.245,0,0,0,12,13.256Z"/><path d="M12,.006c-5.416,0-9.5,2.149-9.5,5a3,3,0,0,0,.284,1.243l1.052,5.043a.251.251,0,0,0,.336.181A3.715,3.715,0,0,1,5.5,11.256a4.232,4.232,0,0,1,3.388,1.7.246.246,0,0,0,.385.017A3.673,3.673,0,0,1,12,11.756a3.712,3.712,0,0,1,2.734,1.209.245.245,0,0,0,.383-.018A4.236,4.236,0,0,1,18.5,11.256a4.548,4.548,0,0,1,1.347.231.246.246,0,0,0,.316-.188l1.052-5.048A2.991,2.991,0,0,0,21.5,5.006C21.5,2.155,17.416.006,12,.006Zm0,8c-4.646,0-7.5-1.747-7.5-3s2.854-3,7.5-3,7.5,1.747,7.5,3S16.646,8.006,12,8.006Z"/></svg>