<svg id="Bold" xmlns="http://www.w3.org/2000/svg" viewBox="0 0 24 24"><title>water-protection-refresh</title><path d="M5.407,11.887a.75.75,0,0,0-.656-.387H4.315a.5.5,0,0,1-.5-.565A8.25,8.25,0,0,1,18.471,6.882a1,1,0,0,0,1.568-1.241,10.25,10.25,0,0,0-18.245,5.4.5.5,0,0,1-.5.454H.75a.75.75,0,0,0-.636,1.147l2,3.2a.751.751,0,0,0,1.273,0l2-3.2A.75.75,0,0,0,5.407,11.887Z"/><path d="M23.886,11.353l-2-3.2a.781.781,0,0,0-1.273,0l-2,3.2a.75.75,0,0,0,.636,1.147h.436a.5.5,0,0,1,.5.565A8.25,8.25,0,0,1,5.529,17.118a1,1,0,0,0-1.568,1.241,10.25,10.25,0,0,0,18.245-5.405.5.5,0,0,1,.5-.454h.547a.75.75,0,0,0,.636-1.147Z"/><path d="M12,6.4h0a.994.994,0,0,0-.836.452C9.982,8.65,8,11.909,8,13.5a4,4,0,0,0,8,0c0-1.592-1.982-4.85-3.164-6.649A.994.994,0,0,0,12,6.4Zm1,9.175a.5.5,0,0,1-.5.5,3,3,0,0,1-3-3,.5.5,0,1,1,1,0,2,2,0,0,0,2,2A.5.5,0,0,1,13,15.574Z"/></svg>