<svg xmlns="http://www.w3.org/2000/svg" viewBox="0 0 24 24"><title>water-fountain-sink-1</title><path d="M19.112,7.466A5.883,5.883,0,0,0,18.023,9.75a1.5,1.5,0,0,0,3,0,5.883,5.883,0,0,0-1.089-2.284A.518.518,0,0,0,19.112,7.466Z"/><path d="M23.539,17.511A1,1,0,0,0,22.678,16H16.773a.5.5,0,0,1-.5-.5v-.25a1,1,0,0,1,1-1h3.25a1,1,0,0,0,0-2h-3.25a3,3,0,0,0-3,3v.25a.5.5,0,0,1-.5.5h-.25a.5.5,0,0,1-.5-.5V4.75a2.75,2.75,0,0,1,5.5,0V5.5a1,1,0,0,0,2,0V4.75a4.75,4.75,0,0,0-9.5,0V15.5a.5.5,0,0,1-.5.5h-.25a.5.5,0,0,1-.5-.5v-.25a3,3,0,0,0-3-3H3.523a1,1,0,1,0,0,2h3.25a1,1,0,0,1,1,1v.25a.5.5,0,0,1-.5.5H1.257a.937.937,0,0,0-.809,1.409,13.461,13.461,0,0,0,23.091.1Z"/></svg>