<svg id="Bold" xmlns="http://www.w3.org/2000/svg" viewBox="0 0 24 24"><title>water-bottle</title><path d="M18.722,10.25a.5.5,0,0,0,.5-.439,4.225,4.225,0,0,0-.8-3.087,6.782,6.782,0,0,0-3.723-2.458.484.484,0,0,0-.126-.016H9.5a.489.489,0,0,0-.126.016,6.981,6.981,0,0,0-3.79,2.458,4.225,4.225,0,0,0-.8,3.087.5.5,0,0,0,.5.439Z"/><path d="M14,2.75a.5.5,0,0,0,.5-.5V1.5A1.5,1.5,0,0,0,13,0H11A1.5,1.5,0,0,0,9.5,1.5v.75a.5.5,0,0,0,.5.5Z"/><path d="M5.784,11.75a.5.5,0,0,0-.493.588,13.358,13.358,0,0,1,.209,2.17c.006.362-.01.761-.046,1.2a.5.5,0,0,0,.5.542h12.1a.5.5,0,0,0,.5-.542c-.036-.439-.052-.838-.046-1.2a13.358,13.358,0,0,1,.209-2.17.5.5,0,0,0-.493-.588Z"/><path d="M18.885,18.161a.5.5,0,0,0-.492-.411H5.607a.5.5,0,0,0-.492.411c-.152.848-.35,1.8-.6,2.894a2.113,2.113,0,0,0,.445,1.817A3.136,3.136,0,0,0,7.333,24a2.832,2.832,0,0,0,2.334-1.228,2.83,2.83,0,0,0,4.666,0A2.832,2.832,0,0,0,16.667,24a3.136,3.136,0,0,0,2.375-1.128,2.113,2.113,0,0,0,.445-1.817C19.235,19.962,19.037,19.009,18.885,18.161Z"/></svg>