<svg xmlns="http://www.w3.org/2000/svg" viewBox="0 0 24 24"><title>water-fountain-fill</title><path d="M22.75,4V.5a.5.5,0,0,0-.5-.5h-11a3.5,3.5,0,0,0-3.5,3.5V4a.5.5,0,0,0,.5.5h14A.5.5,0,0,0,22.75,4Z"/><path d="M7.75,6a1.5,1.5,0,0,0,1.5,1.5h2A1.5,1.5,0,0,0,12.75,6V5.75a.25.25,0,0,0-.25-.25H8a.25.25,0,0,0-.25.25Z"/><circle cx="5.75" cy="15.5" r="1"/><circle cx="8.75" cy="15.5" r="1"/><circle cx="11.75" cy="15.5" r="1"/><circle cx="14.75" cy="15.5" r="1"/><circle cx="7.25" cy="12.5" r="1"/><circle cx="10.25" cy="12.5" r="1"/><circle cx="13.25" cy="12.5" r="1"/><circle cx="8.75" cy="9.5" r="1"/><circle cx="11.75" cy="9.5" r="1"/><path d="M2.086,10.014a1,1,0,0,0-.822,1.15L2.985,21.493A2.991,2.991,0,0,0,5.944,24h8.612a2.991,2.991,0,0,0,2.959-2.507l1.721-10.329a1,1,0,0,0-1.972-.328L15.542,21.165a1,1,0,0,1-.986.835H5.944a1,1,0,0,1-.986-.835L3.236,10.836A.993.993,0,0,0,2.086,10.014Z"/></svg>