<svg id="Bold" xmlns="http://www.w3.org/2000/svg" viewBox="0 0 24 24"><title>water-protection-drop-1</title><path d="M4.416,17.725A13.038,13.038,0,0,0,12,19.914a13.038,13.038,0,0,0,7.584-2.189A1,1,0,1,0,18.416,16.1,11.056,11.056,0,0,1,12,17.914,11.056,11.056,0,0,1,5.584,16.1a1,1,0,1,0-1.168,1.622Z"/><path d="M23.771,18.528a1,1,0,0,0-1.407-.136A16.5,16.5,0,0,1,12,21.664,16.5,16.5,0,0,1,1.636,18.392,1,1,0,0,0,.364,19.936,18.516,18.516,0,0,0,12,23.664a18.516,18.516,0,0,0,11.636-3.728A1,1,0,0,0,23.771,18.528Z"/><path d="M12,15.914a5.506,5.506,0,0,0,5.5-5.5c0-2.367-3.264-7.543-4.667-9.658a1.037,1.037,0,0,0-1.666,0C9.763,2.871,6.5,8.046,6.5,10.414A5.506,5.506,0,0,0,12,15.914Zm-2.75-6a.5.5,0,0,1,.5.5A2.252,2.252,0,0,0,12,12.664a.5.5,0,0,1,0,1,3.254,3.254,0,0,1-3.25-3.25A.5.5,0,0,1,9.25,9.914Z"/></svg>