<svg id="Bold" xmlns="http://www.w3.org/2000/svg" viewBox="0 0 24 24"><title>weather-cloud-rain</title><path d="M20.844,7.074a.252.252,0,0,1-.1-.193A7,7,0,0,0,7.088,4.84a.249.249,0,0,1-.22.173A5.5,5.5,0,0,0,7.25,16h10.5a5,5,0,0,0,3.094-8.926ZM20.75,11a3,3,0,0,1-3,3H7.25A3.5,3.5,0,1,1,7.7,7.029,1,1,0,0,0,8.814,6.2,5,5,0,0,1,18.75,7c0,.146-.007.289-.02.433a1,1,0,0,0,.5.959A3.007,3.007,0,0,1,20.75,11Z"/><path d="M7.78,17.47a.749.749,0,0,0-1.06,0L1.47,22.72a.75.75,0,1,0,1.06,1.06l5.25-5.25A.749.749,0,0,0,7.78,17.47Z"/><path d="M12.28,17.47a.749.749,0,0,0-1.06,0L5.97,22.72a.75.75,0,1,0,1.06,1.06l5.25-5.25A.749.749,0,0,0,12.28,17.47Z"/><path d="M16.78,17.47a.749.749,0,0,0-1.06,0l-5.25,5.25a.75.75,0,1,0,1.06,1.06l5.25-5.25A.749.749,0,0,0,16.78,17.47Z"/></svg>