<svg id="Bold" xmlns="http://www.w3.org/2000/svg" viewBox="0 0 24 24"><title>weather-app-sun-cloud-location</title><path d="M8.25,3a1,1,0,0,0,1-1V1a1,1,0,0,0-2,0V2A1,1,0,0,0,8.25,3Z"/><path d="M3.124,4.538A1,1,0,1,0,4.538,3.123L3.83,2.416A1,1,0,1,0,2.416,3.831Z"/><path d="M3,8.25a1,1,0,0,0-1-1H1a1,1,0,0,0,0,2H2A1,1,0,0,0,3,8.25Z"/><path d="M14.085,2.417a1,1,0,0,0-1.415,0l-.708.707a1,1,0,0,0-.292.67.249.249,0,0,0,.337.243,8.545,8.545,0,0,1,2.125-.492.252.252,0,0,0,.219-.192A1,1,0,0,0,14.085,2.417Z"/><path d="M5.229,9.313a.249.249,0,0,0,.124-.285,3,3,0,0,1,4-3.569A.248.248,0,0,0,9.6,5.42,8.443,8.443,0,0,1,10.975,4.5.25.25,0,0,0,11,4.073a5,5,0,0,0-7.407,5.984.25.25,0,0,0,.4.1A7.069,7.069,0,0,1,5.229,9.313Z"/><path d="M13.327,19.143A.252.252,0,0,0,13.1,19H8.5a3.5,3.5,0,1,1,.448-6.971,1,1,0,0,0,1.116-.833,5,5,0,0,1,9.2-1.8.25.25,0,0,0,.2.119,6.443,6.443,0,0,1,1.784.385.25.25,0,0,0,.321-.321,7,7,0,0,0-13.23.26.249.249,0,0,1-.22.173A5.5,5.5,0,0,0,8.5,21h5.426a.25.25,0,0,0,.212-.382A14.92,14.92,0,0,1,13.327,19.143Z"/><path d="M24,16a5,5,0,0,0-10,0c0,3.171,4.457,7.664,4.646,7.854a.5.5,0,0,0,.708,0C19.543,23.664,24,19.171,24,16Zm-6.75,0A1.75,1.75,0,1,1,19,17.75,1.752,1.752,0,0,1,17.25,16Z"/></svg>