<svg id="Bold" xmlns="http://www.w3.org/2000/svg" viewBox="0 0 24 24"><title>weather-night-wind-1</title><path d="M23.523,10.337a4.5,4.5,0,0,1,0-7.674,1,1,0,0,0,0-1.7A6.5,6.5,0,0,0,14.35,3.52a.249.249,0,0,0,.148.354,8.5,8.5,0,0,1,1.356.552.251.251,0,0,0,.333-.1A4.5,4.5,0,0,1,20.125,2a4.723,4.723,0,0,1,.506.028.25.25,0,0,1,.167.4A6.465,6.465,0,0,0,19.375,6.5a6.6,6.6,0,0,0,.211,1.657.262.262,0,0,0,.019.049,8.49,8.49,0,0,1,.54,1.364.286.286,0,0,0,.02.048,6.387,6.387,0,0,0,.633.948.25.25,0,0,1-.167.4.192.192,0,0,0-.17.211v.01a.248.248,0,0,0,.075.154,6.516,6.516,0,0,1,1.034,1.309.25.25,0,0,0,.281.112,6.508,6.508,0,0,0,1.672-.725,1,1,0,0,0,0-1.7Z"/><path d="M19.094,12.073a.25.25,0,0,1-.1-.193A7,7,0,0,0,5.338,9.84a.249.249,0,0,1-.22.173A5.514,5.514,0,0,0,.14,14.263a.251.251,0,0,0,.067.233.248.248,0,0,0,.233.067A2.516,2.516,0,0,1,1,14.5h.965a.249.249,0,0,0,.235-.167,3.5,3.5,0,0,1,3.748-2.3A.99.99,0,0,0,7.064,11.2,5,5,0,0,1,17,12c0,.146-.007.29-.02.433a1,1,0,0,0,.5.959A3,3,0,0,1,16,19H13.5a.253.253,0,0,0-.117.029c-.094.05-.19.1-.288.14a.248.248,0,0,0-.117.353,3.981,3.981,0,0,1,.462,1.272.248.248,0,0,0,.246.206H16a5,5,0,0,0,3.094-8.927Z"/><path d="M0,17a1,1,0,0,0,1,1H11.5a2.5,2.5,0,0,0,0-5,1,1,0,0,0,0,2,.5.5,0,0,1,0,1H1A1,1,0,0,0,0,17Z"/><path d="M9.5,19H1a1,1,0,0,0,0,2H9.5a.5.5,0,0,1,0,1,1,1,0,0,0,0,2,2.5,2.5,0,0,0,0-5Z"/></svg>