<svg id="Bold" xmlns="http://www.w3.org/2000/svg" viewBox="0 0 24 24"><title>weather-night-rain</title><path d="M23.523,10.338a4.5,4.5,0,0,1,0-7.676,1,1,0,0,0,0-1.7A6.5,6.5,0,0,0,14.349,3.52a.25.25,0,0,0-.008.212.246.246,0,0,0,.157.142,8.412,8.412,0,0,1,1.356.552.252.252,0,0,0,.333-.1,4.491,4.491,0,0,1,4.444-2.3.249.249,0,0,1,.2.153.252.252,0,0,1-.037.252A6.462,6.462,0,0,0,19.375,6.5a6.615,6.615,0,0,0,.211,1.658.33.33,0,0,0,.019.049,8.443,8.443,0,0,1,.54,1.363.226.226,0,0,0,.021.048,6.3,6.3,0,0,0,.632.948.25.25,0,0,1-.168.4.193.193,0,0,0-.17.21v.011a.25.25,0,0,0,.075.155,6.482,6.482,0,0,1,1.034,1.308.25.25,0,0,0,.281.112,6.459,6.459,0,0,0,1.672-.725,1,1,0,0,0,0-1.7Z"/><path d="M19.094,12.074a.252.252,0,0,1-.1-.193A7,7,0,0,0,5.338,9.84a.249.249,0,0,1-.22.173A5.5,5.5,0,0,0,2.682,20.222a.252.252,0,0,0,.306-.038L4.1,19.076a.249.249,0,0,0,.07-.22.252.252,0,0,0-.141-.183,3.5,3.5,0,0,1,1.924-6.644A1,1,0,0,0,7.064,11.2,5,5,0,0,1,17,12c0,.146-.007.289-.02.433a1,1,0,0,0,.5.959,3,3,0,0,1,.567,4.8.252.252,0,0,0-.076.141,1.99,1.99,0,0,1-.558,1.084L15.95,20.879a.069.069,0,0,0-.016.077A.071.071,0,0,0,16,21a5,5,0,0,0,3.094-8.926Z"/><path d="M8.53,18.53a.75.75,0,1,0-1.06-1.06L2.22,22.72a.75.75,0,1,0,1.06,1.06Z"/><path d="M12.53,18.53a.75.75,0,0,0-1.06-1.06L6.22,22.72a.75.75,0,1,0,1.06,1.06Z"/><path d="M16.53,18.53a.75.75,0,0,0-1.06-1.06l-5.25,5.25a.75.75,0,1,0,1.06,1.06Z"/></svg>