<svg id="Bold" xmlns="http://www.w3.org/2000/svg" viewBox="0 0 24 24"><title>weather-rain-drops</title><path d="M8.25,3a1,1,0,0,0,1-1V1a1,1,0,0,0-2,0V2A1,1,0,0,0,8.25,3Z"/><path d="M3.124,4.538A1,1,0,1,0,4.538,3.123L3.83,2.416A1,1,0,1,0,2.416,3.831Z"/><path d="M3,8.25a1,1,0,0,0-1-1H1a1,1,0,0,0,0,2H2A1,1,0,0,0,3,8.25Z"/><path d="M14.085,2.417a1,1,0,0,0-1.415,0l-.708.707a1,1,0,0,0-.292.67.249.249,0,0,0,.337.243,8.545,8.545,0,0,1,2.125-.492.252.252,0,0,0,.219-.192A1,1,0,0,0,14.085,2.417Z"/><path d="M5.229,9.313a.249.249,0,0,0,.124-.285,3,3,0,0,1,4-3.569A.248.248,0,0,0,9.6,5.42,8.443,8.443,0,0,1,10.975,4.5.25.25,0,0,0,11,4.073a5,5,0,0,0-7.407,5.984.25.25,0,0,0,.4.1A7.069,7.069,0,0,1,5.229,9.313Z"/><path d="M22.094,12.073a.25.25,0,0,1-.1-.193A7,7,0,0,0,8.338,9.84a.249.249,0,0,1-.22.173A5.5,5.5,0,0,0,5.748,20.26a.249.249,0,0,0,.369-.158,7.951,7.951,0,0,1,.5-1.4.249.249,0,0,0-.087-.309,3.5,3.5,0,0,1,2.42-6.361,1,1,0,0,0,1.116-.833A5,5,0,0,1,20,12c0,.146-.007.29-.02.433a1,1,0,0,0,.5.959,3,3,0,0,1,1.228,3.9.246.246,0,0,0-.011.19A4.712,4.712,0,0,1,22,19c0,.155-.008.307-.023.458a.25.25,0,0,0,.419.208,5,5,0,0,0-.3-7.593Z"/><path d="M9.5,21a1,1,0,0,0,2,0,6.068,6.068,0,0,0-.782-1.773.251.251,0,0,0-.436,0A6.062,6.062,0,0,0,9.5,21Z"/><path d="M13.5,21c0-1.278-1.522-3.621-2.177-4.568a1.038,1.038,0,0,0-1.646,0C9.022,17.379,7.5,19.722,7.5,21a3,3,0,0,0,6,0Zm-3.218-1.772a.252.252,0,0,1,.436,0A6.068,6.068,0,0,1,11.5,21a1,1,0,0,1-2,0A6.062,6.062,0,0,1,10.282,19.228Z"/><path d="M18.5,19a6.068,6.068,0,0,0-.782-1.773.251.251,0,0,0-.436,0A6.062,6.062,0,0,0,16.5,19a1,1,0,0,0,2,0Z"/><path d="M18.323,14.432a1.038,1.038,0,0,0-1.646,0c-.655.947-2.177,3.29-2.177,4.568a3,3,0,0,0,6,0C20.5,17.722,18.978,15.379,18.323,14.432ZM16.5,19a6.062,6.062,0,0,1,.782-1.773.252.252,0,0,1,.436,0A6.068,6.068,0,0,1,18.5,19a1,1,0,0,1-2,0Z"/></svg>