<svg id="Bold" xmlns="http://www.w3.org/2000/svg" viewBox="0 0 24 24"><title>weather-rain-thunder</title><path d="M8.25,3a1,1,0,0,0,1-1V1a1,1,0,0,0-2,0V2A1,1,0,0,0,8.25,3Z"/><path d="M3.124,4.538A1,1,0,1,0,4.538,3.123L3.83,2.416A1,1,0,1,0,2.416,3.831Z"/><path d="M3,8.25a1,1,0,0,0-1-1H1a1,1,0,0,0,0,2H2A1,1,0,0,0,3,8.25Z"/><path d="M14.085,2.417a1,1,0,0,0-1.415,0l-.708.707a.992.992,0,0,0-.292.671.247.247,0,0,0,.1.211.251.251,0,0,0,.234.032,8.492,8.492,0,0,1,2.125-.493.252.252,0,0,0,.219-.192A1,1,0,0,0,14.085,2.417Z"/><path d="M5.229,9.313a.249.249,0,0,0,.124-.285,3,3,0,0,1,4-3.569A.248.248,0,0,0,9.6,5.42,8.379,8.379,0,0,1,10.975,4.5a.251.251,0,0,0,.02-.43,5,5,0,0,0-7.407,5.985.25.25,0,0,0,.4.1A7.069,7.069,0,0,1,5.229,9.313Z"/><path d="M22.094,12.074a.252.252,0,0,1-.1-.193A7,7,0,0,0,8.338,9.84a.249.249,0,0,1-.22.173,5.5,5.5,0,0,0-3.446,9.432.25.25,0,0,0,.351,0l1.059-1.06a.25.25,0,0,0,.074-.179.255.255,0,0,0-.077-.178,3.5,3.5,0,0,1,2.869-6,1,1,0,0,0,1.116-.833A5,5,0,0,1,20,12c0,.146-.007.289-.02.433a1,1,0,0,0,.5.959,3,3,0,0,1,1.429,3.336.252.252,0,0,0,.047.217,2.5,2.5,0,0,1,.507,1.975.25.25,0,0,0,.442.2,4.994,4.994,0,0,0-.812-7.044Z"/><path d="M13.961,22.092A.75.75,0,0,0,13.95,20.9L13,20.186a.25.25,0,0,1,0-.4l1.217-.946a.75.75,0,0,0-.922-1.184l-2.25,1.75A.75.75,0,0,0,11.05,20.6l.953.714a.25.25,0,0,1,0,.4l-1.217.946a.75.75,0,0,0,.922,1.184Z"/><path d="M10.53,18.53a.75.75,0,0,0-1.06-1.06L4.22,22.72a.75.75,0,1,0,1.06,1.06Z"/><path d="M20.53,19.03a.75.75,0,0,0-1.06-1.06l-4.75,4.75a.75.75,0,1,0,1.06,1.06Z"/></svg>