<svg id="Bold" xmlns="http://www.w3.org/2000/svg" viewBox="0 0 24 24"><title>weather-app-snow</title><path d="M14,17.5V21a1,1,0,0,1-1,1H3a1,1,0,0,1-1-1V3A1,1,0,0,1,3,2H8A1,1,0,0,0,8,0H3A3,3,0,0,0,0,3V21a3,3,0,0,0,3,3H13a3,3,0,0,0,3-3V17.5a1,1,0,1,0-2,0Z"/><path d="M10,19H6a.75.75,0,0,0,0,1.5h4A.75.75,0,0,0,10,19Z"/><path d="M23.056,7.885h0l-1.99.533a.248.248,0,0,1-.19-.024L18.837,7.217a.251.251,0,0,1,0-.434l2.038-1.177a.248.248,0,0,1,.19-.024l1.99.533a.737.737,0,0,0,.2.026.75.75,0,0,0,.194-1.475l-1.425-.382a.249.249,0,0,1-.176-.306l.381-1.424a.75.75,0,0,0-1.449-.389l-.533,1.991a.258.258,0,0,1-.117.152L18.088,5.484a.25.25,0,0,1-.375-.216V2.914a.251.251,0,0,1,.073-.177L19.243,1.28A.75.75,0,0,0,18.182.22L17.139,1.263a.25.25,0,0,1-.353,0L15.743.22a.75.75,0,1,0-1.061,1.06l1.457,1.457a.252.252,0,0,1,.074.177V5.268a.25.25,0,0,1-.375.217L13.8,4.308a.253.253,0,0,1-.116-.152l-.534-1.991a.75.75,0,0,0-1.449.389l.381,1.424a.249.249,0,0,1-.176.306l-1.425.382a.75.75,0,0,0,.194,1.475.737.737,0,0,0,.2-.026l1.99-.533a.248.248,0,0,1,.19.024l2.038,1.177a.251.251,0,0,1,0,.434L13.049,8.394a.248.248,0,0,1-.19.024l-1.99-.533a.75.75,0,0,0-.389,1.449l1.425.382a.249.249,0,0,1,.176.306L11.7,11.446a.75.75,0,0,0,.53.919.735.735,0,0,0,.194.026.751.751,0,0,0,.725-.556l.534-1.991a.253.253,0,0,1,.116-.152l2.039-1.177a.25.25,0,0,1,.375.217v2.354a.252.252,0,0,1-.074.177L14.682,12.72a.75.75,0,0,0,1.061,1.06l1.043-1.043a.25.25,0,0,1,.353,0l1.043,1.043a.75.75,0,1,0,1.061-1.06l-1.457-1.457a.251.251,0,0,1-.073-.177V8.732a.25.25,0,0,1,.375-.216l2.037,1.176a.258.258,0,0,1,.117.152l.533,1.991a.751.751,0,0,0,.725.556.73.73,0,0,0,.194-.026.75.75,0,0,0,.53-.919l-.381-1.424a.249.249,0,0,1,.176-.306l1.425-.382a.75.75,0,0,0-.388-1.449Z"/></svg>