<svg id="Bold" xmlns="http://www.w3.org/2000/svg" viewBox="0 0 24 24"><title>weather-night-snow</title><path d="M23.523,10.338a4.5,4.5,0,0,1,0-7.676,1,1,0,0,0,0-1.7A6.5,6.5,0,0,0,14.349,3.52a.25.25,0,0,0-.008.212.246.246,0,0,0,.157.142,8.5,8.5,0,0,1,1.356.552.251.251,0,0,0,.333-.1,4.492,4.492,0,0,1,4.444-2.295.249.249,0,0,1,.2.153.252.252,0,0,1-.037.252A6.462,6.462,0,0,0,19.375,6.5a6.615,6.615,0,0,0,.211,1.658.33.33,0,0,0,.019.049,8.443,8.443,0,0,1,.54,1.363.226.226,0,0,0,.021.048,6.381,6.381,0,0,0,.632.948.25.25,0,0,1-.168.4.193.193,0,0,0-.17.21l.006.056a.12.12,0,0,0,.037.078,6.544,6.544,0,0,1,1.067,1.34.249.249,0,0,0,.28.112,6.451,6.451,0,0,0,1.673-.725,1,1,0,0,0,0-1.7Z"/><path d="M19.094,12.074a.252.252,0,0,1-.1-.193A7,7,0,0,0,5.338,9.84a.249.249,0,0,1-.22.173A5.5,5.5,0,0,0,3.55,20.643a.25.25,0,0,0,.3-.362A2.481,2.481,0,0,1,3.5,19a2.514,2.514,0,0,1,.037-.428.25.25,0,0,0-.1-.245,3.5,3.5,0,0,1,2.509-6.3A1,1,0,0,0,7.064,11.2,5,5,0,0,1,17,12c0,.146-.007.289-.02.433a1,1,0,0,0,.5.959,3,3,0,0,1,.883,4.452.249.249,0,0,0-.036.246,2.5,2.5,0,0,1,0,1.816.25.25,0,0,0,.368.3,5,5,0,0,0,.4-8.134Z"/><circle cx="6" cy="23" r="1"/><circle cx="8.5" cy="21" r="1"/><circle cx="11" cy="23" r="1"/><circle cx="13.5" cy="21" r="1"/><circle cx="16" cy="23" r="1"/><circle cx="6" cy="19" r="1"/><circle cx="8.5" cy="17" r="1"/><circle cx="11" cy="19" r="1"/><circle cx="13.5" cy="17" r="1"/><circle cx="16" cy="19" r="1"/></svg>