<svg xmlns="http://www.w3.org/2000/svg" viewBox="0 0 24 24"><title>wedding-cake-heart</title><path d="M22.886,7.263a3.415,3.415,0,0,0-.542-1.084,6.615,6.615,0,0,0-5.782-2.171,7.855,7.855,0,0,0-1.709.316A.5.5,0,0,0,14.5,4.8V9.485a2.5,2.5,0,0,1-5,0V4.8a.5.5,0,0,0-.353-.478,7.855,7.855,0,0,0-1.709-.316A6.615,6.615,0,0,0,1.656,6.179a3.415,3.415,0,0,0-.542,1.084A3.227,3.227,0,0,0,1,8.2v5.885a4.644,4.644,0,0,0,1.848,3.722l7.974,5.807a1.995,1.995,0,0,0,2.356,0l7.974-5.807A4.644,4.644,0,0,0,23,14.086V8.2A3.227,3.227,0,0,0,22.886,7.263ZM21,14.086a2.625,2.625,0,0,1-1.033,2.11l-7.673,5.588a.5.5,0,0,1-.588,0L4.033,16.2A2.625,2.625,0,0,1,3,14.086V12.163a.5.5,0,0,1,.789-.409l7.632,5.4a1,1,0,0,0,1.158,0l7.632-5.4a.5.5,0,0,1,.789.409Z"/><path d="M12,4a1.5,1.5,0,0,0,1.5-1.5A6.4,6.4,0,0,0,12.424.235a.5.5,0,0,0-.848,0A6.4,6.4,0,0,0,10.5,2.5,1.5,1.5,0,0,0,12,4Z"/><path d="M11,5.5V9.486a1,1,0,0,0,2,0V5.5a1,1,0,0,0-2,0Z"/></svg>