<svg xmlns="http://www.w3.org/2000/svg" viewBox="0 0 24 24"><title>wedding-car-heart-balloon</title><path d="M23.428,1.4A2.594,2.594,0,0,0,19.31.741l-.359.354a.5.5,0,0,1-.7,0L17.89.741a2.594,2.594,0,0,0-4.118.658,2.5,2.5,0,0,0,.481,2.92L18.14,8.307a.645.645,0,0,0,.92,0l3.887-3.988A2.5,2.5,0,0,0,23.428,1.4Z"/><path d="M19.13,11.281a1,1,0,0,0-1.957-.414,7.39,7.39,0,0,0,.6,4.086c.5,1.4.863,2.446.156,3.534a.25.25,0,0,1-.452-.077A7.06,7.06,0,0,0,10.609,13c-2.26,0-5.285.876-7.039,4.986a.5.5,0,0,1-.4.3C1.452,18.492.3,19.55.3,21v1a1,1,0,0,0,1,1,.367.367,0,0,0,.267-.114.465.465,0,0,0,.1-.386,2.5,2.5,0,0,1,5,0,.5.5,0,0,0,.5.5H11.3a.5.5,0,0,0,.5-.5,2.5,2.5,0,0,1,5,0,.5.5,0,0,0,.5.5h.367a.5.5,0,0,0,.493-.582l-.145-.874a.5.5,0,0,1,.183-.475c3.014-2.388,2.155-4.819,1.457-6.786A5.716,5.716,0,0,1,19.13,11.281Zm-4.471,6.61a.252.252,0,0,1-.207.109H7.038a.5.5,0,0,1-.442-.734A4.435,4.435,0,0,1,10.55,15a4.385,4.385,0,0,1,4.135,2.659A.252.252,0,0,1,14.659,17.891Z"/><circle cx="4.167" cy="22.5" r="1.5"/><circle cx="14.3" cy="22.5" r="1.5"/></svg>