<svg xmlns="http://www.w3.org/2000/svg" viewBox="0 0 24 24"><title>wedding-car</title><path d="M4.5,21.5h-3A.5.5,0,0,0,1,22v1a1,1,0,0,0,1,1H4a1,1,0,0,0,1-1V22A.5.5,0,0,0,4.5,21.5Z"/><path d="M22.5,21.5h-3a.5.5,0,0,0-.5.5v1a1,1,0,0,0,1,1h2a1,1,0,0,0,1-1V22A.5.5,0,0,0,22.5,21.5Z"/><path d="M23.864,16l-1.344-2.3a5.971,5.971,0,0,1-.552-1.258L20.206,6.706A1,1,0,0,0,19.25,6H16.9a1,1,0,0,0-.721.308L14.962,7.577a.25.25,0,0,0,.18.423h2.631a1,1,0,0,1,.955.706l.969,3.147a.5.5,0,0,1-.478.647H4.781a.5.5,0,0,1-.478-.647l.969-3.147A1,1,0,0,1,6.227,8h2.63a.25.25,0,0,0,.181-.423L7.821,6.308A1,1,0,0,0,7.1,6H4.75a1,1,0,0,0-.956.706L2.032,12.434a5.971,5.971,0,0,1-.552,1.258L.136,16A1,1,0,0,0,0,16.5v3a1,1,0,0,0,1,1H23a1,1,0,0,0,1-1v-3A1,1,0,0,0,23.864,16Z"/><path d="M11.639,8.123a.5.5,0,0,0,.722,0L16.14,4.181A2.449,2.449,0,0,0,12.676.718l-.322.322a.5.5,0,0,1-.708,0L11.324.718A2.449,2.449,0,1,0,7.861,4.181Z"/></svg>