<svg id="Bold" xmlns="http://www.w3.org/2000/svg" viewBox="0 0 24 24"><title>whale-body</title><path d="M23.376,1.25a3.5,3.5,0,0,0-3.483,3.156,3.4,3.4,0,0,0-1.017-.156,3.5,3.5,0,0,0-3.5,3.5.5.5,0,0,0,.5.5h2.5a2,2,0,0,1,0,4H6.876A15.879,15.879,0,0,0,.748,13.573a.923.923,0,0,0-.559.568,1.04,1.04,0,0,0,.025.783,13.472,13.472,0,0,0,.734,1.348c1.009,3.6,2.969,7.373,8.518,7.373a13.515,13.515,0,0,0,3.433-.44,8.267,8.267,0,0,1-.987-1.82c-2.421.53-5.27.406-7.037-1.546A9.09,9.09,0,0,1,3.1,16.48a10.192,10.192,0,0,1,5.243,2.049,20.62,20.62,0,0,0,3.289,1.8.75.75,0,0,1,1.472-.1,6.058,6.058,0,0,0,2.085,3.156,4,4,0,0,0,2,.61.447.447,0,0,0,.439-.623l-1.142-2.663a.75.75,0,0,1,1.379-.592l.3.691c.007-.012,1.563-1.2,1.563-1.2a12.44,12.44,0,0,0,4.157-8.864v-9A.5.5,0,0,0,23.376,1.25ZM9.876,16.5a1,1,0,1,1,1-1A1,1,0,0,1,9.876,16.5Z"/><path d="M3.126,4.5a1,1,0,0,0,1-1,1.5,1.5,0,0,1,3,0v6a1,1,0,0,0,2,0v-6a1.5,1.5,0,0,1,3,0,1,1,0,0,0,2,0,3.5,3.5,0,0,0-6-2.447,3.5,3.5,0,0,0-6,2.447A1,1,0,0,0,3.126,4.5Z"/></svg>