<svg id="Bold" xmlns="http://www.w3.org/2000/svg" viewBox="0 0 24 24"><title>whale-body-1</title><path d="M9.5,2A1.5,1.5,0,0,1,11,3.5V6a1,1,0,0,0,2,0V3.5A1.5,1.5,0,0,1,14.5,2a1,1,0,0,0,0-2A3.485,3.485,0,0,0,12,1.058,3.485,3.485,0,0,0,9.5,0a1,1,0,0,0,0,2Z"/><path d="M23.853,21.146l-3.33-3.33a8.694,8.694,0,0,0,.445-2.685l-.007-6.578a3.594,3.594,0,0,0,1.775-1.52,4.858,4.858,0,0,0,.549-2.64.5.5,0,0,0-.218-.376.5.5,0,0,0-.43-.064l-2.352.732L18.46,3.12a.5.5,0,0,0-.679.026A3.107,3.107,0,0,0,17.17,5.36a4.037,4.037,0,0,0,.86,2.428,2.545,2.545,0,0,1-1.685,1.667A11.132,11.132,0,0,0,12.1,8.5c-4.2,0-8.872,2.724-8.872,6.631a8.675,8.675,0,0,0,.4,2.547L.147,21.146a.5.5,0,0,0,.076.77c1.7,1.151,4.467.969,5.16-1.02A8.611,8.611,0,0,0,12.1,24a8.611,8.611,0,0,0,6.587-2.951c.818,1.9,3.49,1.955,5.093.867a.5.5,0,0,0,.076-.77Zm-17.47-2.8a.848.848,0,0,1,.56-1.162,20.277,20.277,0,0,1,10.141-.071.847.847,0,0,1,.576,1.153,6.148,6.148,0,0,1-11.277.08Zm.368-6.092a1,1,0,1,1-1,1A1,1,0,0,1,6.751,12.25Zm10.5,2a1,1,0,1,1,1-1A1,1,0,0,1,17.25,14.25Z"/></svg>