<svg id="Bold" xmlns="http://www.w3.org/2000/svg" viewBox="0 0 24 24"><title>whale-tail</title><path d="M6.85,8.4c3.35,1.914,3.212,2.741,2.755,5.483-.3,1.814-.607,3.454-.8,4.459a2.967,2.967,0,0,0,1.662-1.018,2.584,2.584,0,0,1,2.005-1.006,2.505,2.505,0,0,1,2.261,1.424,1.262,1.262,0,0,0,1.638.511c-.192-1.011-.487-2.607-.782-4.37-.456-2.742-.594-3.57,2.755-5.483a5.321,5.321,0,0,0,2.546-5.372,1,1,0,0,0-1.767-.558A5.23,5.23,0,0,1,16.463,3.98,6.315,6.315,0,0,0,12.6,6.708,6.321,6.321,0,0,0,8.736,3.98,5.3,5.3,0,0,1,6.073,2.465,1,1,0,0,0,4.3,3.023,5.322,5.322,0,0,0,6.85,8.4Z"/><path d="M22.93,19.854a3.4,3.4,0,0,1-2.676-1.57,1.044,1.044,0,0,0-1.72.029,3.354,3.354,0,0,1-2.748,1.552,2.8,2.8,0,0,1-2.4-1.483,1.045,1.045,0,0,0-1.714-.159,4.3,4.3,0,0,1-3.108,1.642A3.56,3.56,0,0,1,5.8,18.284a1.041,1.041,0,0,0-1.638-.091c-.015.018-1.477,1.769-3.109,1.7A.982.982,0,0,0,0,20.843c-.01.189.043,1.056,1.168,1.056a5.837,5.837,0,0,0,3.726-1.606,5.244,5.244,0,0,0,3.664,1.572,5.858,5.858,0,0,0,3.811-1.5,4.573,4.573,0,0,0,3.416,1.5,5.151,5.151,0,0,0,3.622-1.5,4.8,4.8,0,0,0,3.661,1.482,1,1,0,1,0-.139-2Z"/></svg>