<svg id="Bold" xmlns="http://www.w3.org/2000/svg" viewBox="0 0 24 24"><title>wild-bird-sing</title><path d="M21.586,6.75l-5.992.227L13.577.7A1,1,0,0,0,11.8.438S8.018,6.017,8,6.056A7.4,7.4,0,0,0,2.44,17.248c1.906,3.335.4,5.193-.013,6.028A.5.5,0,0,0,2.874,24h12.5a.5.5,0,0,0,.448-.723c-1.474-2.947-.923-4.372-.287-6.024a10.99,10.99,0,0,0,.779-2.867c.095-.047,6.017-5.929,6.017-5.929A1,1,0,0,0,21.586,6.75ZM8.624,10.5a1,1,0,1,1-1,1A1,1,0,0,1,8.624,10.5Zm7.615,1.22a.5.5,0,0,1-.766-.071,20.3,20.3,0,0,0-4.951-4.885.5.5,0,0,1-.14-.7L12.3,3.253l1.624,5.058a.973.973,0,0,0,.99.693l4.2-.159Z"/></svg>