<svg id="Bold" xmlns="http://www.w3.org/2000/svg" viewBox="0 0 24 24"><title>wild-bird-footstep</title><path d="M18.537,10.749a1,1,0,0,0-1,1v4.5a1,1,0,1,0,2,0v-4.5A1,1,0,0,0,18.537,10.749Z"/><path d="M14.988,14.133a1,1,0,1,0-1.576,1.231l2.337,2.993a1,1,0,1,0,1.576-1.231Z"/><path d="M23.49,13.96a1,1,0,0,0-1.4.173l-2.338,2.993a1,1,0,1,0,1.576,1.231l2.338-2.993A1,1,0,0,0,23.49,13.96Z"/><path d="M18.537,18.749a1,1,0,0,0-1,1v3a1,1,0,1,0,2,0v-3A1,1,0,0,0,18.537,18.749Z"/><path d="M12.475,10.262c.589,1.117.951,1.877.956,1.888a1,1,0,1,0,1.807-.858c-.032-.067-2.088-3.919-2.175-3.994A3.687,3.687,0,0,1,9.948,9.206,3.5,3.5,0,0,1,6.61,6.789a.75.75,0,0,1,1.4-.534,2.1,2.1,0,0,0,.753,1.082,2.071,2.071,0,0,0,2.97-.743l.3-.5C9.579,2.213,7.51.251,5.875.251A8.642,8.642,0,0,0,.344,2.531.75.75,0,0,0,1.4,3.593a5.284,5.284,0,0,1,.6-.485c.235,2.049.815,5.907,1.967,7.443a5.045,5.045,0,0,0,.613.677l-.641,1.661a1,1,0,0,0,1.865.719L6.318,12.3a5.225,5.225,0,0,0,1.426.322l-.3.772a1,1,0,0,0,1.865.719l.714-1.851A6.059,6.059,0,0,0,12.475,10.262Zm-6.846-6.2a1,1,0,1,1,1-1A1,1,0,0,1,5.629,4.061Z"/></svg>