<svg id="Bold" xmlns="http://www.w3.org/2000/svg" viewBox="0 0 24 24"><title>wild-bird-2</title><path d="M21.476,10.662a1.43,1.43,0,0,0-2.092-.014,22.6,22.6,0,0,1-2.251,2.037.761.761,0,0,1-1.055-.118.75.75,0,0,1,.118-1.054,20.379,20.379,0,0,0,2.2-2,1.624,1.624,0,0,0,0-2.2c-.126-.137-.295-.345-.509-.311a.5.5,0,0,0-.369.167L16.211,8.633a4.252,4.252,0,0,0-3.6-2.133A4,4,0,0,0,9.617,7.836c0-.074,0-.148,0-.222C9.65,4.145,9.67,1.853,8.54.712A2.571,2.571,0,0,0,6.608,0,5.744,5.744,0,0,0,2.7,1.663a1,1,0,0,0,.187,1.582c.643.378,1.777,1.035,2.909,1.646a1.5,1.5,0,0,1,.788,1.314l.026,5.3a4.99,4.99,0,0,0,1.726,3.776L10.6,19.307a1.993,1.993,0,0,1,.257.979V22a1,1,0,0,0,0,2h1a1,1,0,0,0,1-1V20.286a3.994,3.994,0,0,0-.515-1.961l-1.032-1.834a9.84,9.84,0,0,0,2.7-.276l.848,1.8V22a1,1,0,0,0,0,2h1a1,1,0,0,0,1-1V17.15l.224-2.131A15.03,15.03,0,0,0,21.5,11.313.5.5,0,0,0,21.476,10.662Z"/></svg>