<svg id="Bold" xmlns="http://www.w3.org/2000/svg" viewBox="0 0 24 24"><title>wildlife-protection-tree-shield-1</title><path d="M21.319,1.915A22.6,22.6,0,0,0,12,0,22.6,22.6,0,0,0,2.681,1.915,2.044,2.044,0,0,0,1.5,3.774v7.637c0,8.486,7.43,11.963,9.269,12.369h0a3.559,3.559,0,0,0,2.514-.021c.044-.017.064-.009.1-.038,2.138-.752,9.114-3.859,9.114-12.311V3.774A2.044,2.044,0,0,0,21.319,1.915ZM5.25,12.5A.75.75,0,1,1,6,11.75.75.75,0,0,1,5.25,12.5ZM17,17H7a.5.5,0,0,1-.5-.5c0-1.331,1.9-2.16,4.059-2.416A.5.5,0,0,0,11,13.589a.6.6,0,0,0-.372-.553l-1.5-.609a1,1,0,1,1,.75-1.854l.781.316A.249.249,0,0,0,11,10.658V9.427a.5.5,0,0,0-.276-.447L9.658,8.447A2.984,2.984,0,0,1,8,5.763V5a1,1,0,0,1,2,0v.763a.994.994,0,0,0,.553.9l.085.043A.25.25,0,0,0,11,6.477V6a1,1,0,0,1,2,0V8.7a.25.25,0,0,0,.338.234l1.013-.38A1,1,0,0,0,15,7.614V6a1,1,0,0,1,2,0V7.614a3.014,3.014,0,0,1-1.947,2.809l-1.729.648a.5.5,0,0,0-.324.468v2.05a.5.5,0,0,0,.441.495C15.6,14.34,17.5,15.169,17.5,16.5A.5.5,0,0,1,17,17Zm2.25-4a.75.75,0,1,1,.75-.75A.75.75,0,0,1,19.25,13Z"/></svg>