<svg id="Bold" xmlns="http://www.w3.org/2000/svg" viewBox="0 0 24 24"><title>wild-bird-owl-body</title><path d="M10.5,13.611a.749.749,0,0,1,1.482-.222,9.057,9.057,0,0,0,7.856,7.525A52.32,52.32,0,0,0,18.1,13.19c-1.026-3.31-2.592-5.282-3.634-5.908A9.08,9.08,0,0,0,14.625,5.6a4.16,4.16,0,0,0-.643-2.261,8.773,8.773,0,0,0-3.754,2.99.749.749,0,0,1-1.206,0A8.822,8.822,0,0,0,5.267,3.336,4.168,4.168,0,0,0,4.625,5.6a8.273,8.273,0,0,0,.646,3.357,11.9,11.9,0,0,0,2.375,9.132,13.529,13.529,0,0,0,1.281,1.47L7.948,22H7.125a1,1,0,0,0,0,2h3a1,1,0,0,0,0-2H10.1l.43-1.072a14.159,14.159,0,0,0,9.092,2.828.5.5,0,0,0,.5-.547c0-.012-.028-.287-.085-.76A10.576,10.576,0,0,1,10.5,13.611Zm1.88-8.117a1,1,0,1,1-1,1A1,1,0,0,1,12.375,5.494ZM8.875,8.5a.75.75,0,0,1,1.5,0V9a.75.75,0,0,1-1.5,0Zm-1-2.006a1,1,0,1,1-1-1A1,1,0,0,1,7.875,6.494Z"/><path d="M9.022,4.577a.749.749,0,0,0,1.206,0,8.859,8.859,0,0,1,4.4-3.082.747.747,0,1,0,0-1.494,5.749,5.749,0,0,0-3.4,1.428,6.43,6.43,0,0,0-3.2,0A5.749,5.749,0,0,0,4.625,0a.747.747,0,1,0,0,1.494A9.046,9.046,0,0,1,9.022,4.577Z"/></svg>