<svg id="Bold" xmlns="http://www.w3.org/2000/svg" viewBox="0 0 24 24"><title>wild-bird-head</title><path d="M19.951,6.2C19.461,2.3,15.417,0,11.5,0,8.042,0,0,1.754,0,18v5.5a.5.5,0,0,0,.5.5h15a.5.5,0,0,0,.5-.5,60.231,60.231,0,0,1,.623-9.5,9.641,9.641,0,0,1,5.6,1.245c1.4.8,1.774-.449,1.774-.744C24,8.586,21.086,6.708,19.951,6.2ZM6.532,5.5H9.7a4.6,4.6,0,0,0,.124,5.6C7.317,10.833,6.281,8.751,6.532,5.5Zm5.256,10.763c-1.167,3.5-4.712,3.506-7.54,3.495a.5.5,0,0,1-.5-.5V16a20.489,20.489,0,0,1,.706-5.554.5.5,0,0,1,.922-.1,5.015,5.015,0,0,0,2.014,2.077,6.233,6.233,0,0,0,3.059.712,10.607,10.607,0,0,0,1.779-.161.5.5,0,0,1,.542.694C12.455,14.388,12.129,15.24,11.788,16.263Zm.944-5.435a2.826,2.826,0,0,1-1.919-2.609,2.722,2.722,0,0,1,2.1-2.635c.927.251,1.62,1.128,2.057,2.633C15.554,10.242,13.327,10.683,12.732,10.828Zm4.3,1.138c.6-2.453,1.329-3.564,1.842-4.061,2.778,1.238,3,4.651,3.036,4.944A11.6,11.6,0,0,0,17.028,11.966Z"/><circle cx="13" cy="8.494" r="1"/></svg>