<svg id="Bold" xmlns="http://www.w3.org/2000/svg" viewBox="0 0 24 24"><title>wild-bird-woodpecker</title><path d="M23,1a1,1,0,0,0-1-1H16a1,1,0,0,0-1,1V13.3a.5.5,0,0,1-.5.5H12.783a.5.5,0,0,1-.488-.392A8.555,8.555,0,0,0,9.534,8.832c.222-.26,3.192-3.888,3.808-4.468A.5.5,0,0,0,13,3.5H9c-5.351,0-7.446,4.665-7.97,6.119a.5.5,0,0,0,.694.618c2.039-1.022,2.686-.637,3.37-.232.142.084.283.166.429.238.5,1.481.477,8.079.437,9.008C7.4,18.955,8.5,17.3,8.5,15.3A2.987,2.987,0,0,0,8,13.634a.5.5,0,1,1,.832-.555A3.982,3.982,0,0,1,9.5,15.3c0,2.59-1.584,4.727-3.605,4.975A9.992,9.992,0,0,1,5.24,23.3a.5.5,0,0,0,.59.679,9,9,0,0,0,5.712-4.655.5.5,0,0,1,.521-.27c.615.092,1.854.272,2.509.367a.5.5,0,0,1,.428.5V23a1,1,0,0,0,1,1h6a1,1,0,0,0,1-1ZM18.833,5.5c0,1.381-.41,2.5-.916,2.5S17,6.881,17,5.5s.41-2.5.917-2.5S18.833,4.119,18.833,5.5ZM7,7.3a1,1,0,1,1,1-1A1,1,0,0,1,7,7.3Zm5.831,9.858a.5.5,0,0,1-.425-.567c.017-.114.031-.229.044-.345a.5.5,0,0,1,.5-.446H14.5a.5.5,0,0,1,.5.5v.591a.5.5,0,0,1-.571.5Z"/></svg>