<svg id="Bold" xmlns="http://www.w3.org/2000/svg" viewBox="0 0 24 24"><title>wild-pig</title><path d="M21.439,8.084c.588-.978,1.992-3.534,1.518-4.871a1.257,1.257,0,0,0-.81-.8c-1.036-.349-3.217.229-4.092.489L16.5.8A.5.5,0,0,0,15.74.747l-.9.913L12.232.075a.5.5,0,0,0-.52,0L9.1,1.66,8.2.747A.489.489,0,0,0,7.812.6a.5.5,0,0,0-.366.2l-1.557,2.1c-.875-.262-3.056-.839-4.093-.489a1.244,1.244,0,0,0-.8.8c-.468,1.337.967,3.9,1.568,4.875a12.193,12.193,0,0,0-2.253,6.59C.306,22.023,7.591,24,12,24s11.694-1.976,11.694-9.322A12.2,12.2,0,0,0,21.439,8.084ZM9.868,8.551A1.333,1.333,0,1,1,8.535,7.218,1.332,1.332,0,0,1,9.868,8.551Zm-5.74,4.532a.519.519,0,0,1,.473-.3h.015a.517.517,0,0,1,.468.331,11.365,11.365,0,0,0,1.973,3.51h0a1.749,1.749,0,0,1-1.287,2.931,2.619,2.619,0,0,1-2.616-2.615A9.4,9.4,0,0,1,4.128,13.083Zm4.884,4.522a3.239,3.239,0,0,0-.85-2,4.271,4.271,0,0,1-.312-.382c.378-1.616,2.043-3.975,4.15-3.975s3.772,2.359,4.15,3.975a4.271,4.271,0,0,1-.312.382,3.245,3.245,0,0,0-.85,2A7.046,7.046,0,0,1,12,18.113,7.052,7.052,0,0,1,9.012,17.605Zm7.617.9a1.747,1.747,0,0,1,.313-1.885h0a11.36,11.36,0,0,0,1.973-3.511.518.518,0,0,1,.468-.33H19.4a.52.52,0,0,1,.473.3,9.4,9.4,0,0,1,.973,3.855,2.619,2.619,0,0,1-2.616,2.615A1.747,1.747,0,0,1,16.629,18.507ZM15.465,9.883A1.333,1.333,0,1,1,16.8,8.551,1.332,1.332,0,0,1,15.465,9.883Z"/><path d="M9.335,15.214A1.066,1.066,0,1,0,10.4,14.147,1.066,1.066,0,0,0,9.335,15.214Z"/><path d="M14.665,15.214A1.066,1.066,0,1,0,13.6,16.28,1.067,1.067,0,0,0,14.665,15.214Z"/></svg>