<svg id="Bold" xmlns="http://www.w3.org/2000/svg" viewBox="0 0 24 24"><title>wild-bird-flock-1</title><path d="M8.964,13.187a.25.25,0,0,0-.019-.285.246.246,0,0,0-.274-.081A2.631,2.631,0,0,1,7.4,12.9c1.075-1.052.558-2.981.075-3.951a.252.252,0,0,0-.428-.034l-2.21,3.094c-.168-.066-.337-.129-.507-.185-1.689-.572-2.758,1.535-2.8,1.625a.25.25,0,0,0,.224.362H3.1A2.862,2.862,0,0,0,5.642,15.25,3.938,3.938,0,0,0,8.964,13.187Z"/><path d="M7.75,7.75H9.1a2.86,2.86,0,0,0,2.542,1.443,3.94,3.94,0,0,0,3.322-2.064.25.25,0,0,0-.019-.285.247.247,0,0,0-.274-.081A2.58,2.58,0,0,1,13.4,6.84c1.076-1.051.56-2.981.076-3.951a.25.25,0,0,0-.2-.138.247.247,0,0,0-.224.1L10.837,5.949q-.254-.1-.508-.186C8.638,5.2,7.571,7.3,7.526,7.389a.249.249,0,0,0,.224.361Z"/><path d="M22.445,4.344a.248.248,0,0,0-.274-.081A2.59,2.59,0,0,1,20.9,4.34c1.076-1.051.56-2.981.076-3.951a.25.25,0,0,0-.2-.138.247.247,0,0,0-.224.1L18.337,3.449q-.253-.1-.508-.186c-1.692-.564-2.758,1.536-2.8,1.626a.249.249,0,0,0,.224.361H16.6a2.86,2.86,0,0,0,2.542,1.443,3.94,3.94,0,0,0,3.322-2.064A.25.25,0,0,0,22.445,4.344Z"/><path d="M13.464,17.687a.25.25,0,0,0-.019-.285.245.245,0,0,0-.274-.081A2.631,2.631,0,0,1,11.9,17.4c1.075-1.052.558-2.981.075-3.951a.249.249,0,0,0-.2-.137.235.235,0,0,0-.224.1l-2.21,3.094c-.168-.066-.337-.129-.507-.185-1.69-.564-2.758,1.536-2.8,1.625a.25.25,0,0,0,.224.362H7.6a2.862,2.862,0,0,0,2.542,1.442A3.938,3.938,0,0,0,13.464,17.687Z"/><path d="M19.171,21.321A2.632,2.632,0,0,1,17.9,21.4c1.075-1.052.558-2.981.075-3.951a.249.249,0,0,0-.2-.137.228.228,0,0,0-.224.1l-2.21,3.094c-.168-.066-.337-.129-.507-.185-1.692-.572-2.758,1.535-2.8,1.625a.25.25,0,0,0,.224.362H13.6a2.862,2.862,0,0,0,2.542,1.442,3.938,3.938,0,0,0,3.322-2.063.25.25,0,0,0-.293-.366Z"/></svg>