<svg id="Bold" xmlns="http://www.w3.org/2000/svg" viewBox="0 0 24 24"><title>wind-cloud-sun</title><path d="M8.25,3a1,1,0,0,0,1-1V1a1,1,0,0,0-2,0V2A1,1,0,0,0,8.25,3Z"/><path d="M3.124,4.538A1,1,0,1,0,4.538,3.123L3.83,2.416A1,1,0,1,0,2.416,3.831Z"/><path d="M1,9.25H2a1,1,0,0,0,0-2H1a1,1,0,0,0,0,2Z"/><path d="M14.085,2.417a1,1,0,0,0-1.415,0l-.708.707a1,1,0,0,0-.292.67.249.249,0,0,0,.337.243,8.545,8.545,0,0,1,2.125-.492.252.252,0,0,0,.219-.192A1,1,0,0,0,14.085,2.417Z"/><path d="M5.229,9.313a.249.249,0,0,0,.124-.285,3,3,0,0,1,4-3.569A.248.248,0,0,0,9.6,5.42,8.443,8.443,0,0,1,10.975,4.5.25.25,0,0,0,11,4.073a5,5,0,0,0-7.407,5.984.25.25,0,0,0,.4.1A7.069,7.069,0,0,1,5.229,9.313Z"/><path d="M22,12h0A7,7,0,0,0,8.338,9.84a.249.249,0,0,1-.22.173,5.514,5.514,0,0,0-4.96,4.177A.252.252,0,0,0,3.2,14.4a.248.248,0,0,0,.2.1H4.964a.25.25,0,0,0,.236-.167,3.5,3.5,0,0,1,3.748-2.3,1,1,0,0,0,1.116-.833A5,5,0,0,1,20,12c0,.147-.007.293-.019.438a1,1,0,0,0,.5.954A3,3,0,0,1,19,19H15.1a.251.251,0,0,0-.212.383,3.983,3.983,0,0,1,.546,1.411.248.248,0,0,0,.246.206H19a5,5,0,0,0,3-9Z"/><path d="M11.5,19H1a1,1,0,0,0,0,2H11.5a.5.5,0,0,1,0,1,1,1,0,0,0,0,2,2.5,2.5,0,0,0,0-5Z"/><path d="M1,18H9.5a2.5,2.5,0,0,0,0-5,1,1,0,0,0,0,2,.5.5,0,0,1,0,1H1a1,1,0,1,0,0,2Z"/></svg>