<svg id="Bold" xmlns="http://www.w3.org/2000/svg" viewBox="0 0 24 24"><title>wine-grapes</title><path d="M12,0A12,12,0,1,0,24,12,12.013,12.013,0,0,0,12,0Zm1.5,6a2,2,0,0,1,2-2h.75a.25.25,0,0,1,.25.25V5a2,2,0,0,1-2,2h-.75a.25.25,0,0,1-.25-.25ZM10.75,3.5a.75.75,0,0,1,1.5,0V7a.75.75,0,0,1-1.5,0ZM12,8.5a2,2,0,1,1-2,2A2,2,0,0,1,12,8.5Zm-7,2a2,2,0,1,1,2,2A2,2,0,0,1,5,10.5ZM7.5,15a2,2,0,1,1,2,2A2,2,0,0,1,7.5,15ZM12,21a2,2,0,1,1,2-2A2,2,0,0,1,12,21Zm2.5-4a2,2,0,1,1,2-2A2,2,0,0,1,14.5,17ZM17,12.5a2,2,0,1,1,2-2A2,2,0,0,1,17,12.5Z"/></svg>