<svg id="Bold" xmlns="http://www.w3.org/2000/svg" viewBox="0 0 24 24"><title>wine-glass-bottle</title><path d="M7.5,2.75H10a.25.25,0,0,0,.25-.25v-1a1,1,0,0,0-1-1h-1a1,1,0,0,0-1,1v1A.25.25,0,0,0,7.5,2.75Z"/><path d="M12.54,20.37a.3.3,0,0,0,.21-.262v-.415a.487.487,0,0,0-.174-.361,5.168,5.168,0,0,1-1.826-3.943V13a2.5,2.5,0,0,1,1.7-2.365.365.365,0,0,0,.066-.413L10.482,7.778a1,1,0,0,1-.232-.64V4.5A.25.25,0,0,0,10,4.25H7.5a.25.25,0,0,0-.25.25V7.138a1,1,0,0,1-.232.64L4.982,10.222a1,1,0,0,0-.232.64V22.5a1,1,0,0,0,1,1h5.064a.29.29,0,0,0,.287-.354A2.156,2.156,0,0,1,11,22.5,2.249,2.249,0,0,1,12.54,20.37Z"/><path d="M16.915,18.788A3.594,3.594,0,0,0,19.25,15.5V13a1,1,0,0,0-1-1h-5a1,1,0,0,0-1,1v2.389a3.579,3.579,0,0,0,2.334,3.4.243.243,0,0,1,.166.228V21.25a.25.25,0,0,1-.25.25H13.25a1,1,0,0,0,0,2h5a1,1,0,0,0,0-2H17a.25.25,0,0,1-.25-.25V19.015A.242.242,0,0,1,16.915,18.788ZM16.25,17.5a.5.5,0,0,1,0-1,1,1,0,0,0,1-1,.5.5,0,0,1,1,0A2,2,0,0,1,16.25,17.5Z"/></svg>