<svg xmlns="http://www.w3.org/2000/svg" viewBox="0 0 24 24"><title>wireless-payment-smartphone-1</title><path d="M12.863,3.01a5.629,5.629,0,0,1,6.155,0,.979.979,0,1,0,1.088-1.628,7.624,7.624,0,0,0-8.331,0A.979.979,0,0,0,12.863,3.01Z"/><path d="M12.889,4.322A.979.979,0,1,0,13.977,5.95a3.593,3.593,0,0,1,3.928,0,.979.979,0,0,0,1.088-1.628A5.586,5.586,0,0,0,12.889,4.322Z"/><path d="M21.055,21.527A2.633,2.633,0,0,1,18.2,19.55l-.129-.1H12.03a.25.25,0,0,1-.25-.25v-6.99A.25.25,0,0,1,12,11.965l1.066-.153a.97.97,0,0,0,.769-.628c.013-.035.033-.066.043-.1l.08-.323a.978.978,0,0,0-.757-1.2L9.817,8.885a.978.978,0,0,0-.879.262l-.894.88L5.206,12.819l-.016.018a.979.979,0,0,1-.751.35H.748a.25.25,0,0,0-.25.25v7.331a.249.249,0,0,0,.25.25s5.2,0,5.628.008a.36.36,0,0,1,.056.008c.174.046,1.116.292,1.613.42a.247.247,0,0,0,.309-.243V15.536a.734.734,0,0,1,1.468,0v6.719a1.737,1.737,0,0,0,1.713,1.6h8.81a1.713,1.713,0,0,0,1.713-1.713v-.367a.25.25,0,0,0-.25-.25Zm-4.136,0a.979.979,0,1,1-.979-.979A.978.978,0,0,1,16.919,21.527Z"/><path d="M22.058,8.207a.979.979,0,0,0-1.958,0V9.531a.25.25,0,0,0,.25.25h1.458a.25.25,0,0,0,.25-.25Z"/><path d="M22.523,11.249H20.076c-.979,0-1.469.49-1.469.979a56.223,56.223,0,0,0,.979,6.852c.31.928.757.979,1.469.979h1.468a.979.979,0,0,0,.979-.979V12.228A.979.979,0,0,0,22.523,11.249Z"/></svg>