<svg xmlns="http://www.w3.org/2000/svg" viewBox="0 0 24 24"><title>wireless-payment-smartphone</title><path d="M14.753,3.2a5.33,5.33,0,0,1,6.744,0,1,1,0,0,0,1.256-1.557,7.318,7.318,0,0,0-9.256,0A1,1,0,0,0,14.753,3.2Z"/><path d="M15.164,4.3A1,1,0,0,0,16.42,5.86a2.694,2.694,0,0,1,3.41,0A1,1,0,0,0,21.086,4.3,4.684,4.684,0,0,0,15.164,4.3Z"/><path d="M.715,12.506h6.82a.5.5,0,0,0,.493-.582L7.264,7.342a1,1,0,0,0-.986-.836h-.9a.25.25,0,0,1-.25-.25v-1.5a.25.25,0,0,1,.25-.25h.75a.5.5,0,0,0,.5-.5v-1.5a.5.5,0,0,0-.5-.5h-4a.5.5,0,0,0-.5.5v1.5a.5.5,0,0,0,.5.5h.75a.25.25,0,0,1,.25.25v1.5a.25.25,0,0,1-.25.25h-.9a1,1,0,0,0-.986.836L.222,11.924a.5.5,0,0,0,.493.582Zm2.41-4.5h2a.5.5,0,0,1,0,1h-2a.5.5,0,0,1,0-1Z"/><path d="M9.625,14.006h-9a.5.5,0,0,0-.5.5v9a.5.5,0,0,0,.5.5h8.5a1,1,0,0,0,1-1v-8.5A.5.5,0,0,0,9.625,14.006Z"/><path d="M16.681,15.423a.75.75,0,1,0,0,1.5h.444a.25.25,0,0,1,.25.25v.083a.75.75,0,0,0,1.5,0V17.1a.188.188,0,0,1,.169-.187,1.345,1.345,0,0,0,1.275-1.458c0-.872-.862-1.452-1.775-2.067-.144-.1-.325-.218-.5-.339a.25.25,0,0,1,.142-.455h1.381a.75.75,0,0,0,0-1.5h-.444a.25.25,0,0,1-.25-.25v-.084a.75.75,0,0,0-1.5,0v.157a.187.187,0,0,1-.172.187,1.318,1.318,0,0,0-1.272,1.462c0,.872.862,1.452,1.775,2.066.143.1.323.218.5.342a.25.25,0,0,1-.146.453Z"/><path d="M21.125,7.256h-6a2.753,2.753,0,0,0-2.75,2.75v11.25a2.752,2.752,0,0,0,2.75,2.75h6a2.752,2.752,0,0,0,2.75-2.75V10.006A2.753,2.753,0,0,0,21.125,7.256Zm-4,14.5a1,1,0,1,1,1,1A1,1,0,0,1,17.125,21.756Zm-2-13h6a1.252,1.252,0,0,1,1.25,1.25v9.25a.25.25,0,0,1-.25.25h-8a.25.25,0,0,1-.25-.25v-9.25A1.252,1.252,0,0,1,15.125,8.756Z"/></svg>