<svg xmlns="http://www.w3.org/2000/svg" viewBox="0 0 24 24"><title>wireless-payment-credit-card-dollar</title><path d="M8.5,19h-6a.5.5,0,0,1-.5-.5V4.5A.5.5,0,0,1,2.5,4h9a.5.5,0,0,1,.5.5v6a1,1,0,0,0,2,0v-8A2.5,2.5,0,0,0,11.5,0h-9A2.5,2.5,0,0,0,0,2.5v19A2.5,2.5,0,0,0,2.5,24h6a.5.5,0,0,0,.5-.5v-4A.5.5,0,0,0,8.5,19Z"/><path d="M6.875,15.75a.75.75,0,0,0,.75-.75v-.3a.25.25,0,0,1,.2-.245,2.092,2.092,0,0,0,.36-3.992L6.122,9.641A.592.592,0,0,1,6.342,8.5H8.375a.75.75,0,0,0,0-1.5h-.5a.25.25,0,0,1-.25-.25V6.5a.75.75,0,0,0-1.5,0v.3a.25.25,0,0,1-.2.245,2.092,2.092,0,0,0-.36,3.992l2.063.825A.592.592,0,0,1,7.408,13H5.375a.75.75,0,0,0,0,1.5h.5a.25.25,0,0,1,.25.25V15A.75.75,0,0,0,6.875,15.75Z"/><path d="M24,15.25a1.752,1.752,0,0,0-1.75-1.75h-10a1.752,1.752,0,0,0-1.75,1.75v7A1.752,1.752,0,0,0,12.25,24h10A1.752,1.752,0,0,0,24,22.25ZM22.25,22.5h-10a.25.25,0,0,1-.25-.25v-3a.25.25,0,0,1,.25-.25h10a.25.25,0,0,1,.25.25v3A.25.25,0,0,1,22.25,22.5Zm-10-7.5h10a.25.25,0,0,1,.25.25v1a.25.25,0,0,1-.25.25h-10a.25.25,0,0,1-.25-.25v-1A.25.25,0,0,1,12.25,15Z"/><path d="M21,20.75a.75.75,0,0,0-.75-.75H19a.75.75,0,0,0,0,1.5h1.25A.75.75,0,0,0,21,20.75Z"/></svg>