<svg id="Bold" xmlns="http://www.w3.org/2000/svg" viewBox="0 0 24 24"><title>wolf-body-howl</title><path d="M21.456,18.5c-.259,0-.509,0-.752,0a.249.249,0,0,1-.178-.072.252.252,0,0,1-.074-.178V14.5a5.237,5.237,0,0,1,.6-2.164,8.72,8.72,0,0,0,.9-3.836V1.532A1.509,1.509,0,0,0,20.823.077a1.5,1.5,0,0,0-1.684.539,5.212,5.212,0,0,1-1.808,1.726,3.4,3.4,0,0,0-1.295,1.191c-1,1.5-1.989,3.2-2,3.214a.5.5,0,0,0,.432.752h1.3l-.281.815c-.006.013-.678,1.343-5.667,2.7a4.372,4.372,0,0,0-2.283,1.477,4.712,4.712,0,0,0-4.593,3.992,10.976,10.976,0,0,1-1.311,3.655.5.5,0,0,0,.338.781c1.147.165,2.948-.057,3.584-2.815l.455-1.063c-.038.461-.059.944-.059,1.455v5a.5.5,0,0,0,.5.5h2a.5.5,0,0,0,.5-.5V21c0-.461,0-1.232,1.275-2.082a2.891,2.891,0,0,0,.62-.577,5.345,5.345,0,0,0,.4-1.852.75.75,0,0,1,.75-.747h0a.748.748,0,0,1,.748.749,6.181,6.181,0,0,1-.055.7.25.25,0,0,0,.327.269,18.107,18.107,0,0,0,3.067-1.347.249.249,0,0,1,.371.218v2.188a.25.25,0,0,1-.212.247,7.914,7.914,0,0,0-4.991,2.524,1,1,0,1,0,1.414,1.414c1.668-1.668,2.718-2.207,8.793-2.207a1,1,0,1,0,0-2ZM17.707,4.563a1,1,0,1,1,1,1A1,1,0,0,1,17.707,4.563Z"/></svg>