<svg id="Bold" xmlns="http://www.w3.org/2000/svg" viewBox="0 0 24 24"><title>wolf-2</title><path d="M23.989,6.452A.512.512,0,0,0,23.463,6H18.106a.5.5,0,0,1-.447-.276l-.671-1.342A2.487,2.487,0,0,0,14.752,3H13.488a.5.5,0,0,1-.5-.5V.5a.5.5,0,0,0-.5-.5C8.834,0,7.511,1.934,7.057,3.655-.083,7.243-.008,18.187.013,22.89l0,.609a.5.5,0,0,0,.5.5l14.973,0a.5.5,0,0,0,.3-.9c-1.879-1.409-3.8-3.29-3.8-6.595,0-3.406.972-4.5,4-4.5h4.475a3.13,3.13,0,0,0,2.36-.993C24.011,9.767,23.992,6.587,23.989,6.452Zm-9,.3a1.25,1.25,0,1,1-1.25-1.25A1.249,1.249,0,0,1,14.988,6.751Z"/></svg>