<svg id="Bold" xmlns="http://www.w3.org/2000/svg" viewBox="0 0 24 24"><title>yoga-stretch</title><circle cx="6.75" cy="8" r="2.5"/><path d="M13.5,14.039a.249.249,0,0,0,.046.144,5.21,5.21,0,0,1,.713,1.355,2.235,2.235,0,0,1-.122,1.718,2.211,2.211,0,0,1-.549.694.248.248,0,0,0-.088.19v3.61a1.25,1.25,0,0,0,2.5,0V15.832a.5.5,0,0,1,1,0V21.75a1.25,1.25,0,0,0,2.5,0V9.206a.248.248,0,0,1,.062-.164L23.69,4.323a1.25,1.25,0,1,0-1.881-1.646L17.664,7.415a.251.251,0,0,1-.188.085H15.524a.25.25,0,0,1-.188-.085L11.19,2.677A1.25,1.25,0,0,0,9.309,4.323l4.129,4.719a.248.248,0,0,1,.062.164Z"/><path d="M.838,17.418a1.213,1.213,0,0,0,.409.07,1.267,1.267,0,0,0,1.182-.823,3.1,3.1,0,0,1,1.182-1.342A.25.25,0,0,1,4,15.531v1.824a.249.249,0,0,1-.183.24,2.23,2.23,0,0,0-1.233.865,2.287,2.287,0,0,0-.232,2.153l.762,1.658A1.249,1.249,0,0,0,4.251,23a1.234,1.234,0,0,0,.52-.114,1.25,1.25,0,0,0,.615-1.657l-.4-.874A.25.25,0,0,1,5.209,20h3.08a.25.25,0,0,1,.227.354l-.4.875a1.25,1.25,0,1,0,2.272,1.042l.8-1.75a2.23,2.23,0,0,0-1.5-2.926.249.249,0,0,1-.182-.241V15.613a.25.25,0,0,1,.4-.2,3.032,3.032,0,0,1,1.048,1.251,1.249,1.249,0,0,0,1.18.838,1.265,1.265,0,0,0,.395-.064,1.249,1.249,0,0,0,.79-1.582C12.677,13.932,10.261,12,6.687,12,3.135,12,.7,13.915.064,15.854A1.24,1.24,0,0,0,.838,17.418Z"/><path d="M14.923,5.424a2.447,2.447,0,0,0,3.154,0,2.526,2.526,0,0,0,.552-.631,2.5,2.5,0,1,0-3.706.631Z"/></svg>