<svg id="Bold" xmlns="http://www.w3.org/2000/svg" viewBox="0 0 24 24"><title>yoga-full-body-stretch</title><circle cx="12.014" cy="5.943" r="2.5"/><path d="M17.977,22.116A3.27,3.27,0,0,0,16.413,18L15,17.3V11.888a.251.251,0,0,1,.133-.221A6.744,6.744,0,0,0,16.772.92a1.25,1.25,0,0,0-1.767,1.768,4.25,4.25,0,1,1-6.01,0A1.25,1.25,0,0,0,7.228.92,6.744,6.744,0,0,0,8.867,11.667.251.251,0,0,1,9,11.888V22.943a.5.5,0,0,0,.5.5H11a.5.5,0,0,0,.5-.5V19.149a.5.5,0,0,1,.724-.447L15.3,20.237a.756.756,0,0,1,.361.951l-.629,1.572a.5.5,0,0,0,.465.686l1.615,0a.5.5,0,0,0,.464-.314Z"/></svg>