<svg xmlns="http://www.w3.org/2000/svg" width="24" height="24" viewBox="0 0 24 24">
    <defs>
        <style>.a{stroke: none;fill: currentColor;}</style>
    </defs>
    <g>
        <path class="a"
              d="M12 0c.738281 0 1.332031.597656 1.332031 1.332031V12c0 .738281-.59375 1.332031-1.332031 1.332031H1.332031C.597656 13.332031 0 12.738281 0 12s.597656-1.332031 1.332031-1.332031h9.335938V1.332031C10.667969.597656 11.261719 0 12 0Zm0 0"/>
        <path class="a"
              d="M10.667969 12c0-.738281.59375-1.332031 1.332031-1.332031h10.667969C23.402344 10.667969 24 11.261719 24 12s-.597656 1.332031-1.332031 1.332031h-9.335938v9.335938C13.332031 23.402344 12.738281 24 12 24s-1.332031-.597656-1.332031-1.332031Zm0 0"/>
    </g>
</svg>