<?xml version="1.0" encoding="UTF-8"?>
<svg xmlns="http://www.w3.org/2000/svg" width="24" height="24" viewBox="0 0 24 24">
    <defs>
        <style>.a{stroke: none;fill: currentColor;}</style>
    </defs>
    <path class="a" d="M12.25 21.578125c-.277344-.265625-.433594-.628906-.433594-1.007813 0-.382812.15625-.746093.433594-1.011718L20.074219 12 12.25 4.441406c-.554688-.5625-.546875-1.449218.023438-2 .570312-.550781 1.488281-.5625 2.070312-.023437l8.863281 8.570312c.277344.269531.433594.632813.433594 1.011719 0 .378906-.15625.742188-.433594 1.011719l-8.863281 8.566406C14.066406 21.847656 13.6875 22 13.296875 22s-.769531-.152344-1.046875-.421875Zm0 0"/>
    <path class="a" d="M22.164062 12c0 .789062-.664062 1.429688-1.480468 1.429688H1.476562C.660156 13.429688 0 12.789062 0 12s.660156-1.429688 1.476562-1.429688h19.207032c.816406 0 1.480468.640626 1.480468 1.429688Zm0 0"/>
</svg>