<?xml version="1.0" encoding="UTF-8"?>
<svg xmlns="http://www.w3.org/2000/svg" width="24" height="24" viewBox="0 0 24 24">
    <defs>
        <style>.a{stroke: none;fill: currentColor;}</style>
    </defs>
    <path class="a" d="M18.851562 13.683594 8.53125 23.417969c-.457031.429687-1.066406.664062-1.699219.664062-.625.003907-1.230469-.234375-1.6875-.664062-.460937-.421875-.722656-1.015625-.71875-1.636719-.003906-.625.257813-1.222656.71875-1.648438l8.585938-8.089843-8.585938-8.101563c-.457031-.421875-.71875-1.019531-.71875-1.640625 0-.621093.261719-1.214843.71875-1.640625.453125-.429687 1.058594-.6718748 1.6875-.66406225C7.464844-.0078125 8.074219.230469 8.53125.660156l10.332031 9.730469c.457031.433594.714844 1.027344.71875 1.652344-.003906.625-.269531 1.214843-.730469 1.640625Zm0 0"/>
</svg>