<?xml version="1.0" encoding="UTF-8"?>
<svg xmlns="http://www.w3.org/2000/svg" width="24" height="24" viewBox="0 0 24 24">
    <defs>
        <style>.a{stroke: none;fill: currentColor;}</style>
    </defs>
    <path class="a" d="M11.390625 2.421875c.277344.265625.433594.628906.433594 1.007813 0 .382812-.15625.746093-.433594 1.011718L3.570312 12l7.820313 7.558594c.558594.5625.546875 1.449218-.023437 2-.566407.550781-1.484376.5625-2.066407.023437L.433594 13.011719C.15625 12.742188 0 12.378906 0 12c0-.378906.15625-.742188.433594-1.011719l8.867187-8.566406C9.578125 2.152344 9.953125 2 10.34375 2c.394531 0 .769531.152344 1.046875.421875Zm0 0"/>
    <path class="a" d="M1.480469 12c0-.789062.660156-1.429688 1.476562-1.429688h19.207031c.816407 0 1.480469.640626 1.480469 1.429688s-.664062 1.429688-1.480469 1.429688H2.957031c-.816406 0-1.476562-.640626-1.476562-1.429688Zm0 0"/>
</svg>