<?xml version="1.0" encoding="UTF-8"?>
<svg xmlns="http://www.w3.org/2000/svg" xmlns:xlink="http://www.w3.org/1999/xlink" width="24" height="24" viewBox="0 0 24 24" version="1.1">
<g id="surface1">
<path style=" stroke:none;fill-rule:evenodd;fill:rgb(0%,0%,0%);fill-opacity:1;" d="M 20.496094 3.15625 C 21.359375 2.292969 22.773438 2.28125 23.652344 3.128906 C 24.535156 3.972656 24.546875 5.363281 23.683594 6.226562 L 11.808594 20.800781 C 11.394531 21.234375 10.820312 21.488281 10.214844 21.5 C 9.605469 21.511719 9.023438 21.28125 8.59375 20.859375 L 0.722656 13.128906 C 0.121094 12.585938 -0.125 11.757812 0.0742188 10.980469 C 0.277344 10.203125 0.894531 9.59375 1.6875 9.394531 C 2.480469 9.199219 3.320312 9.441406 3.878906 10.03125 L 10.109375 16.144531 L 20.441406 3.222656 C 20.460938 3.199219 20.480469 3.179688 20.5 3.15625 Z M 20.496094 3.15625 "/>
</g>
</svg>
