<?xml version="1.0" encoding="UTF-8"?>
<svg xmlns="http://www.w3.org/2000/svg" xmlns:xlink="http://www.w3.org/1999/xlink" width="24" height="24" viewBox="0 0 24 24" version="1.1">
<defs>
<clipPath id="clip1">
  <path d="M 0 13 L 23.992188 13 L 23.992188 24 L 0 24 Z M 0 13 "/>
</clipPath>
</defs>
<g id="surface1">
<g clip-path="url(#clip1)" clip-rule="nonzero">
<path style=" stroke:none;fill-rule:nonzero;fill:rgb(0%,0%,0%);fill-opacity:1;" d="M 23.945312 14.632812 C 23.71875 13.625 22.742188 12.976562 21.730469 13.160156 C 21.367188 13.265625 21.042969 13.480469 20.804688 13.777344 L 20.628906 13.644531 C 20.285156 13.363281 19.84375 13.226562 19.398438 13.269531 C 18.957031 13.3125 18.546875 13.53125 18.265625 13.878906 C 17.488281 14.816406 16.667969 15.71875 15.871094 16.640625 C 15.839844 16.691406 15.789062 16.726562 15.730469 16.742188 C 15.671875 16.757812 15.613281 16.746094 15.5625 16.714844 C 13.601562 15.839844 11.582031 15.101562 9.523438 14.507812 C 8.632812 14.246094 7.722656 14.054688 6.804688 13.9375 C 5.570312 13.824219 4.324219 13.980469 3.15625 14.390625 C 2.042969 14.742188 1.027344 15.351562 0.191406 16.164062 C -0.0351562 16.386719 -0.0546875 16.59375 0.117188 16.753906 C 0.285156 16.917969 0.453125 16.859375 0.691406 16.671875 C 1.144531 16.277344 1.628906 15.921875 2.144531 15.617188 C 3.945312 14.632812 6.050781 14.355469 8.042969 14.839844 C 10.523438 15.476562 12.945312 16.316406 15.285156 17.351562 C 15.574219 17.46875 15.792969 17.710938 15.878906 18.007812 C 16.027344 18.410156 15.929688 18.855469 15.632812 19.160156 C 15.332031 19.496094 14.859375 19.621094 14.433594 19.472656 C 13.574219 19.242188 12.71875 19.003906 11.859375 18.765625 C 11.453125 18.652344 11.046875 18.539062 10.640625 18.429688 C 10.492188 18.363281 10.3125 18.421875 10.230469 18.5625 C 10.179688 18.679688 10.175781 18.8125 10.21875 18.929688 C 10.28125 19.027344 10.382812 19.09375 10.492188 19.117188 C 11.730469 19.464844 12.972656 19.808594 14.214844 20.148438 C 14.765625 20.320312 15.367188 20.230469 15.84375 19.902344 C 16.320312 19.578125 16.617188 19.046875 16.652344 18.46875 C 16.933594 18.4375 17.210938 18.394531 17.492188 18.375 C 17.703125 18.367188 17.898438 18.265625 18.027344 18.097656 C 19.15625 16.78125 20.289062 15.46875 21.425781 14.160156 C 21.6875 13.804688 22.175781 13.703125 22.558594 13.925781 C 23 14.097656 23.285156 14.535156 23.265625 15.007812 C 23.207031 15.390625 23.03125 15.742188 22.757812 16.015625 C 21.761719 17.167969 20.769531 18.320312 19.773438 19.476562 C 19.699219 19.5625 19.605469 19.636719 19.5 19.6875 C 17.195312 20.84375 14.886719 22 12.574219 23.15625 C 12.449219 23.230469 12.292969 23.238281 12.164062 23.171875 C 11.015625 22.683594 9.863281 22.199219 8.714844 21.71875 C 8.449219 21.605469 8.234375 21.664062 8.15625 21.867188 C 8.074219 22.066406 8.171875 22.25 8.441406 22.367188 C 8.808594 22.523438 9.175781 22.675781 9.542969 22.832031 L 12.273438 23.996094 L 12.507812 23.996094 C 12.570312 23.957031 12.632812 23.914062 12.699219 23.878906 C 15.089844 22.683594 17.480469 21.488281 19.867188 20.289062 C 19.996094 20.234375 20.113281 20.152344 20.207031 20.050781 C 21.265625 18.832031 22.3125 17.601562 23.367188 16.375 C 23.707031 15.984375 23.921875 15.503906 23.988281 14.996094 L 23.988281 14.800781 C 23.972656 14.742188 23.953125 14.683594 23.945312 14.625 M 17.886719 17.164062 C 17.613281 17.628906 17.070312 17.867188 16.542969 17.746094 L 16.269531 17.238281 C 16.804688 16.613281 17.34375 15.984375 17.886719 15.359375 C 18.1875 15.011719 18.5 14.671875 18.804688 14.328125 C 18.988281 14.097656 19.261719 13.960938 19.554688 13.957031 C 19.851562 13.953125 20.128906 14.082031 20.316406 14.308594 C 19.503906 15.257812 18.695312 16.210938 17.886719 17.160156 "/>
</g>
<path style=" stroke:none;fill-rule:nonzero;fill:rgb(0%,0%,0%);fill-opacity:1;" d="M 9.96875 13.925781 C 10.09375 13.984375 10.234375 13.964844 10.339844 13.878906 C 10.445312 13.792969 10.488281 13.65625 10.457031 13.527344 C 10.425781 13.394531 10.324219 13.292969 10.191406 13.265625 C 10 13.191406 9.792969 13.136719 9.597656 13.050781 C 7.421875 12.191406 5.898438 10.195312 5.648438 7.867188 C 5.414062 6.316406 5.804688 4.738281 6.734375 3.472656 C 8.09375 1.410156 10.554688 0.355469 12.988281 0.796875 C 15.007812 1.054688 16.765625 2.308594 17.664062 4.136719 C 18.679688 5.992188 18.683594 8.238281 17.671875 10.09375 C 17.371094 10.6875 16.972656 11.222656 16.488281 11.675781 L 16.488281 11.453125 C 16.488281 10.953125 16.488281 10.453125 16.488281 9.953125 C 16.488281 9.65625 16.359375 9.492188 16.136719 9.488281 C 15.914062 9.488281 15.785156 9.648438 15.785156 9.945312 C 15.785156 10.742188 15.785156 11.539062 15.785156 12.335938 C 15.785156 12.71875 15.921875 12.84375 16.308594 12.792969 C 16.8125 12.730469 17.3125 12.652344 17.816406 12.582031 C 18.132812 12.535156 18.449219 12.5 18.765625 12.445312 C 18.863281 12.441406 18.957031 12.394531 19.023438 12.320312 C 19.089844 12.246094 19.121094 12.148438 19.113281 12.050781 C 19.085938 11.851562 18.917969 11.734375 18.679688 11.753906 C 18.585938 11.757812 18.496094 11.773438 18.402344 11.785156 L 17.21875 11.953125 C 17.34375 11.808594 17.4375 11.707031 17.519531 11.597656 C 17.710938 11.332031 17.917969 11.074219 18.085938 10.792969 C 18.96875 9.363281 19.300781 7.660156 19.019531 6 C 18.765625 4.25 17.84375 2.660156 16.449219 1.570312 C 13.398438 -0.878906 8.9375 -0.398438 6.476562 2.644531 C 5.085938 4.292969 4.558594 6.503906 5.058594 8.605469 C 5.566406 11.160156 7.464844 13.21875 9.96875 13.929688 "/>
<path style=" stroke:none;fill-rule:nonzero;fill:rgb(0%,0%,0%);fill-opacity:1;" d="M 6.816406 20.925781 C 6.386719 20.738281 5.953125 20.554688 5.519531 20.386719 C 5.375 20.328125 5.222656 20.300781 5.070312 20.296875 C 4.320312 20.289062 3.570312 20.296875 2.820312 20.296875 L 0.523438 20.296875 C 0.167969 20.296875 -0.00390625 20.414062 0 20.652344 C 0.00390625 20.886719 0.179688 21 0.539062 21 C 2.007812 21 3.476562 21 4.945312 21 C 5.089844 21.003906 5.234375 21.03125 5.371094 21.085938 C 5.765625 21.238281 6.148438 21.410156 6.539062 21.566406 C 6.78125 21.664062 6.976562 21.601562 7.054688 21.410156 C 7.097656 21.3125 7.09375 21.207031 7.046875 21.113281 C 7 21.019531 6.917969 20.949219 6.816406 20.925781 "/>
<path style=" stroke:none;fill-rule:nonzero;fill:rgb(0%,0%,0%);fill-opacity:1;" d="M 11.34375 9.851562 C 12.082031 9.953125 12.824219 9.714844 13.363281 9.195312 C 13.898438 8.679688 14.167969 7.945312 14.09375 7.203125 L 13.421875 7.203125 C 13.386719 8.640625 12.585938 9.195312 11.644531 9.238281 L 11.644531 7.042969 L 13.140625 6.503906 L 13.140625 6.054688 L 11.644531 6.589844 L 11.644531 6.15625 L 13.148438 5.617188 L 13.148438 5.164062 L 11.644531 5.703125 L 11.644531 4.277344 L 10.9375 4.277344 L 10.9375 5.957031 L 10.1875 6.230469 L 10.1875 6.683594 L 10.9375 6.410156 L 10.9375 6.847656 L 10.1875 7.121094 L 10.1875 7.570312 L 10.9375 7.296875 L 10.9375 9.828125 C 11.074219 9.84375 11.210938 9.851562 11.347656 9.851562 "/>
</g>
</svg>
