<svg xmlns="http://www.w3.org/2000/svg" viewBox="0 0 24 24">
    <defs>
        <style>
            .a {
            stroke:none;fill-rule:nonzero;fill:#000;fill-opacity:1
            }
        </style>
    </defs>
    <path d="M22.2 10.922c-.552-.48-1.415-.649-2.329-.867-.48-.094-.96-.215-1.437-.36L18 9.602a6.176 6.176 0 0 1-.238-.625c-.625-1.825-.723-2.207-.723-2.207v-.028c-.262-.695-.55-1.101-.96-1.222-.286-.094-.575-.047-.888.097-.238-.144-1.078-.48-3.289-.504h-.117c-2.21 0-3 .313-3.219.43-.238-.07-.453-.117-.671-.023-.383.12-.672.527-.934 1.25v.023c0 .023-.098.406-.723 2.207-.07.215-.14.406-.238.625l-.504.117c-2.879.961-4.535 2.45-4.535 4.106 0 1.007 1.008 1.25 2.086 1.511.601.145 1.273.313 1.922.625.55.262 1.078.602 1.656.961 1.465.91 3.094 1.965 5.398 1.965 6.192 0 11.067-2.23 11.067-5.062V13.8c-.027-.864-.027-2.137-.89-2.88ZM11.784 5.617h.094c1.488 0 2.305.168 2.715.285-.074.051-.145.098-.242.145-.672.433-1.465.914-2.45.914-1.007 0-1.773-.504-2.422-.914-.097-.07-.19-.117-.289-.192.41-.093 1.2-.238 2.594-.238ZM7.441 6.91c.192-.55.407-.84.622-.91.265-.098.671.168 1.128.48.696.457 1.536 1.008 2.688 1.008 1.129 0 2.016-.55 2.738-.984.528-.313.985-.602 1.27-.504.218.07.433.383.648.91.024.098.168.578.746 2.258.262.742.621 1.465.957 2.137.075.144.145.289.219.406-.05 1.344-2.953 2.953-6.527 2.953-3.578 0-6.364-1.61-6.387-2.976.074-.122.121-.262.191-.383.336-.649.7-1.395.961-2.137.602-1.68.72-2.16.746-2.258Zm-2.21 5.496c.722 1.54 3.554 2.762 6.722 2.762 3.168 0 6.094-1.246 6.84-2.762.094.242.168.457.168.602 0 1.61-3.191 2.953-6.938 2.953-3.742 0-6.933-1.344-6.933-2.953-.027-.145.023-.36.14-.602Zm17.304 1.418c0 2.496-4.726 4.535-10.535 4.535-2.16 0-3.672-.96-5.137-1.894-.047-.024-.07-.05-.12-.074l.265-.262-.36-.36-.359.336c-.144-.097-.289-.168-.434-.265l.266-.457-.434-.262-.261.453-.29-.14a.858.858 0 0 0-.167-.075l.093-.406-.453-.074-.074.336c-.48-.168-.933-.285-1.367-.383-1.106-.266-1.703-.434-1.703-1.008 0-1.39 1.558-2.734 4.176-3.601l.093-.024c-.14.29-.285.578-.43.864-.41.84-.745 1.488-.745 1.945 0 1.945 3.265 3.457 7.464 3.457 4.2 0 7.465-1.512 7.465-3.457 0-.434-.336-1.106-.746-1.945-.14-.262-.285-.575-.43-.864h.024c.48.145.984.266 1.465.36.863.195 1.656.363 2.11.746.675.574.675 1.726.675 2.472Zm0 0"
          class="a"/>
</svg>