<?xml version="1.0" encoding="UTF-8"?>
<svg xmlns="http://www.w3.org/2000/svg" xmlns:xlink="http://www.w3.org/1999/xlink" width="24" height="24" viewBox="0 0 24 24" version="1.1">
<g id="surface1">
<path style=" stroke:none;fill-rule:nonzero;fill:rgb(0%,0%,0%);fill-opacity:1;" d="M 22.09375 0.386719 L 22.09375 23.613281 L 17.636719 23.613281 L 17.636719 9.433594 C 17.613281 9.683594 17.578125 9.929688 17.523438 10.179688 C 17.136719 11.839844 16.101562 13.820312 13.886719 13.820312 L 9.761719 13.820312 C 6.710938 13.820312 6.566406 15.359375 6.566406 17.707031 L 6.566406 23.613281 L 2.105469 23.613281 L 2.105469 0.386719 L 6.566406 0.386719 L 6.566406 14.566406 C 6.585938 14.316406 6.621094 14.070312 6.675781 13.820312 C 7.066406 12.160156 8.097656 10.179688 10.316406 10.179688 L 14.4375 10.179688 C 17.492188 10.179688 17.636719 8.640625 17.636719 6.292969 L 17.636719 0.386719 Z M 22.09375 0.386719 "/>
</g>
</svg>
