<svg xmlns="http://www.w3.org/2000/svg" viewBox="0 0 24 24">
    <defs>
        <style>
            .a {
            stroke:none;fill-rule:nonzero;fill:#000;fill-opacity:1
            }
        </style>
    </defs>
    <path d="M22.992 14.375c.07-.336.121-.719-.07-1.078-.29-.578-1.059-.938-2.356-1.129-.023 0-.07 0-.093-.023-.098-.024-.145-.024-.215-.024-1.73-.289-2.57-.89-3.028-1.226-.19-.118-.308-.215-.43-.239a.37.37 0 0 0-.265-.168h-.094c-.168-.097-.41-.215-.699-.383 0-.05-.047-.265-.262-.289-.074 0-.144 0-.214.024-.196-.121-.41-.238-.625-.383 0-.023 0-.266-.243-.289-.07 0-.14 0-.191.023-.145-.093-.285-.191-.453-.289 0-.047-.027-.285-.266-.308h-.191c-.168-.098-.313-.219-.48-.313 0-.023 0-.41-.383-.41-.051 0-.121.024-.168.024-.723-.504-1.344-1.008-1.68-1.344-.121-.117-.363-.239-.816-.117-.457.14-1.153.574-1.227 1.007a.438.438 0 0 0 .168.43c.336.242.625.672.648.84a3.177 3.177 0 0 0-.43.312c-.433.336-1.007.793-1.824.864-1.25.097-2.043-.742-2.378-1.582-.215-.551-.48-.864-.766-.961a.461.461 0 0 0-.36.023c-.867.313-1.488 1.32-1.921 3.313-.168.41-.29 1.082-.36 1.992-.12.816-.144 1.344-.047 1.68-.195.168-.289.503-.312 1.082-.05 1.773 1.367 2.015 1.918 2.086h.05c.141.023 1.344.046 3.048.046 4.27 0 11.71-.093 13.367-.406 2.258-.433 2.64-.887 3.07-1.586l-.215-.117-.215-.121c-.336.55-.578.96-2.738 1.344-2.207.41-15.719.457-16.27.36H2.93c-.746-.118-1.54-.36-1.489-1.583 0-.312.047-.504.07-.602.122.098.29.168.481.192.649.168 2.496.578 3.84.387l.145-.028c1.558-.215 3.48-.476 5.062.145 1.441.554 2.953.433 4.418.336.766-.047 1.465-.117 2.137-.07 1.46.093 3.43-.36 4.39-.626-.023.047-.047.098-.074.121l.219.122.215.117c.144-.239.336-.672.36-.672.05-.094.097-.191.144-.285Zm-2.785-1.633c.05.051.145.168.191.266-.238.191-.308.215-.863.191-.648-.023-.816-.07-1.176-.191-.07-.024-.144-.07-.238-.121-.266-.145-.625-.36-.96-.145a.528.528 0 0 0-.216.434c0 .097 0 .12-.074.191-.168.168-.285.242-.36.266.024-.219.313-.77.505-.961.023-.024.12-.047.214-.07.028 0 .051-.028.098-.028a1.46 1.46 0 0 0 .863-.504 8.511 8.511 0 0 0 1.946.578c.047.024.07.047.07.094Zm-13.031-2.3c.984-.075 1.656-.626 2.113-.985.047-.023.07-.074.117-.098.41.243.793.504.89.649-.218.336-1.296 1.367-2.066 2.062-.55-.597-1.39-1.148-2.687-1.511-.023 0-.07-.024-.094-.024-.023 0-.05-.023-.097-.023.41-.07.984-.098 1.175-.098.215.027.434.05.649.027ZM3.793 7.894l.047-.024c.047.024.215.098.433.649a3.047 3.047 0 0 0 1.102 1.44c-.383.048-.742.169-.84.36-1.512-.289-1.894-.336-2.207-.265.406-1.293.863-1.992 1.465-2.16Zm1.992 7.035c-1.37.191-3.36-.313-3.793-.41a.575.575 0 0 0-.215-.192c-.074-.215-.074-.601-.023-1.055.598.047 2.254.215 3.14.336.915.145 1.083.79 1.106.79.023.195.023.41 0 .503h-.023Zm.719-.098c.023-.191 0-.406-.024-.527 0-.047-.242-1.008-1.511-1.2-.89-.12-2.52-.289-3.145-.335v-.098c.047-.313.098-.649.168-.985.07-.335.121-.648.192-.96.023-.047.046-.07.046-.094.028-.024.075-.024.098-.047.266-.121.29-.121 2.184.238.242.047.48.098.718.168.028 0 .051 0 .051.024 3.117.84 3.43 2.785 3.574 3.648-.816 0-1.609.07-2.351.168Zm2.879-.145c0-.023-.024-.07-.024-.12-.07-.454-.214-1.294-.816-2.11.578-.527 1.992-1.871 2.21-2.258.024-.07.071-.168.024-.312-.097-.313-.578-.649-.96-.864.023-.046.046-.12.07-.168.05-.43-.48-1.054-.79-1.32.071-.144.454-.457.864-.574.191-.05.262-.024.285-.024.29.31.867.766 1.54 1.247a2.964 2.964 0 0 0-.505.457c-.48.527-.12.96.047.695.313-.457.625-.695.863-.84.192.145.383.266.602.406-.098.075-.168.168-.242.266-.313.383-.047.793.097.55.145-.261.36-.452.551-.55.168.121.336.215.504.336-.07.07-.168.144-.238.238-.313.387-.05.793.094.555.144-.266.336-.434.53-.555.24.145.454.29.673.434a2.2 2.2 0 0 0-.219.238c-.313.387-.047.793.098.555a1.48 1.48 0 0 1 .527-.555c.266.145.48.29.695.41-.07.07-.168.145-.238.215-.29.313 0 .625.117.434a1.48 1.48 0 0 1 .48-.457c.243.12.41.191.481.191.05.023.168.098.266.168.191.145.43.313.765.48-.168.145-.308.192-.453.243a.508.508 0 0 1-.265 0c-.094-.028-.215-.028-.313-.051-.742-.117-1.297-.192-1.894.387a46.05 46.05 0 0 0-.746.671c-.551.504-1.2 1.079-1.461 1.344-.29.285-.602.649-.747.84a6.594 6.594 0 0 1-.574-.191 6.457 6.457 0 0 0-1.898-.41Zm8.281.626c-.695-.047-1.441 0-2.207.07-1.008.074-2.043.144-3.023 0 .168-.192.359-.406.55-.598.239-.265.887-.816 1.442-1.32.285-.242.55-.48.742-.672.406-.387.719-.36 1.367-.266-.262.36-.598 1.008-.457 1.368.05.144.168.242.313.289.242.046.504-.07.89-.43.215-.195.215-.41.239-.531v-.047c.074-.047.289.07.41.168.093.047.191.12.285.144.433.168.672.215 1.344.239.699.027.84-.024 1.25-.36a.335.335 0 0 0 .144-.262.627.627 0 0 0-.074-.312c.863.168 1.418.43 1.61.793.12.262.097.598-.145 1.031-.528.117-3 .817-4.68.695Zm0 0"
          class="a"/>
</svg>