<?xml version="1.0" encoding="UTF-8"?>
<svg xmlns="http://www.w3.org/2000/svg" xmlns:xlink="http://www.w3.org/1999/xlink" width="24" height="24" viewBox="0 0 24 24" version="1.1">
<g id="surface1">
<path style=" stroke:none;fill-rule:nonzero;fill:rgb(0%,0%,0%);fill-opacity:1;" d="M 0 0 L 7.058594 0 L 7.058594 7.058594 L 0 7.058594 Z M 0 0 "/>
<path style=" stroke:none;fill-rule:nonzero;fill:rgb(0%,0%,0%);fill-opacity:1;" d="M 0 8.472656 L 7.058594 8.472656 L 7.058594 15.53125 L 0 15.53125 Z M 0 8.472656 "/>
<path style=" stroke:none;fill-rule:nonzero;fill:rgb(0%,0%,0%);fill-opacity:1;" d="M 0 16.941406 L 7.058594 16.941406 L 7.058594 24 L 0 24 Z M 0 16.941406 "/>
<path style=" stroke:none;fill-rule:nonzero;fill:rgb(0%,0%,0%);fill-opacity:1;" d="M 8.472656 0 L 15.53125 0 L 15.53125 7.058594 L 8.472656 7.058594 Z M 8.472656 0 "/>
<path style=" stroke:none;fill-rule:nonzero;fill:rgb(0%,0%,0%);fill-opacity:1;" d="M 8.472656 8.472656 L 15.53125 8.472656 L 15.53125 15.53125 L 8.472656 15.53125 Z M 8.472656 8.472656 "/>
<path style=" stroke:none;fill-rule:nonzero;fill:rgb(0%,0%,0%);fill-opacity:1;" d="M 8.472656 16.941406 L 15.53125 16.941406 L 15.53125 24 L 8.472656 24 Z M 8.472656 16.941406 "/>
<path style=" stroke:none;fill-rule:nonzero;fill:rgb(0%,0%,0%);fill-opacity:1;" d="M 16.941406 0 L 24 0 L 24 7.058594 L 16.941406 7.058594 Z M 16.941406 0 "/>
<path style=" stroke:none;fill-rule:nonzero;fill:rgb(0%,0%,0%);fill-opacity:1;" d="M 16.941406 8.472656 L 24 8.472656 L 24 15.53125 L 16.941406 15.53125 Z M 16.941406 8.472656 "/>
<path style=" stroke:none;fill-rule:nonzero;fill:rgb(0%,0%,0%);fill-opacity:1;" d="M 16.941406 16.941406 L 24 16.941406 L 24 24 L 16.941406 24 Z M 16.941406 16.941406 "/>
</g>
</svg>
