<?xml version="1.0" encoding="utf-8"?>
<!-- Generator: Adobe Illustrator 22.1.0, SVG Export Plug-In . SVG Version: 6.00 Build 0)  -->
<svg version="1.1" id="Regular" xmlns="http://www.w3.org/2000/svg" xmlns:xlink="http://www.w3.org/1999/xlink" x="0px" y="0px"
	 viewBox="0 0 24 24" style="enable-background:new 0 0 24 24;" xml:space="preserve">
<title>accessories-cane</title>
<g>
	<path d="M13.125,24c-0.233,0-0.448-0.105-0.591-0.289s-0.193-0.418-0.136-0.644l0.728-2.91V6c0-0.827-0.673-1.5-1.5-1.5
		s-1.5,0.673-1.5,1.5v2.25c0,1.241-1.009,2.25-2.25,2.25s-2.25-1.009-2.25-2.25V6c0-3.308,2.692-6,6-6c3.308,0,6,2.692,6,6v14.158
		l0.728,2.91c0.056,0.226,0.007,0.46-0.136,0.644S17.858,24,17.625,24H13.125z M16.665,22.5L16.29,21h-1.829l-0.375,1.5H16.665z
		 M16.125,19.5V6c0-2.481-2.019-4.5-4.5-4.5c-2.481,0-4.5,2.019-4.5,4.5v2.25C7.125,8.664,7.462,9,7.875,9s0.75-0.336,0.75-0.75V6
		c0-1.654,1.346-3,3-3c1.654,0,3,1.346,3,3v13.5H16.125z"/>
</g>
</svg>
