<?xml version="1.0" encoding="utf-8"?>
<!-- Generator: Adobe Illustrator 22.1.0, SVG Export Plug-In . SVG Version: 6.00 Build 0)  -->
<svg version="1.1" id="Regular" xmlns="http://www.w3.org/2000/svg" xmlns:xlink="http://www.w3.org/1999/xlink" x="0px" y="0px"
	 viewBox="0 0 24 24" style="enable-background:new 0 0 24 24;" xml:space="preserve">
<title>accessories-hand-fan</title>
<g>
	<path d="M11.969,20.254c-0.511,0-1.016-0.087-1.502-0.26c-1.272-0.452-2.265-1.44-2.723-2.711
		c-0.067-0.187-0.057-0.396,0.027-0.574c0.085-0.181,0.236-0.318,0.425-0.386l1.592-0.572L6.25,14.47
		c-0.054-0.007-0.104-0.018-0.152-0.036c-0.05-0.018-0.098-0.042-0.145-0.072l-4.709-1.704c-0.385-0.139-0.588-0.566-0.453-0.952
		c1.655-4.742,6.143-7.935,11.173-7.951C11.977,3.755,11.99,3.754,12,3.754c0.014,0,0.027,0.001,0.041,0.002
		c1.318,0.004,2.617,0.227,3.859,0.66c3.455,1.206,6.119,3.883,7.309,7.344c0.133,0.387-0.073,0.813-0.457,0.95L18.05,14.39
		c-0.046,0.029-0.093,0.052-0.142,0.069c-0.052,0.019-0.101,0.028-0.144,0.033l-3.542,1.265l1.532,0.552
		c0.388,0.139,0.591,0.569,0.453,0.957C15.571,19.053,13.868,20.254,11.969,20.254z M9.499,17.449
		c0.354,0.521,0.865,0.917,1.47,1.132c0.323,0.115,0.659,0.173,1,0.173c0.999,0,1.934-0.507,2.485-1.319L12,16.551L9.499,17.449z
		 M12.002,14.957l4.637-1.656c-0.344-0.655-0.823-1.231-1.401-1.682c-0.01-0.006-0.019-0.012-0.027-0.017
		c-0.031-0.023-0.059-0.046-0.084-0.071c-0.269-0.198-0.559-0.372-0.863-0.517c-0.704-0.337-1.461-0.508-2.249-0.51
		c-0.005,0-0.028,0-0.034,0c-0.599,0.002-1.181,0.102-1.73,0.296c-0.501,0.177-0.973,0.43-1.402,0.751
		c-0.021,0.019-0.039,0.035-0.06,0.051c-0.011,0.008-0.025,0.017-0.04,0.025c-0.569,0.447-1.041,1.014-1.382,1.654L12.002,14.957z
		 M16.667,10.877c0.577,0.551,1.044,1.193,1.394,1.916l3.464-1.237c-0.601-1.414-1.51-2.679-2.656-3.694L16.667,10.877z
		 M5.947,12.765c0.347-0.704,0.819-1.348,1.385-1.891L5.128,7.859c-1.141,1.007-2.049,2.257-2.651,3.651L5.947,12.765z M12.75,9.039
		c0.748,0.084,1.473,0.292,2.162,0.621c0.182,0.087,0.368,0.189,0.562,0.308l2.204-3.017c-0.708-0.463-1.471-0.838-2.272-1.118
		c-0.86-0.3-1.752-0.485-2.656-0.551V9.039z M8.524,9.964c0.391-0.235,0.803-0.429,1.228-0.58c0.485-0.171,0.987-0.286,1.497-0.344
		V5.283C9.492,5.411,7.802,5.982,6.322,6.949L8.524,9.964z"/>
</g>
</svg>
