<?xml version="1.0" encoding="utf-8"?>
<!-- Generator: Adobe Illustrator 22.1.0, SVG Export Plug-In . SVG Version: 6.00 Build 0)  -->
<svg version="1.1" id="Regular" xmlns="http://www.w3.org/2000/svg" xmlns:xlink="http://www.w3.org/1999/xlink" x="0px" y="0px"
	 viewBox="0 0 24 24" style="enable-background:new 0 0 24 24;" xml:space="preserve">
<title>accessories-umbrella-1</title>
<g>
	<path d="M0.764,22.933c-0.2,0-0.389-0.078-0.53-0.22c-0.142-0.142-0.22-0.33-0.22-0.53s0.078-0.389,0.22-0.53l1.323-1.323
		c0.86-5.846,4.151-11.068,9.054-14.362C11.444,2.96,13,2.103,13.177,2.014c0.103-0.052,0.219-0.079,0.335-0.079
		c0.2,0,0.389,0.078,0.531,0.22l2.844,2.844l3.27-3.27c0.429-0.413,0.985-0.637,1.572-0.637c0.617,0,1.192,0.244,1.62,0.688
		c0.845,0.878,0.843,2.252-0.006,3.127l-0.538,0.538c-0.142,0.142-0.33,0.22-0.53,0.22s-0.389-0.078-0.53-0.22
		c-0.142-0.142-0.22-0.33-0.22-0.53c0-0.2,0.078-0.389,0.22-0.53l0.53-0.53c0.276-0.285,0.275-0.741-0.006-1.034
		c-0.142-0.148-0.334-0.229-0.54-0.229c-0.195,0-0.38,0.074-0.52,0.209l-3.26,3.26l2.845,2.845c0.229,0.229,0.285,0.577,0.141,0.866
		c-0.088,0.177-0.941,1.733-3.953,2.567c-3.294,4.903-8.516,8.195-14.364,9.054l-1.322,1.322
		C1.153,22.855,0.965,22.933,0.764,22.933z M11.175,7.406C7,10.318,4.109,14.789,3.168,19.779c4.99-0.94,9.462-3.831,12.374-8.007
		l-1.654-1.654l-6.595,6.595c-0.142,0.142-0.33,0.22-0.53,0.22s-0.389-0.078-0.53-0.22c-0.292-0.292-0.292-0.768,0-1.061
		l6.595-6.595L11.175,7.406z M16.736,10.845c1.392-0.41,2.151-0.976,2.528-1.348l-5.809-5.809c-0.375,0.383-0.945,1.148-1.352,2.524
		L16.736,10.845z"/>
</g>
</svg>
