<?xml version="1.0" encoding="utf-8"?>
<!-- Generator: Adobe Illustrator 22.1.0, SVG Export Plug-In . SVG Version: 6.00 Build 0)  -->
<svg version="1.1" id="Layer_1" xmlns="http://www.w3.org/2000/svg" xmlns:xlink="http://www.w3.org/1999/xlink" x="0px" y="0px"
	 viewBox="0 0 24 24" style="enable-background:new 0 0 24 24;" xml:space="preserve">
<title>accounting-invoice-hand</title>
<g>
	<path d="M8.073,12c-0.414,0-0.75-0.336-0.75-0.75v-0.353c-0.674-0.154-1.282-0.543-1.705-1.099
		C5.496,9.639,5.444,9.441,5.471,9.243c0.027-0.199,0.13-0.375,0.289-0.496c0.131-0.1,0.288-0.153,0.453-0.153
		c0.233,0,0.456,0.111,0.597,0.296c0.276,0.364,0.715,0.581,1.173,0.581L8.043,9.47c0.775,0,1.343-0.422,1.343-0.798
		c0-0.376-0.562-0.796-1.313-0.796c-1.551,0-2.812-1.031-2.812-2.298c0-1.052,0.849-1.943,2.062-2.213V3
		c0-0.414,0.336-0.75,0.75-0.75S8.823,2.586,8.823,3v0.355c0.675,0.154,1.283,0.542,1.705,1.097
		c0.121,0.159,0.173,0.356,0.146,0.555c-0.027,0.199-0.13,0.375-0.289,0.496c-0.131,0.1-0.288,0.153-0.454,0.153l0,0
		c-0.233,0-0.457-0.111-0.597-0.297C9.057,4.996,8.619,4.779,8.163,4.779L8.103,4.78C7.328,4.781,6.761,5.202,6.761,5.578
		c0,0.377,0.561,0.798,1.312,0.798c1.551,0,2.813,1.03,2.813,2.296c0,1.052-0.85,1.943-2.063,2.213v0.365
		C8.823,11.664,8.486,12,8.073,12z"/>
	<path d="M2.135,24c-1.171-0.001-2.124-0.954-2.124-2.125V2.125c0-1.171,0.953-2.124,2.124-2.125h13.001
		c1.171,0,2.125,0.953,2.126,2.124v5.746c0.208,0.15,0.448,0.315,0.728,0.508c1.908,1.313,4.522,3.112,4.522,5.122v5.023
		l1.364,2.047c0.111,0.167,0.151,0.367,0.112,0.563c-0.04,0.197-0.153,0.366-0.32,0.477c-0.123,0.082-0.267,0.126-0.416,0.126
		c-0.251,0-0.485-0.125-0.624-0.334l-1.49-2.236c-0.083-0.124-0.126-0.268-0.126-0.416V13.5c0-1.188-2.292-2.797-3.75-3.802v3.189
		l1.649,1.322c0.323,0.259,0.375,0.732,0.116,1.054c-0.144,0.179-0.357,0.281-0.586,0.281c-0.169,0-0.336-0.058-0.468-0.164
		l-3.648-2.925c-0.022-0.018-0.042-0.036-0.061-0.055c-0.097-0.097-0.24-0.153-0.391-0.153c-0.151,0-0.294,0.056-0.391,0.153
		c-0.104,0.104-0.162,0.243-0.162,0.391s0.058,0.287,0.162,0.391l3.564,4.02c0.122,0.137,0.189,0.314,0.189,0.498v2.5
		c0,0.615,0.874,1.857,1.494,2.542c0.277,0.307,0.254,0.782-0.053,1.059c-0.138,0.125-0.317,0.194-0.503,0.194
		c-0.211,0-0.414-0.09-0.556-0.246c-0.315-0.347-1.882-2.149-1.882-3.549v-2.215l-3.344-3.774c-0.357-0.354-0.57-0.878-0.57-1.419
		c0-0.549,0.214-1.064,0.602-1.452c0.388-0.388,0.903-0.601,1.452-0.601c0.532,0,1.035,0.202,1.419,0.569l0.47,0.377v-9.56
		c0-0.344-0.281-0.625-0.626-0.625h-13c-0.344,0-0.624,0.281-0.624,0.625v19.75c0,0.344,0.28,0.625,0.624,0.625h11.376
		c0.414,0,0.75,0.336,0.75,0.75S13.924,24,13.511,24H2.135z"/>
	<path d="M4.511,21c-0.827,0-1.5-0.673-1.5-1.5V15c0-0.827,0.673-1.5,1.5-1.5h6c0.414,0,0.75,0.336,0.75,0.75S10.924,15,10.511,15
		h-1.5v1.5h3c0.414,0,0.75,0.336,0.75,0.75S12.424,18,12.011,18h-3v1.5h4.5c0.414,0,0.75,0.336,0.75,0.75S13.924,21,13.511,21H4.511
		z M4.511,19.5h3V18h-3V19.5z M7.511,16.5V15h-3l0,1.5H7.511z"/>
</g>
</svg>
