<?xml version="1.0" encoding="utf-8"?>
<!-- Generator: Adobe Illustrator 22.1.0, SVG Export Plug-In . SVG Version: 6.00 Build 0)  -->
<svg version="1.1" id="Layer_1" xmlns="http://www.w3.org/2000/svg" xmlns:xlink="http://www.w3.org/1999/xlink" x="0px" y="0px"
	 viewBox="0 0 24 24" style="enable-background:new 0 0 24 24;" xml:space="preserve">
<title>accounting-calculator-1</title>
<g>
	<path d="M7.5,12c-0.414,0-0.75-0.336-0.75-0.75V10.5H6c-0.414,0-0.75-0.336-0.75-0.75S5.586,9,6,9h0.75V8.25
		c0-0.414,0.336-0.75,0.75-0.75s0.75,0.336,0.75,0.75V9H9c0.414,0,0.75,0.336,0.75,0.75S9.414,10.5,9,10.5H8.25v0.75
		C8.25,11.664,7.914,12,7.5,12z"/>
	<path d="M9,21c-0.2,0-0.389-0.078-0.53-0.22l-0.97-0.97l-0.97,0.97C6.389,20.922,6.2,21,6,21s-0.389-0.078-0.53-0.22
		c-0.292-0.292-0.292-0.768,0-1.061l0.97-0.97l-0.97-0.97c-0.292-0.292-0.292-0.768,0-1.061C5.611,16.578,5.8,16.5,6,16.5
		s0.389,0.078,0.53,0.22l0.97,0.97l0.97-0.97C8.611,16.578,8.8,16.5,9,16.5s0.389,0.078,0.53,0.22c0.292,0.292,0.292,0.768,0,1.061
		l-0.97,0.97l0.97,0.97c0.292,0.292,0.292,0.768,0,1.061C9.389,20.922,9.2,21,9,21z"/>
	<path d="M15,10.5c-0.414,0-0.75-0.336-0.75-0.75S14.586,9,15,9h3c0.414,0,0.75,0.336,0.75,0.75S18.414,10.5,18,10.5H15z"/>
	<path d="M15,18c-0.414,0-0.75-0.336-0.75-0.75S14.586,16.5,15,16.5h3c0.414,0,0.75,0.336,0.75,0.75S18.414,18,18,18H15z"/>
	<path d="M15,21c-0.414,0-0.75-0.336-0.75-0.75S14.586,19.5,15,19.5h3c0.414,0,0.75,0.336,0.75,0.75S18.414,21,18,21H15z"/>
	<path d="M4.348,24c-1.156,0-2.097-0.94-2.098-2.095V2.25C2.25,1.009,3.259,0,4.5,0h15c1.241,0,2.25,1.009,2.25,2.25V21.9
		c0.001,0.558-0.216,1.085-0.611,1.482c-0.396,0.397-0.922,0.617-1.481,0.618C19.657,24,4.348,24,4.348,24z M19.656,22.5
		c0.158,0,0.307-0.063,0.42-0.176c0.113-0.113,0.174-0.263,0.174-0.422V15h-7.5v7.5H19.656z M3.75,21.9c0,0.331,0.268,0.6,0.597,0.6
		h6.903V15h-7.5V21.9z M20.25,13.5V6h-7.5v7.5H20.25z M11.25,13.5V6h-7.5v7.5H11.25z M20.25,4.5V2.25c0-0.414-0.336-0.75-0.75-0.75
		h-15c-0.414,0-0.75,0.336-0.75,0.75V4.5H20.25z"/>
</g>
</svg>
