<?xml version="1.0" encoding="utf-8"?>
<!-- Generator: Adobe Illustrator 22.1.0, SVG Export Plug-In . SVG Version: 6.00 Build 0)  -->
<svg version="1.1" id="Layer_1" xmlns="http://www.w3.org/2000/svg" xmlns:xlink="http://www.w3.org/1999/xlink" x="0px" y="0px"
	 viewBox="0 0 24 24" style="enable-background:new 0 0 24 24;" xml:space="preserve">
<title>accounting-invoice-mail</title>
<g>
	<path d="M3,24.002c-1.241,0-2.25-1.009-2.25-2.25v-9.7c0.001-0.827,0.674-1.499,1.5-1.499l0.029,0c0.313,0,0.643,0.119,0.903,0.325
		l0.568,0.451V2.25C3.75,1.009,4.759,0,6,0h12c1.241,0,2.25,1.009,2.25,2.25v9.078l0.568-0.45c0.264-0.209,0.595-0.324,0.931-0.324
		c0.462,0,0.89,0.207,1.177,0.568c0.209,0.264,0.324,0.594,0.325,0.93v9.701c0,1.241-1.009,2.25-2.25,2.25H3z M2.25,21.752
		c0,0.414,0.336,0.75,0.75,0.75h18c0.414,0,0.75-0.336,0.75-0.75v-9.7l-4.816,3.821l2.347,2.347c0.142,0.142,0.22,0.33,0.22,0.53
		s-0.078,0.389-0.22,0.53s-0.33,0.22-0.53,0.22s-0.389-0.078-0.53-0.22l-2.469-2.469l-1.432,1.135
		c-0.662,0.52-1.485,0.805-2.32,0.805c-0.834,0-1.656-0.285-2.316-0.803l-1.434-1.138L5.78,19.28c-0.142,0.142-0.33,0.22-0.53,0.22
		s-0.389-0.078-0.53-0.22c-0.142-0.142-0.22-0.33-0.22-0.53s0.078-0.389,0.22-0.53l2.347-2.347l-4.817-3.82L2.25,21.752z
		 M10.613,16.771c0.4,0.313,0.88,0.48,1.386,0.48c0.508,0,0.989-0.167,1.39-0.482l5.36-4.251V2.25c0-0.414-0.336-0.75-0.75-0.75H6
		c-0.414,0-0.75,0.336-0.75,0.75v10.268L10.613,16.771z"/>
	<path d="M14.062,12.75c-0.414,0-0.75-0.336-0.75-0.75v-0.353c-0.676-0.153-1.286-0.542-1.709-1.099
		c-0.121-0.159-0.173-0.356-0.146-0.555c0.027-0.199,0.13-0.375,0.289-0.496c0.131-0.1,0.289-0.153,0.454-0.153
		c0.236,0,0.454,0.108,0.597,0.296c0.277,0.364,0.715,0.581,1.173,0.581l0.059-0.001c0.775-0.001,1.343-0.421,1.343-0.798
		c0-0.376-0.56-0.796-1.309-0.796c-1.551,0-2.812-1.031-2.812-2.298c0-1.052,0.849-1.943,2.062-2.213V3.75
		c0-0.414,0.336-0.75,0.75-0.75s0.75,0.336,0.75,0.75v0.355c0.675,0.154,1.283,0.542,1.705,1.097
		c0.25,0.329,0.186,0.801-0.143,1.051c-0.132,0.1-0.289,0.153-0.454,0.153c-0.237,0-0.454-0.108-0.597-0.296
		c-0.281-0.369-0.708-0.581-1.174-0.581L14.092,5.53c-0.774,0-1.342,0.422-1.342,0.798c0,0.377,0.561,0.798,1.312,0.798
		c1.549,0,2.809,1.03,2.809,2.296c0,1.05-0.848,1.941-2.059,2.212V12C14.812,12.414,14.476,12.75,14.062,12.75z"/>
	<path d="M7.5,5.25c-0.414,0-0.75-0.336-0.75-0.75S7.086,3.75,7.5,3.75H9c0.414,0,0.75,0.336,0.75,0.75S9.414,5.25,9,5.25H7.5z"/>
	<path d="M7.5,8.25c-0.414,0-0.75-0.336-0.75-0.75S7.086,6.75,7.5,6.75H9c0.414,0,0.75,0.336,0.75,0.75S9.414,8.25,9,8.25H7.5z"/>
	<path d="M7.5,11.25c-0.414,0-0.75-0.336-0.75-0.75S7.086,9.75,7.5,9.75H9c0.414,0,0.75,0.336,0.75,0.75S9.414,11.25,9,11.25H7.5z"
		/>
</g>
</svg>
