<?xml version="1.0" encoding="utf-8"?>
<!-- Generator: Adobe Illustrator 22.1.0, SVG Export Plug-In . SVG Version: 6.00 Build 0)  -->
<svg version="1.1" id="Layer_1" xmlns="http://www.w3.org/2000/svg" xmlns:xlink="http://www.w3.org/1999/xlink" x="0px" y="0px"
	 viewBox="0 0 24 24" style="enable-background:new 0 0 24 24;" xml:space="preserve">
<title>accounting-abacus</title>
<g>
	<path d="M3,24c-1.241,0-2.25-1.009-2.25-2.25V2.25C0.75,1.009,1.759,0,3,0h18c1.241,0,2.25,1.009,2.25,2.25v19.5
		c0,1.241-1.009,2.25-2.25,2.25H3z M21,22.5c0.414,0,0.75-0.336,0.75-0.75V2.25c0-0.414-0.336-0.75-0.75-0.75h-3.75V3
		c1.241,0,2.25,1.009,2.25,2.25S18.491,7.5,17.25,7.5c1.241,0,2.25,1.009,2.25,2.25S18.491,12,17.25,12v4.5
		c1.241,0,2.25,1.009,2.25,2.25S18.491,21,17.25,21v1.5H21z M15.75,22.5V21c-1.241,0-2.25-1.009-2.25-2.25s1.009-2.25,2.25-2.25V12
		c-1.241,0-2.25-1.009-2.25-2.25s1.009-2.25,2.25-2.25c-1.241,0-2.25-1.009-2.25-2.25S14.509,3,15.75,3V1.5h-7.5V3
		c1.241,0,2.25,1.009,2.25,2.25S9.491,7.5,8.25,7.5V12c1.241,0,2.25,1.009,2.25,2.25S9.491,16.5,8.25,16.5
		c1.241,0,2.25,1.009,2.25,2.25S9.491,21,8.25,21v1.5H15.75z M3,1.5c-0.414,0-0.75,0.336-0.75,0.75v19.5
		c0,0.414,0.336,0.75,0.75,0.75h3.75V21c-1.241,0-2.25-1.009-2.25-2.25s1.009-2.25,2.25-2.25c-1.241,0-2.25-1.009-2.25-2.25
		S5.509,12,6.75,12V7.5C5.509,7.5,4.5,6.491,4.5,5.25S5.509,3,6.75,3V1.5H3z M15.75,18C15.336,18,15,18.336,15,18.75
		s0.336,0.75,0.75,0.75h1.5c0.414,0,0.75-0.336,0.75-0.75S17.664,18,17.25,18H15.75z M6.75,18C6.336,18,6,18.336,6,18.75
		s0.336,0.75,0.75,0.75h1.5C8.664,19.5,9,19.164,9,18.75S8.664,18,8.25,18H6.75z M6.75,13.5C6.336,13.5,6,13.836,6,14.25
		S6.336,15,6.75,15h1.5C8.664,15,9,14.664,9,14.25S8.664,13.5,8.25,13.5H6.75z M15.75,9C15.336,9,15,9.336,15,9.75
		s0.336,0.75,0.75,0.75h1.5c0.414,0,0.75-0.336,0.75-0.75S17.664,9,17.25,9H15.75z M15.75,4.5C15.336,4.5,15,4.836,15,5.25
		S15.336,6,15.75,6h1.5C17.664,6,18,5.664,18,5.25S17.664,4.5,17.25,4.5H15.75z M6.75,4.5C6.336,4.5,6,4.836,6,5.25S6.336,6,6.75,6
		h1.5C8.664,6,9,5.664,9,5.25S8.664,4.5,8.25,4.5H6.75z"/>
</g>
</svg>
