<?xml version="1.0" encoding="utf-8"?>
<!-- Generator: Adobe Illustrator 22.1.0, SVG Export Plug-In . SVG Version: 6.00 Build 0)  -->
<svg version="1.1" id="Layer_1" xmlns="http://www.w3.org/2000/svg" xmlns:xlink="http://www.w3.org/1999/xlink" x="0px" y="0px"
	 viewBox="0 0 24 24" style="enable-background:new 0 0 24 24;" xml:space="preserve">
<title>adventure-car-truck</title>
<g>
	<path d="M6.75,21c-1.654,0-3-1.346-3-3s1.346-3,3-3s3,1.346,3,3S8.404,21,6.75,21z M6.75,16.5c-0.827,0-1.5,0.673-1.5,1.5
		s0.673,1.5,1.5,1.5s1.5-0.673,1.5-1.5S7.577,16.5,6.75,16.5z"/>
	<path d="M18.75,21c-1.654,0-3-1.346-3-3s1.346-3,3-3s3,1.346,3,3S20.404,21,18.75,21z M18.75,16.5c-0.827,0-1.5,0.673-1.5,1.5
		s0.673,1.5,1.5,1.5s1.5-0.673,1.5-1.5S19.577,16.5,18.75,16.5z"/>
	<path d="M23.059,15.75c-0.245,0-0.476-0.12-0.615-0.322c-0.305-0.438-0.683-0.815-1.121-1.121c-0.76-0.529-1.645-0.809-2.561-0.809
		c-0.267,0-0.538,0.024-0.804,0.072c-1.183,0.212-2.213,0.872-2.901,1.858c-0.14,0.201-0.37,0.321-0.615,0.321h-3.382
		c-0.245,0-0.475-0.12-0.615-0.321c-0.306-0.439-0.683-0.816-1.122-1.122c-0.757-0.527-1.644-0.806-2.565-0.806
		c-1.477,0-2.86,0.72-3.7,1.927c-0.14,0.201-0.371,0.321-0.616,0.321c-0.154,0-0.302-0.047-0.429-0.135
		c-0.164-0.114-0.274-0.286-0.309-0.483s0.008-0.396,0.123-0.561C2.153,14.102,2.547,13.682,3,13.32V9.75
		c0-0.018,0.002-0.047,0.005-0.065C3.004,9.683,3.007,9.656,3.011,9.629c0.004-0.024,0.009-0.047,0.015-0.07
		c0.006-0.023,0.013-0.047,0.022-0.07c0.01-0.026,0.021-0.051,0.033-0.075C3.088,9.398,3.09,9.395,3.098,9.38l2.571-4.497
		c0.399-0.698,1.146-1.132,1.95-1.134h7.001c0.999,0,1.889,0.671,2.163,1.632L17.816,9h2.434c1.241,0,2.25,1.009,2.25,2.25v2.073
		c0.456,0.364,0.85,0.783,1.174,1.249c0.115,0.164,0.158,0.364,0.123,0.561s-0.145,0.369-0.31,0.483
		C23.362,15.703,23.213,15.75,23.059,15.75L23.059,15.75z M14.066,14.25c0.907-1.136,2.188-1.899,3.628-2.156
		c0.351-0.063,0.708-0.095,1.061-0.095c0.766,0,1.532,0.152,2.246,0.442V11.25c0-0.414-0.336-0.75-0.75-0.75H4.5v1.944
		c0.717-0.289,1.49-0.44,2.265-0.44c1.227,0,2.408,0.371,3.415,1.073c0.474,0.33,0.895,0.724,1.255,1.173H14.066z M16.256,9
		L15.34,5.794c-0.092-0.32-0.388-0.544-0.721-0.544H10.5V9H16.256z M9,9V5.25H7.62c-0.268,0-0.516,0.145-0.65,0.378L5.043,9H9z"/>
	<path d="M0.75,13.5C0.337,13.5,0,13.164,0,12.75V7.5c0-0.414,0.336-0.75,0.75-0.75S1.5,7.086,1.5,7.5v5.25
		C1.5,13.164,1.164,13.5,0.75,13.5z"/>
</g>
</svg>
