<?xml version="1.0" encoding="utf-8"?>
<!-- Generator: Adobe Illustrator 22.1.0, SVG Export Plug-In . SVG Version: 6.00 Build 0)  -->
<svg version="1.1" id="Regular" xmlns="http://www.w3.org/2000/svg" xmlns:xlink="http://www.w3.org/1999/xlink" x="0px" y="0px"
	 viewBox="0 0 24 24" style="enable-background:new 0 0 24 24;" xml:space="preserve">
<title>agriculture-machine-plow-4</title>
<g>
	<path d="M15,24c-0.414,0-0.75-0.336-0.75-0.75v-1.5h-1.5v1.5c0,0.414-0.336,0.75-0.75,0.75s-0.75-0.336-0.75-0.75v-1.5h-1.5v1.5
		C9.75,23.664,9.414,24,9,24s-0.75-0.336-0.75-0.75V21c0-0.414,0.336-0.75,0.75-0.75h6c0.414,0,0.75,0.336,0.75,0.75v2.25
		C15.75,23.664,15.414,24,15,24z"/>
	<path d="M23.25,24c-0.414,0-0.75-0.336-0.75-0.75v-1.5H21v1.5c0,0.414-0.336,0.75-0.75,0.75s-0.75-0.336-0.75-0.75v-1.5H18v1.5
		c0,0.414-0.336,0.75-0.75,0.75s-0.75-0.336-0.75-0.75V21c0-0.414,0.336-0.75,0.75-0.75h2.709l-0.829-2.487
		c-0.102-0.307-0.388-0.513-0.712-0.513H5.581c-0.323,0-0.609,0.206-0.712,0.513L4.041,20.25H6.75c0.414,0,0.75,0.336,0.75,0.75
		v2.25C7.5,23.664,7.164,24,6.75,24S6,23.664,6,23.25v-1.5H4.5v1.5C4.5,23.664,4.164,24,3.75,24S3,23.664,3,23.25v-1.5H1.5v1.5
		C1.5,23.664,1.164,24,0.75,24S0,23.664,0,23.25V21c0-0.414,0.336-0.75,0.75-0.75h1.709l0.987-2.961
		c0.307-0.92,1.164-1.539,2.135-1.539h0.668l0.501-5.285V8.5c0-0.965,0.785-1.75,1.75-1.75h3.404C11.569,5.442,10.387,4.5,9,4.5
		H5.25C4.836,4.5,4.5,4.164,4.5,3.75v-3C4.5,0.336,4.836,0,5.25,0H9c4.005,0,7.254,3.082,7.485,7.055
		C16.962,7.379,17.25,7.915,17.25,8.5v1.965l0.501,5.285h0.668c0.97,0,1.828,0.618,2.135,1.539l0.987,2.961h1.709
		c0.414,0,0.75,0.336,0.75,0.75v2.25C24,23.664,23.664,24,23.25,24z M16.245,15.75l-0.427-4.5H8.182l-0.427,4.5H16.245z M15.75,9.75
		V8.5c0-0.138-0.112-0.25-0.25-0.25h-7c-0.138,0-0.25,0.112-0.25,0.25v1.25H15.75z M14.952,6.75C14.581,3.776,12.04,1.5,9,1.5H6V3h3
		c2.188,0,4.073,1.621,4.435,3.75H14.952z"/>
</g>
</svg>
