<?xml version="1.0" encoding="utf-8"?>
<!-- Generator: Adobe Illustrator 22.1.0, SVG Export Plug-In . SVG Version: 6.00 Build 0)  -->
<svg version="1.1" id="Regular" xmlns="http://www.w3.org/2000/svg" xmlns:xlink="http://www.w3.org/1999/xlink" x="0px" y="0px"
	 viewBox="0 0 24 24" style="enable-background:new 0 0 24 24;" xml:space="preserve">
<title>agriculture-machine-harvester</title>
<g>
	<path d="M16.5,22c-1.183,0-2.29-0.557-2.998-1.5H10.5c-1.241,0-2.25-1.009-2.25-2.25v-3.745H7.5c-0.27,0-0.52-0.146-0.653-0.38
		c-0.008-0.013-0.017-0.032-0.024-0.05L3.286,7H0.75C0.336,7,0,6.664,0,6.25S0.336,5.5,0.75,5.5h3c0.286,0,0.543,0.159,0.671,0.414
		l3.14,6.28l1.334-2.227L5.536,3.25H0.75C0.336,3.25,0,2.914,0,2.5s0.336-0.75,0.75-0.75H6c0.286,0,0.543,0.159,0.671,0.414
		l3.543,7.086h7.036c1.241,0,2.25,1.009,2.25,2.25v4.505c0.485,0.646,0.75,1.438,0.75,2.245C20.25,20.318,18.568,22,16.5,22z
		 M16.5,16c-1.241,0-2.25,1.009-2.25,2.25s1.009,2.25,2.25,2.25s2.25-1.009,2.25-2.25S17.741,16,16.5,16z M9.75,18.25
		c0,0.414,0.336,0.75,0.75,0.75h2.328c-0.052-0.248-0.078-0.499-0.078-0.75c0-1.183,0.557-2.29,1.5-2.998v-0.747h-4.5V18.25z
		 M16.5,14.5c0.521,0,1.03,0.107,1.5,0.313V11.5c0-0.414-0.336-0.75-0.75-0.75h-7.075l-1.351,2.255h0.103
		C8.953,13.002,8.976,13,9,13c0.025,0,0.049,0.002,0.073,0.005H15c0.414,0,0.75,0.336,0.75,0.75v0.823
		C15.998,14.526,16.249,14.5,16.5,14.5z"/>
	<path d="M23.25,21.174c-0.203,0-0.393-0.08-0.536-0.225c-2.269-2.315-2.269-6.083,0-8.398c0.142-0.145,0.333-0.225,0.536-0.225
		c0.198,0,0.384,0.076,0.525,0.214c0.295,0.29,0.3,0.765,0.011,1.061c-1.702,1.737-1.702,4.562,0,6.298
		c0.14,0.143,0.216,0.332,0.214,0.532s-0.082,0.388-0.225,0.528C23.634,21.098,23.448,21.174,23.25,21.174z"/>
</g>
</svg>
