<?xml version="1.0" encoding="utf-8"?>
<!-- Generator: Adobe Illustrator 22.1.0, SVG Export Plug-In . SVG Version: 6.00 Build 0)  -->
<svg version="1.1" id="Regular" xmlns="http://www.w3.org/2000/svg" xmlns:xlink="http://www.w3.org/1999/xlink" x="0px" y="0px"
	 viewBox="0 0 24 24" style="enable-background:new 0 0 24 24;" xml:space="preserve">
<title>agriculture-machine-harvester-1</title>
<g>
	<path d="M12,22.5c-1.799,0-3.323-1.268-3.673-3H6c0,1.654-1.346,3-3,3s-3-1.346-3-3c0-0.734,0.265-1.432,0.75-1.981V13.5
		c0-1.799,1.268-3.323,3-3.673V9c0-0.414-0.336-0.75-0.75-0.75H1.5c-0.414,0-0.75-0.336-0.75-0.75S1.086,6.75,1.5,6.75H3
		C4.24,6.75,5.25,7.759,5.25,9v0.75h1.5V6C6.336,6,6,5.664,6,5.25C6,3.182,7.682,1.5,9.75,1.5H15c2.068,0,3.75,1.682,3.75,3.75
		C18.75,5.664,18.413,6,18,6h-0.115l-2.138,12.829C15.705,20.856,14.03,22.5,12,22.5z M12,16.5c-1.241,0-2.25,1.009-2.25,2.25
		S10.759,21,12,21c1.241,0,2.25-1.009,2.25-2.25S13.241,16.5,12,16.5z M3,18c-0.827,0-1.5,0.673-1.5,1.5S2.173,21,3,21
		s1.5-0.673,1.5-1.5S3.827,18,3,18z M8.327,18c0.132-0.643,0.436-1.243,0.872-1.735C7.746,15.732,6.75,14.349,6.75,12.75v-1.5H4.5
		c-1.241,0-2.25,1.009-2.25,2.25v3.096C2.494,16.532,2.745,16.5,3,16.5c1.067,0,2.061,0.582,2.594,1.5H8.327z M8.25,12.75
		c0,1.241,1.009,2.25,2.25,2.25H12c1.012,0,1.978,0.419,2.676,1.131L16.365,6H8.25V12.75z M17.121,4.5C16.808,3.621,15.962,3,15,3
		H9.75C8.788,3,7.942,3.621,7.629,4.5H17.121z"/>
	<path d="M17.25,21c-0.414,0-0.75-0.336-0.75-0.75s0.336-0.75,0.75-0.75h1.834l2.812-4.5H18c-0.414,0-0.75-0.336-0.75-0.75
		S17.586,13.5,18,13.5h5.25c0.273,0,0.524,0.148,0.656,0.386c0.132,0.238,0.125,0.53-0.02,0.761l-3.75,6
		C19.998,20.868,19.76,21,19.5,21H17.25z"/>
</g>
</svg>
