<?xml version="1.0" encoding="utf-8"?>
<!-- Generator: Adobe Illustrator 22.1.0, SVG Export Plug-In . SVG Version: 6.00 Build 0)  -->
<svg version="1.1" id="Regular" xmlns="http://www.w3.org/2000/svg" xmlns:xlink="http://www.w3.org/1999/xlink" x="0px" y="0px"
	 viewBox="0 0 24 24" style="enable-background:new 0 0 24 24;" xml:space="preserve">
<title>agriculture-machine-plowing</title>
<g>
	<path d="M0.75,8.999C0.336,8.999,0,8.662,0,8.249s0.336-0.75,0.75-0.75h3.606l14.461-5.784C19.06,0.722,19.962-0.001,21-0.001
		c1.241,0,2.25,1.009,2.25,2.25v5.25c0.414,0,0.75,0.336,0.75,0.75s-0.336,0.75-0.75,0.75c0,0-18.747,0-18.75,0L0.75,8.999z
		 M21.75,7.499v-5.25c0-0.414-0.336-0.75-0.75-0.75s-0.75,0.336-0.75,0.75v5.25H21.75z M18.75,7.499V3.356L8.394,7.499H18.75z"/>
	<path d="M8.258,23.999c-2.225,0-4.217-1.408-4.956-3.505c-0.466-1.323-0.39-2.748,0.216-4.012c0.358-0.748,0.871-1.382,1.526-1.887
		l2.293-2.596H0.75c-0.414,0-0.75-0.336-0.75-0.75s0.336-0.75,0.75-0.75h22.5c0.414,0,0.75,0.336,0.75,0.75s-0.336,0.75-0.75,0.75
		h-6.412l-1.331,1.506c0.081-0.004,0.162-0.006,0.242-0.006c2.895,0,5.25,2.355,5.25,5.25s-2.355,5.25-5.25,5.25
		s-5.25-2.355-5.25-5.25c0-1.624,0.738-3.129,2.027-4.135l2.31-2.615H9.338l-1.332,1.508C8.089,13.502,8.172,13.5,8.254,13.5
		c0.598,0,1.184,0.1,1.744,0.297c0.189,0.067,0.341,0.203,0.427,0.384c0.086,0.181,0.097,0.384,0.031,0.573
		c-0.106,0.299-0.39,0.5-0.708,0.5c-0.084,0-0.168-0.014-0.248-0.042C9.1,15.071,8.68,15,8.253,15s-0.847,0.072-1.247,0.213
		c-0.945,0.333-1.703,1.014-2.136,1.917c-0.433,0.903-0.487,1.921-0.154,2.866c0.528,1.498,1.951,2.504,3.541,2.504
		c0.423,0,0.841-0.072,1.243-0.214c0.08-0.028,0.164-0.042,0.249-0.042c0.318,0,0.602,0.201,0.708,0.5
		c0.067,0.189,0.056,0.393-0.031,0.573c-0.087,0.181-0.238,0.317-0.427,0.384C9.436,23.899,8.85,23.999,8.258,23.999z M15.75,14.999
		c-2.068,0-3.75,1.682-3.75,3.75s1.682,3.75,3.75,3.75s3.75-1.682,3.75-3.75S17.818,14.999,15.75,14.999z"/>
</g>
</svg>
