<?xml version="1.0" encoding="utf-8"?>
<!-- Generator: Adobe Illustrator 22.1.0, SVG Export Plug-In . SVG Version: 6.00 Build 0)  -->
<svg version="1.1" id="Regular" xmlns="http://www.w3.org/2000/svg" xmlns:xlink="http://www.w3.org/1999/xlink" x="0px" y="0px"
	 viewBox="0 0 24 24" style="enable-background:new 0 0 24 24;" xml:space="preserve">
<title>agriculture-machine-seeder-3</title>
<g>
	<path d="M16.319,9.75c-0.377,0-0.697-0.282-0.744-0.656L15.089,5.25H8.911L8.425,9.094C8.378,9.468,8.058,9.75,7.682,9.75
		c-0.031,0-0.062-0.002-0.093-0.006c-0.2-0.025-0.378-0.126-0.5-0.285C6.966,9.301,6.912,9.105,6.937,8.906L7.5,4.453V2.5
		c0-0.965,0.785-1.75,1.75-1.75h5.5c0.965,0,1.75,0.785,1.75,1.75v1.953l0.563,4.453c0.052,0.41-0.24,0.786-0.65,0.838
		C16.38,9.748,16.349,9.75,16.319,9.75z M15,3.75V2.5c0-0.138-0.112-0.25-0.25-0.25h-5.5C9.112,2.25,9,2.362,9,2.5v1.25H15z"/>
	<path d="M19.5,23.25c-0.414,0-0.75-0.336-0.75-0.75V21h-6v1.5c0,0.414-0.336,0.75-0.75,0.75s-0.75-0.336-0.75-0.75V21h-6v1.5
		c0,0.414-0.336,0.75-0.75,0.75s-0.75-0.336-0.75-0.75V21h-1.5c-0.414,0-0.75-0.336-0.75-0.75s0.336-0.75,0.75-0.75h1.5v-1.57
		c-0.866-0.223-1.548-0.961-1.676-1.862l-0.566-3.962c-0.031-0.215,0.033-0.433,0.176-0.597c0.143-0.165,0.349-0.259,0.567-0.259
		h4.5c0.218,0,0.424,0.094,0.567,0.259c0.142,0.164,0.207,0.382,0.176,0.597l-0.565,3.962c-0.129,0.902-0.811,1.64-1.677,1.863v1.57
		h6v-1.57c-0.866-0.223-1.548-0.961-1.676-1.862l-0.566-3.962c-0.031-0.215,0.033-0.433,0.176-0.597
		c0.143-0.165,0.349-0.259,0.567-0.259h4.5c0.218,0,0.425,0.094,0.567,0.259c0.142,0.163,0.206,0.381,0.176,0.596l-0.565,3.963
		c-0.129,0.902-0.811,1.64-1.678,1.863v1.57h6v-1.57c-0.866-0.223-1.548-0.961-1.677-1.862l-0.566-3.962
		c-0.031-0.215,0.033-0.433,0.176-0.597c0.142-0.164,0.348-0.259,0.566-0.259h4.5c0.218,0,0.425,0.094,0.567,0.259
		c0.142,0.163,0.206,0.381,0.176,0.596l-0.565,3.963c-0.129,0.902-0.811,1.64-1.678,1.863v1.57h1.5c0.414,0,0.75,0.336,0.75,0.75
		S22.164,21,21.75,21h-1.5v1.5C20.25,22.914,19.914,23.25,19.5,23.25z M18.559,15.856c0.052,0.367,0.371,0.644,0.742,0.644H19.7
		c0.371,0,0.69-0.277,0.742-0.644l0.443-3.106h-2.771L18.559,15.856z M11.059,15.856C11.111,16.223,11.43,16.5,11.8,16.5h0.4
		c0.371,0,0.69-0.277,0.742-0.644l0.443-3.106h-2.771L11.059,15.856z M3.559,15.856C3.611,16.223,3.93,16.5,4.3,16.5h0.4
		c0.371,0,0.69-0.277,0.743-0.644l0.443-3.106H3.115L3.559,15.856z"/>
</g>
</svg>
