<?xml version="1.0" encoding="utf-8"?>
<!-- Generator: Adobe Illustrator 22.1.0, SVG Export Plug-In . SVG Version: 6.00 Build 0)  -->
<svg version="1.1" id="Regular" xmlns="http://www.w3.org/2000/svg" xmlns:xlink="http://www.w3.org/1999/xlink" x="0px" y="0px"
	 viewBox="0 0 24 24" style="enable-background:new 0 0 24 24;" xml:space="preserve">
<title>agriculture-machine-disk-plow</title>
<g>
	<path d="M0.748,9.001c-0.414,0-0.75-0.336-0.75-0.75s0.336-0.75,0.75-0.75h1.256l7.781-5.659c0.194-1.061,1.117-1.841,2.212-1.841
		c1.096,0,2.019,0.78,2.213,1.841l7.781,5.659h1.256c0.414,0,0.75,0.336,0.75,0.75s-0.336,0.75-0.75,0.75H0.748z M19.442,7.501
		l-5.194-3.777v3.777H19.442z M12.748,7.501v-5.25c0-0.414-0.336-0.75-0.75-0.75s-0.75,0.336-0.75,0.75v5.25H12.748z M9.748,7.501
		V3.724L4.555,7.501H9.748z"/>
	<path d="M4.501,24.004c-0.563,0-1.116-0.105-1.646-0.314c-1.119-0.439-1.999-1.288-2.48-2.39c-0.48-1.102-0.503-2.325-0.063-3.444
		c0.191-0.487,0.467-0.936,0.82-1.335l2.776-4.52H0.748c-0.414,0-0.75-0.336-0.75-0.75s0.336-0.75,0.75-0.75h22.5
		c0.414,0,0.75,0.336,0.75,0.75s-0.336,0.75-0.75,0.75h-2.581l-1.877,3.057c0.234-0.038,0.47-0.057,0.708-0.057
		c2.481,0,4.5,2.019,4.5,4.5s-2.019,4.5-4.5,4.5s-4.5-2.019-4.5-4.5c0-1.089,0.399-2.141,1.124-2.965l2.785-4.535h-5.74l-1.88,3.062
		c0.237-0.038,0.478-0.057,0.721-0.057c0.622,0,1.224,0.125,1.79,0.372c0.184,0.08,0.325,0.227,0.398,0.414
		c0.073,0.187,0.069,0.39-0.011,0.574c-0.119,0.273-0.389,0.45-0.688,0.45c-0.104,0-0.204-0.021-0.299-0.062
		c-0.38-0.166-0.784-0.25-1.201-0.25c-0.417,0-0.82,0.084-1.2,0.25c-0.733,0.32-1.298,0.907-1.591,1.654
		c-0.293,0.747-0.278,1.562,0.042,2.295c0.477,1.094,1.558,1.8,2.754,1.8c0.412,0,0.815-0.084,1.196-0.25
		c0.096-0.042,0.196-0.062,0.3-0.062c0.299,0,0.569,0.177,0.688,0.45c0.165,0.378-0.009,0.821-0.387,0.987
		c-0.571,0.249-1.175,0.376-1.794,0.376c-1.793,0-3.414-1.06-4.13-2.7c-0.695-1.593-0.399-3.463,0.753-4.773l2.781-4.527h-5.74
		l-1.88,3.061c0.237-0.038,0.478-0.057,0.721-0.057c0.622,0,1.224,0.125,1.789,0.372c0.379,0.165,0.553,0.608,0.388,0.987
		c-0.119,0.273-0.389,0.45-0.688,0.45c-0.103,0-0.204-0.021-0.299-0.062c-0.379-0.166-0.783-0.249-1.199-0.249
		s-0.82,0.084-1.199,0.249c-0.391,0.17-0.735,0.419-1.024,0.738c-0.002,0.003-0.006,0.007-0.01,0.011l0,0
		c-0.242,0.27-0.43,0.574-0.559,0.903c-0.293,0.746-0.278,1.561,0.042,2.296c0.477,1.094,1.558,1.801,2.755,1.801
		c0.412,0,0.814-0.084,1.194-0.25c0.096-0.042,0.197-0.062,0.3-0.062c0.298,0,0.568,0.177,0.688,0.45
		c0.165,0.379-0.009,0.822-0.388,0.987C5.724,23.877,5.119,24.004,4.501,24.004z M19.498,16.501c-1.654,0-3,1.346-3,3s1.346,3,3,3
		s3-1.346,3-3S21.153,16.501,19.498,16.501z"/>
</g>
</svg>
