<?xml version="1.0" encoding="utf-8"?>
<!-- Generator: Adobe Illustrator 22.1.0, SVG Export Plug-In . SVG Version: 6.00 Build 0)  -->
<svg version="1.1" id="Layer_1" xmlns="http://www.w3.org/2000/svg" xmlns:xlink="http://www.w3.org/1999/xlink" x="0px" y="0px"
	 viewBox="0 0 24 24" style="enable-background:new 0 0 24 24;" xml:space="preserve">
<title>aircraft-military-plane-1</title>
<g>
	<path d="M10.5,12c-0.414,0-0.75-0.336-0.75-0.75s0.336-0.75,0.75-0.75h3c0.414,0,0.75,0.336,0.75,0.75S13.914,12,13.5,12H10.5z"/>
	<path d="M20.25,18.75c-1.241,0-2.25-1.009-2.25-2.25c0-0.96,0.615-1.808,1.5-2.121v-0.541l-2.319-0.258
		C16.778,16.088,14.573,18,12,18s-4.778-1.912-5.181-4.42L4.5,13.838v0.541C5.385,14.692,6,15.54,6,16.5
		c0,1.241-1.009,2.25-2.25,2.25S1.5,17.741,1.5,16.5c0-0.96,0.615-1.808,1.5-2.121v-0.374l-2.167,0.241
		c-0.03,0.003-0.057,0.004-0.083,0.004c-0.383,0-0.703-0.287-0.745-0.667c-0.022-0.199,0.035-0.395,0.16-0.551
		s0.304-0.255,0.503-0.277l6.132-0.681c0.302-2.317,2.142-4.18,4.451-4.515V5.25c0-0.414,0.336-0.75,0.75-0.75s0.75,0.336,0.75,0.75
		v2.308c2.309,0.334,4.149,2.198,4.451,4.515l6.132,0.681c0.411,0.046,0.708,0.417,0.663,0.828
		c-0.043,0.381-0.363,0.667-0.745,0.667c-0.027,0-0.053-0.001-0.081-0.004L21,14.005v0.374c0.885,0.314,1.5,1.162,1.5,2.121
		C22.5,17.741,21.491,18.75,20.25,18.75z M20.25,15.75c-0.414,0-0.75,0.336-0.75,0.75s0.336,0.75,0.75,0.75S21,16.914,21,16.5
		S20.664,15.75,20.25,15.75z M3.75,15.75C3.337,15.75,3,16.086,3,16.5s0.336,0.75,0.75,0.75S4.5,16.914,4.5,16.5
		S4.164,15.75,3.75,15.75z M12,9c-2.068,0-3.75,1.682-3.75,3.75c0,2.068,1.682,3.75,3.75,3.75c2.068,0,3.75-1.682,3.75-3.75
		C15.75,10.682,14.068,9,12,9z"/>
</g>
</svg>
