<?xml version="1.0" encoding="utf-8"?>
<!-- Generator: Adobe Illustrator 22.1.0, SVG Export Plug-In . SVG Version: 6.00 Build 0)  -->
<svg version="1.1" id="Layer_1" xmlns="http://www.w3.org/2000/svg" xmlns:xlink="http://www.w3.org/1999/xlink" x="0px" y="0px"
	 viewBox="0 0 24 24" style="enable-background:new 0 0 24 24;" xml:space="preserve">
<title>aircraft-chopper-2</title>
<g>
	<path d="M11.251,23.25c-1.241,0-2.25-1.009-2.25-2.25c0-0.414,0.336-0.75,0.75-0.75s0.75,0.336,0.75,0.75s0.336,0.75,0.75,0.75
		h0.286l1.5-3h-0.286c-1.212-0.002-2.299-0.77-2.706-1.91l-1.22-3.415c-0.175-0.489-0.582-0.848-1.089-0.96l-4.383-0.969
		c-0.997-0.218-1.807-0.919-2.166-1.876l-1.039-2.77c-0.444-1.185,0.159-2.51,1.344-2.953c0.255-0.096,0.524-0.144,0.798-0.144
		c0.723,0,1.411,0.342,1.841,0.916L5.692,6.75h7.809v-3h-8.25c-0.414,0-0.75-0.336-0.75-0.75s0.336-0.75,0.75-0.75h8.25V1.5
		c0-0.414,0.336-0.75,0.75-0.75s0.75,0.336,0.75,0.75v0.75h8.25c0.414,0,0.75,0.336,0.75,0.75s-0.336,0.75-0.75,0.75h-8.25v3.005
		c0.273,0.009,0.547,0.03,0.819,0.063c0.005,0,0.042,0.005,0.052,0.007c0.178,0.022,0.378,0.054,0.596,0.096l0.076,0.015
		c0.196,0.039,0.399,0.088,0.601,0.143l0.033,0.009c3.195,0.888,5.693,3.417,6.533,6.603c0.184,0.663,0.282,1.355,0.291,2.051
		c0.018,0.781-0.272,1.527-0.816,2.097c-0.544,0.57-1.278,0.894-2.066,0.912h-1.157l1.5,3h0.287c0.414,0,0.75-0.336,0.75-0.75
		s0.336-0.75,0.75-0.75s0.75,0.336,0.75,0.75c0,1.241-1.009,2.25-2.25,2.25H11.251z M19.788,21.75l-1.5-3h-3.573l-1.5,3H19.788z
		 M2.291,5.252c-0.094,0-0.187,0.017-0.275,0.049c-0.41,0.153-0.619,0.612-0.465,1.022L2.59,9.093
		C2.77,9.571,3.175,9.921,3.674,10.03L8.059,11c1.014,0.224,1.828,0.942,2.178,1.92l1.22,3.416c0.195,0.546,0.715,0.914,1.295,0.915
		l8.331,0c0.391-0.009,0.751-0.168,1.019-0.448c0.268-0.28,0.41-0.647,0.401-1.035c-0.006-0.514-0.071-1.023-0.195-1.517h-3.557
		c-2.068,0-3.75-1.682-3.75-3.75V8.256c-0.1-0.004-0.199-0.006-0.297-0.006H5.317c-0.235,0-0.459-0.112-0.6-0.3L2.93,5.568
		C2.781,5.37,2.542,5.252,2.291,5.252z M16.501,10.5c0,1.241,1.009,2.25,2.25,2.25h3.027c-0.919-1.95-2.646-3.474-4.712-4.133
		l0.084-0.367l-0.112,0.358c-0.152-0.048-0.306-0.091-0.462-0.13c-0.001,0-0.064-0.015-0.074-0.017V10.5z"/>
</g>
</svg>
