<?xml version="1.0" encoding="utf-8"?>
<!-- Generator: Adobe Illustrator 22.1.0, SVG Export Plug-In . SVG Version: 6.00 Build 0)  -->
<svg version="1.1" id="Layer_1" xmlns="http://www.w3.org/2000/svg" xmlns:xlink="http://www.w3.org/1999/xlink" x="0px" y="0px"
	 viewBox="0 0 24 24" style="enable-background:new 0 0 24 24;" xml:space="preserve">
<title>aircraft-plane-water</title>
<g>
	<path d="M22.565,22.543c-1.368,0-2.699-0.453-3.785-1.281c-0.953,0.8-2.157,1.238-3.413,1.238c-0.086,0-0.173-0.002-0.26-0.006
		c-1.144-0.058-2.234-0.484-3.107-1.207c-0.947,0.782-2.135,1.211-3.372,1.211c-1.258,0-2.455-0.437-3.406-1.236
		c-1.086,0.828-2.418,1.281-3.786,1.281c-0.258,0-0.519-0.016-0.776-0.048c-0.199-0.024-0.376-0.125-0.499-0.283
		s-0.177-0.354-0.153-0.553c0.047-0.375,0.367-0.658,0.744-0.658c0.03,0,0.061,0.002,0.092,0.006
		c0.197,0.025,0.397,0.037,0.594,0.037c1.232,0,2.402-0.473,3.294-1.333c0.141-0.136,0.322-0.21,0.512-0.21
		c0.008,0,0.038,0.001,0.046,0.001c0.191,0.006,0.384,0.096,0.52,0.247c0.68,0.752,1.612,1.196,2.624,1.247
		c0.071,0.004,0.14,0.006,0.21,0.006c0.931,0,1.829-0.348,2.529-0.979c0.096-0.086,0.188-0.178,0.274-0.274
		c0.142-0.157,0.345-0.247,0.557-0.247c0.212,0,0.415,0.09,0.557,0.248c0.68,0.753,1.612,1.196,2.625,1.247
		c0.071,0.004,0.14,0.006,0.209,0.006c0.931,0,1.829-0.348,2.529-0.979c0.095-0.086,0.187-0.178,0.274-0.274
		c0.135-0.15,0.329-0.24,0.531-0.246c0.004,0,0.03-0.001,0.034-0.001c0.187,0,0.374,0.077,0.512,0.211
		c0.892,0.859,2.062,1.332,3.295,1.332c0.197,0,0.396-0.012,0.592-0.036c0.031-0.004,0.062-0.006,0.092-0.006
		c0.378,0,0.698,0.283,0.744,0.657c0.025,0.198-0.029,0.395-0.153,0.553c-0.123,0.158-0.301,0.259-0.5,0.283
		C23.086,22.527,22.824,22.543,22.565,22.543L22.565,22.543z"/>
	<path d="M0.879,20.107c-0.297,0-0.566-0.175-0.686-0.447c-0.127-0.288-0.192-0.594-0.192-0.909c0-1.241,1.009-2.25,2.25-2.25h3.286
		l0.75-1.5H6.126C4.606,15,3.247,14.092,2.664,12.688L0.117,6.577C0.04,6.394,0.002,6.201,0.001,6.002
		c0-0.401,0.156-0.778,0.439-1.062c0.283-0.284,0.66-0.44,1.06-0.44h0.771c1.429,0,2.714,0.794,3.354,2.073l0.464,0.927h1.024
		c3.051-4.172,6.228-4.5,7.138-4.5c2.607,0,4.824,1.95,5.192,4.5h3.808c0.414,0,0.75,0.336,0.75,0.75s-0.336,0.75-0.75,0.75h-0.804
		c-0.187,1.357-0.862,2.723-1.924,3.882c-0.867,0.946-1.901,1.633-2.898,1.938l0.84,1.68h3.286c0.315,0,0.621,0.065,0.909,0.192
		c0.549,0.243,0.971,0.685,1.188,1.245c0.217,0.561,0.203,1.172-0.04,1.722c-0.12,0.271-0.389,0.447-0.686,0.447
		c-0.105,0-0.207-0.021-0.302-0.064c-0.379-0.167-0.551-0.611-0.383-0.99c0.081-0.183,0.086-0.387,0.013-0.574
		c-0.072-0.187-0.213-0.334-0.396-0.415c-0.096-0.042-0.198-0.064-0.303-0.064h-19.5c-0.413,0-0.75,0.336-0.75,0.75
		c0,0.105,0.022,0.207,0.064,0.303c0.167,0.378-0.005,0.822-0.383,0.989C1.086,20.085,0.984,20.107,0.879,20.107z M16.787,16.501
		l-0.75-1.5H7.964l-0.75,1.5H16.787z M4.049,12.112c0.35,0.843,1.165,1.388,2.077,1.389h10.375c1.636,0,3.989-2.167,4.428-4.5
		h-5.178c-1.241,0-2.25-1.009-2.25-2.25V4.57c-2.96,0.541-5.351,4.06-5.376,4.097C7.985,8.876,7.752,9.001,7.501,9.001H5.626
		c-0.286,0-0.543-0.159-0.671-0.414L4.284,7.244C3.9,6.477,3.129,6.001,2.272,6.001h-0.77L4.049,12.112z M15.001,6.751
		c0,0.414,0.336,0.75,0.75,0.75h2.173c-0.298-1.471-1.452-2.625-2.923-2.923V6.751z"/>
	<path d="M23.251,6.001c-0.414,0-0.75-0.336-0.75-0.75v-3c0-0.414,0.336-0.75,0.75-0.75s0.75,0.336,0.75,0.75v3
		C24.001,5.664,23.665,6.001,23.251,6.001z"/>
	<path d="M23.251,15.001c-0.414,0-0.75-0.336-0.75-0.75v-3c0-0.414,0.336-0.75,0.75-0.75s0.75,0.336,0.75,0.75v3
		C24.001,14.664,23.665,15.001,23.251,15.001z"/>
	<path d="M8.251,12.001c-0.414,0-0.75-0.336-0.75-0.75s0.336-0.75,0.75-0.75h7.5c0.414,0,0.75,0.336,0.75,0.75
		s-0.336,0.75-0.75,0.75H8.251z"/>
</g>
</svg>
