<?xml version="1.0" encoding="utf-8"?>
<!-- Generator: Adobe Illustrator 22.1.0, SVG Export Plug-In . SVG Version: 6.00 Build 0)  -->
<svg version="1.1" id="Layer_1" xmlns="http://www.w3.org/2000/svg" xmlns:xlink="http://www.w3.org/1999/xlink" x="0px" y="0px"
	 viewBox="0 0 24 24" style="enable-background:new 0 0 24 24;" xml:space="preserve">
<title>aircraft-propeller-1</title>
<g>
	<path d="M15.75,23.25c-1.654,0-3-1.345-3.001-2.999c0-0.801,0.312-1.555,0.878-2.122c0.567-0.567,1.32-0.879,2.121-0.879
		c0.452,0,0.894,0.102,1.299,0.296c0.333-0.549,0.802-1,1.373-1.32c0.56-0.313,1.191-0.478,1.824-0.478
		c0.345,0,0.69,0.048,1.026,0.143c1.99,0.563,3.15,2.64,2.587,4.629c-0.455,1.607-1.939,2.729-3.608,2.729H15.75z M15.749,18.75
		c-0.4,0-0.776,0.156-1.06,0.44c-0.284,0.284-0.44,0.66-0.44,1.061c0,0.827,0.673,1.499,1.5,1.499h4.5
		c1.002,0,1.893-0.673,2.166-1.637c0.338-1.194-0.358-2.44-1.552-2.778c-0.2-0.057-0.406-0.085-0.612-0.085
		c-1.002,0-1.893,0.673-2.166,1.637c-0.073,0.258-0.279,0.458-0.538,0.523c-0.059,0.015-0.122,0.023-0.184,0.023
		c-0.201,0-0.397-0.083-0.537-0.228C16.544,18.916,16.152,18.75,15.749,18.75v-0.375V18.75z"/>
	<path d="M15.75,16.5c-1.241,0-2.25-1.009-2.25-2.25c0-0.96,0.615-1.808,1.5-2.121V11.25h-0.75c-0.414,0-0.75-0.336-0.75-0.75
		s0.336-0.75,0.75-0.75h2.25v-4.5H13.79L13.04,7.5h1.209C14.663,7.5,15,7.836,15,8.25S14.663,9,14.25,9H9
		C8.586,9,8.25,8.664,8.25,8.25S8.586,7.5,9,7.5h2.459l0.75-2.25H5.25c-0.235,0-0.459-0.112-0.6-0.3l-1.8-2.4
		c-0.141-0.188-0.365-0.3-0.6-0.3C1.836,2.25,1.5,2.586,1.5,3v2.469c0,0.925,0.555,1.745,1.415,2.089l4.114,1.646
		C7.214,9.278,7.36,9.421,7.439,9.605c0.079,0.184,0.081,0.388,0.007,0.574c-0.114,0.286-0.388,0.472-0.696,0.472
		c-0.096,0-0.19-0.018-0.279-0.054L2.357,8.95C0.925,8.378,0,7.011,0,5.469V3c0-1.241,1.009-2.25,2.25-2.25
		c0.704,0,1.377,0.336,1.8,0.9l1.575,2.1h7.084l0.5-1.5H11.25c-0.414,0-0.75-0.336-0.75-0.75s0.336-0.75,0.75-0.75h5.25
		c0.414,0,0.75,0.336,0.75,0.75s-0.336,0.75-0.75,0.75H14.79l-0.5,1.5h4.459C19.99,3.75,21,4.759,21,6v0.75h2.25
		C23.663,6.75,24,7.086,24,7.5s-0.336,0.75-0.75,0.75H21V9c0,1.241-1.009,2.25-2.25,2.25H16.5v0.879
		c0.885,0.314,1.5,1.162,1.5,2.121C18,15.491,16.99,16.5,15.75,16.5z M15.75,13.5c-0.414,0-0.75,0.336-0.75,0.75S15.336,15,15.75,15
		s0.75-0.336,0.75-0.75S16.163,13.5,15.75,13.5z M18.75,9.75c0.414,0,0.75-0.336,0.75-0.75V6c0-0.414-0.336-0.75-0.75-0.75H18v4.5
		H18.75z"/>
	<path d="M23.25,5.25c-0.414,0-0.75-0.336-0.75-0.75v-3c0-0.414,0.336-0.75,0.75-0.75S24,1.086,24,1.5v3
		C24,4.914,23.663,5.25,23.25,5.25z"/>
	<path d="M23.25,14.25c-0.414,0-0.75-0.336-0.75-0.75v-3c0-0.414,0.336-0.75,0.75-0.75S24,10.086,24,10.5v3
		C24,13.914,23.663,14.25,23.25,14.25z"/>
</g>
</svg>
