<?xml version="1.0" encoding="utf-8"?>
<!-- Generator: Adobe Illustrator 22.1.0, SVG Export Plug-In . SVG Version: 6.00 Build 0)  -->
<svg version="1.1" id="Layer_1" xmlns="http://www.w3.org/2000/svg" xmlns:xlink="http://www.w3.org/1999/xlink" x="0px" y="0px"
	 viewBox="0 0 24 24" style="enable-background:new 0 0 24 24;" xml:space="preserve">
<title>aircraft-military-plane-2</title>
<g>
	<path d="M12.003,23.999c-0.043,0-0.086-0.001-0.129-0.002c-1.035-0.043-1.98-0.611-2.518-1.498H6.213
		c-0.625-0.009-1.192-0.351-1.485-0.894c-0.29-0.52-0.306-1.157-0.039-1.698c0.823-1.655,2.6-2.308,4.064-2.558L8.65,14.876
		l-6.072-1.156c-1.059-0.202-1.828-1.132-1.829-2.21V9.75C0.75,8.51,1.759,7.5,3,7.5h5.432c0.259-1.446,1.38-2.602,2.818-2.906V3
		H7.5C7.086,3,6.75,2.664,6.75,2.25S7.086,1.5,7.5,1.5h3.75V0.75C11.25,0.337,11.586,0,12,0s0.75,0.336,0.75,0.75V1.5h3.75
		c0.414,0,0.75,0.336,0.75,0.75S16.914,3,16.5,3h-3.75v1.597c1.437,0.306,2.556,1.461,2.816,2.903H21c1.241,0,2.25,1.009,2.25,2.25
		v1.759c0,1.078-0.769,2.008-1.828,2.21l-6.072,1.156l-0.103,2.473c1.464,0.25,3.24,0.903,4.062,2.555
		c0.268,0.543,0.252,1.182-0.042,1.71c-0.289,0.536-0.853,0.876-1.47,0.885h-3.146c-0.152,0.254-0.338,0.482-0.555,0.682
		C13.524,23.709,12.78,23.999,12.003,23.999z M11.921,6.014c-1.172,0.044-2.09,1.033-2.047,2.205l0.531,12.75
		c0.034,0.823,0.706,1.495,1.529,1.529c0.025,0.001,0.048,0.002,0.072,0.002c0.397,0,0.779-0.15,1.074-0.422
		c0.183-0.168,0.321-0.372,0.41-0.606c0.001-0.004,0.003-0.007,0.004-0.01c0.06-0.161,0.093-0.326,0.1-0.491l0.531-12.753
		c0.002-0.05,0.002-0.102,0-0.154c-0.043-1.149-0.976-2.049-2.124-2.049C11.974,6.013,11.948,6.013,11.921,6.014z M8.816,18.865
		c-0.946,0.192-2.254,0.645-2.783,1.708c-0.048,0.098-0.045,0.215,0.01,0.312c0.039,0.073,0.106,0.114,0.18,0.115h2.683
		L8.816,18.865z M17.787,20.999c0.064-0.001,0.13-0.042,0.165-0.106c0.059-0.106,0.063-0.222,0.013-0.323
		c-0.528-1.061-1.836-1.513-2.781-1.705l-0.089,2.135H17.787z M15.414,13.336l5.727-1.091c0.353-0.067,0.609-0.377,0.609-0.737V9.75
		C21.75,9.337,21.414,9,21,9h-5.406L15.414,13.336z M3,9C2.586,9,2.25,9.337,2.25,9.75v1.759c0,0.359,0.256,0.669,0.61,0.736
		l5.727,1.091L8.406,9H3z"/>
	<path d="M12,10.5c-0.414,0-0.75-0.336-0.75-0.75v-1.5c0-0.414,0.336-0.75,0.75-0.75s0.75,0.336,0.75,0.75v1.5
		C12.75,10.164,12.414,10.5,12,10.5z"/>
</g>
</svg>
