<?xml version="1.0" encoding="utf-8"?>
<!-- Generator: Adobe Illustrator 22.1.0, SVG Export Plug-In . SVG Version: 6.00 Build 0)  -->
<svg version="1.1" id="Layer_1" xmlns="http://www.w3.org/2000/svg" xmlns:xlink="http://www.w3.org/1999/xlink" x="0px" y="0px"
	 viewBox="0 0 24 24" style="enable-background:new 0 0 24 24;" xml:space="preserve">
<title>align-bottom</title>
<g>
	<path d="M4.732,21c-0.965,0-1.75-0.785-1.75-1.75V1.75C2.982,0.785,3.767,0,4.732,0H8.75c0.965,0,1.75,0.785,1.75,1.75v17.5
		c0,0.965-0.785,1.75-1.75,1.75H4.732z M4.732,1.5c-0.138,0-0.25,0.112-0.25,0.25v17.5c0,0.138,0.112,0.25,0.25,0.25H8.75
		C8.888,19.5,9,19.388,9,19.25V1.75C9,1.612,8.888,1.5,8.75,1.5H4.732z"/>
	<path d="M15.25,21c-0.965,0-1.75-0.785-1.75-1.75V10c0-0.965,0.785-1.75,1.75-1.75h4.018c0.965,0,1.75,0.785,1.75,1.75v9.25
		c0,0.965-0.785,1.75-1.75,1.75H15.25z M15.25,9.75C15.112,9.75,15,9.862,15,10v9.25c0,0.138,0.112,0.25,0.25,0.25h4.018
		c0.138,0,0.25-0.112,0.25-0.25V10c0-0.138-0.112-0.25-0.25-0.25H15.25z"/>
	<path d="M0.75,24C0.336,24,0,23.664,0,23.25s0.336-0.75,0.75-0.75h22.5c0.414,0,0.75,0.336,0.75,0.75S23.664,24,23.25,24H0.75z"/>
</g>
</svg>
