<?xml version="1.0" encoding="utf-8"?>
<!-- Generator: Adobe Illustrator 22.1.0, SVG Export Plug-In . SVG Version: 6.00 Build 0)  -->
<svg version="1.1" id="Layer_1" xmlns="http://www.w3.org/2000/svg" xmlns:xlink="http://www.w3.org/1999/xlink" x="0px" y="0px"
	 viewBox="0 0 24 24" style="enable-background:new 0 0 24 24;" xml:space="preserve">
<title>align-left-move</title>
<g>
	<path d="M7.5,4.5c-0.202,0-0.391-0.079-0.533-0.223l-1.5-1.518c-0.061-0.062-0.11-0.135-0.149-0.223
		C5.307,2.514,5.3,2.491,5.292,2.468C5.271,2.402,5.259,2.339,5.255,2.276C5.253,2.249,5.252,2.224,5.253,2.198
		c0.003-0.076,0.017-0.15,0.042-0.219c0.004-0.012,0.013-0.036,0.013-0.036c0.03-0.071,0.071-0.137,0.127-0.2
		C5.446,1.727,5.459,1.713,5.471,1.7l1.502-1.484C7.114,0.077,7.301,0,7.5,0c0.202,0,0.391,0.079,0.533,0.223
		C8.174,0.365,8.251,0.554,8.25,0.755S8.17,1.143,8.027,1.284L7.826,1.482h3.424c0.414,0,0.75,0.336,0.75,0.75
		s-0.336,0.75-0.75,0.75H7.796l0.238,0.241C8.174,3.365,8.251,3.554,8.25,3.755S8.17,4.143,8.027,4.284
		C7.886,4.423,7.699,4.5,7.5,4.5z"/>
	<path d="M7.5,24c-0.202,0-0.391-0.079-0.533-0.223l-1.5-1.518c-0.061-0.061-0.109-0.134-0.149-0.222
		c-0.011-0.025-0.019-0.047-0.026-0.069c-0.022-0.067-0.033-0.13-0.037-0.193c-0.002-0.026-0.003-0.051-0.002-0.077
		c0.003-0.075,0.017-0.149,0.042-0.219c0.004-0.013,0.013-0.037,0.013-0.037c0.03-0.071,0.071-0.137,0.126-0.199
		c0.012-0.016,0.024-0.031,0.037-0.043l1.502-1.484C7.115,19.577,7.302,19.5,7.5,19.5c0.202,0,0.391,0.079,0.533,0.222
		c0.291,0.294,0.288,0.77-0.006,1.061l-0.201,0.198h3.424c0.414,0,0.75,0.336,0.75,0.75s-0.336,0.75-0.75,0.75H7.796l0.238,0.241
		c0.291,0.294,0.288,0.77-0.006,1.061C7.886,23.923,7.698,24,7.5,24z"/>
	<path d="M6.5,11.25c-0.689,0-1.25-0.561-1.25-1.25V7.25C5.25,6.561,5.811,6,6.5,6h14c0.689,0,1.25,0.561,1.25,1.25V10
		c0,0.689-0.561,1.25-1.25,1.25H6.5z M20.25,9.75V7.5H6.75v2.25H20.25z"/>
	<path d="M6.5,18c-0.689,0-1.25-0.561-1.25-1.25V14c0-0.689,0.561-1.25,1.25-1.25h10.25c0.689,0,1.25,0.561,1.25,1.25v2.75
		c0,0.689-0.561,1.25-1.25,1.25H6.5z M16.5,16.5v-2.25H6.75v2.25H16.5z"/>
	<path d="M3,24c-0.414,0-0.75-0.336-0.75-0.75V0.75C2.25,0.336,2.586,0,3,0s0.75,0.336,0.75,0.75v22.5C3.75,23.664,3.414,24,3,24z"
		/>
</g>
</svg>
