<?xml version="1.0" encoding="utf-8"?>
<!-- Generator: Adobe Illustrator 22.1.0, SVG Export Plug-In . SVG Version: 6.00 Build 0)  -->
<svg version="1.1" id="Layer_1" xmlns="http://www.w3.org/2000/svg" xmlns:xlink="http://www.w3.org/1999/xlink" x="0px" y="0px"
	 viewBox="0 0 24 24" style="enable-background:new 0 0 24 24;" xml:space="preserve">
<title>align-bottom-move</title>
<g>
	<path d="M21.768,18.75c-0.097,0-0.192-0.019-0.282-0.055c-0.092-0.037-0.174-0.091-0.245-0.161l-1.518-1.5
		c-0.294-0.291-0.297-0.767-0.006-1.061c0.143-0.144,0.332-0.223,0.534-0.223c0.198,0,0.385,0.077,0.527,0.216l0.241,0.238V12.75
		c0-0.414,0.336-0.75,0.75-0.75s0.75,0.336,0.75,0.75v3.424l0.198-0.201c0.143-0.144,0.332-0.223,0.534-0.223
		c0.198,0,0.385,0.077,0.527,0.216c0.294,0.291,0.297,0.767,0.007,1.061l-1.482,1.5c-0.013,0.013-0.029,0.026-0.045,0.039
		c-0.063,0.055-0.129,0.097-0.2,0.126c0,0-0.017,0.007-0.025,0.009C21.946,18.734,21.857,18.75,21.768,18.75z"/>
	<path d="M2.268,18.75c-0.097,0-0.192-0.019-0.282-0.055c-0.091-0.036-0.174-0.091-0.245-0.161l-1.518-1.5
		c-0.294-0.291-0.297-0.767-0.006-1.061c0.142-0.144,0.332-0.223,0.534-0.223c0.199,0,0.386,0.077,0.527,0.216l0.241,0.238V12.75
		c0-0.414,0.336-0.75,0.75-0.75s0.75,0.336,0.75,0.75v3.424l0.199-0.201c0.142-0.144,0.332-0.223,0.533-0.223
		c0.198,0,0.385,0.077,0.527,0.216c0.294,0.291,0.297,0.767,0.007,1.061l-1.482,1.5c-0.013,0.013-0.028,0.026-0.045,0.038
		c-0.062,0.054-0.128,0.096-0.2,0.126c0,0-0.017,0.007-0.025,0.01C2.446,18.734,2.357,18.75,2.268,18.75z"/>
	<path d="M14,18.75c-0.689,0-1.25-0.561-1.25-1.25v-14c0-0.689,0.561-1.25,1.25-1.25h2.75C17.439,2.25,18,2.811,18,3.5v14
		c0,0.689-0.561,1.25-1.25,1.25H14z M16.5,17.25V3.75h-2.25v13.5H16.5z"/>
	<path d="M7.25,18.75C6.561,18.75,6,18.189,6,17.5V7.25C6,6.561,6.561,6,7.25,6H10c0.689,0,1.25,0.561,1.25,1.25V17.5
		c0,0.689-0.561,1.25-1.25,1.25H7.25z M9.75,17.25V7.5H7.5v9.75H9.75z"/>
	<path d="M0.75,21.75C0.336,21.75,0,21.414,0,21s0.336-0.75,0.75-0.75h22.5c0.414,0,0.75,0.336,0.75,0.75s-0.336,0.75-0.75,0.75
		H0.75z"/>
</g>
</svg>
