<?xml version="1.0" encoding="utf-8"?>
<!-- Generator: Adobe Illustrator 22.1.0, SVG Export Plug-In . SVG Version: 6.00 Build 0)  -->
<svg version="1.1" id="Layer_1" xmlns="http://www.w3.org/2000/svg" xmlns:xlink="http://www.w3.org/1999/xlink" x="0px" y="0px"
	 viewBox="0 0 24 24" style="enable-background:new 0 0 24 24;" xml:space="preserve">
<title>align-left</title>
<g>
	<path d="M4.75,21.018c-0.965,0-1.75-0.785-1.75-1.75V15.25c0-0.965,0.785-1.75,1.75-1.75h17.5c0.965,0,1.75,0.785,1.75,1.75v4.018
		c0,0.965-0.785,1.75-1.75,1.75H4.75z M4.75,15c-0.138,0-0.25,0.112-0.25,0.25v4.018c0,0.138,0.112,0.25,0.25,0.25h17.5
		c0.138,0,0.25-0.112,0.25-0.25V15.25c0-0.138-0.112-0.25-0.25-0.25H4.75z"/>
	<path d="M4.75,10.5C3.785,10.5,3,9.715,3,8.75V4.732c0-0.965,0.785-1.75,1.75-1.75H14c0.965,0,1.75,0.785,1.75,1.75V8.75
		c0,0.965-0.785,1.75-1.75,1.75H4.75z M4.75,4.482c-0.138,0-0.25,0.112-0.25,0.25V8.75C4.5,8.888,4.612,9,4.75,9H14
		c0.138,0,0.25-0.112,0.25-0.25V4.732c0-0.138-0.112-0.25-0.25-0.25H4.75z"/>
	<path d="M0.75,24C0.336,24,0,23.664,0,23.25V0.75C0,0.336,0.336,0,0.75,0S1.5,0.336,1.5,0.75v22.5C1.5,23.664,1.164,24,0.75,24z"/>
</g>
</svg>
