<?xml version="1.0" encoding="utf-8"?>
<!-- Generator: Adobe Illustrator 22.1.0, SVG Export Plug-In . SVG Version: 6.00 Build 0)  -->
<svg version="1.1" id="Layer_1" xmlns="http://www.w3.org/2000/svg" xmlns:xlink="http://www.w3.org/1999/xlink" x="0px" y="0px"
	 viewBox="0 0 24 24" style="enable-background:new 0 0 24 24;" xml:space="preserve">
<title>align-top-move</title>
<g>
	<path d="M2.232,12c-0.414,0-0.75-0.336-0.75-0.75V7.826L1.283,8.027C1.141,8.171,0.952,8.25,0.75,8.25
		c-0.199,0-0.386-0.077-0.527-0.217C0.08,7.893,0.001,7.705,0,7.505s0.076-0.389,0.217-0.532l1.482-1.5
		C1.711,5.46,1.727,5.447,1.743,5.435c0.062-0.055,0.128-0.097,0.2-0.127c0.012-0.005,0.024-0.01,0.037-0.013
		C2.049,5.27,2.123,5.256,2.2,5.253c0.007,0,0.013,0,0.019,0c0.027,0,0.041,0.001,0.056,0.002C2.341,5.259,2.402,5.271,2.461,5.29
		c0.027,0.009,0.051,0.017,0.076,0.028c0.089,0.04,0.162,0.089,0.223,0.149l1.518,1.5C4.42,7.107,4.499,7.295,4.5,7.495
		S4.424,7.885,4.283,8.027C4.141,8.171,3.952,8.25,3.75,8.25l0,0c-0.199,0-0.386-0.077-0.527-0.217L2.982,7.796v3.454
		C2.982,11.664,2.646,12,2.232,12z"/>
	<path d="M21.732,12c-0.414,0-0.75-0.336-0.75-0.75V7.826l-0.198,0.201C20.641,8.171,20.452,8.25,20.25,8.25
		c-0.198,0-0.386-0.077-0.527-0.216c-0.294-0.291-0.297-0.767-0.007-1.061l1.482-1.5c0.013-0.013,0.028-0.026,0.044-0.038
		c0.062-0.055,0.128-0.097,0.2-0.127c0.011-0.005,0.022-0.009,0.034-0.012c0.066-0.024,0.142-0.039,0.222-0.043
		c0.007,0,0.014,0,0.02,0c0.026,0,0.04,0.001,0.054,0.002c0.068,0.004,0.129,0.016,0.188,0.035c0.031,0.01,0.052,0.017,0.075,0.027
		c0.089,0.039,0.161,0.088,0.223,0.149l1.519,1.5c0.294,0.291,0.297,0.766,0.006,1.061C23.641,8.171,23.451,8.25,23.25,8.25l0,0
		c-0.198,0-0.386-0.077-0.527-0.217l-0.241-0.238v3.454C22.482,11.664,22.145,12,21.732,12z"/>
	<path d="M7.25,21.75C6.561,21.75,6,21.189,6,20.5v-14c0-0.689,0.561-1.25,1.25-1.25H10c0.689,0,1.25,0.561,1.25,1.25v14
		c0,0.689-0.561,1.25-1.25,1.25H7.25z M9.75,20.25V6.75H7.5v13.5H9.75z"/>
	<path d="M14,18c-0.689,0-1.25-0.561-1.25-1.25V6.5c0-0.689,0.561-1.25,1.25-1.25h2.75C17.439,5.25,18,5.811,18,6.5v10.25
		c0,0.689-0.561,1.25-1.25,1.25H14z M16.5,16.5V6.75h-2.25v9.75H16.5z"/>
	<path d="M0.75,3.75C0.336,3.75,0,3.414,0,3s0.336-0.75,0.75-0.75h22.5C23.664,2.25,24,2.586,24,3s-0.336,0.75-0.75,0.75H0.75z"/>
</g>
</svg>
