<?xml version="1.0" encoding="utf-8"?>
<!-- Generator: Adobe Illustrator 22.1.0, SVG Export Plug-In . SVG Version: 6.00 Build 0)  -->
<svg version="1.1" id="Layer_1" xmlns="http://www.w3.org/2000/svg" xmlns:xlink="http://www.w3.org/1999/xlink" x="0px" y="0px"
	 viewBox="0 0 24 24" style="enable-background:new 0 0 24 24;" xml:space="preserve">
<title>align-right</title>
<g>
	<path d="M1.75,21.018c-0.965,0-1.75-0.785-1.75-1.75V15.25c0-0.965,0.785-1.75,1.75-1.75h17.5c0.965,0,1.75,0.785,1.75,1.75v4.018
		c0,0.965-0.785,1.75-1.75,1.75H1.75z M1.75,15c-0.138,0-0.25,0.112-0.25,0.25v4.018c0,0.138,0.112,0.25,0.25,0.25h17.5
		c0.138,0,0.25-0.112,0.25-0.25V15.25c0-0.138-0.112-0.25-0.25-0.25H1.75z"/>
	<path d="M10,10.5c-0.965,0-1.75-0.785-1.75-1.75V4.732c0-0.965,0.785-1.75,1.75-1.75h9.25c0.965,0,1.75,0.785,1.75,1.75V8.75
		c0,0.965-0.785,1.75-1.75,1.75H10z M10,4.482c-0.138,0-0.25,0.112-0.25,0.25V8.75C9.75,8.888,9.862,9,10,9h9.25
		c0.138,0,0.25-0.112,0.25-0.25V4.732c0-0.138-0.112-0.25-0.25-0.25H10z"/>
	<path d="M23.25,24c-0.414,0-0.75-0.336-0.75-0.75V0.75C22.5,0.336,22.836,0,23.25,0S24,0.336,24,0.75v22.5
		C24,23.664,23.664,24,23.25,24z"/>
</g>
</svg>
