<?xml version="1.0" encoding="utf-8"?>
<!-- Generator: Adobe Illustrator 22.1.0, SVG Export Plug-In . SVG Version: 6.00 Build 0)  -->
<svg version="1.1" id="Layer_1" xmlns="http://www.w3.org/2000/svg" xmlns:xlink="http://www.w3.org/1999/xlink" x="0px" y="0px"
	 viewBox="0 0 24 24" style="enable-background:new 0 0 24 24;" xml:space="preserve">
<title>align-left-right</title>
<g>
	<path d="M13.705,14.795c-0.2,0-0.389-0.078-0.53-0.22c-0.292-0.292-0.292-0.768,0-1.061L14.689,12l-1.515-1.515
		c-0.142-0.142-0.22-0.33-0.22-0.53c0-0.2,0.078-0.389,0.22-0.53s0.33-0.22,0.53-0.22s0.389,0.078,0.53,0.22l2.045,2.045
		c0.142,0.142,0.22,0.33,0.22,0.53c0,0.2-0.078,0.389-0.22,0.531l-2.045,2.045C14.094,14.717,13.905,14.795,13.705,14.795z"/>
	<path d="M10.295,14.795c-0.2,0-0.389-0.078-0.53-0.22L7.72,12.53C7.578,12.389,7.5,12.2,7.5,12s0.078-0.389,0.22-0.53l2.045-2.045
		c0.142-0.142,0.33-0.22,0.53-0.22s0.389,0.078,0.53,0.22c0.142,0.141,0.22,0.33,0.22,0.53s-0.078,0.389-0.22,0.53L9.311,12
		l1.515,1.515c0.292,0.292,0.292,0.768,0,1.061C10.684,14.717,10.495,14.795,10.295,14.795z"/>
	<path d="M21,23.25c-0.414,0-0.75-0.336-0.75-0.75v-3h-1c-0.689,0-1.25-0.561-1.25-1.25V5.75c0-0.689,0.561-1.25,1.25-1.25h1v-3
		c0-0.414,0.336-0.75,0.75-0.75s0.75,0.336,0.75,0.75v3h1C23.439,4.5,24,5.061,24,5.75v12.5c0,0.689-0.561,1.25-1.25,1.25h-1v3
		C21.75,22.914,21.414,23.25,21,23.25z M22.5,18V6h-3v12H22.5z"/>
	<path d="M3,21c-0.414,0-0.75-0.336-0.75-0.75V18h-1C0.561,18,0,17.439,0,16.75v-9.5C0,6.561,0.561,6,1.25,6h1V3.75
		C2.25,3.336,2.586,3,3,3s0.75,0.336,0.75,0.75V6h1C5.439,6,6,6.561,6,7.25v9.5C6,17.439,5.439,18,4.75,18h-1v2.25
		C3.75,20.664,3.414,21,3,21z M4.5,16.5v-9h-3v9H4.5z"/>
</g>
</svg>
