<?xml version="1.0" encoding="utf-8"?>
<!-- Generator: Adobe Illustrator 22.1.0, SVG Export Plug-In . SVG Version: 6.00 Build 0)  -->
<svg version="1.1" id="Layer_1" xmlns="http://www.w3.org/2000/svg" xmlns:xlink="http://www.w3.org/1999/xlink" x="0px" y="0px"
	 viewBox="0 0 24 24" style="enable-background:new 0 0 24 24;" xml:space="preserve">
<title>allowances-no-photos</title>
<g>
	<path d="M12,24C5.383,24,0,18.617,0,12c0-3.174,1.232-6.167,3.469-8.43c0.012-0.017,0.027-0.036,0.046-0.055
		c0.014-0.014,0.033-0.029,0.052-0.043C5.831,1.232,8.824,0,12,0c6.617,0,12,5.383,12,12c0,3.174-1.231,6.167-3.468,8.43
		c-0.012,0.017-0.027,0.036-0.047,0.055c-0.014,0.014-0.033,0.03-0.052,0.043C18.169,22.768,15.176,24,12,24z M4.069,5.13
		C2.41,7.042,1.5,9.466,1.5,12c0,5.79,4.71,10.5,10.5,10.5c2.534,0,4.958-0.909,6.87-2.569L17.47,18.53
		c-0.142-0.142-0.22-0.33-0.22-0.53s0.078-0.389,0.22-0.53s0.33-0.22,0.53-0.22s0.389,0.078,0.53,0.22l1.401,1.401
		c1.66-1.912,2.569-4.336,2.569-6.87c0-5.79-4.71-10.5-10.5-10.5c-2.534,0-4.958,0.91-6.87,2.569l1.4,1.401
		C6.672,5.611,6.75,5.8,6.75,6S6.672,6.389,6.53,6.53C6.389,6.672,6.2,6.75,6,6.75S5.611,6.672,5.47,6.53L4.069,5.13z"/>
	<path d="M8.25,16.5C7.009,16.5,6,15.491,6,14.25v-4.5C6,8.509,7.009,7.5,8.25,7.5h5.25V6.75C13.5,6.336,13.836,6,14.25,6
		S15,6.336,15,6.75V7.5h0.75C16.991,7.5,18,8.509,18,9.75v4.5c0,1.241-1.009,2.25-2.25,2.25H8.25z M8.25,9
		C7.836,9,7.5,9.336,7.5,9.75v4.5C7.5,14.664,7.836,15,8.25,15h7.5c0.414,0,0.75-0.336,0.75-0.75v-4.5C16.5,9.336,16.164,9,15.75,9
		H8.25z"/>
	<circle cx="12" cy="12" r="1.125"/>
</g>
</svg>
