<?xml version="1.0" encoding="utf-8"?>
<!-- Generator: Adobe Illustrator 22.1.0, SVG Export Plug-In . SVG Version: 6.00 Build 0)  -->
<svg version="1.1" id="Layer_1" xmlns="http://www.w3.org/2000/svg" xmlns:xlink="http://www.w3.org/1999/xlink" x="0px" y="0px"
	 viewBox="0 0 24 24" style="enable-background:new 0 0 24 24;" xml:space="preserve">
<title>allowances-silence</title>
<g>
	<path d="M18.75,24C18.336,24,18,23.664,18,23.25V21h-0.75c-2.068,0-3.75-1.682-3.75-3.75V15h-2.25
		c-0.249,0-0.481-0.123-0.621-0.329c-0.14-0.207-0.168-0.468-0.075-0.699c0.274-0.685,0.537-1.365,0.796-2.034
		C13.831,5.531,15.973,0,23.25,0C23.664,0,24,0.336,24,0.75S23.664,1.5,23.25,1.5c-6.249,0-8.125,4.844-10.5,10.977
		c-0.134,0.345-0.265,0.684-0.397,1.023h1.898c0.414,0,0.75,0.336,0.75,0.75v3c0,1.241,1.009,2.25,2.25,2.25h1.5
		c0.414,0,0.75,0.336,0.75,0.75v3C19.5,23.664,19.164,24,18.75,24z"/>
	<path d="M8.25,24c-0.414,0-0.75-0.336-0.75-0.75V13.5c0-0.414-0.336-0.75-0.75-0.75S6,13.086,6,13.5v6.75
		C6,20.664,5.664,21,5.25,21S4.5,20.664,4.5,20.25v-1.5C4.5,18.336,4.164,18,3.75,18S3,18.336,3,18.75v1.5
		C3,20.664,2.664,21,2.25,21S1.5,20.664,1.5,20.25v-1.5C1.5,18.336,1.164,18,0.75,18S0,17.664,0,17.25s0.336-0.75,0.75-0.75
		c0.555,0,1.09,0.209,1.5,0.575c0.41-0.365,0.945-0.575,1.5-0.575c0.259,0,0.512,0.043,0.75,0.128V13.5
		c0-1.241,1.009-2.25,2.25-2.25S9,12.259,9,13.5v9.75C9,23.664,8.664,24,8.25,24z"/>
</g>
</svg>
