<?xml version="1.0" encoding="utf-8"?>
<!-- Generator: Adobe Illustrator 22.1.0, SVG Export Plug-In . SVG Version: 6.00 Build 0)  -->
<svg version="1.1" id="Layer_1" xmlns="http://www.w3.org/2000/svg" xmlns:xlink="http://www.w3.org/1999/xlink" x="0px" y="0px"
	 viewBox="0 0 24 24" style="enable-background:new 0 0 24 24;" xml:space="preserve">
<title>allowances-no-food-1</title>
<g>
	<path d="M12,24c-3.174,0-6.166-1.231-8.43-3.468c-0.018-0.012-0.038-0.028-0.058-0.049C3.5,20.47,3.485,20.452,3.471,20.433
		C1.233,18.169,0,15.176,0,12C0,5.383,5.383,0,12,0c3.174,0,6.167,1.231,8.43,3.468c0.017,0.012,0.035,0.026,0.053,0.044
		c0.015,0.014,0.031,0.034,0.046,0.055C22.768,5.831,24,8.824,24,12C24,18.617,18.617,24,12,24z M5.13,19.931
		C7.042,21.591,9.466,22.5,12,22.5c5.79,0,10.5-4.71,10.5-10.5c0-2.534-0.909-4.958-2.569-6.87l-1.401,1.4
		C18.389,6.672,18.2,6.75,18,6.75s-0.389-0.078-0.53-0.22C17.328,6.389,17.25,6.2,17.25,6c0-0.2,0.078-0.389,0.22-0.53l1.401-1.4
		C16.958,2.41,14.534,1.5,12,1.5C6.21,1.5,1.5,6.21,1.5,12c0,2.534,0.91,4.958,2.569,6.87L6.22,16.72
		c0.142-0.142,0.33-0.22,0.53-0.22s0.389,0.078,0.53,0.22c0.142,0.142,0.22,0.33,0.22,0.53s-0.078,0.389-0.22,0.53L5.13,19.931z"/>
	<path d="M14.25,19.5c-0.414,0-0.75-0.336-0.75-0.75V5.25c0-0.326,0.208-0.613,0.518-0.713C14.092,4.512,14.17,4.5,14.25,4.5
		c0.239,0,0.466,0.115,0.607,0.309c2.007,2.759,3.094,6.02,3.144,9.43c0.003,0.199-0.076,0.395-0.216,0.537
		C17.644,14.918,17.449,15,17.25,15H15v3.75C15,19.164,14.664,19.5,14.25,19.5z M16.47,13.5c-0.126-1.93-0.628-3.82-1.47-5.552V13.5
		H16.47z"/>
	<path d="M9.75,19.5C9.336,19.5,9,19.164,9,18.75v-8.379C8.115,10.058,7.5,9.21,7.5,8.25v-3c0-0.414,0.336-0.75,0.75-0.75
		S9,4.836,9,5.25v3C9,8.664,9.336,9,9.75,9s0.75-0.336,0.75-0.75v-3c0-0.414,0.336-0.75,0.75-0.75S12,4.836,12,5.25v3
		c0,0.96-0.615,1.808-1.5,2.121v8.379C10.5,19.164,10.164,19.5,9.75,19.5z"/>
</g>
</svg>
