<?xml version="1.0" encoding="utf-8"?>
<!-- Generator: Adobe Illustrator 22.1.0, SVG Export Plug-In . SVG Version: 6.00 Build 0)  -->
<svg version="1.1" id="Regular" xmlns="http://www.w3.org/2000/svg" xmlns:xlink="http://www.w3.org/1999/xlink" x="0px" y="0px"
	 viewBox="0 0 24 24" style="enable-background:new 0 0 24 24;" xml:space="preserve">
<title>ambulance-car</title>
<g>
	<path d="M18.75,24c-1.067,0-2.061-0.582-2.594-1.5h-6.062C9.561,23.418,8.567,24,7.5,24s-2.061-0.582-2.594-1.5H2.25
		C1.009,22.5,0,21.491,0,20.25V15.8c0.002-0.753,0.376-1.452,1.002-1.869l1.316-0.877l0.41-2.299
		c0.003-0.016,0.006-0.033,0.011-0.05C2.989,9.701,3.887,9,4.921,9h2.708C7.942,8.115,8.79,7.5,9.75,7.5h1.5c0-1.654,1.346-3,3-3
		s3,1.346,3,3h4.5C22.991,7.5,24,8.509,24,9.75v10.5c0,1.241-1.009,2.25-2.25,2.25h-0.406C20.811,23.418,19.817,24,18.75,24z
		 M18.75,19.5c-0.827,0-1.5,0.673-1.5,1.5s0.673,1.5,1.5,1.5s1.5-0.673,1.5-1.5S19.577,19.5,18.75,19.5z M7.5,19.5
		C6.673,19.5,6,20.173,6,21s0.673,1.5,1.5,1.5S9,21.827,9,21S8.327,19.5,7.5,19.5z M21.75,21c0.414,0,0.75-0.336,0.75-0.75V9.75
		C22.5,9.336,22.164,9,21.75,9h-12C9.336,9,9,9.336,9,9.75v8.656c0.918,0.533,1.5,1.527,1.5,2.594h5.25c0-1.654,1.346-3,3-3
		S21.75,19.346,21.75,21z M3.738,13.632c-0.036,0.2-0.153,0.38-0.323,0.492l-1.582,1.055c-0.209,0.139-0.333,0.372-0.334,0.623
		v4.448C1.5,20.664,1.836,21,2.25,21H4.5c0-1.654,1.346-3,3-3v-7.5H4.921c-0.337,0-0.632,0.224-0.722,0.547L3.738,13.632z
		 M15.75,7.5c0-0.827-0.673-1.5-1.5-1.5s-1.5,0.673-1.5,1.5H15.75z"/>
	<path d="M15.75,17.25c-0.414,0-0.75-0.336-0.75-0.75V15h-1.5c-0.414,0-0.75-0.336-0.75-0.75s0.336-0.75,0.75-0.75H15V12
		c0-0.414,0.336-0.75,0.75-0.75S16.5,11.586,16.5,12v1.5H18c0.414,0,0.75,0.336,0.75,0.75S18.414,15,18,15h-1.5v1.5
		C16.5,16.914,16.164,17.25,15.75,17.25z"/>
	<path d="M14.25,3c-0.414,0-0.75-0.336-0.75-0.75v-1.5C13.5,0.336,13.836,0,14.25,0S15,0.336,15,0.75v1.5C15,2.664,14.664,3,14.25,3
		z"/>
	<path d="M18,4.5c-0.115,0-0.231-0.027-0.334-0.079c-0.37-0.185-0.521-0.636-0.336-1.006l0.75-1.5
		C18.207,1.659,18.464,1.5,18.75,1.5c0.115,0,0.231,0.027,0.334,0.079c0.37,0.185,0.521,0.636,0.336,1.006l-0.75,1.5
		C18.543,4.341,18.286,4.5,18,4.5z"/>
	<path d="M10.5,4.5c-0.286,0-0.543-0.159-0.671-0.414l-0.75-1.5c-0.185-0.37-0.034-0.821,0.335-1.006
		C9.519,1.527,9.634,1.5,9.75,1.5c0.286,0,0.543,0.159,0.671,0.415l0.75,1.5c0.185,0.37,0.034,0.821-0.335,1.006
		C10.731,4.473,10.616,4.5,10.5,4.5z"/>
</g>
</svg>
