<?xml version="1.0" encoding="utf-8"?>
<!-- Generator: Adobe Illustrator 22.1.0, SVG Export Plug-In . SVG Version: 6.00 Build 0)  -->
<svg version="1.1" id="Regular" xmlns="http://www.w3.org/2000/svg" xmlns:xlink="http://www.w3.org/1999/xlink" x="0px" y="0px"
	 viewBox="0 0 24 24" style="enable-background:new 0 0 24 24;" xml:space="preserve">
<title>amphibian-foot</title>
<g>
	<path d="M12,23.25c-2.895,0-5.25-2.019-5.25-4.5c0-0.152,0.011-0.308,0.035-0.484l-4.223-7.039
		C2.458,11.242,2.353,11.25,2.25,11.25C1.009,11.25,0,10.241,0,9s1.009-2.25,2.25-2.25c0.965,0,1.808,0.614,2.12,1.5
		c0.402-0.082,1.061-0.358,1.808-1.236c0.4-0.518,0.623-1.193,0.622-1.877C5.886,4.84,5.25,3.984,5.25,3
		c0-1.241,1.009-2.25,2.25-2.25S9.75,1.759,9.75,3c0,0.14-0.014,0.282-0.041,0.422c0.564,0.677,1.412,1.076,2.3,1.076
		c0.584,0,1.151-0.171,1.64-0.494c0.239-0.159,0.455-0.354,0.643-0.581C14.264,3.283,14.25,3.141,14.25,3
		c0-1.241,1.009-2.25,2.25-2.25S18.75,1.759,18.75,3c0,0.984-0.637,1.84-1.551,2.138c-0.002,0.69,0.222,1.357,0.645,1.904
		c0.725,0.852,1.383,1.123,1.788,1.205c0.314-0.885,1.156-1.497,2.119-1.497C22.991,6.75,24,7.759,24,9s-1.009,2.25-2.25,2.25
		c-0.103,0-0.208-0.008-0.312-0.023l-4.223,7.039c0.024,0.176,0.035,0.332,0.035,0.484C17.25,21.231,14.895,23.25,12,23.25z
		 M12,15.75c-2.068,0-3.75,1.346-3.75,3s1.682,3,3.75,3c2.068,0,3.75-1.346,3.75-3S14.068,15.75,12,15.75z M14.309,14.709
		c0.926,0.391,1.704,1.015,2.224,1.779l3.573-5.955c-0.207-0.222-0.368-0.485-0.471-0.769c-0.695-0.073-1.81-0.429-2.956-1.777
		c-0.65-0.839-0.99-1.85-0.98-2.885c-0.218-0.083-0.42-0.199-0.602-0.345c-0.194,0.187-0.402,0.354-0.619,0.499
		c-0.735,0.487-1.59,0.745-2.47,0.745c-1.163,0-2.275-0.448-3.105-1.241c-0.181,0.145-0.383,0.261-0.6,0.343
		c0.01,1.034-0.325,2.039-0.958,2.858C6.18,9.328,5.061,9.688,4.366,9.762c-0.103,0.285-0.264,0.548-0.471,0.77l3.573,5.955
		c0.521-0.763,1.298-1.388,2.224-1.779L9.01,10.623c-0.033-0.198,0.013-0.396,0.129-0.559C9.256,9.901,9.429,9.793,9.627,9.76
		C9.667,9.753,9.71,9.75,9.752,9.75c0.367,0,0.677,0.264,0.738,0.627l0.656,3.937C11.434,14.271,11.72,14.25,12,14.25
		c0.28,0,0.566,0.021,0.854,0.063l0.656-3.937c0.06-0.363,0.371-0.627,0.738-0.627c0.042,0,0.084,0.004,0.127,0.011
		c0.196,0.033,0.368,0.14,0.485,0.303c0.117,0.163,0.163,0.362,0.13,0.56L14.309,14.709z M21.75,8.25C21.336,8.25,21,8.586,21,9
		s0.336,0.75,0.75,0.75S22.5,9.414,22.5,9S22.164,8.25,21.75,8.25z M2.25,8.25C1.836,8.25,1.5,8.586,1.5,9s0.336,0.75,0.75,0.75
		S3,9.414,3,9S2.664,8.25,2.25,8.25z M16.5,2.25c-0.414,0-0.75,0.336-0.75,0.75s0.336,0.75,0.75,0.75S17.25,3.414,17.25,3
		S16.914,2.25,16.5,2.25z M7.5,2.25C7.086,2.25,6.75,2.586,6.75,3S7.086,3.75,7.5,3.75S8.25,3.414,8.25,3S7.914,2.25,7.5,2.25z"/>
</g>
</svg>
