<?xml version="1.0" encoding="utf-8"?>
<!-- Generator: Adobe Illustrator 22.1.0, SVG Export Plug-In . SVG Version: 6.00 Build 0)  -->
<svg version="1.1" id="Regular" xmlns="http://www.w3.org/2000/svg" xmlns:xlink="http://www.w3.org/1999/xlink" x="0px" y="0px"
	 viewBox="0 0 24 24" style="enable-background:new 0 0 24 24;" xml:space="preserve">
<title>amphibian-chameleon-2</title>
<g>
	<path d="M15.75,21c-2.069,0-3.711-0.644-4.625-1.814c-0.747-0.957-0.955-2.208-0.603-3.618c0.006-0.025,0.014-0.05,0.023-0.075
		c0.292-0.808,0.777-1.53,1.404-2.106c-0.826,0.01-1.682,0.03-2.517,0.049c-0.571,0.013-1.15,0.026-1.734,0.037
		c0.091,0.656,0.082,1.591-0.414,2.471c-0.609,1.081-1.758,1.77-3.415,2.045C3.827,17.996,3.786,18,3.745,18
		c-0.368,0-0.679-0.264-0.739-0.627c-0.033-0.197,0.013-0.396,0.13-0.559s0.289-0.271,0.487-0.304
		c1.187-0.198,1.979-0.636,2.355-1.302c0.336-0.596,0.287-1.282,0.203-1.713C5.871,13.498,5.561,13.5,5.25,13.5
		C2.012,13.5,0,12.063,0,9.75c0.166-2.836,2.404-5.083,5.206-5.249L6.75,4.5c0.414,0,0.75,0.336,0.75,0.75S7.164,6,6.75,6h-1.5
		C3.242,6.12,1.619,7.751,1.499,9.794C1.5,11.839,4.37,12,5.25,12c1.393,0,2.784-0.032,4.129-0.063
		c1.212-0.028,2.445-0.057,3.541-0.057c1.307,0,2.295,0.04,3.109,0.127l0.034,0.002c0.014,0.001,0.039,0.005,0.058,0.009
		c1.42,0.16,2.325,0.472,2.847,0.982c0.349,0.34,0.533,0.773,0.533,1.25c0,2.373-2.453,3-3.75,3c-0.414,0-0.75-0.336-0.75-0.75
		s0.336-0.75,0.75-0.75c0.091,0,2.25-0.022,2.25-1.5c0-0.064-0.013-0.111-0.081-0.177c-0.188-0.184-0.686-0.431-1.993-0.571
		c-0.003,0-0.005,0-0.008,0c-0.126-0.013-0.253-0.019-0.379-0.019c-1.584,0-3.017,0.998-3.571,2.487
		c-0.228,0.942-0.113,1.714,0.339,2.294c0.614,0.786,1.868,1.237,3.442,1.237c4.605,0,6.75-2.383,6.75-7.5
		c0-3.532-2.124-5.134-7.574-5.712c-0.199-0.021-0.378-0.119-0.504-0.275c-0.126-0.156-0.183-0.351-0.162-0.551
		c0.04-0.382,0.359-0.671,0.742-0.671c0.028,0,0.057,0.002,0.086,0.005c1.863,0.198,4.236,0.568,6.035,1.682
		C23.032,7.659,24,9.517,24,12C24,17.888,21.147,21,15.75,21z"/>
	<path d="M5.625,9.75c-0.044,0-0.088-0.004-0.131-0.012c-0.513-0.06-0.922-0.47-0.982-0.982C4.504,8.713,4.5,8.669,4.5,8.625
		s0.004-0.088,0.012-0.131c0.06-0.513,0.47-0.922,0.982-0.982C5.537,7.504,5.581,7.5,5.625,7.5s0.088,0.004,0.131,0.012
		c0.513,0.06,0.922,0.47,0.982,0.982C6.746,8.537,6.75,8.581,6.75,8.625S6.746,8.713,6.738,8.756
		c-0.06,0.513-0.47,0.922-0.982,0.982C5.713,9.746,5.669,9.75,5.625,9.75z"/>
	<path d="M9,6C8.749,6,8.515,5.875,8.376,5.666C8.147,5.322,8.24,4.855,8.584,4.626l2.25-1.5C10.957,3.043,11.101,3,11.25,3
		c0.251,0,0.485,0.125,0.625,0.334c0.229,0.344,0.136,0.811-0.208,1.04l-2.25,1.5C9.292,5.956,9.149,6,9,6z"/>
	<path d="M10.5,7.5c-0.414,0-0.75-0.336-0.75-0.75S10.086,6,10.5,6h2.25c0.414,0,0.75,0.336,0.75,0.75S13.164,7.5,12.75,7.5H10.5z"
		/>
	<path d="M11.25,10.5c-0.148,0-0.292-0.044-0.416-0.126l-2.25-1.5C8.24,8.645,8.147,8.178,8.376,7.834C8.515,7.625,8.749,7.5,9,7.5
		c0.148,0,0.292,0.044,0.416,0.126l2.25,1.5c0.344,0.229,0.437,0.696,0.208,1.04C11.735,10.375,11.501,10.5,11.25,10.5z"/>
</g>
</svg>
