<?xml version="1.0" encoding="utf-8"?>
<!-- Generator: Adobe Illustrator 22.1.0, SVG Export Plug-In . SVG Version: 6.00 Build 0)  -->
<svg version="1.1" id="Regular" xmlns="http://www.w3.org/2000/svg" xmlns:xlink="http://www.w3.org/1999/xlink" x="0px" y="0px"
	 viewBox="0 0 24 24" style="enable-background:new 0 0 24 24;" xml:space="preserve">
<title>amphibian-chameleon-1</title>
<g>
	<path d="M14.308,7.5c-0.148,0-0.292-0.044-0.416-0.126l-2.25-1.5c-0.171-0.114-0.289-0.296-0.324-0.5
		C11.312,5.336,10.623,1.5,8.308,1.5c-2.322,0-3.004,3.835-3.01,3.874c-0.034,0.203-0.152,0.386-0.324,0.5l-2.25,1.5
		C2.6,7.457,2.456,7.5,2.308,7.5l0,0c-0.251,0-0.485-0.125-0.624-0.334C1.573,6.999,1.533,6.799,1.573,6.603
		c0.039-0.196,0.153-0.366,0.319-0.477l1.992-1.328C4.129,3.711,5.195,0,8.308,0s4.178,3.71,4.424,4.798l1.992,1.328
		c0.167,0.111,0.28,0.28,0.32,0.477c0.039,0.196,0,0.396-0.112,0.563C14.793,7.375,14.559,7.5,14.308,7.5z"/>
	<path d="M3.058,10.5c-0.2,0-0.389-0.078-0.53-0.22c-0.142-0.141-0.22-0.33-0.22-0.53s0.078-0.389,0.22-0.53l1.5-1.5
		c0.142-0.142,0.33-0.22,0.53-0.22s0.389,0.078,0.53,0.22c0.142,0.141,0.22,0.33,0.22,0.53S5.23,8.639,5.088,8.78l-1.5,1.5
		C3.447,10.422,3.258,10.5,3.058,10.5z"/>
	<path d="M13.558,10.5c-0.2,0-0.389-0.078-0.53-0.22l-1.5-1.5c-0.142-0.141-0.22-0.33-0.22-0.53s0.078-0.389,0.22-0.53
		c0.141-0.142,0.33-0.22,0.53-0.22c0.2,0,0.389,0.078,0.53,0.22l1.5,1.5c0.142,0.141,0.22,0.33,0.22,0.53s-0.078,0.389-0.22,0.53
		S13.758,10.5,13.558,10.5z"/>
	<path d="M11.047,24.014c-0.177,0-0.354-0.005-0.532-0.016c0,0-0.001,0-0.002,0c-4.251,0-6.85-1.92-7.361-5.422
		c-0.29,0.098-0.595,0.149-0.902,0.149l-0.067-0.001c-0.754-0.017-1.458-0.327-1.979-0.874c-0.138-0.145-0.212-0.335-0.208-0.535
		c0.005-0.2,0.087-0.387,0.232-0.525c0.14-0.134,0.324-0.208,0.518-0.208c0.204,0,0.402,0.085,0.542,0.232
		c0.245,0.256,0.575,0.402,0.93,0.41c0,0,0,0,0,0c0.317,0,0.605-0.096,0.838-0.274c-0.005-0.73,0.026-1.462,0.094-2.184
		c-0.281,0.09-0.575,0.136-0.873,0.136l-0.061,0c-0.77-0.017-1.483-0.331-2.012-0.885c-0.286-0.299-0.275-0.774,0.023-1.06
		c0.14-0.135,0.325-0.208,0.519-0.208c0.203,0,0.401,0.084,0.542,0.231c0.253,0.264,0.593,0.414,0.958,0.422l0.044,0.001
		c0.345,0,0.676-0.135,0.932-0.38c0.083-0.08,0.158-0.174,0.222-0.28c0.113-0.589,0.245-1.159,0.394-1.694
		c0.089-0.323,0.386-0.55,0.722-0.55c0.068,0,0.135,0.009,0.201,0.027c0.193,0.053,0.354,0.179,0.452,0.353
		c0.099,0.174,0.123,0.377,0.07,0.57c-0.514,1.852-0.757,3.768-0.724,5.696c0.01,0.065,0.011,0.131,0.004,0.196
		c0.04,3.422,2.058,5.157,5.997,5.157c0.171,0.009,0.32,0.013,0.469,0.013c3.143,0,5.924-1.881,7.085-4.791
		c1.364-3.409,0.741-5.468,0.734-5.488c-0.13-0.39,0.083-0.815,0.475-0.946c0.077-0.026,0.156-0.039,0.237-0.039
		c0.323,0,0.609,0.206,0.711,0.513c0.034,0.102,0.82,2.553-0.765,6.515C18.115,21.762,14.795,24.014,11.047,24.014L11.047,24.014z"
		/>
	<path d="M19.558,23.25c-0.2,0-0.389-0.078-0.53-0.22s-0.22-0.33-0.22-0.53s0.078-0.389,0.22-0.53
		c0.991-0.991,2.357-3.364,3.049-5.98c0.442-1.672,0.927-4.734-0.799-6.459c-0.416-0.416-0.881-0.618-1.422-0.618
		c-1.381,0-2.755,1.355-2.768,1.369c-0.142,0.141-0.33,0.219-0.53,0.219c-0.201,0-0.389-0.078-0.531-0.22
		c-0.292-0.293-0.292-0.768,0-1.06c0.871-0.871,2.339-1.801,3.85-1.801c0.935,0,1.763,0.354,2.46,1.051
		c1.673,1.672,2.095,4.479,1.189,7.903c-0.796,3.007-2.341,5.559-3.439,6.657C19.947,23.172,19.758,23.25,19.558,23.25z"/>
	<path d="M12.058,20.25c-0.096,0-0.19-0.018-0.279-0.054c-0.186-0.074-0.332-0.217-0.41-0.401s-0.081-0.388-0.007-0.574
		c1.374-3.435-0.001-7.692-0.015-7.735c-0.063-0.189-0.049-0.393,0.041-0.572s0.244-0.313,0.434-0.376
		c0.077-0.026,0.157-0.038,0.237-0.038c0.324,0,0.609,0.206,0.712,0.513c0.027,0.081,0.263,0.805,0.456,1.894
		c0.347,0.305,0.689,0.479,0.996,0.506c0.028,0.002,0.056,0.003,0.084,0.003c0.307,0,0.613-0.15,0.909-0.447
		c0.142-0.142,0.33-0.22,0.53-0.22s0.389,0.078,0.53,0.22s0.22,0.33,0.22,0.53s-0.078,0.389-0.22,0.53
		c-0.58,0.58-1.261,0.887-1.969,0.887c-0.072,0-0.144-0.003-0.216-0.01c-0.214-0.019-0.428-0.065-0.641-0.139
		c0.047,0.757,0.037,1.49-0.031,2.186c0.229,0.187,0.521,0.292,0.821,0.292c0.293,0,0.569-0.096,0.799-0.277
		c0.054-0.042,0.105-0.09,0.153-0.143c0.141-0.155,0.343-0.244,0.553-0.244c0.188,0,0.367,0.07,0.506,0.197
		c0.305,0.279,0.327,0.754,0.048,1.059c-0.101,0.11-0.212,0.214-0.332,0.308c-0.497,0.393-1.095,0.6-1.728,0.6
		c-0.375,0-0.744-0.075-1.086-0.221c-0.108,0.439-0.241,0.859-0.398,1.252C12.64,20.065,12.367,20.25,12.058,20.25z"/>
	<path d="M6.745,6.75c-0.414,0-0.75-0.336-0.75-0.75V5.25c0-0.414,0.336-0.75,0.75-0.75s0.75,0.336,0.75,0.75V6
		C7.495,6.414,7.159,6.75,6.745,6.75z"/>
	<path d="M9.745,6.75c-0.414,0-0.75-0.336-0.75-0.75V5.25c0-0.414,0.336-0.75,0.75-0.75s0.75,0.336,0.75,0.75V6
		C10.495,6.414,10.159,6.75,9.745,6.75z"/>
</g>
</svg>
