<?xml version="1.0" encoding="utf-8"?>
<!-- Generator: Adobe Illustrator 22.1.0, SVG Export Plug-In . SVG Version: 6.00 Build 0)  -->
<svg version="1.1" id="Regular" xmlns="http://www.w3.org/2000/svg" xmlns:xlink="http://www.w3.org/1999/xlink" x="0px" y="0px"
	 viewBox="0 0 24 24" style="enable-background:new 0 0 24 24;" xml:space="preserve">
<title>amphibian-frog</title>
<g>
	<path d="M1.293,17.249c-0.103,0-0.203-0.021-0.297-0.062c-0.186-0.081-0.334-0.236-0.405-0.426
		c-0.391-1.048-0.59-2.145-0.589-3.263c0.01-1.791,0.545-3.588,1.512-5.1C0.189,7.142-0.327,5.245,0.199,3.472
		c0.45-1.568,1.655-2.789,3.223-3.261C3.601,0.156,3.79,0.109,3.98,0.074C4.275,0.02,4.575-0.008,4.872-0.008
		c0.987,0,1.942,0.299,2.762,0.865c0.849,0.585,1.489,1.424,1.83,2.386c0.833-0.16,1.685-0.24,2.537-0.24
		c0.852,0,1.705,0.081,2.538,0.24c0.69-1.952,2.516-3.25,4.603-3.25c0.488,0,0.974,0.074,1.444,0.22
		c1.563,0.471,2.767,1.692,3.219,3.266c0.525,1.768,0.009,3.664-1.316,4.921c0.967,1.511,1.502,3.307,1.512,5.095
		c0,1.121-0.198,2.22-0.591,3.268c-0.071,0.19-0.219,0.345-0.405,0.426c-0.094,0.041-0.195,0.061-0.297,0.061
		c-0.101,0-0.198-0.02-0.291-0.059l-9.545-4.011c-0.275-0.116-0.569-0.174-0.871-0.174c-0.303,0-0.596,0.059-0.872,0.174
		l-9.546,4.011C1.491,17.229,1.393,17.249,1.293,17.249z M12.001,11.506c0.504,0,0.993,0.098,1.453,0.291l8.79,3.694
		c0.171-0.649,0.258-1.317,0.258-1.991c-0.01-1.716-0.586-3.417-1.623-4.789c-0.122-0.162-0.174-0.37-0.142-0.571
		c0.032-0.201,0.146-0.382,0.314-0.498c1.203-0.835,1.731-2.339,1.315-3.743c-0.312-1.086-1.14-1.927-2.217-2.251
		c-0.329-0.102-0.666-0.153-1.005-0.153c-1.492,0-2.792,0.956-3.233,2.38C15.871,4,15.838,4.132,15.813,4.266
		c-0.037,0.202-0.158,0.382-0.332,0.494C15.361,4.838,15.22,4.88,15.076,4.88c-0.061,0-0.122-0.008-0.182-0.022
		c-0.942-0.235-1.915-0.354-2.893-0.354c-0.978,0-1.951,0.119-2.893,0.354c-0.06,0.015-0.121,0.022-0.182,0.022
		c-0.144,0-0.285-0.041-0.406-0.119C8.347,4.648,8.226,4.468,8.189,4.265c-0.163-0.888-0.663-1.66-1.406-2.173
		C6.214,1.7,5.553,1.493,4.87,1.493c-0.206,0-0.414,0.019-0.619,0.057C4.119,1.574,3.987,1.606,3.86,1.646
		C2.779,1.972,1.949,2.811,1.639,3.892c-0.418,1.41,0.11,2.915,1.314,3.75C3.119,7.758,3.234,7.939,3.266,8.14
		c0.032,0.2-0.019,0.408-0.142,0.57c-1.036,1.372-1.613,3.074-1.623,4.793c0,0.672,0.086,1.338,0.257,1.987l8.79-3.693
		C11.009,11.604,11.497,11.506,12.001,11.506z"/>
	<path d="M12.235,24.002c-0.083,0-0.166-0.001-0.249-0.002c-0.066,0.001-0.145,0.002-0.225,0.002c-3.809,0-7.486-1.791-9.834-4.792
		c-0.124-0.158-0.178-0.354-0.154-0.553c0.024-0.199,0.125-0.376,0.282-0.5c0.132-0.103,0.296-0.159,0.462-0.159
		c0.232,0,0.448,0.105,0.591,0.287c2.067,2.641,5.291,4.218,8.624,4.218c0.084,0,0.168-0.001,0.252-0.003
		c0.099,0.002,0.179,0.003,0.26,0.003c3.348,0,6.58-1.576,8.646-4.215c0.143-0.183,0.358-0.288,0.591-0.288
		c0.167,0,0.331,0.057,0.462,0.16c0.157,0.123,0.258,0.301,0.282,0.5s-0.031,0.395-0.154,0.553
		C19.725,22.211,16.047,24.002,12.235,24.002z"/>
	<path d="M19.126,7.124c-1.241,0-2.25-1.009-2.25-2.25s1.009-2.25,2.25-2.25s2.25,1.009,2.25,2.25S20.367,7.124,19.126,7.124z
		 M19.126,4.124c-0.414,0-0.75,0.336-0.75,0.75s0.336,0.75,0.75,0.75s0.75-0.336,0.75-0.75S19.54,4.124,19.126,4.124z"/>
	<path d="M4.876,7.124c-1.241,0-2.25-1.009-2.25-2.25s1.009-2.25,2.25-2.25s2.25,1.009,2.25,2.25S6.117,7.124,4.876,7.124z
		 M4.876,4.124c-0.414,0-0.75,0.336-0.75,0.75s0.336,0.75,0.75,0.75s0.75-0.336,0.75-0.75S5.29,4.124,4.876,4.124z"/>
</g>
</svg>
