<?xml version="1.0" encoding="utf-8"?>
<!-- Generator: Adobe Illustrator 22.1.0, SVG Export Plug-In . SVG Version: 6.00 Build 0)  -->
<svg version="1.1" id="Regular" xmlns="http://www.w3.org/2000/svg" xmlns:xlink="http://www.w3.org/1999/xlink" x="0px" y="0px"
	 viewBox="0 0 24 24" style="enable-background:new 0 0 24 24;" xml:space="preserve">
<title>amphibian-chameleon</title>
<g>
	<path d="M18,21.25c-1.348,0-2.412-0.59-2.919-1.619c-0.503-1.022-0.363-2.289,0.359-3.228c0.607-0.79,1.532-1.225,2.604-1.225
		c0.277,0,0.564,0.029,0.853,0.087c0.197,0.039,0.366,0.153,0.477,0.319c0.111,0.167,0.15,0.367,0.111,0.563
		c-0.07,0.349-0.378,0.603-0.733,0.603c-0.051,0-0.103-0.005-0.153-0.016c-0.195-0.039-0.387-0.059-0.566-0.059
		c-0.753,0-1.179,0.349-1.404,0.642c-0.37,0.482-0.452,1.145-0.202,1.651c0.249,0.504,0.807,0.782,1.573,0.782
		c2.053,0,4.5-1.041,4.5-6c-0.025-4.11-3.391-7.475-7.504-7.5c-4.728,0-6.216,1.281-6.23,1.294C8.63,7.674,8.445,7.748,8.25,7.748
		c-0.095,0-0.187-0.018-0.275-0.052C7.703,7.588,7.517,7.331,7.501,7.042c-0.035-0.62-0.36-1.174-0.878-1.505
		c-3.288,0.681-4.729,3.64-5.083,4.498C1.786,10.739,2.934,13,7.5,13c0.305,0,0.577,0.182,0.693,0.463
		c0.117,0.281,0.053,0.602-0.163,0.817l-2.47,2.469h2.536c1.204-0.531,3.153-1.725,3.153-3c0.009-0.401-0.133-0.772-0.401-1.052
		c-0.267-0.28-0.628-0.439-1.015-0.448c0,0-0.071,0-0.071,0c-0.426,0-0.753-0.322-0.762-0.734c-0.004-0.2,0.069-0.39,0.208-0.535
		c0.139-0.145,0.325-0.227,0.525-0.231l0.067-0.001l0.068,0.001c1.333,0.031,2.482,0.976,2.795,2.25h3.087
		c0.414,0,0.75,0.336,0.75,0.75s-0.336,0.75-0.75,0.75h-3.103c-0.247,0.905-0.918,1.662-1.648,2.25H13.5
		c0.414,0,0.75,0.336,0.75,0.75s-0.336,0.75-0.75,0.75H0.75C0.336,18.25,0,17.914,0,17.5s0.336-0.75,0.75-0.75h2.689l2.355-2.355
		c-5.003-0.648-5.749-4.095-5.78-4.248c-0.026-0.127-0.017-0.26,0.024-0.384C0.105,9.562,1.735,4.825,6.627,4.01
		C6.668,4.003,6.709,4,6.75,4c0.112,0,0.224,0.026,0.326,0.074c0.753,0.364,1.341,0.988,1.661,1.749c1-0.472,2.93-1.073,6.263-1.073
		c4.934,0.03,8.97,4.065,9,8.996C24,18.516,21.813,21.25,18,21.25z"/>
	<path d="M5.625,10c-0.044,0-0.088-0.004-0.131-0.012c-0.513-0.06-0.922-0.47-0.982-0.982C4.504,8.963,4.5,8.919,4.5,8.875
		s0.004-0.088,0.012-0.131c0.06-0.513,0.47-0.922,0.982-0.982C5.537,7.754,5.581,7.75,5.625,7.75s0.088,0.004,0.131,0.012
		c0.513,0.06,0.922,0.47,0.982,0.982C6.746,8.787,6.75,8.831,6.75,8.875S6.746,8.963,6.738,9.006
		c-0.06,0.513-0.47,0.922-0.982,0.982C5.713,9.996,5.669,10,5.625,10z"/>
</g>
</svg>
