<?xml version="1.0" encoding="utf-8"?>
<!-- Generator: Adobe Illustrator 22.1.0, SVG Export Plug-In . SVG Version: 6.00 Build 0)  -->
<svg version="1.1" id="Regular" xmlns="http://www.w3.org/2000/svg" xmlns:xlink="http://www.w3.org/1999/xlink" x="0px" y="0px"
	 viewBox="0 0 24 24" style="enable-background:new 0 0 24 24;" xml:space="preserve">
<title>amusement-park-strength-meter</title>
<g>
	<path d="M0.736,24c-0.414,0-0.75-0.336-0.75-0.75V4.5c0-1.202,0.469-2.332,1.319-3.182c0.85-0.849,1.979-1.317,3.181-1.317
		C6.967,0.002,8.985,2.02,8.986,4.5v18h3.915l0.466-1.864c0.167-0.669,0.765-1.136,1.455-1.136h4.078
		c0.689,0.001,1.288,0.468,1.456,1.135l0.466,1.865h2.416c0.414,0,0.75,0.336,0.75,0.75S23.65,24,23.236,24H0.736z M19.275,22.5
		L18.9,21h-4.079l-0.375,1.5H19.275z M7.486,22.5v-18c0-1.653-1.346-2.998-2.999-2.999c-0.802,0-1.555,0.312-2.122,0.878
		C1.799,2.946,1.487,3.699,1.486,4.5v18h2.25v-3h-0.75c-0.414,0-0.75-0.336-0.75-0.75S2.573,18,2.986,18h0.75v-3.75h-0.75
		c-0.414,0-0.75-0.336-0.75-0.75s0.336-0.75,0.75-0.75h0.75V9h-0.75c-0.414,0-0.75-0.336-0.75-0.75S2.573,7.5,2.986,7.5h0.75V5.25
		c0-0.414,0.336-0.75,0.75-0.75s0.75,0.336,0.75,0.75V7.5h0.75c0.414,0,0.75,0.336,0.75,0.75S6.4,9,5.986,9h-0.75v3.75h0.75
		c0.414,0,0.75,0.336,0.75,0.75s-0.336,0.75-0.75,0.75h-0.75V18h0.75c0.414,0,0.75,0.336,0.75,0.75S6.4,19.5,5.986,19.5h-0.75v3
		H7.486z"/>
	<path d="M16.125,18.85c-0.394,0-0.769-0.188-1.003-0.503l-2.988-4.009c-0.412-0.553-0.297-1.338,0.255-1.75l2.806-2.091
		c0.217-0.162,0.475-0.248,0.746-0.248c0.394,0,0.769,0.188,1.003,0.503l1.046,1.403l4.811-3.585
		c0.131-0.097,0.285-0.149,0.448-0.149c0.236,0,0.461,0.113,0.602,0.302c0.247,0.332,0.178,0.802-0.153,1.05l-4.811,3.586
		l1.046,1.403c0.2,0.268,0.283,0.597,0.235,0.928c-0.049,0.33-0.222,0.622-0.49,0.821l-2.806,2.092
		C16.654,18.764,16.396,18.85,16.125,18.85z M16.175,17.25l2.406-1.793l-2.689-3.608l-2.405,1.793L16.175,17.25z"/>
	<path d="M14.237,9c-0.286,0-0.543-0.159-0.671-0.415l-0.75-1.5c-0.185-0.37-0.034-0.821,0.335-1.006
		C13.255,6.027,13.371,6,13.486,6c0.286,0,0.543,0.159,0.671,0.415l0.75,1.5c0.185,0.37,0.034,0.821-0.335,1.006
		C14.467,8.973,14.352,9,14.237,9z"/>
	<path d="M18.736,9c-0.115,0-0.231-0.027-0.334-0.079c-0.37-0.185-0.521-0.636-0.336-1.006l0.75-1.5C18.944,6.159,19.201,6,19.487,6
		c0.115,0,0.231,0.027,0.334,0.079c0.37,0.185,0.521,0.636,0.336,1.006l-0.75,1.5C19.279,8.841,19.022,9,18.736,9z"/>
</g>
</svg>
