<?xml version="1.0" encoding="utf-8"?>
<!-- Generator: Adobe Illustrator 22.1.0, SVG Export Plug-In . SVG Version: 6.00 Build 0)  -->
<svg version="1.1" id="Regular" xmlns="http://www.w3.org/2000/svg" xmlns:xlink="http://www.w3.org/1999/xlink" x="0px" y="0px"
	 viewBox="0 0 24 24" style="enable-background:new 0 0 24 24;" xml:space="preserve">
<title>amusement-park-castle</title>
<g>
	<path d="M14.25,24c-0.414,0-0.75-0.336-0.75-0.75v-1.5c0-0.827-0.673-1.5-1.5-1.5s-1.5,0.673-1.5,1.5v1.5
		c0,0.414-0.336,0.75-0.75,0.75h-9C0.336,24,0,23.664,0,23.25V16.5c0-0.414,0.336-0.75,0.75-0.75V12
		c0-0.011,0.001-0.025,0.002-0.038c0.001-0.02,0.004-0.042,0.007-0.063c0.004-0.03,0.008-0.051,0.012-0.071
		c0.005-0.022,0.012-0.044,0.019-0.065c0.007-0.021,0.015-0.042,0.023-0.062c0.005-0.013,0.01-0.026,0.016-0.036L3,7.323V4.5
		c0-0.414,0.336-0.75,0.75-0.75S4.5,4.086,4.5,4.5v2.823l2.171,4.342c0.005,0.011,0.011,0.024,0.016,0.037
		c0.009,0.02,0.016,0.04,0.023,0.061c0.008,0.022,0.014,0.043,0.019,0.065c0.005,0.021,0.008,0.042,0.011,0.063
		c0.004,0.028,0.006,0.05,0.008,0.071C6.749,11.974,6.75,11.988,6.75,12v3.75h1.5v-6c0-0.011,0.001-0.025,0.002-0.038
		c0.001-0.02,0.004-0.042,0.007-0.063c0.004-0.03,0.008-0.051,0.012-0.071C8.276,9.555,8.283,9.534,8.29,9.513
		c0.007-0.021,0.015-0.042,0.023-0.062c0.005-0.013,0.01-0.026,0.016-0.036l2.921-5.842V0.75C11.25,0.336,11.586,0,12,0
		s0.75,0.336,0.75,0.75v2.823l2.921,5.842c0.005,0.011,0.011,0.024,0.016,0.037c0.004,0.007,0.012,0.03,0.02,0.053
		c0.012,0.034,0.018,0.054,0.022,0.074c0.005,0.024,0.008,0.042,0.011,0.06c0.005,0.034,0.007,0.056,0.008,0.075
		c0.001,0.013,0.002,0.026,0.002,0.037v6h1.5V12c0-0.012,0.001-0.025,0.002-0.039c0-0.01,0.003-0.033,0.006-0.055
		c0.005-0.037,0.008-0.055,0.012-0.073c0.006-0.025,0.012-0.044,0.018-0.064c0.009-0.027,0.017-0.048,0.024-0.066
		c0.005-0.014,0.011-0.028,0.017-0.039L19.5,7.323V4.5c0-0.414,0.336-0.75,0.75-0.75S21,4.086,21,4.5v2.823l2.171,4.342
		c0.005,0.011,0.011,0.024,0.016,0.037c0.004,0.007,0.012,0.03,0.02,0.053c0.012,0.034,0.018,0.054,0.022,0.074
		c0.005,0.024,0.008,0.042,0.011,0.06c0.005,0.034,0.007,0.056,0.008,0.075c0.001,0.013,0.002,0.026,0.002,0.037v3.75
		c0.414,0,0.75,0.336,0.75,0.75v6.75c0,0.414-0.336,0.75-0.75,0.75H14.25z M22.5,22.5V21h-7.596C14.968,21.244,15,21.495,15,21.75
		v0.75H22.5z M9,22.5v-0.75c0-0.255,0.032-0.506,0.096-0.75H1.5v1.5H9z M22.5,19.5v-2.25h-21v2.25h8.519
		c0.549-0.485,1.247-0.75,1.981-0.75c0.734,0,1.432,0.265,1.981,0.75H22.5z M21.75,15.75v-3.573l-1.5-3l-1.5,3v3.573H21.75z
		 M14.25,15.75V10.5h-4.5v5.25H14.25z M5.25,15.75v-3.573l-1.5-3l-1.5,3v3.573H5.25z M13.786,9L12,5.427L10.214,9H13.786z"/>
</g>
</svg>
