<?xml version="1.0" encoding="utf-8"?>
<!-- Generator: Adobe Illustrator 22.1.0, SVG Export Plug-In . SVG Version: 6.00 Build 0)  -->
<svg version="1.1" id="Regular" xmlns="http://www.w3.org/2000/svg" xmlns:xlink="http://www.w3.org/1999/xlink" x="0px" y="0px"
	 viewBox="0 0 24 24" style="enable-background:new 0 0 24 24;" xml:space="preserve">
<title>amusement-park-ferris-wheel</title>
<g>
	<path d="M8.672,24c-0.219,0-0.43-0.046-0.628-0.138c-0.744-0.344-1.076-1.231-0.74-1.978l0.983-2.438
		c-0.931-0.424-1.797-1.013-2.534-1.724C5.36,17.905,4.932,18,4.5,18c-1.654,0-3-1.346-3-3c0-1.109,0.607-2.115,1.569-2.636
		c-0.092-0.74-0.092-1.487,0-2.227C2.107,9.614,1.5,8.609,1.5,7.5c0-1.654,1.346-3,3-3c0.432,0,0.86,0.095,1.254,0.278
		C6.68,3.884,7.796,3.194,9.009,2.765C9.129,1.22,10.425,0,12,0s2.871,1.22,2.991,2.765c1.213,0.429,2.329,1.119,3.255,2.012
		C18.64,4.595,19.068,4.5,19.5,4.5c1.654,0,3,1.346,3,3c0,1.108-0.607,2.114-1.569,2.636c0.091,0.738,0.091,1.485-0.001,2.227
		c0.962,0.522,1.57,1.528,1.57,2.637c0,1.654-1.346,3-3,3c-0.432,0-0.86-0.095-1.253-0.277c-0.737,0.711-1.604,1.3-2.535,1.724
		l0.992,2.458c0.077,0.163,0.124,0.381,0.124,0.595c0,0.827-0.673,1.5-1.5,1.5H8.672z M8.687,22.467
		c-0.002,0.005-0.011,0.027-0.014,0.032l6.655,0.001L12,14.253L8.687,22.467z M15.151,18.054c0.702-0.327,1.358-0.766,1.928-1.289
		C16.703,16.253,16.5,15.639,16.5,15c0-1.642,1.325-2.98,2.962-3c0.05-0.5,0.051-1.003,0.002-1.5c-1.638-0.019-2.964-1.358-2.964-3
		c0-0.638,0.203-1.252,0.578-1.764c-0.685-0.631-1.49-1.134-2.356-1.472C14.234,5.316,13.185,6,12,6S9.766,5.316,9.279,4.264
		C8.412,4.603,7.608,5.105,6.922,5.736C7.297,6.247,7.5,6.862,7.5,7.5c0,1.642-1.326,2.98-2.964,3c-0.05,0.499-0.05,1.001,0,1.5
		C6.174,12.02,7.5,13.358,7.5,15c0,0.638-0.203,1.252-0.578,1.764c0.57,0.524,1.226,0.963,1.927,1.29l1.689-4.187
		C9.592,13.342,9,12.352,9,11.25c0-1.654,1.346-3,3-3c1.654,0,3,1.346,3,3c0,1.102-0.593,2.093-1.539,2.618L15.151,18.054z
		 M19.5,13.5c-0.827,0-1.5,0.673-1.5,1.5s0.673,1.5,1.5,1.5S21,15.827,21,15S20.327,13.5,19.5,13.5z M4.5,13.5
		C3.673,13.5,3,14.173,3,15s0.673,1.5,1.5,1.5S6,15.827,6,15S5.327,13.5,4.5,13.5z M12,9.75c-0.827,0-1.5,0.673-1.5,1.5
		s0.673,1.5,1.5,1.5s1.5-0.673,1.5-1.5S12.827,9.75,12,9.75z M19.5,6C18.673,6,18,6.673,18,7.5S18.673,9,19.5,9S21,8.327,21,7.5
		S20.327,6,19.5,6z M4.5,6C3.673,6,3,6.673,3,7.5S3.673,9,4.5,9S6,8.327,6,7.5S5.327,6,4.5,6z M12,1.5c-0.827,0-1.5,0.673-1.5,1.5
		s0.673,1.5,1.5,1.5s1.5-0.673,1.5-1.5S12.827,1.5,12,1.5z"/>
</g>
</svg>
