<?xml version="1.0" encoding="utf-8"?>
<!-- Generator: Adobe Illustrator 22.1.0, SVG Export Plug-In . SVG Version: 6.00 Build 0)  -->
<svg version="1.1" id="Regular" xmlns="http://www.w3.org/2000/svg" xmlns:xlink="http://www.w3.org/1999/xlink" x="0px" y="0px"
	 viewBox="0 0 24 24" style="enable-background:new 0 0 24 24;" xml:space="preserve">
<title>amusement-park-ferris-wheel-1</title>
<g>
	<path d="M7.754,24c-0.408,0-0.808-0.111-1.158-0.321c-0.515-0.309-0.878-0.801-1.024-1.384s-0.056-1.188,0.253-1.703l1.549-2.581
		c-0.207-0.155-0.406-0.32-0.596-0.495C6.327,18.622,5.231,19.394,4,19.394c-1.654,0-3-1.346-3-3s1.346-3,3-3
		c0.167,0,0.332,0.014,0.495,0.041c-0.093-0.473-0.14-0.954-0.14-1.435c0-0.535,0.057-1.066,0.169-1.585
		c-0.143,0.021-0.287,0.032-0.433,0.032c-1.654,0-3-1.346-3-3s1.346-3,3-3c1.262,0,2.368,0.796,2.802,1.936
		c0.766-0.678,1.656-1.19,2.623-1.507C9.09,4.348,8.855,3.692,8.855,3c0-1.654,1.346-3,3-3c1.654,0,3,1.346,3,3
		c0,0.692-0.236,1.348-0.661,1.875c0.967,0.318,1.857,0.829,2.622,1.506c0.434-1.139,1.54-1.935,2.802-1.935c1.654,0,3,1.346,3,3
		s-1.346,3-3,3c-0.145,0-0.289-0.011-0.431-0.032c0.112,0.519,0.168,1.049,0.168,1.585c0,0.481-0.047,0.961-0.139,1.435
		c0.162-0.027,0.327-0.041,0.493-0.041c1.654,0,3,1.346,3,3s-1.346,3-3,3c-1.23,0-2.326-0.772-2.778-1.878
		c-0.19,0.175-0.389,0.34-0.595,0.495l1.547,2.581c0.21,0.35,0.321,0.75,0.321,1.158c0,1.241-1.009,2.25-2.25,2.25H7.754z
		 M7.111,21.364c-0.213,0.355-0.097,0.816,0.257,1.029c0.116,0.07,0.25,0.107,0.386,0.107h8.2c0.413,0,0.75-0.336,0.75-0.75
		c0-0.136-0.037-0.27-0.107-0.386l-1.547-2.58c-0.995,0.47-2.092,0.717-3.195,0.717c-1.103,0-2.2-0.247-3.195-0.717L7.111,21.364z
		 M7.325,15.928c0.972,1.12,2.316,1.84,3.78,2.024v-4.549L7.325,15.928z M12.605,17.952c1.464-0.184,2.808-0.903,3.78-2.023
		l-3.78-2.525V17.952z M19.709,14.894c-0.827,0-1.5,0.673-1.5,1.5s0.673,1.5,1.5,1.5s1.5-0.673,1.5-1.5S20.536,14.894,19.709,14.894
		z M4,14.894c-0.827,0-1.5,0.673-1.5,1.5s0.673,1.5,1.5,1.5s1.5-0.673,1.5-1.5S4.827,14.894,4,14.894z M17.219,14.683
		c0.417-0.831,0.635-1.75,0.635-2.683c0-0.932-0.219-1.852-0.635-2.683L13.205,12L17.219,14.683z M6.49,9.318
		c-0.417,0.83-0.635,1.75-0.635,2.682c0,0.932,0.219,1.852,0.635,2.682L10.505,12L6.49,9.318z M11.105,10.597v-4.55
		c-1.464,0.184-2.808,0.903-3.78,2.024L11.105,10.597z M12.605,10.597l3.78-2.526c-0.972-1.12-2.316-1.84-3.78-2.023V10.597z
		 M19.618,5.947c-0.827,0-1.5,0.673-1.5,1.5s0.673,1.5,1.5,1.5s1.5-0.673,1.5-1.5S20.445,5.947,19.618,5.947z M4.091,5.947
		c-0.827,0-1.5,0.673-1.5,1.5s0.673,1.5,1.5,1.5s1.5-0.673,1.5-1.5S4.918,5.947,4.091,5.947z M11.855,1.5
		c-0.827,0-1.5,0.673-1.5,1.5s0.673,1.5,1.5,1.5s1.5-0.673,1.5-1.5S12.682,1.5,11.855,1.5z"/>
</g>
</svg>
