<?xml version="1.0" encoding="utf-8"?>
<!-- Generator: Adobe Illustrator 22.1.0, SVG Export Plug-In . SVG Version: 6.00 Build 0)  -->
<svg version="1.1" id="Regular" xmlns="http://www.w3.org/2000/svg" xmlns:xlink="http://www.w3.org/1999/xlink" x="0px" y="0px"
	 viewBox="0 0 24 24" style="enable-background:new 0 0 24 24;" xml:space="preserve">
<title>amusement-park-balloon</title>
<g>
	<path d="M20.994,23.994c-0.426,0-0.841-0.09-1.234-0.268c-0.728-0.329-1.286-0.922-1.57-1.669l-1.165-2.856
		c-0.015-0.031-0.041-0.096-0.065-0.161c-0.056-0.15-0.099-0.305-0.129-0.462c-0.327,0.115-0.672,0.175-1.017,0.175
		c-0.049,0-0.098-0.001-0.146-0.004l-4.08,0.001c-0.03,0.002-0.075,0.003-0.121,0.003c-0.348,0-0.694-0.061-1.024-0.179
		c-0.032,0.17-0.079,0.337-0.14,0.499c-0.019,0.051-0.039,0.1-0.061,0.149l-1.16,2.845c-0.451,1.149-1.589,1.925-2.832,1.925
		c-0.375,0-0.744-0.069-1.097-0.206c-1.555-0.665-2.279-2.454-1.625-3.993l1.166-2.858c0.171-0.454,0.459-0.863,0.829-1.185
		c-0.641-0.565-1.023-1.387-1.023-2.25v-2.203c-0.385,0.155-0.798,0.235-1.218,0.235c-1.81,0-3.282-1.472-3.282-3.282
		s1.472-3.282,3.282-3.282c0.42,0,0.833,0.08,1.218,0.235V3.001c0-1.654,1.346-3,3-3s3,1.346,3,3v3c0,0.863-0.382,1.685-1.023,2.25
		c0.641,0.565,1.023,1.387,1.023,2.25v2.406c0.313-0.104,0.641-0.159,0.971-0.159c0.05,0,0.1,0.001,0.15,0.004l4.071-0.001
		c0.025-0.001,0.064-0.002,0.104-0.002c0.351,0,0.701,0.061,1.033,0.178c0.03-0.159,0.073-0.314,0.129-0.465
		c0.024-0.064,0.049-0.125,0.076-0.186l1.158-2.84c0.28-0.739,0.838-1.332,1.566-1.661c0.393-0.178,0.809-0.268,1.235-0.268
		c0.362,0,0.719,0.066,1.061,0.195c0.75,0.283,1.345,0.841,1.675,1.572c0.33,0.73,0.356,1.546,0.073,2.296
		c-0.018,0.047-0.038,0.097-0.059,0.146l-1.164,2.852c-0.167,0.452-0.45,0.861-0.818,1.184c0.371,0.325,0.653,0.734,0.827,1.206
		l1.162,2.846c0.013,0.027,0.033,0.078,0.053,0.13c0.282,0.749,0.257,1.564-0.074,2.294s-0.925,1.289-1.675,1.572
		C21.714,23.929,21.357,23.994,20.994,23.994z M7.495,16.512c-0.212,0-0.42,0.045-0.617,0.134c-0.365,0.165-0.644,0.462-0.786,0.838
		L4.914,20.37c-0.334,0.787,0.028,1.694,0.807,2.027c0.162,0.062,0.344,0.097,0.531,0.097c0.63,0,1.208-0.394,1.437-0.98
		l1.174-2.878c0.018-0.042,0.028-0.067,0.038-0.093c0.141-0.374,0.128-0.782-0.037-1.147c-0.165-0.365-0.463-0.644-0.838-0.786
		C7.854,16.545,7.675,16.512,7.495,16.512z M19.705,16.501c-0.157,0.007-0.309,0.037-0.451,0.09
		c-0.376,0.139-0.675,0.416-0.843,0.781c-0.168,0.365-0.184,0.772-0.045,1.147c0.011,0.032,0.024,0.062,0.037,0.091l1.18,2.894
		c0.149,0.394,0.428,0.691,0.793,0.856c0.197,0.089,0.405,0.134,0.617,0.134c0.18,0,0.359-0.033,0.531-0.098
		c0.375-0.141,0.672-0.421,0.837-0.786c0.165-0.366,0.179-0.774,0.037-1.148c-0.01-0.026-0.02-0.05-0.031-0.074l-1.178-2.886
		c-0.219-0.591-0.756-0.979-1.372-0.999c-0.01,0.002-0.028,0.002-0.046,0.002c-0.022,0-0.045-0.001-0.068-0.002V16.501z
		 M15.72,17.252c0.028,0.001,0.056,0.002,0.083,0.002c0.568,0,1.085-0.288,1.382-0.771c0.137-0.228,0.216-0.477,0.234-0.731
		c-0.06-0.844-0.761-1.502-1.606-1.502c-0.025,0-0.105,0.002-0.111,0.002h-4.114c-0.037-0.001-0.059-0.001-0.081-0.001
		c-0.862,0-1.577,0.658-1.636,1.501c0.059,0.844,0.766,1.502,1.617,1.502c0.022,0,0.045,0,0.068-0.001l4.146-0.001
		C15.708,17.251,15.714,17.251,15.72,17.252z M7.502,9.001c-0.827,0-1.5,0.673-1.5,1.5v3c0,0.827,0.673,1.5,1.5,1.5
		s1.5-0.673,1.5-1.5v-3C9.002,9.674,8.329,9.001,7.502,9.001z M20.995,9.008c-0.212,0-0.42,0.045-0.617,0.134
		c-0.365,0.165-0.644,0.463-0.786,0.838l-1.177,2.887c-0.023,0.052-0.036,0.084-0.048,0.116c-0.139,0.375-0.123,0.782,0.045,1.147
		c0.168,0.365,0.467,0.642,0.842,0.781c0.132,0.049,0.269,0.079,0.408,0.09c0.039-0.001,0.079-0.002,0.118-0.002
		c0.034,0,0.068,0.001,0.102,0.002c0.182-0.013,0.357-0.058,0.521-0.133c0.364-0.168,0.641-0.467,0.78-0.843
		c0,0,1.208-2.958,1.218-2.984c0.292-0.774-0.1-1.642-0.874-1.934C21.354,9.041,21.175,9.008,20.995,9.008z M3.284,6.469
		c-0.983,0-1.782,0.799-1.782,1.782s0.799,1.782,1.782,1.782s1.782-0.799,1.782-1.782S4.266,6.469,3.284,6.469z M7.502,1.501
		c-0.827,0-1.5,0.673-1.5,1.5v3c0,0.827,0.673,1.5,1.5,1.5s1.5-0.673,1.5-1.5v-3C9.002,2.174,8.329,1.501,7.502,1.501z"/>
</g>
</svg>
