<?xml version="1.0" encoding="utf-8"?>
<!-- Generator: Adobe Illustrator 22.1.0, SVG Export Plug-In . SVG Version: 6.00 Build 0)  -->
<svg version="1.1" id="Regular" xmlns="http://www.w3.org/2000/svg" xmlns:xlink="http://www.w3.org/1999/xlink" x="0px" y="0px"
	 viewBox="0 0 24 24" style="enable-background:new 0 0 24 24;" xml:space="preserve">
<title>amusement-park-speed-machine</title>
<g>
	<path d="M1.125,16.5c-0.044,0-0.088-0.004-0.13-0.011c-0.513-0.06-0.923-0.47-0.983-0.982C0.004,15.463,0,15.419,0,15.375
		s0.004-0.088,0.011-0.131c0.06-0.513,0.47-0.922,0.983-0.983c0.042-0.007,0.086-0.011,0.13-0.011s0.088,0.004,0.13,0.011
		c0.513,0.061,0.923,0.47,0.983,0.983c0.008,0.043,0.011,0.087,0.011,0.131s-0.004,0.088-0.011,0.131
		c-0.06,0.513-0.47,0.922-0.983,0.982C1.213,16.496,1.169,16.5,1.125,16.5z"/>
	<path d="M1.125,11.25c-0.044,0-0.088-0.004-0.131-0.012c-0.513-0.06-0.922-0.47-0.982-0.982C0.004,10.213,0,10.169,0,10.125
		s0.004-0.088,0.012-0.131c0.06-0.513,0.47-0.922,0.982-0.982C1.037,9.004,1.081,9,1.125,9s0.088,0.004,0.131,0.012
		c0.513,0.06,0.922,0.47,0.982,0.982c0.008,0.043,0.012,0.087,0.012,0.131s-0.004,0.088-0.012,0.131
		c-0.06,0.513-0.47,0.922-0.982,0.982C1.213,11.246,1.169,11.25,1.125,11.25z"/>
	<path d="M1.125,6C1.081,6,1.037,5.996,0.994,5.988c-0.513-0.06-0.922-0.47-0.982-0.982C0.004,4.963,0,4.919,0,4.875
		s0.004-0.088,0.012-0.131c0.06-0.513,0.47-0.922,0.982-0.982C1.037,3.754,1.081,3.75,1.125,3.75s0.088,0.004,0.131,0.012
		c0.513,0.06,0.922,0.47,0.982,0.982C2.246,4.787,2.25,4.831,2.25,4.875S2.246,4.963,2.238,5.006
		c-0.06,0.513-0.47,0.922-0.982,0.982C1.213,5.996,1.169,6,1.125,6z"/>
	<path d="M22.875,16.5c-0.044,0-0.088-0.004-0.13-0.011c-0.513-0.06-0.923-0.47-0.983-0.983c-0.007-0.042-0.011-0.086-0.011-0.13
		s0.004-0.088,0.011-0.131c0.06-0.513,0.47-0.923,0.983-0.983c0.042-0.008,0.086-0.011,0.131-0.011s0.088,0.004,0.131,0.011
		c0.513,0.06,0.923,0.47,0.983,0.983C23.996,15.287,24,15.331,24,15.375s-0.004,0.088-0.011,0.131
		c-0.06,0.513-0.47,0.923-0.983,0.983C22.963,16.496,22.919,16.5,22.875,16.5z"/>
	<path d="M22.875,11.25c-0.044,0-0.088-0.004-0.131-0.011c-0.513-0.06-0.922-0.47-0.982-0.983c-0.008-0.042-0.011-0.086-0.011-0.13
		s0.004-0.088,0.011-0.13c0.06-0.513,0.47-0.923,0.982-0.983C22.787,9.004,22.831,9,22.875,9s0.088,0.004,0.131,0.011
		c0.513,0.06,0.922,0.47,0.983,0.983C23.996,10.037,24,10.081,24,10.125s-0.004,0.088-0.011,0.13
		c-0.061,0.513-0.47,0.923-0.983,0.983C22.963,11.246,22.919,11.25,22.875,11.25z"/>
	<path d="M22.875,6c-0.044,0-0.088-0.004-0.131-0.011c-0.513-0.06-0.922-0.47-0.982-0.983c-0.008-0.042-0.011-0.086-0.011-0.13
		s0.004-0.088,0.011-0.13c0.06-0.513,0.47-0.923,0.982-0.983c0.043-0.008,0.087-0.011,0.131-0.011s0.088,0.004,0.131,0.011
		c0.513,0.06,0.922,0.47,0.983,0.983C23.996,4.787,24,4.831,24,4.875s-0.004,0.088-0.011,0.13c-0.061,0.513-0.47,0.923-0.983,0.983
		C22.963,5.996,22.919,6,22.875,6z"/>
	<path d="M0.75,24C0.336,24,0,23.664,0,23.25v-1.5C0,19.682,1.682,18,3.75,18V1.5h-1.5C1.836,1.5,1.5,1.164,1.5,0.75S1.836,0,2.25,0
		h19.5c0.414,0,0.75,0.336,0.75,0.75S22.164,1.5,21.75,1.5h-1.5V18c2.068,0,3.75,1.682,3.75,3.75v1.5c0,0.414-0.336,0.75-0.75,0.75
		H0.75z M22.5,22.5v-0.75c0-1.241-1.009-2.25-2.25-2.25v3H22.5z M18.75,22.5v-21h-6v5.327c1.732,0.351,3,1.874,3,3.673v3.129
		c0.885,0.314,1.5,1.162,1.5,2.121c0,1.241-1.009,2.25-2.25,2.25h-2.25v4.5H18.75z M11.25,22.5V18H9c-1.241,0-2.25-1.009-2.25-2.25
		c0-0.96,0.615-1.808,1.5-2.121V10.5c0-1.799,1.268-3.323,3-3.673V1.5h-6v21H11.25z M3.75,22.5v-3c-1.241,0-2.25,1.009-2.25,2.25
		v0.75H3.75z M9,15c-0.414,0-0.75,0.336-0.75,0.75S8.586,16.5,9,16.5h6c0.414,0,0.75-0.336,0.75-0.75S15.414,15,15,15H9z
		 M14.25,13.5v-3c0-1.241-1.009-2.25-2.25-2.25c-1.241,0-2.25,1.009-2.25,2.25v3H14.25z"/>
</g>
</svg>
