<?xml version="1.0" encoding="utf-8"?>
<!-- Generator: Adobe Illustrator 22.1.0, SVG Export Plug-In . SVG Version: 6.00 Build 0)  -->
<svg version="1.1" id="Layer_1" xmlns="http://www.w3.org/2000/svg" xmlns:xlink="http://www.w3.org/1999/xlink" x="0px" y="0px"
	 viewBox="0 0 24 24" style="enable-background:new 0 0 24 24;" xml:space="preserve">
<title>analytics-pie-1</title>
<g>
	<path d="M13.5,11.25c-0.414,0-0.75-0.336-0.75-0.75v-9c0-0.414,0.336-0.75,0.75-0.75c5.376,0,9.75,4.374,9.75,9.75
		c0,0.414-0.336,0.75-0.75,0.75H13.5z M21.716,9.75c-0.359-3.929-3.537-7.107-7.466-7.466V9.75H21.716z"/>
	<path d="M10.5,23.25c-5.376,0-9.75-4.374-9.75-9.75s4.374-9.75,9.75-9.75c0.414,0,0.75,0.336,0.75,0.75v8.25h8.25
		c0.414,0,0.75,0.336,0.75,0.75C20.25,18.876,15.876,23.25,10.5,23.25z M9.75,5.284C5.514,5.663,2.25,9.2,2.25,13.5
		c0,4.549,3.701,8.25,8.25,8.25c4.3,0,7.837-3.264,8.216-7.5H10.5c-0.414,0-0.75-0.336-0.75-0.75V5.284z"/>
</g>
</svg>
