<?xml version="1.0" encoding="utf-8"?>
<!-- Generator: Adobe Illustrator 22.1.0, SVG Export Plug-In . SVG Version: 6.00 Build 0)  -->
<svg version="1.1" id="Layer_1" xmlns="http://www.w3.org/2000/svg" xmlns:xlink="http://www.w3.org/1999/xlink" x="0px" y="0px"
	 viewBox="0 0 24 24" style="enable-background:new 0 0 24 24;" xml:space="preserve">
<title>analytics-bars</title>
<g>
	<path d="M0.75,22.5C0.336,22.5,0,22.164,0,21.75S0.336,21,0.75,21H1.5v-9c0-0.827,0.673-1.5,1.5-1.5h3c0.827,0,1.5,0.673,1.5,1.5v9
		H9V3c0-0.827,0.673-1.5,1.5-1.5h3C14.327,1.5,15,2.173,15,3v18h1.5V7.5C16.5,6.673,17.173,6,18,6h3c0.827,0,1.5,0.673,1.5,1.5V21
		h0.75c0.414,0,0.75,0.336,0.75,0.75s-0.336,0.75-0.75,0.75H0.75z M21,21V7.5h-3L18,21H21z M13.5,21V3h-3l0,18H13.5z M6,21v-9H3l0,9
		H6z"/>
</g>
</svg>
