<?xml version="1.0" encoding="utf-8"?>
<!-- Generator: Adobe Illustrator 22.1.0, SVG Export Plug-In . SVG Version: 6.00 Build 0)  -->
<svg version="1.1" id="Layer_1" xmlns="http://www.w3.org/2000/svg" xmlns:xlink="http://www.w3.org/1999/xlink" x="0px" y="0px"
	 viewBox="0 0 24 24" style="enable-background:new 0 0 24 24;" xml:space="preserve">
<title>analytics-graph-line</title>
<g>
	<path d="M12,24C5.383,24,0,18.617,0,12C0,5.383,5.383,0,12,0c6.617,0,12,5.383,12,12C24,18.617,18.617,24,12,24z M12,1.5
		C6.21,1.5,1.5,6.21,1.5,12c0,5.79,4.71,10.5,10.5,10.5c5.79,0,10.5-4.71,10.5-10.5C22.5,6.21,17.79,1.5,12,1.5z"/>
	<path d="M6.75,18C6.336,18,6,17.664,6,17.25V7.5c0-0.414,0.336-0.75,0.75-0.75S7.5,7.086,7.5,7.5v4.525l1.808-1.318
		c0.207-0.138,0.427-0.207,0.65-0.207c0.074,0,0.149,0.008,0.223,0.022c0.295,0.06,0.549,0.23,0.715,0.481
		c0.004,0.006,0.008,0.012,0.012,0.018l2.181,2.193l1.24-2.471c0.009-0.018,0.019-0.036,0.03-0.053
		c0.148-0.251,0.403-0.439,0.695-0.51l2.134-0.416c0.047-0.009,0.096-0.014,0.144-0.014c0.358,0,0.667,0.255,0.736,0.607
		c0.079,0.406-0.187,0.8-0.593,0.879l-1.9,0.37l-1.405,2.798c-0.009,0.018-0.017,0.033-0.026,0.047
		c-0.125,0.207-0.305,0.364-0.524,0.457C13.48,14.969,13.332,15,13.18,15c-0.387,0-0.746-0.199-0.951-0.523l-2.331-2.344L7.5,13.881
		V16.5h9.75c0.414,0,0.75,0.336,0.75,0.75S17.664,18,17.25,18H6.75z"/>
</g>
</svg>
