<?xml version="1.0" encoding="utf-8"?>
<!-- Generator: Adobe Illustrator 22.1.0, SVG Export Plug-In . SVG Version: 6.00 Build 0)  -->
<svg version="1.1" id="Layer_1" xmlns="http://www.w3.org/2000/svg" xmlns:xlink="http://www.w3.org/1999/xlink" x="0px" y="0px"
	 viewBox="0 0 24 24" style="enable-background:new 0 0 24 24;" xml:space="preserve">
<title>anchor</title>
<g>
	<path d="M11.929,24c-0.414,0-0.75-0.336-0.75-0.75v-1.532c-3.901-0.262-7.422-2.539-9.251-6.008C1.813,15.498,1.75,15.251,1.75,15
		c0-0.827,0.673-1.5,1.5-1.5h1.929c0.414,0,0.75,0.336,0.75,0.75S5.593,15,5.179,15H3.25c1.574,2.986,4.586,4.955,7.929,5.215V10.5
		h-3c-0.414,0-0.75-0.336-0.75-0.75S7.766,9,8.179,9h3V5.902C9.876,5.564,8.929,4.37,8.929,3c0-1.654,1.346-3,3-3s3,1.346,3,3
		c0,1.37-0.947,2.564-2.25,2.901V9h3c0.414,0,0.75,0.336,0.75,0.75s-0.336,0.75-0.75,0.75h-3v9.715
		c3.343-0.26,6.354-2.227,7.923-5.204L18.679,15c-0.414,0-0.75-0.336-0.75-0.75s0.336-0.75,0.75-0.75h1.929
		c0.827,0,1.5,0.673,1.5,1.5c0,0.25-0.063,0.499-0.183,0.719c-1.825,3.462-5.344,5.737-9.246,5.999v1.532
		C12.679,23.664,12.343,24,11.929,24z M11.929,1.5c-0.827,0-1.5,0.673-1.5,1.5s0.673,1.5,1.5,1.5c0.827,0,1.5-0.673,1.5-1.5
		S12.756,1.5,11.929,1.5z"/>
</g>
</svg>
