<?xml version="1.0" encoding="utf-8"?>
<!-- Generator: Adobe Illustrator 22.1.0, SVG Export Plug-In . SVG Version: 6.00 Build 0)  -->
<svg version="1.1" id="Regular" xmlns="http://www.w3.org/2000/svg" xmlns:xlink="http://www.w3.org/1999/xlink" x="0px" y="0px"
	 viewBox="0 0 24 24" style="enable-background:new 0 0 24 24;" xml:space="preserve">
<title>animal-print-two-fingers</title>
<g>
	<path d="M6.681,23.759c-2.183,0-4.072-1.632-4.394-3.797l-0.862-6.509C0.934,9.737,1.548,6.61,3.248,4.161
		c1.425-2.052,3.304-3.171,4.63-3.747c0.185-0.083,0.396-0.127,0.605-0.127c0.124,0,0.247,0.015,0.367,0.045
		c0.802,0.202,1.29,1.019,1.088,1.821C9.328,4.327,9.059,6.56,9.135,8.799c0.384,2.848,2.047,9.824,2.064,9.894
		c0.007,0.031,0.012,0.059,0.016,0.088c0.281,2.431-1.467,4.644-3.897,4.931C7.115,23.743,6.897,23.759,6.681,23.759z M8.482,1.787
		c-5.83,2.535-5.992,8.274-5.57,11.47l0.86,6.494c0.214,1.427,1.467,2.507,2.916,2.507c0.144,0,0.289-0.011,0.432-0.032
		c1.609-0.191,2.771-1.636,2.609-3.23c-0.2-0.839-1.717-7.251-2.086-10.036C7.64,8.936,7.638,8.911,7.637,8.886
		C7.552,6.489,7.836,4.1,8.482,1.787C8.483,1.787,8.482,1.787,8.482,1.787z"/>
	<path d="M17.501,23.741c-0.247,0-0.495-0.021-0.738-0.061c-2.334-0.386-3.979-2.533-3.744-4.889c0.002-0.03,0.009-0.065,0.017-0.1
		c0.069-0.291,1.688-7.103,2.064-9.895c0.076-2.239-0.193-4.469-0.799-6.626c-0.101-0.408-0.041-0.815,0.167-1.158
		c0.207-0.343,0.536-0.584,0.924-0.68c0.118-0.029,0.238-0.043,0.358-0.043c0.207,0,0.416,0.044,0.604,0.126
		c1.324,0.576,3.204,1.693,4.63,3.746c1.702,2.45,2.315,5.576,1.823,9.293l-0.863,6.497c-0.001,0.007-0.004,0.025-0.005,0.032
		C21.578,22.157,19.712,23.741,17.501,23.741z M14.507,18.988c-0.13,1.55,0.964,2.958,2.501,3.213c0.162,0.027,0.327,0.04,0.49,0.04
		c1.473,0,2.718-1.054,2.961-2.506l0.86-6.479c0.986-7.443-3.063-10.379-5.565-11.467l-0.004-0.376v0.375c0,0,0,0,0,0
		c0.646,2.299,0.932,4.691,0.846,7.098c-0.001,0.024-0.003,0.046-0.005,0.068C16.223,11.736,14.71,18.137,14.507,18.988z"/>
</g>
</svg>
