<?xml version="1.0" encoding="utf-8"?>
<!-- Generator: Adobe Illustrator 22.1.0, SVG Export Plug-In . SVG Version: 6.00 Build 0)  -->
<svg version="1.1" id="Regular" xmlns="http://www.w3.org/2000/svg" xmlns:xlink="http://www.w3.org/1999/xlink" x="0px" y="0px"
	 viewBox="0 0 24 24" style="enable-background:new 0 0 24 24;" xml:space="preserve">
<title>animal-print-paw</title>
<g>
	<path d="M15.782,23.748c-1.034,0-2.053-0.344-2.869-0.968c-0.256-0.195-0.577-0.302-0.903-0.302s-0.647,0.108-0.905,0.303
		c-0.814,0.623-1.832,0.966-2.866,0.966c-0.429,0-0.854-0.058-1.264-0.173c-1.413-0.362-2.54-1.413-3.009-2.809
		c-0.622-1.961,0.248-4.063,2.066-5.004c0.414-0.213,0.699-0.615,0.763-1.075c0.182-1.508,1.077-2.878,2.396-3.656
		c0.851-0.511,1.826-0.782,2.819-0.782c0.993,0,1.97,0.271,2.825,0.784c1.313,0.776,2.208,2.146,2.392,3.663
		c0.064,0.452,0.348,0.853,0.76,1.065c1.819,0.942,2.69,3.042,2.071,4.993c-0.471,1.405-1.602,2.459-3.028,2.825
		C16.63,23.69,16.208,23.748,15.782,23.748z M12.01,20.979c0.653,0,1.297,0.217,1.813,0.61c0.556,0.425,1.251,0.659,1.957,0.659
		c0.292,0,0.582-0.04,0.86-0.118c0.944-0.242,1.686-0.93,1.991-1.842c0.394-1.244-0.166-2.591-1.334-3.195
		c-0.845-0.436-1.428-1.259-1.559-2.2c-0.13-1.073-0.754-2.029-1.673-2.572c-0.625-0.375-1.335-0.573-2.057-0.573
		c-0.721,0-1.43,0.197-2.051,0.57c-0.922,0.545-1.548,1.502-1.675,2.561c-0.133,0.953-0.716,1.779-1.562,2.215
		c-1.167,0.604-1.726,1.953-1.329,3.207c0.303,0.902,1.041,1.586,1.972,1.825c0.29,0.082,0.583,0.122,0.877,0.122
		c0.706,0,1.4-0.234,1.955-0.658C10.713,21.195,11.357,20.979,12.01,20.979z"/>
	<path d="M8.26,9.499c-1.654,0-3-1.682-3-3.75c0-1.711,0.948-3.206,2.25-3.627V1.249c0-0.414,0.336-0.75,0.75-0.75
		s0.75,0.336,0.75,0.75v0.873c1.302,0.421,2.25,1.917,2.25,3.627C11.26,7.817,9.914,9.499,8.26,9.499z M8.26,3.499
		c-0.813,0-1.5,1.03-1.5,2.25s0.687,2.25,1.5,2.25s1.5-1.03,1.5-2.25S9.073,3.499,8.26,3.499z"/>
	<path d="M3.01,15.499c-1.654,0-3-1.682-3-3.75c0-1.711,0.948-3.206,2.25-3.627V7.249c0-0.414,0.336-0.75,0.75-0.75
		s0.75,0.336,0.75,0.75v0.873c1.302,0.421,2.25,1.917,2.25,3.627C6.01,13.817,4.664,15.499,3.01,15.499z M3.01,9.499
		c-0.813,0-1.5,1.03-1.5,2.25c0,1.22,0.687,2.25,1.5,2.25s1.5-1.03,1.5-2.25C4.51,10.529,3.823,9.499,3.01,9.499z"/>
	<path d="M15.76,9.499c-1.654,0-3-1.682-3-3.75c0-1.741,0.929-3.21,2.25-3.628V1.249c0-0.414,0.336-0.75,0.75-0.75
		s0.75,0.336,0.75,0.75V2.12c1.321,0.419,2.25,1.888,2.25,3.628C18.76,7.817,17.414,9.499,15.76,9.499z M15.76,3.499
		c-0.813,0-1.5,1.03-1.5,2.25s0.687,2.25,1.5,2.25s1.5-1.03,1.5-2.25S16.573,3.499,15.76,3.499z"/>
	<path d="M21.01,15.499c-1.654,0-3-1.682-3-3.75c0-1.741,0.929-3.21,2.25-3.628V7.249c0-0.414,0.336-0.75,0.75-0.75
		s0.75,0.336,0.75,0.75V8.12c1.321,0.419,2.25,1.888,2.25,3.628C24.01,13.817,22.664,15.499,21.01,15.499z M21.01,9.499
		c-0.813,0-1.5,1.03-1.5,2.25c0,1.22,0.687,2.25,1.5,2.25s1.5-1.03,1.5-2.25C22.51,10.529,21.823,9.499,21.01,9.499z"/>
</g>
</svg>
