<?xml version="1.0" encoding="utf-8"?>
<!-- Generator: Adobe Illustrator 22.1.0, SVG Export Plug-In . SVG Version: 6.00 Build 0)  -->
<svg version="1.1" id="Regular" xmlns="http://www.w3.org/2000/svg" xmlns:xlink="http://www.w3.org/1999/xlink" x="0px" y="0px"
	 viewBox="0 0 24 24" style="enable-background:new 0 0 24 24;" xml:space="preserve">
<title>animal-print-bird-2</title>
<g>
	<path d="M8.01,15.5c-0.414,0-0.75-0.336-0.75-0.75V9.811l-5.78-5.78C1.338,3.889,1.26,3.7,1.26,3.5s0.078-0.389,0.22-0.53
		c0.141-0.142,0.33-0.22,0.53-0.22s0.389,0.078,0.53,0.22l4.72,4.72V1.25c0-0.414,0.336-0.75,0.75-0.75s0.75,0.336,0.75,0.75v6.439
		l4.72-4.72c0.142-0.142,0.33-0.22,0.53-0.22s0.389,0.078,0.53,0.22c0.142,0.141,0.22,0.33,0.22,0.53s-0.078,0.389-0.22,0.53
		l-5.78,5.78v4.939C8.76,15.164,8.423,15.5,8.01,15.5z"/>
	<path d="M10.26,23c-0.2,0-0.389-0.078-0.53-0.22c-0.292-0.292-0.292-0.768,0-1.061l3.53-3.53V10.25c0-0.414,0.336-0.75,0.75-0.75
		s0.75,0.336,0.75,0.75v6.439l5.47-5.47c0.142-0.142,0.33-0.22,0.53-0.22s0.389,0.078,0.53,0.22c0.142,0.141,0.22,0.33,0.22,0.53
		s-0.078,0.389-0.22,0.531l-5.47,5.469h6.439c0.414,0,0.75,0.336,0.75,0.75s-0.336,0.75-0.75,0.75H14.32l-3.53,3.53
		C10.648,22.922,10.46,23,10.26,23z"/>
</g>
</svg>
