<?xml version="1.0" encoding="utf-8"?>
<!-- Generator: Adobe Illustrator 22.1.0, SVG Export Plug-In . SVG Version: 6.00 Build 0)  -->
<svg version="1.1" id="Regular" xmlns="http://www.w3.org/2000/svg" xmlns:xlink="http://www.w3.org/1999/xlink" x="0px" y="0px"
	 viewBox="0 0 24 24" style="enable-background:new 0 0 24 24;" xml:space="preserve">
<title>anteater</title>
<g>
	<path d="M2.952,23.752c-0.558,0-1.024-0.189-1.384-0.562c-1.255-1.298-0.461-4.366-0.289-4.968l0.04-0.143
		C0.808,17.654,0.5,16.952,0.5,16.178c0-0.021,0.001-0.042,0.003-0.062c0.115-1.457,0.351-2.918,0.7-4.343
		C0.308,9.961,0.358,7.838,1.345,6.063C2.626,3.5,5.478,0.428,11.75,0.428c0.074-0.002,0.158-0.003,0.243-0.003
		c0.084,0,0.168,0.001,0.253,0.003C18.73,0.569,23.891,5.96,23.75,12.444v8.234c0,0.414-0.336,0.75-0.75,0.75h-3.75
		c-0.414,0-0.75-0.336-0.75-0.75s0.336-0.75,0.75-0.75h0.626c-0.397-2.177-1.113-3.092-1.66-3.475
		c-0.206-0.144-0.399-0.223-0.567-0.265l-0.656,4.596c-0.053,0.367-0.372,0.644-0.743,0.644H12.5c-0.414,0-0.75-0.336-0.75-0.75
		s0.336-0.75,0.75-0.75h0.75v-3.75c0-1.824-0.545-2.485-0.551-2.491c-0.272-0.291-0.261-0.763,0.032-1.046
		c0.142-0.137,0.327-0.212,0.522-0.212c0.199,0,0.386,0.078,0.527,0.219c0.162,0.161,0.97,1.091,0.97,3.53v3.75h0.85l0.658-4.606
		c0.044-0.304,0.264-0.548,0.561-0.622c0.031-0.008,0.213-0.052,0.497-0.052c0.42,0,1.061,0.096,1.731,0.555
		c1.179,0.808,1.97,2.396,2.352,4.724h0.852v-7.5c0.123-5.67-4.379-10.377-10.037-10.5c-0.074-0.001-0.149-0.002-0.223-0.002
		s-0.149,0.001-0.224,0.002c-4.371,0-7.513,1.672-9.095,4.836c-0.8,1.439-0.803,3.135-0.015,4.55
		c0.094,0.169,0.119,0.364,0.071,0.551c-0.364,1.419-0.609,2.88-0.726,4.341c0.008,0.479,0.239,0.748,0.402,0.786
		c0.012,0.003,0.023,0.004,0.034,0.004c0.088,0,0.244-0.105,0.393-0.403c0.233-0.467,0.413-1.01,0.603-1.585
		c0.53-1.606,1.19-3.603,3.483-4.75C7.906,9.762,8.796,9.51,9.561,9.51c1.525,0,2.054,0.971,2.11,1.082
		c0.168,0.337,0.059,0.749-0.254,0.959c-0.026,0.018-2.661,1.82-2.948,4.16c-0.134,1.092,0.277,2.173,1.221,3.213
		c0.135,0.148,0.204,0.34,0.194,0.541s-0.097,0.385-0.245,0.519c-0.138,0.125-0.317,0.195-0.504,0.195
		c-0.211,0-0.413-0.089-0.555-0.245c-1.252-1.378-1.79-2.862-1.599-4.408c0.251-2.035,1.715-3.642,2.703-4.513
		c-0.04-0.003-0.082-0.004-0.126-0.004c-0.524,0-1.187,0.199-1.973,0.592c-1.735,0.868-2.218,2.329-2.729,3.877
		c-0.208,0.629-0.404,1.223-0.686,1.787C3.843,17.92,3.342,18.344,2.77,18.46l-0.048,0.17c-0.382,1.343-0.504,3.075-0.076,3.517
		c0.035,0.036,0.1,0.104,0.313,0.104c0.104,0,0.225-0.017,0.36-0.051c0.059-0.015,0.121-0.023,0.182-0.023
		c0.344,0,0.643,0.234,0.727,0.568c0.049,0.194,0.019,0.396-0.084,0.568c-0.103,0.172-0.267,0.293-0.461,0.342
		c-0.256,0.064-0.501,0.096-0.729,0.096H2.952z"/>
	<path d="M4.625,9.428c-0.62,0-1.125-0.505-1.125-1.125c0-0.622,0.505-1.127,1.125-1.127c0.049,0,0.097,0.005,0.148,0.016
		c0.511,0.068,0.905,0.468,0.966,0.981C5.742,8.19,5.743,8.207,5.745,8.225C5.747,8.243,5.75,8.28,5.75,8.299
		c0,0.026-0.002,0.05-0.006,0.074C5.744,8.39,5.742,8.408,5.74,8.426c-0.057,0.508-0.46,0.919-0.966,0.987
		C4.722,9.423,4.674,9.428,4.625,9.428z"/>
	<path d="M9.5,7.928c-0.414,0-0.75-0.336-0.75-0.75s0.336-0.75,0.75-0.75c0.341,0,0.482-0.379,0.535-0.604
		c0.115-0.487-0.028-0.917-0.121-0.975L9.86,4.821C9.745,4.767,9.617,4.738,9.485,4.738c-0.102,0-0.203,0.018-0.301,0.053
		C8.96,4.871,8.78,5.033,8.678,5.249C8.555,5.51,8.289,5.678,8,5.678c-0.112,0-0.22-0.024-0.321-0.073
		C7.498,5.52,7.362,5.369,7.294,5.18C7.227,4.992,7.237,4.788,7.322,4.607c0.273-0.578,0.755-1.014,1.357-1.229
		C8.94,3.285,9.211,3.237,9.485,3.237c0.354,0,0.698,0.078,1.022,0.231c0.03,0.014,0.062,0.03,0.093,0.047
		c0.89,0.444,1.126,1.672,0.894,2.653C11.239,7.253,10.475,7.928,9.5,7.928z"/>
</g>
</svg>
