<?xml version="1.0" encoding="utf-8"?>
<!-- Generator: Adobe Illustrator 22.1.0, SVG Export Plug-In . SVG Version: 6.00 Build 0)  -->
<svg version="1.1" id="Layer_1" xmlns="http://www.w3.org/2000/svg" xmlns:xlink="http://www.w3.org/1999/xlink" x="0px" y="0px"
	 viewBox="0 0 24 24" style="enable-background:new 0 0 24 24;" xml:space="preserve">
<title>antique-sword-1</title>
<g>
	<path d="M10.534,14.217c-0.2,0-0.389-0.078-0.53-0.22c-0.142-0.142-0.22-0.33-0.22-0.53s0.078-0.389,0.22-0.53l7.133-7.133
		c0.142-0.142,0.33-0.22,0.53-0.22s0.389,0.078,0.53,0.22c0.142,0.141,0.22,0.33,0.22,0.53s-0.078,0.389-0.22,0.53l-7.133,7.133
		C10.922,14.139,10.734,14.217,10.534,14.217z"/>
	<path d="M2.304,24.002c-0.617,0-1.196-0.24-1.631-0.676c-0.897-0.9-0.895-2.361,0.004-3.258l3.448-3.442
		c-1.431-2.045-1.474-3.538-1.474-3.708c0-0.414,0.336-0.75,0.75-0.75c0.412,0,0.748,0.335,0.75,0.747
		c0,0.004,0.047,1.088,1.056,2.631L5.253,15.5c0.439-0.439,0.69-1.047,0.689-1.668v-0.91c0-0.198,0.08-0.391,0.22-0.53l10.3-10.3
		c0.164-0.165,0.367-0.292,0.589-0.367l4.943-1.647c0.155-0.052,0.318-0.078,0.483-0.078c0.166,0,0.329,0.026,0.485,0.079
		c0.797,0.267,1.229,1.133,0.961,1.931l-1.635,4.94c-0.077,0.226-0.204,0.431-0.369,0.595l-10.3,10.299
		c-0.142,0.142-0.33,0.22-0.53,0.22H10.18c-0.625,0-1.232,0.251-1.669,0.689l-0.044,0.044c1.54,1.004,2.618,1.053,2.629,1.053
		c0.407,0.006,0.74,0.345,0.736,0.756c-0.003,0.41-0.339,0.744-0.749,0.744c-0.171,0-1.658-0.048-3.699-1.471l-3.452,3.451
		C3.497,23.763,2.919,24.002,2.304,24.002z M1.736,21.13c-0.314,0.313-0.314,0.823-0.001,1.137c0.152,0.152,0.354,0.236,0.569,0.236
		c0.215,0,0.416-0.083,0.568-0.234l3.33-3.329c-0.199-0.177-0.395-0.362-0.585-0.552c-0.189-0.189-0.373-0.383-0.55-0.581
		L1.736,21.13z M6.129,16.745c0.174,0.197,0.357,0.392,0.546,0.581c0.192,0.191,0.389,0.375,0.589,0.551l0.185-0.185
		c0.717-0.717,1.711-1.129,2.727-1.129h0.601l10.08-10.08L22.5,1.534c0.004-0.013-0.004-0.03-0.015-0.034l-0.008-0.001
		c-0.003,0-0.006,0-0.008,0.001l-4.94,1.646L7.442,13.233v0.598c0.002,1.016-0.409,2.012-1.129,2.731L6.129,16.745z"/>
</g>
</svg>
