<?xml version="1.0" encoding="utf-8"?>
<!-- Generator: Adobe Illustrator 22.1.0, SVG Export Plug-In . SVG Version: 6.00 Build 0)  -->
<svg version="1.1" id="Layer_1" xmlns="http://www.w3.org/2000/svg" xmlns:xlink="http://www.w3.org/1999/xlink" x="0px" y="0px"
	 viewBox="0 0 24 24" style="enable-background:new 0 0 24 24;" xml:space="preserve">
<title>antique-sling-1</title>
<g>
	<path d="M9.749,24.002c-0.802,0-1.555-0.313-2.121-0.881C7.061,22.554,6.75,21.801,6.751,21c0-0.413,0.337-0.75,0.75-0.75
		c0.414,0,0.75,0.337,0.75,0.75c0,0.401,0.155,0.778,0.438,1.061c0.283,0.283,0.66,0.44,1.06,0.44c0.636,0,1.205-0.402,1.416-1.001
		c0.105-0.299,0.39-0.5,0.708-0.5c0.085,0,0.168,0.014,0.248,0.042c0.189,0.067,0.341,0.203,0.428,0.384
		c0.086,0.181,0.097,0.384,0.031,0.573c-0.422,1.198-1.559,2.002-2.829,2.002H9.749z"/>
	<path d="M21.75,22.5c-0.484,0-0.963-0.16-1.35-0.45c-0.895-0.675-1.648-1.552-2.188-2.55H9.751c-3.722,0-6.75-3.028-6.75-6.75
		V7.243L0.879,5.121c-1.17-1.17-1.17-3.073,0-4.243C1.446,0.312,2.199,0,3.001,0c0.801,0,1.555,0.312,2.121,0.879l4.629,4.629
		l4.629-4.629C14.946,0.312,15.7,0,16.501,0s1.554,0.312,2.121,0.879c1.17,1.17,1.17,3.073,0,4.243l-2.121,2.121v3.648
		c0,0.85,0.573,1.577,1.37,1.793c0.544-1.29,1.415-2.404,2.531-3.235c0.39-0.293,0.856-0.448,1.345-0.448
		c0.706,0,1.38,0.336,1.803,0.899c0.744,0.993,0.542,2.406-0.45,3.15c-1.489,1.116-1.792,3.235-0.677,4.724
		c0.192,0.257,0.42,0.484,0.676,0.676c0.993,0.744,1.195,2.157,0.45,3.15C23.127,22.164,22.454,22.5,21.75,22.5z M21.748,10.5
		c-0.163,0-0.318,0.052-0.448,0.15c-1.604,1.194-2.557,3.099-2.549,5.097c0.005,1.996,0.958,3.903,2.551,5.104
		C21.429,20.947,21.589,21,21.75,21c0.235,0,0.459-0.112,0.6-0.3c0.12-0.16,0.17-0.357,0.142-0.556
		c-0.028-0.199-0.132-0.374-0.292-0.494c-0.371-0.278-0.699-0.607-0.977-0.977c-0.781-1.042-1.109-2.325-0.925-3.614
		c0.185-1.289,0.86-2.428,1.902-3.209c0.331-0.248,0.398-0.719,0.15-1.05C22.207,10.61,21.988,10.5,21.748,10.5z M4.501,12.75
		c0,2.895,2.355,5.25,5.25,5.25h7.837c-0.222-0.733-0.335-1.487-0.337-2.248c-0.002-0.544,0.056-1.094,0.172-1.638
		c-1.425-0.41-2.422-1.708-2.422-3.223V8.743l-2.25,2.25v4.757c0,0.414-0.336,0.75-0.75,0.75c-0.414,0-0.75-0.336-0.75-0.75v-5.068
		c0-0.2,0.078-0.389,0.22-0.53l3.53-3.53V3.75c0-0.414,0.336-0.75,0.75-0.75s0.75,0.336,0.75,0.75v1.372l1.061-1.061
		c0.585-0.585,0.585-1.537,0-2.121C17.278,1.656,16.901,1.5,16.501,1.5c-0.401,0-0.777,0.156-1.061,0.439l-5.159,5.159
		c-0.142,0.142-0.33,0.22-0.53,0.22S9.362,7.24,9.22,7.098L4.061,1.939C3.778,1.656,3.401,1.5,3.001,1.5S2.223,1.656,1.94,1.939
		c-0.585,0.585-0.585,1.536,0,2.121l1.061,1.061V3.75C3.001,3.336,3.337,3,3.751,3s0.75,0.336,0.75,0.75v2.872l3.53,3.53
		c0.142,0.142,0.22,0.33,0.22,0.53V15c0,0.414-0.336,0.75-0.75,0.75s-0.75-0.336-0.75-0.75v-4.007l-2.25-2.25V12.75z"/>
</g>
</svg>
