<?xml version="1.0" encoding="utf-8"?>
<!-- Generator: Adobe Illustrator 22.1.0, SVG Export Plug-In . SVG Version: 6.00 Build 0)  -->
<svg version="1.1" id="Layer_1" xmlns="http://www.w3.org/2000/svg" xmlns:xlink="http://www.w3.org/1999/xlink" x="0px" y="0px"
	 viewBox="0 0 24 24" style="enable-background:new 0 0 24 24;" xml:space="preserve">
<title>antique-battering-ram</title>
<g>
	<path d="M17.25,21.75c-1.799,0-3.323-1.268-3.673-3h-3.153c-0.351,1.732-1.874,3-3.673,3s-3.323-1.268-3.673-3H1.5
		c-0.827,0-1.5-0.673-1.5-1.5v-1.5c0-0.827,0.673-1.5,1.5-1.5h21c0.827,0,1.5,0.673,1.5,1.5v1.5c0,0.827-0.673,1.5-1.5,1.5h-1.577
		C20.573,20.482,19.049,21.75,17.25,21.75z M17.25,15.75C16.009,15.75,15,16.759,15,18s1.009,2.25,2.25,2.25S19.5,19.241,19.5,18
		S18.491,15.75,17.25,15.75z M6.75,15.75c-1.241,0-2.25,1.009-2.25,2.25s1.009,2.25,2.25,2.25S9,19.241,9,18S7.991,15.75,6.75,15.75
		z M22.5,17.25v-1.5h-2.252c0.333,0.442,0.564,0.952,0.675,1.5H22.5z M13.577,17.25c0.111-0.548,0.342-1.058,0.675-1.5H9.748
		c0.334,0.442,0.564,0.952,0.675,1.5H13.577z M1.5,17.25h1.577c0.111-0.548,0.342-1.058,0.675-1.5H1.5V17.25z"/>
	<path d="M18.75,13.483c-0.414,0-0.75-0.336-0.75-0.75V3.75h-1.5v8.983c0,0.414-0.336,0.75-0.75,0.75
		c-0.408,0-0.741-0.327-0.75-0.733H9c-0.009,0.406-0.342,0.733-0.75,0.733c-0.414,0-0.75-0.336-0.75-0.75V3.75H6v8.983
		c0,0.414-0.336,0.75-0.75,0.75c-0.408,0-0.741-0.327-0.75-0.733H1.25C0.561,12.75,0,12.189,0,11.5v-5c0-0.689,0.561-1.25,1.25-1.25
		H4.5v-1.5c0-0.827,0.673-1.5,1.5-1.5h1.5c0.827,0,1.5,0.673,1.5,1.5v1.5h6v-1.5c0-0.827,0.673-1.5,1.5-1.5H18
		c0.827,0,1.5,0.673,1.5,1.5v1.5h1.75C22.766,5.25,24,6.484,24,8v2c0,1.516-1.234,2.75-2.75,2.75H19.5
		C19.491,13.156,19.158,13.483,18.75,13.483z M21.25,11.25c0.689,0,1.25-0.561,1.25-1.25V8c0-0.689-0.561-1.25-1.25-1.25H19.5v4.5
		H21.25z M15,11.25v-4.5H9v4.5H15z M4.5,11.25v-4.5h-3v4.5H4.5z"/>
</g>
</svg>
