<?xml version="1.0" encoding="utf-8"?>
<!-- Generator: Adobe Illustrator 22.1.0, SVG Export Plug-In . SVG Version: 6.00 Build 0)  -->
<svg version="1.1" id="Regular" xmlns="http://www.w3.org/2000/svg" xmlns:xlink="http://www.w3.org/1999/xlink" x="0px" y="0px"
	 viewBox="0 0 24 24" style="enable-background:new 0 0 24 24;" xml:space="preserve">
<title>appliances-hand-mixer</title>
<g>
	<path d="M7.643,23.471c-0.2,0-0.389-0.078-0.53-0.22l-6.364-6.364c-0.14-0.14-0.22-0.333-0.22-0.53s0.08-0.391,0.22-0.53
		c0.989-0.989,2.305-1.533,3.707-1.533c1.138,0,2.243,0.369,3.146,1.044l4.462-4.462l-1.345-1.345c-0.142-0.142-0.22-0.33-0.22-0.53
		s0.078-0.389,0.22-0.53L18.53,0.66c0.424-0.424,0.989-0.658,1.59-0.658c0.602,0,1.167,0.234,1.591,0.658l1.629,1.629
		c0.877,0.877,0.877,2.304,0,3.182l-7.811,7.811c-0.142,0.142-0.33,0.22-0.53,0.22s-0.389-0.078-0.53-0.22l-1.345-1.345
		l-4.462,4.462c1.543,2.063,1.354,5.01-0.489,6.853C8.031,23.393,7.843,23.471,7.643,23.471z M7.589,21.607
		c0.962-1.459,0.783-3.46-0.477-4.72c-0.707-0.707-1.649-1.096-2.652-1.096c-0.738,0-1.459,0.218-2.068,0.619L7.589,21.607z
		 M14.999,11.69l1.939-1.939l-2.689-2.689l-1.939,1.939L14.999,11.69z M17.999,8.69L22.28,4.41c0.292-0.292,0.292-0.768,0-1.06
		L20.651,1.72c-0.141-0.141-0.33-0.219-0.53-0.219s-0.389,0.078-0.53,0.219l-4.281,4.281L17.999,8.69z"/>
	<path d="M3.749,24.001c-0.2,0-0.389-0.078-0.53-0.22l-3-3c-0.292-0.292-0.292-0.768,0-1.061c0.142-0.142,0.33-0.22,0.53-0.22
		s0.389,0.078,0.53,0.22l3,3c0.292,0.292,0.292,0.768,0,1.061C4.137,23.923,3.949,24.001,3.749,24.001z"/>
</g>
</svg>
