<?xml version="1.0" encoding="utf-8"?>
<!-- Generator: Adobe Illustrator 22.1.0, SVG Export Plug-In . SVG Version: 6.00 Build 0)  -->
<svg version="1.1" id="Regular" xmlns="http://www.w3.org/2000/svg" xmlns:xlink="http://www.w3.org/1999/xlink" x="0px" y="0px"
	 viewBox="0 0 24 24" style="enable-background:new 0 0 24 24;" xml:space="preserve">
<title>appliances-stand-alone-mixer</title>
<g>
	<path d="M0.75,24C0.336,24,0,23.664,0,23.25s0.336-0.75,0.75-0.75H12V9.75C12,9.336,11.664,9,11.25,9H7.5v1.5h0.441
		c1.411,0,2.559,1.148,2.559,2.559v3.882c0,1.411-1.148,2.559-2.559,2.559H5.559C4.148,19.5,3,18.352,3,16.941v-3.882
		C3,11.648,4.148,10.5,5.559,10.5H6V9H3.75C2.509,9,1.5,7.991,1.5,6.75v-1.5C1.5,2.355,3.855,0,6.75,0h15C22.991,0,24,1.009,24,2.25
		v19.5c0,1.241-1.009,2.25-2.25,2.25H0.75z M21.75,22.5c0.414,0,0.75-0.336,0.75-0.75V2.25c0-0.414-0.336-0.75-0.75-0.75h-15
		C4.682,1.5,3,3.182,3,5.25v1.5C3,7.164,3.336,7.5,3.75,7.5h7.5c1.241,0,2.25,1.009,2.25,2.25V22.5H21.75z M7.941,18
		C8.525,18,9,17.525,9,16.941v-3.882C9,12.475,8.525,12,7.941,12H7.5v6H7.941z M5.559,12C4.975,12,4.5,12.475,4.5,13.059v3.882
		C4.5,17.525,4.975,18,5.559,18H6v-6H5.559z"/>
	<path d="M18,19.5c-1.654,0-3-1.346-3-3s1.346-3,3-3s3,1.346,3,3S19.654,19.5,18,19.5z M18,15c-0.827,0-1.5,0.673-1.5,1.5
		S17.173,18,18,18s1.5-0.673,1.5-1.5S18.827,15,18,15z"/>
	<path d="M14.25,6c-0.414,0-0.75-0.336-0.75-0.75v-1.5C13.5,3.336,13.836,3,14.25,3S15,3.336,15,3.75v1.5C15,5.664,14.664,6,14.25,6
		z"/>
	<path d="M17.25,6c-0.414,0-0.75-0.336-0.75-0.75v-1.5C16.5,3.336,16.836,3,17.25,3S18,3.336,18,3.75v1.5C18,5.664,17.664,6,17.25,6
		z"/>
	<path d="M20.25,6c-0.414,0-0.75-0.336-0.75-0.75v-1.5C19.5,3.336,19.836,3,20.25,3S21,3.336,21,3.75v1.5C21,5.664,20.664,6,20.25,6
		z"/>
</g>
</svg>
