<?xml version="1.0" encoding="utf-8"?>
<!-- Generator: Adobe Illustrator 22.1.0, SVG Export Plug-In . SVG Version: 6.00 Build 0)  -->
<svg version="1.1" id="Layer_1" xmlns="http://www.w3.org/2000/svg" xmlns:xlink="http://www.w3.org/1999/xlink" x="0px" y="0px"
	 viewBox="0 0 24 24" style="enable-background:new 0 0 24 24;" xml:space="preserve">
<title>architecture-window</title>
<g>
	<path d="M6.75,20.183c-0.414,0-0.75-0.336-0.75-0.75v-8.93c0-0.283,0.021-0.572,0.062-0.859c0.001-0.009,0.006-0.04,0.008-0.048
		C6.498,6.702,9.049,4.502,12,4.502c2.951,0,5.502,2.2,5.934,5.116c0,0,0.003,0.024,0.004,0.033C17.979,9.931,18,10.22,18,10.502
		v8.93c0,0.414-0.336,0.75-0.75,0.75H6.75z M16.5,18.683v-3h-3.75v3H16.5z M11.25,18.683v-3H7.5v3H11.25z M16.5,14.183v-3.68h-3.75
		v3.68H16.5z M11.25,14.183v-3.68H7.5v3.68H11.25z M16.238,9.002c-0.543-1.542-1.874-2.663-3.488-2.933v2.933H16.238z M11.25,9.002
		V6.069c-1.615,0.27-2.945,1.391-3.488,2.933H11.25z"/>
	<path d="M2.25,24.002c-0.414,0-0.75-0.336-0.75-0.75v-10.5H0.75c-0.414,0-0.75-0.336-0.75-0.75s0.336-0.75,0.75-0.75h1.5
		c0.414,0,0.75,0.336,0.75,0.75v10.5h18v-10.5c0-0.414,0.336-0.75,0.75-0.75h1.5c0.414,0,0.75,0.336,0.75,0.75
		s-0.336,0.75-0.75,0.75H22.5v10.5c0,0.414-0.336,0.75-0.75,0.75H2.25z"/>
	<path d="M21.279,8.252c-0.326,0-0.613-0.209-0.713-0.519c-1.207-3.727-4.651-6.231-8.573-6.231c-0.937,0-1.867,0.147-2.766,0.438
		c-2.74,0.887-4.906,3.052-5.793,5.793C3.334,8.044,3.047,8.252,2.721,8.252H0.75C0.336,8.252,0,7.916,0,7.502s0.336-0.75,0.75-0.75
		h1.441C3.32,3.808,5.76,1.486,8.766,0.513c1.048-0.339,2.134-0.511,3.227-0.511c4.358,0,8.269,2.702,9.817,6.75h1.44
		c0.414,0,0.75,0.336,0.75,0.75s-0.336,0.75-0.75,0.75H21.279z"/>
</g>
</svg>
