<?xml version="1.0" encoding="utf-8"?>
<!-- Generator: Adobe Illustrator 22.1.0, SVG Export Plug-In . SVG Version: 6.00 Build 0)  -->
<svg version="1.1" id="Layer_1" xmlns="http://www.w3.org/2000/svg" xmlns:xlink="http://www.w3.org/1999/xlink" x="0px" y="0px"
	 viewBox="0 0 24 24" style="enable-background:new 0 0 24 24;" xml:space="preserve">
<title>architecture-door</title>
<g>
	<path d="M15.75,13.125c-0.044,0-0.088-0.004-0.13-0.011c-0.513-0.06-0.923-0.47-0.983-0.983c-0.008-0.042-0.011-0.086-0.011-0.13
		s0.004-0.088,0.011-0.13c0.06-0.513,0.47-0.923,0.982-0.983c0.043-0.008,0.087-0.011,0.131-0.011s0.088,0.004,0.131,0.011
		c0.513,0.06,0.922,0.47,0.983,0.983c0.007,0.042,0.011,0.086,0.011,0.13s-0.004,0.088-0.011,0.13
		c-0.061,0.513-0.47,0.923-0.983,0.983C15.838,13.121,15.794,13.125,15.75,13.125z"/>
	<path d="M1.5,24c-0.414,0-0.75-0.336-0.75-0.75S1.086,22.5,1.5,22.5h2.25V1.75C3.75,0.785,4.535,0,5.5,0h13
		c0.965,0,1.75,0.785,1.75,1.75V22.5h2.25c0.414,0,0.75,0.336,0.75,0.75S22.914,24,22.5,24H1.5z M18.75,22.5V1.75
		c0-0.138-0.112-0.25-0.25-0.25h-13c-0.138,0-0.25,0.112-0.25,0.25V22.5H18.75z"/>
</g>
</svg>
