<?xml version="1.0" encoding="utf-8"?>
<!-- Generator: Adobe Illustrator 22.1.0, SVG Export Plug-In . SVG Version: 6.00 Build 0)  -->
<svg version="1.1" id="Layer_1" xmlns="http://www.w3.org/2000/svg" xmlns:xlink="http://www.w3.org/1999/xlink" x="0px" y="0px"
	 viewBox="0 0 24 24" style="enable-background:new 0 0 24 24;" xml:space="preserve">
<title>architecture-fence-2</title>
<g>
	<path d="M4.5,21.501c-1.241,0-2.25-1.009-2.25-2.25v-2.25h-1.5c-0.414,0-0.75-0.336-0.75-0.75s0.336-0.75,0.75-0.75h1.5v-6h-1.5
		C0.336,9.501,0,9.164,0,8.751s0.336-0.75,0.75-0.75h1.5v-2.25c0-0.136,0.037-0.27,0.107-0.386l1.607-2.678
		c0.269-0.449,0.763-0.728,1.288-0.728c0.271,0,0.537,0.074,0.77,0.214C6.233,2.299,6.41,2.477,6.536,2.687L7.5,4.293l0.964-1.606
		c0.27-0.449,0.763-0.728,1.288-0.728c0.271,0,0.537,0.074,0.77,0.214c0.211,0.127,0.388,0.304,0.514,0.514L12,4.293l0.964-1.606
		c0.27-0.449,0.763-0.728,1.288-0.728c0.271,0,0.537,0.074,0.77,0.213c0.21,0.127,0.388,0.304,0.514,0.513L16.5,4.293l0.964-1.606
		c0.27-0.449,0.763-0.728,1.288-0.728c0.271,0,0.537,0.074,0.77,0.214c0.21,0.126,0.388,0.304,0.514,0.513l1.607,2.679
		c0.07,0.117,0.107,0.25,0.107,0.386v2.25h1.5c0.414,0,0.75,0.336,0.75,0.75s-0.336,0.75-0.75,0.75h-1.5v6h1.5
		c0.414,0,0.75,0.336,0.75,0.75s-0.336,0.75-0.75,0.75h-1.5v2.25c0,1.241-1.009,2.25-2.25,2.25H4.5z M19.5,20.001
		c0.414,0,0.75-0.336,0.75-0.75v-2.25h-3v3H19.5z M15.75,20.001v-3h-3v3H15.75z M11.25,20.001v-3h-3v3H11.25z M3.75,19.251
		c0,0.414,0.336,0.75,0.75,0.75h2.25v-3h-3V19.251z M20.25,15.501v-6h-3v6H20.25z M15.75,15.501v-6h-3v6H15.75z M11.25,15.501v-6h-3
		v6H11.25z M6.75,15.501v-6h-3v6H6.75z M20.25,8.001V5.958c0,0-1.5-2.499-1.5-2.499l-1.5,2.499v2.042H20.25z M15.75,8.001V5.958
		c0,0-1.5-2.499-1.5-2.499l-1.5,2.499v2.042H15.75z M11.25,8.001V5.958l-1.5-2.5c0,0-1.5,2.5-1.5,2.5v2.042H11.25z M6.75,8.001
		V5.958c0,0-1.5-2.5-1.5-2.499l-1.5,2.499v2.042H6.75z"/>
</g>
</svg>
