<?xml version="1.0" encoding="utf-8"?>
<!-- Generator: Adobe Illustrator 22.1.0, SVG Export Plug-In . SVG Version: 6.00 Build 0)  -->
<svg version="1.1" id="Regular" xmlns="http://www.w3.org/2000/svg" xmlns:xlink="http://www.w3.org/1999/xlink" x="0px" y="0px"
	 viewBox="0 0 24 24" style="enable-background:new 0 0 24 24;" xml:space="preserve">
<title>archery-bow-1</title>
<g>
	<path d="M20.999,24c-1.37,0-2.564-0.947-2.902-2.25H9.749c-0.414,0-0.75-0.336-0.75-0.75s0.336-0.75,0.75-0.75h8.349
		c0.272-1.048,1.104-1.879,2.151-2.151V9.565c-1.118-0.397-2.128-0.98-3.016-1.738l-8.984,8.984V19.5c0,0.198-0.08,0.391-0.22,0.53
		l-3.75,3.75C4.138,23.922,3.95,24,3.749,24c-0.099,0-0.196-0.019-0.287-0.057c-0.281-0.116-0.463-0.388-0.463-0.693V21h-2.25
		c-0.305,0-0.577-0.182-0.693-0.463c-0.117-0.281-0.053-0.602,0.163-0.817l3.75-3.75c0.142-0.142,0.33-0.22,0.53-0.22h2.689
		l8.983-8.983c-0.757-0.885-1.338-1.89-1.731-2.994l-0.01-0.025L5.901,3.75C5.628,4.798,4.797,5.629,3.749,5.901v8.349
		c0,0.414-0.336,0.75-0.75,0.75s-0.75-0.336-0.75-0.75V5.902C0.946,5.564-0.001,4.37-0.001,3c0-1.654,1.346-3,3-3
		c1.37,0,2.564,0.947,2.902,2.25h8.533c0.656,0,1.229,0.42,1.428,1.044c0.313,0.876,0.775,1.688,1.373,2.409L21.439,1.5h-1.939
		c-0.414,0-0.75-0.336-0.75-0.75S19.086,0,19.499,0h3.75c0.089,0,0.176,0.016,0.261,0.048c0.011,0.004,0.022,0.008,0.031,0.012
		c0.176,0.073,0.325,0.221,0.401,0.405c0.003,0.008,0.007,0.017,0.01,0.026c0.031,0.081,0.047,0.17,0.047,0.26V4.5
		c0,0.414-0.336,0.75-0.75,0.75s-0.75-0.336-0.75-0.75V2.561l-4.203,4.203c0.724,0.6,1.542,1.064,2.434,1.382
		c0.605,0.193,1.019,0.765,1.019,1.42v8.533c1.303,0.338,2.25,1.532,2.25,2.902C23.999,22.654,22.654,24,20.999,24z M20.999,19.5
		c-0.827,0-1.5,0.673-1.5,1.5s0.673,1.5,1.5,1.5s1.5-0.673,1.5-1.5S21.826,19.5,20.999,19.5z M3.749,19.5
		c0.414,0,0.75,0.336,0.75,0.75v1.189l2.25-2.25V17.25H4.81L2.56,19.5H3.749z M2.999,1.5c-0.827,0-1.5,0.673-1.5,1.5
		s0.673,1.5,1.5,1.5s1.5-0.673,1.5-1.5S3.826,1.5,2.999,1.5z"/>
</g>
</svg>
