<?xml version="1.0" encoding="utf-8"?>
<!-- Generator: Adobe Illustrator 22.1.0, SVG Export Plug-In . SVG Version: 6.00 Build 0)  -->
<svg version="1.1" id="Regular" xmlns="http://www.w3.org/2000/svg" xmlns:xlink="http://www.w3.org/1999/xlink" x="0px" y="0px"
	 viewBox="0 0 24 24" style="enable-background:new 0 0 24 24;" xml:space="preserve">
<title>armchair</title>
<g>
	<path d="M20.25,24c-0.414,0-0.75-0.336-0.75-0.75V22.5h-15v0.75C4.5,23.664,4.163,24,3.75,24S3,23.664,3,23.25v-0.879
		c-0.885-0.313-1.5-1.161-1.5-2.121v-2.248c-0.205-0.153-0.394-0.328-0.564-0.521c-0.663-0.751-0.993-1.715-0.931-2.715
		c0.062-1,0.51-1.915,1.261-2.578c0.495-0.437,1.089-0.731,1.734-0.86V9c0-4.963,4.037-9,9-9c4.963,0,9,4.037,9,9v2.325
		c0.722,0.145,1.374,0.495,1.903,1.023C23.61,13.057,24,13.998,24,15c0.001,1.187-0.556,2.294-1.5,3.002v2.248
		c0,0.96-0.615,1.808-1.5,2.121v0.879C21,23.664,20.663,24,20.25,24z M3.746,12.752c-0.549,0-1.077,0.199-1.487,0.562
		c-0.451,0.398-0.719,0.947-0.757,1.547c-0.037,0.6,0.161,1.178,0.559,1.629c0.162,0.184,0.352,0.339,0.563,0.46
		C2.856,17.084,3,17.333,3,17.6v2.65C3,20.664,3.336,21,3.75,21h16.5c0.414,0,0.75-0.336,0.75-0.75V17.6
		c0-0.267,0.144-0.516,0.375-0.65C22.069,16.55,22.5,15.802,22.5,15c0-0.602-0.234-1.167-0.658-1.592
		c-0.42-0.42-0.977-0.654-1.571-0.659c-0.007,0-0.035,0-0.042,0c-0.593,0.005-1.15,0.239-1.569,0.658
		c-0.425,0.425-0.66,0.99-0.66,1.591c0,0.646,0.278,1.262,0.763,1.689c0.233,0.205,0.316,0.538,0.206,0.828
		C18.859,17.805,18.577,18,18.267,18H5.733c-0.31,0-0.592-0.195-0.702-0.485c-0.11-0.289-0.027-0.622,0.205-0.827
		c0.93-0.821,1.019-2.246,0.198-3.176C5.008,13.029,4.393,12.752,3.746,12.752z M16.813,16.5c-0.206-0.471-0.313-0.981-0.313-1.502
		c0-1.002,0.391-1.943,1.099-2.651c0.528-0.528,1.18-0.877,1.901-1.021V9c0-4.135-3.365-7.5-7.5-7.5C7.864,1.5,4.5,4.865,4.5,9
		v2.332c0.798,0.162,1.52,0.576,2.059,1.188c0.975,1.105,1.2,2.664,0.626,3.98H16.813z"/>
	<path d="M13.5,11.25c-0.2,0-0.389-0.078-0.53-0.22L12,10.061l-0.97,0.97c-0.142,0.142-0.33,0.22-0.53,0.22s-0.389-0.078-0.53-0.22
		c-0.142-0.141-0.22-0.33-0.22-0.53c0-0.2,0.078-0.389,0.22-0.53L10.939,9l-0.97-0.97C9.828,7.889,9.75,7.7,9.75,7.5
		c0-0.2,0.078-0.389,0.22-0.53c0.141-0.142,0.33-0.22,0.53-0.22s0.389,0.078,0.53,0.22L12,7.939l0.97-0.97
		c0.142-0.142,0.33-0.22,0.53-0.22s0.389,0.078,0.53,0.22c0.142,0.141,0.22,0.33,0.22,0.53c0,0.2-0.078,0.389-0.22,0.53L13.06,9
		l0.97,0.97c0.142,0.142,0.22,0.33,0.22,0.53c0,0.2-0.078,0.389-0.22,0.53S13.7,11.25,13.5,11.25z"/>
</g>
</svg>
