<?xml version="1.0" encoding="utf-8"?>
<!-- Generator: Adobe Illustrator 22.1.0, SVG Export Plug-In . SVG Version: 6.00 Build 0)  -->
<svg version="1.1" id="Regular" xmlns="http://www.w3.org/2000/svg" xmlns:xlink="http://www.w3.org/1999/xlink" x="0px" y="0px"
	 viewBox="0 0 24 24" style="enable-background:new 0 0 24 24;" xml:space="preserve">
<title>armchair-2</title>
<g>
	<path d="M5.248,24c-0.414,0-0.75-0.336-0.75-0.75s0.336-0.75,0.75-0.75H18.75c1.423,0,2.659-1.01,2.942-2.403
		c0.28-1.382-0.437-2.752-1.691-3.324C19.62,17.511,18.845,18,17.998,18H10.72c-2.642,0-4.881-1.977-5.209-4.598L4.738,6.067
		C4.644,5.174,3.896,4.5,2.998,4.5c-1.241,0-2.25-1.009-2.25-2.25S1.757,0,2.998,0C6.514,0,9.489,2.746,9.77,6.251L9.989,9h7.259
		c0.414,0,0.75,0.336,0.75,0.75s-0.336,0.75-0.75,0.75h-7.139l0.137,1.72c0.091,0.722,0.73,1.28,1.484,1.28h6.268
		c1.056,0,1.958,0.732,2.191,1.74c2.128,0.716,3.424,2.934,2.973,5.156C22.738,22.484,20.883,24,18.751,24H5.248z M2.998,1.5
		c-0.414,0-0.75,0.336-0.75,0.75S2.584,3,2.998,3C4.666,3,6.055,4.251,6.23,5.909l0.771,7.321c0.233,1.861,1.832,3.27,3.719,3.27
		h7.278c0.414,0,0.75-0.336,0.75-0.75S18.411,15,17.998,15H11.73c-1.51,0-2.789-1.129-2.976-2.627L8.275,6.371
		C8.056,3.64,5.738,1.5,2.998,1.5L2.998,1.5z"/>
</g>
</svg>
