<?xml version="1.0" encoding="utf-8"?>
<!-- Generator: Adobe Illustrator 22.1.0, SVG Export Plug-In . SVG Version: 6.00 Build 0)  -->
<svg version="1.1" id="Regular" xmlns="http://www.w3.org/2000/svg" xmlns:xlink="http://www.w3.org/1999/xlink" x="0px" y="0px"
	 viewBox="0 0 24 24" style="enable-background:new 0 0 24 24;" xml:space="preserve">
<title>armchair-1</title>
<g>
	<path d="M18.75,24C18.336,24,18,23.664,18,23.25V22.5H6v0.75C6,23.664,5.664,24,5.25,24S4.5,23.664,4.5,23.25v-0.879
		C3.615,22.058,3,21.21,3,20.25v-3c0-0.414-0.336-0.75-0.75-0.75C1.009,16.5,0,15.491,0,14.25S1.009,12,2.25,12H3V9
		c0-4.963,4.037-9,9-9s9,4.037,9,9v3h0.75c1.241,0,2.25,1.009,2.25,2.25s-1.009,2.25-2.25,2.25c-0.414,0-0.75,0.336-0.75,0.75v3
		c0,0.96-0.615,1.808-1.5,2.121v0.879C19.5,23.664,19.164,24,18.75,24z M2.25,13.5c-0.414,0-0.75,0.336-0.75,0.75S1.836,15,2.25,15
		c1.241,0,2.25,1.009,2.25,2.25v3C4.5,20.664,4.836,21,5.25,21h13.5c0.414,0,0.75-0.336,0.75-0.75v-3c0-1.241,1.009-2.25,2.25-2.25
		c0.414,0,0.75-0.336,0.75-0.75s-0.336-0.75-0.75-0.75h-1.5c-1.241,0-2.25,1.009-2.25,2.25c0,0.414-0.336,0.75-0.75,0.75H6.75
		C6.336,16.5,6,16.164,6,15.75c0-1.241-1.009-2.25-2.25-2.25H2.25z M16.576,15c0.3-1.458,1.464-2.622,2.924-2.922V9
		c0-4.135-3.365-7.5-7.5-7.5S4.5,4.865,4.5,9v3.078c1.46,0.3,2.625,1.463,2.924,2.922H16.576z"/>
	<path d="M13.5,11.25c-0.2,0-0.389-0.078-0.53-0.22L12,10.061l-0.97,0.97c-0.142,0.142-0.33,0.22-0.53,0.22s-0.389-0.078-0.53-0.22
		c-0.142-0.141-0.22-0.33-0.22-0.53s0.078-0.389,0.22-0.53L10.939,9L9.97,8.03C9.828,7.889,9.75,7.7,9.75,7.5s0.078-0.389,0.22-0.53
		c0.141-0.142,0.33-0.22,0.53-0.22s0.389,0.078,0.53,0.22L12,7.939l0.97-0.97c0.142-0.142,0.33-0.22,0.53-0.22
		s0.389,0.078,0.53,0.22c0.142,0.141,0.22,0.33,0.22,0.53s-0.078,0.389-0.22,0.53L13.061,9l0.97,0.97
		c0.142,0.141,0.22,0.33,0.22,0.53s-0.078,0.389-0.22,0.53S13.7,11.25,13.5,11.25z"/>
</g>
</svg>
