<?xml version="1.0" encoding="utf-8"?>
<!-- Generator: Adobe Illustrator 22.1.0, SVG Export Plug-In . SVG Version: 6.00 Build 0)  -->
<svg version="1.1" id="Regular" xmlns="http://www.w3.org/2000/svg" xmlns:xlink="http://www.w3.org/1999/xlink" x="0px" y="0px"
	 viewBox="0 0 24 24" style="enable-background:new 0 0 24 24;" xml:space="preserve">
<title>armchair-modern</title>
<g>
	<path d="M6.013,24.001c-1.472,0-2.717-1.054-2.96-2.507l-3-18c-0.272-1.632,0.834-3.181,2.466-3.453
		c0.163-0.027,0.329-0.041,0.494-0.041c1.069,0,2.063,0.582,2.595,1.5h12.81c0.531-0.917,1.523-1.497,2.591-1.497
		c0.201,0,0.404,0.021,0.602,0.061c0.006,0.001,0.03,0.007,0.036,0.008c1.594,0.405,2.601,1.99,2.289,3.607l-2.965,17.813
		c-0.242,1.452-1.487,2.507-2.959,2.507H6.013z M3.013,1.501c-0.083,0-0.166,0.007-0.248,0.021C2.371,1.587,2.026,1.803,1.792,2.13
		c-0.233,0.327-0.325,0.724-0.26,1.118l3,18c0.121,0.726,0.744,1.253,1.48,1.254h12c0.736,0,1.358-0.527,1.479-1.254L22.46,3.416
		c0.163-0.849-0.355-1.674-1.178-1.887c-0.077-0.015-0.176-0.025-0.274-0.025c-0.706,0-1.322,0.502-1.464,1.194L19.532,2.76
		l-1.477,8.863c-0.181,1.09-1.115,1.881-2.219,1.881H8.189c-1.105,0-2.038-0.791-2.219-1.881L4.492,2.754
		C4.371,2.028,3.749,1.501,3.013,1.501z M7.45,11.377c0.06,0.363,0.371,0.627,0.74,0.627h7.647c0.368,0,0.68-0.264,0.74-0.627
		l1.395-8.376H6.054L7.45,11.377z"/>
</g>
</svg>
