<?xml version="1.0" encoding="utf-8"?>
<!-- Generator: Adobe Illustrator 22.1.0, SVG Export Plug-In . SVG Version: 6.00 Build 0)  -->
<svg version="1.1" id="Regular" xmlns="http://www.w3.org/2000/svg" xmlns:xlink="http://www.w3.org/1999/xlink" x="0px" y="0px"
	 viewBox="0 0 24 24" style="enable-background:new 0 0 24 24;" xml:space="preserve">
<title>armchair-modern-2</title>
<g>
	<path d="M7.5,24c-0.414,0-0.75-0.336-0.75-0.75S7.086,22.5,7.5,22.5h3.75v-3.02c-5.481-0.266-9-3.466-9-8.23
		c0-2.491,1.197-5.266,3.283-7.612C7.558,1.36,9.976,0,12,0c1.961,0,4.42,1.376,6.418,3.592c2.117,2.348,3.332,5.139,3.332,7.658
		c0,4.764-3.519,7.964-9,8.23v3.02h3.75c0.414,0,0.75,0.336,0.75,0.75S16.914,24,16.5,24H7.5z M5.433,15.654
		C6.888,17.17,9.202,18,12,18c2.798,0,5.111-0.83,6.567-2.346c-1.743-1.397-3.913-2.163-6.153-2.163
		c-0.127,0-0.255,0.003-0.383,0.008c-0.005,0-0.025,0.001-0.03,0.001l-0.033-0.001c-0.125-0.005-0.252-0.008-0.38-0.008
		C9.347,13.492,7.176,14.257,5.433,15.654z M12,1.5c-1.568,0-3.614,1.203-5.339,3.14C4.838,6.687,3.75,9.158,3.75,11.25
		c0,1.188,0.265,2.261,0.79,3.198c2.001-1.587,4.485-2.456,7.043-2.456c0.139,0,0.278,0.003,0.417,0.008
		c0.138-0.005,0.276-0.008,0.414-0.008c2.561,0,5.046,0.869,7.047,2.456c0.524-0.936,0.79-2.01,0.79-3.198
		C20.25,7.4,15.825,1.5,12,1.5z"/>
</g>
</svg>
