<?xml version="1.0" encoding="utf-8"?>
<!-- Generator: Adobe Illustrator 22.1.0, SVG Export Plug-In . SVG Version: 6.00 Build 0)  -->
<svg version="1.1" id="Layer_1" xmlns="http://www.w3.org/2000/svg" xmlns:xlink="http://www.w3.org/1999/xlink" x="0px" y="0px"
	 viewBox="0 0 24 24" style="enable-background:new 0 0 24 24;" xml:space="preserve">
<title>army-symbol-signals</title>
<g>
	<path d="M2.25,20C1.009,20,0,18.991,0,17.75v-12C0,4.509,1.009,3.5,2.25,3.5h19.5C22.991,3.5,24,4.509,24,5.75v12
		c0,1.241-1.009,2.25-2.25,2.25H2.25z M1.508,5.644C1.503,5.678,1.5,5.713,1.5,5.75v12c0,0.414,0.336,0.75,0.75,0.75h18.782
		L12.75,9.865l0,3.77c0,0.406-0.168,0.8-0.461,1.082c-0.281,0.27-0.648,0.418-1.034,0.418l-0.038,0
		c-0.399-0.008-0.772-0.172-1.05-0.461L1.508,5.644z M12.751,8.365c0.406,0,0.8,0.168,1.081,0.461l8.661,9.029
		c0.005-0.033,0.008-0.069,0.008-0.106v-12C22.5,5.336,22.164,5,21.75,5H2.968l8.282,8.635l0-3.77
		C11.25,9.038,11.923,8.365,12.751,8.365L12.751,8.365z"/>
</g>
</svg>
