<?xml version="1.0" encoding="utf-8"?>
<!-- Generator: Adobe Illustrator 22.1.0, SVG Export Plug-In . SVG Version: 6.00 Build 0)  -->
<svg version="1.1" id="Layer_1" xmlns="http://www.w3.org/2000/svg" xmlns:xlink="http://www.w3.org/1999/xlink" x="0px" y="0px"
	 viewBox="0 0 24 24" style="enable-background:new 0 0 24 24;" xml:space="preserve">
<title>army-symbol-navy</title>
<g>
	<path d="M2.25,20c-0.413,0-0.82-0.115-1.175-0.334c-0.005-0.003-0.01-0.006-0.014-0.009C0.396,19.241,0,18.528,0,17.75v-12
		c0-0.761,0.383-1.466,1.023-1.884c0.005-0.003,0.029-0.018,0.035-0.021C1.413,3.62,1.827,3.5,2.25,3.5h19.5
		c0.422,0,0.835,0.12,1.196,0.347c0.007,0.004,0.023,0.013,0.038,0.024C23.618,4.285,24,4.989,24,5.75v12
		c0,0.778-0.396,1.491-1.06,1.906c-0.007,0.005-0.026,0.016-0.033,0.02C22.572,19.884,22.164,20,21.75,20H2.25z M20.494,18.5
		l-3.669-2.523c-0.341-0.234-0.427-0.702-0.193-1.043c0.14-0.204,0.371-0.325,0.618-0.325c0.152,0,0.298,0.045,0.424,0.131
		l4.774,3.283c0.034-0.086,0.052-0.178,0.052-0.273v-12c0-0.095-0.018-0.187-0.052-0.273l-4.774,3.282
		c-0.125,0.086-0.272,0.132-0.425,0.132c-0.247,0-0.478-0.121-0.618-0.325c-0.234-0.341-0.148-0.809,0.193-1.043L20.494,5H3.506
		l3.669,2.523C7.34,7.636,7.451,7.807,7.488,8.005c0.036,0.197-0.006,0.396-0.12,0.562C7.228,8.769,6.997,8.891,6.75,8.891
		c-0.152,0-0.299-0.046-0.425-0.132L1.552,5.477C1.518,5.562,1.5,5.655,1.5,5.75v12c0,0.095,0.018,0.187,0.051,0.273l4.774-3.283
		c0.126-0.086,0.273-0.132,0.425-0.132c0.248,0,0.479,0.122,0.618,0.325c0.113,0.165,0.156,0.364,0.119,0.561
		c-0.036,0.197-0.147,0.368-0.312,0.481L3.506,18.5H20.494z"/>
	<path d="M12,16.25c-2.068,0-3.75-1.682-3.75-3.75c0-0.414,0.336-0.75,0.75-0.75s0.75,0.336,0.75,0.75c0,0.96,0.621,1.805,1.5,2.118
		V10.25H10.5c-0.414,0-0.75-0.336-0.75-0.75s0.336-0.75,0.75-0.75h0.75V8c0-0.414,0.336-0.75,0.75-0.75S12.75,7.586,12.75,8v0.75
		h0.75c0.414,0,0.75,0.336,0.75,0.75s-0.336,0.75-0.75,0.75h-0.75v4.368c0.879-0.313,1.5-1.158,1.5-2.118
		c0-0.414,0.336-0.75,0.75-0.75s0.75,0.336,0.75,0.75C15.75,14.568,14.068,16.25,12,16.25z"/>
</g>
</svg>
