<?xml version="1.0" encoding="utf-8"?>
<!-- Generator: Adobe Illustrator 22.1.0, SVG Export Plug-In . SVG Version: 6.00 Build 0)  -->
<svg version="1.1" id="Layer_1" xmlns="http://www.w3.org/2000/svg" xmlns:xlink="http://www.w3.org/1999/xlink" x="0px" y="0px"
	 viewBox="0 0 24 24" style="enable-background:new 0 0 24 24;" xml:space="preserve">
<title>army-symbol-armor</title>
<g>
	<path d="M2.25,20.25C1.009,20.25,0,19.241,0,18V6c0-1.241,1.009-2.25,2.25-2.25h19.5C22.991,3.75,24,4.759,24,6v12
		c0,1.241-1.009,2.25-2.25,2.25H2.25z M2.25,5.25C1.836,5.25,1.5,5.586,1.5,6v12c0,0.414,0.336,0.75,0.75,0.75h19.5
		c0.414,0,0.75-0.336,0.75-0.75V6c0-0.414-0.336-0.75-0.75-0.75H2.25z"/>
	<path d="M8.25,15.75c-2.068,0-3.75-1.682-3.75-3.75c0-2.068,1.682-3.75,3.75-3.75h7.5c2.068,0,3.75,1.682,3.75,3.75
		c0,2.068-1.682,3.75-3.75,3.75H8.25z M8.25,9.75C7.009,9.75,6,10.759,6,12c0,1.241,1.009,2.25,2.25,2.25h7.5
		c1.241,0,2.25-1.009,2.25-2.25c0-1.241-1.009-2.25-2.25-2.25H8.25z"/>
</g>
</svg>
