<?xml version="1.0" encoding="utf-8"?>
<!-- Generator: Adobe Illustrator 22.1.0, SVG Export Plug-In . SVG Version: 6.00 Build 0)  -->
<svg version="1.1" id="Layer_1" xmlns="http://www.w3.org/2000/svg" xmlns:xlink="http://www.w3.org/1999/xlink" x="0px" y="0px"
	 viewBox="0 0 24 24" style="enable-background:new 0 0 24 24;" xml:space="preserve">
<title>army-symbol-batallion</title>
<g>
	<path d="M2.25,24C1.009,24,0,22.991,0,21.75v-12C0,8.509,1.009,7.5,2.25,7.5h19.5C22.991,7.5,24,8.509,24,9.75v12
		c0,1.241-1.009,2.25-2.25,2.25H2.25z M2.25,9C1.836,9,1.5,9.336,1.5,9.75v12c0,0.414,0.336,0.75,0.75,0.75h19.5
		c0.414,0,0.75-0.336,0.75-0.75v-12C22.5,9.336,22.164,9,21.75,9H2.25z"/>
	<path d="M14.25,6c-0.414,0-0.75-0.336-0.75-0.75v-4.5C13.5,0.336,13.836,0,14.25,0S15,0.336,15,0.75v4.5C15,5.664,14.664,6,14.25,6
		z"/>
	<path d="M9.75,6C9.336,6,9,5.664,9,5.25v-4.5C9,0.336,9.336,0,9.75,0s0.75,0.336,0.75,0.75v4.5C10.5,5.664,10.164,6,9.75,6z"/>
</g>
</svg>
