<?xml version="1.0" encoding="utf-8"?>
<!-- Generator: Adobe Illustrator 22.1.0, SVG Export Plug-In . SVG Version: 6.00 Build 0)  -->
<svg version="1.1" id="Layer_1" xmlns="http://www.w3.org/2000/svg" xmlns:xlink="http://www.w3.org/1999/xlink" x="0px" y="0px"
	 viewBox="0 0 24 24" style="enable-background:new 0 0 24 24;" xml:space="preserve">
<title>army-symbol-artillery-1</title>
<g>
	<path d="M2.25,20C1.009,20,0,18.991,0,17.75v-12C0,4.509,1.009,3.5,2.25,3.5h19.5C22.991,3.5,24,4.509,24,5.75v12
		c0,1.241-1.009,2.25-2.25,2.25H2.25z M2.25,5C1.836,5,1.5,5.336,1.5,5.75v12c0,0.414,0.336,0.75,0.75,0.75h19.5
		c0.414,0,0.75-0.336,0.75-0.75v-12C22.5,5.336,22.164,5,21.75,5H2.25z"/>
	<path d="M8.25,15.5c-2.068,0-3.75-1.682-3.75-3.75C4.5,9.682,6.182,8,8.25,8h7.5c2.068,0,3.75,1.682,3.75,3.75
		c0,2.068-1.682,3.75-3.75,3.75H8.25z M8.25,9.5C7.009,9.5,6,10.509,6,11.75C6,12.991,7.009,14,8.25,14h7.5
		c1.241,0,2.25-1.009,2.25-2.25c0-1.241-1.009-2.25-2.25-2.25H8.25z"/>
	<path d="M12,12.875c-0.044,0-0.088-0.004-0.13-0.011c-0.513-0.06-0.922-0.47-0.983-0.982c-0.008-0.043-0.012-0.087-0.012-0.131
		s0.004-0.088,0.012-0.131c0.06-0.513,0.47-0.922,0.982-0.982c0.043-0.008,0.087-0.012,0.131-0.012s0.088,0.004,0.131,0.012
		c0.513,0.06,0.922,0.47,0.983,0.983c0.007,0.042,0.011,0.086,0.011,0.13s-0.004,0.088-0.011,0.13
		c-0.061,0.513-0.47,0.923-0.983,0.983C12.088,12.871,12.044,12.875,12,12.875z"/>
</g>
</svg>
