<?xml version="1.0" encoding="utf-8"?>
<!-- Generator: Adobe Illustrator 22.1.0, SVG Export Plug-In . SVG Version: 6.00 Build 0)  -->
<svg version="1.1" id="Layer_1" xmlns="http://www.w3.org/2000/svg" xmlns:xlink="http://www.w3.org/1999/xlink" x="0px" y="0px"
	 viewBox="0 0 24 24" style="enable-background:new 0 0 24 24;" xml:space="preserve">
<title>army-arrow-shield</title>
<g>
	<path d="M12,24.001c-0.461,0-0.914-0.084-1.346-0.25l-1.041-0.4C4.76,21.484,1.5,16.737,1.5,11.538V3.924
		C1.494,3.049,2.007,2.245,2.806,1.88C5.668,0.63,8.686,0,11.788,0l0.219,0.001L12.193,0c3.115,0,6.14,0.631,8.989,1.875
		c0.809,0.37,1.324,1.175,1.318,2.054v7.609c0,5.199-3.26,9.946-8.113,11.813l-1.041,0.4C12.914,23.917,12.461,24.001,12,24.001z
		 M11.804,1.5C8.9,1.5,6.079,2.088,3.421,3.248C3.166,3.365,2.998,3.63,3,3.919v7.619c0,4.583,2.874,8.768,7.151,10.413l1.041,0.4
		c0.26,0.1,0.531,0.151,0.808,0.151s0.548-0.051,0.808-0.15l1.041-0.4C18.126,20.305,21,16.121,21,11.538V3.924
		c0.002-0.293-0.167-0.559-0.43-0.68C17.921,2.087,15.101,1.5,12.194,1.5l-0.187,0.001L11.804,1.5z"/>
	<path d="M9.75,18.75c-0.163,0-0.319-0.052-0.45-0.15c-0.331-0.248-0.398-0.719-0.15-1.05l2.1-2.8V7.728l-0.126,0.189
		C10.984,8.126,10.751,8.25,10.5,8.25c-0.148,0-0.292-0.043-0.415-0.126C9.74,7.895,9.647,7.429,9.876,7.085l1.5-2.25
		c0.14-0.209,0.373-0.334,0.624-0.334c0.25,0,0.483,0.124,0.623,0.333l1.501,2.251c0.111,0.167,0.151,0.367,0.112,0.563
		c-0.039,0.197-0.153,0.366-0.32,0.477c-0.124,0.082-0.268,0.126-0.416,0.126c-0.251,0-0.485-0.125-0.624-0.334L12.75,7.728v7.023
		l2.1,2.8c0.248,0.331,0.181,0.802-0.15,1.05c-0.132,0.098-0.287,0.15-0.45,0.15c-0.235,0-0.459-0.112-0.6-0.3L12,16.25l-1.65,2.2
		C10.209,18.638,9.985,18.75,9.75,18.75z"/>
	<path d="M8.25,15c-0.414,0-0.75-0.336-0.75-0.75v-2.689l-0.22,0.22c-0.142,0.142-0.33,0.22-0.53,0.22s-0.389-0.078-0.53-0.22
		C6.078,11.639,6,11.451,6,11.251s0.078-0.389,0.22-0.53l1.5-1.5C7.861,9.079,8.049,9,8.25,9C8.349,9,8.446,9.02,8.538,9.058
		C8.818,9.174,9,9.446,9,9.751v4.5C9,14.664,8.664,15,8.25,15z"/>
	<path d="M15.75,15C15.336,15,15,14.664,15,14.25v-4.5c0-0.305,0.182-0.577,0.463-0.693c0.091-0.038,0.188-0.057,0.287-0.057
		c0.201,0,0.389,0.078,0.531,0.22l1.5,1.5c0.142,0.141,0.22,0.33,0.22,0.53s-0.078,0.389-0.22,0.53s-0.33,0.22-0.53,0.22
		s-0.389-0.078-0.53-0.22l-0.22-0.22v2.689C16.5,14.664,16.164,15,15.75,15z"/>
</g>
</svg>
