<?xml version="1.0" encoding="utf-8"?>
<!-- Generator: Adobe Illustrator 22.1.0, SVG Export Plug-In . SVG Version: 6.00 Build 0)  -->
<svg version="1.1" id="Layer_1" xmlns="http://www.w3.org/2000/svg" xmlns:xlink="http://www.w3.org/1999/xlink" x="0px" y="0px"
	 viewBox="0 0 24 24" style="enable-background:new 0 0 24 24;" xml:space="preserve">
<title>army-symbol-aviation</title>
<g>
	<path d="M2.25,20C1.009,20,0,18.991,0,17.75v-12C0,4.509,1.009,3.5,2.25,3.5h19.5C22.991,3.5,24,4.509,24,5.75v12
		c0,1.241-1.009,2.25-2.25,2.25H2.25z M2.25,5C1.836,5,1.5,5.336,1.5,5.75v12c0,0.414,0.336,0.75,0.75,0.75h19.5
		c0.414,0,0.75-0.336,0.75-0.75v-12C22.5,5.336,22.164,5,21.75,5H2.25z"/>
	<path d="M12,15.5c-0.414,0-0.75-0.336-0.75-0.75v-2.367C9.949,13.189,8.413,14,7.5,14c-1.654,0-3-1.346-3-3c0-1.654,1.346-3,3-3
		c1.169,0,3.399,1.37,4.5,2.096C13.101,9.37,15.331,8,16.5,8c1.654,0,3,1.346,3,3c0,1.654-1.346,3-3,3
		c-0.913,0-2.449-0.811-3.75-1.617v2.367C12.75,15.164,12.414,15.5,12,15.5z M13.368,11c1.416,0.886,2.688,1.5,3.132,1.5
		c0.827,0,1.5-0.673,1.5-1.5s-0.673-1.5-1.5-1.5C16.055,9.5,14.783,10.114,13.368,11z M7.5,9.5C6.673,9.5,6,10.173,6,11
		s0.673,1.5,1.5,1.5c0.445,0,1.717-0.614,3.132-1.5C9.217,10.114,7.944,9.5,7.5,9.5z"/>
</g>
</svg>
