<?xml version="1.0" encoding="utf-8"?>
<!-- Generator: Adobe Illustrator 22.1.0, SVG Export Plug-In . SVG Version: 6.00 Build 0)  -->
<svg version="1.1" id="Layer_1" xmlns="http://www.w3.org/2000/svg" xmlns:xlink="http://www.w3.org/1999/xlink" x="0px" y="0px"
	 viewBox="0 0 24 24" style="enable-background:new 0 0 24 24;" xml:space="preserve">
<title>artboard-circle</title>
<g>
	<path d="M6.75,18C6.336,18,6,17.664,6,17.25V6.75C6,6.336,6.336,6,6.75,6h10.5C17.664,6,18,6.336,18,6.75v10.5
		c0,0.414-0.336,0.75-0.75,0.75H6.75z M16.5,16.5v-9h-9v9H16.5z"/>
	<path d="M18,24c-0.827,0-1.5-0.673-1.5-1.5V21H5.25C4.009,21,3,19.991,3,18.75V7.5H1.5C0.673,7.5,0,6.827,0,6V4.5
		C0,3.673,0.673,3,1.5,3H3V1.5C3,0.673,3.673,0,4.5,0H6c0.827,0,1.5,0.673,1.5,1.5V3h11.25C19.991,3,21,4.009,21,5.25V16.5h1.5
		c0.827,0,1.5,0.673,1.5,1.5v1.5c0,0.827-0.673,1.5-1.5,1.5H21v1.5c0,0.827-0.673,1.5-1.5,1.5H18z M1.5,6h2.25
		C4.164,6,4.5,6.336,4.5,6.75v12c0,0.414,0.336,0.75,0.75,0.75h12c0.414,0,0.75,0.336,0.75,0.75v2.25h1.5v-2.25
		c0-0.414,0.336-0.75,0.75-0.75h2.25V18h-2.25c-0.414,0-0.75-0.336-0.75-0.75v-12c0-0.414-0.336-0.75-0.75-0.75h-12
		C6.336,4.5,6,4.164,6,3.75V1.5H4.5v2.25c0,0.414-0.336,0.75-0.75,0.75H1.5V6z"/>
	<path d="M12,15c-1.654,0-3-1.346-3-3c0-1.654,1.346-3,3-3c1.654,0,3,1.346,3,3C15,13.654,13.654,15,12,15z M12,10.5
		c-0.827,0-1.5,0.673-1.5,1.5s0.673,1.5,1.5,1.5s1.5-0.673,1.5-1.5S12.827,10.5,12,10.5z"/>
</g>
</svg>
