<?xml version="1.0" encoding="utf-8"?>
<!-- Generator: Adobe Illustrator 22.1.0, SVG Export Plug-In . SVG Version: 6.00 Build 0)  -->
<svg version="1.1" id="Layer_1" xmlns="http://www.w3.org/2000/svg" xmlns:xlink="http://www.w3.org/1999/xlink" x="0px" y="0px"
	 viewBox="0 0 24 24" style="enable-background:new 0 0 24 24;" xml:space="preserve">
<title>artboard-expand</title>
<g>
	<path d="M21.75,19.875c-0.414,0-0.75-0.336-0.75-0.75s0.336-0.75,0.75-0.75h1.5c0.414,0,0.75,0.336,0.75,0.75
		s-0.336,0.75-0.75,0.75H21.75z"/>
	<path d="M0.75,6.375C0.336,6.375,0,6.039,0,5.625s0.336-0.75,0.75-0.75h1.5C2.664,4.875,3,5.211,3,5.625s-0.336,0.75-0.75,0.75
		H0.75z"/>
	<path d="M18.75,23.625c-0.414,0-0.75-0.336-0.75-0.75v-3H5.25c-0.088,0-0.175-0.016-0.26-0.047
		c-0.007-0.003-0.015-0.005-0.022-0.008c-0.188-0.077-0.336-0.226-0.412-0.41c-0.003-0.007-0.006-0.015-0.009-0.023
		C4.517,19.305,4.5,19.216,4.5,19.125V1.875c0-0.414,0.336-0.75,0.75-0.75S6,1.461,6,1.875v3h8.25c0.414,0,0.75,0.336,0.75,0.75
		s-0.336,0.75-0.75,0.75H6v10.939l0.841-0.841c0.142-0.142,0.33-0.22,0.53-0.22s0.389,0.078,0.53,0.22
		c0.142,0.142,0.22,0.33,0.22,0.53s-0.078,0.389-0.22,0.53l-0.841,0.841H18v-9c0-0.414,0.336-0.75,0.75-0.75s0.75,0.336,0.75,0.75
		v13.5C19.5,23.289,19.164,23.625,18.75,23.625z"/>
	<path d="M9.493,15.632c-0.2,0-0.389-0.078-0.53-0.22c-0.292-0.292-0.292-0.768,0-1.061l2.121-2.121
		c0.142-0.142,0.33-0.22,0.53-0.22s0.389,0.078,0.53,0.22c0.292,0.292,0.292,0.768,0,1.061l-2.121,2.121
		C9.882,15.554,9.693,15.632,9.493,15.632z"/>
	<path d="M13.735,11.39c-0.2,0-0.389-0.078-0.53-0.22c-0.142-0.141-0.22-0.33-0.22-0.53c0-0.2,0.078-0.389,0.22-0.53l2.122-2.122
		c0.142-0.142,0.33-0.22,0.53-0.22s0.389,0.078,0.53,0.22c0.142,0.141,0.22,0.33,0.22,0.53c0,0.2-0.078,0.389-0.22,0.53
		l-2.122,2.122C14.124,11.312,13.935,11.39,13.735,11.39z"/>
	<path d="M17.978,7.147c-0.2,0-0.389-0.078-0.53-0.22c-0.142-0.142-0.22-0.33-0.22-0.53c0-0.2,0.078-0.389,0.22-0.53l2.121-2.121
		c0.142-0.142,0.33-0.22,0.53-0.22s0.389,0.078,0.53,0.22c0.142,0.142,0.22,0.33,0.22,0.53c0,0.2-0.078,0.389-0.22,0.53
		l-2.121,2.121C18.367,7.069,18.178,7.147,17.978,7.147z"/>
	<path d="M22.221,2.904c-0.2,0-0.389-0.078-0.53-0.22c-0.142-0.141-0.22-0.33-0.22-0.53s0.078-0.389,0.22-0.53l1.029-1.029
		c0.142-0.142,0.33-0.22,0.53-0.22s0.389,0.078,0.53,0.22C23.922,0.736,24,0.925,24,1.125s-0.078,0.389-0.22,0.53l-1.029,1.029
		C22.61,2.826,22.421,2.904,22.221,2.904z"/>
</g>
</svg>
