<?xml version="1.0" encoding="utf-8"?>
<!-- Generator: Adobe Illustrator 22.1.0, SVG Export Plug-In . SVG Version: 6.00 Build 0)  -->
<svg version="1.1" id="Regular" xmlns="http://www.w3.org/2000/svg" xmlns:xlink="http://www.w3.org/1999/xlink" x="0px" y="0px"
	 viewBox="0 0 24 24" style="enable-background:new 0 0 24 24;" xml:space="preserve">
<title>asian-interior-boiler</title>
<g>
	<path d="M12.005,24c-1.922,0-3.485-1.56-3.485-3.477c-0.078-1.183,0.565-2.343,1.64-2.931c0.11-0.06,0.235-0.092,0.36-0.092
		c0.116,0,0.232,0.027,0.335,0.079c0.211,0.105,0.36,0.304,0.402,0.535c0.132-0.658-0.036-1.357-0.477-1.883
		c-0.21-0.251-0.234-0.606-0.058-0.883C10.861,15.13,11.098,15,11.356,15c0.064,0,0.129,0.008,0.191,0.025
		c2.489,0.65,4.141,2.984,3.929,5.548c-0.032,1.885-1.555,3.402-3.466,3.427C12.008,24,12.007,24,12.005,24z M10.321,19.408
		c-0.217,0.309-0.327,0.687-0.302,1.066c0.001,1.127,0.889,2.025,1.978,2.025c1.094-0.015,1.965-0.887,1.98-1.987
		c0.001-0.024,0.001-0.043,0.004-0.062c0.1-1.17-0.353-2.306-1.191-3.085c0.062,0.748-0.102,1.503-0.483,2.167
		c-0.124,0.215-0.345,0.355-0.593,0.374c-0.047,0.004-0.096,0.006-0.144,0.006C11.102,19.912,10.655,19.726,10.321,19.408z"/>
	<path d="M0.75,24C0.336,24,0,23.664,0,23.25s0.336-0.75,0.75-0.75h4.96l-0.487-1.463C4.916,20.118,4.058,19.5,3.089,19.5H0.75
		C0.336,19.5,0,19.164,0,18.75S0.336,18,0.75,18h2.338c1.616,0,3.046,1.03,3.557,2.563l0.816,2.45
		c0.076,0.228,0.037,0.48-0.103,0.676C7.218,23.884,6.991,24,6.75,24H0.75z"/>
	<path d="M17.25,24c-0.24,0-0.468-0.116-0.608-0.312c-0.14-0.194-0.179-0.447-0.103-0.676l0.816-2.448
		C17.865,19.031,19.295,18,20.912,18h2.338c0.414,0,0.75,0.336,0.75,0.75s-0.336,0.75-0.75,0.75h-2.338
		c-0.97,0-1.828,0.618-2.135,1.539L18.291,22.5h4.959c0.414,0,0.75,0.336,0.75,0.75S23.664,24,23.25,24H17.25z"/>
	<path d="M8.141,13.5c-0.463,0-0.927-0.109-1.342-0.316c-0.717-0.358-1.251-0.974-1.505-1.734s-0.196-1.574,0.162-2.29l1.707-3.414
		C7.521,5.03,8.214,4.568,9,4.507V3c0-1.654,1.346-3,3-3c1.654,0,3,1.346,3,3v1.507c0.786,0.061,1.479,0.523,1.836,1.238L18.464,9
		h0.286c0.414,0,0.75-0.336,0.75-0.75v-1.5c0-1.241,1.009-2.25,2.25-2.25c0.414,0,0.75,0.336,0.75,0.75S22.164,6,21.75,6
		S21,6.336,21,6.75v1.5c0,1.204-0.95,2.19-2.141,2.247c0,0.001,0,0.002,0,0.003c0,1.654-1.346,3-3,3H8.141z M9.177,6
		C8.891,6,8.634,6.159,8.506,6.415L6.799,9.829c-0.179,0.358-0.208,0.765-0.081,1.145c0.127,0.38,0.394,0.688,0.752,0.867
		C7.677,11.945,7.909,12,8.141,12h7.718c0.827,0,1.5-0.673,1.5-1.5c0-0.159-0.027-0.32-0.08-0.479
		c-0.006-0.017-0.012-0.035-0.017-0.053c-0.013-0.035-0.036-0.088-0.061-0.139l-1.707-3.414C15.366,6.159,15.109,6,14.823,6H9.177z
		 M13.5,4.5V3c0-0.827-0.673-1.5-1.5-1.5S10.5,2.173,10.5,3v1.5H13.5z"/>
</g>
</svg>
