<?xml version="1.0" encoding="utf-8"?>
<!-- Generator: Adobe Illustrator 22.1.0, SVG Export Plug-In . SVG Version: 6.00 Build 0)  -->
<svg version="1.1" id="Regular" xmlns="http://www.w3.org/2000/svg" xmlns:xlink="http://www.w3.org/1999/xlink" x="0px" y="0px"
	 viewBox="0 0 24 24" style="enable-background:new 0 0 24 24;" xml:space="preserve">
<title>asian-food-soup</title>
<g>
	<path d="M12,24C5.383,24,0,18.953,0,12.75c0-1.141,1.177-2.063,3.5-2.739c1.856-0.541,4.333-0.89,6.974-0.984c0,0,0,0,0,0
		c0.429,0,0.761,0.318,0.776,0.723c0.007,0.2-0.064,0.391-0.201,0.538s-0.322,0.231-0.522,0.238C4.686,10.734,1.5,12.104,1.5,12.75
		c0,0.654,3.679,2.252,10.5,2.252c2.942,0,5.698-0.303,7.762-0.853c2.272-0.606,2.738-1.256,2.738-1.396
		c0-0.085-0.196-0.418-1.064-0.819c-0.182-0.084-0.32-0.234-0.389-0.422c-0.069-0.188-0.061-0.392,0.023-0.574
		c0.122-0.265,0.389-0.436,0.68-0.436c0.109,0,0.216,0.024,0.315,0.07c1.212,0.56,1.86,1.25,1.924,2.052
		C23.996,12.666,24,12.708,24,12.75C23.998,18.955,18.615,24,12,24z M1.743,14.828C2.781,19.255,7.045,22.5,12,22.5
		c4.954,0,9.218-3.245,10.256-7.671C19.82,16.054,15.348,16.502,12,16.502C8.651,16.502,4.18,16.054,1.743,14.828z"/>
	<path d="M12.75,12.75c-0.123,0-0.245-0.031-0.353-0.089c-0.176-0.094-0.306-0.251-0.364-0.443
		c-0.058-0.192-0.038-0.395,0.056-0.572l6-11.25C18.219,0.152,18.473,0,18.751,0c0.122,0,0.244,0.031,0.352,0.088
		c0.177,0.094,0.306,0.252,0.365,0.443c0.058,0.192,0.039,0.395-0.056,0.572l-6,11.25C13.281,12.598,13.028,12.75,12.75,12.75z"/>
	<path d="M15,13.5c-0.188,0-0.368-0.07-0.507-0.198c-0.304-0.279-0.325-0.754-0.046-1.059l8.25-9C22.839,3.089,23.041,3,23.25,3
		c0.188,0,0.368,0.07,0.507,0.197c0.305,0.28,0.325,0.755,0.046,1.06l-8.25,9C15.411,13.411,15.209,13.5,15,13.5z"/>
</g>
</svg>
