<?xml version="1.0" encoding="utf-8"?>
<!-- Generator: Adobe Illustrator 22.1.0, SVG Export Plug-In . SVG Version: 6.00 Build 0)  -->
<svg version="1.1" id="Regular" xmlns="http://www.w3.org/2000/svg" xmlns:xlink="http://www.w3.org/1999/xlink" x="0px" y="0px"
	 viewBox="0 0 24 24" style="enable-background:new 0 0 24 24;" xml:space="preserve">
<title>asian-interior-windows</title>
<g>
	<path d="M1.25,24C0.561,24,0,23.439,0,22.75V1.25C0,0.561,0.561,0,1.25,0H10c0.689,0,1.25,0.561,1.25,1.25v21.5
		c0,0.689-0.561,1.25-1.25,1.25H1.25z M9.75,22.5v-2.687l-0.541,0.542C8.792,20.771,8.239,21,7.651,21c0,0-0.001,0-0.001,0
		c-0.268,0-0.509,0.148-0.629,0.387L6.464,22.5H9.75z M4.786,22.5l0.893-1.785c0.378-0.75,1.132-1.215,1.97-1.215
		c0.191,0,0.366-0.073,0.5-0.206L9.75,17.69V16.5l-1,0.75C8.105,17.734,7.306,18,6.5,18H6.165c-0.781,0-1.494,0.395-1.908,1.057
		L2.104,22.5H4.786z M1.5,20.637l1.485-2.374c0.69-1.104,1.879-1.762,3.18-1.762H6.5c0.484,0,0.963-0.16,1.35-0.45l1.9-1.425V13.5
		H4.5c-0.414,0-0.75-0.336-0.75-0.75c0-1.832,1.306-3.372,3.08-3.69c0.316-1.335,1.524-2.31,2.92-2.31V1.5H1.5V20.637z M9.75,12
		V8.25c-0.827,0-1.5,0.673-1.5,1.5c0,0.414-0.336,0.75-0.75,0.75c-0.962,0-1.808,0.621-2.121,1.5H9.75z"/>
	<path d="M14,24c-0.689,0-1.25-0.561-1.25-1.25V1.25C12.75,0.561,13.311,0,14,0h8.75C23.439,0,24,0.561,24,1.25v21.5
		c0,0.689-0.561,1.25-1.25,1.25H14z M22.5,22.5V9.75h-1.036l-1.293,2.585c-0.006,0.011-0.015,0.027-0.023,0.04
		c-0.007,0.014-0.014,0.027-0.023,0.04l-0.857,1.287c-0.074,0.111-0.155,0.221-0.242,0.33l1.64,1.093
		c0.167,0.111,0.28,0.28,0.32,0.477c0.039,0.197,0,0.397-0.112,0.563c-0.139,0.209-0.373,0.334-0.624,0.334
		c-0.149,0-0.292-0.044-0.416-0.126l-1.934-1.289c-0.193,0.132-0.393,0.25-0.6,0.354l-3.05,1.525V22.5H22.5z M14.25,15.287
		l2.379-1.189c0.435-0.218,0.822-0.521,1.136-0.89l-3.515,0.879V15.287z M14.25,12.54l4.733-1.184l0.803-1.606H17.25
		c-0.414,0-0.75-0.336-0.75-0.75c0-1.832,1.305-3.372,3.08-3.69C19.896,3.975,21.104,3,22.5,3V1.5h-8.25V12.54z M22.5,8.25V4.5
		C21.673,4.5,21,5.173,21,6c0,0.414-0.336,0.75-0.75,0.75c-0.962,0-1.808,0.621-2.121,1.5H22.5z"/>
</g>
</svg>
