<?xml version="1.0" encoding="utf-8"?>
<!-- Generator: Adobe Illustrator 22.1.0, SVG Export Plug-In . SVG Version: 6.00 Build 0)  -->
<svg version="1.1" id="Regular" xmlns="http://www.w3.org/2000/svg" xmlns:xlink="http://www.w3.org/1999/xlink" x="0px" y="0px"
	 viewBox="0 0 24 24" style="enable-background:new 0 0 24 24;" xml:space="preserve">
<title>asian-interior-bonsai-tree</title>
<g>
	<path d="M7.854,24.001c-1.429,0-2.714-0.794-3.354-2.073l-1.421-2.842c-0.115-0.231-0.103-0.511,0.033-0.73
		c0.137-0.222,0.376-0.355,0.638-0.355h9.688c-0.01-0.436,0.016-0.96,0.129-1.5H12.75c-1.799,0-3.323-1.268-3.673-3H8.25
		c-1.654,0-3-1.346-3-3H3c-1.654,0-3-1.346-3-3C0,6.113,0.965,4.91,2.289,4.586c0.248-2.054,1.66-3.751,3.663-4.369
		c0.503-0.155,1.023-0.234,1.545-0.234c2.041,0,3.92,1.214,4.769,3.051c0.162-0.021,0.328-0.032,0.492-0.032
		c2.069,0.003,3.749,1.688,3.746,3.756c-0.002,1.002-0.393,1.943-1.103,2.65c-0.708,0.705-1.648,1.094-2.647,1.094H10.5v2.25
		c0,1.241,1.009,2.25,2.25,2.25h1.417c0.079-0.122,0.159-0.231,0.243-0.331c0.658-0.776,1.593-1.169,2.779-1.169
		c0.681,0,1.172-0.199,1.543-0.628c0.726-0.836,0.786-2.339,0.761-3.122c-1.238-0.003-2.244-1.011-2.244-2.25c0-1.654,1.346-3,3-3
		s3,1.346,3,3c0,1.241-1.009,2.25-2.25,2.25h-0.003c0.03,1.048-0.088,2.901-1.131,4.104c-0.659,0.76-1.56,1.146-2.677,1.146
		c-0.724,0-1.273,0.214-1.633,0.637c-0.56,0.659-0.633,1.71-0.616,2.363h5.31c0.258,0,0.502,0.136,0.638,0.355
		c0.138,0.224,0.15,0.496,0.033,0.73L19.5,21.928c-0.639,1.279-1.925,2.073-3.354,2.073H7.854z M5.842,21.257
		c0.383,0.767,1.154,1.244,2.012,1.244h8.292c0.858,0,1.629-0.477,2.012-1.244l0.878-1.756H4.964L5.842,21.257z M6.75,10.501
		c0,0.827,0.673,1.5,1.5,1.5H9v-1.5H6.75z M7.498,1.483c-0.373,0-0.744,0.056-1.103,0.167C4.806,2.14,3.744,3.586,3.75,5.248
		c0.001,0.201-0.077,0.39-0.219,0.532C3.392,5.92,3.198,6.001,3,6.001c-0.827,0-1.5,0.673-1.5,1.5s0.673,1.5,1.5,1.5h9.75
		c0.604,0,1.168-0.233,1.593-0.656c0.426-0.424,0.661-0.989,0.662-1.59c0.002-1.241-1.006-2.252-2.246-2.254
		c-0.259,0.005-0.503,0.044-0.72,0.117C11.96,4.644,11.881,4.657,11.8,4.657c-0.119,0-0.237-0.029-0.342-0.083
		c-0.178-0.091-0.315-0.254-0.374-0.446C10.603,2.571,9.128,1.483,7.498,1.483z M20.25,6.001c-0.827,0-1.5,0.673-1.5,1.5
		c0,0.414,0.336,0.75,0.75,0.75H21c0.414,0,0.75-0.336,0.75-0.75C21.75,6.674,21.077,6.001,20.25,6.001z"/>
</g>
</svg>
