<?xml version="1.0" encoding="utf-8"?>
<!-- Generator: Adobe Illustrator 22.1.0, SVG Export Plug-In . SVG Version: 6.00 Build 0)  -->
<svg version="1.1" id="Regular" xmlns="http://www.w3.org/2000/svg" xmlns:xlink="http://www.w3.org/1999/xlink" x="0px" y="0px"
	 viewBox="0 0 24 24" style="enable-background:new 0 0 24 24;" xml:space="preserve">
<title>asian-interior-furniture</title>
<g>
	<path d="M23.25,24c-0.414,0-0.75-0.336-0.75-0.75V18h-21v5.25C1.5,23.664,1.164,24,0.75,24S0,23.664,0,23.25v-18
		C0,4.009,1.009,3,2.25,3h1.502C3.267,2.357,3,1.573,3,0.75C3,0.336,3.336,0,3.75,0h6c0.414,0,0.75,0.336,0.75,0.75
		c0,0.823-0.267,1.607-0.752,2.25H21.75C22.991,3,24,4.009,24,5.25v18C24,23.664,23.664,24,23.25,24z M22.5,16.5v-3h-9.75v3H22.5z
		 M11.25,16.5v-3H1.5v3H11.25z M22.5,12V9h-0.75C21.336,9,21,8.664,21,8.25s0.336-0.75,0.75-0.75h0.75V5.25
		c0-0.414-0.336-0.75-0.75-0.75H16.5v3h0.75C17.664,7.5,18,7.836,18,8.25S17.664,9,17.25,9H16.5v3H22.5z M15,12V9h-0.75
		c-0.414,0-0.75-0.336-0.75-0.75s0.336-0.75,0.75-0.75H15v-3H9v3h0.75c0.414,0,0.75,0.336,0.75,0.75S10.164,9,9.75,9H9v3H15z
		 M7.5,12V9H6.75C6.336,9,6,8.664,6,8.25S6.336,7.5,6.75,7.5H7.5v-3H2.25C1.836,4.5,1.5,4.836,1.5,5.25V7.5h0.75
		C2.664,7.5,3,7.836,3,8.25S2.664,9,2.25,9H1.5v3H7.5z M4.629,1.5C4.942,2.379,5.788,3,6.75,3s1.808-0.621,2.121-1.5H4.629z"/>
	<path d="M20.25,24c-0.286,0-0.543-0.159-0.671-0.415L18.286,21h-2.073l-1.293,2.585C14.793,23.841,14.536,24,14.25,24
		c-0.115,0-0.231-0.027-0.334-0.079c-0.37-0.185-0.521-0.637-0.336-1.006L14.536,21H14.25c-0.414,0-0.75-0.336-0.75-0.75
		s0.336-0.75,0.75-0.75h6c0.414,0,0.75,0.336,0.75,0.75S20.664,21,20.25,21h-0.286l0.957,1.915c0.185,0.37,0.034,0.821-0.335,1.006
		C20.481,23.973,20.365,24,20.25,24z"/>
</g>
</svg>
