<?xml version="1.0" encoding="utf-8"?>
<!-- Generator: Adobe Illustrator 22.1.0, SVG Export Plug-In . SVG Version: 6.00 Build 0)  -->
<svg version="1.1" id="Layer_1" xmlns="http://www.w3.org/2000/svg" xmlns:xlink="http://www.w3.org/1999/xlink" x="0px" y="0px"
	 viewBox="0 0 24 24" style="enable-background:new 0 0 24 24;" xml:space="preserve">
<title>astrology-saggitarius</title>
<g>
	<path d="M0.773,24c-0.2,0-0.389-0.078-0.53-0.22c-0.142-0.142-0.22-0.33-0.22-0.53s0.078-0.389,0.22-0.53l4.827-4.827l-3.756-3.756
		c-0.292-0.292-0.292-0.768,0-1.061c0.142-0.142,0.33-0.22,0.53-0.22s0.389,0.078,0.53,0.22l3.756,3.756L21.463,1.5h-6.761
		c-0.414,0-0.75-0.336-0.75-0.75S14.288,0,14.701,0h8.572c0.089,0,0.176,0.016,0.261,0.048c0.011,0.004,0.022,0.008,0.032,0.012
		c0.176,0.072,0.325,0.221,0.401,0.405c0.003,0.008,0.007,0.017,0.01,0.026c0.031,0.081,0.047,0.17,0.047,0.259v8.571
		c0,0.414-0.336,0.75-0.75,0.75s-0.75-0.336-0.75-0.75v-6.76L7.191,17.893l3.756,3.756c0.142,0.142,0.22,0.33,0.22,0.53
		s-0.078,0.389-0.22,0.53c-0.142,0.142-0.33,0.22-0.53,0.22s-0.389-0.078-0.53-0.22L6.13,18.954L1.303,23.78
		C1.162,23.922,0.973,24,0.773,24z"/>
</g>
</svg>
