<?xml version="1.0" encoding="utf-8"?>
<!-- Generator: Adobe Illustrator 22.1.0, SVG Export Plug-In . SVG Version: 6.00 Build 0)  -->
<svg version="1.1" id="Layer_1" xmlns="http://www.w3.org/2000/svg" xmlns:xlink="http://www.w3.org/1999/xlink" x="0px" y="0px"
	 viewBox="0 0 24 24" style="enable-background:new 0 0 24 24;" xml:space="preserve">
<title>astronomy-comet</title>
<g>
	<path d="M16.5,22.25c-1.903,0-3.711-0.919-4.841-2.46c-0.034-0.04-0.062-0.079-0.085-0.12c-0.663-0.952-1.032-2.067-1.069-3.227
		c-0.001-0.018-0.001-0.036-0.001-0.054l-0.002-0.022c-0.001-0.039-0.003-0.078-0.003-0.117c0-3.308,2.692-6,6-6
		c3.006,0,5.564,2.248,5.949,5.228c0,0.004,0.001,0.008,0.001,0.011c0.033,0.259,0.05,0.515,0.05,0.761
		C22.5,19.558,19.808,22.25,16.5,22.25z M14.295,20.168c0.67,0.379,1.43,0.582,2.205,0.582c1.85,0,3.501-1.152,4.176-2.828
		c-0.151,0.032-0.307,0.048-0.464,0.048c-1.241,0-2.25-1.009-2.25-2.25c0-1.183,0.918-2.156,2.079-2.244
		c-0.846-1.08-2.146-1.726-3.541-1.726c-1.814,0-3.438,1.108-4.136,2.732c0.308-0.103,0.632-0.157,0.957-0.157
		c0.418,0,0.824,0.086,1.208,0.256c1.515,0.67,2.203,2.447,1.533,3.962c-0.324,0.734-0.915,1.298-1.664,1.587
		C14.364,20.143,14.33,20.156,14.295,20.168z M12.742,18.719c0.182,0.075,0.374,0.113,0.57,0.113c0.597,0,1.138-0.352,1.378-0.896
		c0.335-0.759-0.009-1.648-0.768-1.984c-0.192-0.085-0.395-0.128-0.604-0.128c-0.533,0-1.034,0.29-1.301,0.747
		C12.072,17.342,12.322,18.081,12.742,18.719z M20.212,14.97c-0.414,0-0.75,0.336-0.75,0.75s0.336,0.75,0.75,0.75
		s0.75-0.336,0.75-0.75c0-0.026-0.005-0.05-0.008-0.074l-0.018-0.115C20.864,15.215,20.557,14.97,20.212,14.97z"/>
	<path d="M7.484,9.045c-0.2,0-0.389-0.078-0.53-0.22L4.833,6.704c-0.142-0.141-0.22-0.33-0.22-0.53s0.078-0.389,0.22-0.53
		c0.141-0.142,0.33-0.22,0.53-0.22s0.389,0.078,0.53,0.22l2.121,2.121c0.142,0.141,0.22,0.33,0.22,0.53s-0.078,0.389-0.22,0.53
		C7.873,8.967,7.684,9.045,7.484,9.045z"/>
	<path d="M11.197,10.636c-0.2,0-0.389-0.078-0.53-0.22L9.606,9.355c-0.142-0.141-0.22-0.33-0.22-0.53s0.078-0.389,0.22-0.53
		c0.141-0.142,0.33-0.22,0.53-0.22s0.389,0.078,0.53,0.22l1.061,1.061c0.142,0.141,0.22,0.33,0.22,0.53s-0.078,0.389-0.22,0.53
		C11.586,10.558,11.397,10.636,11.197,10.636z"/>
	<path d="M13.96,9.157c-0.198,0-0.386-0.077-0.527-0.216l-6.46-6.385C6.679,2.265,6.676,1.789,6.967,1.495
		C7.109,1.351,7.298,1.272,7.5,1.272c0.198,0,0.386,0.077,0.527,0.216l6.46,6.385c0.142,0.141,0.221,0.329,0.223,0.529
		s-0.076,0.389-0.217,0.532C14.351,9.078,14.162,9.157,13.96,9.157z"/>
	<path d="M8.657,14.46c-0.201,0-0.39-0.079-0.532-0.221L1.719,7.801C1.577,7.659,1.5,7.471,1.5,7.271c0-0.2,0.079-0.389,0.221-0.53
		C1.863,6.6,2.05,6.522,2.25,6.522c0.201,0,0.39,0.078,0.532,0.221l6.407,6.438c0.292,0.293,0.291,0.769-0.002,1.061
		C9.045,14.382,8.857,14.46,8.657,14.46z"/>
</g>
</svg>
