<?xml version="1.0" encoding="utf-8"?>
<!-- Generator: Adobe Illustrator 22.1.0, SVG Export Plug-In . SVG Version: 6.00 Build 0)  -->
<svg version="1.1" id="Layer_1" xmlns="http://www.w3.org/2000/svg" xmlns:xlink="http://www.w3.org/1999/xlink" x="0px" y="0px"
	 viewBox="0 0 24 24" style="enable-background:new 0 0 24 24;" xml:space="preserve">
<title>astrology-david</title>
<g>
	<path d="M12.023,24c-5.344,0-10.086-3.588-11.544-8.731c-0.008-0.017-0.016-0.038-0.023-0.061
		c-0.005-0.017-0.009-0.042-0.013-0.064C0.165,14.116,0.023,13.058,0.023,12c0-3.461,1.502-6.754,4.121-9.04
		c0.019-0.023,0.045-0.052,0.079-0.079c0.022-0.018,0.043-0.031,0.06-0.041C6.449,1.008,9.195,0,12.023,0
		c2.828,0,5.575,1.008,7.74,2.84c0.013,0.007,0.036,0.021,0.06,0.041c0.036,0.029,0.062,0.058,0.078,0.079
		c2.62,2.286,4.122,5.579,4.122,9.041c0,1.06-0.142,2.118-0.422,3.146c-0.002,0.019-0.007,0.042-0.014,0.066
		c-0.004,0.014-0.01,0.031-0.018,0.047C22.115,20.407,17.371,24,12.023,24z M13.122,22.442c3.898-0.412,7.297-3.023,8.706-6.692
		h-6.228L13.122,22.442z M2.218,15.75c1.41,3.67,4.808,6.28,8.706,6.692L8.446,15.75H2.218z M12.023,21.09l1.978-5.34h-3.956
		L12.023,21.09z M20.287,14.25l-3.344-2.123l-0.786,2.123H20.287z M14.557,14.25l1.091-2.945l-3.624-2.301l-3.624,2.3L9.49,14.25
		H14.557z M7.89,14.25l-0.786-2.123L3.758,14.25H7.89z M22.367,13.793c0.104-0.596,0.156-1.197,0.156-1.793
		c0-2.707-1.014-5.242-2.867-7.199l-2.18,5.888L22.367,13.793z M4.39,4.801C2.537,6.758,1.523,9.293,1.523,12
		c0,0.596,0.052,1.198,0.156,1.793l4.892-3.105L4.39,4.801z M16.18,9.866l1.695-4.577l-4.453,2.827L16.18,9.866z M7.866,9.866
		l2.758-1.75L6.171,5.289L7.866,9.866z M12.023,7.227l6.021-3.822C16.272,2.157,14.202,1.5,12.023,1.5S7.774,2.157,6.002,3.405
		L12.023,7.227z"/>
</g>
</svg>
