<?xml version="1.0" encoding="utf-8"?>
<!-- Generator: Adobe Illustrator 22.1.0, SVG Export Plug-In . SVG Version: 6.00 Build 0)  -->
<svg version="1.1" id="Layer_1" xmlns="http://www.w3.org/2000/svg" xmlns:xlink="http://www.w3.org/1999/xlink" x="0px" y="0px"
	 viewBox="0 0 24 24" style="enable-background:new 0 0 24 24;" xml:space="preserve">
<title>astronomy-planet</title>
<g>
	<path d="M9.5,23.25c-0.414,0-0.75-0.336-0.75-0.75v-1.542c-0.676-0.075-1.331-0.25-1.954-0.524L6.025,21.77
		c-0.134,0.231-0.383,0.375-0.65,0.375c-0.131,0-0.261-0.035-0.375-0.101c-0.358-0.207-0.481-0.666-0.274-1.024l0.773-1.339
		c-0.547-0.403-1.026-0.882-1.43-1.429L2.73,19.024c-0.114,0.066-0.243,0.101-0.375,0.101c-0.267,0-0.516-0.144-0.65-0.375
		c-0.207-0.358-0.083-0.818,0.275-1.024l1.337-0.772C3.043,16.331,2.867,15.676,2.792,15H1.25c-0.414,0-0.75-0.336-0.75-0.75
		s0.336-0.75,0.75-0.75h1.542c0.075-0.676,0.251-1.331,0.525-1.954L1.98,10.775c-0.358-0.207-0.481-0.667-0.275-1.025
		c0.134-0.231,0.383-0.375,0.65-0.375c0.131,0,0.26,0.035,0.374,0.1l1.339,0.773c0.403-0.547,0.882-1.026,1.429-1.429L4.725,7.48
		C4.519,7.122,4.642,6.662,5,6.455c0.115-0.066,0.244-0.1,0.375-0.1c0.267,0,0.516,0.144,0.65,0.375l0.772,1.337
		c0.623-0.274,1.277-0.45,1.954-0.525V6c0-0.414,0.336-0.75,0.75-0.75S10.25,5.586,10.25,6v1.542
		c0.676,0.075,1.331,0.251,1.954,0.525l0.772-1.337c0.133-0.231,0.382-0.375,0.65-0.375c0.131,0,0.26,0.035,0.374,0.1
		c0.358,0.207,0.482,0.667,0.275,1.025l-0.772,1.339c0.547,0.403,1.026,0.882,1.429,1.43l1.339-0.773
		c0.114-0.066,0.243-0.1,0.375-0.1c0.268,0,0.517,0.144,0.65,0.375c0.207,0.358,0.083,0.818-0.274,1.024l-1.337,0.772
		c0.274,0.623,0.45,1.277,0.524,1.954h1.542c0.414,0,0.75,0.336,0.75,0.75S18.164,15,17.75,15h-1.542
		c-0.075,0.677-0.25,1.331-0.524,1.954l1.337,0.772c0.358,0.207,0.481,0.666,0.274,1.024c-0.133,0.231-0.382,0.375-0.65,0.375
		c-0.132,0-0.261-0.035-0.375-0.101l-1.338-0.772c-0.403,0.547-0.882,1.026-1.429,1.429l0.772,1.339
		c0.207,0.358,0.083,0.818-0.274,1.024c-0.114,0.066-0.243,0.101-0.375,0.101c-0.268,0-0.517-0.144-0.65-0.375l-0.772-1.337
		c-0.623,0.274-1.277,0.45-1.954,0.524V22.5C10.25,22.914,9.914,23.25,9.5,23.25z M9.5,9c-2.895,0-5.25,2.355-5.25,5.25
		c0,2.895,2.355,5.25,5.25,5.25c2.895,0,5.25-2.355,5.25-5.25C14.75,11.355,12.395,9,9.5,9z"/>
	<path d="M11.75,13.875c-0.044,0-0.088-0.004-0.13-0.011c-0.513-0.06-0.923-0.47-0.983-0.982c-0.008-0.043-0.011-0.087-0.011-0.131
		s0.004-0.088,0.011-0.131c0.06-0.513,0.47-0.922,0.982-0.982c0.043-0.008,0.087-0.012,0.131-0.012s0.088,0.004,0.131,0.012
		c0.513,0.061,0.922,0.47,0.982,0.983c0.008,0.042,0.011,0.086,0.011,0.131s-0.004,0.088-0.011,0.131
		c-0.06,0.513-0.47,0.923-0.983,0.983C11.838,13.871,11.794,13.875,11.75,13.875z"/>
	<path d="M8,13.125c-0.044,0-0.088-0.004-0.13-0.011c-0.513-0.06-0.922-0.47-0.983-0.982C6.879,12.088,6.875,12.044,6.875,12
		s0.004-0.088,0.012-0.131c0.06-0.513,0.47-0.922,0.982-0.982C7.912,10.879,7.956,10.875,8,10.875s0.088,0.004,0.131,0.012
		c0.513,0.06,0.922,0.47,0.982,0.982C9.121,11.912,9.125,11.956,9.125,12s-0.004,0.088-0.012,0.131
		c-0.06,0.513-0.47,0.922-0.983,0.982C8.088,13.121,8.044,13.125,8,13.125z"/>
	<path d="M8.75,17.625c-0.044,0-0.088-0.004-0.13-0.011c-0.513-0.06-0.923-0.47-0.983-0.982c-0.008-0.043-0.011-0.087-0.011-0.131
		s0.004-0.088,0.011-0.131c0.06-0.513,0.47-0.922,0.983-0.983c0.042-0.007,0.086-0.011,0.13-0.011s0.088,0.004,0.13,0.011
		c0.513,0.061,0.923,0.47,0.983,0.983c0.008,0.043,0.011,0.087,0.011,0.131s-0.004,0.088-0.011,0.131
		c-0.06,0.513-0.47,0.922-0.983,0.982C8.838,17.621,8.794,17.625,8.75,17.625z"/>
	<path d="M19.25,9.75c-0.414,0-0.75-0.336-0.75-0.75V8.151c-0.27-0.07-0.53-0.178-0.771-0.32l-0.601,0.601
		c-0.142,0.142-0.33,0.22-0.53,0.22s-0.389-0.078-0.53-0.22c-0.142-0.141-0.22-0.33-0.22-0.53s0.078-0.389,0.22-0.53l0.601-0.601
		C16.526,6.53,16.418,6.27,16.348,6H15.5c-0.414,0-0.75-0.336-0.75-0.75S15.086,4.5,15.5,4.5h0.848c0.07-0.27,0.178-0.53,0.32-0.771
		l-0.601-0.601c-0.142-0.141-0.22-0.33-0.22-0.53s0.078-0.389,0.22-0.53s0.33-0.22,0.53-0.22s0.389,0.078,0.53,0.22l0.601,0.601
		c0.241-0.142,0.501-0.25,0.771-0.32V1.5c0-0.414,0.336-0.75,0.75-0.75S20,1.086,20,1.5v0.849c0.27,0.07,0.53,0.178,0.771,0.32
		l0.601-0.601c0.142-0.142,0.33-0.22,0.53-0.22s0.389,0.078,0.53,0.22c0.142,0.141,0.22,0.33,0.22,0.53s-0.078,0.389-0.22,0.53
		l-0.601,0.601c0.142,0.241,0.25,0.501,0.32,0.771H23c0.414,0,0.75,0.336,0.75,0.75S23.414,6,23,6h-0.848
		c-0.07,0.27-0.178,0.53-0.32,0.771l0.601,0.601c0.142,0.141,0.22,0.33,0.22,0.53s-0.078,0.389-0.22,0.53s-0.33,0.22-0.53,0.22
		s-0.389-0.078-0.53-0.22l-0.601-0.601C20.53,7.974,20.27,8.081,20,8.151V9C20,9.414,19.664,9.75,19.25,9.75z M19.25,3.75
		c-0.827,0-1.5,0.673-1.5,1.5s0.673,1.5,1.5,1.5s1.5-0.673,1.5-1.5S20.077,3.75,19.25,3.75z"/>
</g>
</svg>
