<?xml version="1.0" encoding="utf-8"?>
<!-- Generator: Adobe Illustrator 22.1.0, SVG Export Plug-In . SVG Version: 6.00 Build 0)  -->
<svg version="1.1" id="Layer_1" xmlns="http://www.w3.org/2000/svg" xmlns:xlink="http://www.w3.org/1999/xlink" x="0px" y="0px"
	 viewBox="0 0 24 24" style="enable-background:new 0 0 24 24;" xml:space="preserve">
<title>astrology-pisces</title>
<g>
	<path d="M5.273,12.75c-2.895,0-5.25-2.355-5.25-5.25s2.355-5.25,5.25-5.25h18c0.414,0,0.75,0.336,0.75,0.75s-0.336,0.75-0.75,0.75
		H8.94c1.006,0.978,1.583,2.317,1.583,3.75C10.523,10.395,8.168,12.75,5.273,12.75z M5.273,3.75c-2.068,0-3.75,1.682-3.75,3.75
		s1.682,3.75,3.75,3.75s3.75-1.682,3.75-3.75S7.341,3.75,5.273,3.75z"/>
	<path d="M0.773,21.75c-0.414,0-0.75-0.336-0.75-0.75s0.336-0.75,0.75-0.75h14.333c-1.006-0.978-1.583-2.317-1.583-3.75
		c0-2.895,2.355-5.25,5.25-5.25s5.25,2.355,5.25,5.25s-2.355,5.25-5.25,5.25H0.773z M18.773,12.75c-2.068,0-3.75,1.682-3.75,3.75
		s1.682,3.75,3.75,3.75s3.75-1.682,3.75-3.75S20.841,12.75,18.773,12.75z"/>
</g>
</svg>
