<?xml version="1.0" encoding="utf-8"?>
<!-- Generator: Adobe Illustrator 22.1.0, SVG Export Plug-In . SVG Version: 6.00 Build 0)  -->
<svg version="1.1" id="Layer_1" xmlns="http://www.w3.org/2000/svg" xmlns:xlink="http://www.w3.org/1999/xlink" x="0px" y="0px"
	 viewBox="0 0 24 24" style="enable-background:new 0 0 24 24;" xml:space="preserve">
<title>astrology-virgo</title>
<g>
	<path d="M20.594,23.5c-0.915,0-1.776-0.357-2.424-1.006c-0.648-0.648-1.005-1.509-1.004-2.423v-0.397l-1.874,2.46
		c-0.143,0.188-0.36,0.295-0.597,0.295c-0.166,0-0.323-0.053-0.454-0.154c-0.329-0.25-0.393-0.722-0.142-1.051l3.068-4.026V5.607
		c0-1.95-1.586-3.536-3.536-3.536s-3.536,1.586-3.536,3.536V19c0,0.414-0.336,0.75-0.75,0.75s-0.75-0.336-0.75-0.75V5.607
		c0-1.95-1.586-3.536-3.536-3.536c-1.949,0-3.535,1.586-3.535,3.535V19c0,0.414-0.336,0.75-0.75,0.75s-0.75-0.336-0.75-0.75V5.607
		c0-2.777,2.259-5.036,5.035-5.036c1.765,0,3.377,0.919,4.286,2.394c0.909-1.475,2.521-2.394,4.286-2.394
		c2.777,0,5.036,2.259,5.036,5.036v0.322h1.803c1.958,0,3.55,1.593,3.55,3.55c0,0.774-0.258,1.539-0.728,2.155l-4.625,6.071v2.366
		c0,0.515,0.2,0.999,0.564,1.364C19.594,21.799,20.078,22,20.594,22c1.064,0,1.93-0.865,1.93-1.929v-0.535
		c0-0.414,0.336-0.75,0.75-0.75s0.75,0.336,0.75,0.75v0.535C24.023,21.962,22.485,23.5,20.594,23.5L20.594,23.5z M18.666,15.23
		l3.432-4.505c0.272-0.356,0.421-0.798,0.421-1.245c0-1.131-0.92-2.051-2.05-2.051h-1.803V15.23z"/>
</g>
</svg>
