<?xml version="1.0" encoding="utf-8"?>
<!-- Generator: Adobe Illustrator 22.1.0, SVG Export Plug-In . SVG Version: 6.00 Build 0)  -->
<svg version="1.1" id="Layer_1" xmlns="http://www.w3.org/2000/svg" xmlns:xlink="http://www.w3.org/1999/xlink" x="0px" y="0px"
	 viewBox="0 0 24 24" style="enable-background:new 0 0 24 24;" xml:space="preserve">
<title>astrology-aquarius</title>
<g>
	<path d="M17.645,10.436c-0.476,0-0.919-0.188-1.248-0.53l-4.234-4.419c-0.034-0.033-0.082-0.052-0.144-0.052
		c-0.07,0.001-0.125,0.026-0.168,0.07L7.602,9.938c-0.334,0.322-0.76,0.493-1.209,0.493c0,0,0,0,0,0
		c-0.476,0-0.919-0.188-1.247-0.53L0.231,4.767C0.092,4.622,0.018,4.432,0.023,4.232c0.004-0.2,0.086-0.387,0.231-0.526
		c0.14-0.134,0.324-0.208,0.518-0.208c0.204,0,0.401,0.084,0.542,0.232l4.913,5.132C6.27,8.906,6.329,8.931,6.392,8.931
		c0.06,0,0.117-0.023,0.16-0.064l4.217-4.4c0.329-0.343,0.772-0.532,1.249-0.532c0.448,0,0.874,0.171,1.196,0.48l0.043,0.042
		l4.223,4.409c0.043,0.045,0.102,0.069,0.165,0.069c0.06,0,0.116-0.023,0.159-0.064l4.928-5.143
		c0.141-0.147,0.338-0.231,0.542-0.231c0.194,0,0.379,0.074,0.519,0.209c0.298,0.286,0.309,0.762,0.022,1.06l-4.96,5.175
		C18.52,10.264,18.094,10.436,17.645,10.436z"/>
	<path d="M6.392,20.213c-0.476,0-0.919-0.188-1.247-0.531L0.231,14.55c-0.138-0.145-0.212-0.334-0.208-0.535
		c0.004-0.2,0.087-0.387,0.231-0.526c0.14-0.134,0.325-0.208,0.519-0.208c0.203,0,0.401,0.084,0.542,0.231l4.913,5.131
		c0.043,0.045,0.102,0.07,0.165,0.07c0.06,0,0.116-0.023,0.158-0.063l4.217-4.406c0.32-0.334,0.75-0.523,1.212-0.532l0.044,0
		c0.443,0,0.866,0.171,1.189,0.482l0.042,0.042l4.223,4.409c0.043,0.045,0.102,0.069,0.165,0.069c0.06,0,0.117-0.023,0.16-0.064
		l4.927-5.139c0.141-0.147,0.338-0.231,0.541-0.231c0.194,0,0.379,0.074,0.519,0.208c0.299,0.286,0.309,0.762,0.023,1.061
		l-4.959,5.169c-0.335,0.323-0.762,0.494-1.212,0.494l0,0c-0.475,0-0.918-0.188-1.247-0.53l-4.232-4.417
		c-0.034-0.032-0.091-0.053-0.164-0.054c-0.051,0.001-0.107,0.026-0.15,0.07l-4.249,4.438C7.267,20.042,6.841,20.213,6.392,20.213z"
		/>
</g>
</svg>
