<?xml version="1.0" encoding="utf-8"?>
<!-- Generator: Adobe Illustrator 22.1.0, SVG Export Plug-In . SVG Version: 6.00 Build 0)  -->
<svg version="1.1" id="Layer_1" xmlns="http://www.w3.org/2000/svg" xmlns:xlink="http://www.w3.org/1999/xlink" x="0px" y="0px"
	 viewBox="0 0 24 24" style="enable-background:new 0 0 24 24;" xml:space="preserve">
<title>astrology-scorpio</title>
<g>
	<path d="M18.871,22.565c-1.762,0-3.196-1.433-3.196-3.195V6.163C15.675,4.419,14.256,3,12.512,3C10.769,3,9.35,4.419,9.35,6.163
		v12.228c0,0.414-0.336,0.75-0.75,0.75s-0.75-0.336-0.75-0.75V6.163C7.85,4.419,6.431,3,4.687,3C2.943,3,1.523,4.419,1.523,6.163
		v12.228c0,0.414-0.336,0.75-0.75,0.75s-0.75-0.336-0.75-0.75V6.163c0-2.571,2.092-4.663,4.663-4.663
		c1.593,0,3.062,0.819,3.914,2.135C9.451,2.319,10.92,1.5,12.512,1.5c2.571,0,4.663,2.092,4.663,4.663V19.37
		c0,0.935,0.761,1.695,1.696,1.695c0.935,0,1.695-0.76,1.695-1.695v-0.635L19.89,19.41c-0.142,0.142-0.33,0.22-0.53,0.22
		s-0.389-0.078-0.53-0.22s-0.22-0.33-0.22-0.53s0.078-0.389,0.22-0.53l1.956-1.956c0.07-0.07,0.152-0.125,0.245-0.163
		c0.008-0.003,0.017-0.007,0.026-0.01c0.082-0.031,0.17-0.047,0.259-0.047c0.087,0,0.174,0.016,0.258,0.047
		c0.006,0.002,0.011,0.004,0.016,0.006c0.104,0.042,0.186,0.097,0.256,0.167l1.957,1.956c0.142,0.141,0.22,0.33,0.22,0.53
		c0,0.2-0.078,0.389-0.22,0.53s-0.33,0.22-0.53,0.22s-0.389-0.078-0.53-0.22l-0.677-0.676v0.636
		C22.066,21.132,20.633,22.565,18.871,22.565z"/>
</g>
</svg>
