<?xml version="1.0" encoding="utf-8"?>
<!-- Generator: Adobe Illustrator 22.1.0, SVG Export Plug-In . SVG Version: 6.00 Build 0)  -->
<svg version="1.1" id="Regular" xmlns="http://www.w3.org/2000/svg" xmlns:xlink="http://www.w3.org/1999/xlink" x="0px" y="0px"
	 viewBox="0 0 24 24" style="enable-background:new 0 0 24 24;" xml:space="preserve">
<title>athletics-running</title>
<g>
	<path d="M21,4.5c-0.414,0-0.75-0.336-0.75-0.75S20.586,3,21,3h2.25C23.664,3,24,3.336,24,3.75S23.664,4.5,23.25,4.5H21z"/>
	<path d="M19.5,8.25c-0.414,0-0.75-0.336-0.75-0.75s0.336-0.75,0.75-0.75h3.75C23.664,6.75,24,7.086,24,7.5s-0.336,0.75-0.75,0.75
		H19.5z"/>
	<path d="M10.5,24C4.71,24,0,19.29,0,13.5C0,7.71,4.71,3,10.5,3h0.75C11.664,3,12,3.336,12,3.75S11.664,4.5,11.25,4.5H10.5
		c-4.963,0-9,4.037-9,9s4.037,9,9,9h3v-2.25h-3c-3.722,0-6.75-3.028-6.75-6.75s3.028-6.75,6.75-6.75h0.75
		C11.664,6.75,12,7.086,12,7.5s-0.336,0.75-0.75,0.75H10.5c-2.895,0-5.25,2.355-5.25,5.25c0,2.895,2.355,5.25,5.25,5.25h3V16.5h-3
		c-1.654,0-3-1.346-3-3c0-1.654,1.346-3,3-3h3V0.75c0-0.29,0.17-0.556,0.432-0.679C14.032,0.024,14.139,0,14.25,0
		c0.175,0,0.346,0.062,0.48,0.174l4.5,3.75c0.181,0.151,0.282,0.381,0.269,0.616c-0.013,0.235-0.137,0.453-0.333,0.584L15,7.901
		V10.5h8.25c0.414,0,0.75,0.336,0.75,0.75S23.664,12,23.25,12H10.5C9.673,12,9,12.673,9,13.5S9.673,15,10.5,15h12.75
		c0.414,0,0.75,0.336,0.75,0.75s-0.336,0.75-0.75,0.75H15v2.25h8.25c0.414,0,0.75,0.336,0.75,0.75s-0.336,0.75-0.75,0.75H15v2.25
		h8.25c0.414,0,0.75,0.336,0.75,0.75S23.664,24,23.25,24H10.5z M15,6.099l2.498-1.666L15,2.351V6.099z"/>
</g>
</svg>
