<?xml version="1.0" encoding="utf-8"?>
<!-- Generator: Adobe Illustrator 22.1.0, SVG Export Plug-In . SVG Version: 6.00 Build 0)  -->
<svg version="1.1" id="Regular" xmlns="http://www.w3.org/2000/svg" xmlns:xlink="http://www.w3.org/1999/xlink" x="0px" y="0px"
	 viewBox="0 0 24 24" style="enable-background:new 0 0 24 24;" xml:space="preserve">
<title>athletics-team-running</title>
<g>
	<path d="M12.749,6.75c-1.861,0-3.375-1.514-3.375-3.375S10.888,0,12.749,0c1.861,0,3.375,1.514,3.375,3.375S14.61,6.75,12.749,6.75
		z M12.749,1.5c-1.034,0-1.875,0.841-1.875,1.875s0.841,1.875,1.875,1.875c1.034,0,1.875-0.841,1.875-1.875S13.783,1.5,12.749,1.5z"
		/>
	<path d="M13.495,24.039c-0.113,0-0.226-0.009-0.337-0.025c-1.226-0.183-2.076-1.33-1.893-2.557l0.428-3.432
		c0.048-0.366-0.181-0.714-0.533-0.812l-0.066-0.019c-0.803,1.4-2.209,2.355-3.818,2.577l-3.211,0.458
		C3.96,20.243,3.854,20.25,3.748,20.25c-1.112,0-2.07-0.831-2.228-1.932c-0.085-0.594,0.066-1.187,0.427-1.668
		c0.36-0.481,0.887-0.793,1.482-0.878l3.214-0.459c0.306-0.042,0.557-0.272,0.625-0.571l1.041-3.63l-1.078-0.155
		c-0.081-0.014-0.15-0.021-0.218-0.021c-0.519,0-0.965,0.35-1.084,0.851c-0.251,1.002-1.143,1.704-2.168,1.712
		c-0.189,0-0.373-0.023-0.551-0.067c-0.585-0.147-1.077-0.511-1.386-1.027c-0.309-0.515-0.398-1.12-0.252-1.703
		C2.183,8.234,4.48,6.441,7.033,6.441c0.291,0,0.584,0.023,0.871,0.069l8.135,1.166c0.111,0.019,0.213,0.027,0.314,0.027
		c0.833,0,1.528-0.572,1.689-1.392c0.055-0.269,0.155-0.52,0.298-0.748l-1.024-2.253c-0.171-0.376-0.004-0.822,0.372-0.993
		c0.099-0.045,0.203-0.067,0.31-0.067c0.294,0,0.562,0.173,0.683,0.44l0.872,1.919c0.223-0.073,0.457-0.11,0.691-0.11
		c0.149,0,0.3,0.015,0.447,0.045c1.214,0.243,2.006,1.43,1.764,2.646c-0.145,0.732-0.414,1.42-0.798,2.048l0.774,1.703
		c0.171,0.376,0.004,0.822-0.372,0.993C21.961,11.978,21.856,12,21.749,12c-0.294,0-0.562-0.173-0.683-0.44L20.6,10.534
		c-1.144,1.068-2.659,1.671-4.237,1.671c-0.33,0-0.664-0.026-0.993-0.079l-2.561-0.367l-0.33,1.144
		c2.432,0.73,4.01,3.158,3.678,5.685c0,0-0.436,3.493-0.441,3.529c-0.089,0.597-0.404,1.122-0.887,1.479
		C14.439,23.886,13.978,24.039,13.495,24.039z M10.699,15.55c0.069,0,0.139,0.01,0.206,0.029l0.664,0.19
		c1.062,0.297,1.756,1.349,1.612,2.446l-0.43,3.445c-0.063,0.423,0.22,0.809,0.629,0.87c0.036,0.005,0.073,0.008,0.11,0.008
		c0.369,0,0.688-0.275,0.743-0.639l0.437-3.5c0.239-1.826-0.915-3.578-2.684-4.076l-0.641-0.183
		c-0.193-0.055-0.353-0.182-0.45-0.357c-0.097-0.176-0.12-0.379-0.065-0.572l0.72-2.494c0.092-0.319,0.387-0.542,0.719-0.542
		c0.036,0,0.073,0.003,0.109,0.008l3.217,0.461c0.257,0.041,0.512,0.061,0.764,0.061c2.242,0,4.188-1.601,4.625-3.807
		c0.081-0.404-0.181-0.799-0.585-0.882c-0.008-0.001-0.015-0.003-0.022-0.005c-0.034-0.007-0.084-0.012-0.135-0.012
		c-0.351,0-0.657,0.25-0.727,0.596c-0.297,1.511-1.625,2.61-3.155,2.61c-0.184,0-0.37-0.016-0.553-0.047L7.68,7.993
		C7.463,7.958,7.247,7.941,7.034,7.941c-1.874,0-3.559,1.314-4.007,3.124c-0.049,0.196-0.02,0.399,0.083,0.57
		s0.266,0.293,0.461,0.342C3.631,11.992,3.694,12,3.757,12c0.336-0.002,0.632-0.236,0.715-0.567
		c0.279-1.174,1.322-1.997,2.534-1.997c0.155,0,0.311,0.014,0.464,0.042L9.374,9.75c0.215,0.031,0.405,0.153,0.523,0.335
		c0.118,0.182,0.151,0.406,0.091,0.614L8.72,15.115c-0.196,0.871-0.949,1.556-1.868,1.684l-3.211,0.459
		c-0.198,0.028-0.374,0.132-0.494,0.292s-0.171,0.358-0.142,0.556c0.053,0.367,0.371,0.645,0.74,0.645
		c0.036,0,0.071-0.002,0.107-0.008l3.216-0.458c1.31-0.18,2.435-1.05,2.937-2.27C10.122,15.733,10.394,15.55,10.699,15.55z"/>
</g>
</svg>
