<?xml version="1.0" encoding="utf-8"?>
<!-- Generator: Adobe Illustrator 22.1.0, SVG Export Plug-In . SVG Version: 6.00 Build 0)  -->
<svg version="1.1" id="Regular" xmlns="http://www.w3.org/2000/svg" xmlns:xlink="http://www.w3.org/1999/xlink" x="0px" y="0px"
	 viewBox="0 0 24 24" style="enable-background:new 0 0 24 24;" xml:space="preserve">
<title>athletics-discus-throwing</title>
<g>
	<path d="M16.244,7.75c-1.861,0-3.375-1.514-3.375-3.375S14.383,1,16.244,1s3.375,1.514,3.375,3.375S18.105,7.75,16.244,7.75z
		 M16.244,2.5c-1.034,0-1.875,0.841-1.875,1.875S15.21,6.25,16.244,6.25s1.875-0.841,1.875-1.875S17.278,2.5,16.244,2.5z"/>
	<path d="M9.494,22.75c-0.601,0-1.166-0.234-1.591-0.659c-0.877-0.877-0.877-2.305,0-3.183l1.398-1.399l-0.513-2.569
		c-0.118-0.589,0.001-1.189,0.334-1.689l1.468-2.202L7.588,9.835C6.475,9.352,5.94,8.097,6.361,6.975
		c0.211-0.563,0.628-1.01,1.176-1.259c0.296-0.134,0.609-0.203,0.93-0.203c0.27,0,0.536,0.048,0.791,0.144l9.062,3.663
		c1.284,0.515,2.329,1.542,2.866,2.818c0.541,1.273,0.551,2.739,0.026,4.02c-0.002,0.008-0.018,0.047-0.034,0.084
		c-0.24,0.553-0.68,0.978-1.24,1.198c-0.265,0.104-0.543,0.157-0.825,0.157l0,0c-0.21,0-0.417-0.029-0.618-0.087V20.5
		c0,1.241-1.009,2.25-2.25,2.25s-2.25-1.009-2.25-2.25v-2.206c-0.011,0.575-0.242,1.13-0.659,1.547l-2.25,2.25
		C10.66,22.516,10.095,22.75,9.494,22.75z M8.468,7.013c-0.311,0-0.594,0.196-0.703,0.488c-0.14,0.374,0.037,0.792,0.403,0.951
		l3.838,1.552c0.21,0.085,0.369,0.258,0.435,0.474c0.067,0.217,0.033,0.449-0.093,0.637l-1.979,2.968
		c-0.111,0.167-0.151,0.367-0.112,0.563l0.592,2.962c0.049,0.246-0.027,0.5-0.205,0.677l-1.682,1.683
		c-0.293,0.293-0.293,0.769,0,1.062c0.142,0.142,0.33,0.22,0.531,0.22c0.2,0,0.389-0.078,0.531-0.22l2.25-2.25
		c0.177-0.178,0.254-0.431,0.205-0.678l-0.191-0.956c-0.055-0.274,0.046-0.554,0.263-0.729c0.133-0.108,0.301-0.167,0.472-0.167
		c0.102,0,0.201,0.02,0.294,0.06l1.721,0.739c0.276,0.119,0.454,0.39,0.454,0.689V20.5c0,0.414,0.336,0.75,0.75,0.75
		s0.75-0.336,0.75-0.75v-3.75c0-0.3-0.179-0.57-0.455-0.688l-3.592-1.54c-0.205-0.088-0.36-0.261-0.423-0.476
		c-0.064-0.214-0.029-0.444,0.094-0.63l1.322-1.983c0.139-0.209,0.373-0.334,0.624-0.334c0.097,0,0.192,0.019,0.282,0.055
		l2.343,0.947c0.557,0.225,0.993,0.653,1.228,1.207c0.235,0.554,0.241,1.165,0.016,1.721c-0.006,0.015-0.015,0.035-0.023,0.053
		c-0.066,0.155-0.067,0.358,0.005,0.541c0.073,0.187,0.215,0.333,0.398,0.413c0.096,0.042,0.197,0.063,0.299,0.063
		c0.094,0,0.186-0.018,0.275-0.052c0.186-0.073,0.333-0.215,0.413-0.399l0.014-0.035c0.381-0.932,0.376-1.98-0.01-2.889
		c-0.002-0.004-0.004-0.009-0.005-0.013c-0.385-0.904-1.127-1.632-2.04-1.998L8.713,7.055C8.641,7.028,8.555,7.013,8.468,7.013z
		 M16.983,14.62c0.02-0.057,0.042-0.114,0.066-0.169c0.14-0.376-0.042-0.806-0.422-0.959l-1.778-0.718l-0.483,0.725L16.983,14.62z"
		/>
	<path d="M4.402,9.684c-0.116,0-0.232-0.027-0.335-0.079c-0.896-0.449-1.563-1.219-1.879-2.17c-0.316-0.95-0.243-1.967,0.206-2.863
		c0.449-0.896,1.219-1.563,2.17-1.879C4.948,2.565,5.348,2.5,5.749,2.5c0.584,0,1.148,0.134,1.676,0.399
		C7.628,3,7.821,3.121,8.001,3.256c0.16,0.12,0.263,0.296,0.292,0.494C8.321,3.949,8.27,4.146,8.149,4.306
		C8.008,4.493,7.784,4.605,7.55,4.605l0,0c-0.164,0-0.32-0.052-0.451-0.151C6.991,4.373,6.874,4.301,6.753,4.24
		C6.436,4.081,6.098,4,5.748,4c-0.241,0-0.48,0.039-0.712,0.116c-0.57,0.19-1.033,0.59-1.302,1.127
		C3.465,5.781,3.421,6.391,3.611,6.962c0.19,0.57,0.59,1.033,1.127,1.302C5.108,8.449,5.258,8.9,5.073,9.27
		C4.945,9.525,4.687,9.684,4.402,9.684z"/>
</g>
</svg>
