<?xml version="1.0" encoding="utf-8"?>
<!-- Generator: Adobe Illustrator 22.1.0, SVG Export Plug-In . SVG Version: 6.00 Build 0)  -->
<svg version="1.1" id="Layer_1" xmlns="http://www.w3.org/2000/svg" xmlns:xlink="http://www.w3.org/1999/xlink" x="0px" y="0px"
	 viewBox="0 0 24 24" style="enable-background:new 0 0 24 24;" xml:space="preserve">
<title>auto-pilot-car-signal-1</title>
<g>
	<path d="M5.44,8.263c-0.246,0-0.476-0.12-0.616-0.322c-1.427-2.051-1.427-4.806,0-6.857c0.14-0.202,0.37-0.322,0.616-0.322
		c0.154,0,0.302,0.047,0.428,0.135c0.164,0.114,0.274,0.286,0.31,0.483C6.214,1.578,6.17,1.777,6.056,1.941
		c-1.07,1.538-1.07,3.605,0,5.143C6.17,7.249,6.214,7.448,6.178,7.645c-0.035,0.197-0.146,0.369-0.31,0.483
		C5.742,8.216,5.594,8.263,5.44,8.263z"/>
	<path d="M8.072,6.763c-0.213,0-0.417-0.091-0.559-0.25c-1.02-1.14-1.02-2.86,0-4c0.143-0.159,0.346-0.25,0.559-0.25
		c0.184,0,0.362,0.068,0.5,0.191C8.88,2.73,8.907,3.205,8.631,3.513c-0.51,0.57-0.51,1.43,0,2C8.907,5.821,8.88,6.296,8.572,6.572
		C8.434,6.695,8.257,6.763,8.072,6.763z"/>
	<path d="M18.558,8.263c-0.154,0-0.302-0.047-0.428-0.134c-0.164-0.114-0.274-0.286-0.31-0.483
		c-0.035-0.197,0.008-0.396,0.123-0.561c1.07-1.538,1.07-3.605,0-5.143c-0.236-0.34-0.152-0.808,0.188-1.044
		c0.126-0.088,0.274-0.134,0.428-0.134c0.245,0,0.476,0.12,0.616,0.322c1.427,2.051,1.427,4.806,0,6.857
		C19.033,8.143,18.803,8.263,18.558,8.263z"/>
	<path d="M15.926,6.763c-0.185,0-0.362-0.068-0.5-0.191c-0.308-0.276-0.334-0.751-0.059-1.059c0.51-0.57,0.51-1.43,0-2
		c-0.275-0.308-0.249-0.783,0.059-1.059c0.138-0.123,0.315-0.191,0.5-0.191c0.213,0,0.417,0.091,0.559,0.25c1.02,1.14,1.02,2.86,0,4
		C16.343,6.672,16.139,6.763,15.926,6.763z"/>
	<path d="M17.249,23.263c-1.37,0-2.564-0.947-2.902-2.25H9.651c-0.338,1.303-1.532,2.25-2.902,2.25s-2.564-0.947-2.902-2.25H2.999
		c-1.241,0-2.25-1.009-2.25-2.25c0-0.126,0.011-0.252,0.031-0.375c0.231-1.282,0.673-2.501,1.314-3.628
		c0.032-0.089,0.08-0.171,0.141-0.241c1.936-3.214,5.282-5.242,9.013-5.48V7.513c0-0.414,0.336-0.75,0.75-0.75
		c0.413,0,0.75,0.336,0.75,0.75v1.526c5.173,0.334,9.543,4.21,10.467,9.341c0.111,0.661-0.071,1.328-0.5,1.834
		c-0.008,0.01-0.021,0.024-0.034,0.038c-0.473,0.484-1.13,0.761-1.805,0.761h-0.727C19.813,22.316,18.619,23.263,17.249,23.263z
		 M17.249,18.763c-0.827,0-1.5,0.673-1.5,1.5s0.673,1.5,1.5,1.5s1.5-0.673,1.5-1.5S18.076,18.763,17.249,18.763z M6.749,18.763
		c-0.827,0-1.5,0.673-1.5,1.5s0.673,1.5,1.5,1.5s1.5-0.673,1.5-1.5S7.576,18.763,6.749,18.763z M20.875,19.513
		c0.264,0,0.526-0.107,0.712-0.288c0.131-0.166,0.186-0.379,0.15-0.588c-0.265-1.475-0.865-2.873-1.746-4.078
		c-0.376,0.726-1.128,1.203-1.993,1.203h-3c-1.241,0-2.25-1.009-2.25-2.25v-2.971c-0.252-0.019-0.498-0.029-0.736-0.029h-0.026
		c-0.922,0-1.836,0.128-2.721,0.381L8.471,14.06c-0.252,1.002-1.149,1.702-2.183,1.702H3.255c-0.48,0.905-0.815,1.874-0.997,2.883
		c-0.006,0.034-0.009,0.076-0.009,0.117c0,0.414,0.336,0.75,0.75,0.75h0.848c0.338-1.303,1.532-2.25,2.902-2.25
		s2.564,0.947,2.902,2.25h4.697c0.338-1.303,1.532-2.25,2.902-2.25s2.564,0.947,2.902,2.25
		C20.151,19.513,20.875,19.513,20.875,19.513z M14.249,13.513c0,0.414,0.336,0.75,0.75,0.75h3c0.373,0,0.689-0.274,0.742-0.642
		v-0.466c-1.271-1.181-2.813-2-4.492-2.387V13.513z M6.288,14.263c0.345,0,0.644-0.233,0.728-0.568l0.536-2.134
		c-1.292,0.647-2.421,1.566-3.318,2.702H6.288z"/>
</g>
</svg>
