<?xml version="1.0" encoding="utf-8"?>
<!-- Generator: Adobe Illustrator 22.1.0, SVG Export Plug-In . SVG Version: 6.00 Build 0)  -->
<svg version="1.1" id="Layer_1" xmlns="http://www.w3.org/2000/svg" xmlns:xlink="http://www.w3.org/1999/xlink" x="0px" y="0px"
	 viewBox="0 0 24 24" style="enable-background:new 0 0 24 24;" xml:space="preserve">
<title>baby-boy</title>
<g>
	<path d="M8.625,13.998c-0.044,0-0.088-0.004-0.13-0.011c-0.513-0.06-0.923-0.47-0.983-0.982C7.504,12.961,7.5,12.917,7.5,12.873
		s0.004-0.088,0.011-0.131c0.06-0.513,0.47-0.922,0.982-0.982c0.043-0.008,0.087-0.012,0.131-0.012s0.088,0.004,0.131,0.012
		c0.513,0.061,0.922,0.47,0.982,0.982c0.008,0.043,0.011,0.087,0.011,0.131s-0.004,0.088-0.011,0.131
		c-0.06,0.513-0.47,0.922-0.983,0.982C8.713,13.994,8.669,13.998,8.625,13.998z"/>
	<path d="M15.375,13.998c-0.044,0-0.088-0.004-0.131-0.011c-0.513-0.06-0.923-0.47-0.983-0.983c-0.007-0.042-0.011-0.086-0.011-0.13
		s0.004-0.088,0.011-0.131c0.06-0.513,0.47-0.922,0.982-0.983c0.043-0.008,0.087-0.011,0.131-0.011s0.088,0.004,0.131,0.011
		c0.513,0.06,0.922,0.47,0.982,0.983c0.008,0.042,0.011,0.086,0.011,0.131s-0.004,0.088-0.011,0.131
		c-0.06,0.513-0.47,0.923-0.983,0.983C15.463,13.994,15.419,13.998,15.375,13.998z"/>
	<path d="M12.005,23.757c-4.121,0-7.777-2.573-9.171-6.428C1.202,17.064,0,15.672,0,13.998c0-1.652,1.226-3.07,2.834-3.332
		c1.043-2.877,3.393-5.112,6.33-6.005c0.92-0.28,1.871-0.422,2.826-0.422c1.277,0,2.563,0.26,3.752,0.754
		c-0.004-1.242-0.626-2.429-1.669-3.122c-0.345-0.229-0.439-0.695-0.21-1.04c0.14-0.21,0.374-0.335,0.625-0.335
		c0.147,0,0.291,0.043,0.414,0.125c1.699,1.128,2.58,3.116,2.292,5.123c1.837,1.156,3.236,2.888,3.972,4.921
		C22.774,10.929,24,12.347,24,13.998s-1.226,3.069-2.834,3.332c-1.043,2.876-3.394,5.112-6.331,6.005
		C13.913,23.615,12.961,23.757,12.005,23.757L12.005,23.757z M7.255,7.244c-1.502,1.055-2.612,2.583-3.148,4.348
		c-0.097,0.318-0.385,0.532-0.718,0.532c-1.042,0-1.889,0.841-1.889,1.875s0.841,1.875,1.875,1.875c0.336,0,0.636,0.219,0.732,0.532
		c1.047,3.445,4.295,5.851,7.898,5.851c0.808,0,1.614-0.12,2.394-0.357c2.638-0.802,4.692-2.856,5.494-5.494
		c0.097-0.318,0.385-0.532,0.718-0.532c1.042,0,1.889-0.841,1.889-1.875s-0.841-1.875-1.875-1.875c-0.346,0-0.635-0.214-0.731-0.532
		c-0.536-1.762-1.648-3.291-3.153-4.346c-0.108,0.231-0.231,0.451-0.367,0.656c-0.975,1.468-2.613,2.345-4.382,2.345
		c-1.033,0-2.034-0.302-2.896-0.875C8.292,8.837,7.662,8.108,7.255,7.244z M8.563,6.492c0.288,0.661,0.763,1.232,1.362,1.63
		c0.615,0.408,1.33,0.624,2.068,0.624c1.264,0,2.435-0.626,3.131-1.675c0.118-0.178,0.222-0.371,0.31-0.577
		C14.354,6,13.173,5.74,11.995,5.74c-0.808,0-1.614,0.12-2.395,0.357C9.252,6.203,8.904,6.335,8.563,6.492z"/>
	<path d="M11.997,19.996c-1.293,0-2.535-0.474-3.498-1.335c-0.145-0.13-0.284-0.269-0.413-0.412
		c-0.134-0.149-0.201-0.342-0.19-0.542c0.011-0.2,0.099-0.384,0.249-0.518c0.137-0.124,0.315-0.192,0.5-0.192
		c0.213,0,0.417,0.091,0.559,0.25c0.092,0.103,0.192,0.202,0.295,0.295c0.687,0.615,1.574,0.953,2.498,0.953
		c1.068,0,2.088-0.455,2.797-1.248c0.143-0.159,0.347-0.25,0.559-0.25c0.184,0,0.362,0.068,0.5,0.19
		c0.308,0.276,0.335,0.751,0.059,1.059C14.919,19.359,13.492,19.996,11.997,19.996z"/>
</g>
</svg>
