<?xml version="1.0" encoding="utf-8"?>
<!-- Generator: Adobe Illustrator 22.1.0, SVG Export Plug-In . SVG Version: 6.00 Build 0)  -->
<svg version="1.1" id="Layer_1" xmlns="http://www.w3.org/2000/svg" xmlns:xlink="http://www.w3.org/1999/xlink" x="0px" y="0px"
	 viewBox="0 0 24 24" style="enable-background:new 0 0 24 24;" xml:space="preserve">
<title>baby-heart</title>
<g>
	<path d="M7.497,12c-0.569,0-1.112-0.182-1.57-0.525c-0.199-0.149-0.375-0.326-0.525-0.525c-0.248-0.331-0.181-0.802,0.15-1.05
		c0.131-0.098,0.286-0.15,0.45-0.15c0.235,0,0.46,0.112,0.6,0.3c0.064,0.085,0.14,0.161,0.225,0.225
		c0.196,0.147,0.429,0.224,0.673,0.224c0.359,0,0.688-0.164,0.902-0.449c0.141-0.188,0.365-0.3,0.6-0.3
		c0.163,0,0.319,0.052,0.45,0.15c0.331,0.248,0.398,0.719,0.15,1.05c-0.421,0.561-1.035,0.924-1.729,1.024
		C7.748,11.991,7.622,12,7.497,12z"/>
	<path d="M7.776,24c-4.231,0-7.646-3.313-7.774-7.542l0-8.958c0-0.051,0.006-0.102,0.017-0.155c0.041-1.944,0.82-3.769,2.197-5.142
		C3.63,0.791,5.51,0.014,7.508,0.014c2.01,0.002,3.891,0.783,5.304,2.2c1.414,1.417,2.191,3.299,2.189,5.301
		c-0.001,0.848-0.144,1.684-0.426,2.484c-0.106,0.3-0.39,0.501-0.708,0.501c-0.085,0-0.168-0.014-0.249-0.043
		c-0.39-0.138-0.596-0.567-0.458-0.957c0.226-0.64,0.341-1.309,0.341-1.987c0.002-1.601-0.62-3.107-1.751-4.24
		s-2.635-1.758-4.236-1.76c-1.605,0-3.108,0.622-4.24,1.751C2.142,4.396,1.517,5.9,1.516,7.501c-0.002,1.601,0.62,3.107,1.751,4.24
		s2.635,1.758,4.236,1.76c0.226,0,0.448-0.012,0.667-0.036c0.028-0.003,0.055-0.004,0.082-0.004c0.383,0,0.704,0.287,0.746,0.668
		c0.045,0.411-0.253,0.782-0.663,0.828C8.06,14.985,7.783,15,7.508,15c-2.009-0.002-3.89-0.783-5.303-2.2
		c-0.254-0.255-0.489-0.526-0.703-0.813v2.582l6.992,4.078c0.357,0.209,0.478,0.669,0.27,1.026c-0.134,0.23-0.382,0.372-0.648,0.372
		c-0.132,0-0.263-0.035-0.378-0.102l-6.236-3.637v0.129C1.605,19.831,4.361,22.5,7.776,22.5c0.005,0,0.01,0,0.015,0
		c1.083-0.002,2.166-0.247,3.138-0.709c0.102-0.048,0.21-0.073,0.322-0.073c0.288,0,0.554,0.168,0.677,0.428
		c0.086,0.181,0.097,0.385,0.03,0.573c-0.067,0.189-0.204,0.34-0.385,0.426C10.398,23.704,9.089,24,7.788,24H7.776z"/>
	<path d="M17.252,24c-0.203,0-0.4-0.084-0.541-0.231l-5.114-5.335c-1.143-1.142-1.424-2.891-0.695-4.347
		c0.451-0.902,1.226-1.574,2.182-1.893c0.389-0.13,0.792-0.196,1.197-0.196c0.587,0,1.154,0.135,1.685,0.4
		c0.365,0.182,0.695,0.421,0.982,0.708l0.304,0.305l0.305-0.305C18.269,12.393,19.218,12,20.226,12s1.957,0.393,2.67,1.106
		c0.287,0.286,0.525,0.616,0.707,0.981c0.728,1.456,0.443,3.207-0.708,4.358l-5.103,5.324C17.652,23.916,17.455,24,17.252,24z
		 M14.28,13.499c-0.244,0-0.487,0.04-0.722,0.118c-0.577,0.192-1.044,0.597-1.315,1.141c-0.44,0.877-0.269,1.933,0.425,2.626
		l4.584,4.782l4.573-4.77c0.703-0.703,0.876-1.76,0.438-2.637c-0.11-0.219-0.253-0.418-0.426-0.591
		c-0.43-0.43-1.002-0.667-1.61-0.667s-1.179,0.237-1.609,0.667l-0.835,0.835c-0.142,0.142-0.33,0.22-0.53,0.22
		s-0.389-0.078-0.53-0.22l-0.835-0.835c-0.174-0.174-0.373-0.317-0.592-0.427C14.974,13.581,14.633,13.499,14.28,13.499z"/>
	<path d="M11.254,6.75c-0.268,0-0.517-0.144-0.65-0.376c-0.066-0.115-0.161-0.21-0.276-0.276c-0.114-0.065-0.242-0.1-0.372-0.1
		c-0.269,0-0.519,0.144-0.652,0.376C9.17,6.606,8.921,6.75,8.653,6.75l0,0c-0.131,0-0.26-0.035-0.374-0.1
		c-0.174-0.1-0.298-0.261-0.35-0.455C7.877,6.001,7.904,5.799,8.004,5.626c0.4-0.695,1.148-1.127,1.953-1.127
		c0.392,0,0.779,0.104,1.12,0.3c0.344,0.198,0.63,0.484,0.828,0.828c0.1,0.174,0.126,0.376,0.074,0.569
		c-0.052,0.193-0.177,0.355-0.35,0.455C11.513,6.715,11.384,6.75,11.254,6.75z"/>
	<path d="M6.352,6.75c-0.268,0-0.517-0.144-0.65-0.376C5.636,6.26,5.54,6.164,5.426,6.098c-0.113-0.065-0.242-0.1-0.372-0.1
		c-0.269,0-0.519,0.144-0.652,0.376C4.268,6.606,4.019,6.75,3.751,6.75c-0.131,0-0.26-0.035-0.374-0.1
		c-0.174-0.1-0.298-0.261-0.35-0.455C2.975,6.001,3.002,5.799,3.102,5.626c0.4-0.695,1.148-1.127,1.953-1.127
		c0.392,0,0.779,0.104,1.12,0.3c0.344,0.198,0.63,0.484,0.828,0.828C7.208,5.984,7.084,6.444,6.726,6.65
		C6.611,6.715,6.482,6.75,6.352,6.75z"/>
</g>
</svg>
