<?xml version="1.0" encoding="utf-8"?>
<!-- Generator: Adobe Illustrator 22.1.0, SVG Export Plug-In . SVG Version: 6.00 Build 0)  -->
<svg version="1.1" id="Layer_1" xmlns="http://www.w3.org/2000/svg" xmlns:xlink="http://www.w3.org/1999/xlink" x="0px" y="0px"
	 viewBox="0 0 24 24" style="enable-background:new 0 0 24 24;" xml:space="preserve">
<title>baby-care-bottle</title>
<g>
	<path d="M2.864,24.016c-0.785-0.008-1.51-0.316-2.052-0.869c-0.542-0.553-0.837-1.283-0.829-2.058s0.316-1.499,0.869-2.042
		c0.781-0.781,1.156-1.906,0.999-3.005c-0.169-1.044-0.006-2.105,0.471-3.061l0.177-0.353c-0.787-0.978-0.728-2.4,0.168-3.298
		c0.005-0.006,0.011-0.011,0.017-0.016c0.451-0.451,1.07-0.707,1.729-0.707c0.402,0,0.791,0.095,1.141,0.278l1.947-1.949
		c0.01-0.013,0.02-0.025,0.03-0.036c0.016-0.016,0.032-0.03,0.047-0.041l2.372-2.375c0.005-0.006,0.011-0.012,0.017-0.018
		c0.006-0.006,0.012-0.011,0.018-0.017l3.784-3.789C14.192,0.234,14.756,0,15.358,0c0.598,0,1.16,0.232,1.583,0.653
		c0.004,0.004,6.406,6.406,6.406,6.406c0.424,0.423,0.657,0.986,0.658,1.585c0,0.596-0.23,1.158-0.651,1.581l-8.23,8.231
		c0.178,0.346,0.272,0.73,0.272,1.125c0,0.66-0.256,1.28-0.722,1.747c-0.466,0.467-1.086,0.724-1.748,0.724
		c-0.574,0-1.118-0.194-1.557-0.551l-0.352,0.176c-0.711,0.355-1.47,0.535-2.259,0.535c-0.271,0-0.546-0.022-0.816-0.066
		c-0.154-0.022-0.318-0.033-0.482-0.033c-0.938,0-1.855,0.379-2.515,1.039l-0.034,0.033c-0.547,0.536-1.267,0.831-2.03,0.831
		C2.882,24.016,2.866,24.016,2.864,24.016z M3.611,13.761c-0.296,0.644-0.392,1.352-0.278,2.055
		c0.225,1.575-0.309,3.179-1.426,4.297c-0.271,0.266-0.421,0.616-0.425,0.99s0.138,0.726,0.4,0.993
		c0.262,0.267,0.612,0.416,0.985,0.42c0.383-0.002,0.728-0.14,0.993-0.4l0.024-0.023c0.94-0.939,2.245-1.479,3.581-1.479
		c0.235,0,0.471,0.017,0.703,0.05c0.201,0.032,0.397,0.048,0.59,0.048c0.514,0,1.011-0.109,1.479-0.324L3.611,13.761z
		 M12.002,20.031c0.025,0.022,0.048,0.046,0.07,0.071l0.17,0.169c0.182,0.182,0.425,0.282,0.684,0.282
		c0.26,0,0.504-0.101,0.687-0.284c0.183-0.183,0.283-0.427,0.283-0.686c0-0.259-0.102-0.502-0.285-0.685l-8.51-8.51
		c-0.182-0.182-0.426-0.283-0.685-0.283c-0.259,0-0.502,0.1-0.684,0.282c-0.006,0.006-0.015,0.015-0.025,0.024
		c-0.355,0.364-0.345,0.98,0.024,1.348l0.177,0.177c0.022,0.02,0.042,0.04,0.062,0.062L12.002,20.031z M14.148,17.31l8.134-8.135
		c0.146-0.146,0.223-0.332,0.222-0.531c0-0.198-0.077-0.385-0.218-0.525l-6.401-6.4c-0.145-0.144-0.329-0.22-0.526-0.22
		c-0.2,0-0.388,0.078-0.528,0.219l-3.273,3.277l1.9,1.9c0.142,0.141,0.22,0.33,0.22,0.53s-0.078,0.389-0.22,0.53
		s-0.33,0.22-0.53,0.22s-0.389-0.078-0.53-0.22l-1.9-1.9l-1.37,1.371l1.899,1.898c0.292,0.292,0.292,0.768,0,1.061
		c-0.142,0.142-0.33,0.22-0.531,0.22c-0.2,0-0.388-0.078-0.53-0.219L8.068,8.49l-1.37,1.371L14.148,17.31z"/>
</g>
</svg>
