<?xml version="1.0" encoding="utf-8"?>
<!-- Generator: Adobe Illustrator 22.1.0, SVG Export Plug-In . SVG Version: 6.00 Build 0)  -->
<svg version="1.1" id="Layer_1" xmlns="http://www.w3.org/2000/svg" xmlns:xlink="http://www.w3.org/1999/xlink" x="0px" y="0px"
	 viewBox="0 0 24 24" style="enable-background:new 0 0 24 24;" xml:space="preserve">
<title>baby-care-diaper</title>
<g>
	<path d="M12,23c-1.654,0-3.26-0.334-4.774-0.993c-0.062-0.019-0.12-0.045-0.173-0.078c-3.328-1.512-5.832-4.521-6.703-8.058
		c-0.016-0.046-0.027-0.094-0.034-0.146C0.106,12.827,0,11.91,0,11V2.75c0-0.827,0.673-1.5,1.5-1.5h21c0.827,0,1.5,0.673,1.5,1.5V11
		c0,0.91-0.106,1.826-0.316,2.725c-0.007,0.052-0.018,0.1-0.034,0.146c-0.872,3.537-3.375,6.546-6.704,8.058
		c-0.001,0.001-0.002,0.001-0.003,0.002c-0.048,0.03-0.106,0.057-0.17,0.076C15.26,22.666,13.654,23,12,23z M8.499,20.897
		C9.625,21.297,10.801,21.5,12,21.5c1.2,0,2.376-0.203,3.503-0.604c-0.512-1.173-0.637-2.485-0.349-3.738
		c0.359-1.563,1.306-2.892,2.665-3.743c0.952-0.596,2.053-0.912,3.186-0.912c0.461,0,0.918,0.052,1.364,0.156
		C22.456,12.11,22.5,11.554,22.5,11v-0.75h-3c-0.414,0-0.75-0.336-0.75-0.75s0.336-0.75,0.75-0.75h3V6.5h-3.75
		C18.336,6.5,18,6.164,18,5.75S18.336,5,18.75,5h3.75V2.75h-21V5h3.75C5.664,5,6,5.336,6,5.75S5.664,6.5,5.25,6.5H1.5v2.25h3
		c0.414,0,0.75,0.336,0.75,0.75s-0.336,0.75-0.75,0.75h-3V11c0,0.554,0.044,1.11,0.132,1.66c0.446-0.104,0.903-0.156,1.363-0.156
		c1.132,0,2.234,0.315,3.186,0.911C8.699,14.991,9.668,18.209,8.499,20.897z M21.006,14.003c-0.85,0-1.677,0.237-2.392,0.684
		c-1.019,0.638-1.729,1.635-1.999,2.807c-0.216,0.94-0.122,1.922,0.263,2.802c2.469-1.3,4.319-3.52,5.146-6.177
		C21.692,14.042,21.35,14.003,21.006,14.003z M1.975,14.119c0.828,2.657,2.677,4.877,5.145,6.177
		c0.879-2.018,0.158-4.424-1.735-5.609c-0.714-0.448-1.541-0.684-2.391-0.684C2.65,14.003,2.309,14.042,1.975,14.119z"/>
	<path d="M11.983,14c-0.361-0.008-0.685-0.148-0.929-0.395L7.57,10.493c-0.016-0.014-0.03-0.028-0.043-0.042
		c-1.038-1.087-1.038-2.792,0.001-3.88c0.029-0.03,0.059-0.06,0.089-0.089C8.112,6.01,8.76,5.75,9.441,5.75L9.51,5.75
		c0.707,0.017,1.366,0.309,1.854,0.821L12,7.229l0.64-0.662c0.024-0.026,0.055-0.057,0.087-0.087
		c0.494-0.471,1.142-0.731,1.822-0.731l0.07,0.001c0.707,0.017,1.365,0.309,1.854,0.821c1.039,1.088,1.039,2.792,0,3.88
		c-0.014,0.015-0.03,0.03-0.046,0.045L12.91,13.64C12.67,13.869,12.344,14,12,14C11.999,14,11.985,14,11.983,14z M12,12.44
		l3.406-3.043c0.466-0.507,0.459-1.29-0.018-1.79c-0.212-0.223-0.498-0.349-0.805-0.357l-0.031,0c-0.299,0-0.572,0.11-0.79,0.317
		c-0.015,0.014-0.028,0.027-0.041,0.041l-1.181,1.222C12.401,8.972,12.205,9.053,12,9.053s-0.401-0.082-0.539-0.224L10.282,7.61
		C10.06,7.378,9.763,7.25,9.444,7.25c-0.297,0-0.578,0.112-0.792,0.317c-0.013,0.012-0.026,0.026-0.04,0.04
		c-0.477,0.5-0.484,1.283-0.018,1.79L12,12.44z"/>
</g>
</svg>
