<?xml version="1.0" encoding="utf-8"?>
<!-- Generator: Adobe Illustrator 22.1.0, SVG Export Plug-In . SVG Version: 6.00 Build 0)  -->
<svg version="1.1" id="Layer_1" xmlns="http://www.w3.org/2000/svg" xmlns:xlink="http://www.w3.org/1999/xlink" x="0px" y="0px"
	 viewBox="0 0 24 24" style="enable-background:new 0 0 24 24;" xml:space="preserve">
<title>baby-care-clothes</title>
<g>
	<path d="M16.875,24c-1.861,0-3.375-1.514-3.375-3.375V17.25c0-0.827-0.673-1.5-1.5-1.5s-1.5,0.673-1.5,1.5v3.375
		C10.5,22.486,8.986,24,7.125,24S3.75,22.486,3.75,20.625V9h-1.5C1.009,9,0,7.991,0,6.75V4.04c0-0.934,0.588-1.781,1.463-2.108
		L2.515,1.54c1.394-0.52,3.727-1.391,3.926-1.473C6.521,0.026,6.635,0,6.749,0h1.5c0.414,0,0.75,0.336,0.75,0.75
		c0,1.654,1.346,3,3,3c1.654,0,3-1.346,3-3c0-0.414,0.336-0.75,0.75-0.75h1.5c0.114,0,0.228,0.026,0.33,0.076
		c0.174,0.07,2.383,0.895,3.844,1.44l1.114,0.416C23.412,2.259,24,3.106,24,4.04v2.71C24,7.991,22.991,9,21.75,9h-1.5v11.625
		C20.25,22.486,18.736,24,16.875,24z M12,14.25c1.654,0,3,1.346,3,3v3.375c0,1.034,0.841,1.875,1.875,1.875s1.875-0.841,1.875-1.875
		V8.25c0-0.414,0.336-0.75,0.75-0.75h2.25c0.414,0,0.75-0.336,0.75-0.75V4.04c0-0.311-0.196-0.594-0.487-0.702
		c0,0-2.958-1.104-3.72-1.389C17.729,1.737,17.365,1.601,17.13,1.5h-0.693c-0.362,2.129-2.247,3.75-4.437,3.75
		c-2.19,0-4.076-1.621-4.437-3.75H6.866c-0.243,0.105-0.61,0.242-1.181,0.456C4.904,2.249,3.911,2.62,3.039,2.945L1.987,3.338
		C1.696,3.447,1.5,3.729,1.5,4.04v2.71c0,0.414,0.336,0.75,0.75,0.75H4.5c0.414,0,0.75,0.336,0.75,0.75v12.375
		c0,1.034,0.841,1.875,1.875,1.875S9,21.659,9,20.625V17.25C9,15.596,10.346,14.25,12,14.25z"/>
	<path d="M12,12.75c-0.044,0-0.088-0.004-0.13-0.011c-0.513-0.061-0.922-0.47-0.983-0.983c-0.008-0.043-0.012-0.087-0.012-0.131
		s0.004-0.088,0.012-0.131c0.06-0.513,0.47-0.922,0.982-0.982C11.912,10.504,11.956,10.5,12,10.5s0.088,0.004,0.131,0.012
		c0.513,0.06,0.922,0.47,0.983,0.983c0.007,0.042,0.011,0.086,0.011,0.13s-0.004,0.088-0.011,0.13
		c-0.061,0.513-0.47,0.923-0.983,0.983C12.088,12.746,12.044,12.75,12,12.75z"/>
	<path d="M12,9c-0.044,0-0.088-0.004-0.131-0.012c-0.513-0.06-0.922-0.47-0.982-0.982c-0.008-0.043-0.012-0.087-0.012-0.131
		s0.004-0.088,0.012-0.131c0.06-0.513,0.47-0.922,0.982-0.982C11.912,6.754,11.956,6.75,12,6.75s0.088,0.004,0.131,0.012
		c0.513,0.06,0.922,0.47,0.983,0.983c0.007,0.042,0.011,0.086,0.011,0.13s-0.004,0.088-0.011,0.13
		c-0.061,0.513-0.47,0.922-0.983,0.983C12.088,8.996,12.044,9,12,9z"/>
</g>
</svg>
