<?xml version="1.0" encoding="utf-8"?>
<!-- Generator: Adobe Illustrator 22.1.0, SVG Export Plug-In . SVG Version: 6.00 Build 0)  -->
<svg version="1.1" id="Layer_1" xmlns="http://www.w3.org/2000/svg" xmlns:xlink="http://www.w3.org/1999/xlink" x="0px" y="0px"
	 viewBox="0 0 24 24" style="enable-background:new 0 0 24 24;" xml:space="preserve">
<title>baby-newborn</title>
<g>
	<path d="M14.824,15.18c-3.308,0-6-2.692-6-6s2.692-6,6-6c3.308,0,6,2.692,6,6S18.133,15.18,14.824,15.18z M14.824,4.68
		c-2.481,0-4.5,2.019-4.5,4.5s2.019,4.5,4.5,4.5c2.481,0,4.5-2.019,4.5-4.5S17.306,4.68,14.824,4.68z"/>
	<path d="M14.149,8.483c-0.339,0-0.636-0.229-0.724-0.556c-0.062-0.23-0.23-0.42-0.451-0.508c-0.186-0.074-0.333-0.215-0.412-0.399
		c-0.08-0.184-0.083-0.388-0.009-0.574c0.114-0.288,0.388-0.474,0.698-0.474c0.095,0,0.188,0.018,0.276,0.053
		c0.66,0.261,1.165,0.828,1.348,1.515c0.052,0.194,0.025,0.396-0.075,0.569s-0.262,0.297-0.456,0.349
		C14.28,8.474,14.215,8.483,14.149,8.483z"/>
	<path d="M17.28,11.499c-0.31,0-0.583-0.186-0.697-0.474c-0.088-0.222-0.279-0.39-0.51-0.45c-0.194-0.05-0.357-0.173-0.458-0.345
		c-0.102-0.173-0.13-0.375-0.08-0.569c0.085-0.331,0.384-0.562,0.725-0.562c0.064,0,0.127,0.008,0.189,0.024
		c0.692,0.179,1.264,0.684,1.528,1.35c0.152,0.385-0.037,0.821-0.421,0.974C17.468,11.481,17.375,11.499,17.28,11.499z"/>
	<path d="M8.631,23.853c-2.335,0-4.589-0.973-6.183-2.669c-3.06-3.257-3.06-8.359,0-11.615l6.177-6.562
		c1.663-1.663,3.864-2.574,6.206-2.574c2.338,0,4.535,0.908,6.184,2.558c1.65,1.65,2.559,3.848,2.559,6.187
		s-0.909,4.537-2.559,6.187l-6.578,6.192c-1.237,1.163-2.776,1.918-4.453,2.188c-0.009,0.003-0.02,0.006-0.03,0.009
		c-0.062,0.017-0.127,0.025-0.191,0.025C9.388,23.828,9.008,23.853,8.631,23.853z M3.54,10.596c-2.518,2.68-2.518,6.88,0,9.561
		c1.33,1.416,3.137,2.195,5.088,2.195c0.059,0,0.118-0.001,0.177-0.002L5.238,8.792L3.54,10.596z M10.305,22.149
		c1.162-0.285,2.229-0.864,3.104-1.686l1.585-1.492l-5.953-1.624L10.305,22.149z M16.275,17.766l3.695-3.478
		c2.814-2.814,2.811-7.41-0.016-10.237c-1.367-1.367-3.188-2.12-5.127-2.12s-3.76,0.753-5.127,2.12L6.45,7.504l2.15,8.168
		L16.275,17.766z"/>
</g>
</svg>
