<?xml version="1.0" encoding="utf-8"?>
<!-- Generator: Adobe Illustrator 22.1.0, SVG Export Plug-In . SVG Version: 6.00 Build 0)  -->
<svg version="1.1" id="Layer_1" xmlns="http://www.w3.org/2000/svg" xmlns:xlink="http://www.w3.org/1999/xlink" x="0px" y="0px"
	 viewBox="0 0 24 24" style="enable-background:new 0 0 24 24;" xml:space="preserve">
<title>baggage-check-in-user</title>
<g>
	<path d="M19.5,7.124c-1.861,0-3.375-1.514-3.375-3.375s1.514-3.375,3.375-3.375s3.375,1.514,3.375,3.375S21.361,7.124,19.5,7.124z
		 M19.5,1.874c-1.034,0-1.875,0.841-1.875,1.875s0.841,1.875,1.875,1.875s1.875-0.841,1.875-1.875S20.534,1.874,19.5,1.874z"/>
	<path d="M19.5,24c-1.654,0-3-1.346-3-3v-3.128C15.615,17.558,15,16.71,15,15.75v-4.5c0-2.068,1.682-3.75,3.75-3.75h1.5
		c2.068,0,3.75,1.682,3.75,3.75v4.5c0,0.96-0.615,1.808-1.5,2.122V21C22.5,22.655,21.154,24,19.5,24z M18.75,9
		c-1.241,0-2.25,1.009-2.25,2.25v4.5c0,0.414,0.336,0.75,0.75,0.75S18,16.837,18,17.25V21c0,0.827,0.673,1.5,1.5,1.5
		S21,21.827,21,21v-3.75c0-0.414,0.336-0.75,0.75-0.75s0.75-0.336,0.75-0.75v-4.5C22.5,10.01,21.491,9,20.25,9H18.75z"/>
	<path d="M0.75,23.999c-0.414,0-0.75-0.336-0.75-0.75s0.336-0.75,0.75-0.75h0.879C1.544,22.26,1.5,22.008,1.5,21.749v-3
		c0-1.241,1.009-2.25,2.25-2.25v-0.75c0-1.241,1.009-2.25,2.25-2.25h1.5c1.241,0,2.25,1.009,2.25,2.25v0.75
		c1.241,0,2.25,1.009,2.25,2.25v3c0,0.259-0.044,0.511-0.129,0.75h2.379c0.414,0,0.75,0.336,0.75,0.75s-0.336,0.75-0.75,0.75H0.75z
		 M3.75,17.999c-0.414,0-0.75,0.336-0.75,0.75v3c0,0.414,0.336,0.75,0.75,0.75h6c0.414,0,0.75-0.336,0.75-0.75v-3
		c0-0.414-0.336-0.75-0.75-0.75H3.75z M8.25,16.499v-0.75c0-0.414-0.336-0.75-0.75-0.75H6c-0.414,0-0.75,0.336-0.75,0.75v0.75H8.25z
		"/>
	<path d="M2.25,10.499C1.009,10.499,0,9.49,0,8.249v-6c0-1.241,1.009-2.25,2.25-2.25h10.5c1.241,0,2.25,1.009,2.25,2.25v4.5
		c0,0.414-0.336,0.75-0.75,0.75s-0.75-0.336-0.75-0.75v-4.5c0-0.414-0.336-0.75-0.75-0.75H2.25c-0.414,0-0.75,0.336-0.75,0.75v6
		c0,0.414,0.336,0.75,0.75,0.75h9c0.414,0,0.75,0.336,0.75,0.75s-0.336,0.75-0.75,0.75H2.25z"/>
	<path d="M3.75,4.499C3.336,4.499,3,4.163,3,3.749s0.336-0.75,0.75-0.75h3c0.414,0,0.75,0.336,0.75,0.75s-0.336,0.75-0.75,0.75H3.75
		z"/>
	<path d="M3.75,7.499C3.336,7.499,3,7.163,3,6.749s0.336-0.75,0.75-0.75h6c0.414,0,0.75,0.336,0.75,0.75s-0.336,0.75-0.75,0.75H3.75
		z"/>
</g>
</svg>
