<?xml version="1.0" encoding="utf-8"?>
<!-- Generator: Adobe Illustrator 22.1.0, SVG Export Plug-In . SVG Version: 6.00 Build 0)  -->
<svg version="1.1" id="Layer_1" xmlns="http://www.w3.org/2000/svg" xmlns:xlink="http://www.w3.org/1999/xlink" x="0px" y="0px"
	 viewBox="0 0 24 24" style="enable-background:new 0 0 24 24;" xml:space="preserve">
<title>baggage-leave</title>
<g>
	<path d="M9.75,6.75c-1.861,0-3.375-1.514-3.375-3.375S7.889,0,9.75,0s3.375,1.514,3.375,3.375S11.611,6.75,9.75,6.75z M9.75,1.5
		c-1.034,0-1.875,0.841-1.875,1.875S8.716,5.25,9.75,5.25c1.034,0,1.875-0.841,1.875-1.875S10.784,1.5,9.75,1.5z"/>
	<path d="M2.251,23.996c-1.241,0-2.25-1.009-2.25-2.25v-4.5c0-0.951,0.26-1.885,0.749-2.7l4.071-6.785
		c0.31-0.515,0.801-0.879,1.384-1.025c0.18-0.045,0.364-0.068,0.548-0.068c0.405,0,0.804,0.111,1.155,0.322
		c0.419,0.252,0.75,0.641,0.931,1.095l1.023,2.555c0.076,0.19,0.228,0.342,0.417,0.418l1.239,0.5
		c0.384,0.155,0.569,0.593,0.415,0.976c-0.115,0.285-0.388,0.469-0.696,0.469c-0.097,0-0.191-0.018-0.281-0.055l-1.238-0.5
		c-0.567-0.227-1.022-0.684-1.25-1.252L7.446,8.642C7.386,8.49,7.276,8.36,7.136,8.276c-0.117-0.07-0.25-0.108-0.384-0.108
		c-0.061,0-0.123,0.008-0.183,0.023C6.374,8.24,6.21,8.361,6.107,8.533l-4.071,6.785c-0.35,0.583-0.535,1.25-0.535,1.929v4.5
		c0,0.414,0.336,0.75,0.75,0.75s0.75-0.336,0.75-0.75v-4.5C3,16.839,3.111,16.438,3.322,16.088l2.521-4.199
		c0.135-0.225,0.38-0.364,0.639-0.364c0.008,0,0.038,0.001,0.046,0.001c0.272,0.014,0.518,0.178,0.636,0.429
		c0.407,0.863,1.117,1.534,2.002,1.889l2.347,0.938c0.186,0.074,0.332,0.217,0.411,0.401s0.081,0.388,0.007,0.574
		c-0.115,0.286-0.388,0.471-0.697,0.471l0,0c-0.096,0-0.189-0.018-0.278-0.054l-2.348-0.939c-0.827-0.333-1.544-0.859-2.102-1.538
		l-1.899,3.163c-0.07,0.116-0.107,0.249-0.107,0.384v4.501C4.501,22.987,3.491,23.996,2.251,23.996z"/>
	<path d="M13.5,24c-1.654,0-3-1.346-3-3s1.346-3,3-3h9.75c0.414,0,0.75,0.336,0.75,0.75s-0.336,0.75-0.75,0.75H13.5
		c-0.827,0-1.5,0.673-1.5,1.5s0.673,1.5,1.5,1.5h9.75c0.414,0,0.75,0.336,0.75,0.75S23.663,24,23.25,24H13.5z"/>
	<path d="M14.75,16.5c-0.689,0-1.25-0.561-1.25-1.25v-5C13.5,9.561,14.06,9,14.75,9h1.75V8.25C16.5,7.009,17.509,6,18.75,6
		S21,7.009,21,8.25V9h1.75C23.439,9,24,9.561,24,10.25v5c0,0.689-0.561,1.25-1.25,1.25H14.75z M22.5,15v-4.5H15L22.5,15z M19.5,9
		V8.25c0-0.414-0.336-0.75-0.75-0.75S18,7.836,18,8.25V9H19.5z"/>
	<circle cx="15" cy="21" r="1.125"/>
	<circle cx="18.75" cy="21" r="1.125"/>
	<circle cx="22.5" cy="21" r="1.125"/>
</g>
</svg>
