<?xml version="1.0" encoding="utf-8"?>
<!-- Generator: Adobe Illustrator 22.1.0, SVG Export Plug-In . SVG Version: 6.00 Build 0)  -->
<svg version="1.1" id="Layer_1" xmlns="http://www.w3.org/2000/svg" xmlns:xlink="http://www.w3.org/1999/xlink" x="0px" y="0px"
	 viewBox="0 0 24 24" style="enable-background:new 0 0 24 24;" xml:space="preserve">
<title>baggage-cart</title>
<g>
	<path d="M18.25,14.999c-0.965,0-1.75-0.785-1.75-1.75v-9.25c0-0.965,0.785-1.75,1.75-1.75h1.25v-1.5c0-0.414,0.336-0.75,0.75-0.75
		S21,0.335,21,0.749v1.5h1.25c0.965,0,1.75,0.785,1.75,1.75v9.25c0,0.965-0.785,1.75-1.75,1.75H18.25z M18.25,3.749
		c-0.138,0-0.25,0.112-0.25,0.25v9.25c0,0.138,0.112,0.25,0.25,0.25h4c0.138,0,0.25-0.112,0.25-0.25v-9.25
		c0-0.138-0.112-0.25-0.25-0.25H18.25z"/>
	<path d="M9.25,14.999c-0.965,0-1.75-0.785-1.75-1.75v-9.25c0-0.965,0.785-1.75,1.75-1.75h4c0.965,0,1.75,0.785,1.75,1.75v9.25
		c0,0.965-0.785,1.75-1.75,1.75H9.25z M13.25,13.499c0.138,0,0.25-0.112,0.25-0.25v-9.25c0-0.138-0.112-0.25-0.25-0.25H12v9.75
		H13.25z M9.25,3.749C9.112,3.749,9,3.861,9,3.999v9.25c0,0.138,0.112,0.25,0.25,0.25h1.25v-9.75H9.25z"/>
	<path d="M7.292,17.999c-1.123,0-2.059-0.806-2.226-1.916L3.2,3.638C3.146,3.274,2.827,2.999,2.458,2.999H0.75
		C0.336,2.999,0,2.663,0,2.249s0.336-0.75,0.75-0.75h1.708c1.105,0,2.062,0.824,2.226,1.917L6.55,15.861
		c0.056,0.37,0.368,0.638,0.742,0.638H23.25c0.414,0,0.75,0.336,0.75,0.75s-0.336,0.75-0.75,0.75H7.292z"/>
	<path d="M19.875,23.999c-1.448,0-2.625-1.177-2.625-2.625s1.177-2.625,2.625-2.625s2.625,1.177,2.625,2.625
		S21.323,23.999,19.875,23.999z M19.875,20.249c-0.62,0-1.125,0.505-1.125,1.125s0.505,1.125,1.125,1.125S21,21.994,21,21.374
		S20.495,20.249,19.875,20.249z"/>
	<path d="M9.375,23.999c-1.447,0-2.625-1.177-2.625-2.625s1.178-2.625,2.625-2.625S12,19.927,12,21.374S10.822,23.999,9.375,23.999z
		 M9.375,20.249c-0.62,0-1.125,0.505-1.125,1.125s0.505,1.125,1.125,1.125s1.125-0.505,1.125-1.125S9.995,20.249,9.375,20.249z"/>
</g>
</svg>
