<?xml version="1.0" encoding="utf-8"?>
<!-- Generator: Adobe Illustrator 22.1.0, SVG Export Plug-In . SVG Version: 6.00 Build 0)  -->
<svg version="1.1" id="Layer_1" xmlns="http://www.w3.org/2000/svg" xmlns:xlink="http://www.w3.org/1999/xlink" x="0px" y="0px"
	 viewBox="0 0 24 24" style="enable-background:new 0 0 24 24;" xml:space="preserve">
<title>baggage-cart-2</title>
<g>
	<path d="M0.75,17.25C0.336,17.25,0,16.914,0,16.5s0.336-0.75,0.75-0.75h15.958c0.375,0,0.687-0.269,0.742-0.639l1.866-12.446
		c0.164-1.092,1.121-1.916,2.225-1.916h1.709C23.664,0.75,24,1.086,24,1.5s-0.336,0.75-0.75,0.75h-1.708
		c-0.368,0-0.688,0.275-0.742,0.638l-1.866,12.446c-0.167,1.11-1.103,1.916-2.225,1.916H0.75z"/>
	<path d="M4.125,23.249c-1.447,0-2.625-1.177-2.625-2.625s1.178-2.625,2.625-2.625s2.625,1.177,2.625,2.625
		S5.572,23.249,4.125,23.249z M4.125,19.499C3.505,19.499,3,20.003,3,20.624s0.505,1.125,1.125,1.125s1.125-0.505,1.125-1.125
		S4.745,19.499,4.125,19.499z"/>
	<path d="M14.625,23.249c-1.448,0-2.625-1.177-2.625-2.625s1.177-2.625,2.625-2.625s2.625,1.177,2.625,2.625
		S16.073,23.249,14.625,23.249z M14.625,19.499c-0.62,0-1.125,0.505-1.125,1.125s0.505,1.125,1.125,1.125s1.125-0.505,1.125-1.125
		S15.245,19.499,14.625,19.499z"/>
	<path d="M3.75,14.249c-1.241,0-2.25-1.009-2.25-2.25v-6c0-1.241,1.009-2.25,2.25-2.25H6V3c0-1.241,1.009-2.25,2.25-2.25h1.5
		C10.991,0.75,12,1.759,12,3v0.749h2.25c1.241,0,2.25,1.009,2.25,2.25v6c0,1.241-1.009,2.25-2.25,2.25H3.75z M3.75,5.249
		C3.336,5.249,3,5.585,3,5.999v6c0,0.413,0.336,0.75,0.75,0.75h10.5c0.414,0,0.75-0.336,0.75-0.75v-6c0-0.414-0.336-0.75-0.75-0.75
		h-2.974C11.267,5.249,11.258,5.25,11.25,5.25c-0.009,0-0.019,0-0.03-0.001l-4.444,0C6.767,5.249,6.758,5.25,6.75,5.25
		c-0.009,0-0.019,0-0.03-0.001L3.75,5.249z M10.5,3.749V3c0-0.414-0.336-0.75-0.75-0.75h-1.5C7.836,2.25,7.5,2.586,7.5,3v0.749H10.5
		z"/>
	<path d="M6,8.249c-0.414,0-0.75-0.336-0.75-0.75S5.586,6.749,6,6.749h6c0.414,0,0.75,0.336,0.75,0.75s-0.336,0.75-0.75,0.75H6z"/>
	<path d="M6,11.249c-0.414,0-0.75-0.336-0.75-0.75S5.586,9.749,6,9.749h6c0.414,0,0.75,0.336,0.75,0.75s-0.336,0.75-0.75,0.75H6z"/>
</g>
</svg>
