<?xml version="1.0" encoding="utf-8"?>
<!-- Generator: Adobe Illustrator 22.1.0, SVG Export Plug-In . SVG Version: 6.00 Build 0)  -->
<svg version="1.1" id="Layer_1" xmlns="http://www.w3.org/2000/svg" xmlns:xlink="http://www.w3.org/1999/xlink" x="0px" y="0px"
	 viewBox="0 0 24 24" style="enable-background:new 0 0 24 24;" xml:space="preserve">
<title>baggage-line</title>
<g>
	<path d="M4.75,16.499c-0.965,0-1.75-0.785-1.75-1.75v-10c0-0.965,0.785-1.75,1.75-1.75h4.327c0.351-1.732,1.874-3,3.673-3
		s3.323,1.268,3.673,3h4.327c0.965,0,1.75,0.785,1.75,1.75v10c0,0.965-0.785,1.75-1.75,1.75H4.75z M20.75,14.999
		c0.138,0,0.25-0.112,0.25-0.25v-10c0-0.138-0.112-0.25-0.25-0.25H18L20.75,14.999z M16.5,14.999v-10.5H9L16.5,14.999z M4.75,4.499
		c-0.138,0-0.25,0.112-0.25,0.25v10c0,0.138,0.112,0.25,0.25,0.25H7.5v-10.5H4.75z M14.868,2.999c-0.313-0.879-1.158-1.5-2.118-1.5
		s-1.805,0.621-2.118,1.5H14.868z"/>
	<path d="M3,23.999c-1.654,0-3-1.346-3-3s1.346-3,3-3h20.25c0.414,0,0.75,0.336,0.75,0.75s-0.336,0.75-0.75,0.75H3
		c-0.827,0-1.5,0.673-1.5,1.5s0.673,1.5,1.5,1.5h20.25c0.414,0,0.75,0.336,0.75,0.75s-0.336,0.75-0.75,0.75H3z"/>
	<path d="M6.75,22.124c-0.619,0-1.123-0.503-1.125-1.122c0-0.602,0.469-1.096,1.068-1.126c0.008-0.001,0.032-0.002,0.057-0.002
		c0.62,0,1.125,0.505,1.125,1.125S7.37,22.124,6.75,22.124z"/>
	<circle cx="11.25" cy="20.999" r="1.125"/>
	<circle cx="15.75" cy="20.999" r="1.125"/>
	<circle cx="20.25" cy="20.999" r="1.125"/>
</g>
</svg>
