<?xml version="1.0" encoding="utf-8"?>
<!-- Generator: Adobe Illustrator 22.1.0, SVG Export Plug-In . SVG Version: 6.00 Build 0)  -->
<svg version="1.1" id="Layer_1" xmlns="http://www.w3.org/2000/svg" xmlns:xlink="http://www.w3.org/1999/xlink" x="0px" y="0px"
	 viewBox="0 0 24 24" style="enable-background:new 0 0 24 24;" xml:space="preserve">
<title>baggage-cart-1</title>
<g>
	<path d="M9.75,14.249c-1.241,0-2.25-1.009-2.25-2.25v-6c0-1.241,1.009-2.25,2.25-2.25h1.5V3c0-1.241,1.009-2.25,2.25-2.25h3
		c1.241,0,2.25,1.009,2.25,2.25v0.749h1.5c1.241,0,2.25,1.009,2.25,2.25v6c0,1.241-1.009,2.25-2.25,2.25H9.75z M20.25,12.749
		c0.414,0,0.75-0.336,0.75-0.75v-6c0-0.414-0.336-0.75-0.75-0.75h-1.5v7.5H20.25z M17.25,12.749V5.25h-4.5v7.499H17.25z M9.75,5.249
		C9.336,5.249,9,5.585,9,5.999v6c0,0.413,0.336,0.75,0.75,0.75h1.5v-7.5H9.75z M17.25,3.749V3c0-0.414-0.336-0.75-0.75-0.75h-3
		c-0.414,0-0.75,0.336-0.75,0.75v0.749H17.25z"/>
	<path d="M7.292,17.25c-1.123,0-2.059-0.806-2.226-1.916L3.2,2.888C3.146,2.524,2.827,2.25,2.459,2.25H0.75
		C0.336,2.25,0,1.913,0,1.5s0.336-0.75,0.75-0.75h1.708c1.105,0,2.062,0.823,2.226,1.915L6.55,15.112
		c0.056,0.37,0.368,0.638,0.742,0.638H23.25c0.414,0,0.75,0.336,0.75,0.75s-0.336,0.75-0.75,0.75H7.292z"/>
	<path d="M19.875,23.249c-1.448,0-2.625-1.177-2.625-2.625s1.177-2.625,2.625-2.625s2.625,1.177,2.625,2.625
		S21.323,23.249,19.875,23.249z M19.875,19.499c-0.62,0-1.125,0.505-1.125,1.125s0.505,1.125,1.125,1.125S21,21.244,21,20.624
		S20.495,19.499,19.875,19.499z"/>
	<path d="M9.375,23.249c-1.447,0-2.625-1.177-2.625-2.625s1.178-2.625,2.625-2.625S12,19.176,12,20.624S10.822,23.249,9.375,23.249z
		 M9.375,19.499c-0.62,0-1.125,0.505-1.125,1.125s0.505,1.125,1.125,1.125s1.125-0.505,1.125-1.125S9.995,19.499,9.375,19.499z"/>
</g>
</svg>
