<?xml version="1.0" encoding="utf-8"?>
<!-- Generator: Adobe Illustrator 22.1.0, SVG Export Plug-In . SVG Version: 6.00 Build 0)  -->
<svg version="1.1" id="Layer_1" xmlns="http://www.w3.org/2000/svg" xmlns:xlink="http://www.w3.org/1999/xlink" x="0px" y="0px"
	 viewBox="0 0 24 24" style="enable-background:new 0 0 24 24;" xml:space="preserve">
<title>baggage-1</title>
<g>
	<path d="M15,24c-0.414,0-0.75-0.336-0.75-0.75V22.5h-4.5v0.75C9.75,23.664,9.414,24,9,24s-0.75-0.336-0.75-0.75V22.5H7.5
		c-1.241,0-2.25-1.009-2.25-2.25v-12C5.25,7.01,6.259,6,7.5,6h0.75V1.5H7.5c-0.414,0-0.75-0.336-0.75-0.75S7.086,0,7.5,0h1.474
		C8.983,0,8.992-0.001,9-0.001c0.009,0,0.02,0,0.03,0.001l5.944,0C14.983,0,14.992-0.001,15-0.001c0.009,0,0.019,0,0.03,0.001
		l1.47,0c0.414,0,0.75,0.336,0.75,0.75S16.914,1.5,16.5,1.5h-0.75V6h0.75c1.241,0,2.25,1.009,2.25,2.25v12
		c0,1.241-1.009,2.25-2.25,2.25h-0.75v0.75C15.75,23.664,15.414,24,15,24z M7.5,7.5c-0.414,0-0.75,0.336-0.75,0.75v12
		C6.75,20.664,7.086,21,7.5,21h9c0.414,0,0.75-0.336,0.75-0.75v-12c0-0.414-0.336-0.75-0.75-0.75H7.5z M14.25,6V1.5h-4.5V6H14.25z"
		/>
	<path d="M9.75,12C9.336,12,9,11.664,9,11.25s0.336-0.75,0.75-0.75h4.5c0.414,0,0.75,0.336,0.75,0.75S14.664,12,14.25,12H9.75z"/>
	<path d="M9.75,18C9.336,18,9,17.664,9,17.25s0.336-0.75,0.75-0.75h4.5c0.414,0,0.75,0.336,0.75,0.75S14.664,18,14.25,18H9.75z"/>
</g>
</svg>
