<?xml version="1.0" encoding="utf-8"?>
<!-- Generator: Adobe Illustrator 22.1.0, SVG Export Plug-In . SVG Version: 6.00 Build 0)  -->
<svg version="1.1" id="Layer_1" xmlns="http://www.w3.org/2000/svg" xmlns:xlink="http://www.w3.org/1999/xlink" x="0px" y="0px"
	 viewBox="0 0 24 24" style="enable-background:new 0 0 24 24;" xml:space="preserve">
<title>baggage-weight-1</title>
<g>
	<path d="M12,10.499c-2.895,0-5.25-2.355-5.25-5.25s2.355-5.25,5.25-5.25c2.895,0,5.25,2.355,5.25,5.25S14.895,10.499,12,10.499z
		 M12,1.499c-2.068,0-3.75,1.682-3.75,3.75s1.682,3.75,3.75,3.75c2.068,0,3.75-1.682,3.75-3.75S14.068,1.499,12,1.499z"/>
	<path d="M12,5.999c-0.115,0-0.231-0.027-0.335-0.079c-0.37-0.185-0.521-0.636-0.336-1.006l0.75-1.5
		c0.128-0.256,0.385-0.414,0.671-0.414c0.115,0,0.231,0.027,0.334,0.079c0.371,0.185,0.521,0.637,0.336,1.006l-0.75,1.5
		C12.543,5.84,12.286,5.999,12,5.999z"/>
	<path d="M0.75,23.999c-0.414,0-0.75-0.336-0.75-0.75s0.336-0.75,0.75-0.75h3.879C4.544,22.26,4.5,22.008,4.5,21.749v-4.5
		c0-1.241,1.009-2.25,2.25-2.25H9v-0.75c0-1.241,1.009-2.25,2.25-2.25h1.5c1.241,0,2.25,1.009,2.25,2.25v0.75h2.25
		c1.241,0,2.25,1.009,2.25,2.25v4.5c0,0.259-0.044,0.511-0.129,0.75h3.879c0.414,0,0.75,0.336,0.75,0.75s-0.336,0.75-0.75,0.75H0.75
		z M6.75,16.499c-0.414,0-0.75,0.336-0.75,0.75v4.5c0,0.414,0.336,0.75,0.75,0.75h10.5c0.414,0,0.75-0.336,0.75-0.75v-4.5
		c0-0.414-0.336-0.75-0.75-0.75H6.75z M13.5,14.999v-0.75c0-0.414-0.336-0.75-0.75-0.75h-1.5c-0.414,0-0.75,0.336-0.75,0.75
		L13.5,14.999z"/>
	<path d="M9.75,20.999c-0.414,0-0.75-0.336-0.75-0.75v-1.5c0-0.414,0.336-0.75,0.75-0.75s0.75,0.336,0.75,0.75v1.5
		C10.5,20.663,10.164,20.999,9.75,20.999z"/>
	<path d="M14.25,20.999c-0.414,0-0.75-0.336-0.75-0.75v-1.5c0-0.414,0.336-0.75,0.75-0.75S15,18.335,15,18.749v1.5
		C15,20.663,14.664,20.999,14.25,20.999z"/>
</g>
</svg>
