<?xml version="1.0" encoding="utf-8"?>
<!-- Generator: Adobe Illustrator 22.1.0, SVG Export Plug-In . SVG Version: 6.00 Build 0)  -->
<svg version="1.1" id="Layer_1" xmlns="http://www.w3.org/2000/svg" xmlns:xlink="http://www.w3.org/1999/xlink" x="0px" y="0px"
	 viewBox="0 0 24 24" style="enable-background:new 0 0 24 24;" xml:space="preserve">
<title>baggage-check</title>
<g>
	<path d="M6.75,23.987c-1.241,0-2.25-1.009-2.25-2.25v-6c0-1.241,1.009-2.25,2.25-2.25h1.5v-0.75c0-1.241,1.009-2.25,2.25-2.25h3
		c1.241,0,2.25,1.009,2.25,2.25v0.75h1.5c1.241,0,2.25,1.009,2.25,2.25v6c0,1.241-1.009,2.25-2.25,2.25H6.75z M17.25,22.487
		c0.414,0,0.75-0.336,0.75-0.75v-6c0-0.414-0.336-0.75-0.75-0.75h-1.5v7.5H17.25z M14.25,22.487v-7.5h-4.5v7.5H14.25z M6.75,14.987
		c-0.414,0-0.75,0.336-0.75,0.75v6c0,0.414,0.336,0.75,0.75,0.75h1.5v-7.5H6.75z M14.25,13.487v-0.75c0-0.414-0.336-0.75-0.75-0.75
		h-3c-0.414,0-0.75,0.336-0.75,0.75v0.75H14.25z"/>
	<path d="M17.251,10.375c-0.264,0-0.504-0.135-0.641-0.361c-0.215-0.354-0.102-0.816,0.252-1.03
		c1.198-0.727,2.292-1.614,3.251-2.636c0.185-0.196,0.185-0.503,0-0.699c-1.877-2-4.964-4.137-7.996-4.137l-0.104,0.001
		l-0.112-0.001c-3.047,0-6.135,2.136-8.01,4.136C3.706,5.844,3.706,6.151,3.89,6.347c0.959,1.022,2.053,1.909,3.25,2.637
		c0.353,0.215,0.466,0.677,0.252,1.03c-0.137,0.226-0.377,0.361-0.641,0.361c-0.137,0-0.271-0.038-0.388-0.109
		C5.047,9.468,3.848,8.495,2.796,7.374c-0.725-0.772-0.725-1.981,0-2.753c2.089-2.228,5.578-4.609,9.104-4.609l0.11,0.001
		l0.114-0.001c3.505,0,6.989,2.381,9.08,4.61c0.726,0.771,0.726,1.981,0,2.753c-1.052,1.121-2.252,2.094-3.566,2.891
		C17.522,10.337,17.388,10.375,17.251,10.375z"/>
	<path d="M12,8.999c-1.654,0-3-1.346-3-3s1.346-3,3-3c1.654,0,3,1.346,3,3S13.655,8.999,12,8.999z M12,4.499
		c-0.827,0-1.5,0.673-1.5,1.5s0.673,1.5,1.5,1.5s1.5-0.673,1.5-1.5S12.827,4.499,12,4.499z"/>
</g>
</svg>
