<?xml version="1.0" encoding="utf-8"?>
<!-- Generator: Adobe Illustrator 22.1.0, SVG Export Plug-In . SVG Version: 6.00 Build 0)  -->
<svg version="1.1" id="Regular" xmlns="http://www.w3.org/2000/svg" xmlns:xlink="http://www.w3.org/1999/xlink" x="0px" y="0px"
	 viewBox="0 0 24 24" style="enable-background:new 0 0 24 24;" xml:space="preserve">
<title>bandage-leg</title>
<g>
	<path d="M5.37,24c-0.33,0-0.648-0.041-0.957-0.122c-0.969-0.252-1.782-0.867-2.288-1.732c-0.507-0.864-0.646-1.874-0.394-2.843
		C2.748,15.56,5.24,13.5,8.749,13.5h2.25c0.018,0,0.049,0.002,0.067,0.005c0.013,0,0.041,0.003,0.068,0.008
		c0.027,0.005,0.047,0.011,0.067,0.017c0.022,0.006,0.046,0.013,0.069,0.022c0.013,0.005,0.049,0.022,0.061,0.028
		c0.035,0.017,0.056,0.029,0.076,0.042c0.015,0.01,0.033,0.023,0.051,0.037c0.027,0.021,0.045,0.036,0.062,0.052
		c0.018,0.017,0.034,0.036,0.049,0.054c0.012,0.012,0.025,0.028,0.038,0.046l3.214,4.499l1.599-1.954
		c0.143-0.175,0.355-0.275,0.581-0.275c0.172,0,0.341,0.06,0.474,0.169c0.321,0.262,0.368,0.736,0.106,1.056l-4.25,5.194h6.667
		c0.414,0,0.75-0.336,0.75-0.75v-5.492L3.863,9.503C2.711,9.042,2.149,7.73,2.609,6.578l1.893-4.737
		c0.338-0.846,1.18-1.415,2.096-1.415c0.273,0,0.542,0.05,0.797,0.147l8.995,3.427l1-2.501h-4.892c-0.414,0-0.75-0.336-0.75-0.75
		S12.085,0,12.499,0h7.5c1.241,0,2.25,1.009,2.25,2.25v19.5c0,1.241-1.009,2.25-2.25,2.25H5.37z M3.722,18.199
		c-0.214,0.453-0.395,0.953-0.541,1.49c-0.15,0.575-0.066,1.18,0.238,1.698c0.304,0.519,0.792,0.887,1.373,1.039
		c0.171,0.044,0.372,0.07,0.582,0.073h6.02l0.27-0.33L3.722,18.199z M12.637,20.98l1.2-1.467L10.613,15H8.749
		c-1.797,0-3.221,0.645-4.238,1.917L12.637,20.98z M6.596,1.927c-0.306,0-0.588,0.189-0.7,0.471L4.002,7.135
		C3.928,7.321,3.93,7.525,4.009,7.709C4.088,7.894,4.234,8.036,4.42,8.11l16.329,6.532V7.267L6.861,1.976
		C6.775,1.943,6.686,1.927,6.596,1.927z M20.749,5.662V2.25c0-0.414-0.336-0.75-0.75-0.75h-0.992l-1.214,3.035L20.749,5.662z"/>
</g>
</svg>
