<?xml version="1.0" encoding="utf-8"?>
<!-- Generator: Adobe Illustrator 22.1.0, SVG Export Plug-In . SVG Version: 6.00 Build 0)  -->
<svg version="1.1" id="Regular" xmlns="http://www.w3.org/2000/svg" xmlns:xlink="http://www.w3.org/1999/xlink" x="0px" y="0px"
	 viewBox="0 0 24 24" style="enable-background:new 0 0 24 24;" xml:space="preserve">
<title>bandage-finger</title>
<g>
	<path d="M0.75,22.5C0.336,22.5,0,22.164,0,21.75S0.336,21,0.75,21h6C9.645,21,12,18.645,12,15.75V9H8.25
		C7.945,9,7.673,8.819,7.557,8.537C7.44,8.256,7.504,7.935,7.72,7.72l1.53-1.53c0.725-0.749,0.705-1.955-0.048-2.685
		C8.845,3.16,8.366,2.97,7.854,2.97C7.34,2.978,6.865,3.184,6.512,3.549L1.28,8.781C1.139,8.922,0.95,9,0.75,9
		s-0.389-0.078-0.53-0.22C0.078,8.639,0,8.451,0,8.25s0.078-0.389,0.22-0.53l5.223-5.223c0.625-0.646,1.472-1.012,2.38-1.027
		l0.041,0c0.897,0,1.743,0.34,2.381,0.958c0.653,0.632,1.021,1.48,1.035,2.389c0.015,0.909-0.325,1.769-0.957,2.422
		C10.297,7.265,10.061,7.5,10.061,7.5H20.25c2.068,0,3.75,1.682,3.75,3.75c0,2.068-1.682,3.75-3.75,3.75H13.5v0.75
		c0,3.722-3.028,6.75-6.75,6.75H0.75z M20.25,13.5c1.241,0,2.25-1.009,2.25-2.25C22.5,10.01,21.491,9,20.25,9H18v4.5H20.25z
		 M16.5,13.5V9h-3v4.5H16.5z"/>
</g>
</svg>
