<?xml version="1.0" encoding="utf-8"?>
<!-- Generator: Adobe Illustrator 22.1.0, SVG Export Plug-In . SVG Version: 6.00 Build 0)  -->
<svg version="1.1" id="Regular" xmlns="http://www.w3.org/2000/svg" xmlns:xlink="http://www.w3.org/1999/xlink" x="0px" y="0px"
	 viewBox="0 0 24 24" style="enable-background:new 0 0 24 24;" xml:space="preserve">
<title>bandage-shoulder</title>
<g>
	<path d="M10,6.75c-1.861,0-3.375-1.514-3.375-3.375S8.139,0,10,0s3.375,1.514,3.375,3.375S11.861,6.75,10,6.75z M10,1.5
		c-1.034,0-1.875,0.841-1.875,1.875S8.966,5.25,10,5.25s1.875-0.841,1.875-1.875S11.034,1.5,10,1.5z"/>
	<path d="M11.5,24c-0.555,0-1.09-0.209-1.5-0.575C9.59,23.791,9.055,24,8.5,24c-1.241,0-2.25-1.009-2.25-2.25v-4.5
		c0-0.414,0.336-0.75,0.75-0.75s0.75,0.336,0.75,0.75v4.5c0,0.414,0.336,0.75,0.75,0.75s0.75-0.336,0.75-0.75v-4.5
		c0-0.414,0.336-0.75,0.75-0.75s0.75,0.336,0.75,0.75v4.5c0,0.414,0.336,0.75,0.75,0.75s0.75-0.336,0.75-0.75v-9.5
		c0-0.331,0.222-0.627,0.54-0.72c0.069-0.02,0.14-0.03,0.21-0.03c0.257,0,0.494,0.13,0.632,0.346
		c0.961,1.505,2.601,2.404,4.387,2.404h0.23c0.414,0,0.75-0.336,0.75-0.75s-0.336-0.75-0.75-0.75h-0.218
		c-1.43,0-2.716-0.795-3.355-2.074L14.5,10.323c-0.405-0.81-1.088-1.445-1.925-1.79c-0.185-0.076-0.33-0.22-0.407-0.405
		c-0.077-0.185-0.077-0.389-0.001-0.574c0.116-0.282,0.388-0.464,0.694-0.464c0.098,0,0.194,0.019,0.285,0.057
		c1.171,0.483,2.128,1.373,2.695,2.506l0.177,0.354c0.384,0.768,1.155,1.245,2.013,1.245h0.218c1.241,0,2.25,1.009,2.25,2.25
		s-1.009,2.25-2.25,2.25h-0.218c-1.576,0-3.091-0.55-4.282-1.532v7.532C13.75,22.991,12.741,24,11.5,24z"/>
	<path d="M5.5,15c-1.241,0-2.25-1.009-2.25-2.25V12C3.249,9.752,4.679,7.754,6.807,7.029c0.079-0.027,0.16-0.04,0.242-0.04
		c0.321,0,0.606,0.204,0.71,0.508c0.133,0.392-0.077,0.819-0.468,0.952C5.771,8.967,4.749,10.394,4.75,12v0.75
		c0,0.414,0.336,0.75,0.75,0.75h1.013l2.802-6.305C9.435,6.925,9.704,6.75,10,6.75c0.105,0,0.207,0.022,0.304,0.064
		c0.379,0.168,0.549,0.612,0.381,0.99l-1.203,2.707c1.132,0.117,2.018,1.076,2.018,2.238c0,1.241-1.009,2.25-2.25,2.25H5.5z
		 M9.25,13.5c0.414,0,0.75-0.336,0.75-0.75S9.664,12,9.25,12H8.821l-0.667,1.5H9.25z"/>
</g>
</svg>
