<?xml version="1.0" encoding="utf-8"?>
<!-- Generator: Adobe Illustrator 22.1.0, SVG Export Plug-In . SVG Version: 6.00 Build 0)  -->
<svg version="1.1" id="Regular" xmlns="http://www.w3.org/2000/svg" xmlns:xlink="http://www.w3.org/1999/xlink" x="0px" y="0px"
	 viewBox="0 0 24 24" style="enable-background:new 0 0 24 24;" xml:space="preserve">
<title>barbecue-set</title>
<g>
	<path d="M5.625,24c-0.027,0-0.054-0.001-0.081-0.004c-0.413-0.046-0.711-0.418-0.665-0.829l0.704-6.337
		c-1.857-1.263-2.958-3.332-2.958-5.58c0-0.414,0.336-0.75,0.75-0.75h11.25V0.75c0-0.414,0.336-0.75,0.75-0.75s0.75,0.336,0.75,0.75
		v0.792c2.971,0.326,5.25,2.556,5.25,5.208c0,2.666-2.298,4.902-5.288,5.212c-0.208,1.963-1.279,3.75-2.921,4.869l0.7,6.288
		c0.045,0.411-0.252,0.783-0.663,0.829c-0.03,0.003-0.057,0.004-0.083,0.004c-0.382,0-0.702-0.287-0.745-0.667L12.287,22.5H6.463
		L6.37,23.333C6.328,23.713,6.008,24,5.625,24z M12.12,21l-0.381-3.428C10.984,17.856,10.19,18,9.375,18
		c-0.816,0-1.609-0.144-2.365-0.429L6.629,21H12.12z M4.178,12c0.367,2.553,2.576,4.5,5.197,4.5c2.621,0,4.83-1.946,5.197-4.5H4.178
		z M16.125,10.448c2.133-0.301,3.75-1.865,3.75-3.698s-1.617-3.397-3.75-3.698V10.448z"/>
	<path d="M4.875,9c-0.414,0-0.75-0.336-0.75-0.75S4.461,7.5,4.875,7.5h7.5c0.414,0,0.75,0.336,0.75,0.75S12.789,9,12.375,9H4.875z"
		/>
</g>
</svg>
