<?xml version="1.0" encoding="utf-8"?>
<!-- Generator: Adobe Illustrator 22.1.0, SVG Export Plug-In . SVG Version: 6.00 Build 0)  -->
<svg version="1.1" id="Regular" xmlns="http://www.w3.org/2000/svg" xmlns:xlink="http://www.w3.org/1999/xlink" x="0px" y="0px"
	 viewBox="0 0 24 24" style="enable-background:new 0 0 24 24;" xml:space="preserve">
<title>barbecue-stick</title>
<g>
	<path d="M2.871,23.997c-0.768,0-1.489-0.298-2.03-0.84C0.298,22.615,0,21.894,0,21.127s0.299-1.488,0.841-2.03l4.1-4.1
		c0.283-0.283,0.659-0.439,1.06-0.439c0.4,0,0.776,0.156,1.059,0.438l0.441,0.441l2.768-2.768c-1.45-1.959-1.283-4.672,0.444-6.444
		l6.007-6.007c0.142-0.142,0.33-0.22,0.53-0.22s0.389,0.078,0.53,0.22C17.922,0.359,18,0.548,18,0.748s-0.078,0.389-0.22,0.53l-6,6
		c-1.339,1.374-1.308,3.589,0.071,4.933c0.661,0.645,1.527,1,2.437,1s1.776-0.355,2.438-1l5.993-5.993
		c0.142-0.142,0.33-0.22,0.53-0.22s0.389,0.078,0.53,0.22C23.922,6.359,24,6.548,24,6.748s-0.078,0.389-0.22,0.53l-6,6
		c-0.95,0.926-2.189,1.433-3.492,1.433c-1.06,0-2.097-0.347-2.956-0.984l-2.77,2.77l0.44,0.44c0.283,0.282,0.439,0.659,0.44,1.059
		c0,0.401-0.156,0.777-0.438,1.06l-4.101,4.101C4.36,23.699,3.639,23.997,2.871,23.997z M1.901,20.158
		c-0.535,0.535-0.535,1.405,0,1.939c0.259,0.258,0.603,0.401,0.97,0.401c0.367,0,0.711-0.142,0.97-0.401l4.1-4.1L6.993,17.05
		c-0.011-0.01-0.022-0.02-0.032-0.03c-0.005-0.005-0.01-0.011-0.015-0.017l-0.946-0.946L1.901,20.158z"/>
</g>
</svg>
