<?xml version="1.0" encoding="utf-8"?>
<!-- Generator: Adobe Illustrator 22.1.0, SVG Export Plug-In . SVG Version: 6.00 Build 0)  -->
<svg version="1.1" id="Regular" xmlns="http://www.w3.org/2000/svg" xmlns:xlink="http://www.w3.org/1999/xlink" x="0px" y="0px"
	 viewBox="0 0 24 24" style="enable-background:new 0 0 24 24;" xml:space="preserve">
<title>barbecue-stick-1</title>
<g>
	<path d="M3.011,23.995c-0.806,0-1.563-0.313-2.131-0.883c-1.169-1.172-1.169-3.08,0-4.252c0.141-0.142,0.33-0.22,0.531-0.22
		c0.2,0,0.388,0.078,0.53,0.219c0.292,0.292,0.293,0.768,0.001,1.06c-0.587,0.588-0.587,1.545,0,2.133
		c0.285,0.286,0.664,0.443,1.069,0.443c0.403,0,0.782-0.156,1.067-0.44c0.589-0.588,0.591-1.546,0.003-2.135
		c-0.058-0.058-0.092-0.117-0.116-0.161c-0.016-0.023-0.033-0.051-0.048-0.088c-0.027-0.067-0.035-0.127-0.039-0.162
		c-0.004-0.013-0.016-0.059-0.016-0.119c0-0.071,0.015-0.128,0.024-0.161c0.002-0.017,0.008-0.066,0.032-0.123
		c0.026-0.063,0.061-0.11,0.083-0.138c0.01-0.018,0.035-0.062,0.08-0.106l1.67-1.67c-0.689-1.162-0.521-2.675,0.443-3.639
		c0.56-0.56,1.308-0.869,2.105-0.869c0.56,0.003,1.088,0.153,1.553,0.435l1.124-1.124L9.36,10.38
		c-0.006-0.006-0.012-0.012-0.018-0.019L8.296,9.314c-0.142-0.141-0.22-0.33-0.22-0.53s0.078-0.389,0.22-0.53
		c0.141-0.142,0.33-0.22,0.53-0.22s0.389,0.078,0.53,0.22l0.535,0.535l2.121-2.121l-0.535-0.535c-0.142-0.141-0.22-0.33-0.22-0.53
		s0.078-0.389,0.22-0.53c0.141-0.142,0.33-0.22,0.53-0.22c0.2,0,0.389,0.078,0.53,0.219l2.679,2.679l1.106-1.106
		c-0.416-0.592-0.659-1.265-0.707-1.963c-0.067-0.973,0.255-1.868,0.906-2.519c0.59-0.59,1.394-0.915,2.265-0.915
		c0.084,0,0.169,0.003,0.255,0.009c0.692,0.048,1.36,0.288,1.949,0.698l1.731-1.736c0.142-0.142,0.331-0.22,0.531-0.22
		c0.2,0,0.388,0.078,0.53,0.219c0.142,0.141,0.22,0.329,0.22,0.53c0,0.2-0.077,0.389-0.219,0.531l-1.732,1.737
		c0.412,0.59,0.653,1.259,0.7,1.953c0.067,0.973-0.255,1.868-0.906,2.519c-0.59,0.59-1.395,0.915-2.268,0.915
		c-0.083,0-0.167-0.003-0.251-0.009c-0.688-0.048-1.352-0.285-1.939-0.692l-1.111,1.11l2.651,2.651c0.142,0.141,0.22,0.33,0.22,0.53
		s-0.078,0.389-0.22,0.53s-0.33,0.219-0.53,0.219s-0.389-0.078-0.53-0.219l-0.535-0.535l-2.121,2.121l0.535,0.535
		c0.292,0.292,0.292,0.768,0,1.061c-0.142,0.142-0.33,0.22-0.53,0.22s-0.389-0.078-0.53-0.22l-2.652-2.651l-1.132,1.133
		c0.675,1.159,0.503,2.665-0.453,3.622c-0.559,0.559-1.306,0.867-2.102,0.867c-0.537,0-1.072-0.149-1.537-0.424L5.602,19.46
		c0.686,1.166,0.509,2.686-0.465,3.657C4.569,23.683,3.815,23.995,3.011,23.995z M8.306,14.183
		c-0.405,0.003-0.779,0.156-1.053,0.429c-0.578,0.578-0.57,1.528,0.019,2.117c0.288,0.288,0.67,0.447,1.075,0.447
		c0.395,0,0.765-0.152,1.042-0.428c0.578-0.579,0.57-1.528-0.019-2.117C9.084,14.345,8.706,14.186,8.306,14.183z M14.152,13.049
		l2.121-2.121l-3.2-3.2l-2.121,2.121L14.152,13.049z M17.869,6.16c0.439,0.435,0.994,0.697,1.562,0.736
		c0.049,0.004,0.098,0.005,0.146,0.005c0.479,0,0.897-0.164,1.209-0.475c0.34-0.34,0.507-0.821,0.47-1.355
		c-0.04-0.573-0.305-1.131-0.746-1.573c-0.441-0.441-1-0.706-1.573-0.746c-0.049-0.003-0.097-0.005-0.146-0.005
		c-0.48,0-0.898,0.164-1.209,0.475c-0.34,0.34-0.507,0.821-0.47,1.355c0.04,0.57,0.302,1.125,0.739,1.566
		C17.858,6.149,17.864,6.154,17.869,6.16z"/>
</g>
</svg>
