<?xml version="1.0" encoding="utf-8"?>
<!-- Generator: Adobe Illustrator 22.1.0, SVG Export Plug-In . SVG Version: 6.00 Build 0)  -->
<svg version="1.1" id="Regular" xmlns="http://www.w3.org/2000/svg" xmlns:xlink="http://www.w3.org/1999/xlink" x="0px" y="0px"
	 viewBox="0 0 24 24" style="enable-background:new 0 0 24 24;" xml:space="preserve">
<title>baseball-player</title>
<g>
	<path d="M16.75,10.499c-2.068,0-3.75-1.682-3.75-3.75s1.682-3.75,3.75-3.75s3.75,1.682,3.75,3.75S18.818,10.499,16.75,10.499z
		 M16.75,4.499c-1.241,0-2.25,1.009-2.25,2.25s1.009,2.25,2.25,2.25S19,7.99,19,6.749S17.991,4.499,16.75,4.499z"/>
	<path d="M7.877,11.321c-0.128,0-0.256-0.033-0.368-0.097c-0.36-0.203-0.488-0.661-0.285-1.022l3.8-6.741
		c0.004-0.01,0.024-0.057,0.042-0.105c0.127-0.348,0.111-0.726-0.046-1.063c-0.157-0.337-0.435-0.593-0.784-0.72
		C10.08,1.517,9.919,1.488,9.757,1.488c-0.202,0-0.399,0.044-0.585,0.131c-0.337,0.157-0.593,0.435-0.72,0.784L6.149,9.947
		c-0.097,0.318-0.385,0.531-0.718,0.531h0c-0.074,0-0.147-0.011-0.218-0.032c-0.193-0.059-0.35-0.188-0.444-0.365
		c-0.094-0.177-0.114-0.38-0.055-0.571L7.03,1.927c0.275-0.756,0.809-1.342,1.51-1.668c0.387-0.18,0.797-0.271,1.218-0.271
		c0.338,0,0.672,0.059,0.993,0.177c0.724,0.265,1.303,0.796,1.629,1.497c0.326,0.701,0.36,1.486,0.095,2.21
		c-0.037,0.1-0.079,0.198-0.125,0.291L8.531,10.94C8.398,11.175,8.148,11.321,7.877,11.321z"/>
	<path d="M12.25,23.999c-0.081,0-0.161-0.013-0.238-0.039c-0.189-0.063-0.343-0.197-0.433-0.376s-0.104-0.383-0.041-0.573
		l0.711-2.134v-5.656c-0.079,0.052-0.152,0.112-0.22,0.179L9.652,17.78C8.945,18.487,8.003,18.876,7,18.876
		c-1.003,0-1.944-0.389-2.651-1.096l-1.94-1.939c-0.425-0.425-0.659-0.99-0.659-1.591c0-0.601,0.234-1.166,0.659-1.591
		C2.834,12.233,3.399,12,4,12c0.602,0,1.167,0.234,1.591,0.658L7,14.067l2.031-2.031c0.972-0.977,2.321-1.538,3.701-1.538H17.5
		c2.068,0,3.75,1.682,3.75,3.75v6.628l0.711,2.134c0.063,0.19,0.049,0.394-0.041,0.573c-0.09,0.179-0.244,0.313-0.434,0.376
		c-0.076,0.026-0.156,0.039-0.237,0.039c-0.323,0-0.609-0.206-0.711-0.513l-0.75-2.25c-0.026-0.077-0.039-0.157-0.039-0.237v-6.75
		c0-1.241-1.009-2.25-2.25-2.25h-4.758c-0.994,0-1.956,0.4-2.649,1.097l-2.562,2.562c-0.142,0.142-0.33,0.22-0.53,0.22
		s-0.389-0.078-0.53-0.22l-1.939-1.94c-0.141-0.142-0.33-0.22-0.531-0.22c-0.2,0-0.389,0.078-0.531,0.22
		c-0.142,0.142-0.22,0.33-0.22,0.531c0,0.2,0.078,0.389,0.22,0.531l1.94,1.939C5.834,17.143,6.399,17.377,7,17.377
		c0.602,0,1.167-0.234,1.591-0.657l2.379-2.379c0.543-0.542,1.264-0.841,2.03-0.841c0.414,0,0.75,0.336,0.75,0.75v6.75
		c0,0.08-0.013,0.16-0.038,0.237l-0.75,2.251C12.86,23.793,12.574,23.999,12.25,23.999z"/>
	<path d="M16.75,23.999c-0.414,0-0.75-0.336-0.75-0.75v-0.75c0-0.414,0.336-0.75,0.75-0.75s0.75,0.336,0.75,0.75v0.75
		C17.5,23.663,17.164,23.999,16.75,23.999z"/>
</g>
</svg>
