<?xml version="1.0" encoding="utf-8"?>
<!-- Generator: Adobe Illustrator 22.1.0, SVG Export Plug-In . SVG Version: 6.00 Build 0)  -->
<svg version="1.1" id="Regular" xmlns="http://www.w3.org/2000/svg" xmlns:xlink="http://www.w3.org/1999/xlink" x="0px" y="0px"
	 viewBox="0 0 24 24" style="enable-background:new 0 0 24 24;" xml:space="preserve">
<title>baseball-score</title>
<g>
	<path d="M12,24.001c-2.895,0-5.25-1.767-5.25-3.938c0-0.278,0.038-0.553,0.115-0.823l-5.648-1.769
		c-0.203-0.063-0.37-0.211-0.458-0.404c-0.088-0.193-0.091-0.415-0.006-0.61C2.49,12.446,7.01,9.75,12,9.75
		c4.99,0,9.51,2.696,11.248,6.708c0.084,0.194,0.082,0.417-0.006,0.61c-0.089,0.194-0.256,0.341-0.458,0.404l-5.647,1.769
		c0.076,0.269,0.115,0.545,0.115,0.823C17.25,22.235,14.895,24.001,12,24.001z M8.295,19.689c-0.03,0.124-0.045,0.249-0.045,0.374
		c0,1.322,1.717,2.438,3.75,2.438s3.75-1.116,3.75-2.438c0-0.125-0.015-0.251-0.045-0.374l-3.48,1.09
		c-0.072,0.023-0.148,0.034-0.224,0.034s-0.152-0.011-0.224-0.034L8.295,19.689z M12,19.277l2.745-0.86
		c-0.707-0.498-1.703-0.792-2.745-0.792s-2.038,0.295-2.745,0.792L12,19.277z M12,16.125c1.772,0,3.425,0.675,4.39,1.777
		l5.107-1.599C19.779,13.264,16.026,11.25,12,11.25c-4.026,0-7.779,2.014-9.497,5.053l5.107,1.599
		C8.575,16.8,10.228,16.125,12,16.125z"/>
	<path d="M0.75,8.25C0.336,8.25,0,7.914,0,7.5s0.336-0.75,0.75-0.75h3V2.075L1.959,3.149L2.78,3.97C2.922,4.111,3,4.3,3,4.5
		s-0.078,0.389-0.22,0.53C2.639,5.172,2.45,5.25,2.25,5.25S1.861,5.172,1.72,5.03l-1.5-1.5C0.055,3.366-0.023,3.139,0.006,2.908
		c0.029-0.231,0.159-0.432,0.359-0.551l3.75-2.25C4.23,0.037,4.364,0,4.5,0c0.129,0,0.257,0.034,0.37,0.097
		C5.104,0.23,5.25,0.48,5.25,0.75v6H7.5v-6C7.5,0.337,7.836,0,8.25,0h7.5c0.414,0,0.75,0.336,0.75,0.75v6h2.25v-6
		c0-0.27,0.146-0.52,0.38-0.653C19.243,0.034,19.371,0,19.5,0c0.136,0,0.27,0.037,0.386,0.107l3.75,2.25
		c0.2,0.12,0.331,0.321,0.359,0.552c0.028,0.23-0.05,0.457-0.214,0.621l-1.5,1.5c-0.142,0.142-0.33,0.22-0.53,0.22
		s-0.389-0.078-0.53-0.22C21.078,4.889,21,4.701,21,4.5s0.078-0.389,0.22-0.53l0.821-0.821L20.25,2.075V6.75h3
		C23.664,6.75,24,7.087,24,7.5s-0.336,0.75-0.75,0.75H0.75z M15,6.75v-1.5H9v1.5H15z M15,3.75V1.5H9v2.25H15z"/>
</g>
</svg>
