<?xml version="1.0" encoding="utf-8"?>
<!-- Generator: Adobe Illustrator 22.1.0, SVG Export Plug-In . SVG Version: 6.00 Build 0)  -->
<svg version="1.1" id="Regular" xmlns="http://www.w3.org/2000/svg" xmlns:xlink="http://www.w3.org/1999/xlink" x="0px" y="0px"
	 viewBox="0 0 24 24" style="enable-background:new 0 0 24 24;" xml:space="preserve">
<title>baseball-bat-ball</title>
<g>
	<path d="M4.371,23.999c-0.601,0-1.166-0.234-1.591-0.658l-2.122-2.122C0.234,20.794,0,20.229,0,19.628
		c0-0.601,0.234-1.166,0.66-1.591c0.424-0.424,0.988-0.657,1.589-0.657c0.312,0,0.617,0.064,0.9,0.187
		c2.372-2.992,11.843-14.921,13.17-16.249c0.851-0.794,1.944-1.226,3.085-1.226c0.053,0,0.106,0.001,0.16,0.003
		c1.201,0.042,2.314,0.55,3.134,1.43c1.603,1.72,1.603,4.415,0,6.135C21.348,9.014,9.426,18.481,6.434,20.851
		c0.123,0.282,0.188,0.587,0.188,0.897c0,0.601-0.234,1.167-0.659,1.592C5.538,23.765,4.973,23.999,4.371,23.999z M2.25,18.879
		c-0.201,0-0.389,0.078-0.53,0.219c-0.142,0.142-0.22,0.33-0.22,0.531c0,0.2,0.078,0.389,0.22,0.53l2.122,2.122
		c0.141,0.141,0.329,0.219,0.53,0.219c0.201,0,0.389-0.078,0.531-0.219c0.142-0.142,0.22-0.33,0.22-0.531
		c0-0.2-0.078-0.389-0.22-0.531l-2.121-2.121C2.639,18.957,2.451,18.879,2.25,18.879z M5.49,19.686
		c0.381-0.302,0.952-0.755,1.654-1.313l-1.517-1.517c-0.558,0.702-1.011,1.273-1.313,1.654L5.49,19.686z M8.325,17.433
		c0.466-0.371,0.964-0.768,1.485-1.183l-2.062-2.062c-0.416,0.521-0.812,1.02-1.183,1.485L8.325,17.433z M10.991,15.309
		c6.306-5.037,9.979-8.04,10.625-8.69c1.055-1.133,1.052-2.926-0.017-4.073c-0.546-0.586-1.288-0.925-2.089-0.953
		c-0.035-0.001-0.07-0.002-0.105-0.002c-0.762,0-1.488,0.286-2.045,0.805c-0.634,0.635-3.633,4.306-8.669,10.612L10.991,15.309z"/>
	<path d="M20.25,24c-2.068,0-3.75-1.682-3.75-3.75s1.682-3.75,3.75-3.75S24,18.182,24,20.25S22.318,24,20.25,24z M20.25,18
		C19.009,18,18,19.009,18,20.25s1.009,2.25,2.25,2.25s2.25-1.009,2.25-2.25S21.491,18,20.25,18z"/>
</g>
</svg>
