<?xml version="1.0" encoding="utf-8"?>
<!-- Generator: Adobe Illustrator 22.1.0, SVG Export Plug-In . SVG Version: 6.00 Build 0)  -->
<svg version="1.1" id="Regular" xmlns="http://www.w3.org/2000/svg" xmlns:xlink="http://www.w3.org/1999/xlink" x="0px" y="0px"
	 viewBox="0 0 24 24" style="enable-background:new 0 0 24 24;" xml:space="preserve">
<title>basketball-hoop</title>
<g>
	<path d="M13.443,23.998c-0.418-0.035-0.725-0.398-0.691-0.81L12.935,21h-1.87l0.182,2.188c0.034,0.412-0.273,0.775-0.685,0.81
		C10.538,23.999,10.519,24,10.5,24c-0.387,0-0.715-0.302-0.747-0.688L9.56,21H8.114l0.122,0.602
		c0.082,0.405-0.181,0.801-0.586,0.884c-0.052,0.01-0.1,0.015-0.147,0.015c-0.356,0-0.666-0.253-0.737-0.601L5.673,16.5H3.75
		C1.682,16.5,0,14.818,0,12.75V10.5c0-3.188,1.235-5.88,3.571-7.786C5.716,0.964,8.71,0,12,0c3.29,0,6.284,0.964,8.429,2.714
		C22.765,4.62,24,7.312,24,10.5v2.25c0,2.068-1.682,3.75-3.75,3.75h-1.922l-1.093,5.399c-0.07,0.348-0.379,0.601-0.734,0.601
		c-0.049,0-0.1-0.005-0.15-0.015c-0.196-0.04-0.365-0.153-0.476-0.32s-0.15-0.367-0.11-0.564L15.887,21H14.44l-0.193,2.312
		C14.215,23.698,13.887,24,13.5,24C13.481,24,13.463,23.999,13.443,23.998z M16.19,19.5l0.303-1.5H14.69l-0.125,1.5H16.19z
		 M13.06,19.5l0.125-1.5h-2.37l0.125,1.5H13.06z M9.435,19.5L9.31,18H7.507l0.303,1.5H9.435z M16.798,16.5l0.307-1.515l-2.164,0.013
		L14.815,16.5H16.798z M13.31,16.5l0.125-1.5h-2.87l0.125,1.5H13.31z M9.185,16.5L9.06,15H6.898l0.305,1.5H9.185z M20.25,15
		c1.241,0,2.25-1.009,2.25-2.25V10.5c0-4.48-3.247-9-10.5-9c-5.226,0-10.5,2.783-10.5,9v2.25C1.5,13.991,2.509,15,3.75,15H5.4
		c0-0.001,0-0.002,0-0.004c0.001-0.4,0.157-0.776,0.441-1.059C6.123,13.655,6.499,13.5,6.899,13.5h10.202
		c0.094,0,0.186,0.008,0.274,0.025c0.721,0.132,1.228,0.765,1.227,1.475H20.25z"/>
	<path d="M7.75,12C6.785,12,6,11.215,6,10.25v-4C6,5.285,6.785,4.5,7.75,4.5h8.5C17.215,4.5,18,5.285,18,6.25v4
		c0,0.965-0.785,1.75-1.75,1.75H7.75z M7.75,6C7.612,6,7.5,6.112,7.5,6.25v4c0,0.138,0.112,0.25,0.25,0.25h8.5
		c0.138,0,0.25-0.112,0.25-0.25v-4C16.5,6.112,16.388,6,16.25,6H7.75z"/>
</g>
</svg>
