<?xml version="1.0" encoding="utf-8"?>
<!-- Generator: Adobe Illustrator 22.1.0, SVG Export Plug-In . SVG Version: 6.00 Build 0)  -->
<svg version="1.1" id="Layer_1" xmlns="http://www.w3.org/2000/svg" xmlns:xlink="http://www.w3.org/1999/xlink" x="0px" y="0px"
	 viewBox="0 0 24 24" style="enable-background:new 0 0 24 24;" xml:space="preserve">
<title>bathroom-shower-person</title>
<g>
	<path d="M13.5,14.25c-1.861,0-3.375-1.514-3.375-3.375c0-1.861,1.514-3.375,3.375-3.375c1.861,0,3.375,1.514,3.375,3.375
		C16.875,12.736,15.361,14.25,13.5,14.25z M13.5,9c-1.034,0-1.875,0.841-1.875,1.875s0.841,1.875,1.875,1.875
		s1.875-0.841,1.875-1.875S14.534,9,13.5,9z"/>
	<path d="M16.5,24c-0.414,0-0.75-0.336-0.75-0.75V18.7c0-0.383,0.287-0.703,0.667-0.745c1.016-0.114,6.083-1.006,6.083-7.455
		c0-0.414-0.336-0.75-0.75-0.75S21,10.086,21,10.5c0,5.631-4.372,5.986-5.248,6H9c-0.6,0-1.164,0.235-1.589,0.661
		c-0.425,0.426-0.659,0.99-0.659,1.59C6.752,19.99,7.761,20.999,9,21h3c0.414,0,0.75-0.336,0.75-0.75S12.414,19.5,12,19.5H9
		c-0.414,0-0.75-0.336-0.75-0.75S8.586,18,9,18h3c1.241,0,2.25,1.009,2.25,2.25S13.241,22.5,12,22.5h-0.75v0.75
		c0,0.414-0.336,0.75-0.75,0.75s-0.75-0.336-0.75-0.75V22.5H9c-2.066-0.001-3.747-1.682-3.748-3.748
		c-0.001-1,0.389-1.942,1.098-2.651C7.058,15.392,7.999,15,9,15h6.74c0.877-0.014,3.76-0.38,3.76-4.5c0-1.241,1.009-2.25,2.25-2.25
		S24,9.259,24,10.5c0,2.864-0.876,5.139-2.604,6.762c-1.393,1.308-2.972,1.856-4.146,2.081v3.906C17.25,23.664,16.914,24,16.5,24z"
		/>
	<path d="M3.74,6.751c-0.387,0-0.754-0.148-1.033-0.417c-0.1-0.096-0.186-0.206-0.255-0.325C1.981,5.085,1.9,4.062,2.211,3.11
		c0.104-0.318,0.251-0.62,0.437-0.901L1.939,1.5H0.75C0.336,1.5,0,1.164,0,0.75S0.336,0,0.75,0h1.5c0.2,0,0.389,0.078,0.53,0.22
		l0.927,0.927c0.12-0.079,0.244-0.152,0.371-0.216C4.6,0.666,5.187,0.526,5.775,0.526c0.589,0,1.176,0.14,1.698,0.405
		C7.847,1.146,8.1,1.471,8.202,1.856c0.102,0.385,0.049,0.786-0.15,1.13c-0.07,0.121-0.157,0.231-0.258,0.328L4.806,6.302
		C4.534,6.582,4.164,6.743,3.768,6.75C3.766,6.75,3.742,6.751,3.74,6.751z M5.781,2.025c-0.356,0-0.71,0.084-1.024,0.244
		C4.222,2.54,3.823,3.004,3.637,3.576C3.454,4.135,3.495,4.731,3.752,5.258l2.992-3.016C6.45,2.1,6.118,2.025,5.781,2.025z"/>
	<path d="M9.691,6.05c-0.127,0-0.253-0.033-0.364-0.095l-1.116-0.62c-0.175-0.097-0.302-0.257-0.357-0.45
		c-0.055-0.193-0.032-0.395,0.066-0.57C8.052,4.078,8.303,3.93,8.575,3.93c0.127,0,0.253,0.033,0.364,0.095l1.116,0.62
		c0.175,0.097,0.302,0.257,0.357,0.45c0.055,0.193,0.032,0.395-0.066,0.57C10.214,5.902,9.963,6.05,9.691,6.05z"/>
	<path d="M11.987,3.569c-0.067,0-0.133-0.009-0.198-0.027l-1.615-0.44C9.776,2.994,9.54,2.581,9.648,2.182
		c0.089-0.325,0.386-0.553,0.723-0.553c0.067,0,0.133,0.009,0.198,0.027l1.615,0.44c0.193,0.053,0.354,0.177,0.454,0.351
		c0.099,0.174,0.125,0.376,0.073,0.57C12.622,3.342,12.325,3.569,11.987,3.569z"/>
	<path d="M16.205,4.72c-0.066,0-0.132-0.009-0.196-0.026l-1.617-0.441c-0.399-0.109-0.635-0.522-0.526-0.921
		c0.089-0.325,0.387-0.552,0.724-0.552c0.066,0,0.131,0.009,0.195,0.026l1.617,0.441c0.399,0.109,0.635,0.522,0.526,0.921
		C16.84,4.493,16.542,4.72,16.205,4.72z"/>
	<path d="M6.93,8.812c-0.272,0-0.523-0.148-0.656-0.385L5.698,7.389c-0.201-0.362-0.07-0.819,0.291-1.02
		C6.1,6.307,6.226,6.274,6.353,6.274c0.272,0,0.523,0.148,0.656,0.386l0.577,1.038c0.097,0.175,0.121,0.378,0.066,0.57
		S7.47,8.62,7.294,8.718C7.183,8.779,7.057,8.812,6.93,8.812z"/>
	<path d="M4.448,11.108c-0.337,0-0.635-0.227-0.723-0.553L3.284,8.94C3.176,8.541,3.412,8.128,3.811,8.019
		c0.064-0.018,0.131-0.026,0.198-0.026c0.337,0,0.635,0.228,0.723,0.553l0.44,1.615c0.109,0.399-0.128,0.812-0.526,0.921
		C4.581,11.099,4.515,11.108,4.448,11.108z"/>
	<path d="M5.403,14.607c-0.337,0-0.634-0.227-0.723-0.552l-0.245-0.896c-0.053-0.193-0.027-0.395,0.072-0.569
		s0.26-0.299,0.454-0.352c0.065-0.018,0.132-0.026,0.198-0.026c0.337,0,0.635,0.227,0.724,0.552l0.245,0.896
		c0.053,0.193,0.027,0.395-0.072,0.569s-0.26,0.299-0.454,0.352C5.536,14.598,5.47,14.607,5.403,14.607z"/>
</g>
</svg>
