<?xml version="1.0" encoding="utf-8"?>
<!-- Generator: Adobe Illustrator 22.1.0, SVG Export Plug-In . SVG Version: 6.00 Build 0)  -->
<svg version="1.1" id="Layer_1" xmlns="http://www.w3.org/2000/svg" xmlns:xlink="http://www.w3.org/1999/xlink" x="0px" y="0px"
	 viewBox="0 0 24 24" style="enable-background:new 0 0 24 24;" xml:space="preserve">
<title>bathroom-shower-head</title>
<g>
	<path d="M2.125,10.661c-0.236,0-0.46-0.113-0.601-0.302S1.339,9.923,1.406,9.698c1.087-3.657,3.92-6.49,7.577-7.577
		c0.801-0.238,1.626-0.387,2.456-0.442V0.911c0-0.414,0.336-0.75,0.75-0.75s0.75,0.336,0.75,0.75v0.77
		c4.685,0.315,8.69,3.497,10.034,8.016c0.067,0.226,0.023,0.474-0.118,0.662c-0.141,0.189-0.366,0.302-0.601,0.302H2.125z
		 M21.193,9.161c-1.485-3.575-4.995-5.965-8.903-6.007c-0.033,0.005-0.067,0.007-0.101,0.007c-0.03,0-0.059-0.002-0.088-0.006
		c-0.912,0.008-1.817,0.143-2.69,0.403C6.597,4.395,4.304,6.469,3.186,9.161H21.193z"/>
	<path d="M11.871,14.786c-0.62,0-1.125-0.505-1.125-1.125s0.505-1.125,1.125-1.125c0.62,0,1.125,0.505,1.125,1.125
		S12.491,14.786,11.871,14.786z"/>
	<path d="M11.871,20.786c-0.62,0-1.125-0.505-1.125-1.125s0.505-1.125,1.125-1.125c0.62,0,1.125,0.505,1.125,1.125
		S12.491,20.786,11.871,20.786z"/>
	<circle cx="5.871" cy="19.661" r="1.125"/>
	<circle cx="17.871" cy="19.661" r="1.125"/>
	<circle cx="8.871" cy="16.661" r="1.125"/>
	<circle cx="14.871" cy="16.661" r="1.125"/>
	<circle cx="8.871" cy="22.661" r="1.125"/>
	<circle cx="2.871" cy="22.661" r="1.125"/>
	<circle cx="14.871" cy="22.661" r="1.125"/>
	<circle cx="20.871" cy="22.661" r="1.125"/>
</g>
</svg>
