<?xml version="1.0" encoding="utf-8"?>
<!-- Generator: Adobe Illustrator 22.1.0, SVG Export Plug-In . SVG Version: 6.00 Build 0)  -->
<svg version="1.1" id="Layer_1" xmlns="http://www.w3.org/2000/svg" xmlns:xlink="http://www.w3.org/1999/xlink" x="0px" y="0px"
	 viewBox="0 0 24 24" style="enable-background:new 0 0 24 24;" xml:space="preserve">
<title>bathroom-tub-person</title>
<g>
	<path d="M6.75,7.125c-1.861,0-3.375-1.514-3.375-3.375S4.889,0.375,6.75,0.375s3.375,1.514,3.375,3.375S8.611,7.125,6.75,7.125z
		 M6.75,1.875c-1.034,0-1.875,0.841-1.875,1.875S5.716,5.625,6.75,5.625S8.625,4.784,8.625,3.75S7.784,1.875,6.75,1.875z"/>
	<path d="M20.25,23.625c-0.2,0-0.389-0.078-0.53-0.22l-1.637-1.637c-0.801,0.237-1.584,0.357-2.332,0.357h-7.5
		c-0.748,0-1.531-0.12-2.332-0.357L4.28,23.405c-0.142,0.142-0.33,0.22-0.53,0.22s-0.389-0.078-0.53-0.22
		C3.078,23.264,3,23.075,3,22.875s0.078-0.389,0.22-0.53l1.17-1.17c-0.562-0.272-1.091-0.592-1.58-0.955
		C0.998,18.873,0,17.152,0,15.375v-1.5c0-1.241,1.009-2.25,2.25-2.25h1.5v-2.25c-0.001-0.6,0.233-1.166,0.658-1.591
		c0.424-0.425,0.989-0.66,1.591-0.66c0.528,0,1.04,0.186,1.443,0.522l2.779,2.316c0.136,0.113,0.307,0.176,0.482,0.176
		c0.147,0,0.291-0.044,0.417-0.126l2.633-1.756c0.371-0.247,0.801-0.377,1.245-0.377c0.757,0,1.459,0.375,1.877,1.003
		c0.333,0.501,0.451,1.101,0.333,1.691c-0.08,0.397-0.26,0.757-0.523,1.052h5.065c1.241,0,2.25,1.009,2.25,2.25v1.5
		c0,1.778-0.998,3.498-2.81,4.845c-0.489,0.363-1.018,0.683-1.58,0.955l1.17,1.17c0.142,0.142,0.22,0.33,0.22,0.53
		s-0.078,0.389-0.22,0.53S20.45,23.625,20.25,23.625z M5.994,20.222c0.768,0.263,1.548,0.403,2.256,0.403h7.5
		c0.71,0,1.494-0.14,2.266-0.406c0,0,0.029-0.01,0.037-0.013c2.208-0.771,4.447-2.679,4.447-4.831v-1.5
		c0-0.414-0.336-0.75-0.75-0.75h-7.187l-0.948,0.631c-0.873,0.576-1.88,0.881-2.913,0.881c-1.216,0-2.409-0.431-3.357-1.214
		l-0.572-0.48c-0.153-0.128-0.247-0.309-0.265-0.509c-0.017-0.2,0.044-0.394,0.173-0.547c0.143-0.17,0.352-0.268,0.575-0.268
		c0.176,0,0.347,0.062,0.482,0.176l0.567,0.476c0.675,0.558,1.527,0.866,2.397,0.866c0.739,0,1.46-0.218,2.085-0.63l1.064-0.708
		c0.04-0.033,0.084-0.062,0.13-0.087l1.435-0.955c0.167-0.111,0.281-0.281,0.32-0.477c0.04-0.197,0-0.397-0.111-0.565
		c-0.139-0.21-0.374-0.335-0.627-0.335c-0.148,0-0.291,0.043-0.415,0.126l-2.636,1.758c-0.375,0.247-0.805,0.377-1.246,0.377
		c-0.523,0-1.035-0.186-1.441-0.525L6.481,8.798C6.346,8.686,6.175,8.624,6,8.624c-0.201,0-0.39,0.078-0.531,0.22
		C5.328,8.986,5.25,9.174,5.25,9.374v3.001c0,0.414-0.336,0.75-0.75,0.75H2.25c-0.414,0-0.75,0.336-0.75,0.75v1.5
		c0,1.579,1.393,3.765,4.451,4.833C5.963,20.211,5.978,20.216,5.994,20.222z"/>
</g>
</svg>
