<?xml version="1.0" encoding="utf-8"?>
<!-- Generator: Adobe Illustrator 22.1.0, SVG Export Plug-In . SVG Version: 6.00 Build 0)  -->
<svg version="1.1" id="Layer_1" xmlns="http://www.w3.org/2000/svg" xmlns:xlink="http://www.w3.org/1999/xlink" x="0px" y="0px"
	 viewBox="0 0 24 24" style="enable-background:new 0 0 24 24;" xml:space="preserve">
<title>bathroom-mirror-cabinet</title>
<g>
	<path d="M12.75,24C12.336,24,12,23.664,12,23.25V19.5h-0.75C10.009,19.5,9,18.491,9,17.25V15H2.25C1.009,15,0,13.991,0,12.75
		c0-0.96,0.615-1.808,1.5-2.121V2.25C1.5,1.009,2.509,0,3.75,0h16.5c1.241,0,2.25,1.009,2.25,2.25v8.379
		c0.885,0.314,1.5,1.162,1.5,2.121s-0.615,1.808-1.5,2.121v2.379c0,1.241-1.009,2.25-2.25,2.25H19.5v3.75
		c0,0.414-0.336,0.75-0.75,0.75H12.75z M18,22.5v-4.01c-0.718-0.287-1.474-0.451-2.25-0.489c-0.776,0.038-1.532,0.202-2.25,0.489
		v4.01H18z M20.25,18c0.414,0,0.75-0.336,0.75-0.75V15H10.5v2.25c0,0.414,0.336,0.75,0.75,0.75H12c0-0.287,0.167-0.553,0.427-0.677
		c1.036-0.495,2.143-0.771,3.29-0.822c0.006,0,0.061,0,0.066,0c1.147,0.051,2.254,0.328,3.29,0.823
		C19.333,17.447,19.5,17.713,19.5,18H20.25z M2.25,12c-0.414,0-0.75,0.336-0.75,0.75s0.336,0.75,0.75,0.75h19.5
		c0.414,0,0.75-0.336,0.75-0.75S22.164,12,21.75,12H2.25z M21,10.5V2.25c0-0.414-0.336-0.75-0.75-0.75H3.75
		C3.336,1.5,3,1.836,3,2.25v8.25h3.018C5.518,9.885,5.25,9.112,5.25,8.25C5.25,7.836,5.586,7.5,6,7.5h3V6
		c0-0.414,0.336-0.75,0.75-0.75S10.5,5.586,10.5,6v1.5h3c0.414,0,0.75,0.336,0.75,0.75c0,0.862-0.268,1.635-0.769,2.25H21z M6.874,9
		c0.343,0.948,1.383,1.5,2.876,1.5c1.494,0,2.533-0.552,2.876-1.5H6.874z"/>
</g>
</svg>
