<?xml version="1.0" encoding="utf-8"?>
<!-- Generator: Adobe Illustrator 22.1.0, SVG Export Plug-In . SVG Version: 6.00 Build 0)  -->
<svg version="1.1" id="Regular" xmlns="http://www.w3.org/2000/svg" xmlns:xlink="http://www.w3.org/1999/xlink" x="0px" y="0px"
	 viewBox="0 0 24 24" style="enable-background:new 0 0 24 24;" xml:space="preserve">
<title>beach-palm</title>
<g>
	<path d="M0.75,23.994c-0.414,0-0.75-0.336-0.75-0.75v-1.5c0-2.315,3.137-4.255,8.01-4.968l4.223-7.743l-5.837,1.585
		c-0.129,0.035-0.262,0.053-0.396,0.053c-0.673,0-1.267-0.453-1.446-1.102C4.496,9.355,4.485,9.127,4.524,8.908
		C4.791,6.65,6.441,4.774,8.643,4.218L7.677,3.17c-0.27-0.29-0.412-0.671-0.398-1.071c0.014-0.4,0.183-0.77,0.476-1.043
		C7.954,0.87,8.2,0.742,8.467,0.686c0.87-0.168,1.765-0.254,2.665-0.255c0.024,0,0.048,0.001,0.071,0.003
		c1.425,0.13,2.757,0.789,3.729,1.83c0.265-0.422,0.597-0.798,0.979-1.105c1.004-0.768,2.185-1.17,3.424-1.17
		c0.856,0,1.684,0.192,2.462,0.571c0.152,0.07,0.302,0.176,0.427,0.304c0.279,0.284,0.431,0.662,0.428,1.062
		c-0.004,0.4-0.163,0.775-0.448,1.055l-2.116,2.127c1.946,0.682,3.378,2.421,3.641,4.483c0.044,0.23,0.026,0.491-0.056,0.734
		c-0.206,0.612-0.778,1.023-1.424,1.023c-0.162,0-0.322-0.026-0.477-0.078l-5.476-1.792l-0.659,7.25
		C20.73,17.394,24,19.346,24,21.744v1.5c0,0.414-0.336,0.75-0.75,0.75H0.75z M22.5,22.494v-0.75c0-1.38-2.874-3.105-7.686-3.607
		c-0.019,0-0.038-0.001-0.057-0.003c-0.013-0.001-0.035-0.005-0.053-0.008c-0.876-0.088-1.786-0.132-2.704-0.132
		c-1.152,0-2.275,0.068-3.34,0.203c-0.051,0.012-0.102,0.019-0.153,0.021C3.956,18.825,1.5,20.486,1.5,21.744v0.75H22.5z
		 M9.828,16.575c0.713-0.054,1.441-0.081,2.172-0.081c0.717,0,1.436,0.027,2.144,0.079l0.689-7.575l-0.739-0.242L9.828,16.575z
		 M13.958,7.133l8.285,2.712l-0.002-0.053c-0.205-1.642-1.423-3-3.03-3.382c-0.405-0.087-0.829-0.132-1.252-0.132
		c-0.289,0-0.581,0.021-0.868,0.062c-0.037,0.005-0.072,0.008-0.107,0.008c-0.37,0-0.689-0.276-0.742-0.643
		c-0.059-0.409,0.226-0.79,0.635-0.849c0.335-0.048,0.684-0.073,1.037-0.073c0.121,0,0.245,0.003,0.37,0.009l2.862-2.877
		C20.571,1.632,19.96,1.49,19.331,1.49c-0.905,0-1.768,0.294-2.495,0.85c-0.493,0.396-0.853,0.964-1.007,1.592
		c-0.002,0.01-0.006,0.021-0.01,0.032c-0.007,0.021-0.014,0.041-0.021,0.06c-0.008,0.022-0.016,0.042-0.025,0.061
		c-0.009,0.019-0.023,0.042-0.037,0.064c-0.012,0.021-0.022,0.036-0.033,0.051c-0.02,0.027-0.036,0.044-0.052,0.06
		c-0.021,0.023-0.037,0.04-0.054,0.055c-0.01,0.009-0.038,0.03-0.049,0.038c-0.018,0.014-0.035,0.026-0.052,0.037
		c-0.009,0.006-0.019,0.012-0.027,0.017c-0.015,0.008-0.045,0.022-0.061,0.029c-0.015,0.008-0.038,0.017-0.061,0.025
		c-0.023,0.008-0.048,0.015-0.073,0.02c-0.028,0.007-0.048,0.011-0.069,0.014C15.177,4.5,15.15,4.501,15.123,4.502l-0.035,0.001
		c-0.007,0-0.023,0-0.03-0.001C15.026,4.5,14.995,4.496,14.965,4.49c-0.017-0.002-0.025-0.003-0.042-0.007
		C14.91,4.48,14.9,4.477,14.89,4.473c-0.023-0.007-0.044-0.015-0.064-0.023c-0.02-0.007-0.039-0.015-0.057-0.024
		c-0.019-0.009-0.042-0.023-0.065-0.038c-0.02-0.012-0.039-0.024-0.056-0.037c-0.02-0.015-0.037-0.031-0.054-0.047
		c-0.019-0.017-0.038-0.035-0.056-0.055C14.53,4.24,14.51,4.215,14.503,4.205c-0.017-0.022-0.03-0.041-0.041-0.058
		c-0.003-0.004-0.006-0.009-0.008-0.013c-0.7-1.246-1.951-2.064-3.357-2.203c-0.781,0.001-1.565,0.077-2.332,0.225l1.745,1.875
		c0.577,0.018,1.143,0.104,1.687,0.256c0.398,0.111,0.631,0.526,0.52,0.924c-0.09,0.323-0.387,0.548-0.722,0.548
		c-0.069,0-0.137-0.009-0.203-0.028c-0.489-0.137-0.997-0.207-1.51-0.207c-0.416,0-0.831,0.046-1.234,0.137
		C7.422,6.053,6.2,7.437,6.011,9.105C6.008,9.129,6.005,9.15,6.001,9.17c0,0,7.529-2.043,7.531-2.043
		c0.016-0.004,0.052-0.012,0.069-0.014c0.013-0.004,0.041-0.009,0.07-0.011C13.679,7.101,13.755,7.1,13.755,7.1
		c0.014,0,0.048,0.002,0.062,0.003c0.008,0.001,0.019,0.003,0.026,0.004c0.007,0.001,0.034,0.007,0.042,0.008
		c0.021,0.004,0.04,0.008,0.057,0.013C13.947,7.13,13.953,7.132,13.958,7.133z"/>
</g>
</svg>
