<?xml version="1.0" encoding="utf-8"?>
<!-- Generator: Adobe Illustrator 22.1.0, SVG Export Plug-In . SVG Version: 6.00 Build 0)  -->
<svg version="1.1" id="Regular" xmlns="http://www.w3.org/2000/svg" xmlns:xlink="http://www.w3.org/1999/xlink" x="0px" y="0px"
	 viewBox="0 0 24 24" style="enable-background:new 0 0 24 24;" xml:space="preserve">
<title>beach-swim</title>
<g>
	<path d="M23.25,24c-0.149,0-0.292-0.044-0.416-0.126l-1.363-0.909c-0.2-0.133-0.431-0.203-0.67-0.203
		c-0.117,0-0.233,0.017-0.345,0.051c-0.115,0.034-0.224,0.086-0.324,0.153l-0.764,0.509c-0.444,0.297-0.96,0.454-1.493,0.454
		c-0.296,0-0.59-0.049-0.871-0.144c-0.017-0.006-0.031-0.011-0.045-0.017c-0.224-0.08-0.418-0.176-0.593-0.293l-0.763-0.509
		c-0.199-0.133-0.431-0.203-0.669-0.203c-0.238,0-0.47,0.07-0.669,0.203L13.5,23.474c-0.447,0.299-0.967,0.457-1.502,0.457
		c-0.535,0-1.055-0.158-1.502-0.457l-0.763-0.509c-0.2-0.133-0.431-0.203-0.669-0.203c-0.238,0-0.469,0.07-0.669,0.203l-0.764,0.509
		c-0.447,0.299-0.966,0.457-1.501,0.457c-0.535,0-1.054-0.158-1.502-0.457l-0.763-0.509c-0.2-0.133-0.431-0.203-0.67-0.203
		s-0.47,0.07-0.67,0.203l-1.359,0.907c-0.124,0.082-0.267,0.126-0.416,0.126c-0.252,0-0.485-0.125-0.625-0.334
		c-0.229-0.344-0.136-0.811,0.208-1.04l1.36-0.907c0.448-0.298,0.967-0.456,1.502-0.456s1.054,0.157,1.501,0.456l0.764,0.509
		c0.2,0.134,0.431,0.204,0.669,0.204c0.238,0,0.469-0.071,0.668-0.204l0.765-0.51c0.447-0.298,0.966-0.456,1.501-0.456
		c0.535,0,1.054,0.157,1.501,0.456l0.764,0.509c0.2,0.134,0.432,0.204,0.67,0.204c0.238,0,0.469-0.071,0.669-0.204l0.764-0.51
		c0.023-0.015,0.045-0.03,0.068-0.043v-4.553c-0.239,0.085-0.491,0.129-0.75,0.129c-1.241,0-2.25-1.009-2.25-2.25v-3
		c0-2.895,2.355-5.25,5.25-5.25h3C21.645,6.75,24,9.105,24,12v3c0,1.241-1.009,2.25-2.25,2.25c-0.259,0-0.512-0.043-0.75-0.128
		v4.152c0.467,0.032,0.914,0.184,1.303,0.443l1.363,0.909c0.344,0.229,0.438,0.696,0.208,1.04C23.735,23.875,23.502,24,23.25,24z
		 M18,22.422c0.19-0.021,0.373-0.088,0.535-0.196l0.765-0.51c0.062-0.042,0.129-0.081,0.2-0.119v-3.884l-1.5,0.75V22.422z
		 M15,21.264c0.512,0.012,1.006,0.168,1.434,0.453l0.066,0.044v-3.297l-1.5-0.75V21.264z M17.25,17.162l2.25-1.125V15H15v1.037
		L17.25,17.162z M20.25,11.25c0.414,0,0.75,0.336,0.75,0.75v3c0,0.414,0.336,0.75,0.75,0.75S22.5,15.414,22.5,15v-3
		c0-2.068-1.682-3.75-3.75-3.75h-3C13.683,8.25,12,9.932,12,12v3c0,0.414,0.336,0.75,0.75,0.75S13.5,15.414,13.5,15v-2.748
		c0-0.414,0.336-0.75,0.75-0.75S15,11.838,15,12.252V13.5h4.5V12C19.5,11.586,19.837,11.25,20.25,11.25z"/>
	<path d="M9.289,20.308c-0.048,0-0.097-0.005-0.146-0.014c-0.198-0.039-0.367-0.153-0.478-0.32
		c-0.111-0.167-0.151-0.366-0.111-0.563L8.835,18h-5.67l0.282,1.411c0.039,0.196,0,0.396-0.111,0.563
		c-0.111,0.167-0.281,0.281-0.477,0.32c-0.05,0.01-0.099,0.014-0.146,0.014l0,0c-0.357,0-0.666-0.254-0.736-0.603l-0.462-2.308
		c-0.044-0.221,0.012-0.448,0.155-0.622C1.814,16.6,2.025,16.5,2.25,16.5H3V15c0-1.654,1.346-3,3-3s3,1.346,3,3v1.5h0.75
		c0.226,0,0.437,0.1,0.58,0.274c0.143,0.175,0.2,0.402,0.155,0.623l-0.462,2.308C9.954,20.054,9.645,20.308,9.289,20.308z M7.5,16.5
		V15c0-0.827-0.673-1.5-1.5-1.5S4.5,14.173,4.5,15v1.5H7.5z"/>
	<path d="M17.25,6.75c-1.861,0-3.375-1.514-3.375-3.375S15.389,0,17.25,0s3.375,1.514,3.375,3.375S19.112,6.75,17.25,6.75z
		 M17.25,1.5c-1.034,0-1.875,0.841-1.875,1.875S16.217,5.25,17.25,5.25s1.875-0.841,1.875-1.875S18.284,1.5,17.25,1.5z"/>
</g>
</svg>
