<?xml version="1.0" encoding="utf-8"?>
<!-- Generator: Adobe Illustrator 22.1.0, SVG Export Plug-In . SVG Version: 6.00 Build 0)  -->
<svg version="1.1" id="Layer_1" xmlns="http://www.w3.org/2000/svg" xmlns:xlink="http://www.w3.org/1999/xlink" x="0px" y="0px"
	 viewBox="0 0 24 24" style="enable-background:new 0 0 24 24;" xml:space="preserve">
<title>beacon-remote-laptop</title>
<g>
	<path d="M15.463,12c-0.414,0-0.75-0.336-0.75-0.75s0.336-0.75,0.75-0.75H22.5c-0.009-0.017-0.017-0.035-0.024-0.053L21.25,7.5
		h-6.459l-0.579,1.737C14.109,9.544,13.823,9.75,13.5,9.75c-0.081,0-0.16-0.013-0.237-0.039c-0.19-0.063-0.344-0.197-0.434-0.376
		c-0.089-0.179-0.104-0.382-0.041-0.572L13.5,6.628V1.5C13.5,0.673,14.173,0,15,0h6c0.827,0,1.5,0.673,1.5,1.5v5.1l1.359,3.266
		C23.948,10.05,24,10.275,24,10.5c0,0.827-0.673,1.5-1.5,1.5H15.463z M21,6V1.5h-6L15,6H21z"/>
	<path d="M6.75,21.001c-1.241,0-2.25-1.009-2.25-2.25s1.009-2.25,2.25-2.25S9,17.51,9,18.751S7.991,21.001,6.75,21.001z
		 M6.75,18.001c-0.414,0-0.75,0.336-0.75,0.75s0.336,0.75,0.75,0.75s0.75-0.336,0.75-0.75S7.164,18.001,6.75,18.001z"/>
	<path d="M2.25,24C1.009,24,0,22.991,0,21.75v-9c0-1.241,1.009-2.25,2.25-2.25h9c1.241,0,2.25,1.009,2.25,2.25v9
		c0,1.241-1.009,2.25-2.25,2.25H2.25z M2.25,12c-0.414,0-0.75,0.336-0.75,0.75v9c0,0.414,0.336,0.75,0.75,0.75h9
		c0.414,0,0.75-0.336,0.75-0.75v-9c0-0.414-0.336-0.75-0.75-0.75H2.25z"/>
	<path d="M9.4,16.099c-0.2,0-0.388-0.078-0.53-0.219c-0.566-0.565-1.318-0.876-2.12-0.876s-1.555,0.311-2.12,0.875
		c-0.142,0.142-0.33,0.219-0.53,0.219c-0.201,0-0.389-0.078-0.531-0.22c-0.292-0.292-0.292-0.768,0.001-1.06
		c0.848-0.847,1.978-1.314,3.18-1.314s2.332,0.467,3.18,1.314c0.292,0.292,0.293,0.768,0.001,1.061
		C9.789,16.021,9.601,16.099,9.4,16.099z"/>
	<path d="M2.871,9c-0.2,0-0.389-0.078-0.53-0.22c-0.292-0.293-0.292-0.768,0-1.061c1.136-1.135,2.642-1.76,4.243-1.76
		c1.24,0,2.434,0.379,3.453,1.095c0.164,0.115,0.273,0.287,0.307,0.485s-0.01,0.396-0.125,0.56c-0.14,0.199-0.37,0.319-0.614,0.319
		l0,0c-0.155,0-0.304-0.047-0.432-0.137C8.409,7.744,7.513,7.46,6.584,7.46c-1.2,0-2.331,0.469-3.182,1.321
		C3.259,8.922,3.071,9,2.871,9z"/>
	<path d="M0.75,6.879c-0.2,0-0.389-0.078-0.53-0.22c-0.292-0.293-0.292-0.768,0-1.061c1.702-1.701,3.962-2.638,6.366-2.638
		c1.842,0,3.618,0.557,5.135,1.611c0.165,0.114,0.275,0.286,0.31,0.483c0.036,0.197-0.008,0.396-0.122,0.561
		c-0.141,0.202-0.371,0.322-0.617,0.322c-0.153,0-0.301-0.046-0.427-0.134C9.6,4.925,8.121,4.461,6.586,4.461
		c-2.003,0-3.887,0.781-5.305,2.199C1.138,6.801,0.95,6.879,0.75,6.879z"/>
</g>
</svg>
