<?xml version="1.0" encoding="utf-8"?>
<!-- Generator: Adobe Illustrator 22.1.0, SVG Export Plug-In . SVG Version: 6.00 Build 0)  -->
<svg version="1.1" id="Regular" xmlns="http://www.w3.org/2000/svg" xmlns:xlink="http://www.w3.org/1999/xlink" x="0px" y="0px"
	 viewBox="0 0 24 24" style="enable-background:new 0 0 24 24;" xml:space="preserve">
<title>beanie-winter-1</title>
<g>
	<path d="M3.75,24c-1.241,0-2.25-1.009-2.25-2.25v-3c0-0.96,0.615-1.808,1.5-2.121V13.5c0-4.069,2.745-7.617,6.618-8.678
		C9.22,4.303,9,3.667,9,3c0-1.654,1.346-3,3-3c1.654,0,3,1.346,3,3c0,0.667-0.22,1.303-0.618,1.822C18.255,5.883,21,9.431,21,13.5
		v3.129c0.885,0.314,1.5,1.162,1.5,2.121v3c0,1.241-1.009,2.25-2.25,2.25H3.75z M20.25,22.5c0.414,0,0.75-0.336,0.75-0.75v-3
		c0-0.414-0.336-0.75-0.75-0.75H18v4.5H20.25z M16.5,22.5V18h-3.75v4.5H16.5z M11.25,22.5V18H7.5v4.5H11.25z M3.75,18
		C3.336,18,3,18.336,3,18.75v3c0,0.414,0.336,0.75,0.75,0.75H6V18H3.75z M19.5,16.5v-3c0-2.638-1.404-5.063-3.607-6.408
		c1.681,2.907,2.023,7.483,2.091,9.408H19.5z M16.48,16.5c-0.043-1.065-0.181-3.093-0.621-5.1c-0.468-2.135-1.381-4.699-3.109-5.278
		V16.5H16.48z M11.25,16.5V6.124C9.866,6.595,8.796,8.407,8.139,11.41c-0.438,2.003-0.576,4.026-0.619,5.09H11.25z M6.016,16.5
		c0.068-1.925,0.41-6.501,2.091-9.408C5.904,8.437,4.5,10.862,4.5,13.5v3H6.016z M12,1.5c-0.827,0-1.5,0.673-1.5,1.5
		s0.673,1.5,1.5,1.5s1.5-0.673,1.5-1.5S12.827,1.5,12,1.5z"/>
</g>
</svg>
