<?xml version="1.0" encoding="utf-8"?>
<!-- Generator: Adobe Illustrator 22.1.0, SVG Export Plug-In . SVG Version: 6.00 Build 0)  -->
<svg version="1.1" id="Regular" xmlns="http://www.w3.org/2000/svg" xmlns:xlink="http://www.w3.org/1999/xlink" x="0px" y="0px"
	 viewBox="0 0 24 24" style="enable-background:new 0 0 24 24;" xml:space="preserve">
<title>beard-style</title>
<g>
	<path d="M11.978,23.996c-3.791,0-6.96-1.701-9.164-4.919C1.012,16.446-0.022,12.919-0.022,9.4c-0.168-2.681,0.134-5.379,0.9-7.996
		c0.063-0.214,0.216-0.388,0.42-0.477c0.096-0.041,0.196-0.062,0.299-0.062c0.116,0,0.232,0.027,0.336,0.079
		C3.541,1.75,4.4,4.312,5.158,6.573c0.109,0.326,0.214,0.637,0.316,0.93c2.034-0.918,4.27-1.416,6.495-1.445
		c2.24,0.029,4.48,0.527,6.514,1.445c0.099-0.285,0.201-0.587,0.306-0.901l0.009-0.026c0.759-2.262,1.619-4.826,3.23-5.632
		c0.104-0.052,0.22-0.079,0.336-0.079c0.104,0,0.205,0.021,0.3,0.063c0.205,0.089,0.358,0.263,0.42,0.478
		c0.764,2.616,1.064,5.322,0.894,8.042c0.001,3.481-1.032,7-2.834,9.631C18.939,22.295,15.77,23.996,11.978,23.996z M2.009,3.002
		c-0.486,2.08-0.665,4.213-0.532,6.352c0.001,3.262,0.94,6.489,2.575,8.876c1.333,1.947,3.791,4.267,7.927,4.267
		c4.136,0,6.594-2.32,7.927-4.265c1.635-2.387,2.573-5.606,2.573-8.831c0.135-2.175-0.042-4.318-0.527-6.4
		c-0.703,0.985-1.265,2.661-1.732,4.053c-0.212,0.633-0.413,1.231-0.621,1.759c-0.077,0.197-0.235,0.353-0.433,0.427
		c-0.085,0.032-0.174,0.048-0.264,0.048c-0.119,0-0.239-0.029-0.345-0.084c-2.028-1.048-4.306-1.617-6.588-1.646
		C9.703,7.587,7.428,8.157,5.4,9.204C5.294,9.259,5.175,9.288,5.055,9.288c-0.091,0-0.18-0.016-0.265-0.049
		C4.593,9.166,4.435,9.01,4.357,8.812C4.151,8.286,3.949,7.685,3.736,7.049C3.27,5.66,2.709,3.987,2.009,3.002z"/>
	<path d="M9.776,16.919c-0.68,0-1.325-0.16-1.917-0.477c-1.107-0.592-1.823-1.655-1.823-2.708c0-2.035,2.332-3.35,5.942-3.35
		s5.942,1.315,5.942,3.35c0,1.051-0.715,2.113-1.82,2.706c-0.592,0.317-1.237,0.478-1.917,0.478c0,0,0,0,0,0
		c-0.745,0-1.502-0.199-2.204-0.579C11.279,16.72,10.522,16.919,9.776,16.919z M11.978,11.885c-2.532,0-4.442,0.795-4.442,1.85
		c0,0.499,0.414,1.055,1.03,1.384c0.212,0.114,0.655,0.304,1.234,0.304c0.591,0,1.183-0.196,1.762-0.582
		c0.123-0.083,0.268-0.126,0.417-0.126c0.148,0,0.292,0.043,0.415,0.125c0.58,0.386,1.174,0.582,1.765,0.582
		c0.58,0,1.021-0.19,1.233-0.304c0.606-0.324,1.029-0.893,1.029-1.383C16.421,12.68,14.511,11.885,11.978,11.885z"/>
</g>
</svg>
