<?xml version="1.0" encoding="utf-8"?>
<!-- Generator: Adobe Illustrator 22.1.0, SVG Export Plug-In . SVG Version: 6.00 Build 0)  -->
<svg version="1.1" id="Regular" xmlns="http://www.w3.org/2000/svg" xmlns:xlink="http://www.w3.org/1999/xlink" x="0px" y="0px"
	 viewBox="0 0 24 24" style="enable-background:new 0 0 24 24;" xml:space="preserve">
<title>bear-paw</title>
<g>
	<path d="M6.759,13.499c-3.722,0-6.75-3.028-6.75-6.75c0.006-0.742,0.167-1.483,0.466-2.159c-0.42-0.668-0.558-1.458-0.391-2.23
		c0.17-0.782,0.634-1.45,1.307-1.883c0.485-0.312,1.043-0.476,1.614-0.476c0.214,0,0.43,0.023,0.642,0.069
		C4.244,0.2,4.77,0.497,5.182,0.933c0.515-0.117,1.042-0.179,1.569-0.185c0.54,0.006,1.07,0.068,1.586,0.185
		C8.9,0.336,9.68-0.002,10.512-0.002c0.805,0.001,1.557,0.314,2.122,0.881c0.565,0.567,0.876,1.32,0.875,2.12
		c-0.001,0.572-0.161,1.118-0.464,1.594c0.298,0.675,0.458,1.414,0.464,2.15C13.509,10.47,10.481,13.499,6.759,13.499z M3.008,1.503
		c-0.286,0-0.564,0.082-0.805,0.237C1.867,1.956,1.635,2.289,1.55,2.68C1.465,3.07,1.537,3.47,1.753,3.806
		c0.045,0.07,0.097,0.137,0.153,0.199c0.218,0.239,0.258,0.589,0.1,0.871c-0.32,0.573-0.492,1.223-0.498,1.879
		c0,2.89,2.355,5.244,5.25,5.244s5.25-2.355,5.25-5.25c-0.005-0.651-0.177-1.3-0.498-1.873c-0.159-0.284-0.117-0.636,0.104-0.875
		c0.253-0.274,0.393-0.631,0.394-1.004c0.001-0.4-0.155-0.776-0.437-1.059c-0.282-0.283-0.658-0.439-1.058-0.44
		c-0.515,0-0.986,0.258-1.262,0.689C9.113,2.404,8.877,2.533,8.62,2.533c-0.073,0-0.145-0.01-0.215-0.031
		C7.867,2.339,7.312,2.254,6.751,2.248c-0.547,0.006-1.1,0.091-1.635,0.253c-0.07,0.021-0.143,0.032-0.217,0.032
		c-0.256,0-0.492-0.129-0.631-0.345C3.992,1.759,3.521,1.503,3.008,1.503z"/>
	<path d="M6.759,10.499c-0.414,0-0.75-0.336-0.75-0.75v-1.5c-0.414,0-0.75-0.336-0.75-0.75s0.336-0.75,0.75-0.75h1.5
		c0.414,0,0.75,0.336,0.75,0.75s-0.336,0.75-0.75,0.75v1.5C7.509,10.163,7.173,10.499,6.759,10.499z"/>
	<path d="M14.179,23.996c-0.647,0-1.246-0.289-1.644-0.792c-0.628-0.762-0.979-1.734-0.986-2.729c0-2.653,2.458-4.81,5.479-4.81
		c3.022,0,5.481,2.156,5.481,4.805c-0.007,1.001-0.361,1.975-0.996,2.744c-0.382,0.487-0.995,0.782-1.632,0.782c0,0,0,0,0,0
		c-0.368,0-0.729-0.097-1.045-0.281c-0.541-0.302-1.167-0.464-1.805-0.464c-0.64,0-1.269,0.163-1.819,0.47
		C14.904,23.9,14.545,23.996,14.179,23.996L14.179,23.996z M17.028,17.165c-2.194,0-3.979,1.483-3.979,3.305
		c0.004,0.649,0.235,1.285,0.651,1.789c0.006,0.008,0.018,0.022,0.023,0.03c0.098,0.124,0.272,0.207,0.453,0.207
		c0.103,0,0.204-0.027,0.292-0.078c0.781-0.437,1.665-0.666,2.562-0.666c0.896,0,1.777,0.228,2.548,0.659
		c0.096,0.056,0.199,0.084,0.304,0.084c0.183,0,0.352-0.081,0.463-0.223c0.426-0.516,0.659-1.155,0.664-1.808
		C21.009,18.647,19.223,17.165,17.028,17.165z"/>
	<path d="M15.009,14.915c-0.286,0-0.543-0.159-0.671-0.415l-0.75-1.5c-0.185-0.37-0.034-0.821,0.335-1.006
		c0.105-0.052,0.22-0.079,0.335-0.079c0.286,0,0.543,0.159,0.671,0.414l0.75,1.5c0.185,0.37,0.034,0.821-0.335,1.006
		C15.24,14.888,15.125,14.915,15.009,14.915z"/>
	<path d="M11.259,16.415c-0.2,0-0.389-0.078-0.53-0.22l-0.75-0.75c-0.292-0.292-0.292-0.768,0-1.061
		c0.142-0.142,0.33-0.22,0.53-0.22l0,0c0.2,0,0.389,0.078,0.53,0.22l0.75,0.75c0.292,0.292,0.292,0.768,0,1.061
		C11.648,16.337,11.46,16.415,11.259,16.415z"/>
	<path d="M18.759,14.915c-0.115,0-0.231-0.027-0.334-0.079c-0.37-0.185-0.521-0.637-0.336-1.006l0.75-1.5
		c0.128-0.256,0.385-0.414,0.672-0.414c0.115,0,0.23,0.027,0.334,0.079c0.37,0.186,0.521,0.637,0.336,1.006l-0.75,1.5
		C19.302,14.756,19.045,14.915,18.759,14.915z"/>
	<path d="M22.509,16.415c-0.2,0-0.389-0.078-0.53-0.22c-0.292-0.292-0.292-0.768,0-1.061l0.75-0.75c0.142-0.142,0.33-0.22,0.53-0.22
		l0,0c0.2,0,0.389,0.078,0.53,0.22c0.292,0.292,0.292,0.768,0,1.061l-0.75,0.75C22.898,16.337,22.709,16.415,22.509,16.415z"/>
</g>
</svg>
