<?xml version="1.0" encoding="utf-8"?>
<!-- Generator: Adobe Illustrator 22.1.0, SVG Export Plug-In . SVG Version: 6.00 Build 0)  -->
<svg version="1.1" id="Regular" xmlns="http://www.w3.org/2000/svg" xmlns:xlink="http://www.w3.org/1999/xlink" x="0px" y="0px"
	 viewBox="0 0 24 24" style="enable-background:new 0 0 24 24;" xml:space="preserve">
<title>beard-style-shaving-machine</title>
<g>
	<path d="M12,24c-2.895,0-5.25-2.355-5.25-5.25V10.5c0-0.148,0.043-0.292,0.126-0.416L7.599,9H6.521
		C5.418,9,4.485,8.211,4.302,7.125L3.76,3.873C3.758,3.859,3.756,3.837,3.755,3.819C3.752,3.795,3.75,3.773,3.75,3.75v-3
		C3.75,0.336,4.086,0,4.5,0s0.75,0.336,0.75,0.75V3h1.5V0.751c0-0.414,0.336-0.75,0.75-0.75s0.75,0.336,0.75,0.75V3h1.5V0.751
		c0-0.414,0.336-0.75,0.75-0.75s0.75,0.336,0.75,0.75V3h1.5V0.751c0-0.414,0.336-0.75,0.75-0.75s0.75,0.336,0.75,0.75V3h1.5V0.751
		c0-0.414,0.336-0.75,0.75-0.75s0.75,0.336,0.75,0.75V3h1.5V0.75C18.75,0.336,19.086,0,19.5,0s0.75,0.336,0.75,0.75v3
		c0,0.024-0.002,0.046-0.005,0.069c-0.001,0.017-0.002,0.033-0.005,0.049l-0.542,3.255C19.515,8.211,18.582,9,17.48,9h-1.079
		l0.723,1.084c0.083,0.124,0.126,0.268,0.126,0.416v8.25C17.25,21.645,14.895,24,12,24z M8.25,18.75c0,2.068,1.682,3.75,3.75,3.75
		c2.068,0,3.75-1.682,3.75-3.75V16.5h-7.5V18.75z M15.75,15v-4.273L14.599,9H9.401L8.25,10.727V15H15.75z M5.781,6.877
		C5.842,7.238,6.153,7.5,6.52,7.5h10.959c0.368,0,0.679-0.263,0.74-0.625L18.615,4.5H17.25v0.751c0,0.414-0.336,0.75-0.75,0.75
		s-0.75-0.336-0.75-0.75V4.5h-1.5v0.751c0,0.414-0.336,0.75-0.75,0.75s-0.75-0.336-0.75-0.75V4.5h-1.5v0.751
		c0,0.414-0.336,0.75-0.75,0.75s-0.75-0.336-0.75-0.75V4.5h-1.5v0.751c0,0.414-0.336,0.75-0.75,0.75s-0.75-0.336-0.75-0.75V4.5
		H5.385L5.781,6.877z"/>
	<path d="M12,13.125c-0.044,0-0.088-0.004-0.13-0.011c-0.513-0.06-0.922-0.47-0.983-0.982c-0.008-0.043-0.012-0.087-0.012-0.131
		s0.004-0.088,0.012-0.131c0.06-0.513,0.47-0.922,0.982-0.982c0.043-0.008,0.087-0.012,0.131-0.012s0.088,0.004,0.131,0.012
		c0.513,0.06,0.922,0.47,0.983,0.983c0.007,0.042,0.011,0.086,0.011,0.13s-0.004,0.088-0.011,0.13
		c-0.061,0.513-0.47,0.923-0.983,0.983C12.088,13.121,12.044,13.125,12,13.125z"/>
	<path d="M11.25,19.5c-0.414,0-0.75-0.336-0.75-0.75S10.836,18,11.25,18h1.5c0.414,0,0.75,0.336,0.75,0.75s-0.336,0.75-0.75,0.75
		H11.25z"/>
</g>
</svg>
