<?xml version="1.0" encoding="utf-8"?>
<!-- Generator: Adobe Illustrator 22.1.0, SVG Export Plug-In . SVG Version: 6.00 Build 0)  -->
<svg version="1.1" id="Regular" xmlns="http://www.w3.org/2000/svg" xmlns:xlink="http://www.w3.org/1999/xlink" x="0px" y="0px"
	 viewBox="0 0 24 24" style="enable-background:new 0 0 24 24;" xml:space="preserve">
<title>beard-style-mustache</title>
<g>
	<path d="M16.487,16.518c-1.686,0-3.299-0.67-4.487-1.85c-1.188,1.18-2.803,1.849-4.49,1.849c-0.154,0-0.311-0.006-0.465-0.017
		c-3.242-0.01-6.104-1.797-6.96-4.349c-0.087-0.24-0.108-0.511-0.057-0.775c0.074-0.395,0.299-0.738,0.631-0.965
		c0.251-0.172,0.544-0.262,0.847-0.262c0.094,0,0.189,0.009,0.282,0.026c0.192,0.048,0.365,0.07,0.537,0.07
		c0.682,0,1.31-0.338,1.68-0.905C4.19,9.081,4.343,8.863,4.487,8.656C5.564,7.114,6.342,6,8.699,6c1.25,0,2.402,0.437,3.3,1.238
		C12.897,6.437,14.042,6,15.263,6l0.047,0c2.35,0,3.128,1.114,4.205,2.656c0.148,0.212,0.299,0.428,0.463,0.655
		c0.004,0.005,0.017,0.025,0.021,0.03c0.371,0.568,0.998,0.907,1.676,0.907c0.167,0,0.333-0.021,0.495-0.062
		c0.126-0.025,0.23-0.035,0.332-0.035c0.173,0,0.343,0.029,0.504,0.088c0.782,0.281,1.189,1.146,0.908,1.928
		c-0.85,2.54-3.71,4.324-6.956,4.334C16.801,16.512,16.642,16.518,16.487,16.518z M11.999,12.78c0.234,0,0.457,0.111,0.598,0.298
		c0.932,1.233,2.349,1.94,3.89,1.94c0.128,0,0.256-0.005,0.385-0.015C16.893,15.001,16.911,15,16.93,15
		c2.623,0,4.912-1.368,5.567-3.326c0,0,0.001-0.025,0.001-0.025c-0.256,0.065-0.542,0.101-0.827,0.101
		c-1.179,0-2.271-0.591-2.923-1.582c-0.156-0.215-0.308-0.433-0.452-0.639C17.29,8.09,16.878,7.5,15.304,7.5l-0.036,0
		c-1.051,0-2.028,0.471-2.68,1.293c-0.139,0.176-0.354,0.276-0.588,0.276c-0.234,0-0.448-0.101-0.588-0.276
		C10.76,7.971,9.792,7.5,8.758,7.5l-0.05,0c-1.584,0-1.996,0.59-2.991,2.015C5.569,9.728,5.412,9.953,5.24,10.19
		c-0.633,0.97-1.725,1.558-2.911,1.558c-0.277,0-0.553-0.033-0.823-0.098C2.165,13.631,4.454,15,7.072,15
		c0.019,0,0.038,0.001,0.057,0.002c0.127,0.01,0.253,0.014,0.379,0.014c1.542,0,2.961-0.707,3.892-1.939
		C11.542,12.892,11.766,12.78,11.999,12.78z"/>
</g>
</svg>
