<?xml version="1.0" encoding="utf-8"?>
<!-- Generator: Adobe Illustrator 22.1.0, SVG Export Plug-In . SVG Version: 6.00 Build 0)  -->
<svg version="1.1" id="Regular" xmlns="http://www.w3.org/2000/svg" xmlns:xlink="http://www.w3.org/1999/xlink" x="0px" y="0px"
	 viewBox="0 0 24 24" style="enable-background:new 0 0 24 24;" xml:space="preserve">
<title>beard-style-shave</title>
<g>
	<path d="M6,21.75c-1.241,0-2.25-1.009-2.25-2.25v-0.75C3.75,18.336,3.414,18,3,18H2.25C1.009,18,0,16.991,0,15.75v-7.5
		C0,7.009,1.009,6,2.25,6H3c0.414,0,0.75-0.336,0.75-0.75V4.5c0-1.241,1.009-2.25,2.25-2.25h12c1.241,0,2.25,1.009,2.25,2.25v0.75
		C20.25,5.664,20.586,6,21,6h0.75C22.991,6,24,7.009,24,8.25v7.5c0,1.241-1.009,2.25-2.25,2.25H21c-0.414,0-0.75,0.336-0.75,0.75
		v0.75c0,1.241-1.009,2.25-2.25,2.25H6z M2.25,7.5C1.836,7.5,1.5,7.836,1.5,8.25v7.5c0,0.414,0.336,0.75,0.75,0.75H3
		c1.241,0,2.25,1.009,2.25,2.25v0.75c0,0.414,0.336,0.75,0.75,0.75h12c0.414,0,0.75-0.336,0.75-0.75v-0.75
		c0-1.241,1.009-2.25,2.25-2.25h0.75c0.414,0,0.75-0.336,0.75-0.75v-7.5c0-0.414-0.336-0.75-0.75-0.75H21
		c-1.241,0-2.25-1.009-2.25-2.25V4.5c0-0.414-0.336-0.75-0.75-0.75H6c-0.414,0-0.75,0.336-0.75,0.75v0.75
		C5.25,6.491,4.241,7.5,3,7.5H2.25z"/>
	<path d="M7.5,6.75C7.086,6.75,6.75,6.414,6.75,6S7.086,5.25,7.5,5.25h9c0.414,0,0.75,0.336,0.75,0.75s-0.336,0.75-0.75,0.75H7.5z"
		/>
	<path d="M7.5,18.75c-0.414,0-0.75-0.336-0.75-0.75s0.336-0.75,0.75-0.75h9c0.414,0,0.75,0.336,0.75,0.75s-0.336,0.75-0.75,0.75H7.5
		z"/>
	<path d="M18.75,14.25c-0.96,0-1.808-0.615-2.121-1.5h-2.507c-0.314,0.885-1.162,1.5-2.121,1.5s-1.808-0.615-2.121-1.5H7.371
		c-0.314,0.885-1.162,1.5-2.121,1.5c-0.414,0-0.75-0.336-0.75-0.75s0.336-0.75,0.75-0.75S6,12.414,6,12s-0.336-0.75-0.75-0.75
		S4.5,10.914,4.5,10.5s0.336-0.75,0.75-0.75c0.96,0,1.808,0.615,2.121,1.5h2.507c0.314-0.885,1.162-1.5,2.121-1.5
		c0.96,0,1.808,0.615,2.121,1.5h2.507c0.313-0.885,1.161-1.5,2.121-1.5c0.414,0,0.75,0.336,0.75,0.75s-0.336,0.75-0.75,0.75
		S18,11.586,18,12s0.336,0.75,0.75,0.75s0.75,0.336,0.75,0.75S19.164,14.25,18.75,14.25z M12,11.25c-0.414,0-0.75,0.336-0.75,0.75
		s0.336,0.75,0.75,0.75s0.75-0.336,0.75-0.75S12.414,11.25,12,11.25z"/>
</g>
</svg>
