<?xml version="1.0" encoding="utf-8"?>
<!-- Generator: Adobe Illustrator 22.1.0, SVG Export Plug-In . SVG Version: 6.00 Build 0)  -->
<svg version="1.1" id="Regular" xmlns="http://www.w3.org/2000/svg" xmlns:xlink="http://www.w3.org/1999/xlink" x="0px" y="0px"
	 viewBox="0 0 24 24" style="enable-background:new 0 0 24 24;" xml:space="preserve">
<title>beer-glass</title>
<g>
	<path d="M6.001,24c-0.414,0-0.75-0.336-0.75-0.75s0.336-0.75,0.75-0.75h2.103L4.532,2.633C4.431,2.034,4.567,1.436,4.916,0.946
		c0.348-0.49,0.866-0.815,1.459-0.915C6.497,0.011,6.624,0,6.751,0h10.5c1.241,0,2.25,1.009,2.251,2.249
		c0,0.126-0.01,0.253-0.032,0.378L15.897,22.5H18c0.414,0,0.75,0.336,0.75,0.75S18.414,24,18,24H6.001z M14.373,22.5L17.339,6H6.662
		l2.966,16.5H14.373z M17.609,4.5l0.383-2.133c0.006-0.035,0.01-0.075,0.009-0.116c0-0.415-0.337-0.752-0.75-0.752H6.751
		c-0.042,0-0.084,0.003-0.125,0.01C6.427,1.544,6.254,1.652,6.138,1.815S5.977,2.177,6.01,2.375L6.392,4.5H17.609z"/>
	<path d="M12.001,13.5c-1.241,0-2.25-1.009-2.25-2.25c0-1.241,1.009-2.25,2.25-2.25s2.25,1.009,2.25,2.25
		C14.25,12.491,13.241,13.5,12.001,13.5z M12.001,10.5c-0.414,0-0.75,0.336-0.75,0.75S11.587,12,12.001,12
		c0.413,0,0.75-0.336,0.75-0.75S12.414,10.5,12.001,10.5z"/>
</g>
</svg>
