<?xml version="1.0" encoding="utf-8"?>
<!-- Generator: Adobe Illustrator 22.1.0, SVG Export Plug-In . SVG Version: 6.00 Build 0)  -->
<svg version="1.1" id="Regular" xmlns="http://www.w3.org/2000/svg" xmlns:xlink="http://www.w3.org/1999/xlink" x="0px" y="0px"
	 viewBox="0 0 24 24" style="enable-background:new 0 0 24 24;" xml:space="preserve">
<title>beer-half-glass</title>
<g>
	<path d="M11.572,24.011c-1.678,0-3.331-0.448-4.783-1.294c-0.541-0.354-0.802-0.966-0.683-1.569l0.569-2.845
		c0.43-2.149,0.353-4.403-0.221-6.522c-0.057-0.124-0.094-0.254-0.109-0.388c-0.091-0.3-0.191-0.599-0.3-0.889L3.129,2.736
		c-0.044-0.081-0.076-0.17-0.099-0.27C2.988,2.326,2.988,2.18,3.03,2.039C3.453,0.148,9.999,0,12.002,0
		c2.02,0,8.622,0.15,8.978,2.074C20.991,2.122,20.998,2.17,21,2.219c0.001,0.01,0.001,0.021,0.001,0.031
		c0,0.014-0.001,0.031-0.003,0.047c-0.002,0.034-0.007,0.073-0.016,0.112c-0.02,0.123-0.059,0.237-0.117,0.339l-2.912,7.755
		c-0.104,0.278-0.203,0.571-0.294,0.87c-0.014,0.148-0.055,0.291-0.121,0.428c-0.569,2.112-0.644,4.359-0.216,6.5l0.569,2.844
		c0.12,0.604-0.135,1.212-0.649,1.549c-1.479,0.864-3.138,1.315-4.815,1.315l0,0c-0.142,0-0.284-0.003-0.426-0.01
		C11.858,24.007,11.715,24.011,11.572,24.011z M12.035,22.501c0.134,0.007,0.264,0.01,0.395,0.01c1.398,0,2.776-0.37,3.99-1.07
		l-0.567-2.844c-0.37-1.848-0.405-3.721-0.106-5.578c-0.988,0.309-2.308,0.482-3.744,0.482c-1.438,0-2.76-0.173-3.748-0.483
		c0.299,1.856,0.264,3.73-0.106,5.579L7.578,21.44c1.195,0.697,2.583,1.071,3.997,1.07c0.13,0,0.26-0.003,0.39-0.009
		c0.006,0,0.03-0.001,0.036-0.001C12.006,22.5,12.03,22.501,12.035,22.501z M7.932,11.25C8.324,11.503,9.636,12,12.002,12
		c2.249,0,3.653-0.468,4.072-0.748c-0.388-0.253-1.701-0.752-4.072-0.752C9.637,10.5,8.325,10.997,7.932,11.25z M7.395,9.83
		C8.827,9.065,11.237,9,12.002,9c0.763,0,3.171,0.065,4.604,0.828l2.244-5.976C16.315,4.492,12.194,4.5,12.002,4.5
		c-0.192,0-4.318-0.008-6.852-0.649L7.395,9.83z M4.95,2.25C5.956,2.574,8.343,3,12.002,3s6.046-0.426,7.052-0.751
		C18.05,1.927,15.662,1.5,12.002,1.5C8.344,1.5,5.958,1.926,4.95,2.25z"/>
	<circle cx="11.252" cy="18.75" r="1.125"/>
</g>
</svg>
