<?xml version="1.0" encoding="utf-8"?>
<!-- Generator: Adobe Illustrator 22.1.0, SVG Export Plug-In . SVG Version: 6.00 Build 0)  -->
<svg version="1.1" id="Regular" xmlns="http://www.w3.org/2000/svg" xmlns:xlink="http://www.w3.org/1999/xlink" x="0px" y="0px"
	 viewBox="0 0 24 24" style="enable-background:new 0 0 24 24;" xml:space="preserve">
<title>beer-opener</title>
<g>
	<path d="M3.672,24.001c-0.206,0-0.415-0.018-0.621-0.052c-0.969-0.164-1.817-0.696-2.386-1.497
		c-1.027-1.545-0.804-3.581,0.523-4.851l5.982-5.982c0.923-0.924,1.522-2.146,1.686-3.442c0.224-1.763,1.04-3.425,2.297-4.681
		l2.848-2.847c0.419-0.418,0.974-0.648,1.565-0.648c0.593,0,1.148,0.231,1.565,0.649l6.208,6.209c0.863,0.87,0.86,2.271,0,3.13
		l-2.852,2.851c-1.226,1.226-2.846,2.035-4.563,2.279c-1.396,0.199-2.714,0.859-3.711,1.857l-5.948,5.948
		c-0.145,0.145-0.303,0.279-0.47,0.397C5.169,23.766,4.435,24.001,3.672,24.001z M15.565,1.501c-0.19,0-0.369,0.074-0.503,0.208
		l-2.849,2.848c-1.023,1.022-1.687,2.375-1.869,3.809C10.138,9.99,9.387,11.522,8.23,12.68l-5.994,5.994
		c-0.811,0.776-0.949,2.005-0.336,2.929C2.298,22.161,2.96,22.5,3.665,22.5c0.455,0,0.891-0.139,1.262-0.402
		c0.099-0.07,0.192-0.149,0.277-0.234l5.948-5.948c1.225-1.227,2.844-2.037,4.561-2.282c1.397-0.198,2.716-0.856,3.714-1.854
		l2.852-2.852c0.278-0.278,0.278-0.729,0.001-1.007c-0.006-0.006-0.017-0.017-0.022-0.024L16.07,1.71
		C15.935,1.575,15.756,1.501,15.565,1.501V1.126V1.501z"/>
	<path d="M4.182,20.557c-0.2,0-0.389-0.078-0.53-0.22c-0.292-0.292-0.292-0.768,0-1.061l0.518-0.518
		c0.141-0.142,0.33-0.22,0.53-0.22s0.389,0.078,0.53,0.22c0.292,0.292,0.292,0.768,0,1.061l-0.518,0.518
		C4.571,20.479,4.383,20.557,4.182,20.557z"/>
	<path d="M16.081,11.984c-0.721,0-1.399-0.28-1.908-0.787l-1.38-1.38c-1.051-1.053-1.051-2.766,0.001-3.818l1.556-1.556
		c0.326-0.324,0.759-0.503,1.219-0.503c0.46,0,0.892,0.178,1.216,0.501C16.788,4.443,19.545,7.2,19.545,7.2
		c0.326,0.326,0.505,0.759,0.505,1.22c0,0.461-0.179,0.895-0.505,1.22l-1.556,1.556C17.48,11.704,16.802,11.984,16.081,11.984z
		 M15.569,5.439c-0.061,0-0.117,0.023-0.159,0.065l-1.555,1.554c-0.468,0.468-0.468,1.229-0.001,1.698l1.379,1.379
		c0.226,0.225,0.527,0.349,0.848,0.349c0.321,0,0.622-0.124,0.848-0.35l1.555-1.555c0.088-0.088,0.088-0.232,0-0.32l-2.757-2.757
		C15.686,5.462,15.629,5.439,15.569,5.439z"/>
</g>
</svg>
