<?xml version="1.0" encoding="utf-8"?>
<!-- Generator: Adobe Illustrator 22.1.0, SVG Export Plug-In . SVG Version: 6.00 Build 0)  -->
<svg version="1.1" id="Regular" xmlns="http://www.w3.org/2000/svg" xmlns:xlink="http://www.w3.org/1999/xlink" x="0px" y="0px"
	 viewBox="0 0 24 24" style="enable-background:new 0 0 24 24;" xml:space="preserve">
<title>biking-mountain</title>
<g>
	<path d="M4.632,23.613c-2.275,0-4.125-1.851-4.125-4.125s1.85-4.125,4.125-4.125s4.125,1.851,4.125,4.125
		S6.907,23.613,4.632,23.613z M4.632,16.863c-1.447,0-2.625,1.177-2.625,2.625s1.178,2.625,2.625,2.625s2.625-1.177,2.625-2.625
		S6.08,16.863,4.632,16.863z"/>
	<path d="M0.751,15.127c-0.241,0-0.469-0.117-0.61-0.312c-0.241-0.336-0.164-0.806,0.172-1.047c1.002-0.719,2.179-1.185,3.403-1.345
		c0.033-0.004,0.066-0.006,0.098-0.006c0.375,0,0.694,0.281,0.743,0.652c0.026,0.198-0.027,0.396-0.149,0.554
		S4.11,13.884,3.911,13.91c-0.979,0.128-1.921,0.501-2.723,1.077C1.059,15.078,0.908,15.127,0.751,15.127z"/>
	<path d="M21.501,10.42c-0.075,0-0.15-0.011-0.223-0.034c-0.584-0.183-1.188-0.275-1.795-0.275c-0.541,0-1.081,0.074-1.605,0.219
		c-0.065,0.018-0.132,0.027-0.2,0.027c-0.144,0-0.283-0.041-0.404-0.118c-0.179-0.114-0.302-0.3-0.336-0.51l-0.25-1.52
		C16.62,7.8,16.897,7.414,17.305,7.347c0.041-0.007,0.081-0.01,0.121-0.01c0.369,0,0.681,0.264,0.741,0.628l0.122,0.742
		c0.395-0.064,0.795-0.096,1.194-0.096c0.76,0,1.514,0.116,2.242,0.344c0.395,0.124,0.615,0.545,0.492,0.94
		C22.117,10.209,21.83,10.42,21.501,10.42z"/>
	<path d="M10.996,19.401c-0.316,0-0.6-0.2-0.706-0.498c-0.139-0.39,0.065-0.82,0.454-0.958c0.248-0.088,0.433-0.304,0.484-0.562
		l0.779-3.963c0.057-0.294-0.066-0.594-0.314-0.763l-3.141-2.145c-0.165-0.113-0.277-0.284-0.314-0.481
		C8.2,9.834,8.242,9.634,8.355,9.469l0.426-0.623c0.14-0.205,0.372-0.327,0.619-0.327c0.034,0,0.068,0.002,0.101,0.007l3.776,0.513
		c0.013,0.001,0.038,0.003,0.062,0.003c0.357,0,0.671-0.269,0.731-0.626c0.033-0.198-0.012-0.396-0.128-0.56
		c-0.116-0.163-0.289-0.272-0.486-0.305L8.781,6.914C8.746,6.909,8.713,6.907,8.679,6.907c-0.245,0-0.481,0.125-0.617,0.325
		L7.115,8.618C6.773,9.12,6.648,9.719,6.759,10.309c0.111,0.591,0.446,1.102,0.943,1.441l2.322,1.588
		c0.247,0.169,0.37,0.469,0.313,0.763l-0.242,1.242c-0.068,0.352-0.378,0.607-0.736,0.607c-0.047,0-0.094-0.004-0.142-0.014
		c-0.198-0.038-0.367-0.151-0.479-0.317c-0.112-0.166-0.153-0.366-0.114-0.562l0.148-0.759l-1.914-1.309
		c-0.827-0.564-1.385-1.417-1.571-2.401C5.1,9.606,5.307,8.611,5.868,7.785l0.954-1.397c0.416-0.614,1.11-0.981,1.856-0.981
		c0.103,0,0.207,0.007,0.308,0.022l4.697,0.64c0.612,0.103,1.135,0.428,1.483,0.918c0.348,0.49,0.485,1.086,0.385,1.678
		c-0.184,1.087-1.118,1.875-2.22,1.875c0,0,0,0,0,0c-0.076,0-0.153-0.004-0.231-0.012l-2.327-0.316l1.765,1.205
		c0.744,0.507,1.113,1.406,0.94,2.29l-0.779,3.964c-0.152,0.775-0.708,1.421-1.452,1.686C11.167,19.386,11.082,19.401,10.996,19.401
		z"/>
	<path d="M14.251,23.614c-0.27,0-0.52-0.146-0.653-0.38c-0.133-0.236-0.129-0.525,0.01-0.756l1.377-2.293
		c0.375-0.626,0.938-1.132,1.597-1.45c-0.817-0.773-1.289-1.851-1.289-2.993c0-2.274,1.851-4.125,4.125-4.125
		s4.125,1.851,4.125,4.125c0,0.975-0.336,1.891-0.944,2.622h0.652c0.414,0,0.75,0.336,0.75,0.75s-0.336,0.75-0.75,0.75h-3.775
		c-0.019,0.002-0.038,0.003-0.058,0.003s-0.039-0.001-0.058-0.002l-1.159,0c-0.786,0-1.526,0.419-1.93,1.093l-0.695,1.157h7.675
		c0.414,0,0.75,0.336,0.75,0.75s-0.336,0.75-0.75,0.75H14.251z M19.418,13.117c-1.448,0-2.625,1.177-2.625,2.625
		c0,1.419,1.155,2.595,2.574,2.622h0.109c1.412-0.027,2.567-1.203,2.567-2.622C22.043,14.295,20.865,13.117,19.418,13.117z"/>
	<path d="M10.366,6.25c-1.654,0-3-1.346-3-3s1.346-3,3-3s3,1.346,3,3S12.02,6.25,10.366,6.25z M10.366,1.75
		c-0.827,0-1.5,0.673-1.5,1.5s0.673,1.5,1.5,1.5s1.5-0.673,1.5-1.5S11.193,1.75,10.366,1.75z"/>
</g>
</svg>
