<?xml version="1.0" encoding="utf-8"?>
<!-- Generator: Adobe Illustrator 22.1.0, SVG Export Plug-In . SVG Version: 6.00 Build 0)  -->
<svg version="1.1" id="Regular" xmlns="http://www.w3.org/2000/svg" xmlns:xlink="http://www.w3.org/1999/xlink" x="0px" y="0px"
	 viewBox="0 0 24 24" style="enable-background:new 0 0 24 24;" xml:space="preserve">
<title>biking-learner</title>
<g>
	<path d="M19.501,24c-2.481,0-4.5-2.019-4.5-4.5c0-1.604,0.838-3.057,2.209-3.867l-0.427-1.11l-7.954,3.76
		c0.114,0.4,0.172,0.807,0.172,1.217c0,2.481-2.019,4.5-4.5,4.5s-4.5-2.019-4.5-4.5s2.019-4.5,4.5-4.5
		c1.464,0,2.847,0.731,3.685,1.928l1.344-0.635L6.701,10.5H5.251c-0.414,0-0.75-0.336-0.75-0.75S4.837,9,5.251,9h4.5
		c0.414,0,0.75,0.336,0.75,0.75s-0.336,0.75-0.75,0.75h-1.38l2.515,5.152l5.357-2.532l-0.801-2.081
		c-0.296-0.773,0.091-1.642,0.862-1.939C16.478,9.034,16.659,9,16.843,9h3.408c0.414,0,0.75,0.336,0.75,0.75s-0.336,0.75-0.75,0.75
		h-3.408l1.767,4.592C18.907,15.031,19.205,15,19.501,15c2.481,0,4.5,2.019,4.5,4.5S21.982,24,19.501,24z M17.759,17.062
		c-0.785,0.559-1.258,1.461-1.258,2.439c0,1.654,1.346,3,3,3s3-1.346,3-3s-1.346-3-3-3c-0.112,0-0.227,0.007-0.342,0.021l1.042,2.71
		c0.148,0.386-0.045,0.821-0.431,0.969c-0.087,0.033-0.177,0.05-0.269,0.05c-0.308,0-0.59-0.193-0.7-0.481L17.759,17.062z
		 M4.501,16.5c-1.654,0-3,1.346-3,3s1.346,3,3,3s3-1.346,3-3c0-0.188-0.018-0.376-0.055-0.562l-2.625,1.241
		c-0.101,0.048-0.209,0.072-0.32,0.072c-0.289,0-0.555-0.169-0.678-0.43c-0.177-0.374-0.016-0.822,0.357-0.998l2.622-1.24
		C6.235,16.898,5.401,16.5,4.501,16.5z"/>
	<path d="M5.455,13.361c-0.053,0-0.107-0.006-0.16-0.017c-3.636-0.805-5.938-4.416-5.134-8.05C0.84,2.227,3.611,0.001,6.75,0.001
		c0.488,0,0.98,0.054,1.46,0.161c1.76,0.39,3.263,1.442,4.233,2.962c0.969,1.52,1.288,3.327,0.899,5.087
		c-0.05,0.224-0.111,0.447-0.182,0.662c-0.102,0.307-0.388,0.514-0.712,0.514c-0.08,0-0.159-0.013-0.235-0.038
		c-0.191-0.063-0.345-0.196-0.435-0.375c-0.09-0.179-0.105-0.382-0.042-0.573c0.055-0.167,0.103-0.34,0.141-0.514
		c0.303-1.369,0.055-2.774-0.699-3.957C10.425,2.748,9.256,1.93,7.886,1.626C7.513,1.544,7.131,1.502,6.752,1.502
		c-2.442,0-4.598,1.731-5.126,4.116C1,8.444,2.79,11.253,5.617,11.878c0.196,0.043,0.363,0.16,0.47,0.329s0.143,0.37,0.1,0.565
		C6.112,13.113,5.804,13.361,5.455,13.361z"/>
	<path d="M6.751,7.5c-0.414,0-0.75-0.336-0.75-0.75v-3C6.001,3.337,6.337,3,6.751,3s0.75,0.336,0.75,0.75V6h2.25
		c0.414,0,0.75,0.336,0.75,0.75S10.164,7.5,9.751,7.5H6.751z"/>
</g>
</svg>
