<?xml version="1.0" encoding="utf-8"?>
<!-- Generator: Adobe Illustrator 22.1.0, SVG Export Plug-In . SVG Version: 6.00 Build 0)  -->
<svg version="1.1" id="Regular" xmlns="http://www.w3.org/2000/svg" xmlns:xlink="http://www.w3.org/1999/xlink" x="0px" y="0px"
	 viewBox="0 0 24 24" style="enable-background:new 0 0 24 24;" xml:space="preserve">
<title>bird</title>
<g>
	<path d="M8.456,8.595c-0.044,0-0.088-0.004-0.131-0.012C7.809,8.523,7.399,8.11,7.342,7.594C7.339,7.575,7.337,7.556,7.336,7.537
		C7.334,7.518,7.331,7.495,7.331,7.47c0-0.001,0-0.004,0-0.005c0-0.029,0.003-0.054,0.007-0.078
		c0.001-0.017,0.003-0.032,0.005-0.048C7.412,6.775,7.889,6.35,8.456,6.35c0.566,0,1.041,0.421,1.112,0.983
		C9.577,7.379,9.581,7.425,9.581,7.47c0,0.001,0,0.004,0,0.005c0,0.045-0.004,0.091-0.013,0.137
		C9.504,8.119,9.095,8.524,8.587,8.584C8.544,8.591,8.5,8.595,8.456,8.595z"/>
	<path d="M15.571,8.595c-0.045,0-0.09-0.004-0.135-0.012c-0.5-0.062-0.895-0.446-0.971-0.943c-0.013-0.057-0.02-0.111-0.02-0.165
		c0-0.551,0.407-1.023,0.951-1.108c0.06-0.015,0.117-0.022,0.174-0.022c0.572,0,1.047,0.426,1.114,0.995
		c0.007,0.042,0.011,0.086,0.011,0.13c0,0.045-0.004,0.088-0.011,0.13c-0.06,0.51-0.467,0.919-0.976,0.982
		c-0.045,0.008-0.09,0.012-0.135,0.012C15.574,8.595,15.572,8.595,15.571,8.595z"/>
	<path d="M15.014,23.858c-0.356,0-0.665-0.254-0.735-0.603l-0.588-2.937c-0.558,0.092-1.121,0.139-1.677,0.139
		c-0.556,0-1.119-0.047-1.678-0.139L9.75,23.255c-0.07,0.349-0.379,0.603-0.735,0.603c-0.051,0-0.101-0.005-0.15-0.015
		c-0.194-0.039-0.363-0.152-0.475-0.319c-0.111-0.167-0.151-0.367-0.111-0.563l0.598-2.992c-1.366-0.437-2.636-1.165-3.701-2.122
		l-3.08,1.155c-0.174,0.064-0.354,0.096-0.537,0.096c-0.191,0-0.379-0.035-0.557-0.104c-0.385-0.149-0.688-0.439-0.854-0.816
		c-0.166-0.377-0.175-0.796-0.026-1.18l1.875-4.686c-0.147-0.7-0.221-1.415-0.219-2.13C1.793,4.568,6.373,0,11.988,0h0.051
		c0.786,0,1.573,0.091,2.337,0.271c2.655,0.624,4.908,2.245,6.344,4.564c1.391,2.247,1.855,4.898,1.311,7.478l1.875,4.675
		c0.142,0.358,0.146,0.752,0.013,1.11c-0.143,0.385-0.429,0.692-0.803,0.863c-0.204,0.093-0.419,0.14-0.64,0.14l0,0
		c-0.184,0-0.365-0.033-0.539-0.098l-3.084-1.155c-1.065,0.957-2.335,1.685-3.702,2.122l0.599,2.992c0.04,0.196,0,0.396-0.111,0.563
		c-0.111,0.167-0.281,0.281-0.477,0.32C15.112,23.853,15.062,23.858,15.014,23.858z M5.35,16.231c0.199,0,0.387,0.077,0.528,0.217
		c1.636,1.618,3.815,2.51,6.136,2.51s4.5-0.891,6.137-2.51c0.142-0.14,0.329-0.217,0.527-0.217c0.09,0,0.179,0.016,0.263,0.048
		l3.521,1.319l0.186,0.339l-0.156-0.341c0.01-0.005,0.017-0.012,0.021-0.023c0.004-0.01,0.003-0.02,0-0.029l-1.961-4.888
		c-0.058-0.145-0.069-0.301-0.034-0.452c0.532-2.264,0.151-4.601-1.074-6.579c-1.225-1.978-3.147-3.361-5.412-3.893
		C13.381,1.578,12.708,1.5,12.031,1.5h-0.025c-4.8,0-8.716,3.897-8.729,8.687c-0.002,0.679,0.076,1.357,0.231,2.018
		c0.035,0.151,0.024,0.307-0.034,0.45l-1.958,4.894c-0.002,0.004-0.001,0.015,0.003,0.025c0.005,0.011,0.012,0.018,0.023,0.022
		l0.16,0.352l-0.132-0.351l3.516-1.318C5.171,16.247,5.26,16.231,5.35,16.231z"/>
	<path d="M12.014,17.103c-0.2,0-0.389-0.078-0.53-0.22l-3.953-3.953c-0.271-0.271-0.295-0.7-0.055-0.999
		c0.267-0.334,0.573-0.64,0.908-0.908c1.042-0.833,2.293-1.274,3.618-1.274c0.217,0,0.438,0.012,0.655,0.037
		c1.543,0.172,2.926,0.934,3.896,2.146c0.239,0.299,0.215,0.729-0.055,0.999l-3.953,3.953
		C12.403,17.025,12.215,17.103,12.014,17.103z M12.014,15.293l2.912-2.912c-0.67-0.614-1.522-1.003-2.435-1.104
		c-0.162-0.018-0.325-0.027-0.486-0.027c-0.982,0-1.91,0.327-2.683,0.945c-0.075,0.06-0.147,0.122-0.218,0.187L12.014,15.293z"/>
</g>
</svg>
