<?xml version="1.0" encoding="utf-8"?>
<!-- Generator: Adobe Illustrator 22.1.0, SVG Export Plug-In . SVG Version: 6.00 Build 0)  -->
<svg version="1.1" id="Regular" xmlns="http://www.w3.org/2000/svg" xmlns:xlink="http://www.w3.org/1999/xlink" x="0px" y="0px"
	 viewBox="0 0 24 24" style="enable-background:new 0 0 24 24;" xml:space="preserve">
<title>blazer</title>
<g>
	<path d="M15.856,24c-1.261,0-2.427-0.624-3.124-1.67l-0.733-1.099l-0.731,1.099C10.571,23.376,9.404,24,8.148,24H6
		c-0.827,0-1.5-0.673-1.5-1.5V21H1.537c-0.027,0-0.055-0.001-0.082-0.002c-0.392-0.019-0.76-0.192-1.029-0.489
		c-0.27-0.297-0.407-0.68-0.388-1.081L0.751,4.464c0.005-0.104,0.031-0.204,0.077-0.297C0.83,4.164,0.832,4.16,0.833,4.156
		c0.021-0.042,0.047-0.082,0.077-0.12C0.918,4.027,0.933,4.01,0.942,4.001c0.016-0.019,0.043-0.047,0.073-0.072
		c0.008-0.007,0.033-0.026,0.042-0.032C1.08,3.88,1.102,3.866,1.124,3.852C1.136,3.845,1.15,3.836,1.161,3.831l7.503-3.752
		C8.675,0.074,8.687,0.068,8.7,0.064c0.042-0.018,0.083-0.032,0.124-0.042C8.83,0.02,8.836,0.018,8.842,0.017
		C8.897,0.005,8.949,0,9,0h6c0.051,0,0.102,0.005,0.153,0.016c0.004,0.001,0.009,0.002,0.013,0.003
		c0.044,0.01,0.089,0.025,0.134,0.045c0.012,0.005,0.025,0.01,0.035,0.015c0,0,7.51,3.755,7.515,3.758
		c0.191,0.101,0.328,0.276,0.378,0.484c0,0,0.004,0.02,0.006,0.03c0.007,0.031,0.013,0.072,0.015,0.115l0.713,14.963
		c0.02,0.4-0.118,0.783-0.388,1.08c-0.27,0.296-0.638,0.47-1.039,0.49C22.52,20.999,22.492,21,22.463,21H19.5v1.5
		c0,0.827-0.673,1.5-1.5,1.5H15.856z M13.98,21.498c0.418,0.627,1.118,1.002,1.872,1.002H18V9.75c0-0.157,0.048-0.308,0.14-0.436
		l3.24-4.536l-2.868-1.434c-1.196,4.79-3.275,7.711-6.51,9.149v5.348c-0.001,0.446,0.129,0.878,0.375,1.25l0.231,0.346
		c0.007,0.007,0.022,0.03,0.037,0.056L13.98,21.498z M5.86,9.314C5.952,9.442,6,9.593,6,9.75V22.5h2.144
		c0.758,0,1.458-0.375,1.876-1.002l1.078-1.621c-0.392-0.61-0.598-1.312-0.597-2.037V12c0-0.017,0.003-0.057,0.005-0.073
		c0.001-0.021,0.004-0.044,0.008-0.066c0.009-0.05,0.024-0.1,0.045-0.149c-2.434-1.608-4.057-4.285-5.072-8.367L2.62,4.778
		L5.86,9.314z M22.463,19.5L21.854,6.695L19.5,9.99v9.51H22.463z M1.536,19.5l2.964,0V9.99L2.146,6.695L1.536,19.5z M15.661,1.919
		c-0.368,2.639-1.806,6.184-2.777,8.361c2.036-1.462,3.374-3.874,4.255-7.622L15.661,1.919z M6.861,2.658
		c0.876,3.714,2.238,6.156,4.256,7.616C10.165,8.136,8.712,4.559,8.34,1.919L6.861,2.658z M9.8,1.5
		c0.189,1.645,0.957,4.103,2.199,7.04c0.847-2.006,1.963-4.953,2.203-7.04H9.8z"/>
	<circle cx="14.25" cy="15.75" r="1.125"/>
</g>
</svg>
