<?xml version="1.0" encoding="utf-8"?>
<!-- Generator: Adobe Illustrator 22.1.0, SVG Export Plug-In . SVG Version: 6.00 Build 0)  -->
<svg version="1.1" id="Regular" xmlns="http://www.w3.org/2000/svg" xmlns:xlink="http://www.w3.org/1999/xlink" x="0px" y="0px"
	 viewBox="0 0 24 24" style="enable-background:new 0 0 24 24;" xml:space="preserve">
<title>blood-drop-type-o</title>
<g>
	<path d="M7.5,24C3.365,24,0,20.635,0,16.5C0,11.491,4.366,4.197,6.243,1.293c0.274-0.429,0.745-0.686,1.258-0.686
		c0.285,0,0.562,0.081,0.803,0.235c0.181,0.116,0.338,0.273,0.455,0.455c0.223,0.349,0.12,0.813-0.228,1.036
		C8.41,2.409,8.271,2.45,8.127,2.45c-0.257,0-0.494-0.129-0.632-0.346C6.096,4.284,1.5,11.761,1.5,16.5c0,3.308,2.692,6,6,6
		s6-2.692,6-6c0-0.414,0.336-0.75,0.75-0.75S15,16.086,15,16.5C15,20.635,11.635,24,7.5,24z"/>
	<path d="M7.5,21C5.019,21,3,18.981,3,16.5c0-0.414,0.336-0.75,0.75-0.75S4.5,16.086,4.5,16.5c0,1.654,1.346,3,3,3
		c0.414,0,0.75,0.336,0.75,0.75S7.914,21,7.5,21z"/>
	<path d="M17.25,10.5C16.009,10.5,15,9.491,15,8.25v-3C15,4.009,16.009,3,17.25,3s2.25,1.009,2.25,2.25v3
		C19.5,9.491,18.491,10.5,17.25,10.5z M17.25,4.5c-0.414,0-0.75,0.336-0.75,0.75v3C16.5,8.664,16.836,9,17.25,9S18,8.664,18,8.25v-3
		C18,4.836,17.664,4.5,17.25,4.5z"/>
	<path d="M17.25,13.5c-3.722,0-6.75-3.028-6.75-6.75S13.528,0,17.25,0S24,3.028,24,6.75S20.972,13.5,17.25,13.5z M17.25,1.5
		C14.355,1.5,12,3.855,12,6.75S14.355,12,17.25,12s5.25-2.355,5.25-5.25S20.145,1.5,17.25,1.5z"/>
</g>
</svg>
