<?xml version="1.0" encoding="utf-8"?>
<!-- Generator: Adobe Illustrator 22.1.0, SVG Export Plug-In . SVG Version: 6.00 Build 0)  -->
<svg version="1.1" id="Regular" xmlns="http://www.w3.org/2000/svg" xmlns:xlink="http://www.w3.org/1999/xlink" x="0px" y="0px"
	 viewBox="0 0 24 24" style="enable-background:new 0 0 24 24;" xml:space="preserve">
<title>board-game-dice-1</title>
<g>
	<path d="M8.223,23.999c-0.596-0.004-1.172-0.128-1.713-0.369l-5.173-2.299C0.524,20.971,0,20.164,0,19.276v-7.8
		c-0.001-0.456,0.138-0.9,0.402-1.282c0.005-0.007,0.016-0.022,0.022-0.029C0.651,9.841,0.97,9.578,1.337,9.415L6.51,7.118
		c0.315-0.14,0.647-0.241,0.99-0.302V4.726c0.001-0.441,0.131-0.869,0.377-1.238c0.031-0.055,0.068-0.104,0.111-0.148
		c0.229-0.291,0.522-0.52,0.849-0.666l5.174-2.3c0.55-0.245,1.136-0.369,1.74-0.369c0.604,0,1.189,0.124,1.74,0.37l5.173,2.3
		c0.327,0.145,0.621,0.375,0.849,0.666c0.042,0.044,0.08,0.094,0.111,0.149C23.87,3.859,24,4.288,24,4.73v7.8
		c0,0.889-0.525,1.696-1.337,2.057l-5.173,2.3c-0.317,0.14-0.649,0.24-0.99,0.299v2.09c0,0.888-0.525,1.696-1.337,2.056l-5.173,2.3
		c-0.541,0.241-1.117,0.365-1.713,0.368C8.268,24,8.258,24,8.25,24C8.242,24,8.232,24,8.223,23.999z M9,22.396
		c0.131-0.036,0.258-0.081,0.38-0.136l5.174-2.301C14.825,19.84,15,19.571,15,19.275v-7.666l-6,2.4V22.396z M1.5,19.276
		c0,0.296,0.175,0.565,0.446,0.685l5.174,2.299c0.123,0.055,0.25,0.1,0.381,0.136v-8.388l-6-2.4V19.276z M16.027,10.103
		c0.033,0.036,0.062,0.076,0.09,0.122c0.246,0.359,0.383,0.798,0.383,1.249v4.175c0.131-0.036,0.259-0.081,0.383-0.136l5.171-2.299
		c0.271-0.12,0.446-0.389,0.446-0.686V4.858l-6.472,2.589c-0.088,0.036-0.182,0.054-0.278,0.054s-0.19-0.018-0.279-0.054L9,4.858
		v1.958c0.343,0.06,0.674,0.161,0.99,0.302l5.173,2.3C15.498,9.567,15.796,9.803,16.027,10.103z M8.25,12.693l5.571-2.228
		L9.38,8.489C9.032,8.334,8.66,8.253,8.276,8.25C8.267,8.25,8.258,8.251,8.25,8.251c-0.008,0-0.017,0-0.026-0.001
		C7.84,8.253,7.468,8.334,7.12,8.489l-4.446,1.974L8.25,12.693z M15.75,5.943l5.565-2.226L16.88,1.744
		c-0.358-0.159-0.738-0.24-1.13-0.24c-0.393,0-0.773,0.081-1.13,0.24l-4.437,1.972L15.75,5.943z"/>
	<path d="M8.25,11.637c-0.044,0-0.088-0.004-0.131-0.011c-0.54-0.063-0.954-0.5-0.989-1.044c-0.003-0.012-0.005-0.04-0.005-0.069
		c0-0.011,0.001-0.028,0.002-0.042c0.008-0.28,0.123-0.55,0.325-0.753c0.212-0.213,0.494-0.331,0.794-0.331c0,0,0.002,0,0.003,0
		c0.579,0,1.058,0.435,1.117,1.011c0.006,0.045,0.009,0.076,0.01,0.109c0,0.001,0,0.005,0,0.005c0,0.571-0.426,1.047-0.994,1.114
		C8.338,11.633,8.294,11.637,8.25,11.637z"/>
	<path d="M12.978,16.07c-0.044,0-0.088-0.004-0.13-0.011c-0.51-0.06-0.909-0.449-0.98-0.957c-0.011-0.053-0.017-0.104-0.017-0.154
		c-0.001-0.301,0.115-0.583,0.327-0.796c0.211-0.213,0.494-0.331,0.794-0.332c0,0,0.005,0,0.006,0c-0.001,0,0.016-0.001,0.033-0.001
		c0.279,0,0.549,0.116,0.762,0.328c0.213,0.212,0.331,0.494,0.331,0.794c0,0.001,0,0.003,0,0.004c0,0.572-0.427,1.047-0.995,1.114
		C13.066,16.066,13.022,16.07,12.978,16.07z"/>
	<path d="M5.625,20.842c-0.044,0-0.088-0.004-0.13-0.011c-0.513-0.06-0.923-0.47-0.983-0.982C4.504,19.805,4.5,19.761,4.5,19.717
		s0.004-0.088,0.011-0.131c0.06-0.513,0.47-0.922,0.983-0.983c0.042-0.007,0.086-0.011,0.13-0.011s0.088,0.004,0.13,0.011
		c0.513,0.061,0.923,0.47,0.983,0.983c0.008,0.043,0.011,0.087,0.011,0.131s-0.004,0.088-0.011,0.131
		c-0.06,0.513-0.47,0.922-0.983,0.982C5.713,20.839,5.669,20.842,5.625,20.842z"/>
	<path d="M3,15.217c-0.044,0-0.088-0.004-0.13-0.011c-0.513-0.06-0.923-0.47-0.983-0.982c-0.008-0.043-0.011-0.087-0.011-0.131
		s0.004-0.088,0.011-0.131c0.06-0.513,0.47-0.922,0.983-0.983c0.042-0.007,0.086-0.011,0.13-0.011s0.088,0.004,0.13,0.011
		c0.513,0.061,0.923,0.47,0.983,0.983c0.008,0.043,0.011,0.087,0.011,0.131s-0.004,0.088-0.011,0.131
		c-0.06,0.513-0.47,0.922-0.983,0.982C3.088,15.214,3.044,15.217,3,15.217z"/>
	<path d="M4.13,17.843c-0.025,0-0.05-0.002-0.075-0.004c-0.033,0-0.066-0.003-0.099-0.008c-0.564-0.087-0.97-0.58-0.951-1.15
		c0-0.029,0.001-0.058,0.004-0.087c0-0.002,0.002-0.033,0.004-0.046c0.004-0.028,0.011-0.055,0.019-0.082
		c0-0.001,0.005-0.02,0.007-0.026h0c0.128-0.496,0.575-0.843,1.087-0.843c0,0,0.051,0,0.055,0c0.038,0,0.076,0.003,0.114,0.009
		c0.294,0.044,0.556,0.202,0.735,0.444c0.144,0.195,0.219,0.427,0.217,0.674c0.004,0.057,0.002,0.11-0.005,0.162
		C5.16,17.431,4.682,17.843,4.13,17.843z"/>
	<path d="M11.364,19.93c-0.62,0-1.125-0.505-1.125-1.125c0,0,0-0.002,0-0.003c-0.001-0.299,0.115-0.582,0.327-0.795
		s0.494-0.331,0.794-0.331c0,0,0.001,0,0.001,0c0.022,0,0.045,0.002,0.067,0.006c0.277,0.016,0.533,0.13,0.73,0.325
		c0.179,0.178,0.289,0.407,0.32,0.662c0.008,0.043,0.011,0.087,0.011,0.132c-0.001,0.554-0.411,1.026-0.957,1.109
		C11.474,19.923,11.419,19.93,11.364,19.93z"/>
	<path d="M15.75,4.729c-0.62,0-1.125-0.505-1.125-1.125c0,0,0-0.003,0-0.003c0-0.62,0.505-1.125,1.125-1.125
		c0.051,0,0.103,0.006,0.157,0.018c0.504,0.071,0.893,0.467,0.955,0.973c0.008,0.045,0.012,0.09,0.012,0.134c0,0,0,0.003,0,0.003
		c0,0.044-0.004,0.089-0.012,0.134c-0.062,0.506-0.451,0.902-0.955,0.973C15.853,4.723,15.801,4.729,15.75,4.729z"/>
	<path d="M20.625,9.044c-0.044,0-0.088-0.004-0.131-0.011c-0.513-0.06-0.922-0.47-0.983-0.983C19.504,8.007,19.5,7.963,19.5,7.919
		s0.004-0.088,0.011-0.13c0.06-0.513,0.47-0.923,0.983-0.983c0.043-0.008,0.087-0.011,0.131-0.011s0.088,0.004,0.131,0.011
		c0.513,0.06,0.922,0.47,0.982,0.983c0.008,0.042,0.011,0.086,0.011,0.13s-0.004,0.088-0.011,0.13
		c-0.06,0.513-0.469,0.923-0.982,0.983C20.713,9.04,20.669,9.044,20.625,9.044z"/>
	<path d="M20.625,12.794c-0.044,0-0.088-0.004-0.131-0.011c-0.513-0.06-0.923-0.47-0.983-0.983c-0.007-0.042-0.011-0.086-0.011-0.13
		s0.004-0.088,0.011-0.13c0.06-0.513,0.47-0.923,0.983-0.983c0.043-0.008,0.087-0.011,0.131-0.011s0.088,0.004,0.131,0.011
		c0.513,0.06,0.922,0.47,0.982,0.983c0.008,0.042,0.011,0.086,0.011,0.13s-0.004,0.088-0.011,0.131
		c-0.06,0.513-0.47,0.923-0.983,0.983C20.713,12.79,20.669,12.794,20.625,12.794z"/>
</g>
</svg>
