<?xml version="1.0" encoding="utf-8"?>
<!-- Generator: Adobe Illustrator 22.1.0, SVG Export Plug-In . SVG Version: 6.00 Build 0)  -->
<svg version="1.1" id="Regular" xmlns="http://www.w3.org/2000/svg" xmlns:xlink="http://www.w3.org/1999/xlink" x="0px" y="0px"
	 viewBox="0 0 24 24" style="enable-background:new 0 0 24 24;" xml:space="preserve">
<title>board-game-ludo</title>
<g>
	<path d="M6.75,9.75c-1.654,0-3-1.346-3-3s1.346-3,3-3s3,1.346,3,3S8.404,9.75,6.75,9.75z M6.75,5.25c-0.827,0-1.5,0.673-1.5,1.5
		s0.673,1.5,1.5,1.5s1.5-0.673,1.5-1.5S7.577,5.25,6.75,5.25z"/>
	<path d="M17.25,20.25c-1.654,0-3-1.346-3-3s1.346-3,3-3s3,1.346,3,3S18.904,20.25,17.25,20.25z M17.25,15.75
		c-0.827,0-1.5,0.673-1.5,1.5s0.673,1.5,1.5,1.5s1.5-0.673,1.5-1.5S18.077,15.75,17.25,15.75z"/>
	<path d="M3.5,23.25c-1.516,0-2.75-1.234-2.75-2.75v-17c0-1.516,1.234-2.75,2.75-2.75h17c1.516,0,2.75,1.234,2.75,2.75v17
		c0,1.516-1.234,2.75-2.75,2.75H3.5z M20.5,21.75c0.689,0,1.25-0.561,1.25-1.25v-7.75h-9v9H20.5z M2.25,20.5
		c0,0.689,0.561,1.25,1.25,1.25h7.75v-9h-9V20.5z M21.75,11.25V3.5c0-0.689-0.561-1.25-1.25-1.25h-7.75v9H21.75z M11.25,11.25v-9
		H3.5c-0.689,0-1.25,0.561-1.25,1.25v7.75H11.25z"/>
</g>
</svg>
