<?xml version="1.0" encoding="utf-8"?>
<!-- Generator: Adobe Illustrator 22.1.0, SVG Export Plug-In . SVG Version: 6.00 Build 0)  -->
<svg version="1.1" id="Layer_1" xmlns="http://www.w3.org/2000/svg" xmlns:xlink="http://www.w3.org/1999/xlink" x="0px" y="0px"
	 viewBox="0 0 24 24" style="enable-background:new 0 0 24 24;" xml:space="preserve">
<title>body-scanner</title>
<g>
	<path d="M2.25,24c-0.414,0-0.75-0.336-0.75-0.75v-3.879C0.615,19.058,0,18.21,0,17.25s0.615-1.808,1.5-2.121V0.75
		C1.5,0.336,1.836,0,2.25,0S3,0.336,3,0.75v14.379c0.885,0.313,1.5,1.161,1.5,2.121S3.885,19.058,3,19.371v3.879
		C3,23.664,2.664,24,2.25,24z M2.25,16.5c-0.414,0-0.75,0.336-0.75,0.75S1.836,18,2.25,18S3,17.664,3,17.25S2.664,16.5,2.25,16.5z"
		/>
	<path d="M21.75,24C21.336,24,21,23.664,21,23.25v-3.879c-0.885-0.314-1.5-1.162-1.5-2.121s0.615-1.808,1.5-2.121V0.75
		C21,0.336,21.336,0,21.75,0s0.75,0.336,0.75,0.75v14.379c0.885,0.314,1.5,1.162,1.5,2.121s-0.615,1.808-1.5,2.121v3.879
		C22.5,23.664,22.164,24,21.75,24z M21.75,16.5c-0.414,0-0.75,0.336-0.75,0.75S21.336,18,21.75,18s0.75-0.336,0.75-0.75
		S22.164,16.5,21.75,16.5z"/>
	<path d="M12,10.5c-2.068,0-3.75-1.682-3.75-3.75S9.932,3,12,3c2.068,0,3.75,1.682,3.75,3.75S14.068,10.5,12,10.5z M12,4.5
		c-1.241,0-2.25,1.009-2.25,2.25S10.759,9,12,9c1.241,0,2.25-1.009,2.25-2.25S13.241,4.5,12,4.5z"/>
	<path d="M15.75,15.75C15.336,15.75,15,15.414,15,15c0-1.654-1.346-3-3-3c-1.654,0-3,1.346-3,3c0,0.414-0.336,0.75-0.75,0.75
		S7.5,15.414,7.5,15c0-2.481,2.019-4.5,4.5-4.5c2.481,0,4.5,2.019,4.5,4.5C16.5,15.414,16.164,15.75,15.75,15.75z"/>
	<path d="M6.75,24C6.336,24,6,23.664,6,23.25s0.336-0.75,0.75-0.75h2.789l-0.517-2.068c-0.049-0.194-0.019-0.396,0.084-0.568
		c0.103-0.172,0.267-0.293,0.461-0.342C9.628,19.508,9.689,19.5,9.75,19.5c0.345,0,0.644,0.233,0.728,0.568l0.608,2.432h1.829
		l0.608-2.432c0.083-0.334,0.383-0.568,0.728-0.568c0.06,0,0.121,0.007,0.18,0.022c0.197,0.049,0.36,0.171,0.463,0.342
		c0.103,0.172,0.133,0.374,0.084,0.568L14.46,22.5h2.79c0.414,0,0.75,0.336,0.75,0.75S17.664,24,17.25,24H6.75z"/>
	<path d="M6.75,18C6.336,18,6,17.664,6,17.25s0.336-0.75,0.75-0.75h1.5C8.664,16.5,9,16.836,9,17.25S8.664,18,8.25,18H6.75z"/>
	<path d="M11.25,18c-0.414,0-0.75-0.336-0.75-0.75s0.336-0.75,0.75-0.75h1.5c0.414,0,0.75,0.336,0.75,0.75S13.164,18,12.75,18H11.25
		z"/>
	<path d="M15.75,18C15.336,18,15,17.664,15,17.25s0.336-0.75,0.75-0.75h1.5c0.414,0,0.75,0.336,0.75,0.75S17.664,18,17.25,18H15.75z
		"/>
</g>
</svg>
