<?xml version="1.0" encoding="utf-8"?>
<!-- Generator: Adobe Illustrator 22.1.0, SVG Export Plug-In . SVG Version: 6.00 Build 0)  -->
<svg version="1.1" id="Regular" xmlns="http://www.w3.org/2000/svg" xmlns:xlink="http://www.w3.org/1999/xlink" x="0px" y="0px"
	 viewBox="0 0 24 24" style="enable-background:new 0 0 24 24;" xml:space="preserve">
<title>body-care-toothbrush-paste</title>
<g>
	<path d="M4.999,24c-1.241,0-2.25-1.009-2.25-2.25v-1.443L0.026,2.592c-0.091-0.594,0.054-1.188,0.41-1.673
		c0.355-0.485,0.878-0.802,1.472-0.893C2.02,0.009,2.135,0,2.249,0h10c1.241,0.001,2.25,1.01,2.25,2.251
		c0,0.113-0.009,0.228-0.026,0.34l-0.415,2.7c-0.002,0.044-0.009,0.088-0.021,0.133l-2.288,14.882v1.443
		c0,1.241-1.009,2.25-2.25,2.25H4.999z M4.249,21.75c0,0.414,0.336,0.75,0.75,0.75h4.5c0.414,0,0.75-0.336,0.75-0.75V21h-6V21.75z
		 M10.356,19.5L12.431,6H2.068l2.075,13.5H10.356z M12.662,4.5l0.328-2.136c0.006-0.037,0.009-0.076,0.009-0.113
		c0-0.414-0.336-0.75-0.75-0.751H2.249c-0.038,0-0.076,0.003-0.113,0.009c-0.198,0.03-0.372,0.136-0.491,0.298
		c-0.119,0.162-0.167,0.36-0.137,0.557L1.837,4.5H12.662z"/>
	<path d="M21.499,24c-1.241,0-2.25-1.009-2.25-2.25V21h-3.748c-0.414,0-0.75-0.336-0.75-0.75s0.336-0.75,0.75-0.75h3.748V18h-3.748
		c-0.414,0-0.75-0.336-0.75-0.75s0.336-0.75,0.75-0.75h3.748V15h-3.748c-0.414,0-0.75-0.336-0.75-0.75s0.336-0.75,0.75-0.75h3.748
		V2.25c0-1.241,1.009-2.25,2.25-2.25s2.25,1.009,2.25,2.25v19.5C23.749,22.991,22.74,24,21.499,24z M20.749,21.75
		c0,0.414,0.336,0.75,0.75,0.75s0.75-0.336,0.75-0.75V2.25c0-0.414-0.336-0.75-0.75-0.75s-0.75,0.336-0.75,0.75v11.959
		c0.001,0.014,0.002,0.03,0.002,0.041c0,0.015-0.001,0.029-0.002,0.043v2.916c0.001,0.014,0.002,0.03,0.002,0.041
		c0,0.015-0.001,0.029-0.002,0.043v2.916c0.001,0.014,0.002,0.03,0.002,0.041c0,0.015-0.001,0.029-0.002,0.043V21.75z"/>
</g>
</svg>
