<?xml version="1.0" encoding="utf-8"?>
<!-- Generator: Adobe Illustrator 22.1.0, SVG Export Plug-In . SVG Version: 6.00 Build 0)  -->
<svg version="1.1" id="Regular" xmlns="http://www.w3.org/2000/svg" xmlns:xlink="http://www.w3.org/1999/xlink" x="0px" y="0px"
	 viewBox="0 0 24 24" style="enable-background:new 0 0 24 24;" xml:space="preserve">
<title>body-care-sun-lotion</title>
<g>
	<path d="M15.75,2.999c-0.414,0-0.75-0.336-0.75-0.75v-1.5c0-0.414,0.336-0.75,0.75-0.75s0.75,0.336,0.75,0.75v1.5
		C16.5,2.663,16.164,2.999,15.75,2.999z"/>
	<path d="M19.993,4.757c-0.2,0-0.388-0.078-0.53-0.219C19.17,4.245,19.17,3.77,19.462,3.477l1.06-1.061
		c0.142-0.142,0.33-0.22,0.531-0.22c0.2,0,0.388,0.078,0.53,0.219c0.292,0.292,0.293,0.768,0.001,1.061l-1.06,1.061
		C20.382,4.679,20.194,4.757,19.993,4.757z"/>
	<path d="M21.75,8.999c-0.414,0-0.75-0.336-0.75-0.75s0.336-0.75,0.75-0.75h1.5c0.414,0,0.75,0.336,0.75,0.75s-0.336,0.75-0.75,0.75
		H21.75z"/>
	<path d="M21.053,14.303c-0.2,0-0.389-0.078-0.531-0.22l-1.06-1.061c-0.292-0.293-0.292-0.769,0-1.061
		c0.142-0.142,0.33-0.219,0.531-0.219s0.389,0.078,0.531,0.22l1.06,1.061c0.292,0.293,0.292,0.769,0,1.061
		C21.441,14.225,21.253,14.303,21.053,14.303z"/>
	<path d="M15.75,16.499c-0.414,0-0.75-0.336-0.75-0.75v-1.5c0-0.414,0.336-0.75,0.75-0.75s0.75,0.336,0.75,0.75v1.5
		C16.5,16.163,16.164,16.499,15.75,16.499z"/>
	<path d="M3.75,24.001c-2.068,0-3.75-1.682-3.75-3.75v-7.5c0-1.799,1.268-3.323,3-3.673V8.251c0-1.241,1.009-2.25,2.25-2.25H6v-1.5
		H3.493c-0.602,0-1.167,0.234-1.592,0.659l-0.62,0.621c-0.142,0.142-0.33,0.22-0.531,0.22c-0.2,0-0.388-0.078-0.53-0.219
		c-0.293-0.292-0.293-0.768-0.001-1.061L0.84,4.099c0.709-0.708,1.65-1.098,2.651-1.098H10.5c0.414,0,0.75,0.336,0.75,0.75
		s-0.336,0.75-0.75,0.75h-3v1.5h0.75c1.241,0,2.25,1.009,2.25,2.25v0.827c1.732,0.351,3,1.874,3,3.673v7.5
		c0,2.068-1.682,3.75-3.75,3.75H3.75z M3.75,10.501c-1.241,0-2.25,1.009-2.25,2.25v7.5c0,1.241,1.009,2.25,2.25,2.25h6
		c1.241,0,2.25-1.009,2.25-2.25v-7.5c0-1.241-1.009-2.25-2.25-2.25H3.75z M9,9.001v-0.75c0-0.414-0.336-0.75-0.75-0.75h-3
		c-0.414,0-0.75,0.336-0.75,0.75v0.75H9z"/>
	<path d="M15.75,12.75C15.336,12.75,15,12.414,15,12s0.336-0.75,0.75-0.75c0.939,0,1.836-0.449,2.4-1.2
		c0.48-0.64,0.682-1.43,0.568-2.224S18.19,6.33,17.55,5.85c-0.524-0.393-1.143-0.601-1.792-0.601c-0.144,0-0.289,0.01-0.432,0.031
		c-0.793,0.113-1.495,0.529-1.976,1.17c-0.141,0.188-0.365,0.3-0.6,0.3c-0.163,0-0.318-0.052-0.449-0.15
		c-0.331-0.249-0.399-0.72-0.151-1.05c0.721-0.962,1.774-1.585,2.964-1.755c0.213-0.031,0.43-0.046,0.644-0.046
		c0.975,0,1.906,0.312,2.692,0.901c1.985,1.489,2.389,4.315,0.9,6.3C18.504,12.077,17.159,12.75,15.75,12.75z"/>
</g>
</svg>
