<?xml version="1.0" encoding="utf-8"?>
<!-- Generator: Adobe Illustrator 22.1.0, SVG Export Plug-In . SVG Version: 6.00 Build 0)  -->
<svg version="1.1" id="Regular" xmlns="http://www.w3.org/2000/svg" xmlns:xlink="http://www.w3.org/1999/xlink" x="0px" y="0px"
	 viewBox="0 0 24 24" style="enable-background:new 0 0 24 24;" xml:space="preserve">
<title>body-care-cream</title>
<g>
	<path d="M2.75,22.85C1.234,22.85,0,21.616,0,20.1v-8c0-0.689,0.561-1.25,1.25-1.25H3V9.6c0-0.897,0.678-1.638,1.549-1.739
		C4.839,5.615,6.437,3.35,9,3.35h4.5l0.077,0.001c1.206,0,2.299-0.757,2.72-1.883c0.143-0.376,0.422-0.672,0.786-0.836
		C17.279,0.544,17.485,0.5,17.696,0.5c0.181,0,0.36,0.033,0.531,0.098c0.258,0.098,0.484,0.265,0.653,0.484
		c1.696,2.272,1.741,4.309,1.48,5.618c-0.089,0.449-0.226,0.885-0.408,1.298C20.574,8.271,21,8.892,21,9.6v1.25h1.75
		c0.689,0,1.25,0.561,1.25,1.25v8c0,1.516-1.234,2.75-2.75,2.75H2.75z M1.5,20.1c0,0.689,0.561,1.25,1.25,1.25h18.5
		c0.689,0,1.25-0.561,1.25-1.25v-7.75h-21V20.1z M19.5,10.85V9.6c0-0.138-0.112-0.25-0.25-0.25h-0.463
		c-0.013,0.001-0.027,0.002-0.037,0.002c-0.012,0-0.025-0.001-0.039-0.002l-13.961,0C4.612,9.35,4.5,9.462,4.5,9.6v1.25H19.5z
		 M18.353,7.85c0.493-0.828,1.421-3.064-0.668-5.861c-0.623,1.715-2.271,2.863-4.086,2.863c-0.038,0-0.075,0-0.113-0.001L9,4.85
		c-1.618,0-2.671,1.48-2.935,3H18.353z"/>
	<path d="M5.25,19.852c-0.414,0-0.75-0.336-0.75-0.75v-4.5c0-0.414,0.336-0.75,0.75-0.75h13.5c0.414,0,0.75,0.336,0.75,0.75v4.5
		c0,0.414-0.336,0.75-0.75,0.75H5.25z M18,18.352v-3H6v3H18z"/>
</g>
</svg>
