<?xml version="1.0" encoding="utf-8"?>
<!-- Generator: Adobe Illustrator 22.1.0, SVG Export Plug-In . SVG Version: 6.00 Build 0)  -->
<svg version="1.1" id="Regular" xmlns="http://www.w3.org/2000/svg" xmlns:xlink="http://www.w3.org/1999/xlink" x="0px" y="0px"
	 viewBox="0 0 24 24" style="enable-background:new 0 0 24 24;" xml:space="preserve">
<title>body-care-perfume</title>
<g>
	<path d="M12,24c-5.169,0-9.375-4.206-9.375-9.375c0-3.992,2.607-7.604,6.375-8.882V4.5H8.25C7.836,4.5,7.5,4.164,7.5,3.75
		S7.836,3,8.25,3H9V1.5c0-0.414,0.336-0.75,0.75-0.75h4.5C14.663,0.75,15,1.086,15,1.5v0.75h1.623C17.043,0.948,18.539,0,20.25,0
		C22.318,0,24,1.346,24,3s-1.682,3-3.75,3c-1.711,0-3.206-0.948-3.627-2.25H15v1.993c3.768,1.277,6.375,4.889,6.375,8.882
		C21.375,19.794,17.169,24,12,24z M12,6.75c-4.342,0-7.875,3.533-7.875,7.875S7.657,22.5,12,22.5s7.875-3.533,7.875-7.875
		S16.342,6.75,12,6.75z M12,5.25c0.5,0,1.003,0.041,1.5,0.121V2.25h-3v3.121C10.996,5.291,11.499,5.25,12,5.25z M20.25,1.5
		C19.03,1.5,18,2.187,18,3s1.03,1.5,2.25,1.5S22.5,3.813,22.5,3S21.469,1.5,20.25,1.5z"/>
	<path d="M4.5,3C4.451,3,4.402,2.995,4.352,2.985l-3.749-0.75C0.406,2.196,0.237,2.083,0.126,1.916
		C0.015,1.749-0.025,1.549,0.014,1.353C0.084,1.004,0.393,0.75,0.749,0.75c0.049,0,0.099,0.005,0.149,0.015l3.749,0.75
		c0.196,0.039,0.366,0.153,0.477,0.319c0.111,0.167,0.151,0.367,0.111,0.563C5.165,2.746,4.856,3,4.5,3z"/>
	<path d="M0.749,6.75c-0.356,0-0.665-0.254-0.735-0.603c-0.039-0.196,0-0.396,0.111-0.563c0.111-0.167,0.281-0.28,0.477-0.319
		l3.75-0.75C4.401,4.505,4.451,4.5,4.502,4.5c0.355,0,0.664,0.254,0.734,0.603c0.039,0.196,0,0.396-0.111,0.563
		c-0.111,0.167-0.281,0.28-0.477,0.319l-3.75,0.75C0.848,6.745,0.798,6.75,0.749,6.75z"/>
</g>
</svg>
