<?xml version="1.0" encoding="utf-8"?>
<!-- Generator: Adobe Illustrator 22.1.0, SVG Export Plug-In . SVG Version: 6.00 Build 0)  -->
<svg version="1.1" id="Layer_1" xmlns="http://www.w3.org/2000/svg" xmlns:xlink="http://www.w3.org/1999/xlink" x="0px" y="0px"
	 viewBox="0 0 24 24" style="enable-background:new 0 0 24 24;" xml:space="preserve">
<title>bomb-fire-bottle</title>
<g>
	<path d="M21.001,11.17c-0.311,0-0.585-0.187-0.699-0.477c-0.15-0.386,0.041-0.821,0.426-0.972c1.046-0.408,1.739-1.397,1.765-2.519
		c0.15-1.754-0.588-3.385-1.923-4.391c0.198,1.044,0.024,2.14-0.511,3.074C19.936,6.1,19.715,6.24,19.467,6.26
		c-0.054,0.004-0.107,0.006-0.16,0.006c-0.62,0-1.207-0.284-1.599-0.75c-0.117,0.141-0.212,0.301-0.281,0.474
		c-0.114,0.288-0.388,0.474-0.698,0.474c-0.094,0-0.187-0.018-0.275-0.053c-0.385-0.152-0.573-0.589-0.421-0.973
		c0.305-0.77,0.886-1.389,1.636-1.741c0.099-0.047,0.209-0.071,0.319-0.071c0.124,0,0.247,0.031,0.356,0.09
		c0.208,0.112,0.353,0.319,0.386,0.553c0.024,0.164,0.116,0.306,0.247,0.396c0.356-0.993,0.165-2.113-0.522-2.933
		c-0.21-0.251-0.234-0.606-0.059-0.883c0.139-0.219,0.376-0.349,0.634-0.349c0.064,0,0.127,0.008,0.189,0.024
		c3.034,0.793,5.041,3.637,4.772,6.761c-0.039,1.691-1.106,3.206-2.718,3.834C21.187,11.153,21.095,11.17,21.001,11.17z"/>
	<path d="M4.932,23.748c-0.66,0-1.278-0.322-1.655-0.861l-2.91-4.154c-0.639-0.911-0.417-2.173,0.495-2.811l2.056-1.438
		c0.006-0.005,0.012-0.01,0.018-0.013l4.159-2.913c0.019-0.014,0.039-0.025,0.059-0.036l0.697-0.488
		c0.66-0.463,1.439-0.707,2.253-0.707c0.413,0,0.82,0.064,1.21,0.191c0.24,0.078,0.491,0.118,0.746,0.118
		c0.495,0,0.99-0.155,1.391-0.436l2.889-2.024c0.127-0.089,0.276-0.136,0.43-0.136c0.044,0,0.088,0.004,0.132,0.012
		c0.193,0.034,0.37,0.146,0.483,0.308l1.455,2.078c0.115,0.164,0.159,0.363,0.124,0.56c-0.035,0.197-0.144,0.369-0.308,0.484
		l-2.888,2.023c-0.621,0.435-1.006,1.146-1.031,1.904c-0.041,1.227-0.664,2.379-1.669,3.084L6.093,23.38
		C5.745,23.622,5.347,23.748,4.932,23.748z M1.722,17.152c-0.234,0.164-0.291,0.488-0.127,0.722l2.91,4.154
		c0.097,0.138,0.256,0.221,0.426,0.221c0.105,0,0.206-0.032,0.292-0.091l1.466-1.027l-3.504-5.002L1.722,17.152z M7.918,20.27
		l2.927-2.05l-3.502-5l-2.928,2.048L7.918,20.27z M12.073,17.36l0.133-0.093c0.62-0.435,1.005-1.147,1.031-1.905
		c0.04-1.227,0.664-2.379,1.669-3.083l2.274-1.593l-0.594-0.849L14.31,11.43c-0.661,0.462-1.44,0.706-2.253,0.706
		c-0.413,0-0.82-0.064-1.21-0.191c-0.24-0.078-0.491-0.118-0.746-0.118c-0.496,0-0.99,0.155-1.391,0.436L8.572,12.36L12.073,17.36z"
		/>
</g>
</svg>
