<?xml version="1.0" encoding="utf-8"?>
<!-- Generator: Adobe Illustrator 22.1.0, SVG Export Plug-In . SVG Version: 6.00 Build 0)  -->
<svg version="1.1" id="Layer_1" xmlns="http://www.w3.org/2000/svg" xmlns:xlink="http://www.w3.org/1999/xlink" x="0px" y="0px"
	 viewBox="0 0 24 24" style="enable-background:new 0 0 24 24;" xml:space="preserve">
<title>bomb-grenade</title>
<g>
	<path d="M8.685,23.498c-0.729,0-1.409-0.367-1.819-0.982c-1.448-2.162-2.18-4.681-2.116-7.284
		c-0.064-2.572,0.668-5.085,2.117-7.249c0.409-0.614,1.092-0.981,1.828-0.981l0.556,0V3.999H6.545C5.664,4.868,2.5,8.462,2.5,15.249
		c0,0.414-0.336,0.75-0.75,0.75S1,15.663,1,15.249C1,6.747,5.575,2.835,5.77,2.673c0.135-0.112,0.305-0.174,0.48-0.174h10.599
		c0.338-1.303,1.532-2.249,2.901-2.249c1.654,0,3,1.346,3,3s-1.346,3-3,3c-1.37,0-2.564-0.947-2.902-2.251H15.25v3.003l0.556,0
		c0.735,0,1.418,0.367,1.828,0.983c1.448,2.162,2.18,4.682,2.116,7.284c0.064,2.572-0.668,5.085-2.117,7.249
		c-0.408,0.615-1.094,0.983-1.835,0.983L8.685,23.498z M15.773,22l0.005,0.375V22c0.003,0,0.019,0,0.019,0
		c0.238,0,0.458-0.118,0.588-0.315c0.561-0.837,1.001-1.738,1.314-2.685H6.802c0.312,0.947,0.752,1.847,1.311,2.682
		c0.132,0.198,0.343,0.316,0.565,0.316l0.027,0L15.773,22z M18.08,17.5c0.131-0.732,0.188-1.482,0.17-2.231
		c0.019-0.774-0.039-1.531-0.17-2.269H6.42c-0.131,0.732-0.188,1.481-0.17,2.231c-0.019,0.774,0.039,1.531,0.171,2.269H18.08z
		 M17.698,11.5c-0.312-0.947-0.752-1.848-1.311-2.683c-0.13-0.195-0.35-0.316-0.576-0.316c-0.004,0-7.108,0-7.108,0
		c-0.242,0-0.456,0.115-0.589,0.314c-0.56,0.836-1,1.737-1.313,2.684H17.698z M13.75,7V4h-3v3H13.75z M19.75,1.75
		c-0.827,0-1.5,0.673-1.5,1.5s0.673,1.5,1.5,1.5s1.5-0.673,1.5-1.5S20.577,1.75,19.75,1.75z"/>
</g>
</svg>
