<?xml version="1.0" encoding="utf-8"?>
<!-- Generator: Adobe Illustrator 22.1.0, SVG Export Plug-In . SVG Version: 6.00 Build 0)  -->
<svg version="1.1" id="Layer_1" xmlns="http://www.w3.org/2000/svg" xmlns:xlink="http://www.w3.org/1999/xlink" x="0px" y="0px"
	 viewBox="0 0 24 24" style="enable-background:new 0 0 24 24;" xml:space="preserve">
<title>bomb-rocket</title>
<g>
	<path d="M5.818,24.003c-0.385,0-0.773-0.039-1.155-0.115c-1.529-0.305-2.847-1.188-3.712-2.485c-1.473-2.312-1.186-5.3,0.689-7.285
		c0.012-0.017,0.026-0.036,0.045-0.055c0.012-0.012,0.027-0.025,0.042-0.037l0.017-0.019c0.028-0.03,0.056-0.06,0.086-0.089
		l2.315-2.313c0.153-0.153,0.31-0.302,0.468-0.45c0.014-0.022,0.036-0.053,0.067-0.084c0.042-0.042,0.084-0.069,0.114-0.087
		c1.445-1.326,3.068-2.443,4.824-3.32l1.484-0.741l0.445-3.085c0.094-0.656,0.457-1.254,0.998-1.64l2.669-1.901
		c0.129-0.092,0.271-0.165,0.423-0.215c0.163-0.055,0.333-0.082,0.504-0.082c0.245,0,0.491,0.058,0.713,0.169
		c0.382,0.191,0.666,0.519,0.801,0.923l0.741,2.188l0.367-0.183c0.219-0.109,0.466-0.167,0.713-0.167
		c0.245,0,0.49,0.057,0.707,0.165c0.382,0.189,0.668,0.515,0.804,0.919c0.137,0.404,0.108,0.837-0.081,1.219l-0.191,0.382
		l2.197,0.728c0.406,0.135,0.733,0.42,0.924,0.801c0.19,0.382,0.221,0.814,0.086,1.219c-0.05,0.151-0.122,0.293-0.215,0.422
		l-1.9,2.665c-0.388,0.54-0.986,0.903-1.642,0.998l-3.094,0.441l-0.744,1.486c-0.876,1.753-1.992,3.373-3.316,4.816
		c-0.021,0.035-0.047,0.074-0.087,0.115c-0.032,0.032-0.063,0.055-0.088,0.07c-0.147,0.157-0.296,0.313-0.449,0.466l-2.457,2.454
		c-0.27,0.269-0.568,0.513-0.884,0.724C8.081,23.663,6.965,24.003,5.818,24.003z M2.278,15.711c-0.987,1.46-1.028,3.369-0.071,4.873
		c0.636,0.953,1.614,1.606,2.749,1.833c0.284,0.057,0.573,0.085,0.859,0.085c0.852,0,1.68-0.252,2.397-0.73
		c0.026-0.017,0.052-0.035,0.079-0.054L2.278,15.711z M9.399,20.705c0,0,1.93-1.927,1.931-1.929l-6.12-6.114
		c-0.002,0.001-1.931,1.929-1.931,1.929L9.399,20.705z M12.347,17.672c1.042-1.216,1.928-2.549,2.638-3.969l4.577-9.137
		c0.01-0.02,0.011-0.045,0.003-0.07C19.556,4.47,19.54,4.452,19.516,4.44c-0.012-0.006-0.027-0.009-0.042-0.009
		s-0.03,0.003-0.042,0.01l-9.143,4.567c-1.421,0.71-2.756,1.597-3.973,2.639L12.347,17.672z M17.888,11.257l2.063-0.294
		c0.253-0.037,0.485-0.177,0.635-0.386l1.899-2.663c0.006-0.008,0.01-0.016,0.013-0.026c0.008-0.025,0.007-0.05-0.005-0.073
		c-0.012-0.023-0.031-0.04-0.056-0.048l-2.402-0.796L17.888,11.257z M16.14,1.501c-0.01,0-0.02,0.002-0.03,0.005
		c-0.01,0.004-0.019,0.008-0.026,0.013L13.415,3.42c-0.208,0.148-0.347,0.379-0.384,0.632l-0.296,2.056l4.305-2.15l-0.808-2.387
		c-0.009-0.028-0.025-0.047-0.049-0.059C16.168,1.505,16.154,1.501,16.14,1.501z"/>
</g>
</svg>
