<?xml version="1.0" encoding="utf-8"?>
<!-- Generator: Adobe Illustrator 22.1.0, SVG Export Plug-In . SVG Version: 6.00 Build 0)  -->
<svg version="1.1" id="Layer_1" xmlns="http://www.w3.org/2000/svg" xmlns:xlink="http://www.w3.org/1999/xlink" x="0px" y="0px"
	 viewBox="0 0 24 24" style="enable-background:new 0 0 24 24;" xml:space="preserve">
<title>bomb-rocket-1</title>
<g>
	<path d="M12,24c-0.164,0-0.326-0.055-0.456-0.155l-3.181-2.432c-0.025-0.019-0.051-0.041-0.075-0.065
		c-0.992-0.992-1.538-2.31-1.538-3.712V8.002L3.185,6.528C2.615,6.3,2.247,5.751,2.25,5.132V1.5
		C2.249,1.309,2.285,1.119,2.358,0.939c0.23-0.572,0.777-0.942,1.394-0.942c0.191,0,0.378,0.036,0.556,0.108l3.481,1.454
		C8.069,1.675,8.25,1.947,8.25,2.25v1.502C8.893,3.267,9.677,3,10.5,3h0.75V0.75C11.25,0.337,11.586,0,12,0s0.75,0.336,0.75,0.75V3
		h0.75c0.823,0,1.607,0.267,2.25,0.752V2.25c0-0.303,0.181-0.575,0.461-0.692l3.471-1.45c0.185-0.074,0.374-0.111,0.566-0.111
		c0.617,0,1.165,0.369,1.394,0.941c0.073,0.182,0.109,0.372,0.108,0.566v3.631c0.003,0.617-0.367,1.165-0.941,1.396L17.25,8.002
		v9.634c0,1.402-0.546,2.721-1.538,3.712c-0.024,0.024-0.049,0.046-0.076,0.066l-3.181,2.431C12.326,23.945,12.164,24,12,24z
		 M12,22.306l2.685-2.052c0.061-0.063,0.121-0.128,0.178-0.196c-0.927-0.312-1.888-0.498-2.863-0.556
		c-0.975,0.058-1.936,0.245-2.863,0.557c0.057,0.068,0.117,0.133,0.178,0.196L12,22.306z M10.5,4.5c-1.241,0-2.25,1.009-2.25,2.25
		v10.886c0,0.373,0.053,0.738,0.159,1.088c1.146-0.412,2.338-0.655,3.549-0.723C11.965,18.001,11.993,18,12,18
		c0.004,0,0.03,0,0.034,0.001c1.218,0.068,2.41,0.311,3.557,0.723c0.106-0.351,0.159-0.715,0.159-1.088V6.75
		c0-1.241-1.009-2.25-2.25-2.25h-0.75v3.75C12.75,8.664,12.414,9,12,9s-0.75-0.336-0.75-0.75V4.5H10.5z M17.25,6.379l2.992-1.237
		l0.007-3.646l-3,1.253V6.379z M3.75,5.135l3,1.243V2.75L3.752,1.497L3.75,5.135z"/>
</g>
</svg>
