<?xml version="1.0" encoding="utf-8"?>
<!-- Generator: Adobe Illustrator 22.1.0, SVG Export Plug-In . SVG Version: 6.00 Build 0)  -->
<svg version="1.1" id="Regular" xmlns="http://www.w3.org/2000/svg" xmlns:xlink="http://www.w3.org/1999/xlink" x="0px" y="0px"
	 viewBox="0 0 24 24" style="enable-background:new 0 0 24 24;" xml:space="preserve">
<title>bowling-player</title>
<g>
	<path d="M20.997,24c-1.654,0-3-1.346-3-3c0-0.058,0.007-0.115,0.02-0.171c0.26-1.126,0.708-2.193,1.331-3.176
		c-0.36-0.577-0.601-1.325-0.601-1.903c0-1.241,1.009-2.25,2.25-2.25s2.25,1.009,2.25,2.25c0,0.578-0.241,1.326-0.601,1.903
		c0.623,0.982,1.071,2.05,1.332,3.177c0.013,0.054,0.02,0.111,0.02,0.169C23.997,22.655,22.652,24,20.997,24z M19.5,21.079
		c0.041,0.788,0.704,1.421,1.498,1.421s1.457-0.633,1.498-1.421c-0.207-0.853-0.539-1.665-0.989-2.419
		c-0.167,0.06-0.337,0.09-0.509,0.09s-0.343-0.03-0.509-0.09C20.038,19.414,19.706,20.226,19.5,21.079z M20.997,15
		c-0.414,0-0.75,0.336-0.75,0.75c0,0.416,0.253,1.036,0.552,1.354c0.006,0.005,0.016,0.016,0.026,0.027
		c0.107,0.109,0.171,0.119,0.173,0.119c-0.001,0,0.063-0.01,0.182-0.132c0.002-0.002,0.017-0.018,0.019-0.02
		c0.294-0.312,0.547-0.932,0.547-1.348C21.747,15.337,21.411,15,20.997,15z"/>
	<path d="M13.497,6.75c-1.861,0-3.375-1.514-3.375-3.375S11.637,0,13.497,0c1.861,0,3.375,1.514,3.375,3.375
		S15.359,6.75,13.497,6.75z M13.497,1.5c-1.034,0-1.875,0.841-1.875,1.875s0.841,1.875,1.875,1.875s1.875-0.841,1.875-1.875
		S14.531,1.5,13.497,1.5z"/>
	<path d="M5.251,24.001c-0.108,0-0.216-0.008-0.323-0.023c-0.595-0.085-1.121-0.397-1.481-0.878
		c-0.36-0.481-0.512-1.073-0.426-1.668c0.085-0.595,0.397-1.121,0.878-1.481l2.1-1.575V15c0-0.364,0.089-0.727,0.259-1.049
		l2.001-3.8L7.234,9.703C7.137,9.659,7.036,9.638,6.932,9.638c-0.174,0-0.342,0.061-0.473,0.171l-1.157,0.967
		c-0.016,0.014-0.051,0.044-0.088,0.073c-0.399,0.314-0.879,0.48-1.388,0.48c-0.696,0-1.342-0.313-1.771-0.858
		c-0.767-0.975-0.597-2.393,0.378-3.16l1.138-0.95C4.505,5.574,5.7,5.14,6.937,5.14c0.732,0,1.44,0.149,2.103,0.443l9.903,4.32
		c0.028,0.009,0.056,0.019,0.083,0.031c1.135,0.496,1.657,1.824,1.161,2.961c-0.24,0.551-0.681,0.975-1.24,1.195
		c-0.265,0.104-0.542,0.156-0.823,0.156l0,0c-0.31,0-0.612-0.063-0.899-0.189l-4.829-2.107l-0.872,1.656l2.472,1.279
		c1.093,0.563,1.84,1.628,1.999,2.848l0.488,3.718c0.078,0.596-0.08,1.186-0.447,1.663c-0.366,0.476-0.895,0.782-1.491,0.86
		c-0.101,0.014-0.186,0.02-0.268,0.02l-0.042-0.001c-1.11,0-2.067-0.839-2.217-1.95l-0.438-3.336l-1.081-0.56V19.5
		c0,0.704-0.336,1.377-0.9,1.8c0,0-3.003,2.252-3.004,2.253C6.201,23.846,5.737,24.001,5.251,24.001z M6.934,8.138
		c0.316,0,0.621,0.065,0.906,0.192L9.598,9.1c0.19,0.083,0.339,0.243,0.407,0.439c0.069,0.197,0.052,0.414-0.044,0.598L7.584,14.65
		C7.527,14.758,7.497,14.879,7.497,15v3.75c0,0.235-0.112,0.459-0.3,0.6l-2.4,1.8c-0.161,0.12-0.265,0.296-0.293,0.494
		c-0.029,0.198,0.022,0.396,0.142,0.556c0.12,0.16,0.296,0.264,0.494,0.293c0.035,0.005,0.071,0.007,0.107,0.007
		c0.162,0,0.316-0.051,0.446-0.147C5.695,22.353,8.698,20.1,8.698,20.1c0.188-0.141,0.3-0.365,0.3-0.6v-2.583
		c0-0.26,0.138-0.505,0.36-0.641c0.117-0.072,0.252-0.11,0.39-0.11c0.12,0,0.239,0.029,0.345,0.084l2.524,1.306
		c0.218,0.113,0.367,0.325,0.399,0.568l0.489,3.723c0.05,0.369,0.369,0.647,0.743,0.648c0.028-0.001,0.062-0.001,0.097-0.006
		c0.202-0.027,0.379-0.129,0.502-0.288c0.122-0.159,0.175-0.355,0.149-0.553l-0.488-3.719c-0.095-0.733-0.544-1.372-1.2-1.71
		l-3.144-1.626c-0.176-0.091-0.312-0.252-0.371-0.442c-0.059-0.189-0.041-0.399,0.052-0.574l1.549-2.941
		c0.13-0.247,0.384-0.401,0.663-0.401c0.104,0,0.205,0.021,0.3,0.063l5.467,2.385c0.096,0.042,0.197,0.063,0.3,0.063
		c0.094,0,0.186-0.018,0.275-0.052c0.186-0.073,0.333-0.215,0.413-0.398c0.157-0.36,0.011-0.777-0.332-0.961
		c-0.019-0.007-0.038-0.014-0.057-0.022L8.436,6.956c-0.474-0.21-0.978-0.316-1.5-0.316c-0.882,0-1.734,0.309-2.399,0.87
		L3.378,8.476C3.204,8.613,3.104,8.789,3.08,8.99C3.056,9.189,3.111,9.386,3.235,9.543C3.359,9.701,3.537,9.8,3.736,9.824
		c0.029,0.003,0.059,0.005,0.089,0.005c0.17,0,0.33-0.055,0.464-0.16C4.3,9.66,5.495,8.661,5.495,8.661
		C5.893,8.324,6.405,8.138,6.934,8.138z"/>
	<path d="M3.01,15.713c-0.342,0-0.681-0.059-1.007-0.175c-1.528-0.542-2.346-2.18-1.861-3.728c0.099-0.315,0.386-0.526,0.716-0.526
		c0.076,0,0.151,0.011,0.223,0.034c0.192,0.06,0.349,0.191,0.441,0.368s0.111,0.381,0.051,0.572
		c-0.243,0.775,0.167,1.595,0.932,1.867c0.164,0.058,0.334,0.088,0.505,0.088c0.223,0,0.44-0.05,0.645-0.147
		c0.363-0.173,0.636-0.476,0.771-0.855c0.106-0.299,0.39-0.5,0.706-0.5c0.086,0,0.172,0.015,0.253,0.044
		c0.187,0.066,0.338,0.203,0.425,0.384s0.097,0.385,0.03,0.573c-0.268,0.756-0.815,1.362-1.54,1.707
		C3.891,15.615,3.457,15.713,3.01,15.713z"/>
</g>
</svg>
