<?xml version="1.0" encoding="utf-8"?>
<!-- Generator: Adobe Illustrator 22.1.0, SVG Export Plug-In . SVG Version: 6.00 Build 0)  -->
<svg version="1.1" id="Regular" xmlns="http://www.w3.org/2000/svg" xmlns:xlink="http://www.w3.org/1999/xlink" x="0px" y="0px"
	 viewBox="0 0 24 24" style="enable-background:new 0 0 24 24;" xml:space="preserve">
<title>bowling-set</title>
<g>
	<path d="M4.438,23.999c-0.691,0-1.333-0.31-1.762-0.851c-1.673-2.086-2.622-4.709-2.671-7.385c0.06-2.884,1.124-5.643,3-7.799
		V2.999c0-1.654,1.346-3,3-3s3,1.346,3,3v4.964c1.876,2.156,2.94,4.91,3,7.77c-0.049,2.701-0.999,5.33-2.674,7.418
		c-0.427,0.538-1.069,0.848-1.759,0.848H4.438z M4.095,8.999c-1.62,1.885-2.539,4.281-2.591,6.766
		c0.044,2.322,0.876,4.617,2.344,6.448c0.145,0.182,0.359,0.286,0.589,0.286H7.57c0.231,0,0.445-0.103,0.588-0.283
		c1.47-1.833,2.303-4.134,2.346-6.48c-0.052-2.461-0.971-4.851-2.591-6.736H4.095z M7.504,7.499v-1.5h-3v1.5H7.504z M7.504,4.499
		v-1.5c0-0.827-0.673-1.5-1.5-1.5s-1.5,0.673-1.5,1.5v1.5H7.504z"/>
	<path d="M15.736,23.997c-1.255,0-2.466-0.28-3.599-0.832c-0.18-0.088-0.315-0.24-0.381-0.43s-0.053-0.393,0.035-0.573
		c0.124-0.256,0.389-0.422,0.674-0.422c0.113,0,0.226,0.026,0.328,0.076c0.928,0.452,1.918,0.681,2.943,0.681c0,0,0,0,0,0
		c2.571,0,4.958-1.49,6.08-3.794c0.789-1.621,0.9-3.452,0.312-5.157c-0.588-1.704-1.805-3.078-3.426-3.867
		c-0.935-0.455-1.929-0.686-2.955-0.686s-2.02,0.231-2.956,0.686c-0.101,0.049-0.215,0.076-0.328,0.076
		c-0.285,0-0.55-0.166-0.675-0.422c-0.181-0.372-0.026-0.822,0.346-1.003c1.142-0.556,2.357-0.838,3.612-0.838
		c1.255,0,2.47,0.282,3.612,0.838c1.981,0.965,3.469,2.643,4.187,4.726c0.719,2.083,0.583,4.322-0.382,6.303
		C21.794,22.177,18.878,23.997,15.736,23.997z"/>
	<path d="M16.129,16.499c-0.044,0-0.088-0.004-0.131-0.011c-0.513-0.06-0.923-0.47-0.983-0.983c-0.007-0.042-0.011-0.086-0.011-0.13
		s0.004-0.088,0.011-0.131c0.06-0.513,0.47-0.923,0.983-0.983c0.042-0.008,0.086-0.011,0.131-0.011s0.088,0.004,0.131,0.011
		c0.513,0.06,0.923,0.47,0.983,0.983c0.008,0.042,0.011,0.086,0.011,0.131s-0.004,0.088-0.011,0.131
		c-0.06,0.513-0.47,0.923-0.983,0.983C16.218,16.495,16.174,16.499,16.129,16.499z"/>
	<path d="M19.879,15.749c-0.044,0-0.088-0.004-0.131-0.011c-0.513-0.06-0.923-0.47-0.983-0.983c-0.007-0.042-0.011-0.086-0.011-0.13
		s0.004-0.088,0.011-0.131c0.06-0.513,0.47-0.923,0.983-0.983c0.042-0.008,0.086-0.011,0.131-0.011s0.088,0.004,0.131,0.011
		c0.513,0.06,0.923,0.47,0.983,0.983c0.008,0.042,0.011,0.086,0.011,0.131S21,14.712,20.993,14.755
		c-0.06,0.513-0.47,0.923-0.983,0.983C19.968,15.745,19.924,15.749,19.879,15.749z"/>
	<path d="M16.879,12.749c-0.044,0-0.088-0.004-0.131-0.011c-0.513-0.06-0.923-0.47-0.983-0.983c-0.008-0.042-0.011-0.086-0.011-0.13
		s0.004-0.088,0.011-0.13c0.06-0.513,0.47-0.923,0.982-0.983c0.043-0.008,0.087-0.011,0.131-0.011s0.088,0.004,0.131,0.011
		c0.513,0.06,0.922,0.47,0.983,0.983c0.007,0.042,0.011,0.086,0.011,0.13s-0.004,0.088-0.011,0.13
		c-0.061,0.513-0.47,0.923-0.983,0.983C16.968,12.745,16.924,12.749,16.879,12.749z"/>
</g>
</svg>
