<?xml version="1.0" encoding="utf-8"?>
<!-- Generator: Adobe Illustrator 22.1.0, SVG Export Plug-In . SVG Version: 6.00 Build 0)  -->
<svg version="1.1" id="Regular" xmlns="http://www.w3.org/2000/svg" xmlns:xlink="http://www.w3.org/1999/xlink" x="0px" y="0px"
	 viewBox="0 0 24 24" style="enable-background:new 0 0 24 24;" xml:space="preserve">
<title>boxing-boxer</title>
<g>
	<path d="M11.5,6.75c-1.861,0-3.375-1.514-3.375-3.375S9.639,0,11.5,0c1.861,0,3.375,1.514,3.375,3.375S13.361,6.75,11.5,6.75z
		 M11.5,1.5c-1.034,0-1.875,0.841-1.875,1.875S10.466,5.25,11.5,5.25s1.875-0.841,1.875-1.875S12.534,1.5,11.5,1.5z"/>
	<path d="M4.75,24c-0.257-0.001-0.507-0.043-0.746-0.126c-0.573-0.203-1.027-0.612-1.285-1.154C2.46,22.177,2.428,21.566,2.628,21
		l4.5-12.749c0.317-0.898,1.17-1.5,2.121-1.5h8.892c0.036-0.005,0.073-0.008,0.109-0.008c1.269,0,2.403,0.8,2.827,1.99
		c0.269,0.754,0.228,1.567-0.115,2.29c-0.343,0.723-0.948,1.269-1.701,1.538c-0.324,0.115-0.662,0.174-1.003,0.174c0,0,0,0,0,0
		c-1.07,0-2.063-0.578-2.594-1.492h-0.304c-0.036,0.005-0.073,0.008-0.109,0.008s-0.073-0.003-0.109-0.008h-4.298l-0.932,2.644
		l1.928,1c1.092,0.563,1.839,1.628,1.998,2.848l0.488,3.718c0.161,1.23-0.708,2.362-1.938,2.523c-0.096,0.013-0.193,0.02-0.286,0.02
		c-1.134,0-2.092-0.839-2.241-1.95l-0.438-3.336l-1.025-0.53L6.873,22.5C6.555,23.397,5.703,24,4.75,24L4.75,24z M4.517,22.464
		C4.581,22.486,4.666,22.5,4.752,22.5c0.316,0,0.6-0.201,0.706-0.5l1.811-5.133C7.341,16.663,7.498,16.5,7.7,16.42
		c0.088-0.035,0.181-0.053,0.276-0.053c0.119,0,0.239,0.029,0.345,0.084l2.138,1.106c0.218,0.113,0.367,0.325,0.399,0.568
		l0.489,3.722c0.05,0.369,0.369,0.647,0.743,0.648c0.026-0.001,0.063-0.001,0.097-0.006c0.414-0.054,0.704-0.432,0.651-0.842
		l-0.488-3.719c-0.095-0.733-0.544-1.372-1.2-1.71l-2.508-1.301c-0.33-0.172-0.486-0.565-0.362-0.916l1.326-3.76
		c0.106-0.299,0.39-0.5,0.707-0.5H14.5V8.25H9.25c-0.317,0-0.602,0.201-0.707,0.5l-4.5,12.75c-0.067,0.189-0.056,0.393,0.03,0.574
		c0.086,0.18,0.237,0.316,0.424,0.383C4.504,22.459,4.511,22.462,4.517,22.464z M16.139,9.742c0.316,0,0.6,0.2,0.707,0.498
		c0.212,0.594,0.779,0.994,1.411,0.994c0.17,0,0.339-0.029,0.5-0.087c0.377-0.134,0.678-0.407,0.849-0.768
		c0.171-0.361,0.192-0.767,0.058-1.144c-0.2-0.562-0.729-0.957-1.323-0.991c-0.03,0.004-0.06,0.006-0.091,0.006H16v1.492H16.139z"/>
</g>
</svg>
