<?xml version="1.0" encoding="utf-8"?>
<!-- Generator: Adobe Illustrator 22.1.0, SVG Export Plug-In . SVG Version: 6.00 Build 0)  -->
<svg version="1.1" id="Layer_1" xmlns="http://www.w3.org/2000/svg" xmlns:xlink="http://www.w3.org/1999/xlink" x="0px" y="0px"
	 viewBox="0 0 24 24" style="enable-background:new 0 0 24 24;" xml:space="preserve">
<title>brain-1</title>
<g>
	<path d="M16.504,24.011c-0.41,0-0.817-0.068-1.209-0.201c-0.631-0.214-1.182-0.582-1.613-1.075
		c-0.485,0.329-1.048,0.507-1.636,0.515c-0.016,0.002-0.032,0.003-0.048,0.003c-0.013,0-0.034-0.001-0.052-0.003
		c-0.148-0.002-0.279-0.013-0.401-0.031c-0.446-0.068-0.867-0.233-1.234-0.483c-0.707,0.803-1.736,1.273-2.822,1.273
		c-0.494,0-0.976-0.096-1.433-0.287c-1.684-0.7-2.614-2.542-2.218-4.293c-0.566-0.128-1.09-0.42-1.496-0.839
		c-0.877-0.905-1.082-2.274-0.548-3.388c-0.803-0.492-1.397-1.267-1.655-2.177c-0.465-1.642,0.225-3.356,1.654-4.224
		c-0.159-0.33-0.256-0.689-0.286-1.056C1.443,6.948,1.692,6.172,2.211,5.561c0.424-0.499,0.995-0.843,1.627-0.985
		C3.462,2.91,4.283,1.149,5.837,0.383c0.52-0.256,1.076-0.387,1.653-0.387c1.087,0,2.116,0.47,2.823,1.275
		c0.498-0.339,1.077-0.517,1.682-0.517c0.608,0,1.195,0.182,1.689,0.517c0.708-0.804,1.737-1.274,2.823-1.274
		c0.494,0,0.976,0.096,1.433,0.286c0.925,0.385,1.645,1.106,2.027,2.032c0.297,0.719,0.362,1.511,0.191,2.261
		c0.566,0.128,1.089,0.42,1.494,0.838c0.878,0.905,1.083,2.274,0.549,3.389c1.103,0.676,1.796,1.892,1.797,3.199
		c0,1.307-0.694,2.524-1.797,3.2c0.159,0.332,0.258,0.691,0.287,1.059c0.064,0.798-0.186,1.574-0.704,2.184
		c-0.424,0.499-0.994,0.842-1.627,0.983c0.376,1.666-0.445,3.427-1.999,4.193C17.636,23.881,17.079,24.011,16.504,24.011z
		 M13.81,20.836c0.022,0,0.044,0.001,0.066,0.003c0.259,0.023,0.492,0.182,0.607,0.416c0.265,0.539,0.725,0.942,1.294,1.136
		c0.236,0.08,0.48,0.121,0.726,0.121c0.345,0,0.679-0.078,0.993-0.233c1.061-0.523,1.537-1.789,1.083-2.882
		c-0.135-0.324-0.023-0.705,0.267-0.905c0.102-0.07,0.194-0.152,0.276-0.244c0.129-0.145,0.307-0.233,0.5-0.249
		c0.399-0.032,0.761-0.218,1.021-0.523c0.259-0.305,0.384-0.693,0.352-1.091c-0.029-0.363-0.189-0.701-0.451-0.955
		c-0.192-0.186-0.271-0.463-0.205-0.722c0.065-0.259,0.265-0.465,0.523-0.538c0.964-0.273,1.637-1.163,1.637-2.165
		c0-1.001-0.674-1.892-1.637-2.164C20.604,9.766,20.403,9.56,20.338,9.3c-0.066-0.259,0.013-0.536,0.205-0.722
		c0.286-0.278,0.448-0.652,0.454-1.053c0.006-0.401-0.144-0.78-0.422-1.067c-0.253-0.261-0.592-0.421-0.954-0.451
		c-0.193-0.016-0.37-0.104-0.499-0.249c-0.081-0.092-0.174-0.174-0.277-0.245c-0.289-0.199-0.401-0.58-0.266-0.905
		c0.23-0.555,0.231-1.166,0.002-1.722c-0.229-0.555-0.661-0.989-1.216-1.219c-0.274-0.114-0.563-0.172-0.859-0.172
		c-0.853,0-1.647,0.492-2.022,1.255c-0.115,0.233-0.348,0.393-0.607,0.416C13.854,3.169,13.832,3.17,13.81,3.17
		c-0.238,0-0.463-0.114-0.604-0.306c-0.281-0.382-0.734-0.61-1.21-0.61c-0.321,0-0.627,0.1-0.885,0.291
		c-0.122,0.09-0.23,0.198-0.32,0.32c-0.14,0.191-0.366,0.306-0.604,0.306c-0.022,0-0.044-0.001-0.066-0.003
		c-0.26-0.023-0.492-0.182-0.607-0.416C9.132,1.978,8.357,1.497,7.491,1.497c-0.345,0-0.679,0.078-0.991,0.232
		C5.439,2.252,4.964,3.517,5.418,4.61C5.553,4.935,5.44,5.316,5.151,5.516C5.049,5.585,4.956,5.668,4.874,5.76
		C4.745,5.904,4.568,5.993,4.375,6.008C3.976,6.041,3.613,6.227,3.354,6.532C3.095,6.837,2.97,7.225,3.003,7.624
		c0.029,0.362,0.189,0.701,0.45,0.954C3.645,8.765,3.724,9.041,3.658,9.3C3.593,9.56,3.392,9.766,3.135,9.839
		c-0.577,0.163-1.057,0.543-1.35,1.068c-0.293,0.525-0.365,1.133-0.202,1.71c0.211,0.746,0.806,1.341,1.552,1.552
		c0.257,0.073,0.458,0.279,0.523,0.538c0.065,0.26-0.013,0.536-0.205,0.722c-0.593,0.575-0.608,1.525-0.033,2.118
		c0.253,0.261,0.592,0.421,0.955,0.451c0.194,0.016,0.372,0.104,0.5,0.25c0.082,0.092,0.175,0.174,0.276,0.243
		c0.29,0.2,0.403,0.581,0.268,0.906c-0.476,1.146,0.068,2.465,1.214,2.941c0.274,0.114,0.563,0.171,0.858,0.171
		c0.854,0,1.648-0.492,2.023-1.254c0.115-0.233,0.348-0.393,0.607-0.416c0.021-0.002,0.044-0.003,0.066-0.003
		c0.237,0,0.463,0.114,0.604,0.305c0.124,0.168,0.28,0.307,0.458,0.409V8.874c-0.885-0.314-1.5-1.162-1.5-2.121
		c0-1.241,1.009-2.25,2.25-2.25s2.25,1.009,2.25,2.25c0,0.96-0.615,1.808-1.5,2.121v12.677c0.048-0.027,0.094-0.057,0.138-0.09
		c0.122-0.09,0.23-0.198,0.32-0.32C13.347,20.95,13.573,20.836,13.81,20.836z M11.998,6.003c-0.414,0-0.75,0.336-0.75,0.75
		s0.336,0.75,0.75,0.75c0.414,0,0.75-0.336,0.75-0.75S12.412,6.003,11.998,6.003z"/>
	<path d="M8.998,19.503c-0.414,0-0.75-0.336-0.75-0.75v-2.599l-1.916-1.277c-0.209-0.139-0.334-0.373-0.334-0.624v-1.629
		c-0.885-0.314-1.5-1.162-1.5-2.121c0-1.241,1.009-2.25,2.25-2.25s2.25,1.009,2.25,2.25c0,0.96-0.615,1.808-1.5,2.121v1.227
		l1.916,1.277c0.209,0.139,0.334,0.373,0.334,0.624v3C9.748,19.167,9.412,19.503,8.998,19.503z M6.748,9.753
		c-0.414,0-0.75,0.336-0.75,0.75s0.336,0.75,0.75,0.75s0.75-0.336,0.75-0.75S7.162,9.753,6.748,9.753z"/>
	<path d="M14.998,19.503c-0.414,0-0.75-0.336-0.75-0.75v-3c0-0.251,0.125-0.484,0.334-0.624l1.916-1.277v-1.227
		c-0.885-0.314-1.5-1.162-1.5-2.121c0-1.241,1.009-2.25,2.25-2.25s2.25,1.009,2.25,2.25c0,0.96-0.615,1.808-1.5,2.121v1.629
		c0,0.251-0.125,0.484-0.334,0.624l-1.916,1.277v2.599C15.748,19.167,15.412,19.503,14.998,19.503z M17.248,9.753
		c-0.414,0-0.75,0.336-0.75,0.75s0.336,0.75,0.75,0.75s0.75-0.336,0.75-0.75S17.662,9.753,17.248,9.753z"/>
</g>
</svg>
