<?xml version="1.0" encoding="utf-8"?>
<!-- Generator: Adobe Illustrator 22.1.0, SVG Export Plug-In . SVG Version: 6.00 Build 0)  -->
<svg version="1.1" id="Regular" xmlns="http://www.w3.org/2000/svg" xmlns:xlink="http://www.w3.org/1999/xlink" x="0px" y="0px"
	 viewBox="0 0 24 24" style="enable-background:new 0 0 24 24;" xml:space="preserve">
<title>brain-head</title>
<g>
	<path d="M2.25,24C1.009,24,0,22.991,0,21.75v-3C0,18.336,0.336,18,0.75,18s0.75,0.336,0.75,0.75v3c0,0.414,0.336,0.75,0.75,0.75h3
		C5.664,22.5,6,22.836,6,23.25S5.664,24,5.25,24H2.25z"/>
	<path d="M0.75,6C0.336,6,0,5.664,0,5.25v-3C0,1.009,1.009,0,2.25,0h3C5.664,0,6,0.336,6,0.75S5.664,1.5,5.25,1.5h-3
		C1.836,1.5,1.5,1.836,1.5,2.25v3C1.5,5.664,1.164,6,0.75,6z"/>
	<path d="M23.25,6c-0.414,0-0.75-0.336-0.75-0.75v-3c0-0.414-0.336-0.75-0.75-0.75h-3C18.336,1.5,18,1.164,18,0.75S18.336,0,18.75,0
		h3C22.991,0,24,1.009,24,2.25v3C24,5.664,23.664,6,23.25,6z"/>
	<path d="M18.75,24C18.336,24,18,23.664,18,23.25s0.336-0.75,0.75-0.75h3c0.414,0,0.75-0.336,0.75-0.75v-3
		c0-0.414,0.336-0.75,0.75-0.75S24,18.336,24,18.75v3c0,1.241-1.009,2.25-2.25,2.25H18.75z"/>
	<path d="M16.5,21c-0.414,0-0.75-0.336-0.75-0.75v-4.719c0-0.213,0.091-0.417,0.25-0.559c1.271-1.137,2-2.767,2-4.472
		c0-1.603-0.624-3.11-1.757-4.243C15.109,5.124,13.603,4.5,12,4.5c-4.353,0-5.081,2.338-6.402,6.582
		c-0.24,0.77-0.487,1.566-0.781,2.418L6,13.5c0.414,0,0.75,0.336,0.75,0.75v1.5c0,0.414,0.336,0.75,0.75,0.75H9
		c0.414,0,0.75,0.336,0.75,0.75v3C9.75,20.664,9.414,21,9,21s-0.75-0.336-0.75-0.75V18H7.5c-1.241,0-2.25-1.009-2.25-2.25V15H4.817
		c-0.827,0-1.5-0.673-1.5-1.5c0-0.168,0.028-0.334,0.083-0.491c0.284-0.822,0.528-1.607,0.765-2.367C5.494,6.37,6.543,3,12,3
		c2.003,0,3.887,0.78,5.303,2.197C18.72,6.614,19.5,8.497,19.5,10.5c0,2.009-0.818,3.951-2.25,5.356v4.394
		C17.25,20.664,16.914,21,16.5,21z"/>
	<path d="M14.956,12.508c-0.212,0-0.418-0.044-0.614-0.132L9.043,9.992C8.928,9.94,8.821,9.874,8.723,9.797
		C8.41,9.547,8.213,9.19,8.168,8.791s0.068-0.79,0.318-1.104C9.346,6.615,10.626,6.001,12,6.001c0.253,0,0.509,0.022,0.759,0.065
		c1.186,0.203,2.221,0.855,2.915,1.837c0.695,0.982,0.965,2.175,0.762,3.36c-0.022,0.125-0.059,0.245-0.109,0.357
		c-0.164,0.366-0.461,0.646-0.836,0.789C15.319,12.475,15.139,12.508,14.956,12.508z M11.999,7.5c-0.916,0-1.769,0.41-2.342,1.124
		l5.299,2.384c0.137-0.789-0.044-1.585-0.507-2.239s-1.154-1.09-1.944-1.225C12.339,7.515,12.168,7.5,11.999,7.5z"/>
</g>
</svg>
