<?xml version="1.0" encoding="utf-8"?>
<!-- Generator: Adobe Illustrator 22.1.0, SVG Export Plug-In . SVG Version: 6.00 Build 0)  -->
<svg version="1.1" id="Regular" xmlns="http://www.w3.org/2000/svg" xmlns:xlink="http://www.w3.org/1999/xlink" x="0px" y="0px"
	 viewBox="0 0 24 24" style="enable-background:new 0 0 24 24;" xml:space="preserve">
<title>bread-herb-flour</title>
<g>
	<path d="M7.5,19.487c-0.2,0-0.389-0.078-0.53-0.22c-0.142-0.142-0.22-0.33-0.22-0.53s0.078-0.389,0.22-0.53l2.6-2.6L9.3,12.472
		c-0.035-0.412,0.271-0.776,0.683-0.812c0.023-0.002,0.042-0.002,0.062-0.002c0.394,0,0.717,0.295,0.75,0.686l0.162,1.876
		l1.796-1.796l-0.27-3.133c-0.036-0.412,0.271-0.776,0.683-0.812c0.023-0.002,0.043-0.003,0.062-0.003
		c0.393,0,0.715,0.295,0.749,0.685l0.162,1.876l1.585-1.585c0.142-0.142,0.33-0.22,0.53-0.22s0.389,0.078,0.53,0.22
		c0.142,0.141,0.22,0.33,0.22,0.53c0,0.2-0.078,0.389-0.22,0.53l-1.585,1.585l1.876,0.161c0.199,0.017,0.381,0.111,0.51,0.264
		s0.191,0.348,0.173,0.547c-0.032,0.384-0.361,0.686-0.747,0.686c-0.022,0-0.044-0.001-0.066-0.003l-3.132-0.269l-1.795,1.796
		l1.876,0.161c0.199,0.017,0.38,0.111,0.51,0.264s0.191,0.348,0.173,0.547c-0.032,0.384-0.361,0.686-0.747,0.686
		c-0.022,0-0.044-0.001-0.066-0.003l-3.132-0.269l-2.6,2.6C7.889,19.409,7.701,19.487,7.5,19.487z"/>
	<path d="M19.397,23.989c-0.049,0-0.099-0.001-0.149-0.003l-14.517,0c-0.033,0.001-0.079,0.002-0.125,0.002
		c-2.082,0-3.775-1.635-3.855-3.723l0-12.029c0.08-2.11,1.776-3.752,3.863-3.752c0.048,0,0.097,0.001,0.146,0.003l0.492,0v-2.25
		c0-0.018,0.001-0.035,0.002-0.052c0.088-1.234,1.124-2.201,2.36-2.201c0.049,0,0.099,0.001,0.149,0.005l8.514-0.001
		c0.023-0.002,0.066-0.003,0.11-0.003c1.238,0,2.276,0.966,2.364,2.2c0.001,0.015,0.002,0.034,0.002,0.053v2.25h0.519
		c0.031-0.001,0.073-0.002,0.116-0.002c2.087,0,3.784,1.635,3.864,3.723l0,12.028C23.169,22.347,21.477,23.989,19.397,23.989
		C19.397,23.989,19.397,23.989,19.397,23.989z M19.386,22.489c1.277,0,2.315-1.002,2.365-2.281l0-11.971
		c-0.048-1.235-1.11-2.252-2.367-2.252c-0.029,0-0.058,0-0.087,0.002l-14.565,0C4.688,5.986,4.659,5.985,4.63,5.985
		c-1.286,0-2.332,1.002-2.38,2.28l0,11.971c0.048,1.235,1.11,2.252,2.368,2.252c0.029,0,0.057,0,0.086-0.001l14.565,0
		C19.269,22.487,19.356,22.489,19.386,22.489z M17.25,4.487V2.268c-0.043-0.44-0.421-0.783-0.868-0.783
		c-0.017,0-0.088,0.003-0.096,0.003H15.75v3H17.25z M14.25,4.487v-3h-1.5v3H14.25z M11.25,4.487v-3h-1.5v3H11.25z M8.25,4.487v-3
		H7.714C7.669,1.485,7.648,1.484,7.628,1.484c-0.452,0-0.835,0.343-0.878,0.784v2.219H8.25z"/>
</g>
</svg>
