<?xml version="1.0" encoding="utf-8"?>
<!-- Generator: Adobe Illustrator 22.1.0, SVG Export Plug-In . SVG Version: 6.00 Build 0)  -->
<svg version="1.1" id="Regular" xmlns="http://www.w3.org/2000/svg" xmlns:xlink="http://www.w3.org/1999/xlink" x="0px" y="0px"
	 viewBox="0 0 24 24" style="enable-background:new 0 0 24 24;" xml:space="preserve">
<title>breakfast-croissant</title>
<g>
	<path d="M22.304,13.396c-0.424,0-0.823-0.187-1.094-0.513c-0.042-0.051-0.077-0.107-0.104-0.166
		c-0.499-1.087-1.349-1.983-2.41-2.546c-0.253,0.214-0.576,0.333-0.913,0.333c-0.174,0-0.344-0.032-0.506-0.094l-2.099-0.815
		c-0.303,0.349-0.746,0.557-1.218,0.557H9.97c-0.46-0.001-0.896-0.201-1.2-0.538l-2.047,0.795c-0.162,0.063-0.332,0.094-0.506,0.094
		c-0.337,0-0.662-0.12-0.915-0.335c-1.062,0.563-1.913,1.459-2.412,2.547c-0.027,0.059-0.062,0.115-0.104,0.166
		c-0.271,0.326-0.67,0.513-1.094,0.513c-0.163,0-0.323-0.028-0.476-0.082c-0.511-0.155-0.907-0.591-1.017-1.131
		c-0.502-2.148,0.098-4.485,1.57-6.149C1.637,5.586,1.744,5.091,2.067,4.738C2.083,4.72,2.1,4.703,2.118,4.687
		c1.136-1.031,2.586-1.739,4.113-2.011c0.051-0.508,0.34-0.968,0.794-1.23c1.46-0.938,3.173-1.439,4.941-1.439
		c1.773,0,3.495,0.504,4.979,1.457c0.428,0.251,0.708,0.702,0.76,1.201c1.553,0.264,3.027,0.975,4.181,2.022
		c0.018,0.016,0.035,0.034,0.052,0.052c0.321,0.354,0.427,0.848,0.294,1.295c1.493,1.684,2.076,3.972,1.562,6.169
		c-0.106,0.523-0.502,0.954-1.029,1.115C22.627,13.369,22.467,13.396,22.304,13.396z M2.691,7.266
		c-1.013,1.282-1.398,2.955-1.035,4.561c0.595-1.167,1.489-2.124,2.61-2.796L2.691,7.266z M19.733,9.031
		c1.119,0.672,2.012,1.627,2.607,2.794c0.359-1.613-0.025-3.281-1.032-4.558L19.733,9.031z M6.241,8.989l1.898-0.737L6.595,4.136
		C5.372,4.334,4.208,4.87,3.275,5.667c0,0.001,0.001,0.001,0.001,0.002L6.241,8.989z M17.761,8.989L17.92,8.81
		c0.026-0.034,0.054-0.067,0.088-0.098l2.714-3.039c0.002-0.002,0.003-0.005,0.005-0.007c-0.951-0.811-2.137-1.35-3.383-1.54
		l-1.541,4.103L17.761,8.989z M11.966,1.509c-1.482,0-2.921,0.421-4.161,1.217c-0.075,0.044-0.099,0.1-0.079,0.155l2.136,5.696
		c0.017,0.044,0.061,0.075,0.109,0.075h3.99c0.047,0,0.091-0.031,0.108-0.076l2.14-5.697c0.02-0.052-0.001-0.11-0.05-0.139
		C14.898,1.933,13.453,1.509,11.966,1.509z"/>
	<path d="M3,24.004c-0.807,0-1.592-0.332-2.153-0.911C0.288,22.519-0.012,21.761,0,20.959c0.012-0.801,0.335-1.55,0.91-2.108
		c0.555-0.539,1.285-0.838,2.059-0.846C2.98,18.005,2.991,18.004,3,18.004c0.034,0,0.067,0.002,0.101,0.004l0.069,0.004
		c0.029,0.001,0.057,0.002,0.086,0.005c0.054,0.005,0.108,0.012,0.162,0.019c0.048,0.007,0.078,0.011,0.109,0.017
		c0.053,0.01,0.106,0.02,0.158,0.032c0.035,0.008,0.074,0.018,0.112,0.029c0.048,0.013,0.096,0.027,0.143,0.042
		C3.98,18.17,4.02,18.185,4.059,18.2c0,0,0.101,0.039,0.127,0.05c0.038,0.016,0.075,0.033,0.112,0.051
		c0.195-0.32,0.436-0.607,0.72-0.858c0.657-0.58,1.503-0.91,2.385-0.932c0.031-0.004,0.063-0.007,0.096-0.007
		c0.329,0,0.665,0.047,0.997,0.138c0.001,0,0.026,0.007,0.027,0.007c0.088,0.025,0.175,0.054,0.261,0.086l0.081,0.03
		c0.073,0.029,0.143,0.059,0.213,0.092c0.04,0.018,0.08,0.038,0.121,0.058c0.059,0.031,0.115,0.061,0.17,0.093
		c0.051,0.03,0.103,0.061,0.153,0.093c0.045,0.029,0.088,0.058,0.131,0.088c0.032,0.022,0.064,0.046,0.095,0.069
		c0.63-0.47,1.382-0.729,2.162-0.748c0.029-0.004,0.059-0.006,0.089-0.006c0.323,0,0.654,0.045,0.982,0.135l0.052,0.014
		c0.078,0.022,0.159,0.05,0.24,0.079l0.095,0.035c0.07,0.028,0.136,0.057,0.202,0.087c0.044,0.021,0.089,0.042,0.133,0.064
		c0.055,0.028,0.108,0.057,0.16,0.087c0.054,0.031,0.107,0.063,0.16,0.097c0.043,0.027,0.085,0.056,0.128,0.086
		c0.032,0.022,0.063,0.045,0.095,0.069c0.367-0.275,0.787-0.484,1.229-0.609c0.323-0.092,0.656-0.139,0.99-0.142
		c0.012-0.001,0.024-0.001,0.033-0.001c0.052,0,0.103,0.003,0.155,0.007l0.082,0.004c0.03,0.001,0.061,0.002,0.091,0.005
		c0.082,0.007,0.162,0.019,0.241,0.031l0.095,0.015c0.085,0.015,0.169,0.034,0.252,0.055l0.071,0.018
		c0.089,0.024,0.174,0.051,0.259,0.081l0.056,0.021c0.085,0.031,0.171,0.066,0.255,0.105l0.033,0.016
		c0.094,0.045,0.179,0.088,0.262,0.135c0.005,0.003,0.025,0.015,0.03,0.018c0.218,0.126,0.425,0.278,0.616,0.449l0.028,0.025
		c0.038,0.033,0.075,0.067,0.111,0.102c0.022,0.022,0.042,0.043,0.061,0.064l0.024,0.026c0.052,0.054,0.104,0.11,0.153,0.169
		c0.019,0.022,0.037,0.046,0.055,0.069l0.02,0.026c0.047,0.06,0.093,0.119,0.135,0.181c0.019,0.027,0.037,0.055,0.055,0.084
		c0,0,0.045,0.072,0.059,0.093c0.406-0.196,0.849-0.299,1.302-0.299c0.802,0,1.556,0.312,2.122,0.879
		c0.567,0.567,0.878,1.321,0.878,2.122c0,1.654-1.346,2.999-3,2.999H3z M2.999,19.505c-0.393,0-0.764,0.15-1.044,0.423
		c-0.287,0.279-0.449,0.653-0.455,1.054c-0.006,0.401,0.144,0.78,0.423,1.067c0.281,0.29,0.673,0.456,1.076,0.456H21
		c0.827,0,1.5-0.673,1.501-1.5c0-0.401-0.156-0.777-0.439-1.061c-0.284-0.283-0.66-0.44-1.061-0.44
		c-0.279,0-0.552,0.079-0.788,0.225c0.025,0.175,0.037,0.35,0.037,0.525c0,0.414-0.336,0.75-0.75,0.75s-0.75-0.336-0.75-0.75
		c0-0.209-0.031-0.421-0.091-0.628c-0.016-0.054-0.034-0.106-0.053-0.157l-0.021-0.058c-0.02-0.048-0.042-0.094-0.064-0.139
		l-0.032-0.067c-0.018-0.034-0.039-0.068-0.06-0.102l-0.053-0.088c-0.02-0.03-0.042-0.06-0.065-0.09l-0.065-0.087
		c-0.03-0.037-0.064-0.074-0.099-0.111l-0.025-0.028c-0.063-0.065-0.112-0.11-0.162-0.153c-0.006-0.005-0.017-0.015-0.022-0.02
		c-0.317-0.266-0.719-0.443-1.146-0.5c-0.077-0.01-0.134-0.013-0.192-0.016l-0.1-0.004c-0.208,0-0.414,0.029-0.612,0.085
		c-0.227,0.064-0.44,0.164-0.637,0.297c0.329,0.568,0.501,1.206,0.501,1.866c0,0.414-0.336,0.75-0.75,0.75s-0.75-0.336-0.75-0.75
		c0-0.571-0.217-1.116-0.612-1.537c-0.026-0.027-0.053-0.056-0.081-0.083c-0.025-0.024-0.053-0.049-0.081-0.073
		c-0.028-0.025-0.056-0.049-0.085-0.072s-0.057-0.044-0.086-0.064c-0.031-0.022-0.064-0.045-0.098-0.066
		c-0.027-0.018-0.053-0.033-0.08-0.049c-0.038-0.022-0.079-0.044-0.12-0.065l-0.062-0.03c-0.048-0.022-0.099-0.044-0.149-0.063
		l-0.028-0.01c-0.071-0.025-0.129-0.044-0.189-0.059c-0.087-0.022-0.151-0.036-0.216-0.046c-0.082-0.013-0.149-0.02-0.216-0.024
		c-0.061-0.004-0.105-0.005-0.149-0.005c-0.448,0-0.883,0.133-1.25,0.379c0.329,0.569,0.502,1.208,0.502,1.868
		c0,0.414-0.336,0.75-0.75,0.75s-0.75-0.336-0.75-0.75c0-0.571-0.218-1.117-0.613-1.537c-0.026-0.028-0.052-0.055-0.079-0.081
		c-0.027-0.026-0.055-0.051-0.083-0.076c-0.026-0.023-0.054-0.047-0.083-0.069c-0.029-0.023-0.058-0.044-0.088-0.066
		c-0.031-0.022-0.063-0.044-0.096-0.065c-0.027-0.017-0.054-0.033-0.082-0.05C8.59,18.289,8.55,18.267,8.51,18.247
		c-0.024-0.012-0.045-0.022-0.066-0.032c-0.048-0.022-0.097-0.043-0.147-0.062l-0.045-0.017c-0.056-0.02-0.113-0.038-0.172-0.053
		l0.066-0.37l-0.092,0.364c-0.063-0.016-0.127-0.029-0.192-0.04c-0.002,0-0.025-0.004-0.027-0.004
		c-0.055-0.008-0.121-0.016-0.188-0.02c-0.063-0.004-0.106-0.005-0.15-0.005c-0.549,0-1.077,0.199-1.487,0.561
		C5.786,18.768,5.6,19.02,5.469,19.303C5.813,19.802,6,20.398,6,21.004c0,0.414-0.336,0.75-0.75,0.75s-0.75-0.336-0.75-0.75
		c0-0.396-0.154-0.77-0.434-1.053c-0.013-0.013-0.027-0.025-0.04-0.037c0,0-0.061-0.057-0.072-0.066l-0.043-0.031
		c-0.044-0.034-0.09-0.065-0.137-0.094l-0.062-0.038c-0.004-0.002-0.038-0.018-0.041-0.02c-0.032-0.016-0.064-0.032-0.097-0.046
		C3.38,19.542,3.191,19.505,2.999,19.505z"/>
</g>
</svg>
