<?xml version="1.0" encoding="utf-8"?>
<!-- Generator: Adobe Illustrator 22.1.0, SVG Export Plug-In . SVG Version: 6.00 Build 0)  -->
<svg version="1.1" id="Regular" xmlns="http://www.w3.org/2000/svg" xmlns:xlink="http://www.w3.org/1999/xlink" x="0px" y="0px"
	 viewBox="0 0 24 24" style="enable-background:new 0 0 24 24;" xml:space="preserve">
<title>bread-gluten-free</title>
<g>
	<path d="M18,19.12c-0.2,0-0.389-0.078-0.53-0.22l-1.591-1.591c-0.292-0.292-0.292-0.768,0-1.061c0.142-0.142,0.33-0.22,0.53-0.22
		s0.389,0.078,0.53,0.22l1.591,1.591c0.142,0.142,0.22,0.33,0.22,0.53s-0.078,0.389-0.22,0.53S18.2,19.12,18,19.12z"/>
	<path d="M13.077,19.071c-1.121,0-3.482-0.463-3.62-1.893c-0.15-1.548,2.419-2.481,3.484-2.597c0.111-0.019,0.224-0.029,0.337-0.03
		c0.582,0.003,1.118,0.22,1.516,0.612c0.39,0.383,0.616,0.893,0.637,1.438c0.016,0.103,0.025,0.207,0.025,0.31
		c0.009,1.161-0.925,2.122-2.083,2.149C13.283,19.067,13.184,19.071,13.077,19.071z M10.98,17.03
		c0.24,0.209,1.175,0.545,2.032,0.545c0.086,0,0.169-0.004,0.248-0.011c0.025-0.002,0.048-0.003,0.07-0.003
		c0.346-0.003,0.628-0.289,0.625-0.638c0-0.037-0.004-0.074-0.011-0.111c-0.008-0.042-0.012-0.086-0.013-0.13
		c-0.001-0.17-0.069-0.329-0.19-0.448c-0.119-0.117-0.277-0.182-0.444-0.182l-0.01-0.375l0.003,0.375
		c-0.037,0-0.075,0.004-0.112,0.011c-0.02,0.004-0.042,0.007-0.064,0.009C12.262,16.154,11.202,16.738,10.98,17.03z"/>
	<path d="M9.327,15.32c-1.122,0-3.484-0.463-3.623-1.894c-0.047-0.483,0.156-1.204,1.386-1.889c0.662-0.369,1.464-0.639,2.098-0.707
		c0.114-0.02,0.23-0.03,0.346-0.031c0,0,0,0,0,0c0.579,0,1.109,0.218,1.511,0.615c0.388,0.383,0.613,0.893,0.633,1.437
		c0.016,0.102,0.024,0.206,0.025,0.309c0.009,1.161-0.924,2.122-2.083,2.149C9.532,15.316,9.434,15.32,9.327,15.32z M7.237,13.286
		c0.255,0.21,1.181,0.537,2.031,0.537c0.083,0,0.164-0.003,0.241-0.01c0.024-0.002,0.046-0.003,0.068-0.003
		c0.346-0.003,0.628-0.289,0.625-0.638c0-0.037-0.004-0.075-0.011-0.112c-0.008-0.044-0.012-0.088-0.013-0.133
		c-0.001-0.168-0.068-0.327-0.188-0.445c-0.119-0.117-0.276-0.182-0.444-0.182l-0.007-0.375l0.002,0.375
		c-0.037,0-0.075,0.004-0.112,0.011c-0.022,0.004-0.044,0.007-0.066,0.01c-0.427,0.041-1.062,0.258-1.545,0.528
		C7.487,13.033,7.313,13.194,7.237,13.286z"/>
	<path d="M16.548,15.826c-0.109,0-0.217-0.009-0.322-0.026c-1.142-0.046-2.059-1.006-2.048-2.153
		c0.001-0.114,0.011-0.227,0.03-0.337c0.11-1.006,0.997-3.491,2.472-3.491c0.042,0,0.084,0.002,0.126,0.006
		c0.379,0.036,0.718,0.232,1.006,0.581c0.634,0.769,0.965,2.34,0.878,3.333c-0.012,0.556-0.236,1.077-0.632,1.469
		c-0.402,0.398-0.935,0.617-1.501,0.617H16.548z M16.649,11.356c-0.295,0.237-0.87,1.284-0.952,2.131
		c-0.002,0.02-0.005,0.042-0.009,0.064c-0.006,0.035-0.01,0.073-0.01,0.11c-0.001,0.17,0.063,0.33,0.182,0.451
		c0.119,0.121,0.278,0.189,0.448,0.19c0.045,0,0.089,0.005,0.133,0.013c0.041,0.008,0.083,0.01,0.126,0.011
		c0.159,0,0.317-0.065,0.437-0.183c0.12-0.119,0.187-0.277,0.187-0.446c0-0.021,0.001-0.043,0.003-0.065
		c0.062-0.64-0.179-1.834-0.54-2.271C16.652,11.359,16.651,11.357,16.649,11.356z"/>
	<path d="M12.793,12.074c-0.106-0.001-0.21-0.009-0.312-0.025c-1.141-0.041-2.06-0.996-2.055-2.14
		c0.001-0.117,0.011-0.235,0.031-0.35c0.068-0.634,0.338-1.437,0.707-2.099c0.514-0.923,1.108-1.392,1.765-1.392
		c0.041,0,0.083,0.002,0.124,0.006c0.484,0.047,1.152,0.384,1.592,1.721c0.237,0.722,0.35,1.562,0.294,2.196
		c-0.027,1.149-0.981,2.082-2.132,2.082H12.793z M12.905,7.614c-0.093,0.079-0.25,0.253-0.43,0.576
		c-0.269,0.483-0.486,1.119-0.528,1.545c-0.002,0.023-0.005,0.045-0.01,0.067c-0.007,0.036-0.01,0.074-0.01,0.112
		c-0.002,0.349,0.281,0.634,0.629,0.635c0.045,0,0.09,0.004,0.134,0.013c0.037,0.007,0.074,0.01,0.112,0.011
		c0.351,0,0.635-0.282,0.637-0.628c0-0.019,0.001-0.041,0.003-0.063c0.042-0.428-0.05-1.092-0.223-1.618
		C13.103,7.911,12.981,7.71,12.905,7.614z"/>
	<path d="M7.922,10.599c-0.498,0-0.983-0.176-1.366-0.495C6.469,10.031,6.386,9.949,6.31,9.861c-0.7-0.715-1.446-2.141-1.444-3.138
		C4.866,6.273,5.003,5.909,5.273,5.64c0.269-0.268,0.633-0.403,1.083-0.403c1.086,0,2.513,0.835,3.135,1.443
		c0.877,0.757,0.986,2.091,0.242,2.981c-0.067,0.08-0.14,0.156-0.218,0.225C9.112,10.339,8.533,10.599,7.922,10.599L7.922,10.599z
		 M6.366,6.728C6.366,7.294,6.94,8.371,7.393,8.824c0.015,0.015,0.031,0.032,0.046,0.05c0.023,0.028,0.05,0.054,0.078,0.078
		c0.115,0.096,0.255,0.147,0.405,0.147c0.188,0,0.366-0.083,0.486-0.226c0.029-0.034,0.061-0.066,0.095-0.095
		c0.028-0.023,0.055-0.05,0.079-0.079c0.224-0.268,0.188-0.667-0.08-0.89c-0.018-0.015-0.034-0.03-0.05-0.045
		C7.91,7.219,6.84,6.735,6.366,6.728z"/>
	<path d="M12,23.986c-3.182,0-6.18-1.237-8.445-3.483c-0.013-0.01-0.026-0.021-0.036-0.031c-0.016-0.017-0.029-0.032-0.04-0.046
		C1.24,18.174,0,15.173,0,11.986c0-6.617,5.383-12,12-12c3.174,0,6.167,1.231,8.43,3.468c0.017,0.012,0.035,0.026,0.053,0.044
		c0.014,0.014,0.031,0.034,0.045,0.055C22.768,5.817,24,8.81,24,11.986C24,18.603,18.617,23.986,12,23.986z M5.129,19.917
		c1.912,1.66,4.337,2.57,6.871,2.57c5.79,0,10.5-4.71,10.5-10.5c0-2.534-0.909-4.958-2.569-6.87l-2.151,2.15
		c-0.142,0.142-0.33,0.22-0.53,0.22s-0.389-0.078-0.53-0.22c-0.142-0.142-0.22-0.33-0.22-0.53c0-0.2,0.078-0.389,0.22-0.53
		l2.151-2.15c-1.912-1.66-4.337-2.569-6.87-2.569c-5.79,0-10.5,4.71-10.5,10.5c0,2.533,0.909,4.958,2.569,6.87l2.151-2.15
		c0.142-0.142,0.33-0.22,0.53-0.22c0.2,0,0.389,0.078,0.53,0.22c0.142,0.142,0.22,0.33,0.22,0.531s-0.078,0.389-0.22,0.53
		L5.129,19.917z"/>
</g>
</svg>
