<?xml version="1.0" encoding="utf-8"?>
<!-- Generator: Adobe Illustrator 22.1.0, SVG Export Plug-In . SVG Version: 6.00 Build 0)  -->
<svg version="1.1" id="Regular" xmlns="http://www.w3.org/2000/svg" xmlns:xlink="http://www.w3.org/1999/xlink" x="0px" y="0px"
	 viewBox="0 0 24 24" style="enable-background:new 0 0 24 24;" xml:space="preserve">
<title>breakfast-croissant-2</title>
<g>
	<path d="M20.94,21.827c-0.352,0-0.69-0.081-1.008-0.241c-0.535-0.269-0.933-0.731-1.121-1.3c-0.978-2.957-2.897-5.129-5.153-5.848
		c-0.536,0.323-1.092,0.486-1.654,0.486c-0.562,0-1.117-0.163-1.653-0.486c-2.255,0.718-4.173,2.89-5.153,5.846
		c-0.211,0.619-0.676,1.114-1.276,1.361c-0.273,0.112-0.56,0.169-0.853,0.169c-0.918,0-1.735-0.547-2.083-1.395
		c-1.21-2.794-1.31-5.92-0.279-8.796c0.002-0.007,0.005-0.014,0.006-0.018c0.894-2.484,2.604-4.619,4.829-6.041
		C5.382,4.529,5.948,3.518,6.939,3.126c1.592-0.632,3.262-0.953,4.963-0.953l0.21,0c1.7,0,3.369,0.32,4.961,0.951
		c0.988,0.391,1.553,1.4,1.398,2.425c2.217,1.417,3.923,3.538,4.82,6c0.013,0.031,0.024,0.062,0.033,0.094
		c1.031,2.905,0.908,6.061-0.348,8.889c-0.269,0.564-0.752,0.991-1.33,1.182C21.416,21.789,21.179,21.827,20.94,21.827z
		 M18.444,16.285c0.756,1.031,1.358,2.217,1.793,3.53c0.101,0.306,0.385,0.511,0.706,0.511c0.079,0,0.157-0.013,0.233-0.038
		c0.191-0.063,0.351-0.204,0.438-0.385c0.944-2.125,1.152-4.506,0.598-6.757L18.444,16.285z M1.81,13.155
		c-0.548,2.221-0.355,4.572,0.558,6.681c0.121,0.293,0.395,0.478,0.701,0.478c0.097,0,0.192-0.019,0.283-0.056
		c0.201-0.082,0.355-0.247,0.425-0.451c0.433-1.308,1.035-2.491,1.79-3.52L1.81,13.155z M6.535,15.139
		c0.771-0.788,1.623-1.396,2.54-1.813C7.683,11.721,6.649,9.16,5.977,7.074c-1.636,1.142-2.894,2.702-3.663,4.548L6.535,15.139z
		 M14.936,13.326c0.917,0.418,1.769,1.025,2.54,1.813l4.231-3.525c-0.77-1.846-2.029-3.408-3.67-4.554
		C17.365,9.152,16.33,11.718,14.936,13.326z M11.924,3.673c-1.525,0-3.017,0.285-4.433,0.847C7.13,4.663,6.938,5.052,7.044,5.425
		c1.103,3.867,2.985,7.999,4.961,7.999c1.977,0,3.859-4.133,4.961-8.001c0.106-0.373-0.085-0.762-0.445-0.904
		c-1.415-0.561-2.906-0.846-4.432-0.846H11.924z"/>
</g>
</svg>
