<?xml version="1.0" encoding="utf-8"?>
<!-- Generator: Adobe Illustrator 22.1.0, SVG Export Plug-In . SVG Version: 6.00 Build 0)  -->
<svg version="1.1" id="Layer_1" xmlns="http://www.w3.org/2000/svg" xmlns:xlink="http://www.w3.org/1999/xlink" x="0px" y="0px"
	 viewBox="0 0 24 24" style="enable-background:new 0 0 24 24;" xml:space="preserve">
<title>breakup-heart-skull</title>
<g>
	<path d="M7.372,15.75c-0.205,0-0.396-0.081-0.539-0.228l-5.079-5.25c-1.837-1.813-2.29-4.592-1.122-6.909
		c1.044-2.043,3.12-3.311,5.418-3.311c0.951,0,1.904,0.23,2.755,0.665C9.36,1,9.866,1.366,10.309,1.804l0.933,0.922l0.935-0.925
		c1.144-1.13,2.659-1.753,4.266-1.753c0.001,0,0.037,0,0.038,0c1.622,0.01,3.142,0.651,4.282,1.804
		c0.439,0.444,0.805,0.951,1.088,1.507c0.951,1.88,0.832,4.146-0.31,5.915c-0.138,0.215-0.374,0.343-0.63,0.343
		c-0.145,0-0.285-0.042-0.407-0.12c-0.168-0.108-0.284-0.276-0.326-0.472c-0.042-0.196-0.005-0.396,0.104-0.565
		c0.854-1.322,0.943-3.017,0.232-4.422c-0.212-0.416-0.488-0.798-0.818-1.132c-0.858-0.869-2.003-1.351-3.224-1.358l-0.029-0.375
		v0.375c-1.21,0-2.351,0.469-3.212,1.319L11.77,4.314c-0.141,0.14-0.328,0.217-0.527,0.217l0,0c-0.198,0-0.386-0.077-0.527-0.216
		L9.255,2.872c-0.334-0.33-0.715-0.606-1.133-0.82C7.468,1.718,6.77,1.548,6.046,1.548c-0.477,0-0.952,0.075-1.412,0.224
		C3.472,2.148,2.526,2.954,1.97,4.041C1.097,5.772,1.438,7.852,2.82,9.216l5.091,5.262c0.287,0.297,0.28,0.773-0.017,1.061
		C7.752,15.675,7.567,15.75,7.372,15.75z"/>
	<path d="M15.692,24c-0.414,0-0.75-0.336-0.75-0.75V21c0-0.414,0.336-0.75,0.75-0.75c0.414,0,0.75,0.336,0.75,0.75v2.25
		C16.442,23.663,16.105,24,15.692,24z"/>
	<path d="M18.692,24c-0.414,0-0.75-0.336-0.75-0.75V21c0-0.414,0.336-0.75,0.75-0.75s0.75,0.336,0.75,0.75v2.25
		C19.442,23.663,19.105,24,18.692,24z"/>
	<path d="M19.067,18.75c-0.044,0-0.088-0.004-0.13-0.011c-0.568-0.066-0.995-0.542-0.995-1.114c0-0.046,0.004-0.093,0.013-0.139
		c0.063-0.507,0.471-0.913,0.979-0.974c0.044-0.008,0.088-0.012,0.133-0.012c0.045,0,0.09,0.004,0.134,0.012
		c0.512,0.062,0.92,0.471,0.98,0.983c0.007,0.042,0.011,0.086,0.011,0.13s-0.004,0.088-0.011,0.131
		c-0.06,0.513-0.47,0.923-0.983,0.983C19.155,18.746,19.111,18.75,19.067,18.75z"/>
	<path d="M15.317,18.75c-0.572,0-1.047-0.427-1.114-0.995c-0.007-0.042-0.011-0.086-0.011-0.13s0.004-0.088,0.011-0.131
		c0.06-0.513,0.47-0.923,0.983-0.983c0.042-0.008,0.086-0.011,0.131-0.011s0.088,0.004,0.131,0.011
		c0.509,0.06,0.918,0.466,0.982,0.974c0.009,0.047,0.013,0.094,0.013,0.139C16.443,18.245,15.938,18.75,15.317,18.75L15.317,18.75z"
		/>
	<path d="M21.693,24c-0.414,0-0.75-0.336-0.75-0.75V21c0-0.145,0.042-0.286,0.12-0.407l0.18-0.278
		c0.021-0.032,0.044-0.063,0.07-0.092c0.728-0.819,1.129-1.875,1.129-2.973c-0.006-1.192-0.476-2.313-1.326-3.155
		c-0.843-0.835-1.97-1.295-3.173-1.295h-1.501c-1.212,0-2.331,0.46-3.174,1.295c-0.849,0.841-1.32,1.963-1.326,3.158
		c0,1.119,0.418,2.193,1.175,3.02c0.037,0.04,0.069,0.084,0.095,0.13l0.128,0.219c0.066,0.114,0.102,0.245,0.102,0.377v2.25
		c0,0.414-0.336,0.75-0.75,0.75s-0.75-0.336-0.75-0.75v-2.04c-0.967-1.094-1.5-2.498-1.5-3.96c0.008-1.599,0.636-3.097,1.77-4.22
		c1.126-1.116,2.619-1.73,4.204-1.73h1.526c1.608,0,3.104,0.614,4.23,1.73c1.134,1.123,1.763,2.621,1.77,4.217
		c0,1.447-0.522,2.841-1.47,3.929l-0.03,0.046v2.028C22.443,23.663,22.106,24,21.693,24z"/>
</g>
</svg>
