<?xml version="1.0" encoding="utf-8"?>
<!-- Generator: Adobe Illustrator 22.1.0, SVG Export Plug-In . SVG Version: 6.00 Build 0)  -->
<svg version="1.1" id="Layer_1" xmlns="http://www.w3.org/2000/svg" xmlns:xlink="http://www.w3.org/1999/xlink" x="0px" y="0px"
	 viewBox="0 0 24 24" style="enable-background:new 0 0 24 24;" xml:space="preserve">
<title>breakup-couple-man-man</title>
<g>
	<path d="M5.25,18c-2.068,0-3.75-1.682-3.75-3.75c0-2.068,1.682-3.75,3.75-3.75S9,12.182,9,14.25C9,16.317,7.318,18,5.25,18z
		 M5.25,12C4.009,12,3,13.009,3,14.25c0,1.241,1.009,2.25,2.25,2.25S7.5,15.49,7.5,14.25C7.5,13.009,6.491,12,5.25,12z"/>
	<path d="M9.75,24C9.336,24,9,23.663,9,23.25c0-2.068-1.682-3.75-3.75-3.75S1.5,21.182,1.5,23.25C1.5,23.663,1.164,24,0.75,24
		S0,23.663,0,23.25C0,20.355,2.355,18,5.25,18s5.25,2.355,5.25,5.25C10.5,23.663,10.164,24,9.75,24z"/>
	<path d="M18.75,18C16.682,18,15,16.317,15,14.25c0-2.068,1.682-3.75,3.75-3.75s3.75,1.682,3.75,3.75
		C22.5,16.317,20.818,18,18.75,18z M18.75,12c-1.241,0-2.25,1.009-2.25,2.25c0,1.241,1.009,2.25,2.25,2.25S21,15.49,21,14.25
		C21,13.009,19.991,12,18.75,12z"/>
	<path d="M23.25,24c-0.414,0-0.75-0.336-0.75-0.75c0-2.068-1.682-3.75-3.75-3.75S15,21.182,15,23.25c0,0.414-0.336,0.75-0.75,0.75
		s-0.75-0.336-0.75-0.75c0-2.895,2.355-5.25,5.25-5.25S24,20.355,24,23.25C24,23.663,23.664,24,23.25,24z"/>
	<path d="M10.5,10.756c-0.405,0-0.798-0.168-1.077-0.461L4.939,5.656C3.686,4.344,3.685,2.291,4.936,0.982
		c0.034-0.036,0.07-0.072,0.106-0.106C5.635,0.31,6.414-0.002,7.235-0.002c0.879,0,1.696,0.349,2.301,0.984l1.503,1.557
		c0.136,0.141,0.21,0.326,0.21,0.521v6.946c0,0.2-0.078,0.389-0.22,0.53C10.891,10.676,10.698,10.756,10.5,10.756
		C10.5,10.756,10.5,10.756,10.5,10.756z M7.235,1.498c-0.433,0-0.845,0.164-1.157,0.463C6.059,1.978,6.04,1.997,6.021,2.017
		c-0.696,0.729-0.696,1.871,0,2.6L9.75,8.475V3.363L8.454,2.021C8.132,1.683,7.7,1.498,7.235,1.498z"/>
	<path d="M13.5,10.756c-0.2,0-0.389-0.078-0.531-0.22s-0.22-0.33-0.22-0.53V3.06c0-0.195,0.075-0.38,0.21-0.521l1.506-1.56
		c0.583-0.612,1.373-0.961,2.222-0.981l0.081-0.001c0.817,0,1.595,0.312,2.189,0.878c0.037,0.035,0.073,0.071,0.107,0.107
		c1.25,1.309,1.25,3.361,0,4.67l-4.49,4.645C14.298,10.588,13.906,10.755,13.5,10.756L13.5,10.756z M14.25,8.475l3.733-3.862
		c0.693-0.726,0.692-1.867-0.003-2.596c-0.02-0.021-0.039-0.04-0.059-0.059c-0.312-0.297-0.723-0.462-1.156-0.462l-0.041,0
		c-0.448,0.011-0.866,0.195-1.175,0.52L14.25,3.363V8.475z"/>
</g>
</svg>
