<?xml version="1.0" encoding="utf-8"?>
<!-- Generator: Adobe Illustrator 22.1.0, SVG Export Plug-In . SVG Version: 6.00 Build 0)  -->
<svg version="1.1" id="Regular" xmlns="http://www.w3.org/2000/svg" xmlns:xlink="http://www.w3.org/1999/xlink" x="0px" y="0px"
	 viewBox="0 0 24 24" style="enable-background:new 0 0 24 24;" xml:space="preserve">
<title>breakfast-bread-toast</title>
<g>
	<path d="M5.25,24C4.009,24,3,22.991,3,21.75V18H2.25C1.009,18,0,16.991,0,15.75v-1.5C0,13.009,1.009,12,2.25,12h0.827
		C3.377,10.541,4.541,9.377,6,9.077V5.905C4.697,5.567,3.75,4.372,3.75,3c0-1.654,1.346-3,3-3h13.5c1.654,0,3,1.346,3,3
		c0,1.372-0.947,2.567-2.25,2.905v3.172c1.732,0.351,3,1.874,3,3.673v9c0,1.241-1.009,2.25-2.25,2.25H5.25z M6.75,10.5
		c-1.241,0-2.25,1.009-2.25,2.25v9c0,0.414,0.336,0.75,0.75,0.75h16.5c0.414,0,0.75-0.336,0.75-0.75v-9
		c0-1.241-1.009-2.25-2.25-2.25H6.75z M2.25,13.5c-0.414,0-0.75,0.336-0.75,0.75v1.5c0,0.414,0.336,0.75,0.75,0.75H3v-3H2.25z
		 M19.5,9V5.25c0-0.414,0.336-0.75,0.75-0.75c0.827,0,1.5-0.673,1.5-1.5s-0.673-1.5-1.5-1.5H6.75c-0.827,0-1.5,0.673-1.5,1.5
		s0.673,1.5,1.5,1.5c0.414,0,0.75,0.336,0.75,0.75V9H19.5z"/>
	<path d="M17.25,21c-1.799,0-3.323-1.268-3.673-3H12.75C12.336,18,12,17.664,12,17.25s0.336-0.75,0.75-0.75h0.827
		c0.35-1.732,1.874-3,3.673-3c2.068,0,3.75,1.682,3.75,3.75S19.318,21,17.25,21z M17.25,15C16.009,15,15,16.009,15,17.25
		s1.009,2.25,2.25,2.25s2.25-1.009,2.25-2.25S18.491,15,17.25,15z"/>
</g>
</svg>
