<?xml version="1.0" encoding="utf-8"?>
<!-- Generator: Adobe Illustrator 22.1.0, SVG Export Plug-In . SVG Version: 6.00 Build 0)  -->
<svg version="1.1" id="Layer_1" xmlns="http://www.w3.org/2000/svg" xmlns:xlink="http://www.w3.org/1999/xlink" x="0px" y="0px"
	 viewBox="0 0 24 24" style="enable-background:new 0 0 24 24;" xml:space="preserve">
<title>breakup-divorce</title>
<g>
	<path d="M0.75,23.995c-0.414,0-0.75-0.336-0.75-0.75v-14.9c-0.001-0.786,0.418-1.525,1.092-1.93l9.674-6.051
		c0.12-0.075,0.257-0.114,0.398-0.114c0.193,0,0.376,0.073,0.516,0.205c0.248,0.235,0.306,0.608,0.141,0.907l-3.8,6.882h3.229
		c0.414,0,0.75,0.336,0.75,0.75v2.871l3.06-4.371h-2.31c-0.26,0-0.505-0.138-0.64-0.359s-0.146-0.502-0.027-0.733l2.25-4.391
		c0.095-0.186,0.266-0.325,0.468-0.381c0.066-0.018,0.133-0.027,0.2-0.027c0.141,0,0.278,0.039,0.397,0.114l7.522,4.7
		C23.584,6.817,24,7.555,24,8.341v14.9c0,0.414-0.336,0.75-0.75,0.75s-0.75-0.336-0.75-0.75v-14.9c0-0.262-0.139-0.509-0.364-0.644
		l-6.841-4.274l-1.318,2.572H16.5c0.281,0,0.536,0.155,0.665,0.404c0.13,0.249,0.11,0.546-0.051,0.776l-5.25,7.5
		c-0.14,0.2-0.37,0.32-0.615,0.32c-0.076,0-0.152-0.012-0.224-0.034c-0.314-0.099-0.525-0.387-0.525-0.716v-4.5H6.75
		c-0.264,0-0.512-0.141-0.646-0.369C5.97,9.148,5.966,8.863,6.094,8.632l3.016-5.463L1.876,7.694C1.642,7.834,1.5,8.082,1.5,8.344
		v14.9C1.5,23.658,1.164,23.995,0.75,23.995z"/>
	<path d="M16.354,20.995c-1.654,0-3-1.346-3-3s1.346-3,3-3s3,1.346,3,3S18.008,20.995,16.354,20.995z M16.354,16.495
		c-0.827,0-1.5,0.673-1.5,1.5s0.673,1.5,1.5,1.5c0.827,0,1.5-0.673,1.5-1.5S17.181,16.495,16.354,16.495z"/>
	<path d="M12.457,23.995c-0.131,0-0.261-0.035-0.375-0.1c-0.358-0.208-0.481-0.667-0.275-1.025c0.46-0.796,1.124-1.46,1.92-1.92
		c0.799-0.462,1.705-0.706,2.618-0.706c0.458,0,0.917,0.061,1.365,0.181c1.355,0.363,2.487,1.231,3.188,2.446
		c0.1,0.173,0.127,0.375,0.075,0.569c-0.052,0.194-0.176,0.355-0.349,0.456c-0.114,0.066-0.243,0.101-0.375,0.101
		c-0.267,0-0.516-0.144-0.65-0.375c-0.668-1.156-1.915-1.874-3.254-1.874c-0.654,0-1.301,0.174-1.869,0.502
		c-0.568,0.328-1.042,0.803-1.371,1.371C12.973,23.852,12.724,23.995,12.457,23.995z"/>
	<path d="M7.646,20.995c-1.654,0-3-1.346-3-3s1.346-3,3-3s3,1.346,3,3S9.3,20.995,7.646,20.995z M7.646,16.495
		c-0.827,0-1.5,0.673-1.5,1.5s0.673,1.5,1.5,1.5s1.5-0.673,1.5-1.5S8.473,16.495,7.646,16.495z"/>
	<path d="M3.75,23.995c-0.131,0-0.261-0.035-0.375-0.101c-0.358-0.207-0.481-0.667-0.274-1.025c0.46-0.796,1.124-1.46,1.92-1.92
		c0.796-0.46,1.702-0.703,2.618-0.703c1.875,0,3.62,1.005,4.554,2.623c0.1,0.173,0.127,0.375,0.075,0.569
		c-0.052,0.194-0.176,0.355-0.349,0.456c-0.114,0.066-0.243,0.101-0.375,0.101c-0.267,0-0.516-0.144-0.65-0.375
		c-0.667-1.156-1.914-1.873-3.254-1.873c-0.654,0-1.3,0.174-1.869,0.502c-0.569,0.329-1.043,0.803-1.371,1.371
		C4.266,23.851,4.017,23.995,3.75,23.995z"/>
</g>
</svg>
