<?xml version="1.0" encoding="utf-8"?>
<!-- Generator: Adobe Illustrator 22.1.0, SVG Export Plug-In . SVG Version: 6.00 Build 0)  -->
<svg version="1.1" id="Layer_1" xmlns="http://www.w3.org/2000/svg" xmlns:xlink="http://www.w3.org/1999/xlink" x="0px" y="0px"
	 viewBox="0 0 24 24" style="enable-background:new 0 0 24 24;" xml:space="preserve">
<title>bridge-2</title>
<g>
	<path d="M0.75,1.5C0.337,1.5,0,1.164,0,0.75S0.337,0,0.75,0h22.5C23.664,0,24,0.336,24,0.75S23.664,1.5,23.25,1.5H0.75z"/>
	<path d="M9.75,19.5C9.337,19.5,9,19.164,9,18.75V15c0-0.827-0.673-1.5-1.5-1.5S6,14.173,6,15v3.75c0,0.414-0.336,0.75-0.75,0.75
		S4.5,19.164,4.5,18.75V15c0-1.654,1.346-3,3-3s3,1.346,3,3v3.75C10.5,19.164,10.164,19.5,9.75,19.5z"/>
	<path d="M17.25,19.5c-0.414,0-0.75-0.336-0.75-0.75V15c0-0.827-0.673-1.5-1.5-1.5s-1.5,0.673-1.5,1.5v3.75
		c0,0.414-0.336,0.75-0.75,0.75S12,19.164,12,18.75V15c0-1.654,1.346-3,3-3s3,1.346,3,3v3.75C18,19.164,17.664,19.5,17.25,19.5z"/>
	<path d="M20.25,19.5c-0.414,0-0.75-0.336-0.75-0.75V15c0-0.802,0.313-1.556,0.881-2.123C20.948,12.312,21.701,12,22.502,12
		c0.339,0,0.669,0.056,0.986,0.167c0.391,0.136,0.598,0.564,0.462,0.955c-0.105,0.302-0.39,0.504-0.709,0.504
		c-0.083,0-0.166-0.014-0.245-0.041c-0.159-0.055-0.325-0.083-0.493-0.084c-0.402,0-0.779,0.156-1.062,0.439
		C21.157,14.222,21.001,14.599,21,15v3.75C21,19.164,20.664,19.5,20.25,19.5z"/>
	<path d="M2.25,19.5c-0.414,0-0.75-0.336-0.75-0.75V15c0-0.631-0.399-1.198-0.993-1.412c-0.389-0.14-0.592-0.57-0.452-0.959
		c0.107-0.297,0.391-0.496,0.706-0.496c0.087,0,0.172,0.015,0.254,0.045C2.203,12.603,3,13.738,3,15v3.75
		C3,19.164,2.664,19.5,2.25,19.5z"/>
	<path d="M0.75,9C0.337,9,0,8.664,0,8.25S0.337,7.5,0.75,7.5H1.5V5.25c0-0.414-0.336-0.75-0.75-0.75S0,4.164,0,3.75S0.337,3,0.75,3
		C1.991,3,3,4.009,3,5.25V7.5h3V5.25C6,4.009,7.01,3,8.25,3s2.25,1.009,2.25,2.25V7.5h3V5.25C13.5,4.009,14.51,3,15.75,3
		S18,4.009,18,5.25V7.5h3V5.25C21,4.009,22.01,3,23.25,3C23.664,3,24,3.336,24,3.75S23.664,4.5,23.25,4.5S22.5,4.836,22.5,5.25V7.5
		h0.75C23.664,7.5,24,7.836,24,8.25S23.664,9,23.25,9H0.75z M16.5,7.5V5.25c0-0.414-0.336-0.75-0.75-0.75S15,4.836,15,5.25V7.5H16.5
		z M9,7.5V5.25C9,4.836,8.664,4.5,8.25,4.5C7.837,4.5,7.5,4.836,7.5,5.25V7.5H9z"/>
	<path d="M0.751,24c-0.405,0-0.741-0.329-0.751-0.733c-0.005-0.2,0.069-0.39,0.207-0.535c0.138-0.145,0.325-0.227,0.525-0.232
		c0.891-0.021,1.642-0.704,1.748-1.589c0.045-0.377,0.365-0.661,0.745-0.661c0.007,0,0.037,0.001,0.045,0.001
		C3.665,20.275,3.975,20.604,3.975,21c0,0.813,0.996,1.5,2.175,1.5s2.175-0.687,2.175-1.5c0-0.414,0.336-0.75,0.75-0.75
		s0.75,0.336,0.75,0.75c0,0.813,0.996,1.5,2.175,1.5s2.175-0.687,2.175-1.5c0-0.414,0.336-0.75,0.75-0.75s0.75,0.336,0.75,0.75
		c0,0.813,0.996,1.5,2.175,1.5s2.175-0.687,2.175-1.5c0-0.396,0.31-0.725,0.706-0.749c0.013-0.001,0.032-0.002,0.05-0.002
		c0.376,0,0.694,0.284,0.739,0.661c0.105,0.885,0.857,1.568,1.748,1.589c0.413,0.01,0.742,0.354,0.732,0.767
		C23.991,23.672,23.654,24,23.251,24c-0.96-0.022-1.863-0.466-2.47-1.187C20.092,23.555,19.016,24,17.85,24
		c-1.16,0-2.237-0.443-2.925-1.182C14.237,23.557,13.161,24,12,24c-1.16,0-2.237-0.443-2.925-1.182C8.387,23.557,7.311,24,6.15,24
		c-1.166,0-2.242-0.445-2.93-1.187C2.613,23.534,1.714,23.978,0.768,24C0.765,24,0.754,24,0.751,24z"/>
</g>
</svg>
