<?xml version="1.0" encoding="utf-8"?>
<!-- Generator: Adobe Illustrator 22.1.0, SVG Export Plug-In . SVG Version: 6.00 Build 0)  -->
<svg version="1.1" id="Layer_1" xmlns="http://www.w3.org/2000/svg" xmlns:xlink="http://www.w3.org/1999/xlink" x="0px" y="0px"
	 viewBox="0 0 24 24" style="enable-background:new 0 0 24 24;" xml:space="preserve">
<title>bridge-1</title>
<g>
	<path d="M23.215,16c-0.414,0-0.75-0.336-0.75-0.75V11.5h-5.514c1.024,0.679,1.901,1.566,2.579,2.616
		c0.109,0.168,0.146,0.369,0.104,0.565c-0.042,0.196-0.158,0.364-0.326,0.472c-0.121,0.079-0.262,0.12-0.407,0.12
		c-0.256,0-0.491-0.128-0.63-0.343c-1.087-1.683-2.765-2.842-4.724-3.263c-0.466-0.1-0.945-0.157-1.423-0.167l-0.293,0
		c-1.388,0.022-2.75,0.437-3.931,1.2c-0.897,0.579-1.646,1.327-2.225,2.223c-0.139,0.214-0.374,0.342-0.63,0.342
		c-0.145,0-0.286-0.042-0.408-0.121c-0.168-0.109-0.284-0.277-0.326-0.472c-0.042-0.196-0.005-0.396,0.104-0.565
		c0.676-1.045,1.544-1.922,2.58-2.608H1.465v3.75c0,0.414-0.336,0.75-0.75,0.75s-0.75-0.336-0.75-0.75v-4.5
		c0-0.013,0.003-0.048,0.003-0.05c0.004-0.06,0.015-0.117,0.032-0.172c0.002-0.006,0.01-0.031,0.012-0.036
		c0.025-0.067,0.057-0.128,0.097-0.182c0.006-0.009,0.02-0.025,0.027-0.033c0.039-0.049,0.084-0.092,0.133-0.128
		c0.005-0.004,0.01-0.008,0.016-0.012c1.469-1.007,2.77-2.218,3.874-3.603c0.205-0.244,0.42-0.535,0.669-0.872
		C6.203,3.801,8.273,1,11.965,1c3.693,0,5.763,2.801,7.132,4.655c0.251,0.339,0.467,0.632,0.66,0.862
		c1.115,1.398,2.417,2.611,3.879,3.613c0.001,0.001,0.02,0.014,0.027,0.02c0.05,0.038,0.094,0.08,0.133,0.129
		c0.005,0.006,0.021,0.026,0.026,0.032c0.038,0.053,0.071,0.114,0.095,0.178c0.003,0.009,0.01,0.031,0.013,0.04
		c0.017,0.055,0.028,0.114,0.032,0.173c0,0.002,0.003,0.034,0.003,0.047v4.5C23.965,15.664,23.629,16,23.215,16z M12.146,10l1.319,0
		V2.722c-0.483-0.147-0.987-0.222-1.5-0.222c-0.513,0-1.017,0.075-1.5,0.222V10h1.397l0.159-0.001C12.063,9.999,12.105,10,12.146,10
		z M21.023,10c-0.882-0.768-1.695-1.617-2.425-2.532c-0.19-0.226-0.405-0.513-0.633-0.821V10H21.023z M16.465,10V4.765
		c-0.499-0.541-0.994-0.976-1.5-1.316V10H16.465z M8.965,10V3.449c-0.506,0.34-1.001,0.775-1.5,1.316V10H8.965z M5.965,10V6.646
		C5.736,6.957,5.52,7.245,5.319,7.484C4.598,8.389,3.789,9.234,2.908,10H5.965z"/>
	<path d="M0.748,22.001c-0.402,0-0.737-0.329-0.747-0.733c-0.005-0.2,0.069-0.39,0.207-0.535c0.138-0.145,0.325-0.227,0.525-0.232
		c0.891-0.021,1.642-0.704,1.748-1.589c0.045-0.377,0.366-0.661,0.748-0.661c0.006,0,0.031,0.001,0.038,0.001
		C3.666,18.275,3.975,18.604,3.975,19c0,0.813,0.996,1.5,2.175,1.5s2.175-0.687,2.175-1.5c0-0.414,0.336-0.75,0.75-0.75
		s0.75,0.336,0.75,0.75c0,0.813,0.996,1.5,2.175,1.5s2.175-0.687,2.175-1.5c0-0.414,0.336-0.75,0.75-0.75s0.75,0.336,0.75,0.75
		c0,0.813,0.996,1.5,2.175,1.5s2.175-0.687,2.175-1.5c0-0.396,0.31-0.725,0.706-0.749c0.014-0.001,0.031-0.002,0.048-0.002
		c0.377,0,0.696,0.284,0.741,0.661c0.105,0.885,0.857,1.568,1.748,1.589c0.413,0.01,0.742,0.354,0.732,0.767
		C23.991,21.672,23.655,22,23.251,22c-0.961-0.022-1.863-0.466-2.47-1.187C20.093,21.556,19.017,22,17.85,22
		c-1.16,0-2.236-0.443-2.925-1.182C14.237,21.557,13.161,22,12,22c-1.16,0-2.237-0.443-2.925-1.182C8.387,21.557,7.311,22,6.15,22
		c-1.166,0-2.242-0.445-2.93-1.187C2.613,21.534,1.714,21.978,0.768,22C0.765,22,0.75,22.001,0.748,22.001z"/>
</g>
</svg>
