<?xml version="1.0" encoding="utf-8"?>
<!-- Generator: Adobe Illustrator 22.1.0, SVG Export Plug-In . SVG Version: 6.00 Build 0)  -->
<svg version="1.1" id="Layer_1" xmlns="http://www.w3.org/2000/svg" xmlns:xlink="http://www.w3.org/1999/xlink" x="0px" y="0px"
	 viewBox="0 0 24 24" style="enable-background:new 0 0 24 24;" xml:space="preserve">
<title>building</title>
<g>
	<path d="M0.75,24C0.336,24,0,23.664,0,23.25V1.75C0,0.785,0.785,0,1.75,0h20.5C23.215,0,24,0.785,24,1.75v21.5
		c0,0.414-0.336,0.75-0.75,0.75H0.75z M22.5,22.5V21H15v1.5H22.5z M13.5,22.5v-21H1.75C1.612,1.5,1.5,1.612,1.5,1.75V22.5H13.5z
		 M22.5,19.5V18H15v1.5H22.5z M22.5,16.5V1.75c0-0.138-0.112-0.25-0.25-0.25H15v15h1.5v-5.25c0-1.241,1.009-2.25,2.25-2.25
		S21,10.009,21,11.25v5.25H22.5z M19.5,16.5v-5.25c0-0.414-0.336-0.75-0.75-0.75S18,10.836,18,11.25v5.25H19.5z"/>
	<path d="M18.75,6.375c-0.044,0-0.088-0.004-0.131-0.011c-0.513-0.06-0.922-0.47-0.982-0.983c-0.008-0.042-0.011-0.086-0.011-0.13
		s0.004-0.088,0.011-0.13c0.06-0.513,0.47-0.923,0.982-0.983c0.043-0.008,0.087-0.011,0.131-0.011s0.088,0.004,0.131,0.011
		c0.513,0.06,0.922,0.47,0.983,0.983c0.007,0.042,0.011,0.086,0.011,0.13s-0.004,0.088-0.011,0.13
		c-0.061,0.513-0.47,0.923-0.983,0.983C18.838,6.371,18.794,6.375,18.75,6.375z"/>
	<path d="M8.25,10.5c-0.414,0-0.75-0.336-0.75-0.75v-4.5C7.5,4.009,8.509,3,9.75,3S12,4.009,12,5.25v4.5
		c0,0.414-0.336,0.75-0.75,0.75H8.25z M10.5,9V5.25c0-0.414-0.336-0.75-0.75-0.75S9,4.836,9,5.25V9H10.5z"/>
	<path d="M8.25,21c-0.414,0-0.75-0.336-0.75-0.75v-4.5c0-1.241,1.009-2.25,2.25-2.25S12,14.509,12,15.75v4.5
		c0,0.414-0.336,0.75-0.75,0.75H8.25z M10.5,19.5v-3.75c0-0.414-0.336-0.75-0.75-0.75S9,15.336,9,15.75v3.75H10.5z"/>
	<path d="M3.75,10.5C3.336,10.5,3,10.164,3,9.75S3.336,9,3.75,9H4.5V5.25c0-0.414-0.336-0.75-0.75-0.75S3,4.164,3,3.75
		S3.336,3,3.75,3C4.991,3,6,4.009,6,5.25v4.5c0,0.414-0.336,0.75-0.75,0.75H3.75z"/>
	<path d="M3.75,21C3.336,21,3,20.664,3,20.25s0.336-0.75,0.75-0.75H4.5v-3.75C4.5,15.336,4.164,15,3.75,15S3,14.664,3,14.25
		s0.336-0.75,0.75-0.75C4.991,13.5,6,14.509,6,15.75v4.5C6,20.664,5.664,21,5.25,21H3.75z"/>
</g>
</svg>
