<?xml version="1.0" encoding="utf-8"?>
<!-- Generator: Adobe Illustrator 22.1.0, SVG Export Plug-In . SVG Version: 6.00 Build 0)  -->
<svg version="1.1" id="Layer_1" xmlns="http://www.w3.org/2000/svg" xmlns:xlink="http://www.w3.org/1999/xlink" x="0px" y="0px"
	 viewBox="0 0 24 24" style="enable-background:new 0 0 24 24;" xml:space="preserve">
<title>building-modern-1</title>
<g>
	<path d="M23.25,24c-0.414,0-0.75-0.336-0.75-0.75V19.5H15v3.75c0,0.414-0.336,0.75-0.75,0.75s-0.75-0.336-0.75-0.75v-12
		c0-1.086,0.771-2.006,1.821-2.208l2.805-4.208c0.135-0.203,0.368-0.324,0.624-0.324s0.489,0.121,0.624,0.324l2.805,4.208
		C23.229,9.244,24,10.164,24,11.25v12C24,23.664,23.664,24,23.25,24z M22.5,18v-3H15v3H22.5z M22.5,13.5v-2.25
		c0-0.414-0.336-0.75-0.75-0.75h-6c-0.414,0-0.75,0.336-0.75,0.75v2.25H22.5z M20.349,9L18.75,6.602L17.151,9H20.349z"/>
	<path d="M11.228,23.999c-0.048-0.001-0.094-0.007-0.14-0.017c-0.014-0.003-0.04-0.01-0.053-0.015
		c-0.024-0.007-0.055-0.017-0.085-0.03c-0.011-0.004-0.021-0.009-0.031-0.013l-9.42-4.71v4.036C1.5,23.664,1.164,24,0.75,24
		S0,23.664,0,23.25v-18c0-0.219,0.096-0.427,0.262-0.57l5.25-4.5C5.648,0.064,5.821,0,6,0s0.352,0.064,0.488,0.181l5.25,4.5
		C11.904,4.823,12,5.031,12,5.25v18c0,0.011-0.001,0.025-0.002,0.038c-0.001,0.02-0.003,0.04-0.006,0.061
		c-0.005,0.033-0.008,0.053-0.013,0.073c-0.005,0.02-0.011,0.042-0.019,0.063c-0.008,0.025-0.016,0.044-0.023,0.062
		c-0.005,0.013-0.011,0.027-0.016,0.038c-0.007,0.014-0.016,0.029-0.026,0.043c-0.022,0.038-0.049,0.076-0.08,0.111
		c-0.006,0.007-0.024,0.028-0.03,0.034c-0.035,0.037-0.083,0.076-0.135,0.109c-0.01,0.006-0.031,0.018-0.042,0.024
		c-0.037,0.021-0.083,0.041-0.131,0.056c-0.007,0.002-0.036,0.011-0.042,0.013C11.371,23.992,11.31,24,11.25,24
		C11.243,24,11.235,24,11.228,23.999z M10.5,22.037v-8.073L2.427,18L10.5,22.037z M1.5,16.787l8.073-4.036L1.5,8.714V16.787z
		 M10.5,11.537V6.75h-9v0.286L10.5,11.537z M10.098,5.25L6,1.738L1.902,5.25H10.098z"/>
</g>
</svg>
