<?xml version="1.0" encoding="utf-8"?>
<!-- Generator: Adobe Illustrator 22.1.0, SVG Export Plug-In . SVG Version: 6.00 Build 0)  -->
<svg version="1.1" id="Layer_1" xmlns="http://www.w3.org/2000/svg" xmlns:xlink="http://www.w3.org/1999/xlink" x="0px" y="0px"
	 viewBox="0 0 24 24" style="enable-background:new 0 0 24 24;" xml:space="preserve">
<title>building-flag</title>
<g>
	<path d="M0.75,24C0.336,24,0,23.664,0,23.25s0.336-0.75,0.75-0.75H1.5V18H0.75C0.336,18,0,17.664,0,17.25s0.336-0.75,0.75-0.75H1.5
		v-3H0.75C0.336,13.5,0,13.164,0,12.75S0.336,12,0.75,12H4.5V7.5H3.75C3.336,7.5,3,7.164,3,6.75S3.336,6,3.75,6h6.75V0.75
		C10.5,0.336,10.836,0,11.25,0h4c0.689,0,1.25,0.561,1.25,1.25v2c0,0.689-0.561,1.25-1.25,1.25H12V6h8.25C20.664,6,21,6.336,21,6.75
		S20.664,7.5,20.25,7.5H19.5V12h3.75c0.414,0,0.75,0.336,0.75,0.75s-0.336,0.75-0.75,0.75H22.5v3h0.75c0.414,0,0.75,0.336,0.75,0.75
		S23.664,18,23.25,18H22.5v4.5h0.75c0.414,0,0.75,0.336,0.75,0.75S23.664,24,23.25,24H0.75z M21,22.5V18h-1.5v4.5H21z M18,22.5V18H6
		v4.5H18z M4.5,22.5V18H3v4.5H4.5z M21,16.5v-3h-1.5v3H21z M18,16.5v-9H6v9H18z M4.5,16.5v-3H3v3H4.5z M15,3V1.5h-3V3H15z"/>
	<path d="M9.75,11.25C9.336,11.25,9,10.914,9,10.5V9.75C9,9.336,9.336,9,9.75,9s0.75,0.336,0.75,0.75v0.75
		C10.5,10.914,10.164,11.25,9.75,11.25z"/>
	<path d="M9.75,15C9.336,15,9,14.664,9,14.25V13.5c0-0.414,0.336-0.75,0.75-0.75s0.75,0.336,0.75,0.75v0.75
		C10.5,14.664,10.164,15,9.75,15z"/>
	<path d="M14.25,11.25c-0.414,0-0.75-0.336-0.75-0.75V9.75C13.5,9.336,13.836,9,14.25,9S15,9.336,15,9.75v0.75
		C15,10.914,14.664,11.25,14.25,11.25z"/>
	<path d="M14.25,15c-0.414,0-0.75-0.336-0.75-0.75V13.5c0-0.414,0.336-0.75,0.75-0.75S15,13.086,15,13.5v0.75
		C15,14.664,14.664,15,14.25,15z"/>
	<path d="M9.75,21C9.336,21,9,20.664,9,20.25V19.5c0-0.414,0.336-0.75,0.75-0.75s0.75,0.336,0.75,0.75v0.75
		C10.5,20.664,10.164,21,9.75,21z"/>
	<path d="M14.25,21c-0.414,0-0.75-0.336-0.75-0.75V19.5c0-0.414,0.336-0.75,0.75-0.75S15,19.086,15,19.5v0.75
		C15,20.664,14.664,21,14.25,21z"/>
</g>
</svg>
