<?xml version="1.0" encoding="utf-8"?>
<!-- Generator: Adobe Illustrator 22.1.0, SVG Export Plug-In . SVG Version: 6.00 Build 0)  -->
<svg version="1.1" id="Layer_1" xmlns="http://www.w3.org/2000/svg" xmlns:xlink="http://www.w3.org/1999/xlink" x="0px" y="0px"
	 viewBox="0 0 24 24" style="enable-background:new 0 0 24 24;" xml:space="preserve">
<title>bus-1</title>
<g>
	<path d="M6,15.338c-0.044,0-0.088-0.004-0.13-0.011c-0.513-0.06-0.923-0.47-0.983-0.982c-0.008-0.043-0.011-0.087-0.011-0.131
		s0.004-0.088,0.011-0.131c0.06-0.513,0.47-0.922,0.983-0.983c0.042-0.007,0.086-0.011,0.13-0.011s0.088,0.004,0.13,0.011
		c0.513,0.061,0.923,0.47,0.983,0.983c0.008,0.043,0.011,0.087,0.011,0.131s-0.004,0.088-0.011,0.131
		c-0.06,0.513-0.47,0.922-0.983,0.982C6.088,15.334,6.044,15.338,6,15.338z"/>
	<path d="M18,15.338c-0.044,0-0.088-0.004-0.13-0.011c-0.513-0.06-0.923-0.47-0.983-0.983c-0.007-0.042-0.011-0.086-0.011-0.13
		s0.004-0.088,0.011-0.131c0.06-0.513,0.47-0.923,0.983-0.983c0.042-0.008,0.086-0.011,0.131-0.011s0.088,0.004,0.131,0.011
		c0.513,0.06,0.923,0.47,0.983,0.983c0.008,0.042,0.011,0.086,0.011,0.131s-0.004,0.088-0.011,0.131
		c-0.06,0.513-0.47,0.923-0.983,0.983C18.088,15.334,18.044,15.338,18,15.338z"/>
	<path d="M10.5,14.963c-0.414,0-0.75-0.336-0.75-0.75s0.336-0.75,0.75-0.75h3c0.414,0,0.75,0.336,0.75,0.75s-0.336,0.75-0.75,0.75
		H10.5z"/>
	<path d="M19.5,23.963c-1.241,0-2.25-1.009-2.25-2.25v-0.75H6.75v0.75c0,1.241-1.009,2.25-2.25,2.25s-2.25-1.009-2.25-2.25v-0.879
		c-0.885-0.313-1.5-1.161-1.5-2.121s0.615-1.808,1.5-2.121v-3.379c0-1.045,0.581-1.98,1.5-2.447V5.963H3
		c-0.414,0-0.75,0.336-0.75,0.75v3c0,0.414-0.336,0.75-0.75,0.75s-0.75-0.336-0.75-0.75v-3c0-1.241,1.009-2.25,2.25-2.25h0.75v-0.75
		c0-2.068,1.682-3.75,3.75-3.75h9c2.068,0,3.75,1.682,3.75,3.75v0.75H21c1.241,0,2.25,1.009,2.25,2.25v3
		c0,0.414-0.336,0.75-0.75,0.75s-0.75-0.336-0.75-0.75v-3c0-0.414-0.336-0.75-0.75-0.75h-0.75v4.803
		c0.919,0.468,1.5,1.403,1.5,2.447v3.379c0.885,0.314,1.5,1.162,1.5,2.121s-0.615,1.808-1.5,2.121v0.879
		C21.75,22.954,20.741,23.963,19.5,23.963z M18.75,21.713c0,0.414,0.336,0.75,0.75,0.75s0.75-0.336,0.75-0.75v-0.75h-1.5V21.713z
		 M3.75,21.713c0,0.414,0.336,0.75,0.75,0.75s0.75-0.336,0.75-0.75v-0.75h-1.5V21.713z M3,17.963c-0.414,0-0.75,0.336-0.75,0.75
		s0.336,0.75,0.75,0.75h18c0.414,0,0.75-0.336,0.75-0.75s-0.336-0.75-0.75-0.75H3z M20.25,16.463v-3.25
		c0-0.689-0.561-1.25-1.25-1.25H5c-0.689,0-1.25,0.561-1.25,1.25v3.25H20.25z M18.75,10.463v-6h-6v6H18.75z M11.25,10.463v-6h-6v6
		H11.25z M18.618,2.963c-0.313-0.879-1.158-1.5-2.118-1.5h-9c-0.96,0-1.805,0.621-2.118,1.5H18.618z"/>
</g>
</svg>
