<?xml version="1.0" encoding="utf-8"?>
<!-- Generator: Adobe Illustrator 22.1.0, SVG Export Plug-In . SVG Version: 6.00 Build 0)  -->
<svg version="1.1" id="Layer_1" xmlns="http://www.w3.org/2000/svg" xmlns:xlink="http://www.w3.org/1999/xlink" x="0px" y="0px"
	 viewBox="0 0 24 24" style="enable-background:new 0 0 24 24;" xml:space="preserve">
<title>bus-ticket</title>
<g>
	<path d="M6.75,23.961c-1.241,0-2.25-1.009-2.25-2.25v-1.5C3.557,19.502,3,18.396,3,17.213V5.963H2.25
		c-0.414,0-0.75,0.336-0.75,0.75v3c0,0.414-0.336,0.75-0.75,0.75S0,10.126,0,9.713v-3c0-1.241,1.009-2.25,2.25-2.25H3v-0.75
		c0-2.068,1.682-3.75,3.75-3.75h10.5c2.068,0,3.75,1.682,3.75,3.75v0.75h0.75c1.241,0,2.25,1.009,2.25,2.25v3
		c0,0.414-0.336,0.75-0.75,0.75s-0.75-0.336-0.75-0.75v-3c0-0.414-0.336-0.75-0.75-0.75H21v5.25c0,0.414-0.336,0.75-0.75,0.75
		s-0.75-0.336-0.75-0.75v-7.5c0-1.241-1.009-2.25-2.25-2.25H6.75c-1.241,0-2.25,1.009-2.25,2.25v9.75h3.75
		c0.414,0,0.75,0.336,0.75,0.75s-0.336,0.75-0.75,0.75H4.5v2.25c0,1.241,1.009,2.25,2.25,2.25h1.462
		c0.013-0.001,0.027-0.002,0.038-0.002c0.414,0,0.75,0.336,0.75,0.75v1.5C9,22.952,7.991,23.961,6.75,23.961z M6,21.711
		c0,0.414,0.336,0.75,0.75,0.75s0.75-0.336,0.75-0.75v-0.748H6.75c-0.251,0-0.502-0.026-0.75-0.078V21.711z"/>
	<path d="M6.75,17.963c-0.414,0-0.75-0.336-0.75-0.75s0.336-0.75,0.75-0.75h1.5c0.414,0,0.75,0.336,0.75,0.75s-0.336,0.75-0.75,0.75
		H6.75z"/>
	<path d="M9.75,4.463C9.336,4.463,9,4.126,9,3.713s0.336-0.75,0.75-0.75h4.5c0.414,0,0.75,0.336,0.75,0.75s-0.336,0.75-0.75,0.75
		H9.75z"/>
	<path d="M12.75,23.963c-1.241,0-2.25-1.009-2.25-2.25v-6c0-1.241,1.009-2.25,2.25-2.25h9c1.241,0,2.25,1.009,2.25,2.25v6
		c0,1.241-1.009,2.25-2.25,2.25H12.75z M12,21.713c0,0.414,0.336,0.75,0.75,0.75h9c0.414,0,0.75-0.336,0.75-0.75v-3.75H12V21.713z
		 M22.5,16.463v-0.75c0-0.414-0.336-0.75-0.75-0.75h-9c-0.414,0-0.75,0.336-0.75,0.75v0.75H22.5z"/>
	<path d="M14.25,20.963c-0.414,0-0.75-0.336-0.75-0.75s0.336-0.75,0.75-0.75h2.25c0.414,0,0.75,0.336,0.75,0.75
		s-0.336,0.75-0.75,0.75H14.25z"/>
</g>
</svg>
