<?xml version="1.0" encoding="utf-8"?>
<!-- Generator: Adobe Illustrator 22.1.0, SVG Export Plug-In . SVG Version: 6.00 Build 0)  -->
<svg version="1.1" id="Layer_1" xmlns="http://www.w3.org/2000/svg" xmlns:xlink="http://www.w3.org/1999/xlink" x="0px" y="0px"
	 viewBox="0 0 24 24" style="enable-background:new 0 0 24 24;" xml:space="preserve">
<title>bus-double-1</title>
<g>
	<path d="M18.75,23.963c-0.96,0-1.808-0.615-2.121-1.5H7.372c-0.314,0.885-1.162,1.5-2.121,1.5c-0.982,0-1.842-0.639-2.139-1.554
		c-1.792-0.305-3.112-1.85-3.112-3.696c0-2.068,1.682-3.75,3.75-3.75H4.5V2.713c0-1.516,1.234-2.75,2.75-2.75h15
		c0.965,0,1.75,0.785,1.75,1.75v14c0,0.009,0,0.019-0.001,0.03v4.47c0,1.241-1.009,2.25-2.25,2.25h-0.877
		C20.558,23.348,19.71,23.963,18.75,23.963z M18.75,20.963c-0.414,0-0.75,0.336-0.75,0.75s0.336,0.75,0.75,0.75
		c0.406,0,0.74-0.327,0.749-0.733c0-0.006,0-0.03,0-0.036C19.49,21.29,19.156,20.963,18.75,20.963z M5.25,20.963
		c-0.414,0-0.75,0.336-0.75,0.75s0.336,0.75,0.75,0.75S6,22.126,6,21.713S5.664,20.963,5.25,20.963z M21.749,20.963
		c0.414,0,0.75-0.336,0.75-0.75v-3.75H3.749c-1.241,0-2.25,1.009-2.25,2.25c0,1.024,0.695,1.908,1.661,2.169
		c0.336-0.84,1.164-1.419,2.09-1.419c0.96,0,1.808,0.615,2.121,1.5h9.257c0.314-0.885,1.162-1.5,2.121-1.5s1.808,0.615,2.121,1.5
		H21.749z M22.5,14.963v-1.5H6v1.5H22.5z M22.5,11.963v-3h-3v3H22.5z M18,11.963v-3h-3v3H18z M13.5,11.963v-3h-3v3H13.5z M9,11.963
		v-3H6v3H9z M22.5,7.463v-1.5H6v1.5H22.5z M22.5,4.463v-2.75c0-0.138-0.112-0.25-0.25-0.25H19.5v3H22.5z M18,4.463v-3h-3v3H18z
		 M13.5,4.463v-3h-3v3H13.5z M9,4.463v-3H7.25C6.561,1.463,6,2.024,6,2.713v1.75H9z"/>
	<path d="M8.25,19.463c-0.414,0-0.75-0.336-0.75-0.75s0.336-0.75,0.75-0.75h7.5c0.414,0,0.75,0.336,0.75,0.75s-0.336,0.75-0.75,0.75
		H8.25z"/>
</g>
</svg>
