<?xml version="1.0" encoding="utf-8"?>
<!-- Generator: Adobe Illustrator 22.1.0, SVG Export Plug-In . SVG Version: 6.00 Build 0)  -->
<svg version="1.1" id="Layer_1" xmlns="http://www.w3.org/2000/svg" xmlns:xlink="http://www.w3.org/1999/xlink" x="0px" y="0px"
	 viewBox="0 0 24 24" style="enable-background:new 0 0 24 24;" xml:space="preserve">
<title>business-lucky-cat</title>
<g>
	<circle cx="10.125" cy="7.875" r="1.125"/>
	<path d="M12,18.75c-1.447,0-2.625-1.177-2.625-2.625S10.553,13.5,12,13.5c1.448,0,2.625,1.177,2.625,2.625S13.448,18.75,12,18.75z
		 M12,15c-0.62,0-1.125,0.505-1.125,1.125S11.38,17.25,12,17.25s1.125-0.505,1.125-1.125S12.62,15,12,15z"/>
	<circle cx="13.875" cy="7.875" r="1.125"/>
	<path d="M12,23.939c-5.551,0-9-2.348-9-6.129c0.016-0.603,0.083-1.205,0.202-1.8c-1.852-0.897-3.069-2.698-3.201-4.771L0,8.941
		c0.011-0.879,0.324-1.73,0.881-2.401c0.652-0.784,1.57-1.268,2.585-1.362c0.119-0.011,0.237-0.016,0.355-0.016
		c0.628,0,1.239,0.153,1.788,0.447C5.821,5.158,6,4.167,6,1.609c0-0.364,0.125-0.72,0.352-1.004
		c0.307-0.383,0.765-0.603,1.257-0.603c0.363,0,0.72,0.125,1.003,0.352c0.038,0.031,0.074,0.065,0.105,0.102L9.96,1.932
		c0.663-0.18,1.345-0.275,2.033-0.282c0.7,0.006,1.388,0.1,2.052,0.28l1.237-1.473c0.031-0.037,0.066-0.072,0.105-0.103
		c0.285-0.228,0.642-0.353,1.005-0.353C17.279,0.001,18,0.722,18,1.609c0,3.672,0.377,4.068,0.627,4.331
		C19.231,6.574,19.5,7.266,19.5,9.691c0,0.566-0.121,1.094-0.361,1.576c1.037,0.073,2.013,0.447,2.841,1.094
		c1.106,0.863,1.809,2.105,1.98,3.496C23.987,16.069,24,16.285,24,16.5v2.191c0,1.654-1.346,3-3,3h-1.679
		C17.747,23.162,15.22,23.939,12,23.939z M6.204,12.765c-1.054,1.472-1.657,3.256-1.704,5.064c0,3.396,3.875,4.609,7.5,4.609
		c2.879,0,5.239-0.737,6.474-2.021c0.682-0.71,1.026-1.587,1.026-2.608c-0.046-1.794-0.647-3.575-1.701-5.046
		c-0.298,0.207-0.631,0.392-0.995,0.554c-1.714,0.76-3.746,0.874-4.804,0.874s-3.09-0.114-4.804-0.874
		C6.833,13.156,6.501,12.971,6.204,12.765z M21,20.191c0.827,0,1.5-0.673,1.5-1.5V16.5c0-0.152-0.01-0.307-0.028-0.459
		c-0.122-0.994-0.624-1.881-1.414-2.497c-0.426-0.333-0.91-0.565-1.426-0.688c0.853,1.51,1.323,3.2,1.368,4.936
		c0,0.873-0.184,1.676-0.547,2.4H21z M3.821,6.662c-0.072,0-0.144,0.003-0.216,0.01C2.988,6.729,2.43,7.023,2.035,7.499
		C1.697,7.906,1.507,8.421,1.5,8.95v2.24c0.09,1.391,0.887,2.644,2.109,3.339c0.36-1.018,0.867-1.965,1.513-2.824
		C4.709,11.112,4.5,10.435,4.5,9.691c0-1.36,0.086-2.22,0.289-2.814C4.486,6.735,4.156,6.662,3.821,6.662z M6.314,7.143
		C6.164,7.362,6,7.873,6,9.691c0,1.384,1.571,3,6,3c4.429,0,6-1.616,6-3c0-2.234-0.233-2.48-0.459-2.717
		C17.005,6.411,16.5,5.88,16.5,1.609c0-0.06-0.049-0.108-0.108-0.108c-0.011,0-0.022,0.002-0.033,0.005l-1.485,1.768
		c-0.142,0.17-0.352,0.268-0.574,0.268c-0.083,0-0.164-0.014-0.243-0.04c-0.666-0.227-1.36-0.346-2.064-0.352
		c-0.691,0.007-1.381,0.126-2.046,0.354C9.87,3.53,9.788,3.544,9.705,3.544c-0.222,0-0.431-0.097-0.574-0.267l-1.49-1.771
		C7.629,1.502,7.617,1.501,7.608,1.501c-0.016,0-0.056,0.004-0.085,0.04C7.509,1.56,7.5,1.585,7.5,1.609
		c0,4.281-0.506,4.809-1.043,5.368c-0.02,0.021-0.04,0.042-0.059,0.063C6.385,7.06,6.371,7.079,6.356,7.098
		C6.342,7.114,6.328,7.129,6.314,7.143z"/>
</g>
</svg>
