<?xml version="1.0" encoding="utf-8"?>
<!-- Generator: Adobe Illustrator 22.1.0, SVG Export Plug-In . SVG Version: 6.00 Build 0)  -->
<svg version="1.1" id="Layer_1" xmlns="http://www.w3.org/2000/svg" xmlns:xlink="http://www.w3.org/1999/xlink" x="0px" y="0px"
	 viewBox="0 0 24 24" style="enable-background:new 0 0 24 24;" xml:space="preserve">
<title>business-piggy-bank-broken</title>
<g>
	<path d="M8.625,7.494C8.005,7.494,7.5,6.99,7.5,6.369C7.501,5.75,8.005,5.246,8.623,5.244c0.622,0,1.127,0.505,1.127,1.125
		S9.245,7.494,8.625,7.494z"/>
	<path d="M3.375,23.994C1.451,23.994,0,23.027,0,21.744s1.451-2.25,3.375-2.25s3.375,0.967,3.375,2.25S5.299,23.994,3.375,23.994z
		 M3.375,20.994c-1.218,0-1.875,0.532-1.875,0.75s0.657,0.75,1.875,0.75s1.875-0.532,1.875-0.75S4.593,20.994,3.375,20.994z"/>
	<path d="M20.625,23.994c-1.924,0-3.375-0.967-3.375-2.25s1.451-2.25,3.375-2.25S24,20.462,24,21.744S22.549,23.994,20.625,23.994z
		 M20.625,20.994c-1.218,0-1.875,0.532-1.875,0.75s0.657,0.75,1.875,0.75s1.875-0.532,1.875-0.75S21.843,20.994,20.625,20.994z"/>
	<path d="M12.375,23.244c-1.924,0-3.375-0.967-3.375-2.25s1.451-2.25,3.375-2.25s3.375,0.967,3.375,2.25
		S14.299,23.244,12.375,23.244z M12.375,20.244c-1.218,0-1.875,0.532-1.875,0.75s0.657,0.75,1.875,0.75
		c1.218,0,1.875-0.532,1.875-0.75S13.593,20.244,12.375,20.244z"/>
	<path d="M0.75,17.994c-0.414,0-0.75-0.336-0.75-0.75s0.336-0.75,0.75-0.75H7.5v-2.662c-1.068-0.662-1.983-1.551-2.667-2.588H3
		c-0.414,0-0.75-0.336-0.75-0.75v-3c0-0.414,0.336-0.75,0.75-0.75h1.305C4.762,5.1,5.778,3.7,7.199,2.753
		C7.024,2.338,6.711,1.988,6.314,1.772c-0.24-0.13-0.39-0.381-0.392-0.654s0.145-0.525,0.383-0.659
		C6.855,0.151,7.476-0.013,8.1-0.013c1.086,0,2.119,0.491,2.809,1.324c0.548-0.089,1.106-0.135,1.661-0.135
		c0.157,0,0.315,0.004,0.472,0.011c0.232,0.011,0.449,0.131,0.581,0.321c0.133,0.191,0.169,0.436,0.099,0.657l-1.334,4.169
		l2.769,2.076c0.314,0.235,0.393,0.678,0.18,1.008l-3.457,5.332c-0.139,0.214-0.374,0.342-0.629,0.342
		c-0.025,0-0.049-0.001-0.074-0.004C10.433,15.014,9.704,14.841,9,14.574v1.92h9.75v-2.021c-1.026,0.352-2.111,0.529-3.234,0.529
		c-0.035,0-0.068-0.002-0.102-0.005c-0.266-0.007-0.51-0.155-0.638-0.389c-0.133-0.241-0.124-0.534,0.023-0.764l3.097-4.867
		l-1.752-1.752c-0.406-0.401-0.483-1.026-0.186-1.518l2.248-3.745c0.135-0.225,0.382-0.364,0.644-0.364
		c0.093,0,0.184,0.017,0.271,0.051c2.967,1.148,4.884,3.638,4.884,6.343c0,2.348-1.399,4.507-3.754,5.816v2.687h3
		c0.414,0,0.75,0.336,0.75,0.75s-0.336,0.75-0.75,0.75H0.75z M8.715,12.802c0.686,0.363,1.412,0.61,2.164,0.735l2.818-4.346
		l-2.358-1.768c-0.422-0.317-0.597-0.867-0.436-1.369l1.075-3.357c-0.418,0.028-0.834,0.086-1.243,0.173
		c-0.051,0.011-0.104,0.017-0.156,0.017c-0.26,0-0.505-0.138-0.641-0.36C9.559,1.906,8.916,1.524,8.2,1.491
		c0.317,0.442,0.529,0.954,0.613,1.493c0.049,0.31-0.103,0.62-0.378,0.772c-1.47,0.813-2.49,2.225-2.798,3.876
		C5.571,7.987,5.261,8.244,4.9,8.244H3.75v1.5h1.5c0.265,0,0.513,0.142,0.647,0.37c0.623,1.061,1.521,1.948,2.6,2.568
		C8.576,12.71,8.649,12.751,8.715,12.802z M19.104,8.064c0.409,0.407,0.48,1.056,0.168,1.543l-2.413,3.792
		c0.788-0.121,1.538-0.349,2.237-0.681c0.049-0.031,0.101-0.056,0.156-0.075c2.036-1.022,3.251-2.759,3.251-4.652
		c0-1.886-1.305-3.7-3.35-4.694l-1.806,3.01L19.104,8.064z"/>
</g>
</svg>
