<?xml version="1.0" encoding="utf-8"?>
<!-- Generator: Adobe Illustrator 22.1.0, SVG Export Plug-In . SVG Version: 6.00 Build 0)  -->
<svg version="1.1" id="Layer_1" xmlns="http://www.w3.org/2000/svg" xmlns:xlink="http://www.w3.org/1999/xlink" x="0px" y="0px"
	 viewBox="0 0 24 24" style="enable-background:new 0 0 24 24;" xml:space="preserve">
<title>business-deal-negotiate</title>
<g>
	<path d="M2.25,24c-0.414,0-0.75-0.336-0.75-0.75V21c0-0.414,0.336-0.75,0.75-0.75h1.285c0.946,0,1.715-0.769,1.715-1.715V15.75
		C5.25,15.336,5.586,15,6,15h1.151c-0.147-0.383-0.29-0.762-0.431-1.134C5.175,9.773,3.954,6.54,0.574,5.723
		C0.379,5.676,0.214,5.556,0.11,5.385C0.005,5.214-0.026,5.013,0.021,4.818C0.102,4.48,0.402,4.244,0.749,4.244
		c0.06,0,0.12,0.007,0.178,0.021c4.15,1.003,5.562,4.741,7.197,9.07c0.267,0.706,0.536,1.42,0.823,2.135
		c0.093,0.231,0.064,0.493-0.075,0.699c-0.14,0.207-0.372,0.33-0.621,0.33h-1.5v2.035c0,1.773-1.442,3.215-3.215,3.215H3v1.5
		C3,23.664,2.663,24,2.25,24z"/>
	<path d="M21.75,24C21.336,24,21,23.664,21,23.25v-1.5h-0.536c-1.772,0-3.214-1.443-3.214-3.215V16.5h-1.5
		c-0.249,0-0.481-0.123-0.621-0.329c-0.14-0.206-0.168-0.468-0.075-0.699c0.289-0.724,0.56-1.44,0.821-2.132
		c1.635-4.331,3.047-8.072,7.199-9.075c0.057-0.014,0.117-0.021,0.177-0.021c0.347,0,0.647,0.236,0.728,0.574
		c0.097,0.402-0.151,0.808-0.553,0.905c-3.382,0.817-4.603,4.052-6.148,8.147l-0.018,0.047c-0.135,0.356-0.271,0.718-0.412,1.083H18
		c0.414,0,0.75,0.336,0.75,0.75v2.785c0,0.945,0.769,1.715,1.715,1.715h1.285c0.414,0,0.75,0.336,0.75,0.75v2.25
		C22.5,23.664,22.163,24,21.75,24z"/>
	<path d="M10.5,11.25c-0.111,0-0.224-0.026-0.324-0.074C9.916,11.052,9.75,10.786,9.75,10.5V8.25h-1.5c-0.827,0-1.5-0.673-1.5-1.5
		V1.5c0-0.827,0.673-1.5,1.5-1.5h8.25C17.327,0,18,0.673,18,1.5v5.25c0,0.827-0.673,1.5-1.5,1.5h-1.987l-3.545,2.836
		C10.836,11.192,10.669,11.25,10.5,11.25z M8.25,6.75h2.25c0.414,0,0.75,0.336,0.75,0.75v1.439l2.531-2.025
		C13.914,6.808,14.08,6.75,14.25,6.75h2.25V1.5H8.25V6.75z"/>
</g>
</svg>
