<?xml version="1.0" encoding="utf-8"?>
<!-- Generator: Adobe Illustrator 22.1.0, SVG Export Plug-In . SVG Version: 6.00 Build 0)  -->
<svg version="1.1" id="Layer_1" xmlns="http://www.w3.org/2000/svg" xmlns:xlink="http://www.w3.org/1999/xlink" x="0px" y="0px"
	 viewBox="0 0 24 24" style="enable-background:new 0 0 24 24;" xml:space="preserve">
<title>business-paper-boat</title>
<g>
	<path d="M4.84,19.778c-0.582,0-1.123-0.214-1.538-0.603c-0.005-0.005-0.026-0.025-0.031-0.031c-0.009-0.009-0.018-0.02-0.027-0.031
		c-0.259-0.26-0.453-0.581-0.561-0.929L0.447,9.672c-0.1-0.378-0.049-0.774,0.142-1.115c0.196-0.349,0.516-0.601,0.902-0.709
		c0.133-0.037,0.27-0.057,0.407-0.057c0.255,0,0.508,0.067,0.732,0.193l4.122,2.303l4.039-5.208c0.076-0.098,0.164-0.185,0.26-0.261
		c0.267-0.209,0.586-0.319,0.922-0.319c0.062,0,0.125,0.004,0.187,0.012c0.397,0.049,0.752,0.25,0.999,0.566l4.057,5.2l4.105-2.294
		c0.222-0.125,0.475-0.191,0.73-0.191c0.542,0,1.044,0.293,1.309,0.765c0.192,0.342,0.243,0.739,0.142,1.117l-2.222,8.479
		c-0.114,0.37-0.31,0.696-0.573,0.96c-0.013,0.018-0.032,0.041-0.057,0.064c-0.414,0.387-0.955,0.601-1.522,0.601H4.84z
		 M5.971,18.278h12.009l-6.004-3.355L5.971,18.278z M19.871,17.616l2.181-8.324l-8.539,4.771L19.871,17.616z M4.084,17.613
		l6.354-3.55l-8.54-4.772L4.084,17.613z M11.975,13.205l3.916-2.188l-3.914-5.018l-0.002,0l-3.898,5.028L11.975,13.205z"/>
</g>
</svg>
