<?xml version="1.0" encoding="utf-8"?>
<!-- Generator: Adobe Illustrator 22.1.0, SVG Export Plug-In . SVG Version: 6.00 Build 0)  -->
<svg version="1.1" id="Layer_1" xmlns="http://www.w3.org/2000/svg" xmlns:xlink="http://www.w3.org/1999/xlink" x="0px" y="0px"
	 viewBox="0 0 24 24" style="enable-background:new 0 0 24 24;" xml:space="preserve">
<title>business-message-bottle</title>
<g>
	<path d="M16.914,19.466c-0.056,0-0.113-0.007-0.173-0.022c-0.945-0.058-1.937-0.244-3.031-0.57
		c-0.06-0.011-0.114-0.028-0.165-0.051c-1.09-0.335-2.116-0.753-3.022-1.121c-1.504-0.612-2.802-1.14-3.775-1.14
		c-2.044,0-3.998,0.732-5.503,2.062c-0.137,0.121-0.314,0.188-0.497,0.188l0,0c-0.215,0-0.42-0.092-0.562-0.253
		c-0.133-0.15-0.199-0.343-0.186-0.543c0.012-0.2,0.102-0.383,0.252-0.516c1.78-1.572,4.068-2.438,6.443-2.438l0.056,0
		c0.313,0,0.655,0.038,1.038,0.116l4.099-8.359c0.621-1.265,1.819-2.176,3.203-2.438c0.923-0.175,1.721-0.783,2.134-1.627
		l1.157-2.357c0.127-0.259,0.385-0.419,0.674-0.419c0.113,0,0.227,0.026,0.329,0.076l2.694,1.322
		c0.371,0.182,0.525,0.632,0.343,1.003l-1.156,2.358c-0.414,0.844-0.406,1.847,0.02,2.683c0.639,1.256,0.651,2.76,0.03,4.025
		l-3.18,6.482c1.704-0.177,3.208-0.938,4.583-2.312c0.142-0.142,0.33-0.22,0.53-0.22s0.389,0.078,0.53,0.22
		c0.292,0.292,0.292,0.768,0,1.061c-1.876,1.876-3.978,2.788-6.426,2.788c-0.113,0-0.226-0.003-0.339-0.008
		C16.981,19.463,16.947,19.466,16.914,19.466z M14.929,17.655c0.54,0.131,1.048,0.22,1.539,0.269l3.502-7.138
		c0.414-0.843,0.406-1.846-0.02-2.683c-0.463-0.908-0.598-1.945-0.389-2.95l-1.618-0.794c-0.668,0.779-1.57,1.306-2.571,1.497
		c-0.923,0.175-1.722,0.783-2.136,1.626l-3.981,8.117c0.442,0.156,0.907,0.339,1.405,0.541l3.428-6.987
		c0.125-0.255,0.39-0.42,0.674-0.42c0.114,0,0.228,0.027,0.331,0.077l2.693,1.321c0.178,0.087,0.316,0.244,0.38,0.431
		c0.064,0.186,0.051,0.395-0.036,0.572L14.929,17.655z M12.055,16.701c0.437,0.173,0.917,0.355,1.414,0.524l2.983-6.079
		l-1.347-0.661L12.055,16.701z M20.086,3.739l0.66-1.346l-1.347-0.661l-0.661,1.346L20.086,3.739z"/>
	<path d="M17.354,23.965c-2.497,0-4.899-0.977-6.829-1.762c-1.505-0.612-2.803-1.14-3.776-1.14c0,0-0.029,0-0.029,0
		c-2.033,0-3.969,0.732-5.474,2.062c-0.137,0.121-0.314,0.188-0.497,0.188c-0.215,0-0.42-0.093-0.562-0.254
		c-0.132-0.15-0.199-0.343-0.186-0.543c0.012-0.2,0.102-0.383,0.252-0.516c1.78-1.572,4.068-2.438,6.443-2.438l0.056,0
		c1.263,0,2.688,0.58,4.338,1.25c1.909,0.777,4.073,1.657,6.252,1.657c2.035,0,3.794-0.77,5.378-2.354
		c0.142-0.142,0.33-0.22,0.53-0.22s0.389,0.078,0.53,0.22c0.292,0.292,0.292,0.768,0,1.061
		C21.903,23.053,19.802,23.965,17.354,23.965z"/>
</g>
</svg>
