<?xml version="1.0" encoding="utf-8"?>
<!-- Generator: Adobe Illustrator 22.1.0, SVG Export Plug-In . SVG Version: 6.00 Build 0)  -->
<svg version="1.1" id="Layer_1" xmlns="http://www.w3.org/2000/svg" xmlns:xlink="http://www.w3.org/1999/xlink" x="0px" y="0px"
	 viewBox="0 0 24 24" style="enable-background:new 0 0 24 24;" xml:space="preserve">
<title>business-climb-top-1</title>
<g>
	<path d="M0.751,23.979c-0.265,0-0.512-0.142-0.646-0.37c-0.134-0.228-0.138-0.513-0.009-0.745l3.75-6.75
		c0.124-0.223,0.35-0.367,0.605-0.384c0.012-0.001,0.035-0.002,0.057-0.002c0.23,0,0.452,0.112,0.593,0.3l1.521,2.028l5.495-8.727
		c0.014-0.021,0.026-0.039,0.039-0.056c0.162-0.211,0.365-0.387,0.595-0.519V0.729c0-0.414,0.336-0.75,0.75-0.75h3.75
		c0.414,0,0.75,0.336,0.75,0.75v0.75h3.75c0.277,0,0.531,0.152,0.661,0.396c0.131,0.244,0.117,0.539-0.037,0.77l-1.223,1.834
		l1.223,1.834c0.154,0.231,0.168,0.526,0.037,0.77c-0.13,0.244-0.384,0.396-0.661,0.396h-4.5c-0.414,0-0.75-0.336-0.75-0.75h-2.25
		V8.55c0.262,0.067,0.509,0.186,0.725,0.352c0.139,0.107,0.263,0.231,0.369,0.37c0.014,0.018,0.027,0.036,0.039,0.055l8.502,13.503
		c0.146,0.231,0.154,0.523,0.022,0.762c-0.132,0.239-0.384,0.388-0.657,0.388H0.751z M21.892,22.479l-3.264-5.184l-1.695,1.416
		c-0.31,0.263-0.711,0.408-1.125,0.408c-0.47,0-0.91-0.181-1.239-0.51l-0.642-0.642c-0.047-0.047-0.11-0.073-0.177-0.073
		s-0.13,0.026-0.177,0.073l-0.642,0.642c-0.328,0.329-0.768,0.51-1.238,0.51c-0.415,0-0.816-0.146-1.13-0.412l-1.679-1.431
		l-3.276,5.202H21.892z M3.837,22.479l1.929-3.063l-1.171-1.561l-2.569,4.625H3.837z M13.751,16.395
		c0.468,0,0.907,0.182,1.237,0.512l0.642,0.642c0.046,0.046,0.109,0.072,0.177,0.072c0.06,0,0.117-0.021,0.161-0.058l1.854-1.549
		l-3.683-5.849c-0.023-0.027-0.05-0.052-0.078-0.073c-0.11-0.084-0.226-0.102-0.305-0.102c-0.03,0-0.059,0.002-0.088,0.007
		c-0.013,0.003-0.027,0.006-0.041,0.008c-0.065,0.014-0.176,0.056-0.265,0.16l-3.67,5.829l1.843,1.57
		c0.043,0.036,0.1,0.056,0.159,0.056c0.068,0,0.131-0.026,0.177-0.072l0.642-0.642C12.844,16.576,13.283,16.395,13.751,16.395z
		 M20.349,5.979l-0.723-1.084c-0.168-0.253-0.168-0.579,0-0.832l0.723-1.084h-3.099c-0.414,0-0.75-0.336-0.75-0.75v-0.75h-2.25v3.75
		h3c0.414,0,0.75,0.336,0.75,0.75H20.349z"/>
</g>
</svg>
