<?xml version="1.0" encoding="utf-8"?>
<!-- Generator: Adobe Illustrator 22.1.0, SVG Export Plug-In . SVG Version: 6.00 Build 0)  -->
<svg version="1.1" id="Layer_1" xmlns="http://www.w3.org/2000/svg" xmlns:xlink="http://www.w3.org/1999/xlink" x="0px" y="0px"
	 viewBox="0 0 24 24" style="enable-background:new 0 0 24 24;" xml:space="preserve">
<title>business-boat-success</title>
<g>
	<path d="M1.086,24.014c-0.131,0-0.263-0.005-0.396-0.016c-0.199-0.016-0.381-0.108-0.511-0.26c-0.13-0.152-0.193-0.346-0.177-0.546
		c0.031-0.388,0.36-0.691,0.75-0.691c0.018,0,0.036,0.001,0.054,0.002c0.097,0.008,0.19,0.011,0.283,0.011
		c1.198,0,2.297-0.606,2.941-1.622c0.126-0.199,0.342-0.329,0.577-0.347c0.02-0.001,0.038-0.002,0.057-0.002
		c0.217,0,0.424,0.094,0.566,0.258c0.863,0.994,2.06,1.597,3.372,1.698c1.125-0.014,2.179-0.622,2.754-1.59
		c0.124-0.208,0.342-0.344,0.583-0.364c0.022-0.001,0.04-0.002,0.058-0.002c0.223,0,0.433,0.097,0.576,0.265
		c0.844,1,2.077,1.617,3.384,1.693l0.026,0c1.112,0,2.148-0.605,2.703-1.58c0.123-0.215,0.344-0.356,0.591-0.376
		c0.022-0.001,0.04-0.002,0.057-0.002c0.229,0,0.443,0.101,0.586,0.278c0.824,1.019,2.048,1.631,3.357,1.679
		c0.2,0.007,0.386,0.092,0.522,0.239c0.136,0.147,0.208,0.338,0.2,0.538c-0.015,0.405-0.342,0.723-0.745,0.723
		c0,0-0.031-0.001-0.038-0.001c-1.417-0.052-2.754-0.595-3.803-1.539c-0.872,0.971-2.136,1.54-3.458,1.54l-0.052,0
		c-1.431-0.083-2.77-0.633-3.825-1.56c-0.892,0.978-2.172,1.555-3.499,1.56c-0.002,0-0.004,0-0.006,0
		C8.548,24,8.529,24,8.511,23.998c-1.395-0.1-2.724-0.655-3.777-1.573C3.794,23.439,2.486,24.014,1.086,24.014z"/>
	<path d="M1.088,19.22c-0.132,0-0.264-0.005-0.397-0.016c-0.412-0.033-0.721-0.395-0.688-0.807c0.031-0.387,0.361-0.69,0.752-0.69
		c0.016,0,0.033,0,0.05,0.001c0.098,0.008,0.191,0.011,0.283,0.011c1.199,0,2.299-0.606,2.942-1.621
		c0.126-0.199,0.342-0.329,0.577-0.347c0.019-0.001,0.039-0.002,0.058-0.002c0.132,0,0.26,0.035,0.372,0.099l-2.116-3.596
		c-0.229-0.384-0.208-0.87,0.052-1.237c0.241-0.333,0.615-0.522,1.028-0.522h3.273l3.801-4.096c0.256-0.259,0.581-0.397,0.924-0.398
		l0.027,0c0.327,0,0.64,0.133,0.882,0.373l3.821,4.121c0,0,3.273,0,3.273,0c0.41,0,0.785,0.191,1.021,0.511
		c0.265,0.374,0.287,0.86,0.061,1.245l-2.07,3.573c0.082-0.039,0.171-0.063,0.264-0.071c0.023-0.001,0.039-0.002,0.056-0.002
		c0.231,0,0.445,0.101,0.588,0.278c0.824,1.019,2.048,1.63,3.357,1.678c0.2,0.007,0.385,0.092,0.522,0.239s0.208,0.338,0.2,0.538
		c-0.015,0.399-0.348,0.723-0.742,0.723c-0.007,0-0.035-0.001-0.043-0.001c-1.415-0.052-2.751-0.594-3.8-1.537
		c-0.871,0.97-2.128,1.539-3.439,1.539l-0.074,0c-1.429-0.082-2.768-0.632-3.823-1.559c-0.892,0.978-2.172,1.554-3.5,1.559
		c-0.03,0-0.045-0.001-0.059-0.002c-0.382-0.027-0.774-0.092-1.165-0.193c-0.01,0-0.019,0-0.029,0c-0.157,0-0.308-0.049-0.435-0.139
		c-0.803-0.272-1.526-0.689-2.157-1.24C3.794,18.646,2.486,19.219,1.088,19.22C1.088,19.22,1.088,19.22,1.088,19.22z M11.998,15.751
		c0.223,0,0.433,0.097,0.575,0.266c0.844,0.999,2.078,1.615,3.384,1.691l0.026,0c0.069,0,0.139-0.002,0.21-0.008l3.305-5.705
		l-14.986,0l3.281,5.583c0.264,0.064,0.535,0.108,0.807,0.129c1.125-0.013,2.179-0.621,2.754-1.589
		c0.124-0.208,0.342-0.344,0.583-0.364C11.96,15.751,11.979,15.751,11.998,15.751z M9.319,10.495l5.363,0l-2.68-2.892L9.319,10.495z
		"/>
	<path d="M20.498,6.753c-0.047,0-0.094-0.001-0.141-0.003l-3.564,0c-0.018,0.001-0.085,0.002-0.085,0.002
		c-1.295,0-2.397-1.058-2.457-2.358c-0.001-0.021-0.001-0.048,0-0.076c0.061-1.316,1.144-2.352,2.467-2.352
		c0.036,0,0.071,0.001,0.107,0.002c0.089,0,0.181,0.006,0.275,0.017c0.596-1.2,1.845-1.987,3.199-1.987L20.387,0
		c0.02-0.001,0.062-0.002,0.104-0.002c1.879,0,3.42,1.468,3.508,3.342C24,3.362,24,3.389,23.999,3.417
		C23.912,5.284,22.374,6.753,20.498,6.753L20.498,6.753z M20.495,5.253c1.06,0,1.936-0.823,2.003-1.877
		c-0.067-1.054-0.943-1.877-2.002-1.877c-0.028,0-0.113,0.002-0.118,0.002l-0.093-0.002c-0.929,0-1.767,0.659-1.992,1.566
		C18.24,3.28,18.094,3.46,17.894,3.558c-0.104,0.05-0.217,0.076-0.33,0.076c-0.106,0-0.209-0.022-0.306-0.065
		c-0.148-0.066-0.306-0.1-0.469-0.101l-0.058-0.001c-0.513,0-0.939,0.39-0.98,0.892c0.041,0.502,0.466,0.892,0.977,0.892L20.38,5.25
		C20.38,5.25,20.467,5.253,20.495,5.253z"/>
</g>
</svg>
