<?xml version="1.0" encoding="utf-8"?>
<!-- Generator: Adobe Illustrator 22.1.0, SVG Export Plug-In . SVG Version: 6.00 Build 0)  -->
<svg version="1.1" id="Layer_1" xmlns="http://www.w3.org/2000/svg" xmlns:xlink="http://www.w3.org/1999/xlink" x="0px" y="0px"
	 viewBox="0 0 24 24" style="enable-background:new 0 0 24 24;" xml:space="preserve">
<title>cable-car-1</title>
<g>
	<path d="M4.25,24.013c-1.516,0-2.75-1.234-2.75-2.75v-7.5c0-2.619,2.131-4.75,4.75-4.75h2v-0.75c0-1.241,1.009-2.25,2.25-2.25h0.75
		V4.739L0.944,7.487C0.88,7.504,0.815,7.513,0.75,7.513c-0.339,0-0.637-0.229-0.724-0.557c-0.107-0.4,0.132-0.811,0.531-0.918
		L11.25,3.186V2.263c0-0.414,0.336-0.75,0.75-0.75s0.75,0.336,0.75,0.75v0.524l10.307-2.748c0.063-0.017,0.129-0.026,0.194-0.026
		c0.339,0,0.636,0.229,0.724,0.557C24.027,0.763,24,0.965,23.899,1.138c-0.1,0.173-0.262,0.297-0.456,0.349L12.75,4.339v1.674h0.75
		c1.241,0,2.25,1.009,2.25,2.25v0.75h2c2.619,0,4.75,2.131,4.75,4.75v7.5c0,1.516-1.234,2.75-2.75,2.75H4.25z M3,21.263
		c0,0.689,0.561,1.25,1.25,1.25h15.5c0.689,0,1.25-0.561,1.25-1.25v-3.25H3V21.263z M21,16.513v-2.75c0-1.792-1.458-3.25-3.25-3.25
		h-5v6H21z M11.25,16.513v-6h-5c-1.792,0-3.25,1.458-3.25,3.25v2.75H11.25z M14.25,9.013v-0.75c0-0.414-0.336-0.75-0.75-0.75h-3
		c-0.414,0-0.75,0.336-0.75,0.75v0.75H14.25z"/>
</g>
</svg>
