<?xml version="1.0" encoding="utf-8"?>
<!-- Generator: Adobe Illustrator 22.1.0, SVG Export Plug-In . SVG Version: 6.00 Build 0)  -->
<svg version="1.1" id="Regular" xmlns="http://www.w3.org/2000/svg" xmlns:xlink="http://www.w3.org/1999/xlink" x="0px" y="0px"
	 viewBox="0 0 24 24" style="enable-background:new 0 0 24 24;" xml:space="preserve">
<title>cake-cherry</title>
<g>
	<path d="M2.229,23.999c-1.241,0-2.25-1.009-2.25-2.25v-7.5C-0.217,9.561,1.64,6.517,5.499,5.214
		c0.646-1.781,2.321-2.964,4.229-2.964c0.113,0,0.229,0.005,0.354,0.016c0.974-1.276,2.482-2.116,4.077-2.263
		C14.182,0,14.207-0.001,14.232-0.001c0.387,0,0.707,0.293,0.743,0.681c0.038,0.412-0.267,0.778-0.678,0.816
		c-0.978,0.09-1.903,0.523-2.606,1.208c1.538,0.746,2.537,2.309,2.537,4.045c0,0.074-0.002,0.15-0.006,0.225l8.808,6.212
		c0.243,0.173,0.448,0.393,0.61,0.655c0.224,0.367,0.34,0.775,0.338,1.188v6.72c0,1.241-1.009,2.25-2.25,2.25H2.229z M1.479,21.749
		c0,0.414,0.336,0.75,0.75,0.75h19.5c0.414,0,0.75-0.336,0.75-0.75v-2.25h-21L1.479,21.749z M22.479,17.999c0,0,0-2.991,0-3h-21l0,3
		H22.479z M20.872,13.499l-7.019-4.95c-0.709,1.634-2.309,2.7-4.125,2.7c-2.423,0-4.405-1.925-4.497-4.327
		c-2.5,1.12-3.734,3.279-3.761,6.577H20.872z M9.729,3.749c-1.654,0-3,1.346-3,3s1.346,3,3,3s3-1.346,3-3S11.383,3.749,9.729,3.749z
		"/>
</g>
</svg>
