<?xml version="1.0" encoding="utf-8"?>
<!-- Generator: Adobe Illustrator 22.1.0, SVG Export Plug-In . SVG Version: 6.00 Build 0)  -->
<svg version="1.1" id="Regular" xmlns="http://www.w3.org/2000/svg" xmlns:xlink="http://www.w3.org/1999/xlink" x="0px" y="0px"
	 viewBox="0 0 24 24" style="enable-background:new 0 0 24 24;" xml:space="preserve">
<title>cake-birthday</title>
<g>
	<path d="M1.473,24c-0.414,0-0.75-0.336-0.75-0.75s0.336-0.75,0.75-0.75h21c0.414,0,0.75,0.336,0.75,0.75S22.886,24,22.473,24H1.473
		z"/>
	<path d="M4.473,21c-1.241,0-2.25-1.009-2.25-2.25v-7.5c0-1.241,1.009-2.25,2.25-2.25h0.75V7.5c0-0.414,0.336-0.75,0.75-0.75
		s0.75,0.336,0.75,0.75V9h4.5V7.5c0-0.414,0.336-0.75,0.75-0.75c0.413,0,0.75,0.336,0.75,0.75V9h4.5V7.5
		c0-0.414,0.336-0.75,0.75-0.75s0.75,0.336,0.75,0.75V9h0.75c1.241,0,2.25,1.009,2.25,2.25v7.5c0,1.241-1.009,2.25-2.25,2.25H4.473z
		 M3.723,18.75c0,0.414,0.336,0.75,0.75,0.75h15c0.414,0,0.75-0.336,0.75-0.75v-2.817c-0.053,0.036-0.107,0.07-0.161,0.102
		c-0.518,0.305-1.106,0.466-1.701,0.466c-0.286,0-0.572-0.037-0.852-0.109c-0.53-0.138-1.011-0.397-1.41-0.758
		c-0.171,0.155-0.358,0.292-0.559,0.409c-0.512,0.299-1.095,0.457-1.686,0.457c-0.84,0-1.642-0.312-2.256-0.866
		c-0.619,0.56-1.411,0.866-2.245,0.866l-0.057,0c-0.661-0.01-1.287-0.206-1.825-0.57c-0.554,0.37-1.21,0.571-1.875,0.571
		c-0.678-0.001-1.324-0.199-1.872-0.566V18.75z M7.473,14.208c0.202,0,0.398,0.083,0.538,0.228c0.346,0.356,0.81,0.556,1.307,0.564
		L9.375,15c0.467,0,0.917-0.187,1.267-0.526c0.12-0.117,0.224-0.25,0.31-0.395c0.134-0.229,0.382-0.371,0.647-0.371
		c0.266,0,0.514,0.143,0.648,0.372c0.331,0.568,0.947,0.92,1.606,0.92c0.326,0,0.648-0.087,0.931-0.253
		c0.276-0.161,0.507-0.392,0.667-0.667c0.134-0.229,0.382-0.372,0.647-0.372c0.266,0,0.514,0.142,0.648,0.37
		c0.334,0.568,0.952,0.921,1.614,0.921c0.331,0,0.657-0.089,0.943-0.257c0.57-0.335,0.923-0.954,0.921-1.615V11.25
		c0-0.414-0.336-0.75-0.75-0.75h-15c-0.414,0-0.75,0.336-0.75,0.75v1.875c-0.001,0.5,0.193,0.971,0.547,1.325
		C4.623,14.804,5.093,15,5.593,15c0.504,0,0.993-0.206,1.343-0.566C7.076,14.291,7.272,14.208,7.473,14.208z"/>
	<path d="M11.973,5.25c-1.241,0-2.25-1.009-2.25-2.25c0-1.067,1.327-2.409,1.734-2.794C11.597,0.073,11.78,0,11.973,0
		s0.376,0.073,0.516,0.206C12.896,0.591,14.223,1.932,14.223,3C14.223,4.241,13.214,5.25,11.973,5.25z M11.973,1.836
		c-0.51,0.585-0.75,1.028-0.75,1.164c0,0.414,0.336,0.75,0.75,0.75c0.413,0,0.75-0.336,0.75-0.75
		C12.723,2.864,12.483,2.42,11.973,1.836z"/>
	<path d="M17.973,5.25c-1.241,0-2.25-1.009-2.25-2.25c0-1.068,1.327-2.409,1.734-2.794C17.597,0.073,17.78,0,17.973,0
		s0.376,0.073,0.516,0.205C18.896,0.591,20.223,1.932,20.223,3C20.223,4.241,19.214,5.25,17.973,5.25z M17.973,1.835
		c-0.51,0.585-0.75,1.028-0.75,1.165c0,0.414,0.336,0.75,0.75,0.75s0.75-0.336,0.75-0.75C18.723,2.863,18.483,2.42,17.973,1.835z"/>
	<path d="M5.973,5.25c-1.241,0-2.25-1.009-2.25-2.25c0-1.067,1.327-2.409,1.734-2.794C5.597,0.073,5.78,0,5.973,0
		s0.376,0.073,0.516,0.206C6.896,0.591,8.223,1.933,8.223,3C8.223,4.241,7.214,5.25,5.973,5.25z M5.973,1.835
		C5.463,2.42,5.223,2.864,5.223,3c0,0.414,0.336,0.75,0.75,0.75S6.723,3.414,6.723,3C6.723,2.863,6.483,2.42,5.973,1.835z"/>
</g>
</svg>
