<?xml version="1.0" encoding="utf-8"?>
<!-- Generator: Adobe Illustrator 22.1.0, SVG Export Plug-In . SVG Version: 6.00 Build 0)  -->
<svg version="1.1" id="Regular" xmlns="http://www.w3.org/2000/svg" xmlns:xlink="http://www.w3.org/1999/xlink" x="0px" y="0px"
	 viewBox="0 0 24 24" style="enable-background:new 0 0 24 24;" xml:space="preserve">
<title>cake-sifter</title>
<g>
	<path d="M2.196,17.25c-0.414,0-0.75-0.336-0.75-0.75v-2.25c0-0.414,0.336-0.75,0.75-0.75s0.75,0.336,0.75,0.75v2.25
		C2.946,16.913,2.61,17.25,2.196,17.25z"/>
	<path d="M2.196,22.5c-0.414,0-0.75-0.336-0.75-0.75V19.5c0-0.414,0.336-0.75,0.75-0.75s0.75,0.336,0.75,0.75v2.25
		C2.946,22.163,2.61,22.5,2.196,22.5z"/>
	<path d="M11.196,17.25c-0.414,0-0.75-0.336-0.75-0.75v-2.25c0-0.414,0.336-0.75,0.75-0.75s0.75,0.336,0.75,0.75v2.25
		C11.946,16.913,11.61,17.25,11.196,17.25z"/>
	<path d="M11.196,22.5c-0.414,0-0.75-0.336-0.75-0.75V19.5c0-0.414,0.336-0.75,0.75-0.75s0.75,0.336,0.75,0.75v2.25
		C11.946,22.163,11.61,22.5,11.196,22.5z"/>
	<path d="M6.696,18.75c-0.414,0-0.75-0.336-0.75-0.75v-2.25c0-0.414,0.336-0.75,0.75-0.75s0.75,0.336,0.75,0.75V18
		C7.446,18.413,7.11,18.75,6.696,18.75z"/>
	<path d="M6.696,24c-0.414,0-0.75-0.336-0.75-0.75V21c0-0.414,0.336-0.75,0.75-0.75s0.75,0.336,0.75,0.75v2.25
		C7.446,23.663,7.11,24,6.696,24z"/>
	<path d="M6.7,12.024c-3.347,0-6.221-2.5-6.685-5.814C-0.042,5.815,0.06,5.42,0.3,5.1c0.24-0.321,0.591-0.528,0.988-0.585
		c0.06-0.009,0.12-0.014,0.181-0.015c-0.014-0.127-0.02-0.253-0.02-0.378C1.449,2.679,2.625,1.502,4.071,1.5
		C4.466,1.501,4.85,1.591,5.2,1.76c0.762-1.086,2.02-1.748,3.365-1.751c1.107,0,2.14,0.427,2.918,1.201
		c0.781,0.777,1.212,1.812,1.214,2.913c0,0.123-0.005,0.249-0.016,0.377h10.516c0.414,0,0.75,0.336,0.75,0.75S23.61,6,23.197,6
		H13.41c-0.162,1.517-0.836,2.937-1.918,4.028c-1.27,1.28-2.962,1.989-4.765,1.996c0,0-0.001,0-0.001,0H6.7z M1.501,6
		c0.36,2.58,2.596,4.524,5.199,4.524c1.423-0.006,2.74-0.557,3.727-1.552C11.23,8.161,11.745,7.118,11.9,6H1.501z M11.175,4.5
		c0.015-0.125,0.022-0.25,0.022-0.375c-0.001-0.699-0.276-1.357-0.772-1.851c-0.495-0.493-1.152-0.764-1.85-0.764
		c-1.078,0.002-2.03,0.646-2.432,1.64c-0.098,0.242-0.31,0.413-0.567,0.458C5.532,3.614,5.489,3.618,5.447,3.618
		c-0.214,0-0.418-0.091-0.56-0.25C4.68,3.135,4.382,3.001,4.07,3C3.452,3.001,2.949,3.505,2.95,4.125
		c0,0.127,0.01,0.252,0.031,0.375H11.175z"/>
</g>
</svg>
