<?xml version="1.0" encoding="utf-8"?>
<!-- Generator: Adobe Illustrator 22.1.0, SVG Export Plug-In . SVG Version: 6.00 Build 0)  -->
<svg version="1.1" id="Layer_1" xmlns="http://www.w3.org/2000/svg" xmlns:xlink="http://www.w3.org/1999/xlink" x="0px" y="0px"
	 viewBox="0 0 24 24" style="enable-background:new 0 0 24 24;" xml:space="preserve">
<title>calculator-app</title>
<g>
	<path d="M4.342,21.75c-1.154,0-2.092-0.938-2.092-2.092V4.342c0-1.154,0.938-2.092,2.092-2.092h15.316
		c1.154,0,2.092,0.938,2.092,2.092v15.316c0,1.154-0.938,2.092-2.092,2.092H4.342z M19.658,20.25c0.326,0,0.592-0.266,0.592-0.592
		V12.75h-7.5v7.5H19.658z M3.75,19.658c0,0.326,0.266,0.592,0.592,0.592h6.908v-7.5h-7.5V19.658z M20.25,11.25V4.342
		c0-0.326-0.266-0.592-0.592-0.592H12.75v7.5H20.25z M11.25,11.25v-7.5H4.342c-0.326,0-0.592,0.266-0.592,0.592v6.908H11.25z"/>
	<path d="M7.5,9.75C7.086,9.75,6.75,9.414,6.75,9V8.25H6c-0.414,0-0.75-0.336-0.75-0.75S5.586,6.75,6,6.75h0.75V6
		c0-0.414,0.336-0.75,0.75-0.75S8.25,5.586,8.25,6v0.75H9c0.414,0,0.75,0.336,0.75,0.75S9.414,8.25,9,8.25H8.25V9
		C8.25,9.414,7.914,9.75,7.5,9.75z"/>
	<path d="M9,18.75c-0.2,0-0.389-0.078-0.53-0.22l-0.97-0.97l-0.97,0.97C6.389,18.672,6.2,18.75,6,18.75s-0.389-0.078-0.53-0.22
		c-0.292-0.292-0.292-0.768,0-1.061l0.97-0.97l-0.97-0.97c-0.292-0.292-0.292-0.768,0-1.061C5.611,14.328,5.8,14.25,6,14.25
		s0.389,0.078,0.53,0.22l0.97,0.97l0.97-0.97C8.611,14.328,8.8,14.25,9,14.25s0.389,0.078,0.53,0.22
		c0.292,0.292,0.292,0.768,0,1.061l-0.97,0.97l0.97,0.97c0.292,0.292,0.292,0.768,0,1.061C9.389,18.672,9.2,18.75,9,18.75z"/>
	<path d="M15,8.25c-0.414,0-0.75-0.336-0.75-0.75S14.586,6.75,15,6.75h3c0.414,0,0.75,0.336,0.75,0.75S18.414,8.25,18,8.25H15z"/>
	<path d="M15,15.75c-0.414,0-0.75-0.336-0.75-0.75s0.336-0.75,0.75-0.75h3c0.414,0,0.75,0.336,0.75,0.75s-0.336,0.75-0.75,0.75H15z"
		/>
	<path d="M15,18.75c-0.414,0-0.75-0.336-0.75-0.75s0.336-0.75,0.75-0.75h3c0.414,0,0.75,0.336,0.75,0.75s-0.336,0.75-0.75,0.75H15z"
		/>
</g>
</svg>
