<?xml version="1.0" encoding="utf-8"?>
<!-- Generator: Adobe Illustrator 22.1.0, SVG Export Plug-In . SVG Version: 6.00 Build 0)  -->
<svg version="1.1" id="Regular" xmlns="http://www.w3.org/2000/svg" xmlns:xlink="http://www.w3.org/1999/xlink" x="0px" y="0px"
	 viewBox="0 0 24 24" style="enable-background:new 0 0 24 24;" xml:space="preserve">
<title>camping-tent-small</title>
<g>
	<path d="M3.75,1.5C3.336,1.5,3,1.164,3,0.75S3.336,0,3.75,0h16.5C20.664,0,21,0.336,21,0.75S20.664,1.5,20.25,1.5H3.75z"/>
	<path d="M3.75,4.5C3.336,4.5,3,4.164,3,3.75S3.336,3,3.75,3h12c0.414,0,0.75,0.336,0.75,0.75S16.164,4.5,15.75,4.5H3.75z"/>
	<path d="M0.75,24C0.336,24,0,23.664,0,23.25s0.336-0.75,0.75-0.75h2.579l7.391-12.091c0.209-0.342,0.538-0.582,0.928-0.676
		c0.117-0.028,0.236-0.042,0.354-0.042c0.274,0,0.544,0.076,0.78,0.22c0.202,0.124,0.375,0.296,0.498,0.498L20.671,22.5h2.579
		c0.414,0,0.75,0.336,0.75,0.75S23.664,24,23.25,24H0.75z M18.912,22.5L12,11.191L5.087,22.5h3.477l2.133-3.732
		c0.201-0.349,0.524-0.598,0.911-0.702c0.128-0.035,0.26-0.052,0.391-0.052c0.261,0,0.519,0.069,0.747,0.201
		c0.229,0.132,0.42,0.323,0.551,0.552l2.136,3.734H18.912z M13.707,22.5L12,19.515L10.293,22.5H13.707z"/>
</g>
</svg>
