<?xml version="1.0" encoding="utf-8"?>
<!-- Generator: Adobe Illustrator 22.1.0, SVG Export Plug-In . SVG Version: 6.00 Build 0)  -->
<svg version="1.1" id="Regular" xmlns="http://www.w3.org/2000/svg" xmlns:xlink="http://www.w3.org/1999/xlink" x="0px" y="0px"
	 viewBox="0 0 24 24" style="enable-background:new 0 0 24 24;" xml:space="preserve">
<title>camping-tent-1</title>
<g>
	<path d="M2.25,24.001c-0.286,0-0.565-0.081-0.806-0.234c-0.338-0.215-0.572-0.549-0.659-0.939c-0.087-0.391-0.016-0.792,0.198-1.13
		L11.25,5.487L8.504,1.151c-0.107-0.169-0.142-0.37-0.098-0.566C8.449,0.39,8.567,0.224,8.736,0.116C8.856,0.04,8.995,0,9.137,0
		c0.259,0,0.496,0.13,0.634,0.349l2.367,3.737l2.366-3.737C14.642,0.13,14.879,0,15.138,0c0.142,0,0.281,0.04,0.401,0.117
		c0.349,0.221,0.453,0.685,0.232,1.035l-2.746,4.336l10.267,16.211c0.153,0.24,0.234,0.519,0.233,0.806
		c-0.001,0.825-0.673,1.497-1.499,1.497H2.25z M2.251,22.501l4.961,0l3.644-6.065c0.205-0.343,0.532-0.586,0.921-0.683
		c0.12-0.03,0.244-0.046,0.367-0.046c0.27,0,0.536,0.074,0.769,0.214c0.211,0.126,0.39,0.305,0.516,0.516l3.638,6.064h4.958
		L12.137,6.889L2.251,22.501z M15.318,22.501l-3.175-5.292l-3.181,5.292H15.318z"/>
	<path d="M10.637,13.5c-0.414,0-0.75-0.336-0.75-0.75S10.224,12,10.637,12h3c0.414,0,0.75,0.336,0.75,0.75s-0.336,0.75-0.75,0.75
		H10.637z"/>
</g>
</svg>
