<?xml version="1.0" encoding="utf-8"?>
<!-- Generator: Adobe Illustrator 22.1.0, SVG Export Plug-In . SVG Version: 6.00 Build 0)  -->
<svg version="1.1" id="Regular" xmlns="http://www.w3.org/2000/svg" xmlns:xlink="http://www.w3.org/1999/xlink" x="0px" y="0px"
	 viewBox="0 0 24 24" style="enable-background:new 0 0 24 24;" xml:space="preserve">
<title>candle</title>
<g>
	<path d="M11.326,11.06c-2.297,0-4.166-1.866-4.166-4.16C7.068,5.484,7.834,4.103,9.113,3.403c0.11-0.06,0.234-0.092,0.359-0.092
		c0.116,0,0.231,0.027,0.335,0.079c0.22,0.11,0.372,0.32,0.407,0.563c0.024,0.164,0.117,0.307,0.248,0.397
		c0.357-0.993,0.166-2.113-0.522-2.933C9.731,1.166,9.707,0.812,9.882,0.535c0.138-0.219,0.375-0.349,0.634-0.349
		c0.064,0,0.129,0.008,0.191,0.025C13.73,1,15.737,3.835,15.48,6.949c-0.037,2.263-1.86,4.079-4.148,4.111
		C11.33,11.06,11.328,11.06,11.326,11.06z M9.21,5.222c-0.388,0.447-0.59,1.032-0.552,1.63C8.66,8.356,9.854,9.56,11.321,9.56
		c1.469-0.02,2.64-1.193,2.66-2.67c0-0.021,0.001-0.037,0.002-0.052c0.146-1.721-0.593-3.338-1.926-4.34
		c0.198,1.045,0.024,2.141-0.513,3.076c-0.124,0.216-0.346,0.356-0.594,0.375c-0.053,0.004-0.107,0.006-0.16,0.006
		C10.183,5.954,9.603,5.677,9.21,5.222z"/>
	<path d="M8.25,23.814c-0.827,0-1.5-0.673-1.5-1.5v-6.25c0-0.608,0.363-1.152,0.925-1.385l7.499-3.125
		c0.185-0.077,0.379-0.116,0.577-0.116c0.195,0,0.387,0.038,0.569,0.113c0.371,0.152,0.66,0.439,0.814,0.809
		c0.078,0.185,0.117,0.381,0.116,0.581v9.373c0,0.827-0.673,1.5-1.5,1.5H8.25z M8.251,16.064l-0.001,6.25h7.5v-9.375L8.251,16.064z"
		/>
</g>
</svg>
