<?xml version="1.0" encoding="utf-8"?>
<!-- Generator: Adobe Illustrator 22.1.0, SVG Export Plug-In . SVG Version: 6.00 Build 0)  -->
<svg version="1.1" id="Regular" xmlns="http://www.w3.org/2000/svg" xmlns:xlink="http://www.w3.org/1999/xlink" x="0px" y="0px"
	 viewBox="0 0 24 24" style="enable-background:new 0 0 24 24;" xml:space="preserve">
<title>canoe</title>
<g>
	<path d="M3.619,23.999c-0.399,0-0.774-0.155-1.058-0.436L0.438,21.44c-0.078-0.078-0.148-0.165-0.207-0.259
		c-0.214-0.339-0.283-0.741-0.195-1.132c0.088-0.391,0.323-0.723,0.662-0.937l3.035-2.197c0.271-0.174,0.559-0.26,0.851-0.26
		c0.395,0,0.768,0.155,1.05,0.436l0.107,0.107l1.084-1.083C1.875,10.789,0.432,3.654,0.105,1.566C0.028,1.186,0.15,0.77,0.432,0.468
		C0.443,0.456,0.457,0.443,0.47,0.43C0.709,0.21,1.02,0.088,1.346,0.088c0.082,0,0.164,0.008,0.245,0.024
		c2.071,0.324,9.194,1.764,14.52,6.714l1.083-1.082l-0.105-0.105c-0.501-0.504-0.584-1.272-0.202-1.868l2.243-3.103
		c0.048-0.075,0.116-0.158,0.188-0.23c0.283-0.282,0.659-0.437,1.058-0.437c0.402,0,0.779,0.156,1.062,0.441l2.117,2.12
		c0.076,0.076,0.144,0.161,0.202,0.251C24.204,3.511,24,4.441,23.303,4.887l-3.039,2.2c-0.271,0.174-0.559,0.26-0.851,0.26
		c-0.395,0-0.768-0.155-1.051-0.436l-0.107-0.107l-1.084,1.083c4.939,5.313,6.391,12.451,6.721,14.54
		c0.064,0.299,0.007,0.626-0.166,0.903c-0.177,0.284-0.454,0.481-0.779,0.556c-0.09,0.021-0.186,0.032-0.281,0.032
		c-0.088,0-0.177-0.009-0.262-0.028c-2.067-0.325-9.201-1.772-14.519-6.715l-1.083,1.082l0.105,0.105
		c0.501,0.504,0.583,1.271,0.202,1.868l-2.244,3.1c-0.047,0.073-0.113,0.154-0.183,0.225c-0.282,0.284-0.659,0.442-1.06,0.443
		c0,0-0.001,0-0.001,0H3.619z M1.538,20.354c-0.036,0.024-0.041,0.031-0.041,0.031L3.62,22.5l2.225-3.077l-1.268-1.269L1.538,20.354
		z M8.405,15.597c4.814,4.813,11.557,6.355,13.957,6.766c-0.411-2.39-1.955-9.143-6.768-13.956
		c-0.001-0.001-0.002-0.002-0.002-0.002C10.774,3.589,4.033,2.05,1.637,1.639c0.421,2.437,1.968,9.155,6.764,13.953
		C8.402,15.594,8.405,15.597,8.405,15.597z M18.785,5.213l0.636,0.635l3.038-2.201c0.031-0.02,0.035-0.028,0.035-0.03
		c0,0-2.117-2.116-2.118-2.116l-2.224,3.078L18.785,5.213z"/>
	<path d="M13.275,16.448c-0.844,0-1.637-0.324-2.232-0.914l-2.574-2.573C7.23,11.724,7.23,9.71,8.467,8.472
		c0.599-0.599,1.396-0.929,2.245-0.929c0.848,0,1.645,0.329,2.245,0.928l2.572,2.573c1.233,1.248,1.221,3.262-0.023,4.492
		C14.91,16.124,14.118,16.448,13.275,16.448z M10.713,9.042c-0.448,0-0.869,0.174-1.185,0.49c-0.316,0.316-0.489,0.736-0.489,1.184
		c0,0.448,0.174,0.869,0.49,1.184l2.571,2.57c0.311,0.308,0.729,0.478,1.174,0.478c0.446,0,0.864-0.17,1.177-0.48
		c0.656-0.649,0.663-1.71,0.015-2.367l-2.57-2.57C11.581,9.216,11.16,9.042,10.713,9.042z"/>
</g>
</svg>
