<?xml version="1.0" encoding="utf-8"?>
<!-- Generator: Adobe Illustrator 22.1.0, SVG Export Plug-In . SVG Version: 6.00 Build 0)  -->
<svg version="1.1" id="Regular" xmlns="http://www.w3.org/2000/svg" xmlns:xlink="http://www.w3.org/1999/xlink" x="0px" y="0px"
	 viewBox="0 0 24 24" style="enable-background:new 0 0 24 24;" xml:space="preserve">
<title>cap-4</title>
<g>
	<path d="M0.75,20.25C0.336,20.25,0,19.914,0,19.5v-3.75c0-4.963,4.037-9,9-9s9,4.037,9,9v3h5.25c0.414,0,0.75,0.336,0.75,0.75
		s-0.336,0.75-0.75,0.75H0.75z M16.5,18.75v-3c0-2.548-1.283-4.879-3.358-6.252c0.235,0.55,0.358,1.145,0.358,1.752v7.5H16.5z
		 M12,18.75v-7.5c0-1.654-1.346-3-3-3s-3,1.346-3,3v7.5H12z M4.5,18.75v-7.5c0-0.607,0.124-1.202,0.358-1.752
		C2.783,10.872,1.5,13.202,1.5,15.75v3H4.5z"/>
	<path d="M6.749,6.266c-0.183,0-0.359-0.067-0.496-0.188C5.943,5.805,5.913,5.33,6.186,5.02c0.663-0.751,1.578-1.2,2.578-1.262
		c0.08-0.005,0.16-0.007,0.239-0.007c0.911,0,1.791,0.333,2.476,0.938c0.116,0.102,0.228,0.214,0.332,0.332
		c0.274,0.31,0.244,0.785-0.066,1.058c-0.137,0.121-0.314,0.188-0.496,0.188c-0.215,0-0.42-0.092-0.562-0.254
		c-0.063-0.071-0.13-0.138-0.199-0.199C10.076,5.45,9.548,5.25,9.002,5.25c-0.048,0-0.096,0.002-0.144,0.005
		c-0.6,0.038-1.149,0.307-1.546,0.757C7.169,6.174,6.964,6.266,6.749,6.266L6.749,6.266z"/>
</g>
</svg>
