<?xml version="1.0" encoding="utf-8"?>
<!-- Generator: Adobe Illustrator 22.1.0, SVG Export Plug-In . SVG Version: 6.00 Build 0)  -->
<svg version="1.1" id="Regular" xmlns="http://www.w3.org/2000/svg" xmlns:xlink="http://www.w3.org/1999/xlink" x="0px" y="0px"
	 viewBox="0 0 24 24" style="enable-background:new 0 0 24 24;" xml:space="preserve">
<title>cap-2</title>
<g>
	<path d="M21.744,23.842c-0.262,0-0.521-0.046-0.771-0.137c-2.889-1.105-5.913-1.709-8.995-1.797
		c-3.047,0.088-6.062,0.692-8.94,1.793c-0.256,0.093-0.516,0.14-0.781,0.14c-0.943,0-1.793-0.594-2.115-1.477
		c-0.16-0.438-0.181-0.908-0.059-1.359L1.5,15.81v-3.651c0-5.553,4.254-10.085,9.75-10.471V0.908c0-0.414,0.336-0.75,0.75-0.75
		c0.414,0,0.75,0.336,0.75,0.75v0.779c5.496,0.386,9.75,4.918,9.75,10.471v3.651l1.417,5.193c0.157,0.582,0.079,1.189-0.221,1.71
		c-0.299,0.521-0.784,0.894-1.364,1.051C22.14,23.815,21.942,23.842,21.744,23.842z M12,20.409c3.264,0.093,6.459,0.729,9.498,1.891
		c0.074,0.027,0.158,0.042,0.244,0.042c0.066,0,0.133-0.009,0.198-0.026c0.193-0.052,0.354-0.177,0.455-0.35
		c0.1-0.173,0.126-0.375,0.073-0.569l-1.33-4.875c-2.982-0.792-6.056-1.25-9.139-1.361c-3.083,0.111-6.157,0.569-9.139,1.361
		l-1.33,4.876c-0.04,0.149-0.033,0.305,0.02,0.451c0.108,0.295,0.391,0.493,0.706,0.493c0.087,0,0.173-0.015,0.256-0.046
		c3.028-1.159,6.214-1.794,9.466-1.887c0.004,0,0.007,0,0.011,0S11.996,20.408,12,20.409z M12,3.158c-4.963,0-9,4.037-9,9v2.782
		c2.946-0.743,5.962-1.173,8.973-1.28c0.005,0,0.022-0.001,0.027-0.001c0.007,0,0.027,0.001,0.034,0.001
		c3.005,0.106,6.021,0.537,8.966,1.28v-2.782C21,7.196,16.963,3.158,12,3.158z"/>
	<path d="M6.75,12.158c-0.161,0-0.32-0.053-0.449-0.149C6.113,11.868,6,11.644,6,11.408v-3c0-0.261,0.139-0.507,0.362-0.642
		c1.698-1.028,3.644-1.584,5.629-1.608c2,0.024,3.95,0.58,5.648,1.608C17.862,7.902,18,8.148,18,8.408v3
		c0,0.235-0.113,0.46-0.301,0.601c-0.129,0.096-0.289,0.149-0.449,0.149c-0.072,0-0.144-0.01-0.213-0.031
		c-1.615-0.477-3.287-0.719-4.968-0.719l-0.163,0c-1.664,0-3.327,0.242-4.944,0.719C6.894,12.148,6.822,12.158,6.75,12.158
		L6.75,12.158z M12.041,9.908c1.507,0,3.005,0.176,4.459,0.524v-1.59c-1.38-0.756-2.934-1.164-4.509-1.183
		C10.431,7.677,8.88,8.086,7.5,8.841v1.59c1.451-0.348,2.935-0.524,4.417-0.524L12.041,9.908z"/>
</g>
</svg>
