<?xml version="1.0" encoding="utf-8"?>
<!-- Generator: Adobe Illustrator 22.1.0, SVG Export Plug-In . SVG Version: 6.00 Build 0)  -->
<svg version="1.1" id="Layer_1" xmlns="http://www.w3.org/2000/svg" xmlns:xlink="http://www.w3.org/1999/xlink" x="0px" y="0px"
	 viewBox="0 0 24 24" style="enable-background:new 0 0 24 24;" xml:space="preserve">
<title>car-actions-wifi</title>
<g>
	<path d="M20.25,24C19.009,24,18,22.991,18,21.75V21H6v0.75C6,22.991,4.991,24,3.75,24S1.5,22.991,1.5,21.75v-0.879
		C0.615,20.558,0,19.71,0,18.75c0-0.612,0.127-1.208,0.377-1.771c0.012-0.03,0.025-0.058,0.04-0.086
		c0.218-0.464,0.508-0.879,0.863-1.234l1.824-1.824l1.643-4.388C5.184,8.282,6.313,7.5,7.556,7.5h8.885
		c1.243,0,2.372,0.782,2.808,1.947l1.641,4.383l1.829,1.829c0.354,0.355,0.645,0.77,0.863,1.233
		c0.015,0.028,0.029,0.057,0.041,0.087C23.873,17.542,24,18.138,24,18.75c0,0.96-0.615,1.808-1.5,2.122v0.879
		C22.5,22.991,21.491,24,20.25,24z M19.5,21.75c0,0.414,0.336,0.75,0.75,0.75S21,22.164,21,21.75V21h-1.5V21.75z M3,21.75
		c0,0.414,0.336,0.75,0.75,0.75s0.75-0.336,0.75-0.75V21H3V21.75z M1.602,18C1.534,18.246,1.5,18.498,1.5,18.75
		c0,0.414,0.336,0.75,0.75,0.75h19.5c0.414,0,0.75-0.336,0.75-0.75c0-0.252-0.034-0.503-0.102-0.75H18.75
		C18.336,18,18,17.664,18,17.25s0.336-0.75,0.75-0.75h2.689l-1.5-1.5H4.061l-1.5,1.5H5.25C5.664,16.5,6,16.837,6,17.25
		S5.664,18,5.25,18H1.602z M19.166,13.5l-1.321-3.527C17.627,9.391,17.062,9,16.441,9H7.557C6.935,9,6.37,9.391,6.152,9.973
		L4.832,13.5H19.166z"/>
	<path d="M17.262,6.225c-0.165,0-0.321-0.052-0.452-0.152c-1.342-1.015-2.999-1.574-4.667-1.574L12.012,4.5l-0.13-0.001
		c-1.684,0-3.35,0.559-4.691,1.574C7.059,6.173,6.903,6.225,6.738,6.225c-0.234,0-0.457-0.111-0.598-0.297
		c-0.249-0.33-0.184-0.801,0.146-1.051c1.6-1.211,3.585-1.878,5.588-1.878L12.011,3l0.108-0.001c2.008,0,3.995,0.667,5.595,1.878
		c0.33,0.25,0.395,0.721,0.146,1.051C17.719,6.114,17.495,6.225,17.262,6.225z"/>
	<path d="M19.893,4.087c-0.164,0-0.321-0.052-0.452-0.152c-2.077-1.572-4.657-2.437-7.266-2.437L12.01,1.5l-0.172-0.001
		c-2.617,0-5.202,0.865-7.279,2.436C4.428,4.035,4.272,4.087,4.107,4.087c-0.234,0-0.458-0.111-0.599-0.298
		C3.388,3.63,3.337,3.433,3.364,3.234c0.028-0.198,0.131-0.374,0.29-0.495c2.336-1.767,5.237-2.74,8.169-2.74
		c0.062,0,0.125,0,0.187,0.001l0.17-0.001c2.929,0,5.829,0.973,8.165,2.74c0.16,0.121,0.263,0.297,0.29,0.495
		S20.612,3.63,20.491,3.79C20.348,3.979,20.13,4.087,19.893,4.087z"/>
</g>
</svg>
