<?xml version="1.0" encoding="utf-8"?>
<!-- Generator: Adobe Illustrator 22.1.0, SVG Export Plug-In . SVG Version: 6.00 Build 0)  -->
<svg version="1.1" id="Layer_1" xmlns="http://www.w3.org/2000/svg" xmlns:xlink="http://www.w3.org/1999/xlink" x="0px" y="0px"
	 viewBox="0 0 24 24" style="enable-background:new 0 0 24 24;" xml:space="preserve">
<title>car-truck-woods</title>
<g>
	<path d="M17.25,24c-0.96,0-1.808-0.615-2.121-1.5H7.371C7.058,23.385,6.21,24,5.25,24s-1.808-0.615-2.121-1.5H2.25
		C1.009,22.5,0,21.491,0,20.25v-1.5C0,16.682,1.682,15,3.75,15h1.036l2.378-4.756C7.548,9.476,8.319,9,9.177,9h3.573
		C13.991,9,15,10.009,15,11.25V15h6.75c1.241,0,2.25,1.009,2.25,2.25v3c0,1.241-1.009,2.25-2.25,2.25h-2.379
		C19.058,23.385,18.21,24,17.25,24z M17.25,21c-0.414,0-0.75,0.336-0.75,0.75s0.336,0.75,0.75,0.75S18,22.164,18,21.75
		S17.664,21,17.25,21z M5.25,21c-0.414,0-0.75,0.336-0.75,0.75s0.336,0.75,0.75,0.75S6,22.164,6,21.75S5.664,21,5.25,21z M21.75,21
		c0.414,0,0.75-0.336,0.75-0.75v-3c0-0.414-0.336-0.75-0.75-0.75h-18c-1.241,0-2.25,1.009-2.25,2.25v1.5
		C1.5,20.664,1.836,21,2.25,21h0.879c0.314-0.885,1.162-1.5,2.121-1.5s1.808,0.615,2.121,1.5h7.757c0.314-0.885,1.162-1.5,2.121-1.5
		s1.808,0.615,2.121,1.5H21.75z M13.5,15v-3.75c0-0.414-0.336-0.75-0.75-0.75H9.177c-0.286,0-0.543,0.159-0.671,0.415L6.463,15H13.5
		z"/>
	<path d="M20.25,12.75c-0.414,0-0.75-0.336-0.75-0.75V9.644c-0.075-0.02-0.148-0.043-0.219-0.069
		c-1.478-0.534-2.246-2.171-1.712-3.649l1.976-5.432C19.653,0.198,19.936,0,20.25,0s0.597,0.198,0.705,0.494l1.975,5.431
		c0.226,0.626,0.226,1.314,0,1.938C22.613,8.741,21.889,9.4,21,9.644V12C21,12.414,20.664,12.75,20.25,12.75z M18.98,6.437
		c-0.122,0.337-0.105,0.704,0.049,1.03c0.153,0.327,0.424,0.574,0.763,0.697c0.148,0.053,0.302,0.081,0.458,0.081
		c0.568,0,1.078-0.358,1.271-0.891c0.107-0.296,0.107-0.622,0-0.918l-1.27-3.491L18.98,6.437z"/>
	<path d="M14.184,7.507c-0.314,0-0.597-0.198-0.705-0.494L12,2.945l-1.477,4.062C10.415,7.302,10.132,7.5,9.818,7.5l0,0
		c-0.087,0-0.173-0.015-0.256-0.045c-0.389-0.141-0.59-0.573-0.449-0.961l2.182-6C11.402,0.198,11.686,0,12,0
		c0.314,0,0.597,0.198,0.705,0.494l2.184,6.007c0.141,0.389-0.061,0.82-0.449,0.961C14.358,7.492,14.272,7.507,14.184,7.507z"/>
	<path d="M3.75,12.75C3.336,12.75,3,12.414,3,12V9.644c-0.075-0.02-0.148-0.043-0.219-0.069c-0.715-0.258-1.287-0.781-1.61-1.47
		c-0.324-0.69-0.36-1.464-0.101-2.178l1.975-5.432C3.152,0.198,3.436,0,3.75,0s0.598,0.198,0.705,0.494L6.43,5.925
		c0.226,0.626,0.226,1.314,0,1.939C6.172,8.579,5.65,9.151,4.96,9.475C4.814,9.544,4.66,9.6,4.5,9.643V12
		C4.5,12.414,4.164,12.75,3.75,12.75z M2.48,6.437C2.358,6.775,2.375,7.142,2.528,7.468c0.153,0.327,0.424,0.574,0.763,0.696
		c0.149,0.054,0.304,0.081,0.46,0.081c0.198,0,0.39-0.043,0.572-0.129C4.65,7.964,4.897,7.693,5.02,7.354
		c0.107-0.296,0.107-0.622,0-0.917L3.75,2.945L2.48,6.437z"/>
</g>
</svg>
