<?xml version="1.0" encoding="utf-8"?>
<!-- Generator: Adobe Illustrator 22.1.0, SVG Export Plug-In . SVG Version: 6.00 Build 0)  -->
<svg version="1.1" id="Layer_1" xmlns="http://www.w3.org/2000/svg" xmlns:xlink="http://www.w3.org/1999/xlink" x="0px" y="0px"
	 viewBox="0 0 24 24" style="enable-background:new 0 0 24 24;" xml:space="preserve">
<title>car-retro-1</title>
<g>
	<path d="M18.718,19.5c-0.96,0-1.808-0.615-2.121-1.5H7.339c-0.314,0.885-1.162,1.5-2.121,1.5S3.41,18.885,3.097,18H2.218
		c-0.032,0-0.065-0.001-0.097-0.002c-0.591-0.025-1.137-0.28-1.538-0.718c-0.401-0.437-0.607-1.004-0.581-1.597
		c0.185-4.112,1.378-7.247,3.546-9.318C5.811,4.204,8.56,3.75,10.468,3.75c5.497,0,8.12,5.236,8.771,6.775
		c2.672,0.26,4.744,2.509,4.761,5.22C24,16.99,22.991,18,21.75,18h-0.911C20.526,18.885,19.678,19.5,18.718,19.5z M18.718,16.5
		c-0.414,0-0.75,0.336-0.75,0.75S18.305,18,18.718,18s0.75-0.336,0.75-0.75S19.132,16.5,18.718,16.5z M5.218,16.5
		c-0.414,0-0.75,0.336-0.75,0.75S4.804,18,5.218,18s0.75-0.336,0.75-0.75S5.632,16.5,5.218,16.5z M2.044,12
		c-0.3,1.123-0.483,2.383-0.544,3.75c-0.008,0.191,0.059,0.375,0.188,0.517c0.13,0.142,0.307,0.225,0.499,0.233l0.04,0.001l0.869,0
		C3.41,15.615,4.258,15,5.218,15s1.808,0.615,2.121,1.5h9.257c0.314-0.885,1.162-1.5,2.121-1.5s1.808,0.615,2.121,1.5h0.911
		c0.414,0,0.75-0.336,0.75-0.75C22.488,13.683,20.793,12,18.723,12H2.044z M17.581,10.5c-0.839-1.711-3.055-5.231-7.081-5.25v5.25
		H17.581z M9,10.5V5.36C6.777,5.694,4.035,6.89,2.548,10.5H9z"/>
</g>
</svg>
