<?xml version="1.0" encoding="utf-8"?>
<!-- Generator: Adobe Illustrator 22.1.0, SVG Export Plug-In . SVG Version: 6.00 Build 0)  -->
<svg version="1.1" id="Layer_1" xmlns="http://www.w3.org/2000/svg" xmlns:xlink="http://www.w3.org/1999/xlink" x="0px" y="0px"
	 viewBox="0 0 24 24" style="enable-background:new 0 0 24 24;" xml:space="preserve">
<title>car-actions-settings</title>
<g>
	<path d="M3.75,16.501c-1.241,0-2.25-1.009-2.25-2.25v-0.879C0.615,13.059,0,12.211,0,11.251c0-0.612,0.127-1.208,0.377-1.771
		c0.012-0.03,0.025-0.059,0.041-0.087c0.218-0.464,0.508-0.879,0.863-1.233l1.824-1.824l1.643-4.388
		c0.436-1.165,1.565-1.947,2.808-1.947h8.885c1.243,0,2.372,0.782,2.808,1.947l1.641,4.383l2.89,2.89C23.922,9.362,24,9.55,24,9.751
		s-0.078,0.389-0.22,0.53s-0.33,0.22-0.53,0.22s-0.389-0.078-0.53-0.22l-2.78-2.78H4.061l-1.5,1.5H5.25C5.664,9.001,6,9.337,6,9.751
		s-0.336,0.75-0.75,0.75H1.602C1.534,10.747,1.5,10.999,1.5,11.251c0,0.413,0.336,0.75,0.75,0.75h6c0.414,0,0.75,0.336,0.75,0.75
		s-0.336,0.75-0.75,0.75H6v0.75C6,15.491,4.991,16.501,3.75,16.501z M3,14.251c0,0.414,0.336,0.75,0.75,0.75s0.75-0.336,0.75-0.75
		v-0.75H3V14.251z M19.166,6.001l-1.321-3.527c-0.218-0.582-0.782-0.973-1.404-0.973H7.557c-0.622,0-1.186,0.391-1.404,0.973
		L4.832,6.001H19.166z"/>
	<path d="M17.25,18.751c-1.241,0-2.25-1.009-2.25-2.25s1.009-2.25,2.25-2.25s2.25,1.009,2.25,2.25S18.491,18.751,17.25,18.751z
		 M17.25,15.751c-0.414,0-0.75,0.336-0.75,0.75s0.336,0.75,0.75,0.75S18,16.914,18,16.501S17.664,15.751,17.25,15.751z"/>
	<path d="M17.252,24c-0.202,0-0.404-0.03-0.6-0.089c-0.672-0.201-1.194-0.723-1.395-1.395l-0.441-1.45
		c-0.031-0.103-0.128-0.174-0.236-0.174c-0.018,0-0.036,0.002-0.054,0.006l-1.47,0.34c-0.156,0.035-0.312,0.053-0.468,0.053
		c-0.393,0-0.778-0.112-1.113-0.324c-0.472-0.298-0.799-0.762-0.922-1.306c-0.152-0.673,0.038-1.377,0.508-1.882l1.031-1.111
		c0.089-0.096,0.089-0.245,0.001-0.341l-1.032-1.112c-0.38-0.408-0.578-0.94-0.557-1.498c0.02-0.558,0.257-1.074,0.665-1.454
		c0.387-0.361,0.892-0.559,1.422-0.559c0.154,0,0.309,0.017,0.46,0.051l1.477,0.342c0.017,0.004,0.035,0.006,0.053,0.006
		c0.107,0,0.203-0.071,0.234-0.174l0.443-1.454c0.16-0.531,0.518-0.968,1.008-1.23c0.302-0.162,0.641-0.247,0.98-0.247
		c0.204,0,0.407,0.03,0.604,0.09c0.671,0.203,1.191,0.725,1.392,1.397l0.441,1.45c0.031,0.103,0.127,0.175,0.234,0.175
		c0.018,0,0.036-0.002,0.054-0.006l1.472-0.341c0.154-0.035,0.309-0.052,0.463-0.052c0.968,0,1.825,0.685,2.038,1.629
		c0.152,0.673-0.038,1.377-0.508,1.882l-1.031,1.11c-0.089,0.096-0.089,0.246,0,0.341l1.031,1.112
		c0.38,0.408,0.578,0.94,0.557,1.498c-0.02,0.557-0.256,1.074-0.665,1.454c-0.388,0.361-0.893,0.559-1.421,0.559l0,0
		c-0.155,0-0.31-0.017-0.461-0.052l-1.476-0.342c-0.017-0.004-0.035-0.006-0.053-0.006c-0.106,0-0.202,0.071-0.233,0.174
		l-0.443,1.449c-0.158,0.529-0.515,0.966-1.005,1.23C17.933,23.913,17.593,24,17.252,24z M14.581,19.392
		c0.763,0,1.451,0.51,1.671,1.239l0.442,1.452c0.057,0.19,0.203,0.336,0.39,0.392c0.055,0.016,0.112,0.025,0.168,0.025
		c0.096,0,0.188-0.023,0.274-0.07c0.136-0.073,0.236-0.196,0.281-0.344l0.443-1.451c0.22-0.728,0.907-1.237,1.671-1.237
		c0.13,0,0.261,0.015,0.389,0.044l1.473,0.342c0.039,0.009,0.082,0.013,0.125,0.013c0.149,0,0.291-0.056,0.401-0.158
		c0.115-0.107,0.182-0.253,0.188-0.41c0.006-0.157-0.05-0.307-0.157-0.423l-1.031-1.112c-0.621-0.668-0.621-1.715,0-2.383
		l1.031-1.11c0.133-0.143,0.187-0.341,0.144-0.531c-0.034-0.153-0.127-0.284-0.26-0.368c-0.095-0.06-0.203-0.092-0.314-0.092
		c-0.044,0-0.088,0.005-0.131,0.015l-1.468,0.34c-0.128,0.03-0.26,0.045-0.391,0.045c-0.762,0-1.449-0.51-1.669-1.239l-0.442-1.452
		c-0.057-0.192-0.202-0.338-0.39-0.395c-0.055-0.017-0.112-0.025-0.169-0.025c-0.095,0-0.187,0.023-0.273,0.069
		c-0.136,0.073-0.236,0.195-0.281,0.343l-0.443,1.455c-0.22,0.729-0.906,1.238-1.67,1.238c-0.131,0-0.262-0.015-0.39-0.044
		l-1.473-0.342c-0.039-0.009-0.082-0.013-0.125-0.013c-0.149,0-0.292,0.056-0.401,0.158c-0.115,0.107-0.182,0.253-0.188,0.41
		c-0.006,0.157,0.05,0.307,0.157,0.422l1.032,1.112c0.621,0.668,0.621,1.715,0,2.383L12.163,18.8
		c-0.133,0.143-0.187,0.341-0.144,0.531c0.035,0.154,0.127,0.284,0.26,0.369c0.094,0.06,0.203,0.091,0.313,0.091
		c0.044,0,0.088-0.005,0.132-0.015l1.467-0.34C14.319,19.407,14.45,19.392,14.581,19.392z"/>
</g>
</svg>
