<?xml version="1.0" encoding="utf-8"?>
<!-- Generator: Adobe Illustrator 22.1.0, SVG Export Plug-In . SVG Version: 6.00 Build 0)  -->
<svg version="1.1" id="Layer_1" xmlns="http://www.w3.org/2000/svg" xmlns:xlink="http://www.w3.org/1999/xlink" x="0px" y="0px"
	 viewBox="0 0 24 24" style="enable-background:new 0 0 24 24;" xml:space="preserve">
<title>car-actions-search</title>
<g>
	<path d="M3.75,16.5c-1.241,0-2.25-1.009-2.25-2.25v-0.879C0.615,13.058,0,12.21,0,11.25c0-0.612,0.127-1.208,0.377-1.772
		c0.012-0.03,0.025-0.059,0.041-0.087c0.218-0.464,0.508-0.878,0.863-1.233l1.824-1.824l1.643-4.388C5.184,0.782,6.313,0,7.556,0
		h8.885c1.243,0,2.372,0.782,2.808,1.947l1.641,4.383l1.829,1.829c0.355,0.355,0.645,0.77,0.863,1.234
		c0.017,0.031,0.032,0.064,0.045,0.097C23.871,10.034,24,10.634,24,11.25c0,0.414-0.336,0.75-0.75,0.75s-0.75-0.336-0.75-0.75
		c0-0.252-0.034-0.503-0.102-0.75h-1.361c-0.414,0-0.75-0.336-0.75-0.75S20.624,9,21.037,9h0.402l-1.5-1.5H4.061L2.561,9H5.25
		C5.664,9,6,9.336,6,9.75S5.664,10.5,5.25,10.5H1.602C1.534,10.746,1.5,10.998,1.5,11.25C1.5,11.664,1.836,12,2.25,12h6
		C8.664,12,9,12.336,9,12.75S8.664,13.5,8.25,13.5H6v0.75C6,15.491,4.991,16.5,3.75,16.5z M3,14.25C3,14.664,3.336,15,3.75,15
		s0.75-0.336,0.75-0.75V13.5H3V14.25z M19.166,6l-1.321-3.527C17.627,1.891,17.062,1.5,16.441,1.5H7.557
		c-0.622,0-1.186,0.391-1.404,0.973L4.832,6H19.166z"/>
	<path d="M23.25,24c-0.2,0-0.389-0.078-0.53-0.22l-3.293-3.293c-1.051,0.817-2.343,1.263-3.677,1.263c-3.308,0-6-2.692-6-6
		s2.692-6,6-6s6,2.692,6,6c0,1.333-0.446,2.626-1.263,3.677l3.293,3.293c0.292,0.292,0.292,0.768,0,1.061
		C23.639,23.922,23.45,24,23.25,24z M15.75,11.25c-2.481,0-4.5,2.019-4.5,4.5s2.019,4.5,4.5,4.5s4.5-2.019,4.5-4.5
		S18.231,11.25,15.75,11.25z"/>
</g>
</svg>
