<?xml version="1.0" encoding="utf-8"?>
<!-- Generator: Adobe Illustrator 22.1.0, SVG Export Plug-In . SVG Version: 6.00 Build 0)  -->
<svg version="1.1" id="Layer_1" xmlns="http://www.w3.org/2000/svg" xmlns:xlink="http://www.w3.org/1999/xlink" x="0px" y="0px"
	 viewBox="0 0 24 24" style="enable-background:new 0 0 24 24;" xml:space="preserve">
<title>car-repair-24h-service</title>
<g>
	<path d="M17.25,12.75c-0.414,0-0.75-0.336-0.75-0.75v-1.5h-2.25c-0.414,0-0.75-0.336-0.75-0.75V9c0-2.068,1.682-3.75,3.75-3.75
		C17.663,5.25,18,5.587,18,6v6C18,12.414,17.663,12.75,17.25,12.75z M16.5,9V6.879C15.62,7.192,15,8.038,15,9H16.5z"/>
	<path d="M8.25,12.75c-0.286,0-0.552-0.167-0.676-0.425c-0.124-0.259-0.089-0.57,0.09-0.794l2.531-3.164
		C10.391,8.122,10.5,7.814,10.5,7.5c0-0.414-0.336-0.75-0.75-0.75S9,7.087,9,7.5S8.663,8.25,8.25,8.25S7.5,7.914,7.5,7.5
		c0-1.241,1.009-2.25,2.25-2.25S12,6.26,12,7.5c0,0.654-0.225,1.295-0.634,1.805L9.81,11.25h1.44c0.414,0,0.75,0.336,0.75,0.75
		c0,0.414-0.336,0.75-0.75,0.75H8.25z"/>
	<path d="M12.612,23.253c-3.968-0.049-7.657-2.219-9.627-5.663c-0.205-0.359-0.08-0.818,0.279-1.024
		c0.113-0.065,0.241-0.099,0.372-0.099c0.268,0,0.518,0.145,0.651,0.377c1.708,2.985,4.904,4.866,8.343,4.908l0.096,0
		c2.574,0,5.001-0.984,6.833-2.771c1.864-1.818,2.908-4.254,2.94-6.859c0.032-2.604-0.952-5.065-2.77-6.929
		c-1.819-1.864-4.254-2.908-6.859-2.94l-0.152-0.001c-2.538,0-4.945,0.984-6.777,2.772c-1.482,1.446-2.46,3.32-2.802,5.344
		l0.916-0.618C4.18,9.668,4.325,9.623,4.474,9.623c0.25,0,0.483,0.124,0.622,0.331c0.112,0.166,0.153,0.366,0.114,0.563
		s-0.151,0.367-0.317,0.479l-2.225,1.5c-0.014,0.01-0.033,0.02-0.051,0.029c-0.034,0.02-0.076,0.039-0.119,0.055
		c-0.025,0.009-0.044,0.014-0.064,0.02c-0.061,0.017-0.125,0.026-0.188,0.026c-0.062-0.001-0.118-0.008-0.177-0.023
		c0,0-0.002,0-0.002,0c-0.052-0.013-0.103-0.032-0.152-0.057c-0.007-0.003-0.026-0.014-0.032-0.017
		c-0.041-0.024-0.076-0.047-0.108-0.074c-0.011-0.009-0.024-0.02-0.037-0.031c-0.032-0.03-0.059-0.06-0.083-0.092
		c-0.011-0.013-0.022-0.027-0.031-0.04l-1.497-2.221C0.016,9.901-0.025,9.701,0.013,9.505S0.164,9.138,0.33,9.026
		c0.124-0.084,0.269-0.128,0.419-0.128c0.25,0,0.483,0.124,0.622,0.331l0.353,0.523c0.443-2.209,1.527-4.199,3.169-5.801
		c2.113-2.062,4.909-3.197,7.873-3.197l0.121,0.001c3.005,0.037,5.816,1.242,7.914,3.393c2.099,2.151,3.234,4.99,3.197,7.995
		c-0.037,3.005-1.242,5.815-3.393,7.914c-2.114,2.062-4.902,3.198-7.853,3.198L12.612,23.253z"/>
	<path d="M16.5,18.75c-0.96,0-1.808-0.615-2.121-1.5h-3.257c-0.314,0.885-1.162,1.5-2.121,1.5c-0.414,0-0.75-0.336-0.75-0.75
		S8.586,17.25,9,17.25s0.75-0.336,0.75-0.75S9.413,15.75,9,15.75S8.25,15.414,8.25,15S8.586,14.25,9,14.25
		c0.96,0,1.808,0.615,2.121,1.5h3.257c0.314-0.885,1.162-1.5,2.121-1.5c0.414,0,0.75,0.336,0.75,0.75s-0.336,0.75-0.75,0.75
		s-0.75,0.336-0.75,0.75s0.336,0.75,0.75,0.75s0.75,0.336,0.75,0.75S16.913,18.75,16.5,18.75z"/>
</g>
</svg>
