<?xml version="1.0" encoding="utf-8"?>
<!-- Generator: Adobe Illustrator 22.1.0, SVG Export Plug-In . SVG Version: 6.00 Build 0)  -->
<svg version="1.1" id="Layer_1" xmlns="http://www.w3.org/2000/svg" xmlns:xlink="http://www.w3.org/1999/xlink" x="0px" y="0px"
	 viewBox="0 0 24 24" style="enable-background:new 0 0 24 24;" xml:space="preserve">
<title>car-wagon-1</title>
<g>
	<path d="M15.75,19.5c-0.96,0-1.808-0.615-2.121-1.5H7.372c-0.314,0.885-1.162,1.5-2.121,1.5S3.443,18.885,3.129,18H2.25
		C1.01,18,0,16.991,0,15.75v-4.5c0-3.082,2.085-5.771,5.071-6.538c0.008-0.002,0.032-0.008,0.04-0.009C5.631,4.57,6.19,4.5,6.75,4.5
		h3.396c1.429,0,2.714,0.794,3.354,2.072l1.963,3.928h4.496l-0.421-1.263c-0.063-0.19-0.049-0.393,0.041-0.572
		c0.09-0.179,0.244-0.313,0.434-0.376C20.09,8.263,20.17,8.25,20.25,8.25c0.323,0,0.609,0.206,0.711,0.513l0.604,1.812
		c0.793,0.204,1.416,0.823,1.617,1.629l0.75,3C23.977,15.382,24,15.565,24,15.75C24,16.99,22.991,18,21.75,18h-3.879
		C17.558,18.885,16.71,19.5,15.75,19.5z M15.75,16.5c-0.414,0-0.75,0.336-0.75,0.75S15.337,18,15.75,18s0.75-0.336,0.75-0.75
		S16.164,16.5,15.75,16.5z M5.25,16.5c-0.414,0-0.75,0.336-0.75,0.75S4.837,18,5.25,18S6,17.664,6,17.25S5.664,16.5,5.25,16.5z
		 M21.75,16.5c0.414,0,0.75-0.337,0.75-0.75c0-0.061-0.008-0.122-0.022-0.181l-0.75-3C21.644,12.234,21.345,12,21,12H1.5v3.75
		c0,0.414,0.336,0.75,0.75,0.75h0.879C3.443,15.615,4.291,15,5.25,15s1.808,0.615,2.121,1.5h6.257c0.314-0.885,1.162-1.5,2.121-1.5
		s1.808,0.615,2.121,1.5H21.75z M13.787,10.5l-1.628-3.257C11.775,6.476,11.004,6,10.146,6H6.75C6.499,6,6.248,6.018,6,6.054V10.5
		H13.787z M4.5,10.5V6.508C2.913,7.261,1.805,8.758,1.555,10.5H4.5z"/>
</g>
</svg>
