<?xml version="1.0" encoding="utf-8"?>
<!-- Generator: Adobe Illustrator 22.1.0, SVG Export Plug-In . SVG Version: 6.00 Build 0)  -->
<svg version="1.1" id="Layer_1" xmlns="http://www.w3.org/2000/svg" xmlns:xlink="http://www.w3.org/1999/xlink" x="0px" y="0px"
	 viewBox="0 0 24 24" style="enable-background:new 0 0 24 24;" xml:space="preserve">
<title>car-voyage-1</title>
<g>
	<path d="M20.25,24C19.009,24,18,22.991,18,21.75V21H6v0.75C6,22.991,4.991,24,3.75,24S1.5,22.991,1.5,21.75v-0.879
		C0.615,20.558,0,19.71,0,18.75c0-1.167,0.455-2.265,1.281-3.091l1.824-1.824l1.643-4.388C5,8.774,5.488,8.217,6.115,7.873
		C6.039,7.675,6,7.465,6,7.25V5.5c0-0.887,0.663-1.622,1.52-1.735C7.507,3.678,7.5,3.59,7.5,3.5V1.75C7.5,0.785,8.285,0,9.25,0h5.5
		c0.965,0,1.75,0.785,1.75,1.75V3.5c0,0.09-0.007,0.178-0.02,0.265C17.337,3.878,18,4.613,18,5.5v1.75
		c0,0.216-0.039,0.426-0.116,0.624c0.626,0.344,1.113,0.901,1.365,1.573l1.641,4.383l1.829,1.829C23.545,16.485,24,17.582,24,18.75
		c0,0.96-0.615,1.808-1.5,2.121v0.879C22.5,22.991,21.491,24,20.25,24z M19.5,21.75c0,0.414,0.336,0.75,0.75,0.75
		S21,22.164,21,21.75V21h-1.5V21.75z M3,21.75c0,0.414,0.336,0.75,0.75,0.75s0.75-0.336,0.75-0.75V21H3V21.75z M2.341,16.719
		C1.799,17.262,1.5,17.983,1.5,18.75c0,0.414,0.336,0.75,0.75,0.75h19.5c0.414,0,0.75-0.336,0.75-0.75
		c0-0.767-0.299-1.488-0.841-2.031L19.939,15H4.061L2.341,16.719z M19.166,13.5l-1.321-3.527C17.627,9.391,17.062,9,16.441,9H7.557
		C6.935,9,6.37,9.391,6.152,9.973L4.832,13.5H19.166z M16.25,7.5c0.138,0,0.25-0.112,0.25-0.25V5.5c0-0.138-0.112-0.25-0.25-0.25H15
		V7.5H16.25z M13.5,7.5V5.25h-3V7.5H13.5z M7.75,5.25C7.612,5.25,7.5,5.362,7.5,5.5v1.75c0,0.138,0.112,0.25,0.25,0.25H9V5.25H7.75z
		 M9.25,1.5C9.112,1.5,9,1.612,9,1.75V3.5c0,0.138,0.112,0.25,0.25,0.25h5.5C14.888,3.75,15,3.638,15,3.5V1.75
		c0-0.138-0.112-0.25-0.25-0.25H9.25z"/>
</g>
</svg>
