<?xml version="1.0" encoding="utf-8"?>
<!-- Generator: Adobe Illustrator 22.1.0, SVG Export Plug-In . SVG Version: 6.00 Build 0)  -->
<svg version="1.1" id="Layer_1" xmlns="http://www.w3.org/2000/svg" xmlns:xlink="http://www.w3.org/1999/xlink" x="0px" y="0px"
	 viewBox="0 0 24 24" style="enable-background:new 0 0 24 24;" xml:space="preserve">
<title>car-dashboard-fuel</title>
<g>
	<path d="M2.5,17c-1.241,0-2.25-1.009-2.25-2.25V9.5c0-1.241,1.009-2.25,2.25-2.25h3.75v-1.5H4C3.586,5.75,3.25,5.414,3.25,5
		S3.586,4.25,4,4.25h6c0.414,0,0.75,0.336,0.75,0.75S10.414,5.75,10,5.75H7.75v1.5h0.974c0.509,0,1.009,0.175,1.406,0.494
		l2.738,2.186c0.133,0.106,0.3,0.165,0.47,0.165c0.069,0,0.138-0.01,0.205-0.029l4.501-1.287c0.065-0.018,0.132-0.027,0.205-0.027
		L18.3,8.753c0.068,0.005,0.129,0.016,0.188,0.036l2.249,0.75c0.19,0.063,0.344,0.197,0.434,0.376
		c0.089,0.179,0.104,0.382,0.041,0.572C21.11,10.794,20.823,11,20.5,11c-0.081,0-0.161-0.013-0.238-0.039l-1.746-0.582l-3.124,4.015
		C14.104,16.05,12.162,17,10.064,17H2.5z M2.5,8.75c-0.414,0-0.75,0.336-0.75,0.75v5.25c0,0.414,0.336,0.75,0.75,0.75h7.564
		c1.632,0,3.142-0.739,4.144-2.026l2.039-2.621l-2.292,0.655c-0.2,0.057-0.408,0.086-0.617,0.086c-0.51,0-1.01-0.175-1.407-0.493
		L9.193,8.915C9.06,8.809,8.894,8.75,8.724,8.75H2.5z"/>
	<path d="M20.594,21.5c-1.602,0-2.906-1.304-2.906-2.906c0-1.295,1.52-4.344,2.906-4.344s2.906,3.049,2.906,4.344
		C23.5,20.196,22.196,21.5,20.594,21.5z M20.592,15.805c-0.401,0.369-1.404,1.891-1.404,2.789c0,0.775,0.631,1.406,1.406,1.406
		S22,19.369,22,18.594C22,17.691,20.994,16.172,20.592,15.805z"/>
</g>
</svg>
