<?xml version="1.0" encoding="utf-8"?>
<!-- Generator: Adobe Illustrator 22.1.0, SVG Export Plug-In . SVG Version: 6.00 Build 0)  -->
<svg version="1.1" id="Layer_1" xmlns="http://www.w3.org/2000/svg" xmlns:xlink="http://www.w3.org/1999/xlink" x="0px" y="0px"
	 viewBox="0 0 24 24" style="enable-background:new 0 0 24 24;" xml:space="preserve">
<title>car-insurance</title>
<g>
	<path d="M8.25,23.25C3.701,23.25,0,19.549,0,15V3c0-1.241,1.009-2.25,2.25-2.25H6c0.414,0,0.75,0.336,0.75,0.75S6.414,2.25,6,2.25
		H2.25C1.836,2.25,1.5,2.586,1.5,3v12c0,3.722,3.028,6.75,6.75,6.75h7.5c3.722,0,6.75-3.028,6.75-6.75V3
		c0-0.414-0.336-0.75-0.75-0.75H18c-0.414,0-0.75-0.336-0.75-0.75S17.586,0.75,18,0.75h3.75C22.991,0.75,24,1.759,24,3v12
		c0,4.549-3.701,8.25-8.25,8.25H8.25z"/>
	<path d="M8.25,13.5c-0.414,0-0.75-0.336-0.75-0.75S7.836,12,8.25,12h1.5c0.414,0,0.75,0.336,0.75,0.75s-0.336,0.75-0.75,0.75H8.25z
		"/>
	<path d="M14.25,13.5c-0.414,0-0.75-0.336-0.75-0.75S13.836,12,14.25,12h1.5c0.414,0,0.75,0.336,0.75,0.75s-0.336,0.75-0.75,0.75
		H14.25z"/>
	<path d="M17.25,18c-0.414,0-0.75-0.336-0.75-0.75v-0.746h-9v0.746C7.5,17.664,7.164,18,6.75,18S6,17.664,6,17.25v-0.874
		c-0.886-0.313-1.502-1.161-1.502-2.122v-1.8c0-0.446,0.131-0.877,0.378-1.248L6.07,9.417l1.126-3.378
		C7.503,5.118,8.361,4.5,9.331,4.5h5.338c0.97,0,1.828,0.619,2.135,1.539l1.126,3.378l1.196,1.792
		c0.245,0.372,0.374,0.803,0.372,1.248v1.797c0,0.959-0.614,1.806-1.498,2.121v0.875C18,17.664,17.664,18,17.25,18z M17.188,15.004
		C17.209,15.001,17.229,15,17.25,15c0.009,0,0.02,0,0.031,0.001c0.397-0.018,0.717-0.349,0.717-0.748v-1.8
		c0.001-0.15-0.042-0.295-0.124-0.418L16.849,10.5H7.151l-1.027,1.538c-0.082,0.123-0.126,0.267-0.126,0.416v1.8
		c0,0.4,0.321,0.731,0.72,0.748C6.729,15,6.741,15,6.75,15c0.021,0,0.042,0.001,0.062,0.004H17.188z M16.209,9l-0.829-2.487
		C15.278,6.206,14.992,6,14.669,6H9.331C9.008,6,8.722,6.206,8.62,6.513L7.791,9H16.209z"/>
</g>
</svg>
