<?xml version="1.0" encoding="utf-8"?>
<!-- Generator: Adobe Illustrator 22.1.0, SVG Export Plug-In . SVG Version: 6.00 Build 0)  -->
<svg version="1.1" id="Layer_1" xmlns="http://www.w3.org/2000/svg" xmlns:xlink="http://www.w3.org/1999/xlink" x="0px" y="0px"
	 viewBox="0 0 24 24" style="enable-background:new 0 0 24 24;" xml:space="preserve">
<title>car-key-1</title>
<g>
	<path d="M18.75,24c-0.96,0-1.808-0.615-2.121-1.5H8.871C8.558,23.385,7.71,24,6.75,24s-1.808-0.615-2.121-1.5H2.25
		C1.009,22.5,0,21.491,0,20.25v-1.5C0,16.682,1.682,15,3.75,15h1.786l1.624-3.256C7.544,10.977,8.315,10.5,9.173,10.5h7.9
		c0.858,0,1.629,0.476,2.013,1.244l1.643,3.287C22.58,15.268,24,16.861,24,18.75v1.5c0,1.241-1.009,2.25-2.25,2.25h-0.879
		C20.558,23.385,19.71,24,18.75,24z M18.75,21C18.336,21,18,21.336,18,21.75s0.336,0.75,0.75,0.75s0.75-0.336,0.75-0.75
		S19.164,21,18.75,21z M6.75,21C6.336,21,6,21.336,6,21.75s0.336,0.75,0.75,0.75s0.75-0.336,0.75-0.75S7.164,21,6.75,21z M21.75,21
		c0.414,0,0.75-0.336,0.75-0.75v-1.5c0-1.241-1.009-2.25-2.25-2.25H3.75c-1.241,0-2.25,1.009-2.25,2.25v1.5
		C1.5,20.664,1.836,21,2.25,21h2.379c0.314-0.885,1.162-1.5,2.121-1.5s1.808,0.615,2.121,1.5h7.757c0.314-0.885,1.162-1.5,2.121-1.5
		s1.808,0.615,2.121,1.5H21.75z M19.037,15l-1.292-2.586C17.616,12.159,17.359,12,17.073,12H9.173c-0.286,0-0.543,0.159-0.671,0.414
		L7.212,15H19.037z"/>
	<path d="M8.25,7.5C6.182,7.5,4.5,5.818,4.5,3.75S6.182,0,8.25,0c1.799,0,3.323,1.268,3.673,3h6.827c0.414,0,0.75,0.336,0.75,0.75V6
		c0,0.414-0.336,0.75-0.75,0.75S18,6.414,18,6V4.5h-1.5v0.75C16.5,5.664,16.164,6,15.75,6S15,5.664,15,5.25V4.5h-3.077
		C11.573,6.232,10.049,7.5,8.25,7.5z M8.25,1.5C7.009,1.5,6,2.509,6,3.75S7.009,6,8.25,6s2.25-1.009,2.25-2.25S9.491,1.5,8.25,1.5z"
		/>
</g>
</svg>
