<?xml version="1.0" encoding="utf-8"?>
<!-- Generator: Adobe Illustrator 22.1.0, SVG Export Plug-In . SVG Version: 6.00 Build 0)  -->
<svg version="1.1" id="Layer_1" xmlns="http://www.w3.org/2000/svg" xmlns:xlink="http://www.w3.org/1999/xlink" x="0px" y="0px"
	 viewBox="0 0 24 24" style="enable-background:new 0 0 24 24;" xml:space="preserve">
<title>car-tool-battery-bolt</title>
<g>
	<path d="M1.75,21.5C0.785,21.5,0,20.715,0,19.75v-13C0,5.785,0.785,5,1.75,5H3V3.75C3,2.785,3.785,2,4.75,2h2.5
		C8.215,2,9,2.785,9,3.75V5h6V3.75C15,2.785,15.785,2,16.75,2h2.5C20.215,2,21,2.785,21,3.75V5h1.25C23.215,5,24,5.785,24,6.75v13
		c0,0.965-0.785,1.75-1.75,1.75H1.75z M1.75,6.5C1.612,6.5,1.5,6.612,1.5,6.75v13C1.5,19.888,1.612,20,1.75,20h20.5
		c0.138,0,0.25-0.112,0.25-0.25v-13c0-0.138-0.112-0.25-0.25-0.25H1.75z M19.5,5V3.75c0-0.138-0.112-0.25-0.25-0.25h-2.5
		c-0.138,0-0.25,0.112-0.25,0.25V5H19.5z M7.5,5V3.75c0-0.138-0.112-0.25-0.25-0.25h-2.5C4.612,3.5,4.5,3.612,4.5,3.75V5H7.5z"/>
	<path d="M11.25,18.5c-0.115,0-0.231-0.027-0.335-0.079c-0.37-0.185-0.52-0.636-0.336-1.006L12.287,14H9.75
		c-0.262,0-0.5-0.133-0.638-0.355c-0.138-0.223-0.15-0.496-0.033-0.73l2.25-4.5C11.458,8.159,11.715,8,12.001,8
		c0.115,0,0.231,0.027,0.334,0.079c0.37,0.185,0.521,0.636,0.336,1.006L10.964,12.5H13.5c0.258,0,0.502,0.136,0.638,0.355
		c0.138,0.224,0.15,0.496,0.033,0.73l-2.25,4.5C11.793,18.341,11.536,18.5,11.25,18.5z"/>
</g>
</svg>
