<?xml version="1.0" encoding="utf-8"?>
<!-- Generator: Adobe Illustrator 22.1.0, SVG Export Plug-In . SVG Version: 6.00 Build 0)  -->
<svg version="1.1" id="Layer_1" xmlns="http://www.w3.org/2000/svg" xmlns:xlink="http://www.w3.org/1999/xlink" x="0px" y="0px"
	 viewBox="0 0 24 24" style="enable-background:new 0 0 24 24;" xml:space="preserve">
<title>car-dashboard-gear-automatic</title>
<g>
	<path d="M21.5,15c-0.251,0-0.485-0.125-0.624-0.334l-1.626-2.439v2.023c0,0.414-0.336,0.75-0.75,0.75s-0.75-0.336-0.75-0.75v-4.5
		c0-0.333,0.214-0.621,0.533-0.718C18.354,9.011,18.427,9,18.5,9c0.251,0,0.485,0.125,0.624,0.334l1.626,2.439V9.75
		C20.75,9.336,21.086,9,21.5,9s0.75,0.336,0.75,0.75v4.5c0,0.333-0.214,0.621-0.533,0.718C21.648,14.989,21.574,15,21.5,15z"/>
	<path d="M18.5,24c-0.414,0-0.75-0.336-0.75-0.75v-6c0-0.414,0.336-0.75,0.75-0.75c2.068,0,3.75,1.682,3.75,3.75S20.568,24,18.5,24z
		 M19.25,22.371c0.879-0.313,1.5-1.159,1.5-2.121s-0.621-1.808-1.5-2.121V22.371z"/>
	<path d="M18.5,7.5c-0.414,0-0.75-0.336-0.75-0.75v-6C17.75,0.336,18.086,0,18.5,0H20c1.241,0,2.25,1.009,2.25,2.25
		S21.241,4.5,20,4.5h-0.75v2.25C19.25,7.164,18.914,7.5,18.5,7.5z M20,3c0.414,0,0.75-0.336,0.75-0.75S20.414,1.5,20,1.5h-0.75V3H20
		z"/>
	<path d="M11,21c-1.241,0-2.25-1.009-2.25-2.25v-4.5c0-0.414-0.336-0.75-0.75-0.75H6.5c-1.241,0-2.25-1.009-2.25-2.25V7.423
		c-1.732-0.351-3-1.874-3-3.673C1.25,1.682,2.932,0,5,0s3.75,1.682,3.75,3.75c0,1.799-1.268,3.323-3,3.673v3.827
		C5.75,11.664,6.086,12,6.5,12H8c1.241,0,2.25,1.009,2.25,2.25v4.5c0,0.414,0.336,0.75,0.75,0.75h3c0.414,0,0.75,0.336,0.75,0.75
		S14.414,21,14,21H11z M5,1.5c-1.241,0-2.25,1.009-2.25,2.25S3.759,6,5,6s2.25-1.009,2.25-2.25S6.241,1.5,5,1.5z"/>
</g>
</svg>
