<?xml version="1.0" encoding="utf-8"?>
<!-- Generator: Adobe Illustrator 22.1.0, SVG Export Plug-In . SVG Version: 6.00 Build 0)  -->
<svg version="1.1" id="Layer_1" xmlns="http://www.w3.org/2000/svg" xmlns:xlink="http://www.w3.org/1999/xlink" x="0px" y="0px"
	 viewBox="0 0 24 24" style="enable-background:new 0 0 24 24;" xml:space="preserve">
<title>car-repair-wash-2</title>
<g>
	<path d="M20.25,24C19.009,24,18,22.991,18,21.75V21H6v0.75C6,22.991,4.991,24,3.75,24S1.5,22.991,1.5,21.75v-0.879
		C0.615,20.558,0,19.71,0,18.75c0-0.612,0.127-1.208,0.377-1.771c0.012-0.03,0.025-0.058,0.04-0.086
		c0.218-0.464,0.508-0.879,0.863-1.234l1.824-1.824l1.643-4.388C5.184,8.282,6.313,7.5,7.556,7.5h8.885
		c1.243,0,2.372,0.782,2.808,1.947l1.641,4.383l1.829,1.829c0.354,0.355,0.645,0.77,0.863,1.233
		c0.015,0.028,0.029,0.057,0.041,0.087C23.873,17.542,24,18.138,24,18.75c0,0.96-0.615,1.808-1.5,2.122v0.879
		C22.5,22.991,21.491,24,20.25,24z M19.5,21.75c0,0.414,0.336,0.75,0.75,0.75S21,22.164,21,21.75V21h-1.5V21.75z M3,21.75
		c0,0.414,0.336,0.75,0.75,0.75s0.75-0.336,0.75-0.75V21H3V21.75z M1.602,18C1.534,18.246,1.5,18.498,1.5,18.75
		c0,0.414,0.336,0.75,0.75,0.75h19.5c0.414,0,0.75-0.336,0.75-0.75c0-0.252-0.034-0.503-0.102-0.75H18.75
		C18.336,18,18,17.664,18,17.25s0.336-0.75,0.75-0.75h2.689l-1.5-1.5H4.061l-1.5,1.5H5.25C5.664,16.5,6,16.836,6,17.25
		S5.664,18,5.25,18H1.602z M19.166,13.5l-1.321-3.527C17.627,9.391,17.062,9,16.441,9H7.557C6.935,9,6.37,9.391,6.152,9.973
		L4.832,13.5H19.166z"/>
	<path d="M12,2.625c-0.044,0-0.088-0.004-0.131-0.012c-0.513-0.06-0.922-0.47-0.982-0.982c-0.008-0.043-0.012-0.087-0.012-0.131
		s0.004-0.088,0.012-0.131c0.06-0.513,0.47-0.922,0.982-0.982C11.912,0.379,11.956,0.375,12,0.375s0.088,0.004,0.131,0.012
		c0.513,0.06,0.922,0.47,0.983,0.983c0.007,0.042,0.011,0.086,0.011,0.13s-0.004,0.088-0.011,0.13
		c-0.061,0.513-0.47,0.922-0.983,0.983C12.088,2.621,12.044,2.625,12,2.625z"/>
	<path d="M12,5.625c-0.044,0-0.088-0.004-0.131-0.012c-0.513-0.06-0.922-0.47-0.982-0.982c-0.008-0.043-0.012-0.087-0.012-0.131
		s0.004-0.088,0.012-0.131c0.06-0.513,0.47-0.922,0.982-0.982C11.912,3.379,11.956,3.375,12,3.375s0.088,0.004,0.131,0.012
		c0.513,0.06,0.922,0.47,0.983,0.983c0.007,0.042,0.011,0.086,0.011,0.13s-0.004,0.088-0.011,0.13
		c-0.061,0.513-0.47,0.922-0.983,0.983C12.088,5.621,12.044,5.625,12,5.625z"/>
	<path d="M4.5,5.625c-0.044,0-0.088-0.004-0.131-0.012c-0.513-0.06-0.922-0.47-0.982-0.982C3.379,4.589,3.375,4.545,3.375,4.5
		c0-0.044,0.004-0.088,0.012-0.131c0.06-0.513,0.47-0.922,0.982-0.982C4.411,3.379,4.455,3.375,4.5,3.375
		c0.044,0,0.088,0.004,0.131,0.012c0.513,0.06,0.922,0.47,0.982,0.982C5.621,4.411,5.625,4.455,5.625,4.5
		c0,0.044-0.004,0.088-0.012,0.131c-0.06,0.513-0.47,0.922-0.982,0.982C4.589,5.621,4.545,5.625,4.5,5.625z"/>
	<path d="M8.25,4.125c-0.044,0-0.088-0.004-0.131-0.012c-0.513-0.06-0.922-0.47-0.982-0.982C7.129,3.088,7.125,3.044,7.125,3
		s0.004-0.088,0.012-0.131c0.06-0.513,0.47-0.922,0.982-0.982C8.162,1.879,8.206,1.875,8.25,1.875s0.088,0.004,0.131,0.012
		c0.513,0.06,0.922,0.47,0.982,0.982C9.371,2.912,9.375,2.956,9.375,3S9.371,3.088,9.363,3.131c-0.06,0.513-0.47,0.922-0.982,0.982
		C8.338,4.121,8.294,4.125,8.25,4.125z"/>
	<path d="M19.5,5.625c-0.044,0-0.088-0.004-0.131-0.011c-0.513-0.06-0.922-0.47-0.982-0.983c-0.008-0.042-0.011-0.086-0.011-0.13
		s0.004-0.088,0.011-0.13c0.06-0.513,0.47-0.923,0.982-0.983c0.043-0.008,0.087-0.011,0.131-0.011s0.088,0.004,0.131,0.011
		c0.513,0.06,0.922,0.47,0.983,0.983c0.007,0.042,0.011,0.086,0.011,0.13s-0.004,0.088-0.011,0.13
		c-0.061,0.513-0.47,0.923-0.983,0.983C19.588,5.621,19.544,5.625,19.5,5.625z"/>
	<path d="M15.75,4.125c-0.044,0-0.088-0.004-0.131-0.011c-0.513-0.06-0.922-0.47-0.983-0.983C14.629,3.088,14.625,3.044,14.625,3
		s0.004-0.088,0.011-0.13c0.06-0.513,0.47-0.922,0.982-0.983c0.043-0.008,0.087-0.012,0.131-0.012s0.088,0.004,0.131,0.011
		c0.513,0.06,0.922,0.47,0.983,0.983c0.007,0.042,0.011,0.086,0.011,0.13s-0.004,0.088-0.011,0.13
		c-0.061,0.513-0.47,0.922-0.983,0.983C15.838,4.121,15.794,4.125,15.75,4.125z"/>
</g>
</svg>
