<?xml version="1.0" encoding="utf-8"?>
<!-- Generator: Adobe Illustrator 22.1.0, SVG Export Plug-In . SVG Version: 6.00 Build 0)  -->
<svg version="1.1" id="Layer_1" xmlns="http://www.w3.org/2000/svg" xmlns:xlink="http://www.w3.org/1999/xlink" x="0px" y="0px"
	 viewBox="0 0 24 24" style="enable-background:new 0 0 24 24;" xml:space="preserve">
<title>car-voyage</title>
<g>
	<path d="M19.875,18c-0.044,0-0.088-0.004-0.13-0.011c-0.513-0.06-0.923-0.47-0.983-0.983c-0.007-0.042-0.011-0.086-0.011-0.13
		s0.004-0.088,0.011-0.131c0.06-0.513,0.47-0.923,0.983-0.983c0.042-0.008,0.086-0.011,0.131-0.011s0.088,0.004,0.131,0.011
		c0.513,0.06,0.923,0.47,0.983,0.983C20.996,16.787,21,16.831,21,16.875s-0.004,0.088-0.011,0.131
		c-0.06,0.513-0.47,0.923-0.983,0.983C19.963,17.996,19.919,18,19.875,18z"/>
	<path d="M4.125,18c-0.044,0-0.088-0.004-0.13-0.011c-0.513-0.06-0.922-0.47-0.983-0.982C3.004,16.963,3,16.919,3,16.875
		s0.004-0.088,0.011-0.131c0.06-0.513,0.47-0.922,0.983-0.983c0.042-0.007,0.086-0.011,0.13-0.011s0.088,0.004,0.13,0.011
		c0.513,0.061,0.922,0.47,0.983,0.983c0.008,0.043,0.012,0.087,0.012,0.131s-0.004,0.088-0.011,0.131
		c-0.06,0.513-0.47,0.922-0.983,0.983C4.213,17.996,4.169,18,4.125,18z"/>
	<path d="M21,24c-1.241,0-2.25-1.009-2.25-2.25V21H5.25v0.75C5.25,22.991,4.241,24,3,24s-2.25-1.009-2.25-2.25v-1.065
		C0.282,20.36,0,19.829,0,19.25V15.5c0-1.435,1.105-2.617,2.51-2.74l1.506-3.357c0.327-0.877,1.097-1.553,2.021-1.8
		C6.012,7.487,6,7.369,6,7.25V5.5c0-0.887,0.663-1.622,1.52-1.735C7.507,3.678,7.5,3.59,7.5,3.5V1.75C7.5,0.785,8.285,0,9.25,0h5.5
		c0.965,0,1.75,0.785,1.75,1.75V3.5c0,0.09-0.007,0.178-0.02,0.265C17.337,3.878,18,4.613,18,5.5v1.75
		c0,0.119-0.012,0.237-0.037,0.354c0.925,0.249,1.699,0.936,2.039,1.843l1.488,3.314C22.898,12.886,24,14.067,24,15.5v3.75
		c0,0.579-0.282,1.11-0.75,1.435v1.065C23.25,22.991,22.241,24,21,24z M20.25,21.75c0,0.414,0.336,0.75,0.75,0.75
		s0.75-0.336,0.75-0.75V21h-1.5V21.75z M2.25,21.75c0,0.414,0.336,0.75,0.75,0.75s0.75-0.336,0.75-0.75V21h-1.5V21.75z M2.75,14.25
		c-0.689,0-1.25,0.561-1.25,1.25v3.75c0,0.138,0.112,0.25,0.25,0.25h20.5c0.138,0,0.25-0.112,0.25-0.25V15.5
		c0-0.689-0.561-1.25-1.25-1.25H2.75z M19.842,12.75l-1.226-2.733C18.383,9.4,17.815,9,17.194,9H6.807
		C6.185,9,5.62,9.391,5.402,9.973L4.158,12.75H19.842z M16.25,7.5c0.138,0,0.25-0.112,0.25-0.25V5.5c0-0.138-0.112-0.25-0.25-0.25
		H15V7.5H16.25z M13.5,7.5V5.25h-3V7.5H13.5z M7.75,5.25C7.612,5.25,7.5,5.362,7.5,5.5v1.75c0,0.138,0.112,0.25,0.25,0.25H9V5.25
		H7.75z M9.25,1.5C9.112,1.5,9,1.612,9,1.75V3.5c0,0.138,0.112,0.25,0.25,0.25h5.5C14.888,3.75,15,3.638,15,3.5V1.75
		c0-0.138-0.112-0.25-0.25-0.25H9.25z"/>
</g>
</svg>
