<?xml version="1.0" encoding="utf-8"?>
<!-- Generator: Adobe Illustrator 22.1.0, SVG Export Plug-In . SVG Version: 6.00 Build 0)  -->
<svg version="1.1" id="Layer_1" xmlns="http://www.w3.org/2000/svg" xmlns:xlink="http://www.w3.org/1999/xlink" x="0px" y="0px"
	 viewBox="0 0 24 24" style="enable-background:new 0 0 24 24;" xml:space="preserve">
<title>car-dashboard-steering</title>
<g>
	<path d="M12,24C5.383,24,0,18.617,0,12C0,5.383,5.383,0,12,0c6.617,0,12,5.383,12,12C24,18.617,18.617,24,12,24z M12,1.5
		C6.21,1.5,1.5,6.21,1.5,12c0,5.79,4.71,10.5,10.5,10.5c5.79,0,10.5-4.71,10.5-10.5C22.5,6.21,17.79,1.5,12,1.5z"/>
	<path d="M12,21c-0.798,0-1.594-0.107-2.368-0.318c-0.034-0.007-0.067-0.016-0.098-0.028c-3.252-0.928-5.752-3.667-6.377-6.987
		c-0.006-0.018-0.01-0.037-0.014-0.057c-0.004-0.021-0.006-0.042-0.007-0.062C3.046,13.03,3,12.51,3,12c0-4.963,4.037-9,9-9
		s9,4.037,9,9c0,0.509-0.046,1.031-0.136,1.549c-0.001,0.02-0.003,0.04-0.007,0.059c-0.002,0.012-0.009,0.037-0.014,0.055
		c-0.624,3.321-3.124,6.062-6.378,6.99c-0.032,0.011-0.064,0.021-0.098,0.028C13.594,20.893,12.797,21,12,21z M10.592,19.365
		C11.058,19.455,11.531,19.5,12,19.5s0.942-0.045,1.408-0.135c-0.184-2.914,0.828-4.527,1.729-5.374
		c0.961-0.904,2.257-1.382,3.746-1.382c0.193,0,0.39,0.008,0.588,0.024C19.49,12.419,19.5,12.207,19.5,12
		c0-0.326-0.022-0.658-0.066-0.989c-2.409-0.809-4.911-1.233-7.442-1.261c-2.518,0.027-5.017,0.451-7.426,1.261
		C4.522,11.341,4.5,11.673,4.5,12c0,0.207,0.01,0.419,0.028,0.634c0.199-0.016,0.396-0.024,0.588-0.024
		c1.489,0,2.784,0.478,3.746,1.382C9.763,14.838,10.775,16.451,10.592,19.365z M4.808,14.119c0.637,2.149,2.237,3.931,4.306,4.8
		c0.043-1.686-0.395-3.005-1.278-3.835c-0.677-0.637-1.619-0.973-2.722-0.973C5.013,14.111,4.911,14.114,4.808,14.119z
		 M18.885,14.111c-1.102,0-2.042,0.337-2.72,0.974c-0.883,0.83-1.321,2.149-1.278,3.835c2.069-0.869,3.669-2.651,4.306-4.8
		C19.088,14.114,18.986,14.111,18.885,14.111z M12,8.25c2.368,0.026,4.718,0.379,6.996,1.052C17.889,6.442,15.107,4.5,12,4.5
		S6.11,6.442,5.004,9.301c2.277-0.673,4.625-1.026,6.988-1.051c0.001,0,0.003,0,0.004,0S11.999,8.25,12,8.25z"/>
	<path d="M12,13.5c-0.044,0-0.088-0.004-0.13-0.011c-0.513-0.06-0.923-0.47-0.983-0.982c-0.008-0.043-0.011-0.087-0.011-0.131
		s0.004-0.088,0.012-0.131c0.06-0.513,0.47-0.922,0.982-0.982c0.043-0.008,0.087-0.012,0.131-0.012s0.088,0.004,0.131,0.012
		c0.513,0.06,0.922,0.47,0.983,0.983c0.007,0.042,0.011,0.086,0.011,0.13s-0.004,0.088-0.011,0.131
		c-0.06,0.513-0.47,0.923-0.983,0.983C12.088,13.496,12.044,13.5,12,13.5z"/>
</g>
</svg>
