<?xml version="1.0" encoding="utf-8"?>
<!-- Generator: Adobe Illustrator 22.1.0, SVG Export Plug-In . SVG Version: 6.00 Build 0)  -->
<svg version="1.1" id="Layer_1" xmlns="http://www.w3.org/2000/svg" xmlns:xlink="http://www.w3.org/1999/xlink" x="0px" y="0px"
	 viewBox="0 0 24 24" style="enable-background:new 0 0 24 24;" xml:space="preserve">
<title>car-retro</title>
<g>
	<path d="M4.875,17.901c-1.241,0-2.25-1.009-2.25-2.25s1.009-2.25,2.25-2.25s2.25,1.009,2.25,2.25S6.116,17.901,4.875,17.901z
		 M4.875,14.901c-0.414,0-0.75,0.336-0.75,0.75s0.336,0.75,0.75,0.75s0.75-0.336,0.75-0.75S5.289,14.901,4.875,14.901z"/>
	<path d="M19.125,17.901c-1.241,0-2.25-1.009-2.25-2.25s1.009-2.25,2.25-2.25s2.25,1.009,2.25,2.25S20.366,17.901,19.125,17.901z
		 M19.125,14.901c-0.414,0-0.75,0.336-0.75,0.75s0.336,0.75,0.75,0.75s0.75-0.336,0.75-0.75S19.539,14.901,19.125,14.901z"/>
	<path d="M20.25,23.15c-1.241,0-2.25-1.009-2.25-2.25v-0.75H6v0.75c0,1.241-1.009,2.25-2.25,2.25S1.5,22.141,1.5,20.9v-1.502
		C0.557,18.69,0,17.584,0,16.4v-1.5c0-1.982,1.572-3.476,3.86-3.714l0.865-5.119C5.324,2.875,8.315,0.65,12,0.65
		s6.676,2.222,7.273,5.403l0.867,5.134C22.428,11.424,24,12.919,24,14.9v1.5c0,1.183-0.557,2.29-1.5,2.998V20.9
		C22.5,22.141,21.491,23.15,20.25,23.15z M19.5,20.9c0,0.414,0.336,0.75,0.75,0.75S21,21.314,21,20.9v-0.828
		c-0.248,0.052-0.499,0.078-0.75,0.078H19.5V20.9z M3,20.9c0,0.414,0.336,0.75,0.75,0.75S4.5,21.314,4.5,20.9v-0.75H3.75
		c-0.251,0-0.502-0.026-0.75-0.078V20.9z M4.5,12.65c-1.738,0-3,0.946-3,2.25v1.5c0,1.241,1.009,2.25,2.25,2.25h16.5
		c1.241,0,2.25-1.009,2.25-2.25v-1.5c0-1.304-1.262-2.25-3-2.25c-2.456,0-3.573,2.149-4.078,3.952
		c-0.09,0.323-0.387,0.548-0.722,0.548c-0.068,0-0.137-0.01-0.203-0.028c-0.192-0.053-0.352-0.179-0.451-0.354
		s-0.123-0.377-0.069-0.57c0.802-2.864,2.443-4.615,4.647-4.977l-0.828-4.905C17.336,3.866,14.952,2.15,12,2.15
		c-2.952,0-5.337,1.719-5.799,4.18l-0.826,4.89c2.204,0.362,3.845,2.113,4.647,4.977c0.054,0.193,0.03,0.396-0.069,0.57
		c-0.098,0.175-0.259,0.301-0.452,0.354c-0.065,0.019-0.134,0.028-0.203,0.028c-0.334,0-0.631-0.225-0.721-0.548
		C8.073,14.799,6.956,12.65,4.5,12.65z"/>
	<path d="M8.042,10.897c-0.343,0-0.641-0.232-0.726-0.565c-0.049-0.194-0.02-0.396,0.082-0.568C7.5,9.592,7.664,9.47,7.858,9.42
		C9.207,9.077,10.6,8.903,12,8.903s2.794,0.174,4.142,0.518c0.194,0.049,0.357,0.172,0.46,0.344
		c0.102,0.172,0.131,0.374,0.082,0.568c-0.084,0.332-0.383,0.565-0.726,0.565c-0.062,0-0.125-0.008-0.186-0.023
		c-1.228-0.313-2.497-0.471-3.771-0.471c-1.275,0-2.544,0.159-3.772,0.471C8.168,10.889,8.105,10.897,8.042,10.897z"/>
</g>
</svg>
