<?xml version="1.0" encoding="utf-8"?>
<!-- Generator: Adobe Illustrator 22.1.0, SVG Export Plug-In . SVG Version: 6.00 Build 0)  -->
<svg version="1.1" id="Layer_1" xmlns="http://www.w3.org/2000/svg" xmlns:xlink="http://www.w3.org/1999/xlink" x="0px" y="0px"
	 viewBox="0 0 24 24" style="enable-background:new 0 0 24 24;" xml:space="preserve">
<title>car-repair-wash-3</title>
<g>
	<path d="M12,2.25c-0.044,0-0.088-0.004-0.131-0.012c-0.513-0.06-0.922-0.47-0.982-0.982c-0.008-0.043-0.012-0.087-0.012-0.131
		s0.004-0.088,0.012-0.131c0.06-0.513,0.47-0.922,0.982-0.982C11.912,0.004,11.956,0,12,0s0.088,0.004,0.131,0.012
		c0.513,0.06,0.922,0.47,0.983,0.983c0.007,0.042,0.011,0.086,0.011,0.13s-0.004,0.088-0.011,0.13
		c-0.061,0.513-0.47,0.922-0.983,0.983C12.088,2.246,12.044,2.25,12,2.25z"/>
	<path d="M12,5.25c-0.044,0-0.088-0.004-0.131-0.012c-0.513-0.06-0.922-0.47-0.982-0.982c-0.008-0.043-0.012-0.087-0.012-0.131
		s0.004-0.088,0.012-0.131c0.06-0.513,0.47-0.922,0.982-0.982C11.912,3.004,11.956,3,12,3s0.088,0.004,0.131,0.012
		c0.513,0.06,0.922,0.47,0.983,0.983c0.007,0.042,0.011,0.086,0.011,0.13s-0.004,0.088-0.011,0.13
		c-0.061,0.513-0.47,0.922-0.983,0.983C12.088,5.246,12.044,5.25,12,5.25z"/>
	<path d="M4.5,5.25c-0.044,0-0.088-0.004-0.131-0.012c-0.513-0.06-0.922-0.47-0.982-0.982C3.379,4.214,3.375,4.17,3.375,4.125
		c0-0.044,0.004-0.088,0.012-0.131c0.06-0.513,0.47-0.922,0.982-0.982C4.411,3.004,4.455,3,4.5,3c0.044,0,0.088,0.004,0.131,0.012
		c0.513,0.06,0.922,0.47,0.982,0.982C5.621,4.036,5.625,4.08,5.625,4.125c0,0.044-0.004,0.088-0.012,0.131
		c-0.06,0.513-0.47,0.922-0.982,0.982C4.589,5.246,4.545,5.25,4.5,5.25z"/>
	<path d="M8.25,3.75c-0.044,0-0.088-0.004-0.131-0.012c-0.513-0.06-0.922-0.47-0.982-0.982C7.129,2.713,7.125,2.669,7.125,2.625
		s0.004-0.088,0.012-0.131c0.06-0.513,0.47-0.922,0.982-0.982C8.162,1.504,8.206,1.5,8.25,1.5s0.088,0.004,0.131,0.012
		c0.513,0.06,0.922,0.47,0.982,0.982c0.008,0.043,0.012,0.087,0.012,0.131S9.371,2.713,9.363,2.756
		c-0.06,0.513-0.47,0.922-0.982,0.982C8.338,3.746,8.294,3.75,8.25,3.75z"/>
	<path d="M19.5,5.25c-0.044,0-0.088-0.004-0.131-0.011c-0.513-0.06-0.922-0.47-0.982-0.983c-0.008-0.042-0.011-0.086-0.011-0.13
		s0.004-0.088,0.011-0.13c0.06-0.513,0.47-0.923,0.982-0.983C19.412,3.004,19.456,3,19.5,3s0.088,0.004,0.131,0.011
		c0.513,0.06,0.922,0.47,0.983,0.983c0.007,0.042,0.011,0.086,0.011,0.13s-0.004,0.088-0.011,0.13
		c-0.061,0.513-0.47,0.923-0.983,0.983C19.588,5.246,19.544,5.25,19.5,5.25z"/>
	<path d="M15.75,3.75c-0.044,0-0.088-0.004-0.131-0.011c-0.513-0.06-0.922-0.47-0.983-0.983c-0.007-0.042-0.011-0.086-0.011-0.13
		s0.004-0.088,0.011-0.13c0.06-0.513,0.47-0.922,0.982-0.983C15.662,1.504,15.706,1.5,15.75,1.5s0.088,0.004,0.131,0.011
		c0.513,0.06,0.922,0.47,0.983,0.983c0.007,0.042,0.011,0.086,0.011,0.13s-0.004,0.088-0.011,0.13
		c-0.061,0.513-0.47,0.922-0.983,0.983C15.838,3.746,15.794,3.75,15.75,3.75z"/>
	<path d="M19.875,18c-0.044,0-0.088-0.004-0.13-0.011c-0.513-0.06-0.923-0.47-0.983-0.983c-0.007-0.042-0.011-0.086-0.011-0.13
		s0.004-0.088,0.011-0.131c0.06-0.513,0.47-0.923,0.983-0.983c0.042-0.008,0.086-0.011,0.131-0.011s0.088,0.004,0.131,0.011
		c0.513,0.06,0.923,0.47,0.983,0.983C20.996,16.787,21,16.831,21,16.875s-0.004,0.088-0.011,0.131
		c-0.06,0.513-0.47,0.923-0.983,0.983C19.963,17.996,19.919,18,19.875,18z"/>
	<path d="M4.125,18c-0.044,0-0.088-0.004-0.13-0.011c-0.513-0.06-0.922-0.47-0.983-0.982C3.004,16.963,3,16.919,3,16.875
		s0.004-0.088,0.011-0.131c0.06-0.513,0.47-0.922,0.983-0.983c0.042-0.007,0.086-0.011,0.13-0.011s0.088,0.004,0.13,0.011
		c0.513,0.061,0.922,0.47,0.983,0.983c0.008,0.043,0.012,0.087,0.012,0.131s-0.004,0.088-0.011,0.131
		c-0.06,0.513-0.47,0.922-0.983,0.983C4.213,17.996,4.169,18,4.125,18z"/>
	<path d="M21,24c-1.241,0-2.25-1.009-2.25-2.25V21H5.25v0.75C5.25,22.991,4.241,24,3,24s-2.25-1.009-2.25-2.25v-1.065
		C0.282,20.36,0,19.829,0,19.25V15.5c0-1.435,1.105-2.617,2.51-2.74l1.506-3.357C4.437,8.274,5.562,7.5,6.806,7.5h10.388
		c1.243,0,2.372,0.782,2.808,1.947l1.488,3.314C22.898,12.886,24,14.067,24,15.5v3.75c0,0.579-0.282,1.11-0.75,1.435v1.065
		C23.25,22.991,22.241,24,21,24z M20.25,21.75c0,0.414,0.336,0.75,0.75,0.75s0.75-0.336,0.75-0.75V21h-1.5V21.75z M2.25,21.75
		c0,0.414,0.336,0.75,0.75,0.75s0.75-0.336,0.75-0.75V21h-1.5V21.75z M2.75,14.25c-0.689,0-1.25,0.561-1.25,1.25v3.75
		c0,0.138,0.112,0.25,0.25,0.25h20.5c0.138,0,0.25-0.112,0.25-0.25V15.5c0-0.689-0.561-1.25-1.25-1.25H2.75z M19.842,12.75
		l-1.226-2.733C18.383,9.4,17.815,9,17.194,9H6.807C6.185,9,5.62,9.391,5.402,9.973L4.158,12.75H19.842z"/>
</g>
</svg>
