<?xml version="1.0" encoding="utf-8"?>
<!-- Generator: Adobe Illustrator 22.1.0, SVG Export Plug-In . SVG Version: 6.00 Build 0)  -->
<svg version="1.1" id="Layer_1" xmlns="http://www.w3.org/2000/svg" xmlns:xlink="http://www.w3.org/1999/xlink" x="0px" y="0px"
	 viewBox="0 0 24 24" style="enable-background:new 0 0 24 24;" xml:space="preserve">
<title>car-repair-tow-truck</title>
<g>
	<path d="M18.75,24c-0.96,0-1.808-0.615-2.121-1.5H8.871C8.558,23.385,7.71,24,6.75,24s-1.808-0.615-2.121-1.5H2.25
		C1.009,22.5,0,21.491,0,20.25v-3C0,16.01,1.009,15,2.25,15h9.098L2.998,2.477V5.25C2.998,5.664,2.662,6,2.248,6
		s-0.75-0.336-0.75-0.75V1.082c-0.002-0.362,0.178-0.7,0.484-0.901c0.177-0.116,0.381-0.178,0.592-0.178
		c0.364,0,0.7,0.181,0.9,0.484L12,13.274V11.25C12,10.01,13.009,9,14.25,9h2.073c0.858,0,1.629,0.476,2.013,1.244l2.393,4.787
		C22.58,15.268,24,16.861,24,18.75v1.5c0,1.241-1.009,2.25-2.25,2.25h-0.879C20.558,23.385,19.71,24,18.75,24z M18.75,21
		C18.336,21,18,21.337,18,21.75s0.336,0.75,0.75,0.75s0.75-0.336,0.75-0.75S19.164,21,18.75,21z M6.75,21C6.336,21,6,21.337,6,21.75
		s0.336,0.75,0.75,0.75s0.75-0.336,0.75-0.75S7.164,21,6.75,21z M21.75,21c0.414,0,0.75-0.336,0.75-0.75v-1.5
		c0-1.241-1.009-2.25-2.25-2.25h-18c-0.414,0-0.75,0.336-0.75,0.75v3C1.5,20.664,1.836,21,2.25,21h2.379
		c0.314-0.885,1.162-1.5,2.121-1.5s1.808,0.615,2.121,1.5h7.757c0.314-0.885,1.162-1.5,2.121-1.5s1.808,0.615,2.121,1.5H21.75z
		 M19.037,15l-2.042-4.085c-0.128-0.256-0.385-0.414-0.671-0.414H14.25c-0.414,0-0.75,0.336-0.75,0.75L19.037,15z"/>
	<path d="M2.25,13.5C1.009,13.5,0,12.491,0,11.25c0-0.414,0.336-0.75,0.75-0.75s0.75,0.336,0.75,0.75C1.5,11.664,1.836,12,2.25,12
		S3,11.664,3,11.25c0-0.414-0.336-0.75-0.75-0.75S1.5,10.164,1.5,9.75v-1.5c0-0.414,0.336-0.75,0.75-0.75S3,7.837,3,8.25v0.879
		c0.885,0.314,1.5,1.162,1.5,2.121C4.5,12.491,3.491,13.5,2.25,13.5z"/>
</g>
</svg>
