<?xml version="1.0" encoding="utf-8"?>
<!-- Generator: Adobe Illustrator 22.1.0, SVG Export Plug-In . SVG Version: 6.00 Build 0)  -->
<svg version="1.1" id="Layer_1" xmlns="http://www.w3.org/2000/svg" xmlns:xlink="http://www.w3.org/1999/xlink" x="0px" y="0px"
	 viewBox="0 0 24 24" style="enable-background:new 0 0 24 24;" xml:space="preserve">
<title>car-repair-fire-1</title>
<g>
	<path d="M22.06,10.55c-0.189,0-0.37-0.071-0.509-0.199c-0.147-0.136-0.232-0.321-0.24-0.521c-0.008-0.2,0.062-0.392,0.198-0.539
		c0.641-0.694,0.993-1.595,0.991-2.539c0-1.167-0.799-2.757-1.869-3.897c0.105,0.532,0.107,1.039-0.001,1.479
		c-0.213,0.862-0.811,1.49-1.73,1.815c-0.336,0.119-0.667,0.179-0.983,0.179c-0.397,0-0.776-0.095-1.125-0.281
		c-0.486-0.26-0.838-0.662-1.086-1.052c-0.115,0.155-0.222,0.317-0.32,0.484c-0.134,0.229-0.382,0.372-0.648,0.372l0,0
		c-0.133,0-0.264-0.036-0.379-0.103c-0.356-0.208-0.477-0.669-0.269-1.026c0.356-0.609,0.803-1.157,1.329-1.628
		c0.138-0.123,0.315-0.191,0.5-0.191c0.074,0,0.148,0.011,0.22,0.033c0.249,0.076,0.444,0.28,0.508,0.533
		c0.069,0.257,0.358,0.992,0.854,1.256c0.13,0.069,0.267,0.103,0.418,0.103c0.144,0,0.306-0.031,0.48-0.093
		c0.439-0.155,0.685-0.397,0.774-0.76c0.194-0.785-0.347-2.037-0.974-2.714c-0.226-0.244-0.263-0.614-0.091-0.898
		C18.243,0.139,18.489,0,18.75,0c0.066,0,0.131,0.009,0.195,0.026C21.746,0.784,24,4.324,24,6.75
		c0.003,1.322-0.49,2.586-1.389,3.559C22.469,10.462,22.268,10.55,22.06,10.55z"/>
	<path d="M20.25,24C19.009,24,18,22.991,18,21.75V21H6v0.75C6,22.991,4.991,24,3.75,24S1.5,22.991,1.5,21.75v-0.879
		C0.615,20.558,0,19.71,0,18.75c0-0.612,0.127-1.208,0.377-1.771c0.012-0.03,0.025-0.058,0.04-0.086
		c0.218-0.464,0.508-0.879,0.863-1.234l1.824-1.824l1.643-4.388C5.184,8.283,6.313,7.5,7.556,7.5h8.885
		c1.243,0,2.372,0.782,2.808,1.947l1.641,4.383l1.829,1.829c0.354,0.355,0.645,0.77,0.863,1.233
		c0.015,0.028,0.029,0.057,0.041,0.087C23.873,17.542,24,18.138,24,18.75c0,0.96-0.615,1.808-1.5,2.122v0.879
		C22.5,22.991,21.491,24,20.25,24z M19.5,21.75c0,0.414,0.336,0.75,0.75,0.75S21,22.164,21,21.75V21h-1.5V21.75z M3,21.75
		c0,0.414,0.336,0.75,0.75,0.75s0.75-0.336,0.75-0.75V21H3V21.75z M1.602,18C1.534,18.247,1.5,18.498,1.5,18.75
		c0,0.414,0.336,0.75,0.75,0.75h19.5c0.414,0,0.75-0.336,0.75-0.75c0-0.252-0.034-0.503-0.102-0.75H18.75
		C18.336,18,18,17.664,18,17.25s0.336-0.75,0.75-0.75h2.689l-1.5-1.5H4.061l-1.5,1.5H5.25C5.664,16.5,6,16.837,6,17.25
		S5.664,18,5.25,18H1.602z M19.166,13.5l-1.321-3.527C17.627,9.391,17.063,9,16.441,9H7.557C6.935,9,6.37,9.391,6.152,9.973
		L4.832,13.5H19.166z"/>
</g>
</svg>
