<?xml version="1.0" encoding="utf-8"?>
<!-- Generator: Adobe Illustrator 22.1.0, SVG Export Plug-In . SVG Version: 6.00 Build 0)  -->
<svg version="1.1" id="Layer_1" xmlns="http://www.w3.org/2000/svg" xmlns:xlink="http://www.w3.org/1999/xlink" x="0px" y="0px"
	 viewBox="0 0 24 24" style="enable-background:new 0 0 24 24;" xml:space="preserve">
<title>car-2</title>
<g>
	<path d="M20.25,21.999c-1.241,0-2.25-1.009-2.25-2.25v-0.75L6,19v0.749c0,1.241-1.009,2.25-2.25,2.25s-2.25-1.009-2.25-2.25v-0.877
		C0.615,18.558,0,17.71,0,16.75V13c0-0.684,0.266-1.327,0.75-1.81l1.94-1.94L1.939,8.5H0.75C0.336,8.5,0,8.163,0,7.75
		S0.336,7,0.75,7h1.5c0.2,0,0.389,0.078,0.53,0.22l0.677,0.676l1.314-3.505C5.195,3.26,6.292,2.5,7.5,2.5h9
		c1.208,0,2.305,0.76,2.729,1.891l1.313,3.506L21.22,7.22C21.359,7.08,21.552,7,21.75,7h1.5C23.664,7,24,7.336,24,7.75
		S23.664,8.5,23.25,8.5h-1.189l-0.75,0.75l1.94,1.941c0.483,0.483,0.75,1.126,0.75,1.809v3.749c0,0.96-0.615,1.808-1.5,2.121v0.879
		C22.5,20.989,21.491,21.999,20.25,21.999z M19.5,19.749c0,0.414,0.336,0.75,0.75,0.75S21,20.162,21,19.749v-0.75l-1.5,0V19.749z
		 M3,19.749c0,0.414,0.336,0.75,0.75,0.75s0.75-0.336,0.75-0.75V19L3,19V19.749z M5.25,17.499c0.008,0,0.017,0,0.026,0.001
		l16.474-0.001c0.414,0,0.75-0.336,0.75-0.75v-0.75h-0.4c-1.428-0.002-2.711-0.796-3.35-2.073l-0.128-0.256
		c-0.103-0.207-0.158-0.438-0.158-0.668c-0.001-0.828,0.671-1.502,1.499-1.503h1.475l-1.494-1.494L4.061,10l-1.499,1.499h1.474
		c0.402,0.001,0.779,0.157,1.062,0.441c0.283,0.284,0.439,0.661,0.438,1.062c0,0.23-0.055,0.461-0.157,0.667L5.25,13.926
		c-0.638,1.276-1.921,2.071-3.349,2.073H1.5v0.751c0,0.406,0.327,0.74,0.733,0.749c0.006,0,0.012,0,0.017,0H5.25z M20.092,13.255
		c0.383,0.766,1.153,1.242,2.009,1.243H22.5c0,0,0-1.5,0-1.5h-2.535L20.092,13.255z M1.9,14.499
		c0.855-0.001,1.625-0.478,2.008-1.243l0.128-0.256l-2.536,0c0,0,0,1.5,0,1.5H1.9z M19.166,8.5l-1.341-3.582
		C17.619,4.369,17.086,4,16.5,4h-9h0C6.914,4,6.381,4.369,6.175,4.918L4.832,8.5H19.166z"/>
	<path d="M13.877,15.999c-0.141,0-0.278-0.04-0.398-0.115c-0.169-0.105-0.287-0.271-0.333-0.467
		c-0.045-0.195-0.011-0.397,0.095-0.567l1.158-1.852l-4.8,0l1.161,1.852c0.219,0.35,0.113,0.814-0.237,1.033
		c-0.12,0.075-0.258,0.115-0.398,0.115c-0.26,0-0.498-0.132-0.636-0.352l-1.158-1.849c-0.213-0.338-0.281-0.74-0.192-1.131
		c0.089-0.391,0.325-0.724,0.664-0.938c0.238-0.15,0.512-0.23,0.794-0.231H14.4c0.402,0.001,0.779,0.158,1.062,0.442
		c0.283,0.284,0.438,0.661,0.438,1.063c-0.001,0.28-0.079,0.553-0.227,0.79l-1.159,1.853C14.376,15.867,14.138,15.999,13.877,15.999
		L13.877,15.999z"/>
</g>
</svg>
