<?xml version="1.0" encoding="utf-8"?>
<!-- Generator: Adobe Illustrator 22.1.0, SVG Export Plug-In . SVG Version: 6.00 Build 0)  -->
<svg version="1.1" id="Layer_1" xmlns="http://www.w3.org/2000/svg" xmlns:xlink="http://www.w3.org/1999/xlink" x="0px" y="0px"
	 viewBox="0 0 24 24" style="enable-background:new 0 0 24 24;" xml:space="preserve">
<title>car-repair-lock-1</title>
<g>
	<path d="M15.202,23.143c-0.965,0-1.75-0.785-1.75-1.75v-5.5c0-0.879,0.652-1.609,1.498-1.732v-0.768c0-2.068,1.682-3.75,3.75-3.75
		s3.75,1.682,3.75,3.75v0.768c0.848,0.121,1.502,0.852,1.502,1.732v5.5c0,0.965-0.785,1.75-1.75,1.75H15.202z M15.202,15.643
		c-0.138,0-0.25,0.112-0.25,0.25v5.5c0,0.138,0.112,0.25,0.25,0.25h7c0.138,0,0.25-0.112,0.25-0.25v-5.5
		c0-0.138-0.112-0.25-0.25-0.25H15.202z M20.95,14.143v-0.75c0-1.241-1.009-2.25-2.25-2.25s-2.25,1.009-2.25,2.25v0.75H20.95z"/>
	<path d="M18.701,19.797c-0.621,0-1.126-0.505-1.126-1.125c0-0.05,0.005-0.1,0.016-0.152c0.071-0.507,0.471-0.899,0.98-0.958
		c0.018-0.003,0.036-0.004,0.054-0.006c0.018-0.003,0.054-0.005,0.072-0.005c0.046,0,0.09,0.004,0.132,0.011
		c0.51,0.06,0.91,0.45,0.98,0.959c0.011,0.052,0.016,0.102,0.016,0.152C19.827,19.293,19.322,19.797,18.701,19.797L18.701,19.797z"
		/>
	<path d="M4.075,11.143c-0.62,0-1.125-0.505-1.125-1.125c0-0.049,0.005-0.098,0.016-0.149c0.068-0.511,0.467-0.904,0.98-0.964
		c0.043-0.007,0.086-0.011,0.131-0.011c0.044,0,0.088,0.004,0.131,0.012c0.513,0.06,0.922,0.47,0.982,0.982
		c0.008,0.043,0.012,0.087,0.012,0.131s-0.004,0.088-0.011,0.131c-0.067,0.568-0.542,0.994-1.114,0.994
		C4.077,11.143,4.075,11.143,4.075,11.143z"/>
	<path d="M2.952,17.142c-1.241,0-2.25-1.009-2.25-2.25v-1.325C0.222,13.14-0.05,12.54-0.05,11.892v-2.25
		c0-1.554,0.957-2.938,2.399-3.495l1.618-3.603c0.422-1.129,1.547-1.903,2.791-1.903h8.882c1.244,0,2.373,0.782,2.809,1.947
		l1.602,3.556c0.801,0.309,1.471,0.88,1.899,1.623c0.207,0.358,0.083,0.818-0.274,1.024c-0.114,0.066-0.243,0.1-0.375,0.1
		c-0.268,0-0.517-0.144-0.65-0.375c-0.4-0.694-1.147-1.125-1.948-1.125H3.7c-1.241,0-2.25,1.009-2.25,2.25v2.25
		c0,0.413,0.336,0.75,0.75,0.75h10.5c0.414,0,0.75,0.336,0.75,0.75s-0.336,0.75-0.75,0.75H5.202v0.75
		C5.202,16.133,4.193,17.142,2.952,17.142z M2.202,14.892c0,0.414,0.336,0.75,0.75,0.75s0.75-0.336,0.75-0.75v-0.75h-1.5V14.892z
		 M18.292,5.892l-1.23-2.733c-0.232-0.618-0.8-1.018-1.421-1.018H6.758c-0.622,0-1.186,0.391-1.405,0.973L4.107,5.892H18.292z"/>
</g>
</svg>
