<?xml version="1.0" encoding="utf-8"?>
<!-- Generator: Adobe Illustrator 22.1.0, SVG Export Plug-In . SVG Version: 6.00 Build 0)  -->
<svg version="1.1" id="Layer_1" xmlns="http://www.w3.org/2000/svg" xmlns:xlink="http://www.w3.org/1999/xlink" x="0px" y="0px"
	 viewBox="0 0 24 24" style="enable-background:new 0 0 24 24;" xml:space="preserve">
<title>car-actions-disable</title>
<g>
	<path d="M3.75,16.5c-1.241,0-2.25-1.009-2.25-2.25v-0.879C0.615,13.058,0,12.21,0,11.25c0-0.612,0.127-1.208,0.377-1.772
		c0.012-0.03,0.025-0.059,0.041-0.087c0.218-0.464,0.508-0.878,0.863-1.233l1.824-1.824l1.643-4.388C5.184,0.782,6.313,0,7.556,0
		h8.885c1.243,0,2.372,0.782,2.808,1.947l1.641,4.383l1.829,1.829c0.59,0.589,0.997,1.331,1.177,2.145
		c0.089,0.404-0.167,0.805-0.57,0.895c-0.054,0.012-0.108,0.018-0.163,0.018c-0.354,0-0.655-0.242-0.732-0.588
		c-0.118-0.534-0.385-1.022-0.773-1.409L19.939,7.5H4.061L2.561,9H5.25C5.664,9,6,9.336,6,9.75S5.664,10.5,5.25,10.5H1.602
		C1.534,10.746,1.5,10.998,1.5,11.25C1.5,11.664,1.836,12,2.25,12h7.5c0.414,0,0.75,0.336,0.75,0.75s-0.336,0.75-0.75,0.75H6v0.75
		C6,15.491,4.991,16.5,3.75,16.5z M3,14.25C3,14.664,3.336,15,3.75,15s0.75-0.336,0.75-0.75V13.5H3V14.25z M19.166,6l-1.321-3.527
		C17.627,1.891,17.062,1.5,16.441,1.5H7.557c-0.622,0-1.186,0.391-1.404,0.973L4.832,6H19.166z"/>
	<path d="M17.25,24c-1.789,0-3.475-0.695-4.749-1.957c-0.008-0.007-0.016-0.014-0.024-0.022c-0.01-0.01-0.019-0.02-0.028-0.031
		c-1.252-1.257-1.95-2.946-1.95-4.74c0-3.722,3.028-6.75,6.75-6.75c1.786,0,3.469,0.693,4.742,1.951
		c0.011,0.009,0.021,0.018,0.03,0.027c0.01,0.01,0.02,0.021,0.029,0.032C23.304,13.773,24,15.459,24,17.25
		C24,20.972,20.972,24,17.25,24z M14.108,21.451c0.906,0.679,2.007,1.049,3.142,1.049c2.895,0,5.25-2.355,5.25-5.25
		c0-1.135-0.37-2.236-1.048-3.141L14.108,21.451z M17.25,12C14.355,12,12,14.355,12,17.25c0,1.135,0.37,2.236,1.048,3.141
		l7.344-7.343C19.486,12.37,18.385,12,17.25,12z"/>
</g>
</svg>
