<?xml version="1.0" encoding="utf-8"?>
<!-- Generator: Adobe Illustrator 22.1.0, SVG Export Plug-In . SVG Version: 6.00 Build 0)  -->
<svg version="1.1" id="Layer_1" xmlns="http://www.w3.org/2000/svg" xmlns:xlink="http://www.w3.org/1999/xlink" x="0px" y="0px"
	 viewBox="0 0 24 24" style="enable-background:new 0 0 24 24;" xml:space="preserve">
<title>car-repair-fluid</title>
<g>
	<path d="M3.75,16.5c-1.241,0-2.25-1.009-2.25-2.25v-0.879C0.615,13.058,0,12.21,0,11.25c0-0.612,0.127-1.208,0.377-1.772
		c0.012-0.03,0.025-0.059,0.041-0.087c0.218-0.464,0.508-0.878,0.863-1.233l1.824-1.824l1.643-4.388C5.184,0.782,6.313,0,7.556,0
		h8.885c1.243,0,2.372,0.782,2.808,1.947l1.641,4.383l2.89,2.89C23.922,9.361,24,9.55,24,9.75s-0.078,0.389-0.22,0.53
		s-0.33,0.22-0.53,0.22s-0.389-0.078-0.53-0.22l-2.78-2.78H4.061L2.561,9H5.25C5.664,9,6,9.336,6,9.75S5.664,10.5,5.25,10.5H1.602
		C1.534,10.746,1.5,10.998,1.5,11.25C1.5,11.664,1.836,12,2.25,12h12c0.414,0,0.75,0.336,0.75,0.75s-0.336,0.75-0.75,0.75H6v0.75
		C6,15.491,4.991,16.5,3.75,16.5z M3,14.25C3,14.664,3.336,15,3.75,15s0.75-0.336,0.75-0.75V13.5H3V14.25z M19.166,6l-1.321-3.527
		C17.627,1.891,17.062,1.5,16.441,1.5H7.557c-0.622,0-1.186,0.391-1.404,0.973L4.832,6H19.166z"/>
	<path d="M19.5,24c-2.481,0-4.5-2.019-4.5-4.5c0-2.202,3.447-8.631,3.84-9.357c0.132-0.242,0.384-0.393,0.66-0.393
		s0.528,0.151,0.659,0.393C20.553,10.869,24,17.298,24,19.5C24,21.981,21.981,24,19.5,24z M19.5,12.112
		c-1.543,3.004-3,6.305-3,7.388c0,1.654,1.346,3,3,3s3-1.346,3-3C22.5,18.417,21.043,15.116,19.5,12.112z"/>
	<path d="M18.75,21C18.336,21,18,20.664,18,20.25v-1.5c0-0.414,0.336-0.75,0.75-0.75s0.75,0.336,0.75,0.75v1.5
		C19.5,20.664,19.164,21,18.75,21z"/>
</g>
</svg>
