<?xml version="1.0" encoding="utf-8"?>
<!-- Generator: Adobe Illustrator 22.1.0, SVG Export Plug-In . SVG Version: 6.00 Build 0)  -->
<svg version="1.1" id="Regular" xmlns="http://www.w3.org/2000/svg" xmlns:xlink="http://www.w3.org/1999/xlink" x="0px" y="0px"
	 viewBox="0 0 24 24" style="enable-background:new 0 0 24 24;" xml:space="preserve">
<title>card-game-choose</title>
<g>
	<path d="M6.361,20.999c-0.944,0-1.795-0.595-2.117-1.481L0.136,8.245C-0.069,7.68-0.042,7.069,0.213,6.524
		c0.255-0.545,0.705-0.958,1.27-1.163c0.01-0.004,0.022-0.008,0.035-0.012L7.5,3.167V2.25C7.5,1.009,8.509,0,9.75,0h7.5
		c1.241,0,2.25,1.009,2.25,2.25v10.5c0,0.414-0.336,0.75-0.75,0.75S18,13.164,18,12.75V2.25c0-0.414-0.336-0.75-0.75-0.75h-7.5
		C9.337,1.5,9,1.836,9,2.25v12C9,14.664,9.337,15,9.75,15h0.75c0.414,0,0.75,0.336,0.75,0.75s-0.336,0.75-0.75,0.75H9.75
		c-1.241,0-2.25-1.009-2.25-2.25V4.764L1.998,6.769C1.987,6.773,1.975,6.777,1.964,6.781C1.599,6.92,1.408,7.353,1.546,7.732
		l4.107,11.27c0.108,0.297,0.392,0.497,0.708,0.497c0.087,0,0.172-0.015,0.255-0.045l2.878-1.049
		c0.083-0.03,0.169-0.045,0.257-0.045c0.314,0,0.597,0.198,0.705,0.493c0.069,0.188,0.06,0.392-0.025,0.573
		c-0.085,0.182-0.235,0.32-0.423,0.388l-2.879,1.049C6.88,20.954,6.622,20.999,6.361,20.999z"/>
	<path d="M13.5,11.25c-1.654,0-3-1.346-3-3s1.346-3,3-3c1.654,0,3,1.346,3,3S15.154,11.25,13.5,11.25z M13.5,6.75
		c-0.827,0-1.5,0.673-1.5,1.5s0.673,1.5,1.5,1.5S15,9.077,15,8.25S14.327,6.75,13.5,6.75z"/>
	<path d="M17.196,24.003c-0.133,0-0.265-0.018-0.395-0.053c-0.485-0.132-0.869-0.496-1.028-0.972l-3.176-8.462
		c-0.135-0.401-0.108-0.812,0.072-1.171c0.178-0.358,0.486-0.626,0.867-0.753c0.153-0.051,0.312-0.077,0.475-0.077
		c0.163,0,0.323,0.026,0.475,0.077l8.511,3.191c0.362,0.12,0.666,0.386,0.843,0.746c0.177,0.359,0.205,0.764,0.079,1.143
		c-0.159,0.477-0.543,0.84-1.028,0.972l-3.477,0.773c0,0-0.767,3.468-0.768,3.47C18.466,23.548,17.871,24.003,17.196,24.003z
		 M17.187,22.476c0,0,0.006,0.014,0.01,0.022l0.856-3.873c0.063-0.283,0.287-0.507,0.57-0.57l3.863-0.858l-8.475-3.184
		L17.187,22.476z"/>
</g>
</svg>
