<?xml version="1.0" encoding="utf-8"?>
<!-- Generator: Adobe Illustrator 22.1.0, SVG Export Plug-In . SVG Version: 6.00 Build 0)  -->
<svg version="1.1" id="Regular" xmlns="http://www.w3.org/2000/svg" xmlns:xlink="http://www.w3.org/1999/xlink" x="0px" y="0px"
	 viewBox="0 0 24 24" style="enable-background:new 0 0 24 24;" xml:space="preserve">
<title>card-game-cards-hold</title>
<g>
	<path d="M12.998,24c-0.414,0-0.75-0.336-0.75-0.75V21h-7.5v2.25c0,0.414-0.336,0.75-0.75,0.75s-0.75-0.336-0.75-0.75v-3
		c0-0.414,0.336-0.75,0.75-0.75h0.368l-2.17-5.12c-0.45-1.011-0.566-2.127-0.331-3.22l1.684-6.889
		c0.292-1.365,1.428-2.45,2.808-2.71C6.652,0.643,7.513,0,8.498,0h6c1.216,0,2.21,0.969,2.249,2.176l3.589,0.974
		C20.916,3.306,21.4,3.679,21.7,4.2c0.3,0.521,0.379,1.127,0.223,1.708L19.17,16.045c-0.267,0.976-1.159,1.658-2.171,1.658
		c-0.198,0-0.397-0.027-0.59-0.079l-4.196-1.136c0.024,0.214,0.036,0.426,0.036,0.634V19.5h0.75c0.414,0,0.75,0.336,0.75,0.75v3
		C13.748,23.664,13.412,24,12.998,24z M10.748,19.5v-2.379c0-0.88-0.26-1.727-0.752-2.45c-0.001-0.002-0.003-0.004-0.004-0.006
		c-0.157-0.231-0.334-0.444-0.525-0.635c-0.213-0.212-0.278-0.53-0.166-0.809l1-2.5l0.008-0.023
		c0.045-0.135,0.035-0.276-0.028-0.401c-0.062-0.125-0.17-0.218-0.303-0.262c-0.052-0.018-0.107-0.026-0.162-0.026
		c-0.185,0-0.358,0.097-0.451,0.253l-1.726,2.875c-0.007,0.011-0.016,0.025-0.025,0.036c-0.012,0.018-0.023,0.032-0.034,0.046
		c-0.017,0.021-0.03,0.037-0.045,0.052c-0.012,0.013-0.029,0.029-0.047,0.043c-0.025,0.022-0.043,0.037-0.063,0.051
		c-0.01,0.007-0.042,0.027-0.053,0.033c-0.029,0.017-0.05,0.028-0.072,0.038c-0.011,0.005-0.044,0.017-0.056,0.021
		c-0.034,0.012-0.059,0.019-0.084,0.025c-0.011,0.003-0.043,0.008-0.054,0.009c-0.026,0.004-0.051,0.007-0.076,0.008
		C7.02,13.5,7.008,13.5,6.998,13.5c-0.015,0-0.038-0.002-0.055-0.004c-0.03-0.002-0.053-0.005-0.077-0.009
		c-0.021-0.004-0.042-0.009-0.062-0.015c-0.025-0.006-0.052-0.015-0.08-0.026c-0.02-0.008-0.042-0.018-0.065-0.03
		c-0.008-0.003-0.026-0.012-0.043-0.022c-0.01-0.006-0.022-0.014-0.033-0.022c-0.016-0.011-0.033-0.023-0.049-0.036
		c-0.023-0.018-0.038-0.031-0.052-0.043c-0.021-0.021-0.037-0.038-0.051-0.056c-0.019-0.021-0.032-0.038-0.045-0.055
		c-0.014-0.021-0.026-0.04-0.036-0.059c-0.016-0.028-0.027-0.048-0.036-0.069c-0.009-0.02-0.016-0.04-0.023-0.061
		c-0.011-0.032-0.017-0.053-0.022-0.075c-0.005-0.023-0.009-0.044-0.011-0.066c-0.003-0.022-0.006-0.044-0.007-0.066
		c-0.001-0.013-0.002-0.026-0.002-0.038V3.147c-0.62,0.249-1.095,0.795-1.238,1.46l-1.684,6.889
		c-0.164,0.763-0.08,1.558,0.245,2.287L5.995,19.5H10.748z M16.802,16.176c0.065,0.018,0.131,0.027,0.197,0.027
		c0.338,0,0.635-0.227,0.724-0.552l2.752-10.133c0.052-0.195,0.025-0.396-0.074-0.569c-0.1-0.174-0.262-0.298-0.455-0.35
		l-3.197-0.867v9.019c0,1.241-1.009,2.25-2.25,2.25H12.46L16.802,16.176z M14.498,13.5c0.414,0,0.75-0.336,0.75-0.75V2.25
		c0-0.414-0.336-0.75-0.75-0.75h-6c-0.414,0-0.75,0.336-0.75,0.75v7.793L8.08,9.49C8.443,8.885,9.11,8.509,9.821,8.509
		c0.216,0,0.429,0.035,0.634,0.103c0.512,0.171,0.928,0.531,1.169,1.014c0.242,0.484,0.281,1.032,0.11,1.545
		c-0.012,0.035-0.025,0.072-0.04,0.108l-0.825,2.063c0.042,0.051,0.084,0.103,0.127,0.158H14.498z"/>
</g>
</svg>
