<?xml version="1.0" encoding="utf-8"?>
<!-- Generator: Adobe Illustrator 22.1.0, SVG Export Plug-In . SVG Version: 6.00 Build 0)  -->
<svg version="1.1" id="Regular" xmlns="http://www.w3.org/2000/svg" xmlns:xlink="http://www.w3.org/1999/xlink" x="0px" y="0px"
	 viewBox="0 0 24 24" style="enable-background:new 0 0 24 24;" xml:space="preserve">
<title>card-game-symbols</title>
<g>
	<path d="M18.007,24.008c-0.505,0-0.985-0.195-1.351-0.55l-3.651-3.62c-1.035-0.958-1.301-2.519-0.637-3.787
		c0.46-0.824,1.202-1.412,2.094-1.664c0.311-0.088,0.63-0.133,0.95-0.133c0.586,0,1.169,0.153,1.688,0.442
		c0.248,0.139,0.479,0.308,0.686,0.503l0.217,0.206l0.215-0.204c0.648-0.61,1.495-0.945,2.386-0.945c0.033,0,0.066,0,0.099,0.001
		c0.928,0.028,1.788,0.415,2.423,1.09c0.195,0.207,0.364,0.438,0.502,0.686c0.67,1.281,0.403,2.849-0.644,3.822l-3.626,3.603
		C18.992,23.813,18.512,24.008,18.007,24.008z M15.411,15.755c-0.181,0-0.363,0.025-0.541,0.076
		c-0.506,0.143-0.926,0.475-1.183,0.935c-0.343,0.655-0.199,1.477,0.355,1.99l3.663,3.632c0.079,0.077,0.187,0.121,0.3,0.121
		c0.114,0,0.223-0.045,0.307-0.125l3.633-3.609c0.568-0.528,0.714-1.357,0.364-2.026c-0.07-0.124-0.167-0.256-0.275-0.371
		c-0.361-0.383-0.849-0.603-1.376-0.619l-0.057-0.001c-0.506,0-0.986,0.19-1.353,0.535l-0.729,0.692
		c-0.14,0.133-0.323,0.206-0.516,0.206c-0.193,0-0.376-0.073-0.516-0.206l-0.731-0.695c-0.116-0.109-0.246-0.205-0.387-0.283
		C16.074,15.842,15.743,15.755,15.411,15.755z"/>
	<path d="M6.007,24.006c-0.414,0-0.75-0.336-0.75-0.75v-1.28c-0.549,0.345-1.185,0.53-1.845,0.53c-0.954,0-1.876-0.397-2.528-1.09
		c-0.195-0.208-0.364-0.438-0.502-0.686c-0.67-1.281-0.403-2.849,0.644-3.822c0,0,3.637-3.611,3.642-3.616
		c0.354-0.344,0.833-0.539,1.339-0.539s0.985,0.196,1.351,0.55l3.651,3.622c1.035,0.958,1.3,2.519,0.636,3.786
		c-0.62,1.11-1.785,1.794-3.046,1.794c-0.588,0-1.17-0.152-1.685-0.44c-0.053-0.03-0.106-0.061-0.157-0.093v1.282
		C6.757,23.669,6.421,24.006,6.007,24.006z M6.521,19.777l0.737,0.696c0.117,0.11,0.248,0.206,0.389,0.285
		c0.292,0.163,0.623,0.25,0.956,0.25c0.716,0,1.376-0.386,1.724-1.009c0.343-0.655,0.199-1.477-0.355-1.99l-3.664-3.634
		c-0.079-0.076-0.186-0.12-0.3-0.12c-0.114,0-0.224,0.045-0.307,0.125l-3.636,3.61c-0.568,0.528-0.714,1.357-0.364,2.026
		c0.07,0.124,0.167,0.255,0.276,0.371c0.376,0.399,0.886,0.619,1.436,0.619c0.504,0,0.984-0.19,1.35-0.535l0.729-0.692
		c0.012-0.011,0.025-0.022,0.039-0.032c0.065-0.053,0.129-0.092,0.198-0.119c0.01-0.004,0.023-0.009,0.035-0.012
		c0.084-0.029,0.165-0.042,0.245-0.042c0.087,0,0.174,0.016,0.259,0.047c0.092,0.036,0.162,0.078,0.223,0.13
		C6.5,19.759,6.511,19.768,6.521,19.777z"/>
	<path d="M18.007,12.756c-0.414,0-0.75-0.336-0.75-0.75v-0.75h-1.875c-0.487,0-0.955-0.101-1.396-0.301
		c-1.694-0.768-2.447-2.771-1.68-4.465c0.47-1.038,1.433-1.759,2.537-1.938c-0.527-1.398-0.072-3,1.177-3.91
		c0.58-0.422,1.265-0.646,1.982-0.646c1.079,0,2.1,0.519,2.733,1.388c0.531,0.729,0.746,1.621,0.605,2.511
		c-0.035,0.224-0.092,0.441-0.169,0.651c0.708,0.111,1.358,0.442,1.87,0.958c0.635,0.64,0.982,1.489,0.978,2.391
		c-0.004,0.901-0.359,1.747-1,2.382c-0.636,0.63-1.479,0.978-2.375,0.978h-1.887v0.75C18.757,12.419,18.421,12.756,18.007,12.756z
		 M20.658,9.756c0.484,0,0.952-0.193,1.306-0.543c0.356-0.352,0.553-0.822,0.555-1.323c0.002-0.501-0.19-0.973-0.543-1.328
		c-0.353-0.356-0.823-0.553-1.323-0.555l-0.045,0c-0.246,0-0.497,0.057-0.744,0.171c-0.099,0.045-0.204,0.068-0.312,0.068
		c-0.266,0-0.514-0.142-0.648-0.371c-0.195-0.334-0.107-0.757,0.206-0.985c0.405-0.295,0.671-0.729,0.749-1.224
		c0.078-0.495-0.042-0.99-0.337-1.395c-0.351-0.483-0.919-0.771-1.519-0.771c-0.398,0-0.779,0.124-1.101,0.359
		c-0.836,0.609-1.021,1.783-0.412,2.619c0.115,0.158,0.254,0.297,0.412,0.412c0.312,0.228,0.401,0.651,0.207,0.984
		c-0.134,0.23-0.382,0.372-0.648,0.372c-0.107,0-0.211-0.022-0.309-0.067c-0.245-0.111-0.503-0.167-0.77-0.167
		c-0.736,0-1.407,0.432-1.71,1.099c-0.426,0.94-0.008,2.053,0.933,2.479c0.245,0.111,0.505,0.167,0.774,0.167c0,0,5.252,0,5.257,0
		C20.642,9.755,20.652,9.756,20.658,9.756z"/>
	<path d="M6.007,12.006c-0.219,0-0.427-0.096-0.57-0.262l-4.5-5.25c-0.243-0.283-0.243-0.693,0-0.976l4.5-5.25
		c0.139-0.162,0.347-0.256,0.569-0.256s0.43,0.093,0.57,0.256l4.5,5.25c0.243,0.283,0.243,0.693,0,0.976l-4.5,5.25
		C6.434,11.91,6.227,12.006,6.007,12.006z M6.007,10.103L9.52,6.006L6.007,1.908L2.495,6.006L6.007,10.103z"/>
</g>
</svg>
