<?xml version="1.0" encoding="utf-8"?>
<!-- Generator: Adobe Illustrator 22.1.0, SVG Export Plug-In . SVG Version: 6.00 Build 0)  -->
<svg version="1.1" id="Regular" xmlns="http://www.w3.org/2000/svg" xmlns:xlink="http://www.w3.org/1999/xlink" x="0px" y="0px"
	 viewBox="0 0 24 24" style="enable-background:new 0 0 24 24;" xml:space="preserve">
<title>card-game-dice</title>
<g>
	<path d="M13.751,24c-0.965,0-1.75-0.785-1.75-1.75V16.5h-2.25c-1.241,0-2.25-1.009-2.25-2.25V4.764L2.004,6.768
		C1.607,6.912,1.406,7.343,1.547,7.732l4.107,11.27c0.108,0.297,0.392,0.497,0.707,0.497c0.087,0,0.172-0.015,0.255-0.045
		l2.879-1.049c0.083-0.03,0.169-0.045,0.257-0.045c0.314,0,0.597,0.198,0.704,0.493c0.069,0.188,0.06,0.392-0.025,0.573
		c-0.085,0.182-0.235,0.32-0.423,0.388l-2.879,1.049c-0.248,0.09-0.506,0.136-0.767,0.136c-0.944,0-1.795-0.595-2.116-1.481
		L0.137,8.245c-0.423-1.163,0.178-2.456,1.34-2.882l6.024-2.196V2.25C7.501,1.009,8.51,0,9.751,0h7.5c1.241,0,2.25,1.009,2.25,2.25
		V12h2.75c0.965,0,1.75,0.785,1.75,1.75v8.5c0,0.965-0.785,1.75-1.75,1.75H13.751z M13.751,13.5c-0.138,0-0.25,0.112-0.25,0.25v8.5
		c0,0.138,0.112,0.25,0.25,0.25h8.5c0.138,0,0.25-0.112,0.25-0.25v-8.5c0-0.138-0.112-0.25-0.25-0.25H13.751z M9.751,1.5
		c-0.414,0-0.75,0.336-0.75,0.75v12c0,0.414,0.336,0.75,0.75,0.75h2.25v-1.25c0-0.965,0.785-1.75,1.75-1.75h4.25V2.25
		c0-0.414-0.336-0.75-0.75-0.75H9.751z"/>
	<path d="M19.876,17.25c-0.044,0-0.088-0.004-0.13-0.011c-0.513-0.06-0.923-0.47-0.983-0.983c-0.008-0.042-0.011-0.086-0.011-0.131
		s0.004-0.088,0.011-0.131c0.06-0.513,0.47-0.923,0.983-0.983C19.788,15.004,19.831,15,19.876,15s0.088,0.004,0.131,0.011
		c0.513,0.06,0.923,0.47,0.983,0.983c0.008,0.042,0.011,0.086,0.011,0.131s-0.004,0.088-0.011,0.131
		c-0.06,0.513-0.47,0.923-0.983,0.983C19.964,17.246,19.92,17.25,19.876,17.25z"/>
	<path d="M16.126,17.25c-0.044,0-0.088-0.004-0.13-0.011c-0.513-0.06-0.923-0.47-0.983-0.983c-0.008-0.042-0.011-0.086-0.011-0.131
		s0.004-0.088,0.011-0.131c0.06-0.513,0.47-0.923,0.983-0.983C16.038,15.004,16.081,15,16.126,15s0.088,0.004,0.131,0.011
		c0.513,0.06,0.923,0.47,0.983,0.983c0.008,0.042,0.011,0.086,0.011,0.131s-0.004,0.088-0.011,0.131
		c-0.06,0.513-0.47,0.923-0.983,0.983C16.214,17.246,16.17,17.25,16.126,17.25z"/>
	<path d="M16.126,21c-0.044,0-0.088-0.004-0.13-0.011c-0.513-0.06-0.923-0.47-0.983-0.983c-0.008-0.042-0.011-0.086-0.011-0.131
		s0.004-0.088,0.011-0.131c0.06-0.513,0.47-0.923,0.983-0.983c0.042-0.008,0.086-0.011,0.131-0.011s0.088,0.004,0.131,0.011
		c0.513,0.06,0.923,0.47,0.983,0.983c0.008,0.042,0.011,0.086,0.011,0.131s-0.004,0.088-0.011,0.131
		c-0.06,0.513-0.47,0.923-0.983,0.983C16.214,20.996,16.17,21,16.126,21z"/>
	<path d="M19.876,21c-0.044,0-0.088-0.004-0.13-0.011c-0.513-0.06-0.923-0.47-0.983-0.983c-0.008-0.042-0.011-0.086-0.011-0.131
		s0.004-0.088,0.011-0.131c0.06-0.513,0.47-0.923,0.983-0.983c0.042-0.008,0.086-0.011,0.131-0.011s0.088,0.004,0.131,0.011
		c0.513,0.06,0.923,0.47,0.983,0.983c0.008,0.042,0.011,0.086,0.011,0.131s-0.004,0.088-0.011,0.131
		c-0.06,0.513-0.47,0.923-0.983,0.983C19.964,20.996,19.92,21,19.876,21z"/>
	<path d="M13.501,11.25c-1.654,0-3-1.346-3-3s1.346-3,3-3c1.654,0,3,1.346,3,3S15.155,11.25,13.501,11.25z M13.501,6.75
		c-0.827,0-1.5,0.673-1.5,1.5s0.673,1.5,1.5,1.5s1.5-0.673,1.5-1.5S14.328,6.75,13.501,6.75z"/>
</g>
</svg>
