<?xml version="1.0" encoding="utf-8"?>
<!-- Generator: Adobe Illustrator 22.1.0, SVG Export Plug-In . SVG Version: 6.00 Build 0)  -->
<svg version="1.1" id="Regular" xmlns="http://www.w3.org/2000/svg" xmlns:xlink="http://www.w3.org/1999/xlink" x="0px" y="0px"
	 viewBox="0 0 24 24" style="enable-background:new 0 0 24 24;" xml:space="preserve">
<title>card-game-heart</title>
<g>
	<path d="M11.966,16.505c-0.352-0.008-0.682-0.155-0.927-0.411l-3.507-3.627C6.489,11.376,6.489,9.67,7.527,8.582
		c0.03-0.031,0.06-0.061,0.091-0.091C8.113,8.02,8.756,7.76,9.427,7.76c0.028,0,0.057,0,0.085,0.001
		c0.705,0.017,1.363,0.309,1.852,0.821L12,9.237l0.641-0.66c0.023-0.025,0.055-0.057,0.088-0.087c0.493-0.47,1.144-0.729,1.83-0.729
		l0.059,0.001c0.708,0.017,1.367,0.309,1.855,0.821c1.034,1.086,1.034,2.788,0,3.874l-3.544,3.669
		c-0.26,0.249-0.586,0.379-0.929,0.379C11.997,16.505,11.969,16.505,11.966,16.505z M9.445,9.261c-0.296,0-0.578,0.113-0.792,0.318
		C8.639,9.591,8.625,9.604,8.613,9.618c-0.485,0.508-0.484,1.302,0,1.809L12,14.93l3.39-3.511c0.479-0.503,0.478-1.295-0.004-1.802
		c-0.212-0.222-0.497-0.349-0.804-0.356l-0.029,0c-0.296,0-0.577,0.113-0.792,0.318c-0.016,0.015-0.028,0.027-0.041,0.04
		l-1.182,1.218C12.4,10.978,12.204,11.059,12,11.059s-0.4-0.081-0.538-0.223l-1.179-1.214c-0.216-0.227-0.503-0.354-0.81-0.361
		L9.445,9.261z"/>
	<path d="M4,24c-0.965,0-1.75-0.785-1.75-1.75V1.75C2.25,0.785,3.035,0,4,0h16c0.965,0,1.75,0.785,1.75,1.75v20.5
		c0,0.965-0.785,1.75-1.75,1.75H4z M4,1.5c-0.138,0-0.25,0.112-0.25,0.25v20.5c0,0.138,0.112,0.25,0.25,0.25h16
		c0.138,0,0.25-0.112,0.25-0.25V1.75c0-0.138-0.112-0.25-0.25-0.25H4z"/>
	<path d="M6,4.875c-0.044,0-0.088-0.004-0.131-0.012c-0.513-0.06-0.922-0.47-0.982-0.982C4.879,3.838,4.875,3.794,4.875,3.75
		s0.004-0.088,0.012-0.131c0.06-0.513,0.47-0.922,0.982-0.982C5.912,2.629,5.956,2.625,6,2.625s0.088,0.004,0.131,0.012
		c0.513,0.06,0.922,0.47,0.982,0.982C7.121,3.662,7.125,3.706,7.125,3.75S7.121,3.838,7.113,3.881
		c-0.06,0.513-0.47,0.922-0.982,0.982C6.088,4.871,6.044,4.875,6,4.875z"/>
	<path d="M18,21.375c-0.044,0-0.088-0.004-0.13-0.011c-0.513-0.06-0.923-0.47-0.983-0.983c-0.007-0.042-0.011-0.086-0.011-0.13
		s0.004-0.088,0.011-0.131c0.06-0.513,0.47-0.923,0.983-0.983c0.042-0.008,0.086-0.011,0.131-0.011s0.088,0.004,0.131,0.011
		c0.513,0.06,0.923,0.47,0.983,0.983c0.008,0.042,0.011,0.086,0.011,0.131s-0.004,0.088-0.011,0.131
		c-0.06,0.513-0.47,0.923-0.983,0.983C18.088,21.371,18.044,21.375,18,21.375z"/>
</g>
</svg>
