<?xml version="1.0" encoding="utf-8"?>
<!-- Generator: Adobe Illustrator 22.1.0, SVG Export Plug-In . SVG Version: 6.00 Build 0)  -->
<svg version="1.1" id="Layer_1" xmlns="http://www.w3.org/2000/svg" xmlns:xlink="http://www.w3.org/1999/xlink" x="0px" y="0px"
	 viewBox="0 0 24 24" style="enable-background:new 0 0 24 24;" xml:space="preserve">
<title>cash-shield</title>
<g>
	<path d="M12,18c-0.414,0-0.75-0.336-0.75-0.75v-0.848C9.947,16.064,9,14.87,9,13.5c0-0.414,0.336-0.75,0.75-0.75
		s0.75,0.336,0.75,0.75c0,0.827,0.673,1.5,1.5,1.5s1.5-0.673,1.5-1.5S12.827,12,12,12c-1.654,0-3-1.346-3-3
		c0-1.37,0.947-2.564,2.25-2.902V5.25c0-0.414,0.336-0.75,0.75-0.75s0.75,0.336,0.75,0.75v0.848C14.053,6.436,15,7.63,15,9
		c0,0.414-0.336,0.75-0.75,0.75S13.5,9.414,13.5,9c0-0.827-0.673-1.5-1.5-1.5S10.5,8.173,10.5,9s0.673,1.5,1.5,1.5
		c1.654,0,3,1.346,3,3c0,1.37-0.947,2.564-2.25,2.902v0.848C12.75,17.664,12.414,18,12,18z"/>
	<path d="M12,23.25c-0.056,0-0.111-0.006-0.164-0.018C5.296,21.773,0.737,16.075,0.75,9.374V4.125c0-1.861,1.514-3.375,3.375-3.375
		h15.75c1.861,0,3.375,1.514,3.375,3.375v5.249c0.013,6.701-4.546,12.399-11.087,13.858C12.111,23.244,12.056,23.25,12,23.25z
		 M4.125,2.25c-1.034,0-1.875,0.841-1.875,1.875v5.25C2.239,15.302,6.243,20.37,12,21.73c5.757-1.361,9.761-6.428,9.75-12.354V4.125
		c0-1.034-0.841-1.875-1.875-1.875H4.125z"/>
</g>
</svg>
