<?xml version="1.0" encoding="utf-8"?>
<!-- Generator: Adobe Illustrator 22.1.0, SVG Export Plug-In . SVG Version: 6.00 Build 0)  -->
<svg version="1.1" id="Layer_1" xmlns="http://www.w3.org/2000/svg" xmlns:xlink="http://www.w3.org/1999/xlink" x="0px" y="0px"
	 viewBox="0 0 24 24" style="enable-background:new 0 0 24 24;" xml:space="preserve">
<title>cash-payment-coin</title>
<g>
	<path d="M0.75,24C0.336,24,0,23.664,0,23.25v-9c0-0.414,0.336-0.75,0.75-0.75s0.75,0.336,0.75,0.75V15h6c1.8,0,3.324,1.268,3.675,3
		h3.075c2.068,0,3.75,1.682,3.75,3.75c0,0.414-0.336,0.75-0.75,0.75H1.5v0.75C1.5,23.664,1.164,24,0.75,24z M16.371,21
		c-0.313-0.879-1.159-1.5-2.121-1.5h-7.5C6.336,19.5,6,19.164,6,18.75S6.336,18,6.75,18h2.868C9.305,17.121,8.46,16.5,7.5,16.5h-6
		V21H16.371z"/>
	<path d="M17.25,11.25c-0.414,0-0.75-0.336-0.75-0.75h-0.75c-0.414,0-0.75-0.336-0.75-0.75S15.336,9,15.75,9h2.031
		c0.242,0,0.458-0.146,0.548-0.371c0.059-0.146,0.057-0.307-0.005-0.453c-0.062-0.146-0.177-0.259-0.323-0.317l-2.063-0.825
		c-0.797-0.321-1.312-1.082-1.312-1.94c0-0.559,0.217-1.084,0.612-1.479C15.581,3.27,16.023,3.06,16.5,3.011V3
		c0-0.414,0.336-0.75,0.75-0.75S18,2.586,18,3h0.75c0.414,0,0.75,0.336,0.75,0.75S19.164,4.5,18.75,4.5h-2.033
		c-0.158,0-0.306,0.062-0.418,0.174c-0.112,0.112-0.173,0.26-0.173,0.418c0,0.243,0.146,0.458,0.371,0.549l2.063,0.825
		c1.071,0.431,1.592,1.652,1.161,2.722c-0.293,0.728-0.954,1.22-1.721,1.3V10.5C18,10.914,17.664,11.25,17.25,11.25z"/>
	<path d="M17.25,13.5c-3.722,0-6.75-3.028-6.75-6.75S13.528,0,17.25,0S24,3.028,24,6.75S20.972,13.5,17.25,13.5z M17.25,1.5
		C14.355,1.5,12,3.855,12,6.75S14.355,12,17.25,12s5.25-2.355,5.25-5.25S20.145,1.5,17.25,1.5z"/>
</g>
</svg>
