<?xml version="1.0" encoding="utf-8"?>
<!-- Generator: Adobe Illustrator 22.1.0, SVG Export Plug-In . SVG Version: 6.00 Build 0)  -->
<svg version="1.1" id="Layer_1" xmlns="http://www.w3.org/2000/svg" xmlns:xlink="http://www.w3.org/1999/xlink" x="0px" y="0px"
	 viewBox="0 0 24 24" style="enable-background:new 0 0 24 24;" xml:space="preserve">
<title>cash-user-1</title>
<g>
	<path d="M18.75,7.5C16.682,7.5,15,5.818,15,3.75S16.682,0,18.75,0s3.75,1.682,3.75,3.75S20.818,7.5,18.75,7.5z M18.75,1.5
		c-1.241,0-2.25,1.009-2.25,2.25S17.509,6,18.75,6S21,4.991,21,3.75S19.991,1.5,18.75,1.5z"/>
	<path d="M16.5,24c-0.387,0-0.708-0.291-0.746-0.676L15.071,16.5H14.25c-0.414,0-0.75-0.336-0.75-0.75v-3
		c0-2.895,2.355-5.25,5.25-5.25S24,9.855,24,12.75v3c0,0.414-0.336,0.75-0.75,0.75h-0.821l-0.683,6.825
		C21.708,23.709,21.387,24,21,24H16.5z M20.321,22.5l0.683-6.825C21.042,15.291,21.363,15,21.75,15h0.75v-2.25
		c0-1.781-1.288-3.32-3-3.672v3.672c0,0.414-0.336,0.75-0.75,0.75S18,13.164,18,12.75V9.078c-1.712,0.352-3,1.892-3,3.672V15h0.75
		c0.387,0,0.708,0.291,0.746,0.676l0.683,6.824H20.321z"/>
	<circle cx="3.375" cy="3.375" r="1.125"/>
	<path d="M2.135,12.75C0.95,12.737-0.006,11.768,0,10.589V2.156C-0.005,0.981,0.949,0.013,2.127,0h9.123C11.664,0,12,0.336,12,0.75
		S11.664,1.5,11.25,1.5H2.135C1.785,1.504,1.498,1.797,1.5,2.153v8.44c-0.002,0.359,0.287,0.653,0.643,0.657h9.107
		c0.414,0,0.75,0.336,0.75,0.75s-0.336,0.75-0.75,0.75H2.135z"/>
	<path d="M9.75,9c-1.654,0-3-1.346-3-3s1.346-3,3-3s3,1.346,3,3S11.404,9,9.75,9z M9.75,4.5c-0.827,0-1.5,0.673-1.5,1.5
		s0.673,1.5,1.5,1.5s1.5-0.673,1.5-1.5S10.577,4.5,9.75,4.5z"/>
</g>
</svg>
