<?xml version="1.0" encoding="utf-8"?>
<!-- Generator: Adobe Illustrator 22.1.0, SVG Export Plug-In . SVG Version: 6.00 Build 0)  -->
<svg version="1.1" id="Layer_1" xmlns="http://www.w3.org/2000/svg" xmlns:xlink="http://www.w3.org/1999/xlink" x="0px" y="0px"
	 viewBox="0 0 24 24" style="enable-background:new 0 0 24 24;" xml:space="preserve">
<title>cash-payment-coin-stash</title>
<g>
	<path d="M0.75,24C0.336,24,0,23.664,0,23.25v-9c0-0.414,0.336-0.75,0.75-0.75s0.75,0.336,0.75,0.75V15h6c1.8,0,3.324,1.268,3.675,3
		h3.075c2.068,0,3.75,1.682,3.75,3.75c0,0.414-0.336,0.75-0.75,0.75H1.5v0.75C1.5,23.664,1.164,24,0.75,24z M16.371,21
		c-0.313-0.879-1.159-1.5-2.121-1.5h-7.5C6.336,19.5,6,19.164,6,18.75S6.336,18,6.75,18h2.868C9.305,17.121,8.46,16.5,7.5,16.5h-6
		V21H16.371z"/>
	<path d="M17.25,15c-3.848,0-6.75-1.612-6.75-3.75v-7.5C10.5,1.612,13.402,0,17.25,0S24,1.612,24,3.75v7.5
		C24,13.388,21.098,15,17.25,15z M12,11.25c0,1.062,2.245,2.25,5.25,2.25s5.25-1.188,5.25-2.25V9.902
		c-1.25,0.854-3.142,1.348-5.25,1.348s-4-0.494-5.25-1.348V11.25z M12,7.5c0,1.062,2.245,2.25,5.25,2.25S22.5,8.562,22.5,7.5V6.152
		C21.25,7.006,19.358,7.5,17.25,7.5s-4-0.494-5.25-1.348V7.5z M17.25,1.5C14.245,1.5,12,2.688,12,3.75S14.245,6,17.25,6
		s5.25-1.188,5.25-2.25S20.255,1.5,17.25,1.5z"/>
</g>
</svg>
