<?xml version="1.0" encoding="utf-8"?>
<!-- Generator: Adobe Illustrator 22.1.0, SVG Export Plug-In . SVG Version: 6.00 Build 0)  -->
<svg version="1.1" id="Layer_1" xmlns="http://www.w3.org/2000/svg" xmlns:xlink="http://www.w3.org/1999/xlink" x="0px" y="0px"
	 viewBox="0 0 24 24" style="enable-background:new 0 0 24 24;" xml:space="preserve">
<title>cash-user-woman-message</title>
<g>
	<path d="M14.25,21.001c-0.099,0-0.196-0.019-0.288-0.057c-0.281-0.116-0.462-0.388-0.462-0.693v-4.5c0-0.414,0.336-0.75,0.75-0.75
		S15,15.337,15,15.751v2.689l3.22-3.22c0.14-0.14,0.333-0.22,0.53-0.22h3c0.414,0,0.75-0.336,0.75-0.75v-12
		c0-0.414-0.336-0.75-0.75-0.75h-12C9.336,1.501,9,1.837,9,2.251s-0.336,0.75-0.75,0.75c-0.414,0-0.75-0.336-0.75-0.75
		c0-1.241,1.009-2.25,2.25-2.25h12c1.241,0,2.25,1.009,2.25,2.25v12c0,1.241-1.009,2.25-2.25,2.25h-2.689l-4.28,4.28
		C14.639,20.923,14.45,21.001,14.25,21.001z"/>
	<path d="M16.5,13.342c-0.414,0-0.75-0.336-0.75-0.75v-0.75h-1.5c-0.414,0-0.75-0.336-0.75-0.75s0.336-0.75,0.75-0.75h3.155
		c0.242,0,0.458-0.146,0.548-0.371c0.118-0.294-0.019-0.631-0.306-0.76l-2.62-0.814c-0.019-0.006-0.039-0.013-0.057-0.021
		c-0.798-0.319-1.315-1.083-1.313-1.944c0-0.559,0.219-1.084,0.614-1.478c0.395-0.394,0.92-0.611,1.478-0.611h0.002v-0.75
		c0-0.414,0.336-0.75,0.75-0.75s0.75,0.336,0.75,0.75v0.75h1.125c0.414,0,0.75,0.336,0.75,0.75s-0.336,0.75-0.75,0.75H15.75
		c-0.159,0-0.308,0.061-0.42,0.173c-0.112,0.112-0.174,0.26-0.174,0.418c0,0.235,0.137,0.446,0.35,0.541l2.621,0.814
		c0.021,0.006,0.04,0.013,0.059,0.021c0.517,0.208,0.923,0.606,1.142,1.12c0.219,0.514,0.225,1.083,0.016,1.601
		c-0.32,0.796-1.081,1.31-1.939,1.311H17.25v0.75C17.25,13.005,16.914,13.342,16.5,13.342z"/>
	<path d="M11.25,12.001c-0.674,0-1.847-0.264-2.521-1.933C8.027,10.818,7.05,11.251,6,11.251s-2.027-0.432-2.729-1.183
		c-0.674,1.669-1.847,1.933-2.521,1.933c-0.414,0-0.75-0.336-0.75-0.75s0.336-0.75,0.75-0.75c1.444,0,1.5-2.971,1.5-3.001
		c0-2.067,1.682-3.749,3.75-3.749S9.75,5.433,9.75,7.5c0,0.029,0.055,3,1.5,3c0.414,0,0.75,0.336,0.75,0.75
		S11.664,12.001,11.25,12.001z M6,5.251c-1.241,0-2.25,1.009-2.25,2.25S4.759,9.751,6,9.751s2.25-1.009,2.25-2.25
		S7.241,5.251,6,5.251z"/>
	<path d="M3.371,24.001c-0.385,0-0.704-0.291-0.742-0.676l-0.307-3.075H0.75c-0.414,0-0.75-0.336-0.75-0.75v-2.25
		c-0.001-2.025,1.009-3.899,2.702-5.013c0.123-0.081,0.266-0.123,0.412-0.123c0.253,0,0.488,0.126,0.627,0.338L6,15.886l2.26-3.434
		c0.139-0.212,0.374-0.338,0.627-0.338c0.147,0,0.289,0.043,0.411,0.123c1.693,1.113,2.703,2.987,2.702,5.013v2.25
		c0,0.414-0.336,0.75-0.75,0.75H9.679l-0.307,3.075c-0.039,0.385-0.359,0.675-0.746,0.675c-0.027,0-0.054-0.001-0.081-0.004
		c-0.194-0.019-0.373-0.115-0.5-0.271c-0.127-0.155-0.186-0.35-0.166-0.55l0.375-3.75C8.292,19.041,8.613,18.751,9,18.751h1.5v-1.5
		c0.001-1.268-0.517-2.448-1.434-3.296l-2.44,3.708C6.492,17.868,6.258,17.99,6,17.99s-0.492-0.122-0.627-0.327l-2.44-3.708
		C2.017,14.803,1.499,15.983,1.5,17.25v1.5H3c0.387,0,0.708,0.29,0.746,0.675l0.375,3.75c0.02,0.199-0.039,0.395-0.166,0.55
		c-0.127,0.155-0.307,0.251-0.506,0.271C3.426,24,3.399,24.001,3.371,24.001z"/>
</g>
</svg>
