<?xml version="1.0" encoding="utf-8"?>
<!-- Generator: Adobe Illustrator 22.1.0, SVG Export Plug-In . SVG Version: 6.00 Build 0)  -->
<svg version="1.1" id="Layer_1" xmlns="http://www.w3.org/2000/svg" xmlns:xlink="http://www.w3.org/1999/xlink" x="0px" y="0px"
	 viewBox="0 0 24 24" style="enable-background:new 0 0 24 24;" xml:space="preserve">
<title>cash-eye</title>
<g>
	<path d="M11.873,20.251c-0.771,0-1.546-0.098-2.304-0.291c-3.031-0.758-6.385-3.095-8.97-6.252
		c-0.795-1.01-0.797-2.411-0.009-3.412C3.17,7.141,6.525,4.805,9.568,4.043c0.614-0.158,1.255-0.253,1.904-0.282
		C11.669,3.748,11.839,3.742,12,3.742c0.161,0,0.33,0.006,0.531,0.019c0.643,0.028,1.286,0.123,1.905,0.282
		c3.042,0.763,6.396,3.097,8.969,6.243c0.794,1.01,0.796,2.411,0.009,3.412c-2.588,3.168-5.944,5.508-8.982,6.264
		c-0.755,0.192-1.535,0.29-2.317,0.29L11.99,20.25L11.873,20.251z M11.912,5.25c-0.119,0-0.239,0.004-0.358,0.009
		C8.023,5.486,5.25,8.444,5.25,11.992c0,3.722,3.028,6.75,6.75,6.75c3.722,0,6.75-3.028,6.75-6.75c0-3.546-2.77-6.503-6.307-6.734
		c-0.114-0.005-0.236-0.009-0.359-0.009H11.912z M19.42,8.394c0.542,1.115,0.83,2.344,0.83,3.599c0,1.264-0.292,2.502-0.842,3.622
		c1.012-0.835,1.973-1.801,2.835-2.856c0.351-0.446,0.349-1.08-0.008-1.535C21.382,10.182,20.428,9.224,19.42,8.394z M4.578,8.399
		C3.57,9.23,2.615,10.189,1.76,11.235c-0.351,0.446-0.349,1.08,0.009,1.534c0.856,1.045,1.811,2.004,2.818,2.835
		c-0.547-1.118-0.837-2.353-0.837-3.612C3.75,10.74,4.037,9.512,4.578,8.399z"/>
	<path d="M12,16.867c-0.414,0-0.75-0.336-0.75-0.75v-0.353c-0.674-0.154-1.283-0.544-1.705-1.1c-0.121-0.16-0.173-0.357-0.146-0.555
		c0.027-0.198,0.13-0.375,0.289-0.496c0.131-0.1,0.288-0.153,0.453-0.153c0.237,0,0.454,0.108,0.598,0.296
		c0.277,0.364,0.715,0.582,1.173,0.582l0.058-0.001c0.775,0,1.342-0.422,1.342-0.799c0-0.376-0.562-0.796-1.313-0.796
		c-1.551,0-2.812-1.031-2.812-2.298c0-1.051,0.849-1.941,2.062-2.211V7.867c0-0.414,0.336-0.75,0.75-0.75
		c0.414,0,0.75,0.336,0.75,0.75v0.358c0.675,0.154,1.284,0.542,1.705,1.097c0.25,0.329,0.186,0.801-0.143,1.051
		c-0.132,0.1-0.289,0.153-0.454,0.153c-0.236,0-0.454-0.108-0.597-0.296c-0.277-0.364-0.715-0.581-1.173-0.581L12.03,9.65
		c-0.775,0-1.342,0.42-1.342,0.796c0,0.377,0.561,0.798,1.312,0.798c1.551,0,2.813,1.03,2.813,2.296c0,1.052-0.85,1.944-2.063,2.214
		v0.364C12.75,16.531,12.414,16.867,12,16.867z"/>
</g>
</svg>
