<?xml version="1.0" encoding="utf-8"?>
<!-- Generator: Adobe Illustrator 22.1.0, SVG Export Plug-In . SVG Version: 6.00 Build 0)  -->
<svg version="1.1" id="Layer_1" xmlns="http://www.w3.org/2000/svg" xmlns:xlink="http://www.w3.org/1999/xlink" x="0px" y="0px"
	 viewBox="0 0 24 24" style="enable-background:new 0 0 24 24;" xml:space="preserve">
<title>cash-bulb</title>
<g>
	<path d="M12,24c-0.414,0-0.75-0.336-0.75-0.75V22.5H9c-0.414,0-0.75-0.336-0.75-0.75S8.586,21,9,21h6c0.414,0,0.75,0.336,0.75,0.75
		S15.414,22.5,15,22.5h-2.25v0.75C12.75,23.663,12.414,24,12,24z"/>
	<path d="M9,19.5c-0.414,0-0.75-0.336-0.75-0.75v-1.566C5.053,15.723,3.001,12.539,3,9.004c-0.001-4.963,4.035-9.001,8.998-9.002
		c2.405,0,4.665,0.936,6.365,2.635C20.063,4.336,21,6.596,21,9c0,3.537-2.052,6.722-5.25,8.184v1.566c0,0.414-0.336,0.75-0.75,0.75
		H9z M14.25,18v-1.313c0-0.311,0.187-0.585,0.477-0.699C17.627,14.856,19.5,12.113,19.5,9c0-2.003-0.781-3.886-2.198-5.303
		C15.885,2.281,14.003,1.502,12,1.502l-0.002-0.375l0,0.375C7.863,1.503,4.499,4.868,4.5,9.003c0.001,3.112,1.874,5.854,4.773,6.985
		c0.29,0.113,0.477,0.387,0.477,0.699V18H14.25z"/>
	<path d="M12,13.5c-0.414,0-0.75-0.336-0.75-0.75v-0.353c-0.674-0.154-1.282-0.543-1.705-1.099
		c-0.121-0.159-0.173-0.356-0.146-0.555c0.027-0.199,0.13-0.375,0.289-0.496c0.131-0.1,0.288-0.153,0.453-0.153
		c0.233,0,0.457,0.111,0.598,0.297c0.276,0.363,0.712,0.581,1.166,0.581c0.021,0,0.042,0,0.063-0.001
		c0.776-0.001,1.344-0.421,1.344-0.798S12.751,9.375,12,9.375c-1.551,0-2.813-1.031-2.813-2.298c0-1.052,0.85-1.943,2.063-2.213V4.5
		c0-0.414,0.336-0.75,0.75-0.75s0.75,0.336,0.75,0.75v0.355c0.675,0.154,1.283,0.542,1.705,1.096
		c0.121,0.159,0.173,0.356,0.146,0.555c-0.027,0.198-0.13,0.375-0.289,0.496c-0.132,0.1-0.289,0.153-0.454,0.153
		c-0.236,0-0.454-0.108-0.597-0.296c-0.281-0.369-0.711-0.581-1.18-0.581l-0.053,0.001c-0.773,0-1.341,0.421-1.341,0.797
		c0,0.377,0.562,0.798,1.313,0.798c1.551,0,2.812,1.03,2.812,2.297c0,1.052-0.849,1.943-2.062,2.213v0.365
		C12.75,13.163,12.414,13.5,12,13.5z"/>
</g>
</svg>
