<?xml version="1.0" encoding="utf-8"?>
<!-- Generator: Adobe Illustrator 22.1.0, SVG Export Plug-In . SVG Version: 6.00 Build 0)  -->
<svg version="1.1" id="Layer_1" xmlns="http://www.w3.org/2000/svg" xmlns:xlink="http://www.w3.org/1999/xlink" x="0px" y="0px"
	 viewBox="0 0 24 24" style="enable-background:new 0 0 24 24;" xml:space="preserve">
<title>cash-payment-wallet</title>
<g>
	<path d="M2.752,23.933c-1.475,0-2.679-1.201-2.683-2.677v-9.646c0.002-0.719,0.283-1.392,0.792-1.898
		c0.506-0.503,1.178-0.78,1.892-0.78h1.271L3.557,7.486c-0.38-1.18,0.271-2.449,1.45-2.83l13.906-4.479
		c0.224-0.072,0.455-0.108,0.688-0.108c0.981,0,1.842,0.627,2.143,1.56l2.08,6.456c0.184,0.572,0.135,1.182-0.139,1.716
		c-0.274,0.535-0.74,0.931-1.312,1.115l-4.305,1.387v1.164c0.887,0.173,1.535,0.959,1.5,1.87l0,2.221
		c0.034,0.899-0.62,1.683-1.5,1.845v1.851c-0.005,1.478-1.209,2.679-2.685,2.679H2.752z M15.377,22.433
		c0.657,0,1.189-0.53,1.191-1.181v-1.819l-2.423,0c-1.618-0.067-2.879-1.418-2.827-3.012c-0.052-1.57,1.202-2.921,2.796-2.987
		c0.005,0,2.454,0,2.454,0v-1.822c-0.002-0.649-0.534-1.178-1.184-1.178H5.318v12H15.377z M2.751,10.433
		c-0.65,0-1.18,0.53-1.182,1.18v9.641c0.002,0.65,0.534,1.179,1.185,1.179h1.065v-12H2.751z M14.153,14.933
		c-0.759,0.035-1.365,0.695-1.336,1.471v0.053c-0.03,0.784,0.58,1.444,1.359,1.477l3.604,0c0.156-0.007,0.295-0.166,0.289-0.347
		l0-2.278c0.008-0.209-0.133-0.368-0.319-0.375c0,0-0.44,0-0.444,0L14.153,14.933z M15.377,8.933c1.184,0,2.196,0.751,2.552,1.838
		l3.983-1.283c0.191-0.062,0.346-0.194,0.438-0.372c0.092-0.178,0.108-0.382,0.046-0.572l-2.08-6.456
		c-0.1-0.311-0.387-0.52-0.715-0.52c-0.077,0-0.154,0.012-0.229,0.036L5.468,6.083C5.075,6.21,4.859,6.633,4.985,7.027l0.614,1.907
		H15.377z"/>
	<circle cx="16.226" cy="16.335" r="1.125"/>
	<path d="M15.011,8.52c-0.333,0-0.63-0.224-0.721-0.546c-0.057-0.201-0.196-0.37-0.382-0.465c-0.107-0.054-0.221-0.082-0.338-0.082
		c-0.079,0-0.157,0.013-0.234,0.038c-0.191,0.062-0.345,0.195-0.436,0.374C12.771,8.093,12.514,8.25,12.23,8.25
		c-0.117,0-0.234-0.028-0.339-0.081c-0.178-0.09-0.311-0.245-0.374-0.436c-0.062-0.19-0.047-0.394,0.044-0.572
		c0.272-0.536,0.736-0.934,1.307-1.121c0.228-0.074,0.464-0.112,0.701-0.112c0.35,0,0.701,0.085,1.016,0.245
		c0.558,0.283,0.976,0.791,1.147,1.394c0.054,0.193,0.031,0.395-0.067,0.57c-0.098,0.175-0.258,0.301-0.451,0.356
		C15.149,8.511,15.08,8.52,15.011,8.52z"/>
</g>
</svg>
