<?xml version="1.0" encoding="utf-8"?>
<!-- Generator: Adobe Illustrator 22.1.0, SVG Export Plug-In . SVG Version: 6.00 Build 0)  -->
<svg version="1.1" id="Layer_1" xmlns="http://www.w3.org/2000/svg" xmlns:xlink="http://www.w3.org/1999/xlink" x="0px" y="0px"
	 viewBox="0 0 24 24" style="enable-background:new 0 0 24 24;" xml:space="preserve">
<title>cash-map-directions</title>
<g>
	<path d="M7.499,20.741c-0.238,0-0.466-0.074-0.659-0.215c-0.096-0.069-0.18-0.153-0.25-0.25C0.642,12.088,0,8.614,0,7.5
		C0,3.365,3.365,0,7.5,0S15,3.365,15,7.5c0,1.115-0.642,4.59-6.589,12.777c-0.176,0.243-0.437,0.403-0.734,0.45
		C7.618,20.736,7.558,20.741,7.499,20.741z M7.5,1.5c-3.308,0-6,2.692-6,6c0,2.292,3.165,7.514,6,11.474
		c2.835-3.959,6-9.18,6-11.474C13.5,4.192,10.808,1.5,7.5,1.5z"/>
	<path d="M7.446,13.5c-0.414,0-0.75-0.336-0.75-0.75V12H5.2c-0.414,0-0.75-0.336-0.75-0.75S4.786,10.5,5.2,10.5h3.155
		c0.245,0,0.461-0.146,0.551-0.372c0.118-0.294-0.02-0.632-0.308-0.76L5.977,8.553C5.957,8.547,5.938,8.54,5.92,8.533
		c-0.796-0.32-1.31-1.081-1.311-1.939c0-0.559,0.217-1.085,0.612-1.48C5.615,4.719,6.139,4.501,6.696,4.5V3.75
		C6.696,3.336,7.032,3,7.446,3s0.75,0.336,0.75,0.75V4.5h1.125c0.414,0,0.75,0.336,0.75,0.75S9.735,6,9.321,6H6.7
		C6.374,6,6.109,6.266,6.109,6.592c0,0.234,0.136,0.444,0.349,0.539l2.62,0.814c0.019,0.006,0.038,0.013,0.056,0.02
		c0.518,0.207,0.925,0.604,1.145,1.119c0.22,0.514,0.227,1.083,0.02,1.601C9.979,11.484,9.217,12,8.357,12H8.196v0.75
		C8.196,13.164,7.86,13.5,7.446,13.5z"/>
	<path d="M9.75,24C9.336,24,9,23.664,9,23.25s0.336-0.75,0.75-0.75h1.5c0.414,0,0.75,0.336,0.75,0.75S11.664,24,11.25,24H9.75z"/>
	<path d="M14.25,24c-0.414,0-0.75-0.336-0.75-0.75s0.336-0.75,0.75-0.75h1.15c0.09-0.001,0.179-0.039,0.247-0.108
		c0.069-0.07,0.104-0.158,0.104-0.256V21c0-0.414,0.336-0.75,0.75-0.75s0.75,0.336,0.75,0.75v1.125
		c0.005,0.493-0.184,0.962-0.532,1.317S15.905,23.995,15.407,24c-0.001,0-0.002,0-0.004,0H14.25z"/>
	<path d="M16.5,18.75c-0.414,0-0.75-0.336-0.75-0.75v-1.5c0-0.414,0.336-0.75,0.75-0.75s0.75,0.336,0.75,0.75V18
		C17.25,18.414,16.914,18.75,16.5,18.75z"/>
	<path d="M16.5,14.25c-0.414,0-0.75-0.336-0.75-0.75v-1.125c-0.006-0.49,0.182-0.958,0.529-1.314
		c0.348-0.356,0.812-0.555,1.308-0.561h1.163c0.414,0,0.75,0.336,0.75,0.75S19.164,12,18.75,12H17.6
		c-0.091,0.001-0.18,0.04-0.248,0.109c-0.067,0.069-0.104,0.16-0.103,0.257V13.5C17.25,13.914,16.914,14.25,16.5,14.25z"/>
	<path d="M21.75,12C21.336,12,21,11.664,21,11.25s0.336-0.75,0.75-0.75h1.5c0.414,0,0.75,0.336,0.75,0.75S23.664,12,23.25,12H21.75z
		"/>
</g>
</svg>
