<?xml version="1.0" encoding="utf-8"?>
<!-- Generator: Adobe Illustrator 22.1.0, SVG Export Plug-In . SVG Version: 6.00 Build 0)  -->
<svg version="1.1" id="Layer_1" xmlns="http://www.w3.org/2000/svg" xmlns:xlink="http://www.w3.org/1999/xlink" x="0px" y="0px"
	 viewBox="0 0 24 24" style="enable-background:new 0 0 24 24;" xml:space="preserve">
<title>cash-toggles</title>
<g>
	<path d="M5.682,23.989c-0.508,0-0.997-0.188-1.375-0.53c-0.462-0.416-0.708-1.011-0.676-1.632l0.048-0.934
		c0.015-0.306-0.222-0.568-0.529-0.583H3.094l-0.932,0.048c-0.036,0.002-0.071,0.003-0.106,0.003c-1.095,0-1.997-0.857-2.053-1.95
		c-0.032-0.621,0.214-1.216,0.676-1.632l0.694-0.627c0.11-0.1,0.175-0.236,0.183-0.384c0.008-0.148-0.043-0.291-0.142-0.401
		c-0.013-0.015-0.027-0.028-0.04-0.04L0.679,14.7c-0.842-0.76-0.909-2.062-0.15-2.904c0.389-0.431,0.945-0.679,1.526-0.679
		c0.035,0,0.07,0.001,0.106,0.003l0.968,0.049c0.135,0,0.262-0.05,0.366-0.144c0.11-0.1,0.175-0.237,0.183-0.385
		c0.001-0.019,0.001-0.037,0-0.056L3.631,9.649C3.603,9.1,3.791,8.574,4.159,8.166C4.527,7.759,5.032,7.519,5.58,7.491
		c0.035-0.002,0.071-0.003,0.106-0.003c0.579,0,1.135,0.247,1.524,0.679l0.627,0.693C7.938,8.973,8.073,9.038,8.22,9.046
		l0.031,0.001c0.135,0,0.265-0.05,0.366-0.14c0.016-0.014,0.03-0.028,0.043-0.043l0.63-0.697c0.389-0.431,0.945-0.678,1.527-0.678
		c0.51,0,0.999,0.188,1.376,0.529c0.461,0.416,0.708,1.011,0.676,1.631l-0.048,0.936c-0.015,0.306,0.222,0.568,0.529,0.583l0.057,0
		l0.932-0.048c0.036-0.002,0.071-0.003,0.107-0.003c0.509,0,0.998,0.188,1.376,0.529c0.408,0.368,0.648,0.873,0.676,1.421
		c0.032,0.621-0.215,1.216-0.676,1.632l-0.694,0.626c-0.11,0.099-0.175,0.236-0.182,0.385c-0.008,0.148,0.043,0.291,0.142,0.401
		c0.013,0.014,0.025,0.027,0.038,0.038l0.696,0.629c0.841,0.759,0.908,2.062,0.149,2.904c-0.389,0.431-0.945,0.679-1.525,0.679l0,0
		c-0.036,0-0.072-0.001-0.108-0.003l-0.934-0.048l-0.026,0c-0.298,0-0.543,0.232-0.558,0.529c-0.001,0.019-0.001,0.037,0,0.054
		l0.048,0.935c0.028,0.548-0.159,1.074-0.527,1.482s-0.873,0.649-1.42,0.677c-0.036,0.002-0.072,0.003-0.108,0.003
		c-0.58,0-1.135-0.248-1.524-0.679l-0.627-0.694c-0.1-0.112-0.235-0.177-0.382-0.185L8.249,22.43c-0.137,0-0.263,0.048-0.365,0.14
		c-0.015,0.014-0.029,0.028-0.043,0.043l-0.63,0.698c-0.367,0.407-0.872,0.647-1.421,0.676C5.756,23.988,5.719,23.989,5.682,23.989z
		 M3.123,18.809c0.035,0,0.069,0.001,0.104,0.003c0.547,0.028,1.052,0.267,1.421,0.675c0.369,0.408,0.557,0.934,0.529,1.482
		l-0.048,0.935c-0.009,0.168,0.058,0.329,0.183,0.442c0.104,0.094,0.23,0.143,0.366,0.143l0.032-0.001
		c0.151-0.008,0.288-0.073,0.387-0.183l0.628-0.695c0.048-0.053,0.102-0.107,0.158-0.158c0.377-0.337,0.86-0.523,1.36-0.523
		c0.041,0,0.082,0.001,0.123,0.004c0.545,0.03,1.047,0.272,1.412,0.68l0.625,0.691c0.107,0.119,0.255,0.184,0.416,0.184l0.028,0
		c0.146-0.008,0.282-0.073,0.382-0.183c0.1-0.111,0.15-0.253,0.143-0.401l-0.048-0.934c-0.003-0.07-0.003-0.139,0-0.208
		c0.055-1.096,0.956-1.954,2.052-1.954c0.035,0,0.071,0.001,0.106,0.003l0.963,0.049c0.157,0,0.308-0.067,0.412-0.183
		c0.1-0.111,0.15-0.253,0.143-0.402c-0.008-0.148-0.073-0.285-0.182-0.384l-0.695-0.627c-0.052-0.047-0.102-0.097-0.15-0.15
		c-0.366-0.406-0.553-0.932-0.525-1.481c0.028-0.549,0.268-1.053,0.675-1.421l0.694-0.626c0.125-0.113,0.192-0.274,0.183-0.442
		c-0.008-0.148-0.073-0.285-0.183-0.384c-0.102-0.092-0.234-0.143-0.37-0.143l-0.03,0.001l-0.935,0.048
		c-0.034,0.002-0.069,0.003-0.104,0.003c-0.034,0-0.067-0.001-0.101-0.002c-0.551-0.028-1.056-0.268-1.425-0.676
		c-0.369-0.408-0.557-0.934-0.529-1.482l0.048-0.936c0.009-0.167-0.058-0.328-0.183-0.44c-0.102-0.092-0.234-0.143-0.372-0.143
		c-0.157,0-0.308,0.067-0.413,0.183L9.776,9.866C9.727,9.92,9.674,9.974,9.617,10.025c-0.377,0.337-0.861,0.523-1.362,0.523
		c-0.04,0-0.08-0.001-0.12-0.003c-0.546-0.03-1.047-0.272-1.412-0.679L6.098,9.172C5.991,9.054,5.844,8.988,5.685,8.988L5.656,8.989
		C5.508,8.997,5.371,9.062,5.272,9.172c-0.099,0.11-0.15,0.253-0.143,0.401l0.048,0.935c0.003,0.07,0.003,0.139,0,0.207
		c-0.028,0.549-0.267,1.054-0.675,1.423c-0.379,0.343-0.868,0.531-1.377,0.531c-0.035,0-0.071-0.001-0.106-0.003l-0.935-0.048
		l-0.032-0.001c-0.157,0-0.302,0.065-0.409,0.184c-0.205,0.228-0.187,0.58,0.04,0.785l0.694,0.625
		c0.052,0.047,0.103,0.097,0.15,0.15c0.367,0.407,0.554,0.933,0.526,1.482c-0.028,0.548-0.268,1.053-0.676,1.421l-0.694,0.627
		c-0.125,0.113-0.192,0.274-0.183,0.442c0.015,0.296,0.26,0.527,0.557,0.527l0.961-0.049C3.054,18.81,3.088,18.809,3.123,18.809z"/>
	<path d="M18.638,6.488c-0.62,0-1.125-0.505-1.125-1.125s0.505-1.125,1.125-1.125c0.623,0.002,1.126,0.507,1.125,1.127
		C19.763,5.983,19.258,6.488,18.638,6.488z"/>
	<path d="M19.673,10.725c-0.076,0-0.153-0.006-0.229-0.018c-0.371-0.057-0.705-0.25-0.94-0.543L17.639,9.09l-1.287,0.5
		c-0.174,0.067-0.355,0.101-0.54,0.101c-0.616,0-1.179-0.385-1.401-0.958c-0.135-0.349-0.135-0.735,0-1.085l0.5-1.287l-1.075-0.864
		c-0.645-0.521-0.746-1.468-0.226-2.112c0.234-0.29,0.566-0.481,0.934-0.539l1.366-0.211l0.21-1.363
		c0.114-0.737,0.738-1.271,1.482-1.271c0.076,0,0.154,0.006,0.23,0.018c0.371,0.057,0.705,0.25,0.94,0.543l0.865,1.074l1.285-0.5
		c0.175-0.068,0.358-0.102,0.543-0.102c0.209,0,0.413,0.043,0.606,0.129c0.367,0.162,0.648,0.457,0.793,0.83
		c0.135,0.35,0.135,0.735,0,1.084l-0.5,1.287l1.076,0.865c0.312,0.252,0.508,0.61,0.551,1.008c0.043,0.399-0.072,0.79-0.323,1.102
		c-0.234,0.291-0.567,0.483-0.937,0.541l-1.365,0.211l-0.211,1.364C21.042,10.179,20.405,10.725,19.673,10.725L19.673,10.725z
		 M17.64,7.589c0.455,0,0.88,0.204,1.167,0.56l0.865,1.076l0.211-1.363c0.1-0.649,0.603-1.152,1.252-1.253l1.365-0.211l-1.076-0.864
		c-0.511-0.412-0.695-1.1-0.459-1.711l0.5-1.287l-1.286,0.501c-0.175,0.068-0.358,0.102-0.544,0.102
		c-0.456,0-0.881-0.205-1.168-0.562l-0.864-1.074l-0.211,1.363c-0.1,0.649-0.604,1.153-1.253,1.253l-1.363,0.211l1.076,0.864
		c0.511,0.413,0.695,1.1,0.459,1.711l-0.5,1.287l1.286-0.5C17.271,7.624,17.454,7.589,17.64,7.589z"/>
	<path d="M8.193,19.811c-0.414,0-0.75-0.336-0.75-0.75v-0.25l-0.75,0c-0.414,0-0.75-0.336-0.75-0.75s0.336-0.75,0.75-0.75H8.8
		c0.059-0.005,0.152-0.1,0.145-0.214c-0.001-0.019-0.001-0.04-0.001-0.061c0.002-0.092-0.044-0.179-0.119-0.229l-1.711-0.598
		c-0.03-0.011-0.059-0.023-0.086-0.036c-0.605-0.299-0.99-0.93-0.978-1.607c-0.037-0.831,0.573-1.575,1.393-1.728v-0.277
		c0-0.414,0.336-0.75,0.75-0.75s0.75,0.336,0.75,0.75v0.25l0.5,0c0.414,0,0.75,0.336,0.75,0.75s-0.336,0.75-0.75,0.75h-1.75
		c-0.059,0.005-0.151,0.1-0.144,0.215c0.001,0.02,0.001,0.04,0.001,0.061c-0.003,0.092,0.043,0.178,0.118,0.227l1.712,0.599
		c0.03,0.01,0.06,0.023,0.088,0.038c0.603,0.3,0.987,0.931,0.976,1.606c0.039,0.868-0.627,1.64-1.501,1.745v0.26
		C8.943,19.474,8.607,19.811,8.193,19.811z"/>
</g>
</svg>
