<?xml version="1.0" encoding="utf-8"?>
<!-- Generator: Adobe Illustrator 22.1.0, SVG Export Plug-In . SVG Version: 6.00 Build 0)  -->
<svg version="1.1" id="Layer_1" xmlns="http://www.w3.org/2000/svg" xmlns:xlink="http://www.w3.org/1999/xlink" x="0px" y="0px"
	 viewBox="0 0 24 24" style="enable-background:new 0 0 24 24;" xml:space="preserve">
<title>cash-payment-person</title>
<g>
	<path d="M9.098,24c-0.965,0-1.75-0.785-1.75-1.75v-5.5c0-0.965,0.785-1.75,1.75-1.75h1.19l0.528-2.177
		c0.245-1.014,1.144-1.722,2.186-1.722c0.175,0,0.351,0.021,0.522,0.062c0.003,0.001,8.752,2.114,8.752,2.114
		c0.584,0.142,1.079,0.502,1.392,1.015c0.313,0.513,0.407,1.117,0.266,1.701l-1.056,4.373c-0.233,0.963-1.056,1.649-2.031,1.716
		v0.168c0,0.965-0.785,1.75-1.75,1.75H9.098z M9.098,16.5c-0.138,0-0.25,0.112-0.25,0.25v5.5c0,0.138,0.112,0.25,0.25,0.25h10
		c0.138,0,0.25-0.112,0.25-0.25v-5.5c0-0.138-0.112-0.25-0.25-0.25H9.098z M19.098,15c0.965,0,1.75,0.785,1.75,1.75v3.818
		c0.279-0.058,0.504-0.27,0.573-0.555l1.056-4.373c0.047-0.194,0.015-0.396-0.089-0.567c-0.105-0.171-0.269-0.292-0.463-0.338
		l-8.747-2.112c-0.057-0.014-0.116-0.021-0.174-0.021c-0.343,0-0.65,0.241-0.73,0.574L19.098,15z"/>
	<circle cx="14.251" cy="19.5" r="1.125"/>
	<path d="M0.75,18c-0.413,0-0.75-0.337-0.75-0.75c0.003-4.135,3.37-7.5,7.505-7.5c0.793,0,1.572,0.124,2.321,0.368
		c0.19,0.062,0.345,0.194,0.436,0.373c0.091,0.178,0.107,0.382,0.045,0.572c-0.101,0.31-0.387,0.518-0.713,0.518l0,0
		c-0.079,0-0.157-0.012-0.232-0.037C8.764,11.349,8.14,11.25,7.51,11.25c-3.313,0-6.007,2.692-6.009,6.001
		C1.501,17.664,1.164,18,0.75,18C0.751,18,0.751,18,0.75,18z"/>
	<path d="M7.501,9.75c-2.688,0-4.875-2.187-4.875-4.875c0-0.839,0.221-1.669,0.639-2.404C3.282,2.436,3.3,2.41,3.311,2.394
		C4.186,0.919,5.792,0,7.501,0c2.388,0,4.454,1.778,4.814,4.139c0.013,0.052,0.021,0.102,0.022,0.151
		c0.026,0.218,0.039,0.404,0.039,0.585C12.376,7.563,10.189,9.75,7.501,9.75z M4.231,4.037C4.161,4.31,4.126,4.59,4.126,4.875
		c0,1.861,1.514,3.375,3.375,3.375c1.694,0,3.101-1.255,3.339-2.883c-0.639,0.172-1.296,0.258-1.96,0.258c0,0-0.004,0-0.006,0
		C7.19,5.625,5.562,5.065,4.231,4.037z M8.881,4.125c0.625,0,1.24-0.095,1.832-0.282C10.269,2.468,8.967,1.5,7.501,1.5
		c-0.987,0-1.922,0.437-2.561,1.184c1.092,0.919,2.506,1.44,3.932,1.441c0.002,0,0.003,0,0.005,0
		C8.877,4.125,8.879,4.125,8.881,4.125z"/>
</g>
</svg>
