<?xml version="1.0" encoding="utf-8"?>
<!-- Generator: Adobe Illustrator 22.1.0, SVG Export Plug-In . SVG Version: 6.00 Build 0)  -->
<svg version="1.1" id="Layer_1" xmlns="http://www.w3.org/2000/svg" xmlns:xlink="http://www.w3.org/1999/xlink" x="0px" y="0px"
	 viewBox="0 0 24 24" style="enable-background:new 0 0 24 24;" xml:space="preserve">
<title>cash-payment-coins</title>
<g>
	<path d="M0.75,24C0.336,24,0,23.664,0,23.25v-9c0-0.414,0.336-0.75,0.75-0.75s0.75,0.336,0.75,0.75V15h6c1.8,0,3.324,1.268,3.675,3
		h3.075c2.068,0,3.75,1.682,3.75,3.75c0,0.414-0.336,0.75-0.75,0.75H1.5v0.75C1.5,23.664,1.164,24,0.75,24z M16.371,21
		c-0.313-0.879-1.159-1.5-2.121-1.5h-7.5C6.336,19.5,6,19.164,6,18.75S6.336,18,6.75,18h2.868C9.305,17.121,8.46,16.5,7.5,16.5h-6
		V21H16.371z"/>
	<path d="M18.75,10.5c-2.895,0-5.25-2.355-5.25-5.25S15.855,0,18.75,0S24,2.355,24,5.25S21.645,10.5,18.75,10.5z M18.75,1.5
		C16.682,1.5,15,3.182,15,5.25S16.682,9,18.75,9s3.75-1.682,3.75-3.75S20.818,1.5,18.75,1.5z"/>
	<path d="M15.75,16.5c-1.002,0-1.944-0.39-2.652-1.098C12.39,14.694,12,13.753,12,12.751c0-0.914,0.333-1.795,0.938-2.481
		c0.142-0.161,0.347-0.254,0.563-0.254c0.183,0,0.359,0.067,0.496,0.187c0.15,0.133,0.24,0.316,0.252,0.516
		c0.012,0.2-0.053,0.393-0.186,0.543c-0.363,0.411-0.562,0.94-0.562,1.489c0,1.24,1.01,2.25,2.25,2.25
		c0.601,0,1.167-0.234,1.592-0.659C17.766,13.916,18,13.351,18,12.75c0-0.414,0.336-0.75,0.75-0.75s0.75,0.336,0.75,0.75
		c0,1.001-0.39,1.943-1.098,2.652C17.694,16.11,16.752,16.5,15.75,16.5z"/>
</g>
</svg>
