<?xml version="1.0" encoding="utf-8"?>
<!-- Generator: Adobe Illustrator 22.1.0, SVG Export Plug-In . SVG Version: 6.00 Build 0)  -->
<svg version="1.1" id="Regular" xmlns="http://www.w3.org/2000/svg" xmlns:xlink="http://www.w3.org/1999/xlink" x="0px" y="0px"
	 viewBox="0 0 24 24" style="enable-background:new 0 0 24 24;" xml:space="preserve">
<title>casino-gold-bars</title>
<g>
	<path d="M17.25,24c-2.38,0-4.608-1.278-5.82-3.337c-0.01-0.013-0.019-0.027-0.026-0.038c-0.009-0.015-0.016-0.031-0.024-0.047
		c-0.576-1.013-0.881-2.163-0.881-3.328c0-1.165,0.305-2.316,0.881-3.329c0.005-0.013,0.014-0.031,0.024-0.048
		c0.006-0.01,0.017-0.026,0.026-0.04c1.212-2.057,3.44-3.333,5.818-3.333c2.377,0,4.604,1.276,5.816,3.331
		c0.008,0.011,0.019,0.026,0.029,0.043c0.006,0.011,0.016,0.031,0.024,0.048C23.695,14.934,24,16.085,24,17.25
		c0,1.165-0.304,2.315-0.88,3.327c-0.006,0.015-0.015,0.032-0.025,0.05c-0.007,0.012-0.018,0.027-0.028,0.041
		C21.866,22.717,19.635,24,17.25,24z M18,22.445c1.337-0.19,2.534-0.882,3.373-1.949l-1.985-1.146
		c-0.383,0.39-0.861,0.666-1.388,0.802V22.445z M13.127,20.496c0.839,1.067,2.036,1.759,3.373,1.949v-2.293
		c-0.527-0.135-1.005-0.412-1.388-0.802L13.127,20.496z M12.375,15.302C12.126,15.921,12,16.574,12,17.25s0.126,1.329,0.375,1.948
		l1.985-1.146c-0.073-0.261-0.111-0.53-0.111-0.802s0.037-0.541,0.111-0.802L12.375,15.302z M22.125,19.198
		c0.249-0.619,0.375-1.272,0.375-1.948s-0.126-1.329-0.375-1.948l-1.985,1.146c0.073,0.261,0.111,0.53,0.111,0.802
		s-0.037,0.541-0.111,0.802L22.125,19.198z M17.25,15.75c-0.827,0-1.5,0.673-1.5,1.5s0.673,1.5,1.5,1.5s1.5-0.673,1.5-1.5
		S18.077,15.75,17.25,15.75z M15.112,15.15c0.383-0.39,0.861-0.666,1.388-0.802v-2.293c-1.337,0.19-2.534,0.882-3.373,1.949
		L15.112,15.15z M18,14.348c0.527,0.135,1.005,0.412,1.388,0.802l1.985-1.146c-0.839-1.067-2.036-1.759-3.373-1.949V14.348z"/>
	<path d="M1.5,12c-0.402,0-0.779-0.157-1.062-0.441C0.155,11.275-0.001,10.898,0,10.497c0-0.16,0.026-0.317,0.076-0.469l1.294-3.76
		C1.573,5.661,2.145,5.25,2.791,5.25H5.25c0-0.001,0-0.002,0-0.003c0-0.159,0.026-0.317,0.076-0.468l1.294-3.76
		C6.823,0.411,7.395,0,8.041,0h4.918c0.646,0,1.219,0.412,1.423,1.025l1.289,3.743c0.053,0.158,0.078,0.32,0.077,0.481h2.461
		c0.646,0,1.219,0.412,1.423,1.025l0.854,2.48c0.135,0.391-0.074,0.818-0.465,0.953C19.943,9.736,19.86,9.75,19.777,9.75
		c-0.32,0-0.605-0.203-0.709-0.506l-0.856-2.487L14.25,6.75h-0.959l-0.859,2.494c-0.104,0.303-0.389,0.506-0.709,0.506
		c-0.083,0-0.165-0.014-0.244-0.041c-0.391-0.135-0.6-0.562-0.465-0.953l0.69-2.006H9.296c0,0,1.128,3.276,1.129,3.28
		c0.125,0.38,0.095,0.786-0.085,1.143c-0.18,0.358-0.489,0.625-0.869,0.751C9.319,11.974,9.161,12,9.001,12C9.001,12,1.5,12,1.5,12z
		 M1.497,10.507L9,10.5L7.712,6.757L6.75,6.75H2.791L1.497,10.507z M6.747,5.257L7.709,5.25h6.541l-1.288-3.743L8.041,1.5
		L6.747,5.257z"/>
</g>
</svg>
