<?xml version="1.0" encoding="utf-8"?>
<!-- Generator: Adobe Illustrator 22.1.0, SVG Export Plug-In . SVG Version: 6.00 Build 0)  -->
<svg version="1.1" id="Regular" xmlns="http://www.w3.org/2000/svg" xmlns:xlink="http://www.w3.org/1999/xlink" x="0px" y="0px"
	 viewBox="0 0 24 24" style="enable-background:new 0 0 24 24;" xml:space="preserve">
<title>casino-player-diamond</title>
<g>
	<path d="M16.679,23.25c-0.414,0-0.75-0.336-0.75-0.75v-2.25c0-0.221,0.096-0.429,0.265-0.572c0.135-0.115,0.307-0.178,0.485-0.178
		c0.042,0,0.083,0.003,0.125,0.01l1.005,0.168c0.125,0.021,0.252,0.031,0.377,0.031c0.467,0,0.917-0.145,1.301-0.419
		c0.489-0.349,0.813-0.868,0.912-1.461c0.021-0.122,0.031-0.247,0.031-0.371V15c0-0.345,0.233-0.644,0.568-0.728l0.935-0.234
		c0.195-0.049,0.359-0.17,0.463-0.342c0.103-0.171,0.134-0.373,0.085-0.568c-0.021-0.084-0.055-0.163-0.103-0.235l-1.821-2.728
		c-0.083-0.123-0.126-0.268-0.126-0.417V9c0-3.313-2.943-6.186-6.845-6.683c-0.199-0.025-0.376-0.126-0.498-0.285
		c-0.123-0.158-0.176-0.355-0.151-0.554c0.048-0.374,0.367-0.655,0.742-0.655c0.032,0,0.065,0.002,0.098,0.006
		C18.499,1.431,21.929,4.867,21.929,9v0.523l1.696,2.54c0.144,0.216,0.249,0.454,0.312,0.706c0.145,0.583,0.054,1.188-0.256,1.702
		c-0.31,0.515-0.802,0.878-1.385,1.023l-0.366,0.091v1.873c0,0.206-0.017,0.414-0.051,0.618c-0.165,0.988-0.705,1.853-1.52,2.435
		c-0.641,0.457-1.391,0.699-2.171,0.699l0,0c-0.208,0-0.419-0.018-0.626-0.052l-0.132-0.022V22.5
		C17.429,22.914,17.092,23.25,16.679,23.25z"/>
	<path d="M7.679,23.25c-0.414,0-0.75-0.336-0.75-0.75v-3.792c-2.548-1.627-4.212-4.375-4.466-7.395
		c-0.017-0.2,0.045-0.394,0.174-0.547c0.129-0.153,0.31-0.247,0.51-0.263C3.168,10.501,3.19,10.5,3.212,10.5
		c0.392,0,0.712,0.295,0.745,0.687c0.227,2.69,1.758,5.101,4.096,6.449c0.232,0.134,0.375,0.383,0.375,0.65V22.5
		C8.429,22.914,8.092,23.25,7.679,23.25z"/>
	<path d="M6.179,11.25c-0.052,0-0.104-0.006-0.156-0.017c-0.016-0.003-0.042-0.011-0.057-0.016
		c-0.016-0.004-0.053-0.015-0.088-0.031c-0.013-0.006-0.04-0.02-0.052-0.027c-0.025-0.013-0.054-0.03-0.081-0.049
		c-0.01-0.007-0.036-0.028-0.046-0.036c-0.019-0.016-0.038-0.033-0.056-0.051c-0.01-0.01-0.021-0.02-0.029-0.029l-5.25-6
		c-0.01-0.011-0.02-0.024-0.029-0.038C0.292,4.901,0.258,4.841,0.233,4.78C0.229,4.77,0.225,4.757,0.221,4.746
		C0.2,4.684,0.187,4.62,0.182,4.553C0.18,4.536,0.179,4.518,0.179,4.5c0-0.065,0.01-0.131,0.029-0.201
		c0.002-0.007,0.01-0.034,0.013-0.042c0.021-0.063,0.051-0.122,0.087-0.176c0.007-0.012,0.015-0.024,0.024-0.035L2.579,1.05
		c0.141-0.188,0.365-0.3,0.6-0.3h6c0.235,0,0.459,0.112,0.6,0.3l2.25,3c0.007,0.01,0.014,0.02,0.02,0.03
		c0.036,0.053,0.066,0.114,0.088,0.18c0.003,0.008,0.011,0.036,0.013,0.043c0.018,0.066,0.028,0.131,0.028,0.197
		c0,0.014-0.001,0.031-0.003,0.046c-0.001,0.009-0.002,0.017-0.003,0.023c-0.003,0.05-0.016,0.115-0.038,0.177
		c-0.004,0.011-0.008,0.024-0.011,0.033c-0.025,0.062-0.059,0.122-0.102,0.177c-0.009,0.013-0.018,0.026-0.028,0.037l-5.251,6.001
		c-0.008,0.009-0.018,0.019-0.028,0.028c-0.016,0.017-0.037,0.035-0.058,0.053c-0.015,0.013-0.031,0.026-0.048,0.038
		c-0.024,0.017-0.053,0.034-0.083,0.05c-0.011,0.006-0.027,0.015-0.044,0.023c-0.038,0.016-0.074,0.028-0.112,0.038
		c-0.016,0.006-0.022,0.007-0.039,0.01C6.283,11.244,6.23,11.25,6.179,11.25z M6.929,8.504L9.776,5.25H6.929V8.504z M5.429,8.504
		V5.25H2.582L5.429,8.504z M9.929,3.75l-1.125-1.5H6.929v1.5H9.929z M5.429,3.75v-1.5H3.554l-1.125,1.5H5.429z"/>
</g>
</svg>
