<?xml version="1.0" encoding="utf-8"?>
<!-- Generator: Adobe Illustrator 22.1.0, SVG Export Plug-In . SVG Version: 6.00 Build 0)  -->
<svg version="1.1" id="Regular" xmlns="http://www.w3.org/2000/svg" xmlns:xlink="http://www.w3.org/1999/xlink" x="0px" y="0px"
	 viewBox="0 0 24 24" style="enable-background:new 0 0 24 24;" xml:space="preserve">
<title>casino-lucky-clover</title>
<g>
	<path d="M15.375,24c-1.346,0-2.61-0.675-3.375-1.764C11.235,23.325,9.971,24,8.625,24C6.35,24,4.5,22.149,4.5,19.875V19.5H4.125
		C1.85,19.5,0,17.649,0,15.375c0-1.346,0.675-2.61,1.764-3.375C0.675,11.235,0,9.971,0,8.625C0,6.35,1.85,4.5,4.125,4.5H4.5V4.125
		C4.5,1.85,6.35,0,8.625,0C9.971,0,11.235,0.675,12,1.764C12.765,0.675,14.029,0,15.375,0C17.649,0,19.5,1.85,19.5,4.125V4.5h0.375
		C22.149,4.5,24,6.35,24,8.625c0,1.346-0.675,2.61-1.764,3.375C23.325,12.765,24,14.029,24,15.375c0,2.274-1.851,4.125-4.125,4.125
		H19.5v0.375C19.5,22.149,17.649,24,15.375,24z M12.75,19.875c0,1.448,1.177,2.625,2.625,2.625S18,21.323,18,19.875V18.75
		c0-0.414,0.336-0.75,0.75-0.75h1.125c1.448,0,2.625-1.177,2.625-2.625s-1.177-2.625-2.625-2.625H12.75V19.875z M4.125,12.75
		c-1.447,0-2.625,1.177-2.625,2.625S2.678,18,4.125,18H5.25C5.664,18,6,18.336,6,18.75v1.125C6,21.323,7.178,22.5,8.625,22.5
		s2.625-1.177,2.625-2.625V12.75H4.125z M19.875,11.25c1.448,0,2.625-1.178,2.625-2.625S21.323,6,19.875,6H18.75
		C18.336,6,18,5.664,18,5.25V4.125C18,2.678,16.823,1.5,15.375,1.5S12.75,2.678,12.75,4.125v7.125H19.875z M4.125,6
		C2.678,6,1.5,7.178,1.5,8.625s1.178,2.625,2.625,2.625h7.125V4.125c0-1.447-1.178-2.625-2.625-2.625S6,2.678,6,4.125V5.25
		C6,5.664,5.664,6,5.25,6H4.125z"/>
</g>
</svg>
