<?xml version="1.0" encoding="utf-8"?>
<!-- Generator: Adobe Illustrator 22.1.0, SVG Export Plug-In . SVG Version: 6.00 Build 0)  -->
<svg version="1.1" id="Regular" xmlns="http://www.w3.org/2000/svg" xmlns:xlink="http://www.w3.org/1999/xlink" x="0px" y="0px"
	 viewBox="0 0 24 24" style="enable-background:new 0 0 24 24;" xml:space="preserve">
<title>casino-lucky-horseshoe</title>
<g>
	<path d="M11.441,24C5.132,24-0.004,18.867-0.008,12.557c-0.001-1.995,0.522-3.964,1.512-5.694l1.49-2.609V2.25
		C2.994,1.009,4.004,0,5.244,0h3c1.241,0,2.25,1.009,2.25,2.25v3c-0.001,0.654-0.174,1.298-0.5,1.863l-1.978,3.47
		c-0.526,0.917-0.663,1.982-0.388,3c0.276,1.019,0.932,1.869,1.847,2.394c0.597,0.343,1.277,0.524,1.966,0.524h1.099
		c1.06,0,2.051-0.409,2.796-1.153c0.747-0.745,1.16-1.736,1.161-2.791c0.001-0.691-0.18-1.372-0.524-1.972L13.989,7.11
		c-0.325-0.563-0.498-1.206-0.499-1.859V2.25c0-1.241,1.009-2.25,2.25-2.25h3c1.241,0,2.25,1.009,2.25,2.25v2.001l1.49,2.609
		c3.137,5.478,1.233,12.488-4.246,15.626C16.506,23.476,14.538,24,12.544,24H11.441z M2.807,7.607
		c-0.861,1.505-1.316,3.216-1.315,4.949c0.003,5.483,4.467,9.944,9.95,9.944c0,0,1.102,0,1.102,0c1.732,0,3.442-0.455,4.946-1.316
		c4.76-2.727,6.415-8.819,3.688-13.579L19.833,5.25h-1.839c-0.414,0-0.75-0.336-0.75-0.75s0.336-0.75,0.75-0.75h1.496v-1.5
		c0-0.414-0.336-0.75-0.75-0.75h-3c-0.414,0-0.75,0.336-0.75,0.75v3c0.001,0.39,0.104,0.775,0.3,1.113l1.986,3.476
		c0.474,0.826,0.723,1.767,0.722,2.72c-0.002,1.455-0.571,2.823-1.602,3.851C15.367,17.435,14,18,12.548,18h-1.126
		c-0.938,0-1.869-0.25-2.693-0.723c-1.263-0.724-2.168-1.897-2.548-3.302C5.8,12.57,5.989,11.101,6.714,9.838l1.979-3.471
		C8.89,6.025,8.994,5.639,8.994,5.249V2.25c0-0.414-0.336-0.75-0.75-0.75h-3c-0.414,0-0.75,0.336-0.75,0.75v1.5h1.5
		c0.414,0,0.75,0.336,0.75,0.75s-0.336,0.75-0.75,0.75H4.153L2.807,7.607z"/>
	<path d="M11.994,21.375c-0.044,0-0.088-0.004-0.13-0.011c-0.513-0.06-0.923-0.47-0.983-0.983c-0.008-0.043-0.011-0.087-0.011-0.131
		s0.004-0.088,0.011-0.131c0.06-0.513,0.47-0.922,0.983-0.982c0.042-0.008,0.086-0.011,0.13-0.011s0.088,0.004,0.131,0.011
		c0.513,0.06,0.923,0.47,0.983,0.983c0.008,0.042,0.011,0.086,0.011,0.131s-0.004,0.088-0.011,0.131
		c-0.06,0.513-0.47,0.923-0.983,0.983C12.082,21.371,12.039,21.375,11.994,21.375z"/>
	<path d="M18.083,18.691c-0.281,0-0.551-0.104-0.758-0.294c-0.004-0.004-0.013-0.012-0.013-0.013
		c-0.444-0.408-0.475-1.12-0.058-1.577c0.001-0.001,0.003-0.003,0.004-0.005c0.212-0.229,0.513-0.361,0.826-0.361
		c0.281,0,0.55,0.104,0.757,0.292c0.001,0.001,0.003,0.003,0.005,0.004c0.454,0.419,0.486,1.129,0.069,1.586
		c0,0-0.007,0.008-0.011,0.011c-0.018,0.018-0.036,0.034-0.055,0.05c-0.007,0.007-0.017,0.015-0.027,0.024
		C18.614,18.591,18.352,18.691,18.083,18.691z"/>
	<path d="M20.21,12.385c-0.262,0-0.518-0.093-0.72-0.262c-0.231-0.193-0.372-0.464-0.399-0.763
		c-0.001-0.008-0.001-0.017-0.001-0.025c-0.002-0.036-0.001-0.072,0.001-0.107c0.015-0.515,0.387-0.959,0.892-1.065
		c0.026-0.007,0.052-0.011,0.079-0.016c0.003-0.001,0.006-0.001,0.009-0.002c0.014-0.003,0.028-0.005,0.042-0.006
		c0.012-0.001,0.025-0.002,0.037-0.002c0.004,0,0.044,0,0.048,0c0.013,0,0.027,0,0.04,0.001c0.259,0.006,0.499,0.094,0.695,0.258
		c0.227,0.189,0.367,0.454,0.398,0.748c0.001,0.006,0.002,0.018,0.002,0.018c0.002,0.025,0.002,0.049,0.001,0.073
		c0.012,0.257-0.078,0.53-0.256,0.744c-0.189,0.227-0.454,0.369-0.748,0.4c-0.002,0-0.084,0.005-0.085,0.005
		C20.24,12.385,20.225,12.385,20.21,12.385z"/>
	<path d="M5.906,18.691c-0.27,0-0.533-0.1-0.74-0.283c-0.003-0.002-0.014-0.012-0.017-0.015c-0.029-0.023-0.052-0.044-0.074-0.068
		c-0.419-0.459-0.386-1.172,0.072-1.59c0.208-0.189,0.477-0.293,0.758-0.293c0.31,0,0.608,0.129,0.82,0.354
		c0.004,0.004,0.011,0.012,0.011,0.012c0.417,0.457,0.386,1.169-0.069,1.587c-0.003,0.002-0.005,0.005-0.008,0.007
		C6.452,18.588,6.185,18.691,5.906,18.691z"/>
	<path d="M3.68,12.381c-0.008-0.001-0.016-0.002-0.025-0.003c-0.296-0.034-0.557-0.175-0.743-0.399
		c-0.179-0.216-0.27-0.489-0.256-0.771c0-0.017,0-0.038,0.001-0.051c0.002-0.025,0.007-0.049,0.012-0.073
		c0.072-0.522,0.524-0.926,1.072-0.945c0.02-0.002,0.04-0.002,0.06-0.002c0.011,0,0.077,0.002,0.079,0.002
		c0.024,0.002,0.047,0.006,0.069,0.012c0.017,0.003,0.035,0.006,0.053,0.01c0.507,0.105,0.881,0.552,0.895,1.07
		C4.9,11.251,4.9,11.269,4.9,11.288C4.9,11.3,4.898,11.36,4.898,11.361c-0.052,0.574-0.544,1.024-1.12,1.024
		C3.771,12.385,3.683,12.382,3.68,12.381z"/>
</g>
</svg>
