<?xml version="1.0" encoding="utf-8"?>
<!-- Generator: Adobe Illustrator 22.1.0, SVG Export Plug-In . SVG Version: 6.00 Build 0)  -->
<svg version="1.1" id="Regular" xmlns="http://www.w3.org/2000/svg" xmlns:xlink="http://www.w3.org/1999/xlink" x="0px" y="0px"
	 viewBox="0 0 24 24" style="enable-background:new 0 0 24 24;" xml:space="preserve">
<title>casino-pull-machine-slot</title>
<g>
	<path d="M16.959,14.411c-0.334,0-0.661-0.061-0.972-0.18l-5.723-2.2c-0.209-0.08-0.37-0.247-0.441-0.459l-0.017-0.05
		c-0.385-1.158,0.053-2.436,1.065-3.111c0.23-0.155,0.5-0.238,0.779-0.238c0.089,0,0.178,0.009,0.266,0.025l3.1,0.62
		c0.61-0.012,0.963-0.397,1.157-0.721c0.421-0.701,0.472-1.725,0.118-2.333c-0.205-0.351-0.5-0.514-0.93-0.514L15.31,5.25l-3.121,0
		c-0.285,0-0.55,0.165-0.675,0.421L11.19,6.336c-0.127,0.26-0.385,0.421-0.674,0.421c-0.113,0-0.226-0.026-0.328-0.075
		C9.815,6.5,9.66,6.05,9.841,5.678l0.324-0.664c0.374-0.768,1.168-1.264,2.022-1.264h3.101l0.073-0.001
		c0.962,0,1.752,0.447,2.226,1.258c0.625,1.072,0.572,2.696-0.128,3.861c-0.561,0.934-1.428,1.449-2.443,1.449
		c-0.035,0-0.071-0.001-0.107-0.002c-0.042-0.002-0.081-0.006-0.119-0.014l-3.116-0.623c-0.352,0.253-0.541,0.672-0.503,1.094
		l5.354,2.058c0.139,0.053,0.285,0.08,0.434,0.08c0.122,0,0.243-0.018,0.358-0.055l5.709-1.784c0.073-0.023,0.148-0.034,0.224-0.034
		c0.33,0,0.618,0.212,0.716,0.527c0.06,0.191,0.042,0.394-0.052,0.571c-0.093,0.177-0.25,0.308-0.441,0.368l-5.708,1.784
		C17.505,14.369,17.234,14.411,16.959,14.411z"/>
	<path d="M6.928,5.719c-0.114,0-0.228-0.027-0.331-0.077c-0.18-0.088-0.314-0.241-0.379-0.431S6.167,4.818,6.255,4.638l1.248-2.541
		C8.129,0.823,9.45,0,10.87,0h8.381c0.806,0,1.605,0.266,2.25,0.75l2.2,1.65c0.331,0.248,0.398,0.719,0.15,1.05
		c-0.141,0.188-0.365,0.3-0.6,0.3c-0.163,0-0.318-0.052-0.449-0.149L20.6,1.95c-0.387-0.29-0.866-0.45-1.35-0.45H10.87
		c-0.852,0-1.645,0.494-2.02,1.258L7.602,5.3C7.475,5.558,7.216,5.719,6.928,5.719z"/>
	<path d="M0.751,24c-0.414,0-0.75-0.336-0.75-0.75V9c0-0.414,0.336-0.75,0.75-0.75S1.501,8.586,1.501,9v7.5h1.5
		c1.241,0,2.25,1.009,2.25,2.25v0.618c0.879-0.313,1.5-1.158,1.5-2.118v-3.077c-1.127-0.229-2.085-0.956-2.604-1.992
		C3.22,10.332,3.971,8.075,5.82,7.149C6.341,6.888,6.922,6.75,7.499,6.75c0.55,0,1.085,0.119,1.589,0.355
		C9.462,7.28,9.624,7.727,9.449,8.102c-0.123,0.263-0.39,0.433-0.68,0.433c-0.111,0-0.218-0.024-0.318-0.071
		C8.149,8.322,7.828,8.25,7.499,8.25c-0.351,0-0.69,0.081-1.007,0.24C5.955,8.759,5.555,9.221,5.365,9.792
		c-0.19,0.571-0.146,1.181,0.122,1.717c0.384,0.766,1.156,1.242,2.016,1.242c0.351,0,0.688-0.08,1.004-0.238
		c0.104-0.052,0.22-0.08,0.336-0.08c0.286,0,0.543,0.159,0.671,0.414c0.09,0.179,0.104,0.383,0.041,0.573s-0.197,0.344-0.376,0.434
		c-0.295,0.148-0.606,0.255-0.928,0.321v3.074c0,1.799-1.268,3.323-3,3.673v0.827c0,1.241-1.009,2.25-2.25,2.25H0.751z M3.001,22.5
		c0.414,0,0.75-0.336,0.75-0.75v-3c0-0.414-0.336-0.75-0.75-0.75h-1.5v4.5H3.001z"/>
</g>
</svg>
