<?xml version="1.0" encoding="utf-8"?>
<!-- Generator: Adobe Illustrator 22.1.0, SVG Export Plug-In . SVG Version: 6.00 Build 0)  -->
<svg version="1.1" id="Regular" xmlns="http://www.w3.org/2000/svg" xmlns:xlink="http://www.w3.org/1999/xlink" x="0px" y="0px"
	 viewBox="0 0 24 24" style="enable-background:new 0 0 24 24;" xml:space="preserve">
<title>casino-777-slot-machine</title>
<g>
	<path d="M3.75,21C3.336,21,3,20.664,3,20.25s0.336-0.75,0.75-0.75h3c0.414,0,0.75,0.336,0.75,0.75S7.164,21,6.75,21H3.75z"/>
	<path d="M3.75,13.125c-0.044,0-0.088-0.004-0.13-0.011c-0.513-0.06-0.922-0.47-0.983-0.982C2.629,12.088,2.625,12.044,2.625,12
		s0.004-0.088,0.012-0.131c0.06-0.513,0.47-0.922,0.982-0.982c0.043-0.008,0.087-0.012,0.131-0.012s0.088,0.004,0.131,0.012
		c0.513,0.06,0.922,0.47,0.982,0.982C4.871,11.912,4.875,11.956,4.875,12s-0.004,0.088-0.012,0.131
		c-0.06,0.513-0.47,0.922-0.983,0.982C3.838,13.121,3.794,13.125,3.75,13.125z"/>
	<path d="M9.75,13.125c-0.044,0-0.088-0.004-0.13-0.011c-0.513-0.06-0.922-0.47-0.983-0.982C8.629,12.088,8.625,12.044,8.625,12
		s0.004-0.088,0.012-0.131c0.06-0.513,0.47-0.922,0.982-0.982c0.043-0.008,0.087-0.012,0.131-0.012s0.088,0.004,0.131,0.012
		c0.513,0.06,0.922,0.47,0.982,0.982c0.008,0.043,0.012,0.087,0.012,0.131s-0.004,0.088-0.012,0.131
		c-0.06,0.513-0.47,0.922-0.983,0.982C9.838,13.121,9.794,13.125,9.75,13.125z"/>
	<path d="M15.75,13.125c-0.044,0-0.088-0.004-0.13-0.011c-0.513-0.06-0.923-0.47-0.983-0.983c-0.008-0.042-0.011-0.086-0.011-0.13
		s0.004-0.088,0.011-0.13c0.06-0.513,0.47-0.923,0.982-0.983c0.043-0.008,0.087-0.011,0.131-0.011s0.088,0.004,0.131,0.011
		c0.513,0.06,0.922,0.47,0.983,0.983c0.007,0.042,0.011,0.086,0.011,0.13s-0.004,0.088-0.011,0.13
		c-0.061,0.513-0.47,0.923-0.983,0.983C15.838,13.121,15.794,13.125,15.75,13.125z"/>
	<path d="M1.75,24C0.785,24,0,23.215,0,22.25v-16C0,5.285,0.785,4.5,1.75,4.5h0.522C2.568,1.986,5.809,0,9.75,0
		s7.182,1.986,7.478,4.5h0.522c0.965,0,1.75,0.785,1.75,1.75v13.118c0.879-0.313,1.5-1.158,1.5-2.118v-4.629
		c-0.885-0.314-1.5-1.162-1.5-2.121c0-1.241,1.009-2.25,2.25-2.25S24,9.259,24,10.5c0,0.96-0.615,1.808-1.5,2.121v4.629
		c0,1.799-1.268,3.323-3,3.673v1.327c0,0.965-0.785,1.75-1.75,1.75H1.75z M1.5,22.25c0,0.138,0.112,0.25,0.25,0.25h16
		c0.138,0,0.25-0.112,0.25-0.25V16.5H1.5V22.25z M18,15V9h-4.5L18,15z M12,15V9H7.5v6H12z M6,15V9H1.5v6H6z M21.75,9.75
		c-0.414,0-0.75,0.336-0.75,0.75s0.336,0.75,0.75,0.75s0.75-0.336,0.75-0.75S22.164,9.75,21.75,9.75z M18,7.5V6.25
		C18,6.112,17.888,6,17.75,6h-16C1.612,6,1.5,6.112,1.5,6.25V7.5H18z M15.711,4.5c-0.344-1.661-2.934-3-5.961-3
		c-3.027,0-5.618,1.339-5.961,3H15.711z"/>
</g>
</svg>
