<?xml version="1.0" encoding="utf-8"?>
<!-- Generator: Adobe Illustrator 22.1.0, SVG Export Plug-In . SVG Version: 6.00 Build 0)  -->
<svg version="1.1" id="Regular" xmlns="http://www.w3.org/2000/svg" xmlns:xlink="http://www.w3.org/1999/xlink" x="0px" y="0px"
	 viewBox="0 0 24 24" style="enable-background:new 0 0 24 24;" xml:space="preserve">
<title>cat-grass-1</title>
<g>
	<path d="M7.324,23.25c-1.132,0-2.092-0.848-2.232-1.971L3.838,11.25H3c-0.414,0-0.75-0.336-0.75-0.75S2.587,9.75,3,9.75h0.849
		L1.626,6.416C1.515,6.249,1.476,6.049,1.515,5.853c0.039-0.196,0.153-0.366,0.319-0.477C1.958,5.293,2.102,5.25,2.25,5.25
		c0.251,0,0.485,0.125,0.624,0.334L5.652,9.75h2.241L5.304,3.279C5.15,2.895,5.338,2.457,5.722,2.304C5.811,2.268,5.904,2.25,6,2.25
		c0.309,0,0.582,0.185,0.696,0.472L9.508,9.75h1.742V1.5c0-0.414,0.336-0.75,0.75-0.75s0.75,0.336,0.75,0.75v8.25h1.742l2.812-7.029
		C17.419,2.435,17.692,2.25,18,2.25c0.096,0,0.189,0.018,0.279,0.054c0.186,0.074,0.332,0.217,0.41,0.401
		c0.079,0.184,0.082,0.388,0.007,0.574L16.108,9.75h2.241l2.777-4.166c0.139-0.209,0.373-0.334,0.624-0.334
		c0.148,0,0.292,0.044,0.416,0.126c0.167,0.111,0.28,0.28,0.32,0.477c0.039,0.196,0,0.396-0.112,0.563L20.152,9.75H21
		c0.414,0,0.75,0.336,0.75,0.75s-0.336,0.75-0.75,0.75h-0.838l-1.254,10.029c-0.14,1.123-1.1,1.97-2.232,1.971H7.324z M6.58,21.093
		c0.047,0.375,0.367,0.657,0.744,0.657h9.352c0.377,0,0.697-0.282,0.744-0.657l1.23-9.843H5.35L6.58,21.093z"/>
</g>
</svg>
