<?xml version="1.0" encoding="utf-8"?>
<!-- Generator: Adobe Illustrator 22.1.0, SVG Export Plug-In . SVG Version: 6.00 Build 0)  -->
<svg version="1.1" id="Regular" xmlns="http://www.w3.org/2000/svg" xmlns:xlink="http://www.w3.org/1999/xlink" x="0px" y="0px"
	 viewBox="0 0 24 24" style="enable-background:new 0 0 24 24;" xml:space="preserve">
<title>cat-toy</title>
<g>
	<path d="M14.502,24c-1.262,0-2.25-1.318-2.25-3c0-1.338,1.307-4.245,1.569-4.814c0.122-0.265,0.39-0.436,0.681-0.436
		s0.559,0.171,0.681,0.436c0.262,0.569,1.569,3.476,1.569,4.814C16.752,22.682,15.763,24,14.502,24z M14.502,18.424
		c-0.476,1.214-0.75,2.148-0.75,2.576c0,0.845,0.403,1.5,0.75,1.5s0.75-0.655,0.75-1.5C15.252,20.572,14.977,19.637,14.502,18.424z"
		/>
	<path d="M21.437,20.766c-0.657,0-1.36-0.229-1.98-0.643c-1.108-0.74-2.803-3.443-3.131-3.977c-0.153-0.249-0.147-0.566,0.015-0.809
		c0.14-0.209,0.373-0.334,0.623-0.334c0.04,0,0.08,0.003,0.12,0.01c0.616,0.097,3.754,0.62,4.868,1.363
		c1.397,0.931,1.945,2.482,1.25,3.534c-0.001,0.002-0.004,0.006-0.004,0.006C22.831,20.465,22.206,20.766,21.437,20.766
		C21.438,20.766,21.438,20.766,21.437,20.766z M18.564,16.821c0.747,1.071,1.372,1.819,1.726,2.056
		c0.371,0.248,0.79,0.39,1.147,0.39c0.117,0,0.402-0.018,0.512-0.183c0.193-0.29-0.128-0.991-0.83-1.459
		C20.764,17.387,19.835,17.097,18.564,16.821z"/>
	<path d="M7.565,20.766c-0.769,0-1.393-0.302-1.76-0.85c-0.701-1.053-0.154-2.608,1.246-3.541c1.114-0.742,4.252-1.266,4.87-1.363
		c0.038-0.006,0.078-0.01,0.117-0.01c0.251,0,0.484,0.125,0.623,0.334c0.162,0.243,0.168,0.56,0.015,0.809
		c-0.328,0.534-2.021,3.235-3.132,3.977C8.926,20.538,8.223,20.766,7.565,20.766L7.565,20.766z M10.439,16.821
		c-1.271,0.277-2.2,0.566-2.556,0.803c-0.703,0.469-1.023,1.17-0.829,1.46c0.11,0.164,0.394,0.182,0.511,0.182
		c0.358,0,0.777-0.142,1.148-0.39C9.068,18.639,9.693,17.891,10.439,16.821z"/>
	<path d="M4.001,24c-0.414,0-0.75-0.336-0.75-0.75v-15c0-0.414-0.336-0.75-0.75-0.75s-0.75,0.336-0.75,0.75v15
		c0,0.414-0.336,0.75-0.75,0.75s-0.75-0.336-0.75-0.75v-15c0-0.96,0.615-1.808,1.5-2.121V3.75C1.751,1.682,3.434,0,5.501,0h10.5
		c2.068,0,3.75,1.682,3.75,3.75s-1.682,3.75-3.75,3.75h-1.4c-1.24,0.002-2.248,1.013-2.246,2.253
		c0.001,0.566,0.213,1.107,0.597,1.523l2.1,2.277c0.136,0.147,0.206,0.338,0.198,0.539c-0.008,0.2-0.094,0.385-0.241,0.521
		c-0.139,0.128-0.319,0.198-0.508,0.198c-0.209,0-0.41-0.088-0.552-0.242l-2.1-2.277c-0.64-0.693-0.993-1.595-0.995-2.538
		c-0.001-1,0.388-1.942,1.096-2.652C12.659,6.393,13.6,6.001,14.6,6h1.401c1.241,0,2.25-1.009,2.25-2.25s-1.009-2.25-2.25-2.25
		h-10.5c-1.241,0-2.25,1.009-2.25,2.25v2.379c0.885,0.314,1.5,1.162,1.5,2.121v15C4.751,23.664,4.415,24,4.001,24z"/>
</g>
</svg>
