<?xml version="1.0" encoding="utf-8"?>
<!-- Generator: Adobe Illustrator 22.1.0, SVG Export Plug-In . SVG Version: 6.00 Build 0)  -->
<svg version="1.1" id="Regular" xmlns="http://www.w3.org/2000/svg" xmlns:xlink="http://www.w3.org/1999/xlink" x="0px" y="0px"
	 viewBox="0 0 24 24" style="enable-background:new 0 0 24 24;" xml:space="preserve">
<title>cat-grass</title>
<g>
	<path d="M5.25,15.75c-1.132,0-2.092-0.848-2.232-1.971L1.807,7.5H0.75C0.336,7.5,0,7.163,0,6.75S0.336,6,0.75,6h3.011L3.191,3.147
		c-0.039-0.196,0-0.396,0.111-0.563c0.111-0.167,0.281-0.28,0.477-0.319C3.828,2.255,3.878,2.25,3.927,2.25
		c0.356,0,0.665,0.254,0.735,0.603L5.291,6H6.75V0.75C6.75,0.336,7.086,0,7.5,0s0.75,0.336,0.75,0.75V6h2.209l0.629-3.147
		c0.07-0.349,0.379-0.603,0.735-0.603c0.049,0,0.098,0.005,0.148,0.015c0.197,0.039,0.366,0.153,0.477,0.319
		c0.111,0.167,0.151,0.367,0.111,0.563L11.989,6h2.261C14.664,6,15,6.336,15,6.75S14.664,7.5,14.25,7.5H3.334l1.164,6.044
		c0.054,0.419,0.368,0.706,0.752,0.706h3C8.664,14.25,9,14.586,9,15s-0.336,0.75-0.75,0.75H5.25z"/>
	<path d="M17.25,24.091c-3.722,0-6.75-3.028-6.75-6.75v-5.8c0.001-0.395,0.153-0.766,0.428-1.047
		c0.28-0.287,0.655-0.447,1.056-0.452c0,0,0,0,0.001,0c0.408,0,0.787,0.156,1.066,0.428l1.712,1.684
		c0.695-0.412,1.484-0.628,2.302-0.628c0.062,0,0.124,0.001,0.186,0.004c0.062-0.002,0.124-0.004,0.186-0.004
		c0.817,0,1.607,0.216,2.302,0.628l1.71-1.683c0.282-0.276,0.653-0.428,1.047-0.429c0.83,0,1.503,0.672,1.505,1.497v5.802
		C24,21.063,20.972,24.091,17.25,24.091z M12,17.341c0,2.895,2.355,5.25,5.25,5.25s5.25-2.355,5.25-5.25v-5.8l-2.153,2.119
		c-0.141,0.139-0.328,0.215-0.526,0.215c-0.173,0-0.341-0.06-0.475-0.169c-0.536-0.438-1.212-0.679-1.903-0.679
		c-0.051,0-0.103,0.001-0.155,0.004c-0.006,0-0.072,0-0.072,0c-0.057-0.003-0.109-0.004-0.16-0.004c-0.691,0-1.366,0.241-1.903,0.68
		c-0.134,0.109-0.302,0.169-0.475,0.169c-0.198,0-0.385-0.077-0.526-0.216l-2.151-2.117C12.001,11.542,12,17.341,12,17.341z"/>
</g>
</svg>
