<?xml version="1.0" encoding="utf-8"?>
<!-- Generator: Adobe Illustrator 22.1.0, SVG Export Plug-In . SVG Version: 6.00 Build 0)  -->
<svg version="1.1" id="Regular" xmlns="http://www.w3.org/2000/svg" xmlns:xlink="http://www.w3.org/1999/xlink" x="0px" y="0px"
	 viewBox="0 0 24 24" style="enable-background:new 0 0 24 24;" xml:space="preserve">
<title>cat-climber</title>
<g>
	<path d="M15.75,24C15.336,24,15,23.664,15,23.25v-6c0-0.414,0.336-0.75,0.75-0.75s0.75,0.336,0.75,0.75v6
		C16.5,23.664,16.164,24,15.75,24z"/>
	<path d="M0.75,24C0.336,24,0,23.664,0,23.25V0.75C0,0.336,0.336,0,0.75,0S1.5,0.336,1.5,0.75V4.5H15V0.75
		C15,0.336,15.336,0,15.75,0s0.75,0.336,0.75,0.75v10.5c0,0.414-0.336,0.75-0.75,0.75S15,11.664,15,11.25V6H1.5v17.25
		C1.5,23.664,1.164,24,0.75,24z"/>
	<path d="M23.25,24c-0.414,0-0.75-0.336-0.75-0.75V15H9v8.25C9,23.664,8.664,24,8.25,24S7.5,23.664,7.5,23.25V10.5
		c0-0.414,0.336-0.75,0.75-0.75S9,10.086,9,10.5v3h13.5v-3c0-0.414,0.336-0.75,0.75-0.75S24,10.086,24,10.5v12.75
		C24,23.664,23.664,24,23.25,24z"/>
</g>
</svg>
