<?xml version="1.0" encoding="utf-8"?>
<!-- Generator: Adobe Illustrator 22.1.0, SVG Export Plug-In . SVG Version: 6.00 Build 0)  -->
<svg version="1.1" id="Regular" xmlns="http://www.w3.org/2000/svg" xmlns:xlink="http://www.w3.org/1999/xlink" x="0px" y="0px"
	 viewBox="0 0 24 24" style="enable-background:new 0 0 24 24;" xml:space="preserve">
<title>cat-carrier-1</title>
<g>
	<path d="M1.75,22.5C0.785,22.5,0,21.715,0,20.75v-12C0,7.234,1.234,6,2.75,6H6V5.25C6,3.182,7.682,1.5,9.75,1.5h4.5
		C16.318,1.5,18,3.182,18,5.25V6h3.25C22.766,6,24,7.234,24,8.75v12c0,0.965-0.785,1.75-1.75,1.75H1.75z M1.5,20.75
		C1.5,20.888,1.612,21,1.75,21h20.5c0.138,0,0.25-0.112,0.25-0.25V16.5h-1.518C20.861,17.347,20.13,18,19.25,18H4.75
		c-0.88,0-1.61-0.653-1.732-1.5H1.5V20.75z M19.25,16.5c0.138,0,0.25-0.112,0.25-0.25v-5.5c0-0.138-0.112-0.25-0.25-0.25h-3.5v6
		H19.25z M14.25,16.5v-6h-4.5v6H14.25z M4.75,10.5c-0.138,0-0.25,0.112-0.25,0.25v5.5c0,0.138,0.112,0.25,0.25,0.25h3.5v-6H4.75z
		 M22.5,15V8.75c0-0.689-0.561-1.25-1.25-1.25H2.75C2.061,7.5,1.5,8.061,1.5,8.75V15H3v-4.25C3,9.785,3.785,9,4.75,9h14.5
		C20.215,9,21,9.785,21,10.75L22.5,15z M16.5,6V5.25C16.5,4.009,15.491,3,14.25,3h-4.5C8.509,3,7.5,4.009,7.5,5.25V6H16.5z"/>
</g>
</svg>
