<?xml version="1.0" encoding="utf-8"?>
<!-- Generator: Adobe Illustrator 22.1.0, SVG Export Plug-In . SVG Version: 6.00 Build 0)  -->
<svg version="1.1" id="Regular" xmlns="http://www.w3.org/2000/svg" xmlns:xlink="http://www.w3.org/1999/xlink" x="0px" y="0px"
	 viewBox="0 0 24 24" style="enable-background:new 0 0 24 24;" xml:space="preserve">
<title>cat</title>
<g>
	<path d="M18.752,22.001c-0.377,0-0.696-0.282-0.744-0.656l-0.687-5.46c-0.266,0.077-0.539,0.116-0.817,0.116h-0.001v5.25
		c0,0.414-0.336,0.75-0.75,0.75c-0.414,0-0.75-0.336-0.75-0.75v-5.25h-6v5.25c0,0.414-0.336,0.75-0.75,0.75
		c-0.414,0-0.75-0.336-0.75-0.75v-5.25c-0.279,0-0.553-0.039-0.819-0.115l-0.687,5.459c-0.047,0.374-0.367,0.656-0.744,0.656
		c-0.031,0-0.062-0.002-0.093-0.006c-0.411-0.052-0.703-0.427-0.651-0.838l0.773-6.143c-0.504-0.553-0.779-1.261-0.779-2.013
		c0-0.502,0.125-0.989,0.363-1.427c0,0-3.703-3.285-3.711-3.293C-0.379,6.75-0.38,4.257,1.151,2.724
		C1.164,2.711,1.176,2.7,1.189,2.688c0.611-0.594,1.434-0.93,2.302-0.93c0.875,0,1.698,0.339,2.317,0.956
		c1.092,1.093,1.092,2.861,0.007,3.947c-0.142,0.142-0.33,0.22-0.53,0.22s-0.389-0.078-0.53-0.219
		C4.462,6.37,4.462,5.894,4.754,5.601c0.5-0.5,0.501-1.316,0.003-1.817C4.414,3.442,3.964,3.256,3.485,3.256
		c-0.48,0-0.931,0.187-1.269,0.525C2.214,3.783,2.212,3.785,2.21,3.786C1.27,4.737,1.271,6.269,2.207,7.212l3.68,3.264
		c0.481-0.308,1.044-0.475,1.615-0.475h7.593c-0.062-0.248-0.093-0.499-0.093-0.75v-4.44c0-0.827,0.672-1.5,1.499-1.501
		c0.341,0,0.674,0.117,0.939,0.33l1.595,1.28c0.135,0.108,0.297,0.165,0.468,0.165c0.171,0,0.333-0.057,0.468-0.166l1.593-1.279
		c0.27-0.216,0.594-0.33,0.937-0.33c0.055,0,0.111,0.003,0.167,0.009c0.398,0.044,0.756,0.24,1.006,0.553
		c0.213,0.264,0.33,0.598,0.329,0.939v4.439c0,2.066-2.015,3.747-4.493,3.75c-0.003,0.752-0.281,1.459-0.786,2.013l0.773,6.143
		c0.052,0.41-0.24,0.786-0.65,0.838C18.814,21.999,18.783,22.001,18.752,22.001z M7.503,11.501c-0.827,0-1.5,0.673-1.5,1.5
		s0.673,1.5,1.5,1.5h9c0.832-0.001,1.508-0.681,1.507-1.514c0-0.068-0.005-0.136-0.015-0.204c-0.83-0.246-1.561-0.694-2.092-1.282
		H7.503z M16.503,9.251c0,1.241,1.346,2.25,3,2.25s3-1.009,3-2.25v-4.44L20.909,6.09c-0.401,0.321-0.9,0.497-1.407,0.497
		s-1.006-0.176-1.405-0.496l-1.595-1.28V9.251z"/>
</g>
</svg>
