<?xml version="1.0" encoding="utf-8"?>
<!-- Generator: Adobe Illustrator 22.1.0, SVG Export Plug-In . SVG Version: 6.00 Build 0)  -->
<svg version="1.1" id="Regular" xmlns="http://www.w3.org/2000/svg" xmlns:xlink="http://www.w3.org/1999/xlink" x="0px" y="0px"
	 viewBox="0 0 24 24" style="enable-background:new 0 0 24 24;" xml:space="preserve">
<title>ceiling-lamp-1</title>
<g>
	<path d="M6.177,18c-1.241,0-2.25-1.009-2.25-2.249c0-0.348,0.082-0.697,0.238-1.007L7.5,8.073V6.75c0-1.241,1.009-2.25,2.25-2.25
		h1.5v-3H0.75C0.336,1.5,0,1.164,0,0.75S0.336,0,0.75,0h22.5C23.664,0,24,0.336,24,0.75S23.664,1.5,23.25,1.5h-10.5v3h1.5
		c1.241,0,2.25,1.009,2.25,2.25v1.323l3.336,6.671c0.269,0.538,0.312,1.148,0.122,1.718c-0.19,0.57-0.59,1.032-1.128,1.301
		C18.519,17.918,18.171,18,17.823,18H6.177z M5.506,15.415c-0.052,0.104-0.079,0.219-0.079,0.336c0,0.2,0.078,0.388,0.22,0.53
		c0.142,0.142,0.33,0.219,0.53,0.219h11.646c0.116,0,0.232-0.027,0.336-0.079c0.179-0.09,0.313-0.244,0.376-0.434
		c0.063-0.19,0.049-0.393-0.041-0.572L15.287,9H8.714L5.506,15.415z M15,7.5V6.75C15,6.336,14.664,6,14.25,6h-4.5
		C9.336,6,9,6.336,9,6.75V7.5H15z"/>
	<path d="M12,24c-0.414,0-0.75-0.336-0.75-0.75v-3c0-0.414,0.336-0.75,0.75-0.75s0.75,0.336,0.75,0.75v3
		C12.75,23.664,12.414,24,12,24z"/>
	<path d="M5.25,24c-0.115,0-0.231-0.027-0.335-0.079c-0.37-0.185-0.52-0.636-0.336-1.006l1.5-3C6.207,19.659,6.465,19.5,6.751,19.5
		c0.115,0,0.231,0.027,0.334,0.079c0.37,0.186,0.52,0.637,0.336,1.006l-1.5,3C5.793,23.841,5.536,24,5.25,24z"/>
	<path d="M18.75,24c-0.286,0-0.543-0.159-0.671-0.415l-1.5-3c-0.185-0.37-0.034-0.821,0.335-1.006
		c0.105-0.052,0.22-0.079,0.336-0.079c0.286,0,0.543,0.159,0.671,0.415l1.5,3c0.185,0.37,0.034,0.821-0.335,1.006
		C18.981,23.973,18.865,24,18.75,24z"/>
</g>
</svg>
