<?xml version="1.0" encoding="utf-8"?>
<!-- Generator: Adobe Illustrator 22.1.0, SVG Export Plug-In . SVG Version: 6.00 Build 0)  -->
<svg version="1.1" id="Regular" xmlns="http://www.w3.org/2000/svg" xmlns:xlink="http://www.w3.org/1999/xlink" x="0px" y="0px"
	 viewBox="0 0 24 24" style="enable-background:new 0 0 24 24;" xml:space="preserve">
<title>ceiling-lamp-three</title>
<g>
	<path d="M8.25,24c-0.249,0-0.481-0.123-0.621-0.329c-0.14-0.207-0.168-0.468-0.075-0.699c0.414-1.035,0.74-1.908,1.003-2.61
		c0.907-2.424,1.321-3.531,2.693-3.796V0.75C11.25,0.336,11.586,0,12,0s0.75,0.336,0.75,0.75v15.815
		c1.377,0.262,1.785,1.356,2.679,3.754c0.265,0.711,0.595,1.597,1.017,2.652c0.093,0.232,0.064,0.493-0.075,0.699
		C16.231,23.877,15.999,24,15.75,24H8.25z M14.649,22.5c-0.25-0.648-0.462-1.217-0.626-1.656C12.963,18,12.89,18,12,18
		c-0.886,0-0.959,0-2.038,2.887C9.787,21.354,9.584,21.895,9.35,22.5H14.649z"/>
	<path d="M0.75,16.5c-0.249,0-0.481-0.123-0.621-0.329c-0.14-0.207-0.168-0.468-0.075-0.699c0.408-1.021,0.734-1.891,0.996-2.59
		c0.913-2.442,1.328-3.55,2.701-3.815V0.75C3.75,0.336,4.086,0,4.5,0s0.75,0.336,0.75,0.75v8.315
		c1.376,0.262,1.785,1.357,2.679,3.754c0.266,0.714,0.597,1.601,1.017,2.652c0.093,0.231,0.064,0.493-0.075,0.699
		c-0.14,0.207-0.372,0.33-0.621,0.33H0.75z M7.149,15c-0.242-0.627-0.449-1.182-0.623-1.647C5.463,10.5,5.39,10.5,4.5,10.5
		c-0.886,0-0.959,0-2.038,2.887C2.291,13.842,2.088,14.385,1.85,15H7.149z"/>
	<path d="M15.75,16.5c-0.249,0-0.481-0.123-0.621-0.329c-0.14-0.206-0.168-0.468-0.075-0.699c0.409-1.023,0.735-1.895,0.997-2.594
		c0.912-2.438,1.326-3.546,2.699-3.811V0.75C18.75,0.336,19.086,0,19.5,0s0.75,0.336,0.75,0.75v8.315
		c1.377,0.262,1.785,1.356,2.679,3.754c0.265,0.711,0.595,1.597,1.017,2.652c0.093,0.232,0.064,0.493-0.075,0.699
		c-0.14,0.206-0.372,0.329-0.621,0.329H15.75z M22.149,15c-0.25-0.648-0.462-1.217-0.626-1.656C20.463,10.5,20.39,10.5,19.5,10.5
		c-0.886,0-0.959,0-2.039,2.888l-0.018,0.049C17.277,13.88,17.079,14.408,16.85,15H22.149z"/>
</g>
</svg>
