<?xml version="1.0" encoding="utf-8"?>
<!-- Generator: Adobe Illustrator 22.1.0, SVG Export Plug-In . SVG Version: 6.00 Build 0)  -->
<svg version="1.1" id="Regular" xmlns="http://www.w3.org/2000/svg" xmlns:xlink="http://www.w3.org/1999/xlink" x="0px" y="0px"
	 viewBox="0 0 24 24" style="enable-background:new 0 0 24 24;" xml:space="preserve">
<title>champagne-bottle</title>
<g>
	<path d="M9,24c-1.241,0-2.25-1.009-2.25-2.25v-3.111c0-2.443,0.353-4.879,1.049-7.241c0.009-0.05,0.023-0.098,0.042-0.144
		c0.161-0.534,0.305-0.974,0.454-1.385C9.26,7.214,9.75,4.436,9.75,1.611V1.5c0-0.827,0.673-1.5,1.5-1.5h1.5
		c0.827,0,1.5,0.673,1.5,1.5v0.111c0,2.825,0.49,5.603,1.455,8.258c0.149,0.409,0.293,0.85,0.454,1.385
		c0.019,0.046,0.033,0.094,0.042,0.144c0.695,2.361,1.048,4.797,1.048,7.241v3.111c0,1.241-1.009,2.25-2.25,2.25H9z M8.985,12.734
		c-0.488,1.932-0.735,3.916-0.735,5.905v3.111c0,0.414,0.336,0.75,0.75,0.75h6c0.414,0,0.75-0.336,0.75-0.75v-3.111
		c0-1.99-0.247-3.974-0.735-5.905c-0.927,0.508-1.959,0.775-3.015,0.775C10.944,13.509,9.912,13.242,8.985,12.734z M9.413,11.24
		c0.777,0.5,1.666,0.763,2.587,0.763s1.81-0.263,2.587-0.763c-0.099-0.309-0.195-0.592-0.292-0.859
		c-0.687-1.89-1.15-3.867-1.378-5.881h-1.834c-0.227,2.013-0.69,3.99-1.378,5.881C9.608,10.649,9.511,10.932,9.413,11.24z M12.792,3
		c-0.029-0.499-0.042-0.956-0.042-1.389V1.5h-1.5l0,0.111c0,0.434-0.014,0.891-0.042,1.389H12.792z"/>
	<path d="M12,20.25c-1.241,0-2.25-1.009-2.25-2.25s1.009-2.25,2.25-2.25c1.241,0,2.25,1.009,2.25,2.25S13.241,20.25,12,20.25z
		 M12,17.25c-0.414,0-0.75,0.336-0.75,0.75s0.336,0.75,0.75,0.75s0.75-0.336,0.75-0.75S12.414,17.25,12,17.25z"/>
</g>
</svg>
