<?xml version="1.0" encoding="utf-8"?>
<!-- Generator: Adobe Illustrator 22.1.0, SVG Export Plug-In . SVG Version: 6.00 Build 0)  -->
<svg version="1.1" id="Regular" xmlns="http://www.w3.org/2000/svg" xmlns:xlink="http://www.w3.org/1999/xlink" x="0px" y="0px"
	 viewBox="0 0 24 24" style="enable-background:new 0 0 24 24;" xml:space="preserve">
<title>champagne-cooler</title>
<g>
	<path d="M3.106,14.216c-0.333,0-0.63-0.225-0.721-0.546l-0.378-1.335c-0.007-0.025-0.013-0.05-0.017-0.074
		c-0.015-0.086-0.023-0.174-0.023-0.262c0-0.826,0.673-1.498,1.5-1.498h2.164l4.002-4.713c0.012-0.014,0.026-0.03,0.041-0.045
		c0.977-0.977,2.334-1.537,3.722-1.537c0.245,0,0.492,0.017,0.733,0.052l1.113,0.159l3.978-3.977
		c0.283-0.283,0.659-0.439,1.06-0.439c0.4,0,0.777,0.156,1.059,0.438L22.403,1.5c0.585,0.585,0.585,1.536,0.001,2.121L18.426,7.6
		l0.159,1.113c0.075,0.597,0.08,1.196,0.015,1.788h1.24c0.087,0,0.173,0.008,0.258,0.023c0.396,0.07,0.74,0.288,0.969,0.617
		c0.23,0.328,0.318,0.726,0.249,1.121c-0.004,0.024-0.01,0.049-0.017,0.073l-0.378,1.336c-0.091,0.321-0.388,0.545-0.721,0.545
		c-0.07,0-0.139-0.01-0.206-0.029c-0.397-0.112-0.629-0.528-0.516-0.926l0.357-1.261l-16.363,0l0.357,1.261
		c0.113,0.398-0.12,0.813-0.517,0.926C3.246,14.206,3.176,14.216,3.106,14.216z M17.084,10.501c0.075-0.536,0.08-1.068,0.014-1.588
		l-0.21-1.472C16.855,7.208,16.934,6.97,17.1,6.804l2.121-2.121l-1.061-1.061l-2.122,2.121c-0.14,0.14-0.333,0.219-0.53,0.219
		c-0.036,0-0.071-0.003-0.107-0.008l-1.483-0.212c-0.172-0.025-0.348-0.037-0.523-0.037c-0.982,0-1.943,0.393-2.639,1.078
		L7.6,10.501H17.084z M20.282,3.622l1.061-1.061l-1.061-1.06l-1.06,1.06L20.282,3.622z"/>
	<path d="M1.905,19.501c-0.18,0-0.353-0.064-0.489-0.182c-0.313-0.269-0.349-0.744-0.079-1.057l3.75-4.358
		c0.143-0.166,0.35-0.261,0.569-0.261c0.179,0,0.353,0.065,0.489,0.182c0.313,0.269,0.349,0.744,0.079,1.057l-3.75,4.358
		C2.331,19.406,2.124,19.501,1.905,19.501z"/>
	<path d="M21.28,19.501c-0.219,0-0.427-0.095-0.569-0.261l-3.75-4.358c-0.131-0.152-0.195-0.345-0.18-0.545
		c0.015-0.2,0.107-0.382,0.259-0.512c0.136-0.117,0.31-0.181,0.489-0.181c0.219,0,0.426,0.095,0.569,0.261l3.75,4.358
		c0.131,0.152,0.195,0.345,0.18,0.545c-0.015,0.2-0.107,0.382-0.259,0.512C21.634,19.436,21.46,19.501,21.28,19.501z"/>
	<path d="M7.218,24.001c-1.074,0-2-0.761-2.208-1.813l-0.817-2.883c-0.113-0.398,0.119-0.814,0.517-0.926
		c0.068-0.019,0.136-0.028,0.204-0.028c0.334,0,0.631,0.224,0.722,0.545l0.826,2.915c0.007,0.026,0.012,0.049,0.016,0.072
		c0.064,0.358,0.375,0.618,0.738,0.618h8.875c0.365,0,0.675-0.261,0.738-0.619c0.006-0.03,0.011-0.054,0.018-0.078l0.828-2.908
		c0.091-0.32,0.388-0.544,0.721-0.544c0.069,0,0.138,0.01,0.204,0.028c0.194,0.055,0.353,0.182,0.451,0.357
		c0.098,0.175,0.121,0.378,0.066,0.571l-0.819,2.877c-0.207,1.053-1.132,1.817-2.208,1.817H7.218z"/>
</g>
</svg>
