<?xml version="1.0" encoding="utf-8"?>
<!-- Generator: Adobe Illustrator 22.1.0, SVG Export Plug-In . SVG Version: 6.00 Build 0)  -->
<svg version="1.1" id="Regular" xmlns="http://www.w3.org/2000/svg" xmlns:xlink="http://www.w3.org/1999/xlink" x="0px" y="0px"
	 viewBox="0 0 24 24" style="enable-background:new 0 0 24 24;" xml:space="preserve">
<title>champagne-cheers</title>
<g>
	<path d="M6.997,23.986c-0.075,0-0.149-0.011-0.22-0.033l-5.521-1.684c-0.192-0.058-0.349-0.188-0.443-0.365
		c-0.094-0.177-0.114-0.38-0.055-0.571c0.095-0.313,0.39-0.532,0.716-0.532c0.075,0,0.15,0.011,0.222,0.034l2.042,0.623l1.27-4.165
		c-0.614-0.307-1.157-0.744-1.584-1.277c-1.146-1.435-1.399-3.37-0.66-5.051L6.972,0.878c0.228-0.553,0.763-0.91,1.36-0.91
		c0.144,0,0.287,0.021,0.426,0.063l4.278,1.301c0.733,0.23,1.165,0.966,1.01,1.712l-2.135,10.726
		c-0.323,1.795-1.612,3.257-3.362,3.809c-0.469,0.146-0.95,0.22-1.433,0.22c-0.226,0-0.454-0.017-0.68-0.05l-1.265,4.147
		l2.044,0.623c0.192,0.058,0.349,0.188,0.443,0.365c0.094,0.177,0.114,0.38,0.055,0.571C7.617,23.772,7.329,23.986,6.997,23.986z
		 M6.21,16.167c0.295,0.087,0.601,0.131,0.909,0.131c0.331,0,0.661-0.051,0.981-0.151c1.216-0.384,2.112-1.402,2.338-2.657l1-5.025
		L6.109,6.84l-1.967,4.715c-0.518,1.179-0.343,2.526,0.453,3.523c0.394,0.491,0.914,0.855,1.506,1.052
		c0.011,0.002,0.028,0.006,0.045,0.011C6.165,16.148,6.188,16.157,6.21,16.167z M11.732,6.987l0.842-4.229L8.349,1.474L6.69,5.449
		L11.732,6.987z"/>
	<path d="M7.094,10.53c-0.107,0-0.214-0.015-0.316-0.046c-0.592-0.18-0.93-0.804-0.756-1.393c0.149-0.482,0.593-0.81,1.085-0.81
		c0.088,0,0.176,0.01,0.261,0.031C7.375,8.314,7.402,8.32,7.429,8.328c0.592,0.18,0.927,0.807,0.748,1.399
		C8.031,10.201,7.586,10.53,7.094,10.53z"/>
	<path d="M15.343,10.53c-0.107,0-0.213-0.015-0.315-0.046c-0.596-0.181-0.933-0.809-0.754-1.401
		c0.011-0.035,0.023-0.068,0.039-0.101c0.166-0.418,0.58-0.702,1.045-0.702c0.107,0,0.213,0.015,0.316,0.046
		c0.598,0.181,0.933,0.809,0.754,1.401c-0.006,0.019-0.012,0.037-0.018,0.051c-0.002,0.007-0.005,0.014-0.008,0.02
		C16.229,10.237,15.808,10.53,15.343,10.53z"/>
	<path d="M17.593,12.783c-0.107,0-0.213-0.015-0.315-0.046c-0.596-0.181-0.934-0.809-0.754-1.401
		c0.01-0.033,0.022-0.065,0.037-0.096c0.166-0.421,0.581-0.706,1.047-0.706c0.106,0,0.212,0.015,0.314,0.045
		c0.002,0.001,0.005,0.001,0.008,0.002c0.592,0.18,0.927,0.807,0.748,1.399c-0.006,0.019-0.012,0.037-0.018,0.051
		c-0.002,0.007-0.005,0.014-0.008,0.02C18.479,12.49,18.058,12.783,17.593,12.783z"/>
	<path d="M16.092,15.03c-0.106,0-0.211-0.015-0.314-0.045c-0.598-0.181-0.935-0.809-0.756-1.401c0.01-0.033,0.022-0.066,0.037-0.097
		c0.165-0.42,0.58-0.706,1.046-0.706c0.107,0,0.213,0.015,0.316,0.046c0.007,0.002,0.015,0.004,0.021,0.007l0,0
		c0.289,0.095,0.512,0.284,0.649,0.539c0.141,0.263,0.171,0.567,0.084,0.853c-0.001,0.005-0.009,0.029-0.011,0.034
		c-0.004,0.011-0.008,0.022-0.013,0.033C16.982,14.735,16.56,15.03,16.092,15.03z"/>
	<path d="M8.594,12.783c-0.107,0-0.213-0.015-0.316-0.045c-0.292-0.089-0.529-0.282-0.67-0.547
		c-0.141-0.264-0.171-0.568-0.084-0.854c0.146-0.473,0.592-0.802,1.084-0.802c0.107,0,0.213,0.015,0.315,0.045
		c0.599,0.182,0.934,0.81,0.755,1.402C9.531,12.454,9.086,12.783,8.594,12.783z"/>
	<path d="M6.343,15.03c-0.107,0-0.213-0.015-0.316-0.045c-0.292-0.088-0.529-0.282-0.67-0.547c-0.141-0.264-0.171-0.568-0.084-0.854
		c0.146-0.473,0.591-0.802,1.083-0.802c0.107,0,0.213,0.015,0.316,0.045c0.293,0.089,0.529,0.282,0.67,0.547
		c0.14,0.261,0.17,0.561,0.087,0.845C7.281,14.701,6.836,15.03,6.343,15.03z"/>
	<path d="M16.995,24.03c-0.329,0-0.624-0.22-0.718-0.535c-0.057-0.192-0.037-0.395,0.058-0.571c0.095-0.176,0.253-0.305,0.445-0.363
		l2.046-0.613l-1.248-4.165c-0.199,0.026-0.393,0.039-0.58,0.039c-0.489,0-0.976-0.076-1.447-0.225
		c-1.15-0.365-2.121-1.14-2.733-2.179c-0.209-0.356-0.09-0.817,0.266-1.027c0.116-0.068,0.247-0.104,0.38-0.104
		c0.264,0,0.512,0.141,0.646,0.369c0.425,0.721,1.097,1.258,1.894,1.511c0.321,0.101,0.652,0.153,0.985,0.153
		c0.281,0,0.561-0.037,0.833-0.109c0.021-0.009,0.04-0.016,0.06-0.022c0.031-0.009,0.062-0.016,0.093-0.021
		c0.605-0.193,1.137-0.558,1.541-1.058c0.8-0.992,0.981-2.336,0.474-3.507L18.04,6.867l-2.02,0.605
		c-0.07,0.021-0.143,0.032-0.216,0.032c-0.329,0-0.624-0.22-0.718-0.535c-0.057-0.191-0.037-0.394,0.058-0.571
		c0.095-0.176,0.253-0.305,0.445-0.363l1.877-0.562l-1.64-3.984l-0.549,0.164c-0.07,0.021-0.142,0.032-0.215,0.032
		c-0.328,0-0.624-0.22-0.718-0.535c-0.058-0.192-0.037-0.395,0.058-0.571s0.253-0.305,0.445-0.362l0.575-0.172
		c0.139-0.041,0.28-0.061,0.421-0.061c0.605,0,1.142,0.364,1.367,0.927l4.162,10.111c0.726,1.673,0.463,3.604-0.688,5.033
		c-0.449,0.555-1.02,1.003-1.666,1.309l1.245,4.156l2.046-0.613c0.07-0.021,0.143-0.032,0.216-0.032c0.328,0,0.624,0.22,0.718,0.535
		c0.057,0.192,0.037,0.395-0.058,0.571c-0.095,0.176-0.253,0.305-0.445,0.363c0,0-2.774,0.832-2.781,0.833l-2.749,0.823
		C17.14,24.019,17.068,24.03,16.995,24.03z"/>
</g>
</svg>
