<?xml version="1.0" encoding="utf-8"?>
<!-- Generator: Adobe Illustrator 22.1.0, SVG Export Plug-In . SVG Version: 6.00 Build 0)  -->
<svg version="1.1" id="Regular" xmlns="http://www.w3.org/2000/svg" xmlns:xlink="http://www.w3.org/1999/xlink" x="0px" y="0px"
	 viewBox="0 0 24 24" style="enable-background:new 0 0 24 24;" xml:space="preserve">
<title>champagne-glass</title>
<g>
	<path d="M9.001,24c-0.414,0-0.75-0.336-0.75-0.75s0.336-0.75,0.75-0.75h2.25v-4.556c-0.716-0.11-1.405-0.376-2.01-0.78
		c-1.567-1.042-2.404-2.852-2.185-4.721l1.13-11.095C8.265,0.579,8.907,0,9.679,0h4.644c0.772,0,1.414,0.579,1.493,1.347
		l1.131,11.107c0.218,1.861-0.619,3.668-2.187,4.711c-0.604,0.403-1.293,0.67-2.01,0.78V22.5h2.25c0.414,0,0.75,0.336,0.75,0.75
		S15.415,24,15.001,24H9.001z M12.042,16.502c0.663-0.005,1.32-0.208,1.887-0.586c0.002-0.001,0.004-0.003,0.006-0.004
		c1.092-0.729,1.675-1.991,1.521-3.295L14.935,7.5H9.068l-0.52,5.106c-0.154,1.315,0.43,2.581,1.525,3.309
		c0.564,0.377,1.218,0.579,1.893,0.586c0.013-0.001,0.026-0.002,0.036-0.002C12.012,16.5,12.028,16.501,12.042,16.502z M14.783,6
		l-0.458-4.5l-4.646,0L9.22,6H14.783z"/>
	<circle cx="10.876" cy="9.375" r="1.125"/>
	<circle cx="10.876" cy="13.875" r="1.125"/>
	<circle cx="13.126" cy="11.625" r="1.125"/>
</g>
</svg>
