<?xml version="1.0" encoding="utf-8"?>
<!-- Generator: Adobe Illustrator 22.1.0, SVG Export Plug-In . SVG Version: 6.00 Build 0)  -->
<svg version="1.1" id="Regular" xmlns="http://www.w3.org/2000/svg" xmlns:xlink="http://www.w3.org/1999/xlink" x="0px" y="0px"
	 viewBox="0 0 24 24" style="enable-background:new 0 0 24 24;" xml:space="preserve">
<title>chef-gear-gloves</title>
<g>
	<path d="M8.431,22.872c-0.82,0-1.578-0.477-1.93-1.216L0.544,9.157C0.501,9.067,0.46,8.976,0.422,8.883
		c-0.569-1.38-0.566-2.901,0.009-4.282s1.651-2.456,3.031-3.025c0.661-0.246,1.34-0.369,2.029-0.369c2.276,0,4.348,1.333,5.28,3.396
		l0.652,1.367c0.182-0.454,0.494-0.844,0.906-1.125c0.414-0.281,0.895-0.43,1.391-0.43c0.156,0,0.314,0.015,0.469,0.044
		c0,0,0.005,0.001,0.007,0.002c0.649,0.126,1.21,0.496,1.58,1.043c0.372,0.548,0.508,1.208,0.384,1.859l-1.125,5.9
		c-0.025,0.133-0.008,0.269,0.051,0.393l1.518,3.184c0.506,1.062,0.054,2.339-1.008,2.845l-0.946,0.451l0.391,0.823
		c0.104,0.219,0.33,0.361,0.575,0.361c0.094,0,0.186-0.021,0.271-0.062l6.249-2.979c0.153-0.073,0.269-0.201,0.325-0.36
		c0.057-0.159,0.048-0.332-0.025-0.484l-0.275-0.573l-2.731,1.302c-0.101,0.049-0.21,0.073-0.323,0.073
		c-0.288,0-0.554-0.168-0.677-0.427c-0.086-0.18-0.097-0.384-0.03-0.573s0.203-0.34,0.384-0.427l2.734-1.304l-0.598-1.259
		c-0.196-0.413-0.255-0.868-0.169-1.317l1.125-5.9c0.114-0.54-0.226-1.065-0.755-1.176c-0.066-0.014-0.134-0.021-0.201-0.021
		c-0.462,0-0.866,0.328-0.961,0.779l-0.338,1.766c-0.061,0.319-0.319,0.561-0.641,0.603c-0.032,0.004-0.064,0.006-0.096,0.006
		c-0.288,0-0.553-0.168-0.677-0.427l-1.61-3.377c-0.712-1.547-2.26-2.543-3.947-2.543c-0.285,0-0.573,0.028-0.855,0.084
		c-0.051,0.01-0.098,0.014-0.145,0.014c-0.357,0-0.667-0.254-0.736-0.604c-0.08-0.406,0.184-0.801,0.59-0.881
		c0.378-0.075,0.765-0.113,1.147-0.113c2.27,0,4.352,1.337,5.304,3.407l0.652,1.368c0.366-0.936,1.283-1.581,2.312-1.581
		c0.171,0,0.342,0.018,0.51,0.053c1.339,0.282,2.198,1.6,1.917,2.938l-1.122,5.886c-0.025,0.134-0.008,0.27,0.051,0.393l0.919,1.935
		c0.005,0.011,0.013,0.031,0.02,0.048l0.576,1.199c0.506,1.064,0.054,2.341-1.008,2.847l-6.249,2.979
		c-0.289,0.137-0.597,0.207-0.916,0.207c-0.82,0-1.578-0.477-1.93-1.216l-0.391-0.822l-3.949,1.883
		C9.057,22.802,8.749,22.872,8.431,22.872z M7.855,21.011c0.104,0.219,0.33,0.361,0.574,0.361c0.094,0,0.186-0.021,0.272-0.062
		l6.249-2.979c0.153-0.073,0.269-0.201,0.325-0.36c0.057-0.159,0.048-0.332-0.025-0.484l-0.273-0.573l-7.394,3.525L7.855,21.011z
		 M5.491,2.705c-0.507,0-1.005,0.09-1.482,0.267C1.94,3.826,0.947,6.223,1.809,8.311c0.028,0.068,0.058,0.135,0.089,0.201
		l5.039,10.572l7.394-3.525l-0.599-1.258c-0.196-0.414-0.255-0.869-0.17-1.317l1.125-5.901c0.05-0.258-0.004-0.519-0.151-0.736
		c-0.147-0.217-0.37-0.363-0.627-0.413c-0.002,0-0.004-0.001-0.006-0.001c-0.06-0.011-0.121-0.017-0.181-0.017
		c-0.195,0-0.384,0.059-0.548,0.17c-0.217,0.147-0.363,0.37-0.412,0.628L12.434,8.43c-0.061,0.319-0.319,0.562-0.641,0.604
		c-0.033,0.004-0.064,0.006-0.095,0.006c-0.288,0-0.554-0.168-0.678-0.427l-1.61-3.377C8.715,3.695,7.177,2.705,5.491,2.705z"/>
</g>
</svg>
