<?xml version="1.0" encoding="utf-8"?>
<!-- Generator: Adobe Illustrator 22.1.0, SVG Export Plug-In . SVG Version: 6.00 Build 0)  -->
<svg version="1.1" id="Regular" xmlns="http://www.w3.org/2000/svg" xmlns:xlink="http://www.w3.org/1999/xlink" x="0px" y="0px"
	 viewBox="0 0 24 24" style="enable-background:new 0 0 24 24;" xml:space="preserve">
<title>chef-gear-mug</title>
<g>
	<path d="M9.749,24c-1.673,0-3.397-0.716-4.731-1.964C3.753,20.853,2.999,19.344,2.999,18c0-1.075,0.292-2.226,0.631-3.558
		c0.354-1.392,0.752-2.961,0.846-4.705c-0.68-0.514-1.165-1.239-1.374-2.063c-0.246-0.971-0.1-1.98,0.413-2.84
		c0.41-0.689,1.03-1.227,1.762-1.536C5.5,1.429,7.091,0,8.999,0c1.817,0,3.35,1.288,3.683,3.043
		c1.797,0.227,3.236,1.323,3.675,2.785c0.355-0.067,0.796-0.124,1.262-0.124c0.89,0,1.626,0.206,2.188,0.611
		c0.79,0.569,1.19,1.473,1.19,2.685c0,2.084-1.22,3.401-2.296,4.562c-1.134,1.224-2.204,2.379-2.204,4.438
		c0,1.344-0.755,2.853-2.019,4.036C13.146,23.284,11.422,24,9.749,24z M5.931,10.414c-0.15,1.654-0.534,3.163-0.847,4.396
		C4.77,16.046,4.499,17.112,4.499,18c0,1.777,2.352,4.5,5.25,4.5c2.073,0,5.25-2.016,5.25-4.5c0-0.89-0.271-1.957-0.585-3.193
		c-0.34-1.338-0.721-2.839-0.859-4.539c-0.497,0.154-1.019,0.232-1.556,0.232c-0.001,0-0.001,0-0.002,0v3.744
		c0,1.241-1.009,2.25-2.25,2.25s-2.25-1.009-2.25-2.25v-3.82c-0.25,0.052-0.505,0.078-0.759,0.078
		C6.465,10.502,6.195,10.473,5.931,10.414z M8.247,8.594c0.131,0,0.26,0.035,0.374,0.1c0.232,0.133,0.376,0.382,0.376,0.65v4.9
		c0,0.414,0.336,0.75,0.75,0.75s0.75-0.336,0.75-0.75V9.688c0-0.221,0.097-0.429,0.265-0.572c0.135-0.115,0.307-0.178,0.485-0.178
		c0.04,0,0.081,0.003,0.121,0.01C11.577,8.983,11.789,9,11.999,9c1.654,0,3-1.009,3-2.25s-1.346-2.25-3-2.25
		c-0.414,0-0.75-0.336-0.75-0.75c0-1.241-1.009-2.25-2.25-2.25s-2.25,1.009-2.25,2.25v0.094c0,0.344-0.233,0.642-0.565,0.727
		c-0.583,0.148-1.073,0.514-1.38,1.03C4.496,6.117,4.408,6.723,4.556,7.305c0.144,0.566,0.496,1.047,0.994,1.356
		c0.044,0.019,0.085,0.043,0.124,0.07c0.33,0.177,0.698,0.271,1.067,0.271c0.184,0,0.369-0.023,0.549-0.069
		c0.203-0.052,0.398-0.131,0.579-0.237C7.983,8.629,8.114,8.594,8.247,8.594z M15.013,9.534c0.072,1.821,0.487,3.455,0.855,4.903
		c0.018,0.072,0.036,0.143,0.054,0.213c0.494-0.826,1.115-1.497,1.68-2.107c1.06-1.144,1.897-2.047,1.897-3.543
		c0-0.702-0.191-1.196-0.566-1.467c-0.304-0.219-0.741-0.331-1.3-0.331c-0.449,0-0.885,0.073-1.193,0.141
		C16.28,8.192,15.782,8.957,15.013,9.534z"/>
</g>
</svg>
