<?xml version="1.0" encoding="utf-8"?>
<!-- Generator: Adobe Illustrator 22.1.0, SVG Export Plug-In . SVG Version: 6.00 Build 0)  -->
<svg version="1.1" id="Regular" xmlns="http://www.w3.org/2000/svg" xmlns:xlink="http://www.w3.org/1999/xlink" x="0px" y="0px"
	 viewBox="0 0 24 24" style="enable-background:new 0 0 24 24;" xml:space="preserve">
<title>chef-gear-dumplings</title>
<g>
	<path d="M12.502,6.625c-0.036,0-0.072-0.001-0.108-0.003c-0.382-0.019-0.747-0.132-1.067-0.33C11.032,6.429,10.71,6.5,10.383,6.5
		c0,0,0,0,0,0c-0.641,0-1.252-0.273-1.678-0.749C8.304,5.303,8.102,4.725,8.135,4.125c0.033-0.6,0.298-1.151,0.746-1.552l2.236-2
		c0.414-0.365,0.943-0.566,1.493-0.566c0.645,0,1.26,0.276,1.686,0.759c0.653,0.739,0.741,1.816,0.243,2.647
		c0.158,0.333,0.231,0.699,0.212,1.074c-0.03,0.6-0.292,1.153-0.737,1.556c-0.415,0.375-0.95,0.582-1.508,0.582H12.502z
		 M11.422,4.62c0.2,0.011,0.389,0.103,0.52,0.251c0.14,0.155,0.323,0.244,0.526,0.254L12.5,5.125c0.193,0,0.368-0.067,0.508-0.194
		c0.149-0.134,0.236-0.319,0.246-0.519c0.01-0.2-0.059-0.392-0.193-0.541c-0.134-0.149-0.203-0.34-0.193-0.54
		c0.01-0.2,0.097-0.385,0.246-0.519c0.303-0.274,0.329-0.746,0.058-1.052c-0.142-0.161-0.347-0.253-0.562-0.253
		c-0.183,0-0.359,0.067-0.496,0.188L9.882,3.692C9.732,3.825,9.644,4.009,9.633,4.209c-0.011,0.2,0.056,0.392,0.19,0.542
		C9.956,4.9,10.14,4.988,10.34,4.999L10.376,5c0.191,0,0.366-0.066,0.505-0.191c0.138-0.123,0.315-0.191,0.5-0.191
		C11.388,4.619,11.416,4.619,11.422,4.62z"/>
	<path d="M4.48,11.782c-1.059,0-1.985-0.753-2.202-1.79L1.666,7.053c-0.123-0.587-0.009-1.188,0.32-1.691
		C2.315,4.859,2.82,4.514,3.408,4.391C3.56,4.359,3.715,4.343,3.869,4.343c0.837,0,1.589,0.456,1.979,1.179
		C6.221,5.562,6.575,5.69,6.883,5.9c0.497,0.338,0.833,0.849,0.945,1.44C8.012,8.306,7.564,9.252,6.726,9.72
		c-0.031,0.369-0.152,0.725-0.359,1.041c-0.328,0.503-0.833,0.849-1.421,0.973c-0.001,0-0.006,0.001-0.006,0.001
		C4.788,11.766,4.633,11.782,4.48,11.782z M3.868,5.843c-0.052,0-0.103,0.005-0.153,0.016C3.518,5.9,3.35,6.015,3.24,6.183
		c-0.11,0.168-0.148,0.368-0.107,0.564l0.611,2.934c0.073,0.349,0.382,0.602,0.736,0.602c0.051,0,0.102-0.005,0.153-0.016
		c0.199-0.042,0.368-0.157,0.478-0.325c0.109-0.168,0.147-0.368,0.106-0.564C5.133,8.979,5.387,8.582,5.784,8.491
		C6.18,8.401,6.43,8.018,6.354,7.62C6.317,7.423,6.205,7.253,6.039,7.14C5.914,7.055,5.769,7.01,5.62,7.01
		c-0.047,0-0.095,0.005-0.143,0.014S5.383,7.037,5.336,7.037c-0.353,0-0.661-0.251-0.734-0.597C4.53,6.094,4.221,5.843,3.868,5.843z
		"/>
	<path d="M6.099,19.528c-0.238,0-0.475-0.038-0.704-0.113l-2.851-0.936c-0.571-0.188-1.035-0.586-1.306-1.123
		c-0.271-0.537-0.317-1.147-0.129-1.718c0.188-0.571,0.587-1.035,1.123-1.305c0.314-0.159,0.664-0.243,1.011-0.243
		c0.015,0,0.031,0,0.046,0c0.411-0.601,1.092-0.965,1.832-0.965c0.219,0,0.436,0.032,0.646,0.097
		c0.029,0.009,0.058,0.018,0.086,0.028c0.943,0.287,1.577,1.204,1.544,2.19c0.797,0.564,1.148,1.592,0.837,2.538
		c-0.187,0.571-0.586,1.035-1.122,1.306C6.798,19.444,6.448,19.528,6.099,19.528z M3.246,15.59c-0.117,0-0.23,0.027-0.337,0.081
		c-0.179,0.09-0.312,0.245-0.374,0.436c-0.062,0.19-0.047,0.394,0.043,0.573c0.09,0.178,0.245,0.312,0.435,0.374l2.849,0.936
		c0.081,0.026,0.158,0.038,0.236,0.038c0.117,0,0.231-0.027,0.338-0.081c0.178-0.09,0.311-0.245,0.373-0.435
		c0.129-0.393-0.086-0.818-0.478-0.947c-0.19-0.062-0.349-0.2-0.438-0.38c-0.089-0.178-0.102-0.389-0.037-0.578l0.013-0.042
		c0.113-0.371-0.101-0.773-0.481-0.889l-0.068-0.022c-0.06-0.018-0.13-0.029-0.2-0.029c-0.314,0-0.597,0.21-0.689,0.51
		c-0.058,0.191-0.194,0.354-0.372,0.447c-0.107,0.055-0.226,0.084-0.346,0.084c-0.08,0-0.159-0.013-0.236-0.038
		C3.405,15.603,3.325,15.59,3.246,15.59z"/>
	<path d="M11.376,24.006c-0.636,0-1.244-0.27-1.669-0.739c-0.68-0.751-0.77-1.847-0.248-2.691c-0.409-0.891-0.193-1.96,0.556-2.623
		c0.41-0.362,0.938-0.562,1.489-0.562c0.409,0,0.814,0.113,1.162,0.32c0.296-0.138,0.621-0.21,0.951-0.21
		c0.64,0,1.252,0.273,1.678,0.749c0.4,0.448,0.602,1.025,0.569,1.625c-0.033,0.601-0.298,1.152-0.746,1.552l-2.236,2
		C12.47,23.8,11.935,24.006,11.376,24.006z M11.504,18.891c-0.183,0-0.359,0.066-0.495,0.187c-0.31,0.274-0.339,0.749-0.065,1.059
		c0.269,0.304,0.244,0.776-0.056,1.05c-0.157,0.142-0.248,0.331-0.26,0.534c-0.011,0.2,0.057,0.392,0.191,0.54
		c0.142,0.157,0.345,0.246,0.557,0.246c0.186,0,0.365-0.069,0.503-0.194l2.239-2.003c0.308-0.276,0.335-0.751,0.059-1.059
		c-0.142-0.158-0.345-0.25-0.559-0.25c-0.185,0-0.362,0.068-0.5,0.191c-0.138,0.123-0.315,0.191-0.5,0.191
		c-0.212,0-0.414-0.09-0.556-0.247C11.92,18.98,11.717,18.891,11.504,18.891z"/>
	<path d="M20.12,19.632c-0.814,0-1.555-0.439-1.95-1.136c-0.988-0.071-1.812-0.768-2.034-1.744
		c-0.133-0.586-0.031-1.189,0.289-1.697c0.213-0.339,0.505-0.61,0.853-0.793c0.092-0.972,0.808-1.788,1.783-1.991
		c0.152-0.032,0.308-0.048,0.463-0.048c0.436,0,0.861,0.127,1.229,0.368c0.502,0.329,0.847,0.834,0.97,1.423l0.611,2.934
		c0.234,1.229-0.569,2.412-1.787,2.644C20.405,19.618,20.261,19.632,20.12,19.632z M18.664,16.965c0.352,0,0.653,0.24,0.731,0.583
		c0.078,0.344,0.378,0.583,0.729,0.583c0.048,0,0.096-0.004,0.144-0.013c0.406-0.077,0.673-0.471,0.596-0.877l-0.609-2.92
		c-0.041-0.196-0.156-0.364-0.323-0.474c-0.123-0.08-0.264-0.123-0.408-0.123c-0.052,0-0.104,0.005-0.155,0.016
		c-0.407,0.084-0.668,0.482-0.584,0.887c0.04,0.196,0,0.403-0.11,0.568c-0.111,0.166-0.287,0.283-0.482,0.32l-0.037,0.008
		c-0.187,0.043-0.353,0.161-0.459,0.33c-0.106,0.17-0.141,0.371-0.096,0.566c0.077,0.339,0.384,0.584,0.729,0.584
		c0.056,0,0.113-0.007,0.168-0.019C18.552,16.971,18.608,16.965,18.664,16.965z"/>
	<path d="M18.856,10.887c-0.229,0-0.457-0.035-0.678-0.105c-0.573-0.18-1.042-0.573-1.32-1.106
		c-0.181-0.348-0.268-0.728-0.255-1.112c-0.299-0.21-0.542-0.491-0.709-0.823c-0.27-0.534-0.317-1.142-0.132-1.711
		c0.307-0.933,1.167-1.554,2.141-1.554c0.238,0,0.474,0.038,0.702,0.113l2.849,0.936c0.566,0.178,1.033,0.571,1.311,1.104
		c0.278,0.533,0.331,1.142,0.151,1.715c-0.297,0.942-1.16,1.575-2.147,1.575c0,0-0.043,0-0.064-0.001
		c-0.206,0.299-0.483,0.544-0.811,0.715C19.573,10.799,19.214,10.887,18.856,10.887z M18.143,8.399
		c-0.064,0.204-0.046,0.406,0.046,0.584c0.093,0.177,0.249,0.309,0.44,0.369c0.074,0.023,0.15,0.035,0.226,0.035
		c0.12,0,0.237-0.029,0.345-0.086c0.178-0.093,0.309-0.249,0.369-0.44c0.06-0.191,0.197-0.353,0.375-0.444
		c0.104-0.053,0.222-0.082,0.34-0.082c0.082,0,0.163,0.013,0.24,0.04l0.021,0.007c0.071,0.022,0.147,0.034,0.223,0.034
		c0.33,0,0.618-0.211,0.717-0.525c0.124-0.394-0.096-0.816-0.49-0.94l-2.859-0.939c-0.076-0.025-0.155-0.038-0.234-0.038
		c-0.322,0-0.607,0.204-0.711,0.509c-0.002,0.005-0.003,0.01-0.005,0.015c-0.06,0.182-0.044,0.386,0.046,0.565
		c0.09,0.178,0.245,0.311,0.435,0.374c0.19,0.063,0.35,0.201,0.439,0.38c0.089,0.18,0.101,0.391,0.035,0.58
		C18.143,8.399,18.143,8.399,18.143,8.399z"/>
	<path d="M12,15.751c-2.068,0-3.75-1.682-3.75-3.75c0-2.068,1.682-3.75,3.75-3.75c2.068,0,3.75,1.682,3.75,3.75
		C15.75,14.068,14.068,15.751,12,15.751z M12,9.751c-1.241,0-2.25,1.009-2.25,2.25c0,1.241,1.009,2.25,2.25,2.25
		c1.241,0,2.25-1.009,2.25-2.25C14.25,10.76,13.24,9.751,12,9.751z"/>
</g>
</svg>
