<?xml version="1.0" encoding="utf-8"?>
<!-- Generator: Adobe Illustrator 22.1.0, SVG Export Plug-In . SVG Version: 6.00 Build 0)  -->
<svg version="1.1" id="Regular" xmlns="http://www.w3.org/2000/svg" xmlns:xlink="http://www.w3.org/1999/xlink" x="0px" y="0px"
	 viewBox="0 0 24 24" style="enable-background:new 0 0 24 24;" xml:space="preserve">
<title>chef-gear-asian-hat</title>
<g>
	<path d="M2.916,23.25c-0.603-0.002-1.167-0.237-1.591-0.664c-0.424-0.426-0.656-0.992-0.654-1.593
		c0.001-0.269,0.049-0.533,0.143-0.784l1.936-5.16c0.013-0.053,0.031-0.101,0.054-0.147c0.002-0.003,0.003-0.007,0.005-0.01
		l1.382-3.683c0.219-0.58,0.783-0.969,1.404-0.969c0.022,0,0.044,0,0.066,0.001c0.467-2.151,1.3-4.404,2.26-6.092
		c1.265-2.224,2.676-3.4,4.08-3.4c1.859,0,3.338,2.017,4.251,3.71c0.912,1.69,1.673,3.82,2.11,5.897
		c0.032-0.002,0.063-0.003,0.095-0.003c0.401,0,0.778,0.156,1.061,0.439c0.153,0.153,0.269,0.333,0.344,0.535l3.331,8.882
		c0.211,0.562,0.19,1.173-0.059,1.72c-0.249,0.548-0.695,0.966-1.257,1.176c-0.251,0.094-0.515,0.143-0.784,0.144
		c0,0-0.001,0-0.001,0H2.916z M21.091,21.75c0.088,0,0.175-0.016,0.259-0.048c0.388-0.146,0.584-0.579,0.439-0.966l-1.846-4.922
		l-5.479,5.935H21.091z M12.422,21.75l6.931-7.508l-0.897-2.388L8.561,21.75H12.422z M2.218,20.737
		C2.186,20.82,2.17,20.908,2.17,20.998c-0.001,0.2,0.077,0.388,0.219,0.531s0.329,0.221,0.529,0.222H6.44l2.794-2.794l-5.345-2.673
		L2.218,20.737z M10.352,17.837l1.275-1.275l-6.032-4.825c0,0-0.001,0-0.001,0.001l-1.175,3.133L10.352,17.837z M12.001,6
		c0.414,0,0.75,0.336,0.75,0.75v8.689L17,11.19c-0.825-4.541-3.273-8.94-4.999-8.94c-1.712,0-4.093,4.208-4.96,8.723l4.21,3.367
		V6.75C11.251,6.336,11.587,6,12.001,6z"/>
</g>
</svg>
