<?xml version="1.0" encoding="utf-8"?>
<!-- Generator: Adobe Illustrator 22.1.0, SVG Export Plug-In . SVG Version: 6.00 Build 0)  -->
<svg version="1.1" id="Regular" xmlns="http://www.w3.org/2000/svg" xmlns:xlink="http://www.w3.org/1999/xlink" x="0px" y="0px"
	 viewBox="0 0 24 24" style="enable-background:new 0 0 24 24;" xml:space="preserve">
<title>chess-pawn</title>
<g>
	<path d="M5.25,24C4.009,24,3,22.991,3,21.75c0-0.971,0.628-1.826,1.529-2.131c0.181-1.372,1.129-2.538,2.444-2.993
		c1.574-3.156,3.023-6.143,1.675-9.134C7.907,6.664,7.5,5.604,7.5,4.5C7.5,2.019,9.519,0,12,0c2.481,0,4.5,2.019,4.5,4.5
		c0,1.103-0.407,2.163-1.147,2.992c-1.349,2.996,0.165,6.114,1.674,9.134c1.315,0.454,2.263,1.62,2.444,2.993
		c0.901,0.305,1.53,1.16,1.53,2.131c0,1.241-1.009,2.25-2.25,2.25H5.25z M5.25,21c-0.414,0-0.75,0.336-0.75,0.75
		s0.336,0.75,0.75,0.75h13.5c0.414,0,0.75-0.336,0.75-0.75S19.164,21,18.75,21H5.25z M17.92,19.5c-0.206-0.72-0.775-1.296-1.514-1.5
		H7.594c-0.739,0.204-1.308,0.78-1.514,1.5H17.92z M15.291,16.5c-1.263-2.591-2.281-5.144-1.874-7.731C12.961,8.921,12.481,9,12,9
		c-0.481,0-0.962-0.079-1.418-0.231c0.406,2.584-0.612,5.138-1.874,7.731H15.291z M12,1.5c-1.654,0-3,1.346-3,3s1.346,3,3,3
		c1.654,0,3-1.346,3-3S13.654,1.5,12,1.5z"/>
</g>
</svg>
