<?xml version="1.0" encoding="utf-8"?>
<!-- Generator: Adobe Illustrator 22.1.0, SVG Export Plug-In . SVG Version: 6.00 Build 0)  -->
<svg version="1.1" id="Regular" xmlns="http://www.w3.org/2000/svg" xmlns:xlink="http://www.w3.org/1999/xlink" x="0px" y="0px"
	 viewBox="0 0 24 24" style="enable-background:new 0 0 24 24;" xml:space="preserve">
<title>chick-1_1</title>
<g>
	<path d="M10.501,24c-5.79,0-10.5-4.71-10.5-10.5v-3c0-0.243,0.118-0.471,0.316-0.612C0.445,9.798,0.595,9.75,0.751,9.75
		c0.085,0,0.168,0.014,0.248,0.042c1.725,0.606,3.533,0.913,5.373,0.913c0.841,0,1.686-0.066,2.512-0.196
		c0.801-0.125,1.599-0.307,2.378-0.541c-0.971-1.096-1.515-2.521-1.512-3.996c0.004-1.603,0.632-3.108,1.768-4.238
		c1.132-1.126,2.635-1.747,4.232-1.747c1.618,0.004,3.123,0.632,4.254,1.768c0.815,0.819,1.363,1.826,1.604,2.939l1.227-0.818
		c0.124-0.082,0.267-0.126,0.416-0.126c0.251,0,0.485,0.125,0.624,0.334c0.111,0.167,0.151,0.367,0.112,0.563
		c-0.039,0.197-0.153,0.366-0.32,0.477L22.353,6l1.314,0.876c0.167,0.111,0.28,0.28,0.32,0.477c0.039,0.196,0,0.396-0.112,0.563
		C23.735,8.125,23.502,8.25,23.25,8.25c-0.148,0-0.292-0.044-0.416-0.126l-1.233-0.822c-0.232,1.022-0.731,1.972-1.443,2.741
		c0.615,1.053,0.912,2.284,0.84,3.501c0.001,2.769-1.092,5.398-3.078,7.38C15.935,22.908,13.3,24,10.501,24z M1.501,13.5
		c0,4.963,4.037,9,9,9s9-4.037,9-9c0.065-1.134-0.259-2.234-0.912-3.118c-0.232-0.314-0.182-0.759,0.114-1.014
		c0.981-0.846,1.545-2.074,1.549-3.37c0.003-1.202-0.462-2.333-1.31-3.185c-0.848-0.852-1.977-1.323-3.179-1.326
		c-1.209,0-2.336,0.465-3.185,1.31c-0.852,0.848-1.323,1.977-1.326,3.179c-0.004,1.46,0.705,2.836,1.895,3.681
		c0.226,0.161,0.345,0.432,0.31,0.707c-0.036,0.276-0.219,0.508-0.478,0.606c-1.246,0.473-2.545,0.816-3.861,1.022
		c-0.902,0.142-1.825,0.214-2.743,0.214c-1.654,0-3.291-0.229-4.873-0.68V13.5z"/>
	<path d="M11.809,18.87c-2.805,0-4.216-2.757-4.229-2.785c-0.185-0.37-0.034-0.821,0.335-1.006C8.02,15.027,8.135,15,8.25,15
		c0.286,0,0.543,0.158,0.671,0.413c0.04,0.079,1.008,1.957,2.886,1.956c0.247,0,0.503-0.033,0.761-0.097
		c1.399-0.349,2.399-1.598,2.432-3.04c0.009-0.404,0.34-0.726,0.753-0.733c0.428,0.01,0.757,0.354,0.747,0.767
		c-0.048,2.115-1.516,3.95-3.569,4.461C12.553,18.823,12.175,18.87,11.809,18.87z"/>
	<path d="M16.126,6.75c-0.044,0-0.088-0.004-0.131-0.011c-0.513-0.06-0.922-0.47-0.982-0.983c-0.008-0.042-0.011-0.086-0.011-0.13
		s0.004-0.088,0.011-0.13c0.06-0.513,0.47-0.923,0.982-0.983C16.038,4.504,16.082,4.5,16.126,4.5s0.088,0.004,0.131,0.011
		c0.513,0.06,0.922,0.47,0.983,0.983c0.007,0.042,0.011,0.086,0.011,0.13s-0.004,0.088-0.011,0.13
		c-0.061,0.513-0.47,0.923-0.983,0.983C16.213,6.746,16.169,6.75,16.126,6.75z"/>
</g>
</svg>
