<?xml version="1.0" encoding="utf-8"?>
<!-- Generator: Adobe Illustrator 22.1.0, SVG Export Plug-In . SVG Version: 6.00 Build 0)  -->
<svg version="1.1" id="Regular" xmlns="http://www.w3.org/2000/svg" xmlns:xlink="http://www.w3.org/1999/xlink" x="0px" y="0px"
	 viewBox="0 0 24 24" style="enable-background:new 0 0 24 24;" xml:space="preserve">
<title>chicken-mother</title>
<g>
	<path d="M11.922,18.762c-0.323,0-0.609-0.206-0.711-0.513l-0.595-1.785c-0.312,0.03-0.628,0.045-0.943,0.045
		c-1.158,0-2.19-0.135-3.074-0.403l-0.715,2.144c-0.102,0.307-0.388,0.513-0.711,0.513c-0.081,0-0.161-0.013-0.238-0.039
		c-0.19-0.063-0.344-0.197-0.433-0.376c-0.089-0.179-0.104-0.383-0.041-0.573l0.757-2.271c-1.504-0.89-2.296-2.351-2.296-4.245
		C2.96,9.858,3.194,8.488,3.617,7.171C2.864,6.828,2.246,6.243,1.858,5.508L1.007,5.933C0.903,5.985,0.787,6.012,0.672,6.012
		c-0.286,0-0.543-0.159-0.671-0.415c-0.089-0.179-0.104-0.382-0.04-0.573c0.063-0.19,0.197-0.344,0.376-0.433l1.096-0.548
		C1.425,3.946,1.421,3.851,1.422,3.756c0.001-1.002,0.392-1.943,1.1-2.651C3.23,0.398,4.171,0.009,5.171,0.009
		c2.071,0.002,3.752,1.685,3.75,3.753c-0.007,1.132-0.064,2.274-0.17,3.405c0.362-0.03,0.726-0.045,1.088-0.045
		c1.186,0,2.368,0.161,3.515,0.479c0.122,0.005,0.239,0.039,0.344,0.1c1.102,0.338,2.152,0.816,3.121,1.423
		c0.22,0.138,0.352,0.376,0.352,0.636c0,3.109-1.974,5.596-5.065,6.437l0.527,1.579c0.131,0.393-0.082,0.818-0.474,0.949
		C12.082,18.749,12.003,18.762,11.922,18.762z M6.484,14.471c0.833,0.357,1.906,0.538,3.188,0.538c3.4,0,5.776-1.933,5.985-4.834
		c-0.472-0.271-0.967-0.511-1.478-0.715c-0.058,1.296-0.741,2.485-1.858,3.188c-0.621,0.414-1.312,0.626-2.045,0.626
		c-1.405,0-2.701-0.798-3.384-1.481c-0.142-0.141-0.22-0.33-0.22-0.53c0-0.2,0.078-0.389,0.22-0.53c0.142-0.142,0.33-0.22,0.53-0.22
		s0.388,0.078,0.53,0.219c0.042,0.042,1.071,1.047,2.306,1.047c0.439,0,0.859-0.131,1.248-0.391c0.793-0.499,1.237-1.374,1.17-2.291
		l-0.02-0.129c-0.923-0.23-1.87-0.346-2.819-0.346c-0.606,0-1.216,0.048-1.814,0.143C7.986,8.771,7.946,8.774,7.906,8.774
		c-0.194,0-0.379-0.074-0.519-0.21C7.218,8.403,7.134,8.168,7.162,7.936c0.164-1.381,0.251-2.787,0.26-4.178
		c0-0.597-0.233-1.161-0.658-1.587c-0.425-0.426-0.99-0.661-1.59-0.661L5.171,1.134v0.375c-0.6,0-1.165,0.234-1.59,0.658
		c-0.425,0.425-0.66,0.989-0.66,1.59C2.92,4.825,3.679,5.753,4.726,5.965c0.217,0.044,0.402,0.18,0.508,0.373
		c0.107,0.193,0.123,0.423,0.044,0.629C4.75,8.35,4.462,9.801,4.421,11.28c0,1.527,0.656,2.566,2.004,3.165
		C6.442,14.451,6.463,14.461,6.484,14.471z"/>
	<path d="M4.799,4.512c-0.559,0-1.033-0.415-1.11-0.969C3.677,3.489,3.672,3.438,3.672,3.387c0-0.62,0.504-1.125,1.124-1.125
		c0,0,0.007,0,0.011,0c0.617,0.004,1.118,0.507,1.118,1.125c0,0.051-0.006,0.102-0.017,0.156C5.837,4.048,5.441,4.437,4.934,4.5
		C4.891,4.508,4.847,4.512,4.802,4.512c0,0-0.001,0-0.002,0H4.799z"/>
	<path d="M21.671,24.012c-0.414,0-0.75-0.336-0.75-0.75v-0.521c-0.25,0.07-0.501,0.115-0.75,0.135v0.386
		c0,0.414-0.336,0.75-0.75,0.75s-0.75-0.336-0.75-0.75v-0.607c-0.624-0.254-1.123-0.711-1.421-1.307
		c-0.98-1.961,0.814-3.789,0.891-3.866c0.14-0.14,0.333-0.22,0.53-0.22c0.061,0,0.121-0.007,0.18-0.022
		c0.022-0.008,0.045-0.015,0.068-0.02c0.301-0.105,0.502-0.388,0.502-0.708c0-0.414-0.336-0.75-0.75-0.75s-0.75,0.336-0.75,0.75
		s-0.336,0.75-0.75,0.75h-0.75c-0.414,0-0.75-0.336-0.75-0.75s0.336-0.75,0.75-0.75h0.128c0.314-0.885,1.162-1.5,2.122-1.5
		c1.241,0,2.25,1.009,2.25,2.25c0,0.346-0.08,0.684-0.229,0.99l2.626,0.525c0.281,0.056,0.503,0.263,0.577,0.541
		c0.297,1.108-0.086,2.285-0.975,3.006c-0.156,0.153-0.323,0.296-0.499,0.427v1.261C22.421,23.675,22.085,24.012,21.671,24.012z
		 M19.041,18.732c-0.284,0.363-0.822,1.198-0.448,1.945c0.184,0.369,0.535,0.613,0.988,0.686c0.101,0.016,0.207,0.025,0.314,0.025
		c0.683,0,1.43-0.339,1.997-0.906c0.02-0.02,0.043-0.041,0.069-0.061c0.319-0.251,0.512-0.63,0.533-1.03l-3.373-0.674
		C19.094,18.722,19.067,18.727,19.041,18.732z"/>
</g>
</svg>
