<?xml version="1.0" encoding="utf-8"?>
<!-- Generator: Adobe Illustrator 22.1.0, SVG Export Plug-In . SVG Version: 6.00 Build 0)  -->
<svg version="1.1" id="Regular" xmlns="http://www.w3.org/2000/svg" xmlns:xlink="http://www.w3.org/1999/xlink" x="0px" y="0px"
	 viewBox="0 0 24 24" style="enable-background:new 0 0 24 24;" xml:space="preserve">
<title>christmas-door-wreath</title>
<g>
	<path d="M12.145,23.989c-2.349,0-4.584-0.735-6.463-2.126c-0.006-0.004-0.013-0.008-0.019-0.013
		c-0.006-0.003-0.026-0.019-0.045-0.036c-0.393-0.293-0.775-0.622-1.12-0.964c-2.17-2.146-3.333-5.141-3.198-8.225
		c0-0.002-0.001-0.005-0.001-0.008c-0.018-0.111-0.01-0.226,0.024-0.337c0.163-2.165,0.948-4.194,2.276-5.883
		C3.561,6.232,3.536,6.066,3.524,5.901C3.523,5.883,3.522,5.865,3.522,5.848v-2.68c0.103-1.792,1.563-3.18,3.326-3.18
		c0.053,0,0.106,0.001,0.159,0.004l0.027-0.001c0.866,0,1.708,0.311,2.372,0.875l1.681,1.456c0.223-0.052,0.452-0.078,0.683-0.078
		c0.234,0,0.466,0.027,0.693,0.081l1.664-1.452c0.67-0.572,1.527-0.885,2.417-0.885c0.054-0.003,0.113-0.004,0.171-0.004
		c1.748,0,3.197,1.378,3.299,3.137l-0.003,2.492c1.755,1.839,2.811,4.242,2.979,6.786c0.011,0.06,0.016,0.121,0.012,0.183
		c0.149,3.043-0.989,6.026-3.125,8.185C17.822,22.844,15.076,23.989,12.145,23.989z M7.148,21.048
		c1.493,0.942,3.212,1.438,4.998,1.438c1.786,0,3.506-0.496,4.999-1.438c-0.633-0.822-1.386-1.535-2.243-2.126
		c-0.5,0.238-1.03,0.41-1.581,0.513c-0.392,0.073-0.792,0.111-1.187,0.111c-0.939,0-1.88-0.216-2.737-0.627
		C8.536,19.51,7.782,20.225,7.148,21.048z M2.79,13.159c0.013,2.492,1.01,4.891,2.763,6.625c0.126,0.125,0.258,0.248,0.393,0.366
		c0.608-0.793,1.31-1.498,2.095-2.103c-0.449-0.375-0.84-0.805-1.168-1.283c-0.113-0.166-0.155-0.365-0.118-0.562
		c0.037-0.197,0.148-0.368,0.313-0.481c0.125-0.086,0.272-0.131,0.423-0.131c0.248,0,0.479,0.122,0.619,0.326
		c0.343,0.501,0.771,0.929,1.272,1.272c0.819,0.561,1.77,0.857,2.753,0.857c0.303,0,0.609-0.029,0.91-0.085
		c1.284-0.24,2.398-0.966,3.136-2.044c0.14-0.204,0.371-0.326,0.619-0.326c0.152,0,0.298,0.045,0.424,0.132
		c0.165,0.113,0.276,0.284,0.313,0.48c0.037,0.197-0.005,0.397-0.119,0.562c-0.327,0.477-0.718,0.907-1.167,1.282
		c0.784,0.604,1.486,1.309,2.095,2.103c0.163-0.143,0.318-0.29,0.465-0.438c1.733-1.752,2.686-4.057,2.702-6.52
		c-0.378-0.045-0.755-0.068-1.125-0.068c-0.118,0-0.235,0.002-0.353,0.007c-0.007,0-0.024,0.001-0.041,0.001
		c-0.398,0-0.722-0.317-0.739-0.721c-0.016-0.414,0.307-0.763,0.72-0.78c0.138-0.005,0.275-0.008,0.413-0.008
		c0.336,0,0.676,0.016,1.015,0.047c-0.244-1.578-0.879-3.048-1.858-4.304c-0.595,0.996-1.682,1.633-2.865,1.633
		c-0.066,0-0.132-0.002-0.199-0.006c-0.002,0-0.004,0-0.006,0c-0.083,0-0.168-0.004-0.255-0.011l1.127,3.836
		c0.161,0.546-0.153,1.123-0.699,1.285c-0.095,0.028-0.194,0.042-0.293,0.042c-0.14,0-0.277-0.028-0.406-0.083l-0.968-0.408
		l-0.472,0.708c-0.156,0.232-0.391,0.388-0.663,0.441c-0.066,0.013-0.133,0.019-0.2,0.019c-0.206,0-0.405-0.061-0.577-0.177
		c-0.188-0.126-0.33-0.314-0.402-0.528l-0.813-2.446l-0.816,2.448c-0.09,0.265-0.275,0.477-0.524,0.6
		c-0.142,0.07-0.301,0.107-0.458,0.107c-0.113,0-0.224-0.018-0.332-0.055C9.51,14.7,9.323,14.557,9.197,14.369l-0.473-0.709
		l-0.969,0.408c-0.127,0.054-0.263,0.083-0.403,0.083c-0.133,0-0.263-0.025-0.387-0.075c-0.256-0.103-0.457-0.3-0.566-0.555
		c-0.094-0.221-0.108-0.469-0.04-0.699l1.138-3.857c-0.155,0.021-0.31,0.031-0.465,0.031C6.987,8.998,6.919,9,6.852,9
		C5.894,9,4.998,8.592,4.369,7.886c-0.754,1.124-1.255,2.407-1.466,3.757c0.267-0.02,0.533-0.029,0.797-0.029
		c0.211,0,0.423,0.006,0.631,0.019c0.2,0.012,0.383,0.101,0.516,0.251s0.199,0.343,0.187,0.542
		c-0.023,0.395-0.352,0.705-0.747,0.705c-0.008,0-0.041-0.001-0.049-0.001c-0.174-0.01-0.352-0.016-0.529-0.016
		C3.407,13.114,3.099,13.129,2.79,13.159z M8.896,12.047c0.341,0,0.66,0.167,0.853,0.447l0.167,0.251l0.957-2.869
		c0.103-0.307,0.347-0.55,0.651-0.653c0.108-0.036,0.219-0.054,0.331-0.054c0.445,0,0.84,0.283,0.982,0.704l0.953,2.867l0.159-0.239
		c0.2-0.288,0.521-0.457,0.863-0.457c0.14,0,0.277,0.028,0.406,0.083l0.415,0.175l-1.151-3.916c-0.137-0.09-0.266-0.188-0.385-0.291
		L13.58,7.633c-0.52,0.396-1.151,0.611-1.81,0.611c-0.66,0-1.291-0.215-1.812-0.612L9.447,8.089
		C9.391,8.137,9.335,8.183,9.279,8.226l-1.203,4.079l0.418-0.176C8.619,12.075,8.755,12.047,8.896,12.047z M5.022,5.819
		c0.08,0.944,0.88,1.682,1.826,1.682c0.041,0,0.082-0.001,0.123-0.004c0.008-0.001,0.055-0.002,0.06-0.002
		C7.56,7.493,8.062,7.304,8.456,6.963l0.571-0.51C8.858,6.072,8.77,5.66,8.77,5.244H8.02c-0.414,0-0.75-0.336-0.75-0.75
		s0.336-0.75,0.75-0.75h1.156c0.139-0.24,0.311-0.459,0.509-0.652L8.429,2.005c-0.389-0.33-0.885-0.513-1.395-0.513L6.941,1.491
		C6.91,1.489,6.877,1.488,6.845,1.488c-0.967,0-1.768,0.757-1.824,1.723L5.022,5.819z M16.561,7.495
		c0.043,0.003,0.082,0.004,0.122,0.004c0.949,0,1.75-0.739,1.828-1.685l0.005-2.652c-0.054-0.915-0.874-1.678-1.827-1.678
		c-0.031,0-0.062,0.001-0.094,0.002l-0.05,0c-0.541,0-1.038,0.18-1.437,0.521L13.86,3.097c0.196,0.191,0.366,0.409,0.504,0.647
		h1.156c0.414,0,0.75,0.336,0.75,0.75s-0.336,0.75-0.75,0.75h-0.75c0,0.417-0.088,0.83-0.258,1.211l0.575,0.513
		c0.389,0.338,0.881,0.526,1.383,0.526c0,0,0.045,0,0.047,0C16.525,7.494,16.553,7.495,16.561,7.495z M11.77,3.744
		c-0.827,0-1.5,0.673-1.5,1.5s0.673,1.5,1.5,1.5s1.5-0.673,1.5-1.5S12.597,3.744,11.77,3.744z"/>
</g>
</svg>
