<?xml version="1.0" encoding="utf-8"?>
<!-- Generator: Adobe Illustrator 22.1.0, SVG Export Plug-In . SVG Version: 6.00 Build 0)  -->
<svg version="1.1" id="Regular" xmlns="http://www.w3.org/2000/svg" xmlns:xlink="http://www.w3.org/1999/xlink" x="0px" y="0px"
	 viewBox="0 0 24 24" style="enable-background:new 0 0 24 24;" xml:space="preserve">
<title>christmas-tree</title>
<g>
	<path d="M12,24.009c-0.414,0-0.75-0.336-0.75-0.75v-3.75H3c-0.286,0-0.543-0.159-0.671-0.414c-0.128-0.256-0.101-0.557,0.071-0.786
		l3.6-4.8H5.25c-0.286,0-0.543-0.159-0.671-0.414c-0.128-0.256-0.101-0.557,0.071-0.786l3.6-4.8h-1.5
		c-0.294,0-0.562-0.173-0.683-0.44C5.945,6.802,5.992,6.486,6.186,6.265l5.25-6c0.139-0.159,0.345-0.25,0.564-0.25
		s0.426,0.091,0.564,0.25l5.25,6c0.193,0.221,0.24,0.536,0.119,0.804s-0.389,0.44-0.683,0.44h-1.5l3.6,4.8
		c0.171,0.229,0.198,0.53,0.071,0.786c-0.128,0.256-0.385,0.415-0.671,0.415H18l3.6,4.8c0.171,0.229,0.198,0.53,0.071,0.786
		c-0.128,0.256-0.385,0.415-0.671,0.415h-8.25v3.75C12.75,23.673,12.413,24.009,12,24.009z M19.5,18.009l-3.6-4.8
		c-0.171-0.229-0.198-0.53-0.071-0.786c0.128-0.256,0.385-0.415,0.671-0.415h0.75l-3.6-4.8c-0.171-0.229-0.198-0.53-0.071-0.785
		s0.385-0.415,0.671-0.415h1.347L12,1.898L8.403,6.009H9.75c0.286,0,0.543,0.159,0.671,0.414c0.128,0.256,0.101,0.557-0.071,0.786
		l-3.6,4.8H7.5c0.286,0,0.543,0.159,0.671,0.414c0.128,0.256,0.101,0.557-0.071,0.786l-3.6,4.8H19.5z"/>
	<path d="M13.125,11.259c-0.044,0-0.088-0.004-0.131-0.011c-0.513-0.06-0.922-0.47-0.983-0.983C12.004,10.222,12,10.178,12,10.134
		s0.004-0.088,0.011-0.13c0.06-0.513,0.47-0.923,0.983-0.983c0.043-0.008,0.087-0.011,0.131-0.011s0.088,0.004,0.131,0.011
		c0.513,0.06,0.922,0.47,0.983,0.983c0.007,0.042,0.011,0.086,0.011,0.13s-0.004,0.088-0.011,0.13
		c-0.061,0.513-0.47,0.923-0.983,0.983C13.213,11.255,13.169,11.259,13.125,11.259z"/>
	<path d="M12,6.009c-0.044,0-0.088-0.004-0.131-0.012c-0.513-0.06-0.922-0.47-0.982-0.982c-0.008-0.043-0.012-0.087-0.012-0.131
		s0.004-0.088,0.012-0.131c0.06-0.513,0.47-0.922,0.982-0.982C11.912,3.763,11.956,3.759,12,3.759s0.088,0.004,0.131,0.012
		c0.513,0.06,0.922,0.47,0.983,0.983c0.007,0.042,0.011,0.086,0.011,0.13s-0.004,0.088-0.011,0.13
		c-0.061,0.513-0.47,0.922-0.983,0.983C12.088,6.005,12.044,6.009,12,6.009z"/>
	<path d="M11.25,16.509c-1.241,0-2.25-1.009-2.25-2.25s1.009-2.25,2.25-2.25c1.241,0,2.25,1.009,2.25,2.25
		S12.491,16.509,11.25,16.509z M11.25,13.509c-0.414,0-0.75,0.336-0.75,0.75s0.336,0.75,0.75,0.75S12,14.673,12,14.259
		S11.663,13.509,11.25,13.509z"/>
</g>
</svg>
