<?xml version="1.0" encoding="utf-8"?>
<!-- Generator: Adobe Illustrator 22.1.0, SVG Export Plug-In . SVG Version: 6.00 Build 0)  -->
<svg version="1.1" id="Regular" xmlns="http://www.w3.org/2000/svg" xmlns:xlink="http://www.w3.org/1999/xlink" x="0px" y="0px"
	 viewBox="0 0 24 24" style="enable-background:new 0 0 24 24;" xml:space="preserve">
<title>christmas-door-wreath-1</title>
<g>
	<path d="M19.985,20.675c-0.199,0-0.386-0.077-0.528-0.217c-0.294-0.291-0.296-0.767-0.005-1.061
		c1.974-1.993,3.053-4.634,3.039-7.439c-0.013-2.804-1.118-5.435-3.111-7.409c-1.976-1.957-4.599-3.034-7.387-3.034
		c-2.827,0-5.477,1.103-7.46,3.106c-3.773,3.81-4.074,9.826-0.701,13.994c0.26,0.321,0.21,0.794-0.111,1.055
		c-0.134,0.108-0.301,0.167-0.472,0.167c-0.228,0-0.44-0.101-0.583-0.278C-1.19,14.796-0.846,7.921,3.467,3.566
		c2.267-2.289,5.295-3.55,8.526-3.55c3.186,0,6.185,1.232,8.443,3.468c2.277,2.255,3.54,5.263,3.555,8.468
		c0.015,3.205-1.218,6.224-3.474,8.502C20.376,20.597,20.186,20.675,19.985,20.675z"/>
	<path d="M13.87,24.008c-0.046,0-0.092-0.003-0.138-0.009c-0.394-0.053-0.716-0.32-0.844-0.695l-0.817-2.451l-0.816,2.448
		c-0.09,0.265-0.276,0.478-0.524,0.6c-0.145,0.071-0.299,0.107-0.458,0.107c-0.113,0-0.225-0.019-0.333-0.055
		c-0.213-0.072-0.399-0.214-0.526-0.401l-0.477-0.715l-0.968,0.408c-0.128,0.054-0.263,0.081-0.401,0.081
		c-0.418,0-0.793-0.248-0.955-0.633C6.523,22.473,6.509,22.227,6.576,22l1.131-3.851c-0.153,0.02-0.306,0.03-0.459,0.03
		c-0.045,0.003-0.111,0.005-0.176,0.005c-1.744,0-3.205-1.363-3.327-3.103c-0.001-0.017-0.002-0.034-0.002-0.052v-2.68
		c0.099-1.794,1.56-3.183,3.326-3.183c0.057,0,0.115,0.002,0.173,0.005c0.003,0,0.006,0,0.009,0c0.05,0,0.103,0.001,0.158,0.005
		c0.583-1.532,1.905-2.687,3.514-3.046c0.355-0.079,0.718-0.12,1.079-0.12c0.925,0,1.831,0.265,2.62,0.765
		c0.895,0.568,1.581,1.413,1.954,2.401c0.063-0.004,0.125-0.005,0.185-0.005c0.001,0,0.025,0,0.026,0
		c0.035-0.003,0.093-0.004,0.151-0.004c1.754,0,3.206,1.38,3.305,3.142l-0.004,2.723c0,0.019-0.001,0.038-0.002,0.057
		c-0.122,1.734-1.583,3.097-3.327,3.097c-0.065,0-0.132-0.002-0.198-0.006c-0.002,0-0.004,0-0.007,0
		c-0.083,0-0.169-0.003-0.257-0.01L17.568,22c0.078,0.264,0.048,0.544-0.085,0.787c-0.132,0.243-0.352,0.419-0.617,0.497
		c-0.093,0.027-0.191,0.042-0.29,0.042c-0.139,0-0.274-0.027-0.402-0.081l-0.968-0.408l-0.474,0.711
		C14.541,23.836,14.219,24.008,13.87,24.008z M9.112,21.224c0.348,0,0.671,0.173,0.863,0.462l0.159,0.239l0.957-2.87
		c0.103-0.308,0.348-0.553,0.656-0.655c0.105-0.035,0.215-0.052,0.325-0.052c0.448,0,0.843,0.285,0.983,0.709l0.956,2.869l0.16-0.24
		c0.191-0.289,0.514-0.461,0.861-0.461c0.139,0,0.274,0.027,0.403,0.082l0.42,0.177l-1.144-3.912
		c-0.137-0.09-0.266-0.188-0.386-0.292l-0.522-0.466c-0.52,0.396-1.152,0.612-1.811,0.612c-0.659,0-1.291-0.215-1.811-0.612
		l-0.511,0.456c-0.059,0.051-0.12,0.101-0.184,0.15l-1.193,4.063l0.419-0.177C8.839,21.251,8.973,21.224,9.112,21.224z M5.243,15
		c0.078,0.945,0.88,1.684,1.832,1.684c0.038,0,0.077-0.001,0.115-0.004c0.006,0,0.056-0.001,0.058-0.001
		c0.526,0,1.033-0.19,1.429-0.535l0.571-0.509c-0.169-0.381-0.257-0.794-0.257-1.21c0-0.055,0.002-0.111,0.005-0.166H7.493
		c-0.414,0-0.75-0.336-0.75-0.75s0.336-0.75,0.75-0.75h2.007c0.113-0.168,0.244-0.325,0.388-0.468l-1.249-1.112
		c-0.23-0.196-0.514-0.346-0.818-0.43c-0.013-0.002-0.03-0.004-0.046-0.008c-0.013-0.003-0.035-0.01-0.053-0.015
		c-0.166-0.038-0.331-0.057-0.491-0.057c-0.006,0-0.036,0-0.043,0c-0.033-0.002-0.066-0.002-0.099-0.002
		c-0.982,0-1.794,0.758-1.848,1.725L5.243,15z M16.79,16.68c0.037,0.002,0.074,0.003,0.111,0.003c0.954,0,1.758-0.739,1.836-1.684
		l0.005-2.653c-0.053-0.934-0.855-1.682-1.825-1.682c-0.033,0-0.066,0.001-0.099,0.003c-0.007,0-0.021,0-0.027,0
		c-0.182,0-0.365,0.021-0.545,0.063c-0.011,0.003-0.022,0.007-0.03,0.009c-0.014,0.003-0.026,0.005-0.036,0.007
		c-0.318,0.084-0.604,0.233-0.851,0.443l-1.249,1.089c0.15,0.146,0.285,0.308,0.401,0.481h2.01c0.414,0,0.75,0.336,0.75,0.75
		s-0.336,0.75-0.75,0.75h-1.507c0.003,0.055,0.005,0.111,0.005,0.166c0,0.416-0.088,0.829-0.257,1.209l0.581,0.519
		c0.389,0.338,0.894,0.526,1.418,0.526c0,0,0.018,0,0.025,0C16.771,16.679,16.785,16.68,16.79,16.68z M11.991,12.924
		c-0.827,0-1.5,0.673-1.5,1.5s0.673,1.5,1.5,1.5s1.5-0.673,1.5-1.5S12.818,12.924,11.991,12.924z M8.874,9.554
		c0.27,0.134,0.522,0.299,0.75,0.494l1.646,1.466c0.237-0.059,0.478-0.089,0.721-0.089c0.234,0,0.467,0.027,0.693,0.081l1.666-1.453
		c0.233-0.199,0.489-0.367,0.763-0.502c-0.269-0.623-0.712-1.141-1.296-1.511C13.27,7.692,12.641,7.508,12,7.508
		c-0.25,0-0.503,0.028-0.75,0.083C10.191,7.828,9.307,8.567,8.874,9.554z"/>
	<path d="M5.618,8.258c-0.044,0-0.088-0.004-0.131-0.012c-0.513-0.06-0.922-0.47-0.982-0.982C4.497,7.221,4.493,7.177,4.493,7.133
		s0.004-0.088,0.012-0.131C4.565,6.49,4.974,6.08,5.487,6.02C5.53,6.012,5.574,6.008,5.618,6.008S5.706,6.012,5.749,6.02
		c0.513,0.06,0.922,0.47,0.982,0.982C6.739,7.046,6.743,7.09,6.743,7.133S6.739,7.221,6.731,7.265
		c-0.06,0.513-0.47,0.922-0.982,0.982C5.706,8.255,5.662,8.258,5.618,8.258z"/>
	<path d="M11.993,5.258c-0.044,0-0.088-0.004-0.131-0.012c-0.513-0.06-0.922-0.47-0.982-0.982c-0.008-0.043-0.012-0.087-0.012-0.131
		s0.004-0.088,0.012-0.131c0.06-0.513,0.47-0.922,0.982-0.982c0.043-0.008,0.087-0.012,0.131-0.012s0.088,0.004,0.131,0.012
		c0.513,0.06,0.922,0.47,0.983,0.983c0.007,0.042,0.011,0.086,0.011,0.13s-0.004,0.088-0.011,0.13
		c-0.061,0.513-0.47,0.922-0.983,0.983C12.081,5.255,12.037,5.258,11.993,5.258z"/>
	<path d="M18.368,8.258c-0.044,0-0.088-0.004-0.131-0.011c-0.513-0.06-0.922-0.47-0.982-0.983c-0.008-0.042-0.011-0.086-0.011-0.13
		s0.004-0.088,0.011-0.13c0.06-0.513,0.47-0.923,0.982-0.983c0.043-0.008,0.087-0.011,0.131-0.011s0.088,0.004,0.131,0.011
		c0.513,0.06,0.922,0.47,0.983,0.983c0.007,0.042,0.011,0.086,0.011,0.13s-0.004,0.088-0.011,0.13
		c-0.061,0.513-0.47,0.923-0.983,0.983C18.456,8.255,18.412,8.258,18.368,8.258z"/>
</g>
</svg>
