<?xml version="1.0" encoding="utf-8"?>
<!-- Generator: Adobe Illustrator 22.1.0, SVG Export Plug-In . SVG Version: 6.00 Build 0)  -->
<svg version="1.1" id="Regular" xmlns="http://www.w3.org/2000/svg" xmlns:xlink="http://www.w3.org/1999/xlink" x="0px" y="0px"
	 viewBox="0 0 24 24" style="enable-background:new 0 0 24 24;" xml:space="preserve">
<title>christmas-tree-top</title>
<g>
	<path d="M14.231,10.052c-0.201,0-0.402-0.05-0.582-0.145L11.75,8.914L9.847,9.909c-0.177,0.093-0.377,0.142-0.576,0.142l0,0
		c-0.257,0-0.505-0.079-0.716-0.229c-0.383-0.271-0.579-0.744-0.5-1.207L8.42,6.503l-1.543-1.5C6.543,4.681,6.42,4.186,6.566,3.742
		c0.15-0.448,0.532-0.767,0.997-0.833L9.69,2.602l0.952-1.917c0.216-0.424,0.64-0.684,1.109-0.684c0.193,0,0.386,0.046,0.559,0.134
		c0.236,0.12,0.424,0.308,0.544,0.544l0.954,1.922l2.135,0.308c0.464,0.065,0.846,0.383,0.995,0.829
		c0.146,0.447,0.024,0.943-0.312,1.267l-1.544,1.498l0.364,2.111c0.079,0.464-0.118,0.938-0.501,1.208
		C14.737,9.972,14.489,10.052,14.231,10.052z M11.749,7.38c0.2,0,0.4,0.05,0.578,0.143l1.549,0.81L13.58,6.614
		c-0.067-0.4,0.065-0.806,0.355-1.087l1.25-1.212l-1.727-0.249c-0.4-0.057-0.747-0.307-0.928-0.669l-0.78-1.57l-0.778,1.567
		c-0.179,0.358-0.521,0.609-0.915,0.67L8.321,4.316l1.247,1.213c0.289,0.281,0.422,0.686,0.355,1.084L9.627,8.331l1.548-0.81
		C11.351,7.429,11.55,7.38,11.749,7.38z"/>
	<path d="M3.5,24.001c-0.267,0-0.516-0.144-0.65-0.376c-0.133-0.231-0.133-0.518,0-0.75l6.513-11.25
		c0.134-0.231,0.383-0.374,0.65-0.374c0.131,0,0.261,0.035,0.375,0.1c0.174,0.101,0.298,0.263,0.349,0.456
		c0.052,0.194,0.025,0.396-0.075,0.569L8.8,15.592l4.575-2.287l-0.537-0.928c-0.1-0.173-0.127-0.375-0.076-0.569
		c0.052-0.194,0.175-0.356,0.349-0.456c0.115-0.066,0.245-0.101,0.376-0.101c0.267,0,0.516,0.143,0.649,0.375l6.513,11.249
		c0.134,0.232,0.134,0.519,0.001,0.75c-0.134,0.232-0.383,0.375-0.65,0.375H3.5z M18.699,22.501l-2.214-3.824l-7.648,3.824H18.699z
		 M5.483,22.501l10.25-5.125l-1.604-2.771l-6.694,3.347l-2.633,4.549H5.483z"/>
</g>
</svg>
