<?xml version="1.0" encoding="utf-8"?>
<!-- Generator: Adobe Illustrator 22.1.0, SVG Export Plug-In . SVG Version: 6.00 Build 0)  -->
<svg version="1.1" id="Regular" xmlns="http://www.w3.org/2000/svg" xmlns:xlink="http://www.w3.org/1999/xlink" x="0px" y="0px"
	 viewBox="0 0 24 24" style="enable-background:new 0 0 24 24;" xml:space="preserve">
<title>christmas-tree-ornaments-1</title>
<g>
	<path d="M7.5,24c-2.938,0-5.484-2.185-5.93-5.084c-0.012-0.052-0.019-0.102-0.02-0.151C1.517,18.504,1.5,18.247,1.5,18
		c0-3.03,2.279-5.58,5.25-5.952V7.065L3.521,7.711L5.03,9.22c0.142,0.141,0.22,0.33,0.22,0.53s-0.078,0.389-0.22,0.53
		c-0.141,0.142-0.33,0.22-0.53,0.22s-0.389-0.078-0.53-0.22L1.754,8.064L0.897,8.236C0.848,8.245,0.799,8.25,0.75,8.25
		c-0.356,0-0.665-0.254-0.735-0.603c-0.039-0.196,0-0.396,0.111-0.563c0.111-0.167,0.281-0.28,0.477-0.319L4.028,6.08l2.079-3.466
		C6.242,2.39,6.488,2.25,6.751,2.25c0.135,0,0.269,0.037,0.385,0.107c0.355,0.213,0.47,0.675,0.257,1.029L6.016,5.682l4.645-0.929
		l1.419-2.839C12.207,1.659,12.465,1.5,12.751,1.5c0.115,0,0.231,0.027,0.334,0.079c0.37,0.185,0.521,0.636,0.336,1.006
		l-0.897,1.795l2.754-0.551l2.08-3.466C17.492,0.14,17.739,0,18.001,0c0.135,0,0.269,0.037,0.385,0.107
		c0.172,0.103,0.293,0.267,0.342,0.461c0.049,0.194,0.019,0.396-0.084,0.568l-1.378,2.296l1.269-0.254
		c0.045-0.014,0.092-0.023,0.139-0.028l1.174-0.235l1.288-1.845c0.14-0.201,0.37-0.321,0.615-0.321c0.154,0,0.302,0.047,0.429,0.135
		C22.344,1,22.454,1.172,22.489,1.369c0.035,0.197-0.009,0.396-0.124,0.561l-0.392,0.561l1.13-0.226
		c0.049-0.01,0.098-0.015,0.147-0.015c0.356,0,0.665,0.254,0.735,0.603c0.04,0.196,0,0.396-0.111,0.563
		c-0.111,0.167-0.281,0.28-0.477,0.32l-1.312,0.262l0.867,0.653c0.33,0.249,0.397,0.72,0.148,1.05C22.958,5.889,22.734,6,22.5,6
		c-0.164,0-0.32-0.052-0.451-0.151l-1.934-1.457L19.5,4.515v5.3c2.129,0.362,3.75,2.247,3.75,4.435c0,2.481-2.019,4.5-4.5,4.5
		s-4.5-2.019-4.5-4.5c0-2.188,1.621-4.073,3.75-4.435v-5l-2.604,0.521L17.03,6.97c0.142,0.141,0.22,0.33,0.22,0.53
		s-0.078,0.389-0.22,0.53S16.7,8.25,16.5,8.25s-0.389-0.078-0.53-0.22l-2.341-2.341L9.825,6.45l2.368,2.558
		c0.281,0.303,0.263,0.779-0.041,1.06c-0.139,0.129-0.32,0.2-0.509,0.2c-0.208,0-0.409-0.088-0.551-0.241L8.25,6.957v5.092
		C11.221,12.421,13.5,14.97,13.5,18c0,0.076-0.002,0.151-0.005,0.226c0.004,0.06,0.001,0.12-0.01,0.181
		C13.273,21.546,10.649,24,7.5,24z M3.186,19.27C3.744,21.159,5.511,22.5,7.5,22.5c1.909,0,3.612-1.234,4.24-3.002
		c-0.928-0.02-1.414-0.627-1.738-1.031c-0.319-0.398-0.411-0.469-0.609-0.469c-0.198,0-0.289,0.07-0.606,0.467
		c-0.328,0.411-0.825,1.033-1.783,1.033s-1.456-0.622-1.784-1.033c-0.313-0.392-0.41-0.467-0.605-0.467
		c-0.191,0-0.276,0.068-0.57,0.454C3.847,18.712,3.591,19.05,3.186,19.27z M9.393,16.498c0.954,0,1.451,0.62,1.78,1.03
		c0.32,0.399,0.412,0.47,0.613,0.47c0.074,0,0.147-0.02,0.214-0.055C11.969,15.488,9.962,13.5,7.5,13.5
		c-2.237,0-4.098,1.641-4.443,3.782c0.316-0.376,0.778-0.784,1.558-0.784c0.953,0,1.448,0.62,1.776,1.03
		c0.319,0.4,0.411,0.47,0.613,0.47c0.201,0,0.293-0.07,0.611-0.469C7.943,17.119,8.438,16.498,9.393,16.498z M15.846,15
		c0.335,1.308,1.517,2.25,2.904,2.25s2.569-0.942,2.904-2.25H15.846z M21.654,13.5c-0.335-1.308-1.517-2.25-2.904-2.25
		s-2.569,0.942-2.904,2.25H21.654z"/>
</g>
</svg>
