<?xml version="1.0" encoding="utf-8"?>
<!-- Generator: Adobe Illustrator 22.1.0, SVG Export Plug-In . SVG Version: 6.00 Build 0)  -->
<svg version="1.1" id="Regular" xmlns="http://www.w3.org/2000/svg" xmlns:xlink="http://www.w3.org/1999/xlink" x="0px" y="0px"
	 viewBox="0 0 24 24" style="enable-background:new 0 0 24 24;" xml:space="preserve">
<title>christmas-candle</title>
<g>
	<path d="M9,24c-1.241,0-2.25-1.009-2.25-2.25V12c0-0.323,0.206-0.609,0.513-0.712l9-3C16.339,8.263,16.419,8.25,16.5,8.25
		c0.158,0,0.31,0.049,0.438,0.141C17.134,8.532,17.25,8.759,17.25,9v12.75c0,1.241-1.009,2.25-2.25,2.25H9z M8.25,21.75
		c0,0.414,0.336,0.75,0.75,0.75h6c0.414,0,0.75-0.336,0.75-0.75v-2.709l-7.5,2.5V21.75z M8.25,19.959l7.5-2.5v-2.919l-7.5,2.5
		V19.959z M8.25,15.459l7.5-2.5v-2.919l-7.5,2.5V15.459z"/>
	<path d="M12,9C9.932,9,8.25,7.318,8.25,5.25c0-1.884,2.694-4.533,3.234-5.044C11.624,0.073,11.807,0,12,0
		c0.193,0,0.376,0.073,0.516,0.205c0.54,0.512,3.234,3.162,3.234,5.045C15.75,7.318,14.068,9,12,9z M12,1.812
		C10.841,3.024,9.75,4.49,9.75,5.25c0,1.241,1.009,2.25,2.25,2.25c1.241,0,2.25-1.009,2.25-2.25C14.25,4.49,13.159,3.024,12,1.812z"
		/>
</g>
</svg>
