<?xml version="1.0" encoding="utf-8"?>
<!-- Generator: Adobe Illustrator 22.1.0, SVG Export Plug-In . SVG Version: 6.00 Build 0)  -->
<svg version="1.1" id="Regular" xmlns="http://www.w3.org/2000/svg" xmlns:xlink="http://www.w3.org/1999/xlink" x="0px" y="0px"
	 viewBox="0 0 24 24" style="enable-background:new 0 0 24 24;" xml:space="preserve">
<title>christmas-snow-globe</title>
<g>
	<path d="M4.263,24c-0.446-0.001-0.876-0.132-1.245-0.378c-0.5-0.333-0.84-0.842-0.958-1.431c-0.118-0.589,0.001-1.189,0.334-1.689
		l1.175-1.763c-1.814-2.03-2.826-4.635-2.854-7.369C0.683,8.365,1.824,5.528,3.926,3.381c2.103-2.147,4.915-3.347,7.92-3.378
		l0.097,0c2.974,0,5.776,1.141,7.892,3.212c4.272,4.184,4.481,11.085,0.522,15.524l1.177,1.763c0.248,0.371,0.378,0.803,0.378,1.248
		c0,0.601-0.234,1.166-0.659,1.591C20.829,23.766,20.264,24,19.663,24H4.263z M3.642,21.334c-0.111,0.166-0.15,0.366-0.111,0.563
		c0.039,0.197,0.153,0.366,0.319,0.477C3.973,22.456,4.116,22.5,4.265,22.5h15.398c0.2,0,0.389-0.078,0.53-0.219
		c0.142-0.142,0.22-0.33,0.22-0.531c0-0.149-0.043-0.292-0.126-0.416L19.062,19.5H4.864L3.642,21.334z M19.002,18
		c3.689-3.846,3.601-9.977-0.216-13.714c-1.833-1.795-4.256-2.784-6.823-2.784l-0.101,0C9.258,1.53,6.82,2.57,4.998,4.431
		c-1.822,1.861-2.811,4.32-2.783,6.924C2.241,13.85,3.204,16.204,4.93,18h3.283v-3.439l-0.22,0.22C7.851,14.922,7.663,15,7.463,15
		s-0.389-0.078-0.53-0.22c-0.292-0.292-0.292-0.768,0-1.061l4.5-4.5C11.574,9.078,11.762,9,11.963,9c0.2,0,0.389,0.078,0.53,0.219
		l4.5,4.5c0.292,0.292,0.292,0.768,0,1.061c-0.142,0.142-0.33,0.22-0.53,0.22s-0.389-0.078-0.53-0.22l-0.22-0.22V18H19.002z
		 M14.213,18v-4.939l-2.25-2.25l-2.25,2.25V18H14.213z"/>
	<path d="M8.213,7.125c-0.044,0-0.088-0.004-0.131-0.012c-0.513-0.06-0.922-0.47-0.982-0.982C7.092,6.088,7.088,6.044,7.088,6
		s0.004-0.088,0.012-0.131c0.06-0.513,0.47-0.922,0.982-0.982c0.043-0.008,0.087-0.012,0.131-0.012s0.088,0.004,0.131,0.012
		c0.513,0.06,0.922,0.47,0.982,0.982C9.334,5.912,9.338,5.957,9.338,6S9.334,6.088,9.326,6.132c-0.06,0.513-0.47,0.922-0.982,0.982
		C8.301,7.121,8.256,7.125,8.213,7.125z"/>
	<path d="M5.213,12.375c-0.044,0-0.088-0.004-0.131-0.011c-0.513-0.061-0.922-0.47-0.982-0.982
		c-0.008-0.043-0.012-0.087-0.012-0.131s0.004-0.088,0.012-0.131c0.06-0.513,0.47-0.922,0.982-0.982
		c0.043-0.008,0.087-0.012,0.131-0.012s0.088,0.004,0.131,0.012c0.513,0.06,0.922,0.47,0.982,0.982
		c0.008,0.043,0.012,0.087,0.012,0.131s-0.004,0.088-0.012,0.131c-0.06,0.513-0.47,0.922-0.982,0.982
		C5.301,12.371,5.256,12.375,5.213,12.375z"/>
	<path d="M15.713,8.625c-0.044,0-0.088-0.004-0.131-0.011c-0.513-0.06-0.922-0.47-0.982-0.983c-0.008-0.042-0.011-0.086-0.011-0.13
		s0.004-0.088,0.011-0.13c0.06-0.513,0.47-0.923,0.982-0.983c0.043-0.008,0.087-0.011,0.131-0.011s0.088,0.004,0.131,0.011
		c0.513,0.06,0.922,0.47,0.983,0.983c0.007,0.042,0.011,0.086,0.011,0.13s-0.004,0.088-0.011,0.13
		c-0.061,0.513-0.47,0.923-0.983,0.983C15.801,8.621,15.757,8.625,15.713,8.625z"/>
	<path d="M12.713,5.625c-0.044,0-0.088-0.004-0.131-0.011c-0.513-0.06-0.922-0.47-0.982-0.982c-0.008-0.043-0.012-0.087-0.012-0.131
		s0.004-0.088,0.012-0.131c0.061-0.513,0.47-0.922,0.982-0.982c0.043-0.008,0.087-0.011,0.131-0.011s0.088,0.004,0.131,0.011
		c0.513,0.06,0.922,0.47,0.983,0.983c0.007,0.042,0.011,0.086,0.011,0.13s-0.004,0.088-0.011,0.13
		c-0.061,0.513-0.47,0.923-0.983,0.983C12.801,5.621,12.757,5.625,12.713,5.625z"/>
	<path d="M19.463,11.625c-0.044,0-0.088-0.004-0.131-0.011c-0.513-0.06-0.922-0.47-0.982-0.983c-0.008-0.042-0.011-0.086-0.011-0.13
		s0.004-0.088,0.011-0.13c0.06-0.513,0.47-0.923,0.982-0.983c0.043-0.008,0.087-0.011,0.131-0.011s0.088,0.004,0.131,0.011
		c0.513,0.06,0.922,0.47,0.983,0.983c0.007,0.042,0.011,0.086,0.011,0.13s-0.004,0.088-0.011,0.13
		c-0.061,0.513-0.47,0.923-0.983,0.983C19.551,11.621,19.507,11.625,19.463,11.625z"/>
</g>
</svg>
