<?xml version="1.0" encoding="utf-8"?>
<!-- Generator: Adobe Illustrator 22.1.0, SVG Export Plug-In . SVG Version: 6.00 Build 0)  -->
<svg version="1.1" id="Regular" xmlns="http://www.w3.org/2000/svg" xmlns:xlink="http://www.w3.org/1999/xlink" x="0px" y="0px"
	 viewBox="0 0 24 24" style="enable-background:new 0 0 24 24;" xml:space="preserve">
<title>circus-clown-1</title>
<g>
	<path d="M12.01,21.003c-0.551,0-1.106-0.056-1.65-0.167c-3.253-0.663-5.78-3.194-6.438-6.448c-0.082-0.405,0.181-0.802,0.586-0.884
		c0.051-0.01,0.1-0.015,0.148-0.015c0.356,0,0.665,0.253,0.736,0.601c0.538,2.663,2.606,4.733,5.268,5.276
		c0.445,0.091,0.899,0.137,1.349,0.137c0,0,0,0,0.001,0c3.193,0,5.974-2.272,6.612-5.403c0.071-0.348,0.38-0.6,0.735-0.6
		c0.049,0,0.099,0.005,0.15,0.015c0.406,0.082,0.668,0.479,0.585,0.885C19.311,18.226,15.912,21.003,12.01,21.003z"/>
	<path d="M12.006,16.5c-1.654,0-3-1.346-3-3s1.346-3,3-3c1.654,0,3,1.346,3,3S13.66,16.5,12.006,16.5z M12.006,12
		c-0.827,0-1.5,0.673-1.5,1.5s0.673,1.5,1.5,1.5s1.5-0.673,1.5-1.5S12.833,12,12.006,12z"/>
	<path d="M8.256,10.5c-0.414,0-0.75-0.336-0.75-0.75V9h-0.75c-0.414,0-0.75-0.336-0.75-0.75S6.342,7.5,6.756,7.5h0.75V6.75
		C7.506,6.337,7.842,6,8.256,6c0.414,0,0.75,0.336,0.75,0.75V7.5h0.75c0.414,0,0.75,0.336,0.75,0.75S10.17,9,9.756,9h-0.75v0.75
		C9.006,10.164,8.67,10.5,8.256,10.5z"/>
	<path d="M15.756,10.5c-0.414,0-0.75-0.336-0.75-0.75V9h-0.75c-0.414,0-0.75-0.336-0.75-0.75s0.336-0.75,0.75-0.75h0.75V6.75
		c0-0.414,0.336-0.75,0.75-0.75c0.414,0,0.75,0.336,0.75,0.75V7.5h0.75c0.414,0,0.75,0.336,0.75,0.75S17.67,9,17.256,9h-0.75v0.75
		C16.506,10.164,16.17,10.5,15.756,10.5z"/>
	<path d="M12.006,24c-6.203,0-11.25-5.047-11.25-11.25c0-1.254,0.206-2.484,0.614-3.664C1.272,9.015,1.18,8.94,1.094,8.861
		C0.433,8.253,0.047,7.424,0.009,6.526c-0.029-0.675,0.138-1.322,0.484-1.888c-0.777-1.187-0.609-2.811,0.432-3.809
		c0.56-0.537,1.298-0.833,2.078-0.833l0.058,0.001c0.572,0.012,1.113,0.181,1.582,0.49C5.166,0.169,5.761,0.001,6.38,0
		c1.27,0.052,2.379,0.74,2.977,1.818C10.226,1.607,11.115,1.5,12.006,1.5c0.897,0,1.794,0.109,2.669,0.323
		c0.586-1.062,1.701-1.766,2.922-1.822c0.644,0,1.247,0.168,1.771,0.487c0.485-0.318,1.06-0.49,1.645-0.49
		c0.777,0,1.513,0.295,2.073,0.831c0.578,0.554,0.906,1.3,0.924,2.1c0.013,0.609-0.16,1.206-0.491,1.71
		c0.826,1.358,0.59,3.128-0.6,4.222c-0.086,0.079-0.178,0.155-0.276,0.226c0.407,1.179,0.614,2.41,0.614,3.664
		C23.256,18.954,18.209,24,12.006,24z M12.006,3c-5.376,0-9.75,4.374-9.75,9.75s4.374,9.75,9.75,9.75s9.75-4.374,9.75-9.75
		S17.382,3,12.006,3z M2.991,1.496c-0.383,0-0.748,0.148-1.028,0.416c-0.288,0.276-0.452,0.649-0.46,1.049
		c-0.009,0.4,0.139,0.779,0.415,1.068C1.933,4.045,1.949,4.06,1.964,4.075c0.292,0.28,0.307,0.75,0.033,1.048
		C1.661,5.49,1.487,5.966,1.508,6.463C1.527,6.904,1.697,7.315,1.99,7.637c1.246-2.429,3.354-4.345,5.887-5.349
		C7.513,1.818,6.957,1.525,6.35,1.5C5.911,1.501,5.472,1.675,5.13,1.991c-0.139,0.128-0.32,0.199-0.508,0.199
		c-0.203,0-0.401-0.084-0.542-0.231C3.804,1.669,3.431,1.506,3.031,1.497L2.991,1.496z M16.15,2.294
		c2.526,1.006,4.629,2.92,5.872,5.343c0.641-0.705,0.65-1.798-0.007-2.513c-0.278-0.302-0.264-0.762,0.031-1.047
		c0.017-0.016,0.032-0.031,0.047-0.046c0.277-0.289,0.425-0.669,0.416-1.069c-0.009-0.4-0.172-0.772-0.461-1.049
		c-0.284-0.272-0.641-0.416-1.031-0.416l-0.037,0c-0.4,0.009-0.773,0.172-1.049,0.461c-0.141,0.147-0.338,0.231-0.542,0.231
		c-0.188,0-0.369-0.07-0.508-0.198c-0.34-0.314-0.781-0.488-1.243-0.491C17.045,1.53,16.504,1.825,16.15,2.294z"/>
</g>
</svg>
