<?xml version="1.0" encoding="utf-8"?>
<!-- Generator: Adobe Illustrator 22.1.0, SVG Export Plug-In . SVG Version: 6.00 Build 0)  -->
<svg version="1.1" id="Layer_1" xmlns="http://www.w3.org/2000/svg" xmlns:xlink="http://www.w3.org/1999/xlink" x="0px" y="0px"
	 viewBox="0 0 24 24" style="enable-background:new 0 0 24 24;" xml:space="preserve">
<title>clamps-expand</title>
<g>
	<path d="M0.75,24C0.336,24,0,23.664,0,23.25s0.336-0.75,0.75-0.75h4.289l5.523-3.375L4.859,15.64C4.638,15.505,4.5,15.26,4.5,15
		s0.138-0.505,0.359-0.64l5.703-3.485L5.039,7.5H3.75C2.509,7.5,1.5,6.491,1.5,5.25v-3C1.5,1.009,2.509,0,3.75,0h16.5
		c1.241,0,2.25,1.009,2.25,2.25v3c0,1.241-1.009,2.25-2.25,2.25h-1.289l-5.522,3.375l5.703,3.485C19.362,14.495,19.5,14.74,19.5,15
		s-0.138,0.505-0.359,0.64l-5.702,3.485l5.523,3.375h4.289c0.414,0,0.75,0.336,0.75,0.75S23.664,24,23.25,24H0.75z M16.084,22.5
		L12,20.004L7.916,22.5H16.084z M12,18.246L17.312,15L12,11.754L6.688,15L12,18.246z M12,9.996L16.084,7.5H7.916L12,9.996z
		 M3.75,1.5C3.336,1.5,3,1.836,3,2.25v3C3,5.664,3.336,6,3.75,6h16.5C20.664,6,21,5.664,21,5.25v-3c0-0.414-0.336-0.75-0.75-0.75
		H3.75z"/>
</g>
</svg>
