<?xml version="1.0" encoding="utf-8"?>
<!-- Generator: Adobe Illustrator 22.1.0, SVG Export Plug-In . SVG Version: 6.00 Build 0)  -->
<svg version="1.1" id="Layer_1" xmlns="http://www.w3.org/2000/svg" xmlns:xlink="http://www.w3.org/1999/xlink" x="0px" y="0px"
	 viewBox="0 0 24 24" style="enable-background:new 0 0 24 24;" xml:space="preserve">
<title>cleaning-vacuum</title>
<g>
	<path d="M14.251,24c-0.258,0-0.502-0.136-0.638-0.355c-0.138-0.224-0.15-0.496-0.033-0.73l1.5-3
		c0.128-0.256,0.385-0.415,0.671-0.415h2.25V2.25c0-0.414-0.336-0.75-0.75-0.75s-0.75,0.336-0.75,0.75v12
		c0,1.241-1.009,2.25-2.25,2.25s-2.25-1.009-2.25-2.25V7.5c0-1.654-1.346-3-3-3s-3,1.346-3,3v3.058c2.55,0.368,4.5,2.584,4.5,5.192
		v6c0,1.241-1.009,2.25-2.25,2.25h-6c-1.241,0-2.25-1.009-2.25-2.25v-6c0-2.607,1.95-4.824,4.5-5.192V7.5c0-2.481,2.019-4.5,4.5-4.5
		s4.5,2.019,4.5,4.5v6.75c0,0.414,0.336,0.75,0.75,0.75s0.75-0.336,0.75-0.75v-12c0-1.241,1.009-2.25,2.25-2.25
		s2.25,1.009,2.25,2.25V19.5h2.25c0.286,0,0.543,0.159,0.671,0.415l1.5,3c0.117,0.234,0.105,0.507-0.032,0.729
		C23.753,23.864,23.509,24,23.251,24H14.251z M22.038,22.5l-0.75-1.5h-5.073l-0.75,1.5H22.038z M1.501,21.75
		c0,0.414,0.336,0.75,0.75,0.75h6c0.414,0,0.75-0.336,0.75-0.75V21h-7.5V21.75z M9.001,19.5v-3.75c0-2.068-1.682-3.75-3.75-3.75
		s-3.75,1.682-3.75,3.75v3.75H9.001z"/>
	<circle cx="5.251" cy="15.75" r="1.125"/>
</g>
</svg>
