<?xml version="1.0" encoding="utf-8"?>
<!-- Generator: Adobe Illustrator 22.1.0, SVG Export Plug-In . SVG Version: 6.00 Build 0)  -->
<svg version="1.1" id="Layer_1" xmlns="http://www.w3.org/2000/svg" xmlns:xlink="http://www.w3.org/1999/xlink" x="0px" y="0px"
	 viewBox="0 0 24 24" style="enable-background:new 0 0 24 24;" xml:space="preserve">
<title>cleaning-cat</title>
<g>
	<path d="M5.25,24c-2.068,0-3.75-1.682-3.75-3.75s1.682-3.75,3.75-3.75h1.775c-0.106-0.167-0.196-0.344-0.27-0.53
		c-0.319-0.8-0.307-1.676,0.033-2.467l1.834-4.277C7.896,8.542,7.5,7.672,7.5,6.75v-6c0-0.286,0.167-0.552,0.425-0.676
		C8.026,0.026,8.138,0,8.25,0c0.17,0,0.336,0.058,0.469,0.165L12,2.79l3.281-2.625C15.414,0.058,15.581,0,15.75,0
		c0.112,0,0.224,0.026,0.324,0.074C16.333,0.198,16.5,0.463,16.5,0.75v6c0,0.921-0.396,1.79-1.12,2.475l1.832,4.28
		c0.174,0.404,0.262,0.833,0.262,1.274c0,0.619-0.174,1.211-0.498,1.721h1.774c2.068,0,3.75,1.682,3.75,3.75S20.818,24,18.75,24
		H5.25z M5.25,18C4.009,18,3,19.009,3,20.25s1.009,2.25,2.25,2.25h13.5c1.241,0,2.25-1.009,2.25-2.25S19.991,18,18.75,18H5.25z
		 M8.166,14.095c-0.182,0.424-0.188,0.892-0.018,1.319c0.17,0.427,0.497,0.763,0.92,0.945c0.216,0.093,0.445,0.14,0.68,0.14h4.502
		c0.461,0,0.894-0.179,1.219-0.504c0.326-0.325,0.505-0.758,0.505-1.219c0-0.236-0.047-0.465-0.14-0.681l-1.727-4.033
		C13.46,10.35,12.74,10.5,12,10.5c-0.739,0-1.459-0.15-2.105-0.436L8.166,14.095z M9,6.75C9,7.991,10.346,9,12,9
		c0.727,0,1.429-0.202,1.981-0.568c0.034-0.029,0.072-0.056,0.112-0.079C14.678,7.922,15,7.354,15,6.75V2.311l-2.531,2.025
		C12.336,4.442,12.17,4.5,12,4.5s-0.336-0.058-0.469-0.164L9,2.311V6.75z"/>
	<path d="M12,22.5c-1.241,0-2.25-1.009-2.25-2.25S10.759,18,12,18c1.241,0,2.25,1.009,2.25,2.25S13.241,22.5,12,22.5z M12,19.5
		c-0.414,0-0.75,0.336-0.75,0.75S11.586,21,12,21s0.75-0.336,0.75-0.75S12.414,19.5,12,19.5z"/>
	<path d="M18.75,13.5c-0.414,0-0.75-0.336-0.75-0.75V9c0-1.654,1.346-3,3-3s3,1.346,3,3c0,0.414-0.336,0.75-0.75,0.75
		S22.5,9.414,22.5,9c0-0.827-0.673-1.5-1.5-1.5S19.5,8.173,19.5,9v3.75C19.5,13.164,19.164,13.5,18.75,13.5z"/>
	<path d="M0.75,4.5C0.336,4.5,0,4.164,0,3.75S0.336,3,0.75,3h3C4.164,3,4.5,3.336,4.5,3.75S4.164,4.5,3.75,4.5H0.75z"/>
	<path d="M0.75,9C0.336,9,0,8.664,0,8.25S0.336,7.5,0.75,7.5h4.5C5.664,7.5,6,7.836,6,8.25S5.664,9,5.25,9H0.75z"/>
	<path d="M0.75,13.5C0.336,13.5,0,13.164,0,12.75S0.336,12,0.75,12h3c0.414,0,0.75,0.336,0.75,0.75S4.164,13.5,3.75,13.5H0.75z"/>
</g>
</svg>
