<?xml version="1.0" encoding="utf-8"?>
<!-- Generator: Adobe Illustrator 22.1.0, SVG Export Plug-In . SVG Version: 6.00 Build 0)  -->
<svg version="1.1" id="Layer_1" xmlns="http://www.w3.org/2000/svg" xmlns:xlink="http://www.w3.org/1999/xlink" x="0px" y="0px"
	 viewBox="0 0 24 24" style="enable-background:new 0 0 24 24;" xml:space="preserve">
<title>cleaning-man</title>
<g>
	<path d="M7.5,6.938c-1.861,0-3.375-1.514-3.375-3.375S5.639,0.188,7.5,0.188s3.375,1.514,3.375,3.375S9.361,6.938,7.5,6.938z
		 M7.5,1.688c-1.034,0-1.875,0.841-1.875,1.875S6.466,5.438,7.5,5.438s1.875-0.841,1.875-1.875S8.534,1.688,7.5,1.688z"/>
	<path d="M7.5,23.814c-1.654,0-3-1.346-3-3v-3H2.25c-0.241,0-0.468-0.116-0.609-0.312c-0.14-0.194-0.179-0.447-0.103-0.676L3,12.442
		v-1.378c-0.001-1.336,0.718-2.581,1.875-3.25C4.989,7.749,5.119,7.714,5.25,7.714c0.267,0,0.516,0.144,0.65,0.375
		C6,8.262,6.027,8.464,5.975,8.658C5.923,8.852,5.799,9.013,5.625,9.114C4.931,9.514,4.5,10.262,4.5,11.063v1.5
		c0,0.081-0.013,0.161-0.039,0.238l-1.171,3.512H5.25c0.414,0,0.75,0.336,0.75,0.75v3.75c0,0.827,0.673,1.5,1.5,1.5
		s1.5-0.673,1.5-1.5v-3.75c0-0.414,0.336-0.75,0.75-0.75h1.5c0.414,0,0.75,0.336,0.75,0.75s-0.336,0.75-0.75,0.75H10.5v3
		C10.5,22.468,9.154,23.814,7.5,23.814z"/>
	<path d="M17.461,23.553c-0.214-0.013-0.413-0.118-0.545-0.287l-2.493-3.2c-0.828-1.065-0.838-2.523-0.064-3.593L7.849,9.964
		c-0.142-0.141-0.22-0.33-0.22-0.53s0.078-0.389,0.22-0.53c0.141-0.142,0.33-0.22,0.53-0.22s0.389,0.078,0.53,0.22l6.51,6.51
		c0.507-0.364,1.116-0.56,1.749-0.56c0.672,0,1.307,0.218,1.837,0.63l3.205,2.488c0.17,0.132,0.275,0.33,0.289,0.545
		c0.014,0.215-0.066,0.426-0.219,0.578l-4.242,4.241c-0.142,0.142-0.33,0.22-0.53,0.22C17.5,23.555,17.469,23.554,17.461,23.553z
		 M17.165,16.352c-0.402,0-0.779,0.156-1.062,0.438l-0.373,0.373c-0.534,0.534-0.587,1.385-0.124,1.982l1.971,2.53l3.041-3.041
		l-2.533-1.967C17.82,16.461,17.502,16.352,17.165,16.352z"/>
</g>
</svg>
