<?xml version="1.0" encoding="utf-8"?>
<!-- Generator: Adobe Illustrator 22.1.0, SVG Export Plug-In . SVG Version: 6.00 Build 0)  -->
<svg version="1.1" id="Layer_1" xmlns="http://www.w3.org/2000/svg" xmlns:xlink="http://www.w3.org/1999/xlink" x="0px" y="0px"
	 viewBox="0 0 24 24" style="enable-background:new 0 0 24 24;" xml:space="preserve">
<title>cleaning-vacuum-1</title>
<g>
	<path d="M19.874,24c-1.183,0-2.29-0.557-2.998-1.5h-3.752c-0.827,0-1.5-0.673-1.5-1.5v-4.5c-1.654,0-3-1.346-3-3V3
		c0-0.827-0.673-1.5-1.5-1.5s-1.5,0.673-1.5,1.5v16.5h1.5c0.286,0,0.543,0.159,0.671,0.414l1.5,3
		c0.117,0.234,0.105,0.507-0.033,0.73C9.124,23.867,8.886,24,8.624,24h-7.5c-0.262,0-0.5-0.133-0.638-0.355
		c-0.138-0.223-0.15-0.496-0.033-0.73l1.5-3C2.081,19.659,2.338,19.5,2.624,19.5h1.5V3c0-1.654,1.346-3,3-3s3,1.346,3,3v10.5
		c0,0.827,0.673,1.5,1.5,1.5v-3.747c0-2.895,2.355-5.25,5.25-5.25s5.25,2.355,5.25,5.25v5.999c0.943,0.708,1.5,1.814,1.5,2.998
		C23.624,22.318,21.942,24,19.874,24z M19.874,18c-1.241,0-2.25,1.009-2.25,2.25s1.009,2.25,2.25,2.25s2.25-1.009,2.25-2.25
		S21.115,18,19.874,18z M7.41,22.5L6.66,21H3.088l-0.75,1.5H7.41z M16.874,7.503c-2.068,0-3.75,1.682-3.75,3.75V21h3.078
		c-0.052-0.248-0.078-0.499-0.078-0.75c0-2.068,1.682-3.75,3.75-3.75c0.251,0,0.502,0.026,0.75,0.078v-5.325
		C20.624,9.185,18.942,7.503,16.874,7.503z"/>
</g>
</svg>
