<?xml version="1.0" encoding="utf-8"?>
<!-- Generator: Adobe Illustrator 22.1.0, SVG Export Plug-In . SVG Version: 6.00 Build 0)  -->
<svg version="1.1" id="Regular" xmlns="http://www.w3.org/2000/svg" xmlns:xlink="http://www.w3.org/1999/xlink" x="0px" y="0px"
	 viewBox="0 0 24 24" style="enable-background:new 0 0 24 24;" xml:space="preserve">
<title>climbing-sports</title>
<g>
	<path d="M9.757,6.001c-1.654,0-3-1.346-3-3s1.346-3,3-3s3,1.346,3,3S11.412,6.001,9.757,6.001z M9.757,1.501
		c-0.827,0-1.5,0.673-1.5,1.5s0.673,1.5,1.5,1.5s1.5-0.673,1.5-1.5S10.585,1.501,9.757,1.501z"/>
	<path d="M5.256,24.003c-0.35,0-0.688-0.08-1.005-0.239c-1.11-0.555-1.561-1.91-1.006-3.02l2.763-5.521v-3.227
		c-1.753-0.072-3.388-1.03-4.301-2.535L0.328,7.158c-0.618-1.053-0.277-2.426,0.76-3.062c0.355-0.218,0.761-0.333,1.174-0.333
		c0.176,0,0.353,0.021,0.526,0.062c0.585,0.14,1.08,0.499,1.394,1.011l1.381,2.3C5.699,7.36,5.947,7.5,6.21,7.501h5.047
		c2.478-0.003,4.497-2.022,4.5-4.501V2.251c0-1.241,1.009-2.25,2.25-2.25s2.25,1.009,2.25,2.25v0.75
		c-0.007,4.076-2.828,7.69-6.75,8.707v1.793h3.75c2.895,0,5.25-2.355,5.25-5.25v-7.5c0-0.414,0.336-0.75,0.75-0.75
		s0.75,0.336,0.75,0.75v7.5c0,3.722-3.028,6.75-6.75,6.75h-0.834c1.005,0.978,1.582,2.316,1.584,3.749v1.501
		c0,1.241-1.009,2.25-2.25,2.25s-2.25-1.009-2.25-2.25v-1.5c0-0.414-0.336-0.75-0.75-0.75H9.648L7.27,22.758
		c-0.269,0.538-0.731,0.938-1.301,1.128C5.738,23.963,5.497,24.003,5.256,24.003z M7.507,15.401c0,0.116-0.027,0.232-0.08,0.336
		l-2.842,5.678c-0.185,0.37-0.034,0.822,0.336,1.007c0.105,0.053,0.218,0.079,0.334,0.079c0.287,0,0.545-0.159,0.673-0.415
		l2.585-5.171c0.128-0.256,0.385-0.415,0.671-0.415h3.573c1.241,0,2.25,1.009,2.25,2.25v1.5c0,0.414,0.336,0.75,0.75,0.75
		s0.75-0.336,0.75-0.75v-1.5c-0.002-2.065-1.685-3.748-3.751-3.75H7.507V15.401z M12.007,13.501v-2.394
		c0-0.361,0.258-0.671,0.613-0.737c3.55-0.66,6.131-3.759,6.137-7.37V2.251c0-0.414-0.336-0.75-0.75-0.75s-0.75,0.336-0.75,0.75
		v0.75c-0.004,3.305-2.695,5.996-5.999,6H6.207c-0.785-0.002-1.523-0.42-1.929-1.089L2.9,5.615C2.799,5.45,2.634,5.331,2.439,5.285
		C2.381,5.271,2.322,5.263,2.263,5.263c-0.137,0-0.272,0.038-0.39,0.111c-0.346,0.212-0.46,0.669-0.255,1.019l1.373,2.295
		c0.677,1.115,1.91,1.81,3.218,1.813h0.548c0.414,0,0.75,0.336,0.75,0.75v2.25H12.007z"/>
	<path d="M11.257,24.001c-0.414,0-0.75-0.336-0.75-0.75v-3c0-0.414,0.336-0.75,0.75-0.75s0.75,0.336,0.75,0.75v3
		C12.007,23.665,11.671,24.001,11.257,24.001z"/>
</g>
</svg>
