<?xml version="1.0" encoding="utf-8"?>
<!-- Generator: Adobe Illustrator 22.1.0, SVG Export Plug-In . SVG Version: 6.00 Build 0)  -->
<svg version="1.1" id="Regular" xmlns="http://www.w3.org/2000/svg" xmlns:xlink="http://www.w3.org/1999/xlink" x="0px" y="0px"
	 viewBox="0 0 24 24" style="enable-background:new 0 0 24 24;" xml:space="preserve">
<title>clothes-design-button</title>
<g>
	<path d="M12,24C5.383,24,0,18.617,0,12C0,5.383,5.383,0,12,0c6.617,0,12,5.383,12,12C24,18.617,18.617,24,12,24z M12,1.5
		C6.21,1.5,1.5,6.21,1.5,12c0,5.79,4.71,10.5,10.5,10.5c5.79,0,10.5-4.71,10.5-10.5C22.5,6.21,17.79,1.5,12,1.5z"/>
	<path d="M15.75,18c-1.241,0-2.25-1.009-2.25-2.25c0-0.379,0.094-0.745,0.274-1.073L12,13.025l-1.774,1.652
		c0.18,0.329,0.274,0.694,0.274,1.073c0,1.241-1.009,2.25-2.25,2.25S6,16.991,6,15.75s1.009-2.25,2.25-2.25
		c0.293,0,0.584,0.058,0.855,0.17L10.899,12l-1.794-1.671C8.834,10.442,8.543,10.5,8.25,10.5C7.009,10.5,6,9.491,6,8.25
		S7.009,6,8.25,6s2.25,1.009,2.25,2.25c0,0.379-0.094,0.745-0.274,1.073L12,10.975l1.774-1.652C13.594,8.995,13.5,8.629,13.5,8.25
		C13.5,7.009,14.509,6,15.75,6S18,7.009,18,8.25s-1.009,2.25-2.25,2.25c-0.293,0-0.584-0.058-0.855-0.17L13.101,12l1.794,1.67
		c0.271-0.112,0.562-0.17,0.855-0.17c1.241,0,2.25,1.009,2.25,2.25S16.991,18,15.75,18z M15.75,15C15.336,15,15,15.336,15,15.75
		s0.336,0.75,0.75,0.75s0.75-0.336,0.75-0.75S16.164,15,15.75,15z M8.25,15c-0.414,0-0.75,0.336-0.75,0.75s0.336,0.75,0.75,0.75
		S9,16.164,9,15.75S8.664,15,8.25,15z M15.75,7.5C15.336,7.5,15,7.836,15,8.25S15.336,9,15.75,9s0.75-0.336,0.75-0.75
		S16.164,7.5,15.75,7.5z M8.25,7.5C7.836,7.5,7.5,7.836,7.5,8.25S7.836,9,8.25,9S9,8.664,9,8.25S8.664,7.5,8.25,7.5z"/>
</g>
</svg>
