<?xml version="1.0" encoding="utf-8"?>
<!-- Generator: Adobe Illustrator 22.1.0, SVG Export Plug-In . SVG Version: 6.00 Build 0)  -->
<svg version="1.1" id="Regular" xmlns="http://www.w3.org/2000/svg" xmlns:xlink="http://www.w3.org/1999/xlink" x="0px" y="0px"
	 viewBox="0 0 24 24" style="enable-background:new 0 0 24 24;" xml:space="preserve">
<title>clothes-design-sewing-machine</title>
<g>
	<path d="M3,24c-1.654,0-3-1.346-3-3s1.346-3,3-3h9.75c1.241,0,2.25-1.009,2.25-2.25v-4.5C15,10.009,13.991,9,12.75,9h-1.273
		l-2.061,1.374C9.292,10.457,9.148,10.5,9,10.5H7.5v3H9c0.414,0,0.75,0.336,0.75,0.75S9.414,15,9,15H7.5v0.75
		c0,0.414-0.336,0.75-0.75,0.75S6,16.164,6,15.75V10.5H3.75c-1.241,0-2.25-1.009-2.25-2.25v-6C1.5,1.009,2.509,0,3.75,0h16.5
		C22.318,0,24,1.682,24,3.75v16.5c0,2.068-1.682,3.75-3.75,3.75H3z M3,19.5c-0.827,0-1.5,0.673-1.5,1.5s0.673,1.5,1.5,1.5h17.25
		c1.241,0,2.25-1.009,2.25-2.25V3.75c0-1.241-1.009-2.25-2.25-2.25H7.5v5.25c0,0.414-0.336,0.75-0.75,0.75S6,7.164,6,6.75V1.5H3.75
		C3.336,1.5,3,1.836,3,2.25v6C3,8.664,3.336,9,3.75,9h5.023l2.061-1.374C10.958,7.543,11.102,7.5,11.25,7.5h1.5
		c2.068,0,3.75,1.682,3.75,3.75v4.5c0,2.068-1.682,3.75-3.75,3.75H3z"/>
	<path d="M18.75,7.5c-1.241,0-2.25-1.009-2.25-2.25S17.509,3,18.75,3S21,4.009,21,5.25S19.991,7.5,18.75,7.5z M18.75,4.5
		C18.336,4.5,18,4.836,18,5.25S18.336,6,18.75,6s0.75-0.336,0.75-0.75S19.164,4.5,18.75,4.5z"/>
</g>
</svg>
