<?xml version="1.0" encoding="utf-8"?>
<!-- Generator: Adobe Illustrator 22.1.0, SVG Export Plug-In . SVG Version: 6.00 Build 0)  -->
<svg version="1.1" id="Regular" xmlns="http://www.w3.org/2000/svg" xmlns:xlink="http://www.w3.org/1999/xlink" x="0px" y="0px"
	 viewBox="0 0 24 24" style="enable-background:new 0 0 24 24;" xml:space="preserve">
<title>clothes-design-thread</title>
<g>
	<path d="M0.75,24C0.336,24,0,23.664,0,23.25s0.336-0.75,0.75-0.75H3v-21H0.75C0.336,1.5,0,1.164,0,0.75S0.336,0,0.75,0h19.5
		C20.664,0,21,0.336,21,0.75S20.664,1.5,20.25,1.5H18v18h0.728c2.079,0,3.771-1.693,3.772-3.772v-1.019
		c0-1.016-0.455-1.963-1.249-2.597c-1.572-1.258-2.2-3.386-1.563-5.296l0.6-1.8c0.102-0.307,0.387-0.513,0.711-0.513
		c0.081,0,0.162,0.013,0.239,0.039c0.391,0.13,0.604,0.556,0.473,0.948l-0.6,1.8c-0.439,1.316-0.006,2.783,1.077,3.65
		C23.34,11.861,24,13.234,24,14.709v1.019C24,18.635,21.635,21,18.728,21H18v1.5h2.25c0.414,0,0.75,0.336,0.75,0.75
		S20.664,24,20.25,24H0.75z M16.5,22.5v-3h-12v3H16.5z M16.5,18v-3h-12v3H16.5z M16.5,13.5v-3h-12v3H16.5z M16.5,9V6h-12v3H16.5z
		 M16.5,4.5v-3h-12v3H16.5z"/>
</g>
</svg>
