<?xml version="1.0" encoding="utf-8"?>
<!-- Generator: Adobe Illustrator 22.1.0, SVG Export Plug-In . SVG Version: 6.00 Build 0)  -->
<svg version="1.1" id="Regular" xmlns="http://www.w3.org/2000/svg" xmlns:xlink="http://www.w3.org/1999/xlink" x="0px" y="0px"
	 viewBox="0 0 24 24" style="enable-background:new 0 0 24 24;" xml:space="preserve">
<title>clothes-design-tape-measure</title>
<g>
	<path d="M9.75,24C9.336,24,9,23.664,9,23.25c0,0,0-7.515,0.001-7.522c0.001-0.033,0.005-0.065,0.01-0.097
		c0.001-0.014,0.001-0.016,0.004-0.03c0.006-0.031,0.014-0.056,0.023-0.082c0.006-0.022,0.013-0.043,0.022-0.063
		c0.006-0.015,0.021-0.043,0.029-0.057c0.009-0.018,0.02-0.038,0.032-0.057C9.122,15.34,13.56,9,13.56,9H1.75
		C0.785,9,0,8.215,0,7.25v-5.5C0,0.785,0.785,0,1.75,0h21.5C23.664,0,24,0.336,24,0.75v7.5c0,0.009,0,0.018-0.001,0.026
		c-0.001,0.03-0.005,0.058-0.009,0.086c-0.001,0.016-0.003,0.027-0.006,0.043c-0.004,0.021-0.011,0.043-0.018,0.064
		c-0.009,0.03-0.016,0.051-0.024,0.072c-0.007,0.016-0.02,0.041-0.029,0.056c-0.006,0.013-0.02,0.039-0.038,0.066
		C23.873,8.667,19.44,15,19.44,15h3.81c0.414,0,0.75,0.336,0.75,0.75v7.5c0,0.414-0.336,0.75-0.75,0.75H9.75z M22.5,22.5v-6h-2.25
		v2.25c0,0.414-0.336,0.75-0.75,0.75s-0.75-0.336-0.75-0.75V16.5h-3v2.25c0,0.414-0.336,0.75-0.75,0.75s-0.75-0.336-0.75-0.75V16.5
		H10.5v6H22.5z M17.609,15l4.2-6h-6.419L17.609,15z M22.5,7.5v-6h-3v2.25c0,0.414-0.336,0.75-0.75,0.75S18,4.164,18,3.75V1.5h-3
		v2.25c0,0.414-0.336,0.75-0.75,0.75S13.5,4.164,13.5,3.75V1.5h-3v2.25c0,0.414-0.336,0.75-0.75,0.75S9,4.164,9,3.75V1.5H5.25v6
		H22.5z M1.75,1.5C1.612,1.5,1.5,1.612,1.5,1.75v5.5c0,0.138,0.112,0.25,0.25,0.25h2v-6H1.75z"/>
</g>
</svg>
