<?xml version="1.0" encoding="utf-8"?>
<!-- Generator: Adobe Illustrator 22.1.0, SVG Export Plug-In . SVG Version: 6.00 Build 0)  -->
<svg version="1.1" id="Regular" xmlns="http://www.w3.org/2000/svg" xmlns:xlink="http://www.w3.org/1999/xlink" x="0px" y="0px"
	 viewBox="0 0 24 24" style="enable-background:new 0 0 24 24;" xml:space="preserve">
<title>cocktail-shaker</title>
<g>
	<path d="M8.594,24c-1.151,0-2.112-0.86-2.239-2.001L5.007,9.833C5.005,9.821,5.004,9.804,5.004,9.789
		C5.002,9.775,5.002,9.766,5.002,9.75c0-2.558,1.463-4.904,3.748-6.043V2.25C8.75,1.009,9.759,0,11,0h1.5
		c1.241,0,2.25,1.009,2.25,2.25v1.455c2.287,1.138,3.752,3.485,3.752,6.045c0,0.011-0.001,0.027-0.002,0.041
		c0,0.014,0,0.025-0.002,0.04l-1.352,12.168C17.019,23.14,16.057,24,14.909,24H8.594z M7.845,21.833
		c0.042,0.38,0.363,0.667,0.745,0.667h6.318c0.383,0,0.703-0.287,0.745-0.667l1.26-11.333H6.59L7.845,21.833z M16.947,9
		c-0.367-2.554-2.576-4.5-5.195-4.5c-2.62,0-4.828,1.946-5.195,4.5H16.947z M11,1.5c-0.414,0-0.75,0.336-0.75,0.75v0.919
		C10.741,3.057,11.245,3,11.752,3c0.506,0,1.008,0.056,1.498,0.168V2.25c0-0.414-0.336-0.75-0.75-0.75H11z"/>
</g>
</svg>
