<?xml version="1.0" encoding="utf-8"?>
<!-- Generator: Adobe Illustrator 22.1.0, SVG Export Plug-In . SVG Version: 6.00 Build 0)  -->
<svg version="1.1" id="Regular" xmlns="http://www.w3.org/2000/svg" xmlns:xlink="http://www.w3.org/1999/xlink" x="0px" y="0px"
	 viewBox="0 0 24 24" style="enable-background:new 0 0 24 24;" xml:space="preserve">
<title>cocktail-glass</title>
<g>
	<path d="M8.251,24c-0.414,0-0.75-0.336-0.75-0.75s0.336-0.75,0.75-0.75h2.25v-8.283c-0.051-0.004-0.102-0.009-0.152-0.014
		c-4.24-0.427-7.627-3.814-8.054-8.054C2.215,5.323,2.82,4.587,3.644,4.506c0.046-0.005,0.093-0.007,0.14-0.007l1.753,0L4.245,1.914
		C4.117,1.659,3.86,1.5,3.574,1.5H0.751c-0.414,0-0.75-0.336-0.75-0.75S0.338,0,0.751,0h2.822c0.858,0,1.629,0.477,2.013,1.244
		l1.628,3.256l7.786,0c-0.004-0.88,0.249-1.729,0.741-2.476c0.661-1.004,1.674-1.691,2.851-1.933c0.3-0.062,0.606-0.093,0.91-0.093
		c2.124,0,3.978,1.511,4.407,3.593c0.501,2.431-1.069,4.816-3.5,5.317C20.112,8.969,19.806,9,19.501,9c-0.022,0-0.043,0-0.065,0
		c-0.567,1.239-1.424,2.347-2.49,3.218c-1.428,1.167-3.131,1.854-4.945,2.002V22.5h2.25c0.414,0,0.75,0.336,0.75,0.75
		S14.665,24,14.251,24H8.251z M3.791,5.999c0.353,3.534,3.175,6.356,6.709,6.712c0.251,0.025,0.506,0.038,0.757,0.038
		c3.072,0,5.881-1.929,6.991-4.8c0.243-0.63,0.4-1.285,0.467-1.95L15.916,6c-0.03,0.004-0.06,0.005-0.09,0.005
		S15.767,6.003,15.737,6l-8.961,0C6.768,6,6.759,6,6.752,6C6.744,6,6.735,6,6.727,5.999L3.791,5.999z M18.713,4.5
		c0.829,0.002,1.502,0.677,1.5,1.505c0,0.046-0.002,0.094-0.007,0.141c-0.045,0.443-0.122,0.883-0.232,1.317
		c0.044-0.007,0.088-0.015,0.132-0.024c1.621-0.334,2.668-1.924,2.334-3.545c-0.286-1.388-1.522-2.396-2.938-2.396
		c-0.203,0-0.407,0.021-0.607,0.062c-0.785,0.162-1.46,0.62-1.901,1.289c-0.329,0.5-0.497,1.065-0.495,1.651L18.713,4.5z"/>
</g>
</svg>
