<?xml version="1.0" encoding="utf-8"?>
<!-- Generator: Adobe Illustrator 22.1.0, SVG Export Plug-In . SVG Version: 6.00 Build 0)  -->
<svg version="1.1" id="Regular" xmlns="http://www.w3.org/2000/svg" xmlns:xlink="http://www.w3.org/1999/xlink" x="0px" y="0px"
	 viewBox="0 0 24 24" style="enable-background:new 0 0 24 24;" xml:space="preserve">
<title>coffee-pot</title>
<g>
	<path d="M13.875,6c-1.241,0-2.25-1.009-2.25-2.25s1.009-2.25,2.25-2.25s2.25,1.009,2.25,2.25S15.115,6,13.875,6z M13.875,3
		c-0.414,0-0.75,0.336-0.75,0.75s0.336,0.75,0.75,0.75s0.75-0.336,0.75-0.75S14.288,3,13.875,3z"/>
	<path d="M9.375,22.5c-0.368,0-0.679-0.263-0.74-0.626L8.49,21H8.012c-1.757,0-3.26-1.195-3.655-2.906L2.912,11.83
		c-0.13-0.562-0.465-1.047-0.944-1.367L0.709,9.624c-0.167-0.111-0.28-0.28-0.319-0.477c-0.039-0.197,0-0.396,0.111-0.563
		C0.64,8.375,0.873,8.25,1.125,8.25c0.148,0,0.292,0.044,0.416,0.126L2.8,9.215c0.799,0.533,1.358,1.342,1.574,2.278l1.445,6.264
		C6.056,18.783,6.957,19.5,8.011,19.5H8.24l-1.104-6.626c-0.002-0.014-0.004-0.033-0.005-0.05c-0.003-0.027-0.004-0.052-0.004-0.078
		c0-0.02,0.001-0.042,0.003-0.064c0.002-0.027,0.007-0.057,0.014-0.087c0.006-0.027,0.01-0.046,0.016-0.065
		c0.008-0.027,0.021-0.058,0.034-0.088c0.007-0.016,0.014-0.033,0.024-0.05c0.017-0.03,0.035-0.056,0.053-0.082
		c0.003-0.006,0.015-0.024,0.03-0.041c0.004-0.004,6.014-6.767,6.014-6.767c0.139-0.156,0.343-0.246,0.561-0.246
		s0.422,0.09,0.561,0.246c0,0,6.014,6.766,6.018,6.771c0.008,0.009,0.02,0.025,0.031,0.044c0.017,0.024,0.034,0.048,0.047,0.073
		c0.006,0.01,0.018,0.037,0.023,0.047c0.015,0.033,0.027,0.062,0.036,0.092c0.003,0.011,0.011,0.041,0.013,0.052
		c0.008,0.039,0.013,0.069,0.016,0.1c0.001,0.009,0.002,0.043,0.003,0.052c0,0.037-0.001,0.064-0.004,0.091
		c-0.001,0.016-0.003,0.035-0.005,0.048L20.51,13.5h0.865c1.241,0,2.25,1.009,2.25,2.25V21c0,0.414-0.336,0.75-0.75,0.75
		s-0.75-0.336-0.75-0.75v-5.25c0-0.414-0.336-0.75-0.75-0.75H20.26l-1.146,6.874c-0.06,0.363-0.371,0.626-0.74,0.626H9.375z
		 M17.74,21l1.25-7.5H8.76l1.25,7.5H17.74z M18.205,12l-4.33-4.871L9.545,12H18.205z"/>
</g>
</svg>
