<?xml version="1.0" encoding="utf-8"?>
<!-- Generator: Adobe Illustrator 22.1.0, SVG Export Plug-In . SVG Version: 6.00 Build 0)  -->
<svg version="1.1" id="Regular" xmlns="http://www.w3.org/2000/svg" xmlns:xlink="http://www.w3.org/1999/xlink" x="0px" y="0px"
	 viewBox="0 0 24 24" style="enable-background:new 0 0 24 24;" xml:space="preserve">
<title>coffee-machine-1</title>
<g>
	<path d="M2.25,24C1.009,24,0,22.991,0,21.75V2.25C0,1.009,1.009,0,2.25,0h19.5C22.991,0,24,1.009,24,2.25v3
		c0,1.241-1.009,2.25-2.25,2.25H9v15h3.129C12.044,22.261,12,22.009,12,21.75v-2.688c0-0.579-0.137-1.159-0.396-1.677l-1.025-2.05
		c-0.117-0.234-0.105-0.507,0.033-0.73c0.138-0.223,0.376-0.355,0.638-0.355h2.25c0.414,0,0.75,0.336,0.75,0.75
		s-0.336,0.75-0.75,0.75h-1.037l0.482,0.965c0.362,0.725,0.554,1.537,0.554,2.347v2.688c0,0.414,0.336,0.75,0.75,0.75h4.5
		c0.414,0,0.75-0.336,0.75-0.75v-6c-0.414,0-0.75-0.336-0.75-0.75s0.336-0.75,0.75-0.75h2.25c1.241,0,2.25,1.009,2.25,2.25V18
		c0,0.414-0.336,0.75-0.75,0.75S22.5,18.414,22.5,18v-1.5c0-0.414-0.336-0.75-0.75-0.75H21v6c0,0.259-0.044,0.511-0.129,0.75h2.379
		c0.414,0,0.75,0.336,0.75,0.75S23.664,24,23.25,24H2.25z M1.5,21.75c0,0.414,0.336,0.75,0.75,0.75H7.5V6.75
		C7.5,6.336,7.836,6,8.25,6h13.5c0.414,0,0.75-0.336,0.75-0.75V4.5H11.25C10.009,4.5,9,3.491,9,2.25V1.5H2.25
		C1.836,1.5,1.5,1.836,1.5,2.25V4.5h2.25c0.414,0,0.75,0.336,0.75,0.75S4.164,6,3.75,6H1.5v1.5h2.25c0.414,0,0.75,0.336,0.75,0.75
		S4.164,9,3.75,9H1.5v1.5h2.25c0.414,0,0.75,0.336,0.75,0.75S4.164,12,3.75,12H1.5V21.75z M10.5,2.25C10.5,2.664,10.836,3,11.25,3
		H22.5V2.25c0-0.414-0.336-0.75-0.75-0.75H10.5V2.25z"/>
	<path d="M16.5,14.25c-1.241,0-2.25-1.009-2.25-2.25c0-0.957,1.142-2.715,1.633-3.426C16.019,8.377,16.25,8.26,16.5,8.26
		s0.481,0.117,0.617,0.314C17.608,9.285,18.75,11.043,18.75,12C18.75,13.241,17.741,14.25,16.5,14.25z M16.5,10.392
		c-0.489,0.823-0.75,1.424-0.75,1.608c0,0.414,0.336,0.75,0.75,0.75s0.75-0.336,0.75-0.75C17.25,11.816,16.99,11.215,16.5,10.392z"
		/>
</g>
</svg>
