<?xml version="1.0" encoding="utf-8"?>
<!-- Generator: Adobe Illustrator 22.1.0, SVG Export Plug-In . SVG Version: 6.00 Build 0)  -->
<svg version="1.1" id="Regular" xmlns="http://www.w3.org/2000/svg" xmlns:xlink="http://www.w3.org/1999/xlink" x="0px" y="0px"
	 viewBox="0 0 24 24" style="enable-background:new 0 0 24 24;" xml:space="preserve">
<title>coffee-jar</title>
<g>
	<path d="M4.929,24c-0.033,0-0.067-0.002-0.099-0.007C3.704,23.842,2.904,22.843,3,21.715V11.25c0-2.44,1.084-4.7,2.792-5.887
		L4.476,3.565C4.457,3.54,4.441,3.514,4.426,3.488C3.996,2.72,4.005,1.731,4.451,0.97C4.811,0.354,5.391,0,6.04,0h11.92
		c0.649,0,1.229,0.354,1.59,0.97c0.446,0.761,0.455,1.75,0.024,2.519c-0.016,0.028-0.031,0.051-0.047,0.074l-1.318,1.801
		C19.916,6.55,21,8.81,21,11.25v10.465c0.096,1.128-0.704,2.127-1.829,2.278C19.137,23.998,19.104,24,19.071,24H4.929z M19.011,22.5
		c0.316-0.063,0.527-0.347,0.493-0.671c-0.003-0.03-0.004-0.054-0.004-0.079v-10.5C19.5,8.355,17.722,6,15.536,6H8.464
		C6.278,6,4.5,8.355,4.5,11.25v10.5c0,0.026-0.001,0.052-0.004,0.077c-0.034,0.326,0.176,0.61,0.493,0.673H19.011z M15.536,4.5
		c0.439,0,0.876,0.065,1.303,0.195l1.444-1.974c0.177-0.347,0.111-0.756-0.028-0.993C18.205,1.643,18.101,1.5,17.96,1.5H6.04
		c-0.141,0-0.245,0.143-0.295,0.228C5.606,1.965,5.54,2.373,5.717,2.721l1.444,1.974C7.588,4.565,8.025,4.5,8.464,4.5H15.536z"/>
	<path d="M10.656,19.937c-1.223,0-2.331-0.435-3.12-1.224c-0.945-0.945-1.368-2.284-1.19-3.769c0.17-1.418,0.875-2.811,1.985-3.92
		c1.283-1.283,2.949-2.02,4.57-2.02c1.223,0,2.331,0.435,3.12,1.224c0.337,0.337,0.612,0.735,0.816,1.183
		c0.005,0.009,0.027,0.055,0.029,0.058c0.009,0.02,0.019,0.044,0.027,0.07c0.83,1.988,0.161,4.549-1.668,6.379
		C13.942,19.201,12.277,19.937,10.656,19.937z M8.673,17.726c0.51,0.469,1.194,0.717,1.985,0.717c1.22,0,2.499-0.578,3.506-1.586
		c1.227-1.227,1.806-2.892,1.502-4.245l-1.759,0.271c-0.763,0.124-1.33,0.753-1.376,1.529l-0.008,0.194
		c-0.089,1.492-1.175,2.696-2.64,2.934L8.673,17.726z M12.898,10.498c-1.22,0-2.498,0.578-3.506,1.586
		c-0.873,0.874-1.426,1.953-1.556,3.039c-0.051,0.424-0.033,0.829,0.053,1.207l1.761-0.271c0.763-0.124,1.33-0.753,1.376-1.529
		l0.008-0.194c0.089-1.492,1.174-2.696,2.64-2.934l1.21-0.186C14.374,10.746,13.69,10.498,12.898,10.498z"/>
</g>
</svg>
