<?xml version="1.0" encoding="utf-8"?>
<!-- Generator: Adobe Illustrator 22.1.0, SVG Export Plug-In . SVG Version: 6.00 Build 0)  -->
<svg version="1.1" id="Layer_1" xmlns="http://www.w3.org/2000/svg" xmlns:xlink="http://www.w3.org/1999/xlink" x="0px" y="0px"
	 viewBox="0 0 24 24" style="enable-background:new 0 0 24 24;" xml:space="preserve">
<title>color-drop-off</title>
<g>
	<path d="M22.5,23.742c-0.2,0-0.389-0.078-0.53-0.22l-3.464-3.464c-0.088,0.12-0.178,0.237-0.27,0.35
		c-0.028,0.042-0.06,0.081-0.096,0.116c-1.719,2.044-4.229,3.217-6.89,3.217c-4.963,0-9-4.037-9-9c0-2.123,0.663-4.151,1.919-5.863
		l1.336-1.822L0.97,2.522c-0.142-0.141-0.22-0.33-0.22-0.53s0.078-0.389,0.22-0.53C1.111,1.32,1.3,1.242,1.5,1.242
		s0.389,0.078,0.53,0.22l4.372,4.372l3.638-4.961c0.091-0.124,0.2-0.233,0.324-0.323c0.258-0.189,0.564-0.289,0.885-0.289
		c0.478,0,0.93,0.229,1.212,0.613l5.871,8.005c1.256,1.712,1.919,3.739,1.919,5.863c0,0.239-0.011,0.487-0.034,0.758
		c0,0.018-0.003,0.046-0.005,0.061c-0.1,1.113-0.403,2.184-0.9,3.181l3.72,3.72c0.142,0.142,0.22,0.33,0.22,0.53
		s-0.078,0.389-0.22,0.53S22.7,23.742,22.5,23.742z M5.379,9.766C4.313,11.219,3.75,12.94,3.75,14.742c0,4.135,3.365,7.5,7.5,7.5
		c1.638,0,3.201-0.527,4.494-1.5H12c-0.414,0-0.75-0.336-0.75-0.75s0.336-0.75,0.75-0.75h5.243c0.064-0.085,0.126-0.172,0.187-0.259
		L6.578,8.13L5.379,9.766z M18.178,17.609c0.184-0.442,0.324-0.899,0.42-1.368H18c-0.414,0-0.75-0.336-0.75-0.75
		s0.336-0.75,0.75-0.75h0.75c0-1.037-0.185-2.045-0.55-3h-3.95c-0.414,0-0.75-0.336-0.75-0.75s0.336-0.75,0.75-0.75h3.194
		c-0.104-0.166-0.212-0.325-0.323-0.475L15.27,7.242H12c-0.414,0-0.75-0.336-0.75-0.75s0.336-0.75,0.75-0.75h2.17L11.25,1.76
		L11.25,1.385l0,0.375c0,0-3.774,5.147-3.774,5.147L18.178,17.609z"/>
</g>
</svg>
