<?xml version="1.0" encoding="utf-8"?>
<!-- Generator: Adobe Illustrator 22.1.0, SVG Export Plug-In . SVG Version: 6.00 Build 0)  -->
<svg version="1.1" id="Layer_1" xmlns="http://www.w3.org/2000/svg" xmlns:xlink="http://www.w3.org/1999/xlink" x="0px" y="0px"
	 viewBox="0 0 24 24" style="enable-background:new 0 0 24 24;" xml:space="preserve">
<title>color-painting-palette</title>
<g>
	<path d="M14.093,23.988c-3.661,0-7.582-1.628-9.989-4.148c-4.421-4.506-4.409-11.835,0.03-16.334
		c2.234-2.234,5.31-3.514,8.443-3.514c0.146,0,0.292,0.003,0.438,0.008c2.976,0.109,5.643,1.359,7.509,3.52
		c2.136,2.474,3.015,4.496,2.689,6.181c-0.393,2.03-2.343,3.036-4.063,3.923c-1.237,0.638-2.404,1.24-2.351,1.934
		c0.086,1.105,0.694,1.516,2.245,1.516c0.379,0,0.783-0.025,1.092-0.047c0.318-0.023,0.594-0.042,0.843-0.042
		c0.43,0,0.91,0.052,1.211,0.442c0.12,0.155,0.297,0.487,0.135,0.968c-0.963,2.853-3.015,4.703-5.935,5.351
		C15.67,23.907,14.898,23.988,14.093,23.988z M12.586,1.492c-2.743,0-5.436,1.119-7.387,3.071
		C1.334,8.479,1.326,14.865,5.182,18.796c2.146,2.246,5.633,3.695,8.888,3.695c0,0,0,0,0.001,0c0.701,0,1.371-0.07,1.992-0.208
		c1.541-0.342,3.548-1.281,4.618-3.787c-0.149,0.008-0.304,0.019-0.44,0.028c-0.365,0.026-0.774,0.054-1.207,0.054c0,0,0,0,0,0
		c-2.321,0-3.576-0.973-3.73-2.892c0-0.004-0.001-0.009-0.001-0.013c-0.129-1.687,1.543-2.549,3.16-3.382
		c1.487-0.767,3.024-1.559,3.278-2.875c0.227-1.172-0.586-2.871-2.352-4.916c-1.59-1.842-3.873-2.908-6.428-3.002
		C12.836,1.494,12.711,1.492,12.586,1.492z"/>
	<path d="M7.219,15.571c-1.252,0-2.27-1.018-2.27-2.27s1.018-2.27,2.27-2.27s2.27,1.018,2.27,2.27S8.47,15.571,7.219,15.571z
		 M7.219,12.531c-0.425,0-0.77,0.345-0.77,0.77s0.345,0.77,0.77,0.77s0.77-0.345,0.77-0.77S7.643,12.531,7.219,12.531z"/>
	<path d="M10.979,20.406c-1.252,0-2.27-1.018-2.27-2.27s1.018-2.27,2.27-2.27s2.27,1.018,2.27,2.27S12.23,20.406,10.979,20.406z
		 M10.979,17.366c-0.425,0-0.77,0.345-0.77,0.77s0.345,0.77,0.77,0.77s0.77-0.345,0.77-0.77S11.403,17.366,10.979,17.366z"/>
	<path d="M14.615,8.174c-1.252,0-2.27-1.018-2.27-2.27s1.018-2.27,2.27-2.27s2.27,1.018,2.27,2.27S15.866,8.174,14.615,8.174z
		 M14.615,5.134c-0.425,0-0.77,0.345-0.77,0.77s0.345,0.77,0.77,0.77s0.77-0.345,0.77-0.77S15.039,5.134,14.615,5.134z"/>
	<path d="M8.169,9.786c-1.252,0-2.27-1.018-2.27-2.27s1.018-2.27,2.27-2.27c1.252,0,2.27,1.018,2.27,2.27S9.42,9.786,8.169,9.786z
		 M8.169,6.746c-0.425,0-0.77,0.345-0.77,0.77s0.345,0.77,0.77,0.77c0.425,0,0.77-0.345,0.77-0.77S8.593,6.746,8.169,6.746z"/>
</g>
</svg>
