<?xml version="1.0" encoding="utf-8"?>
<!-- Generator: Adobe Illustrator 22.1.0, SVG Export Plug-In . SVG Version: 6.00 Build 0)  -->
<svg version="1.1" id="Layer_1" xmlns="http://www.w3.org/2000/svg" xmlns:xlink="http://www.w3.org/1999/xlink" x="0px" y="0px"
	 viewBox="0 0 24 24" style="enable-background:new 0 0 24 24;" xml:space="preserve">
<title>color-picker-3</title>
<g>
	<path d="M6.928,17.997c-0.385,0-0.747-0.148-1.02-0.418L4.92,16.59c-0.559-0.564-0.56-1.48-0.003-2.043l1.3-1.304l0.264-1.824
		c0.15-1.048,0.645-2.038,1.395-2.788l4.889-4.89l-1.44-1.44c-0.142-0.141-0.22-0.33-0.22-0.53s0.078-0.389,0.22-0.53
		c0.141-0.142,0.33-0.22,0.53-0.22s0.389,0.078,0.53,0.22l1.44,1.44l1.439-1.44C16.066,0.441,17.129,0,18.26,0
		s2.195,0.441,2.995,1.241c1.651,1.651,1.651,4.338,0,5.99l-1.44,1.439l1.44,1.441c0.142,0.141,0.22,0.33,0.22,0.53
		s-0.078,0.389-0.22,0.53s-0.33,0.22-0.53,0.22s-0.389-0.078-0.53-0.22l-1.441-1.441l-4.893,4.887
		c-0.749,0.749-1.739,1.245-2.789,1.395L9.25,16.275l-1.299,1.301C7.677,17.848,7.314,17.997,6.928,17.997z M6.928,16.478
		l1.437-1.44c0.114-0.114,0.264-0.19,0.424-0.212l2.069-0.3c0.731-0.105,1.421-0.449,1.942-0.971l4.893-4.886l-3.866-3.866
		l-4.889,4.89c-0.522,0.522-0.867,1.211-0.971,1.941l-0.3,2.071c-0.023,0.159-0.098,0.309-0.211,0.422l-1.437,1.441L6.928,16.478z
		 M18.754,7.609l1.441-1.439c1.066-1.066,1.066-2.802,0-3.868c-0.516-0.516-1.203-0.8-1.934-0.8c-0.732,0-1.419,0.284-1.934,0.8
		l-1.439,1.44L18.754,7.609z"/>
	<path d="M9.885,13.361c-0.2,0-0.389-0.078-0.53-0.22c-0.292-0.292-0.292-0.768,0-1.061l4.435-4.435
		c0.142-0.142,0.33-0.22,0.53-0.22s0.389,0.078,0.53,0.22c0.142,0.141,0.22,0.33,0.22,0.53s-0.078,0.389-0.22,0.53l-4.435,4.435
		C10.274,13.283,10.085,13.361,9.885,13.361z"/>
	<path d="M3.746,24.001c-0.601,0-1.167-0.235-1.591-0.659c-0.686-0.686-0.855-1.73-0.421-2.598l1.342-2.679
		c0.128-0.255,0.385-0.414,0.671-0.414s0.543,0.159,0.671,0.414l1.342,2.679c0.434,0.868,0.265,1.912-0.421,2.598
		C4.903,23.77,4.342,24.001,3.746,24.001L3.746,24.001z M3.075,21.415c-0.145,0.289-0.088,0.637,0.141,0.866
		c0.142,0.142,0.33,0.22,0.53,0.22c0.2,0,0.389-0.078,0.53-0.219c0.23-0.234,0.285-0.58,0.141-0.867l-0.671-1.34L3.075,21.415z"/>
</g>
</svg>
