<?xml version="1.0" encoding="utf-8"?>
<!-- Generator: Adobe Illustrator 22.1.0, SVG Export Plug-In . SVG Version: 6.00 Build 0)  -->
<svg version="1.1" id="Layer_1" xmlns="http://www.w3.org/2000/svg" xmlns:xlink="http://www.w3.org/1999/xlink" x="0px" y="0px"
	 viewBox="0 0 24 24" style="enable-background:new 0 0 24 24;" xml:space="preserve">
<title>color-brush-2</title>
<g>
	<path d="M2.509,23.827c-0.551,0-1.106-0.048-1.65-0.143c-0.275-0.047-0.499-0.242-0.585-0.507c-0.086-0.262-0.02-0.55,0.172-0.75
		c0.008-0.009,1.221-1.379,1.354-4.723c-0.025-1.18,0.45-2.369,1.303-3.239c0.853-0.796,1.948-1.227,3.094-1.227
		c0.398,0,0.793,0.052,1.175,0.155L17.561,1.409c0.061-0.071,0.123-0.138,0.187-0.203c0.666-0.666,1.551-1.032,2.493-1.032
		c0.941,0,1.825,0.365,2.489,1.029c0.067,0.068,0.132,0.138,0.194,0.21c0.609,0.715,0.903,1.625,0.828,2.563
		c-0.075,0.938-0.511,1.79-1.227,2.399L10.548,16.621c0.376,1.482-0.02,3.064-1.06,4.181C7.68,22.725,5.137,23.827,2.509,23.827z
		 M2.269,22.323c0.079,0.002,0.159,0.003,0.238,0.003c2.217,0,4.362-0.929,5.885-2.55c1.067-1.145,1.066-2.941-0.002-4.088
		c-0.564-0.606-1.365-0.953-2.196-0.953c-0.762,0-1.488,0.285-2.044,0.804c-0.552,0.564-0.867,1.363-0.851,2.18
		C3.211,19.955,2.699,21.447,2.269,22.323z M8.866,13.953c0.448,0.313,0.834,0.704,1.142,1.156l2.347-2.008l-1.495-1.495
		L8.866,13.953z M13.499,12.122l8.052-6.888c0.412-0.351,0.662-0.84,0.705-1.378c0.043-0.538-0.126-1.061-0.476-1.472
		c-0.035-0.042-0.072-0.082-0.111-0.12c-0.381-0.381-0.889-0.591-1.429-0.591c-0.541,0-1.048,0.21-1.429,0.591
		c-0.037,0.037-0.073,0.076-0.108,0.117l-6.868,8.078L13.499,12.122z"/>
</g>
</svg>
