<?xml version="1.0" encoding="utf-8"?>
<!-- Generator: Adobe Illustrator 22.1.0, SVG Export Plug-In . SVG Version: 6.00 Build 0)  -->
<svg version="1.1" id="Layer_1" xmlns="http://www.w3.org/2000/svg" xmlns:xlink="http://www.w3.org/1999/xlink" x="0px" y="0px"
	 viewBox="0 0 24 24" style="enable-background:new 0 0 24 24;" xml:space="preserve">
<title>color-tube-painting</title>
<g>
	<path d="M9.16,24.001c-0.036,0-0.072-0.002-0.109-0.008c-2.373-0.35-4.601-1.18-6.623-2.467c-1.714-1.072-1.866-2.642-1.255-3.722
		c0.458-0.81,1.351-1.334,2.275-1.334c0.426,0,0.849,0.105,1.257,0.312c0.257,0.131,0.501,0.2,0.704,0.2
		c0.214,0,0.369-0.073,0.474-0.224c0.147-0.21,0.168-0.566-0.049-0.783c-1.363-1.095-2.813-2.106-4.31-3.006
		c-0.957-0.59-1.526-1.607-1.527-2.724V10.07c-0.001-0.62,0.166-1.23,0.482-1.764c0.618-1.042,1.757-1.69,2.973-1.69
		c0.616,0,1.223,0.167,1.755,0.482c1.251,0.737,2.56,1.51,3.555,2.102c2.07,1.23,2.109,1.254,2.032,1.769
		c-0.028,0.186-0.188,0.32-0.37,0.32c-0.018,0-0.037-0.001-0.056-0.004l-0.154-0.023l-0.095,0.122
		c-0.074,0.095-0.184,0.145-0.296,0.145c-0.075,0-0.151-0.022-0.217-0.069c-0.122-0.085-1.543-0.937-5.163-3.07
		C4.143,8.21,3.8,8.116,3.452,8.116c-0.688,0-1.332,0.366-1.681,0.955c-0.179,0.302-0.273,0.647-0.273,0.998v0.177
		c0,0.592,0.302,1.132,0.807,1.443c1.559,0.937,3.073,1.994,4.495,3.138l0.039,0.034c0.762,0.705,0.881,1.889,0.276,2.756
		c-0.386,0.553-1.007,0.87-1.704,0.87c-0.441,0-0.907-0.124-1.385-0.367c-0.189-0.096-0.381-0.145-0.571-0.145
		c-0.397,0-0.78,0.223-0.975,0.567c-0.326,0.577-0.046,1.218,0.75,1.715c1.848,1.176,3.879,1.933,6.041,2.251
		c0.198,0.029,0.373,0.134,0.493,0.295c0.12,0.161,0.169,0.359,0.14,0.557C9.848,23.726,9.529,24.001,9.16,24.001z"/>
	<path d="M13.577,21.864c-0.1,0-0.197-0.02-0.289-0.058l-1.375-0.573c-0.308-0.128-0.496-0.449-0.457-0.781l0.527-4.447
		c-0.439-0.63-0.53-1.439-0.234-2.151L16.938,1.39c0.35-0.842,1.167-1.386,2.082-1.386c0.291,0,0.576,0.056,0.846,0.167
		c0.003,0.001,2.755,1.147,2.755,1.147c1.138,0.482,1.677,1.8,1.204,2.938l-5.188,12.464c-0.294,0.704-0.929,1.207-1.681,1.343
		l-2.792,3.519C14.021,21.761,13.807,21.864,13.577,21.864z M13.342,20.204l1.94-2.445l-1.903-0.789l-0.367,3.097L13.342,20.204z
		 M13.134,14.431c-0.158,0.38,0.021,0.819,0.4,0.979l2.751,1.14c0.085,0.034,0.177,0.052,0.271,0.052
		c0.301,0,0.581-0.185,0.696-0.461l0.288-0.692l-4.118-1.714L13.134,14.431z M18.117,14.065l3.458-8.309l-4.117-1.713L14,12.352
		L18.117,14.065z M22.152,4.372l0.288-0.693c0.158-0.379-0.022-0.818-0.4-0.978l-2.745-1.143c-0.087-0.035-0.181-0.054-0.278-0.054
		c-0.306,0-0.579,0.181-0.695,0.462l-0.288,0.692L22.152,4.372z"/>
</g>
</svg>
