<?xml version="1.0" encoding="utf-8"?>
<!-- Generator: Adobe Illustrator 22.1.0, SVG Export Plug-In . SVG Version: 6.00 Build 0)  -->
<svg version="1.1" id="Layer_1" xmlns="http://www.w3.org/2000/svg" xmlns:xlink="http://www.w3.org/1999/xlink" x="0px" y="0px"
	 viewBox="0 0 24 24" style="enable-background:new 0 0 24 24;" xml:space="preserve">
<title>color-brush</title>
<g>
	<path d="M2.25,24c-0.262,0-0.5-0.133-0.638-0.355c-0.138-0.223-0.15-0.496-0.033-0.73c0.929-1.858,1.42-3.938,1.421-6.015V16.5
		c-0.827,0-1.5-0.673-1.5-1.5v-2.25C1.5,10.682,3.182,9,5.25,9h2.927c0.035,0,0.071-0.004,0.106-0.01
		c0.291-0.058,0.481-0.343,0.423-0.634C8.403,6.842,8.25,5.293,8.25,3.75C8.25,1.682,9.932,0,12,0c2.068,0,3.75,1.682,3.75,3.75
		c0,1.539-0.153,3.085-0.454,4.595c-0.001,0.004-0.001,0.009-0.002,0.013c-0.007,0.033-0.01,0.068-0.01,0.103
		C15.284,8.758,15.526,9,15.823,9h2.927c2.068,0,3.75,1.682,3.75,3.75V15c0,0.827-0.673,1.5-1.5,1.5v0.4
		c0.001,2.077,0.492,4.157,1.421,6.015c0.117,0.234,0.105,0.507-0.032,0.729C22.252,23.864,22.008,24,21.75,24H2.25z M20.591,22.5
		c-0.714-1.773-1.09-3.697-1.091-5.6v-0.4h-15v0.4c-0.001,1.903-0.377,3.827-1.09,5.6H13.5v-2.25c0-0.414,0.336-0.75,0.75-0.75
		S15,19.836,15,20.25v2.25h1.5v-3c0-0.414,0.336-0.75,0.75-0.75S18,19.086,18,19.5v3H20.591z M5.25,10.5
		C4.009,10.5,3,11.509,3,12.75V15h18v-2.25c0-1.241-1.009-2.25-2.25-2.25h-2.927c-1.124,0-2.039-0.915-2.039-2.039
		c0-0.134,0.013-0.269,0.04-0.401c0.282-1.416,0.426-2.867,0.426-4.311c0-1.24-1.009-2.25-2.25-2.25c-1.241,0-2.25,1.009-2.25,2.25
		c0,1.444,0.144,2.895,0.427,4.311c0.107,0.533-0.001,1.077-0.303,1.53c-0.302,0.454-0.763,0.762-1.296,0.869
		c-0.132,0.026-0.266,0.04-0.4,0.04H5.25z"/>
</g>
</svg>
