<?xml version="1.0" encoding="utf-8"?>
<!-- Generator: Adobe Illustrator 22.1.0, SVG Export Plug-In . SVG Version: 6.00 Build 0)  -->
<svg version="1.1" id="Layer_1" xmlns="http://www.w3.org/2000/svg" xmlns:xlink="http://www.w3.org/1999/xlink" x="0px" y="0px"
	 viewBox="0 0 24 24" style="enable-background:new 0 0 24 24;" xml:space="preserve">
<title>compass-directions</title>
<g>
	<path d="M12,24C5.383,24,0,18.617,0,12C0,5.383,5.383,0,12,0c6.617,0,12,5.383,12,12C24,18.617,18.617,24,12,24z M12,1.5
		C6.21,1.5,1.5,6.21,1.5,12c0,5.79,4.71,10.5,10.5,10.5c5.79,0,10.5-4.71,10.5-10.5C22.5,6.21,17.79,1.5,12,1.5z"/>
	<path d="M7.24,18.38c-0.178,0-0.354-0.029-0.521-0.086c-0.409-0.139-0.739-0.429-0.93-0.817c-0.191-0.387-0.219-0.826-0.08-1.235
		l2.516-7.544c0.009-0.027,0.02-0.052,0.032-0.077C8.263,8.608,8.271,8.591,8.28,8.574c0.027-0.05,0.061-0.098,0.1-0.14
		c0.006-0.007,0.014-0.015,0.022-0.022c0.033-0.034,0.07-0.065,0.11-0.092C8.517,8.315,8.536,8.303,8.542,8.3
		C8.582,8.275,8.62,8.256,8.658,8.241c0.015-0.007,0.03-0.013,0.044-0.017l7.54-2.519c0.165-0.056,0.339-0.084,0.517-0.084
		c0.178,0,0.354,0.029,0.521,0.086c0.843,0.287,1.296,1.206,1.011,2.05l-2.497,7.49c-0.061,0.25-0.247,0.453-0.49,0.534
		l-7.548,2.516C7.593,18.351,7.418,18.38,7.24,18.38z M7.13,16.721c-0.011,0.034-0.01,0.065,0.005,0.094
		c0.014,0.029,0.037,0.049,0.067,0.059c0.012,0.004,0.025,0.006,0.038,0.006s0.026-0.002,0.038-0.006l6.401-2.134l-4.416-4.416
		L7.13,16.721z M14.736,13.676l2.132-6.397c0.022-0.065-0.011-0.132-0.072-0.153c-0.012-0.004-0.025-0.006-0.038-0.006
		c-0.013,0-0.026,0.002-0.037,0.006l-6.398,2.137L14.736,13.676z"/>
</g>
</svg>
