<?xml version="1.0" encoding="utf-8"?>
<!-- Generator: Adobe Illustrator 22.1.0, SVG Export Plug-In . SVG Version: 6.00 Build 0)  -->
<svg version="1.1" id="Layer_1" xmlns="http://www.w3.org/2000/svg" xmlns:xlink="http://www.w3.org/1999/xlink" x="0px" y="0px"
	 viewBox="0 0 24 24" style="enable-background:new 0 0 24 24;" xml:space="preserve">
<title>compass-2</title>
<g>
	<path d="M12,24C5.383,24,0,18.617,0,12C0,5.383,5.383,0,12,0c6.617,0,12,5.383,12,12C24,18.617,18.617,24,12,24z M13.5,17.25
		c0.069,0,0.138,0.01,0.204,0.028c0.399,0.114,0.63,0.53,0.516,0.927l-1.213,4.244c4.951-0.479,8.962-4.491,9.442-9.442
		l-4.244,1.213C18.138,14.24,18.069,14.25,18,14.25c-0.333,0-0.629-0.224-0.721-0.544c-0.114-0.398,0.118-0.814,0.515-0.927
		L20.52,12l-2.726-0.779c-0.193-0.055-0.352-0.182-0.45-0.357c-0.097-0.175-0.12-0.378-0.065-0.57C17.37,9.974,17.667,9.75,18,9.75
		c0.069,0,0.138,0.01,0.206,0.029l4.245,1.213c-0.479-4.951-4.491-8.962-9.442-9.442l1.213,4.244
		c0.055,0.193,0.032,0.395-0.065,0.57c-0.097,0.175-0.257,0.302-0.45,0.357C13.638,6.74,13.569,6.75,13.5,6.75
		c-0.333,0-0.629-0.224-0.721-0.544L12,3.48l-0.779,2.726C11.13,6.526,10.833,6.75,10.5,6.75c-0.069,0-0.139-0.01-0.206-0.029
		c-0.398-0.114-0.629-0.53-0.515-0.927l1.213-4.244C6.042,2.03,2.03,6.042,1.55,10.991l4.244-1.213C5.861,9.76,5.93,9.75,6,9.75
		c0.333,0,0.63,0.224,0.721,0.544c0.114,0.398-0.117,0.814-0.515,0.927L3.48,12l2.726,0.779c0.398,0.114,0.629,0.53,0.515,0.927
		C6.63,14.026,6.333,14.25,6,14.25c-0.069,0-0.139-0.01-0.206-0.029L1.55,13.009c0.479,4.951,4.491,8.962,9.442,9.442l-1.213-4.244
		c-0.114-0.398,0.118-0.814,0.515-0.927c0.067-0.019,0.136-0.029,0.206-0.029c0.333,0,0.63,0.224,0.721,0.544L12,20.52l0.779-2.726
		C12.87,17.474,13.167,17.25,13.5,17.25z"/>
	<path d="M15.772,16.767c-0.169,0-0.336-0.043-0.483-0.126L12,14.815l-3.29,1.827c-0.145,0.081-0.312,0.125-0.482,0.125
		c-0.17,0-0.338-0.043-0.485-0.125c-0.232-0.129-0.4-0.342-0.472-0.597c-0.072-0.255-0.041-0.523,0.088-0.755L9.185,12L7.358,8.71
		C7.19,8.413,7.19,8.039,7.361,7.737c0.175-0.312,0.508-0.505,0.867-0.505c0.17,0,0.338,0.044,0.486,0.128L12,9.185l3.29-1.828
		c0.145-0.082,0.313-0.125,0.483-0.125c0.172,0,0.342,0.045,0.491,0.129c0.477,0.271,0.645,0.879,0.375,1.355L14.815,12l1.827,3.29
		c0.166,0.299,0.166,0.67-0.001,0.969C16.466,16.572,16.133,16.767,15.772,16.767z M10.699,11.636c0.127,0.228,0.127,0.5,0,0.728
		l-1.17,2.107l2.108-1.17c0.11-0.062,0.237-0.094,0.364-0.094s0.254,0.033,0.365,0.094l2.107,1.17l-1.17-2.107
		c-0.126-0.228-0.126-0.5,0-0.728l1.171-2.109l-2.108,1.171c-0.111,0.062-0.237,0.094-0.364,0.094s-0.253-0.033-0.364-0.094
		L9.528,9.528L10.699,11.636z"/>
</g>
</svg>
