<?xml version="1.0" encoding="utf-8"?>
<!-- Generator: Adobe Illustrator 22.1.0, SVG Export Plug-In . SVG Version: 6.00 Build 0)  -->
<svg version="1.1" id="Layer_1" xmlns="http://www.w3.org/2000/svg" xmlns:xlink="http://www.w3.org/1999/xlink" x="0px" y="0px"
	 viewBox="0 0 24 24" style="enable-background:new 0 0 24 24;" xml:space="preserve">
<title>compass-west</title>
<g>
	<path d="M17.217,17.499c-0.325-0.016-0.599-0.234-0.688-0.543L15.75,14.23l-0.779,2.726c-0.088,0.309-0.363,0.527-0.683,0.543
		c-0.006,0-0.026,0.001-0.032,0.001c-0.312,0-0.587-0.185-0.702-0.471l-0.856-2.141C12.234,13.731,12,12.513,12,11.267V9.25
		c0-0.414,0.336-0.75,0.75-0.75s0.75,0.336,0.75,0.75v2.017c0,1.054,0.198,2.085,0.59,3.063l0.042,0.104l0.897-3.14
		c0.092-0.32,0.388-0.544,0.721-0.544s0.629,0.224,0.721,0.544l0.897,3.14l0.042-0.103c0.392-0.979,0.591-2.01,0.59-3.063V9.25
		c0-0.414,0.336-0.75,0.75-0.75s0.75,0.336,0.75,0.75v2.017c0,1.246-0.235,2.464-0.698,3.621l-0.856,2.141
		c-0.114,0.286-0.388,0.472-0.696,0.472C17.245,17.5,17.221,17.5,17.217,17.499z"/>
	<path d="M15.75,20.5c-2.246,0-4.343-0.889-5.913-2.505L0.395,12.91C0.151,12.78,0,12.527,0,12.25c0-0.276,0.151-0.529,0.394-0.66
		l9.443-5.084C11.407,4.889,13.504,4,15.75,4C20.299,4,24,7.701,24,12.25S20.299,20.5,15.75,20.5z M15.75,5.5
		C12.028,5.5,9,8.528,9,12.25S12.028,19,15.75,19s6.75-3.028,6.75-6.75S19.472,5.5,15.75,5.5z M8.111,15.362
		C7.709,14.378,7.5,13.321,7.5,12.25c0-1.07,0.209-2.128,0.611-3.112L2.332,12.25L8.111,15.362z"/>
</g>
</svg>
