<?xml version="1.0" encoding="utf-8"?>
<!-- Generator: Adobe Illustrator 22.1.0, SVG Export Plug-In . SVG Version: 6.00 Build 0)  -->
<svg version="1.1" id="Layer_1" xmlns="http://www.w3.org/2000/svg" xmlns:xlink="http://www.w3.org/1999/xlink" x="0px" y="0px"
	 viewBox="0 0 24 24" style="enable-background:new 0 0 24 24;" xml:space="preserve">
<title>compass-south-1</title>
<g>
	<path d="M12,18c-4.963,0-9-4.037-9-9s4.037-9,9-9s9,4.037,9,9S16.963,18,12,18z M12,1.5C7.865,1.5,4.5,4.865,4.5,9
		s3.365,7.5,7.5,7.5s7.5-3.365,7.5-7.5S16.135,1.5,12,1.5z"/>
	<path d="M12,13.5c-2.481,0-4.5-2.019-4.5-4.5S9.519,4.5,12,4.5c2.481,0,4.5,2.019,4.5,4.5S14.481,13.5,12,13.5z M12,6
		c-1.654,0-3,1.346-3,3s1.346,3,3,3c1.654,0,3-1.346,3-3S13.654,6,12,6z"/>
	<path d="M12,24c-0.2,0-0.389-0.078-0.53-0.22l-2.292-2.292c-0.142-0.142-0.22-0.33-0.22-0.53s0.078-0.389,0.22-0.53
		c0.142-0.142,0.33-0.22,0.53-0.22s0.389,0.078,0.53,0.22L12,22.189l1.741-1.741c0.142-0.142,0.33-0.22,0.53-0.22
		s0.389,0.078,0.53,0.22s0.22,0.33,0.22,0.53s-0.078,0.389-0.22,0.53L12.53,23.78C12.389,23.922,12.2,24,12,24z"/>
</g>
</svg>
