<?xml version="1.0" encoding="utf-8"?>
<!-- Generator: Adobe Illustrator 22.1.0, SVG Export Plug-In . SVG Version: 6.00 Build 0)  -->
<svg version="1.1" id="Regular" xmlns="http://www.w3.org/2000/svg" xmlns:xlink="http://www.w3.org/1999/xlink" x="0px" y="0px"
	 viewBox="0 0 24 24" style="enable-background:new 0 0 24 24;" xml:space="preserve">
<title>concert-dj</title>
<g>
	<path d="M12.001,10.5c-2.068,0-3.75-1.682-3.75-3.75S9.933,3,12.001,3s3.75,1.682,3.75,3.75S14.069,10.5,12.001,10.5z M12.001,4.5
		c-1.241,0-2.25,1.009-2.25,2.25S10.76,9,12.001,9s2.25-1.009,2.25-2.25S13.242,4.5,12.001,4.5z"/>
	<path d="M3.001,24C2.4,24,1.835,23.766,1.41,23.341s-0.659-0.99-0.659-1.591c0-0.219,0.032-0.437,0.095-0.647l1.35-4.5
		C2.483,15.645,3.35,15,4.351,15h2.458c0.368-2.55,2.584-4.5,5.192-4.5c2.607,0,4.824,1.95,5.192,4.5h2.458
		c1.001,0,1.868,0.645,2.155,1.604l1.35,4.5c0.173,0.575,0.111,1.184-0.174,1.713c-0.285,0.529-0.759,0.916-1.334,1.088
		C21.438,23.968,21.221,24,21.001,24H3.001z M4.351,16.5c-0.334,0-0.623,0.215-0.719,0.535l-1.35,4.5
		c-0.021,0.07-0.031,0.143-0.031,0.216c0,0.2,0.078,0.389,0.22,0.53C2.612,22.422,2.8,22.5,3.001,22.5h18
		c0.073,0,0.146-0.01,0.216-0.031c0.396-0.119,0.622-0.538,0.503-0.934l-1.35-4.5c-0.096-0.32-0.385-0.534-0.719-0.534H4.351z
		 M15.675,15c-0.352-1.712-1.892-3-3.674-3s-3.322,1.288-3.674,3H15.675z"/>
	<path d="M7.501,21.75c-1.682,0-3-0.988-3-2.25s1.318-2.25,3-2.25s3,0.988,3,2.25S9.183,21.75,7.501,21.75z M7.501,18.75
		c-0.845,0-1.5,0.403-1.5,0.75s0.655,0.75,1.5,0.75s1.5-0.403,1.5-0.75S8.346,18.75,7.501,18.75z"/>
	<path d="M16.501,21.75c-1.682,0-3-0.988-3-2.25s1.318-2.25,3-2.25s3,0.988,3,2.25S18.183,21.75,16.501,21.75z M16.501,18.75
		c-0.845,0-1.5,0.403-1.5,0.75s0.655,0.75,1.5,0.75s1.5-0.403,1.5-0.75S17.346,18.75,16.501,18.75z"/>
	<path d="M18.751,10.5c-0.827,0-1.5-0.673-1.5-1.5V6.75c0-2.895-2.355-5.25-5.25-5.25s-5.25,2.355-5.25,5.25V9
		c0,0.041-0.003,0.083-0.01,0.124C6.677,9.897,6.027,10.5,5.251,10.5c-1.654,0-3-1.346-3-3s1.346-3,3-3h0.386
		C6.591,1.797,9.114,0,12.001,0c2.887,0,5.41,1.797,6.364,4.5h0.386c1.654,0,3,1.346,3,3S20.405,10.5,18.751,10.5z M18.751,9
		c0.827,0,1.5-0.673,1.5-1.5S19.578,6,18.751,6V9z M5.251,6c-0.827,0-1.5,0.673-1.5,1.5S4.424,9,5.251,9V6z"/>
</g>
</svg>
