<?xml version="1.0" encoding="utf-8"?>
<!-- Generator: Adobe Illustrator 22.1.0, SVG Export Plug-In . SVG Version: 6.00 Build 0)  -->
<svg version="1.1" id="Regular" xmlns="http://www.w3.org/2000/svg" xmlns:xlink="http://www.w3.org/1999/xlink" x="0px" y="0px"
	 viewBox="0 0 24 24" style="enable-background:new 0 0 24 24;" xml:space="preserve">
<title>concert-couple-duet</title>
<g>
	<path d="M4.499,10.5c-2.068,0-3.75-1.682-3.75-3.75C0.749,4.682,2.432,3,4.499,3c0.414,0,0.75,0.336,0.75,0.75S4.913,4.5,4.5,4.5
		c-1.241,0-2.25,1.009-2.25,2.25C2.249,7.99,3.258,9,4.499,9c0.549,0,1.077-0.2,1.489-0.562C6.124,8.317,6.301,8.25,6.483,8.25
		c0.215,0,0.42,0.093,0.563,0.254c0.132,0.15,0.199,0.343,0.186,0.543C7.219,9.247,7.13,9.43,6.98,9.562
		C6.294,10.167,5.413,10.5,4.499,10.5L4.499,10.5z"/>
	<path d="M3,24c-0.377,0-0.697-0.282-0.744-0.657L1.587,18H0.75C0.336,18,0,17.664,0,17.25V15c0-2.481,2.019-4.5,4.5-4.5
		S9,12.519,9,15v2.25C9,17.664,8.663,18,8.25,18H7.412l-0.668,5.343C6.697,23.718,6.377,24,6,24H3z M5.337,22.5l0.668-5.343
		C6.052,16.782,6.372,16.5,6.75,16.5H7.5V15c0-1.654-1.346-3-3-3s-3,1.346-3,3v1.5h0.75c0.377,0,0.697,0.282,0.744,0.657L3.662,22.5
		H5.337z"/>
	<path d="M17.25,24c-0.368,0-0.679-0.264-0.74-0.627L15.864,19.5H14.25c-0.233,0-0.456-0.111-0.596-0.296
		c-0.141-0.184-0.188-0.428-0.127-0.653l1.134-4.134c0.647-1.947,1.635-3.918,4.089-3.918c2.454,0,3.438,1.961,4.077,3.879
		l1.146,4.173c0.062,0.224,0.014,0.469-0.127,0.653c-0.141,0.185-0.364,0.295-0.596,0.295h-1.615l-0.646,3.873
		C20.929,23.736,20.618,24,20.25,24H17.25z M19.614,22.5l0.646-3.873C20.32,18.264,20.631,18,21,18h1.267l-0.874-3.186
		C20.608,12.464,19.828,12,18.75,12c-1.079,0-1.859,0.467-2.655,2.853L15.233,18H16.5c0.368,0,0.679,0.264,0.74,0.627l0.646,3.873
		H19.614z"/>
	<path d="M18.75,10.5C16.682,10.5,15,8.818,15,6.75S16.682,3,18.75,3s3.75,1.682,3.75,3.75S20.817,10.5,18.75,10.5z M18.75,4.5
		c-1.241,0-2.25,1.009-2.25,2.25S17.509,9,18.75,9S21,7.991,21,6.75S19.99,4.5,18.75,4.5z"/>
	<path d="M9,7.5c-1.241,0-2.25-1.009-2.25-2.25S7.759,3,9,3c0.259,0,0.511,0.044,0.75,0.129V0.75C9.75,0.336,10.086,0,10.5,0
		s0.75,0.336,0.75,0.75v4.5C11.25,6.491,10.24,7.5,9,7.5z M9,4.5c-0.414,0-0.75,0.336-0.75,0.75S8.586,6,9,6s0.75-0.336,0.75-0.75
		S9.413,4.5,9,4.5z"/>
	<path d="M12,14.25c-1.241,0-2.25-1.009-2.25-2.25c0-1.241,1.009-2.25,2.25-2.25c0.259,0,0.511,0.044,0.75,0.129V7.5
		c0-0.414,0.336-0.75,0.75-0.75s0.75,0.336,0.75,0.75V12C14.25,13.241,13.24,14.25,12,14.25z M12,11.25
		c-0.414,0-0.75,0.336-0.75,0.75s0.336,0.75,0.75,0.75s0.75-0.336,0.75-0.75S12.413,11.25,12,11.25z"/>
</g>
</svg>
