<?xml version="1.0" encoding="utf-8"?>
<!-- Generator: Adobe Illustrator 22.1.0, SVG Export Plug-In . SVG Version: 6.00 Build 0)  -->
<svg version="1.1" id="Regular" xmlns="http://www.w3.org/2000/svg" xmlns:xlink="http://www.w3.org/1999/xlink" x="0px" y="0px"
	 viewBox="0 0 24 24" style="enable-background:new 0 0 24 24;" xml:space="preserve">
<title>concert-speakers</title>
<g>
	<path d="M1.25,24C0.561,24,0,23.439,0,22.75v-8c0-0.689,0.561-1.25,1.25-1.25H7c0.689,0,1.25,0.561,1.25,1.25v8
		C8.25,23.439,7.689,24,7,24H1.25z M6.75,22.5V15H1.5v7.5H6.75z"/>
	<path d="M17,24c-0.689,0-1.25-0.561-1.25-1.25v-8c0-0.689,0.561-1.25,1.25-1.25h5.75c0.689,0,1.25,0.561,1.25,1.25v8
		c0,0.689-0.561,1.25-1.25,1.25H17z M22.5,22.5V15h-5.25v7.5H22.5z"/>
	<path d="M19.875,20.25c-0.044,0-0.088-0.004-0.13-0.011c-0.513-0.06-0.923-0.47-0.983-0.983c-0.007-0.042-0.011-0.086-0.011-0.13
		s0.004-0.088,0.011-0.131c0.06-0.513,0.47-0.923,0.983-0.983C19.787,18.004,19.831,18,19.875,18s0.088,0.004,0.131,0.011
		c0.513,0.06,0.923,0.47,0.983,0.983C20.996,19.037,21,19.081,21,19.125s-0.004,0.088-0.011,0.131
		c-0.06,0.513-0.47,0.923-0.983,0.983C19.963,20.246,19.919,20.25,19.875,20.25z"/>
	<path d="M4.125,20.25c-0.044,0-0.088-0.004-0.13-0.011c-0.513-0.06-0.923-0.47-0.983-0.982C3.004,19.213,3,19.169,3,19.125
		s0.004-0.088,0.011-0.131c0.06-0.513,0.47-0.922,0.983-0.983C4.037,18.004,4.081,18,4.125,18s0.088,0.004,0.13,0.011
		c0.513,0.061,0.923,0.47,0.983,0.983c0.008,0.043,0.011,0.087,0.011,0.131s-0.004,0.088-0.011,0.131
		c-0.06,0.513-0.47,0.922-0.983,0.982C4.213,20.246,4.169,20.25,4.125,20.25z"/>
	<path d="M21.75,12C21.336,12,21,11.664,21,11.25V6H3v5.25C3,11.664,2.664,12,2.25,12S1.5,11.664,1.5,11.25V5.982
		C0.653,5.86,0,5.13,0,4.25v-2.5C0,0.785,0.785,0,1.75,0h20.5C23.215,0,24,0.785,24,1.75v2.5c0,0.88-0.653,1.61-1.5,1.732v5.268
		C22.5,11.664,22.164,12,21.75,12z M22.25,4.5c0.138,0,0.25-0.112,0.25-0.25v-2.5c0-0.138-0.112-0.25-0.25-0.25h-0.189l-3,3H22.25z
		 M15.223,4.5L12,1.738L8.777,4.5H15.223z M1.75,1.5C1.612,1.5,1.5,1.612,1.5,1.75v2.5c0,0.138,0.112,0.25,0.25,0.25h3.189l-3-3
		H1.75z M17.211,4.229L19.939,1.5h-5.912L17.211,4.229z M6.789,4.229L9.973,1.5H4.061L6.789,4.229z"/>
</g>
</svg>
