<?xml version="1.0" encoding="utf-8"?>
<!-- Generator: Adobe Illustrator 22.1.0, SVG Export Plug-In . SVG Version: 6.00 Build 0)  -->
<svg version="1.1" id="Regular" xmlns="http://www.w3.org/2000/svg" xmlns:xlink="http://www.w3.org/1999/xlink" x="0px" y="0px"
	 viewBox="0 0 24 24" style="enable-background:new 0 0 24 24;" xml:space="preserve">
<title>concert-rock</title>
<g>
	<path d="M11.182,24c-1.569,0-3.043-0.611-4.152-1.72c-1.093-1.092-1.72-2.605-1.719-4.152V6.75c0-1.241,1.009-2.25,2.25-2.25
		s2.25,1.009,2.25,2.25v1.629c0.239-0.085,0.491-0.129,0.75-0.129c0.563,0,1.091,0.206,1.5,0.575c0.409-0.37,0.937-0.575,1.5-0.575
		c0.259,0,0.511,0.044,0.75,0.129V3.75c0-1.241,1.009-2.25,2.25-2.25s2.25,1.009,2.25,2.25v9.69l1.221-0.976
		c0.403-0.323,0.91-0.501,1.428-0.501c0.701,0,1.353,0.313,1.79,0.859c0.04,0.049,0.079,0.103,0.116,0.158
		c0.514,0.773,0.514,1.769,0.002,2.54l-3.651,5.475c-0.098,0.144-0.215,0.311-0.349,0.477C18.08,23.078,16.16,24,14.1,24H11.182z
		 M7.561,6c-0.414,0-0.75,0.336-0.75,0.75v11.379c-0.001,1.151,0.466,2.277,1.28,3.09c0.825,0.826,1.923,1.281,3.09,1.281H14.1
		c1.603,0,3.096-0.718,4.098-1.969c0.102-0.127,0.196-0.261,0.275-0.377l3.645-5.467c0.177-0.266,0.176-0.61,0-0.876
		c-0.011-0.016-0.024-0.035-0.039-0.052c-0.151-0.189-0.377-0.297-0.619-0.297c-0.181,0-0.351,0.06-0.492,0.172l-2.439,1.951
		c-0.131,0.106-0.297,0.165-0.468,0.165c-0.112,0-0.225-0.026-0.326-0.075c-0.257-0.123-0.424-0.388-0.424-0.676V3.75
		c0-0.414-0.336-0.75-0.75-0.75s-0.75,0.336-0.75,0.75v9.75c0,1.241-1.009,2.25-2.25,2.25c-0.563,0-1.091-0.206-1.5-0.575
		c-0.409,0.37-0.937,0.575-1.5,0.575c-1.241,0-2.25-1.009-2.25-2.25V6.75C8.311,6.337,7.974,6,7.561,6z M13.561,9.75
		c-0.414,0-0.75,0.336-0.75,0.75v3c0,0.414,0.336,0.75,0.75,0.75s0.75-0.336,0.75-0.75v-3C14.311,10.087,13.974,9.75,13.561,9.75z
		 M10.561,9.75c-0.414,0-0.75,0.336-0.75,0.75v3c0,0.414,0.336,0.75,0.75,0.75s0.75-0.336,0.75-0.75v-3
		C11.311,10.087,10.974,9.75,10.561,9.75z"/>
	<path d="M3.061,7.5c-0.235,0-0.459-0.112-0.6-0.3l-2.25-3C0.039,3.971,0.012,3.671,0.14,3.415C0.268,3.159,0.525,3,0.811,3h1.5
		l-1.35-1.8C0.84,1.04,0.79,0.842,0.818,0.644C0.847,0.446,0.95,0.27,1.111,0.15C1.242,0.052,1.397,0,1.56,0
		c0.235,0,0.459,0.112,0.6,0.3l2.25,3c0.171,0.229,0.199,0.53,0.071,0.785C4.354,4.341,4.096,4.5,3.811,4.5h-1.5l1.35,1.8
		c0.248,0.331,0.181,0.802-0.15,1.05C3.38,7.448,3.224,7.5,3.061,7.5z"/>
</g>
</svg>
