<?xml version="1.0" encoding="utf-8"?>
<!-- Generator: Adobe Illustrator 22.1.0, SVG Export Plug-In . SVG Version: 6.00 Build 0)  -->
<svg version="1.1" id="Layer_1" xmlns="http://www.w3.org/2000/svg" xmlns:xlink="http://www.w3.org/1999/xlink" x="0px" y="0px"
	 viewBox="0 0 24 24" style="enable-background:new 0 0 24 24;" xml:space="preserve">
<title>construction-paper-home</title>
<g>
	<path d="M3,24c-1.241,0-2.25-1.009-2.25-2.25V2.25C0.75,1.009,1.759,0,3,0h11.379c0.316,0,0.624,0.066,0.915,0.196
		c0.005,0.002,0.02,0.009,0.025,0.012c0.24,0.109,0.461,0.262,0.65,0.451l6.622,6.622c0.189,0.189,0.343,0.411,0.456,0.659
		c0.002,0.004,0.01,0.021,0.011,0.025c0.126,0.281,0.192,0.589,0.192,0.906V21.75c0,1.241-1.009,2.25-2.25,2.25H3z M3,1.5
		c-0.414,0-0.75,0.336-0.75,0.75v19.5c0,0.414,0.336,0.75,0.75,0.75h18c0.414,0,0.75-0.336,0.75-0.75V9H16.5
		c-1.241,0-2.25-1.009-2.25-2.25V1.5H3z M15.75,6.75c0,0.414,0.336,0.75,0.75,0.75h4.189L15.75,2.561V6.75z"/>
	<path d="M9,19.5c-0.414,0-0.75-0.336-0.75-0.75v-4.099l-0.334,0.223C7.792,14.957,7.648,15,7.5,15
		c-0.252,0-0.485-0.125-0.624-0.334c-0.229-0.344-0.136-0.81,0.208-1.04l4.5-3C11.708,10.544,11.851,10.5,12,10.5
		s0.292,0.044,0.416,0.126l4.5,3c0.167,0.111,0.28,0.281,0.32,0.477c0.039,0.197,0,0.397-0.112,0.563
		C16.985,14.875,16.751,15,16.5,15c-0.149,0-0.292-0.044-0.416-0.126l-0.334-0.222v4.099c0,0.414-0.336,0.75-0.75,0.75H9z M14.25,18
		v-4.349l-2.25-1.5l-2.25,1.5V18H14.25z"/>
</g>
</svg>
