<?xml version="1.0" encoding="utf-8"?>
<!-- Generator: Adobe Illustrator 22.1.0, SVG Export Plug-In . SVG Version: 6.00 Build 0)  -->
<svg version="1.1" id="Layer_1" xmlns="http://www.w3.org/2000/svg" xmlns:xlink="http://www.w3.org/1999/xlink" x="0px" y="0px"
	 viewBox="0 0 24 24" style="enable-background:new 0 0 24 24;" xml:space="preserve">
<title>construction-house-1</title>
<g>
	<path d="M1.25,24C0.561,24,0,23.439,0,22.75v-2c0-0.689,0.561-1.25,1.25-1.25h1V18h-1C0.561,18,0,17.439,0,16.75v-2
		c0-0.689,0.561-1.25,1.25-1.25H11.5c0.689,0,1.25,0.561,1.25,1.25v1.75h1c0.689,0,1.25,0.561,1.25,1.25v2
		c0,0.689-0.561,1.25-1.25,1.25h-1v1.5h9c0.414,0,0.75-0.336,0.75-0.75v-3c0-0.414-0.336-0.75-0.75-0.75H16.5
		c-0.414,0-0.75-0.336-0.75-0.75s0.336-0.75,0.75-0.75h3v-6H15v3.75c0,0.414-0.336,0.75-0.75,0.75s-0.75-0.336-0.75-0.75V10.5h-12
		v0.75C1.5,11.664,1.164,12,0.75,12S0,11.664,0,11.25v-1.5c0-0.017,0.002-0.046,0.005-0.063c-0.001,0,0.001-0.017,0.004-0.035
		C0.014,9.604,0.026,9.556,0.041,9.51c0.002-0.006,0.01-0.03,0.012-0.036c0.02-0.051,0.046-0.099,0.077-0.145
		c0.006-0.01,0.013-0.02,0.02-0.029l6.75-9c0.009-0.012,0.021-0.026,0.033-0.038c0.026-0.03,0.053-0.057,0.083-0.083
		c0.002-0.002,0.008-0.007,0.008-0.007C7.159,0.061,7.328,0,7.5,0h11.25c0.414,0,0.75,0.336,0.75,0.75S19.164,1.5,18.75,1.5H15
		l2.25,3H21c0.414,0,0.75,0.336,0.75,0.75S21.414,6,21,6h-2.625l2.25,3h2.625C23.664,9,24,9.336,24,9.75s-0.336,0.75-0.75,0.75H21v6
		h0.75c1.241,0,2.25,1.009,2.25,2.25v3c0,1.241-1.009,2.25-2.25,2.25H1.25z M11.25,22.5V21H1.5v1.5H11.25z M13.5,19.5V18H3.75v1.5
		H13.5z M11.25,16.5V15H1.5v1.5H11.25z M18.75,9L16.5,6h-4.125l2.25,3H18.75z M12.75,9L7.5,2L2.25,9H12.75z M15.375,4.5l-2.25-3H9
		l2.25,3H15.375z"/>
</g>
</svg>
