<?xml version="1.0" encoding="utf-8"?>
<!-- Generator: Adobe Illustrator 22.1.0, SVG Export Plug-In . SVG Version: 6.00 Build 0)  -->
<svg version="1.1" id="Regular" xmlns="http://www.w3.org/2000/svg" xmlns:xlink="http://www.w3.org/1999/xlink" x="0px" y="0px"
	 viewBox="0 0 24 24" style="enable-background:new 0 0 24 24;" xml:space="preserve">
<title>cookie</title>
<g>
	<path d="M11.977,23.977c-6.451,0-11.71-5.052-11.971-11.502C-0.124,9.276,1,6.217,3.17,3.863c2.171-2.354,5.128-3.722,8.327-3.852
		c0.005,0,0.033-0.001,0.038-0.001c0.242,0,0.47,0.122,0.61,0.325c0.147,0.214,0.173,0.483,0.071,0.721
		c-0.162,0.377-0.245,0.776-0.244,1.187c0.001,0.8,0.313,1.553,0.88,2.118c0.566,0.565,1.318,0.876,2.117,0.876
		c0.648-0.002,1.286-0.22,1.798-0.614c0.131-0.1,0.293-0.155,0.457-0.155c0.114,0,0.229,0.027,0.331,0.077
		c0.258,0.127,0.419,0.385,0.419,0.673v0.025c0.001,1.651,1.345,2.994,2.996,2.994c0.473-0.002,0.946-0.12,1.365-0.342
		c0.108-0.057,0.229-0.086,0.35-0.086c0.097,0,0.192,0.019,0.283,0.055C23.176,7.95,23.333,8.12,23.4,8.331
		c0.329,1.026,0.518,2.094,0.562,3.172c0.13,3.2-0.994,6.258-3.165,8.612c-2.17,2.354-5.128,3.722-8.327,3.852
		C12.306,23.974,12.141,23.977,11.977,23.977L11.977,23.977z M10.518,1.603C8.126,1.938,5.924,3.089,4.273,4.88
		c-1.899,2.06-2.882,4.736-2.769,7.535c0.229,5.643,4.829,10.062,10.472,10.062c0.144,0,0.288-0.003,0.433-0.009
		c2.799-0.114,5.386-1.31,7.286-3.37c1.899-2.06,2.882-4.736,2.768-7.535c-0.027-0.673-0.12-1.344-0.275-1.999
		c-0.394,0.113-0.8,0.172-1.211,0.174c0,0-0.005,0-0.005,0c-2.032,0-3.818-1.399-4.341-3.325c-0.526,0.212-1.09,0.323-1.655,0.325
		c-1.205,0-2.333-0.467-3.183-1.314c-0.85-0.849-1.319-1.978-1.32-3.179C10.473,2.029,10.488,1.815,10.518,1.603z"/>
	<path d="M7.473,13.488c-1.654,0-3-1.346-3-3s1.346-3,3-3s3,1.346,3,3S9.127,13.488,7.473,13.488z M7.473,8.988
		c-0.827,0-1.5,0.673-1.5,1.5s0.673,1.5,1.5,1.5s1.5-0.673,1.5-1.5S8.3,8.988,7.473,8.988z"/>
	<path d="M14.223,19.488c-1.241,0-2.25-1.009-2.25-2.25s1.009-2.25,2.25-2.25s2.25,1.009,2.25,2.25S15.464,19.488,14.223,19.488z
		 M14.223,16.488c-0.414,0-0.75,0.336-0.75,0.75s0.336,0.75,0.75,0.75s0.75-0.336,0.75-0.75S14.637,16.488,14.223,16.488z"/>
	<circle cx="7.1" cy="16.863" r="1.125"/>
	<path d="M13.096,11.239c-0.236,0-0.463-0.073-0.656-0.212c-0.244-0.176-0.405-0.436-0.453-0.733
		c-0.049-0.295,0.021-0.592,0.196-0.836c0.175-0.244,0.434-0.405,0.73-0.454c0.064-0.01,0.125-0.015,0.185-0.015
		c0.554,0,1.021,0.397,1.11,0.945c0.048,0.296-0.022,0.594-0.197,0.838c-0.176,0.244-0.436,0.405-0.733,0.453
		C13.218,11.234,13.157,11.239,13.096,11.239z"/>
	<path d="M19.097,14.238c-0.236,0-0.463-0.073-0.656-0.212c-0.244-0.176-0.405-0.436-0.453-0.733
		c-0.099-0.611,0.317-1.19,0.929-1.29c0.063-0.01,0.123-0.015,0.182-0.015c0.554,0,1.021,0.397,1.11,0.944
		c0.1,0.612-0.317,1.191-0.929,1.291C19.218,14.234,19.157,14.238,19.097,14.238z"/>
</g>
</svg>
