<?xml version="1.0" encoding="utf-8"?>
<!-- Generator: Adobe Illustrator 22.1.0, SVG Export Plug-In . SVG Version: 6.00 Build 0)  -->
<svg version="1.1" id="Layer_1" xmlns="http://www.w3.org/2000/svg" xmlns:xlink="http://www.w3.org/1999/xlink" x="0px" y="0px"
	 viewBox="0 0 24 24" style="enable-background:new 0 0 24 24;" xml:space="preserve">
<title>couple-frame</title>
<g>
	<path d="M11.971,11.744c-0.358-0.009-0.688-0.155-0.933-0.412L7.531,7.705C6.49,6.615,6.489,4.909,7.527,3.821
		c0.029-0.03,0.059-0.06,0.089-0.089C8.111,3.26,8.761,3.001,9.445,3.001c0.733,0,1.415,0.292,1.919,0.821L12,4.479l0.64-0.662
		c0.024-0.026,0.055-0.057,0.087-0.087C13.221,3.259,13.872,3,14.558,3L14.618,3c0.708,0.017,1.367,0.309,1.855,0.821
		c1.039,1.088,1.039,2.792,0,3.88l-3.514,3.634c-0.008,0.009-0.026,0.027-0.044,0.044c-0.246,0.234-0.571,0.364-0.913,0.364
		C11.999,11.744,11.973,11.744,11.971,11.744z M9.444,4.501c-0.297,0-0.578,0.112-0.792,0.317c-0.013,0.012-0.026,0.026-0.04,0.04
		c-0.484,0.507-0.484,1.302,0,1.809L12,10.169l3.391-3.507c0.482-0.505,0.481-1.299-0.003-1.806
		c-0.212-0.223-0.498-0.349-0.805-0.357c0,0,0,0-0.001,0c-0.326,0-0.603,0.11-0.82,0.317c-0.015,0.014-0.028,0.027-0.041,0.041
		l-1.181,1.222C12.401,6.222,12.205,6.303,12,6.303s-0.401-0.082-0.539-0.224L10.282,4.86C10.06,4.628,9.763,4.501,9.444,4.501z"/>
	<path d="M16.354,18c-1.654,0-3-1.346-3-3s1.346-3,3-3s3,1.346,3,3S18.008,18,16.354,18z M16.354,13.5c-0.827,0-1.5,0.673-1.5,1.5
		s0.673,1.5,1.5,1.5s1.5-0.673,1.5-1.5S17.181,13.5,16.354,13.5z"/>
	<path d="M12.457,21c-0.131,0-0.261-0.035-0.375-0.101c-0.173-0.1-0.297-0.262-0.349-0.456c-0.052-0.194-0.025-0.396,0.075-0.569
		c0.46-0.796,1.124-1.46,1.92-1.92c0.799-0.462,1.705-0.706,2.618-0.706c0.458,0,0.917,0.061,1.365,0.181
		c1.355,0.363,2.487,1.231,3.188,2.446c0.1,0.173,0.127,0.375,0.075,0.569c-0.052,0.194-0.176,0.355-0.349,0.456
		C20.511,20.965,20.382,21,20.25,21c-0.267,0-0.516-0.144-0.65-0.375c-0.668-1.156-1.915-1.874-3.254-1.874
		c-0.654,0-1.3,0.174-1.869,0.502s-1.043,0.802-1.371,1.371C12.973,20.856,12.724,21,12.457,21z"/>
	<path d="M7.646,18c-1.654,0-3-1.346-3-3s1.346-3,3-3s3,1.346,3,3S9.3,18,7.646,18z M7.646,13.5c-0.827,0-1.5,0.673-1.5,1.5
		s0.673,1.5,1.5,1.5s1.5-0.673,1.5-1.5S8.473,13.5,7.646,13.5z"/>
	<path d="M3.75,21c-0.131,0-0.261-0.035-0.375-0.101c-0.173-0.1-0.297-0.262-0.349-0.456C2.974,20.25,3,20.048,3.101,19.875
		c0.46-0.796,1.124-1.46,1.919-1.92c0.796-0.46,1.702-0.703,2.618-0.703c1.875,0,3.62,1.005,4.554,2.623
		c0.1,0.173,0.127,0.375,0.075,0.569c-0.052,0.194-0.176,0.355-0.349,0.456C11.804,20.965,11.675,21,11.543,21
		c-0.267,0-0.516-0.144-0.65-0.375c-0.667-1.156-1.914-1.873-3.254-1.873c-0.654,0-1.3,0.174-1.869,0.502
		c-0.568,0.328-1.043,0.802-1.371,1.371C4.266,20.856,4.017,21,3.75,21z"/>
	<path d="M2.25,24C1.009,24,0,22.991,0,21.75V2.25C0,1.009,1.009,0,2.25,0h19.5C22.991,0,24,1.009,24,2.25v19.5
		c0,1.241-1.009,2.25-2.25,2.25H2.25z M2.25,1.5C1.836,1.5,1.5,1.836,1.5,2.25v19.5c0,0.414,0.336,0.75,0.75,0.75h19.5
		c0.414,0,0.75-0.336,0.75-0.75V2.25c0-0.414-0.336-0.75-0.75-0.75H2.25z"/>
</g>
</svg>
