<?xml version="1.0" encoding="utf-8"?>
<!-- Generator: Adobe Illustrator 22.1.0, SVG Export Plug-In . SVG Version: 6.00 Build 0)  -->
<svg version="1.1" id="Regular" xmlns="http://www.w3.org/2000/svg" xmlns:xlink="http://www.w3.org/1999/xlink" x="0px" y="0px"
	 viewBox="0 0 24 24" style="enable-background:new 0 0 24 24;" xml:space="preserve">
<title>crafts-origami-1</title>
<g>
	<path d="M9.022,24c-0.396,0-0.782-0.161-1.061-0.441L1.05,16.651c-0.445-0.445-0.565-1.126-0.298-1.696L5.9,3.923L3.698,1.966
		c-0.24-0.213-0.377-0.519-0.377-0.839C3.32,0.506,3.824,0.001,4.444,0h7.596c0.214,0,0.422,0.045,0.617,0.133
		c0.365,0.165,0.644,0.463,0.785,0.837c0.141,0.375,0.128,0.783-0.037,1.147c0,0-2.335,5.101-2.336,5.103L8.877,12h2.64l7.157-3.903
		c0.22-0.12,0.468-0.184,0.718-0.184c0.142,0,0.285,0.021,0.423,0.061c0.385,0.112,0.702,0.368,0.895,0.719
		c0.081,0.148,0.136,0.308,0.164,0.475L21.345,12h0.907c0.827,0,1.5,0.673,1.5,1.5c-0.001,0.315-0.097,0.616-0.28,0.872l-6.428,9
		c-0.138,0.193-0.323,0.352-0.534,0.461c-0.016,0.01-0.055,0.029-0.094,0.044C16.241,23.956,16.034,24,15.822,24H9.022z M9.022,22.5
		l5.613,0l-6.751-8.333l-2.261,4.934L9.022,22.5z M16.171,22.013l6.08-8.513H9.274L16.171,22.013z M2.111,15.591l2.38,2.379
		l2.502-5.459c0.008-0.029,0.018-0.057,0.031-0.084c0.01-0.021,0.022-0.042,0.036-0.062L9.473,7.1L7.07,4.964L2.111,15.591z
		 M19.824,12l-0.431-2.587L14.65,12H19.824z M10.126,5.674l1.913-4.178L5.431,1.499L10.126,5.674z"/>
</g>
</svg>
