<?xml version="1.0" encoding="utf-8"?>
<!-- Generator: Adobe Illustrator 22.1.0, SVG Export Plug-In . SVG Version: 6.00 Build 0)  -->
<svg version="1.1" id="Regular" xmlns="http://www.w3.org/2000/svg" xmlns:xlink="http://www.w3.org/1999/xlink" x="0px" y="0px"
	 viewBox="0 0 24 24" style="enable-background:new 0 0 24 24;" xml:space="preserve">
<title>crafts-pottery</title>
<g>
	<path d="M8.25,24c-0.414,0-0.75-0.336-0.75-0.75v-3.136c0.001-0.745-0.217-1.465-0.631-2.083l-1.143-1.715
		c-0.106-0.176-0.248-0.284-0.419-0.326c-0.053-0.013-0.106-0.02-0.16-0.02c-0.116,0-0.231,0.032-0.333,0.093l-0.031,0.02
		c-0.26,0.174-0.358,0.521-0.225,0.81l1.333,2.222c0.103,0.172,0.133,0.373,0.084,0.568s-0.17,0.358-0.342,0.461
		c-0.116,0.07-0.25,0.107-0.385,0.107c-0.262,0-0.508-0.14-0.643-0.364l-1.35-2.25c-0.009-0.014-0.018-0.032-0.027-0.049
		c-0.159-0.316-0.238-0.672-0.227-1.031C3.001,16.537,3,16.519,3,16.5v-3.75C3,12.336,2.664,12,2.25,12S1.5,12.336,1.5,12.75v5.171
		c0,0.849,0.292,1.681,0.822,2.344l2.116,2.501c0.267,0.316,0.228,0.79-0.088,1.057C4.214,23.937,4.042,24,3.865,24
		c-0.221,0-0.43-0.097-0.573-0.266l-2.129-2.517C0.411,20.277,0,19.109,0,17.921V12.75c0-1.241,1.009-2.25,2.25-2.25
		s2.25,1.009,2.25,2.25v1.82c0.209-0.067,0.427-0.101,0.647-0.101c0.176,0,0.353,0.022,0.525,0.065
		c0.557,0.139,1.026,0.487,1.322,0.98l1.123,1.684C8.696,18.064,9.001,19.073,9,20.115v3.135C9,23.664,8.664,24,8.25,24z"/>
	<path d="M20.135,24c-0.177,0-0.349-0.063-0.484-0.177c-0.153-0.13-0.247-0.311-0.263-0.51c-0.017-0.2,0.045-0.394,0.175-0.547
		l2.129-2.517c0.52-0.649,0.809-1.479,0.809-2.328V12.75c0-0.414-0.336-0.75-0.75-0.75S21,12.336,21,12.75v3.75
		c0,0.019-0.001,0.037-0.003,0.055c0.011,0.359-0.067,0.715-0.227,1.033c-0.009,0.018-0.019,0.036-0.03,0.054l-1.347,2.244
		c-0.135,0.225-0.382,0.364-0.644,0.364c-0.136,0-0.269-0.037-0.386-0.107c-0.171-0.102-0.292-0.266-0.341-0.461
		c-0.049-0.194-0.018-0.396,0.085-0.568l1.333-2.222c0.133-0.289,0.036-0.636-0.23-0.813l-0.033-0.02
		c-0.095-0.057-0.21-0.089-0.326-0.089c-0.053,0-0.107,0.007-0.16,0.02c-0.169,0.042-0.311,0.147-0.4,0.296l-1.161,1.744
		c-0.414,0.619-0.632,1.34-0.631,2.084v3.136c0,0.414-0.336,0.75-0.75,0.75S15,23.664,15,23.25v-3.136
		c-0.001-1.042,0.305-2.05,0.884-2.917l1.141-1.714c0.28-0.468,0.746-0.81,1.303-0.949c0.172-0.043,0.349-0.065,0.525-0.065
		c0.22,0,0.438,0.034,0.647,0.101v-1.82c0-1.241,1.009-2.25,2.25-2.25S24,11.509,24,12.75v5.171c0,1.188-0.408,2.353-1.151,3.281
		l-2.142,2.533C20.565,23.903,20.356,24,20.135,24z"/>
	<path d="M11.99,15.75l-0.105,0.001c-3.591,0-6.568-2.927-6.635-6.526c0.001-1.354,0.417-2.642,1.201-3.73
		c0.196-0.273,0.238-0.622,0.112-0.935c-0.26-0.648-0.391-1.33-0.391-2.028C6.173,1.271,7.975,0,12,0
		c2.794,0,5.668,0.742,5.819,2.399c0.008,0.044,0.012,0.089,0.012,0.132c0,0.698-0.132,1.38-0.391,2.028
		c-0.125,0.313-0.083,0.663,0.114,0.937c0.782,1.089,1.196,2.373,1.196,3.715c-0.067,3.609-3.05,6.54-6.648,6.54L11.99,15.75z
		 M12.09,14.251c2.793,0,5.108-2.267,5.16-5.054c0-1.014-0.316-1.994-0.915-2.826c-0.399-0.557-0.547-1.238-0.425-1.895
		C14.877,4.849,13.484,5.062,12,5.062c-1.482,0-2.873-0.213-3.905-0.584C8.216,5.134,8.068,5.814,7.669,6.37
		C7.069,7.204,6.751,8.186,6.75,9.212c0.052,2.775,2.365,5.039,5.157,5.039c0,0,0.085-0.001,0.087-0.001S12.09,14.251,12.09,14.251z
		 M7.68,2.531C7.845,2.835,9.325,3.562,12,3.562c2.675,0,4.155-0.727,4.32-1.031C16.155,2.227,14.675,1.5,12,1.5
		C9.325,1.5,7.845,2.227,7.68,2.531z"/>
</g>
</svg>
