<?xml version="1.0" encoding="utf-8"?>
<!-- Generator: Adobe Illustrator 22.1.0, SVG Export Plug-In . SVG Version: 6.00 Build 0)  -->
<svg version="1.1" id="Layer_1" xmlns="http://www.w3.org/2000/svg" xmlns:xlink="http://www.w3.org/1999/xlink" x="0px" y="0px"
	 viewBox="0 0 24 24" style="enable-background:new 0 0 24 24;" xml:space="preserve">
<title>credit-card-dollar-1</title>
<g>
	<path d="M17.25,21.75c-0.414,0-0.75-0.336-0.75-0.75h-0.75C15.336,21,15,20.664,15,20.25s0.336-0.75,0.75-0.75h2.031
		c0.242,0,0.458-0.146,0.548-0.371c0.059-0.146,0.057-0.307-0.005-0.453c-0.062-0.146-0.177-0.259-0.323-0.317l-2.063-0.826
		c-0.797-0.321-1.312-1.082-1.312-1.94c0-0.559,0.217-1.084,0.612-1.48c0.344-0.344,0.786-0.554,1.262-0.603V13.5
		c0-0.414,0.336-0.75,0.75-0.75S18,13.086,18,13.5h0.75c0.414,0,0.75,0.336,0.75,0.75S19.164,15,18.75,15h-2.033
		c-0.326,0-0.591,0.266-0.591,0.593c0,0.243,0.146,0.458,0.371,0.549l2.063,0.826c1.071,0.431,1.592,1.652,1.161,2.722
		c-0.292,0.728-0.954,1.22-1.721,1.3V21C18,21.414,17.664,21.75,17.25,21.75z"/>
	<path d="M17.25,24c-3.722,0-6.75-3.028-6.75-6.75s3.028-6.75,6.75-6.75S24,13.528,24,17.25S20.972,24,17.25,24z M17.25,12
		C14.355,12,12,14.355,12,17.25s2.355,5.25,5.25,5.25s5.25-2.355,5.25-5.25S20.145,12,17.25,12z"/>
	<path d="M2.25,16.5C1.009,16.5,0,15.491,0,14.25v-12C0,1.009,1.009,0,2.25,0h16.5C19.991,0,21,1.009,21,2.25v6
		C21,8.664,20.664,9,20.25,9S19.5,8.664,19.5,8.25V6h-18v8.25C1.5,14.664,1.836,15,2.25,15h6C8.664,15,9,15.336,9,15.75
		S8.664,16.5,8.25,16.5H2.25z M19.5,4.5V2.25c0-0.414-0.336-0.75-0.75-0.75H2.25C1.836,1.5,1.5,1.836,1.5,2.25V4.5H19.5z"/>
	<path d="M3.75,9.75C3.336,9.75,3,9.414,3,9s0.336-0.75,0.75-0.75h6c0.414,0,0.75,0.336,0.75,0.75s-0.336,0.75-0.75,0.75H3.75z"/>
	<path d="M3.75,12.75C3.336,12.75,3,12.414,3,12s0.336-0.75,0.75-0.75h3c0.414,0,0.75,0.336,0.75,0.75s-0.336,0.75-0.75,0.75H3.75z"
		/>
</g>
</svg>
