<?xml version="1.0" encoding="utf-8"?>
<!-- Generator: Adobe Illustrator 22.1.0, SVG Export Plug-In . SVG Version: 6.00 Build 0)  -->
<svg version="1.1" id="Layer_1" xmlns="http://www.w3.org/2000/svg" xmlns:xlink="http://www.w3.org/1999/xlink" x="0px" y="0px"
	 viewBox="0 0 24 24" style="enable-background:new 0 0 24 24;" xml:space="preserve">
<title>credit-card-flag</title>
<g>
	<path d="M2.25,16.5C1.009,16.5,0,15.491,0,14.25v-12C0,1.009,1.009,0,2.25,0h16.5C19.991,0,21,1.009,21,2.25v6
		C21,8.664,20.664,9,20.25,9S19.5,8.664,19.5,8.25V6h-18v8.25C1.5,14.664,1.836,15,2.25,15h9c0.414,0,0.75,0.336,0.75,0.75
		s-0.336,0.75-0.75,0.75H2.25z M19.5,4.5V2.25c0-0.414-0.336-0.75-0.75-0.75H2.25C1.836,1.5,1.5,1.836,1.5,2.25V4.5H19.5z"/>
	<path d="M3.75,9.75C3.336,9.75,3,9.414,3,9s0.336-0.75,0.75-0.75h6c0.414,0,0.75,0.336,0.75,0.75s-0.336,0.75-0.75,0.75H3.75z"/>
	<path d="M3.75,12.75C3.336,12.75,3,12.414,3,12s0.336-0.75,0.75-0.75h3c0.414,0,0.75,0.336,0.75,0.75s-0.336,0.75-0.75,0.75H3.75z"
		/>
	<path d="M14.25,24c-0.414,0-0.75-0.336-0.75-0.75V11.869c0-0.323,0.206-0.609,0.513-0.711l1.29-0.43
		c0.458-0.153,0.933-0.23,1.41-0.23c0.872,0,1.72,0.259,2.453,0.748c0.486,0.324,1.047,0.495,1.623,0.495
		c0.316,0,0.63-0.051,0.934-0.153l1.29-0.43c0.077-0.026,0.157-0.039,0.238-0.039c0.158,0,0.31,0.049,0.438,0.142
		C23.884,11.401,24,11.628,24,11.869v7c0,0.323-0.206,0.609-0.513,0.711l-1.29,0.43c-0.458,0.153-0.933,0.23-1.41,0.23
		c-0.872,0-1.72-0.259-2.454-0.748c-0.486-0.324-1.047-0.495-1.623-0.495c-0.316,0-0.63,0.051-0.934,0.153L15,19.409v3.841
		C15,23.664,14.664,24,14.25,24z M16.713,17.497c0.872,0,1.72,0.259,2.453,0.748c0.486,0.324,1.047,0.496,1.623,0.496
		c0.316,0,0.63-0.052,0.934-0.153l0.777-0.259V12.91l-0.303,0.101c-0.458,0.153-0.932,0.23-1.41,0.23
		c-0.872,0-1.72-0.259-2.454-0.748c-0.486-0.324-1.047-0.495-1.623-0.495c-0.316,0-0.63,0.051-0.934,0.153L15,12.41v5.419
		l0.303-0.101C15.761,17.575,16.236,17.497,16.713,17.497z"/>
</g>
</svg>
