<?xml version="1.0" encoding="utf-8"?>
<!-- Generator: Adobe Illustrator 22.1.0, SVG Export Plug-In . SVG Version: 6.00 Build 0)  -->
<svg version="1.1" id="Layer_1" xmlns="http://www.w3.org/2000/svg" xmlns:xlink="http://www.w3.org/1999/xlink" x="0px" y="0px"
	 viewBox="0 0 24 24" style="enable-background:new 0 0 24 24;" xml:space="preserve">
<title>credit-card-visa</title>
<g>
	<path d="M2.25,21C1.009,21,0,19.991,0,18.75V5.25C0,4.009,1.009,3,2.25,3h19.5C22.991,3,24,4.009,24,5.25v13.5
		c0,1.241-1.009,2.25-2.25,2.25H2.25z M2.25,4.5C1.836,4.5,1.5,4.836,1.5,5.25v13.5c0,0.414,0.336,0.75,0.75,0.75h19.5
		c0.414,0,0.75-0.336,0.75-0.75V5.25c0-0.414-0.336-0.75-0.75-0.75H2.25z"/>
	<path d="M9.75,15.75C9.336,15.75,9,15.414,9,15V9c0-0.414,0.336-0.75,0.75-0.75S10.5,8.586,10.5,9v6
		C10.5,15.414,10.164,15.75,9.75,15.75z"/>
	<path d="M5.25,15.75c-0.233,0-0.457-0.111-0.598-0.297c-0.96-1.267-1.531-2.775-1.65-4.36C3.001,11.076,3,11.056,3,11.037V9
		c0-0.414,0.336-0.75,0.75-0.75S4.5,8.586,4.5,9v2.008c0.072,0.908,0.329,1.795,0.75,2.598c0.421-0.803,0.678-1.69,0.75-2.598V9
		c0-0.414,0.336-0.75,0.75-0.75S7.5,8.586,7.5,9v2.037c0,0.019-0.001,0.039-0.002,0.058c-0.119,1.584-0.69,3.092-1.65,4.359
		C5.707,15.639,5.483,15.75,5.25,15.75z"/>
	<path d="M12,15.75c-0.414,0-0.75-0.336-0.75-0.75s0.336-0.75,0.75-0.75h1.2c0.248,0,0.45-0.202,0.45-0.45
		c0-0.502-0.309-0.756-0.9-1.2c-0.669-0.502-1.5-1.126-1.5-2.4c0-1.075,0.875-1.95,1.95-1.95h1.2c0.414,0,0.75,0.336,0.75,0.75
		s-0.336,0.75-0.75,0.75h-1.2c-0.248,0-0.45,0.202-0.45,0.45c0,0.502,0.309,0.757,0.9,1.2c0.668,0.501,1.5,1.125,1.5,2.4
		c0,1.075-0.875,1.95-1.95,1.95H12z"/>
	<path d="M20.25,15.75c-0.414,0-0.75-0.336-0.75-0.75v-1.5H18V15c0,0.414-0.336,0.75-0.75,0.75S16.5,15.414,16.5,15v-4.5
		c0-1.241,1.009-2.25,2.25-2.25S21,9.259,21,10.5V15C21,15.414,20.664,15.75,20.25,15.75z M19.5,12v-1.5
		c0-0.414-0.336-0.75-0.75-0.75S18,10.086,18,10.5V12H19.5z"/>
</g>
</svg>
