<?xml version="1.0" encoding="utf-8"?>
<!-- Generator: Adobe Illustrator 22.1.0, SVG Export Plug-In . SVG Version: 6.00 Build 0)  -->
<svg version="1.1" id="Layer_1" xmlns="http://www.w3.org/2000/svg" xmlns:xlink="http://www.w3.org/1999/xlink" x="0px" y="0px"
	 viewBox="0 0 24 24" style="enable-background:new 0 0 24 24;" xml:space="preserve">
<title>credit-card-amex</title>
<g>
	<path d="M2.25,21C1.009,21,0,19.991,0,18.75V5.25C0,4.009,1.009,3,2.25,3h19.5C22.991,3,24,4.009,24,5.25v13.5
		c0,1.241-1.009,2.25-2.25,2.25H2.25z M2.25,4.5C1.836,4.5,1.5,4.836,1.5,5.25v13.5c0,0.414,0.336,0.75,0.75,0.75h19.5
		c0.414,0,0.75-0.336,0.75-0.75V5.25c0-0.414-0.336-0.75-0.75-0.75H2.25z"/>
	<path d="M12,15.75c-0.414,0-0.75-0.336-0.75-0.75v-2.823l-0.079,0.158c-0.128,0.256-0.385,0.415-0.671,0.415
		s-0.543-0.159-0.671-0.414L9.75,12.177V15c0,0.414-0.336,0.75-0.75,0.75S8.25,15.414,8.25,15V9c0-0.349,0.237-0.649,0.578-0.73
		C8.885,8.257,8.942,8.25,9,8.25c0.286,0,0.543,0.159,0.671,0.414l0.829,1.659l0.829-1.658C11.457,8.409,11.714,8.25,12,8.25
		c0.057,0,0.115,0.007,0.171,0.02C12.512,8.351,12.75,8.651,12.75,9v6C12.75,15.414,12.414,15.75,12,15.75z"/>
	<path d="M20.25,15.75c-0.311,0-0.593-0.196-0.702-0.487l-0.423-1.127l-0.423,1.127C18.593,15.554,18.311,15.75,18,15.75
		c-0.091,0-0.18-0.016-0.264-0.048c-0.187-0.07-0.335-0.209-0.418-0.392c-0.083-0.182-0.09-0.386-0.019-0.574L18.324,12
		l-1.026-2.737c-0.07-0.188-0.063-0.391,0.019-0.574c0.083-0.182,0.232-0.322,0.42-0.392C17.821,8.266,17.91,8.25,18,8.25
		c0.311,0,0.594,0.196,0.703,0.487l0.423,1.127l0.423-1.128c0.109-0.291,0.391-0.487,0.702-0.487c0.09,0,0.179,0.016,0.264,0.048
		c0.187,0.07,0.336,0.209,0.419,0.392c0.083,0.182,0.09,0.386,0.019,0.574L19.926,12l1.026,2.737
		c0.07,0.188,0.063,0.391-0.019,0.573c-0.083,0.182-0.232,0.322-0.42,0.392C20.43,15.734,20.341,15.75,20.25,15.75z"/>
	<path d="M15.45,15.75c-1.075,0-1.95-0.875-1.95-1.95v-3.6c0-1.075,0.875-1.95,1.95-1.95h0.3c0.414,0,0.75,0.336,0.75,0.75
		s-0.336,0.75-0.75,0.75h-0.3C15.202,9.75,15,9.952,15,10.2V12h0.75c0.414,0,0.75,0.336,0.75,0.75s-0.336,0.75-0.75,0.75H15v0.3
		c0,0.248,0.202,0.45,0.45,0.45h0.3c0.414,0,0.75,0.336,0.75,0.75s-0.336,0.75-0.75,0.75H15.45z"/>
	<path d="M6.75,15.75C6.336,15.75,6,15.414,6,15v-1.5H4.5V15c0,0.414-0.336,0.75-0.75,0.75S3,15.414,3,15v-4.5
		c0-1.241,1.009-2.25,2.25-2.25S7.5,9.259,7.5,10.5V15C7.5,15.414,7.164,15.75,6.75,15.75z M6,12v-1.5c0-0.414-0.336-0.75-0.75-0.75
		S4.5,10.086,4.5,10.5V12H6z"/>
</g>
</svg>
