<?xml version="1.0" encoding="utf-8"?>
<!-- Generator: Adobe Illustrator 22.1.0, SVG Export Plug-In . SVG Version: 6.00 Build 0)  -->
<svg version="1.1" id="Layer_1" xmlns="http://www.w3.org/2000/svg" xmlns:xlink="http://www.w3.org/1999/xlink" x="0px" y="0px"
	 viewBox="0 0 24 24" style="enable-background:new 0 0 24 24;" xml:space="preserve">
<title>credit-card-lock</title>
<g>
	<path d="M2.25,16.5C1.009,16.5,0,15.491,0,14.25v-12C0,1.009,1.009,0,2.25,0h16.5C19.991,0,21,1.009,21,2.25v6
		C21,8.664,20.664,9,20.25,9S19.5,8.664,19.5,8.25V6h-18v8.25C1.5,14.664,1.836,15,2.25,15h9c0.414,0,0.75,0.336,0.75,0.75
		s-0.336,0.75-0.75,0.75H2.25z M19.5,4.5V2.25c0-0.414-0.336-0.75-0.75-0.75H2.25C1.836,1.5,1.5,1.836,1.5,2.25V4.5H19.5z"/>
	<path d="M3.75,9.747C3.336,9.747,3,9.411,3,8.997s0.336-0.75,0.75-0.75h6c0.414,0,0.75,0.336,0.75,0.75s-0.336,0.75-0.75,0.75H3.75
		z"/>
	<path d="M3.75,12.747c-0.414,0-0.75-0.336-0.75-0.75c0-0.414,0.336-0.75,0.75-0.75h3c0.414,0,0.75,0.336,0.75,0.75
		c0,0.414-0.336,0.75-0.75,0.75H3.75z"/>
	<path d="M15.75,24c-1.241,0-2.25-1.009-2.25-2.25v-4.5c0-0.96,0.615-1.808,1.5-2.121V14.25c0-2.068,1.682-3.75,3.75-3.75
		s3.75,1.682,3.75,3.75v0.879c0.885,0.314,1.5,1.162,1.5,2.121v4.5c0,1.241-1.009,2.25-2.25,2.25H15.75z M15.75,16.5
		c-0.414,0-0.75,0.336-0.75,0.75v4.5c0,0.414,0.336,0.75,0.75,0.75h6c0.414,0,0.75-0.336,0.75-0.75v-4.5
		c0-0.414-0.336-0.75-0.75-0.75H15.75z M21,15v-0.75c0-1.241-1.009-2.25-2.25-2.25s-2.25,1.009-2.25,2.25L21,15z"/>
	<circle cx="18.75" cy="19.529" r="1.125"/>
</g>
</svg>
