<?xml version="1.0" encoding="utf-8"?>
<!-- Generator: Adobe Illustrator 22.1.0, SVG Export Plug-In . SVG Version: 6.00 Build 0)  -->
<svg version="1.1" id="Layer_1" xmlns="http://www.w3.org/2000/svg" xmlns:xlink="http://www.w3.org/1999/xlink" x="0px" y="0px"
	 viewBox="0 0 24 24" style="enable-background:new 0 0 24 24;" xml:space="preserve">
<title>credit-card-online-payment</title>
<g>
	<path d="M2.25,20.625c-1.241,0-2.25-1.009-2.25-2.25V2.625c0-1.241,1.009-2.25,2.25-2.25h18c1.241,0,2.25,1.009,2.25,2.25v8.25
		c0,0.414-0.336,0.75-0.75,0.75S21,11.289,21,10.875v-4.5H1.5v12c0,0.414,0.336,0.75,0.75,0.75h6c0.414,0,0.75,0.336,0.75,0.75
		s-0.336,0.75-0.75,0.75H2.25z M21,4.875v-2.25c0-0.414-0.336-0.75-0.75-0.75h-18c-0.414,0-0.75,0.336-0.75,0.75v2.25H21z"/>
	<path d="M6.188,17.625c-0.414,0-0.75-0.336-0.75-0.75v-0.354c-0.674-0.154-1.283-0.543-1.706-1.098
		c-0.25-0.329-0.187-0.801,0.142-1.051c0.132-0.1,0.289-0.154,0.454-0.154c0.236,0,0.454,0.108,0.597,0.296
		c0.277,0.364,0.715,0.582,1.171,0.582c0.02,0,0.041,0,0.061-0.001c0.775,0,1.343-0.421,1.343-0.797
		c0-0.376-0.561-0.796-1.312-0.796c-1.551,0-2.813-1.032-2.813-2.301c0-1.052,0.85-1.943,2.063-2.213V8.625
		c0-0.414,0.336-0.75,0.75-0.75s0.75,0.336,0.75,0.75v0.353c0.674,0.154,1.283,0.542,1.705,1.096
		c0.25,0.329,0.187,0.801-0.142,1.051c-0.132,0.1-0.289,0.153-0.454,0.153c-0.236,0-0.454-0.108-0.597-0.296
		c-0.277-0.363-0.714-0.58-1.171-0.58l-0.034,0c-0.019,0.002-0.037,0.004-0.056,0.004c-0.01,0-0.023-0.001-0.035-0.002
		c-0.695,0.017-1.278,0.378-1.278,0.796c0,0.378,0.562,0.801,1.313,0.801c1.551,0,2.812,1.03,2.812,2.296
		c0,1.052-0.849,1.943-2.062,2.212v0.365C6.938,17.289,6.602,17.625,6.188,17.625z"/>
	<path d="M12.75,23.625c-1.241,0-2.25-1.009-2.25-2.25v-6c0-1.241,1.009-2.25,2.25-2.25h9c1.241,0,2.25,1.009,2.25,2.25v6
		c0,1.241-1.009,2.25-2.25,2.25H12.75z M12,21.375c0,0.414,0.336,0.75,0.75,0.75h9c0.414,0,0.75-0.336,0.75-0.75v-3.75H12V21.375z
		 M22.5,16.125v-0.75c0-0.414-0.336-0.75-0.75-0.75h-9c-0.414,0-0.75,0.336-0.75,0.75v0.75H22.5z"/>
	<path d="M18.75,20.625c-0.414,0-0.75-0.336-0.75-0.75s0.336-0.75,0.75-0.75h1.5c0.414,0,0.75,0.336,0.75,0.75
		s-0.336,0.75-0.75,0.75H18.75z"/>
</g>
</svg>
