<?xml version="1.0" encoding="utf-8"?>
<!-- Generator: Adobe Illustrator 22.1.0, SVG Export Plug-In . SVG Version: 6.00 Build 0)  -->
<svg version="1.1" id="Layer_1" xmlns="http://www.w3.org/2000/svg" xmlns:xlink="http://www.w3.org/1999/xlink" x="0px" y="0px"
	 viewBox="0 0 24 24" style="enable-background:new 0 0 24 24;" xml:space="preserve">
<title>credit-card-check</title>
<g>
	<path d="M17.25,24c-3.722,0-6.75-3.028-6.75-6.75s3.028-6.75,6.75-6.75S24,13.528,24,17.25S20.972,24,17.25,24z M17.25,12
		C14.355,12,12,14.355,12,17.25s2.355,5.25,5.25,5.25s5.25-2.355,5.25-5.25S20.145,12,17.25,12z"/>
	<path d="M16.417,20.429c-0.327,0-0.638-0.104-0.9-0.302c-0.052-0.038-0.105-0.084-0.155-0.134l-1.503-1.503
		c-0.292-0.292-0.292-0.768,0-1.061c0.142-0.142,0.33-0.22,0.53-0.22s0.389,0.078,0.53,0.22l1.5,1.5l2.905-3.874
		c0.141-0.188,0.365-0.3,0.6-0.3c0.163,0,0.318,0.052,0.449,0.149c0.332,0.249,0.399,0.72,0.151,1.051l-2.905,3.873
		c-0.242,0.321-0.593,0.528-0.99,0.585C16.558,20.424,16.487,20.429,16.417,20.429z"/>
	<path d="M2.25,16.5C1.009,16.5,0,15.491,0,14.25v-12C0,1.009,1.009,0,2.25,0h16.5C19.991,0,21,1.009,21,2.25v6
		C21,8.664,20.664,9,20.25,9S19.5,8.664,19.5,8.25V6h-18v8.25C1.5,14.664,1.836,15,2.25,15h6C8.664,15,9,15.336,9,15.75
		S8.664,16.5,8.25,16.5H2.25z M19.5,4.5V2.25c0-0.414-0.336-0.75-0.75-0.75H2.25C1.836,1.5,1.5,1.836,1.5,2.25V4.5H19.5z"/>
	<path d="M3.75,9.75C3.336,9.75,3,9.414,3,9s0.336-0.75,0.75-0.75h6c0.414,0,0.75,0.336,0.75,0.75s-0.336,0.75-0.75,0.75H3.75z"/>
	<path d="M3.75,12.75C3.336,12.75,3,12.414,3,12s0.336-0.75,0.75-0.75h3c0.414,0,0.75,0.336,0.75,0.75s-0.336,0.75-0.75,0.75H3.75z"
		/>
</g>
</svg>
