<?xml version="1.0" encoding="utf-8"?>
<!-- Generator: Adobe Illustrator 22.1.0, SVG Export Plug-In . SVG Version: 6.00 Build 0)  -->
<svg version="1.1" id="Regular" xmlns="http://www.w3.org/2000/svg" xmlns:xlink="http://www.w3.org/1999/xlink" x="0px" y="0px"
	 viewBox="0 0 24 24" style="enable-background:new 0 0 24 24;" xml:space="preserve">
<title>cricket-bat-ball</title>
<g>
	<path d="M2.251,23.998c-0.602,0-1.167-0.234-1.591-0.658c-0.877-0.877-0.877-2.305,0-3.183l6.188-6.187l0.496-3.465
		c0.023-0.16,0.098-0.31,0.212-0.424l9.015-9.013c0.426-0.425,0.991-0.659,1.591-0.659c0.602,0,1.167,0.234,1.592,0.66l3.174,3.173
		c0.431,0.431,0.665,0.996,0.664,1.597c0,0.601-0.234,1.166-0.659,1.591l-9.013,9.016c-0.115,0.115-0.261,0.188-0.423,0.212
		l-3.466,0.496L3.842,23.34C3.417,23.764,2.852,23.998,2.251,23.998z M8.296,14.43c-0.023,0.159-0.098,0.31-0.212,0.424L1.72,21.218
		c-0.292,0.293-0.292,0.769,0,1.062c0.141,0.141,0.33,0.219,0.531,0.219c0.201,0,0.39-0.078,0.531-0.219l6.364-6.364
		c0.114-0.114,0.264-0.189,0.423-0.212l3.156-0.451l-3.977-3.977L8.296,14.43z M13.917,14.324l7.953-7.956
		c0.142-0.142,0.22-0.33,0.22-0.53c0-0.199-0.077-0.386-0.217-0.528c-0.002-0.002-3.182-3.181-3.182-3.181
		c-0.142-0.142-0.33-0.22-0.531-0.22l0-0.375l0,0.375c-0.2,0-0.388,0.078-0.53,0.219l-7.955,7.953L13.917,14.324z"/>
	<path d="M3.001,5.999c-1.654,0-3-1.346-3-3s1.346-3,3-3s3,1.346,3,3S4.655,5.999,3.001,5.999z M3.001,1.499
		c-0.827,0-1.5,0.673-1.5,1.5s0.673,1.5,1.5,1.5s1.5-0.673,1.5-1.5S3.828,1.499,3.001,1.499z"/>
</g>
</svg>
