<?xml version="1.0" encoding="utf-8"?>
<!-- Generator: Adobe Illustrator 22.1.0, SVG Export Plug-In . SVG Version: 6.00 Build 0)  -->
<svg version="1.1" id="Layer_1" xmlns="http://www.w3.org/2000/svg" xmlns:xlink="http://www.w3.org/1999/xlink" x="0px" y="0px"
	 viewBox="0 0 24 24" style="enable-background:new 0 0 24 24;" xml:space="preserve">
<title>crime-razor</title>
<g>
	<path d="M0.75,24C0.336,24,0,23.664,0,23.25s0.336-0.75,0.75-0.75h22.5c0.414,0,0.75,0.336,0.75,0.75S23.664,24,23.25,24H0.75z"/>
	<path d="M3.75,21.004c-0.414,0-0.75-0.336-0.75-0.75c0-2.068,2.019-3.75,4.5-3.75c0.481,0.001,0.949,0.062,1.396,0.181
		c0.379-0.411,0.82-0.756,1.314-1.029c0.778-0.431,1.654-0.658,2.533-0.658c0.491,0,0.982,0.07,1.459,0.207
		c1.061,0.305,1.998,0.938,2.674,1.797c0.567-0.329,1.208-0.501,1.873-0.501c1.002,0,1.944,0.39,2.652,1.097
		c0.708,0.708,1.099,1.65,1.099,2.652c0,0.414-0.336,0.75-0.75,0.75S21,20.664,21,20.25c0-1.24-1.01-2.249-2.25-2.249
		c-0.578,0-1.127,0.219-1.546,0.616c-0.14,0.132-0.323,0.205-0.516,0.205c-0.038,0-0.076-0.003-0.114-0.009
		c-0.232-0.036-0.429-0.174-0.542-0.379c-0.485-0.876-1.282-1.511-2.245-1.789c-0.341-0.098-0.692-0.148-1.042-0.148
		c-0.628,0-1.253,0.163-1.809,0.47c-0.468,0.259-0.867,0.607-1.188,1.035c-0.141,0.188-0.366,0.301-0.601,0.301
		c-0.092,0-0.182-0.017-0.268-0.05c-0.434-0.166-0.889-0.25-1.354-0.25c-1.677,0-3.024,1.009-3.024,2.25
		C4.5,20.667,4.164,21.004,3.75,21.004z"/>
	<path d="M6.75,12C6.336,12,6,11.664,6,11.25V9.464l-1.915,0.957C3.981,10.473,3.865,10.5,3.75,10.5l0,0
		c-0.139,0-0.275-0.039-0.394-0.111C3.133,10.25,3,10.012,3,9.75v-7.5c0-0.262,0.133-0.5,0.356-0.638C3.474,1.539,3.61,1.5,3.75,1.5
		c0.116,0,0.231,0.027,0.335,0.079L6,2.536V0.75C6,0.336,6.336,0,6.75,0h12c0.414,0,0.75,0.336,0.75,0.75v1.786l1.915-0.957
		C21.519,1.527,21.634,1.5,21.75,1.5c0.139,0,0.276,0.039,0.394,0.112C22.367,1.75,22.5,1.988,22.5,2.25v7.5
		c0,0.262-0.133,0.5-0.355,0.638c-0.119,0.073-0.255,0.112-0.395,0.112c-0.115,0-0.231-0.027-0.334-0.079L19.5,9.464v1.786
		c0,0.414-0.336,0.75-0.75,0.75H6.75z M18,10.5V8.25c0-0.262,0.133-0.5,0.355-0.638C18.475,7.539,18.611,7.5,18.75,7.5
		c0.115,0,0.231,0.027,0.334,0.079L21,8.536V3.464l-1.915,0.957C18.981,4.473,18.865,4.5,18.75,4.5
		c-0.139,0-0.276-0.039-0.394-0.112C18.133,4.25,18,4.012,18,3.75V1.5H7.5v2.25c0,0.262-0.133,0.5-0.356,0.638
		C7.026,4.461,6.89,4.5,6.75,4.5c-0.115,0-0.231-0.027-0.335-0.079L4.5,3.464v5.073l1.915-0.957C6.518,7.527,6.634,7.5,6.75,7.5
		c0.14,0,0.276,0.039,0.395,0.112C7.367,7.75,7.5,7.988,7.5,8.25v2.25H18z"/>
	<path d="M14.25,8.25c-0.414,0-0.75-0.336-0.75-0.75V6.75H12V7.5c0,0.414-0.336,0.75-0.75,0.75S10.5,7.914,10.5,7.5V6.75H9.75
		C9.336,6.75,9,6.414,9,6s0.336-0.75,0.75-0.75h0.75V4.5c0-0.414,0.336-0.75,0.75-0.75S12,4.086,12,4.5v0.75h1.5V4.5
		c0-0.414,0.336-0.75,0.75-0.75S15,4.086,15,4.5v0.75h0.75c0.414,0,0.75,0.336,0.75,0.75s-0.336,0.75-0.75,0.75H15V7.5
		C15,7.914,14.664,8.25,14.25,8.25z"/>
</g>
</svg>
