<?xml version="1.0" encoding="utf-8"?>
<!-- Generator: Adobe Illustrator 22.1.0, SVG Export Plug-In . SVG Version: 6.00 Build 0)  -->
<svg version="1.1" id="Layer_1" xmlns="http://www.w3.org/2000/svg" xmlns:xlink="http://www.w3.org/1999/xlink" x="0px" y="0px"
	 viewBox="0 0 24 24" style="enable-background:new 0 0 24 24;" xml:space="preserve">
<title>crime-wanted</title>
<g>
	<path d="M2.75,24C1.234,24,0,22.766,0,21.25V2.75C0,1.234,1.234,0,2.75,0h18.5C22.766,0,24,1.234,24,2.75v18.5
		c0,1.516-1.234,2.75-2.75,2.75H2.75z M2.75,1.5C2.061,1.5,1.5,2.061,1.5,2.75v18.5c0,0.689,0.561,1.25,1.25,1.25h18.5
		c0.689,0,1.25-0.561,1.25-1.25V2.75c0-0.689-0.561-1.25-1.25-1.25H2.75z"/>
	<path d="M12,9.75c-1.861,0-3.375-1.514-3.375-3.375S10.139,3,12,3c1.861,0,3.375,1.514,3.375,3.375S13.861,9.75,12,9.75z M12,4.5
		c-1.034,0-1.875,0.841-1.875,1.875S10.966,8.25,12,8.25s1.875-0.841,1.875-1.875S13.034,4.5,12,4.5z"/>
	<path d="M3.75,13.5C3.336,13.5,3,13.164,3,12.75S3.336,12,3.75,12h3.514c0.597-1.26,1.673-2.237,2.987-2.701
		C10.814,9.1,11.4,8.999,11.992,8.999c2.043,0,3.878,1.17,4.745,3.001h3.513c0.414,0,0.75,0.336,0.75,0.75s-0.336,0.75-0.75,0.75
		H3.75z M14.994,12c-0.701-0.928-1.821-1.501-3.001-1.501c-0.423,0-0.841,0.072-1.243,0.214c-0.705,0.249-1.31,0.697-1.75,1.287
		H14.994z"/>
	<path d="M3.75,21C3.336,21,3,20.664,3,20.25s0.336-0.75,0.75-0.75H4.5v-3H3.75C3.336,16.5,3,16.164,3,15.75S3.336,15,3.75,15H4.5
		C5.327,15,6,15.673,6,16.5v3h0.75c0.414,0,0.75,0.336,0.75,0.75S7.164,21,6.75,21H3.75z"/>
	<path d="M11.25,21C10.009,21,9,19.991,9,18.75v-1.5C9,16.009,10.009,15,11.25,15c1.241,0,2.25,1.009,2.25,2.25v1.5
		C13.5,19.991,12.491,21,11.25,21z M11.25,16.5c-0.414,0-0.75,0.336-0.75,0.75v1.5c0,0.414,0.336,0.75,0.75,0.75S12,19.164,12,18.75
		v-1.5C12,16.836,11.664,16.5,11.25,16.5z"/>
	<path d="M17.25,21C16.009,21,15,19.991,15,18.75v-1.5c0-1.241,1.009-2.25,2.25-2.25s2.25,1.009,2.25,2.25v1.5
		C19.5,19.991,18.491,21,17.25,21z M17.25,16.5c-0.414,0-0.75,0.336-0.75,0.75v1.5c0,0.414,0.336,0.75,0.75,0.75S18,19.164,18,18.75
		v-1.5C18,16.836,17.664,16.5,17.25,16.5z"/>
</g>
</svg>
