<?xml version="1.0" encoding="utf-8"?>
<!-- Generator: Adobe Illustrator 22.1.0, SVG Export Plug-In . SVG Version: 6.00 Build 0)  -->
<svg version="1.1" id="Layer_1" xmlns="http://www.w3.org/2000/svg" xmlns:xlink="http://www.w3.org/1999/xlink" x="0px" y="0px"
	 viewBox="0 0 24 24" style="enable-background:new 0 0 24 24;" xml:space="preserve">
<title>crime-man-thief-2</title>
<g>
	<path d="M12.001,18c-4.261,0-7.728-3.467-7.728-7.728c0-3.797,2.698-6.964,6.372-7.608L9.607,1.18
		c-0.115-0.164-0.159-0.363-0.124-0.56S9.628,0.25,9.792,0.135C9.919,0.047,10.067,0,10.222,0c0.245,0,0.475,0.12,0.615,0.32
		l1.164,1.665l1.164-1.665C13.305,0.119,13.535,0,13.78,0c0.154,0,0.303,0.047,0.43,0.135c0.339,0.237,0.422,0.705,0.185,1.044
		l-1.038,1.484c3.674,0.644,6.372,3.812,6.372,7.608C19.729,14.533,16.262,18,12.001,18z M12.001,4.044
		c-3.434,0-6.228,2.794-6.228,6.228c0,3.434,2.794,6.228,6.228,6.228c3.434,0,6.228-2.794,6.228-6.228
		C18.229,6.838,15.435,4.044,12.001,4.044z"/>
	<path d="M19.658,24c-0.234,0-0.45-0.106-0.593-0.291c-1.464-1.886-3.576-3.09-5.945-3.389c-0.377-0.047-0.76-0.072-1.137-0.072
		c-1.991,0-3.88,0.65-5.464,1.879c-0.591,0.459-1.124,0.991-1.582,1.583C4.793,23.894,4.577,24,4.344,24
		c-0.165,0-0.329-0.056-0.459-0.157c-0.327-0.254-0.386-0.726-0.133-1.052c0.536-0.691,1.158-1.312,1.848-1.848
		c1.85-1.435,4.056-2.194,6.381-2.194c0.44,0,0.887,0.028,1.327,0.084c2.767,0.349,5.233,1.755,6.943,3.958
		c0.123,0.158,0.177,0.355,0.152,0.554c-0.025,0.199-0.126,0.376-0.284,0.499C19.988,23.944,19.824,24,19.658,24z"/>
	<path d="M9.376,12.75c-1.241,0-2.25-1.009-2.25-2.25V9.75c0-1.241,1.009-2.25,2.25-2.25s2.25,1.009,2.25,2.25v0.75
		C11.626,11.74,10.617,12.75,9.376,12.75z M9.376,9c-0.414,0-0.75,0.336-0.75,0.75v0.75c0,0.414,0.336,0.75,0.75,0.75
		s0.75-0.336,0.75-0.75V9.75C10.126,9.336,9.79,9,9.376,9z"/>
	<path d="M14.626,12.75c-1.241,0-2.25-1.009-2.25-2.25V9.75c0-1.241,1.009-2.25,2.25-2.25s2.25,1.009,2.25,2.25v0.75
		C16.876,11.74,15.867,12.75,14.626,12.75z M14.626,9c-0.414,0-0.75,0.336-0.75,0.75v0.75c0,0.414,0.336,0.75,0.75,0.75
		s0.75-0.336,0.75-0.75V9.75C15.376,9.336,15.04,9,14.626,9z"/>
</g>
</svg>
