<?xml version="1.0" encoding="utf-8"?>
<!-- Generator: Adobe Illustrator 22.1.0, SVG Export Plug-In . SVG Version: 6.00 Build 0)  -->
<svg version="1.1" id="Regular" xmlns="http://www.w3.org/2000/svg" xmlns:xlink="http://www.w3.org/1999/xlink" x="0px" y="0px"
	 viewBox="0 0 24 24" style="enable-background:new 0 0 24 24;" xml:space="preserve">
<title>croquet-ball-hoop</title>
<g>
	<path d="M5.899,20.27c-0.361,0-0.704-0.156-0.942-0.427l-4.569-5.229c-0.453-0.52-0.4-1.311,0.119-1.764l2.238-1.955
		c0.228-0.199,0.52-0.308,0.823-0.308c0.027,0,0.055,0.001,0.082,0.003c0.334,0.023,0.639,0.173,0.858,0.425l1.794,2.053
		L21.181,0.183C21.317,0.065,21.491,0,21.672,0c0.218,0,0.425,0.094,0.567,0.259c0.271,0.313,0.236,0.787-0.076,1.058L7.29,14.196
		l1.788,2.047c0.22,0.252,0.328,0.574,0.306,0.907c-0.022,0.333-0.173,0.637-0.425,0.857l-2.238,1.955
		C6.493,20.161,6.201,20.27,5.899,20.27z M5.922,18.668l1.862-1.626l-2.103-2.408c-0.007-0.008-0.015-0.015-0.021-0.022
		c-0.005-0.006-0.011-0.013-0.016-0.021l-2.099-2.402l-1.862,1.626L5.922,18.668z"/>
	<path d="M12.297,24c-1.447,0-2.625-1.177-2.625-2.625s1.178-2.625,2.625-2.625c1.448,0,2.625,1.177,2.625,2.625
		S13.744,24,12.297,24z M12.297,20.25c-0.62,0-1.125,0.505-1.125,1.125s0.505,1.125,1.125,1.125s1.125-0.505,1.125-1.125
		S12.917,20.25,12.297,20.25z"/>
	<path d="M23.172,24c-0.414,0-0.75-0.336-0.75-0.75v-3.4c0-0.924-0.751-1.675-1.675-1.675s-1.675,0.751-1.675,1.675v3.4
		c0,0.414-0.336,0.75-0.75,0.75s-0.75-0.336-0.75-0.75v-3.4c0-1.751,1.424-3.175,3.175-3.175c1.751,0,3.175,1.424,3.175,3.175v3.4
		C23.922,23.663,23.585,24,23.172,24z"/>
</g>
</svg>
