<?xml version="1.0" encoding="utf-8"?>
<!-- Generator: Adobe Illustrator 22.1.0, SVG Export Plug-In . SVG Version: 6.00 Build 0)  -->
<svg version="1.1" id="Layer_1" xmlns="http://www.w3.org/2000/svg" xmlns:xlink="http://www.w3.org/1999/xlink" x="0px" y="0px"
	 viewBox="0 0 24 24" style="enable-background:new 0 0 24 24;" xml:space="preserve">
<title>crypto-currency-bitcoin-cloud</title>
<g>
	<path d="M18.375,17.251c-0.201,0-0.389-0.079-0.531-0.22c-0.141-0.142-0.219-0.33-0.219-0.531c0-0.413,0.337-0.749,0.75-0.749
		c0.004,0,0.008,0,0.012,0c2.271-0.006,4.116-1.851,4.12-4.119c0.003-2.274-1.844-4.128-4.119-4.131
		c-0.849,0-1.66,0.253-2.352,0.732c-0.126,0.087-0.274,0.133-0.427,0.133c-0.098,0-0.195-0.019-0.286-0.057
		c-0.235-0.097-0.405-0.304-0.452-0.555c-0.599-3.19-3.388-5.505-6.631-5.505c-0.416,0-0.836,0.039-1.249,0.117
		C5.222,2.699,3.685,3.702,2.668,5.19C1.65,6.678,1.273,8.474,1.606,10.246c0.512,2.725,2.6,4.835,5.32,5.375
		c0.406,0.081,0.67,0.477,0.59,0.882c-0.069,0.35-0.378,0.604-0.734,0.604c-0.049,0-0.098-0.005-0.148-0.015
		c-3.324-0.66-5.876-3.238-6.502-6.569c-0.84-4.471,2.114-8.791,6.585-9.631c0.504-0.095,1.018-0.143,1.527-0.143
		c3.604,0,6.77,2.336,7.855,5.736c0.716-0.318,1.497-0.485,2.285-0.485c3.11,0.005,5.629,2.532,5.625,5.633
		c-0.005,3.097-2.528,5.617-5.625,5.617H18.375z"/>
	<path d="M12.751,23.251c-0.414,0-0.75-0.336-0.75-0.75v-0.75h-1.5c-0.414,0-0.75-0.336-0.75-0.75v-9c0-0.414,0.336-0.75,0.75-0.75
		h1.5v-0.75c0-0.414,0.336-0.75,0.75-0.75s0.75,0.336,0.75,0.75v0.75c1.654,0,3,1.346,3,3c0,0.863-0.38,1.685-1.019,2.25
		c0.638,0.565,1.019,1.387,1.019,2.25c0,1.654-1.346,3-3,3v0.75C13.501,22.914,13.164,23.251,12.751,23.251z M13.501,20.251
		c0.827,0,1.5-0.673,1.5-1.5s-0.673-1.5-1.5-1.5h-2.25v3H13.501z M13.501,15.751c0.827,0,1.5-0.673,1.5-1.5s-0.673-1.5-1.5-1.5
		h-2.25v3H13.501z"/>
</g>
</svg>
