<?xml version="1.0" encoding="utf-8"?>
<!-- Generator: Adobe Illustrator 22.1.0, SVG Export Plug-In . SVG Version: 6.00 Build 0)  -->
<svg version="1.1" id="Layer_1" xmlns="http://www.w3.org/2000/svg" xmlns:xlink="http://www.w3.org/1999/xlink" x="0px" y="0px"
	 viewBox="0 0 24 24" style="enable-background:new 0 0 24 24;" xml:space="preserve">
<title>crypto-currency-bitcoin-circle</title>
<g>
	<path d="M12,18.75c-0.414,0-0.75-0.336-0.75-0.75v-0.75H9c-0.414,0-0.75-0.336-0.75-0.75v-9c0-0.414,0.336-0.75,0.75-0.75h2.25V6
		c0-0.414,0.336-0.75,0.75-0.75S12.75,5.586,12.75,6v0.75h0.75c1.654,0,3,1.346,3,3c0,0.863-0.38,1.685-1.019,2.25
		c0.638,0.565,1.019,1.387,1.019,2.25c0,1.654-1.346,3-3,3h-0.75V18C12.75,18.414,12.414,18.75,12,18.75z M13.5,15.75
		c0.827,0,1.5-0.673,1.5-1.5s-0.673-1.5-1.5-1.5H9.75v3H13.5z M13.5,11.25c0.827,0,1.5-0.673,1.5-1.5s-0.673-1.5-1.5-1.5H9.75v3
		H13.5z"/>
	<path d="M12,23.25C5.797,23.25,0.75,18.203,0.75,12C0.75,5.797,5.797,0.75,12,0.75c6.203,0,11.25,5.047,11.25,11.25
		C23.25,18.203,18.203,23.25,12,23.25z M12,2.25c-5.376,0-9.75,4.374-9.75,9.75s4.374,9.75,9.75,9.75s9.75-4.374,9.75-9.75
		S17.376,2.25,12,2.25z"/>
</g>
</svg>
