<?xml version="1.0" encoding="utf-8"?>
<!-- Generator: Adobe Illustrator 22.1.0, SVG Export Plug-In . SVG Version: 6.00 Build 0)  -->
<svg version="1.1" id="Layer_1" xmlns="http://www.w3.org/2000/svg" xmlns:xlink="http://www.w3.org/1999/xlink" x="0px" y="0px"
	 viewBox="0 0 24 24" style="enable-background:new 0 0 24 24;" xml:space="preserve">
<title>crypto-currency-bitcoin-smartphone</title>
<g>
	<path d="M6.25,24c-0.965,0-1.75-0.785-1.75-1.75V1.75C4.5,0.785,5.285,0,6.25,0h11.5c0.965,0,1.75,0.785,1.75,1.75v20.5
		c0,0.965-0.785,1.75-1.75,1.75H6.25z M6,22.25c0,0.138,0.112,0.25,0.25,0.25h11.5c0.138,0,0.25-0.112,0.25-0.25V19.5H6V22.25z
		 M18,18V1.75c0-0.138-0.112-0.25-0.25-0.25H6.25C6.112,1.5,6,1.612,6,1.75V18H18z"/>
	<path d="M12,16.5c-0.414,0-0.75-0.336-0.75-0.75V15h-1.5C9.336,15,9,14.664,9,14.25v-9C9,4.836,9.336,4.5,9.75,4.5h1.5V3.75
		C11.25,3.336,11.586,3,12,3s0.75,0.336,0.75,0.75V4.5c1.654,0,3,1.346,3,3c0,0.863-0.38,1.685-1.019,2.25
		c0.638,0.565,1.019,1.387,1.019,2.25c0,1.654-1.346,3-3,3v0.75C12.75,16.164,12.414,16.5,12,16.5z M12.75,13.5
		c0.827,0,1.5-0.673,1.5-1.5s-0.673-1.5-1.5-1.5H10.5v3H12.75z M12.75,9c0.827,0,1.5-0.673,1.5-1.5S13.577,6,12.75,6H10.5v3H12.75z"
		/>
</g>
</svg>
