<?xml version="1.0" encoding="utf-8"?>
<!-- Generator: Adobe Illustrator 22.1.0, SVG Export Plug-In . SVG Version: 6.00 Build 0)  -->
<svg version="1.1" id="Layer_1" xmlns="http://www.w3.org/2000/svg" xmlns:xlink="http://www.w3.org/1999/xlink" x="0px" y="0px"
	 viewBox="0 0 24 24" style="enable-background:new 0 0 24 24;" xml:space="preserve">
<title>crypto-currency-namecoin</title>
<g>
	<path d="M12,24C5.383,24,0,18.617,0,12C0,5.383,5.383,0,12,0c6.617,0,12,5.383,12,12C24,18.617,18.617,24,12,24z M12,1.5
		C6.21,1.5,1.5,6.21,1.5,12c0,5.79,4.71,10.5,10.5,10.5c5.79,0,10.5-4.71,10.5-10.5C22.5,6.21,17.79,1.5,12,1.5z"/>
	<path d="M14.557,18c-0.051,0-0.101-0.005-0.151-0.015c-0.027-0.006-0.056-0.014-0.083-0.024c-0.014-0.003-0.036-0.011-0.057-0.02
		c0,0-0.005-0.002-0.007-0.003c-0.022-0.01-0.044-0.021-0.065-0.034c-0.024-0.013-0.044-0.024-0.062-0.036
		c-0.014-0.01-0.037-0.028-0.05-0.04c-0.015-0.011-0.037-0.03-0.058-0.051c-0.007-0.006-0.019-0.019-0.019-0.019l-5.53-6.012
		L6.044,17.54C5.926,17.82,5.655,18,5.352,18c-0.1,0-0.198-0.02-0.291-0.059c-0.184-0.077-0.328-0.222-0.403-0.407
		c-0.076-0.186-0.075-0.389,0.003-0.574l4.091-9.75C8.757,7.198,8.777,7.159,8.78,7.154C8.807,7.095,8.855,7.028,8.914,6.97
		c0.004-0.004,0.007-0.008,0.011-0.011c0.013-0.013,0.027-0.025,0.042-0.036C9.03,6.87,9.102,6.828,9.18,6.799
		c0.011-0.004,0.031-0.01,0.043-0.014c0.064-0.021,0.143-0.034,0.222-0.034c0.016,0,0.049,0.002,0.064,0.004
		c0.07,0.004,0.15,0.023,0.224,0.053C9.745,6.813,9.76,6.82,9.773,6.828C9.775,6.829,9.776,6.83,9.778,6.831
		c0.074,0.037,0.14,0.084,0.196,0.141c0.01,0.01,0.02,0.02,0.029,0.031l5.522,6.003l2.431-5.795c0.117-0.279,0.388-0.46,0.691-0.46
		c0.1,0,0.198,0.02,0.291,0.059c0.184,0.077,0.328,0.222,0.404,0.408c0.076,0.186,0.075,0.39-0.003,0.574l-4.091,9.75
		c-0.008,0.019-0.018,0.038-0.029,0.056c-0.003,0.005-0.006,0.01-0.009,0.015c-0.028,0.051-0.062,0.099-0.101,0.142
		c-0.015,0.02-0.032,0.038-0.049,0.053c-0.021,0.019-0.041,0.033-0.06,0.044c-0.04,0.029-0.083,0.055-0.13,0.077
		c-0.026,0.013-0.049,0.023-0.073,0.031c-0.074,0.026-0.149,0.04-0.223,0.042C14.57,18,14.563,18,14.557,18z M14.318,15.882
		l0.569-1.356L9.682,8.868l-0.569,1.356L14.318,15.882z"/>
</g>
</svg>
