<?xml version="1.0" encoding="utf-8"?>
<!-- Generator: Adobe Illustrator 22.1.0, SVG Export Plug-In . SVG Version: 6.00 Build 0)  -->
<svg version="1.1" id="Layer_1" xmlns="http://www.w3.org/2000/svg" xmlns:xlink="http://www.w3.org/1999/xlink" x="0px" y="0px"
	 viewBox="0 0 24 24" style="enable-background:new 0 0 24 24;" xml:space="preserve">
<title>crypto-currency-bitcoin-unlock</title>
<g>
	<path d="M12,23.998c-0.414,0-0.75-0.336-0.75-0.75v-0.75h-1.5c-0.414,0-0.75-0.336-0.75-0.75v-9c0-0.414,0.336-0.75,0.75-0.75h1.5
		v-0.75c0-0.414,0.336-0.75,0.75-0.75s0.75,0.336,0.75,0.75v0.75c1.654,0,3,1.346,3,3c0,0.863-0.38,1.685-1.019,2.25
		c0.638,0.565,1.019,1.387,1.019,2.25c0,1.654-1.346,3-3,3v0.75C12.75,23.661,12.414,23.998,12,23.998z M12.75,20.998
		c0.827,0,1.5-0.673,1.5-1.5s-0.673-1.5-1.5-1.5H10.5v3H12.75z M12.75,16.498c0.827,0,1.5-0.673,1.5-1.5s-0.673-1.5-1.5-1.5H10.5v3
		H12.75z"/>
	<path d="M16.5,23.998c-0.414,0-0.75-0.336-0.75-0.75s0.336-0.75,0.75-0.75h3.75c0.414,0,0.75-0.336,0.75-0.75v-12
		c0-0.414-0.336-0.75-0.75-0.75H3.75C3.336,8.997,3,9.334,3,9.747v12c0,0.414,0.336,0.75,0.75,0.75h3c0.414,0,0.75,0.336,0.75,0.75
		s-0.336,0.75-0.75,0.75h-3c-1.241,0-2.25-1.009-2.25-2.25v-12c0-1.241,1.009-2.25,2.25-2.25H16.5v-1.5
		c0.001-1.72-0.953-3.266-2.492-4.033c-0.633-0.316-1.307-0.476-2.004-0.476c-0.484,0-0.966,0.079-1.432,0.235
		c-1.14,0.381-2.063,1.184-2.6,2.26C7.843,4.239,7.586,4.398,7.3,4.398c-0.115,0-0.231-0.027-0.334-0.079
		C6.786,4.23,6.652,4.076,6.589,3.886c-0.064-0.19-0.049-0.393,0.04-0.573c0.715-1.434,1.946-2.504,3.467-3.013
		c0.62-0.208,1.262-0.313,1.908-0.313c0.931,0,1.83,0.213,2.673,0.634C16.729,1.645,18.002,3.705,18,5.998v1.499h2.25
		c1.241,0,2.25,1.009,2.25,2.25v12c0,1.241-1.009,2.25-2.25,2.25H16.5z"/>
</g>
</svg>
