<?xml version="1.0" encoding="utf-8"?>
<!-- Generator: Adobe Illustrator 22.1.0, SVG Export Plug-In . SVG Version: 6.00 Build 0)  -->
<svg version="1.1" id="Layer_1" xmlns="http://www.w3.org/2000/svg" xmlns:xlink="http://www.w3.org/1999/xlink" x="0px" y="0px"
	 viewBox="0 0 24 24" style="enable-background:new 0 0 24 24;" xml:space="preserve">
<title>crypto-currency-bitcoin-mining</title>
<g>
	<path d="M17.252,24c-3.722,0-6.75-3.028-6.75-6.75s3.028-6.75,6.75-6.75s6.75,3.028,6.75,6.75S20.974,24,17.252,24z M17.252,12
		c-2.895,0-5.25,2.355-5.25,5.25s2.355,5.25,5.25,5.25s5.25-2.355,5.25-5.25S20.147,12,17.252,12z"/>
	<path d="M17.252,21.75c-0.414,0-0.75-0.336-0.75-0.75h-0.75c-0.414,0-0.75-0.336-0.75-0.75v-6c0-0.414,0.336-0.75,0.75-0.75h0.75
		c0-0.414,0.336-0.75,0.75-0.75s0.75,0.336,0.75,0.75c1.241,0,2.25,1.009,2.25,2.25c0,0.555-0.209,1.091-0.575,1.5
		c0.365,0.409,0.575,0.945,0.575,1.5c0,1.241-1.009,2.25-2.25,2.25C18.002,21.413,17.666,21.75,17.252,21.75z M18.002,19.5
		c0.414,0,0.75-0.336,0.75-0.75S18.416,18,18.002,18h-1.5v1.5H18.002z M18.002,16.5c0.414,0,0.75-0.336,0.75-0.75
		S18.416,15,18.002,15h-1.5v1.5H18.002z"/>
	<path d="M2.627,17.606c-0.699,0-1.356-0.271-1.85-0.762c-0.002-0.002-0.004-0.004-0.006-0.006
		c-1.023-1.024-1.023-2.689-0.001-3.712c0.013-0.013,0.027-0.026,0.041-0.038l8.181-7.124C7.28,4.333,5.49,2.778,3.667,1.338
		C3.39,1.119,3.303,0.744,3.456,0.425C3.58,0.167,3.845-0.001,4.131-0.001c0.057,0,0.115,0.007,0.171,0.02
		C4.825,0.14,5.323,0.249,5.8,0.353c3.192,0.698,5.498,1.203,7.88,3.578c1.154,1.133,2.046,2.542,2.579,4.073
		c0.136,0.39-0.071,0.819-0.462,0.955C15.717,8.986,15.634,9,15.55,9c-0.319,0-0.603-0.202-0.708-0.503
		c-0.458-1.314-1.224-2.524-2.217-3.5c-1.713-1.708-3.37-2.303-5.594-2.83c1.174,1.009,2.335,2.069,3.464,3.163
		c0.072,0.042,0.136,0.094,0.191,0.156c0.026,0.029,0.049,0.061,0.07,0.097c0.436,0.426,0.862,0.852,1.268,1.268
		c0.036,0.022,0.069,0.046,0.099,0.072c0.063,0.055,0.116,0.12,0.158,0.194c0.556,0.575,1.052,1.101,1.516,1.609
		c0.279,0.305,0.257,0.781-0.048,1.06C13.61,9.91,13.431,9.98,13.243,9.98c-0.21,0-0.412-0.089-0.554-0.244
		c-0.32-0.35-0.658-0.711-1.048-1.12L4.519,16.8c-0.011,0.013-0.026,0.029-0.041,0.043C3.989,17.333,3.33,17.606,2.627,17.606z
		 M1.837,15.783c0.211,0.209,0.492,0.324,0.791,0.324c0.293,0,0.569-0.111,0.779-0.313l7.187-8.258
		c-0.173-0.175-0.347-0.348-0.522-0.521l-8.256,7.189c-0.422,0.439-0.416,1.142,0.016,1.574C1.833,15.779,1.835,15.781,1.837,15.783
		z"/>
</g>
</svg>
