<?xml version="1.0" encoding="utf-8"?>
<!-- Generator: Adobe Illustrator 22.1.0, SVG Export Plug-In . SVG Version: 6.00 Build 0)  -->
<svg version="1.1" id="Layer_1" xmlns="http://www.w3.org/2000/svg" xmlns:xlink="http://www.w3.org/1999/xlink" x="0px" y="0px"
	 viewBox="0 0 24 24" style="enable-background:new 0 0 24 24;" xml:space="preserve">
<title>crypto-currency-bitcoin-bill</title>
<g>
	<path d="M6,20.25c-1.241,0-2.25-1.009-2.25-2.25v-1.256c-1.258-0.595-2.235-1.675-2.701-2.995c-0.9-2.549,0.283-5.35,2.701-6.493V6
		c0-1.241,1.009-2.25,2.25-2.25h12c1.241,0,2.25,1.009,2.25,2.25v1.256c1.831,0.867,3,2.702,3,4.744c0,2.042-1.169,3.877-3,4.744V18
		c0,1.241-1.009,2.25-2.25,2.25H6z M6,5.25C5.586,5.25,5.25,5.586,5.25,6v1.757c0,0.317-0.201,0.601-0.5,0.707
		c-0.943,0.333-1.7,1.015-2.133,1.92c-0.432,0.905-0.487,1.922-0.154,2.865c0.379,1.074,1.213,1.907,2.286,2.287
		c0.299,0.105,0.5,0.389,0.5,0.707V18c0,0.414,0.336,0.75,0.75,0.75h12c0.414,0,0.75-0.336,0.75-0.75v-1.757
		c0-0.317,0.201-0.601,0.5-0.707c1.496-0.529,2.5-1.95,2.5-3.536c0-1.586-1.004-3.007-2.5-3.536c-0.299-0.106-0.5-0.39-0.5-0.707V6
		c0-0.414-0.336-0.75-0.75-0.75H6z"/>
	<path d="M12,17.25c-0.414,0-0.75-0.336-0.75-0.75v-0.75H10.5c-0.414,0-0.75-0.336-0.75-0.75V9c0-0.414,0.336-0.75,0.75-0.75h0.75
		V7.5c0-0.414,0.336-0.75,0.75-0.75c0.414,0,0.75,0.336,0.75,0.75v0.75c1.24,0,2.25,1.009,2.25,2.25c0,0.555-0.209,1.09-0.575,1.5
		C14.79,12.409,15,12.945,15,13.5c0,1.24-1.009,2.25-2.25,2.25v0.75C12.75,16.914,12.414,17.25,12,17.25z M12.75,14.25
		c0.414,0,0.75-0.336,0.75-0.75s-0.336-0.75-0.75-0.75h-1.5v1.5H12.75z M12.75,11.25c0.414,0,0.75-0.336,0.75-0.75
		s-0.336-0.75-0.75-0.75h-1.5v1.5H12.75z"/>
</g>
</svg>
