<?xml version="1.0" encoding="utf-8"?>
<!-- Generator: Adobe Illustrator 22.1.0, SVG Export Plug-In . SVG Version: 6.00 Build 0)  -->
<svg version="1.1" id="Layer_1" xmlns="http://www.w3.org/2000/svg" xmlns:xlink="http://www.w3.org/1999/xlink" x="0px" y="0px"
	 viewBox="0 0 24 24" style="enable-background:new 0 0 24 24;" xml:space="preserve">
<title>crypto-currency-bitcoin-monitor-mining</title>
<g>
	<path d="M1.5,7.5C0.673,7.5,0,6.827,0,6V1.5C0,0.673,0.673,0,1.5,0h6C8.327,0,9,0.673,9,1.5v3c0,0.414-0.336,0.75-0.75,0.75
		S7.5,4.914,7.5,4.5v-3h-6V6H6c0.414,0,0.75,0.336,0.75,0.75S6.414,7.5,6,7.5H1.5z"/>
	<path d="M1.5,24C0.673,24,0,23.327,0,22.5V18c0-0.827,0.673-1.5,1.5-1.5H6c0.414,0,0.75,0.336,0.75,0.75S6.414,18,6,18H1.5v4.5h6
		v-3c0-0.414,0.336-0.75,0.75-0.75S9,19.086,9,19.5v3C9,23.327,8.327,24,7.5,24H1.5z"/>
	<path d="M18,7.5c-0.414,0-0.75-0.336-0.75-0.75S17.586,6,18,6h4.5V1.5h-6v3c0,0.414-0.336,0.75-0.75,0.75S15,4.914,15,4.5v-3
		C15,0.673,15.673,0,16.5,0h6C23.327,0,24,0.673,24,1.5V6c0,0.827-0.673,1.5-1.5,1.5H18z"/>
	<path d="M16.5,24c-0.827,0-1.5-0.673-1.5-1.5v-3c0-0.414,0.336-0.75,0.75-0.75s0.75,0.336,0.75,0.75v3h6V18H18
		c-0.414,0-0.75-0.336-0.75-0.75S17.586,16.5,18,16.5h4.5c0.827,0,1.5,0.673,1.5,1.5v4.5c0,0.827-0.673,1.5-1.5,1.5H16.5z"/>
	<path d="M11.25,3.75c-0.414,0-0.75-0.336-0.75-0.75s0.336-0.75,0.75-0.75h1.5c0.414,0,0.75,0.336,0.75,0.75s-0.336,0.75-0.75,0.75
		H11.25z"/>
	<path d="M11.25,22.5c-0.414,0-0.75-0.336-0.75-0.75S10.836,21,11.25,21h1.5c0.414,0,0.75,0.336,0.75,0.75s-0.336,0.75-0.75,0.75
		H11.25z"/>
	<path d="M3.75,11.25C3.336,11.25,3,10.914,3,10.5V9.75C3,9.336,3.336,9,3.75,9S4.5,9.336,4.5,9.75v0.75
		C4.5,10.914,4.164,11.25,3.75,11.25z"/>
	<path d="M3.75,15C3.336,15,3,14.664,3,14.25V13.5c0-0.414,0.336-0.75,0.75-0.75S4.5,13.086,4.5,13.5v0.75
		C4.5,14.664,4.164,15,3.75,15z"/>
	<path d="M20.25,11.25c-0.414,0-0.75-0.336-0.75-0.75V9.75C19.5,9.336,19.836,9,20.25,9S21,9.336,21,9.75v0.75
		C21,10.914,20.664,11.25,20.25,11.25z"/>
	<path d="M20.25,15c-0.414,0-0.75-0.336-0.75-0.75V13.5c0-0.414,0.336-0.75,0.75-0.75S21,13.086,21,13.5v0.75
		C21,14.664,20.664,15,20.25,15z"/>
	<path d="M12,18.75c-0.414,0-0.75-0.336-0.75-0.75v-0.75h-1.5C9.336,17.25,9,16.914,9,16.5v-9c0-0.414,0.336-0.75,0.75-0.75h1.5V6
		c0-0.414,0.336-0.75,0.75-0.75S12.75,5.586,12.75,6v0.75c1.654,0,3,1.346,3,3c0,0.863-0.38,1.685-1.019,2.25
		c0.638,0.565,1.019,1.387,1.019,2.25c0,1.654-1.346,3-3,3V18C12.75,18.414,12.414,18.75,12,18.75z M12.75,15.75
		c0.827,0,1.5-0.673,1.5-1.5s-0.673-1.5-1.5-1.5H10.5v3H12.75z M12.75,11.25c0.827,0,1.5-0.673,1.5-1.5s-0.673-1.5-1.5-1.5H10.5v3
		H12.75z"/>
</g>
</svg>
