<?xml version="1.0" encoding="utf-8"?>
<!-- Generator: Adobe Illustrator 22.1.0, SVG Export Plug-In . SVG Version: 6.00 Build 0)  -->
<svg version="1.1" id="Layer_1" xmlns="http://www.w3.org/2000/svg" xmlns:xlink="http://www.w3.org/1999/xlink" x="0px" y="0px"
	 viewBox="0 0 24 24" style="enable-background:new 0 0 24 24;" xml:space="preserve">
<title>crypto-currency-bitcoin-world</title>
<g>
	<path d="M10.503,23.9c-0.034,0-0.069-0.002-0.104-0.007c-0.412-0.055-0.841-0.137-1.271-0.242
		c-0.008-0.001-0.029-0.007-0.051-0.014c-2.648-0.656-4.942-2.164-6.616-4.358c-0.398-0.522-0.76-1.09-1.077-1.688
		c-0.006-0.01-0.011-0.021-0.016-0.031c-0.993-1.89-1.459-4.018-1.349-6.158C0.009,11.35,0.003,11.3,0.003,11.249
		c0-0.084,0.014-0.166,0.042-0.245c0.018-0.217,0.039-0.416,0.065-0.605c0.428-3.177,2.067-5.997,4.615-7.942
		c2.111-1.61,4.62-2.461,7.255-2.461c0.539,0,1.085,0.037,1.624,0.109c0.397,0.053,0.809,0.132,1.226,0.233
		c0.041,0.006,0.081,0.016,0.121,0.03c2.606,0.662,4.944,2.208,6.587,4.357c0.045,0.046,0.084,0.097,0.115,0.154
		c1.2,1.623,1.976,3.531,2.244,5.521c0.055,0.41-0.233,0.788-0.643,0.843c-0.035,0.005-0.067,0.007-0.099,0.007
		c-0.375,0-0.695-0.28-0.744-0.65c-0.221-1.647-0.842-3.233-1.796-4.6h-3.183c0.162,0.739,0.275,1.472,0.338,2.184
		c0.018,0.2-0.043,0.394-0.172,0.548c-0.129,0.154-0.31,0.248-0.509,0.265c-0.022,0.002-0.044,0.003-0.066,0.003
		c-0.391,0-0.712-0.294-0.747-0.684c-0.068-0.768-0.195-1.546-0.379-2.316H8.145c-0.315,1.387-0.521,2.929-0.601,4.5h2.21
		c0.414,0,0.75,0.336,0.75,0.75s-0.336,0.75-0.75,0.75h-2.25c0,1.539,0.118,3.051,0.351,4.5h0.399c0.414,0,0.75,0.336,0.75,0.75
		s-0.336,0.75-0.75,0.75H8.144c0.394,1.733,0.948,3.195,1.615,4.259c0.284,0.062,0.567,0.112,0.844,0.149
		c0.41,0.055,0.698,0.433,0.643,0.843C11.196,23.621,10.877,23.9,10.503,23.9z M3.386,17.999c0.088,0.127,0.178,0.25,0.268,0.369
		c1.078,1.413,2.471,2.515,4.066,3.224c-0.461-1.043-0.837-2.247-1.122-3.594H3.386z M6.328,16.499
		c-0.216-1.438-0.325-2.949-0.325-4.5H1.501c-0.002,1.553,0.345,3.098,1.013,4.5H6.328z M6.04,10.499
		c0.074-1.588,0.261-3.098,0.558-4.5H3.38c-0.926,1.328-1.536,2.878-1.77,4.5H6.04z M19.341,4.499
		c-0.901-0.881-1.951-1.594-3.099-2.103c0.304,0.675,0.57,1.378,0.793,2.103H19.341z M15.46,4.499
		c-0.327-0.962-0.742-1.888-1.235-2.761c-0.28-0.061-0.556-0.11-0.821-0.146c-0.468-0.063-0.942-0.095-1.411-0.095
		c-0.75,0-1.5,0.081-2.232,0.241c-0.464,0.74-0.871,1.667-1.213,2.761H15.46z M6.971,4.499c0.217-0.753,0.467-1.452,0.747-2.088
		C6.98,2.742,6.282,3.157,5.635,3.65C5.291,3.912,4.963,4.196,4.653,4.499H6.971z"/>
	<path d="M17.253,23.999c-3.722,0-6.75-3.028-6.75-6.75s3.028-6.75,6.75-6.75s6.75,3.028,6.75,6.75S20.975,23.999,17.253,23.999z
		 M17.253,11.999c-2.895,0-5.25,2.355-5.25,5.25s2.355,5.25,5.25,5.25s5.25-2.355,5.25-5.25S20.148,11.999,17.253,11.999z"/>
	<path d="M17.253,21.749c-0.414,0-0.75-0.336-0.75-0.75h-0.75c-0.414,0-0.75-0.336-0.75-0.75v-6c0-0.414,0.336-0.75,0.75-0.75h0.75
		c0-0.414,0.336-0.75,0.75-0.75s0.75,0.336,0.75,0.75c1.241,0,2.25,1.009,2.25,2.25c0,0.555-0.209,1.091-0.575,1.5
		c0.365,0.409,0.575,0.945,0.575,1.5c0,1.241-1.009,2.25-2.25,2.25C18.003,21.413,17.667,21.749,17.253,21.749z M18.003,19.499
		c0.414,0,0.75-0.336,0.75-0.75s-0.336-0.75-0.75-0.75h-1.5v1.5H18.003z M18.003,16.499c0.414,0,0.75-0.336,0.75-0.75
		s-0.336-0.75-0.75-0.75h-1.5v1.5H18.003z"/>
</g>
</svg>
