<?xml version="1.0" encoding="utf-8"?>
<!-- Generator: Adobe Illustrator 22.1.0, SVG Export Plug-In . SVG Version: 6.00 Build 0)  -->
<svg version="1.1" id="Layer_1" xmlns="http://www.w3.org/2000/svg" xmlns:xlink="http://www.w3.org/1999/xlink" x="0px" y="0px"
	 viewBox="0 0 24 24" style="enable-background:new 0 0 24 24;" xml:space="preserve">
<title>crypto-currency-bitcoin-monitor-shield</title>
<g>
	<path d="M8.25,24c-0.414,0-0.75-0.336-0.75-0.75s0.336-0.75,0.75-0.75h3v-2.25h-9C1.009,20.25,0,19.241,0,18V6.75
		C0,5.509,1.009,4.5,2.25,4.5C2.664,4.5,3,4.836,3,5.25S2.664,6,2.25,6S1.5,6.336,1.5,6.75V18c0,0.414,0.336,0.75,0.75,0.75h19.5
		c0.414,0,0.75-0.336,0.75-0.75V6.75C22.5,6.336,22.164,6,21.75,6S21,5.664,21,5.25s0.336-0.75,0.75-0.75
		C22.991,4.5,24,5.509,24,6.75V18c0,1.241-1.009,2.25-2.25,2.25h-9v2.25h3c0.414,0,0.75,0.336,0.75,0.75S16.164,24,15.75,24H8.25z"
		/>
	<path d="M12,17.25c-0.035,0-0.07-0.002-0.104-0.007c-4.138-0.585-7.248-4.04-7.395-8.216l0-6.776C4.5,1.009,5.509,0,6.75,0h10.5
		c1.241,0,2.25,1.009,2.25,2.25c0,0,0,6.777-0.001,6.784c-0.147,4.168-3.257,7.624-7.394,8.209C12.07,17.248,12.035,17.25,12,17.25z
		 M6.75,1.5C6.336,1.5,6,1.836,6,2.25V9c0.12,3.384,2.64,6.216,6,6.742c3.358-0.525,5.877-3.36,6-6.762l0-6.73
		c0-0.414-0.336-0.75-0.75-0.75H6.75z"/>
	<path d="M12,12c-0.414,0-0.75-0.336-0.75-0.75H10.5c-0.414,0-0.75-0.336-0.75-0.75v-6c0-0.414,0.336-0.75,0.75-0.75h0.75
		C11.25,3.336,11.586,3,12,3s0.75,0.336,0.75,0.75C13.991,3.75,15,4.759,15,6c0,0.555-0.209,1.09-0.575,1.5
		C14.791,7.91,15,8.445,15,9c0,1.241-1.009,2.25-2.25,2.25C12.75,11.664,12.414,12,12,12z M12.75,9.75c0.414,0,0.75-0.336,0.75-0.75
		s-0.336-0.75-0.75-0.75h-1.5v1.5H12.75z M12.75,6.75c0.414,0,0.75-0.336,0.75-0.75s-0.336-0.75-0.75-0.75h-1.5v1.5H12.75z"/>
</g>
</svg>
