<?xml version="1.0" encoding="utf-8"?>
<!-- Generator: Adobe Illustrator 22.1.0, SVG Export Plug-In . SVG Version: 6.00 Build 0)  -->
<svg version="1.1" id="Layer_1" xmlns="http://www.w3.org/2000/svg" xmlns:xlink="http://www.w3.org/1999/xlink" x="0px" y="0px"
	 viewBox="0 0 24 24" style="enable-background:new 0 0 24 24;" xml:space="preserve">
<title>crypto-currency-bitcoin-stack-coins</title>
<g>
	<path d="M17.25,21.75c-3.722,0-6.75-3.028-6.75-6.75s3.028-6.75,6.75-6.75S24,11.278,24,15S20.972,21.75,17.25,21.75z M17.25,9.75
		C14.355,9.75,12,12.105,12,15c0,2.895,2.355,5.25,5.25,5.25S22.5,17.895,22.5,15C22.5,12.105,20.145,9.75,17.25,9.75z"/>
	<path d="M17.25,19.5c-0.414,0-0.75-0.336-0.75-0.75h-0.75C15.336,18.75,15,18.414,15,18v-6c0-0.414,0.336-0.75,0.75-0.75h0.75
		c0-0.414,0.336-0.75,0.75-0.75S18,10.836,18,11.25c1.241,0,2.25,1.009,2.25,2.25c0,0.555-0.209,1.091-0.575,1.5
		c0.365,0.409,0.575,0.945,0.575,1.5c0,1.241-1.009,2.25-2.25,2.25C18,19.164,17.664,19.5,17.25,19.5z M18,17.25
		c0.414,0,0.75-0.336,0.75-0.75s-0.336-0.75-0.75-0.75h-1.5v1.5H18z M18,14.25c0.414,0,0.75-0.336,0.75-0.75s-0.336-0.75-0.75-0.75
		h-1.5v1.5H18z"/>
	<path d="M3,21.75c-0.827,0-1.5-0.673-1.5-1.5v-3c0-0.827,0.673-1.5,1.5-1.5v-3H1.5c-0.827,0-1.5-0.673-1.5-1.5v-3
		c0-0.827,0.673-1.5,1.5-1.5v-3c0-0.827,0.673-1.5,1.5-1.5h10.5c0.827,0,1.5,0.673,1.5,1.5v3c0,0.414-0.336,0.75-0.75,0.75
		S13.5,7.164,13.5,6.75v-3H3v3h8.25C11.664,6.75,12,7.086,12,7.5s-0.336,0.75-0.75,0.75H1.5v3H9c0.414,0,0.75,0.336,0.75,0.75
		S9.414,12.75,9,12.75H4.5v3h3.75C8.664,15.75,9,16.086,9,16.5s-0.336,0.75-0.75,0.75H3v3h7.5c0.414,0,0.75,0.336,0.75,0.75
		s-0.336,0.75-0.75,0.75H3z"/>
</g>
</svg>
