<?xml version="1.0" encoding="utf-8"?>
<!-- Generator: Adobe Illustrator 22.1.0, SVG Export Plug-In . SVG Version: 6.00 Build 0)  -->
<svg version="1.1" id="Layer_1" xmlns="http://www.w3.org/2000/svg" xmlns:xlink="http://www.w3.org/1999/xlink" x="0px" y="0px"
	 viewBox="0 0 24 24" style="enable-background:new 0 0 24 24;" xml:space="preserve">
<title>crypto-currency-bitcoin-give</title>
<g>
	<path d="M0.754,23.996c-0.414,0-0.75-0.336-0.75-0.75v-9c0-0.414,0.336-0.75,0.75-0.75s0.75,0.336,0.75,0.75v0.75h6
		c1.8,0,3.324,1.268,3.675,3h3.075c2.068,0,3.75,1.682,3.75,3.75c0,0.414-0.336,0.75-0.75,0.75H1.504v0.75
		C1.504,23.66,1.167,23.996,0.754,23.996z M16.375,20.996c-0.313-0.879-1.159-1.5-2.121-1.5h-7.5c-0.414,0-0.75-0.336-0.75-0.75
		s0.336-0.75,0.75-0.75h2.868c-0.313-0.879-1.158-1.5-2.118-1.5h-6v4.5H16.375z"/>
	<path d="M18.564,18.399c-0.274,0-0.527-0.149-0.658-0.39c-0.096-0.175-0.118-0.378-0.062-0.571s0.184-0.351,0.36-0.448
		c1.933-1.058,3.338-2.806,3.956-4.921c0.618-2.115,0.376-4.344-0.682-6.277c-1.058-1.933-2.806-3.338-4.921-3.956
		c-0.761-0.223-1.544-0.335-2.327-0.335c-1.368,0-2.734,0.352-3.951,1.018c-3.357,1.838-5.001,5.701-4,9.395
		c0.108,0.399-0.129,0.812-0.528,0.92c-0.065,0.018-0.13,0.026-0.196,0.026c-0.338,0-0.636-0.228-0.724-0.554
		C3.647,7.941,5.592,3.375,9.559,1.203c1.437-0.787,3.051-1.202,4.67-1.202c0.925,0,1.85,0.133,2.749,0.396
		c2.5,0.731,4.565,2.391,5.816,4.676c1.251,2.284,1.537,4.919,0.806,7.419c-0.731,2.5-2.391,4.565-4.675,5.816
		C18.814,18.367,18.689,18.399,18.564,18.399z"/>
	<path d="M14.254,16.496c-0.414,0-0.75-0.336-0.75-0.75v-0.75h-1.5c-0.414,0-0.75-0.336-0.75-0.75v-9c0-0.414,0.336-0.75,0.75-0.75
		h1.5v-0.75c0-0.414,0.336-0.75,0.75-0.75s0.75,0.336,0.75,0.75v0.75c1.654,0,3,1.346,3,3c0,0.863-0.38,1.685-1.019,2.25
		c0.638,0.565,1.019,1.387,1.019,2.25c0,1.654-1.346,3-3,3v0.75C15.004,16.16,14.667,16.496,14.254,16.496z M15.004,13.496
		c0.827,0,1.5-0.673,1.5-1.5s-0.673-1.5-1.5-1.5h-2.25v3H15.004z M15.004,8.996c0.827,0,1.5-0.673,1.5-1.5s-0.673-1.5-1.5-1.5h-2.25
		v3H15.004z"/>
</g>
</svg>
