<?xml version="1.0" encoding="utf-8"?>
<!-- Generator: Adobe Illustrator 22.1.0, SVG Export Plug-In . SVG Version: 6.00 Build 0)  -->
<svg version="1.1" id="Layer_1" xmlns="http://www.w3.org/2000/svg" xmlns:xlink="http://www.w3.org/1999/xlink" x="0px" y="0px"
	 viewBox="0 0 24 24" style="enable-background:new 0 0 24 24;" xml:space="preserve">
<title>crypto-currency-infinitecoin</title>
<g>
	<path d="M12,24C5.383,24,0,18.617,0,12C0,5.383,5.383,0,12,0c6.617,0,12,5.383,12,12C24,18.617,18.617,24,12,24z M12,1.5
		C6.21,1.5,1.5,6.21,1.5,12c0,5.79,4.71,10.5,10.5,10.5c5.79,0,10.5-4.71,10.5-10.5C22.5,6.21,17.79,1.5,12,1.5z"/>
	<path d="M17.133,15.886c-1.565,0-3.908-1.825-5.065-2.817c-1.157,0.992-3.5,2.817-5.068,2.817c-1.021,0-1.979-0.397-2.7-1.117
		c-0.721-0.721-1.119-1.68-1.119-2.7C3.18,9.964,4.892,8.251,6.997,8.25c1.571,0,3.914,1.826,5.071,2.818
		c1.157-0.992,3.5-2.818,5.065-2.818c1.022,0,1.981,0.398,2.702,1.119c0.721,0.722,1.117,1.68,1.117,2.7s-0.398,1.979-1.119,2.699
		c-0.721,0.72-1.679,1.117-2.698,1.117H17.133z M13.209,12.068c1.428,1.195,3.114,2.318,3.924,2.318c0.62,0,1.202-0.241,1.639-0.678
		c0.438-0.438,0.679-1.02,0.68-1.639c0-0.619-0.241-1.202-0.678-1.64c-0.438-0.438-1.02-0.679-1.639-0.679
		C16.324,9.75,14.637,10.873,13.209,12.068z M7,9.75c-0.621,0-1.203,0.242-1.641,0.679c-0.438,0.438-0.679,1.02-0.678,1.64
		c0,1.278,1.04,2.317,2.318,2.317c0.814,0,2.501-1.123,3.928-2.318C9.5,10.873,7.813,9.75,7,9.75L7,9.75z"/>
</g>
</svg>
