<?xml version="1.0" encoding="utf-8"?>
<!-- Generator: Adobe Illustrator 22.1.0, SVG Export Plug-In . SVG Version: 6.00 Build 0)  -->
<svg version="1.1" id="Layer_1" xmlns="http://www.w3.org/2000/svg" xmlns:xlink="http://www.w3.org/1999/xlink" x="0px" y="0px"
	 viewBox="0 0 24 24" style="enable-background:new 0 0 24 24;" xml:space="preserve">
<title>crypto-currency-peercoin</title>
<g>
	<path d="M12,24C5.383,24,0,18.617,0,12C0,5.383,5.383,0,12,0c6.617,0,12,5.383,12,12C24,18.617,18.617,24,12,24z M12,1.5
		C6.21,1.5,1.5,6.21,1.5,12c0,5.79,4.71,10.5,10.5,10.5c5.79,0,10.5-4.71,10.5-10.5C22.5,6.21,17.79,1.5,12,1.5z"/>
	<path d="M10.5,19.909c-0.414,0-0.75-0.336-0.75-0.75V17.25h-1.5v1.909c0,0.414-0.336,0.75-0.75,0.75s-0.75-0.336-0.75-0.75V17.25H6
		c-0.414,0-0.75-0.336-0.75-0.75S5.586,15.75,6,15.75h0.75V6.562C6.718,6.058,6.88,5.568,7.208,5.183
		c0.335-0.395,0.804-0.635,1.321-0.677C8.565,4.503,8.604,4.501,8.644,4.5l5.981,0c2.688,0,4.875,2.187,4.875,4.875
		s-2.187,4.875-4.875,4.875H11.25v1.5H12c0.414,0,0.75,0.336,0.75,0.75s-0.336,0.75-0.75,0.75h-0.75v1.909
		C11.25,19.573,10.914,19.909,10.5,19.909z M9.75,15.75V6H8.669C8.53,6.011,8.427,6.064,8.351,6.154
		c-0.076,0.089-0.113,0.203-0.103,0.32C8.249,6.494,8.25,6.514,8.25,6.535v9.215H9.75z M14.625,12.75
		c1.861,0,3.375-1.514,3.375-3.375S16.486,6,14.625,6H11.25v6.75H14.625z"/>
	<path d="M14.536,11.763c-0.355,0-0.704-0.097-1.009-0.281c-0.019-0.012-0.037-0.023-0.053-0.036
		c-0.598-0.433-0.956-1.134-0.954-1.874V7.727c0-0.414,0.336-0.75,0.75-0.75c1.396,0,2.649,0.883,3.118,2.198
		c0.169,0.509,0.132,1.042-0.103,1.509s-0.636,0.815-1.132,0.98C14.953,11.73,14.746,11.763,14.536,11.763z M14.327,10.212
		c0.064,0.033,0.136,0.051,0.209,0.051c0.049,0,0.097-0.008,0.144-0.023c0.115-0.038,0.209-0.119,0.264-0.229
		c0.054-0.109,0.063-0.232,0.025-0.348c-0.163-0.456-0.51-0.824-0.95-1.024v0.934C14.019,9.822,14.134,10.059,14.327,10.212z"/>
</g>
</svg>
