<?xml version="1.0" encoding="utf-8"?>
<!-- Generator: Adobe Illustrator 22.1.0, SVG Export Plug-In . SVG Version: 6.00 Build 0)  -->
<svg version="1.1" id="Regular" xmlns="http://www.w3.org/2000/svg" xmlns:xlink="http://www.w3.org/1999/xlink" x="0px" y="0px"
	 viewBox="0 0 24 24" style="enable-background:new 0 0 24 24;" xml:space="preserve">
<title>cupcake</title>
<g>
	<path d="M7.377,24c-1.092,0-2.019-0.744-2.255-1.81l-1.065-4.772c-0.508-0.215-0.961-0.521-1.349-0.911
		c-0.8-0.805-1.239-1.874-1.235-3.009c0-3.306,2.518-5.879,6.754-6.923c0.079-1.713,1.316-3.151,2.984-3.495
		c0.053-0.634,0.28-1.232,0.666-1.746c0.545-0.727,1.341-1.198,2.241-1.326c0.159-0.023,0.32-0.034,0.48-0.034
		c0.16,0,0.322,0.011,0.481,0.034c0.409,0.059,0.695,0.439,0.636,0.849C15.663,1.223,15.343,1.5,14.972,1.5
		c-0.034,0-0.069-0.002-0.104-0.007c-0.09-0.013-0.18-0.019-0.27-0.019s-0.18,0.006-0.268,0.019
		c-0.503,0.072-0.948,0.335-1.253,0.741c-0.188,0.251-0.309,0.537-0.356,0.841c1.678,0.338,2.919,1.773,2.998,3.501
		c4.236,1.045,6.754,3.618,6.754,6.925c0.005,1.623-0.895,3.084-2.348,3.812c-0.077,0.038-0.155,0.074-0.238,0.109l-1.055,4.77
		C18.595,23.255,17.668,24,16.577,24H7.377z M16.577,22.5c0.382,0,0.708-0.261,0.791-0.635l0.907-4.103c-0.016,0-0.033,0-0.049,0
		c-0.457,0-0.909-0.074-1.346-0.22c-0.337-0.112-0.655-0.264-0.951-0.453l-0.833,5.41H16.577z M13.579,22.5l0.851-5.53
		c-0.183,0.133-0.375,0.249-0.573,0.348c-0.589,0.293-1.22,0.441-1.875,0.441c-0.899,0-1.756-0.279-2.467-0.787l0.85,5.528H13.579z
		 M6.586,21.865C6.669,22.239,6.994,22.5,7.376,22.5h1.472l-0.832-5.411c-0.679,0.436-1.473,0.671-2.293,0.671
		c-0.018,0-0.036,0-0.053,0L6.586,21.865z M4.955,16.151c0.248,0.072,0.503,0.109,0.759,0.11c0.891,0,1.696-0.406,2.217-1.113
		c0.002-0.004,0.012-0.017,0.022-0.03c0.084-0.117,0.163-0.247,0.228-0.376c0.127-0.255,0.385-0.414,0.671-0.414
		c0.3,0.009,0.547,0.164,0.672,0.417c0.465,0.936,1.405,1.517,2.453,1.517c0.423,0,0.831-0.096,1.212-0.286
		c0.531-0.264,0.968-0.701,1.231-1.232c0.128-0.257,0.385-0.416,0.671-0.416c0.287,0,0.544,0.159,0.672,0.414
		c0.469,0.937,1.413,1.52,2.464,1.52c0.428,0,0.841-0.098,1.226-0.291c0.94-0.47,1.522-1.416,1.519-2.468
		c0-0.963-0.402-4.147-5.491-5.439c-0.543,1.452-1.937,2.437-3.509,2.437c-1.572,0-2.966-0.986-3.509-2.438
		C3.375,9.354,2.973,12.538,2.973,13.5c-0.002,0.736,0.282,1.428,0.799,1.949c0.311,0.313,0.696,0.549,1.113,0.681
		C4.909,16.137,4.932,16.143,4.955,16.151z M11.973,4.5c-1.241,0-2.25,1.009-2.25,2.25S10.732,9,11.973,9s2.25-1.009,2.25-2.25
		S13.214,4.5,11.973,4.5z"/>
</g>
</svg>
