<?xml version="1.0" encoding="utf-8"?>
<!-- Generator: Adobe Illustrator 22.1.0, SVG Export Plug-In . SVG Version: 6.00 Build 0)  -->
<svg version="1.1" id="Layer_1" xmlns="http://www.w3.org/2000/svg" xmlns:xlink="http://www.w3.org/1999/xlink" x="0px" y="0px"
	 viewBox="0 0 24 24" style="enable-background:new 0 0 24 24;" xml:space="preserve">
<title>currency-user-exchange</title>
<g>
	<path d="M12,6.75c-1.861,0-3.375-1.514-3.375-3.375S10.139,0,12,0c1.861,0,3.375,1.514,3.375,3.375S13.861,6.75,12,6.75z M12,1.5
		c-1.034,0-1.875,0.841-1.875,1.875S10.966,5.25,12,5.25s1.875-0.841,1.875-1.875S13.034,1.5,12,1.5z"/>
	<path d="M21,13.5c-0.414,0-0.75-0.336-0.75-0.75S19.914,12,19.5,12h-15c-0.414,0-0.75,0.336-0.75,0.75S3.414,13.5,3,13.5
		s-0.75-0.336-0.75-0.75c0-1.241,1.009-2.25,2.25-2.25h2.308C7.176,7.95,9.393,6,12,6s4.824,1.95,5.192,4.5H19.5
		c1.241,0,2.25,1.009,2.25,2.25C21.75,13.164,21.414,13.5,21,13.5z M15.672,10.5c-0.352-1.712-1.892-3-3.672-3s-3.32,1.288-3.672,3
		H15.672z"/>
	<path d="M3,24c-0.414,0-0.75-0.336-0.75-0.75V22.5H1.5c-0.414,0-0.75-0.336-0.75-0.75S1.086,21,1.5,21h2.25
		c0-0.244-0.35-0.461-1.085-0.829C1.812,19.744,0.75,19.214,0.75,18c0.005-0.828,0.676-1.5,1.495-1.5H2.25v-0.75
		C2.25,15.336,2.586,15,3,15s0.75,0.336,0.75,0.75v0.75H4.5c0.414,0,0.75,0.336,0.75,0.75S4.914,18,4.5,18H2.25
		c0,0.242,0.35,0.461,1.085,0.829C4.188,19.256,5.25,19.786,5.25,21c0,0.827-0.673,1.5-1.5,1.5v0.75C3.75,23.664,3.414,24,3,24z"/>
	<path d="M12,24c-0.414,0-0.75-0.336-0.75-0.75V21H10.5c-0.414,0-0.75-0.336-0.75-0.75s0.336-0.75,0.75-0.75h0.75v-0.129
		c-0.885-0.313-1.5-1.161-1.5-2.121v-1.5c0-0.414,0.336-0.75,0.75-0.75s0.75,0.336,0.75,0.75v1.5c0,0.414,0.336,0.75,0.75,0.75
		s0.75-0.336,0.75-0.75v-1.5c0-0.414,0.336-0.75,0.75-0.75s0.75,0.336,0.75,0.75v1.5c0,0.96-0.615,1.808-1.5,2.121V19.5h0.75
		c0.414,0,0.75,0.336,0.75,0.75S13.914,21,13.5,21h-0.75v2.25C12.75,23.664,12.414,24,12,24z"/>
	<path d="M18,24c-0.414,0-0.75-0.336-0.75-0.75S17.586,22.5,18,22.5s0.75-0.336,0.75-0.75V21H18c-0.414,0-0.75-0.336-0.75-0.75
		S17.586,19.5,18,19.5h0.75v-2.25c0-1.241,1.009-2.25,2.25-2.25s2.25,1.009,2.25,2.25c0,0.414-0.336,0.75-0.75,0.75
		s-0.75-0.336-0.75-0.75S21.414,16.5,21,16.5s-0.75,0.336-0.75,0.75v2.25h2.25c0.414,0,0.75,0.336,0.75,0.75S22.914,21,22.5,21
		h-2.25v0.75c0,0.259-0.043,0.512-0.128,0.75H22.5c0.414,0,0.75,0.336,0.75,0.75S22.914,24,22.5,24H18z"/>
</g>
</svg>
