<?xml version="1.0" encoding="utf-8"?>
<!-- Generator: Adobe Illustrator 22.1.0, SVG Export Plug-In . SVG Version: 6.00 Build 0)  -->
<svg version="1.1" id="Layer_1" xmlns="http://www.w3.org/2000/svg" xmlns:xlink="http://www.w3.org/1999/xlink" x="0px" y="0px"
	 viewBox="0 0 24 24" style="enable-background:new 0 0 24 24;" xml:space="preserve">
<title>currency-pound-increase</title>
<g>
	<path d="M1.5,24.003c-0.2,0-0.389-0.078-0.53-0.22c-0.141-0.141-0.219-0.329-0.22-0.53s0.078-0.389,0.219-0.531l5.828-5.832
		c0.558-0.558,1.333-0.878,2.125-0.878c0.26,0,0.52,0.034,0.771,0.101l5.713,1.528c0.155,0.046,0.303,0.068,0.452,0.068
		c0.401,0,0.778-0.156,1.061-0.438l3.77-3.772H18c-0.414,0-0.75-0.336-0.75-0.75s0.336-0.75,0.75-0.75h4.5
		c0.087,0,0.174,0.016,0.258,0.047c0.006,0.002,0.011,0.004,0.016,0.006c0.195,0.08,0.344,0.229,0.419,0.412
		c0.003,0.008,0.006,0.017,0.01,0.026c0.031,0.084,0.047,0.172,0.047,0.259v4.5c0,0.414-0.336,0.75-0.75,0.75s-0.75-0.336-0.75-0.75
		V14.56l-3.77,3.771c-0.567,0.567-1.32,0.879-2.121,0.879c-0.292,0-0.581-0.042-0.861-0.126l-5.692-1.522
		c-0.125-0.033-0.254-0.05-0.384-0.05c-0.397,0-0.785,0.16-1.064,0.439l-5.828,5.832C1.889,23.925,1.7,24.003,1.5,24.003z"/>
	<path d="M6,15.002c-0.163,0-0.319-0.052-0.45-0.15c-2.532-1.9-3.763-5.132-3.136-8.234c0.775-3.834,4.175-6.617,8.084-6.617
		c0,0,0,0,0,0c0.546,0,1.097,0.055,1.636,0.164c4.459,0.901,7.353,5.262,6.453,9.72c-0.071,0.349-0.38,0.602-0.736,0.602
		c-0.049,0-0.099-0.005-0.149-0.015c-0.196-0.04-0.365-0.153-0.476-0.32c-0.111-0.167-0.15-0.367-0.111-0.563
		c0.737-3.648-1.631-7.216-5.279-7.953c-0.442-0.089-0.892-0.135-1.339-0.135c-3.198,0-5.98,2.277-6.614,5.414
		c-0.513,2.538,0.494,5.182,2.566,6.736c0.16,0.12,0.264,0.296,0.293,0.494c0.028,0.198-0.022,0.396-0.143,0.556
		C6.459,14.89,6.235,15.002,6,15.002z"/>
	<path d="M7.5,12.001c-0.414,0-0.75-0.336-0.75-0.75s0.336-0.75,0.75-0.75s0.75-0.336,0.75-0.75V8.999H7.5
		c-0.414,0-0.75-0.336-0.75-0.75s0.336-0.75,0.75-0.75h0.75V6.001c0-1.241,1.009-2.25,2.25-2.25s2.25,1.009,2.25,2.25
		c0,0.414-0.336,0.75-0.75,0.75s-0.75-0.336-0.75-0.75s-0.336-0.75-0.75-0.75s-0.75,0.336-0.75,0.75v1.498h0.75
		c0.414,0,0.75,0.336,0.75,0.75s-0.336,0.75-0.75,0.75H9.75v0.752c0,0.259-0.043,0.512-0.128,0.75H12c0.414,0,0.75,0.336,0.75,0.75
		s-0.336,0.75-0.75,0.75H7.5z"/>
</g>
</svg>
