<?xml version="1.0" encoding="utf-8"?>
<!-- Generator: Adobe Illustrator 22.1.0, SVG Export Plug-In . SVG Version: 6.00 Build 0)  -->
<svg version="1.1" id="Layer_1" xmlns="http://www.w3.org/2000/svg" xmlns:xlink="http://www.w3.org/1999/xlink" x="0px" y="0px"
	 viewBox="0 0 24 24" style="enable-background:new 0 0 24 24;" xml:space="preserve">
<title>currency-euro</title>
<g>
	<path d="M19.5,24c-5.514,0-10.249-3.685-11.617-9H4.5c-0.414,0-0.75-0.336-0.75-0.75S4.086,13.5,4.5,13.5h3.095
		C7.532,12.999,7.5,12.496,7.5,12c0-0.496,0.032-0.999,0.095-1.5H4.5c-0.414,0-0.75-0.336-0.75-0.75S4.086,9,4.5,9h3.383
		C9.251,3.685,13.986,0,19.5,0c0.414,0,0.75,0.336,0.75,0.75S19.914,1.5,19.5,1.5c-4.67,0-8.741,3.06-10.062,7.5H16.5
		c0.414,0,0.75,0.336,0.75,0.75s-0.336,0.75-0.75,0.75H9.11C9.037,11.003,9,11.507,9,12s0.037,0.997,0.11,1.5h4.39
		c0.414,0,0.75,0.336,0.75,0.75S13.914,15,13.5,15H9.438c1.321,4.44,5.391,7.5,10.062,7.5c0.414,0,0.75,0.336,0.75,0.75
		S19.914,24,19.5,24z"/>
</g>
</svg>
