<?xml version="1.0" encoding="utf-8"?>
<!-- Generator: Adobe Illustrator 22.1.0, SVG Export Plug-In . SVG Version: 6.00 Build 0)  -->
<svg version="1.1" id="Layer_1" xmlns="http://www.w3.org/2000/svg" xmlns:xlink="http://www.w3.org/1999/xlink" x="0px" y="0px"
	 viewBox="0 0 24 24" style="enable-background:new 0 0 24 24;" xml:space="preserve">
<title>data-file-bars</title>
<g>
	<path d="M5.955,19.5c-0.414,0-0.75-0.336-0.75-0.75V7.5c0-0.414,0.336-0.75,0.75-0.75s0.75,0.336,0.75,0.75V18h1.5v-7.5
		c0-0.827,0.673-1.5,1.5-1.5h1.5c0.827,0,1.5,0.673,1.5,1.5V18h1.5v-4.5c0-0.827,0.673-1.5,1.5-1.5h1.5c0.827,0,1.5,0.673,1.5,1.5
		V18h0.75c0.414,0,0.75,0.336,0.75,0.75s-0.336,0.75-0.75,0.75H5.955z M17.205,18v-4.5h-1.5l0,4.5H17.205z M11.205,18v-7.5h-1.5
		l0,7.5H11.205z"/>
	<path d="M2.955,24c-1.241,0-2.25-1.009-2.25-2.25V2.25C0.705,1.009,1.714,0,2.955,0h15c0.59,0.001,1.147,0.228,1.568,0.639
		l2.996,2.879c0.435,0.424,0.683,1.011,0.684,1.613l0.002,16.619c0,1.241-1.009,2.25-2.25,2.25H2.955z M2.955,1.5
		c-0.414,0-0.75,0.336-0.75,0.75v19.5c0,0.414,0.336,0.75,0.75,0.75h18c0.414,0,0.75-0.336,0.75-0.75L21.703,5.132
		c0-0.2-0.083-0.396-0.227-0.536L18.48,1.717C18.337,1.577,18.15,1.5,17.954,1.5H2.955z"/>
</g>
</svg>
