<?xml version="1.0" encoding="utf-8"?>
<!-- Generator: Adobe Illustrator 22.1.0, SVG Export Plug-In . SVG Version: 6.00 Build 0)  -->
<svg version="1.1" id="Layer_1" xmlns="http://www.w3.org/2000/svg" xmlns:xlink="http://www.w3.org/1999/xlink" x="0px" y="0px"
	 viewBox="0 0 24 24" style="enable-background:new 0 0 24 24;" xml:space="preserve">
<title>data-file-star</title>
<g>
	<path d="M13.396,24.001c-0.134,0-0.268-0.018-0.4-0.053c-0.396-0.106-0.727-0.36-0.932-0.715c-0.238-0.411-0.27-0.92-0.086-1.359
		l1.197-2.76l-2.093-1.465c-0.022-0.015-0.046-0.034-0.069-0.054c-0.611-0.546-0.665-1.487-0.12-2.097
		C11.176,15.181,11.578,15,11.997,15l0.055,0.001l2.445,0l1.355-3.585c0.01-0.025,0.021-0.051,0.034-0.076
		c0.265-0.519,0.792-0.841,1.376-0.841c0.242,0,0.484,0.058,0.701,0.169c0.29,0.148,0.522,0.38,0.671,0.671
		c0.012,0.024,0.025,0.051,0.035,0.079l1.351,3.582l2.505,0c0.798,0,1.447,0.628,1.476,1.431c0.016,0.444-0.165,0.867-0.495,1.162
		c-0.023,0.02-0.046,0.039-0.071,0.056l-2.091,1.464l1.193,2.751c0.161,0.383,0.163,0.801,0.008,1.181
		c-0.155,0.38-0.448,0.677-0.826,0.835c-0.188,0.079-0.387,0.118-0.592,0.118l0,0c-0.27,0-0.536-0.071-0.768-0.204l-3.099-1.75
		l-3.105,1.753C13.925,23.93,13.662,24.001,13.396,24.001z M17.259,20.434c0.129,0,0.256,0.033,0.369,0.097l3.474,1.961l0.025,0.008
		c0.026-0.009,0.036-0.032,0.03-0.046l-1.433-3.305c-0.142-0.325-0.033-0.709,0.258-0.913L22.46,16.5l-2.96,0.001
		c-0.311,0-0.593-0.195-0.702-0.486l-1.507-3.998c-0.01-0.006-0.031-0.018-0.031-0.018c-0.015,0.003-0.023,0.007-0.029,0.011
		l-1.514,4.005c-0.11,0.29-0.392,0.485-0.702,0.485h-2.957l2.478,1.735c0.291,0.203,0.399,0.587,0.258,0.913l-1.437,3.312
		c0,0,0,0.012,0.005,0.021c0.005,0.01,0.012,0.014,0.021,0.017c0.001-0.001,0.028-0.005,0.029-0.005l3.477-1.963
		C17.003,20.467,17.13,20.434,17.259,20.434z"/>
	<path d="M3.75,16.501c-0.414,0-0.75-0.336-0.75-0.75v-9c0-0.414,0.336-0.75,0.75-0.75S4.5,6.337,4.5,6.751v4.189l1.409-1.409
		c0.425-0.425,0.99-0.659,1.591-0.659c0.601,0,1.166,0.234,1.591,0.658l0.582,0.582c0.141,0.141,0.33,0.219,0.53,0.219
		c0.201,0,0.389-0.078,0.531-0.22c0.043-0.043,0.081-0.092,0.112-0.144l0.357-0.598c0.135-0.226,0.381-0.366,0.644-0.366
		c0.135,0,0.267,0.036,0.383,0.106c0.173,0.103,0.294,0.266,0.343,0.461c0.049,0.194,0.02,0.396-0.083,0.568l-0.358,0.6
		c-0.095,0.158-0.208,0.304-0.338,0.433c-0.425,0.425-0.99,0.66-1.591,0.66c-0.602,0-1.167-0.234-1.591-0.658l-0.581-0.581
		c-0.142-0.142-0.33-0.22-0.531-0.22c-0.2,0-0.389,0.078-0.53,0.22L4.5,13.061v1.939h3.75c0.414,0,0.75,0.336,0.75,0.75
		s-0.336,0.75-0.75,0.75H3.75z"/>
	<path d="M2.25,21.001c-1.241,0-2.25-1.009-2.25-2.25v-16.5c0-1.241,1.009-2.25,2.25-2.25h10.629c0.6,0,1.165,0.234,1.59,0.658
		l2.872,2.872C17.766,3.957,18,4.521,18,5.122v2.379c0,0.414-0.336,0.75-0.75,0.75s-0.75-0.336-0.75-0.75V5.122
		c0-0.2-0.078-0.388-0.219-0.53L13.409,1.72c-0.142-0.141-0.33-0.219-0.53-0.219H2.25c-0.414,0-0.75,0.336-0.75,0.75v16.5
		c0,0.414,0.336,0.75,0.75,0.75H7.5c0.414,0,0.75,0.336,0.75,0.75s-0.336,0.75-0.75,0.75H2.25z"/>
</g>
</svg>
