<?xml version="1.0" encoding="utf-8"?>
<!-- Generator: Adobe Illustrator 22.1.0, SVG Export Plug-In . SVG Version: 6.00 Build 0)  -->
<svg version="1.1" id="Layer_1" xmlns="http://www.w3.org/2000/svg" xmlns:xlink="http://www.w3.org/1999/xlink" x="0px" y="0px"
	 viewBox="0 0 24 24" style="enable-background:new 0 0 24 24;" xml:space="preserve">
<title>data-file-bars-lock</title>
<g>
	<path d="M15.25,24c-0.965,0-1.75-0.785-1.75-1.75v-5.5c0-0.88,0.653-1.611,1.5-1.732V14.25c0-2.068,1.682-3.75,3.75-3.75
		s3.75,1.682,3.75,3.75v0.768c0.847,0.122,1.5,0.852,1.5,1.732v5.5c0,0.965-0.785,1.75-1.75,1.75H15.25z M15.25,16.5
		c-0.138,0-0.25,0.112-0.25,0.25v5.5c0,0.138,0.112,0.25,0.25,0.25h7c0.138,0,0.25-0.112,0.25-0.25v-5.5
		c0-0.138-0.112-0.25-0.25-0.25H15.25z M21,15v-0.75c0-1.241-1.009-2.25-2.25-2.25s-2.25,1.009-2.25,2.25L21,15z"/>
	<circle cx="18.75" cy="19.529" r="1.125"/>
	<path d="M3.75,15C3.336,15,3,14.664,3,14.25s0.336-0.75,0.75-0.75H4.5V9.75C4.5,9.336,4.836,9,5.25,9S6,9.336,6,9.75v3.75h1.5V6.75
		C7.5,6.336,7.836,6,8.25,6S9,6.336,9,6.75v6.75h1.5V8.25c0-0.414,0.336-0.75,0.75-0.75S12,7.836,12,8.25v6
		c0,0.414-0.336,0.75-0.75,0.75H3.75z"/>
	<path d="M2.25,21C1.009,21,0,19.991,0,18.75V2.25C0,1.009,1.009,0,2.25,0h10.629c0.601,0,1.165,0.234,1.59,0.658l2.872,2.872
		C17.766,3.955,18,4.52,18,5.121V7.5c0,0.414-0.336,0.75-0.75,0.75S16.5,7.914,16.5,7.5V5.121c0-0.197-0.08-0.39-0.219-0.53
		l-2.872-2.872c-0.142-0.141-0.33-0.219-0.53-0.219H2.25C1.836,1.5,1.5,1.836,1.5,2.25v16.5c0,0.414,0.336,0.75,0.75,0.75h7.5
		c0.414,0,0.75,0.336,0.75,0.75S10.164,21,9.75,21H2.25z"/>
</g>
</svg>
