<?xml version="1.0" encoding="utf-8"?>
<!-- Generator: Adobe Illustrator 22.1.0, SVG Export Plug-In . SVG Version: 6.00 Build 0)  -->
<svg version="1.1" id="Layer_1" xmlns="http://www.w3.org/2000/svg" xmlns:xlink="http://www.w3.org/1999/xlink" x="0px" y="0px"
	 viewBox="0 0 24 24" style="enable-background:new 0 0 24 24;" xml:space="preserve">
<title>data-file-bars-cash</title>
<g>
	<path d="M17.25,21.75c-0.414,0-0.75-0.336-0.75-0.75h-0.75C15.336,21,15,20.664,15,20.25s0.336-0.75,0.75-0.75h2.031
		c0.242,0,0.458-0.146,0.548-0.371c0.059-0.146,0.057-0.307-0.005-0.453c-0.062-0.146-0.177-0.259-0.323-0.317l-2.063-0.826
		c-0.797-0.321-1.312-1.082-1.312-1.94c0-0.559,0.217-1.084,0.612-1.48c0.344-0.344,0.786-0.554,1.262-0.603V13.5
		c0-0.414,0.336-0.75,0.75-0.75S18,13.086,18,13.5h0.75c0.414,0,0.75,0.336,0.75,0.75S19.163,15,18.75,15h-2.033
		c-0.326,0-0.591,0.266-0.591,0.593c0,0.243,0.146,0.458,0.371,0.549l2.063,0.826c1.071,0.431,1.592,1.652,1.161,2.722
		c-0.292,0.728-0.954,1.22-1.721,1.3V21C18,21.414,17.663,21.75,17.25,21.75z"/>
	<path d="M17.25,24c-3.722,0-6.75-3.028-6.75-6.75s3.028-6.75,6.75-6.75S24,13.528,24,17.25S20.972,24,17.25,24z M17.25,12
		C14.355,12,12,14.355,12,17.25s2.355,5.25,5.25,5.25s5.25-2.355,5.25-5.25S20.145,12,17.25,12z"/>
	<path d="M3.75,15C3.336,15,3,14.664,3,14.25s0.336-0.75,0.75-0.75H4.5V9.75C4.5,9.336,4.836,9,5.25,9S6,9.336,6,9.75v3.75h1.5V6.75
		C7.5,6.336,7.836,6,8.25,6S9,6.336,9,6.75v7.5C9,14.664,3.75,15,3.75,15z"/>
	<path d="M11.25,10.5c-0.414,0-0.75-0.336-0.75-0.75v-1.5c0-0.414,0.336-0.75,0.75-0.75S12,7.836,12,8.25v1.5
		C12,10.164,11.663,10.5,11.25,10.5z"/>
	<path d="M2.163,21.002c-1.155,0-2.104-0.911-2.161-2.074C0.001,18.903,0,18.874,0,18.846V2.335
		c-0.01-1.248,0.963-2.274,2.214-2.334L12.879,0c0.601,0,1.165,0.234,1.59,0.658l2.872,2.872C17.766,3.955,18,4.52,18,5.121V7.5
		c0,0.414-0.336,0.75-0.75,0.75S16.5,7.914,16.5,7.5V5.121c0-0.197-0.08-0.39-0.219-0.53l-2.872-2.872
		c-0.142-0.141-0.33-0.219-0.53-0.219H2.25C1.834,1.521,1.496,1.885,1.5,2.329l0.001,16.543c0.017,0.344,0.318,0.629,0.685,0.629
		L7.5,19.5c0.414,0,0.75,0.336,0.75,0.75S7.913,21,7.5,21H2.25C2.233,21.001,2.198,21.002,2.163,21.002z"/>
</g>
</svg>
