<?xml version="1.0" encoding="utf-8"?>
<!-- Generator: Adobe Illustrator 22.1.0, SVG Export Plug-In . SVG Version: 6.00 Build 0)  -->
<svg version="1.1" id="Layer_1" xmlns="http://www.w3.org/2000/svg" xmlns:xlink="http://www.w3.org/1999/xlink" x="0px" y="0px"
	 viewBox="0 0 24 24" style="enable-background:new 0 0 24 24;" xml:space="preserve">
<title>data-file-upload</title>
<g>
	<path d="M17.25,24c-3.722,0-6.75-3.028-6.75-6.75s3.028-6.75,6.75-6.75S24,13.528,24,17.25S20.972,24,17.25,24z M17.25,12
		C14.355,12,12,14.355,12,17.25s2.355,5.25,5.25,5.25s5.25-2.355,5.25-5.25S20.145,12,17.25,12z"/>
	<path d="M17.25,21c-0.414,0-0.75-0.336-0.75-0.75v-4.189l-0.97,0.97c-0.142,0.142-0.33,0.22-0.53,0.22s-0.389-0.078-0.53-0.22
		c-0.292-0.292-0.292-0.768,0-1.061l2.25-2.25c0.07-0.07,0.152-0.125,0.245-0.163c0.008-0.003,0.017-0.007,0.026-0.01
		c0.082-0.031,0.17-0.047,0.259-0.047c0.087,0,0.174,0.016,0.258,0.046c0.006,0.002,0.011,0.004,0.017,0.006
		c0.104,0.042,0.186,0.097,0.256,0.167l2.25,2.25c0.292,0.292,0.292,0.768,0,1.061c-0.142,0.142-0.33,0.22-0.53,0.22
		s-0.389-0.078-0.53-0.22L18,16.061v4.189C18,20.664,17.664,21,17.25,21z"/>
	<path d="M3.75,16.5C3.336,16.5,3,16.164,3,15.75v-9C3,6.336,3.336,6,3.75,6S4.5,6.336,4.5,6.75v4.189l1.409-1.409
		C6.333,9.106,6.898,8.872,7.5,8.872c0.601,0,1.166,0.234,1.59,0.658l0.582,0.582c0.141,0.141,0.329,0.219,0.53,0.219
		c0.201,0,0.389-0.078,0.531-0.219c0.043-0.043,0.081-0.092,0.113-0.144l0.357-0.598c0.134-0.226,0.381-0.366,0.644-0.366
		c0.135,0,0.268,0.037,0.385,0.106c0.172,0.102,0.293,0.266,0.342,0.46c0.049,0.194,0.02,0.396-0.083,0.568l-0.358,0.6
		c-0.095,0.159-0.209,0.304-0.338,0.433c-0.425,0.425-0.99,0.659-1.592,0.659c0,0,0,0,0,0c-0.601,0-1.166-0.233-1.59-0.657
		l-0.581-0.581c-0.142-0.141-0.33-0.219-0.531-0.219c-0.201,0-0.389,0.078-0.53,0.219L4.5,13.061V15h3.75C8.664,15,9,15.336,9,15.75
		S8.664,16.5,8.25,16.5H3.75z"/>
	<path d="M2.25,21C1.009,21,0,19.991,0,18.75V2.25C0,1.009,1.009,0,2.25,0h10.629c0.601,0,1.165,0.234,1.59,0.658l2.872,2.872
		C17.766,3.955,18,4.52,18,5.121V7.5c0,0.414-0.336,0.75-0.75,0.75S16.5,7.914,16.5,7.5V5.121c0-0.197-0.08-0.39-0.219-0.53
		l-2.872-2.872c-0.142-0.141-0.33-0.219-0.53-0.219H2.25C1.836,1.5,1.5,1.836,1.5,2.25v16.5c0,0.414,0.336,0.75,0.75,0.75H9
		c0.414,0,0.75,0.336,0.75,0.75S9.414,21,9,21H2.25z"/>
</g>
</svg>
