<?xml version="1.0" encoding="utf-8"?>
<!-- Generator: Adobe Illustrator 22.1.0, SVG Export Plug-In . SVG Version: 6.00 Build 0)  -->
<svg version="1.1" id="Layer_1" xmlns="http://www.w3.org/2000/svg" xmlns:xlink="http://www.w3.org/1999/xlink" x="0px" y="0px"
	 viewBox="0 0 24 24" style="enable-background:new 0 0 24 24;" xml:space="preserve">
<title>data-file-graph</title>
<g>
	<path d="M2.955,24c-1.241,0-2.25-1.009-2.25-2.25V2.25C0.705,1.009,1.714,0,2.955,0h15c0.59,0.001,1.147,0.228,1.568,0.639
		l2.996,2.879c0.435,0.424,0.683,1.011,0.684,1.613l0.002,16.619c0,1.241-1.009,2.25-2.25,2.25H2.955z M2.955,1.5
		c-0.414,0-0.75,0.336-0.75,0.75v19.5c0,0.414,0.336,0.75,0.75,0.75h18c0.414,0,0.75-0.336,0.75-0.75L21.703,5.132
		c0-0.2-0.083-0.396-0.227-0.536L18.48,1.717C18.337,1.577,18.15,1.5,17.954,1.5H2.955z"/>
	<path d="M5.955,19.5c-0.414,0-0.75-0.336-0.75-0.75V7.5c0-0.414,0.336-0.75,0.75-0.75s0.75,0.336,0.75,0.75v6.524l2.1-1.96
		c0.51-0.463,1.162-0.717,1.839-0.717c0.675,0,1.325,0.252,1.828,0.71l0.733,0.685c0.219,0.2,0.508,0.312,0.811,0.312
		c0.048,0,0.096-0.003,0.144-0.009c0.349-0.037,0.654-0.22,0.843-0.505l1.566-2.445C16.707,9.879,16.943,9.75,17.2,9.75
		c0.144,0,0.283,0.041,0.405,0.119c0.168,0.108,0.285,0.275,0.328,0.471c0.043,0.196,0.007,0.396-0.101,0.565l-1.572,2.454
		c-0.442,0.668-1.146,1.095-1.933,1.178c-0.1,0.012-0.207,0.018-0.313,0.018c-0.677,0-1.325-0.253-1.826-0.711l-0.731-0.683
		c-0.221-0.201-0.511-0.313-0.812-0.313c-0.303,0-0.595,0.114-0.822,0.32l-3.116,2.909V18h11.25c0.414,0,0.75,0.336,0.75,0.75
		s-0.336,0.75-0.75,0.75H5.955z"/>
</g>
</svg>
