<?xml version="1.0" encoding="utf-8"?>
<!-- Generator: Adobe Illustrator 22.1.0, SVG Export Plug-In . SVG Version: 6.00 Build 0)  -->
<svg version="1.1" id="Layer_1" xmlns="http://www.w3.org/2000/svg" xmlns:xlink="http://www.w3.org/1999/xlink" x="0px" y="0px"
	 viewBox="0 0 24 24" style="enable-background:new 0 0 24 24;" xml:space="preserve">
<title>dating-couple-balloon</title>
<g>
	<path d="M4.993,19.5c-2.068,0-3.75-1.682-3.75-3.75S2.926,12,4.993,12s3.75,1.682,3.75,3.75S7.061,19.5,4.993,19.5z M4.993,13.5
		c-1.241,0-2.25,1.009-2.25,2.25S3.753,18,4.993,18s2.25-1.009,2.25-2.25S6.234,13.5,4.993,13.5z"/>
	<path d="M18.237,24c-0.317,0-0.602-0.201-0.707-0.5c-0.528-1.498-1.951-2.504-3.541-2.504c-0.423,0-0.841,0.072-1.243,0.214
		c-1.076,0.379-1.911,1.214-2.29,2.29c-0.105,0.299-0.39,0.5-0.708,0.5c-0.084,0-0.168-0.014-0.248-0.042
		c-0.003-0.001-0.005-0.002-0.008-0.003c-0.002,0.001-0.004,0.001-0.007,0.002C9.406,23.986,9.322,24,9.237,24
		c-0.318,0-0.602-0.201-0.707-0.5c-0.528-1.498-1.951-2.504-3.541-2.504c-0.423,0-0.841,0.072-1.243,0.214
		c-1.076,0.379-1.91,1.214-2.29,2.29C1.351,23.799,1.067,24,0.749,24c-0.084,0-0.168-0.014-0.248-0.042
		c-0.19-0.067-0.342-0.203-0.428-0.384C-0.013,23.393-0.024,23.189,0.042,23c0.531-1.506,1.699-2.675,3.206-3.206
		c0.562-0.198,1.146-0.298,1.738-0.298c1.874,0,3.571,0.982,4.509,2.557c0.624-1.046,1.596-1.851,2.753-2.259
		c0.563-0.198,1.148-0.299,1.741-0.299c2.225,0,4.217,1.408,4.956,3.505c0.137,0.39-0.068,0.819-0.458,0.957
		C18.406,23.986,18.322,24,18.237,24z"/>
	<path d="M19.243,20.25c-0.674,0-1.847-0.264-2.521-1.933c-0.702,0.751-1.679,1.183-2.729,1.183s-2.027-0.432-2.729-1.183
		c-0.674,1.669-1.847,1.933-2.521,1.933c-0.414,0-0.75-0.336-0.75-0.75s0.336-0.75,0.75-0.75c1.444,0,1.5-2.971,1.5-3.001
		c0-2.067,1.683-3.749,3.75-3.749c2.067,0,3.75,1.682,3.75,3.75c0,0.029,0.055,3,1.5,3c0.414,0,0.75,0.336,0.75,0.75
		S19.657,20.25,19.243,20.25z M13.993,13.5c-1.24,0-2.25,1.009-2.25,2.25S12.753,18,13.993,18c1.241,0,2.25-1.009,2.25-2.25
		S15.234,13.5,13.993,13.5z"/>
	<path d="M23.249,24c-0.414,0-0.75-0.336-0.75-0.75v-4.925c0-2.761-1.398-5.283-3.74-6.747c-1.266-0.79-2.07-2.072-2.231-3.54
		c-0.082-0.052-0.157-0.113-0.225-0.183L12.82,4.743c-0.013-0.011-0.029-0.026-0.044-0.042c-1.038-1.087-1.038-2.792,0.001-3.88
		c0.028-0.03,0.059-0.06,0.091-0.091c0.494-0.47,1.143-0.73,1.827-0.73c0.733,0,1.415,0.292,1.919,0.821l0.636,0.657l0.64-0.662
		c0.024-0.026,0.055-0.057,0.087-0.087C18.471,0.259,19.121,0,19.807,0L19.867,0c0.708,0.017,1.367,0.309,1.855,0.821
		c1.039,1.088,1.039,2.792,0,3.88c-0.014,0.015-0.03,0.03-0.046,0.045l-3.497,3.124l-0.011,0.012
		c-0.041,0.039-0.085,0.076-0.131,0.109c0.14,0.959,0.685,1.794,1.519,2.315c2.783,1.74,4.445,4.737,4.445,8.019v4.925
		C23.999,23.663,23.663,24,23.249,24z M17.249,6.69l3.406-3.043c0.466-0.507,0.459-1.291-0.018-1.79
		c-0.212-0.223-0.498-0.349-0.805-0.357l-0.034,0c-0.297,0-0.569,0.11-0.787,0.318c-0.015,0.014-0.028,0.027-0.041,0.041
		l-1.181,1.222c-0.137,0.142-0.334,0.224-0.539,0.224s-0.402-0.082-0.539-0.224L15.531,1.86c-0.222-0.233-0.519-0.36-0.838-0.36
		c-0.297,0-0.578,0.112-0.792,0.317c-0.015,0.014-0.028,0.027-0.041,0.041c-0.476,0.498-0.483,1.282-0.017,1.789L17.249,6.69z"/>
</g>
</svg>
