<?xml version="1.0" encoding="utf-8"?>
<!-- Generator: Adobe Illustrator 22.1.0, SVG Export Plug-In . SVG Version: 6.00 Build 0)  -->
<svg version="1.1" id="Layer_1" xmlns="http://www.w3.org/2000/svg" xmlns:xlink="http://www.w3.org/1999/xlink" x="0px" y="0px"
	 viewBox="0 0 24 24" style="enable-background:new 0 0 24 24;" xml:space="preserve">
<title>dating-cup</title>
<g>
	<path d="M9.721,10.244c-0.358-0.009-0.688-0.155-0.933-0.412L5.281,6.205C4.24,5.114,4.239,3.409,5.277,2.321
		c0.029-0.03,0.059-0.06,0.089-0.089c0.496-0.473,1.145-0.733,1.826-0.733L7.26,1.5c0.707,0.017,1.366,0.309,1.854,0.821L9.75,2.979
		l0.64-0.662c0.026-0.027,0.055-0.056,0.085-0.085C10.97,1.76,11.62,1.5,12.304,1.5c0.733,0,1.414,0.292,1.919,0.821
		c1.039,1.088,1.039,2.792,0,3.88l-3.514,3.634c-0.002,0.002-0.022,0.024-0.044,0.044c-0.246,0.234-0.571,0.365-0.914,0.365
		C9.749,10.244,9.723,10.244,9.721,10.244z M7.194,3C6.898,3,6.616,3.113,6.402,3.317c-0.013,0.012-0.026,0.026-0.04,0.04
		c-0.484,0.507-0.484,1.302,0,1.809L9.75,8.669l3.391-3.507c0.482-0.505,0.481-1.299-0.003-1.806C12.918,3.127,12.622,3,12.304,3
		c-0.297,0-0.578,0.113-0.793,0.317c-0.013,0.012-0.026,0.026-0.04,0.04l-1.182,1.223C10.151,4.721,9.955,4.803,9.75,4.803
		S9.349,4.721,9.211,4.579L8.032,3.36C7.81,3.127,7.513,3,7.194,3z"/>
	<path d="M0.75,24C0.336,24,0,23.663,0,23.25s0.336-0.75,0.75-0.75h4.266c-2.171-1.531-3.515-4.052-3.515-6.75v-4.5
		C1.501,10.009,2.51,9,3.751,9h1.5c0.414,0,0.75,0.336,0.75,0.75s-0.336,0.75-0.75,0.75h-1.5c-0.414,0-0.75,0.336-0.75,0.75v4.5
		c0,3.722,3.028,6.75,6.75,6.75s6.75-3.028,6.75-6.75v-4.474C16.5,11.267,16.5,11.239,16.5,11.234
		c-0.008-0.405-0.342-0.734-0.749-0.734h-1.5c-0.414,0-0.75-0.336-0.75-0.75S13.837,9,14.251,9h1.5c0.96,0,1.808,0.615,2.121,1.5H18
		c2.475,0.007,4.493,2.025,4.5,4.498c-0.007,2.477-2.024,4.496-4.498,4.502h-0.905c-0.614,1.199-1.515,2.229-2.61,3h8.763
		c0.414,0,0.75,0.336,0.75,0.75S23.664,24,23.25,24H0.75z M18,18c1.649-0.004,2.995-1.351,3-3.002
		c-0.005-1.646-1.35-2.991-2.999-2.998v3.75c0,0.764-0.105,1.519-0.313,2.25H18z"/>
</g>
</svg>
