<?xml version="1.0" encoding="utf-8"?>
<!-- Generator: Adobe Illustrator 22.1.0, SVG Export Plug-In . SVG Version: 6.00 Build 0)  -->
<svg version="1.1" id="Layer_1" xmlns="http://www.w3.org/2000/svg" xmlns:xlink="http://www.w3.org/1999/xlink" x="0px" y="0px"
	 viewBox="0 0 24 24" style="enable-background:new 0 0 24 24;" xml:space="preserve">
<title>dating-smartphone-woman</title>
<g>
	<path d="M12.751,20.248c-0.414,0-0.75-0.336-0.75-0.75c0-2.068-1.682-3.75-3.75-3.75s-3.75,1.682-3.75,3.75
		c0,0.414-0.336,0.75-0.75,0.75s-0.75-0.336-0.75-0.75c0-2.895,2.355-5.25,5.25-5.25c2.895,0,5.25,2.355,5.25,5.25
		C13.501,19.912,13.165,20.248,12.751,20.248z"/>
	<path d="M13.501,14.998c-0.674,0-1.847-0.264-2.521-1.933c-0.702,0.751-1.679,1.183-2.729,1.183c-1.05,0-2.027-0.432-2.729-1.183
		c-0.674,1.669-1.847,1.933-2.521,1.933c-0.414,0-0.75-0.336-0.75-0.75s0.336-0.75,0.75-0.75c1.444,0,1.5-2.971,1.5-3.001
		c0-2.067,1.683-3.749,3.75-3.749s3.75,1.682,3.75,3.749c0,0.029,0.055,3.001,1.5,3.001c0.414,0,0.75,0.336,0.75,0.75
		S13.915,14.998,13.501,14.998z M8.252,8.248c-1.241,0-2.25,1.009-2.25,2.25s1.009,2.25,2.25,2.25s2.25-1.009,2.25-2.25
		S9.492,8.248,8.252,8.248z"/>
	<path d="M3.002,23.998c-1.654,0-3-1.346-3-3v-16.5c0-1.654,1.346-3,3-3h3.75c0.414,0,0.75,0.336,0.75,0.75s-0.336,0.75-0.75,0.75
		h-3.75c-0.827,0-1.5,0.673-1.5,1.5v16.5c0,0.827,0.673,1.5,1.5,1.5h10.5c0.827,0,1.5-0.673,1.5-1.5v-6.75
		c0-0.414,0.336-0.75,0.75-0.75c0.414,0,0.75,0.336,0.75,0.75v6.75c0,1.654-1.346,3-3,3H3.002z"/>
	<path d="M17.251,11.998c-0.203,0-0.4-0.084-0.541-0.231l-5.114-5.335c-1.143-1.142-1.424-2.891-0.695-4.347
		c0.451-0.902,1.226-1.574,2.182-1.893c0.389-0.13,0.792-0.196,1.197-0.196c0.587,0,1.154,0.135,1.685,0.4
		c0.364,0.182,0.694,0.42,0.981,0.708l0.305,0.305l0.305-0.305c0.712-0.712,1.66-1.104,2.67-1.104c1.01,0,1.958,0.392,2.67,1.104
		c0.287,0.286,0.525,0.617,0.707,0.981c0.728,1.456,0.444,3.207-0.708,4.358l-5.103,5.323
		C17.652,11.914,17.455,11.998,17.251,11.998z M14.28,1.498c-0.244,0-0.487,0.04-0.722,0.118c-0.577,0.192-1.044,0.597-1.315,1.141
		c-0.439,0.877-0.269,1.933,0.425,2.626l4.584,4.782l4.573-4.77c0.703-0.703,0.876-1.76,0.438-2.638
		c-0.11-0.219-0.253-0.418-0.426-0.591c-0.429-0.429-1-0.665-1.609-0.665s-1.18,0.236-1.61,0.665l-0.835,0.835
		c-0.14,0.14-0.333,0.22-0.53,0.22s-0.391-0.08-0.53-0.22l-0.835-0.835c-0.174-0.173-0.373-0.317-0.592-0.426
		C14.974,1.579,14.633,1.498,14.28,1.498z"/>
</g>
</svg>
