<?xml version="1.0" encoding="utf-8"?>
<!-- Generator: Adobe Illustrator 22.1.0, SVG Export Plug-In . SVG Version: 6.00 Build 0)  -->
<svg version="1.1" id="Layer_1" xmlns="http://www.w3.org/2000/svg" xmlns:xlink="http://www.w3.org/1999/xlink" x="0px" y="0px"
	 viewBox="0 0 24 24" style="enable-background:new 0 0 24 24;" xml:space="preserve">
<title>dating-search</title>
<g>
	<path d="M23.25,24c-0.2,0-0.389-0.078-0.53-0.22l-6.523-6.523c-1.781,1.53-4.033,2.368-6.383,2.368
		c-5.41,0-9.812-4.402-9.812-9.812c0-5.41,4.402-9.812,9.812-9.812c5.41,0,9.812,4.402,9.812,9.812c0,2.35-0.838,4.603-2.368,6.383
		l6.523,6.523c0.142,0.142,0.22,0.33,0.22,0.53s-0.078,0.389-0.22,0.53S23.45,24,23.25,24z M9.813,1.501
		c-4.583,0-8.312,3.729-8.312,8.312c0,4.583,3.729,8.312,8.312,8.312c4.583,0,8.312-3.729,8.312-8.312
		C18.125,5.23,14.396,1.501,9.813,1.501z"/>
	<path d="M9.715,14.25c-0.352-0.008-0.682-0.155-0.927-0.411l-3.507-3.627C4.239,9.12,4.238,7.415,5.277,6.327
		c0.03-0.031,0.06-0.061,0.091-0.091c0.494-0.471,1.141-0.731,1.821-0.731L7.26,5.506c0.707,0.017,1.365,0.309,1.854,0.821
		L9.75,6.985l0.64-0.662c0.026-0.027,0.056-0.058,0.087-0.087c0.495-0.471,1.138-0.731,1.813-0.731l0.081,0.001
		c0.705,0.017,1.364,0.309,1.852,0.821c1.038,1.088,1.038,2.792,0,3.88l-3.515,3.635c-0.01,0.01-0.027,0.028-0.044,0.044
		c-0.245,0.234-0.57,0.364-0.913,0.364C9.747,14.25,9.719,14.25,9.715,14.25z M7.194,7.006c-0.296,0-0.578,0.113-0.792,0.318
		C6.388,7.336,6.375,7.349,6.362,7.362c-0.485,0.508-0.484,1.302,0,1.809l3.388,3.503l3.391-3.507
		c0.481-0.505,0.481-1.298-0.003-1.806c-0.212-0.223-0.498-0.349-0.805-0.357l-0.027,0c-0.297,0-0.579,0.113-0.794,0.317
		c-0.014,0.013-0.027,0.026-0.04,0.04l-1.183,1.223C10.151,8.727,9.955,8.809,9.75,8.809S9.348,8.727,9.211,8.585L8.032,7.366
		C7.817,7.141,7.53,7.013,7.223,7.006L7.194,7.006z"/>
</g>
</svg>
