<?xml version="1.0" encoding="utf-8"?>
<!-- Generator: Adobe Illustrator 22.1.0, SVG Export Plug-In . SVG Version: 6.00 Build 0)  -->
<svg version="1.1" id="Layer_1" xmlns="http://www.w3.org/2000/svg" xmlns:xlink="http://www.w3.org/1999/xlink" x="0px" y="0px"
	 viewBox="0 0 24 24" style="enable-background:new 0 0 24 24;" xml:space="preserve">
<title>dating-lipstick</title>
<g>
	<path d="M9.838,23.998c-0.601,0-1.166-0.233-1.59-0.657c-0.005-0.005-0.016-0.017-0.021-0.022l-3.966-3.966
		c-0.877-0.877-0.877-2.304,0-3.182l3.623-3.623c0.282-0.281,0.656-0.436,1.055-0.436c0.247,0,0.488,0.06,0.703,0.174l2.284-2.284
		c0.283-0.283,0.659-0.439,1.06-0.44c0.243,0,0.481,0.061,0.695,0.174l5.512-5.513C19.435,3.982,19.75,3.85,20.08,3.85
		c0.002,0,0.023,0,0.026,0c0.335,0.001,0.656,0.135,0.896,0.378c0.238,0.24,0.37,0.558,0.371,0.896c0,0.033-0.002,0.064-0.006,0.095
		l-0.601,5.101c-0.013,0.463-0.2,0.897-0.527,1.225l-2.374,2.373c0.115,0.215,0.177,0.455,0.177,0.699
		c0,0.401-0.156,0.778-0.44,1.061l-2.286,2.283c0.114,0.214,0.174,0.451,0.174,0.694c0,0.401-0.156,0.778-0.439,1.061L11.43,23.34
		C11.005,23.765,10.44,23.998,9.838,23.998z M8.944,13.61c-0.001,0-3.623,3.622-3.623,3.622c-0.292,0.292-0.292,0.768,0,1.061
		l3.986,3.987c0.144,0.143,0.331,0.219,0.53,0.219c0.201,0,0.389-0.078,0.531-0.219l3.622-3.623L9.16,13.829
		c-0.008-0.008-0.022-0.024-0.033-0.037L8.944,13.61L8.944,13.61z M14.306,16.85l2.236-2.233l-3.556-3.555l-2.233,2.234
		L14.306,16.85z M16.854,12.809l2.324-2.324c0.057-0.057,0.089-0.135,0.089-0.217c0-0.029,0.002-0.058,0.005-0.087l0.523-4.439
		l-5.004,5.004L16.854,12.809z"/>
	<path d="M7.291,9.75c-0.176,0-0.348-0.035-0.511-0.103l-4.67-1.911C0.718,7.155,0.032,5.594,0.544,4.181
		C0.559,4.14,0.574,4.1,0.591,4.061c0.414-0.989,1.375-1.628,2.448-1.628c0.351,0,0.694,0.069,1.02,0.205l0.846,0.346l0.319-0.863
		c0.013-0.036,0.029-0.076,0.045-0.115C5.682,1.018,6.644,0.38,7.717,0.38c0.351,0,0.694,0.069,1.019,0.205
		c1.387,0.579,2.072,2.14,1.558,3.553c0,0-1.768,4.769-1.777,4.792c-0.138,0.33-0.394,0.585-0.722,0.72
		C7.634,9.716,7.464,9.75,7.291,9.75z M3.038,3.934c-0.466,0-0.883,0.277-1.063,0.706C1.967,4.658,1.96,4.675,1.954,4.693
		C1.715,5.352,2.035,6.079,2.682,6.349l4.509,1.845l1.696-4.574c0.238-0.655-0.082-1.382-0.729-1.652
		C8.016,1.909,7.868,1.879,7.716,1.879c-0.466,0-0.883,0.277-1.063,0.706C6.645,2.603,6.638,2.621,6.632,2.639l-0.59,1.594
		C5.971,4.423,5.825,4.578,5.64,4.659C5.544,4.701,5.442,4.723,5.338,4.723c-0.098,0-0.194-0.019-0.284-0.056L3.485,4.025
		C3.34,3.964,3.19,3.934,3.038,3.934z"/>
	<path d="M14.624,4.499c-0.414,0-0.75-0.336-0.75-0.75v-0.75h-0.75c-0.414,0-0.75-0.336-0.75-0.75s0.336-0.75,0.75-0.75h0.75v-0.75
		c0-0.414,0.336-0.75,0.75-0.75s0.75,0.336,0.75,0.75v0.75h0.75c0.414,0,0.75,0.336,0.75,0.75s-0.336,0.75-0.75,0.75h-0.75v0.75
		C15.374,4.162,15.038,4.499,14.624,4.499z"/>
	<path d="M21.374,23.249c-0.414,0-0.75-0.336-0.75-0.75v-0.75h-0.75c-0.414,0-0.75-0.336-0.75-0.75s0.336-0.75,0.75-0.75h0.75v-0.75
		c0-0.414,0.336-0.75,0.75-0.75s0.75,0.336,0.75,0.75v0.75h0.75c0.414,0,0.75,0.336,0.75,0.75s-0.336,0.75-0.75,0.75h-0.75v0.75
		C22.124,22.912,21.788,23.249,21.374,23.249z"/>
</g>
</svg>
