<?xml version="1.0" encoding="utf-8"?>
<!-- Generator: Adobe Illustrator 22.1.0, SVG Export Plug-In . SVG Version: 6.00 Build 0)  -->
<svg version="1.1" id="Layer_1" xmlns="http://www.w3.org/2000/svg" xmlns:xlink="http://www.w3.org/1999/xlink" x="0px" y="0px"
	 viewBox="0 0 24 24" style="enable-background:new 0 0 24 24;" xml:space="preserve">
<title>dating-calendar</title>
<g>
	<path d="M3,24c-1.241,0-2.25-1.009-2.25-2.25V5.25C0.75,4.009,1.759,3,3,3h3.75V0.75C6.75,0.336,7.086,0,7.5,0
		s0.75,0.336,0.75,0.75V3h7.5V0.75C15.75,0.336,16.086,0,16.5,0s0.75,0.336,0.75,0.75V3H21c1.241,0,2.25,1.009,2.25,2.25v16.5
		c0,1.241-1.009,2.25-2.25,2.25H3z M2.25,21.75c0,0.414,0.336,0.75,0.75,0.75h18c0.414,0,0.75-0.336,0.75-0.75V10.5H2.25V21.75z
		 M21.75,9V5.25c0-0.414-0.336-0.75-0.75-0.75h-3.75V6c0,0.414-0.336,0.75-0.75,0.75S15.75,6.414,15.75,6V4.5h-7.5V6
		c0,0.414-0.336,0.75-0.75,0.75S6.75,6.414,6.75,6V4.5H3c-0.414,0-0.75,0.336-0.75,0.75V9H21.75z"/>
	<path d="M12,20.999c-0.372,0-0.727-0.158-0.975-0.432l-3.503-3.75c-1.032-1.133-1.033-2.834-0.006-3.961
		c0.055-0.062,0.117-0.123,0.181-0.181c0.479-0.434,1.1-0.673,1.748-0.673c0.736,0,1.44,0.312,1.933,0.856L12,13.523l0.631-0.676
		c0.048-0.053,0.109-0.115,0.173-0.172c0.48-0.435,1.102-0.674,1.75-0.674c0.736,0,1.44,0.312,1.932,0.855
		c0.994,1.153,0.99,2.845,0.003,3.948l-3.522,3.771c-0.021,0.024-0.051,0.054-0.083,0.082C12.64,20.879,12.327,20.999,12,20.999z
		 M9.443,13.501c-0.275,0-0.537,0.101-0.74,0.285c-0.026,0.024-0.052,0.05-0.076,0.076c-0.504,0.553-0.505,1.386-0.002,1.937
		L12,19.414l3.382-3.621c0.477-0.533,0.472-1.37-0.018-1.94c-0.201-0.22-0.5-0.352-0.811-0.352c-0.275,0-0.539,0.101-0.742,0.285
		c-0.026,0.024-0.052,0.049-0.076,0.076l-1.188,1.272C12.41,15.282,12.21,15.367,12,15.367c-0.21,0-0.409-0.085-0.548-0.232
		l-1.179-1.262C10.058,13.635,9.757,13.501,9.443,13.501z"/>
</g>
</svg>
