<?xml version="1.0" encoding="utf-8"?>
<!-- Generator: Adobe Illustrator 22.1.0, SVG Export Plug-In . SVG Version: 6.00 Build 0)  -->
<svg version="1.1" id="Layer_1" xmlns="http://www.w3.org/2000/svg" xmlns:xlink="http://www.w3.org/1999/xlink" x="0px" y="0px"
	 viewBox="0 0 24 24" style="enable-background:new 0 0 24 24;" xml:space="preserve">
<title>dating-chat-woman</title>
<g>
	<path d="M17.252,11.25c-0.415,0-0.816-0.172-1.101-0.472l-4.678-4.836c-1.295-1.357-1.295-3.479-0.003-4.832
		C11.504,1.073,11.542,1.036,11.579,1c0.613-0.585,1.418-0.907,2.267-0.907c0.908,0,1.752,0.361,2.377,1.016l1.029,1.064
		l1.033-1.068c0.032-0.033,0.068-0.069,0.105-0.105c0.615-0.587,1.421-0.909,2.272-0.909l0.074,0.001
		c0.877,0.021,1.694,0.382,2.299,1.017c1.292,1.354,1.292,3.475,0,4.828l-4.685,4.845c-0.009,0.009-0.027,0.027-0.045,0.045
		C18.017,11.101,17.644,11.249,17.252,11.25C17.252,11.25,17.252,11.25,17.252,11.25z M13.845,1.593
		c-0.461,0-0.897,0.175-1.23,0.491c-0.019,0.019-0.04,0.039-0.059,0.059c-0.739,0.774-0.739,1.985-0.001,2.758l4.678,4.837
		l0.291,0.277l-0.27-0.261l4.698-4.857c0.735-0.77,0.734-1.981-0.003-2.754c-0.329-0.345-0.772-0.541-1.249-0.553l-0.049-0.001
		c-0.456,0-0.891,0.175-1.224,0.493c-0.02,0.019-0.041,0.04-0.061,0.061l-1.575,1.629c-0.14,0.145-0.337,0.229-0.539,0.229
		s-0.399-0.083-0.539-0.229l-1.572-1.625C14.799,1.789,14.34,1.593,13.845,1.593z"/>
	<path d="M14.627,19.5c-0.044,0-0.088-0.004-0.131-0.011c-0.513-0.06-0.923-0.47-0.983-0.983c-0.007-0.042-0.011-0.086-0.011-0.13
		s0.004-0.088,0.011-0.131c0.06-0.513,0.47-0.923,0.983-0.983c0.042-0.008,0.086-0.011,0.131-0.011s0.088,0.004,0.131,0.011
		c0.513,0.06,0.923,0.47,0.983,0.983c0.008,0.042,0.011,0.086,0.011,0.131s-0.004,0.088-0.011,0.131
		c-0.06,0.513-0.47,0.923-0.983,0.983C14.715,19.496,14.672,19.5,14.627,19.5z"/>
	<path d="M17.252,16.5c-1.241,0-2.25-1.009-2.25-2.25S16.012,12,17.252,12s2.25,1.009,2.25,2.25S18.493,16.5,17.252,16.5z
		 M17.252,13.5c-0.414,0-0.75,0.336-0.75,0.75S16.839,15,17.252,15s0.75-0.336,0.75-0.75S17.666,13.5,17.252,13.5z"/>
	<path d="M0.752,24c-0.085,0-0.17-0.014-0.25-0.043c-0.188-0.067-0.34-0.203-0.426-0.384c-0.086-0.181-0.097-0.384-0.03-0.573
		c0.759-2.146,2.425-3.812,4.571-4.571c0.807-0.285,1.646-0.43,2.495-0.43c3.176,0,6.021,2.01,7.079,5.001
		c0.067,0.189,0.056,0.392-0.03,0.573c-0.086,0.181-0.238,0.317-0.427,0.384C13.653,23.985,13.569,24,13.484,24
		c-0.317,0-0.601-0.201-0.707-0.5c-0.847-2.393-3.123-4.001-5.665-4.001c-0.679,0-1.35,0.116-1.995,0.344
		C3.4,20.451,2.067,21.783,1.46,23.5C1.354,23.799,1.07,24,0.752,24z"/>
	<path d="M12.101,18.259c-0.264,0-0.504-0.135-0.641-0.361c-0.297-0.488-0.528-1.007-0.69-1.552C9.852,17.394,8.537,18,7.117,18
		c-1.419,0-2.733-0.606-3.651-1.653c-0.163,0.545-0.394,1.064-0.691,1.552c-0.137,0.225-0.377,0.36-0.641,0.36
		c-0.137,0-0.272-0.038-0.39-0.109c-0.354-0.216-0.466-0.678-0.25-1.031c0.525-0.861,0.785-1.849,0.751-2.858l0-1.025
		c0-0.008,0.001-0.02,0.001-0.032c-0.002-0.035-0.003-0.057-0.003-0.079c0-2.688,2.187-4.875,4.875-4.875s4.875,2.187,4.875,4.875
		c0,0.023-0.001,0.046-0.003,0.069c0.001,0.014,0.002,0.028,0.002,0.042v1c-0.034,1.029,0.225,2.021,0.75,2.883
		c0.104,0.171,0.135,0.372,0.088,0.567c-0.048,0.195-0.168,0.359-0.339,0.463C12.373,18.221,12.238,18.259,12.101,18.259z
		 M3.899,14.133c0.434,1.393,1.73,2.367,3.219,2.367c1.489,0,2.784-0.974,3.219-2.366c-1.198-0.181-2.318-0.706-3.221-1.511
		C6.213,13.426,5.094,13.951,3.899,14.133z M7.114,10.811c0.222,0,0.428,0.092,0.568,0.254c0.722,0.836,1.694,1.383,2.772,1.569
		C10.213,11.008,8.799,9.75,7.117,9.75c-1.681,0-3.095,1.258-3.336,2.883c1.076-0.187,2.045-0.734,2.766-1.568
		C6.686,10.904,6.893,10.811,7.114,10.811z"/>
</g>
</svg>
