<?xml version="1.0" encoding="utf-8"?>
<!-- Generator: Adobe Illustrator 22.1.0, SVG Export Plug-In . SVG Version: 6.00 Build 0)  -->
<svg version="1.1" id="Regular" xmlns="http://www.w3.org/2000/svg" xmlns:xlink="http://www.w3.org/1999/xlink" x="0px" y="0px"
	 viewBox="0 0 24 24" style="enable-background:new 0 0 24 24;" xml:space="preserve">
<title>day-afternoon</title>
<g>
	<path d="M0.75,22.707c-0.414,0-0.75-0.336-0.75-0.75s0.336-0.75,0.75-0.75h0.78c0.075-1.092,0.319-2.158,0.727-3.173
		c0.115-0.286,0.388-0.471,0.696-0.471c0.096,0,0.189,0.018,0.279,0.054c0.384,0.154,0.571,0.592,0.417,0.976
		c-0.336,0.838-0.542,1.716-0.615,2.615h17.933c-0.382-4.657-4.248-8.25-8.967-8.25c-0.414,0-0.75-0.336-0.75-0.75
		s0.336-0.75,0.75-0.75c5.553,0,10.085,4.254,10.471,9.75h0.779c0.414,0,0.75,0.336,0.75,0.75s-0.336,0.75-0.75,0.75H0.75z"/>
	<path d="M12,19.707c-0.414,0-0.75-0.336-0.75-0.75v-2.25c0-0.414,0.336-0.75,0.75-0.75s0.75,0.336,0.75,0.75v2.25
		C12.75,19.371,12.414,19.707,12,19.707z"/>
	<path d="M12,9.957c-0.414,0-0.75-0.336-0.75-0.75v-2.25c0-0.414,0.336-0.75,0.75-0.75s0.75,0.336,0.75,0.75v2.25
		C12.75,9.621,12.414,9.957,12,9.957z"/>
	<path d="M12,4.707c-0.414,0-0.75-0.336-0.75-0.75v-2.25c0-0.414,0.336-0.75,0.75-0.75s0.75,0.336,0.75,0.75v2.25
		C12.75,4.371,12.414,4.707,12,4.707z"/>
	<path d="M5.25,15.957c-0.414,0-0.75-0.336-0.75-0.75v-1.135c-0.389-0.087-0.761-0.241-1.098-0.456L2.18,14.837
		c-0.141,0.142-0.33,0.22-0.53,0.22c-0.2,0-0.389-0.078-0.53-0.22c-0.292-0.292-0.292-0.768,0-1.061l1.221-1.222
		c-0.215-0.337-0.37-0.709-0.456-1.098H0.75c-0.414,0-0.75-0.336-0.75-0.75s0.336-0.75,0.75-0.75h1.135
		c0.087-0.389,0.241-0.761,0.457-1.099L1.12,7.638c-0.292-0.292-0.293-0.768,0-1.061c0.142-0.142,0.33-0.22,0.53-0.22
		s0.389,0.078,0.53,0.219l1.222,1.221C3.74,7.583,4.111,7.429,4.5,7.342V6.207c0-0.414,0.336-0.75,0.75-0.75S6,5.793,6,6.207v1.135
		c0.389,0.087,0.76,0.241,1.098,0.456L8.32,6.577c0.142-0.142,0.33-0.219,0.53-0.219c0.2,0,0.389,0.078,0.53,0.22
		c0.292,0.293,0.292,0.768,0,1.061L8.159,8.858c0.215,0.338,0.37,0.709,0.457,1.099H9.75c0.414,0,0.75,0.336,0.75,0.75
		s-0.336,0.75-0.75,0.75H8.615c-0.087,0.389-0.241,0.761-0.456,1.098l1.221,1.222c0.292,0.292,0.292,0.768,0,1.061
		c-0.142,0.142-0.33,0.22-0.53,0.22c-0.201,0-0.389-0.078-0.531-0.22l-1.221-1.221C6.761,13.831,6.389,13.985,6,14.072v1.135
		C6,15.621,5.664,15.957,5.25,15.957z M5.25,8.757c-1.075,0-1.95,0.875-1.95,1.95s0.875,1.95,1.95,1.95s1.95-0.875,1.95-1.95
		S6.325,8.757,5.25,8.757z"/>
</g>
</svg>
