<?xml version="1.0" encoding="utf-8"?>
<!-- Generator: Adobe Illustrator 22.1.0, SVG Export Plug-In . SVG Version: 6.00 Build 0)  -->
<svg version="1.1" id="Regular" xmlns="http://www.w3.org/2000/svg" xmlns:xlink="http://www.w3.org/1999/xlink" x="0px" y="0px"
	 viewBox="0 0 24 24" style="enable-background:new 0 0 24 24;" xml:space="preserve">
<title>decoration-flowers</title>
<g>
	<path d="M7.367,24c-0.985,0-1.947-0.276-2.782-0.798c-1.189-0.743-2.018-1.905-2.333-3.272c-0.315-1.366-0.08-2.774,0.663-3.963
		l2.756-4.41C6.085,10.895,6.798,10.5,7.579,10.5h1.304C8.57,9.161,7.673,8.031,6.421,7.425C6.241,7.338,6.105,7.186,6.04,6.996
		C5.974,6.807,5.986,6.604,6.073,6.423C6.197,6.166,6.462,6,6.748,6c0.114,0,0.224,0.025,0.326,0.075
		c1.775,0.859,3.005,2.497,3.34,4.425h3.167c0.335-1.928,1.565-3.566,3.34-4.425C17.024,6.025,17.134,6,17.248,6
		c0.286,0,0.551,0.166,0.675,0.424c0.087,0.18,0.099,0.384,0.033,0.573c-0.066,0.189-0.202,0.342-0.382,0.429
		c-1.252,0.606-2.149,1.736-2.462,3.075h1.304c0.781,0,1.494,0.395,1.908,1.057l2.756,4.41c0.522,0.836,0.798,1.798,0.798,2.782
		c0,2.895-2.355,5.25-5.25,5.25H7.367z M7.579,12c-0.26,0-0.498,0.132-0.636,0.353l-2.756,4.41
		c-0.531,0.849-0.699,1.854-0.474,2.831c0.225,0.976,0.817,1.806,1.667,2.336c0.597,0.373,1.284,0.57,1.988,0.57h9.262
		c2.068,0,3.75-1.682,3.75-3.75c0-0.704-0.197-1.391-0.57-1.988l-2.756-4.41C16.915,12.132,16.677,12,16.417,12H7.579z"/>
	<path d="M19.081,6.58c-0.575,0-1.001-0.134-1.265-0.397c-0.464-0.463-0.53-1.372-0.196-2.704c0.106-0.421,0.508-1.852,1.257-2.6
		C19.443,0.312,20.197,0,20.998,0s1.555,0.312,2.121,0.879c1.17,1.17,1.17,3.073,0,4.243C22.369,5.871,20.407,6.58,19.081,6.58z
		 M18.909,5.087c0.028,0.002,0.064,0.004,0.107,0.004c0.792,0,2.455-0.442,3.043-1.03c0.585-0.585,0.585-1.536,0-2.121
		C21.775,1.656,21.399,1.5,20.998,1.5s-0.777,0.156-1.061,0.439C19.245,2.632,18.867,4.543,18.909,5.087z"/>
	<circle cx="14.248" cy="4.5" r="1.125"/>
	<circle cx="20.998" cy="9" r="1.125"/>
	<path d="M4.914,6.58c-1.326,0-3.288-0.709-4.038-1.459C0.31,4.555-0.002,3.801-0.002,3c0-0.801,0.312-1.555,0.879-2.121
		C1.443,0.312,2.197,0,2.998,0s1.555,0.312,2.121,0.879c0.749,0.749,1.151,2.18,1.256,2.6C6.709,4.81,6.644,5.72,6.18,6.183
		C5.916,6.446,5.49,6.58,4.914,6.58z M2.998,1.5c-0.401,0-0.777,0.156-1.061,0.439S1.498,2.599,1.498,3s0.156,0.777,0.439,1.061
		c0.587,0.587,2.248,1.029,3.039,1.029c0.046,0,0.082-0.002,0.112-0.004c0.04-0.544-0.339-2.456-1.03-3.146
		C3.775,1.656,3.399,1.5,2.998,1.5z"/>
	<circle cx="9.748" cy="4.5" r="1.125"/>
	<circle cx="2.998" cy="9" r="1.125"/>
</g>
</svg>
