<?xml version="1.0" encoding="utf-8"?>
<!-- Generator: Adobe Illustrator 22.1.0, SVG Export Plug-In . SVG Version: 6.00 Build 0)  -->
<svg version="1.1" id="Regular" xmlns="http://www.w3.org/2000/svg" xmlns:xlink="http://www.w3.org/1999/xlink" x="0px" y="0px"
	 viewBox="0 0 24 24" style="enable-background:new 0 0 24 24;" xml:space="preserve">
<title>decoration-hanging-flowers</title>
<g>
	<path d="M5.428,16.5c-2.895,0-5.25-2.355-5.25-5.25c0-2.607,1.95-4.824,4.5-5.192V0.75C4.678,0.336,5.015,0,5.428,0
		s0.75,0.336,0.75,0.75v6c0,0.414-0.336,0.75-0.75,0.75c-2.068,0-3.75,1.682-3.75,3.75c0,2.068,1.682,3.75,3.75,3.75
		s3.75-1.682,3.75-3.75c0-0.414,0.336-0.75,0.75-0.75s0.75,0.336,0.75,0.75C10.678,14.145,8.323,16.5,5.428,16.5z"/>
	<path d="M21.928,24c-0.414,0-0.75-0.336-0.75-0.75c0-0.682-0.2-1.172-0.629-1.544c-0.77-0.667-2.098-0.767-2.821-0.767
		c-0.187,0-0.374,0.006-0.558,0.018C16.997,20.986,16.836,21,16.678,21c-0.009,0-0.031-0.001-0.041-0.002
		c-1.625-0.014-2.959-1.359-2.959-2.998v-7.5c-0.001-1.653-1.346-2.998-2.999-2.999c-1.655,0-3.001,1.345-3.001,2.999
		c0,0.413-0.337,0.75-0.75,0.75c-0.201,0-0.389-0.078-0.531-0.22c-0.142-0.142-0.22-0.33-0.219-0.531
		c0-1.202,0.469-2.332,1.319-3.181c0.85-0.849,1.979-1.317,3.181-1.317c2.481,0.001,4.499,2.019,4.5,4.498V18
		c0,0.811,0.653,1.478,1.461,1.499c0.072-0.009,0.199-0.023,0.369-0.035c0.679-0.153,1.17-0.765,1.17-1.463v-2.25
		c0-0.414,0.336-0.75,0.75-0.75s0.75,0.336,0.75,0.75V18c0,0.561-0.154,1.099-0.441,1.566c0.95,0.171,1.72,0.508,2.295,1.007
		c0.76,0.659,1.146,1.56,1.146,2.677C22.678,23.664,22.342,24,21.928,24z"/>
	<path d="M22.669,19.125C22.051,19.12,21.55,18.615,21.55,18c0-0.62,0.505-1.125,1.125-1.125c0.629,0.005,1.129,0.513,1.125,1.133
		c-0.005,0.616-0.51,1.117-1.125,1.117H22.669z"/>
	<circle cx="21.178" cy="13.5" r="1.125"/>
	<path d="M12.169,22.125C11.551,22.12,11.05,21.615,11.05,21c0-0.62,0.488-1.112,1.113-1.125c0.005,0,0.026,0,0.031,0
		c0.615,0.01,1.111,0.517,1.106,1.133c-0.003,0.301-0.122,0.583-0.335,0.793c-0.212,0.208-0.492,0.323-0.789,0.323H12.169z"/>
</g>
</svg>
