<?xml version="1.0" encoding="utf-8"?>
<!-- Generator: Adobe Illustrator 22.1.0, SVG Export Plug-In . SVG Version: 6.00 Build 0)  -->
<svg version="1.1" id="Regular" xmlns="http://www.w3.org/2000/svg" xmlns:xlink="http://www.w3.org/1999/xlink" x="0px" y="0px"
	 viewBox="0 0 24 24" style="enable-background:new 0 0 24 24;" xml:space="preserve">
<title>deer-target</title>
<g>
	<path d="M12,23.992c-0.414,0-0.75-0.336-0.75-0.75v-0.779c-5.177-0.369-9.351-4.544-9.721-9.721H0.75
		c-0.414,0-0.75-0.336-0.75-0.75s0.336-0.75,0.75-0.75h0.779c0.369-5.177,4.544-9.351,9.721-9.721V0.742
		c0-0.414,0.336-0.75,0.75-0.75s0.75,0.336,0.75,0.75v0.779c5.177,0.369,9.352,4.544,9.721,9.721h0.779
		c0.414,0,0.75,0.336,0.75,0.75s-0.336,0.75-0.75,0.75h-0.779c-0.369,5.177-4.544,9.352-9.721,9.721v0.779
		C12.75,23.656,12.414,23.992,12,23.992z M12,19.492c0.414,0,0.75,0.336,0.75,0.75v0.717c4.346-0.363,7.854-3.871,8.217-8.217H20.25
		c-0.414,0-0.75-0.336-0.75-0.75s0.336-0.75,0.75-0.75h0.717c-0.363-4.346-3.871-7.854-8.217-8.217v0.717
		c0,0.414-0.336,0.75-0.75,0.75s-0.75-0.336-0.75-0.75V3.025c-4.346,0.363-7.854,3.871-8.217,8.217H3.75
		c0.414,0,0.75,0.336,0.75,0.75s-0.336,0.75-0.75,0.75H3.033c0.363,4.346,3.871,7.854,8.217,8.217v-0.717
		C11.25,19.829,11.586,19.492,12,19.492z"/>
	<path d="M12,17.993c-0.775,0-1.465-0.521-1.678-1.266l-1.021-3.573c-0.038-0.135-0.057-0.272-0.057-0.408
		c0-0.06,0.004-0.122,0.013-0.186L6.97,10.272c-0.02-0.02-0.038-0.042-0.055-0.065c-0.014-0.016-0.03-0.036-0.038-0.049
		c-0.007-0.01-0.014-0.022-0.02-0.034c-0.006-0.01-0.011-0.02-0.016-0.03c-0.013-0.024-0.026-0.052-0.038-0.08
		c-0.006-0.014-0.012-0.028-0.016-0.041L6.039,7.729C5.975,7.539,5.99,7.336,6.079,7.157s0.244-0.313,0.434-0.376
		C6.59,6.755,6.67,6.742,6.75,6.742c0.323,0,0.609,0.206,0.711,0.513l0.439,1.318l1.433-0.955C9.458,7.536,9.601,7.492,9.75,7.492
		c0.251,0,0.485,0.125,0.624,0.334c0.229,0.344,0.136,0.811-0.208,1.04L8.677,9.859l1.497,1.497
		c0.179-0.074,0.372-0.113,0.569-0.113h2.513c0.14,0,0.277,0.02,0.408,0.057c0.054,0.016,0.108,0.034,0.161,0.057l1.497-1.497
		l-1.489-0.993c-0.167-0.111-0.28-0.28-0.32-0.477c-0.039-0.196,0-0.396,0.112-0.563c0.14-0.209,0.373-0.334,0.625-0.334
		c0.148,0,0.292,0.044,0.416,0.126l1.433,0.955l0.44-1.318c0.102-0.307,0.387-0.513,0.711-0.513c0.081,0,0.162,0.013,0.239,0.039
		c0.189,0.063,0.343,0.196,0.432,0.376c0.089,0.179,0.104,0.382,0.041,0.572l-0.75,2.25c-0.004,0.011-0.009,0.024-0.014,0.036
		c-0.008,0.022-0.023,0.054-0.041,0.085c-0.004,0.008-0.023,0.043-0.027,0.049c-0.011,0.017-0.03,0.042-0.046,0.06
		c-0.018,0.025-0.035,0.045-0.054,0.064l-2.289,2.289c0.026,0.199,0.011,0.401-0.043,0.592l-1.021,3.574
		c-0.167,0.584-0.615,1.032-1.2,1.199C12.322,17.97,12.162,17.993,12,17.993z M11.765,16.315c0.03,0.105,0.126,0.178,0.235,0.178
		c0.022,0,0.045-0.003,0.066-0.01c0.083-0.024,0.145-0.085,0.168-0.168l1.021-3.573h-2.511L11.765,16.315z"/>
</g>
</svg>
