<?xml version="1.0" encoding="utf-8"?>
<!-- Generator: Adobe Illustrator 22.1.0, SVG Export Plug-In . SVG Version: 6.00 Build 0)  -->
<svg version="1.1" id="Regular" xmlns="http://www.w3.org/2000/svg" xmlns:xlink="http://www.w3.org/1999/xlink" x="0px" y="0px"
	 viewBox="0 0 24 24" style="enable-background:new 0 0 24 24;" xml:space="preserve">
<title>deer-body-1</title>
<g>
	<path d="M4.5,23.492c-2.481,0-4.5-2.019-4.5-4.5s2.019-4.5,4.5-4.5h6.75c1.681,0,2.123-1.791,2.223-3.068
		c-0.74-0.146-1.422-0.517-1.949-1.067c-0.682-0.711-1.045-1.645-1.024-2.63c0.008-0.405,0.345-0.734,0.75-0.734
		c0.121,0,2.806,0.003,5.174,0.285c-0.062-0.187-0.163-0.364-0.302-0.53C15.442,5.939,13.978,5.493,12,5.493
		c-4.1,0-6.75-1.766-6.75-4.5c0-0.414,0.336-0.75,0.75-0.75s0.75,0.336,0.75,0.75c0,1.85,2.012,3,5.25,3
		c1.174,0,2.202,0.139,3.065,0.414c0.207-0.691,1.18-3.415,3.685-3.415c0.414,0,0.75,0.336,0.75,0.75s-0.336,0.75-0.75,0.75
		c-1.629,0-2.267,2.409-2.273,2.433l-0.032,0.13c0.323,0.215,0.6,0.459,0.825,0.727c0.427,0.509,0.673,1.105,0.719,1.738
		c0.382,0.078,0.717,0.165,0.999,0.259C22.454,8.936,24,10.312,24,12.242v1.5c0,0.414-0.336,0.75-0.75,0.75h-3
		c-0.464,0-0.768,0.212-1.017,0.71c-0.321,0.641-0.483,1.664-0.483,3.04c0,2.895-2.355,5.25-5.25,5.25H4.5z M4.5,15.992
		c-1.654,0-3,1.346-3,3s1.346,3,3,3h9c2.068,0,3.75-1.682,3.75-3.75c0-2.395,0.521-5.25,3-5.25h2.25v-0.75
		c0-0.423,0-1.709-3.987-3.038c-1.58-0.527-4.876-0.664-6.4-0.699c0.101,0.302,0.269,0.578,0.495,0.814
		c0.405,0.422,0.949,0.661,1.533,0.674c0,0,0.12-0.001,0.123-0.001c0.186,0,0.372,0.078,0.512,0.215
		C14.918,10.346,15,10.541,15,10.742c0,3.287-1.402,5.25-3.75,5.25H4.5z"/>
	<path d="M17.625,12.242c-0.044,0-0.088-0.004-0.131-0.011c-0.513-0.06-0.922-0.47-0.983-0.983c-0.007-0.042-0.011-0.086-0.011-0.13
		s0.004-0.088,0.011-0.13c0.06-0.513,0.47-0.923,0.983-0.983c0.043-0.008,0.087-0.011,0.131-0.011s0.088,0.004,0.131,0.011
		c0.513,0.06,0.922,0.47,0.982,0.983c0.008,0.042,0.011,0.086,0.011,0.13s-0.004,0.088-0.011,0.13
		c-0.06,0.513-0.469,0.923-0.982,0.983C17.713,12.238,17.669,12.242,17.625,12.242z"/>
</g>
</svg>
