<?xml version="1.0" encoding="utf-8"?>
<!-- Generator: Adobe Illustrator 22.1.0, SVG Export Plug-In . SVG Version: 6.00 Build 0)  -->
<svg version="1.1" id="Regular" xmlns="http://www.w3.org/2000/svg" xmlns:xlink="http://www.w3.org/1999/xlink" x="0px" y="0px"
	 viewBox="0 0 24 24" style="enable-background:new 0 0 24 24;" xml:space="preserve">
<title>deer-body</title>
<g>
	<path d="M15.5,23.992c-0.414,0-0.75-0.336-0.75-0.75v-4.5c0-0.269,0.145-0.518,0.378-0.651c1.642-0.939,2.647-2.698,2.622-4.589
		v-8.26h-1.5c-1.482,0-3.452,1.189-4.322,1.767c0.314,0.618,0.803,1.233,1.322,1.233h2.25c0.233,0,0.448,0.105,0.591,0.288
		c0.143,0.184,0.193,0.418,0.136,0.644c-0.036,0.145-0.922,3.568-3.728,3.568h-6c-1.654,0-3,1.346-3,3v2.996
		c0.002,0,0.005,0,0.007,0c0.991,0,1.751-0.233,2.26-0.692C6.471,17.412,6.5,16.493,6.5,16.484c0.004-0.407,0.34-0.741,0.75-0.741
		C7.665,15.745,8,16.081,8,16.492c0,0.036-0.005,0.722-0.369,1.5H12.5c0.414,0,0.75,0.336,0.75,0.75v4.5
		c0,0.414-0.336,0.75-0.75,0.75s-0.75-0.336-0.75-0.75v-3.75H6.343c-0.747,0.498-1.701,0.75-2.84,0.75c-0.001,0-0.002,0-0.003,0v3
		c0,0.414-0.336,0.75-0.75,0.75S2,23.656,2,23.242v-7.5c0-0.603,0.123-1.203,0.358-1.756c-0.779-0.317-1.415-0.907-1.783-1.668
		c-0.18-0.372-0.023-0.822,0.349-1.002c0.103-0.05,0.213-0.075,0.326-0.075c0.286,0,0.551,0.166,0.675,0.423
		c0.25,0.518,0.718,0.89,1.275,1.023c0.853-0.922,2.043-1.446,3.3-1.446h6c0.943,0,1.553-0.797,1.908-1.5H13.25
		c-2.019,0-2.924-2.65-2.962-2.763c-0.102-0.306,0.003-0.643,0.261-0.837c0.038-0.028,0.721-0.537,1.677-1.076
		c-1.91-0.545-3.344-2.249-3.475-4.275c-0.026-0.413,0.287-0.77,0.7-0.797c0.008,0,0.037-0.001,0.045-0.001
		c0.396,0,0.726,0.308,0.752,0.701c0.088,1.353,0.99,2.487,2.252,2.895V2.242c0-0.414,0.336-0.75,0.75-0.75S14,1.829,14,2.242v1.501
		l3.75-0.001c0.25,0,0.5-0.012,0.75-0.036V2.242c0-0.414,0.336-0.75,0.75-0.75S20,1.829,20,2.242v1.146
		c1.419-0.495,2.25-1.461,2.25-2.646c0-0.414,0.336-0.75,0.75-0.75s0.75,0.336,0.75,0.75c0,2.184-1.666,3.851-4.346,4.349
		c-0.005,0.001-0.114,0.02-0.154,0.027v8.374c0.03,2.263-1.115,4.417-3,5.668v4.082C16.25,23.656,15.914,23.992,15.5,23.992z"/>
</g>
</svg>
