<?xml version="1.0" encoding="utf-8"?>
<!-- Generator: Adobe Illustrator 22.1.0, SVG Export Plug-In . SVG Version: 6.00 Build 0)  -->
<svg version="1.1" id="Regular" xmlns="http://www.w3.org/2000/svg" xmlns:xlink="http://www.w3.org/1999/xlink" x="0px" y="0px"
	 viewBox="0 0 24 24" style="enable-background:new 0 0 24 24;" xml:space="preserve">
<title>deer-antlers</title>
<g>
	<path d="M16.997,23.992c-0.045,0-4.5-0.069-4.5-6c0-2.689,0.747-3.908,1.405-4.983c0.472-0.771,0.845-1.379,0.845-2.517V2.617
		c0-1.447,1.177-2.625,2.625-2.625s2.625,1.178,2.625,2.625V3.95l0.325-0.229c0.394-0.299,0.879-0.462,1.392-0.462
		c0.74,0,1.422,0.335,1.87,0.919c0.014,0.018,0.026,0.035,0.037,0.053c0.69,1.081,0.378,2.531-0.696,3.232l-2.929,2.063v0.588
		l0.451-0.143c0.24-0.085,0.502-0.13,0.767-0.13c0.987,0,1.875,0.621,2.212,1.545c0.009,0.023,0.015,0.045,0.021,0.067
		c0.333,1.238-0.404,2.528-1.643,2.871l-3.325,1.053c-0.916,1.33-0.859,2.283-0.781,3.591c0.024,0.407,0.049,0.819,0.049,1.275v3
		C17.747,23.656,17.41,23.992,16.997,23.992z M17.372,1.492c-0.62,0-1.125,0.505-1.125,1.125v7.875c0,1.56-0.542,2.445-1.065,3.3
		c-0.609,0.995-1.185,1.934-1.185,4.2c0,1.918,0.523,3.257,1.555,3.979c0.241,0.168,0.481,0.283,0.695,0.36v-2.09
		c0-0.412-0.023-0.801-0.045-1.177c-0.089-1.498-0.173-2.904,1.21-4.774c0.095-0.128,0.226-0.222,0.378-0.269l3.589-1.136
		c0.463-0.129,0.73-0.571,0.628-1.017c-0.13-0.317-0.444-0.529-0.79-0.529c-0.097,0-0.192,0.017-0.284,0.049
		c-0.004,0.001-1.46,0.463-1.46,0.463c-0.074,0.023-0.15,0.035-0.227,0.035c-0.161,0-0.314-0.05-0.443-0.145
		c-0.192-0.14-0.306-0.366-0.306-0.605V9.132c0-0.271,0.144-0.517,0.377-0.651l3.21-2.26c0.394-0.257,0.516-0.769,0.29-1.156
		c-0.161-0.194-0.399-0.305-0.656-0.305c-0.187,0-0.364,0.059-0.512,0.172l-1.529,1.076c-0.127,0.089-0.276,0.137-0.431,0.137
		c-0.12,0-0.24-0.029-0.346-0.085c-0.249-0.129-0.404-0.384-0.404-0.666V2.617C18.497,1.997,17.992,1.492,17.372,1.492z"/>
	<path d="M7.001,23.992c-0.414,0-0.75-0.336-0.75-0.75v-3c0-0.461,0.025-0.875,0.048-1.275c0.078-1.308,0.135-2.261-0.781-3.591
		L2.17,14.315c-1.219-0.337-1.95-1.625-1.616-2.868c0.005-0.02,0.012-0.04,0.019-0.06c0.338-0.926,1.227-1.546,2.213-1.546
		c0.263,0,0.524,0.044,0.773,0.132l0.441,0.14V9.525L1.05,7.447c-1.056-0.689-1.364-2.136-0.674-3.217
		C0.388,4.212,0.4,4.194,0.414,4.176C0.86,3.595,1.541,3.26,2.28,3.26c0.516,0,1.007,0.165,1.417,0.476L4.001,3.95V2.617
		C4.002,1.17,5.179-0.007,6.626-0.007C8.073-0.006,9.25,1.171,9.251,2.617v7.875c0,1.137,0.373,1.746,0.845,2.517
		c0.659,1.075,1.405,2.294,1.405,4.983C11.501,23.924,7.046,23.992,7.001,23.992z M1.995,11.869c-0.1,0.438,0.166,0.888,0.602,1.009
		l3.612,1.144c0.152,0.048,0.282,0.141,0.377,0.269c1.383,1.87,1.299,3.276,1.211,4.765c-0.023,0.382-0.046,0.773-0.046,1.187v2.094
		c0.906-0.326,2.25-1.32,2.25-4.344c0-2.266-0.575-3.205-1.184-4.2c-0.524-0.855-1.066-1.74-1.066-3.3V2.617
		c0-0.619-0.505-1.124-1.125-1.124c-0.62,0-1.125,0.505-1.125,1.125v2.776c0,0.281-0.155,0.536-0.404,0.666
		C4.99,6.115,4.87,6.144,4.751,6.144c-0.155,0-0.304-0.047-0.431-0.136l-1.507-1.06C2.648,4.823,2.466,4.761,2.275,4.761
		c-0.255,0-0.492,0.11-0.652,0.304C1.397,5.452,1.515,5.96,1.892,6.206l3.232,2.275c0.233,0.134,0.377,0.38,0.377,0.651v2.005
		c0,0.238-0.115,0.464-0.307,0.605c-0.129,0.095-0.283,0.145-0.443,0.145c-0.077,0-0.153-0.012-0.227-0.035
		c0,0-1.456-0.461-1.461-0.463c-0.088-0.031-0.183-0.048-0.279-0.048C2.439,11.341,2.125,11.552,1.995,11.869z"/>
</g>
</svg>
