<?xml version="1.0" encoding="utf-8"?>
<!-- Generator: Adobe Illustrator 22.1.0, SVG Export Plug-In . SVG Version: 6.00 Build 0)  -->
<svg version="1.1" id="Regular" xmlns="http://www.w3.org/2000/svg" xmlns:xlink="http://www.w3.org/1999/xlink" x="0px" y="0px"
	 viewBox="0 0 24 24" style="enable-background:new 0 0 24 24;" xml:space="preserve">
<title>deer-jump</title>
<g>
	<path d="M4.251,23.992c-0.233,0-0.448-0.105-0.591-0.289c-0.254-0.326-0.196-0.798,0.13-1.053c0.457-0.357,0.91-0.753,1.35-1.183
		c-1.762-1.416-2.365-3.664-2.33-5.367c0.02-0.946,0.219-1.836,0.581-2.61c-0.544-0.017-1.059-0.234-1.457-0.616
		c-0.428-0.41-0.671-0.962-0.683-1.555c-0.001-0.032-0.001-0.061,0-0.091c0.008-0.415,0.34-0.738,0.756-0.738
		c0.421,0.007,0.751,0.35,0.744,0.763v0.043c0.004,0.183,0.083,0.362,0.221,0.495c0.135,0.129,0.31,0.2,0.495,0.2
		c0.003,0,0.992,0,0.992,0c0.291-0.274,0.612-0.499,0.956-0.671c1.081-0.54,2.077-0.997,3.04-1.439
		c1.695-0.778,3.156-1.448,4.379-2.264c0.89-0.593,1.08-1.34,1.281-2.131c0.119-0.468,0.251-0.985,0.545-1.44
		c-0.284-0.199-0.586-0.374-0.903-0.521c-0.054-0.019-0.106-0.043-0.153-0.072c-0.727-0.312-1.498-0.469-2.292-0.469
		c-0.092,0-0.183,0.002-0.275,0.006c-0.005,0-0.03,0.001-0.035,0.001c-0.01,0-0.021-0.001-0.033-0.001
		C7.57,2.976,6.619,1.155,6.58,1.078c-0.185-0.37-0.034-0.822,0.335-1.006c0.104-0.052,0.22-0.079,0.335-0.079
		c0.286,0,0.543,0.159,0.671,0.414c0.016,0.028,0.505,0.859,2.329,1.047V0.742c0-0.414,0.336-0.75,0.75-0.75s0.75,0.336,0.75,0.75
		v0.755c0.507,0.029,1.009,0.112,1.5,0.248V0.742c0-0.414,0.336-0.75,0.75-0.75s0.75,0.336,0.75,0.75v1.599
		c0.396,0.211,0.774,0.459,1.125,0.739c0.046-0.018,0.092-0.035,0.138-0.05c0.312-0.104,0.657-0.157,1.026-0.157
		c2.442,0,5.355,2.273,5.679,2.533c0.174,0.139,0.276,0.346,0.281,0.568c0.037,1.627-1.256,2.98-2.882,3.017l-0.066,0.001
		l-0.07-0.001c-0.516,0-2.232,0.217-2.232,3v1.892l1.485-0.594c0.178-0.071,0.365-0.107,0.555-0.107c0.618,0,1.165,0.37,1.394,0.943
		c0.102,0.254,0.132,0.532,0.087,0.803l-0.531,3.185c-0.06,0.363-0.371,0.626-0.739,0.626c-0.04,0-0.081-0.003-0.123-0.01
		c-0.199-0.033-0.372-0.141-0.488-0.304c-0.116-0.163-0.162-0.362-0.129-0.559l0.531-3.185l-2.507,1.003l-8.575,3.573
		c-0.204,0.543-0.5,1.034-0.883,1.464c-0.253,0.323-0.533,0.651-0.879,1.029C6.9,21.83,6.836,21.899,6.757,21.957
		c-0.657,0.699-1.345,1.33-2.045,1.876C4.581,23.936,4.417,23.992,4.251,23.992z M17.041,4.373c-0.207,0-0.393,0.027-0.553,0.081
		c-0.589,0.197-0.708,0.572-0.919,1.403c-0.225,0.885-0.533,2.097-1.902,3.009c-1.321,0.881-2.832,1.574-4.582,2.377
		c-0.957,0.439-1.941,0.891-2.999,1.42c-1.063,0.531-1.744,1.861-1.777,3.47c-0.028,1.375,0.454,3.168,1.866,4.237
		c0.173-0.201,0.333-0.396,0.484-0.589c0.01-0.013,0.021-0.026,0.032-0.039c0.273-0.303,0.482-0.651,0.624-1.035
		c0.002-0.138,0.042-0.273,0.116-0.39c0.228-1.004-0.045-2.054-0.737-2.822c-0.134-0.149-0.203-0.341-0.192-0.541
		c0.01-0.2,0.098-0.384,0.247-0.518c0.138-0.124,0.316-0.193,0.502-0.193c0.212,0,0.415,0.09,0.557,0.248
		c0.753,0.834,1.175,1.909,1.201,3.02l7.242-3.018v-2.5c0-3.321,2.02-4.5,3.75-4.5l0.083,0c0.675-0.016,1.25-0.507,1.386-1.153
		C20.401,5.553,18.433,4.373,17.041,4.373z"/>
</g>
</svg>
