<?xml version="1.0" encoding="utf-8"?>
<!-- Generator: Adobe Illustrator 22.1.0, SVG Export Plug-In . SVG Version: 6.00 Build 0)  -->
<svg version="1.1" id="Layer_1" xmlns="http://www.w3.org/2000/svg" xmlns:xlink="http://www.w3.org/1999/xlink" x="0px" y="0px"
	 viewBox="0 0 24 24" style="enable-background:new 0 0 24 24;" xml:space="preserve">
<title>delivery-person-motorcycle</title>
<g>
	<path d="M19.126,24c-0.067,0-0.134-0.002-0.201-0.007c-1.582-0.106-2.804-1.429-2.805-2.994h-2.933
		c-0.043,0.003-0.086,0.005-0.129,0.005c-0.836,0-1.534-0.626-1.624-1.456c-0.009-0.077-0.011-0.157-0.009-0.235
		c0-1.132-0.936-2.063-2.086-2.063H6.216c-1.15,0-2.085,0.935-2.085,2.085v0.984c0,0.414-0.336,0.75-0.75,0.75
		s-0.75-0.336-0.75-0.75v-0.984c0-1.977,1.608-3.585,3.585-3.585h6.909c0.414,0,0.75,0.336,0.75,0.75s-0.336,0.75-0.75,0.75h-0.871
		c0.433,0.603,0.671,1.329,0.671,2.085c-0.001,0.029-0.001,0.04,0,0.05c0.008,0.068,0.065,0.12,0.132,0.12
		c0.042-0.004,0.069-0.005,0.096-0.005h3.704c0.026-0.003,0.053-0.004,0.08-0.004c0.027,0,0.055,0.001,0.083,0.004h2.106v-6.75
		h-0.75c-0.414,0-0.75-0.336-0.75-0.75c0-0.414,0.336-0.75,0.75-0.75h1.5c0.414,0,0.75,0.336,0.75,0.75v0.034l0.888-0.353
		c0.197-0.077,0.401-0.115,0.611-0.115c0.247,0,0.495,0.056,0.717,0.161c0.443,0.184,0.757,0.637,0.783,1.146l0.001,2.282
		c-0.027,0.547-0.34,0.999-0.816,1.199c-0.196,0.094-0.438,0.147-0.681,0.147c-0.21,0-0.416-0.039-0.611-0.115l-0.892-0.355v0.664
		c1.473,0.257,2.671,1.403,2.975,2.888c0.072,0.356-0.015,0.725-0.238,1.01c-0.187,0.265-0.51,0.432-0.853,0.432l0,0
		c-0.078,0-0.156-0.009-0.231-0.026H22.13c0,0.063-0.002,0.129-0.007,0.194C22.018,22.768,20.702,24,19.126,24L19.126,24z M17.62,21
		c0.003,0.784,0.613,1.444,1.405,1.497c0.036,0.002,0.071,0.004,0.106,0.004c0.787,0,1.444-0.617,1.496-1.405
		c0.002-0.032,0.003-0.063,0.003-0.095H17.62z M22.016,19.5c-0.247-0.616-0.758-1.082-1.391-1.27v1.27h0.609
		c0.027-0.003,0.053-0.004,0.079-0.004c0.026,0,0.051,0.001,0.076,0.004H22.016z M22.067,14.99c0.016,0.006,0.036,0.01,0.057,0.01
		c0.001,0,0.001,0,0.002,0l-0.001-1.934c-0.001,0-0.003,0-0.005,0c-0.02,0-0.039,0.004-0.057,0.011l-1.438,0.571v0.769L22.067,14.99
		z"/>
	<path d="M1.875,14.25c-0.827,0-1.5-0.673-1.5-1.5V9c0-0.827,0.673-1.5,1.5-1.5h4.5c0.827,0,1.5,0.673,1.5,1.5v3.75
		c0,0.827-0.673,1.5-1.5,1.5H1.875z M1.875,12.75h4.5V9h-1.5v1.5c0,0.414-0.336,0.75-0.75,0.75s-0.75-0.336-0.75-0.75V9h-1.5V12.75z
		"/>
	<path d="M7.875,24c-1.654,0-3-1.346-3-3s1.346-3,3-3s3,1.346,3,3S9.529,24,7.875,24z M7.875,19.5c-0.827,0-1.5,0.673-1.5,1.5
		s0.673,1.5,1.5,1.5s1.5-0.673,1.5-1.5S8.702,19.5,7.875,19.5z"/>
	<path d="M16.787,18.75c-0.323,0-0.609-0.206-0.711-0.513l-0.816-2.449c-0.307-0.92-1.165-1.538-2.135-1.538h-1.5
		c-1.241,0-2.25-1.01-2.25-2.25V8.82c0.01-1.492,1.229-2.704,2.717-2.704l0.046,0c1.355,0,1.766,0.273,4.048,1.787
		c0.514,0.341,1.116,0.74,1.849,1.219c0.346,0.226,0.445,0.691,0.219,1.038c-0.139,0.213-0.374,0.341-0.629,0.341
		c-0.146,0-0.287-0.042-0.41-0.122c-0.735-0.479-1.339-0.88-1.843-1.215c-2.266-1.504-2.358-1.547-3.27-1.547
		c-0.676,0-1.223,0.542-1.227,1.209V12c0,0.414,0.336,0.75,0.75,0.75h1.5c1.616,0,3.046,1.03,3.557,2.564l0.816,2.449
		c0.131,0.393-0.082,0.818-0.474,0.949C16.948,18.737,16.868,18.75,16.787,18.75z"/>
	<path d="M10.125,4.5c-0.414,0-0.75-0.336-0.75-0.75v-1.5c0-1.241,1.009-2.25,2.25-2.25h1.5c1.241,0,2.25,1.009,2.25,2.25V3h0.75
		c0.414,0,0.75,0.336,0.75,0.75s-0.336,0.75-0.75,0.75H10.125z M13.875,3V2.25c0-0.414-0.336-0.75-0.75-0.75h-1.5
		c-0.414,0-0.75,0.336-0.75,0.75V3H13.875z"/>
</g>
</svg>
