<?xml version="1.0" encoding="utf-8"?>
<!-- Generator: Adobe Illustrator 22.1.0, SVG Export Plug-In . SVG Version: 6.00 Build 0)  -->
<svg version="1.1" id="Layer_1" xmlns="http://www.w3.org/2000/svg" xmlns:xlink="http://www.w3.org/1999/xlink" x="0px" y="0px"
	 viewBox="0 0 24 24" style="enable-background:new 0 0 24 24;" xml:space="preserve">
<title>delivery-man-head</title>
<g>
	<path d="M1.708,18.001c-0.462-0.003-0.892-0.184-1.213-0.509C0.173,17.165-0.003,16.734,0,16.276V1.722
		c-0.006-0.941,0.758-1.714,1.703-1.721h16.089c0.949,0.007,1.714,0.781,1.708,1.726v6.524c0,0.414-0.336,0.75-0.75,0.75
		S18,8.664,18,8.251V1.722c0.001-0.122-0.095-0.22-0.213-0.221h-4.279c0,0-0.008,4.788-0.009,4.793
		c-0.021,0.478-0.321,0.905-0.764,1.087c-0.174,0.078-0.372,0.121-0.578,0.121c-0.219,0-0.438-0.05-0.636-0.144L9.75,6.491
		L7.989,7.354C7.784,7.451,7.571,7.5,7.35,7.5c-0.206,0-0.407-0.043-0.596-0.127C6.327,7.197,6.031,6.772,6.01,6.294L6.009,1.501
		H1.708C1.594,1.502,1.499,1.599,1.5,1.717v14.564c0,0.062,0.021,0.115,0.062,0.156c0.041,0.042,0.093,0.063,0.151,0.064H6.75
		c0.414,0,0.75,0.336,0.75,0.75s-0.336,0.75-0.75,0.75H1.708z M9.75,4.906c0.114,0,0.228,0.026,0.33,0.077L12,5.922l0.007-4.421
		H7.509v4.414L9.42,4.982C9.522,4.932,9.636,4.906,9.75,4.906z"/>
	<circle cx="16.5" cy="14.251" r="1.125"/>
	<path d="M9.75,18.001c-0.414,0-0.75-0.336-0.75-0.75s0.336-0.75,0.75-0.75h0.75v-2.1c-0.005-0.903,0.528-1.723,1.358-2.087
		l3.752-1.629c0.282-0.122,0.581-0.184,0.89-0.184c0.309,0,0.608,0.062,0.89,0.185l3.75,1.628c0.832,0.365,1.365,1.186,1.36,2.092
		v2.096h0.75c0.414,0,0.75,0.336,0.75,0.75s-0.336,0.75-0.75,0.75H9.75z M21,16.501v-2.1c0.002-0.311-0.179-0.59-0.46-0.713
		l-3.748-1.627C16.7,12.02,16.602,12,16.5,12s-0.2,0.02-0.292,0.06l-3.75,1.628c-0.279,0.123-0.46,0.401-0.458,0.708v2.104H21z"/>
	<path d="M16.51,24.008c-0.292,0-0.587-0.025-0.879-0.073c-2.208-0.37-3.939-2.102-4.309-4.309
		c-0.068-0.408,0.208-0.795,0.616-0.864c0.043-0.007,0.083-0.01,0.123-0.01c0.369,0,0.68,0.263,0.741,0.626
		c0.264,1.576,1.501,2.813,3.078,3.078c0.209,0.035,0.421,0.053,0.63,0.053c0.777,0,1.527-0.241,2.167-0.698
		c0.816-0.581,1.356-1.446,1.522-2.433c0.061-0.363,0.372-0.626,0.74-0.626c0.041,0,0.082,0.003,0.123,0.01
		c0.408,0.068,0.685,0.456,0.616,0.864c-0.232,1.383-0.989,2.593-2.131,3.407C18.651,23.67,17.601,24.008,16.51,24.008z"/>
</g>
</svg>
