<?xml version="1.0" encoding="utf-8"?>
<!-- Generator: Adobe Illustrator 22.1.0, SVG Export Plug-In . SVG Version: 6.00 Build 0)  -->
<svg version="1.1" id="Layer_1" xmlns="http://www.w3.org/2000/svg" xmlns:xlink="http://www.w3.org/1999/xlink" x="0px" y="0px"
	 viewBox="0 0 24 24" style="enable-background:new 0 0 24 24;" xml:space="preserve">
<title>delivery-truck-3</title>
<g>
	<path d="M18.75,21.75c-0.96,0-1.808-0.615-2.121-1.5H8.121C7.808,21.135,6.96,21.75,6,21.75s-1.808-0.615-2.121-1.5H2.25
		C1.009,20.25,0,19.241,0,18v-4.235c0.001-0.926,0.556-1.745,1.415-2.088l2.404-0.962L4.385,6.75H3.75C3.336,6.75,3,6.414,3,6V4
		c0-0.965,0.785-1.75,1.75-1.75h17.5C23.215,2.25,24,3.035,24,4v14c0,1.241-1.009,2.25-2.25,2.25h-0.879
		C20.558,21.135,19.71,21.75,18.75,21.75z M18.75,18.75c-0.414,0-0.75,0.336-0.75,0.75s0.336,0.75,0.75,0.75s0.75-0.336,0.75-0.75
		S19.164,18.75,18.75,18.75z M6,18.75c-0.414,0-0.75,0.336-0.75,0.75S5.586,20.25,6,20.25s0.75-0.336,0.75-0.75S6.414,18.75,6,18.75
		z M21.75,18.75c0.414,0,0.75-0.336,0.75-0.75v-2.25H11.25v3h5.379c0.314-0.885,1.162-1.5,2.121-1.5s1.808,0.615,2.121,1.5H21.75z
		 M9.75,18.75V12H4.644l-2.673,1.069C1.685,13.184,1.5,13.457,1.5,13.765v1.985h1.207c0.414,0,0.75,0.336,0.75,0.75
		s-0.336,0.75-0.75,0.75H1.5V18c0,0.414,0.336,0.75,0.75,0.75h1.629c0.314-0.885,1.162-1.5,2.121-1.5s1.808,0.615,2.121,1.5H9.75z
		 M22.5,14.25V4c0-0.138-0.112-0.25-0.25-0.25h-11v10.5H22.5z M9.75,10.5V6.75H5.9L5.365,10.5H9.75z M9.75,5.25v-1.5h-5
		C4.612,3.75,4.5,3.862,4.5,4v1.25H9.75z"/>
</g>
</svg>
