<?xml version="1.0" encoding="utf-8"?>
<!-- Generator: Adobe Illustrator 22.1.0, SVG Export Plug-In . SVG Version: 6.00 Build 0)  -->
<svg version="1.1" id="Layer_1" xmlns="http://www.w3.org/2000/svg" xmlns:xlink="http://www.w3.org/1999/xlink" x="0px" y="0px"
	 viewBox="0 0 24 24" style="enable-background:new 0 0 24 24;" xml:space="preserve">
<title>delivery-man-give</title>
<g>
	<path d="M7.49,24.001c-1.241,0-2.25-1.009-2.25-2.25v-0.123c-1.321-0.339-2.247-1.326-2.243-2.436v-0.897
		c0-0.582,0.239-1.127,0.69-1.576c0.39-0.388,0.934-0.679,1.553-0.833v-1.634c0-1.241,1.009-2.25,2.25-2.25h9.01
		c1.241,0,2.25,1.009,2.25,2.25v1.628c0.62,0.153,1.167,0.446,1.564,0.841c0.451,0.449,0.689,0.994,0.689,1.575v0.9
		c0.004,1.111-0.926,2.097-2.253,2.435v0.121c0,1.241-1.009,2.25-2.25,2.25H7.49z M6.74,21.751c0,0.414,0.336,0.75,0.75,0.75h9.01
		c0.414,0,0.75-0.336,0.75-0.75v-0.048c-0.404-0.083-0.762-0.266-1.031-0.533c-0.295-0.293-0.458-0.669-0.458-1.059l-0.009-2.701
		c-0.002-0.386,0.159-0.761,0.452-1.055c0.272-0.273,0.636-0.461,1.047-0.545v-1.559c0-0.414-0.336-0.75-0.75-0.75h-2.252v3.75
		c0,0.414-0.336,0.75-0.75,0.75h-3c-0.414,0-0.75-0.336-0.75-0.75v-3.75H7.49c-0.414,0-0.75,0.336-0.75,0.75v1.558
		c0.412,0.084,0.776,0.272,1.048,0.546c0.293,0.295,0.453,0.67,0.451,1.057l-0.005,2.7c0,0.39-0.163,0.766-0.459,1.058
		c-0.269,0.267-0.629,0.451-1.035,0.533V21.751z M6.232,17.258c-0.602,0-1.158,0.196-1.488,0.523
		c-0.113,0.113-0.248,0.293-0.248,0.513v0.9c-0.002,0.497,0.742,1.055,1.74,1.06c0.208-0.001,0.39-0.057,0.483-0.149
		c0.007-0.006,0.011-0.012,0.015-0.016l0.005-2.66c-0.003-0.004-0.008-0.01-0.015-0.016C6.648,17.336,6.466,17.258,6.232,17.258z
		 M17.274,20.104c0.093,0.092,0.278,0.15,0.473,0.15c1.012-0.005,1.758-0.562,1.756-1.057v-0.903c0-0.219-0.135-0.399-0.248-0.512
		c-0.33-0.329-0.889-0.525-1.494-0.525h-0.014c-0.199,0-0.388,0.061-0.482,0.156c-0.007,0.007-0.012,0.012-0.015,0.017l0.009,2.658
		C17.263,20.093,17.268,20.098,17.274,20.104z M12.748,16.501v-3h-1.5v3H12.748z"/>
	<circle cx="12" cy="3.75" r="1.125"/>
	<path d="M14.9,10.938c-0.222,0-0.431-0.097-0.574-0.267c-0.129-0.153-0.19-0.348-0.173-0.547s0.111-0.38,0.264-0.509
		c0.652-0.548,1.088-1.287,1.255-2.113H8.327c0.165,0.825,0.599,1.565,1.249,2.114c0.316,0.267,0.356,0.741,0.089,1.057
		c-0.143,0.169-0.352,0.266-0.573,0.266c-0.177,0-0.349-0.063-0.484-0.177c-0.991-0.838-1.623-1.985-1.803-3.26H5.247
		c-0.414,0-0.75-0.336-0.75-0.75s0.336-0.75,0.75-0.75h0.75v-2.1C5.993,2.999,6.525,2.179,7.354,1.814l3.754-1.628
		c0.281-0.122,0.581-0.184,0.89-0.184c0.309,0,0.609,0.062,0.89,0.185l3.749,1.627c0.832,0.365,1.365,1.186,1.361,2.092v2.096h0.75
		c0.414,0,0.75,0.336,0.75,0.75s-0.336,0.75-0.75,0.75h-1.552c-0.182,1.276-0.817,2.424-1.812,3.261
		C15.247,10.875,15.076,10.938,14.9,10.938z M16.497,6.001v-2.1c0.002-0.311-0.179-0.59-0.46-0.713l-3.747-1.626
		c-0.093-0.04-0.191-0.061-0.292-0.061c-0.101,0-0.2,0.02-0.292,0.06l-3.75,1.627C7.676,3.312,7.495,3.59,7.497,3.898v2.103H16.497z
		"/>
</g>
</svg>
