<?xml version="1.0" encoding="utf-8"?>
<!-- Generator: Adobe Illustrator 22.1.0, SVG Export Plug-In . SVG Version: 6.00 Build 0)  -->
<svg version="1.1" id="Layer_1" xmlns="http://www.w3.org/2000/svg" xmlns:xlink="http://www.w3.org/1999/xlink" x="0px" y="0px"
	 viewBox="0 0 24 24" style="enable-background:new 0 0 24 24;" xml:space="preserve">
<title>delivery-truck-packages</title>
<g>
	<path d="M13.728,20.25c-0.953,0-1.728-0.775-1.728-1.728V11.25H6.679C4.23,12.627,3,13.341,3,15.243v0.507
		c0.414,0,0.75,0.336,0.75,0.75S3.414,17.25,3,17.25H1.5l0,1.5h0.75C2.664,18.75,3,19.086,3,19.5s-0.336,0.75-0.75,0.75h-1.5
		C0.336,20.25,0,19.914,0,19.5v-2.3c0.009-0.405,0.169-0.773,0.452-1.043c0.273-0.262,0.642-0.406,1.037-0.406H1.5v-0.507
		c0-2.757,1.899-3.868,4.326-5.234L9.229,1.5H8.332c-0.414,0-0.75-0.336-0.75-0.75S7.918,0,8.332,0H23.25C23.664,0,24,0.336,24,0.75
		S23.664,1.5,23.25,1.5H13.5v14.25H15v-3.975c0-0.565,0.309-1.034,0.75-1.205V5.75c0-0.689,0.561-1.25,1.25-1.25h3.5
		c0.689,0,1.25,0.561,1.25,1.25v4.82c0.441,0.171,0.75,0.64,0.75,1.205v3.975h0.75c0.414,0,0.75,0.336,0.75,0.75
		s-0.336,0.75-0.75,0.75H13.5v1.272c0,0.126,0.102,0.228,0.228,0.228h9.522c0.414,0,0.75,0.336,0.75,0.75s-0.336,0.75-0.75,0.75
		H13.728z M21,15.75V12h-1.5v1.207c0,0.414-0.336,0.75-0.75,0.75S18,13.621,18,13.207V12h-1.5v3.75H21z M20.25,10.5V6h-3v4.5H20.25z
		 M12,9.75V1.5h-1.155l-3.3,8.25H12z"/>
	<path d="M7.5,24c-2.068,0-3.75-1.682-3.75-3.75S5.432,16.5,7.5,16.5s3.75,1.682,3.75,3.75S9.568,24,7.5,24z M7.5,18
		c-1.241,0-2.25,1.009-2.25,2.25S6.259,22.5,7.5,22.5s2.25-1.009,2.25-2.25S8.741,18,7.5,18z"/>
</g>
</svg>
