<?xml version="1.0" encoding="utf-8"?>
<!-- Generator: Adobe Illustrator 22.1.0, SVG Export Plug-In . SVG Version: 6.00 Build 0)  -->
<svg version="1.1" id="Layer_1" xmlns="http://www.w3.org/2000/svg" xmlns:xlink="http://www.w3.org/1999/xlink" x="0px" y="0px"
	 viewBox="0 0 24 24" style="enable-background:new 0 0 24 24;" xml:space="preserve">
<title>delivery-drone</title>
<g>
	<path d="M8,24c-0.689,0-1.25-0.561-1.25-1.25v-8c0-0.689,0.561-1.25,1.25-1.25h8c0.689,0,1.25,0.561,1.25,1.25v8
		c0,0.689-0.561,1.25-1.25,1.25H8z M15.75,22.5V15h-1.5v3.75c0,0.414-0.336,0.75-0.75,0.75h-3c-0.414,0-0.75-0.336-0.75-0.75V15
		h-1.5v7.5H15.75z M12.75,18v-3h-1.5v3H12.75z"/>
	<path d="M12.051,9.75c-1.241,0-2.25-1.009-2.25-2.25s1.009-2.25,2.25-2.25c1.241,0,2.25,1.009,2.25,2.25S13.292,9.75,12.051,9.75z
		 M12.051,6.75c-0.414,0-0.75,0.336-0.75,0.75s0.336,0.75,0.75,0.75s0.75-0.336,0.75-0.75S12.464,6.75,12.051,6.75z"/>
	<path d="M19,15.258c-0.071,0-0.141-0.01-0.208-0.029c-0.397-0.115-0.627-0.531-0.513-0.928l0.413-1.434
		c0.006-0.021,0.012-0.046,0.018-0.071c0.07-0.315,0.012-0.64-0.162-0.914c-0.174-0.274-0.445-0.463-0.762-0.533l-2.666-0.563
		C14.283,11.57,13.201,12,12.051,12c-1.173,0-2.271-0.446-3.115-1.26l-2.721,0.608c-0.318,0.07-0.589,0.26-0.763,0.534
		c-0.174,0.274-0.232,0.599-0.161,0.916c0.005,0.024,0.011,0.047,0.018,0.07l0.413,1.433c0.115,0.397-0.116,0.813-0.513,0.928
		C5.14,15.248,5.07,15.258,5,15.258c-0.332,0-0.629-0.223-0.721-0.542l-0.413-1.434c-0.015-0.053-0.029-0.106-0.041-0.16
		c-0.157-0.706-0.028-1.433,0.362-2.045c0.39-0.612,0.994-1.036,1.701-1.193l2.095-0.468C7.715,8.849,7.568,8.234,7.552,7.608
		l-1.097-0.32C5.304,6.952,4.501,5.88,4.5,4.681v-1.89L1.264,1.72C1.074,1.657,0.92,1.524,0.83,1.345
		C0.74,1.166,0.725,0.962,0.788,0.772C0.89,0.465,1.176,0.258,1.5,0.258c0.08,0,0.159,0.013,0.235,0.038L4.5,1.212V0.75
		C4.5,0.336,4.836,0,5.25,0S6,0.336,6,0.75v0.462l2.764-0.915C8.84,0.271,8.92,0.258,9,0.258c0.324,0,0.61,0.207,0.712,0.515
		C9.775,0.962,9.76,1.166,9.67,1.345C9.58,1.524,9.426,1.657,9.236,1.72L6,2.792v1.889c0,0.536,0.36,1.016,0.875,1.167L7.774,6.11
		C8.37,4.26,10.077,3,12.051,3c1.96,0,3.662,1.249,4.268,3.083l0.806-0.235C17.64,5.698,17.999,5.217,18,4.681V2.792L14.764,1.72
		c-0.19-0.063-0.344-0.196-0.434-0.375c-0.09-0.179-0.105-0.382-0.042-0.573C14.39,0.465,14.676,0.258,15,0.258
		c0.08,0,0.159,0.013,0.235,0.038L18,1.212V0.75C18,0.336,18.336,0,18.75,0s0.75,0.336,0.75,0.75v0.462l2.764-0.915
		C22.34,0.271,22.42,0.258,22.5,0.258c0.324,0,0.61,0.207,0.712,0.514c0.063,0.191,0.049,0.394-0.042,0.573
		c-0.09,0.179-0.244,0.312-0.434,0.375L19.5,2.792v1.889c0,1.199-0.804,2.271-1.955,2.607l-0.995,0.29
		c-0.011,0.653-0.166,1.293-0.451,1.88l2.005,0.424c0.714,0.158,1.32,0.582,1.709,1.194c0.39,0.612,0.518,1.339,0.361,2.047
		c-0.012,0.054-0.025,0.105-0.04,0.156l-0.414,1.437C19.629,15.035,19.332,15.258,19,15.258z M12.051,4.5c-1.654,0-3,1.346-3,3
		s1.346,3,3,3c1.654,0,3-1.346,3-3S13.705,4.5,12.051,4.5z"/>
</g>
</svg>
