<?xml version="1.0" encoding="utf-8"?>
<!-- Generator: Adobe Illustrator 22.1.0, SVG Export Plug-In . SVG Version: 6.00 Build 0)  -->
<svg version="1.1" id="Layer_1" xmlns="http://www.w3.org/2000/svg" xmlns:xlink="http://www.w3.org/1999/xlink" x="0px" y="0px"
	 viewBox="0 0 24 24" style="enable-background:new 0 0 24 24;" xml:space="preserve">
<title>delivery-truck-cargo</title>
<g>
	<path d="M18.75,21c-0.96,0-1.808-0.615-2.121-1.5H7.371C7.058,20.385,6.21,21,5.25,21s-1.808-0.615-2.121-1.5H2.25
		C1.009,19.5,0,18.491,0,17.25v-12C0,4.009,1.009,3,2.25,3H15c1.241,0,2.25,1.009,2.25,2.25V7.5h3c2.068,0,3.75,1.682,3.75,3.75v6
		c0,1.241-1.009,2.25-2.25,2.25h-0.879C20.558,20.385,19.71,21,18.75,21z M18.75,18C18.336,18,18,18.336,18,18.75
		s0.336,0.75,0.75,0.75s0.75-0.336,0.75-0.75S19.164,18,18.75,18z M5.25,18c-0.414,0-0.75,0.336-0.75,0.75s0.336,0.75,0.75,0.75
		S6,19.164,6,18.75S5.664,18,5.25,18z M21.75,18c0.414,0,0.75-0.336,0.75-0.75V13.5H21c-1.241,0-2.25-1.009-2.25-2.25V9h-1.5v8.076
		c0.402-0.36,0.931-0.576,1.5-0.576c0.96,0,1.808,0.615,2.121,1.5H21.75z M15.75,18V5.25c0-0.414-0.336-0.75-0.75-0.75H2.25
		C1.836,4.5,1.5,4.836,1.5,5.25v5.25h3V6.75C4.5,6.336,4.836,6,5.25,6h6C11.664,6,12,6.336,12,6.75v3.75h0.75
		c0.414,0,0.75,0.336,0.75,0.75V15c0,0.414-0.336,0.75-0.75,0.75S12,15.414,12,15v-3h-1.5v1.5c0,0.414-0.336,0.75-0.75,0.75
		S9,13.914,9,13.5V12H7.5v3c0,0.414-0.336,0.75-0.75,0.75S6,15.414,6,15v-3H4.5v1.5c0,0.414-0.336,0.75-0.75,0.75S3,13.914,3,13.5
		V12H1.5v5.25C1.5,17.664,1.836,18,2.25,18h0.879c0.314-0.885,1.162-1.5,2.121-1.5s1.808,0.615,2.121,1.5H15.75z M20.25,11.25
		c0,0.414,0.336,0.75,0.75,0.75h1.5v-0.75c0-1.241-1.009-2.25-2.25-2.25V11.25z M10.5,10.5v-3H9V9c0,0.414-0.336,0.75-0.75,0.75
		S7.5,9.414,7.5,9V7.5H6v3H10.5z"/>
</g>
</svg>
