<?xml version="1.0" encoding="utf-8"?>
<!-- Generator: Adobe Illustrator 22.1.0, SVG Export Plug-In . SVG Version: 6.00 Build 0)  -->
<svg version="1.1" id="Regular" xmlns="http://www.w3.org/2000/svg" xmlns:xlink="http://www.w3.org/1999/xlink" x="0px" y="0px"
	 viewBox="0 0 24 24" style="enable-background:new 0 0 24 24;" xml:space="preserve">
<title>dentistry-tooth-mirror</title>
<g>
	<path d="M4.5,20.743c-2.236,0-4.5-0.773-4.5-2.25s2.264-2.25,4.5-2.25c1.288,0,2.986,0.282,3.887,1.052l3.586-3.586l-1.061-1.061
		c-0.284-0.283-0.44-0.66-0.439-1.061c0-0.401,0.156-0.777,0.439-1.061l6.686-6.685c0.713-0.689,1.641-1.066,2.616-1.066
		c0.973,0,1.898,0.375,2.604,1.057c0.721,0.696,1.127,1.631,1.145,2.632c0.017,1.001-0.356,1.95-1.052,2.67l-6.694,6.695
		c-0.283,0.283-0.66,0.439-1.061,0.439c-0.4,0-0.777-0.156-1.061-0.439l-1.061-1.061l-4.086,4.086
		C8.597,20.151,6.426,20.743,4.5,20.743z M1.514,18.493c0.173,0.24,1.195,0.75,2.986,0.75s2.813-0.51,2.986-0.75
		c-0.173-0.24-1.195-0.75-2.986-0.75S1.687,18.253,1.514,18.493z M11.973,11.587l3.182,3.182l1.061-1.061l-3.182-3.182
		L11.973,11.587z M17.277,12.648l4.562-4.562c0.411-0.427,0.635-0.995,0.625-1.595c-0.01-0.601-0.254-1.162-0.687-1.579
		c-0.424-0.41-0.979-0.636-1.563-0.636s-1.139,0.226-1.563,0.635l-4.555,4.555L17.277,12.648z"/>
</g>
</svg>
