<?xml version="1.0" encoding="utf-8"?>
<!-- Generator: Adobe Illustrator 22.1.0, SVG Export Plug-In . SVG Version: 6.00 Build 0)  -->
<svg version="1.1" id="Regular" xmlns="http://www.w3.org/2000/svg" xmlns:xlink="http://www.w3.org/1999/xlink" x="0px" y="0px"
	 viewBox="0 0 24 24" style="enable-background:new 0 0 24 24;" xml:space="preserve">
<title>dentistry-tooth-brush</title>
<g>
	<path d="M14.618,24.003c-0.968,0-1.756-0.788-1.756-1.756v-1.006c-0.004-0.995,0.184-1.968,0.56-2.891
		c0.012-0.029,0.01-0.053-0.004-0.073c-0.801-1.128-1.27-2.451-1.359-3.829c-0.068-2.15,1.611-3.947,3.741-4.018
		c0.827,0.007,1.606,0.275,2.238,0.761c0.631-0.486,1.403-0.754,2.207-0.762c2.155,0.072,3.841,1.864,3.774,3.994
		c0,0.008-0.002,0.039-0.003,0.046c-0.124,1.323-0.624,2.571-1.448,3.612c-0.01,0.02-0.01,0.044,0,0.064
		c0.436,0.997,0.652,2.033,0.647,3.095v1.006c-0.001,0.967-0.788,1.754-1.755,1.755c-0.47,0-0.91-0.182-1.242-0.513
		c-0.332-0.332-0.515-0.772-0.516-1.241c0-0.019,0.001-0.039,0.002-0.058c0.006-0.074,0.007-0.148,0.003-0.222
		c-0.047-0.889-0.779-1.586-1.666-1.586c-0.031,0-0.062,0.001-0.093,0.003c-0.925,0.079-1.623,0.882-1.577,1.827
		c0.001,0.493-0.181,0.94-0.512,1.274C15.529,23.819,15.088,24.003,14.618,24.003z M15.826,11.93
		c-1.293,0.048-2.31,1.144-2.27,2.447c0.07,1.079,0.445,2.131,1.082,3.029c0.318,0.444,0.382,1.011,0.17,1.517
		c-0.299,0.735-0.45,1.515-0.447,2.316v1.009c0,0.141,0.115,0.256,0.256,0.256s0.256-0.115,0.256-0.256
		c-0.085-1.727,1.22-3.21,2.971-3.359c0.07-0.004,0.128-0.006,0.186-0.006c1.691,0,3.086,1.321,3.175,3.006
		c0.007,0.124,0.006,0.25-0.002,0.376c0.004,0.062,0.03,0.118,0.074,0.163c0.049,0.049,0.112,0.075,0.181,0.075
		c0.141,0,0.256-0.115,0.256-0.256v-1.009c0.004-0.854-0.167-1.681-0.507-2.461c-0.241-0.488-0.192-1.092,0.135-1.562
		c0.008-0.012,0.018-0.024,0.027-0.036c0.653-0.816,1.05-1.791,1.152-2.825c0.028-1.294-0.999-2.381-2.294-2.425
		c-0.611,0.006-1.205,0.289-1.614,0.777c-0.143,0.17-0.353,0.268-0.575,0.268c-0.223,0-0.432-0.098-0.575-0.269
		C17.056,12.221,16.46,11.938,15.826,11.93z"/>
	<path d="M10.414,10.532c-0.121,0-0.241-0.018-0.357-0.052L0.912,7.753c-0.32-0.095-0.584-0.31-0.742-0.604
		s-0.194-0.632-0.098-0.952l1.666-5.586c0.094-0.316,0.39-0.536,0.719-0.536c0.072,0,0.145,0.01,0.214,0.031L12.774,3.12
		c0.011,0.003,0.026,0.009,0.04,0.015l10.67,3.181c0.396,0.118,0.622,0.537,0.504,0.933c-0.094,0.316-0.39,0.536-0.719,0.536
		c-0.072,0-0.144-0.01-0.214-0.031l-9.993-2.979l-1.451,4.865C11.456,10.165,10.963,10.532,10.414,10.532z M10.247,8.971
		l1.379-4.626L2.96,1.762L1.581,6.387l2.604,0.777l0.388-1.303c0.094-0.316,0.39-0.536,0.719-0.536c0.072,0,0.145,0.01,0.214,0.031
		c0.192,0.057,0.35,0.186,0.445,0.362c0.095,0.176,0.116,0.379,0.059,0.571L5.622,7.592L10.247,8.971z"/>
</g>
</svg>
