<?xml version="1.0" encoding="utf-8"?>
<!-- Generator: Adobe Illustrator 22.1.0, SVG Export Plug-In . SVG Version: 6.00 Build 0)  -->
<svg version="1.1" id="Regular" xmlns="http://www.w3.org/2000/svg" xmlns:xlink="http://www.w3.org/1999/xlink" x="0px" y="0px"
	 viewBox="0 0 24 24" style="enable-background:new 0 0 24 24;" xml:space="preserve">
<title>dentistry-tooth-jaws</title>
<g>
	<path d="M20.25,10.5c-0.563,0-1.091-0.206-1.5-0.575c-0.409,0.37-0.937,0.575-1.5,0.575h-1.5c-0.563,0-1.091-0.206-1.5-0.575
		c-0.409,0.37-0.937,0.575-1.5,0.575h-1.5c-0.563,0-1.091-0.206-1.5-0.575c-0.409,0.37-0.937,0.575-1.5,0.575h-1.5
		c-0.563,0-1.091-0.206-1.5-0.575c-0.409,0.37-0.937,0.575-1.5,0.575h-1.5C1.009,10.5,0,9.491,0,8.25v-5
		C0,2.262,0.633,1.4,1.575,1.104C3.151,0.6,6.241,0,12,0c5.759,0,8.849,0.601,10.428,1.104c0.938,0.299,1.567,1.161,1.567,2.145
		v3.404l0.001,0.013C23.998,6.694,24,6.722,24,6.75v1.5c0,1.241-1.009,2.25-2.25,2.25H20.25z M21,5.25c-0.827,0-1.5,0.673-1.5,1.5
		v1.5C19.5,8.664,19.836,9,20.25,9h1.5c0.414,0,0.75-0.336,0.75-0.75V6.822c-0.003-0.026-0.005-0.049-0.005-0.073V6.654
		C22.455,5.875,21.798,5.25,21,5.25z M16.5,5.25c-0.827,0-1.5,0.673-1.5,1.5v1.5C15,8.664,15.336,9,15.75,9h1.5
		C17.664,9,18,8.664,18,8.25v-1.5C18,5.923,17.327,5.25,16.5,5.25z M12,5.25c-0.827,0-1.5,0.673-1.5,1.5v1.5
		C10.5,8.664,10.836,9,11.25,9h1.5c0.414,0,0.75-0.336,0.75-0.75v-1.5C13.5,5.923,12.827,5.25,12,5.25z M7.5,5.25
		C6.673,5.25,6,5.923,6,6.75v1.5C6,8.664,6.336,9,6.75,9h1.5C8.664,9,9,8.664,9,8.25v-1.5C9,5.923,8.327,5.25,7.5,5.25z M3,5.25
		c-0.827,0-1.5,0.673-1.5,1.5v1.5C1.5,8.664,1.836,9,2.25,9h1.5C4.164,9,4.5,8.664,4.5,8.25v-1.5C4.5,5.923,3.827,5.25,3,5.25z
		 M16.5,3.75c0.863,0,1.685,0.382,2.25,1.023C19.315,4.132,20.137,3.75,21,3.75c0.533,0,1.045,0.139,1.495,0.399v-0.9
		c0-0.328-0.21-0.616-0.523-0.715C20.763,2.148,17.86,1.5,12,1.5S3.237,2.148,2.028,2.534C1.712,2.633,1.5,2.921,1.5,3.25v0.902
		C1.951,3.89,2.465,3.75,3,3.75c0.863,0,1.685,0.382,2.25,1.023C5.815,4.132,6.637,3.75,7.5,3.75s1.685,0.382,2.25,1.023
		C10.315,4.132,11.137,3.75,12,3.75s1.685,0.382,2.25,1.023C14.815,4.132,15.637,3.75,16.5,3.75z"/>
	<path d="M12,24c-5.759,0-8.85-0.601-10.428-1.105C0.632,22.6,0,21.738,0,20.75v-5c0-1.241,1.009-2.25,2.25-2.25h1.5
		c0.563,0,1.091,0.206,1.5,0.575c0.409-0.37,0.937-0.575,1.5-0.575h1.5c0.563,0,1.091,0.206,1.5,0.575
		c0.409-0.37,0.937-0.575,1.5-0.575h1.5c0.563,0,1.091,0.206,1.5,0.575c0.409-0.37,0.937-0.575,1.5-0.575h1.5
		c0.563,0,1.091,0.206,1.5,0.575c0.409-0.37,0.937-0.575,1.5-0.575h1.5c1.241,0,2.25,1.009,2.25,2.25v1.5
		c0,0.028-0.002,0.056-0.003,0.083l-0.002,0.027l0,3.39c0,0.984-0.63,1.846-1.568,2.145C20.849,23.399,17.759,24,12,24z M1.5,20.75
		c0,0.329,0.211,0.617,0.525,0.716C3.236,21.852,6.141,22.5,12,22.5c5.859,0,8.763-0.647,9.972-1.033
		c0.313-0.1,0.523-0.387,0.523-0.715v-0.901c-0.45,0.26-0.962,0.399-1.495,0.399c-0.863,0-1.685-0.382-2.25-1.022
		c-0.565,0.641-1.387,1.022-2.25,1.022s-1.685-0.382-2.25-1.022c-0.565,0.641-1.387,1.022-2.25,1.022s-1.685-0.382-2.25-1.022
		C9.185,19.868,8.363,20.25,7.5,20.25s-1.685-0.382-2.25-1.022C4.685,19.868,3.863,20.25,3,20.25c-0.536,0-1.049-0.14-1.5-0.402
		V20.75z M20.25,15c-0.414,0-0.75,0.336-0.75,0.75v1.5c0,0.827,0.673,1.5,1.5,1.5c0.798,0,1.455-0.625,1.496-1.423l0-0.076
		c0-0.025,0.002-0.049,0.005-0.073V15.75c0-0.414-0.336-0.75-0.75-0.75H20.25z M15.75,15C15.336,15,15,15.336,15,15.75v1.5
		c0,0.827,0.673,1.5,1.5,1.5s1.5-0.673,1.5-1.5v-1.5c0-0.414-0.336-0.75-0.75-0.75H15.75z M11.25,15c-0.414,0-0.75,0.336-0.75,0.75
		v1.5c0,0.827,0.673,1.5,1.5,1.5s1.5-0.673,1.5-1.5v-1.5c0-0.414-0.336-0.75-0.75-0.75H11.25z M6.75,15C6.336,15,6,15.336,6,15.75
		v1.5c0,0.827,0.673,1.5,1.5,1.5S9,18.077,9,17.25v-1.5C9,15.336,8.664,15,8.25,15H6.75z M2.25,15c-0.414,0-0.75,0.336-0.75,0.75
		v1.5c0,0.827,0.673,1.5,1.5,1.5s1.5-0.673,1.5-1.5v-1.5C4.5,15.336,4.164,15,3.75,15H2.25z"/>
</g>
</svg>
