<?xml version="1.0" encoding="utf-8"?>
<!-- Generator: Adobe Illustrator 22.1.0, SVG Export Plug-In . SVG Version: 6.00 Build 0)  -->
<svg version="1.1" id="Regular" xmlns="http://www.w3.org/2000/svg" xmlns:xlink="http://www.w3.org/1999/xlink" x="0px" y="0px"
	 viewBox="0 0 24 24" style="enable-background:new 0 0 24 24;" xml:space="preserve">
<title>dentistry-tooth-hook</title>
<g>
	<path d="M3.752,24.003c-1.001,0-1.943-0.39-2.651-1.099c-1.462-1.462-1.462-3.841,0.001-5.303c0.142-0.142,0.33-0.22,0.53-0.22
		c0.2,0,0.389,0.078,0.53,0.22c0.142,0.142,0.22,0.33,0.22,0.531s-0.078,0.389-0.22,0.53c-0.877,0.877-0.877,2.304,0,3.182
		c0.425,0.425,0.99,0.659,1.591,0.659c0.601,0,1.166-0.234,1.591-0.659c0.425-0.425,0.659-0.99,0.659-1.591
		c0-0.601-0.234-1.166-0.659-1.591c-0.012-0.011-0.025-0.026-0.038-0.041c-0.255-0.295-0.239-0.744,0.038-1.021l5.364-5.364
		l-1.061-1.061c-0.585-0.585-0.584-1.537,0-2.121l7.955-7.955c0.02-0.021,0.052-0.053,0.084-0.084
		c0.701-0.677,1.625-1.05,2.603-1.05c1.028,0,1.986,0.406,2.698,1.143c0.696,0.721,1.07,1.669,1.052,2.67
		c-0.017,1-0.423,1.934-1.142,2.629l-7.948,7.948c-0.284,0.283-0.66,0.439-1.06,0.439c-0.401,0-0.778-0.156-1.061-0.44l-1.06-1.06
		l-4.886,4.886c0.407,0.612,0.621,1.321,0.621,2.07c0,1.002-0.39,1.943-1.099,2.651C5.696,23.613,4.755,24.003,3.752,24.003
		L3.752,24.003z M10.707,10.116l3.182,3.182l1.06-1.061l-3.181-3.182L10.707,10.116z M16.01,11.176l5.834-5.834
		c0.442-0.427,0.685-0.988,0.696-1.588s-0.214-1.17-0.631-1.602c-0.427-0.442-1.002-0.686-1.619-0.686
		c-0.587,0-1.142,0.224-1.562,0.63c-0.02,0.02-5.898,5.898-5.898,5.898L16.01,11.176z"/>
</g>
</svg>
