<?xml version="1.0" encoding="utf-8"?>
<!-- Generator: Adobe Illustrator 22.1.0, SVG Export Plug-In . SVG Version: 6.00 Build 0)  -->
<svg version="1.1" id="Regular" xmlns="http://www.w3.org/2000/svg" xmlns:xlink="http://www.w3.org/1999/xlink" x="0px" y="0px"
	 viewBox="0 0 24 24" style="enable-background:new 0 0 24 24;" xml:space="preserve">
<title>dentistry-tooth-search</title>
<g>
	<path d="M18.104,24l-0.056,0.001c-1.457,0-2.642-1.141-2.698-2.597c-0.073-1.911-1.623-3.407-3.528-3.407
		c-0.048,0-0.095,0.001-0.143,0.003l-0.837,0c-0.058-0.002-0.102-0.003-0.146-0.003c-1.915,0-3.474,1.496-3.547,3.406
		c-0.056,1.456-1.248,2.597-2.712,2.597l-0.059,0c-0.013,0.001-0.047,0.001-0.081,0.001c-1.464,0-2.666-1.101-2.795-2.561
		c-0.002-0.022-0.003-0.044-0.003-0.066V19.5c0.035-1.81,0.439-3.55,1.202-5.178c0.101-0.225,0.067-0.495-0.092-0.697
		c-1.526-1.977-2.427-4.335-2.608-6.82C0,6.784-0.001,6.763-0.001,6.742c0.016-1.87,0.814-3.671,2.19-4.94
		c1.26-1.162,2.895-1.803,4.605-1.803c0.093,0,0.187,0.002,0.281,0.006c1.546,0.062,3.016,0.646,4.175,1.651
		c1.235-1.065,2.805-1.648,4.461-1.648c1.546,0,3.058,0.529,4.257,1.49c0.323,0.258,0.375,0.731,0.116,1.054
		c-0.144,0.179-0.357,0.281-0.586,0.281c-0.169,0-0.336-0.058-0.468-0.164c-0.935-0.749-2.114-1.162-3.32-1.162
		c-1.486,0-2.911,0.62-3.91,1.701c-0.142,0.153-0.342,0.241-0.551,0.241c-0.209,0-0.41-0.088-0.551-0.241
		c-0.999-1.083-2.42-1.704-3.899-1.704C5.462,1.502,4.186,2,3.206,2.905C2.142,3.886,1.52,5.279,1.5,6.726
		c0.165,2.18,0.958,4.246,2.293,5.977c0.501,0.638,0.606,1.498,0.272,2.243c-0.677,1.446-1.035,2.981-1.066,4.568l0,1.824
		c0.073,0.664,0.63,1.163,1.303,1.163c0,0,0.075-0.001,0.08-0.001l0.059,0.001c0.653,0,1.183-0.507,1.208-1.155
		c0.105-2.719,2.318-4.849,5.038-4.849c0.06,0,0.12,0.001,0.18,0.003l0.781,0c0.049-0.002,0.111-0.003,0.173-0.003
		c2.714,0,4.922,2.13,5.027,4.849c0.025,0.648,0.549,1.155,1.194,1.155c0,0,0.07-0.002,0.075-0.002l0.088,0.002
		c0.669,0,1.224-0.499,1.297-1.163V19.5c0-0.414,0.336-0.75,0.75-0.75s0.75,0.336,0.75,0.75v1.875c0,0.022-0.001,0.044-0.003,0.066
		c-0.129,1.46-1.331,2.561-2.796,2.561C18.205,24.002,18.138,24.001,18.104,24z"/>
	<path d="M23.249,18c-0.2,0-0.389-0.078-0.53-0.22l-3.293-3.293c-1.051,0.817-2.343,1.263-3.677,1.263c-3.308,0-6-2.692-6-6
		s2.692-6,6-6s6,2.692,6,6c0,1.333-0.446,2.626-1.263,3.677l3.293,3.293c0.292,0.292,0.292,0.768,0,1.061
		C23.638,17.922,23.45,18,23.249,18z M15.749,5.25c-2.481,0-4.5,2.019-4.5,4.5s2.019,4.5,4.5,4.5s4.5-2.019,4.5-4.5
		S18.231,5.25,15.749,5.25z"/>
</g>
</svg>
