<?xml version="1.0" encoding="utf-8"?>
<!-- Generator: Adobe Illustrator 22.1.0, SVG Export Plug-In . SVG Version: 6.00 Build 0)  -->
<svg version="1.1" id="Layer_1" xmlns="http://www.w3.org/2000/svg" xmlns:xlink="http://www.w3.org/1999/xlink" x="0px" y="0px"
	 viewBox="0 0 24 24" style="enable-background:new 0 0 24 24;" xml:space="preserve">
<title>design-shape-monitor</title>
<g>
	<path d="M3.75,24C1.682,24,0,22.318,0,20.25V3.75C0,1.682,1.682,0,3.75,0h16.5C22.318,0,24,1.682,24,3.75v16.5
		c0,2.068-1.682,3.75-3.75,3.75H3.75z M3.75,1.5C2.509,1.5,1.5,2.509,1.5,3.75v16.5c0,1.241,1.009,2.25,2.25,2.25h16.5
		c1.241,0,2.25-1.009,2.25-2.25V3.75c0-1.241-1.009-2.25-2.25-2.25H3.75z"/>
	<path d="M16.5,15.75c-0.414,0-0.75-0.336-0.75-0.75s0.336-0.75,0.75-0.75H18c0.414,0,0.75-0.336,0.75-0.75v-6
		c0-0.414-0.336-0.75-0.75-0.75h-6c-0.312,0-0.594,0.196-0.703,0.489c-0.109,0.292-0.391,0.489-0.703,0.489
		c-0.09,0-0.178-0.016-0.262-0.048c-0.187-0.069-0.336-0.208-0.42-0.391C9.829,7.107,9.821,6.903,9.891,6.715
		C10.217,5.839,11.065,5.25,12,5.25h6c1.241,0,2.25,1.009,2.25,2.25v6c0,1.241-1.009,2.25-2.25,2.25H16.5z"/>
	<path d="M9,19.5c-2.895,0-5.25-2.355-5.25-5.25C3.75,11.355,6.105,9,9,9c0.414,0,0.75,0.336,0.75,0.75S9.414,10.5,9,10.5
		c-2.068,0-3.75,1.682-3.75,3.75C5.25,16.318,6.932,18,9,18s3.75-1.682,3.75-3.75c0-0.414,0.336-0.75,0.75-0.75
		s0.75,0.336,0.75,0.75C14.25,17.145,11.895,19.5,9,19.5z"/>
	<path d="M12.8,12.582c-0.257,0-0.494-0.129-0.632-0.346c-0.278-0.434-0.635-0.801-1.061-1.089
		c-0.343-0.232-0.433-0.699-0.201-1.042c0.14-0.207,0.372-0.33,0.622-0.33c0.15,0,0.295,0.045,0.42,0.129
		c0.597,0.404,1.097,0.916,1.485,1.523c0.223,0.348,0.121,0.813-0.227,1.036C13.083,12.541,12.943,12.582,12.8,12.582z"/>
</g>
</svg>
