<?xml version="1.0" encoding="utf-8"?>
<!-- Generator: Adobe Illustrator 22.1.0, SVG Export Plug-In . SVG Version: 6.00 Build 0)  -->
<svg version="1.1" id="Layer_1" xmlns="http://www.w3.org/2000/svg" xmlns:xlink="http://www.w3.org/1999/xlink" x="0px" y="0px"
	 viewBox="0 0 24 24" style="enable-background:new 0 0 24 24;" xml:space="preserve">
<title>design-document-dxf</title>
<g>
	<path d="M16.5,16.5c-0.414,0-0.75-0.336-0.75-0.75v-6c0-1.241,1.009-2.25,2.25-2.25h1.5c0.414,0,0.75,0.336,0.75,0.75
		S19.914,9,19.5,9H18c-0.414,0-0.75,0.336-0.75,0.75V12h1.5c0.414,0,0.75,0.336,0.75,0.75s-0.336,0.75-0.75,0.75h-1.5v2.25
		C17.25,16.164,16.914,16.5,16.5,16.5z"/>
	<path d="M13.5,16.5c-0.309,0-0.582-0.185-0.696-0.472L12,14.019l-0.804,2.009C11.082,16.315,10.809,16.5,10.5,16.5
		c-0.096,0-0.19-0.018-0.279-0.054c-0.186-0.074-0.332-0.217-0.41-0.401c-0.079-0.184-0.081-0.388-0.007-0.574L11.192,12
		L9.804,8.529C9.65,8.145,9.838,7.707,10.221,7.554C10.311,7.518,10.404,7.5,10.5,7.5c0.308,0,0.582,0.185,0.696,0.472L12,9.981
		l0.804-2.009C12.918,7.685,13.192,7.5,13.5,7.5c0.095,0,0.189,0.018,0.278,0.053c0.186,0.074,0.332,0.217,0.411,0.401
		c0.079,0.184,0.082,0.388,0.007,0.574L12.808,12l1.389,3.472c0.074,0.186,0.072,0.39-0.007,0.574
		c-0.079,0.184-0.225,0.327-0.411,0.401C13.69,16.482,13.596,16.5,13.5,16.5z"/>
	<path d="M4.5,16.5c-0.414,0-0.75-0.336-0.75-0.75v-7.5c0-0.414,0.336-0.75,0.75-0.75c2.068,0,3.75,1.682,3.75,3.75v1.5
		C8.25,14.818,6.568,16.5,4.5,16.5z M5.25,14.871c0.879-0.313,1.5-1.159,1.5-2.121v-1.5c0-0.962-0.621-1.808-1.5-2.121V14.871z"/>
	<path d="M1.5,4.5c-0.414,0-0.75-0.336-0.75-0.75S1.086,3,1.5,3h21c0.414,0,0.75,0.336,0.75,0.75S22.914,4.5,22.5,4.5H1.5z"/>
	<path d="M1.5,21c-0.414,0-0.75-0.336-0.75-0.75S1.086,19.5,1.5,19.5h21c0.414,0,0.75,0.336,0.75,0.75S22.914,21,22.5,21H1.5z"/>
</g>
</svg>
