<svg id="Outline_Version" data-name="Outline Version" xmlns="http://www.w3.org/2000/svg" viewBox="0 0 24 24"><title>designer-community-path</title><path d="M6.06,1A9.06,9.06,0,0,0,.19,7.94a9.58,9.58,0,0,0,1,6.67A1.25,1.25,0,0,0,3,15l2.61-1.75A1.25,1.25,0,0,0,6,11.57,3,3,0,0,1,5.77,8.7,6,6,0,0,1,9.91,5.51c3.12-.75,7.23.56,8.14,3.64a2.59,2.59,0,0,1-.36,2.55,4.86,4.86,0,0,1-4.24,1.11l-.19,0h0V8.67a.94.94,0,0,0-.91-1.09h-.11l-.81-.08a12.07,12.07,0,0,0-3,0l-.1,0a1,1,0,0,0-.88,1.1c0,1.92,0,5.54.06,7.33,0,.59,0,1,0,1v.11c0,1.35-.23,1.68-.32,1.75s-.44,0-.92-.24a4.13,4.13,0,0,0-1-.38.74.74,0,0,0-.66.17.75.75,0,0,0-.25.63,6.41,6.41,0,0,1,0,1c-.09,1.13-.23,2.83,1.18,3.45a6.57,6.57,0,0,0,2.6.56,5.18,5.18,0,0,0,1.67-.27c2.58-.87,3.65-3.45,3.65-5.83a9.15,9.15,0,0,0,9.81-5A8.26,8.26,0,0,0,22,4.19C18.31-.26,11-.91,6.06,1ZM20.9,5.16a6.74,6.74,0,0,1,1,7.08,7.73,7.73,0,0,1-9.05,4,.76.76,0,0,0-.7.15.75.75,0,0,0-.25.67c.28,2-.41,4.53-2.57,5.27a4.47,4.47,0,0,1-3.19-.25c-.39-.17-.36-1-.28-1.95v0a2.24,2.24,0,0,0,1.94.15C8.92,19.72,9,18,9,17.15V17S9,16.61,9,16c0-1.68-.06-5-.06-7a11.79,11.79,0,0,1,2.33,0l.46,0V13A1.28,1.28,0,0,0,13,14.25l.23,0c2.4.32,4.51-.28,5.65-1.61a4,4,0,0,0,.66-4c-1.16-4-6.07-5.6-9.93-4.68A7.58,7.58,0,0,0,4.38,8.12a4.51,4.51,0,0,0,.17,4L2.36,13.59a8.21,8.21,0,0,1-.7-5.39A7.61,7.61,0,0,1,6.61,2.44h0C10.95.72,17.64,1.27,20.9,5.16Z"/></svg>