<?xml version="1.0" encoding="utf-8"?>
<!-- Generator: Adobe Illustrator 22.1.0, SVG Export Plug-In . SVG Version: 6.00 Build 0)  -->
<svg version="1.1" id="Layer_1" xmlns="http://www.w3.org/2000/svg" xmlns:xlink="http://www.w3.org/1999/xlink" x="0px" y="0px"
	 viewBox="0 0 24 24" style="enable-background:new 0 0 24 24;" xml:space="preserve">
<title>design-document-ttf</title>
<g>
	<path d="M16.5,16.5c-0.414,0-0.75-0.336-0.75-0.75v-6c0-1.241,1.009-2.25,2.25-2.25h1.5c0.414,0,0.75,0.336,0.75,0.75
		S19.914,9,19.5,9H18c-0.414,0-0.75,0.336-0.75,0.75V12h1.5c0.414,0,0.75,0.336,0.75,0.75s-0.336,0.75-0.75,0.75h-1.5v2.25
		C17.25,16.164,16.914,16.5,16.5,16.5z"/>
	<path d="M6,16.5c-0.414,0-0.75-0.336-0.75-0.75V9H4.5C4.086,9,3.75,8.664,3.75,8.25S4.086,7.5,4.5,7.5h3
		c0.414,0,0.75,0.336,0.75,0.75S7.914,9,7.5,9H6.75v6.75C6.75,16.164,6.414,16.5,6,16.5z"/>
	<path d="M12,16.5c-0.414,0-0.75-0.336-0.75-0.75V9H10.5c-0.414,0-0.75-0.336-0.75-0.75S10.086,7.5,10.5,7.5h3
		c0.414,0,0.75,0.336,0.75,0.75S13.914,9,13.5,9h-0.75v6.75C12.75,16.164,12.414,16.5,12,16.5z"/>
	<path d="M1.5,4.5c-0.414,0-0.75-0.336-0.75-0.75S1.086,3,1.5,3h21c0.414,0,0.75,0.336,0.75,0.75S22.914,4.5,22.5,4.5H1.5z"/>
	<path d="M1.5,21c-0.414,0-0.75-0.336-0.75-0.75S1.086,19.5,1.5,19.5h21c0.414,0,0.75,0.336,0.75,0.75S22.914,21,22.5,21H1.5z"/>
</g>
</svg>
