<?xml version="1.0" encoding="utf-8"?>
<!-- Generator: Adobe Illustrator 22.1.0, SVG Export Plug-In . SVG Version: 6.00 Build 0)  -->
<svg version="1.1" id="Layer_1" xmlns="http://www.w3.org/2000/svg" xmlns:xlink="http://www.w3.org/1999/xlink" x="0px" y="0px"
	 viewBox="0 0 24 24" style="enable-background:new 0 0 24 24;" xml:space="preserve">
<title>design-document-dxf-1</title>
<g>
	<path d="M2.25,24C1.009,24,0,22.991,0,21.75V21c0-0.414,0.336-0.75,0.75-0.75S1.5,20.586,1.5,21v0.75c0,0.414,0.336,0.75,0.75,0.75
		h19.5c0.414,0,0.75-0.336,0.75-0.75V21c0-0.414,0.336-0.75,0.75-0.75S24,20.586,24,21v0.75c0,1.241-1.009,2.25-2.25,2.25H2.25z"/>
	<path d="M23.25,8.25c-0.414,0-0.75-0.336-0.75-0.75V2.25c0-0.414-0.336-0.75-0.75-0.75H2.25C1.836,1.5,1.5,1.836,1.5,2.25V7.5
		c0,0.414-0.336,0.75-0.75,0.75S0,7.914,0,7.5V2.25C0,1.009,1.009,0,2.25,0h19.5C22.991,0,24,1.009,24,2.25V7.5
		C24,7.914,23.664,8.25,23.25,8.25z"/>
	<path d="M16.5,18.75c-0.414,0-0.75-0.336-0.75-0.75v-6c0-1.241,1.009-2.25,2.25-2.25h1.5c0.414,0,0.75,0.336,0.75,0.75
		s-0.336,0.75-0.75,0.75H18c-0.414,0-0.75,0.336-0.75,0.75v2.25h1.501c0.414,0,0.75,0.336,0.75,0.75s-0.336,0.75-0.75,0.75H17.25V18
		C17.25,18.414,16.914,18.75,16.5,18.75z"/>
	<path d="M13.501,18.75c-0.309,0-0.582-0.185-0.696-0.472l-0.804-2.009l-0.804,2.009c-0.114,0.287-0.388,0.472-0.696,0.472
		c-0.096,0-0.19-0.018-0.279-0.054c-0.186-0.074-0.332-0.217-0.41-0.401c-0.079-0.184-0.081-0.388-0.007-0.574l1.389-3.471
		l-1.389-3.471c-0.074-0.186-0.072-0.39,0.007-0.574c0.079-0.184,0.225-0.327,0.411-0.401c0.089-0.036,0.183-0.054,0.279-0.054
		c0.308,0,0.582,0.185,0.696,0.472l0.804,2.009l0.804-2.009c0.115-0.286,0.388-0.471,0.697-0.471c0.095,0,0.189,0.018,0.278,0.054
		c0.186,0.074,0.332,0.217,0.411,0.401c0.079,0.184,0.082,0.388,0.007,0.574l-1.389,3.471l1.389,3.472
		c0.074,0.186,0.072,0.39-0.007,0.574c-0.079,0.184-0.225,0.327-0.411,0.401C13.691,18.732,13.597,18.75,13.501,18.75z"/>
	<path d="M4.5,18.75c-0.414,0-0.75-0.336-0.75-0.75v-7.5c0-0.414,0.336-0.75,0.75-0.75c2.068,0,3.75,1.682,3.75,3.75V15
		C8.25,17.068,6.568,18.75,4.5,18.75z M5.25,17.121c0.879-0.313,1.5-1.159,1.5-2.121v-1.5c0-0.962-0.621-1.808-1.5-2.121V17.121z"/>
</g>
</svg>
