<svg id="Outline_Version" data-name="Outline Version" xmlns="http://www.w3.org/2000/svg" viewBox="0 0 24 24"><title>designer-community-design-float</title><path d="M12,24A12,12,0,1,0,0,12,12,12,0,0,0,12,24ZM12,1.5A10.5,10.5,0,1,1,1.49,12,10.51,10.51,0,0,1,12,1.5Z"/><path d="M8.74,12A3.25,3.25,0,1,0,12,8.75,3.25,3.25,0,0,0,8.74,12ZM12,10.25A1.75,1.75,0,1,1,10.24,12,1.75,1.75,0,0,1,12,10.25Z"/><path d="M20.49,12.61H17.26a.75.75,0,0,0-.73.56,4.68,4.68,0,0,1-3.35,3.36.75.75,0,0,0-.56.72l0,3.24a.75.75,0,0,0,.75.75h.12a9.32,9.32,0,0,0,7.76-7.76.75.75,0,0,0-.74-.87Zm-6.39,7V17.81a6.18,6.18,0,0,0,3.69-3.7h1.76A7.82,7.82,0,0,1,14.11,19.57Z"/><path d="M13.17,7.46a4.68,4.68,0,0,1,3.36,3.36.75.75,0,0,0,.73.56h3.24a.75.75,0,0,0,.74-.87,9.32,9.32,0,0,0-7.75-7.75.74.74,0,0,0-.6.17.75.75,0,0,0-.26.57V6.74A.75.75,0,0,0,13.17,7.46Zm.94-3a7.82,7.82,0,0,1,5.46,5.46H17.81a6.18,6.18,0,0,0-3.7-3.71Z"/><path d="M3.49,11.39H6.73a.75.75,0,0,0,.73-.56,4.69,4.69,0,0,1,3.37-3.36.75.75,0,0,0,.56-.73V3.5a.75.75,0,0,0-.26-.57.74.74,0,0,0-.6-.17,9.32,9.32,0,0,0-7.76,7.76.75.75,0,0,0,.74.87Zm6.39-7V6.19a6.2,6.2,0,0,0-3.71,3.7H4.42A7.82,7.82,0,0,1,9.89,4.43Z"/><path d="M10.52,21.24h.12a.75.75,0,0,0,.75-.75V17.26a.75.75,0,0,0-.56-.73,4.68,4.68,0,0,1-3.36-3.36.75.75,0,0,0-.73-.56H3.49a.75.75,0,0,0-.74.87A9.32,9.32,0,0,0,10.52,21.24ZM6.18,14.11a6.18,6.18,0,0,0,3.71,3.71v1.75a7.81,7.81,0,0,1-5.46-5.46Z"/></svg>