<?xml version="1.0" encoding="utf-8"?>
<!-- Generator: Adobe Illustrator 22.1.0, SVG Export Plug-In . SVG Version: 6.00 Build 0)  -->
<svg version="1.1" id="Layer_1" xmlns="http://www.w3.org/2000/svg" xmlns:xlink="http://www.w3.org/1999/xlink" x="0px" y="0px"
	 viewBox="0 0 24 24" style="enable-background:new 0 0 24 24;" xml:space="preserve">
<title>design-tool-quill-2</title>
<g>
	<path d="M0.776,22.982c-0.399,0-0.728-0.312-0.749-0.711c-0.083-1.59,0.021-3.184,0.309-4.737c0.001-0.012,0.003-0.025,0.005-0.037
		c0.003-0.021,0.009-0.046,0.015-0.071C2.106,8.275,9.824,1.546,19.13,1.059c0.348-0.018,0.701-0.027,1.051-0.027
		c1.065,0,2.137,0.085,3.188,0.253c0.198,0.032,0.372,0.139,0.49,0.302c0.116,0.16,0.164,0.365,0.132,0.56
		c-0.449,2.769-1.53,5.453-3.123,7.762c-0.14,0.203-0.371,0.324-0.617,0.324h-3.346c0.247,0.559,0.586,1.329,1,2.28
		c0.128,0.294,0.055,0.638-0.183,0.854c-3.725,3.386-8.533,5.25-13.537,5.25c-0.825,0-1.658-0.051-2.483-0.152
		c-0.182,1.228-0.242,2.481-0.176,3.729c0.01,0.2-0.058,0.392-0.192,0.541s-0.318,0.237-0.518,0.247
		C0.809,22.981,0.782,22.982,0.776,22.982z M1.983,16.987c0.73,0.085,1.467,0.129,2.196,0.129c0,0,0.001,0,0.001,0
		c4.448,0,8.745-1.598,12.131-4.505c-0.74-1.696-1.19-2.7-1.24-2.812c-0.109-0.243-0.089-0.51,0.05-0.725
		c0.139-0.215,0.375-0.343,0.63-0.343h4.101c1.205-1.834,2.07-3.921,2.519-6.072c-0.725-0.085-1.459-0.128-2.188-0.128
		c-0.324,0-0.652,0.009-0.974,0.026C10.889,2.992,3.862,8.903,1.983,16.987z"/>
</g>
</svg>
