<?xml version="1.0" encoding="utf-8"?>
<!-- Generator: Adobe Illustrator 22.1.0, SVG Export Plug-In . SVG Version: 6.00 Build 0)  -->
<svg version="1.1" id="Layer_1" xmlns="http://www.w3.org/2000/svg" xmlns:xlink="http://www.w3.org/1999/xlink" x="0px" y="0px"
	 viewBox="0 0 24 24" style="enable-background:new 0 0 24 24;" xml:space="preserve">
<title>design-tool-stamp</title>
<g>
	<path d="M3.78,24c-1.237-0.006-2.242-1.016-2.242-2.25v-0.769c-0.929-0.156-1.537-1.255-1.537-2.834c0-1.094,0.3-2.189,0.822-3.002
		C1.514,14.069,2.536,13.5,3.78,13.5h3.729c1.247,0,1.779-0.595,1.779-1.989c0-1.011-0.512-1.837-1.106-2.794
		C7.53,7.666,6.856,6.579,6.856,5.152c0-2.828,2.3-5.128,5.128-5.128s5.128,2.3,5.128,5.128c0,1.428-0.674,2.514-1.326,3.565
		c-0.594,0.957-1.106,1.783-1.106,2.794c0,1.394,0.532,1.989,1.779,1.989h2.983c1.503,0,2.731,0.549,3.551,1.588
		C23.633,15.899,24,17.016,24,18.153c0,1.552-0.635,2.671-1.57,2.828v0.769c0,1.234-1.004,2.244-2.238,2.25
		c-0.001,0-0.001,0-0.002,0H3.78z M3.038,21.75c0,0.411,0.335,0.748,0.746,0.75h16.404c0.408-0.002,0.742-0.339,0.742-0.75V21H3.038
		V21.75z M22.151,19.5c0.107-0.097,0.349-0.541,0.349-1.347s-0.25-1.584-0.685-2.135C21.283,15.342,20.484,15,19.442,15h-2.983
		c-2.084,0-3.279-1.272-3.279-3.489c0-1.439,0.677-2.53,1.332-3.585c0.566-0.913,1.1-1.775,1.1-2.774c0-2-1.627-3.628-3.628-3.628
		S8.356,3.151,8.356,5.152c0,1,0.535,1.862,1.101,2.774c0.655,1.055,1.331,2.146,1.331,3.585c0,2.217-1.195,3.489-3.279,3.489H3.78
		c-0.728,0-1.282,0.312-1.695,0.955c-0.371,0.578-0.584,1.377-0.584,2.192c0,0.812,0.218,1.256,0.315,1.353H22.151z"/>
</g>
</svg>
