<?xml version="1.0" encoding="utf-8"?>
<!-- Generator: Adobe Illustrator 22.1.0, SVG Export Plug-In . SVG Version: 6.00 Build 0)  -->
<svg version="1.1" id="Layer_1" xmlns="http://www.w3.org/2000/svg" xmlns:xlink="http://www.w3.org/1999/xlink" x="0px" y="0px"
	 viewBox="0 0 24 24" style="enable-background:new 0 0 24 24;" xml:space="preserve">
<title>design-document-ai-1</title>
<g>
	<path d="M2.25,24C1.009,24,0,22.991,0,21.75V2.25C0,1.009,1.009,0,2.25,0h19.5C22.991,0,24,1.009,24,2.25v19.5
		c0,1.241-1.009,2.25-2.25,2.25H2.25z M2.25,1.5C1.836,1.5,1.5,1.836,1.5,2.25v19.5c0,0.414,0.336,0.75,0.75,0.75h19.5
		c0.414,0,0.75-0.336,0.75-0.75V2.25c0-0.414-0.336-0.75-0.75-0.75H2.25z"/>
	<path d="M15,18.75c-0.414,0-0.75-0.336-0.75-0.75v-7.5c0-0.414,0.336-0.75,0.75-0.75s0.75,0.336,0.75,0.75V18
		C15.75,18.414,15.414,18.75,15,18.75z"/>
	<path d="M10.5,18.75c-0.414,0-0.75-0.336-0.75-0.75v-2.25h-1.5V18c0,0.414-0.336,0.75-0.75,0.75S6.75,18.414,6.75,18v-6
		c0-1.241,1.009-2.25,2.25-2.25s2.25,1.009,2.25,2.25v6C11.25,18.414,10.914,18.75,10.5,18.75z M9.75,14.25V12
		c0-0.414-0.336-0.75-0.75-0.75S8.25,11.586,8.25,12v2.25H9.75z"/>
</g>
</svg>
