<svg id="Outline_Version" data-name="Outline Version" xmlns="http://www.w3.org/2000/svg" viewBox="0 0 24 24"><title>designer-community-forrst</title><path d="M1.36,23.43A1.26,1.26,0,0,0,2.41,24h8.12a.75.75,0,0,0,.75-.75V15.7h1.46v7.55a.75.75,0,0,0,.75.75h8.1a1.27,1.27,0,0,0,1.16-1.78L13.18.76a1.27,1.27,0,0,0-2.32,0L1.25,22.23A1.26,1.26,0,0,0,1.36,23.43ZM12,1.84,21.23,22.5h-7V20.42L17.11,19a.75.75,0,0,0-.68-1.34l-2.19,1.12v-.67l1.38-.75A.75.75,0,1,0,14.91,16l-.67.36V14.95a.75.75,0,0,0-.75-.75h-3a.75.75,0,0,0-.75.75v2.35l-1.16-.62A.75.75,0,1,0,7.92,18l1.87,1V22.5h-7Z"/></svg>