<?xml version="1.0" encoding="utf-8"?>
<!-- Generator: Adobe Illustrator 22.1.0, SVG Export Plug-In . SVG Version: 6.00 Build 0)  -->
<svg version="1.1" id="Layer_1" xmlns="http://www.w3.org/2000/svg" xmlns:xlink="http://www.w3.org/1999/xlink" x="0px" y="0px"
	 viewBox="0 0 24 24" style="enable-background:new 0 0 24 24;" xml:space="preserve">
<title>design-tool-glue</title>
<g>
	<path d="M0.749,21.68c-0.305,0-0.577-0.182-0.693-0.463c-0.116-0.281-0.053-0.602,0.163-0.817l3.11-3.111
		c-0.147-0.221-0.168-0.507-0.046-0.751l0.484-0.967c0.256-0.512,0.256-1.124,0-1.637c-0.438-0.869-0.268-1.916,0.423-2.603
		c0,0,1.379-1.38,1.384-1.384l9.024-8.16c0.691-0.626,1.585-0.972,2.517-0.972c1,0,1.941,0.39,2.65,1.097l2.329,2.328
		c1.414,1.416,1.469,3.686,0.125,5.168c0,0-8.182,9.046-8.187,9.05l-1.358,1.361c-0.425,0.426-0.99,0.66-1.591,0.66
		c-0.347,0-0.695-0.083-1.006-0.238c-0.251-0.125-0.534-0.192-0.818-0.192s-0.567,0.066-0.818,0.192l-0.968,0.484
		c-0.104,0.052-0.219,0.079-0.335,0.079c-0.189,0-0.367-0.069-0.506-0.196L5.78,21.46c-0.142,0.142-0.33,0.22-0.531,0.22H0.749z
		 M4.939,20.18l0.63-0.631l-1.189-1.189L2.56,20.18H4.939z M7.283,19.143l0.485-0.242c0.458-0.229,0.973-0.349,1.489-0.349
		s1.031,0.121,1.489,0.349c0.105,0.053,0.218,0.079,0.335,0.079c0.2,0,0.388-0.078,0.53-0.22l0.828-0.83l-6.365-6.365l-0.826,0.826
		c-0.231,0.23-0.288,0.579-0.142,0.869c0.467,0.934,0.467,2.048,0.001,2.981l-0.242,0.483l0.009,0.009
		c0.013,0.01,0.026,0.021,0.036,0.032c0.014,0.013,0.025,0.027,0.035,0.04l2.177,2.177c0.014,0.011,0.027,0.022,0.038,0.033
		c0.015,0.014,0.027,0.029,0.037,0.042L7.283,19.143z M13.472,16.842l7.633-8.439c0.806-0.89,0.773-2.252-0.075-3.101l-2.328-2.328
		c-0.425-0.424-0.99-0.658-1.589-0.658c-0.559,0-1.095,0.207-1.511,0.583l-8.441,7.633L13.472,16.842z"/>
	<path d="M8.999,23.18c-0.414,0-0.75-0.336-0.75-0.75s0.336-0.75,0.75-0.75h14.25c0.414,0,0.75,0.336,0.75,0.75
		s-0.336,0.75-0.75,0.75H8.999z"/>
</g>
</svg>
