<svg id="Outline_Version" data-name="Outline Version" xmlns="http://www.w3.org/2000/svg" viewBox="0 0 24 24"><title>designer-community-adobe</title><path d="M23.25,1H.76A.75.75,0,0,0,0,1.73V22.27H0a.72.72,0,0,0,0,.2.72.72,0,0,0,0,.12.73.73,0,0,0,0,.08s0,0,.07.07l.12.11a.72.72,0,0,0,.13.09A.74.74,0,0,0,.71,23H23.25a.73.73,0,0,0,.33-.09l0,0a.73.73,0,0,0,.23-.21h0v0a.73.73,0,0,0,.13-.39V1.73A.75.75,0,0,0,23.25,1ZM22.5,18.63,15.6,2.48h6.9ZM8.43,2.48,1.51,18.59V2.48Zm6,19L12.68,17.1a.75.75,0,0,0-.7-.47H9.41L12,11.14l4.73,10.37Zm3.89,0L12.67,9A.75.75,0,0,0,12,8.6h0A.75.75,0,0,0,11.3,9l-3.75,8a.75.75,0,0,0,.68,1.07h3.24l1.37,3.39h-11l8.18-19H14l8.14,19Z"/></svg>