<?xml version="1.0" encoding="utf-8"?>
<!-- Generator: Adobe Illustrator 22.1.0, SVG Export Plug-In . SVG Version: 6.00 Build 0)  -->
<svg version="1.1" id="Layer_1" xmlns="http://www.w3.org/2000/svg" xmlns:xlink="http://www.w3.org/1999/xlink" x="0px" y="0px"
	 viewBox="0 0 24 24" style="enable-background:new 0 0 24 24;" xml:space="preserve">
<title>design-draw</title>
<g>
	<path d="M3.225,23.25c-0.949-0.003-1.723-0.776-1.726-1.724V18.75h-0.75c-0.414,0-0.75-0.336-0.75-0.75s0.336-0.75,0.75-0.75h0.75
		v-4.5h-0.75c-0.414,0-0.75-0.336-0.75-0.75s0.336-0.75,0.75-0.75h0.75v-4.5h-0.75c-0.414,0-0.75-0.336-0.75-0.75
		s0.336-0.75,0.75-0.75h0.75V2.476C1.502,1.527,2.276,0.753,3.223,0.75h13.05c0.949,0.003,1.723,0.776,1.726,1.724V4.4
		c0,0.414-0.336,0.75-0.75,0.75s-0.75-0.336-0.75-0.75V2.476c0-0.124-0.103-0.226-0.229-0.226H3.225C3.102,2.25,3,2.353,2.999,2.478
		V5.25h0.19c0.414,0,0.75,0.336,0.75,0.75s-0.336,0.75-0.75,0.75h-0.19v4.5h0.19c0.414,0,0.75,0.336,0.75,0.75
		s-0.336,0.75-0.75,0.75h-0.19v4.5h0.19c0.414,0,0.75,0.336,0.75,0.75s-0.336,0.75-0.75,0.75h-0.19v2.774
		c0,0.124,0.103,0.226,0.228,0.226h13.046c0.124,0,0.226-0.103,0.226-0.229c0.001-0.412,0.338-0.748,0.75-0.748
		c0.416,0.001,0.751,0.339,0.75,0.752c-0.003,0.947-0.776,1.72-1.724,1.724c0,0-0.001,0-0.001,0H3.225z"/>
	<path d="M20.309,20.691c-1.081,0-2.027-0.4-2.815-1.191h-2.494c-0.69,0-1.339-0.321-1.763-0.855l-4.162,1.892
		c-0.098,0.045-0.202,0.067-0.31,0.067c-0.2,0-0.389-0.078-0.53-0.22c-0.22-0.22-0.281-0.558-0.152-0.841l1.726-3.796
		c0.038-0.083,0.089-0.157,0.153-0.22l0.316-0.316c-0.661-0.391-1.088-1.109-1.088-1.904v-0.488
		c0.001-1.184,0.342-2.334,0.986-3.327c1.132-1.745,3.054-2.786,5.141-2.786c0.97,0,1.928,0.233,2.789,0.675l2.208-2.211
		c0.326-0.326,0.76-0.505,1.221-0.505c0.461,0,0.895,0.179,1.22,0.504l0.691,0.692c0.672,0.673,0.672,1.767,0,2.44l-1.397,1.397
		c-0.009,0.012-0.019,0.024-0.029,0.033c-0.015,0.016-0.031,0.029-0.045,0.04l-0.424,0.425l2.229,2.23
		c0.292,0.292,0.292,0.768,0,1.061c-0.142,0.142-0.33,0.22-0.53,0.22s-0.389-0.078-0.53-0.22l-2.229-2.229l-0.172,0.172
		c-0.009,0.011-0.018,0.022-0.028,0.031c-0.01,0.01-0.02,0.019-0.032,0.028l-1.289,1.289c0.691,0.527,0.887,1.287,0.822,1.883
		c-0.115,1.058-0.968,1.832-2.028,1.84h-2.764c-0.414,0-0.75,0.336-0.75,0.75S14.586,18,14.999,18h2.82
		c0.217,0,0.424,0.094,0.566,0.258c0.543,0.625,1.179,0.929,1.944,0.929c0.711,0,1.536-0.251,2.523-0.768
		c0.107-0.056,0.227-0.085,0.347-0.085c0.28,0,0.535,0.154,0.665,0.402c0.192,0.367,0.05,0.821-0.316,1.013
		C22.336,20.383,21.277,20.691,20.309,20.691L20.309,20.691z M10.275,18.344l2.474-1.125c0.015-1.073,0.791-1.984,1.836-2.179
		l4.111-4.112L17.689,9.92l-1.108,1.11c-0.012,0.012-0.026,0.024-0.041,0.035c-0.061,0.053-0.125,0.092-0.193,0.122
		c-0.006,0.003-0.029,0.012-0.035,0.014c-0.077,0.029-0.16,0.045-0.244,0.047c-0.002,0-0.03,0-0.034,0
		c-0.078-0.002-0.146-0.013-0.211-0.033c-0.165-0.052-0.335-0.079-0.508-0.08l-0.033,0c-0.432,0-0.846,0.175-1.165,0.492
		c-0.321,0.319-0.498,0.743-0.499,1.195v0.485c0,0.885-0.54,1.693-1.353,2.038l-1.148,1.148L10.275,18.344z M17.758,15
		c0.334-0.002,0.516-0.262,0.542-0.503c0.014-0.131-0.005-0.429-0.417-0.634L17.758,15z M15.313,8.207
		c-1.575,0-3.026,0.786-3.88,2.102c-0.486,0.749-0.744,1.618-0.744,2.511v0.487c0,0.394,0.32,0.714,0.714,0.714
		c0.394,0,0.714-0.32,0.714-0.714v-0.488c0.003-0.854,0.337-1.656,0.942-2.257c0.602-0.598,1.401-0.928,2.25-0.928
		c0.172,0,0.34,0.014,0.505,0.041l1.158-1.159C16.444,8.313,15.88,8.207,15.313,8.207z M19.758,9.868l0.665-0.665l-1.009-1.009
		l-0.665,0.665L19.758,9.868z M21.483,8.142l0.901-0.901c0.088-0.088,0.088-0.231,0-0.319l-0.69-0.691
		c-0.042-0.042-0.099-0.065-0.16-0.065c-0.061,0-0.118,0.024-0.161,0.066l-0.9,0.901L21.483,8.142z"/>
</g>
</svg>
