<?xml version="1.0" encoding="utf-8"?>
<!-- Generator: Adobe Illustrator 22.1.0, SVG Export Plug-In . SVG Version: 6.00 Build 0)  -->
<svg version="1.1" id="Layer_1" xmlns="http://www.w3.org/2000/svg" xmlns:xlink="http://www.w3.org/1999/xlink" x="0px" y="0px"
	 viewBox="0 0 24 24" style="enable-background:new 0 0 24 24;" xml:space="preserve">
<title>design-drawing-board</title>
<g>
	<path d="M18,24c-0.301,0-0.571-0.178-0.69-0.455l-2.055-4.795H12.75v4.5c0,0.414-0.336,0.75-0.75,0.75s-0.75-0.336-0.75-0.75v-4.5
		H8.745l-2.055,4.795C6.571,23.822,6.3,24,6,24c-0.102,0-0.201-0.02-0.295-0.06c-0.381-0.163-0.557-0.605-0.395-0.985l1.802-4.205
		H1.5c-0.414,0-0.75-0.336-0.75-0.75s0.336-0.75,0.75-0.75h0.75V7.5c0-1.241,1.009-2.25,2.25-2.25h3.75c0-0.827,0.673-1.5,1.5-1.5
		h1.5v-1.5c0-0.414,0.336-0.75,0.75-0.75s0.75,0.336,0.75,0.75v1.5h1.5c0.827,0,1.5,0.673,1.5,1.5h3.75
		c1.241,0,2.25,1.009,2.25,2.25v9.75h0.75c0.414,0,0.75,0.336,0.75,0.75s-0.336,0.75-0.75,0.75h-5.613l1.802,4.205
		c0.163,0.38-0.014,0.822-0.394,0.985C18.201,23.98,18.102,24,18,24z M20.25,17.25V7.5c0-0.414-0.336-0.75-0.75-0.75h-3.879
		c-0.313,0.885-1.161,1.5-2.121,1.5h-3c-0.96,0-1.808-0.615-2.121-1.5H4.5c-0.414,0-0.75,0.336-0.75,0.75v9.75H20.25z M9.75,6
		c0,0.414,0.336,0.75,0.75,0.75h3c0.414,0,0.75-0.336,0.75-0.75V5.25h-4.5V6z"/>
</g>
</svg>
