<?xml version="1.0" encoding="utf-8"?>
<!-- Generator: Adobe Illustrator 22.1.0, SVG Export Plug-In . SVG Version: 6.00 Build 0)  -->
<svg version="1.1" id="Layer_1" xmlns="http://www.w3.org/2000/svg" xmlns:xlink="http://www.w3.org/1999/xlink" x="0px" y="0px"
	 viewBox="0 0 24 24" style="enable-background:new 0 0 24 24;" xml:space="preserve">
<title>design-drawing-board-education</title>
<g>
	<path d="M3.75,22.501c-0.102,0-0.201-0.02-0.295-0.06c-0.381-0.163-0.557-0.605-0.395-0.985l1.802-4.205H2.25
		c-1.241,0-2.25-1.009-2.25-2.25v-9c0-1.241,1.009-2.25,2.25-2.25H6c0-0.827,0.673-1.5,1.5-1.5H9v-1.5c0-0.414,0.336-0.75,0.75-0.75
		s0.75,0.336,0.75,0.75v1.5H12c0.827,0,1.5,0.673,1.5,1.5h3.75c1.241,0,2.25,1.009,2.25,2.25v6.1c0,0.414-0.336,0.75-0.75,0.75
		S18,12.514,18,12.101v-6.1c0-0.414-0.336-0.75-0.75-0.75h-3.879c-0.313,0.885-1.161,1.5-2.121,1.5h-3
		c-0.96,0-1.808-0.615-2.121-1.5H2.25c-0.414,0-0.75,0.336-0.75,0.75v9c0,0.414,0.336,0.75,0.75,0.75h4.5
		c0.414,0,0.75,0.336,0.75,0.75s-0.336,0.75-0.75,0.75H6.495L4.44,22.046C4.321,22.323,4.05,22.501,3.75,22.501z M7.5,4.501
		c0,0.414,0.336,0.75,0.75,0.75h3c0.414,0,0.75-0.336,0.75-0.75v-0.75H7.5V4.501z"/>
	<path d="M16.501,24.005c-0.192,0-0.38-0.037-0.559-0.109l-2.998-1.199c-0.577-0.229-0.947-0.779-0.944-1.401V18.71l-1.5-0.549
		v2.677c0,0.414-0.336,0.75-0.75,0.75S9,21.251,9,20.838v-3.771c0-0.364,0.268-0.675,0.621-0.737l6.593-2.715
		c0.092-0.038,0.188-0.056,0.286-0.056s0.194,0.019,0.285,0.056l6.751,2.779c0.288,0.118,0.47,0.396,0.464,0.708
		c-0.007,0.312-0.2,0.583-0.493,0.69L21,18.71v2.591c0.005,0.617-0.366,1.167-0.943,1.397l-3,1.199
		C16.88,23.969,16.693,24.005,16.501,24.005z M13.5,21.301l3,1.204l3-1.2l0-2.045l-2.742,1.004c-0.082,0.03-0.169,0.046-0.258,0.046
		s-0.176-0.016-0.259-0.046L13.5,19.259V21.301z M16.5,18.76l4.68-1.713L16.5,15.12l-4.68,1.927L16.5,18.76z"/>
</g>
</svg>
