<svg id="Outline_Version" data-name="Outline Version" xmlns="http://www.w3.org/2000/svg" viewBox="0 0 24 24"><title>designer-community-coroflot</title><path d="M16.46,8.7a5.87,5.87,0,0,0-1.14.12c-1.5-3-5-7.38-9.57-6.19a4.44,4.44,0,0,0,.16-2A.75.75,0,0,0,4.42.84a2.21,2.21,0,0,1-.49,2,1.84,1.84,0,0,1-1.42.44.75.75,0,1,0-.28,1.47,2.52,2.52,0,0,0,.48,0,3.42,3.42,0,0,0,2-.71c3.52,1.55,3.65,6.06,3.59,7.51a6.41,6.41,0,1,0,7.91,9h.22a5.92,5.92,0,1,0,0-11.85ZM7.25,3.95c3.35,0,5.76,3.78,6.62,5.37a5.93,5.93,0,0,0-2.27,1.94,6,6,0,0,0-1.75-.05C9.89,9,9.34,5.93,7.25,3.95Zm3.3,18.55a4.92,4.92,0,1,1,4.92-4.92A4.92,4.92,0,0,1,10.55,22.5ZM16.8,19a6.38,6.38,0,0,0-3.66-7.3A4.41,4.41,0,1,1,16.8,19Z"/><circle cx="8.57" cy="15.46" r="0.99"/></svg>