<?xml version="1.0" encoding="utf-8"?>
<!-- Generator: Adobe Illustrator 22.1.0, SVG Export Plug-In . SVG Version: 6.00 Build 0)  -->
<svg version="1.1" id="Layer_1" xmlns="http://www.w3.org/2000/svg" xmlns:xlink="http://www.w3.org/1999/xlink" x="0px" y="0px"
	 viewBox="0 0 24 24" style="enable-background:new 0 0 24 24;" xml:space="preserve">
<title>design-document-dwg</title>
<g>
	<path d="M1.5,4.5c-0.414,0-0.75-0.336-0.75-0.75S1.086,3,1.5,3h21c0.414,0,0.75,0.336,0.75,0.75S22.914,4.5,22.5,4.5H1.5z"/>
	<path d="M1.5,21c-0.414,0-0.75-0.336-0.75-0.75S1.086,19.5,1.5,19.5h21c0.414,0,0.75,0.336,0.75,0.75S22.914,21,22.5,21H1.5z"/>
	<path d="M13.467,16.499c-0.325-0.016-0.599-0.234-0.688-0.543L12,13.23l-0.779,2.726c-0.088,0.309-0.363,0.527-0.683,0.543
		c-0.006,0-0.031,0.001-0.037,0.001c-0.309,0-0.583-0.185-0.697-0.472l-0.856-2.141c-0.463-1.156-0.698-2.374-0.698-3.62V8.25
		C8.25,7.836,8.586,7.5,9,7.5s0.75,0.336,0.75,0.75v2.017c0,1.054,0.198,2.085,0.59,3.063l0.041,0.104l0.897-3.14
		C11.37,9.974,11.667,9.75,12,9.75c0.333,0,0.629,0.224,0.721,0.544l0.897,3.14l0.042-0.103c0.392-0.979,0.591-2.01,0.59-3.063V8.25
		c0-0.414,0.336-0.75,0.75-0.75s0.75,0.336,0.75,0.75v2.017c0,1.246-0.235,2.464-0.698,3.621l-0.856,2.141
		C14.082,16.315,13.809,16.5,13.5,16.5C13.495,16.5,13.471,16.5,13.467,16.499z"/>
	<path d="M19.5,16.5c-1.241,0-2.25-1.009-2.25-2.25v-4.5c0-1.241,1.009-2.25,2.25-2.25H21c0.414,0,0.75,0.336,0.75,0.75
		S21.414,9,21,9h-1.5c-0.414,0-0.75,0.336-0.75,0.75v4.5c0,0.414,0.336,0.75,0.75,0.75s0.75-0.336,0.75-0.75V13.5
		c-0.414,0-0.75-0.336-0.75-0.75S19.836,12,20.25,12H21c0.414,0,0.75,0.336,0.75,0.75v1.5C21.75,15.491,20.741,16.5,19.5,16.5z"/>
	<path d="M3,16.5c-0.414,0-0.75-0.336-0.75-0.75v-7.5C2.25,7.836,2.586,7.5,3,7.5c2.068,0,3.75,1.682,3.75,3.75v1.5
		C6.75,14.818,5.068,16.5,3,16.5z M3.75,14.871c0.879-0.313,1.5-1.159,1.5-2.121v-1.5c0-0.962-0.621-1.808-1.5-2.121V14.871z"/>
</g>
</svg>
