<?xml version="1.0" encoding="utf-8"?>
<!-- Generator: Adobe Illustrator 22.1.0, SVG Export Plug-In . SVG Version: 6.00 Build 0)  -->
<svg version="1.1" id="Layer_1" xmlns="http://www.w3.org/2000/svg" xmlns:xlink="http://www.w3.org/1999/xlink" x="0px" y="0px"
	 viewBox="0 0 24 24" style="enable-background:new 0 0 24 24;" xml:space="preserve">
<title>diamond-ring</title>
<g>
	<path d="M10.5,5.245c-0.414,0-0.75-0.336-0.75-0.75c0-1.241,1.009-2.25,2.25-2.25c0.414,0,0.75,0.336,0.75,0.75
		s-0.336,0.75-0.75,0.75s-0.75,0.336-0.75,0.75S10.914,5.245,10.5,5.245z"/>
	<path d="M12.012,24c-0.973,0-1.939-0.159-2.873-0.473c-2.279-0.765-4.124-2.372-5.194-4.525c-1.07-2.153-1.238-4.594-0.473-6.873
		c0.783-2.331,2.483-4.232,4.701-5.277C7.731,6.143,7.5,5.337,7.5,4.495c0-2.481,2.019-4.5,4.5-4.5c2.481,0,4.5,2.019,4.5,4.5
		c0,0.84-0.23,1.645-0.67,2.354c1.833,0.859,3.326,2.314,4.233,4.138c1.071,2.153,1.239,4.594,0.473,6.873
		c-0.765,2.279-2.372,4.124-4.525,5.194C14.749,23.682,13.403,24,12.012,24z M9.225,8.031c-2.027,0.812-3.638,2.508-4.333,4.576
		c-0.638,1.899-0.498,3.934,0.394,5.728s2.429,3.133,4.329,3.771c0.779,0.261,1.585,0.394,2.395,0.394
		c1.159,0,2.28-0.265,3.332-0.788c1.794-0.892,3.133-2.43,3.771-4.329s0.498-3.933-0.394-5.727
		c-0.827-1.663-2.221-2.944-3.942-3.627C13.985,8.653,13.007,8.995,12,8.995C10.995,8.995,10.018,8.654,9.225,8.031z M12,1.495
		c-1.654,0-3,1.346-3,3s1.346,3,3,3c1.654,0,3-1.346,3-3S13.654,1.495,12,1.495z"/>
	<path d="M21.75,4.495c-0.414,0-0.75-0.336-0.75-0.75v-0.75h-0.75c-0.414,0-0.75-0.336-0.75-0.75s0.336-0.75,0.75-0.75H21v-0.75
		c0-0.414,0.336-0.75,0.75-0.75s0.75,0.336,0.75,0.75v0.75h0.75c0.414,0,0.75,0.336,0.75,0.75s-0.336,0.75-0.75,0.75H22.5v0.75
		C22.5,4.159,22.164,4.495,21.75,4.495z"/>
	<path d="M2.25,8.995c-0.414,0-0.75-0.336-0.75-0.75v-0.75H0.75C0.336,7.495,0,7.159,0,6.745s0.336-0.75,0.75-0.75H1.5v-0.75
		c0-0.414,0.336-0.75,0.75-0.75S3,4.831,3,5.245v0.75h0.75c0.414,0,0.75,0.336,0.75,0.75s-0.336,0.75-0.75,0.75H3v0.75
		C3,8.659,2.664,8.995,2.25,8.995z"/>
	<path d="M11.987,20.996c-1.079,0-2.144-0.297-3.08-0.859c-2.836-1.704-3.757-5.397-2.053-8.233
		c0.504-0.839,1.214-1.549,2.053-2.053c0.116-0.07,0.25-0.107,0.386-0.107c0.262,0,0.508,0.14,0.643,0.364
		c0.103,0.172,0.133,0.373,0.085,0.568c-0.048,0.194-0.17,0.358-0.342,0.461c-0.629,0.378-1.162,0.911-1.54,1.54
		c-0.618,1.029-0.798,2.238-0.506,3.406s1.018,2.151,2.047,2.769c0.702,0.422,1.5,0.645,2.309,0.645
		c0.367,0,0.737-0.046,1.098-0.136c1.166-0.291,2.149-1.019,2.768-2.049c0.619-1.03,0.8-2.24,0.509-3.406
		c-0.291-1.166-1.019-2.15-2.049-2.769c-0.172-0.103-0.293-0.267-0.342-0.461c-0.049-0.194-0.018-0.396,0.085-0.568
		c0.135-0.224,0.381-0.364,0.643-0.364c0.136,0,0.27,0.037,0.386,0.108c1.373,0.825,2.344,2.136,2.731,3.691
		s0.147,3.168-0.678,4.542s-2.136,2.344-3.691,2.732C12.968,20.935,12.476,20.996,11.987,20.996z"/>
</g>
</svg>
