<?xml version="1.0" encoding="utf-8"?>
<!-- Generator: Adobe Illustrator 22.1.0, SVG Export Plug-In . SVG Version: 6.00 Build 0)  -->
<svg version="1.1" id="Layer_1" xmlns="http://www.w3.org/2000/svg" xmlns:xlink="http://www.w3.org/1999/xlink" x="0px" y="0px"
	 viewBox="0 0 24 24" style="enable-background:new 0 0 24 24;" xml:space="preserve">
<title>disability-blind-read-book-1</title>
<g>
	<path d="M11.959,8.249c-0.875-0.051-1.724-0.258-2.527-0.615C9.281,7.615,9.138,7.551,9.024,7.448C9.015,7.44,9.007,7.432,9,7.425
		C7.855,6.823,6.892,5.93,6.21,4.836C5.926,4.403,5.928,3.837,6.22,3.399c1.235-1.986,3.382-3.26,5.736-3.398
		C11.963,0.001,11.993,0,12,0l0.041,0.001c0.876,0.051,1.726,0.259,2.531,0.617c0.151,0.019,0.292,0.083,0.406,0.184
		C14.985,0.81,14.993,0.818,15,0.825c1.146,0.602,2.111,1.498,2.792,2.593c0.284,0.425,0.281,0.991-0.012,1.432
		c-1.236,1.986-3.383,3.26-5.737,3.398c-0.007,0-0.037,0.001-0.044,0.001C11.994,8.25,11.966,8.249,11.959,8.249z M10.836,6.549
		C11.217,6.656,11.606,6.722,12,6.749c1.817-0.12,3.477-1.097,4.464-2.623c-0.478-0.732-1.11-1.344-1.851-1.794L10.836,6.549z
		 M7.536,4.125c0.48,0.735,1.111,1.345,1.85,1.794l3.779-4.218c-0.381-0.107-0.771-0.173-1.165-0.2
		C10.183,1.622,8.523,2.599,7.536,4.125z"/>
	<path d="M12,24c-0.072,0-0.146-0.011-0.219-0.034c-0.013-0.003-0.025-0.007-0.037-0.01l-8.789-3.344
		C2.092,20.332,1.5,19.51,1.5,18.572V11.25c0-1.189,0.967-2.156,2.156-2.156c0.227,0,0.451,0.036,0.667,0.106L12,12.167l7.638-2.953
		c0.241-0.079,0.471-0.116,0.703-0.116c0.939,0,1.764,0.597,2.053,1.486c0.07,0.215,0.106,0.44,0.106,0.667v7.322
		c0,0.932-0.594,1.755-1.479,2.047l-8.754,3.332c-0.015,0.006-0.032,0.011-0.049,0.015C12.142,23.989,12.07,24,12,24z M3.656,10.594
		C3.294,10.594,3,10.888,3,11.25v7.322c0,0.286,0.182,0.537,0.453,0.625l7.797,2.966v-8.677l-7.43-2.873
		C3.791,10.604,3.721,10.594,3.656,10.594z M12.75,22.162l7.761-2.953c0.005-0.002,0.027-0.01,0.032-0.011
		C20.818,19.108,21,18.858,21,18.573V11.25c0-0.069-0.011-0.137-0.032-0.202c-0.088-0.272-0.34-0.454-0.625-0.454
		c-0.068,0-0.136,0.011-0.202,0.032l-7.391,2.859V22.162z"/>
	<path d="M15.75,16.5c-0.323,0-0.609-0.206-0.711-0.513c-0.063-0.19-0.049-0.393,0.041-0.572c0.09-0.179,0.244-0.313,0.434-0.376
		l2.25-0.75C17.84,14.263,17.919,14.25,18,14.25c0.323,0,0.609,0.206,0.711,0.513c0.131,0.393-0.082,0.818-0.474,0.949l-2.25,0.75
		C15.911,16.487,15.831,16.5,15.75,16.5z"/>
</g>
</svg>
