<?xml version="1.0" encoding="utf-8"?>
<!-- Generator: Adobe Illustrator 22.1.0, SVG Export Plug-In . SVG Version: 6.00 Build 0)  -->
<svg version="1.1" id="Layer_1" xmlns="http://www.w3.org/2000/svg" xmlns:xlink="http://www.w3.org/1999/xlink" x="0px" y="0px"
	 viewBox="0 0 24 24" style="enable-background:new 0 0 24 24;" xml:space="preserve">
<title>disability-hearing-aid</title>
<g>
	<path d="M6.015,24.005c-3.308,0-6-2.692-6-6c0-0.414,0.336-0.75,0.75-0.75s0.75,0.336,0.75,0.75c0,2.481,2.019,4.5,4.5,4.5
		s4.5-2.019,4.5-4.5c0-1.778,0.776-3.459,2.128-4.613c2.833-2.414,3.173-6.683,0.759-9.516c-1.283-1.505-3.157-2.368-5.142-2.368
		c-1.602,0-3.156,0.572-4.373,1.61C2.379,4.402,1.515,6.275,1.515,8.255c0,0.414-0.336,0.75-0.75,0.75s-0.75-0.336-0.75-0.75
		c0-2.42,1.056-4.709,2.898-6.279C4.402,0.707,6.3,0.009,8.259,0.009c2.426,0,4.717,1.055,6.284,2.895
		c2.951,3.462,2.535,8.68-0.927,11.63c-1.018,0.868-1.601,2.134-1.601,3.471C12.015,21.313,9.323,24.005,6.015,24.005z"/>
	<path d="M6.015,18.005c-2.481,0-4.5-2.019-4.5-4.5c0-1.328,0.603-2.601,1.625-3.453C3.057,9.707,3.015,9.358,3.015,9.01
		C3.013,6.529,5.03,4.509,7.512,4.508c1.204,0,2.333,0.467,3.183,1.316c0.85,0.849,1.319,1.979,1.32,3.181
		c0,0.2-0.078,0.389-0.219,0.531c-0.141,0.142-0.33,0.22-0.53,0.22c-0.414,0-0.75-0.336-0.75-0.75c0-0.801-0.313-1.555-0.88-2.121
		c-0.566-0.566-1.319-0.877-2.12-0.877c-1.656,0.001-3.001,1.348-3,3.002c0,0.083,0.004,0.167,0.012,0.253
		c0.479-0.171,0.978-0.257,1.488-0.257c2.481,0,4.5,2.019,4.5,4.5S8.496,18.005,6.015,18.005z M6.015,10.505c-1.654,0-3,1.346-3,3
		c0,1.654,1.346,3,3,3s3-1.346,3-3C9.015,11.851,7.669,10.505,6.015,10.505z"/>
	<path d="M21.855,13.844c-0.126,0-0.251-0.032-0.362-0.094c-0.176-0.097-0.303-0.257-0.358-0.449
		c-0.055-0.192-0.032-0.395,0.065-0.57c1.765-3.188,1.765-6.994,0-10.182c-0.2-0.362-0.069-0.819,0.293-1.019
		c0.111-0.062,0.237-0.094,0.363-0.094c0.273,0,0.524,0.148,0.656,0.386c2.017,3.643,2.017,7.992,0,11.635
		C22.379,13.696,22.128,13.844,21.855,13.844z"/>
	<path d="M19.493,11.529c-0.121,0-0.241-0.03-0.348-0.086c-0.366-0.192-0.508-0.646-0.317-1.012c0.914-1.747,0.914-3.832,0-5.579
		c-0.192-0.366-0.05-0.82,0.317-1.012c0.107-0.056,0.227-0.086,0.347-0.086c0.281,0,0.536,0.154,0.665,0.403
		c1.141,2.181,1.141,4.787,0,6.969C20.029,11.375,19.774,11.529,19.493,11.529z"/>
</g>
</svg>
