<?xml version="1.0" encoding="utf-8"?>
<!-- Generator: Adobe Illustrator 22.1.0, SVG Export Plug-In . SVG Version: 6.00 Build 0)  -->
<svg version="1.1" id="Layer_1" xmlns="http://www.w3.org/2000/svg" xmlns:xlink="http://www.w3.org/1999/xlink" x="0px" y="0px"
	 viewBox="0 0 24 24" style="enable-background:new 0 0 24 24;" xml:space="preserve">
<title>disability-cane</title>
<g>
	<path d="M13.5,6.75c-1.861,0-3.375-1.514-3.375-3.375S11.639,0,13.5,0c1.861,0,3.375,1.514,3.375,3.375S15.361,6.75,13.5,6.75z
		 M13.5,1.5c-1.034,0-1.875,0.841-1.875,1.875S12.466,5.25,13.5,5.25s1.875-0.841,1.875-1.875S14.534,1.5,13.5,1.5z"/>
	<path d="M4.5,24c-0.414,0-0.75-0.336-0.75-0.75V16.5c0-1.241,1.009-2.25,2.25-2.25s2.25,1.009,2.25,2.25
		c0,0.414-0.336,0.75-0.75,0.75s-0.75-0.336-0.75-0.75S6.414,15.75,6,15.75s-0.75,0.336-0.75,0.75v6.75C5.25,23.664,4.914,24,4.5,24
		z"/>
	<path d="M15,24c-0.555,0-1.091-0.209-1.5-0.575C13.091,23.791,12.555,24,12,24c-1.241,0-2.25-1.009-2.25-2.25V15
		c0-0.414,0.336-0.75,0.75-0.75s0.75,0.336,0.75,0.75v6.75c0,0.414,0.336,0.75,0.75,0.75s0.75-0.336,0.75-0.75V16.5
		c0-0.414,0.336-0.75,0.75-0.75s0.75,0.336,0.75,0.75v5.25c0,0.414,0.336,0.75,0.75,0.75s0.75-0.336,0.75-0.75V12
		c0-0.414,0.336-0.75,0.75-0.75s0.75,0.336,0.75,0.75v3c0,0.414,0.336,0.75,0.75,0.75s0.75-0.336,0.75-0.75v-3
		c0-2.068-1.682-3.75-3.75-3.75h-3c-2.068,0-3.75,1.682-3.75,3.75c0,0.414-0.336,0.75-0.75,0.75S6.75,12.414,6.75,12
		c0-2.895,2.355-5.25,5.25-5.25h3c2.895,0,5.25,2.355,5.25,5.25v3c0,1.241-1.009,2.25-2.25,2.25c-0.259,0-0.512-0.043-0.75-0.128
		v4.628C17.25,22.991,16.241,24,15,24z"/>
</g>
</svg>
