<?xml version="1.0" encoding="utf-8"?>
<!-- Generator: Adobe Illustrator 22.1.0, SVG Export Plug-In . SVG Version: 6.00 Build 0)  -->
<svg version="1.1" id="Layer_1" xmlns="http://www.w3.org/2000/svg" xmlns:xlink="http://www.w3.org/1999/xlink" x="0px" y="0px"
	 viewBox="0 0 24 24" style="enable-background:new 0 0 24 24;" xml:space="preserve">
<title>disability-microphone</title>
<g>
	<path d="M23.25,23.9c-0.414,0-0.75-0.336-0.75-0.75V7.55c0-0.277-0.152-0.531-0.397-0.661l-9.75-5.2C12.244,1.63,12.122,1.6,12,1.6
		s-0.244,0.031-0.353,0.089l-9.75,5.2C1.652,7.019,1.5,7.272,1.5,7.55v15.6c0,0.414-0.336,0.75-0.75,0.75S0,23.563,0,23.15V7.55
		c0-0.833,0.457-1.593,1.191-1.985l9.75-5.2C11.266,0.191,11.633,0.1,12,0.1s0.734,0.092,1.059,0.265l9.75,5.2
		C23.543,5.957,24,6.717,24,7.549v15.6C24,23.563,23.664,23.9,23.25,23.9z"/>
	<path d="M8.25,23.9c-0.414,0-0.75-0.336-0.75-0.75s0.336-0.75,0.75-0.75h3v-3.048C8.279,18.979,6,16.43,6,13.4
		c0-0.414,0.336-0.75,0.75-0.75S7.5,12.986,7.5,13.4c0,2.481,2.019,4.5,4.5,4.5c2.481,0,4.5-2.019,4.5-4.5
		c0-0.414,0.336-0.75,0.75-0.75S18,12.986,18,13.4c0,3.03-2.279,5.58-5.25,5.952V22.4h3c0.414,0,0.75,0.336,0.75,0.75
		s-0.336,0.75-0.75,0.75H8.25z"/>
	<path d="M12,16.4c-2.068,0-3.75-1.682-3.75-3.75v-3C8.25,7.582,9.932,5.9,12,5.9c2.068,0,3.75,1.682,3.75,3.75v3
		C15.75,14.718,14.068,16.4,12,16.4z M9.75,12.65c0,1.241,1.009,2.25,2.25,2.25c1.241,0,2.25-1.009,2.25-2.25V10.4h-4.5V12.65z
		 M14.118,8.9C13.805,8.02,12.96,7.4,12,7.4S10.195,8.02,9.882,8.9H14.118z"/>
</g>
</svg>
