<?xml version="1.0" encoding="utf-8"?>
<!-- Generator: Adobe Illustrator 22.1.0, SVG Export Plug-In . SVG Version: 6.00 Build 0)  -->
<svg version="1.1" id="Layer_1" xmlns="http://www.w3.org/2000/svg" xmlns:xlink="http://www.w3.org/1999/xlink" x="0px" y="0px"
	 viewBox="0 0 24 24" style="enable-background:new 0 0 24 24;" xml:space="preserve">
<title>disability-blind-read-book</title>
<g>
	<circle cx="4.88" cy="6.375" r="1.125"/>
	<circle cx="9.38" cy="6.375" r="1.125"/>
	<path d="M4.879,11.25c-0.214,0-0.422-0.061-0.602-0.175c-0.524-0.333-0.678-1.03-0.346-1.553c0.161-0.254,0.412-0.429,0.705-0.495
		C4.717,9.01,4.799,9,4.881,9c0.213,0,0.422,0.061,0.603,0.176c0.254,0.162,0.43,0.412,0.495,0.706
		c0.065,0.293,0.012,0.594-0.15,0.847c0,0.001-0.001,0.001-0.001,0.002C5.62,11.057,5.265,11.25,4.879,11.25z"/>
	<path d="M4.879,15c-0.213,0-0.422-0.061-0.602-0.176c-0.523-0.333-0.678-1.03-0.346-1.553c0.208-0.327,0.563-0.521,0.951-0.521
		c0.214,0,0.422,0.061,0.602,0.175c0.254,0.162,0.43,0.412,0.495,0.706c0.065,0.292,0.012,0.591-0.147,0.844
		C5.615,14.809,5.261,15,4.879,15z"/>
	<path d="M9.379,15c-0.215,0-0.424-0.061-0.605-0.177c-0.522-0.334-0.676-1.031-0.342-1.554c0.208-0.325,0.562-0.519,0.949-0.519
		c0.215,0,0.424,0.061,0.605,0.177c0.252,0.16,0.427,0.41,0.492,0.703c0.065,0.293,0.013,0.594-0.149,0.848
		c-0.001,0.001-0.003,0.004-0.003,0.004C10.12,14.806,9.765,15,9.379,15z"/>
	<path d="M13.879,15c-0.214,0-0.423-0.061-0.605-0.177c-0.253-0.162-0.428-0.413-0.492-0.706c-0.065-0.293-0.011-0.594,0.151-0.848
		c0.16-0.252,0.41-0.427,0.703-0.492c0.081-0.018,0.164-0.027,0.246-0.027c0.211,0,0.417,0.06,0.597,0.172
		c0.003,0.002,0.006,0.004,0.009,0.006v0c0.522,0.334,0.675,1.031,0.341,1.554c-0.162,0.253-0.413,0.428-0.706,0.493
		C14.042,14.991,13.96,15,13.879,15z"/>
	<path d="M9.379,11.25c-0.214,0-0.422-0.061-0.602-0.175c-0.524-0.333-0.678-1.03-0.346-1.553c0.161-0.254,0.412-0.429,0.705-0.495
		C9.217,9.01,9.299,9,9.381,9c0.213,0,0.422,0.061,0.603,0.176c0.254,0.162,0.43,0.412,0.495,0.706
		c0.065,0.293,0.012,0.594-0.15,0.847c0,0.001-0.001,0.001-0.001,0.002C10.12,11.057,9.765,11.25,9.379,11.25z"/>
	<path d="M3.005,24c-1.654,0-3-1.346-3-3V2.707C0.005,1.214,1.22,0,2.712,0h7.043c0.414,0,0.75,0.336,0.75,0.75
		S10.169,1.5,9.755,1.5H2.712c-0.666,0-1.207,0.542-1.207,1.207v15.695C1.957,18.14,2.47,18,3.005,18h15v-7.5
		c0-0.414,0.336-0.75,0.75-0.75s0.75,0.336,0.75,0.75v8.25c0,0.414-0.336,0.75-0.75,0.75h-0.75v3.75c0,0.414-0.336,0.75-0.75,0.75
		H3.005z M3.005,19.5c-0.827,0-1.5,0.673-1.5,1.5s0.673,1.5,1.5,1.5h13.5v-3H3.005z"/>
	<path d="M17.965,8.249c-0.875-0.051-1.723-0.258-2.527-0.615c-0.152-0.019-0.294-0.083-0.409-0.186
		c-0.009-0.007-0.016-0.015-0.024-0.023c-1.144-0.601-2.108-1.495-2.79-2.589c-0.284-0.432-0.282-0.999,0.01-1.437
		c1.236-1.986,3.383-3.26,5.736-3.398C17.969,0.001,17.998,0,18.005,0l0.041,0.001c0.876,0.051,1.726,0.259,2.531,0.617
		c0.15,0.019,0.292,0.083,0.405,0.184c0.009,0.008,0.016,0.015,0.024,0.023c1.147,0.603,2.111,1.498,2.792,2.593
		c0.284,0.425,0.282,0.991-0.013,1.433c-1.235,1.986-3.382,3.259-5.736,3.397c-0.007,0-0.037,0.001-0.044,0.001
		C17.999,8.25,17.971,8.249,17.965,8.249z M16.841,6.549c0.381,0.107,0.771,0.173,1.164,0.199c1.817-0.12,3.477-1.097,4.464-2.623
		c-0.477-0.732-1.11-1.344-1.85-1.794L16.841,6.549z M13.541,4.125c0.468,0.724,1.104,1.341,1.851,1.794l3.779-4.218
		c-0.381-0.107-0.771-0.173-1.165-0.2C16.188,1.622,14.528,2.599,13.541,4.125z"/>
</g>
</svg>
