<?xml version="1.0" encoding="utf-8"?>
<!-- Generator: Adobe Illustrator 22.1.0, SVG Export Plug-In . SVG Version: 6.00 Build 0)  -->
<svg version="1.1" id="Layer_1" xmlns="http://www.w3.org/2000/svg" xmlns:xlink="http://www.w3.org/1999/xlink" x="0px" y="0px"
	 viewBox="0 0 24 24" style="enable-background:new 0 0 24 24;" xml:space="preserve">
<title>disability-blind-read</title>
<g>
	<circle cx="4.129" cy="15.387" r="1.125"/>
	<circle cx="4.129" cy="10.887" r="1.125"/>
	<circle cx="4.129" cy="6.387" r="1.125"/>
	<circle cx="8.629" cy="9.387" r="1.125"/>
	<circle cx="8.629" cy="13.137" r="1.125"/>
	<circle cx="15.379" cy="15.387" r="1.125"/>
	<circle cx="15.379" cy="11.637" r="1.125"/>
	<circle cx="19.129" cy="14.637" r="1.125"/>
	<path d="M12.004,23.988c-0.059,0-0.118-0.008-0.18-0.024c-0.016-0.003-0.031-0.007-0.045-0.011
		c-0.009-0.003-0.018-0.006-0.027-0.01c0,0-0.019-0.008-0.019-0.008c-0.021-0.008-0.042-0.017-0.063-0.028
		c-0.017-0.008-0.038-0.02-0.059-0.032c-0.008-0.005-0.044-0.029-0.044-0.029c-0.001,0-0.014-0.01-0.027-0.022
		c-0.018-0.014-0.032-0.026-0.045-0.038c-0.016-0.015-0.032-0.031-0.047-0.049c-0.018-0.021-0.03-0.034-0.04-0.048
		c-0.024-0.033-0.034-0.05-0.044-0.067c-0.014-0.023-0.026-0.045-0.036-0.067c-0.007-0.015-0.03-0.07-0.033-0.08
		c-0.212-0.665-1.143-1.407-2.494-1.993c-1.214-0.527-3.357-1.186-6.672-1.337c-1.201-0.074-2.131-1.067-2.123-2.261V4.538
		C0.003,3.939,0.235,3.373,0.659,2.947c0.424-0.426,0.989-0.662,1.589-0.663c0,0,0.027,0,0.029,0
		c0.045,0.001,0.09,0.002,0.135,0.005c2.608,0.049,5.154,0.637,7.549,1.749c0.375,0.174,0.539,0.621,0.365,0.996
		c-0.123,0.264-0.39,0.435-0.681,0.435c-0.11,0-0.216-0.024-0.316-0.07C7.126,4.376,4.777,3.834,2.347,3.788
		C2.302,3.785,2.281,3.784,2.262,3.784c-0.21,0.001-0.398,0.079-0.54,0.221C1.581,4.147,1.504,4.336,1.504,4.536v13.353
		c-0.003,0.402,0.306,0.734,0.703,0.759c3.882,0.176,7.173,1.103,9.047,2.519V9.012c0-0.414,0.336-0.75,0.75-0.75
		s0.75,0.336,0.75,0.75v12.155c1.874-1.416,5.169-2.343,9.059-2.52c0.387-0.024,0.694-0.355,0.691-0.753V9.013
		c0-0.414,0.336-0.75,0.75-0.75s0.75,0.336,0.75,0.75v8.876c0.008,1.19-0.919,2.182-2.111,2.256
		c-3.326,0.151-5.47,0.811-6.684,1.338c-1.352,0.587-2.283,1.328-2.491,1.983c-0.004,0.014-0.01,0.029-0.017,0.043
		c-0.004,0.01-0.012,0.031-0.021,0.051c-0.009,0.019-0.021,0.041-0.033,0.062c-0.013,0.021-0.024,0.039-0.037,0.056
		c-0.004,0.005-0.014,0.019-0.018,0.024c-0.004,0.006-0.017,0.021-0.031,0.035c-0.015,0.016-0.031,0.033-0.047,0.049
		c-0.021,0.019-0.039,0.034-0.058,0.048c-0.013,0.011-0.017,0.013-0.03,0.023c-0.005,0.003-0.018,0.012-0.031,0.02
		c-0.018,0.011-0.04,0.024-0.064,0.035c-0.016,0.008-0.037,0.018-0.059,0.026c-0.005,0.002-0.034,0.014-0.044,0.017
		c-0.013,0.004-0.029,0.008-0.044,0.011C12.129,23.979,12.067,23.988,12.004,23.988L12.004,23.988z"/>
	<path d="M17.964,8.261c-0.875-0.051-1.723-0.258-2.527-0.615c-0.151-0.019-0.294-0.083-0.409-0.186
		c-0.009-0.008-0.016-0.015-0.023-0.023c-1.145-0.602-2.108-1.495-2.79-2.589c-0.284-0.432-0.282-0.999,0.01-1.437
		c1.236-1.986,3.383-3.26,5.736-3.398c0.007,0,0.037-0.001,0.044-0.001l0.041,0.001c0.876,0.051,1.727,0.259,2.531,0.618
		c0.151,0.019,0.292,0.083,0.405,0.184c0.009,0.008,0.016,0.015,0.024,0.023c1.146,0.603,2.111,1.498,2.792,2.594
		c0.283,0.425,0.281,0.991-0.012,1.432c-1.236,1.986-3.383,3.26-5.737,3.398c-0.007,0-0.037,0.001-0.044,0.001
		C17.998,8.262,17.97,8.261,17.964,8.261z M16.84,6.561c0.381,0.107,0.771,0.173,1.165,0.199c1.817-0.12,3.477-1.097,4.464-2.623
		c-0.478-0.732-1.11-1.344-1.851-1.794L16.84,6.561z M13.54,4.137c0.468,0.724,1.103,1.34,1.85,1.794l3.779-4.218
		c-0.381-0.107-0.771-0.174-1.165-0.2C16.188,1.634,14.527,2.611,13.54,4.137z"/>
</g>
</svg>
