<?xml version="1.0" encoding="utf-8"?>
<!-- Generator: Adobe Illustrator 22.1.0, SVG Export Plug-In . SVG Version: 6.00 Build 0)  -->
<svg version="1.1" id="Layer_1" xmlns="http://www.w3.org/2000/svg" xmlns:xlink="http://www.w3.org/1999/xlink" x="0px" y="0px"
	 viewBox="0 0 24 24" style="enable-background:new 0 0 24 24;" xml:space="preserve">
<title>discount-1</title>
<g>
	<path d="M2.25,22.5c-0.2,0-0.389-0.078-0.53-0.22c-0.142-0.142-0.22-0.33-0.22-0.53s0.078-0.389,0.22-0.53l19.5-19.5
		c0.142-0.142,0.33-0.22,0.53-0.22s0.389,0.078,0.53,0.22c0.142,0.142,0.22,0.33,0.22,0.53s-0.078,0.389-0.22,0.53l-19.5,19.5
		C2.639,22.422,2.45,22.5,2.25,22.5z"/>
	<path d="M18.75,22.5c-2.068,0-3.75-1.682-3.75-3.75S16.682,15,18.75,15s3.75,1.682,3.75,3.75S20.818,22.5,18.75,22.5z M18.75,16.5
		c-1.241,0-2.25,1.009-2.25,2.25S17.509,21,18.75,21S21,19.991,21,18.75S19.991,16.5,18.75,16.5z"/>
	<path d="M5.25,9C3.182,9,1.5,7.318,1.5,5.25S3.182,1.5,5.25,1.5S9,3.182,9,5.25S7.318,9,5.25,9z M5.25,3C4.009,3,3,4.009,3,5.25
		S4.009,7.5,5.25,7.5S7.5,6.491,7.5,5.25S6.491,3,5.25,3z"/>
</g>
</svg>
