<?xml version="1.0" encoding="utf-8"?>
<!-- Generator: Adobe Illustrator 22.1.0, SVG Export Plug-In . SVG Version: 6.00 Build 0)  -->
<svg version="1.1" id="Layer_1" xmlns="http://www.w3.org/2000/svg" xmlns:xlink="http://www.w3.org/1999/xlink" x="0px" y="0px"
	 viewBox="0 0 24 24" style="enable-background:new 0 0 24 24;" xml:space="preserve">
<title>discount-50-alternate</title>
<g>
	<path d="M7.5,12c-0.414,0-0.75-0.336-0.75-0.75S7.086,10.5,7.5,10.5H9c0.414,0,0.75-0.336,0.75-0.75S9.414,9,9,9H8.25
		c-0.827,0-1.5-0.673-1.5-1.5V5.25c0-0.414,0.336-0.75,0.75-0.75h3c0.414,0,0.75,0.336,0.75,0.75S10.914,6,10.5,6H8.25v1.5H9
		c1.241,0,2.25,1.009,2.25,2.25S10.241,12,9,12H7.5z"/>
	<path d="M15,12c-1.241,0-2.25-1.009-2.25-2.25v-3c0-1.241,1.009-2.25,2.25-2.25s2.25,1.009,2.25,2.25v3
		C17.25,10.991,16.241,12,15,12z M15,6c-0.414,0-0.75,0.336-0.75,0.75v3c0,0.414,0.336,0.75,0.75,0.75s0.75-0.336,0.75-0.75v-3
		C15.75,6.336,15.414,6,15,6z"/>
	<circle cx="10.125" cy="14.625" r="1.125"/>
	<circle cx="13.875" cy="18.375" r="1.125"/>
	<path d="M9.75,19.5c-0.2,0-0.389-0.078-0.53-0.22c-0.292-0.292-0.292-0.768,0-1.061l4.5-4.5c0.142-0.142,0.33-0.22,0.53-0.22
		s0.389,0.078,0.53,0.22c0.292,0.292,0.292,0.768,0,1.061l-4.5,4.5C10.139,19.422,9.95,19.5,9.75,19.5z"/>
	<path d="M1.75,24C0.785,24,0,23.215,0,22.25V1.75C0,0.785,0.785,0,1.75,0h20.5C23.215,0,24,0.785,24,1.75v20.5
		c0,0.965-0.785,1.75-1.75,1.75H1.75z M1.75,1.5C1.612,1.5,1.5,1.612,1.5,1.75v20.5c0,0.138,0.112,0.25,0.25,0.25h20.5
		c0.138,0,0.25-0.112,0.25-0.25V1.75c0-0.138-0.112-0.25-0.25-0.25H1.75z"/>
</g>
</svg>
