<?xml version="1.0" encoding="utf-8"?>
<!-- Generator: Adobe Illustrator 22.1.0, SVG Export Plug-In . SVG Version: 6.00 Build 0)  -->
<svg version="1.1" id="Regular" xmlns="http://www.w3.org/2000/svg" xmlns:xlink="http://www.w3.org/1999/xlink" x="0px" y="0px"
	 viewBox="0 0 24 24" style="enable-background:new 0 0 24 24;" xml:space="preserve">
<title>diving-boat</title>
<g>
	<path d="M3.75,1.501C3.336,1.501,3,1.165,3,0.751s0.336-0.75,0.75-0.75h16.5c0.414,0,0.75,0.336,0.75,0.75s-0.336,0.75-0.75,0.75
		H3.75z"/>
	<path d="M3.75,4.501C3.336,4.501,3,4.165,3,3.751s0.336-0.75,0.75-0.75h12c0.414,0,0.75,0.336,0.75,0.75s-0.336,0.75-0.75,0.75
		H3.75z"/>
	<path d="M7.606,19.501c-0.313,0-0.596-0.197-0.704-0.491c-0.069-0.188-0.061-0.392,0.023-0.573c0.084-0.182,0.234-0.32,0.422-0.389
		l4.45-1.64l-1.556-4.223L8.13,12.963c-0.082,0.031-0.17,0.046-0.259,0.046c-0.313,0-0.596-0.197-0.704-0.491
		c-0.143-0.388,0.057-0.82,0.444-0.963l2.111-0.778L8.944,8.667C8.801,8.279,9,7.847,9.389,7.703
		c0.084-0.031,0.171-0.046,0.259-0.046c0.313,0,0.596,0.197,0.704,0.49l0.778,2.112l2.112-0.778
		c0.084-0.031,0.171-0.046,0.259-0.046c0.313,0,0.596,0.197,0.704,0.491c0.069,0.187,0.061,0.391-0.023,0.573
		c-0.084,0.182-0.234,0.32-0.422,0.389l-2.112,0.778l1.556,4.222l6.753-2.488c0.167-0.062,0.341-0.093,0.516-0.093l0.053,0.001
		c0.4,0.013,0.774,0.181,1.049,0.474s0.42,0.676,0.407,1.078c-0.035,1.397-0.271,2.784-0.7,4.119c-0.1,0.311-0.387,0.52-0.714,0.52
		c0,0,0,0,0,0c-0.078,0-0.155-0.012-0.229-0.036c-0.394-0.127-0.611-0.55-0.485-0.944c0.386-1.198,0.597-2.443,0.629-3.702
		L7.865,19.455C7.783,19.486,7.695,19.501,7.606,19.501z"/>
	<path d="M8.261,24.004c-0.277,0-0.558-0.021-0.834-0.064c-1.124-0.174-2.129-0.673-2.93-1.452
		c-1.004,0.964-2.348,1.512-3.746,1.514c-0.414,0-0.75-0.336-0.751-0.749c0-0.2,0.077-0.389,0.219-0.531
		c0.141-0.142,0.33-0.22,0.53-0.22c1.237-0.002,2.414-0.598,3.147-1.594c0.141-0.191,0.366-0.306,0.604-0.306
		c0.239,0,0.464,0.115,0.605,0.307c0.731,0.998,1.909,1.593,3.151,1.593c0,0,0,0,0,0c0.832,0,1.627-0.26,2.299-0.752
		c0.322-0.236,0.605-0.519,0.841-0.841c0.141-0.192,0.367-0.307,0.605-0.307s0.464,0.115,0.605,0.307
		c0.616,0.84,1.521,1.39,2.551,1.549c0.2,0.031,0.402,0.046,0.603,0.046c0.828,0,1.622-0.261,2.296-0.755
		c0.322-0.236,0.605-0.519,0.841-0.841c0.141-0.192,0.366-0.306,0.604-0.307c0.239,0,0.465,0.115,0.606,0.306
		c0.733,0.996,1.91,1.592,3.147,1.594c0.413,0,0.749,0.337,0.749,0.751c0,0.413-0.337,0.749-0.75,0.749
		c-1.4-0.002-2.744-0.55-3.749-1.515c-0.176,0.17-0.363,0.328-0.561,0.472C18.01,23.64,16.909,24,15.756,24
		C14.348,24,13,23.453,12,22.488c-0.175,0.169-0.362,0.326-0.559,0.47C10.508,23.642,9.408,24.004,8.261,24.004z"/>
</g>
</svg>
