<?xml version="1.0" encoding="utf-8"?>
<!-- Generator: Adobe Illustrator 22.1.0, SVG Export Plug-In . SVG Version: 6.00 Build 0)  -->
<svg version="1.1" id="Regular" xmlns="http://www.w3.org/2000/svg" xmlns:xlink="http://www.w3.org/1999/xlink" x="0px" y="0px"
	 viewBox="0 0 24 24" style="enable-background:new 0 0 24 24;" xml:space="preserve">
<title>diving-diver</title>
<g>
	<path d="M19.5,15.512c-1.654,0-3-1.346-3-3c0-1.654,1.346-3,3-3s3,1.346,3,3C22.5,14.166,21.154,15.512,19.5,15.512z M19.5,11.012
		c-0.827,0-1.5,0.673-1.5,1.5s0.673,1.5,1.5,1.5s1.5-0.673,1.5-1.5S20.327,11.012,19.5,11.012z"/>
	<path d="M21.067,23.052c-0.353,0-0.692-0.081-1.008-0.24c-0.073-0.037-0.142-0.076-0.209-0.119l-4.693-2.68H9
		c-0.486,0-0.965-0.16-1.351-0.451l-5.783-4.338c-0.321-0.24-0.528-0.591-0.585-0.988s0.045-0.792,0.285-1.112
		c0.281-0.375,0.73-0.6,1.2-0.6l2.5,0.002c0.321,0,0.641,0.106,0.898,0.298l3.586,2.689h6c0.392,0.001,0.778,0.105,1.117,0.3
		l5.249,2.999c0.511,0.257,0.906,0.717,1.092,1.288c0.187,0.571,0.141,1.18-0.128,1.714C22.695,22.577,21.924,23.052,21.067,23.052z
		 M8.55,18.362c0.129,0.097,0.288,0.15,0.448,0.15h6.358c0.13,0,0.258,0.034,0.372,0.098l4.901,2.8
		c0.053,0.033,0.078,0.048,0.104,0.061c0.107,0.054,0.219,0.081,0.336,0.081c0.08,0,0.16-0.013,0.237-0.038
		c0.19-0.063,0.344-0.196,0.434-0.375c0.186-0.37,0.036-0.821-0.333-1.007l-5.285-3.019c-0.115-0.066-0.244-0.101-0.375-0.101H9.5
		c-0.161,0-0.321-0.053-0.45-0.15L7.474,15.68l-1.323,0.882L8.55,18.362z M4.879,15.608l1.323-0.882l-0.936-0.702l-2.499-0.001
		L4.879,15.608z"/>
	<path d="M9.75,14.012c-1.241,0-2.25-1.009-2.25-2.25c0-1.241,1.009-2.25,2.25-2.25h3.75c0.827,0,1.5,0.673,1.5,1.5v1.5
		c0,0.827-0.673,1.5-1.5,1.5H9.75z M9.75,11.012c-0.414,0-0.75,0.336-0.75,0.75s0.336,0.75,0.75,0.75h3.75v-1.5H9.75z"/>
	<path d="M23.249,4.662c-1.4-0.003-2.745-0.551-3.749-1.517c-1.004,0.966-2.349,1.514-3.749,1.517
		C14.35,4.659,13.004,4.111,12,3.145c-1.004,0.966-2.349,1.514-3.749,1.517C6.85,4.659,5.504,4.111,4.5,3.145
		C3.496,4.111,2.151,4.659,0.751,4.662C0.337,4.662,0.001,4.326,0,3.914c0-0.2,0.077-0.389,0.219-0.531
		c0.141-0.142,0.33-0.22,0.53-0.221C1.986,3.16,3.163,2.564,3.896,1.567C4.033,1.382,4.259,1.271,4.5,1.271s0.467,0.111,0.604,0.297
		c0.734,0.996,1.91,1.593,3.148,1.595c1.235-0.002,2.411-0.599,3.145-1.595C11.533,1.382,11.759,1.271,12,1.271
		s0.467,0.111,0.604,0.297c0.733,0.996,1.91,1.593,3.147,1.595c1.235-0.002,2.411-0.599,3.145-1.595
		c0.137-0.186,0.363-0.297,0.604-0.297s0.467,0.111,0.604,0.296c0.734,0.997,1.91,1.593,3.148,1.595c0.2,0,0.388,0.079,0.53,0.221
		C23.923,3.525,24,3.713,24,3.914C23.999,4.326,23.663,4.662,23.249,4.662L23.249,4.662z"/>
</g>
</svg>
