<?xml version="1.0" encoding="utf-8"?>
<!-- Generator: Adobe Illustrator 22.1.0, SVG Export Plug-In . SVG Version: 6.00 Build 0)  -->
<svg version="1.1" id="Regular" xmlns="http://www.w3.org/2000/svg" xmlns:xlink="http://www.w3.org/1999/xlink" x="0px" y="0px"
	 viewBox="0 0 24 24" style="enable-background:new 0 0 24 24;" xml:space="preserve">
<title>dog-small-1</title>
<g>
	<path d="M15,21c-0.322,0-0.608-0.206-0.711-0.511c-0.191-0.568-0.817-1.739-1.539-1.739h-4.5c-0.763,0-1.383,1.289-1.54,1.74
		C6.609,20.794,6.323,21,6,21H3.75C3.336,21,3,20.663,3,20.25V13.5c0-0.414,0.336-0.75,0.75-0.75S4.5,13.086,4.5,13.5v6h0.997
		c0.381-0.822,1.259-2.25,2.753-2.25h4.5c1.494,0,2.372,1.428,2.753,2.25H16.5V18c0-0.174,0.061-0.344,0.172-0.478
		c1.449-1.752,2.187-3.967,2.079-6.237c-0.018-0.374,0.235-0.698,0.602-0.771L22.5,9.885v-1.5c-0.54-1.271-3.107-2.142-4.624-2.396
		c-0.204-0.034-0.386-0.152-0.5-0.324l-1.154-1.732C15.608,4.248,15,4.735,15,5.25c0,1.831-0.88,5.25-3,5.25H3.75
		c-1.78,0-2.25,1.962-2.25,3v3.75C1.5,17.663,1.164,18,0.75,18S0,17.663,0,17.25V13.5C0,10.408,1.944,9,3.75,9H12
		c0.724,0,1.5-2.201,1.5-3.75c0-2.018,2.65-2.924,2.763-2.962C16.339,2.263,16.419,2.25,16.5,2.25c0.251,0,0.484,0.125,0.624,0.334
		l1.326,1.989c1.283,0.265,4.759,1.181,5.512,3.441C23.987,8.09,24,8.169,24,8.25v2.25c0,0.356-0.254,0.666-0.603,0.735
		l-3.137,0.627c-0.031,2.318-0.827,4.575-2.26,6.402v1.986c0,0.414-0.336,0.75-0.75,0.75H15z"/>
</g>
</svg>
