<?xml version="1.0" encoding="utf-8"?>
<!-- Generator: Adobe Illustrator 22.1.0, SVG Export Plug-In . SVG Version: 6.00 Build 0)  -->
<svg version="1.1" id="Regular" xmlns="http://www.w3.org/2000/svg" xmlns:xlink="http://www.w3.org/1999/xlink" x="0px" y="0px"
	 viewBox="0 0 24 24" style="enable-background:new 0 0 24 24;" xml:space="preserve">
<title>dog-poop</title>
<g>
	<path d="M3.75,22.75C1.682,22.75,0,21.068,0,19c0-1.829,1.317-3.357,3.052-3.685C2.536,14.661,2.25,13.851,2.25,13
		c0-2.008,1.587-3.653,3.573-3.746C5.453,8.703,5.25,8.05,5.25,7.375C5.25,5.514,6.764,4,8.625,4h4.125C13.991,4,15,2.991,15,1.75
		C15,1.336,15.336,1,15.75,1c2.481,0,4.5,2.019,4.5,4.5c0,1.459-0.595,2.82-1.63,3.801c1.773,0.297,3.13,1.842,3.13,3.699
		c0,0.851-0.286,1.661-0.802,2.315C22.683,15.643,24,17.171,24,19c0,2.068-1.682,3.75-3.75,3.75H3.75z M3.75,16.75
		c-1.241,0-2.25,1.009-2.25,2.25s1.009,2.25,2.25,2.25h16.5c1.241,0,2.25-1.009,2.25-2.25s-1.009-2.25-2.25-2.25h-3
		c-0.414,0-0.75-0.336-0.75-0.75s0.336-0.75,0.75-0.75H18c1.241,0,2.25-1.009,2.25-2.25c0-1.241-1.009-2.25-2.25-2.25h-3
		c-0.414,0-0.75-0.336-0.75-0.75S14.586,9.25,15,9.25c2.068,0,3.75-1.682,3.75-3.75c0-1.423-0.984-2.626-2.341-2.927
		C16.031,4.266,14.521,5.5,12.75,5.5H8.625C7.591,5.5,6.75,6.341,6.75,7.375S7.591,9.25,8.625,9.25c0.414,0,0.75,0.336,0.75,0.75
		s-0.336,0.75-0.75,0.75H6c-1.241,0-2.25,1.009-2.25,2.25c0,1.241,1.009,2.25,2.25,2.25h0.75c0.414,0,0.75,0.336,0.75,0.75
		s-0.336,0.75-0.75,0.75H3.75z"/>
</g>
</svg>
