<?xml version="1.0" encoding="utf-8"?>
<!-- Generator: Adobe Illustrator 22.1.0, SVG Export Plug-In . SVG Version: 6.00 Build 0)  -->
<svg version="1.1" id="Regular" xmlns="http://www.w3.org/2000/svg" xmlns:xlink="http://www.w3.org/1999/xlink" x="0px" y="0px"
	 viewBox="0 0 24 24" style="enable-background:new 0 0 24 24;" xml:space="preserve">
<title>dog-sit</title>
<g>
	<path d="M9.762,24c-2.159,0-3.813-1.319-4.425-3.528c-0.019-0.069-0.037-0.14-0.054-0.216c-0.286,0.043-0.565,0.065-0.834,0.065
		c-1.498,0-2.456-0.667-2.996-1.226c-1.435-1.486-1.865-4.194-1.071-6.737c0.698-2.235,2.15-3.727,3.983-4.093
		C4.412,8.255,4.462,8.25,4.512,8.25c0.279,0,0.533,0.154,0.663,0.401c0.154,0.292,0.096,0.656-0.141,0.887
		c-1.095,1.067-0.958,2.46-0.65,3.441c0.365,1.163,1.056,2.1,1.58,2.575c0.473-0.815,1.114-1.468,1.911-1.946
		c2.416-1.45,4.886-3.31,4.886-6.107c0-3.107,0-5.561,1.72-7.28C14.623,0.078,14.811,0,15.012,0s0.389,0.078,0.53,0.22l1.267,1.267
		c0.008,0,0.015,0,0.022,0c1.683,0,3.238,0.961,3.999,2.459l2.185,1.093c0.663,0.332,0.987,1.113,0.752,1.816l-0.385,1.155
		c-0.186,0.557-0.683,0.956-1.267,1.018c-0.794,0.081-1.559,0.299-2.275,0.647c-1.002,0.501-1.078,0.65-1.078,5.326
		c0,1.438,0.33,2.051,0.638,2.144c0.043,0.013,0.094,0.02,0.148,0.02c0.543,0,1.547-0.641,2.34-1.83
		C22.027,15.125,22.261,15,22.512,15c0.148,0,0.292,0.044,0.416,0.127c0.166,0.111,0.28,0.28,0.319,0.476
		c0.039,0.197,0,0.397-0.112,0.563c-0.769,1.153-2.167,2.5-3.579,2.5c-0.204,0-0.403-0.029-0.592-0.086
		c-0.777-0.235-1.703-1.047-1.703-3.58c0-4.617,0-5.714,1.915-6.671c0.881-0.429,1.817-0.695,2.784-0.794l0.384-1.155l-2.418-1.209
		c-0.158-0.08-0.284-0.213-0.354-0.375c-0.473-1.099-1.552-1.809-2.748-1.809c-0.083,0-0.167,0.003-0.251,0.01
		C16.554,2.999,16.532,3,16.511,3c-0.197,0-0.39-0.08-0.53-0.22l-0.91-0.91c-0.809,1.284-0.809,3.141-0.809,5.63
		c0,3.546-2.838,5.727-5.614,7.393C7.919,15.33,7.349,15.997,7,16.823c-0.014,0.046-0.032,0.09-0.053,0.131
		c-0.381,0.983-0.442,2.118-0.165,3.119c0.414,1.493,1.496,2.396,2.903,2.427c0.934-1.464,1.005-3.362,0.169-4.889
		c-0.199-0.363-0.065-0.819,0.297-1.018c0.11-0.06,0.235-0.092,0.36-0.092c0.274,0,0.526,0.149,0.658,0.389
		c0.947,1.728,1.016,3.825,0.215,5.611h0.627c0.414,0,0.75,0.336,0.75,0.75S12.425,24,12.012,24H9.762z M2.706,11.024
		c-0.372,0.484-0.674,1.084-0.892,1.781c-0.626,2.004-0.331,4.162,0.718,5.248c0.49,0.507,1.139,0.764,1.929,0.764
		c0.208,0,0.427-0.018,0.653-0.054c0.002-0.6,0.086-1.205,0.247-1.778c-0.955-0.657-1.955-2.118-2.407-3.558
		C2.69,12.588,2.608,11.776,2.706,11.024z"/>
	<path d="M15.012,24c-0.414,0-0.75-0.336-0.75-0.75V15c0-0.414,0.336-0.75,0.75-0.75s0.75,0.336,0.75,0.75v8.25
		C15.762,23.664,15.425,24,15.012,24z"/>
</g>
</svg>
