<?xml version="1.0" encoding="utf-8"?>
<!-- Generator: Adobe Illustrator 22.1.0, SVG Export Plug-In . SVG Version: 6.00 Build 0)  -->
<svg version="1.1" id="Regular" xmlns="http://www.w3.org/2000/svg" xmlns:xlink="http://www.w3.org/1999/xlink" x="0px" y="0px"
	 viewBox="0 0 24 24" style="enable-background:new 0 0 24 24;" xml:space="preserve">
<title>dog-food</title>
<g>
	<path d="M2.568,23.005c-1.241,0-2.25-1.009-2.251-2.249c0-0.18,0.021-0.359,0.064-0.533l1.478-6.076
		C2.147,13.17,3.036,12.5,4.024,12.5h15.768c1.001,0,1.868,0.645,2.155,1.604l1.489,6.119c0.142,0.583,0.048,1.187-0.265,1.701
		c-0.313,0.514-0.806,0.875-1.389,1.017c-0.175,0.043-0.354,0.064-0.533,0.064H2.568z M4.025,14c-0.329,0-0.625,0.221-0.718,0.537
		l-1.469,6.04c-0.014,0.058-0.021,0.118-0.021,0.178c0,0.413,0.337,0.75,0.75,0.75H21.25c0.06,0,0.12-0.007,0.179-0.021
		c0.401-0.098,0.648-0.504,0.551-0.906l-1.479-6.081C20.415,14.212,20.121,14,19.793,14H4.025L4.025,14z"/>
	<path d="M20.833,11c-0.051,0-0.102-0.005-0.152-0.016c-0.404-0.083-0.666-0.48-0.583-0.885c0.161-0.784,0.006-1.585-0.435-2.255
		c-0.442-0.67-1.117-1.128-1.901-1.289c-0.2-0.041-0.405-0.062-0.607-0.062c-0.416,0-0.822,0.086-1.207,0.255
		c-0.013,0.006-0.029,0.012-0.044,0.016c-0.007,0.002-0.014,0.005-0.019,0.006c-0.065,0.025-0.151,0.041-0.237,0.041
		c-0.001,0-0.003,0-0.004,0c-0.022,0-0.042-0.001-0.063-0.003c-0.012-0.001-0.027-0.003-0.042-0.006
		c-0.024-0.003-0.047-0.008-0.07-0.014c-0.022-0.005-0.043-0.011-0.064-0.018c-0.024-0.008-0.049-0.018-0.074-0.03
		c-0.016-0.007-0.037-0.018-0.058-0.03c-0.023-0.013-0.043-0.027-0.063-0.041c-0.019-0.014-0.038-0.028-0.056-0.043
		c-0.015-0.012-0.032-0.03-0.05-0.048c-0.02-0.021-0.034-0.038-0.049-0.056c-0.015-0.02-0.03-0.041-0.043-0.063
		c-0.01-0.016-0.023-0.039-0.035-0.062c-0.008-0.013-0.009-0.015-0.015-0.029c-0.008-0.018-0.014-0.035-0.019-0.051
		c-0.007-0.02-0.013-0.04-0.019-0.06c-0.006-0.024-0.011-0.045-0.015-0.067c-0.005-0.031-0.007-0.051-0.009-0.071
		c-0.002-0.027-0.002-0.051-0.002-0.074c0-0.016,0-0.034,0.001-0.047c0.067-0.798-0.182-1.575-0.699-2.187
		c-0.517-0.612-1.242-0.985-2.041-1.052c-0.085-0.007-0.17-0.011-0.254-0.011c-1.545,0-2.857,1.208-2.985,2.751
		c-0.014,0.166-0.014,0.333,0,0.499C8.92,6.014,8.921,6.032,8.92,6.048c0,0.023,0,0.045-0.002,0.068
		C8.917,6.14,8.914,6.163,8.91,6.186C8.907,6.209,8.901,6.232,8.895,6.255C8.889,6.279,8.882,6.3,8.874,6.322
		C8.869,6.337,8.863,6.354,8.858,6.366c-0.007,0.015-0.014,0.03-0.022,0.043C8.826,6.427,8.815,6.447,8.803,6.466
		C8.792,6.483,8.778,6.503,8.763,6.522C8.749,6.541,8.734,6.557,8.719,6.573C8.699,6.595,8.68,6.613,8.661,6.63
		C8.646,6.644,8.629,6.656,8.612,6.668C8.589,6.685,8.567,6.7,8.543,6.713c-0.017,0.01-0.033,0.017-0.049,0.025
		C8.463,6.754,8.437,6.764,8.411,6.773C8.388,6.78,8.369,6.786,8.35,6.79C8.327,6.796,8.302,6.801,8.276,6.805
		C8.261,6.807,8.245,6.809,8.233,6.81c-0.01,0.001-0.058,0.001-0.061,0.001c-0.018,0-0.037-0.001-0.055-0.002
		C8.094,6.808,8.07,6.805,8.047,6.801C8.023,6.797,8.002,6.793,7.981,6.787c-0.023-0.006-0.05-0.014-0.076-0.024
		C7.89,6.758,7.875,6.752,7.863,6.746C7.486,6.58,7.08,6.495,6.664,6.495c-1.192,0-2.272,0.703-2.752,1.791
		C3.66,8.859,3.593,9.486,3.719,10.099c0.04,0.196,0.002,0.396-0.108,0.564c-0.11,0.167-0.279,0.281-0.475,0.322
		C3.086,10.995,3.035,11,2.984,11c-0.354,0-0.663-0.252-0.734-0.599C2.061,9.481,2.162,8.54,2.54,7.68
		c0.718-1.629,2.335-2.682,4.121-2.682c0.268,0,0.536,0.024,0.8,0.072c0.333-2.166,2.228-3.82,4.443-3.82
		c0.125,0,0.252,0.005,0.38,0.016c1.197,0.1,2.285,0.66,3.061,1.578c0.542,0.641,0.886,1.402,1.01,2.223
		c0.267-0.049,0.537-0.074,0.807-0.074c0.302,0,0.605,0.031,0.903,0.092c1.178,0.242,2.191,0.928,2.853,1.932
		c0.662,1.004,0.893,2.205,0.651,3.383C21.496,10.748,21.187,11,20.833,11z"/>
	<path d="M8.159,20c-1.241,0-2.25-1.009-2.25-2.25s1.009-2.25,2.25-2.25h7.5c1.241,0,2.25,1.009,2.25,2.25S16.899,20,15.659,20
		H8.159z M8.159,17c-0.414,0-0.75,0.336-0.75,0.75s0.336,0.75,0.75,0.75h7.5c0.414,0,0.75-0.336,0.75-0.75S16.072,17,15.659,17
		H8.159z"/>
</g>
</svg>
