<?xml version="1.0" encoding="utf-8"?>
<!-- Generator: Adobe Illustrator 22.1.0, SVG Export Plug-In . SVG Version: 6.00 Build 0)  -->
<svg version="1.1" id="Regular" xmlns="http://www.w3.org/2000/svg" xmlns:xlink="http://www.w3.org/1999/xlink" x="0px" y="0px"
	 viewBox="0 0 24 24" style="enable-background:new 0 0 24 24;" xml:space="preserve">
<title>dog-small</title>
<g>
	<path d="M1.5,24.005c-0.827,0-1.5-0.673-1.5-1.5V14.25C0,11.725,1.721,9,4.5,9h5.25c0.414,0,0.75-0.336,0.75-0.75v-7.5
		c0-0.262,0.133-0.5,0.356-0.638C10.974,0.039,11.11,0,11.25,0c0.115,0,0.231,0.027,0.335,0.079L14.428,1.5h5.646l2.842-1.421
		C23.019,0.028,23.135,0,23.25,0c0.139,0,0.276,0.039,0.394,0.112C23.867,0.25,24,0.489,24,0.75v15
		c0.014,2.508-0.441,4.966-1.351,7.305c-0.234,0.575-0.78,0.944-1.392,0.945h-2.201c-0.401,0-0.778-0.156-1.061-0.44
		c-0.142-0.142-0.22-0.33-0.22-0.53s0.078-0.389,0.22-0.53s0.33-0.22,0.53-0.22s0.389,0.078,0.53,0.22l2.201,0
		c0.837-2.153,1.257-4.425,1.244-6.746V1.964l-1.915,0.957C20.482,2.973,20.366,3,20.25,3h-6c-0.116,0-0.232-0.027-0.335-0.079
		L12,1.964V8.25c0,1.241-1.009,2.25-2.25,2.25H4.5c-1.853,0-3,1.946-3,3.75v8.255h1.114C3.26,21.661,4.556,20.25,6,20.25h3.75
		c1.489,0,2.363,1.41,2.751,2.251l2.021-0.001l0.114-0.264c0.549-1.282,1.172-2.736,4.114-2.736c0.414,0,0.75,0.336,0.75,0.75
		S19.164,21,18.75,21c-1.953,0-2.231,0.649-2.735,1.827l-0.119,0.275c-0.24,0.545-0.779,0.897-1.373,0.898H12.5
		c-0.582,0-1.116-0.342-1.361-0.87c-0.15-0.324-0.692-1.38-1.389-1.38H6c-0.679,0-1.604,0.895-2.19,1.661
		c-0.278,0.371-0.726,0.594-1.195,0.594C2.615,24.005,1.5,24.005,1.5,24.005z"/>
	<path d="M19.875,6.75c-0.044,0-0.088-0.004-0.131-0.011c-0.513-0.06-0.922-0.47-0.982-0.983c-0.008-0.042-0.011-0.086-0.011-0.13
		c0-0.044,0.004-0.088,0.011-0.13c0.061-0.513,0.47-0.922,0.983-0.983C19.787,4.504,19.831,4.5,19.875,4.5s0.088,0.004,0.131,0.011
		c0.513,0.06,0.922,0.47,0.982,0.983C20.996,5.537,21,5.581,21,5.625s-0.004,0.088-0.011,0.13c-0.06,0.513-0.469,0.922-0.982,0.983
		C19.963,6.746,19.919,6.75,19.875,6.75z"/>
	<path d="M14.625,6.75c-0.044,0-0.088-0.004-0.131-0.011c-0.513-0.06-0.922-0.47-0.982-0.983C13.504,5.713,13.5,5.67,13.5,5.625
		c0-0.044,0.004-0.088,0.011-0.13c0.061-0.513,0.47-0.922,0.983-0.983C14.537,4.504,14.581,4.5,14.625,4.5s0.088,0.004,0.131,0.011
		c0.513,0.06,0.922,0.47,0.982,0.983c0.008,0.042,0.011,0.086,0.011,0.13s-0.004,0.088-0.011,0.13
		c-0.06,0.513-0.469,0.922-0.982,0.983C14.713,6.746,14.669,6.75,14.625,6.75z"/>
	<path d="M16.5,9.75c-0.414,0-0.75-0.336-0.75-0.75s0.336-0.75,0.75-0.75H18c0.414,0,0.75,0.336,0.75,0.75S18.414,9.75,18,9.75H16.5
		z"/>
</g>
</svg>
