<?xml version="1.0" encoding="utf-8"?>
<!-- Generator: Adobe Illustrator 22.1.0, SVG Export Plug-In . SVG Version: 6.00 Build 0)  -->
<svg version="1.1" id="Regular" xmlns="http://www.w3.org/2000/svg" xmlns:xlink="http://www.w3.org/1999/xlink" x="0px" y="0px"
	 viewBox="0 0 24 24" style="enable-background:new 0 0 24 24;" xml:space="preserve">
<title>dog-bone</title>
<g>
	<path d="M6.21,23.752c-1.604-0.029-2.953-1.181-3.251-2.728c-0.504-0.098-0.979-0.31-1.389-0.62
		c-0.718-0.543-1.181-1.333-1.305-2.225c-0.124-0.892,0.108-1.778,0.651-2.496s1.333-1.181,2.225-1.305
		c0.156-0.022,0.313-0.032,0.469-0.032c0.507,0,1.006,0.115,1.46,0.335l9.562-9.562C14.407,4.65,14.293,4.135,14.3,3.614
		c0.026-1.83,1.543-3.319,3.382-3.319l0.033,0c1.604,0.023,2.956,1.172,3.258,2.717c0.656,0.128,1.264,0.449,1.737,0.921
		c1.192,1.181,1.328,3.082,0.317,4.422c-0.642,0.85-1.624,1.338-2.693,1.338c0,0,0,0,0,0c-0.507,0-1.005-0.114-1.458-0.332
		l-9.568,9.567c0.226,0.472,0.339,0.99,0.33,1.514c-0.016,0.9-0.382,1.74-1.029,2.365c-0.631,0.609-1.462,0.945-2.338,0.945
		L6.21,23.752z M3.649,19.586c0.2,0,0.388,0.078,0.53,0.219c0.143,0.144,0.223,0.341,0.22,0.543c-0.009,0.5,0.177,0.973,0.524,1.332
		c0.347,0.36,0.813,0.562,1.312,0.571l0.035,0c0.486,0,0.947-0.186,1.297-0.524c0.359-0.347,0.562-0.813,0.571-1.312
		c0.007-0.414-0.125-0.824-0.373-1.155c-0.223-0.296-0.193-0.718,0.07-0.98L18.23,7.886c0.142-0.142,0.33-0.22,0.531-0.22
		c0.164,0,0.321,0.052,0.452,0.151c0.326,0.246,0.715,0.377,1.124,0.377c0.594,0,1.138-0.271,1.494-0.742
		c0.561-0.744,0.485-1.799-0.177-2.454c0,0-0.001-0.002-0.002-0.002c-0.347-0.347-0.828-0.546-1.319-0.546c0,0-0.04,0-0.04,0
		c-0.206,0-0.394-0.078-0.535-0.219c-0.143-0.142-0.224-0.34-0.221-0.542c0.007-0.499-0.18-0.971-0.528-1.329
		c-0.348-0.358-0.814-0.559-1.313-0.566l-0.027,0c-1.015,0-1.853,0.826-1.867,1.841c-0.006,0.412,0.127,0.82,0.375,1.15
		c0.223,0.297,0.193,0.719-0.069,0.981L5.715,16.157c-0.141,0.142-0.33,0.22-0.53,0.22c-0.165,0-0.321-0.052-0.452-0.152
		c-0.328-0.248-0.716-0.38-1.122-0.38c-0.087,0-0.176,0.006-0.263,0.019c-0.496,0.069-0.934,0.326-1.235,0.724
		c-0.301,0.398-0.43,0.89-0.361,1.385c0.068,0.495,0.326,0.933,0.724,1.235c0.323,0.244,0.724,0.378,1.129,0.378
		c0,0,0.036,0,0.038,0H3.649z"/>
</g>
</svg>
