<?xml version="1.0" encoding="utf-8"?>
<!-- Generator: Adobe Illustrator 22.1.0, SVG Export Plug-In . SVG Version: 6.00 Build 0)  -->
<svg version="1.1" id="Regular" xmlns="http://www.w3.org/2000/svg" xmlns:xlink="http://www.w3.org/1999/xlink" x="0px" y="0px"
	 viewBox="0 0 24 24" style="enable-background:new 0 0 24 24;" xml:space="preserve">
<title>dog-pitbull</title>
<g>
	<path d="M12,23.999c-1.1,0-2.206-0.245-3.212-0.71c-0.563,0.242-1.16,0.37-1.738,0.37c-0.486,0-0.945-0.088-1.365-0.262
		c-1.177-0.488-1.875-1.563-1.93-2.965C1.371,17.952,0.039,14.7,0,11.258c-0.005-0.413,0.328-0.754,0.741-0.759c0,0,0,0,0,0
		c0.421,0,0.753,0.333,0.758,0.741c0.03,2.623,0.921,5.156,2.522,7.212c0.894-2.865,3.765-4.261,4.989-4.738
		c0.182-1.394,1.402-2.473,2.814-2.473c0.058,0,0.116,0.002,0.175,0.005c0.058-0.004,0.116-0.005,0.173-0.005
		c1.412,0,2.631,1.079,2.813,2.472c1.225,0.476,4.098,1.872,4.992,4.739c1.602-2.056,2.492-4.589,2.522-7.212
		c0.005-0.409,0.341-0.741,0.75-0.741c0.209,0.002,0.396,0.083,0.536,0.226c0.14,0.143,0.216,0.333,0.214,0.533
		c-0.04,3.442-1.372,6.694-3.754,9.174c-0.056,1.402-0.753,2.477-1.93,2.965c-0.42,0.174-0.881,0.262-1.368,0.262
		c-0.57,0-1.166-0.128-1.732-0.372C14.209,23.754,13.101,23.999,12,23.999z M10.301,22.258c0.551,0.159,1.12,0.239,1.698,0.239
		c0.579,0,1.149-0.08,1.7-0.239c-0.674-0.739-1.241-1.542-1.699-2.4c-0.461,0.865-1.029,1.669-1.697,2.398
		C10.303,22.257,10.302,22.257,10.301,22.258z M12,17.25c0.317,0,0.601,0.201,0.707,0.5c0.46,1.3,1.165,2.476,2.096,3.494
		c0.573,0.572,1.374,0.921,2.132,0.921c0.291,0,0.562-0.051,0.806-0.152c0.834-0.345,1.009-1.149,1.009-1.762
		c0-3.048-2.866-4.555-4.142-5.074c-0.178,0.282-0.408,0.526-0.679,0.714c-0.125,0.088-0.274,0.135-0.428,0.135
		c-0.246,0-0.476-0.12-0.616-0.322c-0.236-0.339-0.152-0.807,0.187-1.043c0.249-0.174,0.407-0.455,0.427-0.757
		c-0.088-0.653-0.665-1.16-1.325-1.16c-0.037,0-0.074,0.001-0.111,0.005c-0.024,0.002-0.043,0.002-0.061,0.002
		c-0.018,0-0.037,0-0.055-0.002c-0.048-0.004-0.087-0.006-0.124-0.006c-0.658,0-1.234,0.507-1.322,1.159
		c0.02,0.302,0.179,0.583,0.428,0.757c0.164,0.114,0.274,0.286,0.31,0.483c0.036,0.197-0.008,0.396-0.123,0.561
		c-0.14,0.201-0.37,0.322-0.616,0.322c-0.154,0-0.301-0.046-0.428-0.134c-0.271-0.188-0.501-0.431-0.679-0.713
		C8.116,15.698,5.25,17.209,5.25,20.25c0,0.613,0.175,1.417,1.009,1.762c0.243,0.1,0.513,0.151,0.803,0.151
		c0.76,0,1.567-0.353,2.158-0.944c0.912-0.998,1.614-2.17,2.073-3.47C11.398,17.451,11.683,17.25,12,17.25z"/>
	<path d="M21.583,9.028c-0.748,0-1.612-0.313-2.499-0.904c-1.326-0.898-2.527-1.964-3.572-3.171
		c-0.413-0.483-0.659-1.078-0.71-1.704c-0.913-0.165-1.823-0.249-2.71-0.249L11.97,3c-0.919,0-1.85,0.084-2.773,0.25
		c-0.051,0.627-0.296,1.221-0.705,1.7C7.443,6.159,6.243,7.225,4.92,8.121C4.03,8.715,3.165,9.028,2.417,9.028
		c-0.403,0-0.772-0.088-1.098-0.263C0.468,8.31,0,7.328,0,6c0-2.987,1.16-6,3.75-6h2.462c0.714,0,1.406,0.256,1.948,0.72
		C8.496,1.007,8.764,1.366,8.944,1.77c0.999-0.18,1.993-0.271,2.958-0.271l0.149,0c0.992,0,2,0.091,3.003,0.271
		c0.18-0.403,0.448-0.762,0.786-1.051C16.382,0.255,17.074,0,17.788,0h2.462C22.841,0,24,3.013,24,6c0,1.328-0.468,2.31-1.319,2.765
		C22.355,8.939,21.986,9.028,21.583,9.028z M17.788,1.5c-0.357,0-0.703,0.128-0.974,0.36c-0.304,0.26-0.49,0.624-0.521,1.023
		c-0.031,0.399,0.095,0.786,0.355,1.091c0.958,1.106,2.059,2.084,3.272,2.905c0.64,0.427,1.212,0.653,1.651,0.653
		c0.156,0,0.292-0.03,0.402-0.089C22.308,7.263,22.5,6.737,22.5,6c0-1.556-0.47-4.5-2.25-4.5H17.788z M3.75,1.5
		C1.97,1.5,1.5,4.443,1.5,6c0,0.738,0.192,1.264,0.526,1.443c0.111,0.059,0.246,0.089,0.402,0.089c0.439,0,1.012-0.227,1.655-0.656
		c1.21-0.819,2.31-1.797,3.269-2.904c0.535-0.627,0.46-1.575-0.168-2.112C6.914,1.628,6.568,1.5,6.212,1.5H3.75z"/>
	<path d="M5.625,12.75c-0.044,0-0.088-0.004-0.13-0.011c-0.513-0.061-0.922-0.47-0.983-0.983C4.504,11.713,4.5,11.668,4.5,11.625
		s0.004-0.088,0.012-0.131c0.06-0.513,0.47-0.922,0.982-0.982C5.537,10.504,5.581,10.5,5.625,10.5s0.088,0.004,0.131,0.012
		c0.513,0.06,0.922,0.47,0.982,0.982c0.008,0.043,0.012,0.087,0.012,0.131s-0.004,0.088-0.012,0.131
		c-0.061,0.513-0.47,0.922-0.983,0.983C5.713,12.746,5.669,12.75,5.625,12.75z"/>
	<path d="M18.375,12.75c-0.044,0-0.088-0.004-0.131-0.011c-0.513-0.06-0.923-0.47-0.983-0.983c-0.008-0.042-0.011-0.086-0.011-0.13
		s0.004-0.088,0.011-0.13c0.06-0.513,0.47-0.923,0.982-0.983c0.043-0.008,0.087-0.011,0.131-0.011s0.088,0.004,0.131,0.011
		c0.513,0.06,0.922,0.47,0.983,0.983c0.007,0.042,0.011,0.086,0.011,0.13s-0.004,0.088-0.011,0.13
		c-0.061,0.513-0.47,0.923-0.983,0.983C18.463,12.746,18.419,12.75,18.375,12.75z"/>
	<path d="M10.5,9.75c-0.323,0-0.609-0.206-0.712-0.513l-0.75-2.25C8.975,6.797,8.99,6.593,9.079,6.414s0.244-0.313,0.434-0.376
		C9.59,6.013,9.67,6,9.75,6c0.323,0,0.609,0.206,0.711,0.513l0.75,2.25c0.063,0.19,0.049,0.393-0.041,0.573
		s-0.244,0.313-0.434,0.376C10.661,9.737,10.581,9.75,10.5,9.75z"/>
	<path d="M13.5,9.75c-0.081,0-0.161-0.013-0.238-0.039c-0.189-0.063-0.344-0.197-0.433-0.376c-0.089-0.179-0.104-0.382-0.041-0.572
		l0.75-2.25c0.102-0.307,0.387-0.513,0.711-0.513c0.081,0,0.162,0.013,0.239,0.039c0.189,0.063,0.343,0.196,0.432,0.376
		c0.089,0.179,0.104,0.382,0.041,0.572l-0.75,2.25C14.11,9.543,13.823,9.75,13.5,9.75z"/>
</g>
</svg>
