<?xml version="1.0" encoding="utf-8"?>
<!-- Generator: Adobe Illustrator 22.1.0, SVG Export Plug-In . SVG Version: 6.00 Build 0)  -->
<svg version="1.1" id="Regular" xmlns="http://www.w3.org/2000/svg" xmlns:xlink="http://www.w3.org/1999/xlink" x="0px" y="0px"
	 viewBox="0 0 24 24" style="enable-background:new 0 0 24 24;" xml:space="preserve">
<title>dog-head</title>
<g>
	<path d="M12.008,24c-1.679,0-3.195-0.51-4.508-1.516c-0.042-0.026-0.081-0.056-0.116-0.089c-2.196-1.75-3.639-4.791-4.173-8.796
		c-0.055-0.41,0.234-0.788,0.644-0.843c0.035-0.005,0.067-0.007,0.099-0.007c0.374,0,0.694,0.28,0.743,0.651
		c0.46,3.447,1.63,6.074,3.388,7.615c1.183-0.425,2.164-1.642,2.71-2.451C9.72,18.217,9.008,17.419,9.008,16.5
		c0-1.262,1.318-2.25,3-2.25c1.682,0,3,0.988,3,2.25c0,0.919-0.712,1.717-1.787,2.063c0.547,0.809,1.528,2.027,2.709,2.452
		c1.759-1.541,2.929-4.167,3.388-7.614c0.05-0.371,0.369-0.651,0.744-0.651c0.032,0,0.065,0.002,0.098,0.006
		c0.411,0.055,0.7,0.433,0.646,0.843c-0.536,4.02-1.988,7.068-4.198,8.814c-0.02,0.017-0.04,0.032-0.062,0.047
		C15.227,23.482,13.701,24,12.008,24z M9.534,21.964c0.766,0.356,1.595,0.536,2.474,0.536s1.709-0.18,2.474-0.536
		c-1.085-0.676-1.931-1.712-2.474-2.51C11.465,20.252,10.619,21.287,9.534,21.964z M12.008,15.75c-0.845,0-1.5,0.403-1.5,0.75
		s0.655,0.75,1.5,0.75s1.5-0.403,1.5-0.75S12.853,15.75,12.008,15.75z"/>
	<path d="M20.468,11.303c-0.379,0-0.756-0.098-1.091-0.285c-0.384-0.214-0.694-0.532-0.898-0.921
		c-1.011-1.866-1.828-3.851-2.427-5.895c-0.001-0.005-0.006-0.023-0.007-0.027c-0.093-0.368-0.115-0.745-0.064-1.123
		C14.88,2.089,13.484,1.56,12.027,1.56c-0.054,0-0.109,0.001-0.164,0.002c-1.485,0.036-2.887,0.609-3.969,1.619
		c0.03,0.333,0.003,0.667-0.08,0.996C7.813,4.182,7.808,4.2,7.806,4.205C7.208,6.247,6.39,8.234,5.375,10.107
		c-0.2,0.382-0.51,0.699-0.894,0.912c-0.335,0.186-0.712,0.285-1.091,0.285c-0.208,0-0.417-0.029-0.62-0.087
		c-0.578-0.165-1.057-0.545-1.349-1.07C0.336,8.22-0.684,5.465,0.624,3.285c0.742-1.376,2.06-2.39,3.606-2.768
		c0.226-0.051,0.451-0.076,0.676-0.076c0.248,0,0.495,0.031,0.734,0.091c0.686,0.173,1.284,0.584,1.694,1.154
		c1.275-1.01,2.854-1.583,4.491-1.623c0.066-0.002,0.132-0.003,0.198-0.003c1.649,0,3.252,0.547,4.559,1.547
		c0.408-0.533,0.976-0.909,1.636-1.076c0.24-0.061,0.487-0.091,0.736-0.091c0.224,0,0.448,0.025,0.664,0.074
		c1.555,0.38,2.877,1.401,3.633,2.8c1.293,2.153,0.27,4.907-0.816,6.836c-0.291,0.522-0.769,0.902-1.347,1.066
		C20.885,11.274,20.677,11.303,20.468,11.303z M18.956,1.94c-0.125,0-0.25,0.015-0.37,0.046c-0.799,0.202-1.288,1.018-1.088,1.818
		c0.565,1.925,1.342,3.811,2.305,5.589c0.072,0.137,0.176,0.244,0.304,0.315c0.112,0.062,0.238,0.095,0.363,0.095
		c0.07,0,0.139-0.01,0.207-0.029c0.193-0.055,0.353-0.182,0.45-0.357c0.893-1.585,1.759-3.799,0.822-5.361
		c-0.569-1.051-1.54-1.805-2.674-2.082C19.176,1.952,19.067,1.94,18.956,1.94z M4.904,1.94c-0.112,0-0.223,0.012-0.331,0.037
		C3.449,2.252,2.482,3,1.927,4.027C0.975,5.616,1.839,7.832,2.73,9.414c0.099,0.178,0.259,0.305,0.452,0.36
		c0.069,0.02,0.138,0.03,0.208,0.03c0.125,0,0.251-0.033,0.363-0.095c0.128-0.071,0.232-0.177,0.3-0.307
		c0.967-1.786,1.745-3.673,2.313-5.612c0.092-0.372,0.033-0.774-0.172-1.117C5.988,2.328,5.661,2.084,5.272,1.986
		C5.153,1.956,5.029,1.94,4.904,1.94z"/>
	<path d="M8.633,11.25c-0.044,0-0.088-0.004-0.131-0.012c-0.513-0.06-0.922-0.47-0.982-0.982c-0.008-0.043-0.012-0.087-0.012-0.131
		s0.004-0.088,0.012-0.131c0.06-0.513,0.47-0.922,0.982-0.982C8.545,9.004,8.589,9,8.633,9s0.088,0.004,0.131,0.012
		c0.513,0.06,0.922,0.47,0.982,0.982c0.008,0.043,0.012,0.087,0.012,0.131s-0.004,0.088-0.012,0.131
		c-0.06,0.513-0.47,0.922-0.982,0.982C8.721,11.246,8.677,11.25,8.633,11.25z"/>
	<path d="M15.383,11.25c-0.044,0-0.088-0.004-0.131-0.011c-0.513-0.06-0.922-0.47-0.983-0.983c-0.007-0.042-0.011-0.086-0.011-0.13
		s0.004-0.088,0.011-0.13c0.06-0.513,0.47-0.923,0.983-0.983C15.295,9.004,15.339,9,15.383,9s0.088,0.004,0.131,0.011
		c0.513,0.06,0.922,0.47,0.982,0.983c0.008,0.042,0.011,0.086,0.011,0.13s-0.004,0.088-0.011,0.13
		c-0.06,0.513-0.469,0.923-0.982,0.983C15.471,11.246,15.427,11.25,15.383,11.25z"/>
</g>
</svg>
