<?xml version="1.0" encoding="utf-8"?>
<!-- Generator: Adobe Illustrator 22.1.0, SVG Export Plug-In . SVG Version: 6.00 Build 0)  -->
<svg version="1.1" id="Regular" xmlns="http://www.w3.org/2000/svg" xmlns:xlink="http://www.w3.org/1999/xlink" x="0px" y="0px"
	 viewBox="0 0 24 24" style="enable-background:new 0 0 24 24;" xml:space="preserve">
<title>dresser</title>
<g>
	<path d="M10.5,16.5c-0.414,0-0.75-0.336-0.75-0.75S10.086,15,10.5,15h3c0.414,0,0.75,0.336,0.75,0.75s-0.336,0.75-0.75,0.75H10.5z"
		/>
	<path d="M21.75,21C21.336,21,21,20.664,21,20.25V19.5H3v0.75C3,20.664,2.664,21,2.25,21S1.5,20.664,1.5,20.25V7.5
		C0.673,7.5,0,6.827,0,6V4.5C0,3.673,0.673,3,1.5,3h21C23.327,3,24,3.673,24,4.5V6c0,0.827-0.673,1.5-1.5,1.5v12.75
		C22.5,20.664,22.164,21,21.75,21z M21,18v-4.5H3V18H21z M21,12V7.5h-8.25V12H21z M11.25,12V7.5H3V12H11.25z M1.5,6h21V4.5h-21V6z"
		/>
	<path d="M6,10.5c-0.414,0-0.75-0.336-0.75-0.75S5.586,9,6,9h2.25C8.664,9,9,9.336,9,9.75S8.664,10.5,8.25,10.5H6z"/>
	<path d="M15.75,10.5c-0.414,0-0.75-0.336-0.75-0.75S15.336,9,15.75,9H18c0.414,0,0.75,0.336,0.75,0.75S18.414,10.5,18,10.5H15.75z"
		/>
</g>
</svg>
