<?xml version="1.0" encoding="utf-8"?>
<!-- Generator: Adobe Illustrator 22.1.0, SVG Export Plug-In . SVG Version: 6.00 Build 0)  -->
<svg version="1.1" id="Regular" xmlns="http://www.w3.org/2000/svg" xmlns:xlink="http://www.w3.org/1999/xlink" x="0px" y="0px"
	 viewBox="0 0 24 24" style="enable-background:new 0 0 24 24;" xml:space="preserve">
<title>dressing-hanger</title>
<g>
	<path d="M23.25,24c-0.414,0-0.75-0.336-0.75-0.75V10.5h-2.25c-0.414,0-0.75-0.336-0.75-0.75S19.836,9,20.25,9h2.25V7.5h-15V9h6.75
		C14.664,9,15,9.336,15,9.75s-0.336,0.75-0.75,0.75H7.5v12.75C7.5,23.664,7.164,24,6.75,24S6,23.664,6,23.25V21H1.5v2.25
		C1.5,23.664,1.164,24,0.75,24S0,23.664,0,23.25v-21C0,1.009,1.009,0,2.25,0h19.5C22.991,0,24,1.009,24,2.25v21
		C24,23.664,23.664,24,23.25,24z M6,19.5v-3H1.5v3H6z M6,15v-3H1.5v3H6z M6,10.5v-3H1.5v3H6z M22.5,6V2.25
		c0-0.414-0.336-0.75-0.75-0.75H2.25C1.836,1.5,1.5,1.836,1.5,2.25V6h1.629C3.044,5.761,3,5.509,3,5.25C3,4.009,4.009,3,5.25,3h7.5
		C13.991,3,15,4.009,15,5.25c0,0.259-0.044,0.511-0.129,0.75H22.5z M5.25,4.5C4.836,4.5,4.5,4.836,4.5,5.25S4.836,6,5.25,6h7.5
		c0.414,0,0.75-0.336,0.75-0.75S13.164,4.5,12.75,4.5H5.25z"/>
	<path d="M12.75,16.5c-0.414,0-0.75-0.336-0.75-0.75c0-2.068,2.019-3.75,4.5-3.75c0.414,0,0.75-0.336,0.75-0.75
		s-0.336-0.75-0.75-0.75s-0.75-0.336-0.75-0.75S16.086,9,16.5,9c1.241,0,2.25,1.009,2.25,2.25c0,0.399-0.104,0.784-0.301,1.123
		C19.995,12.991,21,14.297,21,15.75c0,0.414-0.336,0.75-0.75,0.75H12.75z M19.327,15c-0.418-0.88-1.544-1.5-2.827-1.5
		s-2.409,0.62-2.827,1.5H19.327z"/>
</g>
</svg>
