<?xml version="1.0" encoding="utf-8"?>
<!-- Generator: Adobe Illustrator 22.1.0, SVG Export Plug-In . SVG Version: 6.00 Build 0)  -->
<svg version="1.1" id="Regular" xmlns="http://www.w3.org/2000/svg" xmlns:xlink="http://www.w3.org/1999/xlink" x="0px" y="0px"
	 viewBox="0 0 24 24" style="enable-background:new 0 0 24 24;" xml:space="preserve">
<title>dresser-wardrobe</title>
<g>
	<path d="M19.5,24c-0.414,0-0.75-0.336-0.75-0.75V22.5H5.25v0.75C5.25,23.664,4.914,24,4.5,24s-0.75-0.336-0.75-0.75v-0.879
		c-0.885-0.313-1.5-1.161-1.5-2.121v-18C2.25,1.009,3.259,0,4.5,0h15c1.241,0,2.25,1.009,2.25,2.25v18c0,0.96-0.615,1.808-1.5,2.121
		v0.879C20.25,23.664,19.914,24,19.5,24z M19.5,21c0.414,0,0.75-0.336,0.75-0.75v-18c0-0.414-0.336-0.75-0.75-0.75h-6.75V21H19.5z
		 M4.5,1.5c-0.414,0-0.75,0.336-0.75,0.75v18C3.75,20.664,4.086,21,4.5,21h6.75V1.5H4.5z"/>
	<circle cx="9" cy="11.25" r="1.125"/>
	<circle cx="15" cy="11.25" r="1.125"/>
</g>
</svg>
