<?xml version="1.0" encoding="utf-8"?>
<!-- Generator: Adobe Illustrator 22.1.0, SVG Export Plug-In . SVG Version: 6.00 Build 0)  -->
<svg version="1.1" id="Regular" xmlns="http://www.w3.org/2000/svg" xmlns:xlink="http://www.w3.org/1999/xlink" x="0px" y="0px"
	 viewBox="0 0 24 24" style="enable-background:new 0 0 24 24;" xml:space="preserve">
<title>dresser-drawers-2</title>
<g>
	<path d="M2.25,24C1.009,24,0,22.991,0,21.75V2.25C0,1.009,1.009,0,2.25,0h19.5C22.991,0,24,1.009,24,2.25v19.5
		c0,1.241-1.009,2.25-2.25,2.25H2.25z M21.75,22.5c0.414,0,0.75-0.336,0.75-0.75V13.5h-9.75v9H21.75z M1.5,21.75
		c0,0.414,0.336,0.75,0.75,0.75h9v-9H1.5V21.75z M22.5,12V7.5h-21V12H22.5z M22.5,6V2.25c0-0.414-0.336-0.75-0.75-0.75H2.25
		C1.836,1.5,1.5,1.836,1.5,2.25V6H22.5z"/>
	<path d="M9,19.5c-0.414,0-0.75-0.336-0.75-0.75v-1.5c0-0.414,0.336-0.75,0.75-0.75s0.75,0.336,0.75,0.75v1.5
		C9.75,19.164,9.414,19.5,9,19.5z"/>
	<path d="M15,19.5c-0.414,0-0.75-0.336-0.75-0.75v-1.5c0-0.414,0.336-0.75,0.75-0.75s0.75,0.336,0.75,0.75v1.5
		C15.75,19.164,15.414,19.5,15,19.5z"/>
</g>
</svg>
