<?xml version="1.0" encoding="utf-8"?>
<!-- Generator: Adobe Illustrator 22.1.0, SVG Export Plug-In . SVG Version: 6.00 Build 0)  -->
<svg version="1.1" id="Regular" xmlns="http://www.w3.org/2000/svg" xmlns:xlink="http://www.w3.org/1999/xlink" x="0px" y="0px"
	 viewBox="0 0 24 24" style="enable-background:new 0 0 24 24;" xml:space="preserve">
<title>dresser-wardrobe-drawers</title>
<g>
	<path d="M2.25,23.75C1.009,23.75,0,22.741,0,21.5V2c0-1.241,1.009-2.25,2.25-2.25h19.5C22.991-0.25,24,0.759,24,2v19.5
		c0,1.241-1.009,2.25-2.25,2.25H2.25z M21.75,22.25c0.414,0,0.75-0.336,0.75-0.75v-6.75H12v7.5H21.75z M2.25,1.25
		C1.836,1.25,1.5,1.586,1.5,2v19.5c0,0.414,0.336,0.75,0.75,0.75h8.25v-21H2.25z M22.5,13.25v-3H12v3H22.5z M22.5,8.75v-3H12v3H22.5
		z M22.5,4.25V2c0-0.414-0.336-0.75-0.75-0.75H12v3H22.5z"/>
	<path d="M8.25,13.25c-0.414,0-0.75-0.336-0.75-0.75V11c0-0.414,0.336-0.75,0.75-0.75S9,10.586,9,11v1.5
		C9,12.914,8.664,13.25,8.25,13.25z"/>
	<path d="M15.75,17.75C15.336,17.75,15,17.414,15,17s0.336-0.75,0.75-0.75h3c0.414,0,0.75,0.336,0.75,0.75s-0.336,0.75-0.75,0.75
		H15.75z"/>
</g>
</svg>
