<?xml version="1.0" encoding="utf-8"?>
<!-- Generator: Adobe Illustrator 22.1.0, SVG Export Plug-In . SVG Version: 6.00 Build 0)  -->
<svg version="1.1" id="Regular" xmlns="http://www.w3.org/2000/svg" xmlns:xlink="http://www.w3.org/1999/xlink" x="0px" y="0px"
	 viewBox="0 0 24 24" style="enable-background:new 0 0 24 24;" xml:space="preserve">
<title>dress</title>
<g>
	<path d="M6,24c-0.827,0-1.5-0.673-1.5-1.5v-6c0-2.268,1.444-4.112,2.765-5.323c-1.707-2.205-1.669-5.38,0.139-7.534
		C7.433,3.608,7.465,3.577,7.5,3.548V0.75C7.5,0.336,7.836,0,8.25,0S9,0.336,9,0.75v3.355c0.823,0.74,1.881,1.145,2.995,1.145
		c1.123,0,2.181-0.406,3.005-1.145V0.75C15,0.336,15.336,0,15.75,0s0.75,0.336,0.75,0.75v2.798c0.034,0.028,0.066,0.06,0.095,0.094
		c1.809,2.154,1.847,5.328,0.14,7.534c1.321,1.21,2.765,3.052,2.765,5.324v6c0,0.827-0.673,1.5-1.5,1.5H6z M8.597,12
		C7.74,12.734,6,14.473,6,16.5v6h12v-6c0-2.031-1.74-3.768-2.597-4.5H8.597z M15.354,10.5c1.285-1.436,1.502-3.542,0.567-5.207
		c-1.086,0.943-2.46,1.457-3.916,1.457c-1.465,0-2.839-0.514-3.926-1.457C7.144,6.958,7.361,9.064,8.646,10.5H15.354z"/>
</g>
</svg>
