<?xml version="1.0" encoding="utf-8"?>
<!-- Generator: Adobe Illustrator 22.1.0, SVG Export Plug-In . SVG Version: 6.00 Build 0)  -->
<svg version="1.1" id="Regular" xmlns="http://www.w3.org/2000/svg" xmlns:xlink="http://www.w3.org/1999/xlink" x="0px" y="0px"
	 viewBox="0 0 24 24" style="enable-background:new 0 0 24 24;" xml:space="preserve">
<title>dressing-hanging-rack-1</title>
<g>
	<path d="M0.75,24C0.336,24,0,23.664,0,23.25s0.336-0.75,0.75-0.75h9.75v-9.439l-1.5-1.5V16.5c0,0.414-0.336,0.75-0.75,0.75
		S7.5,16.914,7.5,16.5V15H5.25C4.009,15,3,13.991,3,12.75v-3C3,8.509,4.009,7.5,5.25,7.5H7.5V6c0-0.414,0.336-0.75,0.75-0.75
		S9,5.586,9,6v3.439l1.5,1.5V3c0-1.654,1.346-3,3-3c1.654,0,3,1.346,3,3v1.939l1.72-1.72C18.361,3.078,18.55,3,18.75,3
		s0.389,0.078,0.53,0.22c0.142,0.141,0.22,0.33,0.22,0.53s-0.078,0.389-0.22,0.53l-2.78,2.78V22.5h6.75
		c0.414,0,0.75,0.336,0.75,0.75S23.664,24,23.25,24H0.75z M15,22.5V3c0-0.827-0.673-1.5-1.5-1.5S12,2.173,12,3v19.5H15z M5.25,9
		C4.836,9,4.5,9.336,4.5,9.75v3c0,0.414,0.336,0.75,0.75,0.75H7.5V9H5.25z"/>
</g>
</svg>
