<?xml version="1.0" encoding="utf-8"?>
<!-- Generator: Adobe Illustrator 22.1.0, SVG Export Plug-In . SVG Version: 6.00 Build 0)  -->
<svg version="1.1" id="Regular" xmlns="http://www.w3.org/2000/svg" xmlns:xlink="http://www.w3.org/1999/xlink" x="0px" y="0px"
	 viewBox="0 0 24 24" style="enable-background:new 0 0 24 24;" xml:space="preserve">
<title>dresser-drawers-4</title>
<g>
	<path d="M19.5,24c-0.414,0-0.75-0.336-0.75-0.75V22.5H5.25v0.75C5.25,23.664,4.914,24,4.5,24s-0.75-0.336-0.75-0.75v-0.768
		c-0.847-0.122-1.5-0.852-1.5-1.732V1.5H1.5c-0.414,0-0.75-0.336-0.75-0.75S1.086,0,1.5,0h21c0.414,0,0.75,0.336,0.75,0.75
		S22.914,1.5,22.5,1.5h-0.75v19.25c0,0.88-0.653,1.611-1.5,1.732v0.768C20.25,23.664,19.914,24,19.5,24z M20,21
		c0.138,0,0.25-0.112,0.25-0.25V13.5h-7.5V21H20z M3.75,20.75C3.75,20.888,3.862,21,4,21h7.25v-7.5h-7.5V20.75z M20.25,12V7.5H3.75
		V12H20.25z M20.25,6V1.5H3.75V6H20.25z"/>
	<path d="M10.5,10.5c-0.414,0-0.75-0.336-0.75-0.75S10.086,9,10.5,9h3c0.414,0,0.75,0.336,0.75,0.75s-0.336,0.75-0.75,0.75H10.5z"/>
	<path d="M10.5,4.5c-0.414,0-0.75-0.336-0.75-0.75S10.086,3,10.5,3h3c0.414,0,0.75,0.336,0.75,0.75S13.914,4.5,13.5,4.5H10.5z"/>
	<path d="M6.75,16.5C6.336,16.5,6,16.164,6,15.75S6.336,15,6.75,15h1.5C8.664,15,9,15.336,9,15.75S8.664,16.5,8.25,16.5H6.75z"/>
	<path d="M15.75,16.5c-0.414,0-0.75-0.336-0.75-0.75S15.336,15,15.75,15h1.5c0.414,0,0.75,0.336,0.75,0.75s-0.336,0.75-0.75,0.75
		H15.75z"/>
</g>
</svg>
