<?xml version="1.0" encoding="utf-8"?>
<!-- Generator: Adobe Illustrator 22.1.0, SVG Export Plug-In . SVG Version: 6.00 Build 0)  -->
<svg version="1.1" id="Layer_1" xmlns="http://www.w3.org/2000/svg" xmlns:xlink="http://www.w3.org/1999/xlink" x="0px" y="0px"
	 viewBox="0 0 24 24" style="enable-background:new 0 0 24 24;" xml:space="preserve">
<title>drone-remote</title>
<g>
	<path d="M18.75,15C18.336,15,18,14.664,18,14.25s0.336-0.75,0.75-0.75h1.336c0.052,0,0.107-0.007,0.163-0.02
		c0.199-0.046,0.368-0.167,0.476-0.341c0.108-0.173,0.142-0.379,0.095-0.577c-0.411-1.725-1.395-3.271-2.781-4.379
		c-0.21,0.149-0.398,0.314-0.562,0.494c-0.162,0.191-0.361,0.389-0.567,0.565c-0.358,0.306-0.753,0.56-1.178,0.759
		c0.489,0.546,0.769,1.258,0.769,2c0,1.654-1.346,3-3,3c-1.654,0-3-1.346-3-3c0-0.742,0.28-1.455,0.771-2.001
		c-0.676-0.315-1.277-0.772-1.763-1.341C9.354,8.49,9.172,8.331,8.968,8.185c-0.899,0.728-1.646,1.643-2.172,2.659
		c-0.129,0.25-0.385,0.406-0.667,0.406c-0.119,0-0.238-0.029-0.344-0.084c-0.367-0.19-0.512-0.643-0.322-1.011
		c0.497-0.961,1.167-1.852,1.959-2.609C7.23,7.515,7.037,7.499,6.843,7.499L6.757,7.5l-1.507,0C4.009,7.5,3,6.491,3,5.25
		S4.009,3,5.25,3h1.488C6.782,3.001,6.816,3.002,6.85,3.002c1.016,0,1.991-0.429,2.674-1.178c0.161-0.189,0.36-0.388,0.567-0.564
		c0.95-0.811,2.159-1.258,3.403-1.258c0.139,0,0.278,0.005,0.418,0.016c1.398,0.11,2.67,0.758,3.581,1.824
		c0.67,0.734,1.639,1.16,2.651,1.16c0.033,0,0.066,0,0.098-0.001l1.508,0C22.991,3,24,4.009,24,5.25S22.991,7.5,21.75,7.5h-1.488
		l-0.1-0.001c-0.191,0-0.383,0.016-0.574,0.047c1.322,1.259,2.268,2.894,2.692,4.672c0.138,0.592,0.038,1.2-0.281,1.714
		c-0.32,0.514-0.82,0.872-1.409,1.01c-0.164,0.038-0.332,0.058-0.498,0.059c-0.001,0-0.002,0-0.003,0H18.75z M13.5,10.5
		c-0.827,0-1.5,0.673-1.5,1.5s0.673,1.5,1.5,1.5S15,12.827,15,12S14.327,10.5,13.5,10.5z M9.37,6.661
		c0.475,0.269,0.9,0.607,1.262,1.004c0.664,0.777,1.575,1.243,2.573,1.321c0.1,0.008,0.2,0.012,0.299,0.012
		c0.902,0,1.742-0.311,2.43-0.898c0.149-0.127,0.289-0.267,0.417-0.417c0.375-0.411,0.801-0.751,1.273-1.019
		c0.067-0.049,0.143-0.088,0.223-0.113c0.719-0.362,1.516-0.553,2.308-0.553c0.042,0,0.083,0,0.125,0.002l1.469,0
		c0.414,0,0.75-0.336,0.75-0.75S22.164,4.5,21.75,4.5h-1.488c-0.037,0.001-0.084,0.002-0.132,0.002
		c-1.424,0-2.796-0.608-3.762-1.667c-0.664-0.777-1.575-1.243-2.573-1.321c-0.101-0.008-0.201-0.012-0.302-0.012
		c-0.9,0-1.74,0.311-2.428,0.899c-0.149,0.128-0.289,0.268-0.416,0.416C9.669,3.891,8.288,4.501,6.85,4.501
		c-0.044,0-0.088-0.001-0.132-0.002l-1.468,0C4.836,4.5,4.5,4.836,4.5,5.25S4.836,6,5.25,6h1.488
		c0.036-0.001,0.081-0.002,0.126-0.002c0.788,0,1.584,0.193,2.303,0.559C9.24,6.581,9.308,6.616,9.37,6.661z"/>
	<path d="M3.75,1.5C3.336,1.5,3,1.164,3,0.75S3.336,0,3.75,0h3C7.164,0,7.5,0.336,7.5,0.75S7.164,1.5,6.75,1.5H3.75z"/>
	<path d="M20.25,1.5c-0.414,0-0.75-0.336-0.75-0.75S19.836,0,20.25,0h3C23.664,0,24,0.336,24,0.75S23.664,1.5,23.25,1.5H20.25z"/>
	<path d="M2.25,24C1.009,24,0,22.991,0,21.75v-6c0-1.241,1.009-2.25,2.25-2.25h3c1.241,0,2.25,1.009,2.25,2.25v6
		C7.5,22.991,6.491,24,5.25,24H2.25z M2.25,15c-0.414,0-0.75,0.336-0.75,0.75v6c0,0.414,0.336,0.75,0.75,0.75h3
		C5.664,22.5,6,22.164,6,21.75v-6C6,15.336,5.664,15,5.25,15H2.25z"/>
	<circle cx="3.75" cy="20.25" r="1.125"/>
</g>
</svg>
