<?xml version="1.0" encoding="utf-8"?>
<!-- Generator: Adobe Illustrator 22.1.0, SVG Export Plug-In . SVG Version: 6.00 Build 0)  -->
<svg version="1.1" id="Regular" xmlns="http://www.w3.org/2000/svg" xmlns:xlink="http://www.w3.org/1999/xlink" x="0px" y="0px"
	 viewBox="0 0 24 24" style="enable-background:new 0 0 24 24;" xml:space="preserve">
<title>duck-water</title>
<g>
	<path d="M19.5,24.128c-0.977,0-1.706-0.486-2.291-0.876c-0.503-0.335-0.936-0.624-1.459-0.624s-0.956,0.289-1.458,0.624
		c-0.586,0.391-1.314,0.876-2.292,0.876c-0.977,0-1.706-0.486-2.291-0.876c-0.502-0.335-0.936-0.624-1.459-0.624
		s-0.957,0.289-1.459,0.624c-0.585,0.39-1.314,0.876-2.291,0.876s-1.706-0.486-2.291-0.876c-0.502-0.335-0.936-0.624-1.459-0.624
		c-0.414,0-0.75-0.336-0.75-0.75s0.336-0.75,0.75-0.75c0.977,0,1.706,0.486,2.291,0.876c0.502,0.335,0.936,0.624,1.459,0.624
		s0.957-0.289,1.459-0.624c0.585-0.39,1.314-0.876,2.291-0.876s1.706,0.486,2.291,0.876c0.502,0.335,0.936,0.624,1.459,0.624
		c0.523,0,0.956-0.289,1.458-0.624c0.586-0.391,1.314-0.876,2.292-0.876s1.706,0.486,2.291,0.876
		c0.503,0.335,0.936,0.624,1.459,0.624s0.956-0.289,1.458-0.624c0.586-0.391,1.314-0.876,2.292-0.876c0.414,0,0.75,0.336,0.75,0.75
		s-0.336,0.75-0.75,0.75c-0.523,0-0.956,0.289-1.458,0.624C21.206,23.643,20.477,24.128,19.5,24.128z"/>
	<path d="M20.25,20.378c-0.096,0-0.19-0.018-0.279-0.054c-0.186-0.074-0.332-0.217-0.41-0.401c-0.079-0.184-0.082-0.388-0.007-0.574
		c1.316-3.291,0.86-3.747-1.333-5.941c-1.175-1.175-2.036-2.784-2.362-4.415c-0.348-1.74-0.034-3.251,0.861-4.146
		c0.622-0.623,1.382-0.938,2.259-0.938c0.444,0,0.915,0.083,1.406,0.248c0.104-0.281,0.294-0.945,0.022-1.497
		c-0.249-0.505-0.855-0.857-1.803-1.046c-0.337-0.067-0.665-0.101-0.974-0.101c-0.851,0-1.598,0.259-2.221,0.77
		C14.177,3.291,13.5,5.19,13.5,7.628c-0.036,2.498,0.448,4.919,1.438,7.202c0.08,0.184,0.083,0.387,0.01,0.574
		c-0.073,0.187-0.215,0.333-0.399,0.413c-0.094,0.041-0.194,0.062-0.298,0.062c-0.299,0-0.569-0.177-0.688-0.452
		c-0.15-0.345-0.294-0.714-0.451-1.155l-0.015-0.011c-1.017-0.577-2.165-0.883-3.322-0.883c-0.58,0-1.162,0.076-1.73,0.225
		c-1.083,0.231-1.939,0.758-2.767,1.266c-0.923,0.567-1.877,1.152-2.965,1.152c-0.098,0-0.195-0.005-0.293-0.014
		c-0.206,1.158,0.335,2.37,1.362,2.974c0.173,0.102,0.296,0.264,0.346,0.458c0.05,0.194,0.022,0.396-0.079,0.569
		c-0.134,0.228-0.382,0.37-0.647,0.37c-0.134,0-0.265-0.036-0.38-0.104c-1.869-1.099-2.647-3.436-1.812-5.436
		c0.117-0.28,0.388-0.461,0.692-0.461c0.086,0,0.17,0.015,0.251,0.043c0.188,0.067,0.371,0.099,0.56,0.099
		c0.668,0,1.335-0.41,2.179-0.928c0.895-0.55,1.907-1.171,3.207-1.447c0.666-0.176,1.369-0.267,2.072-0.267
		c0.95,0,1.878,0.162,2.768,0.483c-0.38-1.554-0.56-3.146-0.537-4.743c0-2.888,0.873-5.196,2.457-6.495
		c0.885-0.725,1.986-1.108,3.186-1.108c0.406,0,0.828,0.043,1.254,0.129c1.433,0.286,2.394,0.913,2.858,1.861
		c0.561,1.147,0.177,2.341-0.008,2.789c1.161,0.686,1.996,1.517,2.033,1.555C23.922,6.49,24,6.678,24,6.878s-0.078,0.389-0.22,0.53
		c-0.141,0.141-0.329,0.22-0.53,0.22c-0.2,0-0.388-0.078-0.53-0.219c-0.02-0.019-2.032-1.995-3.729-1.995
		c-0.482,0-0.877,0.162-1.21,0.495c-0.519,0.519-0.692,1.589-0.451,2.791c0.27,1.348,0.981,2.678,1.951,3.648
		c2.3,2.3,3.35,3.35,1.666,7.559C20.832,20.193,20.559,20.378,20.25,20.378z"/>
	<path d="M10.647,19.747c-1.77,0-2.855-0.625-3.453-1.148c-0.901-0.788-1.146-1.689-1.171-1.789
		c-0.049-0.194-0.019-0.396,0.084-0.568c0.103-0.172,0.267-0.293,0.461-0.342c0.06-0.015,0.121-0.022,0.182-0.022
		c0.343,0,0.641,0.232,0.726,0.564c0.019,0.072,0.503,1.806,3.159,1.806c0,0,0,0,0,0c0.385,0,0.803-0.037,1.241-0.11
		c0.042-0.007,0.083-0.01,0.123-0.01c0.368,0,0.679,0.263,0.74,0.626c0.033,0.198-0.013,0.396-0.129,0.559
		c-0.116,0.163-0.29,0.271-0.487,0.304C11.61,19.704,11.113,19.747,10.647,19.747z"/>
</g>
</svg>
