<?xml version="1.0" encoding="utf-8"?>
<!-- Generator: Adobe Illustrator 22.1.0, SVG Export Plug-In . SVG Version: 6.00 Build 0)  -->
<svg version="1.1" id="Layer_1" xmlns="http://www.w3.org/2000/svg" xmlns:xlink="http://www.w3.org/1999/xlink" x="0px" y="0px"
	 viewBox="0 0 24 24" style="enable-background:new 0 0 24 24;" xml:space="preserve">
<title>e-commerce-cart-browser</title>
<g>
	<path d="M18,22.5c-0.414,0-0.75-0.336-0.75-0.75S17.586,21,18,21h3.75c0.414,0,0.75-0.336,0.75-0.75V7.5h-21v12.634
		C1.501,20.61,1.89,20.999,2.367,21H6c0.414,0,0.75,0.336,0.75,0.75S6.414,22.5,6,22.5H2.365C1.064,22.496,0.003,21.435,0,20.136
		V3.857C0.004,2.561,1.06,1.504,2.355,1.5h19.279C22.935,1.503,23.996,2.563,24,3.863V20.25c0,1.241-1.009,2.25-2.25,2.25H18z
		 M22.5,6V3.865C22.499,3.39,22.109,3.001,21.632,3H2.357C1.886,3.002,1.501,3.387,1.5,3.859V6H22.5z"/>
	<path d="M9,18.75c-0.323,0-0.609-0.206-0.711-0.513l-1.5-4.5c-0.076-0.228-0.038-0.481,0.103-0.676
		c0.14-0.195,0.368-0.311,0.608-0.311h8.292l0.74-2.466C16.626,9.97,16.921,9.75,17.25,9.75c0.073,0,0.146,0.011,0.216,0.032
		c0.191,0.057,0.35,0.186,0.445,0.363c0.095,0.177,0.115,0.379,0.058,0.571l-2.25,7.5c-0.096,0.32-0.385,0.535-0.718,0.535H9z
		 M14.442,17.25l0.9-3H8.541l1,3H14.442z"/>
	<circle cx="9.375" cy="20.625" r="1.125"/>
	<circle cx="14.625" cy="20.625" r="1.125"/>
</g>
</svg>
