<svg id="Outline_Version" data-name="Outline Version" xmlns="http://www.w3.org/2000/svg" viewBox="0 0 24 24"><title>e-commerce-app-store</title><path d="M6,19.12a1.28,1.28,0,0,0,1.1-.64l5.2-9.07a1.27,1.27,0,0,0-.47-1.73L10.5,6.91a1.27,1.27,0,0,0-1.74.47l-5.2,9.06A1.27,1.27,0,0,0,4,18.17l1.35.78A1.26,1.26,0,0,0,6,19.12ZM10,8.32l1,.55-5,8.67L5,17Z"/><path d="M2.21,22.5a.87.87,0,0,0,.46.13,1.08,1.08,0,0,0,.6-.2l1.52-1a1,1,0,0,0-.07-1.75L3.55,19A1,1,0,0,0,2,19.75l-.2,1.78A1,1,0,0,0,2.21,22.5Z"/><path d="M20.36,15.29C14.94,3.84,13.05,1.29,11.89,1A1.07,1.07,0,0,0,11,1.1a1.4,1.4,0,0,0-.51,1.36C10.68,5.3,17,18.12,18.1,18.69a1.68,1.68,0,0,0,1.64,0l.1,0A2.08,2.08,0,0,0,21,17.54a1.42,1.42,0,0,0-.1-1.16C20.83,16.27,20.65,15.88,20.36,15.29Zm-1.1,2-.12.05-.18.07-.09,0c-1.19-1.45-6-11.23-6.79-14.41C13,4.15,15,7.39,19,15.93c.28.6.48,1,.55,1.14A.79.79,0,0,1,19.26,17.3Z"/><path d="M20.46,19.92a1.32,1.32,0,0,0-.24,2,2.45,2.45,0,0,0,1,.74l.18.09a.75.75,0,0,0,.63.35h.07a.75.75,0,0,0,.68-.65c.08-.62.17-2.12-.69-2.66a1.37,1.37,0,0,0-1.55.11Z"/><path d="M10.81,15.37H13.9a.75.75,0,0,0,0-1.5H10.81a.75.75,0,1,0,0,1.5Z"/><path d="M4.88,11.45a.75.75,0,1,0,0-1.5H.75A.75.75,0,0,0,0,10.7v3.91a.75.75,0,0,0,.75.75H3.2a.75.75,0,0,0,0-1.5H1.5V11.45Z"/><path d="M23.25,10H19.68a.75.75,0,0,0,0,1.5H22.5v2.41h-1a.75.75,0,0,0,0,1.5h1.78a.75.75,0,0,0,.75-.75V10.7A.75.75,0,0,0,23.25,10Z"/></svg>