<?xml version="1.0" encoding="utf-8"?>
<!-- Generator: Adobe Illustrator 22.1.0, SVG Export Plug-In . SVG Version: 6.00 Build 0)  -->
<svg version="1.1" id="Layer_1" xmlns="http://www.w3.org/2000/svg" xmlns:xlink="http://www.w3.org/1999/xlink" x="0px" y="0px"
	 viewBox="0 0 24 24" style="enable-background:new 0 0 24 24;" xml:space="preserve">
<title>e-commerce-open-basket</title>
<g>
	<path d="M3.75,6C3.337,6,3,5.664,3,5.251c-0.001-0.773,0.3-1.5,0.846-2.049C4.393,2.654,5.12,2.351,5.893,2.35c0,0,0,0,0,0
		c0.206,0,0.373,0.166,0.375,0.372l0.007,0.75c0.001,0.1-0.038,0.196-0.109,0.267S6,3.85,5.901,3.85
		C5.526,3.851,5.173,3.997,4.909,4.261C4.644,4.526,4.499,4.876,4.5,5.249c0,0.2-0.078,0.389-0.219,0.531
		C4.139,5.922,3.951,6,3.75,6C3.751,6,3.751,6,3.75,6z"/>
	<path d="M0.75,5.437C0.336,5.437,0,5.101,0,4.687C0,2.103,2.102,0,4.687,0c0.414,0,0.75,0.336,0.75,0.75S5.101,1.5,4.687,1.5
		C2.93,1.5,1.5,2.93,1.5,4.687C1.5,5.101,1.164,5.437,0.75,5.437z"/>
	<path d="M7.673,17.25c-0.925,0-1.728-0.623-1.957-1.515L3.822,9.272C3.688,8.729,3.769,8.185,4.046,7.723
		c0.277-0.461,0.717-0.786,1.239-0.915C5.443,6.77,5.597,6.76,5.734,6.752c0.008,0,0.03-0.002,0.037-0.002h2.626l0.698-3.162
		C9.171,3.247,9.479,3,9.828,3C9.882,3,9.937,3.006,9.99,3.018c0.195,0.043,0.363,0.16,0.47,0.329c0.108,0.169,0.143,0.37,0.1,0.565
		L9.934,6.75h5.632l-0.627-2.838c-0.089-0.404,0.167-0.805,0.57-0.894C15.563,3.006,15.618,3,15.671,3
		c0.354,0,0.655,0.242,0.732,0.588l0.699,3.162h1.878c0.542,0.004,1.045,0.209,1.419,0.578c0.382,0.377,0.594,0.88,0.598,1.416
		c0.001,0.167-0.019,0.334-0.059,0.496l-0.32,1.087c-0.093,0.317-0.389,0.538-0.719,0.538c-0.072,0-0.143-0.01-0.211-0.03
		c-0.397-0.117-0.625-0.535-0.508-0.932l0.311-1.055c0-0.003,0.006-0.047,0.006-0.094c-0.002-0.279-0.23-0.505-0.509-0.505
		c0,0-13.222,0-13.224,0c-0.048,0-0.082,0.005-0.121,0.015C5.512,8.297,5.4,8.379,5.329,8.496C5.259,8.613,5.238,8.75,5.27,8.882
		l1.891,6.455c0.065,0.252,0.268,0.413,0.507,0.413H10.5c0.414,0,0.75,0.336,0.75,0.75s-0.336,0.75-0.75,0.75H7.673z"/>
	<path d="M23.135,24c-0.022,0-0.044-0.001-0.066-0.003c-0.2-0.018-0.381-0.112-0.51-0.266c-0.129-0.154-0.19-0.348-0.172-0.548
		l0.1-1.122c0.102-1.125-0.651-2.157-1.752-2.402l-4.172-0.928c-0.346-0.077-0.587-0.378-0.587-0.732v-6
		c0-0.414-0.336-0.75-0.75-0.75s-0.75,0.336-0.75,0.75v9.75c0,0.286-0.159,0.543-0.415,0.671c-0.103,0.052-0.219,0.079-0.335,0.079
		c-0.162,0-0.322-0.053-0.451-0.151l-1.7-1.278c-0.136-0.103-0.298-0.156-0.468-0.156c-0.037,0-0.075,0.002-0.113,0.008
		c-0.206,0.029-0.389,0.137-0.515,0.304c-0.208,0.277-0.208,0.663,0,0.939l0.475,0.634c0.248,0.331,0.18,0.802-0.151,1.05
		c-0.131,0.098-0.287,0.15-0.45,0.15c-0.235,0-0.46-0.112-0.6-0.301l-0.474-0.633c-0.606-0.806-0.605-1.933,0.001-2.74
		c0.366-0.487,0.9-0.803,1.503-0.889c0.108-0.015,0.217-0.023,0.325-0.023c0.495,0,0.968,0.158,1.367,0.458l0.5,0.376V12
		c0-1.241,1.009-2.25,2.25-2.25s2.25,1.009,2.25,2.25v5.398l3.585,0.798c1.835,0.408,3.091,2.127,2.921,4l-0.1,1.121
		C23.847,23.706,23.526,24,23.135,24z"/>
</g>
</svg>
