<?xml version="1.0" encoding="utf-8"?>
<!-- Generator: Adobe Illustrator 22.1.0, SVG Export Plug-In . SVG Version: 6.00 Build 0)  -->
<svg version="1.1" id="Layer_1" xmlns="http://www.w3.org/2000/svg" xmlns:xlink="http://www.w3.org/1999/xlink" x="0px" y="0px"
	 viewBox="0 0 24 24" style="enable-background:new 0 0 24 24;" xml:space="preserve">
<title>e-commerce-cart-monitor-keyboard</title>
<g>
	<path d="M3.75,15c-1.241,0-2.25-1.009-2.25-2.25V2.25C1.5,1.009,2.509,0,3.75,0H6c0.414,0,0.75,0.336,0.75,0.75S6.414,1.5,6,1.5
		H3.75C3.336,1.5,3,1.836,3,2.25v10.5c0,0.414,0.336,0.75,0.75,0.75h16.5c0.414,0,0.75-0.336,0.75-0.75V2.25
		c0-0.414-0.336-0.75-0.75-0.75H19.5c-0.414,0-0.75-0.336-0.75-0.75S19.086,0,19.5,0h0.75c1.241,0,2.25,1.009,2.25,2.25v10.5
		c0,1.241-1.009,2.25-2.25,2.25H3.75z"/>
	<path d="M3.96,24c-0.401,0-0.778-0.156-1.061-0.44c-0.283-0.283-0.439-0.66-0.439-1.061c0-0.122,0.015-0.244,0.045-0.363l1.125-4.5
		C3.797,16.967,4.395,16.5,5.085,16.5h13.829c0.689,0.001,1.288,0.468,1.456,1.135l1.125,4.501c0.097,0.391,0.036,0.794-0.171,1.137
		c-0.206,0.343-0.534,0.585-0.924,0.682C20.281,23.985,20.159,24,20.039,24H3.96z M3.961,22.5l16.078,0L18.915,18l-13.83,0
		L3.961,22.5z"/>
	<path d="M6.75,21C6.336,21,6,20.664,6,20.25s0.336-0.75,0.75-0.75h1.5C8.664,19.5,9,19.836,9,20.25S8.664,21,8.25,21H6.75z"/>
	<path d="M15.75,21C15.336,21,15,20.664,15,20.25s0.336-0.75,0.75-0.75h1.5c0.414,0,0.75,0.336,0.75,0.75S17.664,21,17.25,21H15.75z
		"/>
	<path d="M11.25,21c-0.414,0-0.75-0.336-0.75-0.75s0.336-0.75,0.75-0.75h1.5c0.414,0,0.75,0.336,0.75,0.75S13.164,21,12.75,21H11.25
		z"/>
	<path d="M8.25,9C7.927,9,7.641,8.794,7.538,8.487l-1.5-4.5C5.962,3.759,6.001,3.506,6.142,3.311C6.282,3.116,6.51,3,6.75,3h8.292
		l0.74-2.466C15.876,0.22,16.171,0,16.5,0c0.073,0,0.146,0.011,0.215,0.032c0.191,0.057,0.35,0.186,0.445,0.363
		c0.095,0.177,0.115,0.379,0.058,0.571l-2.25,7.5C14.872,8.785,14.584,9,14.25,9H8.25z M13.692,7.5l0.9-3H7.791l1,3H13.692z"/>
	<circle cx="8.625" cy="10.875" r="1.125"/>
	<circle cx="13.875" cy="10.875" r="1.125"/>
</g>
</svg>
