<?xml version="1.0" encoding="utf-8"?>
<!-- Generator: Adobe Illustrator 22.1.0, SVG Export Plug-In . SVG Version: 6.00 Build 0)  -->
<svg version="1.1" id="Layer_1" xmlns="http://www.w3.org/2000/svg" xmlns:xlink="http://www.w3.org/1999/xlink" x="0px" y="0px"
	 viewBox="0 0 24 24" style="enable-background:new 0 0 24 24;" xml:space="preserve">
<title>e-commerce-shopping-bag-browser</title>
<g>
	<path d="M13.463,24c-0.067-0.003-0.108-0.007-0.148-0.012c-0.833-0.118-1.413-0.887-1.296-1.714l0.997-8.139
		c0.049-0.745,0.666-1.346,1.433-1.377c0,0,7.11,0,7.116,0c0.764,0.033,1.379,0.634,1.429,1.397l0.997,8.131
		c0.004,0.034,0.009,0.076,0.011,0.117c0.044,0.835-0.599,1.551-1.433,1.595L13.479,24C13.474,24,13.469,24,13.463,24z
		 M14.506,14.302l-1,8.167c-0.003,0.022,0.004,0.031,0.012,0.032L22.49,22.5c0.003-0.008,0.012-0.026,0.011-0.027l-1-8.167
		c-0.002-0.019-0.003-0.034-0.004-0.049l-6.986,0.001L14.506,14.302z"/>
	<path d="M18,18.75c-1.249-0.003-2.331-0.893-2.574-2.117c-0.08-0.405,0.184-0.801,0.589-0.882c0.049-0.01,0.098-0.014,0.146-0.014
		c0.356,0,0.666,0.254,0.736,0.603c0.104,0.526,0.569,0.908,1.105,0.91c0.538,0,1.004-0.385,1.106-0.915
		c0.068-0.352,0.377-0.607,0.736-0.607c0.047,0,0.094,0.004,0.142,0.013c0.198,0.038,0.368,0.151,0.48,0.317
		c0.112,0.166,0.153,0.366,0.115,0.562C20.342,17.854,19.257,18.75,18,18.75C18,18.75,18,18.75,18,18.75z"/>
	<path d="M2.357,21C1.053,20.996-0.004,19.934,0,18.632V2.365c-0.002-0.629,0.243-1.222,0.687-1.669
		C1.132,0.249,1.725,0.002,2.355,0h19.288c0.631,0.002,1.223,0.249,1.669,0.696c0.445,0.447,0.69,1.041,0.688,1.671V10.5
		c0,0.414-0.336,0.75-0.75,0.75s-0.75-0.336-0.75-0.75V6h-21v12.634c-0.001,0.231,0.088,0.448,0.251,0.612
		c0.162,0.163,0.378,0.254,0.607,0.254H9c0.414,0,0.75,0.336,0.75,0.75S9.414,21,9,21H2.357z M22.5,4.5V2.365
		c0.001-0.476-0.384-0.864-0.859-0.865H2.358C2.129,1.501,1.913,1.591,1.751,1.754S1.499,2.133,1.5,2.363V4.5H22.5z"/>
	<path d="M7.125,17.25c-0.414,0-0.75-0.336-0.75-0.75h-0.75c-0.414,0-0.75-0.336-0.75-0.75S5.211,15,5.625,15h2.031
		c0.245,0,0.461-0.146,0.551-0.372c0.059-0.147,0.057-0.308-0.006-0.453c-0.062-0.145-0.177-0.258-0.324-0.316l-2.064-0.825
		c-0.797-0.32-1.312-1.082-1.313-1.94c0-0.559,0.217-1.084,0.612-1.48C5.456,9.27,5.898,9.06,6.375,9.011V9
		c0-0.414,0.336-0.75,0.75-0.75S7.875,8.586,7.875,9h0.75c0.414,0,0.75,0.336,0.75,0.75s-0.336,0.75-0.75,0.75H6.592
		c-0.158,0-0.306,0.062-0.418,0.174c-0.112,0.112-0.173,0.26-0.173,0.419c0,0.243,0.146,0.458,0.371,0.549l2.063,0.825
		c0.519,0.207,0.926,0.604,1.146,1.118c0.22,0.514,0.227,1.082,0.019,1.601c-0.292,0.731-0.955,1.225-1.725,1.304V16.5
		C7.875,16.914,7.539,17.25,7.125,17.25z"/>
</g>
</svg>
