<?xml version="1.0" encoding="utf-8"?>
<!-- Generator: Adobe Illustrator 22.1.0, SVG Export Plug-In . SVG Version: 6.00 Build 0)  -->
<svg version="1.1" id="Layer_1" xmlns="http://www.w3.org/2000/svg" xmlns:xlink="http://www.w3.org/1999/xlink" x="0px" y="0px"
	 viewBox="0 0 24 24" style="enable-background:new 0 0 24 24;" xml:space="preserve">
<title>e-commerce-touch-buy</title>
<g>
	<path d="M23.023,24c-0.022,0-0.044-0.001-0.066-0.003c-0.2-0.018-0.381-0.112-0.51-0.266c-0.129-0.154-0.19-0.348-0.172-0.548
		l0.1-1.122c0.102-1.125-0.651-2.157-1.753-2.402l-4.172-0.928c-0.346-0.077-0.587-0.378-0.587-0.732v-6
		c0-0.414-0.336-0.75-0.75-0.75s-0.75,0.336-0.75,0.75v9.75c0,0.286-0.159,0.543-0.415,0.671c-0.103,0.052-0.219,0.079-0.335,0.079
		c-0.162,0-0.322-0.053-0.451-0.151l-1.7-1.278c-0.136-0.102-0.298-0.156-0.467-0.156c-0.037,0-0.075,0.002-0.113,0.008
		c-0.206,0.029-0.389,0.137-0.515,0.304c-0.208,0.277-0.208,0.663,0,0.939l0.475,0.634c0.248,0.331,0.18,0.802-0.151,1.05
		C10.561,23.948,10.406,24,10.242,24c-0.235,0-0.46-0.112-0.601-0.301l-0.474-0.633c-0.606-0.806-0.605-1.933,0.001-2.74
		c0.366-0.487,0.9-0.803,1.503-0.889c0.108-0.015,0.217-0.023,0.325-0.023c0.495,0,0.968,0.158,1.367,0.458l0.5,0.375V12
		c0-1.241,1.009-2.25,2.25-2.25s2.25,1.009,2.25,2.25v5.398l3.585,0.798c1.835,0.408,3.091,2.127,2.921,4l-0.1,1.121
		C23.735,23.706,23.414,24,23.023,24z"/>
	<path d="M18.863,15c-0.414,0-0.75-0.336-0.75-0.75s0.336-0.75,0.75-0.75s0.75-0.336,0.75-0.75V2.25c0-0.414-0.336-0.75-0.75-0.75
		h-2.25c-0.414,0-0.75-0.336-0.75-0.75S16.2,0,16.613,0h2.25c1.241,0,2.25,1.009,2.25,2.25v10.5C21.113,13.991,20.104,15,18.863,15z
		"/>
	<path d="M7.613,18c-0.414,0-0.75-0.336-0.75-0.75S7.2,16.5,7.613,16.5h1.5V15h-6.75c-1.241,0-2.25-1.009-2.25-2.25V2.25
		C0.113,1.009,1.123,0,2.363,0h2.25c0.414,0,0.75,0.336,0.75,0.75S5.027,1.5,4.613,1.5h-2.25c-0.414,0-0.75,0.336-0.75,0.75v10.5
		c0,0.414,0.336,0.75,0.75,0.75h8.25c0.414,0,0.75,0.336,0.75,0.75S11.027,15,10.613,15v1.5c0.414,0,0.75,0.336,0.75,0.75
		S11.027,18,10.613,18H7.613z"/>
	<path d="M7.294,11.25c-0.622-0.001-1.185-0.393-1.403-0.975L4.584,6.789C4.49,6.536,4.442,6.271,4.442,6.002
		c0-0.601,0.234-1.166,0.658-1.591c0.315-0.315,0.717-0.529,1.15-0.615l1.33-3.325C7.694,0.185,7.968,0,8.276,0
		c0.096,0,0.189,0.018,0.279,0.054c0.384,0.154,0.571,0.591,0.418,0.975L7.883,3.752h5.286L12.08,1.028
		c-0.074-0.186-0.072-0.39,0.007-0.574c0.079-0.184,0.225-0.327,0.411-0.401C12.586,0.018,12.68,0,12.776,0
		c0.309,0,0.582,0.185,0.697,0.472l1.33,3.324c0.118,0.024,0.235,0.057,0.349,0.099c0.563,0.211,1.01,0.628,1.259,1.175
		c0.249,0.547,0.27,1.158,0.059,1.721l-0.375,1c-0.109,0.291-0.392,0.487-0.702,0.487c-0.09,0-0.179-0.016-0.264-0.048
		c-0.187-0.07-0.336-0.209-0.419-0.392c-0.083-0.182-0.09-0.386-0.019-0.574l0.375-1c0.07-0.187,0.063-0.391-0.02-0.573
		c-0.083-0.182-0.232-0.321-0.419-0.392c-0.083-0.031-0.171-0.047-0.261-0.048H6.691c-0.2,0-0.388,0.078-0.53,0.22
		c-0.142,0.142-0.22,0.33-0.219,0.53c0,0.09,0.016,0.178,0.047,0.262l1.307,3.486l3.315,0c0.414,0,0.75,0.336,0.75,0.75
		s-0.336,0.75-0.75,0.75H7.294z"/>
</g>
</svg>
