<?xml version="1.0" encoding="utf-8"?>
<!-- Generator: Adobe Illustrator 22.1.0, SVG Export Plug-In . SVG Version: 6.00 Build 0)  -->
<svg version="1.1" id="Layer_1" xmlns="http://www.w3.org/2000/svg" xmlns:xlink="http://www.w3.org/1999/xlink" x="0px" y="0px"
	 viewBox="0 0 24 24" style="enable-background:new 0 0 24 24;" xml:space="preserve">
<title>e-commerce-buy</title>
<g>
	<path d="M23.25,24c-0.2,0-0.389-0.078-0.53-0.22l-1.973-1.973l-1.097,1.828C19.515,23.86,19.269,24,19.007,24
		c-0.022,0-0.043-0.001-0.066-0.003c-0.283-0.025-0.532-0.212-0.634-0.478l-2.651-6.895c-0.106-0.276-0.04-0.59,0.17-0.799
		c0.141-0.142,0.329-0.22,0.53-0.22c0.092,0,0.183,0.017,0.269,0.05l6.894,2.652c0.266,0.102,0.453,0.352,0.478,0.635
		c0.025,0.284-0.117,0.562-0.362,0.708l-1.828,1.097l1.973,1.973c0.142,0.142,0.22,0.33,0.22,0.53s-0.078,0.389-0.22,0.53
		S23.45,24,23.25,24z M19.155,21.545l0.8-1.333c0.029-0.048,0.064-0.094,0.105-0.136c0.005-0.005,0.01-0.011,0.016-0.016
		c0.042-0.041,0.088-0.076,0.137-0.105l1.333-0.8l-3.884-1.494L19.155,21.545z"/>
	<path d="M4.5,12.75c-0.414,0-0.75-0.336-0.75-0.75V4.5c0-0.414,0.336-0.75,0.75-0.75H6c1.241,0,2.25,1.009,2.25,2.25v0.75
		c0,0.563-0.206,1.091-0.575,1.5c0.37,0.409,0.575,0.937,0.575,1.5v0.75c0,1.241-1.009,2.25-2.25,2.25H4.5z M6,11.25
		c0.414,0,0.75-0.336,0.75-0.75V9.75C6.75,9.336,6.414,9,6,9H5.25v2.25H6z M6,7.5c0.414,0,0.75-0.336,0.75-0.75V6
		c0-0.414-0.336-0.75-0.75-0.75H5.25V7.5H6z"/>
	<path d="M12,12.75c-1.241,0-2.25-1.009-2.25-2.25v-6c0-0.414,0.336-0.75,0.75-0.75s0.75,0.336,0.75,0.75v6
		c0,0.414,0.336,0.75,0.75,0.75s0.75-0.336,0.75-0.75v-6c0-0.414,0.336-0.75,0.75-0.75s0.75,0.336,0.75,0.75v6
		C14.25,11.741,13.241,12.75,12,12.75z"/>
	<path d="M18,12.75c-0.414,0-0.75-0.336-0.75-0.75V8.871c-0.885-0.314-1.5-1.162-1.5-2.121V4.5c0-0.414,0.336-0.75,0.75-0.75
		s0.75,0.336,0.75,0.75v2.25c0,0.414,0.336,0.75,0.75,0.75s0.75-0.336,0.75-0.75V4.5c0-0.414,0.336-0.75,0.75-0.75
		s0.75,0.336,0.75,0.75v2.25c0,0.96-0.615,1.808-1.5,2.121V12C18.75,12.414,18.414,12.75,18,12.75z"/>
	<path d="M3.75,16.5C1.682,16.5,0,14.818,0,12.75v-9C0,1.682,1.682,0,3.75,0h16.5C22.318,0,24,1.682,24,3.75v9
		c0,1.36-0.738,2.616-1.926,3.277c-0.112,0.062-0.238,0.095-0.365,0.095l0,0c-0.272,0-0.523-0.148-0.655-0.385
		c-0.097-0.175-0.121-0.377-0.066-0.57c0.055-0.193,0.182-0.353,0.357-0.45c0.713-0.397,1.156-1.151,1.156-1.967v-9
		c0-1.241-1.009-2.25-2.25-2.25H3.75C2.509,1.5,1.5,2.509,1.5,3.75v9C1.5,13.991,2.509,15,3.75,15h9c0.414,0,0.75,0.336,0.75,0.75
		s-0.336,0.75-0.75,0.75H3.75z"/>
</g>
</svg>
