<?xml version="1.0" encoding="utf-8"?>
<!-- Generator: Adobe Illustrator 22.1.0, SVG Export Plug-In . SVG Version: 6.00 Build 0)  -->
<svg version="1.1" id="Layer_1" xmlns="http://www.w3.org/2000/svg" xmlns:xlink="http://www.w3.org/1999/xlink" x="0px" y="0px"
	 viewBox="0 0 24 24" style="enable-background:new 0 0 24 24;" xml:space="preserve">
<title>e-commerce-basket-browser</title>
<g>
	<path d="M19.5,22.5c-0.414,0-0.75-0.336-0.75-0.75S19.086,21,19.5,21h2.25c0.414,0,0.75-0.336,0.75-0.75V7.5h-21v12.634
		C1.501,20.61,1.89,20.999,2.367,21H4.5c0.414,0,0.75,0.336,0.75,0.75S4.914,22.5,4.5,22.5H2.365
		C1.064,22.496,0.003,21.435,0,20.136V3.857C0.004,2.561,1.06,1.504,2.355,1.5h19.279C22.935,1.503,23.996,2.563,24,3.863V20.25
		c0,1.241-1.009,2.25-2.25,2.25H19.5z M22.5,6V3.865C22.499,3.39,22.109,3.001,21.632,3H2.357C1.886,3.002,1.501,3.387,1.5,3.859V6
		H22.5z"/>
	<path d="M8.686,22.5c-0.622-0.001-1.186-0.393-1.403-0.975l-1.307-3.486c-0.094-0.25-0.142-0.513-0.143-0.782
		c-0.002-0.601,0.23-1.167,0.654-1.593c0.315-0.317,0.717-0.532,1.151-0.619l1.329-3.323c0.114-0.286,0.388-0.471,0.697-0.471
		c0.096,0,0.189,0.018,0.278,0.054c0.186,0.074,0.332,0.217,0.411,0.401c0.079,0.184,0.081,0.388,0.007,0.574L9.271,15h5.285
		l-1.089-2.721c-0.074-0.186-0.072-0.39,0.007-0.574c0.079-0.184,0.225-0.327,0.411-0.401c0.089-0.036,0.183-0.054,0.278-0.054
		c0.309,0,0.582,0.185,0.696,0.472l1.329,3.322c0.119,0.024,0.235,0.057,0.348,0.099c0.563,0.211,1.01,0.628,1.26,1.175
		c0.249,0.547,0.27,1.158,0.059,1.721l-1.307,3.487c-0.218,0.58-0.78,0.972-1.399,0.974c0,0-0.001,0-0.001,0H8.686z M8.079,16.5
		c-0.413,0.002-0.747,0.339-0.746,0.752c0,0.09,0.016,0.177,0.047,0.26L8.688,21l6.458,0l1.305-3.487
		c0.07-0.187,0.063-0.391-0.02-0.573c-0.083-0.182-0.232-0.322-0.42-0.392c-0.084-0.031-0.173-0.047-0.262-0.047H8.079z"/>
	<path d="M10.5,20.25c-0.414,0-0.75-0.336-0.75-0.75V18c0-0.414,0.336-0.75,0.75-0.75s0.75,0.336,0.75,0.75v1.5
		C11.25,19.914,10.914,20.25,10.5,20.25z"/>
	<path d="M13.5,20.25c-0.414,0-0.75-0.336-0.75-0.75V18c0-0.414,0.336-0.75,0.75-0.75s0.75,0.336,0.75,0.75v1.5
		C14.25,19.914,13.914,20.25,13.5,20.25z"/>
</g>
</svg>
