<svg id="Outline_Version" data-name="Outline Version" xmlns="http://www.w3.org/2000/svg" viewBox="0 0 24 24"><title>e-commerce-etsy</title><path d="M3.62,20.59c-.77.23-2.21.65-2,2.36a.75.75,0,0,0,.33.53,3.52,3.52,0,0,0,2.48.31c.24,0,.49-.06.73-.07,1.24-.05,2.81,0,4.33,0s3.17,0,4.7,0,2.92-.07,4.12,0c.19,0,.42.06.67.11a7.8,7.8,0,0,0,1.39.17,2,2,0,0,0,1.13-.29.73.73,0,0,0,.19-.17,3.34,3.34,0,0,0,.39-2.27,5.43,5.43,0,0,1,0-.88c0-.26.08-.52.13-.79.24-1.29.64-3.45-1.85-3.92a.75.75,0,0,0-.65.18,2.28,2.28,0,0,0-.8,1.8,1.73,1.73,0,0,1-.17.79c-.21.42-1.05,1.16-4.33,1.41-4,.31-4.78-.25-4.92-.51a4.51,4.51,0,0,1-.19-2.25c0-.38,0-.76,0-1.14s0-.72,0-1a4.3,4.3,0,0,1,.06-1.19,18.6,18.6,0,0,0,2.21-.13c1.44-.13,2.93-.27,3.74.23a1,1,0,0,1,.46.64A2.08,2.08,0,0,0,17.22,16a.76.76,0,0,0,.43,0c1.35-.36,1.24-1.65,1.18-2.5l0-.41c0-.63,0-2.55,0-3.32V9.49a2.67,2.67,0,0,0-.43-2.07,1.68,1.68,0,0,0-1.26-.49,1,1,0,0,0-.47.16,2.18,2.18,0,0,0-.84,1.53c-.05.31-.07.41-.28.56a2.9,2.9,0,0,1-1,.21,25.13,25.13,0,0,1-5.09-.13,26.68,26.68,0,0,1,0-4.63,7.44,7.44,0,0,1,3.07-.43c3.91,0,5.28.59,5.45.89a1.75,1.75,0,0,1,.12.52c.06.46.17,1.32,1.06,1.51l.15,0a2.09,2.09,0,0,0,1.62-.58,3.1,3.1,0,0,0,.51-2.47,5.43,5.43,0,0,1,0-.63,7.12,7.12,0,0,1,.12-.87A4,4,0,0,0,21.59.9a.76.76,0,0,0-.12-.25C20.85-.21,19.53,0,18.89.09l-.15,0A91.39,91.39,0,0,1,7.92.37L4.55.34l-.29,0A2,2,0,0,0,2.19,1a.75.75,0,0,0-.1.25c-.26,1.44,1,2,1.65,2.24a2.44,2.44,0,0,1,.71.38c.55.63.49,3.27.43,5.6,0,.86,0,1.75,0,2.64s0,1.86.05,2.74c.06,2.14.13,4.81-.4,5.34A2.47,2.47,0,0,1,3.62,20.59Zm2.77-5.75c0-.87,0-1.79,0-2.7s0-1.75,0-2.6c.08-3.11.14-5.56-.81-6.63a3.31,3.31,0,0,0-1.25-.77,2.69,2.69,0,0,1-.7-.36,3.71,3.71,0,0,1,.5,0l.43,0,3.34,0a92.55,92.55,0,0,0,11-.26l.19,0a4.06,4.06,0,0,1,1-.07,7.71,7.71,0,0,1-.12.81,8.44,8.44,0,0,0-.15,1.06,7,7,0,0,0,0,.82c0,.45.08,1.13-.1,1.32a.41.41,0,0,1-.22.09c0-.07,0-.15,0-.21a2.79,2.79,0,0,0-.31-1.09c-.41-.69-1.55-1.6-6.74-1.62-1.59,0-3.37.07-4.33,1A.75.75,0,0,0,8,4.17,29.1,29.1,0,0,0,8,10a.75.75,0,0,0,.61.67,26.44,26.44,0,0,0,6.08.24,3.72,3.72,0,0,0,1.73-.47,2.08,2.08,0,0,0,.9-1.54c0-.08,0-.15,0-.21a6.71,6.71,0,0,1,0,.76v.26c0,.81,0,2.79,0,3.47l0,.44a3.62,3.62,0,0,1,0,.73A1.61,1.61,0,0,1,17.2,14a2.47,2.47,0,0,0-1.08-1.39c-1.24-.76-3-.6-4.67-.44a16.85,16.85,0,0,1-2.57.11.75.75,0,0,0-.76.51A5.18,5.18,0,0,0,7.83,15c0,.26,0,.56,0,.94s0,.7,0,1a5.6,5.6,0,0,0,.36,3c.8,1.52,3.53,1.53,6.36,1.31,3.15-.25,4.92-1,5.56-2.23a3.18,3.18,0,0,0,.33-1.39,1.24,1.24,0,0,1,.07-.47c.49.21.51.67.25,2.06-.05.29-.11.59-.15.87a6.44,6.44,0,0,0,0,1.15,4.77,4.77,0,0,1,0,1.13,5.76,5.76,0,0,1-1.3-.14c-.3-.06-.59-.11-.82-.13-.65-.05-1.34-.07-2.07-.07s-1.44,0-2.2,0c-1.51,0-3.06,0-4.65,0s-3.13,0-4.42,0h0c-.28,0-.56,0-.84.08a5.37,5.37,0,0,1-1,.06A2.63,2.63,0,0,1,4,22a3.38,3.38,0,0,0,1.5-.73C6.54,20.31,6.48,18,6.39,14.85Z"/></svg>