<?xml version="1.0" encoding="utf-8"?>
<!-- Generator: Adobe Illustrator 22.1.0, SVG Export Plug-In . SVG Version: 6.00 Build 0)  -->
<svg version="1.1" id="Layer_1" xmlns="http://www.w3.org/2000/svg" xmlns:xlink="http://www.w3.org/1999/xlink" x="0px" y="0px"
	 viewBox="0 0 24 24" style="enable-background:new 0 0 24 24;" xml:space="preserve">
<title>e-commerce-add-basket-cloud</title>
<g>
	<path d="M12.378,13.502c-0.092,0-0.182-0.017-0.268-0.05c-0.005-0.002-0.011-0.004-0.016-0.006
		c-0.093-0.038-0.177-0.094-0.247-0.165l-2.25-2.25c-0.142-0.141-0.22-0.33-0.22-0.53s0.078-0.389,0.22-0.53
		c0.141-0.142,0.33-0.22,0.53-0.22s0.389,0.078,0.53,0.22l0.97,0.97V7.502c0-0.414,0.336-0.75,0.75-0.75s0.75,0.336,0.75,0.75v3.439
		l0.97-0.97c0.142-0.142,0.33-0.22,0.53-0.22s0.389,0.078,0.53,0.22c0.142,0.141,0.22,0.33,0.22,0.53s-0.078,0.389-0.22,0.53
		l-2.25,2.25c-0.013,0.013-0.028,0.026-0.044,0.038c-0.062,0.054-0.127,0.095-0.198,0.125c0,0-0.027,0.01-0.027,0.01
		C12.554,13.487,12.467,13.502,12.378,13.502z"/>
	<path d="M17.188,10.309c-0.31,0-0.592-0.195-0.701-0.484c-0.071-0.188-0.065-0.391,0.018-0.574
		c0.083-0.183,0.231-0.322,0.418-0.393c0.36-0.136,0.681-0.364,0.928-0.66c0.385-0.46,0.567-1.042,0.513-1.639
		c-0.053-0.597-0.336-1.137-0.795-1.522c-0.409-0.342-0.905-0.523-1.433-0.523c-0.068,0-0.137,0.003-0.206,0.009
		c-0.597,0.053-1.138,0.336-1.523,0.796c-0.143,0.171-0.353,0.269-0.576,0.269c-0.076,0-0.151-0.011-0.223-0.034
		c-0.291-0.091-0.496-0.346-0.523-0.648c-0.116-1.291-0.875-2.414-2.029-3.003c-0.533-0.272-1.105-0.41-1.7-0.41
		c-1.42,0-2.702,0.783-3.346,2.044C5.07,5.376,5.802,7.64,7.644,8.58C8.012,8.769,8.159,9.221,7.971,9.59
		C7.842,9.842,7.586,9.998,7.302,9.998c-0.118,0-0.235-0.028-0.341-0.082C4.383,8.599,3.358,5.431,4.674,2.853
		C5.576,1.088,7.37-0.008,9.358-0.008c0.822,0,1.645,0.198,2.38,0.574c1.206,0.616,2.119,1.665,2.563,2.923
		c0.457-0.255,0.965-0.413,1.495-0.46c0.113-0.01,0.225-0.015,0.336-0.015c0.874,0,1.726,0.31,2.398,0.872
		c0.767,0.641,1.239,1.543,1.327,2.539C19.946,7.421,19.642,8.393,19,9.16c-0.412,0.492-0.947,0.873-1.547,1.1
		C17.368,10.292,17.279,10.309,17.188,10.309z"/>
	<path d="M9.236,24.002C8.614,24,8.051,23.609,7.833,23.028l-1.307-3.487c-0.094-0.25-0.142-0.514-0.143-0.782
		C6.38,17.636,7.204,16.7,8.281,16.53l-1.1-2.749c-0.074-0.186-0.072-0.39,0.007-0.574s0.225-0.326,0.411-0.401
		c0.089-0.036,0.183-0.054,0.278-0.054c0.309,0,0.582,0.185,0.697,0.472l1.311,3.278h4.984l1.312-3.278
		c0.115-0.287,0.388-0.472,0.697-0.472c0.095,0,0.189,0.018,0.278,0.054c0.186,0.074,0.332,0.217,0.411,0.401
		c0.079,0.184,0.082,0.388,0.007,0.574l-1.092,2.729c0.208,0.017,0.41,0.062,0.605,0.135c0.563,0.21,1.01,0.628,1.259,1.175
		c0.249,0.547,0.27,1.158,0.059,1.721l-1.306,3.487c-0.217,0.581-0.78,0.973-1.4,0.974C15.698,24.002,9.236,24.002,9.236,24.002z
		 M8.629,18.002c-0.413,0.002-0.747,0.339-0.746,0.752c0,0.089,0.016,0.177,0.047,0.26l1.307,3.487l6.459,0L17,19.015
		c0.07-0.188,0.063-0.391-0.02-0.573c-0.083-0.183-0.232-0.322-0.42-0.392c-0.083-0.031-0.171-0.047-0.26-0.047H8.629z"/>
	<path d="M10.878,21.752c-0.414,0-0.75-0.336-0.75-0.75v-1.5c0-0.414,0.336-0.75,0.75-0.75s0.75,0.336,0.75,0.75v1.5
		C11.628,21.416,11.291,21.752,10.878,21.752z"/>
	<path d="M13.878,21.752c-0.414,0-0.75-0.336-0.75-0.75v-1.5c0-0.414,0.336-0.75,0.75-0.75s0.75,0.336,0.75,0.75v1.5
		C14.628,21.416,14.291,21.752,13.878,21.752z"/>
</g>
</svg>
