<?xml version="1.0" encoding="utf-8"?>
<!-- Generator: Adobe Illustrator 22.1.0, SVG Export Plug-In . SVG Version: 6.00 Build 0)  -->
<svg version="1.1" id="Layer_1" xmlns="http://www.w3.org/2000/svg" xmlns:xlink="http://www.w3.org/1999/xlink" x="0px" y="0px"
	 viewBox="0 0 24 24" style="enable-background:new 0 0 24 24;" xml:space="preserve">
<title>e-commerce-cart-laptop</title>
<g>
	<path d="M9.001,9.75c-0.323,0-0.609-0.206-0.712-0.513l-1.5-4.5C6.714,4.509,6.752,4.256,6.893,4.061
		C7.033,3.866,7.261,3.75,7.501,3.75h8.292l0.74-2.466c0.094-0.314,0.389-0.534,0.719-0.534c0.073,0,0.146,0.011,0.216,0.032
		c0.191,0.057,0.35,0.186,0.445,0.363c0.095,0.177,0.115,0.379,0.058,0.571l-2.25,7.5c-0.096,0.32-0.385,0.534-0.718,0.534H9.001z
		 M14.443,8.25l0.9-3H8.542l1,3H14.443z"/>
	<circle cx="9.376" cy="11.625" r="1.125"/>
	<circle cx="14.626" cy="11.625" r="1.125"/>
	<path d="M2.253,23.25c-0.601,0-1.166-0.234-1.591-0.659C0.237,22.167,0.003,21.602,0.003,21c0-0.348,0.082-0.696,0.238-1.007
		l1.836-3.671c0.309-0.617,0.781-1.136,1.357-1.499C3.155,14.442,3.001,13.98,3.001,13.5v-9c0-1.241,1.009-2.25,2.25-2.25
		c0.414,0,0.75,0.336,0.75,0.75s-0.336,0.75-0.75,0.75s-0.75,0.336-0.75,0.75v9c0,0.414,0.336,0.75,0.75,0.75h13.5
		c0.414,0,0.75-0.336,0.75-0.75v-9c0-0.201-0.078-0.389-0.219-0.531c-0.292-0.293-0.292-0.769,0-1.061
		c0.142-0.142,0.33-0.219,0.53-0.219c0.201,0,0.389,0.078,0.531,0.22c0.425,0.425,0.658,0.99,0.658,1.591v9
		c0,0.48-0.154,0.942-0.432,1.323c0.576,0.363,1.049,0.882,1.357,1.499l1.836,3.671c0.269,0.538,0.312,1.148,0.122,1.718
		c-0.19,0.57-0.59,1.032-1.128,1.301c-0.311,0.155-0.659,0.238-1.007,0.238H2.253z M5.43,15.75c-0.858,0-1.629,0.477-2.012,1.243
		l-1.836,3.671C1.53,20.768,1.503,20.884,1.503,21c0,0.414,0.336,0.75,0.75,0.75h19.496c0.116,0,0.232-0.027,0.336-0.079
		c0.179-0.09,0.313-0.244,0.376-0.434c0.063-0.19,0.049-0.393-0.041-0.573l-1.836-3.671c-0.384-0.767-1.155-1.243-2.012-1.243H5.43z
		"/>
	<path d="M10.501,20.25c-0.414,0-0.75-0.336-0.75-0.75s0.336-0.75,0.75-0.75h3c0.414,0,0.75,0.336,0.75,0.75s-0.336,0.75-0.75,0.75
		H10.501z"/>
</g>
</svg>
