<?xml version="1.0" encoding="utf-8"?>
<!-- Generator: Adobe Illustrator 22.1.0, SVG Export Plug-In . SVG Version: 6.00 Build 0)  -->
<svg version="1.1" id="Layer_1" xmlns="http://www.w3.org/2000/svg" xmlns:xlink="http://www.w3.org/1999/xlink" x="0px" y="0px"
	 viewBox="0 0 24 24" style="enable-background:new 0 0 24 24;" xml:space="preserve">
<title>e-commerce-shopping-bag-laptop</title>
<g>
	<path d="M13.463,23.25c-0.068-0.003-0.109-0.007-0.15-0.012c-0.833-0.118-1.412-0.887-1.295-1.714l0.997-8.139
		c0.049-0.745,0.665-1.346,1.433-1.377c0,0,7.11,0,7.116,0c0.763,0.033,1.378,0.634,1.429,1.397l0.997,8.131
		c0.004,0.027,0.008,0.071,0.011,0.115c0.044,0.837-0.599,1.552-1.433,1.597l-9.088,0.001C13.474,23.25,13.468,23.25,13.463,23.25z
		 M14.506,13.552l-1,8.167c-0.003,0.022,0.004,0.031,0.012,0.032l8.976-0.001c0.002-0.007,0.008-0.021,0.008-0.023L21.5,13.555
		c-0.002-0.019-0.003-0.034-0.004-0.049l-6.986,0.001C14.509,13.524,14.507,13.538,14.506,13.552z"/>
	<path d="M17.999,18c-1.248-0.003-2.331-0.893-2.574-2.117c-0.08-0.405,0.184-0.801,0.589-0.882c0.049-0.01,0.098-0.014,0.146-0.014
		c0.356,0,0.666,0.254,0.736,0.603c0.104,0.526,0.569,0.908,1.105,0.91c0.538,0,1.004-0.385,1.106-0.915
		c0.068-0.352,0.377-0.608,0.736-0.608c0.047,0,0.095,0.005,0.143,0.014c0.197,0.038,0.367,0.15,0.479,0.316
		c0.112,0.166,0.153,0.366,0.115,0.562C20.341,17.104,19.256,18,18,18C18,18,18,18,17.999,18z"/>
	<path d="M2.252,20.25c-1.241,0-2.25-1.009-2.25-2.25c0-0.348,0.082-0.696,0.238-1.007l1.836-3.671
		c0.309-0.617,0.781-1.136,1.357-1.499C3.153,11.442,3,10.98,3,10.5V3c0-1.241,1.009-2.25,2.25-2.25h3.012
		c0.414,0,0.75,0.336,0.75,0.75s-0.336,0.75-0.75,0.75H5.25C4.836,2.25,4.5,2.586,4.5,3v7.5c0,0.414,0.336,0.75,0.75,0.75
		l5.263,0.007c0.05,0,0.101,0.005,0.15,0.015c0.347,0.071,0.599,0.381,0.599,0.736c0,0.413-0.337,0.749-0.75,0.749
		c-0.005,0-5.087-0.007-5.087-0.007c-0.855,0.001-1.625,0.477-2.008,1.243l-1.836,3.671C1.529,17.768,1.501,17.884,1.501,18
		c0,0.413,0.337,0.75,0.75,0.75h7.51c0.414,0,0.75,0.336,0.75,0.75s-0.336,0.75-0.75,0.75H2.252z"/>
	<path d="M21.012,10.5c-0.414,0-0.75-0.336-0.75-0.75V3c0-0.414-0.336-0.75-0.75-0.75h-2.25c-0.414,0-0.75-0.336-0.75-0.75
		s0.336-0.75,0.75-0.75h2.25c1.241,0,2.25,1.009,2.25,2.25v6.75C21.762,10.164,21.425,10.5,21.012,10.5z"/>
	<path d="M9,17.25c-0.414,0-0.75-0.336-0.75-0.75S8.586,15.75,9,15.75h1.5c0.414,0,0.75,0.336,0.75,0.75s-0.336,0.75-0.75,0.75H9z"
		/>
	<path d="M12.762,9.75c-0.414,0-0.75-0.336-0.75-0.75h-0.75c-0.414,0-0.75-0.336-0.75-0.75s0.336-0.75,0.75-0.75h2.031
		c0.245,0,0.461-0.146,0.551-0.372c0.121-0.303-0.027-0.648-0.33-0.77L11.45,5.534c-0.797-0.321-1.312-1.082-1.313-1.94
		c0-0.559,0.217-1.085,0.612-1.48c0.343-0.344,0.785-0.554,1.262-0.603V1.5c0-0.414,0.336-0.75,0.75-0.75s0.75,0.336,0.75,0.75h0.75
		c0.414,0,0.75,0.336,0.75,0.75S14.675,3,14.262,3h-2.033c-0.158,0-0.306,0.062-0.418,0.174c-0.112,0.112-0.173,0.26-0.173,0.419
		c0,0.243,0.146,0.458,0.371,0.549l2.062,0.824c1.071,0.429,1.594,1.649,1.166,2.719c-0.292,0.731-0.955,1.225-1.725,1.304V9
		C13.512,9.414,13.175,9.75,12.762,9.75z"/>
</g>
</svg>
