<?xml version="1.0" encoding="utf-8"?>
<!-- Generator: Adobe Illustrator 22.1.0, SVG Export Plug-In . SVG Version: 6.00 Build 0)  -->
<svg version="1.1" id="Layer_1" xmlns="http://www.w3.org/2000/svg" xmlns:xlink="http://www.w3.org/1999/xlink" x="0px" y="0px"
	 viewBox="0 0 24 24" style="enable-background:new 0 0 24 24;" xml:space="preserve">
<title>e-commerce-monitor-keyboard-basket</title>
<g>
	<path d="M8.686,12c-0.622-0.001-1.186-0.393-1.403-0.975L5.976,7.539C5.882,7.288,5.834,7.025,5.833,6.757
		C5.831,6.156,6.063,5.59,6.487,5.164c0.315-0.317,0.717-0.532,1.151-0.619l1.329-3.323C9.081,0.935,9.354,0.75,9.663,0.75
		c0.096,0,0.19,0.018,0.279,0.054c0.384,0.153,0.571,0.591,0.417,0.975L9.271,4.5h5.285l-1.088-2.721
		c-0.074-0.186-0.072-0.39,0.007-0.574c0.079-0.184,0.225-0.327,0.411-0.401c0.089-0.036,0.183-0.054,0.279-0.054
		c0.308,0,0.582,0.185,0.696,0.472l1.329,3.322c0.119,0.024,0.235,0.057,0.349,0.099c0.562,0.21,1.009,0.628,1.259,1.176
		c0.249,0.547,0.271,1.159,0.06,1.721l-1.307,3.487c-0.218,0.58-0.78,0.971-1.399,0.974c0,0-0.001,0-0.001,0H8.686z M8.079,6
		C7.879,6.001,7.692,6.079,7.551,6.221C7.41,6.363,7.332,6.552,7.333,6.752c0,0.089,0.016,0.177,0.048,0.261L8.688,10.5l6.458,0
		l1.305-3.487c0.07-0.187,0.063-0.391-0.021-0.573s-0.232-0.322-0.419-0.392C15.927,6.016,15.839,6,15.749,6H8.079z"/>
	<path d="M3.75,15c-1.241,0-2.25-1.009-2.25-2.25V2.25C1.5,1.009,2.509,0,3.75,0H6c0.414,0,0.75,0.336,0.75,0.75S6.414,1.5,6,1.5
		H3.75C3.336,1.5,3,1.836,3,2.25v10.5c0,0.414,0.336,0.75,0.75,0.75h16.5c0.414,0,0.75-0.336,0.75-0.75V2.25
		c0-0.414-0.336-0.75-0.75-0.75H18c-0.414,0-0.75-0.336-0.75-0.75S17.586,0,18,0h2.25c1.241,0,2.25,1.009,2.25,2.25v10.5
		c0,1.241-1.009,2.25-2.25,2.25H3.75z"/>
	<path d="M3.96,24c-0.401,0-0.778-0.156-1.061-0.44c-0.283-0.283-0.439-0.66-0.439-1.061c0-0.122,0.015-0.244,0.045-0.363l1.125-4.5
		C3.797,16.967,4.395,16.5,5.085,16.5h13.829c0.689,0.001,1.288,0.468,1.456,1.135l1.125,4.501c0.097,0.391,0.036,0.794-0.171,1.137
		c-0.206,0.343-0.534,0.585-0.924,0.682C20.281,23.985,20.159,24,20.039,24H3.96z M3.961,22.5l16.078,0L18.915,18l-13.83,0
		L3.961,22.5z"/>
	<path d="M6.75,21C6.336,21,6,20.664,6,20.25s0.336-0.75,0.75-0.75h1.5C8.664,19.5,9,19.836,9,20.25S8.664,21,8.25,21H6.75z"/>
	<path d="M15.75,21C15.336,21,15,20.664,15,20.25s0.336-0.75,0.75-0.75h1.5c0.414,0,0.75,0.336,0.75,0.75S17.664,21,17.25,21H15.75z
		"/>
	<path d="M11.25,21c-0.414,0-0.75-0.336-0.75-0.75s0.336-0.75,0.75-0.75h1.5c0.414,0,0.75,0.336,0.75,0.75S13.164,21,12.75,21H11.25
		z"/>
	<path d="M10.5,9.75c-0.414,0-0.75-0.336-0.75-0.75V7.5c0-0.414,0.336-0.75,0.75-0.75s0.75,0.336,0.75,0.75V9
		C11.25,9.414,10.914,9.75,10.5,9.75z"/>
	<path d="M13.5,9.75c-0.414,0-0.75-0.336-0.75-0.75V7.5c0-0.414,0.336-0.75,0.75-0.75s0.75,0.336,0.75,0.75V9
		C14.25,9.414,13.914,9.75,13.5,9.75z"/>
</g>
</svg>
