<svg id="Outline_Version" data-name="Outline Version" xmlns="http://www.w3.org/2000/svg" viewBox="0 0 24 24"><title>e-commerce-amazon</title><path d="M5.95,10.59a4.55,4.55,0,0,0,2.49,5.3,4.17,4.17,0,0,0,1.67.34c1.22,0,2.91-.51,4.7-2.57a2.73,2.73,0,0,0,2.42,2.58.75.75,0,0,0,0-1.5c-.54,0-1-.89-1-1.66V6.5A5.71,5.71,0,0,0,10.74.76,5.64,5.64,0,0,0,5.55,4.57.75.75,0,1,0,7,5.06a4.12,4.12,0,0,1,3.78-2.8,4.19,4.19,0,0,1,4,4.24v.34C7.77,6.2,6.25,9.52,5.95,10.59ZM9,14.52A3.07,3.07,0,0,1,7.39,11C8,8.91,10.72,8,14.76,8.36V11.2C12.92,14,10.79,15.29,9,14.52Z"/><path d="M.32,18.26a.75.75,0,0,0,.28,1,23.25,23.25,0,0,0,11.41,3,23.31,23.31,0,0,0,9.08-1.85l-1,1.69a.75.75,0,0,0,.26,1,.74.74,0,0,0,.39.11.75.75,0,0,0,.64-.36L23.67,19a1566.6,1566.6,0,0,1,.09-.27.71.71,0,0,0,0-.12.72.72,0,0,0,0-.2.71.71,0,0,0,0-.08l0,0s0,0,0-.05a.72.72,0,0,0-.1-.12l-.07-.08a.75.75,0,0,0-.28-.15l-4.36-1.2a.75.75,0,1,0-.4,1.45l2.47.68A21.79,21.79,0,0,1,12,20.76,21.75,21.75,0,0,1,1.34,18,.75.75,0,0,0,.32,18.26Z"/></svg>