<?xml version="1.0" encoding="utf-8"?>
<!-- Generator: Adobe Illustrator 22.1.0, SVG Export Plug-In . SVG Version: 6.00 Build 0)  -->
<svg version="1.1" id="Layer_1" xmlns="http://www.w3.org/2000/svg" xmlns:xlink="http://www.w3.org/1999/xlink" x="0px" y="0px"
	 viewBox="0 0 24 24" style="enable-background:new 0 0 24 24;" xml:space="preserve">
<title>e-learning-laptop</title>
<g>
	<path d="M17.25,14.751c-1.241,0-2.25-1.009-2.25-2.25c0-0.244,0.04-0.483,0.118-0.714l-1.36-1.36
		c-0.511,0.372-1.123,0.573-1.758,0.573c-0.635,0-1.247-0.202-1.758-0.573l-1.36,1.36C8.961,12.018,9,12.257,9,12.501
		c0,1.241-1.009,2.25-2.25,2.25s-2.25-1.009-2.25-2.25s1.009-2.25,2.25-2.25c0.426,0,0.841,0.122,1.199,0.349l1.334-1.334
		C9.097,8.869,9,8.437,9,8.001c0-1.654,1.346-3,3-3c1.654,0,3,1.346,3,3c0,0.436-0.097,0.868-0.283,1.265l1.334,1.334
		c0.358-0.227,0.773-0.349,1.199-0.349c1.241,0,2.25,1.009,2.25,2.25S18.491,14.751,17.25,14.751z M17.25,11.751
		c-0.414,0-0.75,0.337-0.75,0.75s0.336,0.75,0.75,0.75S18,12.914,18,12.501S17.664,11.751,17.25,11.751z M6.75,11.751
		c-0.414,0-0.75,0.337-0.75,0.75s0.336,0.75,0.75,0.75s0.75-0.336,0.75-0.75S7.164,11.751,6.75,11.751z M12,6.501
		c-0.827,0-1.5,0.673-1.5,1.5s0.673,1.5,1.5,1.5s1.5-0.673,1.5-1.5S12.827,6.501,12,6.501z"/>
	<path d="M3.75,22.25C1.682,22.25,0,20.568,0,18.5V17c0-0.414,0.336-0.75,0.75-0.75H1.5V4.251c0-1.241,1.009-2.25,2.25-2.25h16.5
		c1.241,0,2.25,1.009,2.25,2.25V16.25h0.75c0.414,0,0.75,0.336,0.75,0.75v1.5c0,2.068-1.682,3.75-3.75,3.75H3.75z M1.5,18.5
		c0,1.241,1.009,2.25,2.25,2.25h16.5c1.241,0,2.25-1.009,2.25-2.25v-0.75h-7.512c-0.701,0.942-1.805,1.499-2.994,1.499
		c-0.644,0-1.281-0.169-1.842-0.49c-0.443-0.254-0.834-0.6-1.139-1.009H1.5V18.5z M9.416,16.25c0.269,0,0.518,0.145,0.651,0.378
		c0.197,0.345,0.483,0.632,0.829,0.829c0.335,0.191,0.715,0.292,1.099,0.292c0.8,0,1.542-0.43,1.937-1.121
		c0.134-0.233,0.383-0.378,0.651-0.378H21V4.251c0-0.414-0.336-0.75-0.75-0.75H3.75C3.336,3.501,3,3.837,3,4.251V16.25H9.416z"/>
</g>
</svg>
