<?xml version="1.0" encoding="utf-8"?>
<!-- Generator: Adobe Illustrator 22.1.0, SVG Export Plug-In . SVG Version: 6.00 Build 0)  -->
<svg version="1.1" id="Layer_1" xmlns="http://www.w3.org/2000/svg" xmlns:xlink="http://www.w3.org/1999/xlink" x="0px" y="0px"
	 viewBox="0 0 24 24" style="enable-background:new 0 0 24 24;" xml:space="preserve">
<title>e-learning-exchange</title>
<g>
	<path d="M12,16.486c-0.081,0-0.162-0.013-0.238-0.039l-2.811-0.938c-0.307-0.102-0.513-0.388-0.513-0.711v-3.209l-1.313-0.438
		v2.135c0,0.414-0.336,0.75-0.75,0.75s-0.75-0.336-0.75-0.75v-3.175c0-0.068,0.01-0.137,0.032-0.21
		C5.659,9.894,5.668,9.866,5.67,9.859c0.024-0.067,0.055-0.127,0.093-0.181c0.008-0.011,0.02-0.027,0.029-0.036
		c0.026-0.035,0.07-0.08,0.12-0.119C5.917,9.519,5.935,9.505,5.94,9.502c0.047-0.034,0.101-0.063,0.159-0.086
		C6.112,9.409,6.125,9.404,6.138,9.4l5.625-1.875C11.84,7.499,11.919,7.486,12,7.486s0.161,0.013,0.237,0.038L17.863,9.4
		c0.307,0.102,0.513,0.388,0.513,0.711s-0.206,0.609-0.513,0.711l-2.299,0.766v3.209c0,0.323-0.206,0.609-0.513,0.711l-2.813,0.938
		C12.161,16.473,12.081,16.486,12,16.486z M12,14.945l2.063-0.688v-2.169l-1.826,0.609c-0.076,0.025-0.156,0.039-0.237,0.039
		s-0.161-0.013-0.238-0.039l-1.824-0.608v2.168L12,14.945z M12,11.195l3.253-1.084L12,9.027l-3.253,1.084L12,11.195z"/>
	<path d="M20.953,13.234c-0.421-0.023-0.738-0.378-0.715-0.791c0.252-4.542-3.238-8.443-7.78-8.695
		c-0.152-0.008-0.303-0.012-0.454-0.012c-1.813,0-3.545,0.586-4.972,1.666h1.256c0.414,0,0.75,0.336,0.75,0.75
		s-0.336,0.75-0.75,0.75H5.106c-0.089,0-0.177-0.016-0.261-0.048c-0.014-0.005-0.028-0.01-0.04-0.016
		C4.637,6.77,4.488,6.621,4.413,6.437C4.41,6.43,4.406,6.421,4.404,6.412C4.372,6.327,4.356,6.24,4.356,6.152V2.97
		c0-0.414,0.336-0.75,0.75-0.75s0.75,0.336,0.75,0.75v1.448c1.735-1.413,3.887-2.182,6.145-2.182c0.18,0,0.36,0.005,0.54,0.015
		c5.368,0.298,9.492,4.908,9.195,10.275c-0.022,0.397-0.351,0.708-0.749,0.708C20.982,13.235,20.957,13.235,20.953,13.234z"/>
	<path d="M18.894,21.751c-0.414,0-0.75-0.336-0.75-0.75v-1.447c-1.735,1.413-3.887,2.182-6.145,2.182
		c-0.179,0-0.359-0.005-0.539-0.015c-2.601-0.145-4.989-1.293-6.726-3.234c-1.737-1.941-2.614-4.442-2.469-7.042
		c0.022-0.397,0.351-0.708,0.749-0.708c0.007,0,0.035,0.001,0.042,0.001c0.199,0.011,0.383,0.099,0.517,0.249
		c0.134,0.149,0.201,0.342,0.19,0.542c-0.122,2.2,0.62,4.317,2.089,5.959c1.469,1.642,3.49,2.614,5.691,2.736
		c0.155,0.009,0.309,0.013,0.463,0.013c1.808,0,3.538-0.586,4.964-1.667h-1.258c-0.414,0-0.75-0.336-0.75-0.75s0.336-0.75,0.75-0.75
		h3.181c0.09,0,0.175,0.016,0.258,0.046c0.009,0.003,0.018,0.006,0.026,0.009c0.096,0.04,0.177,0.094,0.247,0.163
		c0.071,0.07,0.126,0.153,0.164,0.246c0.004,0.01,0.009,0.023,0.012,0.034c0.027,0.066,0.044,0.157,0.045,0.249v3.185
		C19.644,21.415,19.308,21.751,18.894,21.751z"/>
</g>
</svg>
