<?xml version="1.0" encoding="utf-8"?>
<!-- Generator: Adobe Illustrator 22.1.0, SVG Export Plug-In . SVG Version: 6.00 Build 0)  -->
<svg version="1.1" id="Layer_1" xmlns="http://www.w3.org/2000/svg" xmlns:xlink="http://www.w3.org/1999/xlink" x="0px" y="0px"
	 viewBox="0 0 24 24" style="enable-background:new 0 0 24 24;" xml:space="preserve">
<title>e-learning-book-laptop</title>
<g>
	<path d="M2.253,23.999c-1.241,0-2.25-1.009-2.25-2.25c0-0.347,0.082-0.695,0.237-1.005l1.836-3.671
		c0.308-0.617,0.781-1.137,1.358-1.5c-0.279-0.382-0.433-0.844-0.433-1.324v-9c0-0.414,0.336-0.75,0.75-0.75s0.75,0.336,0.75,0.75v9
		c0,0.414,0.336,0.75,0.75,0.75h13.5c0.414,0,0.75-0.336,0.75-0.75v-9c0-0.414,0.336-0.75,0.75-0.75s0.75,0.336,0.75,0.75v9
		c0,0.48-0.154,0.942-0.433,1.324c0.576,0.363,1.049,0.883,1.358,1.5l1.836,3.671c0.269,0.538,0.312,1.148,0.121,1.719
		c-0.19,0.57-0.592,1.031-1.129,1.3c-0.31,0.155-0.657,0.237-1.005,0.237H2.253z M5.43,16.499c-0.858,0-1.629,0.477-2.012,1.244
		l-1.836,3.671c-0.052,0.103-0.079,0.219-0.079,0.334c0,0.414,0.336,0.75,0.75,0.75h19.496c0.116,0,0.231-0.027,0.334-0.079
		c0.18-0.09,0.313-0.244,0.377-0.433c0.063-0.19,0.049-0.394-0.04-0.573l-1.836-3.67c-0.384-0.768-1.155-1.244-2.012-1.245H5.43
		L5.43,16.499z"/>
	<path d="M10.501,20.999c-0.414,0-0.75-0.336-0.75-0.75s0.336-0.75,0.75-0.75h3c0.414,0,0.75,0.336,0.75,0.75s-0.336,0.75-0.75,0.75
		H10.501z"/>
	<path d="M12.001,10.5c-0.315,0-0.593-0.194-0.702-0.487c-0.057-0.092-0.728-1.057-3.906-1.173c0,0-0.001,0-0.001,0
		c-0.734,0-1.327-0.545-1.388-1.267C6.002,7.551,6.001,7.53,6.001,7.51V1.336c0-0.024,0.001-0.047,0.003-0.07
		c0.032-0.37,0.207-0.706,0.49-0.944c0.249-0.208,0.564-0.323,0.887-0.323c0.041,0,0.083,0.002,0.124,0.005
		c2.485,0.094,3.803,0.684,4.497,1.245c0.695-0.559,2.019-1.149,4.53-1.248c0.019-0.002,0.058-0.004,0.096-0.004
		c0.317,0,0.629,0.115,0.878,0.324c0.284,0.238,0.458,0.571,0.49,0.94c0.002,0.019,0.003,0.054,0.003,0.074V7.51
		c0,0.019-0.001,0.039-0.002,0.058C17.937,8.295,17.345,8.84,16.62,8.84c-0.002,0-0.028,0-0.03,0
		c-3.193,0.117-3.842,1.101-3.892,1.184c-0.082,0.208-0.256,0.371-0.469,0.44C12.155,10.488,12.078,10.5,12.001,10.5z M7.501,7.343
		c1.574,0.062,2.831,0.323,3.75,0.775V2.609c-0.196-0.235-1.03-0.987-3.751-1.106L7.501,7.343z M12.751,8.118
		c0.919-0.453,2.177-0.713,3.75-0.775V1.503c-2.732,0.129-3.55,0.86-3.75,1.108V8.118z"/>
</g>
</svg>
