<?xml version="1.0" encoding="utf-8"?>
<!-- Generator: Adobe Illustrator 22.1.0, SVG Export Plug-In . SVG Version: 6.00 Build 0)  -->
<svg version="1.1" id="Layer_1" xmlns="http://www.w3.org/2000/svg" xmlns:xlink="http://www.w3.org/1999/xlink" x="0px" y="0px"
	 viewBox="0 0 24 24" style="enable-background:new 0 0 24 24;" xml:space="preserve">
<title>earth-setting</title>
<g>
	<path d="M9.654,23.752c-0.052,0-0.105-0.006-0.157-0.017c-2.067-0.441-3.986-1.426-5.55-2.848l-0.081-0.073
		c-0.064-0.06-0.125-0.117-0.185-0.175c-0.093-0.089-0.185-0.181-0.276-0.273l-0.052-0.053c-2.184-2.26-3.375-5.237-3.353-8.38
		l0.001-0.061c0.002-0.178,0.008-0.356,0.018-0.535l0.002-0.039c0.011-0.179,0.026-0.356,0.045-0.533l0.018-0.156
		c0.016-0.136,0.034-0.271,0.055-0.407l0.022-0.145c0.025-0.152,0.052-0.304,0.083-0.455c0.002-0.01,0.01-0.045,0.01-0.045
		l0.012-0.064c1.175-5.503,6.109-9.497,11.733-9.497c0.838,0,1.682,0.089,2.509,0.266c4.667,0.996,8.299,4.662,9.253,9.338
		c0.04,0.196,0.001,0.396-0.109,0.564c-0.111,0.167-0.28,0.281-0.476,0.321c-0.051,0.01-0.101,0.015-0.15,0.015
		c-0.355,0-0.664-0.252-0.735-0.6c-0.287-1.409-0.849-2.719-1.67-3.898h-3.698c-0.344,0-0.644,0.234-0.727,0.568L15.92,7.671
		c-0.084,0.334-0.383,0.568-0.727,0.568c-0.061,0-0.123-0.008-0.183-0.023c-0.401-0.101-0.646-0.509-0.545-0.91l0.276-1.1
		c0.251-1.003,1.148-1.703,2.182-1.703h2.433c-1.422-1.399-3.19-2.352-5.161-2.773C13.472,1.575,12.733,1.497,12,1.497
		c-4.671,0-8.741,3.062-10.059,7.505h4.39c1.034,0,1.932,0.701,2.183,1.704l0.75,3c0.045,0.179,0.067,0.363,0.067,0.546
		c0,0.601-0.234,1.166-0.659,1.591c-0.425,0.425-0.99,0.659-1.591,0.659H6.617l-0.797,3.984c1.193,0.873,2.534,1.472,3.989,1.783
		c0.196,0.042,0.364,0.157,0.473,0.325c0.109,0.168,0.146,0.369,0.104,0.565C10.313,23.503,10.005,23.752,9.654,23.752z
		 M1.611,10.502c-0.047,0.328-0.079,0.65-0.096,0.971c-0.003,0.052-0.004,0.103-0.005,0.154l-0.002,0.063
		c-0.004,0.124-0.006,0.247-0.005,0.371c0,0.094,0.002,0.189,0.005,0.284c0.003,0.081,0.007,0.161,0.012,0.241l0.002,0.031
		c0.128,2.154,0.906,4.193,2.251,5.895l0.046,0.056c0.103,0.128,0.207,0.253,0.314,0.375c0.113,0.127,0.228,0.254,0.349,0.377
		l0.036,0.035l0.75-3.751c0.07-0.349,0.379-0.603,0.735-0.603h1.079c0.2,0,0.389-0.078,0.53-0.22s0.22-0.33,0.22-0.531
		c0-0.061-0.008-0.122-0.023-0.183l-0.75-2.999c-0.084-0.334-0.383-0.568-0.728-0.568H1.611z"/>
	<path d="M17.252,18.752c-1.241,0-2.25-1.009-2.25-2.25s1.009-2.25,2.25-2.25s2.25,1.009,2.25,2.25S18.493,18.752,17.252,18.752z
		 M17.252,15.752c-0.414,0-0.75,0.336-0.75,0.75s0.336,0.75,0.75,0.75s0.75-0.336,0.75-0.75S17.666,15.752,17.252,15.752z"/>
	<path d="M17.255,24.001c-0.202,0-0.404-0.03-0.6-0.089c-0.672-0.201-1.194-0.723-1.395-1.395l-0.441-1.45
		c-0.031-0.103-0.128-0.174-0.236-0.174c-0.018,0-0.035,0.002-0.052,0.006l-1.47,0.341c-0.156,0.035-0.312,0.053-0.468,0.053
		c-0.393,0-0.778-0.112-1.112-0.324c-0.472-0.298-0.799-0.762-0.922-1.306c-0.152-0.673,0.038-1.376,0.508-1.882l1.031-1.111
		c0.089-0.096,0.089-0.246,0-0.341l-1.031-1.111c-0.38-0.408-0.578-0.94-0.557-1.498c0.02-0.558,0.257-1.074,0.665-1.454
		c0.387-0.361,0.892-0.559,1.421-0.559c0.155,0,0.31,0.017,0.46,0.051l1.477,0.342c0.017,0.004,0.035,0.006,0.053,0.006
		c0.107,0,0.203-0.071,0.234-0.174l0.443-1.454c0.16-0.531,0.518-0.968,1.008-1.23C16.571,9.086,16.91,9,17.249,9
		c0.204,0,0.407,0.03,0.604,0.09c0.671,0.203,1.191,0.725,1.391,1.397l0.441,1.45c0.031,0.103,0.128,0.174,0.236,0.174
		c0.018,0,0.036-0.002,0.054-0.006l1.469-0.341c0.154-0.035,0.309-0.052,0.463-0.052c0.969,0,1.826,0.685,2.039,1.63
		c0.152,0.674-0.038,1.377-0.508,1.882l-1.03,1.11c-0.089,0.096-0.089,0.246,0,0.341l1.031,1.111
		c0.784,0.843,0.736,2.167-0.108,2.952c-0.388,0.361-0.893,0.559-1.422,0.559l0,0c-0.154,0-0.309-0.017-0.46-0.052l-1.476-0.342
		c-0.017-0.004-0.035-0.006-0.053-0.006c-0.107,0-0.203,0.071-0.234,0.174l-0.443,1.449c-0.158,0.529-0.515,0.966-1.004,1.23
		C17.935,23.915,17.595,24.001,17.255,24.001z M14.583,19.393c0.763,0,1.451,0.509,1.671,1.239l0.442,1.452
		c0.057,0.19,0.202,0.336,0.39,0.392c0.055,0.016,0.111,0.025,0.168,0.025c0.096,0,0.188-0.024,0.274-0.07
		c0.136-0.073,0.236-0.196,0.28-0.344l0.443-1.451c0.22-0.728,0.907-1.237,1.671-1.237c0.13,0,0.261,0.015,0.388,0.044l1.473,0.341
		c0.04,0.009,0.083,0.014,0.125,0.014c0.149,0,0.291-0.056,0.401-0.158c0.238-0.221,0.251-0.595,0.03-0.833l-1.031-1.111
		c-0.621-0.668-0.621-1.715,0-2.383l1.031-1.111c0.133-0.143,0.187-0.341,0.144-0.531c-0.034-0.153-0.127-0.284-0.26-0.368
		c-0.094-0.06-0.203-0.091-0.313-0.091c-0.044,0-0.088,0.005-0.132,0.015l-1.467,0.34c-0.129,0.03-0.26,0.044-0.39,0.044
		c-0.763,0-1.45-0.509-1.671-1.239l-0.442-1.452c-0.057-0.192-0.202-0.338-0.389-0.395c-0.056-0.017-0.113-0.026-0.17-0.026
		c-0.095,0-0.187,0.023-0.272,0.069c-0.136,0.073-0.236,0.195-0.281,0.343l-0.443,1.454c-0.22,0.729-0.907,1.238-1.67,1.238
		c-0.131,0-0.262-0.015-0.39-0.044l-1.473-0.342c-0.039-0.009-0.082-0.013-0.124-0.013c-0.15,0-0.292,0.056-0.402,0.158
		c-0.115,0.107-0.182,0.253-0.188,0.41c-0.006,0.157,0.05,0.307,0.157,0.423l1.031,1.111c0.621,0.668,0.621,1.715,0,2.383
		l-1.031,1.111c-0.133,0.143-0.187,0.341-0.144,0.531c0.035,0.154,0.127,0.284,0.26,0.369c0.094,0.06,0.203,0.092,0.313,0.092
		c0.043,0,0.088-0.005,0.131-0.015l1.468-0.34C14.321,19.408,14.452,19.393,14.583,19.393z"/>
</g>
</svg>
