<?xml version="1.0" encoding="utf-8"?>
<!-- Generator: Adobe Illustrator 22.1.0, SVG Export Plug-In . SVG Version: 6.00 Build 0)  -->
<svg version="1.1" id="Layer_1" xmlns="http://www.w3.org/2000/svg" xmlns:xlink="http://www.w3.org/1999/xlink" x="0px" y="0px"
	 viewBox="0 0 24 24" style="enable-background:new 0 0 24 24;" xml:space="preserve">
<title>earth-locate</title>
<g>
	<path d="M12,24.012c-5.193,0-9.773-3.314-11.396-8.247l-0.031-0.094c-0.032-0.101-0.063-0.201-0.093-0.302
		c-0.013-0.045-0.048-0.171-0.048-0.171c-0.028-0.102-0.056-0.203-0.081-0.306c-0.03-0.123-0.059-0.245-0.086-0.369l-0.015-0.063
		c-0.007-0.032-0.029-0.155-0.029-0.155c-0.018-0.093-0.036-0.187-0.052-0.281c-0.015-0.088-0.03-0.178-0.044-0.268l-0.017-0.129
		c-0.394-2.862,0.262-5.772,1.847-8.195C3.714,2.749,6.41,0.911,9.548,0.255c0.806-0.168,1.629-0.254,2.447-0.254
		c5.619,0,10.557,3.983,11.742,9.471c0.005,0.021,0.008,0.045,0.01,0.069l0.001,0c0.085,0.401-0.174,0.8-0.579,0.886
		c-0.051,0.011-0.104,0.016-0.156,0.016c-0.352,0-0.66-0.25-0.733-0.594c-0.29-1.37-0.867-2.697-1.673-3.848h-3.682
		c-0.345,0-0.644,0.234-0.728,0.568l-0.643,2.574c-0.083,0.334-0.382,0.568-0.727,0.568c-0.062,0-0.123-0.008-0.184-0.023
		c-0.193-0.048-0.357-0.17-0.46-0.341C14.081,9.176,14.051,8.974,14.1,8.78l0.643-2.574c0.251-1.003,1.149-1.704,2.183-1.704h2.414
		c-1.966-1.916-4.598-3-7.345-3c-0.715,0-1.435,0.075-2.14,0.222C7.108,2.297,4.75,3.906,3.213,6.254
		c-0.56,0.855-0.989,1.778-1.279,2.748h4.4c1.034,0,1.932,0.701,2.182,1.704l0.75,3c0.045,0.178,0.067,0.362,0.067,0.546
		c0,0.601-0.234,1.166-0.659,1.591c-0.425,0.425-0.99,0.659-1.591,0.659H6.62l-0.798,3.989c1.795,1.305,3.98,2.022,6.18,2.022
		c0.718,0,1.441-0.075,2.149-0.223c0.053-0.011,0.104-0.016,0.153-0.016c0.354,0,0.662,0.251,0.735,0.596
		c0.084,0.405-0.176,0.803-0.581,0.888C13.649,23.927,12.822,24.012,12,24.012z M1.611,13.53c0.062,0.422,0.151,0.848,0.267,1.267
		l0.019,0.065c0.055,0.193,0.114,0.382,0.175,0.56l0.015,0.043c0.51,1.456,1.345,2.79,2.432,3.892l0.75-3.753
		c0.07-0.349,0.379-0.603,0.735-0.603h1.079c0.2,0,0.389-0.078,0.53-0.22s0.22-0.33,0.22-0.53c0-0.061-0.008-0.123-0.022-0.182
		l-0.75-3c-0.084-0.334-0.383-0.568-0.728-0.568H1.611c-0.146,1.007-0.146,2.022-0.001,3.023C1.61,13.526,1.611,13.528,1.611,13.53z
		"/>
	<path d="M18.755,16.876c-0.044,0-0.088-0.004-0.131-0.011c-0.513-0.06-0.923-0.47-0.983-0.983
		c-0.008-0.042-0.011-0.086-0.011-0.131s0.004-0.088,0.011-0.131c0.06-0.513,0.47-0.923,0.983-0.983
		c0.042-0.008,0.086-0.011,0.131-0.011s0.088,0.004,0.131,0.011c0.513,0.06,0.923,0.47,0.983,0.983
		c0.008,0.042,0.011,0.086,0.011,0.131s-0.004,0.088-0.011,0.131c-0.06,0.513-0.47,0.923-0.983,0.983
		C18.843,16.873,18.799,16.876,18.755,16.876z"/>
	<path d="M18.753,23.927c-0.337,0-0.656-0.11-0.922-0.317c-0.098-0.076-0.185-0.164-0.26-0.261c-1.855-2.37-4.067-5.613-4.067-7.598
		c0-2.895,2.355-5.25,5.25-5.25s5.25,2.355,5.25,5.25c0,1.979-2.212,5.225-4.068,7.6C19.651,23.717,19.219,23.927,18.753,23.927z
		 M18.755,12.001c-2.068,0-3.75,1.682-3.75,3.75c0,1.162,1.437,3.719,3.75,6.676c2.313-2.959,3.75-5.517,3.75-6.676
		C22.505,13.684,20.822,12.001,18.755,12.001z"/>
</g>
</svg>
