<?xml version="1.0" encoding="utf-8"?>
<!-- Generator: Adobe Illustrator 22.1.0, SVG Export Plug-In . SVG Version: 6.00 Build 0)  -->
<svg version="1.1" id="Layer_1" xmlns="http://www.w3.org/2000/svg" xmlns:xlink="http://www.w3.org/1999/xlink" x="0px" y="0px"
	 viewBox="0 0 24 24" style="enable-background:new 0 0 24 24;" xml:space="preserve">
<title>earth-3</title>
<g>
	<path d="M12,24c-0.955,0-1.913-0.116-2.847-0.344c-0.03-0.005-0.06-0.012-0.089-0.022c-2.94-0.735-5.487-2.566-7.153-5.149
		c-0.044-0.052-0.081-0.11-0.109-0.171C0.623,16.416,0,14.234,0,12c0-2.234,0.623-4.416,1.801-6.313
		c0.029-0.062,0.066-0.12,0.11-0.173c1.661-2.576,4.2-4.404,7.152-5.149c0.034-0.011,0.07-0.019,0.106-0.025
		C10.099,0.114,11.051,0,12,0c0.949,0,1.902,0.115,2.831,0.34c0.035,0.006,0.071,0.014,0.104,0.025
		c2.953,0.745,5.491,2.573,7.153,5.149c0.045,0.053,0.082,0.11,0.111,0.173C23.377,7.584,24,9.766,24,12
		c0,2.234-0.623,4.416-1.801,6.313c-0.029,0.062-0.066,0.12-0.111,0.172c-1.666,2.583-4.213,4.414-7.176,5.155
		c-0.01,0.004-0.037,0.01-0.066,0.015C13.913,23.884,12.955,24,12,24z M9.754,22.255C10.496,22.417,11.25,22.5,12,22.5
		s1.504-0.083,2.246-0.245c0.563-0.9,1.052-2.102,1.427-3.505H8.327C8.702,20.154,9.191,21.355,9.754,22.255z M17.232,18.75
		c-0.258,1.042-0.574,1.99-0.945,2.832c1.447-0.648,2.721-1.611,3.747-2.832H17.232z M3.966,18.75
		c1.025,1.221,2.3,2.184,3.746,2.832c-0.371-0.842-0.687-1.79-0.945-2.832H3.966z M21.09,17.25c0.794-1.37,1.267-2.914,1.38-4.5
		h-4.481c-0.036,1.572-0.183,3.082-0.438,4.5H21.09z M16.016,17.25c0.271-1.409,0.433-2.951,0.472-4.5H7.512
		c0.039,1.55,0.201,3.092,0.472,4.5H16.016z M6.449,17.25c-0.255-1.418-0.402-2.928-0.438-4.5H1.53c0.113,1.586,0.586,3.13,1.38,4.5
		H6.449z M22.47,11.25c-0.113-1.586-0.586-3.13-1.38-4.5h-3.539c0.255,1.418,0.402,2.928,0.438,4.5H22.47z M16.488,11.25
		c-0.039-1.549-0.201-3.091-0.472-4.5H7.984c-0.271,1.409-0.432,2.951-0.472,4.5H16.488z M6.011,11.25
		c0.036-1.572,0.183-3.082,0.438-4.5H2.91c-0.794,1.37-1.267,2.914-1.38,4.5H6.011z M20.034,5.25
		c-1.025-1.221-2.3-2.184-3.747-2.832c0.37,0.842,0.687,1.789,0.945,2.832H20.034z M15.673,5.25
		c-0.375-1.403-0.864-2.605-1.427-3.505C13.504,1.582,12.749,1.5,12,1.5c-0.749,0-1.504,0.083-2.246,0.245
		c-0.563,0.9-1.052,2.101-1.427,3.505H15.673z M6.768,5.25c0.258-1.042,0.574-1.99,0.945-2.832C6.266,3.066,4.991,4.029,3.966,5.25
		H6.768z"/>
</g>
</svg>
