<?xml version="1.0" encoding="utf-8"?>
<!-- Generator: Adobe Illustrator 22.1.0, SVG Export Plug-In . SVG Version: 6.00 Build 0)  -->
<svg version="1.1" id="Layer_1" xmlns="http://www.w3.org/2000/svg" xmlns:xlink="http://www.w3.org/1999/xlink" x="0px" y="0px"
	 viewBox="0 0 24 24" style="enable-background:new 0 0 24 24;" xml:space="preserve">
<title>earth-model-2</title>
<g>
	<path d="M11.001,17.735c-1.463,0-2.902-0.391-4.163-1.132c-0.034-0.017-0.068-0.036-0.101-0.059
		c-2.459-1.491-3.986-4.195-3.986-7.06c0-1.126,0.225-2.22,0.669-3.252c0.014-0.039,0.031-0.076,0.05-0.111
		c1.331-2.969,4.285-4.887,7.531-4.887c0.886,0,1.763,0.143,2.605,0.424c0.024,0.007,0.048,0.015,0.071,0.025
		c3.207,1.094,5.452,4.119,5.567,7.519l0.002,0.053c0.003,0.076,0.005,0.152,0.005,0.229C19.251,14.034,15.55,17.735,11.001,17.735z
		 M8.593,15.791c0.767,0.295,1.574,0.444,2.408,0.444c3.524,0,6.474-2.776,6.73-6.256c-0.438-0.083-0.843-0.296-1.166-0.619
		l-1.155-1.155c-0.142-0.142-0.33-0.22-0.53-0.22h-0.878c-0.704,0-1.377-0.336-1.8-0.9l-0.91-1.208
		c-0.726-0.97-0.548-2.354,0.393-3.107c-0.228-0.023-0.456-0.035-0.683-0.035c-2.266,0-4.361,1.135-5.61,3h0.36
		c1.241,0,2.25,1.009,2.25,2.25v1.629c0,0.201,0.078,0.389,0.22,0.531L9.375,11.3c0.607,0.606,0.815,1.488,0.544,2.302L9.61,14.528
		c-0.146,0.436-0.417,0.812-0.784,1.088L8.593,15.791z M4.638,7.235c-0.257,0.724-0.388,1.479-0.388,2.25
		c0,2.211,1.072,4.258,2.881,5.526l0.794-0.595c0.123-0.092,0.213-0.218,0.262-0.363l0.309-0.926
		c0.09-0.271,0.021-0.565-0.182-0.767l-1.155-1.155C6.734,10.78,6.5,10.215,6.501,9.614V7.985c0-0.414-0.336-0.75-0.75-0.75H4.638z
		 M13.535,3.229c-0.307,0.242-0.618,0.483-0.902,0.703c-0.324,0.249-0.388,0.718-0.143,1.045l0.91,1.207
		c0.142,0.189,0.366,0.301,0.601,0.301h0.879c0.602,0.001,1.166,0.235,1.591,0.66c0,0,1.17,1.169,1.177,1.177
		C17.249,6.049,15.692,4.106,13.535,3.229z"/>
	<path d="M5.001,23.735c-0.414,0-0.75-0.336-0.75-0.75s0.336-0.75,0.75-0.75h5.25v-1.527c-2.461-0.163-4.8-1.132-6.655-2.757
		l-0.549,0.55c-0.142,0.142-0.33,0.22-0.531,0.22c-0.2,0-0.388-0.078-0.53-0.219c-0.293-0.293-0.293-0.768-0.001-1.061l1.06-1.061
		c0.082-0.082,0.185-0.142,0.306-0.181c0.072-0.022,0.146-0.034,0.221-0.034c0.138,0,0.275,0.039,0.395,0.113
		c0.035,0.02,0.088,0.05,0.139,0.101c1.837,1.837,4.279,2.851,6.876,2.856c0.006,0,0.03,0,0.037,0
		c2.598-0.005,5.039-1.018,6.876-2.855c1.842-1.842,2.856-4.29,2.856-6.894c0-2.604-1.014-5.052-2.855-6.894
		c-0.142-0.142-0.22-0.33-0.22-0.531c0-0.021,0.002-0.045,0.006-0.068c0.007-0.081,0.023-0.15,0.049-0.214
		c0.006-0.015,0.014-0.031,0.023-0.047c0.036-0.076,0.083-0.143,0.141-0.201l1.06-1.061c0.142-0.142,0.33-0.22,0.531-0.22
		c0.2,0,0.389,0.078,0.53,0.22c0.292,0.292,0.292,0.768,0,1.06l-0.55,0.55c1.798,2.051,2.784,4.667,2.784,7.406
		c0,3.005-1.17,5.83-3.295,7.955c-1.937,1.937-4.483,3.089-7.205,3.268v1.527h5.25c0.414,0,0.75,0.336,0.75,0.75
		s-0.336,0.75-0.75,0.75H5.001z"/>
</g>
</svg>
