<?xml version="1.0" encoding="utf-8"?>
<!-- Generator: Adobe Illustrator 22.1.0, SVG Export Plug-In . SVG Version: 6.00 Build 0)  -->
<svg version="1.1" id="Layer_1" xmlns="http://www.w3.org/2000/svg" xmlns:xlink="http://www.w3.org/1999/xlink" x="0px" y="0px"
	 viewBox="0 0 24 24" style="enable-background:new 0 0 24 24;" xml:space="preserve">
<title>earth-pin-2</title>
<g>
	<path d="M12,16.499c-1.239,0-2.451-0.341-3.507-0.985c-0.029-0.016-0.056-0.034-0.083-0.053c-1.972-1.234-3.16-3.374-3.16-5.712
		c0-1.152,0.298-2.291,0.862-3.295c0.022-0.051,0.05-0.1,0.084-0.146C7.411,4.266,9.633,2.999,12,2.999
		c2.367,0,4.588,1.267,5.803,3.308c0.034,0.046,0.062,0.095,0.085,0.147c0.564,1.004,0.862,2.143,0.862,3.295
		c0,0.483-0.053,0.97-0.158,1.449c-0.006,0.058-0.02,0.114-0.039,0.168C17.807,14.389,15.116,16.499,12,16.499z M10.369,14.74
		c0.523,0.172,1.07,0.259,1.631,0.259c2.237,0,4.239-1.443,4.963-3.542l-1.423-0.852c-0.419-0.25-0.608-0.458-1.053-1.349
		C14.332,8.945,14.25,8.597,14.25,8.25c0-0.601,0.235-1.166,0.659-1.591c0.251-0.251,0.551-0.435,0.877-0.544
		C14.799,5.081,13.45,4.499,12,4.499c-1.396,0-2.698,0.539-3.675,1.502C9.531,6.041,10.5,7.035,10.5,8.25v0.7
		c0,0.251,0.125,0.485,0.334,0.624l0.958,0.639c0.478,0.317,0.803,0.802,0.917,1.365c0.114,0.563,0.001,1.136-0.317,1.614
		c-0.158,0.239-0.361,0.441-0.601,0.601L10.369,14.74z M7.258,7.5C6.925,8.2,6.75,8.973,6.75,9.749c0,1.655,0.781,3.206,2.102,4.198
		l2.109-1.403c0.073-0.048,0.134-0.109,0.182-0.181c0.097-0.145,0.131-0.318,0.096-0.489c-0.034-0.17-0.133-0.317-0.277-0.413
		l-0.959-0.64C9.375,10.404,9,9.704,9,8.95v-0.7C9,7.836,8.664,7.5,8.25,7.5H7.258z M16.5,7.5c-0.2,0-0.389,0.078-0.53,0.219
		c-0.142,0.142-0.22,0.33-0.22,0.53c0,0.116,0.027,0.232,0.079,0.336c0.317,0.634,0.362,0.661,0.482,0.733l0.938,0.562
		c0.001-0.044,0.002-0.087,0.002-0.131c0-0.776-0.175-1.549-0.508-2.249H16.5z"/>
	<path d="M11.999,23.897c-0.26,0-0.517-0.068-0.742-0.196c-0.875-0.5-3.127-1.912-5.143-4.209C3.55,16.57,2.25,13.292,2.25,9.749
		c0-5.376,4.374-9.75,9.75-9.75s9.75,4.374,9.75,9.75c0,3.544-1.3,6.822-3.865,9.744c-2.017,2.298-4.268,3.708-5.142,4.208
		C12.517,23.829,12.26,23.897,11.999,23.897z M12,1.499c-4.549,0-8.25,3.701-8.25,8.25c0,1.861,0.595,8.273,8.25,12.649
		c7.655-4.372,8.25-10.787,8.25-12.649C20.25,5.2,16.549,1.499,12,1.499z"/>
</g>
</svg>
