<?xml version="1.0" encoding="utf-8"?>
<!-- Generator: Adobe Illustrator 22.1.0, SVG Export Plug-In . SVG Version: 6.00 Build 0)  -->
<svg version="1.1" id="Layer_1" xmlns="http://www.w3.org/2000/svg" xmlns:xlink="http://www.w3.org/1999/xlink" x="0px" y="0px"
	 viewBox="0 0 24 24" style="enable-background:new 0 0 24 24;" xml:space="preserve">
<title>earth-add</title>
<g>
	<path d="M9.654,23.747c-0.052,0-0.105-0.006-0.157-0.017c-2.687-0.573-5.024-1.994-6.759-4.108
		c-0.001-0.001-0.002-0.003-0.003-0.004c-0.067-0.082-0.133-0.165-0.198-0.248c-0.074-0.094-0.146-0.19-0.218-0.287l-0.06-0.081
		c-0.685-0.947-1.227-1.991-1.609-3.101l-0.022-0.063c-0.059-0.175-0.115-0.348-0.165-0.523l-0.009-0.034
		c-0.044-0.155-0.081-0.298-0.116-0.442c-0.017-0.071-0.034-0.143-0.05-0.214c-0.02-0.088-0.038-0.177-0.056-0.267
		c-0.032-0.159-0.06-0.319-0.086-0.48L0.12,13.714c-0.016-0.107-0.029-0.216-0.042-0.325l-0.015-0.14
		c-0.037-0.359-0.059-0.726-0.063-1.092L0,12.05C0,11.93,0,11.811,0.004,11.691l0.003-0.076c0.007-0.216,0.021-0.439,0.041-0.661
		l0.013-0.141c0.01-0.105,0.023-0.209,0.036-0.314c0.008-0.066,0.018-0.131,0.027-0.197c0.019-0.135,0.041-0.27,0.065-0.404
		c0.017-0.099,0.035-0.199,0.055-0.299C0.245,9.593,0.265,9.49,0.265,9.49c0.669-3.135,2.519-5.822,5.208-7.566
		c1.952-1.266,4.201-1.935,6.504-1.935c0.844,0,1.695,0.09,2.529,0.268c4.944,1.055,8.717,5.13,9.389,10.14
		c0.027,0.199-0.025,0.396-0.147,0.555c-0.122,0.159-0.298,0.262-0.496,0.288c-0.034,0.004-0.067,0.006-0.098,0.006
		c-0.375,0-0.695-0.28-0.745-0.65c-0.22-1.645-0.84-3.231-1.794-4.599h-3.691c-0.345,0-0.644,0.234-0.728,0.568l-0.644,2.577
		C15.469,9.477,15.17,9.71,14.825,9.71c-0.062,0-0.123-0.008-0.183-0.023c-0.194-0.048-0.357-0.17-0.461-0.341
		c-0.103-0.172-0.133-0.374-0.084-0.568l0.644-2.577c0.251-1.003,1.148-1.704,2.183-1.704h2.422
		c-1.418-1.387-3.219-2.361-5.152-2.773c-0.73-0.156-1.475-0.235-2.213-0.235c-2.014,0-3.982,0.586-5.691,1.693
		C4.18,4.55,2.65,6.601,1.939,8.997h4.392c1.034,0,1.932,0.701,2.183,1.704l0.75,3c0.045,0.178,0.067,0.362,0.067,0.546
		c0,0.601-0.234,1.166-0.659,1.591c-0.425,0.425-0.99,0.659-1.591,0.659H6.617L5.819,20.49c1.188,0.866,2.529,1.462,3.991,1.774
		c0.404,0.086,0.663,0.486,0.577,0.89C10.313,23.498,10.005,23.747,9.654,23.747z M1.501,12.213
		c0.008,0.435,0.044,0.873,0.106,1.302l0.006,0.037c0.028,0.187,0.062,0.375,0.101,0.562l0.024,0.115
		c0.037,0.169,0.078,0.336,0.123,0.503l0.029,0.11c0.052,0.184,0.111,0.373,0.175,0.561c0.015,0.043,0.031,0.085,0.047,0.128
		l0.029,0.079c0.041,0.11,0.082,0.22,0.126,0.329c0.039,0.095,0.08,0.189,0.121,0.284c0.035,0.079,0.071,0.157,0.107,0.235
		c0.049,0.103,0.098,0.207,0.151,0.309c0.02,0.04,0.099,0.185,0.099,0.185c0.094,0.175,0.197,0.354,0.306,0.531l0.045,0.074
		c0.036,0.058,0.071,0.117,0.109,0.174c0.03,0.046,0.062,0.091,0.093,0.136l0.044,0.064c0.079,0.115,0.16,0.231,0.245,0.344
		l0.084,0.111c0.262,0.34,0.545,0.664,0.845,0.968l0.75-3.753c0.07-0.349,0.379-0.603,0.735-0.603h1.079
		c0.2,0,0.389-0.078,0.53-0.22s0.22-0.33,0.22-0.531c0-0.061-0.008-0.122-0.022-0.182l-0.75-3c-0.084-0.334-0.383-0.568-0.728-0.568
		H1.609c-0.049,0.34-0.082,0.682-0.098,1.021l-0.376,0.023l0.375,0.016c-0.009,0.213-0.012,0.424-0.009,0.629L1.127,12.22
		L1.501,12.213z"/>
	<path d="M17.253,23.997c-3.722,0-6.75-3.028-6.75-6.75s3.028-6.75,6.75-6.75s6.75,3.028,6.75,6.75S20.974,23.997,17.253,23.997z
		 M17.253,11.997c-2.895,0-5.25,2.355-5.25,5.25s2.355,5.25,5.25,5.25c2.895,0,5.25-2.355,5.25-5.25S20.147,11.997,17.253,11.997z"
		/>
	<path d="M17.253,20.997c-0.414,0-0.75-0.336-0.75-0.75v-2.25h-2.25c-0.414,0-0.75-0.336-0.75-0.75s0.336-0.75,0.75-0.75h2.25v-2.25
		c0-0.414,0.336-0.75,0.75-0.75s0.75,0.336,0.75,0.75v2.25h2.25c0.414,0,0.75,0.336,0.75,0.75s-0.336,0.75-0.75,0.75h-2.25v2.25
		C18.003,20.661,17.666,20.997,17.253,20.997z"/>
</g>
</svg>
