<?xml version="1.0" encoding="utf-8"?>
<!-- Generator: Adobe Illustrator 22.1.0, SVG Export Plug-In . SVG Version: 6.00 Build 0)  -->
<svg version="1.1" id="Layer_1" xmlns="http://www.w3.org/2000/svg" xmlns:xlink="http://www.w3.org/1999/xlink" x="0px" y="0px"
	 viewBox="0 0 24 24" style="enable-background:new 0 0 24 24;" xml:space="preserve">
<title>earth-1</title>
<g>
	<path d="M11.996,24c-2.732,0-5.309-0.901-7.453-2.605c-0.006-0.004-0.012-0.008-0.017-0.012l-0.031-0.025
		c-0.086-0.069-0.162-0.132-0.238-0.196c-0.071-0.06-0.142-0.122-0.213-0.184c0,0-0.113-0.099-0.143-0.126
		c-0.13-0.118-0.257-0.24-0.381-0.363c0,0-0.018-0.018-0.018-0.018c-2.563-2.558-3.819-6.092-3.445-9.695
		c0-0.002,0.001-0.005,0.001-0.007c0.018-0.174,0.041-0.348,0.067-0.523l0.019-0.125C0.172,9.947,0.202,9.773,0.237,9.6
		C0.238,9.596,0.239,9.592,0.24,9.587C1.379,4.031,6.321,0,11.996,0c6.617,0,12,5.383,12,12c0,1.083-0.148,2.164-0.44,3.214
		l-0.009,0.032c-0.105,0.371-0.224,0.727-0.356,1.069c-0.027,0.07-0.055,0.14-0.083,0.21c-0.033,0.082-0.067,0.163-0.102,0.243
		c-0.042,0.096-0.086,0.192-0.13,0.287c0,0-0.072,0.155-0.1,0.212c-0.055,0.113-0.112,0.226-0.171,0.338
		c-0.005,0.01-0.011,0.02-0.018,0.03C20.497,21.557,16.437,24,11.996,24z M5.815,20.481c1.807,1.322,3.939,2.019,6.181,2.019
		c3.471,0,6.642-1.669,8.611-4.497h-0.59c-1.105,0-2.038-0.791-2.22-1.879L17.111,12h-0.944c-0.184,0-0.368-0.023-0.546-0.067
		c-1.203-0.301-1.938-1.525-1.636-2.729l0.75-3C14.985,5.201,15.882,4.5,16.917,4.5h2.416c-1.958-1.916-4.587-3-7.337-3
		C7.325,1.5,3.255,4.56,1.934,9h4.391c1.034,0,1.932,0.701,2.183,1.704l0.75,3c0.045,0.178,0.067,0.362,0.067,0.546
		c0,0.601-0.234,1.166-0.659,1.591C8.241,16.266,7.676,16.5,7.075,16.5H6.611L5.815,20.481z M1.567,10.794
		c-0.005,0.038-0.01,0.077-0.015,0.116c-0.02,0.185-0.033,0.37-0.043,0.554c-0.007,0.134-0.009,0.27-0.01,0.406l-0.002,0.17
		c0.001,0.145,0.005,0.29,0.011,0.435l0.006,0.127c0.009,0.154,0.02,0.308,0.035,0.461c0,0,0.005,0.041,0.005,0.041
		c0.071,0.68,0.209,1.354,0.411,2.003l0.009,0.028c0.253,0.807,0.604,1.583,1.044,2.306c0.234,0.385,0.503,0.766,0.799,1.135
		c0,0,0.095,0.118,0.124,0.152c0.07,0.084,0.142,0.166,0.215,0.248c0.076,0.085,0.154,0.169,0.234,0.253
		c0,0,0.098,0.103,0.121,0.128l0.75-3.751C5.33,15.254,5.639,15,5.996,15h1.079c0.2,0,0.389-0.078,0.53-0.22s0.22-0.33,0.22-0.531
		c0-0.062-0.007-0.123-0.022-0.181l-0.75-3C6.969,10.734,6.669,10.5,6.324,10.5H1.606C1.596,10.57,1.567,10.794,1.567,10.794z
		 M16.917,6c-0.345,0-0.644,0.234-0.728,0.568l-0.75,3c-0.1,0.401,0.145,0.809,0.546,0.91c0.059,0.015,0.12,0.022,0.182,0.022h1.579
		c0.368,0,0.679,0.264,0.74,0.627l0.791,4.75c0.061,0.363,0.372,0.626,0.74,0.626h1.461c0.171-0.358,0.321-0.727,0.449-1.1
		l0.021-0.062c1.057-3.156,0.551-6.632-1.35-9.341H16.917z"/>
</g>
</svg>
