<?xml version="1.0" encoding="utf-8"?>
<!-- Generator: Adobe Illustrator 22.1.0, SVG Export Plug-In . SVG Version: 6.00 Build 0)  -->
<svg version="1.1" id="Layer_1" xmlns="http://www.w3.org/2000/svg" xmlns:xlink="http://www.w3.org/1999/xlink" x="0px" y="0px"
	 viewBox="0 0 24 24" style="enable-background:new 0 0 24 24;" xml:space="preserve">
<title>earth-move</title>
<g>
	<path d="M12,19.5c-3.148,0-5.981-1.99-7.054-4.953c-0.017-0.04-0.031-0.079-0.041-0.119C4.636,13.645,4.5,12.827,4.5,12
		c0-0.828,0.136-1.645,0.406-2.428c0.01-0.04,0.023-0.079,0.041-0.118c0.859-2.373,2.915-4.194,5.37-4.76
		c0.04-0.013,0.082-0.022,0.123-0.028C10.954,4.555,11.479,4.5,12,4.5c0.522,0,1.048,0.056,1.562,0.165
		c0.04,0.006,0.079,0.015,0.118,0.027c2.457,0.565,4.513,2.387,5.373,4.761c0.017,0.04,0.031,0.079,0.041,0.119
		C19.364,10.356,19.5,11.173,19.5,12c0,0.827-0.136,1.644-0.406,2.429c-0.01,0.04-0.023,0.079-0.041,0.118
		C17.981,17.51,15.148,19.5,12,19.5z M11.608,17.987C11.74,17.996,11.871,18,12,18c0.13,0,0.262-0.004,0.396-0.013
		c0.329-0.973,0.586-1.975,0.769-2.987h-2.33C11.018,16.004,11.277,17.006,11.608,17.987z M6.808,15
		c0.701,1.205,1.812,2.141,3.113,2.626C9.664,16.757,9.459,15.877,9.31,15H6.808z M14.686,15c-0.148,0.885-0.351,1.764-0.604,2.625
		c1.3-0.485,2.41-1.421,3.11-2.625H14.686z M17.81,13.5C17.936,13.011,18,12.508,18,12s-0.064-1.011-0.19-1.5h-2.824
		C14.996,10.77,15,11.018,15,11.251c0.001,0.732-0.037,1.487-0.113,2.249H17.81z M13.381,13.5c0.081-0.756,0.121-1.511,0.119-2.249
		c0-0.233-0.005-0.481-0.015-0.751h-2.973c-0.036,1.002-0.001,2.009,0.106,3H13.381z M9.109,13.5c-0.099-0.99-0.132-1.995-0.098-3
		H6.19C6.064,10.989,6,11.492,6,12s0.064,1.011,0.19,1.5H9.109z M17.193,9c-0.622-1.073-1.564-1.931-2.686-2.449
		c0.17,0.805,0.298,1.625,0.38,2.449H17.193z M13.378,9c-0.106-0.99-0.283-1.976-0.527-2.938C12.566,6.021,12.281,6,12,6
		c-0.281,0-0.566,0.021-0.851,0.062C10.904,7.029,10.726,8.015,10.62,9H13.378z M9.111,9c0.083-0.818,0.212-1.638,0.385-2.45
		C8.372,7.068,7.43,7.927,6.807,9H9.111z"/>
	<path d="M12,24c-0.2,0-0.389-0.078-0.53-0.22l-1.5-1.5c-0.292-0.292-0.292-0.768,0-1.061C10.111,21.078,10.3,21,10.5,21
		s0.389,0.078,0.53,0.22l0.97,0.97l0.97-0.97C13.111,21.078,13.3,21,13.5,21s0.389,0.078,0.53,0.22c0.292,0.292,0.292,0.768,0,1.061
		l-1.5,1.5C12.389,23.922,12.2,24,12,24z"/>
	<path d="M2.25,14.25c-0.2,0-0.389-0.078-0.53-0.22l-1.5-1.5C0.078,12.389,0,12.2,0,12s0.078-0.389,0.22-0.53l1.5-1.5
		c0.142-0.142,0.33-0.22,0.53-0.22s0.389,0.078,0.53,0.22C2.922,10.111,3,10.3,3,10.5s-0.078,0.389-0.22,0.53L1.811,12l0.97,0.97
		c0.292,0.292,0.292,0.768,0,1.061C2.639,14.172,2.45,14.25,2.25,14.25z"/>
	<path d="M13.5,3c-0.2,0-0.389-0.078-0.53-0.22L12,1.811l-0.97,0.97C10.889,2.922,10.7,3,10.5,3s-0.389-0.078-0.53-0.22
		C9.828,2.639,9.75,2.45,9.75,2.25s0.078-0.389,0.22-0.53l1.5-1.5C11.611,0.078,11.8,0,12,0s0.389,0.078,0.53,0.22l1.5,1.5
		c0.142,0.141,0.22,0.33,0.22,0.53s-0.078,0.389-0.22,0.53S13.7,3,13.5,3z"/>
	<path d="M21.75,14.25c-0.2,0-0.389-0.078-0.53-0.22c-0.292-0.292-0.292-0.768,0-1.061l0.97-0.97l-0.97-0.97
		C21.078,10.889,21,10.7,21,10.5s0.078-0.389,0.22-0.53s0.33-0.22,0.53-0.22s0.389,0.078,0.53,0.22l1.5,1.5
		C23.922,11.611,24,11.8,24,12s-0.078,0.389-0.22,0.531l-1.5,1.5C22.139,14.172,21.95,14.25,21.75,14.25z"/>
</g>
</svg>
