<?xml version="1.0" encoding="utf-8"?>
<!-- Generator: Adobe Illustrator 22.1.0, SVG Export Plug-In . SVG Version: 6.00 Build 0)  -->
<svg version="1.1" id="Layer_1" xmlns="http://www.w3.org/2000/svg" xmlns:xlink="http://www.w3.org/1999/xlink" x="0px" y="0px"
	 viewBox="0 0 24 24" style="enable-background:new 0 0 24 24;" xml:space="preserve">
<title>earth-model-1</title>
<g>
	<path d="M10.986,17.5c-4.549,0-8.25-3.701-8.25-8.25S6.437,1,10.986,1c4.549,0,8.25,3.701,8.25,8.25S15.535,17.5,10.986,17.5z
		 M10.986,2.5c-3.722,0-6.75,3.028-6.75,6.75S7.264,16,10.986,16c3.722,0,6.75-3.028,6.75-6.75S14.708,2.5,10.986,2.5z"/>
	<path d="M4.986,23.5c-0.414,0-0.75-0.336-0.75-0.75S4.572,22,4.986,22h5.25v-1.532c-2.464-0.164-4.802-1.131-6.654-2.752
		l-0.551,0.55c-0.142,0.141-0.33,0.219-0.53,0.219c-0.2,0-0.389-0.078-0.53-0.22c-0.292-0.293-0.292-0.769,0-1.061l1.061-1.06
		c0.046-0.046,0.093-0.073,0.115-0.085c0.122-0.084,0.268-0.131,0.417-0.131c0.005,0,0.023,0,0.028,0
		c0.191,0.008,0.369,0.085,0.5,0.217c1.839,1.838,4.287,2.851,6.894,2.851c2.608,0,5.056-1.013,6.895-2.851
		c1.842-1.842,2.856-4.29,2.855-6.895c0-2.604-1.014-5.053-2.856-6.894c-0.057-0.057-0.104-0.123-0.141-0.201
		c-0.01-0.016-0.018-0.033-0.024-0.049c-0.026-0.064-0.042-0.134-0.048-0.214c-0.004-0.023-0.006-0.046-0.006-0.066
		c0-0.2,0.078-0.389,0.22-0.53l1.061-1.06c0.142-0.142,0.33-0.219,0.53-0.219c0.201,0,0.389,0.078,0.531,0.22
		c0.292,0.292,0.292,0.768,0,1.06l-0.55,0.549c1.798,2.051,2.784,4.666,2.784,7.405c0,3.005-1.17,5.83-3.295,7.955
		c-1.932,1.933-4.479,3.083-7.206,3.263V22h5.25c0.414,0,0.75,0.336,0.75,0.75s-0.336,0.75-0.75,0.75H4.986z"/>
</g>
</svg>
