<?xml version="1.0" encoding="utf-8"?>
<!-- Generator: Adobe Illustrator 22.1.0, SVG Export Plug-In . SVG Version: 6.00 Build 0)  -->
<svg version="1.1" id="Layer_1" xmlns="http://www.w3.org/2000/svg" xmlns:xlink="http://www.w3.org/1999/xlink" x="0px" y="0px"
	 viewBox="0 0 24 24" style="enable-background:new 0 0 24 24;" xml:space="preserve">
<title>earth-question</title>
<g>
	<path d="M9.641,23.755c-0.052,0-0.105-0.006-0.156-0.016c-2.386-0.51-4.531-1.717-6.206-3.491c-0.101-0.106-0.2-0.215-0.298-0.325
		l-0.05-0.058c-1.921-2.2-2.967-5.022-2.943-7.944l0-0.027c0.004-0.384,0.026-0.772,0.067-1.152l0.01-0.089
		c0.019-0.17,0.042-0.341,0.069-0.512l0.008-0.054c0.026-0.163,0.055-0.325,0.088-0.486C0.233,9.588,0.237,9.574,0.242,9.56
		l0.012-0.065c0.669-3.134,2.519-5.821,5.209-7.564c1.952-1.265,4.201-1.934,6.503-1.934c0.844,0,1.695,0.09,2.53,0.269
		c4.921,1.051,8.691,5.106,9.381,10.091c0.028,0.198-0.024,0.396-0.145,0.555s-0.297,0.263-0.495,0.29
		c-0.036,0.005-0.07,0.007-0.103,0.007c-0.373,0-0.692-0.278-0.743-0.648c-0.226-1.63-0.845-3.203-1.794-4.56h-3.688
		c-0.344,0-0.644,0.234-0.727,0.568l-0.472,1.887c-0.084,0.334-0.383,0.568-0.727,0.568c-0.062,0-0.123-0.008-0.183-0.023
		c-0.194-0.048-0.358-0.17-0.461-0.342c-0.103-0.172-0.133-0.373-0.084-0.568l0.472-1.887c0.251-1.003,1.148-1.704,2.182-1.704
		h2.417c-1.417-1.384-3.216-2.357-5.145-2.769c-0.73-0.156-1.475-0.235-2.214-0.235c-2.014,0-3.981,0.585-5.69,1.693
		C4.171,4.556,2.64,6.606,1.929,9h4.389c1.034,0,1.932,0.701,2.182,1.704l0.75,3c0.045,0.179,0.067,0.363,0.067,0.546
		c0,1.241-1.009,2.25-2.25,2.25H6.605l-0.797,3.987c1.194,0.873,2.535,1.473,3.99,1.784c0.196,0.042,0.364,0.157,0.473,0.325
		c0.109,0.168,0.146,0.369,0.104,0.565C10.301,23.505,9.992,23.755,9.641,23.755z M1.598,10.5c-0.014,0.097-0.027,0.193-0.038,0.29
		l-0.015,0.125c-0.019,0.182-0.033,0.364-0.042,0.546c-0.003,0.063-0.005,0.127-0.007,0.191l-0.002,0.059
		c-0.003,0.114-0.005,0.228-0.005,0.341c0,0.099,0.002,0.199,0.005,0.299c0.003,0.076,0.007,0.152,0.011,0.228l0.002,0.035
		c0.115,1.956,0.778,3.842,1.917,5.451l0.074,0.104c0.071,0.098,0.144,0.193,0.218,0.288c0.077,0.097,0.156,0.195,0.237,0.292
		c0,0,0.086,0.104,0.106,0.128c0.143,0.164,0.291,0.323,0.443,0.478l0.75-3.752C5.324,15.254,5.633,15,5.99,15h1.079
		c0.413,0,0.75-0.336,0.75-0.75c0-0.061-0.008-0.122-0.022-0.182l-0.75-3c-0.084-0.334-0.383-0.568-0.728-0.568H1.598z"/>
	<path d="M17.252,23.998c-3.722,0-6.75-3.028-6.75-6.75s3.028-6.75,6.75-6.75s6.75,3.028,6.75,6.75S20.974,23.998,17.252,23.998z
		 M17.252,11.998c-2.895,0-5.25,2.355-5.25,5.25s2.355,5.25,5.25,5.25s5.25-2.355,5.25-5.25S20.146,11.998,17.252,11.998z"/>
	<path d="M17.252,18.748c-0.414,0-0.75-0.336-0.75-0.75s0.336-0.75,0.75-0.75c0.62,0,1.125-0.505,1.125-1.125
		s-0.505-1.125-1.125-1.125s-1.125,0.505-1.125,1.125c0,0.414-0.336,0.75-0.75,0.75s-0.75-0.336-0.75-0.75
		c0-1.448,1.177-2.625,2.625-2.625s2.625,1.177,2.625,2.625S18.699,18.748,17.252,18.748z"/>
	<path d="M17.252,21.748c-0.044,0-0.088-0.004-0.131-0.011c-0.513-0.06-0.923-0.47-0.983-0.983
		c-0.008-0.042-0.011-0.086-0.011-0.131s0.004-0.088,0.011-0.131c0.06-0.513,0.47-0.923,0.983-0.983
		c0.042-0.008,0.086-0.011,0.131-0.011s0.088,0.004,0.131,0.011c0.513,0.06,0.923,0.47,0.983,0.983
		c0.008,0.042,0.011,0.086,0.011,0.131s-0.004,0.088-0.011,0.131c-0.06,0.513-0.47,0.923-0.983,0.983
		C17.34,21.744,17.296,21.748,17.252,21.748z"/>
</g>
</svg>
