<?xml version="1.0" encoding="utf-8"?>
<!-- Generator: Adobe Illustrator 22.1.0, SVG Export Plug-In . SVG Version: 6.00 Build 0)  -->
<svg version="1.1" id="Regular" xmlns="http://www.w3.org/2000/svg" xmlns:xlink="http://www.w3.org/1999/xlink" x="0px" y="0px"
	 viewBox="0 0 24 24" style="enable-background:new 0 0 24 24;" xml:space="preserve">
<title>easter-egg-bunny</title>
<g>
	<path d="M12.766,23.999c-2.678,0-4.872-1.135-6.187-3.199c-0.082-0.082-0.143-0.182-0.181-0.296
		c-0.752-1.313-1.133-2.891-1.133-4.689c0-0.813,0.077-1.623,0.228-2.407c0.002-0.015,0.006-0.034,0.01-0.053
		c0.329-1.667,0.991-3.192,1.92-4.426C7.267,8.581,7.063,8.116,6.901,7.741C6.659,7.816,6.416,7.854,6.176,7.854
		c-0.231,0-0.463-0.035-0.688-0.103C4.001,7.299,3.334,5.308,3.969,3.219c0.483-1.583,1.84-2.688,3.3-2.688
		c1.192,0.002,3.396,0.727,4.99,5.491c0.171-0.015,0.341-0.023,0.508-0.023c0.348,0,0.699,0.033,1.049,0.097
		c0.05-0.25,0.108-0.502,0.177-0.745c0.736-2.57,2.291-5.336,3.968-5.336c0.143,0,0.285,0.02,0.423,0.059
		c0.598,0.171,1.338,0.764,1.471,2.619c0.085,1.195-0.104,2.682-0.535,4.185c-0.234,0.827-0.547,1.648-0.93,2.445
		c0.08,0.119,0.158,0.24,0.233,0.363c0.047,0.057,0.085,0.119,0.113,0.185c0.002,0.004,0.003,0.009,0.005,0.014
		c0.998,1.72,1.526,3.77,1.526,5.931c0,0.281-0.01,0.567-0.031,0.849c0,0.041-0.003,0.081-0.01,0.122
		C19.858,21.236,17.001,23.999,12.766,23.999z M8.432,20.778c1.047,1.128,2.532,1.72,4.335,1.72c3.06,0,5.138-1.676,5.787-4.626
		C15.289,19.173,11.887,20.15,8.432,20.778z M6.885,14.184c-0.079,0.541-0.118,1.088-0.118,1.632c0,1.382,0.252,2.595,0.748,3.611
		c0,0,0.477-0.093,0.577-0.111c3.522-0.635,6.985-1.642,10.294-2.993c0.124-0.052,0.249-0.105,0.374-0.159
		c0.004-0.115,0.007-0.23,0.007-0.348c0-1.698-0.366-3.319-1.061-4.71C14.22,12.508,10.583,13.543,6.885,14.184z M12.766,7.499
		c-1.418,0-2.797,0.708-3.884,1.994c-0.003,0.004-0.018,0.022-0.034,0.04c-0.696,0.832-1.25,1.885-1.609,3.063
		c3.302-0.613,6.549-1.549,9.667-2.786C15.791,8.335,14.303,7.499,12.766,7.499z M15.254,6.553c0.749,0.344,1.444,0.838,2.075,1.473
		c0.216-0.515,0.4-1.037,0.548-1.559c0.384-1.341,0.554-2.642,0.481-3.667c-0.064-0.893-0.306-1.254-0.387-1.284l-0.006,0
		c-0.374,0-1.676,1.264-2.531,4.248C15.364,6.009,15.307,6.276,15.254,6.553z M8.197,6.96c0.097,0.224,0.215,0.495,0.33,0.759
		c0.688-0.617,1.455-1.083,2.256-1.371C9.836,3.6,8.566,2.033,7.271,2.031c-0.808,0-1.575,0.668-1.868,1.625
		C5.005,4.966,5.35,6.141,5.924,6.316c0.082,0.025,0.163,0.037,0.247,0.037c0.622,0,1.404-0.725,1.992-1.848
		c0.13-0.248,0.385-0.401,0.665-0.401c0.12,0,0.24,0.029,0.347,0.085c0.367,0.193,0.509,0.647,0.317,1.013
		C9.111,5.928,8.676,6.518,8.197,6.96z"/>
	<path d="M10.141,17.249c-0.044,0-0.088-0.004-0.13-0.011c-0.513-0.06-0.923-0.47-0.983-0.983c-0.008-0.043-0.011-0.087-0.011-0.131
		s0.004-0.088,0.011-0.131c0.06-0.513,0.47-0.922,0.983-0.982c0.042-0.008,0.086-0.011,0.13-0.011s0.088,0.004,0.13,0.011
		c0.513,0.06,0.923,0.469,0.983,0.982c0.008,0.043,0.011,0.087,0.011,0.131s-0.004,0.088-0.011,0.131
		c-0.06,0.513-0.47,0.922-0.983,0.983C10.229,17.245,10.186,17.249,10.141,17.249z"/>
	<path d="M15.391,15.749c-0.044,0-0.088-0.004-0.131-0.011c-0.513-0.06-0.923-0.47-0.983-0.983c-0.007-0.042-0.011-0.086-0.011-0.13
		s0.004-0.088,0.011-0.131c0.06-0.513,0.47-0.923,0.983-0.983c0.042-0.008,0.086-0.011,0.131-0.011s0.088,0.004,0.131,0.011
		c0.513,0.06,0.923,0.47,0.983,0.983c0.008,0.042,0.011,0.086,0.011,0.131s-0.004,0.088-0.011,0.131
		c-0.06,0.513-0.47,0.923-0.983,0.983C15.479,15.745,15.436,15.749,15.391,15.749z"/>
</g>
</svg>
