<?xml version="1.0" encoding="utf-8"?>
<!-- Generator: Adobe Illustrator 22.1.0, SVG Export Plug-In . SVG Version: 6.00 Build 0)  -->
<svg version="1.1" id="Regular" xmlns="http://www.w3.org/2000/svg" xmlns:xlink="http://www.w3.org/1999/xlink" x="0px" y="0px"
	 viewBox="0 0 24 24" style="enable-background:new 0 0 24 24;" xml:space="preserve">
<title>eat-vending-machine</title>
<g>
	<path d="M4.5,7.125c-1.861,0-3.375-1.514-3.375-3.375S2.639,0.375,4.5,0.375S7.875,1.889,7.875,3.75S6.361,7.125,4.5,7.125z
		 M4.5,1.875c-1.034,0-1.875,0.841-1.875,1.875S3.466,5.625,4.5,5.625S6.375,4.784,6.375,3.75S5.534,1.875,4.5,1.875z"/>
	<path d="M4.5,24c-1.654,0-3-1.346-3-3v-3.128C0.615,17.558,0,16.71,0,15.75v-4.5C0,9.182,1.682,7.5,3.75,7.5h1.5
		C7.318,7.5,9,9.182,9,11.25C9,11.664,9.336,12,9.75,12H12c1.241,0,2.25,1.009,2.25,2.25S13.241,16.5,12,16.5H9.75
		C9.336,16.5,9,16.164,9,15.75S9.336,15,9.75,15H12c0.414,0,0.75-0.336,0.75-0.75S12.414,13.5,12,13.5H9.75
		c-1.241,0-2.25-1.009-2.25-2.25C7.5,10.009,6.491,9,5.25,9h-1.5C2.509,9,1.5,10.009,1.5,11.25v4.5c0,0.414,0.336,0.75,0.75,0.75
		S3,16.836,3,17.25V21c0,0.827,0.673,1.5,1.5,1.5S6,21.827,6,21v-6c0-0.414,0.336-0.75,0.75-0.75S7.5,14.586,7.5,15v6
		C7.5,22.654,6.154,24,4.5,24z"/>
	<path d="M12.75,24c-1.241,0-2.25-1.009-2.25-2.25v-3c0-0.414,0.336-0.75,0.75-0.75S12,18.336,12,18.75v3
		c0,0.414,0.336,0.75,0.75,0.75h9c0.414,0,0.75-0.336,0.75-0.75V2.25c0-0.414-0.336-0.75-0.75-0.75h-9C12.336,1.5,12,1.836,12,2.25
		v6C12,8.664,11.664,9,11.25,9S10.5,8.664,10.5,8.25v-6C10.5,1.009,11.509,0,12.75,0h9C22.991,0,24,1.009,24,2.25v19.5
		c0,1.241-1.009,2.25-2.25,2.25H12.75z"/>
	<path d="M14.25,21c-0.414,0-0.75-0.336-0.75-0.75v-3c0-0.414,0.336-0.75,0.75-0.75h6c0.414,0,0.75,0.336,0.75,0.75v3
		c0,0.414-0.336,0.75-0.75,0.75H14.25z M19.5,19.5V18H15v1.5H19.5z"/>
	<circle cx="15" cy="4.5" r="1.125"/>
	<circle cx="19.5" cy="4.5" r="1.125"/>
	<circle cx="15" cy="9" r="1.125"/>
	<circle cx="19.5" cy="9" r="1.125"/>
	<circle cx="19.5" cy="13.5" r="1.125"/>
</g>
</svg>
