<?xml version="1.0" encoding="utf-8"?>
<!-- Generator: Adobe Illustrator 22.1.0, SVG Export Plug-In . SVG Version: 6.00 Build 0)  -->
<svg version="1.1" id="Regular" xmlns="http://www.w3.org/2000/svg" xmlns:xlink="http://www.w3.org/1999/xlink" x="0px" y="0px"
	 viewBox="0 0 24 24" style="enable-background:new 0 0 24 24;" xml:space="preserve">
<title>eco-house-sun</title>
<g>
	<path d="M5.736,21c-0.022,0-0.044-0.001-0.066-0.003c-0.412-0.036-0.718-0.401-0.682-0.812c0.054-0.613,0.151-1.193,0.29-1.726
		c-0.808-0.638-1.295-1.389-1.413-2.184c-0.129-0.871,0.182-1.749,0.899-2.54c1.446-1.489,3.452-2.338,5.513-2.338
		c0.359,0,0.722,0.026,1.077,0.077c0.224,0.032,0.419,0.162,0.536,0.355c0.117,0.193,0.14,0.426,0.064,0.639
		c-0.158,0.442-0.138,1.18-0.116,1.962c0.05,1.839,0.118,4.358-2.305,5.414c-0.327,0.142-0.673,0.213-1.03,0.213
		c-0.745,0-1.417-0.312-1.903-0.622c-0.051,0.282-0.091,0.577-0.117,0.881C6.449,20.706,6.128,21,5.736,21z M7.05,17.908
		c0.286,0.236,0.869,0.646,1.455,0.646c0.152,0,0.297-0.029,0.431-0.087c1.493-0.651,1.449-2.276,1.403-3.997
		c-0.015-0.554-0.029-1.084,0.014-1.573c-0.025,0-0.049,0-0.074,0c-1.659,0-3.271,0.679-4.421,1.864
		c-0.396,0.438-0.57,0.876-0.508,1.294c0.044,0.295,0.212,0.599,0.493,0.895c0.703-1.377,1.575-1.825,1.682-1.876
		C7.625,15.024,7.734,15,7.846,15c0.288,0,0.554,0.168,0.678,0.429c0.176,0.37,0.019,0.817-0.35,0.996l0,0
		C8.174,16.425,7.547,16.778,7.05,17.908z"/>
	<path d="M21.053,14.303c-0.2,0-0.389-0.078-0.53-0.22l-1.627-1.627c-0.064,0.048-0.128,0.093-0.192,0.136
		c-0.109,0.073-0.22,0.142-0.333,0.206c-0.114,0.064-0.242,0.098-0.371,0.098c-0.269,0-0.519-0.145-0.652-0.379
		c-0.099-0.174-0.125-0.376-0.072-0.57c0.053-0.193,0.178-0.354,0.352-0.453c0.082-0.046,0.161-0.096,0.239-0.148
		c0.168-0.113,0.333-0.247,0.493-0.398c0.01-0.014,0.023-0.03,0.038-0.045c0.025-0.025,0.05-0.044,0.07-0.057
		c0.505-0.519,0.846-1.171,0.987-1.889c0.033-0.168,0.053-0.348,0.062-0.549C19.506,8.355,19.5,8.303,19.5,8.25
		c0-0.056,0.007-0.113,0.021-0.169c-0.027-0.692-0.245-1.361-0.632-1.937c-0.099-0.148-0.215-0.293-0.354-0.443
		c-0.043-0.025-0.089-0.058-0.134-0.103c-0.044-0.044-0.077-0.091-0.103-0.134c-0.506-0.463-1.127-0.776-1.801-0.909
		c-0.195-0.038-0.405-0.061-0.623-0.067C15.832,4.496,15.791,4.5,15.75,4.5c-0.039,0-0.078-0.003-0.118-0.01
		c-0.696,0.025-1.368,0.244-1.947,0.633C13.56,5.206,13.416,5.25,13.266,5.25c-0.25,0-0.483-0.124-0.623-0.332
		c-0.112-0.166-0.152-0.366-0.114-0.563c0.039-0.197,0.151-0.366,0.318-0.478C13.494,3.443,14.232,3.158,15,3.044V0.75
		C15,0.336,15.336,0,15.75,0s0.75,0.336,0.75,0.75v2.287c0.1,0.013,0.194,0.028,0.287,0.047c0.77,0.151,1.498,0.475,2.125,0.944
		l1.611-1.61c0.142-0.142,0.33-0.22,0.53-0.22s0.389,0.078,0.53,0.22c0.142,0.142,0.22,0.33,0.22,0.53c0,0.2-0.078,0.389-0.22,0.53
		l-1.609,1.609c0.057,0.075,0.11,0.149,0.159,0.221c0.442,0.657,0.728,1.409,0.838,2.193h2.278C23.664,7.5,24,7.836,24,8.25
		S23.664,9,23.25,9h-2.281c-0.012,0.085-0.026,0.167-0.041,0.246c-0.153,0.782-0.485,1.52-0.966,2.154l1.622,1.622
		c0.142,0.142,0.22,0.33,0.22,0.53s-0.078,0.389-0.22,0.53S21.253,14.303,21.053,14.303z"/>
	<path d="M2.25,24C1.009,24,0,22.991,0,21.75v-8.379c0-0.601,0.234-1.165,0.658-1.59l6-6c0.425-0.425,0.99-0.658,1.592-0.658
		c0.602,0,1.167,0.234,1.591,0.658l6,6c0.425,0.425,0.659,0.99,0.659,1.59v8.379c0,1.241-1.009,2.25-2.25,2.25H2.25z M8.25,6.622
		c-0.2,0-0.389,0.078-0.53,0.219l-6.001,6c-0.141,0.142-0.219,0.33-0.219,0.53v8.379c0,0.414,0.336,0.75,0.75,0.75h12
		c0.414,0,0.75-0.336,0.75-0.75v-8.379c0-0.2-0.078-0.388-0.219-0.53l-6-6C8.639,6.7,8.451,6.622,8.25,6.622z"/>
</g>
</svg>
