<?xml version="1.0" encoding="utf-8"?>
<!-- Generator: Adobe Illustrator 22.1.0, SVG Export Plug-In . SVG Version: 6.00 Build 0)  -->
<svg version="1.1" id="Regular" xmlns="http://www.w3.org/2000/svg" xmlns:xlink="http://www.w3.org/1999/xlink" x="0px" y="0px"
	 viewBox="0 0 24 24" style="enable-background:new 0 0 24 24;" xml:space="preserve">
<title>eco-house</title>
<g>
	<path d="M12.762,23.499c-0.097,0-0.193-0.019-0.284-0.056c-0.186-0.076-0.33-0.219-0.408-0.404s-0.078-0.389-0.002-0.574
		c0.369-0.902,0.794-1.716,1.264-2.422c-0.776-1.124-1.092-2.25-0.914-3.273c0.187-1.073,0.899-1.988,2.061-2.645
		c1.414-0.738,2.994-1.124,4.58-1.124c1.519,0,3.036,0.356,4.388,1.03c0.203,0.101,0.347,0.285,0.397,0.505
		c0.05,0.22-0.001,0.448-0.139,0.627c-0.407,0.523-0.694,1.477-0.998,2.486c-0.681,2.261-1.613,5.356-4.926,5.659
		c-0.099,0.009-0.197,0.013-0.293,0.013c-1.548,0-2.637-1.12-3.225-1.935c-0.293,0.5-0.564,1.052-0.808,1.647
		C13.341,23.316,13.068,23.499,12.762,23.499z M15.195,20.064c0.255,0.439,1.117,1.757,2.298,1.757c0.05,0,0.101-0.002,0.152-0.007
		c2.306-0.211,2.948-2.342,3.627-4.598c0.237-0.787,0.462-1.535,0.765-2.169c-0.95-0.363-1.951-0.547-2.98-0.547
		c-1.343,0-2.678,0.326-3.861,0.943c-0.75,0.425-1.19,0.959-1.299,1.584c-0.09,0.517,0.055,1.12,0.422,1.763
		c1.484-1.587,2.817-1.796,2.974-1.815c0.032-0.004,0.062-0.006,0.092-0.006c0.378,0,0.698,0.283,0.745,0.657
		c0.051,0.408-0.24,0.783-0.647,0.836l0,0c0.001,0-0.551,0.095-1.29,0.65C15.851,19.368,15.516,19.687,15.195,20.064z"/>
	<path d="M5.385,20.5c-1.241,0-2.25-1.009-2.25-2.25v-7.5c0-0.414,0.336-0.75,0.75-0.75s0.75,0.336,0.75,0.75v7.5
		c0,0.414,0.336,0.75,0.75,0.75h3.75c0.414,0,0.75,0.336,0.75,0.75s-0.336,0.75-0.75,0.75H5.385z"/>
	<path d="M0.885,10c-0.221,0-0.43-0.097-0.573-0.266C0.183,9.581,0.121,9.387,0.138,9.188c0.017-0.2,0.11-0.381,0.263-0.51
		l9.75-8.25c0.135-0.114,0.307-0.177,0.484-0.177s0.349,0.063,0.485,0.178l9.75,8.25c0.153,0.129,0.246,0.311,0.263,0.51
		c0.017,0.2-0.045,0.394-0.175,0.547C20.815,9.903,20.606,10,20.385,10l0,0c-0.177,0-0.349-0.063-0.484-0.177l-9.266-7.84
		l-9.266,7.84C1.234,9.937,1.062,10,0.885,10z"/>
	<path d="M18.885,5.5c-0.414,0-0.75-0.336-0.75-0.75v-1.5c0-0.414-0.336-0.75-0.75-0.75h-1.5c-0.414,0-0.75-0.336-0.75-0.75
		S15.471,1,15.885,1h1.5c1.241,0,2.25,1.009,2.25,2.25v1.5C19.635,5.163,19.299,5.5,18.885,5.5z"/>
</g>
</svg>
