<?xml version="1.0" encoding="utf-8"?>
<!-- Generator: Adobe Illustrator 22.1.0, SVG Export Plug-In . SVG Version: 6.00 Build 0)  -->
<svg version="1.1" id="Regular" xmlns="http://www.w3.org/2000/svg" xmlns:xlink="http://www.w3.org/1999/xlink" x="0px" y="0px"
	 viewBox="0 0 24 24" style="enable-background:new 0 0 24 24;" xml:space="preserve">
<title>ecology-leaf-book-open</title>
<g>
	<path d="M11.999,24.005c-0.533,0-1.038-0.174-1.46-0.502c-2.428-2.055-5.361-3.344-8.492-3.738C0.879,19.611,0,18.609,0,17.434
		V6.215c0-0.109,0.008-0.221,0.023-0.33C0.111,5.261,0.436,4.708,0.94,4.328c0.413-0.311,0.903-0.476,1.417-0.476
		c0.111,0,0.223,0.008,0.333,0.023C3.1,3.936,3.509,4.01,3.909,4.097C4.313,4.185,4.57,4.585,4.482,4.989
		C4.408,5.332,4.1,5.58,3.75,5.58c-0.054,0-0.108-0.006-0.161-0.017C3.225,5.484,2.85,5.415,2.476,5.36
		C2.439,5.355,2.399,5.352,2.359,5.352c-0.426,0-0.792,0.319-0.851,0.742C1.503,6.133,1.5,6.174,1.5,6.214v11.22
		c0,0.425,0.318,0.788,0.739,0.844c3.316,0.417,6.426,1.752,9.011,3.866v-9.388c0-0.414,0.336-0.75,0.75-0.75
		c0.414,0,0.75,0.336,0.75,0.75v9.393c2.571-2.112,5.687-3.452,9.018-3.871c0.418-0.055,0.735-0.418,0.735-0.843V6.215
		c0.001-0.476-0.384-0.864-0.858-0.866c-0.043,0.002-0.084,0.003-0.122,0.008c-0.375,0.055-0.749,0.123-1.109,0.203
		c-0.053,0.012-0.108,0.018-0.162,0.018c-0.349,0-0.657-0.248-0.732-0.589c-0.089-0.403,0.167-0.804,0.571-0.894
		c0.396-0.087,0.805-0.162,1.219-0.223c0.112-0.016,0.224-0.024,0.335-0.024c1.306,0.004,2.363,1.066,2.359,2.368v11.217
		c0,1.175-0.878,2.177-2.043,2.331c-3.134,0.394-6.062,1.68-8.469,3.719C13.055,23.823,12.53,24.005,11.999,24.005z"/>
	<path d="M7.647,10.505c-0.098,0-0.193-0.019-0.284-0.056c-0.185-0.076-0.33-0.219-0.408-0.404C6.878,9.86,6.877,9.656,6.953,9.471
		c0.37-0.903,0.794-1.716,1.265-2.422c-0.777-1.124-1.093-2.25-0.916-3.271c0.186-1.072,0.899-1.987,2.062-2.647
		c1.414-0.737,2.994-1.123,4.58-1.123c1.519,0,3.037,0.356,4.389,1.029c0.202,0.101,0.347,0.285,0.397,0.505
		c0.05,0.22-0.001,0.449-0.14,0.627c-0.407,0.523-0.694,1.477-0.998,2.486c-0.68,2.26-1.612,5.356-4.925,5.659
		c-0.1,0.01-0.2,0.014-0.298,0.014c-1.545,0-2.633-1.119-3.221-1.935c-0.293,0.5-0.564,1.051-0.807,1.646
		C8.225,10.322,7.953,10.505,7.647,10.505z M10.08,7.07c0.256,0.44,1.119,1.757,2.298,1.757c0.05,0,0.1-0.002,0.151-0.007
		c2.307-0.211,2.948-2.342,3.627-4.597c0.237-0.786,0.462-1.535,0.765-2.169c-0.951-0.363-1.952-0.547-2.981-0.547
		c-1.343,0-2.677,0.326-3.86,0.942C9.33,2.875,8.888,3.411,8.78,4.034C8.69,4.55,8.836,5.153,9.203,5.796
		C10.686,4.211,12.02,4,12.177,3.98c0.031-0.004,0.063-0.006,0.094-0.006c0.377,0,0.697,0.283,0.743,0.658
		c0.051,0.407-0.24,0.782-0.647,0.836l0,0c0.001,0-0.551,0.095-1.291,0.65C10.736,6.373,10.401,6.693,10.08,7.07z"/>
</g>
</svg>
