<?xml version="1.0" encoding="utf-8"?>
<!-- Generator: Adobe Illustrator 22.1.0, SVG Export Plug-In . SVG Version: 6.00 Build 0)  -->
<svg version="1.1" id="Regular" xmlns="http://www.w3.org/2000/svg" xmlns:xlink="http://www.w3.org/1999/xlink" x="0px" y="0px"
	 viewBox="0 0 24 24" style="enable-background:new 0 0 24 24;" xml:space="preserve">
<title>ecology-leaf-book</title>
<g>
	<path d="M7.5,15c-0.098,0-0.193-0.019-0.284-0.056c-0.185-0.076-0.33-0.219-0.408-0.404c-0.077-0.185-0.078-0.389-0.002-0.574
		c0.37-0.903,0.795-1.717,1.265-2.423c-0.776-1.124-1.093-2.25-0.916-3.271c0.186-1.072,0.899-1.987,2.062-2.647
		c1.414-0.737,2.994-1.123,4.58-1.123c1.519,0,3.037,0.356,4.389,1.029c0.202,0.101,0.347,0.285,0.397,0.505
		s-0.001,0.449-0.14,0.627C18.037,7.187,17.75,8.14,17.446,9.15c-0.68,2.26-1.612,5.356-4.926,5.659
		c-0.101,0.009-0.2,0.014-0.298,0.014c-1.544,0-2.633-1.12-3.221-1.936c-0.294,0.5-0.564,1.052-0.808,1.647
		C8.078,14.817,7.806,15,7.5,15z M9.933,11.565c0.254,0.439,1.115,1.758,2.297,1.758c0.05,0,0.101-0.002,0.152-0.007
		c2.307-0.211,2.948-2.342,3.628-4.598c0.237-0.786,0.462-1.535,0.765-2.169c-0.951-0.363-1.951-0.547-2.981-0.547
		c-1.343,0-2.677,0.326-3.86,0.942c-0.751,0.426-1.192,0.962-1.3,1.585C8.544,9.044,8.69,9.647,9.057,10.291
		c1.485-1.587,2.817-1.797,2.974-1.816c0.031-0.004,0.062-0.006,0.093-0.006c0.377,0,0.697,0.283,0.743,0.658
		c0.051,0.407-0.24,0.782-0.647,0.836l0,0c0.001,0-0.551,0.095-1.291,0.65C10.589,10.868,10.255,11.188,9.933,11.565z"/>
	<path d="M5.25,24c-1.654,0-3-1.346-3-3V3.75C2.25,1.682,3.932,0,6,0h15c0.414,0,0.75,0.336,0.75,0.75v18
		c0,0.414-0.336,0.75-0.75,0.75h-0.75v3H21c0.414,0,0.75,0.336,0.75,0.75S21.414,24,21,24H5.25z M5.25,19.5
		c-0.827,0-1.5,0.673-1.5,1.5s0.673,1.5,1.5,1.5h13.5v-3H5.25z M6,1.5c-1.241,0-2.25,1.009-2.25,2.25v14.651
		C4.201,18.139,4.714,18,5.25,18h15V1.5H6z"/>
</g>
</svg>
