<?xml version="1.0" encoding="utf-8"?>
<!-- Generator: Adobe Illustrator 22.1.0, SVG Export Plug-In . SVG Version: 6.00 Build 0)  -->
<svg version="1.1" id="Regular" xmlns="http://www.w3.org/2000/svg" xmlns:xlink="http://www.w3.org/1999/xlink" x="0px" y="0px"
	 viewBox="0 0 24 24" style="enable-background:new 0 0 24 24;" xml:space="preserve">
<title>ecology-globe-nature</title>
<g>
	<path d="M13.527,9.75c-0.22,0-0.428-0.096-0.571-0.264L9.034,4.879l-0.01-0.008L5.097,9.487C4.955,9.654,4.746,9.75,4.526,9.75
		c-0.178,0-0.35-0.063-0.486-0.179C3.725,9.303,3.687,8.829,3.955,8.514l3.943-4.631c0.28-0.311,0.651-0.489,1.052-0.51
		c0.026-0.001,0.053-0.002,0.081-0.002c0.369,0,0.725,0.137,1.002,0.387c0.037,0.033,0.075,0.071,0.11,0.11l3.955,4.646
		c0.268,0.315,0.229,0.789-0.085,1.057C13.878,9.687,13.705,9.75,13.527,9.75z"/>
	<path d="M12.019,23.995c-0.291,0-0.586-0.011-0.879-0.032c-2.354-0.169-4.592-1.033-6.475-2.498c-0.102-0.049-0.19-0.12-0.26-0.209
		c-2.547-2.095-4.14-5.155-4.374-8.403c-0.054-0.83,0.574-1.547,1.399-1.6c0.029-0.002,0.063-0.003,0.097-0.003h17.25v-1.5h-1.5
		c-0.177,0-0.35-0.031-0.515-0.091c-0.376-0.137-0.676-0.413-0.845-0.776c-0.169-0.363-0.186-0.77-0.049-1.146l2.964-7.27
		C18.947,0.184,19.22,0,19.527,0c0.306,0,0.579,0.183,0.694,0.467l2.955,7.244c0.07,0.189,0.101,0.363,0.101,0.543
		c-0.001,0.4-0.157,0.776-0.441,1.059c-0.28,0.279-0.656,0.435-1.058,0.437h-1.501v1.5h2.197c0.828,0,1.501,0.674,1.501,1.502
		c0,0.034-0.001,0.069-0.004,0.104c-0.23,3.195-1.691,6.111-4.115,8.209C17.675,22.955,14.891,23.995,12.019,23.995z M5.823,20.465
		c1.595,1.17,3.466,1.861,5.424,2.002c0.256,0.019,0.516,0.028,0.772,0.028c2.512,0,4.946-0.91,6.855-2.562
		c0.659-0.571,1.242-1.218,1.74-1.929h-0.592c-1.105,0-2.038-0.79-2.22-1.879L17.24,12.75H9.023l0.239,0.953
		c0.045,0.179,0.067,0.363,0.067,0.546c0,0.601-0.234,1.166-0.659,1.591C8.245,16.266,7.68,16.5,7.079,16.5H6.615L5.823,20.465z
		 M1.543,12.75c-0.013,0.002-0.018,0.006-0.018,0.006c0.181,2.478,1.237,4.792,2.994,6.578l0.746-3.731C5.335,15.254,5.644,15,6,15
		h1.079c0.2,0,0.389-0.078,0.53-0.219c0.142-0.142,0.22-0.33,0.22-0.531c0-0.061-0.008-0.122-0.022-0.182L7.476,12.75H1.543z
		 M19.281,15.877c0.061,0.363,0.372,0.626,0.74,0.626h1.469c0.559-1.176,0.89-2.438,0.985-3.757c0,0.002-0.001,0.003-0.001,0.003
		c-0.001,0-0.002-0.003-0.002-0.003l-3.71,0.004L19.281,15.877z M21.777,8.25l-2.25-5.514l-2.247,5.511L21.777,8.25z"/>
</g>
</svg>
