<?xml version="1.0" encoding="utf-8"?>
<!-- Generator: Adobe Illustrator 22.1.0, SVG Export Plug-In . SVG Version: 6.00 Build 0)  -->
<svg version="1.1" id="Regular" xmlns="http://www.w3.org/2000/svg" xmlns:xlink="http://www.w3.org/1999/xlink" x="0px" y="0px"
	 viewBox="0 0 24 24" style="enable-background:new 0 0 24 24;" xml:space="preserve">
<title>ecology-leaf</title>
<g>
	<path d="M10.257,21.851c-2.83,0-5.466-1.46-6.984-3.84l-2.027,1.73c-0.135,0.116-0.308,0.18-0.487,0.18
		c-0.22,0-0.428-0.096-0.571-0.263c-0.13-0.152-0.193-0.346-0.177-0.546c0.016-0.2,0.109-0.382,0.261-0.511l2.296-1.959
		c-0.393-0.979-0.593-2.011-0.593-3.072c0-7.309,5.71-7.938,10.748-8.492c3.287-0.362,6.685-0.736,8.995-2.653
		c0.236-0.177,0.495-0.265,0.763-0.265c0.18,0,0.354,0.039,0.517,0.117c0.366,0.152,0.647,0.512,0.719,0.931
		c1.135,6.649-1.167,11.055-3.298,13.581C17.783,19.911,13.889,21.851,10.257,21.851L10.257,21.851z M4.426,17.027
		c1.223,2.058,3.43,3.324,5.831,3.324c3.203,0,6.657-1.736,9.016-4.532c1.882-2.23,3.908-6.098,3.031-11.947
		c-2.593,1.944-6.059,2.326-9.416,2.696c-5.259,0.579-9.412,1.036-9.412,7.001c0,0.694,0.105,1.375,0.312,2.031l0.386-0.329
		c2.679-2.062,5.668-3.551,8.897-4.439c0.065-0.018,0.132-0.027,0.198-0.027c0.337,0,0.635,0.227,0.724,0.552
		c0.053,0.193,0.028,0.395-0.072,0.569s-0.26,0.299-0.453,0.352c-3.041,0.836-5.851,2.235-8.35,4.157L4.426,17.027z"/>
</g>
</svg>
