<?xml version="1.0" encoding="utf-8"?>
<!-- Generator: Adobe Illustrator 22.1.0, SVG Export Plug-In . SVG Version: 6.00 Build 0)  -->
<svg version="1.1" id="Regular" xmlns="http://www.w3.org/2000/svg" xmlns:xlink="http://www.w3.org/1999/xlink" x="0px" y="0px"
	 viewBox="0 0 24 24" style="enable-background:new 0 0 24 24;" xml:space="preserve">
<title>ecology-leaf-bulb</title>
<g>
	<path d="M12,24c-0.414,0-0.75-0.336-0.75-0.75V22.5h-1.5C9.336,22.5,9,22.164,9,21.75S9.336,21,9.75,21h4.5
		c0.414,0,0.75,0.336,0.75,0.75s-0.336,0.75-0.75,0.75h-1.5v0.75C12.75,23.664,12.414,24,12,24z"/>
	<path d="M10.5,19.5C9.673,19.5,9,18.827,9,18v-0.521c-3.549-1.259-6.003-4.712-6-8.492c0.002-2.404,0.94-4.663,2.641-6.362
		C7.34,0.928,9.599-0.006,12-0.006c2.411,0.002,4.67,0.94,6.369,2.641C20.067,4.336,21.002,6.597,21,9.001
		c-0.002,3.775-2.455,7.221-6,8.478V18c0,0.827-0.673,1.5-1.5,1.5H10.5z M12,1.494c-2.001,0-3.883,0.779-5.299,2.193
		C5.283,5.102,4.501,6.985,4.5,8.988c-0.003,3.341,2.24,6.31,5.455,7.221c0.321,0.091,0.545,0.388,0.545,0.722V18h3v-1.069
		c0-0.334,0.224-0.631,0.546-0.722c3.21-0.909,5.453-3.874,5.454-7.21c0.001-2.004-0.777-3.888-2.193-5.305
		c-1.416-1.418-3.298-2.199-5.302-2.201L12,1.119V1.494z"/>
	<path d="M11.657,15c-0.336,0-0.634-0.227-0.723-0.551c-0.18-0.653-0.308-1.325-0.382-2.002C9.673,12.332,8.959,12,8.476,11.478
		C7.877,10.831,7.638,9.929,7.784,8.87c0.42-2.428,1.979-4.514,4.172-5.592c0.102-0.05,0.217-0.077,0.331-0.077
		c0.108,0,0.213,0.023,0.312,0.068c0.205,0.094,0.356,0.273,0.413,0.491c0.119,0.453,0.553,1.052,1.012,1.686
		c1.081,1.492,2.562,3.535,1.156,5.777c-0.689,1.095-1.907,1.325-2.808,1.325c-0.107,0-0.207-0.003-0.299-0.009
		c0.068,0.51,0.17,1.017,0.307,1.512c0.11,0.398-0.125,0.812-0.524,0.922C11.79,14.991,11.723,15,11.657,15z M11.978,11.026
		c0.102,0.011,0.239,0.021,0.395,0.021c0.523,0,1.214-0.108,1.537-0.622c0.867-1.383-0.088-2.702-1.1-4.098
		c-0.326-0.45-0.638-0.881-0.878-1.309C10.521,5.952,9.557,7.42,9.266,9.1c-0.081,0.587,0.023,1.048,0.311,1.359
		c0.202,0.218,0.509,0.374,0.903,0.46c0.003-0.348,0.02-0.689,0.05-1.018l0.092-0.669c0.051-0.369,0.37-0.647,0.742-0.647
		c0.035,0,0.069,0.002,0.105,0.007c0.409,0.057,0.696,0.436,0.639,0.846l-0.088,0.634C11.992,10.371,11.978,10.693,11.978,11.026z"
		/>
</g>
</svg>
