<?xml version="1.0" encoding="utf-8"?>
<!-- Generator: Adobe Illustrator 22.1.0, SVG Export Plug-In . SVG Version: 6.00 Build 0)  -->
<svg version="1.1" id="Regular" xmlns="http://www.w3.org/2000/svg" xmlns:xlink="http://www.w3.org/1999/xlink" x="0px" y="0px"
	 viewBox="0 0 24 24" style="enable-background:new 0 0 24 24;" xml:space="preserve">
<title>ecology-leaf-message</title>
<g>
	<path d="M7.645,16.5c-0.098,0-0.193-0.019-0.284-0.056c-0.185-0.076-0.33-0.219-0.408-0.404c-0.077-0.185-0.078-0.389-0.002-0.574
		c0.37-0.903,0.795-1.717,1.265-2.423c-0.778-1.125-1.094-2.253-0.915-3.276c0.187-1.072,0.9-1.986,2.063-2.642
		c1.413-0.737,2.993-1.124,4.58-1.124c1.519,0,3.037,0.356,4.388,1.03c0.202,0.101,0.347,0.285,0.397,0.505
		c0.05,0.22-0.001,0.449-0.14,0.627c-0.407,0.523-0.694,1.477-0.998,2.486c-0.68,2.261-1.612,5.357-4.926,5.659
		c-0.101,0.009-0.201,0.014-0.299,0.014c-1.545,0-2.632-1.119-3.219-1.935c-0.294,0.5-0.564,1.052-0.808,1.647
		C8.224,16.317,7.951,16.5,7.645,16.5z M10.079,13.064c0.255,0.439,1.119,1.757,2.302,1.757c0.048,0,0.098-0.002,0.147-0.007
		c2.306-0.21,2.948-2.341,3.627-4.597c0.237-0.786,0.462-1.535,0.765-2.17C15.969,7.684,14.969,7.5,13.94,7.5
		c-1.343,0-2.678,0.326-3.861,0.943c-0.75,0.424-1.192,0.958-1.301,1.582c-0.09,0.517,0.056,1.121,0.423,1.766
		c1.485-1.587,2.817-1.796,2.974-1.816c0.031-0.004,0.062-0.006,0.094-0.006c0.377,0,0.697,0.283,0.743,0.658
		c0.051,0.408-0.24,0.783-0.647,0.836l0,0c0.001,0-0.551,0.095-1.291,0.65C10.735,12.368,10.4,12.688,10.079,13.064z"/>
	<path d="M0.749,24c-0.201,0-0.389-0.078-0.531-0.22c-0.224-0.224-0.283-0.566-0.147-0.852l2.911-6.113
		c-0.974-1.702-1.486-3.632-1.484-5.596C1.507,5.033,6.547,0,12.733,0l0.036,0.375V0c2.102,0,4.157,0.587,5.941,1.697
		c2.548,1.585,4.327,4.071,5.01,7.001s0.186,5.946-1.399,8.494c-1.587,2.552-4.073,4.333-6.999,5.015
		c-0.848,0.198-1.714,0.298-2.574,0.298c0,0,0,0,0,0c-1.944,0-3.864-0.514-5.565-1.489l-6.113,2.912C0.97,23.975,0.859,24,0.749,24z
		 M12.743,1.5C7.37,1.503,3.006,5.862,2.998,11.221c-0.003,1.825,0.506,3.609,1.47,5.158c0.136,0.219,0.151,0.487,0.04,0.719
		l-2.174,4.567l4.567-2.175C7,19.441,7.112,19.416,7.223,19.416c0.14,0,0.278,0.039,0.397,0.114c1.55,0.964,3.325,1.474,5.131,1.474
		c0.746,0,1.497-0.087,2.232-0.258c2.536-0.591,4.69-2.135,6.066-4.346c2.839-4.565,1.435-10.589-3.13-13.429
		C16.372,2.009,14.592,1.5,12.77,1.5c-0.004,0-0.031,0-0.033,0L12.743,1.5z"/>
</g>
</svg>
