<?xml version="1.0" encoding="utf-8"?>
<!-- Generator: Adobe Illustrator 22.1.0, SVG Export Plug-In . SVG Version: 6.00 Build 0)  -->
<svg version="1.1" id="Regular" xmlns="http://www.w3.org/2000/svg" xmlns:xlink="http://www.w3.org/1999/xlink" x="0px" y="0px"
	 viewBox="0 0 24 24" style="enable-background:new 0 0 24 24;" xml:space="preserve">
<title>elephant-head</title>
<g>
	<path d="M13.941,24.012c-0.114,0-0.228-0.004-0.343-0.011c-1.545-0.008-2.783-0.695-3.58-1.988
		c-0.828-1.342-0.892-2.836-0.892-3.262v-2.759c-0.751,0.567-1.667,0.944-2.575,1.043c-0.171,0.019-0.345,0.028-0.516,0.028
		c-1.604,0-3.116-0.839-4.259-2.362c-0.192-0.257-0.2-0.607-0.02-0.872c0.14-0.205,0.372-0.328,0.621-0.328
		c0.065,0,0.131,0.009,0.194,0.025c0.035,0.01,0.066,0.017,0.098,0.024c0.164,0.037,0.334,0.057,0.503,0.057
		c1.041,0,1.941-0.698,2.204-1.703V6.75c0-1.524,0.516-2.997,1.462-4.188C5.999,1.9,4.952,1.523,3.859,1.5
		c-1.423,0-1.805,0.684-1.968,1.199C1.218,4.826,3.064,8.678,3.517,9.111c0.334,0.196,0.462,0.624,0.285,0.979
		c-0.127,0.254-0.385,0.412-0.673,0.412c-0.117,0-0.234-0.028-0.339-0.08C1.86,9.956-0.28,5.336,0.381,2.537
		C0.605,1.59,1.356,0,3.875,0c1.481,0.031,2.896,0.559,4.022,1.493C9.095,0.528,10.584,0,12.125,0c1.542,0,3.031,0.528,4.229,1.494
		c1.131-0.935,2.541-1.463,4.006-1.493c0,0,0,0,0,0c2.533,0,3.285,1.589,3.509,2.537c0.661,2.799-1.479,7.419-2.408,7.884
		c-0.104,0.052-0.22,0.079-0.335,0.079c-0.286,0-0.543-0.159-0.671-0.415c-0.178-0.356-0.045-0.787,0.294-0.984
		c0.435-0.413,2.28-4.287,1.61-6.403C22.196,2.184,21.813,1.5,20.375,1.5c-1.072,0.023-2.113,0.398-2.96,1.064
		c0.944,1.191,1.46,2.663,1.46,4.186v5.154c0.147,0.564,0.497,1.043,0.99,1.353c0.365,0.229,0.783,0.351,1.208,0.351
		c0.171,0,0.343-0.02,0.511-0.058c0.032-0.007,0.063-0.015,0.095-0.023c0.062-0.017,0.129-0.026,0.195-0.026
		c0.249,0,0.481,0.123,0.621,0.329c0.18,0.265,0.172,0.615-0.02,0.871c-1.142,1.524-2.653,2.363-4.256,2.363
		c-0.174,0-0.351-0.01-0.527-0.029c-0.906-0.102-1.819-0.479-2.567-1.044l0,1.779c0.237,0.282,1.024,0.981,3,0.981
		c0.213,0,0.416,0.091,0.558,0.249s0.21,0.37,0.188,0.582C18.595,22.107,16.476,24.012,13.941,24.012L13.941,24.012z M10.604,13.987
		c0.01,0.077,0.018,0.155,0.021,0.233l0.001,4.531c0,1.297,0.627,3.75,3,3.75c0.019,0,0.038,0.001,0.057,0.002
		c0.084,0.006,0.169,0.009,0.254,0.009c1.473,0,2.783-0.948,3.265-2.308c-0.794-0.084-1.489-0.28-2.077-0.586v0.633
		c0,0.414-0.336,0.75-0.75,0.75s-0.75-0.336-0.75-0.75v-6c0.003-0.078,0.009-0.145,0.016-0.21c-0.017-0.152,0.013-0.308,0.087-0.443
		c0.253-0.896,0.929-1.589,1.818-1.859c0.071-0.021,0.144-0.032,0.218-0.032c0.333,0,0.621,0.214,0.718,0.532
		c0.058,0.192,0.038,0.395-0.056,0.571c-0.094,0.177-0.252,0.306-0.444,0.364c-0.356,0.108-0.643,0.381-0.775,0.729
		c0.441,0.718,1.42,1.503,2.652,1.641c0.12,0.013,0.243,0.02,0.363,0.02c0.659,0,1.282-0.198,1.86-0.589
		c-0.356-0.098-0.698-0.249-1.015-0.448c-0.854-0.537-1.448-1.375-1.673-2.36c-0.002-0.007-0.003-0.015-0.004-0.023
		c-0.002-0.012-0.005-0.034-0.007-0.056c-0.003-0.022-0.005-0.043-0.006-0.064c0-0.008-0.001-5.273-0.001-5.273
		c0-2.895-2.355-5.25-5.25-5.25c-2.895,0-5.25,2.355-5.25,5.25V12c0,0.01,0,0.02-0.001,0.031c-0.001,0.016-0.003,0.032-0.005,0.047
		c-0.002,0.024-0.005,0.043-0.008,0.061c-0.001,0.009-0.003,0.017-0.005,0.025c-0.314,1.382-1.366,2.446-2.688,2.809
		c0.578,0.392,1.202,0.59,1.862,0.59c0.118,0,0.238-0.007,0.356-0.02c1.239-0.136,2.22-0.923,2.659-1.644
		c-0.132-0.345-0.419-0.617-0.776-0.725c-0.396-0.12-0.62-0.54-0.5-0.935c0.097-0.319,0.385-0.533,0.717-0.533
		c0.074,0,0.148,0.011,0.219,0.033c0.916,0.278,1.62,1.027,1.845,1.958C10.587,13.789,10.605,13.888,10.604,13.987z"/>
	<circle cx="9.5" cy="7.125" r="1.125"/>
	<circle cx="14.75" cy="7.125" r="1.125"/>
</g>
</svg>
