<?xml version="1.0" encoding="utf-8"?>
<!-- Generator: Adobe Illustrator 22.1.0, SVG Export Plug-In . SVG Version: 6.00 Build 0)  -->
<svg version="1.1" id="Regular" xmlns="http://www.w3.org/2000/svg" xmlns:xlink="http://www.w3.org/1999/xlink" x="0px" y="0px"
	 viewBox="0 0 24 24" style="enable-background:new 0 0 24 24;" xml:space="preserve">
<title>elephant-water</title>
<g>
	<path d="M19.6,22c-0.977,0-1.706-0.486-2.291-0.876c-0.503-0.335-0.936-0.624-1.459-0.624s-0.956,0.289-1.458,0.624
		C13.806,21.514,13.078,22,12.1,22c-0.977,0-1.706-0.486-2.291-0.876C9.307,20.789,8.873,20.5,8.35,20.5s-0.957,0.289-1.459,0.624
		C6.306,21.514,5.577,22,4.6,22s-1.706-0.486-2.291-0.876C1.807,20.789,1.373,20.5,0.85,20.5c-0.414,0-0.75-0.336-0.75-0.75
		S0.437,19,0.85,19c0.977,0,1.706,0.486,2.291,0.876C3.644,20.211,4.077,20.5,4.6,20.5s0.957-0.289,1.459-0.624
		C6.645,19.486,7.373,19,8.35,19s1.706,0.486,2.291,0.876c0.502,0.335,0.936,0.624,1.459,0.624c0.523,0,0.956-0.289,1.458-0.624
		C14.144,19.486,14.873,19,15.85,19s1.706,0.486,2.291,0.876c0.503,0.335,0.936,0.624,1.459,0.624c0.514,0,0.903-0.271,1.395-0.615
		C21.561,19.491,22.265,19,23.25,19c0.414,0,0.75,0.336,0.75,0.75s-0.336,0.75-0.75,0.75c-0.514,0-0.903,0.271-1.395,0.615
		C21.289,21.509,20.586,22,19.6,22z"/>
	<path d="M3.851,18.25c-0.048,0-0.097-0.005-0.146-0.014c-0.044-0.009-4.427-0.948-3.598-7.579C0.521,6.606,3.497,3.36,7.509,2.588
		c0.093-0.017,0.185-0.026,0.276-0.026c0.691,0,1.289,0.467,1.456,1.135L9.626,5.24c0.097,0.39,0.036,0.794-0.171,1.137
		C9.248,6.721,8.92,6.963,8.531,7.06c-0.002,0-0.026,0.006-0.028,0.006c-1.3,0.318-2.336,1.214-2.838,2.413
		C6.768,9.082,7.846,8.875,8.82,8.875c1.215,0,2.165,0.322,2.769,0.935c0.816-0.359,1.559-0.577,2.211-0.649
		c0.16-0.018,0.317-0.027,0.466-0.027c1.048,0,1.652,0.438,1.993,0.866h2.592c3.225,0,5.15,2.243,5.15,6
		c0,0.414-0.336,0.75-0.75,0.75S22.5,16.414,22.5,16c0-3.915-2.287-4.5-3.65-4.5h-1.986c0.302,1.513,0.245,3.832-0.807,5.143
		c-0.488,0.608-1.145,0.929-1.899,0.929c-0.237,0-0.486-0.032-0.739-0.095c-0.401-0.1-0.646-0.509-0.546-0.91
		C12.957,16.234,13.256,16,13.6,16c0.061,0,0.122,0.007,0.182,0.022c0.134,0.034,0.259,0.051,0.372,0.051
		c0.298,0,0.531-0.117,0.732-0.368c0.845-1.053,0.714-3.779,0.293-4.619c-0.067-0.135-0.225-0.451-0.919-0.451
		c-0.093,0-0.192,0.006-0.296,0.017c-0.787,0.087-1.673,0.467-2.278,0.769c-0.104,0.052-0.22,0.079-0.335,0.079
		c-0.081,0-0.161-0.013-0.238-0.039c-0.189-0.063-0.343-0.196-0.433-0.376c-0.224-0.449-0.896-0.707-1.843-0.707
		c-1.155,0-2.576,0.38-3.9,1.042C4.834,11.473,4.718,11.5,4.601,11.5c-0.15,0-0.294-0.044-0.418-0.127
		c-0.223-0.149-0.349-0.408-0.33-0.677c0.177-2.459,1.905-4.504,4.3-5.089L7.786,4.062c-3.352,0.646-5.84,3.364-6.189,6.765
		c-0.654,5.233,2.281,5.913,2.407,5.939c0.403,0.085,0.664,0.482,0.581,0.885C4.513,17.998,4.204,18.25,3.851,18.25z"/>
	<circle cx="8.725" cy="13.375" r="1.125"/>
	<path d="M17.372,6.25c-1.027,0-1.893-0.519-2.656-0.977c-0.655-0.393-1.272-0.763-1.885-0.763c-0.167,0-0.328,0.026-0.491,0.081
		c-0.077,0.026-0.157,0.038-0.237,0.038l0,0c-0.241,0-0.468-0.116-0.609-0.311c-0.193-0.267-0.19-0.625,0.008-0.888
		c1.198-1.597,3.104-2.55,5.1-2.55c2.145,0,3.332,1.295,3.527,2.498c0.198,1.22-0.504,2.285-1.79,2.713
		C18.022,6.196,17.696,6.25,17.372,6.25L17.372,6.25z M13.908,3.193c0.578,0.193,1.101,0.506,1.579,0.793
		c0.654,0.392,1.271,0.763,1.886,0.763c0.167,0,0.328-0.026,0.492-0.081c0.567-0.189,0.86-0.581,0.784-1.05
		c-0.097-0.597-0.779-1.239-2.046-1.239C15.637,2.379,14.704,2.664,13.908,3.193z"/>
</g>
</svg>
