<?xml version="1.0" encoding="utf-8"?>
<!-- Generator: Adobe Illustrator 22.1.0, SVG Export Plug-In . SVG Version: 6.00 Build 0)  -->
<svg version="1.1" id="Layer_1" xmlns="http://www.w3.org/2000/svg" xmlns:xlink="http://www.w3.org/1999/xlink" x="0px" y="0px"
	 viewBox="0 0 24 24" style="enable-background:new 0 0 24 24;" xml:space="preserve">
<title>engagement-ring</title>
<g>
	<path d="M11.75,10.684c-0.203,0-0.401-0.084-0.541-0.231L6.735,5.785c-1.028-1.025-1.283-2.599-0.63-3.91
		c0.58-1.159,1.746-1.878,3.044-1.878c0.53,0,1.039,0.121,1.515,0.359c0.326,0.163,0.623,0.377,0.882,0.635l0.201,0.201l0.201-0.201
		c0.641-0.64,1.494-0.993,2.402-0.993c0.909,0,1.762,0.353,2.403,0.994c0.259,0.259,0.472,0.555,0.635,0.882
		c0.653,1.312,0.396,2.888-0.641,3.922l-4.456,4.656C12.151,10.599,11.954,10.684,11.75,10.684z M9.146,1.495
		c-0.203,0-0.406,0.033-0.602,0.098c-0.481,0.16-0.871,0.498-1.098,0.952c-0.365,0.731-0.22,1.611,0.359,2.189l3.944,4.115
		l3.927-4.102c0.589-0.588,0.735-1.471,0.371-2.203c-0.091-0.181-0.21-0.346-0.354-0.491c-0.358-0.358-0.834-0.555-1.342-0.555
		c-0.508,0-0.984,0.197-1.342,0.554l-0.731,0.731c-0.142,0.142-0.33,0.22-0.53,0.22s-0.389-0.078-0.53-0.22l-0.731-0.731
		c-0.144-0.144-0.31-0.263-0.492-0.354C9.726,1.563,9.441,1.495,9.146,1.495z"/>
	<path d="M11.742,23.992c-2.083,0-4.114-0.729-5.72-2.054C2.195,18.78,1.65,13.096,4.808,9.268c0.365-0.442,0.773-0.851,1.215-1.215
		C6.157,7.942,6.326,7.882,6.5,7.882c0.225,0,0.436,0.099,0.579,0.272c0.263,0.32,0.218,0.793-0.101,1.056
		c-0.368,0.304-0.709,0.645-1.013,1.013c-2.632,3.19-2.177,7.926,1.013,10.558c1.338,1.104,3.03,1.711,4.766,1.711
		c2.253,0,4.364-0.993,5.792-2.724c2.632-3.19,2.177-7.926-1.012-10.558c-0.155-0.127-0.25-0.307-0.27-0.507
		c-0.019-0.199,0.041-0.394,0.168-0.549C16.565,7.981,16.776,7.881,17,7.881c0.174,0,0.343,0.061,0.477,0.172
		c3.828,3.158,4.373,8.842,1.215,12.67C16.979,22.8,14.446,23.992,11.742,23.992L11.742,23.992z"/>
	<path d="M11.738,20.997c-1.223,0-2.404-0.373-3.417-1.077c-1.315-0.916-2.195-2.289-2.478-3.867
		c-0.282-1.578,0.066-3.171,0.982-4.486c0.407-0.585,0.91-1.088,1.495-1.495C8.448,9.983,8.596,9.937,8.75,9.937
		c0.246,0,0.476,0.12,0.616,0.322c0.114,0.164,0.158,0.363,0.123,0.561c-0.035,0.197-0.145,0.369-0.31,0.483
		c-0.439,0.306-0.816,0.683-1.121,1.121c-0.687,0.987-0.948,2.181-0.737,3.365c0.212,1.183,0.872,2.213,1.858,2.9
		c0.76,0.529,1.645,0.809,2.56,0.809c0.267,0,0.538-0.024,0.804-0.072c1.184-0.212,2.213-0.872,2.9-1.858
		c0.686-0.985,0.947-2.179,0.735-3.364c-0.212-1.185-0.871-2.215-1.856-2.901c-0.339-0.236-0.423-0.705-0.187-1.044
		c0.14-0.202,0.371-0.322,0.616-0.322c0.154,0,0.302,0.047,0.429,0.135c2.715,1.891,3.385,5.637,1.495,8.353
		c-0.916,1.315-2.289,2.195-3.867,2.477C12.455,20.964,12.095,20.997,11.738,20.997z"/>
</g>
</svg>
