<?xml version="1.0" encoding="utf-8"?>
<!-- Generator: Adobe Illustrator 22.1.0, SVG Export Plug-In . SVG Version: 6.00 Build 0)  -->
<svg version="1.1" id="Layer_1" xmlns="http://www.w3.org/2000/svg" xmlns:xlink="http://www.w3.org/1999/xlink" x="0px" y="0px"
	 viewBox="0 0 24 24" style="enable-background:new 0 0 24 24;" xml:space="preserve">
<title>engagement-ring-1</title>
<g>
	<path d="M11.635,3.75c-0.414,0-0.75-0.336-0.75-0.75V0.75c0-0.414,0.336-0.75,0.75-0.75c0.413,0,0.75,0.336,0.75,0.75V3
		C12.385,3.414,12.048,3.75,11.635,3.75z"/>
	<path d="M19.06,6.825c-0.2,0-0.389-0.078-0.53-0.22c-0.142-0.141-0.22-0.33-0.22-0.53c0-0.2,0.078-0.389,0.22-0.53l1.591-1.591
		c0.142-0.142,0.33-0.22,0.53-0.22s0.389,0.078,0.53,0.22c0.142,0.141,0.22,0.33,0.22,0.53c0,0.2-0.078,0.389-0.22,0.53L19.59,6.605
		C19.449,6.747,19.26,6.825,19.06,6.825z"/>
	<path d="M4.211,6.825c-0.2,0-0.389-0.078-0.53-0.22L2.09,5.014c-0.142-0.141-0.22-0.33-0.22-0.53s0.078-0.389,0.22-0.53
		c0.141-0.142,0.33-0.22,0.53-0.22s0.389,0.078,0.53,0.22l1.591,1.591c0.142,0.141,0.22,0.33,0.22,0.53s-0.078,0.389-0.22,0.53
		C4.6,6.747,4.411,6.825,4.211,6.825z"/>
	<path d="M21.271,24c-0.371,0-0.683-0.267-0.74-0.634c-0.606-3.885-3.623-6.902-7.507-7.507c-0.461-0.072-0.93-0.109-1.394-0.109
		c-4.39,0-8.211,3.274-8.888,7.616C2.684,23.733,2.372,24,2,24c-0.038,0-0.076-0.003-0.114-0.009
		c-0.199-0.031-0.373-0.137-0.491-0.299c-0.118-0.162-0.166-0.36-0.135-0.558c0.698-4.474,4.162-7.957,8.561-8.726l-4.679-4.094
		c-0.012-0.01-0.023-0.022-0.034-0.034c-0.055-0.055-0.098-0.114-0.133-0.179c-0.003-0.005-0.013-0.025-0.016-0.03
		C4.924,10,4.902,9.921,4.892,9.837C4.891,9.829,4.888,9.802,4.888,9.794C4.885,9.777,4.885,9.767,4.885,9.75
		c0-0.062,0.009-0.126,0.027-0.194C4.914,9.549,4.92,9.53,4.922,9.523C4.946,9.448,4.98,9.38,5.023,9.318
		C5.03,9.307,5.038,9.296,5.046,9.286l2.778-3.472C8.11,5.455,8.537,5.25,8.996,5.25h5.283c0.458,0.001,0.885,0.206,1.171,0.563
		l2.771,3.469c0.009,0.012,0.018,0.025,0.027,0.038c0.044,0.063,0.077,0.13,0.1,0.202c0.002,0.008,0.01,0.033,0.012,0.04
		c0.017,0.06,0.026,0.124,0.026,0.188c0,0.018-0.002,0.049-0.005,0.066l-0.001,0.016c-0.01,0.088-0.033,0.167-0.068,0.24
		c-0.004,0.007-0.011,0.022-0.015,0.029c-0.037,0.068-0.082,0.129-0.136,0.182c-0.007,0.008-0.014,0.016-0.022,0.022l-4.687,4.102
		c4.437,0.776,7.865,4.259,8.562,8.726c0.063,0.409-0.217,0.793-0.625,0.857C21.346,23.997,21.308,24,21.271,24z M12.385,13.347
		l3.254-2.847h-3.254V13.347z M10.885,13.347V10.5H7.631L10.885,13.347z M16.076,9l-1.797-2.25h-1.894V9H16.076z M10.885,9V6.75
		l-1.89,0L7.195,9H10.885z"/>
	<path d="M5.824,24c-0.063,0-0.126-0.008-0.187-0.023c-0.401-0.104-0.643-0.513-0.54-0.913c0.449-1.746,1.551-3.213,3.103-4.13
		c1.042-0.616,2.225-0.942,3.423-0.942c0.567,0,1.136,0.073,1.692,0.215c2.383,0.613,4.244,2.474,4.857,4.856
		c0.103,0.4-0.139,0.81-0.539,0.913C17.571,23.992,17.508,24,17.446,24l0,0c-0.342,0-0.641-0.231-0.726-0.563
		c-0.477-1.854-1.924-3.301-3.777-3.778c-0.433-0.111-0.876-0.168-1.318-0.168c-0.93,0-1.85,0.253-2.661,0.732
		C7.757,20.938,6.9,22.079,6.55,23.437C6.465,23.768,6.167,24,5.824,24z"/>
</g>
</svg>
