<?xml version="1.0" encoding="utf-8"?>
<!-- Generator: Adobe Illustrator 22.1.0, SVG Export Plug-In . SVG Version: 6.00 Build 0)  -->
<svg version="1.1" id="Layer_1" xmlns="http://www.w3.org/2000/svg" xmlns:xlink="http://www.w3.org/1999/xlink" x="0px" y="0px"
	 viewBox="0 0 24 24" style="enable-background:new 0 0 24 24;" xml:space="preserve">
<title>engagement-couple</title>
<g>
	<path d="M16.492,21.751c-0.556,0-1.114-0.062-1.658-0.186c-0.403-0.092-0.657-0.494-0.565-0.897
		c0.078-0.344,0.378-0.584,0.73-0.584c0.056,0,0.113,0.006,0.168,0.019c0.435,0.099,0.881,0.149,1.325,0.149
		c0.678,0,1.348-0.115,1.99-0.341c1.509-0.532,2.72-1.619,3.412-3.062c0.691-1.443,0.779-3.069,0.247-4.578
		c-0.843-2.392-3.115-4-5.656-4c-0.675,0-1.343,0.115-1.985,0.341c-3.115,1.098-4.756,4.525-3.658,7.64
		c0.137,0.39-0.068,0.819-0.458,0.957c-0.082,0.028-0.165,0.042-0.249,0.042c-0.318,0-0.602-0.201-0.708-0.5
		c-0.665-1.887-0.555-3.92,0.309-5.724c0.864-1.804,2.379-3.164,4.266-3.829c0.219-0.077,0.442-0.144,0.667-0.201l-2.387-1.909
		c-0.306-0.245-0.373-0.676-0.156-1.002l1.5-2.25C13.766,1.625,13.999,1.5,14.25,1.5h4.5c0.251,0,0.485,0.125,0.624,0.334l1.5,2.25
		c0.217,0.326,0.151,0.757-0.155,1.002l-2.394,1.916c2.425,0.611,4.389,2.38,5.231,4.77c1.373,3.895-0.68,8.181-4.575,9.554
		C18.178,21.607,17.341,21.751,16.492,21.751z M16.5,6.54l2.745-2.196L18.349,3h-3.697l-0.896,1.344L16.5,6.54z"/>
	<path d="M7.515,21.731c-3.175,0-6.016-2.01-7.07-5.001c-1.373-3.896,0.68-8.181,4.575-9.554C5.823,6.893,6.66,6.75,7.509,6.75
		c0.556,0,1.114,0.063,1.657,0.186C9.361,6.98,9.528,7.098,9.635,7.267c0.107,0.169,0.141,0.37,0.097,0.566
		C9.654,8.177,9.353,8.417,9.001,8.417c-0.056,0-0.112-0.006-0.167-0.019C8.4,8.3,7.954,8.25,7.509,8.25
		c-0.679,0-1.348,0.115-1.99,0.341c-3.115,1.098-4.756,4.525-3.659,7.641c0.843,2.392,3.116,4,5.655,4
		c0.675,0,1.343-0.115,1.985-0.342c1.509-0.532,2.721-1.619,3.412-3.062c0.691-1.443,0.779-3.069,0.247-4.578
		c-0.067-0.189-0.056-0.393,0.031-0.573c0.087-0.181,0.239-0.317,0.428-0.383c0.08-0.028,0.164-0.043,0.249-0.043
		c0.317,0,0.602,0.201,0.707,0.501c0.665,1.887,0.555,3.92-0.309,5.724c-0.864,1.805-2.379,3.165-4.266,3.83
		C9.196,21.588,8.36,21.731,7.515,21.731L7.515,21.731z"/>
</g>
</svg>
