<?xml version="1.0" encoding="utf-8"?>
<!-- Generator: Adobe Illustrator 22.1.0, SVG Export Plug-In . SVG Version: 6.00 Build 0)  -->
<svg version="1.1" id="Layer_1" xmlns="http://www.w3.org/2000/svg" xmlns:xlink="http://www.w3.org/1999/xlink" x="0px" y="0px"
	 viewBox="0 0 24 24" style="enable-background:new 0 0 24 24;" xml:space="preserve">
<title>equipment-cement</title>
<g>
	<path d="M11.25,19.501c-0.414,0-0.75-0.336-0.75-0.75s0.336-0.75,0.75-0.75h1.5c0.414,0,0.75,0.336,0.75,0.75
		s-0.336,0.75-0.75,0.75H11.25z"/>
	<path d="M18,22.501c-1.654,0-3-1.346-3-3s1.346-3,3-3c1.056,0,2.041,0.57,2.578,1.473c1.095-0.159,1.922-1.095,1.922-2.223v-5.25
		h-21v5.25c0,1.128,0.827,2.064,1.922,2.223C3.959,17.072,4.944,16.501,6,16.501c1.654,0,3,1.346,3,3s-1.346,3-3,3s-3-1.346-3-3
		c0-0.025,0-0.05,0.001-0.075C1.266,19.077,0,17.558,0,15.751v-6c0-0.414,0.336-0.75,0.75-0.75h0.831
		C1.357,7.95,1.597,6.85,2.261,5.976c0.711-0.938,1.797-1.475,2.978-1.475c0.492,0,0.98,0.098,1.432,0.286
		c0.715-1.42,1.967-2.5,3.487-2.993c0.597-0.194,1.215-0.292,1.838-0.292c2.275,0,4.329,1.278,5.335,3.287
		c0.454-0.188,0.942-0.286,1.432-0.286c1.012,0.004,1.949,0.397,2.652,1.107c0.704,0.71,1.089,1.649,1.084,2.646
		c-0.001,0.252-0.028,0.501-0.08,0.747h0.83c0.414,0,0.75,0.336,0.75,0.75v6c0,1.807-1.266,3.326-3.001,3.675
		C21,19.452,21,19.477,21,19.501C21,21.156,19.654,22.501,18,22.501z M18,18.001c-0.827,0-1.5,0.673-1.5,1.5s0.673,1.5,1.5,1.5
		s1.5-0.673,1.5-1.5S18.827,18.001,18,18.001z M6,18.001c-0.827,0-1.5,0.673-1.5,1.5s0.673,1.5,1.5,1.5s1.5-0.673,1.5-1.5
		S6.827,18.001,6,18.001z M20.858,9.001C20.95,8.756,20.999,8.499,21,8.248c0.005-1.233-0.994-2.241-2.228-2.246
		c-0.493,0-0.973,0.161-1.359,0.453c-0.13,0.098-0.29,0.152-0.453,0.152c-0.076,0-0.151-0.011-0.224-0.034
		c-0.232-0.073-0.414-0.254-0.489-0.484c-0.6-1.847-2.308-3.087-4.251-3.087c-0.466,0-0.929,0.073-1.376,0.219
		C9.265,3.66,8.193,4.732,7.752,6.088C7.677,6.319,7.494,6.5,7.263,6.572C7.192,6.595,7.116,6.607,7.039,6.607
		c-0.163,0-0.324-0.054-0.453-0.153C6.195,6.157,5.729,6,5.238,6C4.531,6,3.881,6.322,3.455,6.883
		C2.989,7.497,2.874,8.291,3.137,9.001H20.858z"/>
</g>
</svg>
