<?xml version="1.0" encoding="utf-8"?>
<!-- Generator: Adobe Illustrator 22.1.0, SVG Export Plug-In . SVG Version: 6.00 Build 0)  -->
<svg version="1.1" id="Layer_1" xmlns="http://www.w3.org/2000/svg" xmlns:xlink="http://www.w3.org/1999/xlink" x="0px" y="0px"
	 viewBox="0 0 24 24" style="enable-background:new 0 0 24 24;" xml:space="preserve">
<title>equipment-cement-cart</title>
<g>
	<path d="M6.751,21.747c-2.068,0-3.75-1.682-3.75-3.75c0-0.712,0.2-1.398,0.582-1.998l-3.227-4.296
		c-0.017-0.022-0.033-0.047-0.048-0.073c-0.625-1.071-0.262-2.452,0.809-3.077c0.12-0.07,0.249-0.129,0.385-0.176
		c0-0.016,0-0.031,0-0.046C1.498,8.119,1.517,7.897,1.557,7.679C1.855,6.077,3.252,4.915,4.88,4.915c0.017,0,0.033,0,0.05,0
		c0.558-0.949,1.405-1.717,2.407-2.176c0.715-0.328,1.471-0.494,2.248-0.494c0.641,0,1.274,0.115,1.882,0.34
		c1.173,0.436,2.151,1.258,2.779,2.33c0.023,0,0.095,0,0.096,0c1.832,0.026,3.307,1.512,3.332,3.332h0.328
		c0.525,0,1.027,0.183,1.427,0.512l3.293-3.293c0.142-0.142,0.33-0.22,0.53-0.22s0.389,0.078,0.53,0.22
		c0.142,0.142,0.22,0.33,0.22,0.53c0,0.2-0.078,0.389-0.22,0.53l-3.567,3.567c0.025,0.134,0.037,0.268,0.037,0.402
		c0,0.446-0.131,0.877-0.378,1.248c-0.027,0.04-0.055,0.075-0.087,0.108l-0.285,0.292v5.852c0,0.601-0.233,1.166-0.658,1.591
		c-0.425,0.425-0.99,0.66-1.591,0.66c-0.581,0-1.13-0.219-1.549-0.617l-2.031-1.506c-0.416,0.396-0.977,0.622-1.553,0.622h-1.694
		C10.074,20.48,8.55,21.747,6.751,21.747z M6.751,15.747c-1.241,0-2.25,1.009-2.25,2.25s1.009,2.25,2.25,2.25s2.25-1.009,2.25-2.25
		S7.992,15.747,6.751,15.747z M16.637,18.456c0.028,0.021,0.056,0.045,0.081,0.07c0.144,0.144,0.333,0.222,0.534,0.222
		c0.2,0,0.388-0.078,0.53-0.22c0.142-0.142,0.22-0.33,0.219-0.53v-4.313l-3.272,3.358L16.637,18.456z M12.118,17.247
		c0.202,0,0.397-0.083,0.538-0.227l0.348-0.357c0.028-0.034,0.059-0.066,0.094-0.097l5.557-5.702
		c0.063-0.112,0.096-0.238,0.096-0.367c0-0.414-0.336-0.75-0.75-0.75H2.251c-0.133,0-0.264,0.035-0.378,0.102
		c-0.345,0.201-0.47,0.643-0.287,0.994l3.051,4.061c0.621-0.426,1.359-0.657,2.115-0.657c1.799,0,3.323,1.268,3.673,3H12.118z
		 M16.172,8.247c-0.03-1.006-0.844-1.818-1.853-1.832l-0.044-0.001c-0.102,0-0.212,0.011-0.326,0.032
		c-0.046,0.009-0.092,0.013-0.137,0.013c-0.292,0-0.56-0.172-0.682-0.438c-0.434-0.947-1.211-1.667-2.187-2.03
		c-0.44-0.163-0.897-0.246-1.359-0.246c-0.56,0-1.106,0.12-1.623,0.357c-0.849,0.389-1.53,1.071-1.919,1.919
		C5.921,6.288,5.654,6.46,5.362,6.46c-0.046,0-0.093-0.004-0.139-0.013C5.111,6.426,4.995,6.415,4.881,6.415
		c-0.906,0-1.683,0.646-1.849,1.537C3.014,8.049,3.004,8.148,3.001,8.247H16.172z"/>
</g>
</svg>
