<?xml version="1.0" encoding="utf-8"?>
<!-- Generator: Adobe Illustrator 22.1.0, SVG Export Plug-In . SVG Version: 6.00 Build 0)  -->
<svg version="1.1" id="Layer_1" xmlns="http://www.w3.org/2000/svg" xmlns:xlink="http://www.w3.org/1999/xlink" x="0px" y="0px"
	 viewBox="0 0 24 24" style="enable-background:new 0 0 24 24;" xml:space="preserve">
<title>escalator-ascend-person</title>
<g>
	<path d="M3,23.063c-1.654,0-3-1.346-3-3s1.346-3,3-3h3.257l8.121-8.121c0.567-0.567,1.32-0.879,2.121-0.879H21c1.654,0,3,1.346,3,3
		s-1.346,3-3,3h-3.258l-8.121,8.121c-0.567,0.566-1.319,0.878-2.12,0.879C7.501,23.063,3,23.063,3,23.063z M3,18.563
		c-0.827,0-1.5,0.673-1.5,1.5s0.673,1.5,1.5,1.5h4.5c0.401,0,0.778-0.157,1.061-0.44l8.341-8.34c0.14-0.14,0.333-0.22,0.53-0.22H21
		c0.827,0,1.5-0.673,1.5-1.5s-0.673-1.5-1.5-1.5h-4.5c-0.401,0-0.777,0.156-1.061,0.44l-8.341,8.341
		c-0.142,0.142-0.33,0.22-0.53,0.22H3z"/>
	<path d="M17.25,23.063c-0.2,0-0.389-0.078-0.53-0.22c-0.292-0.292-0.292-0.768,0-1.061l4.72-4.72H18.75
		c-0.414,0-0.75-0.336-0.75-0.75s0.336-0.75,0.75-0.75h4.5c0.087,0,0.174,0.016,0.258,0.046c0.006,0.002,0.011,0.004,0.017,0.006
		c0.195,0.08,0.343,0.229,0.419,0.412c0.003,0.008,0.007,0.017,0.01,0.026C23.984,16.136,24,16.224,24,16.313v4.5
		c0,0.414-0.336,0.75-0.75,0.75s-0.75-0.336-0.75-0.75v-2.689l-4.72,4.72C17.639,22.985,17.45,23.063,17.25,23.063z"/>
	<path d="M9,6.938c-1.654,0-3-1.346-3-3s1.346-3,3-3s3,1.346,3,3S10.654,6.938,9,6.938z M9,2.438c-0.827,0-1.5,0.673-1.5,1.5
		s0.673,1.5,1.5,1.5s1.5-0.673,1.5-1.5S9.827,2.438,9,2.438z"/>
	<path d="M6.75,14.063c-0.414,0-0.75-0.336-0.75-0.75v-3.75c0-1.654,1.346-3,3-3s3,1.346,3,3c0,0.414-0.336,0.75-0.75,0.75
		s-0.75-0.336-0.75-0.75c0-0.827-0.673-1.5-1.5-1.5s-1.5,0.673-1.5,1.5v3.75C7.5,13.727,7.164,14.063,6.75,14.063z"/>
</g>
</svg>
