<?xml version="1.0" encoding="utf-8"?>
<!-- Generator: Adobe Illustrator 22.1.0, SVG Export Plug-In . SVG Version: 6.00 Build 0)  -->
<svg version="1.1" id="Layer_1" xmlns="http://www.w3.org/2000/svg" xmlns:xlink="http://www.w3.org/1999/xlink" x="0px" y="0px"
	 viewBox="0 0 24 24" style="enable-background:new 0 0 24 24;" xml:space="preserve">
<title>escalator-descend-person</title>
<g>
	<path d="M3,23.438c-1.654,0-3-1.346-3-3s1.346-3,3-3h3.257l8.121-8.121c0.567-0.567,1.32-0.879,2.121-0.879H21c1.654,0,3,1.346,3,3
		s-1.346,3-3,3h-3.258l-8.121,8.121c-0.567,0.566-1.319,0.878-2.12,0.879C7.501,23.438,3,23.438,3,23.438z M3,18.938
		c-0.827,0-1.5,0.673-1.5,1.5s0.673,1.5,1.5,1.5h4.5c0.401,0,0.778-0.157,1.061-0.44l8.341-8.34c0.14-0.14,0.333-0.22,0.53-0.22H21
		c0.827,0,1.5-0.673,1.5-1.5c0-0.827-0.673-1.5-1.5-1.5h-4.5c-0.401,0-0.777,0.156-1.061,0.44l-8.341,8.341
		c-0.142,0.142-0.33,0.22-0.53,0.22H3z"/>
	<path d="M17.25,23.438c-0.087,0-0.174-0.016-0.258-0.047c-0.006-0.002-0.011-0.004-0.017-0.006
		c-0.195-0.08-0.343-0.229-0.419-0.412c-0.003-0.008-0.007-0.017-0.01-0.026c-0.031-0.082-0.047-0.17-0.047-0.259v-4.5
		c0-0.414,0.336-0.75,0.75-0.75S18,17.775,18,18.188v2.689l4.72-4.72c0.142-0.142,0.33-0.22,0.53-0.22s0.389,0.078,0.53,0.22
		s0.22,0.33,0.22,0.53s-0.078,0.389-0.22,0.53l-4.72,4.72h2.689c0.414,0,0.75,0.336,0.75,0.75s-0.336,0.75-0.75,0.75H17.25z"/>
	<path d="M9,6.563c-1.654,0-3-1.346-3-3s1.346-3,3-3s3,1.346,3,3S10.654,6.563,9,6.563z M9,2.063c-0.827,0-1.5,0.673-1.5,1.5
		s0.673,1.5,1.5,1.5s1.5-0.673,1.5-1.5S9.827,2.063,9,2.063z"/>
	<path d="M6.75,14.438c-0.414,0-0.75-0.336-0.75-0.75v-4.5c0-1.654,1.346-3,3-3s3,1.346,3,3c0,0.414-0.336,0.75-0.75,0.75
		s-0.75-0.336-0.75-0.75c0-0.827-0.673-1.5-1.5-1.5s-1.5,0.673-1.5,1.5v4.5C7.5,14.102,7.164,14.438,6.75,14.438z"/>
</g>
</svg>
