<?xml version="1.0" encoding="utf-8"?>
<!-- Generator: Adobe Illustrator 22.1.0, SVG Export Plug-In . SVG Version: 6.00 Build 0)  -->
<svg version="1.1" id="Regular" xmlns="http://www.w3.org/2000/svg" xmlns:xlink="http://www.w3.org/1999/xlink" x="0px" y="0px"
	 viewBox="0 0 24 24" style="enable-background:new 0 0 24 24;" xml:space="preserve">
<title>exotic-food-oyster</title>
<g>
	<path d="M12,20.996c-6.841,0-12-2.255-12-5.246c0.027-0.771,0.329-1.485,0.852-2.022C0.995,13.581,1.186,13.5,1.39,13.5
		c0.196,0,0.382,0.075,0.522,0.212c0.144,0.139,0.224,0.327,0.227,0.527c0.003,0.2-0.073,0.39-0.212,0.533
		C1.665,15.043,1.513,15.4,1.5,15.777c0,1.512,3.74,3.719,10.5,3.719c6.694,0,10.441-2.188,10.499-3.714
		c-0.085-0.687-0.498-1.292-1.107-1.623c-0.176-0.096-0.304-0.254-0.361-0.446s-0.035-0.395,0.06-0.571
		c0.131-0.241,0.384-0.392,0.659-0.392c0.124,0,0.247,0.031,0.357,0.09c1.058,0.575,1.763,1.632,1.889,2.827
		C23.999,15.697,24,15.721,24,15.746C24,18.739,18.841,20.996,12,20.996z"/>
	<path d="M12,16.5c-4.276,0-7.5-1.612-7.5-3.75c0.005-0.216,0.039-0.427,0.103-0.634C3.567,11.464,3,10.632,3,9.75
		c0-1.251,1.089-2.349,3-3.037C6.037,4.594,9.249,3,13.5,3C17.776,3,21,4.612,21,6.75c0,1.245-1.089,2.342-3,3.035
		c-0.004,0.2-0.037,0.399-0.099,0.595c1.034,0.649,1.599,1.482,1.599,2.37C19.5,14.888,16.276,16.5,12,16.5z M6,12.785
		C6.03,13.711,8.307,15,12,15c3.717,0,6-1.311,6-2.25c0-0.361-0.34-0.764-0.943-1.128c-1.289,1.164-3.76,1.878-6.557,1.878
		C8.854,13.5,7.276,13.248,6,12.785z M5.98,11.17C7.151,11.705,8.754,12,10.5,12c3.1,0,5.183-0.909,5.806-1.753
		c0.001-0.001,0.002-0.002,0.003-0.003c-0.883,0.17-1.825,0.256-2.809,0.256c-3.187,0-5.937-0.942-7.009-2.37
		C5.272,8.571,4.5,9.194,4.5,9.75c0,0.434,0.494,0.936,1.323,1.345C5.877,11.113,5.93,11.138,5.98,11.17z M13.5,4.5
		c-3.717,0-6,1.31-6,2.25S9.783,9,13.5,9c1.213,0,2.376-0.145,3.368-0.419c0.012-0.006,0.024-0.011,0.037-0.016
		c0.045-0.016,0.092-0.028,0.141-0.036C18.741,8.025,19.5,7.274,19.5,6.75C19.5,5.81,17.217,4.5,13.5,4.5z"/>
	<circle cx="15" cy="6.75" r="1.125"/>
</g>
</svg>
