<?xml version="1.0" encoding="utf-8"?>
<!-- Generator: Adobe Illustrator 22.1.0, SVG Export Plug-In . SVG Version: 6.00 Build 0)  -->
<svg version="1.1" id="Regular" xmlns="http://www.w3.org/2000/svg" xmlns:xlink="http://www.w3.org/1999/xlink" x="0px" y="0px"
	 viewBox="0 0 24 24" style="enable-background:new 0 0 24 24;" xml:space="preserve">
<title>exotic-food-samosa</title>
<g>
	<path d="M5.25,10.5C2.355,10.5,0,8.145,0,5.25V3c0-1.71,2.257-3,5.25-3s5.25,1.29,5.25,3v2.25C10.5,8.145,8.145,10.5,5.25,10.5z
		 M1.5,5.25C1.5,7.318,3.182,9,5.25,9S9,7.318,9,5.25V5.13C8.035,5.682,6.692,6,5.25,6S2.465,5.682,1.5,5.13V5.25z M5.25,1.5
		C3.357,1.5,1.5,2.243,1.5,3s1.857,1.5,3.75,1.5S9,3.757,9,3S7.142,1.5,5.25,1.5z"/>
	<path d="M12.75,24c-0.103,0-0.202-0.021-0.296-0.061l-10.5-4.5c-0.268-0.115-0.446-0.377-0.454-0.667
		c-0.008-0.291,0.154-0.562,0.414-0.693l3-1.5c0.104-0.052,0.22-0.079,0.335-0.079c0.286,0,0.543,0.159,0.671,0.414
		c0.185,0.37,0.034,0.821-0.335,1.006l-1.554,0.777l8.718,3.736l8.718-3.736l-1.554-0.777c-0.37-0.185-0.52-0.636-0.335-1.006
		c0.128-0.256,0.385-0.415,0.671-0.415c0.115,0,0.231,0.027,0.334,0.078l3.001,1.5c0.26,0.131,0.423,0.403,0.414,0.693
		c-0.008,0.29-0.186,0.552-0.454,0.667l-10.5,4.5C12.952,23.979,12.852,24,12.75,24z"/>
	<path d="M9.332,19.5c-0.39,0-0.775-0.103-1.113-0.296c-0.522-0.298-0.897-0.782-1.055-1.362s-0.081-1.187,0.217-1.708l3.417-5.977
		c0.199-0.345,0.485-0.631,0.828-0.829c0.341-0.196,0.728-0.3,1.12-0.3c0.805,0,1.553,0.432,1.953,1.127l0.784,1.372
		c0.022,0.033,0.041,0.065,0.056,0.099l2.577,4.509c0.193,0.339,0.296,0.723,0.296,1.112c0.002,1.241-1.006,2.252-2.246,2.254
		C16.166,19.5,9.332,19.5,9.332,19.5z M16.164,18c0.199,0,0.387-0.079,0.529-0.221s0.219-0.331,0.219-0.531
		c0-0.13-0.034-0.258-0.099-0.371l-1.582-2.768c-0.572,1.644-1.696,2.986-2.635,3.89H16.164z M12.747,10.528
		c-0.13,0-0.259,0.035-0.373,0.1c-0.115,0.066-0.21,0.161-0.276,0.276l-3.416,5.975c-0.099,0.174-0.125,0.376-0.072,0.569
		s0.177,0.354,0.351,0.454C9.075,17.966,9.203,18,9.333,18h0.93c0.674-0.492,3.714-2.871,3.84-5.864l-0.706-1.235
		C13.265,10.671,13.016,10.528,12.747,10.528z"/>
</g>
</svg>
