<?xml version="1.0" encoding="utf-8"?>
<!-- Generator: Adobe Illustrator 22.1.0, SVG Export Plug-In . SVG Version: 6.00 Build 0)  -->
<svg version="1.1" id="Layer_1" xmlns="http://www.w3.org/2000/svg" xmlns:xlink="http://www.w3.org/1999/xlink" x="0px" y="0px"
	 viewBox="0 0 24 24" style="enable-background:new 0 0 24 24;" xml:space="preserve">
<title>family-child-teeter</title>
<g>
	<path d="M21,6c-1.654,0-3-1.346-3-3s1.346-3,3-3s3,1.346,3,3S22.654,6,21,6z M21,1.5c-0.827,0-1.5,0.673-1.5,1.5s0.673,1.5,1.5,1.5
		s1.5-0.673,1.5-1.5S21.827,1.5,21,1.5z"/>
	<path d="M17.984,17.997c-0.14,0-0.281-0.013-0.418-0.039c-0.596-0.119-1.105-0.459-1.438-0.959c-0.333-0.5-0.452-1.1-0.334-1.689
		l0.75-3.75c0.209-1.048,1.137-1.809,2.206-1.809h0.75v-1.5C19.5,7.009,20.509,6,21.75,6S24,7.009,24,8.25V12
		c0,1.241-1.009,2.25-2.25,2.25h-1.156l-0.388,1.942C19.986,17.24,19.051,17.997,17.984,17.997z M18.75,11.25
		c-0.356,0-0.666,0.254-0.736,0.603l-0.75,3.75c-0.039,0.197,0,0.396,0.112,0.563c0.111,0.166,0.28,0.28,0.476,0.319
		c0.041,0.008,0.088,0.012,0.135,0.012c0.361,0,0.677-0.255,0.751-0.607l0.507-2.538c0.07-0.349,0.379-0.603,0.735-0.603h1.771
		c0.414,0,0.75-0.336,0.75-0.75V8.25c0-0.414-0.336-0.75-0.75-0.75S21,7.836,21,8.25v2.25c0,0.414-0.336,0.75-0.75,0.75H18.75z"/>
	<path d="M3,9.75c-1.654,0-3-1.346-3-3s1.346-3,3-3s3,1.346,3,3S4.654,9.75,3,9.75z M3,5.25c-0.827,0-1.5,0.673-1.5,1.5
		s0.673,1.5,1.5,1.5s1.5-0.673,1.5-1.5S3.827,5.25,3,5.25z"/>
	<path d="M5.999,21.751c-1.047,0-1.971-0.742-2.196-1.765c0,0-0.005-0.018-0.009-0.037L3.405,18H2.25C1.009,18,0,16.991,0,15.75V12
		c0-1.241,1.009-2.25,2.25-2.25S4.5,10.759,4.5,12v1.5h0.75c1.069,0,1.997,0.761,2.206,1.809l0.75,3.75
		c0.118,0.589,0,1.189-0.334,1.689c-0.333,0.5-0.841,0.84-1.431,0.958C6.295,21.736,6.147,21.751,5.999,21.751L5.999,21.751z
		 M5.265,19.652c0.069,0.346,0.378,0.599,0.734,0.599c0.049,0,0.099-0.005,0.148-0.015c0.197-0.039,0.366-0.153,0.477-0.32
		c0.111-0.167,0.151-0.367,0.111-0.563l-0.75-3.75C5.915,15.254,5.606,15,5.25,15h-1.5C3.336,15,3,14.664,3,14.25V12
		c0-0.414-0.336-0.75-0.75-0.75S1.5,11.586,1.5,12v3.75c0,0.414,0.336,0.75,0.75,0.75h1.771c0.356,0,0.666,0.254,0.736,0.603
		l0.502,2.518c0-0.001,0-0.001,0-0.001C5.258,19.621,5.262,19.636,5.265,19.652z"/>
	<path d="M0.749,21c-0.354,0-0.662-0.251-0.734-0.598c-0.041-0.196-0.002-0.396,0.108-0.564s0.279-0.282,0.475-0.322l1.438-0.297
		c0.05-0.01,0.101-0.016,0.152-0.016c0.354,0,0.662,0.252,0.734,0.598c0.041,0.196,0.002,0.396-0.108,0.564
		s-0.279,0.282-0.475,0.322l-1.438,0.297C0.852,20.995,0.801,21,0.749,21z"/>
	<path d="M9.75,24C9.336,24,9,23.664,9,23.25s0.336-0.75,0.75-0.75h1.5v-3.656l-1.417,0.293c-0.049,0.01-0.101,0.016-0.152,0.016
		c-0.354,0-0.662-0.251-0.734-0.598c-0.084-0.405,0.177-0.803,0.582-0.886l4.461-0.924c0.049-0.01,0.101-0.016,0.153-0.016
		c0.354,0,0.662,0.251,0.734,0.598c0.084,0.405-0.177,0.802-0.582,0.886l-1.544,0.32V22.5h1.5c0.414,0,0.75,0.336,0.75,0.75
		S14.663,24,14.25,24H9.75z"/>
	<path d="M21.631,16.68c-0.354,0-0.662-0.251-0.734-0.598c-0.084-0.405,0.177-0.802,0.582-0.886l1.587-0.329
		c0.05-0.01,0.101-0.016,0.152-0.016c0.354,0,0.663,0.251,0.734,0.598c0.084,0.405-0.177,0.802-0.582,0.886l-1.587,0.329
		C21.735,16.675,21.683,16.68,21.631,16.68z"/>
</g>
</svg>
