<?xml version="1.0" encoding="utf-8"?>
<!-- Generator: Adobe Illustrator 22.1.0, SVG Export Plug-In . SVG Version: 6.00 Build 0)  -->
<svg version="1.1" id="Layer_1" xmlns="http://www.w3.org/2000/svg" xmlns:xlink="http://www.w3.org/1999/xlink" x="0px" y="0px"
	 viewBox="0 0 24 24" style="enable-background:new 0 0 24 24;" xml:space="preserve">
<title>family-outdoors-playhouse</title>
<g>
	<path d="M23.25,24c-0.414,0-0.75-0.336-0.75-0.75V12h-6v2.348c1.303,0.338,2.25,1.532,2.25,2.902c0,1.654-1.346,3-3,3s-3-1.346-3-3
		c0-1.37,0.947-2.564,2.25-2.902V12h-4.5v11.25c0,0.414-0.336,0.75-0.75,0.75S9,23.664,9,23.25v-1.5H3v1.5
		C3,23.664,2.664,24,2.25,24S1.5,23.664,1.5,23.25V7.5c-0.364,0-0.714-0.132-0.988-0.371C0.211,6.865,0.03,6.499,0.004,6.099
		c-0.027-0.4,0.104-0.786,0.368-1.087c0.014-0.017,0.033-0.036,0.052-0.054l5.063-4.755C5.626,0.072,5.809,0,6,0
		s0.374,0.072,0.513,0.203l5.064,4.756c0.017,0.016,0.034,0.034,0.05,0.052C11.868,5.286,12,5.636,12,6
		c0,0.4-0.156,0.777-0.439,1.061C11.278,7.344,10.901,7.5,10.5,7.5l0,3h12c0.827,0,1.5,0.673,1.5,1.5v11.25
		C24,23.664,23.664,24,23.25,24z M9,20.25V18H3v2.25H9z M15.75,15.75c-0.827,0-1.5,0.673-1.5,1.5s0.673,1.5,1.5,1.5
		s1.5-0.673,1.5-1.5S16.577,15.75,15.75,15.75z M9,16.5v-9H3v9H9z M1.505,6l8.989,0L6,1.779L1.505,6z"/>
</g>
</svg>
