<?xml version="1.0" encoding="utf-8"?>
<!-- Generator: Adobe Illustrator 22.1.0, SVG Export Plug-In . SVG Version: 6.00 Build 0)  -->
<svg version="1.1" id="Layer_1" xmlns="http://www.w3.org/2000/svg" xmlns:xlink="http://www.w3.org/1999/xlink" x="0px" y="0px"
	 viewBox="0 0 24 24" style="enable-background:new 0 0 24 24;" xml:space="preserve">
<title>family-swing</title>
<g>
	<path d="M12,24C5.383,24,0,18.617,0,12C0,5.383,5.383,0,12,0c6.617,0,12,5.383,12,12C24,18.617,18.617,24,12,24z M12,1.5
		C6.21,1.5,1.5,6.21,1.5,12c0,5.79,4.71,10.5,10.5,10.5c5.79,0,10.5-4.71,10.5-10.5C22.5,6.21,17.79,1.5,12,1.5z"/>
	<path d="M16.5,18c-0.414,0-0.75-0.336-0.75-0.75s0.336-0.75,0.75-0.75h0.596l-1.854-9.888C15.176,6.257,14.865,6,14.505,6H14.25
		v6.75c0,0.414-0.336,0.75-0.75,0.75s-0.75-0.336-0.75-0.75V6h-1.5v6.75c0,0.414-0.336,0.75-0.75,0.75s-0.75-0.336-0.75-0.75V6
		H9.495c-0.361,0-0.67,0.257-0.737,0.612L6.904,16.5H7.5c0.414,0,0.75,0.336,0.75,0.75S7.914,18,7.5,18h-3
		c-0.414,0-0.75-0.336-0.75-0.75S4.086,16.5,4.5,16.5h0.878L7.284,6.336C7.483,5.272,8.413,4.5,9.495,4.5h5.01
		c1.082,0,2.012,0.772,2.211,1.836L18.623,16.5H19.5c0.414,0,0.75,0.336,0.75,0.75S19.914,18,19.5,18H16.5z"/>
	<path d="M12.005,16.5c-0.811,0-1.61-0.145-2.375-0.431c-0.388-0.145-0.585-0.578-0.44-0.966c0.109-0.291,0.391-0.487,0.703-0.487
		c0.09,0,0.178,0.016,0.262,0.047C10.752,14.886,11.374,15,12.005,15c0.711,0,1.406-0.143,2.065-0.424
		c0.094-0.04,0.193-0.061,0.295-0.061c0.301,0,0.571,0.179,0.689,0.457c0.079,0.184,0.081,0.388,0.006,0.574
		c-0.075,0.186-0.218,0.331-0.402,0.41C13.811,16.317,12.918,16.5,12.005,16.5z"/>
</g>
</svg>
