<?xml version="1.0" encoding="utf-8"?>
<!-- Generator: Adobe Illustrator 22.1.0, SVG Export Plug-In . SVG Version: 6.00 Build 0)  -->
<svg version="1.1" id="Layer_1" xmlns="http://www.w3.org/2000/svg" xmlns:xlink="http://www.w3.org/1999/xlink" x="0px" y="0px"
	 viewBox="0 0 24 24" style="enable-background:new 0 0 24 24;" xml:space="preserve">
<title>family-outdoors-swing-tree</title>
<g>
	<path d="M8.252,23.998c-0.414,0-0.75-0.336-0.75-0.75V18.71c-1.467-0.128-2.612-0.639-3.407-1.523
		c-0.951-1.057-1.093-2.295-1.093-2.939c0-0.414,0.336-0.75,0.75-0.75s0.75,0.336,0.75,0.75c0,0.813,0.302,2.672,3,2.961v-5.211
		h-3.75c-1.113,0-2.156-0.485-2.869-1.33C0.239,9.904-0.069,8.934,0.015,7.936C0.1,6.938,0.567,6.034,1.331,5.39
		c0.675-0.569,1.531-0.883,2.41-0.883c0.106,0,0.214,0.005,0.321,0.014C4.515,4.56,4.955,4.679,5.359,4.872
		c0.362-1.881,1.615-3.502,3.37-4.313c0.798-0.369,1.643-0.556,2.512-0.556c0.704,0,1.401,0.125,2.071,0.371
		C14.634,0.86,15.734,1.788,16.433,3c0.015-0.001,0.031-0.001,0.046-0.002C18.418,3,20.12,4.223,20.739,6.011
		c0.093-0.008,0.189-0.013,0.289-0.013c1.659,0.01,2.997,1.363,2.987,3.017c-0.005,0.802-0.321,1.553-0.891,2.116
		c-0.565,0.559-1.314,0.866-2.108,0.866h-0.764v8.25h0.75c0.414,0,0.75,0.336,0.75,0.75s-0.336,0.75-0.75,0.75h-9
		c-0.414,0-0.75-0.336-0.75-0.75s0.336-0.75,0.75-0.75h0.75v-8.25h-3.75v11.25C9.002,23.661,8.666,23.998,8.252,23.998z
		 M18.752,20.248v-8.25h-4.5v8.25H18.752z M3.741,6.007c-0.534,0-1.032,0.183-1.443,0.529C1.84,6.923,1.559,7.465,1.509,8.063
		S1.643,9.242,2.029,9.7c0.428,0.507,1.053,0.798,1.716,0.798c0,0,17.268,0,17.269,0c0.398,0,0.773-0.154,1.055-0.433
		c0.285-0.282,0.443-0.657,0.446-1.058c0.005-0.827-0.664-1.504-1.491-1.509h0c-0.198,0-0.382,0.035-0.557,0.104
		c-0.088,0.035-0.18,0.052-0.274,0.052c-0.13,0-0.259-0.034-0.372-0.099c-0.198-0.113-0.333-0.308-0.368-0.534
		c-0.231-1.46-1.472-2.521-2.95-2.523c-0.111,0.004-0.245,0.018-0.374,0.04c-0.043,0.007-0.084,0.01-0.125,0.01
		c-0.292,0-0.559-0.171-0.681-0.436c-0.503-1.089-1.401-1.917-2.527-2.331c-0.503-0.185-1.025-0.278-1.553-0.278
		c-0.65,0-1.284,0.141-1.883,0.417C7.775,2.653,6.752,4.253,6.752,5.998c0,0.022,0.004,0.043,0.007,0.064
		c0.012,0.083,0.02,0.147,0.024,0.212c0.021,0.324-0.168,0.623-0.469,0.744c-0.089,0.036-0.183,0.054-0.28,0.054
		c-0.222,0-0.431-0.097-0.573-0.267C5.075,6.347,4.533,6.066,3.936,6.016C3.87,6.01,3.806,6.007,3.741,6.007z"/>
</g>
</svg>
