<?xml version="1.0" encoding="utf-8"?>
<!-- Generator: Adobe Illustrator 22.1.0, SVG Export Plug-In . SVG Version: 6.00 Build 0)  -->
<svg version="1.1" id="Layer_1" xmlns="http://www.w3.org/2000/svg" xmlns:xlink="http://www.w3.org/1999/xlink" x="0px" y="0px"
	 viewBox="0 0 24 24" style="enable-background:new 0 0 24 24;" xml:space="preserve">
<title>family-outdoors-slide</title>
<g>
	<path d="M20.625,24c-0.62,0-1.125-0.505-1.125-1.125V15.75c0-0.414-0.336-0.75-0.75-0.75h-1.5c-0.414,0-0.75,0.336-0.75,0.75v7.125
		c0,0.62-0.505,1.125-1.125,1.125h-2.25C12.505,24,12,23.495,12,22.875V11.351l-6.52,5.432C4.539,17.567,3.346,18,2.121,18
		C1.779,18,1.5,18.279,1.5,18.621v3.129c0,0.414,0.336,0.75,0.75,0.75h0.644c0.863,0,1.706-0.301,2.374-0.848l3.657-2.993
		C9.059,18.55,9.227,18.49,9.4,18.49c0.226,0,0.438,0.1,0.581,0.275c0.262,0.32,0.214,0.793-0.105,1.055l-3.657,2.993
		C5.282,23.579,4.102,24,2.894,24H2.25C1.009,24,0,22.991,0,21.75v-3.129c0-1.17,0.951-2.121,2.121-2.121
		c0.875,0,1.727-0.309,2.399-0.869L12,9.399V3.75c0.006-2.062,1.687-3.744,3.748-3.75h4.502c2.063,0.006,3.744,1.687,3.75,3.748
		v19.127C24,23.495,23.495,24,22.875,24H20.625z M22.5,22.5V3.75c-0.004-1.236-1.014-2.246-2.251-2.25H15.75
		c-1.237,0.004-2.246,1.014-2.25,2.252V22.5H15v-6.75c0-1.241,1.009-2.25,2.25-2.25h1.5c1.241,0,2.25,1.009,2.25,2.25v6.75H22.5z"/>
	<path d="M16.125,9C15.505,9,15,8.495,15,7.875v-2.25c0-0.62,0.505-1.125,1.125-1.125h3.75C20.495,4.5,21,5.005,21,5.625v2.25
		C21,8.495,20.495,9,19.875,9H16.125z M19.5,7.5V6h-3l0,1.5H19.5z"/>
</g>
</svg>
