<?xml version="1.0" encoding="utf-8"?>
<!-- Generator: Adobe Illustrator 22.1.0, SVG Export Plug-In . SVG Version: 6.00 Build 0)  -->
<svg version="1.1" id="Layer_1" xmlns="http://www.w3.org/2000/svg" xmlns:xlink="http://www.w3.org/1999/xlink" x="0px" y="0px"
	 viewBox="0 0 24 24" style="enable-background:new 0 0 24 24;" xml:space="preserve">
<title>family-child</title>
<g>
	<path d="M19.5,9c-2.068,0-3.75-1.682-3.75-3.75S17.432,1.5,19.5,1.5s3.75,1.682,3.75,3.75S21.568,9,19.5,9z M19.5,3
		c-1.241,0-2.25,1.009-2.25,2.25S18.259,7.5,19.5,7.5s2.25-1.009,2.25-2.25S20.741,3,19.5,3z"/>
	<path d="M18,22.5c-0.377,0-0.697-0.282-0.744-0.657l-0.188-1.5c-0.025-0.199,0.029-0.395,0.152-0.554
		c0.123-0.158,0.3-0.259,0.499-0.284c0.032-0.004,0.062-0.006,0.092-0.006c0.378,0,0.698,0.282,0.745,0.657L18.662,21h1.676
		l0.668-5.343C21.053,15.282,21.373,15,21.75,15h0.75v-1.5c0-1.654-1.346-3-3-3c-0.645,0-1.284,0.213-1.8,0.6
		c-0.131,0.098-0.287,0.15-0.45,0.15c-0.235,0-0.459-0.112-0.6-0.3c-0.248-0.331-0.181-0.802,0.15-1.05C17.574,9.32,18.533,9,19.5,9
		c2.481,0,4.5,2.019,4.5,4.5v2.25c0,0.414-0.336,0.75-0.75,0.75h-0.838l-0.668,5.343C21.697,22.218,21.377,22.5,21,22.5H18z"/>
	<path d="M4.5,9C2.432,9,0.75,7.318,0.75,5.25S2.432,1.5,4.5,1.5s3.75,1.682,3.75,3.75S6.568,9,4.5,9z M4.5,3
		C3.259,3,2.25,4.009,2.25,5.25S3.259,7.5,4.5,7.5s2.25-1.009,2.25-2.25S5.741,3,4.5,3z"/>
	<path d="M3,22.5c-0.377,0-0.697-0.282-0.744-0.657L1.588,16.5H0.75C0.336,16.5,0,16.164,0,15.75V13.5C0,11.019,2.019,9,4.5,9
		c0.967,0,1.926,0.32,2.7,0.9c0.331,0.248,0.398,0.719,0.15,1.05c-0.141,0.188-0.365,0.3-0.6,0.3l0,0
		c-0.163,0-0.319-0.052-0.45-0.15c-0.516-0.387-1.156-0.6-1.8-0.6c-1.654,0-3,1.346-3,3V15h0.75c0.377,0,0.697,0.282,0.744,0.657
		L3.662,21h1.676l0.106-0.843C5.491,19.782,5.811,19.5,6.189,19.5c0.03,0,0.06,0.002,0.09,0.005
		c0.201,0.025,0.378,0.126,0.501,0.284c0.123,0.158,0.177,0.355,0.152,0.554l-0.188,1.5C6.697,22.218,6.377,22.5,6,22.5H3z"/>
	<path d="M12,12c-1.654,0-3-1.346-3-3s1.346-3,3-3c1.654,0,3,1.346,3,3S13.654,12,12,12z M12,7.5c-0.827,0-1.5,0.673-1.5,1.5
		s0.673,1.5,1.5,1.5s1.5-0.673,1.5-1.5S12.827,7.5,12,7.5z"/>
	<path d="M10.5,22.5c-0.368,0-0.679-0.263-0.74-0.626L9.115,18H8.25c-0.414,0-0.75-0.336-0.75-0.75V16.5c0-2.481,2.019-4.5,4.5-4.5
		c2.481,0,4.5,2.019,4.5,4.5v0.75c0,0.414-0.336,0.75-0.75,0.75h-0.865l-0.646,3.873c-0.06,0.363-0.371,0.627-0.74,0.627H10.5z
		 M12.865,21l0.646-3.873c0.06-0.363,0.371-0.627,0.74-0.627H15c0-1.654-1.346-3-3-3c-1.654,0-3,1.346-3,3h0.75
		c0.368,0,0.679,0.263,0.74,0.626L11.135,21H12.865z"/>
</g>
</svg>
