<?xml version="1.0" encoding="utf-8"?>
<!-- Generator: Adobe Illustrator 22.1.0, SVG Export Plug-In . SVG Version: 6.00 Build 0)  -->
<svg version="1.1" id="Layer_1" xmlns="http://www.w3.org/2000/svg" xmlns:xlink="http://www.w3.org/1999/xlink" x="0px" y="0px"
	 viewBox="0 0 24 24" style="enable-background:new 0 0 24 24;" xml:space="preserve">
<title>family-child-jumping-rope</title>
<g>
	<path d="M11.999,9.75c-1.861,0-3.375-1.514-3.375-3.375C8.625,5.47,8.977,4.622,9.616,3.986C10.253,3.35,11.088,3,11.968,3l0.039,0
		c0.898,0.001,1.745,0.353,2.381,0.991c0.637,0.638,0.987,1.486,0.986,2.388C15.372,8.238,13.858,9.75,11.999,9.75z M11.999,4.5
		c-0.5,0-0.97,0.194-1.324,0.548c-0.355,0.354-0.55,0.824-0.551,1.325c0,1.036,0.841,1.877,1.875,1.877
		c1.033,0,1.874-0.84,1.875-1.873c0-0.5-0.194-0.971-0.548-1.326c-0.354-0.355-0.825-0.551-1.325-0.552l-0.002-0.375V4.5z"/>
	<path d="M15.012,23.998c-0.757,0-1.459-0.375-1.877-1.004l-0.999-1.493c-0.046-0.068-0.09-0.138-0.133-0.209
		c-0.042,0.071-0.087,0.14-0.132,0.208l-1,1.494c-0.417,0.627-1.119,1.002-1.876,1.002c-0.444,0-0.874-0.13-1.245-0.376
		c-0.501-0.333-0.842-0.842-0.96-1.431c-0.118-0.59,0-1.19,0.333-1.691l1.001-1.496c0.082-0.123,0.126-0.266,0.125-0.413v-0.594
		h-0.75c-0.262,0-0.5-0.133-0.638-0.356c-0.138-0.223-0.15-0.496-0.033-0.73l0.977-1.951c-0.397,0.095-0.804,0.143-1.217,0.143
		c-1.401,0-2.719-0.548-3.711-1.542l-0.72-0.72c-0.877-0.878-0.877-2.305,0-3.182C2.583,9.234,3.148,9,3.749,9
		c0.602,0,1.167,0.234,1.591,0.658l0.72,0.721c0.142,0.142,0.33,0.22,0.53,0.22c0.117,0,0.23-0.027,0.336-0.08l1.066-0.533
		C8.304,9.832,8.651,9.75,8.999,9.75h6.001c0.351,0,0.695,0.08,1.003,0.232l1.069,0.535c0.107,0.054,0.221,0.081,0.338,0.081
		c0.199,0,0.385-0.078,0.526-0.22l0.722-0.723c0.425-0.425,0.991-0.659,1.592-0.659s1.167,0.234,1.591,0.659
		c0.875,0.877,0.875,2.302,0,3.179l-0.721,0.722c-0.992,0.994-2.309,1.542-3.71,1.542c0,0,0,0,0,0c-0.413,0-0.82-0.048-1.217-0.143
		l0.978,1.957c0.117,0.234,0.104,0.507-0.032,0.729c-0.136,0.22-0.381,0.356-0.638,0.356h-0.75v0.592
		c0.001,0.144,0.045,0.286,0.129,0.408l1.004,1.5c0.334,0.501,0.453,1.102,0.334,1.692c-0.119,0.59-0.46,1.098-0.96,1.431
		C15.887,23.868,15.456,23.998,15.012,23.998z M12.003,17.835c0.413,0,0.749,0.336,0.75,0.748c0.001,0.757,0.219,1.471,0.629,2.085
		l1,1.494c0.14,0.211,0.375,0.336,0.628,0.336c0.148,0,0.291-0.043,0.415-0.126c0.167-0.111,0.281-0.281,0.321-0.478
		s0-0.397-0.111-0.564l-0.999-1.493c-0.25-0.365-0.384-0.796-0.387-1.244v-1.346c0-0.414,0.336-0.75,0.75-0.75h0.287l-0.64-1.281
		c-0.233-0.477-0.36-0.984-0.379-1.508c-0.01-0.264,0.122-0.516,0.344-0.658c0.121-0.078,0.261-0.119,0.405-0.119
		c0.116,0,0.232,0.028,0.336,0.08l0.379,0.19c0.519,0.26,1.1,0.398,1.678,0.398c1,0,1.941-0.391,2.649-1.101l0.721-0.722
		c0.291-0.292,0.291-0.767,0-1.059c-0.141-0.141-0.329-0.219-0.53-0.219c-0.201,0-0.389,0.078-0.53,0.219l-0.72,0.721
		c-0.423,0.427-0.988,0.662-1.588,0.662c-0.349,0-0.699-0.083-1.012-0.241l-1.064-0.532c-0.1-0.049-0.214-0.076-0.329-0.076H8.999
		c-0.116,0-0.232,0.027-0.336,0.079l-1.066,0.533C7.286,12.018,6.938,12.1,6.591,12.1c-0.6,0-1.166-0.234-1.591-0.66l-0.72-0.721
		C4.138,10.578,3.95,10.5,3.749,10.5s-0.389,0.078-0.53,0.219C3.078,10.86,3,11.049,3,11.249c0,0.201,0.078,0.389,0.219,0.531
		l0.721,0.721c0.709,0.71,1.65,1.102,2.65,1.102c0.578,0,1.158-0.137,1.678-0.398l0.379-0.19c0.103-0.052,0.219-0.08,0.336-0.08
		c0.144,0,0.284,0.041,0.406,0.119c0.222,0.142,0.353,0.395,0.344,0.658c-0.019,0.525-0.145,1.03-0.375,1.502l-0.643,1.283h0.286
		c0.414,0,0.75,0.336,0.75,0.75v1.342c0.001,0.446-0.13,0.878-0.379,1.25l-1,1.493c-0.11,0.166-0.15,0.366-0.11,0.563
		c0.039,0.197,0.153,0.366,0.32,0.478c0.124,0.082,0.267,0.126,0.415,0.126c0.253,0,0.488-0.125,0.628-0.335l1.001-1.496
		c0.41-0.614,0.628-1.328,0.629-2.066C11.254,18.171,11.59,17.835,12.003,17.835z"/>
	<path d="M20.117,8.271c-0.362,0-0.672-0.259-0.737-0.616c-0.649-3.57-3.751-6.16-7.377-6.16c-0.448,0-0.9,0.041-1.344,0.122
		C7.601,2.172,5.175,4.599,4.619,7.655C4.554,8.012,4.244,8.271,3.881,8.271l0,0c-0.044,0-0.089-0.004-0.134-0.012
		C3.55,8.223,3.379,8.113,3.265,7.948C3.151,7.783,3.108,7.584,3.143,7.387c0.667-3.668,3.579-6.58,7.246-7.246
		c0.533-0.097,1.076-0.146,1.614-0.146c4.35,0,8.073,3.109,8.851,7.392c0.036,0.197-0.007,0.396-0.121,0.561
		c-0.114,0.165-0.285,0.275-0.482,0.311C20.206,8.267,20.161,8.271,20.117,8.271z"/>
</g>
</svg>
