<?xml version="1.0" encoding="utf-8"?>
<!-- Generator: Adobe Illustrator 22.1.0, SVG Export Plug-In . SVG Version: 6.00 Build 0)  -->
<svg version="1.1" id="Layer_1" xmlns="http://www.w3.org/2000/svg" xmlns:xlink="http://www.w3.org/1999/xlink" x="0px" y="0px"
	 viewBox="0 0 24 24" style="enable-background:new 0 0 24 24;" xml:space="preserve">
<title>family-child-play-ball-warning</title>
<g>
	<path d="M2.427,23.822c-0.348,0-0.696-0.082-1.006-0.238c-0.536-0.268-0.937-0.73-1.127-1.301c-0.19-0.571-0.147-1.18,0.121-1.717
		L9.988,1.421c0.216-0.432,0.574-0.789,1.006-1.006c0.315-0.158,0.653-0.238,1.004-0.238c0.859,0,1.632,0.476,2.016,1.243
		l9.573,19.144c0.155,0.311,0.238,0.659,0.238,1.007c0,0.601-0.235,1.166-0.659,1.591c-0.425,0.425-0.99,0.659-1.591,0.659H2.427z
		 M11.998,1.678c-0.117,0-0.229,0.027-0.334,0.079c-0.144,0.072-0.263,0.191-0.335,0.335L1.757,21.236
		c-0.089,0.179-0.104,0.382-0.04,0.572c0.063,0.19,0.197,0.344,0.375,0.434c0.104,0.052,0.219,0.079,0.335,0.079h19.146
		c0.2,0,0.389-0.078,0.531-0.219c0.142-0.142,0.22-0.33,0.22-0.53c0-0.116-0.027-0.232-0.079-0.336L12.671,2.092
		C12.543,1.837,12.285,1.678,11.998,1.678z"/>
	<path d="M14.25,13.324c-1.241,0-2.25-1.009-2.25-2.25s1.009-2.25,2.25-2.25s2.25,1.009,2.25,2.25S15.49,13.324,14.25,13.324z
		 M14.25,10.324c-0.414,0-0.75,0.336-0.75,0.75c0,0.413,0.336,0.75,0.75,0.75S15,11.487,15,11.074
		C15,10.66,14.663,10.324,14.25,10.324z"/>
	<path d="M8.25,16.701c-0.62,0-1.125-0.505-1.125-1.125c-0.001-0.299,0.115-0.581,0.327-0.794s0.494-0.331,0.794-0.331
		c0.624,0,1.129,0.505,1.129,1.125S8.87,16.701,8.25,16.701z"/>
	<path d="M13.5,21.574c-0.201,0-0.389-0.078-0.531-0.22l-0.844-0.845c-0.516-0.515-0.744-1.231-0.633-1.935h-0.661
		c-0.323,0-0.609,0.206-0.712,0.513L9.711,20.31C9.609,20.617,9.323,20.824,9,20.824c-0.081,0-0.161-0.013-0.238-0.039
		c-0.189-0.063-0.343-0.197-0.433-0.375c-0.09-0.179-0.104-0.383-0.041-0.573l0.408-1.225c0.307-0.92,1.165-1.538,2.135-1.538h1.128
		l0.5-1.5h-0.406c-0.754,0-1.454-0.375-1.872-1.002L9.126,12.99c-0.229-0.344-0.136-0.811,0.208-1.04
		c0.123-0.083,0.267-0.126,0.416-0.126c0.251,0,0.485,0.125,0.624,0.334l1.055,1.582c0.139,0.209,0.373,0.334,0.624,0.334h2.894
		c0.753,0,1.453,0.374,1.872,1l1.055,1.584c0.111,0.167,0.151,0.367,0.112,0.563c-0.04,0.197-0.153,0.366-0.32,0.477
		c-0.123,0.082-0.267,0.126-0.416,0.126c-0.251,0-0.485-0.125-0.624-0.334l-1.055-1.583c-0.139-0.208-0.373-0.333-0.624-0.333H14.04
		l-1.036,3.107c-0.09,0.271-0.021,0.565,0.182,0.767l0.845,0.846c0.142,0.142,0.219,0.33,0.219,0.53c0,0.2-0.078,0.389-0.22,0.53
		C13.888,21.496,13.7,21.574,13.5,21.574z"/>
</g>
</svg>
