<?xml version="1.0" encoding="utf-8"?>
<!-- Generator: Adobe Illustrator 22.1.0, SVG Export Plug-In . SVG Version: 6.00 Build 0)  -->
<svg version="1.1" id="Layer_1" xmlns="http://www.w3.org/2000/svg" xmlns:xlink="http://www.w3.org/1999/xlink" x="0px" y="0px"
	 viewBox="0 0 24 24" style="enable-background:new 0 0 24 24;" xml:space="preserve">
<title>family-outdoors-swing</title>
<g>
	<path d="M23.25,24c-0.368,0-0.679-0.264-0.739-0.627l-3.541-21.25C18.908,1.763,18.597,1.5,18.23,1.5H16.5V15h0.75
		c1.241,0,2.25,1.009,2.25,2.25s-1.009,2.25-2.25,2.25H6.75c-1.241,0-2.25-1.009-2.25-2.25S5.509,15,6.75,15H7.5V1.5H5.771
		c-0.368,0-0.679,0.263-0.74,0.625L1.49,23.373C1.43,23.736,1.118,24,0.75,24c-0.04,0-0.081-0.003-0.122-0.01
		c-0.199-0.033-0.372-0.141-0.488-0.304s-0.162-0.362-0.13-0.559l3.541-21.25C3.735,0.789,4.668,0,5.77,0h12.459
		c1.103,0,2.036,0.788,2.219,1.875l3.541,21.252c0.033,0.197-0.013,0.396-0.129,0.559s-0.29,0.271-0.487,0.304
		C23.331,23.997,23.29,24,23.25,24z M6.75,16.5C6.336,16.5,6,16.836,6,17.25S6.336,18,6.75,18h10.5c0.414,0,0.75-0.336,0.75-0.75
		s-0.336-0.75-0.75-0.75H6.75z M15,15V1.5H9L15,15z"/>
</g>
</svg>
