<?xml version="1.0" encoding="utf-8"?>
<!-- Generator: Adobe Illustrator 22.1.0, SVG Export Plug-In . SVG Version: 6.00 Build 0)  -->
<svg version="1.1" id="Regular" xmlns="http://www.w3.org/2000/svg" xmlns:xlink="http://www.w3.org/1999/xlink" x="0px" y="0px"
	 viewBox="0 0 24 24" style="enable-background:new 0 0 24 24;" xml:space="preserve">
<title>famous-character</title>
<g>
	<path d="M12,24c-3.319,0-8.551-3.427-8.973-7.7l-0.738-0.246c-0.92-0.306-1.539-1.164-1.539-2.135v-2.338
		c0-0.97,0.618-1.828,1.539-2.135L3,9.209c0,0,0-0.983,0.001-0.989C3.017,3.843,7.223,0,12,0c4.778,0,8.983,3.843,8.999,8.224
		c0,0,0.001,0.985,0.001,0.985l0.711,0.237c0.92,0.307,1.539,1.164,1.539,2.135v2.338c0,0.97-0.618,1.828-1.539,2.135L20.973,16.3
		C20.552,20.573,15.32,24,12,24z M8.285,21.229C9.566,22.027,10.944,22.5,12,22.5c1.056,0,2.434-0.473,3.715-1.271l0.791-6.323
		c0.025-0.201,0.132-0.385,0.294-0.507l2.7-2.025v-3.93C19.167,7.884,17.89,6,15.75,6c-0.021,0-0.042-0.001-0.062-0.003
		c-0.084-0.007-0.167-0.01-0.251-0.01c-1.196,0-2.275,0.71-2.748,1.809C12.57,8.072,12.3,8.25,12,8.25
		c-0.3,0-0.57-0.178-0.689-0.454c-0.473-1.099-1.551-1.81-2.746-1.81c-0.084,0-0.168,0.004-0.253,0.011C8.291,5.999,8.271,6,8.25,6
		C6.111,6,4.833,7.884,4.5,8.446v3.929L7.2,14.4c0.162,0.121,0.269,0.306,0.294,0.507L8.285,21.229z M17.389,19.935
		c1.352-1.291,2.111-2.78,2.111-4.185c0-0.323,0.206-0.609,0.513-0.711l1.224-0.408c0.307-0.102,0.513-0.388,0.513-0.712v-2.338
		c0-0.323-0.206-0.609-0.513-0.712L21,10.791v1.959c0,0.235-0.112,0.459-0.3,0.6l-2.746,2.059L17.389,19.935z M2.763,10.869
		c-0.307,0.102-0.513,0.388-0.513,0.712v2.338c0,0.323,0.206,0.609,0.513,0.712l1.224,0.408C4.294,15.141,4.5,15.427,4.5,15.75
		c0,1.405,0.759,2.894,2.111,4.185l-0.566-4.525L3.3,13.35C3.112,13.209,3,12.985,3,12.75v-1.959L2.763,10.869z M8.565,4.487
		c1.338,0,2.588,0.589,3.435,1.599c0.847-1.009,2.096-1.599,3.434-1.599c0.115,0,0.231,0.004,0.347,0.013
		c1.203,0.007,2.188,0.418,2.959,0.948C17.465,3.148,14.768,1.5,12,1.5c-2.768,0-5.465,1.648-6.74,3.948
		C6.031,4.919,7.015,4.507,8.219,4.5C8.335,4.491,8.45,4.487,8.565,4.487z"/>
	<path d="M13.5,12.75c-0.251,0-0.485-0.125-0.624-0.334c-0.111-0.167-0.151-0.367-0.112-0.563c0.039-0.197,0.153-0.366,0.32-0.477
		l2.25-1.5c0.124-0.082,0.267-0.126,0.416-0.126c0.251,0,0.485,0.125,0.624,0.334c0.111,0.167,0.151,0.367,0.112,0.563
		c-0.039,0.197-0.153,0.366-0.32,0.477l-2.25,1.5C13.793,12.706,13.649,12.75,13.5,12.75z"/>
	<path d="M10.5,12.75c-0.149,0-0.292-0.044-0.416-0.126l-2.25-1.5c-0.344-0.229-0.437-0.696-0.208-1.04
		C7.765,9.875,7.999,9.75,8.25,9.75c0.148,0,0.292,0.044,0.416,0.126l2.25,1.5c0.344,0.229,0.437,0.696,0.208,1.04
		C10.985,12.625,10.751,12.75,10.5,12.75z"/>
	<path d="M10.5,18.75c-0.414,0-0.75-0.336-0.75-0.75s0.336-0.75,0.75-0.75h3c0.414,0,0.75,0.336,0.75,0.75s-0.336,0.75-0.75,0.75
		H10.5z"/>
</g>
</svg>
