<?xml version="1.0" encoding="utf-8"?>
<!-- Generator: Adobe Illustrator 22.1.0, SVG Export Plug-In . SVG Version: 6.00 Build 0)  -->
<svg version="1.1" id="Regular" xmlns="http://www.w3.org/2000/svg" xmlns:xlink="http://www.w3.org/1999/xlink" x="0px" y="0px"
	 viewBox="0 0 24 24" style="enable-background:new 0 0 24 24;" xml:space="preserve">
<title>famous-character-megaman</title>
<g>
	<path d="M0.75,9.757c-0.085,0-0.169-0.015-0.25-0.043C0.11,9.576-0.095,9.147,0.043,8.757c0.549-1.552,1.396-2.952,2.516-4.16
		c0.141-0.152,0.341-0.24,0.55-0.24c0.19,0,0.371,0.071,0.51,0.2c0.147,0.136,0.232,0.321,0.239,0.521
		c0.007,0.2-0.063,0.391-0.2,0.538c-0.98,1.057-1.721,2.282-2.202,3.64C1.351,9.556,1.067,9.757,0.75,9.757z"/>
	<path d="M9.581,24.007c-0.242,0-0.482-0.039-0.711-0.115c-0.57-0.19-1.032-0.591-1.301-1.128c-0.269-0.537-0.312-1.147-0.123-1.717
		l0.842-2.527C8.391,18.213,8.677,18.007,9,18.007c0.081,0,0.16,0.013,0.237,0.039c0.19,0.063,0.344,0.197,0.434,0.376
		s0.104,0.383,0.041,0.573l-0.842,2.526c-0.063,0.19-0.049,0.393,0.041,0.572s0.244,0.312,0.434,0.376
		c0.076,0.025,0.156,0.038,0.237,0.038h7.669c0.414,0,0.75-0.336,0.75-0.75v-3.651c-0.03-0.21,0.029-0.419,0.164-0.58
		c1.177-1.404,1.825-3.186,1.825-5.018c0.003-2.138-0.826-4.148-2.334-5.662c-1.509-1.513-3.516-2.349-5.653-2.352
		c-1.177,0-2.304,0.25-3.365,0.742C8.597,5.26,8.553,5.28,8.505,5.297C6.706,6.173,5.302,7.686,4.564,9.516
		c0.617-0.172,1.387-0.315,2.242-0.315c1.276,0,2.466,0.318,3.54,0.944C10.861,9.891,11.428,9.757,12,9.757
		c2.068,0,3.75,1.682,3.75,3.75c0,2.068-1.682,3.75-3.75,3.75c-2.068,0-3.75-1.682-3.75-3.75c0-0.861,0.288-1.674,0.82-2.335
		c-0.694-0.307-1.449-0.462-2.252-0.462c-1.703,0-3.036,0.7-3.049,0.707c-0.108,0.059-0.232,0.09-0.357,0.09
		c-0.162,0-0.316-0.051-0.446-0.147c-0.233-0.173-0.347-0.468-0.289-0.752c0.57-2.816,2.354-5.184,4.908-6.525l0.569-2.824
		C8.207,1,8.394,0.785,8.644,0.699c1.29-0.455,2.634-0.686,3.992-0.686c5.083,0,9.633,3.215,11.321,8.001
		c0.098,0.278,0.023,0.59-0.191,0.793l-2.385,2.266c0.072,0.48,0.108,0.961,0.107,1.435c0,2.079-0.705,4.116-1.989,5.751v3.498
		c0,1.241-1.009,2.25-2.25,2.25H9.581z M12,11.257c-1.241,0-2.25,1.009-2.25,2.25c0,1.241,1.009,2.25,2.25,2.25
		c1.241,0,2.25-1.009,2.25-2.25C14.25,12.267,13.241,11.257,12,11.257z M12.003,2.993c2.538,0.004,4.922,0.996,6.714,2.793
		c1.017,1.02,1.789,2.258,2.254,3.608l1.401-1.331c-1.593-3.93-5.473-6.553-9.735-6.553c-1.05,0-2.091,0.159-3.098,0.472L9.254,3.4
		c0.888-0.27,1.806-0.406,2.735-0.406H12.003z"/>
</g>
</svg>
