<?xml version="1.0" encoding="utf-8"?>
<!-- Generator: Adobe Illustrator 22.1.0, SVG Export Plug-In . SVG Version: 6.00 Build 0)  -->
<svg version="1.1" id="Regular" xmlns="http://www.w3.org/2000/svg" xmlns:xlink="http://www.w3.org/1999/xlink" x="0px" y="0px"
	 viewBox="0 0 24 24" style="enable-background:new 0 0 24 24;" xml:space="preserve">
<title>famous-character-batman-1</title>
<g>
	<path d="M12.004,19.5c-0.269,0-0.518-0.145-0.651-0.378c-0.509-0.89-0.922-1.647-1.287-2.315C9.247,15.309,8.6,14.125,8.25,14.125
		c-0.028,0-0.062,0.006-0.099,0.018c-0.163,0.049-0.36,0.449-0.32,1.076c0.023,0.357-0.212,0.682-0.557,0.773
		c-0.062,0.017-0.127,0.025-0.191,0.025c-0.285,0-0.55-0.166-0.675-0.423c-0.425-0.876-1.095-1.4-1.497-1.4
		c-0.05,0-0.093,0.008-0.131,0.026c-0.274,0.131-0.51,0.998,0.039,2.18c0.044,0.093,0.091,0.186,0.142,0.274
		c0.133,0.229,0.168,0.497,0.099,0.753s-0.233,0.471-0.463,0.604c-0.151,0.087-0.323,0.133-0.497,0.133
		c-0.21,0-0.411-0.065-0.581-0.188c-2.143-1.664-3.419-4.156-3.511-6.845c0-3.417,2.456-6.267,6.572-7.637
		c0.102-0.034,0.208-0.051,0.314-0.051c0.252,0,0.493,0.094,0.677,0.266c0.266,0.245,0.377,0.618,0.288,0.97L7.492,6.128
		c-0.066,0.78,0.247,1.549,0.84,2.061c0.025,0.022,0.049,0.046,0.072,0.071C8.446,8.309,8.5,8.336,8.562,8.34c0,0,0.001,0,0.002,0
		c0.07,0,0.122-0.02,0.163-0.056C8.777,8.24,8.805,8.177,8.805,8.112V5.5c-0.009-0.539,0.43-0.99,0.979-0.999c0,0,0,0,0,0
		c0.228,0,0.442,0.071,0.613,0.199l1.365,1.024h0.478L13.605,4.7c0.174-0.13,0.38-0.199,0.596-0.199c0.312,0,0.61,0.149,0.796,0.397
		C15.129,5.073,15.2,5.29,15.197,5.51v2.602c0,0.062,0.023,0.117,0.067,0.161c0.044,0.044,0.1,0.067,0.162,0.067
		c0.066,0,0.128-0.028,0.172-0.077c0.023-0.026,0.046-0.049,0.071-0.07c0.595-0.514,0.908-1.284,0.841-2.065l-0.36-1.446
		c-0.065-0.254-0.026-0.521,0.11-0.75c0.136-0.228,0.353-0.39,0.61-0.455c0.079-0.02,0.162-0.031,0.244-0.031
		c0.109,0,0.217,0.018,0.321,0.054c4.11,1.365,6.566,4.209,6.566,7.607c0,0.007,0,0.027-0.001,0.034
		c-0.092,2.681-1.364,5.17-3.489,6.82c-0.188,0.136-0.393,0.204-0.602,0.204l0,0c-0.053,0-0.107-0.004-0.161-0.013
		c-0.261-0.042-0.491-0.184-0.646-0.4c-0.228-0.316-0.25-0.74-0.054-1.078c0.049-0.086,0.097-0.18,0.142-0.276
		c0.548-1.18,0.308-2.049,0.025-2.184c-0.032-0.015-0.074-0.023-0.123-0.023c-0.399,0-1.066,0.525-1.492,1.404
		c-0.125,0.257-0.389,0.423-0.674,0.423c-0.065,0-0.131-0.009-0.194-0.026c-0.344-0.091-0.578-0.416-0.555-0.772
		c0.04-0.627-0.154-1.026-0.31-1.073c-0.045-0.014-0.078-0.02-0.107-0.02c-0.355,0-1.006,1.193-1.83,2.703
		c-0.364,0.666-0.773,1.417-1.274,2.293C12.522,19.355,12.272,19.5,12.004,19.5z M8.305,12.611c1.177,0,1.812,1.162,3.076,3.477
		c0.193,0.353,0.398,0.728,0.622,1.133c0.213-0.384,0.408-0.741,0.59-1.076l0.018-0.033c1.23-2.253,1.907-3.495,3.109-3.495
		c0.188,0,0.38,0.031,0.587,0.097c0.408,0.123,0.746,0.398,0.986,0.792c0.564-0.52,1.204-0.81,1.813-0.81
		c0.261,0,0.51,0.053,0.741,0.159c0.822,0.392,1.232,1.359,1.151,2.498c0.922-1.221,1.447-2.694,1.502-4.265
		c-0.003-2.499-1.692-4.603-4.665-5.838l0.142,0.57c0.009,0.032,0.015,0.068,0.019,0.105c0.134,1.268-0.356,2.529-1.314,3.374
		c-0.325,0.344-0.781,0.542-1.256,0.542c-0.463,0-0.896-0.179-1.223-0.505c-0.327-0.327-0.507-0.76-0.508-1.222V6.506L12.94,7.074
		c-0.129,0.097-0.289,0.15-0.45,0.15h-0.978c-0.161,0-0.321-0.053-0.45-0.15l-0.757-0.568v1.605c0,0.497-0.214,0.971-0.588,1.3
		c-0.315,0.276-0.72,0.429-1.139,0.429c-0.478,0-0.936-0.199-1.262-0.546C6.361,8.449,5.872,7.19,6.005,5.922
		c0.004-0.035,0.01-0.07,0.019-0.105l0.144-0.568c-2.973,1.239-4.661,3.346-4.661,5.858c0.054,1.554,0.578,3.022,1.501,4.243
		c-0.082-1.136,0.326-2.102,1.141-2.49c0.237-0.108,0.487-0.161,0.749-0.161c0.61,0,1.251,0.29,1.815,0.809
		c0.241-0.396,0.582-0.672,0.995-0.797C7.918,12.644,8.115,12.611,8.305,12.611z"/>
</g>
</svg>
