<?xml version="1.0" encoding="utf-8"?>
<!-- Generator: Adobe Illustrator 22.1.0, SVG Export Plug-In . SVG Version: 6.00 Build 0)  -->
<svg version="1.1" id="Regular" xmlns="http://www.w3.org/2000/svg" xmlns:xlink="http://www.w3.org/1999/xlink" x="0px" y="0px"
	 viewBox="0 0 24 24" style="enable-background:new 0 0 24 24;" xml:space="preserve">
<title>famous-character-cat</title>
<g>
	<path d="M11.749,18.782c-1.121,0-2-0.698-2-1.589c0-0.891,0.879-1.589,2-1.589c1.122,0,2,0.698,2,1.589
		C13.749,18.084,12.871,18.782,11.749,18.782z M11.332,17.193c0.088,0.044,0.229,0.089,0.417,0.089s0.33-0.045,0.417-0.089
		c-0.088-0.044-0.229-0.089-0.417-0.089C11.561,17.104,11.42,17.148,11.332,17.193z"/>
	<path d="M11.699,20.981c-1.906,0-3.742-0.708-5.17-1.994c-0.307-0.277-0.332-0.752-0.056-1.059
		c0.142-0.158,0.346-0.248,0.558-0.248c0.186,0,0.364,0.068,0.502,0.193c1.152,1.037,2.632,1.608,4.167,1.608
		c1.554,0,3.048-0.583,4.205-1.643c0.138-0.127,0.318-0.197,0.506-0.197c0.21,0,0.412,0.089,0.553,0.244
		c0.279,0.305,0.258,0.78-0.047,1.06C15.482,20.258,13.628,20.981,11.699,20.981z"/>
	<path d="M8.743,13.138c-0.414,0-0.75-0.336-0.75-0.75v-1.756c0-0.414,0.336-0.75,0.75-0.75s0.75,0.336,0.75,0.75v1.756
		C9.493,12.801,9.157,13.138,8.743,13.138z"/>
	<path d="M14.755,13.138c-0.414,0-0.75-0.336-0.75-0.75v-1.756c0-0.414,0.336-0.75,0.75-0.75s0.75,0.336,0.75,0.75v1.756
		C15.505,12.801,15.169,13.138,14.755,13.138z"/>
	<path d="M11.749,24c-6.639,0-9.411-6.21-9.732-7.565c-0.227-0.459-0.607-0.825-1.074-1.034c-0.378-0.169-0.548-0.613-0.379-0.991
		c0.12-0.27,0.389-0.444,0.685-0.444c0.105,0,0.208,0.022,0.305,0.065c0.31,0.138,0.596,0.317,0.855,0.533
		c0.146-0.258,0.326-0.495,0.538-0.707c0.617-0.615,1.434-0.955,2.304-0.96c-0.174-0.56-0.264-1.158-0.264-1.76
		c0-2.64,1.685-4.788,3.756-4.788c1.203,0,2.305,0.718,3.006,1.919c0.701-1.2,1.803-1.919,3.006-1.919
		c2.071,0,3.756,2.148,3.756,4.788c0,0.602-0.091,1.201-0.265,1.761c1.099,0.008,2.115,0.556,2.722,1.469
		c0.042,0.064,0.083,0.13,0.121,0.197c0.259-0.217,0.545-0.395,0.854-0.533c0.097-0.043,0.2-0.065,0.305-0.065
		c0.296,0,0.565,0.174,0.685,0.444c0.168,0.378-0.002,0.823-0.379,0.991c-0.467,0.208-0.847,0.575-1.074,1.034
		C21.16,17.79,18.387,24,11.749,24z M3.481,16.13c0.184,0.56,2.256,6.369,8.268,6.369c5.662,0,8.096-5.5,8.269-6.362
		c-0.01-0.336-0.112-0.661-0.299-0.941c-0.333-0.5-0.891-0.799-1.494-0.799c-0.329,0-0.649,0.09-0.929,0.261
		c-0.696,0.817-1.596,1.266-2.54,1.266c-1.203,0-2.305-0.718-3.006-1.918c-0.701,1.2-1.803,1.918-3.006,1.918
		c-0.944,0-1.844-0.449-2.54-1.265c-0.281-0.172-0.601-0.262-0.93-0.263l-0.002-0.375v0.375C4.303,14.396,3.511,15.169,3.481,16.13z
		 M14.755,7.849c-1.244,0-2.256,1.475-2.256,3.288c0,1.813,1.012,3.288,2.256,3.288c1.244,0,2.256-1.475,2.256-3.288
		C17.011,9.324,15.999,7.849,14.755,7.849z M8.743,7.849c-1.244,0-2.256,1.475-2.256,3.288c0,1.813,1.012,3.288,2.256,3.288
		s2.256-1.475,2.256-3.288C10.999,9.324,9.987,7.849,8.743,7.849z"/>
	<path d="M1.25,12.362c-0.28,0-0.535-0.154-0.665-0.403c-0.093-0.178-0.111-0.381-0.051-0.572c0.06-0.191,0.191-0.348,0.368-0.44
		C3.861,9.4,4.282,8.108,4.538,7.243l0.376-6.065C4.931,0.85,5.077,0.544,5.325,0.321C5.555,0.114,5.852,0,6.161,0
		c0.354,0,0.693,0.151,0.93,0.414l3.485,3.861c0.389-0.052,0.783-0.079,1.174-0.079s0.784,0.026,1.174,0.079l3.486-3.862
		c0.219-0.244,0.533-0.394,0.862-0.411C17.293,0.001,17.316,0,17.339,0c0.308,0,0.604,0.114,0.834,0.321
		c0.249,0.224,0.395,0.53,0.412,0.864l0.375,6.058c0.256,0.865,0.677,2.157,3.636,3.704c0.366,0.192,0.509,0.646,0.317,1.012
		c-0.13,0.248-0.385,0.402-0.665,0.402c-0.12,0-0.24-0.029-0.347-0.085c-3.296-1.723-3.983-3.262-4.404-4.691
		c-0.016-0.053-0.026-0.109-0.029-0.166l-0.345-5.561l-3.36,3.723C13.622,5.739,13.42,5.83,13.208,5.83
		c-0.045,0-0.09-0.004-0.135-0.012c-0.437-0.08-0.882-0.121-1.323-0.121s-0.886,0.041-1.323,0.121
		c-0.044,0.008-0.09,0.013-0.136,0.013c-0.211,0-0.414-0.09-0.556-0.247l-3.36-3.723L6.03,7.42C6.026,7.476,6.017,7.532,6.001,7.586
		c-0.422,1.429-1.109,2.968-4.404,4.691C1.491,12.332,1.37,12.362,1.25,12.362L1.25,12.362z"/>
</g>
</svg>
