<?xml version="1.0" encoding="utf-8"?>
<!-- Generator: Adobe Illustrator 22.1.0, SVG Export Plug-In . SVG Version: 6.00 Build 0)  -->
<svg version="1.1" id="Regular" xmlns="http://www.w3.org/2000/svg" xmlns:xlink="http://www.w3.org/1999/xlink" x="0px" y="0px"
	 viewBox="0 0 24 24" style="enable-background:new 0 0 24 24;" xml:space="preserve">
<title>famous-character-1</title>
<g>
	<path d="M10.314,24c-0.545,0-1.071-0.198-1.482-0.557l-5.064-4.431C3.28,18.585,3,17.968,3,17.319V8.25C3,3.855,7.206,0,12,0
		s9,3.855,9,8.25v9.069c0,0.649-0.28,1.266-0.768,1.693l-5.064,4.431C14.757,23.802,14.231,24,13.686,24H10.314z M9.82,22.314
		c0.137,0.12,0.312,0.186,0.494,0.186h3.372c0.182,0,0.357-0.066,0.494-0.186l0.38-0.333L13.25,21H10.75l-1.311,0.981L9.82,22.314z
		 M13.5,19.5c0.168,0,0.325,0.054,0.456,0.155l1.308,0.98l1.253-5.793c0.038-0.176,0.138-0.333,0.282-0.441l2.701-2.025V8.25
		c0-2.046-1.219-4.088-3.206-5.411l-2.123,4.246C14.043,7.341,13.786,7.5,13.5,7.5h-3c-0.286,0-0.543-0.159-0.671-0.414L7.706,2.839
		C5.719,4.162,4.5,6.204,4.5,8.25v4.125L7.2,14.4c0.144,0.108,0.245,0.265,0.283,0.441l1.253,5.793l1.312-0.982
		c0.128-0.098,0.285-0.152,0.45-0.152c0,0,0.009,0,0.013,0H13.5z M16.962,19.881l2.283-1.997c0.162-0.142,0.256-0.348,0.256-0.564
		V14.25l-1.576,1.182L16.962,19.881z M4.5,17.319c0,0.216,0.093,0.422,0.256,0.564l2.282,1.997l-0.962-4.448L4.5,14.25V17.319z
		 M13.037,6l1.937-3.876C14.016,1.715,12.995,1.5,12,1.5S9.984,1.715,9.026,2.124L10.964,6H13.037z"/>
	<path d="M13.5,12.75c-0.173,0-0.342-0.06-0.476-0.17C12.85,12.437,12.75,12.226,12.75,12v-1.5h-1.5V12
		c0,0.225-0.1,0.437-0.274,0.58c-0.134,0.11-0.303,0.17-0.476,0.17l0,0c-0.049,0-0.098-0.005-0.147-0.015l-3.75-0.75
		C6.254,11.916,6,11.606,6,11.25V9c0-0.225,0.1-0.437,0.274-0.58C6.408,8.31,6.577,8.25,6.75,8.25c0.049,0,0.098,0.005,0.146,0.014
		L10.574,9h2.852l3.677-0.735C17.15,8.255,17.2,8.25,17.251,8.25c0.172,0,0.341,0.061,0.475,0.17C17.9,8.563,18,8.774,18,9v2.25
		c0,0.356-0.254,0.666-0.603,0.735l-3.75,0.75C13.598,12.745,13.549,12.75,13.5,12.75z M14.25,11.085l2.25-0.45v-0.72l-2.25,0.45
		V11.085z M9.75,11.085v-0.72L7.5,9.915v0.72L9.75,11.085z"/>
	<path d="M10.5,18c-0.414,0-0.75-0.336-0.75-0.75s0.336-0.75,0.75-0.75h3c0.414,0,0.75,0.336,0.75,0.75S13.914,18,13.5,18H10.5z"/>
</g>
</svg>
