<?xml version="1.0" encoding="utf-8"?>
<!-- Generator: Adobe Illustrator 22.1.0, SVG Export Plug-In . SVG Version: 6.00 Build 0)  -->
<svg version="1.1" id="Regular" xmlns="http://www.w3.org/2000/svg" xmlns:xlink="http://www.w3.org/1999/xlink" x="0px" y="0px"
	 viewBox="0 0 24 24" style="enable-background:new 0 0 24 24;" xml:space="preserve">
<title>famous-character-flapjack</title>
<g>
	<path d="M13,24c-4.465,0-9.75-4.878-9.75-9V8.493C1.776,7.699,0.9,6.14,1.001,4.455c0.154-2.385,2.067-4.299,4.45-4.453L17.5,0
		c2.262,0,3.478,0.783,3.709,2.392C22.75,3.063,22.75,5.951,22.75,9v6C22.75,19.122,17.465,24,13,24z M4.75,15
		c0,3.294,4.626,7.5,8.25,7.5s8.25-4.206,8.25-7.5v-2.282c-1.757-0.228-3.197-1.537-3.566-3.29
		c-0.079-0.289-0.381-0.514-0.714-0.515h-0.22c-0.414,0-0.75-0.336-0.75-0.75s0.336-0.75,0.75-0.75h0.221
		c1.015,0.001,1.907,0.686,2.171,1.665c0.23,1.086,1.068,1.907,2.108,2.121V9c0-1.704,0-5.25-0.75-5.25
		c-0.414,0-0.75-0.336-0.75-0.75c0-0.85-0.166-1.5-2.25-1.5h-12C3.905,1.605,2.604,2.916,2.498,4.549
		C2.429,5.695,3.082,6.777,4.128,7.255C4.228,7.272,4.324,7.31,4.409,7.365c0.228,0.076,0.467,0.121,0.709,0.136
		C5.174,7.505,5.23,7.506,5.286,7.506c0.056,0,0.113-0.002,0.169-0.005L12.024,7.5c0.072-0.007,0.143-0.01,0.214-0.01
		c1.147,0,2.112,0.86,2.244,2c0.143,1.238-0.748,2.362-1.986,2.505c-0.086,0.01-0.172,0.015-0.259,0.015
		c-0.087,0-0.173-0.005-0.26-0.015c-0.411-0.047-0.706-0.42-0.659-0.831c0.044-0.379,0.364-0.664,0.745-0.664
		c0.029,0,0.058,0.002,0.087,0.005c0.028,0.003,0.058,0.005,0.087,0.005c0.029,0,0.058-0.002,0.087-0.005
		c0.416-0.048,0.716-0.426,0.667-0.842c-0.044-0.383-0.369-0.672-0.756-0.672c-0.029,0-0.058,0.002-0.087,0.005
		C12.119,8.998,12.091,9,12.063,9H5.5C5.45,9.004,5.37,9.006,5.287,9.006c-0.084,0-0.172-0.003-0.259-0.008
		C4.935,8.993,4.842,8.984,4.75,8.973V15z"/>
	<path d="M16.375,14.25c-0.044,0-0.088-0.004-0.13-0.011c-0.513-0.06-0.923-0.47-0.983-0.983c-0.007-0.042-0.011-0.086-0.011-0.13
		s0.004-0.088,0.011-0.131c0.06-0.513,0.47-0.923,0.983-0.983C16.287,12.004,16.331,12,16.375,12s0.088,0.004,0.131,0.011
		c0.513,0.06,0.923,0.47,0.983,0.983c0.008,0.042,0.011,0.086,0.011,0.131s-0.004,0.088-0.011,0.131
		c-0.06,0.513-0.47,0.923-0.983,0.983C16.463,14.246,16.419,14.25,16.375,14.25z"/>
	<path d="M8.875,14.25c-0.044,0-0.088-0.004-0.13-0.011c-0.513-0.06-0.923-0.47-0.983-0.982c-0.008-0.043-0.011-0.087-0.011-0.131
		s0.004-0.088,0.011-0.131c0.06-0.513,0.47-0.922,0.983-0.983C8.787,12.004,8.831,12,8.875,12s0.088,0.004,0.13,0.011
		c0.513,0.06,0.923,0.47,0.983,0.983C9.996,13.037,10,13.081,10,13.125s-0.004,0.088-0.011,0.131
		c-0.06,0.513-0.47,0.922-0.983,0.982C8.963,14.246,8.919,14.25,8.875,14.25z"/>
	<path d="M12.846,19.504c-0.938,0-1.852-0.329-2.574-0.926c-0.319-0.264-0.363-0.738-0.1-1.056c0.143-0.173,0.354-0.272,0.578-0.272
		c0.174,0,0.343,0.061,0.477,0.172c0.454,0.375,1.028,0.582,1.618,0.582c0.04,0,0.079-0.001,0.119-0.003c0.006,0,0.069,0,0.069,0
		c0.042,0.002,0.083,0.003,0.123,0.003c0.589,0,1.162-0.207,1.616-0.582c0.135-0.111,0.304-0.172,0.478-0.172
		c0.224,0,0.435,0.099,0.578,0.272c0.263,0.319,0.218,0.793-0.1,1.056c-0.722,0.597-1.635,0.926-2.571,0.926
		c-0.052,0-0.105-0.001-0.157-0.003C12.948,19.503,12.897,19.504,12.846,19.504z"/>
</g>
</svg>
