<?xml version="1.0" encoding="utf-8"?>
<!-- Generator: Adobe Illustrator 22.1.0, SVG Export Plug-In . SVG Version: 6.00 Build 0)  -->
<svg version="1.1" id="Regular" xmlns="http://www.w3.org/2000/svg" xmlns:xlink="http://www.w3.org/1999/xlink" x="0px" y="0px"
	 viewBox="0 0 24 24" style="enable-background:new 0 0 24 24;" xml:space="preserve">
<title>famous-character-star-wars-1</title>
<g>
	<path d="M0.75,4.75C0.336,4.75,0,4.413,0,4V2.5c0-0.414,0.336-0.75,0.75-0.75S1.5,2.086,1.5,2.5V4C1.5,4.413,1.164,4.75,0.75,4.75z
		"/>
	<path d="M16.5,23.499c-0.414,0-0.75-0.336-0.75-0.75v-1.5h-7.5v1.5c0,0.414-0.336,0.75-0.75,0.75s-0.75-0.336-0.75-0.75v-1.5h-1.5
		c-0.063,0-0.127-0.009-0.193-0.027c-0.016-0.003-0.031-0.007-0.044-0.012l-3.474-1.158C0.619,19.747,0,18.889,0,17.919V7.75
		C0,7.336,0.336,7,0.75,7S1.5,7.336,1.5,7.75v7.5h3c0-1.241,1.009-2.25,2.25-2.25h1.624L9.769,2.241
		c0.133-1.008,0.929-1.804,1.935-1.937c0.099-0.013,0.2-0.02,0.3-0.02c0.495,0,0.967,0.161,1.364,0.464
		c0.477,0.365,0.783,0.895,0.863,1.491l1.396,10.76h1.623c1.241,0,2.25,1.009,2.25,2.25h3v-7.5C22.5,7.336,22.836,7,23.25,7
		S24,7.336,24,7.75v10.169c0,0.97-0.618,1.828-1.539,2.134l-3.474,1.158c-0.014,0.005-0.031,0.009-0.047,0.012
		c-0.067,0.018-0.129,0.026-0.19,0.026h-1.5v1.5C17.25,23.163,16.914,23.499,16.5,23.499z M18,19.749v-4.5
		c0-0.414-0.336-0.75-0.75-0.75h-1.5v5.25H18z M14.25,19.749v-5.454c-0.631-0.645-1.523-1.296-2.25-1.296
		c-0.722,0-1.712,1.006-2.25,1.738v5.012H14.25z M8.25,19.749v-5.25h-1.5c-0.414,0-0.75,0.336-0.75,0.75v4.5H8.25z M19.5,19.459
		l2.487-0.829c0.307-0.102,0.513-0.388,0.513-0.711v-1.169h-3V19.459z M1.5,17.919c0,0.323,0.206,0.609,0.513,0.711L4.5,19.459
		v-2.709h-3V17.919z M12.002,1.785c-0.033,0-0.067,0.002-0.101,0.007c-0.335,0.044-0.6,0.31-0.645,0.645l-1.285,9.906
		c0.584-0.464,1.288-0.843,2.029-0.843c0.728,0,1.427,0.303,2.006,0.67l-1.263-9.735c-0.026-0.197-0.128-0.373-0.287-0.495
		C12.324,1.838,12.167,1.785,12.002,1.785z"/>
	<path d="M23.25,4.75c-0.414,0-0.75-0.336-0.75-0.75V2.5c0-0.414,0.336-0.75,0.75-0.75S24,2.086,24,2.5V4
		C24,4.413,23.664,4.75,23.25,4.75z"/>
</g>
</svg>
