<?xml version="1.0" encoding="utf-8"?>
<!-- Generator: Adobe Illustrator 22.1.0, SVG Export Plug-In . SVG Version: 6.00 Build 0)  -->
<svg version="1.1" id="Regular" xmlns="http://www.w3.org/2000/svg" xmlns:xlink="http://www.w3.org/1999/xlink" x="0px" y="0px"
	 viewBox="0 0 24 24" style="enable-background:new 0 0 24 24;" xml:space="preserve">
<title>farming-barn-1</title>
<g>
	<path d="M23.25,13.502c-0.309,0-0.582-0.185-0.696-0.472l-2.9-7.249L12,1.606L4.346,5.781l-2.9,7.249
		c-0.114,0.286-0.388,0.472-0.696,0.472c-0.096,0-0.19-0.018-0.279-0.054c-0.186-0.074-0.332-0.217-0.41-0.401
		c-0.079-0.184-0.081-0.388-0.007-0.574l3-7.5c0.065-0.161,0.184-0.297,0.337-0.38l8.25-4.5c0.009-0.005,0.018-0.009,0.027-0.013
		c0.024-0.011,0.047-0.021,0.069-0.029c0.01-0.005,0.029-0.012,0.047-0.017c0.026-0.008,0.053-0.013,0.079-0.018
		c0.02-0.005,0.042-0.009,0.064-0.011c0.012-0.001,0.036-0.002,0.049-0.002c0.001,0,0.026,0,0.028,0c0.013,0,0.058,0.001,0.07,0.002
		c0.02,0.002,0.041,0.006,0.062,0.01c0.027,0.004,0.053,0.01,0.078,0.017c0.015,0.004,0.041,0.014,0.055,0.021
		c0.017,0.006,0.043,0.016,0.069,0.03c0.002,0.001,8.27,4.51,8.27,4.51c0.153,0.083,0.272,0.218,0.337,0.38l3,7.501
		c0.074,0.186,0.072,0.39-0.007,0.574c-0.079,0.184-0.225,0.327-0.411,0.401C23.44,13.484,23.346,13.502,23.25,13.502z"/>
	<path d="M0.75,24.002c-0.414,0-0.75-0.336-0.75-0.75s0.336-0.75,0.75-0.75H3v-10.5c0-0.414,0.336-0.75,0.75-0.75
		s0.75,0.336,0.75,0.75v10.5h2.25v-6.75c0-0.013,0.001-0.033,0.003-0.049c0.001-0.022,0.004-0.043,0.007-0.065
		c0.003-0.023,0.008-0.048,0.015-0.072c0.005-0.02,0.013-0.044,0.022-0.069c0.008-0.022,0.018-0.047,0.03-0.071
		c0.009-0.018,0.02-0.038,0.032-0.058c0.012-0.02,0.025-0.039,0.039-0.059c0.008-0.012,0.018-0.025,0.025-0.034
		c0.012-0.014,0.023-0.027,0.036-0.038c0.012-0.013,0.028-0.028,0.044-0.042c0.02-0.018,0.037-0.032,0.055-0.045
		c0.023-0.017,0.043-0.03,0.065-0.042c0.018-0.011,0.041-0.024,0.065-0.034c0.017-0.008,0.041-0.018,0.066-0.027
		c0.021-0.007,0.043-0.014,0.065-0.02c0.025-0.006,0.047-0.01,0.07-0.014c0.03-0.004,0.052-0.006,0.074-0.008
		c0.016-0.002,0.021-0.002,0.036-0.002c0.001,0,9.003,0,9.003,0c0.013,0,0.031,0.001,0.046,0.003
		c0.021,0.001,0.042,0.004,0.064,0.007c0.024,0.003,0.048,0.008,0.073,0.014c0.021,0.005,0.046,0.013,0.07,0.021
		c0.022,0.008,0.044,0.016,0.065,0.026c0.025,0.012,0.046,0.023,0.067,0.036c0.014,0.008,0.034,0.021,0.053,0.034
		c0.028,0.021,0.044,0.034,0.06,0.048c0.016,0.014,0.032,0.029,0.048,0.046c0.011,0.011,0.024,0.025,0.033,0.035
		c0.01,0.011,0.02,0.025,0.03,0.041c0.014,0.02,0.025,0.036,0.035,0.054c0.01,0.017,0.021,0.037,0.031,0.058
		c0.012,0.026,0.022,0.049,0.031,0.073c0.008,0.024,0.016,0.047,0.022,0.072c0.005,0.019,0.01,0.044,0.014,0.069
		c0.003,0.02,0.006,0.046,0.008,0.073c0.002,0.016,0.002,0.022,0.002,0.039v6.75h2.25v-10.5c0-0.414,0.336-0.75,0.75-0.75
		S21,11.588,21,12.002v10.5h2.25c0.414,0,0.75,0.336,0.75,0.75s-0.336,0.75-0.75,0.75H0.75z M14.429,22.502L12,20.478l-2.428,2.024
		H14.429z M15.75,21.651v-4.298l-2.579,2.149L15.75,21.651z M8.25,21.651l2.578-2.149L8.25,17.353V21.651z M12,18.526l2.429-2.024
		H9.572L12,18.526z"/>
	<path d="M12,10.502c-1.654,0-3-1.346-3-3s1.346-3,3-3c1.654,0,3,1.346,3,3S13.654,10.502,12,10.502z M12,6.002
		c-0.827,0-1.5,0.673-1.5,1.5s0.673,1.5,1.5,1.5s1.5-0.673,1.5-1.5S12.827,6.002,12,6.002z"/>
</g>
</svg>
