<?xml version="1.0" encoding="utf-8"?>
<!-- Generator: Adobe Illustrator 22.1.0, SVG Export Plug-In . SVG Version: 6.00 Build 0)  -->
<svg version="1.1" id="Regular" xmlns="http://www.w3.org/2000/svg" xmlns:xlink="http://www.w3.org/1999/xlink" x="0px" y="0px"
	 viewBox="0 0 24 24" style="enable-background:new 0 0 24 24;" xml:space="preserve">
<title>farming-farmer-work</title>
<g>
	<path d="M13.497,7.501c-1.06,0-2.048-0.439-2.758-1.217L9.383,7.099c-0.116,0.07-0.25,0.107-0.386,0.107
		c-0.262,0-0.508-0.139-0.643-0.364C8.251,6.67,8.22,6.469,8.269,6.274C8.317,6.08,8.439,5.916,8.61,5.813L9.963,5
		C9.819,4.597,9.747,4.178,9.747,3.751c0-2.068,1.682-3.75,3.75-3.75c1.06,0,2.048,0.44,2.759,1.217l1.355-0.814
		c0.116-0.07,0.25-0.107,0.385-0.107c0.262,0,0.508,0.139,0.644,0.363c0.213,0.355,0.098,0.816-0.257,1.03L17.03,2.503
		c0.144,0.402,0.217,0.821,0.217,1.248C17.247,5.818,15.564,7.501,13.497,7.501z M12.066,5.486c0.4,0.331,0.902,0.515,1.43,0.515
		c1.241,0,2.25-1.009,2.25-2.25c0-0.152-0.015-0.303-0.045-0.45L12.066,5.486z M13.497,1.501c-1.241,0-2.25,1.009-2.25,2.25
		c0,0.153,0.015,0.303,0.045,0.451l3.636-2.185C14.528,1.685,14.025,1.501,13.497,1.501z"/>
	<path d="M18.012,24.02c-0.181,0-0.363-0.022-0.54-0.066c-0.583-0.143-1.076-0.505-1.388-1.019l-2.587-4.14l-2.619,4.191
		c-0.328,0.509-0.831,0.856-1.419,0.982c-0.157,0.034-0.318,0.051-0.477,0.051c-0.431,0-0.852-0.125-1.217-0.361
		c-0.504-0.325-0.851-0.829-0.978-1.417c-0.127-0.588-0.017-1.19,0.309-1.694l4.151-5.789v-3.509c0-0.258,0.043-0.509,0.128-0.747
		L4.96,10.501l1.707,3.414c0.117,0.234,0.105,0.507-0.033,0.73c-0.138,0.223-0.376,0.355-0.638,0.355h-3.75
		c-0.827,0-1.5-0.673-1.5-1.5v-3c0-0.827,0.673-1.5,1.5-1.5l11.172,0.004c0.028-0.003,0.053-0.004,0.078-0.004
		c0.026,0,0.046,0.002,0.067,0.004l7.456,0.003c0.027,0,0.053,0.002,0.079,0.006c0.414,0.018,0.812,0.147,1.153,0.375
		c1.022,0.688,1.301,2.083,0.621,3.109c-0.233,0.338-2.339,3.253-5.625,3.253c-0.282-0.003-0.562-0.026-0.839-0.069l3.512,4.902
		c0.006,0.008,0.011,0.016,0.016,0.024c0.31,0.511,0.402,1.115,0.258,1.698c-0.144,0.584-0.506,1.077-1.02,1.388
		C18.821,23.908,18.42,24.02,18.012,24.02z M13.462,10.505c-0.395,0.016-0.716,0.35-0.716,0.746v3.75
		c0,0.157-0.049,0.309-0.14,0.437l-4.271,5.955C8.13,21.711,8.237,22.179,8.579,22.4c0.122,0.079,0.262,0.12,0.405,0.12
		c0.053,0,0.107-0.006,0.16-0.017c0.196-0.042,0.364-0.158,0.472-0.326l3.245-5.193c0.138-0.221,0.376-0.353,0.636-0.353
		s0.498,0.132,0.636,0.352l3.229,5.166c0.141,0.233,0.383,0.37,0.649,0.37c0.136,0,0.269-0.037,0.386-0.108
		c0.172-0.104,0.292-0.268,0.34-0.462c0.048-0.195,0.017-0.396-0.087-0.567l-0.016-0.025l-4.247-5.918
		c-0.092-0.128-0.141-0.28-0.141-0.437v-0.55c0-0.259,0.137-0.504,0.358-0.639c0.118-0.073,0.254-0.111,0.392-0.111
		c0.117,0,0.235,0.028,0.339,0.081c0.592,0.3,1.255,0.462,1.918,0.469c2.515,0,4.189-2.324,4.372-2.589
		c0.222-0.335,0.129-0.799-0.211-1.028c-0.123-0.082-0.267-0.126-0.417-0.126c-0.251,0-0.486,0.122-0.626,0.327l-0.002-0.001
		c-0.187,0.266-1.434,1.916-3.124,1.916c-0.04,0-0.08-0.003-0.119-0.01c-1.135-0.181-2.18-0.809-2.876-1.726
		c-0.064-0.051-0.119-0.112-0.165-0.182c-0.125-0.195-0.332-0.315-0.565-0.329L13.462,10.505z M2.247,13.501h2.536l-1.5-3H2.247
		V13.501z M15.809,10.506c0.415,0.38,0.934,0.642,1.493,0.744c0.497-0.026,1.004-0.391,1.371-0.743L15.809,10.506z"/>
</g>
</svg>
