<?xml version="1.0" encoding="utf-8"?>
<!-- Generator: Adobe Illustrator 22.1.0, SVG Export Plug-In . SVG Version: 6.00 Build 0)  -->
<svg version="1.1" id="Regular" xmlns="http://www.w3.org/2000/svg" xmlns:xlink="http://www.w3.org/1999/xlink" x="0px" y="0px"
	 viewBox="0 0 24 24" style="enable-background:new 0 0 24 24;" xml:space="preserve">
<title>farmer&amp;apos;s-market-kiosk</title>
<g>
	<path d="M21,9c-0.863,0-1.685-0.38-2.25-1.018C18.185,8.62,17.363,9,16.5,9s-1.685-0.38-2.25-1.018C13.685,8.62,12.863,9,12,9
		s-1.685-0.38-2.25-1.018C9.185,8.62,8.363,9,7.5,9S5.815,8.62,5.25,7.982C4.685,8.62,3.863,9,3,9C1.346,9,0,7.654,0,6
		c0-0.071,0.01-0.142,0.03-0.211l1.366-4.652C1.549,0.477,2.159,0,2.852,0h18.296c0.708,0,1.31,0.482,1.465,1.173l1.357,4.616
		C23.99,5.858,24,5.929,24,6C24,7.654,22.654,9,21,9z M18.75,5.25c0.414,0,0.75,0.336,0.75,0.75c0,0.827,0.673,1.5,1.5,1.5
		c0.786,0,1.446-0.624,1.497-1.403l-1.335-4.549c-0.011-0.044-0.018-0.051-0.018-0.051L2.852,1.5
		C2.85,1.508,1.503,6.097,1.503,6.097C1.554,6.876,2.214,7.5,3,7.5c0.827,0,1.5-0.673,1.5-1.5c0-0.414,0.336-0.75,0.75-0.75
		S6,5.586,6,6c0,0.827,0.673,1.5,1.5,1.5S9,6.827,9,6c0-0.414,0.336-0.75,0.75-0.75S10.5,5.586,10.5,6c0,0.827,0.673,1.5,1.5,1.5
		s1.5-0.673,1.5-1.5c0-0.414,0.336-0.75,0.75-0.75S15,5.586,15,6c0,0.827,0.673,1.5,1.5,1.5S18,6.827,18,6
		C18,5.586,18.336,5.25,18.75,5.25z"/>
	<path d="M21.75,24C21.336,24,21,23.664,21,23.25v-3H3v3C3,23.664,2.664,24,2.25,24S1.5,23.664,1.5,23.25V10.5
		c0-0.414,0.336-0.75,0.75-0.75S3,10.086,3,10.5v8.25h1.902C4.64,18.299,4.5,17.785,4.5,17.25c0-1.491,1.118-2.76,2.577-2.968
		l1.299-1.948C8.515,12.125,8.748,12,9,12c0.149,0,0.292,0.044,0.416,0.127c0.344,0.229,0.437,0.696,0.208,1.04l-0.9,1.35
		c0.39,0.176,0.741,0.435,1.025,0.757c0.47-0.534,1.119-0.889,1.828-0.99l1.299-1.948C13.015,12.125,13.249,12,13.5,12
		c0.148,0,0.292,0.044,0.416,0.126c0.167,0.111,0.28,0.28,0.32,0.477c0.039,0.197,0,0.397-0.112,0.563l-0.9,1.35
		c0.39,0.176,0.741,0.435,1.025,0.757c0.47-0.534,1.119-0.889,1.828-0.99l1.299-1.948C17.516,12.125,17.749,12,18,12
		c0.148,0,0.292,0.044,0.416,0.126c0.167,0.111,0.28,0.28,0.32,0.477c0.039,0.197,0,0.397-0.112,0.563l-0.899,1.348
		c1.066,0.476,1.775,1.538,1.775,2.736c0,0.535-0.14,1.049-0.402,1.5H21V10.5c0-0.414,0.336-0.75,0.75-0.75s0.75,0.336,0.75,0.75
		v12.75C22.5,23.664,22.164,24,21.75,24z M16.5,15.75c-0.827,0-1.5,0.673-1.5,1.5s0.673,1.5,1.5,1.5s1.5-0.673,1.5-1.5
		S17.327,15.75,16.5,15.75z M12,15.75c-0.827,0-1.5,0.673-1.5,1.5s0.673,1.5,1.5,1.5s1.5-0.673,1.5-1.5S12.827,15.75,12,15.75z
		 M7.5,15.75c-0.827,0-1.5,0.673-1.5,1.5s0.673,1.5,1.5,1.5S9,18.077,9,17.25S8.327,15.75,7.5,15.75z"/>
</g>
</svg>
