<?xml version="1.0" encoding="utf-8"?>
<!-- Generator: Adobe Illustrator 22.1.0, SVG Export Plug-In . SVG Version: 6.00 Build 0)  -->
<svg version="1.1" id="Regular" xmlns="http://www.w3.org/2000/svg" xmlns:xlink="http://www.w3.org/1999/xlink" x="0px" y="0px"
	 viewBox="0 0 24 24" style="enable-background:new 0 0 24 24;" xml:space="preserve">
<title>fast-food-hot-dog-grilled</title>
<g>
	<path d="M0.747,24.004c-0.192,0-0.374-0.072-0.514-0.204c-0.301-0.283-0.316-0.759-0.033-1.06l7.93-8.438L1.627,7.799
		c-1.781-1.781-1.781-4.678,0-6.459c0.861-0.861,2.008-1.336,3.229-1.336c1.221,0,2.368,0.474,3.229,1.336l4.328,4.328l2.168-2.168
		c0.142-0.142,0.33-0.22,0.53-0.22s0.389,0.078,0.53,0.22c0.142,0.141,0.22,0.33,0.22,0.53s-0.078,0.389-0.22,0.53l-2.168,2.168
		l1.098,1.098l2.168-2.168c0.142-0.142,0.33-0.22,0.53-0.22s0.389,0.078,0.53,0.22c0.142,0.141,0.22,0.33,0.22,0.53
		c0,0.2-0.078,0.389-0.22,0.53l-2.168,2.168l1.099,1.098L18.9,7.819c0.142-0.142,0.33-0.22,0.53-0.22s0.389,0.078,0.53,0.22
		c0.142,0.141,0.22,0.33,0.22,0.53s-0.078,0.389-0.22,0.53l-2.168,2.168l4.868,4.868c1.781,1.781,1.781,4.678,0,6.458
		c-0.863,0.863-2.009,1.338-3.229,1.338s-2.367-0.475-3.229-1.338l-7.01-7.01l-7.898,8.404C1.153,23.918,0.953,24.004,0.747,24.004z
		 M4.856,1.504c-0.82,0-1.591,0.318-2.169,0.897c-1.196,1.196-1.196,3.142,0,4.338l14.575,14.575
		c0.579,0.579,1.35,0.898,2.169,0.898s1.589-0.319,2.169-0.898c1.196-1.196,1.196-3.142,0-4.337l-5.381-5.381
		c-0.011-0.01-0.022-0.021-0.032-0.032c-0.003-0.003-2.126-2.127-2.126-2.127c-0.012-0.01-0.023-0.021-0.033-0.033
		C14.024,9.4,11.9,7.276,11.9,7.276c-0.006-0.005-0.011-0.01-0.017-0.016c-0.006-0.006-4.859-4.86-4.859-4.86
		C6.447,1.823,5.676,1.504,4.856,1.504z"/>
	<path d="M4.497,6.004c-0.414,0-0.75-0.336-0.75-0.75s0.336-0.75,0.75-0.75h2.25c0.414,0,0.75,0.336,0.75,0.75
		s-0.336,0.75-0.75,0.75H4.497z"/>
	<path d="M8.997,10.504c-0.414,0-0.75-0.336-0.75-0.75s0.336-0.75,0.75-0.75h2.25c0.414,0,0.75,0.336,0.75,0.75
		s-0.336,0.75-0.75,0.75H8.997z"/>
	<path d="M13.497,15.004c-0.414,0-0.75-0.336-0.75-0.75s0.336-0.75,0.75-0.75h2.25c0.414,0,0.75,0.336,0.75,0.75
		s-0.336,0.75-0.75,0.75H13.497z"/>
	<path d="M17.997,19.504c-0.414,0-0.75-0.336-0.75-0.75s0.336-0.75,0.75-0.75h2.25c0.414,0,0.75,0.336,0.75,0.75
		s-0.336,0.75-0.75,0.75H17.997z"/>
</g>
</svg>
