<?xml version="1.0" encoding="utf-8"?>
<!-- Generator: Adobe Illustrator 22.1.0, SVG Export Plug-In . SVG Version: 6.00 Build 0)  -->
<svg version="1.1" id="Regular" xmlns="http://www.w3.org/2000/svg" xmlns:xlink="http://www.w3.org/1999/xlink" x="0px" y="0px"
	 viewBox="0 0 24 24" style="enable-background:new 0 0 24 24;" xml:space="preserve">
<title>fast-food-tacos</title>
<g>
	<path d="M7.469,24.052c-0.987,0-1.944-0.359-2.696-1.01c-0.769-0.737-1.167-1.747-1.11-2.769c-0.588-0.158-1.127-0.457-1.575-0.875
		c-1.09-1.061-1.393-2.691-0.782-4.052c-0.545-0.699-0.815-1.562-0.762-2.455c0.057-0.973,0.49-1.866,1.219-2.514
		c0.257-0.244,0.55-0.455,0.872-0.626C2.018,8.331,2.373,6.632,3.549,5.579c0.749-0.718,1.749-1.118,2.806-1.118
		c0.036,0,0.071,0,0.107,0.001c0.196-0.615,0.543-1.169,1.014-1.616c0.747-0.731,1.739-1.135,2.788-1.135
		c0.527,0,1.051,0.106,1.537,0.308c0.186-0.329,0.419-0.628,0.694-0.891c0.742-0.734,1.736-1.141,2.795-1.141
		c0.978,0,1.918,0.356,2.646,1.002c0.894,0.859,1.276,2.082,1.044,3.266c1.095,0.471,2.102,1.142,3,1.999l0.807,0.771
		c0.027,0.025,0.063,0.06,0.097,0.098c0.394,0.421,0.599,0.97,0.58,1.546c-0.019,0.572-0.259,1.104-0.676,1.497L10.651,22.475
		c-0.011,0.013-0.023,0.025-0.035,0.036l-0.747,0.709c-0.256,0.244-0.57,0.433-0.906,0.546C8.499,23.953,7.99,24.052,7.469,24.052z
		 M2.646,14.605c0.031,0.021,0.058,0.043,0.078,0.061c0.282,0.249,0.335,0.671,0.125,0.982c-0.566,0.838-0.451,1.958,0.274,2.664
		c0.385,0.359,0.897,0.57,1.436,0.588c0.231,0.008,0.45,0.125,0.585,0.314c0.135,0.189,0.174,0.435,0.106,0.656
		c-0.228,0.738-0.023,1.529,0.535,2.063c0.454,0.393,1.056,0.616,1.679,0.616c0.336,0,0.667-0.064,0.981-0.19
		c0.167-0.057,0.289-0.129,0.391-0.226l0.183-0.174l-1.315-1.257c-0.141-0.138-0.272-0.274-0.404-0.42
		c-1.75-1.933-2.642-4.432-2.512-7.036c0.13-2.604,1.266-5.002,3.199-6.751c2.035-1.944,4.601-3.019,7.217-3.019
		c0.788,0,1.571,0.097,2.333,0.29c0.059-0.62-0.163-1.238-0.62-1.678c-0.436-0.386-1.017-0.605-1.623-0.605
		c-0.663,0-1.286,0.255-1.754,0.718c-0.313,0.3-0.538,0.672-0.654,1.079c-0.067,0.235-0.244,0.423-0.475,0.503
		c-0.08,0.028-0.163,0.042-0.247,0.042c-0.158,0-0.31-0.049-0.438-0.142c-0.429-0.309-0.935-0.473-1.462-0.473
		c-0.656,0-1.277,0.254-1.749,0.715c-0.405,0.385-0.66,0.896-0.722,1.442c-0.024,0.21-0.136,0.401-0.306,0.524
		C7.36,5.985,7.208,6.034,7.05,6.034c-0.052,0-0.104-0.005-0.155-0.016C6.717,5.98,6.536,5.961,6.356,5.961
		c-0.669,0-1.304,0.255-1.788,0.719C3.698,7.459,3.59,8.761,4.313,9.653c0.161,0.199,0.21,0.464,0.129,0.707
		c-0.08,0.243-0.276,0.427-0.524,0.491c-0.427,0.11-0.822,0.329-1.142,0.632c-0.444,0.395-0.702,0.924-0.736,1.497
		c-0.034,0.573,0.158,1.125,0.539,1.554C2.602,14.559,2.624,14.582,2.646,14.605z M15.21,4.983c-2.236,0-4.439,0.927-6.201,2.611
		c-1.648,1.492-2.613,3.524-2.723,5.727c-0.11,2.204,0.645,4.319,2.126,5.955c0.108,0.12,0.22,0.237,0.335,0.35l1.342,1.283
		c0,0,11.664-11.83,11.668-11.834c0.128-0.12,0.202-0.282,0.208-0.458c0.006-0.176-0.057-0.343-0.177-0.472
		c-0.01-0.011-0.019-0.02-0.029-0.029l-0.815-0.779C19.354,5.819,17.318,4.983,15.21,4.983z"/>
	<circle cx="10.66" cy="15.414" r="1.125"/>
	<circle cx="13.66" cy="12.414" r="1.125"/>
	<circle cx="9.91" cy="11.664" r="1.125"/>
	<circle cx="12.91" cy="8.664" r="1.125"/>
	<circle cx="16.66" cy="9.414" r="1.125"/>
</g>
</svg>
