<svg id="Outline_Version" data-name="Outline Version" xmlns="http://www.w3.org/2000/svg" viewBox="0 0 24 24"><title>feed-dailybooth</title><path d="M12,24a12,12,0,0,0,7.22-2.42l3.56,1.28a.75.75,0,0,0,.95-1l-1.5-3.61A12,12,0,1,0,12,24ZM12,1.5a10.5,10.5,0,0,1,8.77,16.28.75.75,0,0,0-.07.7l1,2.4L19.34,20a.75.75,0,0,0-.73.12A10.5,10.5,0,1,1,12,1.5Z"/><path d="M12.22,14.83a2.75,2.75,0,1,0-2.75-2.75A2.75,2.75,0,0,0,12.22,14.83Zm0-4A1.25,1.25,0,1,1,11,12.08,1.25,1.25,0,0,1,12.22,10.83Z"/><path d="M7.62,18.55a1.66,1.66,0,0,0,.37,0L18.5,16a1.7,1.7,0,0,0,1.1-.86,1.94,1.94,0,0,0,.17-1.37L18.24,7.3a1.94,1.94,0,0,0-.85-1.21,1.67,1.67,0,0,0-1.28-.22l-1.95.46A4.74,4.74,0,0,0,7.62,7.87l-2,.48a1.7,1.7,0,0,0-1.1.85,1.94,1.94,0,0,0-.17,1.37l1.53,6.52A1.85,1.85,0,0,0,7.62,18.55ZM5.82,9.91a.2.2,0,0,1,.12-.11l2.34-.55a.75.75,0,0,0,.49-.38,3.24,3.24,0,0,1,4.79-1.13.77.77,0,0,0,.62.13l2.27-.53a.18.18,0,0,1,.14,0,.44.44,0,0,1,.18.28l1.53,6.52a.45.45,0,0,1,0,.31.2.2,0,0,1-.12.11L7.65,17.05c-.11,0-.28-.09-.33-.31L5.79,10.22A.45.45,0,0,1,5.82,9.91Z"/></svg>