<?xml version="1.0" encoding="utf-8"?>
<!-- Generator: Adobe Illustrator 22.1.0, SVG Export Plug-In . SVG Version: 6.00 Build 0)  -->
<svg version="1.1" id="Regular" xmlns="http://www.w3.org/2000/svg" xmlns:xlink="http://www.w3.org/1999/xlink" x="0px" y="0px"
	 viewBox="0 0 24 24" style="enable-background:new 0 0 24 24;" xml:space="preserve">
<title>fireplace</title>
<g>
	<path d="M0.75,24C0.336,24,0,23.664,0,23.25s0.336-0.75,0.75-0.75H1.5V7.371C0.615,7.058,0,6.21,0,5.25v-3C0,1.009,1.009,0,2.25,0
		h19.5C22.991,0,24,1.009,24,2.25v3c0,0.96-0.615,1.808-1.5,2.121V22.5h0.75c0.414,0,0.75,0.336,0.75,0.75S23.664,24,23.25,24H0.75z
		 M21,22.5v-15H3v15h4.883C6.7,21.505,6,20.145,6,18.75c0-3.189,1.531-5.25,3.9-5.25c0.222,0,0.431,0.097,0.574,0.268
		c0.143,0.17,0.203,0.393,0.165,0.612c-0.077,0.44-0.258,1.471-0.06,1.708c0.022,0.026,0.124,0.113,0.502,0.113
		c0.382,0,0.509-0.15,0.589-0.312c0.376-0.762,0.01-3.095-1.971-5.682c-0.175-0.228-0.204-0.53-0.077-0.788
		C9.749,9.16,10.006,9,10.294,9C14.039,9,18,13.241,18,17.25c0,2.701-0.919,4.303-1.94,5.25H21z M9.008,15.198
		C8.054,15.667,7.5,16.946,7.5,18.75c0,1.77,1.924,3.75,4.5,3.75c1.353,0,4.5-0.511,4.5-5.25c0-2.539-2.153-5.44-4.579-6.413
		c1.281,2.22,1.724,4.439,1.094,5.715c-0.365,0.74-1.052,1.148-1.934,1.148c-0.745,0-1.284-0.212-1.651-0.648
		C9.024,16.569,8.944,15.953,9.008,15.198z M2.25,1.5C1.836,1.5,1.5,1.836,1.5,2.25v3C1.5,5.664,1.836,6,2.25,6h19.5
		c0.414,0,0.75-0.336,0.75-0.75v-3c0-0.414-0.336-0.75-0.75-0.75H2.25z"/>
</g>
</svg>
