<?xml version="1.0" encoding="utf-8"?>
<!-- Generator: Adobe Illustrator 22.1.0, SVG Export Plug-In . SVG Version: 6.00 Build 0)  -->
<svg version="1.1" id="Regular" xmlns="http://www.w3.org/2000/svg" xmlns:xlink="http://www.w3.org/1999/xlink" x="0px" y="0px"
	 viewBox="0 0 24 24" style="enable-background:new 0 0 24 24;" xml:space="preserve">
<title>fishing-fail</title>
<g>
	<path d="M4.55,24c-0.06,0-0.119-0.007-0.177-0.021c-0.242-0.059-0.439-0.233-0.526-0.467l-1.431-3.828
		c-0.728-0.625-1.4-1.321-1.997-2.071c-0.573-0.721-0.573-1.727,0-2.447c2-2.481,4.299-3.982,6.836-4.466l1.906-2.866
		C9.3,7.625,9.534,7.5,9.786,7.5c0.148,0,0.292,0.043,0.415,0.126c0.167,0.111,0.28,0.28,0.32,0.476c0.04,0.196,0,0.396-0.111,0.563
		l-1.236,1.859c0.922,0.006,1.886,0.14,2.869,0.399l1.698-1.704C13.883,9.078,14.072,9,14.272,9c0.2,0,0.388,0.078,0.53,0.219
		c0.142,0.141,0.22,0.33,0.22,0.53s-0.077,0.389-0.219,0.531l-1.166,1.17c1.345,0.526,2.74,1.278,4.156,2.241l4.366-1.679
		c0.161-0.054,0.311-0.079,0.462-0.079c0.591,0,1.112,0.373,1.299,0.929c0.116,0.344,0.088,0.727-0.076,1.051
		c-0.01,0.021-0.023,0.043-0.037,0.065l-1.524,2.411l1.529,2.409c0.014,0.022,0.027,0.046,0.039,0.07
		c0.162,0.324,0.188,0.695,0.072,1.042s-0.359,0.628-0.686,0.791c-0.19,0.095-0.401,0.145-0.611,0.145c0,0,0,0,0,0
		c-0.146,0-0.291-0.023-0.43-0.07l-4.399-1.688c-3.087,2.101-6.014,3.166-8.703,3.166c-0.709,0-1.41-0.075-2.087-0.222l-1.952,1.774
		C4.917,23.931,4.737,24,4.55,24z M9.108,12.032c-2.809,0-5.339,1.37-7.518,4.072c-0.133,0.167-0.132,0.405,0.003,0.575
		c0.575,0.723,1.227,1.39,1.938,1.983c0.1,0.083,0.176,0.192,0.222,0.313l1.112,2.975l1.427-1.297
		c0.138-0.125,0.317-0.195,0.504-0.195c0.065,0,0.129,0.008,0.191,0.025c0.675,0.178,1.383,0.269,2.104,0.269c0,0,0,0,0.001,0
		c2.472,0,5.222-1.05,8.174-3.121c0.127-0.089,0.276-0.136,0.431-0.136c0.092,0,0.182,0.017,0.268,0.049l4.332,1.663l-1.533-2.416
		c-0.155-0.244-0.155-0.559,0-0.803l1.531-2.422l-4.331,1.666c-0.088,0.033-0.177,0.049-0.269,0.049
		c-0.155,0-0.304-0.047-0.431-0.135C14.317,13.08,11.573,12.032,9.108,12.032z"/>
	<path d="M6.251,16.188c-0.279,0-0.544-0.103-0.751-0.291c-0.016-0.012-0.031-0.025-0.044-0.037
		c-0.437-0.437-0.438-1.147-0.005-1.585c0.002-0.002,0.004-0.004,0.006-0.006c0.213-0.211,0.494-0.326,0.793-0.326
		c0.282,0,0.55,0.103,0.757,0.291c0.013,0.01,0.025,0.02,0.035,0.03c0.217,0.217,0.334,0.5,0.334,0.8
		c0,0.298-0.115,0.578-0.324,0.79c-0.002,0.002-0.004,0.005-0.007,0.007c-0.212,0.212-0.494,0.329-0.795,0.329H6.251z"/>
	<path d="M23.246,7.5c-0.2,0-0.389-0.078-0.53-0.22l-2.47-2.47l-2.47,2.47c-0.142,0.142-0.33,0.22-0.53,0.22s-0.389-0.078-0.53-0.22
		c-0.142-0.141-0.22-0.33-0.22-0.53s0.078-0.389,0.22-0.53l2.47-2.47l-2.47-2.47c-0.142-0.141-0.22-0.33-0.22-0.53
		s0.078-0.389,0.22-0.53S17.046,0,17.246,0s0.389,0.078,0.53,0.22l2.47,2.47l2.47-2.47C22.858,0.078,23.046,0,23.246,0
		s0.389,0.078,0.53,0.22c0.142,0.141,0.22,0.33,0.22,0.53s-0.078,0.389-0.22,0.53l-2.47,2.47l2.47,2.47
		c0.142,0.141,0.22,0.33,0.22,0.53s-0.078,0.389-0.22,0.53S23.447,7.5,23.246,7.5z"/>
</g>
</svg>
