<?xml version="1.0" encoding="utf-8"?>
<!-- Generator: Adobe Illustrator 22.1.0, SVG Export Plug-In . SVG Version: 6.00 Build 0)  -->
<svg version="1.1" id="Regular" xmlns="http://www.w3.org/2000/svg" xmlns:xlink="http://www.w3.org/1999/xlink" x="0px" y="0px"
	 viewBox="0 0 24 24" style="enable-background:new 0 0 24 24;" xml:space="preserve">
<title>fishing-hook-fish</title>
<g>
	<path d="M16.072,24c-0.827,0-1.5-0.672-1.5-1.499c0-0.395,0.152-0.767,0.427-1.049c0.699-0.717,1.734-1.815,2.783-3.07
		c-2.344-2.973-3.532-5.372-3.532-7.132c0-2.953,1.169-5.079,4.036-7.339c0.132-0.104,0.297-0.161,0.464-0.161
		s0.332,0.057,0.464,0.161c2.867,2.26,4.036,4.386,4.036,7.339c0,1.761-1.188,4.16-3.531,7.132c1.049,1.255,2.083,2.353,2.783,3.07
		c0.577,0.592,0.566,1.543-0.026,2.121C22.195,23.848,21.823,24,21.428,24H16.072z M18.751,19.566
		c-0.809,0.955-1.709,1.94-2.679,2.934h5.356C20.461,21.508,19.561,20.522,18.751,19.566z M18.75,5.466
		c-1.811,1.515-3,3.113-3,5.784c0,1.346,1.036,3.391,3,5.93c1.964-2.538,3-4.583,3-5.93C21.75,8.579,20.561,6.981,18.75,5.466z"/>
	<path d="M6.375,18.75c-2.275,0-4.125-1.851-4.125-4.125V12c0-0.414,0.336-0.75,0.75-0.75S3.75,11.586,3.75,12v2.625
		c0,1.448,1.178,2.625,2.625,2.625S9,16.073,9,14.625v-1.974l-1.084,0.723C7.793,13.457,7.649,13.5,7.501,13.5
		c-0.252,0-0.485-0.125-0.624-0.334c-0.229-0.344-0.136-0.81,0.208-1.04l2.25-1.5C9.458,10.543,9.602,10.5,9.751,10.5
		c0.123,0,0.245,0.031,0.354,0.089c0.245,0.131,0.396,0.384,0.396,0.661v3.375C10.5,16.899,8.65,18.75,6.375,18.75z"/>
	<path d="M4.5,10.5c-0.163,0-0.319-0.052-0.45-0.15l-3-2.25C0.72,7.852,0.652,7.381,0.9,7.05c0.141-0.188,0.366-0.3,0.6-0.3
		c0.163,0,0.319,0.052,0.45,0.15l3,2.25c0.16,0.12,0.264,0.296,0.292,0.494C5.271,9.842,5.221,10.04,5.1,10.2
		C4.96,10.388,4.735,10.5,4.5,10.5z"/>
	<path d="M4.5,6.75c-0.163,0-0.319-0.052-0.45-0.15l-3-2.25C0.72,4.102,0.652,3.631,0.9,3.3C1.042,3.112,1.266,3,1.501,3
		C1.664,3,1.82,3.052,1.95,3.15l0.3,0.225V0.75C2.25,0.336,2.587,0,3,0s0.75,0.336,0.75,0.75V4.5l1.2,0.9
		C5.281,5.648,5.349,6.119,5.1,6.45C4.96,6.638,4.735,6.75,4.5,6.75z"/>
</g>
</svg>
