<?xml version="1.0" encoding="utf-8"?>
<!-- Generator: Adobe Illustrator 22.1.0, SVG Export Plug-In . SVG Version: 6.00 Build 0)  -->
<svg version="1.1" id="Regular" xmlns="http://www.w3.org/2000/svg" xmlns:xlink="http://www.w3.org/1999/xlink" x="0px" y="0px"
	 viewBox="0 0 24 24" style="enable-background:new 0 0 24 24;" xml:space="preserve">
<title>fitness-dumbbell-disk-weight</title>
<g>
	<path d="M9.75,21c-2.046,0-3.927-1.533-5.037-4.104c-0.042-0.068-0.073-0.143-0.092-0.221c-0.306-0.756-0.535-1.571-0.681-2.426
		H2.25C1.009,14.25,0,13.241,0,12c0-1.241,1.009-2.25,2.25-2.25h1.69c0.146-0.855,0.374-1.669,0.68-2.424
		c0.019-0.08,0.05-0.155,0.094-0.224C5.824,4.533,7.705,3,9.751,2.999h6c2.095,0,3.999,1.575,5.093,4.214
		c0.077,0.185,0.077,0.389,0,0.574c-0.077,0.185-0.221,0.329-0.406,0.406C20.346,8.231,20.25,8.25,20.151,8.25
		c-0.304,0-0.576-0.182-0.693-0.463c-0.846-2.042-2.219-3.27-3.674-3.288C15.773,4.5,15.762,4.5,15.75,4.5
		c-1.459,0-2.837,1.206-3.688,3.227c-0.011,0.035-0.025,0.07-0.041,0.103C11.516,9.07,11.25,10.512,11.25,12
		c0,1.489,0.267,2.931,0.771,4.171c0.016,0.033,0.03,0.067,0.041,0.102c0.851,2.021,2.229,3.227,3.688,3.227
		c1.468,0,2.854-1.229,3.707-3.287c0.116-0.281,0.388-0.463,0.693-0.463c0.1,0,0.197,0.02,0.289,0.058
		c0.381,0.158,0.563,0.598,0.405,0.979C19.75,19.425,17.846,21,15.75,21H9.75z M6.553,17.25c0.849,1.438,1.992,2.25,3.197,2.25
		h2.676c-0.6-0.599-1.125-1.361-1.551-2.25H6.553z M10.295,15.75c-0.289-0.946-0.463-1.951-0.52-3H5.273
		c0.064,1.055,0.266,2.08,0.588,3H10.295z M2.25,11.25c-0.414,0-0.75,0.336-0.75,0.75c0,0.414,0.336,0.75,0.75,0.75h1.522
		C3.757,12.495,3.75,12.244,3.75,12s0.007-0.495,0.022-0.75H2.25z M9.774,11.25c0.057-1.049,0.231-2.054,0.52-3H5.862
		c-0.323,0.92-0.524,1.945-0.589,3H9.774z M10.876,6.75c0.425-0.89,0.951-1.651,1.552-2.251H9.751c-1.205,0-2.349,0.813-3.198,2.251
		H10.876z"/>
	<path d="M16.5,14.25c-0.414,0-0.75-0.336-0.75-0.75s0.336-0.75,0.75-0.75h5.25c0.414,0,0.75-0.336,0.75-0.75
		c0-0.414-0.336-0.75-0.75-0.75H16.5c-0.414,0-0.75-0.336-0.75-0.75s0.336-0.75,0.75-0.75h5.25C22.991,9.75,24,10.76,24,12
		s-1.009,2.25-2.25,2.25H16.5z"/>
</g>
</svg>
