<?xml version="1.0" encoding="utf-8"?>
<!-- Generator: Adobe Illustrator 22.1.0, SVG Export Plug-In . SVG Version: 6.00 Build 0)  -->
<svg version="1.1" id="Regular" xmlns="http://www.w3.org/2000/svg" xmlns:xlink="http://www.w3.org/1999/xlink" x="0px" y="0px"
	 viewBox="0 0 24 24" style="enable-background:new 0 0 24 24;" xml:space="preserve">
<title>fitness-machine</title>
<g>
	<path d="M19.5,15.75c-0.414,0-0.75-0.336-0.75-0.75v-1.629c-0.885-0.314-1.5-1.161-1.5-2.121v-3c0-0.945,0.599-1.784,1.464-2.108
		C18.411,3.516,16.176,1.5,13.5,1.5h-0.75V6c0,0.414-0.336,0.75-0.75,0.75S11.25,6.414,11.25,6V1.5H10.5
		c-2.675,0-4.911,2.016-5.214,4.642C6.151,6.466,6.75,7.305,6.75,8.25v3c0,0.96-0.615,1.808-1.5,2.121V15
		c0,0.414-0.336,0.75-0.75,0.75S3.75,15.414,3.75,15v-1.628C3.108,13.146,2.604,12.642,2.378,12H0.75C0.336,12,0,11.664,0,11.25
		s0.336-0.75,0.75-0.75h1.5V8.25c0-0.972,0.628-1.826,1.53-2.131C4.1,2.666,7,0,10.5,0h3c3.5,0,6.4,2.666,6.72,6.119
		c0.901,0.305,1.53,1.159,1.53,2.131v2.25h1.5c0.414,0,0.75,0.336,0.75,0.75S23.664,12,23.25,12h-1.628
		c-0.226,0.642-0.73,1.146-1.372,1.372V15C20.25,15.414,19.914,15.75,19.5,15.75z M19.5,7.5c-0.414,0-0.75,0.336-0.75,0.75v3
		c0,0.414,0.336,0.75,0.75,0.75s0.75-0.336,0.75-0.75v-3C20.25,7.836,19.914,7.5,19.5,7.5z M4.5,7.5c-0.414,0-0.75,0.336-0.75,0.75
		v3C3.75,11.664,4.086,12,4.5,12s0.75-0.336,0.75-0.75v-3C5.25,7.836,4.914,7.5,4.5,7.5z"/>
	<path d="M12,24c-0.414,0-0.75-0.336-0.75-0.75V21h-3C7.009,21,6,19.991,6,18.75s1.009-2.25,2.25-2.25V12
		c0-2.068,1.682-3.75,3.75-3.75c2.068,0,3.75,1.682,3.75,3.75v4.5c1.241,0,2.25,1.009,2.25,2.25S16.991,21,15.75,21h-3v2.25
		C12.75,23.664,12.414,24,12,24z M8.25,18c-0.414,0-0.75,0.336-0.75,0.75s0.336,0.75,0.75,0.75h7.5c0.414,0,0.75-0.336,0.75-0.75
		S16.164,18,15.75,18H8.25z M14.25,16.5V12c0-1.241-1.009-2.25-2.25-2.25c-1.241,0-2.25,1.009-2.25,2.25v4.5H14.25z"/>
</g>
</svg>
