<?xml version="1.0" encoding="utf-8"?>
<!-- Generator: Adobe Illustrator 22.1.0, SVG Export Plug-In . SVG Version: 6.00 Build 0)  -->
<svg version="1.1" id="Regular" xmlns="http://www.w3.org/2000/svg" xmlns:xlink="http://www.w3.org/1999/xlink" x="0px" y="0px"
	 viewBox="0 0 24 24" style="enable-background:new 0 0 24 24;" xml:space="preserve">
<title>fitness-shaker</title>
<g>
	<path d="M9,24c-2.068,0-3.75-1.682-3.75-3.75V15c0-0.034,0.002-0.068,0.007-0.102C5.402,13.851,5.839,12.834,6.496,12
		c-0.658-0.834-1.094-1.851-1.239-2.897C5.252,9.068,5.25,9.034,5.25,9V6.75C5.25,4.682,6.932,3,9,3h2.25V0.75
		C11.25,0.336,11.586,0,12,0s0.75,0.336,0.75,0.75V3H15c2.068,0,3.75,1.682,3.75,3.75V9c0,0.035-0.002,0.07-0.008,0.105
		c-0.144,1.045-0.581,2.062-1.239,2.895c0.658,0.834,1.094,1.851,1.239,2.897C18.748,14.93,18.75,14.965,18.75,15v5.25
		c0,2.068-1.682,3.75-3.75,3.75H9z M6.75,20.25c0,1.241,1.009,2.25,2.25,2.25h6c1.241,0,2.25-1.009,2.25-2.25v-5.196
		c-0.143-0.95-0.596-1.845-1.278-2.521C15.831,12.392,15.75,12.198,15.75,12c0-0.199,0.081-0.393,0.222-0.533
		c0.682-0.676,1.135-1.571,1.278-2.521V7.5H6.75v1.446c0.143,0.95,0.596,1.845,1.278,2.521C8.169,11.607,8.25,11.801,8.25,12
		c0,0.198-0.081,0.393-0.222,0.532c-0.682,0.677-1.136,1.571-1.278,2.521V20.25z M17.118,6C16.805,5.121,15.96,4.5,15,4.5H9
		C8.04,4.5,7.195,5.121,6.882,6H17.118z"/>
	<path d="M10.5,20.25c-0.2,0-0.389-0.078-0.53-0.22c-0.292-0.292-0.292-0.768,0-1.061l2.47-2.47H9.75
		c-0.305,0-0.577-0.182-0.693-0.463c-0.117-0.281-0.053-0.602,0.163-0.817l3.75-3.75c0.142-0.142,0.33-0.22,0.53-0.22
		s0.389,0.078,0.53,0.22c0.142,0.141,0.22,0.33,0.22,0.53s-0.078,0.389-0.22,0.531L11.561,15h2.689c0.304,0,0.576,0.182,0.693,0.463
		s0.053,0.602-0.163,0.817l-3.75,3.75C10.889,20.172,10.7,20.25,10.5,20.25z"/>
</g>
</svg>
