<?xml version="1.0" encoding="utf-8"?>
<!-- Generator: Adobe Illustrator 22.1.0, SVG Export Plug-In . SVG Version: 6.00 Build 0)  -->
<svg version="1.1" id="Regular" xmlns="http://www.w3.org/2000/svg" xmlns:xlink="http://www.w3.org/1999/xlink" x="0px" y="0px"
	 viewBox="0 0 24 24" style="enable-background:new 0 0 24 24;" xml:space="preserve">
<title>fitness-dumbbell-lift</title>
<g>
	<path d="M8.5,22.25c-0.061,0-0.122-0.008-0.181-0.022c-0.402-0.101-0.647-0.509-0.546-0.91l1.244-4.974
		c0.077-0.306-0.049-0.63-0.312-0.805c-1.043-0.696-1.76-1.804-1.965-3.041L6.365,10.25H4.75v2.25c0,1.241-1.009,2.25-2.25,2.25
		s-2.25-1.009-2.25-2.25V4.25C0.25,3.009,1.259,2,2.5,2s2.25,1.009,2.25,2.25v1.5h3.129C8.192,4.865,9.04,4.25,10,4.25h6
		c0.96,0,1.808,0.615,2.121,1.5h1.629v-1.5C19.75,3.009,20.759,2,22,2s2.25,1.009,2.25,2.25v8.25c0,1.241-1.009,2.25-2.25,2.25
		s-2.25-1.009-2.25-2.25v-2.25h-1.5v1.5c-0.026,1.081-0.219,2.135-0.574,3.141c-0.097,0.41-0.094,0.842,0.008,1.251l1.294,5.176
		c0.1,0.401-0.144,0.809-0.545,0.91c-0.061,0.015-0.122,0.022-0.182,0.022c-0.345,0-0.644-0.234-0.727-0.568l-1.294-5.176
		c-0.165-0.658-0.165-1.354,0-2.012c0.005-0.022,0.013-0.046,0.021-0.07c0.31-0.867,0.479-1.772,0.5-2.692V6.5
		c0-0.414-0.336-0.75-0.75-0.75h-0.75V8c0,0.414-0.336,0.75-0.75,0.75S13.75,8.414,13.75,8V5.75h-1.5V8
		c0,0.414-0.336,0.75-0.75,0.75S10.75,8.414,10.75,8V5.75H10c-0.414,0-0.75,0.336-0.75,0.75v3c0,0.414-0.336,0.75-0.75,0.75H7.885
		l0.333,2.002c0.138,0.829,0.618,1.572,1.317,2.038c0.789,0.526,1.166,1.497,0.936,2.417l-1.244,4.975
		C9.144,22.016,8.845,22.25,8.5,22.25z M22,3.5c-0.414,0-0.75,0.336-0.75,0.75v8.25c0,0.414,0.336,0.75,0.75,0.75
		s0.75-0.336,0.75-0.75V4.25C22.75,3.836,22.414,3.5,22,3.5z M2.5,3.5c-0.414,0-0.75,0.336-0.75,0.75v8.25
		c0,0.414,0.336,0.75,0.75,0.75s0.75-0.336,0.75-0.75V4.25C3.25,3.836,2.914,3.5,2.5,3.5z M19.75,8.75v-1.5h-1.5v1.5H19.75z
		 M7.75,8.75v-1.5h-3v1.5H7.75z"/>
</g>
</svg>
