<?xml version="1.0" encoding="utf-8"?>
<!-- Generator: Adobe Illustrator 22.1.0, SVG Export Plug-In . SVG Version: 6.00 Build 0)  -->
<svg version="1.1" id="Regular" xmlns="http://www.w3.org/2000/svg" xmlns:xlink="http://www.w3.org/1999/xlink" x="0px" y="0px"
	 viewBox="0 0 24 24" style="enable-background:new 0 0 24 24;" xml:space="preserve">
<title>flask</title>
<g>
	<path d="M4.191,24c-1.07,0-1.941-0.871-1.941-1.941V7.941c0-0.934,0.681-1.729,1.573-1.904c0.291-1.499,1.441-2.66,2.927-2.961
		v-0.49C6.751,1.161,7.911,0.001,9.337,0h5.327c1.426,0.001,2.586,1.161,2.587,2.587V3c0,0.827-0.673,1.5-1.5,1.5h-3V6h7.059
		c1.07,0,1.941,0.871,1.941,1.941v14.118c0,1.07-0.871,1.941-1.941,1.941H4.191z M4.191,7.5C3.948,7.5,3.75,7.698,3.75,7.941v14.118
		c0,0.243,0.198,0.441,0.441,0.441h15.618c0.243,0,0.441-0.198,0.441-0.441V7.941c0-0.243-0.198-0.441-0.441-0.441H4.625
		C4.583,7.508,4.541,7.511,4.5,7.511c-0.042,0-0.084-0.004-0.128-0.011H4.191z M11.25,6V4.5H7.5C6.54,4.5,5.695,5.121,5.382,6H11.25
		z M15.75,3V2.587c0-0.599-0.488-1.087-1.087-1.087H12.75V3H15.75z M11.25,3V1.5H9.337C8.738,1.5,8.25,1.988,8.25,2.588V3H11.25z"/>
</g>
</svg>
