<?xml version="1.0" encoding="utf-8"?>
<!-- Generator: Adobe Illustrator 22.1.0, SVG Export Plug-In . SVG Version: 6.00 Build 0)  -->
<svg version="1.1" id="Layer_1" xmlns="http://www.w3.org/2000/svg" xmlns:xlink="http://www.w3.org/1999/xlink" x="0px" y="0px"
	 viewBox="0 0 24 24" style="enable-background:new 0 0 24 24;" xml:space="preserve">
<title>flip-right</title>
<g>
	<path d="M5.635,15.75c-0.086,0-0.17-0.014-0.25-0.043c-0.188-0.067-0.34-0.203-0.426-0.384c-0.086-0.181-0.097-0.384-0.03-0.573
		c0.668-1.889,2.032-3.405,3.84-4.268c1.023-0.488,2.109-0.736,3.227-0.736c0.851,0,1.694,0.146,2.506,0.433
		c0.823,0.291,1.594,0.729,2.271,1.288l-0.267-2.235c-0.024-0.199,0.031-0.395,0.155-0.553s0.302-0.257,0.501-0.281
		c0.03-0.004,0.06-0.005,0.089-0.005c0.379,0,0.699,0.284,0.744,0.661l0.527,4.404c0.049,0.405-0.23,0.77-0.634,0.831l-0.084,0.012
		c-0.023,0.004-0.046,0.008-0.069,0.01l-4.293,0.642c-0.036,0.006-0.073,0.008-0.111,0.008c-0.368,0-0.687-0.275-0.741-0.639
		c-0.03-0.198,0.02-0.396,0.139-0.557s0.294-0.266,0.492-0.296l3.029-0.453c-0.635-0.638-1.401-1.125-2.248-1.424
		c-0.651-0.23-1.325-0.347-2.005-0.347c-0.894,0-1.763,0.198-2.581,0.589c-1.447,0.691-2.538,1.903-3.072,3.414
		C6.236,15.549,5.952,15.75,5.635,15.75z"/>
	<path d="M2.25,24C1.009,24,0,22.991,0,21.75V2.25C0,1.009,1.009,0,2.25,0h7.5c0.414,0,0.75,0.336,0.75,0.75S10.164,1.5,9.75,1.5
		h-7.5C1.836,1.5,1.5,1.836,1.5,2.25v19.5c0,0.414,0.336,0.75,0.75,0.75h7.5c0.414,0,0.75,0.336,0.75,0.75S10.164,24,9.75,24H2.25z"
		/>
	<path d="M12.75,6C12.336,6,12,5.664,12,5.25v-4.5C12,0.336,12.336,0,12.75,0s0.75,0.336,0.75,0.75v4.5C13.5,5.664,13.164,6,12.75,6
		z"/>
	<path d="M12.75,24C12.336,24,12,23.664,12,23.25v-6c0-0.414,0.336-0.75,0.75-0.75s0.75,0.336,0.75,0.75v6
		C13.5,23.664,13.164,24,12.75,24z"/>
	<path d="M15.75,1.5C15.336,1.5,15,1.164,15,0.75S15.336,0,15.75,0h1.5C17.664,0,18,0.336,18,0.75S17.664,1.5,17.25,1.5H15.75z"/>
	<path d="M15.75,24C15.336,24,15,23.664,15,23.25s0.336-0.75,0.75-0.75h1.5c0.414,0,0.75,0.336,0.75,0.75S17.664,24,17.25,24H15.75z
		"/>
	<path d="M23.25,7.5c-0.414,0-0.75-0.336-0.75-0.75v-1.5c0-0.414,0.336-0.75,0.75-0.75S24,4.836,24,5.25v1.5
		C24,7.164,23.664,7.5,23.25,7.5z"/>
	<path d="M23.25,13.5c-0.414,0-0.75-0.336-0.75-0.75v-1.5c0-0.414,0.336-0.75,0.75-0.75S24,10.836,24,11.25v1.5
		C24,13.164,23.664,13.5,23.25,13.5z"/>
	<path d="M23.25,19.5c-0.414,0-0.75-0.336-0.75-0.75v-1.5c0-0.414,0.336-0.75,0.75-0.75S24,16.836,24,17.25v1.5
		C24,19.164,23.664,19.5,23.25,19.5z"/>
	<path d="M23.25,3c-0.414,0-0.75-0.336-0.75-0.75S22.164,1.5,21.75,1.5S21,1.164,21,0.75S21.336,0,21.75,0
		C22.991,0,24,1.009,24,2.25C24,2.664,23.664,3,23.25,3z"/>
	<path d="M21.75,24C21.336,24,21,23.664,21,23.25s0.336-0.75,0.75-0.75s0.75-0.336,0.75-0.75S22.836,21,23.25,21S24,21.336,24,21.75
		C24,22.991,22.991,24,21.75,24z"/>
</g>
</svg>
