<?xml version="1.0" encoding="utf-8"?>
<!-- Generator: Adobe Illustrator 22.1.0, SVG Export Plug-In . SVG Version: 6.00 Build 0)  -->
<svg version="1.1" id="Regular" xmlns="http://www.w3.org/2000/svg" xmlns:xlink="http://www.w3.org/1999/xlink" x="0px" y="0px"
	 viewBox="0 0 24 24" style="enable-background:new 0 0 24 24;" xml:space="preserve">
<title>flower-pot</title>
<g>
	<path d="M9.224,24.001c-0.62,0-1.173-0.422-1.346-1.027l-1.101-4.839c-0.004-0.018-0.008-0.037-0.01-0.057
		c-0.054-0.362,0.036-0.725,0.255-1.021c0.219-0.296,0.54-0.489,0.903-0.543c0.068-0.01,0.137-0.015,0.206-0.015
		c0.027,0,0.055,0.001,0.082,0.002l3.036-0.001v-2.572c-0.501,0.27-1.058,0.411-1.627,0.411c-1.013,0-1.969-0.441-2.623-1.21
		c-0.596-0.7-0.883-1.59-0.809-2.506c0.037-0.461,0.166-0.907,0.376-1.312c-0.136-0.06-0.269-0.128-0.397-0.205
		C5.381,8.632,4.825,7.878,4.604,6.985C4.383,6.092,4.523,5.167,4.998,4.379c0.619-1.027,1.751-1.665,2.954-1.665
		c0.224,0,0.446,0.022,0.663,0.065C8.933,1.189,10.341,0,11.999,0c1.658,0,3.066,1.187,3.383,2.773
		c0.221-0.044,0.451-0.067,0.689-0.069c0.923,0.003,1.784,0.364,2.431,1.016c0.646,0.651,1,1.515,0.997,2.433
		c-0.003,1.384-0.833,2.62-2.069,3.157c0.413,0.799,0.496,1.711,0.235,2.573c-0.266,0.88-0.859,1.603-1.669,2.037
		c-0.5,0.268-1.06,0.409-1.621,0.409l0,0c-0.337,0-0.674-0.05-1-0.149c-0.218-0.066-0.427-0.152-0.626-0.258V16.5h3.293
		c0.006-0.001,0.036-0.002,0.067-0.002c0.71,0,1.311,0.556,1.368,1.266c0.009,0.105,0.005,0.213-0.011,0.319
		c-0.002,0.015-0.006,0.034-0.01,0.053l-1.091,4.799c-0.183,0.646-0.735,1.066-1.378,1.066l-5.719,0
		C9.266,24.001,9.245,24.001,9.224,24.001z M9.308,22.501l5.618-0.001l1.022-4.5H8.285L9.308,22.501z M7.951,4.214
		c-0.68,0-1.319,0.36-1.669,0.94C6.014,5.598,5.935,6.121,6.06,6.625c0.125,0.504,0.438,0.929,0.883,1.197
		c0.287,0.173,0.617,0.27,0.952,0.279c0.308,0.008,0.585,0.209,0.687,0.5c0.103,0.291,0.014,0.621-0.221,0.821
		c-0.395,0.336-0.635,0.806-0.677,1.323s0.12,1.019,0.456,1.414c0.336,0.395,0.806,0.635,1.323,0.677
		c0.053,0.004,0.107,0.006,0.16,0.006c0.458,0,0.903-0.164,1.254-0.463c0.189-0.16,0.343-0.353,0.458-0.571
		c0.007-0.013,0.015-0.027,0.025-0.04c0.021-0.036,0.049-0.072,0.078-0.106c0.002-0.003,0.015-0.018,0.017-0.02
		c0.045-0.047,0.091-0.084,0.142-0.116c0.009-0.006,0.03-0.018,0.04-0.023c0.039-0.022,0.082-0.04,0.127-0.055
		c0.008-0.003,0.039-0.012,0.047-0.014c0.057-0.014,0.109-0.022,0.161-0.024c0.008,0,0.016-0.001,0.023-0.001
		c0.06,0,0.119,0.008,0.183,0.024c0.01,0.002,0.037,0.011,0.046,0.014c0.046,0.015,0.09,0.033,0.131,0.056
		c0.006,0.004,0.032,0.018,0.038,0.022c0.052,0.033,0.099,0.07,0.139,0.111c0.01,0.011,0.025,0.028,0.034,0.04
		c0.017,0.017,0.042,0.051,0.065,0.09c0.01,0.015,0.02,0.031,0.028,0.045c0.242,0.452,0.65,0.786,1.146,0.937
		c0.184,0.055,0.374,0.084,0.564,0.084c0.316,0,0.632-0.08,0.914-0.231c0.457-0.244,0.791-0.652,0.941-1.149
		s0.098-1.021-0.147-1.479c-0.114-0.213-0.265-0.401-0.448-0.558c-0.234-0.2-0.322-0.53-0.219-0.82
		c0.103-0.29,0.379-0.491,0.687-0.499c1.062-0.029,1.895-0.883,1.897-1.945C18,5.631,17.801,5.144,17.437,4.777
		s-0.85-0.57-1.367-0.572c-0.365,0-0.714,0.099-1.019,0.286c-0.119,0.072-0.254,0.11-0.392,0.11c-0.151,0-0.297-0.045-0.423-0.13
		c-0.244-0.167-0.368-0.462-0.316-0.752c0.017-0.094,0.026-0.189,0.028-0.282c0-1.064-0.875-1.935-1.95-1.935
		c-1.075,0-1.95,0.875-1.95,1.95c0.002,0.08,0.012,0.176,0.028,0.267c0.052,0.289-0.071,0.584-0.313,0.75
		C9.637,4.555,9.491,4.6,9.338,4.6c-0.136,0-0.27-0.037-0.387-0.108C8.649,4.31,8.303,4.214,7.951,4.214z"/>
	<path d="M11.999,9.75c-1.241,0-2.25-1.009-2.25-2.25s1.009-2.25,2.25-2.25s2.25,1.009,2.25,2.25S13.239,9.75,11.999,9.75z
		 M11.999,6.75c-0.414,0-0.75,0.336-0.75,0.75s0.336,0.75,0.75,0.75c0.413,0,0.75-0.336,0.75-0.75S12.412,6.75,11.999,6.75z"/>
</g>
</svg>
