<?xml version="1.0" encoding="utf-8"?>
<!-- Generator: Adobe Illustrator 22.1.0, SVG Export Plug-In . SVG Version: 6.00 Build 0)  -->
<svg version="1.1" id="Regular" xmlns="http://www.w3.org/2000/svg" xmlns:xlink="http://www.w3.org/1999/xlink" x="0px" y="0px"
	 viewBox="0 0 24 24" style="enable-background:new 0 0 24 24;" xml:space="preserve">
<title>flower-3</title>
<g>
	<path d="M15.959,23.26c-0.514,0-1.027-0.076-1.524-0.227c-0.961-0.291-1.795-0.833-2.439-1.579
		c-0.167,0.191-0.348,0.371-0.541,0.537c-0.947,0.812-2.156,1.26-3.405,1.26c-1.532,0-2.981-0.665-3.976-1.824
		c-1.545-1.8-1.679-4.364-0.394-6.296c-0.406-0.126-0.795-0.302-1.161-0.523c-1.197-0.726-2.039-1.874-2.372-3.233
		C-0.187,10.014,0.03,8.607,0.755,7.41c0.958-1.579,2.636-2.522,4.489-2.522c0.523,0,1.036,0.077,1.53,0.229
		c0.118-1.21,0.645-2.329,1.513-3.199c0.992-0.994,2.31-1.541,3.711-1.541c2.721,0,4.965,2.081,5.225,4.735
		c0.502-0.155,1.029-0.234,1.575-0.235c2.884,0.016,5.216,2.373,5.2,5.254c-0.003,2.316-1.52,4.334-3.68,5.002
		c0.09,0.136,0.174,0.276,0.251,0.42c1.362,2.546,0.399,5.724-2.146,7.085C17.662,23.045,16.81,23.26,15.959,23.26z M11.998,19.388
		c0.277,0,0.531,0.152,0.661,0.396c0.471,0.88,1.256,1.524,2.21,1.813c0.356,0.108,0.722,0.163,1.089,0.163
		c0.606,0,1.214-0.154,1.756-0.444c1.816-0.972,2.503-3.24,1.532-5.056c-0.22-0.411-0.511-0.773-0.865-1.075
		c-0.234-0.2-0.323-0.53-0.219-0.821c0.103-0.29,0.379-0.491,0.688-0.499c2.043-0.052,3.646-1.695,3.648-3.739
		c0.011-2.058-1.651-3.738-3.705-3.75c-0.708,0.005-1.39,0.195-1.969,0.55c-0.119,0.073-0.254,0.111-0.392,0.111
		c-0.151,0-0.296-0.045-0.421-0.13c-0.243-0.165-0.368-0.459-0.317-0.749c0.032-0.184,0.05-0.369,0.055-0.55
		c0-2.053-1.682-3.731-3.75-3.731c-2.068,0-3.75,1.682-3.75,3.75c0.005,0.166,0.024,0.353,0.055,0.53
		C8.353,6.447,8.23,6.741,7.987,6.906C7.862,6.992,7.716,7.037,7.564,7.037C7.427,7.037,7.293,7,7.175,6.929
		C6.591,6.575,5.923,6.388,5.243,6.388c-1.323,0-2.521,0.673-3.205,1.8c-0.518,0.854-0.672,1.859-0.435,2.829
		c0.238,0.97,0.839,1.79,1.693,2.308c0.558,0.338,1.197,0.525,1.848,0.541c0.308,0.008,0.585,0.208,0.688,0.498
		c0.104,0.291,0.016,0.62-0.218,0.821c-1.562,1.341-1.743,3.703-0.402,5.265c0.709,0.827,1.743,1.301,2.837,1.301
		c0.891,0,1.753-0.319,2.428-0.898c0.351-0.301,0.64-0.661,0.859-1.069C11.468,19.54,11.721,19.388,11.998,19.388z"/>
	<path d="M11.998,17.252c-2.481,0-4.5-2.019-4.5-4.5s2.019-4.5,4.5-4.5c2.481,0,4.5,2.019,4.5,4.5S14.479,17.252,11.998,17.252z
		 M11.998,9.752c-1.654,0-3,1.346-3,3c0,1.654,1.346,3,3,3c1.654,0,3-1.346,3-3C14.998,11.098,13.652,9.752,11.998,9.752z"/>
</g>
</svg>
