<?xml version="1.0" encoding="utf-8"?>
<!-- Generator: Adobe Illustrator 22.1.0, SVG Export Plug-In . SVG Version: 6.00 Build 0)  -->
<svg version="1.1" id="Regular" xmlns="http://www.w3.org/2000/svg" xmlns:xlink="http://www.w3.org/1999/xlink" x="0px" y="0px"
	 viewBox="0 0 24 24" style="enable-background:new 0 0 24 24;" xml:space="preserve">
<title>flower-rose</title>
<g>
	<path d="M12.25,23.499c-0.414,0-0.75-0.336-0.75-0.75v-4.534C7.266,17.834,4,14.292,4,9.999v-5.25c0-0.213,0.091-0.417,0.25-0.559
		c0.138-0.124,0.315-0.191,0.5-0.191c0.028,0,0.056,0.002,0.085,0.005C4.936,4.015,5.788,4.113,7,4.332V1.749
		C7,1.55,7.081,1.356,7.223,1.216c0.142-0.14,0.325-0.217,0.517-0.217c0.005,0,0.026,0,0.031,0.001
		c1.586,0.022,3.116,0.491,4.435,1.356c1.75-1.292,4.414-1.354,4.531-1.357c0.209,0.002,0.402,0.08,0.539,0.215
		C17.418,1.355,17.5,1.55,17.5,1.749v2.123c0.177-0.008,0.354-0.012,0.531-0.012c0.631,0,1.251,0.05,1.843,0.149
		C20.237,4.07,20.5,4.381,20.5,4.749v5.25c0,1.569-0.444,3.095-1.284,4.416c-0.02,0.037-0.042,0.072-0.067,0.104
		c-1.383,2.104-3.661,3.466-6.149,3.693v4.537C13,23.163,12.664,23.499,12.25,23.499z M5.5,9.999c0,3.722,3.028,6.75,6.75,6.75
		c2.186,0,4.23-1.059,5.5-2.841c-0.551-2.22-1.859-4.189-3.698-5.558c-0.433-0.324-0.985-0.637-1.643-0.93
		c-0.021-0.008-0.04-0.017-0.06-0.027C10.011,6.368,6.89,5.817,5.5,5.608V9.999z M13.913,6.49c0.387,0.212,0.735,0.432,1.037,0.659
		c1.686,1.255,2.969,2.916,3.75,4.844c0.199-0.641,0.3-1.309,0.3-1.994v-4.59c-0.308-0.029-0.626-0.043-0.949-0.043
		C17.186,5.366,15.176,5.483,13.913,6.49z M8.5,4.633c1.507,0.335,2.833,0.729,3.95,1.177c0.192-0.208,0.41-0.402,0.652-0.582
		C11.989,3.736,10.344,2.78,8.5,2.552V4.633z M13.438,3.341c0.36,0.351,0.69,0.739,0.987,1.158C14.909,4.303,15.436,4.15,16,4.043
		V2.565C15.321,2.653,14.271,2.859,13.438,3.341z"/>
</g>
</svg>
