<?xml version="1.0" encoding="utf-8"?>
<!-- Generator: Adobe Illustrator 22.1.0, SVG Export Plug-In . SVG Version: 6.00 Build 0)  -->
<svg version="1.1" id="Regular" xmlns="http://www.w3.org/2000/svg" xmlns:xlink="http://www.w3.org/1999/xlink" x="0px" y="0px"
	 viewBox="0 0 24 24" style="enable-background:new 0 0 24 24;" xml:space="preserve">
<title>flower-2</title>
<g>
	<path d="M14.184,24.097c-0.682,0-1.262-0.104-1.729-0.308c-0.114,0.069-0.247,0.107-0.386,0.107c-0.139,0-0.273-0.039-0.388-0.11
		c-0.41,0.179-0.907,0.281-1.481,0.301c-0.077,0.003-0.155,0.004-0.235,0.004c-1.068,0-2.338-0.26-3.575-0.732
		c-1.336-0.51-2.518-1.218-3.326-1.995c-0.969-0.93-1.329-1.898-1.013-2.725c0.315-0.827,1.228-1.309,2.571-1.357
		c0.078-0.003,0.158-0.004,0.238-0.004c1.066,0,2.335,0.26,3.572,0.732c1.112,0.424,2.116,0.986,2.888,1.61v-2.955
		c-0.341,0.206-0.715,0.357-1.108,0.446c-0.276,0.062-0.557,0.094-0.837,0.094c-0.703,0-1.392-0.2-1.992-0.578
		c-0.848-0.534-1.437-1.366-1.659-2.343c-0.142-0.627-0.124-1.266,0.052-1.872c-1.595-0.455-2.712-1.906-2.712-3.605
		c0-1.677,1.146-3.157,2.73-3.608c-0.45-1.646,0.277-3.423,1.803-4.267c0.554-0.306,1.179-0.468,1.81-0.468
		c1,0,1.969,0.408,2.667,1.107c0.456-0.445,1.018-0.765,1.647-0.934c0.321-0.086,0.649-0.13,0.978-0.13
		c0.652,0,1.299,0.174,1.869,0.503c0.868,0.501,1.489,1.309,1.749,2.277c0.17,0.633,0.173,1.285,0.012,1.907
		c1.59,0.447,2.742,1.93,2.742,3.612c-0.002,1.008-0.393,1.949-1.103,2.656c-0.456,0.455-1.009,0.779-1.616,0.951
		c0.487,1.704-0.301,3.564-1.919,4.38c-0.53,0.267-1.096,0.402-1.683,0.402c-0.399,0-0.796-0.064-1.179-0.19
		c-0.264-0.087-0.514-0.201-0.749-0.342v2.955c0.772-0.625,1.777-1.187,2.89-1.611c1.264-0.482,2.497-0.737,3.565-0.737
		c1.479,0,2.479,0.485,2.815,1.367c0.591,1.55-1.234,3.535-4.339,4.72C16.485,23.842,15.252,24.097,14.184,24.097z M12.865,22.307
		c0.187,0.154,0.628,0.288,1.303,0.288c0.886,0,1.968-0.226,3.046-0.637c2.456-0.937,3.644-2.335,3.473-2.784
		c-0.062-0.161-0.484-0.402-1.394-0.402c-0.888,0-1.972,0.227-3.051,0.638c-1.153,0.44-2.155,1.035-2.822,1.676
		c-0.26,0.25-0.458,0.504-0.568,0.727C12.88,21.979,12.884,22.144,12.865,22.307z M4.857,18.779c-0.062,0-0.123,0.001-0.184,0.003
		c-0.798,0.029-1.169,0.251-1.223,0.394c-0.054,0.142,0.074,0.554,0.651,1.108c0.667,0.641,1.669,1.236,2.822,1.676
		c1.07,0.408,2.151,0.633,3.044,0.633c0.06,0,0.119-0.001,0.177-0.003c0.574-0.021,0.956-0.147,1.127-0.285
		c-0.018-0.162-0.014-0.326,0.013-0.49c-0.109-0.223-0.307-0.477-0.568-0.727c-0.667-0.641-1.669-1.235-2.822-1.675
		C6.825,19.003,5.746,18.779,4.857,18.779z M7.47,12.266c-0.318,0.522-0.416,1.105-0.284,1.687c0.133,0.586,0.487,1.085,0.995,1.405
		c0.361,0.227,0.774,0.347,1.194,0.347c0.168,0,0.337-0.019,0.503-0.057c0.586-0.133,1.085-0.487,1.406-0.995
		c0.039-0.062,0.076-0.128,0.109-0.194c0.01-0.021,0.037-0.061,0.051-0.08c0.001-0.003,0.012-0.019,0.024-0.035
		c0.021-0.028,0.042-0.054,0.066-0.078c0.034-0.035,0.077-0.071,0.123-0.101c0.011-0.007,0.028-0.017,0.039-0.023
		c0.036-0.022,0.092-0.047,0.152-0.066c0.077-0.023,0.148-0.035,0.22-0.035c0.303,0,0.577,0.186,0.692,0.465
		c0.274,0.512,0.726,0.894,1.277,1.076c0.23,0.076,0.469,0.115,0.708,0.115c0.351,0,0.691-0.081,1.009-0.242
		c1.108-0.558,1.555-1.914,0.998-3.021c-0.029-0.057-0.059-0.112-0.092-0.166c-0.017-0.022-0.031-0.043-0.045-0.065
		c-0.146-0.232-0.155-0.524-0.023-0.763c0.131-0.238,0.392-0.386,0.68-0.386c0.026,0,0.051,0.001,0.076,0.004
		c0.589-0.008,1.141-0.24,1.559-0.656c0.426-0.424,0.661-0.989,0.662-1.59c0-0.001,0-0.003,0-0.004c0-1.225-0.99-2.229-2.211-2.25
		c-0.025,0.003-0.048,0.005-0.071,0.006c-0.005,0-0.033,0.001-0.038,0.001c-0.267,0-0.507-0.14-0.643-0.374
		c-0.141-0.243-0.135-0.541,0.015-0.777c0.012-0.019,0.025-0.037,0.038-0.055c0.287-0.517,0.361-1.114,0.209-1.682
		c-0.156-0.581-0.529-1.066-1.05-1.367c-0.343-0.198-0.731-0.303-1.121-0.303c-0.197,0-0.395,0.026-0.588,0.078
		c-0.57,0.153-1.049,0.515-1.351,1.021c-0.014,0.032-0.029,0.061-0.045,0.089c-0.136,0.234-0.378,0.374-0.647,0.374
		c-0.289-0.006-0.538-0.158-0.665-0.399c-0.013-0.024-0.024-0.048-0.035-0.073c-0.404-0.7-1.153-1.134-1.961-1.134
		c-0.377,0-0.752,0.097-1.083,0.28C7.796,2.537,7.415,3.016,7.249,3.593C7.083,4.171,7.152,4.779,7.443,5.305
		c0.009,0.017,0.019,0.034,0.029,0.051c0.015,0.02,0.028,0.038,0.04,0.057c0.147,0.23,0.157,0.523,0.025,0.764
		c-0.131,0.239-0.39,0.388-0.675,0.388c-0.029,0-0.059-0.002-0.088-0.005c-1.221,0.021-2.211,1.026-2.211,2.25
		c0,1.23,0.992,2.233,2.218,2.25c0.027-0.003,0.059-0.006,0.098-0.006c0.274,0,0.526,0.149,0.658,0.39
		c0.132,0.24,0.122,0.533-0.026,0.764C7.498,12.228,7.484,12.248,7.47,12.266z"/>
	<path d="M12.068,11.806c-1.654,0-3-1.346-3-3s1.346-3,3-3s3,1.346,3,3S13.722,11.806,12.068,11.806z M12.068,7.306
		c-0.827,0-1.5,0.673-1.5,1.5s0.673,1.5,1.5,1.5c0.827,0,1.5-0.673,1.5-1.5S12.895,7.306,12.068,7.306z"/>
</g>
</svg>
