<?xml version="1.0" encoding="utf-8"?>
<!-- Generator: Adobe Illustrator 22.1.0, SVG Export Plug-In . SVG Version: 6.00 Build 0)  -->
<svg version="1.1" id="Regular" xmlns="http://www.w3.org/2000/svg" xmlns:xlink="http://www.w3.org/1999/xlink" x="0px" y="0px"
	 viewBox="0 0 24 24" style="enable-background:new 0 0 24 24;" xml:space="preserve">
<title>flying-insect-bee-4</title>
<g>
	<path d="M12.026,24c-0.414,0-0.75-0.336-0.75-0.75v-2.308c-2.537-0.366-4.48-2.561-4.5-5.151l-0.355,0.355
		c-0.689,0.704-1.616,1.098-2.607,1.108l-0.039,0c-0.976,0-1.898-0.377-2.596-1.061l-0.05-0.05
		c-0.703-0.688-1.096-1.614-1.106-2.605c-0.01-0.991,0.366-1.927,1.06-2.635l7.466-7.467L6.264,1.298
		C5.962,1.015,5.946,0.54,6.229,0.238C6.37,0.087,6.569,0,6.776,0c0.191,0,0.373,0.072,0.512,0.202l2.33,2.18
		c0.658-0.564,1.489-0.877,2.37-0.886l0.04,0c0.889,0,1.734,0.313,2.404,0.886l2.331-2.18C16.903,0.072,17.085,0,17.276,0
		c0.207,0,0.406,0.086,0.548,0.237c0.283,0.303,0.267,0.778-0.035,1.061l-2.286,2.138l7.419,7.419
		c0.707,0.707,1.096,1.646,1.096,2.645c0,0.999-0.389,1.938-1.096,2.645s-1.646,1.096-2.645,1.096s-1.938-0.389-2.645-1.096
		l-0.355-0.355c-0.02,2.59-1.963,4.785-4.5,5.151v2.308C12.776,23.664,12.44,24,12.026,24z M8.354,16.5c0.352,1.712,1.892,3,3.672,3
		s3.32-1.288,3.672-3H8.354z M2.151,11.956c-0.41,0.419-0.635,0.976-0.629,1.567c0.006,0.59,0.242,1.143,0.664,1.557l0.046,0.046
		c0.412,0.403,0.971,0.627,1.571,0.628c0.586-0.006,1.139-0.242,1.552-0.664l1.421-1.421V7.331L2.151,11.956z M18.691,15.085
		c0.423,0.423,0.986,0.656,1.585,0.656s1.161-0.233,1.585-0.656s0.656-0.986,0.656-1.585s-0.233-1.161-0.656-1.585l-4.585-4.585
		v6.339L18.691,15.085z M15.776,15v-1.5h-7.5V15H15.776z M15.776,12V7.861c-1.104,0.737-2.411,1.137-3.754,1.137
		c-1.336,0-2.641-0.401-3.746-1.14V12H15.776z M8.276,5.922c0.096,0.099,0.188,0.187,0.278,0.267
		c0.956,0.843,2.186,1.308,3.463,1.308c1.414,0,2.776-0.574,3.759-1.579V5.831l-2.205-2.205C13.162,3.225,12.603,3,12.001,2.996
		c-0.589,0.007-1.141,0.242-1.554,0.664L8.276,5.831V5.922z"/>
</g>
</svg>
