<?xml version="1.0" encoding="utf-8"?>
<!-- Generator: Adobe Illustrator 22.1.0, SVG Export Plug-In . SVG Version: 6.00 Build 0)  -->
<svg version="1.1" id="Regular" xmlns="http://www.w3.org/2000/svg" xmlns:xlink="http://www.w3.org/1999/xlink" x="0px" y="0px"
	 viewBox="0 0 24 24" style="enable-background:new 0 0 24 24;" xml:space="preserve">
<title>flying-insect-bee-3</title>
<g>
	<path d="M19.469,23.465c-1.171-0.013-2.316-0.343-3.317-0.954c-0.004-0.002-0.014-0.009-0.014-0.009
		c-1.587-0.974-2.683-2.578-3.008-4.401c-0.262-1.287-0.184-2.604,0.217-3.776c-0.164,0.02-0.329,0.03-0.495,0.03
		c-1.909,0-3.535-1.319-3.983-3.115c-0.946,0.782-2.069,1.224-3.131,1.224c-0.863,0-1.626-0.305-2.148-0.86
		C2.939,10.912,2.705,9.93,2.932,8.84c0.207-0.993,0.782-1.974,1.62-2.763c0.36-0.339,0.761-0.631,1.181-0.864
		C5.173,4.916,4.535,4.756,3.895,4.756c-0.371,0-0.738,0.053-1.091,0.157L0.959,5.388C0.897,5.404,0.834,5.412,0.772,5.412
		c-0.342,0-0.641-0.231-0.727-0.563c-0.103-0.4,0.139-0.81,0.539-0.913l1.82-0.469c0.471-0.14,0.976-0.212,1.487-0.212
		c1.135,0,2.262,0.364,3.172,1.024c0.035,0.026,0.068,0.054,0.098,0.085l0.263,0.271c0.189-0.026,0.375-0.04,0.558-0.04
		c0.875,0,1.616,0.297,2.144,0.857C10.45,5.796,10.671,6.22,10.781,6.7c0.587-0.343,1.256-0.538,1.939-0.56l8.959-5.791
		c0.244-0.156,0.524-0.239,0.81-0.239c0.106,0,0.214,0.011,0.319,0.034c0.391,0.085,0.726,0.317,0.942,0.653
		c0.158,0.245,0.24,0.53,0.238,0.822c-0.02,2.677-0.91,4.75-2.575,5.994c-0.759,0.583-1.607,1.046-2.516,1.373
		c-0.083,0.029-0.168,0.044-0.254,0.044c-0.315,0-0.599-0.2-0.706-0.497c-0.068-0.188-0.058-0.392,0.027-0.573
		c0.085-0.181,0.236-0.318,0.425-0.386c0.763-0.274,1.476-0.664,2.118-1.157c1.618-1.21,1.97-3.284,1.981-4.811l-7.726,4.999
		c1.341,0.699,2.2,2.083,2.2,3.64c0,0.208-0.016,0.416-0.048,0.622c0.028-0.006,0.055-0.012,0.083-0.018
		c0.324-0.061,0.647-0.091,0.967-0.092c1.358,0,2.637,0.514,3.617,1.449c0.07,0.045,0.131,0.101,0.182,0.167
		c0.017,0.022,0.032,0.044,0.046,0.066c0.9,0.971,1.397,2.228,1.399,3.543c0,4.85,0.669,6.396,0.676,6.411
		c0.108,0.226,0.092,0.504-0.045,0.72c-0.138,0.219-0.375,0.351-0.633,0.351H19.469z M18.035,21.734
		c0.467,0.148,0.949,0.226,1.442,0.231H22.2c-0.147-0.656-0.304-1.636-0.4-3.054L18.035,21.734z M14.848,18.702
		c0.336,0.902,0.931,1.694,1.703,2.27l5.168-3.876c-0.008-0.361-0.012-0.734-0.012-1.11c-0.001-0.752-0.233-1.488-0.659-2.106
		L14.848,18.702z M17.966,12.258c-0.228,0-0.458,0.022-0.682,0.064c-0.937,0.19-1.738,0.846-2.251,1.845
		c-0.435,0.847-0.618,1.859-0.532,2.904l5.455-4.241c-0.591-0.371-1.28-0.572-1.983-0.572l-0.007-0.375L17.966,12.258z
		 M12.853,7.637c-1.439,0-2.609,1.17-2.609,2.609c0,1.439,1.17,2.609,2.609,2.609c1.439,0,2.609-1.17,2.609-2.609
		C15.462,8.807,14.291,7.637,12.853,7.637z M7.382,6.154C6.759,6.302,6.119,6.662,5.58,7.169c-0.616,0.58-1.035,1.282-1.179,1.976
		c-0.124,0.597-0.024,1.105,0.282,1.431c0.311,0.331,0.749,0.4,1.062,0.4c0.774,0,1.669-0.407,2.393-1.089
		c1.179-1.11,1.59-2.67,0.897-3.407c-0.312-0.331-0.749-0.4-1.061-0.4c-0.181,0-0.375,0.024-0.577,0.071
		C7.392,6.152,7.387,6.153,7.382,6.154z"/>
</g>
</svg>
