<?xml version="1.0" encoding="utf-8"?>
<!-- Generator: Adobe Illustrator 22.1.0, SVG Export Plug-In . SVG Version: 6.00 Build 0)  -->
<svg version="1.1" id="Regular" xmlns="http://www.w3.org/2000/svg" xmlns:xlink="http://www.w3.org/1999/xlink" x="0px" y="0px"
	 viewBox="0 0 24 24" style="enable-background:new 0 0 24 24;" xml:space="preserve">
<title>flying-insect-moth</title>
<g>
	<path d="M7.613,24c-0.2,0-0.389-0.078-0.53-0.22c-0.292-0.292-0.292-0.768,0-1.061l1.5-1.5C8.724,21.078,8.912,21,9.113,21
		s0.389,0.078,0.53,0.22c0.292,0.292,0.292,0.768,0,1.061l-1.5,1.5C8.001,23.922,7.813,24,7.613,24z"/>
	<path d="M4.613,20.25c-0.323,0-0.609-0.206-0.711-0.513c-0.063-0.19-0.049-0.394,0.041-0.573s0.244-0.313,0.434-0.376l2.25-0.75
		C6.702,18.013,6.782,18,6.863,18c0.323,0,0.609,0.206,0.711,0.513c0.063,0.19,0.049,0.394-0.041,0.573S7.29,19.398,7.1,19.461
		l-2.25,0.75C4.774,20.237,4.694,20.25,4.613,20.25z"/>
	<path d="M16.613,24c-0.2,0-0.389-0.078-0.53-0.22l-1.5-1.5c-0.292-0.292-0.292-0.768,0-1.061c0.142-0.142,0.33-0.22,0.53-0.22
		s0.389,0.078,0.53,0.22l1.5,1.5c0.292,0.292,0.292,0.768,0,1.061C17.002,23.922,16.813,24,16.613,24z"/>
	<path d="M19.613,20.25c-0.081,0-0.161-0.013-0.238-0.039l-2.25-0.75c-0.392-0.131-0.605-0.556-0.474-0.948
		c0.102-0.307,0.387-0.513,0.711-0.513c0.081,0,0.162,0.013,0.239,0.04l2.249,0.75c0.392,0.131,0.605,0.556,0.474,0.948
		C20.222,20.044,19.936,20.25,19.613,20.25z"/>
	<path d="M12.113,20.25c-0.986,0-1.907-0.378-2.593-1.063c-0.757-0.757-1.157-1.815-1.157-3.062c0.005-0.18,0.015-0.349,0.024-0.517
		l0.006-0.12c-0.017-0.105-0.012-0.213,0.016-0.317c0.064-1.069,0.181-2.148,0.349-3.217c-1.299,0.64-3.215,1.419-4.845,1.419
		c-0.467,0-0.893-0.064-1.267-0.19c-0.819-0.277-1.401-0.833-1.73-1.654C0.58,10.686,0.645,9.882,1.104,9.203
		C2.312,7.42,6.236,6.92,8.894,6.791C8.548,6.214,8.363,5.554,8.363,4.875c0-0.98,0.379-1.905,1.053-2.601
		C8.649,1.783,7.77,1.517,6.849,1.5c-0.2-0.004-0.387-0.085-0.526-0.229s-0.214-0.334-0.21-0.534C6.121,0.323,6.447,0,6.855,0
		C6.86,0,6.879,0,6.884,0c1.392,0.026,2.756,0.517,3.86,1.387c0.439-0.174,0.898-0.262,1.369-0.262c0.471,0,0.932,0.089,1.371,0.263
		C14.587,0.518,15.95,0.027,17.348,0c0,0,0,0,0,0c0.42,0,0.756,0.33,0.764,0.735c0.008,0.414-0.322,0.756-0.736,0.764
		c-0.921,0.018-1.799,0.285-2.566,0.776c0.674,0.696,1.052,1.62,1.052,2.599c0,0.679-0.185,1.339-0.531,1.916
		c2.657,0.129,6.582,0.629,7.79,2.412c0.46,0.679,0.525,1.483,0.188,2.325c-0.328,0.821-0.91,1.377-1.73,1.654
		c-0.373,0.126-0.799,0.19-1.267,0.19c-1.631,0-3.546-0.779-4.845-1.419c0.168,1.07,0.285,2.149,0.349,3.218
		c0.027,0.103,0.033,0.209,0.016,0.313l0.007,0.124c0.009,0.164,0.018,0.328,0.023,0.492c0,1.075-0.333,2.076-0.939,2.831
		C14.232,19.794,13.26,20.25,12.113,20.25z M9.876,15.853c-0.005,0.098-0.01,0.197-0.014,0.295c0,1.784,1.167,2.601,2.251,2.601
		c1.12,0,2.25-0.812,2.25-2.625c-0.003-0.084-0.008-0.177-0.013-0.271c-0.714-0.294-1.486-0.458-2.247-0.478
		C11.354,15.395,10.589,15.56,9.876,15.853z M12.113,13.875c0.723,0.018,1.437,0.135,2.129,0.348
		c-0.104-1.14-0.269-2.27-0.489-3.367c-0.047-0.101-0.071-0.211-0.07-0.322c-0.145-0.683-0.316-1.375-0.51-2.061
		c-0.343,0.101-0.698,0.152-1.06,0.152c-0.362,0-0.717-0.051-1.06-0.152c-0.194,0.689-0.366,1.381-0.51,2.065
		c0.001,0.109-0.022,0.217-0.068,0.316c-0.22,1.096-0.384,2.226-0.489,3.369c0.688-0.213,1.396-0.33,2.109-0.347
		c0.003,0,0.006,0,0.009,0C12.107,13.875,12.11,13.875,12.113,13.875z M9.554,8.265c-3.738,0.11-6.542,0.796-7.207,1.779
		c-0.177,0.262-0.189,0.548-0.037,0.927c0.162,0.405,0.422,0.656,0.817,0.79c0.228,0.077,0.499,0.116,0.805,0.116
		c1.798,0,4.264-1.29,5.178-1.806C9.238,9.473,9.388,8.868,9.554,8.265z M15.117,10.072c0.914,0.516,3.379,1.805,5.177,1.805
		c0.306,0,0.577-0.039,0.805-0.116c0.395-0.134,0.655-0.385,0.817-0.79c0.152-0.379,0.14-0.665-0.037-0.927
		c-0.666-0.983-3.469-1.669-7.207-1.779C14.838,8.867,14.987,9.472,15.117,10.072z M12.113,2.625c-1.241,0-2.25,1.009-2.25,2.25
		s1.009,2.25,2.25,2.25c1.241,0,2.25-1.009,2.25-2.25S13.354,2.625,12.113,2.625z"/>
</g>
</svg>
