<?xml version="1.0" encoding="utf-8"?>
<!-- Generator: Adobe Illustrator 22.1.0, SVG Export Plug-In . SVG Version: 6.00 Build 0)  -->
<svg version="1.1" id="Regular" xmlns="http://www.w3.org/2000/svg" xmlns:xlink="http://www.w3.org/1999/xlink" x="0px" y="0px"
	 viewBox="0 0 24 24" style="enable-background:new 0 0 24 24;" xml:space="preserve">
<title>flying-insect-moth-1</title>
<g>
	<path d="M12.022,23.501c-0.596,0-2.546-0.269-3.535-3.593c-0.85,0.463-1.702,0.708-2.463,0.708c-0.351,0-0.684-0.052-0.989-0.153
		c-0.435-0.145-1.007-0.518-1.269-1.47c-0.728-2.653,1.516-8.636,4.636-12.416C8.317,6.188,8.272,5.819,8.272,5.5
		c0-0.283,0.033-0.566,0.099-0.845C8.23,4.613,8.094,4.557,7.964,4.487c-0.53-0.283-0.918-0.756-1.093-1.331
		C6.697,2.581,6.757,1.972,7.04,1.442c0.283-0.53,0.756-0.918,1.331-1.092c0.212-0.064,0.432-0.097,0.652-0.097
		c0.983,0,1.868,0.656,2.154,1.596c0.279-0.066,0.561-0.099,0.844-0.099s0.566,0.033,0.845,0.099c0.215-0.712,0.769-1.278,1.499-1.5
		c0.212-0.064,0.432-0.097,0.652-0.097c0.983,0,1.869,0.657,2.154,1.597c0.174,0.575,0.115,1.184-0.169,1.714
		s-0.756,0.918-1.331,1.092c0.066,0.279,0.099,0.561,0.099,0.844c0,0.319-0.045,0.687-0.13,1.075
		c3.12,3.781,5.364,9.765,4.636,12.417c-0.261,0.952-0.834,1.325-1.268,1.47c-0.305,0.102-0.638,0.153-0.989,0.153c0,0,0,0,0,0
		c-0.761,0-1.613-0.245-2.464-0.708C14.565,23.232,12.617,23.501,12.022,23.501z M9.803,19.02c0.537,2.194,1.521,2.98,2.219,2.98
		c0.255,0,1.534-0.147,2.221-2.979c-0.905-0.732-1.673-1.625-2.221-2.58C11.474,17.396,10.708,18.289,9.803,19.02z M8.991,8.256
		c-2.708,3.645-4.275,8.527-3.778,10.339c0.104,0.381,0.249,0.429,0.297,0.445c0.155,0.052,0.33,0.078,0.521,0.078
		c0.51,0,1.118-0.186,1.758-0.537c1.632-0.896,3.058-2.609,3.484-4.181v-3.778C10.394,10.315,9.578,9.466,8.991,8.256z
		 M12.772,14.399c0.426,1.572,1.852,3.286,3.485,4.182c0.639,0.351,1.247,0.536,1.758,0.536c0.19,0,0.365-0.026,0.521-0.078
		c0.047-0.016,0.192-0.064,0.296-0.444c0.497-1.811-1.071-6.693-3.778-10.339c-0.587,1.211-1.404,2.06-2.281,2.366V14.399z
		 M12.022,3.25c-1.241,0-2.25,1.009-2.25,2.25c0,0.303,0.057,0.667,0.164,1.052C9.938,6.558,9.944,6.579,9.949,6.6
		c0.36,1.265,1.258,2.651,2.073,2.651c0.816,0,1.714-1.386,2.078-2.669c0.001-0.005,0.007-0.027,0.015-0.048
		c0.101-0.365,0.157-0.729,0.157-1.033C14.272,4.26,13.263,3.25,12.022,3.25z M15.027,3.252c0.072,0,0.143-0.01,0.211-0.031
		c0.192-0.058,0.349-0.188,0.444-0.364c0.094-0.177,0.114-0.379,0.056-0.571c-0.095-0.313-0.39-0.533-0.718-0.533
		c-0.073,0-0.146,0.011-0.217,0.033c-0.32,0.097-0.529,0.393-0.527,0.719c0.283,0.213,0.533,0.464,0.746,0.747
		C15.023,3.252,15.025,3.252,15.027,3.252z M9.024,1.753c-0.073,0-0.146,0.011-0.217,0.032C8.615,1.844,8.458,1.973,8.363,2.15
		C8.269,2.326,8.249,2.529,8.307,2.721C8.365,2.913,8.494,3.07,8.671,3.164c0.105,0.056,0.22,0.085,0.342,0.085
		c0.004,0,0.008,0,0.012,0C9.239,2.965,9.49,2.715,9.774,2.502c0-0.074-0.01-0.146-0.031-0.216C9.647,1.972,9.352,1.753,9.024,1.753
		z"/>
	<path d="M18.772,7.75c-0.404,0-0.74-0.329-0.75-0.733c-0.009-0.414,0.32-0.758,0.733-0.767c1.441-0.033,2.691-1.033,3.039-2.432
		c0.083-0.335,0.383-0.569,0.728-0.569c0.061,0,0.123,0.008,0.182,0.023c0.4,0.1,0.646,0.507,0.546,0.909
		c-0.511,2.053-2.346,3.521-4.461,3.568C18.786,7.75,18.775,7.75,18.772,7.75z"/>
	<path d="M20.272,11.5c-0.397,0-0.726-0.311-0.749-0.708c-0.023-0.413,0.294-0.768,0.708-0.791c0.694-0.039,1.313-0.452,1.616-1.078
		C21.971,8.667,22.236,8.5,22.522,8.5c0.114,0,0.223,0.025,0.326,0.075c0.373,0.181,0.529,0.63,0.349,1.002
		c-0.54,1.117-1.645,1.853-2.884,1.922C20.307,11.5,20.279,11.5,20.272,11.5z"/>
	<path d="M5.248,7.75C3.14,7.702,1.306,6.235,0.794,4.182C0.694,3.78,0.94,3.373,1.341,3.273C1.401,3.258,1.462,3.25,1.522,3.25
		c0.345,0,0.644,0.234,0.728,0.569c0.348,1.399,1.598,2.399,3.039,2.432c0.2,0.005,0.387,0.087,0.525,0.232s0.212,0.335,0.208,0.535
		C6.013,7.422,5.676,7.75,5.272,7.75C5.267,7.75,5.253,7.75,5.248,7.75z"/>
	<path d="M3.732,11.499c-1.24-0.069-2.345-0.806-2.885-1.922c-0.18-0.372-0.023-0.822,0.349-1.002C1.299,8.525,1.408,8.5,1.522,8.5
		c0.286,0,0.551,0.166,0.676,0.424C2.5,9.55,3.12,9.963,3.814,10.002c0.2,0.011,0.384,0.099,0.517,0.249
		c0.134,0.149,0.201,0.342,0.19,0.542C4.499,11.189,4.17,11.5,3.772,11.5C3.766,11.5,3.738,11.5,3.732,11.499z"/>
</g>
</svg>
