<?xml version="1.0" encoding="utf-8"?>
<!-- Generator: Adobe Illustrator 22.1.0, SVG Export Plug-In . SVG Version: 6.00 Build 0)  -->
<svg version="1.1" id="Regular" xmlns="http://www.w3.org/2000/svg" xmlns:xlink="http://www.w3.org/1999/xlink" x="0px" y="0px"
	 viewBox="0 0 24 24" style="enable-background:new 0 0 24 24;" xml:space="preserve">
<title>footwear-boots</title>
<g>
	<path d="M2.25,24C1.009,24,0,22.991,0,21.75V2.25C0,1.009,1.009,0,2.25,0h7.5C10.991,0,12,1.009,12,2.25v7.5
		c0,2.068,1.682,3.75,3.75,3.75c0.666,0,1.332,0.081,1.98,0.241c0.03,0.006,0.06,0.013,0.089,0.022
		c3.018,0.776,5.385,3.261,6.013,6.328c0.001,0.005,0.005,0.026,0.006,0.031C23.945,20.651,24,21.202,24,21.75
		c0,1.241-1.009,2.25-2.25,2.25H2.25z M1.5,21.75c0,0.414,0.336,0.75,0.75,0.75h19.5c0.414,0,0.75-0.336,0.75-0.75
		c0-0.249-0.014-0.5-0.042-0.75H1.5V21.75z M22.113,19.5c-0.718-2.022-2.377-3.607-4.445-4.221
		c-0.724,0.395-1.167,1.138-1.167,1.971v2.25H22.113z M15,19.5v-2.25c0-0.822,0.266-1.608,0.749-2.25
		c-1.131,0-2.233-0.371-3.139-1.049l-1.633,1.633c-0.142,0.142-0.33,0.22-0.53,0.22s-0.389-0.078-0.53-0.22
		c-0.292-0.292-0.292-0.768,0-1.061l1.632-1.633c-0.529-0.704-0.867-1.52-0.991-2.39H8.25c-0.414,0-0.75-0.336-0.75-0.75
		S7.836,9,8.25,9h2.25V6H8.25C7.836,6,7.5,5.664,7.5,5.25S7.836,4.5,8.25,4.5h2.25V2.25c0-0.414-0.336-0.75-0.75-0.75h-7.5
		C1.836,1.5,1.5,1.836,1.5,2.25V19.5H15z"/>
</g>
</svg>
