<?xml version="1.0" encoding="utf-8"?>
<!-- Generator: Adobe Illustrator 22.1.0, SVG Export Plug-In . SVG Version: 6.00 Build 0)  -->
<svg version="1.1" id="Regular" xmlns="http://www.w3.org/2000/svg" xmlns:xlink="http://www.w3.org/1999/xlink" x="0px" y="0px"
	 viewBox="0 0 24 24" style="enable-background:new 0 0 24 24;" xml:space="preserve">
<title>footwear-winter-boots</title>
<g>
	<path d="M3,23.708c-1.241,0-2.25-1.009-2.25-2.25V2.54c0-0.242,0.039-0.481,0.115-0.711c0.19-0.57,0.59-1.032,1.128-1.301
		C2.31,0.369,2.648,0.289,2.998,0.289c0.241,0,0.481,0.039,0.713,0.116l7.026,2.341c0.012,0.004,0.025,0.009,0.038,0.015
		c0.056,0.022,0.112,0.052,0.162,0.088c0.009,0.006,0.026,0.02,0.034,0.027c0.042,0.033,0.086,0.078,0.124,0.128
		c0.008,0.01,0.009,0.01,0.016,0.021c0.038,0.054,0.069,0.114,0.093,0.18c0.002,0.007,0.01,0.031,0.012,0.038
		c0.023,0.078,0.033,0.146,0.033,0.214v5.974c0.001,0.009,0.001,0.018,0.001,0.026c0,0.026,0.002,0.051,0.003,0.076l0.005,0.12
		c0.002,0.054,0.004,0.109,0.009,0.163c0.003,0.032,0.008,0.064,0.013,0.095l0.013,0.093c0.008,0.057,0.016,0.115,0.026,0.171
		c0.007,0.034,0.015,0.068,0.023,0.101l0.012,0.051c0.016,0.067,0.032,0.133,0.051,0.197c0.011,0.037,0.023,0.073,0.036,0.108
		l0.011,0.033c0.023,0.066,0.046,0.132,0.072,0.197c0.016,0.041,0.035,0.081,0.053,0.121c0.033,0.074,0.064,0.139,0.098,0.203
		c0.021,0.04,0.043,0.079,0.065,0.118c0.036,0.064,0.075,0.127,0.115,0.189c0.024,0.037,0.049,0.074,0.075,0.111
		c0.041,0.059,0.084,0.116,0.129,0.172c0.03,0.038,0.061,0.076,0.092,0.113c0.717,0.837,1.755,1.317,2.848,1.317
		c0.675,0,1.35,0.083,2.005,0.248c0.007,0.002,0.014,0.003,0.019,0.005c3.05,0.771,5.43,3.262,6.06,6.347
		c0,0.003,0.001,0.006,0.002,0.009c0.109,0.538,0.165,1.091,0.165,1.643c0,1.241-1.009,2.25-2.25,2.25H3z M2.25,21.458
		c0,0.414,0.336,0.75,0.75,0.75h18c0.414,0,0.75-0.336,0.75-0.75c0-0.249-0.014-0.5-0.042-0.75H2.25V21.458z M21.363,19.208
		c-0.718-2.022-2.377-3.607-4.445-4.221c-0.724,0.395-1.167,1.138-1.167,1.971v2.25H21.363z M14.25,19.208v-2.25
		c0-0.821,0.266-1.608,0.749-2.25c-1.381,0-2.676-0.532-3.664-1.5H7.5c-1.241-0.001-2.249-1.01-2.249-2.25
		c0-1.241,1.009-2.25,2.25-2.25H9.75v-1.5H7.5c-1.241,0-2.25-1.009-2.25-2.25c0-0.895,0.525-1.669,1.283-2.031L3.237,1.828
		C3.159,1.802,3.079,1.789,2.999,1.789c-0.116,0-0.229,0.027-0.334,0.08c-0.179,0.09-0.313,0.244-0.376,0.434
		C2.263,2.38,2.25,2.459,2.25,2.54v16.668H14.25z M7.501,10.208c-0.414,0-0.75,0.336-0.75,0.75c0,0.413,0.336,0.75,0.75,0.75h2.757
		c-0.028-0.058-0.054-0.117-0.079-0.176l-0.022-0.049c-0.059-0.14-0.112-0.284-0.158-0.431l-0.026-0.087
		c-0.045-0.15-0.08-0.287-0.108-0.421l-0.009-0.038c-0.019-0.092-0.035-0.191-0.05-0.298H7.501z M7.5,4.208
		c-0.414,0-0.75,0.336-0.75,0.75s0.336,0.75,0.75,0.75h2.25v-1.5H7.5z"/>
</g>
</svg>
