<?xml version="1.0" encoding="utf-8"?>
<!-- Generator: Adobe Illustrator 22.1.0, SVG Export Plug-In . SVG Version: 6.00 Build 0)  -->
<svg version="1.1" id="Regular" xmlns="http://www.w3.org/2000/svg" xmlns:xlink="http://www.w3.org/1999/xlink" x="0px" y="0px"
	 viewBox="0 0 24 24" style="enable-background:new 0 0 24 24;" xml:space="preserve">
<title>footwear-heels-1</title>
<g>
	<path d="M13.657,20.963c-1.76,0-3.392-0.872-4.368-2.333l-3.452-5.172l-0.491,5.655c-0.082,0.918-0.772,1.666-1.679,1.819
		c-0.113,0.019-0.228,0.029-0.342,0.029c-0.42,0-0.824-0.129-1.169-0.375c-0.441-0.313-0.734-0.779-0.824-1.313l-1.322-7.937
		c-0.003-0.017-0.006-0.052-0.006-0.069c-0.002-0.007-0.004-0.03-0.004-0.054V5.537C-0.002,4.736,0.31,3.983,0.876,3.416
		c0.566-0.567,1.319-0.879,2.12-0.88c0.386,0,0.762,0.073,1.118,0.216L7.07,3.933c1.096,0.439,2.023,1.245,2.609,2.27l3.925,6.87
		c0.666,1.165,1.913,1.889,3.255,1.889h3.24c0.754,0,1.454,0.375,1.872,1.002l1.777,2.666c0.459,0.688,0.272,1.622-0.416,2.08
		c-0.246,0.165-0.534,0.252-0.832,0.252H13.657z M5.722,10.986c0.327,0.221,0.601,0.495,0.815,0.816l4,5.994
		c0.697,1.043,1.863,1.667,3.117,1.667H22.5l-1.777-2.666c-0.139-0.209-0.373-0.334-0.624-0.334h-3.238
		c-1.88,0-3.626-1.013-4.559-2.645l-3.925-6.87C7.958,6.216,7.296,5.64,6.513,5.326L3.557,4.144C3.378,4.073,3.19,4.036,2.997,4.036
		L2.997,3.661l0,0.375C2.17,4.037,1.498,4.71,1.499,5.536v4.928l2.543,0.005c0.531,0,1.057,0.145,1.522,0.419
		C5.621,10.915,5.674,10.947,5.722,10.986z M2.811,19.025c0.023,0.137,0.099,0.257,0.214,0.338c0.09,0.064,0.194,0.097,0.304,0.097
		c0.03,0,0.06-0.002,0.09-0.007c0.234-0.04,0.413-0.234,0.435-0.472l0.603-6.952c-0.135-0.04-0.274-0.06-0.414-0.06l-2.408-0.004
		L2.811,19.025z"/>
</g>
</svg>
