<?xml version="1.0" encoding="utf-8"?>
<!-- Generator: Adobe Illustrator 22.1.0, SVG Export Plug-In . SVG Version: 6.00 Build 0)  -->
<svg version="1.1" id="Regular" xmlns="http://www.w3.org/2000/svg" xmlns:xlink="http://www.w3.org/1999/xlink" x="0px" y="0px"
	 viewBox="0 0 24 24" style="enable-background:new 0 0 24 24;" xml:space="preserve">
<title>footwear-slippers</title>
<g>
	<path d="M2.75,19.875c-1.516,0-2.75-1.234-2.75-2.75v-2.5c0-0.414,0.336-0.75,0.75-0.75h3.672c-0.352-1.712-1.892-3-3.672-3
		c-0.414,0-0.75-0.336-0.75-0.75v-5.25c0-0.414,0.336-0.75,0.75-0.75c0.259,0,0.514,0.136,0.648,0.346
		c0.32,0.501,0.754,0.935,1.255,1.255c0.666,0.426,1.431,0.651,2.213,0.651c0.299,0,0.6-0.033,0.896-0.098
		C6.838,6.042,7.757,5.4,8.351,4.471c0.128-0.2,0.346-0.329,0.584-0.345c0.008,0,0.04-0.001,0.048-0.001
		c0.223,0,0.432,0.098,0.575,0.269l3.767,4.5c0.182,0.218,0.226,0.516,0.114,0.777l-1.802,4.205H16.5v-3.75
		c0-0.414,0.336-0.75,0.75-0.75h3c0.414,0,0.75,0.336,0.75,0.75v3.75h2.25c0.414,0,0.75,0.336,0.75,0.75v2.5
		c0,1.516-1.234,2.75-2.75,2.75H2.75z M1.5,17.125c0,0.689,0.561,1.25,1.25,1.25h18.5c0.689,0,1.25-0.561,1.25-1.25v-1.75h-21
		V17.125z M19.5,13.875v-3H18v3H19.5z M10.005,13.875l1.874-4.372L9.005,6.07C7.944,7.222,6.459,7.874,4.866,7.874
		c-1.072,0-2.117-0.306-3.022-0.884C1.727,6.914,1.612,6.834,1.5,6.75v2.678c2.283,0.331,4.115,2.163,4.446,4.446H10.005z"/>
</g>
</svg>
