<?xml version="1.0" encoding="utf-8"?>
<!-- Generator: Adobe Illustrator 22.1.0, SVG Export Plug-In . SVG Version: 6.00 Build 0)  -->
<svg version="1.1" id="Regular" xmlns="http://www.w3.org/2000/svg" xmlns:xlink="http://www.w3.org/1999/xlink" x="0px" y="0px"
	 viewBox="0 0 24 24" style="enable-background:new 0 0 24 24;" xml:space="preserve">
<title>footwear-heels</title>
<g>
	<path d="M14.25,22.5c-1.241,0-2.25-1.009-2.25-2.25V19.5c0-3.308-2.692-6-6-6v6.75c0,1.241-1.009,2.25-2.25,2.25
		S1.5,21.491,1.5,20.25v-8.781C0.532,10.372,0,8.969,0,7.5c0-3.308,2.691-6,6-6c0.232,0,0.455,0.11,0.596,0.295l9.142,11.962
		c0.237,0.309,0.607,0.494,0.99,0.494c0.364,0,0.729-0.438,1.116-0.901c0.306-0.366,0.622-0.745,1.018-0.997
		c0.314-0.202,0.71-0.31,1.146-0.31c0.523,0,1.073,0.149,1.591,0.432C22.321,12.868,24,14.122,24,17.25v3
		c0,1.241-1.009,2.25-2.25,2.25H14.25z M5.998,12c4.137,0,7.502,3.365,7.502,7.5v0.75c0,0.414,0.336,0.75,0.75,0.75h7.5
		c0.414,0,0.75-0.336,0.75-0.75v-3c0-2.324-1.132-3.193-1.619-3.459c-0.29-0.158-0.6-0.245-0.872-0.245
		c-0.17,0-0.285,0.035-0.337,0.068c-0.202,0.129-0.433,0.405-0.676,0.697c-0.536,0.641-1.202,1.438-2.252,1.439
		c-0.86,0-1.678-0.405-2.197-1.083L5.64,3.014C3.304,3.198,1.5,5.133,1.5,7.5c0,1.184,0.457,2.303,1.285,3.149
		C2.924,10.79,3,10.976,3,11.174v9.076C3,20.664,3.336,21,3.75,21s0.75-0.336,0.75-0.75V12.7c0-0.217,0.094-0.424,0.258-0.566
		c0.136-0.119,0.311-0.184,0.492-0.184c0.035,0,0.07,0.002,0.104,0.007C5.56,11.986,5.768,12,5.969,12C5.969,12,5.997,12,5.998,12z"
		/>
</g>
</svg>
