<?xml version="1.0" encoding="utf-8"?>
<!-- Generator: Adobe Illustrator 22.1.0, SVG Export Plug-In . SVG Version: 6.00 Build 0)  -->
<svg version="1.1" id="Regular" xmlns="http://www.w3.org/2000/svg" xmlns:xlink="http://www.w3.org/1999/xlink" x="0px" y="0px"
	 viewBox="0 0 24 24" style="enable-background:new 0 0 24 24;" xml:space="preserve">
<title>fossil-energy-gas-can</title>
<g>
	<path d="M15,19.5c-0.2,0-0.389-0.078-0.53-0.22l-3.22-3.22l-3.22,3.22c-0.142,0.142-0.33,0.22-0.53,0.22s-0.389-0.078-0.53-0.22
		c-0.142-0.142-0.22-0.33-0.22-0.53s0.078-0.389,0.22-0.53L10.19,15l-3.22-3.22c-0.142-0.141-0.22-0.33-0.22-0.53
		s0.078-0.389,0.22-0.53C7.112,10.578,7.3,10.5,7.5,10.5s0.389,0.078,0.53,0.22l3.22,3.22l3.22-3.22
		c0.142-0.142,0.33-0.22,0.53-0.22s0.389,0.078,0.53,0.22c0.142,0.141,0.22,0.33,0.22,0.53s-0.078,0.389-0.22,0.53L12.311,15
		l3.22,3.22c0.292,0.292,0.292,0.768,0,1.061C15.389,19.422,15.2,19.5,15,19.5z"/>
	<path d="M4.5,23.25c-1.241,0-2.25-1.009-2.25-2.25V6c0-0.96,0.615-1.808,1.5-2.121V3C3.75,1.759,4.76,0.75,6,0.75h4.5
		c1.241,0,2.25,1.009,2.25,2.25v0.75h1.5c0.198,0,0.391,0.08,0.53,0.22L15,4.189l0.659-0.659c0.424-0.425,0.989-0.659,1.591-0.659
		c0.601,0,1.166,0.234,1.591,0.658l1.629,1.629c0.425,0.425,0.659,0.99,0.66,1.59c0,0.601-0.234,1.167-0.659,1.591L19.811,9
		l0.22,0.22c0.142,0.142,0.22,0.33,0.22,0.53V21c0,1.241-1.009,2.25-2.25,2.25H4.5z M4.5,5.25C4.087,5.25,3.75,5.586,3.75,6v15
		c0,0.414,0.336,0.75,0.75,0.75H18c0.414,0,0.75-0.336,0.75-0.75V10.061L13.94,5.25H4.5z M18.75,7.939l0.659-0.659
		c0.142-0.142,0.22-0.331,0.22-0.531c0-0.2-0.078-0.388-0.22-0.53l-1.628-1.628c-0.142-0.141-0.33-0.219-0.531-0.219
		s-0.389,0.078-0.531,0.219L16.061,5.25L18.75,7.939z M11.25,3.75V3c0-0.414-0.336-0.75-0.75-0.75H6C5.587,2.25,5.25,2.586,5.25,3
		v0.75H11.25z"/>
</g>
</svg>
