<?xml version="1.0" encoding="utf-8"?>
<!-- Generator: Adobe Illustrator 22.1.0, SVG Export Plug-In . SVG Version: 6.00 Build 0)  -->
<svg version="1.1" id="Regular" xmlns="http://www.w3.org/2000/svg" xmlns:xlink="http://www.w3.org/1999/xlink" x="0px" y="0px"
	 viewBox="0 0 24 24" style="enable-background:new 0 0 24 24;" xml:space="preserve">
<title>fox-body</title>
<g>
	<path d="M17.209,23.47c-0.414,0-0.75-0.336-0.75-0.75v-5.021c-0.97,0.829-2.203,1.291-3.498,1.291
		c-0.093,0-0.187-0.002-0.281-0.007l-5.385,0.001c-0.533,0.666-1.266,1.14-2.132,1.376c-0.441,0.12-0.912,0.181-1.402,0.181
		c-0.003,0-0.006,0-0.008,0l0,2.18c0,0.414-0.336,0.75-0.75,0.75s-0.75-0.336-0.75-0.75v-7.479
		c-0.035-0.552,0.052-1.133,0.252-1.679L2.473,13.53c-1.48-1.564-2.354-3.596-2.468-5.729C-0.168,4.175,2.286,1.02,5.839,0.295
		c0.05-0.01,0.1-0.015,0.15-0.015c0.115,0,0.231,0.027,0.334,0.079c0.658,0.328,1.114,0.86,1.355,1.582
		c0.443,1.326,0.09,3.196-1.019,5.408c-0.556,1.067-0.806,2.247-0.735,3.438c0.116-0.017,0.232-0.029,0.346-0.036
		c0.087-0.005,0.174-0.008,0.262-0.008c0.083,0,0.167,0.002,0.25,0.007l2.199-0.001c1.89,0,3.738-1.284,3.738-2.242V6.265
		c0-4.439,3.705-4.49,3.742-4.49c0.323,0,0.609,0.206,0.711,0.513l0.59,1.771c0.854,0.106,2.419,0.49,3.11,1.875
		c0.528,1.06,2.304,1.085,2.322,1.085c0.343,0,0.643,0.234,0.726,0.568c0.037,0.149,0.339,1.493-0.472,2.775
		c-0.607,0.959-1.65,1.592-3.1,1.882c-1.886,0.377-2.389,2.536-2.389,3.753v6.723C17.959,23.134,17.622,23.47,17.209,23.47z
		 M3.775,19.044c0.771,0,1.827-0.206,2.479-1.185c0.014-0.024,0.029-0.048,0.046-0.07c0.209-0.335,0.362-0.739,0.454-1.199
		c0.07-0.35,0.378-0.603,0.734-0.603c0.05,0,0.101,0.005,0.151,0.015c0.194,0.039,0.364,0.152,0.475,0.319
		c0.111,0.167,0.151,0.367,0.111,0.563c-0.041,0.207-0.092,0.407-0.152,0.599h4.646c0.087,0.004,0.154,0.006,0.221,0.006
		c1.549,0,2.945-0.901,3.572-2.301c0.123-0.966,0.727-3.851,3.541-4.414c1.032-0.207,1.748-0.615,2.127-1.214
		c0.243-0.385,0.313-0.792,0.323-1.099c-0.855-0.127-2.316-0.537-2.974-1.857c-0.525-1.054-2.306-1.085-2.324-1.085
		c-0.321-0.001-0.606-0.207-0.708-0.513L15.95,3.364c-0.685,0.202-1.731,0.847-1.731,2.901v2.243c0,1.923-2.546,3.742-5.238,3.742
		H6.737c-0.088-0.004-0.15-0.006-0.209-0.006c-0.057,0-0.112,0.002-0.166,0.005c-0.225,0.014-0.453,0.057-0.678,0.129
		c-0.07,0.043-0.145,0.073-0.225,0.091c-0.012,0.003-0.024,0.005-0.036,0.007c-0.377,0.163-0.705,0.4-0.976,0.706
		c-0.132,0.149-0.251,0.32-0.354,0.508c-0.01,0.021-0.02,0.041-0.032,0.061c-0.232,0.445-0.338,0.946-0.308,1.445l0.001,3.848
		C3.76,19.044,3.768,19.044,3.775,19.044z M2.01,5.047C1.633,5.881,1.458,6.794,1.503,7.725c0.088,1.653,0.723,3.232,1.799,4.486
		c0.007-0.008,0.014-0.016,0.021-0.024c0.326-0.369,0.707-0.674,1.135-0.909C4.295,9.792,4.542,8.313,5.176,6.965
		C4.135,6.842,3.288,6.474,2.652,5.868C2.399,5.626,2.184,5.352,2.01,5.047z M3.029,3.512c0.056,0.317,0.214,0.85,0.665,1.277
		C4.176,5.244,4.897,5.487,5.839,5.51C6.342,4.213,6.49,3.121,6.255,2.416C6.171,2.165,6.041,1.972,5.858,1.829
		C4.763,2.108,3.791,2.686,3.029,3.512z"/>
	<path d="M18.328,9.26c-0.044,0-0.089-0.004-0.134-0.012c-0.51-0.063-0.917-0.472-0.977-0.982c-0.007-0.042-0.011-0.086-0.011-0.13
		s0.004-0.088,0.011-0.13c0.06-0.513,0.47-0.923,0.982-0.983c0.043-0.008,0.087-0.011,0.131-0.011c0.044,0,0.088,0.004,0.131,0.011
		c0.568,0.067,0.994,0.542,0.994,1.114c0,0.051-0.006,0.102-0.018,0.156c-0.071,0.505-0.467,0.895-0.973,0.957
		c-0.045,0.008-0.09,0.012-0.134,0.012C18.33,9.26,18.328,9.26,18.328,9.26z"/>
</g>
</svg>
