<?xml version="1.0" encoding="utf-8"?>
<!-- Generator: Adobe Illustrator 22.1.0, SVG Export Plug-In . SVG Version: 6.00 Build 0)  -->
<svg version="1.1" id="Regular" xmlns="http://www.w3.org/2000/svg" xmlns:xlink="http://www.w3.org/1999/xlink" x="0px" y="0px"
	 viewBox="0 0 24 24" style="enable-background:new 0 0 24 24;" xml:space="preserve">
<title>fruit-banana</title>
<g>
	<path d="M10.202,24.002c-3.383,0-5.053-0.972-6.669-1.912c-0.611-0.356-1.186-0.691-1.839-0.954
		c-0.756-0.306-1.131-1.173-0.837-1.933c0.141-0.365,0.324-0.837,0.516-1.345c0.223-0.59,0.772-0.971,1.398-0.971
		c0.167,0,0.334,0.028,0.494,0.083c0.783,0.27,1.633,0.407,2.526,0.407c0,0,0,0,0.001,0c2.959,0,6.053-1.496,8.074-3.905
		c2.584-3.079,2.897-6.953,0.859-10.629c-0.194-0.351-0.24-0.756-0.129-1.142c0.111-0.386,0.365-0.705,0.716-0.899
		c0.087-0.048,0.18-0.088,0.275-0.118c0.568-0.187,1.309-0.417,1.959-0.618c0.145-0.045,0.295-0.068,0.447-0.068
		c0.635,0,1.203,0.406,1.412,1.01c0.439,1.263,1.044,2.115,1.629,2.94c1.14,1.607,2.218,3.125,2.218,7.006
		C23.252,18.148,17.398,24.002,10.202,24.002z M2.777,18.387c-0.194,0.514-0.378,0.99-0.521,1.357
		c0.755,0.305,1.403,0.683,2.031,1.049c1.443,0.84,2.936,1.709,5.915,1.709c6.369,0,11.55-5.181,11.55-11.55
		c0-3.403-0.943-4.732-1.941-6.138c-0.646-0.91-1.313-1.85-1.823-3.316c-0.641,0.198-1.373,0.425-1.941,0.612
		c2.345,4.253,1.973,8.744-1.033,12.325c-2.297,2.737-5.837,4.438-9.238,4.438C4.72,18.873,3.711,18.71,2.777,18.387z"/>
</g>
</svg>
