<?xml version="1.0" encoding="utf-8"?>
<!-- Generator: Adobe Illustrator 22.1.0, SVG Export Plug-In . SVG Version: 6.00 Build 0)  -->
<svg version="1.1" id="Regular" xmlns="http://www.w3.org/2000/svg" xmlns:xlink="http://www.w3.org/1999/xlink" x="0px" y="0px"
	 viewBox="0 0 24 24" style="enable-background:new 0 0 24 24;" xml:space="preserve">
<title>fruit-kiwi</title>
<g>
	<path d="M12,24C5.383,24,0,18.617,0,12C0,5.383,5.383,0,12,0c6.617,0,12,5.383,12,12C24,18.617,18.617,24,12,24z M12,1.5
		C6.21,1.5,1.5,6.21,1.5,12c0,5.79,4.71,10.5,10.5,10.5c5.79,0,10.5-4.71,10.5-10.5C22.5,6.21,17.79,1.5,12,1.5z"/>
	<path d="M10.464,11.218c-0.562-0.031-3.408-0.233-4.363-1.188c-0.995-1.094-1-2.72-0.025-3.794c0.53-0.583,1.286-0.918,2.077-0.918
		c0.698,0,1.367,0.258,1.883,0.726c0.006,0.005,0.024,0.023,0.03,0.029c0.954,0.95,1.157,3.794,1.188,4.354
		c0.012,0.212-0.068,0.421-0.218,0.572c-0.142,0.142-0.33,0.22-0.531,0.22C10.497,11.219,10.47,11.218,10.464,11.218z M8.152,6.818
		c-0.368,0-0.719,0.155-0.965,0.427c-0.453,0.499-0.453,1.252,0,1.752C7.424,9.233,8.46,9.5,9.678,9.644
		c-0.145-1.225-0.414-2.245-0.674-2.51C8.783,6.936,8.474,6.818,8.152,6.818z"/>
	<path d="M13.5,11.219c-0.2,0-0.388-0.078-0.53-0.219c-0.151-0.151-0.23-0.359-0.219-0.571c0.03-0.559,0.23-3.392,1.18-4.352
		c0.499-0.538,1.189-0.856,1.934-0.886c0.039-0.002,0.077-0.002,0.116-0.002c0.705,0,1.379,0.264,1.898,0.742
		c0.551,0.508,0.871,1.199,0.901,1.948c0.03,0.749-0.232,1.464-0.74,2.015c-0.049,0.054-0.102,0.106-0.156,0.156
		c-0.936,0.936-3.782,1.138-4.343,1.168C13.534,11.218,13.507,11.219,13.5,11.219z M15.924,6.689
		c-0.346,0.014-0.668,0.163-0.904,0.419c-0.003,0.004-0.018,0.019-0.021,0.022c-0.26,0.26-0.529,1.281-0.673,2.513
		c1.234-0.145,2.258-0.414,2.518-0.674c0.043-0.041,0.069-0.066,0.094-0.093c0.237-0.257,0.359-0.59,0.345-0.938
		c-0.014-0.348-0.163-0.67-0.419-0.906c-0.241-0.223-0.555-0.345-0.882-0.345L15.924,6.689z"/>
	<path d="M8.14,18.666c-0.782,0-1.534-0.329-2.062-0.902c-0.984-1.068-0.983-2.739,0.003-3.805c0.974-0.974,3.821-1.177,4.383-1.208
		c0.007,0,0.032-0.001,0.039-0.001c0.199,0,0.393,0.08,0.532,0.219c0.151,0.151,0.231,0.36,0.219,0.572
		c-0.031,0.56-0.234,3.405-1.192,4.362c-0.003,0.003-0.017,0.016-0.02,0.019C9.521,18.403,8.846,18.666,8.14,18.666z M9.678,14.325
		c-1.234,0.145-2.257,0.414-2.517,0.673c-0.443,0.479-0.439,1.252,0.019,1.749c0.246,0.266,0.595,0.419,0.959,0.419
		c0.326,0,0.639-0.121,0.879-0.34C9.265,16.573,9.533,15.552,9.678,14.325z"/>
	<path d="M15.92,18.724c-0.75,0-1.454-0.291-1.983-0.82c-0.956-0.956-1.156-3.802-1.187-4.363c-0.011-0.213,0.069-0.421,0.219-0.571
		c0.141-0.142,0.332-0.219,0.537-0.219c0.004,0,0.021,0,0.025,0c0.57,0.031,3.417,0.233,4.371,1.187
		c0.529,0.529,0.82,1.233,0.82,1.983c0,0.75-0.291,1.454-0.82,1.983C17.374,18.432,16.67,18.724,15.92,18.724z M14.325,14.325
		c0.144,1.234,0.413,2.257,0.673,2.518c0.246,0.246,0.574,0.382,0.922,0.382c0.348,0,0.676-0.136,0.922-0.382
		s0.382-0.574,0.382-0.922c0-0.348-0.136-0.676-0.382-0.922C16.583,14.739,15.559,14.47,14.325,14.325z"/>
</g>
</svg>
