<?xml version="1.0" encoding="utf-8"?>
<!-- Generator: Adobe Illustrator 22.1.0, SVG Export Plug-In . SVG Version: 6.00 Build 0)  -->
<svg version="1.1" id="Regular" xmlns="http://www.w3.org/2000/svg" xmlns:xlink="http://www.w3.org/1999/xlink" x="0px" y="0px"
	 viewBox="0 0 24 24" style="enable-background:new 0 0 24 24;" xml:space="preserve">
<title>fruit-strawberry-1</title>
<g>
	<path d="M11.999,24.012c-4.037,0-9-6.203-9-11.25c0-2.791,1.281-5.386,3.464-7.089C4.736,5.12,3.237,3.963,2.274,2.414
		c-0.192-0.308-0.239-0.684-0.129-1.03c0.113-0.346,0.367-0.623,0.698-0.763C3.784,0.224,4.78,0.023,5.804,0.023
		c2.429,0,4.755,1.17,6.195,3.086c1.441-1.916,3.766-3.087,6.195-3.087c1.023,0,2.02,0.201,2.961,0.599
		c0.631,0.27,0.925,1.001,0.657,1.63c-0.024,0.055-0.052,0.109-0.083,0.161c-0.966,1.551-2.464,2.709-4.19,3.263
		c2.181,1.703,3.461,4.297,3.461,7.087C20.999,17.808,16.037,24.012,11.999,24.012z M11.999,5.262c-4.135,0-7.5,3.364-7.5,7.5
		c0,4.192,4.276,9.75,7.5,9.75s7.5-5.558,7.5-9.75C19.499,8.626,16.135,5.262,11.999,5.262z M13.314,3.86
		c0.797,0.117,1.572,0.34,2.31,0.667c1.874-0.13,3.587-1.106,4.654-2.64c-0.668-0.243-1.37-0.366-2.088-0.366
		C16.297,1.521,14.48,2.404,13.314,3.86z M3.722,1.887C4.791,3.422,6.505,4.396,8.38,4.525C9.117,4.2,9.889,3.977,10.685,3.86
		C9.518,2.405,7.702,1.522,5.807,1.522C5.091,1.522,4.391,1.645,3.722,1.887z"/>
	<circle cx="7.874" cy="10.137" r="1.125"/>
	<circle cx="16.124" cy="10.137" r="1.125"/>
	<path d="M11.999,11.262c-0.62,0-1.125-0.505-1.125-1.125s0.505-1.125,1.125-1.125c0.62,0,1.125,0.505,1.125,1.125
		S12.62,11.262,11.999,11.262z"/>
	<path d="M9.749,15.762c-0.571,0-1.047-0.426-1.114-0.994c-0.008-0.043-0.011-0.087-0.011-0.131s0.004-0.088,0.011-0.131
		c0.06-0.513,0.47-0.922,0.983-0.982c0.042-0.008,0.086-0.011,0.13-0.011s0.088,0.004,0.13,0.011
		c0.513,0.06,0.923,0.469,0.983,0.982c0.008,0.043,0.011,0.087,0.011,0.131s-0.004,0.088-0.011,0.131
		C10.796,15.336,10.321,15.762,9.749,15.762z"/>
	<path d="M11.999,19.512c-0.62,0-1.125-0.505-1.125-1.125s0.505-1.125,1.125-1.125c0.62,0,1.125,0.505,1.125,1.125
		S12.62,19.512,11.999,19.512z"/>
	<path d="M14.249,15.762c-0.572,0-1.047-0.427-1.114-0.995c-0.007-0.042-0.011-0.086-0.011-0.13s0.004-0.088,0.011-0.131
		c0.06-0.513,0.47-0.923,0.983-0.983c0.042-0.008,0.086-0.011,0.131-0.011s0.088,0.004,0.131,0.011
		c0.513,0.06,0.923,0.47,0.983,0.983c0.008,0.042,0.011,0.086,0.011,0.131s-0.004,0.088-0.011,0.13
		C15.297,15.335,14.821,15.762,14.249,15.762z"/>
</g>
</svg>
