<?xml version="1.0" encoding="utf-8"?>
<!-- Generator: Adobe Illustrator 22.1.0, SVG Export Plug-In . SVG Version: 6.00 Build 0)  -->
<svg version="1.1" id="Layer_1" xmlns="http://www.w3.org/2000/svg" xmlns:xlink="http://www.w3.org/1999/xlink" x="0px" y="0px"
	 viewBox="0 0 24 24" style="enable-background:new 0 0 24 24;" xml:space="preserve">
<title>garbage-bin</title>
<g>
	<path d="M15,23.997c-0.048,0-0.097-0.005-0.146-0.014l-7.068-1.389c-0.548,0.873-1.496,1.404-2.536,1.404c-1.654,0-3-1.346-3-3
		c0-1.067,0.582-2.061,1.5-2.594V2.247c0-1.241,1.009-2.25,2.25-2.25h10.5c2.895,0,5.25,2.355,5.25,5.25
		c0,0.414-0.336,0.75-0.75,0.75h-0.915l-4.358,17.432C15.644,23.764,15.345,23.997,15,23.997z M5.25,19.497
		c-0.827,0-1.5,0.673-1.5,1.5s0.673,1.5,1.5,1.5s1.5-0.673,1.5-1.5S6.077,19.497,5.25,19.497z M14.445,22.374L18.54,5.997H5.25v12
		c1.654,0,3,1.346,3,3c0,0.052-0.002,0.105-0.005,0.158L14.445,22.374z M20.174,4.497c-0.352-1.712-1.892-3-3.674-3H6
		c-0.414,0-0.75,0.336-0.75,0.75v2.25H20.174z"/>
</g>
</svg>
