<?xml version="1.0" encoding="utf-8"?>
<!-- Generator: Adobe Illustrator 22.1.0, SVG Export Plug-In . SVG Version: 6.00 Build 0)  -->
<svg version="1.1" id="Layer_1" xmlns="http://www.w3.org/2000/svg" xmlns:xlink="http://www.w3.org/1999/xlink" x="0px" y="0px"
	 viewBox="0 0 24 24" style="enable-background:new 0 0 24 24;" xml:space="preserve">
<title>garbage-bin-throw-1</title>
<g>
	<path d="M17.25,6.747c-1.861,0-3.375-1.514-3.375-3.375s1.514-3.375,3.375-3.375s3.375,1.514,3.375,3.375S19.111,6.747,17.25,6.747
		z M17.25,1.497c-1.034,0-1.875,0.841-1.875,1.875s0.841,1.875,1.875,1.875s1.875-0.841,1.875-1.875S18.284,1.497,17.25,1.497z"/>
	<path d="M18.75,23.999c-0.555,0-1.091-0.209-1.5-0.575c-0.409,0.365-0.945,0.575-1.5,0.575c-1.241,0-2.25-1.009-2.25-2.25v-7.538
		c-0.624,0.515-1.338,0.915-2.102,1.176c-0.015,0.006-0.03,0.012-0.046,0.017c-0.235,0.079-0.476,0.119-0.719,0.119
		c-0.968,0-1.826-0.616-2.135-1.533c-0.396-1.177,0.24-2.455,1.416-2.851c0.569-0.188,1.046-0.6,1.312-1.132l0.177-0.354
		c0.895-1.79,2.695-2.902,4.696-2.902h2.65C21.645,6.75,24,9.105,24,12v3c0,1.241-1.009,2.25-2.25,2.25
		c-0.259,0-0.512-0.043-0.75-0.128v4.627C21,22.99,19.991,23.999,18.75,23.999z M17.25,15.747c0.414,0,0.75,0.336,0.75,0.75v5.25
		c0,0.416,0.336,0.752,0.75,0.752s0.75-0.336,0.75-0.75v-9.752c0-0.414,0.336-0.75,0.75-0.75S21,11.583,21,11.997
		c0,0,0,3.002,0,3.003c0,0.414,0.336,0.75,0.75,0.75S22.5,15.414,22.5,15v-3c0-2.068-1.682-3.75-3.75-3.75H16.1
		c-1.43,0-2.715,0.794-3.354,2.073l-0.177,0.354c-0.443,0.887-1.238,1.574-2.18,1.885c-0.187,0.063-0.34,0.197-0.429,0.376
		s-0.103,0.383-0.039,0.573c0.103,0.306,0.389,0.512,0.712,0.512c0.07,0,0.139-0.01,0.207-0.029c0.014-0.005,0.027-0.01,0.041-0.015
		c1.124-0.375,2.097-1.133,2.738-2.134c0.139-0.217,0.375-0.346,0.632-0.346c0.072,0,0.143,0.01,0.212,0.031
		C14.778,11.622,15,11.918,15,12.249v9.5c0,0.414,0.336,0.75,0.75,0.75s0.75-0.336,0.75-0.75v-5.252
		C16.5,16.083,16.836,15.747,17.25,15.747z"/>
	<path d="M5.25,13.497c-1.241,0-2.25-1.009-2.25-2.25c0-1.241,1.009-2.25,2.25-2.25s2.25,1.009,2.25,2.25
		C7.5,12.488,6.491,13.497,5.25,13.497z M5.25,10.497c-0.414,0-0.75,0.336-0.75,0.75s0.336,0.75,0.75,0.75S6,11.661,6,11.247
		S5.664,10.497,5.25,10.497z"/>
	<path d="M2.25,23.997c-1.241,0-2.25-1.009-2.25-2.25V8.997c0-0.414,0.336-0.75,0.75-0.75S1.5,8.583,1.5,8.997v6h6.75
		c0.226,0,0.437,0.1,0.58,0.274c0.143,0.175,0.2,0.402,0.155,0.623l-1.259,6.294c-0.209,1.048-1.137,1.809-2.206,1.809H2.25z
		 M1.5,21.747c0,0.414,0.336,0.75,0.75,0.75h3.27c0.356,0,0.666-0.254,0.736-0.603l1.08-5.397H1.5V21.747z"/>
</g>
</svg>
