<?xml version="1.0" encoding="utf-8"?>
<!-- Generator: Adobe Illustrator 22.1.0, SVG Export Plug-In . SVG Version: 6.00 Build 0)  -->
<svg version="1.1" id="Regular" xmlns="http://www.w3.org/2000/svg" xmlns:xlink="http://www.w3.org/1999/xlink" x="0px" y="0px"
	 viewBox="0 0 24 24" style="enable-background:new 0 0 24 24;" xml:space="preserve">
<title>gardening-seed-bag</title>
<g>
	<path d="M12.522,18.005c-0.31,0-0.584-0.187-0.698-0.475l-0.826-2.096l-2.091,0.821c-0.087,0.034-0.179,0.052-0.273,0.052
		c-0.104,0-0.204-0.021-0.3-0.062c-0.182-0.079-0.327-0.23-0.399-0.414l-0.821-2.094l-2.094,0.825
		c-0.089,0.035-0.181,0.052-0.275,0.052c-0.104,0-0.204-0.021-0.299-0.062c-0.184-0.08-0.326-0.227-0.399-0.414L1.859,8.546
		C1.406,7.391,1.978,6.083,3.133,5.63l13.965-5.474c0.263-0.103,0.539-0.155,0.82-0.155c0.933,0,1.756,0.561,2.097,1.429
		l3.832,9.776c0.219,0.56,0.208,1.171-0.033,1.722c-0.24,0.551-0.681,0.975-1.241,1.194l-9.776,3.832
		C12.708,17.988,12.616,18.005,12.522,18.005z M11.422,13.712c0.31,0,0.584,0.187,0.698,0.475l0.826,2.096l9.079-3.559
		c0.187-0.073,0.333-0.214,0.414-0.398c0.08-0.184,0.084-0.387,0.011-0.574l-3.832-9.776c-0.112-0.285-0.393-0.476-0.7-0.476
		c-0.093,0-0.185,0.017-0.272,0.052L3.68,7.027C3.295,7.178,3.105,7.614,3.256,7.999l1.915,4.892l2.094-0.825
		c0.089-0.035,0.181-0.052,0.275-0.052c0.104,0,0.204,0.021,0.299,0.062c0.184,0.08,0.325,0.227,0.399,0.413l0.821,2.095l2.09-0.82
		C11.236,13.73,11.328,13.712,11.422,13.712z"/>
	<path d="M1.978,23.556c-0.569,0-1.043-0.422-1.113-0.985c-0.009-0.047-0.014-0.094-0.014-0.14c0-0.62,0.505-1.125,1.125-1.125
		c0.585,0,1.073,0.454,1.119,1.036c0.004,0.032,0.007,0.06,0.007,0.088c0,0.011-0.001,0.027-0.002,0.041
		c-0.007,0.28-0.123,0.55-0.325,0.753c-0.212,0.213-0.494,0.331-0.794,0.331c0,0,0,0-0.001,0S1.978,23.556,1.978,23.556z"/>
	<path d="M5.728,23.556c-0.62,0-1.124-0.503-1.126-1.121c0-0.001,0-0.003,0-0.004c0-0.572,0.426-1.047,0.995-1.114
		c0.042-0.007,0.086-0.011,0.13-0.011s0.088,0.004,0.13,0.011c0.568,0.066,0.995,0.542,0.995,1.114c0,0.045-0.004,0.091-0.013,0.136
		c-0.03,0.253-0.139,0.48-0.315,0.657c-0.212,0.213-0.494,0.331-0.794,0.332C5.73,23.556,5.728,23.556,5.728,23.556z"/>
	<path d="M9.478,23.556c-0.569,0-1.043-0.422-1.113-0.985c-0.009-0.047-0.014-0.094-0.014-0.14c0-0.62,0.505-1.125,1.125-1.125
		c0.585,0,1.073,0.454,1.119,1.036c0.004,0.032,0.007,0.06,0.007,0.088c0,0.011-0.001,0.027-0.002,0.041
		c-0.007,0.28-0.123,0.55-0.325,0.753c-0.212,0.213-0.494,0.331-0.794,0.331c0,0,0,0-0.001,0S9.478,23.556,9.478,23.556z"/>
	<path d="M7.978,19.806c-0.569,0-1.043-0.422-1.113-0.985c-0.009-0.047-0.014-0.094-0.014-0.14c0-0.62,0.505-1.125,1.125-1.125
		c0.585,0,1.073,0.454,1.119,1.036c0.004,0.032,0.007,0.06,0.007,0.088c0,0.011-0.001,0.027-0.002,0.041
		c-0.007,0.28-0.123,0.55-0.325,0.753c-0.212,0.213-0.494,0.331-0.794,0.331c0,0,0,0-0.001,0S7.978,19.806,7.978,19.806z"/>
	<path d="M4.228,19.806c-0.62,0-1.124-0.503-1.126-1.121c0-0.001,0-0.003,0-0.004c0-0.572,0.426-1.047,0.995-1.114
		c0.042-0.007,0.086-0.011,0.13-0.011s0.088,0.004,0.13,0.011c0.568,0.066,0.995,0.542,0.995,1.114c0,0.045-0.004,0.091-0.013,0.136
		c-0.03,0.253-0.139,0.48-0.315,0.657c-0.212,0.213-0.494,0.331-0.794,0.332C4.23,19.806,4.228,19.806,4.228,19.806z"/>
</g>
</svg>
