<?xml version="1.0" encoding="utf-8"?>
<!-- Generator: Adobe Illustrator 22.1.0, SVG Export Plug-In . SVG Version: 6.00 Build 0)  -->
<svg version="1.1" id="Regular" xmlns="http://www.w3.org/2000/svg" xmlns:xlink="http://www.w3.org/1999/xlink" x="0px" y="0px"
	 viewBox="0 0 24 24" style="enable-background:new 0 0 24 24;" xml:space="preserve">
<title>gardening-digging-fork</title>
<g>
	<polygon points="8.418,5.765 8.418,5.765 8.418,5.765 	"/>
	<path d="M15.577,23.752c-0.289,0-0.555-0.168-0.678-0.429l-0.567-1.197l-0.611,0.611c-0.142,0.142-0.33,0.22-0.53,0.22
		s-0.389-0.078-0.53-0.22s-0.22-0.33-0.22-0.53s0.078-0.389,0.22-0.53l0.99-0.99l-2.889-6.1c-0.405-0.857-0.357-1.846,0.112-2.654
		l-3.251-3.25c-0.283,0.283-0.66,0.439-1.061,0.439c-0.401,0-0.777-0.156-1.06-0.438L0.727,3.91c-0.877-0.878-0.877-2.305,0-3.182
		C1.152,0.303,1.717,0.07,2.318,0.07c0.602,0,1.167,0.234,1.592,0.658L8.683,5.5c0.283,0.283,0.44,0.66,0.44,1.06
		c0,0.401-0.156,0.777-0.439,1.061L8.683,7.622l3.251,3.251c0.433-0.25,0.933-0.385,1.435-0.385c0.425,0,0.834,0.092,1.218,0.273
		l6.099,2.889l0.99-0.989c0.142-0.142,0.33-0.22,0.53-0.22s0.389,0.078,0.53,0.22s0.22,0.33,0.22,0.53s-0.078,0.389-0.22,0.53
		l-0.611,0.611l1.198,0.567c0.374,0.177,0.533,0.625,0.356,0.999c-0.123,0.261-0.389,0.429-0.678,0.429l0,0
		c-0.112,0-0.219-0.024-0.321-0.072l-1.681-0.796l-2.24,2.24l1.061,1.061c0.292,0.292,0.292,0.768,0,1.061
		c-0.142,0.142-0.33,0.22-0.53,0.22s-0.389-0.078-0.53-0.22l-1.061-1.061l-2.24,2.241l0.796,1.681
		c0.177,0.374,0.017,0.822-0.356,0.999C15.797,23.727,15.688,23.752,15.577,23.752z M12.021,13.082
		c-0.063,0.288-0.032,0.594,0.095,0.863l2.66,5.615l1.862-1.862L12.021,13.082z M17.698,16.638l1.861-1.862l-5.615-2.66
		c-0.179-0.085-0.371-0.128-0.571-0.128c-0.099,0-0.197,0.011-0.293,0.032L17.698,16.638z M2.318,1.569
		c-0.201,0-0.389,0.078-0.53,0.219c-0.293,0.292-0.293,0.768,0,1.061l4.773,4.773l1.062-1.061L2.849,1.789
		C2.708,1.647,2.519,1.569,2.318,1.569z"/>
</g>
</svg>
