<?xml version="1.0" encoding="utf-8"?>
<!-- Generator: Adobe Illustrator 22.1.0, SVG Export Plug-In . SVG Version: 6.00 Build 0)  -->
<svg version="1.1" id="Regular" xmlns="http://www.w3.org/2000/svg" xmlns:xlink="http://www.w3.org/1999/xlink" x="0px" y="0px"
	 viewBox="0 0 24 24" style="enable-background:new 0 0 24 24;" xml:space="preserve">
<title>gardening-scissors-1</title>
<g>
	<path d="M18.039,24.013c-0.225,0-0.451-0.029-0.67-0.087c-0.678-0.177-1.246-0.609-1.6-1.214c-0.003-0.006-3.743-6.229-3.743-6.229
		l-3.729,6.205c-0.465,0.796-1.333,1.293-2.265,1.293c-0.464,0-0.921-0.124-1.322-0.359c-1.225-0.716-1.659-2.307-0.967-3.546
		l4.333-7.313L4.707,6.407c-1.027-1.94-0.769-4.271,0.657-5.939c0.117-0.135,0.253-0.241,0.407-0.319
		C5.96,0.054,6.169,0.003,6.378,0.003c0.509,0,0.967,0.281,1.197,0.733l3.999,7.991c0.151-0.026,0.304-0.039,0.456-0.039
		c0.15,0,0.3,0.013,0.448,0.038l3.993-7.986C16.699,0.284,17.16,0,17.672,0c0.208,0,0.409,0.047,0.596,0.14
		c0.162,0.081,0.303,0.191,0.42,0.328c1.425,1.668,1.683,3.999,0.658,5.938l-3.371,6.357l4.324,7.296
		c0.356,0.608,0.453,1.316,0.275,1.995c-0.178,0.678-0.609,1.246-1.215,1.6C18.957,23.889,18.501,24.013,18.039,24.013z
		 M17.056,21.942c0.159,0.272,0.399,0.457,0.694,0.534c0.095,0.025,0.192,0.038,0.288,0.038c0.197,0,0.392-0.053,0.565-0.154
		c0.535-0.313,0.717-1.004,0.404-1.539l-5.998-10.121c-0.073-0.109-0.188-0.222-0.323-0.311c-0.197-0.13-0.424-0.199-0.657-0.199
		c-0.081,0-0.164,0.008-0.245,0.025c-0.314,0.064-0.584,0.247-0.76,0.515l-1.423,2.401c-0.013,0.024-0.027,0.047-0.042,0.07
		l-4.516,7.623c-0.289,0.518-0.101,1.196,0.424,1.503c0.172,0.1,0.367,0.153,0.565,0.153c0.4,0,0.773-0.213,0.974-0.557l4.377-7.283
		c0.135-0.224,0.381-0.364,0.643-0.364c0.262,0,0.508,0.139,0.643,0.364c0,0,4.379,7.288,4.383,7.294
		C17.053,21.936,17.055,21.939,17.056,21.942z M13.828,9.381c0.173,0.155,0.325,0.329,0.452,0.522l0.799,1.348l2.941-5.547
		c0.697-1.318,0.567-2.89-0.319-4.07L13.828,9.381z M6.349,1.637C5.464,2.812,5.334,4.384,6.033,5.705l2.94,5.546l0.78-1.317
		c0.139-0.211,0.295-0.394,0.471-0.553L6.349,1.637z"/>
</g>
</svg>
