<?xml version="1.0" encoding="utf-8"?>
<!-- Generator: Adobe Illustrator 22.1.0, SVG Export Plug-In . SVG Version: 6.00 Build 0)  -->
<svg version="1.1" id="Regular" xmlns="http://www.w3.org/2000/svg" xmlns:xlink="http://www.w3.org/1999/xlink" x="0px" y="0px"
	 viewBox="0 0 24 24" style="enable-background:new 0 0 24 24;" xml:space="preserve">
<title>gardening-sprinkle-bottle-1</title>
<g>
	<path d="M8.748,24c-0.965,0-1.75-0.785-1.75-1.75v-9c0-1.516,1.234-2.75,2.75-2.75h1V8.25h-2.25c-0.414,0-0.75-0.336-0.75-0.75v-3
		c0-0.414,0.336-0.75,0.75-0.75h3.75V1.5h-3c-0.414,0-0.75-0.336-0.75-0.75S8.834,0,9.248,0h7.5c0.414,0,0.75,0.336,0.75,0.75
		s-0.336,0.75-0.75,0.75h-3v2.25h0.802c4.298,0,8.093,2.887,9.236,7.021c0.321,1.201-0.391,2.438-1.587,2.76l-0.023,0.007
		c-0.187,0.05-0.375,0.075-0.562,0.075c-0.963,0-1.812-0.647-2.066-1.574c-0.571-1.983-2.271-3.444-4.301-3.736V10.5h1
		c1.516,0,2.75,1.234,2.75,2.75v9c0,0.965-0.785,1.75-1.75,1.75H8.748z M9.748,12c-0.689,0-1.25,0.561-1.25,1.25v9
		c0,0.138,0.112,0.25,0.25,0.25h8.5c0.138,0,0.25-0.112,0.25-0.25v-9c0-0.689-0.561-1.25-1.25-1.25H9.748z M14.506,6.75
		c2.992,0,5.66,2.008,6.487,4.883c0.078,0.285,0.332,0.48,0.62,0.48c0.055,0,0.111-0.007,0.165-0.022l0.021-0.006
		c0.406-0.11,0.646-0.522,0.54-0.921c-0.963-3.481-4.162-5.915-7.779-5.915H9.248v1.5h2.25c0.414,0,0.75,0.336,0.75,0.75v3h1.5v-3
		C13.748,7.087,14.087,6.751,14.506,6.75C14.505,6.75,14.505,6.75,14.506,6.75z"/>
	<path d="M1.373,3C1.329,3,1.285,2.996,1.242,2.988C0.729,2.928,0.32,2.519,0.26,2.006C0.252,1.963,0.248,1.919,0.248,1.875
		S0.252,1.787,0.26,1.744c0.06-0.513,0.47-0.922,0.982-0.982C1.285,0.754,1.329,0.75,1.373,0.75s0.088,0.004,0.131,0.012
		c0.513,0.06,0.922,0.47,0.982,0.982c0.008,0.043,0.012,0.087,0.012,0.131S2.494,1.963,2.486,2.006
		c-0.06,0.513-0.47,0.922-0.982,0.982C1.461,2.996,1.417,3,1.373,3z"/>
	<path d="M1.373,6.75c-0.044,0-0.088-0.004-0.131-0.012C0.729,6.678,0.32,6.269,0.26,5.756C0.252,5.713,0.248,5.669,0.248,5.625
		S0.252,5.537,0.26,5.494c0.06-0.513,0.47-0.922,0.982-0.982C1.285,4.504,1.329,4.5,1.373,4.5s0.088,0.004,0.131,0.012
		c0.513,0.06,0.922,0.47,0.982,0.982c0.008,0.043,0.012,0.087,0.012,0.131S2.494,5.713,2.486,5.756
		c-0.06,0.513-0.47,0.922-0.982,0.982C1.461,6.746,1.417,6.75,1.373,6.75z"/>
	<path d="M5.123,4.5c-0.044,0-0.088-0.004-0.131-0.012C4.479,4.428,4.07,4.019,4.01,3.506C4.002,3.463,3.998,3.419,3.998,3.375
		S4.002,3.287,4.01,3.244c0.06-0.513,0.47-0.922,0.982-0.982C5.035,2.254,5.079,2.25,5.123,2.25s0.088,0.004,0.131,0.012
		c0.513,0.06,0.922,0.47,0.982,0.982c0.008,0.043,0.012,0.087,0.012,0.131S6.244,3.463,6.236,3.506
		c-0.06,0.513-0.47,0.922-0.982,0.982C5.211,4.496,5.167,4.5,5.123,4.5z"/>
	<path d="M5.123,9C5.079,9,5.035,8.996,4.992,8.988C4.479,8.928,4.07,8.519,4.01,8.006C4.002,7.963,3.998,7.919,3.998,7.875
		S4.002,7.787,4.01,7.744c0.06-0.513,0.47-0.922,0.982-0.982C5.035,6.754,5.079,6.75,5.123,6.75s0.088,0.004,0.131,0.012
		c0.513,0.06,0.922,0.47,0.982,0.982c0.008,0.043,0.012,0.087,0.012,0.131S6.244,7.963,6.236,8.006
		c-0.06,0.513-0.47,0.922-0.982,0.982C5.211,8.996,5.167,9,5.123,9z"/>
	<path d="M1.373,10.5c-0.044,0-0.088-0.004-0.131-0.012c-0.513-0.06-0.922-0.47-0.982-0.982C0.252,9.463,0.248,9.419,0.248,9.375
		S0.252,9.287,0.26,9.244c0.06-0.513,0.47-0.922,0.982-0.982C1.285,8.254,1.329,8.25,1.373,8.25s0.088,0.004,0.131,0.012
		c0.513,0.06,0.922,0.47,0.982,0.982c0.008,0.043,0.012,0.087,0.012,0.131S2.494,9.463,2.486,9.506
		c-0.06,0.513-0.47,0.922-0.982,0.982C1.461,10.496,1.417,10.5,1.373,10.5z"/>
</g>
</svg>
