<?xml version="1.0" encoding="utf-8"?>
<!-- Generator: Adobe Illustrator 22.1.0, SVG Export Plug-In . SVG Version: 6.00 Build 0)  -->
<svg version="1.1" id="Layer_1" xmlns="http://www.w3.org/2000/svg" xmlns:xlink="http://www.w3.org/1999/xlink" x="0px" y="0px"
	 viewBox="0 0 24 24" style="enable-background:new 0 0 24 24;" xml:space="preserve">
<title>gas-can</title>
<g>
	<path d="M3.75,24C1.682,24,0,22.318,0,20.25V9.75c0-1.799,1.268-3.323,3-3.673V4.75C3,3.785,3.785,3,4.75,3h4
		c0.965,0,1.75,0.785,1.75,1.75V6H12V3.75C12,1.682,13.682,0,15.75,0h4.5C22.318,0,24,1.682,24,3.75v16.5
		c0,2.068-1.682,3.75-3.75,3.75H3.75z M3.75,7.5C2.509,7.5,1.5,8.509,1.5,9.75v10.5c0,1.241,1.009,2.25,2.25,2.25h16.5
		c1.241,0,2.25-1.009,2.25-2.25V3.75c0-1.241-1.009-2.25-2.25-2.25h-4.5c-1.241,0-2.25,1.009-2.25,2.25v3
		c0,0.414-0.336,0.75-0.75,0.75H3.75z M9,6V4.75C9,4.612,8.888,4.5,8.75,4.5h-4C4.612,4.5,4.5,4.612,4.5,4.75V6H9z"/>
	<path d="M17.25,7.5C16.009,7.5,15,6.491,15,5.25S16.009,3,17.25,3h1.5C19.991,3,21,4.009,21,5.25S19.991,7.5,18.75,7.5H17.25z
		 M17.25,4.5c-0.414,0-0.75,0.336-0.75,0.75S16.836,6,17.25,6h1.5c0.414,0,0.75-0.336,0.75-0.75S19.164,4.5,18.75,4.5H17.25z"/>
	<path d="M17.25,21c-0.2,0-0.389-0.078-0.53-0.22L12,16.061l-4.72,4.72C7.139,20.922,6.95,21,6.75,21s-0.389-0.078-0.53-0.22
		c-0.292-0.292-0.292-0.768,0-1.061l4.72-4.72l-4.72-4.72C6.078,10.139,6,9.95,6,9.75s0.078-0.389,0.22-0.53
		C6.361,9.078,6.55,9,6.75,9s0.389,0.078,0.53,0.22l4.72,4.72l4.72-4.72C16.861,9.078,17.05,9,17.25,9s0.389,0.078,0.53,0.22
		C17.922,9.361,18,9.55,18,9.75s-0.078,0.389-0.22,0.53L13.061,15l4.72,4.72c0.292,0.292,0.292,0.768,0,1.061
		C17.639,20.922,17.45,21,17.25,21z"/>
</g>
</svg>
