<?xml version="1.0" encoding="utf-8"?>
<!-- Generator: Adobe Illustrator 22.1.0, SVG Export Plug-In . SVG Version: 6.00 Build 0)  -->
<svg version="1.1" id="Regular" xmlns="http://www.w3.org/2000/svg" xmlns:xlink="http://www.w3.org/1999/xlink" x="0px" y="0px"
	 viewBox="0 0 24 24" style="enable-background:new 0 0 24 24;" xml:space="preserve">
<title>giraffe-body</title>
<g>
	<path d="M16.302,24c-0.414,0-0.75-0.336-0.75-0.75V21c0-8.374,2.947-12.969,3.073-13.161C18.764,7.627,18.998,7.5,19.252,7.5h2.25
		c0.652,0,0.797-0.234,0.844-0.31c0.26-0.421,0.107-1.411-0.365-2.354c-0.01-0.021-0.017-0.036-0.023-0.052
		C21.511,3.701,20.465,3,19.295,3l-4.456,0c0.143,0.687,0.503,1.5,1.413,1.5c0.233,0,0.448,0.105,0.591,0.289
		c0.143,0.183,0.193,0.418,0.136,0.644c-0.813,3.248-3.218,5.692-7.149,7.264c-1.66,0.664-3.039,1.594-4.101,2.764
		c-0.034,0.05-0.075,0.095-0.124,0.138C4.262,17.139,3.552,19.007,3.552,21v2.25c0,0.414-0.336,0.75-0.75,0.75
		s-0.75-0.336-0.75-0.75V21c0-2.078,0.651-4.048,1.887-5.726c-0.334-0.119-0.688-0.181-1.041-0.181
		c-0.615,0-1.212,0.183-1.726,0.529c-0.125,0.084-0.269,0.128-0.418,0.128c-0.25,0-0.483-0.124-0.623-0.332
		c-0.231-0.343-0.139-0.81,0.204-1.041c0.765-0.514,1.652-0.786,2.566-0.786c0.716,0,1.423,0.169,2.064,0.491
		c1.162-1.166,2.61-2.1,4.309-2.779c3.181-1.272,5.153-3.062,6.016-5.463c-1.596-0.565-2.038-2.476-2.038-3.591
		c0-0.414,0.336-0.75,0.75-0.75h3.75V0.75c0-0.414,0.336-0.75,0.75-0.75s0.75,0.336,0.75,0.75V1.5l0.035,0
		c1.775,0,3.362,1.055,4.047,2.689c0.282,0.57,1.103,2.469,0.287,3.79C23.334,8.444,22.732,9,21.502,9h-1.819
		c-0.626,1.146-2.631,5.34-2.631,12v2.25C17.052,23.664,16.715,24,16.302,24z"/>
	<path d="M13.302,24c-0.414,0-0.75-0.336-0.75-0.75V22c0-1.654-1.346-3-3-3s-3,1.346-3,3v1.25c0,0.414-0.336,0.75-0.75,0.75
		s-0.75-0.336-0.75-0.75V22c0-2.481,2.019-4.5,4.5-4.5c2.481,0,4.5,2.019,4.5,4.5v1.25C14.052,23.664,13.715,24,13.302,24z"/>
	<path d="M19.627,6c-0.044,0-0.088-0.004-0.131-0.011c-0.513-0.06-0.922-0.47-0.982-0.983c-0.008-0.042-0.011-0.086-0.011-0.13
		s0.004-0.088,0.011-0.13c0.06-0.513,0.47-0.923,0.982-0.983c0.043-0.008,0.087-0.011,0.131-0.011s0.088,0.004,0.131,0.011
		c0.513,0.06,0.922,0.47,0.983,0.983c0.007,0.042,0.011,0.086,0.011,0.13s-0.004,0.088-0.011,0.13
		c-0.061,0.513-0.47,0.923-0.983,0.983C19.715,5.996,19.671,6,19.627,6z"/>
	<path d="M14.053,15.75c-0.286,0-0.543-0.159-0.671-0.415l-0.75-1.5c-0.185-0.37-0.034-0.821,0.335-1.006
		c0.105-0.052,0.22-0.079,0.335-0.079c0.286,0,0.543,0.159,0.671,0.414l0.75,1.5c0.185,0.37,0.034,0.821-0.335,1.006
		C14.284,15.723,14.168,15.75,14.053,15.75z"/>
	<path d="M9.553,16.5c-0.286,0-0.543-0.159-0.671-0.414c-0.185-0.37-0.034-0.821,0.335-1.006l1.5-0.75
		c0.104-0.052,0.22-0.079,0.335-0.079c0.286,0,0.543,0.159,0.671,0.414c0.185,0.37,0.034,0.821-0.335,1.006l-1.5,0.75
		C9.785,16.473,9.669,16.5,9.553,16.5z"/>
</g>
</svg>
