<?xml version="1.0" encoding="utf-8"?>
<!-- Generator: Adobe Illustrator 22.1.0, SVG Export Plug-In . SVG Version: 6.00 Build 0)  -->
<svg version="1.1" id="Regular" xmlns="http://www.w3.org/2000/svg" xmlns:xlink="http://www.w3.org/1999/xlink" x="0px" y="0px"
	 viewBox="0 0 24 24" style="enable-background:new 0 0 24 24;" xml:space="preserve">
<title>glasses-retro</title>
<g>
	<path d="M18.75,22.5c-2.607,0-4.824-1.95-5.192-4.5h-3.117c-0.368,2.55-2.584,4.5-5.192,4.5C2.355,22.5,0,20.145,0,17.25v-12
		C0,3.182,1.682,1.5,3.75,1.5H4.5c0.414,0,0.75,0.336,0.75,0.75S4.914,3,4.5,3H3.75C2.509,3,1.5,4.009,1.5,5.25v8.333
		C2.478,12.577,3.817,12,5.25,12c2.607,0,4.824,1.95,5.192,4.5h3.117c0.368-2.55,2.584-4.5,5.192-4.5
		c1.433,0,2.772,0.577,3.75,1.583V5.25C22.5,4.009,21.491,3,20.25,3H19.5c-0.414,0-0.75-0.336-0.75-0.75S19.086,1.5,19.5,1.5h0.75
		C22.318,1.5,24,3.182,24,5.25v12C24,20.145,21.645,22.5,18.75,22.5z M18.75,13.5c-2.068,0-3.75,1.682-3.75,3.75S16.682,21,18.75,21
		s3.75-1.682,3.75-3.75S20.818,13.5,18.75,13.5z M5.25,13.5c-2.068,0-3.75,1.682-3.75,3.75S3.182,21,5.25,21S9,19.318,9,17.25
		S7.318,13.5,5.25,13.5z"/>
</g>
</svg>
