<?xml version="1.0" encoding="utf-8"?>
<!-- Generator: Adobe Illustrator 22.1.0, SVG Export Plug-In . SVG Version: 6.00 Build 0)  -->
<svg version="1.1" id="Regular" xmlns="http://www.w3.org/2000/svg" xmlns:xlink="http://www.w3.org/1999/xlink" x="0px" y="0px"
	 viewBox="0 0 24 24" style="enable-background:new 0 0 24 24;" xml:space="preserve">
<title>glasses-sun</title>
<g>
	<path d="M18.75,18.577c-2.895,0-5.25-2.355-5.25-5.25v-2.25h-3v2.25c0,2.895-2.355,5.25-5.25,5.25S0,16.222,0,13.327
		s2.355-5.25,5.25-5.25H9c0.827,0,1.5,0.673,1.5,1.5h3c0-0.827,0.673-1.5,1.5-1.5h3.75c2.895,0,5.25,2.355,5.25,5.25
		S21.645,18.577,18.75,18.577z M15,13.327c0,2.068,1.682,3.75,3.75,3.75s3.75-1.682,3.75-3.75c0-2.068-1.682-3.75-3.75-3.75H15
		V13.327z M5.25,9.577c-2.068,0-3.75,1.682-3.75,3.75c0,2.068,1.682,3.75,3.75,3.75S9,15.395,9,13.327v-3.75H5.25z"/>
	<path d="M0.749,8.077c-0.235,0-0.459-0.112-0.6-0.3c-0.12-0.16-0.171-0.358-0.143-0.556s0.132-0.374,0.292-0.494
		c0.749-0.563,1.583-0.991,2.477-1.272C2.849,5.433,2.924,5.421,3,5.421c0.329,0,0.617,0.211,0.716,0.525
		c0.124,0.394-0.096,0.816-0.491,0.94c-0.731,0.23-1.413,0.58-2.025,1.04C1.068,8.025,0.913,8.077,0.749,8.077z"/>
	<path d="M23.251,8.077c-0.164,0-0.319-0.052-0.45-0.15c-0.613-0.46-1.294-0.81-2.026-1.04c-0.191-0.06-0.347-0.191-0.44-0.369
		c-0.093-0.178-0.111-0.381-0.05-0.572C20.383,5.632,20.671,5.421,21,5.421c0.076,0,0.152,0.012,0.225,0.035
		c0.895,0.281,1.728,0.709,2.477,1.272c0.16,0.12,0.264,0.296,0.292,0.494c0.028,0.198-0.023,0.396-0.143,0.556
		C23.71,7.966,23.485,8.077,23.251,8.077z"/>
</g>
</svg>
