<?xml version="1.0" encoding="utf-8"?>
<!-- Generator: Adobe Illustrator 22.1.0, SVG Export Plug-In . SVG Version: 6.00 Build 0)  -->
<svg version="1.1" id="Regular" xmlns="http://www.w3.org/2000/svg" xmlns:xlink="http://www.w3.org/1999/xlink" x="0px" y="0px"
	 viewBox="0 0 24 24" style="enable-background:new 0 0 24 24;" xml:space="preserve">
<title>glasses-ski-2</title>
<g>
	<path d="M15.468,21.75c-0.958-0.003-1.841-0.524-2.307-1.358c-0.027-0.048-0.049-0.1-0.065-0.154L12,16.515l-1.095,3.722
		c-0.016,0.053-0.038,0.105-0.065,0.154c-0.465,0.834-1.349,1.355-2.305,1.358H6.75C3.028,21.75,0,18.722,0,15v-1.5
		c0-0.961,0.363-1.872,1.025-2.571L3.93,4.07C4.443,2.961,5.547,2.251,6.75,2.25c1.655,0,3,1.346,3,3C9.75,5.664,9.414,6,9,6
		S8.25,5.664,8.25,5.25c0-0.827-0.673-1.5-1.5-1.5c-0.62,0-1.188,0.364-1.448,0.927L3.131,9.802C3.335,9.767,3.542,9.75,3.75,9.75
		h16.5c0.208,0,0.415,0.017,0.619,0.052l-2.181-5.147C18.436,4.11,17.87,3.75,17.25,3.75c-0.827,0-1.5,0.673-1.5,1.5
		C15.75,5.664,15.414,6,15,6s-0.75-0.336-0.75-0.75c0-1.654,1.346-3,3-3c1.203,0.001,2.305,0.706,2.81,1.797l2.916,6.881
		C23.637,11.628,24,12.539,24,13.5V15c0,3.722-3.028,6.75-6.75,6.75H15.468z M14.509,19.723c0.21,0.324,0.574,0.525,0.962,0.527
		h1.779c2.895,0,5.25-2.355,5.25-5.25v-1.5c0-1.241-1.009-2.25-2.25-2.25H3.75c-1.241,0-2.25,1.009-2.25,2.25V15
		c0,2.895,2.355,5.25,5.25,5.25h1.782c0.386-0.001,0.751-0.202,0.96-0.527l1.088-3.698c0.005-0.019,0.012-0.038,0.02-0.058
		c0.15-0.396,0.467-0.712,0.866-0.865c0.172-0.065,0.351-0.098,0.534-0.098c0.212,0,0.418,0.044,0.613,0.132
		c0.365,0.164,0.645,0.461,0.788,0.835c0.007,0.019,0.013,0.038,0.019,0.057L14.509,19.723z"/>
</g>
</svg>
