<?xml version="1.0" encoding="utf-8"?>
<!-- Generator: Adobe Illustrator 22.1.0, SVG Export Plug-In . SVG Version: 6.00 Build 0)  -->
<svg version="1.1" id="Regular" xmlns="http://www.w3.org/2000/svg" xmlns:xlink="http://www.w3.org/1999/xlink" x="0px" y="0px"
	 viewBox="0 0 24 24" style="enable-background:new 0 0 24 24;" xml:space="preserve">
<title>glasses-ski</title>
<g>
	<path d="M15.468,18c-0.958-0.003-1.841-0.524-2.307-1.358c-0.027-0.048-0.049-0.1-0.065-0.154L12,12.765l-1.095,3.722
		c-0.016,0.053-0.037,0.104-0.064,0.153C10.374,17.476,9.492,17.996,8.537,18H6.75C3.028,18,0,14.972,0,11.25v-1.5
		C0,7.682,1.682,6,3.75,6h16.5C22.318,6,24,7.682,24,9.75v1.5c0,3.722-3.028,6.75-6.75,6.75H15.468z M14.509,15.973
		c0.21,0.324,0.574,0.525,0.962,0.527h1.779c2.036,0,3.879-1.186,4.742-3H13.78L14.509,15.973z M2.008,13.5
		c0.863,1.814,2.706,3,4.742,3h1.784c0.385-0.001,0.749-0.202,0.958-0.527L10.22,13.5H2.008z M22.446,12
		c0.036-0.248,0.054-0.499,0.054-0.75V10.5h-21v0.75c0,0.251,0.018,0.502,0.054,0.75h9.15c0.17-0.293,0.439-0.524,0.763-0.647
		c0.172-0.065,0.352-0.099,0.534-0.099c0.212,0,0.418,0.044,0.613,0.132c0.29,0.13,0.527,0.344,0.683,0.614H22.446z M22.368,9
		c-0.313-0.879-1.158-1.5-2.118-1.5H3.75C2.79,7.5,1.945,8.121,1.632,9H22.368z"/>
</g>
</svg>
