<?xml version="1.0" encoding="utf-8"?>
<!-- Generator: Adobe Illustrator 22.1.0, SVG Export Plug-In . SVG Version: 6.00 Build 0)  -->
<svg version="1.1" id="Regular" xmlns="http://www.w3.org/2000/svg" xmlns:xlink="http://www.w3.org/1999/xlink" x="0px" y="0px"
	 viewBox="0 0 24 24" style="enable-background:new 0 0 24 24;" xml:space="preserve">
<title>global-warming-high-temperature</title>
<g>
	<path d="M13.293,12.671c-0.345,0-0.644-0.234-0.727-0.568l-0.544-2.176c-0.05-0.198-0.015-0.411,0.094-0.583
		c0.109-0.172,0.287-0.294,0.486-0.334L15.146,8.5c0.349-0.07,0.603-0.379,0.603-0.735V6.048c0-0.251-0.125-0.484-0.334-0.624
		l-1.579-1.068c-0.166-0.112-0.278-0.282-0.316-0.479c-0.038-0.197,0.003-0.397,0.115-0.563c0.139-0.206,0.371-0.33,0.621-0.33
		c0.15,0,0.295,0.045,0.42,0.129l1.575,1.065c0.624,0.416,0.998,1.115,0.998,1.869v1.717c0,1.069-0.76,1.997-1.809,2.206
		l-1.773,0.355l0.353,1.413c0.049,0.194,0.019,0.396-0.084,0.568c-0.103,0.172-0.267,0.293-0.461,0.342
		C13.415,12.663,13.354,12.671,13.293,12.671z"/>
	<path d="M15.748,16.485c-1.782,0-3.54-0.583-4.95-1.64c-0.16-0.12-0.264-0.296-0.293-0.494c-0.028-0.198,0.022-0.396,0.142-0.556
		c0.141-0.188,0.366-0.3,0.601-0.3c0.163,0,0.319,0.052,0.449,0.15c1.168,0.876,2.566,1.339,4.043,1.339c0,0,0,0,0,0
		c1.046,0,2.08-0.241,3.008-0.7l-0.48-2.34c-0.222-1.115,0.423-2.224,1.5-2.58l2.72-0.906c0.05-1.532-0.422-3.037-1.342-4.263
		c-1.082-1.442-2.66-2.377-4.445-2.632c-0.322-0.046-0.647-0.069-0.969-0.069c-1.461,0-2.857,0.467-4.036,1.351
		c-0.13,0.098-0.286,0.15-0.449,0.15c-0.235,0-0.459-0.112-0.6-0.3c-0.12-0.16-0.171-0.358-0.143-0.556
		c0.028-0.198,0.132-0.374,0.293-0.494c1.441-1.08,3.146-1.651,4.933-1.651c0.393,0,0.791,0.028,1.184,0.084
		c2.182,0.312,4.111,1.454,5.433,3.217c1.239,1.652,1.811,3.691,1.611,5.743c-0.001,0.037-0.005,0.075-0.012,0.111l-0.002,0.016
		c-0.009,0.082-0.018,0.164-0.03,0.247c-0.312,2.182-1.454,4.111-3.217,5.434c-0.194,0.145-0.411,0.291-0.665,0.444
		c-0.042,0.03-0.086,0.055-0.132,0.076C18.642,16.098,17.206,16.485,15.748,16.485z M20.242,10.788
		c-0.36,0.119-0.575,0.488-0.501,0.859l0.361,1.757c1.019-0.86,1.756-1.998,2.126-3.278L20.242,10.788z"/>
	<path d="M5.259,23.992c-1.486,0-2.907-0.631-3.898-1.732c-0.937-1.041-1.413-2.384-1.34-3.782c0.067-1.278,0.59-2.473,1.479-3.384
		V3.745c0-2.068,1.682-3.75,3.75-3.75s3.75,1.682,3.75,3.75v11.347c0.953,0.969,1.497,2.29,1.5,3.652
		c0.002,1.486-0.63,2.909-1.734,3.903C7.802,23.514,6.557,23.992,5.259,23.992z M5.249,1.495c-1.241,0-2.25,1.009-2.25,2.25v11.668
		c0,0.212-0.09,0.416-0.248,0.557c-0.743,0.669-1.181,1.587-1.233,2.586s0.288,1.957,0.957,2.7c0.707,0.785,1.722,1.236,2.783,1.236
		c0.927,0,1.816-0.341,2.503-0.96c0.788-0.71,1.24-1.726,1.238-2.787c-0.002-1.058-0.457-2.069-1.248-2.772
		c-0.16-0.143-0.252-0.347-0.252-0.561V3.745C7.499,2.504,6.49,1.495,5.249,1.495z"/>
	<path d="M5.249,20.995c-1.241,0-2.25-1.009-2.25-2.25c0-0.96,0.615-1.808,1.5-2.121V5.245c0-0.414,0.336-0.75,0.75-0.75
		s0.75,0.336,0.75,0.75v11.379c0.885,0.313,1.5,1.161,1.5,2.121C7.499,19.986,6.49,20.995,5.249,20.995z M5.249,17.995
		c-0.414,0-0.75,0.336-0.75,0.75s0.336,0.75,0.75,0.75s0.75-0.336,0.75-0.75S5.663,17.995,5.249,17.995z"/>
</g>
</svg>
