<?xml version="1.0" encoding="utf-8"?>
<!-- Generator: Adobe Illustrator 22.1.0, SVG Export Plug-In . SVG Version: 6.00 Build 0)  -->
<svg version="1.1" id="Regular" xmlns="http://www.w3.org/2000/svg" xmlns:xlink="http://www.w3.org/1999/xlink" x="0px" y="0px"
	 viewBox="0 0 24 24" style="enable-background:new 0 0 24 24;" xml:space="preserve">
<title>golf-cart</title>
<g>
	<path d="M18.5,21.75c-1.37,0-2.564-0.947-2.902-2.25H8.652c-0.338,1.303-1.532,2.25-2.902,2.25s-2.564-0.947-2.902-2.25H2.75
		c-1.241,0-2.25-1.009-2.25-2.25v-3c0-1.492,0.894-2.839,2.25-3.433V6.75h-1.5C0.836,6.75,0.5,6.414,0.5,6V4.5
		c0-1.241,1.009-2.25,2.25-2.25h15C18.991,2.25,20,3.259,20,4.5V6c0,0.414-0.336,0.75-0.75,0.75h-3.042l2.678,3.75H20
		c2.068,0,3.75,1.682,3.75,3.75v3c0,1.241-1.009,2.25-2.25,2.25h-0.098C21.064,20.803,19.87,21.75,18.5,21.75z M18.5,17.25
		c-0.827,0-1.5,0.673-1.5,1.5s0.673,1.5,1.5,1.5s1.5-0.673,1.5-1.5S19.327,17.25,18.5,17.25z M5.75,17.25
		c-0.827,0-1.5,0.673-1.5,1.5s0.673,1.5,1.5,1.5s1.5-0.673,1.5-1.5S6.577,17.25,5.75,17.25z M21.5,18c0.414,0,0.75-0.336,0.75-0.75
		v-3c0-1.241-1.009-2.25-2.25-2.25h-1.189l-2.561,2.561v2.214c0.555-0.63,1.366-1.025,2.25-1.025c1.37,0,2.564,0.947,2.902,2.25
		H21.5z M14.75,18v-3.75c0-0.198,0.08-0.391,0.22-0.53l2.551-2.551L14.364,6.75H4.25v3.75h3c0.286,0,0.543,0.159,0.671,0.414
		L9.214,13.5h1.036c1.241,0,2.25,1.009,2.25,2.25V18H14.75z M11,18v-2.25c0-0.414-0.336-0.75-0.75-0.75h-1.5
		c-0.286,0-0.543-0.159-0.671-0.414L6.786,12H4.25C3.009,12,2,13.009,2,14.25v3C2,17.664,2.336,18,2.75,18h0.098
		c0.338-1.303,1.532-2.25,2.902-2.25S8.314,16.697,8.652,18H11z M18.5,5.25V4.5c0-0.414-0.336-0.75-0.75-0.75h-15
		C2.336,3.75,2,4.086,2,4.5v0.75H18.5z"/>
</g>
</svg>
