<?xml version="1.0" encoding="utf-8"?>
<!-- Generator: Adobe Illustrator 22.1.0, SVG Export Plug-In . SVG Version: 6.00 Build 0)  -->
<svg version="1.1" id="Regular" xmlns="http://www.w3.org/2000/svg" xmlns:xlink="http://www.w3.org/1999/xlink" x="0px" y="0px"
	 viewBox="0 0 24 24" style="enable-background:new 0 0 24 24;" xml:space="preserve">
<title>golf-hole-1</title>
<g>
	<path d="M6,18.75c-0.414,0-0.75-0.336-0.75-0.75V0.75c0-0.262,0.133-0.5,0.356-0.638C5.724,0.039,5.861,0,6,0
		c0.115,0,0.231,0.027,0.335,0.079l6.159,3.079c0.358,0.179,0.626,0.487,0.752,0.867c0.127,0.38,0.098,0.787-0.081,1.145
		c-0.144,0.289-0.382,0.527-0.672,0.672L6.75,8.714V18C6.75,18.414,6.414,18.75,6,18.75z M6.75,7.037L11.823,4.5L6.75,1.964V7.037z"
		/>
	<path d="M9,24c-4.963,0-9-2.692-9-6c0.115-1.798,1.097-3.379,2.629-4.252C2.741,13.684,2.87,13.65,3,13.65
		c0.269,0,0.519,0.145,0.652,0.379c0.205,0.359,0.079,0.818-0.28,1.023c-1.092,0.622-1.792,1.743-1.873,2.997
		C1.5,20.45,4.935,22.5,9,22.5c4.135,0,7.5-2.019,7.5-4.5c0-0.197-0.022-0.394-0.065-0.586c-0.051-0.223,0.002-0.454,0.145-0.633
		c0.144-0.179,0.357-0.282,0.586-0.282h0.084c2.846,0,5.25-1.405,5.25-3.068c0-1.663-2.404-3.068-5.25-3.068
		c-2.626,0-4.918,1.202-5.218,2.736c-0.069,0.352-0.378,0.606-0.736,0.606c-0.044,0-0.089-0.004-0.134-0.012
		c-0.706-0.128-1.399-0.193-2.06-0.193l-0.097,0c-0.417,0-0.754-0.336-0.754-0.749c0-0.199,0.076-0.386,0.216-0.526
		C8.611,12.08,8.808,12,9.02,12c0.586,0,1.176,0.039,1.758,0.115c0.839-1.93,3.439-3.252,6.472-3.252c3.722,0,6.75,2.049,6.75,4.568
		c0,2.341-2.606,4.288-6,4.541c0,0.009,0,0.018,0,0.028C18,21.309,13.963,24,9,24z"/>
</g>
</svg>
