<?xml version="1.0" encoding="utf-8"?>
<!-- Generator: Adobe Illustrator 22.1.0, SVG Export Plug-In . SVG Version: 6.00 Build 0)  -->
<svg version="1.1" id="Regular" xmlns="http://www.w3.org/2000/svg" xmlns:xlink="http://www.w3.org/1999/xlink" x="0px" y="0px"
	 viewBox="0 0 24 24" style="enable-background:new 0 0 24 24;" xml:space="preserve">
<title>golf-player</title>
<g>
	<path d="M13.741,24.004c-0.287-0.001-0.563-0.055-0.827-0.161c-0.005-0.002-0.018-0.007-0.023-0.01
		c-0.539-0.218-0.974-0.643-1.209-1.193c-0.237-0.552-0.244-1.164-0.021-1.722l0.949-2.372l-0.759-0.759l-2.902,5.078
		c-0.433,0.673-1.145,1.064-1.913,1.064c-0.347,0-0.696-0.083-1.009-0.24c-0.536-0.27-0.935-0.733-1.124-1.304
		c-0.189-0.571-0.144-1.181,0.126-1.717l2.584-4.529l-0.992-4.449C6.181,9.69,7.445,7.687,9.439,7.224l8.106-1.871l-2.493-3.571
		l-1.639,1.093C13.288,2.957,13.145,3,12.996,3c-0.251,0-0.485-0.125-0.624-0.334c-0.111-0.167-0.151-0.367-0.112-0.563
		c0.039-0.197,0.153-0.366,0.32-0.477l2.25-1.5C14.954,0.044,15.098,0,15.246,0c0.245,0,0.475,0.12,0.615,0.321l3.779,5.413
		c0.4,0.315,0.682,0.758,0.797,1.255c0.001,0.004,0.002,0.009,0.003,0.013c0.275,1.215-0.486,2.427-1.696,2.7l-5.281,1.219
		l3.304,4.999c0.677,1.025,0.809,2.318,0.353,3.458l-1.281,3.211c-0.344,0.86-1.164,1.415-2.09,1.415
		C13.747,24.004,13.744,24.004,13.741,24.004z M11.489,15.616c0.201,0,0.389,0.078,0.531,0.22l2,2
		c0.212,0.212,0.278,0.529,0.166,0.809l-1.133,2.831c-0.074,0.186-0.072,0.389,0.007,0.574c0.079,0.184,0.225,0.326,0.411,0.401
		c0.093,0.037,0.173,0.055,0.239,0.055c0.007,0,0.032-0.001,0.039-0.001c0.31,0,0.584-0.185,0.699-0.471l1.281-3.211
		c0.274-0.685,0.195-1.46-0.211-2.075l-3.9-5.9c-0.135-0.205-0.162-0.463-0.071-0.692c0.091-0.228,0.288-0.398,0.528-0.453
		L18.41,8.24c0.406-0.092,0.66-0.494,0.57-0.897c-0.001-0.004-0.002-0.008-0.003-0.012c-0.045-0.195-0.163-0.361-0.333-0.467
		c-0.12-0.075-0.257-0.115-0.396-0.115c-0.057,0-0.115,0.007-0.171,0.02L9.777,8.685c-1.197,0.278-1.956,1.482-1.693,2.683
		l1.054,4.73c0.041,0.182,0.012,0.372-0.081,0.535l-2.709,4.746C6.18,21.714,6.337,22.168,6.7,22.35
		c0.106,0.053,0.22,0.081,0.338,0.081c0.255,0,0.491-0.128,0.63-0.344l2.979-5.215c0.076-0.134,0.109-0.287,0.096-0.441
		c-0.027-0.313,0.146-0.612,0.431-0.744C11.273,15.64,11.379,15.616,11.489,15.616z"/>
	<path d="M6.246,7.125c-1.861,0-3.375-1.514-3.375-3.375s1.514-3.375,3.375-3.375S9.621,1.889,9.621,3.75S8.107,7.125,6.246,7.125z
		 M6.246,1.875c-1.034,0-1.875,0.841-1.875,1.875s0.841,1.875,1.875,1.875S8.121,4.784,8.121,3.75S7.28,1.875,6.246,1.875z"/>
</g>
</svg>
