<?xml version="1.0" encoding="utf-8"?>
<!-- Generator: Adobe Illustrator 22.1.0, SVG Export Plug-In . SVG Version: 6.00 Build 0)  -->
<svg version="1.1" id="Layer_1" xmlns="http://www.w3.org/2000/svg" xmlns:xlink="http://www.w3.org/1999/xlink" x="0px" y="0px"
	 viewBox="0 0 24 24" style="enable-background:new 0 0 24 24;" xml:space="preserve">
<title>graphic-tablet-intous-draw</title>
<g>
	<path d="M2.25,24.002c-1.241,0-2.25-1.009-2.25-2.25V7.502c0-1.241,1.009-2.25,2.25-2.25h9c0.414,0,0.75,0.336,0.75,0.75
		s-0.336,0.75-0.75,0.75h-9c-0.414,0-0.75,0.336-0.75,0.75v14.25c0,0.414,0.336,0.75,0.75,0.75h19.5c0.414,0,0.75-0.336,0.75-0.75
		v-12c0-0.414,0.336-0.75,0.75-0.75S24,9.338,24,9.752v12c0,1.241-1.009,2.25-2.25,2.25H2.25z"/>
	<path d="M12.348,14.72c-0.162,0-0.323-0.054-0.453-0.152c-0.2-0.151-0.311-0.392-0.296-0.643l0.228-3.817
		c0.009-0.149,0.062-0.291,0.152-0.409l6.51-8.562c0.545-0.72,1.379-1.134,2.287-1.134c0.628,0,1.224,0.2,1.725,0.578
		c1.263,0.956,1.518,2.755,0.572,4.015c-0.002,0.003-6.516,8.57-6.516,8.57c-0.09,0.117-0.21,0.205-0.35,0.254l-3.613,1.259
		C12.515,14.706,12.432,14.72,12.348,14.72z M13.164,12.892l2.336-0.814l6.372-8.38c0.453-0.599,0.334-1.458-0.266-1.912
		c-0.243-0.184-0.532-0.281-0.834-0.281c-0.432,0-0.829,0.197-1.088,0.539l-6.373,8.382L13.164,12.892z"/>
</g>
</svg>
