<?xml version="1.0" encoding="utf-8"?>
<!-- Generator: Adobe Illustrator 22.1.0, SVG Export Plug-In . SVG Version: 6.00 Build 0)  -->
<svg version="1.1" id="Layer_1" xmlns="http://www.w3.org/2000/svg" xmlns:xlink="http://www.w3.org/1999/xlink" x="0px" y="0px"
	 viewBox="0 0 24 24" style="enable-background:new 0 0 24 24;" xml:space="preserve">
<title>graphic-tablet-draw-1</title>
<g>
	<path d="M2.25,24.002c-1.241,0-2.25-1.009-2.25-2.25V7.502c0-1.241,1.009-2.25,2.25-2.25h9c0.414,0,0.75,0.336,0.75,0.75
		s-0.336,0.75-0.75,0.75h-9c-0.414,0-0.75,0.336-0.75,0.75v14.25c0,0.414,0.336,0.75,0.75,0.75h19.5c0.414,0,0.75-0.336,0.75-0.75
		v-12c0-0.414,0.336-0.75,0.75-0.75S24,9.338,24,9.752v12c0,1.241-1.009,2.25-2.25,2.25H2.25z"/>
	<path d="M12.348,14.72c-0.162,0-0.323-0.054-0.453-0.152c-0.2-0.151-0.311-0.392-0.296-0.643l0.228-3.817
		c0.009-0.149,0.062-0.291,0.152-0.409l6.51-8.562c0.545-0.72,1.379-1.134,2.287-1.134c0.628,0,1.224,0.2,1.725,0.578
		c1.263,0.956,1.518,2.755,0.572,4.015c-0.002,0.003-6.516,8.57-6.516,8.57c-0.09,0.117-0.21,0.205-0.35,0.254l-3.613,1.259
		C12.515,14.706,12.432,14.72,12.348,14.72z M13.164,12.892l2.336-0.814l6.372-8.38c0.453-0.599,0.334-1.458-0.266-1.912
		c-0.243-0.184-0.532-0.281-0.834-0.281c-0.432,0-0.829,0.197-1.088,0.539l-6.373,8.382L13.164,12.892z"/>
	<path d="M12.367,21.752c-1.864,0-3.536-1.038-4.363-2.709c-0.28-0.564-0.445-1.16-0.493-1.775H6.215
		c-0.945,0-1.714-0.768-1.715-1.712v-4.823c0-0.946,0.769-1.715,1.715-1.715H9c0.414,0,0.75,0.336,0.75,0.75s-0.336,0.75-0.75,0.75
		H6.215C6.096,10.518,6,10.614,6,10.733v4.821c0,0.118,0.096,0.214,0.214,0.214h1.41c0.185-0.819,0.564-1.609,1.131-2.354
		c0.143-0.188,0.36-0.296,0.597-0.296c0.165,0,0.323,0.053,0.454,0.154c0.329,0.251,0.393,0.722,0.142,1.051
		c-1.005,1.319-1.224,2.796-0.601,4.054c0.573,1.156,1.73,1.875,3.019,1.875c0.901-0.001,1.748-0.353,2.385-0.99
		c0.637-0.638,0.987-1.486,0.986-2.388c0-0.298-0.04-0.596-0.119-0.885c-0.109-0.399,0.127-0.812,0.526-0.921
		c0.064-0.018,0.131-0.027,0.197-0.027c0.337,0,0.635,0.228,0.724,0.553c0.114,0.417,0.171,0.847,0.172,1.278
		c0.001,1.302-0.505,2.527-1.425,3.448C14.893,21.242,13.67,21.751,12.367,21.752L12.367,21.752z"/>
</g>
</svg>
