<?xml version="1.0" encoding="utf-8"?>
<!-- Generator: Adobe Illustrator 22.1.0, SVG Export Plug-In . SVG Version: 6.00 Build 0)  -->
<svg version="1.1" id="Layer_1" xmlns="http://www.w3.org/2000/svg" xmlns:xlink="http://www.w3.org/1999/xlink" x="0px" y="0px"
	 viewBox="0 0 24 24" style="enable-background:new 0 0 24 24;" xml:space="preserve">
<title>grid-ruler-1</title>
<g>
	<path d="M4.855,23.516c-0.602,0-1.167-0.234-1.591-0.658l-2.121-2.121c-0.424-0.424-0.658-0.989-0.658-1.591
		c0-0.602,0.234-1.167,0.658-1.591l9.016-9.015L5.915,4.296C5.332,3.711,5.332,2.76,5.914,2.175l1.255-1.254
		C7.446,0.643,7.833,0.483,8.23,0.483c0.176,0,0.35,0.031,0.515,0.091l7.157,2.621c0.204-0.059,0.412-0.088,0.62-0.088
		c0.601,0,1.166,0.234,1.591,0.659l2.121,2.121c0.575,0.575,0.791,1.428,0.57,2.207l2.621,7.159c0.2,0.547,0.063,1.166-0.348,1.577
		l-1.245,1.253c-0.286,0.284-0.663,0.439-1.063,0.439s-0.777-0.155-1.059-0.437l-4.246-4.246l-9.018,9.018
		C6.022,23.282,5.457,23.516,4.855,23.516z M16.522,4.607c-0.2,0-0.389,0.078-0.53,0.22L2.203,18.615
		c-0.292,0.292-0.292,0.768,0,1.061l2.121,2.121c0.141,0.141,0.33,0.219,0.53,0.219s0.389-0.078,0.53-0.219l3.413-3.413
		l-1.217-1.217c-0.292-0.292-0.292-0.768,0-1.061c0.142-0.142,0.33-0.22,0.53-0.22s0.389,0.078,0.53,0.22l1.217,1.217l2.689-2.69
		l-1.217-1.217c-0.292-0.292-0.292-0.768,0-1.061c0.142-0.142,0.33-0.22,0.53-0.22s0.389,0.078,0.53,0.22l1.217,1.217l2.689-2.689
		l-1.217-1.217c-0.142-0.141-0.22-0.33-0.22-0.53c0-0.2,0.078-0.389,0.22-0.53c0.142-0.142,0.33-0.22,0.53-0.22
		s0.389,0.078,0.53,0.22l1.217,1.217l1.815-1.815c0.292-0.292,0.292-0.768,0-1.061l-2.121-2.121
		C16.911,4.685,16.722,4.607,16.522,4.607z M20.769,17.024l1.246-1.253L19.744,9.56l-3.219,3.219L20.769,17.024z M6.975,3.235
		l4.244,4.244l3.221-3.221L8.229,1.983C8.228,1.983,6.975,3.235,6.975,3.235z"/>
</g>
</svg>
