<?xml version="1.0" encoding="utf-8"?>
<!-- Generator: Adobe Illustrator 22.1.0, SVG Export Plug-In . SVG Version: 6.00 Build 0)  -->
<svg version="1.1" id="Regular" xmlns="http://www.w3.org/2000/svg" xmlns:xlink="http://www.w3.org/1999/xlink" x="0px" y="0px"
	 viewBox="0 0 24 24" style="enable-background:new 0 0 24 24;" xml:space="preserve">
<title>gymnastics-weightlifting</title>
<g>
	<path d="M12,6.75c-1.861,0-3.375-1.514-3.375-3.375S10.139,0,12,0c1.861,0,3.375,1.514,3.375,3.375S13.861,6.75,12,6.75z M12,1.5
		c-1.034,0-1.875,0.841-1.875,1.875S10.966,5.25,12,5.25s1.875-0.841,1.875-1.875S13.034,1.5,12,1.5z"/>
	<path d="M13.5,24c-0.563,0-1.091-0.206-1.5-0.575C11.591,23.794,11.063,24,10.5,24c-1.241,0-2.25-1.009-2.25-2.25v-4.5
		c0-0.414,0.336-0.75,0.75-0.75s0.75,0.336,0.75,0.75v4.5c0,0.414,0.336,0.75,0.75,0.75s0.75-0.336,0.75-0.75v-3
		c0-0.414,0.336-0.75,0.75-0.75s0.75,0.336,0.75,0.75v3c0,0.414,0.336,0.75,0.75,0.75s0.75-0.336,0.75-0.75v-4.5
		c0-0.414,0.336-0.75,0.75-0.75s0.75,0.336,0.75,0.75v4.5C15.75,22.991,14.741,24,13.5,24z"/>
	<path d="M23.25,24c-0.414,0-0.75-0.336-0.75-0.75V15h-4.326c-0.427,0.479-1.027,0.75-1.674,0.75s-1.246-0.271-1.674-0.75H9.173
		c-0.427,0.479-1.027,0.75-1.673,0.75S6.254,15.479,5.827,15H1.5v8.25C1.5,23.664,1.164,24,0.75,24S0,23.664,0,23.25V12
		c0-0.414,0.336-0.75,0.75-0.75S1.5,11.586,1.5,12v1.5h3.75V12c0-2.895,2.355-5.25,5.25-5.25h3c2.895,0,5.25,2.355,5.25,5.25v1.5
		h3.75V12c0-0.414,0.336-0.75,0.75-0.75S24,11.586,24,12v11.25C24,23.664,23.664,24,23.25,24z M15,11.25
		c0.414,0,0.75,0.336,0.75,0.75v1.5c0,0.414,0.336,0.75,0.75,0.75s0.75-0.336,0.75-0.75V12c0-2.068-1.682-3.75-3.75-3.75h-3
		c-2.068,0-3.75,1.682-3.75,3.75v1.5c0,0.414,0.336,0.75,0.75,0.75s0.75-0.336,0.75-0.75V12c0-0.414,0.336-0.75,0.75-0.75
		S9.75,11.586,9.75,12v1.5h4.5V12C14.25,11.586,14.586,11.25,15,11.25z"/>
</g>
</svg>
