<?xml version="1.0" encoding="utf-8"?>
<!-- Generator: Adobe Illustrator 22.1.0, SVG Export Plug-In . SVG Version: 6.00 Build 0)  -->
<svg version="1.1" id="Regular" xmlns="http://www.w3.org/2000/svg" xmlns:xlink="http://www.w3.org/1999/xlink" x="0px" y="0px"
	 viewBox="0 0 24 24" style="enable-background:new 0 0 24 24;" xml:space="preserve">
<title>gymnastics-acrobatic-hanging-2</title>
<g>
	<path d="M11.77,24.005c-0.822,0-1.648-0.105-2.454-0.314c-2.521-0.651-4.639-2.245-5.961-4.488s-1.693-4.868-1.041-7.389
		c0.83-3.217,3.285-5.812,6.44-6.834V0.753c0-0.414,0.336-0.75,0.75-0.75s0.75,0.336,0.75,0.75v8.469
		c0.485-0.146,0.988-0.219,1.5-0.219c0.512,0,1.015,0.073,1.5,0.219V0.753c0-0.414,0.336-0.75,0.75-0.75s0.75,0.336,0.75,0.75v4.224
		c4.922,1.584,7.742,6.672,6.44,11.712c-0.651,2.522-2.245,4.639-4.488,5.961C15.203,23.536,13.496,24.004,11.77,24.005
		L11.77,24.005z M8.754,6.568c-2.473,0.961-4.319,3.029-4.988,5.62c-0.551,2.134-0.238,4.354,0.881,6.252
		c1.119,1.898,2.911,3.247,5.044,3.798c0.683,0.176,1.382,0.266,2.078,0.266c1.459,0,2.903-0.397,4.175-1.147
		c1.898-1.119,3.247-2.91,3.798-5.044c1.05-4.066-1.126-8.245-4.988-9.747v3.385c1.413,0.986,2.25,2.579,2.25,4.301
		c0,2.895-2.355,5.25-5.25,5.25c-2.895,0-5.25-2.355-5.25-5.25c0-1.722,0.837-3.315,2.25-4.301V6.568z M11.754,10.503
		c-2.068,0-3.75,1.682-3.75,3.75c0,2.068,1.682,3.75,3.75,3.75c2.068,0,3.75-1.682,3.75-3.75
		C15.504,12.185,13.822,10.503,11.754,10.503z"/>
</g>
</svg>
