<?xml version="1.0" encoding="utf-8"?>
<!-- Generator: Adobe Illustrator 22.1.0, SVG Export Plug-In . SVG Version: 6.00 Build 0)  -->
<svg version="1.1" id="Regular" xmlns="http://www.w3.org/2000/svg" xmlns:xlink="http://www.w3.org/1999/xlink" x="0px" y="0px"
	 viewBox="0 0 24 24" style="enable-background:new 0 0 24 24;" xml:space="preserve">
<title>gymnastics-acrobatic-hanging</title>
<g>
	<path d="M7.499,24c-4.135,0-7.5-3.365-7.5-7.5c0-3.275,2.145-6.176,5.25-7.153V0.75C5.249,0.336,5.585,0,5.999,0
		s0.75,0.336,0.75,0.75v8.288C6.999,9.013,7.25,9,7.499,9s0.5,0.013,0.75,0.038V0.75C8.249,0.336,8.585,0,8.999,0
		s0.75,0.336,0.75,0.75v8.597c3.105,0.978,5.25,3.879,5.25,7.153C14.999,20.635,11.635,24,7.499,24z M7.499,10.5
		c-3.308,0-6,2.692-6,6s2.692,6,6,6s6-2.692,6-6S10.807,10.5,7.499,10.5z"/>
	<path d="M7.499,21c-2.481,0-4.5-2.019-4.5-4.5s2.019-4.5,4.5-4.5s4.5,2.019,4.5,4.5S9.98,21,7.499,21z M7.499,13.5
		c-1.654,0-3,1.346-3,3s1.346,3,3,3s3-1.346,3-3S9.153,13.5,7.499,13.5z"/>
	<path d="M16.491,23.999c-0.56,0-1.117-0.062-1.658-0.185c-0.404-0.092-0.657-0.494-0.566-0.897c0.078-0.344,0.378-0.584,0.73-0.584
		c0.056,0,0.113,0.006,0.168,0.019c0.431,0.098,0.877,0.147,1.325,0.147c0.449,0,0.895-0.05,1.326-0.147
		c3.227-0.731,5.257-3.951,4.525-7.178c-0.614-2.708-3.075-4.674-5.852-4.674c-0.444,0-0.89,0.05-1.326,0.149
		c-0.01,0.002-0.022,0.004-0.033,0.006c-0.016,0.003-0.029,0.004-0.043,0.005c-0.023,0.003-0.045,0.005-0.065,0.006
		c-0.008,0.001-0.017,0.001-0.025,0.001c-0.012,0-0.028-0.001-0.042-0.002c-0.033-0.001-0.069-0.005-0.105-0.012
		c-0.014-0.003-0.035-0.008-0.049-0.013c-0.018-0.003-0.056-0.015-0.093-0.031c-0.011-0.005-0.029-0.013-0.039-0.019
		c-0.021-0.01-0.054-0.027-0.086-0.048c-0.012-0.008-0.031-0.022-0.041-0.031c-0.017-0.012-0.046-0.036-0.073-0.062
		c-0.008-0.008-0.024-0.026-0.032-0.035c-0.018-0.02-0.039-0.044-0.057-0.072c-0.008-0.011-0.025-0.041-0.032-0.052
		c-0.017-0.03-0.028-0.05-0.038-0.072c-0.012-0.029-0.021-0.057-0.03-0.085c-0.003-0.007-0.01-0.03-0.016-0.053
		c-0.002-0.009-0.004-0.02-0.005-0.03c-0.003-0.018-0.005-0.034-0.006-0.05c-0.003-0.019-0.005-0.04-0.006-0.06
		c0-0.008-0.001-9.191-0.001-9.191c0-0.414,0.336-0.75,0.75-0.75s0.75,0.336,0.75,0.75v8.288c0.247-0.025,0.496-0.037,0.742-0.037
		c0.252,0,0.506,0.013,0.758,0.039V0.75c0-0.414,0.336-0.75,0.75-0.75s0.75,0.336,0.75,0.75v8.6
		c2.541,0.805,4.466,2.886,5.057,5.491c0.914,4.033-1.623,8.058-5.656,8.973C17.608,23.937,17.051,23.999,16.491,23.999z"/>
	<path d="M16.499,21c-0.414,0-0.75-0.336-0.75-0.75s0.336-0.75,0.75-0.75c1.654,0,3-1.346,3-3s-1.346-3-3-3
		c-0.414,0-0.75-0.336-0.75-0.75S16.086,12,16.499,12c2.481,0,4.5,2.019,4.5,4.5S18.98,21,16.499,21z"/>
</g>
</svg>
