<?xml version="1.0" encoding="utf-8"?>
<!-- Generator: Adobe Illustrator 22.1.0, SVG Export Plug-In . SVG Version: 6.00 Build 0)  -->
<svg version="1.1" id="Regular" xmlns="http://www.w3.org/2000/svg" xmlns:xlink="http://www.w3.org/1999/xlink" x="0px" y="0px"
	 viewBox="0 0 24 24" style="enable-background:new 0 0 24 24;" xml:space="preserve">
<title>gymnastics-ribbon-person</title>
<g>
	<path d="M11.625,9.75c-1.861,0-3.375-1.514-3.375-3.375S9.764,3,11.625,3C13.486,3,15,4.514,15,6.375S13.486,9.75,11.625,9.75z
		 M11.625,4.5c-1.034,0-1.875,0.841-1.875,1.875s0.841,1.875,1.875,1.875S13.5,7.409,13.5,6.375S12.659,4.5,11.625,4.5z"/>
	<path d="M10.5,21C4.71,21,0,16.29,0,10.5C0,4.71,4.71,0,10.5,0C16.29,0,21,4.71,21,10.5C21,16.29,16.29,21,10.5,21z M1.705,8.582
		C1.569,9.208,1.5,9.849,1.5,10.5c0,4.963,4.037,9,9,9s9-4.037,9-9s-4.037-9-9-9c-2.241,0-4.412,0.851-6.064,2.358
		C5.341,4.15,5.997,5,5.997,6v0.749c0.002,2.065,1.685,3.748,3.751,3.75h2.999c1.254,0.065,2.476,0.407,3.553,0.991l0.042,0.019
		c0.297,0.134,0.596,0.269,0.908,0.397c0.185,0.076,0.33,0.22,0.407,0.405c0.077,0.185,0.078,0.389,0.002,0.574
		c-0.116,0.283-0.388,0.465-0.694,0.465c-0.098,0-0.193-0.019-0.284-0.056c-0.336-0.137-0.647-0.278-0.948-0.414l-0.076-0.034
		c-0.023-0.011-0.04-0.019-0.055-0.028c-0.884-0.483-1.886-0.768-2.895-0.82l-2.961,0.001C6.855,11.996,4.5,9.641,4.497,6.75V6
		c0-0.414-0.336-0.75-0.75-0.75S2.997,5.586,2.997,6v0.75c0.005,3.717,3.033,6.746,6.751,6.75c0.413,0,0.749,0.337,0.749,0.75v3
		c0,0.414-0.336,0.75-0.75,0.75s-0.75-0.336-0.75-0.75v-2.285C5.403,14.637,2.488,12.006,1.705,8.582z"/>
	<path d="M12.75,17.625c-0.414,0-0.75-0.336-0.75-0.75V14.25c0-0.213,0.091-0.417,0.25-0.559c0.139-0.124,0.316-0.191,0.499-0.191
		c0.029,0,0.058,0.002,0.087,0.005c0.787,0.089,1.538,0.331,2.23,0.719l0.045,0.021c0.238,0.108,0.492,0.224,0.763,0.339
		c0.184,0.078,0.327,0.224,0.402,0.409c0.075,0.186,0.073,0.389-0.005,0.574c-0.118,0.278-0.389,0.458-0.69,0.458l0,0
		c-0.101,0-0.2-0.02-0.293-0.06c-0.281-0.119-0.544-0.239-0.791-0.351l-0.083-0.038c-0.02-0.009-0.041-0.02-0.062-0.031
		c-0.271-0.154-0.557-0.279-0.853-0.372v1.703C13.5,17.289,13.164,17.625,12.75,17.625z"/>
	<path d="M21.75,17.25c-0.287,0-0.574-0.006-0.877-0.02c-0.413-0.019-0.735-0.369-0.717-0.782c0.018-0.403,0.347-0.717,0.749-0.717
		c0.005,0,0.028,0,0.033,0c0.28,0.012,0.545,0.019,0.811,0.019c0.2,0,0.388-0.078,0.53-0.22c0.142-0.142,0.22-0.33,0.219-0.531
		c0-0.345-0.234-0.645-0.569-0.728c-0.195-0.048-0.359-0.169-0.462-0.341c-0.104-0.171-0.134-0.373-0.086-0.568
		c0.083-0.335,0.383-0.57,0.728-0.57c0.06,0,0.121,0.007,0.18,0.022c1.006,0.249,1.709,1.147,1.709,2.183
		c0,0.601-0.233,1.166-0.658,1.591C22.916,17.015,22.351,17.25,21.75,17.25L21.75,17.25z"/>
	<path d="M16.5,24c-1.319,0-2.603-0.443-3.63-1.246c-0.326-0.255-0.384-0.727-0.129-1.053c0.143-0.183,0.358-0.288,0.591-0.288
		c0.167,0,0.331,0.057,0.462,0.16c0.761,0.595,1.722,0.925,2.705,0.927h5.25c0.414,0,0.75-0.336,0.75-0.75S22.164,21,21.75,21H17.5
		c-0.414,0-0.75-0.336-0.75-0.75s0.336-0.75,0.75-0.75h4.25c1.241,0,2.25,1.009,2.25,2.25S22.991,24,21.75,24H16.5z"/>
	<path d="M9.75,24C9.336,24,9,23.664,9,23.25V22.5c0-0.414,0.336-0.75,0.75-0.75s0.75,0.336,0.75,0.75v0.75
		C10.5,23.664,10.164,24,9.75,24z"/>
</g>
</svg>
