<?xml version="1.0" encoding="utf-8"?>
<!-- Generator: Adobe Illustrator 22.1.0, SVG Export Plug-In . SVG Version: 6.00 Build 0)  -->
<svg version="1.1" id="Regular" xmlns="http://www.w3.org/2000/svg" xmlns:xlink="http://www.w3.org/1999/xlink" x="0px" y="0px"
	 viewBox="0 0 24 24" style="enable-background:new 0 0 24 24;" xml:space="preserve">
<title>hair-skin</title>
<g>
	<path d="M12.025,17.512c-3.452,0-6.333-2.608-6.709-6H0.775c-0.414,0-0.75-0.336-0.75-0.75s0.336-0.75,0.75-0.75h5.25
		c0.414,0,0.75,0.336,0.75,0.75c0,2.895,2.355,5.25,5.25,5.25s5.25-2.355,5.25-5.25c0-0.414,0.336-0.75,0.75-0.75h5.2
		c0.414,0,0.75,0.336,0.75,0.75s-0.336,0.75-0.75,0.75h-4.492C18.358,14.904,15.477,17.512,12.025,17.512z"/>
	<path d="M1.525,15.637c-0.044,0-0.088-0.004-0.13-0.011c-0.513-0.06-0.923-0.47-0.983-0.983C0.404,14.6,0.4,14.556,0.4,14.512
		s0.004-0.088,0.011-0.131c0.06-0.513,0.47-0.922,0.983-0.982c0.042-0.008,0.086-0.011,0.13-0.011s0.088,0.004,0.13,0.011
		c0.513,0.06,0.923,0.469,0.983,0.982c0.008,0.043,0.011,0.087,0.011,0.131S2.646,14.6,2.639,14.643
		c-0.06,0.513-0.47,0.922-0.983,0.983C1.613,15.633,1.57,15.637,1.525,15.637z"/>
	<path d="M1.525,23.137c-0.044,0-0.088-0.004-0.13-0.011c-0.513-0.06-0.923-0.47-0.983-0.983C0.404,22.1,0.4,22.056,0.4,22.012
		s0.004-0.088,0.011-0.131c0.06-0.513,0.47-0.922,0.983-0.982c0.042-0.008,0.086-0.011,0.13-0.011s0.088,0.004,0.13,0.011
		c0.513,0.06,0.923,0.469,0.983,0.982c0.008,0.043,0.011,0.087,0.011,0.131S2.646,22.1,2.639,22.143
		c-0.06,0.513-0.47,0.922-0.983,0.983C1.613,23.133,1.57,23.137,1.525,23.137z"/>
	<path d="M4.525,19.387c-0.044,0-0.088-0.004-0.13-0.011c-0.513-0.06-0.923-0.47-0.983-0.983C3.404,18.35,3.4,18.306,3.4,18.262
		s0.004-0.088,0.011-0.131c0.06-0.513,0.47-0.922,0.983-0.982c0.042-0.008,0.086-0.011,0.13-0.011s0.088,0.004,0.13,0.011
		c0.513,0.06,0.923,0.469,0.983,0.982c0.008,0.043,0.011,0.087,0.011,0.131s-0.004,0.088-0.011,0.131
		c-0.06,0.513-0.47,0.922-0.983,0.983C4.613,19.383,4.57,19.387,4.525,19.387z"/>
	<path d="M8.275,23.137c-0.044,0-0.088-0.004-0.13-0.011c-0.513-0.06-0.923-0.47-0.983-0.983C7.154,22.1,7.15,22.056,7.15,22.012
		s0.004-0.088,0.011-0.131c0.06-0.513,0.47-0.922,0.983-0.982c0.042-0.008,0.086-0.011,0.13-0.011s0.088,0.004,0.13,0.011
		c0.513,0.06,0.923,0.469,0.983,0.982C9.396,21.924,9.4,21.968,9.4,22.012S9.396,22.1,9.389,22.143
		c-0.06,0.513-0.47,0.922-0.983,0.983C8.363,23.133,8.32,23.137,8.275,23.137z"/>
	<path d="M22.525,15.637c-0.044,0-0.088-0.004-0.131-0.011c-0.513-0.06-0.923-0.47-0.983-0.983C21.404,14.6,21.4,14.556,21.4,14.512
		s0.004-0.088,0.011-0.131c0.06-0.513,0.47-0.923,0.983-0.983c0.042-0.008,0.086-0.011,0.131-0.011s0.088,0.004,0.131,0.011
		c0.513,0.06,0.923,0.47,0.983,0.983c0.008,0.042,0.011,0.086,0.011,0.131s-0.004,0.088-0.011,0.131
		c-0.06,0.513-0.47,0.923-0.983,0.983C22.613,15.633,22.57,15.637,22.525,15.637z"/>
	<path d="M22.525,23.137c-0.044,0-0.088-0.004-0.131-0.011c-0.513-0.06-0.923-0.47-0.983-0.983C21.404,22.1,21.4,22.056,21.4,22.012
		s0.004-0.088,0.011-0.131c0.06-0.513,0.47-0.923,0.983-0.983c0.042-0.008,0.086-0.011,0.131-0.011s0.088,0.004,0.131,0.011
		c0.513,0.06,0.923,0.47,0.983,0.983c0.008,0.042,0.011,0.086,0.011,0.131s-0.004,0.088-0.011,0.131
		c-0.06,0.513-0.47,0.923-0.983,0.983C22.613,23.133,22.57,23.137,22.525,23.137z"/>
	<path d="M19.525,19.387c-0.044,0-0.088-0.004-0.131-0.011c-0.513-0.06-0.923-0.47-0.983-0.983
		c-0.008-0.042-0.011-0.086-0.011-0.131s0.004-0.088,0.011-0.131c0.06-0.513,0.47-0.923,0.983-0.983
		c0.042-0.008,0.086-0.011,0.131-0.011s0.088,0.004,0.131,0.011c0.513,0.06,0.923,0.47,0.983,0.983
		c0.008,0.042,0.011,0.086,0.011,0.131s-0.004,0.088-0.011,0.131c-0.06,0.513-0.47,0.923-0.983,0.983
		C19.613,19.383,19.57,19.387,19.525,19.387z"/>
	<path d="M15.775,23.137c-0.044,0-0.088-0.004-0.131-0.011c-0.513-0.06-0.923-0.47-0.983-0.983
		c-0.008-0.042-0.011-0.086-0.011-0.131s0.004-0.088,0.011-0.131c0.06-0.513,0.47-0.923,0.983-0.983
		c0.042-0.008,0.086-0.011,0.131-0.011s0.088,0.004,0.131,0.011c0.513,0.06,0.923,0.47,0.983,0.983
		c0.008,0.042,0.011,0.086,0.011,0.131s-0.004,0.088-0.011,0.131c-0.06,0.513-0.47,0.923-0.983,0.983
		C15.863,23.133,15.82,23.137,15.775,23.137z"/>
	<path d="M12.025,14.512c-2.481,0-4.5-2.019-4.5-4.5c0-0.006,0.001-0.034,0.001-0.041c0.2-3.51,1.839-6.84,4.497-9.139
		c0.286-0.232,0.616-0.35,0.963-0.35c0.101,0,0.202,0.01,0.302,0.031c0.393,0.081,0.731,0.31,0.952,0.645
		c0.22,0.335,0.298,0.735,0.217,1.128c-0.468,2.29,0.228,3.43,0.965,4.637c0.517,0.846,1.103,1.805,1.103,3.089
		C16.525,12.493,14.507,14.512,12.025,14.512z M12.987,1.982c-2.335,2.02-3.782,4.961-3.962,8.062
		c0.006,1.626,1.351,2.968,3.001,2.968c1.654,0,3-1.346,3-3c0-0.862-0.39-1.5-0.883-2.307c-0.776-1.27-1.741-2.851-1.155-5.72
		l-0.001-0.377L12.987,1.982C12.986,1.983,12.987,1.983,12.987,1.982z"/>
</g>
</svg>
