<?xml version="1.0" encoding="utf-8"?>
<!-- Generator: Adobe Illustrator 22.1.0, SVG Export Plug-In . SVG Version: 6.00 Build 0)  -->
<svg version="1.1" id="Regular" xmlns="http://www.w3.org/2000/svg" xmlns:xlink="http://www.w3.org/1999/xlink" x="0px" y="0px"
	 viewBox="0 0 24 24" style="enable-background:new 0 0 24 24;" xml:space="preserve">
<title>hair-dress-comb-1</title>
<g>
	<path d="M10.491,23.909c-0.2,0-0.389-0.078-0.53-0.22c-0.292-0.292-0.292-0.768,0-1.061l4.341-4.341l-2.187-2.187l-4.341,4.341
		c-0.142,0.142-0.33,0.22-0.53,0.22s-0.389-0.078-0.53-0.22c-0.292-0.292-0.292-0.768,0-1.061l4.341-4.341l-2.187-2.187
		l-4.341,4.341c-0.142,0.142-0.33,0.22-0.53,0.22s-0.389-0.078-0.53-0.22c-0.292-0.292-0.292-0.768,0-1.061l4.341-4.341L5.619,9.606
		l-4.341,4.342c-0.141,0.142-0.33,0.22-0.53,0.22c-0.2,0-0.389-0.078-0.53-0.22c-0.142-0.142-0.22-0.33-0.22-0.53
		s0.078-0.389,0.22-0.53l7.578-7.578c0.005-0.005,0.017-0.016,0.023-0.021c0.703-0.701,1.658-1.095,2.673-1.095
		c1.019,0,1.976,0.397,2.695,1.117c0.035,0.035,0.073,0.068,0.113,0.099c0.203,0.156,0.446,0.239,0.702,0.239
		c0.363,0,0.697-0.164,0.917-0.45l2.947-3.815c0.142-0.2,0.33-0.404,0.534-0.578c0.604-0.516,1.373-0.8,2.164-0.8
		c0.09,0,0.18,0.004,0.271,0.011c0.89,0.071,1.7,0.484,2.28,1.163c0.071,0.089,0.122,0.158,0.17,0.23
		c1.061,1.563,0.652,3.699-0.912,4.761l-3.663,2.824c-0.037,0.029-0.072,0.06-0.105,0.093c-0.219,0.218-0.341,0.508-0.341,0.817
		c-0.001,0.309,0.119,0.599,0.336,0.818c1.489,1.491,1.486,3.905,0.001,5.391l-7.578,7.577
		C10.88,23.831,10.691,23.909,10.491,23.909z M15.362,17.228l2.177-2.176c0.9-0.901,0.9-2.368,0-3.27
		c-0.002-0.002-0.004-0.004-0.006-0.006c-0.499-0.503-0.772-1.169-0.77-1.877c0.002-0.709,0.28-1.376,0.783-1.876
		c0.077-0.077,0.16-0.15,0.247-0.217l3.7-2.851c0.908-0.618,1.146-1.825,0.549-2.705c-0.028-0.041-0.056-0.08-0.086-0.118
		c-0.306-0.358-0.75-0.583-1.24-0.622c-0.05-0.004-0.099-0.006-0.149-0.006c-0.443,0-0.855,0.152-1.194,0.441
		c-0.114,0.097-0.216,0.208-0.303,0.331l-2.963,3.837c-0.506,0.657-1.273,1.034-2.106,1.034c-0.59,0-1.149-0.19-1.617-0.55
		c-0.091-0.07-0.178-0.146-0.259-0.227c-0.436-0.436-1.016-0.677-1.634-0.677l0-0.375v0.375c-0.617,0-1.197,0.24-1.634,0.677
		L6.68,8.545l5.947,5.948c0.007,0.006,0.013,0.011,0.019,0.018c0.006,0.006,0.011,0.011,0.017,0.018L15.362,17.228z"/>
</g>
</svg>
