<?xml version="1.0" encoding="utf-8"?>
<!-- Generator: Adobe Illustrator 22.1.0, SVG Export Plug-In . SVG Version: 6.00 Build 0)  -->
<svg version="1.1" id="Regular" xmlns="http://www.w3.org/2000/svg" xmlns:xlink="http://www.w3.org/1999/xlink" x="0px" y="0px"
	 viewBox="0 0 24 24" style="enable-background:new 0 0 24 24;" xml:space="preserve">
<title>hair-dress-round-brush_1</title>
<g>
	<path d="M12.25,24c-3.793,0-6.826-1.558-7.401-3.75H2.5c-0.414,0-0.75-0.336-0.75-0.75s0.336-0.75,0.75-0.75h2.25v-3H2.5
		c-0.414,0-0.75-0.336-0.75-0.75s0.336-0.75,0.75-0.75h2.25V10.5H2.5c-0.414,0-0.75-0.336-0.75-0.75S2.086,9,2.5,9h2.25V5.25H2.5
		c-0.414,0-0.75-0.336-0.75-0.75S2.086,3.75,2.5,3.75h2.349C5.424,1.558,8.457,0,12.25,0c3.793,0,6.826,1.558,7.401,3.75H22
		c0.414,0,0.75,0.336,0.75,0.75S22.414,5.25,22,5.25h-2.25V9H22c0.414,0,0.75,0.336,0.75,0.75S22.414,10.5,22,10.5h-2.25v3.75H22
		c0.414,0,0.75,0.336,0.75,0.75s-0.336,0.75-0.75,0.75h-2.25v3H22c0.414,0,0.75,0.336,0.75,0.75s-0.336,0.75-0.75,0.75h-2.349
		C19.076,22.442,16.043,24,12.25,24z M13,22.474c2.883-0.197,5.25-1.516,5.25-2.974v-1.755c-1.237,0.988-3.115,1.614-5.25,1.734
		V22.474z M6.25,19.5c0,1.458,2.367,2.777,5.25,2.974v-2.995c-2.134-0.12-4.013-0.747-5.25-1.734V19.5z M13,17.974
		c2.883-0.197,5.25-1.516,5.25-2.974v-2.505c-1.237,0.988-3.116,1.614-5.25,1.734V17.974z M6.25,15c0,1.458,2.367,2.777,5.25,2.974
		v-3.745c-2.134-0.12-4.013-0.746-5.25-1.734V15z M13,12.724c2.883-0.197,5.25-1.516,5.25-2.974V7.245
		C17.013,8.233,15.135,8.859,13,8.979V12.724z M6.25,9.75c0,1.458,2.367,2.777,5.25,2.974V8.979c-2.134-0.12-4.013-0.746-5.25-1.734
		V9.75z M12.25,1.5c-3.196,0-6,1.402-6,3s2.804,3,6,3s6-1.402,6-3S15.446,1.5,12.25,1.5z"/>
</g>
</svg>
