<?xml version="1.0" encoding="utf-8"?>
<!-- Generator: Adobe Illustrator 22.1.0, SVG Export Plug-In . SVG Version: 6.00 Build 0)  -->
<svg version="1.1" id="Regular" xmlns="http://www.w3.org/2000/svg" xmlns:xlink="http://www.w3.org/1999/xlink" x="0px" y="0px"
	 viewBox="0 0 24 24" style="enable-background:new 0 0 24 24;" xml:space="preserve">
<title>hair-dress-round-brush</title>
<g>
	<path d="M2.239,23.998c-0.598,0-1.159-0.232-1.581-0.653c-0.87-0.872-0.87-2.289-0.001-3.16l6.825-6.827l-0.17-0.17
		c-0.329-0.329-0.51-0.766-0.51-1.231c0-0.465,0.181-0.902,0.51-1.231l0.17-0.17l-0.87-0.87c-0.142-0.141-0.22-0.33-0.22-0.53
		s0.078-0.389,0.22-0.53c0.141-0.142,0.33-0.22,0.53-0.22s0.389,0.078,0.53,0.22l0.87,0.87l1.741-1.741l-0.87-0.87
		c-0.142-0.141-0.22-0.33-0.22-0.53s0.078-0.389,0.22-0.53c0.141-0.142,0.33-0.22,0.53-0.22s0.389,0.078,0.53,0.22l0.87,0.87
		l1.741-1.741l-0.87-0.87c-0.142-0.142-0.22-0.33-0.22-0.53c0-0.2,0.078-0.389,0.22-0.53c0.141-0.142,0.33-0.22,0.53-0.22
		s0.389,0.078,0.53,0.22l0.87,0.87l1.742-1.741l-0.87-0.87c-0.142-0.142-0.22-0.33-0.22-0.53c0-0.2,0.078-0.389,0.22-0.53
		s0.33-0.22,0.53-0.22s0.389,0.078,0.53,0.22l0.87,0.87l0.17-0.17c0.328-0.329,0.766-0.51,1.231-0.51
		c0.465,0,0.902,0.181,1.231,0.51l3.502,3.502c0.329,0.329,0.51,0.766,0.51,1.231c0,0.465-0.181,0.902-0.51,1.231l-0.17,0.17
		l0.87,0.871c0.142,0.142,0.22,0.33,0.22,0.53s-0.078,0.389-0.22,0.53c-0.142,0.142-0.33,0.219-0.53,0.219s-0.389-0.078-0.53-0.22
		l-0.87-0.871l-1.741,1.741l0.871,0.871c0.142,0.141,0.22,0.33,0.22,0.53c0,0.2-0.078,0.389-0.22,0.53
		c-0.142,0.142-0.33,0.22-0.53,0.22s-0.389-0.078-0.53-0.22l-0.871-0.871l-1.741,1.741l0.871,0.871c0.292,0.292,0.292,0.768,0,1.061
		c-0.142,0.142-0.33,0.22-0.53,0.22s-0.389-0.078-0.53-0.22l-0.871-0.871l-1.741,1.741l0.871,0.871c0.292,0.292,0.292,0.768,0,1.061
		c-0.142,0.142-0.33,0.22-0.53,0.22s-0.389-0.078-0.53-0.22l-0.871-0.871l-0.171,0.171c-0.328,0.328-0.766,0.509-1.231,0.509
		s-0.903-0.181-1.231-0.509l-0.171-0.171L3.82,23.344C3.398,23.765,2.836,23.998,2.239,23.998z M1.718,21.244
		c-0.286,0.286-0.286,0.753,0,1.04c0.138,0.138,0.323,0.214,0.52,0.214s0.382-0.076,0.521-0.215l6.823-6.826l-1.039-1.04
		L1.718,21.244z M11.874,15.628c0.045,0.045,0.106,0.07,0.17,0.07c0.065,0,0.125-0.025,0.171-0.071l9.806-9.806
		c0.046-0.046,0.071-0.105,0.071-0.17c0-0.065-0.024-0.124-0.071-0.171L18.52,1.979c-0.046-0.046-0.105-0.071-0.17-0.071
		s-0.124,0.024-0.17,0.071l-3.484,3.484c-0.006,0.007-0.012,0.013-0.018,0.019c-0.006,0.006-0.013,0.013-0.02,0.019l-6.285,6.284
		c-0.046,0.046-0.071,0.105-0.071,0.171s0.024,0.124,0.071,0.171c0,0,2.805,2.805,2.806,2.807L11.874,15.628z"/>
	<path d="M12.378,12.749c-0.299,0-0.581-0.116-0.793-0.327c0,0-0.002-0.001-0.002-0.002c-0.212-0.211-0.33-0.493-0.33-0.793
		c0-0.3,0.116-0.583,0.327-0.796c0,0,0.002-0.001,0.002-0.002c0.212-0.213,0.494-0.33,0.796-0.33c0.299,0,0.581,0.116,0.793,0.327
		c0.004,0.004,0.024,0.025,0.028,0.03c0.022,0.024,0.04,0.047,0.056,0.07c0.351,0.441,0.323,1.074-0.068,1.479
		c-0.002,0.002-0.012,0.012-0.012,0.012c-0.018,0.018-0.036,0.033-0.056,0.048c-0.005,0.005-0.025,0.021-0.025,0.021
		c-0.203,0.169-0.457,0.263-0.715,0.263C12.38,12.749,12.378,12.749,12.378,12.749z"/>
	<path d="M15.198,9.928c-0.3,0-0.581-0.116-0.793-0.327c-0.004-0.004-0.024-0.025-0.028-0.03c-0.02-0.023-0.037-0.043-0.052-0.064
		c-0.165-0.203-0.252-0.445-0.252-0.702c-0.001-0.3,0.116-0.583,0.328-0.795c0,0,0.029-0.028,0.034-0.032
		c0.011-0.01,0.028-0.023,0.043-0.036c0.005-0.004,0.011-0.008,0.017-0.012c0.2-0.162,0.448-0.251,0.701-0.252
		c0.292,0,0.568,0.11,0.778,0.31c0.002,0.002,0.016,0.015,0.02,0.019c0.431,0.43,0.438,1.138,0.015,1.576
		c-0.002,0.003-0.012,0.012-0.012,0.012c-0.017,0.017-0.034,0.032-0.053,0.046c-0.016,0.014-0.028,0.024-0.039,0.032
		C15.702,9.838,15.452,9.928,15.198,9.928z"/>
	<path d="M18.018,7.109c-0.299,0-0.581-0.116-0.793-0.328c-0.006-0.006-0.028-0.029-0.034-0.036
		c-0.016-0.018-0.031-0.038-0.046-0.058c-0.164-0.203-0.251-0.445-0.252-0.701c-0.001-0.3,0.116-0.583,0.328-0.795
		c0.005-0.005,0.026-0.026,0.032-0.031c0.013-0.012,0.029-0.025,0.045-0.037c0.006-0.004,0.012-0.009,0.018-0.013
		c0.2-0.161,0.448-0.25,0.7-0.251c0.302,0,0.584,0.116,0.796,0.328c0,0,0.028,0.029,0.033,0.035c0.018,0.02,0.036,0.043,0.053,0.067
		c0.354,0.448,0.32,1.085-0.083,1.49c-0.002,0.002-0.005,0.005-0.007,0.007c-0.211,0.208-0.49,0.323-0.787,0.324
		C18.02,7.109,18.018,7.109,18.018,7.109z"/>
</g>
</svg>
