<?xml version="1.0" encoding="utf-8"?>
<!-- Generator: Adobe Illustrator 22.1.0, SVG Export Plug-In . SVG Version: 6.00 Build 0)  -->
<svg version="1.1" id="Regular" xmlns="http://www.w3.org/2000/svg" xmlns:xlink="http://www.w3.org/1999/xlink" x="0px" y="0px"
	 viewBox="0 0 24 24" style="enable-background:new 0 0 24 24;" xml:space="preserve">
<title>hair-dress-chair</title>
<g>
	<path d="M7.5,24c-0.414,0-0.75-0.336-0.75-0.75S7.086,22.5,7.5,22.5h3.75v-3H9c-1.183,0-2.289-0.557-2.998-1.5H6
		c-2.068,0-3.75-1.682-3.75-3.75V12H1.5c-0.414,0-0.75-0.336-0.75-0.75S1.086,10.5,1.5,10.5h3c0.414,0,0.75,0.336,0.75,0.75
		S4.914,12,4.5,12H3.75v2.25c0,0.989,0.651,1.843,1.556,2.137C5.269,16.176,5.25,15.963,5.25,15.75C5.25,15.336,5.586,15,6,15h0.75
		V2.75C6.75,1.234,7.984,0,9.5,0h5c1.516,0,2.75,1.234,2.75,2.75V15H18c0.414,0,0.75,0.336,0.75,0.75
		c0,0.213-0.019,0.426-0.056,0.637c0.906-0.295,1.556-1.148,1.556-2.137V12H19.5c-0.414,0-0.75-0.336-0.75-0.75
		s0.336-0.75,0.75-0.75h3c0.414,0,0.75,0.336,0.75,0.75S22.914,12,22.5,12h-0.75v2.25c0,2.068-1.682,3.75-3.75,3.75h-0.002
		c-0.708,0.943-1.814,1.5-2.998,1.5h-2.25v3h3.75c0.414,0,0.75,0.336,0.75,0.75S16.914,24,16.5,24H7.5z M6.879,16.5
		C7.192,17.379,8.038,18,9,18h6c0.962,0,1.808-0.621,2.121-1.5H6.879z M15.75,15V2.75c0-0.689-0.561-1.25-1.25-1.25h-5
		c-0.689,0-1.25,0.561-1.25,1.25V15H15.75z"/>
</g>
</svg>
