<?xml version="1.0" encoding="utf-8"?>
<!-- Generator: Adobe Illustrator 22.1.0, SVG Export Plug-In . SVG Version: 6.00 Build 0)  -->
<svg version="1.1" id="Regular" xmlns="http://www.w3.org/2000/svg" xmlns:xlink="http://www.w3.org/1999/xlink" x="0px" y="0px"
	 viewBox="0 0 24 24" style="enable-background:new 0 0 24 24;" xml:space="preserve">
<title>hair-dress-bobby-pin</title>
<g>
	<path d="M3.83,24c-0.2,0-0.389-0.078-0.53-0.22c-0.142-0.142-0.22-0.33-0.22-0.53s0.078-0.389,0.22-0.53L20.584,5.436
		c0.436-0.436,0.675-1.015,0.675-1.63c0-0.616-0.24-1.195-0.675-1.63S19.569,1.5,18.954,1.5s-1.195,0.24-1.63,0.675l-3.562,3.562
		V8.41c0,0.414-0.336,0.75-0.75,0.75h-2.223v2.161c0,0.414-0.336,0.75-0.75,0.75H7.392l-4.109,4.145
		c-0.142,0.143-0.331,0.222-0.533,0.222c-0.199,0-0.387-0.077-0.528-0.218C2.08,16.08,2.001,15.892,2,15.691
		c-0.001-0.2,0.076-0.389,0.217-0.531l4.329-4.367c0.14-0.141,0.334-0.222,0.533-0.222h2.209V8.41c0-0.414,0.336-0.75,0.75-0.75
		h2.223V5.427c0-0.2,0.078-0.389,0.22-0.53l3.782-3.782C16.981,0.396,17.937,0,18.954,0c1.016,0,1.972,0.396,2.691,1.115
		c0.719,0.719,1.115,1.674,1.115,2.691c0,1.016-0.396,1.972-1.115,2.691L4.36,23.78C4.219,23.922,4.03,24,3.83,24z"/>
</g>
</svg>
