<?xml version="1.0" encoding="utf-8"?>
<!-- Generator: Adobe Illustrator 22.1.0, SVG Export Plug-In . SVG Version: 6.00 Build 0)  -->
<svg version="1.1" id="Regular" xmlns="http://www.w3.org/2000/svg" xmlns:xlink="http://www.w3.org/1999/xlink" x="0px" y="0px"
	 viewBox="0 0 24 24" style="enable-background:new 0 0 24 24;" xml:space="preserve">
<title>halloween-vampire</title>
<g>
	<path d="M21.75,24C21.336,24,21,23.664,21,23.25c0-3.428-1.969-6.568-5.042-8.079l-3.382,4.059C12.433,19.402,12.223,19.5,12,19.5
		c-0.223,0-0.433-0.098-0.576-0.27l-3.382-4.059C4.969,16.682,3,19.822,3,23.25C3,23.664,2.664,24,2.25,24S1.5,23.664,1.5,23.25
		c0-2.997,1.275-5.829,3.509-7.826l-3.374-4.832c-0.227-0.326-0.161-0.773,0.151-1.019C3.101,8.54,4.545,7.668,6.083,6.98
		C6.028,6.651,6,6.322,6,6V2.25C6,1.009,7.009,0,8.25,0h7.5C16.991,0,18,1.009,18,2.25V6c0,0.321-0.028,0.649-0.083,0.978
		c1.54,0.688,2.985,1.56,4.301,2.595c0.313,0.246,0.379,0.693,0.151,1.019l-3.375,4.834c2.232,1.997,3.506,4.828,3.506,7.823
		C22.5,23.664,22.164,24,21.75,24z M12,17.579l2.482-2.979c-0.806-0.232-1.639-0.35-2.482-0.35c-0.844,0-1.676,0.117-2.482,0.35
		L12,17.579z M12,12.75c2.081,0,4.08,0.607,5.806,1.758l2.92-4.183c-1.01-0.735-2.098-1.372-3.243-1.898
		c-0.299,0.681-0.716,1.291-1.242,1.816C15.109,11.376,13.603,12,12.001,12c-1.606,0-3.112-0.625-4.245-1.758
		C7.232,9.717,6.816,9.109,6.517,8.43c-1.143,0.525-2.229,1.161-3.239,1.896l2.919,4.181C7.922,13.356,9.92,12.75,12,12.75z
		 M7.685,7.276c0.211,0.716,0.602,1.375,1.132,1.905c0.85,0.85,1.979,1.318,3.181,1.318c1.204,0,2.334-0.468,3.183-1.317
		c0.85-0.849,1.318-1.979,1.318-3.181V5.273c-0.25-0.046-0.505-0.07-0.759-0.07c-1.221,0-2.376,0.536-3.17,1.47
		C12.429,6.842,12.221,6.938,12,6.938c-0.251-0.007-0.461-0.116-0.599-0.299c-0.702-0.93-1.658-1.364-3.009-1.364
		c-0.278,0-0.577,0.019-0.892,0.057V6c0,0.401,0.056,0.808,0.167,1.21C7.673,7.227,7.68,7.251,7.685,7.276z M8.378,3.776
		c1.493,0,2.718,0.444,3.649,1.319c1.029-0.9,2.334-1.391,3.713-1.391c0.254,0,0.508,0.017,0.76,0.051V2.25
		c0-0.414-0.336-0.75-0.75-0.75h-7.5C7.837,1.5,7.5,1.836,7.5,2.25v1.573C7.804,3.792,8.098,3.776,8.378,3.776z"/>
</g>
</svg>
