<?xml version="1.0" encoding="utf-8"?>
<!-- Generator: Adobe Illustrator 22.1.0, SVG Export Plug-In . SVG Version: 6.00 Build 0)  -->
<svg version="1.1" id="Regular" xmlns="http://www.w3.org/2000/svg" xmlns:xlink="http://www.w3.org/1999/xlink" x="0px" y="0px"
	 viewBox="0 0 24 24" style="enable-background:new 0 0 24 24;" xml:space="preserve">
<title>halloween-cauldron</title>
<g>
	<path d="M21.75,6c-1.241,0-2.25-1.009-2.25-2.25s1.009-2.25,2.25-2.25S24,2.51,24,3.75S22.991,6,21.75,6z M21.75,3
		C21.336,3,21,3.337,21,3.75s0.336,0.75,0.75,0.75s0.75-0.336,0.75-0.75S22.164,3,21.75,3z"/>
	<path d="M16.5,2.659c-0.044,0-0.088-0.004-0.131-0.011c-0.513-0.06-0.922-0.47-0.982-0.983c-0.008-0.042-0.011-0.086-0.011-0.13
		s0.004-0.088,0.011-0.13c0.06-0.513,0.47-0.923,0.982-0.983c0.043-0.008,0.087-0.011,0.131-0.011s0.088,0.004,0.131,0.011
		c0.513,0.06,0.922,0.47,0.983,0.983c0.007,0.042,0.011,0.086,0.011,0.13s-0.004,0.088-0.011,0.13
		c-0.061,0.513-0.47,0.923-0.983,0.983C16.588,2.655,16.544,2.659,16.5,2.659z"/>
	<path d="M3,4.125c-0.044,0-0.088-0.004-0.131-0.012c-0.513-0.06-0.922-0.47-0.982-0.982C1.879,3.088,1.875,3.044,1.875,3
		s0.004-0.088,0.012-0.131c0.06-0.513,0.47-0.922,0.982-0.982C2.912,1.879,2.956,1.875,3,1.875s0.088,0.004,0.131,0.012
		c0.513,0.06,0.922,0.47,0.982,0.982C4.121,2.912,4.125,2.956,4.125,3S4.121,3.088,4.113,3.131c-0.06,0.513-0.47,0.922-0.982,0.982
		C3.088,4.121,3.044,4.125,3,4.125z"/>
	<path d="M9.5,24c-2.77-0.004-5.377-1.357-6.972-3.621c-1.635-2.311-2.041-5.281-1.085-7.946C0.578,12.001,0.012,11.116,0,10.134
		c0.005-1.43,1.149-2.597,2.563-2.633c0.299-2.897,2.349-3.342,3.576-3.342c0.208,0,1.161,0.023,1.994,0.424
		c0.697-1.45,2.268-2.333,4.21-2.333c1.672,0.002,3.215,0.933,4.006,2.394c0.118-0.012,0.237-0.018,0.356-0.018
		c0.08,0,0.16,0.003,0.24,0.008c1.627,0.11,2.942,1.293,3.243,2.866h0.437c1.443,0.005,2.62,1.181,2.625,2.623
		c-0.01,0.991-0.577,1.88-1.443,2.314c0.955,2.665,0.55,5.635-1.086,7.947c-1.596,2.262-4.202,3.614-6.97,3.617
		C13.751,24,9.5,24,9.5,24z M2.625,9C2.007,9.003,1.502,9.508,1.5,10.128c0.006,0.506,0.376,0.953,0.881,1.057
		c0.274,0.057,0.492,0.259,0.569,0.528c0.097,0.338,0.089,0.692-0.023,1.026l-0.068,0.19c-0.795,2.208-0.461,4.67,0.895,6.586
		c1.316,1.867,3.464,2.983,5.748,2.986h4.249c2.282-0.002,4.43-1.117,5.746-2.982c1.356-1.916,1.69-4.378,0.895-6.586l-0.063-0.176
		c-0.116-0.346-0.125-0.704-0.028-1.041c0.077-0.269,0.296-0.471,0.569-0.527c0.505-0.104,0.875-0.554,0.881-1.07
		C21.748,9.506,21.242,9.002,20.623,9h-0.449c-0.18,0.868-0.692,1.645-1.424,2.15v3.1c0,1.654-1.346,3-3,3s-3-1.346-3-3v-3.384
		c0-0.414,0.336-0.75,0.75-0.75s0.75,0.336,0.75,0.75v3.384c0,0.827,0.673,1.5,1.5,1.5s1.5-0.673,1.5-1.5v-3.526
		c0-0.285,0.158-0.542,0.414-0.67c0.651-0.326,1.067-0.982,1.087-1.71l0.001-0.061C18.751,8.272,18.75,8.259,18.75,8.25
		c0-0.016,0.001-0.032,0.003-0.048c0.008-1.09-0.827-1.999-1.908-2.072c-0.046-0.003-0.093-0.005-0.139-0.005
		c-0.197,0-0.392,0.028-0.582,0.084c-0.068,0.021-0.141,0.031-0.213,0.031c-0.312,0-0.594-0.197-0.703-0.491
		c-0.441-1.195-1.592-1.999-2.865-2.001c-1.68,0-2.886,0.87-3.074,2.217C9.224,6.281,8.986,6.535,8.676,6.599
		c-0.049,0.01-0.1,0.016-0.151,0.016c-0.261,0-0.507-0.139-0.642-0.362C7.636,5.843,6.714,5.659,6.139,5.659
		c-1.268,0-1.903,0.556-2.069,1.841h6.43c0.414,0,0.75,0.336,0.75,0.75S10.914,9,10.5,9H2.625z"/>
</g>
</svg>
