<?xml version="1.0" encoding="utf-8"?>
<!-- Generator: Adobe Illustrator 22.1.0, SVG Export Plug-In . SVG Version: 6.00 Build 0)  -->
<svg version="1.1" id="Regular" xmlns="http://www.w3.org/2000/svg" xmlns:xlink="http://www.w3.org/1999/xlink" x="0px" y="0px"
	 viewBox="0 0 24 24" style="enable-background:new 0 0 24 24;" xml:space="preserve">
<title>halloween-calendar-ghost</title>
<g>
	<path d="M10.125,17.985c-0.044,0-0.088-0.004-0.13-0.011c-0.513-0.06-0.923-0.47-0.983-0.982C9.004,16.948,9,16.904,9,16.86
		s0.004-0.088,0.011-0.131c0.06-0.513,0.47-0.922,0.983-0.983c0.042-0.007,0.086-0.011,0.13-0.011s0.088,0.004,0.13,0.011
		c0.513,0.061,0.923,0.47,0.983,0.983c0.008,0.043,0.011,0.087,0.011,0.131s-0.004,0.088-0.011,0.131
		c-0.06,0.513-0.47,0.922-0.983,0.982C10.213,17.981,10.169,17.985,10.125,17.985z"/>
	<path d="M13.875,17.985c-0.044,0-0.088-0.004-0.131-0.011c-0.513-0.06-0.923-0.47-0.983-0.983c-0.007-0.042-0.011-0.086-0.011-0.13
		s0.004-0.088,0.011-0.131c0.06-0.513,0.47-0.923,0.983-0.983c0.042-0.008,0.086-0.011,0.131-0.011s0.088,0.004,0.131,0.011
		c0.513,0.06,0.923,0.47,0.983,0.983C14.996,16.772,15,16.816,15,16.86s-0.004,0.088-0.011,0.131
		c-0.06,0.513-0.47,0.923-0.983,0.983C13.963,17.981,13.919,17.985,13.875,17.985z"/>
	<path d="M20.25,24c-0.414,0-0.75-0.336-0.75-0.75s0.336-0.75,0.75-0.75H21c0.414,0,0.75-0.336,0.75-0.75V10.5H2.25v11.25
		c0,0.414,0.336,0.75,0.75,0.75h0.75c0.414,0,0.75,0.336,0.75,0.75S4.164,24,3.75,24H3c-1.241,0-2.25-1.009-2.25-2.25V5.25
		C0.75,4.009,1.759,3,3,3h3.75V0.75C6.75,0.336,7.086,0,7.5,0s0.75,0.336,0.75,0.75V3h7.5V0.75C15.75,0.336,16.086,0,16.5,0
		s0.75,0.336,0.75,0.75V3H21c1.241,0,2.25,1.009,2.25,2.25v16.5c0,1.241-1.009,2.25-2.25,2.25H20.25z M21.75,9V5.25
		c0-0.414-0.336-0.75-0.75-0.75h-3.75V6c0,0.414-0.336,0.75-0.75,0.75S15.75,6.414,15.75,6V4.5h-7.5V6c0,0.414-0.336,0.75-0.75,0.75
		S6.75,6.414,6.75,6V4.5H3c-0.414,0-0.75,0.336-0.75,0.75V9H21.75z"/>
	<path d="M12,23.893c-0.385,0-0.75-0.145-1.028-0.408l-1.165-0.949c-0.02-0.017-0.04-0.034-0.059-0.053L9.31,22.925
		c-0.283,0.282-0.659,0.438-1.06,0.439c-0.402,0-0.778-0.157-1.062-0.44C6.906,22.64,6.75,22.264,6.75,21.865v-4.629
		c0-2.895,2.355-5.25,5.25-5.25c2.895,0,5.25,2.355,5.25,5.25v4.629c0,0.401-0.156,0.778-0.44,1.061
		c-0.283,0.283-0.659,0.438-1.06,0.438c-0.395,0-0.781-0.16-1.06-0.438l-0.44-0.439c-0.019,0.018-0.037,0.035-0.055,0.049
		l-1.167,0.95C12.749,23.749,12.385,23.893,12,23.893z M11.944,22.343c0.02,0.016,0.039,0.033,0.057,0.051
		c0.015-0.016,0.036-0.035,0.058-0.053l1.164-0.948c0.28-0.263,0.644-0.408,1.028-0.408c0.402,0,0.778,0.156,1.061,0.44l0.439,0.438
		l0-4.628c0-2.068-1.682-3.75-3.75-3.75c-2.068,0-3.75,1.682-3.75,3.75v4.629l0.44-0.44c0.283-0.283,0.66-0.439,1.06-0.439h0.001
		c0.385,0,0.749,0.145,1.028,0.408L11.944,22.343z"/>
</g>
</svg>
