<?xml version="1.0" encoding="utf-8"?>
<!-- Generator: Adobe Illustrator 22.1.0, SVG Export Plug-In . SVG Version: 6.00 Build 0)  -->
<svg version="1.1" id="Regular" xmlns="http://www.w3.org/2000/svg" xmlns:xlink="http://www.w3.org/1999/xlink" x="0px" y="0px"
	 viewBox="0 0 24 24" style="enable-background:new 0 0 24 24;" xml:space="preserve">
<title>halloween-voodoo-doll</title>
<g>
	<path d="M8.675,22.501c-0.592,0-1.149-0.231-1.568-0.649c-0.865-0.865-0.865-2.271,0-3.135l2.421-2.421
		c0.071-0.075,0.068-0.213-0.014-0.3c-0.043-0.045-0.098-0.07-0.16-0.072c-0.037,0.001-0.11,0.012-0.164,0.063l-2.406,2.406
		c-0.418,0.418-0.975,0.649-1.568,0.649s-1.15-0.23-1.568-0.649c-0.864-0.865-0.864-2.271,0-3.135l4.085-4.085L5.012,9.818
		c-0.55,0.499-1.269,0.78-2.012,0.78c-1.654,0-3-1.346-3-3s1.346-3,3-3s3,1.346,3,3c0,0.328-0.053,0.648-0.159,0.957l3.01,1.498
		l0.33-0.33c0.135-0.135,0.21-0.315,0.21-0.507s-0.074-0.372-0.21-0.507l-2.075-2.08C6.313,5.768,6.309,4.442,7.089,3.6
		C7.491,3.165,8.038,2.913,8.63,2.89c0.03-0.001,0.062-0.002,0.093-0.002c0.555,0,1.088,0.209,1.499,0.59l2.607,2.606
		c0.263-1.404,1.035-2.638,2.19-3.492c0.979-0.724,2.135-1.107,3.344-1.107c0.281,0,0.566,0.021,0.846,0.063
		c1.488,0.223,2.802,1.013,3.698,2.226s1.268,2.7,1.045,4.188c-0.359,2.397-2.209,4.271-4.535,4.709l2.542,2.542
		c0.016,0.014,0.032,0.028,0.047,0.043c0.419,0.419,0.649,0.976,0.649,1.568c0,0.592-0.231,1.149-0.649,1.568
		c-0.418,0.418-0.975,0.649-1.568,0.649c0,0,0,0,0,0c-0.593,0-1.149-0.23-1.568-0.649l-2.078-2.074
		c-0.136-0.136-0.316-0.211-0.508-0.211c-0.192,0-0.372,0.075-0.507,0.21l-5.534,5.534C9.824,22.27,9.267,22.501,8.675,22.501z
		 M9.399,14.424c0.457,0.012,0.886,0.204,1.204,0.54c0.631,0.666,0.631,1.71,0,2.377l-2.435,2.436
		c-0.135,0.135-0.209,0.315-0.209,0.507c0,0.192,0.074,0.372,0.209,0.507S8.483,21,8.675,21s0.372-0.074,0.507-0.209l5.534-5.534
		c0.418-0.418,0.975-0.649,1.568-0.649c0.593,0,1.149,0.23,1.567,0.648l2.079,2.075c0.135,0.135,0.316,0.21,0.508,0.21
		c0.192,0,0.372-0.074,0.507-0.209c0.266-0.266,0.278-0.702,0.03-0.982c-0.012-0.01-0.023-0.021-0.034-0.032l-3.823-3.823
		c-0.229-0.229-0.286-0.578-0.14-0.868c0.127-0.251,0.389-0.413,0.669-0.413c0.038,0,0.075,0.003,0.113,0.009
		c0.201,0.03,0.408,0.045,0.613,0.045c2.033,0,3.793-1.517,4.094-3.528c0.338-2.258-1.224-4.37-3.482-4.708
		c-0.207-0.031-0.416-0.047-0.623-0.047c-0.885,0-1.734,0.281-2.453,0.813c-0.889,0.658-1.469,1.622-1.633,2.716
		c-0.061,0.407-0.061,0.819,0,1.226c0.048,0.321-0.115,0.635-0.404,0.781c-0.104,0.052-0.221,0.08-0.338,0.08
		c-0.2,0-0.389-0.078-0.53-0.22L9.182,4.558c-0.115-0.106-0.284-0.17-0.465-0.17L8.688,4.389C8.497,4.396,8.32,4.478,8.19,4.618
		c-0.252,0.272-0.252,0.7-0.001,0.973l2.054,2.057c0.418,0.418,0.649,0.975,0.649,1.567c0,0.58-0.221,1.127-0.624,1.542l2.066,1.028
		c0.179,0.089,0.313,0.243,0.377,0.433c0.064,0.19,0.05,0.393-0.04,0.573c-0.127,0.256-0.385,0.416-0.672,0.416
		c-0.116,0-0.232-0.027-0.335-0.079L9.15,11.876l-4.441,4.441c-0.28,0.28-0.28,0.735,0,1.014c0.135,0.135,0.315,0.209,0.507,0.209
		s0.372-0.074,0.507-0.209l2.421-2.421c0.335-0.317,0.759-0.488,1.202-0.488L9.399,14.424z M3.001,6.098c-0.827,0-1.5,0.673-1.5,1.5
		s0.673,1.5,1.5,1.5s1.5-0.673,1.5-1.5S3.828,6.098,3.001,6.098z"/>
	<path d="M16.876,6.849c-0.62,0-1.125-0.505-1.125-1.125c0-0.572,0.426-1.048,0.994-1.115c0.043-0.008,0.087-0.011,0.131-0.011
		c0.044,0,0.088,0.004,0.131,0.012c0.513,0.06,0.922,0.47,0.983,0.983c0.007,0.042,0.011,0.086,0.011,0.13s-0.004,0.088-0.011,0.13
		c-0.06,0.509-0.466,0.918-0.974,0.982C16.968,6.845,16.921,6.849,16.876,6.849z"/>
	<path d="M19.876,9.098c-0.044,0-0.088-0.004-0.131-0.011c-0.513-0.06-0.922-0.47-0.982-0.983c-0.008-0.042-0.011-0.086-0.011-0.13
		s0.004-0.088,0.011-0.13c0.066-0.568,0.542-0.995,1.114-0.995c0.046,0,0.093,0.005,0.139,0.013
		c0.507,0.064,0.913,0.471,0.974,0.979c0.008,0.044,0.012,0.088,0.012,0.132c0,0.045-0.004,0.09-0.012,0.133
		c-0.062,0.512-0.47,0.92-0.982,0.98C19.964,9.094,19.92,9.098,19.876,9.098z"/>
</g>
</svg>
