<?xml version="1.0" encoding="utf-8"?>
<!-- Generator: Adobe Illustrator 22.1.0, SVG Export Plug-In . SVG Version: 6.00 Build 0)  -->
<svg version="1.1" id="Regular" xmlns="http://www.w3.org/2000/svg" xmlns:xlink="http://www.w3.org/1999/xlink" x="0px" y="0px"
	 viewBox="0 0 24 24" style="enable-background:new 0 0 24 24;" xml:space="preserve">
<title>halloween-spider</title>
<g>
	<path d="M12,24c-2.895,0-5.25-2.019-5.25-4.5c0-0.324,0.043-0.653,0.129-0.979c-0.458-0.38-0.86-0.818-1.2-1.308
		c-0.541,0.197-0.969,0.615-1.178,1.152l-0.137,0.299c-0.123,0.264-0.39,0.435-0.681,0.435c-0.109,0-0.216-0.023-0.315-0.07
		c-0.375-0.175-0.539-0.622-0.365-0.997l0.119-0.256c0.327-0.843,0.992-1.524,1.843-1.893c-0.264-0.661-0.416-1.351-0.455-2.059
		c-0.009,0-0.018,0-0.028,0c-0.403,0-0.784,0.201-1.018,0.538c-0.011,0.016-0.024,0.033-0.037,0.049l-0.693,0.841
		c-0.143,0.174-0.354,0.273-0.579,0.273c-0.174,0-0.343-0.061-0.477-0.171c-0.154-0.127-0.25-0.307-0.269-0.507
		c-0.019-0.199,0.04-0.395,0.168-0.549l0.676-0.82c0.513-0.718,1.343-1.147,2.224-1.147c0.049,0,0.098,0.001,0.147,0.004
		c0.134-0.671,0.377-1.314,0.725-1.919l-0.379-0.328C4.731,9.863,4.455,9.75,4.156,9.75c-0.319,0.007-0.6,0.13-0.807,0.347
		c-0.023,0.025-0.036,0.037-0.048,0.049l-1.284,1.217c-0.14,0.133-0.323,0.206-0.516,0.206c-0.205,0-0.403-0.085-0.544-0.234
		c-0.285-0.3-0.272-0.776,0.028-1.06l1.293-1.227C2.75,8.553,3.403,8.265,4.105,8.25l0.051,0c0.684,0,1.331,0.259,1.822,0.73
		l0.259,0.224C7.5,7.826,9.292,6.961,11.25,6.784V0.75C11.25,0.336,11.586,0,12,0s0.75,0.336,0.75,0.75v6.034
		c1.958,0.177,3.75,1.042,5.014,2.418l0.286-0.248c0.468-0.45,1.111-0.704,1.797-0.704l0.047,0c0.703,0.015,1.356,0.302,1.841,0.809
		l1.281,1.216c0.3,0.284,0.312,0.76,0.028,1.06c-0.141,0.149-0.339,0.234-0.544,0.234c-0.193,0-0.376-0.073-0.516-0.206
		l-1.285-1.218l-0.036-0.036c-0.218-0.228-0.495-0.353-0.8-0.359c0,0-0.001,0-0.001,0c-0.319,0-0.589,0.108-0.802,0.313
		l-0.406,0.352c0.349,0.607,0.592,1.251,0.726,1.923c0.048-0.002,0.096-0.004,0.144-0.004c0.896,0,1.707,0.417,2.227,1.144
		l0.676,0.82c0.127,0.155,0.187,0.35,0.168,0.549s-0.115,0.379-0.27,0.507c-0.134,0.11-0.303,0.171-0.477,0.171
		c-0.225,0-0.436-0.1-0.579-0.273l-0.694-0.842c-0.012-0.015-0.027-0.033-0.04-0.052c-0.231-0.332-0.612-0.532-1.017-0.532
		c-0.01,0-0.019,0-0.028,0c-0.04,0.709-0.193,1.398-0.456,2.057c0.854,0.372,1.521,1.063,1.862,1.937l0.1,0.212
		c0.175,0.376,0.011,0.823-0.364,0.997c-0.101,0.046-0.207,0.07-0.316,0.07c-0.291,0-0.558-0.17-0.68-0.434l-0.119-0.256
		c-0.228-0.581-0.65-0.997-1.198-1.196c-0.34,0.489-0.742,0.927-1.199,1.306c0.086,0.327,0.13,0.656,0.13,0.981
		C17.25,21.981,14.895,24,12,24z M12,16.5c-2.068,0-3.75,1.346-3.75,3s1.682,3,3.75,3c2.068,0,3.75-1.346,3.75-3
		S14.068,16.5,12,16.5z M12,8.25c-3.195,0-5.827,2.206-5.992,5.022C6.003,13.364,6,13.456,6,13.549
		c0.02,1.35,0.582,2.629,1.554,3.565C8.511,15.8,10.172,15,12,15c1.827,0,3.488,0.799,4.444,2.113
		c0.974-0.936,1.536-2.218,1.556-3.577C18,10.623,15.308,8.25,12,8.25z"/>
	<path d="M10.164,20.25c-0.018,0-0.055-0.003-0.077-0.006c-0.003,0-0.042-0.004-0.058-0.007c-0.509-0.065-0.902-0.46-0.966-0.968
		c-0.009-0.044-0.013-0.088-0.014-0.131C9.04,18.522,9.532,18.012,10.147,18c0.002,0,0.021,0,0.024,0
		c0.029,0.001,0.048,0.002,0.066,0.005c0.021,0.002,0.039,0.004,0.057,0.007c0.535,0.066,0.942,0.499,0.976,1.036
		c0.003,0.022,0.005,0.042,0.005,0.063c0,0.004,0,0.018,0,0.02c0,0.026-0.002,0.047-0.005,0.068
		c-0.033,0.536-0.438,0.969-0.971,1.038c-0.021,0.003-0.042,0.006-0.063,0.008c-0.011,0.002-0.034,0.005-0.057,0.005
		c-0.003,0-0.006,0-0.009,0H10.164z"/>
	<path d="M13.837,20.25c-0.02,0-0.07-0.004-0.09-0.007c-0.007-0.001-0.031-0.003-0.031-0.003c-0.54-0.062-0.953-0.497-0.987-1.038
		c-0.003-0.022-0.005-0.042-0.005-0.062c0-0.004,0-0.018,0-0.02c0-0.031,0.003-0.053,0.006-0.076
		c0.026-0.563,0.506-1.031,1.091-1.043c0.002,0,0.02,0,0.022,0c0.032,0,0.055,0.003,0.078,0.007
		c0.017,0.001,0.033,0.003,0.049,0.006c0.505,0.065,0.908,0.472,0.968,0.977c0.008,0.042,0.012,0.084,0.012,0.126
		c0.008,0.569-0.412,1.049-0.979,1.121c-0.016,0.003-0.052,0.007-0.056,0.007c-0.018,0.002-0.048,0.005-0.063,0.006
		c-0.003,0-0.005,0-0.008,0H13.837z"/>
</g>
</svg>
