<?xml version="1.0" encoding="utf-8"?>
<!-- Generator: Adobe Illustrator 22.1.0, SVG Export Plug-In . SVG Version: 6.00 Build 0)  -->
<svg version="1.1" id="Regular" xmlns="http://www.w3.org/2000/svg" xmlns:xlink="http://www.w3.org/1999/xlink" x="0px" y="0px"
	 viewBox="0 0 24 24" style="enable-background:new 0 0 24 24;" xml:space="preserve">
<title>halloween-graveyard</title>
<g>
	<path d="M4.501,6.999c-0.14,0-0.277-0.039-0.396-0.113C3.47,6.492,2.782,6.195,2.059,6.005C1.66,5.899,1.42,5.488,1.525,5.088
		C1.612,4.759,1.91,4.529,2.25,4.529c0.064,0,0.129,0.008,0.191,0.025C3.16,4.743,3.851,5.021,4.501,5.38
		C5.15,5.021,5.841,4.743,6.559,4.554c0.062-0.016,0.127-0.025,0.191-0.025c0.34,0,0.638,0.23,0.725,0.559
		c0.105,0.4-0.134,0.811-0.534,0.917c-0.723,0.19-1.411,0.487-2.045,0.882C4.778,6.96,4.641,6.999,4.501,6.999z"/>
	<path d="M8.988,2.249c-0.13,0-0.259-0.034-0.372-0.099C8.282,1.96,7.923,1.818,7.55,1.729C7.148,1.633,6.899,1.227,6.995,0.825
		c0.081-0.339,0.381-0.576,0.729-0.576c0.059,0,0.118,0.007,0.175,0.021c0.375,0.09,0.74,0.219,1.088,0.384
		C9.336,0.489,9.702,0.36,10.077,0.27c0.056-0.014,0.116-0.021,0.176-0.021c0.348,0,0.647,0.237,0.728,0.576
		c0.047,0.195,0.015,0.396-0.09,0.567c-0.105,0.171-0.27,0.291-0.465,0.337C10.052,1.818,9.693,1.96,9.359,2.151
		C9.246,2.215,9.117,2.249,8.988,2.249z"/>
	<path d="M6.925,18.897c-0.348,0-0.648-0.237-0.729-0.575l-0.524-2.188l-0.729,0.175c-0.057,0.014-0.116,0.021-0.175,0.021
		c-0.348,0-0.648-0.237-0.729-0.575c-0.096-0.402,0.152-0.807,0.554-0.904l0.73-0.175l-0.175-0.729
		c-0.096-0.402,0.153-0.807,0.555-0.904c0.057-0.014,0.116-0.021,0.176-0.021c0.348,0,0.647,0.237,0.729,0.576l0.174,0.729
		l0.729-0.175c0.057-0.014,0.116-0.021,0.176-0.021c0.348,0,0.647,0.237,0.728,0.576c0.047,0.195,0.015,0.396-0.09,0.567
		c-0.105,0.171-0.27,0.291-0.464,0.337l-0.73,0.175l0.524,2.188c0.096,0.402-0.153,0.807-0.555,0.904
		C7.044,18.89,6.985,18.897,6.925,18.897z"/>
	<path d="M3.332,23.485c-0.062,0-0.125-0.008-0.186-0.023c-0.196-0.05-0.365-0.179-0.465-0.354c-0.396-0.69-1.137-1.121-1.933-1.123
		c-0.414-0.001-0.749-0.339-0.748-0.752c0.001-0.412,0.338-0.748,0.75-0.748c0.486,0.001,0.96,0.097,1.404,0.281l-1.207-5.045
		c-0.673-2.815,1.069-5.653,3.884-6.327C5.236,9.298,5.65,9.249,6.062,9.249c0.962,0,1.909,0.269,2.737,0.777
		c1.195,0.734,2.033,1.889,2.36,3.252l1.656,6.812c0.032,0.015,0.064,0.03,0.095,0.045c0.646-0.617,1.636-1.126,2.841-1.459v-7.177
		h-1.75c-0.681,0-1.242-0.554-1.25-1.235V8.243c0.008-0.688,0.569-1.244,1.25-1.244h1.75V5.243c0.008-0.688,0.569-1.244,1.25-1.244
		h2c0.681,0,1.242,0.554,1.25,1.235v1.765h1.75c0.681,0,1.242,0.554,1.25,1.235v2.021c-0.008,0.688-0.569,1.244-1.25,1.244h-1.75
		v6.782c1.117,0.091,2.214,0.338,3.266,0.738c0.187,0.071,0.336,0.211,0.418,0.394c0.082,0.183,0.088,0.386,0.017,0.574
		c-0.11,0.289-0.392,0.484-0.702,0.484l0,0c-0.091,0-0.181-0.016-0.266-0.049c-1.191-0.452-2.436-0.682-3.702-0.682l-0.147,0.001
		c-2.48,0-4.769,0.75-5.448,1.782c-0.114,0.174-0.297,0.293-0.503,0.328c-0.041,0.007-0.083,0.01-0.124,0.01
		c-0.165,0-0.328-0.056-0.459-0.156c-0.392-0.303-0.86-0.463-1.355-0.463c-0.695,0-1.336,0.313-1.759,0.86
		c-0.163,0.211-0.286,0.446-0.364,0.7c-0.066,0.213-0.222,0.385-0.429,0.471c-0.093,0.038-0.189,0.057-0.287,0.057
		c-0.121,0-0.241-0.03-0.348-0.085c-0.628-0.33-1.335-0.504-2.048-0.504H5.972c-0.793,0-1.57,0.219-2.249,0.635
		C3.605,23.447,3.47,23.485,3.332,23.485z M6.061,10.749c-0.294,0-0.591,0.035-0.88,0.105c-2.011,0.481-3.255,2.509-2.774,4.519
		l1.496,6.252c0.659-0.252,1.36-0.385,2.05-0.385c0,0,0.053,0,0.053,0c0.69,0,1.377,0.122,2.019,0.354
		c0.083-0.142,0.175-0.279,0.276-0.41c0.696-0.9,1.745-1.422,2.886-1.439l-1.486-6.115c-0.234-0.976-0.832-1.802-1.686-2.326
		C7.423,10.941,6.747,10.749,6.061,10.749z M16.501,9.999c0.414,0,0.75,0.336,0.75,0.75v7.62c0.491-0.069,0.993-0.11,1.5-0.124
		v-7.496c0-0.414,0.336-0.75,0.75-0.75h2.25v-1.5h-2.25c-0.414,0-0.75-0.336-0.75-0.75v-2.25h-1.5v2.25
		c0,0.414-0.336,0.75-0.75,0.75h-2.25v1.5H16.501z"/>
</g>
</svg>
