<?xml version="1.0" encoding="utf-8"?>
<!-- Generator: Adobe Illustrator 22.1.0, SVG Export Plug-In . SVG Version: 6.00 Build 0)  -->
<svg version="1.1" id="Layer_1" xmlns="http://www.w3.org/2000/svg" xmlns:xlink="http://www.w3.org/1999/xlink" x="0px" y="0px"
	 viewBox="0 0 24 24" style="enable-background:new 0 0 24 24;" xml:space="preserve">
<title>hardware-nut</title>
<g>
	<path d="M6.9,22.5c-0.829,0-1.589-0.454-1.981-1.184l-4.442-8.25c-0.359-0.668-0.359-1.465,0-2.133l4.442-8.25
		C5.312,1.953,6.071,1.5,6.9,1.5h10.2c0.829,0,1.588,0.453,1.981,1.183l4.442,8.25c0.36,0.668,0.36,1.465,0,2.133l-4.442,8.25
		C18.689,22.046,17.93,22.5,17.1,22.5H6.9z M6.9,3C6.624,3,6.371,3.151,6.24,3.394l-4.442,8.25c-0.12,0.223-0.12,0.489,0,0.711
		l4.442,8.25C6.371,20.849,6.624,21,6.9,21h10.2c0.276,0,0.529-0.151,0.66-0.395l4.443-8.25c0.12-0.223,0.12-0.488,0-0.711
		l-4.442-8.25C17.63,3.151,17.377,3,17.101,3H6.9z"/>
	<path d="M12,18c-3.308,0-6-2.692-6-6s2.692-6,6-6s6,2.692,6,6S15.309,18,12,18z M12,7.5c-2.481,0-4.5,2.019-4.5,4.5
		c0,2.481,2.019,4.5,4.5,4.5c2.481,0,4.5-2.019,4.5-4.5C16.5,9.519,14.481,7.5,12,7.5z"/>
</g>
</svg>
