<?xml version="1.0" encoding="utf-8"?>
<!-- Generator: Adobe Illustrator 22.1.0, SVG Export Plug-In . SVG Version: 6.00 Build 0)  -->
<svg version="1.1" id="Layer_1" xmlns="http://www.w3.org/2000/svg" xmlns:xlink="http://www.w3.org/1999/xlink" x="0px" y="0px"
	 viewBox="0 0 24 24" style="enable-background:new 0 0 24 24;" xml:space="preserve">
<title>hardware-nails</title>
<g>
	<path d="M5.249,21c-0.286,0-0.543-0.159-0.671-0.414l-1.5-3c-0.052-0.104-0.079-0.219-0.079-0.335V4.5h-0.75
		c-1.241,0-2.25-1.009-2.25-2.25S1.008,0,2.249,0h6c1.241,0,2.25,1.009,2.25,2.25S9.489,4.5,8.249,4.5h-0.75v12.75
		c0,0.116-0.027,0.232-0.079,0.335l-1.5,3C5.791,20.841,5.534,21,5.249,21z M5.249,18.573l0.75-1.5V4.5h-1.5v12.573L5.249,18.573z
		 M2.249,1.5c-0.414,0-0.75,0.336-0.75,0.75S1.835,3,2.249,3h6c0.414,0,0.75-0.336,0.75-0.75S8.662,1.5,8.249,1.5H2.249z"/>
	<path d="M9.626,24c-0.141,0-0.279-0.04-0.399-0.115c-0.242-0.153-0.375-0.424-0.347-0.708l0.328-3.338
		c0.011-0.115,0.049-0.227,0.111-0.325l6.787-10.792l-0.637-0.4C14.959,8,14.606,7.501,14.472,6.914
		c-0.133-0.587-0.03-1.19,0.291-1.698c0.414-0.658,1.127-1.051,1.907-1.051c0.424,0,0.838,0.12,1.197,0.346l5.081,3.193
		c1.051,0.662,1.367,2.054,0.706,3.105c-0.415,0.658-1.128,1.051-1.908,1.051c-0.424,0-0.837-0.12-1.197-0.346l-0.635-0.399
		l-6.788,10.793c-0.062,0.098-0.146,0.181-0.245,0.242l-2.867,1.741C9.898,23.962,9.763,24,9.626,24z M10.519,21.83l1.433-0.87
		l6.693-10.642l-1.27-0.798l-6.693,10.642L10.519,21.83z M21.349,10.245c0.12,0.075,0.257,0.115,0.398,0.115
		c0.261,0,0.499-0.131,0.637-0.35c0.221-0.35,0.115-0.815-0.235-1.036l-5.081-3.193c-0.12-0.076-0.258-0.116-0.399-0.116
		c-0.261,0-0.499,0.131-0.637,0.35c-0.107,0.17-0.142,0.371-0.097,0.567c0.044,0.196,0.162,0.362,0.332,0.469l1.241,0.78
		c0.01,0.005,0.021,0.011,0.029,0.016l2.541,1.599c0.008,0.005,0.017,0.011,0.025,0.018l1.239,0.778
		C21.346,10.243,21.348,10.244,21.349,10.245z"/>
</g>
</svg>
