<?xml version="1.0" encoding="utf-8"?>
<!-- Generator: Adobe Illustrator 22.1.0, SVG Export Plug-In . SVG Version: 6.00 Build 0)  -->
<svg version="1.1" id="Layer_1" xmlns="http://www.w3.org/2000/svg" xmlns:xlink="http://www.w3.org/1999/xlink" x="0px" y="0px"
	 viewBox="0 0 24 24" style="enable-background:new 0 0 24 24;" xml:space="preserve">
<title>hardware-nuts</title>
<g>
	<path d="M5.75,15c-0.756,0-1.456-0.375-1.874-1.002l-3.5-5.25c-0.505-0.758-0.505-1.738,0-2.496l3.5-5.25
		C4.294,0.375,4.994,0,5.748,0h5.896c0.753,0,1.453,0.375,1.872,1.002l3.5,5.25c0.505,0.758,0.505,1.738,0,2.496l-3.5,5.25
		C13.098,14.625,12.398,15,11.644,15H5.75z M5.749,1.5c-0.252,0-0.485,0.125-0.625,0.334l-3.5,5.25
		c-0.168,0.253-0.168,0.579,0,0.832l3.5,5.25C5.264,13.375,5.497,13.5,5.748,13.5h5.896c0.251,0,0.484-0.125,0.624-0.334l3.5-5.25
		c0.168-0.253,0.168-0.579,0-0.832l-3.5-5.25C12.129,1.625,11.895,1.5,11.644,1.5H5.749z"/>
	<path d="M8.697,10.5c-1.654,0-3-1.346-3-3s1.346-3,3-3s3,1.346,3,3S10.351,10.5,8.697,10.5z M8.697,6c-0.827,0-1.5,0.673-1.5,1.5
		S7.87,9,8.697,9s1.5-0.673,1.5-1.5S9.524,6,8.697,6z"/>
	<path d="M12.355,24c-0.754,0-1.454-0.375-1.872-1.002l-3.5-5.25c-0.229-0.344-0.136-0.811,0.208-1.04
		c0.123-0.083,0.267-0.126,0.416-0.126c0.251,0,0.485,0.125,0.624,0.334l3.5,5.25c0.139,0.209,0.373,0.334,0.624,0.334h5.895
		c0.251,0,0.485-0.125,0.624-0.334l3.5-5.25c0.168-0.253,0.168-0.579,0-0.832l-3.5-5.25c-0.139-0.209-0.373-0.334-0.624-0.334
		c-0.414,0-0.75-0.336-0.75-0.75S17.837,9,18.25,9c0.753,0,1.453,0.375,1.872,1.002l3.5,5.25c0.505,0.758,0.505,1.738,0,2.496
		l-3.5,5.25C19.704,23.625,19.004,24,18.25,24H12.355z"/>
	<path d="M15.3,19.5c-1.654,0-3-1.346-3-3c0-0.414,0.336-0.75,0.75-0.75s0.75,0.336,0.75,0.75c0,0.827,0.673,1.5,1.5,1.5
		s1.5-0.673,1.5-1.5S16.127,15,15.3,15c-0.414,0-0.75-0.336-0.75-0.75s0.336-0.75,0.75-0.75c1.654,0,3,1.346,3,3
		S16.954,19.5,15.3,19.5z"/>
</g>
</svg>
