<?xml version="1.0" encoding="utf-8"?>
<!-- Generator: Adobe Illustrator 22.1.0, SVG Export Plug-In . SVG Version: 6.00 Build 0)  -->
<svg version="1.1" id="Layer_1" xmlns="http://www.w3.org/2000/svg" xmlns:xlink="http://www.w3.org/1999/xlink" x="0px" y="0px"
	 viewBox="0 0 24 24" style="enable-background:new 0 0 24 24;" xml:space="preserve">
<title>hardware-hammer-nail</title>
<g>
	<path d="M0.751,20.7c-0.2,0-0.389-0.078-0.53-0.22c-0.292-0.292-0.292-0.768,0-1.061l9.016-9.016L8.175,9.342l-6.895,6.894
		c-0.142,0.142-0.33,0.22-0.53,0.22s-0.389-0.078-0.53-0.22c-0.292-0.292-0.292-0.768,0-1.061l7.057-7.057L5.462,4.124
		c-0.5-1.1-0.262-2.413,0.593-3.267c0.541-0.541,1.294-0.851,2.066-0.851c0.418,0,0.822,0.087,1.2,0.259l4.469,2.031
		c0.083,0.038,0.157,0.089,0.22,0.153l4.242,4.243c0.877,0.877,0.877,2.304,0,3.182l-3.182,3.182
		c-0.424,0.425-0.99,0.658-1.591,0.658c-0.601,0-1.166-0.233-1.59-0.657l-1.592-1.592L1.281,20.48
		C1.139,20.621,0.951,20.7,0.751,20.7z M12.948,11.994c0.142,0.141,0.33,0.219,0.531,0.219s0.389-0.078,0.531-0.219l3.182-3.182
		c0.292-0.292,0.292-0.768,0-1.06l-4.147-4.147L8.7,1.63C8.518,1.547,8.322,1.505,8.119,1.505c-0.376,0-0.742,0.15-1.005,0.413
		C6.7,2.332,6.584,2.969,6.827,3.503l1.975,4.345L12.948,11.994z"/>
	<path d="M20.251,24.003c-0.414,0-0.75-0.336-0.75-0.75v-3.75h-2.25c-0.414,0-0.75-0.336-0.75-0.75s0.336-0.75,0.75-0.75h6
		c0.414,0,0.75,0.336,0.75,0.75s-0.336,0.75-0.75,0.75h-2.25v3.75C21.001,23.667,20.664,24.003,20.251,24.003z"/>
</g>
</svg>
