<?xml version="1.0" encoding="utf-8"?>
<!-- Generator: Adobe Illustrator 22.1.0, SVG Export Plug-In . SVG Version: 6.00 Build 0)  -->
<svg version="1.1" id="Layer_1" xmlns="http://www.w3.org/2000/svg" xmlns:xlink="http://www.w3.org/1999/xlink" x="0px" y="0px"
	 viewBox="0 0 24 24" style="enable-background:new 0 0 24 24;" xml:space="preserve">
<title>hardware-hammer-nail-hit</title>
<g>
	<path d="M13.499,15c-1.241,0-2.25-1.009-2.25-2.25V10.5h-9.75c-0.414,0-0.75-0.336-0.75-0.75S1.086,9,1.499,9h9.75V7.5h-9.75
		c-0.414,0-0.75-0.336-0.75-0.75S1.086,6,1.499,6h9.98l1.541-4.113C13.447,0.758,14.543,0,15.748,0c1.209,0,2.305,0.76,2.73,1.89
		l1.723,4.597c0.032,0.084,0.048,0.172,0.048,0.263v6c0,1.241-1.009,2.25-2.25,2.25H13.499z M12.749,12.75
		c0,0.414,0.336,0.75,0.75,0.75h4.5c0.414,0,0.75-0.336,0.75-0.75V6.886l-1.675-4.468C16.868,1.869,16.336,1.5,15.749,1.5l0-0.375
		V1.5c-0.585,0-1.118,0.368-1.325,0.915l-1.675,4.47V12.75z"/>
	<path d="M15.749,24c-0.414,0-0.75-0.336-0.75-0.75V19.5h-1.5c-0.414,0-0.75-0.336-0.75-0.75S13.086,18,13.499,18h4.5
		c0.414,0,0.75,0.336,0.75,0.75s-0.336,0.75-0.75,0.75h-1.5v3.75C16.499,23.664,16.163,24,15.749,24z"/>
	<path d="M20.999,18c-0.2,0-0.389-0.078-0.53-0.22c-0.292-0.292-0.292-0.768,0-1.061l1.5-1.5c0.142-0.142,0.33-0.22,0.53-0.22
		s0.389,0.078,0.53,0.22c0.292,0.292,0.292,0.768,0,1.061l-1.5,1.5C21.388,17.922,21.2,18,20.999,18z"/>
	<path d="M22.499,22.5c-0.2,0-0.389-0.078-0.53-0.22l-1.5-1.5c-0.292-0.292-0.292-0.768,0-1.061c0.142-0.142,0.33-0.22,0.53-0.22
		s0.389,0.078,0.53,0.22l1.5,1.5c0.292,0.292,0.292,0.768,0,1.061C22.888,22.422,22.7,22.5,22.499,22.5z"/>
	<path d="M10.499,18c-0.2,0-0.389-0.078-0.53-0.22l-1.5-1.5c-0.292-0.292-0.292-0.768,0-1.061C8.611,15.078,8.799,15,8.999,15
		s0.389,0.078,0.53,0.22l1.5,1.5c0.292,0.292,0.292,0.768,0,1.061C10.888,17.922,10.7,18,10.499,18z"/>
	<path d="M8.999,22.5c-0.2,0-0.389-0.078-0.53-0.22c-0.292-0.292-0.292-0.768,0-1.061l1.5-1.5c0.142-0.142,0.33-0.22,0.53-0.22
		s0.389,0.078,0.53,0.22c0.292,0.292,0.292,0.768,0,1.061l-1.5,1.5C9.388,22.422,9.2,22.5,8.999,22.5z"/>
</g>
</svg>
