<?xml version="1.0" encoding="utf-8"?>
<!-- Generator: Adobe Illustrator 22.1.0, SVG Export Plug-In . SVG Version: 6.00 Build 0)  -->
<svg version="1.1" id="Layer_1" xmlns="http://www.w3.org/2000/svg" xmlns:xlink="http://www.w3.org/1999/xlink" x="0px" y="0px"
	 viewBox="0 0 24 24" style="enable-background:new 0 0 24 24;" xml:space="preserve">
<title>hardware-nail</title>
<g>
	<path d="M0.804,23.945c-0.201,0-0.389-0.078-0.531-0.22c-0.202-0.202-0.271-0.496-0.181-0.767l1.591-4.773
		c0.036-0.109,0.099-0.21,0.181-0.293L14.593,5.164L14.239,4.81c-0.331-0.33-0.513-0.77-0.513-1.237
		c0-0.467,0.182-0.907,0.513-1.237l1.768-1.768c0.33-0.33,0.77-0.513,1.237-0.513s0.907,0.182,1.238,0.513l4.949,4.95
		c0.331,0.33,0.513,0.77,0.513,1.237c0,0.467-0.182,0.907-0.513,1.237L21.663,9.76c-0.331,0.331-0.77,0.513-1.238,0.513
		c-0.468,0-0.907-0.182-1.238-0.513l-0.353-0.353L6.108,22.134c-0.082,0.082-0.183,0.145-0.294,0.181l-4.772,1.591
		C0.965,23.932,0.885,23.945,0.804,23.945z M1.99,22.009l3.182-1.061l3.003-3.003H3.933l-0.882,0.882L1.99,22.009z M9.676,16.445
		l1.5-1.5H6.933l-1.5,1.5H9.676z M12.676,13.445l1.5-1.5H9.933l-1.5,1.5H12.676z M15.676,10.445l2.099-2.099l-2.121-2.121
		l-4.22,4.22H15.676z M17.244,1.555c-0.068,0-0.129,0.025-0.177,0.073l-1.768,1.768c-0.048,0.048-0.073,0.109-0.073,0.177
		s0.025,0.129,0.073,0.177l4.95,4.95c0.043,0.043,0.107,0.067,0.177,0.067s0.134-0.025,0.177-0.067l1.768-1.768
		c0.048-0.048,0.073-0.109,0.073-0.177s-0.025-0.129-0.073-0.177l-4.95-4.95C17.373,1.58,17.312,1.555,17.244,1.555z"/>
</g>
</svg>
