<?xml version="1.0" encoding="utf-8"?>
<!-- Generator: Adobe Illustrator 22.1.0, SVG Export Plug-In . SVG Version: 6.00 Build 0)  -->
<svg version="1.1" id="Regular" xmlns="http://www.w3.org/2000/svg" xmlns:xlink="http://www.w3.org/1999/xlink" x="0px" y="0px"
	 viewBox="0 0 24 24" style="enable-background:new 0 0 24 24;" xml:space="preserve">
<title>hat-architect</title>
<g>
	<path d="M12.002,22.5C5.272,22.5,0,19.865,0,16.5c0-1.888,1.637-3.599,4.503-4.72C4.587,8.866,6.325,6.297,9,5.128V4.5
		c0-1.654,1.346-3,3-3c1.654,0,3,1.346,3,3v0.628c2.675,1.168,4.413,3.737,4.497,6.651c2.867,1.121,4.505,2.833,4.505,4.721
		C24.002,19.865,18.731,22.5,12.002,22.5z M4.5,13.405c-1.889,0.851-3,1.987-3,3.095c0,2.397,4.907,4.5,10.502,4.5
		c1.151,0,2.291-0.087,3.39-0.258c0.819-1.407,1.874-2.635,3.138-3.65c1.008-0.84,2.136-1.526,3.355-2.039
		c-0.516-0.607-1.339-1.176-2.386-1.649V15c0,0.251-0.125,0.484-0.334,0.624C19.066,15.69,16.67,17.25,12,17.25
		c-4.67,0-7.066-1.56-7.166-1.626C4.625,15.485,4.5,15.251,4.5,15V13.405z M22.5,16.423c-1.096,0.458-2.11,1.072-3.02,1.831
		c-0.749,0.601-1.415,1.285-1.99,2.043c3.035-0.837,5.012-2.31,5.012-3.796C22.502,16.474,22.501,16.448,22.5,16.423z M10.5,15.689
		c0.49,0.041,0.993,0.061,1.5,0.061c0.507,0,1.01-0.021,1.5-0.061V6.19C13.011,6.064,12.508,6,12,6s-1.011,0.064-1.5,0.19V15.689z
		 M6,14.558c0.495,0.247,1.492,0.664,3,0.934V6.807C7.16,7.874,6,9.853,6,12V14.558z M15,15.492c1.509-0.271,2.505-0.687,3-0.934V12
		c0-2.147-1.16-4.126-3-5.193V15.492z M12,4.5c0.503,0,1.006,0.051,1.5,0.152V4.5C13.5,3.673,12.827,3,12,3s-1.5,0.673-1.5,1.5
		v0.152C10.994,4.551,11.497,4.5,12,4.5z"/>
</g>
</svg>
