<?xml version="1.0" encoding="utf-8"?>
<!-- Generator: Adobe Illustrator 22.1.0, SVG Export Plug-In . SVG Version: 6.00 Build 0)  -->
<svg version="1.1" id="Regular" xmlns="http://www.w3.org/2000/svg" xmlns:xlink="http://www.w3.org/1999/xlink" x="0px" y="0px"
	 viewBox="0 0 24 24" style="enable-background:new 0 0 24 24;" xml:space="preserve">
<title>hat-sombrero</title>
<g>
	<path d="M2.75,23.999c-1.516,0-2.75-1.234-2.75-2.75v-4c0-0.414,0.336-0.75,0.75-0.75h4.202L7.654,3.533
		c0.361-1.728,1.711-3.077,3.438-3.438c0.302-0.063,0.611-0.095,0.917-0.095c0.859,0,1.697,0.251,2.423,0.726
		c0.992,0.649,1.672,1.646,1.915,2.807l2.702,12.967h4.202c0.414,0,0.75,0.336,0.75,0.75v4c0,1.516-1.234,2.75-2.75,2.75H2.75z
		 M21.25,22.499c0.689,0,1.25-0.561,1.25-1.25v-3.25h-4.647l2.812,4.5H21.25z M18.897,22.499l-2.453-3.925L13.5,22.499H18.897z
		 M10.5,22.499l-2.944-3.925l-2.453,3.925H10.5z M1.5,21.249c0,0.689,0.561,1.25,1.25,1.25h0.584l2.812-4.5H1.5V21.249z M12,21.999
		l3-4H9L12,21.999z M17.516,16.499l-2.638-12.66c-0.16-0.768-0.611-1.428-1.268-1.859C13.129,1.666,12.575,1.5,12.007,1.5
		c-0.203,0-0.407,0.021-0.608,0.063c-1.144,0.239-2.038,1.133-2.277,2.276l-2.638,12.66H17.516z"/>
</g>
</svg>
