<?xml version="1.0" encoding="utf-8"?>
<!-- Generator: Adobe Illustrator 22.1.0, SVG Export Plug-In . SVG Version: 6.00 Build 0)  -->
<svg version="1.1" id="Regular" xmlns="http://www.w3.org/2000/svg" xmlns:xlink="http://www.w3.org/1999/xlink" x="0px" y="0px"
	 viewBox="0 0 24 24" style="enable-background:new 0 0 24 24;" xml:space="preserve">
<title>hat-lady-1</title>
<g>
	<path d="M12.001,23.742c-6.729,0-12.001-2.635-12.001-6c0-0.018,0.001-0.035,0.002-0.052c0.089-1.293,0.754-2.455,1.825-3.187
		c0.126-0.086,0.272-0.131,0.423-0.131c0.248,0,0.479,0.122,0.619,0.327c0.233,0.342,0.145,0.809-0.196,1.042
		c-0.682,0.466-1.109,1.204-1.173,2.026c0.034,2.386,4.932,4.475,10.501,4.475c5.568,0,10.466-2.089,10.5-4.475
		c-0.065-0.822-0.492-1.56-1.173-2.026c-0.341-0.234-0.429-0.701-0.196-1.042c0.139-0.204,0.371-0.327,0.619-0.327
		c0.151,0,0.298,0.045,0.423,0.131c1.071,0.732,1.736,1.894,1.825,3.188c0.001,0.013,0.002,0.033,0.002,0.052
		C24.001,21.106,18.73,23.742,12.001,23.742z"/>
	<path d="M18.75,18.492c-0.414,0-0.75-0.336-0.75-0.75v-1.446c-1.379,0.907-3.585,1.451-6,1.451s-4.621-0.544-6-1.451v1.446
		c0,0.414-0.336,0.75-0.75,0.75s-0.75-0.336-0.75-0.75v-7.5C4.501,7.374,6.098,4.8,8.667,3.525C8.77,3.474,8.885,3.447,9,3.447
		c0.287,0,0.544,0.16,0.672,0.416c0.184,0.371,0.032,0.822-0.338,1.006C7.278,5.888,6.001,7.947,6,10.242v3.755
		c0,0.939,2.283,2.25,6,2.25s6-1.311,6-2.25v-0.755c0-0.414,0.336-0.75,0.75-0.75s0.75,0.336,0.75,0.75v4.5
		C19.5,18.155,19.164,18.492,18.75,18.492z"/>
	<path d="M14.8,11.235c-0.223,0-0.434-0.056-0.625-0.167c-0.782-0.458-0.724-1.445-0.677-2.237c0.016-0.277,0.046-0.788-0.015-0.915
		c-0.078-0.101-0.532-0.326-0.75-0.434c-0.726-0.36-1.63-0.808-1.63-1.74c0-0.931,0.904-1.379,1.63-1.738
		c0.218-0.108,0.671-0.333,0.755-0.443c0.056-0.119,0.026-0.631,0.01-0.907c-0.047-0.797-0.105-1.786,0.678-2.239
		c0.192-0.111,0.402-0.167,0.625-0.167c0.562,0,1.093,0.348,1.607,0.684c0.243,0.159,0.695,0.455,0.844,0.459
		c0.149-0.004,0.601-0.3,0.844-0.459c0.514-0.336,1.045-0.683,1.607-0.683c0.223,0,0.434,0.056,0.625,0.167
		c0.782,0.458,0.724,1.445,0.677,2.238c-0.016,0.277-0.046,0.788,0.015,0.915c0.078,0.101,0.531,0.326,0.749,0.434
		c0.728,0.36,1.631,0.808,1.631,1.739c0,0.932-0.904,1.379-1.63,1.739c-0.218,0.108-0.671,0.332-0.755,0.443
		c-0.056,0.118-0.026,0.631-0.01,0.906c0.047,0.797,0.105,1.786-0.678,2.239c-0.191,0.111-0.402,0.167-0.625,0.167
		c-0.562,0-1.093-0.348-1.607-0.684c-0.243-0.159-0.695-0.455-0.844-0.459c-0.149,0.004-0.601,0.3-0.844,0.459
		C15.893,10.887,15.362,11.235,14.8,11.235C14.8,11.235,14.8,11.235,14.8,11.235z M12.684,5.742
		c0.185,0.133,0.541,0.309,0.714,0.395c0.568,0.282,1.105,0.548,1.384,1.029c0.287,0.495,0.249,1.134,0.213,1.752
		c-0.009,0.161-0.03,0.517-0.015,0.748c0.194-0.101,0.471-0.282,0.597-0.365c0.538-0.352,1.084-0.71,1.675-0.71
		c0.59,0,1.137,0.358,1.665,0.704c0.133,0.087,0.409,0.268,0.607,0.369c0.014-0.231-0.007-0.584-0.016-0.743
		c-0.036-0.62-0.074-1.26,0.212-1.755c0.277-0.482,0.84-0.76,1.385-1.03c0.173-0.086,0.529-0.262,0.714-0.395
		c-0.185-0.133-0.54-0.309-0.713-0.394c-0.544-0.27-1.106-0.548-1.385-1.031c-0.286-0.495-0.249-1.134-0.212-1.752
		c0.009-0.161,0.03-0.516,0.015-0.748c-0.2,0.104-0.49,0.294-0.606,0.37c-0.53,0.346-1.076,0.703-1.666,0.703
		c-0.59,0-1.136-0.357-1.665-0.703c-0.115-0.076-0.403-0.264-0.608-0.368c-0.014,0.231,0.007,0.583,0.016,0.742
		c0.036,0.62,0.074,1.26-0.212,1.755c-0.277,0.482-0.84,0.761-1.385,1.031C13.225,5.433,12.869,5.609,12.684,5.742z"/>
</g>
</svg>
