<?xml version="1.0" encoding="utf-8"?>
<!-- Generator: Adobe Illustrator 22.1.0, SVG Export Plug-In . SVG Version: 6.00 Build 0)  -->
<svg version="1.1" id="Regular" xmlns="http://www.w3.org/2000/svg" xmlns:xlink="http://www.w3.org/1999/xlink" x="0px" y="0px"
	 viewBox="0 0 24 24" style="enable-background:new 0 0 24 24;" xml:space="preserve">
<title>hat</title>
<g>
	<path d="M0.75,20.013c-0.414,0-0.75-0.336-0.75-0.75s0.336-0.75,0.75-0.75h3.821L5.889,5.339c0.021-0.21,0.085-0.41,0.19-0.594
		c0.266-0.467,0.766-0.756,1.305-0.756c0.259,0,0.516,0.068,0.742,0.197L12,6.4l3.875-2.214c0.184-0.105,0.384-0.169,0.594-0.19
		c0.051-0.005,0.1-0.007,0.149-0.007c0.775,0,1.417,0.581,1.493,1.351l1.318,13.175h3.821c0.414,0,0.75,0.336,0.75,0.75
		s-0.336,0.75-0.75,0.75H0.75z M17.921,18.513l-0.3-3H6.379l-0.3,3H17.921z M17.471,14.013l-0.853-8.525l-4.247,2.427
		C12.259,7.979,12.13,8.013,12,8.013s-0.259-0.034-0.372-0.099c0,0-4.247-2.427-4.247-2.427l-0.852,8.526H17.471z"/>
</g>
</svg>
