<?xml version="1.0" encoding="utf-8"?>
<!-- Generator: Adobe Illustrator 22.1.0, SVG Export Plug-In . SVG Version: 6.00 Build 0)  -->
<svg version="1.1" id="Layer_1" xmlns="http://www.w3.org/2000/svg" xmlns:xlink="http://www.w3.org/1999/xlink" x="0px" y="0px"
	 viewBox="0 0 24 24" style="enable-background:new 0 0 24 24;" xml:space="preserve">
<title>head-idea</title>
<g>
	<path d="M20.242,24c-0.421-0.009-0.75-0.353-0.742-0.766c0.009-0.374-0.163-0.734-0.459-0.962c-1.701-1.325-3.79-2.097-5.934-2.203
		l1.09,2.724c0.074,0.186,0.072,0.39-0.007,0.574c-0.079,0.184-0.225,0.327-0.411,0.401c-0.089,0.036-0.182,0.054-0.278,0.054
		c-0.309,0-0.582-0.185-0.696-0.472L12,21.341l-0.804,2.009c-0.114,0.287-0.388,0.472-0.696,0.472c-0.096,0-0.189-0.018-0.279-0.054
		c-0.186-0.074-0.332-0.217-0.411-0.401c-0.079-0.184-0.081-0.388-0.007-0.574l1.089-2.724c-2.145,0.106-4.234,0.878-5.932,2.201
		C4.664,22.5,4.492,22.86,4.5,23.233C4.509,23.647,4.18,23.991,3.767,24c0,0,0,0,0,0C3.345,24,3.009,23.671,3,23.266
		c-0.019-0.847,0.37-1.663,1.041-2.182c2.094-1.631,4.709-2.53,7.362-2.53c0.198,0,0.398,0.005,0.597,0.015
		c0.2-0.01,0.398-0.015,0.598-0.015c2.653,0,5.268,0.899,7.363,2.531c0.669,0.518,1.057,1.333,1.039,2.18
		C20.991,23.671,20.655,24,20.25,24H20.242z"/>
	<path d="M12,17.25c-0.414,0-0.75-0.336-0.75-0.75v-0.75H9.429c-0.414,0-0.75-0.336-0.75-0.75v-2.298l-0.001,0
		c-0.072-0.027-0.138-0.063-0.199-0.11c-2.062-1.22-3.298-3.464-3.229-5.863c0-1.785,0.703-3.476,1.979-4.751
		C8.506,0.702,10.2,0,12,0c3.719,0,6.747,3.026,6.75,6.744c0.067,2.387-1.17,4.628-3.229,5.847c-0.06,0.047-0.126,0.084-0.198,0.11
		l-0.001,0V15c0,0.414-0.336,0.75-0.75,0.75H12.75v0.75C12.75,16.914,12.414,17.25,12,17.25z M13.821,14.25v-1.5h-3.642v1.5H13.821z
		 M14.836,11.25c1.544-0.953,2.467-2.659,2.415-4.478C17.25,3.855,14.895,1.5,12,1.5c-2.895,0-5.25,2.355-5.25,5.25
		c-0.053,1.836,0.87,3.547,2.414,4.5h2.086V9.311L9.22,7.28C9.078,7.139,9,6.95,9,6.75s0.078-0.389,0.22-0.53
		C9.361,6.078,9.55,6,9.75,6s0.389,0.078,0.53,0.22L12,7.939l1.72-1.72C13.861,6.078,14.05,6,14.25,6s0.389,0.078,0.53,0.22
		C14.922,6.361,15,6.55,15,6.75s-0.078,0.389-0.22,0.53l-2.03,2.03v1.939H14.836z"/>
	<path d="M21.75,7.5C21.336,7.5,21,7.164,21,6.75S21.336,6,21.75,6h1.5C23.664,6,24,6.336,24,6.75S23.664,7.5,23.25,7.5H21.75z"/>
	<path d="M22.5,12c-0.2,0-0.389-0.078-0.53-0.22l-1.061-1.061c-0.142-0.141-0.22-0.33-0.22-0.53s0.078-0.389,0.22-0.53
		s0.33-0.22,0.53-0.22s0.389,0.078,0.53,0.22l1.061,1.061c0.142,0.141,0.22,0.33,0.22,0.53s-0.078,0.389-0.22,0.53S22.7,12,22.5,12z
		"/>
	<path d="M21.439,4.06c-0.201,0-0.389-0.078-0.531-0.22c-0.292-0.292-0.292-0.768,0-1.06l1.061-1.06C22.112,1.578,22.3,1.5,22.5,1.5
		s0.389,0.078,0.531,0.22c0.292,0.292,0.292,0.768,0,1.06l-1.061,1.06C21.827,3.982,21.639,4.06,21.439,4.06z"/>
	<path d="M0.75,7.5C0.336,7.5,0,7.164,0,6.75S0.336,6,0.75,6h1.5C2.664,6,3,6.336,3,6.75S2.664,7.5,2.25,7.5H0.75z"/>
	<path d="M1.5,12c-0.2,0-0.389-0.078-0.53-0.22c-0.142-0.141-0.22-0.33-0.22-0.53s0.078-0.389,0.22-0.53l1.061-1.061
		c0.142-0.142,0.33-0.22,0.53-0.22s0.389,0.078,0.53,0.22c0.142,0.141,0.22,0.33,0.22,0.53s-0.078,0.389-0.22,0.53L2.03,11.78
		C1.889,11.922,1.7,12,1.5,12z"/>
	<path d="M2.561,4.06c-0.2,0-0.389-0.078-0.53-0.22L0.97,2.781c-0.293-0.292-0.293-0.768,0-1.061C1.111,1.578,1.3,1.5,1.5,1.5
		c0.2,0,0.389,0.078,0.53,0.22l1.061,1.06c0.293,0.292,0.293,0.768,0,1.061C2.95,3.982,2.762,4.06,2.561,4.06z"/>
</g>
</svg>
