<?xml version="1.0" encoding="utf-8"?>
<!-- Generator: Adobe Illustrator 22.1.0, SVG Export Plug-In . SVG Version: 6.00 Build 0)  -->
<svg version="1.1" id="Layer_1" xmlns="http://www.w3.org/2000/svg" xmlns:xlink="http://www.w3.org/1999/xlink" x="0px" y="0px"
	 viewBox="0 0 24 24" style="enable-background:new 0 0 24 24;" xml:space="preserve">
<title>heavy-equipment-mortar-truck-1</title>
<g>
	<path d="M18.75,21.75c-1.067,0-2.061-0.582-2.594-1.5H7.844c-0.533,0.918-1.527,1.5-2.594,1.5s-2.061-0.582-2.594-1.5H2.25
		C1.009,20.25,0,19.241,0,18v-3c0-0.704,0.336-1.377,0.9-1.8l2.025-1.519c0.123-0.092,0.213-0.217,0.261-0.363l1.01-3.03
		C4.503,7.368,5.361,6.75,6.331,6.75H8.25c1.241,0,2.25,1.009,2.25,2.25v6.75h12.75c0.414,0,0.75,0.336,0.75,0.75
		s-0.336,0.75-0.75,0.75h-1.902c0.262,0.451,0.402,0.965,0.402,1.5C21.75,20.404,20.404,21.75,18.75,21.75z M18.75,17.25
		c-0.827,0-1.5,0.673-1.5,1.5s0.673,1.5,1.5,1.5s1.5-0.673,1.5-1.5S19.577,17.25,18.75,17.25z M5.25,17.25
		c-0.827,0-1.5,0.673-1.5,1.5s0.673,1.5,1.5,1.5s1.5-0.673,1.5-1.5S6.077,17.25,5.25,17.25z M15.75,18.75
		c0-0.535,0.14-1.049,0.402-1.5H7.848c0.262,0.451,0.402,0.965,0.402,1.5H15.75z M1.5,18c0,0.414,0.336,0.75,0.75,0.75
		c0-0.535,0.14-1.049,0.402-1.5H1.5V18z M9,15.75V9c0-0.414-0.336-0.75-0.75-0.75H6.331c-0.323,0-0.609,0.206-0.711,0.513
		l-1.01,3.029c-0.145,0.436-0.416,0.812-0.784,1.089L1.8,14.4c-0.188,0.141-0.3,0.365-0.3,0.6v0.75H9z"/>
	<path d="M16.536,15.744c-1.415,0-2.738-0.564-3.726-1.589l-0.722-0.722c-1.623-1.564-2.044-3.984-1.042-6.016
		c0.86-1.635,2.119-2.894,3.745-3.752c0.005-0.002,0.019-0.01,0.019-0.01c1.404-0.737,3.06-1.162,4.92-1.263
		c0.037-0.002,0.074-0.003,0.111-0.003c0.542,0,1.072,0.22,1.454,0.604l1.965,1.965c0.412,0.412,0.63,0.981,0.6,1.563
		c-0.101,1.862-0.526,3.518-1.264,4.924c0,0-0.002,0.005-0.004,0.007c-0.856,1.629-2.114,2.89-3.736,3.746
		C18.127,15.557,17.328,15.744,16.536,15.744z M14.997,5.275c-1.115,0.694-1.993,1.643-2.615,2.824
		c-0.705,1.43-0.402,3.147,0.757,4.265l0.742,0.742c0.71,0.737,1.653,1.14,2.66,1.14c0.568,0,1.117-0.129,1.632-0.383
		c1.167-0.617,2.112-1.494,2.804-2.608L14.997,5.275z M21.677,9.833c0.386-1.011,0.616-2.149,0.683-3.392
		c0.008-0.157-0.051-0.311-0.162-0.423l-1.966-1.966c-0.104-0.104-0.246-0.163-0.391-0.163L19.808,3.89
		c-1.243,0.067-2.381,0.297-3.391,0.684L21.677,9.833z"/>
</g>
</svg>
