<?xml version="1.0" encoding="utf-8"?>
<!-- Generator: Adobe Illustrator 22.1.0, SVG Export Plug-In . SVG Version: 6.00 Build 0)  -->
<svg version="1.1" id="Layer_1" xmlns="http://www.w3.org/2000/svg" xmlns:xlink="http://www.w3.org/1999/xlink" x="0px" y="0px"
	 viewBox="0 0 24 24" style="enable-background:new 0 0 24 24;" xml:space="preserve">
<title>heavy-equipment-lift-hook-box</title>
<g>
	<path d="M11.25,23.999c-2.062-0.006-3.744-1.687-3.75-3.748c0.003-1.181,0.56-2.285,1.5-2.994v-5.409L4.5,7.665v3.584h1.25
		c0.965,0,1.75,0.785,1.75,1.75v4c0,0.965-0.785,1.75-1.75,1.75h-4c-0.965,0-1.75-0.785-1.75-1.75v-4c0-0.965,0.785-1.75,1.75-1.75
		H3V6.27L0.763,4.191C-0.14,3.337-0.256,1.95,0.491,0.962c0.463-0.613,1.168-0.964,1.935-0.964c0.436,0,0.865,0.118,1.241,0.343
		l9.751,5.658h2.332c1.241,0,2.25,1.009,2.25,2.25v1.5c0,0.414,0.336,0.75,0.75,0.75h1.5c1.241,0,2.25,1.009,2.25,2.25v4.509
		c0.939,0.708,1.497,1.812,1.5,2.989c-0.006,2.064-1.687,3.747-3.748,3.752c0,0-0.001,0-0.001,0H11.25z M11.251,17.999
		C10.013,18.002,9.004,19.013,9,20.251c0.004,1.235,1.014,2.244,2.252,2.248h8.998c1.237-0.004,2.247-1.014,2.25-2.252
		c-0.004-1.235-1.014-2.244-2.252-2.248H11.251z M1.75,12.749c-0.138,0-0.25,0.112-0.25,0.25v4c0,0.138,0.112,0.25,0.25,0.25h4
		c0.138,0,0.25-0.112,0.25-0.25v-4c0-0.138-0.112-0.25-0.25-0.25H1.75z M20.25,16.499c0.251,0.001,0.502,0.028,0.75,0.08v-3.83
		c0-0.414-0.336-0.75-0.75-0.75h-1.5c-1.241,0-2.25-1.009-2.25-2.25v-1.5c0-0.414-0.336-0.75-0.75-0.75h-4.5
		c-0.414,0-0.75,0.336-0.75,0.75v8.33c0.247-0.052,0.497-0.079,0.748-0.08c0,0,0.001,0,0.001,0H20.25z M2.425,1.499
		c-0.292,0-0.561,0.134-0.737,0.368c-0.285,0.377-0.241,0.906,0.102,1.23L9,9.8V8.249c0-1.013,0.673-1.872,1.596-2.153l-7.69-4.462
		C2.757,1.544,2.592,1.499,2.425,1.499z"/>
	<path d="M12,21.374c-0.044,0-0.088-0.004-0.13-0.011c-0.513-0.06-0.923-0.47-0.983-0.982c-0.008-0.043-0.011-0.087-0.011-0.131
		s0.004-0.088,0.011-0.131c0.06-0.513,0.47-0.922,0.983-0.983c0.042-0.007,0.086-0.011,0.13-0.011s0.088,0.004,0.13,0.011
		c0.513,0.061,0.923,0.47,0.983,0.983c0.008,0.042,0.011,0.086,0.011,0.131s-0.004,0.088-0.011,0.131
		c-0.06,0.513-0.47,0.923-0.983,0.983C12.088,21.37,12.044,21.374,12,21.374z"/>
	<path d="M15.75,21.374c-0.044,0-0.088-0.004-0.13-0.011c-0.513-0.06-0.923-0.47-0.983-0.983c-0.007-0.042-0.011-0.086-0.011-0.13
		s0.004-0.088,0.011-0.131c0.06-0.513,0.47-0.923,0.983-0.983c0.042-0.008,0.086-0.011,0.131-0.011s0.088,0.004,0.131,0.011
		c0.513,0.06,0.923,0.47,0.983,0.983c0.008,0.042,0.011,0.086,0.011,0.131s-0.004,0.088-0.011,0.131
		c-0.06,0.513-0.47,0.923-0.983,0.983C15.838,21.37,15.794,21.374,15.75,21.374z"/>
	<path d="M19.5,21.374c-0.044,0-0.088-0.004-0.13-0.011c-0.513-0.06-0.923-0.47-0.983-0.983c-0.007-0.042-0.011-0.086-0.011-0.13
		s0.004-0.088,0.011-0.131c0.06-0.513,0.47-0.923,0.983-0.983c0.042-0.008,0.086-0.011,0.131-0.011s0.088,0.004,0.131,0.011
		c0.513,0.06,0.923,0.47,0.983,0.983c0.008,0.042,0.011,0.086,0.011,0.131s-0.004,0.088-0.011,0.131
		c-0.06,0.513-0.47,0.923-0.983,0.983C19.588,21.37,19.544,21.374,19.5,21.374z"/>
	<path d="M12.75,10.499c-0.414,0-0.75-0.336-0.75-0.75s0.336-0.75,0.75-0.75h1.5c0.414,0,0.75,0.336,0.75,0.75
		s-0.336,0.75-0.75,0.75H12.75z"/>
</g>
</svg>
