<?xml version="1.0" encoding="utf-8"?>
<!-- Generator: Adobe Illustrator 22.1.0, SVG Export Plug-In . SVG Version: 6.00 Build 0)  -->
<svg version="1.1" id="Layer_1" xmlns="http://www.w3.org/2000/svg" xmlns:xlink="http://www.w3.org/1999/xlink" x="0px" y="0px"
	 viewBox="0 0 24 24" style="enable-background:new 0 0 24 24;" xml:space="preserve">
<title>heavy-equipment-excavator-1</title>
<g>
	<path d="M19.875,23.999c-1.849,0-3.471-1.244-3.969-3h-1.062c-0.498,1.756-2.12,3-3.969,3c-2.275,0-4.125-1.851-4.125-4.125
		c0-1.553,0.875-2.968,2.25-3.672v-2.703c0-1.241,1.009-2.25,2.25-2.25h0.901L12.91,7.91L2.884,1.62
		C2.752,1.541,2.591,1.497,2.428,1.497c-0.293,0-0.563,0.135-0.74,0.37C1.403,2.244,1.447,2.772,1.79,3.097L9.38,9.742
		c0.151,0.132,0.241,0.315,0.254,0.515c0.013,0.2-0.052,0.393-0.184,0.544c-0.142,0.163-0.348,0.256-0.564,0.256
		c-0.182,0-0.357-0.066-0.494-0.186L3.75,6.807v4.354l1.835,0.918c0.37,0.185,0.52,0.636,0.335,1.006
		c-0.128,0.256-0.385,0.415-0.671,0.415c-0.115,0-0.231-0.027-0.335-0.079L3.75,12.837v2.073l1.835,0.918
		c0.37,0.185,0.52,0.636,0.335,1.006c-0.128,0.256-0.385,0.415-0.671,0.415c-0.115,0-0.231-0.027-0.335-0.079L3.75,16.587v2.073
		l1.835,0.918c0.37,0.185,0.52,0.636,0.335,1.006c-0.128,0.256-0.385,0.415-0.671,0.415c-0.115,0-0.231-0.027-0.335-0.079
		L3.75,20.337v2.911c0,0.414-0.336,0.75-0.75,0.75s-0.75-0.336-0.75-0.75v-3.661L0.415,18.67c-0.37-0.185-0.52-0.636-0.335-1.006
		c0.128-0.256,0.385-0.415,0.672-0.415c0.115,0,0.231,0.027,0.334,0.079L2.25,17.91v-2.073L0.415,14.92
		c-0.37-0.185-0.52-0.636-0.335-1.006c0.128-0.256,0.385-0.415,0.672-0.415c0.115,0,0.231,0.027,0.334,0.079L2.25,14.16v-2.073
		L0.415,11.17c-0.37-0.185-0.52-0.636-0.335-1.006c0.128-0.256,0.386-0.415,0.672-0.415c0.115,0,0.231,0.027,0.334,0.079L2.25,10.41
		V5.493L0.78,4.206C-0.136,3.34-0.256,1.95,0.491,0.962c0.463-0.613,1.168-0.964,1.935-0.964c0.436,0,0.865,0.118,1.241,0.343
		l9.594,6.02l0.016-0.072c0.206-1.033,1.133-1.79,2.202-1.79h3.27c1.241,0,2.25,1.009,2.25,2.25v4.5h0.75
		c1.241,0,2.25,1.009,2.25,2.25v6.375C24,22.148,22.15,23.999,19.875,23.999z M19.875,17.249c-1.448,0-2.625,1.177-2.625,2.625
		s1.177,2.625,2.625,2.625s2.625-1.177,2.625-2.625S21.323,17.249,19.875,17.249z M10.875,17.249c-1.447,0-2.625,1.177-2.625,2.625
		s1.178,2.625,2.625,2.625c1.448,0,2.625-1.177,2.625-2.625S12.323,17.249,10.875,17.249z M15.767,19.499
		c0.19-2.1,1.96-3.75,4.108-3.75c0.976,0,1.894,0.337,2.625,0.947v-3.197c0-0.414-0.336-0.75-0.75-0.75h-10.5
		c-0.414,0-0.75,0.336-0.75,0.75v2.267c0.125-0.011,0.25-0.017,0.375-0.017c2.148,0,3.918,1.65,4.108,3.75H15.767z M19.5,11.249
		v-4.5c0-0.414-0.336-0.75-0.75-0.75h-3.27c-0.356,0-0.666,0.254-0.736,0.603l-1.055,4.647H19.5z"/>
	<path d="M10.875,20.999c-0.044,0-0.088-0.004-0.13-0.011c-0.513-0.06-0.923-0.47-0.983-0.982c-0.008-0.043-0.011-0.087-0.011-0.131
		s0.004-0.088,0.011-0.131c0.06-0.513,0.47-0.922,0.983-0.983c0.042-0.007,0.086-0.011,0.13-0.011s0.088,0.004,0.13,0.011
		c0.513,0.061,0.923,0.47,0.983,0.983C11.996,19.786,12,19.83,12,19.874s-0.004,0.088-0.011,0.131
		c-0.06,0.513-0.47,0.922-0.983,0.982C10.963,20.995,10.92,20.999,10.875,20.999z"/>
	<path d="M19.875,20.999c-0.044,0-0.088-0.004-0.13-0.011c-0.513-0.06-0.923-0.47-0.983-0.983c-0.007-0.042-0.011-0.086-0.011-0.13
		s0.004-0.088,0.011-0.131c0.06-0.513,0.47-0.923,0.983-0.983c0.042-0.008,0.086-0.011,0.131-0.011s0.088,0.004,0.131,0.011
		c0.513,0.06,0.923,0.47,0.983,0.983C20.996,19.786,21,19.829,21,19.874s-0.004,0.088-0.011,0.131
		c-0.06,0.513-0.47,0.923-0.983,0.983C19.963,20.995,19.92,20.999,19.875,20.999z"/>
</g>
</svg>
