<?xml version="1.0" encoding="utf-8"?>
<!-- Generator: Adobe Illustrator 22.1.0, SVG Export Plug-In . SVG Version: 6.00 Build 0)  -->
<svg version="1.1" id="Regular" xmlns="http://www.w3.org/2000/svg" xmlns:xlink="http://www.w3.org/1999/xlink" x="0px" y="0px"
	 viewBox="0 0 24 24" style="enable-background:new 0 0 24 24;" xml:space="preserve">
<title>hippo-body</title>
<g>
	<path d="M23.25,22c-0.414,0-0.75-0.336-0.75-0.75v-6c0.032-1.422-0.256-5.266-1.953-6.113c-0.808-0.318-1.653-0.48-2.511-0.48
		c-0.908,0-1.798,0.18-2.646,0.535C15.297,9.23,15.2,9.25,15.1,9.25c-0.179,0-0.353-0.064-0.489-0.182
		c-0.216-0.186-0.308-0.473-0.239-0.75c0.023-0.094,0.554-2.335-1.01-2.857c-0.326-0.113-0.661-0.17-1-0.17
		c-0.744,0-1.459,0.273-2.012,0.768c-0.137,0.123-0.315,0.191-0.5,0.191c-0.066,0-0.131-0.009-0.195-0.026
		c-0.246-0.067-0.44-0.251-0.519-0.493C8.652,4.238,7.274,3.235,5.708,3.235c-0.099,0-0.198,0.004-0.298,0.012
		C5.391,3.249,5.371,3.25,5.35,3.25S5.309,3.249,5.288,3.247C5.189,3.239,5.09,3.235,4.991,3.235c-1.345,0-2.557,0.738-3.179,1.907
		l0.844,0.422c0.012,0.005,0.024,0.01,0.033,0.015c0.013,0.006,0.025,0.013,0.037,0.021l4.459,2.229
		c1.227,0.614,1.995,2.458,1.643,3.948C8.537,13.012,7.517,13.75,6.1,13.75H1.743c0.325,0.88,1.181,1.5,2.145,1.5
		c0.01,0,0.033,0,0.033,0c1.576,0,5.265,0,5.265,3.75v2.25c0,0.414-0.336,0.75-0.75,0.75s-0.75-0.336-0.75-0.75V19
		c0-1.186-0.287-2.25-3.75-2.25l-0.04,0c-2.068,0-3.769-1.678-3.793-3.741c-0.002-0.199,0.077-0.395,0.217-0.536
		c0.14-0.141,0.334-0.223,0.533-0.223h0.75V11.5c0-0.414,0.336-0.75,0.75-0.75s0.75,0.336,0.75,0.75v0.75H6.1
		c0.964,0,1.186-0.467,1.269-0.818C7.553,10.65,7.106,9.466,6.515,9.17L2.689,7.257L2.275,8.085C2.147,8.341,1.889,8.5,1.604,8.5
		c-0.115,0-0.231-0.027-0.335-0.079c-0.37-0.185-0.521-0.636-0.336-1.006l0.414-0.828L0.515,6.17
		C0.18,6.003,0.021,5.624,0.137,5.268c0.686-2.113,2.636-3.533,4.853-3.533c0.12,0,0.24,0.004,0.36,0.013
		c0.121-0.008,0.241-0.013,0.361-0.013c1.859,0,3.565,1.017,4.457,2.623c0.67-0.373,1.42-0.568,2.194-0.568
		c0.506,0,1.005,0.084,1.484,0.251c1.832,0.611,2.122,2.361,2.128,3.376c0.675-0.173,1.365-0.261,2.061-0.261
		c1.058,0,2.098,0.201,3.093,0.597c0.014,0.005,0.03,0.012,0.044,0.019c1.252,0.602,2.105,2.029,2.54,4.244
		c0.318,1.618,0.292,3.09,0.288,3.252v5.981C24,21.663,23.663,22,23.25,22z"/>
	<path d="M12.478,8.5c-0.555,0-1.028-0.411-1.108-0.961C11.357,7.483,11.35,7.43,11.35,7.377c-0.001-0.301,0.115-0.583,0.327-0.796
		c0.212-0.213,0.494-0.33,0.794-0.331c0,0,0.007,0,0.008,0c0.572,0,1.047,0.426,1.114,0.995c0.007,0.042,0.011,0.086,0.011,0.13
		s-0.004,0.088-0.011,0.13c-0.063,0.54-0.5,0.955-1.044,0.989C12.537,8.497,12.509,8.5,12.48,8.5H12.478z"/>
	<path d="M5.354,5.5c-0.414,0-0.75-0.336-0.75-0.75S4.94,4,5.354,4h0.75c0.414,0,0.75,0.336,0.75,0.75S6.517,5.5,6.104,5.5H5.354z"
		/>
	<path d="M20.437,22c-0.414,0-0.75-0.336-0.75-0.75v-2.759c-1.219,0.306-2.472,0.477-3.731,0.509
		c-1.286-0.032-2.547-0.203-3.769-0.509v2.759c0,0.414-0.336,0.75-0.75,0.75s-0.75-0.336-0.75-0.75V17.5
		c0-0.238,0.114-0.464,0.306-0.605c0.131-0.095,0.284-0.145,0.444-0.145c0.077,0,0.153,0.012,0.226,0.035
		c1.391,0.438,2.835,0.679,4.293,0.715c1.427-0.037,2.865-0.277,4.256-0.715c0.073-0.023,0.149-0.035,0.226-0.035
		c0.16,0,0.314,0.05,0.443,0.145c0.192,0.141,0.307,0.367,0.307,0.605v3.75C21.187,21.663,20.85,22,20.437,22z"/>
</g>
</svg>
