<?xml version="1.0" encoding="utf-8"?>
<!-- Generator: Adobe Illustrator 22.1.0, SVG Export Plug-In . SVG Version: 6.00 Build 0)  -->
<svg version="1.1" id="Layer_1" xmlns="http://www.w3.org/2000/svg" xmlns:xlink="http://www.w3.org/1999/xlink" x="0px" y="0px"
	 viewBox="0 0 24 24" style="enable-background:new 0 0 24 24;" xml:space="preserve">
<title>history-vase</title>
<g>
	<path d="M10.5,24c-3.765,0-7.229-2.208-8.832-5.626c-0.022-0.038-0.041-0.08-0.056-0.124c-0.449-0.993-0.725-2.047-0.821-3.134
		C0.785,15.079,0.781,15.04,0.781,15c0-0.002,0-0.004,0-0.007C0.76,14.721,0.75,14.478,0.75,14.25v-1.956
		c0-2.32,1.169-4.449,3.126-5.695l4.082-2.6C8.611,3.584,9,2.874,9,2.1V1.5H7.5c-0.414,0-0.75-0.336-0.75-0.75S7.086,0,7.5,0h9
		c0.414,0,0.75,0.336,0.75,0.75S16.914,1.5,16.5,1.5H15v0.6c0,0.773,0.389,1.483,1.042,1.898l4.082,2.6
		c1.958,1.246,3.126,3.375,3.126,5.696v1.956c0,0.231-0.01,0.478-0.032,0.756c0,0.018-0.003,0.048-0.005,0.063
		c-0.091,1.098-0.368,2.171-0.824,3.181c-0.016,0.045-0.035,0.088-0.058,0.126C20.728,21.793,17.264,24,13.5,24H10.5z M3.589,18.75
		C5.108,21.078,7.7,22.5,10.5,22.5h3c2.8,0,5.392-1.422,6.911-3.75H3.589z M21.185,17.25c0.189-0.482,0.331-0.985,0.426-1.5h-4.633
		c-0.683,0-1.239-0.556-1.239-1.239V14.25h-1.502v0.261c0,0.68-0.553,1.236-1.234,1.239h-2.018c-0.683,0-1.239-0.556-1.239-1.239
		V14.25H8.242v0.261c0,0.331-0.129,0.642-0.363,0.876c-0.234,0.234-0.545,0.363-0.876,0.363H2.389
		c0.095,0.515,0.237,1.017,0.426,1.5H21.185z M21.75,14.25v-1.956c0-0.352-0.035-0.702-0.103-1.044H2.354
		c-0.069,0.342-0.104,0.692-0.104,1.044v1.956h4.492v-0.261c0-0.683,0.556-1.239,1.239-1.239h2.026c0.683,0,1.239,0.556,1.239,1.239
		v0.261h1.491v-0.261c0-0.683,0.556-1.239,1.239-1.239H16c0.683,0,1.239,0.556,1.239,1.239v0.261H21.75z M21.095,9.75
		c-0.422-0.765-1.028-1.41-1.777-1.886l-4.082-2.6C14.149,4.572,13.5,3.389,13.5,2.1V1.5h-3v0.6
		c0.001,1.289-0.648,2.472-1.736,3.165l-4.082,2.6C3.934,8.341,3.328,8.986,2.905,9.75H21.095z"/>
</g>
</svg>
