<?xml version="1.0" encoding="utf-8"?>
<!-- Generator: Adobe Illustrator 22.1.0, SVG Export Plug-In . SVG Version: 6.00 Build 0)  -->
<svg version="1.1" id="Layer_1" xmlns="http://www.w3.org/2000/svg" xmlns:xlink="http://www.w3.org/1999/xlink" x="0px" y="0px"
	 viewBox="0 0 24 24" style="enable-background:new 0 0 24 24;" xml:space="preserve">
<title>history-middle-east</title>
<g>
	<path d="M5.136,5.625C3.689,5.625,2.511,4.447,2.511,3s1.178-2.625,2.625-2.625S7.761,1.553,7.761,3S6.583,5.625,5.136,5.625z
		 M5.136,1.875C4.516,1.875,4.011,2.38,4.011,3s0.505,1.125,1.125,1.125S6.261,3.62,6.261,3S5.756,1.875,5.136,1.875z"/>
	<path d="M16.011,20.891c-0.414,0-0.75-0.336-0.75-0.75v-1.514c-0.417,0.071-0.844,0.108-1.274,0.109
		c-0.162,0.012-0.327,0.019-0.49,0.019c-0.945,0-1.88-0.209-2.736-0.608v1.728c0,0.414-0.336,0.75-0.75,0.75s-0.75-0.336-0.75-0.75
		V17.75c-0.879,1.232-2.648,1.962-4.109,1.962c-1.947,0-4.663-1.382-4.663-3.633c0-0.47,0.111-0.94,0.321-1.361l1.277-2.554
		c0.237-0.47,0.362-0.995,0.363-1.519V8.2c0-0.414,0.336-0.75,0.75-0.75S3.95,7.786,3.95,8.2v2.447
		c-0.001,0.757-0.182,1.515-0.522,2.19l-1.276,2.552c-0.107,0.213-0.163,0.451-0.163,0.69c0,1.38,2.089,2.133,3.163,2.133
		s3.163-0.753,3.163-2.133c0-0.238-0.056-0.477-0.163-0.69l-1.277-2.554c-0.338-0.676-0.517-1.434-0.516-2.19V8.2
		c0-0.414,0.336-0.75,0.75-0.75s0.75,0.336,0.75,0.75v2.446c0,0.525,0.123,1.05,0.358,1.519l1.277,2.554
		c0.135,0.27,0.228,0.559,0.278,0.861c0.947,1.066,2.3,1.675,3.728,1.675c0.132,0,0.266-0.005,0.397-0.016
		c0.022-0.002,0.041-0.002,0.06-0.002c5.215,0,7.087-6.242,7.105-6.305c0.092-0.32,0.388-0.543,0.721-0.543
		c0.069,0,0.138,0.01,0.204,0.028c0.194,0.055,0.354,0.182,0.451,0.357c0.097,0.175,0.12,0.378,0.065,0.57
		c-0.001,0.003-0.15,0.519-0.493,1.287v4.994c0,0.414-0.336,0.75-0.75,0.75s-0.75-0.336-0.75-0.75v-2.424
		c-0.859,1.141-2.088,2.339-3.75,3.003v1.937C16.761,20.555,16.425,20.891,16.011,20.891z"/>
	<path d="M15.214,10.124C13.04,9.989,10.99,8.953,9.592,7.281C9.144,6.76,9.145,5.996,9.598,5.469
		c1.392-1.667,3.44-2.703,5.616-2.839c0.008,0,0.039-0.001,0.047-0.001c0.016,0,0.031,0,0.047,0.001
		c2.174,0.134,4.222,1.17,5.62,2.84c0.443,0.516,0.442,1.298-0.006,1.816c-1.39,1.666-3.438,2.701-5.614,2.837
		c-0.008,0-0.039,0.001-0.047,0.001S15.222,10.124,15.214,10.124z M10.793,6.379c1.128,1.311,2.749,2.125,4.468,2.245
		c1.723-0.12,3.345-0.938,4.467-2.249c-1.114-1.305-2.74-2.125-4.467-2.244C13.539,4.251,11.916,5.068,10.793,6.379z"/>
	<path d="M10.011,23.625c-1.241,0-2.25-1.009-2.25-2.25c0-0.414,0.336-0.75,0.75-0.75s0.75,0.336,0.75,0.75s0.336,0.75,0.75,0.75
		s0.75-0.336,0.75-0.75s0.336-0.75,0.75-0.75s0.75,0.336,0.75,0.75C12.261,22.616,11.252,23.625,10.011,23.625z"/>
	<path d="M16.011,23.625c-1.241,0-2.25-1.009-2.25-2.25c0-0.414,0.336-0.75,0.75-0.75s0.75,0.336,0.75,0.75s0.336,0.75,0.75,0.75
		s0.75-0.336,0.75-0.75s0.336-0.75,0.75-0.75s0.75,0.336,0.75,0.75C18.261,22.616,17.252,23.625,16.011,23.625z"/>
	<path d="M21.261,21.114c-1.241,0-2.25-1.009-2.25-2.25c0-0.414,0.336-0.75,0.75-0.75s0.75,0.336,0.75,0.75s0.336,0.75,0.75,0.75
		s0.75-0.336,0.75-0.75s0.336-0.75,0.75-0.75s0.75,0.336,0.75,0.75C23.511,20.105,22.502,21.114,21.261,21.114z"/>
	<path d="M15.261,8.625c-1.241,0-2.25-1.009-2.25-2.25s1.009-2.25,2.25-2.25s2.25,1.009,2.25,2.25S16.502,8.625,15.261,8.625z
		 M15.261,5.625c-0.414,0-0.75,0.336-0.75,0.75s0.336,0.75,0.75,0.75s0.75-0.336,0.75-0.75S15.675,5.625,15.261,5.625z"/>
</g>
</svg>
