<?xml version="1.0" encoding="utf-8"?>
<!-- Generator: Adobe Illustrator 22.1.0, SVG Export Plug-In . SVG Version: 6.00 Build 0)  -->
<svg version="1.1" id="Layer_1" xmlns="http://www.w3.org/2000/svg" xmlns:xlink="http://www.w3.org/1999/xlink" x="0px" y="0px"
	 viewBox="0 0 24 24" style="enable-background:new 0 0 24 24;" xml:space="preserve">
<title>history-geisha</title>
<g>
	<path d="M12,21.002c-0.044,0-0.088-0.004-0.13-0.011c-0.513-0.06-0.923-0.47-0.983-0.982c-0.008-0.043-0.011-0.087-0.011-0.131
		s0.004-0.088,0.011-0.131c0.06-0.513,0.47-0.922,0.983-0.983c0.042-0.007,0.086-0.011,0.13-0.011s0.088,0.004,0.13,0.011
		c0.513,0.061,0.923,0.47,0.983,0.983c0.008,0.042,0.011,0.086,0.011,0.131s-0.004,0.088-0.011,0.131
		c-0.06,0.513-0.47,0.923-0.983,0.983C12.088,20.998,12.044,21.002,12,21.002z"/>
	<path d="M11.98,24.004c-1.595,0-3.146-0.474-4.484-1.37c-1.643-1.1-2.807-2.735-3.312-4.635L2.431,18.51
		c-0.027,0.008-0.059,0.016-0.091,0.023c-0.126,0.03-0.259,0.045-0.392,0.045c-0.807,0-1.499-0.549-1.684-1.335
		C0.088,16.487,0,15.712,0,14.937c0-4.774,3.401-9.039,8.316-10.491C8.272,4.216,8.25,3.984,8.25,3.753H2.707
		c-0.414,0-0.75-0.336-0.75-0.75s0.336-0.75,0.75-0.75h5.86c0.594-1.356,1.941-2.25,3.433-2.25c1.492,0,2.839,0.894,3.433,2.25
		h4.393c0.414,0,0.75,0.336,0.75,0.75s-0.336,0.75-0.75,0.75H15.75c0,0.232-0.022,0.464-0.066,0.693
		C20.599,5.898,24,10.164,24,14.937c0,0.775-0.088,1.55-0.263,2.304c-0.007,0.029-0.014,0.056-0.021,0.084
		c-0.215,0.739-0.898,1.253-1.664,1.253c-0.162,0-0.324-0.023-0.481-0.069l-1.759-0.513c-0.23,0.862-0.598,1.674-1.096,2.418
		c-1.202,1.795-3.031,3.014-5.15,3.433C13.041,23.951,12.508,24.004,11.98,24.004z M5.5,16.995c0.011,0.066,0.021,0.131,0.034,0.197
		c0.341,1.726,1.335,3.216,2.797,4.195c1.091,0.73,2.353,1.116,3.651,1.116c0.431,0,0.865-0.043,1.292-0.127
		c1.726-0.341,3.216-1.334,4.195-2.796c1.491-2.227,1.491-5.104,0-7.331c-0.015-0.023-0.03-0.047-0.042-0.071
		c-0.344-0.464-0.888-0.74-1.462-0.74c-0.183,0-0.367,0.028-0.545,0.082c-0.845,0.256-1.621,0.722-2.244,1.346
		c-0.314,0.316-0.734,0.49-1.181,0.49c-0.445,0-0.863-0.173-1.178-0.487c-0.627-0.628-1.398-1.092-2.237-1.349
		c-0.178-0.055-0.362-0.082-0.545-0.082c-0.606,0-1.171,0.304-1.513,0.812c-0.921,1.375-1.289,3.032-1.036,4.665
		c0.003,0.011,0.007,0.035,0.01,0.061L5.5,16.995z M21.989,17.069c0.021,0.006,0.042,0.009,0.063,0.009
		c0.101,0,0.192-0.069,0.22-0.167l0.005-0.021c0.147-0.633,0.222-1.293,0.222-1.953c0-4.167-3.025-7.872-7.39-9.096
		c-0.694,1.031-1.861,1.66-3.11,1.66s-2.415-0.629-3.11-1.66C4.525,7.066,1.5,10.77,1.5,14.937c0,0.66,0.075,1.321,0.224,1.965
		c0.014,0.059,0.05,0.108,0.103,0.141c0.038,0.023,0.078,0.035,0.12,0.035c0.018,0,0.035-0.002,0.053-0.006l1.931-0.563
		c-0.134-1.794,0.338-3.592,1.345-5.095c0.621-0.925,1.651-1.477,2.756-1.477c0.333,0,0.665,0.05,0.987,0.149
		c1.075,0.329,2.062,0.924,2.856,1.72c0.001,0.001,0.002,0.002,0.003,0.004c0.042,0.039,0.09,0.045,0.115,0.045
		c0.026,0,0.077-0.006,0.119-0.049c0.797-0.798,1.789-1.393,2.868-1.721c0.321-0.098,0.652-0.148,0.985-0.148
		c1.104,0,2.135,0.552,2.755,1.477c0.02,0.029,0.037,0.06,0.053,0.093c0.964,1.481,1.415,3.244,1.285,5.001L21.989,17.069z
		 M12,1.503c-1.241,0-2.25,1.009-2.25,2.25s1.009,2.25,2.25,2.25c1.241,0,2.25-1.009,2.25-2.25S13.241,1.503,12,1.503z"/>
	<path d="M10.045,15.613c-0.178,0-0.35-0.063-0.486-0.179C9.23,15.154,8.815,15,8.389,15c-0.189,0-0.377,0.03-0.56,0.089
		c-0.075,0.024-0.152,0.036-0.229,0.036c-0.327,0-0.614-0.209-0.714-0.52c-0.127-0.394,0.09-0.817,0.484-0.944
		c0.332-0.107,0.676-0.162,1.021-0.162c0.78,0,1.54,0.282,2.141,0.794c0.315,0.269,0.352,0.743,0.084,1.058
		C10.473,15.518,10.265,15.613,10.045,15.613z"/>
	<path d="M13.955,15.613c-0.22,0-0.428-0.096-0.571-0.263c-0.268-0.314-0.231-0.789,0.083-1.057c0.6-0.512,1.36-0.794,2.141-0.794
		c0.345,0,0.689,0.054,1.021,0.161c0.394,0.127,0.611,0.55,0.484,0.944c-0.101,0.311-0.387,0.52-0.714,0.52c0,0,0,0,0,0
		c-0.077,0-0.154-0.012-0.228-0.035C15.988,15.029,15.799,15,15.611,15c-0.425,0-0.84,0.154-1.169,0.435
		C14.306,15.55,14.133,15.613,13.955,15.613z"/>
</g>
</svg>
