<?xml version="1.0" encoding="utf-8"?>
<!-- Generator: Adobe Illustrator 22.1.0, SVG Export Plug-In . SVG Version: 6.00 Build 0)  -->
<svg version="1.1" id="Layer_1" xmlns="http://www.w3.org/2000/svg" xmlns:xlink="http://www.w3.org/1999/xlink" x="0px" y="0px"
	 viewBox="0 0 24 24" style="enable-background:new 0 0 24 24;" xml:space="preserve">
<title>historical-building-castle</title>
<g>
	<path d="M12,15.75c-0.414,0-0.75-0.336-0.75-0.75v-0.75H10.5c-0.414,0-0.75-0.336-0.75-0.75s0.336-0.75,0.75-0.75h0.75V12
		c0-0.414,0.336-0.75,0.75-0.75s0.75,0.336,0.75,0.75v0.75h0.75c0.414,0,0.75,0.336,0.75,0.75s-0.336,0.75-0.75,0.75h-0.75V15
		C12.75,15.414,12.414,15.75,12,15.75z"/>
	<path d="M14.25,24c-0.414,0-0.75-0.336-0.75-0.75v-3c0-0.827-0.673-1.5-1.5-1.5s-1.5,0.673-1.5,1.5v3c0,0.414-0.336,0.75-0.75,0.75
		S9,23.664,9,23.25v-3c0-1.654,1.346-3,3-3c1.654,0,3,1.346,3,3v3C15,23.664,14.664,24,14.25,24z"/>
	<path d="M0.75,24C0.336,24,0,23.664,0,23.25v-10.5C0,12.336,0.336,12,0.75,12s0.75,0.336,0.75,0.75v0.75h3.704l0.7-4.666
		C5.063,8.495,4.5,7.681,4.5,6.75v-6C4.5,0.336,4.836,0,5.25,0S6,0.336,6,0.75V1.5h12V0.75C18,0.336,18.336,0,18.75,0
		s0.75,0.336,0.75,0.75v6c0,0.931-0.563,1.745-1.404,2.084l0.7,4.666H22.5v-0.75c0-0.414,0.336-0.75,0.75-0.75S24,12.336,24,12.75
		v10.5c0,0.414-0.336,0.75-0.75,0.75H19.5c-0.083,0-0.164-0.015-0.245-0.043c-0.005-0.002-0.024-0.008-0.029-0.01
		c-0.07-0.028-0.136-0.066-0.196-0.115c-0.003-0.002-0.021-0.017-0.024-0.02c-0.062-0.055-0.109-0.113-0.148-0.178
		c-0.003-0.005-0.012-0.021-0.015-0.027c-0.038-0.073-0.062-0.14-0.076-0.207c-0.005-0.018-0.008-0.036-0.01-0.054L16.604,9H7.396
		L5.242,23.361c-0.002,0.01-0.004,0.023-0.007,0.035c-0.003,0.016-0.008,0.036-0.014,0.056c-0.01,0.033-0.016,0.054-0.024,0.074
		c-0.008,0.02-0.018,0.041-0.028,0.061c-0.015,0.029-0.026,0.049-0.038,0.068c-0.007,0.01-0.028,0.04-0.036,0.05
		c-0.023,0.03-0.037,0.047-0.053,0.064C5.033,23.778,5.009,23.799,5,23.807c-0.024,0.021-0.044,0.038-0.065,0.053
		c-0.011,0.008-0.039,0.025-0.051,0.032c-0.027,0.016-0.052,0.03-0.079,0.042c-0.011,0.005-0.042,0.016-0.053,0.02
		c-0.025,0.009-0.056,0.019-0.088,0.026c-0.012,0.003-0.043,0.008-0.056,0.009c-0.021,0.003-0.045,0.006-0.071,0.008
		C4.526,24,4.522,24,4.514,24C4.51,24,0.75,24,0.75,24z M22.5,22.5V15h-3.479l1.125,7.5H22.5z M3.854,22.5L4.979,15H1.5v7.5H3.854z
		 M6,6.75C6,7.164,6.336,7.5,6.75,7.5h10.5C17.664,7.5,18,7.164,18,6.75V3H6V6.75z"/>
</g>
</svg>
