<?xml version="1.0" encoding="utf-8"?>
<!-- Generator: Adobe Illustrator 22.1.0, SVG Export Plug-In . SVG Version: 6.00 Build 0)  -->
<svg version="1.1" id="Layer_1" xmlns="http://www.w3.org/2000/svg" xmlns:xlink="http://www.w3.org/1999/xlink" x="0px" y="0px"
	 viewBox="0 0 24 24" style="enable-background:new 0 0 24 24;" xml:space="preserve">
<title>historical-building-pillar</title>
<g>
	<path d="M9.76,9C9.347,9,9.01,8.664,9.01,8.25S9.347,7.5,9.76,7.5h4.5c0.414,0,0.75,0.336,0.75,0.75S14.674,9,14.26,9H9.76z"/>
	<path d="M9.76,6C9.347,6,9.01,5.664,9.01,5.25S9.347,4.5,9.76,4.5h4.5c0.414,0,0.75,0.336,0.75,0.75S14.674,6,14.26,6H9.76z"/>
	<path d="M17.252,24c-0.414,0-0.75-0.336-0.75-0.75v-12c0-0.414,0.336-0.75,0.75-0.75s0.75,0.336,0.75,0.75v12
		C18.002,23.664,17.666,24,17.252,24z"/>
	<path d="M6.752,24c-0.414,0-0.75-0.336-0.75-0.75v-12c0-0.414,0.336-0.75,0.75-0.75s0.75,0.336,0.75,0.75v12
		C7.502,23.664,7.166,24,6.752,24z"/>
	<path d="M9.752,24c-0.414,0-0.75-0.336-0.75-0.75v-12c0-0.414,0.336-0.75,0.75-0.75s0.75,0.336,0.75,0.75v12
		C10.502,23.664,10.166,24,9.752,24z"/>
	<path d="M14.252,24c-0.414,0-0.75-0.336-0.75-0.75v-12c0-0.414,0.336-0.75,0.75-0.75s0.75,0.336,0.75,0.75v12
		C15.002,23.664,14.666,24,14.252,24z"/>
	<path d="M19.626,9.912c-1.937,0-3.554-1.514-3.68-3.446c-0.108-1.715,1.192-3.191,2.898-3.299c0.011-0.001,0.023-0.001,0.035-0.001
		c0.051-0.003,0.103-0.005,0.154-0.005c0.619,0,1.245,0.24,1.719,0.658c0.15,0.132,0.24,0.315,0.252,0.515
		c0.012,0.2-0.053,0.393-0.186,0.543c-0.143,0.161-0.347,0.254-0.563,0.254c-0.183,0-0.359-0.067-0.496-0.188
		c-0.208-0.184-0.465-0.281-0.743-0.281c-0.025,0-0.05,0.001-0.075,0.002c-0.882,0.056-1.554,0.817-1.5,1.696
		c0.001,0.015,0.002,0.035,0.002,0.053c0.073,1.11,1.03,1.999,2.178,1.999c0.047,0,0.095-0.001,0.142-0.005
		c0.779-0.05,1.492-0.401,2.008-0.988c0.516-0.587,0.772-1.338,0.722-2.115c-0.001-0.016-0.001-0.04-0.001-0.054
		c0-2.068-1.682-3.75-3.75-3.75H5.26c-2.068,0-3.75,1.682-3.75,3.75c0,0.022-0.001,0.054-0.003,0.076
		C1.406,6.917,2.631,8.305,4.239,8.406C4.29,8.41,4.337,8.411,4.383,8.411c1.149,0,2.108-0.898,2.182-2.045
		c0.027-0.43-0.114-0.844-0.397-1.164C5.885,4.881,5.494,4.69,5.068,4.664C5.042,4.662,5.017,4.661,4.992,4.661
		c-0.267,0-0.526,0.095-0.73,0.269C4.127,5.045,3.955,5.109,3.776,5.109c-0.22,0-0.429-0.096-0.571-0.264
		c-0.13-0.152-0.193-0.346-0.177-0.546c0.016-0.2,0.109-0.381,0.261-0.511c0.474-0.404,1.079-0.627,1.702-0.627
		c0.057,0,0.114,0.002,0.171,0.005c0.825,0.051,1.582,0.422,2.13,1.043c0.548,0.621,0.822,1.418,0.77,2.245
		C7.937,8.393,6.321,9.911,4.384,9.911c-0.079,0-0.159-0.003-0.24-0.008C4.126,9.902,4.108,9.901,4.091,9.898
		C1.699,9.719-0.141,7.616,0.011,5.212C0.01,3.841,0.557,2.528,1.55,1.537C2.543,0.546,3.861,0,5.26,0h13.484
		c2.895,0,5.25,2.355,5.25,5.25c0.075,1.142-0.313,2.273-1.092,3.161c-0.78,0.887-1.858,1.417-3.036,1.494
		C19.785,9.909,19.705,9.912,19.626,9.912L19.626,9.912z"/>
</g>
</svg>
