<?xml version="1.0" encoding="utf-8"?>
<!-- Generator: Adobe Illustrator 22.1.0, SVG Export Plug-In . SVG Version: 6.00 Build 0)  -->
<svg version="1.1" id="Layer_1" xmlns="http://www.w3.org/2000/svg" xmlns:xlink="http://www.w3.org/1999/xlink" x="0px" y="0px"
	 viewBox="0 0 24 24" style="enable-background:new 0 0 24 24;" xml:space="preserve">
<title>history-lamp-genie</title>
<g>
	<path d="M11.253,24c-0.414,0-0.75-0.336-0.75-0.75s0.336-0.75,0.75-0.75h0.986c-0.2-0.219-0.384-0.45-0.551-0.692
		c-1.908-2.763-1.449-6.526,1.005-8.754l-1.713-1.712c-0.664-0.665-0.836-1.68-0.458-2.519L8.748,7.256
		C8.611,7.136,8.436,7.07,8.253,7.07c-0.414,0-0.75,0.336-0.75,0.75V15c0,1.654-1.346,3-3,3s-3-1.346-3-3V3.75h-0.75
		c-0.414,0-0.75-0.336-0.75-0.75s0.336-0.75,0.75-0.75h0.75v-1.5C1.503,0.336,1.84,0,2.253,0s0.75,0.336,0.75,0.75v1.5h0.75
		c0.414,0,0.75,0.336,0.75,0.75s-0.336,0.75-0.75,0.75h-0.75V15c0,0.827,0.673,1.5,1.5,1.5s1.5-0.673,1.5-1.5V7.82
		c0-1.241,1.009-2.25,2.25-2.25c0.547,0,1.075,0.199,1.486,0.561l1.822,1.608c0.312-0.156,0.656-0.238,1.011-0.238
		c0.601,0,1.166,0.234,1.59,0.658L15.003,9V3.842l-0.728-2.91c-0.056-0.225-0.007-0.46,0.136-0.643C14.555,0.105,14.771,0,15.003,0
		h4.5c0.233,0,0.448,0.105,0.591,0.288c0.143,0.184,0.193,0.418,0.136,0.644l-0.728,2.91v7.813c1.578,0.553,2.919,1.696,3.708,3.173
		c0.845,1.581,1.024,3.397,0.504,5.112c-0.291,0.959-0.785,1.83-1.447,2.56h0.984c0.414,0,0.75,0.336,0.75,0.75S23.667,24,23.253,24
		H11.253z M19.909,22.5c1.145-0.664,1.986-1.724,2.371-2.995c0.404-1.332,0.265-2.742-0.392-3.97c-0.69-1.291-1.9-2.237-3.319-2.596
		c-0.334-0.084-0.566-0.384-0.566-0.727V4.5h-1.5v6.311c0,0.305-0.182,0.577-0.463,0.693c-0.091,0.038-0.188,0.057-0.287,0.057
		c-0.2,0-0.389-0.078-0.531-0.22l-2.121-2.122c-0.141-0.141-0.329-0.218-0.529-0.218c-0.19,0-0.371,0.071-0.51,0.199
		c-0.015,0.016-0.028,0.028-0.042,0.041c-0.271,0.28-0.269,0.752,0.02,1.04l2.307,2.306c0.158,0.158,0.237,0.376,0.217,0.598
		c-0.02,0.222-0.137,0.423-0.321,0.55c-2.355,1.627-2.948,4.866-1.321,7.221c0.434,0.629,1.012,1.161,1.674,1.544H19.909z M18.168,3
		l0.375-1.5h-2.579L16.339,3H18.168z"/>
</g>
</svg>
