<?xml version="1.0" encoding="utf-8"?>
<!-- Generator: Adobe Illustrator 22.1.0, SVG Export Plug-In . SVG Version: 6.00 Build 0)  -->
<svg version="1.1" id="Layer_1" xmlns="http://www.w3.org/2000/svg" xmlns:xlink="http://www.w3.org/1999/xlink" x="0px" y="0px"
	 viewBox="0 0 24 24" style="enable-background:new 0 0 24 24;" xml:space="preserve">
<title>history-sphinx</title>
<g>
	<path d="M16.5,24c-0.414,0-0.75-0.336-0.75-0.75v-4.655c-0.499,0.254-1.023,0.457-1.565,0.605l-0.696,4.173
		C13.429,23.736,13.118,24,12.75,24h-1.5c-0.368,0-0.679-0.263-0.74-0.626l-0.695-4.168c-0.54-0.148-1.064-0.352-1.565-0.608v4.653
		C8.25,23.664,7.914,24,7.5,24H6c-2.068,0-3.75-1.682-3.75-3.75v-0.5c0-0.484-0.16-0.963-0.45-1.35L0.75,17
		C0.266,16.355,0,15.556,0,14.75V12c-0.002-3.344,1.417-6.566,3.893-8.841c0.03-0.034,0.064-0.065,0.1-0.094
		C4.62,2.503,5.299,2.01,6.01,1.6c0.114-0.066,0.243-0.1,0.374-0.1c0.268,0,0.517,0.144,0.65,0.376
		c0.1,0.174,0.126,0.376,0.074,0.569C7.056,2.638,6.932,2.8,6.758,2.9C6.285,3.172,5.825,3.49,5.387,3.847L6.464,6h2.929
		L8.804,4.529C8.475,3.712,8.485,2.815,8.83,2.005c0.346-0.811,0.986-1.438,1.804-1.767C11.027,0.08,11.44,0,11.864,0h0.272
		c0.882,0,1.71,0.343,2.333,0.965c0.623,0.623,0.967,1.451,0.967,2.332c0,0.424-0.08,0.839-0.238,1.232L14.611,6h2.926l1.077-2.153
		C18.175,3.49,17.715,3.172,17.242,2.9c-0.174-0.1-0.298-0.261-0.35-0.455c-0.052-0.193-0.026-0.395,0.074-0.569
		C17.099,1.644,17.349,1.5,17.616,1.5c0.131,0,0.26,0.035,0.374,0.1c0.711,0.409,1.389,0.902,2.016,1.465
		c0.037,0.029,0.071,0.06,0.101,0.094C22.583,5.435,24.001,8.656,24,12v2.75c0,0.806-0.266,1.605-0.75,2.25l-1.05,1.4
		c-0.29,0.387-0.45,0.866-0.45,1.35v0.5c0,2.068-1.682,3.75-3.75,3.75H16.5z M18,22.5c1.241,0,2.25-1.009,2.25-2.25v-0.5
		c0-0.806,0.266-1.605,0.75-2.25l1.05-1.4c0.29-0.387,0.45-0.866,0.45-1.35V12c0.001-2.6-0.994-5.15-2.747-7.078l-0.885,1.769
		c1.901,2.872,1.802,6.75-0.268,9.509c-0.39,0.519-0.843,0.993-1.35,1.411V22.5H18z M12.115,22.5l0.505-3.029
		c-0.215,0.017-0.425,0.026-0.629,0.026c-0.198,0-0.4-0.008-0.61-0.025l0.505,3.028H12.115z M4.247,4.922
		C2.494,6.85,1.499,9.4,1.5,12v2.75c0,0.484,0.16,0.963,0.45,1.35L3,17.5c0.484,0.645,0.75,1.444,0.75,2.25v0.5
		c0,1.241,1.009,2.25,2.25,2.25h0.75v-4.889c-3.261-2.688-3.958-7.41-1.62-10.924L4.247,4.922z M6.387,7.5
		c-1.968,2.945-1.288,7.012,1.563,9.15c1.175,0.882,2.573,1.347,4.042,1.347c2.152,0,4.123-0.983,5.408-2.697
		c1.701-2.268,1.78-5.448,0.212-7.8h-4.044c-0.018,0.003-0.041,0.005-0.066,0.005c-0.026,0-0.053-0.002-0.079-0.005H6.387z
		 M12.996,6l0.81-2.028c0.087-0.216,0.131-0.442,0.131-0.673c0-0.481-0.188-0.933-0.527-1.272c-0.34-0.34-0.791-0.526-1.272-0.526
		h-0.273c-0.231,0-0.456,0.044-0.67,0.13c-0.446,0.179-0.795,0.521-0.984,0.964s-0.194,0.931-0.014,1.377L11.008,6H12.996z"/>
	<path d="M10.5,11.25c-0.258,0-0.494-0.13-0.633-0.347c-0.163-0.256-0.44-0.408-0.741-0.408c-0.023,0-0.046,0.001-0.069,0.003
		C9.038,10.499,9.019,10.5,9,10.5s-0.038-0.001-0.057-0.002c-0.023-0.002-0.046-0.003-0.068-0.003c-0.302,0-0.579,0.152-0.742,0.408
		C7.994,11.12,7.758,11.25,7.5,11.25H6.75C6.336,11.25,6,10.914,6,10.5s0.336-0.75,0.75-0.75h0.386
		c0.449-0.482,1.073-0.755,1.738-0.755c0.042,0,0.083,0.001,0.125,0.003c0.044-0.002,0.088-0.004,0.131-0.004
		c0.814,0,1.562,0.412,2.002,1.102c0.222,0.349,0.119,0.813-0.229,1.036C10.782,11.209,10.643,11.25,10.5,11.25z"/>
	<path d="M16.5,11.25c-0.258,0-0.494-0.13-0.633-0.347c-0.163-0.255-0.44-0.408-0.741-0.408c-0.023,0-0.045,0.001-0.068,0.003
		C15.038,10.499,15.019,10.5,15,10.5s-0.038-0.001-0.057-0.002c-0.023-0.002-0.045-0.003-0.068-0.003
		c-0.302,0-0.58,0.152-0.742,0.408c-0.139,0.217-0.375,0.347-0.633,0.347c-0.143,0-0.282-0.041-0.403-0.117
		c-0.349-0.222-0.452-0.686-0.23-1.035c0.44-0.69,1.19-1.102,2.009-1.102c0.041,0,0.083,0.001,0.124,0.003
		c0.042-0.002,0.083-0.003,0.125-0.003c0.667,0,1.291,0.273,1.74,0.755h0.386c0.414,0,0.75,0.336,0.75,0.75s-0.336,0.75-0.75,0.75
		H16.5z"/>
</g>
</svg>
