<?xml version="1.0" encoding="utf-8"?>
<!-- Generator: Adobe Illustrator 22.1.0, SVG Export Plug-In . SVG Version: 6.00 Build 0)  -->
<svg version="1.1" id="Layer_1" xmlns="http://www.w3.org/2000/svg" xmlns:xlink="http://www.w3.org/1999/xlink" x="0px" y="0px"
	 viewBox="0 0 24 24" style="enable-background:new 0 0 24 24;" xml:space="preserve">
<title>history-armor-shield</title>
<g>
	<path d="M11.98,24.003c-1.973,0-3.906-0.563-5.591-1.628c-2.371-1.499-4.018-3.831-4.635-6.568
		c-0.021-0.094-0.031-0.187-0.031-0.28c0-0.704,0.572-1.277,1.276-1.277c1.241,0,2.251-1.009,2.251-2.25
		c0-1.241-1.009-2.25-2.25-2.25c-0.093,0-0.187-0.01-0.278-0.031C2.389,9.645,2.105,9.445,1.922,9.157
		c-0.183-0.288-0.243-0.63-0.168-0.963C2.641,4.26,5.755,1.145,9.688,0.258c0.768-0.173,1.552-0.261,2.331-0.261
		c1.972,0,3.906,0.563,5.591,1.628c2.371,1.499,4.017,3.831,4.635,6.568c0.021,0.089,0.031,0.184,0.031,0.28
		c0,0.34-0.132,0.661-0.373,0.903C21.662,9.617,21.341,9.75,21,9.75c-1.241,0-2.25,1.009-2.25,2.25c0,1.241,1.009,2.25,2.25,2.25
		c0.092,0,0.184,0.01,0.276,0.03c0.689,0.154,1.124,0.838,0.97,1.525c-0.887,3.934-4.002,7.049-7.935,7.936
		C13.543,23.915,12.759,24.003,11.98,24.003z M3.28,15.739c0.573,2.233,1.953,4.131,3.91,5.367c1.445,0.913,3.101,1.395,4.791,1.395
		c0.667,0,1.34-0.075,1.999-0.224c3.283-0.74,5.901-3.292,6.738-6.539c-1.937-0.144-3.469-1.766-3.469-3.74
		c0-1.973,1.532-3.595,3.469-3.74c-0.573-2.232-1.953-4.131-3.91-5.367c-1.445-0.913-3.102-1.396-4.791-1.396
		c-0.667,0-1.34,0.075-1.999,0.224C6.735,2.462,4.117,5.013,3.28,8.26C5.217,8.404,6.749,10.027,6.749,12
		C6.749,13.973,5.217,15.595,3.28,15.739z"/>
	<path d="M11.999,19.5c-0.414,0-0.75-0.336-0.75-0.75v-4.629l-2.91,3.6C8.197,17.898,7.984,18,7.756,18
		c-0.17,0-0.338-0.059-0.471-0.166c-0.156-0.127-0.254-0.306-0.275-0.505c-0.021-0.199,0.037-0.395,0.163-0.551l3.256-4.029h-1.43
		c-0.414,0-0.75-0.336-0.75-0.75s0.336-0.75,0.75-0.75h1.429L7.173,7.221C7.047,7.065,6.989,6.87,7.011,6.671
		c0.021-0.199,0.119-0.378,0.275-0.504C7.418,6.059,7.585,6,7.756,6c0.228,0,0.44,0.102,0.583,0.279l2.91,3.6V5.25
		c0-0.414,0.336-0.75,0.75-0.75s0.75,0.336,0.75,0.75v4.629l2.909-3.6C15.802,6.101,16.015,6,16.242,6
		c0.171,0,0.339,0.059,0.472,0.167c0.155,0.125,0.253,0.305,0.274,0.504c0.021,0.199-0.036,0.395-0.162,0.551L13.57,11.25h1.43
		c0.414,0,0.75,0.336,0.75,0.75s-0.336,0.75-0.75,0.75h-1.43l3.256,4.029c0.26,0.321,0.209,0.794-0.112,1.054
		C16.58,17.941,16.413,18,16.243,18c-0.228,0-0.44-0.102-0.583-0.279l-2.91-3.6v4.629C12.749,19.163,12.413,19.5,11.999,19.5z"/>
</g>
</svg>
