<?xml version="1.0" encoding="utf-8"?>
<!-- Generator: Adobe Illustrator 22.1.0, SVG Export Plug-In . SVG Version: 6.00 Build 0)  -->
<svg version="1.1" id="Layer_1" xmlns="http://www.w3.org/2000/svg" xmlns:xlink="http://www.w3.org/1999/xlink" x="0px" y="0px"
	 viewBox="0 0 24 24" style="enable-background:new 0 0 24 24;" xml:space="preserve">
<title>history-epgyptian-mythology</title>
<g>
	<path d="M15.375,18.75c-0.044,0-0.088-0.004-0.13-0.011c-0.513-0.06-0.923-0.47-0.983-0.983c-0.007-0.042-0.011-0.086-0.011-0.13
		s0.004-0.088,0.011-0.131c0.06-0.513,0.47-0.923,0.983-0.983c0.042-0.008,0.086-0.011,0.131-0.011s0.088,0.004,0.131,0.011
		c0.513,0.06,0.923,0.47,0.983,0.983c0.008,0.042,0.011,0.086,0.011,0.131s-0.004,0.088-0.011,0.131
		c-0.06,0.513-0.47,0.923-0.983,0.983C15.463,18.746,15.419,18.75,15.375,18.75z"/>
	<path d="M15,24c-0.286,0-0.543-0.159-0.671-0.414c-0.185-0.37-0.035-0.822,0.335-1.007l1.183-0.592
		c1.161-0.58,2.061-1.561,2.534-2.76c0.002-0.006,0.011-0.029,0.014-0.034c0.232-0.597,0.354-1.243,0.354-1.9V15.75H13.5
		c-1.241,0-2.25,1.009-2.25,2.25s1.009,2.25,2.25,2.25c0.414,0,0.75,0.336,0.75,0.75s-0.336,0.75-0.75,0.75
		c-2.068,0-3.75-1.682-3.75-3.75s1.682-3.75,3.75-3.75h5.138c-0.29-0.879-1.117-1.5-2.073-1.5h-4.076
		c-3.055,0-5.918,1.634-7.472,4.264l-3.621,6.128c-0.134,0.228-0.382,0.369-0.646,0.369c-0.134,0-0.266-0.036-0.382-0.105
		c-0.172-0.102-0.295-0.265-0.344-0.459c-0.05-0.194-0.021-0.396,0.081-0.568l3.621-6.129c1.207-2.042,3.132-3.612,5.373-4.41
		c-1.09-0.655-1.964-1.624-2.503-2.78C6.104,9.5,5.464,9.75,4.793,9.75c-0.414,0-0.75-0.336-0.75-0.75s0.336-0.75,0.75-0.75
		C5.458,8.25,6,7.708,6,7.043V6.375C6,2.86,8.86,0,12.375,0s6.375,2.86,6.375,6.375c0,0.632-0.093,1.252-0.276,1.852
		c0.803-0.134,1.416-0.833,1.417-1.673c0-0.593,0.231-1.15,0.65-1.568c0.419-0.418,0.975-0.648,1.566-0.648h1.142
		c0.414,0,0.75,0.336,0.75,0.75s-0.336,0.75-0.75,0.75h-1.141c-0.192,0-0.372,0.074-0.508,0.21c-0.135,0.135-0.21,0.315-0.21,0.507
		C21.39,8.316,19.956,9.75,18.194,9.75c-0.131,0-0.264-0.009-0.398-0.026c-0.357,0.577-0.803,1.092-1.318,1.526h0.087
		c2.032,0,3.685,1.653,3.685,3.685v0.13c1.772,0.309,3.217,1.697,3.573,3.479l0.162,0.808c0.045,0.221-0.012,0.448-0.155,0.623
		c-0.143,0.174-0.354,0.275-0.58,0.275h-3.677c-0.645,1.325-1.722,2.412-3.055,3.079l-1.183,0.592C15.232,23.973,15.116,24,15,24z
		 M22.333,18.75c-0.245-1.057-1.051-1.875-2.083-2.149v0.691c0,0.49-0.053,0.979-0.159,1.458H22.333z M12.375,1.5
		C9.687,1.5,7.5,3.687,7.5,6.375s2.187,4.875,4.875,4.875c2.688,0,4.875-2.187,4.875-4.875S15.063,1.5,12.375,1.5z"/>
</g>
</svg>
