<?xml version="1.0" encoding="utf-8"?>
<!-- Generator: Adobe Illustrator 22.1.0, SVG Export Plug-In . SVG Version: 6.00 Build 0)  -->
<svg version="1.1" id="Layer_1" xmlns="http://www.w3.org/2000/svg" xmlns:xlink="http://www.w3.org/1999/xlink" x="0px" y="0px"
	 viewBox="0 0 24 24" style="enable-background:new 0 0 24 24;" xml:space="preserve">
<title>history-spartan-mask</title>
<g>
	<path d="M15.753,24.001c-0.114,0-0.229-0.013-0.342-0.04c-0.391-0.091-0.723-0.328-0.935-0.668
		c-0.148-0.237-0.226-0.511-0.227-0.79v-7.502c0-0.414,0.336-0.75,0.75-0.75h1.5c0.414,0,0.75-0.336,0.75-0.75
		s-0.336-0.75-0.75-0.75h-9c-0.414,0-0.75,0.336-0.75,0.75s0.336,0.75,0.75,0.75H9c0.414,0,0.75,0.336,0.75,0.75v7.5
		C9.748,23.328,9.075,24,8.249,24c-0.283-0.001-0.556-0.079-0.792-0.226l-2.034-1.272C3.436,21.26,2.25,19.12,2.25,16.778V9.001
		c0-0.373,0.137-0.726,0.387-1.003c1.669-3.286,4.942-5.45,8.613-5.718v-1.53c0-0.414,0.336-0.75,0.75-0.75s0.75,0.336,0.75,0.75
		v1.53c1.36,0.095,2.67,0.449,3.898,1.055c2.021,0.998,3.694,2.652,4.716,4.664c0.249,0.276,0.386,0.63,0.386,1.002v7.777
		c0,2.343-1.186,4.483-3.173,5.724l-2.031,1.271C16.306,23.922,16.032,24.001,15.753,24.001z M3.75,16.778
		c0,1.822,0.922,3.487,2.467,4.452l2.032,1.271l0-6.75H7.5c-1.241,0-2.25-1.009-2.25-2.25s1.009-2.25,2.25-2.25h9
		c1.241,0,2.25,1.009,2.25,2.25s-1.009,2.25-2.25,2.25h-0.75v6.75l2.032-1.271c1.545-0.966,2.468-2.63,2.468-4.452V9.001H3.75
		V16.778z M19.308,7.501c-0.863-1.2-2-2.167-3.323-2.82c-1.02-0.504-2.107-0.804-3.234-0.896v1.466c0,0.414-0.336,0.75-0.75,0.75
		s-0.75-0.336-0.75-0.75V3.785C8.611,4.008,6.221,5.366,4.69,7.501H19.308z"/>
</g>
</svg>
