<?xml version="1.0" encoding="utf-8"?>
<!-- Generator: Adobe Illustrator 22.1.0, SVG Export Plug-In . SVG Version: 6.00 Build 0)  -->
<svg version="1.1" id="Layer_1" xmlns="http://www.w3.org/2000/svg" xmlns:xlink="http://www.w3.org/1999/xlink" x="0px" y="0px"
	 viewBox="0 0 24 24" style="enable-background:new 0 0 24 24;" xml:space="preserve">
<title>history-spiral</title>
<g>
	<path d="M18.83,23.189c-0.358,0-0.72-0.038-1.075-0.113c-2.309-0.49-3.79-2.764-3.302-5.07c0.001-0.005,0.005-0.021,0.006-0.025
		c0.197-0.916,0.746-1.712,1.542-2.229c0.581-0.378,1.252-0.577,1.94-0.577c0.249,0,0.5,0.026,0.747,0.078
		c0.003,0.001,0.007,0.001,0.01,0.002c1.615,0.348,2.651,1.946,2.308,3.563c-0.073,0.344-0.383,0.594-0.736,0.594
		c-0.049,0-0.1-0.005-0.15-0.015c-0.408-0.087-0.668-0.486-0.582-0.89c0.173-0.812-0.348-1.614-1.161-1.787
		c-0.146-0.031-0.291-0.046-0.435-0.046c-0.397,0-0.786,0.116-1.123,0.335c-0.464,0.301-0.782,0.765-0.897,1.306
		c-0.002,0.008-0.004,0.017-0.006,0.025c-0.308,1.477,0.652,2.949,2.143,3.266c0.006,0.001,0.012,0.003,0.019,0.004
		c0.249,0.05,0.501,0.075,0.75,0.075c0.706,0,1.393-0.205,1.988-0.592c0.818-0.533,1.38-1.353,1.581-2.308l0.016-0.075
		c0.521-2.547-1.129-5.047-3.678-5.568c-0.275-0.052-0.584-0.08-0.913-0.08c-1.924,0-4.119,0.897-4.992,1.292
		c-0.121,1.285-0.59,4.635-2.27,6.586c-1.183,1.335-2.883,2.099-4.665,2.099c-1.521,0-2.984-0.555-4.121-1.562l-0.065-0.059
		c-2.113-1.902-2.285-5.169-0.383-7.283c0.809-0.898,1.968-1.413,3.181-1.413c1.058,0,2.073,0.389,2.859,1.095
		c1.461,1.314,1.582,3.574,0.271,5.037c-0.573,0.637-1.388,1-2.241,1c-0.739,0-1.45-0.271-2.001-0.762
		c-0.284-0.24-0.343-0.665-0.132-0.982c0.139-0.209,0.373-0.334,0.624-0.334c0.148,0,0.292,0.044,0.416,0.126
		c0.006,0.004,0.029,0.02,0.034,0.024c0.02,0.015,0.037,0.029,0.054,0.044c0.275,0.247,0.632,0.384,1.004,0.384
		c0.427,0,0.834-0.181,1.119-0.496c0.766-0.851,0.696-2.163-0.152-2.926c-0.51-0.458-1.169-0.711-1.856-0.711
		c-0.788,0-1.54,0.334-2.065,0.917c-1.348,1.499-1.226,3.816,0.273,5.166l0.056,0.05c0.862,0.764,1.973,1.185,3.128,1.185
		c1.352,0,2.64-0.578,3.533-1.586c1.384-1.607,1.8-4.704,1.902-5.72c-1.053-0.747-3.719-2.828-4.569-5.259
		C6.237,7.392,6.356,5.704,7.099,4.218c0.743-1.486,2.02-2.593,3.596-3.119l0.085-0.028c0.516-0.168,1.051-0.253,1.589-0.253
		c2.242,0,4.214,1.432,4.908,3.563c0.729,2.241-0.501,4.658-2.741,5.389c-0.357,0.116-0.728,0.175-1.101,0.175
		c-1.553,0-2.919-0.991-3.4-2.466c-0.515-1.575,0.348-3.275,1.924-3.79c0.039-0.013,0.078-0.019,0.117-0.019
		c0.157,0,0.303,0.099,0.355,0.256l0.119,0.356l0.108,0.377c0.055,0.194-0.052,0.397-0.244,0.459
		c-0.783,0.256-1.21,1.107-0.953,1.896c0.279,0.856,1.071,1.431,1.972,1.431c0.216,0,0.431-0.034,0.638-0.102
		c1.454-0.474,2.252-2.044,1.779-3.499c-0.491-1.511-1.89-2.526-3.481-2.526c-0.382,0-0.761,0.06-1.128,0.179l-0.075,0.024
		C9.973,2.921,9.004,3.761,8.44,4.889C7.877,6.016,7.786,7.296,8.184,8.491c0.699,1.999,3.174,3.911,4.002,4.508
		c0.947-0.434,3.378-1.435,5.633-1.435c0.427,0,0.833,0.036,1.207,0.107c3.366,0.688,5.543,3.98,4.856,7.339l-0.02,0.092
		c-0.283,1.342-1.075,2.496-2.229,3.248C20.793,22.9,19.824,23.189,18.83,23.189z"/>
</g>
</svg>
