<?xml version="1.0" encoding="utf-8"?>
<!-- Generator: Adobe Illustrator 22.1.0, SVG Export Plug-In . SVG Version: 6.00 Build 0)  -->
<svg version="1.1" id="Layer_1" xmlns="http://www.w3.org/2000/svg" xmlns:xlink="http://www.w3.org/1999/xlink" x="0px" y="0px"
	 viewBox="0 0 24 24" style="enable-background:new 0 0 24 24;" xml:space="preserve">
<title>history-silk-bug</title>
<g>
	<path d="M12,7.5c-2.068,0-3.75-1.682-3.75-3.75S9.932,0,12,0c2.068,0,3.75,1.682,3.75,3.75S14.068,7.5,12,7.5z M12,1.5
		c-1.241,0-2.25,1.009-2.25,2.25S10.76,6,12,6c1.241,0,2.25-1.009,2.25-2.25S13.241,1.5,12,1.5z"/>
	<path d="M16.5,24c-0.2,0-0.389-0.078-0.53-0.22c-0.142-0.142-0.219-0.33-0.219-0.531c0.001-0.657-0.212-1.286-0.604-1.803
		C14.238,22.128,13.135,22.5,12,22.5s-2.238-0.372-3.145-1.054c-0.393,0.518-0.605,1.146-0.605,1.803c0,0.2-0.078,0.389-0.219,0.531
		C7.89,23.922,7.701,24,7.501,24c-0.414,0-0.75-0.336-0.751-0.749c-0.001-1.058,0.365-2.066,1.039-2.873
		c-0.62-0.833-0.981-1.834-1.032-2.869C6.274,18.052,6,18.756,6,19.5c0,0.414-0.336,0.75-0.75,0.75S4.5,19.914,4.5,19.5
		c0-1.621,0.856-3.094,2.25-3.896v-0.717l-1.473-0.44c-2.245-0.674-3.523-3.049-2.849-5.293c0.269-0.897,0.837-1.691,1.6-2.236
		l1.959-1.4c0.127-0.092,0.278-0.14,0.436-0.14c0.242,0,0.47,0.117,0.611,0.314c0.117,0.163,0.163,0.362,0.13,0.559
		C7.13,6.449,7.022,6.622,6.859,6.738L4.9,8.138C4.407,8.491,4.039,9.005,3.865,9.585c-0.211,0.704-0.136,1.447,0.212,2.094
		c0.348,0.647,0.927,1.12,1.631,1.331l1.116,0.333c0.247-1.049,1.111-1.868,2.177-2.052c-0.015-1.269,0.782-2.438,2.005-2.867
		c0.32-0.112,0.654-0.169,0.991-0.169c1.274,0,2.412,0.806,2.833,2.006C14.943,10.58,15,10.913,15,11.251c0,0.013,0,0.027,0,0.04
		c1.066,0.184,1.93,1.003,2.177,2.052l1.117-0.334c0.703-0.211,1.281-0.683,1.63-1.33c0.348-0.647,0.424-1.391,0.212-2.094
		C19.961,9.004,19.593,8.49,19.1,8.138l-1.959-1.4c-0.336-0.24-0.415-0.71-0.174-1.046c0.141-0.197,0.369-0.314,0.611-0.314
		c0.157,0,0.308,0.048,0.436,0.14l1.959,1.4c0.762,0.544,1.33,1.338,1.6,2.236c0.674,2.245-0.604,4.619-2.848,5.293l-1.474,0.44
		v0.717c1.394,0.803,2.25,2.275,2.25,3.896c0,0.414-0.336,0.75-0.75,0.75S18,19.914,18,19.5c0-0.744-0.274-1.448-0.757-1.991
		c-0.052,1.035-0.412,2.035-1.032,2.869c0.674,0.807,1.04,1.815,1.039,2.873C17.25,23.664,16.913,24,16.5,24
		C16.5,24,16.5,24,16.5,24z M8.25,17.25c0,1.781,1.288,3.32,3,3.672V15.75h-3V17.25z M12.75,20.922c1.712-0.352,3-1.892,3-3.672
		v-1.5h-3V20.922z M15.75,14.25v-0.293c0-0.666-0.542-1.207-1.207-1.207h-0.395c-0.009,0.001-0.018,0.001-0.026,0.001
		s-0.017,0-0.026-0.001H9.456c-0.665,0-1.206,0.542-1.206,1.207v0.293H15.75z M13.5,11.25c0-0.168-0.029-0.334-0.085-0.492
		c-0.211-0.6-0.78-1.003-1.417-1.003c-0.168,0-0.335,0.029-0.495,0.085c-0.605,0.212-0.998,0.788-1.001,1.411H13.5z"/>
</g>
</svg>
