<?xml version="1.0" encoding="utf-8"?>
<!-- Generator: Adobe Illustrator 22.1.0, SVG Export Plug-In . SVG Version: 6.00 Build 0)  -->
<svg version="1.1" id="Layer_1" xmlns="http://www.w3.org/2000/svg" xmlns:xlink="http://www.w3.org/1999/xlink" x="0px" y="0px"
	 viewBox="0 0 24 24" style="enable-background:new 0 0 24 24;" xml:space="preserve">
<title>history-egyptian-mythology-1</title>
<g>
	<path d="M11.009,9c-0.044,0-0.088-0.004-0.131-0.012c-0.513-0.06-0.922-0.47-0.982-0.982C9.888,7.963,9.884,7.919,9.884,7.875
		s0.004-0.088,0.012-0.131c0.06-0.513,0.47-0.922,0.982-0.982c0.043-0.008,0.087-0.012,0.131-0.012s0.088,0.004,0.131,0.012
		c0.513,0.06,0.922,0.47,0.982,0.982c0.008,0.043,0.012,0.087,0.012,0.131s-0.004,0.088-0.012,0.131
		c-0.06,0.513-0.47,0.922-0.982,0.982C11.097,8.996,11.053,9,11.009,9z"/>
	<path d="M7.634,24c-0.827,0-1.5-0.673-1.5-1.5v-0.847l-3.87,1.787c-0.199,0.092-0.411,0.138-0.63,0.138c-0.827,0-1.5-0.674-1.5-1.5
		v-9.266c0.001-1.622,0.633-3.146,1.779-4.29c0.742-0.741,1.646-1.266,2.644-1.543L4.521,6.945C2.737,5.16,2.531,2.307,4.034,0.3
		c0.13-0.174,0.33-0.283,0.547-0.298C4.598,0,4.617,0,4.636,0c0.199,0,0.387,0.078,0.529,0.22l3.267,3.267
		C9.121,3.168,9.876,3,10.634,3c1.73,0.055,3.315,0.865,4.36,2.22C15.407,5.711,16.032,6,16.699,6h5.669
		c0.108,0,0.216,0.012,0.321,0.035c0.391,0.085,0.726,0.318,0.942,0.656c0.212,0.331,0.286,0.725,0.207,1.11l-0.614,4.305
		c-0.006,0.04-0.014,0.077-0.025,0.112c-0.477,1.559-1.89,2.676-3.516,2.78L18.135,15c-0.083-0.004-0.143-0.006-0.202-0.006
		c-0.941,0-1.811,0.461-2.329,1.234c-0.34,0.55-0.002,1.731,0.215,2.215c0.169,0.377,0.001,0.822-0.376,0.992
		c-0.098,0.044-0.201,0.066-0.308,0.066c-0.295,0-0.563-0.174-0.684-0.442c-0.102-0.228-0.966-2.255-0.108-3.642
		c0.809-1.208,2.144-1.922,3.58-1.922c0.086,0,0.172,0.002,0.258,0.008l1.454-0.001c0.89-0.059,1.698-0.652,2.05-1.5h-3.55
		c-0.414,0-0.75-0.336-0.75-0.75s0.336-0.75,0.75-0.75h3.803l0.42-2.946c0.004-0.023,0.006-0.038,0.01-0.054l-5.667,0
		c-1.113,0-2.16-0.488-2.875-1.34c-0.786-1.019-1.955-1.62-3.215-1.66c-2.049,0-3.726,1.683-3.726,3.75
		c0,2.068,1.682,3.75,3.75,3.75c0.414,0,0.75,0.336,0.75,0.75s-0.336,0.75-0.75,0.75c-2.87,0-5.21-2.315-5.25-5.176
		c-0.916,0.161-1.743,0.592-2.412,1.26c-0.862,0.861-1.338,2.006-1.339,3.225v9.269l1.5-0.692V12.75c0-0.414,0.336-0.75,0.75-0.75
		s0.75,0.336,0.75,0.75v7.943l1.5-0.692V14.25c0-0.414,0.336-0.75,0.75-0.75s0.75,0.336,0.75,0.75v8.25h2.25v-3.75
		c0-0.414,0.336-0.75,0.75-0.75s0.75,0.336,0.75,0.75v3.75c0,0.827-0.673,1.5-1.5,1.5H7.634z M4.795,1.971
		C4.246,3.293,4.534,4.837,5.567,5.87l0.268,0.254C6.139,5.44,6.586,4.831,7.153,4.329L4.795,1.971z"/>
</g>
</svg>
