<?xml version="1.0" encoding="utf-8"?>
<!-- Generator: Adobe Illustrator 22.1.0, SVG Export Plug-In . SVG Version: 6.00 Build 0)  -->
<svg version="1.1" id="Layer_1" xmlns="http://www.w3.org/2000/svg" xmlns:xlink="http://www.w3.org/1999/xlink" x="0px" y="0px"
	 viewBox="0 0 24 24" style="enable-background:new 0 0 24 24;" xml:space="preserve">
<title>history-piggy</title>
<g>
	<path d="M16.125,12c-0.044,0-0.088-0.004-0.131-0.011c-0.513-0.06-0.922-0.47-0.982-0.983C15.004,10.963,15,10.919,15,10.875
		s0.004-0.088,0.011-0.13c0.06-0.513,0.47-0.923,0.982-0.983c0.043-0.008,0.087-0.011,0.131-0.011s0.088,0.004,0.131,0.011
		c0.513,0.06,0.922,0.47,0.983,0.983c0.007,0.042,0.011,0.086,0.011,0.13s-0.004,0.088-0.011,0.13
		c-0.061,0.513-0.47,0.923-0.983,0.983C16.213,11.996,16.169,12,16.125,12z"/>
	<path d="M7.875,12c-0.044,0-0.088-0.004-0.131-0.012c-0.513-0.06-0.922-0.47-0.982-0.982c-0.008-0.043-0.012-0.087-0.012-0.131
		s0.004-0.088,0.012-0.131c0.06-0.513,0.47-0.922,0.982-0.982C7.787,9.754,7.831,9.75,7.875,9.75s0.088,0.004,0.131,0.012
		c0.513,0.06,0.922,0.47,0.982,0.982C8.996,10.787,9,10.831,9,10.875s-0.004,0.088-0.012,0.131c-0.06,0.513-0.47,0.922-0.982,0.982
		C7.963,11.996,7.919,12,7.875,12z"/>
	<path d="M12,24c-0.164,0-0.319-0.052-0.45-0.15L8.86,21.833l-1.874,0.603c-0.073,0.024-0.151,0.036-0.23,0.036
		c-0.143,0-0.283-0.041-0.404-0.119c-4.061-2.594-5.836-7.601-4.316-12.174c0.102-0.307,0.388-0.513,0.712-0.513
		c0.08,0,0.16,0.013,0.236,0.038c0.393,0.13,0.606,0.556,0.475,0.948c-1.259,3.79,0.143,7.976,3.412,10.245l1.899-0.611
		C8.845,20.262,8.922,20.25,9,20.25c0.161,0,0.321,0.053,0.45,0.15L12,22.312l2.55-1.913c0.129-0.097,0.289-0.15,0.45-0.15
		c0.078,0,0.156,0.012,0.231,0.037l1.898,0.611c3.269-2.269,4.671-6.455,3.412-10.245c-0.13-0.393,0.083-0.818,0.476-0.948
		c0.076-0.026,0.156-0.039,0.237-0.039c0.324,0,0.61,0.206,0.712,0.514c1.52,4.573-0.256,9.58-4.317,12.174
		c-0.12,0.077-0.26,0.118-0.404,0.118l0,0c-0.079,0-0.157-0.012-0.232-0.037l-1.872-0.602l-2.69,2.017
		C12.319,23.948,12.164,24,12,24z"/>
	<path d="M11.25,19.5c-0.414,0-0.75-0.336-0.75-0.75S10.836,18,11.25,18h1.5c0.414,0,0.75,0.336,0.75,0.75s-0.336,0.75-0.75,0.75
		H11.25z"/>
	<path d="M0.75,8.25C0.336,8.25,0,7.914,0,7.5s0.336-0.75,0.75-0.75h3.891l1.064-5.066c0.004-0.017,0.008-0.035,0.013-0.052
		C5.992,0.671,6.882,0,7.881,0h8.238c0.999,0,1.888,0.671,2.163,1.632c0.005,0.019,0.01,0.038,0.014,0.058l1.063,5.061h3.891
		C23.664,6.75,24,7.086,24,7.5s-0.336,0.75-0.75,0.75c0,0-4.497,0-4.5,0L0.75,8.25z M17.826,6.75l-0.993-4.727
		C16.735,1.714,16.443,1.5,16.119,1.5H7.881h0c-0.325,0-0.616,0.214-0.715,0.523L6.174,6.75H17.826z"/>
	<path d="M9.75,15.75C9.336,15.75,9,15.414,9,15v-0.75c0-1.654,1.346-3,3-3c1.654,0,3,1.346,3,3V15c0,0.414-0.336,0.75-0.75,0.75
		H9.75z M13.5,14.25c0-0.827-0.673-1.5-1.5-1.5s-1.5,0.673-1.5,1.5H13.5z"/>
	<path d="M13.5,6c-0.163,0-0.318-0.052-0.449-0.15L12,5.063L10.95,5.85C10.819,5.948,10.664,6,10.5,6c-0.235,0-0.459-0.112-0.6-0.3
		c-0.248-0.331-0.181-0.802,0.15-1.05l0.7-0.525L10.05,3.6C9.719,3.352,9.652,2.881,9.9,2.55c0.141-0.188,0.366-0.3,0.601-0.3
		c0.163,0,0.319,0.052,0.449,0.15L12,3.187L13.05,2.4c0.132-0.098,0.287-0.15,0.45-0.15c0.235,0,0.459,0.112,0.6,0.3
		c0.248,0.331,0.181,0.802-0.15,1.05l-0.7,0.525l0.7,0.525c0.331,0.248,0.398,0.719,0.15,1.05C13.959,5.888,13.735,6,13.5,6z"/>
</g>
</svg>
