<?xml version="1.0" encoding="utf-8"?>
<!-- Generator: Adobe Illustrator 22.1.0, SVG Export Plug-In . SVG Version: 6.00 Build 0)  -->
<svg version="1.1" id="Layer_1" xmlns="http://www.w3.org/2000/svg" xmlns:xlink="http://www.w3.org/1999/xlink" x="0px" y="0px"
	 viewBox="0 0 24 24" style="enable-background:new 0 0 24 24;" xml:space="preserve">
<title>history-seat</title>
<g>
	<path d="M18,22.125c-0.309,0-0.582-0.185-0.696-0.472l-1.312-3.278H8.008l-1.311,3.278C6.582,21.94,6.309,22.125,6,22.125
		c-0.096,0-0.19-0.018-0.279-0.054c-0.186-0.074-0.332-0.217-0.41-0.401c-0.079-0.184-0.081-0.388-0.007-0.574l1.426-3.565
		L5.022,5.304C4.8,4.196,3.791,3.376,2.627,3.376C2.005,3.376,1.5,3.881,1.5,4.501s0.505,1.125,1.125,1.125H3
		c0.414,0,0.75,0.336,0.75,0.75v6c0,0.414,0.336,0.75,0.75,0.75s0.75,0.336,0.75,0.75s-0.336,0.75-0.75,0.75
		c-1.241,0-2.25-1.009-2.25-2.25V7.099C0.98,6.917,0,5.821,0,4.501c0-1.447,1.178-2.625,2.625-2.625
		c1.879,0,3.508,1.336,3.876,3.177l0.395,2.822h10.209l0.388-2.779c0.372-1.875,2.003-3.221,3.881-3.221
		C22.823,1.875,24,3.053,24,4.5c0,1.32-0.979,2.416-2.25,2.598v5.277c0,1.241-1.009,2.25-2.25,2.25c-0.414,0-0.75-0.336-0.75-0.75
		s0.336-0.75,0.75-0.75s0.75-0.336,0.75-0.75v-6c0-0.414,0.336-0.75,0.75-0.75h0.375c0.62,0,1.125-0.505,1.125-1.125
		s-0.505-1.125-1.125-1.125c-1.166,0-2.177,0.829-2.405,1.971l-1.7,12.185l1.426,3.565c0.074,0.186,0.072,0.39-0.007,0.574
		c-0.079,0.184-0.225,0.327-0.411,0.401C18.19,22.107,18.096,22.125,18,22.125z M15.848,16.875l1.047-7.5h-9.79l1.048,7.5H15.848z"
		/>
</g>
</svg>
