<?xml version="1.0" encoding="utf-8"?>
<!-- Generator: Adobe Illustrator 22.1.0, SVG Export Plug-In . SVG Version: 6.00 Build 0)  -->
<svg version="1.1" id="Layer_1" xmlns="http://www.w3.org/2000/svg" xmlns:xlink="http://www.w3.org/1999/xlink" x="0px" y="0px"
	 viewBox="0 0 24 24" style="enable-background:new 0 0 24 24;" xml:space="preserve">
<title>history-urn</title>
<g>
	<path d="M8.3,24.002c-0.639,0-1.25-0.274-1.676-0.75c-1.631-1.823-2.769-4.05-3.291-6.442c-0.045-0.098-0.068-0.204-0.068-0.31
		c0-0.006,0-0.013,0-0.019c-0.175-0.902-0.263-1.817-0.262-2.72c0.009-0.688,0.149-1.354,0.429-2.04
		c0.003-0.006,0.013-0.03,0.016-0.036c0.553-1.345,1.563-2.529,2.54-3.674c1.895-2.22,3.399-3.983,1.77-6.511H6
		c-0.414,0-0.75-0.336-0.75-0.75S5.586,0,6,0h12c0.414,0,0.75,0.336,0.75,0.75S18.414,1.5,18,1.5h-1.756
		c-1.629,2.528-0.125,4.291,1.769,6.511c0.98,1.149,1.994,2.337,2.552,3.7c0.282,0.689,0.423,1.356,0.432,2.041
		c0.001,0.907-0.087,1.821-0.262,2.723c0,0.008,0.001,0.017,0.001,0.025c0,0.108-0.024,0.216-0.071,0.316
		c-0.222,1.013-0.556,2.004-0.993,2.946c-0.014,0.038-0.031,0.075-0.051,0.109c-0.586,1.233-1.341,2.371-2.245,3.381
		c-0.426,0.476-1.037,0.75-1.676,0.75C15.699,24.002,8.3,24.002,8.3,24.002z M6.278,20.25c0.424,0.717,0.915,1.388,1.464,2.002
		c0.142,0.159,0.346,0.25,0.559,0.25h7.399c0.212,0,0.416-0.091,0.558-0.25c0.549-0.614,1.04-1.285,1.464-2.002H6.278z
		 M18.481,18.75c0.207-0.488,0.385-0.99,0.53-1.5h-2.025c-0.683,0-1.239-0.556-1.239-1.239V15.75h-1.504v0.261
		c0,0.683-0.556,1.239-1.239,1.239h-2.013c-0.683,0-1.239-0.556-1.239-1.239V15.75H8.248v0.261c0,0.683-0.556,1.239-1.239,1.239
		H4.988c0.145,0.51,0.322,1.012,0.53,1.5H18.481z M19.342,15.75c0.103-0.658,0.155-1.325,0.155-1.989
		c-0.004-0.331-0.056-0.665-0.158-1.011H4.66c-0.102,0.348-0.154,0.684-0.159,1.021c0,0.657,0.051,1.323,0.155,1.979h2.092v-0.261
		c0-0.683,0.556-1.239,1.239-1.239h2.026c0.683,0,1.239,0.556,1.239,1.239v0.261h1.491v-0.261c0-0.683,0.556-1.239,1.239-1.239
		h2.024c0.684,0,1.241,0.556,1.241,1.239v0.261H19.342z M18.631,11.25c-0.493-0.781-1.134-1.534-1.759-2.266
		c-1.778-2.083-3.779-4.427-2.344-7.484H9.472c1.434,3.057-0.567,5.402-2.344,7.485c-0.624,0.732-1.266,1.484-1.759,2.265H18.631z"
		/>
</g>
</svg>
