<?xml version="1.0" encoding="utf-8"?>
<!-- Generator: Adobe Illustrator 22.1.0, SVG Export Plug-In . SVG Version: 6.00 Build 0)  -->
<svg version="1.1" id="Regular" xmlns="http://www.w3.org/2000/svg" xmlns:xlink="http://www.w3.org/1999/xlink" x="0px" y="0px"
	 viewBox="0 0 24 24" style="enable-background:new 0 0 24 24;" xml:space="preserve">
<title>hospital-board</title>
<g>
	<path d="M12,24C5.383,24,0,18.617,0,12C0,5.383,5.383,0,12,0c6.617,0,12,5.383,12,12C24,18.617,18.617,24,12,24z M12,1.5
		C6.21,1.5,1.5,6.21,1.5,12c0,5.79,4.71,10.5,10.5,10.5c5.79,0,10.5-4.71,10.5-10.5C22.5,6.21,17.79,1.5,12,1.5z"/>
	<path d="M10.5,19.5C9.673,19.5,9,18.827,9,18v-3H6c-0.827,0-1.5-0.673-1.5-1.5v-3C4.5,9.673,5.173,9,6,9h3V6
		c0-0.827,0.673-1.5,1.5-1.5h3C14.327,4.5,15,5.173,15,6v3h3c0.827,0,1.5,0.673,1.5,1.5v3c0,0.827-0.673,1.5-1.5,1.5h-3v3
		c0,0.827-0.673,1.5-1.5,1.5H10.5z M6,13.5h3.75c0.414,0,0.75,0.336,0.75,0.75V18h3v-3.75c0-0.414,0.336-0.75,0.75-0.75H18v-3h-3.75
		c-0.414,0-0.75-0.336-0.75-0.75V6h-3v3.75c0,0.414-0.336,0.75-0.75,0.75H6V13.5z"/>
</g>
</svg>
