<?xml version="1.0" encoding="utf-8"?>
<!-- Generator: Adobe Illustrator 22.1.0, SVG Export Plug-In . SVG Version: 6.00 Build 0)  -->
<svg version="1.1" id="Regular" xmlns="http://www.w3.org/2000/svg" xmlns:xlink="http://www.w3.org/1999/xlink" x="0px" y="0px"
	 viewBox="0 0 24 24" style="enable-background:new 0 0 24 24;" xml:space="preserve">
<title>hospital-bedroom</title>
<g>
	<path d="M22.5,24c-0.414,0-0.75-0.336-0.75-0.75V22.5H2.25v0.75C2.25,23.664,1.914,24,1.5,24s-0.75-0.336-0.75-0.75v-9
		c0-0.414,0.336-0.75,0.75-0.75s0.75,0.336,0.75,0.75V18h2.652C4.64,17.549,4.5,17.035,4.5,16.5c0-1.654,1.346-3,3-3s3,1.346,3,3
		c0,0.535-0.14,1.049-0.402,1.5h1.152v-3.75c0-0.414,0.336-0.75,0.75-0.75h8.5c1.516,0,2.75,1.234,2.75,2.75v7
		C23.25,23.664,22.914,24,22.5,24z M21.75,21v-1.5H2.25V21H21.75z M21.75,18v-1.75c0-0.689-0.561-1.25-1.25-1.25h-7.75v3H21.75z
		 M7.5,15C6.673,15,6,15.673,6,16.5S6.673,18,7.5,18S9,17.327,9,16.5S8.327,15,7.5,15z"/>
	<path d="M11.25,12c-0.827,0-1.5-0.673-1.5-1.5V9h-1.5c-0.827,0-1.5-0.673-1.5-1.5v-3c0-0.827,0.673-1.5,1.5-1.5h1.5V1.5
		c0-0.827,0.673-1.5,1.5-1.5h3c0.827,0,1.5,0.673,1.5,1.5V3h1.5c0.827,0,1.5,0.673,1.5,1.5v3c0,0.827-0.673,1.5-1.5,1.5h-1.5v1.5
		c0,0.827-0.673,1.5-1.5,1.5H11.25z M8.25,7.5h2.25c0.414,0,0.75,0.336,0.75,0.75v2.25h3V8.25c0-0.414,0.336-0.75,0.75-0.75h2.25v-3
		H15c-0.414,0-0.75-0.336-0.75-0.75V1.5h-3v2.25c0,0.414-0.336,0.75-0.75,0.75H8.25V7.5z"/>
</g>
</svg>
