<?xml version="1.0" encoding="utf-8"?>
<!-- Generator: Adobe Illustrator 22.1.0, SVG Export Plug-In . SVG Version: 6.00 Build 0)  -->
<svg version="1.1" id="Regular" xmlns="http://www.w3.org/2000/svg" xmlns:xlink="http://www.w3.org/1999/xlink" x="0px" y="0px"
	 viewBox="0 0 24 24" style="enable-background:new 0 0 24 24;" xml:space="preserve">
<title>hospital-sign-circle</title>
<g>
	<path d="M12,24C5.383,24,0,18.617,0,12C0,5.383,5.383,0,12,0c6.617,0,12,5.383,12,12C24,18.617,18.617,24,12,24z M12,1.5
		C6.21,1.5,1.5,6.21,1.5,12c0,5.79,4.71,10.5,10.5,10.5c5.79,0,10.5-4.71,10.5-10.5C22.5,6.21,17.79,1.5,12,1.5z"/>
	<path d="M15.75,18C15.336,18,15,17.664,15,17.25V13.5H9v3.75C9,17.664,8.664,18,8.25,18S7.5,17.664,7.5,17.25V6.75
		C7.5,6.336,7.836,6,8.25,6S9,6.336,9,6.75V12h6V6.75C15,6.336,15.336,6,15.75,6s0.75,0.336,0.75,0.75v10.5
		C16.5,17.664,16.164,18,15.75,18z"/>
</g>
</svg>
