<?xml version="1.0" encoding="utf-8"?>
<!-- Generator: Adobe Illustrator 22.1.0, SVG Export Plug-In . SVG Version: 6.00 Build 0)  -->
<svg version="1.1" id="Layer_1" xmlns="http://www.w3.org/2000/svg" xmlns:xlink="http://www.w3.org/1999/xlink" x="0px" y="0px"
	 viewBox="0 0 24 24" style="enable-background:new 0 0 24 24;" xml:space="preserve">
<title>hotel-information</title>
<g>
	<path d="M18,12c-3.308,0-6-2.692-6-6s2.692-6,6-6s6,2.692,6,6S21.308,12,18,12z M18,1.5c-2.481,0-4.5,2.019-4.5,4.5
		s2.019,4.5,4.5,4.5s4.5-2.019,4.5-4.5S20.481,1.5,18,1.5z"/>
	<path d="M18,9.375c-0.414,0-0.75-0.336-0.75-0.75V6c0-0.414,0.336-0.75,0.75-0.75S18.75,5.586,18.75,6v2.625
		C18.75,9.039,18.414,9.375,18,9.375z"/>
	<circle cx="18" cy="3.756" r="1.125"/>
	<path d="M23.25,24c-0.414,0-0.75-0.336-0.75-0.75V22.5h-21v0.75C1.5,23.664,1.164,24,0.75,24S0,23.664,0,23.25v-9
		c0-0.414,0.336-0.75,0.75-0.75s0.75,0.336,0.75,0.75V18h2.652C3.89,17.549,3.75,17.035,3.75,16.5c0-1.654,1.346-3,3-3s3,1.346,3,3
		c0,0.535-0.14,1.049-0.402,1.5H10.5v-3.75c0-0.414,0.336-0.75,0.75-0.75h10c1.516,0,2.75,1.234,2.75,2.75v7
		C24,23.664,23.664,24,23.25,24z M22.5,21v-1.5h-21V21H22.5z M22.5,18v-1.75c0-0.689-0.561-1.25-1.25-1.25H12v3H22.5z M6.75,15
		c-0.827,0-1.5,0.673-1.5,1.5S5.923,18,6.75,18s1.5-0.673,1.5-1.5S7.577,15,6.75,15z"/>
</g>
</svg>
