<?xml version="1.0" encoding="utf-8"?>
<!-- Generator: Adobe Illustrator 22.1.0, SVG Export Plug-In . SVG Version: 6.00 Build 0)  -->
<svg version="1.1" id="Layer_1" xmlns="http://www.w3.org/2000/svg" xmlns:xlink="http://www.w3.org/1999/xlink" x="0px" y="0px"
	 viewBox="0 0 24 24" style="enable-background:new 0 0 24 24;" xml:space="preserve">
<title>hotel-bunk-bed-2</title>
<g>
	<path d="M0.75,24C0.336,24,0,23.664,0,23.25V0.75C0,0.336,0.336,0,0.75,0S1.5,0.336,1.5,0.75v2.379C1.739,3.044,1.991,3,2.25,3h3
		C6.491,3,7.5,4.009,7.5,5.25V6h6.75C14.664,6,15,6.336,15,6.75S14.664,7.5,14.25,7.5H1.5V9h12.75C14.664,9,15,9.336,15,9.75
		s-0.336,0.75-0.75,0.75H1.5v4.629C1.739,15.044,1.991,15,2.25,15h3c1.241,0,2.25,1.009,2.25,2.25V18h6.75
		c0.414,0,0.75,0.336,0.75,0.75s-0.336,0.75-0.75,0.75H1.5V21h12.75c0.414,0,0.75,0.336,0.75,0.75s-0.336,0.75-0.75,0.75H1.5v0.75
		C1.5,23.664,1.164,24,0.75,24z M6,18v-0.75c0-0.414-0.336-0.75-0.75-0.75h-3c-0.414,0-0.75,0.336-0.75,0.75V18H6z M6,6V5.25
		C6,4.836,5.664,4.5,5.25,4.5h-3C1.836,4.5,1.5,4.836,1.5,5.25V6H6z"/>
	<path d="M23.25,24c-0.414,0-0.75-0.336-0.75-0.75V21H18v2.25c0,0.414-0.336,0.75-0.75,0.75s-0.75-0.336-0.75-0.75V3.75
		C16.5,3.336,16.836,3,17.25,3S18,3.336,18,3.75V6h4.5V3.75C22.5,3.336,22.836,3,23.25,3S24,3.336,24,3.75v19.5
		C24,23.664,23.664,24,23.25,24z M22.5,19.5v-3H18v3H22.5z M22.5,15v-3H18L22.5,15z M22.5,10.5v-3H18v3H22.5z"/>
</g>
</svg>
