<?xml version="1.0" encoding="utf-8"?>
<!-- Generator: Adobe Illustrator 22.1.0, SVG Export Plug-In . SVG Version: 6.00 Build 0)  -->
<svg version="1.1" id="Layer_1" xmlns="http://www.w3.org/2000/svg" xmlns:xlink="http://www.w3.org/1999/xlink" x="0px" y="0px"
	 viewBox="0 0 24 24" style="enable-background:new 0 0 24 24;" xml:space="preserve">
<title>house-heart</title>
<g>
	<path d="M5.25,23.751c-1.241,0-2.25-1.009-2.25-2.25v-7.5c0-0.414,0.336-0.75,0.75-0.75s0.75,0.336,0.75,0.75v7.5
		c0,0.414,0.336,0.75,0.75,0.75h13.5c0.414,0,0.75-0.336,0.75-0.75v-7.5c0-0.414,0.336-0.75,0.75-0.75S21,13.588,21,14.001v7.5
		c0,1.241-1.009,2.25-2.25,2.25H5.25z"/>
	<path d="M23.25,13.38c-0.2,0-0.389-0.078-0.53-0.22L12.536,2.976C12.389,2.829,12.201,2.751,12,2.751
		c-0.201,0-0.389,0.078-0.531,0.219L1.28,13.161c-0.141,0.142-0.33,0.22-0.53,0.22s-0.389-0.078-0.53-0.22
		C0.078,13.019,0,12.83,0,12.63c0-0.2,0.078-0.389,0.22-0.53L10.409,1.91c0.424-0.425,0.99-0.658,1.591-0.658
		c0.598,0,1.161,0.231,1.584,0.651l2.166,2.166V3.501c0-0.414,0.336-0.75,0.75-0.75h3.75c0.414,0,0.75,0.336,0.75,0.75v5.818
		l2.78,2.781c0.142,0.142,0.22,0.33,0.22,0.53c0,0.2-0.078,0.389-0.22,0.53S23.45,13.38,23.25,13.38z M19.5,7.819V4.251h-2.25v1.318
		L19.5,7.819z"/>
	<path d="M11.983,19.252c-0.369-0.009-0.7-0.155-0.945-0.412l-3.507-3.627c-1.042-1.091-1.042-2.796-0.003-3.884
		c0.03-0.031,0.06-0.061,0.091-0.091c0.494-0.47,1.143-0.73,1.827-0.73c0.733,0,1.415,0.292,1.919,0.821L12,11.986l0.64-0.662
		c0.025-0.026,0.056-0.058,0.089-0.088c0.493-0.47,1.136-0.73,1.809-0.73c0.028,0,0.056,0,0.084,0.001
		c0.705,0.017,1.364,0.308,1.852,0.821c1.039,1.088,1.038,2.792,0,3.88l-3.543,3.663c-0.26,0.248-0.586,0.379-0.929,0.379
		C11.999,19.252,11.985,19.252,11.983,19.252z M9.445,12.008c-0.297,0-0.578,0.112-0.792,0.317
		c-0.014,0.013-0.027,0.026-0.039,0.039c-0.485,0.507-0.485,1.302,0,1.809L12,17.677l3.391-3.507
		c0.482-0.504,0.481-1.298-0.003-1.806c-0.212-0.223-0.498-0.349-0.805-0.357l-0.038-0.001c-0.294,0-0.564,0.11-0.782,0.318
		c-0.016,0.015-0.028,0.028-0.041,0.041l-1.182,1.222C12.401,13.729,12.205,13.81,12,13.81s-0.401-0.081-0.539-0.224l-1.179-1.219
		C10.06,12.135,9.764,12.008,9.445,12.008z"/>
</g>
</svg>
