<?xml version="1.0" encoding="utf-8"?>
<!-- Generator: Adobe Illustrator 22.1.0, SVG Export Plug-In . SVG Version: 6.00 Build 0)  -->
<svg version="1.1" id="Layer_1" xmlns="http://www.w3.org/2000/svg" xmlns:xlink="http://www.w3.org/1999/xlink" x="0px" y="0px"
	 viewBox="0 0 24 24" style="enable-background:new 0 0 24 24;" xml:space="preserve">
<title>house-garage</title>
<g>
	<path d="M0.75,23.575c-0.414,0-0.75-0.336-0.75-0.75s0.336-0.75,0.75-0.75H1.5v-12H1.494c-0.827,0-1.5-0.673-1.5-1.5v-1.05
		C-0.004,6.967,0.302,6.46,0.793,6.2l10.498-5.599c0.218-0.115,0.462-0.176,0.706-0.176c0.245,0,0.488,0.061,0.704,0.176
		l10.501,5.601C23.692,6.46,23.998,6.966,24,7.522l-0.006,1.057c0,0.822-0.67,1.493-1.494,1.496v12h0.75
		c0.414,0,0.75,0.336,0.75,0.75s-0.336,0.75-0.75,0.75H0.75z M21,22.075v-12H3v12h1.5v-9.75c0-0.414,0.336-0.75,0.75-0.75h13.5
		c0.414,0,0.75,0.336,0.75,0.75v9.75H21z M18,22.075v-9H6v9H18z M1.497,7.525l-0.003,1.05h21L22.5,7.523L11.997,1.925L1.497,7.525z"
		/>
	<path d="M8.25,17.575c-0.414,0-0.75-0.336-0.75-0.75s0.336-0.75,0.75-0.75h7.5c0.414,0,0.75,0.336,0.75,0.75s-0.336,0.75-0.75,0.75
		H8.25z"/>
	<path d="M8.25,20.575c-0.414,0-0.75-0.336-0.75-0.75s0.336-0.75,0.75-0.75h7.5c0.414,0,0.75,0.336,0.75,0.75s-0.336,0.75-0.75,0.75
		H8.25z"/>
</g>
</svg>
