<?xml version="1.0" encoding="utf-8"?>
<!-- Generator: Adobe Illustrator 22.1.0, SVG Export Plug-In . SVG Version: 6.00 Build 0)  -->
<svg version="1.1" id="Layer_1" xmlns="http://www.w3.org/2000/svg" xmlns:xlink="http://www.w3.org/1999/xlink" x="0px" y="0px"
	 viewBox="0 0 24 24" style="enable-background:new 0 0 24 24;" xml:space="preserve">
<title>house-hurricane</title>
<g>
	<path d="M13.501,24c-0.414,0-0.75-0.336-0.75-0.75v-4.5c0-0.414-0.336-0.75-0.75-0.75h-1.5c-0.414,0-0.75,0.336-0.75,0.75v4.5
		c0,0.414-0.336,0.75-0.75,0.75h-4.5c-0.414,0-0.75-0.336-0.75-0.75v-4.5c0-0.414,0.336-0.75,0.75-0.75s0.75,0.336,0.75,0.75v3.75h3
		v-3.75c0-1.241,1.009-2.25,2.25-2.25h1.5c1.241,0,2.25,1.009,2.25,2.25v3.75h3v-3.75c0-0.414,0.336-0.75,0.75-0.75
		s0.75,0.336,0.75,0.75v4.5c0,0.414-0.336,0.75-0.75,0.75H13.501z"/>
	<path d="M21.001,18.75c-0.2,0-0.389-0.078-0.53-0.22l-8.689-8.689C11.64,9.7,11.451,9.622,11.25,9.622
		c-0.201,0-0.389,0.078-0.53,0.219L2.031,18.53c-0.142,0.142-0.33,0.22-0.53,0.22s-0.389-0.078-0.53-0.22
		c-0.292-0.292-0.292-0.768,0-1.061l8.689-8.689c0.424-0.425,0.989-0.658,1.591-0.658c0.601,0,1.166,0.233,1.59,0.657l8.69,8.69
		c0.292,0.292,0.292,0.768,0,1.061C21.389,18.672,21.201,18.75,21.001,18.75z"/>
	<path d="M12.751,1.5c-0.414,0-0.75-0.336-0.75-0.75S12.337,0,12.751,0h9.75c0.414,0,0.75,0.336,0.75,0.75s-0.336,0.75-0.75,0.75
		H12.751z"/>
	<path d="M10.501,4.5c-0.414,0-0.75-0.336-0.75-0.75S10.087,3,10.501,3h9.75c0.414,0,0.75,0.336,0.75,0.75s-0.336,0.75-0.75,0.75
		H10.501z"/>
	<path d="M15.001,7.5c-0.414,0-0.75-0.336-0.75-0.75S14.587,6,15.001,6h6c0.414,0,0.75,0.336,0.75,0.75s-0.336,0.75-0.75,0.75
		H15.001z"/>
	<path d="M18.001,10.5c-0.414,0-0.75-0.336-0.75-0.75S17.587,9,18.001,9h4.5c0.414,0,0.75,0.336,0.75,0.75s-0.336,0.75-0.75,0.75
		H18.001z"/>
	<path d="M18.751,13.5c-0.414,0-0.75-0.336-0.75-0.75S18.337,12,18.751,12h2.25c0.414,0,0.75,0.336,0.75,0.75s-0.336,0.75-0.75,0.75
		H18.751z"/>
</g>
</svg>
