<?xml version="1.0" encoding="utf-8"?>
<!-- Generator: Adobe Illustrator 22.1.0, SVG Export Plug-In . SVG Version: 6.00 Build 0)  -->
<svg version="1.1" id="Layer_1" xmlns="http://www.w3.org/2000/svg" xmlns:xlink="http://www.w3.org/1999/xlink" x="0px" y="0px"
	 viewBox="0 0 24 24" style="enable-background:new 0 0 24 24;" xml:space="preserve">
<title>human-resources-businessman-mail</title>
<g>
	<path d="M19.5,7.5c-2.068,0-3.75-1.682-3.75-3.75S17.432,0,19.5,0s3.75,1.682,3.75,3.75S21.568,7.5,19.5,7.5z M19.5,1.5
		c-1.241,0-2.25,1.009-2.25,2.25S18.259,6,19.5,6s2.25-1.009,2.25-2.25S20.741,1.5,19.5,1.5z"/>
	<path d="M17.25,24c-0.387,0-0.708-0.291-0.746-0.676L15.821,16.5H14.25c-0.414,0-0.75-0.336-0.75-0.75V13.5
		c0-1.603,0.624-3.109,1.757-4.243S17.897,7.5,19.5,7.5c1.603,0,3.11,0.624,4.243,1.757c0.142,0.141,0.22,0.33,0.22,0.53
		c0,0.2-0.078,0.389-0.22,0.53c-0.142,0.142-0.33,0.22-0.53,0.22s-0.389-0.078-0.53-0.22C22.02,9.656,21.168,9.22,20.25,9.066v3.684
		c0,0.414-0.336,0.75-0.75,0.75s-0.75-0.336-0.75-0.75V9.066c-0.919,0.154-1.771,0.59-2.432,1.252C15.468,11.168,15,12.298,15,13.5
		V15h1.5c0.387,0,0.708,0.291,0.746,0.676l0.683,6.824h3.143l0.683-6.825C21.792,15.291,22.113,15,22.5,15h0.75
		c0.414,0,0.75,0.336,0.75,0.75s-0.336,0.75-0.75,0.75h-0.071l-0.683,6.825C22.458,23.709,22.137,24,21.75,24H17.25z"/>
	<path d="M1.75,10.5C0.785,10.5,0,9.715,0,8.75v-7C0,0.785,0.785,0,1.75,0h10c0.965,0,1.75,0.785,1.75,1.75v7
		c0,0.965-0.785,1.75-1.75,1.75H1.75z M1.5,8.75C1.5,8.888,1.612,9,1.75,9h10C11.888,9,12,8.888,12,8.75V4.214L7.085,6.671
		C6.982,6.723,6.866,6.75,6.75,6.75S6.518,6.723,6.415,6.671L1.5,4.214V8.75z M6.75,5.161L12,2.536V1.75
		c0-0.138-0.112-0.25-0.25-0.25h-10C1.612,1.5,1.5,1.612,1.5,1.75v0.786L6.75,5.161z"/>
</g>
</svg>
