<?xml version="1.0" encoding="utf-8"?>
<!-- Generator: Adobe Illustrator 22.1.0, SVG Export Plug-In . SVG Version: 6.00 Build 0)  -->
<svg version="1.1" id="Layer_1" xmlns="http://www.w3.org/2000/svg" xmlns:xlink="http://www.w3.org/1999/xlink" x="0px" y="0px"
	 viewBox="0 0 24 24" style="enable-background:new 0 0 24 24;" xml:space="preserve">
<title>human-resources-search-employees</title>
<g>
	<path d="M0.747,24c-0.415-0.001-0.75-0.339-0.749-0.752c0.004-1.18,0.244-2.327,0.713-3.41c0.586-1.15,2.32-1.774,4.72-2.638
		l0.523-0.189c0.007-0.015,0.014-0.036,0.023-0.063c0.114-0.374,0.039-0.906-0.012-1.055c-1.05-1.131-1.574-2.659-1.442-4.205
		c-0.128-2.047,1.356-3.87,3.391-4.157c0.035-0.005,0.07-0.007,0.105-0.007c0.371,0,0.69,0.277,0.742,0.645
		c0.028,0.199-0.023,0.396-0.143,0.556S8.322,8.987,8.123,9.015c-1.28,0.181-2.202,1.331-2.1,2.62
		c0.004,0.043,0.003,0.088-0.001,0.133c-0.113,1.153,0.28,2.298,1.077,3.141c0.475,0.512,0.508,1.686,0.35,2.337
		c-0.18,0.742-0.59,1.032-0.902,1.145L5.94,18.61c-1.76,0.634-3.577,1.288-3.873,1.866c-0.371,0.86-0.566,1.802-0.569,2.776
		C1.497,23.664,1.161,24,0.748,24H0.747z"/>
	<path d="M16.051,23.999c-0.409,0-0.746-0.333-0.75-0.742c-0.011-0.977-0.214-1.927-0.604-2.824
		c-0.276-0.536-2.094-1.191-3.853-1.824l-0.608-0.219c-0.312-0.113-0.722-0.403-0.902-1.144c-0.158-0.651-0.126-1.823,0.345-2.332
		c0.533-0.537,0.868-1.199,0.978-1.926c0.056-0.369,0.369-0.637,0.744-0.637c0.035,0,0.07,0.002,0.106,0.007
		c0.202,0.031,0.377,0.136,0.496,0.297c0.119,0.161,0.168,0.359,0.138,0.558c-0.155,1.02-0.614,1.949-1.33,2.69
		c-0.05,0.163-0.115,0.678-0.003,1.043c0.008,0.027,0.016,0.048,0.023,0.063l0.523,0.189c2.4,0.865,4.134,1.489,4.7,2.595
		c0.487,1.116,0.735,2.269,0.748,3.448c0.004,0.414-0.328,0.754-0.742,0.758c-0.001,0-0.003,0-0.004,0H16.051z"/>
	<path d="M19.366,24c-0.414,0-0.75-0.336-0.75-0.75s0.336-0.75,0.75-0.75h1.618v-0.067c0-2.137-1.208-2.569-3.035-3.223
		c-0.16-0.057-0.32-0.115-0.481-0.174c-0.309-0.114-0.714-0.405-0.894-1.144c-0.161-0.662-0.134-1.854,0.335-2.372
		c0.567-0.586,0.923-1.339,1.01-2.129c0.042-0.381,0.363-0.668,0.746-0.668c0.027,0,0.054,0.001,0.081,0.004
		c0.412,0.045,0.709,0.417,0.664,0.828c-0.121,1.097-0.603,2.139-1.36,2.942c-0.05,0.168-0.118,0.72-0.004,1.094
		c0.009,0.03,0.017,0.052,0.024,0.068c0.113,0.041,0.383,0.138,0.383,0.138c1.889,0.676,4.03,1.441,4.03,4.635v0.817
		c0,0.414-0.336,0.75-0.75,0.75H19.366z"/>
	<path d="M23.248,14.264c-0.2,0-0.389-0.078-0.53-0.22l-3.293-3.293c-1.051,0.817-2.343,1.263-3.677,1.263c-3.308,0-6-2.692-6-6
		s2.692-6,6-6s6,2.692,6,6c0,1.333-0.446,2.626-1.263,3.676l3.293,3.293c0.292,0.292,0.292,0.768,0,1.061
		C23.637,14.186,23.449,14.264,23.248,14.264z M15.748,1.514c-2.481,0-4.5,2.019-4.5,4.5s2.019,4.5,4.5,4.5s4.5-2.019,4.5-4.5
		S18.23,1.514,15.748,1.514z"/>
</g>
</svg>
