<?xml version="1.0" encoding="utf-8"?>
<!-- Generator: Adobe Illustrator 22.1.0, SVG Export Plug-In . SVG Version: 6.00 Build 0)  -->
<svg version="1.1" id="Layer_1" xmlns="http://www.w3.org/2000/svg" xmlns:xlink="http://www.w3.org/1999/xlink" x="0px" y="0px"
	 viewBox="0 0 24 24" style="enable-background:new 0 0 24 24;" xml:space="preserve">
<title>human-resources-search-women</title>
<g>
	<path d="M22.865,14.25c-0.2,0-0.389-0.078-0.53-0.22l-3.293-3.293C17.991,11.554,16.698,12,15.365,12c-3.308,0-6-2.692-6-6
		s2.692-6,6-6s6,2.692,6,6c0,1.334-0.446,2.626-1.263,3.677l3.293,3.293c0.292,0.292,0.292,0.768,0,1.061
		C23.253,14.172,23.065,14.25,22.865,14.25z M15.365,1.5c-2.481,0-4.5,2.019-4.5,4.5s2.019,4.5,4.5,4.5s4.5-2.019,4.5-4.5
		S17.846,1.5,15.365,1.5z"/>
	<path d="M2.197,23.912c-0.305,0-0.577-0.182-0.693-0.463c-0.158-0.382,0.024-0.822,0.406-0.979
		c0.885-0.366,1.898-0.739,2.971-1.133l0.92-0.339c0.092-0.034,0.154-0.123,0.154-0.221v-0.119
		c-0.042,0.001-0.084,0.001-0.125,0.001c-1.856,0-3.635-0.574-5.144-1.661c-0.179-0.128-0.291-0.328-0.309-0.547
		c-0.018-0.219,0.061-0.435,0.216-0.591l0.044-0.044c0.734-0.735,1.177-1.179,1.374-4.097c0.31-4.534,2.967-6.197,4.523-6.785
		C6.62,6.901,6.709,6.885,6.8,6.885c0.31,0,0.592,0.195,0.702,0.485c0.146,0.387-0.05,0.821-0.436,0.967
		c-2.106,0.796-3.37,2.743-3.557,5.484c-0.17,2.517-0.553,3.587-1.221,4.42c1.077,0.597,2.292,0.911,3.538,0.911
		c0.043,0,0.086,0,0.13-0.001v-0.174c0-0.066-0.028-0.13-0.077-0.176c-0.899-0.819-1.41-1.987-1.402-3.205V13.13
		c0-0.373,0.267-0.685,0.636-0.741c1.363-0.21,2.6-0.909,3.482-1.969c0.139-0.167,0.349-0.263,0.576-0.263
		c0.227,0,0.437,0.096,0.576,0.263c0.883,1.06,2.12,1.759,3.483,1.969c0.368,0.057,0.636,0.368,0.636,0.741v2.47
		c0.006,1.213-0.505,2.379-1.404,3.198c-0.048,0.044-0.075,0.107-0.075,0.172v0.186c0.034,0,0.067,0.001,0.101,0.001
		c1.257,0,2.48-0.316,3.566-0.917c-0.667-0.831-1.05-1.902-1.221-4.42c-0.014-0.2,0.051-0.393,0.183-0.544
		c0.132-0.151,0.314-0.241,0.514-0.255c0.016-0.001,0.034-0.002,0.053-0.002c0.392,0,0.719,0.307,0.746,0.699
		c0.198,2.922,0.643,3.365,1.379,4.1l0.04,0.04c0.156,0.156,0.235,0.371,0.218,0.591c-0.018,0.22-0.131,0.42-0.31,0.549
		c-1.518,1.09-3.306,1.666-5.173,1.666c-0.032,0-0.064,0-0.096,0v0.108c0,0.098,0.062,0.187,0.154,0.221l0.876,0.323
		c1.096,0.403,2.121,0.78,3.014,1.15c0.185,0.076,0.329,0.22,0.406,0.406c0.077,0.185,0.077,0.389,0,0.574
		c-0.116,0.281-0.388,0.464-0.692,0.464c-0.099,0-0.196-0.02-0.288-0.058c-0.871-0.36-1.885-0.733-2.958-1.127l-0.879-0.324
		c-0.679-0.251-1.134-0.905-1.134-1.628v-1.8c0-0.485,0.205-0.952,0.563-1.28c0.586-0.534,0.92-1.295,0.916-2.087v-1.86
		c-1.204-0.298-2.297-0.897-3.195-1.749c-0.898,0.852-1.991,1.451-3.194,1.749V15.6c-0.005,0.797,0.328,1.56,0.914,2.094
		c0.36,0.33,0.565,0.797,0.565,1.283v1.8c0,0.723-0.456,1.378-1.134,1.629L5.408,22.74c-1.073,0.394-2.07,0.761-2.925,1.114
		C2.393,23.893,2.296,23.912,2.197,23.912z"/>
	<path d="M19.725,20.574c-0.378,0-0.698-0.283-0.744-0.659c-0.05-0.411,0.244-0.785,0.654-0.835c0.843-0.102,1.668-0.374,2.41-0.791
		c-0.526-0.675-0.86-1.472-0.973-2.331c-0.054-0.41,0.236-0.787,0.646-0.841c0.033-0.004,0.066-0.006,0.098-0.006
		c0.375,0,0.695,0.28,0.744,0.652c0.107,0.815,0.51,1.558,1.135,2.092c0.174,0.149,0.27,0.366,0.262,0.594
		c-0.007,0.229-0.117,0.439-0.3,0.576c-1.12,0.841-2.449,1.375-3.841,1.545C19.783,20.572,19.754,20.574,19.725,20.574z"/>
	<path d="M22.251,23.995c-0.1,0-0.197-0.02-0.289-0.058c-0.874-0.365-1.904-0.744-2.993-1.145c-0.313-0.115-0.633-0.233-0.958-0.354
		c-0.188-0.07-0.337-0.208-0.421-0.39s-0.091-0.386-0.021-0.573c0.108-0.293,0.391-0.489,0.703-0.489
		c0.089,0,0.177,0.016,0.261,0.047l0.954,0.352c1.11,0.408,2.153,0.792,3.054,1.169c0.381,0.159,0.562,0.6,0.403,0.981
		C22.826,23.814,22.554,23.995,22.251,23.995z"/>
</g>
</svg>
