<?xml version="1.0" encoding="utf-8"?>
<!-- Generator: Adobe Illustrator 22.1.0, SVG Export Plug-In . SVG Version: 6.00 Build 0)  -->
<svg version="1.1" id="Layer_1" xmlns="http://www.w3.org/2000/svg" xmlns:xlink="http://www.w3.org/1999/xlink" x="0px" y="0px"
	 viewBox="0 0 24 24" style="enable-background:new 0 0 24 24;" xml:space="preserve">
<title>human-resources-employee-star</title>
<g>
	<path d="M9.917,24c-0.094,0-0.186-0.017-0.274-0.052c-0.384-0.15-0.575-0.585-0.425-0.97l1.638-4.206
		c-5.141,0.206-7.264,1.827-8.189,2.533c-0.31,0.239-0.495,0.619-0.492,1.013v0.932c0,0.414-0.336,0.75-0.75,0.75
		s-0.75-0.336-0.75-0.75v-0.927c-0.006-0.857,0.397-1.683,1.079-2.209c1.747-1.334,4.485-2.864,10.208-2.864
		c5.723,0,8.46,1.529,10.205,2.862c0.684,0.527,1.088,1.355,1.083,2.216v0.922c0,0.414-0.336,0.75-0.75,0.75s-0.75-0.336-0.75-0.75
		v-0.927c0.002-0.399-0.183-0.78-0.496-1.021c-0.923-0.705-3.046-2.325-8.187-2.53l1.639,4.206c0.15,0.385-0.041,0.821-0.426,0.971
		C14.194,23.983,14.102,24,14.008,24c-0.307,0-0.588-0.192-0.699-0.478l-1.347-3.456l-1.347,3.457C10.504,23.808,10.223,24,9.917,24
		z"/>
	<path d="M17.212,24c-0.414,0-0.75-0.336-0.75-0.75s0.336-0.75,0.75-0.75h2.25c0.414,0,0.75,0.336,0.75,0.75S19.876,24,19.462,24
		H17.212z"/>
	<path d="M7.124,16.501c-0.616,0-1.19-0.33-1.5-0.861c-0.272-0.467-0.31-1.042-0.101-1.541l1.559-3.587L4.336,8.597
		C4.31,8.579,4.287,8.56,4.264,8.54C3.932,8.241,3.737,7.832,3.713,7.387C3.69,6.943,3.841,6.515,4.139,6.184
		c0.316-0.351,0.764-0.553,1.23-0.553c0.023,0,0.045,0,0.068,0.001l3.205-0.001l1.747-4.606c0.011-0.028,0.023-0.056,0.038-0.083
		c0.217-0.413,0.583-0.718,1.029-0.856c0.17-0.053,0.345-0.079,0.521-0.079c0.281,0,0.562,0.07,0.813,0.202
		c0.312,0.164,0.564,0.415,0.73,0.727c0.014,0.027,0.027,0.055,0.038,0.084l1.744,4.609l3.271-0.001c0.885,0,1.63,0.723,1.661,1.612
		c0.017,0.493-0.183,0.965-0.549,1.295c-0.022,0.02-0.047,0.041-0.074,0.059l-2.751,1.915l1.555,3.578
		c0.372,0.888-0.044,1.906-0.924,2.276c-0.212,0.089-0.437,0.133-0.668,0.133c-0.308,0-0.609-0.081-0.873-0.234l-3.98-2.238
		L7.983,16.27C7.726,16.42,7.427,16.501,7.124,16.501z M8.444,9.633c0.292,0.203,0.401,0.588,0.259,0.914l-1.8,4.141
		c-0.024,0.057-0.018,0.137,0.017,0.198C6.962,14.957,7.037,15,7.122,15c0.041,0,0.08-0.011,0.116-0.031l4.362-2.46
		c0.112-0.063,0.239-0.097,0.368-0.097c0.128,0,0.255,0.033,0.367,0.096l4.359,2.452c0.043,0.025,0.085,0.037,0.128,0.037
		c0.031,0,0.06-0.006,0.088-0.018c0.118-0.05,0.174-0.186,0.125-0.304l-1.796-4.132c-0.142-0.327-0.032-0.711,0.259-0.915l3.2-2.228
		c0.025-0.031,0.037-0.07,0.036-0.11c-0.003-0.09-0.08-0.163-0.17-0.163l-3.781,0c-0.31,0-0.592-0.195-0.702-0.485l-1.903-5.03
		c-0.023-0.032-0.052-0.058-0.087-0.077c-0.037-0.019-0.076-0.029-0.116-0.029c-0.025,0-0.05,0.004-0.074,0.012
		c-0.055,0.017-0.1,0.05-0.132,0.096L9.86,6.648C9.75,6.937,9.469,7.132,9.159,7.132L5.38,7.131c-0.051,0-0.092,0.018-0.126,0.055
		C5.223,7.221,5.209,7.263,5.211,7.308c0.002,0.036,0.014,0.068,0.036,0.095L8.444,9.633z"/>
</g>
</svg>
