<?xml version="1.0" encoding="utf-8"?>
<!-- Generator: Adobe Illustrator 22.1.0, SVG Export Plug-In . SVG Version: 6.00 Build 0)  -->
<svg version="1.1" id="Layer_1" xmlns="http://www.w3.org/2000/svg" xmlns:xlink="http://www.w3.org/1999/xlink" x="0px" y="0px"
	 viewBox="0 0 24 24" style="enable-background:new 0 0 24 24;" xml:space="preserve">
<title>human-resources-workflow</title>
<g>
	<path d="M11.999,12.75c-1.654,0-3-1.346-3-3s1.346-3,3-3c1.654,0,3,1.346,3,3S13.653,12.75,11.999,12.75z M11.999,8.25
		c-0.827,0-1.5,0.673-1.5,1.5s0.673,1.5,1.5,1.5s1.5-0.673,1.5-1.5S12.826,8.25,11.999,8.25z"/>
	<path d="M15.749,16.5c-0.339,0-0.637-0.229-0.724-0.557c-0.372-1.393-1.587-2.373-3.025-2.442c-1.439,0.07-2.653,1.049-3.025,2.443
		C8.886,16.271,8.588,16.5,8.249,16.5c-0.064,0-0.129-0.008-0.191-0.025C7.862,16.423,7.7,16.299,7.6,16.125
		s-0.127-0.375-0.075-0.569C8.07,13.513,9.856,12.084,11.969,12c0.005,0,0.063,0,0.063,0c2.109,0.083,3.896,1.512,4.441,3.556
		c0.052,0.193,0.025,0.396-0.075,0.569s-0.262,0.297-0.456,0.349C15.879,16.491,15.814,16.5,15.749,16.5z"/>
	<path d="M11.999,5.25c-1.447,0-2.625-1.178-2.625-2.625S10.552,0,11.999,0c1.448,0,2.625,1.178,2.625,2.625
		S13.447,5.25,11.999,5.25z M11.999,1.5c-0.62,0-1.125,0.505-1.125,1.125s0.505,1.125,1.125,1.125s1.125-0.505,1.125-1.125
		S12.619,1.5,11.999,1.5z"/>
	<path d="M21.374,14.625c-1.448,0-2.625-1.177-2.625-2.625c0-1.447,1.177-2.625,2.625-2.625s2.625,1.178,2.625,2.625
		C23.999,13.448,22.822,14.625,21.374,14.625z M21.374,10.875c-0.62,0-1.125,0.505-1.125,1.125s0.505,1.125,1.125,1.125
		S22.499,12.62,22.499,12S21.994,10.875,21.374,10.875z"/>
	<path d="M11.999,24c-1.447,0-2.625-1.177-2.625-2.625s1.178-2.625,2.625-2.625c1.448,0,2.625,1.177,2.625,2.625
		S13.447,24,11.999,24z M11.999,20.25c-0.62,0-1.125,0.505-1.125,1.125s0.505,1.125,1.125,1.125s1.125-0.505,1.125-1.125
		S12.619,20.25,11.999,20.25z"/>
	<path d="M2.624,14.625c-1.447,0-2.625-1.177-2.625-2.625c0-1.447,1.178-2.625,2.625-2.625S5.249,10.553,5.249,12
		C5.249,13.448,4.071,14.625,2.624,14.625z M2.624,10.875c-0.62,0-1.125,0.505-1.125,1.125s0.505,1.125,1.125,1.125
		S3.749,12.62,3.749,12S3.244,10.875,2.624,10.875z"/>
	<path d="M19.8,8.25c-0.267,0-0.516-0.143-0.649-0.374c-0.725-1.254-1.772-2.301-3.026-3.027c-0.358-0.207-0.481-0.666-0.274-1.024
		c0.134-0.231,0.383-0.375,0.65-0.375c0.131,0,0.261,0.035,0.375,0.101c1.481,0.857,2.717,2.093,3.574,3.574
		c0.207,0.358,0.084,0.818-0.274,1.025C20.062,8.215,19.932,8.25,19.8,8.25z"/>
	<path d="M16.5,20.55c-0.267,0-0.516-0.143-0.649-0.374c-0.207-0.358-0.084-0.818,0.273-1.025c1.255-0.726,2.301-1.772,3.026-3.026
		c0.134-0.231,0.383-0.375,0.65-0.375c0.132,0,0.261,0.035,0.375,0.101c0.358,0.207,0.48,0.667,0.274,1.024
		c-0.857,1.481-2.093,2.717-3.574,3.574C16.762,20.515,16.632,20.55,16.5,20.55z"/>
	<path d="M7.5,20.55c-0.132,0-0.261-0.035-0.375-0.101c-1.481-0.857-2.717-2.093-3.574-3.574c-0.1-0.173-0.127-0.375-0.075-0.569
		c0.052-0.193,0.176-0.355,0.349-0.456c0.114-0.066,0.244-0.101,0.375-0.101c0.267,0,0.516,0.144,0.65,0.375
		c0.725,1.255,1.772,2.301,3.026,3.026c0.173,0.101,0.297,0.262,0.349,0.456c0.052,0.194,0.025,0.396-0.075,0.569
		C8.016,20.406,7.767,20.55,7.5,20.55z"/>
	<path d="M4.2,8.25c-0.131,0-0.261-0.035-0.375-0.101c-0.173-0.1-0.297-0.262-0.349-0.456S3.451,7.298,3.551,7.124
		c0.857-1.481,2.092-2.717,3.574-3.574C7.238,3.485,7.368,3.45,7.5,3.45c0.267,0,0.516,0.143,0.65,0.374
		C8.25,3.998,8.276,4.2,8.225,4.394S8.049,4.749,7.875,4.849C6.621,5.574,5.575,6.621,4.849,7.875C4.716,8.107,4.467,8.25,4.2,8.25z
		"/>
</g>
</svg>
