<?xml version="1.0" encoding="utf-8"?>
<!-- Generator: Adobe Illustrator 22.1.0, SVG Export Plug-In . SVG Version: 6.00 Build 0)  -->
<svg version="1.1" id="Layer_1" xmlns="http://www.w3.org/2000/svg" xmlns:xlink="http://www.w3.org/1999/xlink" x="0px" y="0px"
	 viewBox="0 0 24 24" style="enable-background:new 0 0 24 24;" xml:space="preserve">
<title>human-resources-search-men</title>
<g>
	<path d="M22.878,14.25c-0.2,0-0.389-0.078-0.53-0.22l-3.293-3.293C18.004,11.554,16.712,12,15.378,12c-3.308,0-6-2.692-6-6
		s2.692-6,6-6s6,2.692,6,6c0,1.334-0.446,2.626-1.263,3.677l3.293,3.293c0.292,0.292,0.292,0.768,0,1.061
		C23.267,14.172,23.078,14.25,22.878,14.25z M15.378,1.5c-2.481,0-4.5,2.019-4.5,4.5s2.019,4.5,4.5,4.5s4.5-2.019,4.5-4.5
		S17.859,1.5,15.378,1.5z"/>
	<path d="M7.521,18c-2.688,0-4.875-2.187-4.875-4.875c0-2.688,2.187-4.875,4.875-4.875c0.414,0,0.75,0.336,0.75,0.75
		s-0.336,0.75-0.75,0.75c-1.861,0-3.375,1.514-3.375,3.375c0,1.861,1.514,3.375,3.375,3.375s3.375-1.514,3.375-3.375
		c0-0.414,0.336-0.75,0.75-0.75s0.75,0.336,0.75,0.75C12.396,15.813,10.209,18,7.521,18z"/>
	<path d="M16.325,18.951c-1.117,0-2.17-0.432-2.966-1.216c-0.294-0.291-0.298-0.766-0.008-1.061
		c0.142-0.144,0.332-0.224,0.534-0.224c0.198,0,0.385,0.077,0.527,0.216c0.513,0.506,1.192,0.784,1.913,0.784
		c1.504-0.001,2.725-1.225,2.724-2.727c0-0.2,0.078-0.389,0.219-0.531c0.141-0.142,0.33-0.22,0.53-0.22
		c0.414,0,0.75,0.336,0.751,0.749c0.001,1.128-0.438,2.189-1.235,2.988c-0.797,0.799-1.857,1.239-2.986,1.24H16.325z"/>
	<path d="M1.156,24.001c-0.086,0-0.17-0.015-0.251-0.043c-0.188-0.067-0.339-0.203-0.426-0.384C0.393,23.393,0.382,23.189,0.449,23
		c0.759-2.146,2.425-3.812,4.571-4.571c0.812-0.288,1.656-0.434,2.507-0.434c1.119,0,2.204,0.248,3.227,0.736
		c0.66,0.315,1.265,0.72,1.803,1.207c0.505-0.368,1.05-0.656,1.625-0.86c0.697-0.247,1.42-0.372,2.15-0.372
		c0.96,0,1.891,0.212,2.769,0.631c1.552,0.741,2.722,2.041,3.295,3.662c0.067,0.189,0.056,0.392-0.03,0.573
		c-0.086,0.181-0.238,0.317-0.427,0.384C21.858,23.986,21.774,24,21.688,24c-0.317,0-0.601-0.201-0.707-0.5
		c-0.44-1.243-1.337-2.24-2.527-2.808c-0.673-0.321-1.387-0.484-2.122-0.484c-0.56,0-1.115,0.096-1.65,0.285
		c-0.39,0.138-0.762,0.327-1.112,0.565c0.433,0.59,0.777,1.242,1.024,1.942c0.067,0.189,0.056,0.392-0.03,0.573
		c-0.086,0.181-0.238,0.317-0.427,0.384C14.057,23.986,13.973,24,13.887,24c-0.317,0-0.601-0.201-0.707-0.5
		c-0.266-0.753-0.671-1.432-1.203-2.02c-0.011-0.009-0.021-0.019-0.03-0.028c-0.01-0.011-0.021-0.023-0.03-0.037
		C10.791,20.202,9.183,19.5,7.514,19.5c-0.679,0-1.35,0.115-1.995,0.344c-1.717,0.607-3.05,1.94-3.657,3.657
		C1.757,23.799,1.473,24.001,1.156,24.001z"/>
</g>
</svg>
