<?xml version="1.0" encoding="utf-8"?>
<!-- Generator: Adobe Illustrator 22.1.0, SVG Export Plug-In . SVG Version: 6.00 Build 0)  -->
<svg version="1.1" id="Layer_1" xmlns="http://www.w3.org/2000/svg" xmlns:xlink="http://www.w3.org/1999/xlink" x="0px" y="0px"
	 viewBox="0 0 24 24" style="enable-background:new 0 0 24 24;" xml:space="preserve">
<title>human-resources-offer-woman</title>
<g>
	<path d="M0.749,24c-0.414,0-0.75-0.336-0.75-0.75v-9c0-0.414,0.336-0.75,0.75-0.75s0.75,0.336,0.75,0.75V15H6
		c1.8,0,3.324,1.268,3.675,3h3.074c2.068,0,3.75,1.682,3.75,3.75c0,0.414-0.336,0.75-0.75,0.75H1.499v0.75
		C1.499,23.664,1.163,24,0.749,24z M14.87,21c-0.313-0.879-1.159-1.5-2.121-1.5h-6.75c-0.414,0-0.75-0.336-0.75-0.75
		S5.585,18,5.999,18h2.119C7.805,17.121,6.96,16.5,6,16.5H1.499V21H14.87z"/>
	<path d="M10.459,15.496c-0.311,0-0.586-0.187-0.699-0.477c-0.073-0.187-0.069-0.39,0.012-0.574c0.08-0.184,0.227-0.325,0.414-0.397
		c0.617-0.241,1.285-0.487,1.992-0.747l0.841-0.31c0.05-0.019,0.086-0.07,0.086-0.124v-0.022c-0.012,0-0.024,0-0.035,0
		c-1.675,0-3.28-0.518-4.641-1.498c-0.179-0.129-0.292-0.329-0.309-0.549c-0.018-0.22,0.062-0.435,0.218-0.591l0.033-0.033
		c0.644-0.643,1.033-1.031,1.211-3.617c0.147-2.164,0.94-3.918,2.294-5.074C12.996,0.527,14.482,0,16.058,0
		c1.576,0,3.062,0.527,4.183,1.484c1.354,1.156,2.147,2.91,2.294,5.074c0.175,2.583,0.564,2.971,1.209,3.614l0.035,0.035
		c0.156,0.156,0.235,0.371,0.218,0.59c-0.018,0.219-0.13,0.419-0.308,0.548c-1.371,0.991-2.988,1.516-4.677,1.518v0.003
		c0,0.054,0.036,0.105,0.087,0.124l0.712,0.262c0.699,0.257,1.423,0.522,2.072,0.775c0.385,0.15,0.576,0.586,0.426,0.971
		c-0.113,0.29-0.387,0.478-0.698,0.478c-0.094,0-0.186-0.017-0.273-0.052c-0.616-0.24-1.292-0.489-2.007-0.751l-0.752-0.277
		c-0.638-0.236-1.066-0.851-1.066-1.53v-1.609c0-0.458,0.194-0.897,0.532-1.205c0.507-0.462,0.795-1.121,0.79-1.807V6.651
		c-1.04-0.268-1.988-0.787-2.775-1.517c-0.787,0.73-1.735,1.248-2.775,1.517v1.589c-0.005,0.69,0.283,1.35,0.791,1.812
		c0.338,0.309,0.532,0.748,0.531,1.206v1.608c0,0.679-0.428,1.294-1.065,1.53l-0.808,0.298c-0.678,0.249-1.378,0.507-2,0.75
		C10.645,15.479,10.553,15.496,10.459,15.496z M16.058,3.297c0.223,0,0.433,0.099,0.576,0.27C17.411,4.5,18.498,5.115,19.697,5.3
		c0.368,0.057,0.636,0.369,0.636,0.741v2.2c0.008,1.107-0.458,2.172-1.28,2.92c-0.027,0.024-0.042,0.06-0.042,0.097v0.1
		c1.084-0.002,2.14-0.27,3.082-0.778c-0.574-0.75-0.905-1.714-1.054-3.921C20.87,4.165,19.472,1.5,16.058,1.5
		c-3.414,0-4.812,2.665-4.981,5.16c-0.152,2.206-0.482,3.17-1.053,3.919c0.931,0.499,1.974,0.761,3.041,0.761
		c0.013,0,0.027,0,0.04,0v-0.082c0-0.037-0.015-0.072-0.043-0.097c-0.82-0.748-1.287-1.814-1.279-2.925V6.041
		c0-0.373,0.267-0.684,0.636-0.741c1.199-0.185,2.287-0.8,3.063-1.733C15.625,3.396,15.835,3.297,16.058,3.297z"/>
</g>
</svg>
