<?xml version="1.0" encoding="utf-8"?>
<!-- Generator: Adobe Illustrator 22.1.0, SVG Export Plug-In . SVG Version: 6.00 Build 0)  -->
<svg version="1.1" id="Regular" xmlns="http://www.w3.org/2000/svg" xmlns:xlink="http://www.w3.org/1999/xlink" x="0px" y="0px"
	 viewBox="0 0 24 24" style="enable-background:new 0 0 24 24;" xml:space="preserve">
<title>humidity-high</title>
<g>
	<path d="M19.337,24.001c-1.246,0-2.417-0.485-3.297-1.365c-0.881-0.88-1.366-2.051-1.366-3.297c0-0.005,0-0.029,0.001-0.033
		c0.179-3.514,1.646-6.814,4.132-9.297c0.142-0.142,0.33-0.219,0.53-0.219c0.2,0,0.388,0.078,0.53,0.219
		c1.988,1.984,4.133,6.115,4.133,9.331C23.999,21.909,21.907,24,19.337,24.001L19.337,24.001z M19.328,11.64
		c-1.891,2.139-3.008,4.866-3.155,7.726c0.003,0.821,0.332,1.613,0.927,2.208c0.597,0.597,1.392,0.926,2.236,0.926
		c1.744,0,3.163-1.419,3.163-3.163C22.499,16.819,20.931,13.548,19.328,11.64z"/>
	<path d="M9.734,19.508c-1.776,0-3.525-0.494-5.058-1.429c-2.224-1.355-3.786-3.496-4.4-6.027c-0.613-2.527-0.203-5.145,1.154-7.371
		c1.357-2.226,3.496-3.79,6.023-4.402c0.755-0.183,1.528-0.276,2.299-0.276c4.255,0,8.09,2.844,9.328,6.916
		c0.12,0.396-0.104,0.815-0.5,0.936c-0.07,0.022-0.144,0.033-0.219,0.033c-0.332,0-0.62-0.214-0.717-0.532
		c-1.047-3.446-4.293-5.853-7.893-5.853c-0.652,0-1.306,0.078-1.945,0.233c-4.421,1.072-7.145,5.541-6.073,9.962
		c0.52,2.142,1.842,3.953,3.723,5.099c1.298,0.792,2.777,1.21,4.278,1.21c0.656,0,1.316-0.08,1.961-0.236
		c0.059-0.014,0.118-0.021,0.176-0.021c0.348,0,0.648,0.236,0.729,0.573c0.047,0.194,0.016,0.396-0.088,0.567
		c-0.104,0.171-0.269,0.291-0.464,0.339C11.288,19.415,10.509,19.508,9.734,19.508z"/>
	<path d="M5.449,13.501c-0.245,0-0.475-0.12-0.615-0.321C3.25,10.912,3.418,7.874,5.242,5.793c1.056-1.205,2.518-1.926,4.117-2.031
		c0.134-0.009,0.267-0.013,0.4-0.013c1.192,0,2.333,0.349,3.321,1.013l0.584-0.73c0.143-0.179,0.356-0.282,0.585-0.282
		c0.169,0,0.335,0.058,0.468,0.164c0.323,0.259,0.376,0.732,0.117,1.055l-1.026,1.282c0,0.003-0.015,0.023-0.031,0.042
		c-0.005,0.005-0.01,0.012-0.017,0.018L11.78,8.787c0.144,0.301,0.219,0.63,0.219,0.964c0,1.241-1.009,2.25-2.25,2.25
		s-2.25-1.009-2.25-2.25s1.009-2.25,2.25-2.25c0.337,0,0.665,0.075,0.965,0.218l1.425-1.781c-0.715-0.452-1.53-0.689-2.38-0.689
		c-0.1,0-0.201,0.003-0.301,0.01C8.259,5.338,7.162,5.878,6.37,6.782c-1.368,1.56-1.494,3.839-0.306,5.54
		c0.115,0.164,0.159,0.363,0.123,0.561c-0.035,0.198-0.145,0.369-0.309,0.484C5.752,13.454,5.603,13.501,5.449,13.501z M9.749,9.001
		c-0.414,0-0.75,0.336-0.75,0.75s0.336,0.75,0.75,0.75s0.75-0.336,0.75-0.75S10.163,9.001,9.749,9.001z"/>
	<path d="M14.049,13.501c-0.155,0-0.304-0.047-0.431-0.136c-0.338-0.238-0.42-0.707-0.182-1.045
		c0.532-0.756,0.813-1.644,0.813-2.569c0-0.413,0.336-0.75,0.75-0.75s0.75,0.337,0.75,0.75c0,1.235-0.376,2.421-1.087,3.432
		C14.522,13.382,14.293,13.501,14.049,13.501z"/>
</g>
</svg>
