<?xml version="1.0" encoding="utf-8"?>
<!-- Generator: Adobe Illustrator 22.1.0, SVG Export Plug-In . SVG Version: 6.00 Build 0)  -->
<svg version="1.1" id="Regular" xmlns="http://www.w3.org/2000/svg" xmlns:xlink="http://www.w3.org/1999/xlink" x="0px" y="0px"
	 viewBox="0 0 24 24" style="enable-background:new 0 0 24 24;" xml:space="preserve">
<title>ice-cream-stand</title>
<g>
	<path d="M12.724,24c-1.799,0-3.323-1.268-3.673-3H4.474v2.25c0,0.414-0.336,0.75-0.75,0.75s-0.75-0.336-0.75-0.75v-2.403
		c-0.895-0.338-1.497-1.192-1.497-2.17V12.75c0-0.414,0.336-0.75,0.75-0.75h5.247V8.803c-0.027-0.024-0.052-0.05-0.075-0.078
		C6.768,7.953,5.834,7.506,4.837,7.5C3.841,7.505,2.903,7.952,2.269,8.726C2.126,8.899,1.916,9,1.691,9l-0.07-0.003
		c-0.053-0.002-0.107-0.005-0.16-0.012C1.022,8.924,0.633,8.697,0.366,8.344c-0.267-0.353-0.381-0.788-0.32-1.226
		c0.502-3.648,3.4-6.546,7.048-7.048c0.375-0.052,0.755-0.078,1.131-0.078c4.097,0,7.608,3.064,8.167,7.126
		c0.01,0.078,0.015,0.153,0.015,0.229C16.405,8.259,15.662,9,14.751,9C14.52,9,14.308,8.898,14.166,8.722
		c-0.144-0.177-0.308-0.341-0.486-0.486C13.094,7.762,12.357,7.5,11.602,7.5c-1.004,0-1.941,0.445-2.571,1.222
		C9.014,8.745,8.994,8.766,8.974,8.785V12h9.287l1.292-2.585C19.681,9.159,19.938,9,20.224,9h3c0.414,0,0.75,0.336,0.75,0.75
		s-0.336,0.75-0.75,0.75h-2.537l-1.21,2.421v5.756c0,1.281-1.042,2.323-2.323,2.323h-0.757C16.047,22.732,14.523,24,12.724,24z
		 M12.724,18c-1.241,0-2.25,1.009-2.25,2.25s1.009,2.25,2.25,2.25c1.241,0,2.25-1.009,2.25-2.25S13.965,18,12.724,18z M17.154,19.5
		c0.454,0,0.823-0.369,0.823-0.823V13.5h-15v5.177c0,0.454,0.369,0.823,0.823,0.823H9.05c0.351-1.732,1.874-3,3.673-3
		s3.323,1.268,3.673,3H17.154z M4.851,6c1.262,0.009,2.47,0.513,3.363,1.394c0.895-0.889,2.114-1.393,3.39-1.393
		c1.097,0,2.17,0.38,3.022,1.071c0.097,0.078,0.19,0.161,0.281,0.246c-0.458-3.321-3.331-5.825-6.682-5.825
		c-0.307,0-0.618,0.021-0.924,0.063C4.314,1.966,1.943,4.337,1.532,7.321C2.419,6.485,3.599,6.008,4.827,6C4.832,6,4.847,6,4.851,6z
		"/>
</g>
</svg>
