<?xml version="1.0" encoding="utf-8"?>
<!-- Generator: Adobe Illustrator 22.1.0, SVG Export Plug-In . SVG Version: 6.00 Build 0)  -->
<svg version="1.1" id="Regular" xmlns="http://www.w3.org/2000/svg" xmlns:xlink="http://www.w3.org/1999/xlink" x="0px" y="0px"
	 viewBox="0 0 24 24" style="enable-background:new 0 0 24 24;" xml:space="preserve">
<title>ice-water</title>
<g>
	<path d="M3.437,21.75c-0.608,0-1.209-0.211-1.694-0.594l-1.48-1.264c-0.152-0.13-0.245-0.312-0.261-0.512
		c-0.016-0.2,0.047-0.394,0.178-0.546c0.143-0.167,0.351-0.262,0.57-0.262c0.178,0,0.351,0.064,0.487,0.179l1.458,1.246
		c0.2,0.158,0.473,0.253,0.737,0.253c0,0,0.069-0.001,0.073-0.001l0.048,0.001c0.282,0,0.55-0.094,0.775-0.272l1.599-1.368
		C6.431,18.214,7.05,18,7.682,18h0.073c0.618,0,1.226,0.211,1.71,0.594l1.645,1.404c0.211,0.157,0.501,0.252,0.799,0.252
		c0.306,0,0.608-0.1,0.849-0.281l1.585-1.357c0.533-0.402,1.145-0.607,1.787-0.607c0.634,0,1.235,0.2,1.737,0.578l1.659,1.415
		c0.211,0.157,0.501,0.252,0.8,0.252c0.306,0,0.608-0.1,0.849-0.281l1.585-1.357c0.136-0.116,0.309-0.18,0.487-0.18
		c0.22,0,0.427,0.095,0.57,0.262c0.131,0.153,0.194,0.346,0.178,0.546c-0.016,0.2-0.108,0.382-0.26,0.512l-1.622,1.386
		c-0.533,0.402-1.144,0.607-1.786,0.607h0c-0.634,0-1.235-0.2-1.737-0.577l-1.659-1.415c-0.211-0.157-0.502-0.252-0.8-0.252
		c-0.306,0-0.607,0.1-0.848,0.281l-1.586,1.357c-0.533,0.402-1.144,0.607-1.787,0.607c-0.634,0-1.235-0.2-1.737-0.577l-1.659-1.415
		c-0.201-0.158-0.473-0.254-0.735-0.254c0,0-0.071,0.001-0.075,0.001l-0.049-0.001c-0.281,0-0.548,0.094-0.773,0.272l-1.6,1.368
		c-0.503,0.398-1.118,0.612-1.742,0.612H3.437z"/>
	<path d="M20.325,16.495c-0.634,0-1.235-0.2-1.737-0.578l-1.037-0.887c-0.152-0.131-0.244-0.312-0.26-0.512s0.048-0.394,0.178-0.546
		c0.143-0.167,0.35-0.262,0.57-0.262c0.179,0,0.352,0.064,0.488,0.181l1,0.857c0.21,0.156,0.5,0.251,0.798,0.251
		c0.306,0,0.608-0.1,0.849-0.281l1.586-1.357c0.136-0.116,0.309-0.18,0.487-0.18c0.22,0,0.427,0.095,0.57,0.262
		c0.269,0.315,0.232,0.789-0.083,1.058l-1.622,1.386C21.579,16.29,20.968,16.495,20.325,16.495z"/>
	<path d="M3.437,16.5c-0.608,0-1.209-0.211-1.694-0.594l-1.48-1.264c-0.152-0.13-0.245-0.312-0.261-0.512
		c-0.016-0.2,0.047-0.394,0.178-0.546c0.143-0.167,0.351-0.263,0.57-0.263c0.178,0,0.351,0.064,0.487,0.18l1.458,1.246
		c0.2,0.157,0.474,0.253,0.742,0.253c0,0,0.065-0.001,0.07-0.001l0.054,0.001c0.277,0,0.542-0.094,0.767-0.272l0.954-0.816
		c0.136-0.116,0.309-0.179,0.487-0.179c0.22,0,0.427,0.095,0.57,0.262c0.269,0.315,0.232,0.789-0.083,1.058L5.28,15.888
		C4.777,16.286,4.157,16.5,3.525,16.5L3.437,16.5z"/>
	<path d="M11.918,15.75c-0.414,0-0.75-0.336-0.75-0.75v-1.599l-1.084,0.723C9.96,14.206,9.816,14.25,9.668,14.25
		c-0.252,0-0.485-0.125-0.624-0.334c-0.229-0.344-0.136-0.81,0.208-1.04l1.916-1.277V9.75H9.319l-1.277,1.916
		C7.903,11.875,7.669,12,7.418,12c-0.148,0-0.292-0.044-0.416-0.126c-0.344-0.229-0.438-0.696-0.208-1.04L7.517,9.75H5.918
		c-0.414,0-0.75-0.336-0.75-0.75s0.336-0.75,0.75-0.75h1.599L6.794,7.166c-0.229-0.344-0.136-0.811,0.208-1.04
		C7.125,6.043,7.269,6,7.418,6c0.251,0,0.485,0.125,0.624,0.334L9.319,8.25h1.849V6.401L9.252,5.124
		c-0.344-0.229-0.437-0.696-0.208-1.04C9.183,3.875,9.416,3.75,9.668,3.75c0.148,0,0.292,0.044,0.416,0.126l1.084,0.723V3
		c0-0.414,0.336-0.75,0.75-0.75s0.75,0.336,0.75,0.75v1.599l1.084-0.723c0.123-0.082,0.267-0.126,0.416-0.126
		c0.252,0,0.485,0.125,0.625,0.334c0.111,0.167,0.151,0.367,0.112,0.563c-0.039,0.197-0.153,0.366-0.32,0.477l-1.916,1.277V8.25
		h1.849l1.277-1.916C15.934,6.125,16.167,6,16.418,6c0.148,0,0.292,0.044,0.416,0.126c0.167,0.111,0.28,0.28,0.32,0.477
		c0.039,0.196,0,0.396-0.112,0.563L16.319,8.25h1.599c0.414,0,0.75,0.336,0.75,0.75s-0.336,0.75-0.75,0.75h-1.599l0.723,1.084
		c0.111,0.167,0.151,0.367,0.112,0.563c-0.039,0.197-0.153,0.366-0.32,0.477C16.71,11.956,16.566,12,16.418,12
		c-0.251,0-0.485-0.125-0.624-0.334L14.517,9.75h-1.849v1.849l1.916,1.277c0.167,0.111,0.28,0.281,0.32,0.477
		c0.039,0.197,0,0.397-0.112,0.563c-0.139,0.209-0.373,0.334-0.624,0.334c-0.149,0-0.292-0.044-0.416-0.126l-1.084-0.722V15
		C12.668,15.413,12.332,15.75,11.918,15.75z"/>
</g>
</svg>
