<?xml version="1.0" encoding="utf-8"?>
<!-- Generator: Adobe Illustrator 22.1.0, SVG Export Plug-In . SVG Version: 6.00 Build 0)  -->
<svg version="1.1" id="Regular" xmlns="http://www.w3.org/2000/svg" xmlns:xlink="http://www.w3.org/1999/xlink" x="0px" y="0px"
	 viewBox="0 0 24 24" style="enable-background:new 0 0 24 24;" xml:space="preserve">
<title>ice-cream-bite</title>
<g>
	<path d="M12,24.002c-0.414,0-0.75-0.336-0.75-0.75v-5.25H7.5c-1.241,0-2.25-1.009-2.25-2.25v-9c0-0.718,0.114-1.429,0.338-2.111
		C6.501,1.865,9.08,0,12.005,0c0.714,0,1.421,0.114,2.104,0.338c0.196,0.064,0.358,0.209,0.445,0.396
		c0.087,0.187,0.093,0.405,0.016,0.596c-0.214,0.533-0.322,1.096-0.321,1.671c-0.001,2.224,1.657,4.141,3.857,4.459
		c0.366,0.053,0.643,0.372,0.643,0.742v7.55c0,1.241-1.009,2.25-2.25,2.25h-3.75v5.25C12.75,23.666,12.414,24.002,12,24.002z
		 M12.004,1.5c-2.275,0-4.281,1.451-4.991,3.61C6.838,5.641,6.75,6.193,6.75,6.752v9c0,0.414,0.336,0.75,0.75,0.75h9
		c0.414,0,0.75-0.336,0.75-0.75V8.815c-2.627-0.681-4.501-3.077-4.5-5.813c0-0.48,0.056-0.957,0.169-1.421
		C12.617,1.527,12.31,1.5,12.004,1.5z"/>
</g>
</svg>
