<?xml version="1.0" encoding="utf-8"?>
<!-- Generator: Adobe Illustrator 22.1.0, SVG Export Plug-In . SVG Version: 6.00 Build 0)  -->
<svg version="1.1" id="Regular" xmlns="http://www.w3.org/2000/svg" xmlns:xlink="http://www.w3.org/1999/xlink" x="0px" y="0px"
	 viewBox="0 0 24 24" style="enable-background:new 0 0 24 24;" xml:space="preserve">
<title>ice-cream-stick</title>
<g>
	<path d="M10.5,15c-0.414,0-0.75-0.336-0.75-0.75V3.75C9.75,3.336,10.086,3,10.5,3s0.75,0.336,0.75,0.75v10.5
		C11.25,14.664,10.914,15,10.5,15z"/>
	<path d="M13.5,15c-0.414,0-0.75-0.336-0.75-0.75V3.75C12.75,3.336,13.086,3,13.5,3s0.75,0.336,0.75,0.75v10.5
		C14.25,14.664,13.914,15,13.5,15z"/>
	<path d="M12,24c-0.414,0-0.75-0.336-0.75-0.75V18H7.5c-1.241,0-2.25-1.009-2.25-2.25v-12C5.25,1.682,6.932,0,9,0h6
		c2.068,0,3.75,1.682,3.75,3.75v12c0,1.241-1.009,2.25-2.25,2.25h-3.75v5.25C12.75,23.664,12.414,24,12,24z M9,1.5
		c-1.241,0-2.25,1.009-2.25,2.25v12c0,0.414,0.336,0.75,0.75,0.75h9c0.414,0,0.75-0.336,0.75-0.75v-12c0-1.241-1.009-2.25-2.25-2.25
		H9z"/>
</g>
</svg>
