<?xml version="1.0" encoding="utf-8"?>
<!-- Generator: Adobe Illustrator 22.1.0, SVG Export Plug-In . SVG Version: 6.00 Build 0)  -->
<svg version="1.1" id="Layer_1" xmlns="http://www.w3.org/2000/svg" xmlns:xlink="http://www.w3.org/1999/xlink" x="0px" y="0px"
	 viewBox="0 0 24 24" style="enable-background:new 0 0 24 24;" xml:space="preserve">
<title>idea-settings</title>
<g>
	<path d="M20.679,17.419c-0.045,0-0.09-0.001-0.135-0.003l-1.311-0.067c-0.2-0.01-0.384-0.098-0.519-0.246s-0.203-0.341-0.192-0.541
		c0.02-0.399,0.352-0.712,0.756-0.712c0.007,0,0.025,0,0.031,0.001l1.311,0.067c0.018,0.001,0.055,0.001,0.055,0.001
		c0.311,0,0.595-0.126,0.802-0.355c0.193-0.214,0.291-0.49,0.276-0.778s-0.141-0.553-0.354-0.745l-0.972-0.876
		c-0.065-0.06-0.125-0.12-0.183-0.183c-0.955-1.057-0.873-2.692,0.182-3.646l0.973-0.877c0.241-0.218,0.369-0.53,0.352-0.855
		c-0.015-0.288-0.141-0.552-0.355-0.745c-0.201-0.181-0.45-0.277-0.719-0.277c-0.02,0-0.039,0-0.059,0.001l-1.309,0.066
		c-0.043,0.002-0.086,0.003-0.13,0.003c-0.045,0-0.09-0.001-0.135-0.003c-0.688-0.036-1.321-0.338-1.782-0.849
		c-0.461-0.512-0.695-1.172-0.659-1.86l0.067-1.307c0.017-0.326-0.112-0.637-0.354-0.856C16.118,1.598,15.862,1.5,15.595,1.5
		c-0.305,0-0.597,0.13-0.801,0.355l-0.878,0.972c-0.06,0.066-0.122,0.128-0.187,0.186c-0.475,0.428-1.088,0.664-1.727,0.664
		c-0.044,0-0.088-0.001-0.132-0.003c-0.688-0.035-1.321-0.336-1.782-0.847L9.21,1.855C9.005,1.629,8.715,1.499,8.414,1.499
		c-0.02,0-0.039,0.001-0.059,0.002C7.76,1.531,7.302,2.039,7.333,2.632L7.4,3.94c0.005,0.088,0.005,0.176,0,0.265
		C7.364,4.894,7.064,5.527,6.552,5.988C6.078,6.416,5.465,6.652,4.828,6.652c-0.045,0-0.09-0.001-0.135-0.003L3.385,6.581
		C3.362,6.579,3.341,6.579,3.321,6.579c-0.306,0-0.589,0.126-0.796,0.356c-0.193,0.214-0.291,0.49-0.276,0.777
		C2.264,8,2.39,8.265,2.604,8.458l0.972,0.877c0.065,0.058,0.126,0.12,0.184,0.183c0.463,0.512,0.698,1.172,0.663,1.861
		c-0.035,0.688-0.335,1.322-0.847,1.784L2.604,14.04c-0.242,0.219-0.371,0.531-0.354,0.857c0.015,0.287,0.141,0.552,0.356,0.744
		c0.198,0.179,0.452,0.277,0.713,0.277c0.021,0,0.042,0,0.062-0.002c0,0,1.336-0.067,1.343-0.067c0.404,0,0.736,0.313,0.756,0.712
		c0.021,0.413-0.298,0.766-0.711,0.787l-1.308,0.066c-0.046,0.002-0.094,0.004-0.141,0.004c-0.633,0-1.243-0.235-1.718-0.662
		c-0.512-0.46-0.814-1.093-0.85-1.78c-0.041-0.779,0.267-1.526,0.846-2.05l0.972-0.877c0.214-0.193,0.339-0.458,0.354-0.746
		c0.015-0.288-0.084-0.565-0.277-0.779c-0.024-0.027-0.05-0.052-0.077-0.077L1.599,9.572C0.544,8.62,0.459,6.987,1.411,5.931
		C1.899,5.39,2.598,5.079,3.329,5.079c0.045,0,0.089,0.001,0.134,0.003l1.308,0.068c0.021,0.001,0.041,0.002,0.061,0.002
		c0.263,0,0.517-0.099,0.716-0.278c0.214-0.193,0.34-0.458,0.354-0.745c0.002-0.037,0.002-0.074,0-0.111L5.834,2.709
		c-0.073-1.42,1.023-2.634,2.443-2.707C8.322,0,8.368-0.001,8.413-0.001c0.725,0,1.422,0.31,1.91,0.851l0.878,0.972
		c0.193,0.214,0.458,0.34,0.745,0.354c0.021,0.001,0.04,0.002,0.06,0.002c0.268,0,0.516-0.096,0.718-0.278
		c0.028-0.025,0.053-0.051,0.078-0.078L13.68,0.85C14.167,0.31,14.865,0,15.595,0c0.639,0,1.252,0.235,1.726,0.663
		c0.579,0.522,0.888,1.268,0.848,2.047l-0.067,1.308c-0.015,0.288,0.083,0.565,0.275,0.778c0.193,0.214,0.457,0.34,0.745,0.355
		c0.019,0.001,0.037,0.002,0.055,0.002c0.019,0,0.039-0.001,0.058-0.001l1.308-0.066c0.045-0.002,0.091-0.004,0.138-0.004
		c0.635,0,1.246,0.235,1.72,0.662c0.512,0.461,0.813,1.093,0.849,1.781c0.041,0.777-0.267,1.523-0.844,2.046l-0.973,0.878
		c-0.441,0.399-0.476,1.083-0.076,1.525c0.024,0.026,0.05,0.052,0.078,0.078l0.97,0.875c0.511,0.462,0.812,1.094,0.848,1.782
		c0.036,0.688-0.199,1.348-0.66,1.859C22.104,17.109,21.407,17.419,20.679,17.419z"/>
	<path d="M10.502,23.25c-0.414,0-0.75-0.336-0.75-0.75s0.336-0.75,0.75-0.75h3c0.414,0,0.75,0.336,0.75,0.75s-0.336,0.75-0.75,0.75
		H10.502z"/>
	<path d="M10.502,20.25c-0.414,0-0.75-0.336-0.75-0.75v-1.963c-2.265-0.918-3.762-3.132-3.75-5.591
		c0.008-1.603,0.639-3.106,1.778-4.234c1.131-1.12,2.63-1.737,4.221-1.737c0.001,0,0.029,0,0.03,0
		c1.603,0.008,3.106,0.639,4.234,1.778s1.745,2.648,1.737,4.25c-0.006,2.437-1.502,4.628-3.75,5.535V19.5
		c0,0.414-0.336,0.75-0.75,0.75H10.502z M12.751,18.75v-1.744c0-0.33,0.221-0.625,0.537-0.719c1.887-0.558,3.208-2.322,3.213-4.289
		c0.006-1.204-0.457-2.336-1.303-3.19s-1.974-1.328-3.176-1.333L12.001,7.1v0.375c-1.193,0-2.318,0.463-3.166,1.303
		c-0.854,0.846-1.328,1.974-1.333,3.176c-0.01,1.985,1.312,3.767,3.214,4.334c0.315,0.094,0.536,0.39,0.536,0.719v1.744H12.751z"/>
</g>
</svg>
