<?xml version="1.0" encoding="utf-8"?>
<!-- Generator: Adobe Illustrator 22.1.0, SVG Export Plug-In . SVG Version: 6.00 Build 0)  -->
<svg version="1.1" id="Layer_1" xmlns="http://www.w3.org/2000/svg" xmlns:xlink="http://www.w3.org/1999/xlink" x="0px" y="0px"
	 viewBox="0 0 24 24" style="enable-background:new 0 0 24 24;" xml:space="preserve">
<title>idea-strategy</title>
<g>
	<path d="M3.413,24c-1.854,0-3.363-1.509-3.363-3.363s1.509-3.363,3.363-3.363s3.363,1.509,3.363,3.363S5.268,24,3.413,24z
		 M3.413,18.774c-1.027,0-1.863,0.836-1.863,1.863S2.386,22.5,3.413,22.5s1.863-0.836,1.863-1.863S4.441,18.774,3.413,18.774z"/>
	<path d="M9.51,23.897c-0.414,0-0.75-0.336-0.75-0.75V18.17c0-0.414,0.336-0.75,0.75-0.75h4.977c0.414,0,0.75,0.336,0.75,0.75v4.977
		c0,0.414-0.336,0.75-0.75,0.75H9.51z M13.737,22.397V18.92H10.26v3.477H13.737z"/>
	<path d="M17.225,23.897c-0.263,0-0.51-0.141-0.645-0.367c-0.135-0.227-0.14-0.511-0.013-0.742l2.986-5.474
		c0.131-0.241,0.384-0.391,0.658-0.391s0.527,0.15,0.658,0.391l2.987,5.475c0.126,0.231,0.121,0.516-0.013,0.742
		c-0.135,0.226-0.382,0.367-0.645,0.367H17.225z M21.935,22.397l-1.723-3.159l-1.723,3.159H21.935z"/>
	<path d="M20.46,16.182c-0.414,0-0.75-0.336-0.75-0.75v-1.738h-6.961v1.241c0,0.414-0.336,0.75-0.75,0.75s-0.75-0.336-0.75-0.75
		v-1.241H4.288v1.738c0,0.414-0.336,0.75-0.75,0.75s-0.75-0.336-0.75-0.75v-2.488c0-0.414,0.336-0.75,0.75-0.75h7.711v-1.633h-0.743
		c-0.414,0-0.75-0.336-0.75-0.75V8.46c-1.39-0.801-2.243-2.271-2.24-3.889c0.004-2.468,2.015-4.475,4.483-4.475
		c1.205,0.002,2.33,0.47,3.176,1.319c0.845,0.848,1.31,1.975,1.307,3.172c-0.002,1.613-0.854,3.077-2.24,3.874v1.35
		c0,0.414-0.336,0.75-0.75,0.75h-0.743v1.633h7.711c0.414,0,0.75,0.336,0.75,0.75v2.488C21.21,15.845,20.874,16.182,20.46,16.182z
		 M12.742,9.061V8c0-0.298,0.177-0.568,0.45-0.688c1.086-0.473,1.789-1.544,1.79-2.728c0.001-0.797-0.307-1.547-0.87-2.111
		c-0.562-0.564-1.311-0.876-2.108-0.877L11.999,1.22v0.375c-0.795,0-1.543,0.309-2.105,0.87C9.329,3.028,9.018,3.776,9.016,4.573
		c-0.002,1.189,0.701,2.264,1.79,2.739c0.273,0.12,0.45,0.389,0.45,0.688v1.061H12.742z"/>
	<path d="M19.774,5.979c-0.414,0-0.75-0.336-0.75-0.75s0.336-0.75,0.75-0.75h1.493c0.414,0,0.75,0.336,0.75,0.75
		s-0.336,0.75-0.75,0.75H19.774z"/>
	<path d="M20.52,10.459c-0.201,0-0.389-0.078-0.531-0.22l-1.055-1.056c-0.292-0.293-0.292-0.768,0-1.061
		c0.142-0.142,0.33-0.219,0.531-0.219s0.389,0.078,0.531,0.22l1.055,1.056c0.292,0.293,0.292,0.768,0,1.061
		C20.909,10.381,20.721,10.459,20.52,10.459z"/>
	<path d="M19.465,2.556c-0.2,0-0.389-0.078-0.53-0.22c-0.292-0.292-0.292-0.768,0-1.06L19.99,0.22C20.131,0.078,20.32,0,20.52,0
		c0.2,0,0.389,0.078,0.53,0.22c0.292,0.292,0.292,0.768,0,1.06l-1.055,1.056C19.855,2.478,19.666,2.556,19.465,2.556z"/>
	<path d="M2.731,5.979c-0.414,0-0.75-0.336-0.75-0.75s0.336-0.75,0.75-0.75h1.493c0.414,0,0.75,0.336,0.75,0.75
		s-0.336,0.75-0.75,0.75H2.731z"/>
	<path d="M3.477,10.459c-0.2,0-0.389-0.078-0.53-0.22c-0.142-0.141-0.22-0.33-0.22-0.53s0.078-0.389,0.22-0.53l1.056-1.056
		c0.142-0.142,0.33-0.22,0.53-0.22s0.389,0.078,0.53,0.22c0.142,0.141,0.22,0.33,0.22,0.53s-0.078,0.389-0.22,0.53l-1.056,1.056
		C3.866,10.381,3.678,10.459,3.477,10.459z"/>
	<path d="M4.533,2.556c-0.2,0-0.389-0.078-0.53-0.22L2.947,1.28c-0.142-0.141-0.22-0.33-0.22-0.53s0.078-0.389,0.22-0.53
		C3.089,0.078,3.277,0,3.477,0l0,0c0.2,0,0.389,0.078,0.53,0.22l1.056,1.056c0.142,0.141,0.22,0.33,0.22,0.53
		s-0.078,0.389-0.22,0.53C4.922,2.478,4.734,2.556,4.533,2.556z"/>
</g>
</svg>
