<?xml version="1.0" encoding="utf-8"?>
<!-- Generator: Adobe Illustrator 22.1.0, SVG Export Plug-In . SVG Version: 6.00 Build 0)  -->
<svg version="1.1" id="Layer_1" xmlns="http://www.w3.org/2000/svg" xmlns:xlink="http://www.w3.org/1999/xlink" x="0px" y="0px"
	 viewBox="0 0 24 24" style="enable-background:new 0 0 24 24;" xml:space="preserve">
<title>information-desk-hi</title>
<g>
	<path d="M6.75,15C4.682,15,3,13.318,3,11.25C3,9.182,4.682,7.5,6.75,7.5s3.75,1.682,3.75,3.75C10.5,13.318,8.818,15,6.75,15z
		 M6.75,9C5.509,9,4.5,10.009,4.5,11.25c0,1.241,1.009,2.25,2.25,2.25S9,12.491,9,11.25C9,10.009,7.991,9,6.75,9z"/>
	<path d="M3.75,24C3.336,24,3,23.664,3,23.25v-3c0-0.414,0.336-0.75,0.75-0.75s0.75,0.336,0.75,0.75v3C4.5,23.664,4.164,24,3.75,24z
		"/>
	<path d="M9.75,24C9.336,24,9,23.664,9,23.25v-4.079c0-0.287,0.167-0.552,0.425-0.676c0.1-0.048,0.213-0.074,0.325-0.074
		c0.17,0,0.336,0.058,0.469,0.165l1.765,1.412c0.398,0.318,0.897,0.494,1.405,0.494c0.601,0,1.166-0.234,1.591-0.659l2.8-2.8
		c0.292-0.292,0.292-0.769,0-1.061c-0.141-0.141-0.329-0.219-0.53-0.219c-0.201,0-0.389,0.078-0.531,0.219l-2.8,2.8
		c-0.142,0.142-0.33,0.219-0.53,0.219c-0.17,0-0.336-0.058-0.468-0.164l-1.879-1.5c-0.663-0.532-1.494-0.825-2.343-0.827H5.25
		c-2.068,0-3.75,1.682-3.75,3.75v3C1.5,23.664,1.164,24,0.75,24S0,23.664,0,23.25v-3C0,17.355,2.355,15,5.25,15H8.7
		c1.189,0.002,2.353,0.413,3.279,1.156l1.353,1.081l2.326-2.326c0.425-0.425,0.99-0.659,1.591-0.659
		c0.601,0,1.166,0.234,1.592,0.659c0.877,0.877,0.878,2.305,0,3.182l-2.8,2.8c-0.709,0.709-1.651,1.099-2.652,1.099l0,0
		c-0.847,0-1.679-0.292-2.342-0.823L10.5,20.731v2.519C10.5,23.664,10.164,24,9.75,24z"/>
	<path d="M17.25,7.5c-0.414,0-0.75-0.336-0.75-0.75V6H15v0.75c0,0.414-0.336,0.75-0.75,0.75S13.5,7.164,13.5,6.75v-3
		C13.5,3.336,13.836,3,14.25,3S15,3.336,15,3.75V4.5h1.5V3.75C16.5,3.336,16.836,3,17.25,3S18,3.336,18,3.75v3
		C18,7.164,17.664,7.5,17.25,7.5z"/>
	<path d="M20.25,7.5c-0.414,0-0.75-0.336-0.75-0.75v-3C19.5,3.336,19.836,3,20.25,3S21,3.336,21,3.75v3
		C21,7.164,20.664,7.5,20.25,7.5z"/>
	<path d="M14.25,13.5c-0.112,0-0.225-0.026-0.326-0.074c-0.257-0.123-0.424-0.388-0.424-0.676V10.5h-0.75
		c-1.241,0-2.25-1.009-2.25-2.25v-6C10.5,1.009,11.509,0,12.75,0h9C22.991,0,24,1.009,24,2.25v6c0,1.241-1.009,2.25-2.25,2.25
		h-3.487l-3.544,2.835C14.587,13.441,14.42,13.5,14.25,13.5z M12.75,1.5C12.336,1.5,12,1.836,12,2.25v6C12,8.664,12.336,9,12.75,9
		h1.5C14.664,9,15,9.336,15,9.75v1.439l2.531-2.025C17.664,9.058,17.831,9,18,9h3.75c0.414,0,0.75-0.336,0.75-0.75v-6
		c0-0.414-0.336-0.75-0.75-0.75H12.75z"/>
</g>
</svg>
