<?xml version="1.0" encoding="utf-8"?>
<!-- Generator: Adobe Illustrator 22.1.0, SVG Export Plug-In . SVG Version: 6.00 Build 0)  -->
<svg version="1.1" id="Regular" xmlns="http://www.w3.org/2000/svg" xmlns:xlink="http://www.w3.org/1999/xlink" x="0px" y="0px"
	 viewBox="0 0 24 24" style="enable-background:new 0 0 24 24;" xml:space="preserve">
<title>insect-centipede-1</title>
<g>
	<path d="M16.51,20.001c-1.241,0-2.25-1.009-2.25-2.25s1.009-2.25,2.25-2.25s2.25,1.009,2.25,2.25S17.75,20.001,16.51,20.001z
		 M16.51,17.001c-0.414,0-0.75,0.336-0.75,0.75s0.336,0.75,0.75,0.75s0.75-0.336,0.75-0.75S16.923,17.001,16.51,17.001z"/>
	<path d="M16.305,23.749c-0.969-0.021-1.898-0.308-2.703-0.834c-0.732,0.336-1.535,0.512-2.336,0.512
		c-1.022,0-2.023-0.279-2.895-0.806c-0.354-0.214-0.468-0.676-0.254-1.03c0.135-0.223,0.381-0.362,0.642-0.362
		c0.136,0,0.27,0.038,0.387,0.108c0.637,0.385,1.369,0.589,2.116,0.589c0.374,0,0.74-0.05,1.096-0.149
		c-0.556-0.709-0.917-1.554-1.045-2.448c-0.342,0.073-0.688,0.109-1.031,0.109c-1.165,0-2.305-0.414-3.211-1.166
		c-0.154-0.128-0.249-0.309-0.268-0.508s0.042-0.394,0.17-0.548c0.142-0.172,0.353-0.271,0.577-0.271
		c0.174,0,0.344,0.061,0.479,0.173c0.636,0.528,1.436,0.819,2.253,0.819c0.331,0,0.658-0.047,0.977-0.138l0-1.548
		c-0.018-0.943-0.411-1.848-1.088-2.523c-0.796,0.667-1.791,1.03-2.837,1.03c-0.547,0-1.084-0.1-1.595-0.298
		c-0.385-0.149-0.578-0.584-0.429-0.97c0.111-0.287,0.393-0.479,0.7-0.479c0.092,0,0.182,0.017,0.269,0.05
		c0.339,0.131,0.693,0.197,1.054,0.197c0.523,0,1.03-0.139,1.474-0.398c-0.332-0.121-0.677-0.192-1.031-0.212
		c-0.001,0-0.002,0-0.003,0c-0.92,0-1.822-0.278-2.607-0.804c-0.61,0.278-1.28,0.424-1.953,0.424c-0.599,0-1.182-0.111-1.732-0.331
		c-0.186-0.074-0.332-0.217-0.411-0.401c-0.079-0.184-0.082-0.388-0.007-0.574c0.114-0.287,0.388-0.472,0.697-0.472
		c0.095,0,0.189,0.018,0.278,0.053c0.371,0.148,0.764,0.223,1.169,0.223c0.253,0,0.503-0.029,0.746-0.087
		c-0.403-0.549-0.68-1.173-0.818-1.84C3.032,8.848,2.931,8.853,2.832,8.853c-0.973,0-1.922-0.391-2.602-1.073
		C0.088,7.638,0.01,7.45,0.011,7.249s0.078-0.389,0.22-0.53C0.372,6.578,0.561,6.5,0.761,6.5c0.201,0,0.389,0.078,0.531,0.22
		C1.69,7.119,2.248,7.348,2.823,7.348c0.081,0,0.162-0.004,0.242-0.013c0.098-0.889,0.442-1.729,0.991-2.428
		C3.742,4.796,3.411,4.738,3.078,4.738c-0.219,0-0.438,0.025-0.651,0.074C2.372,4.825,2.315,4.831,2.259,4.831
		c-0.352,0-0.652-0.24-0.731-0.583C1.484,4.053,1.518,3.852,1.624,3.683S1.897,3.395,2.092,3.35
		c0.323-0.074,0.654-0.112,0.985-0.112c0.768,0,1.519,0.2,2.188,0.579c0.42-0.266,0.882-0.464,1.363-0.588
		C6.338,2.874,5.837,2.471,4.977,2.121C4.791,2.045,4.646,1.902,4.568,1.717C4.491,1.533,4.489,1.329,4.565,1.143
		C4.681,0.859,4.953,0.676,5.26,0.676c0.098,0,0.193,0.019,0.283,0.056c1.693,0.689,2.431,1.619,2.749,2.353
		c0.587,0.018,1.171,0.073,1.744,0.163C9.92,2.599,9.633,1.999,9.193,1.491C9.062,1.34,8.997,1.147,9.011,0.947
		c0.014-0.2,0.106-0.382,0.257-0.513C9.405,0.315,9.58,0.25,9.76,0.25c0.218,0,0.424,0.094,0.567,0.259
		c0.744,0.859,1.184,1.941,1.256,3.074c0.719,0.201,1.428,0.464,2.116,0.785c0.16-0.767,0.225-1.551,0.192-2.336
		c-0.017-0.413,0.305-0.763,0.719-0.781c0.005,0,0.032-0.001,0.038-0.001c0.399,0,0.726,0.316,0.743,0.719
		c0.044,1.053-0.064,2.105-0.322,3.132c0.769,0.468,1.492,1.011,2.156,1.618c0.492-0.733,0.769-1.6,0.786-2.482
		c0.008-0.405,0.345-0.735,0.75-0.735c0.006,0,0.02,0,0.026,0.001c0.402,0.008,0.732,0.35,0.724,0.764
		c-0.025,1.271-0.456,2.515-1.22,3.536c0.606,0.688,1.144,1.437,1.604,2.234c0.473-0.744,0.873-1.685,0.698-2.582
		c-0.08-0.406,0.186-0.801,0.592-0.88c0.049-0.01,0.097-0.014,0.144-0.014c0.358,0,0.668,0.255,0.737,0.606
		c0.328,1.676-0.551,3.284-1.409,4.391c0.371,0.873,0.651,1.78,0.836,2.709c0.49-0.567,0.845-1.235,1.041-1.96
		c0.088-0.327,0.386-0.555,0.724-0.555c0.066,0,0.131,0.009,0.195,0.026c0.4,0.108,0.637,0.521,0.53,0.92
		c-0.361,1.339-1.157,2.542-2.251,3.409c0.021,0.307,0.031,0.577,0.031,0.839v1.516c-0.001,0.452-0.06,0.897-0.174,1.33
		c0.419-0.224,0.798-0.518,1.119-0.872c0.142-0.156,0.344-0.246,0.556-0.246c0.187,0,0.365,0.069,0.504,0.195
		c0.306,0.278,0.329,0.753,0.052,1.059c-0.828,0.913-1.948,1.533-3.167,1.757c-1.004,1.297-2.559,2.067-4.192,2.067h-0.014
		C16.442,23.75,16.305,23.749,16.305,23.749z M10.742,12.243c1.254,0.973,1.988,2.426,2.018,3.994l0,2.064
		c0.001,0.008,0.001,0.034,0,0.062l0,0.137c-0.021,0.99,0.34,1.918,1.016,2.624c0.676,0.705,1.586,1.105,2.562,1.125
		c0.034,0.001,0.101,0.001,0.103,0.001c2.105,0,3.812-1.701,3.818-3.792v-1.512c-0.015-5.784-3.963-10.738-9.6-12.047
		c0,0-0.005-0.001-0.008-0.002C9.733,4.684,8.789,4.575,7.854,4.575c-0.003,0-0.037,0-0.037,0c-1.812,0-3.287,1.474-3.287,3.286
		c0,0.878,0.341,1.703,0.962,2.324c0.621,0.621,1.446,0.963,2.324,0.964c0.924,0.052,1.805,0.342,2.571,0.841
		c0.091,0.03,0.173,0.075,0.245,0.136C10.672,12.161,10.708,12.199,10.742,12.243z"/>
</g>
</svg>
