<?xml version="1.0" encoding="utf-8"?>
<!-- Generator: Adobe Illustrator 22.1.0, SVG Export Plug-In . SVG Version: 6.00 Build 0)  -->
<svg version="1.1" id="Regular" xmlns="http://www.w3.org/2000/svg" xmlns:xlink="http://www.w3.org/1999/xlink" x="0px" y="0px"
	 viewBox="0 0 24 24" style="enable-background:new 0 0 24 24;" xml:space="preserve">
<title>insect-ant</title>
<g>
	<path d="M12.011,24c-1.411,0-3.75-2.906-3.75-6c0-0.261,0.014-0.523,0.043-0.782l-0.926,0.694
		c-0.443,0.333-0.748,0.815-0.857,1.359l-0.525,2.626C5.926,22.247,5.617,22.5,5.261,22.5c-0.051,0-0.101-0.005-0.15-0.015
		c-0.194-0.039-0.363-0.152-0.475-0.319C4.526,22,4.486,21.799,4.525,21.603l0.525-2.626c0.181-0.906,0.688-1.71,1.427-2.265
		l2.569-1.927c0.322-0.583,0.727-1.062,1.188-1.408c-0.123-0.159-0.225-0.335-0.302-0.521l-2.628,0.438
		c-0.205,0.034-0.414,0.052-0.62,0.052c-0.74,0-1.458-0.218-2.076-0.63l-1.263-0.842c-0.344-0.229-0.437-0.696-0.208-1.04
		C3.276,10.625,3.509,10.5,3.761,10.5c0.148,0,0.292,0.044,0.416,0.126l1.263,0.842c0.371,0.247,0.802,0.378,1.246,0.378
		c0.124,0,0.249-0.01,0.372-0.031l2.801-0.467c0.081-0.268,0.212-0.518,0.385-0.738L7.165,9.996C6.13,9.788,5.226,9.15,4.684,8.245
		L3.118,5.636C2.905,5.282,3.02,4.82,3.375,4.607C3.492,4.537,3.625,4.5,3.761,4.5c0.262,0,0.509,0.14,0.643,0.364l1.567,2.61
		C6.296,8.018,6.839,8.4,7.459,8.525l1.76,0.352C9.082,8.441,9.011,7.975,9.011,7.5c0-0.97,0.305-1.905,0.842-2.602L9.147,2.782
		L6.425,1.421c-0.37-0.185-0.52-0.636-0.335-1.006C6.218,0.159,6.476,0,6.761,0c0.115,0,0.231,0.027,0.335,0.079l3,1.5
		c0.18,0.09,0.313,0.244,0.376,0.434l0.637,1.911c0.291-0.116,0.593-0.174,0.901-0.174c0.308,0,0.61,0.058,0.901,0.174l0.637-1.912
		c0.063-0.19,0.197-0.344,0.376-0.433l3-1.5C17.03,0.028,17.145,0,17.261,0c0.286,0,0.543,0.159,0.671,0.414
		c0.185,0.37,0.034,0.821-0.335,1.006l-2.722,1.361l-0.706,2.116c0.537,0.697,0.842,1.632,0.842,2.602
		c0,0.475-0.071,0.941-0.208,1.376l1.76-0.352c0.62-0.124,1.162-0.507,1.487-1.05l1.568-2.611C19.752,4.64,19.999,4.5,20.261,4.5
		c0.135,0,0.269,0.037,0.385,0.107c0.355,0.213,0.47,0.675,0.257,1.029l-1.567,2.61c-0.541,0.904-1.445,1.542-2.479,1.749
		l-3.079,0.615c0.173,0.219,0.303,0.469,0.385,0.737l2.801,0.467c0.124,0.021,0.25,0.031,0.375,0.031
		c0.444,0,0.875-0.131,1.246-0.378l1.263-0.842c0.124-0.082,0.267-0.126,0.416-0.126c0.251,0,0.485,0.125,0.624,0.334
		c0.111,0.166,0.151,0.366,0.112,0.563c-0.039,0.196-0.153,0.366-0.32,0.477l-1.263,0.842c-0.619,0.412-1.337,0.63-2.077,0.63
		c-0.208,0-0.417-0.017-0.623-0.052l-2.628-0.438c-0.077,0.186-0.179,0.362-0.302,0.521c0.46,0.346,0.865,0.825,1.188,1.408
		l2.569,1.926c0.739,0.554,1.246,1.359,1.427,2.265l0.525,2.626c0.039,0.196,0,0.396-0.111,0.563
		c-0.111,0.167-0.281,0.28-0.477,0.319c-0.046,0.01-0.096,0.015-0.147,0.015c-0.356,0-0.665-0.254-0.735-0.603L17.5,19.271
		c-0.109-0.544-0.413-1.026-0.856-1.359l-0.926-0.694c0.028,0.26,0.043,0.521,0.043,0.782c0,1.92-0.837,3.429-1.336,4.157
		C13.646,23.294,12.721,24,12.011,24z M10.26,15.675C9.933,16.349,9.761,17.153,9.761,18c0,2.64,1.85,4.313,2.25,4.491
		c0.4-0.177,2.25-1.851,2.25-4.491c0-0.847-0.173-1.651-0.499-2.325c-0.02-0.033-0.036-0.068-0.05-0.103
		c-0.436-0.84-1.055-1.322-1.701-1.322c-0.646,0-1.265,0.481-1.701,1.321C10.296,15.606,10.279,15.641,10.26,15.675z M12.011,11.25
		c-0.414,0-0.75,0.336-0.75,0.75s0.336,0.75,0.75,0.75c0.414,0,0.75-0.336,0.75-0.75S12.424,11.25,12.011,11.25z M11.251,9.43
		c0.165,0.149,0.428,0.32,0.759,0.32c0.337,0,0.602-0.176,0.768-0.327c0.018-0.019,0.037-0.037,0.057-0.054
		c0.416-0.407,0.675-1.112,0.675-1.869c0-0.749-0.254-1.447-0.68-1.872c-0.018-0.016-0.035-0.033-0.051-0.05
		c-0.166-0.152-0.432-0.328-0.769-0.328s-0.603,0.176-0.769,0.328c-0.016,0.017-0.033,0.034-0.051,0.05
		c-0.426,0.425-0.68,1.124-0.68,1.872c0,0.745,0.252,1.442,0.675,1.867C11.209,9.387,11.231,9.408,11.251,9.43z"/>
</g>
</svg>
