<?xml version="1.0" encoding="utf-8"?>
<!-- Generator: Adobe Illustrator 22.1.0, SVG Export Plug-In . SVG Version: 6.00 Build 0)  -->
<svg version="1.1" id="Layer_1" xmlns="http://www.w3.org/2000/svg" xmlns:xlink="http://www.w3.org/1999/xlink" x="0px" y="0px"
	 viewBox="0 0 24 24" style="enable-background:new 0 0 24 24;" xml:space="preserve">
<title>invitation</title>
<g>
	<path d="M12.75,24C12.336,24,12,23.664,12,23.25v-1.702c-0.428-0.587-0.815-1.209-1.152-1.85c-0.025-0.048-0.045-0.099-0.06-0.152
		c-0.095-0.352-0.16-0.713-0.192-1.08c-0.014,0.01-0.028,0.021-0.043,0.031c-0.028,0.02-0.057,0.038-0.087,0.053
		c-0.275,0.144-0.604,0.22-0.952,0.22c-0.417,0-0.828-0.11-1.157-0.309c-0.545-0.33-0.857-0.895-0.857-1.55V14.25H3.75
		c-1.241,0-2.25-1.009-2.25-2.25V2.25C1.5,1.009,2.509,0,3.75,0h16.5c1.241,0,2.25,1.009,2.25,2.25V12c0,1.241-1.009,2.25-2.25,2.25
		h-4.5c-0.414,0-0.75-0.336-0.75-0.75V9.375c0-0.62-0.505-1.125-1.125-1.125S12.75,8.755,12.75,9.375v5.1
		c0,0.062-0.008,0.124-0.023,0.183l-0.488,1.948c-0.22,0.813-0.228,1.664-0.024,2.469c0.33,0.618,0.711,1.215,1.133,1.773
		c0.098,0.129,0.152,0.29,0.152,0.452v1.2h5.248c-0.002-0.518-0.007-0.953-0.011-1.327l0-0.035
		c-0.025-2.221-0.026-2.354,0.592-4.868c0.083-0.336,0.383-0.571,0.728-0.571c0.06,0,0.12,0.007,0.179,0.022
		c0.402,0.099,0.648,0.506,0.55,0.907c-0.573,2.329-0.573,2.329-0.549,4.493c0.006,0.552,0.014,1.237,0.014,2.128
		c0,0.414-0.336,0.75-0.75,0.75H12.75z M9,16.912c0,0.155,0.049,0.215,0.134,0.266c0.095,0.057,0.232,0.09,0.377,0.09
		c0.098,0,0.176-0.015,0.226-0.033c0.527-0.392,0.935-0.92,1.182-1.531l0.331-1.323V14.25H9V16.912z M20.25,12.75
		c0.414,0,0.75-0.336,0.75-0.75V2.25c0-0.414-0.336-0.75-0.75-0.75H3.75C3.336,1.5,3,1.836,3,2.25V12c0,0.414,0.336,0.75,0.75,0.75
		h7.5V9.375c0-1.447,1.177-2.625,2.625-2.625S16.5,7.928,16.5,9.375v3.375H20.25z"/>
	<path d="M12.9,4.5c-0.414,0-0.75-0.336-0.75-0.75S12.486,3,12.9,3h5.85c0.414,0,0.75,0.336,0.75,0.75S19.164,4.5,18.75,4.5H12.9z"
		/>
	<path d="M7.5,9.375c-1.654,0-3-1.346-3-3s1.346-3,3-3s3,1.346,3,3S9.154,9.375,7.5,9.375z M7.5,4.875c-0.827,0-1.5,0.673-1.5,1.5
		s0.673,1.5,1.5,1.5S9,7.202,9,6.375S8.327,4.875,7.5,4.875z"/>
</g>
</svg>
