<?xml version="1.0" encoding="utf-8"?>
<!-- Generator: Adobe Illustrator 22.1.0, SVG Export Plug-In . SVG Version: 6.00 Build 0)  -->
<svg version="1.1" id="Layer_1" xmlns="http://www.w3.org/2000/svg" xmlns:xlink="http://www.w3.org/1999/xlink" x="0px" y="0px"
	 viewBox="0 0 24 24" style="enable-background:new 0 0 24 24;" xml:space="preserve">
<title>job-seach-man</title>
<g>
	<path d="M22.496,23.246c-0.2,0-0.389-0.078-0.53-0.22l-5.124-5.122c-0.755,0.646-1.605,1.171-2.532,1.565
		c-1.22,0.519-2.503,0.781-3.812,0.782c-1.248,0-2.476-0.24-3.65-0.714c-2.415-0.974-4.306-2.831-5.325-5.228
		C0.504,11.912,0.48,9.262,1.454,6.847c0.974-2.415,2.831-4.306,5.228-5.325c1.22-0.519,2.503-0.782,3.812-0.782
		c1.249,0,2.476,0.24,3.65,0.714c2.415,0.974,4.306,2.831,5.325,5.228c1.018,2.397,1.043,5.047,0.068,7.462
		c-0.399,0.989-0.949,1.895-1.637,2.698l5.125,5.123c0.142,0.141,0.22,0.33,0.22,0.53c0,0.2-0.078,0.389-0.22,0.53
		S22.696,23.246,22.496,23.246z M10.495,2.241c-1.107,0-2.192,0.223-3.226,0.662C5.241,3.764,3.67,5.365,2.845,7.408
		c-0.825,2.044-0.804,4.286,0.058,6.314c0.862,2.028,2.462,3.599,4.506,4.424c0.993,0.401,2.033,0.604,3.089,0.604
		c1.107,0,2.192-0.223,3.225-0.662c0.969-0.412,1.836-0.992,2.577-1.725c0.009-0.012,0.019-0.023,0.029-0.032
		c0.012-0.012,0.026-0.024,0.041-0.035c0.758-0.765,1.362-1.683,1.778-2.713c0.824-2.044,0.804-4.286-0.058-6.314
		c-0.862-2.028-2.462-3.599-4.505-4.424C12.59,2.444,11.551,2.241,10.495,2.241z"/>
	<path d="M10.496,11.246c-2.068,0-3.75-1.682-3.75-3.75s1.682-3.75,3.75-3.75c2.068,0,3.75,1.682,3.75,3.75
		S12.563,11.246,10.496,11.246z M10.496,5.246c-1.241,0-2.25,1.009-2.25,2.25s1.009,2.25,2.25,2.25s2.25-1.009,2.25-2.25
		S11.736,5.246,10.496,5.246z"/>
	<path d="M10.496,17.246c-0.414,0-0.75-0.336-0.75-0.75v-3.672c-0.165,0.033-0.324,0.076-0.477,0.129
		c-1.079,0.376-1.914,1.211-2.29,2.29c-0.105,0.301-0.39,0.503-0.708,0.503c-0.085,0-0.169-0.014-0.248-0.042
		c-0.389-0.135-0.596-0.564-0.46-0.954c0.528-1.514,1.699-2.685,3.212-3.213c0.534-0.186,1.099-0.283,1.678-0.288
		c0.015-0.001,0.032-0.002,0.043-0.002c0.017,0,0.033,0.001,0.05,0.003c0.779,0.007,1.526,0.181,2.221,0.516
		c1.257,0.607,2.202,1.667,2.661,2.984c0.066,0.189,0.055,0.393-0.032,0.573c-0.087,0.181-0.24,0.316-0.429,0.382
		c-0.079,0.028-0.163,0.042-0.248,0.042l0,0c-0.318,0-0.602-0.202-0.707-0.503c-0.328-0.94-1.001-1.695-1.897-2.128
		c-0.276-0.133-0.567-0.231-0.869-0.292v3.673C11.246,16.909,10.909,17.246,10.496,17.246z"/>
</g>
</svg>
