<?xml version="1.0" encoding="utf-8"?>
<!-- Generator: Adobe Illustrator 22.1.0, SVG Export Plug-In . SVG Version: 6.00 Build 0)  -->
<svg version="1.1" id="Layer_1" xmlns="http://www.w3.org/2000/svg" xmlns:xlink="http://www.w3.org/1999/xlink" x="0px" y="0px"
	 viewBox="0 0 24 24" style="enable-background:new 0 0 24 24;" xml:space="preserve">
<title>job-seach-woman</title>
<g>
	<path d="M22.496,23.246c-0.2,0-0.389-0.078-0.53-0.22l-5.123-5.123c-0.755,0.646-1.606,1.172-2.533,1.566
		c-1.22,0.519-2.503,0.781-3.812,0.782c-1.248,0-2.476-0.24-3.65-0.714c-2.415-0.974-4.306-2.831-5.325-5.228
		C0.504,11.912,0.48,9.262,1.454,6.847c0.974-2.415,2.831-4.306,5.228-5.325c1.22-0.519,2.503-0.782,3.812-0.782
		c1.249,0,2.476,0.24,3.65,0.714c2.415,0.974,4.306,2.831,5.325,5.228c1.018,2.397,1.043,5.047,0.068,7.462
		c-0.399,0.989-0.948,1.894-1.635,2.697l5.124,5.125c0.142,0.142,0.22,0.33,0.22,0.53s-0.078,0.389-0.22,0.53
		S22.696,23.246,22.496,23.246z M10.495,2.241c-1.107,0-2.192,0.223-3.226,0.662C5.241,3.764,3.67,5.365,2.845,7.408
		c-0.825,2.044-0.804,4.286,0.058,6.314c0.862,2.028,2.462,3.599,4.506,4.424c0.993,0.401,2.033,0.604,3.089,0.604
		c1.107,0,2.192-0.223,3.225-0.662c0.967-0.411,1.833-0.99,2.574-1.722c0.01-0.014,0.021-0.026,0.032-0.037
		c0.015-0.015,0.029-0.027,0.042-0.037c0.765-0.776,1.363-1.687,1.775-2.709c0.824-2.044,0.804-4.286-0.058-6.314
		c-0.862-2.028-2.462-3.599-4.505-4.424C12.59,2.444,11.551,2.241,10.495,2.241z"/>
	<path d="M10.496,16.496c-0.273,0-0.525-0.149-0.657-0.388l-1.475-2.676c-0.638,0.447-1.124,1.081-1.387,1.817
		c-0.107,0.298-0.391,0.497-0.707,0.497c-0.086,0-0.171-0.015-0.252-0.043c-0.189-0.067-0.34-0.204-0.426-0.385
		s-0.096-0.385-0.028-0.573c0.477-1.334,1.49-2.435,2.78-3.021c0.099-0.045,0.203-0.067,0.31-0.067c0.273,0,0.525,0.149,0.657,0.388
		l1.184,2.149l1.184-2.149c0.132-0.239,0.384-0.388,0.657-0.388c0.107,0,0.212,0.023,0.31,0.067c1.29,0.587,2.303,1.688,2.779,3.022
		c0.139,0.389-0.065,0.82-0.455,0.958c-0.081,0.029-0.166,0.044-0.252,0.044c0,0,0,0,0,0c-0.316,0-0.6-0.2-0.706-0.498
		c-0.263-0.736-0.748-1.37-1.386-1.817l-1.475,2.676C11.021,16.347,10.769,16.496,10.496,16.496z"/>
	<path d="M15.746,11.996c-0.674,0-1.847-0.264-2.521-1.933c-0.702,0.751-1.679,1.183-2.729,1.183s-2.027-0.432-2.729-1.183
		c-0.674,1.669-1.847,1.933-2.521,1.933c-0.414,0-0.75-0.336-0.75-0.75s0.336-0.75,0.75-0.75c1.444,0,1.5-2.971,1.5-3.001
		c0-2.067,1.682-3.749,3.75-3.749c2.067,0,3.75,1.682,3.75,3.75c0,0.029,0.055,3,1.5,3c0.414,0,0.75,0.336,0.75,0.75
		S16.159,11.996,15.746,11.996z M10.496,5.246c-1.241,0-2.25,1.009-2.25,2.25s1.009,2.25,2.25,2.25s2.25-1.009,2.25-2.25
		S11.736,5.246,10.496,5.246z"/>
</g>
</svg>
