<?xml version="1.0" encoding="utf-8"?>
<!-- Generator: Adobe Illustrator 22.1.0, SVG Export Plug-In . SVG Version: 6.00 Build 0)  -->
<svg version="1.1" id="Regular" xmlns="http://www.w3.org/2000/svg" xmlns:xlink="http://www.w3.org/1999/xlink" x="0px" y="0px"
	 viewBox="0 0 24 24" style="enable-background:new 0 0 24 24;" xml:space="preserve">
<title>kitchenware-draining-net</title>
<g>
	<path d="M12,24c-1.241,0-2.25-1.009-2.25-2.25V15H5.449c-0.937,0-1.699-0.762-1.699-1.699V1.699C3.75,0.762,4.512,0,5.449,0h13.102
		c0.937,0,1.699,0.762,1.699,1.699v11.602c0,0.937-0.762,1.699-1.699,1.699H14.25v6.75C14.25,22.991,13.241,24,12,24z M11.25,21.75
		c0,0.414,0.336,0.75,0.75,0.75s0.75-0.336,0.75-0.75V19.5h-1.5V21.75z M12.75,18v-3h-1.5v3H12.75z M18.551,13.5
		c0.11,0,0.199-0.089,0.199-0.199V10.5h-3v3H18.551z M14.25,13.5v-3h-4.5v3H14.25z M5.25,13.301c0,0.11,0.089,0.199,0.199,0.199
		H8.25v-3h-3V13.301z M18.75,9V6h-3v3H18.75z M14.25,9V6h-4.5v3H14.25z M8.25,9V6h-3v3H8.25z M18.75,4.5V1.699
		c0-0.11-0.089-0.199-0.199-0.199H15.75v3H18.75z M14.25,4.5v-3h-4.5v3H14.25z M8.25,4.5v-3H5.449c-0.11,0-0.199,0.089-0.199,0.199
		V4.5H8.25z"/>
</g>
</svg>
