<?xml version="1.0" encoding="utf-8"?>
<!-- Generator: Adobe Illustrator 22.1.0, SVG Export Plug-In . SVG Version: 6.00 Build 0)  -->
<svg version="1.1" id="Regular" xmlns="http://www.w3.org/2000/svg" xmlns:xlink="http://www.w3.org/1999/xlink" x="0px" y="0px"
	 viewBox="0 0 24 24" style="enable-background:new 0 0 24 24;" xml:space="preserve">
<title>kitchen-storage</title>
<g>
	<path d="M1.5,6C0.673,6,0,5.327,0,4.5v-3C0,0.673,0.673,0,1.5,0h21C23.327,0,24,0.673,24,1.5v3C24,5.327,23.327,6,22.5,6H1.5z
		 M22.5,4.5v-3h-6v3H22.5z M15,4.5v-3H9v3H15z M1.5,4.5h6v-3h-6V4.5z"/>
	<path d="M2.25,24C1.009,24,0,22.991,0,21.75v-6c0-1.241,1.009-2.25,2.25-2.25h2.652c-0.734-0.818-1.152-1.884-1.152-3
		c0-0.414,0.336-0.75,0.75-0.75H12c0.414,0,0.75,0.336,0.75,0.75c0,1.116-0.419,2.182-1.152,3h4.737l-0.571-2.853
		c-0.044-0.222,0.012-0.448,0.155-0.623C16.063,9.85,16.275,9.75,16.5,9.75H21c0.225,0,0.437,0.1,0.58,0.274
		c0.143,0.174,0.2,0.401,0.156,0.623L21.165,13.5h0.585c1.241,0,2.25,1.009,2.25,2.25v6c0,1.241-1.009,2.25-2.25,2.25H2.25z
		 M21.75,22.5c0.414,0,0.75-0.336,0.75-0.75V18h-6v4.5H21.75z M15,22.5V18H9v4.5H15z M1.5,21.75c0,0.414,0.336,0.75,0.75,0.75H7.5
		V18h-6V21.75z M22.5,16.5v-0.75c0-0.414-0.336-0.75-0.75-0.75H2.25c-0.414,0-0.75,0.336-0.75,0.75v0.75H22.5z M19.635,13.5
		l0.45-2.25h-2.67l0.45,2.25H19.635z M5.344,11.25c0.335,1.308,1.518,2.25,2.906,2.25s2.571-0.942,2.906-2.25H5.344z"/>
</g>
</svg>
