<?xml version="1.0" encoding="utf-8"?>
<!-- Generator: Adobe Illustrator 22.1.0, SVG Export Plug-In . SVG Version: 6.00 Build 0)  -->
<svg version="1.1" id="Regular" xmlns="http://www.w3.org/2000/svg" xmlns:xlink="http://www.w3.org/1999/xlink" x="0px" y="0px"
	 viewBox="0 0 24 24" style="enable-background:new 0 0 24 24;" xml:space="preserve">
<title>kitchenware-strainer</title>
<g>
	<path d="M2.563,23.702c-0.6,0-1.166-0.233-1.592-0.656c-0.889-0.888-0.89-2.322-0.009-3.204c0.002-0.002,7.179-7.178,7.179-7.178
		c-0.693-1.236-1.058-2.631-1.058-4.055c0-4.583,3.728-8.311,8.311-8.311s8.311,3.728,8.311,8.311c0,4.583-3.728,8.311-8.311,8.311
		c-1.424,0-2.819-0.365-4.055-1.058l-7.177,7.177c-0.427,0.427-0.994,0.663-1.598,0.663H2.563z M2.025,21.98
		c0.144,0.144,0.335,0.223,0.538,0.223c0.204,0,0.395-0.079,0.538-0.223l2.395-2.395l-1.077-1.077l-2.393,2.393
		c-0.004,0.004-0.025,0.024-0.029,0.028c-0.269,0.271-0.265,0.754,0.021,1.046C2.021,21.975,2.023,21.977,2.025,21.98z
		 M6.557,18.524l3.526-3.526c-0.391-0.326-0.752-0.686-1.077-1.077L5.48,17.446L6.557,18.524z M15.394,1.798
		c-3.756,0-6.811,3.055-6.811,6.811c0,3.755,3.055,6.811,6.811,6.811s6.811-3.055,6.811-6.811
		C22.205,4.854,19.15,1.798,15.394,1.798z"/>
	<path d="M15.345,5.544c-0.3,0-0.583-0.117-0.795-0.329c-0.438-0.439-0.438-1.152-0.001-1.591c0.212-0.213,0.495-0.33,0.795-0.33
		c0.301,0,0.583,0.117,0.795,0.329c0.213,0.213,0.33,0.495,0.33,0.796c0,0.3-0.117,0.583-0.329,0.796
		C15.929,5.427,15.647,5.544,15.345,5.544L15.345,5.544z"/>
	<path d="M17.469,7.663c-0.301,0-0.583-0.117-0.796-0.329c-0.438-0.439-0.439-1.152-0.001-1.591
		c0.213-0.213,0.495-0.329,0.796-0.329c0.3,0,0.583,0.116,0.795,0.328c0.439,0.439,0.439,1.152,0.001,1.591
		C18.052,7.546,17.77,7.663,17.469,7.663L17.469,7.663z"/>
	<path d="M19.584,9.782c-0.3,0-0.583-0.117-0.794-0.328c-0.212-0.211-0.33-0.494-0.331-0.794c0-0.301,0.116-0.583,0.328-0.796
		c0.223-0.218,0.502-0.331,0.797-0.331c0.302,0,0.584,0.118,0.796,0.33c0.212,0.213,0.329,0.495,0.328,0.796
		s-0.118,0.583-0.331,0.795C20.166,9.666,19.884,9.782,19.584,9.782z"/>
	<path d="M13.226,7.663c-0.3,0-0.583-0.117-0.795-0.329c-0.439-0.439-0.439-1.153-0.001-1.591c0.213-0.213,0.495-0.329,0.796-0.329
		c0.3,0,0.583,0.117,0.795,0.328c0.212,0.212,0.33,0.494,0.33,0.795c0,0.301-0.116,0.583-0.329,0.796
		C13.81,7.546,13.527,7.663,13.226,7.663z"/>
	<path d="M15.345,9.782c-0.301,0-0.583-0.117-0.795-0.328c-0.436-0.439-0.437-1.152-0.002-1.59c0.002-0.003,0.005-0.005,0.008-0.007
		c0.212-0.209,0.492-0.324,0.79-0.324c0.302,0,0.584,0.118,0.796,0.33c0.212,0.213,0.329,0.496,0.328,0.796
		c0,0.3-0.118,0.583-0.331,0.795C15.928,9.666,15.645,9.782,15.345,9.782z"/>
	<path d="M17.469,11.902c-0.292,0-0.57-0.111-0.78-0.314c-0.449-0.448-0.455-1.157-0.027-1.595c0.223-0.223,0.505-0.34,0.806-0.34
		c0.3,0,0.583,0.117,0.795,0.328c0.439,0.439,0.439,1.152,0.001,1.591C18.052,11.785,17.77,11.902,17.469,11.902L17.469,11.902z"/>
	<path d="M11.106,9.782c-0.3,0-0.582-0.116-0.794-0.328c-0.439-0.438-0.44-1.152-0.002-1.591c0.215-0.214,0.497-0.33,0.797-0.33
		c0.301,0,0.584,0.117,0.796,0.33c0.212,0.213,0.329,0.496,0.328,0.796c0,0.3-0.118,0.583-0.331,0.795
		C11.689,9.666,11.407,9.782,11.106,9.782L11.106,9.782z"/>
	<path d="M13.226,11.902c-0.292,0-0.569-0.111-0.779-0.313c-0.45-0.448-0.455-1.157-0.027-1.596c0.223-0.223,0.505-0.34,0.806-0.34
		c0.3,0,0.583,0.117,0.795,0.329c0.212,0.212,0.33,0.494,0.33,0.795c0,0.301-0.116,0.583-0.329,0.796
		C13.81,11.785,13.527,11.902,13.226,11.902z"/>
	<path d="M15.345,14.021c-0.3,0-0.583-0.117-0.795-0.329c-0.004-0.004-0.016-0.016-0.019-0.02c-0.419-0.435-0.412-1.141,0.018-1.571
		c0.212-0.213,0.495-0.33,0.796-0.33c0.3,0,0.583,0.117,0.795,0.329c0.213,0.212,0.33,0.495,0.33,0.796
		c0,0.301-0.117,0.583-0.33,0.796C15.93,13.903,15.647,14.02,15.345,14.021C15.346,14.021,15.346,14.021,15.345,14.021z"/>
</g>
</svg>
