<?xml version="1.0" encoding="utf-8"?>
<!-- Generator: Adobe Illustrator 22.1.0, SVG Export Plug-In . SVG Version: 6.00 Build 0)  -->
<svg version="1.1" id="Regular" xmlns="http://www.w3.org/2000/svg" xmlns:xlink="http://www.w3.org/1999/xlink" x="0px" y="0px"
	 viewBox="0 0 24 24" style="enable-background:new 0 0 24 24;" xml:space="preserve">
<title>kitchenware-scooper</title>
<g>
	<path d="M10.374,23.933c-0.175,0-0.352-0.016-0.526-0.046c-0.789-0.139-1.477-0.577-1.937-1.234
		c-0.46-0.656-0.636-1.453-0.497-2.242c0.005-0.031,0.013-0.064,0.023-0.096l1.749-5.502l-5.501,1.749
		c-0.034,0.01-0.065,0.018-0.097,0.024c-0.175,0.031-0.352,0.046-0.527,0.046c-0.615,0-1.208-0.188-1.716-0.543
		c-0.656-0.46-1.094-1.148-1.233-1.937c-0.139-0.789,0.037-1.585,0.497-2.241c0.46-0.656,1.148-1.094,1.937-1.233l8.836-1.558
		c0.011-0.002,0.027-0.004,0.042-0.005c0.177-0.031,0.343-0.045,0.506-0.045c0.54,0,1.06,0.144,1.522,0.418l1.028-1.028
		c-0.679-0.906-1.049-2.008-1.049-3.14c0-2.895,2.355-5.25,5.25-5.25s5.25,2.355,5.25,5.25s-2.355,5.25-5.25,5.25
		c-1.132,0-2.234-0.37-3.14-1.049l-1.028,1.028c0.274,0.461,0.418,0.981,0.418,1.521c0,0.163-0.015,0.329-0.045,0.506
		c-0.001,0.016-0.003,0.034-0.006,0.046l-1.557,8.832c-0.139,0.789-0.577,1.477-1.234,1.937
		C11.582,23.745,10.989,23.933,10.374,23.933z M8.884,20.716c-0.055,0.38,0.035,0.761,0.256,1.076
		c0.23,0.328,0.574,0.547,0.968,0.616c0.088,0.016,0.177,0.023,0.265,0.023c0.306,0,0.602-0.094,0.857-0.272
		c0.328-0.23,0.547-0.573,0.617-0.968l1.112-6.306c-0.326,0.12-0.672,0.182-1.026,0.182c-0.405,0-0.804-0.083-1.175-0.242
		L8.884,20.716z M2.808,12.154c-0.395,0.07-0.738,0.289-0.968,0.617c-0.23,0.328-0.318,0.726-0.249,1.121
		c0.07,0.395,0.289,0.739,0.617,0.969c0.254,0.177,0.55,0.271,0.858,0.271c0.073,0,0.146-0.005,0.219-0.016l5.89-1.873
		c-0.159-0.371-0.242-0.77-0.242-1.175c0-0.354,0.062-0.7,0.182-1.026L2.808,12.154z M11.932,10.569c-0.827,0-1.5,0.673-1.5,1.5
		c0,0.827,0.673,1.5,1.5,1.5c0.827,0,1.5-0.673,1.5-1.5C13.432,11.241,12.759,10.569,11.932,10.569z M18.682,1.569
		c-2.068,0-3.75,1.682-3.75,3.75s1.682,3.75,3.75,3.75s3.75-1.682,3.75-3.75S20.75,1.569,18.682,1.569z"/>
	<path d="M18.682,7.569c-0.414,0-0.75-0.336-0.75-0.75s0.336-0.75,0.75-0.75s0.75-0.336,0.75-0.75s0.336-0.75,0.75-0.75
		s0.75,0.336,0.75,0.75C20.932,6.559,19.923,7.569,18.682,7.569z"/>
</g>
</svg>
