<?xml version="1.0" encoding="utf-8"?>
<!-- Generator: Adobe Illustrator 22.1.0, SVG Export Plug-In . SVG Version: 6.00 Build 0)  -->
<svg version="1.1" id="Regular" xmlns="http://www.w3.org/2000/svg" xmlns:xlink="http://www.w3.org/1999/xlink" x="0px" y="0px"
	 viewBox="0 0 24 24" style="enable-background:new 0 0 24 24;" xml:space="preserve">
<title>kitchenware-whisk</title>
<g>
	<path d="M3.455,23.553c-0.837,0-1.641-0.352-2.206-0.964c-1.054-1.143-1.053-2.931,0.003-4.072l4.729-4.735
		c-0.05-3.841,2.8-9.164,4.832-11.196c1.414-1.414,3.298-2.193,5.303-2.193s3.889,0.779,5.303,2.193
		C22.835,4,23.614,5.884,23.614,7.889s-0.779,3.889-2.193,5.303c-1.971,1.971-7.277,4.835-11.105,4.835
		c-0.031,0-0.062,0-0.093-0.001c0,0-4.729,4.729-4.733,4.732C4.933,23.271,4.212,23.553,3.455,23.553z M2.333,19.556
		C1.821,20.111,1.825,21,2.352,21.571c0.283,0.306,0.685,0.482,1.103,0.482c0.376,0,0.736-0.139,1.012-0.393l4.225-4.226
		l-2.121-2.121L2.333,19.556z M21.799,5.969c-0.484,1.463-1.559,3.1-3.031,4.572c-1.696,1.697-5.435,4.603-8.162,5.98
		c3.373-0.136,8.052-2.686,9.754-4.388C21.984,10.507,22.514,8.096,21.799,5.969z M8.984,15.605c2.364-0.871,6.85-4.251,8.724-6.126
		c2.628-2.629,3.316-5.169,2.652-5.833c-0.193-0.192-0.515-0.233-0.751-0.233c-1.013,0-2.952,0.755-5.082,2.885
		c-1.875,1.874-5.255,6.359-6.126,8.724L8.984,15.605z M16.114,1.893c-1.604,0-3.11,0.623-4.24,1.753
		c-1.793,1.793-4.258,6.508-4.389,9.755c1.377-2.727,4.284-6.468,5.981-8.164c1.472-1.471,3.108-2.547,4.571-3.03
		C17.42,2,16.77,1.893,16.114,1.893z"/>
</g>
</svg>
