<?xml version="1.0" encoding="utf-8"?>
<!-- Generator: Adobe Illustrator 22.1.0, SVG Export Plug-In . SVG Version: 6.00 Build 0)  -->
<svg version="1.1" id="Regular" xmlns="http://www.w3.org/2000/svg" xmlns:xlink="http://www.w3.org/1999/xlink" x="0px" y="0px"
	 viewBox="0 0 24 24" style="enable-background:new 0 0 24 24;" xml:space="preserve">
<title>kitchenware-spoon-set</title>
<g>
	<path d="M18.441,24c-0.06,0-0.115-0.007-0.174-0.021c-0.017-0.003-0.017-0.003-0.034-0.009c-0.009-0.003-0.022-0.008-0.034-0.012
		c-0.034-0.011-0.066-0.025-0.097-0.041c-0.002-0.001-0.006-0.003-0.01-0.005c-0.016-0.007-0.031-0.015-0.045-0.024L6.383,16.752
		c-0.565,0.692-1.427,1.109-2.331,1.109c-0.394,0-0.778-0.077-1.144-0.228c-0.74-0.306-1.317-0.883-1.624-1.623
		c-0.307-0.74-0.307-1.556-0.001-2.296c0.471-1.129,1.559-1.853,2.776-1.853c0.393,0,0.778,0.077,1.144,0.228
		c1.306,0.54,2.046,1.919,1.806,3.288l9.272,5.673l-5.788-9.872c-0.474,0.21-0.987,0.319-1.502,0.319
		c-0.189,0-0.379-0.014-0.567-0.043c-0.99-0.15-1.863-0.676-2.458-1.482C4.74,8.309,5.094,5.958,6.755,4.73
		c0.653-0.481,1.42-0.733,2.224-0.733c1.189,0,2.319,0.569,3.022,1.522c0.595,0.806,0.84,1.796,0.69,2.786
		c-0.115,0.764-0.448,1.45-0.969,2.003l5.968,10.179V8.935c-2.129-0.362-3.75-2.247-3.75-4.435c0-2.481,2.019-4.5,4.5-4.5
		s4.5,2.019,4.5,4.5c0,2.188-1.621,4.073-3.75,4.435V23.25c0,0.012-0.003,0.062-0.005,0.078c-0.002,0.019-0.004,0.034-0.007,0.05
		c-0.001,0.007-0.006,0.032-0.008,0.039l-0.016,0.057c-0.006,0.02-0.011,0.033-0.016,0.047c-0.003,0.007-0.013,0.033-0.017,0.04
		c-0.007,0.014-0.014,0.028-0.021,0.042c-0.007,0.015-0.016,0.031-0.022,0.041c-0.006,0.01-0.026,0.038-0.026,0.038
		c-0.014,0.02-0.03,0.04-0.046,0.058c-0.016,0.019-0.028,0.032-0.04,0.044c-0.004,0.004-0.016,0.015-0.016,0.015
		c-0.014,0.013-0.03,0.026-0.045,0.038c-0.02,0.016-0.036,0.027-0.051,0.038c-0.012,0.009-0.026,0.018-0.038,0.025
		c-0.01,0.006-0.038,0.019-0.042,0.021c-0.032,0.016-0.065,0.029-0.099,0.04c-0.015,0.006-0.033,0.012-0.046,0.015
		c-0.009,0.002-0.02,0.005-0.03,0.007C18.544,23.994,18.495,24,18.445,24C18.444,24,18.443,24,18.441,24L18.441,24z M4.059,13.361
		c-0.611,0-1.156,0.364-1.389,0.926c-0.153,0.374-0.153,0.78,0,1.149c0.153,0.37,0.442,0.658,0.812,0.812
		c0.184,0.076,0.377,0.115,0.574,0.115c0.197,0,0.39-0.039,0.574-0.115c0.37-0.154,0.658-0.442,0.811-0.812
		c0.316-0.764-0.048-1.644-0.812-1.96C4.447,13.4,4.255,13.361,4.059,13.361z M8.98,5.497c-0.481,0-0.94,0.151-1.328,0.435
		c-0.005,0.004-0.03,0.021-0.036,0.025C7.16,6.296,6.849,6.816,6.759,7.41c-0.09,0.594,0.057,1.188,0.414,1.672
		C7.53,9.565,8.054,9.881,8.648,9.97c0.113,0.017,0.228,0.026,0.341,0.026c0.48,0,0.94-0.152,1.33-0.44
		c0.484-0.357,0.799-0.88,0.889-1.475s-0.057-1.188-0.414-1.671C10.373,5.838,9.694,5.497,8.98,5.497z M18.441,1.5
		c-1.654,0-3,1.346-3,3s1.346,3,3,3s3-1.346,3-3S20.095,1.5,18.441,1.5z"/>
</g>
</svg>
