<?xml version="1.0" encoding="utf-8"?>
<!-- Generator: Adobe Illustrator 22.1.0, SVG Export Plug-In . SVG Version: 6.00 Build 0)  -->
<svg version="1.1" id="Regular" xmlns="http://www.w3.org/2000/svg" xmlns:xlink="http://www.w3.org/1999/xlink" x="0px" y="0px"
	 viewBox="0 0 24 24" style="enable-background:new 0 0 24 24;" xml:space="preserve">
<title>kitchenware-peeler</title>
<g>
	<path d="M12,24c-2.481,0-4.5-2.019-4.5-4.5v-6.75c0-0.116,0.027-0.232,0.079-0.335l1.008-2.016C5.414,9.84,3,7.018,3,3.75v-3
		C3,0.336,3.336,0,3.75,0S4.5,0.336,4.5,0.75V3h15V0.75C19.5,0.336,19.836,0,20.25,0S21,0.336,21,0.75v3
		c0,3.268-2.414,6.09-5.587,6.648l1.008,2.016c0.052,0.104,0.079,0.22,0.079,0.335v6.75C16.5,21.981,14.481,24,12,24z M9,19.5
		c0,1.654,1.346,3,3,3c1.654,0,3-1.346,3-3v-6.573L13.787,10.5h-3.573L9,12.927V19.5z M4.555,4.5C4.922,7.054,7.13,9,9.75,9h4.5
		c2.619,0,4.828-1.946,5.195-4.5H4.555z"/>
	<circle cx="12" cy="19.5" r="1.125"/>
</g>
</svg>
