<?xml version="1.0" encoding="utf-8"?>
<!-- Generator: Adobe Illustrator 22.1.0, SVG Export Plug-In . SVG Version: 6.00 Build 0)  -->
<svg version="1.1" id="Regular" xmlns="http://www.w3.org/2000/svg" xmlns:xlink="http://www.w3.org/1999/xlink" x="0px" y="0px"
	 viewBox="0 0 24 24" style="enable-background:new 0 0 24 24;" xml:space="preserve">
<title>kitchenware-roller</title>
<g>
	<path d="M3.401,23.731c-0.336,0-0.67-0.055-0.994-0.163c-0.927-0.309-1.665-1.047-1.974-1.974
		c-0.466-1.397,0.091-2.902,1.354-3.659l2.511-1.502c-0.217-0.384-0.33-0.814-0.33-1.265c0-0.691,0.269-1.341,0.758-1.83
		l8.613-8.613c0.489-0.489,1.139-0.758,1.83-0.758c0.449,0,0.877,0.112,1.26,0.327l1.508-2.509c0.569-0.949,1.564-1.516,2.662-1.516
		c0.337,0,0.673,0.055,0.997,0.163c0.927,0.309,1.666,1.047,1.974,1.975c0.466,1.396-0.091,2.901-1.354,3.659l-2.51,1.507
		c0.214,0.382,0.326,0.81,0.326,1.258c0,0.691-0.269,1.341-0.758,1.83l-8.613,8.613c-0.489,0.489-1.139,0.758-1.83,0.758
		c-0.446,0-0.872-0.111-1.253-0.323l-1.512,2.509c-0.569,0.948-1.565,1.515-2.662,1.515H3.401z M2.557,19.222
		c-0.654,0.393-0.943,1.173-0.702,1.898c0.161,0.482,0.544,0.865,1.026,1.026c0.169,0.056,0.344,0.085,0.519,0.085
		c0.568,0,1.084-0.294,1.38-0.787l1.652-2.739l-1.126-1.126L2.557,19.222z M8.135,18.28c0.196,0.163,0.439,0.251,0.696,0.251
		c0.291,0,0.564-0.113,0.769-0.318L18.213,9.6c0.404-0.404,0.423-1.051,0.056-1.478c-0.167-0.056-0.31-0.168-0.402-0.321
		c-0.03-0.049-0.053-0.101-0.07-0.155l-1.444-1.444c-0.054-0.017-0.106-0.041-0.156-0.071c-0.154-0.093-0.267-0.235-0.323-0.402
		c-0.203-0.172-0.448-0.262-0.707-0.262c-0.291,0-0.564,0.113-0.769,0.319l-8.613,8.613c-0.205,0.206-0.319,0.479-0.319,0.769
		c0,0.265,0.094,0.516,0.267,0.714c0.168,0.056,0.31,0.17,0.403,0.324c0.028,0.047,0.051,0.098,0.068,0.15l1.44,1.439
		c0.058,0.018,0.113,0.042,0.165,0.074C7.964,17.963,8.079,18.11,8.135,18.28z M18.7,6.426l2.744-1.647
		c0.655-0.393,0.944-1.174,0.702-1.899c-0.16-0.482-0.544-0.865-1.026-1.026c-0.169-0.057-0.344-0.085-0.52-0.085
		c-0.568,0-1.083,0.294-1.379,0.787L17.574,5.3L18.7,6.426z"/>
</g>
</svg>
