<?xml version="1.0" encoding="utf-8"?>
<!-- Generator: Adobe Illustrator 22.1.0, SVG Export Plug-In . SVG Version: 6.00 Build 0)  -->
<svg version="1.1" id="Regular" xmlns="http://www.w3.org/2000/svg" xmlns:xlink="http://www.w3.org/1999/xlink" x="0px" y="0px"
	 viewBox="0 0 24 24" style="enable-background:new 0 0 24 24;" xml:space="preserve">
<title>kitchenware-garlic-mincer</title>
<g>
	<path d="M0.751,24c-0.2,0-0.389-0.078-0.53-0.22c-0.292-0.292-0.292-0.768,0-1.061l11.893-11.893L8.931,7.644
		C8.754,7.467,8.677,7.214,8.726,6.967l0.531-2.652c0.059-0.298,0.29-0.529,0.588-0.588l2.161-0.432l0.433-2.162
		c0.06-0.298,0.291-0.529,0.588-0.588l2.651-0.53C15.728,0.005,15.777,0,15.826,0c0.2,0,0.389,0.078,0.53,0.22l3.182,3.182
		L20.47,2.47c0.142-0.142,0.33-0.22,0.53-0.22s0.389,0.078,0.53,0.22c0.142,0.141,0.22,0.33,0.22,0.53c0,0.2-0.078,0.389-0.22,0.53
		l-0.932,0.932l3.182,3.182c0.178,0.178,0.254,0.431,0.205,0.677l-0.53,2.651c-0.059,0.298-0.29,0.529-0.588,0.588l-2.162,0.433
		l-0.432,2.161c-0.059,0.297-0.29,0.529-0.588,0.588l-2.652,0.531c-0.05,0.01-0.099,0.015-0.147,0.015c-0.2,0-0.389-0.078-0.53-0.22
		l-3.182-3.182L1.281,23.78C1.139,23.922,0.951,24,0.751,24z M17.133,13.725l1.768-0.354l0.432-2.161
		c0.059-0.298,0.29-0.529,0.588-0.588l2.162-0.433l0.353-1.767l-6.858-6.857l-1.767,0.353l-0.433,2.162
		c-0.06,0.298-0.291,0.529-0.588,0.588L10.63,5.1l-0.354,1.768l3.414,3.414c0.011,0.01,0.021,0.02,0.03,0.03L17.133,13.725z"/>
</g>
</svg>
