<?xml version="1.0" encoding="utf-8"?>
<!-- Generator: Adobe Illustrator 22.1.0, SVG Export Plug-In . SVG Version: 6.00 Build 0)  -->
<svg version="1.1" id="Regular" xmlns="http://www.w3.org/2000/svg" xmlns:xlink="http://www.w3.org/1999/xlink" x="0px" y="0px"
	 viewBox="0 0 24 24" style="enable-background:new 0 0 24 24;" xml:space="preserve">
<title>kitchenware-pizza-cutter</title>
<g>
	<path d="M5.25,22.5C2.355,22.5,0,20.145,0,17.25S2.355,12,5.25,12s5.25,2.355,5.25,5.25S8.145,22.5,5.25,22.5z M5.25,13.5
		c-2.068,0-3.75,1.682-3.75,3.75S3.182,21,5.25,21S9,19.318,9,17.25S7.318,13.5,5.25,13.5z"/>
	<circle cx="5.25" cy="17.25" r="1.125"/>
	<path d="M12.75,18C12.336,18,12,17.664,12,17.25c0-2.829-1.789-5.38-4.452-6.347c-0.007-0.002-0.018-0.006-0.03-0.01
		C6.789,10.632,6.026,10.5,5.25,10.5c-0.414,0-0.75-0.336-0.75-0.75S4.836,9,5.25,9c0.796,0,1.584,0.115,2.347,0.342l4.441-4.44
		C14.231,2.708,17.148,1.5,20.25,1.5C22.318,1.5,24,3.182,24,5.25S22.318,9,20.25,9c-1.734,0-3.365,0.675-4.591,1.901l-2.912,2.912
		c0.5,1.083,0.752,2.238,0.752,3.437C13.5,17.664,13.164,18,12.75,18z M9.102,9.958c1.139,0.603,2.117,1.46,2.866,2.512l2.63-2.63
		C16.108,8.331,18.115,7.5,20.25,7.5c1.241,0,2.25-1.009,2.25-2.25S21.491,3,20.25,3c-2.702,0-5.241,1.052-7.152,2.962L9.102,9.958z
		"/>
</g>
</svg>
