<?xml version="1.0" encoding="utf-8"?>
<!-- Generator: Adobe Illustrator 22.1.0, SVG Export Plug-In . SVG Version: 6.00 Build 0)  -->
<svg version="1.1" id="Regular" xmlns="http://www.w3.org/2000/svg" xmlns:xlink="http://www.w3.org/1999/xlink" x="0px" y="0px"
	 viewBox="0 0 24 24" style="enable-background:new 0 0 24 24;" xml:space="preserve">
<title>kitchen-knife-set</title>
<g>
	<path d="M12.599,23.07c-0.172,0-0.34-0.032-0.498-0.094c-0.335-0.133-0.599-0.388-0.742-0.719
		c-0.143-0.331-0.149-0.698-0.016-1.033l1.052-2.725H8.208c-2.174,2.742-4.345,4.276-6.455,4.561c-0.06,0.007-0.115,0.01-0.17,0.01
		c-0.172,0-0.339-0.032-0.498-0.094c-0.336-0.133-0.599-0.388-0.742-0.719c-0.143-0.331-0.149-0.698-0.016-1.033l1.054-2.729
		C0.609,18.433,0,17.786,0,16.999v-3c0-0.827,0.673-1.5,1.5-1.5h2.196c0,0,1.124-2.916,1.125-2.918l2.873-7.443
		c0.278-0.724,0.988-1.21,1.765-1.21c0.232,0,0.459,0.042,0.677,0.126c0.974,0.376,1.46,1.473,1.085,2.445l-2.606,6.742l1.816,0.701
		c0.076,0.029,0.152,0.064,0.226,0.104c0.552,0.301,0.908,0.845,0.974,1.452h3.083c0,0,1.126-2.921,1.127-2.923l2.871-7.438
		c0.279-0.724,0.988-1.21,1.764-1.21c0.232,0,0.459,0.042,0.677,0.126c0.973,0.376,1.46,1.472,1.085,2.444l-2.606,6.742l1.816,0.701
		c0.078,0.03,0.155,0.065,0.228,0.105c0.442,0.24,0.764,0.639,0.907,1.123c0.033,0.111,0.055,0.223,0.067,0.335
		C23.406,12.58,24,13.221,24,13.999v3c0,0.827-0.673,1.5-1.5,1.5h-3.275c-2.174,2.742-4.345,4.276-6.455,4.561
		C12.709,23.067,12.654,23.07,12.599,23.07z M1.816,21.532c1.387-0.271,2.881-1.29,4.435-3.033H2.987L1.816,21.532z M12.833,21.529
		c1.399-0.279,2.888-1.297,4.434-3.031h-3.264L12.833,21.529z M1.5,13.999l0,3h21v-3h-7.235c-0.014,0.001-0.027,0.002-0.039,0.002
		c-0.014,0-0.03-0.001-0.045-0.003L4.249,13.999C4.235,14,4.222,14.001,4.21,14.001c-0.014,0-0.03-0.001-0.045-0.003L1.5,13.999z
		 M21.098,12.499c-0.035-0.056-0.084-0.102-0.143-0.135c-0.016-0.009-0.031-0.016-0.048-0.022l-3.941-1.521l-0.647,1.678H21.098z
		 M10.083,12.499c-0.035-0.056-0.084-0.102-0.143-0.135c-0.015-0.008-0.031-0.016-0.048-0.022L7.39,11.376
		c-0.013-0.004-0.026-0.01-0.039-0.016l-1.4-0.54l-0.647,1.678H10.083z M7.215,9.701l2.607-6.742c0.077-0.2-0.023-0.426-0.224-0.504
		C9.553,2.437,9.505,2.428,9.457,2.428c-0.16,0-0.306,0.1-0.363,0.249L6.491,9.421L7.215,9.701z M18.231,9.7l2.607-6.742
		c0.037-0.097,0.035-0.202-0.008-0.298s-0.119-0.169-0.216-0.206c-0.045-0.017-0.093-0.026-0.141-0.026
		c-0.16,0-0.306,0.1-0.364,0.249l-2.603,6.744L18.231,9.7z"/>
</g>
</svg>
