<?xml version="1.0" encoding="utf-8"?>
<!-- Generator: Adobe Illustrator 22.1.0, SVG Export Plug-In . SVG Version: 6.00 Build 0)  -->
<svg version="1.1" id="Regular" xmlns="http://www.w3.org/2000/svg" xmlns:xlink="http://www.w3.org/1999/xlink" x="0px" y="0px"
	 viewBox="0 0 24 24" style="enable-background:new 0 0 24 24;" xml:space="preserve">
<title>knife-1</title>
<g>
	<path d="M2.108,22.036c-0.59,0-1.144-0.229-1.561-0.645c-0.86-0.861-0.86-2.261-0.001-3.122L16.352,2.464
		c0.325-0.325,0.758-0.505,1.218-0.505c0.46,0,0.893,0.179,1.218,0.505l4.808,4.808c0.671,0.672,0.671,1.764,0,2.435l-9.965,9.964
		c-0.325,0.325-0.758,0.504-1.218,0.504c-0.46,0-0.893-0.179-1.218-0.504l-2.904-2.904l-4.623,4.623
		C3.252,21.807,2.698,22.036,2.108,22.036z M1.607,19.33c-0.276,0.276-0.276,0.725,0,1c0.133,0.133,0.311,0.206,0.5,0.206
		c0.19,0,0.368-0.073,0.501-0.207l4.623-4.623L6.23,14.706L1.607,19.33z M12.256,18.611c0.038,0.038,0.095,0.059,0.157,0.059
		s0.119-0.022,0.157-0.06l9.965-9.964c0.086-0.087,0.086-0.228,0-0.314L21.692,7.49L11.414,17.769L12.256,18.611z M10.353,16.708
		L20.632,6.429l-2.905-2.905c-0.038-0.038-0.095-0.059-0.157-0.059c-0.062,0-0.119,0.022-0.157,0.059L7.291,13.645l1.531,1.531
		c0.007,0.007,0.015,0.016,0.023,0.025L10.353,16.708z"/>
	<path d="M17.085,7.523c-0.3,0-0.582-0.117-0.795-0.329c-0.212-0.211-0.329-0.493-0.33-0.793c0-0.301,0.116-0.583,0.327-0.796
		c0.221-0.217,0.501-0.332,0.797-0.332c0.301,0,0.583,0.117,0.796,0.329c0.213,0.213,0.33,0.495,0.33,0.795
		c0,0.3-0.117,0.583-0.329,0.796c-0.211,0.212-0.494,0.329-0.795,0.33H17.085z"/>
</g>
</svg>
