<?xml version="1.0" encoding="utf-8"?>
<!-- Generator: Adobe Illustrator 22.1.0, SVG Export Plug-In . SVG Version: 6.00 Build 0)  -->
<svg version="1.1" id="Layer_1" xmlns="http://www.w3.org/2000/svg" xmlns:xlink="http://www.w3.org/1999/xlink" x="0px" y="0px"
	 viewBox="0 0 24 24" style="enable-background:new 0 0 24 24;" xml:space="preserve">
<title>lab-whisk-cup</title>
<g>
	<path d="M14.5,2.25c-0.03,0-0.06-0.003-0.091-0.006c0,0,0,0,0,0c0.001,0-0.011-0.001-0.026-0.003c-0.003,0-0.007-0.001-0.01-0.001
		c-0.027-0.002-0.053-0.004-0.079-0.009c-0.012-0.002-0.029-0.006-0.044-0.011c-0.275-0.061-0.518-0.224-0.679-0.459
		c-0.167-0.243-0.231-0.538-0.181-0.829c0.002-0.01,0.004-0.021,0.007-0.031c0.057-0.287,0.22-0.536,0.461-0.703
		c0.189-0.131,0.41-0.2,0.639-0.2c0.067,0,0.135,0.006,0.202,0.018c0.01,0.002,0.019,0.004,0.028,0.006
		c0.592,0.117,0.989,0.697,0.88,1.3c-0.002,0.012-0.005,0.023-0.008,0.035C15.49,1.877,15.032,2.25,14.5,2.25z"/>
	<path d="M8.875,4.876c-0.068,0-0.137-0.006-0.204-0.019C8.626,4.849,8.582,4.837,8.538,4.82c-0.244-0.076-0.448-0.225-0.59-0.431
		C7.778,4.143,7.714,3.844,7.768,3.548C7.776,3.504,7.788,3.46,7.805,3.416c0.146-0.467,0.584-0.791,1.072-0.791
		c0.068,0,0.136,0.006,0.203,0.018C9.125,2.651,9.17,2.664,9.215,2.682c0.534,0.17,0.864,0.708,0.769,1.26
		c0,0.003-0.003,0.015-0.003,0.018C9.881,4.49,9.415,4.876,8.875,4.876z"/>
	<path d="M11.874,11.999c-0.129,0-0.26-0.026-0.399-0.08c-0.057-0.017-0.112-0.04-0.163-0.069c-0.494-0.285-0.693-0.891-0.468-1.416
		c0.016-0.044,0.035-0.086,0.058-0.125c0.2-0.343,0.572-0.556,0.971-0.556c0.153,0,0.302,0.031,0.443,0.091
		c0.033,0.012,0.067,0.027,0.099,0.044c0.009,0.005,0.018,0.009,0.027,0.015c0.013,0.008,0.041,0.027,0.053,0.037
		c0.016,0.01,0.031,0.021,0.045,0.032c0.462,0.34,0.596,0.967,0.31,1.464c-0.008,0.014-0.019,0.03-0.03,0.045
		c-0.018,0.027-0.042,0.061-0.074,0.096C12.529,11.845,12.212,11.999,11.874,11.999z"/>
	<path d="M7,24c-1.241,0-2.25-1.009-2.25-2.25V9.286L3.689,8.525C3.616,8.473,3.553,8.408,3.502,8.332
		C3.337,8.085,3.25,7.797,3.25,7.5c0-0.827,0.673-1.5,1.5-1.5h9c0.414,0,0.75,0.336,0.75,0.75S14.164,7.5,13.75,7.5H4.833
		l0.978,0.702c0.096,0.069,0.176,0.161,0.23,0.266l0.126,0.245C6.221,8.819,6.25,8.937,6.25,9.056V9.75h1.5
		c0.414,0,0.75,0.336,0.75,0.75s-0.336,0.75-0.75,0.75h-1.5v2.25h1.5c0.414,0,0.75,0.336,0.75,0.75S8.164,15,7.75,15h-1.5v2.25h1.5
		c0.414,0,0.75,0.336,0.75,0.75s-0.336,0.75-0.75,0.75h-1.5v3c0,0.414,0.336,0.75,0.75,0.75h11.25c0.414,0,0.75-0.336,0.75-0.75V15
		h-2.415l-0.531,2.126c0.445,0.424,0.696,1.003,0.696,1.624c0,1.241-1.009,2.25-2.25,2.25s-2.25-1.009-2.25-2.25
		s1.009-2.25,2.25-2.25c0.054,0,0.108,0.002,0.163,0.006L15.04,15h-2.79c-0.414,0-0.75-0.336-0.75-0.75s0.336-0.75,0.75-0.75h3.165
		l2.858-11.432c0.083-0.334,0.382-0.568,0.726-0.568c0.062,0,0.123,0.008,0.183,0.023c0.194,0.049,0.358,0.17,0.461,0.342
		c0.103,0.172,0.133,0.374,0.084,0.568L16.96,13.5H19v-2.25c0-0.414,0.336-0.75,0.75-0.75s0.75,0.336,0.75,0.75v10.5
		c0,1.241-1.009,2.25-2.25,2.25H7z M14.5,18c-0.414,0-0.75,0.336-0.75,0.75s0.336,0.75,0.75,0.75s0.75-0.336,0.75-0.75
		S14.914,18,14.5,18z"/>
</g>
</svg>
