<?xml version="1.0" encoding="utf-8"?>
<!-- Generator: Adobe Illustrator 22.1.0, SVG Export Plug-In . SVG Version: 6.00 Build 0)  -->
<svg version="1.1" id="Layer_1" xmlns="http://www.w3.org/2000/svg" xmlns:xlink="http://www.w3.org/1999/xlink" x="0px" y="0px"
	 viewBox="0 0 24 24" style="enable-background:new 0 0 24 24;" xml:space="preserve">
<title>lab-tube-experiment</title>
<g>
	<path d="M11.25,24c-2.481,0-4.5-2.019-4.5-4.5v-18h-1.5C4.836,1.5,4.5,1.164,4.5,0.75S4.836,0,5.25,0h12C17.664,0,18,0.336,18,0.75
		S17.664,1.5,17.25,1.5h-1.5v18C15.75,21.981,13.731,24,11.25,24z M8.25,19.5c0,1.654,1.346,3,3,3c1.654,0,3-1.346,3-3V6h-6V19.5z
		 M14.25,4.5v-3h-6v3H14.25z"/>
	<path d="M12.375,9.75c-0.044,0-0.088-0.004-0.131-0.012c-0.513-0.06-0.922-0.47-0.982-0.982c-0.008-0.043-0.012-0.087-0.012-0.131
		s0.004-0.088,0.012-0.131c0.06-0.513,0.47-0.922,0.982-0.982C12.287,7.504,12.331,7.5,12.375,7.5s0.088,0.004,0.131,0.011
		c0.513,0.06,0.922,0.47,0.983,0.983c0.007,0.042,0.011,0.086,0.011,0.13s-0.004,0.088-0.011,0.13
		c-0.061,0.513-0.47,0.923-0.983,0.983C12.463,9.746,12.419,9.75,12.375,9.75z"/>
	<path d="M10.125,14.25c-0.044,0-0.088-0.004-0.13-0.011c-0.513-0.06-0.923-0.47-0.983-0.982C9.004,13.213,9,13.169,9,13.125
		s0.004-0.088,0.011-0.131c0.06-0.513,0.47-0.922,0.983-0.983C10.037,12.004,10.081,12,10.125,12s0.088,0.004,0.13,0.011
		c0.513,0.06,0.923,0.47,0.983,0.983c0.008,0.043,0.011,0.087,0.011,0.131s-0.004,0.088-0.011,0.131
		c-0.06,0.513-0.47,0.922-0.983,0.982C10.213,14.246,10.169,14.25,10.125,14.25z"/>
	<path d="M11.625,18.75c-0.044,0-0.088-0.004-0.13-0.011c-0.513-0.06-0.923-0.47-0.983-0.982c-0.008-0.043-0.011-0.087-0.011-0.131
		s0.004-0.088,0.011-0.131c0.06-0.513,0.47-0.922,0.983-0.983c0.042-0.007,0.086-0.011,0.13-0.011s0.088,0.004,0.13,0.011
		c0.513,0.061,0.923,0.47,0.983,0.983c0.008,0.042,0.011,0.086,0.011,0.131s-0.004,0.088-0.011,0.131
		c-0.06,0.513-0.47,0.923-0.983,0.983C11.713,18.746,11.669,18.75,11.625,18.75z"/>
	<path d="M3,15c-0.414,0-0.75-0.336-0.75-0.75V13.5H1.5c-0.414,0-0.75-0.336-0.75-0.75S1.086,12,1.5,12h0.75v-0.75
		c0-0.414,0.336-0.75,0.75-0.75s0.75,0.336,0.75,0.75V12H4.5c0.414,0,0.75,0.336,0.75,0.75S4.914,13.5,4.5,13.5H3.75v0.75
		C3.75,14.664,3.414,15,3,15z"/>
	<path d="M21,7.5c-1.241,0-2.25-1.009-2.25-2.25S19.759,3,21,3s2.25,1.009,2.25,2.25S22.241,7.5,21,7.5z M21,4.5
		c-0.414,0-0.75,0.336-0.75,0.75S20.586,6,21,6s0.75-0.336,0.75-0.75S21.414,4.5,21,4.5z"/>
</g>
</svg>
