<?xml version="1.0" encoding="utf-8"?>
<!-- Generator: Adobe Illustrator 22.1.0, SVG Export Plug-In . SVG Version: 6.00 Build 0)  -->
<svg version="1.1" id="Layer_1" xmlns="http://www.w3.org/2000/svg" xmlns:xlink="http://www.w3.org/1999/xlink" x="0px" y="0px"
	 viewBox="0 0 24 24" style="enable-background:new 0 0 24 24;" xml:space="preserve">
<title>lab-tube-bottle</title>
<g>
	<path d="M17.992,23.999c-0.34,0-0.674-0.058-0.994-0.17c-0.189-0.066-0.341-0.202-0.427-0.383c-0.087-0.18-0.098-0.384-0.031-0.573
		c0.105-0.3,0.39-0.501,0.708-0.501c0.084,0,0.167,0.014,0.248,0.042c0.161,0.057,0.329,0.085,0.498,0.085
		c0.829,0,1.503-0.673,1.503-1.5V4.5h-3v3c0,0.414-0.336,0.75-0.75,0.75c-0.414,0-0.75-0.336-0.75-0.75v-3h-0.75
		c-0.414,0-0.75-0.336-0.75-0.75S13.833,3,14.247,3h7.5c0.414,0,0.75,0.336,0.75,0.75S22.16,4.5,21.747,4.5h-0.75V21
		c-0.002,1.654-1.348,3-3.002,3H17.992z"/>
	<path d="M9.744,23.999c-3.888,0-7.283-2.764-8.074-6.573c-0.003-0.008-0.01-0.04-0.014-0.073c-0.429-2.13-0.001-4.323,1.209-6.153
		C3.96,9.541,5.597,8.347,7.497,7.81V1.5h-0.75c-0.414,0-0.75-0.336-0.75-0.75S6.333,0,6.747,0h6c0.414,0,0.75,0.336,0.75,0.75
		S13.16,1.5,12.747,1.5h-0.75v6.311c2.944,0.835,5.218,3.273,5.833,6.288c0.441,2.159,0.014,4.361-1.201,6.199
		s-3.073,3.094-5.233,3.534C10.852,23.943,10.296,23.999,9.744,23.999L9.744,23.999z M3.385,18c0.944,2.672,3.493,4.499,6.361,4.499
		c0.451,0,0.905-0.046,1.351-0.137c1.766-0.361,3.287-1.387,4.281-2.892c0.304-0.461,0.55-0.954,0.733-1.47H3.385z M16.457,16.5
		c0.078-0.699,0.046-1.405-0.096-2.102c-0.542-2.655-2.608-4.722-5.264-5.264c-0.348-0.071-0.6-0.38-0.6-0.735V1.5h-1.5v6.9
		c0,0.355-0.252,0.664-0.6,0.735C6.63,9.495,5.11,10.522,4.116,12.026C3.239,13.353,2.861,14.93,3.039,16.5H16.457z"/>
</g>
</svg>
