<?xml version="1.0" encoding="utf-8"?>
<!-- Generator: Adobe Illustrator 22.1.0, SVG Export Plug-In . SVG Version: 6.00 Build 0)  -->
<svg version="1.1" id="Layer_1" xmlns="http://www.w3.org/2000/svg" xmlns:xlink="http://www.w3.org/1999/xlink" x="0px" y="0px"
	 viewBox="0 0 24 24" style="enable-background:new 0 0 24 24;" xml:space="preserve">
<title>lab-tubes</title>
<g>
	<path d="M16.125,11.25c-0.044,0-0.088-0.004-0.131-0.011c-0.513-0.06-0.922-0.47-0.982-0.983C15.004,10.213,15,10.169,15,10.125
		s0.004-0.088,0.011-0.13c0.06-0.513,0.47-0.923,0.982-0.983C16.037,9.004,16.081,9,16.125,9s0.088,0.004,0.131,0.011
		c0.513,0.06,0.922,0.47,0.983,0.983c0.007,0.042,0.011,0.086,0.011,0.13s-0.004,0.088-0.011,0.13
		c-0.061,0.513-0.47,0.923-0.983,0.983C16.213,11.246,16.169,11.25,16.125,11.25z"/>
	<path d="M7.125,15c-0.044,0-0.088-0.004-0.13-0.011c-0.513-0.06-0.923-0.47-0.983-0.982C6.004,13.963,6,13.919,6,13.875
		s0.004-0.088,0.011-0.131c0.06-0.513,0.47-0.922,0.983-0.983c0.042-0.007,0.086-0.011,0.13-0.011s0.088,0.004,0.13,0.011
		c0.513,0.061,0.923,0.47,0.983,0.983c0.008,0.043,0.011,0.087,0.011,0.131s-0.004,0.088-0.011,0.131
		c-0.06,0.513-0.47,0.922-0.983,0.982C7.213,14.996,7.169,15,7.125,15z"/>
	<path d="M7.875,11.25c-0.044,0-0.088-0.004-0.131-0.012c-0.513-0.06-0.922-0.47-0.982-0.982c-0.008-0.043-0.012-0.087-0.012-0.131
		s0.004-0.088,0.012-0.131c0.06-0.513,0.47-0.922,0.982-0.982C7.787,9.004,7.831,9,7.875,9s0.088,0.004,0.131,0.012
		c0.513,0.06,0.922,0.47,0.982,0.982C8.996,10.037,9,10.081,9,10.125s-0.004,0.088-0.012,0.131c-0.06,0.513-0.47,0.922-0.982,0.982
		C7.963,11.246,7.919,11.25,7.875,11.25z"/>
	<path d="M16.875,15c-0.044,0-0.088-0.004-0.13-0.011c-0.513-0.06-0.923-0.47-0.983-0.983c-0.007-0.042-0.011-0.086-0.011-0.13
		s0.004-0.088,0.011-0.131c0.06-0.513,0.47-0.923,0.983-0.983c0.042-0.008,0.086-0.011,0.131-0.011s0.088,0.004,0.131,0.011
		c0.513,0.06,0.923,0.47,0.983,0.983C17.996,13.787,18,13.831,18,13.875s-0.004,0.088-0.011,0.131
		c-0.06,0.513-0.47,0.923-0.983,0.983C16.963,14.996,16.919,15,16.875,15z"/>
	<path d="M4.5,24c-2.068,0-3.75-1.682-3.75-3.75V10.5c0-0.414,0.336-0.75,0.75-0.75s0.75,0.336,0.75,0.75v3h1.5V0.75
		C3.75,0.336,4.086,0,4.5,0h6c0.414,0,0.75,0.336,0.75,0.75V13.5h1.5V0.75C12.75,0.336,13.086,0,13.5,0h6
		c0.414,0,0.75,0.336,0.75,0.75V13.5h1.5v-3c0-0.414,0.336-0.75,0.75-0.75s0.75,0.336,0.75,0.75v9.75c0,2.068-1.682,3.75-3.75,3.75
		H4.5z M2.25,20.25c0,1.241,1.009,2.25,2.25,2.25h15c1.241,0,2.25-1.009,2.25-2.25V15h-1.5v0.75c0,2.068-1.682,3.75-3.75,3.75
		s-3.75-1.682-3.75-3.75V15h-1.5v0.75c0,2.068-1.682,3.75-3.75,3.75s-3.75-1.682-3.75-3.75V15h-1.5V20.25z M14.25,15.75
		c0,1.241,1.009,2.25,2.25,2.25s2.25-1.009,2.25-2.25V7.5h-4.5V15.75z M5.25,15.75C5.25,16.991,6.259,18,7.5,18
		s2.25-1.009,2.25-2.25V7.5h-4.5V15.75z M18.75,6V1.5h-4.5V6H18.75z M9.75,6V1.5h-4.5V6H9.75z"/>
</g>
</svg>
