<?xml version="1.0" encoding="utf-8"?>
<!-- Generator: Adobe Illustrator 22.1.0, SVG Export Plug-In . SVG Version: 6.00 Build 0)  -->
<svg version="1.1" id="Layer_1" xmlns="http://www.w3.org/2000/svg" xmlns:xlink="http://www.w3.org/1999/xlink" x="0px" y="0px"
	 viewBox="0 0 24 24" style="enable-background:new 0 0 24 24;" xml:space="preserve">
<title>lab-bottle-experiment</title>
<g>
	<path d="M1.502,24c-0.414,0-0.75-0.336-0.75-0.75s0.336-0.75,0.75-0.75h3.75V0.75C5.252,0.336,5.588,0,6.002,0
		s0.75,0.336,0.75,0.75V4.5h7.5v-3h-0.75c-0.414,0-0.75-0.336-0.75-0.75S13.088,0,13.502,0h6c0.414,0,0.75,0.336,0.75,0.75
		s-0.336,0.75-0.75,0.75h-0.75v6.385c2.098,0.744,3.727,2.513,4.285,4.676c0.451,1.746,0.195,3.562-0.721,5.115
		c-0.916,1.553-2.382,2.657-4.127,3.107c-0.557,0.144-1.129,0.217-1.698,0.217c-1.195,0-2.376-0.324-3.417-0.938
		c-1.553-0.916-2.657-2.382-3.107-4.127c-0.881-3.412,0.993-6.893,4.286-8.052V6h-7.5v16.5h3.75c0.414,0,0.75,0.336,0.75,0.75
		S10.916,24,10.502,24H1.502z M15.752,8.439c0,0.342-0.231,0.641-0.562,0.726c-2.803,0.724-4.495,3.593-3.771,6.396
		c0.351,1.358,1.209,2.498,2.417,3.21c0.81,0.478,1.729,0.73,2.657,0.73c0.443,0,0.888-0.057,1.322-0.169
		c1.358-0.351,2.498-1.209,3.21-2.417c0.712-1.208,0.911-2.621,0.561-3.979c-0.478-1.849-1.922-3.293-3.771-3.771
		c-0.331-0.085-0.562-0.384-0.562-0.726V1.5h-1.5V8.439z"/>
</g>
</svg>
