<?xml version="1.0" encoding="utf-8"?>
<!-- Generator: Adobe Illustrator 22.1.0, SVG Export Plug-In . SVG Version: 6.00 Build 0)  -->
<svg version="1.1" id="Layer_1" xmlns="http://www.w3.org/2000/svg" xmlns:xlink="http://www.w3.org/1999/xlink" x="0px" y="0px"
	 viewBox="0 0 24 24" style="enable-background:new 0 0 24 24;" xml:space="preserve">
<title>lab-tube</title>
<g>
	<path d="M7.9,15.059c-0.314,0-0.597-0.198-0.705-0.494L3.604,4.698c-0.141-0.389,0.06-0.82,0.448-0.961
		c0.082-0.03,0.169-0.045,0.256-0.045c0.314,0,0.597,0.198,0.705,0.494l0.513,1.41l12.686-4.617c0.41-0.146,0.831-0.218,1.257-0.218
		c1.586,0,3.007,1.003,3.537,2.496c0.681,1.918-0.316,4.057-2.223,4.768l-12.691,4.62l0.513,1.409
		c0.068,0.188,0.06,0.392-0.025,0.573c-0.085,0.182-0.235,0.319-0.423,0.388C8.073,15.044,7.987,15.059,7.9,15.059z M7.579,11.234
		l12.685-4.618c1.14-0.425,1.737-1.708,1.328-2.859C21.275,2.862,20.421,2.26,19.47,2.26c-0.255,0-0.507,0.044-0.749,0.129
		L6.04,7.005L7.579,11.234z"/>
	<path d="M3.746,23.251c-1.654,0-3-1.346-3-3c0-1.456,2.034-3.797,2.442-4.251c0.138-0.155,0.342-0.244,0.558-0.244
		S4.165,15.845,4.304,16c0.407,0.454,2.442,2.795,2.442,4.251C6.746,21.905,5.4,23.251,3.746,23.251z M3.746,17.663
		c-0.885,1.107-1.5,2.159-1.5,2.587c0,0.827,0.673,1.5,1.5,1.5s1.5-0.673,1.5-1.5C5.246,19.822,4.63,18.77,3.746,17.663z"/>
</g>
</svg>
