<?xml version="1.0" encoding="utf-8"?>
<!-- Generator: Adobe Illustrator 22.1.0, SVG Export Plug-In . SVG Version: 6.00 Build 0)  -->
<svg version="1.1" id="Regular" xmlns="http://www.w3.org/2000/svg" xmlns:xlink="http://www.w3.org/1999/xlink" x="0px" y="0px"
	 viewBox="0 0 24 24" style="enable-background:new 0 0 24 24;" xml:space="preserve">
<title>laboratory-chromosome</title>
<g>
	<path d="M3.711,23.999c-0.119,0-0.237-0.012-0.352-0.037c-0.795-0.167-1.389-0.851-1.672-1.926C1.45,21.14,1.45,20.03,1.684,18.911
		c0.152-0.964,0.567-1.921,1.179-2.724c-0.83-0.588-1.5-1.372-1.95-2.286c-1.258-2.265-1.209-4.544,0.122-5.286
		C1.3,8.467,1.597,8.392,1.919,8.392c0.204,0,0.417,0.031,0.631,0.092c0.745,0.212,1.53,0.791,2.217,1.62
		c0.407-0.994,0.983-1.778,1.629-2.202c0.369-0.242,0.752-0.365,1.138-0.365c0.12,0,0.239,0.012,0.355,0.036
		C8.382,7.678,8.81,7.988,9.127,8.473C9.741,9.41,9.91,11.002,9.57,12.626c-0.152,0.964-0.566,1.921-1.178,2.723
		c0.832,0.588,1.503,1.372,1.953,2.288c0.54,0.971,0.865,2.025,0.905,2.952c0.048,1.111-0.317,1.941-1.028,2.335
		C9.96,23.07,9.667,23.143,9.35,23.143c0,0,0,0,0,0c-0.917,0-1.975-0.642-2.863-1.712C5.839,23.012,4.792,23.999,3.711,23.999
		C3.711,23.999,3.711,23.999,3.711,23.999z M4.388,16.715c-0.649,0.677-1.084,1.549-1.229,2.468
		c-0.193,0.925-0.199,1.797-0.022,2.472c0.15,0.569,0.379,0.808,0.53,0.84c0.012,0.002,0.026,0.004,0.042,0.004
		c0.415,0,1.353-0.935,1.743-2.798l0.006-0.028l-0.462-3.05L4.388,16.715z M6.964,19.476c0.83,1.495,1.89,2.169,2.377,2.169
		c0.063,0,0.115-0.011,0.154-0.032c0.134-0.074,0.282-0.37,0.257-0.958c-0.03-0.698-0.291-1.523-0.735-2.322
		c-0.425-0.862-1.103-1.573-1.924-2.027l-0.613,0.093l0.459,3.03L6.964,19.476z M1.918,9.892c-0.062,0-0.113,0.011-0.153,0.034
		c-0.362,0.202-0.456,1.601,0.477,3.281c0.424,0.861,1.1,1.571,1.92,2.026l0.61-0.092l-0.46-3.037
		c-0.012-0.022-0.023-0.043-0.034-0.066c-0.589-1.06-1.452-1.913-2.139-2.109C2.056,9.904,1.982,9.892,1.918,9.892z M6.254,14.915
		l0.613-0.093c0.648-0.677,1.083-1.548,1.228-2.467c0.259-1.24,0.168-2.463-0.223-3.061C7.806,9.193,7.702,9.068,7.583,9.043
		C7.567,9.04,7.55,9.039,7.532,9.039c-0.087,0-0.196,0.041-0.315,0.119c-0.595,0.391-1.164,1.467-1.415,2.678l-0.008,0.041
		L6.254,14.915z"/>
	<path d="M17.457,13.104c-0.13,0-0.26-0.016-0.386-0.049c-0.438-0.113-0.808-0.407-1.069-0.851
		c-0.492-0.835-0.576-2.209-0.219-3.585c0.156-0.659,0.438-1.307,0.819-1.885c-0.523-0.687-0.877-1.493-1.028-2.347
		c-0.203-0.929-0.208-1.872-0.013-2.64c0.241-0.949,0.767-1.557,1.48-1.711c0.112-0.024,0.226-0.037,0.34-0.037
		c0.979,0,1.918,0.891,2.482,2.313c0.427-0.348,0.873-0.619,1.31-0.796c0.385-0.156,0.753-0.235,1.094-0.235
		c0.452,0,0.854,0.143,1.16,0.413c0.339,0.298,0.536,0.727,0.57,1.241c0.062,0.965-0.483,2.229-1.423,3.296
		c-0.533,0.657-1.23,1.184-2.021,1.529c0.051,0.692-0.019,1.399-0.207,2.062C19.846,11.751,18.657,13.104,17.457,13.104z
		 M17.935,7.444c-0.328,0.464-0.568,0.993-0.697,1.538c-0.256,0.987-0.233,1.973,0.055,2.462c0.062,0.105,0.118,0.151,0.15,0.16
		c0,0,0.001,0,0.001,0c0.324,0,1.083-0.747,1.453-2.174c0.156-0.552,0.205-1.135,0.144-1.7c-0.132-0.107-0.243-0.237-0.331-0.388
		c-0.038-0.065-0.072-0.135-0.103-0.211c-0.066,0.054-0.134,0.1-0.202,0.14C18.258,7.357,18.1,7.415,17.935,7.444z M20.173,4.084
		c-0.225,0.908-0.314,1.846-0.23,2.302c0.578-0.25,1.087-0.635,1.485-1.124c0.681-0.774,1.108-1.667,1.071-2.231
		c-0.008-0.122-0.038-0.189-0.063-0.211c-0.022-0.02-0.078-0.039-0.173-0.039c-0.1,0-0.273,0.022-0.529,0.125
		C21.216,3.116,20.663,3.534,20.173,4.084z M17.358,1.501C17.282,1.518,17.12,1.7,17.015,2.116c-0.139,0.548-0.128,1.251,0.03,1.981
		c0.114,0.641,0.373,1.232,0.758,1.734c0.296-0.359,0.674-1.223,0.921-2.132C18.401,2.257,17.677,1.5,17.377,1.5
		C17.371,1.5,17.364,1.5,17.358,1.501z"/>
	<path d="M21.75,23.999c-0.2,0-0.389-0.078-0.53-0.22c-0.292-0.292-0.292-0.768,0-1.061l1.5-1.5c0.142-0.142,0.33-0.22,0.53-0.22
		s0.389,0.078,0.53,0.22c0.292,0.292,0.292,0.768,0,1.061l-1.5,1.5C22.139,23.921,21.95,23.999,21.75,23.999z"/>
	<path d="M15,17.999c-0.286,0-0.543-0.159-0.671-0.415l-0.75-1.5c-0.185-0.37-0.034-0.821,0.335-1.006
		C14.019,15.027,14.135,15,14.25,15c0.286,0,0.543,0.159,0.671,0.414l0.75,1.5c0.185,0.37,0.034,0.821-0.335,1.006
		C15.231,17.972,15.115,17.999,15,17.999z"/>
	<path d="M0.75,2.999c-0.2,0-0.389-0.078-0.53-0.22C0.078,2.638,0,2.45,0,2.249s0.078-0.389,0.22-0.53l1.5-1.5
		c0.142-0.142,0.33-0.22,0.53-0.22s0.389,0.078,0.53,0.22C2.922,0.36,3,0.549,3,0.749S2.922,1.138,2.78,1.28l-1.5,1.5
		C1.139,2.921,0.95,2.999,0.75,2.999z"/>
	<path d="M9.75,4.874c-0.044,0-0.088-0.004-0.131-0.012c-0.513-0.06-0.922-0.47-0.982-0.982C8.629,3.837,8.625,3.793,8.625,3.749
		s0.004-0.088,0.012-0.131c0.06-0.513,0.47-0.922,0.982-0.982C9.662,2.628,9.706,2.624,9.75,2.624s0.088,0.004,0.131,0.012
		c0.513,0.06,0.922,0.47,0.982,0.982c0.008,0.043,0.012,0.087,0.012,0.131s-0.004,0.088-0.012,0.131
		c-0.06,0.513-0.47,0.922-0.982,0.982C9.838,4.87,9.794,4.874,9.75,4.874z"/>
	<path d="M21,18.374c-0.044,0-0.088-0.004-0.13-0.011c-0.513-0.06-0.923-0.47-0.983-0.983c-0.007-0.042-0.011-0.086-0.011-0.13
		s0.004-0.088,0.011-0.131c0.06-0.513,0.47-0.923,0.983-0.983c0.042-0.008,0.086-0.011,0.131-0.011s0.088,0.004,0.131,0.011
		c0.513,0.06,0.923,0.47,0.983,0.983c0.008,0.042,0.011,0.086,0.011,0.131s-0.004,0.088-0.011,0.131
		c-0.06,0.513-0.47,0.923-0.983,0.983C21.088,18.37,21.044,18.374,21,18.374z"/>
</g>
</svg>
