<?xml version="1.0" encoding="utf-8"?>
<!-- Generator: Adobe Illustrator 22.1.0, SVG Export Plug-In . SVG Version: 6.00 Build 0)  -->
<svg version="1.1" id="Layer_1" xmlns="http://www.w3.org/2000/svg" xmlns:xlink="http://www.w3.org/1999/xlink" x="0px" y="0px"
	 viewBox="0 0 24 24" style="enable-background:new 0 0 24 24;" xml:space="preserve">
<title>landmark-berlin-cathedral</title>
<g>
	<circle cx="12" cy="14.25" r="1.125"/>
	<path d="M2.5,24c-0.965,0-1.75-0.785-1.75-1.75V9.75C0.75,9.336,1.086,9,1.5,9h0.286L3.75,5.073V4.5H3
		c-0.414,0-0.75-0.336-0.75-0.75S2.586,3,3,3h0.75V0.75C3.75,0.336,4.086,0,4.5,0s0.75,0.336,0.75,0.75V3H6
		c0.414,0,0.75,0.336,0.75,0.75S6.414,4.5,6,4.5H5.25v0.573L7.214,9H7.5c0.414,0,0.75,0.336,0.75,0.75v1.273l2.502-3.753
		c0.279-0.418,0.746-0.668,1.25-0.668c0.296,0,0.583,0.087,0.83,0.252c0.165,0.11,0.305,0.25,0.416,0.416l2.502,3.753V9.75
		C15.75,9.336,16.086,9,16.5,9h0.286l1.964-3.927V4.5H18c-0.414,0-0.75-0.336-0.75-0.75S17.586,3,18,3h0.75V0.75
		C18.75,0.336,19.086,0,19.5,0s0.75,0.336,0.75,0.75V3H21c0.414,0,0.75,0.336,0.75,0.75S21.414,4.5,21,4.5h-0.75v0.573L22.214,9
		H22.5c0.414,0,0.75,0.336,0.75,0.75v12.5c0,0.965-0.785,1.75-1.75,1.75H2.5z M21.5,22.5c0.138,0,0.25-0.112,0.25-0.25V16.5h-4.5v6
		H21.5z M15.75,22.5v-8.773L12,8.102l-3.75,5.625V22.5h1.5v-2.25C9.75,19.009,10.759,18,12,18c1.241,0,2.25,1.009,2.25,2.25v2.25
		H15.75z M12.75,22.5v-2.25c0-0.414-0.336-0.75-0.75-0.75s-0.75,0.336-0.75,0.75v2.25H12.75z M2.25,22.25
		c0,0.138,0.112,0.25,0.25,0.25h4.25v-6h-4.5V22.25z M21.75,15l-0.001-4.5H17.25V15h1.5v-0.75c0-0.414,0.336-0.75,0.75-0.75
		s0.75,0.336,0.75,0.75L21.75,15z M6.75,15v-4.5l-4.5,0V15h1.5v-0.75c0-0.414,0.336-0.75,0.75-0.75s0.75,0.336,0.75,0.75V15H6.75z
		 M20.537,9L19.5,6.927L18.463,9H20.537z M5.536,9L4.5,6.927L3.464,9H5.536z"/>
	<path d="M4.5,21c-0.414,0-0.75-0.336-0.75-0.75v-1.5C3.75,18.336,4.086,18,4.5,18s0.75,0.336,0.75,0.75v1.5
		C5.25,20.664,4.914,21,4.5,21z"/>
	<path d="M19.5,21c-0.414,0-0.75-0.336-0.75-0.75v-1.5c0-0.414,0.336-0.75,0.75-0.75s0.75,0.336,0.75,0.75v1.5
		C20.25,20.664,19.914,21,19.5,21z"/>
</g>
</svg>
