<?xml version="1.0" encoding="utf-8"?>
<!-- Generator: Adobe Illustrator 22.1.0, SVG Export Plug-In . SVG Version: 6.00 Build 0)  -->
<svg version="1.1" id="Layer_1" xmlns="http://www.w3.org/2000/svg" xmlns:xlink="http://www.w3.org/1999/xlink" x="0px" y="0px"
	 viewBox="0 0 24 24" style="enable-background:new 0 0 24 24;" xml:space="preserve">
<title>landmark-saint-basil&amp;apos;s-cathderal</title>
<g>
	<path d="M6.626,9.75c-0.241,0-0.469-0.117-0.609-0.313C5.899,9.275,5.853,9.076,5.885,8.879c0.032-0.198,0.14-0.371,0.303-0.488
		c0.361-0.26,0.572-0.68,0.563-1.125c0-0.348-0.327-0.701-0.741-1.149C5.786,5.874,5.542,5.609,5.313,5.307
		C5.084,5.61,4.84,5.874,4.616,6.116c-0.414,0.448-0.74,0.802-0.74,1.134C3.866,7.708,4.076,8.131,4.438,8.391
		C4.774,8.632,4.851,9.101,4.61,9.437C4.469,9.633,4.241,9.75,4,9.75c-0.158,0-0.309-0.049-0.437-0.141
		C2.8,9.061,2.356,8.173,2.376,7.234c0-0.903,0.578-1.529,1.138-2.135c0.45-0.487,0.874-0.947,1.087-1.586
		C4.703,3.206,4.989,3,5.312,3c0.323,0,0.609,0.206,0.712,0.513c0.213,0.638,0.638,1.098,1.088,1.585
		C7.671,5.704,8.25,6.331,8.25,7.25C8.27,8.177,7.826,9.061,7.063,9.609C6.935,9.701,6.784,9.75,6.626,9.75z"/>
	<path d="M11.375,17.25c-0.158,0-0.309-0.049-0.437-0.141c-0.764-0.548-1.208-1.436-1.188-2.375c0-0.903,0.578-1.53,1.138-2.135
		c0.45-0.487,0.875-0.947,1.087-1.586c0.102-0.307,0.388-0.513,0.712-0.513c0.323,0,0.609,0.206,0.711,0.513
		c0.213,0.639,0.638,1.099,1.088,1.585c0.56,0.606,1.139,1.233,1.139,2.152c0.019,0.927-0.425,1.811-1.188,2.359
		c-0.129,0.092-0.28,0.141-0.437,0.141c-0.241,0-0.469-0.117-0.61-0.312c-0.241-0.336-0.164-0.806,0.172-1.047
		c0.362-0.26,0.572-0.68,0.562-1.125c0-0.348-0.327-0.701-0.741-1.149c-0.224-0.242-0.468-0.507-0.697-0.809
		c-0.229,0.303-0.473,0.567-0.697,0.81c-0.414,0.448-0.74,0.802-0.74,1.134c-0.009,0.458,0.201,0.881,0.562,1.141
		c0.336,0.241,0.413,0.71,0.172,1.047C11.844,17.133,11.616,17.25,11.375,17.25z"/>
	<path d="M21.75,15C21.337,15,21,14.664,21,14.25v-1.5c0-0.241,0.117-0.469,0.312-0.609c0.764-0.548,1.208-1.436,1.188-2.375
		c0-0.795-0.654-1.503-1.412-2.324c-0.525-0.568-1.105-1.196-1.588-1.964c-0.482,0.767-1.062,1.395-1.586,1.962
		C17.155,8.262,16.5,8.971,16.5,9.75c-0.02,0.952,0.424,1.843,1.188,2.391c0.335,0.241,0.413,0.71,0.172,1.046
		c-0.141,0.196-0.369,0.313-0.61,0.313l0,0c-0.157,0-0.309-0.049-0.437-0.14c-1.165-0.836-1.843-2.192-1.813-3.625
		c0-1.35,0.92-2.346,1.81-3.31c0.776-0.84,1.578-1.708,1.979-2.911C18.891,3.206,19.177,3,19.5,3c0.323,0,0.609,0.206,0.711,0.513
		c0.401,1.203,1.203,2.071,1.978,2.911C23.081,7.388,24,8.385,24,9.75c0.027,1.275-0.531,2.521-1.5,3.362v1.138
		C22.5,14.664,22.164,15,21.75,15z"/>
	<path d="M1.5,24C0.673,24,0,23.327,0,22.5v-1.565c0-2.032,1.653-3.685,3.685-3.685h0.19v-0.401
		c-0.575-0.551-0.892-1.312-0.875-2.115c0-0.903,0.578-1.53,1.138-2.135c0.45-0.487,0.875-0.947,1.087-1.586
		C5.328,10.706,5.614,10.5,5.937,10.5c0.323,0,0.609,0.206,0.712,0.513c0.213,0.639,0.638,1.099,1.088,1.585
		c0.56,0.606,1.139,1.233,1.139,2.152c0.019,0.927-0.424,1.811-1.187,2.359c-0.129,0.092-0.28,0.141-0.437,0.141
		c-0.241,0-0.469-0.117-0.609-0.312c-0.241-0.336-0.164-0.805,0.172-1.047c0.362-0.26,0.572-0.68,0.563-1.125
		c0-0.348-0.327-0.701-0.741-1.149c-0.224-0.243-0.468-0.507-0.697-0.809c-0.229,0.303-0.473,0.567-0.697,0.81
		C4.827,14.064,4.5,14.418,4.5,14.75c-0.009,0.458,0.201,0.881,0.562,1.141c0.196,0.141,0.313,0.369,0.313,0.609v3.75
		c0,0.414-0.336,0.75-0.75,0.75s-0.75-0.336-0.75-0.75v-1.5h-0.19c-1.205,0-2.185,0.98-2.185,2.185V22.5h8.25v-1.125
		c0-1.448,1.178-2.625,2.625-2.625c1.448,0,2.625,1.177,2.625,2.625V22.5h2.605v-1.558c0-0.567,0.174-1.111,0.504-1.573l2.081-2.914
		c0.141-0.197,0.369-0.314,0.61-0.314c0.242,0,0.47,0.117,0.61,0.314l2.086,2.914C23.826,19.83,24,20.374,24,20.942V22.5
		c0,0.827-0.673,1.5-1.5,1.5H1.5z M22.5,22.5v-1.558c0-0.253-0.078-0.496-0.225-0.701l-1.475-2.06l-1.471,2.06
		c-0.147,0.206-0.225,0.448-0.224,0.7V22.5H22.5z M13.5,22.5v-1.125c0-0.62-0.505-1.125-1.125-1.125s-1.125,0.505-1.125,1.125V22.5
		H13.5z"/>
	<path d="M9.751,11.25c-0.072,0-0.144-0.01-0.214-0.031c-0.192-0.057-0.351-0.186-0.446-0.362c-0.095-0.176-0.116-0.379-0.059-0.571
		l1.972-6.619C10.678,3.267,10.5,2.772,10.5,2.25C10.5,1.009,11.51,0,12.75,0C13.991,0,15,1.009,15,2.25
		c0,0.515-0.173,1.005-0.492,1.402l0.953,2.859c0.131,0.393-0.082,0.818-0.474,0.949c-0.076,0.026-0.156,0.039-0.237,0.039
		c-0.323,0-0.609-0.206-0.712-0.513l-0.844-2.531C13.049,4.485,12.9,4.5,12.75,4.5c-0.141,0-0.28-0.013-0.418-0.04l-1.863,6.254
		C10.375,11.03,10.08,11.25,9.751,11.25z M12.75,1.5C12.337,1.5,12,1.836,12,2.25S12.337,3,12.75,3s0.75-0.336,0.75-0.75
		S13.164,1.5,12.75,1.5z"/>
</g>
</svg>
