<?xml version="1.0" encoding="utf-8"?>
<!-- Generator: Adobe Illustrator 22.1.0, SVG Export Plug-In . SVG Version: 6.00 Build 0)  -->
<svg version="1.1" id="Layer_1" xmlns="http://www.w3.org/2000/svg" xmlns:xlink="http://www.w3.org/1999/xlink" x="0px" y="0px"
	 viewBox="0 0 24 24" style="enable-background:new 0 0 24 24;" xml:space="preserve">
<title>landmark-cologne-cathedral</title>
<g>
	<path d="M4.5,15.75c-0.414,0-0.75-0.336-0.75-0.75v-1.5c0-0.414,0.336-0.75,0.75-0.75s0.75,0.336,0.75,0.75V15
		C5.25,15.414,4.914,15.75,4.5,15.75z"/>
	<path d="M4.5,20.25c-0.414,0-0.75-0.336-0.75-0.75V18c0-0.414,0.336-0.75,0.75-0.75S5.25,17.586,5.25,18v1.5
		C5.25,19.914,4.914,20.25,4.5,20.25z"/>
	<path d="M1.75,24C0.785,24,0,23.215,0,22.25V9.75c0-0.014,0.001-0.033,0.003-0.049C0.004,9.68,0.007,9.659,0.01,9.638
		c0.004-0.027,0.009-0.051,0.015-0.074c0.005-0.02,0.012-0.044,0.021-0.068c0.009-0.025,0.018-0.047,0.029-0.07
		c0.01-0.02,0.02-0.04,0.032-0.059C0.12,9.345,0.132,9.326,0.145,9.309c0.009-0.014,0.021-0.03,0.03-0.04l3.575-4.29V3.75H3
		C2.586,3.75,2.25,3.414,2.25,3S2.586,2.25,3,2.25h0.75v-1.5C3.75,0.336,4.086,0,4.5,0s0.75,0.336,0.75,0.75v1.5H6
		c0.414,0,0.75,0.336,0.75,0.75S6.414,3.75,6,3.75H5.25v1.228L8.826,9.27c0.009,0.011,0.021,0.027,0.03,0.04
		C8.869,9.329,8.88,9.346,8.891,9.363c0.014,0.024,0.025,0.043,0.034,0.064c0.011,0.022,0.02,0.045,0.029,0.069
		C8.963,9.52,8.971,9.544,8.977,9.569c0.005,0.019,0.01,0.042,0.013,0.066C8.993,9.659,8.996,9.68,8.997,9.701
		C8.999,9.718,9,9.737,9,9.75v3.223l2.612-3.047c0.285-0.333,0.7-0.523,1.139-0.523c0.357,0,0.703,0.128,0.974,0.36
		c0.06,0.051,0.114,0.106,0.163,0.163l3.931,4.587C17.936,14.648,18,14.821,18,15v0.286l4.756,2.378
		C23.524,18.048,24,18.819,24,19.677v2.073c0,1.241-1.009,2.25-2.25,2.25H1.75z M21.75,22.5c0.414,0,0.75-0.336,0.75-0.75v-2.073
		c0-0.286-0.159-0.543-0.415-0.671L18,16.963V22.5H21.75z M16.5,22.5v-7.223l-3.75-4.375L9,15.277V22.5h1.5v-2.25
		c0-1.241,1.009-2.25,2.25-2.25c1.241,0,2.25,1.009,2.25,2.25v2.25H16.5z M13.5,22.5v-2.25c0-0.414-0.336-0.75-0.75-0.75
		S12,19.836,12,20.25v2.25H13.5z M1.5,22.25c0,0.138,0.112,0.25,0.25,0.25H7.5v-12h-6V22.25z M6.649,9L4.5,6.422L2.351,9H6.649z"/>
</g>
</svg>
