<?xml version="1.0" encoding="utf-8"?>
<!-- Generator: Adobe Illustrator 22.1.0, SVG Export Plug-In . SVG Version: 6.00 Build 0)  -->
<svg version="1.1" id="Layer_1" xmlns="http://www.w3.org/2000/svg" xmlns:xlink="http://www.w3.org/1999/xlink" x="0px" y="0px"
	 viewBox="0 0 24 24" style="enable-background:new 0 0 24 24;" xml:space="preserve">
<title>landmark-bagan</title>
<g>
	<path d="M4.5,6.766c-0.338,0-0.671-0.117-0.937-0.33L2.625,5.684C1.911,5.112,1.501,4.259,1.5,3.345V2.999
		c0-1.047,0.558-2.033,1.456-2.572C3.423,0.146,3.957-0.002,4.5-0.002s1.077,0.148,1.544,0.429C6.942,0.966,7.5,1.951,7.5,2.999
		v0.345C7.499,4.26,7.088,5.113,6.374,5.684c0,0-0.939,0.754-0.941,0.755C5.167,6.65,4.836,6.766,4.5,6.766z M4.5,1.498
		c-0.271,0-0.538,0.074-0.772,0.215C3.279,1.982,3,2.475,3,2.999v0.345c0.001,0.457,0.206,0.884,0.563,1.17L4.5,5.265l0.936-0.751
		C5.794,4.227,5.999,3.801,6,3.343V2.999c0-0.524-0.279-1.016-0.728-1.286C5.038,1.572,4.771,1.498,4.5,1.498z"/>
	<circle cx="4.5" cy="8.624" r="1.125"/>
	<path d="M10.5,17.999c-0.414,0-0.75-0.336-0.75-0.75s0.336-0.75,0.75-0.75h0.878c0.226-0.642,0.73-1.146,1.372-1.372v-2.478
		c0-1.044,0.517-1.982,1.388-2.537l2.406-6.617c0.108-0.295,0.391-0.494,0.705-0.494s0.597,0.198,0.705,0.494l2.406,6.616
		c0.871,0.553,1.388,1.49,1.39,2.532v2.48c0.885,0.314,1.5,1.162,1.5,2.122c0,0.414-0.336,0.75-0.75,0.75s-0.75-0.336-0.75-0.75
		s-0.336-0.75-0.75-0.75s-0.75-0.336-0.75-0.75v-3.1c-0.001-0.574-0.322-1.091-0.836-1.348c-0.172-0.086-0.303-0.233-0.369-0.414
		l-1.795-4.937l-1.795,4.937c-0.066,0.181-0.197,0.328-0.369,0.414c-0.515,0.258-0.835,0.776-0.835,1.352v3.1
		c0,0.414-0.336,0.75-0.75,0.75s-0.75,0.336-0.75,0.75s-0.336,0.75-0.75,0.75H10.5z"/>
	<path d="M8.25,23.999c-0.827,0-1.5-0.673-1.5-1.5v-2.25c0-0.576-0.32-1.094-0.835-1.352c-0.154-0.077-0.277-0.206-0.348-0.362
		L4.5,16.173l-1.068,2.363c-0.07,0.156-0.194,0.284-0.347,0.362C2.57,19.155,2.25,19.673,2.25,20.249v3
		c0,0.414-0.336,0.75-0.75,0.75s-0.75-0.336-0.75-0.75v-3c0-1.041,0.54-2.008,1.417-2.555l1.65-3.651
		c0.121-0.268,0.389-0.441,0.683-0.441s0.562,0.173,0.683,0.442l1.65,3.651c0.877,0.547,1.416,1.514,1.417,2.555v2.25h2.25
		c0.414,0,0.75,0.336,0.75,0.75s-0.336,0.75-0.75,0.75H8.25z"/>
</g>
</svg>
