<?xml version="1.0" encoding="utf-8"?>
<!-- Generator: Adobe Illustrator 22.1.0, SVG Export Plug-In . SVG Version: 6.00 Build 0)  -->
<svg version="1.1" id="Layer_1" xmlns="http://www.w3.org/2000/svg" xmlns:xlink="http://www.w3.org/1999/xlink" x="0px" y="0px"
	 viewBox="0 0 24 24" style="enable-background:new 0 0 24 24;" xml:space="preserve">
<title>landmark-pisa-tower</title>
<g>
	<path d="M1.5,24c-0.414,0-0.75-0.336-0.75-0.75S1.086,22.5,1.5,22.5h1.476l1.203-4.948l-0.729-0.177
		c-0.402-0.098-0.649-0.505-0.552-0.906c0.082-0.337,0.382-0.573,0.73-0.573c0.058,0,0.116,0.007,0.173,0.02l0.731,0.178
		l1.063-4.372l-0.729-0.177c-0.402-0.098-0.649-0.504-0.552-0.906c0.082-0.337,0.382-0.573,0.729-0.573
		c0.059,0,0.119,0.007,0.177,0.021l0.729,0.177l1.063-4.374L6.286,5.714C5.884,5.616,5.637,5.209,5.734,4.808
		C5.817,4.47,6.116,4.235,6.463,4.235c0.059,0,0.119,0.007,0.177,0.021l2.187,0.532l0.354-1.457L8.452,3.154
		C8.05,3.056,7.803,2.649,7.9,2.248C7.982,1.91,8.282,1.675,8.629,1.675c0.059,0,0.119,0.007,0.177,0.021l4.374,1.063l0.531-2.186
		C13.792,0.235,14.092,0,14.439,0c0.06,0,0.119,0.007,0.177,0.021c0.402,0.098,0.649,0.504,0.552,0.906l-0.531,2.187l4.373,1.063
		c0.402,0.098,0.649,0.504,0.552,0.906c-0.082,0.338-0.382,0.573-0.729,0.573c-0.059,0-0.119-0.007-0.177-0.021l-0.729-0.177
		l-0.354,1.458l2.187,0.532c0.402,0.098,0.649,0.504,0.552,0.906c-0.082,0.338-0.382,0.573-0.729,0.573
		c-0.059,0-0.119-0.007-0.177-0.021l-0.729-0.177l-1.063,4.372l0.729,0.177c0.402,0.098,0.649,0.504,0.552,0.906
		c-0.082,0.337-0.382,0.573-0.729,0.573c-0.059,0-0.118-0.007-0.176-0.021l-0.73-0.177l-1.063,4.372l0.729,0.177
		c0.402,0.098,0.649,0.504,0.552,0.906c-0.082,0.338-0.382,0.573-0.729,0.573c-0.059,0-0.118-0.007-0.176-0.021l-0.731-0.177
		L15.326,22.5H22.5c0.414,0,0.75,0.336,0.75,0.75S22.914,24,22.5,24H1.5z M13.782,22.5l0.6-2.468l-8.746-2.126L4.52,22.5h2.315
		l0.279-1.147c0.165-0.675,0.764-1.146,1.458-1.146c0.119,0,0.238,0.014,0.354,0.043l1.458,0.355
		c0.802,0.196,1.297,1.008,1.104,1.811L11.467,22.5H13.782z M9.924,22.5l0.107-0.438l-1.457-0.355L8.38,22.5H9.924z M14.737,18.575
		l1.063-4.372l-8.746-2.126l-1.063,4.372L14.737,18.575z M16.154,12.744l1.063-4.373L8.472,6.246l-1.063,4.373L16.154,12.744z
		 M16.114,6.56l0.354-1.457l-5.83-1.417l-0.354,1.457L16.114,6.56z"/>
</g>
</svg>
