<?xml version="1.0" encoding="utf-8"?>
<!-- Generator: Adobe Illustrator 22.1.0, SVG Export Plug-In . SVG Version: 6.00 Build 0)  -->
<svg version="1.1" id="Layer_1" xmlns="http://www.w3.org/2000/svg" xmlns:xlink="http://www.w3.org/1999/xlink" x="0px" y="0px"
	 viewBox="0 0 24 24" style="enable-background:new 0 0 24 24;" xml:space="preserve">
<title>landmark-gate</title>
<g>
	<path d="M17,24c-0.827,0-1.5-0.673-1.5-1.5V21c0-2.068-1.682-3.75-3.75-3.75C9.682,17.25,8,18.932,8,21v1.5
		C8,23.327,7.327,24,6.5,24h-3C2.673,24,2,23.327,2,22.5V11.25H1.25c-0.414,0-0.75-0.336-0.75-0.75V9c0-0.414,0.336-0.75,0.75-0.75
		S2,8.586,2,9v0.75h19.5V9c0-0.414,0.336-0.75,0.75-0.75S23,8.586,23,9v1.5c0,0.414-0.336,0.75-0.75,0.75H21.5V22.5
		c0,0.827-0.673,1.5-1.5,1.5H17z M11.75,15.75c2.895,0,5.25,2.355,5.25,5.25v1.5h3V11.25H3.5V22.5h3V21
		C6.5,18.105,8.855,15.75,11.75,15.75z"/>
	<path d="M20,8.25c-0.414,0-0.75-0.336-0.75-0.75V6H17v1.5c0,0.414-0.336,0.75-0.75,0.75S15.5,7.914,15.5,7.5V6H8v1.5
		c0,0.414-0.336,0.75-0.75,0.75S6.5,7.914,6.5,7.5V6H4.25v1.5c0,0.414-0.336,0.75-0.75,0.75S2.75,7.914,2.75,7.5V5.25
		c0-0.414,0.336-0.75,0.75-0.75h0.75V3c0-0.414,0.336-0.75,0.75-0.75S5.75,2.586,5.75,3v1.5h3c0-1.37,0.947-2.564,2.25-2.902V0.75
		C11,0.336,11.336,0,11.75,0s0.75,0.336,0.75,0.75v0.848c1.303,0.338,2.25,1.532,2.25,2.902h3V3c0-0.414,0.336-0.75,0.75-0.75
		S19.25,2.586,19.25,3v1.5H20c0.414,0,0.75,0.336,0.75,0.75V7.5C20.75,7.914,20.414,8.25,20,8.25z M13.25,4.5
		c0-0.827-0.673-1.5-1.5-1.5s-1.5,0.673-1.5,1.5H13.25z"/>
	<path d="M13.577,15.001c-0.202,0-0.398-0.083-0.539-0.228c-0.391-0.404-0.821-0.773-1.279-1.099
		c-0.475,0.325-0.907,0.696-1.297,1.098C10.32,14.919,10.129,15,9.924,15l0,0c-0.196,0-0.382-0.075-0.523-0.212
		c-0.144-0.139-0.224-0.326-0.227-0.527c-0.003-0.2,0.072-0.39,0.212-0.533c0.454-0.468,0.954-0.898,1.487-1.276
		c0.253-0.186,0.558-0.285,0.877-0.285c0.321,0,0.628,0.101,0.888,0.292c0.525,0.374,1.024,0.802,1.478,1.271
		c0.288,0.297,0.28,0.772-0.016,1.06C13.958,14.926,13.773,15.001,13.577,15.001z"/>
</g>
</svg>
