<?xml version="1.0" encoding="utf-8"?>
<!-- Generator: Adobe Illustrator 22.1.0, SVG Export Plug-In . SVG Version: 6.00 Build 0)  -->
<svg version="1.1" id="Layer_1" xmlns="http://www.w3.org/2000/svg" xmlns:xlink="http://www.w3.org/1999/xlink" x="0px" y="0px"
	 viewBox="0 0 24 24" style="enable-background:new 0 0 24 24;" xml:space="preserve">
<title>landmark-chinese-wall</title>
<g>
	<path d="M18.75,24c-0.163,0-0.318-0.052-0.449-0.15c-0.331-0.249-0.399-0.719-0.151-1.05l3.6-4.8h-7.189l-5.78,5.78
		C8.639,23.922,8.45,24,8.25,24s-0.389-0.078-0.53-0.22c-0.142-0.142-0.22-0.33-0.22-0.53s0.078-0.389,0.22-0.53l5.78-5.78v-3.129
		l-9.22,9.22c-0.142,0.142-0.33,0.22-0.53,0.22s-0.389-0.078-0.53-0.22C3.078,22.889,3,22.7,3,22.5s0.078-0.389,0.22-0.53
		l5.764-5.764l-7.74-3.87C0.476,11.952,0,11.181,0,10.323V0.75C0,0.336,0.336,0,0.75,0S1.5,0.336,1.5,0.75v1.5H3v-1.5
		C3,0.336,3.336,0,3.75,0S4.5,0.336,4.5,0.75v1.5H6v-1.5C6,0.336,6.336,0,6.75,0S7.5,0.336,7.5,0.75v8.536l3.485,1.743
		c0.37,0.185,0.52,0.636,0.335,1.006c-0.128,0.256-0.385,0.415-0.671,0.415c-0.116,0-0.231-0.027-0.335-0.079L1.5,7.964v2.359
		c0,0.286,0.159,0.543,0.415,0.671l8.187,4.093l3.398-3.398V6c0-0.414,0.336-0.75,0.75-0.75S15,5.586,15,6v1.5h3V6
		c0-0.414,0.336-0.75,0.75-0.75S19.5,5.586,19.5,6v1.5h3V6c0-0.414,0.336-0.75,0.75-0.75S24,5.586,24,6v11.25
		c0,0.011-0.001,0.025-0.002,0.037c-0.001,0.021-0.004,0.043-0.007,0.064c-0.003,0.023-0.006,0.042-0.01,0.06
		c-0.007,0.029-0.013,0.051-0.021,0.072c-0.011,0.034-0.018,0.053-0.026,0.071c-0.01,0.022-0.02,0.04-0.03,0.058
		c-0.013,0.024-0.023,0.041-0.033,0.055c-0.006,0.01-0.013,0.021-0.019,0.029L19.35,23.7C19.209,23.888,18.985,24,18.75,24z
		 M22.5,16.5V9H15v7.5h1.5v-3c0-1.241,1.009-2.25,2.25-2.25S21,12.259,21,13.5v3H22.5z M19.5,16.5v-3c0-0.414-0.336-0.75-0.75-0.75
		S18,13.086,18,13.5v3H19.5z M6,8.536V3.75H1.5v2.536L6,8.536z"/>
</g>
</svg>
