<?xml version="1.0" encoding="utf-8"?>
<!-- Generator: Adobe Illustrator 22.1.0, SVG Export Plug-In . SVG Version: 6.00 Build 0)  -->
<svg version="1.1" id="Layer_1" xmlns="http://www.w3.org/2000/svg" xmlns:xlink="http://www.w3.org/1999/xlink" x="0px" y="0px"
	 viewBox="0 0 24 24" style="enable-background:new 0 0 24 24;" xml:space="preserve">
<title>landmark-pyramid</title>
<g>
	<path d="M4.591,23.25c-0.401,0-0.778-0.157-1.061-0.44c-0.283-0.284-0.439-0.661-0.438-1.061c0-0.4,0.156-0.776,0.439-1.059
		l9.219-9.22c0.012-0.012,0.029-0.026,0.045-0.038c0.021-0.017,0.044-0.034,0.069-0.05c0.025-0.017,0.05-0.033,0.076-0.046
		c0.018-0.011,0.037-0.021,0.054-0.028c0.034-0.014,0.065-0.021,0.083-0.025c0.033-0.01,0.064-0.017,0.096-0.022
		c0.035-0.005,0.068-0.006,0.101-0.006c0.001,0,0.001,0,0.002,0c0.047,0,0.08,0.002,0.115,0.007
		c0.031,0.005,0.061,0.012,0.092,0.021c0.019,0.004,0.051,0.011,0.086,0.026c0.016,0.007,0.036,0.017,0.054,0.028
		c0.022,0.012,0.044,0.026,0.067,0.04c0.029,0.019,0.054,0.037,0.077,0.056c0.016,0.012,0.032,0.026,0.045,0.038l9.22,9.22
		c0.283,0.283,0.439,0.659,0.439,1.06c0,0.4-0.155,0.777-0.438,1.06c-0.283,0.284-0.66,0.44-1.061,0.44H4.591z M4.591,21.75l7.939,0
		v-7.939L4.591,21.75z M21.97,21.75l-1.5-1.5H14.03v1.5H21.97z M18.969,18.75l-1.5-1.5H14.03v1.5H18.969z M15.969,15.75
		l-1.939-1.939v1.939H15.969z"/>
	<path d="M7.28,11.25c-2.068,0-3.75-1.682-3.75-3.75s1.682-3.75,3.75-3.75s3.75,1.682,3.75,3.75S9.348,11.25,7.28,11.25z M7.28,5.25
		c-1.241,0-2.25,1.009-2.25,2.25s1.009,2.25,2.25,2.25S9.53,8.741,9.53,7.5S8.521,5.25,7.28,5.25z"/>
	<path d="M1.28,8.25c-0.414,0-0.75-0.336-0.75-0.75s0.336-0.75,0.75-0.75h0.75c0.414,0,0.75,0.336,0.75,0.75S2.443,8.25,2.03,8.25
		H1.28z"/>
	<path d="M3.038,12.493c-0.2,0-0.388-0.078-0.53-0.219c-0.142-0.141-0.22-0.33-0.22-0.53s0.078-0.389,0.219-0.531l0.53-0.531
		c0.141-0.142,0.33-0.22,0.531-0.22c0.2,0,0.388,0.078,0.53,0.219c0.142,0.141,0.22,0.33,0.22,0.53S4.24,11.6,4.099,11.742
		l-0.53,0.531C3.427,12.415,3.238,12.493,3.038,12.493z"/>
	<path d="M7.28,14.25c-0.414,0-0.75-0.336-0.75-0.75v-0.75c0-0.414,0.336-0.75,0.75-0.75s0.75,0.336,0.75,0.75v0.75
		C8.03,13.914,7.693,14.25,7.28,14.25z"/>
	<path d="M12.53,8.25c-0.414,0-0.75-0.336-0.75-0.75s0.336-0.75,0.75-0.75h0.75c0.414,0,0.75,0.336,0.75,0.75s-0.336,0.75-0.75,0.75
		H12.53z"/>
	<path d="M10.993,4.538c-0.2,0-0.388-0.078-0.53-0.219c-0.142-0.141-0.22-0.33-0.22-0.53s0.078-0.389,0.219-0.531l0.53-0.531
		c0.142-0.142,0.33-0.22,0.531-0.22c0.2,0,0.388,0.078,0.53,0.219c0.142,0.141,0.22,0.33,0.22,0.53s-0.078,0.389-0.219,0.531
		l-0.53,0.531C11.382,4.46,11.193,4.538,10.993,4.538z"/>
	<path d="M7.28,3C6.866,3,6.53,2.664,6.53,2.25V1.5c0-0.414,0.336-0.75,0.75-0.75S8.03,1.086,8.03,1.5v0.75
		C8.03,2.664,7.693,3,7.28,3z"/>
	<path d="M3.568,4.538c-0.201,0-0.389-0.078-0.531-0.22l-0.53-0.531c-0.142-0.142-0.219-0.33-0.219-0.531s0.078-0.389,0.22-0.53
		c0.141-0.141,0.329-0.219,0.53-0.219c0.201,0,0.389,0.078,0.531,0.22l0.53,0.531C4.24,3.4,4.318,3.588,4.318,3.789
		s-0.078,0.389-0.22,0.53C3.956,4.46,3.768,4.538,3.568,4.538z"/>
</g>
</svg>
