<?xml version="1.0" encoding="utf-8"?>
<!-- Generator: Adobe Illustrator 22.1.0, SVG Export Plug-In . SVG Version: 6.00 Build 0)  -->
<svg version="1.1" id="Regular" xmlns="http://www.w3.org/2000/svg" xmlns:xlink="http://www.w3.org/1999/xlink" x="0px" y="0px"
	 viewBox="0 0 24 24" style="enable-background:new 0 0 24 24;" xml:space="preserve">
<title>landmarks-stone</title>
<g>
	<path d="M7.5,16.5C5.019,16.5,3,14.481,3,12c0-2.481,2.019-4.5,4.5-4.5S12,9.518,12,12C12,14.481,9.981,16.5,7.5,16.5z M7.5,9
		c-1.654,0-3,1.346-3,3c0,1.654,1.346,3,3,3s3-1.346,3-3C10.5,10.346,9.154,9,7.5,9z"/>
	<path d="M8.25,5.25c-0.049,0-0.098-0.005-0.148-0.015C7.907,5.196,7.737,5.083,7.626,4.916C7.515,4.749,7.475,4.549,7.515,4.353
		l0.75-3.75C8.334,0.253,8.643,0,8.999,0c0.049,0,0.099,0.005,0.148,0.015c0.196,0.039,0.365,0.152,0.476,0.319
		C9.735,0.5,9.775,0.701,9.735,0.897l-0.75,3.75C8.916,4.996,8.606,5.25,8.25,5.25z"/>
	<path d="M13.5,7.5c-0.229,0-0.443-0.103-0.586-0.282c-0.258-0.323-0.206-0.796,0.117-1.054l3.75-3C16.915,3.058,17.081,3,17.25,3
		c0.229,0,0.443,0.103,0.586,0.281c0.258,0.323,0.206,0.796-0.117,1.054l-3.75,3C13.836,7.442,13.669,7.5,13.5,7.5z"/>
	<path d="M9,24c-0.356,0-0.665-0.254-0.735-0.603l-0.75-3.75c-0.039-0.196,0-0.396,0.111-0.563c0.111-0.167,0.281-0.28,0.477-0.319
		c0.049-0.01,0.099-0.015,0.147-0.015c0.356,0,0.665,0.254,0.735,0.603l0.75,3.75c0.039,0.196,0,0.396-0.111,0.563
		c-0.111,0.167-0.281,0.28-0.477,0.319C9.097,23.995,9.048,24,9,24z"/>
	<path d="M17.25,21c-0.169,0-0.336-0.058-0.468-0.164l-3.75-3c-0.323-0.258-0.375-0.731-0.117-1.054
		c0.143-0.179,0.357-0.281,0.586-0.281c0.169,0,0.336,0.058,0.468,0.164l3.75,3c0.323,0.258,0.375,0.731,0.117,1.054
		C17.693,20.897,17.479,21,17.25,21z"/>
	<path d="M15.75,12.75C15.336,12.75,15,12.413,15,12s0.336-0.75,0.75-0.75h4.5c0.414,0,0.75,0.336,0.75,0.75s-0.336,0.75-0.75,0.75
		H15.75z"/>
</g>
</svg>
