<?xml version="1.0" encoding="utf-8"?>
<!-- Generator: Adobe Illustrator 22.1.0, SVG Export Plug-In . SVG Version: 6.00 Build 0)  -->
<svg version="1.1" id="Layer_1" xmlns="http://www.w3.org/2000/svg" xmlns:xlink="http://www.w3.org/1999/xlink" x="0px" y="0px"
	 viewBox="0 0 24 24" style="enable-background:new 0 0 24 24;" xml:space="preserve">
<title>landmark-london-tower</title>
<g>
	<path d="M11.75,20.939c-2.481,0-4.5-2.019-4.5-4.5s2.019-4.5,4.5-4.5c2.481,0,4.5,2.019,4.5,4.5S14.231,20.939,11.75,20.939z
		 M11.75,13.439c-1.654,0-3,1.346-3,3s1.346,3,3,3c1.654,0,3-1.346,3-3S13.404,13.439,11.75,13.439z"/>
	<path d="M5.25,23.939c-0.965,0-1.75-0.785-1.75-1.75v-12.5c0-0.059,0.008-0.118,0.023-0.181c0.002-0.009,0.009-0.032,0.012-0.041
		C3.553,9.41,3.578,9.354,3.608,9.303c0.001-0.001,0.012-0.021,0.013-0.022c0.031-0.048,0.07-0.094,0.115-0.137
		C3.748,9.132,3.76,9.121,3.771,9.112L8,5.588V4c0-0.396,0.161-0.783,0.441-1.062L10.69,0.69c0.284-0.283,0.66-0.439,1.06-0.439
		c0.401,0,0.778,0.156,1.061,0.44l2.25,2.25c0.28,0.278,0.44,0.665,0.44,1.061v1.587l4.23,3.525c0.011,0.009,0.022,0.019,0.032,0.03
		c0.043,0.039,0.083,0.086,0.116,0.136c0.006,0.01,0.014,0.023,0.02,0.035c0.029,0.051,0.051,0.102,0.067,0.156
		c0.001,0.005,0.009,0.028,0.01,0.032C19.992,9.57,20,9.629,20,9.689v12.5c0,0.965-0.785,1.75-1.75,1.75H5.25z M5,22.189
		c0,0.138,0.112,0.25,0.25,0.25h13c0.138,0,0.25-0.112,0.25-0.25v-11.75H5V22.189z M17.178,8.939L14.27,6.515
		C14.098,6.372,14,6.162,14,5.939V4l-2.25-2.25L9.5,4l0,1.939c0,0.223-0.098,0.433-0.27,0.576L6.322,8.939H17.178z"/>
	<path d="M11.75,17.939c-0.414,0-0.75-0.336-0.75-0.75v-2.25c0-0.414,0.336-0.75,0.75-0.75s0.75,0.336,0.75,0.75v1.5h0.75
		c0.414,0,0.75,0.336,0.75,0.75s-0.336,0.75-0.75,0.75H11.75z"/>
</g>
</svg>
