<?xml version="1.0" encoding="utf-8"?>
<!-- Generator: Adobe Illustrator 22.1.0, SVG Export Plug-In . SVG Version: 6.00 Build 0)  -->
<svg version="1.1" id="Layer_1" xmlns="http://www.w3.org/2000/svg" xmlns:xlink="http://www.w3.org/1999/xlink" x="0px" y="0px"
	 viewBox="0 0 24 24" style="enable-background:new 0 0 24 24;" xml:space="preserve">
<title>landmark-japan-shrine</title>
<g>
	<path d="M15.746,23.25c-0.827,0-1.5-0.673-1.5-1.5v-9h-4.5v9c0,0.827-0.673,1.5-1.5,1.5H6.825
		c-0.402-0.001-0.779-0.157-1.062-0.442c-0.283-0.285-0.439-0.662-0.438-1.063c0-0.047,0.002-0.095,0.007-0.144l0.885-8.852H4.496
		c-0.414,0-0.75-0.336-0.75-0.75s0.336-0.75,0.75-0.75h1.871l0.3-3H4.786c-0.933,0-1.78-0.587-2.107-1.46L0.794,1.764
		C0.693,1.494,0.752,1.196,0.95,0.987C1.091,0.836,1.29,0.75,1.496,0.75c0.074,0,0.148,0.011,0.219,0.033
		C5.06,1.807,8.517,2.326,11.989,2.326s6.929-0.519,10.273-1.543c0.07-0.021,0.143-0.032,0.218-0.032
		c0.248,0,0.487,0.123,0.625,0.322c0.143,0.206,0.178,0.465,0.093,0.691l-1.885,5.027c-0.326,0.87-1.17,1.457-2.1,1.46h-1.889l0.3,3
		h1.871c0.414,0,0.75,0.336,0.75,0.75s-0.336,0.75-0.75,0.75h-1.721l0.885,8.85c0.005,0.042,0.007,0.09,0.008,0.137
		c0.001,0.408-0.155,0.786-0.438,1.071c-0.283,0.284-0.66,0.441-1.062,0.442H15.746z M15.746,21.75h1.421l-1.35-13.5h-0.071V21.75z
		 M6.824,21.75l1.422,0V8.25H8.175L6.824,21.75z M14.246,11.25v-3h-1.5v3H14.246z M11.246,11.25v-3h-1.5v3H11.246z M4.083,6.264
		C4.192,6.555,4.475,6.75,4.785,6.75h14.426c0.308-0.001,0.589-0.196,0.698-0.486l1.365-3.641c-3.039,0.798-6.158,1.203-9.284,1.203
		c-3.121,0-6.235-0.403-9.27-1.199L4.083,6.264z"/>
</g>
</svg>
