<?xml version="1.0" encoding="utf-8"?>
<!-- Generator: Adobe Illustrator 22.1.0, SVG Export Plug-In . SVG Version: 6.00 Build 0)  -->
<svg version="1.1" id="Layer_1" xmlns="http://www.w3.org/2000/svg" xmlns:xlink="http://www.w3.org/1999/xlink" x="0px" y="0px"
	 viewBox="0 0 24 24" style="enable-background:new 0 0 24 24;" xml:space="preserve">
<title>landmark-triumph-gate</title>
<g>
	<path d="M4.5,11.25c-0.414,0-0.75-0.336-0.75-0.75S4.086,9.75,4.5,9.75H6c0.414,0,0.75,0.336,0.75,0.75S6.414,11.25,6,11.25H4.5z"
		/>
	<path d="M18,11.25c-0.414,0-0.75-0.336-0.75-0.75S17.586,9.75,18,9.75h1.5c0.414,0,0.75,0.336,0.75,0.75s-0.336,0.75-0.75,0.75H18z
		"/>
	<path d="M5.25,20.25c-0.414,0-0.75-0.336-0.75-0.75V18c0-0.414,0.336-0.75,0.75-0.75S6,17.586,6,18v1.5
		C6,19.914,5.664,20.25,5.25,20.25z"/>
	<path d="M18.75,20.25c-0.414,0-0.75-0.336-0.75-0.75V18c0-0.414,0.336-0.75,0.75-0.75S19.5,17.586,19.5,18v1.5
		C19.5,19.914,19.164,20.25,18.75,20.25z"/>
	<path d="M17.25,23.25C16.009,23.25,15,22.241,15,21v-5.25h-0.75c-0.414,0-0.75-0.336-0.75-0.75s0.336-0.75,0.75-0.75H15
		c0-1.654-1.346-3-3-3c-1.654,0-3,1.346-3,3h0.75c0.414,0,0.75,0.336,0.75,0.75s-0.336,0.75-0.75,0.75H9V21
		c0,1.241-1.009,2.25-2.25,2.25h-3c-1.241,0-2.25-1.009-2.25-2.25v-5.25H0.75C0.336,15.75,0,15.414,0,15s0.336-0.75,0.75-0.75H1.5
		v-6H0.75C0.336,8.25,0,7.914,0,7.5s0.336-0.75,0.75-0.75H1.5v-1.5H1.25C0.561,5.25,0,4.689,0,4V2c0-0.689,0.561-1.25,1.25-1.25
		h21.5C23.439,0.75,24,1.311,24,2v2c0,0.689-0.561,1.25-1.25,1.25H22.5v1.5h0.75C23.664,6.75,24,7.086,24,7.5s-0.336,0.75-0.75,0.75
		H22.5v6h0.75c0.414,0,0.75,0.336,0.75,0.75s-0.336,0.75-0.75,0.75H22.5V21c0,1.241-1.009,2.25-2.25,2.25H17.25z M16.5,21
		c0,0.414,0.336,0.75,0.75,0.75h3c0.414,0,0.75-0.336,0.75-0.75v-5.25h-4.5V21z M3,21c0,0.414,0.336,0.75,0.75,0.75h3
		c0.414,0,0.75-0.336,0.75-0.75v-5.25H3V21z M21,14.25v-6H3v6h4.5c0-2.481,2.019-4.5,4.5-4.5c2.481,0,4.5,2.019,4.5,4.5H21z
		 M21,6.75v-1.5H3v1.5H21z M22.5,3.75v-1.5h-21v1.5H22.5z"/>
</g>
</svg>
