<?xml version="1.0" encoding="utf-8"?>
<!-- Generator: Adobe Illustrator 22.1.0, SVG Export Plug-In . SVG Version: 6.00 Build 0)  -->
<svg version="1.1" id="Layer_1" xmlns="http://www.w3.org/2000/svg" xmlns:xlink="http://www.w3.org/1999/xlink" x="0px" y="0px"
	 viewBox="0 0 24 24" style="enable-background:new 0 0 24 24;" xml:space="preserve">
<title>landmark-easter-island-moi</title>
<g>
	<path d="M19.5,24c-0.414,0-0.75-0.336-0.75-0.75v-21c0-0.414-0.336-0.75-0.75-0.75H7.23c-0.356,0-0.666,0.254-0.736,0.603
		L6.125,3.946l5.306,1.327c0.194,0.048,0.358,0.17,0.461,0.342c0.103,0.172,0.133,0.374,0.084,0.568
		C11.893,6.516,11.594,6.75,11.25,6.75c-0.062,0-0.123-0.008-0.183-0.023L8.674,6.129l-3.01,6.621H6.75
		c0.241,0,0.468,0.116,0.609,0.312c0.14,0.194,0.179,0.447,0.103,0.676L6.75,15.872V18h3c0.262,0,0.5,0.133,0.638,0.355
		c0.138,0.223,0.15,0.496,0.033,0.73l-2.25,4.5C8.042,23.841,7.785,24,7.499,24c-0.115,0-0.231-0.027-0.335-0.079
		c-0.37-0.185-0.52-0.636-0.336-1.006L8.536,19.5H6c-0.414,0-0.75-0.336-0.75-0.75v-3c0-0.081,0.013-0.161,0.039-0.238l0.421-1.262
		H4.5c-0.256,0-0.492-0.128-0.63-0.344C3.73,13.69,3.711,13.423,3.817,13.19l3.377-7.43L5.068,5.228
		C4.679,5.13,4.435,4.746,4.514,4.353l0.509-2.544C5.233,0.761,6.161,0,7.23,0H18c1.241,0,2.25,1.009,2.25,2.25v21
		C20.25,23.664,19.913,24,19.5,24z"/>
</g>
</svg>
