<?xml version="1.0" encoding="utf-8"?>
<!-- Generator: Adobe Illustrator 22.1.0, SVG Export Plug-In . SVG Version: 6.00 Build 0)  -->
<svg version="1.1" id="Layer_1" xmlns="http://www.w3.org/2000/svg" xmlns:xlink="http://www.w3.org/1999/xlink" x="0px" y="0px"
	 viewBox="0 0 24 24" style="enable-background:new 0 0 24 24;" xml:space="preserve">
<title>landmark-buckingham-palace</title>
<g>
	<path d="M8.25,21c-0.414,0-0.75-0.336-0.75-0.75v-1.5C7.5,18.336,7.836,18,8.25,18S9,18.336,9,18.75v1.5C9,20.664,8.664,21,8.25,21
		z"/>
	<path d="M12,21c-0.414,0-0.75-0.336-0.75-0.75v-1.5c0-0.414,0.336-0.75,0.75-0.75s0.75,0.336,0.75,0.75v1.5
		C12.75,20.664,12.414,21,12,21z"/>
	<path d="M15.75,21C15.336,21,15,20.664,15,20.25v-1.5c0-0.414,0.336-0.75,0.75-0.75s0.75,0.336,0.75,0.75v1.5
		C16.5,20.664,16.164,21,15.75,21z"/>
	<path d="M2.25,24C1.009,24,0,22.991,0,21.75v-7.939c0-0.401,0.156-0.778,0.44-1.061l1.5-1.5c0.283-0.283,0.659-0.439,1.059-0.439
		c0.401,0,0.777,0.156,1.06,0.438L5.56,12.75C5.844,13.033,6,13.41,6,13.811V15h3V7.811C9,7.41,9.156,7.033,9.44,6.75l1.81-1.81
		V0.75C11.25,0.336,11.586,0,12,0s0.75,0.336,0.75,0.75v4.189l1.81,1.81C14.844,7.033,15,7.41,15,7.811V15h3v-1.189
		c0-0.401,0.156-0.778,0.44-1.061l1.5-1.5c0.283-0.283,0.659-0.439,1.059-0.439c0.401,0,0.777,0.156,1.06,0.438l1.501,1.501
		c0.283,0.283,0.44,0.66,0.44,1.061v7.939c0,1.241-1.009,2.25-2.25,2.25H2.25z M21.75,22.5c0.414,0,0.75-0.336,0.75-0.75v-7.939
		l-1.501-1.501l-1.499,1.5l0,8.69H21.75z M18,22.5v-6H6v6H18z M1.5,13.81l0,7.94c0,0.414,0.336,0.75,0.75,0.75H4.5v-8.689L3,12.31
		L1.5,13.81z M13.5,15V7.811l-1.5-1.5l-1.5,1.5L13.5,15z"/>
</g>
</svg>
