<?xml version="1.0" encoding="utf-8"?>
<!-- Generator: Adobe Illustrator 22.1.0, SVG Export Plug-In . SVG Version: 6.00 Build 0)  -->
<svg version="1.1" id="Layer_1" xmlns="http://www.w3.org/2000/svg" xmlns:xlink="http://www.w3.org/1999/xlink" x="0px" y="0px"
	 viewBox="0 0 24 24" style="enable-background:new 0 0 24 24;" xml:space="preserve">
<title>landmark-mesoamerican-pyramid</title>
<g>
	<path d="M16.5,21.75c-0.414,0-0.75-0.336-0.75-0.75V9.75H13.5c-0.414,0-0.75-0.336-0.75-0.75V7.5c0-0.414-0.336-0.75-0.75-0.75
		s-0.75,0.336-0.75,0.75V9c0,0.414-0.336,0.75-0.75,0.75H8.25V21c0,0.414-0.336,0.75-0.75,0.75H0.75C0.336,21.75,0,21.414,0,21v-4
		c0-0.689,0.561-1.25,1.25-1.25h1V12.5c0-0.689,0.561-1.25,1.25-1.25h0.25V9.5c0-0.689,0.561-1.25,1.25-1.25h1.75v-4.5H6
		C5.586,3.75,5.25,3.414,5.25,3S5.586,2.25,6,2.25h12c0.414,0,0.75,0.336,0.75,0.75S18.414,3.75,18,3.75h-0.75v4.5H19
		c0.689,0,1.25,0.561,1.25,1.25v1.75h0.25c0.689,0,1.25,0.561,1.25,1.25v3.25h1c0.689,0,1.25,0.561,1.25,1.25v4
		c0,0.414-0.336,0.75-0.75,0.75H16.5z M22.5,20.25v-3h-5.25v3H22.5z M6.75,20.25v-3H1.5v3H6.75z M20.25,15.75v-3h-3v3H20.25z
		 M6.75,15.75v-3h-3v3H6.75z M18.75,11.25v-1.5h-1.5v1.5H18.75z M6.75,11.25v-1.5h-1.5v1.5H6.75z M15.75,8.25v-4.5h-7.5v4.5h1.5V7.5
		c0-1.241,1.009-2.25,2.25-2.25c1.241,0,2.25,1.009,2.25,2.25v0.75H15.75z"/>
	<path d="M10.5,12.75c-0.414,0-0.75-0.336-0.75-0.75s0.336-0.75,0.75-0.75h3c0.414,0,0.75,0.336,0.75,0.75s-0.336,0.75-0.75,0.75
		H10.5z"/>
	<path d="M10.5,15.75c-0.414,0-0.75-0.336-0.75-0.75s0.336-0.75,0.75-0.75h3c0.414,0,0.75,0.336,0.75,0.75s-0.336,0.75-0.75,0.75
		H10.5z"/>
	<path d="M10.5,18.75c-0.414,0-0.75-0.336-0.75-0.75s0.336-0.75,0.75-0.75h3c0.414,0,0.75,0.336,0.75,0.75s-0.336,0.75-0.75,0.75
		H10.5z"/>
	<path d="M10.5,21.75c-0.414,0-0.75-0.336-0.75-0.75s0.336-0.75,0.75-0.75h3c0.414,0,0.75,0.336,0.75,0.75s-0.336,0.75-0.75,0.75
		H10.5z"/>
</g>
</svg>
