<?xml version="1.0" encoding="utf-8"?>
<!-- Generator: Adobe Illustrator 22.1.0, SVG Export Plug-In . SVG Version: 6.00 Build 0)  -->
<svg version="1.1" id="Layer_1" xmlns="http://www.w3.org/2000/svg" xmlns:xlink="http://www.w3.org/1999/xlink" x="0px" y="0px"
	 viewBox="0 0 24 24" style="enable-background:new 0 0 24 24;" xml:space="preserve">
<title>landmark-japan-castle-1</title>
<g>
	<path d="M0.75,23.851c-0.081,0-0.161-0.013-0.239-0.039c-0.189-0.063-0.343-0.197-0.433-0.376c-0.09-0.179-0.104-0.382-0.041-0.573
		l0.579-1.738c0.205-0.614,0.777-1.025,1.423-1.025h1.71v-2.255h-1.43c-0.023,0.003-0.047,0.005-0.07,0.005
		c-0.154,0-0.302-0.047-0.429-0.135c-0.049-0.034-0.094-0.075-0.137-0.126l-1.464-1.464c-0.292-0.292-0.292-0.768,0-1.061
		c0.142-0.142,0.33-0.22,0.53-0.22s0.389,0.078,0.53,0.22l0.869,0.869l2.253-3.233c0.248-0.518,0.775-0.851,1.352-0.851h4.436
		l0.75-0.75c0.283-0.283,0.659-0.439,1.06-0.439c0.4,0,0.776,0.155,1.059,0.438l0.751,0.752h4.431c0.574,0,1.104,0.334,1.352,0.851
		l2.256,3.233l0.869-0.869c0.142-0.142,0.33-0.22,0.53-0.22s0.389,0.078,0.53,0.22c0.292,0.292,0.292,0.768,0,1.061l-1.463,1.463
		c-0.043,0.051-0.089,0.093-0.139,0.127c-0.127,0.088-0.275,0.135-0.429,0.135c-0.024,0-0.047-0.002-0.07-0.005h-1.43v2.255h1.709
		c0.647,0,1.219,0.412,1.423,1.024l0.579,1.739c0.131,0.392-0.082,0.818-0.474,0.948c-0.077,0.026-0.156,0.039-0.237,0.039
		c-0.323,0-0.609-0.206-0.711-0.513L21.959,21.6L2.04,21.601l-0.579,1.737C1.359,23.645,1.073,23.851,0.75,23.851z M18.749,20.096
		v-2.25h-13.5v2.25H18.749z M20.308,16.346l-1.944-2.786c-0.045-0.065-0.085-0.132-0.119-0.201l-2.934-0.006l0.218,0.218
		c0.292,0.292,0.292,0.768,0,1.061c-0.142,0.142-0.33,0.22-0.53,0.22s-0.389-0.078-0.53-0.22l-2.47-2.47l-2.469,2.47
		c-0.142,0.142-0.33,0.22-0.53,0.22s-0.389-0.078-0.53-0.22c-0.292-0.292-0.292-0.768,0-1.061l0.22-0.22H5.767
		c-0.01,0.001-0.016,0.004-0.017,0.005c-0.018,0.048-0.045,0.098-0.077,0.145L3.69,16.346H20.308z"/>
	<path d="M17.999,10.351c-0.187,0-0.366-0.072-0.507-0.204c-0.008-0.007-0.016-0.014-0.023-0.021
		c-0.008-0.008-0.015-0.016-0.022-0.024c-0.054-0.059-0.097-0.125-0.129-0.196c-0.009-0.016-0.019-0.037-0.029-0.063l-0.581-1.748
		l-2.154,0.001l0.975,0.975c0.142,0.142,0.22,0.33,0.22,0.53c0,0.2-0.078,0.389-0.22,0.53s-0.33,0.22-0.53,0.22
		s-0.389-0.078-0.53-0.22l-2.47-2.47l-2.469,2.47c-0.142,0.142-0.33,0.22-0.53,0.22s-0.389-0.078-0.53-0.22
		c-0.142-0.141-0.22-0.33-0.22-0.53c0-0.2,0.078-0.389,0.22-0.53l0.97-0.97H7.29L6.711,9.838C6.704,9.859,6.693,9.883,6.682,9.905
		c-0.03,0.069-0.074,0.136-0.129,0.197c-0.007,0.009-0.015,0.017-0.023,0.025c-0.007,0.007-0.015,0.015-0.023,0.021
		c-0.142,0.132-0.321,0.204-0.507,0.204c-0.08,0-0.16-0.013-0.237-0.038c-0.135-0.045-0.252-0.126-0.342-0.235L3.969,8.626
		c-0.142-0.141-0.22-0.33-0.22-0.53s0.078-0.389,0.22-0.53c0.141-0.142,0.33-0.22,0.53-0.22s0.389,0.078,0.53,0.22l0.643,0.643
		l0.194-0.583c0.205-0.613,0.777-1.025,1.423-1.025l3.65,0c0.283-0.283,0.659-0.439,1.06-0.439c0.399,0,0.773,0.154,1.056,0.434
		h3.653c0.647,0,1.219,0.412,1.423,1.024l0.195,0.588l0.642-0.642c0.142-0.142,0.33-0.22,0.53-0.22s0.389,0.078,0.53,0.22
		c0.142,0.141,0.22,0.33,0.22,0.53s-0.078,0.389-0.22,0.53l-1.452,1.452c-0.09,0.109-0.207,0.189-0.342,0.234
		C18.16,10.338,18.08,10.351,17.999,10.351z"/>
	<path d="M14.999,5.101c-0.414,0-0.75-0.336-0.75-0.75V3.912l-2.25-2.25l-2.25,2.25v0.434c0,0.414-0.336,0.75-0.75,0.75
		s-0.75-0.336-0.75-0.75V3.907l-1.28-1.28c-0.142-0.141-0.22-0.33-0.22-0.53s0.078-0.389,0.22-0.53c0.141-0.142,0.33-0.22,0.53-0.22
		s0.389,0.078,0.53,0.22l0.972,0.972l1.937-1.937c0.283-0.283,0.659-0.439,1.06-0.439c0.4,0,0.777,0.156,1.059,0.438l1.938,1.938
		l0.972-0.972c0.142-0.142,0.33-0.22,0.53-0.22s0.389,0.078,0.53,0.22c0.142,0.141,0.22,0.33,0.22,0.53s-0.078,0.389-0.22,0.53
		l-1.28,1.28v0.444C15.749,4.765,15.413,5.101,14.999,5.101z"/>
</g>
</svg>
