<?xml version="1.0" encoding="utf-8"?>
<!-- Generator: Adobe Illustrator 22.1.0, SVG Export Plug-In . SVG Version: 6.00 Build 0)  -->
<svg version="1.1" id="Regular" xmlns="http://www.w3.org/2000/svg" xmlns:xlink="http://www.w3.org/1999/xlink" x="0px" y="0px"
	 viewBox="0 0 24 24" style="enable-background:new 0 0 24 24;" xml:space="preserve">
<title>lantern-1</title>
<g>
	<path d="M4.874,24c-0.262,0-0.5-0.133-0.638-0.355c-0.138-0.223-0.15-0.496-0.033-0.73c0.073-0.146,0.685-1.289,2.319-2.218
		c-0.093-0.125-0.148-0.28-0.148-0.447V17.5c0-0.825,0.574-1.518,1.343-1.702c-1.312-1.13-2.093-2.79-2.093-4.548
		c0.004-1.458,0.536-2.847,1.5-3.93V0.75C7.124,0.336,7.46,0,7.874,0h7.5c0.414,0,0.75,0.336,0.75,0.75v6.57
		c0.964,1.083,1.495,2.471,1.5,3.927c0,1.759-0.781,3.42-2.093,4.55c0.69,0.165,1.223,0.74,1.325,1.452h1.518V16.5
		c0-0.414,0.336-0.75,0.75-0.75s0.75,0.336,0.75,0.75v2.25c0,0.414-0.336,0.75-0.75,0.75s-0.75-0.336-0.75-0.75h-1.5v1.5
		c0,0.167-0.055,0.322-0.148,0.447c1.636,0.929,2.246,2.072,2.319,2.218c0.117,0.234,0.105,0.507-0.032,0.729
		C18.876,23.864,18.632,24,18.374,24H4.874z M16.73,22.5c-0.896-0.72-2.475-1.5-5.106-1.5c-2.631,0-4.21,0.78-5.106,1.5H16.73z
		 M15.374,19.5v-2c0-0.138-0.112-0.25-0.25-0.25h-7c-0.138,0-0.25,0.112-0.25,0.25v2H15.374z M8.624,7.617
		c0,0.199-0.077,0.386-0.217,0.528c-0.824,0.833-1.28,1.936-1.283,3.108c0,2.479,2.019,4.498,4.5,4.498c2.481,0,4.5-2.019,4.5-4.5
		c-0.004-1.17-0.459-2.273-1.283-3.105c-0.14-0.142-0.217-0.329-0.217-0.528V1.5h-6V7.617z"/>
	<path d="M11.624,14.25c-1.654,0-3-1.346-3-3c0-1.341,1.569-4.5,3-4.5s3,3.159,3,4.5C14.624,12.904,13.278,14.25,11.624,14.25z
		 M11.623,8.296c-0.412,0.352-1.499,1.976-1.499,2.954c0,0.827,0.673,1.5,1.5,1.5s1.5-0.673,1.5-1.5
		C13.124,10.269,12.035,8.647,11.623,8.296z"/>
</g>
</svg>
