<?xml version="1.0" encoding="utf-8"?>
<!-- Generator: Adobe Illustrator 22.1.0, SVG Export Plug-In . SVG Version: 6.00 Build 0)  -->
<svg version="1.1" id="Layer_1" xmlns="http://www.w3.org/2000/svg" xmlns:xlink="http://www.w3.org/1999/xlink" x="0px" y="0px"
	 viewBox="0 0 24 24" style="enable-background:new 0 0 24 24;" xml:space="preserve">
<title>laundry-machine-1</title>
<g>
	<path d="M2.25,24C1.009,24,0,22.991,0,21.75V2.25C0,1.009,1.009,0,2.25,0h19.5C22.991,0,24,1.009,24,2.25v19.5
		c0,1.241-1.009,2.25-2.25,2.25H2.25z M1.5,21.75c0,0.414,0.336,0.75,0.75,0.75h19.5c0.414,0,0.75-0.336,0.75-0.75V7.5h-3.465
		c-0.204,0-0.401-0.084-0.542-0.231c-1.664-1.734-3.904-2.717-6.307-2.767C12.126,4.501,12.066,4.5,12.005,4.5
		c-2.337,0-4.551,0.89-6.235,2.505C5.68,7.092,5.592,7.179,5.506,7.269C5.365,7.416,5.168,7.5,4.965,7.5H1.5V21.75z M22.5,6V2.25
		c0-0.414-0.336-0.75-0.75-0.75H2.25C1.836,1.5,1.5,1.836,1.5,2.25V6h3.152c0.026-0.026,0.053-0.052,0.08-0.077
		C6.696,4.038,9.276,3,11.996,3c0.074,0,0.148,0.001,0.222,0.002c2.69,0.056,5.216,1.119,7.13,2.998H22.5z"/>
	<path d="M12,21c-4.135,0-7.5-3.365-7.5-7.5S7.865,6,12,6s7.5,3.365,7.5,7.5S16.135,21,12,21z M12,7.5c-3.308,0-6,2.692-6,6
		s2.692,6,6,6s6-2.692,6-6S15.308,7.5,12,7.5z"/>
	<circle cx="20.25" cy="3.75" r="1.125"/>
	<path d="M12,18c-2.481,0-4.5-2.019-4.5-4.5C7.5,11.019,9.519,9,12,9c2.481,0,4.5,2.019,4.5,4.5C16.5,15.981,14.481,18,12,18z
		 M12,10.5c-1.654,0-3,1.346-3,3c0,1.654,1.346,3,3,3c1.654,0,3-1.346,3-3C15,11.846,13.654,10.5,12,10.5z"/>
</g>
</svg>
