<?xml version="1.0" encoding="utf-8"?>
<!-- Generator: Adobe Illustrator 22.1.0, SVG Export Plug-In . SVG Version: 6.00 Build 0)  -->
<svg version="1.1" id="Layer_1" xmlns="http://www.w3.org/2000/svg" xmlns:xlink="http://www.w3.org/1999/xlink" x="0px" y="0px"
	 viewBox="0 0 24 24" style="enable-background:new 0 0 24 24;" xml:space="preserve">
<title>laundry-machine-2</title>
<g>
	<path d="M3.75,24c-1.241,0-2.25-1.009-2.25-2.25V2.25C1.5,1.009,2.509,0,3.75,0h16.5c1.241,0,2.25,1.009,2.25,2.25v19.5
		c0,1.241-1.009,2.25-2.25,2.25H3.75z M3,21.75c0,0.414,0.336,0.75,0.75,0.75h16.5c0.414,0,0.75-0.336,0.75-0.75V7.5H3V21.75z M21,6
		V2.25c0-0.414-0.336-0.75-0.75-0.75H3.75C3.336,1.5,3,1.836,3,2.25V6H21z"/>
	<path d="M5.25,4.5C4.836,4.5,4.5,4.164,4.5,3.75S4.836,3,5.25,3h3C8.664,3,9,3.336,9,3.75S8.664,4.5,8.25,4.5H5.25z"/>
	<path d="M12,21c-3.308,0-6-2.692-6-6s2.692-6,6-6s6,2.692,6,6S15.308,21,12,21z M12,10.5c-2.481,0-4.5,2.019-4.5,4.5
		s2.019,4.5,4.5,4.5c2.481,0,4.5-2.019,4.5-4.5S14.481,10.5,12,10.5z"/>
	<circle cx="18" cy="3.75" r="1.125"/>
	<circle cx="13.5" cy="3.75" r="1.125"/>
	<path d="M9.75,15.75C9.336,15.75,9,15.414,9,15c0-1.654,1.346-3,3-3c0.414,0,0.75,0.336,0.75,0.75S12.414,13.5,12,13.5
		c-0.827,0-1.5,0.673-1.5,1.5C10.5,15.414,10.164,15.75,9.75,15.75z"/>
</g>
</svg>
