<?xml version="1.0" encoding="utf-8"?>
<!-- Generator: Adobe Illustrator 22.1.0, SVG Export Plug-In . SVG Version: 6.00 Build 0)  -->
<svg version="1.1" id="Layer_1" xmlns="http://www.w3.org/2000/svg" xmlns:xlink="http://www.w3.org/1999/xlink" x="0px" y="0px"
	 viewBox="0 0 24 24" style="enable-background:new 0 0 24 24;" xml:space="preserve">
<title>layers-grid-magnet</title>
<g>
	<path d="M3.75,19.5C1.682,19.5,0,17.818,0,15.75v-12C0,1.682,1.682,0,3.75,0h12c2.068,0,3.75,1.682,3.75,3.75v4.5
		C19.5,8.664,19.164,9,18.75,9S18,8.664,18,8.25V7.5h-4.5v0.75C13.5,8.664,13.164,9,12.75,9S12,8.664,12,8.25V7.5H7.5V12h0.75
		C8.664,12,9,12.336,9,12.75S8.664,13.5,8.25,13.5H7.5V18h0.75C8.664,18,9,18.336,9,18.75S8.664,19.5,8.25,19.5H3.75z M1.5,15.75
		C1.5,16.991,2.509,18,3.75,18H6v-4.5H1.5V15.75z M6,12V7.5H1.5V12H6z M18,6V3.75c0-1.241-1.009-2.25-2.25-2.25H13.5V6H18z M12,6
		V1.5H7.5V6H12z M6,6V1.5H3.75C2.509,1.5,1.5,2.509,1.5,3.75V6H6z"/>
	<path d="M17.25,24c-3.722,0-6.75-3.028-6.75-6.75v-4.5c0-1.241,1.009-2.25,2.25-2.25h1.5c1.241,0,2.25,1.009,2.25,2.25v4.5
		c0,0.414,0.336,0.75,0.75,0.75S18,17.664,18,17.25v-4.5c0-1.241,1.009-2.25,2.25-2.25h1.5c1.241,0,2.25,1.009,2.25,2.25v4.5
		C24,20.972,20.972,24,17.25,24z M12,17.25c0,2.895,2.355,5.25,5.25,5.25s5.25-2.355,5.25-5.25V15h-3v2.25
		c0,1.241-1.009,2.25-2.25,2.25S15,18.491,15,17.25V15h-3V17.25z M22.5,13.5v-0.75c0-0.414-0.336-0.75-0.75-0.75h-1.5
		c-0.414,0-0.75,0.336-0.75,0.75v0.75H22.5z M15,13.5v-0.75c0-0.414-0.336-0.75-0.75-0.75h-1.5C12.336,12,12,12.336,12,12.75v0.75
		H15z"/>
</g>
</svg>
