<?xml version="1.0" encoding="utf-8"?>
<!-- Generator: Adobe Illustrator 22.1.0, SVG Export Plug-In . SVG Version: 6.00 Build 0)  -->
<svg version="1.1" id="Layer_1" xmlns="http://www.w3.org/2000/svg" xmlns:xlink="http://www.w3.org/1999/xlink" x="0px" y="0px"
	 viewBox="0 0 24 24" style="enable-background:new 0 0 24 24;" xml:space="preserve">
<title>layers-grid-hide</title>
<g>
	<path d="M3.749,19.5c-2.068,0-3.75-1.682-3.75-3.75v-12c0-2.068,1.682-3.75,3.75-3.75h12c2.068,0,3.75,1.682,3.75,3.75v9
		c0,0.414-0.336,0.75-0.75,0.75H7.499v5.25c0,0.414-0.336,0.75-0.75,0.75H3.749z M1.499,15.75c0,1.241,1.009,2.25,2.25,2.25h2.25
		v-4.5h-4.5V15.75z M17.999,12V7.5h-4.5V12H17.999z M11.999,12V7.5h-4.5V12H11.999z M5.999,12V7.5h-4.5V12H5.999z M17.999,6V3.75
		c0-1.241-1.009-2.25-2.25-2.25h-2.25V6H17.999z M11.999,6V1.5h-4.5V6H11.999z M5.999,6V1.5h-2.25c-1.241,0-2.25,1.009-2.25,2.25V6
		H5.999z"/>
	<path d="M11.273,21.016c-0.138,0-0.273-0.038-0.391-0.11c-0.461-0.281-0.905-0.6-1.32-0.947c-0.069-0.058-0.134-0.123-0.192-0.192
		c-0.56-0.664-0.475-1.661,0.19-2.222c1.94-1.631,4.403-2.534,6.936-2.544h0.047c0.414,0,0.75,0.336,0.75,0.75
		s-0.336,0.75-0.75,0.75h-0.044c-2.18,0.009-4.302,0.787-5.972,2.191c-0.02,0.016-0.025,0.037-0.026,0.052
		c-0.001,0.015,0.001,0.037,0.018,0.057c0.365,0.307,0.748,0.582,1.146,0.825c0.353,0.216,0.465,0.678,0.25,1.031
		C11.776,20.882,11.537,21.016,11.273,21.016z"/>
	<path d="M16.458,22.499c-0.414,0-0.75-0.336-0.75-0.75s0.336-0.75,0.75-0.75h0.041c2.18-0.009,4.302-0.787,5.973-2.191
		c0.015-0.013,0.024-0.031,0.026-0.052c0.002-0.022-0.004-0.041-0.018-0.058c-0.365-0.307-0.748-0.581-1.146-0.824
		c-0.353-0.216-0.464-0.678-0.249-1.031c0.137-0.225,0.377-0.359,0.641-0.359c0.138,0,0.272,0.038,0.39,0.109
		c0.46,0.281,0.904,0.6,1.32,0.947c0.071,0.06,0.132,0.121,0.189,0.188c0.563,0.666,0.48,1.664-0.185,2.227
		c-1.941,1.631-4.404,2.534-6.937,2.544c0,0-0.001,0-0.001,0H16.458z"/>
	<path d="M11.25,24c-0.219,0-0.427-0.095-0.569-0.262c-0.13-0.152-0.194-0.346-0.178-0.546c0.015-0.2,0.108-0.382,0.26-0.512l10.5-9
		c0.136-0.117,0.31-0.181,0.488-0.181c0.219,0,0.427,0.095,0.569,0.261c0.27,0.314,0.233,0.789-0.081,1.058l-10.5,9
		C11.602,23.936,11.429,24,11.25,24z"/>
</g>
</svg>
