<?xml version="1.0" encoding="utf-8"?>
<!-- Generator: Adobe Illustrator 22.1.0, SVG Export Plug-In . SVG Version: 6.00 Build 0)  -->
<svg version="1.1" id="Layer_1" xmlns="http://www.w3.org/2000/svg" xmlns:xlink="http://www.w3.org/1999/xlink" x="0px" y="0px"
	 viewBox="0 0 24 24" style="enable-background:new 0 0 24 24;" xml:space="preserve">
<title>layers-show</title>
<g>
	<path d="M8.153,14.414c-0.078,0-0.155-0.012-0.229-0.036c-2.505-0.804-4.683-2.327-6.299-4.404L0.416,8.42
		c-0.421-0.542-0.421-1.299,0-1.84l1.21-1.555C4.109,1.832,7.854,0,11.9,0c4.046,0,7.792,1.832,10.276,5.026l1.208,1.554
		c0.422,0.542,0.422,1.299-0.001,1.841l-1.207,1.553c-0.143,0.184-0.359,0.29-0.593,0.29c-0.166,0-0.329-0.056-0.46-0.157
		c-0.327-0.254-0.386-0.726-0.132-1.052L22.199,7.5l-1.208-1.554C18.794,3.121,15.48,1.5,11.9,1.5c-3.58,0-6.893,1.621-9.091,4.446
		L1.6,7.5l1.209,1.553c1.429,1.838,3.356,3.185,5.573,3.896c0.394,0.127,0.611,0.55,0.485,0.944
		C8.767,14.205,8.48,14.414,8.153,14.414z"/>
	<path d="M10.4,11.687c-0.104,0-0.205-0.021-0.3-0.063c-1.101-0.481-1.949-1.362-2.387-2.481C7.274,8.024,7.297,6.801,7.779,5.7
		C8.26,4.599,9.141,3.751,10.26,3.313c0.529-0.207,1.082-0.312,1.642-0.312c0.62,0,1.226,0.127,1.8,0.379
		c2.271,0.993,3.313,3.648,2.323,5.921c-0.119,0.274-0.389,0.45-0.688,0.45c-0.104,0-0.204-0.021-0.3-0.063
		C14.659,9.522,14.485,9.079,14.65,8.7c0.66-1.515-0.034-3.285-1.548-3.947c-0.384-0.168-0.788-0.253-1.2-0.253
		c-0.373,0-0.742,0.07-1.095,0.208c-0.746,0.292-1.333,0.857-1.654,1.591C8.832,7.035,8.817,7.85,9.109,8.596
		C9.401,9.342,9.966,9.929,10.7,10.25c0.379,0.166,0.552,0.609,0.387,0.988C10.968,11.511,10.698,11.687,10.4,11.687z"/>
	<path d="M17.15,24c-3.722,0-6.75-3.028-6.75-6.75s3.028-6.75,6.75-6.75s6.75,3.028,6.75,6.75S20.872,24,17.15,24z M17.15,12
		c-2.895,0-5.25,2.355-5.25,5.25s2.355,5.25,5.25,5.25s5.25-2.355,5.25-5.25S20.045,12,17.15,12z"/>
	<path d="M17.15,21c-0.414,0-0.75-0.336-0.75-0.75V18h-2.25c-0.414,0-0.75-0.336-0.75-0.75s0.336-0.75,0.75-0.75h2.25v-2.25
		c0-0.414,0.336-0.75,0.75-0.75s0.75,0.336,0.75,0.75v2.25h2.25c0.414,0,0.75,0.336,0.75,0.75S20.563,18,20.15,18H17.9v2.25
		C17.9,20.664,17.563,21,17.15,21z"/>
</g>
</svg>
