<?xml version="1.0" encoding="utf-8"?>
<!-- Generator: Adobe Illustrator 22.1.0, SVG Export Plug-In . SVG Version: 6.00 Build 0)  -->
<svg version="1.1" id="Layer_1" xmlns="http://www.w3.org/2000/svg" xmlns:xlink="http://www.w3.org/1999/xlink" x="0px" y="0px"
	 viewBox="0 0 24 24" style="enable-background:new 0 0 24 24;" xml:space="preserve">
<title>layers-lock</title>
<g>
	<path d="M8.254,14.414c-0.078,0-0.155-0.012-0.229-0.036c-2.505-0.804-4.683-2.327-6.299-4.404L0.517,8.42
		c-0.421-0.542-0.421-1.299,0-1.84l1.209-1.555C4.21,1.832,7.955,0,12.001,0c4.046,0,7.792,1.832,10.276,5.026l1.208,1.554
		c0.422,0.542,0.422,1.299-0.001,1.841l-1.207,1.553c-0.144,0.184-0.36,0.29-0.593,0.29l0,0c-0.166,0-0.329-0.056-0.46-0.157
		c-0.327-0.254-0.386-0.726-0.132-1.052L22.3,7.5l-1.208-1.554C18.894,3.121,15.581,1.5,12.001,1.5c-3.58,0-6.893,1.621-9.091,4.446
		L1.701,7.5L2.91,9.054c1.429,1.838,3.357,3.185,5.573,3.896c0.394,0.127,0.611,0.55,0.485,0.944
		C8.868,14.205,8.581,14.414,8.254,14.414z"/>
	<path d="M10.5,11.687c-0.104,0-0.205-0.021-0.3-0.063C7.927,10.631,6.886,7.973,7.88,5.7c0.716-1.639,2.337-2.697,4.128-2.697
		c0.62,0,1.224,0.127,1.796,0.376c2.271,0.993,3.313,3.648,2.322,5.921c-0.119,0.274-0.389,0.45-0.688,0.45
		c-0.104,0-0.205-0.021-0.3-0.063C14.76,9.522,14.586,9.079,14.751,8.7c0.66-1.515-0.034-3.285-1.548-3.947
		c-0.381-0.167-0.784-0.251-1.197-0.251c-1.195,0-2.275,0.706-2.752,1.798c-0.662,1.515,0.032,3.287,1.547,3.949
		c0.379,0.166,0.552,0.609,0.387,0.988C11.068,11.511,10.799,11.687,10.5,11.687z"/>
	<path d="M14.251,24c-1.241,0-2.25-1.009-2.25-2.25v-4.5c0-0.96,0.615-1.808,1.5-2.121V14.25c0-2.068,1.682-3.75,3.75-3.75
		s3.75,1.682,3.75,3.75v0.879c0.885,0.314,1.5,1.162,1.5,2.121v4.5c0,1.241-1.009,2.25-2.25,2.25H14.251z M14.251,16.5
		c-0.414,0-0.75,0.336-0.75,0.75v4.5c0,0.414,0.336,0.75,0.75,0.75h6c0.414,0,0.75-0.336,0.75-0.75v-4.5
		c0-0.414-0.336-0.75-0.75-0.75H14.251z M19.501,15v-0.75c0-1.241-1.009-2.25-2.25-2.25s-2.25,1.009-2.25,2.25L19.501,15z"/>
	<circle cx="17.251" cy="19.529" r="1.125"/>
</g>
</svg>
