<?xml version="1.0" encoding="utf-8"?>
<!-- Generator: Adobe Illustrator 22.1.0, SVG Export Plug-In . SVG Version: 6.00 Build 0)  -->
<svg version="1.1" id="Layer_1" xmlns="http://www.w3.org/2000/svg" xmlns:xlink="http://www.w3.org/1999/xlink" x="0px" y="0px"
	 viewBox="0 0 24 24" style="enable-background:new 0 0 24 24;" xml:space="preserve">
<title>layers</title>
<g>
	<path d="M12,23.997c-0.365,0-0.728-0.088-1.052-0.255L0.739,18.46c-0.252-0.131-0.455-0.333-0.585-0.585
		c-0.346-0.669-0.084-1.495,0.585-1.841l2.729-1.41l-2.728-1.411c-0.252-0.131-0.455-0.333-0.585-0.585
		c-0.168-0.324-0.199-0.694-0.089-1.042c0.111-0.348,0.35-0.632,0.674-0.8l2.732-1.413L0.739,7.96
		C0.486,7.829,0.284,7.627,0.153,7.375c-0.168-0.324-0.199-0.694-0.089-1.041c0.111-0.348,0.35-0.632,0.674-0.8l10.209-5.278
		C11.271,0.089,11.635,0,12,0s0.729,0.088,1.052,0.255l10.209,5.278c0.038,0.019,0.074,0.042,0.109,0.068
		c0.202,0.129,0.366,0.309,0.477,0.522c0.346,0.669,0.084,1.495-0.584,1.841l-2.728,1.41l2.728,1.411
		c0.252,0.131,0.454,0.333,0.585,0.585c0.168,0.324,0.199,0.694,0.089,1.042c-0.11,0.348-0.349,0.632-0.673,0.799l-2.731,1.413
		l2.73,1.414c0.252,0.13,0.454,0.333,0.585,0.584c0.168,0.324,0.2,0.695,0.089,1.042c-0.111,0.348-0.35,0.632-0.674,0.799
		l-10.209,5.276C12.728,23.909,12.365,23.997,12,23.997z M11.637,22.409c0.111,0.057,0.237,0.088,0.364,0.088
		s0.252-0.03,0.363-0.088l9.979-5.156L18.9,15.47l-5.847,3.024C12.73,18.661,12.366,18.75,12,18.75
		c-0.365,0-0.729-0.088-1.052-0.255L5.1,15.469l-3.442,1.778L11.637,22.409z M11.637,17.162C11.748,17.22,11.874,17.25,12,17.25
		c0.126,0,0.252-0.031,0.363-0.088L22.342,12L18.9,10.22l-5.848,3.022c-0.324,0.167-0.688,0.255-1.052,0.255
		c-0.365,0-0.728-0.088-1.052-0.255l-5.845-3.024L1.658,12L11.637,17.162z M11.637,11.909c0.111,0.057,0.237,0.088,0.364,0.088
		c0.126,0,0.252-0.03,0.363-0.088l9.984-5.159l-9.984-5.162C12.252,1.531,12.126,1.5,12,1.5s-0.252,0.031-0.364,0.088L1.658,6.747
		L11.637,11.909z"/>
</g>
</svg>
