<?xml version="1.0" encoding="utf-8"?>
<!-- Generator: Adobe Illustrator 22.1.0, SVG Export Plug-In . SVG Version: 6.00 Build 0)  -->
<svg version="1.1" id="Layer_1" xmlns="http://www.w3.org/2000/svg" xmlns:xlink="http://www.w3.org/1999/xlink" x="0px" y="0px"
	 viewBox="0 0 24 24" style="enable-background:new 0 0 24 24;" xml:space="preserve">
<title>legal-judge</title>
<g>
	<path d="M2.524,24.001c-0.112,0-0.22-0.025-0.322-0.073c-0.18-0.085-0.317-0.236-0.384-0.425C1.75,23.315,1.76,23.111,1.846,22.93
		c1.108-2.342,3.008-4.242,5.35-5.35c1.5-0.709,3.099-1.072,4.753-1.076c0.012-0.001,0.031-0.003,0.051-0.003
		c0.011,0,0.027,0.001,0.042,0.002c4.307,0.023,8.275,2.544,10.112,6.427c0.086,0.181,0.096,0.385,0.028,0.574
		s-0.205,0.34-0.385,0.425c-0.1,0.048-0.208,0.072-0.32,0.072c-0.289,0-0.555-0.169-0.678-0.429c-1.5-3.17-4.56-5.264-8.048-5.537
		v2.966c0,0.414-0.336,0.75-0.75,0.75s-0.75-0.336-0.75-0.75v-2.97c-1.184,0.089-2.33,0.393-3.412,0.905
		c-2.03,0.96-3.676,2.606-4.636,4.636C3.078,23.833,2.812,24.001,2.524,24.001z"/>
	<path d="M20.25,18.751c-2.068,0-3.75-1.682-3.75-3.75v-0.539c-0.465,0.53-1.021,0.974-1.647,1.312
		c-0.877,0.474-1.861,0.725-2.846,0.725c-0.58,0-1.16-0.085-1.722-0.253c-1.089-0.325-2.048-0.944-2.785-1.785v0.539
		c0,2.068-1.682,3.75-3.75,3.75c-1.654,0-3-1.346-3-3c0-0.863,0.38-1.685,1.018-2.25c-0.638-0.565-1.018-1.387-1.018-2.25
		c0-1.381,0.958-2.582,2.274-2.911C3.364,3.64,7.251,0.001,12,0.001c4.75,0,8.636,3.639,8.976,8.339
		c1.316,0.329,2.274,1.53,2.274,2.911c0,0.863-0.38,1.685-1.019,2.25c0.638,0.565,1.019,1.387,1.019,2.25
		C23.25,17.405,21.904,18.751,20.25,18.751z M12.75,5.09c0.256,0.536,1.597,3.045,4.312,3.156c0.32,0.013,0.596,0.228,0.688,0.535
		c0.168,0.563,0.252,1.147,0.25,1.735v4.485c0,1.241,1.009,2.25,2.25,2.25c0.827,0,1.5-0.673,1.5-1.5s-0.673-1.5-1.5-1.5
		c-0.414,0-0.75-0.336-0.75-0.75s0.336-0.75,0.75-0.75c0.827,0,1.5-0.673,1.5-1.5s-0.673-1.5-1.5-1.5c-0.414,0-0.75-0.336-0.75-0.75
		c0-3.88-2.934-7.085-6.75-7.462V5.09z M11.25,1.538C7.434,1.916,4.5,5.121,4.5,9.001c0,0.414-0.336,0.75-0.75,0.75
		c-0.827,0-1.5,0.673-1.5,1.5s0.673,1.5,1.5,1.5c0.414,0,0.75,0.336,0.75,0.75s-0.336,0.75-0.75,0.75c-0.827,0-1.5,0.673-1.5,1.5
		s0.673,1.5,1.5,1.5c1.241,0,2.25-1.009,2.25-2.25v-4.5c0-0.009,0-0.02,0.001-0.03c0-0.56,0.084-1.135,0.249-1.689
		c0.092-0.307,0.368-0.522,0.688-0.535c2.724-0.11,4.057-2.62,4.311-3.155V1.538z M7.571,9.696
		c-0.408,2.241,0.932,4.453,3.142,5.113c0.423,0.126,0.858,0.19,1.292,0.19c0.738,0,1.476-0.188,2.134-0.543
		c1.057-0.572,1.829-1.521,2.172-2.673c0.202-0.678,0.241-1.394,0.116-2.087C14.176,9.394,12.768,7.927,12,6.794
		C11.233,7.927,9.825,9.396,7.571,9.696z"/>
</g>
</svg>
