<?xml version="1.0" encoding="utf-8"?>
<!-- Generator: Adobe Illustrator 22.1.0, SVG Export Plug-In . SVG Version: 6.00 Build 0)  -->
<svg version="1.1" id="Layer_1" xmlns="http://www.w3.org/2000/svg" xmlns:xlink="http://www.w3.org/1999/xlink" x="0px" y="0px"
	 viewBox="0 0 24 24" style="enable-background:new 0 0 24 24;" xml:space="preserve">
<title>legal-scale-2</title>
<g>
	<path d="M18,23.25c-2.895,0-5.25-2.355-5.25-5.25c0-0.414,0.336-0.75,0.75-0.75h0.199l3.281-10.5H7.02l3.281,10.5H10.5
		c0.414,0,0.75,0.336,0.75,0.75c0,2.895-2.355,5.25-5.25,5.25S0.75,20.895,0.75,18c0-0.414,0.336-0.75,0.75-0.75h0.199L4.98,6.75
		H1.5C1.086,6.75,0.75,6.414,0.75,6S1.086,5.25,1.5,5.25h9.75V1.5c0-0.414,0.336-0.75,0.75-0.75s0.75,0.336,0.75,0.75v3.75h9.75
		c0.414,0,0.75,0.336,0.75,0.75s-0.336,0.75-0.75,0.75h-3.48l3.281,10.5H22.5c0.414,0,0.75,0.336,0.75,0.75
		C23.25,20.895,20.895,23.25,18,23.25z M14.326,18.75c0.352,1.712,1.892,3,3.674,3s3.323-1.288,3.674-3H14.326z M2.326,18.75
		c0.352,1.712,1.892,3,3.674,3s3.322-1.288,3.674-3H2.326z M20.73,17.25L18,8.514l-2.73,8.736H20.73z M8.73,17.25L6,8.514
		L3.27,17.25H8.73z"/>
</g>
</svg>
