<?xml version="1.0" encoding="utf-8"?>
<!-- Generator: Adobe Illustrator 22.1.0, SVG Export Plug-In . SVG Version: 6.00 Build 0)  -->
<svg version="1.1" id="Layer_1" xmlns="http://www.w3.org/2000/svg" xmlns:xlink="http://www.w3.org/1999/xlink" x="0px" y="0px"
	 viewBox="0 0 24 24" style="enable-background:new 0 0 24 24;" xml:space="preserve">
<title>legal-certificate</title>
<g>
	<path d="M0.75,24C0.336,24,0,23.664,0,23.25s0.336-0.75,0.75-0.75c2.068,0,3.75-1.682,3.75-3.75v-6C4.5,12.336,4.836,12,5.25,12
		S6,12.336,6,12.75v6c0,1.433-0.575,2.773-1.576,3.75h8.326c2.068,0,3.75-1.682,3.75-3.75v-15c0-0.823,0.267-1.607,0.752-2.25H9.75
		C9.336,1.5,9,1.164,9,0.75S9.336,0,9.75,0h10.5C22.318,0,24,1.682,24,3.75S22.318,7.5,20.25,7.5c-0.823,0-1.607-0.267-2.25-0.752
		V18.75c0,2.895-2.355,5.25-5.25,5.25H0.75z M20.25,1.5C19.009,1.5,18,2.509,18,3.75S19.009,6,20.25,6s2.25-1.009,2.25-2.25
		S21.491,1.5,20.25,1.5z"/>
	<path d="M7.731,10.05c-0.2,0-0.399-0.049-0.577-0.143L5.25,8.913L3.348,9.908C3.17,10,2.971,10.05,2.772,10.05l0,0
		c-0.257,0-0.505-0.079-0.716-0.229c-0.383-0.27-0.579-0.744-0.5-1.207L1.92,6.502l-1.543-1.5C0.043,4.68-0.079,4.185,0.067,3.741
		c0.15-0.448,0.532-0.767,0.997-0.833L3.19,2.601l0.952-1.917c0.216-0.424,0.64-0.684,1.11-0.684c0.193,0,0.386,0.046,0.559,0.134
		c0.236,0.12,0.424,0.307,0.543,0.543L7.309,2.6l2.136,0.308c0.463,0.067,0.844,0.384,0.994,0.828
		c0.147,0.447,0.025,0.944-0.311,1.268L8.583,6.503l0.364,2.111c0.079,0.463-0.117,0.937-0.5,1.208
		C8.236,9.971,7.989,10.05,7.731,10.05z M5.25,7.379c0.2,0,0.4,0.049,0.578,0.143l1.549,0.809L7.08,6.613
		c-0.068-0.4,0.065-0.806,0.355-1.087l1.25-1.212L6.958,4.065C6.558,4.008,6.211,3.758,6.03,3.396l-0.78-1.57L4.472,3.394
		c-0.179,0.358-0.521,0.609-0.915,0.67L1.821,4.315l1.247,1.213c0.289,0.281,0.422,0.686,0.355,1.084L3.127,8.33l1.548-0.81
		C4.851,7.428,5.05,7.379,5.25,7.379z"/>
	<path d="M8.25,18c-0.414,0-0.75-0.336-0.75-0.75s0.336-0.75,0.75-0.75h6c0.414,0,0.75,0.336,0.75,0.75S14.664,18,14.25,18H8.25z"/>
	<path d="M8.25,15c-0.414,0-0.75-0.336-0.75-0.75s0.336-0.75,0.75-0.75h6c0.414,0,0.75,0.336,0.75,0.75S14.664,15,14.25,15H8.25z"/>
	<path d="M11.25,12c-0.414,0-0.75-0.336-0.75-0.75s0.336-0.75,0.75-0.75h3c0.414,0,0.75,0.336,0.75,0.75S14.664,12,14.25,12H11.25z"
		/>
	<path d="M11.25,9c-0.414,0-0.75-0.336-0.75-0.75s0.336-0.75,0.75-0.75h3C14.664,7.5,15,7.836,15,8.25S14.664,9,14.25,9H11.25z"/>
</g>
</svg>
