<?xml version="1.0" encoding="utf-8"?>
<!-- Generator: Adobe Illustrator 22.1.0, SVG Export Plug-In . SVG Version: 6.00 Build 0)  -->
<svg version="1.1" id="Layer_1" xmlns="http://www.w3.org/2000/svg" xmlns:xlink="http://www.w3.org/1999/xlink" x="0px" y="0px"
	 viewBox="0 0 24 24" style="enable-background:new 0 0 24 24;" xml:space="preserve">
<title>legal-scale</title>
<g>
	<path d="M7.301,24c-0.405,0-0.775-0.177-1.025-0.485c-0.266-0.331-0.342-0.782-0.198-1.178l0.503-1.391
		C6.928,20.076,7.778,19.5,8.701,19.5l0.3,0v-0.284c0-0.018,0.001-0.035,0.002-0.052c0.092-1.278,1.016-2.322,2.248-2.596V8.25h-6v3
		h2.527c0.353,0,0.689,0.152,0.922,0.418c0.235,0.266,0.34,0.622,0.288,0.976c-0.185,1.202-0.825,2.258-1.802,2.975
		c-0.785,0.576-1.71,0.88-2.676,0.88c-0.232,0-0.467-0.018-0.699-0.054c-1.968-0.302-3.494-1.828-3.796-3.797
		c-0.053-0.358,0.053-0.715,0.289-0.984c0.233-0.264,0.569-0.415,0.92-0.415h2.527v-3h-1.5c-0.414,0-0.75-0.336-0.75-0.75
		s0.336-0.75,0.75-0.75h9V6.637c-1.036-0.325-1.776-1.286-1.802-2.393C9.448,4.181,9.454,4.117,9.468,4.056
		c0.277-1.191,0.738-2.327,1.371-3.375c0.159-0.292,0.453-0.526,0.798-0.627c0.126-0.037,0.255-0.055,0.385-0.055
		c0.227,0,0.453,0.058,0.654,0.168c0.229,0.125,0.417,0.313,0.542,0.542c0.618,1.023,1.077,2.154,1.355,3.347
		c0.014,0.063,0.021,0.126,0.02,0.188c-0.027,1.127-0.784,2.093-1.843,2.405V6.75h9c0.414,0,0.75,0.336,0.75,0.75
		s-0.336,0.75-0.75,0.75h-1.5v3h2.527c0.353,0,0.689,0.152,0.922,0.418c0.234,0.265,0.34,0.621,0.289,0.974
		c-0.185,1.203-0.825,2.259-1.802,2.977c-0.785,0.576-1.71,0.88-2.676,0.88c-0.232,0-0.467-0.018-0.698-0.054
		c-1.969-0.302-3.494-1.828-3.797-3.797c-0.052-0.358,0.053-0.715,0.289-0.983c0.234-0.264,0.569-0.415,0.92-0.415h2.527v-3h-6
		v8.318c1.233,0.272,2.156,1.316,2.248,2.595c0.001,0.016,0.002,0.034,0.002,0.054v0.284l0.311,0c0.916,0,1.76,0.571,2.1,1.42
		l0.515,1.414c0.145,0.397,0.07,0.848-0.196,1.177c-0.254,0.314-0.62,0.487-1.03,0.488C16.702,24,7.301,24,7.301,24z M8.697,21
		c-0.313,0-0.6,0.192-0.715,0.478L7.613,22.5h8.778l-0.38-1.044C15.903,21.188,15.621,21,15.313,21C15.309,21,8.697,21,8.697,21z
		 M13.501,19.501v-0.254c-0.063-0.702-0.663-1.25-1.373-1.25c-0.027,0-0.119,0.004-0.127,0.004c-0.016,0-0.1-0.004-0.127-0.004
		c-0.71,0-1.31,0.548-1.373,1.25v0.254H13.501z M16.566,12.75c0.308,1.156,1.266,2.027,2.473,2.213
		c0.156,0.024,0.314,0.036,0.47,0.036c0.645,0,1.263-0.204,1.789-0.589c0.563-0.413,0.959-0.994,1.137-1.66H16.566z M1.566,12.75
		c0.308,1.156,1.266,2.027,2.473,2.213c0.156,0.024,0.314,0.036,0.47,0.036c0.645,0,1.264-0.204,1.789-0.589
		c0.563-0.413,0.959-0.994,1.137-1.66H1.566z M12.001,5.25c0.025,0,0.049,0.002,0.072,0.005c0.527-0.023,0.962-0.436,1.016-0.961
		c-0.229-0.936-0.587-1.83-1.067-2.663c-0.485,0.845-0.842,1.736-1.067,2.663c0.052,0.52,0.47,0.924,0.996,0.959
		C11.967,5.251,11.984,5.25,12.001,5.25z"/>
</g>
</svg>
