<?xml version="1.0" encoding="utf-8"?>
<!-- Generator: Adobe Illustrator 22.1.0, SVG Export Plug-In . SVG Version: 6.00 Build 0)  -->
<svg version="1.1" id="Layer_1" xmlns="http://www.w3.org/2000/svg" xmlns:xlink="http://www.w3.org/1999/xlink" x="0px" y="0px"
	 viewBox="0 0 24 24" style="enable-background:new 0 0 24 24;" xml:space="preserve">
<title>library-sports</title>
<g>
	<path d="M15.595,11.539c-0.801,0-1.554-0.309-2.119-0.871c-1.164-1.171-1.165-3.074-0.003-4.243l0.383-0.384
		c0.183-0.76,0.336-1.426,0.468-2.001c0.637-2.776,0.928-4.044,2.322-4.044c0.171,0,0.356,0.021,0.567,0.063
		c0.851,0.169,1.431,0.555,1.722,1.149c0.031,0.064,0.059,0.13,0.083,0.198c0.241-0.064,0.49-0.096,0.743-0.096
		c0.747,0,1.455,0.284,1.993,0.8c0.025,0.024,0.054,0.053,0.082,0.082c0.749,0.718,1.035,1.803,0.768,2.804
		c0.069,0.024,0.135,0.052,0.2,0.083c0.594,0.29,0.982,0.87,1.153,1.722c0.356,1.782-0.624,2.049-3.873,2.932
		c-0.566,0.154-1.223,0.333-1.981,0.546l-0.385,0.386C17.15,11.229,16.396,11.539,15.595,11.539z M14.535,7.484
		c-0.581,0.585-0.58,1.537,0.001,2.123c0.281,0.279,0.657,0.433,1.059,0.433c0.401,0,0.778-0.154,1.061-0.435L14.535,7.484z
		 M17.94,8.767c0.66-0.184,1.242-0.343,1.75-0.481c1.394-0.379,2.71-0.737,2.835-0.932c0.006-0.031-0.02-0.163-0.04-0.259
		c-0.072-0.358-0.192-0.595-0.339-0.668c-0.047-0.023-0.106-0.035-0.175-0.035c-0.178,0-0.345,0.077-0.347,0.077
		c-0.048,0.023-0.101,0.041-0.16,0.055l-1.537,0.439c-0.068,0.019-0.137,0.029-0.206,0.029c-0.333,0-0.629-0.224-0.721-0.544
		c-0.114-0.398,0.117-0.813,0.515-0.927l1.377-0.393c0.451-0.551,0.408-1.372-0.114-1.873l-0.062-0.062
		c-0.259-0.248-0.599-0.385-0.957-0.385l-0.029,0c-0.294,0.006-0.577,0.105-0.808,0.282l-0.227,1.496
		c-0.055,0.364-0.374,0.638-0.741,0.638c-0.038,0-0.076-0.003-0.114-0.009c-0.408-0.062-0.69-0.445-0.629-0.854l0.267-1.76
		c0.002-0.016,0.007-0.033,0.011-0.05c0.012-0.056,0.029-0.105,0.05-0.151c0.002-0.004,0.004-0.009,0.006-0.013
		c0.037-0.08,0.126-0.351,0.042-0.52c-0.073-0.146-0.31-0.266-0.667-0.337c-0.086-0.017-0.182-0.035-0.245-0.035
		c-0.229,0-0.564,1.464-0.889,2.88c-0.121,0.528-0.26,1.133-0.423,1.815L17.94,8.767z"/>
	<path d="M2.255,24.006c-1.241,0-2.25-1.009-2.25-2.25v-16.5c0-1.241,1.009-2.25,2.25-2.25h7.5c0.414,0,0.75,0.336,0.75,0.75
		s-0.336,0.75-0.75,0.75h-7.5c-0.414,0-0.75,0.336-0.75,0.75v1.5h4.743c0.689,0,1.25,0.561,1.25,1.25v0.327
		c0.117-0.424,0.455-0.775,0.912-0.885l1.71-0.412c0.097-0.023,0.196-0.035,0.294-0.035c0.229,0,0.454,0.064,0.651,0.184
		c0.285,0.174,0.485,0.449,0.563,0.774l1.057,4.394c0.032,0.132,0.041,0.269,0.028,0.403h3.041c0.414,0,0.75,0.336,0.75,0.75v8.25
		c0,1.241-1.009,2.25-2.25,2.25H2.255z M14.255,22.506c0.414,0,0.75-0.336,0.75-0.75v-7.5h-4.883l-0.068,0.016
		c-0.096,0.023-0.195,0.035-0.294,0.035c-0.115,0-0.232-0.017-0.347-0.052H1.505v2.25h1.75c0.501,0,0.946,0.306,1.141,0.75h1.717
		c0.195-0.444,0.641-0.75,1.141-0.75h2c0.689,0,1.25,0.561,1.25,1.25v4.75H14.255z M9.005,22.506v-4.5h-1.5v4.5H9.005z
		 M6.005,22.506v-3.75h-1.5v3.75H6.005z M1.505,21.756c0,0.414,0.336,0.75,0.75,0.75h0.75v-4.5h-1.5V21.756z M8.403,12.756
		L7.498,8.997v3.758H8.403z M5.998,12.756v-4.5H4.505v4.5H5.998z M3.005,12.756v-4.5h-1.5v4.5H3.005z M9.946,12.755l1.224-0.295
		l-0.941-3.907L9.005,8.848L9.946,12.755z"/>
</g>
</svg>
