<?xml version="1.0" encoding="utf-8"?>
<!-- Generator: Adobe Illustrator 22.1.0, SVG Export Plug-In . SVG Version: 6.00 Build 0)  -->
<svg version="1.1" id="Layer_1" xmlns="http://www.w3.org/2000/svg" xmlns:xlink="http://www.w3.org/1999/xlink" x="0px" y="0px"
	 viewBox="0 0 24 24" style="enable-background:new 0 0 24 24;" xml:space="preserve">
<title>library-maths</title>
<g>
	<path d="M17.5,9.251c-0.414,0-0.75-0.336-0.75-0.75s0.336-0.75,0.75-0.75h5.25c0.414,0,0.75,0.336,0.75,0.75s-0.336,0.75-0.75,0.75
		H17.5z"/>
	<path d="M20.124,7.001c-0.014,0-0.037-0.002-0.054-0.004c-0.283-0.014-0.546-0.13-0.742-0.328C19.115,6.457,18.999,6.175,19,5.874
		c0-0.619,0.505-1.124,1.125-1.124c0.046,0,0.093,0.005,0.139,0.013c0.509,0.064,0.915,0.473,0.974,0.982
		c0.007,0.042,0.011,0.086,0.011,0.131c-0.001,0.303-0.118,0.586-0.331,0.798c-0.212,0.211-0.494,0.327-0.792,0.327H20.124z"/>
	<path d="M20.124,12.251c-0.302-0.001-0.585-0.118-0.797-0.331c-0.2-0.201-0.316-0.469-0.325-0.755
		C19.001,11.151,19,11.137,19,11.126c0-0.031,0.003-0.06,0.007-0.089c0.033-0.526,0.447-0.961,0.987-1.024
		c0.043-0.008,0.087-0.012,0.131-0.012s0.088,0.004,0.131,0.012c0.512,0.06,0.921,0.468,0.982,0.98
		c0.008,0.044,0.012,0.088,0.012,0.133c0,0.037-0.004,0.073-0.009,0.107c-0.019,0.25-0.134,0.503-0.322,0.69
		c-0.177,0.176-0.404,0.285-0.658,0.315C20.215,12.247,20.17,12.251,20.124,12.251C20.125,12.251,20.125,12.251,20.124,12.251z"/>
	<path d="M14.5,6.251c-0.251,0-0.485-0.125-0.624-0.334l-1.5-2.25C12.265,3.5,12.225,3.3,12.264,3.104
		c0.039-0.197,0.153-0.366,0.32-0.477C12.707,2.545,12.851,2.501,13,2.501c0.252,0,0.485,0.125,0.625,0.334l0.649,0.974l1.015-3.045
		C15.391,0.457,15.677,0.251,16,0.251h5.25c0.414,0,0.75,0.336,0.75,0.75s-0.336,0.75-0.75,0.75h-4.709l-1.329,3.987
		c-0.089,0.27-0.33,0.468-0.612,0.506C14.566,6.249,14.532,6.251,14.5,6.251z"/>
	<path d="M4,23.501c-0.008,0-0.017,0-0.026-0.001H2.5c-1.241,0-2.25-1.009-2.25-2.25V4.751c0-1.241,1.009-2.25,2.25-2.25H10
		c0.414,0,0.75,0.336,0.75,0.75s-0.336,0.75-0.75,0.75H2.5c-0.414,0-0.75,0.336-0.75,0.75v1.5h2.224C3.983,6.25,3.992,6.25,4,6.25
		h2.493c0.689,0,1.25,0.561,1.25,1.25v0.326C7.774,7.715,7.82,7.608,7.882,7.507c0.174-0.285,0.449-0.485,0.774-0.563l1.71-0.412
		c0.097-0.023,0.196-0.035,0.294-0.035c0.229,0,0.454,0.064,0.651,0.184c0.285,0.174,0.485,0.449,0.563,0.774l1.057,4.394
		c0.032,0.134,0.042,0.269,0.031,0.402H14.5c0.414,0,0.75,0.336,0.75,0.75s-0.336,0.75-0.75,0.75h-4.13l-0.071,0.017
		c-0.096,0.023-0.195,0.035-0.294,0.035c-0.116,0-0.234-0.018-0.35-0.052H1.75v2.25H3.5c0.501,0,0.946,0.306,1.141,0.75h1.717
		c0.195-0.444,0.64-0.75,1.141-0.75h2c0.689,0,1.25,0.561,1.25,1.25V22h3.75c0.414,0,0.75-0.336,0.75-0.75V16
		c0-0.414,0.336-0.75,0.75-0.75s0.75,0.336,0.75,0.75v5.25c0,1.241-1.009,2.25-2.25,2.25h-4.474
		c-0.009,0.001-0.018,0.001-0.026,0.001H4z M9.25,22v-4.499h-1.5V22H9.25z M6.25,22v-3.749h-1.5V22H6.25z M1.75,21.25
		C1.75,21.664,2.086,22,2.5,22h0.75v-4.499h-1.5V21.25z M11.415,11.957l-0.941-3.907L9.25,8.344l0.94,3.907L11.415,11.957z
		 M8.648,12.251L7.743,8.494v3.757H8.648z M3.25,12.251v-4.5h-1.5v4.5H3.25z M6.243,12.25v-4.5H4.75v4.5H6.243z"/>
</g>
</svg>
