<?xml version="1.0" encoding="utf-8"?>
<!-- Generator: Adobe Illustrator 22.1.0, SVG Export Plug-In . SVG Version: 6.00 Build 0)  -->
<svg version="1.1" id="Layer_1" xmlns="http://www.w3.org/2000/svg" xmlns:xlink="http://www.w3.org/1999/xlink" x="0px" y="0px"
	 viewBox="0 0 24 24" style="enable-background:new 0 0 24 24;" xml:space="preserve">
<title>library-music</title>
<g>
	<path d="M17.996,11.672c-0.856,0-1.691-0.182-2.481-0.541c-1.459-0.664-2.573-1.856-3.135-3.357
		c-0.563-1.501-0.507-3.131,0.156-4.59c0.664-1.459,1.855-2.573,3.356-3.135c0.085-0.032,0.174-0.048,0.263-0.048
		c0.311,0,0.593,0.196,0.702,0.487c0.145,0.387-0.052,0.82-0.439,0.965c-1.126,0.422-2.02,1.257-2.518,2.352
		c-0.498,1.094-0.539,2.317-0.117,3.443c0.422,1.126,1.257,2.02,2.352,2.517c0.593,0.27,1.219,0.406,1.861,0.406
		c0.538,0,1.071-0.097,1.582-0.289C21.326,9.228,22.5,7.534,22.5,5.669c0-0.413,0.336-0.75,0.75-0.75S24,5.255,24,5.669
		c0,2.487-1.566,4.745-3.895,5.618C19.424,11.542,18.715,11.672,17.996,11.672L17.996,11.672z"/>
	<path d="M18,8.669c-1.241,0-2.25-1.009-2.25-2.25s1.009-2.25,2.25-2.25c0.259,0,0.511,0.044,0.75,0.129V1.169
		c0-0.277,0.152-0.53,0.396-0.661c0.109-0.058,0.231-0.089,0.354-0.089c0.149,0,0.293,0.044,0.416,0.126l2.25,1.5
		c0.167,0.111,0.28,0.28,0.32,0.477c0.039,0.196,0,0.396-0.112,0.563c-0.14,0.209-0.373,0.334-0.624,0.334
		c-0.148,0-0.292-0.044-0.416-0.126L20.25,2.57v3.849C20.25,7.66,19.241,8.669,18,8.669z M18,5.669c-0.414,0-0.75,0.336-0.75,0.75
		s0.336,0.75,0.75,0.75s0.75-0.336,0.75-0.75S18.414,5.669,18,5.669z"/>
	<path d="M3.75,24.001c-0.008,0-0.017,0-0.026-0.001H2.25C1.009,24,0,22.991,0,21.75V5.251c0-1.241,1.009-2.25,2.25-2.25h7.5
		c0.414,0,0.75,0.336,0.75,0.75s-0.336,0.75-0.75,0.75h-7.5c-0.414,0-0.75,0.336-0.75,0.75v1.5h2.224
		C3.733,6.75,3.742,6.75,3.75,6.75h2.493c0.689,0,1.25,0.561,1.25,1.25v0.326C7.524,8.216,7.57,8.108,7.632,8.008
		c0.174-0.285,0.449-0.485,0.773-0.563l1.71-0.412c0.097-0.023,0.196-0.035,0.294-0.035c0.229,0,0.454,0.064,0.651,0.184
		c0.285,0.174,0.485,0.449,0.563,0.774l1.057,4.394c0.032,0.133,0.042,0.269,0.031,0.401h3.012c0.009-0.001,0.018-0.001,0.026-0.001
		c0.414,0,0.75,0.336,0.75,0.75v8.25c0,1.241-1.009,2.25-2.25,2.25H9.776c-0.009,0.001-0.018,0.001-0.026,0.001H3.75z M14.25,22.5
		c0.414,0,0.75-0.336,0.75-0.75v-7.499h-4.877l-0.074,0.018c-0.095,0.023-0.193,0.035-0.292,0.035c-0.12,0-0.24-0.018-0.356-0.053
		H1.5v2.25h1.75c0.501,0,0.946,0.306,1.141,0.75h1.717c0.195-0.444,0.64-0.75,1.141-0.75h2c0.689,0,1.25,0.561,1.25,1.25V22.5H14.25
		z M9,22.5v-4.499H7.5V22.5H9z M6,22.5v-3.749H4.5V22.5H6z M1.5,21.75c0,0.414,0.336,0.75,0.75,0.75H3v-4.499H1.5V21.75z
		 M9.945,12.751l1.22-0.294L10.224,8.55L9,8.845l0.94,3.906H9.945z M8.397,12.751L7.493,8.995v3.756H8.397z M3,12.751v-4.5H1.5v4.5
		H3z M5.993,12.75v-4.5H4.5v4.5H5.993z"/>
</g>
</svg>
