<?xml version="1.0" encoding="utf-8"?>
<!-- Generator: Adobe Illustrator 22.1.0, SVG Export Plug-In . SVG Version: 6.00 Build 0)  -->
<svg version="1.1" id="Layer_1" xmlns="http://www.w3.org/2000/svg" xmlns:xlink="http://www.w3.org/1999/xlink" x="0px" y="0px"
	 viewBox="0 0 24 24" style="enable-background:new 0 0 24 24;" xml:space="preserve">
<title>lift-1</title>
<g>
	<path d="M1.75,24C0.785,24,0,23.215,0,22.25V1.75C0,0.785,0.785,0,1.75,0h20.5C23.215,0,24,0.785,24,1.75v20.5
		c0,0.965-0.785,1.75-1.75,1.75H1.75z M22.25,22.5c0.138,0,0.25-0.112,0.25-0.25V1.75c0-0.138-0.112-0.25-0.25-0.25H1.75
		C1.612,1.5,1.5,1.612,1.5,1.75v20.5c0,0.138,0.112,0.25,0.25,0.25h2v-12c0-0.827,0.673-1.5,1.5-1.5h10.5c0.827,0,1.5,0.673,1.5,1.5
		v12H22.25z M15.75,22.5v-12h-4.5v12H15.75z M9.75,22.5v-12h-4.5l0,12H9.75z"/>
	<circle cx="19.875" cy="13.875" r="1.125"/>
	<circle cx="19.875" cy="17.625" r="1.125"/>
	<path d="M7.5,6.75C7.086,6.75,6.75,6.414,6.75,6S7.086,5.25,7.5,5.25h6c0.414,0,0.75,0.336,0.75,0.75s-0.336,0.75-0.75,0.75H7.5z"
		/>
</g>
</svg>
