<?xml version="1.0" encoding="utf-8"?>
<!-- Generator: Adobe Illustrator 22.1.0, SVG Export Plug-In . SVG Version: 6.00 Build 0)  -->
<svg version="1.1" id="Regular" xmlns="http://www.w3.org/2000/svg" xmlns:xlink="http://www.w3.org/1999/xlink" x="0px" y="0px"
	 viewBox="0 0 24 24" style="enable-background:new 0 0 24 24;" xml:space="preserve">
<title>lighter</title>
<g>
	<path d="M9.75,24c-1.241,0-2.25-1.009-2.25-2.25V15H3.75c-1.241,0-2.25-1.009-2.25-2.25V2.25C1.5,1.009,2.509,0,3.75,0h4.5
		C8.664,0,9,0.336,9,0.75V13.5h3v-2.25c0-0.414,0.336-0.75,0.75-0.75h0.145c-0.622-0.739-0.966-1.669-0.966-2.66
		c-0.093-1.416,0.673-2.799,1.954-3.498c0.11-0.06,0.234-0.092,0.359-0.092c0.115,0,0.231,0.027,0.335,0.079
		c0.219,0.109,0.371,0.319,0.407,0.561c0.024,0.164,0.117,0.306,0.248,0.396c0.357-0.993,0.165-2.113-0.522-2.933
		c-0.21-0.251-0.234-0.606-0.059-0.883c0.138-0.219,0.375-0.349,0.634-0.349c0.064,0,0.128,0.008,0.191,0.025
		c3.024,0.791,5.032,3.628,4.774,6.744c-0.017,1.023-0.405,1.989-1.086,2.735c0.203,0.134,0.337,0.365,0.337,0.626v2.25h2.25
		c0.414,0,0.75,0.336,0.75,0.75v7.5c0,1.241-1.009,2.25-2.25,2.25H9.75z M9,21.75c0,0.414,0.336,0.75,0.75,0.75h10.5
		c0.414,0,0.75-0.336,0.75-0.75V15L9,21.75z M18,13.5V12h-4.5v1.5H18z M3.75,1.5C3.336,1.5,3,1.836,3,2.25v10.5
		c0,0.414,0.336,0.75,0.75,0.75H7.5v-12H3.75z M13.98,6.159c-0.389,0.447-0.592,1.033-0.553,1.633
		c0.002,1.504,1.196,2.708,2.663,2.708c1.469-0.02,2.64-1.193,2.66-2.67c0.001-0.024,0.002-0.043,0.004-0.063
		c0.146-1.714-0.594-3.331-1.928-4.334c0.198,1.044,0.024,2.14-0.512,3.074c-0.123,0.215-0.344,0.355-0.592,0.375
		c-0.054,0.004-0.108,0.006-0.162,0.006C14.952,6.888,14.372,6.612,13.98,6.159z"/>
</g>
</svg>
