<?xml version="1.0" encoding="utf-8"?>
<!-- Generator: Adobe Illustrator 22.1.0, SVG Export Plug-In . SVG Version: 6.00 Build 0)  -->
<svg version="1.1" id="Regular" xmlns="http://www.w3.org/2000/svg" xmlns:xlink="http://www.w3.org/1999/xlink" x="0px" y="0px"
	 viewBox="0 0 24 24" style="enable-background:new 0 0 24 24;" xml:space="preserve">
<title>lion-1</title>
<g>
	<path d="M9.76,18.745c-1.654,0-3-1.346-3-3V8.994c0-1.989,1.093-2.738,1.745-3.008c0.361-0.15,0.76-0.225,1.186-0.225
		c0.803,0,1.633,0.273,2.32,0.757c0.687-0.484,1.517-0.757,2.32-0.757c0.426,0,0.825,0.076,1.186,0.226
		c0.651,0.27,1.744,1.019,1.744,3.008v6.75c0,1.654-1.346,3-3,3c-0.863,0-1.685-0.38-2.25-1.018
		C11.445,18.364,10.623,18.745,9.76,18.745z M9.689,7.26c-0.226,0-0.432,0.038-0.611,0.112C8.535,7.597,8.26,8.143,8.26,8.994v6.751
		c0,0.827,0.673,1.5,1.5,1.5s1.5-0.673,1.5-1.5v-0.75c-0.414,0-0.75-0.336-0.75-0.75s0.336-0.75,0.75-0.75h1.5
		c0.414,0,0.75,0.336,0.75,0.75s-0.336,0.75-0.75,0.75v0.749c0,0.827,0.673,1.5,1.5,1.5s1.5-0.673,1.5-1.5v-6.75
		c0-0.851-0.275-1.397-0.819-1.622c-0.178-0.074-0.384-0.111-0.61-0.111c-0.633,0-1.319,0.293-1.791,0.764
		c-0.142,0.142-0.33,0.22-0.53,0.22s-0.389-0.078-0.53-0.22C11.008,7.553,10.322,7.26,9.689,7.26z"/>
	<path d="M10.135,12.745c-0.046,0-0.093-0.004-0.139-0.013c-0.507-0.064-0.913-0.471-0.974-0.979
		C9.014,11.709,9.01,11.664,9.01,11.62c0-0.045,0.004-0.09,0.012-0.134c0.062-0.511,0.47-0.92,0.982-0.98
		c0.043-0.008,0.087-0.012,0.131-0.012s0.088,0.004,0.131,0.012c0.513,0.06,0.922,0.47,0.982,0.982
		c0.008,0.043,0.012,0.087,0.012,0.131s-0.004,0.088-0.011,0.131C11.182,12.319,10.706,12.745,10.135,12.745z"/>
	<path d="M13.885,12.745c-0.046,0-0.093-0.004-0.139-0.013c-0.507-0.064-0.913-0.471-0.974-0.979
		c-0.008-0.044-0.012-0.088-0.012-0.132c0-0.045,0.004-0.09,0.012-0.133c0.062-0.512,0.47-0.92,0.982-0.98
		c0.043-0.008,0.087-0.012,0.131-0.012s0.088,0.004,0.131,0.012c0.513,0.06,0.922,0.47,0.982,0.983
		c0.008,0.042,0.011,0.086,0.011,0.131c0,0.045-0.004,0.088-0.011,0.13C14.932,12.319,14.456,12.745,13.885,12.745z"/>
	<path d="M12.01,23.994c-1.475,0-11.25-2.237-11.25-12c0-3.6,1.166-8.593,4.451-10.817c1.085-0.735,2.31-1.107,3.638-1.107
		c0.991,0,2.054,0.209,3.161,0.621c1.107-0.412,2.17-0.621,3.161-0.621c1.329,0,2.553,0.373,3.638,1.108
		c3.285,2.224,4.451,7.217,4.451,10.817C23.26,21.757,13.485,23.994,12.01,23.994z M8.856,1.573c-1.032,0-1.975,0.285-2.805,0.846
		C4.302,3.603,2.26,6.821,2.26,11.994c0,8.415,8.535,10.5,9.75,10.5s9.75-2.085,9.75-10.5c0-5.173-2.043-8.391-3.792-9.575
		c-0.829-0.561-1.773-0.846-2.805-0.846c-0.884,0-1.851,0.208-2.875,0.617C12.2,2.226,12.106,2.244,12.01,2.244
		s-0.19-0.018-0.279-0.054C10.707,1.781,9.74,1.573,8.856,1.573z"/>
</g>
</svg>
