<?xml version="1.0" encoding="utf-8"?>
<!-- Generator: Adobe Illustrator 22.1.0, SVG Export Plug-In . SVG Version: 6.00 Build 0)  -->
<svg version="1.1" id="Regular" xmlns="http://www.w3.org/2000/svg" xmlns:xlink="http://www.w3.org/1999/xlink" x="0px" y="0px"
	 viewBox="0 0 24 24" style="enable-background:new 0 0 24 24;" xml:space="preserve">
<title>lion-footprint</title>
<g>
	<path d="M20.386,24.013c-0.057,0-0.114-0.002-0.171-0.007c-0.726-0.008-1.224-0.258-1.624-0.46c-0.346-0.174-0.596-0.3-0.984-0.3
		c-0.388,0-0.637,0.125-0.982,0.299c-0.401,0.202-0.899,0.453-1.627,0.46c-0.056,0.004-0.112,0.007-0.168,0.007
		c-0.068,0-0.136-0.003-0.204-0.01c-0.567-0.055-1.079-0.328-1.441-0.768c-0.354-0.429-0.524-0.97-0.479-1.524
		c0.016-1.337,0.967-1.897,1.536-2.233c0.128-0.075,0.335-0.198,0.398-0.264c0.37-1.107,0.936-2.75,2.968-2.75
		c2.034,0,2.598,1.643,2.967,2.749c0.063,0.066,0.271,0.189,0.399,0.264c0.57,0.335,1.521,0.896,1.537,2.234
		c0.01,0.125,0.009,0.25-0.003,0.374c-0.055,0.567-0.328,1.079-0.768,1.441C21.358,23.84,20.877,24.013,20.386,24.013z
		 M17.607,21.746c0.744,0,1.25,0.255,1.657,0.46c0.347,0.175,0.597,0.3,0.985,0.3c0.025,0,0.05,0.001,0.074,0.004
		c0.021,0.002,0.042,0.003,0.063,0.003c0.146,0,0.283-0.05,0.398-0.145c0.13-0.107,0.211-0.259,0.228-0.427
		c0.004-0.041,0.004-0.082,0-0.122c-0.002-0.023-0.003-0.048-0.003-0.073c0-0.484-0.259-0.658-0.798-0.976
		c-0.409-0.241-0.871-0.513-1.051-1.053c-0.424-1.272-0.667-1.752-1.553-1.752c-0.886,0-1.13,0.48-1.555,1.752
		c-0.179,0.541-0.662,0.825-1.051,1.053c-0.539,0.317-0.798,0.492-0.798,0.976c0,0.025-0.001,0.05-0.004,0.074
		c-0.016,0.166,0.034,0.33,0.142,0.461s0.26,0.212,0.427,0.228c0.021,0.002,0.041,0.003,0.061,0.003
		c0.021,0,0.041-0.001,0.061-0.003c0.023-0.002,0.048-0.003,0.072-0.003c0.39,0,0.64-0.126,0.986-0.3
		C16.356,22.001,16.862,21.746,17.607,21.746z"/>
	<path d="M15.385,15.746c-0.044,0-0.088-0.004-0.13-0.011c-0.513-0.06-0.923-0.47-0.983-0.983c-0.007-0.042-0.011-0.086-0.011-0.13
		s0.004-0.088,0.011-0.131c0.06-0.513,0.47-0.923,0.983-0.983c0.042-0.008,0.086-0.011,0.131-0.011s0.088,0.004,0.131,0.011
		c0.513,0.06,0.923,0.47,0.983,0.983c0.008,0.042,0.011,0.086,0.011,0.131s-0.004,0.088-0.011,0.131
		c-0.06,0.513-0.47,0.923-0.983,0.983C15.473,15.742,15.429,15.746,15.385,15.746z"/>
	<path d="M12.385,18.746c-0.044,0-0.088-0.004-0.13-0.011c-0.513-0.06-0.923-0.47-0.983-0.982c-0.008-0.043-0.011-0.087-0.011-0.131
		s0.004-0.088,0.011-0.131c0.06-0.513,0.47-0.922,0.983-0.983c0.042-0.007,0.086-0.011,0.13-0.011s0.088,0.004,0.131,0.011
		c0.513,0.06,0.923,0.47,0.983,0.983c0.008,0.042,0.011,0.086,0.011,0.131s-0.004,0.088-0.011,0.131
		c-0.06,0.513-0.47,0.923-0.983,0.983C12.473,18.742,12.429,18.746,12.385,18.746z"/>
	<path d="M22.885,18.746c-0.044,0-0.088-0.004-0.13-0.011c-0.513-0.06-0.923-0.47-0.983-0.983c-0.007-0.042-0.011-0.086-0.011-0.13
		s0.004-0.088,0.011-0.131c0.06-0.513,0.47-0.923,0.983-0.983c0.042-0.008,0.086-0.011,0.131-0.011s0.088,0.004,0.131,0.011
		c0.513,0.06,0.923,0.47,0.983,0.983c0.008,0.042,0.011,0.086,0.011,0.131s-0.004,0.088-0.011,0.131
		c-0.06,0.513-0.47,0.923-0.983,0.983C22.973,18.742,22.929,18.746,22.885,18.746z"/>
	<path d="M19.885,15.746c-0.044,0-0.088-0.004-0.13-0.011c-0.513-0.06-0.923-0.47-0.983-0.983c-0.007-0.042-0.011-0.086-0.011-0.13
		s0.004-0.088,0.011-0.131c0.06-0.513,0.47-0.923,0.983-0.983c0.042-0.008,0.086-0.011,0.131-0.011s0.088,0.004,0.131,0.011
		c0.513,0.06,0.923,0.47,0.983,0.983c0.008,0.042,0.011,0.086,0.011,0.131s-0.004,0.088-0.011,0.131
		c-0.06,0.513-0.47,0.923-0.983,0.983C19.973,15.742,19.929,15.746,19.885,15.746z"/>
	<path d="M8.26,16.092c-2.054,0-8.25-2.926-8.25-8.25c0-2.815,1.22-5.421,3.185-6.802C4.154,0.366,5.27,0.01,6.421,0.01
		c0.609,0,1.227,0.098,1.839,0.291C8.872,0.108,9.49,0.01,10.099,0.01c1.151,0,2.267,0.356,3.226,1.031
		c1.965,1.381,3.185,3.987,3.185,6.802C16.51,13.166,10.313,16.092,8.26,16.092z M6.411,1.505c-0.841,0-1.633,0.257-2.353,0.763
		C2.486,3.372,1.51,5.508,1.51,7.842c0,4.484,5.61,6.75,6.75,6.75s6.75-2.266,6.75-6.75c0-2.334-0.976-4.47-2.547-5.574
		c-0.72-0.506-1.512-0.763-2.353-0.763c-0.518,0-1.055,0.099-1.595,0.293C8.432,1.827,8.347,1.842,8.26,1.842
		S8.087,1.827,8.006,1.798C7.465,1.603,6.928,1.505,6.411,1.505z"/>
	<path d="M8.466,13.1c-0.068,0-0.137-0.002-0.206-0.006C8.191,13.098,8.124,13.1,8.056,13.1c-1.274,0-2.448-0.726-3.021-1.859
		C3.792,10.377,3.037,8.966,3.01,7.447c0-0.019,0-0.036,0.001-0.054C3.145,4.7,5.362,2.588,8.059,2.588
		c0.067,0,0.134,0.001,0.201,0.004c0.063-0.002,0.126-0.004,0.189-0.004c2.703,0,4.926,2.112,5.06,4.808
		C13.51,7.408,13.51,7.424,13.51,7.44c-0.026,1.527-0.781,2.94-2.026,3.806C10.911,12.376,9.737,13.1,8.466,13.1z M8.317,11.594
		C8.369,11.598,8.418,11.6,8.468,11.6c0.758,0,1.439-0.453,1.735-1.155c0.06-0.143,0.162-0.262,0.293-0.344
		c0.922-0.577,1.487-1.569,1.514-2.656c-0.107-1.884-1.665-3.358-3.552-3.358c-0.054,0-0.109,0.001-0.163,0.004
		c-0.006,0-0.028,0.001-0.034,0.001L8.223,4.091C8.169,4.089,8.114,4.088,8.059,4.088c-1.886,0-3.442,1.474-3.549,3.357
		c0.028,1.085,0.593,2.076,1.514,2.652c0.132,0.083,0.234,0.202,0.294,0.346C6.613,11.146,7.294,11.6,8.054,11.6
		c0.049,0,0.098-0.002,0.148-0.006c0.02-0.001,0.039-0.002,0.058-0.002C8.279,11.592,8.298,11.593,8.317,11.594z"/>
	<path d="M6.385,8.592c-0.044,0-0.088-0.004-0.131-0.012c-0.513-0.06-0.922-0.47-0.982-0.982C5.264,7.555,5.26,7.511,5.26,7.467
		s0.004-0.088,0.012-0.131c0.06-0.513,0.47-0.922,0.982-0.982c0.043-0.008,0.087-0.012,0.131-0.012s0.088,0.004,0.131,0.012
		c0.513,0.06,0.922,0.47,0.982,0.982C7.506,7.379,7.51,7.423,7.51,7.467S7.506,7.555,7.498,7.598
		c-0.06,0.513-0.47,0.922-0.982,0.982C6.473,8.588,6.429,8.592,6.385,8.592z"/>
	<path d="M10.135,8.592c-0.044,0-0.088-0.004-0.131-0.012c-0.513-0.06-0.922-0.47-0.982-0.982C9.014,7.555,9.01,7.511,9.01,7.467
		s0.004-0.088,0.012-0.131c0.06-0.513,0.47-0.922,0.982-0.982c0.043-0.008,0.087-0.012,0.131-0.012s0.088,0.004,0.131,0.012
		c0.513,0.06,0.922,0.47,0.982,0.982c0.008,0.043,0.012,0.087,0.012,0.131s-0.004,0.088-0.012,0.131
		c-0.06,0.513-0.47,0.922-0.982,0.982C10.223,8.588,10.179,8.592,10.135,8.592z"/>
</g>
</svg>
