<?xml version="1.0" encoding="utf-8"?>
<!-- Generator: Adobe Illustrator 22.1.0, SVG Export Plug-In . SVG Version: 6.00 Build 0)  -->
<svg version="1.1" id="Layer_1" xmlns="http://www.w3.org/2000/svg" xmlns:xlink="http://www.w3.org/1999/xlink" x="0px" y="0px"
	 viewBox="0 0 24 24" style="enable-background:new 0 0 24 24;" xml:space="preserve">
<title>list-to-do</title>
<g>
	<path d="M3.75,24.011c-1.241,0-2.25-1.009-2.25-2.25v-19.5c0-1.241,1.009-2.25,2.25-2.25h10.629c0.6,0,1.165,0.234,1.59,0.658
		l5.872,5.872c0.425,0.425,0.659,0.99,0.659,1.59v13.629c0,1.241-1.009,2.25-2.25,2.25H3.75z M3.75,1.511
		C3.336,1.511,3,1.847,3,2.261v19.5c0,0.414,0.336,0.75,0.75,0.75h16.5c0.414,0,0.75-0.336,0.75-0.75V9.011h-5.25
		c-1.241,0-2.25-1.009-2.25-2.25v-5.25H3.75z M15,6.761c0,0.414,0.336,0.75,0.75,0.75h4.939L15,1.822V6.761z"/>
	<path d="M6.935,13.511c-0.326,0-0.636-0.104-0.898-0.301c-0.055-0.042-0.109-0.088-0.158-0.137L4.72,11.915
		c-0.142-0.141-0.22-0.33-0.22-0.53c0-0.2,0.078-0.389,0.219-0.53c0.141-0.142,0.33-0.22,0.531-0.22c0.2,0,0.389,0.078,0.53,0.22
		l1.157,1.156l2.132-2.841c0.141-0.188,0.365-0.3,0.6-0.3c0.164,0,0.319,0.052,0.45,0.151c0.16,0.12,0.264,0.295,0.292,0.494
		c0.028,0.198-0.022,0.396-0.143,0.556l-2.132,2.842c-0.24,0.32-0.591,0.528-0.988,0.585C7.077,13.506,7.006,13.511,6.935,13.511z"
		/>
	<path d="M6.935,20.261c-0.326,0-0.636-0.104-0.898-0.301c-0.056-0.042-0.109-0.088-0.158-0.137L4.72,18.664
		c-0.142-0.142-0.22-0.33-0.22-0.53s0.078-0.389,0.22-0.53c0.142-0.142,0.33-0.22,0.53-0.22s0.389,0.078,0.53,0.22l1.157,1.157
		l2.132-2.842c0.141-0.188,0.365-0.3,0.6-0.3c0.163,0,0.319,0.052,0.449,0.15c0.331,0.248,0.398,0.719,0.15,1.05l-2.132,2.842
		c-0.24,0.32-0.591,0.528-0.988,0.585C7.077,20.256,7.005,20.261,6.935,20.261z"/>
	<path d="M12.75,13.511c-0.414,0-0.75-0.336-0.75-0.75s0.336-0.75,0.75-0.75h4.5c0.414,0,0.75,0.336,0.75,0.75
		s-0.336,0.75-0.75,0.75H12.75z"/>
	<path d="M12.75,19.511c-0.414,0-0.75-0.336-0.75-0.75s0.336-0.75,0.75-0.75h4.5c0.414,0,0.75,0.336,0.75,0.75
		s-0.336,0.75-0.75,0.75H12.75z"/>
</g>
</svg>
