<?xml version="1.0" encoding="utf-8"?>
<!-- Generator: Adobe Illustrator 22.1.0, SVG Export Plug-In . SVG Version: 6.00 Build 0)  -->
<svg version="1.1" id="Regular" xmlns="http://www.w3.org/2000/svg" xmlns:xlink="http://www.w3.org/1999/xlink" x="0px" y="0px"
	 viewBox="0 0 24 24" style="enable-background:new 0 0 24 24;" xml:space="preserve">
<title>livestock-bull-footstep</title>
<g>
	<path d="M7.445,16.379c-1.189,0-2.219-0.845-2.452-2.01l-0.327-1.634c-0.146-0.596-0.448-1.172-0.871-1.65
		c-0.015-0.017-0.027-0.032-0.039-0.048C3.184,10.274,2.818,9.38,2.689,8.439C2.066,8.318,1.499,8.024,1.033,7.577
		C0.392,6.963,0.029,6.137,0.01,5.25C0.01,5.218,0.009,5.186,0.01,5.154c-0.185-2.151,1.407-4.066,3.558-4.276
		C3.694,0.866,3.822,0.86,3.949,0.86c0.093,0,0.185,0.003,0.278,0.01c0.807-0.143,1.585-0.407,2.312-0.785
		C6.646,0.029,6.766,0,6.885,0c0.107,0,0.211,0.022,0.308,0.066c0.21,0.095,0.363,0.278,0.419,0.502
		c0.209,0.834,0.276,2.052-0.1,3.128c0.347,0.12,0.717,0.182,1.096,0.182c0.387,0,0.777-0.068,1.144-0.198
		C9.382,2.608,9.45,1.397,9.658,0.568c0.056-0.224,0.209-0.407,0.419-0.502C10.175,0.022,10.278,0,10.385,0
		c0.12,0,0.239,0.029,0.346,0.084c0.728,0.378,1.505,0.642,2.312,0.786c0.092-0.007,0.185-0.01,0.277-0.01
		c0.127,0,0.256,0.006,0.383,0.019c2.151,0.209,3.743,2.125,3.558,4.276c0,0.031,0,0.062,0,0.093
		c-0.033,1.573-1.165,2.894-2.679,3.191c-0.129,0.942-0.496,1.836-1.068,2.599c-0.012,0.016-0.025,0.032-0.039,0.048
		c-0.423,0.478-0.726,1.059-0.877,1.679l-0.32,1.604c-0.233,1.165-1.264,2.01-2.451,2.01H7.445z M4.941,10.116
		c0.573,0.656,0.984,1.449,1.19,2.295l0.333,1.664c0.093,0.466,0.505,0.804,0.98,0.804h2.381c0.475,0,0.887-0.338,0.981-0.804
		l0.327-1.634c0.211-0.871,0.624-1.669,1.197-2.325c0.512-0.694,0.791-1.516,0.806-2.379c0.001-0.041,0.005-0.078,0.012-0.115
		c0.002-0.017,0.006-0.036,0.01-0.051C13.229,7.247,13.536,7,13.885,7c0.004,0,0.04,0,0.04,0c0.999,0,1.815-0.799,1.835-1.782
		c0.001-0.026,0.001-0.052,0-0.077c0-0.032,0.001-0.061,0.004-0.09c0.063-0.65-0.132-1.288-0.549-1.795s-1.006-0.821-1.657-0.884
		C13.479,2.364,13.399,2.36,13.32,2.36s-0.158,0.004-0.237,0.012c-0.028,0.002-0.051,0.003-0.074,0.003
		c-0.041,0-0.082-0.003-0.122-0.01c-0.649-0.107-1.284-0.281-1.896-0.519c-0.043,0.935,0.156,2.159,1.38,2.567
		c0.19,0.063,0.344,0.197,0.434,0.376c0.09,0.179,0.104,0.382,0.041,0.573c-0.102,0.307-0.388,0.513-0.711,0.513
		c-0.081,0-0.161-0.013-0.239-0.039c-0.535-0.178-0.992-0.463-1.361-0.846C9.932,5.246,9.276,5.38,8.621,5.38
		c-0.656,0-1.293-0.128-1.896-0.381c-0.367,0.379-0.822,0.66-1.354,0.837C5.296,5.862,5.216,5.875,5.135,5.875
		c-0.323,0-0.609-0.206-0.711-0.513C4.36,5.172,4.375,4.969,4.464,4.79s0.244-0.313,0.434-0.376c1.207-0.402,1.41-1.627,1.373-2.564
		C5.662,2.085,5.029,2.258,4.383,2.365C4.34,2.372,4.3,2.375,4.259,2.375c-0.023,0-0.046-0.001-0.069-0.003
		C4.109,2.364,4.029,2.36,3.95,2.36S3.792,2.364,3.713,2.371C2.365,2.502,1.376,3.705,1.507,5.052
		C1.51,5.083,1.511,5.113,1.51,5.142c0,0.024,0,0.051,0,0.077c0.01,0.485,0.209,0.938,0.561,1.275C2.416,6.825,2.858,7,3.35,7
		C3.35,7,3.385,7,3.385,7c0.017,0,0.047,0.002,0.064,0.005c0.209,0.009,0.42,0.126,0.553,0.319c0.009,0.013,0.022,0.035,0.029,0.048
		c0.011,0.017,0.027,0.045,0.04,0.075C4.082,7.472,4.091,7.499,4.1,7.527c0.006,0.017,0.012,0.036,0.017,0.057
		C4.125,7.62,4.13,7.657,4.132,7.695c0,0.001,0,0.002,0,0.003c0.002,0.015,0.003,0.031,0.003,0.046
		C4.15,8.6,4.428,9.422,4.941,10.116z"/>
	<path d="M14.83,24c-1.492,0-3.27-0.95-3.27-5.475c0-3.495,3.826-6.269,3.989-6.385c0.128-0.091,0.279-0.14,0.436-0.14
		c0.092,0,0.182,0.017,0.267,0.049c0.236,0.09,0.409,0.291,0.464,0.536c0.359,1.602,0.542,3.247,0.543,4.889
		C17.26,20.533,17.26,24,14.83,24z M15.491,14.148c-0.983,0.925-2.431,2.592-2.431,4.377c0,2.675,0.579,3.975,1.77,3.975
		c0.93,0,0.93-3.269,0.93-5.025C15.76,16.365,15.669,15.248,15.491,14.148z"/>
	<path d="M20.74,24c-2.43,0-2.43-3.467-2.43-6.525c0.001-1.643,0.184-3.288,0.543-4.889c0.055-0.246,0.229-0.447,0.464-0.536
		C19.404,12.017,19.493,12,19.585,12c0.157,0,0.308,0.048,0.436,0.139c0.163,0.117,3.99,2.891,3.99,6.386
		C24.01,21.023,23.443,24,20.74,24z M20.079,14.148c-0.178,1.1-0.268,2.217-0.269,3.328c0,1.756,0,5.024,0.93,5.024
		c1.191,0,1.77-1.3,1.77-3.975C22.51,16.74,21.062,15.073,20.079,14.148z"/>
</g>
</svg>
