<?xml version="1.0" encoding="utf-8"?>
<!-- Generator: Adobe Illustrator 22.1.0, SVG Export Plug-In . SVG Version: 6.00 Build 0)  -->
<svg version="1.1" id="Regular" xmlns="http://www.w3.org/2000/svg" xmlns:xlink="http://www.w3.org/1999/xlink" x="0px" y="0px"
	 viewBox="0 0 24 24" style="enable-background:new 0 0 24 24;" xml:space="preserve">
<title>livestock-ram-2</title>
<g>
	<path d="M11.949,23.997c-3.642-0.029-6.208-3.203-7.083-8.735c-0.392,0.127-0.77,0.191-1.128,0.191
		c-0.393,0-0.769-0.077-1.116-0.229c-1.384-0.604-1.793-2.186-1.81-2.252c-0.081-0.323,0.057-0.654,0.341-0.825l3.399-2.04
		C4.629,9.461,4.871,8.841,5.274,8.26l0.012-0.067C5.289,8.081,5.273,7.04,3.904,4.987C3.047,3.695,2.069,2.473,0.998,1.354
		c-0.196-0.205-0.26-0.499-0.166-0.766C0.926,0.319,1.159,0.13,1.44,0.092C1.901,0.03,2.371-0.002,2.836-0.002
		c1.469,0,2.895,0.302,4.238,0.898c1.834,0.945,3.265,2.557,3.981,4.461C11.372,5.329,11.689,5.315,12,5.315
		c0.312,0,0.629,0.014,0.947,0.043c0.72-1.906,2.142-3.515,3.94-4.442c1.376-0.612,2.809-0.917,4.281-0.917
		c0.464,0,0.932,0.031,1.393,0.093c0.281,0.038,0.514,0.228,0.608,0.496c0.094,0.267,0.03,0.561-0.166,0.766
		c-1.072,1.12-2.049,2.342-2.905,3.633c-1.379,2.068-1.385,3.109-1.382,3.215l0.011,0.059c0.403,0.581,0.645,1.201,0.721,1.848
		l3.399,2.04c0.285,0.171,0.422,0.503,0.342,0.825c-0.017,0.067-0.426,1.648-1.81,2.252c-0.347,0.152-0.722,0.229-1.116,0.229
		c-0.358,0-0.735-0.064-1.128-0.191c-0.875,5.531-3.44,8.705-7.083,8.735C12.039,23.999,12.02,24,12,24
		C11.988,24,11.967,23.999,11.949,23.997z M12.75,22.435c3.28-0.566,5.224-4.958,5.224-11.887c0-0.522-0.175-1.03-0.521-1.51
		c-0.024-0.027-0.051-0.061-0.076-0.102C16.374,7.647,14.266,6.815,12,6.815c-2.266,0-4.373,0.832-5.377,2.122
		C6.598,8.978,6.571,9.011,6.547,9.038c-0.345,0.479-0.521,0.987-0.521,1.51c0,6.929,1.944,11.321,5.224,11.887v-1.553
		c-0.882-0.313-1.494-1.159-1.494-2.115c0-0.414,0.336-0.75,0.75-0.75s0.75,0.336,0.75,0.75c0,0.41,0.334,0.744,0.744,0.744
		c0.41,0,0.744-0.334,0.744-0.744c0-0.414,0.336-0.75,0.75-0.75s0.75,0.336,0.75,0.75c0,0.956-0.612,1.802-1.494,2.115V22.435z
		 M2.477,13.103c0.152,0.276,0.393,0.595,0.75,0.749c0.152,0.066,0.323,0.099,0.509,0.099c0.277,0,0.592-0.073,0.939-0.219
		c-0.059-0.604-0.1-1.231-0.124-1.874L2.477,13.103z M19.326,13.732c0.347,0.145,0.662,0.219,0.939,0.219
		c0.185,0,0.356-0.033,0.508-0.099c0.356-0.155,0.598-0.473,0.75-0.749l-2.073-1.244C19.426,12.501,19.385,13.128,19.326,13.732z
		 M14.46,5.606c1.124,0.274,2.15,0.739,2.971,1.344c0.209-0.669,0.62-1.599,1.417-2.795c0.609-0.918,1.28-1.807,1.999-2.652
		c-1.146,0.04-2.258,0.296-3.312,0.764C16.18,2.968,15.072,4.173,14.46,5.606z M3.154,1.504c0.719,0.844,1.389,1.734,1.999,2.653
		C5.95,5.352,6.361,6.281,6.57,6.95C7.39,6.345,8.417,5.88,9.542,5.606C8.931,4.174,7.814,2.965,6.426,2.249
		C5.418,1.802,4.287,1.544,3.154,1.504z"/>
	<path d="M8.638,14.288c-0.044,0-0.088-0.004-0.13-0.011c-0.513-0.06-0.923-0.47-0.983-0.982c-0.008-0.043-0.011-0.087-0.011-0.131
		s0.004-0.088,0.011-0.131c0.06-0.513,0.47-0.922,0.983-0.983c0.042-0.007,0.086-0.011,0.13-0.011s0.088,0.004,0.13,0.011
		c0.513,0.06,0.923,0.47,0.983,0.983c0.008,0.043,0.011,0.087,0.011,0.131s-0.004,0.088-0.011,0.131
		c-0.06,0.513-0.47,0.922-0.983,0.982C8.726,14.284,8.682,14.288,8.638,14.288z"/>
	<path d="M15.362,14.288c-0.044,0-0.088-0.004-0.131-0.011c-0.513-0.06-0.923-0.47-0.983-0.983
		c-0.008-0.042-0.011-0.086-0.011-0.131s0.004-0.088,0.011-0.131c0.06-0.513,0.47-0.923,0.983-0.983
		c0.042-0.007,0.086-0.011,0.131-0.011s0.088,0.004,0.131,0.011c0.513,0.06,0.923,0.47,0.983,0.983
		c0.008,0.042,0.011,0.086,0.011,0.131s-0.004,0.088-0.011,0.131c-0.06,0.513-0.47,0.923-0.983,0.983
		C15.45,14.284,15.407,14.288,15.362,14.288z"/>
</g>
</svg>
