<?xml version="1.0" encoding="utf-8"?>
<!-- Generator: Adobe Illustrator 22.1.0, SVG Export Plug-In . SVG Version: 6.00 Build 0)  -->
<svg version="1.1" id="Layer_1" xmlns="http://www.w3.org/2000/svg" xmlns:xlink="http://www.w3.org/1999/xlink" x="0px" y="0px"
	 viewBox="0 0 24 24" style="enable-background:new 0 0 24 24;" xml:space="preserve">
<title>locker-room-hanger</title>
<g>
	<path d="M2.944,21c-0.72-0.003-1.39-0.359-1.794-0.951c-0.402-0.58-0.512-1.331-0.294-2.006c1.62-4.381,5.763-7.366,10.389-7.538
		V8.905C9.941,8.567,8.994,7.372,8.994,6c0-1.654,1.346-3,3-3s3,1.346,3,3c0,0.414-0.336,0.75-0.75,0.75s-0.75-0.336-0.75-0.75
		c0-0.827-0.673-1.5-1.5-1.5c-0.827,0-1.5,0.673-1.5,1.5s0.673,1.5,1.5,1.5c0.414,0,0.75,0.336,0.75,0.75v2.253
		c4.624,0.162,8.765,3.141,10.381,7.509c0.225,0.699,0.116,1.456-0.286,2.039c-0.403,0.59-1.073,0.945-1.79,0.948
		c0,0-0.001,0-0.002,0H2.944z M11.681,11.995c-4.181,0-7.962,2.627-9.409,6.538C2.206,18.739,2.248,19,2.385,19.199
		c0.129,0.188,0.338,0.3,0.562,0.301h18.098c0.222-0.001,0.431-0.113,0.558-0.297c0.141-0.205,0.18-0.466,0.105-0.7
		c-1.438-3.886-5.208-6.507-9.376-6.507c-0.104,0-0.21,0.002-0.315,0.005c-0.004,0-0.041,0-0.05-0.001
		C11.865,11.996,11.773,11.995,11.681,11.995z"/>
</g>
</svg>
