<?xml version="1.0" encoding="utf-8"?>
<!-- Generator: Adobe Illustrator 22.1.0, SVG Export Plug-In . SVG Version: 6.00 Build 0)  -->
<svg version="1.1" id="Layer_1" xmlns="http://www.w3.org/2000/svg" xmlns:xlink="http://www.w3.org/1999/xlink" x="0px" y="0px"
	 viewBox="0 0 24 24" style="enable-background:new 0 0 24 24;" xml:space="preserve">
<title>locker-room-suitcase-key</title>
<g>
	<path d="M3.75,24C1.682,24,0,22.318,0,20.25v-12C0,6.182,1.682,4.5,3.75,4.5H7.5C7.5,2.019,9.519,0,12,0c2.481,0,4.5,2.019,4.5,4.5
		h3.75C22.318,4.5,24,6.182,24,8.25v12c0,2.068-1.682,3.75-3.75,3.75H3.75z M20.25,22.5c1.241,0,2.25-1.009,2.25-2.25v-12
		C22.5,7.009,21.491,6,20.25,6H18v3.75c0,0.414-0.336,0.75-0.75,0.75s-0.75-0.336-0.75-0.75V6h-9v2.25C7.5,8.664,7.164,9,6.75,9
		S6,8.664,6,8.25V6H3.75C2.509,6,1.5,7.009,1.5,8.25v12c0,1.241,1.009,2.25,2.25,2.25H6v-2.25c0-0.414,0.336-0.75,0.75-0.75
		s0.75,0.336,0.75,0.75v2.25h9v-2.25c0-0.414,0.336-0.75,0.75-0.75S18,19.836,18,20.25v2.25H20.25z M15,4.5c0-1.654-1.346-3-3-3
		c-1.654,0-3,1.346-3,3H15z"/>
	<path d="M8.25,18c-2.068,0-3.75-1.682-3.75-3.75c0-2.068,1.682-3.75,3.75-3.75c1.799,0,3.323,1.268,3.673,3h6.827
		c0.414,0,0.75,0.336,0.75,0.75v2.25c0,0.414-0.336,0.75-0.75,0.75S18,16.914,18,16.5V15h-1.5v0.75c0,0.414-0.336,0.75-0.75,0.75
		S15,16.164,15,15.75V15h-3.077C11.573,16.732,10.049,18,8.25,18z M8.25,12C7.009,12,6,13.009,6,14.25s1.009,2.25,2.25,2.25
		s2.25-1.009,2.25-2.25S9.491,12,8.25,12z"/>
</g>
</svg>
