<?xml version="1.0" encoding="utf-8"?>
<!-- Generator: Adobe Illustrator 22.1.0, SVG Export Plug-In . SVG Version: 6.00 Build 0)  -->
<svg version="1.1" id="Layer_1" xmlns="http://www.w3.org/2000/svg" xmlns:xlink="http://www.w3.org/1999/xlink" x="0px" y="0px"
	 viewBox="0 0 24 24" style="enable-background:new 0 0 24 24;" xml:space="preserve">
<title>locker-room-hanger-man</title>
<g>
	<path d="M19.5,7.125c-1.861,0-3.375-1.514-3.375-3.375s1.514-3.375,3.375-3.375s3.375,1.514,3.375,3.375S21.361,7.125,19.5,7.125z
		 M19.5,1.875c-1.034,0-1.875,0.841-1.875,1.875s0.841,1.875,1.875,1.875s1.875-0.841,1.875-1.875S20.534,1.875,19.5,1.875z"/>
	<path d="M19.5,24c-1.654,0-3-1.346-3-3v-3.128C15.615,17.558,15,16.71,15,15.75v-4.5c0-2.068,1.682-3.75,3.75-3.75h1.5
		c2.068,0,3.75,1.682,3.75,3.75v4.5c0,0.96-0.615,1.808-1.5,2.122V21C22.5,22.654,21.154,24,19.5,24z M18.75,9
		c-1.241,0-2.25,1.009-2.25,2.25v4.5c0,0.414,0.336,0.75,0.75,0.75S18,16.836,18,17.25V21c0,0.827,0.673,1.5,1.5,1.5
		S21,21.827,21,21v-3.75c0-0.414,0.336-0.75,0.75-0.75s0.75-0.336,0.75-0.75v-4.5c0-1.241-1.009-2.25-2.25-2.25H18.75z"/>
	<path d="M0.75,12C0.336,12,0,11.664,0,11.25v-1.5c0-0.262,0.14-0.508,0.364-0.643L7.5,4.825V3.75C7.5,3.336,7.836,3,8.25,3
		S9,2.664,9,2.25S8.664,1.5,8.25,1.5S7.5,1.836,7.5,2.25S7.164,3,6.75,3S6,2.664,6,2.25C6,1.009,7.009,0,8.25,0
		s2.25,1.009,2.25,2.25c0,0.96-0.615,1.808-1.5,2.121v0.415l4.085,2.043c0.37,0.185,0.52,0.636,0.335,1.006
		C13.293,8.091,13.036,8.25,12.75,8.25l0,0c-0.115,0-0.231-0.027-0.335-0.079L8.283,6.105L1.5,10.175V10.5h9.75
		c0.414,0,0.75,0.336,0.75,0.75S11.664,12,11.25,12H0.75z"/>
</g>
</svg>
