<?xml version="1.0" encoding="utf-8"?>
<!-- Generator: Adobe Illustrator 22.1.0, SVG Export Plug-In . SVG Version: 6.00 Build 0)  -->
<svg version="1.1" id="Layer_1" xmlns="http://www.w3.org/2000/svg" xmlns:xlink="http://www.w3.org/1999/xlink" x="0px" y="0px"
	 viewBox="0 0 24 24" style="enable-background:new 0 0 24 24;" xml:space="preserve">
<title>locker-room-wash-hands</title>
<g>
	<path d="M7.062,23.821c-0.814,0-1.623-0.19-2.346-0.55l-1.734-0.867c-0.103-0.052-0.219-0.079-0.336-0.079H0.75
		c-0.414,0-0.75-0.336-0.75-0.75s0.336-0.75,0.75-0.75h1.896c0.347,0,0.695,0.082,1.006,0.237l1.733,0.867
		c0.516,0.256,1.094,0.392,1.67,0.392H18.75c0.414,0,0.75-0.336,0.75-0.75s-0.336-0.75-0.75-0.75h-3c-0.414,0-0.75-0.336-0.75-0.75
		s0.336-0.75,0.75-0.75H21c0.414,0,0.75-0.336,0.75-0.75s-0.336-0.75-0.75-0.75h-4.5c-0.414,0-0.75-0.336-0.75-0.75
		s0.336-0.75,0.75-0.75h5.25c0.412,0,0.749-0.336,0.749-0.749c0-0.2-0.078-0.389-0.219-0.531c-0.142-0.142-0.33-0.22-0.53-0.22H16.5
		c-0.414,0-0.75-0.336-0.75-0.75s0.336-0.75,0.75-0.75h3.75c0.414,0,0.75-0.336,0.75-0.75s-0.336-0.75-0.75-0.75h-7.5
		c-0.414,0-0.75-0.336-0.75-0.75s0.336-0.75,0.75-0.75H15c0.414,0,0.75-0.336,0.75-0.75s-0.336-0.75-0.75-0.75H9.158
		c-1.257,0-2.423,0.623-3.12,1.667l-1.213,1.827c-0.419,0.628-1.119,1.003-1.873,1.003H0.75c-0.414,0-0.75-0.336-0.75-0.75
		s0.336-0.75,0.75-0.75h2.202c0.251,0,0.485-0.125,0.624-0.334l1.213-1.828c0.977-1.463,2.61-2.335,4.367-2.335H15
		c1.241,0,2.25,1.009,2.25,2.25c0,0.259-0.044,0.511-0.129,0.75h3.129c1.241,0,2.25,1.009,2.25,2.25
		c0,0.287-0.054,0.567-0.159,0.829c0.375,0.102,0.719,0.3,1,0.582c0.425,0.425,0.658,0.99,0.658,1.592
		c-0.001,0.772-0.405,1.485-1.042,1.893c0.191,0.336,0.293,0.716,0.293,1.106c0,1.241-1.009,2.25-2.25,2.25h-0.129
		C20.956,21.06,21,21.312,21,21.571c0,1.241-1.009,2.25-2.25,2.25H7.062z"/>
	<circle cx="12.75" cy="1.321" r="1.125"/>
	<circle cx="12.75" cy="5.075" r="1.125"/>
	<circle cx="16.5" cy="1.321" r="1.125"/>
	<circle cx="18.75" cy="5.075" r="1.125"/>
	<circle cx="21" cy="8.821" r="1.125"/>
	<circle cx="9" cy="1.321" r="1.125"/>
	<circle cx="6.75" cy="5.075" r="1.125"/>
</g>
</svg>
