<?xml version="1.0" encoding="utf-8"?>
<!-- Generator: Adobe Illustrator 22.1.0, SVG Export Plug-In . SVG Version: 6.00 Build 0)  -->
<svg version="1.1" id="Layer_1" xmlns="http://www.w3.org/2000/svg" xmlns:xlink="http://www.w3.org/1999/xlink" x="0px" y="0px"
	 viewBox="0 0 24 24" style="enable-background:new 0 0 24 24;" xml:space="preserve">
<title>locker-room-suitcase-umbrella</title>
<g>
	<path d="M7.75,24C6.785,24,6,23.215,6,22.25v-8.5C6,12.785,6.785,12,7.75,12h3.577c0.351-1.732,1.874-3,3.673-3
		s3.323,1.268,3.673,3h3.577c0.965,0,1.75,0.785,1.75,1.75v8.5c0,0.965-0.785,1.75-1.75,1.75H7.75z M22.25,22.5
		c0.138,0,0.25-0.112,0.25-0.25v-8.5c0-0.138-0.112-0.25-0.25-0.25H19.5v9H22.25z M18,22.5v-9h-6v9H18z M7.75,13.5
		c-0.138,0-0.25,0.112-0.25,0.25v8.5c0,0.138,0.112,0.25,0.25,0.25h2.75v-9H7.75z M17.118,12c-0.313-0.879-1.158-1.5-2.118-1.5
		s-1.805,0.621-2.118,1.5H17.118z"/>
	<path d="M22.5,10.5c-0.041,0-0.083-0.003-0.125-0.01c-0.197-0.033-0.37-0.141-0.486-0.304c-0.116-0.163-0.162-0.362-0.129-0.56
		l0.545-3.27l-0.184,0.061c-0.309,0.103-0.629,0.155-0.95,0.155c-0.467,0-0.918-0.107-1.341-0.318L19.5,6.089l-0.331,0.165
		c-0.423,0.211-0.874,0.318-1.341,0.318c-0.321,0-0.64-0.052-0.949-0.154l-0.185-0.062l0.059,0.351
		c0.033,0.198-0.013,0.396-0.129,0.559c-0.116,0.163-0.29,0.271-0.487,0.304c-0.042,0.007-0.083,0.01-0.124,0.01l0,0
		c-0.368,0-0.679-0.264-0.739-0.627L15.01,5.374c-0.043-0.258,0.053-0.524,0.252-0.694c0.136-0.116,0.309-0.18,0.488-0.18
		c0.081,0,0.16,0.013,0.237,0.038l1.366,0.456c0.154,0.051,0.314,0.077,0.475,0.077c0.233,0,0.459-0.054,0.67-0.16l0.252-0.126V2.25
		c0-0.414-0.336-0.75-0.75-0.75s-0.75,0.336-0.75,0.75S16.914,3,16.5,3s-0.75-0.336-0.75-0.75C15.75,1.009,16.759,0,18,0
		s2.25,1.009,2.25,2.25v2.536l0.251,0.126c0.212,0.106,0.437,0.16,0.67,0.16c0.161,0,0.321-0.026,0.476-0.078l1.365-0.456
		C23.09,4.513,23.169,4.5,23.25,4.5c0.178,0,0.351,0.064,0.487,0.179c0.199,0.171,0.296,0.437,0.253,0.694l-0.75,4.5
		C23.179,10.236,22.868,10.5,22.5,10.5z"/>
	<path d="M6,12c-3.308,0-6-2.692-6-6s2.692-6,6-6s6,2.692,6,6S9.308,12,6,12z M6,1.5C3.519,1.5,1.5,3.519,1.5,6s2.019,4.5,4.5,4.5
		s4.5-2.019,4.5-4.5S8.481,1.5,6,1.5z"/>
	<path d="M6,7.407c-0.414,0-0.75-0.336-0.75-0.75S5.586,5.907,6,5.907c0.491,0,0.891-0.4,0.891-0.891S6.491,4.125,6,4.125
		s-0.891,0.4-0.891,0.891c0,0.414-0.336,0.75-0.75,0.75s-0.75-0.336-0.75-0.75c0-1.318,1.073-2.391,2.391-2.391
		s2.391,1.073,2.391,2.391S7.318,7.407,6,7.407z"/>
	<circle cx="6" cy="8.953" r="1.125"/>
</g>
</svg>
