<?xml version="1.0" encoding="utf-8"?>
<!-- Generator: Adobe Illustrator 22.1.0, SVG Export Plug-In . SVG Version: 6.00 Build 0)  -->
<svg version="1.1" id="Layer_1" xmlns="http://www.w3.org/2000/svg" xmlns:xlink="http://www.w3.org/1999/xlink" x="0px" y="0px"
	 viewBox="0 0 24 24" style="enable-background:new 0 0 24 24;" xml:space="preserve">
<title>love-plant</title>
<g>
	<path d="M13.897,24c-0.055,0-0.111-0.006-0.166-0.019c-0.404-0.092-0.657-0.494-0.566-0.897L13.639,21H3.356l0.473,2.084
		c0.091,0.403-0.162,0.806-0.565,0.897C3.209,23.993,3.153,24,3.097,24c-0.352,0-0.653-0.24-0.731-0.584l-0.518-2.282
		c-0.004-0.019-0.008-0.037-0.01-0.055c-0.055-0.362,0.035-0.725,0.253-1.021c0.218-0.296,0.538-0.489,0.902-0.544
		c0.066-0.01,0.135-0.016,0.204-0.016c0.026,0,0.051,0.001,0.077,0.002h4.474v-8.451c-0.131-0.073-0.249-0.164-0.351-0.271
		L2.713,5.844C1.422,4.491,1.423,2.37,2.715,1.017c0.036-0.038,0.073-0.074,0.11-0.11c0.614-0.586,1.412-0.908,2.248-0.908
		c0.033,0,0.066,0,0.099,0.001c0.875,0.021,1.691,0.382,2.296,1.017l1.029,1.064L9.53,1.013c0.032-0.034,0.069-0.07,0.107-0.106
		C10.25,0.322,11.054,0,11.902,0c0.908,0,1.753,0.361,2.378,1.016c1.292,1.354,1.291,3.475,0,4.828l-4.681,4.932
		c-0.018,0.019-0.036,0.037-0.055,0.055c-0.089,0.085-0.188,0.157-0.297,0.218v6.201c1.413-0.082,2.724-0.666,3.738-1.667
		c-0.003-0.026-0.005-0.051-0.007-0.076l-0.323-5.035c-0.086-1.505,1.018-2.804,2.513-2.961c0.042-0.005,0.087-0.008,0.132-0.011
		c0.052-0.003,0.103-0.005,0.155-0.005c1.402,0,2.562,1.099,2.64,2.502l0.058,0.912l0.916-0.089c0.037-0.004,0.082-0.008,0.127-0.01
		c0.051-0.003,0.101-0.004,0.151-0.004c1.404,0,2.565,1.099,2.644,2.502c0.085,1.506-1.024,2.804-2.525,2.955l-5.073,0.495
		c-0.042,0.002-0.067,0.003-0.092,0.003c-0.111,0-0.222-0.015-0.33-0.044c-1.287,1.239-2.946,1.953-4.726,2.035V19.5h4.487
		c0.005-0.001,0.033-0.002,0.06-0.002c0.328,0,0.646,0.117,0.895,0.329c0.28,0.239,0.449,0.573,0.478,0.939
		c0.008,0.105,0.004,0.21-0.011,0.313c-0.003,0.019-0.006,0.036-0.01,0.052l-0.519,2.286C14.55,23.76,14.249,24,13.897,24z
		 M15.386,8.999C15.367,9,15.347,9.002,15.328,9.004c-0.699,0.073-1.215,0.679-1.175,1.379l0.312,4.863l4.854-0.474
		c0.698-0.07,1.215-0.676,1.175-1.378c-0.034-0.609-0.538-1.086-1.147-1.086c-0.022,0-0.044,0-0.066,0.002
		c-0.019,0.001-0.039,0.003-0.059,0.005l-1.695,0.166c-0.024,0.002-0.048,0.004-0.072,0.004c-0.178,0-0.351-0.063-0.486-0.178
		c-0.154-0.131-0.25-0.322-0.263-0.523l-0.108-1.692c-0.034-0.614-0.538-1.092-1.148-1.092C15.429,8.997,15.407,8.998,15.386,8.999z
		 M5.09,1.499c-0.46,0-0.896,0.175-1.23,0.493c-0.021,0.02-0.041,0.04-0.06,0.06C3.062,2.825,3.062,4.036,3.8,4.81l4.683,4.934
		l4.71-4.933c0.739-0.774,0.739-1.986,0.001-2.759C12.855,1.696,12.396,1.5,11.903,1.5c-0.461,0-0.898,0.175-1.231,0.492
		c-0.021,0.02-0.041,0.039-0.06,0.06L9.036,3.681C8.898,3.823,8.702,3.905,8.497,3.905S8.096,3.823,7.958,3.681L6.386,2.056
		C6.054,1.708,5.61,1.511,5.134,1.5L5.09,1.499z"/>
</g>
</svg>
