<?xml version="1.0" encoding="utf-8"?>
<!-- Generator: Adobe Illustrator 22.1.0, SVG Export Plug-In . SVG Version: 6.00 Build 0)  -->
<svg version="1.1" id="Layer_1" xmlns="http://www.w3.org/2000/svg" xmlns:xlink="http://www.w3.org/1999/xlink" x="0px" y="0px"
	 viewBox="0 0 24 24" style="enable-background:new 0 0 24 24;" xml:space="preserve">
<title>love-heart-keyhole</title>
<g>
	<path d="M12,16.752c-0.414,0-0.75-0.336-0.75-0.75v-2.348C9.947,13.315,9,12.121,9,10.752c0-1.654,1.346-3,3-3c1.654,0,3,1.346,3,3
		c0,1.37-0.947,2.564-2.25,2.902v2.348C12.75,16.415,12.414,16.752,12,16.752z M12,9.252c-0.827,0-1.5,0.673-1.5,1.5
		s0.673,1.5,1.5,1.5s1.5-0.673,1.5-1.5S12.828,9.252,12,9.252z"/>
	<path d="M12,22.002c-0.206,0-0.405-0.086-0.547-0.236l-8.949-9.526c-1.823-1.875-2.274-4.723-1.119-7.08
		C2.073,3.72,3.283,2.633,4.791,2.099c0.648-0.229,1.321-0.346,2-0.346c0.894,0,1.761,0.198,2.578,0.588
		c0.639,0.305,1.213,0.716,1.707,1.223L12,4.458l0.941-0.912c1.123-1.153,2.643-1.792,4.271-1.792c1.574,0,3.059,0.603,4.183,1.699
		c0.507,0.495,0.919,1.069,1.224,1.708c1.153,2.352,0.699,5.2-1.131,7.083l-8.94,9.521C12.406,21.915,12.207,22.002,12,22.002z
		 M6.791,3.254c-0.509,0-1.014,0.087-1.5,0.259C4.16,3.913,3.253,4.73,2.736,5.812C1.856,7.608,2.2,9.773,3.589,11.203L12,20.156
		l8.402-8.948c1.397-1.437,1.743-3.603,0.865-5.393c-0.231-0.484-0.541-0.916-0.921-1.287c-0.842-0.821-1.954-1.273-3.133-1.273
		c-1.222,0-2.364,0.481-3.215,1.353L12.522,6.04C12.381,6.177,12.196,6.251,12,6.251c-0.196,0-0.381-0.075-0.521-0.211l-1.461-1.413
		C9.635,4.235,9.202,3.924,8.723,3.695C8.11,3.403,7.461,3.254,6.791,3.254z"/>
</g>
</svg>
