<?xml version="1.0" encoding="utf-8"?>
<!-- Generator: Adobe Illustrator 22.1.0, SVG Export Plug-In . SVG Version: 6.00 Build 0)  -->
<svg version="1.1" id="Layer_1" xmlns="http://www.w3.org/2000/svg" xmlns:xlink="http://www.w3.org/1999/xlink" x="0px" y="0px"
	 viewBox="0 0 24 24" style="enable-background:new 0 0 24 24;" xml:space="preserve">
<title>love-gift-couple-box</title>
<g>
	<path d="M3.75,24c-1.241,0-2.25-1.009-2.25-2.25V10.5H0.75C0.336,10.5,0,10.164,0,9.75v-3C0,5.509,1.009,4.5,2.25,4.5h7.939
		L6.97,1.28C6.828,1.139,6.75,0.95,6.75,0.75s0.078-0.389,0.22-0.53C7.111,0.078,7.3,0,7.5,0s0.389,0.078,0.53,0.22L12,4.189
		l3.97-3.97C16.111,0.078,16.3,0,16.5,0s0.389,0.078,0.53,0.22c0.142,0.141,0.22,0.33,0.22,0.53s-0.078,0.389-0.22,0.53l-3.22,3.22
		h7.939C22.991,4.5,24,5.509,24,6.75v3c0,0.414-0.336,0.75-0.75,0.75H22.5v11.25c0,1.241-1.009,2.25-2.25,2.25H3.75z M20.25,22.5
		c0.414,0,0.75-0.336,0.75-0.75V10.5H3v11.25c0,0.414,0.336,0.75,0.75,0.75h0.065c0.362-2.129,2.247-3.75,4.435-3.75
		c1.517,0,2.924,0.775,3.75,2.022c0.826-1.247,2.233-2.022,3.75-2.022c2.188,0,4.073,1.621,4.435,3.75H20.25z M18.654,22.5
		c-0.335-1.308-1.517-2.25-2.904-2.25s-2.569,0.942-2.904,2.25H18.654z M11.154,22.5c-0.335-1.308-1.517-2.25-2.904-2.25
		s-2.569,0.942-2.904,2.25H11.154z M22.5,9V6.75C22.5,6.336,22.164,6,21.75,6H15v3H22.5z M13.5,9V6h-3v3H13.5z M9,9V6H2.25
		C1.836,6,1.5,6.336,1.5,6.75V9H9z"/>
	<path d="M8.25,19.5c-1.861,0-3.375-1.514-3.375-3.375S6.389,12.75,8.25,12.75s3.375,1.514,3.375,3.375S10.111,19.5,8.25,19.5z
		 M8.25,14.25c-1.034,0-1.875,0.841-1.875,1.875S7.216,18,8.25,18s1.875-0.841,1.875-1.875S9.284,14.25,8.25,14.25z"/>
	<path d="M15.75,19.5c-1.861,0-3.375-1.514-3.375-3.375s1.514-3.375,3.375-3.375s3.375,1.514,3.375,3.375S17.611,19.5,15.75,19.5z
		 M15.75,14.25c-1.034,0-1.875,0.841-1.875,1.875S14.716,18,15.75,18s1.875-0.841,1.875-1.875S16.784,14.25,15.75,14.25z"/>
</g>
</svg>
