<?xml version="1.0" encoding="utf-8"?>
<!-- Generator: Adobe Illustrator 22.1.0, SVG Export Plug-In . SVG Version: 6.00 Build 0)  -->
<svg version="1.1" id="Layer_1" xmlns="http://www.w3.org/2000/svg" xmlns:xlink="http://www.w3.org/1999/xlink" x="0px" y="0px"
	 viewBox="0 0 24 24" style="enable-background:new 0 0 24 24;" xml:space="preserve">
<title>love-hat</title>
<g>
	<path d="M17.343,20.621c-0.524,0-1-0.308-1.214-0.783l-2.098-4.589c-0.618-1.376-0.05-2.983,1.293-3.662
		c0.034-0.017,0.073-0.036,0.113-0.054c0.345-0.155,0.709-0.233,1.083-0.233c0.322,0,0.64,0.059,0.944,0.175
		c0.661,0.252,1.185,0.746,1.475,1.392l0.377,0.832l0.822-0.409c0.033-0.017,0.073-0.036,0.113-0.054
		c0.343-0.154,0.706-0.232,1.08-0.232c0.322,0,0.64,0.059,0.945,0.175c0.661,0.251,1.185,0.746,1.474,1.392
		c0.616,1.369,0.051,2.975-1.286,3.657l-4.568,2.275C17.719,20.582,17.534,20.621,17.343,20.621z M16.521,12.8
		c-0.162,0-0.32,0.034-0.47,0.102c-0.016,0.007-0.031,0.014-0.045,0.021c-0.63,0.319-0.896,1.068-0.609,1.707l2.026,4.433
		l4.366-2.175c0.618-0.315,0.88-1.062,0.595-1.7c-0.001-0.001-0.001-0.003-0.002-0.004c-0.185-0.413-0.598-0.679-1.051-0.679
		c-0.162,0-0.32,0.034-0.469,0.101c-0.018,0.008-0.033,0.015-0.047,0.022l-1.527,0.759c-0.104,0.052-0.219,0.079-0.334,0.079
		c-0.086,0-0.171-0.015-0.252-0.044c-0.188-0.066-0.346-0.211-0.43-0.395l-0.7-1.543c-0.127-0.283-0.354-0.498-0.641-0.607
		C16.799,12.825,16.661,12.8,16.521,12.8z"/>
	<path d="M9.439,15.2c-0.157,0-0.308-0.049-0.437-0.14L1.875,9.961C0.341,8.911-0.348,6.994,0.167,5.194
		c0.53-1.851,2.246-3.144,4.172-3.144c0.402,0,0.803,0.057,1.193,0.168C5.98,2.347,6.403,2.546,6.787,2.809l0.537,0.367L7.691,2.64
		c0.808-1.182,2.149-1.888,3.586-1.888c0.875,0,1.72,0.261,2.443,0.756c0.385,0.264,0.724,0.586,1.007,0.959
		C15.86,3.959,15.908,6,14.848,7.544l-4.781,7.316c-0.111,0.17-0.289,0.289-0.489,0.327C9.53,15.196,9.484,15.2,9.439,15.2z
		 M4.338,3.55c-1.26,0-2.383,0.846-2.73,2.057C1.272,6.785,1.724,8.041,2.735,8.732l6.504,4.653l4.363-6.675
		c0.701-1.022,0.671-2.36-0.07-3.336c-0.185-0.244-0.406-0.455-0.659-0.627c-0.473-0.323-1.025-0.495-1.598-0.495
		c-0.941,0-1.818,0.462-2.347,1.235l-0.79,1.156C8.026,4.808,7.855,4.919,7.658,4.956C7.614,4.965,7.566,4.969,7.519,4.969
		c-0.151,0-0.297-0.045-0.423-0.131L5.94,4.047C5.688,3.875,5.412,3.745,5.118,3.66C4.863,3.587,4.601,3.55,4.338,3.55z"/>
	<path d="M22.125,10.501c-0.044,0-0.088-0.004-0.131-0.011c-0.513-0.06-0.922-0.47-0.982-0.983C21.004,9.464,21,9.42,21,9.376
		s0.004-0.088,0.011-0.13c0.06-0.513,0.47-0.923,0.982-0.983c0.043-0.008,0.087-0.011,0.131-0.011s0.088,0.004,0.131,0.011
		c0.513,0.06,0.922,0.47,0.983,0.983c0.007,0.042,0.011,0.086,0.011,0.13s-0.004,0.088-0.011,0.13
		c-0.061,0.513-0.47,0.923-0.983,0.983C22.213,10.497,22.169,10.501,22.125,10.501z"/>
	<path d="M2.625,18.751c-0.044,0-0.088-0.004-0.13-0.011c-0.513-0.06-0.923-0.47-0.983-0.983C1.504,17.714,1.5,17.67,1.5,17.626
		s0.004-0.088,0.011-0.131c0.06-0.513,0.47-0.922,0.983-0.982c0.042-0.008,0.086-0.011,0.13-0.011s0.088,0.004,0.13,0.011
		c0.513,0.06,0.923,0.469,0.983,0.982c0.008,0.043,0.011,0.087,0.011,0.131s-0.004,0.088-0.011,0.131
		c-0.06,0.513-0.47,0.922-0.983,0.983C2.713,18.747,2.669,18.751,2.625,18.751z"/>
	<path d="M10.5,23.251c-0.414,0-0.75-0.336-0.75-0.75v-0.75H9c-0.414,0-0.75-0.336-0.75-0.75s0.336-0.75,0.75-0.75h0.75v-0.75
		c0-0.414,0.336-0.75,0.75-0.75s0.75,0.336,0.75,0.75v0.75H12c0.414,0,0.75,0.336,0.75,0.75s-0.336,0.75-0.75,0.75h-0.75v0.75
		C11.25,22.915,10.913,23.251,10.5,23.251z"/>
	<path d="M19.5,5.251c-0.414,0-0.75-0.336-0.75-0.75v-0.75H18c-0.414,0-0.75-0.336-0.75-0.75s0.336-0.75,0.75-0.75h0.75v-0.75
		c0-0.414,0.336-0.75,0.75-0.75s0.75,0.336,0.75,0.75v0.75H21c0.414,0,0.75,0.336,0.75,0.75s-0.336,0.75-0.75,0.75h-0.75v0.75
		C20.25,4.915,19.913,5.251,19.5,5.251z"/>
</g>
</svg>
