<?xml version="1.0" encoding="utf-8"?>
<!-- Generator: Adobe Illustrator 22.1.0, SVG Export Plug-In . SVG Version: 6.00 Build 0)  -->
<svg version="1.1" id="Layer_1" xmlns="http://www.w3.org/2000/svg" xmlns:xlink="http://www.w3.org/1999/xlink" x="0px" y="0px"
	 viewBox="0 0 24 24" style="enable-background:new 0 0 24 24;" xml:space="preserve">
<title>love-potion</title>
<g>
	<path d="M11.983,19.248c-0.369-0.009-0.7-0.155-0.945-0.412l-3.507-3.627c-1.041-1.091-1.042-2.796-0.003-3.884
		c0.029-0.03,0.059-0.06,0.089-0.089c0.495-0.472,1.145-0.732,1.829-0.732c0.733,0,1.415,0.292,1.919,0.821L12,11.983l0.64-0.662
		c0.024-0.026,0.055-0.057,0.087-0.087c0.494-0.471,1.142-0.731,1.823-0.731l0.069,0.001c0.707,0.017,1.365,0.309,1.854,0.821
		c0.028,0.03,0.054,0.062,0.077,0.096c0.695,1.031,0.899,2.651-0.052,3.756l-3.569,3.692c-0.26,0.248-0.586,0.379-0.929,0.379
		C11.999,19.248,11.985,19.248,11.983,19.248z M9.445,12.004c-0.297,0-0.578,0.112-0.792,0.317c-0.013,0.012-0.026,0.026-0.04,0.04
		c-0.484,0.507-0.484,1.302,0,1.809L12,17.673l3.391-3.507c0.399-0.465,0.293-1.3-0.047-1.849c-0.207-0.195-0.476-0.306-0.761-0.313
		l-0.026,0c-0.302,0-0.577,0.11-0.795,0.317c-0.015,0.014-0.028,0.027-0.041,0.041l-1.181,1.222
		c-0.138,0.142-0.334,0.224-0.539,0.224c-0.205,0-0.401-0.082-0.539-0.224l-1.179-1.219C10.06,12.132,9.763,12.004,9.445,12.004z"/>
	<path d="M11.993,24.017c-1.454,0-2.865-0.322-4.195-0.957c-2.35-1.122-4.122-3.093-4.99-5.548C1.94,15.057,2.08,12.41,3.202,10.06
		C4.243,7.88,6.03,6.184,8.25,5.262V1.504h-1.5C6.337,1.504,6,1.167,6,0.754s0.336-0.75,0.75-0.75h10.5
		c0.414,0,0.75,0.336,0.75,0.75s-0.336,0.75-0.75,0.75h-1.5v3.758c2.544,1.058,4.52,3.141,5.442,5.75
		c0.868,2.455,0.728,5.102-0.394,7.452c-1.123,2.35-3.093,4.122-5.548,4.99C14.195,23.827,13.099,24.017,11.993,24.017
		C11.993,24.017,11.993,24.017,11.993,24.017z M9.75,5.777c0,0.317-0.201,0.601-0.5,0.707c-2.078,0.735-3.745,2.234-4.695,4.223
		c-0.95,1.989-1.068,4.228-0.334,6.305s2.234,3.745,4.223,4.695c1.125,0.537,2.319,0.81,3.549,0.81c0.935,0,1.862-0.16,2.756-0.476
		c2.078-0.734,3.745-2.234,4.695-4.223c0.95-1.988,1.068-4.228,0.334-6.305c-0.835-2.361-2.668-4.194-5.028-5.028
		c-0.299-0.106-0.5-0.39-0.5-0.707V1.504h-4.5V5.777z"/>
</g>
</svg>
