<?xml version="1.0" encoding="utf-8"?>
<!-- Generator: Adobe Illustrator 22.1.0, SVG Export Plug-In . SVG Version: 6.00 Build 0)  -->
<svg version="1.1" id="Layer_1" xmlns="http://www.w3.org/2000/svg" xmlns:xlink="http://www.w3.org/1999/xlink" x="0px" y="0px"
	 viewBox="0 0 24 24" style="enable-background:new 0 0 24 24;" xml:space="preserve">
<title>love-gift-diamond</title>
<g>
	<path d="M12.5,22.5c-0.057,0-0.114-0.007-0.173-0.021c-0.011-0.003-0.036-0.01-0.047-0.014c-0.03-0.009-0.064-0.021-0.099-0.038
		c-0.016-0.007-0.032-0.014-0.045-0.021c0,0-8.252-4.501-8.255-4.503c-0.056-0.031-0.107-0.07-0.152-0.114
		c-0.025-0.024-0.045-0.048-0.063-0.074c-0.021-0.025-0.042-0.051-0.059-0.08c-0.005-0.008-0.009-0.016-0.013-0.024
		c-0.021-0.036-0.043-0.088-0.06-0.143c-0.003-0.01-0.01-0.038-0.012-0.048C3.512,17.38,3.506,17.34,3.503,17.3
		C3.501,17.282,3.5,17.265,3.5,17.25V7.5c0-0.016,0.001-0.035,0.004-0.052c0.003-0.042,0.009-0.08,0.018-0.118
		c0.002-0.007,0.009-0.037,0.011-0.043c0.017-0.055,0.036-0.101,0.06-0.145C3.6,7.126,3.608,7.112,3.617,7.098
		c0.02-0.034,0.056-0.08,0.101-0.125c0.007-0.007,0.025-0.024,0.033-0.03C3.782,6.914,3.815,6.89,3.849,6.868
		c0.014-0.01,0.029-0.02,0.043-0.027l8.249-4.5c0.012-0.007,0.028-0.014,0.043-0.02c0.032-0.015,0.065-0.027,0.099-0.038
		c0.009-0.003,0.04-0.012,0.049-0.014c0.055-0.013,0.111-0.02,0.168-0.02s0.113,0.007,0.172,0.021
		c0.012,0.003,0.039,0.011,0.051,0.015c0.029,0.008,0.061,0.021,0.094,0.036c0.016,0.007,0.033,0.015,0.047,0.022l8.247,4.498
		c0.013,0.007,0.029,0.017,0.043,0.028c0.035,0.022,0.066,0.046,0.096,0.073c0.006,0.005,0.03,0.027,0.036,0.033
		c0.044,0.045,0.08,0.09,0.109,0.14c0.005,0.008,0.01,0.017,0.014,0.026c0.024,0.044,0.044,0.092,0.059,0.142
		c0.003,0.01,0.01,0.038,0.012,0.048c0.009,0.039,0.015,0.08,0.018,0.121C21.499,7.468,21.5,7.485,21.5,7.5v9.75
		c0,0.014-0.001,0.031-0.003,0.047c-0.002,0.037-0.008,0.081-0.019,0.125c-0.002,0.009-0.01,0.041-0.013,0.049
		c-0.015,0.048-0.034,0.094-0.058,0.137c-0.005,0.01-0.015,0.028-0.015,0.028c-0.017,0.028-0.036,0.053-0.057,0.076
		c-0.016,0.023-0.039,0.052-0.066,0.078c-0.044,0.042-0.094,0.08-0.148,0.111c-0.005,0.003-8.263,4.508-8.263,4.508
		c-0.012,0.007-0.027,0.013-0.041,0.019c-0.027,0.013-0.064,0.027-0.102,0.039c-0.008,0.002-0.038,0.011-0.046,0.013
		C12.614,22.493,12.557,22.5,12.5,22.5z M13.25,20.487l5.991-3.268l-2.273-1.364l-3.717,1.859V20.487z M11.75,20.487v-2.773
		l-3.717-1.859L5.76,17.219L11.75,20.487z M12.5,16.412l3.75-1.875v-4.323L12.5,8.339l-3.75,1.875v4.323L12.5,16.412z M20,15.925
		V8.825l-2.25,1.35v4.401L20,15.925z M5,15.925l2.25-1.35v-4.401L5,8.825V15.925z M16.967,8.895l2.273-1.364L13.25,4.263v2.773
		L16.967,8.895z M8.033,8.895l3.717-1.859V4.263L5.759,7.531L8.033,8.895z"/>
	<path d="M3.5,6C3.086,6,2.75,5.664,2.75,5.25v-1.5h-1.5C0.836,3.75,0.5,3.414,0.5,3s0.336-0.75,0.75-0.75h1.5v-1.5
		C2.75,0.336,3.086,0,3.5,0s0.75,0.336,0.75,0.75v1.5h1.5C6.164,2.25,6.5,2.586,6.5,3S6.164,3.75,5.75,3.75h-1.5v1.5
		C4.25,5.664,3.914,6,3.5,6z"/>
	<path d="M21.5,24c-0.414,0-0.75-0.336-0.75-0.75V22.5H20c-0.414,0-0.75-0.336-0.75-0.75S19.586,21,20,21h0.75v-0.75
		c0-0.414,0.336-0.75,0.75-0.75s0.75,0.336,0.75,0.75V21H23c0.414,0,0.75,0.336,0.75,0.75S23.414,22.5,23,22.5h-0.75v0.75
		C22.25,23.664,21.914,24,21.5,24z"/>
</g>
</svg>
