<?xml version="1.0" encoding="utf-8"?>
<!-- Generator: Adobe Illustrator 22.1.0, SVG Export Plug-In . SVG Version: 6.00 Build 0)  -->
<svg version="1.1" id="Layer_1" xmlns="http://www.w3.org/2000/svg" xmlns:xlink="http://www.w3.org/1999/xlink" x="0px" y="0px"
	 viewBox="0 0 24 24" style="enable-background:new 0 0 24 24;" xml:space="preserve">
<title>love-gift-chocolate-box</title>
<g>
	<path d="M12.01,21.748c-0.47,0-0.921-0.144-1.304-0.416l-8.581-6.092c-1.326-0.944-2.117-2.479-2.116-4.106V6.923
		c-0.012-0.769,0.244-1.536,0.74-2.212c1.109-1.51,3.286-2.448,5.682-2.448c0.231,0,0.466,0.009,0.698,0.026
		c2.062,0.155,3.772,0.949,4.876,2.25c1.103-1.301,2.814-2.095,4.876-2.25c0.233-0.018,0.469-0.026,0.701-0.026
		c2.395,0,4.57,0.938,5.678,2.448c0.482,0.656,0.738,1.4,0.741,2.152c0.002,0.019,0.004,0.039,0.004,0.059v4.212
		c0.001,1.627-0.789,3.161-2.115,4.105l-8.578,6.093C12.931,21.605,12.48,21.748,12.01,21.748z M1.51,11.135
		c-0.001,1.143,0.554,2.221,1.485,2.883l8.58,6.092c0.128,0.091,0.278,0.138,0.435,0.138c0.157,0,0.307-0.048,0.434-0.138
		l8.578-6.092c0.93-0.662,1.485-1.74,1.484-2.882V9.857c-0.154,0.133-0.318,0.258-0.49,0.376l-8.707,6.184
		c-0.382,0.272-0.833,0.416-1.303,0.416c-0.47,0-0.921-0.144-1.304-0.416l-8.719-6.193C1.817,10.111,1.659,9.99,1.51,9.861V11.135z
		 M1.51,6.966c0.003,0.085,0.011,0.165,0.024,0.238C1.646,7.861,2.11,8.496,2.839,8.992l8.732,6.202
		c0.128,0.091,0.278,0.138,0.435,0.138c0.157,0,0.307-0.048,0.434-0.138l8.72-6.193c0.74-0.503,1.206-1.139,1.318-1.796
		c0.094-0.543-0.054-1.098-0.426-1.605c-0.818-1.114-2.581-1.834-4.49-1.834c-0.189,0-0.38,0.007-0.568,0.021
		c-2.016,0.152-3.592,1.039-4.324,2.435c-0.13,0.248-0.384,0.402-0.664,0.402c-0.28,0-0.534-0.154-0.664-0.401
		c-0.732-1.396-2.308-2.283-4.324-2.435c-0.189-0.014-0.381-0.021-0.57-0.021c-1.908,0-3.67,0.72-4.488,1.835
		c-0.304,0.414-0.455,0.853-0.45,1.305C1.509,6.911,1.51,6.966,1.51,6.966z"/>
</g>
</svg>
