<?xml version="1.0" encoding="utf-8"?>
<!-- Generator: Adobe Illustrator 22.1.0, SVG Export Plug-In . SVG Version: 6.00 Build 0)  -->
<svg version="1.1" id="Regular" xmlns="http://www.w3.org/2000/svg" xmlns:xlink="http://www.w3.org/1999/xlink" x="0px" y="0px"
	 viewBox="0 0 24 24" style="enable-background:new 0 0 24 24;" xml:space="preserve">
<title>make-up-lipstick-1</title>
<g>
	<path d="M1.25,24C0.561,24,0,23.439,0,22.75v-9c0-0.88,0.653-1.61,1.5-1.732V2.25c0-0.827,0.673-1.5,1.5-1.5
		c0.323,0,0.642,0.107,0.9,0.3L8.1,4.2C8.664,4.623,9,5.296,9,6v6.018c0.847,0.122,1.5,0.852,1.5,1.732v9
		c0,0.689-0.561,1.25-1.25,1.25H1.25z M9,22.5v-8.75c0-0.138-0.112-0.25-0.25-0.25h-7c-0.138,0-0.25,0.112-0.25,0.25v8.75H9z
		 M7.5,12V6c0-0.235-0.112-0.459-0.3-0.6L3,2.25L3,12H7.5z"/>
	<path d="M14.75,24c-0.689,0-1.25-0.561-1.25-1.25v-11c0-0.689,0.561-1.25,1.25-1.25h8c0.689,0,1.25,0.561,1.25,1.25v11
		c0,0.689-0.561,1.25-1.25,1.25H14.75z M22.5,22.5V21H15v1.5H22.5z M22.5,19.5V18H15v1.5H22.5z M22.5,16.5V12H15v4.5H22.5z"/>
	<path d="M3.75,21C3.336,21,3,20.664,3,20.25s0.336-0.75,0.75-0.75h3c0.414,0,0.75,0.336,0.75,0.75S7.164,21,6.75,21H3.75z"/>
</g>
</svg>
