<?xml version="1.0" encoding="utf-8"?>
<!-- Generator: Adobe Illustrator 22.1.0, SVG Export Plug-In . SVG Version: 6.00 Build 0)  -->
<svg version="1.1" id="Regular" xmlns="http://www.w3.org/2000/svg" xmlns:xlink="http://www.w3.org/1999/xlink" x="0px" y="0px"
	 viewBox="0 0 24 24" style="enable-background:new 0 0 24 24;" xml:space="preserve">
<title>make-up-hand-mirror</title>
<g>
	<path d="M3.698,24.013c-0.995-0.008-1.933-0.406-2.636-1.12c-0.701-0.713-1.083-1.658-1.075-2.661
		c0.008-1.003,0.406-1.941,1.119-2.643c0.011-0.011,0.024-0.023,0.039-0.036l4.306-3.629C3.71,10.246,4.479,5.73,7.371,2.844
		c1.841-1.837,4.287-2.849,6.888-2.849c2.614,0.002,5.061,1.019,6.901,2.862c1.84,1.843,2.852,4.293,2.849,6.897
		c-0.002,2.604-1.019,5.052-2.862,6.891c-1.808,1.804-4.324,2.84-6.903,2.84c0,0,0,0,0,0c-1.442,0-2.877-0.323-4.17-0.936
		l-3.626,4.302c-0.014,0.016-0.026,0.03-0.039,0.043l-0.04,0.04c-0.708,0.697-1.642,1.08-2.632,1.08L3.698,24.013z M2.139,18.678
		c-0.865,0.871-0.869,2.287-0.007,3.163c0.422,0.428,0.985,0.667,1.585,0.672c0,0,0.001,0,0.001,0c0.613,0,1.172-0.229,1.596-0.646
		l3.998-4.742c0.143-0.169,0.352-0.267,0.573-0.267c0.127,0,0.253,0.033,0.365,0.095c1.214,0.675,2.595,1.032,3.995,1.032
		c2.183,0,4.313-0.875,5.842-2.402c1.56-1.557,2.42-3.628,2.422-5.831c0.002-2.203-0.854-4.276-2.411-5.836
		c-1.557-1.56-3.628-2.42-5.831-2.422l-0.008-0.375v0.375c-2.201,0-4.271,0.856-5.828,2.411c-2.595,2.591-3.165,6.639-1.384,9.845
		c0.174,0.313,0.101,0.707-0.172,0.938L2.139,18.678z"/>
	<path d="M14.252,16.5c-3.722,0-6.75-3.028-6.75-6.75c0-3.722,3.028-6.75,6.75-6.75s6.75,3.028,6.75,6.75
		C21.002,13.472,17.974,16.5,14.252,16.5z M14.252,4.5c-2.895,0-5.25,2.355-5.25,5.25S11.358,15,14.252,15s5.25-2.355,5.25-5.25
		S17.147,4.5,14.252,4.5z"/>
	<path d="M3.646,21.107c-0.2,0-0.389-0.078-0.53-0.22c-0.292-0.292-0.292-0.768,0-1.061l1.061-1.061
		c0.142-0.142,0.33-0.22,0.53-0.22s0.389,0.078,0.53,0.22c0.292,0.292,0.292,0.768,0,1.061l-1.061,1.061
		C4.034,21.029,3.846,21.107,3.646,21.107z"/>
</g>
</svg>
