<?xml version="1.0" encoding="utf-8"?>
<!-- Generator: Adobe Illustrator 22.1.0, SVG Export Plug-In . SVG Version: 6.00 Build 0)  -->
<svg version="1.1" id="Regular" xmlns="http://www.w3.org/2000/svg" xmlns:xlink="http://www.w3.org/1999/xlink" x="0px" y="0px"
	 viewBox="0 0 24 24" style="enable-background:new 0 0 24 24;" xml:space="preserve">
<title>make-up-mirror-1</title>
<g>
	<path d="M3.75,24.005c-2.068,0-3.75-1.682-3.75-3.75v-0.75c0-0.827,0.673-1.5,1.5-1.5h3.116c-1.441-1.416-2.426-3.198-2.869-5.207
		c-0.603-2.739-0.104-5.549,1.406-7.912c1.938-3.033,5.252-4.844,8.864-4.844c2,0,3.949,0.57,5.637,1.649
		c2.364,1.51,3.997,3.85,4.6,6.589c0.603,2.739,0.104,5.549-1.406,7.912c-0.419,0.655-0.91,1.262-1.468,1.812H22.5
		c0.827,0,1.5,0.673,1.5,1.5v0.75c0,2.068-1.682,3.75-3.75,3.75H3.75z M1.5,19.505l0,0.75c0,1.241,1.009,2.25,2.25,2.25h16.5
		c1.241,0,2.25-1.009,2.25-2.25v-0.75h-6.314c-0.607,0.992-1.259,1.5-1.932,1.5H9.75c-0.682,0-1.335-0.51-1.942-1.517L1.5,19.505z
		 M14.229,19.505c0.082-0.036,0.344-0.238,0.686-0.795c0.277-0.443,0.747-0.705,1.259-0.705h0.85c1.02-0.687,1.904-1.591,2.562-2.62
		c1.294-2.026,1.722-4.434,1.205-6.782c-0.517-2.348-1.917-4.354-3.943-5.648c-1.447-0.925-3.118-1.414-4.831-1.414
		c-3.097,0-5.938,1.552-7.599,4.151c-1.295,2.026-1.723,4.434-1.206,6.782c0.501,2.273,1.837,4.233,3.767,5.53h0.84
		c0.516,0,0.998,0.268,1.268,0.698c0.342,0.567,0.607,0.767,0.688,0.802H14.229z"/>
	<path d="M12,18.005c-4.135,0-7.5-3.365-7.5-7.5c0-4.135,3.365-7.5,7.5-7.5s7.5,3.365,7.5,7.5C19.5,14.641,16.135,18.005,12,18.005z
		 M12,4.506c-3.308,0-6,2.692-6,6c0,3.308,2.692,6,6,6s6-2.692,6-6C18,7.197,15.308,4.506,12,4.506z"/>
</g>
</svg>
