<?xml version="1.0" encoding="utf-8"?>
<!-- Generator: Adobe Illustrator 22.1.0, SVG Export Plug-In . SVG Version: 6.00 Build 0)  -->
<svg version="1.1" id="Regular" xmlns="http://www.w3.org/2000/svg" xmlns:xlink="http://www.w3.org/1999/xlink" x="0px" y="0px"
	 viewBox="0 0 24 24" style="enable-background:new 0 0 24 24;" xml:space="preserve">
<title>make-up-brush-set</title>
<g>
	<path d="M3.75,23.999c-2.068,0-3.75-1.682-3.75-3.75v-16.5c0-2.068,1.682-3.75,3.75-3.75h16.5c2.068,0,3.75,1.682,3.75,3.75v16.5
		c0,2.068-1.682,3.75-3.75,3.75H3.75z M3.75,1.499c-1.241,0-2.25,1.009-2.25,2.25v16.5c0,1.241,1.009,2.25,2.25,2.25h16.5
		c1.241,0,2.25-1.009,2.25-2.25v-16.5c0-1.241-1.009-2.25-2.25-2.25H3.75z"/>
	<path d="M6.75,20.999c-1.241,0-2.25-1.009-2.25-2.25V9.854l-1.289-4.51C2.999,4.589,3.409,3.789,4.143,3.521
		c0.821-0.319,1.693-0.495,2.585-0.521c0.928,0.026,1.81,0.203,2.643,0.526c0.722,0.264,1.129,1.06,0.92,1.812
		C10.29,5.34,9,9.854,9,9.854v8.895C9,19.99,7.991,20.999,6.75,20.999z M6,18.749c0,0.414,0.336,0.75,0.75,0.75
		s0.75-0.336,0.75-0.75v-8.25H6V18.749z M7.684,8.999l1.162-4.066c-0.685-0.268-1.39-0.412-2.107-0.434
		C6.036,4.522,5.34,4.665,4.671,4.924l1.146,4.075H7.684z"/>
	<path d="M14.25,19.499c-1.241,0-2.25-1.009-2.25-2.25v-10.5c0-1.241,1.009-2.25,2.25-2.25h3c1.241,0,2.25,1.009,2.25,2.25v10.5
		c0,1.241-1.009,2.25-2.25,2.25H14.25z M13.5,17.249c0,0.414,0.336,0.75,0.75,0.75h3c0.414,0,0.75-0.336,0.75-0.75v-2.25h-4.5
		V17.249z M18,13.499v-3h-4.5v3H18z M18,8.999v-2.25c0-0.414-0.336-0.75-0.75-0.75h-3c-0.414,0-0.75,0.336-0.75,0.75v2.25H18z"/>
</g>
</svg>
