<?xml version="1.0" encoding="utf-8"?>
<!-- Generator: Adobe Illustrator 22.1.0, SVG Export Plug-In . SVG Version: 6.00 Build 0)  -->
<svg version="1.1" id="Layer_1" xmlns="http://www.w3.org/2000/svg" xmlns:xlink="http://www.w3.org/1999/xlink" x="0px" y="0px"
	 viewBox="0 0 24 24" style="enable-background:new 0 0 24 24;" xml:space="preserve">
<title>maps-search</title>
<g>
	<path d="M8.25,20.769c-0.286,0-0.568-0.054-0.836-0.162l-6-2.4C0.555,17.863,0,17.043,0,16.118V1.745
		c-0.001-0.191,0.035-0.381,0.108-0.562C0.257,0.811,0.542,0.519,0.91,0.362C1.098,0.281,1.297,0.24,1.5,0.24
		c0.191,0,0.379,0.037,0.559,0.109l5.913,2.366c0.085,0.034,0.174,0.052,0.265,0.053c0.005,0,0.022,0,0.027,0
		c0.09-0.002,0.18-0.02,0.265-0.054l6.385-2.555c0.268-0.107,0.549-0.162,0.836-0.162c0.287,0,0.568,0.054,0.835,0.162l6,2.4
		C23.445,2.903,24,3.723,24,4.649v6.6c0,0.414-0.336,0.75-0.75,0.75s-0.75-0.336-0.75-0.75v-6.6c0-0.309-0.185-0.582-0.471-0.697
		L16.5,1.741v5.758c0,0.414-0.336,0.75-0.75,0.75S15,7.912,15,7.499V1.741L9.086,4.107C9.057,4.118,9.029,4.129,9,4.139v7.11
		c0,0.414-0.336,0.75-0.75,0.75c-0.414,0-0.75-0.336-0.75-0.75v-7.11c-0.029-0.01-0.057-0.021-0.086-0.032L1.5,1.741l0,14.377
		c0,0.309,0.185,0.582,0.472,0.697l6,2.4c0.09,0.036,0.183,0.054,0.278,0.054c0.095,0,0.189-0.018,0.278-0.054
		c0.089-0.036,0.183-0.054,0.279-0.054c0.308,0,0.582,0.185,0.696,0.471c0.154,0.384-0.034,0.822-0.418,0.975
		C8.818,20.714,8.536,20.769,8.25,20.769z"/>
	<path d="M23.25,23.999c-0.2,0-0.389-0.078-0.53-0.22l-2.543-2.543c-1.051,0.817-2.343,1.263-3.677,1.263c-3.308,0-6-2.692-6-6
		s2.692-6,6-6s6,2.692,6,6c0,1.333-0.446,2.626-1.263,3.677l2.543,2.543c0.292,0.292,0.292,0.768,0,1.061
		C23.639,23.921,23.45,23.999,23.25,23.999z M16.5,11.999c-2.481,0-4.5,2.019-4.5,4.5s2.019,4.5,4.5,4.5s4.5-2.019,4.5-4.5
		S18.981,11.999,16.5,11.999z"/>
</g>
</svg>
