<?xml version="1.0" encoding="utf-8"?>
<!-- Generator: Adobe Illustrator 22.1.0, SVG Export Plug-In . SVG Version: 6.00 Build 0)  -->
<svg version="1.1" id="Regular" xmlns="http://www.w3.org/2000/svg" xmlns:xlink="http://www.w3.org/1999/xlink" x="0px" y="0px"
	 viewBox="0 0 24 24" style="enable-background:new 0 0 24 24;" xml:space="preserve">
<title>marine-mammal-penguin-mother</title>
<g>
	<path d="M13.504,24c-0.414,0-0.75-0.336-0.75-0.75s0.336-0.75,0.75-0.75h5.622c-0.56-1.468-0.919-3.006-1.069-4.584
		c-1.188-0.24-3.803-1.217-3.803-5.166c0-0.414,0.336-0.75,0.75-0.75s0.75,0.336,0.75,0.75c0,0.935,0.229,3.067,2.25,3.63V9.75
		c0-5.397-1.556-8.25-4.5-8.25c-2.538,0-5.25,1.182-5.25,4.5c0,2.53,1.093,2.927,1.422,2.989c0.29-0.502,0.657-0.943,1.094-1.312
		C10.905,7.563,11.077,7.5,11.254,7.5c0.221,0,0.43,0.097,0.573,0.266c0.129,0.153,0.191,0.348,0.174,0.547s-0.11,0.381-0.263,0.51
		c-0.73,0.616-1.18,1.517-1.235,2.47C10.48,11.69,10.151,12,9.754,12c-0.006,0-0.034-0.001-0.041-0.001
		c-0.203-0.012-0.387-0.1-0.52-0.25s-0.2-0.342-0.189-0.542c0.016-0.269,0.057-0.545,0.122-0.823C8.26,10.109,6.754,9.173,6.754,6
		c0-1.997,0.775-3.613,2.24-4.673C10.176,0.471,11.778,0,13.504,0c2.241,0,6,1.267,6,9.75v7.487c0.119,1.966,0.601,3.892,1.432,5.7
		c0.107,0.233,0.088,0.502-0.05,0.718C20.747,23.871,20.511,24,20.254,24H13.504z"/>
	<path d="M5.668,24c-1.03,0-1.78-0.316-2.229-0.94c-0.582-0.808-0.577-2.015,0.018-3.798c0.443-1.329,1.226-2.299,2.211-2.744V16.5
		c0-0.023,0.001-0.047,0.003-0.071c0.072-0.764,0.425-1.469,0.992-1.985C7.561,13.546,9.74,13.5,10.168,13.5h1.836
		c0.414,0,0.75,0.336,0.75,0.75S12.418,15,12.004,15H11.31c0.107,0.45,0.121,0.918,0.04,1.377c-0.159,0.9-0.658,1.685-1.407,2.21
		c-0.018,0.013-0.036,0.025-0.055,0.037c0.276,0.836,0.28,1.59,0.28,1.625c0,0.414-0.336,0.75-0.75,0.75s-0.75-0.336-0.75-0.75
		c0-0.015-0.031-1.802-1.085-2.329c-0.225-0.113-0.457-0.17-0.687-0.17c-0.189,0-0.379,0.039-0.564,0.115
		c-0.619,0.257-1.135,0.921-1.452,1.871c-0.519,1.558-0.408,2.19-0.224,2.446C4.844,22.445,5.31,22.5,5.668,22.5h4.5
		c0.414,0,0.75,0.336,0.75,0.75S10.582,24,10.168,24H5.668z M7.222,16.273c0.355,0.039,0.701,0.141,1.031,0.306
		c0.346,0.173,0.651,0.414,0.912,0.718c0.375-0.293,0.624-0.708,0.707-1.18c0.067-0.381,0.022-0.758-0.131-1.103
		C8.8,15.071,7.946,15.283,7.698,15.53C7.464,15.744,7.304,15.995,7.222,16.273z"/>
</g>
</svg>
