<?xml version="1.0" encoding="utf-8"?>
<!-- Generator: Adobe Illustrator 22.1.0, SVG Export Plug-In . SVG Version: 6.00 Build 0)  -->
<svg version="1.1" id="Regular" xmlns="http://www.w3.org/2000/svg" xmlns:xlink="http://www.w3.org/1999/xlink" x="0px" y="0px"
	 viewBox="0 0 24 24" style="enable-background:new 0 0 24 24;" xml:space="preserve">
<title>marine-mammal-penguin-crested</title>
<g>
	<path d="M12.17,23.75c-2.579,0-4.896-0.908-6.524-2.556c-1.244-1.267-2.045-2.898-2.341-4.747c-0.299,0.048-0.599,0.105-0.895,0.17
		c-0.106,0.023-0.215,0.035-0.324,0.035c-0.195,0-0.385-0.038-0.566-0.112c-0.756-0.309-1.128-1.179-0.828-1.939
		c0.499-1.497,1.503-2.806,2.832-3.687c0.412-2.406,1.503-4.624,3.16-6.423C6.827,4.338,7.028,4.25,7.237,4.25
		c0.189,0,0.369,0.07,0.508,0.198c0.304,0.281,0.323,0.756,0.043,1.06c-1.533,1.663-2.512,3.726-2.833,5.966
		c-0.032,0.226-0.164,0.423-0.36,0.539c-1.175,0.696-2.059,1.793-2.489,3.09C2.1,15.12,2.095,15.136,2.088,15.151
		c0.589-0.129,1.19-0.229,1.786-0.296C3.9,14.852,3.93,14.85,3.961,14.85c0.172,0,0.34,0.061,0.474,0.171
		c0.156,0.128,0.255,0.317,0.271,0.518c0.088,1.083,0.377,2.099,0.844,2.99c0.22-1.428,0.802-3.523,2.339-5.059
		c0.141-0.142,0.329-0.22,0.528-0.22c0.019,0,0.038,0.001,0.058,0.002c0.214,0.015,0.413,0.123,0.544,0.297
		c0.957,1.276,2.046,1.95,3.15,1.95c1.104,0,2.193-0.674,3.15-1.95c0.141-0.188,0.365-0.3,0.6-0.3c0.148,0,0.292,0.043,0.416,0.126
		c1.677,1.118,2.269,3.477,2.476,5.116c0.456-0.882,0.737-1.885,0.823-2.952c0.016-0.201,0.115-0.39,0.27-0.519
		c0.136-0.111,0.304-0.172,0.475-0.172c0.03,0,0.06,0.002,0.091,0.006c0.592,0.067,1.192,0.167,1.782,0.296
		c-0.006-0.016-0.013-0.034-0.019-0.053c-0.428-1.292-1.312-2.389-2.488-3.085c-0.197-0.117-0.328-0.313-0.36-0.54
		c-0.321-2.239-1.301-4.302-2.834-5.965c-0.136-0.147-0.206-0.339-0.198-0.539c0.008-0.2,0.094-0.385,0.241-0.521
		c0.138-0.128,0.319-0.199,0.508-0.199c0.209,0,0.41,0.088,0.552,0.242c1.658,1.798,2.749,4.016,3.161,6.422
		c1.329,0.881,2.333,2.19,2.839,3.705c0.105,0.261,0.129,0.566,0.062,0.861c-0.152,0.678-0.767,1.171-1.463,1.171l0,0
		c-0.109,0-0.219-0.012-0.327-0.036c-0.293-0.064-0.592-0.121-0.892-0.169C20.336,20.832,16.82,23.75,12.17,23.75z M6.92,20.325
		c1.352,1.26,3.163,1.925,5.25,1.925c2.087,0,3.899-0.664,5.25-1.922V20c0-0.035-0.028-3.347-1.412-4.927
		C14.867,16.335,13.547,17,12.17,17c-1.344,0-2.635-0.634-3.757-1.838c-1.461,2.01-1.493,4.81-1.493,4.839V20.325z"/>
	<path d="M12.17,14c-1.476,0-2.25-2.415-2.25-3.25c0-0.025,0.001-0.05,0.004-0.074c0.108-1.083,1.045-1.93,2.133-1.93
		c0.038,0,0.075,0.001,0.113,0.003c0.039-0.002,0.078-0.003,0.116-0.003c1.088,0,2.023,0.848,2.131,1.931
		c0.002,0.025,0.003,0.049,0.003,0.074C14.42,11.585,13.646,14,12.17,14z M11.421,10.788c0.025,0.525,0.493,1.513,0.749,1.696
		c0.256-0.183,0.725-1.171,0.749-1.696c-0.048-0.306-0.323-0.542-0.635-0.542c-0.017,0-0.035,0.001-0.052,0.002
		c-0.02,0.002-0.041,0.003-0.062,0.003c-0.021,0-0.042-0.001-0.062-0.003c-0.017-0.001-0.035-0.002-0.052-0.002
		C11.744,10.245,11.47,10.482,11.421,10.788z"/>
	<path d="M12.17,6.5c-0.223,0-0.433-0.098-0.576-0.27C10.61,5.054,7.583,2,5.42,2C5.006,2,4.67,1.664,4.67,1.25S5.006,0.5,5.42,0.5
		c1.095,0,2.351,0.489,3.736,1.454c0.939-0.45,1.973-0.693,3.005-0.704c1.045,0.012,2.083,0.255,3.023,0.704
		C16.569,0.989,17.825,0.5,18.92,0.5c0.414,0,0.75,0.336,0.75,0.75S19.333,2,18.92,2c-0.871,0-1.949,0.478-3.205,1.42
		c-0.003,0.002-0.017,0.013-0.031,0.023c-1.616,1.217-2.925,2.772-2.938,2.788C12.603,6.402,12.393,6.5,12.17,6.5z M10.517,3.023
		c0.685,0.595,1.26,1.178,1.652,1.6c0.393-0.422,0.968-1.005,1.652-1.6c-0.538-0.173-1.101-0.266-1.656-0.273
		C11.614,2.757,11.054,2.85,10.517,3.023z"/>
	<path d="M8.795,8.75c-0.571,0-1.047-0.426-1.114-0.994C7.674,7.713,7.67,7.669,7.67,7.625s0.004-0.088,0.011-0.131
		c0.064-0.543,0.502-0.958,1.05-0.989C8.739,6.503,8.766,6.5,8.794,6.5c0.62,0,1.124,0.503,1.126,1.121c0,0.001,0,0.003,0,0.003
		C9.921,8.243,9.418,8.748,8.799,8.75C8.799,8.75,8.795,8.75,8.795,8.75z"/>
	<path d="M15.545,8.75c-0.572,0-1.047-0.426-1.114-0.995c-0.007-0.042-0.011-0.086-0.011-0.13s0.004-0.088,0.011-0.13
		c0.063-0.54,0.5-0.955,1.044-0.989C15.486,6.503,15.514,6.5,15.543,6.5c0.302,0,0.583,0.116,0.795,0.327
		c0.213,0.212,0.331,0.494,0.331,0.794c0,0.001,0,0.003,0,0.003c0.001,0.619-0.501,1.124-1.121,1.126
		C15.549,8.75,15.545,8.75,15.545,8.75z"/>
</g>
</svg>
