<?xml version="1.0" encoding="utf-8"?>
<!-- Generator: Adobe Illustrator 22.1.0, SVG Export Plug-In . SVG Version: 6.00 Build 0)  -->
<svg version="1.1" id="Regular" xmlns="http://www.w3.org/2000/svg" xmlns:xlink="http://www.w3.org/1999/xlink" x="0px" y="0px"
	 viewBox="0 0 24 24" style="enable-background:new 0 0 24 24;" xml:space="preserve">
<title>marine-mammal-seal</title>
<g>
	<path d="M18.746,5.751c-0.414,0-0.75-0.336-0.75-0.75c0-1.654-1.682-3-3.75-3c-2.068,0-3.75,1.346-3.75,3
		c0,0.414-0.336,0.75-0.75,0.75s-0.75-0.336-0.75-0.75c0-2.481,2.355-4.5,5.25-4.5c2.895,0,5.25,2.019,5.25,4.5
		C19.496,5.414,19.159,5.751,18.746,5.751z"/>
	<path d="M20.554,23.751c-0.282,0-0.562-0.03-0.831-0.089c-0.616-0.135-1.186-0.424-1.696-0.86
		c-1.215,0.393-2.469,0.634-3.732,0.718c-0.008,0-0.042,0.001-0.05,0.001c-0.016,0-0.032,0-0.047-0.001
		c-1.267-0.084-2.521-0.325-3.735-0.718c-0.51,0.436-1.08,0.725-1.696,0.861c-0.269,0.059-0.549,0.089-0.831,0.089H7.936
		c-1.714,0-3.101-1.098-3.16-1.145c-0.2-0.16-0.304-0.408-0.277-0.664c0.027-0.255,0.18-0.476,0.41-0.592l0,0
		c0,0,0.215-0.119,0.542-0.414C4.42,20.453,2.791,19.178,1.75,15.83c-1.927-0.921-1.904-3.321-1.612-4.491
		c0.056-0.224,0.209-0.406,0.419-0.501c0.098-0.044,0.202-0.066,0.308-0.066c0.119,0,0.238,0.029,0.345,0.084
		c0.01,0.005,1.155,0.579,2.459,0.579c0.733,0,1.376-0.181,1.911-0.537c0.123-0.082,0.267-0.126,0.416-0.126
		c0.065,0,0.129,0.008,0.192,0.025c0.208,0.055,0.382,0.197,0.479,0.39c0.98,1.961-0.814,3.789-0.891,3.866
		c-0.142,0.142-0.33,0.22-0.53,0.22s-0.389-0.078-0.53-0.22c-0.292-0.292-0.292-0.768,0-1.061c0.006-0.006,0.605-0.629,0.719-1.35
		c-0.547,0.2-1.141,0.301-1.772,0.301c-0.83,0-1.588-0.172-2.173-0.363c-0.012,0.74,0.175,1.668,1.113,1.98
		c0.235,0.078,0.416,0.267,0.484,0.505c0.874,3.059,2.337,4.398,3.415,4.659c0.761-1.093,1.71-2.996,2.184-6.067
		c0.057-0.368,0.369-0.635,0.741-0.635c0.038,0,0.076,0.003,0.114,0.009c0.409,0.063,0.69,0.447,0.627,0.856
		c-0.715,4.63-2.399,6.955-3.577,8.053c0.388,0.17,0.858,0.311,1.353,0.311c0.174,0,0.345-0.018,0.506-0.054
		c0.835-0.185,1.55-0.861,2.125-2.01c0.129-0.256,0.386-0.414,0.672-0.414c0.115,0,0.231,0.027,0.334,0.079
		c0.37,0.186,0.521,0.637,0.336,1.006c-0.123,0.246-0.255,0.479-0.394,0.698c0.89,0.245,1.804,0.401,2.723,0.465
		c0.919-0.064,1.832-0.22,2.723-0.465c-0.139-0.219-0.271-0.452-0.394-0.698c-0.185-0.37-0.034-0.821,0.335-1.006
		c0.105-0.052,0.22-0.079,0.335-0.079c0.286,0,0.543,0.159,0.671,0.414c0.575,1.151,1.292,1.827,2.129,2.011
		c0.162,0.035,0.333,0.053,0.507,0.053c0.494,0,0.963-0.14,1.349-0.31c-1.179-1.099-2.865-3.424-3.578-8.056
		c-0.063-0.409,0.219-0.792,0.627-0.855c0.039-0.006,0.077-0.009,0.114-0.009c0.373,0,0.685,0.268,0.741,0.636
		c0.944,6.136,3.751,7.68,3.779,7.695c0.226,0.113,0.379,0.334,0.406,0.59c0.027,0.255-0.076,0.504-0.277,0.665
		C23.656,22.653,22.264,23.751,20.554,23.751z"/>
	<path d="M12.371,7.251c-0.044,0-0.088-0.004-0.131-0.012c-0.513-0.06-0.922-0.47-0.982-0.982c-0.008-0.043-0.012-0.087-0.012-0.131
		s0.004-0.088,0.012-0.131c0.06-0.513,0.47-0.922,0.982-0.982c0.043-0.008,0.087-0.012,0.131-0.012s0.088,0.004,0.131,0.011
		c0.513,0.06,0.922,0.47,0.982,0.983c0.008,0.042,0.011,0.086,0.011,0.13s-0.004,0.088-0.011,0.13
		c-0.06,0.513-0.469,0.923-0.982,0.983C12.458,7.247,12.414,7.251,12.371,7.251z"/>
	<path d="M16.121,7.251c-0.044,0-0.088-0.004-0.131-0.011c-0.513-0.06-0.922-0.47-0.983-0.983c-0.007-0.042-0.011-0.086-0.011-0.13
		s0.004-0.088,0.011-0.13c0.06-0.513,0.47-0.923,0.983-0.983c0.043-0.008,0.087-0.011,0.131-0.011s0.088,0.004,0.131,0.011
		c0.513,0.06,0.922,0.47,0.982,0.983c0.008,0.042,0.011,0.086,0.011,0.13s-0.004,0.088-0.011,0.13
		c-0.06,0.513-0.469,0.923-0.982,0.983C16.208,7.247,16.164,7.251,16.121,7.251z"/>
	<path d="M13.496,9.501c-0.414,0-0.75-0.336-0.75-0.75s0.336-0.75,0.75-0.75h1.5c0.414,0,0.75,0.336,0.75,0.75
		s-0.336,0.75-0.75,0.75H13.496z"/>
	<path d="M20.245,11.751c-0.148,0-0.292-0.044-0.416-0.126l-2.25-1.5c-0.209-0.14-0.334-0.373-0.334-0.624s0.125-0.484,0.334-0.624
		l2.25-1.5c0.123-0.082,0.267-0.126,0.416-0.126c0.251,0,0.485,0.125,0.625,0.334c0.111,0.167,0.151,0.367,0.112,0.563
		c-0.039,0.197-0.153,0.366-0.32,0.477l-1.314,0.876l1.314,0.876c0.167,0.111,0.28,0.28,0.32,0.477c0.039,0.196,0,0.396-0.112,0.563
		C20.73,11.626,20.497,11.751,20.245,11.751z"/>
	<path d="M8.246,11.751c-0.252,0-0.485-0.125-0.624-0.334c-0.229-0.344-0.136-0.811,0.208-1.04l1.314-0.876L7.83,8.625
		c-0.344-0.229-0.437-0.696-0.208-1.04c0.139-0.209,0.373-0.334,0.624-0.334c0.148,0,0.292,0.044,0.416,0.126l2.25,1.5
		c0.209,0.139,0.334,0.373,0.334,0.624s-0.125,0.485-0.334,0.624l-2.25,1.5C8.538,11.707,8.394,11.751,8.246,11.751z"/>
</g>
</svg>
