<?xml version="1.0" encoding="utf-8"?>
<!-- Generator: Adobe Illustrator 22.1.0, SVG Export Plug-In . SVG Version: 6.00 Build 0)  -->
<svg version="1.1" id="Regular" xmlns="http://www.w3.org/2000/svg" xmlns:xlink="http://www.w3.org/1999/xlink" x="0px" y="0px"
	 viewBox="0 0 24 24" style="enable-background:new 0 0 24 24;" xml:space="preserve">
<title>marine-mammal-turtle-1</title>
<g>
	<path d="M20.64,24c-0.021,0-2.068-0.034-2.068-3c0-0.414,0.336-0.75,0.75-0.75s0.75,0.336,0.75,0.75
		c0,0.745,0.158,1.121,0.309,1.31c0.72-1.206,0.815-2.707,0.235-4.003c-0.128-0.289-0.317-0.476-0.576-0.573
		c-0.145-0.054-0.316-0.081-0.508-0.081c-0.303,0-0.647,0.069-1.005,0.2C17.747,21.483,15.087,24,12,24
		c-3.087,0-5.747-2.518-6.527-6.148c-0.358-0.131-0.702-0.199-1.005-0.199c-0.192,0-0.363,0.027-0.509,0.082
		c-0.259,0.096-0.447,0.283-0.575,0.571C2.805,19.6,2.899,21.1,3.617,22.305c0.152-0.19,0.311-0.566,0.311-1.305
		c0-0.414,0.336-0.75,0.75-0.75s0.75,0.336,0.75,0.75c0,2.966-2.047,3-2.068,3c-0.23,0-0.444-0.103-0.587-0.284
		c-1.363-1.716-1.653-4.023-0.757-6.023c0.291-0.655,0.783-1.127,1.422-1.365c0.314-0.117,0.661-0.177,1.033-0.177
		c0.255,0,0.521,0.028,0.793,0.084C5.254,16.071,5.25,15.908,5.25,15.75c0-1.686,0.414-3.305,1.199-4.689
		c0.005-0.103,0.031-0.203,0.078-0.297c0.069-0.137,0.175-0.247,0.306-0.319c0.187-0.271,0.392-0.532,0.612-0.778
		C7.096,8.589,6.292,7.5,5.25,7.5c-1.9,0-3.454,2.661-3.711,5.203c0.646-0.141,1.217-0.535,1.578-1.104
		C3.255,11.38,3.492,11.25,3.75,11.25c0.142,0,0.281,0.04,0.401,0.117c0.349,0.222,0.453,0.686,0.232,1.035
		c-0.738,1.164-2,1.859-3.375,1.859c-0.105,0-0.211-0.004-0.317-0.013C0.304,14.217,0,13.889,0,13.5C0,9.505,2.453,6,5.25,6
		c1.657,0,2.799,1.267,3.39,2.596c0.353-0.248,0.723-0.457,1.105-0.623c-0.031-0.98-0.216-1.618-0.396-2.238
		C9.177,5.145,9,4.534,9,3.75C9,1.818,10.69,0,12,0c1.31,0,3,1.818,3,3.75c0,0.781-0.177,1.392-0.349,1.982
		c-0.18,0.62-0.365,1.261-0.395,2.241c0.382,0.166,0.751,0.374,1.104,0.622C15.951,7.267,17.093,6,18.75,6
		C21.547,6,24,9.505,24,13.5c0,0.389-0.304,0.717-0.691,0.748c-0.106,0.008-0.212,0.013-0.317,0.013
		c-1.376,0-2.638-0.695-3.375-1.859c-0.221-0.349-0.117-0.814,0.232-1.035c0.12-0.076,0.259-0.116,0.401-0.116
		c0.259,0,0.496,0.13,0.634,0.349c0.361,0.569,0.932,0.963,1.578,1.104C22.205,10.161,20.65,7.5,18.75,7.5
		c-1.042,0-1.846,1.089-2.195,2.167c0.22,0.245,0.425,0.506,0.612,0.777c0.131,0.073,0.237,0.183,0.306,0.32
		c0.047,0.093,0.073,0.194,0.078,0.297c0.785,1.384,1.199,3.003,1.199,4.69c0,0.161-0.004,0.322-0.012,0.485
		c0.272-0.055,0.537-0.083,0.793-0.083c0.371,0,0.719,0.059,1.033,0.177c0.639,0.238,1.13,0.71,1.422,1.367
		c0.895,1.998,0.604,4.306-0.758,6.021C21.084,23.897,20.87,24,20.64,24z M9.83,21.893C10.509,22.291,11.252,22.5,12,22.5
		c0.554,0,1.098-0.111,1.621-0.332l-1.358-2.716C12.179,19.484,12.089,19.5,12,19.5c-0.11,0-0.221-0.025-0.321-0.072L9.83,21.893z
		 M14.898,21.37c0.687-0.587,1.255-1.369,1.664-2.292l-0.932-1.305l-2.024,1.012L14.898,21.37z M7.437,19.078
		c0.316,0.711,0.734,1.349,1.225,1.872l1.653-2.204l-1.946-0.973L7.437,19.078z M12,17.912l2.748-1.374l-1.88-2.632l-0.532,0.266
		c-0.104,0.052-0.22,0.079-0.335,0.079s-0.232-0.027-0.335-0.079l-0.532-0.266l-1.881,2.632L12,17.912z M6.851,17.067
		c0.022,0.062,0.036,0.127,0.042,0.193l2.882-4.034l-2.198-1.099c-0.541,1.085-0.826,2.33-0.826,3.623
		C6.75,16.192,6.784,16.635,6.851,17.067z M17.107,17.26c0.005-0.065,0.019-0.13,0.042-0.193c0.067-0.433,0.101-0.876,0.101-1.317
		c0-1.293-0.285-2.538-0.826-3.623l-2.198,1.099L17.107,17.26z M12,12.662l3.608-1.804C14.635,9.672,13.34,9,12,9
		s-2.635,0.672-3.608,1.857c0,0,2.826,1.413,2.828,1.414L12,12.662z M12,7.5c0.255,0,0.514,0.019,0.773,0.056
		c0.066-0.962,0.262-1.637,0.438-2.241C13.372,4.758,13.5,4.318,13.5,3.75c0-1.278-1.187-2.245-1.5-2.25
		c-0.313,0.005-1.5,0.972-1.5,2.25c0,0.57,0.128,1.01,0.289,1.568c0.175,0.604,0.371,1.277,0.438,2.238
		C11.486,7.519,11.745,7.5,12,7.5z"/>
</g>
</svg>
