<?xml version="1.0" encoding="utf-8"?>
<!-- Generator: Adobe Illustrator 22.1.0, SVG Export Plug-In . SVG Version: 6.00 Build 0)  -->
<svg version="1.1" id="Regular" xmlns="http://www.w3.org/2000/svg" xmlns:xlink="http://www.w3.org/1999/xlink" x="0px" y="0px"
	 viewBox="0 0 24 24" style="enable-background:new 0 0 24 24;" xml:space="preserve">
<title>marine-mammal-seal-ball</title>
<g>
	<path d="M1.504,24c-0.217,0-0.435-0.048-0.632-0.14c-0.363-0.169-0.639-0.469-0.777-0.845c-0.138-0.376-0.12-0.784,0.048-1.147
		c0.59-1.295,1.789-2.179,3.206-2.36c0.033-0.004,0.063-0.006,0.093-0.006c0.378,0,0.698,0.281,0.746,0.655
		c0.052,0.41-0.239,0.787-0.649,0.839c-0.898,0.115-1.658,0.675-2.034,1.499L22.248,22.5c-0.135-1.039-0.951-1.572-2.425-1.588
		c-0.211-0.002-0.413-0.094-0.553-0.252c-0.14-0.158-0.208-0.369-0.185-0.579c0.136-1.254-0.711-2.501-2.518-3.707
		c-1.279-0.954-2.766-1.452-4.317-1.452c-1.108,0-2.179,0.252-3.184,0.75c-0.103,0.051-0.218,0.078-0.333,0.078
		c-0.14,0-0.277-0.039-0.395-0.113C8.117,15.5,7.984,15.262,7.984,15c0-0.051-0.051-5.041-2.842-5.936
		c-2.06,1.581-3.238,4.058-3.158,6.663c-0.004,0.729,0.047,1.448,0.149,2.147c0.029,0.198-0.021,0.396-0.14,0.557
		c-0.12,0.161-0.295,0.265-0.493,0.294c-0.037,0.005-0.073,0.008-0.109,0.008c-0.37,0-0.688-0.276-0.742-0.641
		c-0.114-0.774-0.169-1.564-0.165-2.346c-0.082-2.658,0.944-5.204,2.832-7.07C2.766,8.457,2.264,8.13,1.838,7.714
		c-0.013-0.01-0.025-0.021-0.036-0.031C1.791,7.672,1.78,7.659,1.77,7.646C0.943,6.805,0.484,5.686,0.484,4.5
		c0-1.183,0.457-2.299,1.286-3.146c0.01-0.013,0.021-0.025,0.031-0.036c0.011-0.011,0.023-0.022,0.037-0.032
		C2.679,0.459,3.798,0,4.984,0C6.17,0,7.288,0.458,8.135,1.291c0.011,0.009,0.021,0.018,0.03,0.027
		c0.01,0.01,0.019,0.021,0.028,0.032c0.828,0.837,1.29,1.96,1.29,3.15c0,1.186-0.458,2.304-1.292,3.152
		c-0.009,0.011-0.018,0.021-0.027,0.03c-0.009,0.009-0.02,0.018-0.03,0.027C7.829,8.011,7.472,8.27,7.085,8.475
		c0.847,0.726,1.484,1.806,1.9,3.22c0.239,0.812,0.364,1.592,0.43,2.207c0.917-0.32,1.871-0.482,2.842-0.482
		c1.873,0,3.663,0.598,5.177,1.729c1.951,1.301,3.014,2.754,3.152,4.312c1.054,0.138,2.869,0.692,3.152,2.844
		c0.008,0.069,0.012,0.131,0.012,0.194c0,0.828-0.674,1.501-1.501,1.501H1.504z M3.462,7.083C3.922,7.357,4.441,7.5,4.984,7.5
		c0.543,0,1.062-0.143,1.522-0.417L4.984,5.561L3.462,7.083z M7.567,6.023C7.841,5.563,7.984,5.044,7.984,4.5
		S7.841,3.437,7.567,2.977L6.044,4.5L7.567,6.023z M2.401,2.978C2.127,3.438,1.984,3.957,1.984,4.5s0.143,1.062,0.417,1.522
		L3.923,4.5L2.401,2.978z M4.984,3.439l1.522-1.522C6.046,1.643,5.527,1.5,4.984,1.5c-0.543,0-1.062,0.143-1.522,0.417L4.984,3.439z
		"/>
	<path d="M5.359,13.5c-0.044,0-0.088-0.004-0.13-0.011c-0.513-0.06-0.923-0.47-0.983-0.983c-0.008-0.043-0.011-0.087-0.011-0.131
		s0.004-0.088,0.012-0.131c0.06-0.513,0.47-0.922,0.982-0.982c0.043-0.008,0.087-0.012,0.131-0.012s0.088,0.004,0.131,0.012
		c0.513,0.06,0.922,0.47,0.982,0.982c0.008,0.043,0.012,0.087,0.012,0.131s-0.004,0.088-0.011,0.131
		c-0.06,0.513-0.47,0.922-0.983,0.983C5.447,13.496,5.404,13.5,5.359,13.5z"/>
</g>
</svg>
