<?xml version="1.0" encoding="utf-8"?>
<!-- Generator: Adobe Illustrator 22.1.0, SVG Export Plug-In . SVG Version: 6.00 Build 0)  -->
<svg version="1.1" id="Regular" xmlns="http://www.w3.org/2000/svg" xmlns:xlink="http://www.w3.org/1999/xlink" x="0px" y="0px"
	 viewBox="0 0 24 24" style="enable-background:new 0 0 24 24;" xml:space="preserve">
<title>martial-arts-fencing-person</title>
<g>
	<path d="M10.501,12c-3.308,0-6-2.692-6-6s2.692-6,6-6s6,2.692,6,6S13.809,12,10.501,12z M6.068,6.75
		c0.318,1.869,1.814,3.364,3.682,3.682V6.75H6.068z M11.251,10.432c1.869-0.318,3.364-1.814,3.682-3.682h-3.682V10.432z
		 M14.933,5.25c-0.318-1.869-1.814-3.364-3.682-3.682V5.25H14.933z M9.751,5.25V1.567C7.882,1.886,6.387,3.381,6.068,5.25H9.751z"/>
	<path d="M0.75,24c-0.413,0-0.75-0.337-0.75-0.75c0.002-2.807,1.097-5.445,3.084-7.428c1.984-1.981,4.62-3.072,7.424-3.072
		c1.1,0.001,2.181,0.171,3.222,0.506c0.394,0.127,0.611,0.55,0.484,0.944c-0.1,0.311-0.387,0.52-0.714,0.52l0,0
		c-0.078,0-0.155-0.012-0.229-0.036c-0.893-0.288-1.82-0.434-2.756-0.434c-4.97,0-9.011,4.038-9.016,9C1.5,23.663,1.164,24,0.75,24
		C0.75,24,0.75,24,0.75,24z"/>
	<path d="M6.001,24c-0.414,0-0.75-0.336-0.75-0.75v-4.5c0-0.414,0.336-0.75,0.75-0.75s0.75,0.336,0.75,0.75v4.5
		C6.751,23.663,6.414,24,6.001,24z"/>
	<path d="M17.02,24c-0.068,0-0.135-0.009-0.201-0.027c-0.193-0.053-0.354-0.179-0.452-0.353c-0.099-0.174-0.124-0.377-0.07-0.57
		l1.453-5.244l-2.645-0.732c-0.206-0.057-0.379-0.2-0.473-0.393c-0.094-0.193-0.102-0.417-0.02-0.615
		c0.661-1.607,2.209-2.646,3.945-2.646c0.134,0,0.269,0.007,0.403,0.019l3.569-12.888c0.089-0.324,0.386-0.55,0.722-0.55
		c0.068,0,0.135,0.009,0.201,0.027c0.193,0.053,0.354,0.179,0.452,0.353c0.099,0.175,0.124,0.377,0.07,0.57l-3.569,12.889
		c1.085,0.521,1.913,1.494,2.253,2.661c0.021,0.043,0.037,0.086,0.048,0.13c0.288,1.109,0.127,2.264-0.454,3.251
		c-0.58,0.988-1.511,1.69-2.62,1.978c-0.351,0.091-0.714,0.137-1.078,0.137c-0.132,0-0.267-0.007-0.404-0.02l-0.408,1.472
		C17.653,23.774,17.356,24,17.02,24z M18.563,20.496c0.235,0,0.468-0.03,0.692-0.088c0.862-0.224,1.559-0.847,1.887-1.664
		l-1.947-0.539l-0.635,2.291C18.561,20.496,18.562,20.496,18.563,20.496z M21.291,17.229c-0.196-1.158-1.121-2.098-2.316-2.279
		c-0.139-0.021-0.281-0.032-0.421-0.032c-0.813,0-1.581,0.363-2.101,0.971L21.291,17.229z"/>
</g>
</svg>
