<?xml version="1.0" encoding="utf-8"?>
<!-- Generator: Adobe Illustrator 22.1.0, SVG Export Plug-In . SVG Version: 6.00 Build 0)  -->
<svg version="1.1" id="Regular" xmlns="http://www.w3.org/2000/svg" xmlns:xlink="http://www.w3.org/1999/xlink" x="0px" y="0px"
	 viewBox="0 0 24 24" style="enable-background:new 0 0 24 24;" xml:space="preserve">
<title>martial-arts-fencing</title>
<g>
	<path d="M15.376,8c-1.861,0-3.375-1.514-3.375-3.375s1.514-3.375,3.375-3.375s3.375,1.514,3.375,3.375S17.237,8,15.376,8z
		 M15.376,2.75c-1.034,0-1.875,0.841-1.875,1.875S14.342,6.5,15.376,6.5s1.875-0.841,1.875-1.875S16.41,2.75,15.376,2.75z"/>
	<path d="M18.751,23.005c-0.601,0-1.166-0.234-1.591-0.659l-4.473-4.474l-1.278,0.156c-0.048,0.006-0.096,0.017-0.142,0.032
		c-0.191,0.064-0.345,0.198-0.435,0.377s-0.104,0.383-0.041,0.573l0.343,1.028c0.077,0.23,0.116,0.469,0.116,0.711
		c0,0.6-0.234,1.165-0.659,1.59C10.166,22.765,9.601,23,9.001,23c-0.969,0-1.826-0.615-2.134-1.532l-0.343-1.032
		c-0.109-0.326-0.187-0.666-0.23-1.01c-0.174-1.391,0.203-2.768,1.064-3.875c0.861-1.107,2.101-1.813,3.492-1.987l0.901-0.113
		l0.103-1.13l-0.702-0.172c-0.402-0.099-0.648-0.506-0.55-0.907c0.083-0.336,0.382-0.571,0.729-0.571
		c0.06,0,0.119,0.007,0.178,0.021l1.33,0.326c0.363,0.089,0.602,0.424,0.568,0.797l-0.217,2.373
		c-0.032,0.348-0.307,0.632-0.654,0.676l-1.5,0.188c-0.994,0.125-1.88,0.629-2.495,1.42c-0.615,0.791-0.885,1.774-0.76,2.768
		c0.031,0.245,0.086,0.489,0.164,0.723l0.342,1.031c0.102,0.303,0.388,0.507,0.71,0.507c0.201,0,0.389-0.078,0.531-0.22
		c0.142-0.142,0.22-0.33,0.22-0.53c0-0.081-0.013-0.161-0.038-0.237l-0.343-1.028c-0.19-0.57-0.147-1.18,0.122-1.718
		c0.269-0.538,0.731-0.938,1.301-1.128c0.141-0.047,0.287-0.081,0.435-0.099l1.642-0.2c0.031-0.004,0.06-0.005,0.089-0.005
		c0.201,0,0.39,0.078,0.531,0.219l4.731,4.732c0.142,0.142,0.33,0.219,0.53,0.219s0.389-0.078,0.53-0.22
		c0.292-0.293,0.292-0.769,0-1.061l-4.545-4.545c-0.163-0.163-0.243-0.396-0.214-0.625l0.339-2.675
		c0.027-0.212,0.143-0.402,0.319-0.523c0.126-0.087,0.273-0.132,0.426-0.132c0.059,0,0.118,0.007,0.176,0.021l0.413,0.1
		c0.416,0.102,0.84,0.153,1.261,0.153c2.31,0,4.372-1.557,5.015-3.786c0.057-0.194,0.035-0.398-0.061-0.573s-0.255-0.303-0.448-0.36
		c-0.068-0.02-0.139-0.03-0.209-0.03c-0.33,0-0.626,0.22-0.72,0.536c-0.001,0.003-0.008,0.027-0.009,0.03
		c-0.455,1.57-1.929,2.676-3.581,2.676c-0.299,0-0.599-0.036-0.891-0.107l-4.67-1.145c-0.402-0.099-0.648-0.506-0.55-0.907
		c0.083-0.337,0.382-0.572,0.728-0.572c0.06,0,0.12,0.007,0.179,0.022l4.668,1.145c0.176,0.043,0.356,0.065,0.535,0.065
		c0.986,0,1.87-0.664,2.148-1.615c0.281-0.962,1.17-1.627,2.163-1.627c0.213,0,0.425,0.031,0.631,0.091
		c0.577,0.169,1.053,0.552,1.342,1.079c0.289,0.527,0.354,1.135,0.186,1.712c-0.827,2.866-3.481,4.868-6.453,4.868c0,0,0,0,0,0
		c-0.405,0-0.811-0.037-1.213-0.11l-0.189,1.489l4.285,4.285c0.425,0.424,0.658,0.989,0.658,1.591c0,0.602-0.234,1.167-0.658,1.591
		C19.917,22.771,19.351,23.005,18.751,23.005z"/>
	<path d="M7.625,12.5c-0.076,0-0.152-0.011-0.224-0.034c-1.716-0.538-2.792-2.203-2.609-3.96L0.539,7.174
		C0.145,7.05-0.076,6.628,0.048,6.234c0.098-0.315,0.386-0.526,0.716-0.526c0.076,0,0.151,0.011,0.224,0.034l4.252,1.332
		c0.655-1.187,1.91-1.937,3.285-1.937c0.378,0,0.754,0.058,1.117,0.171c0.191,0.06,0.348,0.191,0.441,0.368s0.111,0.381,0.051,0.572
		L8.34,11.974c-0.06,0.191-0.191,0.348-0.368,0.44C7.865,12.47,7.745,12.5,7.625,12.5z M8.439,6.638
		C7.485,6.673,6.661,7.297,6.374,8.214c-0.287,0.918,0.052,1.911,0.798,2.473L8.439,6.638z"/>
</g>
</svg>
