<?xml version="1.0" encoding="utf-8"?>
<!-- Generator: Adobe Illustrator 22.1.0, SVG Export Plug-In . SVG Version: 6.00 Build 0)  -->
<svg version="1.1" id="Regular" xmlns="http://www.w3.org/2000/svg" xmlns:xlink="http://www.w3.org/1999/xlink" x="0px" y="0px"
	 viewBox="0 0 24 24" style="enable-background:new 0 0 24 24;" xml:space="preserve">
<title>match-fire-alternate</title>
<g>
	<path d="M12,15c-2.068,0-3.75-1.682-3.75-3.75c0-0.005,0-0.028,0.001-0.033c0.051-1.147,0.328-2.254,0.823-3.29
		c0.105-0.219,0.31-0.375,0.55-0.416C9.666,7.503,9.708,7.5,9.75,7.5c0.2,0,0.389,0.078,0.53,0.219l0.696,0.696l1.078-2.694
		c0.095-0.239,0.303-0.41,0.556-0.458c0.047-0.009,0.094-0.013,0.139-0.013c0.206,0,0.405,0.086,0.546,0.235
		c1.469,1.555,2.341,3.589,2.454,5.725c0.001,1.028-0.389,1.976-1.098,2.687C13.943,14.608,13.001,15,12,15z M10.033,9.594
		c-0.162,0.545-0.257,1.108-0.284,1.681C9.754,12.494,10.763,13.5,12,13.5c1.241,0,2.25-1.009,2.25-2.25
		c-0.071-1.33-0.521-2.654-1.28-3.78l-1.023,2.558c-0.094,0.235-0.298,0.405-0.546,0.456C11.349,10.495,11.3,10.5,11.25,10.5
		c-0.201,0-0.389-0.078-0.531-0.22L10.033,9.594z"/>
	<path d="M12.375,24c-0.414,0-0.75-0.336-0.75-0.75v-5.26c-3.548-0.195-6.375-3.144-6.375-6.74c0-0.007,0.001-0.033,0.001-0.041
		C5.408,8.06,6.497,5.064,8.402,2.547c0.131-0.173,0.33-0.281,0.547-0.296C8.965,2.25,8.983,2.25,9,2.25
		c0.198,0,0.391,0.08,0.53,0.22l0.821,0.821l1.756-2.927c0.114-0.19,0.305-0.319,0.523-0.354C12.669,0.003,12.71,0,12.75,0
		c0.179,0,0.352,0.064,0.488,0.181c0.225,0.193,5.512,4.794,5.512,11.069c0,3.309-2.396,6.112-5.625,6.655v5.345
		C13.125,23.663,12.789,24,12.375,24z M9.097,4.158c-1.409,2.118-2.219,4.57-2.348,7.12C6.755,14.148,9.11,16.5,12,16.5
		c2.895,0,5.25-2.355,5.25-5.25c0-4.338-2.989-7.912-4.342-9.306l-1.765,2.942c-0.119,0.199-0.32,0.33-0.551,0.358
		C10.56,5.248,10.531,5.25,10.501,5.25c-0.198,0-0.392-0.08-0.532-0.22L9.097,4.158z"/>
</g>
</svg>
