<?xml version="1.0" encoding="utf-8"?>
<!-- Generator: Adobe Illustrator 22.1.0, SVG Export Plug-In . SVG Version: 6.00 Build 0)  -->
<svg version="1.1" id="Layer_1" xmlns="http://www.w3.org/2000/svg" xmlns:xlink="http://www.w3.org/1999/xlink" x="0px" y="0px"
	 viewBox="0 0 24 24" style="enable-background:new 0 0 24 24;" xml:space="preserve">
<title>material-brick</title>
<g>
	<path d="M0.75,23.25C0.336,23.25,0,22.914,0,22.5s0.336-0.75,0.75-0.75H1.5v-3H0.75C0.336,18.75,0,18.414,0,18
		s0.336-0.75,0.75-0.75h22.5c0.414,0,0.75,0.336,0.75,0.75s-0.336,0.75-0.75,0.75H22.5v3h0.75c0.414,0,0.75,0.336,0.75,0.75
		s-0.336,0.75-0.75,0.75H0.75z M21,21.75v-3h-1.5v3H21z M18,21.75v-3h-3.75v3H18z M12.75,21.75v-3h-1.5v3H12.75z M9.75,21.75v-3H6v3
		H9.75z M4.5,21.75v-3H3v3H4.5z"/>
	<path d="M2.25,15.75C1.009,15.75,0,14.741,0,13.5V3c0-1.241,1.009-2.25,2.25-2.25h19.5C22.991,0.75,24,1.759,24,3v10.5
		c0,1.241-1.009,2.25-2.25,2.25H2.25z M21.75,14.25c0.414,0,0.75-0.336,0.75-0.75v-2.25h-3v3H21.75z M18,14.25v-3h-4.5v3H18z
		 M12,14.25v-3H7.5v3H12z M1.5,13.5c0,0.414,0.336,0.75,0.75,0.75H6v-3H1.5V13.5z M22.5,9.75v-3H18v3H22.5z M16.5,9.75v-3H12v3H16.5
		z M10.5,9.75v-3H6v3H10.5z M4.5,9.75v-3h-3v3H4.5z M22.5,5.25V3c0-0.414-0.336-0.75-0.75-0.75H19.5v3H22.5z M18,5.25v-3h-4.5v3H18z
		 M12,5.25v-3H7.5v3H12z M6,5.25v-3H2.25C1.836,2.25,1.5,2.586,1.5,3v2.25H6z"/>
</g>
</svg>
