<?xml version="1.0" encoding="utf-8"?>
<!-- Generator: Adobe Illustrator 22.1.0, SVG Export Plug-In . SVG Version: 6.00 Build 0)  -->
<svg version="1.1" id="Layer_1" xmlns="http://www.w3.org/2000/svg" xmlns:xlink="http://www.w3.org/1999/xlink" x="0px" y="0px"
	 viewBox="0 0 24 24" style="enable-background:new 0 0 24 24;" xml:space="preserve">
<title>material-isolation</title>
<g>
	<path d="M4.5,24C2.019,24,0,21.981,0,19.5v-15C0,2.019,2.019,0,4.5,0S9,2.019,9,4.5h12.75C22.991,4.5,24,5.509,24,6.75v15
		c0,1.241-1.009,2.25-2.25,2.25H4.5z M21.75,22.5c0.414,0,0.75-0.336,0.75-0.75v-15C22.5,6.336,22.164,6,21.75,6H9v13.5
		c0,1.115-0.419,2.182-1.152,3H21.75z M4.5,16.5c-1.654,0-3,1.346-3,3s1.346,3,3,3s3-1.346,3-3S6.154,16.5,4.5,16.5z M4.5,1.5
		c-1.654,0-3,1.346-3,3v11.652C2.318,15.419,3.384,15,4.5,15s2.182,0.419,3,1.152V4.5C7.5,2.846,6.154,1.5,4.5,1.5z"/>
	<path d="M20.25,10.5c-0.414,0-0.75-0.336-0.75-0.75v-1.5c0-0.414,0.336-0.75,0.75-0.75S21,7.836,21,8.25v1.5
		C21,10.164,20.664,10.5,20.25,10.5z"/>
	<path d="M20.25,15c-0.414,0-0.75-0.336-0.75-0.75v-1.5c0-0.414,0.336-0.75,0.75-0.75S21,12.336,21,12.75v1.5
		C21,14.664,20.664,15,20.25,15z"/>
	<path d="M20.25,19.5c-0.414,0-0.75-0.336-0.75-0.75v-1.5c0-0.414,0.336-0.75,0.75-0.75S21,16.836,21,17.25v1.5
		C21,19.164,20.664,19.5,20.25,19.5z"/>
	<path d="M17.25,12c-0.414,0-0.75-0.336-0.75-0.75v-1.5C16.5,9.336,16.836,9,17.25,9S18,9.336,18,9.75v1.5
		C18,11.664,17.664,12,17.25,12z"/>
	<path d="M17.25,16.5c-0.414,0-0.75-0.336-0.75-0.75v-1.5c0-0.414,0.336-0.75,0.75-0.75S18,13.836,18,14.25v1.5
		C18,16.164,17.664,16.5,17.25,16.5z"/>
	<path d="M17.25,21c-0.414,0-0.75-0.336-0.75-0.75v-1.5c0-0.414,0.336-0.75,0.75-0.75S18,18.336,18,18.75v1.5
		C18,20.664,17.664,21,17.25,21z"/>
	<path d="M14.25,10.5c-0.414,0-0.75-0.336-0.75-0.75v-1.5c0-0.414,0.336-0.75,0.75-0.75S15,7.836,15,8.25v1.5
		C15,10.164,14.664,10.5,14.25,10.5z"/>
	<path d="M14.25,15c-0.414,0-0.75-0.336-0.75-0.75v-1.5c0-0.414,0.336-0.75,0.75-0.75S15,12.336,15,12.75v1.5
		C15,14.664,14.664,15,14.25,15z"/>
	<path d="M14.25,19.5c-0.414,0-0.75-0.336-0.75-0.75v-1.5c0-0.414,0.336-0.75,0.75-0.75S15,16.836,15,17.25v1.5
		C15,19.164,14.664,19.5,14.25,19.5z"/>
	<path d="M11.25,12c-0.414,0-0.75-0.336-0.75-0.75v-1.5C10.5,9.336,10.836,9,11.25,9S12,9.336,12,9.75v1.5
		C12,11.664,11.664,12,11.25,12z"/>
	<path d="M11.25,16.5c-0.414,0-0.75-0.336-0.75-0.75v-1.5c0-0.414,0.336-0.75,0.75-0.75S12,13.836,12,14.25v1.5
		C12,16.164,11.664,16.5,11.25,16.5z"/>
	<path d="M11.25,21c-0.414,0-0.75-0.336-0.75-0.75v-1.5c0-0.414,0.336-0.75,0.75-0.75S12,18.336,12,18.75v1.5
		C12,20.664,11.664,21,11.25,21z"/>
	<circle cx="4.5" cy="19.5" r="1.125"/>
</g>
</svg>
