<?xml version="1.0" encoding="utf-8"?>
<!-- Generator: Adobe Illustrator 22.1.0, SVG Export Plug-In . SVG Version: 6.00 Build 0)  -->
<svg version="1.1" id="Layer_1" xmlns="http://www.w3.org/2000/svg" xmlns:xlink="http://www.w3.org/1999/xlink" x="0px" y="0px"
	 viewBox="0 0 24 24" style="enable-background:new 0 0 24 24;" xml:space="preserve">
<title>maze-strategy</title>
<g>
	<path d="M13.5,23.979c-0.414,0-0.75-0.336-0.75-0.75s0.336-0.75,0.75-0.75h3.75v-8.25c0-0.414,0.336-0.75,0.75-0.75h1.5
		c0.414,0,0.75,0.336,0.75,0.75s-0.336,0.75-0.75,0.75h-0.75v7.5H21c0.414,0,0.75-0.336,0.75-0.75v-9.75h-6v0.75
		c0,0.414-0.336,0.75-0.75,0.75s-0.75-0.336-0.75-0.75v-1.5c0-0.414,0.336-0.75,0.75-0.75h2.25v-2.25c0-0.414,0.336-0.75,0.75-0.75
		s0.75,0.336,0.75,0.75v2.25h3v-5.25c0-0.414-0.336-0.75-0.75-0.75h-1.5c-0.414,0-0.75-0.336-0.75-0.75s0.336-0.75,0.75-0.75H21
		c1.241,0,2.25,1.009,2.25,2.25v16.5c0,1.241-1.009,2.25-2.25,2.25H13.5z"/>
	<path d="M10.5,23.979c-0.414,0-0.75-0.336-0.75-0.75v-5.25H7.5c-0.414,0-0.75-0.336-0.75-0.75v-4.5c0-0.414,0.336-0.75,0.75-0.75
		h2.25v-5.25c0-0.414,0.336-0.75,0.75-0.75h2.25V2.526L11.028,4.23c-0.142,0.14-0.329,0.217-0.528,0.217
		c-0.202,0-0.391-0.079-0.533-0.223C9.676,3.93,9.679,3.454,9.973,3.164c0,0,3.008-2.976,3.014-2.981
		c0.067-0.063,0.145-0.113,0.23-0.148c0.008-0.003,0.016-0.006,0.025-0.009c0.084-0.031,0.171-0.047,0.259-0.047
		s0.175,0.016,0.259,0.047c0.007,0.002,0.013,0.005,0.019,0.007c0.091,0.037,0.168,0.087,0.235,0.15
		c0.005,0.005,3.014,2.981,3.014,2.981c0.142,0.141,0.221,0.329,0.223,0.529s-0.076,0.389-0.217,0.532
		c-0.142,0.143-0.331,0.223-0.533,0.223c-0.199,0-0.386-0.077-0.528-0.217L14.25,2.526v4.203c0,0.414-0.336,0.75-0.75,0.75h-2.25
		v5.25c0,0.414-0.336,0.75-0.75,0.75H8.25v3h2.25c0.414,0,0.75,0.336,0.75,0.75v6C11.25,23.642,10.914,23.979,10.5,23.979z"/>
	<path d="M15,20.979c-0.414,0-0.75-0.336-0.75-0.75v-4.5c0-0.414,0.336-0.75,0.75-0.75s0.75,0.336,0.75,0.75v4.5
		C15.75,20.642,15.414,20.979,15,20.979z"/>
	<path d="M3,23.979c-1.241,0-2.25-1.009-2.25-2.25v-16.5c0-1.241,1.009-2.25,2.25-2.25h3.75c0.414,0,0.75,0.336,0.75,0.75
		s-0.336,0.75-0.75,0.75H3c-0.414,0-0.75,0.336-0.75,0.75v16.5c0,0.414,0.336,0.75,0.75,0.75h3.75v-1.5H4.5
		c-0.414,0-0.75-0.336-0.75-0.75v-2.25c0-0.414,0.336-0.75,0.75-0.75s0.75,0.336,0.75,0.75v1.5H7.5c0.414,0,0.75,0.336,0.75,0.75v3
		c0,0.414-0.336,0.75-0.75,0.75H3z"/>
	<path d="M4.5,10.479c-0.414,0-0.75-0.336-0.75-0.75v-2.25c0-0.414,0.336-0.75,0.75-0.75s0.75,0.336,0.75,0.75v1.5h1.5
		c0.414,0,0.75,0.336,0.75,0.75s-0.336,0.75-0.75,0.75H4.5z"/>
</g>
</svg>
