<?xml version="1.0" encoding="utf-8"?>
<!-- Generator: Adobe Illustrator 22.1.0, SVG Export Plug-In . SVG Version: 6.00 Build 0)  -->
<svg version="1.1" id="Regular" xmlns="http://www.w3.org/2000/svg" xmlns:xlink="http://www.w3.org/1999/xlink" x="0px" y="0px"
	 viewBox="0 0 24 24" style="enable-background:new 0 0 24 24;" xml:space="preserve">
<title>meal-can</title>
<g>
	<path d="M12,24c-5.558,0-9.75-1.935-9.75-4.5v-15C2.25,1.935,6.442,0,12,0c5.558,0,9.75,1.935,9.75,4.5v15
		C21.75,22.065,17.558,24,12,24z M3.75,19.5c0,0.644,0.823,1.392,2.149,1.953C7.493,22.128,9.659,22.5,12,22.5
		s4.507-0.372,6.101-1.047c1.325-0.561,2.149-1.31,2.149-1.953V6.962c-0.004,0.003-0.045,0.032-0.045,0.032
		c-0.113,0.08-0.215,0.148-0.321,0.214l-0.089,0.055c-0.12,0.073-0.246,0.146-0.378,0.216l-0.036,0.018
		c-0.132,0.069-0.256,0.13-0.384,0.189l-0.102,0.047c-0.143,0.064-0.289,0.127-0.441,0.188l-0.034,0.013
		c-0.154,0.06-0.297,0.112-0.443,0.163l-0.115,0.04c-0.163,0.055-0.328,0.108-0.498,0.157c-0.002,0-0.024,0.007-0.026,0.007
		c-0.174,0.05-0.336,0.094-0.501,0.135l-0.13,0.032c-0.178,0.044-0.36,0.086-0.546,0.124c-0.002,0-0.023,0.005-0.025,0.005
		c-0.189,0.039-0.367,0.072-0.548,0.103l-0.142,0.024c-0.194,0.032-0.39,0.062-0.59,0.089c0,0-0.031,0.004-0.031,0.004
		c-0.191,0.025-0.385,0.047-0.58,0.067l-0.155,0.015c-0.206,0.02-0.415,0.037-0.626,0.051c-0.222,0.014-0.432,0.024-0.643,0.031
		L12.658,8.99C12.44,8.996,12.222,9,12,9s-0.441-0.004-0.658-0.01l-0.165-0.005c-0.211-0.008-0.42-0.017-0.626-0.03
		c-0.228-0.015-0.436-0.032-0.643-0.052L9.754,8.886c-0.196-0.02-0.389-0.042-0.579-0.067c0,0-0.032-0.004-0.032-0.004
		c-0.2-0.027-0.395-0.057-0.589-0.089L8.418,8.703c-0.187-0.033-0.365-0.066-0.54-0.101c0,0-0.04-0.008-0.041-0.008
		C7.653,8.555,7.472,8.514,7.293,8.47L7.162,8.437C6.998,8.396,6.837,8.353,6.68,8.307L6.634,8.294
		C6.465,8.245,6.301,8.192,6.139,8.137l-0.118-0.04C5.876,8.046,5.734,7.995,5.595,7.94L5.546,7.922
		C5.393,7.861,5.247,7.798,5.105,7.734L5.001,7.686C4.876,7.628,4.752,7.567,4.633,7.505L4.584,7.48
		C4.452,7.409,4.326,7.337,4.205,7.263L4.126,7.214C4.01,7.142,3.908,7.074,3.811,7.005c0,0-0.057-0.04-0.061-0.043V19.5z M12,1.5
		c-2.341,0-4.507,0.372-6.101,1.047C4.573,3.108,3.75,3.856,3.75,4.5s0.823,1.392,2.149,1.953C7.493,7.128,9.659,7.5,12,7.5
		s4.507-0.372,6.101-1.047c1.325-0.561,2.149-1.31,2.149-1.953s-0.823-1.392-2.149-1.953C16.507,1.872,14.341,1.5,12,1.5z"/>
	<path d="M12,19.5c-1.537-0.024-3.086-0.142-4.603-0.352c-0.369-0.052-0.647-0.371-0.647-0.743v-6c0-0.217,0.094-0.423,0.257-0.566
		c0.136-0.119,0.311-0.184,0.493-0.184c0.034,0,0.067,0.002,0.101,0.007c1.458,0.202,2.942,0.315,4.41,0.338
		c1.449-0.023,2.929-0.136,4.386-0.338c0.035-0.005,0.069-0.007,0.102-0.007c0.182,0,0.357,0.066,0.494,0.185
		c0.163,0.142,0.257,0.348,0.257,0.565v6c0,0.372-0.278,0.692-0.647,0.743c-1.516,0.21-3.061,0.328-4.591,0.352
		c-0.002,0-0.004,0-0.006,0S12.002,19.5,12,19.5z M8.25,17.746c1.246,0.149,2.51,0.235,3.762,0.254
		c1.234-0.02,2.493-0.105,3.738-0.254v-4.49c-1.24,0.143-2.496,0.225-3.738,0.244c-1.26-0.02-2.52-0.102-3.762-0.244V17.746z"/>
</g>
</svg>
