<?xml version="1.0" encoding="utf-8"?>
<!-- Generator: Adobe Illustrator 22.1.0, SVG Export Plug-In . SVG Version: 6.00 Build 0)  -->
<svg version="1.1" id="Layer_1" xmlns="http://www.w3.org/2000/svg" xmlns:xlink="http://www.w3.org/1999/xlink" x="0px" y="0px"
	 viewBox="0 0 24 24" style="enable-background:new 0 0 24 24;" xml:space="preserve">
<title>measure-ruler-divider</title>
<g>
	<path d="M12.491,24c-0.367,0-0.678-0.263-0.739-0.626l-0.372-2.219l-0.74,0.125c-0.043,0.007-0.084,0.01-0.125,0.01
		c-0.36,0-0.669-0.257-0.736-0.61l-1.787-9.426L6.204,20.68c-0.067,0.354-0.377,0.61-0.736,0.61c-0.041,0-0.082-0.003-0.123-0.01
		l-0.741-0.125l-0.373,2.219C4.17,23.737,3.859,24,3.492,24c-0.041,0-0.082-0.003-0.123-0.01c-0.41-0.069-0.686-0.457-0.617-0.864
		l0.373-2.219l-0.739-0.124c-0.198-0.034-0.376-0.147-0.491-0.31c-0.114-0.164-0.159-0.37-0.122-0.567L4.279,6.451
		C4.249,6.243,4.237,6.032,4.241,5.824l0-1.324c0-0.827,0.673-1.5,1.5-1.5h1.5V0.75C7.241,0.336,7.578,0,7.991,0
		s0.75,0.336,0.75,0.75V3h1.5c0.827,0,1.5,0.673,1.5,1.5V6c0,0.147-0.011,0.299-0.033,0.473l2.504,13.433
		c0.037,0.196-0.008,0.403-0.123,0.567c-0.115,0.164-0.293,0.277-0.491,0.31l-0.739,0.124l0.372,2.219
		c0.068,0.408-0.208,0.796-0.616,0.864C12.572,23.997,12.531,24,12.491,24z M11.115,19.679l1.482-0.249l-2-10.732
		c-0.399,0.386-0.878,0.676-1.401,0.853L11.115,19.679z M4.867,19.679L6.791,9.536c-0.527-0.19-1.003-0.49-1.398-0.879L3.387,19.43
		c0,0,0.736,0.123,0.744,0.125L4.867,19.679z M5.793,6.391C5.987,7.32,6.709,8.037,7.638,8.224c0.104,0.017,0.23,0.027,0.354,0.027
		c0.07,0,0.139-0.003,0.208-0.01C8.212,8.24,8.225,8.239,8.237,8.238C8.762,8.177,9.22,7.954,9.583,7.591
		c0.425-0.425,0.659-0.99,0.658-1.591V4.5h-4.5l0,1.34C5.739,5.966,5.746,6.089,5.762,6.214C5.78,6.272,5.79,6.331,5.793,6.391z"/>
	<path d="M15.491,24c-0.414,0-0.75-0.336-0.75-0.75s0.336-0.75,0.75-0.75h4.5c0.414,0,0.75-0.336,0.75-0.75V19.5h-2.25
		c-0.414,0-0.75-0.336-0.75-0.75S18.078,18,18.491,18h2.25v-3h-2.25c-0.414,0-0.75-0.336-0.75-0.75s0.336-0.75,0.75-0.75h2.25v-3
		h-2.25c-0.414,0-0.75-0.336-0.75-0.75S18.078,9,18.491,9h2.25V6h-2.25c-0.414,0-0.75-0.336-0.75-0.75s0.336-0.75,0.75-0.75h2.25
		V2.25c0-0.414-0.336-0.75-0.75-0.75h-4.5c-0.414,0-0.75,0.336-0.75,0.75V7.5c0,0.414-0.336,0.75-0.75,0.75s-0.75-0.336-0.75-0.75
		V2.25c0-1.241,1.009-2.25,2.25-2.25h4.5c1.241,0,2.25,1.009,2.25,2.25v19.5c0,1.241-1.009,2.25-2.25,2.25H15.491z"/>
</g>
</svg>
