<?xml version="1.0" encoding="utf-8"?>
<!-- Generator: Adobe Illustrator 22.1.0, SVG Export Plug-In . SVG Version: 6.00 Build 0)  -->
<svg version="1.1" id="Layer_1" xmlns="http://www.w3.org/2000/svg" xmlns:xlink="http://www.w3.org/1999/xlink" x="0px" y="0px"
	 viewBox="0 0 24 24" style="enable-background:new 0 0 24 24;" xml:space="preserve">
<title>measure-caliber</title>
<g>
	<path d="M7.627,23.998c-0.602,0-1.167-0.234-1.591-0.658l-5.379-5.379c-0.425-0.425-0.659-0.99-0.659-1.591
		s0.234-1.166,0.659-1.591L14.779,0.658c0.425-0.425,0.99-0.659,1.591-0.659s1.166,0.234,1.591,0.659l5.379,5.379
		c0.877,0.877,0.877,2.305,0,3.182L9.218,23.34C8.794,23.765,8.229,23.998,7.627,23.998z M16.37,1.499c-0.2,0-0.389,0.078-0.53,0.22
		L1.718,15.84c-0.142,0.142-0.22,0.33-0.22,0.53s0.078,0.389,0.22,0.53l5.379,5.379c0.141,0.141,0.33,0.219,0.53,0.219
		s0.389-0.078,0.53-0.219L22.279,8.158c0.292-0.292,0.292-0.768,0-1.061L16.9,1.718C16.758,1.577,16.57,1.499,16.37,1.499z"/>
	<path d="M15.748,11.249c-1.654,0-3-1.346-3-3s1.346-3,3-3s3,1.346,3,3S17.402,11.249,15.748,11.249z M15.748,6.749
		c-0.827,0-1.5,0.673-1.5,1.5s0.673,1.5,1.5,1.5s1.5-0.673,1.5-1.5S16.575,6.749,15.748,6.749z"/>
	<path d="M8.248,18.749c-1.654,0-3-1.346-3-3s1.346-3,3-3s3,1.346,3,3S9.902,18.749,8.248,18.749z M8.248,14.249
		c-0.827,0-1.5,0.673-1.5,1.5s0.673,1.5,1.5,1.5s1.5-0.673,1.5-1.5S9.075,14.249,8.248,14.249z"/>
</g>
</svg>
