<?xml version="1.0" encoding="utf-8"?>
<!-- Generator: Adobe Illustrator 22.1.0, SVG Export Plug-In . SVG Version: 6.00 Build 0)  -->
<svg version="1.1" id="Regular" xmlns="http://www.w3.org/2000/svg" xmlns:xlink="http://www.w3.org/1999/xlink" x="0px" y="0px"
	 viewBox="0 0 24 24" style="enable-background:new 0 0 24 24;" xml:space="preserve">
<title>medical-room-wait</title>
<g>
	<path d="M4.5,10.5C3.673,10.5,3,9.827,3,9V7.5H1.5C0.673,7.5,0,6.827,0,6V4.5C0,3.673,0.673,3,1.5,3H3V1.5C3,0.673,3.673,0,4.5,0H6
		c0.827,0,1.5,0.673,1.5,1.5V3H9c0.827,0,1.5,0.673,1.5,1.5V6c0,0.827-0.673,1.5-1.5,1.5H7.5V9c0,0.827-0.673,1.5-1.5,1.5H4.5z
		 M1.5,6h2.25C4.164,6,4.5,6.336,4.5,6.75V9H6V6.75C6,6.336,6.336,6,6.75,6H9V4.5H6.75C6.336,4.5,6,4.164,6,3.75V1.5H4.5v2.25
		c0,0.414-0.336,0.75-0.75,0.75H1.5V6z"/>
	<path d="M14.25,10.5c-1.861,0-3.375-1.514-3.375-3.375S12.389,3.75,14.25,3.75s3.375,1.514,3.375,3.375S16.111,10.5,14.25,10.5z
		 M14.25,5.25c-1.034,0-1.875,0.841-1.875,1.875S13.216,9,14.25,9s1.875-0.841,1.875-1.875S15.284,5.25,14.25,5.25z"/>
	<path d="M14.25,24c-0.074,0-0.146-0.011-0.217-0.032l-7.499-2.25C6.215,21.622,6,21.334,6,21v-0.129
		c-0.885-0.313-1.5-1.161-1.5-2.121s0.615-1.808,1.5-2.121V12c0-0.236,0.113-0.461,0.302-0.602c0.131-0.097,0.286-0.148,0.448-0.148
		c0.073,0,0.145,0.01,0.214,0.031l2.179,0.654c0.968-0.915,2.267-1.435,3.602-1.435h3.005c1.339,0,2.639,0.52,3.606,1.435
		l2.178-0.653c0.07-0.021,0.143-0.032,0.215-0.032c0.162,0,0.317,0.051,0.448,0.148C22.387,11.539,22.5,11.764,22.5,12v4.629
		c0.885,0.314,1.5,1.162,1.5,2.121s-0.615,1.808-1.5,2.121V21c0,0.334-0.215,0.622-0.535,0.718l-7.5,2.25
		C14.396,23.989,14.324,24,14.25,24z M15,22.242l5.112-1.534C19.741,20.435,19.5,19.995,19.5,19.5V18c0-0.827,0.673-1.5,1.5-1.5
		v-3.492l-6,1.8V22.242z M13.5,22.242v-7.434l-6-1.8V16.5C8.327,16.5,9,17.173,9,18v1.5c0,0.495-0.241,0.935-0.612,1.208
		L13.5,22.242z M21,19.5h0.75c0.414,0,0.75-0.336,0.75-0.75S22.164,18,21.75,18H21V19.5z M6.75,18C6.336,18,6,18.336,6,18.75
		s0.336,0.75,0.75,0.75H7.5V18H6.75z M14.25,13.467l3.315-0.994C17.012,12.165,16.389,12,15.755,12h-3.009
		c-0.635,0-1.258,0.165-1.81,0.473L14.25,13.467z"/>
</g>
</svg>
