<?xml version="1.0" encoding="utf-8"?>
<!-- Generator: Adobe Illustrator 22.1.0, SVG Export Plug-In . SVG Version: 6.00 Build 0)  -->
<svg version="1.1" id="Regular" xmlns="http://www.w3.org/2000/svg" xmlns:xlink="http://www.w3.org/1999/xlink" x="0px" y="0px"
	 viewBox="0 0 24 24" style="enable-background:new 0 0 24 24;" xml:space="preserve">
<title>medical-specialty-intestine</title>
<g>
	<path d="M16.491,24.001c-0.907,0-1.784-0.274-2.538-0.791c-0.554-0.38-1.016-0.882-1.35-1.463
		c-1.543,0.542-2.102,1.125-2.102,1.503c0,0.414-0.336,0.75-0.75,0.75s-0.75-0.336-0.75-0.75c0-1.207,1.035-2.184,3.078-2.908
		c-0.001-0.006-0.002-0.012-0.004-0.019c-0.42-2.262,0.94-4.471,3.119-5.129c0.19-0.629,0.514-1.206,0.951-1.694
		c-0.675-0.752-1.075-1.707-1.137-2.727c-0.033-0.553,0.031-1.094,0.191-1.607c-0.456,0.46-1.009,0.82-1.627,1.05
		c-0.505,0.188-1.032,0.283-1.567,0.283c-1.229,0-2.373-0.491-3.205-1.333c0.196,0.631,0.251,1.302,0.156,1.971
		c-0.128,0.895-0.506,1.704-1.1,2.364c0.086,0.096,0.168,0.196,0.245,0.299c0.721,0.962,1.025,2.147,0.855,3.336
		c-0.17,1.19-0.793,2.243-1.755,2.964c-0.573,0.429-1.241,0.714-1.95,0.832v2.318c0,0.414-0.336,0.75-0.75,0.75
		s-0.75-0.336-0.75-0.75v-2.32c-1.135-0.192-2.16-0.81-2.85-1.73c-1.298-1.732-1.175-4.117,0.245-5.701
		c-0.373-0.417-0.668-0.906-0.863-1.431c-0.745-2.002,0.026-4.235,1.796-5.363C1.965,6.502,1.866,6.289,1.784,6.069
		C0.919,3.744,2.106,1.148,4.432,0.282C4.94,0.093,5.469-0.003,6.004-0.003c0.646,0,1.275,0.138,1.87,0.41
		c0.801,0.366,1.459,0.939,1.922,1.669c0.671-0.378,1.425-0.576,2.205-0.576c0.781,0,1.536,0.198,2.207,0.577
		c0.126-0.197,0.267-0.384,0.423-0.56c0.852-0.964,2.082-1.516,3.373-1.516c1.099,0,2.157,0.401,2.979,1.128
		c1.599,1.415,1.971,3.749,0.941,5.576c0.455,0.29,0.851,0.656,1.179,1.094c1.298,1.731,1.174,4.116-0.246,5.7
		c0.55,0.613,0.918,1.359,1.07,2.179c0.42,2.261-0.941,4.47-3.12,5.127c-0.487,1.599-1.833,2.812-3.484,3.119
		C17.048,23.975,16.769,24.001,16.491,24.001z M15.516,6.557c0.183,0,0.36,0.067,0.497,0.188c0.278,0.246,0.594,0.436,0.942,0.566
		c0.232,0.087,0.406,0.281,0.466,0.521c0.06,0.24-0.002,0.494-0.167,0.679c-0.531,0.599-0.797,1.37-0.748,2.17
		c0.048,0.799,0.406,1.532,1.005,2.063c0.061,0.054,0.125,0.106,0.19,0.155c0.187,0.14,0.299,0.365,0.299,0.6
		c0,0.235-0.112,0.459-0.3,0.6c-0.603,0.452-1.011,1.109-1.148,1.851c-0.056,0.303-0.297,0.544-0.6,0.601
		c-0.786,0.146-1.47,0.591-1.924,1.252s-0.624,1.459-0.478,2.245c0.264,1.421,1.504,2.453,2.947,2.453
		c0.183,0,0.369-0.017,0.551-0.051c1.211-0.225,2.177-1.19,2.402-2.402c0.056-0.303,0.298-0.544,0.601-0.6
		c1.626-0.302,2.703-1.87,2.401-3.496c-0.138-0.742-0.546-1.4-1.15-1.852c-0.188-0.141-0.3-0.365-0.3-0.6s0.112-0.459,0.3-0.6
		c1.323-0.992,1.593-2.876,0.601-4.2c-0.346-0.461-0.814-0.811-1.354-1.012c-0.232-0.086-0.406-0.281-0.466-0.521
		c-0.06-0.24,0.002-0.494,0.166-0.679c1.096-1.239,0.98-3.139-0.259-4.235c-0.548-0.485-1.253-0.752-1.986-0.752
		c-0.861,0-1.681,0.368-2.249,1.011c-0.245,0.277-0.435,0.594-0.564,0.941c-0.087,0.232-0.281,0.406-0.521,0.466
		c-0.06,0.015-0.121,0.022-0.182,0.022c-0.183,0-0.359-0.067-0.497-0.188c-0.548-0.485-1.254-0.752-1.988-0.752
		c-0.734,0-1.44,0.267-1.988,0.752C9.876,3.874,9.699,3.941,9.516,3.941c-0.062,0-0.123-0.008-0.183-0.023
		c-0.239-0.059-0.434-0.234-0.52-0.466C8.533,2.702,7.978,2.105,7.25,1.771C6.853,1.59,6.433,1.498,6.004,1.498
		c-0.356,0-0.709,0.064-1.049,0.19C3.405,2.265,2.613,3.996,3.19,5.546C3.319,5.893,3.509,6.21,3.755,6.487
		C3.918,6.673,3.98,6.926,3.92,7.166S3.686,7.601,3.454,7.687c-1.55,0.577-2.342,2.307-1.766,3.858
		c0.201,0.54,0.551,1.008,1.012,1.354c0.188,0.141,0.3,0.365,0.3,0.6s-0.112,0.459-0.3,0.6c-1.323,0.992-1.592,2.876-0.6,4.2
		c0.571,0.762,1.448,1.199,2.404,1.199c0,0,0,0,0,0c0.653,0,1.274-0.207,1.796-0.599c0.641-0.481,1.057-1.182,1.17-1.976
		c0.113-0.793-0.089-1.583-0.57-2.224c-0.171-0.228-0.372-0.429-0.6-0.6c-0.188-0.141-0.3-0.365-0.3-0.6s0.112-0.459,0.3-0.6
		c0.641-0.48,1.057-1.182,1.17-1.975c0.113-0.793-0.089-1.583-0.569-2.224c-0.049-0.066-0.101-0.129-0.155-0.19
		C6.584,8.326,6.522,8.072,6.581,7.833c0.06-0.24,0.234-0.435,0.465-0.521c0.348-0.13,0.665-0.32,0.942-0.566
		c0.138-0.122,0.315-0.188,0.497-0.188c0.062,0,0.123,0.008,0.182,0.023c0.239,0.06,0.434,0.234,0.52,0.465
		c0.435,1.169,1.567,1.954,2.816,1.954c0.356,0,0.707-0.064,1.044-0.189c0.817-0.304,1.46-0.948,1.765-1.765
		c0.086-0.231,0.281-0.406,0.521-0.466C15.394,6.565,15.455,6.557,15.516,6.557z"/>
</g>
</svg>
