<?xml version="1.0" encoding="utf-8"?>
<!-- Generator: Adobe Illustrator 22.1.0, SVG Export Plug-In . SVG Version: 6.00 Build 0)  -->
<svg version="1.1" id="Regular" xmlns="http://www.w3.org/2000/svg" xmlns:xlink="http://www.w3.org/1999/xlink" x="0px" y="0px"
	 viewBox="0 0 24 24" style="enable-background:new 0 0 24 24;" xml:space="preserve">
<title>medical-instrument-sampler</title>
<g>
	<path d="M8.247,16.502c-0.936,0-1.86-0.16-2.747-0.476c-0.015-0.004-0.029-0.008-0.042-0.013c-0.009-0.003-0.023-0.009-0.035-0.015
		c-2.961-1.087-5.072-3.809-5.38-6.94C-0.173,6.866,0.478,4.72,1.876,3.017s3.376-2.76,5.569-2.975
		c0.273-0.027,0.549-0.041,0.822-0.041c1.922,0,3.727,0.648,5.22,1.875c1.703,1.398,2.76,3.376,2.975,5.569
		c0.087,0.885,1.562,1.696,2.988,2.48c0.781,0.429,1.588,0.873,2.276,1.381c0.476,0.352,0.742,0.915,0.711,1.505
		c-0.049,0.933-0.821,1.665-1.757,1.665c0,0-0.059-0.001-0.089-0.002c-0.85-0.047-1.752-0.218-2.625-0.383
		c-0.91-0.173-1.848-0.35-2.607-0.35c-0.624,0-1.046,0.118-1.29,0.36c-1.344,1.337-3.124,2.176-5.012,2.362
		C8.788,16.489,8.514,16.502,8.247,16.502z M6.689,14.818C7.2,14.94,7.724,15.002,8.25,15.002c0.22,0,0.443-0.011,0.663-0.033
		c1.544-0.152,3.001-0.838,4.101-1.933c0.542-0.539,1.305-0.801,2.334-0.801c0.888,0,1.864,0.185,2.897,0.381
		c0.825,0.156,1.679,0.318,2.427,0.359c0.001,0,0.002,0,0.003,0c0.075,0,0.135-0.024,0.181-0.065
		c0.052-0.047,0.081-0.108,0.085-0.177c0.005-0.087-0.034-0.169-0.103-0.22c-0.606-0.447-1.367-0.866-2.104-1.271
		c-1.852-1.018-3.597-1.978-3.762-3.65c-0.176-1.795-1.041-3.413-2.434-4.557c-0.398-0.327-0.838-0.609-1.311-0.84L6.689,14.818z
		 M8.266,1.501c-0.223,0-0.449,0.011-0.673,0.033C3.888,1.898,1.171,5.208,1.535,8.912c0.229,2.333,1.651,4.367,3.743,5.397
		L9.813,1.687C9.299,1.564,8.78,1.501,8.266,1.501z"/>
	<path d="M21.001,23.999c-1.654,0-3-1.346-3-3c0-1.405,1.985-4.35,2.383-4.926c0.14-0.203,0.371-0.324,0.617-0.324
		s0.477,0.121,0.617,0.323c0.398,0.577,2.383,3.524,2.383,4.927C24.001,22.654,22.656,23.999,21.001,23.999z M21.001,17.867
		c-0.886,1.416-1.5,2.688-1.5,3.132c0,0.827,0.673,1.5,1.5,1.5s1.5-0.673,1.5-1.5C22.501,20.556,21.887,19.283,21.001,17.867z"/>
</g>
</svg>
