<?xml version="1.0" encoding="utf-8"?>
<!-- Generator: Adobe Illustrator 22.1.0, SVG Export Plug-In . SVG Version: 6.00 Build 0)  -->
<svg version="1.1" id="Regular" xmlns="http://www.w3.org/2000/svg" xmlns:xlink="http://www.w3.org/1999/xlink" x="0px" y="0px"
	 viewBox="0 0 24 24" style="enable-background:new 0 0 24 24;" xml:space="preserve">
<title>medical-condition-head-dizziness</title>
<g>
	<path d="M19.249,23.975c-0.414,0-0.75-0.336-0.75-0.75V16.96c0-0.208,0.088-0.409,0.24-0.55c2.191-2.03,3.183-5.108,2.587-8.035
		c-0.04-0.196-0.001-0.396,0.109-0.563c0.111-0.167,0.28-0.281,0.476-0.321c0.05-0.01,0.1-0.015,0.149-0.015
		c0.355,0,0.664,0.253,0.735,0.6c0.675,3.314-0.396,6.826-2.797,9.205v5.945C19.999,23.638,19.662,23.975,19.249,23.975z"/>
	<path d="M8.749,23.975c-0.414,0-0.75-0.336-0.75-0.75v-2.25h-0.75c-2.068,0-3.75-1.682-3.75-3.75v-2.25h-1.15
		c-0.185,0-0.366-0.034-0.538-0.1c-0.373-0.143-0.669-0.424-0.832-0.79s-0.174-0.774-0.03-1.148
		c0.215-0.558,0.422-1.109,0.627-1.652l0.015-0.038c0.437-1.164,0.85-2.261,1.294-3.313c0.117-0.278,0.389-0.458,0.691-0.458
		c0.101,0,0.199,0.02,0.292,0.059C4.051,7.612,4.194,7.757,4.27,7.943c0.075,0.186,0.074,0.39-0.004,0.574
		c-0.433,1.024-0.84,2.107-1.271,3.254c-0.212,0.565-0.426,1.132-0.646,1.704h1.9c0.414,0,0.75,0.336,0.75,0.75v3
		c0,1.241,1.009,2.25,2.25,2.25h1.5c0.414,0,0.75,0.336,0.75,0.75v3C9.499,23.638,9.162,23.975,8.749,23.975z"/>
	<path d="M12.499,7.475c-0.414,0-0.75-0.336-0.75-0.75s0.336-0.75,0.75-0.75c5.823,0,9-1.486,9-2.25
		c0-0.362-0.985-1.109-3.175-1.636c-0.195-0.047-0.36-0.167-0.464-0.338c-0.105-0.171-0.136-0.372-0.089-0.567
		c0.081-0.338,0.381-0.574,0.729-0.574c0.059,0,0.118,0.007,0.175,0.021c3.575,0.86,4.325,2.157,4.325,3.094
		c0,1.199-1.207,2.191-3.49,2.869C17.624,7.154,15.069,7.475,12.499,7.475z"/>
	<path d="M4.999,6.392c-0.089,0-0.177-0.016-0.261-0.047c-2.264-0.841-2.739-1.889-2.739-2.62c0-1.199,1.207-2.191,3.49-2.869
		c1.885-0.56,4.439-0.881,7.01-0.881c0.414,0,0.75,0.336,0.75,0.75s-0.336,0.75-0.75,0.75c-5.823,0-9,1.486-9,2.25
		c0,0.225,0.469,0.734,1.761,1.214c0.388,0.144,0.586,0.577,0.442,0.964C5.593,6.196,5.311,6.392,4.999,6.392z"/>
	<path d="M15.499,2.6c-0.044,0-0.088-0.004-0.131-0.011c-0.513-0.06-0.922-0.47-0.983-0.983c-0.007-0.042-0.011-0.086-0.011-0.13
		s0.004-0.088,0.011-0.13c0.06-0.513,0.47-0.923,0.983-0.983c0.043-0.008,0.087-0.011,0.131-0.011s0.088,0.004,0.131,0.011
		c0.513,0.06,0.922,0.47,0.982,0.983c0.008,0.042,0.011,0.086,0.011,0.13s-0.004,0.088-0.011,0.13
		c-0.06,0.513-0.469,0.923-0.982,0.983C15.587,2.596,15.543,2.6,15.499,2.6z"/>
	<path d="M8.749,7.1c-0.044,0-0.088-0.004-0.131-0.012c-0.513-0.06-0.922-0.47-0.982-0.982C7.628,6.063,7.624,6.019,7.624,5.975
		s0.004-0.088,0.012-0.131c0.06-0.513,0.47-0.922,0.982-0.982C8.661,4.854,8.705,4.85,8.749,4.85S8.837,4.854,8.88,4.862
		c0.513,0.06,0.922,0.47,0.982,0.982C9.87,5.887,9.874,5.931,9.874,5.975S9.87,6.063,9.862,6.106
		c-0.06,0.513-0.47,0.922-0.982,0.982C8.837,7.096,8.793,7.1,8.749,7.1z"/>
</g>
</svg>
