<?xml version="1.0" encoding="utf-8"?>
<!-- Generator: Adobe Illustrator 22.1.0, SVG Export Plug-In . SVG Version: 6.00 Build 0)  -->
<svg version="1.1" id="Regular" xmlns="http://www.w3.org/2000/svg" xmlns:xlink="http://www.w3.org/1999/xlink" x="0px" y="0px"
	 viewBox="0 0 24 24" style="enable-background:new 0 0 24 24;" xml:space="preserve">
<title>medical-room-clock-man</title>
<g>
	<path d="M5.25,10.5C2.355,10.5,0,8.145,0,5.25S2.355,0,5.25,0s5.25,2.355,5.25,5.25S8.145,10.5,5.25,10.5z M5.25,1.5
		C3.182,1.5,1.5,3.182,1.5,5.25S3.182,9,5.25,9S9,7.318,9,5.25S7.318,1.5,5.25,1.5z"/>
	<path d="M5.25,6C4.836,6,4.5,5.664,4.5,5.25V3c0-0.414,0.336-0.75,0.75-0.75S6,2.586,6,3v1.5h0.75c0.414,0,0.75,0.336,0.75,0.75
		S7.164,6,6.75,6H5.25z"/>
	<path d="M23.25,24c-0.414,0-0.75-0.336-0.75-0.75V21h-0.75C21.336,21,21,20.664,21,20.25s0.336-0.75,0.75-0.75
		s0.75-0.336,0.75-0.75S22.164,18,21.75,18S21,17.664,21,17.25s0.336-0.75,0.75-0.75c1.241,0,2.25,1.009,2.25,2.25
		c0,0.34-0.075,0.668-0.221,0.969C23.916,19.855,24,20.043,24,20.25v3C24,23.664,23.664,24,23.25,24z"/>
	<path d="M0.75,24C0.336,24,0,23.664,0,23.25v-3c0-0.414,0.336-0.75,0.75-0.75h3.681l-3.888-4.536
		C0.154,14.48-0.02,13.89,0.045,13.292c0.066-0.598,0.36-1.134,0.828-1.51c0.397-0.318,0.896-0.494,1.407-0.494
		c0.632,0,1.237,0.266,1.661,0.729L7.785,16.5h3.465c0.414,0,0.75,0.336,0.75,0.75S11.664,18,11.25,18H7.44
		c-0.219,0-0.427-0.095-0.569-0.262l-4.052-4.726c-0.128-0.14-0.326-0.225-0.535-0.225c-0.172,0-0.339,0.059-0.471,0.165
		c-0.156,0.125-0.254,0.304-0.276,0.503c-0.022,0.199,0.035,0.395,0.161,0.551l4.485,5.231C6.324,19.404,6.531,19.5,6.75,19.5h4.5
		c0.414,0,0.75,0.336,0.75,0.75S11.664,21,11.25,21H1.5v2.25C1.5,23.664,1.164,24,0.75,24z"/>
	<path d="M16.5,8.25c-1.861,0-3.375-1.514-3.375-3.375S14.639,1.5,16.5,1.5s3.375,1.514,3.375,3.375S18.361,8.25,16.5,8.25z M16.5,3
		c-1.034,0-1.875,0.841-1.875,1.875S15.466,6.75,16.5,6.75s1.875-0.841,1.875-1.875S17.534,3,16.5,3z"/>
	<path d="M15.75,24c-1.241,0-2.25-1.009-2.25-2.25v-5.378C12.615,16.058,12,15.21,12,14.25V12c0-2.068,1.682-3.75,3.75-3.75h1.5
		C19.318,8.25,21,9.932,21,12v2.25c0,0.96-0.615,1.808-1.5,2.122v5.378c0,1.241-1.009,2.25-2.25,2.25H15.75z M15.75,9.75
		c-1.241,0-2.25,1.009-2.25,2.25v2.25c0,0.414,0.336,0.75,0.75,0.75S15,15.336,15,15.75v6c0,0.414,0.336,0.75,0.75,0.75h1.5
		c0.414,0,0.75-0.336,0.75-0.75v-6c0-0.414,0.336-0.75,0.75-0.75s0.75-0.336,0.75-0.75V12c0-1.241-1.009-2.25-2.25-2.25H15.75z"/>
</g>
</svg>
