<?xml version="1.0" encoding="utf-8"?>
<!-- Generator: Adobe Illustrator 22.1.0, SVG Export Plug-In . SVG Version: 6.00 Build 0)  -->
<svg version="1.1" id="Regular" xmlns="http://www.w3.org/2000/svg" xmlns:xlink="http://www.w3.org/1999/xlink" x="0px" y="0px"
	 viewBox="0 0 24 24" style="enable-background:new 0 0 24 24;" xml:space="preserve">
<title>medical-app-laptop-1</title>
<g>
	<path d="M3.75,21.75C1.682,21.75,0,20.068,0,18v-1.5c0-0.414,0.336-0.75,0.75-0.75H1.5V4.5c0-1.241,1.009-2.25,2.25-2.25h16.5
		c1.241,0,2.25,1.009,2.25,2.25v11.25h0.75c0.414,0,0.75,0.336,0.75,0.75V18c0,2.068-1.682,3.75-3.75,3.75H3.75z M1.5,18
		c0,1.241,1.009,2.25,2.25,2.25h16.5c1.241,0,2.25-1.009,2.25-2.25v-0.75h-7.513c-0.591,0.796-1.458,1.315-2.441,1.46
		c-0.182,0.027-0.367,0.041-0.55,0.041c-0.801,0-1.565-0.254-2.211-0.733c-0.294-0.218-0.553-0.477-0.77-0.77L1.5,17.25V18z
		 M9.016,15.75c0.469,0,0.918,0.224,1.2,0.599c0.132,0.178,0.287,0.333,0.462,0.463c0.385,0.286,0.841,0.437,1.32,0.437
		c0.702,0,1.37-0.335,1.786-0.896c0.284-0.378,0.732-0.603,1.201-0.603H21V4.5c0-0.414-0.336-0.75-0.75-0.75H3.75
		C3.336,3.75,3,4.086,3,4.5v11.25H9.016z"/>
	<path d="M11.25,14.25c-0.827,0-1.5-0.673-1.5-1.5V12H9c-0.827,0-1.5-0.673-1.5-1.5V9c0-0.827,0.673-1.5,1.5-1.5h0.75V6.75
		c0-0.827,0.673-1.5,1.5-1.5h1.5c0.827,0,1.5,0.673,1.5,1.5V7.5H15c0.827,0,1.5,0.673,1.5,1.5v1.5c0,0.827-0.673,1.5-1.5,1.5h-0.75
		v0.75c0,0.827-0.673,1.5-1.5,1.5H11.25z M9,10.5h1.5c0.414,0,0.75,0.336,0.75,0.75v1.5h1.5v-1.5c0-0.414,0.336-0.75,0.75-0.75H15V9
		h-1.5c-0.414,0-0.75-0.336-0.75-0.75v-1.5h-1.5v1.5C11.25,8.664,10.914,9,10.5,9H9V10.5z"/>
</g>
</svg>
