<?xml version="1.0" encoding="utf-8"?>
<!-- Generator: Adobe Illustrator 22.1.0, SVG Export Plug-In . SVG Version: 6.00 Build 0)  -->
<svg version="1.1" id="Regular" xmlns="http://www.w3.org/2000/svg" xmlns:xlink="http://www.w3.org/1999/xlink" x="0px" y="0px"
	 viewBox="0 0 24 24" style="enable-background:new 0 0 24 24;" xml:space="preserve">
<title>medical-specialty-pregnancy</title>
<g>
	<path d="M13.5,24c-5.437,0-6.871-1.912-7.561-2.831c-0.026-0.035-0.071-0.095-0.113-0.149C5.497,21.1,5.25,21.399,5.25,21.75v1.5
		C5.25,23.664,4.914,24,4.5,24s-0.75-0.336-0.75-0.75v-1.5c0-1.241,1.009-2.25,2.25-2.25c0.563,0,0.869,0.408,1.139,0.769
		C7.682,20.993,8.812,22.5,13.5,22.5c6.233,0,8.25-5.558,8.25-8.25c0-5.923-3.827-9.75-9.75-9.75c-1.241,0-2.25-1.009-2.25-2.25
		v-1.5C9.75,0.336,10.086,0,10.5,0s0.75,0.336,0.75,0.75v1.5C11.25,2.664,11.586,3,12,3c6.834,0,11.25,4.416,11.25,11.25
		C23.25,17.431,20.867,24,13.5,24z"/>
	<path d="M1.5,24c-0.414,0-0.75-0.336-0.75-0.75v-1.5c0.003-2.892,2.358-5.247,5.249-5.25c0.125-0.013,0.887-0.375,1.96-1.789
		c1.43-1.884,2.723-4.841,2.139-7.575C8.09,6.352,6.752,4.414,6.75,2.251V0.75C6.75,0.336,7.086,0,7.5,0s0.75,0.336,0.75,0.75v1.5
		C8.252,4.315,9.935,5.998,12.001,6c0.2,0,0.389,0.078,0.53,0.22c0.141,0.142,0.219,0.33,0.219,0.531C12.75,7.164,12.413,7.5,12,7.5
		c-0.103,0-0.209-0.004-0.318-0.012c0.374,3.034-1.029,6.156-2.528,8.13C8.73,16.177,7.248,18,6,18
		c-2.065,0.002-3.748,1.685-3.75,3.751v1.499C2.25,23.664,1.914,24,1.5,24z"/>
	<path d="M13.5,21c-1.493,0-3.75,0-3.75-2.25c0-2.042,4.225-4.5,5.25-4.5c3.099,0,3.75,1.631,3.75,3C18.75,20.083,15.213,21,13.5,21
		z M15.003,15.75c-0.192,0.015-1.083,0.437-2.113,1.193c-1.133,0.833-1.64,1.508-1.64,1.807c0,0.572,0.31,0.75,2.25,0.75
		c1.001,0,3.75-0.533,3.75-2.25C17.25,16.185,16.599,15.75,15.003,15.75z"/>
</g>
</svg>
