<?xml version="1.0" encoding="utf-8"?>
<!-- Generator: Adobe Illustrator 22.1.0, SVG Export Plug-In . SVG Version: 6.00 Build 0)  -->
<svg version="1.1" id="Regular" xmlns="http://www.w3.org/2000/svg" xmlns:xlink="http://www.w3.org/1999/xlink" x="0px" y="0px"
	 viewBox="0 0 24 24" style="enable-background:new 0 0 24 24;" xml:space="preserve">
<title>medical-condition-head-pain</title>
<g>
	<path d="M8.651,24c-0.414,0-0.75-0.336-0.75-0.75V21h-0.75c-2.068,0-3.75-1.682-3.75-3.75V15h-1.15
		c-0.186-0.001-0.366-0.034-0.536-0.1c-0.374-0.143-0.67-0.424-0.833-0.791c-0.163-0.367-0.174-0.774-0.031-1.148
		c0.218-0.565,0.428-1.124,0.635-1.674c1.152-3.063,2.236-5.944,3.958-8.017C5.587,3.099,5.797,3,6.021,3
		C6.196,3,6.366,3.062,6.5,3.174c0.318,0.264,0.361,0.738,0.097,1.056c-1.561,1.878-2.602,4.645-3.704,7.574
		c-0.21,0.558-0.423,1.125-0.644,1.696h1.9c0.414,0,0.75,0.336,0.75,0.75v3c0,1.241,1.009,2.25,2.25,2.25h1.5
		c0.414,0,0.75,0.336,0.75,0.75v3C9.401,23.664,9.064,24,8.651,24z"/>
	<path d="M19.151,24c-0.414,0-0.75-0.336-0.75-0.75v-6.265c0-0.208,0.088-0.409,0.241-0.551c1.687-1.562,2.665-3.687,2.754-5.984
		c0.089-2.297-0.722-4.492-2.284-6.179c-0.281-0.303-0.268-0.779,0.029-1.06c0.142-0.134,0.326-0.208,0.519-0.208
		c0.201,0,0.389,0.08,0.53,0.224l0.022,0.024c1.836,1.984,2.788,4.56,2.683,7.257c-0.1,2.581-1.161,4.988-2.994,6.797v5.944
		C19.901,23.664,19.564,24,19.151,24z"/>
	<path d="M10.901,7.5c-0.115,0-0.231-0.027-0.335-0.079c-0.37-0.185-0.521-0.636-0.336-1.006c0.543-1.086,0.224-1.511-0.304-2.215
		C9.367,3.455,8.523,2.329,9.48,0.415C9.609,0.159,9.866,0,10.151,0c0.115,0,0.231,0.027,0.334,0.079
		c0.37,0.185,0.52,0.636,0.336,1.006c-0.543,1.086-0.224,1.511,0.304,2.215c0.559,0.745,1.403,1.871,0.446,3.786
		C11.444,7.341,11.187,7.5,10.901,7.5z"/>
	<path d="M15.789,7.5c-0.115,0-0.231-0.027-0.334-0.079c-0.37-0.185-0.521-0.636-0.336-1.006c0.543-1.085,0.224-1.51-0.304-2.214
		c-0.559-0.745-1.403-1.871-0.446-3.786C14.496,0.159,14.753,0,15.039,0c0.115,0,0.231,0.027,0.334,0.079
		c0.37,0.185,0.521,0.636,0.336,1.006c-0.543,1.085-0.224,1.51,0.304,2.214c0.559,0.745,1.403,1.871,0.446,3.786
		C16.332,7.341,16.075,7.5,15.789,7.5z"/>
</g>
</svg>
