<?xml version="1.0" encoding="utf-8"?>
<!-- Generator: Adobe Illustrator 22.1.0, SVG Export Plug-In . SVG Version: 6.00 Build 0)  -->
<svg version="1.1" id="Regular" xmlns="http://www.w3.org/2000/svg" xmlns:xlink="http://www.w3.org/1999/xlink" x="0px" y="0px"
	 viewBox="0 0 24 24" style="enable-background:new 0 0 24 24;" xml:space="preserve">
<title>medical-condition-sore-throat</title>
<g>
	<path d="M19.373,24c-0.414,0-0.75-0.336-0.75-0.75v-6.265c0-0.208,0.088-0.409,0.24-0.55c3.485-3.228,3.693-8.69,0.465-12.175
		c-1.625-1.754-3.929-2.76-6.32-2.76c-6.017,0-7.644,4.326-9.896,10.314l-0.009,0.024c-0.205,0.546-0.414,1.101-0.63,1.661h1.9
		c0.414,0,0.75,0.336,0.75,0.75v3c0,1.241,1.009,2.25,2.25,2.25h1.5c0.414,0,0.75,0.336,0.75,0.75v3c0,0.414-0.336,0.75-0.75,0.75
		s-0.75-0.336-0.75-0.75V21h-0.75c-2.068,0-3.75-1.682-3.75-3.75V15h-1.15c-0.185-0.001-0.365-0.034-0.536-0.099
		c-0.773-0.297-1.161-1.167-0.865-1.939c0.208-0.541,0.41-1.076,0.608-1.603l0.027-0.073C3.986,5.23,5.953,0,12.999,0
		c2.817,0,5.522,1.181,7.43,3.241c3.691,3.984,3.542,10.259-0.306,14.064v5.945C20.123,23.664,19.786,24,19.373,24z"/>
	<path d="M11.873,22.875c-0.62,0-1.125-0.505-1.125-1.125c0-0.046,0.005-0.093,0.013-0.139c0.064-0.507,0.471-0.913,0.979-0.974
		c0.044-0.008,0.088-0.012,0.132-0.012c0.045,0,0.09,0.004,0.133,0.012c0.508,0.061,0.915,0.467,0.979,0.974
		c0.009,0.047,0.013,0.094,0.013,0.139C12.999,22.37,12.494,22.875,11.873,22.875L11.873,22.875z"/>
	<path d="M15.624,22.125c-0.044,0-0.088-0.004-0.13-0.011c-0.513-0.06-0.923-0.47-0.983-0.983c-0.008-0.042-0.011-0.086-0.011-0.131
		s0.004-0.088,0.011-0.131c0.06-0.513,0.47-0.923,0.983-0.983c0.042-0.008,0.086-0.011,0.131-0.011s0.088,0.004,0.131,0.011
		c0.513,0.06,0.923,0.47,0.983,0.983c0.008,0.042,0.011,0.086,0.011,0.131s-0.004,0.088-0.011,0.131
		c-0.06,0.513-0.47,0.923-0.983,0.983C15.712,22.121,15.668,22.125,15.624,22.125z"/>
	<path d="M12.624,19.125c-0.044,0-0.088-0.004-0.13-0.011c-0.513-0.06-0.923-0.469-0.983-0.983
		c-0.008-0.043-0.011-0.087-0.011-0.131s0.004-0.088,0.011-0.131c0.06-0.513,0.47-0.922,0.983-0.983
		c0.042-0.007,0.086-0.011,0.131-0.011s0.088,0.004,0.131,0.011c0.513,0.06,0.923,0.47,0.983,0.983
		c0.008,0.042,0.011,0.086,0.011,0.131s-0.004,0.088-0.011,0.131c-0.06,0.513-0.47,0.923-0.983,0.983
		C12.712,19.121,12.668,19.125,12.624,19.125z"/>
</g>
</svg>
