<?xml version="1.0" encoding="utf-8"?>
<!-- Generator: Adobe Illustrator 22.1.0, SVG Export Plug-In . SVG Version: 6.00 Build 0)  -->
<svg version="1.1" id="Regular" xmlns="http://www.w3.org/2000/svg" xmlns:xlink="http://www.w3.org/1999/xlink" x="0px" y="0px"
	 viewBox="0 0 24 24" style="enable-background:new 0 0 24 24;" xml:space="preserve">
<title>medical-specialty-feet</title>
<g>
	<path d="M16.25,24c-2.481,0-4.5-2.019-4.5-4.5c0-2.027-1.127-3.849-2.939-4.756C6.923,13.8,5.75,11.903,5.75,9.792
		c0-0.32,0.035-0.641,0.104-0.952c0.443-1.994,2.247-3.442,4.289-3.442c0.319,0,0.639,0.035,0.953,0.105l4.366,0.971
		c3.113,0.691,5.287,3.4,5.287,6.589V19.5C20.75,21.981,18.731,24,16.25,24z M10.143,6.898c-1.345,0-2.533,0.953-2.825,2.267
		C7.273,9.37,7.25,9.581,7.25,9.792c0,1.539,0.855,2.922,2.231,3.61c2.324,1.163,3.769,3.499,3.769,6.098c0,1.654,1.346,3,3,3
		s3-1.346,3-3v-6.437c0-2.48-1.691-4.588-4.113-5.125l-4.366-0.971C10.564,6.921,10.353,6.898,10.143,6.898z"/>
	<path d="M5.75,6c-1.654,0-3-1.346-3-3s1.346-3,3-3s3,1.346,3,3S7.404,6,5.75,6z M5.75,1.5c-0.827,0-1.5,0.673-1.5,1.5
		s0.673,1.5,1.5,1.5s1.5-0.673,1.5-1.5S6.577,1.5,5.75,1.5z"/>
	<path d="M12.5,4.5c-1.241,0-2.25-1.009-2.25-2.25S11.259,0,12.5,0c1.241,0,2.25,1.009,2.25,2.25S13.741,4.5,12.5,4.5z M12.5,1.5
		c-0.414,0-0.75,0.336-0.75,0.75S12.086,3,12.5,3s0.75-0.336,0.75-0.75S12.914,1.5,12.5,1.5z"/>
	<path d="M18.5,6c-1.241,0-2.25-1.009-2.25-2.25S17.259,1.5,18.5,1.5s2.25,1.009,2.25,2.25S19.741,6,18.5,6z M18.5,3
		c-0.414,0-0.75,0.336-0.75,0.75S18.086,4.5,18.5,4.5s0.75-0.336,0.75-0.75S18.914,3,18.5,3z"/>
</g>
</svg>
