<?xml version="1.0" encoding="utf-8"?>
<!-- Generator: Adobe Illustrator 22.1.0, SVG Export Plug-In . SVG Version: 6.00 Build 0)  -->
<svg version="1.1" id="Regular" xmlns="http://www.w3.org/2000/svg" xmlns:xlink="http://www.w3.org/1999/xlink" x="0px" y="0px"
	 viewBox="0 0 24 24" style="enable-background:new 0 0 24 24;" xml:space="preserve">
<title>medical-instrument-ambulance-bed-1</title>
<g>
	<path d="M20.625,22c-1.017,0-1.937-0.593-2.369-1.5H5.744C5.312,21.407,4.391,22,3.375,22c-1.447,0-2.625-1.177-2.625-2.625
		s1.178-2.625,2.625-2.625c0.844,0,1.622,0.402,2.113,1.07l5.123-3.283L3.53,10H3c-1.654,0-3-1.346-3-3s1.346-3,3-3V3.25
		C3,2.009,4.009,1,5.25,1h3c1.241,0,2.25,1.009,2.25,2.25V4H21c1.654,0,3,1.346,3,3s-1.346,3-3,3h-0.53l-7.079,4.537l5.122,3.282
		c0.49-0.668,1.269-1.07,2.113-1.07c1.448,0,2.625,1.177,2.625,2.625S22.073,22,20.625,22z M19.524,19.609
		c0.11,0.517,0.571,0.891,1.101,0.891c0.62,0,1.125-0.505,1.125-1.125s-0.505-1.125-1.125-1.125S19.5,18.755,19.5,19.375
		c0,0.074,0.008,0.149,0.022,0.224C19.523,19.602,19.524,19.605,19.524,19.609z M3.375,18.25c-0.62,0-1.125,0.505-1.125,1.125
		S2.755,20.5,3.375,20.5c0.532,0,0.995-0.378,1.102-0.898C4.492,19.525,4.5,19.449,4.5,19.375C4.5,18.755,3.995,18.25,3.375,18.25z
		 M17.574,19L12,15.428L6.427,19H17.574z M12,13.647L17.69,10H6.31L12,13.647z M3,5.5C2.173,5.5,1.5,6.173,1.5,7S2.173,8.5,3,8.5h18
		c0.827,0,1.5-0.673,1.5-1.5S21.827,5.5,21,5.5H3z M9,4V3.25C9,2.836,8.664,2.5,8.25,2.5h-3C4.836,2.5,4.5,2.836,4.5,3.25V4H9z"/>
</g>
</svg>
