<?xml version="1.0" encoding="utf-8"?>
<!-- Generator: Adobe Illustrator 22.1.0, SVG Export Plug-In . SVG Version: 6.00 Build 0)  -->
<svg version="1.1" id="Regular" xmlns="http://www.w3.org/2000/svg" xmlns:xlink="http://www.w3.org/1999/xlink" x="0px" y="0px"
	 viewBox="0 0 24 24" style="enable-background:new 0 0 24 24;" xml:space="preserve">
<title>medical-specialty-skin</title>
<g>
	<path d="M0.75,5.625C0.336,5.625,0,5.289,0,4.875s0.336-0.75,0.75-0.75h22.5c0.414,0,0.75,0.336,0.75,0.75s-0.336,0.75-0.75,0.75
		H0.75z"/>
	<path d="M1.525,18.75c-0.044,0-0.088-0.004-0.13-0.011c-0.513-0.06-0.923-0.47-0.983-0.983C0.404,17.713,0.4,17.669,0.4,17.625
		s0.004-0.088,0.011-0.131c0.06-0.513,0.47-0.922,0.983-0.982C1.436,16.504,1.48,16.5,1.525,16.5s0.088,0.004,0.13,0.011
		c0.513,0.06,0.923,0.469,0.983,0.982c0.008,0.043,0.011,0.087,0.011,0.131s-0.004,0.088-0.011,0.131
		c-0.06,0.513-0.47,0.922-0.983,0.983C1.613,18.746,1.569,18.75,1.525,18.75z"/>
	<path d="M4.525,15c-0.044,0-0.088-0.004-0.13-0.011c-0.513-0.06-0.923-0.47-0.983-0.983C3.404,13.963,3.4,13.919,3.4,13.875
		s0.004-0.088,0.011-0.131c0.06-0.513,0.47-0.922,0.983-0.982c0.042-0.008,0.086-0.011,0.13-0.011s0.088,0.004,0.13,0.011
		c0.513,0.06,0.923,0.469,0.983,0.982c0.008,0.043,0.011,0.087,0.011,0.131s-0.004,0.088-0.011,0.131
		c-0.06,0.513-0.47,0.922-0.983,0.983C4.613,14.996,4.569,15,4.525,15z"/>
	<path d="M8.275,18.75c-0.044,0-0.088-0.004-0.13-0.011c-0.513-0.06-0.923-0.47-0.983-0.983c-0.008-0.043-0.011-0.087-0.011-0.131
		s0.004-0.088,0.011-0.131c0.06-0.513,0.47-0.922,0.983-0.982C8.186,16.504,8.23,16.5,8.275,16.5s0.088,0.004,0.13,0.011
		c0.513,0.06,0.923,0.469,0.983,0.982C9.396,17.537,9.4,17.581,9.4,17.625s-0.004,0.088-0.011,0.131
		c-0.06,0.513-0.47,0.922-0.983,0.983C8.363,18.746,8.319,18.75,8.275,18.75z"/>
	<path d="M22.524,18.75c-0.044,0-0.088-0.004-0.13-0.011c-0.513-0.06-0.923-0.47-0.983-0.983c-0.008-0.042-0.011-0.086-0.011-0.131
		s0.004-0.088,0.011-0.131c0.06-0.513,0.47-0.923,0.983-0.983c0.042-0.008,0.086-0.011,0.131-0.011s0.088,0.004,0.131,0.011
		c0.513,0.06,0.923,0.47,0.983,0.983c0.008,0.042,0.011,0.086,0.011,0.131s-0.004,0.088-0.011,0.131
		c-0.06,0.513-0.47,0.923-0.983,0.983C22.613,18.746,22.569,18.75,22.524,18.75z"/>
	<path d="M19.524,15c-0.044,0-0.088-0.004-0.13-0.011c-0.513-0.06-0.923-0.47-0.983-0.983c-0.008-0.042-0.011-0.086-0.011-0.131
		s0.004-0.088,0.011-0.131c0.06-0.513,0.47-0.923,0.983-0.983c0.042-0.008,0.086-0.011,0.131-0.011s0.088,0.004,0.131,0.011
		c0.513,0.06,0.923,0.47,0.983,0.983c0.008,0.042,0.011,0.086,0.011,0.131s-0.004,0.088-0.011,0.131
		c-0.06,0.513-0.47,0.923-0.983,0.983C19.613,14.996,19.569,15,19.524,15z"/>
	<path d="M15.774,18.75c-0.044,0-0.088-0.004-0.13-0.011c-0.513-0.06-0.923-0.47-0.983-0.983c-0.008-0.042-0.011-0.086-0.011-0.131
		s0.004-0.088,0.011-0.131c0.06-0.513,0.47-0.923,0.983-0.983c0.042-0.008,0.086-0.011,0.131-0.011s0.088,0.004,0.131,0.011
		c0.513,0.06,0.923,0.47,0.983,0.983c0.008,0.042,0.011,0.086,0.011,0.131s-0.004,0.088-0.011,0.131
		c-0.06,0.513-0.47,0.923-0.983,0.983C15.863,18.746,15.819,18.75,15.774,18.75z"/>
	<path d="M12.025,15c-0.044,0-0.088-0.004-0.13-0.011c-0.513-0.06-0.923-0.47-0.983-0.983c-0.008-0.043-0.012-0.087-0.012-0.131
		s0.004-0.088,0.012-0.131c0.06-0.513,0.47-0.922,0.983-0.982c0.042-0.008,0.086-0.011,0.131-0.011s0.088,0.004,0.13,0.011
		c0.513,0.06,0.923,0.47,0.983,0.983c0.008,0.042,0.011,0.086,0.011,0.131s-0.004,0.088-0.011,0.131
		c-0.06,0.513-0.47,0.923-0.983,0.983C12.113,14.996,12.069,15,12.025,15z"/>
	<path d="M0.75,11.65c-0.258,0-0.495-0.13-0.633-0.348c-0.108-0.169-0.143-0.37-0.099-0.566s0.161-0.363,0.33-0.47
		c0.132-0.084,0.267-0.171,0.405-0.26c1.391-0.897,3.295-2.125,5.49-2.125c1.332,0,2.621,0.46,3.832,1.368
		c0.555,0.416,1.248,0.646,1.951,0.646c0.703,0,1.395-0.229,1.95-0.645c1.212-0.908,2.504-1.369,3.839-1.369
		c2.202,0,4.1,1.246,5.355,2.071l0.024,0.016c0.16,0.105,0.314,0.206,0.46,0.299c0.349,0.222,0.452,0.687,0.23,1.035
		c-0.139,0.218-0.375,0.348-0.633,0.348c-0.143,0-0.281-0.04-0.402-0.117c-0.159-0.101-0.326-0.211-0.502-0.327
		c-1.247-0.819-2.797-1.838-4.508-1.838c-1.023,0-1.992,0.354-2.963,1.081c-0.812,0.609-1.824,0.944-2.85,0.944
		c-1.026,0-2.038-0.335-2.85-0.944c-0.97-0.727-1.937-1.08-2.956-1.08c-1.711,0-3.274,1.008-4.653,1.897
		c-0.141,0.091-0.279,0.18-0.414,0.266C1.031,11.61,0.892,11.65,0.75,11.65z"/>
</g>
</svg>
