<?xml version="1.0" encoding="utf-8"?>
<!-- Generator: Adobe Illustrator 22.1.0, SVG Export Plug-In . SVG Version: 6.00 Build 0)  -->
<svg version="1.1" id="Regular" xmlns="http://www.w3.org/2000/svg" xmlns:xlink="http://www.w3.org/1999/xlink" x="0px" y="0px"
	 viewBox="0 0 24 24" style="enable-background:new 0 0 24 24;" xml:space="preserve">
<title>medical-specialty</title>
<g>
	<path d="M0.75,20.25C0.336,20.25,0,19.914,0,19.5s0.336-0.75,0.75-0.75h6c0.414,0,0.75,0.336,0.75,0.75s-0.336,0.75-0.75,0.75H0.75
		z"/>
	<path d="M0.75,24C0.336,24,0,23.664,0,23.25s0.336-0.75,0.75-0.75H6c1.654,0,3-1.346,3-3s-1.346-3-3-3H0.75
		C0.336,16.5,0,16.164,0,15.75S0.336,15,0.75,15H19.5c2.481,0,4.5,2.019,4.5,4.5S21.981,24,19.5,24H0.75z M19.5,22.5
		c1.654,0,3-1.346,3-3s-1.346-3-3-3H18v6H19.5z M16.5,22.5v-6H15v6H16.5z M13.5,22.5v-6H9.348c0.734,0.818,1.152,1.885,1.152,3
		s-0.419,2.182-1.152,3H13.5z"/>
	<path d="M6.75,12C6.336,12,6,11.664,6,11.25s0.336-0.75,0.75-0.75h3V8.185C7.621,7.823,6,5.938,6,3.75C6,2.509,4.991,1.5,3.75,1.5
		C3.336,1.5,3,1.164,3,0.75S3.336,0,3.75,0C5.818,0,7.5,1.682,7.5,3.75c0,1.387,0.942,2.569,2.25,2.904V1.5H9
		c-0.414,0-0.75-0.336-0.75-0.75S8.586,0,9,0h3c0.414,0,0.75,0.336,0.75,0.75S12.414,1.5,12,1.5h-0.75v5.154
		c1.308-0.335,2.25-1.517,2.25-2.904C13.5,1.682,15.182,0,17.25,0C17.664,0,18,0.336,18,0.75S17.664,1.5,17.25,1.5
		C16.009,1.5,15,2.509,15,3.75c0,2.188-1.621,4.073-3.75,4.435V10.5h3c0.414,0,0.75,0.336,0.75,0.75S14.664,12,14.25,12H6.75z"/>
</g>
</svg>
