<?xml version="1.0" encoding="utf-8"?>
<!-- Generator: Adobe Illustrator 22.1.0, SVG Export Plug-In . SVG Version: 6.00 Build 0)  -->
<svg version="1.1" id="Regular" xmlns="http://www.w3.org/2000/svg" xmlns:xlink="http://www.w3.org/1999/xlink" x="0px" y="0px"
	 viewBox="0 0 24 24" style="enable-background:new 0 0 24 24;" xml:space="preserve">
<title>medical-nanobot-heart</title>
<g>
	<path d="M17.327,13.25c-0.414,0-0.75-0.336-0.75-0.75V9.924L13.6,8.137l-0.606,0.405C12.65,8.77,12.555,9.234,12.78,9.578
		c0.001,0.001,0.671,1.004,0.671,1.004c0.111,0.167,0.151,0.366,0.112,0.563c-0.039,0.197-0.152,0.366-0.319,0.478
		c-0.124,0.083-0.268,0.126-0.416,0.126c-0.251,0-0.485-0.125-0.624-0.334c0,0-0.668-1-0.668-1c-0.005-0.008-0.01-0.016-0.015-0.024
		c-0.667-1.045-0.379-2.419,0.642-3.098l0.665-0.444v-3.25c0-0.786,0.418-1.525,1.092-1.929l2.25-1.35
		c0.35-0.21,0.75-0.322,1.158-0.322c0.407,0,0.808,0.111,1.158,0.322l2.25,1.35c0.674,0.404,1.092,1.143,1.092,1.929v3.25
		l0.667,0.445c0.499,0.331,0.84,0.838,0.96,1.427c0.12,0.589,0.002,1.189-0.33,1.69c-0.003,0.004-0.671,1.004-0.671,1.004
		c-0.139,0.209-0.373,0.333-0.624,0.333c-0.149,0-0.293-0.044-0.416-0.126c-0.167-0.111-0.28-0.281-0.319-0.478
		c-0.039-0.196,0.001-0.396,0.112-0.563l0.668-1c0.228-0.348,0.132-0.812-0.211-1.04l-0.607-0.405l-2.979,1.786V12.5
		C18.077,12.914,17.741,13.25,17.327,13.25z M17.327,8.625l3-1.799V3.599c0-0.262-0.139-0.508-0.364-0.643l-2.25-1.35
		c-0.117-0.07-0.251-0.107-0.386-0.107c-0.135,0-0.269,0.037-0.385,0.107l-2.25,1.35c-0.224,0.135-0.364,0.381-0.364,0.643v3.225
		L17.327,8.625z"/>
	<path d="M16.577,5.75c-0.414,0-0.75-0.336-0.75-0.75s0.336-0.75,0.75-0.75h1.5c0.414,0,0.75,0.336,0.75,0.75s-0.336,0.75-0.75,0.75
		H16.577z"/>
	<path d="M8.327,23.749c-0.203,0-0.4-0.084-0.541-0.231L1.394,16.85c-1.373-1.372-1.712-3.472-0.838-5.22
		c0.772-1.545,2.328-2.505,4.06-2.505c0.706,0,1.386,0.161,2.02,0.478c0.437,0.218,0.833,0.504,1.178,0.849l0.514,0.514l0.514-0.514
		c0.142-0.142,0.33-0.22,0.53-0.22s0.389,0.078,0.53,0.22c0.142,0.142,0.22,0.33,0.22,0.53c0,0.2-0.078,0.389-0.22,0.53
		l-1.044,1.044c-0.142,0.142-0.33,0.22-0.53,0.22s-0.389-0.078-0.53-0.22l-1.044-1.044c-0.231-0.231-0.496-0.422-0.788-0.568
		c-0.425-0.212-0.879-0.32-1.351-0.32c-1.159,0-2.2,0.642-2.717,1.676c-0.584,1.169-0.356,2.575,0.568,3.5l5.862,6.114l5.851-6.103
		c0.363-0.362,0.627-0.802,0.77-1.278C15.045,14.214,15.334,14,15.667,14c0.073,0,0.145,0.01,0.215,0.031
		c0.397,0.12,0.622,0.539,0.503,0.935c-0.215,0.714-0.608,1.37-1.135,1.896l-6.38,6.656C8.728,23.665,8.531,23.749,8.327,23.749z"/>
</g>
</svg>
