<?xml version="1.0" encoding="utf-8"?>
<!-- Generator: Adobe Illustrator 22.1.0, SVG Export Plug-In . SVG Version: 6.00 Build 0)  -->
<svg version="1.1" id="Regular" xmlns="http://www.w3.org/2000/svg" xmlns:xlink="http://www.w3.org/1999/xlink" x="0px" y="0px"
	 viewBox="0 0 24 24" style="enable-background:new 0 0 24 24;" xml:space="preserve">
<title>medical-hospital-1</title>
<g>
	<path d="M17.037,15.898c-0.086,0-0.171-0.015-0.252-0.044c-0.189-0.068-0.34-0.205-0.426-0.386
		c-0.085-0.181-0.095-0.385-0.028-0.573c0.046-0.129,0.069-0.264,0.066-0.402c-0.01-0.617-0.52-1.119-1.136-1.119l-0.031,0
		c-0.407,0-0.743-0.331-0.75-0.738c-0.003-0.2,0.072-0.39,0.211-0.534c0.139-0.144,0.326-0.225,0.527-0.228l0.043,0
		c1.43,0,2.613,1.164,2.636,2.594c0.005,0.319-0.047,0.633-0.154,0.932C17.636,15.698,17.352,15.898,17.037,15.898z"/>
	<path d="M12.033,24c-0.414,0-0.75-0.336-0.75-0.75v-2.198h-0.849c-0.476,0.011-0.861,0.418-0.85,0.908
		c-0.001,0.281,0.107,0.539,0.298,0.721c0.3,0.285,0.311,0.761,0.027,1.06c-0.141,0.148-0.339,0.233-0.544,0.233
		c-0.193,0-0.377-0.073-0.517-0.207c-0.489-0.465-0.767-1.119-0.764-1.794c-0.03-1.3,1.016-2.391,2.333-2.421h0.866v-2.338H8.835
		c-1.494-0.042-2.661-1.233-2.669-2.71c0.019-1.453,1.207-2.629,2.65-2.629c0.001,0,0.026,0,0.027,0
		c0.413,0.004,0.746,0.344,0.742,0.757c-0.004,0.415-0.335,0.741-0.752,0.743c-0.643,0-1.158,0.509-1.167,1.135
		c0.003,0.654,0.526,1.186,1.19,1.205l2.427,0V6.783C10.389,6.583,9.608,6.03,9.12,5.25H1.682c-0.056,0-0.094,0.005-0.117,0.01
		C1.539,5.471,1.742,6.14,2.469,6.89c0.468,0.483,1.765,1.606,3.7,1.606c0.658,0,1.336-0.133,2.015-0.396
		C8.27,8.067,8.361,8.05,8.454,8.05c0.308,0,0.589,0.193,0.7,0.48C9.302,8.916,9.11,9.351,8.724,9.5
		C7.889,9.822,7.038,9.986,6.195,9.986c-1.789,0-3.541-0.748-4.804-2.053c-1.097-1.133-1.568-2.426-1.2-3.295
		C0.304,4.372,0.676,3.75,1.682,3.75h6.932c-0.01-0.106-0.016-0.212-0.016-0.316C8.599,1.541,10.139,0,12.033,0
		s3.434,1.541,3.434,3.434c0,0.104-0.005,0.21-0.016,0.316h6.932c1.006,0,1.378,0.622,1.491,0.889
		c0.368,0.869-0.103,2.162-1.2,3.294c-1.264,1.305-3.015,2.053-4.804,2.053c-0.843,0-1.694-0.164-2.529-0.486
		c-0.187-0.072-0.334-0.213-0.416-0.396c-0.081-0.183-0.086-0.387-0.014-0.574c0.113-0.292,0.388-0.479,0.7-0.479
		c0.092,0,0.183,0.017,0.269,0.05c0.68,0.263,1.358,0.396,2.015,0.396c1.936,0,3.233-1.124,3.701-1.607
		c0.73-0.754,0.932-1.425,0.905-1.63c-0.023-0.005-0.061-0.01-0.119-0.01h-7.437c-0.488,0.78-1.27,1.333-2.163,1.533v8.931h1.168
		c0.713,0,1.384,0.278,1.887,0.783c0.504,0.504,0.781,1.175,0.781,1.888c-0.001,1.469-1.198,2.666-2.667,2.667h-1.169v2.198
		C12.783,23.664,12.446,24,12.033,24z M13.951,19.552c0.643,0,1.167-0.524,1.168-1.168c0-0.312-0.121-0.606-0.342-0.827
		c-0.22-0.221-0.514-0.343-0.826-0.343h-1.168v2.338H13.951z M12.033,1.5c-1.066,0-1.934,0.868-1.934,1.934s0.868,1.934,1.934,1.934
		c0.766,0,1.461-0.455,1.77-1.159c0.003-0.007,0.012-0.026,0.016-0.033c0.096-0.226,0.148-0.48,0.148-0.742
		C13.967,2.368,13.099,1.5,12.033,1.5z"/>
</g>
</svg>
