<?xml version="1.0" encoding="utf-8"?>
<!-- Generator: Adobe Illustrator 22.1.0, SVG Export Plug-In . SVG Version: 6.00 Build 0)  -->
<svg version="1.1" id="Regular" xmlns="http://www.w3.org/2000/svg" xmlns:xlink="http://www.w3.org/1999/xlink" x="0px" y="0px"
	 viewBox="0 0 24 24" style="enable-background:new 0 0 24 24;" xml:space="preserve">
<title>medical-nanobot-pill</title>
<g>
	<path d="M17.257,13.268c-0.414,0-0.75-0.336-0.75-0.75V9.942l-2.979-1.786l-0.605,0.404c-0.343,0.228-0.438,0.691-0.215,1.035
		c0.002,0.002,0.672,1.006,0.672,1.006c0.111,0.167,0.151,0.366,0.112,0.563c-0.039,0.197-0.152,0.366-0.319,0.478
		c-0.124,0.083-0.268,0.126-0.416,0.126c-0.251,0-0.485-0.125-0.624-0.334l-0.666-0.997c-0.006-0.009-0.013-0.019-0.018-0.029
		c-0.665-1.046-0.377-2.418,0.643-3.096l0.665-0.444v-3.25c0-0.786,0.418-1.526,1.092-1.93l2.25-1.35
		c0.35-0.21,0.751-0.321,1.158-0.321c0.407,0,0.808,0.111,1.158,0.321l2.25,1.35c0.674,0.404,1.093,1.144,1.092,1.931v3.25
		l0.667,0.445c0.499,0.332,0.84,0.839,0.959,1.429c0.118,0.588,0.001,1.186-0.329,1.685c-0.001,0.002-0.673,1.008-0.673,1.008
		c-0.139,0.209-0.373,0.333-0.624,0.333c-0.149,0-0.293-0.044-0.417-0.127c-0.166-0.111-0.28-0.28-0.319-0.477
		c-0.039-0.196,0.001-0.396,0.112-0.563c0,0,0.671-1.004,0.672-1.006c0.108-0.166,0.146-0.363,0.106-0.557
		c-0.04-0.196-0.153-0.366-0.32-0.476l-0.606-0.405l-2.979,1.786v2.576C18.007,12.931,17.671,13.268,17.257,13.268z M17.257,8.642
		l3-1.799V3.617c0-0.263-0.139-0.509-0.364-0.644l-2.25-1.35c-0.117-0.07-0.251-0.107-0.386-0.107s-0.269,0.037-0.386,0.107
		l-2.25,1.35c-0.224,0.135-0.364,0.381-0.364,0.644v3.227L17.257,8.642z"/>
	<path d="M16.507,5.768c-0.414,0-0.75-0.336-0.75-0.75s0.336-0.75,0.75-0.75h1.5c0.414,0,0.75,0.336,0.75,0.75
		s-0.336,0.75-0.75,0.75H16.507z"/>
	<path d="M13.768,23.736c-1.473,0-2.872-0.573-3.94-1.614l-8.167-8.168c-2.178-2.234-2.133-5.817,0.096-7.989
		c1.068-1.041,2.467-1.614,3.94-1.614s2.872,0.573,3.94,1.614C9.933,6.253,9.939,6.729,9.65,7.025
		C9.508,7.171,9.317,7.252,9.113,7.252c-0.197,0-0.382-0.076-0.523-0.213C7.805,6.274,6.777,5.852,5.697,5.852
		c-1.08,0-2.108,0.421-2.893,1.186C2.013,7.81,1.569,8.845,1.554,9.954C1.54,11.062,1.957,12.109,2.728,12.9l3.501,3.502
		l3.705-3.706c0.142-0.142,0.33-0.22,0.53-0.22s0.389,0.078,0.53,0.22c0.292,0.292,0.292,0.768,0,1.061L7.29,17.463l3.591,3.592
		c0.78,0.76,1.806,1.18,2.885,1.18c1.081,0,2.109-0.422,2.894-1.187c1.637-1.595,1.671-4.225,0.075-5.861
		c-0.289-0.296-0.282-0.772,0.014-1.061c0.141-0.137,0.327-0.213,0.523-0.213c0.204,0,0.395,0.081,0.537,0.227
		c1.051,1.078,1.619,2.503,1.599,4.012s-0.624,2.919-1.702,3.97C16.64,23.162,15.241,23.736,13.768,23.736z"/>
	<path d="M13.318,20.478c-0.761,0-1.476-0.295-2.013-0.831L9.82,18.159c-0.292-0.293-0.291-0.769,0.001-1.061
		c0.141-0.141,0.329-0.219,0.53-0.219c0.201,0,0.39,0.078,0.531,0.221l1.484,1.488c0.253,0.252,0.591,0.392,0.952,0.392
		c0.361,0,0.699-0.139,0.953-0.393c0.142-0.141,0.33-0.219,0.53-0.219c0.201,0,0.389,0.078,0.531,0.221
		c0.292,0.293,0.291,0.769-0.001,1.061C14.794,20.183,14.079,20.478,13.318,20.478z"/>
</g>
</svg>
