<?xml version="1.0" encoding="utf-8"?>
<!-- Generator: Adobe Illustrator 22.1.0, SVG Export Plug-In . SVG Version: 6.00 Build 0)  -->
<svg version="1.1" id="Layer_1" xmlns="http://www.w3.org/2000/svg" xmlns:xlink="http://www.w3.org/1999/xlink" x="0px" y="0px"
	 viewBox="0 0 24 24" style="enable-background:new 0 0 24 24;" xml:space="preserve">
<title>meeting-smartphone</title>
<g>
	<path d="M12.75,10.511c-1.241,0-2.25-1.009-2.25-2.25v-6c0-1.241,1.009-2.25,2.25-2.25h6c1.227,0,2.228,0.987,2.25,2.21
		l2.013-0.671c0.077-0.026,0.157-0.039,0.238-0.039c0.158,0,0.31,0.049,0.438,0.142C23.884,1.793,24,2.02,24,2.261v6
		c0,0.241-0.116,0.468-0.312,0.609c-0.128,0.092-0.28,0.141-0.438,0.141l0,0c-0.081,0-0.161-0.013-0.237-0.038L21,8.301
		c-0.022,1.222-1.022,2.21-2.25,2.21H12.75z M12.75,1.511c-0.414,0-0.75,0.336-0.75,0.75v6c0,0.414,0.336,0.75,0.75,0.75h6
		c0.414,0,0.75-0.336,0.75-0.75v-1c0-0.241,0.116-0.468,0.312-0.609c0.128-0.092,0.28-0.141,0.438-0.141
		c0.081,0,0.16,0.013,0.237,0.038L22.5,7.221V3.302l-2.013,0.671c-0.076,0.026-0.156,0.039-0.238,0.039
		c-0.158,0-0.31-0.049-0.438-0.142C19.616,3.729,19.5,3.502,19.5,3.261v-1c0-0.414-0.336-0.75-0.75-0.75H12.75z"/>
	<path d="M3.483,24.011c-0.931,0-1.805-0.362-2.462-1.019C0.363,22.335,0,21.46,0,20.53V4.993c0-1.92,1.562-3.482,3.482-3.482H8.25
		C8.664,1.511,9,1.847,9,2.261s-0.336,0.75-0.75,0.75H3.483c-0.926,0-1.706,0.633-1.921,1.5H8.25C8.664,4.511,9,4.847,9,5.261
		s-0.336,0.75-0.75,0.75H1.5v10.5H12v-3.75c0-0.414,0.336-0.75,0.75-0.75s0.75,0.336,0.75,0.75v7.767
		c0,1.92-1.561,3.482-3.481,3.483H3.483z M1.5,20.528c0,0.531,0.207,1.029,0.581,1.403c0.374,0.374,0.872,0.58,1.401,0.58h6.536
		c0.529,0,1.026-0.207,1.401-0.582C11.794,21.554,12,21.057,12,20.528v-2.517H1.5V20.528z"/>
	<circle cx="6.75" cy="20.261" r="1.125"/>
</g>
</svg>
