<?xml version="1.0" encoding="utf-8"?>
<!-- Generator: Adobe Illustrator 22.1.0, SVG Export Plug-In . SVG Version: 6.00 Build 0)  -->
<svg version="1.1" id="Layer_1" xmlns="http://www.w3.org/2000/svg" xmlns:xlink="http://www.w3.org/1999/xlink" x="0px" y="0px"
	 viewBox="0 0 24 24" style="enable-background:new 0 0 24 24;" xml:space="preserve">
<title>meeting-team-monitor</title>
<g>
	<path d="M14.25,16.511c-0.414,0-0.75-0.336-0.75-0.75s0.336-0.75,0.75-0.75h7.5c0.414,0,0.75-0.336,0.75-0.75v-12
		c0-0.414-0.336-0.75-0.75-0.75h-18C3.336,1.511,3,1.847,3,2.261v7.5c0,0.414-0.336,0.75-0.75,0.75S1.5,10.175,1.5,9.761v-7.5
		c0-1.241,1.009-2.25,2.25-2.25h18c1.241,0,2.25,1.009,2.25,2.25v12c0,1.241-1.009,2.25-2.25,2.25H14.25z"/>
	<path d="M15.349,24.011c-0.213,0-0.417-0.091-0.56-0.25c-0.567-0.635-2.308-1.274-4.152-1.951l-0.585-0.216
		c-0.32-0.118-0.74-0.421-0.928-1.193c-0.166-0.683-0.137-1.967,0.35-2.503c0.879-0.953,1.311-2.237,1.185-3.523
		c-0.002-0.023-0.004-0.048-0.004-0.073c0-1.789-1.072-3.039-2.607-3.039c-1.536,0-2.608,1.249-2.608,3.037
		c0,0.023-0.001,0.046-0.003,0.07c-0.126,1.289,0.305,2.572,1.182,3.521c0.497,0.547,0.524,1.807,0.354,2.507
		c-0.188,0.772-0.608,1.074-0.926,1.192l-0.613,0.226c-1.833,0.675-3.563,1.311-4.126,1.941c-0.141,0.159-0.346,0.251-0.559,0.251
		c-0.185,0-0.362-0.068-0.5-0.191c-0.149-0.133-0.238-0.317-0.249-0.517c-0.011-0.2,0.056-0.392,0.19-0.542
		c0.813-0.91,2.54-1.546,4.727-2.35l0.543-0.2c0.012-0.024,0.027-0.062,0.043-0.115c0.13-0.445,0.037-1.065-0.023-1.227
		c-1.132-1.247-1.693-2.921-1.539-4.604c0.016-2.609,1.741-4.5,4.108-4.5c2.366,0,4.091,1.893,4.107,4.502
		c0.154,1.682-0.407,3.357-1.541,4.608c-0.059,0.164-0.148,0.783-0.02,1.223c0.016,0.054,0.031,0.092,0.043,0.115l0.516,0.19
		c2.201,0.809,3.938,1.447,4.754,2.36c0.133,0.149,0.201,0.342,0.189,0.542c-0.011,0.2-0.1,0.384-0.249,0.517
		C15.711,23.943,15.533,24.011,15.349,24.011z"/>
	<path d="M14.25,11.943c-0.414,0-0.75-0.336-0.75-0.75s0.336-0.75,0.75-0.75h1.5v-0.75c0-0.233,0.105-0.448,0.289-0.591
		c0.131-0.102,0.295-0.159,0.461-0.159c0.061,0,0.122,0.007,0.182,0.022l2.069,0.517V6.904L16.682,7.42
		c-0.06,0.015-0.121,0.023-0.183,0.023c-0.166,0-0.33-0.056-0.461-0.159c-0.183-0.143-0.289-0.359-0.289-0.591v-0.75h-4.5v2.25
		c0,0.414-0.336,0.75-0.75,0.75s-0.75-0.336-0.75-0.75v-2.25c0-0.827,0.673-1.5,1.5-1.5h4.5c0.757,0,1.385,0.563,1.486,1.293
		l2.082-0.521c0.059-0.015,0.121-0.023,0.183-0.023c0.166,0,0.33,0.056,0.461,0.159c0.183,0.143,0.289,0.359,0.289,0.591v4.5
		c0,0.233-0.105,0.448-0.289,0.591c-0.132,0.102-0.295,0.159-0.461,0.159c-0.061,0-0.122-0.008-0.182-0.022l-2.083-0.521
		c-0.101,0.729-0.729,1.293-1.486,1.293H14.25z"/>
</g>
</svg>
