<?xml version="1.0" encoding="utf-8"?>
<!-- Generator: Adobe Illustrator 22.1.0, SVG Export Plug-In . SVG Version: 6.00 Build 0)  -->
<svg version="1.1" id="Layer_1" xmlns="http://www.w3.org/2000/svg" xmlns:xlink="http://www.w3.org/1999/xlink" x="0px" y="0px"
	 viewBox="0 0 24 24" style="enable-background:new 0 0 24 24;" xml:space="preserve">
<title>meeting-team-laptop-1</title>
<g>
	<path d="M14.25,24c-0.414,0-0.75-0.336-0.75-0.75c0-3.308-2.692-6-6-6s-6,2.692-6,6C1.5,23.664,1.163,24,0.75,24S0,23.664,0,23.25
		c0-4.135,3.365-7.5,7.5-7.5s7.5,3.365,7.5,7.5C15,23.664,14.663,24,14.25,24z"/>
	<path d="M7.5,15.75c-2.688,0-4.875-2.187-4.875-4.875C2.625,8.187,4.812,6,7.5,6s4.875,2.187,4.875,4.875
		C12.375,13.563,10.188,15.75,7.5,15.75z M7.5,7.5c-1.861,0-3.375,1.514-3.375,3.375c0,1.861,1.514,3.375,3.375,3.375
		s3.375-1.514,3.375-3.375C10.875,9.014,9.361,7.5,7.5,7.5z"/>
	<path d="M6.75,4.5C6.336,4.5,6,4.164,6,3.75V1.817C5.969,0.853,6.743,0.033,7.725,0L9,0c0.414,0,0.75,0.336,0.75,0.75
		S9.413,1.5,9,1.5H7.75c-0.135,0.005-0.255,0.139-0.25,0.293l0,1.957C7.5,4.164,7.163,4.5,6.75,4.5z"/>
	<path d="M14.25,15.75c-0.414,0-0.75-0.336-0.75-0.75s0.336-0.75,0.75-0.75h5.951c0.908-0.127,1.673-0.695,2.058-1.5H14.25
		c-0.414,0-0.75-0.336-0.75-0.75s0.336-0.75,0.75-0.75H21V1.817c0.005-0.178-0.115-0.312-0.275-0.318l-1.225,0
		c-0.414,0-0.75-0.336-0.75-0.75S19.086,0,19.5,0h1.25c1.001,0.033,1.781,0.859,1.75,1.841l0,9.409h0.75
		c0.215,0,0.419,0.092,0.562,0.253c0.143,0.162,0.209,0.376,0.182,0.589c-0.236,1.914-1.738,3.416-3.652,3.652
		c-0.029,0.004-0.06,0.006-0.092,0.006H14.25z"/>
	<path d="M14.25,6.75c-1.861,0-3.375-1.514-3.375-3.375S12.389,0,14.25,0s3.375,1.514,3.375,3.375S16.111,6.75,14.25,6.75z
		 M14.25,1.5c-1.034,0-1.875,0.841-1.875,1.875S13.216,5.25,14.25,5.25s1.875-0.841,1.875-1.875S15.284,1.5,14.25,1.5z"/>
	<path d="M17.605,9.002c-0.214,0-0.418-0.091-0.56-0.251c-0.708-0.794-1.724-1.249-2.788-1.249c-0.42,0-0.757-0.336-0.757-0.749
		c0-0.413,0.335-0.75,0.749-0.751c1.5,0,2.924,0.638,3.916,1.751c0.275,0.308,0.248,0.783-0.06,1.059
		C17.967,8.934,17.79,9.002,17.605,9.002z"/>
</g>
</svg>
