<?xml version="1.0" encoding="utf-8"?>
<!-- Generator: Adobe Illustrator 22.1.0, SVG Export Plug-In . SVG Version: 6.00 Build 0)  -->
<svg version="1.1" id="Layer_1" xmlns="http://www.w3.org/2000/svg" xmlns:xlink="http://www.w3.org/1999/xlink" x="0px" y="0px"
	 viewBox="0 0 24 24" style="enable-background:new 0 0 24 24;" xml:space="preserve">
<title>meeting-smartphone-hold</title>
<g>
	<path d="M22.125,24c-0.251,0-0.485-0.125-0.624-0.334l-3-4.5c-0.083-0.124-0.126-0.268-0.126-0.416V13.5
		c0-1.188-2.292-2.797-3.75-3.802v3.189l1.649,1.322c0.323,0.259,0.375,0.732,0.116,1.054c-0.144,0.179-0.357,0.281-0.586,0.281
		c-0.169,0-0.336-0.059-0.468-0.165l-1.889-1.514c-0.029-0.02-0.056-0.042-0.082-0.066l-1.677-1.344
		c-0.021-0.017-0.043-0.036-0.063-0.057c-0.096-0.096-0.238-0.151-0.39-0.151s-0.294,0.056-0.391,0.153
		c-0.104,0.104-0.162,0.243-0.162,0.391s0.057,0.287,0.162,0.391l3.565,4.02c0.122,0.137,0.189,0.314,0.189,0.498v2.5
		c0,0.616,0.873,1.857,1.493,2.542c0.278,0.307,0.254,0.782-0.053,1.06c-0.138,0.125-0.317,0.194-0.503,0.194
		c-0.212,0-0.414-0.09-0.556-0.247c-0.184-0.204-1.003-1.138-1.496-2.153c-0.636,0.578-1.461,0.902-2.339,0.905H4.608
		c-1.92,0-3.482-1.561-3.483-3.48V3.482C1.125,1.562,2.687,0,4.607,0h6.268c2.068,0,3.75,1.682,3.75,3.75v4.121
		c0.208,0.15,0.448,0.315,0.728,0.508c1.909,1.313,4.522,3.112,4.522,5.122v5.023l2.874,4.311c0.229,0.344,0.136,0.811-0.208,1.04
		C22.417,23.956,22.274,24,22.125,24z M2.625,19.017C2.625,20.11,3.514,21,4.607,21h6.535c0.95-0.003,1.767-0.677,1.956-1.607
		v-1.408L9.752,14.21c-0.357-0.354-0.57-0.878-0.57-1.419c0-0.549,0.214-1.064,0.601-1.452c0.388-0.388,0.903-0.601,1.452-0.601
		c0.532,0,1.036,0.202,1.419,0.569l0.47,0.377V3.75c0-1.241-1.009-2.25-2.25-2.25H4.608c-1.094,0-1.983,0.889-1.983,1.982V15h5.25
		c0.414,0,0.75,0.336,0.75,0.75s-0.336,0.75-0.75,0.75h-5.25V19.017z"/>
	<path d="M7.779,8.346c-1.628,0-2.952-1.324-2.952-2.952c0-1.628,1.324-2.952,2.952-2.952c1.628,0,2.952,1.324,2.952,2.952
		C10.731,7.022,9.406,8.346,7.779,8.346z M7.779,3.942c-0.801,0-1.452,0.651-1.452,1.452c0,0.801,0.651,1.452,1.452,1.452
		c0.801,0,1.452-0.651,1.452-1.452C9.231,4.593,8.579,3.942,7.779,3.942z"/>
	<path d="M4.875,10.391c-0.222,0-0.431-0.097-0.574-0.267C4.172,9.971,4.11,9.777,4.128,9.577c0.017-0.2,0.111-0.381,0.264-0.51
		c0.944-0.796,2.15-1.234,3.396-1.234c0.906,0,1.798,0.233,2.581,0.675c0.36,0.203,0.488,0.662,0.284,1.022
		C10.52,9.766,10.27,9.912,10,9.912l0,0c-0.129,0-0.256-0.034-0.369-0.097C9.072,9.5,8.435,9.333,7.787,9.333
		c-0.892,0-1.754,0.313-2.429,0.881C5.223,10.328,5.052,10.391,4.875,10.391z"/>
	<circle cx="7.875" cy="18.75" r="1.125"/>
</g>
</svg>
