<?xml version="1.0" encoding="utf-8"?>
<!-- Generator: Adobe Illustrator 22.1.0, SVG Export Plug-In . SVG Version: 6.00 Build 0)  -->
<svg version="1.1" id="Layer_1" xmlns="http://www.w3.org/2000/svg" xmlns:xlink="http://www.w3.org/1999/xlink" x="0px" y="0px"
	 viewBox="0 0 24 24" style="enable-background:new 0 0 24 24;" xml:space="preserve">
<title>meeting-team-monitor-1</title>
<g>
	<path d="M15,9.01c-1.654,0-3-1.346-3-3s1.346-3,3-3s3,1.346,3,3S16.654,9.01,15,9.01z M15,4.51c-0.827,0-1.5,0.673-1.5,1.5
		s0.673,1.5,1.5,1.5s1.5-0.673,1.5-1.5S15.827,4.51,15,4.51z"/>
	<path d="M18.75,13.51c-0.414,0-0.75-0.336-0.75-0.75c0-1.654-1.346-3-3-3c-0.414,0-0.75-0.336-0.75-0.75S14.586,8.26,15,8.26
		c2.481,0,4.5,2.019,4.5,4.5C19.5,13.173,19.164,13.51,18.75,13.51z"/>
	<path d="M15.75,19.51c-0.414,0-0.75-0.336-0.75-0.75s0.336-0.75,0.75-0.75h0.75v-1.5h-2.25c-0.414,0-0.75-0.336-0.75-0.75
		s0.336-0.75,0.75-0.75h7.5c0.414,0,0.75-0.336,0.75-0.75v-12c0-0.414-0.336-0.75-0.75-0.75h-18C3.336,1.51,3,1.846,3,2.26v2.25
		c0,0.414-0.336,0.75-0.75,0.75S1.5,4.923,1.5,4.51V2.26c0-1.241,1.009-2.25,2.25-2.25h18c1.241,0,2.25,1.009,2.25,2.25v12
		c0,1.241-1.009,2.25-2.25,2.25H18v1.5h1.5c0.414,0,0.75,0.336,0.75,0.75s-0.336,0.75-0.75,0.75H15.75z"/>
	<path d="M14.25,24.01c-0.414,0-0.75-0.336-0.75-0.75c0-3.308-2.692-6-6-6s-6,2.692-6,6c0,0.414-0.336,0.75-0.75,0.75
		S0,23.673,0,23.26c0-4.135,3.365-7.5,7.5-7.5s7.5,3.365,7.5,7.5C15,23.673,14.664,24.01,14.25,24.01z"/>
	<path d="M7.5,15.76c-2.688,0-4.875-2.187-4.875-4.875c0-2.688,2.187-4.875,4.875-4.875s4.875,2.187,4.875,4.875
		C12.375,13.573,10.188,15.76,7.5,15.76z M7.5,7.51c-1.861,0-3.375,1.514-3.375,3.375c0,1.861,1.514,3.375,3.375,3.375
		s3.375-1.514,3.375-3.375C10.875,9.024,9.361,7.51,7.5,7.51z"/>
</g>
</svg>
