<?xml version="1.0" encoding="utf-8"?>
<!-- Generator: Adobe Illustrator 22.1.0, SVG Export Plug-In . SVG Version: 6.00 Build 0)  -->
<svg version="1.1" id="Layer_1" xmlns="http://www.w3.org/2000/svg" xmlns:xlink="http://www.w3.org/1999/xlink" x="0px" y="0px"
	 viewBox="0 0 24 24" style="enable-background:new 0 0 24 24;" xml:space="preserve">
<title>meeting-laptop</title>
<g>
	<path d="M2.249,24.011c-0.602-0.002-1.166-0.238-1.59-0.664c-0.424-0.427-0.657-0.992-0.655-1.592
		c0.001-0.269,0.049-0.533,0.144-0.784l1.125-3c0.132-0.353,0.355-0.666,0.644-0.912C1.648,16.681,1.5,16.227,1.5,15.761v-7.5
		c0-1.241,1.009-2.25,2.25-2.25h4.5C8.664,6.011,9,6.347,9,6.761s-0.336,0.75-0.75,0.75h-4.5C3.336,7.511,3,7.847,3,8.261v7.5
		c0,0.414,0.336,0.75,0.75,0.75h12c0.414,0,0.75-0.336,0.75-0.75v-3c0-0.414,0.336-0.75,0.75-0.75S18,12.347,18,12.761v3
		c0,0.466-0.148,0.921-0.416,1.299c0.288,0.246,0.51,0.559,0.642,0.911l1.125,3c0.436,1.161-0.155,2.46-1.316,2.897
		c-0.252,0.094-0.516,0.142-0.784,0.143c0,0-0.001,0-0.001,0H2.249z M3.374,18.011c-0.309,0.001-0.589,0.197-0.698,0.486l-1.125,3
		c-0.031,0.084-0.047,0.172-0.048,0.262c-0.001,0.413,0.334,0.75,0.748,0.752h14.998c0.088,0,0.176-0.016,0.26-0.048
		c0.386-0.145,0.583-0.578,0.438-0.965l-1.125-3c-0.109-0.29-0.39-0.485-0.7-0.486H3.374z"/>
	<path d="M8.25,21.011c-0.414,0-0.75-0.336-0.75-0.75s0.336-0.75,0.75-0.75h3c0.414,0,0.75,0.336,0.75,0.75s-0.336,0.75-0.75,0.75
		H8.25z"/>
	<path d="M12.75,10.511c-1.241,0-2.25-1.009-2.25-2.25v-6c0-1.241,1.009-2.25,2.25-2.25h6c1.227,0,2.228,0.987,2.25,2.21
		l2.013-0.671c0.076-0.026,0.156-0.039,0.238-0.039c0.158,0,0.31,0.049,0.438,0.142C23.884,1.793,24,2.02,24,2.261v6
		c0,0.241-0.116,0.468-0.312,0.609c-0.128,0.092-0.28,0.141-0.438,0.141l0,0c-0.081,0-0.161-0.013-0.237-0.039L21,8.301
		c-0.022,1.222-1.022,2.21-2.25,2.21H12.75z M12.75,1.511c-0.414,0-0.75,0.336-0.75,0.75v6c0,0.414,0.336,0.75,0.75,0.75h6
		c0.414,0,0.75-0.336,0.75-0.75v-1c0-0.241,0.116-0.468,0.312-0.609c0.128-0.092,0.28-0.141,0.438-0.141
		c0.081,0,0.16,0.013,0.237,0.038L22.5,7.221V3.302l-2.013,0.671c-0.076,0.026-0.156,0.039-0.238,0.039
		c-0.158,0-0.31-0.049-0.438-0.142C19.617,3.729,19.5,3.502,19.5,3.261v-1c0-0.414-0.336-0.75-0.75-0.75H12.75z"/>
</g>
</svg>
