<?xml version="1.0" encoding="utf-8"?>
<!-- Generator: Adobe Illustrator 22.1.0, SVG Export Plug-In . SVG Version: 6.00 Build 0)  -->
<svg version="1.1" id="Layer_1" xmlns="http://www.w3.org/2000/svg" xmlns:xlink="http://www.w3.org/1999/xlink" x="0px" y="0px"
	 viewBox="0 0 24 24" style="enable-background:new 0 0 24 24;" xml:space="preserve">
<title>meeting-camera-square</title>
<g>
	<path d="M7.5,17.261c-1.241,0-2.25-1.009-2.25-2.25v-6c0-1.241,1.009-2.25,2.25-2.25h6c1.227,0,2.228,0.987,2.25,2.21L17.763,8.3
		C17.839,8.274,17.919,8.261,18,8.261c0.158,0,0.31,0.049,0.438,0.142c0.195,0.14,0.312,0.368,0.312,0.608v6
		c0,0.24-0.116,0.468-0.312,0.608c-0.128,0.093-0.28,0.142-0.438,0.142l0,0c-0.081,0-0.16-0.013-0.237-0.039l-2.013-0.671
		c-0.022,1.222-1.022,2.209-2.25,2.209H7.5z M7.5,8.261c-0.414,0-0.75,0.336-0.75,0.75v6c0,0.414,0.336,0.75,0.75,0.75h6
		c0.414,0,0.75-0.336,0.75-0.75v-1c0-0.24,0.116-0.468,0.312-0.608c0.129-0.093,0.28-0.142,0.438-0.142
		c0.081,0,0.161,0.013,0.238,0.039l2.012,0.671v-3.919l-2.013,0.671c-0.077,0.026-0.156,0.039-0.237,0.039
		c-0.158,0-0.31-0.049-0.438-0.142c-0.195-0.14-0.312-0.368-0.312-0.608v-1c0-0.414-0.336-0.75-0.75-0.75H7.5z"/>
	<path d="M6,23.261c-2.895,0-5.25-2.355-5.25-5.25v-12c0-2.895,2.355-5.25,5.25-5.25h12c2.895,0,5.25,2.355,5.25,5.25v12
		c0,2.895-2.355,5.25-5.25,5.25H6z M6,2.261c-2.068,0-3.75,1.682-3.75,3.75v12c0,2.068,1.682,3.75,3.75,3.75h12
		c2.068,0,3.75-1.682,3.75-3.75v-12c0-2.068-1.682-3.75-3.75-3.75H6z"/>
</g>
</svg>
