<svg id="Outline_Version" data-name="Outline Version" xmlns="http://www.w3.org/2000/svg" viewBox="0 0 24 24"><title>messaging-pingchat</title><ellipse cx="16.4" cy="10.38" rx="1.26" ry="1.25"/><path d="M16.85,0c-5.46,0-7,4.62-7.07,7.08v6.39a.75.75,0,0,0,.75.75h6.06A7.19,7.19,0,0,0,24,7.11,7,7,0,0,0,16.85,0Zm-.27,12.72H11.28V7.1c0-.23.2-5.6,5.57-5.6A5.5,5.5,0,0,1,22.5,7.11,5.7,5.7,0,0,1,16.59,12.72Z"/><path d="M7.6,9.34A7.48,7.48,0,0,0,0,16.67,7.43,7.43,0,0,0,7.52,24,7.66,7.66,0,0,0,15,16.4a.75.75,0,0,0-.75-.75H8.35V10.09A.75.75,0,0,0,7.6,9.34Zm5.89,7.81a6.14,6.14,0,0,1-6,5.35,5.93,5.93,0,0,1-6-5.83,5.94,5.94,0,0,1,5.35-5.79V16.4a.75.75,0,0,0,.75.75Z"/><path d="M16.4,8.09a.75.75,0,0,0,.75-.75V3.2a.75.75,0,0,0-1.5,0V7.34A.75.75,0,0,0,16.4,8.09Z"/></svg>