<svg id="Outline_Version" data-name="Outline Version" xmlns="http://www.w3.org/2000/svg" viewBox="0 0 24 24"><title>messaging-we-chat</title><path d="M9.66,7.38a1,1,0,0,0,.65.25,1,1,0,0,0,.41-.09,1,1,0,0,0,.59-.85,1,1,0,0,0-2-.22A.94.94,0,0,0,9.66,7.38Z"/><path d="M5.53,7.39a1,1,0,0,0,.64.23,1,1,0,0,0,.32-.05,1,1,0,0,0,.64-.68,1,1,0,0,0-.29-1,1,1,0,0,0-1.66.57A1,1,0,0,0,5.53,7.39Z"/><path d="M2.81,14.21c-.19.56-.38,1.11-.55,1.67a.75.75,0,0,0,1.06.89l1.61-.86.63-.34A10.12,10.12,0,0,0,8,16a.75.75,0,0,0,.77-.84,6.15,6.15,0,0,1,1.81-4.39,6.47,6.47,0,0,1,5.07-2.17.71.71,0,0,0,.6-.26.75.75,0,0,0,.16-.64,7.25,7.25,0,0,0-3.63-4.76A9.4,9.4,0,0,0,5.06,2.3,7.94,7.94,0,0,0,1,5.54a6.2,6.2,0,0,0-.77,4.77A7,7,0,0,0,2.81,14.21ZM2.23,6.33A6.44,6.44,0,0,1,5.57,3.71a7.92,7.92,0,0,1,2.69-.47,7.73,7.73,0,0,1,3.78,1A5.94,5.94,0,0,1,14.67,7.1a8,8,0,0,0-5.2,2.62,8.33,8.33,0,0,0-2.2,4.68,8.7,8.7,0,0,1-1.55-.35.75.75,0,0,0-.58.05l-.86.46.14-.4a.75.75,0,0,0-.29-.87A5.65,5.65,0,0,1,1.64,10,4.77,4.77,0,0,1,2.23,6.33Z"/><path d="M20.55,10.26a8,8,0,0,0-7.21,0,6.16,6.16,0,0,0-3.28,4.06,5.32,5.32,0,0,0,.67,4,7,7,0,0,0,4.75,3.12,8.35,8.35,0,0,0,3.81-.19c.3.13.6.3.91.48s.58.33.88.47a.75.75,0,0,0,1-.89q-.2-.66-.41-1.31a6.18,6.18,0,0,0,1.7-2,5.31,5.31,0,0,0,.14-4.62A6.4,6.4,0,0,0,20.55,10.26Zm1.52,7a5.1,5.1,0,0,1-1.68,1.84.75.75,0,0,0-.27.86h0l-.51-.22a.73.73,0,0,0-.48,0,7,7,0,0,1-3.37.23A5.51,5.51,0,0,1,12,17.51a3.83,3.83,0,0,1-.49-2.85A4.66,4.66,0,0,1,14,11.62a6.51,6.51,0,0,1,5.84,0,4.89,4.89,0,0,1,2.3,2.33h0A3.87,3.87,0,0,1,22.07,17.25Z"/><path d="M18.84,12.77a1,1,0,0,0-.9.81A.89.89,0,0,0,18,14a1,1,0,0,0,.27.47,1,1,0,0,0,.69.28l.18,0a.94.94,0,0,0,.69-.49,1,1,0,0,0-1-1.49Z"/><path d="M15,12.83a1,1,0,0,0-.63.72,1,1,0,0,0,.24.91,1,1,0,0,0,.72.31l.22,0a1,1,0,0,0,.7-.58A1,1,0,0,0,15,12.83Z"/></svg>