<svg id="Outline_Version" data-name="Outline Version" xmlns="http://www.w3.org/2000/svg" viewBox="0 0 24 24"><title>messaging-line-app</title><path d="M12,1.13c-6.62,0-12,4.45-12,9.93A9,9,0,0,0,3.19,17.8L1.55,21.08a1.24,1.24,0,0,0,1.63,1.68l4.94-2.3A14.32,14.32,0,0,0,12,21c6.62,0,12-4.45,12-9.93S18.62,1.13,12,1.13Zm0,18.36A12.79,12.79,0,0,1,8.44,19a1.24,1.24,0,0,0-.87.07l-4.35,2L4.62,18.3a1.24,1.24,0,0,0-.3-1.5A7.59,7.59,0,0,1,1.5,11.06C1.5,6.41,6.21,2.63,12,2.63s10.5,3.78,10.5,8.43S17.79,19.49,12,19.49Z"/><path d="M9.3,7a.75.75,0,0,0-.75.75v5.87a.75.75,0,0,0,1.5,0V7.75A.75.75,0,0,0,9.3,7Z"/><path d="M15.07,7a.75.75,0,0,0-.75.75v3.19L12.15,7.36a.75.75,0,0,0-1.39.39v5.87a.75.75,0,0,0,1.5,0V10.43L14.43,14a.75.75,0,0,0,.64.36l.2,0a.75.75,0,0,0,.55-.72V7.75A.75.75,0,0,0,15.07,7Z"/><path d="M17.28,7a.75.75,0,0,0-.75.75v5.87a.75.75,0,0,0,.75.75H20a.75.75,0,0,0,0-1.5H18V11.43H20a.75.75,0,1,0,0-1.5H18V8.5H20A.75.75,0,1,0,20,7Z"/><path d="M7.25,12.87H5.31V7.75a.75.75,0,0,0-1.5,0v5.87a.75.75,0,0,0,.75.75H7.25a.75.75,0,0,0,0-1.5Z"/></svg>