<svg id="Outline_Version" data-name="Outline Version" xmlns="http://www.w3.org/2000/svg" viewBox="0 0 24 24"><title>messaging-messages</title><path d="M4.54,18.62a.75.75,0,0,0,.67,1.09.74.74,0,0,0,.32-.07l4-1.84a9.55,9.55,0,0,0,2.51.33c4.46,0,8.09-3,8.09-6.74S16.45,4.65,12,4.65s-8.09,3-8.09,6.74a6.08,6.08,0,0,0,2,4.46Zm.87-7.23c0-2.89,3-5.24,6.59-5.24s6.59,2.35,6.59,5.24-3,5.24-6.59,5.24a8,8,0,0,1-2.35-.35.76.76,0,0,0-.54,0L6.84,17.37,7.53,16a.75.75,0,0,0-.2-.92A4.73,4.73,0,0,1,5.41,11.39Z"/><path d="M4.74,24h14.5A4.76,4.76,0,0,0,24,19.25V4.75A4.76,4.76,0,0,0,19.24,0H4.74A4.76,4.76,0,0,0,0,4.75v14.5A4.76,4.76,0,0,0,4.74,24ZM1.49,4.75A3.25,3.25,0,0,1,4.74,1.5h14.5a3.25,3.25,0,0,1,3.25,3.25v14.5a3.25,3.25,0,0,1-3.25,3.25H4.74a3.25,3.25,0,0,1-3.25-3.25Z"/><path d="M8.52,12.69a.75.75,0,0,0,.58,0,1,1,0,0,0,0-1.87.75.75,0,0,0-.58,0,1,1,0,0,0,0,1.87Z"/><path d="M11.95,12.69a.75.75,0,0,0,.58,0,1,1,0,0,0,0-1.87.75.75,0,0,0-.58,0,1,1,0,0,0,0,1.87Z"/><path d="M15.37,12.69a.75.75,0,0,0,.58,0,1,1,0,0,0,0-1.87.75.75,0,0,0-.58,0,1,1,0,0,0,0,1.87Z"/></svg>