<?xml version="1.0" encoding="utf-8"?>
<!-- Generator: Adobe Illustrator 22.1.0, SVG Export Plug-In . SVG Version: 6.00 Build 0)  -->
<svg version="1.1" id="Regular" xmlns="http://www.w3.org/2000/svg" xmlns:xlink="http://www.w3.org/1999/xlink" x="0px" y="0px"
	 viewBox="0 0 24 24" style="enable-background:new 0 0 24 24;" xml:space="preserve">
<title>milk-carton</title>
<g>
	<path d="M4.5,24c-1.241,0-2.25-1.009-2.25-2.25V10.1c0.001-0.347,0.083-0.693,0.237-1.002c0.016-0.031,0.032-0.06,0.051-0.087
		L5.25,5.019V2.25C5.25,1.009,6.259,0,7.5,0h9c1.241,0,2.25,1.009,2.25,2.25v2.769l2.712,3.988c0.019,0.028,0.037,0.059,0.052,0.09
		c0.154,0.308,0.236,0.656,0.235,1.004V21.75c0,1.241-1.009,2.25-2.25,2.25H4.5z M3.812,9.806C3.771,9.899,3.75,10,3.75,10.102
		V21.75c0,0.414,0.336,0.75,0.75,0.75h15c0.414,0,0.75-0.336,0.75-0.75V10.1c0-0.102-0.021-0.204-0.061-0.298L17.603,6H6.397
		L3.812,9.806z M17.25,4.5V2.25c0-0.414-0.336-0.75-0.75-0.75h-9c-0.414,0-0.75,0.336-0.75,0.75V4.5H17.25z"/>
	<path d="M6.75,10.5C6.336,10.5,6,10.164,6,9.75S6.336,9,6.75,9h10.5C17.664,9,18,9.336,18,9.75s-0.336,0.75-0.75,0.75H6.75z"/>
	<path d="M12,21c-2.068,0-3.75-1.682-3.75-3.75S9.932,13.5,12,13.5c2.068,0,3.75,1.682,3.75,3.75S14.068,21,12,21z M12,15
		c-1.241,0-2.25,1.009-2.25,2.25S10.759,19.5,12,19.5c1.241,0,2.25-1.009,2.25-2.25S13.241,15,12,15z"/>
</g>
</svg>
