<?xml version="1.0" encoding="utf-8"?>
<!-- Generator: Adobe Illustrator 22.1.0, SVG Export Plug-In . SVG Version: 6.00 Build 0)  -->
<svg version="1.1" id="Layer_1" xmlns="http://www.w3.org/2000/svg" xmlns:xlink="http://www.w3.org/1999/xlink" x="0px" y="0px"
	 viewBox="0 0 24 24" style="enable-background:new 0 0 24 24;" xml:space="preserve">
<title>modern-architecture-high-cloud-building</title>
<g>
	<path d="M5.921,24c-0.401,0-0.777-0.156-1.06-0.439c-0.284-0.283-0.44-0.66-0.44-1.061c0-0.131,0.017-0.261,0.051-0.387L8.768,6H5
		c0.004,0-0.002,0.006-0.002,0.006l0.695,9.69c0.014,0.2-0.05,0.393-0.181,0.544c-0.131,0.152-0.314,0.243-0.514,0.257
		C4.983,16.499,4.964,16.5,4.945,16.5c-0.391,0-0.72-0.306-0.748-0.697l-0.693-9.7c-0.027-0.402,0.104-0.788,0.368-1.09
		c0.264-0.302,0.629-0.483,1.029-0.51C4.934,4.501,4.967,4.5,5,4.5h4.168l0.858-3.218c0.2-0.755,0.886-1.283,1.668-1.283
		c0.148,0,0.297,0.019,0.441,0.057c0.598,0.158,1.069,0.628,1.227,1.227L14.221,4.5h4.168c0.827,0,1.5,0.673,1.5,1.5
		c0,0.039-0.001,0.068-0.003,0.097l-0.693,9.706c-0.028,0.391-0.355,0.697-0.745,0.697l0,0c-0.02,0-0.04-0.001-0.06-0.002
		c-0.196-0.014-0.378-0.105-0.51-0.257c-0.131-0.151-0.196-0.344-0.181-0.544l0.691-9.702L14.621,6l4.297,16.114
		c0.103,0.387,0.05,0.792-0.151,1.138s-0.525,0.594-0.912,0.698C17.73,23.983,17.6,24,17.468,24H5.921z M5.921,22.501l5.024,0V21
		c0-0.414,0.336-0.75,0.75-0.75c0.414,0,0.75,0.336,0.75,0.75v1.5h5.023l-1-3.75H6.921L5.921,22.501z M16.069,17.25l-0.8-3H8.121
		l-0.8,3H16.069z M14.869,12.75l-0.8-3H9.321l-0.8,3H14.869z M13.669,8.25L13.069,6h-2.748l-0.6,2.25H13.669z M12.669,4.5
		l-0.755-2.832c-0.021-0.079-0.083-0.141-0.161-0.162c-0.019-0.005-0.039-0.008-0.058-0.008c-0.103,0-0.193,0.069-0.219,0.168
		L10.721,4.5H12.669z"/>
</g>
</svg>
