<?xml version="1.0" encoding="utf-8"?>
<!-- Generator: Adobe Illustrator 22.1.0, SVG Export Plug-In . SVG Version: 6.00 Build 0)  -->
<svg version="1.1" id="Layer_1" xmlns="http://www.w3.org/2000/svg" xmlns:xlink="http://www.w3.org/1999/xlink" x="0px" y="0px"
	 viewBox="0 0 24 24" style="enable-background:new 0 0 24 24;" xml:space="preserve">
<title>modern-architecture-spiral</title>
<g>
	<path d="M0.75,24C0.336,24,0,23.664,0,23.25s0.336-0.75,0.75-0.75h4.5v-8.25c0-0.827,0.673-1.5,1.5-1.5V9
		c-0.827,0-1.5-0.673-1.5-1.5v-6c0-0.827,0.673-1.5,1.5-1.5h10.5c0.827,0,1.5,0.673,1.5,1.5v3.75c0,0.827-0.673,1.5-1.5,1.5v3.75
		c0.827,0,1.5,0.673,1.5,1.5v10.5h4.5c0.414,0,0.75,0.336,0.75,0.75S23.664,24,23.25,24H0.75z M17.25,22.5V21h-3
		c-0.414,0-0.75-0.336-0.75-0.75s0.336-0.75,0.75-0.75h3V12H13.5v1.5c0,0.414-0.336,0.75-0.75,0.75h-6v2.25h3
		c0.414,0,0.75,0.336,0.75,0.75S10.164,18,9.75,18h-3v1.5h4.5c0.414,0,0.75,0.336,0.75,0.75S11.664,21,11.25,21h-4.5v1.5H17.25z
		 M12,12.75v-1.5c0-0.414,0.336-0.75,0.75-0.75h3V6.75H12v1.5C12,8.664,11.664,9,11.25,9h-3v3.75H12z M6.75,7.5h3.75V6
		c0-0.414,0.336-0.75,0.75-0.75h6V1.5H6.75V3h3c0.414,0,0.75,0.336,0.75,0.75S10.164,4.5,9.75,4.5h-3V7.5z"/>
</g>
</svg>
