<?xml version="1.0" encoding="utf-8"?>
<!-- Generator: Adobe Illustrator 22.1.0, SVG Export Plug-In . SVG Version: 6.00 Build 0)  -->
<svg version="1.1" id="Layer_1" xmlns="http://www.w3.org/2000/svg" xmlns:xlink="http://www.w3.org/1999/xlink" x="0px" y="0px"
	 viewBox="0 0 24 24" style="enable-background:new 0 0 24 24;" xml:space="preserve">
<title>modern-architecture-top</title>
<g>
	<path d="M12,3.75c-0.414,0-0.75-0.336-0.75-0.75V0.75C11.25,0.336,11.586,0,12,0s0.75,0.336,0.75,0.75V3
		C12.75,3.414,12.413,3.75,12,3.75z"/>
	<path d="M18.224,24c-0.15,0-0.296-0.045-0.42-0.129c-2.164-1.465-3.913-3.499-5.053-5.844v5.223c0,0.414-0.336,0.75-0.75,0.75
		s-0.75-0.336-0.75-0.75v-5.222c-1.14,2.344-2.89,4.378-5.053,5.844C6.072,23.955,5.927,24,5.776,24c-0.25,0-0.482-0.123-0.621-0.33
		c-0.232-0.342-0.142-0.809,0.2-1.041c3.694-2.502,5.897-6.659,5.895-11.12c0.001-2.492-0.699-4.912-2.029-7.013H8.957l0.485,3.232
		c0.848,5.713-2.896,11.204-8.523,12.502C0.862,20.244,0.806,20.25,0.75,20.25c-0.352,0-0.653-0.239-0.732-0.582
		c-0.045-0.195-0.011-0.396,0.095-0.566s0.272-0.288,0.467-0.333c4.87-1.123,8.11-5.875,7.377-10.819L7.344,3.858
		C7.312,3.642,7.375,3.423,7.517,3.258c0.143-0.166,0.35-0.261,0.568-0.261h1.541c0.25,0,0.482,0.124,0.622,0.33
		C10.995,4.433,11.582,5.623,12,6.877c0.418-1.254,1.004-2.443,1.751-3.549c0.14-0.207,0.372-0.33,0.622-0.33h1.541
		c0.218,0,0.426,0.095,0.568,0.26c0.143,0.166,0.206,0.385,0.174,0.601l-0.614,4.093c-0.733,4.943,2.507,9.695,7.377,10.818
		c0.403,0.093,0.655,0.497,0.562,0.899c-0.079,0.343-0.38,0.582-0.732,0.582l0,0c-0.055,0-0.111-0.006-0.166-0.018
		c-5.629-1.298-9.373-6.79-8.525-12.502l0.485-3.233h-0.264c-1.329,2.101-2.03,4.52-2.029,7.012
		c-0.003,4.462,2.201,8.619,5.895,11.12c0.342,0.232,0.432,0.699,0.201,1.042C18.705,23.877,18.473,24,18.224,24z"/>
</g>
</svg>
