<?xml version="1.0" encoding="utf-8"?>
<!-- Generator: Adobe Illustrator 22.1.0, SVG Export Plug-In . SVG Version: 6.00 Build 0)  -->
<svg version="1.1" id="Layer_1" xmlns="http://www.w3.org/2000/svg" xmlns:xlink="http://www.w3.org/1999/xlink" x="0px" y="0px"
	 viewBox="0 0 24 24" style="enable-background:new 0 0 24 24;" xml:space="preserve">
<title>modern-weapon-van-machine-gun</title>
<g>
	<path d="M18,22.5c-1.654,0-3-1.346-3-3H9c0,1.654-1.346,3-3,3s-3-1.346-3-3H2.25C1.009,19.5,0,18.491,0,17.25v-3
		C0,13.009,1.009,12,2.25,12H4.5v-1.5c0-0.229,0.103-0.443,0.281-0.586l3.75-3C8.664,6.808,8.831,6.75,9,6.75
		c0.229,0,0.443,0.103,0.586,0.281c0.258,0.323,0.206,0.796-0.117,1.054L6,10.86V12h4.5V8.25c0-0.414,0.336-0.75,0.75-0.75h4.382
		c0.792,0.001,1.532,0.424,1.934,1.105L19.895,12h0.355c2.068,0,3.75,1.682,3.75,3.75v1.5c0,1.241-1.009,2.25-2.25,2.25H21
		C21,21.154,19.654,22.5,18,22.5z M18,18c-0.827,0-1.5,0.673-1.5,1.5S17.173,21,18,21s1.5-0.673,1.5-1.5S18.827,18,18,18z M6,18
		c-0.827,0-1.5,0.673-1.5,1.5S5.173,21,6,21s1.5-0.673,1.5-1.5S6.827,18,6,18z M21.75,18c0.414,0,0.75-0.336,0.75-0.75v-1.5
		c0-1.241-1.009-2.25-2.25-2.25h-18c-0.414,0-0.75,0.336-0.75,0.75v3C1.5,17.664,1.836,18,2.25,18h1.156
		C3.939,17.082,4.933,16.5,6,16.5s2.061,0.582,2.594,1.5h6.812c0.533-0.918,1.527-1.5,2.594-1.5s2.061,0.582,2.594,1.5H21.75z
		 M18.076,12l-1.763-2.57c-0.011-0.017-0.022-0.034-0.032-0.051C16.148,9.145,15.899,9,15.631,9H12v3H18.076z"/>
	<path d="M5.25,6C4.836,6,4.5,5.664,4.5,5.25V4.5H3.75C3.336,4.5,3,4.836,3,5.25S2.664,6,2.25,6S1.5,5.664,1.5,5.25
		C1.5,4.009,2.509,3,3.75,3H4.5V2.25c0-0.414,0.336-0.75,0.75-0.75h4.5c0.96,0,1.808,0.615,2.121,1.5h3.879
		c0.414,0,0.75,0.336,0.75,0.75S16.164,4.5,15.75,4.5h-3.879C11.558,5.385,10.71,6,9.75,6H5.25z M9.75,4.5
		c0.414,0,0.75-0.336,0.75-0.75S10.164,3,9.75,3H6v1.5H9.75z"/>
</g>
</svg>
