<?xml version="1.0" encoding="utf-8"?>
<!-- Generator: Adobe Illustrator 22.1.0, SVG Export Plug-In . SVG Version: 6.00 Build 0)  -->
<svg version="1.1" id="Layer_1" xmlns="http://www.w3.org/2000/svg" xmlns:xlink="http://www.w3.org/1999/xlink" x="0px" y="0px"
	 viewBox="0 0 24 24" style="enable-background:new 0 0 24 24;" xml:space="preserve">
<title>modern-weapon-shotgun</title>
<g>
	<path d="M2.296,23.931c-0.756,0-1.399-0.566-1.495-1.316l-0.749-7.006c-0.373-2.902,1.155-5.715,3.802-6.992l17.461-8.422
		c0.172-0.083,0.355-0.125,0.544-0.125c0.48,0,0.925,0.279,1.134,0.71L23.87,2.6c0.146,0.302,0.165,0.643,0.055,0.96
		c-0.111,0.317-0.338,0.572-0.64,0.718l-5.013,2.418l0.551,1.143c0.205,0.425,0.232,0.904,0.077,1.349
		c-0.155,0.445-0.475,0.803-0.9,1.008l-5.865,2.828c-0.016,0.011-0.032,0.02-0.05,0.029l-1.484,0.716v2.324
		c-0.001,0.932-0.56,1.758-1.426,2.104l-2.326,0.926l0.11,0.857c0.193,1.005-0.313,2.017-1.235,2.465l-2.774,1.336
		c-0.146,0.07-0.301,0.116-0.462,0.137C2.425,23.927,2.36,23.931,2.296,23.931z M2.291,22.44l2.782-1.345
		c0.314-0.152,0.484-0.499,0.413-0.842c-0.004-0.017-0.007-0.036-0.009-0.055l-0.479-3.73l-3.181,1.534L2.291,22.44z M6.653,17.587
		l1.967-0.783c0.292-0.117,0.481-0.396,0.481-0.712v-1.6l-2.68,1.293L6.653,17.587z M4.506,9.968
		c-2.065,0.996-3.256,3.192-2.964,5.466l0.105,0.983l3.636-1.754c0.02-0.009,0.038-0.017,0.057-0.023l4.154-2.003
		c0.024-0.013,0.049-0.025,0.075-0.036l1.189-0.573L8.771,7.911L4.506,9.968z M12.107,11.372l5.241-2.528
		c0.064-0.031,0.111-0.083,0.135-0.151c0.023-0.068,0.02-0.138-0.012-0.203l-0.551-1.143l-5.48,2.643L12.107,11.372z M10.788,8.64
		l11.625-5.607l-0.666-1.381L10.122,7.259L10.788,8.64z"/>
</g>
</svg>
