<?xml version="1.0" encoding="utf-8"?>
<!-- Generator: Adobe Illustrator 22.1.0, SVG Export Plug-In . SVG Version: 6.00 Build 0)  -->
<svg version="1.1" id="Layer_1" xmlns="http://www.w3.org/2000/svg" xmlns:xlink="http://www.w3.org/1999/xlink" x="0px" y="0px"
	 viewBox="0 0 24 24" style="enable-background:new 0 0 24 24;" xml:space="preserve">
<title>modern-weapon-tank</title>
<g>
	<path d="M6,23.25c-1.945,0-3.555-1.484-3.73-3.406l-1.782-1.669c-0.042-0.04-0.081-0.085-0.113-0.134
		C0.13,17.673,0,17.244,0,16.801V13.5c0-1.241,1.009-2.25,2.25-2.25h4.146L3.485,9.422C3.321,9.319,3.204,9.158,3.156,8.969
		C3.053,8.554,3,8.127,3,7.7V5.25H1.5c-0.414,0-0.75-0.336-0.75-0.75S1.086,3.75,1.5,3.75h12.75c1.241,0,2.25,1.009,2.25,2.25v0.75
		h6V6c0-0.414,0.336-0.75,0.75-0.75S24,5.586,24,6v3c0,0.414-0.336,0.75-0.75,0.75S22.5,9.414,22.5,9V8.25h-6v3h2.95
		c0.754,0,1.454,0.375,1.872,1.002l2.072,3.108c0.445,0.669,0.5,1.531,0.141,2.25l-1.044,2.084
		c-0.102,2.001-1.729,3.556-3.741,3.556H6z M6,17.25c-1.241,0-2.25,1.009-2.25,2.25S4.759,21.75,6,21.75h12.75
		c1.241,0,2.25-1.009,2.25-2.25s-1.009-2.25-2.25-2.25H6z M2.545,18.047C3.121,16.669,4.466,15.75,6,15.75h12.75
		c1.293,0,2.486,0.678,3.165,1.747l0.279-0.557c0.119-0.238,0.101-0.525-0.048-0.749l-2.072-3.107
		c-0.139-0.209-0.373-0.334-0.624-0.334H2.25c-0.414,0-0.75,0.336-0.75,0.75v3.3c0,0.123,0.03,0.243,0.088,0.351L2.545,18.047z
		 M15,11.25V6c0-0.414-0.336-0.75-0.75-0.75H4.5V7.7c0,0.208,0.018,0.416,0.052,0.621l4.664,2.929H15z"/>
	<path d="M8.25,2.25C7.836,2.25,7.5,1.914,7.5,1.5s0.336-0.75,0.75-0.75h4.5c0.414,0,0.75,0.336,0.75,0.75s-0.336,0.75-0.75,0.75
		H8.25z"/>
	<path d="M12.375,20.625c-0.044,0-0.088-0.004-0.13-0.011c-0.513-0.06-0.923-0.47-0.983-0.982c-0.008-0.043-0.011-0.087-0.011-0.131
		s0.004-0.088,0.011-0.131c0.06-0.513,0.47-0.922,0.983-0.983c0.042-0.007,0.086-0.011,0.13-0.011s0.088,0.004,0.131,0.011
		c0.513,0.06,0.923,0.47,0.983,0.983c0.008,0.042,0.011,0.086,0.011,0.131s-0.004,0.088-0.011,0.131
		c-0.06,0.513-0.47,0.923-0.983,0.983C12.463,20.621,12.419,20.625,12.375,20.625z"/>
	<path d="M6.75,20.625c-0.044,0-0.088-0.004-0.13-0.011c-0.513-0.06-0.923-0.47-0.983-0.982c-0.008-0.043-0.011-0.087-0.011-0.131
		s0.004-0.088,0.011-0.131c0.06-0.513,0.47-0.922,0.983-0.983c0.042-0.007,0.086-0.011,0.13-0.011s0.088,0.004,0.13,0.011
		c0.513,0.061,0.923,0.47,0.983,0.983c0.008,0.043,0.011,0.087,0.011,0.131s-0.004,0.088-0.011,0.131
		c-0.06,0.513-0.47,0.922-0.983,0.982C6.838,20.621,6.794,20.625,6.75,20.625z"/>
	<path d="M18,20.625c-0.044,0-0.088-0.004-0.13-0.011c-0.513-0.06-0.923-0.47-0.983-0.983c-0.007-0.042-0.011-0.086-0.011-0.13
		s0.004-0.088,0.011-0.131c0.06-0.513,0.47-0.923,0.983-0.983c0.042-0.008,0.086-0.011,0.131-0.011s0.088,0.004,0.131,0.011
		c0.513,0.06,0.923,0.47,0.983,0.983c0.008,0.042,0.011,0.086,0.011,0.131s-0.004,0.088-0.011,0.131
		c-0.06,0.513-0.47,0.923-0.983,0.983C18.088,20.621,18.044,20.625,18,20.625z"/>
</g>
</svg>
