<?xml version="1.0" encoding="utf-8"?>
<!-- Generator: Adobe Illustrator 22.1.0, SVG Export Plug-In . SVG Version: 6.00 Build 0)  -->
<svg version="1.1" id="Layer_1" xmlns="http://www.w3.org/2000/svg" xmlns:xlink="http://www.w3.org/1999/xlink" x="0px" y="0px"
	 viewBox="0 0 24 24" style="enable-background:new 0 0 24 24;" xml:space="preserve">
<title>modern-architecture</title>
<g>
	<path d="M18.001,24c-0.827,0-1.5-0.673-1.5-1.5V8.25h-1.5V22.5c0,0.827-0.673,1.5-1.5,1.5h-3c-0.827,0-1.5-0.673-1.5-1.5V8.25h-1.5
		V22.5c0,0.827-0.673,1.5-1.5,1.5h-3c-0.827,0-1.5-0.673-1.5-1.5V8.25c-0.4,0-0.777-0.156-1.059-0.439
		C-0.143,7.227-0.144,6.275,0.44,5.69l0.712-0.713c1.108-1.108,2.552-1.79,4.099-1.943V1.25C5.251,0.561,5.812,0,6.501,0h2
		c0.689,0,1.25,0.561,1.25,1.25V3h7.5V1.25c0-0.689,0.561-1.25,1.25-1.25h2c0.689,0,1.25,0.561,1.25,1.25V3h0.75
		c0.827,0,1.5,0.673,1.5,1.5v2.25c0,0.827-0.673,1.5-1.5,1.5V22.5c0,0.827-0.673,1.5-1.5,1.5H18.001z M18.001,22.5h3V8.25h-3v2.25
		h0.75c0.414,0,0.75,0.336,0.75,0.75S19.165,12,18.751,12h-0.75v1.5h0.75c0.414,0,0.75,0.336,0.75,0.75S19.165,15,18.751,15h-0.75
		v1.5h0.75c0.414,0,0.75,0.336,0.75,0.75S19.165,18,18.751,18h-0.75V22.5z M10.501,22.5h3V8.25h-3v2.25h0.75
		c0.414,0,0.75,0.336,0.75,0.75S11.665,12,11.251,12h-0.75v1.5h0.75c0.414,0,0.75,0.336,0.75,0.75S11.665,15,11.251,15h-0.75v1.5
		h0.75c0.414,0,0.75,0.336,0.75,0.75S11.665,18,11.251,18h-0.75V22.5z M3.001,22.5h3V8.25h-3v2.25h0.75
		c0.414,0,0.75,0.336,0.75,0.75S4.165,12,3.751,12h-0.75v1.5h0.75c0.414,0,0.75,0.336,0.75,0.75S4.165,15,3.751,15h-0.75v1.5h0.75
		c0.414,0,0.75,0.336,0.75,0.75S4.165,18,3.751,18h-0.75V22.5z M5.925,4.5c-1.402,0-2.72,0.546-3.712,1.537L1.502,6.75h20.999V4.5
		H5.925z M20.251,3V1.5h-1.5V3H20.251z M8.251,3V1.5h-1.5V3H8.251z"/>
</g>
</svg>
