<?xml version="1.0" encoding="utf-8"?>
<!-- Generator: Adobe Illustrator 22.1.0, SVG Export Plug-In . SVG Version: 6.00 Build 0)  -->
<svg version="1.1" id="Layer_1" xmlns="http://www.w3.org/2000/svg" xmlns:xlink="http://www.w3.org/1999/xlink" x="0px" y="0px"
	 viewBox="0 0 24 24" style="enable-background:new 0 0 24 24;" xml:space="preserve">
<title>modern-architecture-twin-building</title>
<g>
	<path d="M5.25,11.499c-0.414,0-0.75-0.336-0.75-0.75s0.336-0.75,0.75-0.75h1.5c0.414,0,0.75,0.336,0.75,0.75s-0.336,0.75-0.75,0.75
		H5.25z"/>
	<path d="M5.25,14.499c-0.414,0-0.75-0.336-0.75-0.75s0.336-0.75,0.75-0.75h1.5c0.414,0,0.75,0.336,0.75,0.75s-0.336,0.75-0.75,0.75
		H5.25z"/>
	<path d="M5.25,17.499c-0.414,0-0.75-0.336-0.75-0.75s0.336-0.75,0.75-0.75h1.5c0.414,0,0.75,0.336,0.75,0.75s-0.336,0.75-0.75,0.75
		H5.25z"/>
	<path d="M5.25,20.499c-0.414,0-0.75-0.336-0.75-0.75s0.336-0.75,0.75-0.75h1.5c0.414,0,0.75,0.336,0.75,0.75s-0.336,0.75-0.75,0.75
		H5.25z"/>
	<path d="M17.25,11.499c-0.414,0-0.75-0.336-0.75-0.75s0.336-0.75,0.75-0.75h1.5c0.414,0,0.75,0.336,0.75,0.75
		s-0.336,0.75-0.75,0.75H17.25z"/>
	<path d="M17.25,14.499c-0.414,0-0.75-0.336-0.75-0.75s0.336-0.75,0.75-0.75h1.5c0.414,0,0.75,0.336,0.75,0.75
		s-0.336,0.75-0.75,0.75H17.25z"/>
	<path d="M17.25,17.499c-0.414,0-0.75-0.336-0.75-0.75s0.336-0.75,0.75-0.75h1.5c0.414,0,0.75,0.336,0.75,0.75
		s-0.336,0.75-0.75,0.75H17.25z"/>
	<path d="M17.25,20.499c-0.414,0-0.75-0.336-0.75-0.75s0.336-0.75,0.75-0.75h1.5c0.414,0,0.75,0.336,0.75,0.75
		s-0.336,0.75-0.75,0.75H17.25z"/>
	<path d="M0.75,23.499c-0.414,0-0.75-0.336-0.75-0.75s0.336-0.75,0.75-0.75H1.5V8.249c0-0.689,0.561-1.25,1.25-1.25H3v-2.25
		c0-0.051,0.005-0.102,0.016-0.153c0.003-0.013,0.006-0.026,0.01-0.039c0.011-0.041,0.023-0.075,0.038-0.109
		C3.069,4.434,3.076,4.42,3.082,4.408l1.576-3.152C4.802,0.967,5.041,0.728,5.33,0.584C5.537,0.48,5.769,0.425,5.999,0.425
		c0.161,0,0.322,0.026,0.476,0.078c0.38,0.127,0.688,0.394,0.867,0.753l1.579,3.157C8.926,4.425,8.932,4.437,8.937,4.45
		c0.018,0.042,0.032,0.082,0.042,0.123c0,0,0.002,0.01,0.003,0.014h0C8.995,4.653,9,4.701,9,4.749v2.25h0.25
		c0.689,0,1.25,0.561,1.25,1.25v1.75h3v-1.75c0-0.689,0.561-1.25,1.25-1.25H15v-2.25c0-0.051,0.005-0.102,0.016-0.153
		c0.001-0.007,0.003-0.014,0.005-0.021c0.01-0.043,0.025-0.086,0.043-0.128c0.005-0.014,0.011-0.028,0.018-0.04l1.576-3.152
		c0.144-0.288,0.383-0.527,0.672-0.672c0.21-0.105,0.436-0.159,0.669-0.159c0.161,0,0.322,0.026,0.477,0.078
		c0.38,0.127,0.688,0.394,0.866,0.753l1.579,3.158c0.006,0.012,0.012,0.025,0.017,0.039c0.019,0.044,0.033,0.085,0.042,0.125
		c0.002,0.007,0.003,0.014,0.005,0.021C20.995,4.647,21,4.699,21,4.749v2.25h0.25c0.689,0,1.25,0.561,1.25,1.25v13.75h0.75
		c0.414,0,0.75,0.336,0.75,0.75s-0.336,0.75-0.75,0.75H0.75z M21,21.999v-13.5h-6v13.5H21z M13.5,21.999v-7.5h-3v7.5H13.5z
		 M9,21.999v-13.5H3v13.5H9z M13.5,12.999v-1.5h-3v1.5H13.5z M19.5,6.999v-1.5h-3v1.5H19.5z M7.5,6.999v-1.5h-3v1.5H7.5z
		 M19.037,3.999L18,1.927l-1.037,2.072H19.037z M7.036,3.999c0,0-1.036-2.073-1.036-2.073L4.964,3.999H7.036z"/>
</g>
</svg>
