<?xml version="1.0" encoding="utf-8"?>
<!-- Generator: Adobe Illustrator 22.1.0, SVG Export Plug-In . SVG Version: 6.00 Build 0)  -->
<svg version="1.1" id="Layer_1" xmlns="http://www.w3.org/2000/svg" xmlns:xlink="http://www.w3.org/1999/xlink" x="0px" y="0px"
	 viewBox="0 0 24 24" style="enable-background:new 0 0 24 24;" xml:space="preserve">
<title>monetization-touch-browser</title>
<g>
	<path d="M1.881,17.25c-1.029,0-1.872-0.835-1.881-1.862V1.862C0.008,0.834,0.847,0,1.871,0h16.498c1.03,0,1.872,0.835,1.881,1.862
		V6c0,0.414-0.336,0.75-0.75,0.75S18.75,6.414,18.75,6V5.25H1.5v10.131c0.002,0.202,0.172,0.369,0.379,0.369H3.75
		c0.414,0,0.75,0.336,0.75,0.75s-0.336,0.75-0.75,0.75H1.881z M18.75,3.75V1.868C18.748,1.667,18.579,1.5,18.372,1.5h-16.5
		C1.669,1.5,1.502,1.665,1.5,1.868V3.75H18.75z"/>
	<path d="M23.136,24c-0.022,0-0.044-0.001-0.066-0.003c-0.413-0.037-0.718-0.401-0.681-0.813l0.1-1.123
		c0.102-1.125-0.651-2.157-1.752-2.402l-3.651-0.811c-0.346-0.077-0.587-0.378-0.587-0.732v-5.712
		c-0.056-0.636-0.576-1.125-1.216-1.139c-0.265,0.003-0.528,0.116-0.728,0.32c-0.2,0.203-0.308,0.472-0.305,0.757
		c0,0.001,0,9.234,0,9.234c0,0.286-0.159,0.543-0.415,0.671c-0.103,0.052-0.219,0.079-0.335,0.079c-0.161,0-0.321-0.053-0.45-0.15
		l-1.477-1.108c-0.135-0.101-0.296-0.155-0.466-0.155c-0.251,0-0.48,0.115-0.629,0.314c-0.206,0.276-0.206,0.661,0,0.937
		l0.474,0.631c0.248,0.331,0.181,0.802-0.15,1.05c-0.131,0.098-0.286,0.15-0.45,0.15c-0.235,0-0.459-0.112-0.6-0.3l-0.475-0.633
		c-0.601-0.806-0.601-1.929-0.001-2.733c0.428-0.574,1.113-0.916,1.832-0.916c0.495,0,0.967,0.157,1.363,0.453l0.278,0.209l0-7.726
		c-0.006-0.68,0.255-1.326,0.735-1.815c0.48-0.489,1.123-0.762,1.808-0.768c1.447,0.033,2.604,1.133,2.704,2.558
		c0.001,0.014,0.002,0.033,0.002,0.052v5.139l3.064,0.681c1.835,0.408,3.091,2.127,2.921,4l-0.1,1.122
		C23.848,23.706,23.527,24,23.136,24z"/>
	<path d="M7.508,16.5c-0.414,0-0.75-0.336-0.75-0.75v-0.353c-0.674-0.154-1.282-0.543-1.705-1.099
		c-0.25-0.33-0.186-0.801,0.143-1.051c0.132-0.1,0.289-0.153,0.454-0.153c0.236,0,0.454,0.108,0.597,0.296
		c0.276,0.364,0.716,0.581,1.176,0.581l0.056-0.001c0.774,0,1.342-0.421,1.342-0.797s-0.562-0.797-1.313-0.797
		c-1.551,0-2.812-1.031-2.812-2.298c0-1.052,0.849-1.943,2.062-2.213V7.5c0-0.414,0.336-0.75,0.75-0.75s0.75,0.336,0.75,0.75v0.353
		c0.673,0.153,1.281,0.539,1.703,1.091c0.122,0.159,0.174,0.356,0.148,0.555S9.981,9.874,9.822,9.996
		C9.69,10.097,9.533,10.15,9.366,10.15c-0.235,0-0.453-0.107-0.596-0.294C8.494,9.494,8.053,9.278,7.592,9.278L7.537,9.279
		c-0.773,0-1.341,0.422-1.341,0.798c0,0.377,0.561,0.798,1.312,0.798c1.551,0,2.813,1.031,2.813,2.297
		c0,1.052-0.85,1.943-2.063,2.212v0.365C8.258,16.164,7.922,16.5,7.508,16.5z"/>
</g>
</svg>
