<?xml version="1.0" encoding="utf-8"?>
<!-- Generator: Adobe Illustrator 22.1.0, SVG Export Plug-In . SVG Version: 6.00 Build 0)  -->
<svg version="1.1" id="Layer_1" xmlns="http://www.w3.org/2000/svg" xmlns:xlink="http://www.w3.org/1999/xlink" x="0px" y="0px"
	 viewBox="0 0 24 24" style="enable-background:new 0 0 24 24;" xml:space="preserve">
<title>monetization-user-monitor-1</title>
<g>
	<path d="M11,1.5c-0.414,0-0.75-0.336-0.75-0.75S10.586,0,11,0h1c0.414,0,0.75,0.336,0.75,0.75S12.414,1.5,12,1.5H11z"/>
	<path d="M6,7.5c-2.068,0-3.75-1.682-3.75-3.75S3.932,0,6,0s3.75,1.682,3.75,3.75S8.068,7.5,6,7.5z M6,1.5
		c-1.241,0-2.25,1.009-2.25,2.25S4.759,6,6,6S8.25,4.99,8.25,3.75S7.241,1.5,6,1.5z"/>
	<path d="M3.75,24c-0.387,0-0.708-0.29-0.746-0.675L2.321,16.5H0.75C0.336,16.5,0,16.163,0,15.75V13.5c0-3.308,2.692-6,6-6
		s6,2.692,6,6v2.25c0,0.414-0.336,0.75-0.75,0.75H9.679l-0.682,6.825C8.958,23.709,8.637,24,8.25,24H3.75z M7.571,22.5l0.682-6.825
		C8.292,15.29,8.613,15,9,15h1.5v-1.5c0-2.198-1.617-4.072-3.75-4.433v3.683c0,0.414-0.336,0.75-0.75,0.75s-0.75-0.336-0.75-0.75
		V9.067C3.117,9.428,1.5,11.302,1.5,13.5V15H3c0.387,0,0.708,0.29,0.746,0.675L4.429,22.5H7.571z"/>
	<path d="M14.25,16.5c-0.414,0-0.75-0.336-0.75-0.75S13.836,15,14.25,15H15v-1.5c-0.414,0-0.75-0.336-0.75-0.75S14.586,12,15,12
		l6.413,0c0.588,0,1.075-0.478,1.087-1.066V2.55c-0.012-0.576-0.5-1.05-1.087-1.05l-1.913,0c-0.414,0-0.75-0.336-0.75-0.75
		S19.086,0,19.5,0l1.932-0.001c1.387,0,2.539,1.137,2.568,2.535v8.415c-0.029,1.409-1.189,2.55-2.587,2.551l-4.913,0V15H18
		c0.414,0,0.75,0.336,0.75,0.75S18.414,16.5,18,16.5H14.25z"/>
	<path d="M15.75,9.75C15.336,9.75,15,9.413,15,9V8.646c-0.674-0.154-1.283-0.543-1.705-1.099c-0.25-0.329-0.186-0.801,0.143-1.051
		c0.131-0.1,0.288-0.153,0.454-0.153c0.233,0,0.457,0.111,0.598,0.296c0.276,0.364,0.715,0.581,1.172,0.581l0.059-0.001
		c0.775,0,1.343-0.422,1.343-0.798c0-0.376-0.562-0.797-1.313-0.797c-1.551,0-2.812-1.031-2.812-2.298
		c0-1.052,0.849-1.943,2.062-2.213V0.75C15,0.336,15.336,0,15.75,0s0.75,0.336,0.75,0.75v0.354c0.674,0.154,1.282,0.542,1.705,1.097
		c0.121,0.159,0.173,0.357,0.146,0.555c-0.027,0.198-0.13,0.375-0.289,0.496c-0.131,0.1-0.289,0.153-0.454,0.153
		c-0.237,0-0.454-0.108-0.597-0.296c-0.277-0.364-0.713-0.581-1.167-0.581c-0.021,0-0.042,0-0.063,0.001
		c-0.776,0.001-1.344,0.421-1.344,0.798c0,0.377,0.561,0.798,1.312,0.798c1.551,0,2.813,1.03,2.813,2.297
		c0,1.052-0.85,1.943-2.063,2.213V9C16.5,9.413,16.164,9.75,15.75,9.75z"/>
</g>
</svg>
