<?xml version="1.0" encoding="utf-8"?>
<!-- Generator: Adobe Illustrator 22.1.0, SVG Export Plug-In . SVG Version: 6.00 Build 0)  -->
<svg version="1.1" id="Layer_1" xmlns="http://www.w3.org/2000/svg" xmlns:xlink="http://www.w3.org/1999/xlink" x="0px" y="0px"
	 viewBox="0 0 24 24" style="enable-background:new 0 0 24 24;" xml:space="preserve">
<title>monetization-user-laptop</title>
<g>
	<path d="M3.684,24c-0.414,0-0.75-0.336-0.75-0.75s0.336-0.75,0.75-0.75h6.279c0,0,2.43-7.124,2.431-7.127
		c0.239-0.673,0.876-1.123,1.589-1.123h8.33c0.537,0,1.043,0.255,1.362,0.682c0.323,0.436,0.412,1.003,0.237,1.516l-2.402,7.044
		C21.406,23.796,21.121,24,20.8,24H3.684z M20.263,22.5l2.229-6.536c0.016-0.046,0.008-0.098-0.022-0.138
		c-0.035-0.046-0.094-0.076-0.153-0.076h-8.333c-0.079,0-0.15,0.05-0.176,0.124l-2.26,6.626H20.263z"/>
	<path d="M16.891,20.598c-0.965,0-1.75-0.785-1.75-1.75s0.785-1.75,1.75-1.75s1.75,0.785,1.75,1.75S17.856,20.598,16.891,20.598z
		 M16.891,18.598c-0.138,0-0.25,0.112-0.25,0.25s0.112,0.25,0.25,0.25s0.25-0.112,0.25-0.25S17.029,18.598,16.891,18.598z"/>
	<path d="M0.75,24c-0.2,0-0.389-0.078-0.531-0.22C0.078,23.638,0,23.45,0,23.25c0.002-4.137,3.37-7.503,7.507-7.503
		c0.758,0,1.504,0.114,2.223,0.337c0.191,0.059,0.348,0.189,0.441,0.367c0.093,0.177,0.112,0.38,0.053,0.572
		c-0.098,0.316-0.386,0.528-0.716,0.528l0,0c-0.076,0-0.151-0.011-0.223-0.034c-0.575-0.178-1.172-0.269-1.775-0.269
		c-3.314,0-6.008,2.693-6.01,6.004C1.5,23.664,1.163,24,0.75,24z"/>
	<path d="M7.5,15.75c-2.688,0-4.875-2.187-4.875-4.875c0-0.839,0.221-1.67,0.639-2.404c0.017-0.035,0.035-0.06,0.045-0.076
		C4.184,6.919,5.791,6,7.5,6c2.384,0,4.448,1.774,4.812,4.13c0.015,0.056,0.023,0.112,0.025,0.167
		c0.025,0.212,0.038,0.401,0.038,0.578C12.375,13.563,10.188,15.75,7.5,15.75z M4.231,10.037c-0.07,0.272-0.106,0.553-0.106,0.838
		c0,1.861,1.514,3.375,3.375,3.375c1.695,0,3.102-1.255,3.34-2.885c-0.634,0.169-1.286,0.254-1.944,0.254
		C7.196,11.619,5.56,11.061,4.231,10.037z M4.941,8.681c1.1,0.928,2.491,1.435,3.952,1.435c0.621,0,1.231-0.093,1.817-0.277
		C10.265,8.466,8.964,7.5,7.5,7.5C6.515,7.5,5.581,7.936,4.941,8.681z"/>
	<path d="M17.25,10.5c-0.414,0-0.75-0.336-0.75-0.75V9H15c-0.414,0-0.75-0.336-0.75-0.75S14.586,7.5,15,7.5h3.155
		c0.245,0,0.461-0.146,0.551-0.372c0.118-0.294-0.021-0.632-0.308-0.76l-2.621-0.814c-0.02-0.006-0.039-0.013-0.057-0.02
		c-0.801-0.319-1.318-1.084-1.316-1.949c0.002-0.559,0.221-1.083,0.617-1.477C15.416,1.716,15.939,1.5,16.496,1.5H16.5V0.75
		C16.5,0.336,16.836,0,17.25,0S18,0.336,18,0.75V1.5h1.125c0.414,0,0.75,0.336,0.75,0.75S19.538,3,19.125,3H16.5
		c-0.161,0-0.31,0.061-0.421,0.172c-0.112,0.111-0.174,0.259-0.174,0.417c-0.001,0.236,0.136,0.447,0.351,0.542l2.622,0.814
		c0.019,0.006,0.039,0.013,0.057,0.021c0.516,0.207,0.923,0.604,1.144,1.118c0.22,0.514,0.228,1.083,0.02,1.601
		C19.779,8.484,19.017,9,18.156,9H18v0.75C18,10.164,17.663,10.5,17.25,10.5z"/>
</g>
</svg>
