<?xml version="1.0" encoding="utf-8"?>
<!-- Generator: Adobe Illustrator 22.1.0, SVG Export Plug-In . SVG Version: 6.00 Build 0)  -->
<svg version="1.1" id="Layer_1" xmlns="http://www.w3.org/2000/svg" xmlns:xlink="http://www.w3.org/1999/xlink" x="0px" y="0px"
	 viewBox="0 0 24 24" style="enable-background:new 0 0 24 24;" xml:space="preserve">
<title>money-wallet</title>
<g>
	<path d="M3.75,23.749c-2.068,0-3.75-1.682-3.75-3.75v-10.5c0-2.012,1.555-3.64,3.556-3.741l10.517-5.258
		c0.317-0.158,0.655-0.239,1.005-0.239c0.241,0,0.482,0.039,0.713,0.116c0.57,0.19,1.032,0.591,1.301,1.129l2.139,4.278
		c1.85,0.239,3.269,1.83,3.269,3.715v0.879c0.885,0.314,1.5,1.162,1.5,2.121v4.5c0,0.96-0.615,1.808-1.5,2.121v0.879
		c0,2.068-1.682,3.75-3.75,3.75H3.75z M3.75,7.249c-1.241,0-2.25,1.009-2.25,2.25v10.5c0,1.241,1.009,2.25,2.25,2.25h15
		c1.241,0,2.25-1.009,2.25-2.25v-0.75h-3c-2.481,0-4.5-2.019-4.5-4.5s2.019-4.5,4.5-4.5h3v-0.75c0-1.24-1.009-2.25-2.249-2.25
		C18.75,7.249,3.75,7.249,3.75,7.249z M18,11.749c-1.654,0-3,1.346-3,3c0,1.654,1.346,3,3,3h3.75c0.414,0,0.75-0.336,0.75-0.75v-4.5
		c0-0.413-0.336-0.75-0.75-0.75H18z M17.536,5.749L15.75,2.177c-0.09-0.179-0.243-0.313-0.433-0.376
		c-0.078-0.026-0.158-0.039-0.239-0.039c-0.116,0-0.229,0.027-0.334,0.08L6.927,5.749H17.536z"/>
	<circle cx="18" cy="14.749" r="1.125"/>
</g>
</svg>
