<?xml version="1.0" encoding="utf-8"?>
<!-- Generator: Adobe Illustrator 22.1.0, SVG Export Plug-In . SVG Version: 6.00 Build 0)  -->
<svg version="1.1" id="Layer_1" xmlns="http://www.w3.org/2000/svg" xmlns:xlink="http://www.w3.org/1999/xlink" x="0px" y="0px"
	 viewBox="0 0 24 24" style="enable-background:new 0 0 24 24;" xml:space="preserve">
<title>monetization-tablet</title>
<g>
	<path d="M22.125,24c-0.251,0-0.485-0.125-0.624-0.334l-3-4.5c-0.083-0.124-0.126-0.268-0.126-0.416V13.5
		c0-1.188-2.29-2.797-3.75-3.802v3.189l1.649,1.321c0.323,0.259,0.375,0.732,0.117,1.054c-0.144,0.179-0.357,0.281-0.586,0.281
		c-0.17,0-0.336-0.058-0.469-0.164l-1.886-1.511c-0.032-0.022-0.062-0.046-0.089-0.071l-1.673-1.341
		c-0.021-0.017-0.043-0.036-0.063-0.057c-0.096-0.096-0.238-0.151-0.39-0.151s-0.294,0.056-0.391,0.153
		c-0.104,0.104-0.162,0.243-0.162,0.391s0.057,0.287,0.162,0.391l3.565,4.02c0.122,0.137,0.189,0.314,0.189,0.498v2.5
		c0,0.616,0.873,1.857,1.493,2.542c0.278,0.307,0.254,0.782-0.053,1.06c-0.138,0.125-0.317,0.194-0.503,0.194
		c-0.212,0-0.414-0.09-0.556-0.247c-0.3-0.331-1.741-1.99-1.871-3.356C12.533,20.784,11.849,21,11.142,21H4.608
		c-1.921,0-3.483-1.562-3.483-3.483V3.482C1.125,1.562,2.687,0,4.607,0h6.268c2.068,0,3.75,1.682,3.75,3.75v4.12
		c0.202,0.145,0.436,0.306,0.725,0.505c1.91,1.314,4.525,3.113,4.525,5.124v5.023l2.874,4.311c0.229,0.344,0.136,0.811-0.208,1.04
		C22.417,23.956,22.274,24,22.125,24z M2.625,17.517c0,1.093,0.89,1.983,1.983,1.983h6.534c0.932,0,1.729-0.642,1.933-1.541
		L9.752,14.21c-0.357-0.354-0.57-0.878-0.57-1.419c0-0.549,0.214-1.064,0.601-1.452c0.388-0.388,0.903-0.601,1.452-0.601
		c0.532,0,1.036,0.202,1.419,0.569l0.47,0.377V3.75c0-1.241-1.009-2.25-2.25-2.25H4.608c-1.094,0-1.983,0.889-1.983,1.982V15h5.25
		c0.414,0,0.75,0.336,0.75,0.75s-0.336,0.75-0.75,0.75h-5.25V17.517z"/>
	<path d="M7.875,12c-0.414,0-0.75-0.336-0.75-0.75v-0.353c-0.674-0.154-1.282-0.543-1.705-1.099
		C5.298,9.639,5.247,9.441,5.274,9.243c0.027-0.199,0.13-0.375,0.289-0.496c0.131-0.1,0.288-0.153,0.453-0.153
		c0.233,0,0.456,0.111,0.597,0.296C6.89,9.254,7.329,9.471,7.787,9.471L7.845,9.47c0.775,0,1.343-0.422,1.343-0.798
		c0-0.376-0.562-0.797-1.313-0.797c-1.551,0-2.812-1.031-2.812-2.298c0-1.052,0.849-1.943,2.062-2.213V3
		c0-0.414,0.336-0.75,0.75-0.75S8.625,2.586,8.625,3v0.355C9.3,3.509,9.908,3.897,10.329,4.451c0.25,0.329,0.187,0.801-0.142,1.051
		c-0.132,0.1-0.289,0.153-0.454,0.153c-0.236,0-0.454-0.108-0.597-0.296C8.855,4.99,8.426,4.779,7.958,4.779L7.903,4.78
		c-0.773,0-1.341,0.421-1.341,0.797c0,0.377,0.561,0.798,1.312,0.798c1.551,0,2.813,1.03,2.813,2.297
		c0,1.052-0.85,1.943-2.063,2.213v0.365C8.625,11.664,8.288,12,7.875,12z"/>
</g>
</svg>
