<?xml version="1.0" encoding="utf-8"?>
<!-- Generator: Adobe Illustrator 22.1.0, SVG Export Plug-In . SVG Version: 6.00 Build 0)  -->
<svg version="1.1" id="Regular" xmlns="http://www.w3.org/2000/svg" xmlns:xlink="http://www.w3.org/1999/xlink" x="0px" y="0px"
	 viewBox="0 0 24 24" style="enable-background:new 0 0 24 24;" xml:space="preserve">
<title>monitor-heart-beat-touch</title>
<g>
	<path d="M20.255,23.997c-0.414,0-0.75-0.336-0.75-0.75v-2.167c0-1.832-1.312-3.38-3.119-3.681l-3-0.5
		c-0.363-0.06-0.626-0.371-0.626-0.74v-2.662H9.755v6c0,0.261-0.133,0.5-0.355,0.638c-0.119,0.073-0.255,0.112-0.395,0.112
		c-0.116,0-0.231-0.027-0.335-0.079l-1.708-0.85c-0.241-0.121-0.496-0.182-0.76-0.182c-0.181,0-0.362,0.03-0.537,0.088
		c-0.43,0.143-0.779,0.445-0.982,0.85c-0.357,0.712-0.164,1.59,0.459,2.087l0.626,0.5c0.323,0.258,0.377,0.73,0.119,1.054
		c-0.144,0.18-0.357,0.282-0.587,0.282c-0.169,0-0.336-0.058-0.468-0.164l-0.626-0.5c-1.173-0.936-1.536-2.59-0.864-3.931
		c0.383-0.763,1.039-1.332,1.85-1.602c0.329-0.109,0.669-0.165,1.011-0.165c0.498,0,0.979,0.115,1.429,0.34l0.623,0.31v-4.789h-0.75
		c-1.241,0-2.25-1.009-2.25-2.25v-5.25c0-2.229,1.225-4.261,3.196-5.304c0.864-0.457,1.832-0.699,2.798-0.699
		c0.599,0,1.196,0.091,1.775,0.269c1.532,0.472,2.788,1.513,3.537,2.93c0.193,0.366,0.053,0.82-0.312,1.014
		c-0.108,0.057-0.229,0.087-0.35,0.087c-0.279,0-0.533-0.153-0.663-0.399c-0.562-1.063-1.504-1.844-2.653-2.198
		c-0.435-0.134-0.883-0.202-1.332-0.202c-0.724,0-1.449,0.181-2.098,0.524C7.674,2.802,6.756,4.326,6.755,5.998v0.75h1.036
		l0.98-1.958c0.192-0.384,0.578-0.622,1.008-0.622c0.173,0,0.346,0.041,0.501,0.119c0.199,0.1,0.363,0.254,0.474,0.448l1.953,3.425
		l0.769-1.539c0.193-0.384,0.579-0.622,1.007-0.622h2.022c0.414,0,0.75,0.336,0.75,0.75s-0.336,0.75-0.75,0.75h-1.79l-0.98,1.958
		c-0.099,0.199-0.254,0.363-0.448,0.474c-0.169,0.097-0.362,0.148-0.557,0.148c-0.403,0-0.778-0.217-0.978-0.566L9.799,6.086
		L9.03,7.626C8.837,8.01,8.452,8.247,8.023,8.247H6.755v3c0,0.414,0.336,0.75,0.75,0.75h7.5c0.414,0,0.75-0.336,0.75-0.75V9.391
		c0-0.414,0.336-0.75,0.75-0.75s0.75,0.336,0.75,0.75v1.856c0,1.241-1.009,2.25-2.25,2.25H14.26v2.027l2.373,0.396
		c2.533,0.422,4.372,2.593,4.372,5.161v2.167C21.005,23.661,20.669,23.997,20.255,23.997z"/>
</g>
</svg>
