<?xml version="1.0" encoding="utf-8"?>
<!-- Generator: Adobe Illustrator 22.1.0, SVG Export Plug-In . SVG Version: 6.00 Build 0)  -->
<svg version="1.1" id="Regular" xmlns="http://www.w3.org/2000/svg" xmlns:xlink="http://www.w3.org/1999/xlink" x="0px" y="0px"
	 viewBox="0 0 24 24" style="enable-background:new 0 0 24 24;" xml:space="preserve">
<title>monitor-heart-notes</title>
<g>
	<path d="M5.25,24C4.009,24,3,22.991,3,21.75v-3C3,18.337,3.336,18,3.75,18s0.75,0.336,0.75,0.75v3c0,0.414,0.336,0.75,0.75,0.75
		h13.5c0.414,0,0.75-0.336,0.75-0.75v-3c0-0.414,0.336-0.75,0.75-0.75S21,18.337,21,18.75v3c0,1.241-1.009,2.25-2.25,2.25H5.25z"/>
	<path d="M20.25,13.5c-0.414,0-0.75-0.336-0.75-0.75v-7.5c0-0.414-0.336-0.75-0.75-0.75H16.5V6c0,0.827-0.673,1.5-1.5,1.5H9
		C8.173,7.5,7.5,6.827,7.5,6V4.5H5.25C4.836,4.5,4.5,4.836,4.5,5.25v7.5c0,0.414-0.336,0.75-0.75,0.75S3,13.164,3,12.75v-7.5
		C3,4.009,4.009,3,5.25,3H7.5c0-0.827,0.673-1.5,1.5-1.5h0.315c0.516-0.921,1.497-1.503,2.562-1.503
		c0.041,0,0.081,0.001,0.122,0.003c0.042-0.002,0.085-0.003,0.127-0.003c1.067,0,2.048,0.583,2.564,1.504H15
		c0.827,0,1.5,0.673,1.5,1.5h2.25C19.991,3,21,4.009,21,5.25v7.5C21,13.164,20.664,13.5,20.25,13.5z M9,6h6V3h-0.795
		c-0.324,0-0.611-0.207-0.712-0.515c-0.195-0.591-0.745-0.989-1.369-0.989c-0.027,0-0.054,0.001-0.081,0.002
		c-0.007,0-0.037,0.001-0.044,0.001c-0.014,0-0.09-0.003-0.115-0.003c-0.625,0-1.176,0.397-1.371,0.988C10.411,2.793,10.125,3,9.8,3
		H9V6z"/>
	<path d="M12.036,19.63c-0.171,0-0.337-0.038-0.492-0.114c-0.271-0.132-0.473-0.361-0.571-0.645l-2.082-5.726l-1.366,2.734
		C7.332,16.262,6.946,16.5,6.518,16.5H0.75C0.336,16.5,0,16.164,0,15.75S0.336,15,0.75,15h5.536l1.653-3.305
		c0.134-0.268,0.365-0.469,0.649-0.564c0.117-0.039,0.237-0.058,0.358-0.058c0.172,0,0.346,0.041,0.501,0.118
		c0.259,0.129,0.456,0.35,0.555,0.622l2.067,5.686l1.927-4.327c0.181-0.406,0.585-0.667,1.029-0.667
		c0.158,0,0.311,0.033,0.456,0.097c0.238,0.106,0.432,0.292,0.548,0.524l0.937,1.876l6.283,0c0.414,0,0.75,0.336,0.75,0.75
		s-0.336,0.75-0.75,0.75h-6.514c-0.428,0-0.813-0.237-1.006-0.62l-0.686-1.373l-1.977,4.448c-0.12,0.284-0.364,0.51-0.666,0.613
		C12.284,19.61,12.161,19.63,12.036,19.63z"/>
</g>
</svg>
