<?xml version="1.0" encoding="utf-8"?>
<!-- Generator: Adobe Illustrator 22.1.0, SVG Export Plug-In . SVG Version: 6.00 Build 0)  -->
<svg version="1.1" id="Regular" xmlns="http://www.w3.org/2000/svg" xmlns:xlink="http://www.w3.org/1999/xlink" x="0px" y="0px"
	 viewBox="0 0 24 24" style="enable-background:new 0 0 24 24;" xml:space="preserve">
<title>monkey</title>
<g>
	<path d="M9.375,11.25c-0.044,0-0.088-0.004-0.131-0.012c-0.513-0.06-0.922-0.47-0.982-0.982c-0.008-0.043-0.012-0.087-0.012-0.131
		s0.004-0.088,0.012-0.131c0.06-0.513,0.47-0.922,0.982-0.982C9.287,9.004,9.331,9,9.375,9s0.088,0.004,0.131,0.012
		c0.513,0.06,0.922,0.47,0.982,0.982c0.008,0.043,0.012,0.087,0.012,0.131s-0.004,0.088-0.012,0.131
		c-0.06,0.513-0.47,0.922-0.982,0.982C9.463,11.246,9.419,11.25,9.375,11.25z"/>
	<path d="M14.625,11.25c-0.044,0-0.088-0.004-0.131-0.011c-0.513-0.06-0.922-0.47-0.982-0.983c-0.008-0.042-0.011-0.086-0.011-0.13
		s0.004-0.088,0.011-0.13c0.06-0.513,0.47-0.923,0.982-0.983C14.537,9.004,14.581,9,14.625,9s0.088,0.004,0.131,0.011
		c0.513,0.06,0.922,0.47,0.983,0.983c0.007,0.042,0.011,0.086,0.011,0.13s-0.004,0.088-0.011,0.13
		c-0.061,0.513-0.47,0.923-0.983,0.983C14.713,11.246,14.669,11.25,14.625,11.25z"/>
	<path d="M12,16.5c-0.414,0-0.75-0.336-0.75-0.75V13.5c0-0.414,0.336-0.75,0.75-0.75s0.75,0.336,0.75,0.75v2.25
		C12.75,16.164,12.414,16.5,12,16.5z"/>
	<path d="M12.003,24C4.64,24,0.75,20.11,0.75,12.75c0-4.631,0.717-7.581,2.323-9.566C4.832,1.012,7.668,0,12,0
		c4.412,0,7.4,1.136,9.135,3.474c1.463,1.972,2.115,4.833,2.115,9.276c0,7.358-3.888,11.248-11.245,11.25H12.003z M8.276,20.154
		c0.208,1.32,1.8,2.346,3.726,2.346c1.937-0.001,3.534-1.032,3.73-2.351c-1.071,0.562-2.258,0.856-3.47,0.856
		c-0.087,0-0.175-0.002-0.262-0.005c-0.085,0.003-0.171,0.004-0.256,0.004C10.531,21.005,9.345,20.712,8.276,20.154z M12,1.5
		c-3.843,0-6.309,0.835-7.761,2.628C2.864,5.828,2.25,8.487,2.25,12.75c0,4.606,1.695,7.61,5.044,8.951
		c-0.354-0.561-0.541-1.183-0.541-1.826c-0.007-0.348,0.011-0.712,0.055-1.105c0.001-0.031,0.005-0.062,0.01-0.093
		c0.053-0.443,0.142-0.893,0.264-1.32c0.233-0.768,0.067-1.584-0.443-2.189c-0.014-0.017-0.024-0.03-0.034-0.044
		C5.309,13.342,4.58,11.232,4.5,9.027c0-1.408,0.461-2.722,1.298-3.713C6.65,4.306,7.787,3.75,9,3.75
		c0.915,0.007,1.806,0.328,2.512,0.902c0.135,0.109,0.309,0.169,0.488,0.169c0.18,0,0.355-0.061,0.492-0.172
		c0.703-0.573,1.592-0.893,2.502-0.9C17.48,3.75,19.5,6.105,19.5,9c-0.079,2.227-0.806,4.341-2.103,6.126
		c-0.015,0.019-0.025,0.032-0.035,0.045c-0.507,0.603-0.674,1.416-0.444,2.174c0.239,0.836,0.35,1.688,0.335,2.544
		c0,0.635-0.186,1.251-0.536,1.808c3.342-1.343,5.033-4.346,5.033-8.947c0-4.264-0.614-6.923-1.989-8.622
		C18.309,2.335,15.843,1.5,12,1.5z M8.367,18.459c0.992,0.676,2.182,1.046,3.375,1.046c0.076,0,0.153-0.001,0.229-0.004
		c0.005,0,0.062,0,0.062,0c0.072,0.003,0.148,0.004,0.224,0.004c1.195,0,2.386-0.371,3.379-1.048
		c-0.043-0.242-0.094-0.468-0.157-0.686c-0.371-1.228-0.104-2.555,0.718-3.546c1.111-1.538,1.735-3.354,1.803-5.251
		c0-2.047-1.346-3.723-3-3.723c-0.566,0.004-1.122,0.205-1.564,0.566c-0.405,0.326-0.914,0.504-1.436,0.504
		c-0.521,0-1.03-0.178-1.432-0.502C10.123,5.456,9.565,5.255,8.996,5.25C7.344,5.251,6,6.933,6,9
		c0.068,1.875,0.693,3.686,1.805,5.224c0.823,0.993,1.09,2.321,0.716,3.556C8.46,17.992,8.41,18.217,8.367,18.459z"/>
</g>
</svg>
