<?xml version="1.0" encoding="utf-8"?>
<!-- Generator: Adobe Illustrator 22.1.0, SVG Export Plug-In . SVG Version: 6.00 Build 0)  -->
<svg version="1.1" id="Regular" xmlns="http://www.w3.org/2000/svg" xmlns:xlink="http://www.w3.org/1999/xlink" x="0px" y="0px"
	 viewBox="0 0 24 24" style="enable-background:new 0 0 24 24;" xml:space="preserve">
<title>moose</title>
<g>
	<path d="M10.031,23.965c-1.878,0-5.284-0.766-6.993-5.894c-0.071-0.213-0.044-0.445,0.076-0.635
		c0.014-0.022,1.424-2.275,3.018-4.521c0.14-0.198,0.369-0.316,0.612-0.316c0.156,0,0.307,0.048,0.434,0.139
		c0.337,0.239,0.417,0.708,0.177,1.045c-1.226,1.727-2.344,3.462-2.778,4.145c0.652,1.78,2.182,4.561,5.38,4.561
		c0.242,0,0.454-0.017,0.625-0.039l0.675-4.722c0.043-0.305,0.265-0.549,0.564-0.623c0.06-0.014,0.119-0.021,0.177-0.021
		c0.242,0,0.471,0.117,0.611,0.314c0.018,0.025,1.973,2.695,3.906,2.854c0.059,0.005,0.118,0.007,0.176,0.007
		c0.553,0,1.052-0.231,1.528-0.706c1.742-1.742,0.063-4.818-1.594-7.304c-0.988-1.482-2.249-2.022-3.456-2.446
		c-0.015-0.005-0.312-0.108-0.444-0.153C10.894,9.028,9,8.384,9,5.084V3.763C8.963,3.365,8.645,3.038,8.25,2.987
		C7.855,3.038,7.537,3.365,7.5,3.763v2.071c0,1.231-1.132,1.875-2.25,1.875S3,7.065,3,5.834V2.263
		C2.963,1.865,2.645,1.538,2.25,1.487C1.855,1.538,1.537,1.865,1.5,2.263v4.321c0,1.812,0.157,3,2.25,3H9
		c0.414,0,0.75,0.336,0.75,0.75s-0.336,0.75-0.75,0.75H3.75C0,11.084,0,8.044,0,6.584v-4.35c0-0.017,0.001-0.035,0.002-0.053
		c0.08-1.171,1.024-2.116,2.197-2.196C2.215-0.016,2.232-0.016,2.25-0.016s0.035,0.001,0.052,0.002
		C3.474,0.065,4.419,1.01,4.498,2.183C4.499,2.198,4.5,2.216,4.5,2.234v3.6c0,0.311,0.592,0.375,0.75,0.375S6,6.145,6,5.834v-2.1
		c0-0.017,0.001-0.035,0.002-0.053c0.08-1.171,1.024-2.116,2.197-2.196C8.215,1.484,8.232,1.484,8.25,1.484s0.035,0.001,0.052,0.002
		c1.171,0.079,2.116,1.024,2.196,2.197C10.499,3.698,10.5,3.716,10.5,3.734v1.35c0,2.122,0.874,2.518,2.468,3.065
		c0.368-0.975,0.547-2.001,0.532-3.055V3.734c0-0.019,0.001-0.039,0.002-0.058c0.079-1.166,1.024-2.111,2.197-2.19
		c0.016-0.001,0.033-0.002,0.051-0.002s0.035,0.001,0.052,0.002c1.172,0.079,2.117,1.024,2.196,2.197
		C17.999,3.695,18,3.714,18,3.734v2.1c0,0.311,0.592,0.375,0.75,0.375s0.75-0.064,0.75-0.375v-3.6c0-0.019,0.001-0.039,0.002-0.058
		c0.079-1.166,1.024-2.111,2.197-2.19c0.016-0.001,0.033-0.002,0.051-0.002s0.035,0.001,0.052,0.002
		c1.172,0.079,2.117,1.024,2.196,2.197C23.999,2.195,24,2.214,24,2.234v4.35c0,1.64-1.309,4.158-3.676,4.42
		c-0.027,0.003-0.055,0.005-0.083,0.005c-0.382,0-0.702-0.287-0.745-0.667c-0.045-0.412,0.252-0.783,0.663-0.828
		c1.537-0.171,2.341-1.998,2.341-2.93V2.263c-0.037-0.398-0.355-0.725-0.75-0.776C21.355,1.538,21.037,1.865,21,2.263v3.571
		c0,1.231-1.132,1.875-2.25,1.875c-0.54,0-1.053-0.145-1.447-0.407C16.785,6.956,16.5,6.435,16.5,5.834V3.763
		c-0.037-0.398-0.355-0.725-0.75-0.776C15.355,3.038,15.037,3.365,15,3.763v1.321c0.018,1.22-0.191,2.422-0.622,3.572
		c1.173,0.475,2.459,1.207,3.496,2.762c1.16,1.74,4.241,6.362,1.406,9.196c-0.76,0.76-1.63,1.146-2.586,1.146
		c-0.1,0-0.202-0.004-0.304-0.013c-1.548-0.128-2.959-1.245-3.882-2.175l-0.517,3.617c-0.042,0.292-0.252,0.534-0.536,0.615
		C11.451,23.806,10.89,23.965,10.031,23.965z"/>
	<path d="M14.625,14.834c-0.044,0-0.088-0.004-0.13-0.011c-0.513-0.06-0.923-0.47-0.983-0.983c-0.007-0.042-0.011-0.086-0.011-0.13
		s0.004-0.088,0.011-0.131c0.06-0.513,0.47-0.923,0.983-0.983c0.042-0.008,0.086-0.011,0.131-0.011s0.088,0.004,0.131,0.011
		c0.513,0.06,0.923,0.47,0.983,0.983c0.008,0.042,0.011,0.086,0.011,0.131s-0.004,0.088-0.011,0.131
		c-0.06,0.513-0.47,0.923-0.983,0.983C14.713,14.83,14.669,14.834,14.625,14.834z"/>
</g>
</svg>
