<?xml version="1.0" encoding="utf-8"?>
<!-- Generator: Adobe Illustrator 22.1.0, SVG Export Plug-In . SVG Version: 6.00 Build 0)  -->
<svg version="1.1" id="Regular" xmlns="http://www.w3.org/2000/svg" xmlns:xlink="http://www.w3.org/1999/xlink" x="0px" y="0px"
	 viewBox="0 0 24 24" style="enable-background:new 0 0 24 24;" xml:space="preserve">
<title>moose-body</title>
<g>
	<path d="M16.453,23.992c-0.414,0-0.75-0.336-0.75-0.75v-6c0-0.812,0.053-1.604,0.159-2.359c-1.058-0.304-1.956-0.976-2.55-1.913
		c-0.396-0.624-0.627-1.322-0.683-2.048c-0.469,0.214-0.94,0.319-1.426,0.319h-6.75c-1.654,0-3,1.346-3,3v9
		c0,0.414-0.336,0.75-0.75,0.75s-0.75-0.336-0.75-0.75v-9c0-2.481,2.019-4.5,4.5-4.5h6.75c0.578,0,1.15-0.278,1.797-0.875
		c0.568-0.525,1.098-1.201,1.61-1.854c0.449-0.572,0.869-1.108,1.313-1.551c0.155-0.154,0.329-0.3,0.521-0.435
		c-0.026-0.349-0.116-0.492-0.211-0.591c-0.45-0.467-1.85-0.694-4.28-0.694c-0.502,0-0.969,0-1.404-0.006
		c-0.031,0.004-0.063,0.006-0.095,0.006c-0.04,0-0.08-0.003-0.12-0.01c-2.485-0.049-4.381-0.309-4.381-2.99
		c0-0.414,0.336-0.75,0.75-0.75s0.75,0.336,0.75,0.75c0,1.06,0.23,1.381,2.251,1.469V0.742c0-0.414,0.336-0.75,0.75-0.75
		s0.75,0.336,0.75,0.75v1.499c0.236,0.001,0.486,0.001,0.749,0.001c0.556,0,1.051,0.011,1.501,0.033V0.742
		c0-0.414,0.336-0.75,0.75-0.75s0.75,0.336,0.75,0.75v1.673c1.141,0.172,1.876,0.479,2.359,0.98c0.264,0.274,0.443,0.6,0.543,0.989
		c0.338-0.084,0.683-0.127,1.032-0.127c0.227,0,0.456,0.019,0.679,0.055c1.504,0.246,2.768,1.256,3.558,2.845
		c0.928,1.871,1.088,3.546,0.438,4.593c-0.396,0.639-1.057,0.991-1.86,0.991c-1.302,0-2.151-0.425-2.772-0.735
		c-0.093-0.046-0.347-0.173-0.468-0.212c-0.624,0.674-1.26,2.774-1.26,5.447v6C17.203,23.656,16.867,23.992,16.453,23.992z
		 M14.189,9.889c-0.178,0.796-0.039,1.602,0.39,2.279c0.372,0.587,0.923,1.017,1.573,1.235c0.312-1.219,0.767-2.187,1.271-2.691
		c0.285-0.285,0.615-0.43,0.98-0.43c0.432,0,0.839,0.203,1.198,0.383c0.541,0.271,1.154,0.577,2.102,0.577
		c0.368,0,0.51-0.161,0.585-0.281c0.269-0.433,0.297-1.515-0.507-3.135c-0.569-1.145-1.442-1.867-2.457-2.032
		c-0.15-0.025-0.302-0.037-0.453-0.037c-0.713,0-1.401,0.279-1.888,0.766c-0.381,0.381-0.775,0.884-1.193,1.416
		c-0.494,0.63-1.005,1.281-1.582,1.846L14.189,9.889z"/>
	<path d="M13.453,23.992c-0.414,0-0.75-0.336-0.75-0.75v-3.5c0-0.398,0-1-1.5-1h-5.25c-0.569,0-0.992,0.096-1.227,0.279
		c-0.117,0.091-0.273,0.265-0.273,0.721v3.5c0,0.414-0.336,0.75-0.75,0.75s-0.75-0.336-0.75-0.75v-3.5
		c0-0.824,0.287-1.466,0.852-1.905c0.515-0.4,1.216-0.595,2.145-0.595h5.253c2.61,0,3,1.566,3,2.5v3.5
		C14.203,23.656,13.867,23.992,13.453,23.992z"/>
	<path d="M19.823,8.992c-0.044,0-0.089-0.004-0.133-0.012c-0.252-0.031-0.479-0.139-0.656-0.315
		c-0.213-0.212-0.331-0.494-0.331-0.794c0,0,0-0.001,0-0.002c-0.001-0.3,0.115-0.583,0.327-0.796s0.494-0.331,0.794-0.331
		c0,0,0.003,0,0.004,0c0.62,0,1.125,0.505,1.125,1.125c0,0.057-0.007,0.115-0.022,0.176c-0.078,0.492-0.47,0.873-0.965,0.937
		c-0.046,0.009-0.092,0.013-0.136,0.013C19.829,8.992,19.824,8.992,19.823,8.992z"/>
</g>
</svg>
