<?xml version="1.0" encoding="utf-8"?>
<!-- Generator: Adobe Illustrator 22.1.0, SVG Export Plug-In . SVG Version: 6.00 Build 0)  -->
<svg version="1.1" id="Regular" xmlns="http://www.w3.org/2000/svg" xmlns:xlink="http://www.w3.org/1999/xlink" x="0px" y="0px"
	 viewBox="0 0 24 24" style="enable-background:new 0 0 24 24;" xml:space="preserve">
<title>mortar-pestle</title>
<g>
	<path d="M7.841,23.748c-0.214,0-0.421-0.045-0.616-0.133c-0.754-0.339-1.091-1.229-0.751-1.983c0.2-0.449,0.434-0.89,0.694-1.31
		l0.009-0.016c-3.251-1.668-5.386-4.927-5.644-8.558H0.75c-0.414,0-0.75-0.336-0.75-0.75s0.336-0.75,0.75-0.75h22.5
		c0.414,0,0.75,0.336,0.75,0.75s-0.336,0.75-0.75,0.75h-0.783c-0.258,3.63-2.393,6.891-5.637,8.569l-0.01,0.006
		c0.273,0.418,0.507,0.86,0.708,1.311c0.085,0.19,0.13,0.401,0.131,0.61c0.001,0.401-0.155,0.778-0.438,1.062
		c-0.283,0.284-0.66,0.441-1.061,0.442H7.841z M3.031,11.748c0.255,3.066,2.078,5.814,4.829,7.237
		c0.736,0.383,1.022,1.292,0.64,2.027c-0.018,0.035-0.038,0.069-0.059,0.103c-0.223,0.36-0.425,0.741-0.599,1.131l8.317,0.002
		c-0.174-0.391-0.376-0.772-0.602-1.136c-0.438-0.701-0.222-1.63,0.481-2.069c0.032-0.02,0.067-0.041,0.104-0.059
		c2.749-1.422,4.572-4.17,4.827-7.236H3.031z"/>
	<path d="M18.75,8.748c-0.081,0-0.161-0.013-0.238-0.039c-0.189-0.063-0.344-0.197-0.433-0.376
		c-0.089-0.179-0.104-0.382-0.041-0.572c0,0,1.835-5.503,1.835-5.505c0.047-0.142,0.035-0.295-0.032-0.429
		c-0.068-0.135-0.184-0.236-0.327-0.284c-0.061-0.02-0.122-0.03-0.184-0.03c-0.198,0-0.378,0.103-0.481,0.276l-3.957,6.595
		c-0.135,0.224-0.381,0.364-0.644,0.364l0,0c-0.135,0-0.269-0.037-0.385-0.107c-0.172-0.103-0.293-0.267-0.342-0.461
		c-0.049-0.194-0.019-0.396,0.084-0.568l3.957-6.595c0.377-0.629,1.037-1.004,1.765-1.004c0.224,0,0.446,0.036,0.661,0.108
		c0.523,0.174,0.947,0.542,1.194,1.036c0.247,0.494,0.287,1.053,0.113,1.576c0,0.001-1.835,5.503-1.835,5.503
		C19.359,8.542,19.073,8.748,18.75,8.748z"/>
</g>
</svg>
