<?xml version="1.0" encoding="utf-8"?>
<!-- Generator: Adobe Illustrator 22.1.0, SVG Export Plug-In . SVG Version: 6.00 Build 0)  -->
<svg version="1.1" id="Regular" xmlns="http://www.w3.org/2000/svg" xmlns:xlink="http://www.w3.org/1999/xlink" x="0px" y="0px"
	 viewBox="0 0 24 24" style="enable-background:new 0 0 24 24;" xml:space="preserve">
<title>mouse-1</title>
<g>
	<path d="M9.384,11.25c-0.044,0-0.088-0.004-0.131-0.012c-0.513-0.06-0.922-0.47-0.982-0.982c-0.008-0.043-0.012-0.087-0.012-0.131
		s0.004-0.088,0.012-0.131c0.06-0.513,0.47-0.922,0.982-0.982C9.296,9.004,9.34,9,9.384,9s0.088,0.004,0.131,0.012
		c0.513,0.06,0.922,0.47,0.982,0.982c0.008,0.043,0.012,0.087,0.012,0.131s-0.004,0.088-0.012,0.131
		c-0.06,0.513-0.47,0.922-0.982,0.982C9.472,11.246,9.428,11.25,9.384,11.25z"/>
	<path d="M14.634,11.25c-0.044,0-0.088-0.004-0.131-0.011c-0.513-0.06-0.922-0.47-0.982-0.983c-0.008-0.042-0.011-0.086-0.011-0.13
		s0.004-0.088,0.011-0.13c0.06-0.513,0.47-0.923,0.982-0.983C14.546,9.004,14.59,9,14.634,9s0.088,0.004,0.131,0.011
		c0.513,0.06,0.922,0.47,0.983,0.983c0.007,0.042,0.011,0.086,0.011,0.13s-0.004,0.088-0.011,0.13
		c-0.061,0.513-0.47,0.923-0.983,0.983C14.722,11.246,14.678,11.25,14.634,11.25z"/>
	<path d="M12.009,24c-1.142,0-2.103-0.866-2.233-1.99c-0.274-0.396-1.13-1.638-2.059-3.07l-2.623,3.278
		C4.952,22.397,4.738,22.5,4.509,22.5c-0.17,0-0.336-0.059-0.469-0.165c-0.156-0.125-0.254-0.303-0.276-0.502
		c-0.022-0.199,0.035-0.395,0.16-0.552l2.942-3.678c-0.247-0.395-0.476-0.77-0.685-1.121l-4.435,1.479C1.67,17.987,1.59,18,1.509,18
		c-0.323,0-0.609-0.206-0.711-0.513c-0.063-0.19-0.049-0.394,0.041-0.573c0.09-0.179,0.244-0.313,0.434-0.376l4.151-1.384
		c-0.8-1.482-0.914-2.049-0.914-2.405c0-0.6,0.043-1.179,0.08-1.689c0.014-0.193,0.03-0.41,0.04-0.598
		c-0.082-0.01-0.163-0.021-0.244-0.035C3.004,10.196,1.796,9.441,0.983,8.3C0.17,7.16-0.15,5.771,0.081,4.39
		c0.232-1.381,0.987-2.589,2.128-3.402C3.104,0.35,4.153,0.013,5.242,0.013c0.292,0,0.587,0.025,0.877,0.073
		C7.5,0.318,8.709,1.073,9.522,2.214c0.552,0.774,0.878,1.661,0.956,2.59c0.493-0.157,1.006-0.237,1.531-0.237
		c0.525,0,1.038,0.079,1.532,0.237C13.769,2.118,16.031,0,18.772,0c2.91,0.008,5.258,2.37,5.25,5.265
		c-0.008,2.676-2.015,4.893-4.633,5.199c0.01,0.189,0.026,0.406,0.04,0.595c0.038,0.51,0.08,1.089,0.08,1.69
		c0,0.356-0.114,0.923-0.914,2.405l4.151,1.384c0.392,0.131,0.605,0.556,0.474,0.948C23.118,17.794,22.833,18,22.509,18
		c-0.081,0-0.161-0.013-0.238-0.039l-4.434-1.478c-0.208,0.349-0.438,0.725-0.685,1.121l2.942,3.677
		c0.258,0.323,0.206,0.796-0.117,1.054c-0.133,0.106-0.299,0.165-0.469,0.165c-0.229,0-0.443-0.103-0.586-0.281l-2.623-3.278
		c-0.902,1.389-1.738,2.606-2.059,3.069C14.112,23.134,13.151,24,12.009,24z M12.009,21c-0.414,0-0.75,0.336-0.75,0.75
		s0.336,0.75,0.75,0.75c0.413,0,0.75-0.336,0.75-0.75S12.423,21,12.009,21z M12.009,19.5c0.633,0,1.226,0.265,1.646,0.717
		c2.503-3.676,4.354-6.845,4.354-7.467c0-0.544-0.04-1.093-0.076-1.578c-0.078-1.064-0.114-1.548,0.22-1.907
		C18.309,9.097,18.527,9.003,18.766,9c2.067,0,3.75-1.677,3.756-3.739c0.006-2.068-1.671-3.755-3.739-3.761
		c-2.073,0-3.755,1.677-3.761,3.739c-0.001,0.212,0.017,0.426,0.052,0.636c0.05,0.292-0.078,0.588-0.326,0.751
		c-0.123,0.081-0.266,0.124-0.413,0.124c-0.145,0-0.285-0.042-0.407-0.12c-0.572-0.368-1.235-0.563-1.919-0.563
		s-1.348,0.195-1.92,0.564C9.968,6.709,9.827,6.75,9.683,6.75c-0.147,0-0.29-0.043-0.412-0.124c-0.248-0.163-0.376-0.458-0.327-0.75
		C9.109,4.89,8.88,3.899,8.3,3.084C7.72,2.27,6.857,1.731,5.871,1.566C5.663,1.531,5.452,1.513,5.243,1.513
		c-0.777,0-1.525,0.241-2.164,0.696c-0.814,0.58-1.354,1.443-1.519,2.429C1.395,5.624,1.624,6.615,2.204,7.43
		c0.58,0.814,1.443,1.353,2.429,1.519C4.838,8.983,5.034,9,5.215,9l0.039,0c0.237,0,0.453,0.094,0.612,0.265
		c0.334,0.359,0.298,0.844,0.22,1.905c-0.036,0.487-0.076,1.036-0.076,1.58c0,0.622,1.851,3.791,4.354,7.467
		C10.783,19.765,11.376,19.5,12.009,19.5z"/>
</g>
</svg>
