<?xml version="1.0" encoding="utf-8"?>
<!-- Generator: Adobe Illustrator 22.1.0, SVG Export Plug-In . SVG Version: 6.00 Build 0)  -->
<svg version="1.1" id="Regular" xmlns="http://www.w3.org/2000/svg" xmlns:xlink="http://www.w3.org/1999/xlink" x="0px" y="0px"
	 viewBox="0 0 24 24" style="enable-background:new 0 0 24 24;" xml:space="preserve">
<title>movie-audience</title>
<g>
	<path d="M22.5,10.274c-0.13,0-0.259-0.017-0.385-0.05l-21.002-5.6C0.458,4.449,0,3.853,0,3.174V1.5C0,0.673,0.673,0,1.5,0h21
		C23.327,0,24,0.673,24,1.5v7.274c0,0.401-0.156,0.777-0.439,1.061C23.278,10.118,22.901,10.274,22.5,10.274
		C22.5,10.274,22.5,10.274,22.5,10.274z M1.5,3.174l21,5.6l0-7.274h-21V3.174z"/>
	<path d="M9.75,22.5C9.336,22.5,9,22.164,9,21.75v-4.5c0-0.414-0.336-0.75-0.75-0.75h-1.5C6.336,16.5,6,16.164,6,15.75v-1.5
		c0-0.414-0.336-0.75-0.75-0.75S4.5,13.836,4.5,14.25v3C4.5,17.664,4.836,18,5.25,18h1.5c0.414,0,0.75,0.336,0.75,0.75v3
		c0,0.414-0.336,0.75-0.75,0.75S6,22.164,6,21.75V19.5H5.25C4.009,19.5,3,18.491,3,17.25v-3C3,13.009,4.009,12,5.25,12
		s2.25,1.009,2.25,2.25V15h0.75c1.241,0,2.25,1.009,2.25,2.25v4.5C10.5,22.164,10.164,22.5,9.75,22.5z"/>
	<path d="M5.25,12C4.009,12,3,10.991,3,9.75S4.009,7.5,5.25,7.5S7.5,8.509,7.5,9.75S6.491,12,5.25,12z M5.25,9
		C4.836,9,4.5,9.336,4.5,9.75s0.336,0.75,0.75,0.75S6,10.164,6,9.75S5.664,9,5.25,9z"/>
	<path d="M21.75,24C21.336,24,21,23.664,21,23.25v-1.5c0-0.414-0.336-0.75-0.75-0.75h-1.5C18.336,21,18,20.664,18,20.25v-1.5
		c0-0.414-0.336-0.75-0.75-0.75s-0.75,0.336-0.75,0.75v3c0,0.414,0.336,0.75,0.75,0.75S18,22.836,18,23.25S17.664,24,17.25,24
		C16.009,24,15,22.991,15,21.75v-3c0-1.241,1.009-2.25,2.25-2.25s2.25,1.009,2.25,2.25v0.75h0.75c1.241,0,2.25,1.009,2.25,2.25v1.5
		C22.5,23.664,22.164,24,21.75,24z"/>
	<path d="M17.25,16.5c-1.241,0-2.25-1.009-2.25-2.25S16.009,12,17.25,12s2.25,1.009,2.25,2.25S18.491,16.5,17.25,16.5z M17.25,13.5
		c-0.414,0-0.75,0.336-0.75,0.75S16.836,15,17.25,15S18,14.664,18,14.25S17.664,13.5,17.25,13.5z"/>
	<path d="M12.75,24C12.336,24,12,23.664,12,23.25v-6c0-0.414,0.336-0.75,0.75-0.75s0.75,0.336,0.75,0.75v6
		C13.5,23.664,13.164,24,12.75,24z"/>
	<path d="M3.75,22.5C1.682,22.5,0,20.818,0,18.75v-6C0,12.336,0.336,12,0.75,12s0.75,0.336,0.75,0.75v6C1.5,19.991,2.509,21,3.75,21
		c0.414,0,0.75,0.336,0.75,0.75S4.164,22.5,3.75,22.5z"/>
</g>
</svg>
