<?xml version="1.0" encoding="utf-8"?>
<!-- Generator: Adobe Illustrator 22.1.0, SVG Export Plug-In . SVG Version: 6.00 Build 0)  -->
<svg version="1.1" id="Regular" xmlns="http://www.w3.org/2000/svg" xmlns:xlink="http://www.w3.org/1999/xlink" x="0px" y="0px"
	 viewBox="0 0 24 24" style="enable-background:new 0 0 24 24;" xml:space="preserve">
<title>movie-cinema-clock</title>
<g>
	<path d="M2.25,13.5C1.009,13.5,0,12.491,0,11.25v-9C0,1.009,1.009,0,2.25,0H4.5c0.414,0,0.75,0.336,0.75,0.75S4.914,1.5,4.5,1.5
		H2.25C1.836,1.5,1.5,1.836,1.5,2.25v9C1.5,11.664,1.836,12,2.25,12H4.5c0.414,0,0.75,0.336,0.75,0.75S4.914,13.5,4.5,13.5H2.25z"/>
	<path d="M18.75,13.5c-0.414,0-0.75-0.336-0.75-0.75S18.336,12,18.75,12h3c0.414,0,0.75-0.336,0.75-0.75v-9
		c0-0.414-0.336-0.75-0.75-0.75h-3C18.336,1.5,18,1.164,18,0.75S18.336,0,18.75,0h3C22.991,0,24,1.009,24,2.25v9
		c0,1.241-1.009,2.25-2.25,2.25H18.75z"/>
	<path d="M0.75,24C0.336,24,0,23.664,0,23.25v-3c0-2.481,2.019-4.5,4.5-4.5c1.517,0,2.924,0.775,3.75,2.022
		c0.826-1.247,2.233-2.022,3.75-2.022s2.924,0.775,3.75,2.022c0.826-1.247,2.233-2.022,3.75-2.022c2.481,0,4.5,2.019,4.5,4.5v3
		c0,0.414-0.336,0.75-0.75,0.75H0.75z M22.5,22.5v-2.25c0-1.654-1.346-3-3-3s-3,1.346-3,3v2.25H22.5z M15,22.5v-2.25
		c0-1.654-1.346-3-3-3c-1.654,0-3,1.346-3,3v2.25H15z M7.5,22.5v-2.25c0-1.654-1.346-3-3-3s-3,1.346-3,3v2.25H7.5z"/>
	<path d="M12,13.5c-3.722,0-6.75-3.028-6.75-6.75S8.278,0,12,0s6.75,3.028,6.75,6.75S15.722,13.5,12,13.5z M12,1.5
		c-2.895,0-5.25,2.355-5.25,5.25S9.105,12,12,12c2.895,0,5.25-2.355,5.25-5.25S14.895,1.5,12,1.5z"/>
	<path d="M12,7.5c-0.414,0-0.75-0.336-0.75-0.75V4.098c0-0.414,0.336-0.75,0.75-0.75s0.75,0.336,0.75,0.75V6h1.902
		c0.414,0,0.75,0.336,0.75,0.75s-0.336,0.75-0.75,0.75H12z"/>
</g>
</svg>
