<?xml version="1.0" encoding="utf-8"?>
<!-- Generator: Adobe Illustrator 22.1.0, SVG Export Plug-In . SVG Version: 6.00 Build 0)  -->
<svg version="1.1" id="Regular" xmlns="http://www.w3.org/2000/svg" xmlns:xlink="http://www.w3.org/1999/xlink" x="0px" y="0px"
	 viewBox="0 0 24 24" style="enable-background:new 0 0 24 24;" xml:space="preserve">
<title>museum-exhibition</title>
<g>
	<path d="M19.501,5.986c-0.132,0-0.264-0.018-0.392-0.052c-0.387-0.104-0.71-0.353-0.91-0.7L16.065,1.5h-0.63L13.3,5.232
		c-0.132,0.23-0.323,0.422-0.553,0.554c-0.228,0.131-0.486,0.2-0.746,0.2c-0.132,0-0.264-0.018-0.392-0.052
		c-0.387-0.104-0.71-0.353-0.91-0.7L8.565,1.5h-0.63L5.8,5.232C5.668,5.463,5.477,5.654,5.248,5.786
		c-0.227,0.131-0.485,0.2-0.747,0.2c-0.536,0-1.035-0.288-1.302-0.751L1.065,1.5H0.75C0.337,1.5,0,1.164,0,0.75S0.337,0,0.75,0h22.5
		C23.664,0,24,0.336,24,0.75S23.664,1.5,23.25,1.5h-0.315L20.8,5.232c-0.132,0.23-0.323,0.422-0.553,0.554
		C20.02,5.917,19.762,5.986,19.501,5.986z M12,4.488L13.708,1.5h-3.415L12,4.488z M4.5,4.488L6.208,1.5H2.793L4.5,4.488z
		 M19.501,4.488L21.208,1.5h-3.415L19.501,4.488z"/>
	<path d="M18.75,24C18.337,24,18,23.664,18,23.25v-6.383c-1.931,0.756-3.946,1.139-6,1.139c-2.054,0-4.07-0.383-6-1.139v6.383
		C6,23.664,5.664,24,5.25,24S4.5,23.664,4.5,23.25v-6.375c-1.173,0.458-2.396,0.781-3.644,0.959
		c-0.037,0.005-0.072,0.007-0.107,0.007c-0.37,0-0.689-0.277-0.742-0.644c-0.058-0.409,0.227-0.79,0.636-0.849
		c1.326-0.19,2.622-0.559,3.857-1.1v-0.378C3.615,14.558,3,13.71,3,12.75c0-1.241,1.009-2.25,2.25-2.25s2.25,1.009,2.25,2.25
		c0,0.96-0.615,1.808-1.5,2.121v0.375c1.91,0.833,3.927,1.255,6,1.255c2.073,0,4.091-0.422,6-1.255v-0.375
		c-0.885-0.314-1.5-1.162-1.5-2.121c0-1.241,1.009-2.25,2.25-2.25S21,11.509,21,12.75c0,0.96-0.615,1.808-1.5,2.121v0.378
		c1.234,0.54,2.53,0.91,3.856,1.099c0.409,0.059,0.695,0.44,0.636,0.849c-0.053,0.367-0.372,0.644-0.742,0.644
		c-0.034,0-0.069-0.002-0.104-0.007c-1.25-0.179-2.473-0.501-3.646-0.959v6.375C19.5,23.664,19.164,24,18.75,24z M18.75,12
		C18.337,12,18,12.336,18,12.75s0.336,0.75,0.75,0.75s0.75-0.336,0.75-0.75S19.164,12,18.75,12z M5.25,12
		c-0.414,0-0.75,0.336-0.75,0.75s0.336,0.75,0.75,0.75S6,13.164,6,12.75S5.664,12,5.25,12z"/>
</g>
</svg>
