<?xml version="1.0" encoding="utf-8"?>
<!-- Generator: Adobe Illustrator 22.1.0, SVG Export Plug-In . SVG Version: 6.00 Build 0)  -->
<svg version="1.1" id="Regular" xmlns="http://www.w3.org/2000/svg" xmlns:xlink="http://www.w3.org/1999/xlink" x="0px" y="0px"
	 viewBox="0 0 24 24" style="enable-background:new 0 0 24 24;" xml:space="preserve">
<title>natural-disaster-water-level</title>
<g>
	<path d="M2.25,20C1.009,20,0,18.991,0,17.75V5c0-0.414,0.336-0.75,0.75-0.75S1.5,4.586,1.5,5v4.605
		c1.654-0.052,3.03-1.741,3.044-1.758c0.143-0.18,0.355-0.283,0.583-0.283c0.007,0,0.034,0.001,0.041,0.001
		C5.403,7.575,5.624,7.701,5.756,7.9c0.651,0.983,1.741,1.608,2.917,1.674c1.28-0.075,2.461-0.7,3.244-1.717
		c0.141-0.183,0.363-0.293,0.594-0.293c0.022,0,0.045,0.001,0.067,0.003c0.256,0.022,0.48,0.172,0.599,0.401
		c0.505,0.969,1.499,1.585,2.592,1.608c1.168-0.029,2.256-0.65,2.894-1.661c0.138-0.219,0.375-0.35,0.634-0.35
		c0.262,0.001,0.5,0.133,0.637,0.354c0.01,0.016,1.01,1.586,2.566,1.649V5c0-0.414,0.336-0.75,0.75-0.75S24,4.586,24,5v12.75
		c0,1.241-1.009,2.25-2.25,2.25H2.25z M1.5,17.75c0,0.414,0.336,0.75,0.75,0.75h19.5c0.414,0,0.75-0.336,0.75-0.75v-1.436
		c-1.469-0.032-2.557-0.874-3.197-1.549c-0.921,0.962-2.185,1.523-3.531,1.556c-1.301-0.026-2.517-0.602-3.345-1.56
		c-1.016,0.938-2.319,1.488-3.714,1.559c-0.006,0-0.031,0.001-0.037,0.001L8.642,16.32c-1.351-0.065-2.623-0.65-3.55-1.621
		c-0.757,0.71-2.036,1.633-3.592,1.66V17.75z M1.5,14.856c1.664-0.051,3.036-1.744,3.05-1.761c0.144-0.181,0.358-0.284,0.588-0.284
		c0.005,0,0.027,0,0.032,0c0.239,0.01,0.461,0.135,0.594,0.335c0.65,0.982,1.737,1.606,2.911,1.674
		c1.28-0.075,2.461-0.701,3.243-1.718c0.142-0.183,0.364-0.292,0.596-0.292c0.02,0,0.041,0.001,0.061,0.002
		c0.259,0.023,0.483,0.173,0.602,0.401c0.505,0.969,1.499,1.585,2.592,1.607c1.168-0.029,2.256-0.65,2.894-1.661
		c0.139-0.22,0.369-0.348,0.632-0.35c0.265,0.001,0.502,0.133,0.639,0.354c0.01,0.015,1.008,1.583,2.566,1.648v-3.744
		c-1.468-0.032-2.557-0.874-3.197-1.548c-0.921,0.962-2.185,1.523-3.531,1.555c-1.301-0.026-2.517-0.601-3.345-1.56
		c-1.016,0.939-2.318,1.488-3.714,1.559c-0.006,0-0.032,0.001-0.038,0.001l-0.032-0.001c-1.353-0.063-2.628-0.648-3.557-1.621
		c-0.755,0.709-2.031,1.63-3.585,1.656V14.856z"/>
</g>
</svg>
