<?xml version="1.0" encoding="utf-8"?>
<!-- Generator: Adobe Illustrator 22.1.0, SVG Export Plug-In . SVG Version: 6.00 Build 0)  -->
<svg version="1.1" id="Regular" xmlns="http://www.w3.org/2000/svg" xmlns:xlink="http://www.w3.org/1999/xlink" x="0px" y="0px"
	 viewBox="0 0 24 24" style="enable-background:new 0 0 24 24;" xml:space="preserve">
<title>natural-disaster-draught</title>
<g>
	<path d="M23.25,24c-0.414,0-0.75-0.336-0.75-0.75v-2.385l-6-1.2v3.585c0,0.414-0.336,0.75-0.75,0.75S15,23.664,15,23.25v-3.586
		c-1.506,0.298-4.266,0.836-6,1.13v2.456C9,23.664,8.664,24,8.25,24S7.5,23.664,7.5,23.25V21c-0.068,0-0.135-0.009-0.2-0.027
		c-1.922-0.535-3.87-1.17-5.8-1.889v4.166C1.5,23.664,1.164,24,0.75,24S0,23.664,0,23.25v-6C0,16.009,1.009,15,2.25,15H16.5v-4.5
		h-2.25C13.009,10.5,12,9.491,12,8.25V7.5c0-0.414,0.336-0.75,0.75-0.75S13.5,7.086,13.5,7.5v0.75C13.5,8.664,13.836,9,14.25,9h2.25
		V6h-0.75c-1.241,0-2.25-1.009-2.25-2.25V1.5c0-0.414,0.336-0.75,0.75-0.75S15,1.086,15,1.5v2.25c0,0.414,0.336,0.75,0.75,0.75h0.75
		V0.75C16.5,0.336,16.836,0,17.25,0S18,0.336,18,0.75V6h0.75c0.414,0,0.75-0.336,0.75-0.75V3c0-0.414,0.336-0.75,0.75-0.75
		S21,2.586,21,3v2.25c0,1.241-1.009,2.25-2.25,2.25H18v3h2.25c0.414,0,0.75-0.336,0.75-0.75V9c0-0.414,0.336-0.75,0.75-0.75
		S22.5,8.586,22.5,9v0.75c0,1.241-1.009,2.25-2.25,2.25H18v3h3.75c1.241,0,2.25,1.009,2.25,2.25v6C24,23.664,23.664,24,23.25,24z
		 M1.5,17.482c1.979,0.756,3.995,1.424,6,1.989V16.5H2.25c-0.414,0-0.75,0.336-0.75,0.75V17.482z M22.5,19.335V17.25
		c0-0.414-0.336-0.75-0.75-0.75H16.5v1.635L22.5,19.335z M9,19.273c1.609-0.281,4.115-0.764,6-1.139V16.5L9,19.273z"/>
	<path d="M3.75,7.5C1.682,7.5,0,5.818,0,3.75S1.682,0,3.75,0S7.5,1.682,7.5,3.75S5.818,7.5,3.75,7.5z M3.75,1.5
		C2.509,1.5,1.5,2.509,1.5,3.75S2.509,6,3.75,6S6,4.991,6,3.75S4.991,1.5,3.75,1.5z"/>
</g>
</svg>
