<?xml version="1.0" encoding="utf-8"?>
<!-- Generator: Adobe Illustrator 22.1.0, SVG Export Plug-In . SVG Version: 6.00 Build 0)  -->
<svg version="1.1" id="Regular" xmlns="http://www.w3.org/2000/svg" xmlns:xlink="http://www.w3.org/1999/xlink" x="0px" y="0px"
	 viewBox="0 0 24 24" style="enable-background:new 0 0 24 24;" xml:space="preserve">
<title>natural-disaster-bolt</title>
<g>
	<path d="M16.501,15c-0.097,0-0.192-0.019-0.281-0.055c-0.314-0.127-0.505-0.451-0.463-0.789L16.401,9h-2.15
		c-0.249,0-0.481-0.123-0.621-0.329c-0.14-0.206-0.168-0.467-0.075-0.699l3-7.5C16.669,0.185,16.942,0,17.251,0h4.5
		c0.262,0,0.5,0.133,0.638,0.356c0.137,0.223,0.15,0.496,0.033,0.73L20.714,4.5h2.537c0.286,0,0.543,0.159,0.671,0.415
		s0.101,0.557-0.071,0.785l-6.75,9C16.96,14.888,16.736,15,16.501,15z M17.251,7.5c0.215,0,0.42,0.092,0.562,0.254
		c0.143,0.162,0.209,0.377,0.182,0.59l-0.4,3.197L21.751,6h-2.25c-0.262,0-0.5-0.133-0.638-0.356
		c-0.137-0.223-0.15-0.496-0.033-0.73L20.538,1.5h-2.779l-2.4,6H17.251z"/>
	<path d="M5.251,24c-1.241,0-2.25-1.009-2.25-2.25v-8.667l-1.723,1.701C1.137,14.923,0.95,15,0.751,15
		c-0.202,0-0.392-0.079-0.534-0.223C0.077,14.634,0,14.445,0.001,14.245s0.081-0.388,0.223-0.529L10.38,3.69
		c0.009-0.01,0.044-0.046,0.081-0.081C10.88,3.216,11.426,3,11.997,3c0.026,0,0.051,0,0.077,0.001c0.6,0.019,1.157,0.271,1.568,0.71
		l0.366,0.388c0.284,0.301,0.27,0.776-0.031,1.06c-0.14,0.132-0.323,0.204-0.515,0.204c-0.206,0-0.405-0.086-0.545-0.235
		l-0.368-0.39c-0.138-0.147-0.324-0.232-0.524-0.238l-0.027,0c-0.189,0-0.37,0.072-0.51,0.203c-0.012,0.011-6.987,6.899-6.987,6.899
		V21.75c0,0.414,0.336,0.75,0.75,0.75h3.75V18c0-1.654,1.346-3,3-3c1.654,0,3,1.346,3,3v4.5h3.75c0.414,0,0.75-0.336,0.75-0.75v-7.5
		c0-0.414,0.336-0.75,0.75-0.75s0.75,0.336,0.75,0.75v7.5c0,1.241-1.009,2.25-2.25,2.25H5.251z M13.501,22.5V18
		c0-0.827-0.673-1.5-1.5-1.5s-1.5,0.673-1.5,1.5v4.5H13.501z"/>
</g>
</svg>
