<?xml version="1.0" encoding="utf-8"?>
<!-- Generator: Adobe Illustrator 22.1.0, SVG Export Plug-In . SVG Version: 6.00 Build 0)  -->
<svg version="1.1" id="Regular" xmlns="http://www.w3.org/2000/svg" xmlns:xlink="http://www.w3.org/1999/xlink" x="0px" y="0px"
	 viewBox="0 0 24 24" style="enable-background:new 0 0 24 24;" xml:space="preserve">
<title>nautic-sports-sailing-person</title>
<g>
	<path d="M3.75,11.533c-1.861,0-3.375-1.514-3.375-3.375S1.889,4.783,3.75,4.783s3.375,1.514,3.375,3.375S5.611,11.533,3.75,11.533z
		 M3.75,6.283c-1.034,0-1.875,0.841-1.875,1.875s0.841,1.875,1.875,1.875s1.875-0.841,1.875-1.875S4.784,6.283,3.75,6.283z"/>
	<path d="M7.6,19.783c-1.308-0.003-2.539-0.7-3.215-1.818l-1.814-3.024c-0.309-0.515-0.398-1.12-0.252-1.703
		c0.146-0.583,0.51-1.075,1.025-1.383c0.221-0.133,0.462-0.226,0.715-0.276l1.794-0.359c0.62-0.125,1.163-0.508,1.489-1.051
		l1.229-2.043c0.301-0.512,0.788-0.88,1.369-1.031c0.067-0.017,0.134-0.032,0.202-0.043l-2.65-4.544
		C7.356,2.27,7.286,2.001,7.289,1.73c0.006-0.401,0.167-0.775,0.454-1.054C8.025,0.402,8.4,0.251,8.798,0.251
		c8.946,0.125,13.144,7.192,14.534,10.225c0.001,0.003,0.003,0.007,0.005,0.012c0.131,0.285,0.253,0.572,0.365,0.851
		c0.288,0.717-0.029,1.551-0.722,1.896c-1.812,0.834-3.232,2.374-3.906,4.231c-0.115,0.33-0.349,0.613-0.657,0.793
		c-0.229,0.134-0.49,0.204-0.754,0.204c-0.532,0-1.03-0.285-1.297-0.743l-4.093-7.017l-1.069,1.785
		c-0.748,1.243-1.873,2.21-3.2,2.76l0.021,0.034H9c1.515,0.004,3.002,0.523,4.189,1.462c0.324,0.257,0.379,0.729,0.123,1.053
		c-0.143,0.181-0.358,0.285-0.589,0.285c-0.168,0-0.333-0.057-0.465-0.162c-0.924-0.731-2.082-1.135-3.26-1.138H7.6
		c-0.261,0-0.507-0.139-0.642-0.363l-0.723-1.2c-0.122-0.203-0.141-0.454-0.051-0.673c0.09-0.219,0.281-0.384,0.511-0.442
		c1.356-0.342,2.501-1.19,3.223-2.39l1.215-2.028c0.01-0.019,0.02-0.036,0.03-0.05c0.095-0.17,0.12-0.366,0.071-0.554
		c-0.05-0.194-0.173-0.357-0.346-0.458C10.772,8.556,10.641,8.52,10.51,8.52c-0.064,0-0.128,0.008-0.191,0.025
		c-0.194,0.05-0.356,0.173-0.458,0.346l-1.233,2.05c-0.543,0.903-1.446,1.541-2.479,1.749l-1.795,0.359
		c-0.084,0.017-0.165,0.048-0.239,0.092c-0.171,0.103-0.292,0.266-0.341,0.461c-0.049,0.195-0.019,0.396,0.084,0.568l1.813,3.022
		c0.406,0.671,1.146,1.09,1.932,1.092H9c0.414,0,0.75,0.336,0.75,0.75s-0.336,0.75-0.75,0.75H7.6z M17.661,16.964
		c0.809-2.23,2.501-4.075,4.646-5.069c-0.042-0.11-0.092-0.231-0.147-0.361h-7.665L17.661,16.964z M21.437,10.033
		c-0.577-1.078-1.245-2.085-1.993-3H11.87l1.749,3H21.437z M18.056,5.533c-2.582-2.461-5.695-3.732-9.266-3.782l0-0.375l0,0.375
		l2.206,3.782H18.056z"/>
	<path d="M8.261,23.504c-0.277,0-0.558-0.021-0.834-0.064c-1.124-0.173-2.129-0.673-2.93-1.452
		c-1.004,0.964-2.348,1.512-3.746,1.514c-0.414,0-0.75-0.336-0.751-0.749c0-0.2,0.077-0.389,0.219-0.531
		c0.141-0.142,0.33-0.22,0.53-0.22c1.237-0.002,2.414-0.598,3.147-1.594c0.141-0.191,0.366-0.306,0.604-0.306
		c0.239,0,0.464,0.115,0.605,0.307c0.616,0.84,1.522,1.39,2.551,1.549c0.2,0.031,0.402,0.046,0.603,0.046
		c0.828,0,1.622-0.261,2.296-0.755c0.322-0.236,0.605-0.519,0.841-0.841c0.141-0.192,0.367-0.307,0.605-0.307
		s0.464,0.115,0.605,0.307c0.615,0.84,1.521,1.39,2.551,1.549c0.199,0.031,0.402,0.046,0.602,0.046c0.829,0,1.623-0.261,2.297-0.755
		c0.322-0.236,0.605-0.519,0.841-0.841c0.143-0.195,0.364-0.307,0.605-0.307c0.238,0,0.464,0.115,0.604,0.306
		c0.733,0.996,1.91,1.592,3.147,1.594c0.413,0,0.749,0.337,0.749,0.751c0,0.413-0.337,0.749-0.75,0.749
		c-1.4-0.002-2.744-0.55-3.749-1.515c-0.176,0.17-0.363,0.328-0.561,0.472c-0.933,0.684-2.033,1.045-3.18,1.045
		c-0.277,0-0.557-0.021-0.833-0.064c-1.123-0.173-2.127-0.672-2.928-1.451c-0.175,0.169-0.362,0.326-0.558,0.47
		C10.508,23.142,9.408,23.504,8.261,23.504z"/>
</g>
</svg>
