<?xml version="1.0" encoding="utf-8"?>
<!-- Generator: Adobe Illustrator 22.1.0, SVG Export Plug-In . SVG Version: 6.00 Build 0)  -->
<svg version="1.1" id="Regular" xmlns="http://www.w3.org/2000/svg" xmlns:xlink="http://www.w3.org/1999/xlink" x="0px" y="0px"
	 viewBox="0 0 24 24" style="enable-background:new 0 0 24 24;" xml:space="preserve">
<title>nautic-sports-sailing</title>
<g>
	<path d="M17.256,19.716c-0.286,0-0.543-0.159-0.671-0.415c-0.09-0.179-0.104-0.383-0.041-0.573s0.197-0.344,0.376-0.433
		l0.777-0.388c1.254-0.627,2.189-1.705,2.633-3.035l0.229-0.688l-11.3,3.989c-0.08,0.029-0.165,0.043-0.25,0.043
		c-0.317,0-0.601-0.201-0.707-0.501c-0.067-0.189-0.056-0.392,0.031-0.573c0.087-0.181,0.238-0.317,0.427-0.384l3.995-1.41
		l-0.656-1.78l-5.758,2.056c-0.083,0.03-0.169,0.052-0.255,0.067c-0.083,0.014-0.167,0.021-0.251,0.021c0,0,0,0,0,0
		c-0.733,0-1.355-0.525-1.478-1.248c-0.213-1.187-0.373-2.408-0.475-3.629c-0.015-0.067-0.02-0.135-0.016-0.202
		c-0.057-0.721-0.094-1.445-0.11-2.15c0-2.195,1.658-4.942,3.048-6.862c0.176-0.243,0.418-0.426,0.699-0.528
		c0.166-0.061,0.338-0.091,0.513-0.091c0.627,0,1.194,0.395,1.409,0.984l2.217,6.013c0.006,0.012,0.01,0.02,0.015,0.034
		c0.006,0.017,0.011,0.032,0.015,0.046l1.319,3.578l2.511-0.897c0.082-0.029,0.167-0.044,0.253-0.044c0.316,0,0.599,0.2,0.706,0.498
		c0.067,0.188,0.057,0.392-0.028,0.573c-0.086,0.181-0.237,0.318-0.426,0.385l-2.497,0.892l0.658,1.785l5.891-2.079
		c0.16-0.057,0.328-0.085,0.499-0.085c0.162,0,0.321,0.026,0.473,0.076c0.785,0.261,1.211,1.112,0.95,1.896l-0.229,0.688
		c-0.57,1.71-1.772,3.096-3.385,3.903l-0.777,0.388C17.488,19.688,17.372,19.716,17.256,19.716z M5.42,11.174
		c0.098,1.026,0.238,2.045,0.415,3.032l5.746-2.046l-1.068-2.896L5.42,11.174z M8.018,2.502C6.987,3.926,5.256,6.595,5.256,8.466
		C5.264,8.831,5.28,9.217,5.302,9.616l4.691-1.759L8.018,2.502z"/>
	<path d="M17.618,23.185c-0.818,0-1.612-0.243-2.297-0.703c-0.18-0.12-0.349-0.254-0.507-0.401c-0.76,0.704-1.767,1.101-2.818,1.101
		c-0.821,0-1.616-0.242-2.299-0.701c-0.182-0.122-0.353-0.257-0.512-0.405c-0.761,0.698-1.761,1.097-2.801,1.107
		c-1.052-0.01-2.057-0.41-2.819-1.111c-0.761,0.701-1.764,1.102-2.806,1.111c-0.417,0-0.753-0.333-0.757-0.743
		c-0.002-0.2,0.074-0.389,0.215-0.532s0.328-0.223,0.528-0.225c0.881-0.008,1.704-0.447,2.201-1.174
		c0.14-0.204,0.371-0.326,0.619-0.326c0.248,0,0.479,0.122,0.619,0.327c0.497,0.727,1.319,1.166,2.2,1.173
		c0.87-0.008,1.69-0.447,2.187-1.174c0.14-0.204,0.371-0.326,0.619-0.326c0.252,0.001,0.484,0.125,0.623,0.332
		c0.192,0.286,0.434,0.528,0.721,0.721c0.435,0.292,0.941,0.446,1.464,0.446c0.884,0,1.704-0.436,2.195-1.167
		c0.139-0.208,0.372-0.332,0.623-0.332c0.25,0,0.483,0.124,0.623,0.332c0.192,0.287,0.434,0.529,0.72,0.721
		c0.437,0.293,0.943,0.448,1.463,0.448c0.172,0,0.345-0.017,0.516-0.05c0.691-0.136,1.288-0.533,1.68-1.118
		c0.138-0.207,0.37-0.331,0.619-0.332c0.251,0,0.482,0.122,0.622,0.326c0.497,0.727,1.32,1.165,2.2,1.174
		c0.413,0.004,0.747,0.344,0.743,0.757c-0.004,0.414-0.334,0.74-0.751,0.743c-1.044-0.01-2.045-0.409-2.805-1.106
		c-0.561,0.524-1.251,0.877-2.019,1.028C18.157,23.158,17.886,23.185,17.618,23.185z"/>
</g>
</svg>
