<?xml version="1.0" encoding="utf-8"?>
<!-- Generator: Adobe Illustrator 22.1.0, SVG Export Plug-In . SVG Version: 6.00 Build 0)  -->
<svg version="1.1" id="Layer_1" xmlns="http://www.w3.org/2000/svg" xmlns:xlink="http://www.w3.org/1999/xlink" x="0px" y="0px"
	 viewBox="0 0 24 24" style="enable-background:new 0 0 24 24;" xml:space="preserve">
<title>navigation-smartphone</title>
<g>
	<path d="M8,24.013c-2.068,0-3.75-1.682-3.75-3.75v-16.5c0-2.068,1.682-3.75,3.75-3.75h7.5c2.068,0,3.75,1.682,3.75,3.75v16.5
		c0,2.068-1.682,3.75-3.75,3.75H8z M5.75,20.263c0,1.241,1.009,2.25,2.25,2.25h7.5c1.241,0,2.25-1.009,2.25-2.25v-0.75h-12V20.263z
		 M17.75,18.013V3.763c0-1.241-1.009-2.25-2.25-2.25H8c-1.241,0-2.25,1.009-2.25,2.25v14.25H17.75z"/>
	<path d="M9.5,15.013c-1.241,0-2.25-1.009-2.25-2.25c0-0.96,0.615-1.807,1.5-2.121V8.134c-0.885-0.314-1.5-1.162-1.5-2.121
		c0-1.241,1.009-2.25,2.25-2.25s2.25,1.009,2.25,2.25c0,0.96-0.615,1.808-1.5,2.121v2.507c0.885,0.314,1.5,1.161,1.5,2.121
		C11.75,14.004,10.741,15.013,9.5,15.013z M9.5,12.013c-0.414,0-0.75,0.336-0.75,0.75s0.336,0.75,0.75,0.75s0.75-0.336,0.75-0.75
		S9.914,12.013,9.5,12.013z M9.5,5.263c-0.414,0-0.75,0.336-0.75,0.75s0.336,0.75,0.75,0.75s0.75-0.336,0.75-0.75
		S9.914,5.263,9.5,5.263z"/>
	<path d="M14,6.763c-0.414,0-0.75-0.336-0.75-0.75s0.336-0.75,0.75-0.75h1.5c0.414,0,0.75,0.336,0.75,0.75s-0.336,0.75-0.75,0.75H14
		z"/>
	<path d="M14,13.513c-0.414,0-0.75-0.336-0.75-0.75s0.336-0.75,0.75-0.75h1.5c0.414,0,0.75,0.336,0.75,0.75s-0.336,0.75-0.75,0.75
		H14z"/>
</g>
</svg>
