<?xml version="1.0" encoding="utf-8"?>
<!-- Generator: Adobe Illustrator 22.1.0, SVG Export Plug-In . SVG Version: 6.00 Build 0)  -->
<svg version="1.1" id="Regular" xmlns="http://www.w3.org/2000/svg" xmlns:xlink="http://www.w3.org/1999/xlink" x="0px" y="0px"
	 viewBox="0 0 24 24" style="enable-background:new 0 0 24 24;" xml:space="preserve">
<title>night-moon-new-1</title>
<g>
	<path d="M7.746,23.962c-1.216,0-2.426-0.187-3.596-0.554c-0.314-0.099-0.525-0.386-0.525-0.715s0.211-0.617,0.525-0.715
		c4.396-1.384,7.349-5.409,7.35-10.018c-0.001-4.608-2.954-8.634-7.35-10.018C3.835,1.843,3.624,1.555,3.624,1.226
		c0-0.329,0.211-0.617,0.525-0.715c1.177-0.37,2.392-0.557,3.61-0.557c1.909,0,3.825,0.473,5.539,1.368
		c2.842,1.483,4.935,3.984,5.896,7.042c0.959,3.053,0.67,6.302-0.815,9.146c-1.485,2.845-3.984,4.939-7.037,5.898
		C10.171,23.775,8.961,23.962,7.746,23.962z M6.878,22.425c0.289,0.024,0.578,0.036,0.867,0.036c1.063,0,2.122-0.163,3.147-0.485
		c5.523-1.735,8.606-7.64,6.871-13.164c-0.841-2.676-2.673-4.864-5.159-6.162c-1.5-0.783-3.176-1.197-4.846-1.197
		c-0.294,0-0.589,0.013-0.883,0.038c3.756,2.101,6.123,6.087,6.124,10.468C12.999,16.339,10.633,20.324,6.878,22.425z"/>
</g>
</svg>
