<?xml version="1.0" encoding="utf-8"?>
<!-- Generator: Adobe Illustrator 22.1.0, SVG Export Plug-In . SVG Version: 6.00 Build 0)  -->
<svg version="1.1" id="Regular" xmlns="http://www.w3.org/2000/svg" xmlns:xlink="http://www.w3.org/1999/xlink" x="0px" y="0px"
	 viewBox="0 0 24 24" style="enable-background:new 0 0 24 24;" xml:space="preserve">
<title>night-stand-retro</title>
<g>
	<path d="M21.75,21.75c-0.2,0-0.389-0.078-0.53-0.22l-1.491-1.491c-0.88-0.802-2.037-1.264-3.245-1.29
		c-0.882,0-1.275,0.262-1.818,0.624c-0.585,0.39-1.314,0.876-2.666,0.876c-1.352,0-2.081-0.486-2.666-0.876
		C8.791,19.012,8.398,18.75,7.5,18.75c-1.195,0.025-2.349,0.487-3.241,1.302L2.78,21.53c-0.142,0.142-0.33,0.22-0.53,0.22
		s-0.389-0.078-0.53-0.22C1.578,21.389,1.5,21.2,1.5,21s0.078-0.389,0.22-0.53l1.256-1.256c-0.067-0.475-0.275-1.082-0.494-1.72
		C2.044,16.219,1.5,14.633,1.5,12.75c0.127-2.058,0.523-4.068,1.181-6H2.25C1.009,6.75,0,5.741,0,4.5s1.009-2.25,2.25-2.25h19.5
		C22.991,2.25,24,3.259,24,4.5s-1.009,2.25-2.25,2.25h-0.43c0.657,1.93,1.053,3.93,1.179,5.954c0.001,1.928-0.543,3.514-0.98,4.789
		c-0.219,0.639-0.428,1.245-0.495,1.721l1.256,1.256c0.142,0.142,0.22,0.33,0.22,0.53s-0.078,0.389-0.22,0.53
		S21.95,21.75,21.75,21.75z M7.492,17.25c1.36,0,2.089,0.486,2.674,0.876c0.543,0.362,0.936,0.624,1.834,0.624
		s1.291-0.262,1.834-0.624c0.585-0.39,1.314-0.876,2.666-0.876c1.151,0.024,2.252,0.342,3.221,0.925
		c0.105-0.37,0.239-0.759,0.377-1.163C20.522,15.776,21,14.382,21,12.75c-0.127-2.026-0.555-4.051-1.271-6H4.271
		c-0.716,1.951-1.144,3.984-1.272,6.046C3,14.382,3.478,15.775,3.9,17.005c0.14,0.406,0.274,0.797,0.379,1.169
		c0.968-0.583,2.065-0.9,3.205-0.924C7.487,17.25,7.49,17.25,7.492,17.25z M2.25,3.75C1.836,3.75,1.5,4.086,1.5,4.5
		s0.336,0.75,0.75,0.75h19.5c0.414,0,0.75-0.336,0.75-0.75s-0.336-0.75-0.75-0.75H2.25z"/>
	<path d="M6.75,15.75C6.336,15.75,6,15.414,6,15V9c0-0.414,0.336-0.75,0.75-0.75h10.5C17.664,8.25,18,8.586,18,9v6
		c0,0.414-0.336,0.75-0.75,0.75H6.75z M16.5,14.25v-4.5h-9v4.5H16.5z"/>
	<path d="M11.25,12.75c-0.414,0-0.75-0.336-0.75-0.75s0.336-0.75,0.75-0.75h1.5c0.414,0,0.75,0.336,0.75,0.75s-0.336,0.75-0.75,0.75
		H11.25z"/>
</g>
</svg>
