<?xml version="1.0" encoding="utf-8"?>
<!-- Generator: Adobe Illustrator 22.1.0, SVG Export Plug-In . SVG Version: 6.00 Build 0)  -->
<svg version="1.1" id="Regular" xmlns="http://www.w3.org/2000/svg" xmlns:xlink="http://www.w3.org/1999/xlink" x="0px" y="0px"
	 viewBox="0 0 24 24" style="enable-background:new 0 0 24 24;" xml:space="preserve">
<title>night-stand</title>
<g>
	<path d="M12,24c-2.942,0-5.865-0.32-8.02-0.877C1.339,22.439,0,21.473,0,20.25V3.75c0-1.223,1.339-2.189,3.98-2.873
		C6.135,0.32,9.058,0,12,0c2.942,0,5.865,0.32,8.02,0.877C22.661,1.561,24,2.527,24,3.75v4.5c0,1.223-1.339,2.189-3.98,2.873
		C17.865,11.68,14.942,12,12,12l-0.249,0.001c-1.923,0-3.856-0.154-5.751-0.459v6.767c0.759,0.378,2.771,1.192,6,1.192
		c0.414,0,0.75,0.336,0.75,0.75S12.414,21,12,21c-4.67,0-7.066-1.56-7.166-1.626C4.625,19.235,4.5,19.001,4.5,18.75v-8.1
		c0-0.224,0.099-0.434,0.271-0.577C4.905,9.962,5.076,9.9,5.251,9.9c0.045,0,0.09,0.004,0.135,0.012
		c2.09,0.391,4.232,0.588,6.367,0.588l0.242-0.001c2.946,0,5.703-0.303,7.767-0.853C22.035,9.04,22.5,8.391,22.5,8.25V5.699
		C20.136,7.019,15.492,7.5,12,7.5S3.864,7.02,1.5,5.699V20.25c0,0.653,3.679,2.25,10.5,2.25s10.5-1.597,10.5-2.25S18.821,18,12,18
		c-0.414,0-0.75-0.336-0.75-0.75S11.586,16.5,12,16.5c2.942,0,5.865,0.32,8.02,0.877c2.641,0.683,3.98,1.65,3.98,2.873
		s-1.339,2.189-3.98,2.873C17.865,23.68,14.942,24,12,24z M12,1.5c-2.941,0-5.698,0.303-7.762,0.853C1.965,2.96,1.5,3.609,1.5,3.75
		C1.5,4.403,5.179,6,12,6c2.941,0,5.698-0.303,7.762-0.853C22.035,4.54,22.5,3.891,22.5,3.75C22.5,3.097,18.821,1.5,12,1.5z"/>
</g>
</svg>
