<?xml version="1.0" encoding="utf-8"?>
<!-- Generator: Adobe Illustrator 22.1.0, SVG Export Plug-In . SVG Version: 6.00 Build 0)  -->
<svg version="1.1" id="Regular" xmlns="http://www.w3.org/2000/svg" xmlns:xlink="http://www.w3.org/1999/xlink" x="0px" y="0px"
	 viewBox="0 0 24 24" style="enable-background:new 0 0 24 24;" xml:space="preserve">
<title>non-gmo-fertilizer</title>
<g>
	<path d="M0.767,24.009c-0.2,0-0.389-0.078-0.53-0.22c-0.292-0.292-0.292-0.768,0-1.061l22.5-22.5c0.142-0.142,0.33-0.22,0.53-0.22
		s0.389,0.078,0.53,0.22c0.142,0.141,0.22,0.33,0.22,0.53s-0.078,0.389-0.22,0.53l-22.5,22.5
		C1.156,23.931,0.967,24.009,0.767,24.009z"/>
	<path d="M21.378,13.624c-0.961,0-1.809-0.649-2.061-1.578c-0.206-0.746-0.589-1.447-1.109-2.025
		c-0.134-0.149-0.202-0.341-0.191-0.541c0.011-0.2,0.099-0.384,0.248-0.518c0.138-0.124,0.316-0.192,0.501-0.192
		c0.212,0,0.416,0.091,0.558,0.248c0.675,0.75,1.173,1.66,1.441,2.632c0.076,0.279,0.328,0.473,0.614,0.473
		c0.056,0,0.112-0.008,0.167-0.022l0.046-0.012c0.388-0.105,0.623-0.516,0.516-0.915c-0.312-1.168-0.901-2.263-1.704-3.168
		c-0.133-0.15-0.2-0.342-0.188-0.542c0.012-0.2,0.101-0.383,0.251-0.516c0.137-0.122,0.313-0.189,0.497-0.189
		c0.215,0,0.42,0.092,0.562,0.253c0.956,1.078,1.658,2.383,2.03,3.776c0.32,1.196-0.393,2.432-1.588,2.754l-0.045,0.011
		C21.751,13.599,21.564,13.624,21.378,13.624z"/>
	<path d="M11.267,9.759c-0.414,0-0.75-0.336-0.75-0.75v-0.75h-2.25c-0.414,0-0.75-0.336-0.75-0.75v-3c0-0.414,0.336-0.75,0.75-0.75
		h3.75v-2.25h-3c-0.414,0-0.75-0.336-0.75-0.75s0.336-0.75,0.75-0.75h7.5c0.414,0,0.75,0.336,0.75,0.75s-0.336,0.75-0.75,0.75h-3
		v2.25h0.802c0.525,0,1.053,0.044,1.571,0.13c0.198,0.033,0.371,0.141,0.487,0.304c0.116,0.163,0.162,0.362,0.129,0.559
		c-0.06,0.363-0.371,0.627-0.739,0.627c-0.042,0-0.083-0.004-0.126-0.011c-0.435-0.073-0.881-0.11-1.323-0.11H9.017v1.5h2.25
		c0.414,0,0.75,0.336,0.75,0.75v1.5C12.017,9.422,11.68,9.759,11.267,9.759z"/>
	<path d="M7.919,13.509c-0.131,0-0.26-0.034-0.374-0.1c-0.174-0.101-0.298-0.262-0.35-0.456s-0.025-0.396,0.075-0.569
		c0.5-0.866,1.341-1.507,2.31-1.757c0.062-0.016,0.125-0.024,0.188-0.024c0.342,0,0.64,0.231,0.725,0.562
		c0.05,0.194,0.022,0.396-0.08,0.568s-0.265,0.295-0.458,0.345c-0.581,0.15-1.086,0.535-1.386,1.055
		C8.435,13.365,8.186,13.509,7.919,13.509z"/>
	<path d="M9.017,24.009c-1.241,0-2.25-1.009-2.25-2.25v-1.5c0-0.414,0.336-0.75,0.75-0.75s0.75,0.336,0.75,0.75v1.5
		c0,0.414,0.336,0.75,0.75,0.75h7.5c0.414,0,0.75-0.336,0.75-0.75v-7.5c0-0.646-0.278-1.261-0.762-1.688
		c-0.311-0.274-0.34-0.749-0.067-1.059c0.142-0.161,0.347-0.254,0.562-0.254c0.182,0,0.358,0.066,0.495,0.187
		c0.808,0.712,1.271,1.738,1.271,2.814v7.5c0,1.241-1.009,2.25-2.25,2.25H9.017z"/>
	<path d="M1.142,3.009c-0.044,0-0.088-0.004-0.131-0.012c-0.513-0.06-0.922-0.47-0.982-0.982C0.021,1.972,0.017,1.928,0.017,1.884
		s0.004-0.088,0.012-0.131c0.06-0.513,0.47-0.922,0.982-0.982c0.043-0.008,0.087-0.012,0.131-0.012S1.23,0.763,1.273,0.77
		c0.513,0.06,0.922,0.47,0.982,0.982C2.263,1.796,2.267,1.84,2.267,1.884S2.263,1.972,2.255,2.015
		c-0.06,0.513-0.47,0.922-0.982,0.982C1.23,3.005,1.186,3.009,1.142,3.009z"/>
	<path d="M1.142,6.759c-0.044,0-0.088-0.004-0.131-0.012c-0.513-0.06-0.922-0.47-0.982-0.982C0.021,5.722,0.017,5.678,0.017,5.634
		s0.004-0.088,0.012-0.131c0.06-0.513,0.47-0.922,0.982-0.982c0.043-0.008,0.087-0.012,0.131-0.012S1.23,4.513,1.273,4.52
		c0.513,0.06,0.922,0.47,0.982,0.982C2.263,5.546,2.267,5.59,2.267,5.634S2.263,5.722,2.255,5.765
		c-0.06,0.513-0.47,0.922-0.982,0.982C1.23,6.755,1.186,6.759,1.142,6.759z"/>
	<path d="M4.892,4.509c-0.044,0-0.088-0.004-0.131-0.012c-0.513-0.06-0.922-0.47-0.982-0.982C3.771,3.472,3.767,3.428,3.767,3.384
		s0.004-0.088,0.012-0.131c0.06-0.513,0.47-0.922,0.982-0.982c0.043-0.008,0.087-0.012,0.131-0.012S4.98,2.263,5.023,2.27
		c0.513,0.06,0.922,0.47,0.982,0.982C6.013,3.296,6.017,3.34,6.017,3.384S6.013,3.472,6.005,3.515
		c-0.06,0.513-0.47,0.922-0.982,0.982C4.98,4.505,4.936,4.509,4.892,4.509z"/>
	<path d="M4.892,9.009c-0.044,0-0.088-0.004-0.131-0.012c-0.513-0.06-0.922-0.47-0.982-0.982C3.771,7.972,3.767,7.928,3.767,7.884
		s0.004-0.088,0.012-0.131c0.06-0.513,0.47-0.922,0.982-0.982c0.043-0.008,0.087-0.012,0.131-0.012S4.98,6.763,5.023,6.77
		c0.513,0.06,0.922,0.47,0.982,0.982C6.013,7.796,6.017,7.84,6.017,7.884S6.013,7.972,6.005,8.015
		c-0.06,0.513-0.47,0.922-0.982,0.982C4.98,9.005,4.936,9.009,4.892,9.009z"/>
	<path d="M1.142,10.509c-0.044,0-0.088-0.004-0.131-0.012c-0.513-0.06-0.922-0.47-0.982-0.982C0.021,9.472,0.017,9.428,0.017,9.384
		s0.004-0.088,0.012-0.131c0.06-0.513,0.47-0.922,0.982-0.982c0.043-0.008,0.087-0.012,0.131-0.012S1.23,8.263,1.273,8.27
		c0.513,0.06,0.922,0.47,0.982,0.982C2.263,9.296,2.267,9.34,2.267,9.384S2.263,9.472,2.255,9.515
		c-0.06,0.513-0.47,0.922-0.982,0.982C1.23,10.505,1.186,10.509,1.142,10.509z"/>
</g>
</svg>
