<?xml version="1.0" encoding="utf-8"?>
<!-- Generator: Adobe Illustrator 22.1.0, SVG Export Plug-In . SVG Version: 6.00 Build 0)  -->
<svg version="1.1" id="Layer_1" xmlns="http://www.w3.org/2000/svg" xmlns:xlink="http://www.w3.org/1999/xlink" x="0px" y="0px"
	 viewBox="0 0 24 24" style="enable-background:new 0 0 24 24;" xml:space="preserve">
<title>office-file-txt</title>
<g>
	<path d="M17.998,20.248c-0.414,0-0.75-0.336-0.75-0.75v-6.75h-0.75c-0.414,0-0.75-0.336-0.75-0.75s0.336-0.75,0.75-0.75h3
		c0.414,0,0.75,0.336,0.75,0.75s-0.336,0.75-0.75,0.75h-0.75v6.75C18.748,19.912,18.412,20.248,17.998,20.248z"/>
	<path d="M5.998,20.248c-0.414,0-0.75-0.336-0.75-0.75v-6.75h-0.75c-0.414,0-0.75-0.336-0.75-0.75s0.336-0.75,0.75-0.75h3
		c0.414,0,0.75,0.336,0.75,0.75s-0.336,0.75-0.75,0.75h-0.75v6.75C6.748,19.912,6.412,20.248,5.998,20.248z"/>
	<path d="M13.498,20.248c-0.309,0-0.582-0.185-0.696-0.472l-0.804-2.009l-0.804,2.009c-0.114,0.287-0.388,0.472-0.696,0.472
		c-0.096,0-0.19-0.018-0.279-0.054c-0.186-0.074-0.332-0.217-0.41-0.401c-0.079-0.184-0.081-0.388-0.007-0.574l1.389-3.471
		l-1.389-3.471c-0.074-0.186-0.072-0.39,0.007-0.574c0.079-0.184,0.225-0.327,0.411-0.401c0.089-0.036,0.183-0.054,0.278-0.054
		c0.309,0,0.582,0.185,0.697,0.471l0.804,2.009l0.804-2.009c0.115-0.286,0.388-0.471,0.697-0.471c0.095,0,0.189,0.018,0.278,0.054
		c0.186,0.074,0.332,0.217,0.411,0.401c0.079,0.184,0.082,0.388,0.007,0.574l-1.389,3.471l1.389,3.472
		c0.074,0.186,0.072,0.39-0.007,0.574c-0.079,0.184-0.225,0.327-0.411,0.401C13.688,20.23,13.594,20.248,13.498,20.248z"/>
	<path d="M2.997,23.998c-1.652,0-2.998-1.345-2.999-2.998V3c-0.001-0.801,0.311-1.554,0.877-2.121
		c0.566-0.567,1.319-0.88,2.12-0.881h14.382c0.602,0,1.166,0.234,1.591,0.658l4.371,4.372c0.425,0.425,0.659,0.99,0.659,1.59V21
		c-0.002,1.652-1.346,2.996-2.997,2.998H2.997z M3,1.498c-0.403,0-0.781,0.157-1.064,0.44s-0.439,0.66-0.438,1.061V21
		c0.001,0.826,0.674,1.498,1.5,1.498H21c0.825-0.001,1.497-0.673,1.498-1.499V7.498h-3.75c-1.241,0-2.25-1.009-2.25-2.25v-3.75H3
		L3,1.498z M17.998,5.248c0,0.414,0.336,0.75,0.75,0.75h3.439l-4.189-4.19V5.248z"/>
</g>
</svg>
