<?xml version="1.0" encoding="utf-8"?>
<!-- Generator: Adobe Illustrator 22.1.0, SVG Export Plug-In . SVG Version: 6.00 Build 0)  -->
<svg version="1.1" id="Layer_1" xmlns="http://www.w3.org/2000/svg" xmlns:xlink="http://www.w3.org/1999/xlink" x="0px" y="0px"
	 viewBox="0 0 24 24" style="enable-background:new 0 0 24 24;" xml:space="preserve">
<title>office-file-adobe</title>
<g>
	<path d="M2.994,23.998c-1.241,0-2.25-1.009-2.25-2.25v-19.5c0-1.241,1.009-2.25,2.25-2.25h15c0.59,0,1.148,0.227,1.571,0.639
		l2.996,2.879c0.435,0.424,0.684,1.012,0.684,1.615v16.617c0,1.241-1.009,2.25-2.25,2.25H2.994z M2.994,1.498
		c-0.414,0-0.75,0.336-0.75,0.75v19.5c0,0.414,0.336,0.75,0.75,0.75h18c0.414,0,0.75-0.336,0.75-0.75V5.131
		c0-0.201-0.083-0.397-0.227-0.537l-2.996-2.879c-0.144-0.141-0.331-0.217-0.527-0.217H2.994z"/>
	<path d="M6.455,20.614c-0.386,0-0.71-0.111-0.965-0.329c-0.289-0.248-0.451-0.611-0.469-1.049c-0.089-1.63,0.519-3.932,3.885-5.695
		l0.02-0.261c0.063-0.62,0.101-1.242,0.115-1.859C8.079,10.5,7.154,9.529,6.288,8.532C6.272,8.513,6.256,8.493,6.241,8.472
		c-0.494-0.701-0.714-1.557-0.62-2.409c0.145-1.04,0.963-1.836,1.99-1.947c0.029-0.003,0.057-0.004,0.084-0.004
		C8.505,4.14,9.217,4.559,9.623,5.233c0.319,0.543,0.523,1.129,0.609,1.745c0.201,1.247,0.307,2.527,0.314,3.8
		c0.245,0.227,0.492,0.451,0.741,0.671c0.321,0.259,0.666,0.518,1.021,0.762c1.088-0.333,2.221-0.502,3.371-0.502
		c0.556,0,1.116,0.041,1.664,0.121c0.582,0.094,1.128,0.331,1.587,0.685c0.576,0.455,0.869,1.183,0.769,1.903
		c-0.004,0.036-0.013,0.075-0.025,0.114c-0.262,0.868-1.047,1.477-1.953,1.513l-0.098,0.001c-0.644,0-1.293-0.142-1.879-0.409
		c-1.28-0.454-2.507-1.049-3.651-1.77c-0.647,0.203-1.234,0.42-1.763,0.651c-0.149,1.59-0.438,3.229-1.386,4.575
		c-0.475,0.769-1.275,1.322-2.184,1.499c-0.028,0.005-0.047,0.008-0.065,0.01C6.616,20.609,6.534,20.614,6.455,20.614z
		 M8.721,15.376c-1.55,1.023-2.272,2.25-2.205,3.733C7,19.002,7.425,18.7,7.684,18.276l0.026-0.04
		C8.31,17.39,8.576,16.36,8.721,15.376z M14.166,13.324c0.681,0.35,1.387,0.654,2.11,0.909c0.025,0.009,0.047,0.018,0.068,0.028
		c0.398,0.186,0.836,0.284,1.268,0.284l0.064-0.001c0.235-0.009,0.45-0.165,0.542-0.39c0.006-0.176-0.073-0.348-0.211-0.458
		c-0.255-0.197-0.565-0.331-0.892-0.384c-0.467-0.068-0.951-0.104-1.433-0.104C15.174,13.209,14.667,13.247,14.166,13.324z
		 M10.472,12.84c0.035-0.013,0.07-0.027,0.105-0.04c-0.032-0.025-0.065-0.051-0.097-0.076C10.477,12.762,10.474,12.801,10.472,12.84
		z M7.447,7.579c0.495,0.569,1.011,1.129,1.54,1.675C8.938,8.567,8.859,7.88,8.75,7.204C8.689,6.766,8.55,6.367,8.335,6
		C8.204,5.784,7.976,5.641,7.72,5.615C7.403,5.672,7.155,5.928,7.11,6.25C7.059,6.709,7.178,7.183,7.447,7.579z"/>
</g>
</svg>
