<?xml version="1.0" encoding="utf-8"?>
<!-- Generator: Adobe Illustrator 22.1.0, SVG Export Plug-In . SVG Version: 6.00 Build 0)  -->
<svg version="1.1" id="Layer_1" xmlns="http://www.w3.org/2000/svg" xmlns:xlink="http://www.w3.org/1999/xlink" x="0px" y="0px"
	 viewBox="0 0 24 24" style="enable-background:new 0 0 24 24;" xml:space="preserve">
<title>office-file-text</title>
<g>
	<path d="M3,23.998c-1.241,0-2.25-1.009-2.25-2.25v-19.5c0-1.241,1.009-2.25,2.25-2.25h15c0.591,0,1.149,0.228,1.571,0.64
		l2.996,2.878c0.435,0.424,0.683,1.012,0.683,1.615v16.617c0,1.241-1.009,2.25-2.25,2.25H3z M3,1.498c-0.414,0-0.75,0.336-0.75,0.75
		v19.5c0,0.414,0.336,0.75,0.75,0.75h18c0.414,0,0.75-0.336,0.75-0.75V5.131c0-0.201-0.083-0.397-0.227-0.537l-2.996-2.878
		C18.383,1.575,18.196,1.498,18,1.498H3z"/>
	<path d="M7.5,11.998c-0.414,0-0.75-0.336-0.75-0.75s0.336-0.75,0.75-0.75h0.75v-4.5h-1.5v0.75c0,0.414-0.336,0.75-0.75,0.75
		s-0.75-0.336-0.75-0.75v-1.5c0-0.414,0.336-0.75,0.75-0.75h6c0.414,0,0.75,0.336,0.75,0.75v1.5c0,0.414-0.336,0.75-0.75,0.75
		s-0.75-0.336-0.75-0.75v-0.75h-1.5v4.5h0.75c0.414,0,0.75,0.336,0.75,0.75s-0.336,0.75-0.75,0.75H7.5z"/>
	<path d="M15.75,10.498c-0.414,0-0.75-0.336-0.75-0.75s0.336-0.75,0.75-0.75H18c0.414,0,0.75,0.336,0.75,0.75s-0.336,0.75-0.75,0.75
		H15.75z"/>
	<path d="M15.75,5.998c-0.414,0-0.75-0.336-0.75-0.75s0.336-0.75,0.75-0.75H18c0.414,0,0.75,0.336,0.75,0.75s-0.336,0.75-0.75,0.75
		H15.75z"/>
	<path d="M6,14.998c-0.414,0-0.75-0.336-0.75-0.75s0.336-0.75,0.75-0.75h12c0.414,0,0.75,0.336,0.75,0.75s-0.336,0.75-0.75,0.75H6z"
		/>
	<path d="M6,19.498c-0.414,0-0.75-0.336-0.75-0.75s0.336-0.75,0.75-0.75h12c0.414,0,0.75,0.336,0.75,0.75s-0.336,0.75-0.75,0.75H6z"
		/>
</g>
</svg>
