<?xml version="1.0" encoding="utf-8"?>
<!-- Generator: Adobe Illustrator 22.1.0, SVG Export Plug-In . SVG Version: 6.00 Build 0)  -->
<svg version="1.1" id="Layer_1" xmlns="http://www.w3.org/2000/svg" xmlns:xlink="http://www.w3.org/1999/xlink" x="0px" y="0px"
	 viewBox="0 0 24 24" style="enable-background:new 0 0 24 24;" xml:space="preserve">
<title>office-shelf-1</title>
<g>
	<path d="M21,23.998c-0.414,0-0.75-0.336-0.75-0.75v-2.25H3.75v2.25c0,0.414-0.336,0.75-0.75,0.75s-0.75-0.336-0.75-0.75v-2.25H1.5
		c-0.414,0-0.75-0.336-0.75-0.75s0.336-0.75,0.75-0.75h0.75v-9H1.5c-0.414,0-0.75-0.336-0.75-0.75s0.336-0.75,0.75-0.75h0.75v-8.25
		c0-0.414,0.336-0.75,0.75-0.75s0.75,0.336,0.75,0.75v8.25h1.5v-6c0-0.414,0.336-0.75,0.75-0.75h6c0.414,0,0.75,0.336,0.75,0.75v6
		h2.137c-0.068-0.073-0.121-0.159-0.156-0.255c-0.069-0.189-0.061-0.392,0.024-0.574l2.842-6.122
		c0.122-0.264,0.389-0.434,0.68-0.434c0.11,0,0.216,0.023,0.316,0.07l1.657,0.769V0.748c0-0.414,0.336-0.75,0.75-0.75
		s0.75,0.336,0.75,0.75v8.25h0.75c0.414,0,0.75,0.336,0.75,0.75s-0.336,0.75-0.75,0.75h-0.75v9h0.75c0.414,0,0.75,0.336,0.75,0.75
		s-0.336,0.75-0.75,0.75h-0.75v2.25C21.75,23.662,21.414,23.998,21,23.998z M20.25,19.498v-9h-2.069
		c-0.009,0.001-0.017,0.001-0.025,0.001c-0.008,0-0.016,0-0.024-0.001H3.75v9H6v-6c0-0.414,0.336-0.75,0.75-0.75h3
		c0.414,0,0.75,0.336,0.75,0.75v0.75H12v-0.75c0-0.414,0.336-0.75,0.75-0.75h3c0.414,0,0.75,0.336,0.75,0.75v6H20.25z M15,19.498
		v-5.25h-1.5v5.25H15z M12,19.498v-3.75h-1.5v3.75H12z M9,19.498v-5.25H7.5v5.25H9z M20.25,8.998V7.021l-0.918,1.977H20.25z
		 M11.25,8.998v-5.25h-1.5v5.25H11.25z M8.25,8.998v-5.25h-1.5v5.25H8.25z M17.792,8.753l2.21-4.762l-1.361-0.632l-2.21,4.762
		L17.792,8.753z"/>
</g>
</svg>
