<?xml version="1.0" encoding="utf-8"?>
<!-- Generator: Adobe Illustrator 22.1.0, SVG Export Plug-In . SVG Version: 6.00 Build 0)  -->
<svg version="1.1" id="Layer_1" xmlns="http://www.w3.org/2000/svg" xmlns:xlink="http://www.w3.org/1999/xlink" x="0px" y="0px"
	 viewBox="0 0 24 24" style="enable-background:new 0 0 24 24;" xml:space="preserve">
<title>office-employee</title>
<g>
	<path d="M0.75,24C0.336,24,0,23.664,0,23.25s0.336-0.75,0.75-0.75h4.385l-1.34-6.057c-0.113-0.502-0.013-1.036,0.276-1.466
		c0.29-0.445,0.787-0.72,1.327-0.731h13.189c0.552,0.011,1.053,0.288,1.348,0.741c0.283,0.421,0.383,0.954,0.27,1.458l-1.34,6.055
		h4.385c0.414,0,0.75,0.336,0.75,0.75S23.664,24,23.25,24H0.75z M17.329,22.5l1.412-6.381c0.024-0.106,0.003-0.216-0.056-0.304
		c-0.03-0.045-0.068-0.068-0.112-0.069H5.418c-0.036,0.002-0.074,0.025-0.097,0.059c-0.064,0.095-0.086,0.207-0.063,0.311
		L6.671,22.5H17.329z"/>
	<path d="M12,21c-1.241,0-2.25-1.009-2.25-2.25S10.759,16.5,12,16.5c1.241,0,2.25,1.009,2.25,2.25S13.241,21,12,21z M12,18
		c-0.414,0-0.75,0.336-0.75,0.75S11.586,19.5,12,19.5s0.75-0.336,0.75-0.75S12.414,18,12,18z"/>
	<path d="M12,9.75c-2.688,0-4.875-2.187-4.875-4.875c0-0.839,0.221-1.669,0.639-2.404C7.781,2.436,7.799,2.41,7.81,2.394
		C8.685,0.919,10.292,0,12,0c2.384,0,4.449,1.774,4.812,4.13c0.015,0.056,0.023,0.112,0.025,0.166
		c0.025,0.212,0.038,0.401,0.038,0.579C16.875,7.563,14.688,9.75,12,9.75z M8.73,4.037C8.66,4.31,8.625,4.59,8.625,4.875
		c0,1.861,1.514,3.375,3.375,3.375c1.694,0,3.101-1.255,3.339-2.883c-0.639,0.172-1.296,0.258-1.96,0.258
		C11.69,5.625,10.061,5.065,8.73,4.037z M9.439,2.684c1.093,0.92,2.509,1.441,3.935,1.441c0.63,0,1.245-0.095,1.838-0.282
		C14.768,2.468,13.467,1.5,12,1.5C11.013,1.5,10.078,1.937,9.439,2.684z"/>
	<path d="M7,13.5c-0.183,0-0.36-0.067-0.497-0.188c-0.31-0.274-0.339-0.749-0.065-1.059c0.2-0.226,0.416-0.442,0.641-0.641
		c1.356-1.2,3.102-1.861,4.917-1.861c2.13,0,4.159,0.912,5.566,2.502c0.133,0.15,0.199,0.343,0.187,0.543
		c-0.012,0.2-0.102,0.383-0.251,0.516C17.36,13.433,17.184,13.5,17,13.5c-0.215,0-0.42-0.092-0.562-0.253
		c-1.122-1.269-2.741-1.996-4.442-1.996c-1.448,0-2.841,0.527-3.923,1.485c-0.18,0.159-0.352,0.332-0.512,0.512
		C7.419,13.408,7.214,13.5,7,13.5L7,13.5z"/>
</g>
</svg>
