<?xml version="1.0" encoding="utf-8"?>
<!-- Generator: Adobe Illustrator 22.1.0, SVG Export Plug-In . SVG Version: 6.00 Build 0)  -->
<svg version="1.1" id="Layer_1" xmlns="http://www.w3.org/2000/svg" xmlns:xlink="http://www.w3.org/1999/xlink" x="0px" y="0px"
	 viewBox="0 0 24 24" style="enable-background:new 0 0 24 24;" xml:space="preserve">
<title>office-file-presentation</title>
<g>
	<path d="M2.998,23.998C1.346,23.998,0,22.653-0.001,21V3C-0.002,2.199,0.31,1.446,0.876,0.879c0.566-0.567,1.319-0.88,2.12-0.881
		h14.382c0.602,0,1.166,0.234,1.591,0.658l4.371,4.372c0.425,0.425,0.659,0.99,0.659,1.59V21c-0.002,1.653-1.347,2.998-2.999,2.998
		H2.998z M3,1.498c-0.402,0-0.78,0.157-1.063,0.44s-0.439,0.66-0.438,1.061V21c0.001,0.826,0.674,1.498,1.5,1.498H21
		c0.826,0,1.498-0.673,1.499-1.499V7.498h-3.75c-1.241,0-2.25-1.009-2.25-2.25v-3.75H3L3,1.498z M17.999,5.248
		c0,0.414,0.336,0.75,0.75,0.75h3.439l-4.189-4.19V5.248z"/>
	<path d="M14.999,20.248c-0.2,0-0.389-0.078-0.53-0.22l-1.72-1.72v1.189c0,0.414-0.336,0.75-0.75,0.75s-0.75-0.336-0.75-0.75v-1.189
		l-1.72,1.72c-0.142,0.142-0.33,0.22-0.53,0.22s-0.389-0.078-0.53-0.22c-0.292-0.292-0.292-0.768,0-1.061l2.78-2.78v-0.439h-3.75
		c-0.827,0-1.5-0.673-1.5-1.5v-6c0.002-0.826,0.675-1.498,1.5-1.498H15c0.414,0,0.75,0.336,0.75,0.75S15.414,8.25,15,8.25H7.5
		l-0.001,5.998h9v-4.5c0-0.414,0.336-0.75,0.75-0.75s0.75,0.336,0.75,0.75v4.5c0,0.827-0.673,1.5-1.5,1.5h-3.75v0.439l2.78,2.78
		c0.292,0.292,0.292,0.768,0,1.061C15.388,20.17,15.199,20.248,14.999,20.248z"/>
</g>
</svg>
