<?xml version="1.0" encoding="utf-8"?>
<!-- Generator: Adobe Illustrator 22.1.0, SVG Export Plug-In . SVG Version: 6.00 Build 0)  -->
<svg version="1.1" id="Layer_1" xmlns="http://www.w3.org/2000/svg" xmlns:xlink="http://www.w3.org/1999/xlink" x="0px" y="0px"
	 viewBox="0 0 24 24" style="enable-background:new 0 0 24 24;" xml:space="preserve">
<title>office-hole-puncher</title>
<g>
	<path d="M18.75,16.498c-0.414,0-0.75-0.336-0.75-0.75v-2.25h-1.596c-0.756,0-1.395-0.565-1.488-1.314l-0.5-4.029
		c-0.047-0.374-0.367-0.656-0.744-0.656H10.32c-0.377,0-0.697,0.283-0.744,0.657l-0.5,4.028c-0.093,0.75-0.733,1.315-1.488,1.315H6
		v2.25c0,0.414-0.336,0.75-0.75,0.75s-0.75-0.336-0.75-0.75v-2.25H3.865c-0.072,0-0.144-0.005-0.215-0.015
		c-0.817-0.117-1.387-0.878-1.27-1.697l1.01-7.068c0.262-1.834,1.857-3.219,3.71-3.22h9.8c1.85,0.006,3.441,1.39,3.703,3.22
		l1.01,7.068c0.01,0.074,0.015,0.143,0.015,0.213c0,0.401-0.156,0.778-0.44,1.061c-0.283,0.283-0.659,0.438-1.06,0.438H19.5v2.25
		C19.5,16.162,19.164,16.498,18.75,16.498z M13.672,5.998c1.132,0,2.092,0.848,2.232,1.971l0.5,4.03l3.723-0.001l-1.01-7.068
		c-0.157-1.098-1.111-1.928-2.22-1.932H7.1C5.988,2.999,5.032,3.829,4.874,4.93l-1.01,7.068l3.724,0l0.5-4.028
		c0.141-1.124,1.1-1.971,2.232-1.972H13.672z"/>
	<path d="M2.25,22.498c-1.241,0-2.25-1.009-2.25-2.25v-1.5c0-0.014,0.004-0.061,0.005-0.067c0.001-0.02,0.005-0.05,0.011-0.083
		c0.001-0.008,0.003-0.015,0.004-0.022l0.752-3.01c0.084-0.334,0.383-0.568,0.727-0.568c0.061,0,0.122,0.008,0.182,0.022
		c0.402,0.101,0.647,0.509,0.546,0.91l-0.517,2.068H22.29l-0.517-2.068c-0.1-0.401,0.144-0.809,0.545-0.91
		c0.06-0.015,0.121-0.022,0.182-0.022c0.345,0,0.644,0.234,0.728,0.568l0.75,3c0.002,0.009,0.004,0.019,0.006,0.029
		c0.006,0.027,0.01,0.065,0.013,0.104c0,0.001,0.001,0.003,0.001,0.003C23.999,18.716,24,18.731,24,18.748v1.5
		c0,1.241-1.009,2.25-2.25,2.25H2.25z M1.5,20.248c0,0.414,0.336,0.75,0.75,0.75h19.5c0.414,0,0.75-0.336,0.75-0.75v-0.75h-21
		V20.248z"/>
</g>
</svg>
