<?xml version="1.0" encoding="utf-8"?>
<!-- Generator: Adobe Illustrator 22.1.0, SVG Export Plug-In . SVG Version: 6.00 Build 0)  -->
<svg version="1.1" id="Layer_1" xmlns="http://www.w3.org/2000/svg" xmlns:xlink="http://www.w3.org/1999/xlink" x="0px" y="0px"
	 viewBox="0 0 24 24" style="enable-background:new 0 0 24 24;" xml:space="preserve">
<title>office-file-module-edit-alternate</title>
<g>
	<path d="M6.249,17.999c-0.965,0-1.75-0.785-1.75-1.75v-2.5c0-0.965,0.785-1.75,1.75-1.75h2.5c0.965,0,1.75,0.785,1.75,1.75v2.5
		c0,0.965-0.785,1.75-1.75,1.75H6.249z M6.249,13.499c-0.138,0-0.25,0.112-0.25,0.25v2.5c0,0.138,0.112,0.25,0.25,0.25h2.5
		c0.138,0,0.25-0.112,0.25-0.25v-2.5c0-0.138-0.112-0.25-0.25-0.25H6.249z"/>
	<path d="M9.249,10.499c-0.965,0-1.75-0.785-1.75-1.75v-2.5c0-0.965,0.785-1.75,1.75-1.75h4c0.965,0,1.75,0.785,1.75,1.75v2.5
		c0,0.965-0.785,1.75-1.75,1.75H9.249z M9.249,5.999c-0.138,0-0.25,0.112-0.25,0.25v2.5c0,0.138,0.112,0.25,0.25,0.25h4
		c0.138,0,0.25-0.112,0.25-0.25v-2.5c0-0.138-0.112-0.25-0.25-0.25H9.249z"/>
	<path d="M14.249,17.999c-1.241,0-2.25-1.009-2.25-2.25v-1.5c0-1.241,1.009-2.25,2.25-2.25h1.5c1.241,0,2.25,1.009,2.25,2.25
		c0,0.414-0.336,0.75-0.75,0.75s-0.75-0.336-0.75-0.75s-0.336-0.75-0.75-0.75h-1.5c-0.414,0-0.75,0.336-0.75,0.75v1.5
		c0,0.414,0.336,0.75,0.75,0.75s0.75,0.336,0.75,0.75S14.663,17.999,14.249,17.999z"/>
	<path d="M15.749,23.999c-0.2,0-0.389-0.078-0.53-0.22c-0.178-0.178-0.255-0.431-0.205-0.677l0.506-2.529
		c0.029-0.146,0.1-0.279,0.206-0.384l4.552-4.551C20.688,15.226,21.236,15,21.819,15c0.583,0,1.13,0.226,1.541,0.637
		c0.851,0.85,0.851,2.234,0.002,3.084l-4.553,4.552c-0.104,0.105-0.238,0.176-0.384,0.205l-2.528,0.506
		C15.847,23.994,15.798,23.999,15.749,23.999z M16.705,22.293l1.203-0.241l4.391-4.391c0.265-0.265,0.265-0.697,0-0.962
		c-0.128-0.128-0.299-0.199-0.481-0.199s-0.353,0.071-0.481,0.199l-4.391,4.391L16.705,22.293z"/>
	<path d="M2.249,23.999c-1.241,0-2.25-1.009-2.25-2.25v-19.5c0-1.241,1.009-2.25,2.25-2.25h15c0.591,0,1.149,0.227,1.572,0.639
		l2.996,2.879c0.435,0.425,0.683,1.012,0.683,1.615v7.617c0,0.414-0.336,0.75-0.75,0.75s-0.75-0.336-0.75-0.75V5.132
		c0-0.201-0.082-0.397-0.226-0.537l-2.996-2.879c-0.144-0.141-0.331-0.217-0.527-0.217H2.249c-0.414,0-0.75,0.336-0.75,0.75v19.5
		c0,0.414,0.336,0.75,0.75,0.75h10.5c0.414,0,0.75,0.336,0.75,0.75s-0.336,0.75-0.75,0.75H2.249z"/>
</g>
</svg>
