<?xml version="1.0" encoding="utf-8"?>
<!-- Generator: Adobe Illustrator 22.1.0, SVG Export Plug-In . SVG Version: 6.00 Build 0)  -->
<svg version="1.1" id="Layer_1" xmlns="http://www.w3.org/2000/svg" xmlns:xlink="http://www.w3.org/1999/xlink" x="0px" y="0px"
	 viewBox="0 0 24 24" style="enable-background:new 0 0 24 24;" xml:space="preserve">
<title>office-tape</title>
<g>
	<path d="M5.25,20.623c-2.895,0-5.25-2.355-5.25-5.25v-4.5c0-1.241,1.009-2.25,2.25-2.25h1.119c0.917,0.002,1.74,0.568,2.08,1.402
		l11.08-3.47c0.01-0.003,0.024-0.007,0.038-0.01c0.345-0.114,0.701-0.172,1.057-0.172C19.486,6.373,21,7.887,21,9.748
		s-1.514,3.375-3.375,3.375s-3.375-1.514-3.375-3.375c0-0.323,0.047-0.642,0.138-0.95l-8.515,2.667l0.177,0.622
		c0.302,1.055,1.28,1.792,2.377,1.792c0,0,0.002,0,0.002,0c1.235,0,2.288-0.923,2.45-2.148c0.049-0.372,0.368-0.652,0.743-0.652
		c0.033,0,0.066,0.002,0.1,0.007c0.409,0.054,0.698,0.432,0.645,0.841c-0.26,1.968-1.952,3.452-3.937,3.452c0,0-0.002,0-0.003,0
		c-1.763,0-3.334-1.184-3.819-2.879l-0.521-1.827c-0.091-0.323-0.387-0.548-0.721-0.549H2.25c-0.414,0-0.75,0.336-0.75,0.75v4.5
		c0,2.068,1.682,3.75,3.75,3.75h15c1.241,0,2.25-1.009,2.25-2.25v-7.1c-0.001-2.701-2.199-4.899-4.9-4.9
		c-1.054,0-2.057,0.33-2.904,0.954c-0.13,0.096-0.283,0.146-0.445,0.146c-0.238,0-0.463-0.114-0.604-0.305
		c-0.119-0.161-0.168-0.359-0.138-0.557c0.03-0.198,0.135-0.373,0.297-0.491c1.106-0.815,2.417-1.246,3.791-1.246
		c3.531,0.001,6.402,2.872,6.403,6.4v7.1c0,2.068-1.682,3.75-3.75,3.75H5.25z M17.625,7.873c-1.034,0-1.875,0.841-1.875,1.875
		s0.841,1.875,1.875,1.875S19.5,10.782,19.5,9.748S18.659,7.873,17.625,7.873z"/>
</g>
</svg>
