<?xml version="1.0" encoding="utf-8"?>
<!-- Generator: Adobe Illustrator 22.1.0, SVG Export Plug-In . SVG Version: 6.00 Build 0)  -->
<svg version="1.1" id="Layer_1" xmlns="http://www.w3.org/2000/svg" xmlns:xlink="http://www.w3.org/1999/xlink" x="0px" y="0px"
	 viewBox="0 0 24 24" style="enable-background:new 0 0 24 24;" xml:space="preserve">
<title>office-file-glue-alternate</title>
<g>
	<path d="M4.5,14.999c-0.414,0-0.75-0.336-0.75-0.75s0.336-0.75,0.75-0.75h6.75c0.414,0,0.75,0.336,0.75,0.75s-0.336,0.75-0.75,0.75
		H4.5z"/>
	<path d="M4.5,19.499c-0.414,0-0.75-0.336-0.75-0.75s0.336-0.75,0.75-0.75H9c0.414,0,0.75,0.336,0.75,0.75s-0.336,0.75-0.75,0.75
		H4.5z"/>
	<path d="M4.5,10.499c-0.414,0-0.75-0.336-0.75-0.75s0.336-0.75,0.75-0.75h12c0.414,0,0.75,0.336,0.75,0.75s-0.336,0.75-0.75,0.75
		H4.5z"/>
	<path d="M10.5,23.999c-0.297,0-0.567-0.176-0.687-0.448c-0.12-0.273-0.067-0.59,0.134-0.809l2.924-3.183l-0.022-0.022
		c-0.585-0.585-0.585-1.536-0.001-2.121l2.064-2.063c0.078-0.079,0.168-0.149,0.266-0.209l5.246-3.338
		c0.242-0.155,0.522-0.238,0.808-0.238c0.397,0,0.773,0.156,1.057,0.439l1.271,1.271c0.493,0.495,0.578,1.281,0.201,1.868
		l-3.34,5.256c-0.055,0.088-0.12,0.171-0.192,0.245l-2.077,2.072c-0.283,0.283-0.659,0.439-1.059,0.439
		c-0.401,0-0.777-0.156-1.06-0.438l-0.001-0.001l-1.061,1.06c-0.14,0.14-0.333,0.22-0.53,0.22H10.5z M14.129,22.499l0.841-0.841
		l-1.038-1.038l-1.725,1.878H14.129z M15.973,16.416l-2.063,2.061l3.182,3.182c0,0,0.001-0.001,0.001-0.001l2.064-2.06l3.339-5.259
		l-1.266-1.269L15.973,16.416z"/>
	<path d="M3,23.999c-1.653,0-2.999-1.345-3-2.999V3c0-0.801,0.311-1.554,0.878-2.121c0.566-0.567,1.32-0.879,2.121-0.88h14.38
		C17.98,0,18.545,0.234,18.97,0.659l4.372,4.371C23.766,5.455,24,6.02,24,6.621v3.128c0,0.414-0.336,0.75-0.75,0.75
		s-0.75-0.336-0.75-0.75v-2.25h-3.75c-1.241,0-2.25-1.009-2.25-2.25v-3.75H3c-0.401,0-0.778,0.156-1.061,0.44
		C1.656,2.222,1.5,2.599,1.5,3v18c0,0.826,0.673,1.499,1.5,1.499h4.5c0.414,0,0.75,0.336,0.75,0.75s-0.336,0.75-0.75,0.75H3z
		 M18,5.249c0,0.414,0.336,0.75,0.75,0.75h3.439L18,1.811V5.249z"/>
</g>
</svg>
