<?xml version="1.0" encoding="utf-8"?>
<!-- Generator: Adobe Illustrator 22.1.0, SVG Export Plug-In . SVG Version: 6.00 Build 0)  -->
<svg version="1.1" id="Layer_1" xmlns="http://www.w3.org/2000/svg" xmlns:xlink="http://www.w3.org/1999/xlink" x="0px" y="0px"
	 viewBox="0 0 24 24" style="enable-background:new 0 0 24 24;" xml:space="preserve">
<title>office-table-cabinets</title>
<g>
	<path d="M6,24c-0.414,0-0.75-0.336-0.75-0.75S5.586,22.5,6,22.5h0.75v-3.75h-1.5c-0.414,0-0.75-0.336-0.75-0.75
		s0.336-0.75,0.75-0.75h3.294c0.663-0.002,1.204-0.544,1.206-1.209v-4.53c0-0.414,0.336-0.75,0.75-0.75s0.75,0.336,0.75,0.75v4.532
		c-0.004,1.488-1.217,2.702-2.704,2.707H8.25v3.75H9c0.414,0,0.75,0.336,0.75,0.75S9.414,24,9,24H6z"/>
	<path d="M0.75,24C0.336,24,0,23.664,0,23.25v-8.772c0.003-0.95,0.777-1.725,1.726-1.728h5.383c0.414,0,0.75,0.336,0.75,0.75
		s-0.336,0.75-0.75,0.75H1.728c-0.125,0-0.228,0.104-0.228,0.23v8.77C1.5,23.664,1.164,24,0.75,24z"/>
	<path d="M17.464,24c-0.949-0.009-1.716-0.783-1.714-1.727V14.25H13.5c-0.414,0-0.75-0.336-0.75-0.75s0.336-0.75,0.75-0.75h2.25V9
		h-15C0.336,9,0,8.664,0,8.25v-7.5C0,0.336,0.336,0,0.75,0h21.536C23.237,0.01,24.004,0.786,24,1.731v20.544
		c0.002,0.942-0.764,1.716-1.707,1.725c-0.001,0-0.002,0-0.003,0H17.464z M17.25,22.275c0,0.124,0.099,0.224,0.221,0.225h4.815
		c0.115-0.001,0.214-0.103,0.214-0.223V14.25h-5.25V22.275z M22.5,12.75V1.728c0-0.125-0.099-0.227-0.222-0.228H17.25v11.25H22.5z
		 M15.75,7.5v-6h-6v6H15.75z M8.25,7.5v-6H1.5v6H8.25z"/>
	<circle cx="4.125" cy="4.875" r="1.125"/>
	<circle cx="12.375" cy="4.875" r="1.125"/>
	<circle cx="19.875" cy="10.125" r="1.125"/>
	<circle cx="19.875" cy="19.875" r="1.125"/>
</g>
</svg>
