<?xml version="1.0" encoding="utf-8"?>
<!-- Generator: Adobe Illustrator 22.1.0, SVG Export Plug-In . SVG Version: 6.00 Build 0)  -->
<svg version="1.1" id="Layer_1" xmlns="http://www.w3.org/2000/svg" xmlns:xlink="http://www.w3.org/1999/xlink" x="0px" y="0px"
	 viewBox="0 0 24 24" style="enable-background:new 0 0 24 24;" xml:space="preserve">
<title>office-business-card</title>
<g>
	<path d="M1.728,22.873c-0.947,0-1.721-0.769-1.728-1.715V6.594c0.006-0.95,0.781-1.721,1.727-1.721H3v-0.75c0-1.654,1.346-3,3-3
		s3,1.346,3,3v6.75c0,1.241-1.009,2.25-2.25,2.25s-2.25-1.009-2.25-2.25v-2.25c0-0.414,0.336-0.75,0.75-0.75S6,8.209,6,8.623v2.25
		c0,0.414,0.336,0.75,0.75,0.75s0.75-0.336,0.75-0.75v-6.75c0-0.827-0.673-1.5-1.5-1.5s-1.5,0.673-1.5,1.5v0.75h0.75
		C5.664,4.873,6,5.209,6,5.623s-0.336,0.75-0.75,0.75H1.728c-0.125,0-0.227,0.101-0.228,0.226v14.554
		c0.001,0.118,0.105,0.22,0.227,0.22h20.545c0.125,0,0.227-0.101,0.228-0.225V6.594c-0.001-0.119-0.105-0.221-0.227-0.221H11.25
		c-0.414,0-0.75-0.336-0.75-0.75s0.336-0.75,0.75-0.75h11.022c0.948,0,1.722,0.77,1.728,1.716v14.564
		c-0.007,0.95-0.781,1.72-1.727,1.72H1.728z"/>
	<path d="M12,13.123c-0.414,0-0.75-0.336-0.75-0.75s0.336-0.75,0.75-0.75h8.25c0.414,0,0.75,0.336,0.75,0.75s-0.336,0.75-0.75,0.75
		H12z"/>
	<path d="M6.75,17.623c-0.414,0-0.75-0.336-0.75-0.75s0.336-0.75,0.75-0.75h13.5c0.414,0,0.75,0.336,0.75,0.75
		s-0.336,0.75-0.75,0.75H6.75z"/>
</g>
</svg>
