<?xml version="1.0" encoding="utf-8"?>
<!-- Generator: Adobe Illustrator 22.1.0, SVG Export Plug-In . SVG Version: 6.00 Build 0)  -->
<svg version="1.1" id="Layer_1" xmlns="http://www.w3.org/2000/svg" xmlns:xlink="http://www.w3.org/1999/xlink" x="0px" y="0px"
	 viewBox="0 0 24 24" style="enable-background:new 0 0 24 24;" xml:space="preserve">
<title>office-file-pdf</title>
<g>
	<path d="M4.499,20.248c-0.414,0-0.75-0.336-0.75-0.75v-7.5c0-0.414,0.336-0.75,0.75-0.75c0.01,0,0.025,0.001,0.038,0.002H5.25
		c1.654,0,3,1.346,3,3s-1.346,3-3,3H5.249v2.248C5.249,19.912,4.913,20.248,4.499,20.248z M5.25,15.75c0.827,0,1.5-0.673,1.5-1.5
		s-0.673-1.5-1.5-1.5H5.249L5.25,15.75L5.25,15.75z"/>
	<path d="M10.5,20.25c-0.414,0-0.75-0.336-0.75-0.75V12c0-0.414,0.336-0.75,0.75-0.75c2.068,0,3.75,1.682,3.75,3.75v1.5
		C14.25,18.568,12.568,20.25,10.5,20.25z M11.25,18.621c0.879-0.313,1.5-1.159,1.5-2.121V15c0-0.962-0.621-1.808-1.5-2.121V18.621z"
		/>
	<path d="M16.5,20.25c-0.414,0-0.75-0.336-0.75-0.75v-2.976c-0.001-0.009-0.001-0.018-0.001-0.026s0-0.017,0.001-0.026V13.5
		c0-1.241,1.009-2.25,2.25-2.25h1.5c0.414,0,0.75,0.336,0.75,0.75s-0.336,0.75-0.75,0.75H18c-0.414,0-0.75,0.336-0.75,0.75v2.248
		h1.499c0.414,0,0.75,0.336,0.75,0.75s-0.336,0.75-0.75,0.75H17.25V19.5C17.25,19.914,16.914,20.25,16.5,20.25z"/>
	<path d="M2.998,23.998C1.346,23.998,0,22.653-0.001,21V3C-0.002,2.199,0.31,1.446,0.876,0.879c0.566-0.567,1.319-0.88,2.12-0.881
		h14.381c0.602,0,1.166,0.234,1.591,0.658l4.371,4.372c0.425,0.425,0.659,0.989,0.66,1.59V21c-0.002,1.653-1.347,2.998-2.999,2.998
		H2.998z M3,1.498c-0.402,0-0.78,0.157-1.063,0.44s-0.439,0.66-0.438,1.061V21c0.001,0.826,0.674,1.498,1.5,1.498H21
		c0.826,0,1.498-0.673,1.499-1.499V7.498h-3.75c-1.241,0-2.25-1.009-2.25-2.25v-3.75H3L3,1.498z M17.999,5.248
		c0,0.414,0.336,0.75,0.75,0.75h3.438l-4.188-4.189V5.248z"/>
</g>
</svg>
