<?xml version="1.0" encoding="utf-8"?>
<!-- Generator: Adobe Illustrator 22.1.0, SVG Export Plug-In . SVG Version: 6.00 Build 0)  -->
<svg version="1.1" id="Layer_1" xmlns="http://www.w3.org/2000/svg" xmlns:xlink="http://www.w3.org/1999/xlink" x="0px" y="0px"
	 viewBox="0 0 24 24" style="enable-background:new 0 0 24 24;" xml:space="preserve">
<title>office-file-rtf-1</title>
<g>
	<path d="M2.249,23.998c-1.241,0-2.25-1.009-2.25-2.25v-19.5c0-1.241,1.009-2.25,2.25-2.25h10.629c0.602,0,1.166,0.234,1.591,0.658
		l5.871,5.872c0.425,0.425,0.659,0.99,0.659,1.59v4.629c0,0.414-0.336,0.75-0.75,0.75s-0.75-0.336-0.75-0.75v-3.75h-5.25
		c-1.241,0-2.25-1.009-2.25-2.25v-5.25h-9.75c-0.414,0-0.75,0.336-0.75,0.75v19.5c0,0.414,0.336,0.75,0.75,0.75h3
		c0.414,0,0.75,0.336,0.75,0.75s-0.336,0.75-0.75,0.75H2.249z M13.499,6.748c0,0.414,0.336,0.75,0.75,0.75h4.939l-5.689-5.69V6.748z
		"/>
	<path d="M15.749,23.998c-0.414,0-0.75-0.336-0.75-0.75v-6.75h-0.75c-0.414,0-0.75-0.336-0.75-0.75s0.336-0.75,0.75-0.75h3
		c0.414,0,0.75,0.336,0.75,0.75s-0.336,0.75-0.75,0.75h-0.75v6.75C16.499,23.662,16.163,23.998,15.749,23.998z"/>
	<path d="M20.249,23.998c-0.414,0-0.75-0.336-0.75-0.75v-6c0-1.241,1.009-2.25,2.25-2.25h1.5c0.414,0,0.75,0.336,0.75,0.75
		s-0.336,0.75-0.75,0.75h-1.5c-0.414,0-0.75,0.336-0.75,0.75v2.25h1.5c0.414,0,0.75,0.336,0.75,0.75s-0.336,0.75-0.75,0.75h-1.5
		v2.25C20.999,23.662,20.663,23.998,20.249,23.998z"/>
	<path d="M11.249,23.998c-0.262,0-0.509-0.14-0.643-0.364l-1.607-2.678v2.292c0,0.414-0.336,0.75-0.75,0.75s-0.75-0.336-0.75-0.75
		v-7.5c0-0.414,0.336-0.75,0.75-0.75h1.125c1.447,0,2.625,1.177,2.625,2.625c0,1.134-0.728,2.119-1.764,2.478l1.657,2.761
		c0.103,0.172,0.133,0.373,0.084,0.568s-0.17,0.358-0.342,0.461C11.519,23.961,11.385,23.998,11.249,23.998z M9.374,18.748
		c0.62,0,1.125-0.505,1.125-1.125s-0.505-1.125-1.125-1.125H8.999v2.25H9.374z"/>
</g>
</svg>
