<?xml version="1.0" encoding="utf-8"?>
<!-- Generator: Adobe Illustrator 22.1.0, SVG Export Plug-In . SVG Version: 6.00 Build 0)  -->
<svg version="1.1" id="Layer_1" xmlns="http://www.w3.org/2000/svg" xmlns:xlink="http://www.w3.org/1999/xlink" x="0px" y="0px"
	 viewBox="0 0 24 24" style="enable-background:new 0 0 24 24;" xml:space="preserve">
<title>office-file-pps</title>
<g>
	<path d="M4.502,20.248c-0.414,0-0.75-0.336-0.75-0.75v-2.96C3.751,16.524,3.75,16.51,3.75,16.5c0-0.014,0.001-0.027,0.002-0.04
		v-4.422C3.751,12.024,3.75,12.01,3.75,12c0-0.201,0.079-0.39,0.221-0.532c0.141-0.141,0.329-0.22,0.531-0.22
		c0.01,0,0.025,0.001,0.038,0.002h0.71c1.654,0,3,1.346,3,3c0,1.654-1.345,2.999-2.998,3v2.248
		C5.252,19.912,4.916,20.248,4.502,20.248z M5.252,15.75c0.826-0.001,1.498-0.674,1.498-1.5s-0.672-1.499-1.498-1.5V15.75z"/>
	<path d="M10.502,20.248c-0.414,0-0.75-0.336-0.75-0.75v-2.96C9.751,16.524,9.75,16.51,9.75,16.5c0-0.014,0.001-0.027,0.002-0.04
		v-4.422C9.751,12.024,9.75,12.01,9.75,12c0-0.201,0.079-0.39,0.221-0.532c0.141-0.141,0.329-0.22,0.531-0.22
		c0.01,0,0.025,0.001,0.038,0.002h0.71c1.654,0,3,1.346,3,3c0,1.654-1.345,2.999-2.998,3v2.248
		C11.252,19.912,10.916,20.248,10.502,20.248z M11.252,15.75c0.826-0.001,1.498-0.674,1.498-1.5s-0.672-1.499-1.498-1.5V15.75z"/>
	<path d="M16.5,20.25c-0.414,0-0.75-0.336-0.75-0.75s0.336-0.75,0.75-0.75H18c0.414,0,0.75-0.336,0.75-0.75
		c0-0.715-0.434-1.075-1.2-1.65c-0.802-0.602-1.8-1.35-1.8-2.85c0-1.241,1.009-2.25,2.25-2.25h1.5c0.414,0,0.75,0.336,0.75,0.75
		s-0.336,0.75-0.75,0.75H18c-0.414,0-0.75,0.336-0.75,0.75c0,0.715,0.434,1.075,1.2,1.65c0.802,0.602,1.8,1.35,1.8,2.85
		c0,1.241-1.009,2.25-2.25,2.25H16.5z"/>
	<path d="M3,23.998C1.348,23.996,0.003,22.652,0.002,21V3C0.001,2.199,0.313,1.446,0.879,0.879c0.566-0.567,1.319-0.88,2.12-0.881
		h14.382c0.602,0,1.166,0.234,1.591,0.658l4.371,4.372c0.425,0.425,0.659,0.99,0.659,1.59V21c-0.001,1.653-1.347,2.998-3,2.998H3z
		 M3,1.498c-0.401,0-0.777,0.157-1.06,0.44s-0.439,0.66-0.438,1.061V21c0.001,0.825,0.673,1.497,1.499,1.498H21
		c0.402,0,0.779-0.156,1.062-0.438c0.283-0.283,0.44-0.659,0.44-1.06V7.498h-3.75c-1.241,0-2.25-1.009-2.25-2.25v-3.75H3L3,1.498z
		 M18.002,5.248c0,0.414,0.336,0.75,0.75,0.75h3.439l-4.189-4.19V5.248z"/>
</g>
</svg>
