<?xml version="1.0" encoding="utf-8"?>
<!-- Generator: Adobe Illustrator 22.1.0, SVG Export Plug-In . SVG Version: 6.00 Build 0)  -->
<svg version="1.1" id="Layer_1" xmlns="http://www.w3.org/2000/svg" xmlns:xlink="http://www.w3.org/1999/xlink" x="0px" y="0px"
	 viewBox="0 0 24 24" style="enable-background:new 0 0 24 24;" xml:space="preserve">
<title>office-printer</title>
<g>
	<path d="M1.728,23.998C0.775,23.998,0,23.223,0,22.27V7.5c0-1.241,1.009-2.25,2.25-2.25h1.384l17.445-5.22
		c0.069-0.021,0.142-0.032,0.215-0.032c0.328,0,0.624,0.22,0.719,0.534c0.058,0.193,0.037,0.396-0.058,0.572
		c-0.095,0.176-0.253,0.305-0.445,0.362L8.866,5.25H21.75C22.991,5.25,24,6.259,24,7.5v0.75c0,1.241-1.009,2.25-2.25,2.25
		l-7.5-0.001v4.499h2.875l1.755-1.345c0.13-0.1,0.292-0.155,0.456-0.155h2.935c0.463,0,0.897,0.18,1.223,0.507
		C23.821,14.332,24,14.766,24,15.227v7.042c0,0.953-0.775,1.728-1.728,1.728H1.728z M1.5,22.27c0,0.126,0.102,0.228,0.228,0.228
		h20.544c0.126,0,0.228-0.102,0.228-0.228v-1.272h-21V22.27z M22.5,19.498v-4.271c0-0.062-0.023-0.118-0.067-0.162
		s-0.099-0.067-0.161-0.067h-2.681l-1.755,1.345c-0.13,0.1-0.292,0.155-0.456,0.155h-5.869c-0.414,0-0.75-0.336-0.75-0.75
		s0.336-0.75,0.75-0.75h1.239v-4.499L1.5,10.498v9H22.5z M21.75,9c0.414,0,0.75-0.336,0.75-0.75V7.5c0-0.414-0.336-0.75-0.75-0.75
		H2.25C1.836,6.75,1.5,7.086,1.5,7.5v1.498l11.971,0.001c0.01-0.001,0.021-0.001,0.029-0.001c0.01,0,0.021,0,0.032,0.001L21.75,9z"
		/>
	<path d="M3.75,15.748c-0.414,0-0.75-0.336-0.75-0.75v-2.25c0-0.414,0.336-0.75,0.75-0.75s0.75,0.336,0.75,0.75v2.25
		C4.5,15.411,4.164,15.748,3.75,15.748z"/>
	<path d="M6.75,15.748c-0.414,0-0.75-0.336-0.75-0.75v-2.25c0-0.414,0.336-0.75,0.75-0.75s0.75,0.336,0.75,0.75v2.25
		C7.5,15.411,7.164,15.748,6.75,15.748z"/>
</g>
</svg>
