<?xml version="1.0" encoding="utf-8"?>
<!-- Generator: Adobe Illustrator 22.1.0, SVG Export Plug-In . SVG Version: 6.00 Build 0)  -->
<svg version="1.1" id="Layer_1" xmlns="http://www.w3.org/2000/svg" xmlns:xlink="http://www.w3.org/1999/xlink" x="0px" y="0px"
	 viewBox="0 0 24 24" style="enable-background:new 0 0 24 24;" xml:space="preserve">
<title>office-drawing-board</title>
<g>
	<path d="M19.125,24c-0.414,0-0.75-0.336-0.75-0.75s0.336-0.75,0.75-0.75h0.75V8.884l-1.183,3.156
		c-0.327,0.873-1.173,1.461-2.106,1.461H3.376c-0.83-0.004-1.501-0.68-1.498-1.508c0.001-0.179,0.033-0.353,0.095-0.519L5.726,1.46
		C6.053,0.587,6.9,0,7.832,0h13.211c0.403,0.001,0.78,0.159,1.062,0.443c0.282,0.284,0.437,0.661,0.436,1.062
		c-0.001,0.179-0.033,0.355-0.095,0.522l-1.07,2.855V22.5h0.75c0.414,0,0.75,0.336,0.75,0.75S22.539,24,22.125,24H19.125z
		 M3.378,11.999L16.586,12c0.311,0,0.593-0.196,0.702-0.487l0.661-1.763H4.221L3.378,11.999z M18.51,8.25l2.53-6.75l-13.208,0
		c-0.311,0-0.593,0.196-0.702,0.486L4.783,8.25H18.51z"/>
	<path d="M14.625,24c-0.356,0-0.665-0.254-0.735-0.603L13.26,20.25H10.74l-0.629,3.147C10.041,23.746,9.731,24,9.375,24
		c-0.051,0-0.101-0.005-0.15-0.015c-0.194-0.039-0.363-0.152-0.475-0.319C8.64,23.5,8.6,23.299,8.64,23.103l0.607-3.033
		C8.424,19.722,7.875,18.916,7.875,18c0-1.241,1.009-2.25,2.25-2.25h3.75c1.241,0,2.25,1.009,2.25,2.25
		c0,0.916-0.549,1.722-1.371,2.07l0.606,3.033c0.039,0.196,0,0.396-0.111,0.563c-0.111,0.167-0.281,0.28-0.477,0.319
		C14.722,23.995,14.673,24,14.625,24z M13.875,18.75c0.414,0,0.75-0.336,0.75-0.75s-0.336-0.75-0.75-0.75h-3.75
		c-0.414,0-0.75,0.336-0.75,0.75c0,0.412,0.335,0.748,0.747,0.75c0.005,0,0.011,0,0.017,0H13.875z"/>
	<path d="M1.875,24c-0.414,0-0.75-0.336-0.75-0.75s0.336-0.75,0.75-0.75h0.75L2.626,15c0-0.414,0.336-0.75,0.75-0.75
		s0.75,0.336,0.75,0.75l-0.001,7.5h0.75c0.414,0,0.75,0.336,0.75,0.75S5.289,24,4.875,24H1.875z"/>
</g>
</svg>
