<?xml version="1.0" encoding="utf-8"?>
<!-- Generator: Adobe Illustrator 22.1.0, SVG Export Plug-In . SVG Version: 6.00 Build 0)  -->
<svg version="1.1" id="Layer_1" xmlns="http://www.w3.org/2000/svg" xmlns:xlink="http://www.w3.org/1999/xlink" x="0px" y="0px"
	 viewBox="0 0 24 24" style="enable-background:new 0 0 24 24;" xml:space="preserve">
<title>office-chair-table-2</title>
<g>
	<path d="M23.25,20.999c-0.414,0-0.75-0.336-0.75-0.75v-8.378c0-0.198-0.08-0.391-0.219-0.531l-2.122-2.121
		c-0.142-0.142-0.33-0.22-0.53-0.22h-3.852C15.767,8.999,15.758,9,15.75,9c-0.009,0-0.019,0-0.03-0.001l-11.349,0
		c-0.2,0-0.388,0.078-0.529,0.22L1.719,11.34C1.578,11.482,1.5,11.67,1.5,11.871v8.378c0,0.414-0.336,0.75-0.75,0.75
		S0,20.662,0,20.249v-8.378c0-0.601,0.234-1.166,0.658-1.591l2.122-2.121C3.205,7.734,3.77,7.499,4.37,7.499H7.5
		C7.5,5.018,9.519,3,12,3s4.5,2.018,4.5,4.499h3.129c0.601,0.001,1.166,0.235,1.591,0.66l2.122,2.121
		C23.766,10.705,24,11.27,24,11.871v8.378C24,20.662,23.664,20.999,23.25,20.999z M15,7.499C15,5.845,13.654,4.5,12,4.5
		c-1.654,0-3,1.345-3,2.999H15z"/>
	<path d="M15.75,20.999c-0.414,0-0.75-0.336-0.75-0.75v-4.201c-0.978,0.287-1.982,0.439-2.991,0.451
		C10.988,16.487,9.98,16.335,9,16.048v4.201c0,0.414-0.336,0.75-0.75,0.75s-0.75-0.336-0.75-0.75v-4.758
		c-0.395-0.18-0.777-0.381-1.139-0.601c-0.354-0.215-0.467-0.677-0.253-1.03c0.137-0.226,0.377-0.361,0.642-0.361
		c0.136,0,0.27,0.037,0.387,0.108c0.115,0.07,0.235,0.138,0.362,0.207v-1.814h-3c-0.414,0-0.75-0.336-0.75-0.75
		s0.336-0.75,0.75-0.75h15c0.414,0,0.75,0.336,0.75,0.75s-0.336,0.75-0.75,0.75h-3v1.814c0.127-0.068,0.247-0.137,0.361-0.206
		c0.117-0.071,0.251-0.108,0.388-0.108c0.261,0,0.507,0.138,0.642,0.361c0.214,0.354,0.101,0.816-0.252,1.03
		c-0.362,0.219-0.744,0.421-1.139,0.601v4.758C16.5,20.662,16.164,20.999,15.75,20.999z M9,14.474
		c0.976,0.336,1.987,0.512,3.009,0.524c1.009-0.012,2.016-0.188,2.991-0.524v-2.476H9V14.474z"/>
</g>
</svg>
