<?xml version="1.0" encoding="utf-8"?>
<!-- Generator: Adobe Illustrator 22.1.0, SVG Export Plug-In . SVG Version: 6.00 Build 0)  -->
<svg version="1.1" id="Layer_1" xmlns="http://www.w3.org/2000/svg" xmlns:xlink="http://www.w3.org/1999/xlink" x="0px" y="0px"
	 viewBox="0 0 24 24" style="enable-background:new 0 0 24 24;" xml:space="preserve">
<title>office-clipper</title>
<g>
	<path d="M3.939,23.998c-1.081,0-2.011-0.771-2.211-1.834l-1.688-9c-0.026-0.137-0.039-0.276-0.039-0.415
		c0-0.6,0.234-1.165,0.659-1.59c0.425-0.426,0.99-0.66,1.59-0.66h5.651l0.344-3.805C6.835,5.996,6.001,4.909,6.001,3.748
		c0-2.103,2.635-3.75,6-3.75c3.365,0,6,1.647,6,3.75c0,1.179-0.814,2.242-2.246,2.946l0.344,3.804h5.651
		c0.139,0,0.278,0.013,0.415,0.039c0.591,0.111,1.103,0.445,1.442,0.941c0.339,0.496,0.465,1.095,0.354,1.686l-1.688,9
		c-0.2,1.063-1.13,1.835-2.211,1.835H3.939z M20.063,22.498c0.36,0,0.67-0.257,0.737-0.612l1.688-9
		c0.037-0.198-0.005-0.397-0.118-0.562c-0.113-0.166-0.284-0.277-0.481-0.314c-0.045-0.009-0.092-0.013-0.138-0.013h-5.515
		l0.95,10.5H20.063z M15.68,22.498l-0.951-10.5H9.272l-0.95,10.5H15.68z M2.251,11.998c-0.414,0-0.75,0.337-0.75,0.75
		c0,0.046,0.004,0.093,0.013,0.138l1.688,9c0.067,0.354,0.377,0.611,0.737,0.611h2.877l0.95-10.5H2.251L2.251,11.998z
		 M14.594,10.498l-0.381-4.205c-0.03-0.33,0.165-0.645,0.474-0.766c1.119-0.438,1.814-1.119,1.814-1.778
		c0-1.199-2.103-2.25-4.5-2.25c-2.397,0-4.5,1.051-4.5,2.25c0,0.659,0.695,1.34,1.814,1.778c0.309,0.121,0.504,0.436,0.473,0.766
		l-0.381,4.205H14.594z"/>
</g>
</svg>
