<?xml version="1.0" encoding="utf-8"?>
<!-- Generator: Adobe Illustrator 22.1.0, SVG Export Plug-In . SVG Version: 6.00 Build 0)  -->
<svg version="1.1" id="Layer_1" xmlns="http://www.w3.org/2000/svg" xmlns:xlink="http://www.w3.org/1999/xlink" x="0px" y="0px"
	 viewBox="0 0 24 24" style="enable-background:new 0 0 24 24;" xml:space="preserve">
<title>office-file-sheet-alternate</title>
<g>
	<path d="M2.998,23.999C1.345,23.999,0,22.654-0.001,21V3c0-1.655,1.346-3.001,3.001-3.001h14.378c0.602,0,1.167,0.234,1.592,0.66
		L23.34,5.03c0.425,0.425,0.659,0.99,0.659,1.592V21c0,1.653-1.346,2.999-2.999,2.999H2.998z M3,1.499
		C2.172,1.499,1.499,2.172,1.499,3v18c0,0.826,0.673,1.499,1.5,1.499H21c0.826,0,1.499-0.673,1.499-1.5v-13.5h-3.75
		c-1.241,0-2.25-1.009-2.25-2.25v-3.75H3z M17.999,5.249c0,0.414,0.336,0.75,0.75,0.75h3.439L17.999,1.81V5.249z"/>
	<path d="M5.249,20.249c-0.827,0-1.5-0.673-1.5-1.5V10.5c0-0.009,0-0.019,0.001-0.03l0-2.221c0-0.827,0.673-1.5,1.5-1.5h8.25
		c0.414,0,0.75,0.336,0.75,0.75s-0.336,0.75-0.75,0.75H5.25V9.75h3.723c0.009-0.001,0.018-0.001,0.026-0.001
		c0.009,0,0.019,0,0.03,0.001l9.72,0c0.827,0,1.5,0.673,1.5,1.5l0.001,7.499c0,0.827-0.673,1.5-1.5,1.5H5.249z M18.75,18.749l0-3h-9
		v3H18.75z M5.249,18.749h3v-3h-3V18.749z M18.75,14.249l0-2.999h-9v2.999H18.75z M8.249,14.249V11.25h-3v2.999H8.249z"/>
</g>
</svg>
