<?xml version="1.0" encoding="utf-8"?>
<!-- Generator: Adobe Illustrator 22.1.0, SVG Export Plug-In . SVG Version: 6.00 Build 0)  -->
<svg version="1.1" id="Layer_1" xmlns="http://www.w3.org/2000/svg" xmlns:xlink="http://www.w3.org/1999/xlink" x="0px" y="0px"
	 viewBox="0 0 24 24" style="enable-background:new 0 0 24 24;" xml:space="preserve">
<title>office-shelf-corner</title>
<g>
	<path d="M16.874,23.623c-0.414,0-0.75-0.336-0.75-0.75v-0.75h-12v0.75c0,0.414-0.336,0.75-0.75,0.75s-0.75-0.336-0.75-0.75v-16.5
		c0-0.017,0.002-0.047,0.005-0.065C2.629,6.305,2.631,6.279,2.635,6.253c0.005-0.029,0.01-0.05,0.016-0.072
		c0.007-0.026,0.014-0.048,0.022-0.07c0.009-0.023,0.018-0.045,0.029-0.068C2.713,6.022,2.724,6.001,2.737,5.98
		C2.75,5.959,2.764,5.94,2.778,5.92c0.015-0.02,0.029-0.037,0.045-0.054c0.018-0.02,0.038-0.038,0.058-0.056
		c0.011-0.012,0.018-0.018,0.031-0.028l6.752-5.251c0.131-0.102,0.295-0.158,0.46-0.158c0.233,0,0.449,0.106,0.592,0.29
		c0.254,0.326,0.195,0.798-0.131,1.052L5.56,5.623h8.314c0.705,0,1.377,0.336,1.8,0.9l1.8,2.4c0.007,0.01,0.015,0.021,0.021,0.032
		c0.031,0.046,0.056,0.093,0.075,0.142c0.005,0.012,0.012,0.035,0.016,0.047c0.012,0.036,0.024,0.084,0.03,0.134
		c0.002,0.013,0.003,0.027,0.004,0.042c0.002,0.017,0.004,0.04,0.004,0.054v4.439l2.531-2.025c0.134-0.106,0.3-0.164,0.469-0.164
		c0.229,0,0.443,0.103,0.586,0.281c0.258,0.323,0.206,0.796-0.117,1.054l-3.469,2.775v2.579l2.531-2.025
		c0.133-0.106,0.3-0.165,0.469-0.165c0.229,0,0.442,0.103,0.585,0.281c0.258,0.323,0.206,0.796-0.117,1.054l-3.469,2.775v2.64
		C17.624,23.286,17.288,23.623,16.874,23.623z M16.124,20.623v-10.5h-12v10.5H16.124z M15.374,8.623l-0.9-1.2
		c-0.141-0.188-0.365-0.3-0.6-0.3h-9.75v1.5H15.374z"/>
	<path d="M7.124,13.123c-0.414,0-0.75-0.336-0.75-0.75s0.336-0.75,0.75-0.75h6c0.414,0,0.75,0.336,0.75,0.75s-0.336,0.75-0.75,0.75
		H7.124z"/>
	<path d="M7.124,17.623c-0.414,0-0.75-0.336-0.75-0.75s0.336-0.75,0.75-0.75h6c0.414,0,0.75,0.336,0.75,0.75s-0.336,0.75-0.75,0.75
		H7.124z"/>
</g>
</svg>
