<?xml version="1.0" encoding="utf-8"?>
<!-- Generator: Adobe Illustrator 22.1.0, SVG Export Plug-In . SVG Version: 6.00 Build 0)  -->
<svg version="1.1" id="Layer_1" xmlns="http://www.w3.org/2000/svg" xmlns:xlink="http://www.w3.org/1999/xlink" x="0px" y="0px"
	 viewBox="0 0 24 24" style="enable-background:new 0 0 24 24;" xml:space="preserve">
<title>old-people-man-1</title>
<g>
	<path d="M21.75,24C21.336,24,21,23.664,21,23.25c0-4.633-3.495-8.471-8.046-8.95l2.027,8.781c0.093,0.403-0.16,0.806-0.562,0.899
		C14.361,23.994,14.305,24,14.25,24c-0.351,0-0.652-0.239-0.731-0.582L12,16.835l-1.519,6.583C10.402,23.761,10.101,24,9.75,24
		c-0.056,0-0.112-0.006-0.167-0.019c-0.197-0.045-0.363-0.164-0.469-0.334c-0.106-0.17-0.14-0.371-0.095-0.566l2.026-8.781
		C6.495,14.779,3,18.617,3,23.25C3,23.664,2.664,24,2.25,24S1.5,23.664,1.5,23.25c0-5.79,4.71-10.5,10.5-10.5
		c5.79,0,10.5,4.71,10.5,10.5C22.5,23.664,22.164,24,21.75,24z"/>
	<path d="M12,12c-1.83,0-3.573-0.851-4.708-2.287C7.099,9.739,6.921,9.751,6.753,9.751c-0.83,0-1.646-0.233-2.359-0.674
		C3.371,8.445,2.656,7.452,2.381,6.282c-0.276-1.17-0.079-2.377,0.553-3.4S4.559,1.146,5.729,0.87
		c0.334-0.079,0.677-0.119,1.02-0.12c0.61,0,1.219,0.126,1.777,0.365C9.547,0.385,10.744,0,12,0c1.256,0,2.453,0.385,3.475,1.115
		c0.558-0.24,1.166-0.365,1.771-0.365c0.348,0.001,0.691,0.041,1.025,0.12c1.17,0.276,2.162,0.99,2.794,2.013
		c0.632,1.022,0.829,2.229,0.553,3.399s-0.99,2.163-2.013,2.795c-0.714,0.441-1.53,0.674-2.36,0.674
		c-0.168,0-0.345-0.012-0.539-0.038C15.573,11.149,13.83,12,12,12z M7.558,6.691C7.894,8.854,9.779,10.5,12,10.5
		s4.106-1.646,4.442-3.809c-0.916-0.141-1.577-0.537-1.97-1.18c-0.654-1.071-0.29-2.49-0.001-3.267C13.734,1.756,12.886,1.5,12,1.5
		c-0.886,0-1.734,0.256-2.47,0.744C9.818,3.02,10.182,4.439,9.528,5.51C9.135,6.154,8.474,6.55,7.558,6.691z M6.751,2.25
		c-0.228,0-0.456,0.027-0.678,0.08c-0.78,0.184-1.442,0.66-1.863,1.342C3.788,4.353,3.657,5.158,3.841,5.938
		c0.184,0.78,0.66,1.442,1.342,1.863C5.563,8.037,5.99,8.183,6.431,8.23C6.148,7.523,6,6.763,6,6c0-0.414,0.336-0.75,0.75-0.75
		c0.538,0,1.235-0.09,1.498-0.522C8.589,4.169,8.283,3.113,8.036,2.54c-0.399-0.19-0.84-0.29-1.282-0.29L6.75,1.875L6.751,2.25z
		 M15.965,2.539c-0.247,0.575-0.553,1.634-0.212,2.19c0.263,0.43,0.96,0.521,1.498,0.521C17.664,5.25,18,5.586,18,6
		c0,0.762-0.148,1.522-0.431,2.228c1.255-0.136,2.295-1.039,2.59-2.29c0.184-0.78,0.053-1.585-0.369-2.266
		c-0.421-0.681-1.083-1.158-1.863-1.342c-0.223-0.052-0.451-0.079-0.679-0.08l-0.002-0.375V2.25
		C16.804,2.25,16.364,2.35,15.965,2.539z"/>
</g>
</svg>
