<svg id="Outline_Version" data-name="Outline Version" xmlns="http://www.w3.org/2000/svg" viewBox="0 0 24 24"><title>online-reading-scribd-1</title><path d="M15,7.06a.75.75,0,0,0,.35.46L17.5,8.74a.75.75,0,0,0,1-.3l1.86-3.49a1.73,1.73,0,0,0-.77-2.32,4.4,4.4,0,0,1-.45-.3A11.69,11.69,0,0,0,12,0C6.79,0,3.42,2.6,3.42,6.62a5.51,5.51,0,0,0,5.15,5.15A3.46,3.46,0,0,0,12.27,9a3.24,3.24,0,0,0-.6-2.87A4.13,4.13,0,0,0,10.2,4.91a3.82,3.82,0,0,1,1.62-.39,4.88,4.88,0,0,1,2.69.8l1,.49-.39.68A.75.75,0,0,0,15,7.06ZM15.21,4a6.25,6.25,0,0,0-3.39-1,6.14,6.14,0,0,0-4,1.69A.75.75,0,0,0,8.4,6a2.7,2.7,0,0,1,2.08,1,1.79,1.79,0,0,1,.35,1.56,2,2,0,0,1-2.25,1.7A4,4,0,0,1,4.92,6.62C4.92,3.46,7.64,1.5,12,1.5a10.17,10.17,0,0,1,6.31,2.06,5.85,5.85,0,0,0,.64.41h0a.22.22,0,0,1,.11.13.22.22,0,0,1,0,.16L17.57,7.05l-.81-.46.42-.74a.75.75,0,0,0-.35-1.06C16.17,4.5,15.66,4.23,15.21,4Z"/><path d="M15.42,12.23A3.46,3.46,0,0,0,11.73,15a3.24,3.24,0,0,0,.6,2.87,4.13,4.13,0,0,0,1.47,1.19,3.82,3.82,0,0,1-1.62.39,4.88,4.88,0,0,1-2.69-.8l-1-.49.39-.68a.75.75,0,0,0-.28-1L6.5,15.26a.76.76,0,0,0-.58-.07.75.75,0,0,0-.45.37L3.61,19.05a1.73,1.73,0,0,0,.77,2.32h0a4.46,4.46,0,0,1,.45.3A11.69,11.69,0,0,0,12,24c5.21,0,8.58-2.6,8.58-6.62A5.51,5.51,0,0,0,15.42,12.23ZM12,22.5a10.17,10.17,0,0,1-6.31-2.06A6,6,0,0,0,5.05,20a.23.23,0,0,1-.11-.29l1.49-2.79.81.46-.42.74a.75.75,0,0,0,.35,1.06c.66.29,1.17.56,1.62.8a6.25,6.25,0,0,0,3.39,1,6.14,6.14,0,0,0,4-1.69A.75.75,0,0,0,15.6,18a2.7,2.7,0,0,1-2.08-1,1.79,1.79,0,0,1-.35-1.56,2,2,0,0,1,2.25-1.7,4,4,0,0,1,3.65,3.65C19.08,20.54,16.36,22.5,12,22.5Z"/></svg>