<?xml version="1.0" encoding="utf-8"?>
<!-- Generator: Adobe Illustrator 22.1.0, SVG Export Plug-In . SVG Version: 6.00 Build 0)  -->
<svg version="1.1" id="Layer_1" xmlns="http://www.w3.org/2000/svg" xmlns:xlink="http://www.w3.org/1999/xlink" x="0px" y="0px"
	 viewBox="0 0 24 24" style="enable-background:new 0 0 24 24;" xml:space="preserve">
<title>optimization-rocket-graph</title>
<g>
	<path d="M6,24c-0.414,0-0.75-0.336-0.75-0.75S5.586,22.5,6,22.5h6.75v-1.547c-1.58-0.204-3.07-0.926-4.227-2.054
		C7.833,18.225,7.28,17.4,6.91,16.5H5.182c-0.414,0-0.75-0.336-0.75-0.75S4.768,15,5.182,15h5.25c0.414,0,0.75,0.336,0.75,0.75
		s-0.336,0.75-0.75,0.75H8.569c0.269,0.491,0.609,0.942,1.001,1.326c1.05,1.024,2.428,1.618,3.883,1.677
		c0.014-0.001,0.03-0.002,0.046-0.002c0.038,0,0.075,0.003,0.113,0.009l0.074,0.001c1.54,0,3.002-0.598,4.116-1.684
		c0.127-0.124,0.249-0.255,0.362-0.388c1.847-2.178,1.756-5.38-0.159-7.447l-1.551,1.524C16.134,11.828,15.711,12,15.266,12
		c-0.319,0-0.632-0.09-0.905-0.261c-0.35-0.22-0.456-0.684-0.237-1.034c0.138-0.22,0.375-0.351,0.635-0.351
		c0.141,0,0.278,0.04,0.398,0.114c0.033,0.021,0.071,0.032,0.108,0.032c0.052,0,0.102-0.02,0.14-0.057l3.975-3.908
		c0.03-0.03,0.049-0.075,0.048-0.12c0-0.029-0.009-0.072-0.046-0.108l-1.327-1.301c-0.048-0.047-0.107-0.054-0.138-0.054
		c-0.031,0-0.09,0.007-0.139,0.055l-2.066,2.029c-0.141,0.139-0.327,0.215-0.525,0.215c-0.203,0-0.393-0.08-0.535-0.225
		c-0.29-0.295-0.285-0.771,0.01-1.06l2.067-2.03c0.318-0.311,0.74-0.482,1.188-0.482c0.425,0,0.825,0.153,1.135,0.432l1.635-1.635
		l-0.97-0.97c-0.142-0.141-0.22-0.33-0.22-0.53s0.078-0.389,0.22-0.53S20.05,0,20.25,0s0.389,0.078,0.53,0.22l3,3
		C23.922,3.361,24,3.55,24,3.75s-0.078,0.389-0.22,0.53S23.45,4.5,23.25,4.5s-0.389-0.078-0.53-0.22l-0.97-0.97l-1.623,1.624
		l0.306,0.3c0.316,0.309,0.493,0.723,0.498,1.167s-0.163,0.862-0.472,1.178c-0.001,0.001-1.383,1.359-1.383,1.359
		c2.454,2.616,2.58,6.701,0.232,9.469c-0.142,0.167-0.296,0.333-0.458,0.491c-1.257,1.225-2.879,1.96-4.601,2.093V22.5h6
		c0.414,0,0.75,0.336,0.75,0.75S20.664,24,20.25,24H6z"/>
	<path d="M0.75,13.5C0.336,13.5,0,13.164,0,12.75S0.336,12,0.75,12h1.5V0.75C2.25,0.336,2.586,0,3,0h3c0.414,0,0.75,0.336,0.75,0.75
		V12h1.5V3.75C8.25,3.336,8.586,3,9,3h3c0.414,0,0.75,0.336,0.75,0.75v9c0,0.414-0.336,0.75-0.75,0.75H0.75z M11.25,12V4.5h-1.5V12
		H11.25z M5.25,12V1.5h-1.5V12H5.25z"/>
</g>
</svg>
