<?xml version="1.0" encoding="utf-8"?>
<!-- Generator: Adobe Illustrator 22.1.0, SVG Export Plug-In . SVG Version: 6.00 Build 0)  -->
<svg version="1.1" id="Regular" xmlns="http://www.w3.org/2000/svg" xmlns:xlink="http://www.w3.org/1999/xlink" x="0px" y="0px"
	 viewBox="0 0 24 24" style="enable-background:new 0 0 24 24;" xml:space="preserve">
<title>organic-flask-1</title>
<g>
	<path d="M12.894,24c-0.098,0-0.193-0.019-0.284-0.056c-0.185-0.076-0.33-0.219-0.407-0.404c-0.077-0.185-0.078-0.389-0.002-0.574
		c0.37-0.903,0.794-1.716,1.264-2.422c-0.777-1.124-1.093-2.25-0.916-3.271c0.186-1.072,0.899-1.987,2.062-2.647
		c1.414-0.737,2.994-1.124,4.581-1.124c1.519,0,3.037,0.356,4.389,1.03c0.203,0.101,0.347,0.285,0.397,0.505
		c0.05,0.22-0.001,0.448-0.139,0.627c-0.407,0.523-0.695,1.477-0.998,2.486c-0.681,2.261-1.613,5.356-4.926,5.659
		c-0.099,0.009-0.197,0.013-0.292,0.013c-1.548,0-2.638-1.12-3.227-1.935c-0.293,0.5-0.564,1.052-0.808,1.647
		C13.473,23.817,13.201,24,12.894,24z M15.327,20.565c0.256,0.44,1.119,1.756,2.303,1.756c0.049,0,0.098-0.002,0.148-0.007
		c2.305-0.21,2.946-2.342,3.625-4.598c0.237-0.785,0.462-1.535,0.765-2.169c-0.951-0.363-1.952-0.547-2.981-0.547
		c-1.343,0-2.677,0.326-3.86,0.942c-0.751,0.427-1.193,0.962-1.301,1.586c-0.089,0.516,0.057,1.119,0.423,1.762
		c1.485-1.588,2.818-1.797,2.975-1.816c0.031-0.004,0.062-0.006,0.092-0.006c0.378,0,0.698,0.283,0.744,0.658
		c0.051,0.407-0.239,0.782-0.646,0.836l0,0c0.001,0-0.551,0.095-1.291,0.65C15.984,19.868,15.649,20.188,15.327,20.565z"/>
	<path d="M8.997,22.5c-4.002-0.002-7.561-2.693-8.654-6.542c-0.657-2.313-0.374-4.744,0.797-6.844
		c1.073-1.925,2.791-3.373,4.858-4.102V1.5h-1.5c-0.414,0-0.75-0.336-0.75-0.75S4.084,0,4.498,0h9.75c0.414,0,0.75,0.336,0.75,0.75
		s-0.336,0.75-0.75,0.75h-2.25v3.512c2.75,0.971,4.855,3.206,5.659,6.027c0.055,0.193,0.032,0.395-0.066,0.57
		c-0.097,0.175-0.257,0.302-0.45,0.357c-0.067,0.019-0.136,0.029-0.206,0.029c-0.333,0-0.63-0.224-0.721-0.545
		c-0.718-2.519-2.652-4.452-5.172-5.169c-0.321-0.091-0.545-0.388-0.545-0.721V1.5h-3v4.06c0,0.334-0.224,0.63-0.545,0.721
		C5.025,6.829,3.426,8.094,2.45,9.844c-0.976,1.75-1.212,3.776-0.664,5.703c0.911,3.208,3.877,5.45,7.212,5.452
		c0.414,0,0.75,0.337,0.75,0.75S9.411,22.5,8.997,22.5C8.998,22.5,8.998,22.5,8.997,22.5z"/>
	<path d="M11.623,13.5c-0.044,0-0.088-0.004-0.13-0.011c-0.513-0.06-0.923-0.47-0.983-0.983c-0.008-0.043-0.012-0.087-0.012-0.131
		s0.004-0.088,0.012-0.131c0.06-0.513,0.47-0.922,0.982-0.982c0.043-0.008,0.087-0.012,0.131-0.012s0.088,0.004,0.131,0.012
		c0.513,0.061,0.922,0.47,0.982,0.983c0.007,0.042,0.011,0.086,0.011,0.13s-0.004,0.088-0.011,0.131
		c-0.06,0.513-0.47,0.923-0.983,0.983C11.711,13.496,11.667,13.5,11.623,13.5z"/>
	<path d="M6.373,16.5c-0.044,0-0.088-0.004-0.13-0.011c-0.513-0.06-0.923-0.47-0.983-0.983c-0.008-0.043-0.011-0.087-0.011-0.131
		s0.004-0.088,0.011-0.131c0.06-0.513,0.47-0.922,0.983-0.982c0.042-0.008,0.086-0.011,0.13-0.011s0.088,0.004,0.13,0.011
		c0.513,0.06,0.923,0.469,0.983,0.982c0.008,0.043,0.011,0.087,0.011,0.131s-0.004,0.088-0.011,0.131
		c-0.06,0.513-0.47,0.922-0.983,0.983C6.461,16.496,6.417,16.5,6.373,16.5z"/>
	<path d="M7.123,11.25c-0.044,0-0.088-0.004-0.131-0.012c-0.513-0.06-0.922-0.47-0.982-0.982c-0.008-0.043-0.012-0.087-0.012-0.131
		s0.004-0.088,0.012-0.131c0.06-0.513,0.47-0.922,0.982-0.982C7.035,9.004,7.079,9,7.123,9s0.088,0.004,0.131,0.012
		c0.513,0.06,0.922,0.47,0.982,0.982c0.008,0.043,0.012,0.087,0.012,0.131s-0.004,0.088-0.012,0.131
		c-0.06,0.513-0.47,0.922-0.982,0.982C7.211,11.246,7.166,11.25,7.123,11.25z"/>
</g>
</svg>
