<?xml version="1.0" encoding="utf-8"?>
<!-- Generator: Adobe Illustrator 22.1.0, SVG Export Plug-In . SVG Version: 6.00 Build 0)  -->
<svg version="1.1" id="Regular" xmlns="http://www.w3.org/2000/svg" xmlns:xlink="http://www.w3.org/1999/xlink" x="0px" y="0px"
	 viewBox="0 0 24 24" style="enable-background:new 0 0 24 24;" xml:space="preserve">
<title>organic-sun-growth</title>
<g>
	<path d="M15,12c-2.068,0-3.75-1.682-3.75-3.75S12.932,4.5,15,4.5s3.75,1.682,3.75,3.75S17.068,12,15,12z M15,6
		c-1.241,0-2.25,1.009-2.25,2.25S13.759,10.5,15,10.5s2.25-1.009,2.25-2.25S16.241,6,15,6z"/>
	<path d="M15,3c-0.414,0-0.75-0.336-0.75-0.75v-1.5C14.25,0.336,14.586,0,15,0s0.75,0.336,0.75,0.75v1.5C15.75,2.664,15.414,3,15,3z
		"/>
	<path d="M19.243,4.757c-0.2,0-0.389-0.078-0.53-0.22c-0.142-0.142-0.22-0.33-0.22-0.53c0-0.2,0.078-0.389,0.22-0.53l1.06-1.06
		c0.142-0.142,0.33-0.22,0.53-0.22s0.389,0.078,0.53,0.22c0.142,0.142,0.22,0.33,0.22,0.53c0,0.2-0.078,0.389-0.22,0.53l-1.06,1.06
		C19.632,4.679,19.443,4.757,19.243,4.757z"/>
	<path d="M21,9c-0.414,0-0.75-0.336-0.75-0.75S20.586,7.5,21,7.5h1.5c0.414,0,0.75,0.336,0.75,0.75S22.914,9,22.5,9H21z"/>
	<path d="M20.303,14.303c-0.2,0-0.389-0.078-0.53-0.22l-1.06-1.06c-0.292-0.292-0.292-0.768,0-1.061
		c0.142-0.142,0.33-0.22,0.53-0.22l0,0c0.2,0,0.389,0.078,0.53,0.22l1.06,1.06c0.292,0.292,0.292,0.768,0,1.061
		C20.692,14.225,20.503,14.303,20.303,14.303z"/>
	<path d="M15,16.5c-0.414,0-0.75-0.336-0.75-0.75v-1.5c0-0.414,0.336-0.75,0.75-0.75s0.75,0.336,0.75,0.75v1.5
		C15.75,16.164,15.414,16.5,15,16.5z"/>
	<path d="M9.697,14.303c-0.2,0-0.389-0.078-0.53-0.22c-0.292-0.292-0.292-0.768,0-1.061l1.06-1.06c0.141-0.142,0.33-0.22,0.53-0.22
		s0.389,0.078,0.53,0.22c0.292,0.292,0.292,0.768,0,1.061l-1.06,1.06C10.086,14.225,9.898,14.303,9.697,14.303z"/>
	<path d="M7.5,9C7.086,9,6.75,8.664,6.75,8.25S7.086,7.5,7.5,7.5H9c0.414,0,0.75,0.336,0.75,0.75S9.414,9,9,9H7.5z"/>
	<path d="M10.757,4.757c-0.2,0-0.389-0.078-0.53-0.22l-1.06-1.06c-0.142-0.141-0.22-0.33-0.22-0.53s0.078-0.389,0.22-0.53
		c0.141-0.142,0.33-0.22,0.53-0.22l0,0c0.2,0,0.389,0.078,0.53,0.22l1.06,1.06c0.142,0.141,0.22,0.33,0.22,0.53
		s-0.078,0.389-0.22,0.53C11.146,4.679,10.957,4.757,10.757,4.757z"/>
	<path d="M0.75,24C0.336,24,0,23.664,0,23.25s0.336-0.75,0.75-0.75h1.392c-0.402-1.407-1.795-2.367-1.81-2.377
		c-0.343-0.23-0.435-0.696-0.205-1.04c0.14-0.209,0.373-0.333,0.624-0.333c0.148,0,0.292,0.044,0.416,0.126
		C1.217,18.91,2.257,19.612,3,20.793c0.743-1.181,1.783-1.883,1.834-1.917c0.123-0.082,0.267-0.126,0.415-0.126
		c0.251,0,0.484,0.125,0.624,0.334c0.23,0.344,0.136,0.811-0.208,1.04c-0.014,0.009-1.406,0.97-1.808,2.376h7.284
		c-0.402-1.407-1.795-2.367-1.81-2.377c-0.343-0.23-0.435-0.696-0.205-1.04c0.14-0.209,0.373-0.333,0.624-0.333
		c0.148,0,0.292,0.044,0.416,0.126c0.051,0.034,1.091,0.735,1.833,1.916c0.719-1.148,1.707-1.831,1.834-1.916
		c0.124-0.083,0.268-0.126,0.416-0.126c0.251,0,0.485,0.125,0.624,0.334c0.229,0.344,0.136,0.811-0.208,1.04
		c-0.014,0.009-1.406,0.97-1.808,2.376h7.284c-0.402-1.408-1.794-2.366-1.81-2.377c-0.343-0.23-0.436-0.697-0.206-1.04
		c0.14-0.209,0.373-0.333,0.624-0.333c0.148,0,0.292,0.044,0.416,0.126c0.127,0.085,1.115,0.767,1.833,1.915
		c0.719-1.148,1.706-1.83,1.834-1.915c0.123-0.083,0.267-0.126,0.416-0.126c0.251,0,0.485,0.125,0.624,0.334
		c0.229,0.344,0.136,0.811-0.208,1.04c-0.014,0.009-1.406,0.97-1.808,2.376h1.392c0.414,0,0.75,0.336,0.75,0.75S23.664,24,23.25,24
		H0.75z"/>
</g>
</svg>
