<?xml version="1.0" encoding="utf-8"?>
<!-- Generator: Adobe Illustrator 22.1.0, SVG Export Plug-In . SVG Version: 6.00 Build 0)  -->
<svg version="1.1" id="Regular" xmlns="http://www.w3.org/2000/svg" xmlns:xlink="http://www.w3.org/1999/xlink" x="0px" y="0px"
	 viewBox="0 0 24 24" style="enable-background:new 0 0 24 24;" xml:space="preserve">
<title>organic-worm</title>
<g>
	<path d="M3.75,24.001c-2.068,0-3.75-1.682-3.75-3.75v-2.25c0.003-2.934,1.135-5.712,3.188-7.826
		c0.047-0.067,0.104-0.126,0.171-0.174c2.121-2.093,4.922-3.247,7.891-3.25h1.501c1.309,0,2.488-0.646,3.172-1.728
		c0-0.003,0.014-0.026,0.029-0.047c0.293-0.476,0.475-1.017,0.531-1.594c0.191-1.928,1.795-3.382,3.732-3.382
		c0.123,0,0.247,0.006,0.369,0.018c2.058,0.204,3.567,2.043,3.363,4.101c-0.53,5.481-4.895,9.73-10.379,10.103
		c-0.017,0.002-0.033,0.003-0.05,0.003c-0.269,0.018-0.506,0.026-0.73,0.026H11.25c-2.065,0.002-3.748,1.685-3.75,3.751v2.249
		C7.5,22.318,5.818,24.001,3.75,24.001z M1.5,20.251c0,1.241,1.009,2.25,2.25,2.25S6,21.491,6,20.251v-0.909
		C5.278,19.181,4.564,19.1,3.874,19.1H3.632c-0.694,0-1.41,0.081-2.132,0.242V20.251z M3.856,17.6c0.712,0,1.433,0.07,2.148,0.207
		c0.044-1.156,0.47-2.259,1.215-3.153c-0.429-0.639-0.921-1.219-1.465-1.728c-0.54-0.516-1.145-0.974-1.803-1.368
		c-1.537,1.737-2.4,3.938-2.449,6.248C2.215,17.669,2.933,17.6,3.644,17.6H3.856z M5.061,10.482
		c0.624,0.402,1.202,0.856,1.723,1.353c0.569,0.532,1.092,1.138,1.557,1.805c0.865-0.582,1.862-0.888,2.908-0.889h1.518
		c-0.017-0.724-0.109-1.433-0.272-2.113C12.3,9.822,12.006,9.02,11.621,8.251h-0.37C8.985,8.253,6.806,9.042,5.061,10.482z
		 M13.264,8.227c0.292,0.674,0.523,1.365,0.69,2.059c0.182,0.758,0.287,1.547,0.311,2.351c2.436-0.369,4.651-1.658,6.167-3.591
		c-0.497-0.583-1.05-1.102-1.646-1.544c-0.601-0.457-1.26-0.851-1.964-1.173C15.941,7.411,14.653,8.095,13.264,8.227z M17.599,5.038
		c0.75,0.356,1.451,0.781,2.089,1.266c0.567,0.421,1.105,0.907,1.602,1.449c0.642-1.163,1.033-2.433,1.163-3.78
		c0.122-1.236-0.783-2.34-2.017-2.463c-0.076-0.008-0.152-0.011-0.226-0.011c-1.159,0-2.12,0.872-2.234,2.029
		C17.924,4.051,17.798,4.558,17.599,5.038z"/>
</g>
</svg>
