<svg id="Outline_Version" data-name="Outline Version" xmlns="http://www.w3.org/2000/svg" viewBox="0 0 24 24"><title>os-system-blackberry</title><path d="M1.83,4,1,7.92a.75.75,0,0,0,.73.91H4.8c3.56,0,3.84-2.25,3.84-2.94,0-1.2-.82-2.49-3.12-2.49H2.56A.75.75,0,0,0,1.83,4Zm1.34.91H5.51c.74,0,1.62.17,1.62,1,0,1.19-1.27,1.44-2.34,1.44H2.66Z"/><path d="M13.37,3.39h-2.7A.75.75,0,0,0,9.94,4L9.1,7.92a.75.75,0,0,0,.73.91h2.82c3.56,0,3.84-2.25,3.84-2.94C16.49,4.68,15.67,3.39,13.37,3.39Zm-.72,3.93H10.76l.51-2.43h2.09c.74,0,1.62.17,1.62,1C15,7.07,13.72,7.32,12.65,7.32Z"/><path d="M20.88,6.34h-2.7a.75.75,0,0,0-.73.59l-.83,3.93a.75.75,0,0,0,.73.91h2.82c3.56,0,3.84-2.25,3.84-2.94C24,7.63,23.18,6.34,20.88,6.34Zm-.72,3.93H18.27l.51-2.43h2.09c.74,0,1.62.17,1.62,1C22.5,10,21.23,10.27,20.16,10.27Z"/><path d="M15.78,17.38a.75.75,0,0,0,.58.28h2.82c3.56,0,3.84-2.25,3.84-2.94,0-1.2-.82-2.49-3.12-2.49H17.2a.75.75,0,0,0-.73.59l-.83,3.93A.75.75,0,0,0,15.78,17.38Zm2-3.65H19.9c.74,0,1.62.17,1.62,1,0,1.19-1.27,1.44-2.34,1.44H17.29Z"/><path d="M.75,14.71H3.82c3.56,0,3.84-2.25,3.84-2.94,0-1.2-.82-2.49-3.12-2.49H1.58a.75.75,0,0,0-.73.59L0,13.81a.75.75,0,0,0,.73.91Zm1.44-3.93H4.53c.74,0,1.62.17,1.62,1,0,1.19-1.27,1.44-2.34,1.44H1.68Z"/><path d="M15.51,11.78c0-1.2-.82-2.49-3.12-2.49H9.69A.75.75,0,0,0,9,9.88l-.83,3.93a.75.75,0,0,0,.73.91h2.82C15.23,14.71,15.51,12.46,15.51,11.78Zm-3.84,1.44H9.78l.51-2.43h2.09c.74,0,1.62.17,1.62,1C14,13,12.74,13.21,11.67,13.21Z"/><path d="M7.87,20.61h2.82c3.56,0,3.84-2.25,3.84-2.94,0-1.2-.82-2.49-3.12-2.49H8.71a.75.75,0,0,0-.73.59L7.14,19.7a.75.75,0,0,0,.73.91Zm1.44-3.93h2.09c.74,0,1.62.17,1.62,1,0,1.19-1.27,1.44-2.34,1.44H8.8Z"/></svg>