<?xml version="1.0" encoding="utf-8"?>
<!-- Generator: Adobe Illustrator 22.1.0, SVG Export Plug-In . SVG Version: 6.00 Build 0)  -->
<svg version="1.1" id="Regular" xmlns="http://www.w3.org/2000/svg" xmlns:xlink="http://www.w3.org/1999/xlink" x="0px" y="0px"
	 viewBox="0 0 24 24" style="enable-background:new 0 0 24 24;" xml:space="preserve">
<title>otter</title>
<g>
	<path d="M5.002,24c-0.323,0-0.609-0.206-0.711-0.513c-0.943-2.829,1.104-3.897,1.125-3.908c0.105-0.052,0.221-0.08,0.336-0.08
		c0.286,0,0.543,0.159,0.671,0.414c0.183,0.367,0.036,0.817-0.33,1.004c-0.032,0.017-0.906,0.514-0.38,2.095
		c0.063,0.19,0.049,0.394-0.041,0.573s-0.244,0.313-0.434,0.376C5.163,23.987,5.083,24,5.002,24z"/>
	<path d="M2.002,24c-0.323,0-0.609-0.206-0.711-0.513c-0.943-2.829,1.104-3.897,1.125-3.908c0.105-0.052,0.22-0.08,0.336-0.08
		c0.286,0,0.543,0.159,0.671,0.414c0.184,0.367,0.036,0.817-0.33,1.004c-0.032,0.017-0.906,0.514-0.38,2.095
		c0.063,0.19,0.049,0.394-0.041,0.573s-0.244,0.313-0.434,0.376C2.163,23.987,2.083,24,2.002,24z"/>
	<path d="M17.002,24c-0.081,0-0.161-0.013-0.238-0.039c-0.189-0.063-0.344-0.197-0.433-0.376c-0.089-0.179-0.104-0.382-0.041-0.572
		c0.525-1.576-0.344-2.075-0.381-2.096c-0.362-0.181-0.513-0.633-0.328-1.002c0.128-0.256,0.385-0.415,0.671-0.415
		c0.115,0,0.231,0.027,0.334,0.078c0.023,0.012,2.068,1.086,1.127,3.909C17.611,23.794,17.325,24,17.002,24z"/>
	<path d="M20.002,24c-0.081,0-0.161-0.013-0.238-0.039c-0.189-0.063-0.344-0.197-0.433-0.376c-0.089-0.179-0.104-0.382-0.041-0.572
		c0.525-1.576-0.344-2.075-0.381-2.096c-0.362-0.181-0.513-0.633-0.328-1.002c0.128-0.256,0.385-0.415,0.671-0.415
		c0.115,0,0.231,0.027,0.334,0.078c0.023,0.012,2.068,1.086,1.127,3.909C20.611,23.794,20.325,24,20.002,24z"/>
	<path d="M7.252,23.25c-0.414,0-0.75-0.336-0.75-0.75s0.336-0.75,0.75-0.75h7.5c0.414,0,0.75,0.336,0.75,0.75s-0.336,0.75-0.75,0.75
		H7.252z"/>
	<path d="M12.126,8.25c-0.045,0-0.089-0.004-0.133-0.012c-0.511-0.062-0.919-0.47-0.98-0.982c-0.008-0.043-0.012-0.087-0.012-0.131
		s0.004-0.088,0.012-0.131c0.06-0.513,0.47-0.922,0.982-0.982C12.039,6.004,12.083,6,12.127,6s0.088,0.004,0.131,0.011
		c0.568,0.067,0.994,0.542,0.994,1.114c0,0.047-0.005,0.094-0.014,0.142c-0.065,0.506-0.472,0.91-0.978,0.971
		C12.216,8.246,12.171,8.25,12.126,8.25L12.126,8.25z"/>
	<path d="M17.752,18.75c-0.409,0-0.745-0.332-0.75-0.741c-0.02-1.603-0.44-3.176-1.219-4.573c-1.566,0.789-3.101,0.813-3.281,0.813
		c-0.414,0-0.75-0.336-0.75-0.75s0.336-0.75,0.75-0.75c0.031,0,3.288-0.059,4.563-2.553c0.588-1.558,0.765-3.249,0.513-4.903
		c-0.063-0.038-0.126-0.079-0.187-0.122L16.032,6.53c-0.141,0.142-0.33,0.22-0.53,0.22c-0.2,0-0.388-0.078-0.53-0.219
		c-0.293-0.292-0.293-0.768,0-1.061l1.422-1.422C16.25,3.79,16.14,3.515,16.067,3.236c-2.489,0.424-7.671,1.648-9.692,4.68
		c-2.262,3.394-2.126,9.999-2.124,10.065c0.005,0.2-0.068,0.39-0.206,0.536C3.907,18.662,3.72,18.745,3.52,18.75c0,0,0,0-0.001,0
		c-0.428,0-0.757-0.321-0.768-0.73c-0.007-0.29-0.153-7.142,2.376-10.935c1.013-1.52,3.777-4.221,10.938-5.369
		c0.158-0.572,0.5-1.03,0.982-1.308c0.316-0.183,0.666-0.275,1.038-0.275c0.311,0,0.627,0.066,0.939,0.195
		c0.263,0.109,0.512,0.26,0.743,0.452l1.399-0.699C21.271,0.027,21.386,0,21.502,0c0.286,0,0.543,0.159,0.671,0.415
		c0.185,0.37,0.034,0.821-0.335,1.006l-1.136,0.568c0.152,0.325,0.25,0.667,0.29,1.011h1.261c0.414,0,0.75,0.336,0.75,0.75
		s-0.336,0.75-0.75,0.75h-1.485c-0.187,0.386-0.471,0.696-0.834,0.905c-0.247,0.143-0.515,0.231-0.798,0.262
		c0.168,1.73-0.065,3.484-0.683,5.1c-0.008,0.021-0.018,0.042-0.028,0.063c-0.344,0.687-0.809,1.283-1.388,1.778
		c0.939,1.652,1.442,3.502,1.465,5.382c0.005,0.414-0.328,0.754-0.741,0.759c-0.001,0-0.003,0-0.004,0H17.752z M18.087,1.633
		c-0.108,0-0.206,0.025-0.29,0.073c-0.172,0.099-0.286,0.301-0.321,0.568c-0.045,0.341,0.042,0.723,0.246,1.075
		c0.203,0.352,0.49,0.619,0.808,0.75c0.127,0.053,0.249,0.079,0.363,0.079c0.108,0,0.206-0.025,0.29-0.073
		c0.172-0.099,0.286-0.301,0.321-0.568c0.045-0.341-0.043-0.723-0.246-1.075c-0.203-0.352-0.49-0.619-0.808-0.75
		C18.323,1.659,18.201,1.633,18.087,1.633z"/>
</g>
</svg>
