<?xml version="1.0" encoding="utf-8"?>
<!-- Generator: Adobe Illustrator 22.1.0, SVG Export Plug-In . SVG Version: 6.00 Build 0)  -->
<svg version="1.1" id="Regular" xmlns="http://www.w3.org/2000/svg" xmlns:xlink="http://www.w3.org/1999/xlink" x="0px" y="0px"
	 viewBox="0 0 24 24" style="enable-background:new 0 0 24 24;" xml:space="preserve">
<title>outdoors-flashlight-1</title>
<g>
	<path d="M4.158,23.748c-0.596,0-1.158-0.23-1.581-0.648l-1.755-1.756c-0.877-0.877-0.877-2.304,0-3.182l5.658-5.658l-0.436-0.436
		c-0.142-0.141-0.22-0.33-0.22-0.53s0.078-0.389,0.22-0.53c0.141-0.142,0.33-0.22,0.53-0.22s0.389,0.078,0.53,0.22l0.436,0.436
		l2.451-2.452c-0.33-0.825-0.143-1.788,0.496-2.427l2.274-2.275c0.283-0.283,0.66-0.439,1.061-0.439c0.401,0,0.778,0.156,1.06,0.438
		l4.738,4.739c0.283,0.283,0.439,0.66,0.439,1.06c0,0.398-0.153,0.772-0.433,1.054c-0.002,0.002-2.281,2.285-2.281,2.285
		c-0.425,0.425-0.99,0.658-1.592,0.658c-0.287,0-0.573-0.056-0.84-0.164L5.749,23.09C5.325,23.514,4.76,23.748,4.158,23.748z
		 M3.634,22.036c0.135,0.135,0.323,0.213,0.524,0.213c0.201,0,0.389-0.078,0.531-0.219l9.038-9.039l-2.804-2.807l-9.04,9.041
		c-0.292,0.292-0.292,0.768,0,1.061l1.735,1.736C3.624,22.026,3.63,22.032,3.634,22.036z M11.548,7.626
		c-0.292,0.292-0.292,0.768,0,1.06l3.677,3.682c0.141,0.141,0.329,0.218,0.53,0.218c0.201,0,0.389-0.078,0.531-0.219l2.274-2.278
		l-4.738-4.739L11.548,7.626z"/>
	<path d="M19.252,5.409c-0.2,0-0.389-0.078-0.53-0.22c-0.142-0.141-0.22-0.33-0.22-0.53s0.078-0.389,0.22-0.53l2.25-2.25
		c0.142-0.142,0.33-0.22,0.53-0.22s0.389,0.078,0.53,0.22c0.142,0.141,0.22,0.33,0.22,0.53s-0.078,0.389-0.22,0.53l-2.25,2.25
		C19.64,5.331,19.452,5.409,19.252,5.409z"/>
	<path d="M20.752,7.659c-0.323,0-0.61-0.206-0.712-0.513c-0.063-0.19-0.049-0.393,0.041-0.572c0.09-0.179,0.244-0.313,0.434-0.376
		l2.25-0.75c0.076-0.026,0.156-0.039,0.238-0.039c0.323,0,0.61,0.206,0.711,0.514c0.063,0.189,0.049,0.393-0.041,0.572
		c-0.09,0.179-0.244,0.313-0.434,0.376l-2.25,0.75C20.913,7.646,20.833,7.659,20.752,7.659z"/>
	<path d="M17.002,3.909c-0.081,0-0.161-0.013-0.238-0.039c-0.189-0.063-0.344-0.197-0.433-0.376
		c-0.089-0.179-0.104-0.382-0.041-0.572l0.75-2.25c0.102-0.307,0.387-0.513,0.711-0.513c0.081,0,0.161,0.013,0.239,0.039
		c0.189,0.063,0.343,0.197,0.433,0.376c0.089,0.179,0.104,0.382,0.041,0.572l-0.75,2.25C17.611,3.703,17.325,3.909,17.002,3.909z"/>
</g>
</svg>
