<?xml version="1.0" encoding="utf-8"?>
<!-- Generator: Adobe Illustrator 22.1.0, SVG Export Plug-In . SVG Version: 6.00 Build 0)  -->
<svg version="1.1" id="Regular" xmlns="http://www.w3.org/2000/svg" xmlns:xlink="http://www.w3.org/1999/xlink" x="0px" y="0px"
	 viewBox="0 0 24 24" style="enable-background:new 0 0 24 24;" xml:space="preserve">
<title>outdoors-barbeque</title>
<g>
	<path d="M20.25,19c-0.351,0-0.659-0.249-0.733-0.593L18.679,14.5H5.321l-0.837,3.907C4.41,18.751,4.101,19,3.75,19
		c-0.052,0-0.105-0.006-0.157-0.016c-0.405-0.087-0.663-0.486-0.577-0.891l0.77-3.593H0.75C0.336,14.5,0,14.164,0,13.75
		S0.336,13,0.75,13h3.358l1.004-4.685C4.295,7.966,3.75,7.161,3.75,6.25C3.75,5.009,4.759,4,6,4h12c1.241,0,2.25,1.009,2.25,2.25
		c0,0.911-0.545,1.716-1.362,2.065L19.892,13h3.358c0.414,0,0.75,0.336,0.75,0.75s-0.336,0.75-0.75,0.75h-3.037l0.77,3.593
		c0.087,0.404-0.172,0.804-0.576,0.891C20.354,18.994,20.302,19,20.25,19z M18.358,13l-0.964-4.5H6.606L5.642,13H18.358z M6,5.5
		c-0.414,0-0.75,0.336-0.75,0.75S5.586,7,6,7h12c0.414,0,0.75-0.336,0.75-0.75S18.414,5.5,18,5.5H6z"/>
</g>
</svg>
