<?xml version="1.0" encoding="utf-8"?>
<!-- Generator: Adobe Illustrator 22.1.0, SVG Export Plug-In . SVG Version: 6.00 Build 0)  -->
<svg version="1.1" id="Regular" xmlns="http://www.w3.org/2000/svg" xmlns:xlink="http://www.w3.org/1999/xlink" x="0px" y="0px"
	 viewBox="0 0 24 24" style="enable-background:new 0 0 24 24;" xml:space="preserve">
<title>outdoors-kite-flying</title>
<g>
	<path d="M1.259,24.002c-0.2,0-0.389-0.078-0.53-0.22c-0.292-0.292-0.292-0.768,0-1.061L2.71,20.74
		c1.093-1.093,2.615-1.72,4.175-1.72c0.845,0,1.661,0.176,2.426,0.524c0.574,0.261,1.183,0.393,1.809,0.393
		c1.722,0,3.293-1.01,4.004-2.574c0.041-0.09,0.079-0.181,0.114-0.274l0.039-0.089c-0.107-0.093-0.201-0.2-0.279-0.321l-5.51-8.994
		c-0.193-0.302-0.269-0.672-0.21-1.037c0.004-0.034,0.014-0.08,0.028-0.125c0.075-0.296,0.232-0.557,0.456-0.756l5.474-5.361
		c0.295-0.264,0.656-0.403,1.03-0.403c0.367,0,0.72,0.135,0.995,0.38l5.526,5.409c0.534,0.474,0.64,1.281,0.239,1.907l-5.496,8.966
		c-0.182,0.282-0.437,0.488-0.735,0.602l-0.167,0.385c-0.032,0.088-0.083,0.212-0.138,0.333c-0.954,2.098-3.062,3.454-5.371,3.454
		c0,0,0,0,0,0c-0.841,0-1.658-0.177-2.428-0.528c-0.569-0.259-1.177-0.39-1.806-0.39c-1.164,0-2.298,0.467-3.113,1.281l-1.982,1.982
		C1.648,23.924,1.459,24.002,1.259,24.002z M17.009,14.642l4.376-7.14h-4.376V14.642z M15.509,14.641V7.502h-4.373L15.509,14.641z
		 M20.858,6.002l-3.85-3.769v3.769H20.858z M15.509,6.002V2.237l-3.845,3.765H15.509z"/>
</g>
</svg>
