<?xml version="1.0" encoding="utf-8"?>
<!-- Generator: Adobe Illustrator 22.1.0, SVG Export Plug-In . SVG Version: 6.00 Build 0)  -->
<svg version="1.1" id="Regular" xmlns="http://www.w3.org/2000/svg" xmlns:xlink="http://www.w3.org/1999/xlink" x="0px" y="0px"
	 viewBox="0 0 24 24" style="enable-background:new 0 0 24 24;" xml:space="preserve">
<title>outdoors-backpack</title>
<g>
	<path d="M1.5,23.5C0.673,23.5,0,22.827,0,22v-3.75c0-2.068,1.682-3.75,3.75-3.75H4.5v-6H3.25C2.285,8.5,1.5,7.715,1.5,6.75v-4
		C1.5,1.785,2.285,1,3.25,1h17.5c0.965,0,1.75,0.785,1.75,1.75v4c0,0.965-0.785,1.75-1.75,1.75H19.5v6h0.75
		c2.068,0,3.75,1.682,3.75,3.75V22c0,0.827-0.673,1.5-1.5,1.5H1.5z M22.5,22v-3.75c0-1.241-1.009-2.25-2.25-2.25H19.5v6H22.5z
		 M18,22V11.736c-1.509,1.186-3.306,1.883-5.25,2.032v0.781c0,0.414-0.336,0.75-0.75,0.75s-0.75-0.336-0.75-0.75v-0.78
		C9.321,13.625,7.523,12.928,6,11.733V22h2.25v-2.25c0-0.827,0.673-1.5,1.5-1.5h4.5c0.827,0,1.5,0.673,1.5,1.5V22H18z M14.25,22
		v-2.25h-4.5l0,2.25H14.25z M3.75,16c-1.241,0-2.25,1.009-2.25,2.25V22h3v-6H3.75z M12,10.799c0.414,0,0.75,0.336,0.75,0.75v0.714
		c2.011-0.182,3.863-1.084,5.25-2.557V8.5H6v1.205c0.182,0.194,0.365,0.372,0.543,0.53c1.334,1.177,2.954,1.873,4.707,2.028v-0.714
		C11.25,11.135,11.586,10.799,12,10.799z M20.75,7C20.888,7,21,6.888,21,6.75v-4c0-0.138-0.112-0.25-0.25-0.25H18V7H20.75z M16.5,7
		V2.5h-9V7H16.5z M3.25,2.5C3.112,2.5,3,2.612,3,2.75v4C3,6.888,3.112,7,3.25,7H6V2.5H3.25z"/>
</g>
</svg>
