<?xml version="1.0" encoding="utf-8"?>
<!-- Generator: Adobe Illustrator 22.1.0, SVG Export Plug-In . SVG Version: 6.00 Build 0)  -->
<svg version="1.1" id="Regular" xmlns="http://www.w3.org/2000/svg" xmlns:xlink="http://www.w3.org/1999/xlink" x="0px" y="0px"
	 viewBox="0 0 24 24" style="enable-background:new 0 0 24 24;" xml:space="preserve">
<title>outdoors-backpack-1</title>
<g>
	<path d="M8.25,20.25c-0.414,0-0.75-0.336-0.75-0.75V18H6.75C6.336,18,6,17.664,6,17.25s0.336-0.75,0.75-0.75h10.5
		c0.414,0,0.75,0.336,0.75,0.75S17.664,18,17.25,18H9v1.5C9,19.914,8.664,20.25,8.25,20.25z"/>
	<path d="M3.75,24C1.682,24,0,22.318,0,20.25V18c0-1.799,1.268-3.323,3-3.673V9c0-1.994,0.643-3.885,1.859-5.469
		C4.875,3.505,4.89,3.48,4.909,3.457c1.317-1.686,3.189-2.848,5.272-3.272c0.154-0.031,0.287-0.055,0.421-0.076l0.104-0.015
		c0.115-0.016,0.229-0.032,0.343-0.044c0.046-0.005,0.092-0.008,0.138-0.012l0.113-0.009c0.072-0.006,0.144-0.012,0.216-0.016
		c0.135-0.007,0.272-0.01,0.409-0.012L11.993,0l0.064,0.001c0.156,0.002,0.293,0.005,0.429,0.012
		c0.071,0.004,0.143,0.01,0.214,0.016c0,0,0.206,0.017,0.251,0.021c0.115,0.012,0.229,0.027,0.343,0.044l0.104,0.015
		c0.135,0.021,0.269,0.045,0.401,0.072c2.103,0.427,3.975,1.589,5.292,3.275c0.019,0.024,0.035,0.049,0.05,0.075
		C20.357,5.116,21,7.006,21,9v5.327c1.732,0.35,3,1.874,3,3.673v2.25c0,2.068-1.682,3.75-3.75,3.75H3.75z M19.5,22.5V9
		c0-1.066-0.227-2.114-0.663-3.078l-0.346,1.614c-0.356,1.66-1.809,2.88-3.491,2.96v0.754c0,0.414-0.336,0.75-0.75,0.75
		s-0.75-0.336-0.75-0.75V10.5h-3v0.75c0,0.414-0.336,0.75-0.75,0.75S9,11.664,9,11.25v-0.754c-1.683-0.08-3.135-1.3-3.491-2.96
		L5.163,5.922C4.727,6.886,4.5,7.934,4.5,9v13.5H19.5z M21,22.371c0.879-0.313,1.5-1.159,1.5-2.121V18
		c0-0.962-0.621-1.808-1.5-2.121V22.371z M3,15.879C2.121,16.192,1.5,17.038,1.5,18v2.25c0,0.962,0.621,1.808,1.5,2.121V15.879z
		 M13.5,9V8.25c0-0.414,0.336-0.75,0.75-0.75S15,7.836,15,8.25v0.743c0.98-0.078,1.816-0.798,2.025-1.771L17.69,4.12
		c-1.169-1.362-2.773-2.258-4.537-2.531c-0.001,0-0.05-0.007-0.052-0.007c-0.106-0.016-0.212-0.03-0.318-0.041l-0.125-0.01
		c-0.098-0.009-0.178-0.016-0.258-0.02c-0.103-0.005-0.206-0.007-0.31-0.009L12,1.5l-0.088,0.002
		c-0.104,0.001-0.208,0.003-0.311,0.009c-0.083,0.004-0.166,0.012-0.249,0.019l-0.134,0.011c-0.107,0.011-0.214,0.025-0.319,0.041
		c-0.002,0-0.027,0.004-0.029,0.004C9.085,1.862,7.479,2.758,6.31,4.12l0.665,3.102C7.184,8.195,8.02,8.916,9,8.993V8.25
		C9,7.836,9.336,7.5,9.75,7.5s0.75,0.336,0.75,0.75V9H13.5z"/>
</g>
</svg>
