<?xml version="1.0" encoding="utf-8"?>
<!-- Generator: Adobe Illustrator 22.1.0, SVG Export Plug-In . SVG Version: 6.00 Build 0)  -->
<svg version="1.1" id="Regular" xmlns="http://www.w3.org/2000/svg" xmlns:xlink="http://www.w3.org/1999/xlink" x="0px" y="0px"
	 viewBox="0 0 24 24" style="enable-background:new 0 0 24 24;" xml:space="preserve">
<title>outdoors-camp-fire-make</title>
<g>
	<path d="M21.621,12c-0.2,0-0.389-0.078-0.53-0.22l-0.53-0.53l-0.53,0.53C19.889,11.922,19.7,12,19.5,12s-0.389-0.078-0.53-0.22
		c-0.142-0.142-0.22-0.33-0.22-0.53c0-0.2,0.078-0.389,0.22-0.53l0.53-0.53l-0.53-0.53c-0.142-0.141-0.22-0.33-0.22-0.53
		c0-0.2,0.078-0.389,0.22-0.53c0.142-0.142,0.33-0.22,0.53-0.22s0.389,0.078,0.53,0.22l0.53,0.53l0.53-0.53
		c0.142-0.142,0.33-0.22,0.53-0.22s0.389,0.078,0.53,0.22c0.142,0.142,0.22,0.33,0.22,0.53c0,0.2-0.078,0.389-0.22,0.53l-0.53,0.53
		l0.53,0.53c0.142,0.141,0.22,0.33,0.22,0.53c0,0.2-0.078,0.389-0.22,0.53C22.01,11.922,21.821,12,21.621,12z"/>
	<path d="M7.5,8.25c-0.2,0-0.389-0.078-0.53-0.22L6.439,7.5l-0.53,0.53c-0.142,0.142-0.33,0.22-0.53,0.22S4.99,8.172,4.849,8.03
		C4.707,7.889,4.629,7.7,4.629,7.5s0.078-0.389,0.22-0.53l0.53-0.53l-0.53-0.53c-0.142-0.141-0.22-0.33-0.22-0.53
		s0.078-0.389,0.22-0.53c0.141-0.142,0.33-0.22,0.53-0.22s0.389,0.078,0.53,0.22l0.53,0.53l0.53-0.53
		c0.142-0.142,0.33-0.22,0.53-0.22s0.389,0.078,0.53,0.22c0.142,0.141,0.22,0.33,0.22,0.53s-0.078,0.389-0.22,0.53L7.5,6.439
		l0.53,0.53C8.172,7.111,8.25,7.3,8.25,7.5S8.172,7.889,8.03,8.03C7.889,8.172,7.7,8.25,7.5,8.25z"/>
	<path d="M18.75,16.5c-0.414,0-0.75-0.336-0.75-0.75S18.336,15,18.75,15h4.5c0.414,0,0.75,0.336,0.75,0.75s-0.336,0.75-0.75,0.75
		H18.75z"/>
	<path d="M4.5,24C2.019,24,0,21.981,0,19.5S2.019,15,4.5,15h6c0.414,0,0.75,0.336,0.75,0.75s-0.336,0.75-0.75,0.75H7.848
		C8.581,17.318,9,18.385,9,19.5s-0.419,2.182-1.152,3H23.25c0.414,0,0.75,0.336,0.75,0.75S23.664,24,23.25,24H4.5z M4.5,16.5
		c-1.654,0-3,1.346-3,3s1.346,3,3,3s3-1.346,3-3S6.154,16.5,4.5,16.5z"/>
	<path d="M14.625,16.5C13.177,16.5,12,15.323,12,13.875V0.75C12,0.336,12.336,0,12.75,0s0.75,0.336,0.75,0.75v13.125
		c0,0.62,0.505,1.125,1.125,1.125s1.125-0.505,1.125-1.125V0.75C15.75,0.336,16.086,0,16.5,0s0.75,0.336,0.75,0.75v13.125
		C17.25,15.323,16.073,16.5,14.625,16.5z"/>
</g>
</svg>
