<?xml version="1.0" encoding="utf-8"?>
<!-- Generator: Adobe Illustrator 22.1.0, SVG Export Plug-In . SVG Version: 6.00 Build 0)  -->
<svg version="1.1" id="Regular" xmlns="http://www.w3.org/2000/svg" xmlns:xlink="http://www.w3.org/1999/xlink" x="0px" y="0px"
	 viewBox="0 0 24 24" style="enable-background:new 0 0 24 24;" xml:space="preserve">
<title>outdoors-bird-house-1</title>
<g>
	<path d="M12.75,24C12.336,24,12,23.664,12,23.25v-4.5H8.25c-2.068,0-3.75-1.682-3.75-3.75v-0.75H3.005
		c-1.241,0-2.25-1.009-2.25-2.25c0-1.115,0.817-2.052,1.896-2.222C3.069,9.039,3.792,8.5,4.624,8.32
		C4.833,8.274,5.047,8.251,5.26,8.251c1.098,0,2.092,0.594,2.615,1.538C7.991,9.767,8.109,9.754,8.229,9.75c0,0,0,0,0,0
		C9.486,9.75,10.5,10.76,10.5,12c0,1.241-1.009,2.25-2.25,2.25H6V15c0,1.241,1.009,2.25,2.25,2.25H12v-9H9.75
		C9.336,8.25,9,7.914,9,7.5V4.151L8.666,4.374C8.542,4.456,8.399,4.5,8.25,4.5c-0.252,0-0.485-0.125-0.624-0.334
		C7.397,3.822,7.49,3.355,7.834,3.126l4.5-3C12.457,0.044,12.601,0,12.75,0s0.292,0.044,0.416,0.126l4.5,3
		c0.167,0.111,0.28,0.28,0.32,0.477c0.039,0.196,0,0.396-0.112,0.563C17.734,4.375,17.501,4.5,17.25,4.5
		c-0.148,0-0.292-0.043-0.416-0.126L16.5,4.151V7.5c0,0.414-0.336,0.75-0.75,0.75H13.5V21h3c1.241,0,2.25-1.009,2.25-2.25H18
		c-1.417-0.002-2.62-0.97-2.925-2.353c-0.355-1.615,0.669-3.219,2.283-3.574c0.215-0.047,0.434-0.071,0.651-0.071
		c0.569,0,1.125,0.164,1.609,0.473c0.423,0.27,0.766,0.635,1.006,1.065c0.116-0.022,0.235-0.035,0.354-0.039h0
		c1.257,0,2.271,1.009,2.271,2.25c0,1.241-1.009,2.25-2.25,2.25h-0.75c0,2.068-1.682,3.75-3.75,3.75h-3v0.75
		C13.5,23.664,13.163,24,12.75,24z M18.007,14.251c-0.108,0-0.218,0.012-0.326,0.036c-0.807,0.178-1.319,0.979-1.141,1.787
		c0.153,0.691,0.753,1.175,1.461,1.176H21c0.414,0,0.75-0.336,0.75-0.75s-0.336-0.75-0.75-0.75c-0.12,0.004-0.254,0.05-0.366,0.129
		c-0.126,0.09-0.277,0.138-0.433,0.138c-0.093,0-0.184-0.017-0.27-0.05c-0.236-0.091-0.408-0.292-0.463-0.538
		c-0.086-0.392-0.319-0.726-0.657-0.941C18.568,14.333,18.291,14.251,18.007,14.251z M2.936,11.253
		C2.556,11.289,2.255,11.614,2.255,12c0,0.414,0.336,0.75,0.75,0.75H8.25C8.664,12.75,9,12.414,9,12s-0.336-0.75-0.75-0.75
		c-0.12,0.004-0.254,0.05-0.367,0.129c-0.127,0.09-0.277,0.138-0.433,0.138c-0.093,0-0.184-0.017-0.271-0.051
		c-0.236-0.092-0.408-0.294-0.462-0.54c-0.148-0.681-0.761-1.175-1.458-1.175c-0.106,0-0.213,0.011-0.317,0.034
		c-0.51,0.111-0.93,0.486-1.096,0.98c-0.103,0.305-0.389,0.51-0.711,0.51C3.057,11.276,2.99,11.266,2.936,11.253z M15,6.75V3.151
		l-2.25-1.5l-2.25,1.5V6.75H12v-1.5c0-0.414,0.336-0.75,0.75-0.75s0.75,0.336,0.75,0.75v1.5H15z"/>
</g>
</svg>
