<?xml version="1.0" encoding="utf-8"?>
<!-- Generator: Adobe Illustrator 22.1.0, SVG Export Plug-In . SVG Version: 6.00 Build 0)  -->
<svg version="1.1" id="Regular" xmlns="http://www.w3.org/2000/svg" xmlns:xlink="http://www.w3.org/1999/xlink" x="0px" y="0px"
	 viewBox="0 0 24 24" style="enable-background:new 0 0 24 24;" xml:space="preserve">
<title>outdoors-water-flask</title>
<g>
	<path d="M5.75,24c-0.523,0-1.032-0.108-1.514-0.322c-0.002,0-0.025-0.01-0.047-0.022C2.862,23.049,2,21.711,2,20.25V15
		c0-2.367,0.863-4.65,2.431-6.432c0.015-0.023,0.034-0.049,0.06-0.076C4.5,8.483,4.511,8.474,4.522,8.465
		C5.484,7.402,6.682,6.555,8,6.003V2.25C8,1.009,9.009,0,10.25,0h3c1.241,0,2.25,1.009,2.25,2.25v3.753
		c1.319,0.552,2.516,1.399,3.479,2.462c0.011,0.009,0.021,0.018,0.03,0.026c0.027,0.027,0.047,0.054,0.061,0.077
		C20.633,10.34,21.5,12.628,21.5,15v5.25c0,1.46-0.862,2.799-2.196,3.409c-0.016,0.009-0.039,0.02-0.063,0.029
		C18.782,23.892,18.273,24,17.75,24H5.75z M17.439,22.5l-5.689-5.689L6.061,22.5H17.439z M5.085,10.146
		C4.06,11.551,3.5,13.259,3.5,15v5.25c0,0.706,0.338,1.37,0.896,1.793l6.293-6.293L5.085,10.146z M19.104,22.043
		C19.663,21.62,20,20.956,20,20.25V15c0-1.741-0.56-3.449-1.585-4.854l-5.604,5.604L19.104,22.043z M11.75,14.689l5.672-5.672
		C15.881,7.552,13.881,6.75,11.75,6.75c-2.131,0-4.131,0.802-5.672,2.267L11.75,14.689z M11.75,5.25c0.757,0,1.512,0.089,2.25,0.265
		V2.25c0-0.414-0.336-0.75-0.75-0.75h-3C9.836,1.5,9.5,1.836,9.5,2.25v3.265C10.238,5.339,10.993,5.25,11.75,5.25z"/>
</g>
</svg>
