<?xml version="1.0" encoding="utf-8"?>
<!-- Generator: Adobe Illustrator 22.1.0, SVG Export Plug-In . SVG Version: 6.00 Build 0)  -->
<svg version="1.1" id="Regular" xmlns="http://www.w3.org/2000/svg" xmlns:xlink="http://www.w3.org/1999/xlink" x="0px" y="0px"
	 viewBox="0 0 24 24" style="enable-background:new 0 0 24 24;" xml:space="preserve">
<title>outdoors-camp-fire</title>
<g>
	<path d="M12.164,16.005c-3.494,0-6.337-2.841-6.337-6.332C5.684,7.514,6.841,5.42,8.775,4.363c0.111-0.06,0.235-0.092,0.36-0.092
		c0.116,0,0.232,0.027,0.335,0.079C9.69,4.46,9.842,4.67,9.877,4.913c0.088,0.606,0.548,1.078,1.131,1.196
		c0.579-1.292,0.659-2.783,0.215-4.129c-0.136-0.395-0.097-0.837,0.111-1.21c0.265-0.475,0.767-0.77,1.312-0.77
		c0.252,0,0.503,0.065,0.724,0.188c3.467,1.863,5.477,5.602,5.119,9.526c-0.063,3.481-2.837,6.244-6.321,6.291
		C12.167,16.005,12.166,16.005,12.164,16.005z M8.765,6.187C7.784,7.039,7.24,8.318,7.325,9.625c0.002,2.702,2.17,4.881,4.834,4.881
		c2.671-0.037,4.795-2.164,4.832-4.842c0-0.023,0.002-0.042,0.003-0.061c0.314-3.333-1.389-6.511-4.339-8.096
		c0.617,1.898,0.424,3.989-0.537,5.737c-0.122,0.222-0.346,0.367-0.599,0.386c-0.076,0.006-0.153,0.009-0.229,0.009
		C10.247,7.638,9.285,7.071,8.765,6.187z"/>
	<path d="M2,24.001c-0.319,0-0.604-0.203-0.709-0.505c-0.066-0.189-0.053-0.393,0.034-0.573c0.088-0.18,0.24-0.316,0.429-0.381
		l19.5-6.75c0.079-0.028,0.162-0.042,0.245-0.042c0.32,0,0.605,0.203,0.709,0.506c0.065,0.188,0.053,0.392-0.034,0.572
		c-0.087,0.18-0.24,0.316-0.43,0.381l-19.5,6.75C2.167,23.987,2.084,24.001,2,24.001z"/>
	<path d="M7.164,19.039c-0.084,0-0.167-0.014-0.246-0.042l-5.163-1.788c-0.189-0.065-0.342-0.201-0.429-0.381
		c-0.088-0.18-0.1-0.384-0.034-0.573c0.105-0.302,0.389-0.505,0.708-0.505c0.084,0,0.167,0.014,0.247,0.042l5.163,1.788
		c0.189,0.065,0.342,0.201,0.429,0.381c0.088,0.18,0.1,0.384,0.034,0.573C7.768,18.836,7.483,19.039,7.164,19.039z"/>
	<path d="M21.5,24.001c-0.084,0-0.167-0.014-0.246-0.042l-5.164-1.788c-0.189-0.065-0.342-0.201-0.429-0.381
		c-0.088-0.18-0.1-0.384-0.034-0.573c0.104-0.302,0.389-0.505,0.708-0.505c0.084,0,0.167,0.014,0.246,0.042l5.164,1.788
		c0.189,0.065,0.342,0.201,0.429,0.381c0.088,0.18,0.1,0.384,0.034,0.573C22.104,23.798,21.82,24.001,21.5,24.001z"/>
</g>
</svg>
