<?xml version="1.0" encoding="utf-8"?>
<!-- Generator: Adobe Illustrator 22.1.0, SVG Export Plug-In . SVG Version: 6.00 Build 0)  -->
<svg version="1.1" id="Regular" xmlns="http://www.w3.org/2000/svg" xmlns:xlink="http://www.w3.org/1999/xlink" x="0px" y="0px"
	 viewBox="0 0 24 24" style="enable-background:new 0 0 24 24;" xml:space="preserve">
<title>outdoors-barn-bench</title>
<g>
	<path d="M3.75,23.999c-1.241,0-2.25-1.009-2.25-2.25V11.727l-0.433,0.202C0.967,11.976,0.86,12,0.75,12
		c-0.29,0-0.557-0.17-0.68-0.433c-0.175-0.375-0.012-0.822,0.362-0.997l22.5-10.5c0.101-0.047,0.207-0.071,0.318-0.071
		c0.29,0,0.556,0.17,0.679,0.433c0.175,0.375,0.012,0.822-0.362,0.997L3,11.027v10.722c0,0.414,0.336,0.75,0.75,0.75h19.5
		c0.414,0,0.75,0.336,0.75,0.75s-0.336,0.75-0.75,0.75H3.75z"/>
	<path d="M18.75,20.999c-0.309,0-0.582-0.185-0.696-0.472l-1.011-2.528h-5.584l-1.011,2.528c-0.114,0.287-0.388,0.472-0.696,0.472
		c-0.096,0-0.19-0.018-0.279-0.054c-0.186-0.074-0.332-0.217-0.41-0.401c-0.079-0.184-0.081-0.388-0.007-0.574l0.789-1.971H7.5
		c-0.414,0-0.75-0.336-0.75-0.75s0.336-0.75,0.75-0.75h2.942l1.2-3H9.75c-0.414,0-0.75-0.336-0.75-0.75s0.336-0.75,0.75-0.75h9
		c0.414,0,0.75,0.336,0.75,0.75s-0.336,0.75-0.75,0.75h-1.892l1.2,3H21c0.414,0,0.75,0.336,0.75,0.75s-0.336,0.75-0.75,0.75h-2.342
		l0.789,1.972c0.074,0.186,0.072,0.39-0.007,0.574c-0.079,0.184-0.225,0.327-0.411,0.401C18.94,20.981,18.846,20.999,18.75,20.999z
		 M16.442,16.499l-1.2-3h-1.984l-1.2,3H16.442z"/>
</g>
</svg>
