<?xml version="1.0" encoding="utf-8"?>
<!-- Generator: Adobe Illustrator 22.1.0, SVG Export Plug-In . SVG Version: 6.00 Build 0)  -->
<svg version="1.1" id="Regular" xmlns="http://www.w3.org/2000/svg" xmlns:xlink="http://www.w3.org/1999/xlink" x="0px" y="0px"
	 viewBox="0 0 24 24" style="enable-background:new 0 0 24 24;" xml:space="preserve">
<title>outdoors-water-sun</title>
<g>
	<path d="M21.014,18.188c-1.662,0-3.285-0.632-4.511-1.745c-1.23,1.126-2.816,1.741-4.506,1.741c-1.593,0-3.135-0.57-4.342-1.606
		c-0.052-0.044-0.103-0.09-0.154-0.136c-1.225,1.111-2.847,1.742-4.507,1.742c0,0,0,0,0,0c-0.868,0-1.718-0.167-2.525-0.495
		c-0.383-0.156-0.568-0.594-0.412-0.977c0.115-0.284,0.388-0.468,0.695-0.468c0.097,0,0.193,0.019,0.283,0.056
		c0.626,0.254,1.286,0.384,1.96,0.384c1.514,0,2.951-0.658,3.941-1.806c0.142-0.165,0.349-0.26,0.568-0.26
		c0.22,0,0.427,0.096,0.569,0.262c0.171,0.2,0.36,0.388,0.56,0.56c0.936,0.803,2.132,1.245,3.367,1.245
		c1.517,0,2.951-0.658,3.935-1.805c0.143-0.167,0.35-0.262,0.569-0.262s0.426,0.095,0.569,0.261c0.99,1.15,2.428,1.809,3.944,1.809
		c0.672,0,1.33-0.129,1.956-0.382c0.091-0.037,0.185-0.055,0.281-0.055c0.307,0,0.58,0.184,0.695,0.468
		c0.156,0.384-0.03,0.822-0.413,0.978C22.728,18.023,21.88,18.188,21.014,18.188z"/>
	<path d="M21.013,22.502c-1.662,0-3.286-0.632-4.512-1.746c-0.051,0.046-0.102,0.092-0.154,0.136
		c-1.208,1.035-2.75,1.605-4.343,1.605c-1.69,0-3.276-0.615-4.506-1.741c-1.226,1.113-2.849,1.745-4.51,1.745
		c-0.867,0-1.715-0.166-2.521-0.493c-0.383-0.155-0.568-0.594-0.413-0.977c0.116-0.285,0.389-0.469,0.695-0.469
		c0.097,0,0.193,0.019,0.283,0.056c0.625,0.254,1.283,0.382,1.956,0.382c1.516,0,2.953-0.659,3.943-1.809
		c0.143-0.166,0.344-0.261,0.552-0.261c0.007,0,0.039,0.001,0.04,0.001c0.197,0,0.404,0.095,0.546,0.261
		c0.984,1.147,2.418,1.805,3.935,1.805c1.235,0,2.431-0.442,3.367-1.245c0.2-0.171,0.388-0.36,0.56-0.56
		c0.142-0.166,0.35-0.262,0.569-0.262c0.219,0,0.426,0.095,0.569,0.261c0.991,1.15,2.428,1.809,3.945,1.809
		c0.672,0,1.33-0.129,1.955-0.382c0.091-0.037,0.185-0.055,0.281-0.055c0.307,0,0.581,0.184,0.696,0.468
		c0.155,0.383-0.031,0.822-0.413,0.977C22.726,22.336,21.879,22.502,21.013,22.502L21.013,22.502z"/>
	<path d="M18,13.501c-0.414,0-0.75-0.336-0.75-0.75c0-2.895-2.355-5.25-5.25-5.25s-5.25,2.355-5.25,5.25
		c0,0.414-0.336,0.75-0.75,0.75s-0.75-0.336-0.75-0.75c0-3.722,3.028-6.75,6.75-6.75c3.722,0,6.75,3.028,6.75,6.75
		C18.75,13.165,18.414,13.501,18,13.501z"/>
	<path d="M0.751,13.501c-0.414,0-0.75-0.336-0.75-0.75s0.336-0.75,0.75-0.75h2.25c0.414,0,0.75,0.336,0.75,0.75
		s-0.336,0.75-0.75,0.75H0.751z"/>
	<path d="M21.001,13.501c-0.414,0-0.75-0.336-0.75-0.75s0.336-0.75,0.75-0.75h2.25c0.414,0,0.75,0.336,0.75,0.75
		s-0.336,0.75-0.75,0.75H21.001z"/>
	<path d="M12.001,5.251c-0.414,0-0.75-0.336-0.75-0.75v-2.25c0-0.414,0.336-0.75,0.75-0.75c0.413,0,0.75,0.336,0.75,0.75v2.25
		C12.751,4.915,12.415,5.251,12.001,5.251z"/>
	<path d="M18.001,7.501c-0.2,0-0.389-0.078-0.53-0.22c-0.142-0.141-0.22-0.33-0.22-0.53s0.078-0.389,0.22-0.53l1.5-1.5
		c0.142-0.142,0.33-0.22,0.53-0.22s0.389,0.078,0.53,0.22c0.142,0.141,0.22,0.33,0.22,0.53s-0.078,0.389-0.22,0.53l-1.5,1.5
		C18.39,7.423,18.201,7.501,18.001,7.501z"/>
	<path d="M6.001,7.501c-0.2,0-0.389-0.078-0.53-0.22l-1.5-1.5c-0.142-0.141-0.22-0.33-0.22-0.53s0.078-0.389,0.22-0.53
		c0.141-0.142,0.33-0.22,0.53-0.22s0.389,0.078,0.53,0.22l1.5,1.5c0.142,0.141,0.22,0.33,0.22,0.53s-0.078,0.389-0.22,0.53
		C6.39,7.423,6.201,7.501,6.001,7.501z"/>
</g>
</svg>
