<?xml version="1.0" encoding="utf-8"?>
<!-- Generator: Adobe Illustrator 22.1.0, SVG Export Plug-In . SVG Version: 6.00 Build 0)  -->
<svg version="1.1" id="Regular" xmlns="http://www.w3.org/2000/svg" xmlns:xlink="http://www.w3.org/1999/xlink" x="0px" y="0px"
	 viewBox="0 0 24 24" style="enable-background:new 0 0 24 24;" xml:space="preserve">
<title>outdoors-camp-flame</title>
<g>
	<path d="M12,12.31c-1.654,0-3-1.346-3-3c0-0.826,0.152-1.112,0.384-1.453c0.05-0.074,0.098-0.144,0.148-0.241
		C9.648,7.39,9.87,7.239,10.124,7.214c0.025-0.002,0.05-0.004,0.074-0.004c0.229,0,0.443,0.103,0.586,0.282
		c0.161,0.201,0.336,0.373,0.474,0.492c0.065-0.255,0.126-0.722,0.096-1.486c-0.027-0.661,0.49-1.22,1.151-1.247l0.045-0.001
		c0.361,0,0.687,0.151,0.919,0.425c0.897,0.965,1.444,2.244,1.529,3.588C14.999,9.271,15,9.302,15,9.31
		C15,10.964,13.654,12.31,12,12.31z M10.5,9.31c0,0.827,0.673,1.5,1.5,1.5c0.818,0,1.488-0.662,1.5-1.478
		c-0.049-0.711-0.274-1.4-0.647-2.001c-0.059,1.196-0.374,1.903-0.968,2.199c-0.143,0.072-0.3,0.109-0.465,0.109
		c-0.289,0-0.597-0.115-0.92-0.343C10.5,9.302,10.5,9.306,10.5,9.31z"/>
	<path d="M6.25,24c-0.965,0-1.75-0.785-1.75-1.75V17.5c0-0.965,0.785-1.75,1.75-1.75h3.5v-1.5H7.5c-1.241,0-2.25-1.009-2.25-2.25
		V4.5C4.836,4.5,4.5,4.164,4.5,3.75v-2C4.5,0.785,5.285,0,6.25,0h11.5c0.965,0,1.75,0.785,1.75,1.75v2c0,0.414-0.336,0.75-0.75,0.75
		V12c0,1.241-1.009,2.25-2.25,2.25h-2.25v1.5h3.5c0.965,0,1.75,0.785,1.75,1.75v4.75c0,0.965-0.785,1.75-1.75,1.75H6.25z M6,22.25
		c0,0.138,0.112,0.25,0.25,0.25h11.5c0.138,0,0.25-0.112,0.25-0.25V21h-1.5c-0.414,0-0.75-0.336-0.75-0.75s0.336-0.75,0.75-0.75H18
		v-2c0-0.138-0.112-0.25-0.25-0.25H6.25C6.112,17.25,6,17.362,6,17.5v2h1.5c0.414,0,0.75,0.336,0.75,0.75S7.914,21,7.5,21H6V22.25z
		 M12.75,15.75V13.5c0-0.414,0.336-0.75,0.75-0.75h3c0.414,0,0.75-0.336,0.75-0.75V4.5H6.75V12c0,0.414,0.336,0.75,0.75,0.75h3
		c0.414,0,0.75,0.336,0.75,0.75v2.25H12.75z M18,3V1.75c0-0.138-0.112-0.25-0.25-0.25H6.25C6.112,1.5,6,1.612,6,1.75V3H18z"/>
	<path d="M12,21.375c-0.044,0-0.088-0.004-0.13-0.011c-0.513-0.06-0.923-0.47-0.983-0.982c-0.008-0.043-0.011-0.087-0.011-0.131
		s0.004-0.088,0.011-0.131c0.06-0.513,0.47-0.922,0.983-0.983c0.042-0.007,0.086-0.011,0.13-0.011s0.088,0.004,0.13,0.011
		c0.513,0.061,0.923,0.47,0.983,0.983c0.008,0.042,0.011,0.086,0.011,0.131s-0.004,0.088-0.011,0.131
		c-0.06,0.513-0.47,0.923-0.983,0.983C12.088,21.371,12.044,21.375,12,21.375z"/>
</g>
</svg>
