<?xml version="1.0" encoding="utf-8"?>
<!-- Generator: Adobe Illustrator 22.1.0, SVG Export Plug-In . SVG Version: 6.00 Build 0)  -->
<svg version="1.1" id="Regular" xmlns="http://www.w3.org/2000/svg" xmlns:xlink="http://www.w3.org/1999/xlink" x="0px" y="0px"
	 viewBox="0 0 24 24" style="enable-background:new 0 0 24 24;" xml:space="preserve">
<title>paralympics-football</title>
<g>
	<path d="M12.057,6.75c-1.861,0-3.375-1.514-3.375-3.375S10.196,0,12.057,0c1.861,0,3.375,1.514,3.375,3.375
		S13.918,6.75,12.057,6.75z M12.057,1.5c-1.034,0-1.875,0.841-1.875,1.875s0.841,1.875,1.875,1.875c1.034,0,1.875-0.841,1.875-1.875
		S13.091,1.5,12.057,1.5z"/>
	<path d="M12.057,24c-1.654,0-3-1.346-3-3s1.346-3,3-3c1.654,0,3,1.346,3,3S13.712,24,12.057,24z M12.057,19.5
		c-0.827,0-1.5,0.673-1.5,1.5s0.673,1.5,1.5,1.5c0.827,0,1.5-0.673,1.5-1.5S12.884,19.5,12.057,19.5z"/>
	<path d="M18.799,24c-0.93-0.003-1.775-0.589-2.102-1.459l-1.744-4.66c-0.004-0.011-0.017-0.055-0.019-0.062
		c-0.087-0.184-0.241-0.321-0.436-0.385l-2.259-0.754l-2.461,1.232c-0.725,0.362-1.537,0.553-2.348,0.553
		c-0.673,0-1.33-0.126-1.953-0.376l-2.5-1c-1.152-0.46-1.715-1.772-1.255-2.924c0.223-0.558,0.65-0.996,1.202-1.233
		c0.283-0.122,0.582-0.183,0.887-0.183c0.286,0,0.567,0.054,0.835,0.162l2.5,1c0.09,0.036,0.184,0.054,0.281,0.054
		c0.116,0,0.232-0.028,0.336-0.08l1.864-0.935L9.321,10.5H8.307c-0.25,0-0.482,0.124-0.621,0.332l-0.608,0.912
		c-0.418,0.628-1.12,1.003-1.877,1.003c-0.444,0-0.875-0.13-1.245-0.377c-0.5-0.333-0.84-0.841-0.959-1.431
		c-0.118-0.59,0-1.191,0.332-1.691l0.609-0.914C4.914,6.873,6.544,6,8.301,6h6.755c0.231,0,0.443-0.102,0.585-0.281l2.101-2.625
		c0.429-0.536,1.07-0.844,1.759-0.844c0.509,0,1.007,0.175,1.404,0.492c0.469,0.375,0.764,0.911,0.83,1.509
		c0.066,0.598-0.104,1.186-0.479,1.654l-2.1,2.623c-0.997,1.252-2.489,1.97-4.09,1.97h-1.211l0.257,2.065l1.797,0.6
		c1.513,0.5,2.7,1.645,3.256,3.139c0.419,1.148-0.166,2.438-1.303,2.875c-0.247,0.095-0.505,0.146-0.767,0.151l1.005,2.685
		c0.108,0.29,0.39,0.485,0.699,0.486c0.089,0,0.179-0.016,0.266-0.048c0.185-0.07,0.333-0.208,0.416-0.391
		c0.082-0.181,0.09-0.384,0.021-0.57c-0.107-0.271-0.041-0.587,0.17-0.798c0.142-0.142,0.33-0.22,0.53-0.22s0.389,0.078,0.53,0.22
		c0.076,0.076,0.137,0.171,0.175,0.274c0.209,0.559,0.188,1.169-0.06,1.715c-0.249,0.548-0.696,0.965-1.258,1.176
		C19.335,23.952,19.07,24,18.801,24C18.8,24,18.8,24,18.799,24z M16.384,17.414c0.078,0.157,0.204,0.278,0.366,0.35
		c0.097,0.043,0.2,0.065,0.304,0.065c0.092,0,0.182-0.017,0.27-0.051c0.379-0.146,0.574-0.575,0.435-0.957
		c-0.396-1.062-1.242-1.877-2.322-2.234l-2.247-0.75c-0.272-0.091-0.471-0.334-0.507-0.619l-0.421-3.377
		c-0.027-0.213,0.04-0.428,0.182-0.589C12.587,9.093,12.792,9,13.008,9h2.05c1.153,0,2.217-0.513,2.929-1.406l2.101-2.625
		c0.125-0.156,0.182-0.352,0.16-0.552c-0.022-0.199-0.121-0.378-0.277-0.503c-0.134-0.107-0.296-0.164-0.468-0.164
		c-0.23,0-0.445,0.103-0.588,0.281l-2.1,2.623C16.387,7.192,15.748,7.5,15.06,7.5H8.307c-1.26,0-2.424,0.623-3.12,1.666L4.578,10.08
		c-0.229,0.345-0.135,0.812,0.209,1.042c0.124,0.082,0.267,0.126,0.415,0.126c0.253,0,0.488-0.125,0.627-0.335l0.609-0.914
		C6.859,9.373,7.556,9.001,8.307,9h1.677c0.377,0,0.697,0.282,0.744,0.657l0.454,3.633c0.04,0.314-0.125,0.621-0.408,0.763
		l-2.338,1.172c-0.311,0.156-0.66,0.239-1.009,0.239c-0.289,0-0.571-0.054-0.838-0.162l-2.499-1
		c-0.089-0.035-0.182-0.053-0.276-0.053c-0.31,0-0.584,0.185-0.698,0.472c-0.074,0.186-0.072,0.389,0.008,0.574
		c0.079,0.184,0.225,0.327,0.411,0.401l2.5,1c0.446,0.178,0.916,0.269,1.397,0.269c0.58,0,1.16-0.136,1.677-0.395l2.738-1.371
		c0.104-0.052,0.22-0.079,0.336-0.079c0.081,0,0.161,0.013,0.238,0.039l2.552,0.852c0.65,0.216,1.159,0.709,1.396,1.352
		C16.374,17.38,16.379,17.397,16.384,17.414z"/>
</g>
</svg>
