<?xml version="1.0" encoding="utf-8"?>
<!-- Generator: Adobe Illustrator 22.1.0, SVG Export Plug-In . SVG Version: 6.00 Build 0)  -->
<svg version="1.1" id="Regular" xmlns="http://www.w3.org/2000/svg" xmlns:xlink="http://www.w3.org/1999/xlink" x="0px" y="0px"
	 viewBox="0 0 24 24" style="enable-background:new 0 0 24 24;" xml:space="preserve">
<title>paralympics-archery</title>
<g>
	<path d="M8.647,6.753c-1.861,0-3.375-1.514-3.375-3.375s1.514-3.375,3.375-3.375s3.375,1.514,3.375,3.375S10.508,6.753,8.647,6.753
		z M8.647,1.503c-1.034,0-1.875,0.841-1.875,1.875s0.841,1.875,1.875,1.875s1.875-0.841,1.875-1.875S9.681,1.503,8.647,1.503z"/>
	<path d="M6.761,24.007c-1.163,0-2.317-0.309-3.339-0.892c-3.232-1.847-4.359-5.979-2.513-9.211
		c0.133-0.233,0.383-0.378,0.652-0.378c0.13,0,0.258,0.034,0.371,0.098c0.359,0.206,0.485,0.665,0.279,1.024
		c-0.696,1.218-0.875,2.634-0.506,3.987c0.369,1.353,1.243,2.481,2.461,3.177c0.795,0.454,1.692,0.695,2.596,0.695
		c0.467,0,0.935-0.063,1.391-0.188c1.353-0.369,2.482-1.243,3.177-2.461c0.133-0.233,0.383-0.378,0.652-0.378
		c0.13,0,0.258,0.034,0.371,0.099c0.359,0.205,0.484,0.664,0.28,1.023c-0.895,1.566-2.346,2.69-4.085,3.164
		C7.962,23.926,7.361,24.007,6.761,24.007z"/>
	<path d="M18.774,22.503c-0.671,0-1.302-0.295-1.731-0.809l-2.851-3.42c-0.142-0.173-0.35-0.271-0.571-0.271H8.272
		c-1.241,0-2.25-1.009-2.25-2.25v-1.5c0-0.414,0.336-0.75,0.75-0.75s0.75,0.336,0.75,0.75v1.5c0,0.414,0.336,0.75,0.75,0.75h5.345
		c0.675,0,1.304,0.297,1.73,0.814l2.848,3.417c0.128,0.154,0.309,0.249,0.509,0.267c0.024,0.002,0.047,0.003,0.07,0.003
		c0.174,0,0.344-0.062,0.478-0.174c0.155-0.129,0.25-0.31,0.268-0.509c0.018-0.2-0.042-0.395-0.171-0.549l-2.851-3.419
		c-0.712-0.858-1.76-1.35-2.874-1.35h-2.352c-0.414,0-0.75-0.336-0.75-0.75v-3c0-0.414,0.336-0.75,0.75-0.75h6
		c0.414,0,0.75-0.336,0.75-0.75s-0.336-0.75-0.75-0.75h-4.5c-0.414,0-0.75-0.336-0.75-0.75s0.336-0.75,0.75-0.75h4.5
		c1.241,0,2.25,1.009,2.25,2.25s-1.009,2.25-2.25,2.25h-5.25v1.5h1.595c1.569,0,3.036,0.689,4.034,1.891l2.85,3.418
		c0.385,0.462,0.567,1.046,0.513,1.645c-0.055,0.599-0.339,1.141-0.801,1.526C19.81,22.318,19.299,22.503,18.774,22.503z"/>
	<path d="M21.772,17.353c-0.108,0-0.212-0.023-0.311-0.068c-0.181-0.082-0.321-0.231-0.391-0.418
		c-0.071-0.188-0.064-0.392,0.019-0.574c1.886-4.153,1.886-8.917,0-13.069c-0.083-0.182-0.09-0.386-0.02-0.574
		s0.209-0.337,0.392-0.419c0.098-0.045,0.203-0.067,0.31-0.067c0.294,0,0.562,0.173,0.683,0.44c2.066,4.547,2.066,9.763,0,14.31
		C22.334,17.18,22.065,17.353,21.772,17.353z"/>
	<path d="M3.772,12.003c-1.241,0-2.25-1.009-2.25-2.25s1.009-2.25,2.25-2.25h4.5c1.241,0,2.25,1.009,2.25,2.25
		s-1.009,2.25-2.25,2.25H3.772z M3.772,9.003c-0.414,0-0.75,0.336-0.75,0.75s0.336,0.75,0.75,0.75h4.5c0.414,0,0.75-0.336,0.75-0.75
		s-0.336-0.75-0.75-0.75H3.772z"/>
</g>
</svg>
