<?xml version="1.0" encoding="utf-8"?>
<!-- Generator: Adobe Illustrator 22.1.0, SVG Export Plug-In . SVG Version: 6.00 Build 0)  -->
<svg version="1.1" id="Layer_1" xmlns="http://www.w3.org/2000/svg" xmlns:xlink="http://www.w3.org/1999/xlink" x="0px" y="0px"
	 viewBox="0 0 24 24" style="enable-background:new 0 0 24 24;" xml:space="preserve">
<title>parking-ramp-1</title>
<g>
	<path d="M11.25,24C10.009,24,9,22.991,9,21.75V21H0.75C0.336,21,0,20.664,0,20.25s0.336-0.75,0.75-0.75h12
		c0.414,0,0.75-0.336,0.75-0.75c0-0.252-0.034-0.503-0.102-0.75H9.75C9.336,18,9,17.664,9,17.25s0.336-0.75,0.75-0.75h2.689
		l-1.5-1.5H0.75C0.336,15,0,14.664,0,14.25s0.336-0.75,0.75-0.75h9.415L8.845,9.973C8.627,9.391,8.062,9,7.441,9H0.75
		C0.336,9,0,8.664,0,8.25S0.336,7.5,0.75,7.5h6.691c1.243,0,2.372,0.782,2.808,1.947l1.641,4.383l1.829,1.829
		c0.354,0.355,0.645,0.77,0.863,1.233c0.015,0.028,0.029,0.057,0.041,0.087C14.873,17.542,15,18.138,15,18.75
		c0,0.96-0.615,1.808-1.5,2.122v0.879C13.5,22.991,12.491,24,11.25,24z M10.5,21.75c0,0.414,0.336,0.75,0.75,0.75
		S12,22.164,12,21.75V21h-1.5V21.75z"/>
	<path d="M18.25,24c-0.965,0-1.75-0.785-1.75-1.75V10.139L4.067,1.363C3.73,1.124,3.649,0.655,3.887,0.318
		C4.028,0.119,4.257,0,4.5,0c0.155,0,0.305,0.047,0.432,0.137L17.488,9h4.762C23.215,9,24,9.785,24,10.75v11.5
		c0,0.965-0.785,1.75-1.75,1.75H18.25z M18,22.25c0,0.138,0.112,0.25,0.25,0.25h4c0.138,0,0.25-0.112,0.25-0.25v-4.689l-4.5,4.5
		V22.25z M18,19.939l4.5-4.5v-2.379l-4.5,4.5V19.939z M18,15.439l4.5-4.5V10.75c0-0.138-0.112-0.25-0.25-0.25H18V15.439z"/>
</g>
</svg>
