<?xml version="1.0" encoding="utf-8"?>
<!-- Generator: Adobe Illustrator 22.1.0, SVG Export Plug-In . SVG Version: 6.00 Build 0)  -->
<svg version="1.1" id="Layer_1" xmlns="http://www.w3.org/2000/svg" xmlns:xlink="http://www.w3.org/1999/xlink" x="0px" y="0px"
	 viewBox="0 0 24 24" style="enable-background:new 0 0 24 24;" xml:space="preserve">
<title>parking-ramp</title>
<g>
	<path d="M18.25,24c-0.965,0-1.75-0.785-1.75-1.75V10.139L4.067,1.363C3.73,1.124,3.649,0.655,3.887,0.318
		C4.028,0.119,4.257,0,4.5,0c0.155,0,0.305,0.047,0.432,0.137L17.488,9h4.762C23.215,9,24,9.785,24,10.75v11.5
		c0,0.965-0.785,1.75-1.75,1.75H18.25z M18,22.25c0,0.138,0.112,0.25,0.25,0.25h4c0.138,0,0.25-0.112,0.25-0.25v-4.689l-4.5,4.5
		V22.25z M18,19.939l4.5-4.5v-2.379l-4.5,4.5V19.939z M18,15.439l4.5-4.5V10.75c0-0.138-0.112-0.25-0.25-0.25H18V15.439z"/>
	<path d="M10.875,18c-0.044,0-0.088-0.004-0.13-0.011c-0.513-0.06-0.923-0.47-0.983-0.982c-0.008-0.043-0.011-0.087-0.011-0.131
		s0.004-0.088,0.011-0.131c0.06-0.513,0.47-0.922,0.983-0.983c0.042-0.007,0.086-0.011,0.13-0.011s0.088,0.004,0.13,0.011
		c0.513,0.061,0.923,0.47,0.983,0.983C11.996,16.787,12,16.831,12,16.875s-0.004,0.088-0.011,0.131
		c-0.06,0.513-0.47,0.922-0.983,0.982C10.963,17.996,10.919,18,10.875,18z"/>
	<path d="M12,23.999c-1.241,0-2.25-1.009-2.25-2.25V21h-9C0.336,21,0,20.664,0,20.25s0.336-0.75,0.75-0.75h9.724
		c0.009-0.001,0.018-0.001,0.026-0.001s0.017,0,0.026,0.001h2.224c0.414,0,0.75-0.336,0.75-0.75V16.5c0-1.241-1.009-2.25-2.25-2.25
		H0.75C0.336,14.25,0,13.914,0,13.5s0.336-0.75,0.75-0.75h10.092l-1.226-2.733C9.383,9.4,8.814,9,8.193,9H0.75
		C0.336,9,0,8.664,0,8.25S0.336,7.5,0.75,7.5h7.441c1.245,0,2.374,0.782,2.811,1.947l1.598,3.558c1.442,0.557,2.4,1.942,2.4,3.496
		v2.25c0,0.646-0.271,1.246-0.75,1.674v1.325C14.25,22.99,13.241,23.999,12,23.999z M11.25,21.749c0,0.414,0.336,0.75,0.75,0.75
		s0.75-0.336,0.75-0.75V21h-1.5V21.749z"/>
</g>
</svg>
