<?xml version="1.0" encoding="utf-8"?>
<!-- Generator: Adobe Illustrator 22.1.0, SVG Export Plug-In . SVG Version: 6.00 Build 0)  -->
<svg version="1.1" id="Layer_1" xmlns="http://www.w3.org/2000/svg" xmlns:xlink="http://www.w3.org/1999/xlink" x="0px" y="0px"
	 viewBox="0 0 24 24" style="enable-background:new 0 0 24 24;" xml:space="preserve">
<title>park-bench</title>
<g>
	<path d="M8,23.5c-0.414,0-0.75-0.336-0.75-0.75V19h-6c-0.62,0-1.125-0.505-1.125-1.125c0-0.242,0.08-0.481,0.224-0.675L3.5,13H2.75
		c-0.62,0-1.125-0.505-1.125-1.125c0-0.241,0.08-0.481,0.224-0.674L5,7H4.979C4.675,6.998,4.393,6.878,4.182,6.664
		C3.971,6.45,3.856,6.167,3.858,5.867C3.86,5.632,3.934,5.407,4.071,5.218L7.09,0.991C7.301,0.696,7.643,0.52,8.006,0.52
		c0.236,0,0.462,0.073,0.654,0.21c0.1,0.071,0.187,0.158,0.26,0.259l3.022,4.232c0.361,0.5,0.247,1.203-0.255,1.566
		C11.496,6.925,11.271,6.998,11.037,7H11l2.457,3.275c0.248,0.331,0.181,0.802-0.15,1.05c-0.131,0.098-0.287,0.15-0.45,0.15l0,0
		c-0.235,0-0.459-0.112-0.6-0.3L9.35,7.3C9.205,7.107,9.125,6.867,9.125,6.625c0-0.62,0.505-1.125,1.125-1.125h0.052L8.005,2.29
		L5.713,5.5H5.75c0.241,0,0.481,0.08,0.674,0.224c0.241,0.181,0.396,0.444,0.439,0.742S6.83,7.06,6.65,7.3L3.5,11.5h0.75
		c0.241,0,0.481,0.08,0.674,0.224c0.497,0.373,0.598,1.079,0.226,1.575L2,17.5h6c0.414,0,0.75,0.336,0.75,0.75v4.5
		C8.75,23.164,8.414,23.5,8,23.5z"/>
	<path d="M20,23.5c-0.414,0-0.75-0.336-0.75-0.75V20.5h-4.5v2.25c0,0.414-0.336,0.75-0.75,0.75s-0.75-0.336-0.75-0.75V20.5H11
		c-0.414,0-0.75-0.336-0.75-0.75S10.586,19,11,19h0.75v-3.75c0-1.241,1.009-2.25,2.25-2.25h6c1.241,0,2.25,1.009,2.25,2.25V19H23
		c0.414,0,0.75,0.336,0.75,0.75S23.414,20.5,23,20.5h-2.25v2.25C20.75,23.164,20.414,23.5,20,23.5z M20.75,19v-3.75
		c0-0.414-0.336-0.75-0.75-0.75h-6c-0.414,0-0.75,0.336-0.75,0.75V19H20.75z"/>
</g>
</svg>
