<?xml version="1.0" encoding="utf-8"?>
<!-- Generator: Adobe Illustrator 22.1.0, SVG Export Plug-In . SVG Version: 6.00 Build 0)  -->
<svg version="1.1" id="Layer_1" xmlns="http://www.w3.org/2000/svg" xmlns:xlink="http://www.w3.org/1999/xlink" x="0px" y="0px"
	 viewBox="0 0 24 24" style="enable-background:new 0 0 24 24;" xml:space="preserve">
<title>parking-p-1</title>
<g>
	<path d="M16.875,13.5c-3.722,0-6.75-3.028-6.75-6.75c0-3.722,3.028-6.75,6.75-6.75s6.75,3.028,6.75,6.75
		C23.625,10.472,20.597,13.5,16.875,13.5z M16.875,1.5c-2.895,0-5.25,2.355-5.25,5.25S13.98,12,16.875,12s5.25-2.355,5.25-5.25
		S19.77,1.5,16.875,1.5z"/>
	<path d="M15.375,10.5c-0.414,0-0.75-0.336-0.75-0.75v-6c0-0.414,0.336-0.75,0.75-0.75h1.5c1.241,0,2.25,1.009,2.25,2.25
		s-1.009,2.25-2.25,2.25h-0.75v2.25C16.125,10.163,15.789,10.5,15.375,10.5z M16.875,6c0.414,0,0.75-0.336,0.75-0.75
		s-0.336-0.75-0.75-0.75h-0.75V6H16.875z"/>
	<path d="M18.75,18c-0.044,0-0.088-0.004-0.13-0.011c-0.513-0.06-0.923-0.47-0.983-0.983c-0.007-0.042-0.011-0.086-0.011-0.13
		s0.004-0.088,0.011-0.131c0.06-0.513,0.47-0.923,0.983-0.983c0.042-0.008,0.086-0.011,0.131-0.011s0.088,0.004,0.131,0.011
		c0.513,0.06,0.923,0.47,0.983,0.983c0.008,0.042,0.011,0.086,0.011,0.131s-0.004,0.088-0.011,0.131
		c-0.06,0.513-0.47,0.923-0.983,0.983C18.838,17.996,18.794,18,18.75,18z"/>
	<path d="M4.5,18c-0.044,0-0.088-0.004-0.13-0.011c-0.513-0.06-0.922-0.47-0.983-0.982c-0.008-0.043-0.012-0.087-0.012-0.131
		s0.004-0.088,0.011-0.131c0.06-0.513,0.47-0.922,0.983-0.983c0.042-0.007,0.086-0.011,0.13-0.011s0.088,0.004,0.13,0.011
		c0.513,0.061,0.922,0.47,0.983,0.983c0.008,0.043,0.012,0.087,0.012,0.131s-0.004,0.088-0.011,0.131
		c-0.06,0.513-0.47,0.922-0.983,0.983C4.588,17.996,4.544,18,4.5,18z"/>
	<path d="M19.875,23.999c-1.241,0-2.25-1.009-2.25-2.25V21h-12v0.749c0,1.241-1.009,2.25-2.25,2.25s-2.25-1.009-2.25-2.25v-1.325
		c-0.479-0.427-0.75-1.027-0.75-1.674V16.5c0-1.554,0.958-2.939,2.4-3.496L4.393,9.4c0.424-1.128,1.549-1.9,2.791-1.9h0.692
		c0.414,0,0.75,0.336,0.75,0.75S8.289,9,7.875,9H7.184C6.563,9,5.998,9.39,5.779,9.971L4.533,12.75h6.342
		c0.414,0,0.75,0.336,0.75,0.75s-0.336,0.75-0.75,0.75h-6.75c-1.241,0-2.25,1.009-2.25,2.25v2.25c0,0.414,0.336,0.75,0.75,0.75
		h2.221c0.01-0.001,0.021-0.001,0.029-0.001c0.009,0,0.019,0,0.029,0.001h13.441c0.01-0.001,0.021-0.001,0.029-0.001
		c0.009,0,0.019,0,0.03,0.001h2.22c0.414,0,0.75-0.336,0.75-0.75V16.5c0.001-0.396-0.102-0.784-0.299-1.125
		c-0.207-0.358-0.084-0.818,0.274-1.025c0.114-0.066,0.244-0.101,0.375-0.101c0.267,0,0.516,0.143,0.65,0.374
		c0.33,0.57,0.503,1.219,0.501,1.878v2.248c0,0.646-0.271,1.246-0.75,1.674v1.325C22.125,22.989,21.116,23.999,19.875,23.999z
		 M19.125,21.749c0,0.414,0.336,0.75,0.75,0.75s0.75-0.336,0.75-0.75V21h-1.5V21.749z M2.625,21.749c0,0.414,0.336,0.75,0.75,0.75
		s0.75-0.336,0.75-0.75V21h-1.5V21.749z"/>
</g>
</svg>
