<?xml version="1.0" encoding="utf-8"?>
<!-- Generator: Adobe Illustrator 22.1.0, SVG Export Plug-In . SVG Version: 6.00 Build 0)  -->
<svg version="1.1" id="Layer_1" xmlns="http://www.w3.org/2000/svg" xmlns:xlink="http://www.w3.org/1999/xlink" x="0px" y="0px"
	 viewBox="0 0 24 24" style="enable-background:new 0 0 24 24;" xml:space="preserve">
<title>parking-p</title>
<g>
	<path d="M20.25,24C19.009,24,18,22.991,18,21.75V21H6v0.75C6,22.991,4.991,24,3.75,24S1.5,22.991,1.5,21.75v-0.879
		C0.615,20.558,0,19.71,0,18.75c0-0.612,0.127-1.208,0.377-1.771c0.012-0.03,0.025-0.058,0.04-0.086
		c0.218-0.464,0.508-0.879,0.863-1.234l1.824-1.824l1.643-4.388C5.184,8.282,6.313,7.5,7.556,7.5H8.25C8.664,7.5,9,7.836,9,8.25
		S8.664,9,8.25,9H7.559C6.935,9,6.37,9.391,6.152,9.973L4.832,13.5h7.918c0.414,0,0.75,0.336,0.75,0.75S13.164,15,12.75,15H4.061
		l-1.5,1.5H5.25C5.664,16.5,6,16.836,6,17.25S5.664,18,5.25,18H1.602C1.534,18.246,1.5,18.498,1.5,18.75
		c0,0.414,0.336,0.75,0.75,0.75h19.5c0.414,0,0.75-0.336,0.75-0.75c0-0.252-0.034-0.503-0.102-0.75H18.75
		C18.336,18,18,17.664,18,17.25s0.336-0.75,0.75-0.75h2.689l-0.97-0.97c-0.142-0.142-0.22-0.33-0.22-0.53s0.078-0.389,0.22-0.53
		s0.33-0.22,0.53-0.22s0.389,0.078,0.53,0.22l1.189,1.189c0.354,0.355,0.645,0.77,0.863,1.233c0.015,0.028,0.029,0.057,0.041,0.087
		C23.873,17.542,24,18.138,24,18.75c0,0.96-0.615,1.808-1.5,2.122v0.879C22.5,22.991,21.491,24,20.25,24z M19.5,21.75
		c0,0.414,0.336,0.75,0.75,0.75S21,22.164,21,21.75V21h-1.5V21.75z M3,21.75c0,0.414,0.336,0.75,0.75,0.75s0.75-0.336,0.75-0.75V21
		H3V21.75z"/>
	<path d="M17.25,13.5c-3.722,0-6.75-3.028-6.75-6.75S13.528,0,17.25,0S24,3.028,24,6.75S20.972,13.5,17.25,13.5z M17.25,1.5
		C14.355,1.5,12,3.855,12,6.75S14.355,12,17.25,12s5.25-2.355,5.25-5.25S20.145,1.5,17.25,1.5z"/>
	<path d="M15.75,10.5c-0.414,0-0.75-0.336-0.75-0.75v-6C15,3.336,15.336,3,15.75,3h1.5c1.241,0,2.25,1.009,2.25,2.25
		S18.491,7.5,17.25,7.5H16.5v2.25C16.5,10.164,16.164,10.5,15.75,10.5z M17.25,6C17.664,6,18,5.664,18,5.25S17.664,4.5,17.25,4.5
		H16.5V6H17.25z"/>
</g>
</svg>
