<?xml version="1.0" encoding="utf-8"?>
<!-- Generator: Adobe Illustrator 22.1.0, SVG Export Plug-In . SVG Version: 6.00 Build 0)  -->
<svg version="1.1" id="Regular" xmlns="http://www.w3.org/2000/svg" xmlns:xlink="http://www.w3.org/1999/xlink" x="0px" y="0px"
	 viewBox="0 0 24 24" style="enable-background:new 0 0 24 24;" xml:space="preserve">
<title>party-music</title>
<g>
	<path d="M8.104,23.865c-1.969,0-3.986-0.886-5.535-2.432c-1.358-1.355-2.212-3.062-2.404-4.807
		c-0.199-1.806,0.328-3.437,1.484-4.593c1.02-0.969,2.405-1.521,3.806-1.521c0.273,0,0.548,0.021,0.817,0.062
		c0.013,0.001,0.04,0.003,0.067,0.003c0.356,0,0.67-0.269,0.731-0.626C7.19,9.174,7.548,8.46,8.107,7.892
		c0.729-0.729,1.713-1.114,2.846-1.114c1.29,0,2.65,0.517,3.78,1.429l2.773-2.773c-0.293-0.613-0.293-1.326,0-1.939l-0.622-0.622
		c-0.142-0.142-0.22-0.33-0.22-0.53c0-0.2,0.078-0.389,0.22-0.53s0.33-0.22,0.53-0.22s0.389,0.078,0.53,0.22l0.531,0.531l0.53-0.53
		l-0.531-0.531c-0.142-0.141-0.22-0.33-0.22-0.53s0.078-0.389,0.22-0.53s0.33-0.22,0.53-0.22s0.389,0.078,0.53,0.22l0.622,0.622
		c0.301-0.144,0.631-0.219,0.97-0.219c0.601,0,1.166,0.234,1.591,0.658c0.678,0.679,0.843,1.713,0.439,2.561l0.621,0.621
		c0.142,0.141,0.22,0.33,0.22,0.53s-0.078,0.389-0.22,0.53s-0.33,0.22-0.53,0.22s-0.389-0.078-0.53-0.22l-0.53-0.53l-0.53,0.53
		l0.53,0.53c0.142,0.141,0.22,0.33,0.22,0.53s-0.078,0.389-0.22,0.53s-0.33,0.22-0.53,0.22s-0.389-0.078-0.53-0.22l-0.621-0.621
		c-0.301,0.144-0.631,0.219-0.969,0.219c-0.339,0-0.669-0.075-0.97-0.219l-2.772,2.772c0.757,0.933,1.247,2.022,1.391,3.102
		c0.186,1.394-0.195,2.644-1.072,3.521c-0.572,0.562-1.288,0.921-2.075,1.041c-0.382,0.065-0.652,0.425-0.608,0.819
		c0.253,1.67-0.273,3.346-1.446,4.583C10.995,23.324,9.62,23.865,8.104,23.865L8.104,23.865z M5.458,12.014
		c-1.022,0-2.028,0.399-2.761,1.094c-0.816,0.816-1.188,2.01-1.04,3.354c0.155,1.406,0.855,2.794,1.972,3.909
		c1.274,1.271,2.906,2,4.477,2c1.125,0,2.095-0.375,2.804-1.083c0.842-0.889,1.222-2.106,1.034-3.333
		c-0.001-0.006-0.004-0.025-0.004-0.031c-0.137-1.186,0.68-2.273,1.86-2.473c0.483-0.073,0.916-0.289,1.257-0.625
		c0.536-0.536,0.765-1.338,0.642-2.258c-0.133-0.995-0.653-1.989-1.465-2.8c-0.939-0.938-2.163-1.499-3.273-1.499
		c-0.726,0-1.345,0.235-1.789,0.679C8.84,9.286,8.625,9.716,8.553,10.189c-0.185,1.096-1.117,1.887-2.216,1.887
		c-0.087,0-0.174-0.005-0.262-0.015C5.862,12.029,5.659,12.014,5.458,12.014z M21.128,2.125c-0.201,0-0.389,0.078-0.53,0.219
		l-1.591,1.591c-0.292,0.292-0.292,0.768,0,1.06c0.142,0.142,0.33,0.219,0.531,0.219c0.194,0,0.377-0.073,0.517-0.206
		c0.004-0.005,1.606-1.607,1.616-1.616c0.281-0.293,0.277-0.761-0.011-1.049C21.518,2.203,21.329,2.125,21.128,2.125z"/>
	<path d="M11.051,15.2c-1.241,0-2.25-1.009-2.25-2.25s1.009-2.25,2.25-2.25s2.25,1.009,2.25,2.25S12.292,15.2,11.051,15.2z
		 M11.051,12.2c-0.414,0-0.75,0.337-0.75,0.75s0.336,0.75,0.75,0.75s0.75-0.336,0.75-0.75S11.465,12.2,11.051,12.2z"/>
	<path d="M7.339,19.533c-0.2,0-0.389-0.078-0.53-0.22l-2.121-2.121c-0.292-0.292-0.292-0.768,0-1.061
		c0.141-0.142,0.33-0.22,0.53-0.22s0.389,0.078,0.53,0.22l2.121,2.121c0.292,0.292,0.292,0.768,0,1.061
		C7.728,19.455,7.54,19.533,7.339,19.533z"/>
	<path d="M4.499,9.622c-0.176,0-0.347-0.062-0.482-0.176l-2.5-2.099C1.29,7.166,1.075,6.951,0.884,6.712
		C0.192,5.848-0.121,4.766,0.001,3.666c0.122-1.1,0.665-2.087,1.53-2.779C2.261,0.302,3.179-0.02,4.116-0.02
		c1.269,0,2.449,0.566,3.24,1.553l2.712,3.247c0.265,0.317,0.222,0.791-0.095,1.056C9.838,5.949,9.667,6.011,9.492,6.011
		c-0.223,0-0.433-0.098-0.576-0.269L6.194,2.483C5.682,1.844,4.926,1.481,4.115,1.481c-0.605,0-1.175,0.2-1.647,0.578
		C1.916,2.5,1.569,3.129,1.492,3.831C1.414,4.533,1.614,5.223,2.055,5.775c0.122,0.152,0.261,0.291,0.413,0.413l2.514,2.11
		c0.153,0.129,0.248,0.31,0.265,0.509S5.203,9.201,5.074,9.355C4.931,9.525,4.721,9.622,4.499,9.622z"/>
	<path d="M18.57,24.001c-0.601,0-1.166-0.234-1.591-0.659c-0.425-0.425-0.659-0.99-0.659-1.591c0-0.563,0.206-1.095,0.582-1.51
		l-1.096-0.917c-0.317-0.266-0.359-0.74-0.094-1.057c0.143-0.171,0.353-0.268,0.575-0.268c0.175,0,0.346,0.062,0.481,0.174
		l1.723,1.442c0.161,0.135,0.258,0.332,0.268,0.541c0.009,0.21-0.071,0.416-0.219,0.564l-0.5,0.5c-0.142,0.142-0.22,0.33-0.22,0.531
		s0.078,0.389,0.22,0.531c0.141,0.141,0.33,0.219,0.531,0.219c0.201,0,0.389-0.078,0.531-0.219l3.182-3.182
		c0.142-0.142,0.22-0.33,0.22-0.531s-0.078-0.389-0.22-0.531c-0.142-0.142-0.33-0.22-0.531-0.22s-0.389,0.078-0.531,0.22
		l-0.536,0.538c-0.139,0.14-0.334,0.22-0.533,0.22c-0.005,0-0.024,0-0.028,0c-0.212-0.009-0.41-0.107-0.545-0.268l-1.292-1.543
		c-0.265-0.317-0.223-0.791,0.094-1.057c0.135-0.113,0.306-0.175,0.481-0.175c0.223,0,0.433,0.098,0.575,0.269l0.766,0.915
		c0.42-0.399,0.968-0.618,1.549-0.618c0.601,0,1.166,0.234,1.591,0.659s0.659,0.99,0.659,1.591s-0.234,1.166-0.659,1.591
		l-3.182,3.182C19.737,23.767,19.171,24.001,18.57,24.001z"/>
</g>
</svg>
