<?xml version="1.0" encoding="utf-8"?>
<!-- Generator: Adobe Illustrator 22.1.0, SVG Export Plug-In . SVG Version: 6.00 Build 0)  -->
<svg version="1.1" id="Regular" xmlns="http://www.w3.org/2000/svg" xmlns:xlink="http://www.w3.org/1999/xlink" x="0px" y="0px"
	 viewBox="0 0 24 24" style="enable-background:new 0 0 24 24;" xml:space="preserve">
<title>party-music-dance-woman</title>
<g>
	<path d="M19.5,9c-1.241,0-2.25-1.009-2.25-2.25S18.259,4.5,19.5,4.5c0.259,0,0.511,0.044,0.75,0.129V2.205
		c0-1.034,0.701-1.932,1.704-2.182c0.059-0.015,0.121-0.023,0.183-0.023c0.344,0,0.643,0.234,0.727,0.569
		c0.049,0.194,0.019,0.396-0.084,0.568c-0.103,0.172-0.267,0.293-0.461,0.342C21.984,1.561,21.75,1.86,21.75,2.205V6.75
		C21.75,7.99,20.741,9,19.5,9z M19.5,6c-0.414,0-0.75,0.336-0.75,0.75S19.086,7.5,19.5,7.5s0.75-0.336,0.75-0.75S19.914,6,19.5,6z"
		/>
	<path d="M21.75,18c-1.241,0-2.25-1.009-2.25-2.25s1.009-2.25,2.25-2.25c0.259,0,0.511,0.044,0.75,0.129V12
		c0-0.414,0.336-0.75,0.75-0.75S24,11.586,24,12v3.75C24,16.99,22.991,18,21.75,18z M21.75,15C21.336,15,21,15.336,21,15.75
		s0.336,0.75,0.75,0.75s0.75-0.336,0.75-0.75S22.164,15,21.75,15z"/>
	<path d="M7.5,7.125c-1.861,0-3.375-1.514-3.375-3.375S5.639,0.375,7.5,0.375s3.375,1.514,3.375,3.375S9.361,7.125,7.5,7.125z
		 M7.5,1.875c-1.034,0-1.875,0.841-1.875,1.875S6.466,5.625,7.5,5.625S9.375,4.784,9.375,3.75S8.534,1.875,7.5,1.875z"/>
	<path d="M12.763,24.004c-0.184,0-0.368-0.023-0.546-0.067c-1.205-0.302-1.939-1.527-1.638-2.731l0.491-1.96l-0.492-0.652
		l-0.475,0.146L9.54,22.123c-0.186,1.085-1.118,1.872-2.216,1.873l-0.027,0c-0.11,0-0.228-0.011-0.35-0.032
		C5.728,23.76,4.9,22.6,5.103,21.377l0.217-1.3l-0.238,0.045c-0.069,0.013-0.138,0.019-0.207,0.019c-0.12,0-0.237-0.019-0.35-0.056
		c-0.588-0.192-0.911-0.828-0.719-1.418l1.307-4.002c-0.442,0.37-0.865,0.762-1.267,1.171c-0.428,0.428-0.995,0.663-1.597,0.663
		c-0.601,0-1.166-0.234-1.59-0.658c-0.425-0.425-0.659-0.99-0.659-1.591s0.234-1.166,0.659-1.591c3.905-3.9,6.925-4.808,10.422-5.86
		c0.704-0.212,1.432-0.431,2.182-0.681c0.227-0.07,0.452-0.104,0.678-0.104c0.945,0,1.795,0.597,2.116,1.485
		c0.204,0.566,0.176,1.177-0.08,1.72c-0.255,0.544-0.708,0.956-1.273,1.16c-0.63,0.21-1.243,0.389-1.838,0.561l2.848,4.617
		c0.115,0.147,0.192,0.321,0.223,0.506c0.094,0.569-0.256,1.109-0.794,1.266c0.446,0.935,0.551,1.985,0.292,3.01l-0.491,1.962
		C14.693,23.302,13.796,24.002,12.763,24.004C12.763,24.004,12.763,24.004,12.763,24.004z M10.862,16.972
		c0.234,0,0.459,0.112,0.6,0.3l0.807,1.076c0.271,0.361,0.365,0.82,0.257,1.26l-0.492,1.964c-0.049,0.194-0.019,0.396,0.084,0.568
		c0.103,0.172,0.267,0.294,0.461,0.342c0.059,0.015,0.122,0.022,0.185,0.022c0.342,0,0.64-0.234,0.724-0.567l0.491-1.963
		c0.222-0.881,0.036-1.8-0.51-2.524l-0.161-0.215c-0.156-0.208-0.193-0.487-0.097-0.728c0.097-0.242,0.316-0.419,0.572-0.462
		l0.424-0.072l-3.138-5.087c-0.122-0.198-0.145-0.446-0.061-0.663c0.083-0.217,0.267-0.385,0.49-0.451
		c0.196-0.057,0.651-0.188,0.651-0.188c0.674-0.193,1.372-0.393,2.063-0.623c0.173-0.063,0.321-0.199,0.406-0.38
		c0.085-0.181,0.094-0.385,0.026-0.573c-0.107-0.297-0.39-0.496-0.704-0.496c-0.074,0-0.149,0.011-0.221,0.033
		c-0.753,0.251-1.491,0.473-2.205,0.688c-3.306,0.995-6.158,1.853-9.796,5.486c-0.142,0.141-0.22,0.33-0.22,0.53
		s0.078,0.389,0.22,0.531C1.861,14.922,2.049,15,2.25,15s0.389-0.078,0.531-0.219c1.012-1.03,2.145-1.951,3.366-2.735
		c0.123-0.078,0.262-0.119,0.405-0.119c0.165,0,0.328,0.056,0.458,0.156c0.25,0.193,0.353,0.525,0.254,0.826l-1.836,5.621
		l0.671-0.125c0.048-0.009,0.092-0.012,0.137-0.012c0.199,0,0.386,0.076,0.526,0.214c0.175,0.172,0.255,0.418,0.214,0.659
		l-0.394,2.357c-0.068,0.407,0.209,0.794,0.617,0.862c0.036,0.006,0.067,0.011,0.096,0.011c0.392-0.001,0.703-0.263,0.765-0.624
		l0.64-3.837c0.047-0.282,0.246-0.51,0.52-0.594l1.422-0.437C10.712,16.983,10.787,16.972,10.862,16.972z"/>
</g>
</svg>
