<?xml version="1.0" encoding="utf-8"?>
<!-- Generator: Adobe Illustrator 22.1.0, SVG Export Plug-In . SVG Version: 6.00 Build 0)  -->
<svg version="1.1" id="Regular" xmlns="http://www.w3.org/2000/svg" xmlns:xlink="http://www.w3.org/1999/xlink" x="0px" y="0px"
	 viewBox="0 0 24 24" style="enable-background:new 0 0 24 24;" xml:space="preserve">
<title>party-decoration</title>
<g>
	<path d="M18.723,9.933c-0.789,0-1.483-0.504-1.727-1.253c-0.006-0.019-0.012-0.038-0.016-0.057l-0.895-3.67l-1.073-0.171
		l-1.994,3.213c-0.009,0.015-0.02,0.031-0.031,0.045c-0.228,0.31-0.538,0.535-0.901,0.654c-0.183,0.06-0.372,0.09-0.564,0.09
		c-0.788,0-1.482-0.503-1.727-1.251c-0.007-0.021-0.012-0.04-0.016-0.059L8.884,3.805L7.811,3.634L5.818,6.847
		c-0.01,0.016-0.02,0.031-0.031,0.046c-0.228,0.31-0.539,0.536-0.903,0.654c-0.182,0.06-0.372,0.09-0.562,0.09
		c-0.789,0-1.483-0.504-1.728-1.253C2.589,6.366,2.583,6.347,2.579,6.328L1.682,2.657l-1.05-0.167
		C0.224,2.424-0.055,2.039,0.01,1.631c0.058-0.366,0.369-0.632,0.739-0.632c0.04,0,0.08,0.003,0.121,0.01l22.499,3.587
		c0.408,0.065,0.687,0.45,0.623,0.859c-0.059,0.366-0.37,0.632-0.74,0.632c-0.039,0-0.079-0.003-0.118-0.009l-0.92-0.147
		l-1.994,3.214c-0.011,0.018-0.023,0.035-0.035,0.051C19.96,9.5,19.648,9.725,19.285,9.844C19.103,9.903,18.913,9.933,18.723,9.933z
		 M18.429,8.234c0.047,0.12,0.164,0.199,0.293,0.199c0.033,0,0.066-0.005,0.098-0.016c0.058-0.019,0.106-0.051,0.145-0.097
		l1.642-2.647l-2.916-0.465L18.429,8.234z M11.228,7.085c0.048,0.119,0.164,0.198,0.294,0.198c0.033,0,0.066-0.005,0.098-0.016
		c0.057-0.019,0.105-0.051,0.143-0.096l1.642-2.645l-2.915-0.465L11.228,7.085z M4.028,5.938c0.028,0.072,0.08,0.129,0.15,0.165
		C4.223,6.126,4.271,6.138,4.32,6.138c0.033,0,0.067-0.005,0.099-0.016C4.476,6.103,4.525,6.07,4.563,6.024l1.642-2.647L3.289,2.913
		L4.028,5.938z"/>
	<path d="M6.193,23.499c-0.46,0-0.903-0.168-1.247-0.473c-0.016-0.014-0.029-0.027-0.042-0.041l-2.799-2.909L1.03,20.491
		c-0.087,0.033-0.178,0.05-0.27,0.05c-0.307,0-0.589-0.193-0.7-0.479c-0.072-0.187-0.068-0.391,0.014-0.574
		c0.081-0.183,0.229-0.324,0.415-0.396l21.083-8.15c0.002-0.002,0.023-0.01,0.046-0.017l1.363-0.527
		c0.087-0.033,0.177-0.05,0.27-0.05c0.308,0,0.589,0.193,0.7,0.479c0.073,0.187,0.068,0.391-0.014,0.574
		c-0.081,0.183-0.229,0.324-0.416,0.396l-0.928,0.359l-0.115,4.032c0,0.021-0.002,0.044-0.005,0.066
		c-0.041,0.385-0.201,0.748-0.464,1.043c-0.355,0.4-0.867,0.629-1.405,0.629c-0.461,0-0.904-0.168-1.248-0.474
		c-0.012-0.01-0.027-0.025-0.042-0.04l-2.799-2.907l-1.128,0.436l-0.115,4.033c0,0.018-0.002,0.037-0.004,0.056
		c-0.042,0.394-0.202,0.756-0.463,1.05C14.45,20.48,13.938,20.71,13.4,20.71c-0.461,0-0.904-0.168-1.248-0.474
		c-0.012-0.01-0.027-0.025-0.042-0.04l-2.797-2.907l-1.131,0.437l-0.115,4.035c-0.001,0.021-0.002,0.039-0.004,0.056
		c-0.042,0.394-0.203,0.757-0.464,1.051C7.243,23.269,6.731,23.499,6.193,23.499z M5.958,21.918C6.025,21.971,6.108,22,6.194,22
		c0.109,0,0.212-0.046,0.284-0.127c0.049-0.055,0.079-0.119,0.091-0.191l0.096-3.368L3.621,19.49L5.958,21.918z M13.166,19.129
		c0.067,0.054,0.147,0.082,0.233,0.082c0,0,0.025-0.001,0.025-0.001c0.103-0.006,0.194-0.05,0.262-0.127
		c0.048-0.054,0.079-0.119,0.091-0.19l0.096-3.367l-3.042,1.176L13.166,19.129z M20.37,16.344c0.067,0.053,0.148,0.082,0.229,0.082
		c0.001,0,0.027-0.001,0.028-0.001c0.102-0.006,0.193-0.05,0.261-0.126c0.049-0.055,0.079-0.119,0.091-0.191l0.096-3.366
		l-3.042,1.176L20.37,16.344z"/>
</g>
</svg>
