<?xml version="1.0" encoding="utf-8"?>
<!-- Generator: Adobe Illustrator 22.1.0, SVG Export Plug-In . SVG Version: 6.00 Build 0)  -->
<svg version="1.1" id="Layer_1" xmlns="http://www.w3.org/2000/svg" xmlns:xlink="http://www.w3.org/1999/xlink" x="0px" y="0px"
	 viewBox="0 0 24 24" style="enable-background:new 0 0 24 24;" xml:space="preserve">
<title>passport-hand</title>
<g>
	<path d="M10.5,24c-1.654,0-3-1.346-3-3v-0.093l-1.971,0.789C5.44,21.732,5.346,21.75,5.25,21.75c-0.308,0-0.582-0.185-0.696-0.471
		c-0.075-0.186-0.072-0.39,0.007-0.574c0.079-0.184,0.225-0.326,0.411-0.401l2.45-0.981c0.709-0.283,1.307-0.768,1.73-1.402
		l1.645-2.467c0.184-0.276,0.184-0.633,0-0.91l-0.029-0.04c-0.153-0.204-0.392-0.323-0.654-0.323c-0.178,0-0.348,0.056-0.491,0.163
		L7.95,15.6C7.82,15.698,7.664,15.75,7.5,15.75c-0.234,0-0.459-0.112-0.6-0.3c-0.12-0.161-0.171-0.358-0.143-0.556
		C6.786,14.696,6.89,14.521,7.05,14.4l0.45-0.338v-3.175l-2.55,1.092c-0.889,0.381-1.589,1.081-1.97,1.97l-1.177,2.746
		C1.602,17.165,1.5,17.662,1.5,18.173v5.077C1.5,23.664,1.164,24,0.75,24S0,23.664,0,23.25v-5.077c0-0.715,0.143-1.411,0.425-2.069
		l1.177-2.746c0.533-1.245,1.513-2.224,2.758-2.758L7.5,9.255V3c0-1.654,1.346-3,3-3H21c1.654,0,3,1.346,3,3v18c0,1.654-1.346,3-3,3
		H10.5z M9,21c0,0.827,0.673,1.5,1.5,1.5H21c0.827,0,1.5-0.673,1.5-1.5V3c0-0.827-0.673-1.5-1.5-1.5H10.5C9.673,1.5,9,2.173,9,3
		v9.965c0.339-0.187,0.718-0.284,1.112-0.284c0.729,0,1.424,0.347,1.859,0.928c0.026,0.035,0.048,0.067,0.07,0.099
		c0.522,0.785,0.523,1.796,0.003,2.577l-1.645,2.467C10.026,19.312,9.556,19.787,9,20.167V21z"/>
	<path d="M15.742,17.251c-0.591,0-1.175-0.1-1.736-0.297c-0.39-0.137-0.596-0.566-0.459-0.956c0.106-0.3,0.39-0.501,0.708-0.501
		c0.084,0,0.167,0.014,0.247,0.042c0.159,0.056,0.325,0.101,0.498,0.135V12.75h-1.5c-0.414,0-0.75-0.336-0.75-0.75
		s0.336-0.75,0.75-0.75H15V8.331c-1.279,0.263-2.348,1.178-2.787,2.419c-0.106,0.299-0.39,0.5-0.707,0.5
		c-0.085,0-0.17-0.015-0.25-0.043c-0.39-0.138-0.595-0.567-0.457-0.957c0.724-2.046,2.669-3.446,4.846-3.492
		c0.034-0.005,0.069-0.008,0.105-0.008c0.029,0,0.057,0.002,0.085,0.006c0.575,0.009,1.135,0.108,1.664,0.296
		c1.322,0.468,2.383,1.422,2.987,2.688c0.326,0.684,0.497,1.418,0.508,2.182C20.998,11.95,21,11.974,21,12
		c0,0.026-0.002,0.051-0.005,0.076c-0.009,0.579-0.109,1.143-0.297,1.676C19.957,15.845,17.966,17.251,15.742,17.251z M16.5,15.669
		c1.277-0.264,2.345-1.178,2.783-2.417c0.057-0.161,0.103-0.328,0.137-0.502H16.5V15.669z M19.42,11.25
		c-0.061-0.301-0.157-0.59-0.288-0.864c-0.431-0.904-1.189-1.586-2.133-1.92C16.84,8.409,16.673,8.364,16.5,8.33v2.92H19.42z"/>
</g>
</svg>
