<?xml version="1.0" encoding="utf-8"?>
<!-- Generator: Adobe Illustrator 22.1.0, SVG Export Plug-In . SVG Version: 6.00 Build 0)  -->
<svg version="1.1" id="Layer_1" xmlns="http://www.w3.org/2000/svg" xmlns:xlink="http://www.w3.org/1999/xlink" x="0px" y="0px"
	 viewBox="0 0 24 24" style="enable-background:new 0 0 24 24;" xml:space="preserve">
<title>passport-globe</title>
<g>
	<path d="M15.004,23.999c-1.241,0-2.25-1.009-2.25-2.25v-9c0-1.241,1.009-2.25,2.25-2.25h6c1.241,0,2.25,1.009,2.25,2.25v9
		c0,1.241-1.009,2.25-2.25,2.25H15.004z M15.004,11.999c-0.414,0-0.75,0.336-0.75,0.75v9c0,0.414,0.336,0.75,0.75,0.75h6
		c0.414,0,0.75-0.336,0.75-0.75v-9c0-0.414-0.336-0.75-0.75-0.75H15.004z"/>
	<path d="M9.005,19.375c-0.042,0-0.084-0.003-0.127-0.011c-2.371-0.401-4.501-1.662-6-3.549c-0.035-0.036-0.063-0.071-0.087-0.108
		c-0.003-0.005-0.007-0.012-0.011-0.019c-1.65-2.148-2.337-4.903-1.887-7.565c0.392-2.316,1.605-4.409,3.416-5.897
		c0.035-0.035,0.074-0.068,0.117-0.096c0.141-0.113,0.285-0.223,0.434-0.328c1.661-1.18,3.607-1.804,5.627-1.804
		c0.548,0,1.102,0.047,1.647,0.139c2.004,0.339,3.825,1.281,5.267,2.723c0.038,0.033,0.073,0.07,0.104,0.111
		c1.379,1.423,2.282,3.2,2.613,5.141c0.034,0.197-0.011,0.396-0.127,0.56c-0.116,0.163-0.288,0.272-0.486,0.306
		c-0.042,0.007-0.084,0.011-0.126,0.011c-0.367,0-0.678-0.262-0.739-0.624c-0.233-1.368-0.811-2.653-1.678-3.742l-0.422,0.569
		c-0.438,0.589-0.56,1.357-0.329,2.053l0.256,0.768c0.131,0.392-0.082,0.818-0.474,0.949c-0.077,0.026-0.157,0.039-0.237,0.039
		c-0.323,0-0.61-0.206-0.712-0.513l-0.256-0.768c-0.387-1.16-0.182-2.439,0.547-3.421l0.573-0.772
		c-1.148-0.998-2.532-1.656-4.024-1.908c-0.461-0.078-0.929-0.118-1.392-0.118c-1.419,0-2.799,0.366-4.033,1.065l4.04,1.534
		c1.037,0.389,1.632,1.461,1.413,2.549l-0.314,1.568c-0.169,0.848-0.821,1.532-1.661,1.741l-1.707,0.427l-1.012,2.528
		c-0.281,0.707-0.764,1.304-1.397,1.727l-1.267,0.82c1.221,1.275,2.83,2.132,4.575,2.427c0.197,0.033,0.37,0.142,0.486,0.305
		c0.116,0.163,0.161,0.362,0.128,0.559C9.683,19.112,9.372,19.375,9.005,19.375z M4.995,3.613C3.594,4.864,2.688,6.506,2.372,8.374
		c-0.351,2.072,0.091,4.155,1.244,5.905l1.381-0.894c0.371-0.249,0.659-0.605,0.828-1.029L6.979,9.47
		C7.068,9.247,7.26,9.079,7.494,9.021l2.079-0.52c0.28-0.07,0.497-0.298,0.554-0.581l0.314-1.569
		c0.073-0.363-0.126-0.721-0.472-0.851L4.995,3.613z"/>
	<path d="M18.004,20.249c-1.654,0-3-1.346-3-3s1.346-3,3-3s3,1.346,3,3S19.659,20.249,18.004,20.249z M18.004,15.749
		c-0.827,0-1.5,0.673-1.5,1.5s0.673,1.5,1.5,1.5s1.5-0.673,1.5-1.5S18.832,15.749,18.004,15.749z"/>
</g>
</svg>
