<?xml version="1.0" encoding="utf-8"?>
<!-- Generator: Adobe Illustrator 22.1.0, SVG Export Plug-In . SVG Version: 6.00 Build 0)  -->
<svg version="1.1" id="Regular" xmlns="http://www.w3.org/2000/svg" xmlns:xlink="http://www.w3.org/1999/xlink" x="0px" y="0px"
	 viewBox="0 0 24 24" style="enable-background:new 0 0 24 24;" xml:space="preserve">
<title>pasta-fork</title>
<g>
	<path d="M20.25,14.235c-0.414,0-0.75-0.336-0.75-0.75v-12c0-0.414,0.336-0.75,0.75-0.75S21,1.071,21,1.485v0.75h2.25
		c0.414,0,0.75,0.336,0.75,0.75s-0.336,0.75-0.75,0.75H21v1.5h2.25c0.414,0,0.75,0.336,0.75,0.75s-0.336,0.75-0.75,0.75H21v1.5h2.25
		c0.414,0,0.75,0.336,0.75,0.75s-0.336,0.75-0.75,0.75H21v1.5h2.25c0.414,0,0.75,0.336,0.75,0.75c0,0.413-0.336,0.75-0.75,0.75H21
		v0.75C21,13.898,20.664,14.235,20.25,14.235z"/>
	<path d="M8.3,23.078c-0.068,0-0.137-0.009-0.203-0.028c-0.4-0.114-0.632-0.529-0.519-0.927l0.832-2.928
		c0.455-1.595,1.931-2.709,3.589-2.71c0.827,0,1.5-0.673,1.5-1.5v-2.25h-2.247c-0.099,0.007-0.222,0.012-0.344,0.012
		c-2.104,0-4.071-1.175-5.076-3.012H0.75C0.336,9.735,0,9.398,0,8.985s0.336-0.75,0.75-0.75H6.3c0.298,0,0.567,0.176,0.687,0.449
		c0.626,1.428,1.978,2.395,3.512,2.543V3.743C8.966,3.891,7.613,4.859,6.987,6.286C6.868,6.559,6.598,6.735,6.3,6.735H0.75
		C0.336,6.735,0,6.398,0,5.985s0.336-0.75,0.75-0.75h5.084c1.005-1.836,2.972-3.011,5.075-3.011c0.116,0,0.233,0.004,0.35,0.011
		H13.5v-0.75c0-0.414,0.336-0.75,0.75-0.75S15,1.071,15,1.485v13.5c0,1.654-1.346,3-3,3c-0.992,0-1.875,0.667-2.147,1.62
		l-0.832,2.927C8.93,22.854,8.634,23.078,8.3,23.078z M13.5,11.235v-1.5h-1.501v1.5H13.5z M13.5,8.235v-1.5h-1.501v1.5H13.5z
		 M13.5,5.235v-1.5h-1.501v1.5H13.5z"/>
	<path d="M11.989,23.265c-0.062,0-0.124-0.008-0.184-0.023c-0.401-0.101-0.644-0.51-0.543-0.911l0.3-1.186
		c0.349-1.395,2.2-2.029,3.195-2.369c1.156-0.396,1.743-1.671,1.743-3.791v-13.5c0-0.414,0.336-0.75,0.75-0.75S18,1.071,18,1.485
		v13.5c0,2.832-0.928,4.584-2.757,5.209c-0.569,0.195-2.075,0.711-2.226,1.316l-0.301,1.188
		C12.632,23.032,12.333,23.265,11.989,23.265z"/>
</g>
</svg>
