<?xml version="1.0" encoding="utf-8"?>
<!-- Generator: Adobe Illustrator 22.1.0, SVG Export Plug-In . SVG Version: 6.00 Build 0)  -->
<svg version="1.1" id="Regular" xmlns="http://www.w3.org/2000/svg" xmlns:xlink="http://www.w3.org/1999/xlink" x="0px" y="0px"
	 viewBox="0 0 24 24" style="enable-background:new 0 0 24 24;" xml:space="preserve">
<title>pasta-plate-warm</title>
<g>
	<path d="M11.25,7.5c-0.163,0-0.319-0.052-0.449-0.15c-0.331-0.248-0.398-0.719-0.15-1.05l0.617-0.823
		c0.275-0.36,0.22-0.865-0.123-1.152c-0.961-0.804-1.117-2.213-0.356-3.208L11.4,0.301c0.141-0.188,0.365-0.3,0.6-0.3
		c0.163,0,0.318,0.052,0.449,0.149c0.331,0.249,0.399,0.72,0.151,1.05l-0.617,0.823c-0.275,0.36-0.22,0.865,0.123,1.152
		c0.96,0.804,1.117,2.213,0.357,3.208L11.85,7.2C11.709,7.388,11.485,7.5,11.25,7.5z"/>
	<path d="M5.057,11.25c-0.163,0-0.319-0.052-0.449-0.15c-0.331-0.248-0.398-0.719-0.15-1.05l0.617-0.823
		c0.275-0.36,0.22-0.865-0.123-1.152C3.99,7.273,3.833,5.864,4.593,4.868L5.207,4.05c0.141-0.188,0.365-0.3,0.6-0.3
		c0.164,0,0.319,0.052,0.45,0.151c0.16,0.12,0.264,0.296,0.292,0.494c0.028,0.198-0.023,0.396-0.143,0.556L5.789,5.774
		C5.514,6.133,5.569,6.638,5.913,6.925c0.96,0.804,1.117,2.213,0.357,3.208L5.657,10.95C5.516,11.138,5.292,11.25,5.057,11.25z"/>
	<path d="M18.387,11.25c-0.235,0-0.459-0.112-0.6-0.3l-0.617-0.823c-0.757-0.991-0.599-2.399,0.361-3.202
		c0.344-0.287,0.399-0.791,0.128-1.146L17.037,4.95c-0.12-0.16-0.171-0.358-0.142-0.556c0.028-0.198,0.132-0.374,0.293-0.494
		c0.131-0.098,0.286-0.15,0.449-0.15c0.235,0,0.459,0.112,0.6,0.3l0.617,0.823c0.758,0.991,0.6,2.399-0.361,3.202
		c-0.343,0.287-0.399,0.791-0.128,1.147l0.621,0.828c0.12,0.16,0.171,0.357,0.143,0.556c-0.028,0.198-0.132,0.374-0.292,0.494
		C18.707,11.198,18.551,11.25,18.387,11.25z"/>
	<path d="M6.697,24.001c-0.772,0-1.502-0.341-2.002-0.936L1.886,19.5H0.75C0.336,19.5,0,19.164,0,18.75S0.336,18,0.75,18h1.298
		c0.651-1.49,2.029-3.118,3.952-3.118c0.397,0.002,0.784,0.065,1.157,0.186c1.148-1.457,2.916-2.319,4.788-2.319h0.108
		c1.872,0,3.641,0.862,4.789,2.319c0.373-0.122,0.76-0.184,1.153-0.186c1.926,0,3.305,1.628,3.956,3.118h1.298
		c0.414,0,0.75,0.336,0.75,0.75s-0.336,0.75-0.75,0.75h-1.136l-2.794,3.546c-0.513,0.61-1.247,0.954-2.022,0.954H6.697z
		 M5.858,22.118c0.202,0.24,0.514,0.383,0.847,0.383c0.003,0,10.578,0,10.578,0c0.346,0,0.66-0.146,0.874-0.401l2.047-2.599H3.796
		L5.858,22.118z M20.272,18c-0.508-0.854-1.302-1.618-2.272-1.618c-0.369,0.002-0.74,0.096-1.068,0.272
		c-0.109,0.058-0.231,0.089-0.354,0.089c-0.259,0-0.497-0.131-0.635-0.351c-0.828-1.322-2.318-2.143-3.887-2.143l-0.117,0
		c-1.566,0-3.053,0.821-3.881,2.142c-0.137,0.22-0.375,0.352-0.635,0.352c-0.123,0-0.245-0.031-0.354-0.089
		c-0.328-0.176-0.699-0.27-1.071-0.272c-0.968,0-1.761,0.765-2.269,1.618H20.272z"/>
</g>
</svg>
