<?xml version="1.0" encoding="utf-8"?>
<!-- Generator: Adobe Illustrator 22.1.0, SVG Export Plug-In . SVG Version: 6.00 Build 0)  -->
<svg version="1.1" id="Layer_1" xmlns="http://www.w3.org/2000/svg" xmlns:xlink="http://www.w3.org/1999/xlink" x="0px" y="0px"
	 viewBox="0 0 24 24" style="enable-background:new 0 0 24 24;" xml:space="preserve">
<title>pathfinder-divide</title>
<g>
	<path d="M8.25,24C7.009,24,6,22.991,6,21.75V18H5.25c-0.414,0-0.75-0.336-0.75-0.75s0.336-0.75,0.75-0.75h10.5
		c0.414,0,0.75-0.336,0.75-0.75V5.25c0-0.414,0.336-0.75,0.75-0.75S18,4.836,18,5.25V6h3.75C22.991,6,24,7.009,24,8.25v13.5
		c0,1.241-1.009,2.25-2.25,2.25H8.25z M7.5,21.75c0,0.414,0.336,0.75,0.75,0.75h13.5c0.414,0,0.75-0.336,0.75-0.75V8.25
		c0-0.414-0.336-0.75-0.75-0.75H18v8.25c0,1.241-1.009,2.25-2.25,2.25H7.5V21.75z"/>
	<path d="M0.75,3C0.336,3,0,2.664,0,2.25C0,1.009,1.009,0,2.25,0C2.664,0,3,0.336,3,0.75S2.664,1.5,2.25,1.5S1.5,1.836,1.5,2.25
		S1.164,3,0.75,3z"/>
	<path d="M0.75,8.25C0.336,8.25,0,7.914,0,7.5V5.25C0,4.836,0.336,4.5,0.75,4.5S1.5,4.836,1.5,5.25V7.5
		C1.5,7.914,1.164,8.25,0.75,8.25z"/>
	<path d="M0.75,13.5C0.336,13.5,0,13.164,0,12.75V10.5c0-0.414,0.336-0.75,0.75-0.75S1.5,10.086,1.5,10.5v2.25
		C1.5,13.164,1.164,13.5,0.75,13.5z"/>
	<path d="M2.25,18C1.009,18,0,16.991,0,15.75C0,15.336,0.336,15,0.75,15s0.75,0.336,0.75,0.75s0.336,0.75,0.75,0.75
		S3,16.836,3,17.25S2.664,18,2.25,18z"/>
	<path d="M5.25,1.5C4.836,1.5,4.5,1.164,4.5,0.75S4.836,0,5.25,0H7.5c0.414,0,0.75,0.336,0.75,0.75S7.914,1.5,7.5,1.5H5.25z"/>
	<path d="M10.5,1.5c-0.414,0-0.75-0.336-0.75-0.75S10.086,0,10.5,0h2.25c0.414,0,0.75,0.336,0.75,0.75S13.164,1.5,12.75,1.5H10.5z"
		/>
	<path d="M17.25,3c-0.414,0-0.75-0.336-0.75-0.75S16.164,1.5,15.75,1.5S15,1.164,15,0.75S15.336,0,15.75,0
		C16.991,0,18,1.009,18,2.25C18,2.664,17.664,3,17.25,3z"/>
</g>
</svg>
