<?xml version="1.0" encoding="utf-8"?>
<!-- Generator: Adobe Illustrator 22.1.0, SVG Export Plug-In . SVG Version: 6.00 Build 0)  -->
<svg version="1.1" id="Layer_1" xmlns="http://www.w3.org/2000/svg" xmlns:xlink="http://www.w3.org/1999/xlink" x="0px" y="0px"
	 viewBox="0 0 24 24" style="enable-background:new 0 0 24 24;" xml:space="preserve">
<title>pathfinder-minus-back</title>
<g>
	<path d="M0.75,6.75C0.336,6.75,0,6.414,0,6c0-1.241,1.009-2.25,2.25-2.25C2.664,3.75,3,4.086,3,4.5S2.664,5.25,2.25,5.25
		S1.5,5.586,1.5,6S1.164,6.75,0.75,6.75z"/>
	<path d="M2.25,20.25C1.009,20.25,0,19.241,0,18c0-0.414,0.336-0.75,0.75-0.75S1.5,17.586,1.5,18s0.336,0.75,0.75,0.75
		S3,19.086,3,19.5S2.664,20.25,2.25,20.25z"/>
	<path d="M21.75,20.25c-0.414,0-0.75-0.336-0.75-0.75s0.336-0.75,0.75-0.75S22.5,18.414,22.5,18s0.336-0.75,0.75-0.75
		S24,17.586,24,18C24,19.241,22.991,20.25,21.75,20.25z"/>
	<path d="M23.25,11.25c-0.414,0-0.75-0.336-0.75-0.75V9.75h-7.25c-0.965,0-1.75-0.785-1.75-1.75V5.25h-3
		c-0.414,0-0.75-0.336-0.75-0.75s0.336-0.75,0.75-0.75h11.75C23.215,3.75,24,4.535,24,5.5v5C24,10.914,23.664,11.25,23.25,11.25z
		 M15,8c0,0.138,0.112,0.25,0.25,0.25h7.25V5.5c0-0.138-0.112-0.25-0.25-0.25H15V8z"/>
	<path d="M5.25,20.25c-0.414,0-0.75-0.336-0.75-0.75s0.336-0.75,0.75-0.75H7.5c0.414,0,0.75,0.336,0.75,0.75s-0.336,0.75-0.75,0.75
		H5.25z"/>
	<path d="M5.25,5.25C4.836,5.25,4.5,4.914,4.5,4.5s0.336-0.75,0.75-0.75H7.5c0.414,0,0.75,0.336,0.75,0.75S7.914,5.25,7.5,5.25H5.25
		z"/>
	<path d="M0.75,11.25C0.336,11.25,0,10.914,0,10.5V9c0-0.414,0.336-0.75,0.75-0.75S1.5,8.586,1.5,9v1.5
		C1.5,10.914,1.164,11.25,0.75,11.25z"/>
	<path d="M0.75,15.75C0.336,15.75,0,15.414,0,15v-1.5c0-0.414,0.336-0.75,0.75-0.75S1.5,13.086,1.5,13.5V15
		C1.5,15.414,1.164,15.75,0.75,15.75z"/>
	<path d="M23.25,15.75c-0.414,0-0.75-0.336-0.75-0.75v-1.5c0-0.414,0.336-0.75,0.75-0.75S24,13.086,24,13.5V15
		C24,15.414,23.664,15.75,23.25,15.75z"/>
	<path d="M10.5,20.25c-0.414,0-0.75-0.336-0.75-0.75s0.336-0.75,0.75-0.75h3c0.414,0,0.75,0.336,0.75,0.75s-0.336,0.75-0.75,0.75
		H10.5z"/>
	<path d="M16.5,20.25c-0.414,0-0.75-0.336-0.75-0.75s0.336-0.75,0.75-0.75h2.25c0.414,0,0.75,0.336,0.75,0.75s-0.336,0.75-0.75,0.75
		H16.5z"/>
</g>
</svg>
