<svg id="Outline_Version" data-name="Outline Version" xmlns="http://www.w3.org/2000/svg" viewBox="0 0 24 24"><title>payment-paypal</title><path d="M12.3,4.13H9.91a.75.75,0,0,0-.73.58l-1,4.48a.75.75,0,0,0,.73.92h2.29a3.79,3.79,0,0,0,3.51-2.8,2.5,2.5,0,0,0-.37-2.22A2.47,2.47,0,0,0,12.3,4.13Zm.92,2.79v0a2.28,2.28,0,0,1-2.06,1.67H9.81l.7-3H12.3a1,1,0,0,1,.8.36A1,1,0,0,1,13.22,6.92Z"/><path d="M14.1,1H5.78a.75.75,0,0,0-.73.58l-4,17a.75.75,0,0,0,.73.92H6.69a.75.75,0,0,0,.73-.57L8.77,13.5h2.9a7.59,7.59,0,0,0,7.59-6,5.17,5.17,0,0,0-.86-4.55A5.51,5.51,0,0,0,14.1,1Zm3.7,6.17A6,6,0,0,1,11.67,12H8.18a.75.75,0,0,0-.73.57L6.1,18H2.75L6.38,2.5H14.1a4,4,0,0,1,3.13,1.37A3.75,3.75,0,0,1,17.79,7.16Z"/><path d="M15.31,15.49H11.72a.75.75,0,0,0-.73.57L9.62,21.5H6.24l.06-.32a.75.75,0,0,0-1.47-.29l-.24,1.21a.75.75,0,0,0,.74.9H10.2a.75.75,0,0,0,.73-.57L12.3,17h3a7.36,7.36,0,0,0,6.56-3.72,6.57,6.57,0,0,0,.43-6.21A.75.75,0,0,0,21,7.8a5.2,5.2,0,0,1-.42,4.73A5.91,5.91,0,0,1,15.31,15.49Z"/></svg>