<?xml version="1.0" encoding="utf-8"?>
<!-- Generator: Adobe Illustrator 22.1.0, SVG Export Plug-In . SVG Version: 6.00 Build 0)  -->
<svg version="1.1" id="Regular" xmlns="http://www.w3.org/2000/svg" xmlns:xlink="http://www.w3.org/1999/xlink" x="0px" y="0px"
	 viewBox="0 0 24 24" style="enable-background:new 0 0 24 24;" xml:space="preserve">
<title>peacock-feather</title>
<g>
	<path d="M8.893,6.95c-0.201,0-0.398-0.054-0.572-0.157C8.306,6.785,8.292,6.777,8.28,6.769C8.03,6.608,7.856,6.357,7.793,6.064
		C7.729,5.771,7.784,5.47,7.947,5.217c0.028-0.043,0.06-0.084,0.097-0.121c0.214-0.249,0.522-0.392,0.852-0.392
		c0.17,0,0.339,0.039,0.492,0.114c0.04,0.017,0.079,0.037,0.116,0.061c0.485,0.313,0.653,0.938,0.39,1.455
		C9.89,6.343,9.886,6.351,9.882,6.357C9.869,6.386,9.856,6.41,9.841,6.434l0,0C9.832,6.449,9.821,6.463,9.81,6.476
		c-0.005,0.006-0.017,0.02-0.017,0.021C9.775,6.52,9.757,6.542,9.737,6.562C9.521,6.809,9.214,6.95,8.893,6.95z"/>
	<path d="M21.571,23.997c-0.356,0-0.665-0.253-0.735-0.603c-0.199-0.993-0.465-2.323-0.926-3.812
		c-0.838,0.366-1.746,0.557-2.653,0.557c-1.016,0-2.034-0.239-2.944-0.69c-0.37-0.184-0.522-0.635-0.338-1.005
		c0.128-0.257,0.386-0.417,0.673-0.417c0.115,0,0.23,0.027,0.333,0.078c0.704,0.35,1.491,0.534,2.277,0.534
		c0.747,0,1.489-0.165,2.165-0.48c-0.335-0.887-0.719-1.736-1.144-2.532c-1.001,0.567-2.123,0.864-3.272,0.864
		c-0.871,0-1.72-0.168-2.526-0.501c-0.382-0.158-0.565-0.597-0.407-0.979c0.116-0.282,0.388-0.464,0.693-0.464
		c0.098,0,0.194,0.019,0.285,0.056c0.625,0.258,1.283,0.389,1.957,0.389c0.884,0,1.745-0.227,2.511-0.657
		c-0.434-0.679-0.91-1.328-1.42-1.938c-1.117,0.791-2.465,1.224-3.834,1.224c-0.452,0-0.906-0.047-1.348-0.139
		c-0.405-0.084-0.666-0.482-0.582-0.887c0.072-0.346,0.38-0.598,0.733-0.598c0.052,0,0.104,0.005,0.155,0.016
		c0.34,0.071,0.69,0.107,1.039,0.107c0.998,0,1.982-0.297,2.815-0.843c-0.862-0.869-1.826-1.664-2.874-2.367
		c-0.628,0.68-1.437,1.14-2.357,1.338c-0.317,0.068-0.641,0.103-0.962,0.103c-0.865,0-1.709-0.25-2.443-0.724
		C4.593,8.432,0.789,3.714,0.749,1.065C0.744,0.761,0.922,0.487,1.2,0.366C1.744,0.129,2.479,0.01,3.385,0.01
		c2.723,0,6.516,1.084,7.961,2.017c1.015,0.655,1.714,1.666,1.969,2.846c0.202,0.936,0.099,1.911-0.287,2.782
		c1.152,0.772,2.21,1.644,3.154,2.6c1.251-1.76,0.229-3.901,0.218-3.924c-0.184-0.369-0.034-0.82,0.336-1.005
		c0.104-0.052,0.22-0.079,0.335-0.079c0.286,0,0.543,0.159,0.671,0.415c0.016,0.033,1.54,3.173-0.533,5.716
		c0.52,0.615,1.007,1.269,1.454,1.951c1.044-1.449,0.555-3.265,0.531-3.348c-0.112-0.397,0.121-0.812,0.518-0.924
		c0.067-0.019,0.135-0.028,0.204-0.028c0.333,0,0.63,0.224,0.721,0.545c0.008,0.029,0.832,2.986-1.158,5.113
		c0.441,0.802,0.84,1.649,1.191,2.529c1.131-1.371,0.772-3.214,0.755-3.3c-0.084-0.403,0.177-0.801,0.581-0.885
		c0.051-0.01,0.102-0.016,0.154-0.016c0.352,0,0.66,0.25,0.734,0.594c0.007,0.032,0.648,3.191-1.663,5.164
		c0.551,1.703,0.853,3.211,1.077,4.327c0.04,0.197,0,0.396-0.111,0.563c-0.111,0.167-0.281,0.28-0.477,0.32
		C21.669,23.992,21.619,23.997,21.571,23.997z M2.331,1.59c0.514,2.029,3.31,5.732,4.926,6.776C7.747,8.683,8.311,8.85,8.888,8.85
		c0.215,0,0.431-0.023,0.644-0.069c0.789-0.17,1.465-0.638,1.902-1.316c0.438-0.678,0.585-1.487,0.415-2.276
		c-0.17-0.789-0.637-1.465-1.316-1.902C9.287,2.483,5.811,1.512,3.363,1.512C2.966,1.512,2.62,1.538,2.331,1.59z"/>
</g>
</svg>
