<?xml version="1.0" encoding="utf-8"?>
<!-- Generator: Adobe Illustrator 22.1.0, SVG Export Plug-In . SVG Version: 6.00 Build 0)  -->
<svg version="1.1" id="Regular" xmlns="http://www.w3.org/2000/svg" xmlns:xlink="http://www.w3.org/1999/xlink" x="0px" y="0px"
	 viewBox="0 0 24 24" style="enable-background:new 0 0 24 24;" xml:space="preserve">
<title>peacock-feathers-up-1</title>
<g>
	<path d="M12.019,14.246c-0.414,0-0.75-0.336-0.75-0.75v-1.5c0-0.414,0.336-0.75,0.75-0.75c0.414,0,0.75,0.336,0.75,0.75v1.5
		C12.769,13.91,12.432,14.246,12.019,14.246z"/>
	<path d="M12.013,24.006c-1.194,0-2.349-0.353-3.341-1.021c-1.791-1.207-2.788-3.274-2.627-5.427L1.07,11.964
		c-0.76-0.833-1.094-1.956-0.913-3.077c0.913-5.154,5.902-8.89,11.862-8.89c5.96,0,10.947,3.734,11.858,8.879
		c0.182,1.129-0.151,2.255-0.914,3.094L18,17.552c0.013,0.16,0.019,0.308,0.019,0.446c0.003,1.201-0.35,2.364-1.023,3.363
		C15.88,23.017,14.017,24.006,12.013,24.006z M12.026,7.491c-1.341,0-2.531,0.901-2.893,2.191c-0.116,0.414-0.142,0.84-0.077,1.266
		c0.338,1.525,0.076,3.136-0.741,4.515c-1.403,2.085-0.862,4.894,1.195,6.279c0.744,0.501,1.61,0.765,2.505,0.765
		c1.504,0,2.901-0.741,3.738-1.983c0.504-0.749,0.769-1.622,0.767-2.524c0.001-0.85-0.24-1.676-0.697-2.39
		c-0.863-1.365-1.166-2.987-0.853-4.568c0.089-0.478,0.061-0.982-0.082-1.454c-0.297-0.972-1.062-1.714-2.044-1.982
		C12.574,7.528,12.3,7.491,12.026,7.491z M3.414,5.363c-0.927,1.13-1.538,2.426-1.777,3.775C1.53,9.795,1.73,10.461,2.185,10.96
		l4.277,4.81c0.156-0.391,0.352-0.762,0.586-1.109c0.603-1.02,0.797-2.247,0.535-3.439c-0.105-0.677-0.068-1.324,0.107-1.946
		c0.544-1.935,2.327-3.286,4.337-3.286c0.41,0,0.819,0.057,1.216,0.168c1.479,0.403,2.631,1.522,3.08,2.992
		c0.212,0.702,0.253,1.452,0.12,2.17c-0.24,1.212-0.01,2.446,0.645,3.483c0.194,0.303,0.36,0.624,0.496,0.959l4.264-4.795
		c0.458-0.505,0.658-1.175,0.551-1.842c-0.238-1.342-0.849-2.635-1.774-3.764l-1.914,3.19c-0.135,0.225-0.381,0.364-0.643,0.364
		c-0.136,0-0.269-0.037-0.386-0.107c-0.172-0.103-0.293-0.267-0.342-0.461C17.29,8.154,17.32,7.952,17.424,7.78l2.121-3.534
		c-0.923-0.811-2.026-1.477-3.226-1.945L15.625,4.73c-0.092,0.32-0.388,0.544-0.721,0.544c-0.069,0-0.138-0.01-0.206-0.029
		c-0.398-0.114-0.629-0.53-0.516-0.927l0.706-2.473c-0.935-0.232-1.899-0.349-2.87-0.349c-0.971,0-1.935,0.117-2.87,0.349
		l0.706,2.473C9.968,4.716,9.737,5.132,9.34,5.246C9.272,5.265,9.203,5.275,9.134,5.275c-0.333,0-0.629-0.224-0.721-0.544
		L7.719,2.301C6.52,2.769,5.416,3.435,4.493,4.247l2.12,3.534c0.213,0.355,0.097,0.816-0.257,1.029
		c-0.117,0.07-0.25,0.107-0.386,0.107c-0.262,0-0.509-0.14-0.643-0.364L3.414,5.363z"/>
</g>
</svg>
