<?xml version="1.0" encoding="utf-8"?>
<!-- Generator: Adobe Illustrator 22.1.0, SVG Export Plug-In . SVG Version: 6.00 Build 0)  -->
<svg version="1.1" id="Regular" xmlns="http://www.w3.org/2000/svg" xmlns:xlink="http://www.w3.org/1999/xlink" x="0px" y="0px"
	 viewBox="0 0 24 24" style="enable-background:new 0 0 24 24;" xml:space="preserve">
<title>pelican</title>
<g>
	<path d="M19.5,24c-0.977,0-1.706-0.486-2.291-0.876c-0.503-0.335-0.936-0.624-1.459-0.624c-0.523,0-0.956,0.289-1.458,0.624
		C13.706,23.514,12.978,24,12,24c-0.977,0-1.706-0.486-2.291-0.876C9.207,22.789,8.773,22.5,8.25,22.5s-0.957,0.289-1.459,0.624
		C6.206,23.514,5.477,24,4.5,24s-1.706-0.486-2.291-0.876C1.707,22.789,1.273,22.5,0.75,22.5C0.337,22.5,0,22.163,0,21.75
		S0.337,21,0.75,21c0.977,0,1.706,0.486,2.291,0.876C3.544,22.211,3.977,22.5,4.5,22.5s0.957-0.289,1.459-0.624
		C6.545,21.485,7.273,21,8.25,21s1.706,0.486,2.291,0.876C11.044,22.211,11.477,22.5,12,22.5c0.523,0,0.956-0.289,1.459-0.624
		C14.045,21.485,14.773,21,15.75,21s1.706,0.486,2.291,0.876c0.503,0.335,0.936,0.624,1.459,0.624s0.956-0.289,1.458-0.624
		C21.545,21.485,22.273,21,23.25,21c0.414,0,0.75,0.336,0.75,0.75s-0.336,0.75-0.75,0.75c-0.523,0-0.956,0.289-1.458,0.624
		C21.206,23.514,20.478,24,19.5,24z"/>
	<path d="M20.189,20.25c-0.309,0-0.582-0.185-0.696-0.472c-0.074-0.186-0.072-0.39,0.007-0.574c0.079-0.184,0.225-0.327,0.411-0.401
		c2.441-0.977,2.627-4.865,2.582-6.606l-1.844,0.461c-0.556,2.379-2.224,6.092-7.209,6.092c-0.414,0-0.75-0.336-0.75-0.75
		s0.336-0.75,0.75-0.75c2.478,0,4.235-1.113,5.222-3.308c0.434-0.965,0.627-1.938,0.712-2.607l-6.406,0.641l-1.021,2.553
		C11.832,14.815,11.559,15,11.25,15c-0.096,0-0.19-0.018-0.279-0.054c-0.384-0.154-0.571-0.591-0.418-0.975l4.091-10.226
		c0.13-0.325,0.021-0.692-0.265-0.892c-1.147-0.841-2.495-1.308-3.904-1.354c-0.106-0.008-0.192-0.012-0.278-0.012
		c-1.203,0-2.286,0.71-2.759,1.809c-0.061,0.141-0.161,0.258-0.292,0.34L2.165,6.75H6c0.414,0,0.75,0.336,0.75,0.75
		S6.414,8.25,6,8.25H1.721C1.8,8.551,1.896,8.835,2.01,9.097c0.627,1.449,1.687,2.153,3.24,2.153c0.964,0,1.808-0.237,2.508-0.705
		c0.004-0.003,0.012-0.008,0.02-0.013c1.614-1.093,1.969-3.074,1.983-3.158C9.822,7.013,10.133,6.75,10.5,6.75
		c0.041,0,0.083,0.003,0.124,0.01c0.408,0.069,0.683,0.456,0.616,0.863c-0.004,0.026-0.455,2.601-2.551,4.092l-0.603,0.753
		c-0.108,0.136-2.646,3.39-0.692,6.646c0.103,0.172,0.133,0.373,0.084,0.568s-0.17,0.358-0.342,0.461
		c-0.116,0.07-0.249,0.107-0.385,0.107c-0.262,0-0.509-0.14-0.643-0.364c-1.706-2.843-0.687-5.719,0.086-7.2
		C5.887,12.728,5.572,12.75,5.25,12.75c-3.977,0-4.937-3.529-5.166-5.072C0.07,7.621,0.063,7.567,0.061,7.514
		C0.002,7.053,0,6.753,0,6.75c0-0.26,0.132-0.498,0.353-0.636l5.811-3.632c0.754-1.52,2.319-2.495,4.02-2.495
		c0.126,0,0.252,0.005,0.379,0.016c1.68,0.053,3.309,0.618,4.691,1.632c0.848,0.595,1.173,1.694,0.784,2.668l-2.441,6.103
		l6.519-0.652c0.026-0.002,0.05-0.004,0.073-0.004c0.187,0,0.366,0.069,0.504,0.194c0.157,0.143,0.247,0.345,0.247,0.556
		c0,0.003-0.001,0.206-0.031,0.547l2.099-0.525c0.06-0.015,0.121-0.022,0.182-0.022c0.154,0,0.302,0.047,0.428,0.135
		c0.177,0.123,0.293,0.318,0.317,0.533c0.008,0.073,0.194,1.812-0.098,3.757c-0.41,2.732-1.575,4.555-3.37,5.272
		C20.379,20.232,20.285,20.25,20.189,20.25z"/>
	<path d="M10.875,5.25c-0.044,0-0.088-0.004-0.131-0.012c-0.513-0.06-0.922-0.47-0.982-0.982C9.754,4.212,9.75,4.168,9.75,4.125
		s0.004-0.088,0.012-0.131c0.06-0.513,0.47-0.922,0.982-0.982C10.787,3.003,10.831,3,10.875,3s0.088,0.004,0.131,0.012
		c0.513,0.06,0.922,0.47,0.982,0.982C11.996,4.037,12,4.081,12,4.125s-0.004,0.088-0.012,0.131c-0.06,0.513-0.47,0.922-0.982,0.982
		C10.963,5.246,10.919,5.25,10.875,5.25z"/>
</g>
</svg>
