<?xml version="1.0" encoding="utf-8"?>
<!-- Generator: Adobe Illustrator 22.1.0, SVG Export Plug-In . SVG Version: 6.00 Build 0)  -->
<svg version="1.1" id="Layer_1" xmlns="http://www.w3.org/2000/svg" xmlns:xlink="http://www.w3.org/1999/xlink" x="0px" y="0px"
	 viewBox="0 0 24 24" style="enable-background:new 0 0 24 24;" xml:space="preserve">
<title>people-woman-4</title>
<g>
	<path d="M21.449,23.999c-0.288,0-0.554-0.168-0.677-0.428c-0.31-0.651-0.692-1.267-1.139-1.835
		c-0.142,0.22-0.251,0.379-0.293,0.439c-0.14,0.203-0.371,0.324-0.617,0.324s-0.477-0.121-0.617-0.323
		c-0.327-0.473-1.354-2.017-1.584-3.042c-0.04-0.021-0.08-0.042-0.12-0.062c-0.166,2.331-2.116,4.177-4.489,4.177
		c-2.352,0-4.288-1.813-4.484-4.115c-0.002,0.001-0.005,0.003-0.007,0.004c-0.231,1.025-1.257,2.566-1.583,3.038
		c-0.14,0.203-0.371,0.324-0.617,0.324s-0.477-0.121-0.617-0.323c-0.042-0.06-0.15-0.219-0.292-0.438
		c-0.446,0.568-0.827,1.183-1.136,1.834c-0.124,0.26-0.39,0.428-0.677,0.428c-0.112,0-0.22-0.024-0.322-0.073
		C1.997,23.841,1.86,23.689,1.793,23.5c-0.067-0.189-0.057-0.392,0.03-0.573c0.441-0.927,1.007-1.788,1.684-2.566
		c-0.359-0.698-0.534-1.227-0.534-1.612c0-0.606,0.244-1.178,0.667-1.597c-0.422-0.554-0.667-1.329-0.667-2.153
		s0.244-1.598,0.667-2.153c-0.423-0.419-0.667-0.991-0.667-1.597V9c0-0.294,0.015-0.59,0.043-0.88
		c0.455-4.63,4.303-8.122,8.951-8.122c0.295,0,0.595,0.015,0.89,0.044c4.704,0.589,8.186,4.596,8.11,9.32v1.888
		c0,0.604-0.242,1.176-0.664,1.595c0.424,0.554,0.669,1.33,0.669,2.155c0,0.824-0.244,1.598-0.667,2.153
		c0.423,0.419,0.667,0.991,0.667,1.597c0,0.385-0.175,0.913-0.533,1.611c0.678,0.778,1.245,1.64,1.686,2.567
		c0.086,0.18,0.097,0.384,0.03,0.573c-0.067,0.189-0.204,0.34-0.384,0.426C21.669,23.975,21.561,23.999,21.449,23.999z
		 M8.914,18.749c0,1.654,1.346,3,3,3c1.654,0,3-1.346,3-3v-0.291c-0.948-0.299-1.933-0.451-2.932-0.451
		c-1.047,0-2.078,0.166-3.068,0.494V18.749z M18.723,17.999c-0.414,0-0.75,0.336-0.75,0.75c0,0.184,0.26,0.785,0.75,1.608
		c0.489-0.823,0.75-1.424,0.75-1.608C19.473,18.336,19.137,17.999,18.723,17.999z M5.223,17.999c-0.414,0-0.75,0.336-0.75,0.75
		c0,0.184,0.261,0.785,0.75,1.608c0.489-0.824,0.75-1.425,0.75-1.608C5.973,18.336,5.637,17.999,5.223,17.999z M6.806,17.152
		c0.134,0.133,0.25,0.281,0.346,0.443c0.212-0.102,0.425-0.195,0.634-0.279c0.068-0.04,0.143-0.068,0.223-0.084
		c1.269-0.478,2.601-0.721,3.962-0.722c-0.582-0.001-1.164-0.087-1.728-0.257c-1.106-0.333-2.071-0.961-2.808-1.814
		c0.025,0.183,0.037,0.37,0.037,0.56C7.473,15.823,7.229,16.598,6.806,17.152z M16.034,17.267c0.257,0.099,0.511,0.209,0.76,0.327
		c0.096-0.162,0.212-0.31,0.345-0.442c-0.423-0.554-0.667-1.329-0.667-2.153c0-0.192,0.013-0.381,0.038-0.565
		c-0.474,0.548-1.047,1.008-1.698,1.358c-0.872,0.469-1.85,0.717-2.828,0.718c1.313,0.001,2.603,0.228,3.833,0.676
		C15.895,17.202,15.967,17.229,16.034,17.267z M18.723,13.499c-0.347,0-0.75,0.655-0.75,1.5s0.403,1.5,0.75,1.5s0.75-0.655,0.75-1.5
		S19.07,13.499,18.723,13.499z M5.223,13.499c-0.347,0-0.75,0.655-0.75,1.5s0.403,1.5,0.75,1.5s0.75-0.655,0.75-1.5
		S5.57,13.499,5.223,13.499z M7.544,9.695c-0.185,1.002-0.024,2.038,0.463,2.943c0.569,1.059,1.517,1.833,2.668,2.179
		c0.426,0.128,0.864,0.193,1.303,0.193c0.734,0,1.469-0.186,2.125-0.539c1.059-0.569,1.833-1.517,2.179-2.668
		c0.206-0.685,0.246-1.409,0.117-2.109c-2.251-0.301-3.657-1.768-4.425-2.901C11.206,7.927,9.798,9.395,7.544,9.695z M18.718,11.999
		c0.414,0,0.75-0.336,0.75-0.75v-1.9c0.064-3.967-2.85-7.326-6.777-7.818c-0.234-0.023-0.481-0.035-0.725-0.035
		c-3.871,0-7.077,2.91-7.457,6.77C4.485,8.508,4.473,8.755,4.473,9v2.25c0,0.413,0.336,0.75,0.75,0.75h0.94
		c-0.276-1.06-0.257-2.163,0.062-3.221c0.092-0.306,0.369-0.521,0.688-0.533c3.037-0.122,4.353-3.245,4.366-3.276
		c0.113-0.28,0.387-0.469,0.683-0.469c0.005,0,0.023,0,0.028,0.001c0.293,0,0.566,0.185,0.68,0.471
		C12.682,5,13.998,8.12,17.031,8.245c0.319,0.013,0.595,0.227,0.688,0.533c0.316,1.053,0.338,2.161,0.066,3.221H18.718z"/>
</g>
</svg>
