<?xml version="1.0" encoding="utf-8"?>
<!-- Generator: Adobe Illustrator 22.1.0, SVG Export Plug-In . SVG Version: 6.00 Build 0)  -->
<svg version="1.1" id="Layer_1" xmlns="http://www.w3.org/2000/svg" xmlns:xlink="http://www.w3.org/1999/xlink" x="0px" y="0px"
	 viewBox="0 0 24 24" style="enable-background:new 0 0 24 24;" xml:space="preserve">
<title>people-woman-beanie</title>
<g>
	<path d="M11.973,2.25c-0.62,0-1.125-0.505-1.125-1.125S11.353,0,11.973,0c0.62,0,1.125,0.505,1.125,1.125S12.594,2.25,11.973,2.25z
		"/>
	<path d="M21.608,24c-0.372,0-0.683-0.267-0.74-0.634c-0.344-2.193-1.512-4.211-3.233-5.607c-0.483,1.047-1.536,1.741-2.72,1.741
		h-2.941v3.75c0,0.414-0.336,0.75-0.75,0.75s-0.75-0.336-0.75-0.75V19.5h-1.5v3.75c0,0.414-0.336,0.75-0.75,0.75
		s-0.75-0.336-0.75-0.75v-4.121c-0.542-0.297-0.975-0.751-1.246-1.3c-1.693,1.404-2.802,3.352-3.143,5.537
		C3.027,23.733,2.715,24,2.344,24c-0.038,0-0.076-0.003-0.114-0.009c-0.411-0.064-0.691-0.448-0.628-0.857
		c0.437-2.804,2.013-5.334,4.334-6.969C6.104,14.656,7.377,13.5,8.914,13.5h6c1.49,0,2.76,1.117,2.968,2.576
		c2.394,1.632,4.019,4.194,4.467,7.057c0.031,0.198-0.017,0.396-0.135,0.558c-0.118,0.162-0.292,0.268-0.49,0.299
		C21.686,23.997,21.647,24,21.608,24z M7.43,16.718C7.537,17.454,8.163,18,8.914,18h6c0.827,0,1.5-0.673,1.5-1.5s-0.673-1.5-1.5-1.5
		h-6c-0.775,0-1.417,0.59-1.491,1.355C7.456,16.474,7.458,16.598,7.43,16.718z"/>
	<path d="M11.973,13.5c-2.024,0-3.877-1.006-4.985-2.666c-0.468,0.731-1.197,1.347-2.176,1.837c-0.104,0.052-0.22,0.079-0.335,0.079
		c-0.286,0-0.543-0.159-0.671-0.414c-0.185-0.37-0.034-0.822,0.335-1.006C5.696,10.552,6.042,9.586,6.092,9H5.973
		c-0.414,0-0.75-0.336-0.75-0.75S5.559,7.5,5.973,7.5c0-3.308,2.692-6,6-6c3.308,0,6,2.692,6,6c0.414,0,0.75,0.336,0.75,0.75
		S18.387,9,17.973,9h-0.119c0.05,0.586,0.397,1.552,1.951,2.329c0.37,0.185,0.52,0.636,0.335,1.006
		c-0.128,0.256-0.385,0.415-0.671,0.415c-0.115,0-0.231-0.027-0.334-0.079c-0.978-0.489-1.708-1.104-2.179-1.833
		C15.847,12.495,13.994,13.5,11.973,13.5z M7.735,9c0.629,1.788,2.309,3,4.238,3s3.61-1.212,4.238-3H7.735z M16.473,7.5
		c0-2.481-2.019-4.5-4.5-4.5s-4.5,2.019-4.5,4.5H16.473z"/>
</g>
</svg>
