<?xml version="1.0" encoding="utf-8"?>
<!-- Generator: Adobe Illustrator 22.1.0, SVG Export Plug-In . SVG Version: 6.00 Build 0)  -->
<svg version="1.1" id="Layer_1" xmlns="http://www.w3.org/2000/svg" xmlns:xlink="http://www.w3.org/1999/xlink" x="0px" y="0px"
	 viewBox="0 0 24 24" style="enable-background:new 0 0 24 24;" xml:space="preserve">
<title>people-woman-glasses-3</title>
<g>
	<path d="M20.223,12.751c-0.115,0-0.231-0.027-0.334-0.079c-1.607-0.803-2.468-2.141-2.93-3.337
		c-1.105,1.643-2.979,2.666-4.985,2.666s-3.88-1.023-4.985-2.666c-0.462,1.195-1.323,2.534-2.93,3.337
		c-0.104,0.052-0.22,0.079-0.335,0.079c-0.286,0-0.543-0.159-0.671-0.414c-0.185-0.37-0.034-0.822,0.335-1.006
		c1.787-0.894,2.365-2.773,2.551-3.83C5.657,7.487,5.404,7.316,5.288,7.056c-0.168-0.378,0.003-0.822,0.38-0.99
		C5.772,6.02,5.873,5.977,5.974,5.934c0.036-3.278,2.713-5.933,6-5.933c3.286,0,5.964,2.656,6,5.933
		c0.101,0.042,0.202,0.085,0.305,0.131c0.378,0.168,0.549,0.612,0.381,0.99c-0.116,0.26-0.368,0.431-0.65,0.445
		c0.188,1.059,0.769,2.94,2.55,3.83c0.37,0.185,0.52,0.636,0.335,1.006C20.766,12.592,20.509,12.751,20.223,12.751z M7.57,6.906
		c0.425,2.069,2.268,3.595,4.403,3.595c2.135,0,3.978-1.526,4.403-3.595c-1.638-0.619-3.044-0.908-4.403-0.908
		C10.614,5.998,9.208,6.287,7.57,6.906z M11.973,4.506c1.413,0,2.838,0.262,4.444,0.822c-0.329-2.156-2.216-3.827-4.444-3.827
		S7.858,3.172,7.529,5.328C9.135,4.768,10.56,4.506,11.973,4.506z"/>
	<path d="M1.506,24.001c-0.022,0-0.044-0.001-0.066-0.003c-0.406-0.029-0.717-0.389-0.688-0.801c0.334-4.636,3.414-8.533,7.848-9.93
		c0.056-0.018,0.117-0.03,0.18-0.033c0.008,0,0.037-0.001,0.045-0.001c0.108,0,0.213,0.023,0.312,0.068
		c0.057,0.026,0.109,0.058,0.157,0.097l2.679,2.143l2.68-2.145c0.132-0.106,0.299-0.165,0.469-0.165
		c0.077,0,0.153,0.012,0.227,0.035c4.433,1.396,7.513,5.294,7.846,9.931c0.014,0.2-0.05,0.393-0.181,0.545
		c-0.131,0.151-0.313,0.243-0.513,0.257c-0.016,0.001-0.035,0.002-0.054,0.002c-0.391,0-0.719-0.306-0.748-0.696
		c-0.19-2.646-1.438-5.084-3.447-6.768l-1.067,3.202c-0.073,0.22-0.248,0.396-0.467,0.472c-0.079,0.027-0.161,0.041-0.244,0.041
		c-0.148,0-0.292-0.043-0.416-0.126l-4.084-2.723l-4.084,2.723c-0.124,0.083-0.268,0.126-0.416,0.126
		c-0.083,0-0.166-0.014-0.244-0.041c-0.219-0.075-0.394-0.252-0.468-0.472l-1.066-3.2c-2.009,1.684-3.257,4.121-3.447,6.767
		C2.22,23.695,1.895,24.001,1.506,24.001z M7.874,18.332l2.829-1.886l-2.027-1.621c-0.129,0.047-0.266,0.101-0.42,0.164
		c-0.093,0.039-0.186,0.081-0.278,0.123l-0.035,0.016c-0.083,0.038-0.166,0.076-0.248,0.115c-0.143,0.07-0.286,0.143-0.426,0.221
		l-0.061,0.034c-0.081,0.046-0.159,0.091-0.234,0.136L7.874,18.332z M16.072,18.332l0.899-2.699
		c-0.243-0.146-0.498-0.283-0.759-0.41l-0.117-0.054c-0.145-0.068-0.29-0.133-0.436-0.194c-0.062-0.025-0.126-0.049-0.189-0.072
		c0,0-0.193-0.073-0.203-0.077l-2.024,1.619L16.072,18.332z"/>
</g>
</svg>
