<?xml version="1.0" encoding="utf-8"?>
<!-- Generator: Adobe Illustrator 22.1.0, SVG Export Plug-In . SVG Version: 6.00 Build 0)  -->
<svg version="1.1" id="Layer_1" xmlns="http://www.w3.org/2000/svg" xmlns:xlink="http://www.w3.org/1999/xlink" x="0px" y="0px"
	 viewBox="0 0 24 24" style="enable-background:new 0 0 24 24;" xml:space="preserve">
<title>people-man-10</title>
<g>
	<path d="M21.28,24.001c-0.326,0-0.613-0.209-0.713-0.519c-0.696-2.15-2.139-3.924-4.087-5.038
		c-0.223,2.274-2.146,4.057-4.478,4.057c-2.33,0-4.252-1.78-4.478-4.051c-1.929,1.111-3.403,2.916-4.088,5.032
		C3.335,23.792,3.048,24,2.722,24c-0.079,0-0.157-0.012-0.231-0.037c-0.19-0.062-0.345-0.194-0.437-0.372
		c-0.091-0.178-0.107-0.382-0.046-0.572c0.934-2.886,3.074-5.225,5.872-6.421c0.049-0.028,0.102-0.05,0.157-0.066
		c0.272-0.111,0.504-0.198,0.728-0.27c1.054-0.342,2.144-0.515,3.239-0.515c1.369,0,2.71,0.267,3.986,0.794
		c0.033,0.011,0.065,0.025,0.097,0.041c0.265,0.113,0.485,0.214,0.691,0.319c2.499,1.277,4.35,3.45,5.214,6.119
		c0.062,0.19,0.046,0.394-0.045,0.572s-0.246,0.311-0.437,0.372C21.436,23.988,21.358,24.001,21.28,24.001L21.28,24.001z M9.001,18
		c0,1.654,1.346,3,3,3c1.654,0,3-1.346,3-3v-0.236c-0.966-0.344-1.971-0.518-2.991-0.518c-0.939,0-1.875,0.149-2.781,0.442
		c-0.076,0.025-0.152,0.051-0.227,0.078V18z"/>
	<path d="M11.999,15.001c-0.479,0-0.96-0.058-1.428-0.173c-1.557-0.382-2.872-1.347-3.703-2.718c-0.809-1.335-1.064-2.906-0.72-4.43
		L6.033,2.258c0-0.609,0.234-1.174,0.659-1.599C7.117,0.234,7.682,0,8.282,0l7.476,0c1.248,0.027,2.236,1.057,2.209,2.297
		l-0.116,5.378c0.204,0.905,0.196,1.855-0.023,2.752C17.168,13.121,14.771,15.001,11.999,15.001z M7.5,8.841
		c-0.034,0.874,0.188,1.728,0.651,2.492c0.623,1.028,1.61,1.752,2.777,2.038c0.352,0.086,0.713,0.13,1.072,0.13
		c2.079,0,3.876-1.41,4.371-3.43c0.097-0.398,0.14-0.815,0.125-1.23c-0.34,0.105-0.678,0.156-1.023,0.156
		c-0.679,0-1.259-0.198-1.819-0.388C13.138,8.433,12.603,8.25,12,8.25c-0.602,0-1.114,0.174-1.655,0.359
		C9.784,8.8,9.205,8.998,8.526,8.998C8.18,8.998,7.841,8.946,7.5,8.841z M7.64,7.291c0.31,0.14,0.597,0.206,0.89,0.206
		c0.429,0,0.847-0.143,1.331-0.308C10.465,6.983,11.149,6.75,12,6.75s1.535,0.233,2.138,0.439c0.484,0.165,0.903,0.308,1.332,0.308
		c0.293,0,0.58-0.066,0.889-0.206l0.108-5.025c0.009-0.413-0.32-0.757-0.734-0.766l-0.733,0v2.25c0,0.414-0.336,0.75-0.75,0.75
		s-0.75-0.336-0.75-0.75v-2.25l-3,0v2.25c0,0.414-0.336,0.75-0.75,0.75s-0.75-0.336-0.75-0.75V1.5H8.282
		c-0.413,0-0.75,0.336-0.75,0.75L7.64,7.291z"/>
</g>
</svg>
