<?xml version="1.0" encoding="utf-8"?>
<!-- Generator: Adobe Illustrator 22.1.0, SVG Export Plug-In . SVG Version: 6.00 Build 0)  -->
<svg version="1.1" id="Layer_1" xmlns="http://www.w3.org/2000/svg" xmlns:xlink="http://www.w3.org/1999/xlink" x="0px" y="0px"
	 viewBox="0 0 24 24" style="enable-background:new 0 0 24 24;" xml:space="preserve">
<title>people-woman-5</title>
<g>
	<path d="M0.959,24.001c-0.057,0-0.115-0.007-0.171-0.02c-0.401-0.093-0.654-0.496-0.561-0.899c0.892-3.871,3.64-7.053,7.353-8.517
		c0.059-0.032,0.122-0.056,0.186-0.071c0.496-0.186,1.001-0.339,1.504-0.455c0.891-0.205,1.802-0.309,2.709-0.309
		c1.473,0,2.92,0.269,4.302,0.799c0.004,0.001,0.022,0.008,0.025,0.009c3.745,1.442,6.524,4.638,7.425,8.544
		c0.093,0.403-0.16,0.806-0.562,0.899c-0.054,0.012-0.111,0.019-0.169,0.019c-0.351,0-0.652-0.239-0.731-0.582
		c-0.711-3.085-2.71-5.624-5.522-7.045c-0.26,2.47-3.928,4.967-4.359,5.252c-0.123,0.082-0.266,0.125-0.414,0.125
		s-0.291-0.043-0.414-0.125c-0.431-0.285-4.088-2.771-4.358-5.241c-2.774,1.419-4.816,4.011-5.513,7.034
		C1.61,23.762,1.31,24.001,0.959,24.001z M8.686,16.101c0,1.114,1.665,2.809,3.288,3.986c1.623-1.178,3.288-2.874,3.288-3.986V15.76
		c-1.066-0.352-2.172-0.53-3.29-0.53c-0.792,0-1.588,0.091-2.365,0.27c-0.292,0.067-0.595,0.154-0.921,0.263V16.101z"/>
	<path d="M20.821,15.231c-0.212,0-0.416-0.09-0.557-0.248c-1.221-1.353-2.391-2.815-3.482-4.352
		c-1.21,1.372-2.972,2.178-4.808,2.178c-1.846,0-3.561-0.776-4.778-2.144c-1.104,1.529-2.314,2.985-3.603,4.335
		c-0.141,0.147-0.339,0.232-0.542,0.232c-0.06,0-0.121-0.007-0.18-0.022c-0.262-0.065-0.469-0.266-0.542-0.524
		C2.265,14.457,0.75,9.082,0.75,7.212C0.749,6.37,1.009,5.563,1.502,4.88c0.622-0.862,1.542-1.43,2.591-1.6
		C4.304,3.245,4.518,3.228,4.73,3.228c0.52,0,1.039,0.105,1.521,0.306c1.084-2.159,3.29-3.533,5.723-3.533
		c2.445,0,4.654,1.382,5.735,3.554c0.491-0.209,1.024-0.319,1.56-0.319c1.281,0,2.49,0.619,3.235,1.655
		c0.488,0.681,0.746,1.483,0.747,2.32c0,1.828-1.537,6.915-1.712,7.488c-0.079,0.259-0.292,0.455-0.555,0.513
		C20.931,15.225,20.876,15.231,20.821,15.231z M4.734,4.728c-0.133,0-0.268,0.011-0.401,0.032C3.679,4.866,3.106,5.22,2.719,5.757
		C2.412,6.183,2.25,6.686,2.25,7.211c0,1.152,0.754,4.18,1.17,5.764c1.017-1.142,1.98-2.359,2.869-3.626
		C5.818,8.441,5.57,7.429,5.57,6.405c0-0.056,0.002-0.111,0.004-0.167c0,0,0.002-0.064,0.002-0.065
		c0.015-0.415,0.07-0.827,0.164-1.229C5.424,4.802,5.081,4.728,4.734,4.728z M17.681,9.306c0.878,1.268,1.819,2.493,2.805,3.653
		c0.45-1.581,1.265-4.602,1.265-5.747c0-0.522-0.161-1.022-0.465-1.446c-0.463-0.645-1.216-1.03-2.014-1.03
		c-0.367,0-0.727,0.081-1.056,0.236c0.09,0.394,0.143,0.797,0.157,1.202c0,0.004,0.002,0.071,0.002,0.071
		c0.002,0.053,0.003,0.106,0.003,0.159C18.378,7.412,18.138,8.41,17.681,9.306z M7.177,7.404c0.467,2.232,2.469,3.905,4.797,3.905
		c2.328,0,4.33-1.672,4.797-3.904c-0.375,0.104-0.762,0.156-1.156,0.156c-1.484,0-2.844-0.922-3.641-1.907
		c-0.798,0.985-2.157,1.907-3.635,1.907C7.942,7.561,7.553,7.508,7.177,7.404z M11.974,3.234c0.414,0,0.75,0.336,0.75,0.75
		c0.002,0.334,1.238,2.077,2.885,2.077c0.427,0,0.845-0.094,1.225-0.273c-0.307-2.423-2.396-4.287-4.86-4.287
		s-4.553,1.864-4.86,4.287c0.38,0.179,0.797,0.273,1.219,0.273c1.653,0,2.889-1.743,2.891-2.077
		C11.224,3.57,11.561,3.234,11.974,3.234z"/>
</g>
</svg>
