<?xml version="1.0" encoding="utf-8"?>
<!-- Generator: Adobe Illustrator 22.1.0, SVG Export Plug-In . SVG Version: 6.00 Build 0)  -->
<svg version="1.1" id="Layer_1" xmlns="http://www.w3.org/2000/svg" xmlns:xlink="http://www.w3.org/1999/xlink" x="0px" y="0px"
	 viewBox="0 0 24 24" style="enable-background:new 0 0 24 24;" xml:space="preserve">
<title>people-man-8</title>
<g>
	<path d="M12,12c-3.308,0-6-2.692-6-6s2.692-6,6-6c3.308,0,6,2.692,6,6S15.308,12,12,12z M7.731,4.588C7.578,5.045,7.5,5.518,7.5,6
		c0,2.481,2.019,4.5,4.5,4.5c2.364,0,4.308-1.833,4.486-4.152C15.603,6.615,14.689,6.75,13.76,6.75
		C11.578,6.75,9.414,5.967,7.731,4.588z M8.455,3.232c1.449,1.286,3.36,2.018,5.293,2.018c0.891,0,1.759-0.145,2.592-0.433
		C15.813,2.877,14.036,1.5,12,1.5C10.61,1.5,9.307,2.142,8.455,3.232z"/>
	<path d="M21.751,24c-0.414,0-0.75-0.336-0.75-0.75c0-2.557-1.059-4.949-2.926-6.648l-0.852,3.097
		c-0.064,0.232-0.236,0.42-0.461,0.504c-0.084,0.031-0.172,0.047-0.262,0.047c-0.149,0-0.293-0.044-0.416-0.126l-3.334-2.222v5.349
		c0,0.414-0.336,0.75-0.75,0.75c-0.414,0-0.75-0.336-0.75-0.75v-5.349l-3.334,2.223C7.792,20.207,7.648,20.25,7.5,20.25
		c-0.09,0-0.178-0.016-0.262-0.047c-0.225-0.084-0.397-0.272-0.461-0.504l-0.851-3.096C4.06,18.302,3.001,20.694,3,23.25
		C3,23.664,2.664,24,2.25,24S1.5,23.664,1.5,23.25c0.001-4.28,2.555-8.093,6.508-9.714c0.004-0.001,0.022-0.009,0.026-0.01
		c0.247-0.101,0.495-0.192,0.734-0.269C8.844,13.232,8.922,13.22,9,13.22c0.177,0,0.349,0.063,0.484,0.177L12,15.519l2.516-2.122
		c0.135-0.114,0.307-0.177,0.483-0.177c0.079,0,0.157,0.013,0.233,0.037c0.239,0.078,0.487,0.168,0.735,0.269
		c0,0,0.024,0.01,0.024,0.01c3.954,1.621,6.509,5.433,6.509,9.714C22.501,23.664,22.165,24,21.751,24z M16.052,18.3l0.735-2.673
		c-0.4-0.252-0.824-0.473-1.263-0.661l-0.053-0.022c-0.11-0.046-0.213-0.087-0.315-0.126l-1.91,1.611L16.052,18.3z M7.948,18.3
		l2.805-1.87l-1.91-1.611c-0.1,0.038-0.2,0.078-0.299,0.119l-0.067,0.028c-0.439,0.187-0.863,0.409-1.265,0.662L7.948,18.3z"/>
	<path d="M15,23.25c-0.414,0-0.75-0.336-0.75-0.75s0.336-0.75,0.75-0.75h3c0.414,0,0.75,0.336,0.75,0.75s-0.336,0.75-0.75,0.75H15z"
		/>
</g>
</svg>
