<?xml version="1.0" encoding="utf-8"?>
<!-- Generator: Adobe Illustrator 22.1.0, SVG Export Plug-In . SVG Version: 6.00 Build 0)  -->
<svg version="1.1" id="Layer_1" xmlns="http://www.w3.org/2000/svg" xmlns:xlink="http://www.w3.org/1999/xlink" x="0px" y="0px"
	 viewBox="0 0 24 24" style="enable-background:new 0 0 24 24;" xml:space="preserve">
<title>people-woman-graduate</title>
<g>
	<path d="M20.223,12.75c-0.115,0-0.231-0.027-0.334-0.079c-1.607-0.803-2.468-2.141-2.93-3.336C15.853,10.977,13.978,12,11.973,12
		c-2.006,0-3.88-1.023-4.985-2.666c-0.462,1.195-1.324,2.534-2.93,3.337c-0.104,0.052-0.22,0.079-0.335,0.079
		c-0.286,0-0.543-0.159-0.671-0.414c-0.185-0.37-0.034-0.822,0.335-1.006c2.402-1.201,2.62-4.201,2.637-4.554
		C5.99,6.513,5.973,6.253,5.973,6V1.5h-3v6.75C2.973,8.664,2.637,9,2.223,9s-0.75-0.336-0.75-0.75V1.5h-0.75
		c-0.414,0-0.75-0.336-0.75-0.75S0.309,0,0.723,0h22.5c0.414,0,0.75,0.336,0.75,0.75s-0.336,0.75-0.75,0.75h-5.25V6
		c0,0.255-0.018,0.517-0.052,0.78c0.019,0.357,0.252,3.356,2.637,4.549c0.37,0.185,0.52,0.636,0.335,1.006
		C20.766,12.591,20.509,12.75,20.223,12.75z M7.473,6c0,2.481,2.019,4.5,4.5,4.5s4.5-2.019,4.5-4.5H7.473z M16.473,4.5v-3h-9v3
		H16.473z"/>
	<path d="M1.503,24.001c-0.02,0-0.039-0.001-0.059-0.002c-0.197-0.014-0.38-0.105-0.511-0.257c-0.131-0.151-0.196-0.345-0.181-0.545
		c0.268-3.728,2.381-7.073,5.654-8.954c0.082-0.072,0.177-0.125,0.282-0.156c1.4-0.753,2.906-1.192,4.479-1.305
		c0.27-0.02,0.544-0.029,0.814-0.029c1.847,0,3.685,0.466,5.318,1.347c0.074,0.026,0.143,0.064,0.205,0.112
		c3.293,1.867,5.42,5.223,5.69,8.985c0.014,0.2-0.05,0.393-0.181,0.545c-0.131,0.151-0.313,0.243-0.513,0.257
		C22.484,24,22.465,24,22.445,24c-0.391,0-0.719-0.306-0.748-0.696c-0.224-3.121-1.938-5.94-4.601-7.59l-4.663,3.628
		c-0.131,0.102-0.294,0.158-0.461,0.158c-0.166,0-0.329-0.056-0.461-0.158L6.855,15.72c-2.668,1.66-4.384,4.476-4.607,7.584
		C2.22,23.694,1.893,24.001,1.503,24.001z M11.973,17.8l3.645-2.836c-1.161-0.472-2.385-0.711-3.646-0.711
		c-0.232,0-0.466,0.008-0.698,0.025c-1.014,0.073-2.001,0.304-2.943,0.689L11.973,17.8z"/>
</g>
</svg>
