<?xml version="1.0" encoding="utf-8"?>
<!-- Generator: Adobe Illustrator 22.1.0, SVG Export Plug-In . SVG Version: 6.00 Build 0)  -->
<svg version="1.1" id="Layer_1" xmlns="http://www.w3.org/2000/svg" xmlns:xlink="http://www.w3.org/1999/xlink" x="0px" y="0px"
	 viewBox="0 0 24 24" style="enable-background:new 0 0 24 24;" xml:space="preserve">
<title>people-woman-cap-4</title>
<g>
	<path d="M1.503,24.001c-0.02,0-0.039-0.001-0.059-0.002c-0.41-0.03-0.722-0.389-0.692-0.802c0.306-4.261,3.081-8.041,7.074-9.642
		c0.079-0.049,0.167-0.083,0.26-0.101c0.996-0.371,2.032-0.597,3.081-0.672c0.269-0.02,0.542-0.029,0.812-0.029
		c1.337,0,2.652,0.238,3.909,0.706c0.065,0.015,0.129,0.038,0.189,0.071c4.017,1.58,6.809,5.372,7.118,9.667
		c0.03,0.412-0.282,0.772-0.694,0.802C22.484,24,22.465,24,22.446,24c-0.391,0-0.719-0.306-0.748-0.696
		c-0.244-3.394-2.234-6.392-5.239-7.953c-0.18,2.318-2.123,4.149-4.486,4.149c-2.361,0-4.303-1.827-4.486-4.142
		c-3.006,1.57-4.996,4.565-5.239,7.945C2.22,23.694,1.893,24.001,1.503,24.001z M8.973,15c0,1.654,1.346,3,3,3s3-1.346,3-3v-0.271
		c-0.971-0.316-1.98-0.476-3.002-0.476c-0.231,0-0.466,0.009-0.697,0.025c-0.781,0.056-1.554,0.208-2.301,0.453V15z"/>
	<path d="M20.25,12.75c-0.115,0-0.231-0.027-0.334-0.079c-1.607-0.803-2.468-2.142-2.929-3.338C15.881,10.977,14.006,12,12,12
		c-2.007,0-3.881-1.024-4.986-2.667c-0.461,1.196-1.322,2.535-2.929,3.338c-0.104,0.052-0.22,0.079-0.335,0.079
		c-0.286,0-0.543-0.159-0.671-0.414c-0.185-0.37-0.034-0.822,0.335-1.006c2.431-1.215,2.623-4.297,2.635-4.572
		C6.017,6.499,6,6.245,6,6c0-3.308,2.692-6,6-6s6,2.692,6,6h3c0.414,0,0.75,0.336,0.75,0.75S21.414,7.5,21,7.5h-2.962
		c0.19,1.082,0.771,2.941,2.547,3.829c0.37,0.185,0.52,0.636,0.335,1.006C20.793,12.591,20.536,12.75,20.25,12.75z M7.762,7.5
		c0.629,1.788,2.309,3,4.238,3c1.929,0,3.61-1.212,4.238-3H7.762z M16.5,6c0-2.481-2.019-4.5-4.5-4.5c-1.292,0-2.499,0.55-3.347,1.5
		H9.75c0.414,0,0.75,0.336,0.75,0.75S10.164,4.5,9.75,4.5H7.758C7.587,4.982,7.5,5.486,7.5,6H16.5z"/>
</g>
</svg>
