<?xml version="1.0" encoding="utf-8"?>
<!-- Generator: Adobe Illustrator 22.1.0, SVG Export Plug-In . SVG Version: 6.00 Build 0)  -->
<svg version="1.1" id="Layer_1" xmlns="http://www.w3.org/2000/svg" xmlns:xlink="http://www.w3.org/1999/xlink" x="0px" y="0px"
	 viewBox="0 0 24 24" style="enable-background:new 0 0 24 24;" xml:space="preserve">
<title>people-man-7</title>
<g>
	<path d="M21.75,24C21.336,24,21,23.664,21,23.25c0-3.257-1.718-6.197-4.522-7.804C16.253,17.719,14.331,19.5,12,19.5
		s-4.253-1.781-4.478-4.054C4.718,17.053,3,19.992,3,23.25C3,23.664,2.664,24,2.25,24S1.5,23.664,1.5,23.25
		c0-4.238,2.53-8.039,6.445-9.685c0.011-0.005,0.035-0.015,0.061-0.024C9.262,13.019,10.613,12.75,12,12.75
		c1.384,0,2.731,0.268,4.005,0.795c0.022,0.008,0.043,0.017,0.065,0.027c3.901,1.639,6.43,5.44,6.43,9.678
		C22.5,23.664,22.164,24,21.75,24z M9,15c0,1.654,1.346,3,3,3c1.654,0,3-1.346,3-3v-0.233c-0.966-0.343-1.973-0.517-3-0.517
		s-2.035,0.174-3,0.517V15z"/>
	<path d="M12,12.005c-1.209,0-2.38-0.364-3.388-1.054c-2.726-1.866-3.429-5.6-1.571-8.329c0.005-0.008,0.011-0.016,0.016-0.024
		C8.166,0.976,10.016,0,11.996,0c5.667,0,6.673,4.057,7.407,7.019l0.074,0.299c0.099,0.397-0.143,0.804-0.538,0.907
		c-0.589,0.154-1.222,0.254-1.883,0.299c-0.026,0.005-0.049,0.008-0.073,0.009c-0.229,0.014-0.464,0.021-0.698,0.021
		c-3.497,0-7.081-1.601-8.624-3.755C7.15,6.63,7.843,8.607,9.459,9.714c0.756,0.517,1.635,0.791,2.541,0.791
		c0.887,0,1.75-0.263,2.496-0.76c0.124-0.082,0.267-0.126,0.416-0.126c0.251,0,0.485,0.125,0.624,0.334
		c0.111,0.167,0.151,0.367,0.112,0.563c-0.039,0.197-0.153,0.366-0.32,0.477C14.335,11.655,13.184,12.005,12,12.005L12,12.005z
		 M16.293,7.053l-0.003,0.375L16.3,7.053l0.037,0c0.516-0.003,1.019-0.045,1.499-0.124C17.148,4.196,16.288,1.5,12,1.5
		c-1.366,0-2.663,0.627-3.511,1.686c0.283,0.783,1.038,1.595,2.106,2.266c0.542,0.341,1.138,0.635,1.772,0.876
		c0.002,0.001,0.033,0.012,0.035,0.013c0.107,0.04,0.215,0.077,0.324,0.114c0.747,0.251,1.519,0.426,2.293,0.52l0.121,0.014
		c0.088,0.01,0.174,0.019,0.261,0.026c0.136,0.011,0.272,0.022,0.408,0.028l0.014,0.375l0.016-0.375
		c0.146,0.006,0.29,0.009,0.435,0.009c0.001,0,0.009,0,0.014,0C16.291,7.053,16.293,7.053,16.293,7.053z"/>
</g>
</svg>
