<?xml version="1.0" encoding="utf-8"?>
<!-- Generator: Adobe Illustrator 22.1.0, SVG Export Plug-In . SVG Version: 6.00 Build 0)  -->
<svg version="1.1" id="Layer_1" xmlns="http://www.w3.org/2000/svg" xmlns:xlink="http://www.w3.org/1999/xlink" x="0px" y="0px"
	 viewBox="0 0 24 24" style="enable-background:new 0 0 24 24;" xml:space="preserve">
<title>performance-increase-mail</title>
<g>
	<path d="M3,24c-1.241,0-2.25-1.009-2.25-2.25v-10.5c0-0.018,0.003-0.049,0.005-0.067c0-0.005,0.002-0.033,0.007-0.061
		c0.004-0.022,0.009-0.044,0.015-0.066c0.01-0.034,0.016-0.056,0.025-0.077c0.008-0.022,0.02-0.046,0.032-0.069
		c0.003-0.008,0.012-0.027,0.024-0.046l2.25-3.75C3.242,6.889,3.488,6.75,3.75,6.75c0.136,0,0.269,0.037,0.386,0.107
		c0.355,0.213,0.47,0.674,0.257,1.029l-1.606,2.677L6,13.112V9.75c0-0.827,0.673-1.5,1.5-1.5h2.25c0.827,0,1.5,0.673,1.5,1.5v7.37
		c0.24,0.085,0.495,0.13,0.75,0.13c0.254,0,0.51-0.044,0.75-0.13V8.25c0-0.827,0.673-1.5,1.5-1.5h2.25c0.827,0,1.5,0.673,1.5,1.5
		v4.864l3.215-2.548l-1.608-2.68c-0.103-0.172-0.133-0.373-0.084-0.568c0.049-0.194,0.17-0.358,0.342-0.461
		c0.116-0.07,0.25-0.107,0.385-0.107c0.262,0,0.509,0.14,0.644,0.365l1.911,3.184c0.029,0.039,0.05,0.076,0.069,0.116l0.27,0.45
		c0.009,0.015,0.023,0.043,0.03,0.059c0.003,0.005,0.015,0.028,0.024,0.053c0.01,0.027,0.016,0.047,0.022,0.067
		c0.009,0.031,0.015,0.056,0.019,0.081c0.004,0.024,0.007,0.05,0.008,0.077c0.001,0.009,0.003,0.04,0.003,0.048v10.5
		C23.25,22.99,22.241,24,21,24H3z M2.25,21.75c0,0.414,0.336,0.75,0.75,0.75h18c0.414,0,0.75-0.336,0.75-0.75v-9.694l-7.431,5.891
		c-0.113,0.089-0.234,0.171-0.379,0.259c-0.043,0.031-0.085,0.056-0.13,0.077c-0.555,0.307-1.181,0.469-1.81,0.469
		c-0.63,0-1.255-0.162-1.809-0.469c-0.044-0.02-0.087-0.045-0.129-0.076c-0.143-0.087-0.267-0.171-0.377-0.258L2.25,12.052V21.75z
		 M14.25,16.087l2.25-1.783V8.25h-2.25V16.087z M9.75,16.086V9.75H7.5l0,4.552L9.75,16.086z"/>
	<path d="M18.584,5.798c-0.066,0-0.133-0.009-0.197-0.026c-0.398-0.108-0.635-0.52-0.528-0.919l0.443-1.636l-3.485,1.999
		c-0.231,0.133-0.494,0.204-0.759,0.204c-0.134,0-0.268-0.018-0.399-0.053c-0.394-0.106-0.724-0.36-0.927-0.713l-1.145-1.993
		c-0.007-0.012-0.022-0.013-0.024-0.013l-4.59,2.63c-0.113,0.065-0.242,0.1-0.373,0.1l0,0c-0.268,0-0.518-0.144-0.651-0.377
		C5.85,4.825,5.824,4.623,5.876,4.43c0.052-0.193,0.177-0.355,0.351-0.454l4.576-2.626c0.231-0.133,0.493-0.203,0.759-0.203
		c0.546,0,1.054,0.293,1.326,0.765c0,0,1.145,1.993,1.145,1.994c0.003,0.002,0.025,0.014,0.025,0.014l3.497-2.003l-1.633-0.442
		c-0.399-0.108-0.636-0.52-0.528-0.92c0.089-0.327,0.386-0.555,0.723-0.555c0.067,0,0.133,0.009,0.198,0.027l3.381,0.915
		c0.009,0.002,0.017,0.005,0.025,0.008c0.088,0.028,0.165,0.068,0.235,0.121c0.006,0.005,0.012,0.009,0.018,0.014
		c0.072,0.059,0.132,0.129,0.177,0.208c0.024,0.041,0.045,0.088,0.061,0.137c0.005,0.015,0.014,0.051,0.017,0.066
		c0.007,0.027,0.012,0.05,0.015,0.074c0.003,0.03,0.004,0.053,0.004,0.077c0.001,0.022,0.002,0.045,0,0.068
		c-0.001,0.018-0.006,0.053-0.01,0.07c-0.002,0.021-0.007,0.05-0.015,0.078l-0.916,3.381C19.219,5.57,18.922,5.798,18.584,5.798z"/>
</g>
</svg>
