<?xml version="1.0" encoding="utf-8"?>
<!-- Generator: Adobe Illustrator 22.1.0, SVG Export Plug-In . SVG Version: 6.00 Build 0)  -->
<svg version="1.1" id="Layer_1" xmlns="http://www.w3.org/2000/svg" xmlns:xlink="http://www.w3.org/1999/xlink" x="0px" y="0px"
	 viewBox="0 0 24 24" style="enable-background:new 0 0 24 24;" xml:space="preserve">
<title>performance-tablet-increase</title>
<g>
	<path d="M18.171,23.995c-0.211,0-0.414-0.09-0.556-0.246c-0.315-0.347-1.882-2.149-1.882-3.549v-2.215l-3.344-3.774
		c-0.357-0.354-0.57-0.878-0.57-1.419c0-0.549,0.214-1.064,0.602-1.452c0.388-0.388,0.903-0.601,1.452-0.601
		c0.532,0,1.035,0.202,1.419,0.569l0.47,0.377V2.124c0-0.344-0.281-0.624-0.625-0.624H2.135c-0.344,0-0.624,0.28-0.624,0.624v18.251
		c0,0.344,0.28,0.625,0.625,0.625h11.375c0.414,0,0.75,0.336,0.75,0.75s-0.336,0.75-0.75,0.75H2.135
		c-1.171-0.001-2.124-0.954-2.124-2.125V2.124C0.011,0.953,0.964,0,2.135,0h13c1.172,0,2.125,0.953,2.126,2.123V7.87
		c0.206,0.147,0.445,0.313,0.725,0.505c1.91,1.314,4.525,3.113,4.525,5.125v5.023l1.364,2.046c0.111,0.167,0.151,0.367,0.112,0.563
		c-0.039,0.196-0.153,0.365-0.32,0.477c-0.123,0.082-0.267,0.126-0.416,0.126c-0.251,0-0.485-0.125-0.624-0.334l-1.49-2.235
		c-0.083-0.124-0.126-0.268-0.126-0.416V13.5c0-1.188-2.291-2.797-3.75-3.802v3.189l1.649,1.321
		c0.323,0.259,0.375,0.732,0.116,1.054c-0.144,0.179-0.357,0.281-0.586,0.281c-0.169,0-0.336-0.058-0.468-0.164l-3.648-2.923
		c-0.02-0.016-0.041-0.034-0.06-0.053c-0.099-0.099-0.242-0.155-0.393-0.155c-0.151,0-0.294,0.056-0.391,0.153
		c-0.104,0.104-0.162,0.244-0.162,0.391s0.058,0.287,0.162,0.391l3.564,4.02c0.122,0.137,0.189,0.314,0.189,0.498v2.5
		c0,0.614,0.874,1.856,1.494,2.542c0.277,0.306,0.254,0.781-0.053,1.059C18.536,23.926,18.357,23.995,18.171,23.995z"/>
	<path d="M3.761,12.75c-0.21,0-0.411-0.089-0.553-0.244c-0.279-0.304-0.259-0.78,0.046-1.059L10.833,4.5H9.761
		c-0.414,0-0.75-0.336-0.75-0.75S9.347,3,9.761,3h3c0.014,0,0.032,0.001,0.048,0.003c0.006,0,0.011,0.001,0.016,0.002
		c0.076,0.005,0.163,0.026,0.242,0.061c0.012,0.005,0.028,0.014,0.039,0.02c0.057,0.026,0.123,0.073,0.182,0.131
		c0.005,0.005,0.01,0.009,0.015,0.014c0.016,0.016,0.031,0.034,0.044,0.053c0.052,0.065,0.089,0.132,0.116,0.203
		c0.003,0.009,0.009,0.026,0.012,0.035c0.024,0.075,0.037,0.151,0.037,0.227v3c0,0.414-0.336,0.75-0.75,0.75s-0.75-0.336-0.75-0.75
		V5.455l-7.743,7.098C4.128,12.68,3.949,12.75,3.761,12.75z"/>
	<path d="M5.251,19.5c-0.414,0-0.75-0.336-0.75-0.75v-3c0-0.414,0.336-0.75,0.75-0.75s0.75,0.336,0.75,0.75v3
		C6.001,19.164,5.664,19.5,5.251,19.5z"/>
	<path d="M8.251,19.5c-0.414,0-0.75-0.336-0.75-0.75V13.5c0-0.414,0.336-0.75,0.75-0.75s0.75,0.336,0.75,0.75v5.25
		C9.001,19.164,8.664,19.5,8.251,19.5z"/>
</g>
</svg>
