<?xml version="1.0" encoding="utf-8"?>
<!-- Generator: Adobe Illustrator 22.1.0, SVG Export Plug-In . SVG Version: 6.00 Build 0)  -->
<svg version="1.1" id="Layer_1" xmlns="http://www.w3.org/2000/svg" xmlns:xlink="http://www.w3.org/1999/xlink" x="0px" y="0px"
	 viewBox="0 0 24 24" style="enable-background:new 0 0 24 24;" xml:space="preserve">
<title>performance-decrease</title>
<g>
	<path d="M0.75,24C0.336,24,0,23.664,0,23.25s0.336-0.75,0.75-0.75H1.5v-12C1.5,9.673,2.173,9,3,9h3c0.827,0,1.5,0.673,1.5,1.5v12H9
		v-9c0-0.827,0.673-1.5,1.5-1.5h3c0.827,0,1.5,0.673,1.5,1.5v9h1.5V18c0-0.827,0.673-1.5,1.5-1.5h3c0.827,0,1.5,0.673,1.5,1.5v4.5
		h0.75c0.414,0,0.75,0.336,0.75,0.75S23.664,24,23.25,24H0.75z M21,22.5V18h-3l0,4.5H21z M13.5,22.5v-9h-3l0,9H13.5z M6,22.5v-12H3
		l0,12H6z"/>
	<path d="M17.387,9.991c-0.311,0-0.593-0.196-0.702-0.487c-0.145-0.387,0.052-0.82,0.438-0.965l1.486-0.558L4.19,1.433
		C4.008,1.35,3.868,1.201,3.798,1.014S3.734,0.622,3.817,0.44C3.939,0.173,4.207,0,4.501,0C4.608,0,4.712,0.023,4.81,0.067
		l14.42,6.548L18.672,5.13c-0.145-0.387,0.052-0.821,0.438-0.966c0.084-0.032,0.173-0.048,0.263-0.048
		c0.311,0,0.593,0.196,0.702,0.487l1.194,3.181c0.018,0.047,0.03,0.095,0.038,0.143c0.002,0.012,0.004,0.029,0.005,0.044
		c0.004,0.036,0.006,0.067,0.005,0.098c0,0.015-0.003,0.041-0.005,0.057c-0.004,0.038-0.008,0.064-0.014,0.09
		c-0.01,0.045-0.026,0.093-0.047,0.14c-0.036,0.08-0.086,0.151-0.154,0.219c-0.016,0.016-0.033,0.031-0.05,0.045
		C21,8.659,20.95,8.691,20.898,8.717c-0.021,0.013-0.045,0.025-0.065,0.032l-3.182,1.194C17.566,9.975,17.477,9.991,17.387,9.991z"
		/>
</g>
</svg>
