<?xml version="1.0" encoding="utf-8"?>
<!-- Generator: Adobe Illustrator 22.1.0, SVG Export Plug-In . SVG Version: 6.00 Build 0)  -->
<svg version="1.1" id="Regular" xmlns="http://www.w3.org/2000/svg" xmlns:xlink="http://www.w3.org/1999/xlink" x="0px" y="0px"
	 viewBox="0 0 24 24" style="enable-background:new 0 0 24 24;" xml:space="preserve">
<title>pet-tracking-cat-smartphone</title>
<g>
	<path d="M6.75,19.499c-0.414,0-0.75-0.336-0.75-0.75v-5.25c-0.278,0-0.552-0.039-0.818-0.115l-0.688,5.459
		c-0.047,0.374-0.367,0.656-0.744,0.656c-0.031,0-0.062-0.002-0.093-0.006c-0.2-0.025-0.377-0.126-0.5-0.284
		s-0.177-0.355-0.152-0.554l0.774-6.142C3.276,11.959,3,11.251,3,10.498C3,9.972,3.137,9.463,3.399,9.01L1.127,6.507
		C0.405,5.786,0,4.804,0,3.754c0-1.05,0.408-2.037,1.151-2.78c0.623-0.622,1.451-0.965,2.332-0.965c0.881,0,1.708,0.342,2.33,0.963
		c1.086,1.087,1.086,2.854,0,3.941c-0.142,0.142-0.33,0.22-0.53,0.22s-0.389-0.078-0.53-0.219c-0.293-0.293-0.293-0.768,0-1.061
		c0.501-0.502,0.501-1.318,0-1.82C4.413,1.695,3.963,1.508,3.482,1.508c-0.48,0-0.931,0.186-1.27,0.525
		C1.753,2.493,1.5,3.104,1.5,3.753s0.253,1.26,0.712,1.719l2.236,2.462C4.916,7.648,5.446,7.498,6,7.498h7.597
		c-0.06-0.242-0.092-0.488-0.097-0.735V2.31c0-0.34,0.116-0.673,0.329-0.938c0.286-0.357,0.713-0.562,1.172-0.562
		c0.339,0,0.672,0.117,0.937,0.329l1.594,1.279C17.668,2.526,17.83,2.583,18,2.583c0.171,0,0.333-0.057,0.469-0.166l1.598-1.279
		c0.265-0.212,0.598-0.329,0.938-0.329c0.402,0,0.778,0.157,1.062,0.44c0.283,0.284,0.438,0.66,0.438,1.061v4.438
		c-0.009,0.772-0.284,1.518-0.775,2.104c-0.143,0.171-0.353,0.269-0.575,0.269c-0.176,0-0.346-0.062-0.481-0.175
		c-0.317-0.266-0.359-0.739-0.094-1.057c0.27-0.322,0.42-0.73,0.425-1.15V2.31l-1.598,1.278c-0.4,0.32-0.899,0.496-1.406,0.496
		c-0.507,0-1.006-0.176-1.406-0.496L15,2.309l0,4.44c0.008,0.364,0.126,0.725,0.342,1.04c0.016,0.02,0.031,0.041,0.045,0.063
		c0.094,0.126,0.198,0.237,0.309,0.329c0.318,0.265,0.361,0.739,0.096,1.056c-0.143,0.172-0.353,0.27-0.576,0.27
		c-0.175,0-0.346-0.062-0.48-0.174c-0.12-0.1-0.234-0.21-0.344-0.334H6c-0.827,0-1.5,0.673-1.5,1.5s0.673,1.5,1.5,1.5h6
		c0.414,0,0.75,0.336,0.75,0.75s-0.336,0.75-0.75,0.75H7.5v5.25C7.5,19.162,7.164,19.499,6.75,19.499z"/>
	<path d="M16.75,23.999c-0.965,0-1.75-0.785-1.75-1.75v-10c0-0.965,0.785-1.75,1.75-1.75h5.5c0.965,0,1.75,0.785,1.75,1.75v10
		c0,0.965-0.785,1.75-1.75,1.75H16.75z M16.75,11.998c-0.138,0-0.25,0.112-0.25,0.25v10c0,0.138,0.112,0.25,0.25,0.25h5.5
		c0.138,0,0.25-0.112,0.25-0.25v-10c0-0.138-0.112-0.25-0.25-0.25H16.75z"/>
	<path d="M19.5,20.628c-0.053,0-0.107-0.006-0.164-0.02c-0.499-0.074-0.885-0.468-0.948-0.969c-0.009-0.045-0.013-0.091-0.013-0.136
		c0-0.001,0-0.003,0-0.004c0-0.045,0.004-0.091,0.013-0.136c0.063-0.501,0.449-0.896,0.948-0.969c0.057-0.013,0.111-0.02,0.164-0.02
		c0.62,0,1.125,0.505,1.125,1.125c0,0.001,0,0.003,0,0.004C20.625,20.123,20.121,20.628,19.5,20.628z"/>
</g>
</svg>
