<?xml version="1.0" encoding="utf-8"?>
<!-- Generator: Adobe Illustrator 22.1.0, SVG Export Plug-In . SVG Version: 6.00 Build 0)  -->
<svg version="1.1" id="Regular" xmlns="http://www.w3.org/2000/svg" xmlns:xlink="http://www.w3.org/1999/xlink" x="0px" y="0px"
	 viewBox="0 0 24 24" style="enable-background:new 0 0 24 24;" xml:space="preserve">
<title>pet-tracking-dog-signal</title>
<g>
	<path d="M11.25,24.015c-0.054,0-0.11-0.006-0.165-0.019c-0.013-0.003-0.042-0.011-0.055-0.016c-0.03-0.009-0.066-0.021-0.102-0.039
		c-0.011-0.005-0.042-0.022-0.053-0.029c-0.031-0.018-0.061-0.037-0.09-0.06c-0.015-0.011-0.033-0.027-0.05-0.044
		c-0.009-0.007-0.027-0.023-0.043-0.042c-0.008-0.008-0.015-0.017-0.022-0.027c-0.008-0.009-0.018-0.021-0.027-0.034L6.622,18.21
		c-0.168-0.153-0.329-0.192-0.768-0.192c-0.08,0-0.167,0.001-0.26,0.003l-0.026,0c-0.102,0.002-0.207,0.003-0.318,0.003
		c-1.298,0-5.25,0-5.25-3.757v-1.5c0-1.241,1.009-2.25,2.25-2.25h2.425c0.426-1.469,1.147-2.98,2.987-3.611l1.377-4.129
		C9.141,2.471,9.427,2.265,9.75,2.265c0.044,0,4.32,0.065,4.494,5.646l9.338,7.841c0.153,0.129,0.247,0.31,0.265,0.509
		c0.018,0.2-0.044,0.394-0.173,0.548c-0.142,0.17-0.351,0.268-0.574,0.268c0,0,0,0,0,0c-0.176,0-0.347-0.062-0.482-0.176
		l-1.634-1.372l-9.233,8.295c-0.008,0.007-0.046,0.038-0.056,0.046c-0.049,0.035-0.092,0.054-0.115,0.065
		c-0.027,0.015-0.056,0.029-0.086,0.039C11.416,24,11.332,24.015,11.25,24.015z M11.366,22.153l8.458-7.599l-1.058-0.888
		l-8.234,7.348L11.366,22.153z M5.85,16.518c0.583,0,1.256,0.052,1.87,0.667c0.026,0.026,0.052,0.056,0.075,0.087l1.848,2.525
		l7.963-7.106l-4.587-3.852c-0.17-0.143-0.268-0.353-0.268-0.574c0-1.918-0.523-3.257-1.555-3.979
		c-0.337-0.236-0.673-0.365-0.933-0.435l-1.3,3.901C8.88,7.997,8.682,8.18,8.431,8.242c-1.469,0.367-2.028,1.499-2.454,3.207
		c-0.083,0.335-0.383,0.569-0.728,0.569h-3c-0.414,0-0.75,0.337-0.75,0.75v1.5c0,1.355,0.638,2.257,3.75,2.257
		c0.11,0,0.216-0.002,0.317-0.004C5.672,16.519,5.761,16.518,5.85,16.518z"/>
	<path d="M9.376,12.015c-0.62,0-1.124-0.503-1.126-1.121c0-0.001,0-0.004,0-0.004c0-0.571,0.426-1.047,0.994-1.114
		c0.043-0.008,0.087-0.011,0.131-0.011s0.088,0.004,0.131,0.011c0.54,0.063,0.954,0.5,0.989,1.044
		c0.003,0.011,0.005,0.04,0.005,0.069c0,0.011-0.001,0.028-0.002,0.042c-0.008,0.28-0.123,0.55-0.325,0.753
		c-0.212,0.213-0.494,0.33-0.794,0.331c0,0-0.001,0-0.001,0C9.378,12.015,9.376,12.015,9.376,12.015z"/>
	<path d="M15,2.975c-0.228,0-0.44-0.102-0.583-0.279c-0.126-0.155-0.184-0.351-0.163-0.55s0.118-0.378,0.274-0.504
		c1.289-1.042,2.921-1.617,4.597-1.617s3.308,0.574,4.597,1.617c0.156,0.126,0.253,0.305,0.274,0.504s-0.037,0.395-0.163,0.551
		c-0.143,0.177-0.355,0.278-0.583,0.278c-0.171,0-0.339-0.059-0.472-0.167c-1.023-0.828-2.321-1.283-3.653-1.283
		s-2.63,0.456-3.653,1.284C15.339,2.915,15.171,2.975,15,2.975z"/>
	<path d="M16.719,5.536c-0.228,0-0.44-0.102-0.583-0.279c-0.126-0.156-0.184-0.352-0.163-0.551c0.021-0.199,0.119-0.378,0.275-0.504
		c0.806-0.652,1.828-1.011,2.877-1.011s2.071,0.359,2.877,1.011c0.156,0.126,0.253,0.305,0.274,0.504
		c0.021,0.199-0.036,0.395-0.162,0.551c-0.144,0.177-0.356,0.279-0.584,0.279c-0.171,0-0.338-0.059-0.471-0.167
		c-0.542-0.437-1.229-0.678-1.934-0.678s-1.393,0.241-1.935,0.679C17.058,5.477,16.89,5.536,16.719,5.536z"/>
	<path d="M19.125,8.078c-0.044,0-0.088-0.004-0.131-0.011c-0.513-0.06-0.922-0.47-0.983-0.983C18.004,7.041,18,6.997,18,6.953
		s0.004-0.088,0.011-0.13c0.06-0.513,0.47-0.923,0.983-0.983c0.043-0.008,0.087-0.011,0.131-0.011s0.088,0.004,0.131,0.011
		c0.513,0.06,0.922,0.47,0.982,0.983c0.008,0.042,0.011,0.086,0.011,0.13s-0.004,0.088-0.011,0.13
		c-0.06,0.513-0.469,0.923-0.982,0.983C19.213,8.074,19.169,8.078,19.125,8.078z"/>
</g>
</svg>
