<?xml version="1.0" encoding="utf-8"?>
<!-- Generator: Adobe Illustrator 22.1.0, SVG Export Plug-In . SVG Version: 6.00 Build 0)  -->
<svg version="1.1" id="Regular" xmlns="http://www.w3.org/2000/svg" xmlns:xlink="http://www.w3.org/1999/xlink" x="0px" y="0px"
	 viewBox="0 0 24 24" style="enable-background:new 0 0 24 24;" xml:space="preserve">
<title>pet-tracking-dog-search</title>
<g>
	<path d="M6.75,17.251c-0.414,0-0.75-0.336-0.75-0.75V12.75H5.25c-0.251,0-0.502-0.026-0.75-0.078v3.829
		c0,0.414-0.336,0.75-0.75,0.75S3,16.915,3,16.501v-4.503C2.057,11.289,1.5,10.183,1.5,9V7.5c0-0.599,0.142-1.181,0.414-1.708
		c-0.266-0.11-0.509-0.264-0.726-0.461C0.033,4.292,0,2.456,0,2.25C0,1.837,0.336,1.5,0.75,1.5c0.413,0,0.749,0.336,0.75,0.749
		c0.003,0.377,0.134,1.468,0.693,1.969C2.406,4.41,2.66,4.499,2.994,4.499c0.005,0,0.009,0,0.014,0
		C3.654,4.015,4.445,3.75,5.25,3.75h7.65c0.786,0,1.503-0.4,1.917-1.07c0.153-0.252,0.287-0.521,0.396-0.797
		C15.677,0.738,16.77,0,17.999,0C20.047,0,21,2.238,21,3.75h0.75C22.991,3.75,24,4.76,24,6s-1.009,2.25-2.25,2.25h-1.939l-0.53,0.53
		C19.139,8.922,18.95,9,18.75,9s-0.389-0.078-0.53-0.22C18.078,8.639,18,8.451,18,8.25s0.078-0.389,0.22-0.53l0.75-0.75
		c0.14-0.14,0.333-0.22,0.53-0.22h2.25c0.414,0,0.75-0.336,0.75-0.75s-0.336-0.75-0.75-0.75H21c-0.827,0-1.5-0.673-1.5-1.5
		c0-0.92-0.534-2.25-1.5-2.25c-0.616,0-1.163,0.369-1.394,0.939c-0.138,0.352-0.311,0.698-0.511,1.026
		c-0.218,0.353-0.489,0.662-0.809,0.924l2.503,2.59C17.928,7.124,18.003,7.314,18,7.514s-0.085,0.387-0.229,0.526
		c-0.14,0.136-0.325,0.211-0.521,0.211c-0.205,0-0.397-0.081-0.539-0.229l-2.814-2.911C13.566,5.203,13.232,5.25,12.9,5.25H5.25
		C4.009,5.25,3,6.26,3,7.5V9c0,1.241,1.009,2.25,2.25,2.25H9c0.414,0,0.75,0.336,0.75,0.75c0,0.414-0.336,0.75-0.75,0.75H7.5v3.751
		C7.5,16.915,7.164,17.251,6.75,17.251z"/>
	<path d="M23.25,24.001c-0.2,0-0.389-0.078-0.53-0.22l-3.293-3.293c-1.051,0.817-2.343,1.263-3.677,1.263c-3.308,0-6-2.692-6-6
		c0-3.309,2.692-6,6-6s6,2.692,6,6c0,1.333-0.446,2.626-1.263,3.677l3.293,3.293c0.292,0.292,0.292,0.768,0,1.061
		C23.639,23.923,23.45,24.001,23.25,24.001z M15.75,11.251c-2.481,0-4.5,2.019-4.5,4.5c0,2.481,2.019,4.5,4.5,4.5s4.5-2.019,4.5-4.5
		C20.25,13.27,18.231,11.251,15.75,11.251z"/>
</g>
</svg>
