<?xml version="1.0" encoding="utf-8"?>
<!-- Generator: Adobe Illustrator 22.1.0, SVG Export Plug-In . SVG Version: 6.00 Build 0)  -->
<svg version="1.1" id="Regular" xmlns="http://www.w3.org/2000/svg" xmlns:xlink="http://www.w3.org/1999/xlink" x="0px" y="0px"
	 viewBox="0 0 24 24" style="enable-background:new 0 0 24 24;" xml:space="preserve">
<title>pets-paw-soap</title>
<g>
	<path d="M12,13.842c-0.044,0-0.088-0.004-0.13-0.011c-0.513-0.06-0.923-0.47-0.983-0.982c-0.008-0.043-0.011-0.087-0.011-0.131
		s0.004-0.088,0.011-0.131c0.06-0.513,0.47-0.922,0.982-0.982c0.043-0.008,0.087-0.012,0.131-0.012s0.088,0.004,0.131,0.012
		c0.513,0.06,0.922,0.47,0.982,0.983c0.008,0.042,0.011,0.086,0.011,0.131s-0.004,0.088-0.011,0.131
		c-0.06,0.513-0.47,0.923-0.983,0.983C12.088,13.838,12.044,13.842,12,13.842z"/>
	<path d="M9,15.342c-0.044,0-0.088-0.004-0.13-0.011c-0.513-0.06-0.923-0.47-0.983-0.982c-0.008-0.043-0.011-0.087-0.011-0.131
		s0.004-0.088,0.011-0.131c0.06-0.513,0.47-0.922,0.983-0.983c0.042-0.007,0.086-0.011,0.13-0.011s0.088,0.004,0.13,0.011
		c0.513,0.061,0.923,0.47,0.983,0.983c0.008,0.043,0.011,0.087,0.011,0.131s-0.004,0.088-0.011,0.131
		c-0.06,0.513-0.47,0.922-0.983,0.982C9.088,15.338,9.044,15.342,9,15.342z"/>
	<path d="M15,15.342c-0.044,0-0.088-0.004-0.131-0.011c-0.513-0.06-0.923-0.47-0.983-0.983c-0.007-0.042-0.011-0.086-0.011-0.13
		s0.004-0.088,0.011-0.131c0.06-0.513,0.47-0.923,0.983-0.983c0.042-0.008,0.086-0.011,0.131-0.011s0.088,0.004,0.131,0.011
		c0.513,0.06,0.923,0.47,0.983,0.983c0.008,0.042,0.011,0.086,0.011,0.131s-0.004,0.088-0.011,0.131
		c-0.06,0.513-0.47,0.923-0.983,0.983C15.088,15.338,15.044,15.342,15,15.342z"/>
	<path d="M10.5,19.5c-0.4-0.001-0.775-0.156-1.057-0.438c-0.284-0.282-0.44-0.659-0.441-1.06c-0.001-0.401,0.154-0.778,0.437-1.062
		c0.021-0.021,0.042-0.039,0.063-0.056l1.475-1.169c0.279-0.26,0.642-0.403,1.024-0.403c0.383,0,0.746,0.143,1.024,0.404
		l1.472,1.166c0.023,0.018,0.046,0.039,0.068,0.061c0.278,0.279,0.433,0.653,0.435,1.052c0.002,0.828-0.669,1.504-1.497,1.506
		c0,0-0.001,0-0.001,0H10.5z M13.493,18l-1.428-1.132c-0.022-0.017-0.044-0.037-0.064-0.057l0,0
		c-0.018,0.019-0.04,0.038-0.062,0.056l-1.428,1.132L13.493,18z"/>
	<path d="M7,24c-0.965,0-1.75-0.785-1.75-1.75v-13C5.25,8.285,6.035,7.5,7,7.5h0.786l0.878-1.756C9.048,4.977,9.819,4.5,10.677,4.5
		h0.573v-3H8.714L8.171,2.585C8.043,2.841,7.786,3,7.5,3C7.384,3,7.269,2.973,7.165,2.921c-0.37-0.185-0.521-0.636-0.336-1.006
		l0.75-1.5C7.707,0.159,7.964,0,8.25,0H15c0.414,0,0.75,0.336,0.75,0.75S15.414,1.5,15,1.5h-2.25v3h0.573
		c0.858,0,1.629,0.476,2.013,1.244L16.214,7.5H17c0.965,0,1.75,0.785,1.75,1.75v13c0,0.965-0.785,1.75-1.75,1.75H7z M7,9
		C6.862,9,6.75,9.112,6.75,9.25v13c0,0.138,0.112,0.25,0.25,0.25h10c0.138,0,0.25-0.112,0.25-0.25v-13C17.25,9.112,17.138,9,17,9H7z
		 M14.537,7.5l-0.542-1.086C13.866,6.159,13.609,6,13.323,6h-2.646c-0.286,0-0.543,0.159-0.671,0.415L9.463,7.5H14.537z"/>
</g>
</svg>
