<?xml version="1.0" encoding="utf-8"?>
<!-- Generator: Adobe Illustrator 22.1.0, SVG Export Plug-In . SVG Version: 6.00 Build 0)  -->
<svg version="1.1" id="Regular" xmlns="http://www.w3.org/2000/svg" xmlns:xlink="http://www.w3.org/1999/xlink" x="0px" y="0px"
	 viewBox="0 0 24 24" style="enable-background:new 0 0 24 24;" xml:space="preserve">
<title>pets-paw-bowl</title>
<g>
	<path d="M12.004,21c-2.068,0-3.75-1.346-3.75-3s1.682-3,3.75-3s3.75,1.346,3.75,3S14.071,21,12.004,21z M12.004,16.5
		c-1.22,0-2.25,0.687-2.25,1.5s1.03,1.5,2.25,1.5s2.25-0.687,2.25-1.5S13.223,16.5,12.004,16.5z"/>
	<path d="M12.004,13.5c-1.241,0-2.25-1.009-2.25-2.25c0-1.241,1.009-2.25,2.25-2.25s2.25,1.009,2.25,2.25
		C14.253,12.491,13.244,13.5,12.004,13.5z M12.004,10.5c-0.414,0-0.75,0.336-0.75,0.75S11.59,12,12.004,12
		c0.413,0,0.75-0.336,0.75-0.75S12.417,10.5,12.004,10.5z"/>
	<path d="M6.754,15.75c-1.241,0-2.25-1.009-2.25-2.25s1.009-2.25,2.25-2.25s2.25,1.009,2.25,2.25S7.994,15.75,6.754,15.75z
		 M6.754,12.75c-0.414,0-0.75,0.336-0.75,0.75s0.336,0.75,0.75,0.75s0.75-0.336,0.75-0.75S7.167,12.75,6.754,12.75z"/>
	<path d="M17.253,15.75c-1.241,0-2.25-1.009-2.25-2.25s1.009-2.25,2.25-2.25s2.25,1.009,2.25,2.25S18.494,15.75,17.253,15.75z
		 M17.253,12.75c-0.414,0-0.75,0.336-0.75,0.75s0.336,0.75,0.75,0.75s0.75-0.336,0.75-0.75S17.667,12.75,17.253,12.75z"/>
	<path d="M4.251,24c-0.185,0-0.374-0.014-0.561-0.042c-0.991-0.15-1.864-0.677-2.458-1.484s-0.838-1.796-0.688-2.786L2.894,7.261
		c0.06-0.318,0.051-0.652-0.028-0.966L1.934,2.566c-0.08-0.321-0.051-0.665,0.082-0.968c0.24-0.544,0.78-0.895,1.375-0.895
		c0.208,0,0.411,0.043,0.603,0.127c0.887,0.414,1.822,0.639,2.786,0.673c0.922,0,1.544-0.311,2.263-0.671
		c0.778-0.389,1.659-0.829,2.961-0.829s2.183,0.441,2.96,0.829c0.72,0.36,1.342,0.671,2.29,0.671
		c0.943-0.033,1.871-0.257,2.745-0.665c0.204-0.089,0.41-0.133,0.622-0.133c0.12,0,0.24,0.014,0.356,0.043
		c0.804,0.198,1.296,1.013,1.098,1.817L21.14,6.299c-0.078,0.312-0.087,0.644-0.027,0.961l2.345,12.395
		c0.033,0.211,0.048,0.402,0.048,0.595c0,2.068-1.682,3.75-3.75,3.75H4.251z M4.321,5.931C4.452,6.454,4.468,7.01,4.367,7.54
		L2.022,19.939c-0.086,0.572,0.061,1.161,0.417,1.645c0.357,0.484,0.88,0.8,1.474,0.89C4.026,22.491,4.139,22.5,4.251,22.5h15.506
		c1.24,0,2.25-1.01,2.25-2.25c0-0.114-0.009-0.229-0.026-0.342L19.64,7.539c-0.101-0.528-0.085-1.083,0.045-1.604l0.933-3.733
		c-1.046,0.489-2.171,0.759-3.339,0.799c0,0-0.001,0-0.001,0c-1.328,0-2.208-0.44-2.985-0.829c-0.72-0.36-1.342-0.671-2.289-0.671
		c-0.948,0-1.57,0.311-2.29,0.671c-0.777,0.389-1.658,0.829-2.96,0.829C5.572,2.961,4.445,2.693,3.392,2.204L4.321,5.931z"/>
</g>
</svg>
