<?xml version="1.0" encoding="utf-8"?>
<!-- Generator: Adobe Illustrator 22.1.0, SVG Export Plug-In . SVG Version: 6.00 Build 0)  -->
<svg version="1.1" id="Regular" xmlns="http://www.w3.org/2000/svg" xmlns:xlink="http://www.w3.org/1999/xlink" x="0px" y="0px"
	 viewBox="0 0 24 24" style="enable-background:new 0 0 24 24;" xml:space="preserve">
<title>pets-hair-brush</title>
<g>
	<path d="M5.079,23.889c-0.584,0-1.138-0.225-1.561-0.634c-0.892-0.862-0.917-2.289-0.055-3.182l5.6-5.601
		c0.141-0.142,0.33-0.22,0.53-0.22s0.389,0.078,0.53,0.22c0.292,0.292,0.292,0.768,0,1.061l-5.591,5.592
		c-0.28,0.29-0.27,0.764,0.028,1.051c0.142,0.137,0.327,0.212,0.521,0.212s0.379-0.075,0.521-0.212l7.027-7.027
		c0.086-0.086,0.192-0.15,0.308-0.186c1.98-0.616,3.768-1.75,5.17-3.28c1.959-1.955,3.351-4.289,3.396-5.687
		c0.013-0.4,0.347-0.726,0.746-0.726c0.006,0,0.026,0,0.032,0.001c0.196,0.006,0.381,0.09,0.518,0.236
		c0.137,0.146,0.209,0.337,0.203,0.537c-0.058,1.803-1.554,4.424-3.813,6.677c-1.518,1.657-3.467,2.911-5.628,3.617l-6.907,6.907
		C6.222,23.663,5.665,23.889,5.079,23.889z"/>
	<path d="M20.041,5.567c-0.2,0-0.389-0.078-0.53-0.22l-3.314-3.314c-0.142-0.141-0.22-0.33-0.22-0.53c0-0.2,0.078-0.389,0.22-0.53
		c0.142-0.142,0.33-0.22,0.53-0.22s0.389,0.078,0.53,0.22l3.314,3.314c0.142,0.141,0.22,0.33,0.22,0.53c0,0.2-0.078,0.389-0.22,0.53
		C20.43,5.489,20.241,5.567,20.041,5.567z"/>
	<path d="M18.589,8.358c-0.2,0-0.389-0.078-0.53-0.22l-4.514-4.514c-0.142-0.141-0.22-0.33-0.22-0.53s0.078-0.389,0.22-0.53
		s0.33-0.22,0.53-0.22s0.389,0.078,0.53,0.22l4.514,4.514c0.142,0.141,0.22,0.33,0.22,0.53s-0.078,0.389-0.22,0.53
		S18.789,8.358,18.589,8.358z"/>
	<path d="M16.674,10.685c-0.2,0-0.389-0.078-0.53-0.22l-4.72-4.72c-0.142-0.141-0.22-0.33-0.22-0.53s0.078-0.389,0.22-0.53
		c0.141-0.142,0.33-0.22,0.53-0.22s0.389,0.078,0.53,0.22l4.72,4.72c0.142,0.141,0.22,0.33,0.22,0.53s-0.078,0.389-0.22,0.53
		S16.874,10.685,16.674,10.685z"/>
	<path d="M14.353,12.607c-0.2,0-0.389-0.078-0.53-0.22l-4.521-4.52c-0.142-0.141-0.22-0.33-0.22-0.53c0-0.2,0.078-0.389,0.22-0.53
		c0.141-0.142,0.33-0.22,0.53-0.22s0.389,0.078,0.53,0.22l4.521,4.52c0.142,0.141,0.22,0.33,0.22,0.53c0,0.2-0.078,0.389-0.22,0.53
		S14.553,12.607,14.353,12.607z"/>
	<path d="M11.676,14.173c-0.2,0-0.389-0.078-0.53-0.22L7.71,10.518c-0.142-0.141-0.22-0.33-0.22-0.53c0-0.2,0.078-0.389,0.22-0.53
		c0.142-0.142,0.33-0.22,0.53-0.22s0.389,0.078,0.53,0.22l3.435,3.435c0.292,0.292,0.292,0.768,0,1.061
		C12.064,14.095,11.876,14.173,11.676,14.173z"/>
</g>
</svg>
