<?xml version="1.0" encoding="utf-8"?>
<!-- Generator: Adobe Illustrator 22.1.0, SVG Export Plug-In . SVG Version: 6.00 Build 0)  -->
<svg version="1.1" id="Regular" xmlns="http://www.w3.org/2000/svg" xmlns:xlink="http://www.w3.org/1999/xlink" x="0px" y="0px"
	 viewBox="0 0 24 24" style="enable-background:new 0 0 24 24;" xml:space="preserve">
<title>pets-paw-medal</title>
<g>
	<path d="M12,24c-4.549,0-8.25-3.701-8.25-8.25c0-1.94,0.683-3.809,1.928-5.294L0.106,1.135C-0.032,0.903-0.035,0.614,0.098,0.38
		C0.231,0.146,0.481,0,0.75,0h6c0.286,0,0.544,0.159,0.671,0.416l3.559,7.148C11.32,7.521,11.661,7.5,12,7.5s0.68,0.021,1.019,0.063
		l3.559-7.148C16.706,0.159,16.964,0,17.25,0h6c0.269,0,0.519,0.146,0.652,0.38s0.13,0.524-0.009,0.755l-5.572,9.321
		c1.245,1.485,1.928,3.354,1.928,5.294C20.25,20.299,16.549,24,12,24z M12,9c-3.722,0-6.75,3.028-6.75,6.75S8.278,22.5,12,22.5
		s6.75-3.028,6.75-6.75S15.722,9,12,9z M14.529,7.897c0.978,0.316,1.896,0.818,2.695,1.473l4.704-7.87h-4.213L14.529,7.897z
		 M6.776,9.37c0.799-0.655,1.717-1.156,2.695-1.473L6.286,1.5H2.072L6.776,9.37z"/>
	<path d="M12,13.842c-0.044,0-0.088-0.004-0.13-0.011c-0.513-0.06-0.923-0.47-0.983-0.982c-0.008-0.043-0.011-0.087-0.011-0.131
		s0.004-0.088,0.011-0.131c0.06-0.513,0.47-0.922,0.982-0.982c0.043-0.008,0.087-0.012,0.131-0.012s0.088,0.004,0.131,0.012
		c0.513,0.06,0.922,0.47,0.982,0.983c0.008,0.042,0.011,0.086,0.011,0.131s-0.004,0.088-0.011,0.131
		c-0.06,0.513-0.47,0.923-0.983,0.983C12.088,13.838,12.044,13.842,12,13.842z"/>
	<path d="M9,15.342c-0.044,0-0.088-0.004-0.13-0.011c-0.513-0.06-0.923-0.47-0.983-0.982c-0.008-0.043-0.011-0.087-0.011-0.131
		s0.004-0.088,0.011-0.131c0.06-0.513,0.47-0.922,0.983-0.983c0.042-0.007,0.086-0.011,0.13-0.011s0.088,0.004,0.13,0.011
		c0.513,0.061,0.923,0.47,0.983,0.983c0.008,0.043,0.011,0.087,0.011,0.131s-0.004,0.088-0.011,0.131
		c-0.06,0.513-0.47,0.922-0.983,0.982C9.088,15.338,9.044,15.342,9,15.342z"/>
	<path d="M15,15.342c-0.044,0-0.088-0.004-0.131-0.011c-0.513-0.06-0.923-0.47-0.983-0.983c-0.007-0.042-0.011-0.086-0.011-0.13
		s0.004-0.088,0.011-0.131c0.06-0.513,0.47-0.923,0.983-0.983c0.042-0.008,0.086-0.011,0.131-0.011s0.088,0.004,0.131,0.011
		c0.513,0.06,0.923,0.47,0.983,0.983c0.008,0.042,0.011,0.086,0.011,0.131s-0.004,0.088-0.011,0.131
		c-0.06,0.513-0.47,0.923-0.983,0.983C15.088,15.338,15.044,15.342,15,15.342z"/>
	<path d="M10.811,19.5c-0.4-0.001-0.776-0.156-1.058-0.438c-0.284-0.283-0.441-0.659-0.442-1.06
		c-0.001-0.401,0.155-0.778,0.438-1.062l1.191-1.19c0.283-0.283,0.66-0.438,1.06-0.438c0.401,0,0.777,0.156,1.06,0.439l1.19,1.188
		c0.282,0.284,0.438,0.66,0.439,1.059c0,0.401-0.155,0.778-0.438,1.062C13.967,19.343,13.59,19.5,13.19,19.5H10.811z M10.81,18
		l2.379,0L12,16.811C12,16.811,10.81,18,10.81,18z"/>
</g>
</svg>
