<?xml version="1.0" encoding="utf-8"?>
<!-- Generator: Adobe Illustrator 22.1.0, SVG Export Plug-In . SVG Version: 6.00 Build 0)  -->
<svg version="1.1" id="Regular" xmlns="http://www.w3.org/2000/svg" xmlns:xlink="http://www.w3.org/1999/xlink" x="0px" y="0px"
	 viewBox="0 0 24 24" style="enable-background:new 0 0 24 24;" xml:space="preserve">
<title>pets-paw</title>
<g>
	<path d="M3,16.5c-1.682,0-3-1.977-3-4.5c0-2.523,1.318-4.5,3-4.5S6,9.477,6,12C6,14.523,4.682,16.5,3,16.5z M3,9
		c-0.708,0-1.5,1.283-1.5,3s0.792,3,1.5,3s1.5-1.283,1.5-3S3.708,9,3,9z"/>
	<path d="M8.25,9c-1.682,0-3-1.977-3-4.5S6.568,0,8.25,0s3,1.977,3,4.5S9.932,9,8.25,9z M8.25,1.5c-0.708,0-1.5,1.283-1.5,3
		s0.792,3,1.5,3s1.5-1.283,1.5-3S8.958,1.5,8.25,1.5z"/>
	<path d="M21,15.75c-1.682,0-3-1.977-3-4.5c0-2.523,1.318-4.5,3-4.5s3,1.977,3,4.5C24,13.773,22.682,15.75,21,15.75z M21,8.25
		c-0.708,0-1.5,1.283-1.5,3s0.792,3,1.5,3s1.5-1.283,1.5-3S21.708,8.25,21,8.25z"/>
	<path d="M15.75,9c-1.682,0-3-1.977-3-4.5s1.318-4.5,3-4.5s3,1.977,3,4.5S17.432,9,15.75,9z M15.75,1.5c-0.708,0-1.5,1.283-1.5,3
		s0.792,3,1.5,3s1.5-1.283,1.5-3S16.458,1.5,15.75,1.5z"/>
	<path d="M12,24c-3.722,0-6.75-2.355-6.75-5.25c0.05-1.482,0.792-2.863,1.984-3.709c0.169-0.132,0.274-0.369,0.263-0.609
		l-0.001-0.181c0-2.483,2.019-4.501,4.5-4.501s4.5,2.019,4.5,4.5v0.146c-0.012,0.274,0.092,0.51,0.285,0.662
		c1.175,0.832,1.917,2.207,1.969,3.665c0,1.439-0.716,2.772-2.016,3.768C15.464,23.464,13.783,24,12,24z M11.996,11.25
		c-1.654,0-3,1.346-3,3v0.146c0.035,0.702-0.289,1.4-0.868,1.849c-0.834,0.592-1.344,1.534-1.378,2.53
		c0,2.048,2.356,3.724,5.25,3.724s5.25-1.682,5.25-3.75c-0.035-0.976-0.543-1.909-1.358-2.484c-0.006-0.004-0.026-0.019-0.031-0.023
		c-0.574-0.448-0.898-1.152-0.864-1.882l-0.001-0.11C14.996,12.596,13.65,11.25,11.996,11.25z"/>
</g>
</svg>
