<?xml version="1.0" encoding="utf-8"?>
<!-- Generator: Adobe Illustrator 22.1.0, SVG Export Plug-In . SVG Version: 6.00 Build 0)  -->
<svg version="1.1" id="Regular" xmlns="http://www.w3.org/2000/svg" xmlns:xlink="http://www.w3.org/1999/xlink" x="0px" y="0px"
	 viewBox="0 0 24 24" style="enable-background:new 0 0 24 24;" xml:space="preserve">
<title>pets-certificate</title>
<g>
	<path d="M1.75,21C0.785,21,0,20.215,0,19.25V4.75C0,3.785,0.785,3,1.75,3h20.5C23.215,3,24,3.785,24,4.75v14.5
		c0,0.965-0.785,1.75-1.75,1.75H1.75z M22.25,19.5c0.138,0,0.25-0.112,0.25-0.25v-3.432c-1.868,0.319-3.364,1.814-3.682,3.682H22.25
		z M17.298,19.5c0.34-2.706,2.496-4.861,5.202-5.202V9.702c-2.706-0.34-4.861-2.496-5.202-5.202H6.702
		C6.361,7.206,4.206,9.361,1.5,9.702v4.597c2.706,0.34,4.861,2.496,5.202,5.202H17.298z M1.5,19.25c0,0.138,0.112,0.25,0.25,0.25
		h3.432c-0.319-1.868-1.814-3.364-3.682-3.682V19.25z M18.818,4.5c0.319,1.868,1.814,3.363,3.682,3.682V4.75
		c0-0.138-0.112-0.25-0.25-0.25H18.818z M1.75,4.5C1.612,4.5,1.5,4.612,1.5,4.75v3.432C3.368,7.863,4.863,6.368,5.182,4.5H1.75z"/>
	<path d="M12,10.5c-0.044,0-0.088-0.004-0.131-0.012c-0.513-0.06-0.922-0.47-0.982-0.982c-0.008-0.043-0.012-0.087-0.012-0.131
		s0.004-0.088,0.012-0.131c0.06-0.513,0.47-0.922,0.982-0.982C11.912,8.254,11.956,8.25,12,8.25s0.088,0.004,0.131,0.012
		c0.513,0.06,0.922,0.47,0.983,0.983c0.007,0.042,0.011,0.086,0.011,0.13s-0.004,0.088-0.011,0.13
		c-0.061,0.513-0.47,0.922-0.983,0.983C12.088,10.496,12.044,10.5,12,10.5z"/>
	<path d="M9,12c-0.044,0-0.088-0.004-0.131-0.012c-0.513-0.06-0.922-0.47-0.982-0.982c-0.008-0.043-0.012-0.087-0.012-0.131
		s0.004-0.088,0.012-0.131c0.06-0.513,0.47-0.922,0.982-0.982C8.912,9.754,8.956,9.75,9,9.75s0.088,0.004,0.131,0.012
		c0.513,0.06,0.922,0.47,0.982,0.982c0.008,0.043,0.012,0.087,0.012,0.131s-0.004,0.088-0.012,0.131
		c-0.06,0.513-0.47,0.922-0.982,0.982C9.088,11.996,9.044,12,9,12z"/>
	<path d="M15,12c-0.044,0-0.088-0.004-0.131-0.011c-0.513-0.06-0.922-0.47-0.982-0.983c-0.008-0.042-0.011-0.086-0.011-0.13
		s0.004-0.088,0.011-0.13c0.06-0.513,0.47-0.923,0.982-0.983C14.912,9.754,14.956,9.75,15,9.75s0.088,0.004,0.131,0.011
		c0.513,0.06,0.922,0.47,0.983,0.983c0.007,0.042,0.011,0.086,0.011,0.13s-0.004,0.088-0.011,0.13
		c-0.061,0.513-0.47,0.923-0.983,0.983C15.088,11.996,15.044,12,15,12z"/>
	<path d="M10.5,16.157c-0.401-0.001-0.776-0.156-1.059-0.438c-0.585-0.584-0.586-1.536-0.002-2.121
		c0.021-0.021,0.042-0.04,0.064-0.058l1.473-1.167c0.279-0.26,0.642-0.403,1.024-0.403c0.383,0,0.746,0.143,1.023,0.404l1.472,1.166
		c0.023,0.018,0.046,0.039,0.068,0.061c0.28,0.281,0.435,0.657,0.435,1.056c0,0.4-0.155,0.777-0.438,1.06
		c-0.283,0.284-0.66,0.44-1.061,0.44H10.5z M13.491,14.657l-1.427-1.131c-0.022-0.017-0.044-0.037-0.064-0.057c0,0,0,0,0,0
		c-0.018,0.018-0.04,0.038-0.062,0.055l-1.429,1.133H13.491z"/>
</g>
</svg>
