<?xml version="1.0" encoding="utf-8"?>
<!-- Generator: Adobe Illustrator 22.1.0, SVG Export Plug-In . SVG Version: 6.00 Build 0)  -->
<svg version="1.1" id="Regular" xmlns="http://www.w3.org/2000/svg" xmlns:xlink="http://www.w3.org/1999/xlink" x="0px" y="0px"
	 viewBox="0 0 24 24" style="enable-background:new 0 0 24 24;" xml:space="preserve">
<title>pets-hair-roller</title>
<g>
	<path d="M2.635,23.971c-0.718,0-1.385-0.285-1.88-0.802c-0.966-1.009-0.965-2.59,0.001-3.599l6.028-6.028l-0.858-0.858
		c-0.331-0.331-0.513-0.77-0.513-1.237s0.182-0.907,0.513-1.238l9.586-9.585c0.33-0.33,0.77-0.513,1.237-0.513
		s0.907,0.182,1.238,0.513l0.858,0.858l0.256-0.256c0.493-0.484,1.136-0.749,1.812-0.749l0.042,0c0.692,0.007,1.343,0.284,1.83,0.78
		c0.986,1.005,0.985,2.639,0,3.644l-0.26,0.26l0.858,0.858c0.331,0.33,0.513,0.77,0.513,1.237s-0.182,0.907-0.513,1.238
		l-9.585,9.585c-0.331,0.331-0.77,0.513-1.237,0.513c-0.467,0-0.907-0.182-1.238-0.513l-0.857-0.857l-6.017,6.017
		C3.947,23.714,3.309,23.971,2.635,23.971z M1.827,20.619c-0.4,0.418-0.398,1.085,0.011,1.513c0.209,0.219,0.492,0.339,0.796,0.339
		c0.285,0,0.554-0.108,0.76-0.303l6.008-6.007l-1.558-1.558L1.827,20.619z M12.381,17.018c0.047,0.047,0.11,0.073,0.177,0.073
		c0.067,0,0.13-0.026,0.177-0.073l9.585-9.585c0.048-0.048,0.073-0.109,0.073-0.177c0-0.068-0.025-0.129-0.073-0.176l-5.396-5.396
		c-0.048-0.048-0.109-0.073-0.177-0.073c-0.068,0-0.129,0.025-0.177,0.073l-9.586,9.585c-0.048,0.048-0.073,0.109-0.073,0.177
		c0,0.068,0.025,0.129,0.073,0.177l1.365,1.365c0.009,0.007,0.017,0.015,0.024,0.022l2.619,2.619
		c0.007,0.007,0.016,0.017,0.024,0.026L12.381,17.018z M21.462,4.1l0.256-0.256c0.413-0.421,0.412-1.112-0.005-1.538
		c-0.206-0.21-0.482-0.328-0.776-0.33l-0.032,0c-0.276,0-0.542,0.112-0.75,0.316l-0.251,0.25L21.462,4.1z"/>
</g>
</svg>
