<?xml version="1.0" encoding="utf-8"?>
<!-- Generator: Adobe Illustrator 22.1.0, SVG Export Plug-In . SVG Version: 6.00 Build 0)  -->
<svg version="1.1" id="Regular" xmlns="http://www.w3.org/2000/svg" xmlns:xlink="http://www.w3.org/1999/xlink" x="0px" y="0px"
	 viewBox="0 0 24 24" style="enable-background:new 0 0 24 24;" xml:space="preserve">
<title>pets-paw-can</title>
<g>
	<path d="M12,24c-2.942,0-5.865-0.32-8.02-0.877C1.339,22.439,0,21.473,0,20.25V3.75c0-1.223,1.339-2.189,3.98-2.873
		C6.135,0.32,9.058,0,12,0c2.942,0,5.865,0.32,8.02,0.877C22.661,1.561,24,2.527,24,3.75v16.5c0,1.223-1.339,2.189-3.98,2.873
		C17.865,23.68,14.942,24,12,24z M1.5,20.25c0,0.653,3.679,2.25,10.5,2.25c2.941,0,5.698-0.303,7.761-0.853
		c2.274-0.606,2.739-1.256,2.739-1.397V5.699C20.136,7.019,15.492,7.5,12,7.5S3.864,7.02,1.5,5.699V20.25z M12,1.5
		c-2.941,0-5.698,0.303-7.762,0.853C1.965,2.96,1.5,3.609,1.5,3.75C1.5,4.403,5.179,6,12,6c2.941,0,5.698-0.303,7.762-0.853
		C22.035,4.54,22.5,3.891,22.5,3.75C22.5,3.097,18.821,1.5,12,1.5z"/>
	<path d="M12,12c-0.044,0-0.088-0.004-0.131-0.012c-0.513-0.06-0.922-0.47-0.982-0.982c-0.008-0.043-0.012-0.087-0.012-0.131
		s0.004-0.088,0.012-0.131c0.06-0.513,0.47-0.922,0.982-0.982C11.912,9.754,11.956,9.75,12,9.75s0.088,0.004,0.131,0.012
		c0.513,0.06,0.922,0.47,0.983,0.983c0.007,0.042,0.011,0.086,0.011,0.13s-0.004,0.088-0.011,0.13
		c-0.061,0.513-0.47,0.922-0.983,0.983C12.088,11.996,12.044,12,12,12z"/>
	<path d="M8.25,13.5c-0.044,0-0.088-0.004-0.13-0.011c-0.513-0.06-0.923-0.47-0.983-0.982c-0.008-0.043-0.011-0.087-0.011-0.131
		s0.004-0.088,0.012-0.131c0.06-0.513,0.47-0.922,0.982-0.982c0.043-0.008,0.087-0.012,0.131-0.012s0.088,0.004,0.131,0.012
		c0.513,0.06,0.922,0.47,0.982,0.982c0.008,0.043,0.012,0.087,0.012,0.131s-0.004,0.088-0.011,0.131
		c-0.06,0.513-0.47,0.922-0.983,0.982C8.338,13.496,8.294,13.5,8.25,13.5z"/>
	<path d="M15.75,13.5c-0.044,0-0.088-0.004-0.13-0.011c-0.513-0.06-0.923-0.47-0.983-0.983c-0.007-0.042-0.011-0.086-0.011-0.13
		s0.004-0.088,0.011-0.13c0.06-0.513,0.47-0.923,0.982-0.983c0.043-0.008,0.087-0.011,0.131-0.011s0.088,0.004,0.131,0.011
		c0.513,0.06,0.922,0.47,0.983,0.983c0.007,0.042,0.011,0.086,0.011,0.13s-0.004,0.088-0.011,0.131
		c-0.06,0.513-0.47,0.923-0.983,0.983C15.838,13.496,15.794,13.5,15.75,13.5z"/>
	<path d="M10.01,19.875c-0.535,0-1.038-0.208-1.416-0.586c-0.782-0.781-0.783-2.053-0.002-2.835l1.99-1.99
		c0.38-0.378,0.884-0.587,1.419-0.587c0.536,0,1.039,0.208,1.416,0.587l1.99,1.99c0.378,0.378,0.587,0.881,0.587,1.416
		c0,0.535-0.208,1.038-0.587,1.417c-0.379,0.379-0.882,0.588-1.417,0.589H10.01z M12,15.375c-0.134,0-0.26,0.052-0.354,0.146
		c-0.007,0.007-0.024,0.024-0.035,0.033l-1.957,1.959c-0.197,0.197-0.197,0.517,0,0.714c0.095,0.095,0.222,0.148,0.357,0.148h3.979
		c0.135,0,0.261-0.053,0.356-0.148c0.096-0.096,0.148-0.222,0.148-0.357c0-0.133-0.054-0.263-0.148-0.357l-1.99-1.99
		C12.261,15.427,12.135,15.375,12,15.375z"/>
</g>
</svg>
