<?xml version="1.0" encoding="utf-8"?>
<!-- Generator: Adobe Illustrator 22.1.0, SVG Export Plug-In . SVG Version: 6.00 Build 0)  -->
<svg version="1.1" id="Layer_1" xmlns="http://www.w3.org/2000/svg" xmlns:xlink="http://www.w3.org/1999/xlink" x="0px" y="0px"
	 viewBox="0 0 24 24" style="enable-background:new 0 0 24 24;" xml:space="preserve">
<title>pin-star</title>
<g>
	<path d="M12,24c-0.352,0-0.652-0.24-0.731-0.583c-0.28-1.222-1.216-4.618-2.18-5.647c-0.269-0.288-0.55-0.577-0.835-0.871
		C6.143,14.722,3.75,12.256,3.75,8.25C3.75,3.701,7.451,0,12,0s8.25,3.701,8.25,8.25c0,4.002-2.39,6.467-4.499,8.641
		c-0.291,0.301-0.569,0.586-0.835,0.871c-0.968,1.035-1.906,4.433-2.186,5.655C12.652,23.76,12.352,24,12,24z M12,1.5
		c-3.722,0-6.75,3.028-6.75,6.75c0,3.398,2.075,5.536,4.081,7.604c0.291,0.3,0.578,0.596,0.854,0.89
		c0.723,0.772,1.348,2.293,1.816,3.728c0.469-1.437,1.096-2.959,1.82-3.734c0.272-0.292,0.556-0.584,0.844-0.882
		c2.012-2.075,4.084-4.212,4.084-7.606C18.75,4.528,15.722,1.5,12,1.5z"/>
	<path d="M14.479,13.05c-0.199,0-0.399-0.049-0.577-0.142L12,11.913l-1.904,0.995C9.919,13,9.72,13.05,9.521,13.05
		c-0.257,0-0.505-0.079-0.716-0.228c-0.383-0.271-0.579-0.744-0.5-1.206L8.67,9.498L7.128,8.003C6.793,7.68,6.671,7.185,6.817,6.741
		c0.15-0.449,0.533-0.768,0.999-0.833L9.947,5.6l0.944-1.914c0.217-0.426,0.64-0.686,1.11-0.686c0.193,0,0.386,0.046,0.56,0.134
		c0.236,0.12,0.424,0.308,0.544,0.544L14.057,5.6l2.135,0.308c0.463,0.065,0.845,0.382,0.995,0.828
		c0.147,0.447,0.024,0.944-0.312,1.268l-1.545,1.498l0.365,2.111c0.079,0.464-0.118,0.938-0.501,1.208
		C14.984,12.971,14.737,13.05,14.479,13.05z M9.822,8.527c0.29,0.289,0.42,0.696,0.349,1.091L9.876,11.33l1.55-0.81
		c0.175-0.093,0.374-0.142,0.574-0.142c0.201,0,0.4,0.05,0.578,0.144l1.546,0.808l-0.296-1.717
		c-0.067-0.401,0.066-0.807,0.355-1.087l1.25-1.212l-1.726-0.249c-0.4-0.056-0.748-0.307-0.929-0.669L12,4.828L11.23,6.392
		c-0.184,0.366-0.532,0.617-0.934,0.674L8.572,7.315L9.822,8.527z"/>
</g>
</svg>
