<?xml version="1.0" encoding="utf-8"?>
<!-- Generator: Adobe Illustrator 22.1.0, SVG Export Plug-In . SVG Version: 6.00 Build 0)  -->
<svg version="1.1" id="Layer_1" xmlns="http://www.w3.org/2000/svg" xmlns:xlink="http://www.w3.org/1999/xlink" x="0px" y="0px"
	 viewBox="0 0 24 24" style="enable-background:new 0 0 24 24;" xml:space="preserve">
<title>pin-x-mark-2</title>
<g>
	<path d="M19.25,24c-0.085,0-0.169-0.014-0.249-0.042L11.75,21.42l-7.252,2.538C4.419,23.986,4.335,24,4.25,24
		c-0.318,0-0.603-0.202-0.708-0.502c-0.066-0.189-0.055-0.392,0.032-0.573c0.087-0.18,0.239-0.316,0.428-0.383l5.477-1.917
		l-5.477-1.917c-0.189-0.066-0.341-0.202-0.428-0.383c-0.087-0.181-0.098-0.384-0.032-0.573c0.105-0.301,0.39-0.502,0.708-0.502
		c0.084,0,0.167,0.014,0.247,0.042l7.253,2.538l7.252-2.538c0.079-0.028,0.163-0.042,0.248-0.042c0.318,0,0.603,0.202,0.708,0.502
		c0.066,0.189,0.055,0.393-0.032,0.573c-0.087,0.181-0.239,0.316-0.428,0.383l-5.477,1.917l5.477,1.917
		c0.189,0.066,0.341,0.202,0.428,0.383c0.087,0.18,0.098,0.384,0.032,0.573C19.853,23.798,19.568,24,19.25,24z"/>
	<path d="M11.749,18.688c-0.52,0-1.027-0.182-1.428-0.512c-0.112-0.092-0.216-0.196-0.308-0.308C7.861,15.258,4.25,10.441,4.25,7.5
		c0-4.135,3.365-7.5,7.5-7.5s7.5,3.365,7.5,7.5c0,2.936-3.61,7.756-5.762,10.368C13.059,18.389,12.426,18.688,11.749,18.688z
		 M11.75,1.5c-3.308,0-6,2.692-6,6c0,2.636,4.149,7.872,5.421,9.414c0.031,0.038,0.066,0.073,0.103,0.103
		c0.136,0.112,0.3,0.17,0.475,0.17c0.226,0,0.438-0.1,0.58-0.273c1.272-1.543,5.42-6.783,5.42-9.415
		C17.75,4.192,15.058,1.5,11.75,1.5z"/>
	<path d="M11.75,10.5c-1.654,0-3-1.346-3-3s1.346-3,3-3c1.654,0,3,1.346,3,3S13.404,10.5,11.75,10.5z M11.75,6
		c-0.827,0-1.5,0.673-1.5,1.5S10.923,9,11.75,9s1.5-0.673,1.5-1.5S12.577,6,11.75,6z"/>
</g>
</svg>
