<?xml version="1.0" encoding="utf-8"?>
<!-- Generator: Adobe Illustrator 22.1.0, SVG Export Plug-In . SVG Version: 6.00 Build 0)  -->
<svg version="1.1" id="Layer_1" xmlns="http://www.w3.org/2000/svg" xmlns:xlink="http://www.w3.org/1999/xlink" x="0px" y="0px"
	 viewBox="0 0 24 24" style="enable-background:new 0 0 24 24;" xml:space="preserve">
<title>pin-4</title>
<g>
	<path d="M12,19.682c-0.414,0-0.75-0.336-0.75-0.75v-5.98C8.279,12.58,6,10.03,6,7c0-3.308,2.692-6,6-6s6,2.692,6,6
		c0,3.03-2.279,5.58-5.25,5.952v5.98C12.75,19.345,12.414,19.682,12,19.682z M12,2.5C9.519,2.5,7.5,4.519,7.5,7s2.019,4.5,4.5,4.5
		c2.481,0,4.5-2.019,4.5-4.5S14.481,2.5,12,2.5z"/>
	<path d="M0.75,22.75C0.336,22.75,0,22.414,0,22s0.336-0.75,0.75-0.75h22.5c0.414,0,0.75,0.336,0.75,0.75s-0.336,0.75-0.75,0.75
		H0.75z"/>
</g>
</svg>
