<?xml version="1.0" encoding="utf-8"?>
<!-- Generator: Adobe Illustrator 22.1.0, SVG Export Plug-In . SVG Version: 6.00 Build 0)  -->
<svg version="1.1" id="Layer_1" xmlns="http://www.w3.org/2000/svg" xmlns:xlink="http://www.w3.org/1999/xlink" x="0px" y="0px"
	 viewBox="0 0 24 24" style="enable-background:new 0 0 24 24;" xml:space="preserve">
<title>pin-remove-1</title>
<g>
	<path d="M11.5,24c-0.352,0-0.652-0.24-0.731-0.583c-0.28-1.222-1.216-4.618-2.18-5.647c-0.269-0.288-0.55-0.577-0.835-0.871
		C5.643,14.722,3.25,12.256,3.25,8.25C3.25,3.701,6.951,0,11.5,0s8.25,3.701,8.25,8.25c0,4.002-2.39,6.467-4.499,8.641
		c-0.291,0.301-0.569,0.586-0.835,0.871c-0.968,1.035-1.906,4.433-2.186,5.655C12.152,23.76,11.852,24,11.5,24z M11.5,1.5
		c-3.722,0-6.75,3.028-6.75,6.75c0,3.398,2.075,5.536,4.081,7.604c0.291,0.3,0.578,0.596,0.854,0.89
		c0.723,0.772,1.348,2.293,1.816,3.728c0.469-1.437,1.096-2.959,1.82-3.734c0.272-0.292,0.556-0.584,0.844-0.882
		c2.012-2.075,4.084-4.212,4.084-7.606C18.25,4.528,15.222,1.5,11.5,1.5z"/>
	<path d="M9.25,9C8.836,9,8.5,8.664,8.5,8.25S8.836,7.5,9.25,7.5h4.5c0.414,0,0.75,0.336,0.75,0.75S14.164,9,13.75,9H9.25z"/>
</g>
</svg>
