<?xml version="1.0" encoding="utf-8"?>
<!-- Generator: Adobe Illustrator 22.1.0, SVG Export Plug-In . SVG Version: 6.00 Build 0)  -->
<svg version="1.1" id="Layer_1" xmlns="http://www.w3.org/2000/svg" xmlns:xlink="http://www.w3.org/1999/xlink" x="0px" y="0px"
	 viewBox="0 0 24 24" style="enable-background:new 0 0 24 24;" xml:space="preserve">
<title>pin-remove-2</title>
<g>
	<path d="M11.75,24c-0.352,0-0.652-0.24-0.731-0.583c-0.28-1.222-1.216-4.618-2.18-5.648c-0.268-0.286-0.547-0.574-0.831-0.866
		C5.895,14.726,3.5,12.258,3.5,8.25C3.5,3.701,7.201,0,11.75,0S20,3.701,20,8.25c0,4.002-2.39,6.467-4.499,8.641
		c-0.291,0.301-0.569,0.586-0.835,0.871c-0.968,1.035-1.906,4.433-2.186,5.655C12.402,23.76,12.102,24,11.75,24z M11.75,1.5
		C8.028,1.5,5,4.528,5,8.25c0,3.4,2.076,5.539,4.084,7.608c0.296,0.305,0.579,0.596,0.85,0.886c0.723,0.773,1.348,2.293,1.816,3.729
		c0.469-1.437,1.096-2.96,1.82-3.735c0.272-0.292,0.556-0.584,0.844-0.882c2.012-2.075,4.084-4.212,4.084-7.606
		C18.5,4.528,15.472,1.5,11.75,1.5z"/>
	<path d="M14.402,12.402c-0.2,0-0.389-0.078-0.53-0.22l-2.122-2.122l-2.122,2.122c-0.142,0.142-0.33,0.22-0.53,0.22
		s-0.389-0.078-0.53-0.22c-0.142-0.142-0.22-0.33-0.22-0.53c0-0.2,0.078-0.389,0.22-0.53L10.689,9L8.568,6.878
		c-0.142-0.141-0.22-0.33-0.22-0.53c0-0.2,0.078-0.389,0.22-0.53c0.142-0.142,0.33-0.22,0.53-0.22s0.389,0.078,0.53,0.22
		l2.122,2.122l2.122-2.122c0.142-0.142,0.33-0.22,0.53-0.22s0.389,0.078,0.53,0.22c0.142,0.142,0.22,0.33,0.22,0.53
		c0,0.2-0.078,0.389-0.22,0.53L12.811,9l2.122,2.122c0.142,0.141,0.22,0.33,0.22,0.53c0,0.2-0.078,0.389-0.22,0.53
		C14.791,12.324,14.602,12.402,14.402,12.402z"/>
</g>
</svg>
