<?xml version="1.0" encoding="utf-8"?>
<!-- Generator: Adobe Illustrator 22.1.0, SVG Export Plug-In . SVG Version: 6.00 Build 0)  -->
<svg version="1.1" id="Layer_1" xmlns="http://www.w3.org/2000/svg" xmlns:xlink="http://www.w3.org/1999/xlink" x="0px" y="0px"
	 viewBox="0 0 24 24" style="enable-background:new 0 0 24 24;" xml:space="preserve">
<title>pin-x-mark-4</title>
<g>
	<path d="M11.625,5.25c-0.044,0-0.088-0.004-0.131-0.012c-0.513-0.06-0.922-0.47-0.982-0.982C10.504,4.213,10.5,4.169,10.5,4.125
		s0.004-0.088,0.012-0.131c0.06-0.513,0.47-0.922,0.982-0.982C11.537,3.004,11.581,3,11.625,3s0.088,0.004,0.131,0.012
		c0.513,0.061,0.922,0.47,0.983,0.983c0.007,0.042,0.011,0.086,0.011,0.13s-0.004,0.088-0.011,0.13
		c-0.061,0.513-0.47,0.922-0.983,0.983C11.713,5.246,11.669,5.25,11.625,5.25z"/>
	<path d="M19.5,24c-0.085,0-0.169-0.014-0.249-0.042L12,21.42l-7.252,2.538C4.669,23.986,4.585,24,4.5,24
		c-0.318,0-0.603-0.202-0.708-0.502c-0.066-0.189-0.055-0.392,0.032-0.573c0.087-0.18,0.239-0.316,0.428-0.383l5.477-1.917
		l-5.477-1.917c-0.189-0.066-0.341-0.202-0.428-0.383c-0.087-0.181-0.098-0.384-0.032-0.573c0.105-0.301,0.39-0.502,0.708-0.502
		c0.084,0,0.167,0.014,0.247,0.042l6.502,2.276v-9.126c-2.55-0.368-4.5-2.584-4.5-5.192C6.75,2.355,9.105,0,12,0
		c2.895,0,5.25,2.355,5.25,5.25c0,2.607-1.95,4.824-4.5,5.192v9.126l6.502-2.276c0.079-0.028,0.163-0.042,0.248-0.042
		c0.318,0,0.603,0.202,0.708,0.503c0.066,0.189,0.055,0.393-0.032,0.573c-0.087,0.181-0.239,0.316-0.428,0.383l-5.477,1.917
		l5.477,1.917c0.189,0.066,0.341,0.202,0.428,0.383c0.087,0.18,0.098,0.384,0.032,0.573C20.103,23.798,19.818,24,19.5,24z M12,1.5
		c-2.068,0-3.75,1.682-3.75,3.75S9.932,9,12,9c2.068,0,3.75-1.682,3.75-3.75S14.068,1.5,12,1.5z"/>
</g>
</svg>
