<?xml version="1.0" encoding="utf-8"?>
<!-- Generator: Adobe Illustrator 22.1.0, SVG Export Plug-In . SVG Version: 6.00 Build 0)  -->
<svg version="1.1" id="Layer_1" xmlns="http://www.w3.org/2000/svg" xmlns:xlink="http://www.w3.org/1999/xlink" x="0px" y="0px"
	 viewBox="0 0 24 24" style="enable-background:new 0 0 24 24;" xml:space="preserve">
<title>pin-shine</title>
<g>
	<path d="M12,16.499c-2.068,0-3.75-1.682-3.75-3.75c0-2.068,1.682-3.75,3.75-3.75c2.068,0,3.75,1.682,3.75,3.75
		C15.75,14.817,14.068,16.499,12,16.499z M12,10.499c-1.241,0-2.25,1.009-2.25,2.25c0,1.241,1.009,2.25,2.25,2.25
		c1.241,0,2.25-1.009,2.25-2.25C14.25,11.509,13.241,10.499,12,10.499z"/>
	<path d="M12,23.999c-0.336,0-0.665-0.115-0.928-0.322c-0.093-0.074-0.176-0.157-0.248-0.248c-0.056-0.07-5.573-7.143-5.573-10.68
		c0-3.722,3.028-6.75,6.75-6.75s6.75,3.028,6.75,6.75c0,3.537-5.517,10.61-5.573,10.68C12.892,23.791,12.463,23.999,12,23.999z
		 M12,7.499c-2.895,0-5.25,2.355-5.25,5.25c0,2.125,3.133,7.074,5.25,9.75c2.118-2.676,5.25-7.625,5.25-9.75
		C17.25,9.854,14.895,7.499,12,7.499z"/>
	<path d="M12,4.499c-0.414,0-0.75-0.336-0.75-0.75v-3c0-0.414,0.336-0.75,0.75-0.75s0.75,0.336,0.75,0.75v3
		C12.75,4.163,12.414,4.499,12,4.499z"/>
	<path d="M17.25,6.189c-0.158,0-0.309-0.049-0.438-0.141c-0.335-0.241-0.413-0.71-0.172-1.046l1.75-2.437
		c0.141-0.196,0.368-0.313,0.61-0.313c0.158,0,0.309,0.049,0.438,0.141c0.335,0.241,0.413,0.71,0.172,1.046l-1.75,2.437
		C17.719,6.072,17.491,6.189,17.25,6.189z"/>
	<path d="M6.751,6.189c-0.241,0-0.469-0.117-0.61-0.313L4.391,3.44C4.274,3.277,4.228,3.078,4.26,2.881S4.4,2.51,4.563,2.393
		C4.692,2.301,4.843,2.252,5,2.252c0.241,0,0.469,0.117,0.609,0.313l1.75,2.437c0.117,0.163,0.163,0.361,0.131,0.559
		s-0.14,0.371-0.303,0.488C7.06,6.141,6.909,6.189,6.751,6.189z"/>
	<path d="M3.473,10.624c-0.078,0-0.155-0.012-0.229-0.036L0.521,9.713C0.127,9.587-0.09,9.163,0.036,8.77
		c0.1-0.311,0.387-0.52,0.715-0.52c0.077,0,0.154,0.012,0.228,0.036L3.702,9.16c0.394,0.127,0.611,0.55,0.485,0.944
		C4.086,10.415,3.8,10.624,3.473,10.624z"/>
	<path d="M20.529,10.624c-0.327,0-0.614-0.209-0.714-0.521c-0.061-0.19-0.045-0.394,0.047-0.572s0.247-0.31,0.438-0.371l2.722-0.875
		c0.075-0.024,0.152-0.036,0.23-0.036c0.327,0,0.614,0.209,0.714,0.521c0.061,0.19,0.045,0.393-0.047,0.572s-0.247,0.31-0.438,0.371
		l-2.722,0.875C20.683,10.612,20.606,10.624,20.529,10.624z"/>
</g>
</svg>
