<?xml version="1.0" encoding="utf-8"?>
<!-- Generator: Adobe Illustrator 22.1.0, SVG Export Plug-In . SVG Version: 6.00 Build 0)  -->
<svg version="1.1" id="Layer_1" xmlns="http://www.w3.org/2000/svg" xmlns:xlink="http://www.w3.org/1999/xlink" x="0px" y="0px"
	 viewBox="0 0 24 24" style="enable-background:new 0 0 24 24;" xml:space="preserve">
<title>pin-3</title>
<g>
	<path d="M11.5,21.75c-0.414,0-0.75-0.336-0.75-0.75v-8.308c-2.55-0.368-4.5-2.584-4.5-5.192c0-2.895,2.355-5.25,5.25-5.25
		c2.895,0,5.25,2.355,5.25,5.25c0,2.607-1.95,4.824-4.5,5.192V21C12.25,21.414,11.914,21.75,11.5,21.75z M11.5,3.75
		c-2.068,0-3.75,1.682-3.75,3.75s1.682,3.75,3.75,3.75c2.068,0,3.75-1.682,3.75-3.75S13.568,3.75,11.5,3.75z"/>
	<path d="M11.125,7.5c-0.044,0-0.088-0.004-0.131-0.012c-0.513-0.06-0.922-0.47-0.982-0.982C10.004,6.463,10,6.419,10,6.375
		s0.004-0.088,0.012-0.131c0.06-0.513,0.47-0.922,0.982-0.982c0.043-0.008,0.087-0.012,0.131-0.012s0.088,0.004,0.131,0.012
		c0.513,0.06,0.922,0.47,0.982,0.982c0.008,0.043,0.011,0.087,0.011,0.131s-0.004,0.088-0.011,0.131
		c-0.061,0.513-0.47,0.922-0.982,0.982C11.213,7.496,11.169,7.5,11.125,7.5z"/>
</g>
</svg>
