<?xml version="1.0" encoding="utf-8"?>
<!-- Generator: Adobe Illustrator 22.1.0, SVG Export Plug-In . SVG Version: 6.00 Build 0)  -->
<svg version="1.1" id="Regular" xmlns="http://www.w3.org/2000/svg" xmlns:xlink="http://www.w3.org/1999/xlink" x="0px" y="0px"
	 viewBox="0 0 24 24" style="enable-background:new 0 0 24 24;" xml:space="preserve">
<title>ping-pong-paddle</title>
<g>
	<path d="M10.504,6.005c-1.654,0-3-1.346-3-3s1.346-3,3-3s3,1.346,3,3S12.159,6.005,10.504,6.005z M10.504,1.505
		c-0.827,0-1.5,0.673-1.5,1.5s0.673,1.5,1.5,1.5c0.827,0,1.5-0.673,1.5-1.5S11.331,1.505,10.504,1.505z"/>
	<path d="M3.237,23.977c-0.831,0-1.62-0.32-2.222-0.901c-0.616-0.594-0.963-1.392-0.979-2.247c-0.015-0.855,0.303-1.666,0.897-2.281
		l3.235-3.235C2.858,12.764,2.645,9.77,3.59,7.051c0.002-0.008,0.006-0.021,0.012-0.036c0.329-0.936,0.789-1.82,1.367-2.627
		c0.141-0.196,0.369-0.313,0.61-0.313c0.158,0,0.309,0.049,0.437,0.141c0.162,0.116,0.27,0.289,0.303,0.487
		C6.351,4.901,6.305,5.1,6.188,5.262C5.784,5.827,5.443,6.449,5.174,7.114l11.723,11.723c1.826-0.742,3.371-2.074,4.369-3.772
		c1.218-2.073,1.555-4.496,0.95-6.823c-0.604-2.327-2.079-4.279-4.153-5.497c-0.892-0.524-1.86-0.888-2.877-1.081
		c-0.406-0.077-0.674-0.471-0.597-0.877c0.067-0.354,0.376-0.61,0.735-0.61c0.047,0,0.094,0.004,0.143,0.014
		c1.185,0.225,2.314,0.65,3.355,1.261c2.418,1.42,4.139,3.698,4.845,6.413c0.706,2.715,0.312,5.542-1.109,7.96
		c-1.245,2.12-3.21,3.741-5.533,4.566c-0.045,0.021-0.087,0.033-0.119,0.042c-1.106,0.378-2.258,0.57-3.424,0.57c0,0,0,0,0,0
		c-1.66,0-3.308-0.401-4.784-1.16l-3.226,3.225C4.862,23.656,4.07,23.977,3.237,23.977z M4.683,8.744
		c-0.427,2.155-0.052,4.424,1.061,6.32c0.173,0.295,0.125,0.669-0.117,0.91l-3.624,3.624c-0.308,0.32-0.476,0.749-0.468,1.204
		c0.008,0.455,0.193,0.879,0.52,1.195c0.321,0.31,0.741,0.481,1.182,0.481s0.861-0.171,1.182-0.48l3.614-3.614
		c0.141-0.142,0.33-0.22,0.53-0.22c0.134,0,0.265,0.036,0.381,0.104c1.376,0.808,2.945,1.236,4.538,1.236
		c0.598,0,1.194-0.059,1.781-0.177L4.683,8.744z"/>
</g>
</svg>
