<?xml version="1.0" encoding="utf-8"?>
<!-- Generator: Adobe Illustrator 22.1.0, SVG Export Plug-In . SVG Version: 6.00 Build 0)  -->
<svg version="1.1" id="Regular" xmlns="http://www.w3.org/2000/svg" xmlns:xlink="http://www.w3.org/1999/xlink" x="0px" y="0px"
	 viewBox="0 0 24 24" style="enable-background:new 0 0 24 24;" xml:space="preserve">
<title>ping-pong-player</title>
<g>
	<path d="M4.496,23.254c-0.422,0-0.836-0.12-1.196-0.347c-0.509-0.32-0.863-0.82-0.996-1.406s-0.031-1.19,0.29-1.699l3.51-5.614
		l0.365-2.187H5.781c-0.311,0-0.583,0.184-0.696,0.469l-0.747,1.865c-0.343,0.859-1.165,1.415-2.092,1.415
		c-0.285,0-0.565-0.054-0.831-0.16c-0.564-0.228-0.999-0.654-1.234-1.203c-0.237-0.552-0.244-1.164-0.021-1.722l0.743-1.863
		c0.794-2.005,2.702-3.301,4.859-3.301h3.237c0.447,0,0.877,0.13,1.247,0.375l2.73,1.823l0.974-1.298
		c0.361-0.481,0.887-0.792,1.482-0.877c0.106-0.015,0.213-0.023,0.32-0.023c0.336,0,0.665,0.076,0.967,0.221l1.064-1.065
		c-0.531-1.107-0.179-2.606,0.9-3.685c0.727-0.727,1.666-1.143,2.576-1.143c0.679,0,1.294,0.241,1.733,0.68
		c1.06,1.06,0.852,2.993-0.464,4.309c-0.727,0.727-1.666,1.143-2.576,1.143c-0.399,0-0.777-0.083-1.11-0.242L17.78,8.781
		c0.099,0.206,0.166,0.425,0.198,0.653c0.085,0.595-0.068,1.187-0.428,1.668l-1.4,1.863c-0.704,0.94-1.827,1.501-3.004,1.501l0,0
		c-0.74,0-1.457-0.217-2.074-0.627l-0.312-0.208l-0.065,0.392l0.705,0.527c1.313,0.989,2.098,2.558,2.101,4.199v2.251
		c0,1.241-1.009,2.25-2.25,2.25c-1.241,0-2.25-1.009-2.25-2.25v-2.25c0-0.165-0.057-0.325-0.156-0.456l-2.437,3.903
		c-0.322,0.511-0.822,0.865-1.408,0.999C4.834,23.234,4.665,23.254,4.496,23.254z M7.353,10.501c0.221,0,0.429,0.097,0.572,0.265
		c0.143,0.169,0.204,0.391,0.168,0.608l-0.535,3.208c-0.016,0.097-0.051,0.19-0.104,0.274l-3.59,5.742
		c-0.108,0.172-0.143,0.374-0.098,0.57c0.045,0.196,0.163,0.363,0.333,0.47c0.12,0.076,0.258,0.116,0.399,0.116
		c0.056,0,0.113-0.006,0.169-0.019c0.196-0.045,0.362-0.163,0.469-0.333l2.884-4.618c0.111-0.178,0.293-0.301,0.498-0.34
		c0.046-0.009,0.092-0.013,0.138-0.013c0.161,0,0.32,0.053,0.449,0.149l0.494,0.37c0.563,0.425,0.899,1.097,0.901,1.799v2.252
		c0,0.414,0.336,0.75,0.75,0.75S12,21.414,12,21.001v-2.25c-0.002-1.173-0.563-2.295-1.501-3.001L9.43,14.952
		c-0.226-0.169-0.337-0.447-0.291-0.724l0.331-1.987c0.042-0.252,0.207-0.463,0.441-0.565c0.095-0.041,0.195-0.062,0.298-0.062
		c0.148,0,0.292,0.044,0.416,0.126l1.277,0.851c0.37,0.246,0.8,0.376,1.243,0.376c0.707,0,1.381-0.337,1.803-0.901l1.401-1.864
		c0.12-0.16,0.171-0.357,0.143-0.556c-0.028-0.197-0.131-0.372-0.29-0.492c-0.134-0.101-0.289-0.152-0.45-0.152
		c-0.036,0-0.073,0.003-0.109,0.008C15.446,9.037,15.27,9.14,15.15,9.301l-1.4,1.866c-0.141,0.188-0.365,0.3-0.6,0.3
		c-0.148,0-0.292-0.043-0.416-0.126L9.414,9.125c-0.123-0.082-0.26-0.124-0.406-0.124H5.781c-1.557,0-2.918,0.924-3.485,2.355
		l-0.744,1.865c-0.074,0.187-0.072,0.39,0.007,0.575c0.079,0.184,0.225,0.326,0.411,0.401c0.092,0.036,0.184,0.053,0.277,0.053
		c0.31,0,0.584-0.185,0.698-0.472l0.746-1.863c0.34-0.859,1.159-1.414,2.084-1.414H7.353z M21.254,3.321
		c-0.5,0-1.065,0.266-1.511,0.712c-0.719,0.718-0.931,1.72-0.464,2.188c0.206,0.205,0.482,0.248,0.677,0.248
		c0.5,0,1.065-0.266,1.511-0.712c0.719-0.719,0.931-1.721,0.464-2.188C21.726,3.364,21.45,3.321,21.254,3.321z"/>
	<path d="M10.499,7.501c-1.861,0-3.375-1.514-3.375-3.375s1.514-3.375,3.375-3.375c1.861,0,3.375,1.514,3.375,3.375
		S12.36,7.501,10.499,7.501z M10.499,2.251c-1.034,0-1.875,0.841-1.875,1.875s0.841,1.875,1.875,1.875s1.875-0.841,1.875-1.875
		S11.533,2.251,10.499,2.251z"/>
	<path d="M20.249,23.251c-0.414,0-0.75-0.336-0.75-0.75v-6.75h-2.25c-0.414,0-0.75-0.336-0.75-0.75s0.336-0.75,0.75-0.75h6
		c0.414,0,0.75,0.336,0.75,0.75s-0.336,0.75-0.75,0.75h-2.25v6.75C20.999,22.914,20.662,23.251,20.249,23.251z"/>
	<path d="M21.749,13.126c-0.044,0-0.088-0.004-0.13-0.011c-0.513-0.06-0.923-0.47-0.983-0.983c-0.007-0.042-0.011-0.086-0.011-0.13
		s0.004-0.088,0.011-0.13c0.06-0.513,0.47-0.923,0.983-0.983c0.043-0.008,0.087-0.012,0.131-0.012s0.088,0.004,0.131,0.012
		c0.513,0.06,0.922,0.47,0.982,0.983c0.008,0.042,0.011,0.086,0.011,0.131s-0.004,0.088-0.011,0.13
		c-0.06,0.513-0.47,0.923-0.983,0.983C21.837,13.122,21.793,13.126,21.749,13.126z"/>
</g>
</svg>
