<?xml version="1.0" encoding="utf-8"?>
<!-- Generator: Adobe Illustrator 22.1.0, SVG Export Plug-In . SVG Version: 6.00 Build 0)  -->
<svg version="1.1" id="Layer_1" xmlns="http://www.w3.org/2000/svg" xmlns:xlink="http://www.w3.org/1999/xlink" x="0px" y="0px"
	 viewBox="0 0 24 24" style="enable-background:new 0 0 24 24;" xml:space="preserve">
<title>plane-trip-land-cancel</title>
<g>
	<path d="M3.701,15.889c-0.238,0-0.47-0.049-0.688-0.144l-1.693-0.74c-0.242-0.105-0.46-0.269-0.63-0.472
		c-0.294-0.352-0.433-0.797-0.392-1.254c0.041-0.457,0.258-0.87,0.61-1.164l2.845-2.371L1.607,8.804
		C0.623,8.375-0.009,7.402,0,6.327L0.034,1.71c0.002-0.234,0.05-0.461,0.144-0.675c0.184-0.42,0.52-0.743,0.947-0.91
		C1.326,0.045,1.536,0.005,1.75,0.005c0.237,0,0.468,0.049,0.687,0.144l2.198,0.962c0.262,0.115,0.433,0.363,0.448,0.648
		l0.087,1.693l2.008,0.878L7.1,2.789C7.086,2.525,7.135,2.257,7.241,2.014c0.273-0.626,0.891-1.03,1.575-1.03
		c0.236,0,0.466,0.048,0.684,0.143l1.661,0.73c0.491,0.214,0.858,0.655,0.981,1.178l0.913,3.866L15.27,7.87
		c0.184,0.08,0.325,0.227,0.398,0.414s0.069,0.39-0.011,0.574c-0.119,0.273-0.389,0.45-0.687,0.45c-0.104,0-0.205-0.021-0.301-0.063
		L4.145,4.642C3.883,4.528,3.712,4.279,3.697,3.994L3.61,2.3L1.836,1.524C1.808,1.512,1.779,1.506,1.75,1.506
		c-0.027,0-0.053,0.005-0.079,0.015C1.617,1.542,1.575,1.582,1.552,1.636C1.54,1.663,1.534,1.691,1.534,1.721L1.5,6.339
		C1.496,6.812,1.774,7.24,2.208,7.43l3.259,1.425c0.24,0.105,0.405,0.323,0.442,0.582c0.037,0.259-0.061,0.514-0.262,0.681
		l-3.777,3.148c-0.045,0.037-0.071,0.088-0.076,0.146c-0.005,0.059,0.012,0.114,0.049,0.159c0.021,0.026,0.049,0.046,0.078,0.059
		l1.694,0.741c0.028,0.012,0.057,0.018,0.087,0.018c0.034,0,0.067-0.008,0.098-0.023l6.346-3.174
		c0.104-0.052,0.22-0.079,0.336-0.079c0.286,0,0.543,0.159,0.671,0.415c0.185,0.37,0.035,0.821-0.335,1.006l-6.347,3.174
		C4.231,15.827,3.966,15.889,3.701,15.889z M11.337,6.15l-0.655-2.77c-0.016-0.066-0.061-0.121-0.123-0.148l-1.661-0.73
		C8.872,2.49,8.844,2.484,8.814,2.484c-0.086,0-0.164,0.051-0.199,0.13c-0.013,0.03-0.02,0.065-0.018,0.098l0.117,2.292L11.337,6.15
		z"/>
	<path d="M17.254,23.991c-1.783,0-3.464-0.691-4.737-1.947c-0.012-0.01-0.024-0.02-0.034-0.03c-0.011-0.01-0.021-0.023-0.031-0.036
		c-1.251-1.264-1.944-2.947-1.944-4.733c0-3.72,3.026-6.746,6.746-6.746c1.786,0,3.468,0.693,4.74,1.95
		c0.01,0.009,0.02,0.017,0.029,0.026c0.01,0.01,0.019,0.02,0.028,0.032C23.304,13.769,24,15.455,24,17.245
		C24,20.965,20.974,23.991,17.254,23.991z M14.115,21.444c0.905,0.678,2.005,1.047,3.139,1.047c2.893,0,5.246-2.353,5.246-5.246
		c0-1.134-0.369-2.234-1.047-3.138L14.115,21.444z M17.254,11.999c-2.893,0-5.246,2.353-5.246,5.246
		c0,1.134,0.369,2.233,1.046,3.138l7.338-7.337C19.487,12.368,18.388,11.999,17.254,11.999z"/>
</g>
</svg>
