<?xml version="1.0" encoding="utf-8"?>
<!-- Generator: Adobe Illustrator 22.1.0, SVG Export Plug-In . SVG Version: 6.00 Build 0)  -->
<svg version="1.1" id="Regular" xmlns="http://www.w3.org/2000/svg" xmlns:xlink="http://www.w3.org/1999/xlink" x="0px" y="0px"
	 viewBox="0 0 24 24" style="enable-background:new 0 0 24 24;" xml:space="preserve">
<title>plant-2</title>
<g>
	<path d="M12.245,24.021c-0.101,0-0.199-0.02-0.292-0.06c-0.38-0.161-0.559-0.602-0.398-0.983c0.006-0.015,0.666-1.614,0.708-3.557
		c0.056-2.536-0.912-4.487-2.879-5.798C4.704,10.497,4.65,6.792,4.65,6.636c-0.001-1.77,0.687-3.433,1.937-4.684
		s2.912-1.94,4.68-1.94c3.005,0,5.45,2.445,5.45,5.45c0,1.204-0.469,2.336-1.321,3.187c-0.851,0.85-1.982,1.319-3.185,1.319
		c-1.005-0.001-1.948-0.393-2.656-1.103c-0.708-0.71-1.098-1.653-1.096-2.656c0-1.736,1.413-3.149,3.15-3.149
		c0.414,0,0.75,0.336,0.75,0.75s-0.336,0.75-0.75,0.75c-0.91,0-1.65,0.74-1.65,1.65c-0.001,0.603,0.233,1.17,0.658,1.596
		c0.425,0.427,0.991,0.662,1.594,0.663c0.803,0,1.557-0.312,2.125-0.88c0.568-0.567,0.881-1.322,0.881-2.125
		c0-2.178-1.772-3.951-3.95-3.951c-1.367,0-2.652,0.533-3.619,1.5C6.681,3.98,6.149,5.265,6.15,6.633
		c0.001,0.025,0.116,3.104,4.067,5.744c1.467,0.978,2.49,2.27,3.045,3.845c0.695-0.396,1.141-1.141,1.14-1.955
		c0-0.2,0.078-0.389,0.219-0.531c0.141-0.142,0.33-0.22,0.53-0.22c0.414,0,0.75,0.336,0.751,0.749
		c0.001,1.509-0.898,2.855-2.269,3.445c0.156,0.994,0.154,2.056-0.006,3.166c0.247,0.091,0.506,0.137,0.774,0.137
		c0.803,0,1.55-0.43,1.95-1.122c0.133-0.231,0.382-0.375,0.65-0.375c0.131,0,0.261,0.035,0.375,0.101
		c0.357,0.206,0.481,0.666,0.274,1.024c-0.667,1.156-1.914,1.875-3.253,1.875c-0.365,0-0.723-0.053-1.071-0.158
		c-0.197,0.743-0.387,1.199-0.39,1.205C12.817,23.842,12.546,24.021,12.245,24.021z"/>
</g>
</svg>
