<?xml version="1.0" encoding="utf-8"?>
<!-- Generator: Adobe Illustrator 22.1.0, SVG Export Plug-In . SVG Version: 6.00 Build 0)  -->
<svg version="1.1" id="Layer_1" xmlns="http://www.w3.org/2000/svg" xmlns:xlink="http://www.w3.org/1999/xlink" x="0px" y="0px"
	 viewBox="0 0 24 24" style="enable-background:new 0 0 24 24;" xml:space="preserve">
<title>plane-board</title>
<g>
	<path d="M4.75,24C3.785,24,3,23.215,3,22.25V1.75C3,0.785,3.785,0,4.75,0h14.5C20.215,0,21,0.785,21,1.75v20.5
		c0,0.965-0.785,1.75-1.75,1.75H4.75z M4.75,1.5C4.612,1.5,4.5,1.612,4.5,1.75v20.5c0,0.138,0.112,0.25,0.25,0.25h14.5
		c0.138,0,0.25-0.112,0.25-0.25V1.75c0-0.138-0.112-0.25-0.25-0.25H4.75z"/>
	<path d="M6.75,21C6.336,21,6,20.664,6,20.25s0.336-0.75,0.75-0.75h1.5C8.664,19.5,9,19.836,9,20.25S8.664,21,8.25,21H6.75z"/>
	<path d="M11.25,21c-0.414,0-0.75-0.336-0.75-0.75s0.336-0.75,0.75-0.75h6c0.414,0,0.75,0.336,0.75,0.75S17.664,21,17.25,21H11.25z"
		/>
	<path d="M6.75,18C6.336,18,6,17.664,6,17.25s0.336-0.75,0.75-0.75h1.5C8.664,16.5,9,16.836,9,17.25S8.664,18,8.25,18H6.75z"/>
	<path d="M11.25,18c-0.414,0-0.75-0.336-0.75-0.75s0.336-0.75,0.75-0.75h6c0.414,0,0.75,0.336,0.75,0.75S17.664,18,17.25,18H11.25z"
		/>
	<path d="M11.1,13.2c-0.286,0-0.543-0.159-0.671-0.414l-0.582-1.165l-1.281-0.233c-0.197-0.036-0.368-0.146-0.482-0.311
		c-0.114-0.165-0.157-0.364-0.121-0.561C8.027,10.159,8.337,9.9,8.699,9.9c0.045,0,0.09,0.004,0.135,0.012l1.193,0.217l2.207-2.943
		l-2.83-0.762c-0.399-0.107-0.637-0.52-0.529-0.919C8.964,5.178,9.261,4.95,9.599,4.95c0.066,0,0.132,0.009,0.196,0.026l3.41,0.918
		L14.7,3.9c0.141-0.188,0.366-0.3,0.6-0.3c0.163,0,0.318,0.052,0.449,0.149c0.332,0.249,0.399,0.72,0.151,1.051l-1.495,1.994
		l1.836,3.016c0.215,0.353,0.103,0.815-0.25,1.031c-0.118,0.072-0.252,0.109-0.39,0.109c-0.264,0-0.504-0.135-0.641-0.36
		l-1.524-2.503l-2.207,2.943l0.543,1.085c0.185,0.37,0.034,0.821-0.335,1.006C11.332,13.173,11.216,13.2,11.1,13.2z"/>
</g>
</svg>
