<?xml version="1.0" encoding="utf-8"?>
<!-- Generator: Adobe Illustrator 22.1.0, SVG Export Plug-In . SVG Version: 6.00 Build 0)  -->
<svg version="1.1" id="Layer_1" xmlns="http://www.w3.org/2000/svg" xmlns:xlink="http://www.w3.org/1999/xlink" x="0px" y="0px"
	 viewBox="0 0 24 24" style="enable-background:new 0 0 24 24;" xml:space="preserve">
<title>plane-trip-person</title>
<g>
	<path d="M15.442,23.637c-0.176,0-0.354-0.021-0.527-0.062c-0.584-0.14-1.08-0.499-1.395-1.011l-2.084-3.406l-0.302-0.227
		l-0.41,1.024c-0.116,0.284-0.283,0.536-0.498,0.751l-2.25,2.25c-0.425,0.426-0.992,0.661-1.596,0.661
		c-0.602,0-1.168-0.234-1.593-0.658c-0.623-0.622-0.811-1.544-0.531-2.344h-2.63c-0.689,0-1.25-0.561-1.25-1.25v-3.5
		c0-0.689,0.561-1.25,1.25-1.25h1.469c-0.38-0.403-0.613-0.947-0.613-1.543c0-0.401,0.108-0.795,0.311-1.14
		c1.114-1.896,2.901-3.246,5.03-3.799c0.685-0.178,1.386-0.268,2.086-0.268c1.453,0,2.891,0.393,4.158,1.138
		c0.946,0.556,1.759,1.282,2.417,2.16c0.36,0.48,0.511,1.073,0.426,1.668c-0.085,0.595-0.397,1.122-0.877,1.482
		c-0.392,0.293-0.858,0.449-1.347,0.449c-0.706,0-1.38-0.336-1.802-0.899c-0.151-0.199-0.322-0.382-0.509-0.545v0.927l2.1,1.575
		c0.228,0.17,0.42,0.379,0.569,0.623l2.313,3.766c0.315,0.513,0.411,1.117,0.271,1.702c-0.14,0.585-0.5,1.08-1.012,1.394
		C16.261,23.522,15.855,23.637,15.442,23.637z M10.8,16.994c0.161,0,0.321,0.053,0.45,0.15l1.2,0.9
		c0.077,0.058,0.14,0.128,0.19,0.208l2.159,3.527c0.104,0.17,0.27,0.29,0.465,0.337c0.057,0.014,0.117,0.021,0.176,0.021
		c0.137,0,0.273-0.039,0.391-0.111c0.171-0.105,0.291-0.27,0.337-0.465c0.047-0.195,0.015-0.397-0.09-0.568l-2.313-3.765
		c-0.049-0.08-0.112-0.149-0.188-0.206l-2.402-1.802c-0.188-0.141-0.3-0.365-0.3-0.6v-2.633c0-0.25,0.124-0.483,0.332-0.623
		c0.125-0.083,0.269-0.127,0.418-0.127c0.098,0,0.193,0.019,0.283,0.055c0.86,0.351,1.612,0.927,2.173,1.667
		c0.145,0.193,0.365,0.303,0.605,0.303c0.163,0,0.317-0.052,0.448-0.149c0.331-0.248,0.398-0.719,0.15-1.05
		c-0.538-0.717-1.203-1.312-1.977-1.766c-1.037-0.609-2.213-0.931-3.401-0.931c-0.572,0-1.146,0.074-1.706,0.219
		c-1.742,0.453-3.203,1.557-4.114,3.108c-0.068,0.115-0.104,0.247-0.104,0.381c0,0.2,0.078,0.388,0.22,0.53
		c0.142,0.142,0.33,0.22,0.53,0.22c0.266,0,0.514-0.142,0.648-0.37c0.681-1.146,1.759-1.983,3.035-2.358
		c0.069-0.02,0.14-0.03,0.211-0.03c0.161,0,0.321,0.053,0.45,0.15c0.188,0.141,0.301,0.365,0.301,0.6v1.185
		c0,0.414-0.336,0.75-0.75,0.75s-0.75-0.336-0.75-0.75v-0.03c-0.491,0.312-0.902,0.736-1.205,1.246
		c-0.085,0.145-0.186,0.279-0.3,0.399h0.255c0.689,0,1.25,0.561,1.25,1.25v3.5c0,0.689-0.561,1.25-1.25,1.25H6.06l-0.216,0.216
		c-0.293,0.294-0.292,0.773,0.003,1.067c0.142,0.142,0.332,0.22,0.533,0.22c0.202,0,0.392-0.079,0.534-0.221l2.251-2.251
		c0.073-0.073,0.129-0.158,0.168-0.253l0.771-1.928c0.086-0.215,0.271-0.381,0.494-0.444C10.664,17.003,10.732,16.994,10.8,16.994z
		 M5.801,19.116l0.574,0v-3h-4.5v3l3.879-0.001C5.763,19.115,5.793,19.116,5.801,19.116z"/>
	<path d="M10.126,7.866c-1.861,0-3.375-1.514-3.375-3.375s1.514-3.375,3.375-3.375s3.375,1.514,3.375,3.375
		S11.986,7.866,10.126,7.866z M10.126,2.616c-1.034,0-1.875,0.841-1.875,1.875s0.841,1.875,1.875,1.875s1.875-0.841,1.875-1.875
		S11.159,2.616,10.126,2.616z"/>
	<path d="M20.626,9.366c-0.2,0-0.389-0.078-0.53-0.22l-0.97-0.97l-0.97,0.97c-0.142,0.142-0.33,0.22-0.53,0.22
		s-0.389-0.078-0.53-0.22c-0.142-0.141-0.22-0.33-0.22-0.53s0.078-0.389,0.22-0.53l1.28-1.28V4.69l-2.614,1.568
		c-0.116,0.07-0.25,0.107-0.385,0.107c-0.262,0-0.509-0.139-0.644-0.364c-0.103-0.172-0.133-0.374-0.084-0.568
		c0.049-0.194,0.17-0.358,0.342-0.461l3.386-2.031V1.116c0-0.414,0.336-0.75,0.75-0.75s0.75,0.336,0.75,0.75v1.825l3.386,2.031
		c0.172,0.103,0.293,0.267,0.342,0.461c0.049,0.194,0.019,0.396-0.084,0.568c-0.135,0.224-0.381,0.364-0.643,0.364
		c-0.136,0-0.269-0.037-0.386-0.107L19.876,4.69v2.115l1.28,1.28c0.142,0.141,0.22,0.33,0.22,0.53s-0.078,0.389-0.22,0.53
		S20.826,9.366,20.626,9.366z"/>
</g>
</svg>
