<?xml version="1.0" encoding="utf-8"?>
<!-- Generator: Adobe Illustrator 22.1.0, SVG Export Plug-In . SVG Version: 6.00 Build 0)  -->
<svg version="1.1" id="Regular" xmlns="http://www.w3.org/2000/svg" xmlns:xlink="http://www.w3.org/1999/xlink" x="0px" y="0px"
	 viewBox="0 0 24 24" style="enable-background:new 0 0 24 24;" xml:space="preserve">
<title>plant-cactus</title>
<g>
	<path d="M9,24.016c-1.791,0-3.344-1.213-3.778-2.949l-0.678-2.712C4.515,18.237,4.5,18.117,4.5,17.996
		c0-0.815,0.663-1.479,1.479-1.48H6.75v-3H6c-2.895,0-5.25-2.355-5.25-5.25c0-0.537,0.194-1.054,0.541-1.46L0.85,6.043
		C0.75,5.87,0.723,5.667,0.775,5.474C0.827,5.28,0.951,5.119,1.125,5.018C1.239,4.953,1.369,4.918,1.5,4.918
		c0.267,0,0.516,0.144,0.65,0.375l0.44,0.761C2.725,6.029,2.862,6.016,3,6.016s0.275,0.013,0.411,0.039l0.44-0.762
		C3.984,5.062,4.233,4.918,4.5,4.918c0.131,0,0.261,0.035,0.375,0.101c0.173,0.1,0.298,0.262,0.349,0.455
		C5.276,5.667,5.249,5.87,5.149,6.043L4.708,6.806C5.055,7.212,5.25,7.729,5.25,8.266c0,0.414,0.336,0.75,0.75,0.75h0.75v-1.5
		c0-1.337,0.496-2.59,1.405-3.565L7.173,2.737c-0.26-0.322-0.21-0.795,0.112-1.055c0.134-0.108,0.301-0.167,0.471-0.167
		c0.228,0,0.44,0.101,0.583,0.278l0.98,1.212c0.591-0.351,1.247-0.583,1.93-0.681V0.766c0-0.414,0.336-0.75,0.75-0.75
		s0.75,0.336,0.75,0.75v1.558c0.683,0.098,1.34,0.33,1.93,0.681l0.979-1.211c0.143-0.177,0.355-0.278,0.583-0.278
		c0.171,0,0.338,0.059,0.471,0.167c0.322,0.26,0.372,0.734,0.112,1.055l-0.981,1.213c0.909,0.975,1.405,2.228,1.405,3.565v3H18
		c0.414,0,0.75-0.336,0.75-0.75c0-0.537,0.194-1.054,0.541-1.46L18.85,7.543c-0.1-0.173-0.127-0.375-0.075-0.569
		c0.052-0.194,0.176-0.355,0.349-0.456c0.114-0.066,0.243-0.101,0.375-0.101c0.267,0,0.516,0.144,0.65,0.375l0.439,0.761
		C20.725,7.529,20.862,7.516,21,7.516s0.275,0.013,0.411,0.039l0.44-0.762c0.133-0.231,0.382-0.375,0.65-0.375
		c0.131,0,0.261,0.035,0.375,0.101c0.173,0.1,0.297,0.262,0.349,0.455c0.052,0.193,0.025,0.396-0.075,0.569l-0.441,0.763
		c0.347,0.406,0.541,0.923,0.541,1.46c0,2.895-2.355,5.25-5.25,5.25h-0.75v1.5h0.775c0.457,0.001,0.88,0.206,1.162,0.563
		c0.003,0.003,0.008,0.01,0.008,0.01c0.28,0.364,0.374,0.828,0.258,1.272l-0.676,2.705c-0.434,1.736-1.987,2.949-3.777,2.949H9z
		 M6.677,20.703c0.267,1.067,1.222,1.813,2.321,1.813H15c1.1,0,2.054-0.746,2.322-1.813l0.672-2.687H6.005L6.677,20.703z
		 M15.75,16.516v-2.25c0-0.414,0.336-0.75,0.75-0.75H18c2.068,0,3.75-1.682,3.75-3.75c0-0.414-0.336-0.75-0.75-0.75
		s-0.75,0.336-0.75,0.75c0,1.241-1.009,2.25-2.25,2.25h-1.5c-0.414,0-0.75-0.336-0.75-0.75v-3.75c0-2.068-1.682-3.75-3.75-3.75
		c-2.068,0-3.75,1.682-3.75,3.75v2.25c0,0.414-0.336,0.75-0.75,0.75H6c-1.241,0-2.25-1.009-2.25-2.25c0-0.414-0.336-0.75-0.75-0.75
		s-0.75,0.336-0.75,0.75c0,2.068,1.682,3.75,3.75,3.75h1.5c0.414,0,0.75,0.336,0.75,0.75v3.75H15.75z"/>
</g>
</svg>
