<?xml version="1.0" encoding="utf-8"?>
<!-- Generator: Adobe Illustrator 22.1.0, SVG Export Plug-In . SVG Version: 6.00 Build 0)  -->
<svg version="1.1" id="Layer_1" xmlns="http://www.w3.org/2000/svg" xmlns:xlink="http://www.w3.org/1999/xlink" x="0px" y="0px"
	 viewBox="0 0 24 24" style="enable-background:new 0 0 24 24;" xml:space="preserve">
<title>plane-trip-international</title>
<g>
	<path d="M15.428,24.003c-0.07,0-0.139-0.005-0.208-0.014c-0.397-0.056-0.749-0.264-0.989-0.584s-0.342-0.715-0.286-1.112
		l0.362-2.578l-1.467,0.493c-0.232,0.079-0.475,0.119-0.72,0.119c-0.639,0-1.251-0.274-1.678-0.752l-2.389-2.674
		c-0.136-0.152-0.239-0.328-0.304-0.524c-0.262-0.783,0.162-1.634,0.945-1.897l1.765-0.594c0.076-0.026,0.157-0.039,0.239-0.039
		c0.197,0,0.389,0.08,0.529,0.218l0.862,0.857l1.254-0.422l-0.657-0.654c-0.165-0.163-0.291-0.367-0.365-0.588
		c-0.127-0.379-0.099-0.786,0.08-1.144c0.179-0.359,0.487-0.626,0.866-0.753l1.337-0.45c0.154-0.051,0.314-0.077,0.476-0.077
		c0.307,0,0.601,0.091,0.851,0.263l2.471,1.702l2.105-0.708c-0.001,0-0.001,0-0.001,0c-0.001,0,0.014-0.006,0.03-0.011
		c0.267-0.09,0.549-0.137,0.834-0.137c1.128,0,2.129,0.718,2.49,1.786c0.225,0.665,0.177,1.377-0.135,2.005
		c-0.311,0.629-0.849,1.098-1.513,1.322l-2.156,0.725l-1.866,4.805c-0.163,0.416-0.498,0.736-0.919,0.878l-1.362,0.458
		C15.752,23.977,15.591,24.003,15.428,24.003z M15.217,17.868c0.175,0,0.345,0.062,0.479,0.173c0.201,0.167,0.3,0.422,0.263,0.681
		l-0.53,3.78l1.36-0.457l1.994-5.133c0.081-0.208,0.249-0.368,0.46-0.439l2.488-0.836c0.284-0.096,0.514-0.297,0.647-0.567
		c0.134-0.27,0.155-0.575,0.059-0.86c-0.096-0.285-0.298-0.515-0.567-0.649c-0.157-0.078-0.325-0.117-0.499-0.117
		c-0.113,0-0.225,0.017-0.334,0.051c-0.011,0.004-8.911,2.996-8.911,2.996c-0.077,0.026-0.158,0.039-0.239,0.039
		c-0.199,0-0.387-0.077-0.528-0.218l-0.863-0.857L9.17,15.902l2.389,2.674c0.142,0.16,0.346,0.251,0.559,0.251
		c0.082,0,0.163-0.013,0.241-0.04l2.619-0.88C15.055,17.882,15.135,17.868,15.217,17.868z M13.743,12.784l1.188,1.183l1.693-0.569
		l-1.544-1.064l-0.001-0.374l0,0.375c0,0,0,0,0.001,0L13.743,12.784z"/>
	<path d="M5.997,18.687c-0.108,0-0.213-0.023-0.312-0.068c-2.368-1.085-4.171-3.027-5.078-5.469C-0.3,10.708-0.202,8.06,0.883,5.693
		c0.618-1.348,1.508-2.507,2.646-3.446c0.012-0.012,0.037-0.032,0.065-0.052c1.74-1.411,3.93-2.188,6.169-2.188
		c1.402,0,2.764,0.298,4.046,0.885c0.949,0.435,1.825,1.027,2.603,1.759c0.071,0.047,0.133,0.106,0.184,0.174
		c1.844,1.827,2.901,4.351,2.901,6.93c0,0.414-0.336,0.75-0.75,0.75s-0.75-0.336-0.75-0.75c0-1.88-0.645-3.692-1.825-5.161
		l-0.977,1.942c-0.089,0.178-0.104,0.381-0.04,0.571l0.554,1.661c0.063,0.19,0.049,0.393-0.041,0.573s-0.243,0.313-0.434,0.376
		c-0.076,0.026-0.156,0.039-0.237,0.039c-0.323,0-0.609-0.206-0.711-0.513l-0.554-1.661c-0.19-0.57-0.146-1.18,0.123-1.718
		l1.212-2.407c-0.576-0.489-1.208-0.892-1.881-1.201C12.1,1.758,10.949,1.506,9.763,1.506c-1.463,0-2.88,0.381-4.139,1.108
		l3.944,1.494c1.037,0.389,1.632,1.461,1.414,2.549l-0.314,1.564c-0.17,0.848-0.822,1.531-1.661,1.741l-1.706,0.427l-1.008,2.527
		c-0.282,0.708-0.767,1.306-1.402,1.729L3.75,15.427c0.724,0.767,1.583,1.381,2.559,1.828c0.182,0.083,0.321,0.233,0.391,0.42
		c0.07,0.188,0.062,0.392-0.021,0.574C6.557,18.515,6.289,18.687,5.997,18.687z M4.179,3.671C3.36,4.417,2.71,5.307,2.247,6.318
		c-0.918,2.003-1.001,4.244-0.234,6.31c0.21,0.566,0.482,1.108,0.811,1.616l1.228-0.842c0.387-0.258,0.679-0.617,0.848-1.041
		l1.15-2.884c0.089-0.223,0.281-0.391,0.515-0.45l2.079-0.52c0.28-0.07,0.497-0.298,0.554-0.581l0.314-1.564
		c0.073-0.363-0.126-0.72-0.472-0.85L4.179,3.671z"/>
</g>
</svg>
