<?xml version="1.0" encoding="utf-8"?>
<!-- Generator: Adobe Illustrator 22.1.0, SVG Export Plug-In . SVG Version: 6.00 Build 0)  -->
<svg version="1.1" id="Layer_1" xmlns="http://www.w3.org/2000/svg" xmlns:xlink="http://www.w3.org/1999/xlink" x="0px" y="0px"
	 viewBox="0 0 24 24" style="enable-background:new 0 0 24 24;" xml:space="preserve">
<title>plane-trip-cocktail-service</title>
<g>
	<path d="M13.9,9.807c-0.095,0-0.188-0.018-0.277-0.053c-0.187-0.075-0.333-0.217-0.412-0.401c-0.079-0.184-0.082-0.388-0.008-0.574
		l1.063-2.668c0.083-0.207,0.252-0.366,0.464-0.435l2.5-0.816c0.296-0.092,0.533-0.288,0.673-0.554
		c0.14-0.266,0.168-0.57,0.079-0.857c-0.089-0.287-0.284-0.522-0.551-0.662c-0.164-0.086-0.34-0.13-0.522-0.13
		c-0.113,0-0.226,0.017-0.335,0.051l-8.96,2.925C7.539,5.657,7.46,5.67,7.381,5.67c-0.199,0-0.393-0.081-0.533-0.223L5.993,4.584
		L4.662,5.019l2.368,2.694c0.143,0.163,0.348,0.256,0.563,0.256c0.079,0,0.158-0.013,0.233-0.037l2.624-0.858
		c0.076-0.025,0.154-0.037,0.233-0.037c0.177,0,0.349,0.063,0.484,0.177c0.197,0.166,0.296,0.428,0.258,0.684l-0.167,1.115
		c-0.055,0.364-0.374,0.639-0.743,0.639c-0.036,0-0.072-0.003-0.108-0.008c-0.382-0.057-0.653-0.392-0.64-0.768L8.293,9.357
		c-0.227,0.074-0.462,0.112-0.7,0.112c0,0,0,0,0,0c-0.647,0-1.263-0.279-1.69-0.766L3.536,6.009C3.402,5.856,3.302,5.68,3.238,5.486
		C3.113,5.106,3.144,4.7,3.324,4.342s0.49-0.623,0.87-0.749l1.772-0.579C6.042,2.989,6.12,2.977,6.2,2.977
		c0.199,0,0.394,0.081,0.533,0.223l0.855,0.864l1.258-0.411L8.194,2.99C8.032,2.827,7.908,2.624,7.836,2.404
		C7.579,1.617,8.009,0.768,8.795,0.511l1.343-0.438C10.287,0.024,10.443,0,10.601,0c0.312,0,0.611,0.094,0.865,0.273l2.458,1.723
		l2.198-0.718c0.26-0.081,0.524-0.121,0.788-0.121c0.421,0,0.843,0.105,1.22,0.303c0.62,0.326,1.076,0.875,1.284,1.545
		s0.143,1.38-0.184,2.001c-0.326,0.62-0.875,1.077-1.545,1.284L15.53,6.993l-0.933,2.342C14.482,9.622,14.209,9.807,13.9,9.807z
		 M9.261,1.937l1.179,1.196l1.702-0.556L10.604,1.5l-0.002-0.001L9.261,1.937z"/>
	<path d="M3,12.751c-0.414,0-0.75-0.336-0.75-0.75c0-0.414,0.336-0.75,0.75-0.75h18c0.414,0,0.75,0.336,0.75,0.75
		c0,0.413-0.336,0.75-0.75,0.75H3z"/>
	<path d="M9,24.001c-0.414,0-0.75-0.336-0.75-0.75s0.336-0.75,0.75-0.75h0.75v-1.574c-1.168-0.229-2.25-1.012-2.25-2.364
		c0-0.018,0.001-0.035,0.002-0.052c0.073-1.021,0.275-2.029,0.599-2.998c0.102-0.306,0.388-0.512,0.711-0.512h3.376
		c0.323,0,0.609,0.206,0.711,0.512c0.324,0.97,0.526,1.978,0.599,2.996c0.001,0.016,0.002,0.034,0.002,0.054
		c0,1.352-1.082,2.135-2.25,2.364v1.574H12c0.414,0,0.75,0.336,0.75,0.75s-0.336,0.75-0.75,0.75H9z M9,18.586
		c0.02,0.723,0.987,0.915,1.5,0.915s1.48-0.192,1.5-0.915c-0.053-0.705-0.176-1.405-0.366-2.085H9.366
		C9.176,17.182,9.053,17.882,9,18.586z"/>
</g>
</svg>
