<?xml version="1.0" encoding="utf-8"?>
<!-- Generator: Adobe Illustrator 22.1.0, SVG Export Plug-In . SVG Version: 6.00 Build 0)  -->
<svg version="1.1" id="Layer_1" xmlns="http://www.w3.org/2000/svg" xmlns:xlink="http://www.w3.org/1999/xlink" x="0px" y="0px"
	 viewBox="0 0 24 24" style="enable-background:new 0 0 24 24;" xml:space="preserve">
<title>plane-trip-land-check</title>
<g>
	<path d="M3.704,15.891c-0.238,0-0.47-0.049-0.688-0.144L1.32,15.006c-0.242-0.106-0.46-0.269-0.629-0.472
		c-0.294-0.353-0.433-0.798-0.392-1.255c0.041-0.457,0.258-0.87,0.61-1.164l2.847-2.374L1.609,8.802C0.623,8.372-0.008,7.4,0,6.324
		l0.034-4.621c0.002-0.234,0.05-0.462,0.145-0.677c0.184-0.42,0.521-0.743,0.948-0.909C1.327,0.039,1.537-0.001,1.75-0.001
		c0.237,0,0.469,0.049,0.689,0.145l2.198,0.96c0.262,0.114,0.434,0.363,0.449,0.649L5.173,3.45l2.006,0.877l-0.08-1.543
		C7.085,2.52,7.134,2.252,7.24,2.01c0.273-0.626,0.891-1.031,1.576-1.031c0.236,0,0.467,0.048,0.684,0.143l1.666,0.729
		c0.492,0.215,0.859,0.656,0.983,1.178l0.914,3.87l2.209,0.966c0.184,0.08,0.325,0.227,0.398,0.414s0.069,0.39-0.011,0.574
		c-0.119,0.273-0.389,0.45-0.687,0.45c-0.104,0-0.205-0.021-0.301-0.063L4.147,4.638C3.885,4.524,3.714,4.275,3.699,3.99
		L3.612,2.294L1.838,1.518C1.809,1.506,1.78,1.5,1.75,1.5c-0.027,0-0.053,0.005-0.079,0.015C1.617,1.536,1.576,1.575,1.552,1.629
		C1.54,1.656,1.534,1.684,1.534,1.714L1.5,6.336C1.496,6.809,1.775,7.238,2.209,7.428l3.26,1.425
		c0.24,0.105,0.405,0.322,0.442,0.582c0.037,0.259-0.061,0.514-0.262,0.682L1.87,13.267c-0.045,0.037-0.072,0.088-0.077,0.147
		c-0.005,0.058,0.012,0.113,0.05,0.158c0.021,0.025,0.049,0.046,0.079,0.059l1.695,0.741c0.028,0.012,0.057,0.018,0.087,0.018
		c0.034,0,0.067-0.008,0.097-0.023l5.572-2.786c0.103-0.052,0.219-0.079,0.335-0.079c0.286,0,0.544,0.159,0.672,0.415
		c0.089,0.179,0.104,0.383,0.041,0.573c-0.063,0.19-0.197,0.344-0.376,0.434L4.471,15.71C4.233,15.829,3.968,15.891,3.704,15.891z
		 M11.344,6.148l-0.655-2.774c-0.015-0.065-0.063-0.122-0.125-0.149L8.899,2.496C8.873,2.484,8.844,2.479,8.815,2.479
		c-0.087,0-0.166,0.051-0.2,0.131c-0.013,0.03-0.019,0.065-0.018,0.098l0.119,2.292L11.344,6.148z"/>
	<path d="M17.25,23.999c-3.722,0-6.75-3.028-6.75-6.75s3.028-6.75,6.75-6.75S24,13.527,24,17.249S20.972,23.999,17.25,23.999z
		 M17.25,11.999c-2.895,0-5.25,2.355-5.25,5.25s2.355,5.25,5.25,5.25s5.25-2.355,5.25-5.25S20.145,11.999,17.25,11.999z"/>
	<path d="M17.25,17.999c-0.414,0-0.75-0.336-0.75-0.75v-2.652c0-0.414,0.336-0.75,0.75-0.75S18,14.184,18,14.597v1.902h1.902
		c0.414,0,0.75,0.336,0.75,0.75s-0.336,0.75-0.75,0.75H17.25z"/>
</g>
</svg>
