<?xml version="1.0" encoding="utf-8"?>
<!-- Generator: Adobe Illustrator 22.1.0, SVG Export Plug-In . SVG Version: 6.00 Build 0)  -->
<svg version="1.1" id="Layer_1" xmlns="http://www.w3.org/2000/svg" xmlns:xlink="http://www.w3.org/1999/xlink" x="0px" y="0px"
	 viewBox="0 0 24 24" style="enable-background:new 0 0 24 24;" xml:space="preserve">
<title>plane-trip-take-off-cancel</title>
<g>
	<path d="M8.832,15.415c-0.034,0-0.069-0.002-0.104-0.007c-0.41-0.058-0.697-0.438-0.639-0.847l0.514-3.662l-2.216,0.745
		c-0.276,0.093-0.563,0.139-0.854,0.139c-0.762,0-1.49-0.326-1.999-0.895l-3.073-3.44C0.305,7.274,0.189,7.075,0.115,6.854
		C-0.031,6.42,0,5.955,0.204,5.544c0.204-0.411,0.555-0.717,0.989-0.863l2.272-0.763c0.077-0.026,0.157-0.039,0.239-0.039
		c0.2,0,0.388,0.078,0.529,0.219l1.2,1.194l2.068-0.695L6.41,3.512C6.222,3.325,6.077,3.092,5.993,2.84
		C5.847,2.406,5.879,1.941,6.084,1.531c0.204-0.41,0.556-0.716,0.99-0.862L8.795,0.09c0.176-0.059,0.358-0.088,0.544-0.088
		c0.351,0,0.687,0.104,0.974,0.301l3.267,2.25l2.844-0.956c0.328-0.11,0.668-0.166,1.01-0.166c0.489,0,0.961,0.112,1.405,0.332
		c0.757,0.376,1.322,1.024,1.59,1.825c0.269,0.8,0.21,1.658-0.165,2.414c-0.376,0.756-1.024,1.321-1.825,1.59l-2.866,0.964
		l-0.273,0.707c-0.111,0.287-0.392,0.48-0.7,0.48c-0.092,0-0.183-0.017-0.269-0.05c-0.386-0.149-0.579-0.584-0.43-0.97l0.4-1.036
		c0.081-0.209,0.249-0.37,0.461-0.441l3.2-1.076c0.421-0.141,0.761-0.438,0.959-0.836c0.197-0.398,0.228-0.848,0.087-1.269
		c-0.141-0.421-0.438-0.761-0.836-0.959c-0.233-0.116-0.481-0.175-0.738-0.175c-0.18,0-0.359,0.03-0.532,0.088L5.472,6.861
		C5.395,6.887,5.315,6.9,5.233,6.9c-0.2,0-0.388-0.078-0.529-0.219l-1.2-1.194L1.671,6.103C1.616,6.121,1.573,6.159,1.547,6.211
		C1.522,6.263,1.518,6.32,1.536,6.375C1.546,6.403,1.56,6.428,1.58,6.45l3.073,3.439c0.224,0.251,0.545,0.394,0.88,0.394
		c0.128,0,0.254-0.021,0.376-0.062L9.275,9.09c0.078-0.026,0.158-0.039,0.239-0.039c0.175,0,0.345,0.061,0.479,0.173
		c0.202,0.167,0.3,0.422,0.264,0.681L9.574,14.77C9.522,15.138,9.203,15.415,8.832,15.415z M9.34,1.501
		c-0.023,0-0.046,0.004-0.067,0.011L7.551,2.091C7.495,2.11,7.452,2.147,7.426,2.199C7.4,2.251,7.396,2.308,7.415,2.363
		c0.011,0.032,0.029,0.062,0.053,0.085l1.623,1.614l2.712-0.912l-2.34-1.612C9.428,1.515,9.384,1.501,9.34,1.501z"/>
	<path d="M17.234,24.001c-1.784,0-3.466-0.692-4.737-1.95c-0.01-0.008-0.019-0.017-0.028-0.025c-0.01-0.01-0.019-0.021-0.028-0.032
		c-1.251-1.26-1.946-2.944-1.946-4.732c0-3.716,3.023-6.739,6.739-6.739c1.781,0,3.459,0.69,4.729,1.943
		c0.013,0.01,0.025,0.02,0.035,0.031c0.01,0.01,0.021,0.022,0.031,0.035c1.251,1.263,1.944,2.945,1.944,4.73
		C23.973,20.978,20.95,24.001,17.234,24.001z M14.101,21.456c0.903,0.677,2.001,1.045,3.134,1.045c2.889,0,5.239-2.35,5.239-5.239
		c0-1.132-0.369-2.231-1.046-3.134L14.101,21.456z M17.234,12.023c-2.889,0-5.239,2.35-5.239,5.239c0,1.132,0.369,2.23,1.045,3.133
		l7.327-7.328C19.464,12.391,18.366,12.023,17.234,12.023z"/>
</g>
</svg>
