<?xml version="1.0" encoding="utf-8"?>
<!-- Generator: Adobe Illustrator 22.1.0, SVG Export Plug-In . SVG Version: 6.00 Build 0)  -->
<svg version="1.1" id="Layer_1" xmlns="http://www.w3.org/2000/svg" xmlns:xlink="http://www.w3.org/1999/xlink" x="0px" y="0px"
	 viewBox="0 0 24 24" style="enable-background:new 0 0 24 24;" xml:space="preserve">
<title>plane-boarding-pass-smartphone-check</title>
<g>
	<path d="M4.5,24c-2.068,0-3.75-1.682-3.75-3.75V3.75C0.75,1.682,2.432,0,4.5,0h8.251c2.068,0,3.75,1.682,3.75,3.75v6
		c0,0.414-0.336,0.75-0.75,0.75s-0.75-0.336-0.75-0.75v-6c0-1.241-1.009-2.25-2.25-2.25H4.5c-1.241,0-2.25,1.009-2.25,2.25v15h6.751
		c0.414,0,0.75,0.336,0.75,0.75s-0.336,0.75-0.75,0.75H2.25c0,1.241,1.009,2.25,2.25,2.25h6c0.414,0,0.75,0.336,0.75,0.75
		S10.914,24,10.5,24H4.5z"/>
	<path d="M17.25,24c-3.308,0-6-2.692-6-6s2.692-6,6-6c0.414,0,0.75,0.336,0.75,0.75s-0.336,0.75-0.75,0.75
		c-2.481,0-4.5,2.019-4.5,4.5s2.019,4.5,4.5,4.5s4.5-2.019,4.5-4.5c0-0.414,0.336-0.75,0.75-0.75s0.75,0.336,0.75,0.75
		C23.25,21.308,20.558,24,17.25,24z"/>
	<path d="M17.25,19.789c-0.376,0-0.729-0.146-0.994-0.41l-1.501-1.501c-0.292-0.292-0.292-0.768,0-1.061
		c0.142-0.142,0.33-0.22,0.53-0.22s0.389,0.078,0.53,0.22l1.434,1.434l4.719-4.72c0.142-0.142,0.33-0.22,0.53-0.22
		s0.389,0.078,0.53,0.22c0.292,0.292,0.292,0.768,0,1.061l-4.785,4.786C17.98,19.643,17.626,19.789,17.25,19.789z"/>
	<path d="M7.5,14.1c-0.286,0-0.543-0.159-0.671-0.414l-0.582-1.165l-1.281-0.233c-0.197-0.036-0.368-0.146-0.482-0.311
		c-0.114-0.165-0.157-0.364-0.121-0.561C4.427,11.059,4.737,10.8,5.099,10.8c0.045,0,0.091,0.004,0.136,0.012l1.193,0.217
		l2.207-2.943l-2.83-0.762c-0.399-0.107-0.637-0.52-0.529-0.919C5.364,6.078,5.661,5.85,5.999,5.85c0.066,0,0.132,0.009,0.196,0.026
		l3.409,0.918L11.1,4.8c0.141-0.188,0.366-0.3,0.601-0.3c0.163,0,0.319,0.052,0.449,0.15c0.16,0.12,0.264,0.296,0.292,0.494
		C12.471,5.342,12.42,5.54,12.3,5.7l-1.495,1.994l1.836,3.016c0.215,0.353,0.103,0.816-0.251,1.031
		c-0.117,0.072-0.252,0.109-0.39,0.109c-0.264,0-0.504-0.135-0.641-0.36L9.835,8.986l-2.207,2.943l0.543,1.086
		c0.185,0.37,0.034,0.822-0.336,1.006C7.732,14.073,7.616,14.1,7.5,14.1z"/>
</g>
</svg>
