<?xml version="1.0" encoding="utf-8"?>
<!-- Generator: Adobe Illustrator 22.1.0, SVG Export Plug-In . SVG Version: 6.00 Build 0)  -->
<svg version="1.1" id="Layer_1" xmlns="http://www.w3.org/2000/svg" xmlns:xlink="http://www.w3.org/1999/xlink" x="0px" y="0px"
	 viewBox="0 0 24 24" style="enable-background:new 0 0 24 24;" xml:space="preserve">
<title>plane-trip-return</title>
<g>
	<path d="M10.921,24c-1.034,0-1.931-0.701-2.183-1.704l-0.983-3.934c-0.03-0.118-0.045-0.24-0.045-0.363c0-0.827,0.673-1.5,1.5-1.5
		h2.039c0.286,0,0.543,0.159,0.671,0.414L12.464,18h1.323l-1.165-2.33c-0.104-0.208-0.159-0.442-0.159-0.674
		c0.002-0.825,0.674-1.496,1.499-1.496h1.788c0.223,0,0.434,0.098,0.576,0.27L19.851,18H21c1.654,0,3,1.346,3,3s-1.346,3-3,3H10.921
		z M10.193,21.932c0.084,0.334,0.383,0.568,0.728,0.568H21c0.827,0,1.5-0.673,1.5-1.5s-0.673-1.5-1.5-1.5h-1.5
		c-0.223,0-0.434-0.098-0.576-0.27L15.399,15h-1.435l1.707,3.415c0.117,0.234,0.105,0.507-0.032,0.729
		C15.502,19.364,15.258,19.5,15,19.5h-3c-0.286,0-0.543-0.159-0.671-0.414L10.786,18H9.211L10.193,21.932z"/>
	<path d="M0.75,22.5C0.336,22.5,0,22.164,0,21.75S0.336,21,0.75,21h1.5C2.664,21,3,21.336,3,21.75S2.664,22.5,2.25,22.5H0.75z"/>
	<path d="M5.25,22.5c-0.414,0-0.75-0.336-0.75-0.75S4.836,21,5.25,21h1.5c0.414,0,0.75,0.336,0.75,0.75S7.164,22.5,6.75,22.5H5.25z"
		/>
	<path d="M3,10.5c-1.654,0-3-1.346-3-3s1.346-3,3-3h1.149l3.525-4.23C7.817,0.098,8.027,0,8.25,0h1.786
		c0.401,0,0.776,0.155,1.059,0.437c0.284,0.283,0.44,0.659,0.441,1.059c0,0.233-0.055,0.466-0.159,0.675L10.213,4.5h1.323
		l0.543-1.085C12.207,3.159,12.464,3,12.75,3h2.039c0.401,0,0.777,0.156,1.061,0.439c0.283,0.283,0.439,0.66,0.439,1.061
		c0,0.122-0.015,0.244-0.044,0.361l-0.984,3.935c-0.251,1.003-1.148,1.704-2.182,1.704H3z M3,6C2.173,6,1.5,6.673,1.5,7.5
		S2.173,9,3,9h10.079c0.344,0,0.644-0.234,0.727-0.568l0.983-3.933L13.214,4.5l-0.543,1.086C12.543,5.841,12.286,6,12,6H9
		C8.738,6,8.5,5.867,8.362,5.644c-0.138-0.222-0.15-0.495-0.033-0.73L10.036,1.5l-1.435,0L5.076,5.73C4.933,5.902,4.723,6,4.5,6H3z"
		/>
	<path d="M21.75,9C21.336,9,21,8.664,21,8.25s0.336-0.75,0.75-0.75h1.5C23.664,7.5,24,7.836,24,8.25S23.664,9,23.25,9H21.75z"/>
	<path d="M17.25,9c-0.414,0-0.75-0.336-0.75-0.75s0.336-0.75,0.75-0.75h1.5c0.414,0,0.75,0.336,0.75,0.75S19.164,9,18.75,9H17.25z"
		/>
</g>
</svg>
