<?xml version="1.0" encoding="utf-8"?>
<!-- Generator: Adobe Illustrator 22.1.0, SVG Export Plug-In . SVG Version: 6.00 Build 0)  -->
<svg version="1.1" id="Layer_1" xmlns="http://www.w3.org/2000/svg" xmlns:xlink="http://www.w3.org/1999/xlink" x="0px" y="0px"
	 viewBox="0 0 24 24" style="enable-background:new 0 0 24 24;" xml:space="preserve">
<title>police-man-2</title>
<g>
	<path d="M12.003,15.022c-0.278,0-0.56-0.02-0.838-0.059c-2.638-0.371-4.738-2.471-5.108-5.108C6,9.446,6.286,9.066,6.696,9.008
		c0.035-0.005,0.07-0.007,0.105-0.007c0.371,0,0.69,0.278,0.742,0.646c0.278,1.978,1.853,3.554,3.831,3.831
		c0.208,0.029,0.419,0.044,0.628,0.044c0,0,0,0,0,0c2.23,0,4.145-1.666,4.455-3.875c0.052-0.368,0.371-0.646,0.742-0.646
		c0.035,0,0.07,0.002,0.105,0.007c0.198,0.028,0.374,0.131,0.495,0.291c0.121,0.16,0.172,0.357,0.144,0.556
		C17.529,12.801,14.976,15.022,12.003,15.022z"/>
	<path d="M2.25,24.001c-0.106,0-0.209-0.022-0.307-0.066c-0.181-0.081-0.322-0.228-0.394-0.416
		c-0.072-0.187-0.067-0.391,0.015-0.574c1.819-4.089,5.891-6.746,10.378-6.776c0.017-0.002,0.037-0.003,0.057-0.003
		c0.012,0,0.034,0.001,0.052,0.003c1.591,0.005,3.135,0.335,4.589,0.982c2.586,1.15,4.644,3.208,5.794,5.794
		c0.082,0.183,0.087,0.387,0.015,0.574c-0.072,0.187-0.212,0.335-0.396,0.416c-0.095,0.043-0.198,0.065-0.304,0.065
		c-0.296,0-0.566-0.175-0.686-0.446c-0.999-2.245-2.786-4.033-5.033-5.032c-1.044-0.465-2.147-0.742-3.282-0.826v5.554
		c0,0.414-0.336,0.75-0.75,0.75s-0.75-0.336-0.75-0.75v-5.553c-3.656,0.278-6.819,2.495-8.315,5.858
		C2.815,23.826,2.546,24.001,2.25,24.001z"/>
	<path d="M12,8.247c-1.841,0-3.728-0.083-5.608-0.246c-0.019,0-0.045-0.003-0.067-0.006C4.897,7.869,3.491,7.7,2.136,7.492
		c-0.198-0.03-0.372-0.136-0.491-0.298C1.527,7.033,1.478,6.835,1.509,6.637C1.564,6.274,1.882,6,2.248,6
		c0.039,0,0.078,0.003,0.118,0.01C3.5,6.184,4.668,6.331,5.843,6.445L6.907,2.72c0.458-1.601,1.941-2.719,3.606-2.719h2.975
		c1.665,0,3.148,1.118,3.606,2.719l1.064,3.726c1.175-0.115,2.344-0.261,3.479-0.436C21.674,6.003,21.713,6,21.752,6
		c0.371,0,0.682,0.267,0.739,0.636c0.063,0.409-0.219,0.793-0.627,0.856c-1.351,0.208-2.754,0.376-4.17,0.501
		c-0.007,0.002-0.032,0.004-0.059,0.005C15.747,8.164,13.851,8.247,12,8.247z M7.366,6.575c1.539,0.113,3.095,0.17,4.634,0.17
		s3.095-0.057,4.634-0.17l-0.983-3.443c-0.275-0.96-1.164-1.631-2.163-1.631h-2.975c-0.999,0-1.889,0.671-2.163,1.631L7.366,6.575z"
		/>
	<circle cx="12" cy="3.751" r="1.125"/>
	<path d="M16.125,24.001c-0.414,0-0.75-0.336-0.75-0.75s0.336-0.75,0.75-0.75h1.5c0.414,0,0.75,0.336,0.75,0.75
		s-0.336,0.75-0.75,0.75H16.125z"/>
</g>
</svg>
