<?xml version="1.0" encoding="utf-8"?>
<!-- Generator: Adobe Illustrator 22.1.0, SVG Export Plug-In . SVG Version: 6.00 Build 0)  -->
<svg version="1.1" id="Layer_1" xmlns="http://www.w3.org/2000/svg" xmlns:xlink="http://www.w3.org/1999/xlink" x="0px" y="0px"
	 viewBox="0 0 24 24" style="enable-background:new 0 0 24 24;" xml:space="preserve">
<title>police-hat-6</title>
<g>
	<path d="M21.5,11.25c-0.414,0-0.75-0.336-0.75-0.75V3.2c-0.001-0.302-0.188-0.579-0.469-0.694c-2.626-0.67-5.327-1.01-8.028-1.01
		c-0.164,0-0.329,0.001-0.493,0.004c-0.178-0.003-0.344-0.004-0.51-0.004c-2.704,0-5.407,0.34-8.033,1.01
		C2.939,2.622,2.751,2.899,2.75,3.203V10.5c0,0.414-0.336,0.75-0.75,0.75s-0.75-0.336-0.75-0.75V3.2
		c0.004-0.943,0.599-1.792,1.483-2.115C2.757,1.077,2.779,1.07,2.802,1.064c2.763-0.709,5.607-1.068,8.456-1.068
		c0.168,0,0.336,0.001,0.504,0.004c0.151-0.002,0.314-0.003,0.476-0.003c2.854,0,5.7,0.359,8.46,1.067
		c0.025,0.007,0.046,0.013,0.067,0.021c0.887,0.324,1.483,1.172,1.486,2.113V10.5C22.25,10.914,21.914,11.25,21.5,11.25z"/>
	<path d="M11.75,24c-9.566,0-10.487-7.343-10.495-7.417C1.231,16.371,1.299,16.158,1.442,16C1.583,15.841,1.787,15.75,2,15.75h19.5
		c0.213,0,0.417,0.091,0.559,0.25s0.21,0.371,0.187,0.583C22.237,16.658,21.291,24,11.75,24z M2.939,17.25
		c0.526,1.673,2.402,5.25,8.811,5.25c3.489,0,6.065-1.038,7.658-3.085c0.62-0.797,0.961-1.595,1.145-2.165H2.939z"/>
	<path d="M2,14.25c-0.414,0-0.75-0.336-0.75-0.75S1.587,12.75,2,12.75h19.5c0.414,0,0.75,0.336,0.75,0.75s-0.336,0.75-0.75,0.75H2z"
		/>
	<path d="M11.75,11.25c-0.137,0-0.271-0.037-0.387-0.108c-0.255-0.154-0.498-0.294-0.727-0.427C9.07,9.81,7.843,9.101,7.843,7.007
		V4.5c0-0.414,0.336-0.75,0.75-0.75h6c0.414,0,0.75,0.336,0.75,0.75v2.507c0,1.96-1.13,2.725-2.561,3.695
		c-0.202,0.137-0.398,0.27-0.603,0.413C12.053,11.203,11.905,11.25,11.75,11.25z M9.343,7.007c0,1.229,0.594,1.572,2.031,2.403
		c0.112,0.065,0.228,0.132,0.346,0.201c0.075-0.051,0.149-0.101,0.221-0.15c1.306-0.885,1.902-1.289,1.902-2.453V5.25h-4.5V7.007z"
		/>
</g>
</svg>
