<?xml version="1.0" encoding="utf-8"?>
<!-- Generator: Adobe Illustrator 22.1.0, SVG Export Plug-In . SVG Version: 6.00 Build 0)  -->
<svg version="1.1" id="Layer_1" xmlns="http://www.w3.org/2000/svg" xmlns:xlink="http://www.w3.org/1999/xlink" x="0px" y="0px"
	 viewBox="0 0 24 24" style="enable-background:new 0 0 24 24;" xml:space="preserve">
<title>police-man-3</title>
<g>
	<path d="M12.014,12.275c-3.378,0-7.007-1.199-7.5-3.878C4.507,8.358,4.504,8.334,4.503,8.31C4.501,8.297,4.499,8.274,4.499,8.25
		c0-0.004,0-0.009,0-0.015C4.506,2.163,8.377,0,11.999,0c3.622,0,7.495,2.164,7.5,8.238c0,0.036-0.002,0.059-0.005,0.082
		c0,0.014-0.002,0.039-0.007,0.065c-0.001,0.005-0.005,0.024-0.006,0.029C18.991,11.075,15.377,12.274,12.014,12.275L12.014,12.275z
		 M6.413,9c1.003,1.215,3.489,1.775,5.601,1.775c2.102,0,4.575-0.559,5.573-1.775H6.413z M17.974,7.5c-0.258-3.766-2.47-6-5.975-6
		c-3.505,0-5.716,2.234-5.975,6H17.974z"/>
	<circle cx="11.999" cy="5.496" r="1.125"/>
	<path d="M11.991,16.498c-1.229,0-2.412-0.372-3.422-1.075c-0.585-0.407-1.088-0.91-1.495-1.495
		c-0.236-0.34-0.152-0.808,0.187-1.044c0.126-0.088,0.274-0.134,0.428-0.134c0.245,0,0.476,0.12,0.616,0.321
		c0.305,0.438,0.682,0.816,1.121,1.122c0.757,0.527,1.644,0.805,2.565,0.805c1.477,0,2.86-0.72,3.701-1.927
		c0.14-0.201,0.37-0.322,0.615-0.322c0.154,0,0.302,0.047,0.429,0.135c0.164,0.114,0.274,0.286,0.309,0.483
		s-0.009,0.396-0.123,0.561C15.803,15.538,13.959,16.498,11.991,16.498z"/>
	<path d="M20.999,24c-0.259,0-0.496-0.13-0.634-0.348c-0.777-1.226-1.836-2.284-3.061-3.061c-1.372-0.87-2.939-1.387-4.556-1.508
		v4.167c0,0.414-0.336,0.75-0.75,0.75s-0.75-0.336-0.75-0.75v-4.166c-3.116,0.24-5.942,1.927-7.617,4.568
		C3.494,23.87,3.257,24,2.999,24c-0.142,0-0.281-0.04-0.401-0.117c-0.169-0.107-0.286-0.274-0.33-0.469
		c-0.044-0.195-0.009-0.396,0.099-0.565c2.078-3.277,5.642-5.253,9.538-5.292c0.031-0.004,0.063-0.007,0.095-0.007
		c0.029,0,0.057,0.002,0.085,0.006c2.137,0.012,4.219,0.624,6.024,1.768c1.41,0.894,2.629,2.113,3.524,3.524
		c0.221,0.35,0.117,0.814-0.231,1.035C21.281,23.96,21.142,24,20.999,24z"/>
	<path d="M15.749,24c-0.414,0-0.75-0.336-0.75-0.75s0.336-0.75,0.75-0.75h1.5c0.414,0,0.75,0.336,0.75,0.75S17.663,24,17.249,24
		H15.749z"/>
</g>
</svg>
