<?xml version="1.0" encoding="utf-8"?>
<!-- Generator: Adobe Illustrator 22.1.0, SVG Export Plug-In . SVG Version: 6.00 Build 0)  -->
<svg version="1.1" id="Layer_1" xmlns="http://www.w3.org/2000/svg" xmlns:xlink="http://www.w3.org/1999/xlink" x="0px" y="0px"
	 viewBox="0 0 24 24" style="enable-background:new 0 0 24 24;" xml:space="preserve">
<title>police-hat-7</title>
<g>
	<path d="M11.872,21c-2.779,0-5.566-0.302-8.281-0.896C2,19.715,0.828,18.37,0.667,16.754l-0.633-6.328
		C0.011,10.204,0,9.977,0,9.751c0-3.722,3.028-6.75,6.75-6.75h10.5c0.223,0,0.448,0.011,0.67,0.033
		c1.794,0.179,3.411,1.046,4.553,2.441c1.142,1.395,1.672,3.152,1.493,4.946l-0.633,6.328c-0.16,1.611-1.325,2.955-2.897,3.344
		c-0.019,0.005-0.042,0.01-0.065,0.014C17.672,20.698,14.887,21,12.113,21H11.872z M4.5,18.76c2.429,0.491,4.908,0.74,7.374,0.74
		h0.232c2.47,0,4.956-0.25,7.394-0.744V14.25c0-1.241-1.009-2.25-2.25-2.25H6.75C5.51,12,4.5,13.01,4.5,14.25V18.76z M6.75,4.501
		c-2.895,0-5.25,2.355-5.25,5.25c0,0.175,0.009,0.351,0.026,0.525l0.633,6.328c0.062,0.619,0.37,1.182,0.841,1.57V14.25
		c0-2.068,1.682-3.75,3.75-3.75h10.5c2.068,0,3.75,1.682,3.75,3.75v3.922c0.47-0.387,0.779-0.951,0.841-1.572l0.633-6.328
		c0.139-1.395-0.273-2.761-1.162-3.846c-0.888-1.085-2.146-1.76-3.541-1.899c-0.173-0.017-0.348-0.026-0.521-0.026H6.75z"/>
	<path d="M12,18c-2.173,0-3.75-0.946-3.75-2.25C8.25,15.337,8.587,15,9,15s0.75,0.336,0.75,0.75c0,0.187,0.798,0.75,2.25,0.75
		c1.452,0,2.25-0.563,2.25-0.75c0-0.414,0.336-0.75,0.75-0.75s0.75,0.336,0.75,0.75C15.75,17.054,14.173,18,12,18z"/>
</g>
</svg>
