<?xml version="1.0" encoding="utf-8"?>
<!-- Generator: Adobe Illustrator 22.1.0, SVG Export Plug-In . SVG Version: 6.00 Build 0)  -->
<svg version="1.1" id="Regular" xmlns="http://www.w3.org/2000/svg" xmlns:xlink="http://www.w3.org/1999/xlink" x="0px" y="0px"
	 viewBox="0 0 24 24" style="enable-background:new 0 0 24 24;" xml:space="preserve">
<title>pollution-drop-skull</title>
<g>
	<path d="M9,19.5c-0.414,0-0.75-0.336-0.75-0.75v-2.263c-1.5-0.912-1.5-2.495-1.5-3.362C6.75,10.85,9.105,9,12,9
		c2.895,0,5.25,1.85,5.25,4.125c0,0.867,0,2.45-1.5,3.362v2.263c0,0.414-0.336,0.75-0.75,0.75H9z M14.25,18v-1.968
		c0-0.298,0.177-0.568,0.45-0.687c0.805-0.351,1.05-0.87,1.05-2.22c0-1.447-1.682-2.625-3.75-2.625c-2.068,0-3.75,1.178-3.75,2.625
		c0,1.35,0.245,1.868,1.05,2.219c0.273,0.12,0.45,0.39,0.45,0.688V18h1.5v-1.5c0-0.414,0.336-0.75,0.75-0.75s0.75,0.336,0.75,0.75
		V18H14.25z"/>
	<path d="M10.5,14.625c-0.044,0-0.088-0.004-0.13-0.011c-0.513-0.06-0.923-0.47-0.983-0.982c-0.008-0.043-0.011-0.087-0.011-0.131
		s0.004-0.088,0.011-0.131c0.06-0.513,0.47-0.922,0.983-0.983c0.042-0.007,0.086-0.011,0.13-0.011s0.088,0.004,0.13,0.011
		c0.513,0.061,0.923,0.47,0.983,0.983c0.008,0.043,0.011,0.087,0.011,0.131s-0.004,0.088-0.011,0.131
		c-0.06,0.513-0.47,0.922-0.983,0.982C10.588,14.621,10.544,14.625,10.5,14.625z"/>
	<path d="M13.5,14.625c-0.044,0-0.088-0.004-0.13-0.011c-0.513-0.06-0.923-0.47-0.983-0.983c-0.007-0.042-0.011-0.086-0.011-0.13
		s0.004-0.088,0.011-0.131c0.06-0.513,0.47-0.923,0.983-0.983c0.042-0.008,0.086-0.011,0.131-0.011s0.088,0.004,0.131,0.011
		c0.513,0.06,0.923,0.47,0.983,0.983c0.008,0.042,0.011,0.086,0.011,0.131s-0.004,0.088-0.011,0.131
		c-0.06,0.513-0.47,0.923-0.983,0.983C13.588,14.621,13.544,14.625,13.5,14.625z"/>
	<path d="M12,24c-5.376,0-9.75-4.374-9.75-9.75c0-3.968,5.062-10.163,8.08-13.503c0.401-0.446,0.953-0.709,1.554-0.74
		c0.04-0.002,0.081-0.003,0.121-0.003c0.555,0,1.088,0.205,1.502,0.578c0.058,0.052,0.114,0.108,0.167,0.167
		c3.016,3.339,8.077,9.534,8.077,13.501C21.75,19.626,17.376,24,12,24z M11.963,1.505c-0.201,0.01-0.385,0.098-0.519,0.247
		C9.13,4.312,3.75,10.655,3.75,14.25c0,4.549,3.701,8.25,8.25,8.25s8.25-3.701,8.25-8.25c0-3.594-5.379-9.937-7.692-12.497
		c-0.018-0.02-0.036-0.038-0.055-0.056c-0.14-0.126-0.313-0.193-0.501-0.193L11.963,1.505z"/>
</g>
</svg>
