<?xml version="1.0" encoding="utf-8"?>
<!-- Generator: Adobe Illustrator 22.1.0, SVG Export Plug-In . SVG Version: 6.00 Build 0)  -->
<svg version="1.1" id="Regular" xmlns="http://www.w3.org/2000/svg" xmlns:xlink="http://www.w3.org/1999/xlink" x="0px" y="0px"
	 viewBox="0 0 24 24" style="enable-background:new 0 0 24 24;" xml:space="preserve">
<title>pollution-fish</title>
<g>
	<path d="M16.229,24c-0.414,0-0.75-0.336-0.75-0.75c0-0.991,0.02-1.92,0.039-2.819c0,0,0.015-0.715,0.021-1.011
		c-3.446-0.168-6.782-0.64-9.776-3.636C3.015,13.037,1.765,9.111,2.418,5.281c0.053-0.313,0.3-0.56,0.613-0.613
		c0.662-0.113,1.339-0.17,2.011-0.17c3.164,0,6.26,1.281,8.494,3.515c3.173,3.173,3.513,6.4,3.517,9.965
		c0.245,0.008,0.848,0.025,0.848,0.025c0.913,0.026,1.836,0.053,2.816,0.102c0.2,0.01,0.384,0.097,0.519,0.246
		c0.135,0.148,0.203,0.341,0.193,0.541c-0.02,0.4-0.354,0.712-0.758,0.712c0,0-0.022,0-0.028,0
		c-0.977-0.049-1.896-0.075-2.784-0.101c-0.282-0.008-0.554-0.016-0.819-0.024c-0.006,0.316-0.021,1.016-0.021,1.016
		c-0.019,0.881-0.038,1.792-0.038,2.755C16.979,23.664,16.643,24,16.229,24z M3.819,6.069c-0.372,3.173,0.74,6.39,3.004,8.655
		c2.395,2.396,4.942,3.002,8.728,3.196c-0.02-3.766-0.558-6.328-3.076-8.846c-1.955-1.955-4.664-3.076-7.433-3.076
		C4.635,5.997,4.225,6.022,3.819,6.069z"/>
	<path d="M8.027,11.379c-0.414,0-0.75-0.336-0.75-0.75v-0.493H6.784c-0.414,0-0.75-0.336-0.75-0.75s0.336-0.75,0.75-0.75h0.493
		V8.142c0-0.414,0.336-0.75,0.75-0.75s0.75,0.336,0.75,0.75v0.494h0.494c0.414,0,0.75,0.336,0.75,0.75s-0.336,0.75-0.75,0.75H8.777
		v0.493C8.777,11.043,8.441,11.379,8.027,11.379z"/>
	<path d="M22.565,3.043c-1.37,0-2.704-0.454-3.79-1.284C17.82,2.551,16.627,2.989,15.381,3C14.137,2.989,12.951,2.558,12,1.779
		C11.05,2.558,9.866,2.989,8.632,3C7.376,2.989,6.18,2.551,5.225,1.759c-1.086,0.83-2.42,1.284-3.791,1.284
		c-0.258,0-0.519-0.016-0.777-0.048c-0.41-0.051-0.703-0.426-0.652-0.836C0.052,1.783,0.372,1.5,0.748,1.5
		c0.031,0,0.063,0.002,0.095,0.006c0.195,0.024,0.393,0.036,0.59,0.036c1.234,0,2.405-0.473,3.297-1.332C4.87,0.075,5.057,0,5.257,0
		c0.217,0.006,0.41,0.095,0.546,0.243C6.528,1.033,7.559,1.491,8.632,1.5c1.062-0.009,2.091-0.468,2.816-1.257
		C11.586,0.092,11.787,0.005,12,0.005c0.213,0,0.414,0.087,0.553,0.238c0.726,0.79,1.757,1.248,2.829,1.257
		c1.062-0.009,2.091-0.468,2.816-1.257c0.135-0.148,0.328-0.236,0.529-0.242c0,0,0.001,0,0.002,0c0.218,0,0.402,0.075,0.542,0.209
		c0.892,0.859,2.062,1.333,3.295,1.333c0.197,0,0.396-0.012,0.593-0.037C23.189,1.502,23.22,1.5,23.251,1.5
		c0.377,0,0.697,0.283,0.743,0.658c0.025,0.198-0.029,0.395-0.153,0.553c-0.123,0.158-0.301,0.258-0.499,0.283
		C23.085,3.026,22.823,3.043,22.565,3.043z"/>
</g>
</svg>
