<?xml version="1.0" encoding="utf-8"?>
<!-- Generator: Adobe Illustrator 22.1.0, SVG Export Plug-In . SVG Version: 6.00 Build 0)  -->
<svg version="1.1" id="Regular" xmlns="http://www.w3.org/2000/svg" xmlns:xlink="http://www.w3.org/1999/xlink" x="0px" y="0px"
	 viewBox="0 0 24 24" style="enable-background:new 0 0 24 24;" xml:space="preserve">
<title>pollution-skull-1</title>
<g>
	<path d="M12,23.25C5.797,23.25,0.75,18.203,0.75,12C0.75,5.797,5.797,0.75,12,0.75c6.203,0,11.25,5.047,11.25,11.25
		C23.25,18.203,18.203,23.25,12,23.25z M12,2.25c-5.376,0-9.75,4.374-9.75,9.75s4.374,9.75,9.75,9.75s9.75-4.374,9.75-9.75
		S17.376,2.25,12,2.25z"/>
	<path d="M9,17.25c-0.414,0-0.75-0.336-0.75-0.75v-2.263c-1.5-0.912-1.5-2.495-1.5-3.362C6.75,8.6,9.105,6.75,12,6.75
		c2.895,0,5.25,1.85,5.25,4.125c0,0.868,0,2.454-1.5,3.363V16.5c0,0.414-0.336,0.75-0.75,0.75H9z M14.25,15.75v-1.968
		c0-0.299,0.177-0.569,0.451-0.688c0.804-0.349,1.049-0.868,1.049-2.219c0-1.447-1.682-2.625-3.75-2.625
		c-2.068,0-3.75,1.178-3.75,2.625c0,1.35,0.245,1.868,1.05,2.219c0.273,0.12,0.45,0.39,0.45,0.688v1.968h1.5v-1.5
		c0-0.414,0.336-0.75,0.75-0.75s0.75,0.336,0.75,0.75v1.5H14.25z"/>
	<path d="M10.5,12.375c-0.044,0-0.088-0.004-0.131-0.011c-0.513-0.061-0.922-0.47-0.982-0.982c-0.008-0.043-0.012-0.087-0.012-0.131
		s0.004-0.088,0.012-0.131c0.06-0.513,0.47-0.922,0.982-0.982c0.043-0.008,0.087-0.012,0.131-0.012s0.088,0.004,0.131,0.012
		c0.513,0.06,0.922,0.47,0.982,0.982c0.008,0.043,0.012,0.087,0.012,0.131s-0.004,0.088-0.012,0.131
		c-0.06,0.513-0.47,0.922-0.982,0.982C10.588,12.371,10.544,12.375,10.5,12.375z"/>
	<path d="M13.5,12.375c-0.044,0-0.088-0.004-0.131-0.011c-0.513-0.061-0.922-0.47-0.982-0.983c-0.008-0.042-0.011-0.086-0.011-0.13
		s0.004-0.088,0.011-0.13c0.06-0.513,0.47-0.923,0.982-0.983c0.043-0.008,0.087-0.011,0.131-0.011s0.088,0.004,0.131,0.011
		c0.513,0.06,0.922,0.47,0.983,0.983c0.007,0.042,0.011,0.086,0.011,0.13s-0.004,0.088-0.011,0.13
		c-0.061,0.513-0.47,0.922-0.983,0.983C13.588,12.371,13.544,12.375,13.5,12.375z"/>
</g>
</svg>
