<?xml version="1.0" encoding="utf-8"?>
<!-- Generator: Adobe Illustrator 22.1.0, SVG Export Plug-In . SVG Version: 6.00 Build 0)  -->
<svg version="1.1" id="Regular" xmlns="http://www.w3.org/2000/svg" xmlns:xlink="http://www.w3.org/1999/xlink" x="0px" y="0px"
	 viewBox="0 0 24 24" style="enable-background:new 0 0 24 24;" xml:space="preserve">
<title>pool-player</title>
<g>
	<path d="M12.75,6.748c-1.861,0-3.375-1.514-3.375-3.375s1.514-3.375,3.375-3.375c1.861,0,3.375,1.514,3.375,3.375
		S14.611,6.748,12.75,6.748z M12.75,1.498c-1.034,0-1.875,0.841-1.875,1.875s0.841,1.875,1.875,1.875s1.875-0.841,1.875-1.875
		S13.784,1.498,12.75,1.498z"/>
	<path d="M7.484,24.028c-0.305,0-0.602-0.061-0.884-0.182c-1.141-0.488-1.671-1.813-1.183-2.954
		c0.013-0.031,0.028-0.064,0.044-0.095l2.791-6.14c0.121-0.267,0.39-0.439,0.683-0.439c0.108,0,0.212,0.023,0.31,0.067
		c0.376,0.171,0.543,0.616,0.372,0.993l-2.819,6.201c-0.08,0.188-0.083,0.392-0.008,0.578c0.074,0.186,0.217,0.332,0.4,0.411
		c0.093,0.04,0.192,0.06,0.293,0.06c0.302,0,0.573-0.178,0.691-0.454l2.392-5.26c0.121-0.267,0.389-0.439,0.683-0.439
		c0.293,0,0.561,0.173,0.683,0.44l2.412,5.302c0.12,0.248,0.385,0.413,0.672,0.413c0.113,0,0.222-0.025,0.324-0.074
		c0.181-0.087,0.316-0.239,0.382-0.428c0.066-0.189,0.054-0.393-0.033-0.573l-2.807-6.174c-0.171-0.377-0.004-0.822,0.372-0.993
		c0.098-0.045,0.203-0.068,0.311-0.068c0.293,0,0.562,0.173,0.683,0.44l2.8,6.159c0.256,0.53,0.289,1.138,0.09,1.705
		c-0.199,0.567-0.606,1.023-1.146,1.283c-0.307,0.148-0.635,0.223-0.974,0.223c0,0,0,0,0,0c-0.86,0-1.656-0.499-2.029-1.272
		c-0.017-0.035-1.738-3.821-1.738-3.821l-1.703,3.744C9.198,23.496,8.387,24.028,7.484,24.028z"/>
	<path d="M22.5,14.247c-0.029,0-0.058-0.001-0.087-0.005L2.946,11.996C2.365,11.983,1.82,11.75,1.409,11.34
		C0.984,10.914,0.75,10.35,0.75,9.749c0-0.601,0.234-1.166,0.659-1.591l1.587-1.588c0.991-0.994,2.306-1.541,3.702-1.541
		c0.691,0,1.367,0.135,2.01,0.401l10.899,4.487c0.382,0.158,0.565,0.597,0.408,0.979c-0.116,0.282-0.388,0.464-0.693,0.464
		c-0.098,0-0.194-0.019-0.285-0.056L8.134,6.816c-0.46-0.191-0.943-0.287-1.436-0.287c-0.996,0-1.934,0.391-2.641,1.1L2.47,9.218
		c-0.142,0.142-0.22,0.33-0.22,0.531c0,0.2,0.078,0.389,0.22,0.53c0.142,0.142,0.33,0.22,0.53,0.22c0.2,0,0.389-0.078,0.53-0.22
		l1.587-1.585c0.426-0.424,0.99-0.658,1.588-0.658c0.295,0,0.583,0.057,0.857,0.17c0.382,0.157,0.565,0.597,0.408,0.979
		C7.855,9.467,7.582,9.65,7.277,9.65c-0.098,0-0.194-0.019-0.285-0.057C6.9,9.555,6.803,9.536,6.705,9.536
		c-0.199,0-0.387,0.078-0.528,0.219l-0.99,0.989l17.4,2.008c0.411,0.047,0.707,0.42,0.659,0.831
		C23.202,13.962,22.881,14.247,22.5,14.247z"/>
</g>
</svg>
