<?xml version="1.0" encoding="utf-8"?>
<!-- Generator: Adobe Illustrator 22.1.0, SVG Export Plug-In . SVG Version: 6.00 Build 0)  -->
<svg version="1.1" id="Regular" xmlns="http://www.w3.org/2000/svg" xmlns:xlink="http://www.w3.org/1999/xlink" x="0px" y="0px"
	 viewBox="0 0 24 24" style="enable-background:new 0 0 24 24;" xml:space="preserve">
<title>pool-ball</title>
<g>
	<path d="M12,15.75c-2.068,0-3.75-1.682-3.75-3.75c0-2.068,1.682-3.75,3.75-3.75c2.068,0,3.75,1.682,3.75,3.75
		C15.75,14.068,14.068,15.75,12,15.75z M12,9.75c-1.241,0-2.25,1.009-2.25,2.25c0,1.241,1.009,2.25,2.25,2.25
		c1.241,0,2.25-1.009,2.25-2.25C14.25,10.759,13.241,9.75,12,9.75z"/>
	<path d="M12,24c-4.093,0-7.862-2.061-10.089-5.515c-0.044-0.052-0.081-0.11-0.109-0.171C0.623,16.416,0,14.234,0,12
		c0-2.234,0.623-4.416,1.801-6.313c0.029-0.062,0.066-0.12,0.11-0.173C4.139,2.061,7.908,0,12,0s7.861,2.061,10.088,5.514
		c0.045,0.053,0.082,0.11,0.111,0.173C23.377,7.584,24,9.766,24,12c0,2.234-0.623,4.416-1.801,6.313
		c-0.029,0.062-0.066,0.12-0.111,0.172C19.861,21.939,16.092,24,12,24z M3.967,18.75C5.956,21.111,8.906,22.5,12,22.5
		c3.094,0,6.044-1.389,8.033-3.75H3.967z M21.09,17.25c0.923-1.592,1.41-3.403,1.41-5.25s-0.487-3.658-1.41-5.25H2.91
		C1.987,8.342,1.5,10.153,1.5,12c0,1.847,0.487,3.658,1.41,5.25H21.09z M20.033,5.25C18.044,2.889,15.094,1.5,12,1.5
		S5.956,2.889,3.967,5.25H20.033z"/>
</g>
</svg>
