<?xml version="1.0" encoding="utf-8"?>
<!-- Generator: Adobe Illustrator 22.1.0, SVG Export Plug-In . SVG Version: 6.00 Build 0)  -->
<svg version="1.1" id="Layer_1" xmlns="http://www.w3.org/2000/svg" xmlns:xlink="http://www.w3.org/1999/xlink" x="0px" y="0px"
	 viewBox="0 0 24 24" style="enable-background:new 0 0 24 24;" xml:space="preserve">
<title>power-tools-electric-saw</title>
<g>
	<path d="M18.07,23.898c-1.001,0-1.942-0.39-2.651-1.097l-5.129-5.13c-0.27-0.237-0.453-0.576-0.498-0.94
		c-0.039-0.311,0.024-0.616,0.178-0.883l-3.45-3.426l-0.959,0.959c-0.142,0.142-0.33,0.22-0.531,0.22c-0.2,0-0.389-0.078-0.53-0.22
		c-0.142-0.141-0.22-0.33-0.22-0.53s0.078-0.389,0.219-0.531l0.955-0.956L3.51,9.433l-0.949,0.948c-0.142,0.142-0.33,0.22-0.53,0.22
		s-0.389-0.078-0.53-0.22c-0.142-0.141-0.22-0.33-0.22-0.53s0.078-0.389,0.22-0.53l0.973-0.973C1.832,7.518,1.503,6.501,1.54,5.445
		C1.572,4.555,1.857,3.717,2.37,3L0.751,1.382c-0.292-0.292-0.292-0.768,0-1.061c0.142-0.142,0.33-0.22,0.531-0.22
		c0.2,0,0.388,0.078,0.53,0.219l1.621,1.62c0.757-0.538,1.67-0.832,2.606-0.832c0.999,0,1.96,0.328,2.742,0.931l0.97-0.969
		c0.142-0.142,0.33-0.22,0.53-0.22s0.389,0.078,0.53,0.22c0.142,0.141,0.22,0.33,0.22,0.53s-0.078,0.389-0.22,0.53L9.867,3.076
		L11.8,5.021l0.95-0.95c0.142-0.142,0.33-0.22,0.53-0.22s0.389,0.078,0.53,0.22c0.142,0.141,0.22,0.33,0.22,0.53
		c0,0.2-0.078,0.389-0.22,0.53l-0.954,0.954l3.428,3.45l1.715-1.714c0.424-0.425,0.989-0.659,1.591-0.659
		c0.601,0,1.166,0.234,1.591,0.658l1.629,1.629c0.425,0.425,0.659,0.99,0.66,1.591c0,0.601-0.234,1.167-0.659,1.591l-1.442,1.442
		l-0.507,0.797l0.595,0.595c1.027,1.026,1.37,2.57,0.875,3.934l-0.737,2.029c-0.186,0.512-0.488,0.987-0.873,1.372
		c-0.708,0.708-1.649,1.099-2.651,1.099H18.07z M16.486,21.746c0.424,0.421,0.986,0.652,1.584,0.652c0.602,0,1.167-0.235,1.591-0.66
		c0.231-0.231,0.413-0.516,0.524-0.824l0.737-2.029c0.297-0.818,0.091-1.744-0.525-2.36l-0.36-0.36L16.486,21.746z M15.4,20.66
		l4.425-6.954l-2.794-2.794c0,0-5.689,5.689-5.689,5.689C11.342,16.601,15.4,20.66,15.4,20.66z M3.661,3.775
		C3.276,4.272,3.062,4.864,3.039,5.498C3.011,6.299,3.296,7.063,3.843,7.649c0.048,0.052,0.098,0.101,0.15,0.15l7.04,6.99
		l4.193-4.193l-3.93-3.955c-0.01-0.008-0.02-0.017-0.028-0.025c-0.009-0.009-0.019-0.02-0.027-0.031c0,0-3.006-3.025-3.009-3.028
		C7.668,2.953,6.867,2.605,6.036,2.605c-0.662,0-1.308,0.222-1.833,0.629C4.171,3.363,4.105,3.481,4.008,3.578
		C3.911,3.675,3.791,3.742,3.661,3.775z M20.781,12.541l0.97-0.97c0.142-0.142,0.22-0.331,0.22-0.531c0-0.2-0.078-0.388-0.22-0.53
		l-1.628-1.628c-0.142-0.141-0.33-0.219-0.531-0.219s-0.389,0.078-0.531,0.219l-0.97,0.97L20.781,12.541z"/>
	<path d="M14.031,17.351c-0.2,0-0.389-0.078-0.53-0.22c-0.292-0.292-0.292-0.768,0-1.061l2.25-2.25c0.142-0.142,0.33-0.22,0.53-0.22
		s0.389,0.078,0.53,0.22c0.292,0.292,0.292,0.768,0,1.061l-2.25,2.25C14.419,17.273,14.231,17.351,14.031,17.351z"/>
</g>
</svg>
