<?xml version="1.0" encoding="utf-8"?>
<!-- Generator: Adobe Illustrator 22.1.0, SVG Export Plug-In . SVG Version: 6.00 Build 0)  -->
<svg version="1.1" id="Layer_1" xmlns="http://www.w3.org/2000/svg" xmlns:xlink="http://www.w3.org/1999/xlink" x="0px" y="0px"
	 viewBox="0 0 24 24" style="enable-background:new 0 0 24 24;" xml:space="preserve">
<title>power-tools-drill</title>
<g>
	<path d="M19.181,22.5c-1.471,0-2.738-1.099-2.946-2.557l-0.601-4.208c-1.642-0.145-3.023-1.362-3.35-3.001L12.135,12H10.75
		c-0.88,0-1.61-0.653-1.732-1.5H6.25c-0.965,0-1.75-0.785-1.75-1.75V7.5H0.75C0.336,7.5,0,7.163,0,6.75S0.336,6,0.75,6H4.5V4.75
		C4.5,3.785,5.285,3,6.25,3h2.768C9.14,2.153,9.87,1.5,10.75,1.5h10.5C22.766,1.5,24,2.733,24,4.25v5c0,1.516-1.234,2.75-2.75,2.75
		h-0.135l1.015,7.102c0.112,0.788-0.089,1.572-0.566,2.208c-0.477,0.636-1.174,1.049-1.961,1.161
		C19.463,22.49,19.321,22.5,19.181,22.5z M17.72,19.732C17.823,20.455,18.451,21,19.181,21c0.07,0,0.141-0.005,0.21-0.015
		c0.391-0.056,0.736-0.26,0.973-0.576c0.237-0.315,0.336-0.705,0.28-1.095L19.6,12h-2.985L17.72,19.732z M13.753,12.44
		c0.173,0.866,0.826,1.532,1.657,1.74L15.099,12h-1.434L13.753,12.44z M10.75,3c-0.138,0-0.25,0.112-0.25,0.25v7
		c0,0.138,0.112,0.25,0.25,0.25h10.5c0.689,0,1.25-0.561,1.25-1.25v-5C22.5,3.561,21.939,3,21.25,3H10.75z M6.25,4.5
		C6.112,4.5,6,4.612,6,4.75v4C6,8.888,6.112,9,6.25,9H9V4.5H6.25z"/>
	<path d="M15.75,6C15.336,6,15,5.663,15,5.25s0.336-0.75,0.75-0.75h3c0.414,0,0.75,0.336,0.75,0.75S19.164,6,18.75,6H15.75z"/>
	<path d="M15.75,9C15.336,9,15,8.663,15,8.25s0.336-0.75,0.75-0.75h3c0.414,0,0.75,0.336,0.75,0.75S19.164,9,18.75,9H15.75z"/>
</g>
</svg>
