<?xml version="1.0" encoding="utf-8"?>
<!-- Generator: Adobe Illustrator 22.1.0, SVG Export Plug-In . SVG Version: 6.00 Build 0)  -->
<svg version="1.1" id="Regular" xmlns="http://www.w3.org/2000/svg" xmlns:xlink="http://www.w3.org/1999/xlink" x="0px" y="0px"
	 viewBox="0 0 24 24" style="enable-background:new 0 0 24 24;" xml:space="preserve">
<title>pregnancy-eggs</title>
<g>
	<path d="M15.746,24.014c-4.549,0-8.25-2.692-8.25-6s3.701-6,8.25-6s8.25,2.692,8.25,6S20.295,24.014,15.746,24.014z M15.746,13.514
		c-3.722,0-6.75,2.019-6.75,4.5s3.028,4.5,6.75,4.5s6.75-2.019,6.75-4.5S19.468,13.514,15.746,13.514z"/>
	<path d="M15.746,21.014c-2.481,0-4.5-1.682-4.5-3.75c0-0.414,0.336-0.75,0.75-0.75s0.75,0.336,0.75,0.75c0,1.241,1.346,2.25,3,2.25
		s3-1.009,3-2.25c0-0.414,0.336-0.75,0.75-0.75s0.75,0.336,0.75,0.75C20.246,19.331,18.227,21.014,15.746,21.014z"/>
	<path d="M5.169,14.038c-1.71,0-3.165-0.618-4.096-1.739c-1.057-1.273-1.351-3.026-0.828-4.937C0.743,5.548,1.93,3.79,3.59,2.412
		c1.829-1.518,4.047-2.388,6.084-2.388c1.71,0,3.165,0.616,4.098,1.735c0.822,0.986,1.186,2.272,1.053,3.718
		c-0.2,2.174-1.534,4.481-3.568,6.169c-1.831,1.52-4.05,2.391-6.087,2.391H5.169z M9.675,1.512c-1.685,0-3.554,0.749-5.127,2.055
		C3.123,4.749,2.109,6.238,1.692,7.758c-0.391,1.425-0.201,2.697,0.535,3.582c0.657,0.792,1.674,1.21,2.942,1.21
		c1.685,0,3.555-0.75,5.13-2.058c1.735-1.44,2.868-3.366,3.032-5.152c0.096-1.041-0.15-1.947-0.712-2.62
		C11.971,1.941,10.925,1.512,9.675,1.512z"/>
	<path d="M6.195,10.52c-1.11,0-2.073-0.426-2.714-1.198C3.218,9.003,3.262,8.53,3.58,8.266c0.135-0.111,0.304-0.172,0.478-0.172
		c0.224,0,0.435,0.099,0.578,0.271c0.353,0.426,0.906,0.661,1.556,0.661c0.741,0,1.539-0.308,2.188-0.846
		C9.109,7.577,9.57,6.766,9.646,5.955C9.698,5.401,9.561,4.91,9.251,4.537C8.987,4.218,9.031,3.744,9.349,3.48
		c0.135-0.112,0.305-0.173,0.479-0.173c0.224,0,0.434,0.099,0.577,0.271c0.562,0.677,0.823,1.57,0.734,2.516
		c-0.113,1.205-0.77,2.386-1.802,3.241C8.414,10.099,7.298,10.52,6.195,10.52L6.195,10.52z"/>
</g>
</svg>
