<?xml version="1.0" encoding="utf-8"?>
<!-- Generator: Adobe Illustrator 22.1.0, SVG Export Plug-In . SVG Version: 6.00 Build 0)  -->
<svg version="1.1" id="Regular" xmlns="http://www.w3.org/2000/svg" xmlns:xlink="http://www.w3.org/1999/xlink" x="0px" y="0px"
	 viewBox="0 0 24 24" style="enable-background:new 0 0 24 24;" xml:space="preserve">
<title>pregnancy-ultrasound</title>
<g>
	<path d="M6,23.25c-0.414,0-0.75-0.336-0.75-0.75S5.586,21.75,6,21.75h1.615l0.5-3H3.75C1.682,18.75,0,17.068,0,15V4.5
		c0-2.068,1.682-3.75,3.75-3.75h16.5C22.318,0.75,24,2.432,24,4.5V15c0,2.068-1.682,3.75-3.75,3.75h-4.365l0.5,3H18
		c0.414,0,0.75,0.336,0.75,0.75s-0.336,0.75-0.75,0.75H6z M14.865,21.75l-0.5-3H9.635l-0.5,3H14.865z M1.632,15.75
		c0.313,0.879,1.158,1.5,2.118,1.5h16.5c0.96,0,1.805-0.621,2.118-1.5H1.632z M22.5,14.25V4.5c0-1.241-1.009-2.25-2.25-2.25H3.75
		C2.509,2.25,1.5,3.259,1.5,4.5v9.75H22.5z"/>
	<path d="M12.193,12.298l-0.131,0.001c-2.537,0-5.027-1.006-6.832-2.761C5.086,9.399,5.003,9.205,5.002,9.005
		s0.079-0.395,0.22-0.536l4-4c0.142-0.142,0.33-0.22,0.53-0.22c0.113,0,0.227,0.026,0.329,0.076c0.633,0.309,1.332,0.473,2.02,0.473
		l0.167,0c0.716,0,1.428-0.163,2.06-0.472c0.102-0.05,0.216-0.076,0.329-0.076c0.2,0,0.388,0.078,0.53,0.219l4,4
		c0.141,0.141,0.221,0.336,0.22,0.536c-0.001,0.199-0.084,0.393-0.227,0.532c-1.805,1.755-4.286,2.762-6.807,2.762
		C12.374,12.3,12.253,12.299,12.193,12.298z M12.384,10.8c1.858,0,3.724-0.664,5.18-1.833l-3.076-3.076
		c-0.7,0.267-1.453,0.408-2.194,0.408l-0.171,0c-0.745,0-1.501-0.14-2.201-0.408L6.846,8.967c1.457,1.169,3.326,1.833,5.189,1.833
		c0.05,0,0.163-0.002,0.165-0.002C12.206,10.798,12.328,10.8,12.384,10.8z"/>
</g>
</svg>
