<?xml version="1.0" encoding="utf-8"?>
<!-- Generator: Adobe Illustrator 22.1.0, SVG Export Plug-In . SVG Version: 6.00 Build 0)  -->
<svg version="1.1" id="Layer_1" xmlns="http://www.w3.org/2000/svg" xmlns:xlink="http://www.w3.org/1999/xlink" x="0px" y="0px"
	 viewBox="0 0 24 24" style="enable-background:new 0 0 24 24;" xml:space="preserve">
<title>presentation-projector-screen-image</title>
<g>
	<path d="M0.75,18C0.336,18,0,17.664,0,17.25s0.336-0.75,0.75-0.75H1.5v-12C0.673,4.5,0,3.827,0,3V1.5C0,0.673,0.673,0,1.5,0H21
		c0.827,0,1.5,0.673,1.5,1.5V3c0,0.827-0.673,1.5-1.5,1.5v3.75C21,8.664,20.664,9,20.25,9S19.5,8.664,19.5,8.25V4.5H3v12h5.25
		C8.664,16.5,9,16.836,9,17.25S8.664,18,8.25,18H0.75z M1.5,3H21V1.5H1.5V3z"/>
	<circle cx="15.375" cy="14.625" r="1.125"/>
	<path d="M12.75,24c-1.241,0-2.25-1.01-2.25-2.25v-9c0-1.241,1.009-2.25,2.25-2.25h9c1.241,0,2.25,1.009,2.25,2.25v9
		c0,1.241-1.009,2.25-2.25,2.25H12.75z M21.75,22.5c0.414,0,0.75-0.336,0.75-0.75v-0.523l-2.265-3.398l-2,2.852
		c-0.118,0.168-0.302,0.282-0.507,0.312C17.689,20.998,17.656,21,17.622,21c-0.171,0-0.338-0.058-0.47-0.165l-1.235-0.989
		L14.15,22.5H21.75z M12.75,12C12.336,12,12,12.336,12,12.75v9c0,0.286,0.161,0.538,0.406,0.664l2.262-3.399
		c0.235-0.348,0.604-0.584,1.015-0.65c0.078-0.012,0.155-0.018,0.231-0.018c0.342,0,0.676,0.117,0.941,0.33l0.611,0.489l1.542-2.197
		c0.107-0.153,0.241-0.284,0.398-0.389c0.248-0.165,0.533-0.251,0.827-0.251c0.1,0,0.201,0.01,0.3,0.03
		c0.392,0.079,0.73,0.306,0.952,0.639l1.016,1.525V12.75c0-0.414-0.336-0.75-0.75-0.75H12.75z"/>
</g>
</svg>
