<?xml version="1.0" encoding="utf-8"?>
<!-- Generator: Adobe Illustrator 22.1.0, SVG Export Plug-In . SVG Version: 6.00 Build 0)  -->
<svg version="1.1" id="Layer_1" xmlns="http://www.w3.org/2000/svg" xmlns:xlink="http://www.w3.org/1999/xlink" x="0px" y="0px"
	 viewBox="0 0 24 24" style="enable-background:new 0 0 24 24;" xml:space="preserve">
<title>presentation-projector-screen-hierarchy</title>
<g>
	<path d="M13.5,23c-0.414,0-0.75-0.336-0.75-0.75C12.724,22.193,12.458,22,12,22s-0.724,0.193-0.753,0.27
		C11.25,22.664,10.914,23,10.5,23s-0.75-0.336-0.75-0.75c0-0.77,0.602-1.418,1.5-1.655V19H1.5c-0.414,0-0.75-0.336-0.75-0.75
		S1.086,17.5,1.5,17.5h0.75v-12c-0.827,0-1.5-0.673-1.5-1.5V2.5c0-0.827,0.673-1.5,1.5-1.5h19.5c0.827,0,1.5,0.673,1.5,1.5V4
		c0,0.827-0.673,1.5-1.5,1.5v12h0.75c0.414,0,0.75,0.336,0.75,0.75S22.914,19,22.5,19h-9.75v1.595c0.898,0.237,1.5,0.885,1.5,1.655
		C14.25,22.664,13.914,23,13.5,23z M20.25,17.5v-12H3.75v12H20.25z M2.25,4h19.5V2.5H2.25V4z"/>
	<path d="M15.75,16c-0.96,0-1.808-0.615-2.121-1.5h-3.257C10.058,15.385,9.21,16,8.25,16C7.009,16,6,14.991,6,13.75
		s1.009-2.25,2.25-2.25c0.212,0,0.42,0.03,0.622,0.088l1.286-1.8C9.893,9.411,9.75,8.964,9.75,8.5c0-1.241,1.009-2.25,2.25-2.25
		c1.241,0,2.25,1.009,2.25,2.25c0,0.464-0.143,0.911-0.408,1.288l1.286,1.8c0.202-0.059,0.41-0.088,0.622-0.088
		c1.241,0,2.25,1.009,2.25,2.25S16.991,16,15.75,16z M15.75,13C15.336,13,15,13.336,15,13.75s0.336,0.75,0.75,0.75
		s0.75-0.336,0.75-0.75S16.164,13,15.75,13z M8.25,13c-0.414,0-0.75,0.336-0.75,0.75s0.336,0.75,0.75,0.75S9,14.164,9,13.75
		S8.664,13,8.25,13z M13.629,13c0.068-0.19,0.162-0.372,0.279-0.538l-1.286-1.8C12.42,10.72,12.212,10.75,12,10.75
		c-0.212,0-0.421-0.03-0.623-0.089l-1.286,1.8c0.117,0.167,0.211,0.348,0.279,0.539H13.629z M12,7.75c-0.414,0-0.75,0.336-0.75,0.75
		S11.586,9.25,12,9.25s0.75-0.336,0.75-0.75S12.414,7.75,12,7.75z"/>
</g>
</svg>
