<?xml version="1.0" encoding="utf-8"?>
<!-- Generator: Adobe Illustrator 22.1.0, SVG Export Plug-In . SVG Version: 6.00 Build 0)  -->
<svg version="1.1" id="Layer_1" xmlns="http://www.w3.org/2000/svg" xmlns:xlink="http://www.w3.org/1999/xlink" x="0px" y="0px"
	 viewBox="0 0 24 24" style="enable-background:new 0 0 24 24;" xml:space="preserve">
<title>presentation-microphone-1</title>
<g>
	<path d="M13.667,23.25c-0.414,0-0.75-0.336-0.75-0.75v-8.25h-1.5v8.25c0,0.414-0.336,0.75-0.75,0.75s-0.75-0.336-0.75-0.75v-5.25
		h-2.71c-0.937,0-1.783-0.587-2.11-1.461l-1.5-4.013c-0.14-0.375-0.126-0.782,0.04-1.147c0.147-0.324,0.399-0.579,0.716-0.731
		L4.209,9.538c-0.712-1.781-0.07-3.847,1.526-4.912C5.859,4.544,6.003,4.5,6.151,4.5c0.251,0,0.485,0.125,0.624,0.333
		c0.229,0.344,0.136,0.811-0.207,1.04c-1.01,0.674-1.417,1.981-0.966,3.109L5.908,9.75h5.509V8.152
		c-1.303-0.338-2.25-1.532-2.25-2.902v-1.5c0-1.654,1.346-3,3-3s3,1.346,3,3v1.5c0,1.369-0.947,2.564-2.25,2.901V9.75h5.49
		l0.311-0.77c0.45-1.126,0.044-2.433-0.967-3.106c-0.167-0.111-0.28-0.28-0.32-0.477c-0.039-0.196,0-0.396,0.112-0.563
		C17.683,4.625,17.916,4.5,18.168,4.5c0.148,0,0.292,0.043,0.415,0.126c1.598,1.065,2.24,3.131,1.526,4.914l-0.142,0.353
		c0.159,0.073,0.303,0.173,0.428,0.298c0.282,0.283,0.438,0.66,0.438,1.06c-0.001,0.183-0.033,0.36-0.096,0.527l-1.499,4.01
		c-0.326,0.871-1.17,1.458-2.1,1.461h-2.72v5.25C14.417,22.914,14.081,23.25,13.667,23.25z M17.135,15.75
		c0.308-0.001,0.589-0.197,0.698-0.487l1.5-4.012l-14.333,0l1.503,4.013c0.109,0.291,0.391,0.487,0.702,0.487h2.714v-1.5
		c0-0.827,0.673-1.5,1.5-1.5h1.5c0.827,0,1.5,0.673,1.5,1.5v1.5H17.135z M12.167,2.25c-0.827,0-1.5,0.673-1.5,1.5v1.5
		c0,0.827,0.673,1.5,1.5,1.5c0.827,0,1.5-0.673,1.5-1.5v-1.5C13.667,2.923,12.994,2.25,12.167,2.25z"/>
</g>
</svg>
