<?xml version="1.0" encoding="utf-8"?>
<!-- Generator: Adobe Illustrator 22.1.0, SVG Export Plug-In . SVG Version: 6.00 Build 0)  -->
<svg version="1.1" id="Layer_1" xmlns="http://www.w3.org/2000/svg" xmlns:xlink="http://www.w3.org/1999/xlink" x="0px" y="0px"
	 viewBox="0 0 24 24" style="enable-background:new 0 0 24 24;" xml:space="preserve">
<title>presentation-projector-screen-bars</title>
<g>
	<path d="M13.5,23.25c-0.414,0-0.75-0.336-0.75-0.75c-0.026-0.057-0.292-0.25-0.75-0.25s-0.724,0.193-0.753,0.27
		c0.003,0.394-0.334,0.73-0.747,0.73s-0.75-0.336-0.75-0.75c0-0.77,0.602-1.418,1.5-1.655V18.75H1.5c-0.414,0-0.75-0.336-0.75-0.75
		s0.336-0.75,0.75-0.75h0.75v-12c-0.827,0-1.5-0.673-1.5-1.5v-1.5c0-0.827,0.673-1.5,1.5-1.5h19.5c0.827,0,1.5,0.673,1.5,1.5v1.5
		c0,0.827-0.673,1.5-1.5,1.5v12h0.75c0.414,0,0.75,0.336,0.75,0.75s-0.336,0.75-0.75,0.75h-9.75v2.095
		c0.898,0.237,1.5,0.885,1.5,1.655C14.25,22.914,13.914,23.25,13.5,23.25z M20.25,17.25v-12H3.75v12H20.25z M2.25,3.75h19.5v-1.5
		H2.25V3.75z"/>
	<path d="M7.5,15.75c-0.414,0-0.75-0.336-0.75-0.75s0.336-0.75,0.75-0.75h0.75V12c0-0.414,0.336-0.75,0.75-0.75S9.75,11.586,9.75,12
		v2.25h1.5v-4.5C11.25,9.336,11.586,9,12,9s0.75,0.336,0.75,0.75v4.5h1.5V7.5c0-0.414,0.336-0.75,0.75-0.75s0.75,0.336,0.75,0.75
		v6.75h0.75c0.414,0,0.75,0.336,0.75,0.75s-0.336,0.75-0.75,0.75H7.5z"/>
</g>
</svg>
