<?xml version="1.0" encoding="utf-8"?>
<!-- Generator: Adobe Illustrator 22.1.0, SVG Export Plug-In . SVG Version: 6.00 Build 0)  -->
<svg version="1.1" id="Layer_1" xmlns="http://www.w3.org/2000/svg" xmlns:xlink="http://www.w3.org/1999/xlink" x="0px" y="0px"
	 viewBox="0 0 24 24" style="enable-background:new 0 0 24 24;" xml:space="preserve">
<title>presentation-board</title>
<g>
	<path d="M18,24c-0.2,0-0.389-0.078-0.53-0.22l-4.72-4.72v4.189c0,0.414-0.336,0.75-0.75,0.75s-0.75-0.336-0.75-0.75v-4.189
		l-4.72,4.72C6.389,23.922,6.2,24,6,24s-0.389-0.078-0.53-0.22c-0.142-0.142-0.22-0.33-0.22-0.53s0.078-0.389,0.22-0.53l4.72-4.72H3
		c-1.241,0-2.25-1.009-2.25-2.25V2.25C0.75,1.009,1.759,0,3,0h18c1.241,0,2.25,1.009,2.25,2.25v13.5c0,1.241-1.009,2.25-2.25,2.25
		h-7.189l4.72,4.72c0.142,0.142,0.22,0.33,0.22,0.53s-0.078,0.389-0.22,0.53S18.2,24,18,24z M2.25,15.75
		c0,0.414,0.336,0.75,0.75,0.75h18c0.414,0,0.75-0.336,0.75-0.75V6H2.25V15.75z M21.75,4.5V2.25c0-0.414-0.336-0.75-0.75-0.75H3
		c-0.414,0-0.75,0.336-0.75,0.75V4.5H21.75z"/>
</g>
</svg>
