<?xml version="1.0" encoding="utf-8"?>
<!-- Generator: Adobe Illustrator 22.1.0, SVG Export Plug-In . SVG Version: 6.00 Build 0)  -->
<svg version="1.1" id="Layer_1" xmlns="http://www.w3.org/2000/svg" xmlns:xlink="http://www.w3.org/1999/xlink" x="0px" y="0px"
	 viewBox="0 0 24 24" style="enable-background:new 0 0 24 24;" xml:space="preserve">
<title>primitive-symbols-man</title>
<g>
	<path d="M6,24c-0.2,0-0.389-0.078-0.53-0.22c-0.292-0.292-0.292-0.768,0-1.061l5.78-5.78V13.5h-3c-2.068,0-3.75-1.682-3.75-3.75v-3
		C4.5,6.336,4.836,6,5.25,6S6,6.336,6,6.75v3C6,10.991,7.009,12,8.25,12h3v-1.575C9.09,10.006,7.5,7.847,7.5,5.25
		C7.5,2.355,9.519,0,12,0c2.481,0,4.5,2.355,4.5,5.25c0,2.597-1.59,4.756-3.75,5.175V12h3C16.991,12,18,10.991,18,9.75v-3
		C18,6.336,18.336,6,18.75,6s0.75,0.336,0.75,0.75v3c0,2.068-1.682,3.75-3.75,3.75h-3v3.439l5.78,5.78
		c0.292,0.292,0.292,0.768,0,1.061C18.389,23.922,18.2,24,18,24s-0.389-0.078-0.53-0.22L12,18.311l-5.47,5.47
		C6.389,23.922,6.2,24,6,24z M12,1.5c-1.654,0-3,1.682-3,3.75S10.346,9,12,9c1.654,0,3-1.682,3-3.75S13.654,1.5,12,1.5z"/>
</g>
</svg>
