<?xml version="1.0" encoding="utf-8"?>
<!-- Generator: Adobe Illustrator 22.1.0, SVG Export Plug-In . SVG Version: 6.00 Build 0)  -->
<svg version="1.1" id="Layer_1" xmlns="http://www.w3.org/2000/svg" xmlns:xlink="http://www.w3.org/1999/xlink" x="0px" y="0px"
	 viewBox="0 0 24 24" style="enable-background:new 0 0 24 24;" xml:space="preserve">
<title>primitive-symbols-bull</title>
<g>
	<path d="M22.273,21.25c-0.414,0-0.75-0.336-0.75-0.75v-2.758l-1.193-2.385l-0.143,0.088l0.317,1.25
		c0.081,0.323,0.032,0.657-0.138,0.941l-1.363,2.271c-0.135,0.225-0.381,0.364-0.643,0.364c-0.136,0-0.27-0.037-0.386-0.107
		c-0.171-0.102-0.292-0.266-0.341-0.461c-0.049-0.194-0.018-0.396,0.085-0.568l1.306-2.178l-0.175-0.689l-0.27,0.166
		c-0.963,0.593-2.069,0.906-3.199,0.906h-3.63c-0.344,0-0.689-0.038-1.03-0.114l-0.421,3.366c-0.047,0.374-0.366,0.657-0.744,0.657
		c-0.031,0-0.062-0.002-0.093-0.006c-0.199-0.025-0.376-0.125-0.499-0.284c-0.123-0.158-0.177-0.355-0.152-0.554l0.469-3.748
		c-0.357-0.211-0.683-0.465-0.974-0.758l-2.039,3.057c-0.139,0.209-0.373,0.334-0.624,0.334c-0.149,0-0.293-0.044-0.416-0.126
		c-0.343-0.229-0.437-0.696-0.207-1.04l2.358-3.536c-0.124-0.254-0.224-0.514-0.299-0.774l-0.376-1.319l-0.898,0.713
		c-0.339,0.272-0.766,0.423-1.201,0.423c-0.209,0-0.417-0.034-0.616-0.101C2.977,13.195,2.432,12.1,2.77,11.091l0.566-1.699
		C1.857,9.054,0.625,8.015,0.055,6.594C-0.02,6.408-0.018,6.204,0.061,6.02C0.14,5.836,0.286,5.693,0.472,5.619
		C0.56,5.583,0.655,5.564,0.751,5.564c0.308,0,0.581,0.185,0.696,0.471c0.454,1.132,1.51,1.891,2.719,1.968
		C4.755,7.414,5.547,7.067,6.38,7.035C6.267,6.274,5.703,5.634,4.933,5.444L1.547,4.597c-0.194-0.048-0.358-0.17-0.461-0.342
		C0.983,4.084,0.952,3.882,1.001,3.688c0.083-0.334,0.382-0.568,0.726-0.568c0.062,0,0.124,0.008,0.184,0.023l3.384,0.846
		c1.561,0.387,2.619,1.768,2.607,3.347c0.072,0.029,0.14,0.059,0.206,0.09c0.59-0.257,1.235-0.393,1.878-0.393
		c0.434,0,0.864,0.06,1.278,0.179c0.002,0.001,1.913,0.552,1.913,0.552c0.588,0.168,1.198,0.254,1.812,0.254
		c0.987-0.006,1.945-0.218,2.845-0.632c0.584-0.234,1.175-0.349,1.774-0.349h0.507c1.34,0,2.608,0.709,3.31,1.849
		c0.544,0.884,0.712,1.928,0.472,2.938s-0.86,1.867-1.744,2.411l-0.541,0.333l1.279,2.559c0.086,0.171,0.131,0.363,0.131,0.554V20.5
		C23.023,20.913,22.686,21.25,22.273,21.25z M6.825,10.835c0.047,0,0.094,0.003,0.141,0.008c0.337,0.037,0.64,0.203,0.852,0.468
		c0.106,0.132,0.184,0.282,0.231,0.445l0.47,1.65c0.41,1.433,1.739,2.435,3.231,2.436h3.629c0.853,0,1.687-0.236,2.414-0.684
		l1.082-0.666c0.037-0.028,0.076-0.052,0.118-0.072l1.187-0.73c0.039-0.03,0.078-0.054,0.119-0.075
		c0.004-0.002,0.008-0.004,0.013-0.006l1.058-0.651c0.543-0.334,0.924-0.86,1.071-1.481c0.147-0.621,0.044-1.262-0.29-1.805
		c-0.431-0.7-1.21-1.136-2.033-1.136H19.61c-0.408,0-0.806,0.077-1.184,0.228C17.36,9.254,16.2,9.51,14.994,9.517
		c-0.757,0-1.507-0.105-2.23-0.312l-1.913-0.552c-0.28-0.08-0.57-0.121-0.862-0.121c-0.539,0-1.071,0.137-1.541,0.396
		C8.338,8.99,8.213,9.022,8.087,9.022c-0.144,0-0.284-0.041-0.405-0.118c-0.359-0.23-0.774-0.359-1.199-0.371
		c-0.76,0-1.444,0.497-1.691,1.235l-0.6,1.8c-0.075,0.225,0.046,0.469,0.27,0.544c0.044,0.015,0.09,0.022,0.137,0.022
		c0.098,0,0.191-0.033,0.268-0.095l1.167-0.927C6.257,10.934,6.538,10.835,6.825,10.835z"/>
</g>
</svg>
