<?xml version="1.0" encoding="utf-8"?>
<!-- Generator: Adobe Illustrator 22.1.0, SVG Export Plug-In . SVG Version: 6.00 Build 0)  -->
<svg version="1.1" id="Layer_1" xmlns="http://www.w3.org/2000/svg" xmlns:xlink="http://www.w3.org/1999/xlink" x="0px" y="0px"
	 viewBox="0 0 24 24" style="enable-background:new 0 0 24 24;" xml:space="preserve">
<title>products-purse-2</title>
<g>
	<path d="M3.932,24C1.764,24,0,22.236,0,20.068v-7.136C0,10.764,1.764,9,3.932,9h16.136C22.236,9,24,10.764,24,12.932v7.136
		C24,22.236,22.236,24,20.068,24H3.932z M20.068,22.5c1.341,0,2.432-1.091,2.432-2.432v-1.223c-0.248-0.065-0.501-0.098-0.756-0.098
		c-0.379,0-0.752,0.072-1.109,0.215c-0.745,0.298-1.328,0.868-1.644,1.605c-0.261,0.611-0.31,1.288-0.143,1.932H20.068z
		 M17.318,22.5c-0.144-0.852-0.043-1.732,0.295-2.522c0.709-1.656,2.335-2.727,4.142-2.727c0.25,0,0.5,0.021,0.746,0.062v-4.382
		c0-1.341-1.091-2.432-2.432-2.432H3.932c-1.341,0-2.432,1.091-2.432,2.432v4.382c0.246-0.042,0.496-0.063,0.746-0.063
		c1.807,0,3.432,1.071,4.141,2.727c0.338,0.79,0.439,1.67,0.295,2.522H17.318z M1.5,20.068c0,1.341,1.091,2.432,2.432,2.432h1.219
		c0.167-0.644,0.119-1.321-0.143-1.932c-0.316-0.737-0.899-1.307-1.644-1.605c-0.356-0.143-0.729-0.215-1.109-0.215
		c-0.255,0-0.508,0.033-0.756,0.098V20.068z"/>
	<path d="M8.25,16.5c-0.414,0-0.75-0.336-0.75-0.75V15H5.25c-0.414,0-0.75-0.336-0.75-0.75s0.336-0.75,0.75-0.75h13.5
		c0.414,0,0.75,0.336,0.75,0.75S19.164,15,18.75,15H9v0.75C9,16.164,8.664,16.5,8.25,16.5z"/>
	<path d="M15.75,7.5C15.336,7.5,15,7.164,15,6.75V4.5c0-1.654-1.346-3-3-3c-1.654,0-3,1.346-3,3v2.25C9,7.164,8.664,7.5,8.25,7.5
		S7.5,7.164,7.5,6.75V4.5C7.5,2.019,9.519,0,12,0c2.481,0,4.5,2.019,4.5,4.5v2.25C16.5,7.164,16.164,7.5,15.75,7.5z"/>
</g>
</svg>
