<?xml version="1.0" encoding="utf-8"?>
<!-- Generator: Adobe Illustrator 22.1.0, SVG Export Plug-In . SVG Version: 6.00 Build 0)  -->
<svg version="1.1" id="Layer_1" xmlns="http://www.w3.org/2000/svg" xmlns:xlink="http://www.w3.org/1999/xlink" x="0px" y="0px"
	 viewBox="0 0 24 24" style="enable-background:new 0 0 24 24;" xml:space="preserve">
<title>professions-woman-doctor-1</title>
<g>
	<path d="M8.388,22.403c-0.414,0-0.75-0.336-0.75-0.75v-0.75h-0.75c-0.414,0-0.75-0.336-0.75-0.75s0.336-0.75,0.75-0.75h0.75v-0.75
		c0-0.414,0.336-0.75,0.75-0.75s0.75,0.336,0.75,0.75v0.75h0.75c0.414,0,0.75,0.336,0.75,0.75s-0.336,0.75-0.75,0.75h-0.75v0.75
		C9.138,22.067,8.802,22.403,8.388,22.403z"/>
	<path d="M12.138,6c-1.654,0-3-1.346-3-3s1.346-3,3-3s3,1.346,3,3S13.792,6,12.138,6z M12.138,1.5c-0.827,0-1.5,0.673-1.5,1.5
		s0.673,1.5,1.5,1.5c0.827,0,1.5-0.673,1.5-1.5S12.965,1.5,12.138,1.5z"/>
	<path d="M2.502,24.001c-0.036,0-0.073-0.003-0.11-0.008c-0.197-0.028-0.372-0.132-0.492-0.293c-0.12-0.16-0.17-0.358-0.141-0.556
		c0.66-4.569,4.312-8.221,8.881-8.881c0.504-0.073,1.016-0.11,1.521-0.11c2.265,0,4.429,0.723,6.258,2.09
		c2.244,1.677,3.7,4.128,4.1,6.901c0.059,0.41-0.226,0.791-0.635,0.85C21.848,23.998,21.811,24,21.776,24
		c-0.37,0-0.689-0.276-0.742-0.643c-0.344-2.376-1.591-4.476-3.514-5.914c-1.148-0.858-2.482-1.429-3.882-1.665v7.472
		c0,0.414-0.336,0.75-0.75,0.75s-0.75-0.336-0.75-0.75v-7.596c-0.431,0-0.864,0.031-1.285,0.092
		c-3.916,0.566-7.045,3.696-7.611,7.611C3.189,23.724,2.871,24.001,2.502,24.001z"/>
	<path d="M20.388,13.5c-0.115,0-0.231-0.027-0.334-0.079c-1.455-0.727-2.282-1.898-2.751-2.957
		c-0.656,1.112-1.651,1.979-2.865,2.483c-0.737,0.305-1.51,0.46-2.297,0.46c-0.787,0-1.559-0.155-2.295-0.459
		c-1.217-0.504-2.213-1.372-2.87-2.487c-0.469,1.061-1.297,2.233-2.752,2.961C4.12,13.473,4.004,13.5,3.888,13.5
		c-0.286,0-0.543-0.159-0.671-0.414c-0.185-0.37-0.034-0.821,0.335-1.006c2.525-1.262,2.585-4.549,2.586-4.582
		c0-0.01,0.001-0.024,0.002-0.038C6.133,6.649,6.286,5.858,6.597,5.107C6.713,4.826,6.985,4.644,7.29,4.644
		c0.099,0,0.195,0.019,0.287,0.057c0.185,0.077,0.329,0.221,0.406,0.406c0.077,0.185,0.077,0.389,0,0.574
		C7.842,6.022,7.744,6.38,7.69,6.75h8.899c-0.053-0.37-0.151-0.728-0.292-1.069c-0.077-0.185-0.077-0.389,0-0.574
		c0.077-0.185,0.221-0.329,0.406-0.406c0.091-0.038,0.188-0.057,0.287-0.057c0.304,0,0.576,0.182,0.693,0.463
		c0.317,0.765,0.47,1.574,0.455,2.405c0.002,0.123,0.071,3.311,2.585,4.568c0.37,0.185,0.52,0.636,0.335,1.006
		C20.931,13.341,20.674,13.5,20.388,13.5z M7.719,8.25c0.058,0.299,0.146,0.592,0.264,0.877c0.46,1.11,1.325,1.975,2.436,2.435
		c0.553,0.229,1.132,0.345,1.722,0.345c0.59,0,1.17-0.116,1.722-0.346c1.111-0.46,1.976-1.325,2.435-2.436
		c0.118-0.284,0.206-0.577,0.263-0.875H7.719z"/>
</g>
</svg>
