<?xml version="1.0" encoding="utf-8"?>
<!-- Generator: Adobe Illustrator 22.1.0, SVG Export Plug-In . SVG Version: 6.00 Build 0)  -->
<svg version="1.1" id="Layer_1" xmlns="http://www.w3.org/2000/svg" xmlns:xlink="http://www.w3.org/1999/xlink" x="0px" y="0px"
	 viewBox="0 0 24 24" style="enable-background:new 0 0 24 24;" xml:space="preserve">
<title>professions-man-clerk</title>
<g>
	<path d="M2.25,23.996c-0.027,0-0.053-0.001-0.081-0.004c-0.411-0.044-0.709-0.414-0.666-0.825c0.439-4.119,3.27-7.607,7.211-8.884
		c0.074-0.024,0.152-0.037,0.231-0.037c0.21,0,0.411,0.089,0.553,0.243l2.447,2.675l2.447-2.675
		c0.142-0.155,0.343-0.244,0.553-0.244c0.079,0,0.157,0.012,0.232,0.037c3.943,1.275,6.774,4.763,7.214,8.884
		c0.044,0.411-0.255,0.781-0.666,0.825c-0.027,0.003-0.054,0.004-0.081,0.004l0,0c-0.384,0-0.704-0.288-0.745-0.67
		c-0.358-3.354-2.598-6.254-5.736-7.457l-2.666,2.914c-0.138,0.151-0.34,0.238-0.553,0.238s-0.415-0.087-0.553-0.238l-2.665-2.914
		c-3.135,1.205-5.375,4.105-5.732,7.457C2.955,23.707,2.634,23.996,2.25,23.996z"/>
	<path d="M11.95,13.496c-3.294,0-5.977-2.668-6-5.957l-0.366-0.05c-0.281-0.039-0.521-0.238-0.61-0.507
		C4.884,6.712,4.958,6.409,5.16,6.21c0.496-0.487,1.034-0.997,1.616-1.452l0.689-3.271c0.052-0.246,0.222-0.449,0.456-0.542
		l0.84-0.336c1.023-0.409,2.095-0.617,3.188-0.617c1.093,0,2.165,0.207,3.188,0.617l0.841,0.336
		c0.234,0.094,0.404,0.297,0.456,0.543l0.653,3.116c0.591,0.42,1.191,0.934,1.875,1.606c0.203,0.199,0.276,0.503,0.186,0.774
		c-0.091,0.271-0.333,0.469-0.616,0.505l-0.581,0.074C17.913,10.841,15.236,13.496,11.95,13.496z M7.457,7.744
		c0.129,2.366,2.095,4.251,4.493,4.251c2.394,0,4.357-1.879,4.493-4.24l-1.355,0.173c-1.045,0.107-2.099,0.16-3.144,0.16
		c-1.04,0-2.089-0.053-3.119-0.158L7.457,7.744z M9.002,6.442c0.96,0.097,1.953,0.148,2.94,0.148c0.991,0,1.992-0.051,2.975-0.151
		l1.804-0.23c-1.295-1.047-2.688-1.713-4.775-1.713c-1.606,0-2.812,0.384-4.033,1.282C7.731,5.913,7.549,6.057,7.359,6.217
		L9.002,6.442z M8.537,3.677c1.024-0.463,2.127-0.681,3.409-0.681c1.269,0,2.369,0.203,3.403,0.634l-0.302-1.441L14.58,2.002
		c-0.845-0.338-1.73-0.509-2.631-0.509c-0.901,0-1.786,0.171-2.631,0.509L8.851,2.189L8.537,3.677z"/>
	<path d="M18.436,23.996c-0.414,0-0.75-0.336-0.75-0.75v-1.5h-3v1.5c0,0.414-0.336,0.75-0.75,0.75s-0.75-0.336-0.75-0.75v-1.5
		c0-0.827,0.673-1.5,1.5-1.5h3c0.827,0,1.5,0.673,1.5,1.5v1.5C19.186,23.659,18.849,23.996,18.436,23.996z"/>
</g>
</svg>
