<?xml version="1.0" encoding="utf-8"?>
<!-- Generator: Adobe Illustrator 22.1.0, SVG Export Plug-In . SVG Version: 6.00 Build 0)  -->
<svg version="1.1" id="Layer_1" xmlns="http://www.w3.org/2000/svg" xmlns:xlink="http://www.w3.org/1999/xlink" x="0px" y="0px"
	 viewBox="0 0 24 24" style="enable-background:new 0 0 24 24;" xml:space="preserve">
<title>professions-man-bellboy</title>
<g>
	<path d="M12,14.25c-3.308,0-6-2.692-6-6v-6C6,1.009,7.009,0,8.25,0h7.5C16.991,0,18,1.009,18,2.25v6
		C18,11.558,15.308,14.25,12,14.25z M7.5,8.25c0,2.481,2.019,4.5,4.5,4.5c2.481,0,4.5-2.019,4.5-4.5H7.5z M16.5,6.75v-1.5h-9v1.5
		H16.5z M16.5,3.75v-1.5c0-0.414-0.336-0.75-0.75-0.75h-7.5C7.837,1.5,7.5,1.836,7.5,2.25v1.5H16.5z"/>
	<path d="M14.25,24c-0.62,0-1.125-0.505-1.125-1.125c0-0.599,0.469-1.091,1.069-1.121c0.018-0.002,0.039-0.004,0.056-0.004
		c0.62,0,1.125,0.505,1.125,1.125S14.87,24,14.25,24z"/>
	<circle cx="14.25" cy="19.5" r="1.125"/>
	<path d="M11.25,24c-0.414,0-0.75-0.336-0.75-0.75v-6.623c-0.195,0.033-0.384,0.071-0.567,0.114
		c-3.334,0.787-5.894,3.348-6.682,6.682C3.171,23.762,2.871,24,2.521,24c-0.058,0-0.116-0.007-0.173-0.02
		c-0.195-0.046-0.36-0.165-0.466-0.336c-0.105-0.17-0.138-0.372-0.092-0.566c0.919-3.89,3.907-6.878,7.797-7.797
		c0.8-0.189,1.618-0.284,2.431-0.284c1.933,0,3.833,0.542,5.494,1.569c2.384,1.473,4.052,3.785,4.696,6.512
		c0.046,0.195,0.013,0.396-0.092,0.566c-0.105,0.171-0.271,0.29-0.466,0.336C21.594,23.993,21.536,24,21.479,24
		c-0.35,0-0.65-0.238-0.73-0.578c-0.552-2.337-1.981-4.319-4.024-5.581c-1.423-0.879-3.05-1.344-4.706-1.344
		c-0.006,0-0.012,0-0.019,0v6.752C12,23.664,11.664,24,11.25,24z"/>
</g>
</svg>
