<svg id="Outline_Version" data-name="Outline Version" xmlns="http://www.w3.org/2000/svg" viewBox="0 0 24 24"><title>professional-tool-google-drive</title><path d="M24,15.86a.73.73,0,0,0-.07-.27L16.16,1.73a.75.75,0,0,0-.65-.38h-7l-.06,0a.72.72,0,0,0-.26.07l-.08,0a.73.73,0,0,0-.25.25L.1,15.16a.75.75,0,0,0,0,.74l3.53,6.37,0,0a.73.73,0,0,0,.19.19l.08.05a.73.73,0,0,0,.33.09H19.86a.75.75,0,0,0,.65-.38l3.38-5.93h0s0,0,0-.07A.75.75,0,0,0,24,16,.76.76,0,0,0,24,15.86Zm-8.91-13L22,15.21H16.68L9.77,2.85ZM15,15.21H9l3-5.32ZM8.48,3.61l2.65,4.74-6.84,12L1.61,15.54ZM19.42,21.15H5.57L8.1,16.71H22Z"/></svg>