<?xml version="1.0" encoding="utf-8"?>
<!-- Generator: Adobe Illustrator 22.1.0, SVG Export Plug-In . SVG Version: 6.00 Build 0)  -->
<svg version="1.1" id="Layer_1" xmlns="http://www.w3.org/2000/svg" xmlns:xlink="http://www.w3.org/1999/xlink" x="0px" y="0px"
	 viewBox="0 0 24 24" style="enable-background:new 0 0 24 24;" xml:space="preserve">
<title>professions-man-doctor-2</title>
<g>
	<path d="M9,24c-1.654,0-3-1.346-3-3v-2.725c-0.975,1.47-1.502,3.201-1.5,4.974c0,0.2-0.078,0.389-0.219,0.531
		C4.14,23.921,3.951,24,3.751,24C3.337,24,3,23.664,3,23.251c-0.003-2.728,1.088-5.396,3-7.346V12.75
		c0-1.024-0.695-1.908-1.66-2.169C4.004,11.421,3.176,12,2.25,12C1.009,12,0,10.991,0,9.75S1.009,7.5,2.25,7.5
		c0.982,0,1.842,0.639,2.139,1.555C6.18,9.36,7.5,10.905,7.5,12.75V21c0,0.827,0.673,1.5,1.5,1.5h2.25c0.827,0,1.5-0.673,1.5-1.5
		v-1.565C10.621,19.073,9,17.188,9,15v-2.25C9,12.336,9.336,12,9.75,12s0.75,0.336,0.75,0.75V15c0,1.654,1.346,3,3,3
		c1.654,0,3-1.346,3-3v-2.25c0-0.414,0.336-0.75,0.75-0.75S18,12.336,18,12.75v1.012c3.653,1.732,5.999,5.428,6,9.485
		c0,0.414-0.336,0.75-0.75,0.75s-0.75-0.336-0.75-0.75c-0.001-3.265-1.719-6.204-4.522-7.803c-0.201,1.995-1.744,3.655-3.728,3.991
		V21c0,1.654-1.346,3-3,3H9z M2.25,9C1.836,9,1.5,9.336,1.5,9.75s0.336,0.75,0.75,0.75S3,10.164,3,9.75S2.664,9,2.25,9z"/>
	<path d="M13.5,12c-3.308,0-6-2.692-6-6c0-1.051,0.279-2.088,0.806-2.998c0.001-0.001,0.004-0.008,0.005-0.01
		C9.385,1.147,11.373,0,13.5,0c3.308,0,6,2.692,6,6S16.808,12,13.5,12z M9.231,4.588C9.078,5.045,9,5.518,9,6
		c0,2.481,2.019,4.5,4.5,4.5c2.365,0,4.309-1.834,4.487-4.154c-0.886,0.268-1.803,0.404-2.734,0.404
		C13.077,6.75,10.914,5.967,9.231,4.588z M9.954,3.232c1.449,1.286,3.359,2.018,5.292,2.018c0.888,0,1.758-0.146,2.594-0.434
		C17.312,2.877,15.535,1.5,13.5,1.5C12.11,1.5,10.807,2.142,9.954,3.232z"/>
</g>
</svg>
