<?xml version="1.0" encoding="utf-8"?>
<!-- Generator: Adobe Illustrator 22.1.0, SVG Export Plug-In . SVG Version: 6.00 Build 0)  -->
<svg version="1.1" id="Layer_1" xmlns="http://www.w3.org/2000/svg" xmlns:xlink="http://www.w3.org/1999/xlink" x="0px" y="0px"
	 viewBox="0 0 24 24" style="enable-background:new 0 0 24 24;" xml:space="preserve">
<title>professions-woman-clerk</title>
<g>
	<path d="M20.334,14.572c-0.115,0-0.231-0.027-0.334-0.079c-1.64-0.82-2.495-2.268-2.94-3.567c-1.114,1.604-2.929,2.57-4.922,2.57
		c-1.987,0-3.85-1.007-4.958-2.626c-0.466,1.318-1.347,2.791-3.01,3.623c-0.104,0.052-0.22,0.079-0.335,0.079
		c-0.286,0-0.543-0.159-0.671-0.414c-0.185-0.37-0.034-0.821,0.335-1.006c2.397-1.198,2.67-4.465,2.694-4.854
		C6.158,8.042,6.14,7.787,6.138,7.538L5.775,7.489C5.493,7.45,5.254,7.251,5.165,6.981C5.074,6.708,5.146,6.412,5.352,6.21
		c0.497-0.487,1.035-0.997,1.617-1.452l0.685-3.27c0.052-0.246,0.222-0.449,0.456-0.543L8.95,0.609
		c1.022-0.409,2.095-0.616,3.187-0.616c1.092,0,2.165,0.208,3.188,0.617l0.841,0.336c0.234,0.093,0.404,0.296,0.456,0.543
		l0.65,3.113c0.593,0.421,1.195,0.936,1.88,1.61c0.203,0.199,0.276,0.503,0.185,0.774c-0.091,0.271-0.333,0.469-0.616,0.505
		l-0.584,0.075c-0.003,0.252-0.022,0.508-0.058,0.762c0.023,0.499,0.258,3.659,2.59,4.825c0.37,0.185,0.52,0.636,0.335,1.006
		C20.877,14.413,20.62,14.572,20.334,14.572z M7.644,7.744c0.129,2.366,2.095,4.252,4.493,4.252c2.219,0,4.131-1.658,4.448-3.857
		c0.001-0.013,0.003-0.025,0.005-0.036c0.017-0.125,0.029-0.239,0.037-0.346l-1.35,0.172c-1.045,0.107-2.1,0.16-3.144,0.16
		c-1.04,0-2.089-0.053-3.119-0.158L7.644,7.744z M9.193,6.442c0.96,0.097,1.953,0.148,2.94,0.148c0.991,0,1.992-0.051,2.975-0.151
		l1.804-0.23c-1.295-1.047-2.688-1.713-4.775-1.713c-1.605,0-2.81,0.383-4.032,1.282C8.102,5.781,8.089,5.79,8.085,5.793
		C7.913,5.92,7.737,6.06,7.551,6.217L9.193,6.442z M8.727,3.678c1.025-0.463,2.128-0.682,3.41-0.682
		c1.267,0,2.366,0.203,3.399,0.632l-0.301-1.439l-0.468-0.187c-0.844-0.338-1.729-0.509-2.631-0.509
		c-0.901,0-1.786,0.171-2.63,0.509L9.039,2.189L8.727,3.678z"/>
	<path d="M2.442,23.996c-0.027,0-0.054-0.001-0.081-0.004c-0.198-0.021-0.377-0.118-0.503-0.274
		c-0.126-0.156-0.183-0.351-0.162-0.551c0.439-4.12,3.269-7.607,7.21-8.884c0.074-0.024,0.152-0.037,0.231-0.037
		c0.209,0,0.411,0.089,0.553,0.243l2.447,2.676l2.447-2.675c0.142-0.155,0.343-0.244,0.553-0.244c0.079,0,0.157,0.012,0.232,0.037
		c3.943,1.275,6.775,4.762,7.214,8.884c0.044,0.411-0.255,0.781-0.666,0.825c-0.028,0.003-0.055,0.004-0.081,0.004c0,0,0,0,0,0
		c-0.383,0-0.703-0.288-0.744-0.67c-0.357-3.354-2.598-6.255-5.736-7.458l-2.666,2.914c-0.138,0.151-0.34,0.238-0.553,0.238
		s-0.415-0.087-0.553-0.238l-2.665-2.914c-3.135,1.205-5.374,4.105-5.731,7.457C3.147,23.707,2.826,23.996,2.442,23.996z"/>
	<path d="M18.627,23.996c-0.414,0-0.75-0.336-0.75-0.75v-1.5h-3v1.5c0,0.414-0.336,0.75-0.75,0.75s-0.75-0.336-0.75-0.75v-1.5
		c0-0.827,0.673-1.5,1.5-1.5h3c0.827,0,1.5,0.673,1.5,1.5v1.5C19.377,23.659,19.04,23.996,18.627,23.996z"/>
</g>
</svg>
