<?xml version="1.0" encoding="utf-8"?>
<!-- Generator: Adobe Illustrator 22.1.0, SVG Export Plug-In . SVG Version: 6.00 Build 0)  -->
<svg version="1.1" id="Layer_1" xmlns="http://www.w3.org/2000/svg" xmlns:xlink="http://www.w3.org/1999/xlink" x="0px" y="0px"
	 viewBox="0 0 24 24" style="enable-background:new 0 0 24 24;" xml:space="preserve">
<title>professions-woman-chef-2</title>
<g>
	<path d="M1.502,24.001c-0.02,0-0.039-0.001-0.059-0.002c-0.197-0.014-0.38-0.105-0.511-0.257c-0.131-0.151-0.196-0.345-0.181-0.545
		c0.273-3.799,2.544-7.285,5.931-9.108c0.073-0.06,0.16-0.105,0.259-0.135c1.329-0.672,2.75-1.066,4.225-1.172
		c0.271-0.02,0.546-0.03,0.816-0.03c1.769,0,3.536,0.427,5.112,1.237c0.048,0.02,0.085,0.043,0.111,0.06
		c0.205,0.107,0.427,0.234,0.647,0.37c0.075,0.031,0.141,0.072,0.199,0.123c2.968,1.913,4.89,5.146,5.142,8.656
		c0.014,0.2-0.05,0.393-0.181,0.545c-0.131,0.151-0.313,0.243-0.513,0.257C22.483,24,22.464,24,22.445,24
		c-0.391,0-0.719-0.306-0.748-0.696c-0.201-2.794-1.576-5.331-3.795-7.032l-2.958,7.261C14.828,23.817,14.556,24,14.249,24
		c-0.098,0-0.193-0.019-0.284-0.056c-0.185-0.075-0.33-0.219-0.407-0.403c-0.078-0.185-0.079-0.389-0.003-0.574l2.724-6.686
		l-7.499,7.499C8.638,23.922,8.449,24,8.249,24s-0.389-0.078-0.53-0.22c-0.142-0.142-0.22-0.33-0.22-0.53s0.078-0.389,0.22-0.53
		l3.22-3.22l-3.894-3.895c-2.781,1.643-4.568,4.5-4.797,7.698C2.219,23.694,1.892,24.001,1.502,24.001z M11.999,18.44l3.518-3.518
		c-1.13-0.444-2.319-0.669-3.542-0.669c-0.232,0-0.468,0.008-0.701,0.025c-0.962,0.069-1.902,0.281-2.802,0.633L11.999,18.44z"/>
	<path d="M20.253,12.75c-0.115,0-0.231-0.027-0.334-0.079c-1.608-0.804-2.47-2.144-2.932-3.341c-1.104,1.645-2.98,2.67-4.988,2.67
		c-2.006,0-3.881-1.023-4.986-2.667c-0.462,1.196-1.323,2.534-2.929,3.338c-0.104,0.052-0.22,0.079-0.335,0.079
		c-0.286,0-0.543-0.159-0.671-0.414c-0.185-0.37-0.034-0.822,0.335-1.006c2.415-1.208,2.621-4.257,2.636-4.566
		C6.016,6.505,5.999,6.248,5.999,6c-0.414,0-0.75-0.336-0.75-0.75S5.586,4.5,5.999,4.5h0.19C6.867,1.875,9.262,0,11.999,0
		s5.132,1.875,5.81,4.5h0.713l2.061-1.374C20.707,3.044,20.85,3,20.999,3c0.251,0,0.485,0.125,0.624,0.334
		c0.111,0.167,0.151,0.367,0.112,0.563c-0.039,0.197-0.153,0.366-0.32,0.477L19.76,5.478l1.882,3.137
		c0.103,0.172,0.133,0.373,0.084,0.568c-0.049,0.194-0.17,0.358-0.342,0.461c-0.116,0.07-0.25,0.107-0.385,0.107
		c-0.262,0-0.509-0.14-0.643-0.364L18.324,6h-0.325c0,0.244-0.016,0.497-0.049,0.753c0.008,0.189,0.173,3.343,2.638,4.576
		c0.37,0.185,0.52,0.636,0.335,1.006C20.796,12.591,20.539,12.75,20.253,12.75z M7.499,6c0,2.481,2.019,4.5,4.5,4.5
		c2.481,0,4.5-2.019,4.5-4.5H7.499z M16.237,4.5c-0.629-1.788-2.309-3-4.238-3c-1.929,0-3.61,1.212-4.238,3H16.237z"/>
</g>
</svg>
