<?xml version="1.0" encoding="utf-8"?>
<!-- Generator: Adobe Illustrator 22.1.0, SVG Export Plug-In . SVG Version: 6.00 Build 0)  -->
<svg version="1.1" id="Layer_1" xmlns="http://www.w3.org/2000/svg" xmlns:xlink="http://www.w3.org/1999/xlink" x="0px" y="0px"
	 viewBox="0 0 24 24" style="enable-background:new 0 0 24 24;" xml:space="preserve">
<title>professions-man-farmer</title>
<g>
	<path d="M21.693,24c-0.414,0-0.75-0.336-0.75-0.75c0-3.249-1.709-6.181-4.5-7.791V18h0.75c0.414,0,0.75,0.336,0.75,0.75v4.5
		c0,0.414-0.336,0.75-0.75,0.75s-0.75-0.336-0.75-0.75V19.5h-9v3.75c0,0.414-0.336,0.75-0.75,0.75s-0.75-0.336-0.75-0.75v-4.5
		c0-0.414,0.336-0.75,0.75-0.75h0.75v-2.541c-2.791,1.61-4.5,4.542-4.5,7.791c0,0.414-0.336,0.75-0.75,0.75s-0.75-0.336-0.75-0.75
		c0-4.235,2.527-8.035,6.438-9.682c0.013-0.007,0.041-0.019,0.073-0.029c1.27-0.523,2.612-0.789,3.989-0.789
		c1.378,0,2.72,0.266,3.99,0.789c0.032,0.011,0.064,0.024,0.094,0.039c3.889,1.636,6.416,5.437,6.416,9.672
		C22.443,23.664,22.107,24,21.693,24z M14.943,18v-3.233c-0.966-0.343-1.974-0.517-3-0.517c-1.027,0-2.035,0.174-3,0.517V18H14.943z
		"/>
	<path d="M11.939,12.003c-2.732,0-5.124-1.876-5.801-4.503H3.693c-0.414,0-0.75-0.336-0.75-0.75S3.279,6,3.693,6
		c2.068,0,3.75-1.682,3.75-3.75c0-1.477,2.264-2.25,4.5-2.25s4.5,0.773,4.5,2.25c0,2.068,1.682,3.75,3.75,3.75
		c0.414,0,0.75,0.336,0.75,0.75s-0.336,0.75-0.75,0.75h-2.445c-0.603,2.329-2.557,4.097-4.951,4.441
		C12.513,11.982,12.224,12.003,11.939,12.003z M7.699,7.5c0.627,1.766,2.339,3.003,4.239,3.003c0.214,0,0.431-0.016,0.645-0.046
		c1.652-0.238,3.046-1.401,3.601-2.957H7.699z M16.52,6c-0.996-0.972-1.57-2.302-1.576-3.727c-0.121-0.229-1.15-0.773-3-0.773
		c-1.85,0-2.879,0.543-3,0.773C8.937,3.698,8.363,5.028,7.367,6H16.52z"/>
</g>
</svg>
