<?xml version="1.0" encoding="utf-8"?>
<!-- Generator: Adobe Illustrator 22.1.0, SVG Export Plug-In . SVG Version: 6.00 Build 0)  -->
<svg version="1.1" id="Layer_1" xmlns="http://www.w3.org/2000/svg" xmlns:xlink="http://www.w3.org/1999/xlink" x="0px" y="0px"
	 viewBox="0 0 24 24" style="enable-background:new 0 0 24 24;" xml:space="preserve">
<title>professions-woman-welder</title>
<g>
	<path d="M21.722,24c-0.414,0-0.75-0.336-0.75-0.75c0-1.793-0.527-3.531-1.5-4.997v4.997c0,0.414-0.336,0.75-0.75,0.75
		s-0.75-0.336-0.75-0.75v-6.723c-0.462-0.411-0.965-0.772-1.502-1.08c-0.022,1.91-0.328,4.053-4.498,4.053
		c-4.17,0-4.476-2.143-4.498-4.052c-0.536,0.307-1.039,0.669-1.502,1.08v6.722c0,0.414-0.336,0.75-0.75,0.75s-0.75-0.336-0.75-0.75
		v-4.996c-0.973,1.466-1.5,3.204-1.5,4.996c0,0.414-0.336,0.75-0.75,0.75s-0.75-0.336-0.75-0.75c0-3.955,2.194-7.529,5.653-9.318
		c-0.6-0.327-0.893-0.611-0.934-0.652c-0.03-0.03-0.057-0.063-0.082-0.097c-0.543,0.744-1.23,1.327-2.052,1.738
		c-0.104,0.052-0.22,0.079-0.335,0.079c-0.286,0-0.543-0.159-0.671-0.414c-0.185-0.37-0.034-0.821,0.335-1.006
		c2.525-1.262,2.585-4.548,2.586-4.581V6c0-3.308,2.692-6,6-6c3.308,0,6,2.692,6,6v2.994c0.001,0.026,0.106,3.318,2.64,4.585
		c0.37,0.185,0.52,0.636,0.335,1.006C20.819,14.841,20.562,15,20.276,15c-0.115,0-0.231-0.027-0.334-0.079
		c-0.834-0.417-1.533-1.01-2.086-1.771c-0.029,0.047-0.064,0.09-0.103,0.13c-0.041,0.041-0.334,0.324-0.933,0.651
		c3.459,1.789,5.653,5.364,5.653,9.319C22.472,23.664,22.135,24,21.722,24z M8.972,15c0,2.122,0,3,3,3c3,0,3-0.878,3-3v-0.237
		c-0.067-0.024-0.135-0.047-0.204-0.069C13.907,14.897,12.967,15,11.972,15c-0.995,0-1.934-0.103-2.794-0.306
		c-0.069,0.022-0.138,0.046-0.206,0.07V15z M7.472,12.387c0.524,0.36,1.927,1.113,4.5,1.113c2.573,0,3.976-0.753,4.5-1.113V6
		c0-2.481-2.019-4.5-4.5-4.5s-4.5,2.019-4.5,4.5V12.387z"/>
	<path d="M8.972,9c-0.414,0-0.75-0.336-0.75-0.75v-3c0-0.414,0.336-0.75,0.75-0.75h6c0.414,0,0.75,0.336,0.75,0.75v3
		c0,0.414-0.336,0.75-0.75,0.75H8.972z M14.222,7.5V6h-4.5v1.5H14.222z"/>
</g>
</svg>
