<?xml version="1.0" encoding="utf-8"?>
<!-- Generator: Adobe Illustrator 22.1.0, SVG Export Plug-In . SVG Version: 6.00 Build 0)  -->
<svg version="1.1" id="Layer_1" xmlns="http://www.w3.org/2000/svg" xmlns:xlink="http://www.w3.org/1999/xlink" x="0px" y="0px"
	 viewBox="0 0 24 24" style="enable-background:new 0 0 24 24;" xml:space="preserve">
<title>professions-man-telecommunicator</title>
<g>
	<path d="M14.948,11.058c-0.245,0-0.476-0.12-0.616-0.321c-0.236-0.34-0.152-0.808,0.187-1.044c1.081-0.753,1.777-1.937,1.908-3.247
		c0.003-0.032,0.006-0.064,0.008-0.097c-0.883,0.267-1.797,0.402-2.726,0.402c-2.185,0-4.35-0.783-6.033-2.164
		C7.572,4.902,7.502,5.225,7.469,5.552C7.431,5.937,7.11,6.227,6.723,6.227c-0.024,0-0.049-0.001-0.074-0.004
		c-0.412-0.041-0.714-0.41-0.673-0.821c0.159-1.595,0.93-3.033,2.17-4.048c1.085-0.888,2.397-1.358,3.792-1.358
		c0.2,0,0.404,0.01,0.604,0.03c3.293,0.329,5.704,3.275,5.375,6.567c-0.174,1.748-1.101,3.326-2.542,4.329
		C15.25,11.012,15.102,11.058,14.948,11.058z M13.717,5.25c0.873,0,1.739-0.146,2.573-0.433c-0.487-1.776-2.046-3.113-3.895-3.298
		c-0.151-0.015-0.305-0.023-0.456-0.023c-1.045,0-2.027,0.352-2.841,1.019c-0.26,0.212-0.493,0.451-0.698,0.713
		C9.848,4.517,11.76,5.25,13.695,5.25l0.006,0C13.704,5.25,13.714,5.25,13.717,5.25z"/>
	<path d="M10.823,13.5c-0.96,0-1.808-0.615-2.121-1.5H7.823c-2.068,0-3.75-1.682-3.75-3.75V7.172c0-0.414,0.336-0.75,0.75-0.75
		s0.75,0.336,0.75,0.75V8.25c0,1.241,1.009,2.25,2.25,2.25h0.879C9.016,9.615,9.863,9,10.823,9c1.241,0,2.25,1.009,2.25,2.25
		S12.064,13.5,10.823,13.5z M10.823,10.5c-0.414,0-0.75,0.336-0.75,0.75S10.41,12,10.823,12s0.75-0.337,0.75-0.75
		S11.237,10.5,10.823,10.5z"/>
	<path d="M21.7,24c-0.414,0-0.75-0.336-0.75-0.75c0-3.368-1.857-6.426-4.846-7.979c-0.178-0.092-0.309-0.248-0.369-0.439
		c-0.06-0.191-0.043-0.394,0.05-0.572c0.13-0.25,0.385-0.404,0.666-0.404c0.12,0,0.239,0.029,0.345,0.085
		c3.488,1.812,5.654,5.379,5.654,9.309C22.45,23.664,22.114,24,21.7,24z"/>
	<path d="M2.2,24c-0.414,0-0.75-0.336-0.75-0.75c0-3.93,2.165-7.497,5.652-9.31c0.107-0.055,0.226-0.085,0.346-0.085
		c0.281,0,0.536,0.155,0.666,0.404c0.092,0.178,0.11,0.381,0.05,0.572c-0.06,0.191-0.191,0.347-0.369,0.439
		C4.806,16.825,2.95,19.882,2.95,23.25C2.95,23.664,2.614,24,2.2,24z"/>
</g>
</svg>
