<?xml version="1.0" encoding="utf-8"?>
<!-- Generator: Adobe Illustrator 22.1.0, SVG Export Plug-In . SVG Version: 6.00 Build 0)  -->
<svg version="1.1" id="Layer_1" xmlns="http://www.w3.org/2000/svg" xmlns:xlink="http://www.w3.org/1999/xlink" x="0px" y="0px"
	 viewBox="0 0 24 24" style="enable-background:new 0 0 24 24;" xml:space="preserve">
<title>professions-woman-construction-1</title>
<g>
	<path d="M20.222,12c-0.115,0-0.231-0.027-0.334-0.079c-1.2-0.6-2.135-1.59-2.739-2.889C16.081,10.859,14.131,12,11.972,12
		s-4.109-1.141-5.176-2.967c-0.604,1.299-1.539,2.288-2.739,2.888C3.953,11.973,3.838,12,3.722,12c-0.286,0-0.543-0.159-0.671-0.414
		c-0.185-0.37-0.034-0.822,0.335-1.006C5.173,9.686,5.751,7.812,5.938,6.75H5.222c-0.414,0-0.75-0.336-0.75-0.75
		s0.336-0.75,0.75-0.75H6.02c0.253-2.011,1.517-3.776,3.363-4.662c0.013-0.008,0.038-0.019,0.064-0.03
		C10.244,0.188,11.093,0,11.972,0c0.879,0,1.728,0.188,2.524,0.558c0.027,0.011,0.053,0.023,0.079,0.037
		c1.832,0.878,3.095,2.643,3.348,4.655h0.798c0.414,0,0.75,0.336,0.75,0.75s-0.336,0.75-0.75,0.75h-0.714
		c0.189,1.065,0.77,2.939,2.549,3.829c0.37,0.185,0.52,0.636,0.335,1.006C20.765,11.841,20.508,12,20.222,12z M7.537,6.75
		c0.362,2.129,2.247,3.75,4.435,3.75c2.188,0,4.073-1.622,4.435-3.75H7.537z M16.404,5.25c-0.17-0.998-0.68-1.917-1.432-2.595V5.25
		H16.404z M13.472,5.25V1.758C12.99,1.587,12.487,1.5,11.972,1.5c-0.515,0-1.018,0.087-1.5,0.258V5.25H13.472z M8.972,5.25V2.656
		C8.22,3.333,7.71,4.252,7.54,5.25H8.972z"/>
	<path d="M21.722,24c-0.414,0-0.75-0.336-0.75-0.75c0-2.186-0.811-4.307-2.25-5.943v5.943c0,0.414-0.336,0.75-0.75,0.75
		s-0.75-0.336-0.75-0.75v-7.305c-0.248-0.178-0.506-0.345-0.772-0.498c-0.225,2.272-2.147,4.053-4.478,4.053
		c-2.331,0-4.253-1.781-4.478-4.053c-0.266,0.153-0.524,0.32-0.772,0.498v7.305c0,0.414-0.336,0.75-0.75,0.75s-0.75-0.336-0.75-0.75
		v-5.943c-1.439,1.636-2.25,3.756-2.25,5.943c0,0.414-0.336,0.75-0.75,0.75s-0.75-0.336-0.75-0.75c0-3.209,1.445-6.2,3.965-8.21
		c0.045-0.046,0.096-0.086,0.152-0.119c0.72-0.553,1.503-1.009,2.328-1.356c0.011-0.005,0.035-0.015,0.061-0.024
		c1.257-0.523,2.608-0.792,3.995-0.792c1.387,0,2.738,0.269,4.016,0.8c0,0,0,0,0,0c0.002,0,0.027,0.01,0.051,0.021
		c0.814,0.342,1.597,0.798,2.317,1.351c0.055,0.033,0.105,0.072,0.15,0.118c2.521,2.01,3.966,5.001,3.966,8.21
		C22.472,23.664,22.135,24,21.722,24z M8.972,15c0,1.654,1.346,3,3,3s3-1.346,3-3v-0.233c-0.966-0.343-1.973-0.517-3-0.517
		c-1.027,0-2.035,0.174-3,0.517V15z"/>
</g>
</svg>
