<?xml version="1.0" encoding="utf-8"?>
<!-- Generator: Adobe Illustrator 22.1.0, SVG Export Plug-In . SVG Version: 6.00 Build 0)  -->
<svg version="1.1" id="Layer_1" xmlns="http://www.w3.org/2000/svg" xmlns:xlink="http://www.w3.org/1999/xlink" x="0px" y="0px"
	 viewBox="0 0 24 24" style="enable-background:new 0 0 24 24;" xml:space="preserve">
<title>professions-woman-office-1</title>
<g>
	<path d="M12.136,16.497c-0.578,0-1.154-0.084-1.712-0.251c-3.17-0.946-4.98-4.294-4.035-7.465C6.481,8.475,6.758,8.26,7.078,8.246
		c3.036-0.125,4.353-3.245,4.366-3.277c0.115-0.284,0.388-0.469,0.695-0.469c0.309,0.001,0.582,0.186,0.696,0.471
		c0.012,0.029,1.328,3.149,4.365,3.274c0.32,0.013,0.596,0.228,0.688,0.535c0.335,1.122,0.335,2.308,0,3.43
		C17.136,14.734,14.771,16.497,12.136,16.497z M7.711,9.695c-0.409,2.241,0.932,4.454,3.142,5.113
		c0.418,0.125,0.85,0.188,1.283,0.188c1.976,0,3.751-1.322,4.316-3.214c0.202-0.678,0.241-1.394,0.116-2.087
		c-2.254-0.302-3.661-1.769-4.429-2.902C11.37,7.926,9.962,9.394,7.711,9.695z"/>
	<path d="M2.664,24.001c-0.112,0-0.22-0.025-0.322-0.073c-0.18-0.085-0.317-0.236-0.384-0.425C1.89,23.315,1.9,23.111,1.985,22.93
		c0.626-1.323,1.522-2.527,2.614-3.518c-0.681-0.19-1.347-0.426-1.987-0.704c-1.12-0.504-1.635-1.825-1.152-2.946l1.375-3.208
		c0.201-0.47,0.303-0.967,0.303-1.478V9.001c0-4.963,4.037-9,9-9s9,4.037,9,9v2.076c0,0.511,0.102,1.008,0.303,1.477l1.375,3.211
		c0.482,1.12-0.031,2.439-1.143,2.94c-0.646,0.281-1.313,0.517-1.993,0.707c1.097,0.989,1.974,2.169,2.612,3.518
		c0.086,0.181,0.096,0.385,0.028,0.574s-0.205,0.34-0.385,0.425c-0.1,0.048-0.208,0.072-0.32,0.072
		c-0.289,0-0.555-0.169-0.678-0.429c-0.902-1.905-2.417-3.477-4.286-4.454c-0.551,0.644-1.233,1.084-1.842,1.479
		c-1.115,0.721-1.92,1.242-1.92,2.655c0,0.414-0.336,0.75-0.75,0.75s-0.75-0.336-0.75-0.75c0-1.413-0.805-1.934-1.919-2.655
		c-0.611-0.395-1.294-0.837-1.846-1.482c-1.867,0.979-3.381,2.552-4.283,4.458C3.218,23.833,2.952,24.001,2.664,24.001z
		 M9.109,18.487c0.356,0.319,0.771,0.587,1.175,0.849c0.666,0.431,1.351,0.874,1.855,1.536c0.504-0.662,1.188-1.104,1.854-1.535
		c0.404-0.261,0.817-0.529,1.172-0.846c-0.984-0.323-2.004-0.487-3.042-0.487C11.095,18.004,10.083,18.166,9.109,18.487z
		 M16.83,17.535c0.447,0.205,0.882,0.44,1.295,0.699c1.02-0.193,2.009-0.496,2.942-0.902c0.364-0.164,0.533-0.603,0.372-0.977
		l-1.375-3.211c-0.282-0.656-0.425-1.352-0.425-2.068V9.001c0-4.135-3.365-7.5-7.5-7.5s-7.5,3.365-7.5,7.5v2.076
		c0,0.715-0.143,1.411-0.425,2.068l-1.376,3.21c-0.161,0.375,0.009,0.814,0.38,0.981c0.926,0.402,1.912,0.704,2.929,0.897
		c0.386-0.244,0.785-0.464,1.187-0.654c0.034-0.016,0.069-0.031,0.104-0.046l0.038-0.017c0.043-0.025,0.09-0.046,0.143-0.063
		c1.432-0.63,2.947-0.949,4.504-0.949c1.554,0,3.067,0.316,4.498,0.938c0.07,0.019,0.135,0.047,0.195,0.084
		C16.82,17.529,16.825,17.532,16.83,17.535z"/>
</g>
</svg>
