<?xml version="1.0" encoding="utf-8"?>
<!-- Generator: Adobe Illustrator 22.1.0, SVG Export Plug-In . SVG Version: 6.00 Build 0)  -->
<svg version="1.1" id="Layer_1" xmlns="http://www.w3.org/2000/svg" xmlns:xlink="http://www.w3.org/1999/xlink" x="0px" y="0px"
	 viewBox="0 0 24 24" style="enable-background:new 0 0 24 24;" xml:space="preserve">
<title>project-building-shopping</title>
<g>
	<path d="M0.75,18.194c-0.414,0-0.75-0.336-0.75-0.75s0.336-0.75,0.75-0.75h15.443c0.345,0,0.643-0.257,0.694-0.598l1.807-12.043
		c0.159-1.069,1.095-1.875,2.177-1.876h1.653c0.414,0,0.75,0.336,0.75,0.75s-0.336,0.75-0.75,0.75h-1.653
		c-0.344,0-0.643,0.257-0.693,0.598l-1.807,12.044c-0.16,1.069-1.096,1.876-2.178,1.876H0.75z"/>
	<path d="M4.016,24c-1.414,0-2.565-1.151-2.565-2.565s1.151-2.565,2.565-2.565c1.414,0,2.565,1.151,2.565,2.565S5.43,24,4.016,24z
		 M4.016,20.37c-0.587,0-1.065,0.478-1.065,1.065S3.429,22.5,4.016,22.5c0.587,0,1.065-0.478,1.065-1.065S4.603,20.37,4.016,20.37z"
		/>
	<path d="M14.177,24c-1.414,0-2.565-1.151-2.565-2.565s1.151-2.565,2.565-2.565s2.565,1.151,2.565,2.565S15.591,24,14.177,24z
		 M14.177,20.37c-0.587,0-1.065,0.478-1.065,1.065S13.59,22.5,14.177,22.5s1.065-0.478,1.065-1.065S14.764,20.37,14.177,20.37z"/>
	<path d="M2.202,15.29c-0.414,0-0.75-0.336-0.75-0.75s0.336-0.75,0.75-0.75h0.701V7.056c0-0.689,0.561-1.25,1.25-1.25h2.379v-4.33
		C6.532,0.662,7.194,0,8.008,0h6.532c0.814,0,1.476,0.662,1.476,1.476V14.54c0,0.414-0.336,0.75-0.75,0.75H2.202z M14.516,13.79
		V7.306h-1.427c-0.414,0-0.75-0.336-0.75-0.75s0.336-0.75,0.75-0.75h1.427V4.403h-1.427c-0.414,0-0.75-0.336-0.75-0.75
		s0.336-0.75,0.75-0.75h1.427V1.5H8.032v4.306h1.653c0.689,0,1.25,0.561,1.25,1.25v6.734H14.516z M9.435,13.79v-3.58H7.282
		c-0.414,0-0.75-0.336-0.75-0.75s0.336-0.75,0.75-0.75h2.153V7.306H4.403v6.484H9.435z"/>
</g>
</svg>
