<?xml version="1.0" encoding="utf-8"?>
<!-- Generator: Adobe Illustrator 22.1.0, SVG Export Plug-In . SVG Version: 6.00 Build 0)  -->
<svg version="1.1" id="Layer_1" xmlns="http://www.w3.org/2000/svg" xmlns:xlink="http://www.w3.org/1999/xlink" x="0px" y="0px"
	 viewBox="0 0 24 24" style="enable-background:new 0 0 24 24;" xml:space="preserve">
<title>project-blueprint-create</title>
<g>
	<path d="M9.333,15.417c-0.2,0-0.389-0.078-0.53-0.22c-0.166-0.166-0.245-0.404-0.212-0.636l0.53-3.712
		c0.023-0.16,0.098-0.31,0.212-0.424l9.546-9.546C19.445,0.312,20.199,0,21,0s1.555,0.312,2.121,0.879c1.17,1.17,1.17,3.073,0,4.243
		l-9.546,9.546c-0.114,0.114-0.265,0.189-0.424,0.212l-3.712,0.53C9.402,15.415,9.368,15.417,9.333,15.417z M10.217,13.783
		l2.475-0.353l9.369-9.369c0.585-0.585,0.585-1.537,0-2.121C21.777,1.656,21.401,1.5,21,1.5s-0.777,0.156-1.061,0.439l-9.369,9.369
		L10.217,13.783z"/>
	<path d="M2.25,24C1.009,24,0,22.991,0,21.75V5.25C0,4.009,1.009,3,2.25,3h10.5c0.414,0,0.75,0.336,0.75,0.75S13.164,4.5,12.75,4.5
		H2.25C1.836,4.5,1.5,4.836,1.5,5.25v16.5c0,0.414,0.336,0.75,0.75,0.75h19.5c0.414,0,0.75-0.336,0.75-0.75V8.25
		c0-0.414,0.336-0.75,0.75-0.75S24,7.836,24,8.25v13.5c0,1.241-1.009,2.25-2.25,2.25H2.25z"/>
	<path d="M3.75,21C3.336,21,3,20.664,3,20.25V6.75C3,6.336,3.336,6,3.75,6H9c0.414,0,0.75,0.336,0.75,0.75S9.414,7.5,9,7.5H4.5v3
		h2.25c0.414,0,0.75,0.336,0.75,0.75S7.164,12,6.75,12H4.5v4.5h3.75C8.664,16.5,9,16.836,9,17.25v2.25h10.5V18h-3.75
		C15.336,18,15,17.664,15,17.25s0.336-0.75,0.75-0.75h3.75V15h-2.25c-0.414,0-0.75-0.336-0.75-0.75s0.336-0.75,0.75-0.75h2.25v-2.25
		c0-0.414,0.336-0.75,0.75-0.75S21,10.836,21,11.25v9c0,0.414-0.336,0.75-0.75,0.75H3.75z M7.5,19.5V18h-3v1.5H7.5z"/>
</g>
</svg>
