<svg id="Outline_Version" data-name="Outline Version" xmlns="http://www.w3.org/2000/svg" viewBox="0 0 24 24"><title>protocol-open-id</title><path d="M23.6,7.66a.75.75,0,0,0-.77,0L21,8.91a18.81,18.81,0,0,0-5.82-2V1.73A.75.75,0,0,0,14,1.09l-3.9,2.45a.75.75,0,0,0-.35.64V6.79C4.48,7.41.24,10.72,0,14.54-.1,16.43.73,21,10.88,23H11a.75.75,0,0,0,.41-.12l3.42-2.24A.75.75,0,0,0,15.2,20V11.63a17.35,17.35,0,0,1,2,.62l-.73.47a.75.75,0,0,0,.26,1.37l6.34,1.23a.75.75,0,0,0,.89-.74V8.32A.75.75,0,0,0,23.6,7.66Zm-1.1,6L18.9,13l.36-.23a.75.75,0,0,0-.09-1.32A19,19,0,0,0,14.57,10a.77.77,0,0,0-.61.17.75.75,0,0,0-.27.57v8.92l-2.83,1.85c-6.05-1.23-9.55-3.78-9.36-6.85S5.78,8.56,10.6,8.22a.75.75,0,0,0,.7-.75V4.59l2.4-1.5V7.56a.75.75,0,0,0,.65.74,17.32,17.32,0,0,1,6.34,2.13.75.75,0,0,0,.79,0l1-.69Z"/><path d="M10.54,9.94c-3.77,0-7,2.1-7.15,4.69-.08,1.19.44,4.06,7,5h.1a.75.75,0,0,0,.75-.75V10.69A.75.75,0,0,0,10.54,9.94Zm-.75,8c-3.15-.57-5-1.78-4.9-3.23s2.09-3,4.9-3.26Z"/></svg>