<?xml version="1.0" encoding="utf-8"?>
<!-- Generator: Adobe Illustrator 22.1.0, SVG Export Plug-In . SVG Version: 6.00 Build 0)  -->
<svg version="1.1" id="Layer_1" xmlns="http://www.w3.org/2000/svg" xmlns:xlink="http://www.w3.org/1999/xlink" x="0px" y="0px"
	 viewBox="0 0 24 24" style="enable-background:new 0 0 24 24;" xml:space="preserve">
<title>protection-shield-1</title>
<g>
	<path d="M12,24.001c-0.461,0-0.914-0.084-1.346-0.25l-1.041-0.4C4.76,21.484,1.5,16.737,1.5,11.538V3.924
		C1.495,3.048,2.008,2.245,2.806,1.88C5.666,0.631,8.686,0,11.788,0l0.219,0.001L12.193,0c3.115,0,6.14,0.631,8.989,1.875
		c0.809,0.37,1.324,1.175,1.318,2.054v7.609c0,5.199-3.26,9.946-8.113,11.813l-1.041,0.4C12.914,23.917,12.461,24.001,12,24.001z
		 M11.8,1.5c-2.903,0-5.723,0.589-8.382,1.749C3.165,3.365,2.998,3.629,3,3.919v7.619c0,4.583,2.874,8.768,7.151,10.413l1.041,0.4
		c0.26,0.1,0.531,0.151,0.808,0.151s0.548-0.051,0.808-0.15l1.041-0.4C18.126,20.305,21,16.121,21,11.538V3.924
		c0.002-0.293-0.167-0.559-0.43-0.68C17.921,2.087,15.101,1.5,12.194,1.5l-0.187,0.001L11.8,1.5z"/>
	<path d="M11.996,20.463c-0.344,0-0.682-0.063-1.004-0.187l-0.712-0.275c-3.468-1.315-5.738-4.565-5.78-8.277V5.917
		c-0.004-0.69,0.4-1.324,1.029-1.613C7.558,3.438,9.698,3,11.896,3l0.175,0c1.782,0,3.535,0.288,5.211,0.857
		c0.069,0.013,0.135,0.036,0.198,0.068c0.37,0.131,0.677,0.249,0.964,0.372c0.645,0.296,1.052,0.932,1.048,1.625v2.301
		c0.003,0.04,0.003,0.079,0,0.118v3.376c-0.042,3.719-2.313,6.97-5.784,8.287l-0.707,0.273
		C12.678,20.401,12.34,20.463,11.996,20.463z M9.909,18.183c0.299,0.163,0.603,0.303,0.907,0.418l0.715,0.276
		c0.149,0.057,0.306,0.086,0.465,0.086s0.316-0.029,0.466-0.087l0.71-0.274c2.894-1.097,4.785-3.803,4.82-6.895V10.1L9.909,18.183z
		 M7.158,15.631c0.406,0.64,0.904,1.208,1.485,1.696l9.349-9.349V5.917c0.001-0.108-0.06-0.205-0.155-0.248
		c-0.16-0.068-0.328-0.136-0.507-0.204L7.158,15.631z M11.886,4.5c-1.988,0-3.923,0.396-5.75,1.176C6.059,5.712,5.999,5.81,6,5.911
		v5.805c0.01,0.855,0.164,1.692,0.459,2.492l9.261-9.257c-1.172-0.3-2.372-0.452-3.576-0.452L11.886,4.5z"/>
</g>
</svg>
