<?xml version="1.0" encoding="utf-8"?>
<!-- Generator: Adobe Illustrator 22.1.0, SVG Export Plug-In . SVG Version: 6.00 Build 0)  -->
<svg version="1.1" id="Layer_1" xmlns="http://www.w3.org/2000/svg" xmlns:xlink="http://www.w3.org/1999/xlink" x="0px" y="0px"
	 viewBox="0 0 24 24" style="enable-background:new 0 0 24 24;" xml:space="preserve">
<title>public-service-police-1</title>
<g>
	<path d="M17.25,20.213c-0.96,0-1.808-0.615-2.121-1.5H7.371c-0.314,0.885-1.162,1.5-2.121,1.5s-1.808-0.615-2.121-1.5H2.25
		c-1.241,0-2.25-1.009-2.25-2.25v-1.5c0-1.889,1.42-3.482,3.271-3.719l1.643-3.287c0.384-0.767,1.155-1.244,2.013-1.244H10.5v-1.5
		c0-1.241,1.009-2.25,2.25-2.25c1.241,0,2.25,1.009,2.25,2.25v1.506c0.788,0.059,1.482,0.522,1.84,1.237l1.624,3.256h1.786
		c2.068,0,3.75,1.682,3.75,3.75v1.5c0,1.241-1.009,2.25-2.25,2.25h-2.379C19.058,19.598,18.21,20.213,17.25,20.213z M17.25,17.213
		c-0.414,0-0.75,0.336-0.75,0.75s0.336,0.75,0.75,0.75S18,18.376,18,17.963S17.664,17.213,17.25,17.213z M5.25,17.213
		c-0.414,0-0.75,0.336-0.75,0.75s0.336,0.75,0.75,0.75S6,18.376,6,17.963S5.664,17.213,5.25,17.213z M21.75,17.213
		c0.414,0,0.75-0.336,0.75-0.75v-1.5c0-1.241-1.009-2.25-2.25-2.25H3.75c-1.241,0-2.25,1.009-2.25,2.25v1.5
		c0,0.414,0.336,0.75,0.75,0.75h0.879c0.314-0.885,1.162-1.5,2.121-1.5s1.808,0.615,2.121,1.5h7.757
		c0.314-0.885,1.162-1.5,2.121-1.5s1.808,0.615,2.121,1.5H21.75z M16.788,11.213l-1.29-2.586c-0.127-0.255-0.384-0.414-0.67-0.414
		h-7.9c-0.286,0-0.543,0.159-0.671,0.415l-1.292,2.585H16.788z M13.5,6.713v-1.5c0-0.414-0.336-0.75-0.75-0.75S12,4.799,12,5.213
		v1.5H13.5z"/>
</g>
</svg>
