<?xml version="1.0" encoding="utf-8"?>
<!-- Generator: Adobe Illustrator 22.1.0, SVG Export Plug-In . SVG Version: 6.00 Build 0)  -->
<svg version="1.1" id="Layer_1" xmlns="http://www.w3.org/2000/svg" xmlns:xlink="http://www.w3.org/1999/xlink" x="0px" y="0px"
	 viewBox="0 0 24 24" style="enable-background:new 0 0 24 24;" xml:space="preserve">
<title>public-service-police-van</title>
<g>
	<path d="M18.75,22.463c-0.96,0-1.808-0.615-2.121-1.5H7.371c-0.314,0.885-1.162,1.5-2.121,1.5s-1.808-0.615-2.121-1.5H2.25
		c-1.241,0-2.25-1.009-2.25-2.25v-12c0-1.241,1.009-2.25,2.25-2.25H9v-0.75c0-1.241,1.009-2.25,2.25-2.25
		c1.241,0,2.25,1.009,2.25,2.25v0.879C14.385,4.905,15,5.753,15,6.713v2.25h3.728c0.725,0,1.41,0.352,1.831,0.942l3.022,4.231
		C23.855,14.52,24,14.972,24,15.444v3.269c0,1.241-1.009,2.25-2.25,2.25h-0.879C20.558,21.848,19.71,22.463,18.75,22.463z
		 M18.75,19.463c-0.414,0-0.75,0.336-0.75,0.75s0.336,0.75,0.75,0.75s0.75-0.336,0.75-0.75S19.164,19.463,18.75,19.463z
		 M5.25,19.463c-0.414,0-0.75,0.336-0.75,0.75s0.336,0.75,0.75,0.75S6,20.626,6,20.213S5.664,19.463,5.25,19.463z M21.75,19.463
		c0.414,0,0.75-0.336,0.75-0.75v-3.269c0-0.157-0.048-0.308-0.139-0.436l-0.032-0.045H15v4.5h1.629c0.314-0.885,1.162-1.5,2.121-1.5
		s1.808,0.615,2.121,1.5H21.75z M13.5,19.463V6.713c0-0.414-0.336-0.75-0.75-0.75H2.25c-0.414,0-0.75,0.336-0.75,0.75v12
		c0,0.414,0.336,0.75,0.75,0.75h0.879c0.314-0.885,1.162-1.5,2.121-1.5s1.808,0.615,2.121,1.5H13.5z M21.257,13.463l-1.918-2.686
		c-0.14-0.196-0.369-0.314-0.61-0.314H15v3H21.257z M12,4.463v-0.75c0-0.414-0.336-0.75-0.75-0.75s-0.75,0.336-0.75,0.75v0.75H12z"
		/>
	<path d="M5.126,16.269c-0.162,0-0.316-0.051-0.446-0.147c-0.238-0.175-0.351-0.476-0.287-0.765l0.48-2.181l-1.652-1.64
		c-0.203-0.201-0.273-0.494-0.185-0.765c0.088-0.271,0.318-0.466,0.6-0.508l2.095-0.318l1.105-2.083
		C6.968,7.616,7.222,7.463,7.5,7.463s0.532,0.153,0.662,0.398l1.105,2.083l2.095,0.318c0.282,0.043,0.512,0.238,0.6,0.509
		c0.089,0.271,0.018,0.564-0.185,0.765l-1.652,1.64l0.48,2.181c0.064,0.289-0.049,0.589-0.287,0.765
		c-0.13,0.095-0.283,0.146-0.445,0.146c-0.13,0-0.258-0.034-0.371-0.098L7.5,15.033l-2.004,1.138
		C5.384,16.235,5.256,16.269,5.126,16.269L5.126,16.269z M7.5,13.42c0.13,0,0.258,0.034,0.371,0.098l0.908,0.516l-0.207-0.938
		c-0.056-0.252,0.021-0.511,0.204-0.693l0.887-0.881L8.669,11.37c-0.234-0.035-0.439-0.181-0.55-0.39L7.5,9.813L6.881,10.98
		c-0.111,0.209-0.316,0.354-0.55,0.39l-0.995,0.151l0.887,0.881c0.183,0.182,0.26,0.441,0.204,0.693l-0.207,0.938l0.909-0.516
		C7.242,13.454,7.37,13.42,7.5,13.42z"/>
</g>
</svg>
