<?xml version="1.0" encoding="utf-8"?>
<!-- Generator: Adobe Illustrator 22.1.0, SVG Export Plug-In . SVG Version: 6.00 Build 0)  -->
<svg version="1.1" id="Layer_1" xmlns="http://www.w3.org/2000/svg" xmlns:xlink="http://www.w3.org/1999/xlink" x="0px" y="0px"
	 viewBox="0 0 24 24" style="enable-background:new 0 0 24 24;" xml:space="preserve">
<title>public-service-police</title>
<g>
	<path d="M20.25,24.013c-1.241,0-2.25-1.009-2.25-2.25v-0.75H6v0.75c0,1.241-1.009,2.25-2.25,2.25s-2.25-1.009-2.25-2.25v-0.879
		C0.615,20.571,0,19.723,0,18.763v-2.251c0-0.361,0.075-0.712,0.224-1.044c0.002-0.005,0.009-0.019,0.011-0.024
		c0.126-0.275,0.3-0.527,0.515-0.742l1.94-1.94L2.158,12.23c-0.141-0.141-0.329-0.219-0.529-0.219H0.75
		c-0.414,0-0.75-0.336-0.75-0.75s0.336-0.75,0.75-0.75h0.879c0.601,0,1.166,0.234,1.59,0.659l0.237,0.238L4.771,7.9
		c0.268-0.708,0.805-1.281,1.483-1.603C6.088,5.979,6,5.625,6,5.263c0-1.241,1.009-2.25,2.25-2.25h7.5c1.241,0,2.25,1.009,2.25,2.25
		c0,0.362-0.088,0.716-0.253,1.034c0.677,0.322,1.215,0.895,1.482,1.601l1.314,3.51l0.237-0.238c0.425-0.425,0.99-0.659,1.591-0.659
		h0.879c0.414,0,0.75,0.336,0.75,0.75s-0.336,0.75-0.75,0.75h-0.879c-0.2,0-0.388,0.078-0.53,0.22l-0.531,0.532l1.94,1.94
		c0.211,0.211,0.384,0.459,0.512,0.735c0.006,0.01,0.016,0.031,0.024,0.053C23.926,15.803,24,16.153,24,16.512v2.251
		c0,0.96-0.615,1.808-1.5,2.121v0.879C22.5,23.004,21.491,24.013,20.25,24.013z M19.5,21.763c0,0.414,0.336,0.75,0.75,0.75
		S21,22.176,21,21.763v-0.75h-1.5V21.763z M3,21.763c0,0.414,0.336,0.75,0.75,0.75s0.75-0.336,0.75-0.75v-0.75H3V21.763z
		 M21.75,19.513c0.414,0,0.75-0.336,0.75-0.75v-2.25h-2.338c-0.97,0-1.828,0.618-2.135,1.538l-0.487,1.462H21.75z M15.959,19.513
		l0.645-1.936c0.511-1.534,1.941-2.564,3.558-2.564h1.277l-1.5-1.5H4.061l-1.5,1.5h1.277c1.616,0,3.046,1.03,3.557,2.564
		l0.645,1.936H15.959z M1.5,18.763c0,0.414,0.336,0.75,0.75,0.75h4.209l-0.487-1.462c-0.307-0.92-1.165-1.538-2.135-1.538H1.5
		V18.763z M19.168,12.013l-1.343-3.587c-0.207-0.546-0.739-0.913-1.324-0.913H7.499c-0.585,0-1.118,0.368-1.324,0.915l-1.343,3.585
		H19.168z M15.75,6.013c0.414,0,0.75-0.336,0.75-0.75s-0.336-0.75-0.75-0.75h-3v1.5H15.75z M8.25,4.513
		c-0.414,0-0.75,0.336-0.75,0.75s0.336,0.75,0.75,0.75h3v-1.5H8.25z"/>
	<path d="M9.75,18.013c-0.414,0-0.75-0.336-0.75-0.75s0.336-0.75,0.75-0.75h4.5c0.414,0,0.75,0.336,0.75,0.75s-0.336,0.75-0.75,0.75
		H9.75z"/>
	<path d="M6,3.013c-0.2,0-0.389-0.078-0.53-0.22l-1.5-1.5c-0.142-0.141-0.22-0.33-0.22-0.53s0.078-0.389,0.22-0.53
		c0.141-0.142,0.33-0.22,0.53-0.22s0.389,0.078,0.53,0.22l1.5,1.5c0.142,0.141,0.22,0.33,0.22,0.53s-0.078,0.389-0.22,0.53
		C6.389,2.935,6.2,3.013,6,3.013z"/>
	<path d="M3.75,5.263c-0.091,0-0.18-0.016-0.265-0.049l-1.984-0.75c-0.387-0.146-0.583-0.58-0.437-0.967
		c0.11-0.29,0.392-0.485,0.702-0.485c0.091,0,0.18,0.016,0.265,0.049l1.984,0.75c0.387,0.146,0.583,0.58,0.437,0.967
		C4.342,5.068,4.06,5.263,3.75,5.263z"/>
	<path d="M20.25,5.263c-0.31,0-0.592-0.195-0.701-0.485c-0.071-0.188-0.065-0.391,0.018-0.574c0.082-0.183,0.231-0.322,0.418-0.393
		l1.984-0.75c0.085-0.032,0.174-0.049,0.265-0.049c0.31,0,0.592,0.195,0.701,0.485C23.006,3.685,23,3.889,22.917,4.072
		c-0.082,0.183-0.231,0.322-0.418,0.393l-1.984,0.75C20.43,5.247,20.341,5.263,20.25,5.263z"/>
	<path d="M18,3.013c-0.2,0-0.389-0.078-0.53-0.22c-0.142-0.141-0.22-0.33-0.22-0.53s0.078-0.389,0.22-0.53l1.5-1.5
		c0.142-0.142,0.33-0.22,0.53-0.22s0.389,0.078,0.53,0.22c0.142,0.141,0.22,0.33,0.22,0.53s-0.078,0.389-0.22,0.53l-1.5,1.5
		C18.389,2.935,18.2,3.013,18,3.013z"/>
</g>
</svg>
