<?xml version="1.0" encoding="utf-8"?>
<!-- Generator: Adobe Illustrator 22.1.0, SVG Export Plug-In . SVG Version: 6.00 Build 0)  -->
<svg version="1.1" id="Regular" xmlns="http://www.w3.org/2000/svg" xmlns:xlink="http://www.w3.org/1999/xlink" x="0px" y="0px"
	 viewBox="0 0 24 24" style="enable-background:new 0 0 24 24;" xml:space="preserve">
<title>pufferfish</title>
<g>
	<path d="M12,23.242c-5.376,0-9.75-4.374-9.75-9.75h-1.5c-0.414,0-0.75-0.336-0.75-0.75s0.336-0.75,0.75-0.75h1.583
		c0.1-0.924,0.295-1.796,0.581-2.601C1.61,8.635,0.82,7.769,0.566,6.814c-0.261-0.981,0.13-1.716,0.31-1.987
		c0.628-0.943,1.381-1.158,1.901-1.172l0.07-0.001c0.923,0,1.871,0.582,2.889,1.777C5.887,5.315,6.04,5.207,6.194,5.107
		C5.962,4.696,5.98,4.271,5.994,3.966C5.997,3.887,6,3.816,6,3.742c0-1.443,1.688-2.554,4.405-2.9c0.523-0.066,1.055-0.1,1.581-0.1
		c0.551,0,1.083,0.033,1.606,0.099C16.312,1.188,18,2.3,18,3.742c0,0.069,0.003,0.137,0.006,0.202
		c0.014,0.322,0.032,0.751-0.2,1.162c0.154,0.101,0.307,0.209,0.458,0.324c1.02-1.195,1.971-1.777,2.902-1.777l0.056,0.001
		c0.521,0.015,1.274,0.23,1.902,1.172c0.18,0.271,0.572,1.006,0.31,1.987c-0.254,0.955-1.044,1.822-2.349,2.578
		c0.286,0.805,0.481,1.677,0.581,2.601h1.583c0.414,0,0.75,0.336,0.75,0.75s-0.336,0.75-0.75,0.75h-1.5
		C21.75,18.868,17.376,23.242,12,23.242z M3.755,13.22c-0.003,0.092-0.005,0.181-0.005,0.272c0,4.549,3.701,8.25,8.25,8.25
		s8.25-3.701,8.25-8.25c0-0.092-0.002-0.182-0.005-0.272c-2.61-1.181-5.383-1.846-8.245-1.977
		C9.138,11.374,6.365,12.039,3.755,13.22z M11.995,2.242c-0.471,0-0.94,0.03-1.4,0.088C8.602,2.584,7.5,3.326,7.5,3.742
		c0,0.099-0.004,0.195-0.008,0.288C7.475,4.413,7.475,4.413,7.8,4.555C8.07,4.673,8.247,4.94,8.25,5.235
		c0.003,0.296-0.169,0.566-0.437,0.689c-2.087,0.958-3.458,2.931-3.904,5.595c2.566-1.055,5.274-1.653,8.058-1.776
		c0.005,0,0.061,0,0.067,0c2.785,0.124,5.493,0.721,8.058,1.776c-0.447-2.665-1.817-4.638-3.904-5.595
		c-0.269-0.123-0.44-0.393-0.438-0.689c0.003-0.295,0.18-0.562,0.45-0.68c0.324-0.141,0.324-0.141,0.308-0.524
		C16.504,3.931,16.5,3.838,16.5,3.742c0-0.416-1.103-1.158-3.096-1.413C12.994,2.278,12.546,2.25,11.995,2.242z M19.368,6.448
		c0.422,0.47,0.792,0.994,1.104,1.563c1.123-0.683,1.43-1.276,1.512-1.583c0.104-0.39-0.042-0.668-0.109-0.77
		c-0.219-0.328-0.452-0.497-0.695-0.504l-0.017,0C20.893,5.153,20.311,5.329,19.368,6.448z M2.815,5.154
		C2.576,5.16,2.343,5.33,2.124,5.658C2.057,5.759,1.911,6.037,2.015,6.427c0.082,0.307,0.389,0.9,1.512,1.583
		C3.84,7.441,4.21,6.918,4.632,6.448C3.688,5.329,3.101,5.154,2.826,5.154V4.779L2.815,5.154z"/>
	<path d="M10.125,5.242c-0.044,0-0.088-0.004-0.131-0.012c-0.513-0.06-0.922-0.47-0.982-0.982C9.004,4.205,9,4.161,9,4.117
		s0.004-0.088,0.012-0.131c0.06-0.513,0.47-0.922,0.982-0.982c0.043-0.008,0.087-0.012,0.131-0.012s0.088,0.004,0.131,0.012
		c0.513,0.06,0.922,0.47,0.982,0.982c0.008,0.043,0.012,0.087,0.012,0.131s-0.004,0.088-0.012,0.131
		c-0.06,0.513-0.47,0.922-0.982,0.982C10.213,5.238,10.169,5.242,10.125,5.242z"/>
	<path d="M13.875,5.242c-0.044,0-0.088-0.004-0.131-0.011c-0.513-0.06-0.922-0.47-0.982-0.983c-0.008-0.042-0.011-0.086-0.011-0.13
		s0.004-0.088,0.011-0.13c0.06-0.513,0.47-0.923,0.982-0.983c0.043-0.008,0.087-0.011,0.131-0.011s0.088,0.004,0.131,0.011
		c0.513,0.06,0.922,0.47,0.983,0.983C14.996,4.029,15,4.073,15,4.117s-0.004,0.088-0.011,0.13c-0.061,0.513-0.47,0.923-0.983,0.983
		C13.963,5.238,13.919,5.242,13.875,5.242z"/>
	<path d="M11.25,8.242c-0.414,0-0.75-0.336-0.75-0.75s0.336-0.75,0.75-0.75h1.5c0.414,0,0.75,0.336,0.75,0.75s-0.336,0.75-0.75,0.75
		H11.25z"/>
</g>
</svg>
