<?xml version="1.0" encoding="utf-8"?>
<!-- Generator: Adobe Illustrator 22.1.0, SVG Export Plug-In . SVG Version: 6.00 Build 0)  -->
<svg version="1.1" id="Layer_1" xmlns="http://www.w3.org/2000/svg" xmlns:xlink="http://www.w3.org/1999/xlink" x="0px" y="0px"
	 viewBox="0 0 24 24" style="enable-background:new 0 0 24 24;" xml:space="preserve">
<title>punishment-prisoner-ball</title>
<g>
	<path d="M4.5,7C2.639,7,1.125,5.486,1.125,3.625S2.639,0.25,4.5,0.25s3.375,1.514,3.375,3.375S6.361,7,4.5,7z M4.5,1.75
		c-1.034,0-1.875,0.841-1.875,1.875S3.466,5.5,4.5,5.5s1.875-0.841,1.875-1.875S5.534,1.75,4.5,1.75z"/>
	<path d="M4.5,23.5c-1.654,0-3-1.346-3-3v-3.128C0.615,17.058,0,16.21,0,15.25v-4.5C0,8.682,1.682,7,3.75,7h1.5
		C7.318,7,9,8.682,9,10.75v4.5c0,0.96-0.615,1.808-1.5,2.122V19H9c0.827,0,1.5-0.673,1.5-1.5c0-1.654,1.346-3,3-3h0.511
		c-0.336-0.702-0.511-1.469-0.511-2.25C13.5,9.355,15.855,7,18.75,7S24,9.355,24,12.25c0,2.895-2.355,5.25-5.25,5.25
		c-1.382,0-2.677-0.531-3.666-1.5H13.5c-0.827,0-1.5,0.673-1.5,1.5c0,1.654-1.346,3-3,3H7.5C7.5,22.154,6.154,23.5,4.5,23.5z
		 M3,20.5C3,21.327,3.673,22,4.5,22S6,21.327,6,20.5H3z M6,19v-1.5H3V19H6z M18.75,8.5c-2.068,0-3.75,1.682-3.75,3.75
		c0,2.068,1.682,3.75,3.75,3.75s3.75-1.682,3.75-3.75C22.5,10.182,20.818,8.5,18.75,8.5z M1.5,15.25C1.5,15.664,1.836,16,2.25,16
		h4.5c0.414,0,0.75-0.336,0.75-0.75V14.5h-6V15.25z M7.5,13v-1.5h-6V13H7.5z M7.368,10C7.055,9.121,6.21,8.5,5.25,8.5h-1.5
		c-0.96,0-1.805,0.621-2.118,1.5H7.368z"/>
</g>
</svg>
