<?xml version="1.0" encoding="utf-8"?>
<!-- Generator: Adobe Illustrator 22.1.0, SVG Export Plug-In . SVG Version: 6.00 Build 0)  -->
<svg version="1.1" id="Layer_1" xmlns="http://www.w3.org/2000/svg" xmlns:xlink="http://www.w3.org/1999/xlink" x="0px" y="0px"
	 viewBox="0 0 24 24" style="enable-background:new 0 0 24 24;" xml:space="preserve">
<title>punishment-torture</title>
<g>
	<path d="M12,24C5.383,24,0,18.617,0,12C0,5.383,5.383,0,12,0c6.617,0,12,5.383,12,12C24,18.617,18.617,24,12,24z M12,1.5
		C6.21,1.5,1.5,6.21,1.5,12c0,5.79,4.71,10.5,10.5,10.5c5.79,0,10.5-4.71,10.5-10.5C22.5,6.21,17.79,1.5,12,1.5z"/>
	<path d="M12,9c-1.654,0-3-1.346-3-3s1.346-3,3-3c1.654,0,3,1.346,3,3S13.654,9,12,9z M12,4.5c-0.827,0-1.5,0.673-1.5,1.5
		s0.673,1.5,1.5,1.5s1.5-0.673,1.5-1.5S12.827,4.5,12,4.5z"/>
	<path d="M17.25,19.5c-0.281,0-0.538-0.159-0.666-0.405l-0.418,0.279c-0.123,0.082-0.267,0.126-0.416,0.126
		c-0.251,0-0.485-0.125-0.624-0.334c-0.229-0.344-0.136-0.811,0.208-1.04l0.532-0.354c-0.915-1.226-2.343-1.975-3.889-2.022
		c-1.512,0.047-2.93,0.796-3.843,2.022l0.532,0.355c0.344,0.229,0.437,0.696,0.208,1.04C8.735,19.375,8.501,19.5,8.25,19.5
		c-0.149,0-0.292-0.044-0.416-0.126l-0.418-0.279c-0.128,0.244-0.385,0.402-0.665,0.402c-0.09,0-0.179-0.016-0.264-0.048
		c-0.388-0.146-0.583-0.58-0.438-0.967c0.029-0.076,0.06-0.154,0.095-0.235l-0.56-0.374c-0.344-0.229-0.437-0.696-0.208-1.04
		C5.515,16.625,5.749,16.5,6,16.5c0.149,0,0.292,0.044,0.416,0.126l0.468,0.312C7.445,16.167,8.168,15.527,9,15.066v-3.471
		c-0.981-0.273-1.872-0.674-2.61-1.175l-0.61,0.61c-0.142,0.142-0.33,0.22-0.53,0.22s-0.389-0.078-0.53-0.22
		C4.578,10.889,4.5,10.7,4.5,10.5s0.078-0.389,0.22-0.53l0.54-0.54c-0.256-0.298-0.447-0.6-0.571-0.902
		C4.532,8.146,4.716,7.707,5.099,7.55C5.19,7.513,5.285,7.494,5.383,7.494c0.306,0,0.579,0.183,0.694,0.466
		c0.054,0.132,0.136,0.269,0.244,0.409L6.97,7.72C7.111,7.578,7.3,7.5,7.5,7.5s0.389,0.078,0.53,0.22
		c0.142,0.141,0.22,0.33,0.22,0.53S8.172,8.639,8.03,8.78l-0.56,0.56c0.682,0.411,1.527,0.738,2.429,0.934
		C10.593,10.425,11.297,10.5,12,10.5c0.702,0,1.405-0.075,2.087-0.222c0.006-0.001,0.031-0.006,0.037-0.007
		c0.885-0.193,1.727-0.519,2.407-0.929L15.97,8.78c-0.142-0.141-0.22-0.33-0.22-0.53s0.078-0.389,0.22-0.53S16.3,7.5,16.5,7.5
		s0.389,0.078,0.53,0.22l0.65,0.65c0.106-0.138,0.187-0.274,0.241-0.404C18.037,7.683,18.309,7.5,18.615,7.5
		c0.098,0,0.194,0.019,0.284,0.056c0.186,0.076,0.33,0.22,0.407,0.405c0.077,0.185,0.078,0.389,0.002,0.574
		c-0.123,0.3-0.313,0.6-0.567,0.897L19.28,9.97c0.142,0.141,0.22,0.33,0.22,0.53s-0.078,0.389-0.22,0.53s-0.33,0.22-0.53,0.22
		s-0.389-0.078-0.53-0.22l-0.609-0.609c-0.737,0.5-1.629,0.901-2.611,1.174v3.473c0.832,0.46,1.555,1.099,2.115,1.87l0.469-0.312
		C17.707,16.543,17.851,16.5,18,16.5c0.251,0,0.485,0.125,0.625,0.334c0.229,0.344,0.136,0.811-0.208,1.04l-0.56,0.374
		c0.035,0.082,0.067,0.161,0.096,0.238c0.071,0.187,0.064,0.391-0.018,0.573c-0.083,0.183-0.231,0.322-0.419,0.393
		C17.429,19.484,17.341,19.5,17.25,19.5z M12,14.25c0.507,0.015,1.01,0.088,1.5,0.218v-2.567C13.005,11.967,12.502,12,12,12
		c-0.502,0-1.005-0.033-1.5-0.098v2.563c0.483-0.127,0.978-0.2,1.477-0.215c0.004,0,0.008,0,0.011,0S11.996,14.25,12,14.25z"/>
</g>
</svg>
