<?xml version="1.0" encoding="utf-8"?>
<!-- Generator: Adobe Illustrator 22.1.0, SVG Export Plug-In . SVG Version: 6.00 Build 0)  -->
<svg version="1.1" id="Layer_1" xmlns="http://www.w3.org/2000/svg" xmlns:xlink="http://www.w3.org/1999/xlink" x="0px" y="0px"
	 viewBox="0 0 24 24" style="enable-background:new 0 0 24 24;" xml:space="preserve">
<title>punishment-handcuffs</title>
<g>
	<path d="M18.758,24.027c-0.475,0-0.951-0.065-1.414-0.194c-1.352-0.376-2.476-1.256-3.165-2.477
		c-1.37-2.425-0.625-5.452,1.687-6.968l0.649-3.278c0.07-0.35,0.379-0.604,0.736-0.604H18V7.502c0-3.308-2.692-6-6-6
		c-3.308,0-6,2.692-6,6v3.004h0.75c0.357,0,0.667,0.254,0.736,0.604l0.649,3.277c0.696,0.458,1.276,1.079,1.686,1.805
		c0.69,1.221,0.863,2.637,0.487,3.989c-0.376,1.351-1.255,2.475-2.476,3.165c-0.789,0.445-1.679,0.681-2.574,0.681
		c-0.475,0-0.951-0.065-1.414-0.194c-1.351-0.376-2.475-1.256-3.165-2.477c-0.69-1.221-0.862-2.637-0.487-3.988
		c0.342-1.231,1.111-2.283,2.173-2.98l0.649-3.278c0.069-0.35,0.378-0.604,0.736-0.604H4.5V7.502c0-4.135,3.365-7.5,7.5-7.5
		s7.5,3.365,7.5,7.5v3.004h0.75c0.357,0,0.666,0.254,0.736,0.604l0.649,3.278c0.696,0.458,1.277,1.079,1.687,1.804
		c0.689,1.221,0.863,2.637,0.487,3.989c-0.376,1.351-1.256,2.475-2.477,3.165C20.543,23.791,19.653,24.027,18.758,24.027z
		 M17.273,15.002c-0.042,0.215-0.176,0.4-0.367,0.508c-1.8,1.017-2.438,3.309-1.421,5.109c0.493,0.872,1.296,1.5,2.26,1.769
		c0.332,0.092,0.672,0.139,1.011,0.139c0.638,0,1.274-0.168,1.838-0.487c1.8-1.017,2.438-3.309,1.421-5.11
		c-0.335-0.594-0.827-1.085-1.421-1.42c-0.191-0.108-0.325-0.293-0.367-0.508l-0.593-2.996h-1.768L17.273,15.002z M3.773,15.002
		c-0.042,0.215-0.176,0.4-0.367,0.508c-0.872,0.492-1.5,1.295-1.768,2.26c-0.268,0.965-0.145,1.977,0.348,2.849
		c0.493,0.872,1.296,1.5,2.26,1.769c0.331,0.092,0.672,0.139,1.011,0.139c0.639,0,1.274-0.168,1.838-0.487
		c0.872-0.493,1.5-1.295,1.769-2.26c0.268-0.965,0.145-1.977-0.348-2.849c-0.335-0.594-0.827-1.085-1.421-1.42
		c-0.191-0.108-0.325-0.293-0.367-0.508l-0.593-2.996H4.366L3.773,15.002z"/>
	<path d="M5.25,21.002c-1.241,0-2.25-1.009-2.25-2.25s1.009-2.25,2.25-2.25s2.25,1.009,2.25,2.25S6.491,21.002,5.25,21.002z
		 M5.25,18.002c-0.414,0-0.75,0.336-0.75,0.75s0.336,0.75,0.75,0.75S6,19.166,6,18.752S5.664,18.002,5.25,18.002z"/>
	<path d="M18.75,21.002c-1.241,0-2.25-1.009-2.25-2.25s1.009-2.25,2.25-2.25S21,17.512,21,18.752S19.991,21.002,18.75,21.002z
		 M18.75,18.002c-0.414,0-0.75,0.336-0.75,0.75s0.336,0.75,0.75,0.75s0.75-0.336,0.75-0.75S19.164,18.002,18.75,18.002z"/>
</g>
</svg>
