<?xml version="1.0" encoding="utf-8"?>
<!-- Generator: Adobe Illustrator 22.1.0, SVG Export Plug-In . SVG Version: 6.00 Build 0)  -->
<svg version="1.1" id="Layer_1" xmlns="http://www.w3.org/2000/svg" xmlns:xlink="http://www.w3.org/1999/xlink" x="0px" y="0px"
	 viewBox="0 0 24 24" style="enable-background:new 0 0 24 24;" xml:space="preserve">
<title>punishment-hanging-noose</title>
<g>
	<path d="M11.856,23.999c-3.249,0-5.892-2.644-5.892-5.892c0-1.574,0.837-3.758,2.239-5.841C9.265,10.687,10.782,9,11.857,9
		c1.075,0,2.592,1.687,3.654,3.266c1.402,2.084,2.239,4.267,2.239,5.841c0,1.574-0.614,3.054-1.727,4.167
		C14.911,23.386,13.431,23.999,11.856,23.999L11.856,23.999z M11.857,10.5c-0.774,0.122-4.393,4.542-4.393,7.606
		c0,2.421,1.971,4.392,4.392,4.392c1.174,0,2.277-0.457,3.106-1.286c0.83-0.83,1.287-1.933,1.287-3.106
		C16.25,15.043,12.631,10.623,11.857,10.5z"/>
	<path d="M10.357,8.25c-0.286,0-0.543-0.159-0.671-0.414c-0.185-0.37-0.034-0.822,0.335-1.006l3-1.5
		c0.104-0.052,0.22-0.079,0.335-0.079c0.286,0,0.543,0.159,0.671,0.415c0.185,0.37,0.034,0.821-0.335,1.006l-3,1.5
		C10.588,8.223,10.473,8.25,10.357,8.25z"/>
	<path d="M10.357,5.25c-0.286,0-0.543-0.159-0.671-0.414c-0.185-0.37-0.034-0.822,0.335-1.006l1.086-0.543V0.75
		c0-0.414,0.336-0.75,0.75-0.75c0.414,0,0.75,0.336,0.75,0.75v1.786l0.415-0.207c0.104-0.052,0.22-0.079,0.335-0.079
		c0.286,0,0.543,0.159,0.671,0.415c0.185,0.37,0.034,0.821-0.335,1.006l-3,1.5C10.588,5.223,10.473,5.25,10.357,5.25z"/>
</g>
</svg>
