<svg id="Outline_Version" data-name="Outline Version" xmlns="http://www.w3.org/2000/svg" viewBox="0 0 24 24"><title>q&amp;amp;a-quora</title><path d="M12.08,3.28c-3.12,0-5.86,3-5.86,6.46V12.1c0,3.56,2.4,6.46,5.36,6.46a6.06,6.06,0,0,0,1.5-.18.75.75,0,0,0,.43-1.1,5.58,5.58,0,0,0-1.87-2v-1a7.16,7.16,0,0,1,3.85,2,.72.72,0,0,0,.59.24.75.75,0,0,0,.56-.31,6.73,6.73,0,0,0,1.3-4.07V9.74C17.94,6.3,15.2,3.28,12.08,3.28Zm4.36,8.82a5.3,5.3,0,0,1-.56,2.46,7.94,7.94,0,0,0-5-1.84.75.75,0,0,0-.71.75v2.25a.77.77,0,0,0,.5.71,2.62,2.62,0,0,1,.85.63c-2.09-.06-3.77-2.26-3.77-5V9.74c0-2.84,2.3-5,4.36-5s4.36,2.12,4.36,5Z"/><path d="M22.75,10.89A10.83,10.83,0,0,0,12,0,10.83,10.83,0,0,0,1.25,10.89,10.83,10.83,0,0,0,12,21.77a10.59,10.59,0,0,0,2-.19A4.87,4.87,0,0,0,18.36,24a8.58,8.58,0,0,0,1.6-.16.75.75,0,0,0,.61-.74V21.38a.75.75,0,0,0-.47-.7,3.3,3.3,0,0,1-1.55-1.17A10.93,10.93,0,0,0,22.75,10.89Zm-5.57,7.78a.75.75,0,0,0-.3.82,4.2,4.2,0,0,0,2.19,2.38v.59A3.6,3.6,0,0,1,15,20.38a.75.75,0,0,0-.66-.39l-.18,0a9.11,9.11,0,0,1-2.18.27,9.33,9.33,0,0,1-9.25-9.39A9.33,9.33,0,0,1,12,1.5a9.33,9.33,0,0,1,9.25,9.39A9.43,9.43,0,0,1,17.18,18.66Z"/></svg>