<?xml version="1.0" encoding="utf-8"?>
<!-- Generator: Adobe Illustrator 22.1.0, SVG Export Plug-In . SVG Version: 6.00 Build 0)  -->
<svg version="1.1" id="Layer_1" xmlns="http://www.w3.org/2000/svg" xmlns:xlink="http://www.w3.org/1999/xlink" x="0px" y="0px"
	 viewBox="0 0 24 24" style="enable-background:new 0 0 24 24;" xml:space="preserve">
<title>qr-code</title>
<g>
	<path d="M0.75,15C0.336,15,0,14.664,0,14.25v-1.5C0,12.336,0.336,12,0.75,12s0.75,0.336,0.75,0.75v0.75h0.75
		C2.664,13.5,3,13.836,3,14.25S0.75,15,0.75,15z"/>
	<path d="M0.75,7.5C0.336,7.5,0,7.164,0,6.75v-6C0,0.336,0.336,0,0.75,0h6C7.164,0,7.5,0.336,7.5,0.75v6
		c0,0.414-0.336,0.75-0.75,0.75H0.75z M6,6V1.5H1.5V6H6z"/>
	<path d="M17.25,7.5c-0.414,0-0.75-0.336-0.75-0.75v-6C16.5,0.336,16.836,0,17.25,0h6C23.664,0,24,0.336,24,0.75v6
		c0,0.414-0.336,0.75-0.75,0.75H17.25z M22.5,6V1.5H18V6H22.5z"/>
	<path d="M0.75,24C0.336,24,0,23.664,0,23.25v-6c0-0.414,0.336-0.75,0.75-0.75h6c0.414,0,0.75,0.336,0.75,0.75v6
		C7.5,23.664,7.164,24,6.75,24H0.75z M6,22.5V18H1.5v4.5H6z"/>
	<path d="M12,1.5c-0.414,0-0.75-0.336-0.75-0.75S11.586,0,12,0h2.25C14.664,0,15,0.336,15,0.75S14.664,1.5,14.25,1.5H12z"/>
	<path d="M9.75,4.5C9.336,4.5,9,4.164,9,3.75v-3C9,0.336,9.336,0,9.75,0s0.75,0.336,0.75,0.75V3H12c0.414,0,0.75,0.336,0.75,0.75
		S12.414,4.5,12,4.5H9.75z"/>
	<path d="M9.75,7.5C9.336,7.5,9,7.164,9,6.75S9.336,6,9.75,6h3.75V3.75C13.5,3.336,13.836,3,14.25,3S15,3.336,15,3.75v3
		c0,0.414-0.336,0.75-0.75,0.75H9.75z"/>
	<path d="M6.75,12C6.336,12,6,11.664,6,11.25V10.5H0.75C0.336,10.5,0,10.164,0,9.75S0.336,9,0.75,9h6C7.164,9,7.5,9.336,7.5,9.75
		v1.5C7.5,11.664,7.164,12,6.75,12z"/>
	<path d="M5.25,15c-0.414,0-0.75-0.336-0.75-0.75s0.336-0.75,0.75-0.75h1.5c0.414,0,0.75,0.336,0.75,0.75S5.25,15,5.25,15z"/>
	<path d="M20.25,24c-0.414,0-0.75-0.336-0.75-0.75v-3c0-0.414,0.336-0.75,0.75-0.75h2.25V18h-2.25c-0.414,0-0.75-0.336-0.75-0.75
		s0.336-0.75,0.75-0.75h3c0.414,0,0.75,0.336,0.75,0.75v3c0,0.414-0.336,0.75-0.75,0.75H21v1.5h2.25c0.414,0,0.75,0.336,0.75,0.75
		S23.664,24,23.25,24H20.25z"/>
	<path d="M9.75,24C9.336,24,9,23.664,9,23.25v-6c0-0.414,0.336-0.75,0.75-0.75s0.75,0.336,0.75,0.75v5.25h3.75
		c0.414,0,0.75,0.336,0.75,0.75S14.664,24,14.25,24H9.75z"/>
	<path d="M17.25,24c-0.414,0-0.75-0.336-0.75-0.75v-6c0-0.414,0.336-0.75,0.75-0.75S18,16.836,18,17.25v6
		C18,23.664,17.664,24,17.25,24z"/>
	<path d="M12.75,21C12.336,21,12,20.664,12,20.25s0.336-0.75,0.75-0.75h0.75V18h-0.75C12.336,18,12,17.664,12,17.25
		s0.336-0.75,0.75-0.75h1.5c0.414,0,0.75,0.336,0.75,0.75v3c0,0.414-0.336,0.75-0.75,0.75H12.75z"/>
	<path d="M9.75,15C9.336,15,9,14.664,9,14.25v-1.5C9,12.336,9.336,12,9.75,12s0.75,0.336,0.75,0.75v0.75h0.75
		c0.414,0,0.75,0.336,0.75,0.75S11.664,15,11.25,15H9.75z"/>
	<path d="M14.25,15c-0.414,0-0.75-0.336-0.75-0.75s0.336-0.75,0.75-0.75H15v-2.25c0-0.414,0.336-0.75,0.75-0.75
		s0.75,0.336,0.75,0.75v2.25h0.75c0.414,0,0.75,0.336,0.75,0.75S17.664,15,17.25,15H14.25z"/>
	<path d="M12.75,12C12.336,12,12,11.664,12,11.25V10.5H9.75C9.336,10.5,9,10.164,9,9.75S9.336,9,9.75,9h3
		c0.414,0,0.75,0.336,0.75,0.75v1.5C13.5,11.664,13.164,12,12.75,12z"/>
	<path d="M23.25,12c-0.414,0-0.75-0.336-0.75-0.75v-1.5C22.5,9.336,22.836,9,23.25,9S24,9.336,24,9.75v1.5
		C24,11.664,23.664,12,23.25,12z"/>
	<path d="M23.25,15c-0.414,0-0.75-0.336-0.75-0.75V13.5c0-0.414,0.336-0.75,0.75-0.75S24,13.086,24,13.5v0.75
		C24,14.664,23.664,15,23.25,15z"/>
	<path d="M20.25,14.25c-0.414,0-0.75-0.336-0.75-0.75V12h-0.75C18.336,12,18,11.664,18,11.25v-1.5C18,9.336,18.336,9,18.75,9
		s0.75,0.336,0.75,0.75v0.75h0.75c0.414,0,0.75,0.336,0.75,0.75v2.25C21,13.914,20.664,14.25,20.25,14.25z"/>
</g>
</svg>
