<?xml version="1.0" encoding="utf-8"?>
<!-- Generator: Adobe Illustrator 22.1.0, SVG Export Plug-In . SVG Version: 6.00 Build 0)  -->
<svg version="1.1" id="Regular" xmlns="http://www.w3.org/2000/svg" xmlns:xlink="http://www.w3.org/1999/xlink" x="0px" y="0px"
	 viewBox="0 0 24 24" style="enable-background:new 0 0 24 24;" xml:space="preserve">
<title>radiology-scan</title>
<g>
	<path d="M1.75,24C0.785,24,0,23.215,0,22.25V1.75C0,0.785,0.785,0,1.75,0h20.5C23.215,0,24,0.785,24,1.75v20.5
		c0,0.965-0.785,1.75-1.75,1.75H1.75z M1.75,1.5C1.612,1.5,1.5,1.612,1.5,1.75v20.5c0,0.138,0.112,0.25,0.25,0.25h20.5
		c0.138,0,0.25-0.112,0.25-0.25V1.75c0-0.138-0.112-0.25-0.25-0.25H1.75z"/>
	<path d="M12,19.5c-0.414,0-0.75-0.336-0.75-0.75v-2.233c-2.307,0.095-3.52,0.611-3.756,0.826C7.448,17.713,7.132,18,6.75,18
		C6.336,18,6,17.664,6,17.25c0-1.502,2.646-2.134,5.25-2.235v-3.004c-4.002,0.115-5.939,1.115-6,1.492
		c0,0.41-0.336,0.747-0.75,0.747s-0.75-0.336-0.75-0.75c0-1.687,2.998-2.873,7.5-2.99V7.514C7.64,7.645,6,8.686,6,9
		c0,0.414-0.336,0.75-0.75,0.75S4.5,9.414,4.5,9c0-1.387,2.091-2.827,6.75-2.986V5.25c0-0.414,0.336-0.75,0.75-0.75
		s0.75,0.336,0.75,0.75v0.764C17.409,6.173,19.5,7.613,19.5,9c0,0.414-0.336,0.75-0.75,0.75S18,9.414,18,9
		c0-0.314-1.64-1.355-5.25-1.486v2.997c4.502,0.116,7.5,1.303,7.5,2.99c0,0.414-0.336,0.75-0.75,0.75s-0.75-0.336-0.75-0.75
		c-0.061-0.374-1.998-1.374-6-1.489v3.004C15.354,15.116,18,15.748,18,17.25c0,0.414-0.336,0.75-0.75,0.75
		c-0.382,0-0.698-0.287-0.744-0.657c-0.236-0.215-1.449-0.73-3.756-0.826v2.233C12.75,19.164,12.414,19.5,12,19.5z"/>
</g>
</svg>
