<?xml version="1.0" encoding="utf-8"?>
<!-- Generator: Adobe Illustrator 22.1.0, SVG Export Plug-In . SVG Version: 6.00 Build 0)  -->
<svg version="1.1" id="Layer_1" xmlns="http://www.w3.org/2000/svg" xmlns:xlink="http://www.w3.org/1999/xlink" x="0px" y="0px"
	 viewBox="0 0 24 24" style="enable-background:new 0 0 24 24;" xml:space="preserve">
<title>railroad-train</title>
<g>
	<path d="M15.375,16.513c-0.044,0-0.088-0.004-0.131-0.011c-0.513-0.06-0.923-0.47-0.983-0.983c-0.007-0.042-0.011-0.086-0.011-0.13
		s0.004-0.088,0.011-0.131c0.06-0.513,0.47-0.923,0.983-0.983c0.042-0.008,0.086-0.011,0.131-0.011s0.088,0.004,0.131,0.011
		c0.513,0.06,0.923,0.47,0.983,0.983c0.008,0.042,0.011,0.086,0.011,0.131s-0.004,0.088-0.011,0.131
		c-0.06,0.513-0.47,0.923-0.983,0.983C15.463,16.509,15.42,16.513,15.375,16.513z"/>
	<path d="M8.625,16.513c-0.044,0-0.088-0.004-0.13-0.011c-0.513-0.06-0.923-0.47-0.983-0.982C7.504,15.476,7.5,15.432,7.5,15.388
		s0.004-0.088,0.011-0.131c0.06-0.513,0.47-0.922,0.983-0.983c0.042-0.007,0.086-0.011,0.13-0.011s0.088,0.004,0.13,0.011
		c0.513,0.061,0.923,0.47,0.983,0.983C9.746,15.3,9.75,15.344,9.75,15.388s-0.004,0.088-0.011,0.131
		c-0.06,0.513-0.47,0.922-0.983,0.982C8.713,16.509,8.67,16.513,8.625,16.513z"/>
	<path d="M6.25,19.513c-0.965,0-1.75-0.785-1.75-1.75v-10.5c0-1.516,1.234-2.75,2.75-2.75h4v-3H9c-0.414,0-0.75-0.336-0.75-0.75
		S8.587,0.013,9,0.013h6c0.414,0,0.75,0.336,0.75,0.75s-0.336,0.75-0.75,0.75h-2.25v3h4c1.516,0,2.75,1.234,2.75,2.75v10.5
		c0,0.965-0.785,1.75-1.75,1.75H6.25z M6,17.763c0,0.138,0.112,0.25,0.25,0.25h11.5c0.138,0,0.25-0.112,0.25-0.25v-5H6V17.763z
		 M18,11.263v-4c0-0.689-0.561-1.25-1.25-1.25h-9.5C6.561,6.013,6,6.574,6,7.263v4H18z"/>
	<path d="M0.75,24.013c-0.235,0-0.459-0.112-0.6-0.3c-0.248-0.331-0.181-0.802,0.15-1.051l3-2.25c0.131-0.098,0.286-0.15,0.45-0.15
		c0.235,0,0.459,0.112,0.6,0.299c0.248,0.332,0.181,0.802-0.15,1.051l-3,2.25C1.069,23.961,0.914,24.013,0.75,24.013z"/>
	<path d="M23.25,24.013c-0.163,0-0.318-0.052-0.449-0.15l-3.001-2.25c-0.331-0.248-0.398-0.719-0.15-1.05
		c0.142-0.188,0.366-0.3,0.601-0.3c0.163,0,0.318,0.052,0.449,0.149l3.001,2.25c0.331,0.248,0.398,0.719,0.15,1.05
		C23.709,23.901,23.485,24.013,23.25,24.013z"/>
</g>
</svg>
