<?xml version="1.0" encoding="utf-8"?>
<!-- Generator: Adobe Illustrator 22.1.0, SVG Export Plug-In . SVG Version: 6.00 Build 0)  -->
<svg version="1.1" id="Layer_1" xmlns="http://www.w3.org/2000/svg" xmlns:xlink="http://www.w3.org/1999/xlink" x="0px" y="0px"
	 viewBox="0 0 24 24" style="enable-background:new 0 0 24 24;" xml:space="preserve">
<title>railroad</title>
<g>
	<path d="M17,24.013c-0.414,0-0.75-0.336-0.75-0.75v-2.25h-9v2.25c0,0.414-0.336,0.75-0.75,0.75s-0.75-0.336-0.75-0.75v-2.25h-3
		c-0.827,0-1.5-0.673-1.5-1.5v-3.75c0-0.827,0.673-1.5,1.5-1.5h3v-3.75h-3c-0.827,0-1.5-0.673-1.5-1.5v-3.75
		c0-0.827,0.673-1.5,1.5-1.5h3v-3c0-0.414,0.336-0.75,0.75-0.75s0.75,0.336,0.75,0.75v3h9v-3c0-0.414,0.336-0.75,0.75-0.75
		s0.75,0.336,0.75,0.75v3h3c0.827,0,1.5,0.673,1.5,1.5v3.75c0,0.827-0.673,1.5-1.5,1.5h-3v3.75h3c0.827,0,1.5,0.673,1.5,1.5v3.75
		c0,0.827-0.673,1.5-1.5,1.5h-3v2.25C17.75,23.676,17.414,24.013,17,24.013z M20.75,19.513v-3.75h-3v3.75H20.75z M16.25,19.513
		v-3.75h-9v3.75H16.25z M2.75,19.513h3v-3.75h-3V19.513z M16.25,14.263v-3.75h-9v3.75H16.25z M20.75,9.013v-3.75h-3v3.75H20.75z
		 M16.25,9.013v-3.75h-9v3.75H16.25z M2.75,9.013h3v-3.75h-3V9.013z"/>
</g>
</svg>
