<?xml version="1.0" encoding="utf-8"?>
<!-- Generator: Adobe Illustrator 22.1.0, SVG Export Plug-In . SVG Version: 6.00 Build 0)  -->
<svg version="1.1" id="Regular" xmlns="http://www.w3.org/2000/svg" xmlns:xlink="http://www.w3.org/1999/xlink" x="0px" y="0px"
	 viewBox="0 0 24 24" style="enable-background:new 0 0 24 24;" xml:space="preserve">
<title>rain-umbrella-sun</title>
<g>
	<path d="M9.75,24c-1.241,0-2.25-1.009-2.25-2.25v-4.455c-0.178-0.533-0.8-0.725-1.289-0.725c-0.558,0-1.181,0.247-1.318,0.797
		c-0.084,0.335-0.381,0.569-0.723,0.569c-0.032,0-0.065-0.002-0.098-0.006c-0.369-0.044-0.653-0.361-0.656-0.738
		c-0.004-0.496-0.629-0.627-0.958-0.627c-0.337,0.003-0.951,0.135-0.948,0.616c0.003,0.405-0.312,0.736-0.717,0.754
		c-0.006,0-0.025,0.001-0.031,0.001c-0.396,0-0.718-0.296-0.75-0.689c-0.016-0.198-0.025-0.402-0.027-0.605
		c-0.017-2.224,0.832-4.321,2.392-5.906C3.753,9.337,5.561,8.476,7.5,8.289V7.5c0-0.414,0.336-0.75,0.75-0.75S9,7.086,9,7.5v0.79
		c4.503,0.442,7.849,4.428,7.484,8.956c-0.031,0.387-0.356,0.69-0.74,0.69c0,0-0.043-0.001-0.052-0.002
		c-0.396-0.018-0.71-0.35-0.706-0.756c0.002-0.2-0.082-0.339-0.273-0.451c-0.179-0.105-0.417-0.164-0.67-0.164
		c-0.247,0-0.482,0.056-0.661,0.157c-0.203,0.115-0.295,0.26-0.296,0.471c-0.003,0.377-0.287,0.695-0.661,0.739
		c-0.028,0.004-0.059,0.005-0.089,0.005c-0.345,0-0.644-0.234-0.727-0.568c-0.138-0.551-0.76-0.797-1.316-0.797
		c-0.528,0-1.123,0.227-1.293,0.732v4.449c0,0.414,0.336,0.75,0.75,0.75s0.75-0.336,0.75-0.75S10.836,21,11.25,21
		S12,21.336,12,21.75C12,22.991,10.991,24,9.75,24z M6.212,15.069c0.786,0.001,1.519,0.269,2.038,0.731
		c0.521-0.463,1.255-0.731,2.041-0.731c0.728,0,1.425,0.236,1.938,0.644c0.122-0.112,0.26-0.211,0.413-0.298
		c0.397-0.225,0.894-0.349,1.399-0.349c0.284,0,0.564,0.039,0.825,0.113c-0.611-2.931-3.095-5.161-6.132-5.407
		c-0.119-0.01-0.241-0.014-0.362-0.017C8.331,9.762,8.291,9.766,8.25,9.766c-0.042,0-0.085-0.004-0.129-0.012
		c-1.771,0.047-3.43,0.768-4.675,2.033c-0.936,0.951-1.558,2.114-1.821,3.394c0.257-0.075,0.531-0.115,0.808-0.117
		c0,0,0.001,0,0.001,0c0.73,0,1.383,0.238,1.835,0.65c0.514-0.409,1.211-0.645,1.94-0.645H6.212z"/>
	<path d="M21.273,13.023c-0.2,0-0.389-0.078-0.53-0.22l-1.423-1.423c-0.558,0.406-1.198,0.689-1.871,0.825
		c-0.05,0.01-0.1,0.015-0.149,0.015c-0.355,0-0.665-0.253-0.735-0.602c-0.081-0.406,0.182-0.802,0.587-0.883
		c1.252-0.253,2.255-1.219,2.555-2.461c0.427-1.769-0.665-3.555-2.434-3.982c-0.257-0.062-0.52-0.093-0.781-0.093
		c-0.602,0-1.195,0.168-1.715,0.485c-0.752,0.46-1.28,1.185-1.487,2.042C13.209,7.064,12.91,7.3,12.563,7.3
		c-0.06,0-0.12-0.007-0.179-0.022c-0.193-0.047-0.358-0.167-0.462-0.338s-0.136-0.372-0.089-0.567
		c0.149-0.618,0.412-1.187,0.784-1.696l-1.421-1.421c-0.142-0.141-0.22-0.33-0.22-0.53s0.078-0.389,0.22-0.53
		c0.141-0.142,0.33-0.22,0.53-0.22s0.389,0.078,0.53,0.22l1.422,1.422c0.107-0.08,0.212-0.151,0.317-0.214
		c0.542-0.331,1.131-0.548,1.754-0.644V0.75C15.75,0.336,16.086,0,16.5,0s0.75,0.336,0.75,0.75v2.012
		c0.132,0.02,0.256,0.044,0.375,0.072c0.615,0.148,1.184,0.412,1.694,0.787l1.424-1.424c0.142-0.142,0.33-0.22,0.53-0.22
		s0.389,0.078,0.53,0.22c0.142,0.141,0.22,0.33,0.22,0.53s-0.078,0.389-0.22,0.53l-1.426,1.426c0.448,0.616,0.741,1.32,0.859,2.067
		h2.013C23.664,6.75,24,7.086,24,7.5s-0.336,0.75-0.75,0.75h-2.013c-0.019,0.132-0.043,0.255-0.072,0.376
		c-0.146,0.604-0.416,1.183-0.786,1.692l1.425,1.425c0.142,0.141,0.22,0.33,0.22,0.53c0,0.2-0.078,0.389-0.22,0.53
		S21.473,13.023,21.273,13.023z"/>
</g>
</svg>
