<?xml version="1.0" encoding="utf-8"?>
<!-- Generator: Adobe Illustrator 22.1.0, SVG Export Plug-In . SVG Version: 6.00 Build 0)  -->
<svg version="1.1" id="Regular" xmlns="http://www.w3.org/2000/svg" xmlns:xlink="http://www.w3.org/1999/xlink" x="0px" y="0px"
	 viewBox="0 0 24 24" style="enable-background:new 0 0 24 24;" xml:space="preserve">
<title>rat-curve</title>
<g>
	<path d="M12.874,23.25c-3.005,0-5.83-1.17-7.955-3.295c-2.027-2.027-3.189-4.707-3.285-7.566c-0.156-0.107-0.304-0.23-0.442-0.368
		C0.181,11.01-0.262,9.287,0.163,8.013c0.339-1.015,0.871-1.679,1.583-1.974c0.253-0.105,0.522-0.158,0.799-0.158
		c0.06,0,0.121,0.003,0.182,0.008c0.812-1.334,2.256-2.152,3.832-2.152c0.125,0,0.252,0.005,0.378,0.016
		c2.029,0.034,4.093,0.293,6.109,0.767c0.303,0.071,0.533,0.327,0.572,0.637c0.018,0.144,0.42,3.546-1.31,5.505
		c-0.563,0.638-1.278,1.051-2.13,1.232c0.183,0.36,0.412,0.696,0.679,0.996c0.433-0.663,1.19-1.08,2.004-1.08
		c0.355,0,0.699,0.077,1.021,0.23c0.034,0.016,0.064,0.031,0.093,0.047c0.177,0.094,0.307,0.251,0.366,0.442
		c0.059,0.191,0.04,0.394-0.054,0.572c-0.13,0.246-0.384,0.399-0.663,0.399c-0.122,0-0.244-0.031-0.352-0.088l-0.042-0.021
		c-0.112-0.053-0.238-0.081-0.369-0.081c-0.344,0-0.662,0.2-0.809,0.511l-0.011,0.022c0.293,0.166,0.604,0.3,0.928,0.401
		c0.058-0.002,0.116-0.004,0.174-0.004c1.054,0,2.049,0.414,2.791,1.149c0.3-0.35,0.618-0.671,0.949-0.957
		c0.136-0.118,0.31-0.183,0.49-0.183c0.218,0,0.425,0.095,0.568,0.26c0.131,0.151,0.195,0.344,0.18,0.544
		c-0.015,0.2-0.106,0.382-0.258,0.513c-1.225,1.059-2.073,2.45-2.452,4.024c-0.081,0.338-0.381,0.574-0.729,0.574
		c-0.059,0-0.118-0.007-0.176-0.021c-0.195-0.047-0.36-0.167-0.465-0.338c-0.104-0.171-0.136-0.372-0.089-0.567
		c0.221-0.919,0.584-1.797,1.079-2.612c-0.473-0.56-1.17-0.887-1.91-0.887c-0.064,0-0.128,0.002-0.192,0.007
		c-1.083,0.052-2.001,0.738-2.349,1.747C10.48,17.797,10.195,18,9.875,18c-0.083,0-0.165-0.014-0.244-0.041
		c-0.189-0.065-0.342-0.2-0.43-0.381c-0.088-0.18-0.1-0.384-0.035-0.573c0.307-0.892,0.909-1.642,1.693-2.134
		c-0.021-0.015-0.042-0.029-0.064-0.044c-0.021-0.008-0.045-0.018-0.069-0.03c-0.103-0.051-0.192-0.126-0.261-0.218
		c-0.996-0.803-1.708-1.883-2.062-3.125c-0.064-0.225-0.018-0.471,0.122-0.657C8.667,10.611,8.891,10.5,9.125,10.5
		c0.88,0,1.572-0.279,2.059-0.829c0.949-1.074,1.01-2.945,0.981-3.811C10.423,5.486,8.64,5.281,6.861,5.25
		c-0.113-0.009-0.2-0.012-0.287-0.012c-1.205,0-2.288,0.71-2.761,1.809C3.732,7.235,3.575,7.384,3.382,7.454
		C3.299,7.485,3.213,7.5,3.125,7.5c-0.115,0-0.231-0.027-0.335-0.079l0,0c-0.001,0-0.103-0.042-0.239-0.042
		c-0.083,0-0.163,0.016-0.237,0.048c-0.282,0.12-0.54,0.497-0.728,1.06c-0.24,0.722,0.071,1.878,0.666,2.473
		c0.272,0.272,0.58,0.409,0.916,0.409c0.149,0,0.307-0.027,0.469-0.081c0.077-0.026,0.156-0.039,0.237-0.039
		c0.323,0,0.609,0.206,0.711,0.513c0.063,0.19,0.049,0.393-0.041,0.573s-0.244,0.313-0.434,0.376
		c-0.309,0.103-0.623,0.155-0.933,0.155c-0.005,0-0.01,0-0.015,0c0.2,2.275,1.191,4.402,2.817,6.028
		c1.841,1.842,4.29,2.856,6.894,2.856c5.376,0,9.75-4.374,9.75-9.75s-4.374-9.75-9.75-9.75c-0.414,0-0.75-0.336-0.75-0.75
		s0.336-0.75,0.75-0.75c6.203,0,11.25,5.047,11.25,11.25S19.078,23.25,12.874,23.25z"/>
	<path d="M7.25,9C7.206,9,7.162,8.996,7.118,8.988c-0.513-0.06-0.922-0.47-0.982-0.982C6.128,7.963,6.125,7.919,6.125,7.875
		s0.004-0.088,0.012-0.131c0.06-0.513,0.47-0.922,0.982-0.982C7.162,6.754,7.206,6.75,7.25,6.75s0.088,0.004,0.131,0.012
		c0.513,0.06,0.922,0.47,0.982,0.982c0.008,0.043,0.012,0.087,0.012,0.131S8.371,7.963,8.363,8.006
		c-0.06,0.513-0.47,0.922-0.982,0.982C7.337,8.996,7.293,9,7.25,9z"/>
</g>
</svg>
