<?xml version="1.0" encoding="utf-8"?>
<!-- Generator: Adobe Illustrator 22.1.0, SVG Export Plug-In . SVG Version: 6.00 Build 0)  -->
<svg version="1.1" id="Regular" xmlns="http://www.w3.org/2000/svg" xmlns:xlink="http://www.w3.org/1999/xlink" x="0px" y="0px"
	 viewBox="0 0 24 24" style="enable-background:new 0 0 24 24;" xml:space="preserve">
<title>rat</title>
<g>
	<path d="M21.76,18c-0.096,0-0.19-0.018-0.279-0.054l-3.75-1.5c-0.186-0.074-0.332-0.217-0.411-0.401
		c-0.079-0.184-0.082-0.388-0.007-0.574C17.428,15.185,17.702,15,18.011,15c0.096,0,0.189,0.018,0.279,0.054l0.213,0.085
		c0.176-1.037,0.263-2.089,0.258-3.135c-0.004-0.678-0.136-1.341-0.394-1.969c-0.092-0.223-0.07-0.479,0.059-0.684
		c0.129-0.205,0.35-0.335,0.592-0.349c1.981-0.114,3.516-1.758,3.493-3.743c0-2.074-1.682-3.759-3.75-3.759s-3.75,1.682-3.75,3.75
		v0.3c0,0.231-0.104,0.445-0.284,0.588c-0.132,0.104-0.297,0.162-0.466,0.162c-0.057,0-0.115-0.007-0.17-0.02
		C13.408,6.12,12.709,6.026,12.01,6c-0.699,0.026-1.398,0.12-2.078,0.28c-0.058,0.013-0.115,0.02-0.171,0.02
		c-0.168,0-0.334-0.057-0.466-0.161C9.114,5.994,9.01,5.78,9.01,5.55v-0.3c0.037-2.034-1.579-3.713-3.602-3.75L5.177,1.499
		c-0.953,0-1.857,0.365-2.545,1.028C1.926,3.207,1.528,4.122,1.51,5.102c-0.001,0.045-0.001,0.089,0,0.134
		C1.487,7.238,3.022,8.887,5.003,9.001C5.245,9.015,5.466,9.145,5.595,9.35c0.129,0.205,0.151,0.461,0.059,0.684
		c-0.258,0.628-0.39,1.291-0.394,1.969c-0.005,1.045,0.081,2.098,0.257,3.135l0.214-0.085C5.821,15.018,5.914,15,6.01,15
		c0.309,0,0.582,0.185,0.697,0.472c0.074,0.186,0.072,0.389-0.007,0.573c-0.079,0.184-0.225,0.326-0.411,0.401l-3.75,1.5
		C2.45,17.981,2.356,18,2.26,18c-0.309,0-0.582-0.185-0.697-0.472c-0.074-0.186-0.072-0.39,0.007-0.574
		c0.079-0.184,0.225-0.326,0.411-0.401l2.115-0.846c-0.229-1.228-0.342-2.475-0.336-3.711c0.003-0.555,0.074-1.105,0.21-1.638
		C1.624,9.789-0.018,7.701,0.01,5.241c-0.001-0.04-0.001-0.103,0-0.167c0.025-1.38,0.586-2.669,1.581-3.627
		C2.56,0.513,3.829-0.001,5.165-0.001L5.275,0l0.068-0.001L5.436,0c2.651,0.048,4.791,2.054,5.049,4.644
		c0.496-0.078,0.999-0.127,1.499-0.144c0.004,0,0.051,0,0.052,0c0.503,0.017,1.009,0.066,1.508,0.145C13.843,2.008,16.057,0,18.76,0
		c2.895,0,5.25,2.355,5.25,5.25c0.028,2.453-1.614,4.54-3.96,5.108c0.137,0.534,0.207,1.083,0.21,1.638
		c0.006,1.238-0.107,2.485-0.336,3.712l2.115,0.846c0.186,0.074,0.332,0.217,0.411,0.401c0.079,0.184,0.082,0.388,0.007,0.574
		C22.342,17.814,22.069,18,21.76,18z"/>
	<path d="M12.01,24c-1.779-0.016-3.504-0.755-4.739-2.028c-0.288-0.297-0.28-0.772,0.016-1.06c0.14-0.136,0.326-0.212,0.522-0.212
		c0.205,0,0.396,0.081,0.539,0.228c0.956,0.986,2.292,1.559,3.665,1.572c1.366-0.013,2.702-0.586,3.658-1.572
		c0.142-0.147,0.334-0.228,0.539-0.228c0.196,0,0.382,0.075,0.522,0.212c0.297,0.288,0.304,0.763,0.016,1.06
		c-1.234,1.273-2.959,2.012-4.732,2.028c-0.001,0-0.002,0-0.003,0H12.01z"/>
	<path d="M11.26,21c-0.414,0-0.75-0.336-0.75-0.75s0.336-0.75,0.75-0.75h1.5c0.414,0,0.75,0.336,0.75,0.75S13.174,21,12.76,21H11.26
		z"/>
	<path d="M19.51,21c-0.2,0-0.389-0.078-0.53-0.22l-2.25-2.25c-0.292-0.292-0.292-0.768,0-1.061c0.142-0.142,0.33-0.22,0.53-0.22
		s0.389,0.078,0.53,0.22l2.25,2.25c0.292,0.292,0.292,0.768,0,1.061C19.899,20.921,19.71,21,19.51,21z"/>
	<path d="M4.51,21c-0.2,0-0.389-0.078-0.53-0.22c-0.292-0.292-0.292-0.768,0-1.061l2.25-2.25c0.142-0.142,0.33-0.22,0.53-0.22
		s0.389,0.078,0.53,0.22c0.292,0.292,0.292,0.768,0,1.061l-2.25,2.25C4.899,20.921,4.711,21,4.51,21z"/>
	<path d="M8.56,12.824c-0.045,0-0.088-0.004-0.13-0.011c-0.513-0.06-0.922-0.469-0.983-0.982c-0.008-0.043-0.012-0.087-0.012-0.131
		s0.004-0.088,0.012-0.131c0.06-0.513,0.47-0.922,0.982-0.982c0.043-0.008,0.087-0.012,0.131-0.012s0.088,0.004,0.131,0.012
		c0.513,0.06,0.922,0.47,0.982,0.982c0.008,0.043,0.012,0.087,0.012,0.131s-0.004,0.088-0.012,0.131
		c-0.06,0.513-0.47,0.922-0.983,0.982C8.648,12.821,8.605,12.824,8.56,12.824z"/>
	<path d="M15.31,12.824c-0.044,0-0.088-0.004-0.131-0.011c-0.513-0.06-0.923-0.47-0.983-0.983c-0.007-0.042-0.011-0.086-0.011-0.13
		s0.004-0.088,0.011-0.13c0.06-0.513,0.47-0.923,0.983-0.983c0.043-0.008,0.087-0.012,0.131-0.012s0.088,0.004,0.131,0.012
		c0.513,0.06,0.922,0.47,0.982,0.983c0.008,0.042,0.011,0.086,0.011,0.131s-0.004,0.088-0.011,0.13
		c-0.06,0.513-0.47,0.923-0.983,0.983C15.398,12.821,15.355,12.824,15.31,12.824z"/>
</g>
</svg>
