<?xml version="1.0" encoding="utf-8"?>
<!-- Generator: Adobe Illustrator 22.1.0, SVG Export Plug-In . SVG Version: 6.00 Build 0)  -->
<svg version="1.1" id="Layer_1" xmlns="http://www.w3.org/2000/svg" xmlns:xlink="http://www.w3.org/1999/xlink" x="0px" y="0px"
	 viewBox="0 0 24 24" style="enable-background:new 0 0 24 24;" xml:space="preserve">
<title>rating-hotel</title>
<g>
	<path d="M23.25,23.999c-0.414,0-0.75-0.336-0.75-0.75v-3h-21v3c0,0.414-0.336,0.75-0.75,0.75S0,23.663,0,23.249v-12.75
		c0-0.414,0.336-0.75,0.75-0.75s0.75,0.336,0.75,0.75v8.25h21v-4.5c0-0.414,0.336-0.75,0.75-0.75S24,13.836,24,14.249v9
		C24,23.663,23.664,23.999,23.25,23.999z"/>
	<path d="M6,17.249c-1.654,0-3-1.346-3-3s1.346-3,3-3s3,1.346,3,3S7.654,17.249,6,17.249z M6,12.749c-0.827,0-1.5,0.673-1.5,1.5
		s0.673,1.5,1.5,1.5s1.5-0.673,1.5-1.5S6.827,12.749,6,12.749z"/>
	<path d="M11.25,17.249c-0.414,0-0.75-0.336-0.75-0.75V12.96c0-0.4,0.156-0.777,0.439-1.06c0.279-0.279,0.667-0.439,1.064-0.439
		c0.122,0,0.243,0.015,0.36,0.044l5.885,1.467c1.622,0.406,2.753,1.857,2.751,3.529c0,0.413-0.337,0.749-0.75,0.749H11.25z
		 M19.367,15.749c-0.241-0.65-0.788-1.149-1.481-1.323l-5.884-1.467l0-0.375l0,3.164H19.367z"/>
	<path d="M15.843,10.499c-0.117,0-0.234-0.015-0.347-0.046c-0.345-0.092-0.635-0.313-0.814-0.623
		c-0.208-0.359-0.237-0.802-0.078-1.186l0.881-2.024l-1.585-1.56c-0.252-0.244-0.396-0.576-0.401-0.932
		c-0.005-0.356,0.128-0.692,0.375-0.947c0.249-0.258,0.596-0.406,0.953-0.406l1.684,0l1.04-2.048c0.176-0.329,0.46-0.565,0.805-0.67
		C18.484,0.02,18.616,0,18.75,0c0.219,0,0.438,0.055,0.634,0.159c0.24,0.128,0.435,0.323,0.561,0.565
		c0.002,0.003,1.044,2.056,1.044,2.056l1.697,0c0.708,0,1.299,0.583,1.316,1.3c0.009,0.371-0.139,0.731-0.405,0.989l-1.582,1.554
		l0.873,2.012c0.14,0.337,0.142,0.702,0.006,1.034c-0.136,0.332-0.393,0.59-0.723,0.727c-0.163,0.068-0.336,0.102-0.514,0.102
		c-0.236,0-0.469-0.062-0.672-0.18L18.75,9.06l-2.247,1.263C16.306,10.437,16.076,10.499,15.843,10.499z M16.904,5.914
		c0.22,0.216,0.285,0.551,0.162,0.834l-0.887,2.037l2.204-1.239c0.112-0.063,0.239-0.096,0.368-0.096s0.256,0.033,0.368,0.096
		l2.2,1.239l-0.884-2.037c-0.123-0.283-0.057-0.618,0.163-0.834L22.26,4.28l-1.73,0c-0.284,0-0.54-0.157-0.668-0.41l-1.112-2.188
		L17.64,3.866c-0.129,0.253-0.385,0.41-0.669,0.41H15.24L16.904,5.914z"/>
	<path d="M0.75,2.999C0.337,2.999,0,2.663,0,2.249s0.336-0.75,0.75-0.75H7.5c0.414,0,0.75,0.336,0.75,0.75s-0.336,0.75-0.75,0.75
		H0.75z"/>
	<circle cx="10.875" cy="2.249" r="1.125"/>
	<path d="M0.75,7.499C0.337,7.499,0,7.163,0,6.749s0.336-0.75,0.75-0.75H7.5c0.414,0,0.75,0.336,0.75,0.75s-0.336,0.75-0.75,0.75
		H0.75z"/>
	<circle cx="10.875" cy="6.749" r="1.125"/>
</g>
</svg>
