<?xml version="1.0" encoding="utf-8"?>
<!-- Generator: Adobe Illustrator 22.1.0, SVG Export Plug-In . SVG Version: 6.00 Build 0)  -->
<svg version="1.1" id="Layer_1" xmlns="http://www.w3.org/2000/svg" xmlns:xlink="http://www.w3.org/1999/xlink" x="0px" y="0px"
	 viewBox="0 0 24 24" style="enable-background:new 0 0 24 24;" xml:space="preserve">
<title>read-glasses</title>
<g>
	<path d="M3.75,16.501c-0.414,0-0.75-0.336-0.75-0.75s0.336-0.75,0.75-0.75h18c0.414,0,0.75,0.336,0.75,0.75s-0.336,0.75-0.75,0.75
		H3.75z"/>
	<path d="M3.75,19.501c-0.414,0-0.75-0.336-0.75-0.75s0.336-0.75,0.75-0.75h18c0.414,0,0.75,0.336,0.75,0.75s-0.336,0.75-0.75,0.75
		H3.75z"/>
	<path d="M17.25,10.501c-2.427,0-4.395-1.895-4.491-4.318C12.753,6.147,12.75,6.11,12.75,6.072c0-0.414-0.336-0.75-0.75-0.75
		s-0.75,0.336-0.75,0.75c0,0.038-0.003,0.074-0.008,0.11c-0.097,2.424-2.065,4.319-4.492,4.319c-2.188,0-4.073-1.621-4.435-3.75
		H0.75C0.336,6.751,0,6.415,0,6.001s0.336-0.75,0.75-0.75h1.565c0.362-2.129,2.247-3.75,4.435-3.75c1.786,0,3.373,1.041,4.096,2.639
		C11.192,3.933,11.588,3.822,12,3.822c0.412,0,0.808,0.111,1.154,0.318c0.723-1.598,2.31-2.639,4.096-2.639
		c2.188,0,4.073,1.621,4.435,3.75h1.565c0.414,0,0.75,0.336,0.75,0.75s-0.336,0.75-0.75,0.75h-1.565
		C21.323,8.88,19.438,10.501,17.25,10.501z M17.25,3.001c-1.654,0-3,1.346-3,3s1.346,3,3,3s3-1.346,3-3S18.904,3.001,17.25,3.001z
		 M6.75,3.001c-1.654,0-3,1.346-3,3s1.346,3,3,3s3-1.346,3-3S8.404,3.001,6.75,3.001z"/>
	<path d="M3.75,22.501c-2.068,0-3.75-1.682-3.75-3.75v-3c0-2.068,1.682-3.75,3.75-3.75h19.5c0.414,0,0.75,0.336,0.75,0.75
		s-0.336,0.75-0.75,0.75H3.75c-1.241,0-2.25,1.009-2.25,2.25v3c0,1.241,1.009,2.25,2.25,2.25h19.5c0.414,0,0.75,0.336,0.75,0.75
		s-0.336,0.75-0.75,0.75H3.75z"/>
</g>
</svg>
