<?xml version="1.0" encoding="utf-8"?>
<!-- Generator: Adobe Illustrator 22.1.0, SVG Export Plug-In . SVG Version: 6.00 Build 0)  -->
<svg version="1.1" id="Layer_1" xmlns="http://www.w3.org/2000/svg" xmlns:xlink="http://www.w3.org/1999/xlink" x="0px" y="0px"
	 viewBox="0 0 24 24" style="enable-background:new 0 0 24 24;" xml:space="preserve">
<title>read-world</title>
<g>
	<path d="M13.503,24.001c-0.827,0-1.5-0.673-1.5-1.5v-10.5c0-0.827,0.673-1.5,1.5-1.5h9c0.827,0,1.5,0.673,1.5,1.5v10.5
		c0,0.827-0.673,1.5-1.5,1.5H13.503z M13.503,22.501h9v-10.5h-9V22.501z"/>
	<path d="M18.003,15.001c-0.414,0-0.75-0.336-0.75-0.75s0.336-0.75,0.75-0.75h2.25c0.414,0,0.75,0.336,0.75,0.75
		s-0.336,0.75-0.75,0.75H18.003z"/>
	<path d="M15.753,18.001c-0.414,0-0.75-0.336-0.75-0.75s0.336-0.75,0.75-0.75h4.5c0.414,0,0.75,0.336,0.75,0.75
		s-0.336,0.75-0.75,0.75H15.753z"/>
	<path d="M15.753,21.001c-0.414,0-0.75-0.336-0.75-0.75s0.336-0.75,0.75-0.75h4.5c0.414,0,0.75,0.336,0.75,0.75
		s-0.336,0.75-0.75,0.75H15.753z"/>
	<path d="M9.757,20.973c-0.022,0-0.044-0.001-0.066-0.003c-2.788-0.215-5.334-1.506-7.159-3.635
		c-1.535-1.792-2.404-3.978-2.514-6.324c-0.005-0.038-0.006-0.075-0.005-0.113c-0.015-0.413-0.007-0.817,0.022-1.202
		C0.251,6.9,1.543,4.354,3.672,2.529c0.349-0.299,0.73-0.583,1.132-0.844c0.028-0.021,0.057-0.04,0.088-0.057
		c1.659-1.06,3.603-1.627,5.6-1.627c0.271,0,0.547,0.01,0.819,0.031c4.573,0.352,8.355,3.587,9.412,8.049
		c0.095,0.402-0.155,0.807-0.557,0.903c-0.057,0.014-0.115,0.02-0.173,0.02c-0.349,0-0.649-0.237-0.729-0.577
		c-0.508-2.146-1.744-3.986-3.51-5.246V3.55c0,1.006-0.72,1.856-1.712,2.022l-3.538,0.583v0.732c0,0.166-0.02,0.335-0.061,0.499
		c-0.133,0.532-0.464,0.98-0.934,1.261C9.188,8.838,8.825,8.94,8.456,8.94c-0.168,0-0.336-0.021-0.5-0.062
		c-0.02-0.005-0.04-0.011-0.061-0.018L6.022,8.219c-0.897-0.24-1.521-1.054-1.519-1.984V3.804C2.781,5.348,1.71,7.497,1.532,9.811
		C1.528,9.86,1.525,9.909,1.522,9.96L5.08,9.073C5.243,9.032,5.412,9.011,5.58,9.011c0.756,0,1.448,0.415,1.806,1.084l1.26,2.366
		c0.298,0.561,0.322,1.216,0.063,1.796c-0.231,0.52-0.749,0.922-1.205,1.193v3.54c0.742,0.261,1.519,0.425,2.312,0.486
		c0.412,0.031,0.722,0.393,0.69,0.805C10.475,20.669,10.146,20.973,9.757,20.973z M1.558,11.497
		c0.195,1.797,0.922,3.472,2.113,4.862c0.67,0.782,1.452,1.432,2.331,1.94V15c0-0.292,0.172-0.56,0.438-0.682
		c0.394-0.18,0.821-0.5,0.896-0.67c0.07-0.156,0.063-0.332-0.017-0.482l-1.259-2.365c-0.095-0.178-0.281-0.29-0.483-0.29
		c-0.045,0-0.09,0.006-0.134,0.017L1.558,11.497z M8.344,7.428c0.036,0.007,0.073,0.011,0.11,0.011c0.098,0,0.196-0.027,0.282-0.079
		c0.126-0.075,0.215-0.196,0.25-0.338c0.011-0.044,0.016-0.089,0.016-0.135v-1.37c0-0.369,0.264-0.68,0.628-0.74l4.164-0.686
		c0.265-0.044,0.458-0.272,0.458-0.542V2.316c-0.965-0.441-1.992-0.705-3.057-0.787c-0.232-0.018-0.468-0.027-0.699-0.027
		c-1.576,0-3.125,0.419-4.494,1.213v3.522c0,0.255,0.171,0.475,0.417,0.536C6.442,6.778,6.461,6.784,6.48,6.791L8.344,7.428z"/>
</g>
</svg>
