<?xml version="1.0" encoding="utf-8"?>
<!-- Generator: Adobe Illustrator 22.1.0, SVG Export Plug-In . SVG Version: 6.00 Build 0)  -->
<svg version="1.1" id="Layer_1" xmlns="http://www.w3.org/2000/svg" xmlns:xlink="http://www.w3.org/1999/xlink" x="0px" y="0px"
	 viewBox="0 0 24 24" style="enable-background:new 0 0 24 24;" xml:space="preserve">
<title>read-home-1</title>
<g>
	<path d="M8.817,20.419c-0.092,0-0.182-0.017-0.268-0.049c-2.054-0.784-4.211-1.207-6.41-1.258C0.925,19.037-0.008,18.044,0,16.85
		V3.5c-0.001-0.599,0.231-1.165,0.655-1.591c0.424-0.426,0.989-0.662,1.589-0.663L2.3,1.248c0.036,0.001,0.072,0.002,0.108,0.004
		c3.807,0.202,6.224,1.144,7.579,1.899c0.85,0.474,1.536,1.012,2.012,1.578c0.476-0.565,1.162-1.104,2.012-1.578
		c1.356-0.755,3.774-1.698,7.592-1.9c0.041-0.003,0.096-0.004,0.148-0.005c0.605,0.001,1.169,0.237,1.593,0.663
		C23.769,2.335,24.001,2.901,24,3.502v8.226c0,0.414-0.336,0.75-0.75,0.75s-0.75-0.336-0.75-0.75V3.5
		c0-0.202-0.077-0.391-0.218-0.533c-0.141-0.142-0.329-0.221-0.53-0.221l-0.04,0.001c-6.303,0.334-8.962,2.804-8.962,3.731
		l0.01,5.25c0,0.2-0.077,0.389-0.219,0.531c-0.141,0.142-0.33,0.22-0.53,0.22c-0.414,0-0.751-0.336-0.751-0.749L11.25,6.48
		c0-0.928-2.657-3.398-8.932-3.73c-0.003,0-0.052-0.004-0.052-0.004C2.048,2.747,1.86,2.825,1.718,2.967
		C1.577,3.109,1.499,3.298,1.5,3.498v13.357c-0.003,0.402,0.306,0.734,0.703,0.758c2.346,0.053,4.667,0.51,6.881,1.355
		c0.386,0.148,0.58,0.582,0.433,0.968C9.408,20.225,9.126,20.419,8.817,20.419z"/>
	<path d="M15.75,22.978c-0.011,0-0.027-0.001-0.041-0.002H14.25c-1.241,0-2.25-1.009-2.25-2.25v-4.147l-0.256,0.224
		c-0.137,0.12-0.312,0.186-0.494,0.186c-0.217,0-0.422-0.094-0.565-0.257c-0.272-0.31-0.24-0.785,0.071-1.058l4.518-3.953
		c0.545-0.477,1.246-0.739,1.976-0.739c0.729,0,1.431,0.262,1.976,0.739l4.518,3.953c0.151,0.132,0.241,0.315,0.255,0.514
		c0.013,0.2-0.052,0.393-0.184,0.544c-0.143,0.163-0.348,0.256-0.564,0.256c-0.182,0-0.357-0.066-0.494-0.186L22.5,16.579v4.147
		c0,1.241-1.009,2.25-2.25,2.25H18.79c-0.014,0.001-0.03,0.002-0.041,0.002H15.75z M20.25,21.476c0.414,0,0.75-0.336,0.75-0.75
		v-5.46l-2.762-2.417c-0.272-0.238-0.623-0.369-0.989-0.369c-0.365,0-0.716,0.131-0.988,0.369L13.5,15.266v5.46
		c0,0.414,0.336,0.75,0.75,0.75H15v-2.248c0-1.241,1.009-2.25,2.25-2.25s2.25,1.009,2.25,2.25v2.248H20.25z M18,21.476v-2.248
		c0-0.414-0.336-0.75-0.75-0.75s-0.75,0.336-0.75,0.75v2.248H18z"/>
</g>
</svg>
