<?xml version="1.0" encoding="utf-8"?>
<!-- Generator: Adobe Illustrator 22.1.0, SVG Export Plug-In . SVG Version: 6.00 Build 0)  -->
<svg version="1.1" id="Layer_1" xmlns="http://www.w3.org/2000/svg" xmlns:xlink="http://www.w3.org/1999/xlink" x="0px" y="0px"
	 viewBox="0 0 24 24" style="enable-background:new 0 0 24 24;" xml:space="preserve">
<title>read-maths</title>
<g>
	<path d="M12,24.001c-0.055,0-0.112-0.007-0.172-0.021c-0.017-0.003-0.034-0.007-0.049-0.012c-0.012-0.004-0.051-0.019-0.055-0.021
		c-0.004,0-0.027-0.01-0.051-0.022c-0.019-0.009-0.041-0.021-0.062-0.034l-0.041-0.026c-0.009-0.006-0.025-0.019-0.034-0.026
		c-0.009-0.007-0.027-0.022-0.044-0.038c-0.019-0.018-0.034-0.033-0.049-0.051c-0.011-0.011-0.027-0.03-0.042-0.05
		c-0.023-0.032-0.032-0.046-0.041-0.061c-0.015-0.025-0.026-0.045-0.036-0.066c-0.011-0.023-0.019-0.044-0.027-0.065
		c-0.003-0.008-0.013-0.034-0.015-0.042c-0.376-1.235-3.466-3.094-9.159-3.353C0.922,20.04-0.008,19.047,0,17.853V4.507
		c-0.007-0.849,0.483-1.642,1.25-2.018c0.102-0.05,0.216-0.077,0.33-0.077c0.289,0,0.547,0.161,0.674,0.42
		C2.435,3.204,2.281,3.654,1.91,3.836C1.658,3.96,1.497,4.22,1.5,4.5v13.358c-0.003,0.402,0.306,0.734,0.703,0.759
		c3.885,0.177,7.176,1.11,9.047,2.536v-6.902c0-0.414,0.336-0.75,0.75-0.75s0.75,0.336,0.75,0.75v6.902
		c1.871-1.427,5.165-2.36,9.059-2.537c0.387-0.024,0.694-0.355,0.691-0.753V4.507c0.003-0.285-0.158-0.547-0.41-0.67
		c-0.18-0.088-0.315-0.241-0.38-0.431c-0.065-0.19-0.052-0.393,0.036-0.573c0.126-0.259,0.385-0.42,0.674-0.42
		c0.113,0,0.227,0.026,0.33,0.076c0.767,0.376,1.258,1.17,1.25,2.024v13.344c0.008,1.19-0.919,2.182-2.111,2.256
		c-5.703,0.259-8.795,2.118-9.172,3.356c-0.005,0.016-0.015,0.042-0.022,0.057c-0.001,0.004-0.01,0.026-0.02,0.047
		c-0.011,0.022-0.021,0.041-0.031,0.059c-0.014,0.023-0.021,0.035-0.029,0.046c-0.005,0.008-0.015,0.02-0.021,0.028
		c-0.011,0.015-0.026,0.032-0.041,0.049c-0.015,0.016-0.031,0.032-0.047,0.048c-0.013,0.012-0.032,0.029-0.054,0.045
		c-0.004,0.003-0.018,0.014-0.022,0.017c-0.014,0.01-0.029,0.019-0.044,0.028c-0.016,0.01-0.039,0.022-0.063,0.034
		c-0.016,0.008-0.036,0.016-0.057,0.024c-0.002,0.001-0.005,0.002-0.007,0.003c-0.019,0.008-0.04,0.015-0.059,0.02
		c-0.01,0.003-0.023,0.006-0.035,0.008C12.111,23.994,12.055,24.001,12,24.001L12,24.001z"/>
	<path d="M17.25,6.751c-0.414,0-0.75-0.336-0.75-0.75v-1.5H15c-0.414,0-0.75-0.336-0.75-0.75s0.336-0.75,0.75-0.75h1.5v-1.5
		c0-0.414,0.336-0.75,0.75-0.75S18,1.087,18,1.501v1.5h1.5c0.414,0,0.75,0.336,0.75,0.75s-0.336,0.75-0.75,0.75H18v1.5
		C18,6.415,17.664,6.751,17.25,6.751z"/>
	<path d="M7.5,8.251c-0.414,0-0.75-0.336-0.75-0.75s0.336-0.75,0.75-0.75h5.25c0.414,0,0.75,0.336,0.75,0.75s-0.336,0.75-0.75,0.75
		H7.5z"/>
	<path d="M10.126,6.001c-0.301,0-0.583-0.116-0.795-0.327C9.119,5.462,9.001,5.18,9,4.88c0-0.001,0-0.004,0-0.004
		c0-0.567,0.422-1.042,0.986-1.113c0.047-0.009,0.094-0.013,0.139-0.013c0.611,0,1.112,0.493,1.124,1.103
		c0,0.008,0.001,0.032,0,0.037c-0.003,0.294-0.119,0.571-0.327,0.78C10.711,5.883,10.429,6,10.129,6.001c0,0,0,0-0.001,0
		S10.126,6.001,10.126,6.001z"/>
	<path d="M10.096,11.25c-0.564-0.015-1.027-0.443-1.086-1.009c0-0.002-0.001-0.011-0.001-0.014C9.003,10.191,9,10.16,9,10.128
		c0,0,0-0.002,0-0.002c0-0.571,0.426-1.047,0.994-1.114c0.043-0.008,0.087-0.011,0.131-0.011s0.088,0.004,0.131,0.011
		c0.54,0.063,0.954,0.5,0.989,1.044c0.003,0.011,0.005,0.04,0.005,0.069c0,0.011-0.001,0.028-0.002,0.042
		c-0.008,0.28-0.123,0.55-0.325,0.753c-0.212,0.213-0.494,0.331-0.794,0.331c0,0-0.001,0-0.001,0
		C10.117,11.251,10.106,11.25,10.096,11.25z"/>
	<path d="M5.25,4.501c-0.2,0-0.389-0.078-0.53-0.22l-0.75-0.75c-0.142-0.141-0.22-0.33-0.22-0.53s0.078-0.389,0.22-0.53
		c0.141-0.142,0.33-0.22,0.53-0.22c0.117,0,0.23,0.027,0.333,0.077l0.44-1.759C5.356,0.235,5.655,0.001,6,0.001h4.5
		c0.414,0,0.75,0.336,0.75,0.75s-0.336,0.75-0.75,0.75H6.586L5.978,3.933C5.912,4.194,5.71,4.402,5.45,4.474
		C5.385,4.492,5.318,4.501,5.25,4.501z"/>
</g>
</svg>
