<?xml version="1.0" encoding="utf-8"?>
<!-- Generator: Adobe Illustrator 22.1.0, SVG Export Plug-In . SVG Version: 6.00 Build 0)  -->
<svg version="1.1" id="Layer_1" xmlns="http://www.w3.org/2000/svg" xmlns:xlink="http://www.w3.org/1999/xlink" x="0px" y="0px"
	 viewBox="0 0 24 24" style="enable-background:new 0 0 24 24;" xml:space="preserve">
<title>read-home</title>
<g>
	<path d="M12,24.001c-0.108,0-0.214-0.024-0.315-0.07c-0.009-0.004-0.027-0.014-0.036-0.019c-0.032-0.017-0.064-0.037-0.095-0.059
		c-0.007-0.005-0.03-0.024-0.037-0.03c-0.026-0.022-0.047-0.043-0.067-0.064c-0.013-0.013-0.026-0.027-0.035-0.039
		c-0.013-0.015-1.985-2.265-7.201-2.389C3.549,21.32,3.003,20.765,3,20.096v-9.855c0.01-0.361,0.144-0.668,0.389-0.9
		c0.232-0.219,0.531-0.34,0.843-0.34l0.051,0.001c4.348,0.109,6.714,1.726,7.717,2.651c1.005-0.926,3.372-2.543,7.724-2.652
		c0,0,0,0,0,0c0.36,0,0.669,0.124,0.906,0.358c0.236,0.233,0.367,0.545,0.369,0.876v9.856c-0.002,0.672-0.549,1.227-1.218,1.239
		c-5.213,0.124-7.184,2.374-7.203,2.396c-0.008,0.009-0.02,0.022-0.031,0.033c-0.022,0.023-0.042,0.042-0.063,0.06
		c-0.006,0.005-0.031,0.026-0.038,0.031c-0.034,0.025-0.068,0.046-0.105,0.065c-0.004,0.002-0.022,0.011-0.027,0.014
		C12.214,23.977,12.108,24.001,12,24.001z M4.5,19.84c3.399,0.123,5.548,1.066,6.75,1.832v-8.645
		c-0.527-0.567-2.509-2.342-6.75-2.517V19.84z M12.75,21.672c1.203-0.767,3.352-1.709,6.75-1.832V10.51
		c-4.237,0.176-6.221,1.951-6.75,2.517V21.672z"/>
	<path d="M0.75,8.349c-0.264,0-0.504-0.135-0.641-0.36C0.005,7.818-0.026,7.616,0.021,7.422C0.069,7.227,0.189,7.062,0.36,6.958
		L11.61,0.11c0.117-0.072,0.252-0.109,0.39-0.109c0.136,0,0.269,0.037,0.386,0.107l11.25,6.75c0.172,0.103,0.293,0.267,0.342,0.461
		c0.049,0.194,0.019,0.396-0.084,0.568c-0.135,0.224-0.381,0.364-0.643,0.364l0,0c-0.136,0-0.269-0.037-0.386-0.107L12.003,1.627
		L1.14,8.24C1.023,8.311,0.888,8.349,0.75,8.349z"/>
	<path d="M21,3.751c-0.414,0-0.75-0.336-0.75-0.75v-1.5h-1.5c-0.414,0-0.75-0.336-0.75-0.75s0.336-0.75,0.75-0.75H21
		c0.414,0,0.75,0.336,0.75,0.75v2.25C21.75,3.415,21.414,3.751,21,3.751z"/>
</g>
</svg>
