<?xml version="1.0" encoding="utf-8"?>
<!-- Generator: Adobe Illustrator 22.1.0, SVG Export Plug-In . SVG Version: 6.00 Build 0)  -->
<svg version="1.1" id="Layer_1" xmlns="http://www.w3.org/2000/svg" xmlns:xlink="http://www.w3.org/1999/xlink" x="0px" y="0px"
	 viewBox="0 0 24 24" style="enable-background:new 0 0 24 24;" xml:space="preserve">
<title>read-art</title>
<g>
	<path d="M9.862,14.147c-0.261,0-0.535-0.051-0.815-0.151c-2.152-0.642-3.685-2.607-3.796-4.882C5.25,7.656,5.898,6.306,7.076,5.295
		c1.16-0.996,2.697-1.545,4.329-1.545c1.011,0.005,1.973,0.21,2.86,0.609c0.183,0.082,0.323,0.23,0.394,0.418
		c0.071,0.187,0.065,0.391-0.017,0.574c-0.121,0.269-0.39,0.442-0.684,0.442c-0.107,0-0.211-0.022-0.308-0.067
		c-0.702-0.316-1.456-0.476-2.242-0.477c-2.568,0-4.656,1.717-4.656,3.827c0.08,1.612,1.191,3.024,2.765,3.494
		c0.156,0.055,0.259,0.078,0.345,0.078c0.089,0,0.324,0,0.598-0.626c0.344-0.887,1.2-1.47,2.175-1.47
		c0.046,0,0.093,0.001,0.14,0.004c0.2,0.012,0.384,0.1,0.517,0.25c0.133,0.15,0.2,0.342,0.188,0.542
		c-0.023,0.396-0.354,0.706-0.753,0.706c-0.006,0-0.078-0.003-0.096-0.003c-0.349,0-0.657,0.213-0.785,0.543
		C11.283,13.88,10.457,14.147,9.862,14.147L9.862,14.147z"/>
	<path d="M13.657,16.397c-0.116,0-0.228-0.026-0.332-0.078c-0.179-0.088-0.313-0.241-0.378-0.431
		c-0.065-0.19-0.052-0.393,0.037-0.573l2.553-5.188c-0.58-0.641-0.727-1.599-0.337-2.384c0.447-0.907,1.027-1.285,1.411-1.536
		c0.388-0.253,0.388-0.253,0.334-0.706c-0.037-0.306,0.115-0.6,0.385-0.748c0.11-0.06,0.234-0.092,0.359-0.092
		c0.174,0,0.344,0.061,0.478,0.172c1.436,1.186,1.768,3.263,0.775,4.837c-0.367,0.709-1.078,1.141-1.866,1.141
		c-0.066,0-0.133-0.003-0.199-0.01l-2.547,5.176C14.203,16.237,13.945,16.397,13.657,16.397z M16.835,9.261
		c0.07,0.033,0.154,0.052,0.242,0.052c0.225,0,0.428-0.124,0.53-0.325c0.008-0.017,0.041-0.077,0.052-0.095
		c0.349-0.54,0.44-1.201,0.27-1.804c-0.162,0.155-0.34,0.271-0.498,0.374c-0.333,0.217-0.62,0.405-0.885,0.944
		c-0.001,0.003-0.003,0.005-0.004,0.008c-0.144,0.298-0.028,0.664,0.26,0.826C16.803,9.243,16.826,9.255,16.835,9.261z"/>
	<path d="M9.375,10.421c-0.033,0-0.06-0.003-0.086-0.007c-0.002,0-0.028-0.003-0.028-0.003c-0.266-0.028-0.503-0.141-0.686-0.327
		C8.382,9.889,8.269,9.63,8.254,9.354C8.252,9.335,8.25,9.317,8.25,9.298c0-0.003,0-0.01,0-0.011c0-0.029,0.003-0.053,0.006-0.077
		c0.027-0.575,0.517-1.047,1.113-1.052c0.001,0,0.008,0,0.009,0c0.304,0.003,0.587,0.122,0.798,0.337
		c0.193,0.196,0.306,0.455,0.32,0.733C10.498,9.247,10.5,9.264,10.5,9.282c0,0.003,0,0.01,0,0.011c0,0.015-0.002,0.04-0.004,0.059
		c-0.014,0.277-0.128,0.537-0.32,0.732c-0.183,0.186-0.42,0.299-0.686,0.327c-0.001,0-0.011,0.001-0.014,0.002
		c-0.035,0.005-0.064,0.008-0.094,0.008c-0.001,0-0.003,0-0.004,0H9.375z"/>
	<path d="M11.625,8.171c-0.033,0-0.06-0.003-0.086-0.007c-0.002,0-0.028-0.003-0.028-0.003c-0.266-0.028-0.503-0.141-0.686-0.327
		c-0.192-0.195-0.305-0.454-0.32-0.731C10.502,7.085,10.5,7.067,10.5,7.048c0-0.003,0-0.01,0-0.011c0-0.029,0.003-0.053,0.006-0.077
		c0.027-0.575,0.517-1.047,1.113-1.052c0.001,0,0.008,0,0.009,0c0.304,0.003,0.587,0.122,0.798,0.337
		c0.193,0.196,0.306,0.456,0.32,0.733c0.002,0.02,0.004,0.039,0.004,0.059c0,0.001,0,0.005,0,0.006c0,0.014-0.002,0.04-0.004,0.058
		c-0.014,0.277-0.127,0.537-0.32,0.733c-0.183,0.186-0.42,0.299-0.686,0.327c-0.001,0-0.011,0.001-0.014,0.002
		c-0.035,0.005-0.064,0.008-0.094,0.008c-0.001,0-0.003,0-0.004,0H11.625z"/>
	<path d="M5.25,24.001c-1.433,0-2.663-1.011-2.942-2.412C2.27,21.498,2.25,21.399,2.25,21.3V2.708C2.25,1.215,3.464,0,4.957,0H19.5
		c1.241,0,2.25,1.009,2.25,2.25v15c0,0.96-0.615,1.808-1.5,2.121v3.13H21c0.414,0,0.75,0.336,0.75,0.75s-0.336,0.75-0.75,0.75H5.25z
		 M5.25,19.5c-0.827,0-1.5,0.673-1.5,1.5c0,0.828,0.673,1.501,1.5,1.501h13.5V19.5H5.25z M4.957,1.5
		C4.292,1.5,3.75,2.042,3.75,2.707v15.694C4.201,18.139,4.714,18,5.25,18H19.5c0.414,0,0.75-0.336,0.75-0.75v-15
		c0-0.414-0.336-0.75-0.75-0.75H4.957z"/>
</g>
</svg>
