<?xml version="1.0" encoding="utf-8"?>
<!-- Generator: Adobe Illustrator 22.1.0, SVG Export Plug-In . SVG Version: 6.00 Build 0)  -->
<svg version="1.1" id="Regular" xmlns="http://www.w3.org/2000/svg" xmlns:xlink="http://www.w3.org/1999/xlink" x="0px" y="0px"
	 viewBox="0 0 24 24" style="enable-background:new 0 0 24 24;" xml:space="preserve">
<title>real-estate-sign-house-rent</title>
<g>
	<path d="M21.75,23.5c-0.414,0-0.75-0.336-0.75-0.75V17.5h-0.75c-0.414,0-0.75-0.336-0.75-0.75S19.836,16,20.25,16h3
		c0.414,0,0.75,0.336,0.75,0.75s-0.336,0.75-0.75,0.75H22.5v5.25C22.5,23.164,22.163,23.5,21.75,23.5z"/>
	<path d="M5.25,23.5c-0.2,0-0.389-0.078-0.53-0.22L3,21.561v1.189c0,0.414-0.336,0.75-0.75,0.75S1.5,23.164,1.5,22.75v-6
		C1.5,16.336,1.836,16,2.25,16h1.125C4.822,16,6,17.177,6,18.625c0,1.008-0.588,1.916-1.463,2.352L5.78,22.22
		C5.922,22.361,6,22.55,6,22.75s-0.078,0.389-0.22,0.53C5.639,23.422,5.45,23.5,5.25,23.5z M3.375,19.75
		c0.62,0,1.125-0.505,1.125-1.125S3.995,17.5,3.375,17.5H3v2.25H3.375z"/>
	<path d="M17.25,23.5c-0.286,0-0.543-0.159-0.671-0.414L15,19.927v2.823c0,0.414-0.336,0.75-0.75,0.75s-0.75-0.336-0.75-0.75v-6
		c0-0.349,0.238-0.649,0.577-0.73C14.134,16.007,14.192,16,14.25,16c0.286,0,0.543,0.159,0.671,0.414l1.579,3.158V16.75
		c0-0.414,0.336-0.75,0.75-0.75S18,16.336,18,16.75v6c0,0.349-0.238,0.649-0.577,0.73C17.366,23.493,17.308,23.5,17.25,23.5z"/>
	<path d="M9.75,23.5c-1.241,0-2.25-1.009-2.25-2.25v-3C7.5,17.009,8.509,16,9.75,16h1.5c0.414,0,0.75,0.336,0.75,0.75
		s-0.336,0.75-0.75,0.75h-1.5C9.336,17.5,9,17.836,9,18.25V19h2.25c0.414,0,0.75,0.336,0.75,0.75s-0.336,0.75-0.75,0.75H9v0.75
		C9,21.664,9.336,22,9.75,22h1.5c0.414,0,0.75,0.336,0.75,0.75s-0.336,0.75-0.75,0.75H9.75z"/>
	<path d="M3.75,14.5C3.336,14.5,3,14.164,3,13.75v-3C3,10.336,3.336,10,3.75,10s0.75,0.336,0.75,0.75v3
		C4.5,14.164,4.163,14.5,3.75,14.5z"/>
	<path d="M17.25,14.5c-0.414,0-0.75-0.336-0.75-0.75v-3c0-0.414,0.336-0.75,0.75-0.75S18,10.336,18,10.75v3
		C18,14.164,17.663,14.5,17.25,14.5z"/>
	<path d="M0.75,10c-0.221,0-0.43-0.097-0.573-0.266C0.048,9.582-0.014,9.387,0.002,9.188c0.017-0.2,0.11-0.381,0.263-0.51l9.75-8.25
		C10.15,0.313,10.323,0.25,10.5,0.25s0.349,0.063,0.485,0.178l9.75,8.25c0.153,0.129,0.246,0.311,0.263,0.51
		c0.017,0.2-0.045,0.394-0.175,0.547C20.68,9.903,20.471,10,20.25,10c-0.177,0-0.349-0.063-0.484-0.178L10.5,1.982l-9.266,7.84
		C1.099,9.937,0.927,10,0.75,10z"/>
	<path d="M18.75,5.5C18.336,5.5,18,5.164,18,4.75V2.5h-2.25C15.336,2.5,15,2.164,15,1.75S15.336,1,15.75,1h3
		c0.414,0,0.75,0.336,0.75,0.75v3C19.5,5.164,19.163,5.5,18.75,5.5z"/>
</g>
</svg>
