<?xml version="1.0" encoding="utf-8"?>
<!-- Generator: Adobe Illustrator 22.1.0, SVG Export Plug-In . SVG Version: 6.00 Build 0)  -->
<svg version="1.1" id="Regular" xmlns="http://www.w3.org/2000/svg" xmlns:xlink="http://www.w3.org/1999/xlink" x="0px" y="0px"
	 viewBox="0 0 24 24" style="enable-background:new 0 0 24 24;" xml:space="preserve">
<title>real-estate-message-person-building-1</title>
<g>
	<path d="M4.5,10.5c-2.068,0-3.75-1.682-3.75-3.75S2.432,3,4.5,3s3.75,1.682,3.75,3.75S6.568,10.5,4.5,10.5z M4.5,4.5
		c-1.241,0-2.25,1.009-2.25,2.25S3.259,9,4.5,9s2.25-1.009,2.25-2.25S5.741,4.5,4.5,4.5z"/>
	<path d="M3,24c-0.377,0-0.697-0.282-0.744-0.657L1.588,18H0.75C0.336,18,0,17.664,0,17.25V15c0-2.481,2.019-4.5,4.5-4.5
		S9,12.519,9,15v2.25C9,17.664,8.664,18,8.25,18H7.412l-0.668,5.343C6.697,23.718,6.377,24,6,24H3z M5.338,22.5l0.668-5.343
		C6.053,16.782,6.373,16.5,6.75,16.5H7.5V15c0-1.654-1.346-3-3-3s-3,1.346-3,3v1.5h0.75c0.377,0,0.697,0.282,0.744,0.657L3.662,22.5
		H5.338z"/>
	<path d="M14.25,21c-0.099,0-0.196-0.019-0.288-0.057c-0.281-0.116-0.462-0.388-0.462-0.693V16.5h-2.25
		c-0.414,0-0.75-0.336-0.75-0.75S10.836,15,11.25,15h3c0.414,0,0.75,0.336,0.75,0.75v2.689l3.22-3.22
		c0.14-0.14,0.333-0.22,0.53-0.22h3c0.414,0,0.75-0.336,0.75-0.75v-12c0-0.414-0.336-0.75-0.75-0.75h-12C9.336,1.5,9,1.836,9,2.25
		S8.664,3,8.25,3S7.5,2.664,7.5,2.25C7.5,1.009,8.509,0,9.75,0h12C22.991,0,24,1.009,24,2.25v12c0,1.241-1.009,2.25-2.25,2.25
		h-2.689l-4.28,4.28C14.639,20.922,14.45,21,14.25,21z"/>
	<path d="M11.25,13.5c-0.414,0-0.75-0.336-0.75-0.75S10.836,12,11.25,12H12V4.5C12,3.673,12.673,3,13.5,3H18
		c0.827,0,1.5,0.673,1.5,1.5V12h0.75c0.414,0,0.75,0.336,0.75,0.75s-0.336,0.75-0.75,0.75H11.25z M18,12v-1.5h-2.25
		c-0.414,0-0.75-0.336-0.75-0.75S15.336,9,15.75,9H18V7.5h-2.25C15.336,7.5,15,7.164,15,6.75S15.336,6,15.75,6H18V4.5h-4.5l0,7.5H18
		z"/>
</g>
</svg>
