<?xml version="1.0" encoding="utf-8"?>
<!-- Generator: Adobe Illustrator 22.1.0, SVG Export Plug-In . SVG Version: 6.00 Build 0)  -->
<svg version="1.1" id="Regular" xmlns="http://www.w3.org/2000/svg" xmlns:xlink="http://www.w3.org/1999/xlink" x="0px" y="0px"
	 viewBox="0 0 24 24" style="enable-background:new 0 0 24 24;" xml:space="preserve">
<title>real-estate-person-search-house</title>
<g>
	<path d="M15.75,21c-0.099,0-0.196-0.019-0.288-0.057C15.181,20.827,15,20.555,15,20.25V16.5h-2.25c-0.414,0-0.75-0.336-0.75-0.75
		S12.336,15,12.75,15h3c0.414,0,0.75,0.336,0.75,0.75v2.689l3.22-3.22c0.14-0.14,0.333-0.22,0.53-0.22h1.494
		c0.417,0,0.756-0.339,0.756-0.756V2.25c0-0.414-0.336-0.75-0.75-0.75h-12C9.336,1.5,9,1.837,9,2.25v4.5C9,7.164,8.663,7.5,8.25,7.5
		C7.836,7.5,7.5,7.164,7.5,6.75v-4.5C7.5,1.01,8.509,0,9.75,0h12C22.99,0,24,1.01,24,2.25v11.994c0,1.244-1.012,2.256-2.256,2.256
		H20.56l-4.28,4.28C16.138,20.922,15.95,21,15.75,21z"/>
	<path d="M6.75,17.25c-2.275,0-4.125-1.851-4.125-4.125C2.625,10.851,4.475,9,6.75,9s4.125,1.85,4.125,4.125
		C10.875,15.4,9.024,17.25,6.75,17.25z M6.75,10.5c-1.447,0-2.625,1.178-2.625,2.625c0,1.448,1.178,2.625,2.625,2.625
		s2.625-1.177,2.625-2.625C9.375,11.678,8.197,10.5,6.75,10.5z"/>
	<path d="M0.752,24.001c-0.035,0-0.07-0.002-0.105-0.007c-0.196-0.026-0.372-0.129-0.494-0.288
		c-0.121-0.159-0.174-0.356-0.147-0.555c0.407-3.029,2.807-5.429,5.837-5.836c0.305-0.041,0.614-0.062,0.919-0.062
		c1.495,0,2.918,0.482,4.114,1.396c1.445,1.102,2.374,2.701,2.616,4.502c0.055,0.41-0.233,0.788-0.643,0.843
		C12.818,23.998,12.783,24,12.749,24c-0.374,0-0.693-0.28-0.743-0.65c-0.189-1.404-0.913-2.65-2.039-3.51
		c-0.933-0.711-2.042-1.088-3.207-1.088c-0.238,0-0.479,0.016-0.717,0.048c-2.361,0.318-4.232,2.189-4.549,4.55
		C1.443,23.721,1.124,24.001,0.752,24.001z"/>
	<path d="M13.5,12.75c-0.827,0-1.5-0.673-1.5-1.5V7.852l-0.27,0.225c-0.135,0.112-0.305,0.174-0.48,0.174
		c-0.223,0-0.433-0.098-0.576-0.27c-0.265-0.318-0.222-0.792,0.096-1.057l4.5-3.75C15.404,3.062,15.574,3,15.75,3
		s0.346,0.062,0.48,0.174l4.5,3.75c0.154,0.128,0.249,0.309,0.267,0.508c0.018,0.199-0.042,0.394-0.171,0.548
		c-0.143,0.172-0.353,0.27-0.576,0.27c-0.175,0-0.345-0.062-0.48-0.174L19.5,7.852v3.399c0,0.827-0.673,1.5-1.5,1.5H13.5z
		 M13.5,11.25H18V6.602l-2.25-1.875L13.5,6.602V11.25z"/>
</g>
</svg>
