<?xml version="1.0" encoding="utf-8"?>
<!-- Generator: Adobe Illustrator 22.1.0, SVG Export Plug-In . SVG Version: 6.00 Build 0)  -->
<svg version="1.1" id="Regular" xmlns="http://www.w3.org/2000/svg" xmlns:xlink="http://www.w3.org/1999/xlink" x="0px" y="0px"
	 viewBox="0 0 24 24" style="enable-background:new 0 0 24 24;" xml:space="preserve">
<title>real-estate-sign-for-sale</title>
<g>
	<path d="M4.5,11.25c-0.414,0-0.75-0.336-0.75-0.75V6c0-1.241,1.009-2.25,2.25-2.25h1.5c0.414,0,0.75,0.336,0.75,0.75
		S7.914,5.25,7.5,5.25H6C5.586,5.25,5.25,5.586,5.25,6v0.75h1.5c0.414,0,0.75,0.336,0.75,0.75S7.164,8.25,6.75,8.25h-1.5v2.25
		C5.25,10.914,4.914,11.25,4.5,11.25z"/>
	<path d="M19.5,11.25c-0.2,0-0.389-0.078-0.53-0.22l-1.72-1.72V10.5c0,0.414-0.336,0.75-0.75,0.75s-0.75-0.336-0.75-0.75v-6
		c0-0.414,0.336-0.75,0.75-0.75h1.125c1.448,0,2.625,1.178,2.625,2.625c0,1.008-0.588,1.916-1.463,2.352L20.03,9.97
		c0.142,0.141,0.22,0.33,0.22,0.53s-0.078,0.389-0.22,0.53S19.7,11.25,19.5,11.25z M17.625,7.5c0.62,0,1.125-0.505,1.125-1.125
		S18.245,5.25,17.625,5.25H17.25V7.5H17.625z"/>
	<path d="M12,11.25c-1.241,0-2.25-1.009-2.25-2.25V6c0-1.241,1.009-2.25,2.25-2.25c1.241,0,2.25,1.009,2.25,2.25v3
		C14.25,10.241,13.241,11.25,12,11.25z M12,5.25c-0.414,0-0.75,0.336-0.75,0.75v3c0,0.414,0.336,0.75,0.75,0.75S12.75,9.414,12.75,9
		V6C12.75,5.586,12.414,5.25,12,5.25z"/>
	<path d="M15,20.25c-1.241,0-2.25-1.009-2.25-2.25v-4.5c0-0.414,0.336-0.75,0.75-0.75s0.75,0.336,0.75,0.75V18
		c0,0.414,0.336,0.75,0.75,0.75h1.5c0.414,0,0.75,0.336,0.75,0.75s-0.336,0.75-0.75,0.75H15z"/>
	<path d="M3.141,20.257c-0.058,0-0.116-0.002-0.174-0.007H1.5c-0.414,0-0.75-0.336-0.75-0.75s0.336-0.75,0.75-0.75H3
		c0.025,0,0.05,0.001,0.074,0.004c0.022,0.002,0.044,0.003,0.065,0.003c0.301,0,0.552-0.21,0.609-0.504
		c-0.022-0.377-0.325-0.624-1.135-1.11C1.783,16.645,0.75,16.024,0.75,14.7c0-0.031,0.002-0.061,0.005-0.091
		c0.131-1.064,1.036-1.866,2.105-1.866c0.057,0,0.114,0.002,0.172,0.007H4.5c0.414,0,0.75,0.336,0.75,0.75s-0.336,0.75-0.75,0.75H3
		c-0.025,0-0.05-0.001-0.074-0.004c-0.022-0.002-0.043-0.003-0.065-0.003c-0.301,0-0.553,0.21-0.61,0.504
		c0.022,0.377,0.325,0.624,1.135,1.11C4.217,16.355,5.25,16.976,5.25,18.3c0,0.031-0.002,0.061-0.005,0.091
		C5.113,19.455,4.209,20.257,3.141,20.257L3.141,20.257z"/>
	<path d="M10.5,20.25c-0.414,0-0.75-0.336-0.75-0.75v-2.25h-1.5v2.25c0,0.414-0.336,0.75-0.75,0.75s-0.75-0.336-0.75-0.75V15
		c0-1.241,1.009-2.25,2.25-2.25s2.25,1.009,2.25,2.25v4.5C11.25,19.914,10.914,20.25,10.5,20.25z M9.75,15.75V15
		c0-0.414-0.336-0.75-0.75-0.75S8.25,14.586,8.25,15v0.75H9.75z"/>
	<path d="M21,20.25c-1.241,0-2.25-1.009-2.25-2.25v-3c0-1.241,1.009-2.25,2.25-2.25h1.5c0.414,0,0.75,0.336,0.75,0.75
		s-0.336,0.75-0.75,0.75H21c-0.414,0-0.75,0.336-0.75,0.75v0.75h2.25c0.414,0,0.75,0.336,0.75,0.75s-0.336,0.75-0.75,0.75h-2.25V18
		c0,0.414,0.336,0.75,0.75,0.75h1.5c0.414,0,0.75,0.336,0.75,0.75s-0.336,0.75-0.75,0.75H21z"/>
	<path d="M1.5,2.25c-0.414,0-0.75-0.336-0.75-0.75S1.086,0.75,1.5,0.75h21c0.414,0,0.75,0.336,0.75,0.75s-0.336,0.75-0.75,0.75H1.5z
		"/>
	<path d="M1.5,23.25c-0.414,0-0.75-0.336-0.75-0.75s0.336-0.75,0.75-0.75h21c0.414,0,0.75,0.336,0.75,0.75s-0.336,0.75-0.75,0.75
		H1.5z"/>
</g>
</svg>
