<?xml version="1.0" encoding="utf-8"?>
<!-- Generator: Adobe Illustrator 22.1.0, SVG Export Plug-In . SVG Version: 6.00 Build 0)  -->
<svg version="1.1" id="Regular" xmlns="http://www.w3.org/2000/svg" xmlns:xlink="http://www.w3.org/1999/xlink" x="0px" y="0px"
	 viewBox="0 0 24 24" style="enable-background:new 0 0 24 24;" xml:space="preserve">
<title>real-estate-favorite-hold-house</title>
<g>
	<path d="M9,13.498c-1.241,0-2.25-1.009-2.25-2.25V7.73c0-0.414,0.336-0.75,0.75-0.75s0.75,0.336,0.75,0.75v3.518
		c0,0.413,0.336,0.75,0.75,0.75h6c0.414,0,0.75-0.336,0.75-0.75V7.73c0-0.414,0.336-0.75,0.75-0.75s0.75,0.336,0.75,0.75v3.518
		c0,1.241-1.009,2.25-2.25,2.25H9z"/>
	<path d="M19.5,7.73c-0.186,0-0.364-0.068-0.501-0.193l-6.5-5.847c-0.138-0.125-0.316-0.193-0.501-0.193s-0.363,0.069-0.502,0.193
		L5.002,7.537C4.864,7.661,4.685,7.73,4.5,7.73c0,0,0,0,0,0c-0.212,0-0.415-0.09-0.557-0.248C3.666,7.174,3.691,6.699,3.998,6.423
		l6.494-5.847c0.415-0.373,0.949-0.579,1.505-0.579s1.09,0.205,1.505,0.578l3.749,3.372V1.498c0-0.414,0.336-0.75,0.75-0.75
		s0.75,0.336,0.75,0.75v3.798l1.251,1.126c0.308,0.276,0.333,0.752,0.056,1.059C19.916,7.639,19.712,7.73,19.5,7.73z"/>
	<path d="M3.75,23.998c-0.229,0-0.443-0.103-0.586-0.281L1.15,21.2C0.408,20.272,0,19.107,0,17.919v-5.171
		c0-1.241,1.009-2.25,2.25-2.25s2.25,1.009,2.25,2.25v1.821c0.209-0.067,0.427-0.101,0.647-0.101c0.176,0,0.352,0.022,0.524,0.065
		c0.557,0.14,1.027,0.488,1.322,0.98l1.123,1.684C8.696,18.062,9.001,19.071,9,20.112v2.999c0,0.414-0.336,0.75-0.75,0.75
		s-0.75-0.336-0.75-0.75v-3c0.001-0.745-0.217-1.465-0.631-2.083l-1.142-1.714c-0.106-0.176-0.248-0.284-0.419-0.327
		c-0.053-0.013-0.107-0.02-0.16-0.02c-0.116,0-0.231,0.032-0.332,0.093l-0.033,0.021c-0.259,0.173-0.356,0.52-0.223,0.808
		l1.333,2.222c0.103,0.172,0.133,0.373,0.084,0.568s-0.17,0.358-0.342,0.461c-0.116,0.07-0.25,0.107-0.386,0.107
		c-0.262,0-0.509-0.14-0.643-0.365l-1.35-2.25c-0.009-0.014-0.018-0.032-0.027-0.049c-0.159-0.316-0.238-0.672-0.226-1.03
		C3.001,16.535,3,16.517,3,16.498v-3.75c0-0.414-0.336-0.75-0.75-0.75s-0.75,0.336-0.75,0.75v5.171c0,0.849,0.292,1.681,0.822,2.344
		l2.014,2.516c0.258,0.323,0.206,0.796-0.117,1.054C4.086,23.939,3.92,23.998,3.75,23.998z"/>
	<path d="M20.25,23.998c-0.169,0-0.336-0.058-0.468-0.164c-0.323-0.259-0.375-0.731-0.117-1.054l2.014-2.517
		c0.53-0.662,0.822-1.494,0.822-2.343v-5.171c0-0.414-0.336-0.75-0.75-0.75S21,12.334,21,12.748v3.75
		c0,0.019-0.001,0.038-0.003,0.057c0.011,0.358-0.067,0.714-0.227,1.031c-0.009,0.018-0.019,0.036-0.03,0.054l-1.347,2.244
		c-0.135,0.225-0.382,0.365-0.644,0.365c-0.136,0-0.27-0.037-0.386-0.108c-0.171-0.102-0.292-0.266-0.341-0.461
		c-0.049-0.194-0.018-0.396,0.085-0.568l1.333-2.222c0.133-0.289,0.036-0.636-0.23-0.813l-0.033-0.021
		c-0.094-0.057-0.209-0.089-0.325-0.089c-0.053,0-0.107,0.007-0.159,0.02c-0.169,0.042-0.311,0.147-0.4,0.296l-1.161,1.744
		c-0.414,0.619-0.632,1.34-0.631,2.084v3c0,0.414-0.336,0.75-0.75,0.75S15,23.525,15,23.112v-3c-0.001-1.042,0.305-2.05,0.884-2.917
		l1.141-1.713c0.371-0.62,1.073-1.014,1.825-1.014c0.222,0,0.441,0.034,0.65,0.101v-1.821c0-1.241,1.009-2.25,2.25-2.25
		S24,11.507,24,12.748v5.171c0,1.188-0.408,2.353-1.151,3.281l-2.014,2.517C20.693,23.895,20.479,23.998,20.25,23.998z"/>
</g>
</svg>
