<?xml version="1.0" encoding="utf-8"?>
<!-- Generator: Adobe Illustrator 22.1.0, SVG Export Plug-In . SVG Version: 6.00 Build 0)  -->
<svg version="1.1" id="Regular" xmlns="http://www.w3.org/2000/svg" xmlns:xlink="http://www.w3.org/1999/xlink" x="0px" y="0px"
	 viewBox="0 0 24 24" style="enable-background:new 0 0 24 24;" xml:space="preserve">
<title>real-estate-action-house-upload</title>
<g>
	<path d="M5.251,20.283c-1.241,0-2.25-1.009-2.25-2.25v-7.5c0-0.414,0.336-0.75,0.75-0.75s0.75,0.336,0.75,0.75v7.5
		c0,0.414,0.336,0.75,0.75,0.75H8.27c0.414,0,0.75,0.336,0.75,0.75s-0.336,0.75-0.75,0.75H5.251z"/>
	<path d="M0.751,9.783c-0.221,0-0.43-0.097-0.573-0.266C-0.089,9.201-0.05,8.727,0.266,8.46l8.781-7.43
		C9.454,0.686,9.97,0.496,10.5,0.496c0.53,0,1.046,0.19,1.454,0.534l7.3,6.177c0.153,0.129,0.246,0.311,0.263,0.51
		c0.017,0.2-0.045,0.394-0.175,0.547C19.199,8.433,18.99,8.53,18.769,8.53c0,0,0,0,0,0c-0.177,0-0.349-0.063-0.484-0.177l-7.3-6.177
		c-0.136-0.115-0.308-0.179-0.485-0.179s-0.348,0.063-0.484,0.178l-8.781,7.43C1.1,9.72,0.928,9.783,0.751,9.783z"/>
	<path d="M18.751,5.283c-0.414,0-0.75-0.336-0.75-0.75v-2.25h-2.25c-0.414,0-0.75-0.336-0.75-0.75s0.336-0.75,0.75-0.75h3
		c0.414,0,0.75,0.336,0.75,0.75v3C19.501,4.946,19.164,5.283,18.751,5.283z"/>
	<path d="M17.251,23.283c-3.722,0-6.75-3.028-6.75-6.75s3.028-6.75,6.75-6.75s6.75,3.028,6.75,6.75S20.972,23.283,17.251,23.283z
		 M17.251,11.283c-2.895,0-5.25,2.355-5.25,5.25c0,2.895,2.355,5.25,5.25,5.25s5.25-2.355,5.25-5.25
		C22.501,13.638,20.145,11.283,17.251,11.283z"/>
	<path d="M17.251,20.283c-0.414,0-0.75-0.336-0.75-0.75v-4.189l-0.97,0.97c-0.142,0.142-0.33,0.22-0.53,0.22s-0.389-0.078-0.53-0.22
		c-0.292-0.292-0.292-0.768,0-1.061l2.25-2.25c0.07-0.07,0.152-0.125,0.245-0.163c0.008-0.003,0.017-0.007,0.026-0.01
		c0.082-0.031,0.17-0.047,0.259-0.047c0.087,0,0.174,0.016,0.258,0.046c0.006,0.002,0.011,0.004,0.017,0.006
		c0.104,0.042,0.186,0.097,0.256,0.167l2.25,2.25c0.292,0.292,0.292,0.768,0,1.061c-0.142,0.142-0.33,0.22-0.53,0.22
		s-0.389-0.078-0.53-0.22l-0.97-0.97v4.189C18.001,19.946,17.664,20.283,17.251,20.283z"/>
</g>
</svg>
