<?xml version="1.0" encoding="utf-8"?>
<!-- Generator: Adobe Illustrator 22.1.0, SVG Export Plug-In . SVG Version: 6.00 Build 0)  -->
<svg version="1.1" id="Regular" xmlns="http://www.w3.org/2000/svg" xmlns:xlink="http://www.w3.org/1999/xlink" x="0px" y="0px"
	 viewBox="0 0 24 24" style="enable-background:new 0 0 24 24;" xml:space="preserve">
<title>real-estate-sign-sold</title>
<g>
	<path d="M9,10.5c-1.241,0-2.25-1.009-2.25-2.25v-3C6.75,4.009,7.759,3,9,3s2.25,1.009,2.25,2.25v3C11.25,9.491,10.241,10.5,9,10.5z
		 M9,4.5c-0.414,0-0.75,0.336-0.75,0.75v3C8.25,8.664,8.586,9,9,9s0.75-0.336,0.75-0.75v-3C9.75,4.836,9.414,4.5,9,4.5z"/>
	<path d="M15,10.5c-1.241,0-2.25-1.009-2.25-2.25v-4.5C12.75,3.336,13.086,3,13.5,3s0.75,0.336,0.75,0.75v4.5
		C14.25,8.664,14.586,9,15,9h1.5c0.414,0,0.75,0.336,0.75,0.75s-0.336,0.75-0.75,0.75H15z"/>
	<path d="M3.141,10.507c-0.058,0-0.116-0.002-0.175-0.007H1.5c-0.414,0-0.75-0.336-0.75-0.75S1.086,9,1.5,9H3
		c0.025,0,0.05,0.001,0.074,0.004c0.022,0.002,0.043,0.003,0.065,0.003c0.301,0,0.553-0.21,0.61-0.504
		c-0.023-0.377-0.325-0.624-1.135-1.11C1.784,6.895,0.75,6.275,0.75,4.95c0-0.03,0.002-0.06,0.005-0.091
		c0.131-1.065,1.034-1.867,2.1-1.867c0.059,0,0.118,0.002,0.178,0.007H4.5c0.414,0,0.75,0.336,0.75,0.75S4.914,4.5,4.5,4.5H3
		c-0.025,0-0.05-0.001-0.074-0.004C2.905,4.494,2.883,4.493,2.862,4.493c-0.302,0-0.554,0.21-0.611,0.504
		c0.023,0.377,0.325,0.624,1.135,1.11C4.216,6.605,5.25,7.225,5.25,8.55c0,0.03-0.002,0.06-0.005,0.091
		C5.113,9.705,4.209,10.507,3.141,10.507z"/>
	<path d="M19.78,10.514c-0.117,0-0.236-0.006-0.354-0.017c-0.386-0.038-0.677-0.359-0.677-0.746v-6c0-0.387,0.291-0.708,0.676-0.746
		c0.117-0.012,0.236-0.017,0.354-0.017c1.759,0,3.248,1.321,3.464,3.072c0.004,0.029,0.006,0.06,0.006,0.092v1.2
		c0,0.031-0.002,0.063-0.006,0.094C23.028,9.193,21.538,10.514,19.78,10.514z M20.25,8.958c0.778-0.189,1.381-0.835,1.5-1.657V6.2
		c-0.119-0.822-0.721-1.469-1.5-1.658V8.958z"/>
	<path d="M23.25,24c-0.099,0-0.196-0.019-0.288-0.057c-3.467-1.445-7.155-2.177-10.962-2.177c-3.807,0-7.495,0.732-10.961,2.177
		C0.945,23.981,0.849,24,0.75,24c-0.304,0-0.576-0.181-0.693-0.461c-0.077-0.185-0.078-0.389-0.001-0.574
		c0.076-0.186,0.22-0.33,0.405-0.407c3.414-1.422,7.042-2.189,10.788-2.28V13.5H0.75C0.336,13.5,0,13.164,0,12.75S0.336,12,0.75,12
		h22.5c0.414,0,0.75,0.336,0.75,0.75s-0.336,0.75-0.75,0.75h-10.5v6.777c3.747,0.092,7.375,0.858,10.789,2.28
		c0.185,0.077,0.329,0.221,0.405,0.407c0.076,0.185,0.076,0.389-0.001,0.574C23.825,23.819,23.554,24,23.25,24z"/>
	<path d="M0.75,1.5C0.336,1.5,0,1.164,0,0.75S0.336,0,0.75,0h22.5C23.664,0,24,0.336,24,0.75S23.664,1.5,23.25,1.5H0.75z"/>
</g>
</svg>
