<?xml version="1.0" encoding="utf-8"?>
<!-- Generator: Adobe Illustrator 22.1.0, SVG Export Plug-In . SVG Version: 6.00 Build 0)  -->
<svg version="1.1" id="Regular" xmlns="http://www.w3.org/2000/svg" xmlns:xlink="http://www.w3.org/1999/xlink" x="0px" y="0px"
	 viewBox="0 0 24 24" style="enable-background:new 0 0 24 24;" xml:space="preserve">
<title>real-estate-truck-house</title>
<g>
	<path d="M18.75,22.25c-1.067,0-2.061-0.582-2.594-1.5H9.344c-0.533,0.918-1.527,1.5-2.594,1.5s-2.061-0.582-2.594-1.5H2.25
		C1.009,20.75,0,19.741,0,18.5v-2.579c0-1.034,0.701-1.932,1.704-2.182l1.529-0.383l0.931-1.862
		c0.384-0.767,1.155-1.244,2.013-1.244H7.5V9.5c0-1.241,1.009-2.25,2.25-2.25c0.414,0,0.75,0.336,0.75,0.75s-0.336,0.75-0.75,0.75
		S9,9.086,9,9.5v7.769c0.485,0.549,0.75,1.246,0.75,1.981h6c0-1.654,1.346-3,3-3s3,1.346,3,3c0.414,0,0.75-0.336,0.75-0.75v-9
		c0-0.414-0.336-0.75-0.75-0.75S21,8.413,21,8s0.336-0.75,0.75-0.75C22.991,7.25,24,8.259,24,9.5v9c0,1.241-1.009,2.25-2.25,2.25
		h-0.406C20.811,21.668,19.817,22.25,18.75,22.25z M18.75,17.75c-0.827,0-1.5,0.673-1.5,1.5s0.673,1.5,1.5,1.5s1.5-0.673,1.5-1.5
		S19.577,17.75,18.75,17.75z M6.75,17.75c-0.827,0-1.5,0.673-1.5,1.5s0.673,1.5,1.5,1.5s1.5-0.673,1.5-1.5S7.577,17.75,6.75,17.75z
		 M6.177,11.75c-0.286,0-0.543,0.159-0.671,0.415l-1.085,2.171c-0.098,0.196-0.276,0.339-0.489,0.392l-1.864,0.466
		C1.734,15.277,1.5,15.576,1.5,15.921V18.5c0,0.414,0.336,0.75,0.75,0.75h1.5c0-1.654,1.346-3,3-3c0.255,0,0.506,0.032,0.75,0.096
		V11.75H6.177z"/>
	<path d="M13.5,11c-0.827,0-1.5-0.673-1.5-1.5V6.101l-0.27,0.225C11.595,6.438,11.425,6.5,11.25,6.5l0,0
		c-0.223,0-0.433-0.098-0.576-0.269c-0.265-0.318-0.222-0.792,0.096-1.057l4.5-3.75c0.134-0.112,0.304-0.174,0.48-0.174
		s0.346,0.062,0.48,0.174l4.5,3.75c0.154,0.128,0.249,0.309,0.267,0.508c0.018,0.199-0.042,0.394-0.171,0.548
		C20.683,6.402,20.473,6.5,20.25,6.5c-0.175,0-0.345-0.062-0.48-0.174L19.5,6.101V9.5c0,0.827-0.673,1.5-1.5,1.5H13.5z M13.5,9.5H18
		V4.851l-2.25-1.875L13.5,4.851V9.5z"/>
</g>
</svg>
