<?xml version="1.0" encoding="utf-8"?>
<!-- Generator: Adobe Illustrator 22.1.0, SVG Export Plug-In . SVG Version: 6.00 Build 0)  -->
<svg version="1.1" id="Regular" xmlns="http://www.w3.org/2000/svg" xmlns:xlink="http://www.w3.org/1999/xlink" x="0px" y="0px"
	 viewBox="0 0 24 24" style="enable-background:new 0 0 24 24;" xml:space="preserve">
<title>real-estate-message-building-1</title>
<g>
	<path d="M5.25,24c-0.116,0-0.232-0.027-0.336-0.079C4.659,23.793,4.5,23.536,4.5,23.25V19.5H2.25C1.009,19.5,0,18.491,0,17.25v-15
		C0,1.009,1.009,0,2.25,0h19.5C22.991,0,24,1.009,24,2.25v15c0,1.241-1.009,2.25-2.25,2.25H11.5l-5.8,4.35
		C5.571,23.947,5.411,24,5.25,24z M2.25,1.5C1.836,1.5,1.5,1.836,1.5,2.25v15C1.5,17.664,1.836,18,2.25,18h3
		C5.664,18,6,18.336,6,18.75v3l4.8-3.6c0.129-0.097,0.289-0.15,0.45-0.15h10.5c0.414,0,0.75-0.336,0.75-0.75v-15
		c0-0.414-0.336-0.75-0.75-0.75H2.25z"/>
	<path d="M7.5,15c-0.414,0-0.75-0.336-0.75-0.75S7.086,13.5,7.5,13.5h0.75V5.25c0-0.827,0.673-1.5,1.5-1.5h4.5
		c0.827,0,1.5,0.673,1.5,1.5v8.25h0.75c0.414,0,0.75,0.336,0.75,0.75S16.914,15,16.5,15H7.5z M14.25,13.5v-2.25H12
		c-0.414,0-0.75-0.336-0.75-0.75S11.586,9.75,12,9.75h2.25v-1.5H12c-0.414,0-0.75-0.336-0.75-0.75S11.586,6.75,12,6.75h2.25v-1.5
		h-4.5l0,8.25H14.25z"/>
</g>
</svg>
