<?xml version="1.0" encoding="utf-8"?>
<!-- Generator: Adobe Illustrator 22.1.0, SVG Export Plug-In . SVG Version: 6.00 Build 0)  -->
<svg version="1.1" id="Regular" xmlns="http://www.w3.org/2000/svg" xmlns:xlink="http://www.w3.org/1999/xlink" x="0px" y="0px"
	 viewBox="0 0 24 24" style="enable-background:new 0 0 24 24;" xml:space="preserve">
<title>real-estate-action-building-heart</title>
<g>
	<path d="M0.752,24c-0.414,0-0.75-0.336-0.75-0.75v-12c0-1.241,1.009-2.25,2.25-2.25h3V5.77c0.002-0.601,0.373-1.154,0.925-1.383
		l1.325-0.686v-2.95c0-0.414,0.336-0.75,0.75-0.75c0.414,0,0.75,0.336,0.75,0.75v2.174l5.392-2.791
		c0.027-0.014,0.054-0.026,0.083-0.037c0.166-0.062,0.341-0.094,0.519-0.095c0.404,0,0.78,0.155,1.063,0.436
		c0.284,0.282,0.441,0.658,0.443,1.059V9.75c0,0.414-0.336,0.75-0.75,0.75s-0.75-0.336-0.75-0.75V9h-3
		c-0.414,0-0.75-0.336-0.75-0.75s0.336-0.75,0.75-0.75h3V6h-1.5c-0.414,0-0.75-0.336-0.75-0.75s0.336-0.75,0.75-0.75h1.5V1.508
		L6.833,5.736C6.806,5.75,6.779,5.762,6.751,5.772l0,3.228c1.241,0,2.25,1.009,2.25,2.25V22.5h0.75c0.414,0,0.75,0.336,0.75,0.75
		S10.165,24,9.752,24H0.752z M7.502,22.5V11.25c0-0.414-0.336-0.75-0.75-0.75h-4.5c-0.414,0-0.75,0.336-0.75,0.75V12h1.5
		c0.414,0,0.75,0.336,0.75,0.75s-0.336,0.75-0.75,0.75h-1.5V15h3c0.414,0,0.75,0.336,0.75,0.75s-0.336,0.75-0.75,0.75h-3v6H7.502z"
		/>
	<path d="M17.252,24c-0.203,0-0.4-0.084-0.541-0.231l-5.114-5.335c-1.142-1.142-1.424-2.891-0.696-4.346
		c0.644-1.287,1.94-2.086,3.383-2.086c0.588,0,1.155,0.134,1.683,0.398c0.364,0.182,0.694,0.42,0.981,0.707l0.304,0.305l0.305-0.305
		C18.269,12.393,19.218,12,20.226,12s1.957,0.393,2.67,1.106c0.287,0.286,0.525,0.616,0.707,0.981
		c0.728,1.456,0.443,3.207-0.708,4.358l-5.103,5.324C17.652,23.916,17.455,24,17.252,24z M14.28,13.499
		c-0.244,0-0.487,0.04-0.722,0.118c-0.577,0.192-1.044,0.597-1.316,1.141c-0.438,0.877-0.267,1.933,0.427,2.626l4.584,4.781
		l4.573-4.77c0.703-0.703,0.876-1.76,0.438-2.637c-0.11-0.219-0.253-0.418-0.426-0.591c-0.43-0.43-1.002-0.667-1.61-0.667
		s-1.179,0.237-1.609,0.667l-0.835,0.835c-0.142,0.142-0.33,0.22-0.53,0.22s-0.389-0.078-0.53-0.22l-0.835-0.835
		c-0.173-0.173-0.372-0.316-0.591-0.426C14.974,13.581,14.633,13.499,14.28,13.499z"/>
</g>
</svg>
