<?xml version="1.0" encoding="utf-8"?>
<!-- Generator: Adobe Illustrator 22.1.0, SVG Export Plug-In . SVG Version: 6.00 Build 0)  -->
<svg version="1.1" id="Regular" xmlns="http://www.w3.org/2000/svg" xmlns:xlink="http://www.w3.org/1999/xlink" x="0px" y="0px"
	 viewBox="0 0 24 24" style="enable-background:new 0 0 24 24;" xml:space="preserve">
<title>real-estate-deal-key-1</title>
<g>
	<path d="M2.894,15.107c-0.2,0-0.389-0.078-0.53-0.22l-2.121-2.122c-0.292-0.292-0.292-0.768,0-1.061
		c0.142-0.142,0.33-0.22,0.53-0.22s0.389,0.078,0.53,0.22l1.591,1.591l1.061-1.061l-1.591-1.591c-0.292-0.292-0.292-0.768,0-1.061
		c0.142-0.142,0.33-0.22,0.531-0.22c0.2,0,0.388,0.078,0.53,0.219l1.592,1.591l5.358-5.358C9.965,5.204,9.752,4.496,9.752,3.748
		c0-1.001,0.391-1.943,1.099-2.651C11.56,0.39,12.501,0,13.502,0c1.003,0,1.944,0.391,2.652,1.099
		c0.231,0.231,0.432,0.491,0.596,0.774c0.208,0.358,0.086,0.817-0.271,1.025C16.364,2.965,16.234,3,16.102,3
		c-0.266,0-0.515-0.143-0.649-0.373c-0.099-0.171-0.22-0.328-0.36-0.467c-0.425-0.425-0.99-0.659-1.591-0.66
		c-0.602,0-1.166,0.234-1.591,0.658c-0.425,0.425-0.659,0.99-0.66,1.591s0.233,1.166,0.658,1.591C12.335,5.765,12.9,6,13.501,6
		c0.413,0,0.75,0.337,0.75,0.75c0,0.413-0.336,0.75-0.75,0.75c-0.747,0-1.455-0.214-2.067-0.622l-8.01,8.01
		C3.282,15.029,3.094,15.107,2.894,15.107z"/>
	<path d="M12.751,24c-1.241,0-2.25-1.009-2.25-2.25V18c0-0.414,0.336-0.75,0.75-0.75s0.75,0.336,0.75,0.75v3.75
		c0,0.414,0.336,0.75,0.75,0.75h6c0.414,0,0.75-0.336,0.75-0.75V18c0-0.414,0.336-0.75,0.75-0.75s0.75,0.336,0.75,0.75v3.75
		c0,1.241-1.009,2.25-2.25,2.25H12.751z"/>
	<path d="M23.25,18c-0.186,0-0.364-0.068-0.502-0.193l-6.248-5.62V15c0,0.414-0.336,0.75-0.75,0.75c-0.414,0-0.75-0.336-0.75-0.75
		v-2.818l-6.248,5.626C8.615,17.931,8.436,18,8.251,18c-0.212,0-0.416-0.09-0.557-0.248c-0.276-0.307-0.252-0.782,0.055-1.059
		l6.494-5.847c0.221-0.199,0.479-0.351,0.758-0.449V6c0-0.827-0.673-1.5-1.5-1.5c-0.414,0-0.75-0.336-0.75-0.75S13.087,3,13.501,3
		c1.654,0,3,1.346,3,3v4.398c0.277,0.098,0.532,0.25,0.751,0.447l3.749,3.372V12c0-0.414,0.336-0.75,0.75-0.75s0.75,0.336,0.75,0.75
		v3.567l1.251,1.126c0.149,0.134,0.237,0.318,0.248,0.518c0.01,0.2-0.057,0.392-0.191,0.541C23.666,17.909,23.463,18,23.25,18
		L23.25,18z"/>
</g>
</svg>
