<?xml version="1.0" encoding="utf-8"?>
<!-- Generator: Adobe Illustrator 22.1.0, SVG Export Plug-In . SVG Version: 6.00 Build 0)  -->
<svg version="1.1" id="Regular" xmlns="http://www.w3.org/2000/svg" xmlns:xlink="http://www.w3.org/1999/xlink" x="0px" y="0px"
	 viewBox="0 0 24 24" style="enable-background:new 0 0 24 24;" xml:space="preserve">
<title>real-estate-sign-building-sale</title>
<g>
	<path d="M15,24c-1.241,0-2.25-1.009-2.25-2.25v-4.5c0-0.414,0.336-0.75,0.75-0.75s0.75,0.336,0.75,0.75v4.5
		c0,0.414,0.336,0.75,0.75,0.75h1.5c0.414,0,0.75,0.336,0.75,0.75S16.914,24,16.5,24H15z"/>
	<path d="M3.141,24.007c-0.058,0-0.116-0.002-0.174-0.007H1.5c-0.414,0-0.75-0.336-0.75-0.75S1.086,22.5,1.5,22.5H3
		c0.025,0,0.05,0.001,0.074,0.004c0.023,0.002,0.045,0.003,0.067,0.003c0.3,0,0.55-0.21,0.607-0.504
		c-0.022-0.376-0.325-0.624-1.135-1.11C1.783,20.395,0.75,19.775,0.75,18.45c0-0.031,0.002-0.061,0.005-0.091
		c0.131-1.064,1.036-1.866,2.104-1.866c0.057,0,0.116,0.002,0.174,0.007H4.5c0.414,0,0.75,0.336,0.75,0.75S4.914,18,4.5,18H3
		c-0.025,0-0.05-0.001-0.074-0.004c-0.022-0.002-0.044-0.003-0.065-0.003c-0.301,0-0.552,0.21-0.609,0.504
		c0.022,0.377,0.325,0.624,1.135,1.11c0.831,0.499,1.864,1.119,1.864,2.443c0,0.031-0.002,0.061-0.005,0.091
		C5.113,23.205,4.209,24.007,3.141,24.007L3.141,24.007z"/>
	<path d="M10.5,24c-0.414,0-0.75-0.336-0.75-0.75V21h-1.5v2.25C8.25,23.664,7.914,24,7.5,24s-0.75-0.336-0.75-0.75v-4.5
		c0-1.241,1.009-2.25,2.25-2.25s2.25,1.009,2.25,2.25v4.5C11.25,23.664,10.914,24,10.5,24z M9.75,19.5v-0.75
		C9.75,18.337,9.414,18,9,18s-0.75,0.336-0.75,0.75v0.75H9.75z"/>
	<path d="M21,24c-1.241,0-2.25-1.009-2.25-2.25v-3c0-1.241,1.009-2.25,2.25-2.25h1.5c0.414,0,0.75,0.336,0.75,0.75
		S22.914,18,22.5,18H21c-0.414,0-0.75,0.336-0.75,0.75v0.75h2.25c0.414,0,0.75,0.336,0.75,0.75S22.914,21,22.5,21h-2.25v0.75
		c0,0.414,0.336,0.75,0.75,0.75h1.5c0.414,0,0.75,0.336,0.75,0.75S22.914,24,22.5,24H21z"/>
	<path d="M21,15c-0.414,0-0.75-0.336-0.75-0.75v-6c0-0.414-0.336-0.75-0.75-0.75h-5.249V9h3c0.414,0,0.75,0.336,0.75,0.75
		s-0.336,0.75-0.75,0.75h-3V12h3c0.414,0,0.75,0.336,0.75,0.75s-0.336,0.75-0.75,0.75h-3v0.75c0,0.414-0.336,0.75-0.75,0.75
		s-0.75-0.336-0.75-0.75V6.776C12.75,6.767,12.75,6.758,12.75,6.75s0-0.017,0.001-0.026V5.77c-0.028-0.008-0.055-0.02-0.082-0.034
		l-8.17-4.229l0.002,2.994h1.5c0.414,0,0.75,0.336,0.75,0.75s-0.336,0.75-0.75,0.75h-1.5v1.5h3c0.414,0,0.75,0.336,0.75,0.75
		s-0.336,0.75-0.75,0.75h-3v5.249c0,0.414-0.336,0.75-0.75,0.75s-0.75-0.336-0.75-0.75V1.5c0.003-0.826,0.676-1.498,1.5-1.498
		c0.183,0,0.359,0.033,0.526,0.095c0.029,0.011,0.056,0.023,0.082,0.036l3.892,2.014V0.751c0-0.414,0.336-0.75,0.75-0.75
		s0.75,0.336,0.75,0.75v2.174l2.825,1.462c0.552,0.229,0.923,0.782,0.925,1.381V6H19.5c1.241,0,2.25,1.009,2.25,2.25v6
		C21.75,14.664,21.414,15,21,15z"/>
</g>
</svg>
