<?xml version="1.0" encoding="utf-8"?>
<!-- Generator: Adobe Illustrator 22.1.0, SVG Export Plug-In . SVG Version: 6.00 Build 0)  -->
<svg version="1.1" id="Regular" xmlns="http://www.w3.org/2000/svg" xmlns:xlink="http://www.w3.org/1999/xlink" x="0px" y="0px"
	 viewBox="0 0 24 24" style="enable-background:new 0 0 24 24;" xml:space="preserve">
<title>real-estate-search-house-2</title>
<g>
	<path d="M15.75,16.5c-4.549,0-8.25-3.701-8.25-8.25S11.201,0,15.75,0S24,3.701,24,8.25S20.299,16.5,15.75,16.5z M15.75,1.5
		C12.028,1.5,9,4.528,9,8.25S12.028,15,15.75,15s6.75-3.028,6.75-6.75S19.472,1.5,15.75,1.5z"/>
	<path d="M15.75,24C15.336,24,15,23.664,15,23.25v-2.492l-2.25-0.9v3.392c0,0.414-0.336,0.75-0.75,0.75H0.75
		C0.336,24,0,23.664,0,23.25V4.5C0,3.673,0.673,3,1.5,3V0.75C1.5,0.336,1.836,0,2.25,0S3,0.336,3,0.75V3h1.5V2.25
		c0-0.414,0.336-0.75,0.75-0.75S6,1.836,6,2.25V3h0.75C7.164,3,7.5,3.336,7.5,3.75S7.164,4.5,6.75,4.5H1.5v3H3
		c0.414,0,0.75,0.336,0.75,0.75S3.414,9,3,9H1.5v1.5h3.75C5.664,10.5,6,10.836,6,11.25S5.664,12,5.25,12H1.5v10.5h3v-6.75
		c0-0.827,0.673-1.5,1.5-1.5h0.749c0.414,0,0.75,0.336,0.75,0.75s-0.336,0.75-0.75,0.75H6v1.5h2.25C8.664,17.25,9,17.586,9,18
		s-0.336,0.75-0.75,0.75H6v3.75h5.25V18c0-0.414,0.336-0.75,0.75-0.75s0.75,0.336,0.75,0.75v0.242l3.278,1.312
		c0.286,0.114,0.472,0.388,0.472,0.696v3C16.5,23.664,16.164,24,15.75,24z"/>
	<path d="M13.5,12.75c-0.827,0-1.5-0.673-1.5-1.5V7.851l-0.27,0.225c-0.135,0.112-0.305,0.174-0.48,0.174
		c-0.223,0-0.433-0.098-0.576-0.27c-0.265-0.318-0.222-0.792,0.096-1.057l4.5-3.75C15.404,3.062,15.574,3,15.75,3
		s0.346,0.062,0.48,0.174l4.5,3.75c0.154,0.128,0.249,0.309,0.267,0.508c0.018,0.199-0.042,0.394-0.171,0.548
		c-0.143,0.172-0.353,0.27-0.576,0.27c-0.175,0-0.345-0.062-0.48-0.174L19.5,7.851v3.399c0,0.827-0.673,1.5-1.5,1.5H13.5z
		 M13.5,11.25H18V6.601l-2.25-1.875L13.5,6.601V11.25z"/>
</g>
</svg>
