<?xml version="1.0" encoding="utf-8"?>
<!-- Generator: Adobe Illustrator 22.1.0, SVG Export Plug-In . SVG Version: 6.00 Build 0)  -->
<svg version="1.1" id="Regular" xmlns="http://www.w3.org/2000/svg" xmlns:xlink="http://www.w3.org/1999/xlink" x="0px" y="0px"
	 viewBox="0 0 24 24" style="enable-background:new 0 0 24 24;" xml:space="preserve">
<title>real-estate-dimensions-block</title>
<g>
	<path d="M9.75,24c-1.241,0-2.25-1.009-2.25-2.25v-12c0-1.241,1.009-2.25,2.25-2.25h12C22.991,7.5,24,8.509,24,9.75v12
		c0,1.241-1.009,2.25-2.25,2.25H9.75z M21.75,22.5c0.414,0,0.75-0.336,0.75-0.75V19.5h-3v3H21.75z M18,22.5v-6
		c0-0.414,0.336-0.75,0.75-0.75s0.75,0.336,0.75,0.75V18h3v-5.25H18c-0.414,0-0.75-0.336-0.75-0.75V9h-1.5v7.5
		c0,0.414-0.336,0.75-0.75,0.75h-3.75c-0.414,0-0.75-0.336-0.75-0.75s0.336-0.75,0.75-0.75h3V9h-4.5C9.336,9,9,9.336,9,9.75V12h3
		c0.414,0,0.75,0.336,0.75,0.75S12.414,13.5,12,13.5H9v6h3.75c0.414,0,0.75,0.336,0.75,0.75v2.25H18z M9,21.75
		c0,0.414,0.336,0.75,0.75,0.75H12V21L9,21.75z M22.5,11.25v-1.5C22.5,9.336,22.164,9,21.75,9h-3v2.25H22.5z"/>
	<path d="M3,24c-0.088,0-0.175-0.016-0.26-0.047c-0.008-0.003-0.015-0.005-0.022-0.008c-0.096-0.039-0.179-0.094-0.249-0.165
		L0.22,21.53c-0.292-0.292-0.292-0.768,0-1.061c0.142-0.142,0.33-0.22,0.53-0.22s0.389,0.078,0.53,0.22l0.97,0.97V7.061L1.28,8.03
		C1.139,8.172,0.95,8.25,0.75,8.25S0.361,8.172,0.22,8.03C0.078,7.889,0,7.7,0,7.5s0.078-0.389,0.22-0.53L2.469,4.72
		c0.07-0.07,0.152-0.125,0.245-0.163C2.722,4.553,2.731,4.55,2.74,4.547C2.825,4.516,2.912,4.5,3,4.5
		c0.089,0,0.177,0.016,0.261,0.048C3.268,4.55,3.276,4.553,3.282,4.555c0.097,0.04,0.179,0.095,0.249,0.166L5.78,6.97
		C5.922,7.111,6,7.3,6,7.5S5.922,7.889,5.78,8.03C5.639,8.172,5.45,8.25,5.25,8.25S4.861,8.172,4.72,8.03l-0.97-0.97v14.379
		l0.97-0.97c0.142-0.142,0.33-0.22,0.53-0.22s0.389,0.078,0.53,0.22c0.292,0.292,0.292,0.768,0,1.061l-2.25,2.25
		c-0.07,0.07-0.153,0.125-0.246,0.164c-0.008,0.003-0.017,0.007-0.026,0.01C3.173,23.985,3.087,24,3,24z"/>
	<path d="M21,6c-0.2,0-0.389-0.078-0.53-0.22c-0.142-0.141-0.22-0.33-0.22-0.53s0.078-0.389,0.22-0.53l0.97-0.97H7.061l0.97,0.97
		c0.142,0.141,0.22,0.33,0.22,0.53S8.172,5.639,8.03,5.78C7.889,5.922,7.7,6,7.5,6S7.111,5.922,6.97,5.78l-2.25-2.25
		c-0.07-0.07-0.125-0.152-0.163-0.245C4.553,3.278,4.55,3.269,4.547,3.26C4.516,3.174,4.5,3.088,4.5,3
		c0-0.089,0.016-0.176,0.048-0.261C4.55,2.732,4.553,2.725,4.555,2.718c0.04-0.097,0.095-0.179,0.166-0.249L6.97,0.22
		C7.111,0.078,7.3,0,7.5,0s0.389,0.078,0.53,0.22c0.142,0.141,0.22,0.33,0.22,0.53S8.172,1.139,8.03,1.28l-0.97,0.97h14.379
		l-0.97-0.97c-0.142-0.141-0.22-0.33-0.22-0.53s0.078-0.389,0.22-0.53S20.8,0,21,0s0.389,0.078,0.53,0.22l2.25,2.25
		c0.07,0.07,0.125,0.152,0.163,0.245c0.003,0.008,0.007,0.017,0.01,0.026C23.983,2.822,24,2.91,24,3
		c0,0.087-0.016,0.174-0.047,0.258c-0.002,0.006-0.004,0.011-0.006,0.016c-0.042,0.104-0.098,0.186-0.168,0.257L21.53,5.78
		C21.389,5.922,21.2,6,21,6z"/>
</g>
</svg>
