<?xml version="1.0" encoding="utf-8"?>
<!-- Generator: Adobe Illustrator 22.1.0, SVG Export Plug-In . SVG Version: 6.00 Build 0)  -->
<svg version="1.1" id="Regular" xmlns="http://www.w3.org/2000/svg" xmlns:xlink="http://www.w3.org/1999/xlink" x="0px" y="0px"
	 viewBox="0 0 24 24" style="enable-background:new 0 0 24 24;" xml:space="preserve">
<title>real-estate-market-house</title>
<g>
	<path d="M3.752,18.288c-0.194,0-0.379-0.074-0.519-0.208c-2.024-1.942-3.171-4.555-3.23-7.359c-0.059-2.804,0.978-5.463,2.92-7.487
		c1.941-2.024,4.555-3.171,7.359-3.23l0.153,0C10.458,0.002,10.479,0,10.5,0c0.025,0,0.048,0.002,0.072,0.005
		c2.699,0.019,5.254,1.055,7.197,2.919c1.865,1.788,3.002,4.193,3.201,6.77c0.016,0.2-0.048,0.394-0.178,0.546
		c-0.13,0.152-0.312,0.244-0.512,0.26c-0.019,0.001-0.039,0.002-0.058,0.002c-0.389,0-0.717-0.304-0.747-0.692
		C19.304,7.6,18.33,5.539,16.731,4.006c-1.491-1.43-3.424-2.297-5.481-2.467v3.016c1.305,0.164,2.522,0.749,3.458,1.669
		c0.72,0.708,1.254,1.594,1.543,2.562c0.118,0.396-0.108,0.815-0.504,0.933C15.676,9.74,15.605,9.75,15.533,9.75
		c-0.329,0-0.625-0.22-0.719-0.535c-0.217-0.726-0.617-1.39-1.157-1.921c-0.847-0.833-1.967-1.291-3.154-1.291l-0.039,0
		c-1.202,0.01-2.328,0.488-3.17,1.345C6.45,8.205,5.992,9.339,6.002,10.541c0.01,1.202,0.488,2.328,1.345,3.171
		c0.143,0.14,0.222,0.328,0.224,0.528c0.002,0.2-0.075,0.389-0.215,0.532c-0.142,0.145-0.332,0.224-0.535,0.224
		c-0.198,0-0.384-0.076-0.526-0.215c-1.143-1.124-1.78-2.625-1.794-4.228c-0.003-0.384,0.033-0.776,0.109-1.169L1.734,8.453
		c-0.169,0.729-0.246,1.479-0.231,2.236c0.05,2.404,1.033,4.644,2.768,6.307c0.298,0.287,0.308,0.762,0.022,1.061
		C4.153,18.204,3.956,18.288,3.752,18.288z M5.067,7.955c0.287-0.613,0.675-1.17,1.156-1.659C7.17,5.333,8.412,4.722,9.75,4.555
		V1.54c-2.192,0.181-4.22,1.142-5.745,2.732C3.23,5.08,2.623,6.005,2.196,7.026L5.067,7.955z"/>
	<path d="M12.75,24c-1.241,0-2.25-1.009-2.25-2.25v-5.289L8.746,18.04c-0.138,0.124-0.316,0.192-0.501,0.192
		c-0.212,0-0.416-0.091-0.558-0.248c-0.134-0.149-0.202-0.341-0.192-0.542c0.011-0.2,0.099-0.384,0.248-0.518l6.5-5.847
		c0.415-0.373,0.949-0.578,1.505-0.578s1.09,0.205,1.504,0.578l6.5,5.847c0.149,0.134,0.237,0.318,0.248,0.518
		c0.01,0.2-0.057,0.392-0.191,0.541c-0.142,0.158-0.345,0.248-0.558,0.248c-0.186,0-0.364-0.068-0.501-0.193L21,16.467v5.283
		c0,1.241-1.009,2.25-2.25,2.25H12.75z M12,21.75c0,0.414,0.337,0.75,0.75,0.75h6c0.414,0,0.75-0.336,0.75-0.75v-6.633l-3.251-2.925
		C16.11,12.068,15.932,12,15.747,12c-0.185,0-0.363,0.069-0.502,0.193L12,15.112V21.75z"/>
</g>
</svg>
