<?xml version="1.0" encoding="utf-8"?>
<!-- Generator: Adobe Illustrator 22.1.0, SVG Export Plug-In . SVG Version: 6.00 Build 0)  -->
<svg version="1.1" id="Regular" xmlns="http://www.w3.org/2000/svg" xmlns:xlink="http://www.w3.org/1999/xlink" x="0px" y="0px"
	 viewBox="0 0 24 24" style="enable-background:new 0 0 24 24;" xml:space="preserve">
<title>real-estate-action-building-megaphone</title>
<g>
	<path d="M0.751,24c-0.414,0-0.75-0.336-0.75-0.75v-12C0.001,10.009,1.01,9,2.251,9h3V5.77c0.002-0.601,0.373-1.154,0.925-1.383
		l1.325-0.686v-2.95c0-0.414,0.336-0.75,0.75-0.75s0.75,0.336,0.75,0.75v2.174l5.392-2.791c0.026-0.014,0.053-0.026,0.081-0.036
		c0.168-0.063,0.344-0.095,0.523-0.096c0.404,0,0.779,0.155,1.062,0.436c0.284,0.282,0.441,0.659,0.443,1.059V8.25
		c0,0.414-0.336,0.75-0.75,0.75h-3.75c-0.414,0-0.75-0.336-0.75-0.75s0.336-0.75,0.75-0.75h3V6h-1.5c-0.414,0-0.75-0.336-0.75-0.75
		s0.336-0.75,0.75-0.75h1.5V1.508L6.832,5.736C6.806,5.749,6.779,5.762,6.751,5.772l0,3.228c1.241,0,2.25,1.009,2.25,2.25v3
		c0,0.414-0.336,0.75-0.75,0.75s-0.75-0.336-0.75-0.75v-3c0-0.414-0.336-0.75-0.75-0.75h-4.5c-0.414,0-0.75,0.336-0.75,0.75V12h1.5
		c0.414,0,0.75,0.336,0.75,0.75s-0.336,0.75-0.75,0.75h-1.5V15h3c0.414,0,0.75,0.336,0.75,0.75s-0.336,0.75-0.75,0.75h-3v6h8.25
		c0.414,0,0.75,0.336,0.75,0.75S10.164,24,9.751,24H0.751z"/>
	<path d="M16.785,23.999c-1.138,0-2.177-0.622-2.711-1.623l-0.672-1.421c-0.188,0.099-0.381,0.202-0.58,0.309l-0.348,0.188
		c-0.446,0.237-0.944,0.362-1.445,0.362c-1.101,0-2.122-0.588-2.67-1.536c-0.023-0.032-0.044-0.066-0.062-0.102
		c-0.38-0.71-0.46-1.536-0.223-2.318c0.237-0.781,0.764-1.423,1.484-1.808c5.646-3.072,6.213-3.831,8.094-6.348l0.018-0.024
		c0.194-0.259,0.4-0.535,0.627-0.833c0.141-0.186,0.365-0.296,0.598-0.296c0.02,0,0.039,0.001,0.059,0.002
		c0.256,0.021,0.481,0.168,0.602,0.395l4.356,8.177c0.12,0.225,0.118,0.493-0.006,0.717c-0.124,0.223-0.35,0.367-0.605,0.384
		c-0.49,0.033-0.931,0.055-1.344,0.076c-2.31,0.115-3.612,0.18-7.22,1.969l0.677,1.433c0.26,0.485,0.786,0.797,1.367,0.797
		c0.255,0,0.509-0.064,0.735-0.184c0.108-0.057,0.23-0.088,0.352-0.088c0.278,0,0.532,0.152,0.663,0.398
		c0.194,0.365,0.055,0.82-0.31,1.014C17.779,23.875,17.283,23.999,16.785,23.999z M9.596,19.422
		c0.014,0.021,0.027,0.042,0.038,0.063c0.275,0.512,0.809,0.83,1.394,0.83c0.256,0,0.51-0.064,0.737-0.184l0.344-0.187
		c0.224-0.121,0.44-0.236,0.651-0.347l-1.349-2.854c-0.357,0.199-0.736,0.408-1.14,0.628C9.9,17.57,9.631,17.897,9.51,18.295
		C9.396,18.67,9.427,19.069,9.596,19.422z M14.097,18.915c3.883-1.917,5.369-1.992,7.786-2.112c0,0,0.132-0.007,0.155-0.008
		l-3.251-6.103c-1.584,2.12-2.382,3.147-6.068,5.305L14.097,18.915z"/>
</g>
</svg>
