<?xml version="1.0" encoding="utf-8"?>
<!-- Generator: Adobe Illustrator 22.1.0, SVG Export Plug-In . SVG Version: 6.00 Build 0)  -->
<svg version="1.1" id="Regular" xmlns="http://www.w3.org/2000/svg" xmlns:xlink="http://www.w3.org/1999/xlink" x="0px" y="0px"
	 viewBox="0 0 24 24" style="enable-background:new 0 0 24 24;" xml:space="preserve">
<title>real-estate-message-house-1</title>
<g>
	<path d="M5.25,24c-0.116,0-0.232-0.027-0.336-0.079C4.659,23.793,4.5,23.536,4.5,23.25V19.5H2.25C1.009,19.5,0,18.491,0,17.25v-15
		C0,1.009,1.009,0,2.25,0h19.5C22.991,0,24,1.009,24,2.25v15c0,1.241-1.009,2.25-2.25,2.25H11.5l-5.8,4.35
		C5.571,23.947,5.411,24,5.25,24z M2.25,1.5C1.836,1.5,1.5,1.836,1.5,2.25v15C1.5,17.664,1.836,18,2.25,18h3
		C5.664,18,6,18.336,6,18.75v3l4.8-3.6c0.129-0.097,0.289-0.15,0.45-0.15h10.5c0.414,0,0.75-0.336,0.75-0.75v-15
		c0-0.414-0.336-0.75-0.75-0.75H2.25z"/>
	<path d="M9.75,14.25c-0.827,0-1.5-0.673-1.5-1.5V9.351L7.98,9.576C7.846,9.688,7.675,9.75,7.5,9.75
		c-0.223,0-0.433-0.098-0.576-0.27C6.659,9.162,6.702,8.688,7.02,8.424l4.5-3.75C11.654,4.562,11.825,4.5,12,4.5
		s0.346,0.062,0.48,0.174l4.5,3.75c0.154,0.128,0.249,0.309,0.267,0.508c0.018,0.199-0.042,0.394-0.171,0.548
		c-0.143,0.172-0.353,0.27-0.576,0.27c-0.175,0-0.345-0.062-0.48-0.174l-0.27-0.225v3.399c0,0.827-0.673,1.5-1.5,1.5H9.75z
		 M9.75,12.75h4.5V8.101L12,6.226L9.75,8.101V12.75z"/>
</g>
</svg>
