<?xml version="1.0" encoding="utf-8"?>
<!-- Generator: Adobe Illustrator 22.1.0, SVG Export Plug-In . SVG Version: 6.00 Build 0)  -->
<svg version="1.1" id="Regular" xmlns="http://www.w3.org/2000/svg" xmlns:xlink="http://www.w3.org/1999/xlink" x="0px" y="0px"
	 viewBox="0 0 24 24" style="enable-background:new 0 0 24 24;" xml:space="preserve">
<title>real-estate-action-house-star-1</title>
<g>
	<path d="M5.249,23.498c-1.241,0-2.25-1.009-2.25-2.25v-10.5c0-0.414,0.336-0.75,0.75-0.75s0.75,0.336,0.75,0.75v10.5
		c0,0.414,0.336,0.75,0.75,0.75h13.5c0.414,0,0.75-0.336,0.75-0.75v-10.5c0-0.414,0.336-0.75,0.75-0.75s0.75,0.336,0.75,0.75v10.5
		c0,1.241-1.009,2.25-2.25,2.25H5.249z"/>
	<path d="M0.75,9.998c-0.238,0-0.464-0.115-0.605-0.307C0.026,9.53-0.022,9.332,0.008,9.133c0.031-0.198,0.136-0.372,0.298-0.491
		l10.363-7.6C11.059,0.757,11.519,0.605,12,0.605s0.94,0.151,1.33,0.437l10.363,7.6c0.333,0.244,0.406,0.715,0.162,1.048
		c-0.141,0.192-0.367,0.307-0.605,0.307c-0.161,0-0.314-0.05-0.444-0.146l-10.362-7.6c-0.131-0.096-0.284-0.146-0.443-0.146
		c-0.16,0-0.313,0.051-0.444,0.146l-10.363,7.6C1.063,9.947,0.91,9.998,0.75,9.998z"/>
	<path d="M21.749,5.497c-0.414,0-0.75-0.336-0.75-0.75v-2.25h-2.25c-0.414,0-0.75-0.336-0.75-0.75s0.336-0.75,0.75-0.75h3
		c0.414,0,0.75,0.336,0.75,0.75v3C22.499,5.161,22.163,5.497,21.749,5.497z"/>
	<path d="M15.231,18.249c-0.2,0-0.4-0.05-0.578-0.144l-1.902-0.994l-1.905,0.995c-0.176,0.093-0.375,0.142-0.574,0.142
		c-0.259,0-0.507-0.08-0.719-0.231c-0.381-0.269-0.577-0.742-0.497-1.205l0.364-2.111l-1.546-1.499
		c-0.335-0.324-0.457-0.819-0.311-1.262c0.15-0.45,0.533-0.768,0.999-0.833l2.132-0.308l0.948-1.915
		c0.216-0.425,0.64-0.685,1.109-0.685c0.193,0,0.387,0.046,0.56,0.134c0.236,0.12,0.424,0.308,0.544,0.544l0.954,1.922l2.135,0.308
		c0.464,0.065,0.845,0.383,0.995,0.829c0.146,0.446,0.024,0.943-0.312,1.266l-1.545,1.498l0.364,2.111
		c0.08,0.463-0.117,0.937-0.502,1.208C15.737,18.169,15.49,18.248,15.231,18.249C15.231,18.249,15.231,18.249,15.231,18.249z
		 M10.567,13.725c0.29,0.281,0.423,0.687,0.355,1.085l-0.297,1.719l1.551-0.81c0.174-0.093,0.374-0.142,0.574-0.142
		c0.2,0,0.4,0.05,0.578,0.144l1.547,0.808l-0.296-1.717c-0.067-0.4,0.065-0.806,0.355-1.087l1.25-1.212l-1.726-0.249
		c-0.399-0.056-0.747-0.306-0.929-0.668l-0.78-1.57l-0.775,1.566c-0.183,0.365-0.532,0.616-0.933,0.673l-1.724,0.249L10.567,13.725z
		"/>
</g>
</svg>
