<?xml version="1.0" encoding="utf-8"?>
<!-- Generator: Adobe Illustrator 22.1.0, SVG Export Plug-In . SVG Version: 6.00 Build 0)  -->
<svg version="1.1" id="Regular" xmlns="http://www.w3.org/2000/svg" xmlns:xlink="http://www.w3.org/1999/xlink" x="0px" y="0px"
	 viewBox="0 0 24 24" style="enable-background:new 0 0 24 24;" xml:space="preserve">
<title>real-estate-action-building-location</title>
<g>
	<path d="M16.381,24.002c-0.53,0-1.014-0.289-1.264-0.755L9.88,11.812c-0.163-0.383-0.163-0.801-0.008-1.166
		c0.23-0.542,0.76-0.893,1.35-0.893c0.197,0,0.39,0.039,0.572,0.117L23.201,15.1c0.375,0.199,0.621,0.494,0.734,0.863
		c0.112,0.365,0.075,0.753-0.104,1.091c-0.179,0.338-0.479,0.586-0.845,0.698l-3.844,1.396l-1.407,3.879
		c-0.1,0.328-0.35,0.629-0.68,0.806C16.849,23.944,16.615,24.002,16.381,24.002z M16.372,22.389l1.48-4.083
		c0.076-0.209,0.24-0.373,0.449-0.449l4.084-1.482L11.29,11.289L16.372,22.389z"/>
	<path d="M0.751,24c-0.414,0-0.75-0.336-0.75-0.75v-12C0.001,10.009,1.01,9,2.251,9h3V5.77c0.002-0.601,0.373-1.154,0.925-1.383
		l1.325-0.686v-2.95c0-0.414,0.336-0.75,0.75-0.75c0.414,0,0.75,0.336,0.75,0.75v2.174l5.392-2.791
		c0.026-0.014,0.053-0.026,0.081-0.036c0.168-0.063,0.344-0.095,0.523-0.096c0.404,0,0.779,0.155,1.062,0.436
		c0.284,0.282,0.441,0.659,0.443,1.059V9c0,0.414-0.336,0.75-0.75,0.75c-0.414,0-0.75-0.336-0.75-0.75h-3
		c-0.414,0-0.75-0.336-0.75-0.75s0.336-0.75,0.75-0.75h3V6h-1.5c-0.414,0-0.75-0.336-0.75-0.75s0.336-0.75,0.75-0.75h1.5V1.508
		L6.833,5.736C6.807,5.749,6.779,5.761,6.751,5.772l0,3.228c1.241,0,2.25,1.009,2.25,2.25V22.5h2.25c0.414,0,0.75,0.336,0.75,0.75
		S11.664,24,11.251,24H0.751z M7.501,22.5V11.25c0-0.414-0.336-0.75-0.75-0.75h-4.5c-0.414,0-0.75,0.336-0.75,0.75V12h1.5
		c0.414,0,0.75,0.336,0.75,0.75s-0.336,0.75-0.75,0.75h-1.5V15h3c0.414,0,0.75,0.336,0.75,0.75s-0.336,0.75-0.75,0.75h-3v6H7.501z"
		/>
</g>
</svg>
