<?xml version="1.0" encoding="utf-8"?>
<!-- Generator: Adobe Illustrator 22.1.0, SVG Export Plug-In . SVG Version: 6.00 Build 0)  -->
<svg version="1.1" id="Regular" xmlns="http://www.w3.org/2000/svg" xmlns:xlink="http://www.w3.org/1999/xlink" x="0px" y="0px"
	 viewBox="0 0 24 24" style="enable-background:new 0 0 24 24;" xml:space="preserve">
<title>real-estate-favorite-house-choose</title>
<g>
	<path d="M23.016,23.998c-0.414,0-0.75-0.336-0.75-0.75v-0.743c0-2.042-1.661-3.703-3.703-3.703h-1.485
		c-0.414,0-0.75-0.336-0.75-0.75V11.37c0-0.404-0.33-0.734-0.735-0.734c-0.197,0-0.381,0.076-0.52,0.215
		c-0.139,0.139-0.216,0.323-0.216,0.52v8.908c0,0.309-0.194,0.591-0.483,0.701c-0.086,0.033-0.176,0.049-0.267,0.049
		c-0.214,0-0.419-0.092-0.561-0.252l-1.917-2.157c-0.131-0.135-0.334-0.219-0.547-0.219c-0.185,0-0.365,0.064-0.505,0.179
		c-0.163,0.134-0.264,0.324-0.285,0.534c-0.021,0.21,0.042,0.416,0.176,0.579l2.719,3.056c0.133,0.15,0.2,0.342,0.188,0.542
		c-0.012,0.2-0.101,0.383-0.25,0.517c-0.138,0.122-0.315,0.189-0.498,0.189c-0.214,0-0.418-0.092-0.56-0.251l-2.737-3.078
		c-0.404-0.49-0.589-1.09-0.53-1.699c0.059-0.609,0.352-1.158,0.824-1.547c0.406-0.334,0.923-0.519,1.454-0.519
		c0.623,0,1.225,0.255,1.652,0.699l0.627,0.705V11.37c0-0.597,0.233-1.158,0.656-1.58c0.422-0.421,0.982-0.654,1.579-0.654
		c1.232,0.001,2.234,1.003,2.235,2.234v5.932h0.735c2.869,0,5.203,2.334,5.203,5.203v0.743
		C23.766,23.662,23.43,23.998,23.016,23.998z"/>
	<path d="M5.2,15.09c-1.233-0.003-2.233-1.008-2.231-2.24V8.398c0-0.414,0.336-0.75,0.75-0.75s0.75,0.336,0.75,0.75v4.454
		c-0.001,0.406,0.328,0.737,0.733,0.738h5.937c0.414,0,0.75,0.336,0.75,0.75s-0.336,0.75-0.75,0.75H5.2z"/>
	<path d="M0.75,7.666c-0.212,0-0.416-0.09-0.558-0.248C0.059,7.269-0.009,7.077,0.001,6.877c0.01-0.2,0.098-0.384,0.247-0.518
		l6.43-5.787c0.412-0.371,0.943-0.575,1.495-0.575s1.083,0.204,1.495,0.574l3.693,3.323V1.72c0-0.414,0.336-0.75,0.75-0.75
		s0.75,0.336,0.75,0.75v3.523l1.24,1.115c0.307,0.276,0.333,0.752,0.056,1.059c-0.142,0.158-0.345,0.249-0.558,0.249
		c-0.186,0-0.364-0.068-0.502-0.193l-1.476-1.328c-0.009-0.007-0.024-0.021-0.04-0.036L8.665,1.687
		C8.53,1.565,8.355,1.498,8.174,1.498c-0.182,0-0.356,0.067-0.492,0.189l-6.43,5.787C1.114,7.598,0.936,7.666,0.75,7.666L0.75,7.666
		z"/>
</g>
</svg>
