<?xml version="1.0" encoding="utf-8"?>
<!-- Generator: Adobe Illustrator 22.1.0, SVG Export Plug-In . SVG Version: 6.00 Build 0)  -->
<svg version="1.1" id="Regular" xmlns="http://www.w3.org/2000/svg" xmlns:xlink="http://www.w3.org/1999/xlink" x="0px" y="0px"
	 viewBox="0 0 24 24" style="enable-background:new 0 0 24 24;" xml:space="preserve">
<title>real-estate-dimensions-building</title>
<g>
	<path d="M3,24c-0.088,0-0.175-0.016-0.26-0.047c-0.008-0.003-0.015-0.005-0.022-0.008c-0.096-0.039-0.179-0.094-0.249-0.165
		L0.22,21.53c-0.292-0.292-0.292-0.768,0-1.061c0.142-0.142,0.33-0.22,0.53-0.22s0.389,0.078,0.53,0.22l0.97,0.97V9.311l-0.97,0.97
		c-0.142,0.142-0.33,0.22-0.53,0.22s-0.389-0.078-0.53-0.22C0.078,10.139,0,9.95,0,9.75s0.078-0.389,0.22-0.53L2.469,6.97
		c0.07-0.07,0.152-0.125,0.245-0.163C2.722,6.803,2.731,6.8,2.74,6.797C2.825,6.766,2.912,6.75,3,6.75
		c0.089,0,0.177,0.016,0.261,0.048C3.268,6.8,3.276,6.803,3.282,6.805C3.378,6.845,3.461,6.9,3.531,6.971L5.78,9.22
		C5.922,9.361,6,9.55,6,9.75s-0.078,0.389-0.22,0.53c-0.141,0.142-0.33,0.22-0.53,0.22s-0.389-0.078-0.53-0.22l-0.97-0.97v12.129
		l0.97-0.97c0.142-0.142,0.33-0.22,0.53-0.22s0.389,0.078,0.53,0.22c0.292,0.292,0.292,0.768,0,1.061l-2.25,2.25
		c-0.07,0.07-0.153,0.125-0.246,0.164c-0.008,0.003-0.017,0.007-0.026,0.01C3.173,23.985,3.087,24,3,24z"/>
	<path d="M21,6c-0.2,0-0.389-0.078-0.53-0.22c-0.142-0.141-0.22-0.33-0.22-0.53s0.078-0.389,0.22-0.53l0.97-0.97H9.311l0.97,0.97
		c0.142,0.141,0.22,0.33,0.22,0.53s-0.078,0.389-0.22,0.53C10.139,5.922,9.95,6,9.75,6S9.361,5.922,9.22,5.78l-2.25-2.25
		C6.9,3.461,6.845,3.378,6.807,3.286C6.803,3.278,6.8,3.269,6.797,3.26C6.766,3.174,6.75,3.088,6.75,3
		c0-0.089,0.016-0.176,0.048-0.261C6.8,2.732,6.803,2.725,6.805,2.718C6.845,2.622,6.9,2.539,6.971,2.469L9.22,0.22
		C9.361,0.078,9.55,0,9.75,0s0.389,0.078,0.53,0.22c0.142,0.141,0.22,0.33,0.22,0.53s-0.078,0.389-0.22,0.53l-0.97,0.97h12.129
		l-0.97-0.97c-0.142-0.141-0.22-0.33-0.22-0.53s0.078-0.389,0.22-0.53S20.8,0,21,0s0.389,0.078,0.53,0.22l2.25,2.25
		c0.07,0.07,0.125,0.152,0.163,0.245c0.003,0.008,0.007,0.017,0.01,0.026C23.983,2.822,24,2.91,24,3
		c0,0.087-0.016,0.174-0.047,0.258c-0.002,0.006-0.004,0.011-0.006,0.016c-0.042,0.104-0.098,0.186-0.168,0.257L21.53,5.78
		C21.389,5.922,21.2,6,21,6z"/>
	<path d="M8.25,24c-0.414,0-0.75-0.336-0.75-0.75s0.336-0.75,0.75-0.75H9v-7c0-0.689,0.561-1.25,1.25-1.25h2.5v-4.5
		c0-0.827,0.673-1.5,1.5-1.5H21c0.827,0,1.5,0.673,1.5,1.5V22.5h0.75c0.414,0,0.75,0.336,0.75,0.75S23.664,24,23.25,24H8.25z
		 M21,22.5v-6.75h-1.5c-0.414,0-0.75-0.336-0.75-0.75s0.336-0.75,0.75-0.75H21v-1.5h-1.5c-0.414,0-0.75-0.336-0.75-0.75
		s0.336-0.75,0.75-0.75H21v-1.5h-6.75l0,4.5H16c0.689,0,1.25,0.561,1.25,1.25v7H21z M15.75,22.5v-3.75H13.5
		c-0.414,0-0.75-0.336-0.75-0.75s0.336-0.75,0.75-0.75h2.25v-1.5H10.5v6.75H15.75z"/>
</g>
</svg>
