<?xml version="1.0" encoding="utf-8"?>
<!-- Generator: Adobe Illustrator 22.1.0, SVG Export Plug-In . SVG Version: 6.00 Build 0)  -->
<svg version="1.1" id="Regular" xmlns="http://www.w3.org/2000/svg" xmlns:xlink="http://www.w3.org/1999/xlink" x="0px" y="0px"
	 viewBox="0 0 24 24" style="enable-background:new 0 0 24 24;" xml:space="preserve">
<title>real-estate-action-house-pin</title>
<g>
	<path d="M6,20.498c-1.241,0-2.25-1.009-2.25-2.25v-7.5c0-0.414,0.336-0.75,0.75-0.75s0.75,0.336,0.75,0.75v7.5
		c0,0.414,0.336,0.75,0.75,0.75h4.5c0.414,0,0.75,0.336,0.75,0.75s-0.336,0.75-0.75,0.75H6z"/>
	<path d="M1.5,9.998c-0.221,0-0.43-0.097-0.573-0.266C0.798,9.579,0.736,9.385,0.752,9.185c0.017-0.2,0.11-0.381,0.263-0.51
		l8.781-7.43c0.407-0.344,0.923-0.534,1.453-0.534s1.046,0.19,1.453,0.534l7.289,6.168c0.153,0.129,0.246,0.311,0.263,0.51
		c0.017,0.2-0.045,0.394-0.175,0.547c-0.143,0.169-0.352,0.265-0.573,0.265l0,0c-0.177,0-0.349-0.063-0.484-0.177L11.735,2.39
		c-0.136-0.115-0.308-0.178-0.485-0.178s-0.348,0.063-0.484,0.178L1.984,9.82C1.849,9.935,1.677,9.998,1.5,9.998z"/>
	<path d="M19.5,5.498c-0.414,0-0.75-0.336-0.75-0.75v-2.25H16.5c-0.414,0-0.75-0.336-0.75-0.75s0.336-0.75,0.75-0.75h3
		c0.414,0,0.75,0.336,0.75,0.75v3C20.25,5.161,19.913,5.498,19.5,5.498z"/>
	<circle cx="18" cy="15.248" r="1.125"/>
	<path d="M17.998,23.498c-0.336,0-0.655-0.11-0.921-0.318c-0.095-0.074-0.182-0.161-0.258-0.258
		c-1.223-1.565-4.068-5.444-4.068-7.674c0-2.895,2.355-5.25,5.25-5.25s5.25,2.355,5.25,5.25c0,2.23-2.845,6.109-4.068,7.674
		c-0.247,0.315-0.601,0.516-0.999,0.565C18.121,23.494,18.059,23.498,17.998,23.498z M18,11.498c-2.068,0-3.75,1.682-3.75,3.75
		c0,1.349,1.883,4.362,3.75,6.75c1.867-2.388,3.75-5.401,3.75-6.75C21.75,13.18,20.068,11.498,18,11.498z"/>
</g>
</svg>
