<?xml version="1.0" encoding="utf-8"?>
<!-- Generator: Adobe Illustrator 22.1.0, SVG Export Plug-In . SVG Version: 6.00 Build 0)  -->
<svg version="1.1" id="Regular" xmlns="http://www.w3.org/2000/svg" xmlns:xlink="http://www.w3.org/1999/xlink" x="0px" y="0px"
	 viewBox="0 0 24 24" style="enable-background:new 0 0 24 24;" xml:space="preserve">
<title>real-estate-action-house-lock</title>
<g>
	<path d="M6,20.248c-1.241,0-2.25-1.009-2.25-2.25v-7.5c0-0.414,0.336-0.75,0.75-0.75s0.75,0.336,0.75,0.75v7.5
		c0,0.414,0.336,0.75,0.75,0.75h4.5c0.414,0,0.75,0.336,0.75,0.75s-0.336,0.75-0.75,0.75H6z"/>
	<path d="M1.5,9.748c-0.221,0-0.43-0.097-0.573-0.266C0.798,9.329,0.736,9.135,0.752,8.935c0.017-0.2,0.11-0.381,0.263-0.51
		l8.781-7.43c0.407-0.344,0.923-0.534,1.453-0.534c0.53,0,1.047,0.19,1.453,0.534l7.3,6.177c0.153,0.129,0.246,0.311,0.263,0.51
		c0.017,0.2-0.045,0.394-0.175,0.547c-0.143,0.169-0.352,0.265-0.573,0.265c0,0,0,0,0,0c-0.177,0-0.349-0.063-0.484-0.177
		l-7.3-6.177c-0.136-0.115-0.308-0.179-0.485-0.179s-0.348,0.063-0.484,0.178L1.984,9.57C1.849,9.685,1.677,9.748,1.5,9.748z"/>
	<path d="M19.5,5.248c-0.414,0-0.75-0.336-0.75-0.75v-2.25H16.5c-0.414,0-0.75-0.336-0.75-0.75s0.336-0.75,0.75-0.75h3
		c0.414,0,0.75,0.336,0.75,0.75v3C20.25,4.911,19.913,5.248,19.5,5.248z"/>
	<path d="M14.5,23.248c-0.965,0-1.75-0.785-1.75-1.75v-5.5c0-0.88,0.653-1.611,1.5-1.732v-0.768c0-2.068,1.682-3.75,3.75-3.75
		s3.75,1.682,3.75,3.75v0.768c0.847,0.122,1.5,0.852,1.5,1.732v5.5c0,0.965-0.785,1.75-1.75,1.75H14.5z M14.5,15.748
		c-0.138,0-0.25,0.112-0.25,0.25v5.5c0,0.138,0.112,0.25,0.25,0.25h7c0.138,0,0.25-0.112,0.25-0.25v-5.5
		c0-0.138-0.112-0.25-0.25-0.25H14.5z M20.25,14.248v-0.75c0-1.241-1.009-2.25-2.25-2.25s-2.25,1.009-2.25,2.25v0.75H20.25z"/>
	<circle cx="18" cy="18.773" r="1.125"/>
</g>
</svg>
