<?xml version="1.0" encoding="utf-8"?>
<!-- Generator: Adobe Illustrator 22.1.0, SVG Export Plug-In . SVG Version: 6.00 Build 0)  -->
<svg version="1.1" id="Regular" xmlns="http://www.w3.org/2000/svg" xmlns:xlink="http://www.w3.org/1999/xlink" x="0px" y="0px"
	 viewBox="0 0 24 24" style="enable-background:new 0 0 24 24;" xml:space="preserve">
<title>real-estate-sign-building-sold</title>
<g>
	<path d="M9,24.001c-1.241,0-2.25-1.009-2.25-2.25v-3c0-1.241,1.009-2.25,2.25-2.25s2.25,1.009,2.25,2.25v3
		C11.25,22.992,10.241,24.001,9,24.001z M9,18.001c-0.414,0-0.75,0.336-0.75,0.75v3c0,0.414,0.336,0.75,0.75,0.75
		s0.75-0.336,0.75-0.75v-3C9.75,18.337,9.414,18.001,9,18.001z"/>
	<path d="M15,24.001c-1.241,0-2.25-1.009-2.25-2.25v-4.5c0-0.414,0.336-0.75,0.75-0.75s0.75,0.336,0.75,0.75v4.5
		c0,0.414,0.336,0.75,0.75,0.75h1.5c0.414,0,0.75,0.336,0.75,0.75s-0.336,0.75-0.75,0.75H15z"/>
	<path d="M3.141,24.008c-0.058,0-0.116-0.002-0.174-0.007H1.5c-0.414,0-0.75-0.336-0.75-0.75s0.336-0.75,0.75-0.75H3
		c0.025,0,0.05,0.001,0.074,0.004c0.022,0.002,0.044,0.003,0.065,0.003c0.301,0,0.552-0.21,0.609-0.504
		c-0.022-0.377-0.325-0.624-1.135-1.11c-0.831-0.499-1.864-1.119-1.864-2.443c0-0.031,0.002-0.061,0.005-0.091
		c0.131-1.064,1.036-1.866,2.104-1.866c0.057,0,0.115,0.002,0.174,0.007H4.5c0.414,0,0.75,0.336,0.75,0.75s-0.336,0.75-0.75,0.75H3
		c-0.025,0-0.05-0.001-0.074-0.004c-0.022-0.002-0.044-0.003-0.066-0.003c-0.301,0-0.552,0.21-0.609,0.504
		c0.022,0.377,0.325,0.624,1.135,1.11c0.831,0.499,1.864,1.119,1.864,2.443c0,0.031-0.002,0.061-0.005,0.091
		C5.113,23.206,4.209,24.008,3.141,24.008L3.141,24.008z"/>
	<path d="M19.78,24.015c-0.117,0-0.236-0.006-0.354-0.017c-0.386-0.038-0.677-0.359-0.677-0.747v-6c0-0.387,0.291-0.708,0.676-0.746
		c0.117-0.012,0.236-0.017,0.353-0.017c1.76,0,3.25,1.321,3.466,3.072c0.004,0.029,0.006,0.06,0.006,0.092v1.2
		c0,0.031-0.002,0.062-0.006,0.093C23.028,22.694,21.538,24.015,19.78,24.015z M20.25,22.458c0.778-0.189,1.381-0.835,1.5-1.657
		v-1.1c-0.119-0.823-0.721-1.469-1.5-1.658V22.458z"/>
	<path d="M21,15.001c-0.414,0-0.75-0.336-0.75-0.75v-6c0-0.414-0.336-0.75-0.75-0.75h-5.25v1.5h3c0.414,0,0.75,0.336,0.75,0.75
		s-0.336,0.75-0.75,0.75h-3v1.5h3c0.414,0,0.75,0.336,0.75,0.75s-0.336,0.75-0.75,0.75h-3v0.75c0,0.414-0.336,0.75-0.75,0.75
		s-0.75-0.336-0.75-0.75v-8.48c-0.028-0.008-0.055-0.02-0.082-0.034L4.5,1.509v2.993H6c0.414,0,0.75,0.336,0.75,0.75
		S6.414,6.002,6,6.002H4.5v1.5h3c0.414,0,0.75,0.336,0.75,0.75s-0.336,0.75-0.75,0.75h-3v5.249c0,0.414-0.336,0.75-0.75,0.75
		S3,14.664,3,14.251V1.501c0.001-0.403,0.159-0.779,0.443-1.062C3.725,0.158,4.101,0.003,4.5,0.003c0.184,0,0.359,0.033,0.527,0.095
		c0.029,0.011,0.055,0.023,0.081,0.036L9,2.149V0.752c0-0.414,0.336-0.75,0.75-0.75s0.75,0.336,0.75,0.75v2.174l2.825,1.462
		c0.552,0.229,0.923,0.782,0.925,1.381v0.233h5.25c1.241,0,2.25,1.009,2.25,2.25v6C21.75,14.664,21.414,15.001,21,15.001z"/>
</g>
</svg>
