<?xml version="1.0" encoding="utf-8"?>
<!-- Generator: Adobe Illustrator 22.1.0, SVG Export Plug-In . SVG Version: 6.00 Build 0)  -->
<svg version="1.1" id="Regular" xmlns="http://www.w3.org/2000/svg" xmlns:xlink="http://www.w3.org/1999/xlink" x="0px" y="0px"
	 viewBox="0 0 24 24" style="enable-background:new 0 0 24 24;" xml:space="preserve">
<title>real-estate-favorite-house-pick</title>
<g>
	<path d="M12.5,13.5c-1.241,0-2.25-1.009-2.25-2.25v-4.5H9.5c-2.895,0-5.25-2.355-5.25-5.25V0.75C4.25,0.336,4.586,0,5,0
		s0.75,0.336,0.75,0.75V1.5c0,2.068,1.682,3.75,3.75,3.75H11c0.414,0,0.75,0.336,0.75,0.75v5.25c0,0.414,0.337,0.75,0.75,0.75
		s0.75-0.336,0.75-0.75v-7.5c0-0.316,0.2-0.6,0.498-0.706C13.829,3.015,13.914,3,14,3c0.226,0,0.438,0.1,0.581,0.275l1.779,2.18
		c0.136,0.153,0.351,0.248,0.579,0.248c0.2,0,0.392-0.073,0.54-0.204c0.161-0.143,0.257-0.341,0.27-0.556
		c0.013-0.215-0.059-0.423-0.202-0.584l-2.621-3.126c-0.266-0.317-0.224-0.791,0.093-1.057C15.153,0.062,15.324,0,15.5,0
		c0.222,0,0.432,0.098,0.575,0.268l2.607,3.11c0.398,0.447,0.601,1.036,0.564,1.652c-0.036,0.615-0.31,1.18-0.771,1.589
		c-0.422,0.375-0.966,0.582-1.531,0.582c0,0,0,0,0,0c-0.66,0-1.289-0.282-1.726-0.774L14.75,5.854v5.396
		C14.75,12.491,13.741,13.5,12.5,13.5z"/>
	<path d="M8,24c-0.827,0-1.5-0.673-1.5-1.5v-2.25c0-0.414,0.336-0.75,0.75-0.75S8,19.836,8,20.25v2.25h4.5v-2.25
		c0-0.414,0.336-0.75,0.75-0.75S14,19.836,14,20.25v2.25c0,0.827-0.673,1.5-1.5,1.5H8z"/>
	<path d="M5.75,18.75c-0.223,0-0.434-0.098-0.577-0.27c-0.128-0.154-0.189-0.348-0.171-0.548c0.018-0.199,0.113-0.38,0.267-0.508
		l4.5-3.75c0.135-0.112,0.305-0.174,0.48-0.174s0.345,0.062,0.48,0.174l4.5,3.75c0.154,0.128,0.249,0.309,0.267,0.508
		c0.018,0.199-0.042,0.394-0.171,0.548c-0.143,0.171-0.353,0.27-0.576,0.27c0,0,0,0,0,0c-0.175,0-0.345-0.062-0.48-0.174l-4.02-3.35
		l-4.02,3.35C6.095,18.688,5.925,18.75,5.75,18.75z"/>
</g>
</svg>
