<?xml version="1.0" encoding="utf-8"?>
<!-- Generator: Adobe Illustrator 22.1.0, SVG Export Plug-In . SVG Version: 6.00 Build 0)  -->
<svg version="1.1" id="Regular" xmlns="http://www.w3.org/2000/svg" xmlns:xlink="http://www.w3.org/1999/xlink" x="0px" y="0px"
	 viewBox="0 0 24 24" style="enable-background:new 0 0 24 24;" xml:space="preserve">
<title>real-estate-action-building-minus</title>
<g>
	<path d="M17.25,24c-3.722,0-6.75-3.028-6.75-6.75s3.028-6.75,6.75-6.75S24,13.528,24,17.25S20.972,24,17.25,24z M17.25,12
		C14.355,12,12,14.355,12,17.25s2.355,5.25,5.25,5.25s5.25-2.355,5.25-5.25S20.145,12,17.25,12z"/>
	<path d="M14.25,18c-0.414,0-0.75-0.336-0.75-0.75s0.336-0.75,0.75-0.75h6c0.414,0,0.75,0.336,0.75,0.75S20.664,18,20.25,18H14.25z"
		/>
	<path d="M0.75,24C0.336,24,0,23.663,0,23.25v-12C0,10.009,1.009,9,2.25,9h3V5.77c0.002-0.601,0.373-1.154,0.925-1.383L7.5,3.701
		v-2.95c0-0.414,0.336-0.75,0.75-0.75S9,0.337,9,0.751v2.174l5.392-2.791c0.026-0.014,0.053-0.026,0.081-0.036
		c0.167-0.063,0.343-0.095,0.521-0.096c0.83,0,1.503,0.671,1.506,1.496V8.25C16.5,8.663,16.164,9,15.75,9H12
		c-0.414,0-0.75-0.336-0.75-0.75S11.586,7.5,12,7.5h3V6h-1.5c-0.414,0-0.75-0.336-0.75-0.75S13.086,4.5,13.5,4.5H15V1.508
		L6.832,5.736C6.804,5.75,6.778,5.762,6.75,5.772L6.75,9C7.991,9,9,10.009,9,11.25V22.5h0.75c0.414,0,0.75,0.336,0.75,0.75
		S10.164,24,9.75,24H0.75z M7.5,22.5V11.25c0-0.414-0.336-0.75-0.75-0.75h-4.5c-0.414,0-0.75,0.336-0.75,0.75V12H3
		c0.414,0,0.75,0.336,0.75,0.75S3.414,13.5,3,13.5H1.5V15h3c0.414,0,0.75,0.336,0.75,0.75S4.914,16.5,4.5,16.5h-3v6H7.5z"/>
</g>
</svg>
