<?xml version="1.0" encoding="utf-8"?>
<!-- Generator: Adobe Illustrator 22.1.0, SVG Export Plug-In . SVG Version: 6.00 Build 0)  -->
<svg version="1.1" id="Regular" xmlns="http://www.w3.org/2000/svg" xmlns:xlink="http://www.w3.org/1999/xlink" x="0px" y="0px"
	 viewBox="0 0 24 24" style="enable-background:new 0 0 24 24;" xml:space="preserve">
<title>real-estate-update-house-sync</title>
<g>
	<path d="M2.251,14.75c-0.088,0-0.175-0.016-0.26-0.047c-0.008-0.003-0.015-0.005-0.022-0.008C1.873,14.656,1.79,14.601,1.72,14.53
		L0.22,13.03c-0.292-0.292-0.292-0.768,0-1.061c0.142-0.142,0.33-0.22,0.53-0.22s0.389,0.078,0.53,0.22l0.22,0.22V11.75
		c0-2.33,0.79-4.624,2.224-6.46c1.726-2.211,4.209-3.617,6.993-3.96c0.432-0.053,0.871-0.08,1.304-0.08
		c2.349,0,4.576,0.77,6.441,2.225c0.158,0.123,0.259,0.301,0.283,0.499c0.025,0.199-0.03,0.395-0.153,0.553
		C18.448,4.711,18.233,4.816,18,4.816c-0.167,0-0.331-0.057-0.462-0.159C15.94,3.409,14.032,2.75,12.02,2.75
		c-0.371,0-0.748,0.023-1.119,0.069C8.515,3.113,6.386,4.318,4.906,6.213C3.678,7.787,3.001,9.753,3.001,11.75v0.439l0.22-0.22
		c0.142-0.142,0.33-0.22,0.53-0.22s0.389,0.078,0.53,0.22c0.142,0.142,0.22,0.33,0.22,0.53s-0.078,0.389-0.22,0.53l-1.5,1.5
		c-0.07,0.07-0.153,0.125-0.246,0.164c-0.008,0.003-0.017,0.007-0.027,0.01C2.423,14.735,2.337,14.75,2.251,14.75z"/>
	<path d="M11.979,22.255c-2.349,0-4.576-0.769-6.44-2.224c-0.326-0.255-0.384-0.727-0.13-1.053c0.144-0.184,0.359-0.289,0.592-0.289
		c0.166,0,0.33,0.056,0.461,0.158c1.599,1.248,3.506,1.907,5.518,1.907c0.372,0,0.75-0.023,1.122-0.069
		c2.386-0.294,4.515-1.5,5.994-3.396c1.229-1.575,1.906-3.542,1.905-5.539v-0.44l-0.22,0.22c-0.142,0.142-0.33,0.22-0.53,0.22
		s-0.389-0.078-0.53-0.22c-0.142-0.141-0.22-0.33-0.22-0.53s0.078-0.389,0.22-0.53l1.5-1.5c0.07-0.07,0.153-0.125,0.245-0.163
		c0.007-0.003,0.016-0.006,0.024-0.009C21.57,8.767,21.66,8.75,21.751,8.75c0.089,0,0.176,0.016,0.261,0.048
		c0.011,0.004,0.022,0.008,0.032,0.012c0.085,0.035,0.167,0.09,0.238,0.16l1.5,1.5c0.142,0.141,0.22,0.33,0.22,0.53
		s-0.078,0.389-0.22,0.53s-0.33,0.22-0.53,0.22s-0.389-0.078-0.53-0.22l-0.22-0.22v0.439c0,2.33-0.789,4.625-2.222,6.462
		c-1.726,2.211-4.209,3.618-6.993,3.961C12.851,22.227,12.412,22.255,11.979,22.255z"/>
	<path d="M9.751,17c-0.827,0-1.5-0.673-1.5-1.5v-2.25c0-0.414,0.336-0.75,0.75-0.75s0.75,0.336,0.75,0.75v2.25h4.5v-2.25
		c0-0.414,0.336-0.75,0.75-0.75s0.75,0.336,0.75,0.75v2.25c0,0.827-0.673,1.5-1.5,1.5H9.751z"/>
	<path d="M7.501,11.75c-0.223,0-0.433-0.098-0.576-0.27c-0.265-0.318-0.222-0.792,0.096-1.057l4.5-3.75
		c0.135-0.112,0.305-0.174,0.48-0.174s0.346,0.062,0.48,0.174l4.5,3.75c0.154,0.128,0.249,0.309,0.267,0.508
		c0.018,0.199-0.042,0.394-0.171,0.548c-0.143,0.172-0.353,0.27-0.576,0.27c-0.175,0-0.345-0.062-0.48-0.174l-4.02-3.35l-4.02,3.35
		C7.846,11.689,7.676,11.75,7.501,11.75z"/>
</g>
</svg>
