<?xml version="1.0" encoding="utf-8"?>
<!-- Generator: Adobe Illustrator 22.1.0, SVG Export Plug-In . SVG Version: 6.00 Build 0)  -->
<svg version="1.1" id="Regular" xmlns="http://www.w3.org/2000/svg" xmlns:xlink="http://www.w3.org/1999/xlink" x="0px" y="0px"
	 viewBox="0 0 24 24" style="enable-background:new 0 0 24 24;" xml:space="preserve">
<title>real-estate-search-building</title>
<g>
	<path d="M23.25,24c-0.2,0-0.389-0.078-0.53-0.22l-4.068-4.068c-2.054,1.8-4.669,2.788-7.402,2.788C5.047,22.5,0,17.453,0,11.25
		C0,5.047,5.047,0,11.25,0C17.453,0,22.5,5.047,22.5,11.25c0,2.733-0.987,5.347-2.788,7.402l4.068,4.068
		c0.142,0.142,0.22,0.33,0.22,0.53s-0.078,0.389-0.22,0.53S23.45,24,23.25,24z M11.25,1.5c-5.376,0-9.75,4.374-9.75,9.75
		S5.874,21,11.25,21S21,16.626,21,11.25S16.626,1.5,11.25,1.5z"/>
	<path d="M5.25,16.5c-0.414,0-0.75-0.336-0.75-0.75S4.836,15,5.25,15h1.5V6c0-0.827,0.673-1.5,1.5-1.5h6c0.827,0,1.5,0.673,1.5,1.5
		v9h1.5c0.414,0,0.75,0.336,0.75,0.75s-0.336,0.75-0.75,0.75H5.25z M14.25,15v-2.25H12c-0.414,0-0.75-0.336-0.75-0.75
		s0.336-0.75,0.75-0.75h2.25v-1.5H12c-0.414,0-0.75-0.336-0.75-0.75S11.586,8.25,12,8.25h2.25V6h-6l0,9H14.25z"/>
</g>
</svg>
