<?xml version="1.0" encoding="utf-8"?>
<!-- Generator: Adobe Illustrator 22.1.0, SVG Export Plug-In . SVG Version: 6.00 Build 0)  -->
<svg version="1.1" id="Regular" xmlns="http://www.w3.org/2000/svg" xmlns:xlink="http://www.w3.org/1999/xlink" x="0px" y="0px"
	 viewBox="0 0 24 24" style="enable-background:new 0 0 24 24;" xml:space="preserve">
<title>real-estate-action-building-disable</title>
<g>
	<path d="M17.25,24c-1.789,0-3.473-0.694-4.747-1.956c-0.009-0.007-0.017-0.015-0.025-0.023c-0.01-0.01-0.019-0.02-0.028-0.031
		c-1.252-1.259-1.95-2.948-1.95-4.74c0-3.722,3.028-6.75,6.75-6.75c1.786,0,3.468,0.692,4.741,1.95
		c0.011,0.009,0.022,0.019,0.031,0.028c0.01,0.01,0.02,0.021,0.03,0.033C23.304,13.774,24,15.46,24,17.25
		C24,20.972,20.972,24,17.25,24z M14.108,21.451c0.906,0.679,2.007,1.049,3.142,1.049c2.895,0,5.25-2.355,5.25-5.25
		c0-1.135-0.37-2.236-1.048-3.141L14.108,21.451z M17.25,12C14.355,12,12,14.355,12,17.25c0,1.135,0.37,2.236,1.048,3.141
		l7.343-7.343C19.486,12.369,18.385,12,17.25,12z"/>
	<path d="M0.75,24C0.336,24,0,23.663,0,23.25v-12C0,10.009,1.009,9,2.25,9h3V5.77c0.002-0.601,0.373-1.154,0.925-1.383L7.5,3.701
		v-2.95c0-0.414,0.336-0.75,0.75-0.75S9,0.337,9,0.751v2.174l5.392-2.791c0.026-0.014,0.053-0.026,0.081-0.036
		c0.167-0.063,0.343-0.095,0.521-0.096c0.83,0,1.503,0.671,1.506,1.496V8.25C16.5,8.663,16.164,9,15.75,9H12
		c-0.414,0-0.75-0.336-0.75-0.75S11.586,7.5,12,7.5h3V6h-1.5c-0.414,0-0.75-0.336-0.75-0.75S13.086,4.5,13.5,4.5H15V1.508
		L6.832,5.736C6.804,5.75,6.778,5.762,6.75,5.772L6.75,9C7.991,9,9,10.009,9,11.25V22.5h0.75c0.414,0,0.75,0.336,0.75,0.75
		S10.164,24,9.75,24H0.75z M7.5,22.5V11.25c0-0.414-0.336-0.75-0.75-0.75h-4.5c-0.414,0-0.75,0.336-0.75,0.75V12H3
		c0.414,0,0.75,0.336,0.75,0.75S3.414,13.5,3,13.5H1.5V15h3c0.414,0,0.75,0.336,0.75,0.75S4.914,16.5,4.5,16.5h-3v6H7.5z"/>
</g>
</svg>
