<?xml version="1.0" encoding="utf-8"?>
<!-- Generator: Adobe Illustrator 22.1.0, SVG Export Plug-In . SVG Version: 6.00 Build 0)  -->
<svg version="1.1" id="Regular" xmlns="http://www.w3.org/2000/svg" xmlns:xlink="http://www.w3.org/1999/xlink" x="0px" y="0px"
	 viewBox="0 0 24 24" style="enable-background:new 0 0 24 24;" xml:space="preserve">
<title>real-estate-sign-board-rent</title>
<g>
	<path d="M1.5,9C1.086,9,0.75,8.663,0.75,8.25S1.086,7.5,1.5,7.5h5.625L10.8,2.6c0.24-0.321,0.591-0.528,0.988-0.585
		C11.86,2.005,11.931,2,12.002,2c0.326,0,0.636,0.104,0.898,0.3c0.113,0.084,0.214,0.185,0.3,0.299l3.675,4.9H22.5
		c0.414,0,0.75,0.336,0.75,0.75S22.914,9,22.5,9H1.5z M15,7.5l-3-4l-3,4H15z"/>
	<path d="M1.5,21c-0.414,0-0.75-0.336-0.75-0.75S1.086,19.5,1.5,19.5h21c0.414,0,0.75,0.336,0.75,0.75S22.914,21,22.5,21H1.5z"/>
	<path d="M21,18c-0.414,0-0.75-0.336-0.75-0.75V12H19.5c-0.414,0-0.75-0.336-0.75-0.75s0.336-0.75,0.75-0.75h3
		c0.414,0,0.75,0.336,0.75,0.75S22.914,12,22.5,12h-0.75v5.25C21.75,17.663,21.414,18,21,18z"/>
	<path d="M4.5,18c-0.2,0-0.389-0.078-0.53-0.22l-1.72-1.72v1.189C2.25,17.663,1.914,18,1.5,18s-0.75-0.336-0.75-0.75v-6
		c0-0.414,0.336-0.75,0.75-0.75h1.125c1.447,0,2.625,1.178,2.625,2.625c0,1.008-0.588,1.916-1.463,2.352L5.03,16.72
		c0.142,0.142,0.22,0.33,0.22,0.53s-0.078,0.389-0.22,0.53C4.889,17.922,4.7,18,4.5,18z M2.625,14.25
		c0.62,0,1.125-0.505,1.125-1.125S3.245,12,2.625,12H2.25v2.25H2.625z"/>
	<path d="M16.5,18c-0.286,0-0.543-0.159-0.671-0.414l-1.579-3.158v2.823c0,0.414-0.336,0.75-0.75,0.75s-0.75-0.336-0.75-0.75v-6
		c0-0.349,0.238-0.649,0.577-0.73c0.057-0.013,0.115-0.02,0.172-0.02c0.285,0,0.542,0.159,0.671,0.414l1.579,3.159V11.25
		c0-0.414,0.336-0.75,0.75-0.75s0.75,0.336,0.75,0.75v6c0,0.349-0.238,0.649-0.577,0.73C16.616,17.993,16.558,18,16.5,18z"/>
	<path d="M9,18c-1.241,0-2.25-1.009-2.25-2.25v-3c0-1.241,1.009-2.25,2.25-2.25h1.5c0.414,0,0.75,0.336,0.75,0.75S10.914,12,10.5,12
		H9c-0.414,0-0.75,0.336-0.75,0.75v0.75h2.25c0.414,0,0.75,0.336,0.75,0.75S10.914,15,10.5,15H8.25v0.75
		c0,0.414,0.336,0.75,0.75,0.75h1.5c0.414,0,0.75,0.336,0.75,0.75S10.914,18,10.5,18H9z"/>
</g>
</svg>
