<?xml version="1.0" encoding="utf-8"?>
<!-- Generator: Adobe Illustrator 22.1.0, SVG Export Plug-In . SVG Version: 6.00 Build 0)  -->
<svg version="1.1" id="Layer_1" xmlns="http://www.w3.org/2000/svg" xmlns:xlink="http://www.w3.org/1999/xlink" x="0px" y="0px"
	 viewBox="0 0 24 24" style="enable-background:new 0 0 24 24;" xml:space="preserve">
<title>receipt-1</title>
<g>
	<path d="M7.5,5.25c-0.414,0-0.75-0.336-0.75-0.75S7.087,3.75,7.5,3.75h2.25c0.414,0,0.75,0.336,0.75,0.75s-0.336,0.75-0.75,0.75
		H7.5z"/>
	<path d="M8.25,9C7.837,9,7.5,8.664,7.5,8.25S7.837,7.5,8.25,7.5h6C14.664,7.5,15,7.836,15,8.25S14.664,9,14.25,9H8.25z"/>
	<path d="M8.25,12.75c-0.414,0-0.75-0.336-0.75-0.75s0.336-0.75,0.75-0.75h6c0.414,0,0.75,0.336,0.75,0.75s-0.336,0.75-0.75,0.75
		H8.25z"/>
	<path d="M8.25,16.5c-0.414,0-0.75-0.336-0.75-0.75S7.837,15,8.25,15h6c0.414,0,0.75,0.336,0.75,0.75s-0.336,0.75-0.75,0.75H8.25z"
		/>
	<path d="M8.25,20.25c-0.414,0-0.75-0.336-0.75-0.75s0.336-0.75,0.75-0.75h3c0.414,0,0.75,0.336,0.75,0.75s-0.336,0.75-0.75,0.75
		H8.25z"/>
	<path d="M1.5,24c-0.356,0-0.666-0.254-0.735-0.603c-0.07-0.35,0.119-0.703,0.448-0.839C2.601,21.98,3.75,21.294,3.75,18.75v-15
		C3.75,1.682,5.432,0,7.5,0H21c1.241,0,2.25,1.009,2.25,2.25V6.5c0,0.965-0.785,1.75-1.75,1.75h-2.75v10.5
		c0,2.895-2.355,5.25-5.25,5.25H1.5z M13.5,22.5c2.068,0,3.75-1.682,3.75-3.75V2.25c0-0.259,0.044-0.511,0.129-0.75H7.5
		c-1.241,0-2.25,1.009-2.25,2.25v15c0,1.604-0.402,2.841-1.224,3.75H13.5z M21.5,6.75c0.138,0,0.25-0.112,0.25-0.25V2.25
		c0-0.414-0.336-0.75-0.75-0.75h-1.5c-0.414,0-0.75,0.336-0.75,0.75v4.5H21.5z"/>
</g>
</svg>
