<?xml version="1.0" encoding="utf-8"?>
<!-- Generator: Adobe Illustrator 22.1.0, SVG Export Plug-In . SVG Version: 6.00 Build 0)  -->
<svg version="1.1" id="Layer_1" xmlns="http://www.w3.org/2000/svg" xmlns:xlink="http://www.w3.org/1999/xlink" x="0px" y="0px"
	 viewBox="0 0 24 24" style="enable-background:new 0 0 24 24;" xml:space="preserve">
<title>reception-toilet</title>
<g>
	<path d="M2.5,24c-0.965,0-1.75-0.785-1.75-1.75v-7c0-0.965,0.785-1.75,1.75-1.75h5.261C6.188,12.231,5.25,10.313,5.25,8.25
		C5.25,7.836,5.586,7.5,6,7.5h5.25V3c0-1.654,1.346-3,3-3s3,1.346,3,3c0,0.414-0.336,0.75-0.75,0.75S15.75,3.414,15.75,3
		c0-0.827-0.673-1.5-1.5-1.5s-1.5,0.673-1.5,1.5v4.5H18c0.414,0,0.75,0.336,0.75,0.75c0,2.063-0.938,3.981-2.511,5.25H21.5
		c0.965,0,1.75,0.785,1.75,1.75v7c0,0.965-0.785,1.75-1.75,1.75H2.5z M21.5,22.5c0.138,0,0.25-0.112,0.25-0.25v-7
		c0-0.138-0.112-0.25-0.25-0.25h-8.75v7.5H21.5z M2.5,15c-0.138,0-0.25,0.112-0.25,0.25v7c0,0.138,0.112,0.25,0.25,0.25h8.75V15H2.5
		z M6.803,9C7.17,11.554,9.38,13.5,12,13.5c2.621,0,4.83-1.946,5.197-4.5H6.803z"/>
	<path d="M9,20.25c-0.414,0-0.75-0.336-0.75-0.75v-2.25c0-0.414,0.336-0.75,0.75-0.75s0.75,0.336,0.75,0.75v2.25
		C9.75,19.914,9.414,20.25,9,20.25z"/>
	<path d="M15,20.25c-0.414,0-0.75-0.336-0.75-0.75v-2.25c0-0.414,0.336-0.75,0.75-0.75s0.75,0.336,0.75,0.75v2.25
		C15.75,19.914,15.414,20.25,15,20.25z"/>
</g>
</svg>
