<?xml version="1.0" encoding="utf-8"?>
<!-- Generator: Adobe Illustrator 22.1.0, SVG Export Plug-In . SVG Version: 6.00 Build 0)  -->
<svg version="1.1" id="Layer_1" xmlns="http://www.w3.org/2000/svg" xmlns:xlink="http://www.w3.org/1999/xlink" x="0px" y="0px"
	 viewBox="0 0 24 24" style="enable-background:new 0 0 24 24;" xml:space="preserve">
<title>receipt-dollar</title>
<g>
	<path d="M6,7.5c-0.414,0-0.75-0.336-0.75-0.75S5.586,6,6,6h6c0.414,0,0.75,0.336,0.75,0.75S12.414,7.5,12,7.5H6z"/>
	<path d="M6,12c-0.414,0-0.75-0.336-0.75-0.75S5.586,10.5,6,10.5h3.75c0.414,0,0.75,0.336,0.75,0.75S10.164,12,9.75,12H6z"/>
	<path d="M6,16.5c-0.414,0-0.75-0.336-0.75-0.75S5.586,15,6,15h3.75c0.414,0,0.75,0.336,0.75,0.75s-0.336,0.75-0.75,0.75H6z"/>
	<path d="M16.5,7.5c-0.414,0-0.75-0.336-0.75-0.75S16.086,6,16.5,6H18c0.414,0,0.75,0.336,0.75,0.75S18.414,7.5,18,7.5H16.5z"/>
	<path d="M15.75,19.219c-0.414,0-0.75-0.336-0.75-0.75v-0.352c-0.674-0.154-1.282-0.543-1.705-1.099
		c-0.25-0.329-0.186-0.801,0.143-1.051c0.132-0.1,0.289-0.153,0.454-0.153c0.233,0,0.457,0.111,0.598,0.296
		c0.276,0.364,0.715,0.581,1.173,0.581l0.057-0.001c0.775,0,1.342-0.421,1.342-0.797s-0.561-0.797-1.312-0.797
		c-1.551,0-2.813-1.031-2.813-2.298c0-1.052,0.85-1.943,2.063-2.213V10.22c0-0.414,0.336-0.75,0.75-0.75s0.75,0.336,0.75,0.75v0.355
		c0.675,0.154,1.284,0.542,1.705,1.096c0.25,0.329,0.186,0.801-0.143,1.051c-0.133,0.1-0.289,0.153-0.454,0.153
		c-0.236,0-0.454-0.107-0.597-0.295c-0.281-0.37-0.706-0.582-1.167-0.582c-0.021,0-0.043,0-0.064,0.001
		c-0.776,0.001-1.344,0.422-1.344,0.798c0,0.377,0.562,0.798,1.313,0.798c1.551,0,2.812,1.031,2.812,2.297
		c0,1.052-0.849,1.943-2.062,2.212v0.365C16.5,18.883,16.164,19.219,15.75,19.219z"/>
	<path d="M21,24c-0.266,0-0.514-0.143-0.648-0.372c-0.161-0.275-0.392-0.506-0.668-0.667c-0.282-0.165-0.604-0.252-0.93-0.252
		c-0.66,0-1.275,0.353-1.606,0.92c-0.007,0.012-0.019,0.029-0.029,0.043c-0.012,0.019-0.026,0.037-0.041,0.055
		c-0.018,0.021-0.033,0.037-0.049,0.053c-0.016,0.016-0.033,0.031-0.05,0.046c-0.023,0.019-0.04,0.031-0.058,0.043
		c-0.014,0.011-0.033,0.023-0.046,0.031c-0.015,0.009-0.031,0.016-0.043,0.022c-0.035,0.018-0.07,0.032-0.106,0.043
		c-0.017,0.007-0.021,0.008-0.041,0.013c-0.044,0.011-0.093,0.019-0.147,0.021C16.525,23.999,16.512,24,16.5,24
		c-0.014,0-0.031-0.001-0.048-0.003c-0.036-0.002-0.075-0.008-0.115-0.017c-0.008-0.002-0.039-0.009-0.046-0.011
		c-0.044-0.013-0.087-0.03-0.129-0.051c-0.005-0.002-0.011-0.005-0.016-0.008c0,0-0.016-0.008-0.023-0.012
		c-0.049-0.028-0.094-0.062-0.139-0.105c-0.008-0.008-0.024-0.025-0.031-0.033c-0.026-0.027-0.051-0.059-0.073-0.092
		c-0.01-0.013-0.02-0.027-0.027-0.04c-0.161-0.277-0.392-0.508-0.668-0.669c-0.282-0.165-0.604-0.252-0.93-0.252
		c-0.66,0-1.275,0.353-1.606,0.92c-0.009,0.015-0.025,0.038-0.035,0.052c-0.002,0.004-0.017,0.026-0.034,0.046
		c-0.017,0.02-0.032,0.037-0.048,0.052c-0.019,0.019-0.038,0.036-0.058,0.053c-0.018,0.014-0.034,0.026-0.05,0.037
		c-0.013,0.01-0.031,0.022-0.042,0.029c-0.02,0.012-0.039,0.021-0.053,0.026c-0.042,0.02-0.078,0.034-0.116,0.046
		c-0.006,0.002-0.028,0.008-0.034,0.01c-0.04,0.01-0.086,0.017-0.137,0.02C12.027,23.999,12.013,24,12,24
		c-0.015,0-0.033-0.001-0.051-0.003c-0.034-0.002-0.07-0.007-0.106-0.015c-0.024-0.005-0.039-0.009-0.054-0.013
		c-0.042-0.012-0.085-0.029-0.126-0.049c0,0-0.001,0-0.001-0.001c-0.014-0.006-0.028-0.013-0.042-0.021h0
		c-0.049-0.029-0.095-0.064-0.137-0.104c-0.008-0.007-0.024-0.024-0.031-0.032c-0.025-0.026-0.051-0.058-0.074-0.093
		c-0.009-0.012-0.018-0.026-0.025-0.037c-0.162-0.278-0.393-0.509-0.669-0.67c-0.283-0.165-0.604-0.252-0.931-0.252
		c-0.66,0-1.275,0.352-1.606,0.919C8.014,23.857,7.766,24,7.5,24s-0.514-0.143-0.648-0.372c-0.161-0.275-0.392-0.506-0.668-0.667
		c-0.283-0.165-0.604-0.252-0.931-0.252c-0.66,0-1.275,0.352-1.606,0.919C3.514,23.857,3.266,24,3,24
		c-0.066,0-0.132-0.009-0.196-0.026C2.478,23.886,2.25,23.588,2.25,23.25V0.75c0-0.338,0.228-0.635,0.554-0.724
		C2.868,0.009,2.934,0,3,0c0.266,0,0.514,0.142,0.648,0.371c0.332,0.567,0.947,0.921,1.604,0.922
		c0.655-0.001,1.269-0.355,1.601-0.922C6.987,0.142,7.235,0,7.5,0c0.265,0,0.513,0.142,0.647,0.371
		c0.332,0.567,0.947,0.921,1.604,0.922c0.655-0.001,1.269-0.355,1.601-0.922C11.487,0.142,11.735,0,12,0
		c0.265,0,0.513,0.142,0.647,0.371c0.332,0.568,0.947,0.921,1.604,0.922c0.655-0.001,1.269-0.355,1.602-0.922
		C15.986,0.142,16.234,0,16.5,0c0.265,0,0.513,0.142,0.647,0.371c0.332,0.568,0.947,0.921,1.604,0.922
		c0.655-0.001,1.269-0.355,1.602-0.922C20.487,0.142,20.735,0,21.001,0c0.066,0,0.131,0.009,0.195,0.026
		c0.327,0.089,0.554,0.386,0.554,0.724v22.5c0,0.338-0.228,0.636-0.554,0.724C21.132,23.991,21.066,24,21,24L21,24z M9.755,21.209
		c0.591,0,1.174,0.158,1.685,0.456c0.197,0.115,0.383,0.253,0.557,0.413c0.614-0.556,1.417-0.869,2.259-0.869
		c0.59,0,1.172,0.158,1.684,0.456c0.197,0.115,0.383,0.253,0.557,0.413c0.614-0.556,1.417-0.869,2.259-0.869
		c0.518,0,1.03,0.122,1.493,0.353V2.435c-0.464,0.232-0.978,0.357-1.499,0.358c-0.837-0.001-1.637-0.314-2.251-0.869
		c-0.615,0.555-1.414,0.868-2.249,0.869C13.415,2.792,12.614,2.479,12,1.924c-0.614,0.555-1.414,0.868-2.248,0.869
		C8.915,2.792,8.115,2.479,7.5,1.923c-0.614,0.555-1.414,0.868-2.249,0.87C4.729,2.792,4.214,2.668,3.75,2.435v19.128
		c0.464-0.231,0.981-0.355,1.505-0.355c0.591,0,1.174,0.158,1.686,0.456c0.201,0.117,0.387,0.254,0.559,0.409
		C8.113,21.52,8.915,21.209,9.755,21.209z"/>
</g>
</svg>
