<?xml version="1.0" encoding="utf-8"?>
<!-- Generator: Adobe Illustrator 22.1.0, SVG Export Plug-In . SVG Version: 6.00 Build 0)  -->
<svg version="1.1" id="Layer_1" xmlns="http://www.w3.org/2000/svg" xmlns:xlink="http://www.w3.org/1999/xlink" x="0px" y="0px"
	 viewBox="0 0 24 24" style="enable-background:new 0 0 24 24;" xml:space="preserve">
<title>reception-hotel</title>
<g>
	<path d="M19.5,7.125c-1.861,0-3.375-1.514-3.375-3.375s1.514-3.375,3.375-3.375s3.375,1.514,3.375,3.375S21.361,7.125,19.5,7.125z
		 M19.5,1.875c-1.034,0-1.875,0.841-1.875,1.875s0.841,1.875,1.875,1.875s1.875-0.841,1.875-1.875S20.534,1.875,19.5,1.875z"/>
	<path d="M19.5,24c-1.654,0-3-1.346-3-3v-3.128C15.615,17.558,15,16.71,15,15.75v-4.5c0-2.068,1.682-3.75,3.75-3.75h1.5
		c2.068,0,3.75,1.682,3.75,3.75v4.5c0,0.96-0.615,1.808-1.5,2.122V21C22.5,22.654,21.154,24,19.5,24z M18.75,9
		c-1.241,0-2.25,1.009-2.25,2.25v4.5c0,0.414,0.336,0.75,0.75,0.75S18,16.836,18,17.25V21c0,0.827,0.673,1.5,1.5,1.5
		S21,21.827,21,21v-3.75c0-0.414,0.336-0.75,0.75-0.75s0.75-0.336,0.75-0.75v-4.5c0-1.241-1.009-2.25-2.25-2.25H18.75z"/>
	<path d="M6,7.125c-1.861,0-3.375-1.514-3.375-3.375v-3C2.625,0.336,2.961,0,3.375,0h5.25c0.414,0,0.75,0.336,0.75,0.75v3
		C9.375,5.611,7.861,7.125,6,7.125z M4.283,4.5C4.574,5.172,5.239,5.625,6,5.625S7.426,5.172,7.717,4.5H4.283z M7.875,3V1.5h-3.75V3
		H7.875z"/>
	<path d="M9.75,12C9.336,12,9,11.664,9,11.25C9,10.009,7.991,9,6.75,9h-1.5C4.009,9,3,10.009,3,11.25C3,11.664,2.664,12,2.25,12
		S1.5,11.664,1.5,11.25c0-2.068,1.682-3.75,3.75-3.75h1.5c2.068,0,3.75,1.682,3.75,3.75C10.5,11.664,10.164,12,9.75,12z"/>
	<path d="M0.75,24C0.336,24,0,23.664,0,23.25v-6c0-2.068,1.682-3.75,3.75-3.75h9c0.414,0,0.75,0.336,0.75,0.75S13.164,15,12.75,15
		h-9c-1.241,0-2.25,1.009-2.25,2.25v6C1.5,23.664,1.164,24,0.75,24z"/>
	<path d="M8.25,22.5c-0.414,0-0.75-0.336-0.75-0.75v-1.5H6v1.5c0,0.414-0.336,0.75-0.75,0.75S4.5,22.164,4.5,21.75v-4.5
		c0-0.414,0.336-0.75,0.75-0.75S6,16.836,6,17.25v1.5h1.5v-1.5c0-0.414,0.336-0.75,0.75-0.75S9,16.836,9,17.25v4.5
		C9,22.164,8.664,22.5,8.25,22.5z"/>
</g>
</svg>
