<?xml version="1.0" encoding="utf-8"?>
<!-- Generator: Adobe Illustrator 22.1.0, SVG Export Plug-In . SVG Version: 6.00 Build 0)  -->
<svg version="1.1" id="Layer_1" xmlns="http://www.w3.org/2000/svg" xmlns:xlink="http://www.w3.org/1999/xlink" x="0px" y="0px"
	 viewBox="0 0 24 24" style="enable-background:new 0 0 24 24;" xml:space="preserve">
<title>reception-hotel-24</title>
<g>
	<path d="M6,7.125c-1.861,0-3.375-1.514-3.375-3.375v-3C2.625,0.336,2.961,0,3.375,0h5.25c0.414,0,0.75,0.336,0.75,0.75v3
		C9.375,5.611,7.861,7.125,6,7.125z M4.283,4.5C4.574,5.172,5.239,5.625,6,5.625S7.426,5.172,7.717,4.5H4.283z M7.875,3V1.5h-3.75V3
		H7.875z"/>
	<path d="M9.75,12C9.336,12,9,11.664,9,11.25C9,10.009,7.991,9,6.75,9h-1.5C4.009,9,3,10.009,3,11.25C3,11.664,2.664,12,2.25,12
		S1.5,11.664,1.5,11.25c0-2.068,1.682-3.75,3.75-3.75h1.5c2.068,0,3.75,1.682,3.75,3.75C10.5,11.664,10.164,12,9.75,12z"/>
	<path d="M23.25,24c-0.414,0-0.75-0.336-0.75-0.75v-7.5c0-0.414-0.336-0.75-0.75-0.75H2.25c-0.414,0-0.75,0.336-0.75,0.75v7.5
		C1.5,23.664,1.164,24,0.75,24S0,23.664,0,23.25v-7.5c0-1.241,1.009-2.25,2.25-2.25H18V12h-2.25C15.336,12,15,11.664,15,11.25v-3
		c0-0.414,0.336-0.75,0.75-0.75h6c0.414,0,0.75,0.336,0.75,0.75v3c0,0.414-0.336,0.75-0.75,0.75H19.5v1.5h2.25
		c1.241,0,2.25,1.009,2.25,2.25v7.5C24,23.664,23.664,24,23.25,24z M21,10.5V9h-4.5v1.5H21z"/>
	<path d="M12.75,22.5c-0.414,0-0.75-0.336-0.75-0.75v-1.5h-1.5v1.5c0,0.414-0.336,0.75-0.75,0.75S9,22.164,9,21.75v-4.5
		c0-0.414,0.336-0.75,0.75-0.75s0.75,0.336,0.75,0.75v1.5H12v-1.5c0-0.414,0.336-0.75,0.75-0.75s0.75,0.336,0.75,0.75v4.5
		C13.5,22.164,13.164,22.5,12.75,22.5z"/>
	<path d="M21.75,6C21.336,6,21,5.664,21,5.25V4.5h-1.5c-0.414,0-0.75-0.336-0.75-0.75V3c0-1.654,1.346-3,3-3
		c0.414,0,0.75,0.336,0.75,0.75v4.5C22.5,5.664,22.164,6,21.75,6z M21,3V1.701C20.547,1.964,20.25,2.455,20.25,3H21z"/>
	<path d="M15,6c-0.286,0-0.552-0.167-0.676-0.425c-0.124-0.258-0.089-0.569,0.09-0.793l1.899-2.375
		c0.12-0.151,0.187-0.34,0.187-0.533c0-0.206-0.168-0.374-0.375-0.374S15.75,1.668,15.75,1.875c0,0.414-0.336,0.75-0.75,0.75
		s-0.75-0.336-0.75-0.75C14.25,0.841,15.091,0,16.125,0S18,0.841,18,1.875c-0.001,0.532-0.184,1.053-0.515,1.468L16.56,4.5h0.69
		C17.664,4.5,18,4.836,18,5.25S17.664,6,17.25,6H15z"/>
</g>
</svg>
