<?xml version="1.0" encoding="utf-8"?>
<!-- Generator: Adobe Illustrator 22.1.0, SVG Export Plug-In . SVG Version: 6.00 Build 0)  -->
<svg version="1.1" id="Layer_1" xmlns="http://www.w3.org/2000/svg" xmlns:xlink="http://www.w3.org/1999/xlink" x="0px" y="0px"
	 viewBox="0 0 24 24" style="enable-background:new 0 0 24 24;" xml:space="preserve">
<title>receipt-slip-1</title>
<g>
	<path d="M3,24c-0.099,0-0.196-0.019-0.287-0.057C2.432,23.826,2.25,23.554,2.25,23.25v-21C2.25,1.009,3.259,0,4.5,0h15
		c1.241,0,2.25,1.009,2.25,2.25v21c0,0.304-0.182,0.576-0.463,0.693C21.196,23.981,21.099,24,21,24c-0.2,0-0.389-0.078-0.53-0.22
		L18,21.311l-2.47,2.47C15.389,23.922,15.2,24,15,24s-0.389-0.078-0.53-0.22L12,21.311l-2.47,2.47C9.389,23.922,9.2,24,9,24
		s-0.389-0.078-0.53-0.22L6,21.311l-2.47,2.47C3.389,23.922,3.201,24,3,24z M6,19.5c0.2,0,0.389,0.078,0.53,0.22L9,22.189l2.47-2.47
		c0.142-0.142,0.33-0.22,0.53-0.22s0.389,0.078,0.53,0.22l2.47,2.47l2.47-2.47c0.142-0.142,0.33-0.22,0.53-0.22
		s0.389,0.078,0.53,0.22l1.72,1.72V2.25c0-0.414-0.336-0.75-0.75-0.75h-15c-0.414,0-0.75,0.336-0.75,0.75v19.189l1.72-1.72
		C5.611,19.578,5.8,19.5,6,19.5z"/>
	<path d="M6,6.75C5.586,6.75,5.25,6.414,5.25,6S5.586,5.25,6,5.25h6c0.414,0,0.75,0.336,0.75,0.75S12.414,6.75,12,6.75H6z"/>
	<path d="M6,11.25c-0.414,0-0.75-0.336-0.75-0.75S5.586,9.75,6,9.75h6c0.414,0,0.75,0.336,0.75,0.75s-0.336,0.75-0.75,0.75H6z"/>
	<path d="M6,15.75c-0.414,0-0.75-0.336-0.75-0.75S5.586,14.25,6,14.25h6c0.414,0,0.75,0.336,0.75,0.75s-0.336,0.75-0.75,0.75H6z"/>
	<circle cx="17.625" cy="5.625" r="1.125"/>
	<circle cx="17.625" cy="10.125" r="1.125"/>
	<circle cx="17.625" cy="14.625" r="1.125"/>
</g>
</svg>
