<?xml version="1.0" encoding="utf-8"?>
<!-- Generator: Adobe Illustrator 22.1.0, SVG Export Plug-In . SVG Version: 6.00 Build 0)  -->
<svg version="1.1" id="Layer_1" xmlns="http://www.w3.org/2000/svg" xmlns:xlink="http://www.w3.org/1999/xlink" x="0px" y="0px"
	 viewBox="0 0 24 24" style="enable-background:new 0 0 24 24;" xml:space="preserve">
<title>receipt</title>
<g>
	<path d="M8.25,13.5c-0.414,0-0.75-0.336-0.75-0.75S7.836,12,8.25,12h7.5c0.414,0,0.75,0.336,0.75,0.75s-0.336,0.75-0.75,0.75H8.25z
		"/>
	<path d="M8.25,10.5c-0.414,0-0.75-0.336-0.75-0.75S7.836,9,8.25,9h7.5c0.414,0,0.75,0.336,0.75,0.75s-0.336,0.75-0.75,0.75H8.25z"
		/>
	<path d="M8.25,7.5C7.836,7.5,7.5,7.164,7.5,6.75S7.836,6,8.25,6h7.5c0.414,0,0.75,0.336,0.75,0.75S16.164,7.5,15.75,7.5H8.25z"/>
	<path d="M0.75,24C0.336,24,0,23.664,0,23.25v-3c0-2.068,1.682-3.75,3.75-3.75H4.5V3.75C4.5,1.682,6.182,0,8.25,0h12
		C22.318,0,24,1.682,24,3.75v1.5C24,5.664,23.664,6,23.25,6H19.5v14.25c0,1.241-1.009,2.25-2.25,2.25H13.5v0.75
		c0,0.414-0.336,0.75-0.75,0.75H0.75z M12,22.5v-3.75c0-0.259,0.044-0.511,0.129-0.75H3.75c-1.241,0-2.25,1.009-2.25,2.25v2.25H12z
		 M14.295,16.5c1.112,0,2.057,0.836,2.199,1.945c0.004,0.032,0.006,0.063,0.006,0.095v1.711c0,0.414,0.336,0.75,0.75,0.75
		S18,20.664,18,20.25V1.5H8.25C7.009,1.5,6,2.509,6,3.75V16.5L14.295,16.5z M15.129,21C15.044,20.761,15,20.509,15,20.25v-1.655
		c-0.062-0.347-0.352-0.596-0.697-0.596L14.274,18c-0.433,0-0.774,0.337-0.774,0.75V21H15.129z M22.5,4.5V3.75
		c0-1.241-1.009-2.25-2.25-2.25H19.5v3H22.5z"/>
</g>
</svg>
