<?xml version="1.0" encoding="utf-8"?>
<!-- Generator: Adobe Illustrator 22.1.0, SVG Export Plug-In . SVG Version: 6.00 Build 0)  -->
<svg version="1.1" id="Regular" xmlns="http://www.w3.org/2000/svg" xmlns:xlink="http://www.w3.org/1999/xlink" x="0px" y="0px"
	 viewBox="0 0 24 24" style="enable-background:new 0 0 24 24;" xml:space="preserve">
<title>recycling-bag-1</title>
<g>
	<path d="M2.394,24c-0.601,0-1.166-0.235-1.591-0.66c-0.425-0.426-0.658-0.99-0.658-1.592c0-0.067,0.003-0.135,0.009-0.202
		L1.38,6.553C1.487,5.382,2.45,4.501,3.621,4.5h3.88c0-2.481,2.019-4.5,4.5-4.5s4.5,2.019,4.5,4.5h3.88
		c1.171,0,2.135,0.88,2.241,2.046l1.228,15.007c0.054,0.593-0.128,1.175-0.513,1.637c-0.385,0.462-0.926,0.746-1.525,0.801
		C21.744,23.997,21.676,24,21.608,24H2.394z M3.621,6C3.231,6,2.91,6.293,2.875,6.682L1.648,21.675
		c-0.003,0.028-0.004,0.051-0.004,0.074c0,0.2,0.078,0.388,0.22,0.531c0.142,0.142,0.33,0.22,0.53,0.22h19.214
		c0.022,0,0.044-0.001,0.066-0.003c0.201-0.018,0.382-0.113,0.51-0.267c0.128-0.154,0.189-0.348,0.17-0.548L21.127,6.675
		C21.092,6.292,20.772,6,20.381,6H3.621L3.621,6z M15.001,4.5c0-1.654-1.346-3-3-3s-3,1.346-3,3H15.001z"/>
	<path d="M12.151,21.004c-0.695,0-1.385-0.116-2.052-0.344c-1.419-0.486-2.591-1.442-3.348-2.686V19.5c0,0.414-0.336,0.75-0.75,0.75
		s-0.75-0.336-0.75-0.75v-3.75c0-0.414,0.336-0.75,0.75-0.75h3.75c0.414,0,0.75,0.336,0.75,0.75s-0.336,0.75-0.75,0.75H7.684
		c0.524,1.283,1.579,2.289,2.901,2.741c0.509,0.174,1.035,0.262,1.565,0.262c0.735,0,1.448-0.167,2.118-0.495
		c1.157-0.567,2.023-1.551,2.44-2.769c0.104-0.304,0.389-0.508,0.709-0.508c0.083,0,0.166,0.014,0.245,0.041
		c0.188,0.064,0.341,0.199,0.429,0.379c0.088,0.18,0.101,0.384,0.036,0.573c-0.547,1.598-1.683,2.887-3.199,3.63
		C14.051,20.786,13.116,21.004,12.151,21.004z"/>
	<path d="M14.251,13.5c-0.414,0-0.75-0.336-0.75-0.75S13.837,12,14.251,12h2.067c-0.524-1.283-1.579-2.289-2.901-2.741
		c-0.509-0.174-1.036-0.263-1.566-0.263c-0.735,0-1.448,0.167-2.118,0.495c-1.157,0.567-2.023,1.55-2.44,2.769
		c-0.104,0.303-0.389,0.507-0.71,0.507c-0.082,0-0.164-0.014-0.242-0.04c-0.392-0.134-0.601-0.561-0.468-0.953
		c0.547-1.598,1.683-2.887,3.199-3.63c0.878-0.43,1.812-0.648,2.778-0.648c0.695,0,1.385,0.116,2.051,0.344
		c1.419,0.486,2.592,1.442,3.348,2.686V9c0-0.414,0.336-0.75,0.75-0.75s0.75,0.336,0.75,0.75v3.75c0,0.414-0.336,0.75-0.75,0.75
		H14.251z"/>
</g>
</svg>
