<?xml version="1.0" encoding="utf-8"?>
<!-- Generator: Adobe Illustrator 22.1.0, SVG Export Plug-In . SVG Version: 6.00 Build 0)  -->
<svg version="1.1" id="Regular" xmlns="http://www.w3.org/2000/svg" xmlns:xlink="http://www.w3.org/1999/xlink" x="0px" y="0px"
	 viewBox="0 0 24 24" style="enable-background:new 0 0 24 24;" xml:space="preserve">
<title>recycling-label</title>
<g>
	<path d="M12.389,23.25c-0.098,0-0.193-0.019-0.284-0.056c-0.185-0.076-0.33-0.219-0.407-0.404
		c-0.077-0.185-0.078-0.389-0.002-0.574c0.37-0.904,0.796-1.719,1.266-2.424c-0.777-1.122-1.094-2.248-0.917-3.271
		c0.186-1.074,0.899-1.99,2.063-2.65c1.414-0.737,2.993-1.123,4.58-1.123c1.52,0,3.037,0.356,4.389,1.03
		c0.203,0.101,0.347,0.285,0.397,0.505c0.05,0.22-0.001,0.448-0.139,0.627c-0.407,0.523-0.695,1.477-0.998,2.486
		c-0.68,2.26-1.612,5.356-4.925,5.659c-0.099,0.009-0.197,0.013-0.292,0.013c-1.547,0-2.637-1.119-3.225-1.934
		c-0.294,0.501-0.565,1.053-0.81,1.65C12.967,23.067,12.695,23.25,12.389,23.25z M14.824,19.813
		c0.257,0.441,1.119,1.755,2.302,1.755c0.049,0,0.098-0.002,0.148-0.007c2.305-0.21,2.946-2.341,3.625-4.597
		c0.237-0.786,0.462-1.535,0.765-2.17c-0.951-0.364-1.952-0.547-2.981-0.547c-1.342,0-2.677,0.326-3.86,0.942
		c-0.751,0.426-1.193,0.962-1.301,1.587c-0.09,0.517,0.057,1.121,0.424,1.764c1.484-1.587,2.816-1.796,2.974-1.815
		c0.031-0.004,0.062-0.006,0.092-0.006c0.378,0,0.698,0.283,0.744,0.658c0.051,0.407-0.239,0.782-0.646,0.836l0,0
		c0.001,0-0.551,0.095-1.291,0.65C15.479,19.118,15.145,19.437,14.824,19.813z"/>
	<path d="M8.142,21.094c-0.602,0-1.167-0.234-1.591-0.658l-5.379-5.379c-0.877-0.877-0.877-2.305,0-3.182L11.673,1.409
		c0.424-0.424,0.988-0.658,1.589-0.659h5.25c1.241,0,2.25,1.009,2.25,2.25v5.345c0,0.601-0.233,1.166-0.658,1.591
		c-0.142,0.142-0.33,0.22-0.531,0.22c-0.2,0-0.388-0.078-0.53-0.219c-0.292-0.292-0.293-0.768-0.001-1.061
		c0.142-0.142,0.22-0.33,0.22-0.531V3c0-0.414-0.336-0.75-0.75-0.75h-5.25c-0.2,0-0.388,0.078-0.53,0.22L2.232,12.937
		c-0.292,0.292-0.291,0.767,0.001,1.06l5.379,5.379c0.141,0.141,0.33,0.219,0.53,0.219c0.201,0,0.389-0.078,0.53-0.219
		c0.142-0.142,0.33-0.22,0.53-0.22c0.2,0,0.389,0.078,0.53,0.22c0.142,0.142,0.22,0.33,0.22,0.531s-0.078,0.389-0.22,0.53
		C9.308,20.861,8.743,21.094,8.142,21.094z"/>
	<path d="M16.39,6.341c-0.299,0-0.581-0.116-0.792-0.327c-0.213-0.212-0.331-0.494-0.331-0.794c0-0.001,0-0.001,0-0.002
		c-0.001-0.3,0.115-0.583,0.327-0.796c0.212-0.213,0.493-0.33,0.793-0.331c0,0,0.004,0,0.005,0c0.572,0,1.047,0.426,1.114,0.995
		c0.007,0.042,0.011,0.086,0.011,0.13c0,0.045-0.004,0.088-0.011,0.13c-0.063,0.54-0.5,0.955-1.044,0.989
		c-0.011,0.003-0.039,0.005-0.068,0.005H16.39z"/>
</g>
</svg>
