<?xml version="1.0" encoding="utf-8"?>
<!-- Generator: Adobe Illustrator 22.1.0, SVG Export Plug-In . SVG Version: 6.00 Build 0)  -->
<svg version="1.1" id="Regular" xmlns="http://www.w3.org/2000/svg" xmlns:xlink="http://www.w3.org/1999/xlink" x="0px" y="0px"
	 viewBox="0 0 24 24" style="enable-background:new 0 0 24 24;" xml:space="preserve">
<title>recycling-hand-trash</title>
<g>
	<path d="M15.401,11.065c-0.254,0-0.489-0.127-0.628-0.339c-0.062-0.095-1.5-2.343,0.097-3.941c0.011-0.012,0.023-0.023,0.035-0.033
		c0.416-0.36,0.857-0.69,1.318-0.987l-0.599-0.4c-0.124-0.083-0.267-0.127-0.416-0.127c-0.085,0-0.169,0.014-0.248,0.043
		c-1.75,0.687-3.603,1.12-5.496,1.281C9.442,6.565,9.421,6.565,9.4,6.565c-2.966,0-3-2.228-3-2.25c0-0.293,0.173-0.561,0.44-0.683
		l6.929-3.15c0.689-0.313,1.418-0.472,2.167-0.472c0.345,0,0.693,0.035,1.035,0.103l6.077,1.216
		c0.197,0.039,0.366,0.153,0.477,0.319c0.111,0.167,0.151,0.367,0.111,0.563c-0.07,0.349-0.378,0.603-0.734,0.603
		c-0.05,0-0.101-0.005-0.15-0.015l-6.075-1.216c-0.245-0.049-0.493-0.074-0.74-0.074c-0.534,0-1.055,0.113-1.547,0.337L8.105,4.705
		c0.24,0.23,0.674,0.356,1.265,0.36c1.737-0.151,3.441-0.551,5.064-1.188c0.257-0.093,0.515-0.137,0.777-0.137
		c0.448,0,0.88,0.131,1.249,0.379l1.607,1.073c0.222,0.148,0.349,0.405,0.333,0.671c-0.017,0.266-0.175,0.506-0.414,0.625
		c-0.744,0.371-1.441,0.834-2.071,1.376c-0.412,0.43-0.314,1.041-0.146,1.498l6.854-2.742c0.089-0.036,0.183-0.054,0.278-0.054
		c0.308,0,0.582,0.185,0.696,0.472c0.074,0.186,0.072,0.39-0.007,0.574c-0.079,0.184-0.225,0.327-0.411,0.401l-7.5,3
		C15.591,11.047,15.497,11.065,15.401,11.065z"/>
	<path d="M3.4,24.012c-0.391,0-0.72-0.306-0.748-0.697l-0.7-9.803H1.15c-0.414,0-0.75-0.336-0.75-0.75s0.336-0.75,0.75-0.75h13.5
		c0.414,0,0.75,0.336,0.75,0.75s-0.336,0.75-0.75,0.75h-0.802l-0.7,9.803c-0.028,0.391-0.356,0.697-0.748,0.697H3.4z M11.701,22.512
		l0.643-9H3.455l0.643,9H11.701z"/>
	<path d="M6.4,21.012c-0.414,0-0.75-0.336-0.75-0.75v-4.5c0-0.414,0.336-0.75,0.75-0.75s0.75,0.336,0.75,0.75v4.5
		C7.15,20.676,6.813,21.012,6.4,21.012z"/>
	<path d="M9.4,21.012c-0.414,0-0.75-0.336-0.75-0.75v-4.5c0-0.414,0.336-0.75,0.75-0.75s0.75,0.336,0.75,0.75v4.5
		C10.15,20.676,9.813,21.012,9.4,21.012z"/>
</g>
</svg>
