<?xml version="1.0" encoding="utf-8"?>
<!-- Generator: Adobe Illustrator 22.1.0, SVG Export Plug-In . SVG Version: 6.00 Build 0)  -->
<svg version="1.1" id="Layer_1" xmlns="http://www.w3.org/2000/svg" xmlns:xlink="http://www.w3.org/1999/xlink" x="0px" y="0px"
	 viewBox="0 0 24 24" style="enable-background:new 0 0 24 24;" xml:space="preserve">
<title>religion-shinto</title>
<g>
	<path d="M18.787,24c-0.311,0-0.585-0.187-0.699-0.477c-1.05-2.69-1.781-5.526-2.175-8.434H8.295
		c-0.394,2.908-1.125,5.744-2.175,8.434C6.006,23.813,5.732,24,5.421,24H1.709c-0.267,0-0.515-0.143-0.649-0.374
		c-0.134-0.231-0.134-0.518-0.002-0.749c1.384-2.411,2.341-5.029,2.848-7.788H3.194c-1.232,0-2.235-1.003-2.235-2.235
		s1.003-2.235,2.235-2.235h1.122c0-1.239-0.094-2.481-0.28-3.7C2.138,5.865,0.964,3.891,0.959,1.72
		c-0.001-0.445,0.168-0.868,0.476-1.19C1.752,0.198,2.179,0.01,2.638,0l0.034,0c0.447,0,0.869,0.169,1.19,0.476
		c0.823,0.794,1.904,1.232,3.045,1.233H17.3c1.142,0,2.223-0.438,3.045-1.231C20.668,0.169,21.09,0,21.534,0
		c0.95,0.002,1.719,0.774,1.716,1.72c-0.005,2.171-1.18,4.146-3.079,5.199c-0.186,1.219-0.28,2.461-0.279,3.7h1.123
		c1.232,0,2.235,1.003,2.235,2.235s-1.003,2.235-2.235,2.235h-0.712c0.507,2.759,1.464,5.376,2.848,7.787
		c0.133,0.231,0.132,0.519-0.001,0.75C23.016,23.856,22.767,24,22.5,24H18.787z M21.241,22.5c-1.267-2.484-2.124-5.153-2.549-7.943
		c-0.022-0.072-0.033-0.145-0.033-0.218c0-0.003,0-0.006,0-0.01c-0.139-0.968-0.224-1.945-0.254-2.906
		c-0.002-0.018-0.003-0.036-0.003-0.055c0-0.008,0-0.019,0.001-0.029c-0.035-1.27,0.023-2.55,0.174-3.814
		c-0.418,0.093-0.845,0.141-1.275,0.142h-0.138c-0.353,5.016,0.384,10.13,2.139,14.832H21.241z M4.905,22.5
		c1.755-4.701,2.493-9.816,2.14-14.832H6.909C6.478,7.667,6.05,7.619,5.631,7.526c0.151,1.263,0.21,2.541,0.175,3.81
		c0.001,0.012,0.002,0.018,0.002,0.033c0,0.021-0.002,0.041-0.004,0.061c-0.03,0.96-0.115,1.934-0.253,2.897
		c0,0.004,0,0.007,0,0.011c0,0.073-0.011,0.147-0.034,0.219c-0.425,2.79-1.281,5.458-2.548,7.942H4.905z M21.015,13.589
		c0.405,0,0.735-0.33,0.735-0.735s-0.33-0.735-0.735-0.735h-1.079c0.03,0.496,0.074,0.988,0.133,1.47H21.015z M15.741,13.589
		c-0.045-0.484-0.082-0.976-0.109-1.47H8.576c-0.027,0.492-0.063,0.984-0.109,1.47H15.741z M3.194,12.119
		c-0.405,0-0.735,0.33-0.735,0.735s0.33,0.735,0.735,0.735H4.14c0.058-0.482,0.103-0.974,0.133-1.47H3.194z M15.579,10.619
		c-0.013-0.975,0.015-1.964,0.082-2.951h-2.807v2.951H15.579z M11.354,10.619V7.668H8.547c0.067,0.988,0.094,1.977,0.082,2.951
		H11.354z M17.3,6.168c2.447-0.006,4.444-2.003,4.45-4.452c0-0.057-0.022-0.111-0.063-0.152C21.646,1.523,21.592,1.5,21.534,1.5
		c-0.057,0-0.109,0.021-0.15,0.06c-1.101,1.063-2.552,1.649-4.084,1.649H6.906C5.374,3.208,3.924,2.621,2.822,1.557
		C2.784,1.521,2.731,1.5,2.676,1.5c-0.035,0-0.101,0.009-0.157,0.067c-0.039,0.041-0.06,0.093-0.06,0.15
		c0.006,2.449,2.003,4.446,4.452,4.452h0.752c0.004,0,0.008-0.001,0.011-0.001c0.017-0.002,0.04-0.003,0.062-0.003
		c0.026,0,0.051,0.001,0.076,0.004h4.229c0.022-0.003,0.042-0.004,0.063-0.004c0.022,0,0.043,0.002,0.064,0.004h4.233
		c0.024-0.002,0.049-0.004,0.074-0.004c0.019,0,0.039,0.001,0.058,0.002c0.004,0,0.009,0.001,0.013,0.001H17.3z"/>
</g>
</svg>
