<?xml version="1.0" encoding="utf-8"?>
<!-- Generator: Adobe Illustrator 22.1.0, SVG Export Plug-In . SVG Version: 6.00 Build 0)  -->
<svg version="1.1" id="Layer_1" xmlns="http://www.w3.org/2000/svg" xmlns:xlink="http://www.w3.org/1999/xlink" x="0px" y="0px"
	 viewBox="0 0 24 24" style="enable-background:new 0 0 24 24;" xml:space="preserve">
<title>religion-man-muslim-2</title>
<g>
	<path d="M2.783,24c-0.078,0-0.156-0.012-0.231-0.037c-0.191-0.062-0.346-0.194-0.437-0.372c-0.091-0.178-0.107-0.381-0.046-0.572
		c0.485-1.496,1.316-2.888,2.403-4.024c0.141-0.147,0.338-0.231,0.542-0.231c0.194,0,0.378,0.074,0.519,0.208
		c0.298,0.286,0.309,0.761,0.023,1.06c-0.932,0.974-1.644,2.166-2.059,3.448C3.396,23.792,3.109,24,2.783,24z"/>
	<path d="M21.287,24c-0.326,0-0.613-0.209-0.714-0.519c-0.415-1.282-1.127-2.474-2.059-3.448c-0.286-0.299-0.275-0.774,0.023-1.06
		c0.14-0.134,0.324-0.208,0.518-0.208c0.203,0,0.401,0.084,0.542,0.231c1.088,1.136,1.918,2.528,2.403,4.024
		c0.062,0.19,0.046,0.394-0.045,0.572s-0.246,0.311-0.437,0.372C21.443,23.988,21.365,24,21.287,24z"/>
	<path d="M12.035,23.964c-0.053,0-0.109-0.006-0.164-0.019c-0.016-0.003-0.047-0.013-0.062-0.019
		c-0.024-0.006-0.052-0.016-0.079-0.028c-0.012-0.006-0.025-0.012-0.037-0.019c-0.058-0.03-0.113-0.069-0.163-0.115
		c-0.01-0.01-0.033-0.033-0.042-0.044c-0.022-0.022-0.042-0.044-0.06-0.069c-1.435-1.993-3.005-3.237-4.39-4.334
		C3.76,16.724,1.39,14.847,6.061,6.554V6c0-3.308,2.692-6,6-6c3.308,0,6,2.692,6,6v0.648c4.6,8.212,2.238,10.084-1.027,12.671
		c-1.385,1.097-2.955,2.341-4.39,4.333c-0.018,0.025-0.039,0.049-0.061,0.071c-0.013,0.015-0.028,0.03-0.044,0.044
		c-0.047,0.044-0.103,0.083-0.163,0.114c-0.01,0.006-0.031,0.016-0.031,0.016c-0.028,0.013-0.056,0.022-0.084,0.031
		c-0.018,0.007-0.041,0.014-0.063,0.019C12.147,23.958,12.09,23.964,12.035,23.964z M13.43,20.444
		c0.947-0.935,1.882-1.675,2.672-2.301c3.07-2.432,4.622-3.662,0.683-10.705c-0.134-0.018-0.268-0.035-0.402-0.051L13.43,20.444z
		 M7.281,7.445c-3.935,7.037-2.383,8.266,0.686,10.698c0.791,0.626,1.726,1.367,2.672,2.301L7.688,7.393
		C7.552,7.41,7.417,7.427,7.281,7.445z M12.035,19.814l1.677-7.414c-0.201-0.142-0.386-0.31-0.555-0.464
		c-0.374-0.34-0.726-0.662-1.096-0.662c-0.371,0-0.724,0.322-1.097,0.662c-0.181,0.165-0.38,0.347-0.599,0.495L12.035,19.814z
		 M9.994,10.791c0.484-0.441,1.14-1.016,2.067-1.016c0.898,0,1.543,0.543,2.023,0.977l0.794-3.511
		c-0.936-0.073-1.882-0.109-2.817-0.109c-0.953,0-1.915,0.038-2.868,0.114L9.994,10.791z M12.061,1.5
		c-2.447,0-4.443,1.963-4.499,4.396C7.766,5.872,7.97,5.85,8.174,5.829c0.013-0.002,0.038-0.006,0.064-0.007
		c1.268-0.129,2.555-0.194,3.827-0.194c1.251,0,2.517,0.063,3.761,0.188c0.037,0.001,0.073,0.006,0.109,0.012
		c0.208,0.021,0.416,0.044,0.623,0.068C16.504,3.462,14.507,1.5,12.061,1.5z"/>
</g>
</svg>
