<?xml version="1.0" encoding="utf-8"?>
<!-- Generator: Adobe Illustrator 22.1.0, SVG Export Plug-In . SVG Version: 6.00 Build 0)  -->
<svg version="1.1" id="Layer_1" xmlns="http://www.w3.org/2000/svg" xmlns:xlink="http://www.w3.org/1999/xlink" x="0px" y="0px"
	 viewBox="0 0 24 24" style="enable-background:new 0 0 24 24;" xml:space="preserve">
<title>religion-islam-pray</title>
<g>
	<path d="M11.748,7.543c-1.861,0-3.375-1.514-3.375-3.375s1.514-3.375,3.375-3.375c1.861,0,3.375,1.514,3.375,3.375
		S13.609,7.543,11.748,7.543z M11.748,2.293c-1.034,0-1.875,0.841-1.875,1.875s0.841,1.875,1.875,1.875s1.875-0.841,1.875-1.875
		S12.782,2.293,11.748,2.293z"/>
	<path d="M8.748,23.293c-1.241,0-2.25-1.008-2.251-2.248c-0.001-0.775,0.389-1.486,1.043-1.901l6.71-4.273l-0.579-1.547
		l-1.733,1.234c-0.635,0.451-1.384,0.689-2.169,0.689c-1.123,0-2.176-0.488-2.888-1.339L4.022,10.48
		c-0.39-0.414-0.602-0.981-0.58-1.581c0.021-0.6,0.273-1.156,0.709-1.566c0.419-0.393,0.966-0.61,1.54-0.61l0.071,0.001
		c0.601,0.019,1.158,0.271,1.57,0.709c0.06,0.064,0.117,0.133,0.17,0.204l2.386,2.86l3.55-2.536
		c0.384-0.274,0.835-0.419,1.303-0.419c0.125,0,0.251,0.01,0.376,0.031c0.593,0.099,1.111,0.424,1.46,0.913
		c0.115,0.161,0.208,0.337,0.277,0.523l1.821,4.859c0.611,1.649-0.019,3.532-1.497,4.479l-0.7,0.445h1.271
		c1.241,0,2.25,1.009,2.25,2.25s-1.009,2.25-2.25,2.25H8.748z M14.03,11.397c0.074,0,0.148,0.011,0.219,0.033
		c0.221,0.068,0.402,0.237,0.483,0.454l1.135,3.03c0.124,0.33-0.002,0.707-0.299,0.896l-7.223,4.6
		c-0.218,0.139-0.349,0.376-0.348,0.634c0,0.413,0.337,0.749,0.75,0.749h9.001c0.414,0,0.75-0.336,0.75-0.75s-0.336-0.75-0.75-0.75
		h-3.85c-0.331,0-0.627-0.222-0.72-0.541c-0.093-0.318,0.038-0.665,0.318-0.842l2.874-1.826c0.888-0.569,1.266-1.701,0.899-2.691
		l-1.821-4.858c-0.024-0.064-0.055-0.123-0.094-0.177c-0.116-0.163-0.289-0.271-0.487-0.305c-0.042-0.007-0.084-0.01-0.125-0.01
		c-0.156,0-0.306,0.048-0.434,0.139l-4.115,2.94c-0.128,0.091-0.279,0.14-0.436,0.14c-0.223,0-0.433-0.098-0.576-0.27l-2.859-3.43
		C6.281,8.509,6.261,8.484,6.238,8.46C6.101,8.314,5.915,8.23,5.715,8.224L5.683,8.223c-0.189,0-0.363,0.07-0.505,0.203
		c-0.302,0.283-0.316,0.759-0.033,1.06l2.886,3.459c0.427,0.51,1.06,0.803,1.736,0.803c0.471,0,0.921-0.143,1.301-0.413l2.527-1.8
		C13.723,11.445,13.873,11.397,14.03,11.397z"/>
</g>
</svg>
