<?xml version="1.0" encoding="utf-8"?>
<!-- Generator: Adobe Illustrator 22.1.0, SVG Export Plug-In . SVG Version: 6.00 Build 0)  -->
<svg version="1.1" id="Layer_1" xmlns="http://www.w3.org/2000/svg" xmlns:xlink="http://www.w3.org/1999/xlink" x="0px" y="0px"
	 viewBox="0 0 24 24" style="enable-background:new 0 0 24 24;" xml:space="preserve">
<title>religion-peace</title>
<g>
	<path d="M12,23.25C5.797,23.25,0.75,18.203,0.75,12C0.75,5.797,5.797,0.75,12,0.75c6.203,0,11.25,5.047,11.25,11.25
		C23.25,18.203,18.203,23.25,12,23.25z M12,2.25c-5.376,0-9.75,4.374-9.75,9.75s4.374,9.75,9.75,9.75s9.75-4.374,9.75-9.75
		S17.376,2.25,12,2.25z"/>
	<path d="M18.974,15.481c-0.2,0-0.389-0.078-0.53-0.22L12.97,9.787c-0.142-0.142-0.22-0.33-0.22-0.53V4.651
		c0-0.225,0.1-0.437,0.275-0.58c0.134-0.11,0.303-0.17,0.476-0.17c0.049,0,0.098,0.005,0.146,0.014
		c0.482,0.097,0.957,0.238,1.412,0.418c4.214,1.671,6.283,6.459,4.613,10.674c-0.094,0.236-0.297,0.407-0.545,0.458
		C19.078,15.476,19.027,15.481,18.974,15.481z M18.616,13.313c0.634-3.138-1.081-6.384-4.11-7.585
		c-0.084-0.033-0.17-0.065-0.256-0.096v3.314L18.616,13.313z"/>
	<path d="M13.5,20.099c-0.172,0-0.34-0.06-0.473-0.168c-0.175-0.142-0.277-0.354-0.277-0.582V13.5c0-0.304,0.182-0.576,0.463-0.693
		c0.092-0.038,0.188-0.057,0.287-0.057c0.2,0,0.389,0.078,0.531,0.22l3.785,3.784c0.29,0.29,0.292,0.764,0.004,1.057
		c-1.138,1.155-2.579,1.94-4.165,2.273C13.603,20.094,13.551,20.099,13.5,20.099z M14.25,18.359c0.705-0.255,1.367-0.628,1.949-1.1
		l-1.949-1.948V18.359z"/>
	<path d="M5.026,15.481c-0.052,0-0.104-0.005-0.154-0.016c-0.246-0.051-0.45-0.222-0.543-0.457c-0.81-2.042-0.776-4.276,0.095-6.292
		s2.475-3.572,4.517-4.382c0.455-0.181,0.93-0.321,1.411-0.418c0.049-0.01,0.099-0.015,0.148-0.015c0.172,0,0.341,0.06,0.475,0.17
		c0.175,0.143,0.275,0.355,0.275,0.58v4.606c0,0.2-0.078,0.389-0.22,0.53l-5.474,5.474C5.415,15.403,5.226,15.481,5.026,15.481z
		 M9.75,5.632c-0.086,0.03-0.172,0.062-0.256,0.095c-3.03,1.202-4.745,4.447-4.11,7.585L9.75,8.946V5.632z"/>
	<path d="M10.5,20.099c-0.052,0-0.103-0.005-0.154-0.016c-1.587-0.332-3.027-1.118-4.165-2.273
		c-0.288-0.292-0.286-0.766,0.004-1.057L9.97,12.97c0.141-0.142,0.33-0.22,0.53-0.22c0.099,0,0.196,0.019,0.287,0.057
		c0.281,0.117,0.463,0.389,0.463,0.693v5.849c0,0.227-0.101,0.439-0.277,0.582C10.84,20.039,10.672,20.099,10.5,20.099z
		 M7.801,17.259c0.582,0.472,1.244,0.845,1.949,1.1V15.31L7.801,17.259z"/>
</g>
</svg>
