<?xml version="1.0" encoding="utf-8"?>
<!-- Generator: Adobe Illustrator 22.1.0, SVG Export Plug-In . SVG Version: 6.00 Build 0)  -->
<svg version="1.1" id="Layer_1" xmlns="http://www.w3.org/2000/svg" xmlns:xlink="http://www.w3.org/1999/xlink" x="0px" y="0px"
	 viewBox="0 0 24 24" style="enable-background:new 0 0 24 24;" xml:space="preserve">
<title>religion-cao-dai-hands-2</title>
<g>
	<path d="M9,24c-0.414,0-0.75-0.336-0.75-0.75v-3.136c0.001-0.745-0.217-1.465-0.631-2.083l-1.143-1.715
		c-0.106-0.176-0.248-0.284-0.419-0.326c-0.053-0.013-0.106-0.02-0.16-0.02c-0.116,0-0.231,0.032-0.333,0.093L5.53,16.084
		c-0.257,0.171-0.354,0.517-0.223,0.805l1.335,2.225c0.213,0.354,0.098,0.816-0.257,1.029C6.27,20.213,6.136,20.25,6,20.25
		c-0.262,0-0.509-0.14-0.644-0.364l-1.353-2.254c-0.008-0.013-0.018-0.031-0.028-0.05c-0.159-0.318-0.236-0.674-0.223-1.032
		C3.751,16.534,3.75,16.517,3.75,16.5v-3.75C3.75,12.336,3.414,12,3,12s-0.75,0.336-0.75,0.75v5.171
		c0,0.849,0.292,1.681,0.822,2.344l2.014,2.517c0.258,0.323,0.206,0.796-0.117,1.054C4.836,23.941,4.67,24,4.5,24
		c-0.229,0-0.443-0.103-0.586-0.281L1.9,21.201c-0.742-0.928-1.151-2.093-1.15-3.281V12.75c0-1.241,1.009-2.25,2.25-2.25
		s2.25,1.009,2.25,2.25v1.82c0.208-0.066,0.426-0.1,0.646-0.1c0.176,0,0.353,0.022,0.526,0.065c0.557,0.139,1.026,0.487,1.322,0.98
		l1.124,1.684c0.579,0.866,0.884,1.875,0.883,2.917v3.135C9.75,23.663,9.414,24,9,24z"/>
	<path d="M19.5,24c-0.169,0-0.336-0.058-0.468-0.164c-0.323-0.259-0.375-0.731-0.117-1.054l2.014-2.517
		c0.53-0.662,0.822-1.494,0.822-2.343V12.75c0-0.414-0.336-0.75-0.75-0.75s-0.75,0.336-0.75,0.75v3.75
		c0,0.01-0.001,0.031-0.003,0.048c0.013,0.359-0.064,0.715-0.223,1.033c-0.01,0.02-0.019,0.036-0.029,0.052l-1.352,2.253
		c-0.135,0.225-0.382,0.364-0.644,0.364c-0.136,0-0.269-0.037-0.386-0.107c-0.171-0.103-0.292-0.266-0.341-0.461
		c-0.049-0.194-0.019-0.396,0.085-0.568l1.335-2.225c0.131-0.288,0.033-0.634-0.231-0.811c-0.001-0.001-0.021-0.013-0.022-0.014
		c-0.105-0.063-0.219-0.095-0.337-0.095c-0.053,0-0.106,0.007-0.158,0.02c-0.169,0.042-0.311,0.147-0.4,0.296l-1.162,1.744
		c-0.414,0.619-0.632,1.34-0.631,2.083v3.136c0,0.414-0.336,0.75-0.75,0.75s-0.75-0.336-0.75-0.75v-3.136
		c-0.001-1.042,0.305-2.05,0.884-2.917l1.142-1.714c0.28-0.468,0.746-0.81,1.303-0.949c0.172-0.043,0.349-0.065,0.525-0.065
		c0.219,0,0.437,0.034,0.646,0.101v-1.82c0-1.241,1.009-2.25,2.25-2.25s2.25,1.009,2.25,2.25v5.171c0,1.188-0.408,2.353-1.151,3.281
		l-2.014,2.517C19.943,23.897,19.729,24,19.5,24z"/>
	<path d="M11.988,11.999l-0.109,0.001c-3.515,0-6.997-2.389-9.084-4.624C2.072,6.603,2.072,5.393,2.796,4.62
		C4.884,2.386,8.366,0,11.879,0l0.127,0.001C12.04,0,12.087-0.001,12.134-0.001c3.501,0,6.982,2.387,9.073,4.621
		c0.724,0.773,0.723,1.983,0,2.756c-2.088,2.235-5.574,4.623-9.092,4.623L11.988,11.999z M11.869,1.5
		c-3.025,0-6.105,2.141-7.979,4.145c-0.186,0.198-0.186,0.508,0,0.706C5.763,8.357,8.842,10.5,11.87,10.5l0.117-0.001l0.121,0.001
		c3.042,0,6.128-2.143,8.003-4.148c0.186-0.198,0.186-0.508,0-0.706C18.236,3.641,15.154,1.5,12.127,1.5c0,0-0.137,0.001-0.14,0.001
		L11.869,1.5z"/>
	<path d="M12,9c-1.654,0-3-1.346-3-3s1.346-3,3-3c1.654,0,3,1.346,3,3S13.654,9,12,9z M12,4.5c-0.827,0-1.5,0.673-1.5,1.5
		s0.673,1.5,1.5,1.5s1.5-0.673,1.5-1.5S12.827,4.5,12,4.5z"/>
</g>
</svg>
