<?xml version="1.0" encoding="utf-8"?>
<!-- Generator: Adobe Illustrator 22.1.0, SVG Export Plug-In . SVG Version: 6.00 Build 0)  -->
<svg version="1.1" id="Layer_1" xmlns="http://www.w3.org/2000/svg" xmlns:xlink="http://www.w3.org/1999/xlink" x="0px" y="0px"
	 viewBox="0 0 24 24" style="enable-background:new 0 0 24 24;" xml:space="preserve">
<title>religion-devil-head</title>
<g>
	<path d="M12,24c-4.396,0-7.967-3.38-8.232-7.738C1.472,15.259,0,13.019,0,10.5c0-0.249,0.123-0.481,0.329-0.621
		C0.454,9.794,0.6,9.75,0.75,9.75c0.096,0,0.19,0.018,0.279,0.054l2.793,1.117c0.103-0.786,0.319-1.55,0.644-2.279
		C2.834,5.958,3.242,2.448,5.47,0.22C5.611,0.078,5.799,0,6,0c0.099,0,0.196,0.019,0.287,0.057C6.568,0.173,6.75,0.445,6.75,0.75
		c0,1.444,0.482,2.845,1.363,3.979c1.191-0.635,2.528-0.97,3.887-0.97c1.359,0,2.696,0.334,3.887,0.97
		c0.881-1.133,1.363-2.534,1.363-3.978c0-0.305,0.182-0.577,0.463-0.693C17.804,0.019,17.901,0,18,0c0.2,0,0.389,0.078,0.531,0.22
		c2.228,2.228,2.636,5.738,1.004,8.422c0.325,0.729,0.541,1.492,0.644,2.279l2.794-1.118C23.06,9.768,23.154,9.75,23.25,9.75
		c0.15,0,0.296,0.045,0.42,0.129C23.877,10.019,24,10.251,24,10.5c0,2.52-1.472,4.76-3.768,5.762C19.967,20.62,16.396,24,12,24z
		 M5.521,10.112c-0.179,0.616-0.272,1.258-0.271,1.887v3.751c0,3.722,3.028,6.75,6.75,6.75s6.75-3.028,6.75-6.75V12
		c0.001-0.63-0.092-1.271-0.271-1.888L17.85,10.95c-0.141,0.188-0.365,0.3-0.6,0.3c-0.163,0-0.319-0.052-0.45-0.15
		c-0.331-0.248-0.398-0.719-0.15-1.05l1.318-1.757c1.204-1.606,1.384-3.775,0.533-5.554c-0.321,1.253-0.945,2.408-1.836,3.385
		c-0.032,0.045-0.07,0.086-0.115,0.125l-0.042,0.046c-0.032,0.036-0.064,0.072-0.099,0.106L14.78,8.03
		c-0.142,0.142-0.33,0.22-0.53,0.22s-0.389-0.078-0.53-0.22C13.578,7.889,13.5,7.7,13.5,7.5c0-0.2,0.078-0.389,0.22-0.53l1.1-1.1
		C13.94,5.466,12.975,5.255,12,5.255c-0.975,0-1.94,0.211-2.82,0.614l1.1,1.1C10.422,7.111,10.5,7.3,10.5,7.5
		s-0.078,0.389-0.22,0.53c-0.141,0.142-0.33,0.22-0.53,0.22S9.361,8.172,9.22,8.03L7.591,6.401c-0.034-0.034-0.067-0.07-0.099-0.106
		L7.451,6.251C7.407,6.212,7.369,6.17,7.336,6.125C6.444,5.147,5.819,3.992,5.498,2.739C4.648,4.518,4.828,6.688,6.032,8.293
		L7.35,10.05c0.12,0.16,0.171,0.358,0.143,0.556C7.464,10.804,7.36,10.98,7.2,11.1c-0.13,0.098-0.286,0.15-0.45,0.15
		c-0.235,0-0.459-0.112-0.6-0.3L5.521,10.112z M20.25,14.561c1.062-0.657,1.812-1.688,2.109-2.897l-2.109,0.844V14.561z
		 M1.641,11.664c0.297,1.208,1.047,2.239,2.109,2.897v-2.053L1.641,11.664z"/>
	<path d="M10.5,15c-0.149,0-0.292-0.044-0.416-0.126l-2.25-1.5c-0.344-0.229-0.437-0.696-0.208-1.04C7.765,12.125,7.998,12,8.25,12
		c0.149,0,0.292,0.044,0.416,0.127l2.25,1.5c0.344,0.229,0.437,0.696,0.208,1.04C10.985,14.875,10.751,15,10.5,15z"/>
	<path d="M13.5,15c-0.251,0-0.485-0.125-0.624-0.334c-0.111-0.167-0.151-0.367-0.112-0.563c0.039-0.196,0.153-0.365,0.32-0.477
		l2.25-1.5C15.457,12.044,15.601,12,15.75,12c0.251,0,0.485,0.125,0.624,0.334c0.111,0.167,0.151,0.367,0.112,0.563
		c-0.039,0.196-0.153,0.365-0.32,0.477l-2.25,1.5C13.793,14.956,13.649,15,13.5,15z"/>
	<path d="M12,20.252c-1.034,0-2.038-0.303-2.903-0.877c-0.344-0.229-0.439-0.695-0.21-1.04C9.026,18.125,9.26,18,9.512,18
		c0.148,0,0.291,0.043,0.414,0.125c0.618,0.41,1.335,0.627,2.073,0.627s1.455-0.217,2.074-0.627C14.197,18.043,14.34,18,14.488,18
		c0.252,0,0.486,0.125,0.625,0.335c0.229,0.345,0.134,0.811-0.21,1.04C14.038,19.949,13.034,20.252,12,20.252z"/>
</g>
</svg>
