<?xml version="1.0" encoding="utf-8"?>
<!-- Generator: Adobe Illustrator 22.1.0, SVG Export Plug-In . SVG Version: 6.00 Build 0)  -->
<svg version="1.1" id="Layer_1" xmlns="http://www.w3.org/2000/svg" xmlns:xlink="http://www.w3.org/1999/xlink" x="0px" y="0px"
	 viewBox="0 0 24 24" style="enable-background:new 0 0 24 24;" xml:space="preserve">
<title>religion-man-indian</title>
<g>
	<path d="M21.314,24c-0.326,0-0.613-0.208-0.713-0.519c-0.656-2.02-1.995-3.733-3.787-4.856c-1.134,1.492-2.893,2.373-4.775,2.374
		c-1.884,0-3.645-0.881-4.779-2.374c-1.793,1.123-3.132,2.836-3.788,4.857C3.37,23.792,3.083,24,2.758,24
		c-0.079,0-0.157-0.012-0.231-0.037c-0.394-0.128-0.61-0.552-0.482-0.945c0.771-2.374,2.349-4.383,4.463-5.692
		C6.195,16.589,6.037,15.808,6.037,15v-3.602C4.67,10.26,3.832,8.544,3.786,6.77c0-2.992,2.335-5.588,5.81-6.469
		c0.011-0.003,0.026-0.007,0.043-0.01C10.415,0.098,11.221,0,12.036,0c4.549,0,8.25,3.028,8.25,6.75
		c-0.046,1.789-0.883,3.508-2.249,4.646V15c0,0.809-0.158,1.59-0.471,2.326c2.113,1.309,3.691,3.319,4.461,5.692
		c0.062,0.19,0.046,0.394-0.045,0.572s-0.246,0.311-0.437,0.373C21.47,23.988,21.393,24,21.314,24z M7.537,15
		c0.001,2.48,2.02,4.499,4.5,4.499c2.481-0.001,4.499-2.019,4.5-4.499v-1.163C15.528,14.609,14.019,15,12.037,15
		c-1.983,0-3.491-0.391-4.5-1.164V15z M9.257,7.872C8.073,8.227,7.537,8.731,7.537,9v1.5c0,0.82,0,3,4.5,3s4.5-2.18,4.5-3V9
		c0-0.27-0.537-0.774-1.721-1.129c-0.452,1.123-1.547,1.879-2.78,1.879C10.804,9.75,9.709,8.995,9.257,7.872z M9.036,2.05
		c-2.295,0.886-3.75,2.689-3.75,4.7c0.022,0.844,0.288,1.685,0.751,2.407V9c0-1.144,1.115-2.113,2.999-2.625V2.05z M15.009,6.367
		C16.911,6.876,18.037,7.85,18.037,9v0.154c0.462-0.724,0.727-1.568,0.75-2.423c0-2.88-3.029-5.231-6.75-5.231
		c-0.504,0-1.007,0.044-1.5,0.132v2.52c0.451-0.262,0.965-0.402,1.5-0.402C13.566,3.75,14.821,4.878,15.009,6.367z M10.55,6.948
		c0.099,0.744,0.734,1.302,1.486,1.302c0.827,0,1.5-0.673,1.5-1.5s-0.673-1.5-1.5-1.5s-1.5,0.673-1.5,1.5
		c0,0.03,0.002,0.059,0.004,0.088C10.546,6.873,10.549,6.91,10.55,6.948z"/>
</g>
</svg>
