<?xml version="1.0" encoding="utf-8"?>
<!-- Generator: Adobe Illustrator 22.1.0, SVG Export Plug-In . SVG Version: 6.00 Build 0)  -->
<svg version="1.1" id="Layer_1" xmlns="http://www.w3.org/2000/svg" xmlns:xlink="http://www.w3.org/1999/xlink" x="0px" y="0px"
	 viewBox="0 0 24 24" style="enable-background:new 0 0 24 24;" xml:space="preserve">
<title>religion-angel-1</title>
<g>
	<path d="M12.005,4.5c-2.613,0-5.25-0.696-5.25-2.25S9.391,0,12.005,0c2.613,0,5.25,0.696,5.25,2.25S14.618,4.5,12.005,4.5z
		 M8.32,2.25C8.643,2.494,9.82,3,12.005,3c2.185,0,3.362-0.506,3.684-0.75c-0.323-0.244-1.5-0.75-3.684-0.75
		C9.82,1.5,8.643,2.006,8.32,2.25z"/>
	<path d="M7.382,24c-0.256,0-0.508-0.043-0.749-0.129c-0.567-0.2-1.021-0.609-1.28-1.152C5.093,22.177,5.061,21.567,5.262,21
		l2.831-7.929L1.512,9.039c0.038,0.228,0.081,0.519,0.13,0.856c0.285,1.941,0.676,4.599,3.273,5.292
		c0.4,0.107,0.638,0.519,0.531,0.918c-0.087,0.328-0.385,0.557-0.724,0.557c-0.065,0-0.13-0.009-0.193-0.025
		c-3.552-0.948-4.065-4.438-4.371-6.523c-0.047-0.318-0.087-0.59-0.131-0.809c-0.065-0.386,0.01-0.764,0.209-1.076
		c0.215-0.338,0.549-0.573,0.94-0.66c0.108-0.024,0.219-0.036,0.328-0.036c0.284,0,0.561,0.081,0.802,0.234l5.223,3.2
		c-0.016-0.155-0.024-0.31-0.024-0.467c0-2.481,2.019-4.5,4.5-4.5c2.481,0,4.5,2.019,4.5,4.5c0,0.156-0.008,0.311-0.024,0.466
		l5.232-3.205c0.232-0.148,0.507-0.228,0.79-0.228c0.111,0,0.222,0.012,0.331,0.037c0.39,0.087,0.724,0.321,0.939,0.66
		c0.198,0.313,0.274,0.685,0.213,1.05c-0.05,0.251-0.092,0.535-0.136,0.835c-0.307,2.086-0.82,5.575-4.371,6.523
		c-0.064,0.017-0.129,0.025-0.194,0.025c-0.339,0-0.637-0.229-0.724-0.557c-0.052-0.193-0.025-0.396,0.075-0.569
		s0.262-0.297,0.456-0.349c2.597-0.693,2.988-3.351,3.273-5.291c0.048-0.324,0.089-0.606,0.139-0.858l-6.59,4.033l2.829,7.927
		c0.086,0.242,0.129,0.494,0.129,0.75c0.001,1.241-1.008,2.251-2.248,2.252H7.382z M6.675,21.502
		c-0.066,0.187-0.055,0.39,0.031,0.571c0.086,0.181,0.238,0.317,0.427,0.384c0.08,0.028,0.164,0.042,0.25,0.043h9.242
		c0.413,0,0.749-0.337,0.749-0.751c0-0.085-0.015-0.169-0.043-0.25l-2.639-7.394C13.916,14.686,12.981,15,12.005,15
		c-0.977,0-1.913-0.315-2.688-0.896L6.675,21.502z M12.005,7.5c-1.654,0-3,1.346-3,3s1.346,3,3,3c1.654,0,3-1.346,3-3
		S13.659,7.5,12.005,7.5z"/>
</g>
</svg>
