<?xml version="1.0" encoding="utf-8"?>
<!-- Generator: Adobe Illustrator 22.1.0, SVG Export Plug-In . SVG Version: 6.00 Build 0)  -->
<svg version="1.1" id="Layer_1" xmlns="http://www.w3.org/2000/svg" xmlns:xlink="http://www.w3.org/1999/xlink" x="0px" y="0px"
	 viewBox="0 0 24 24" style="enable-background:new 0 0 24 24;" xml:space="preserve">
<title>religion-jainism</title>
<g>
	<path d="M13.442,19.417c-2.105-0.163-4.023-1.132-5.402-2.729c-0.512-0.543-0.507-1.418,0.021-1.98
		c1.363-1.576,3.277-2.54,5.38-2.704c0.019-0.001,0.039-0.002,0.058-0.002c0.019,0,0.038,0.001,0.057,0.002
		c2.105,0.164,4.023,1.134,5.403,2.731c0.513,0.543,0.508,1.418-0.021,1.98c-1.362,1.577-3.277,2.541-5.381,2.702
		c-0.019,0.001-0.039,0.002-0.058,0.002C13.48,19.419,13.462,19.418,13.442,19.417z M9.177,15.709
		c1.122,1.284,2.651,2.063,4.323,2.207c1.683-0.144,3.217-0.927,4.324-2.205c-1.122-1.283-2.651-2.062-4.324-2.208
		C11.817,13.649,10.283,14.432,9.177,15.709z"/>
	<path d="M13.499,16.835c-0.044,0-0.088-0.004-0.13-0.011c-0.513-0.06-0.923-0.47-0.983-0.983c-0.007-0.042-0.011-0.086-0.011-0.13
		s0.004-0.088,0.011-0.131c0.06-0.513,0.47-0.923,0.983-0.983c0.042-0.008,0.086-0.011,0.131-0.011s0.088,0.004,0.131,0.011
		c0.513,0.06,0.923,0.47,0.983,0.983c0.008,0.042,0.011,0.086,0.011,0.131s-0.004,0.088-0.011,0.131
		c-0.06,0.513-0.47,0.923-0.983,0.983C13.588,16.831,13.544,16.835,13.499,16.835z"/>
	<path d="M20.249,14.25c-0.414,0-0.75-0.336-0.75-0.75V5.25c0-0.414-0.336-0.75-0.75-0.75s-0.75,0.336-0.75,0.75v4.5
		c0,0.414-0.336,0.75-0.75,0.75s-0.75-0.336-0.75-0.75v-6c0-0.414-0.336-0.75-0.75-0.75s-0.75,0.336-0.75,0.75v6
		c0,0.414-0.336,0.75-0.75,0.75s-0.75-0.336-0.75-0.75v-7.5c0-0.414-0.336-0.75-0.75-0.75s-0.75,0.336-0.75,0.75v7.5
		c0,0.414-0.336,0.75-0.75,0.75s-0.75-0.336-0.75-0.75v-6c0-0.414-0.336-0.75-0.75-0.75s-0.75,0.336-0.75,0.75v6.75
		c0,0.414-0.336,0.75-0.75,0.75c-0.414,0-0.75-0.336-0.75-0.75V3.75c0-1.241,1.009-2.25,2.25-2.25c0.288,0,0.567,0.054,0.829,0.159
		C10.839,0.703,11.714,0,12.749,0c1.036,0,1.911,0.704,2.171,1.659C15.182,1.554,15.462,1.5,15.749,1.5
		c1.036,0,1.911,0.704,2.171,1.659C18.182,3.054,18.462,3,18.749,3c1.241,0,2.25,1.009,2.25,2.25v8.25
		C20.999,13.914,20.663,14.25,20.249,14.25z"/>
	<path d="M11.899,24c-2.262,0-4.362-1.124-5.616-3.006c-0.014-0.021-0.027-0.042-0.038-0.064L3.36,15.485
		c-0.49-0.765-0.481-1.746,0.022-2.504c0.037-0.055,0.075-0.107,0.115-0.158c0.383-0.479,0.928-0.78,1.536-0.848
		c0.086-0.01,0.172-0.014,0.257-0.014c0.523,0,1.016,0.173,1.427,0.501c0.323,0.258,0.376,0.731,0.118,1.054
		c-0.143,0.179-0.357,0.282-0.586,0.282c-0.169,0-0.335-0.058-0.468-0.164c-0.142-0.113-0.311-0.173-0.489-0.173
		c-0.03,0-0.06,0.002-0.091,0.005c-0.211,0.023-0.399,0.127-0.531,0.292c-0.014,0.017-0.027,0.035-0.04,0.054
		c-0.177,0.266-0.177,0.61,0.001,0.876c0.015,0.023,0.027,0.043,0.038,0.063l2.882,5.44c0.978,1.445,2.602,2.308,4.348,2.308h3.228
		c1.167,0,2.265-0.455,3.091-1.28c0.636-0.636,1.055-1.44,1.213-2.325c0.063-0.358,0.374-0.618,0.739-0.618
		c0.043,0,0.086,0.004,0.129,0.011c0.198,0.035,0.37,0.145,0.485,0.309c0.115,0.164,0.158,0.364,0.123,0.561
		c-0.212,1.188-0.775,2.268-1.629,3.123C18.17,23.389,16.695,24,15.127,24H11.899z"/>
</g>
</svg>
