<?xml version="1.0" encoding="utf-8"?>
<!-- Generator: Adobe Illustrator 22.1.0, SVG Export Plug-In . SVG Version: 6.00 Build 0)  -->
<svg version="1.1" id="Layer_1" xmlns="http://www.w3.org/2000/svg" xmlns:xlink="http://www.w3.org/1999/xlink" x="0px" y="0px"
	 viewBox="0 0 24 24" style="enable-background:new 0 0 24 24;" xml:space="preserve">
<title>religion-angel</title>
<g>
	<path d="M12.263,6.75c-4.696,0-9.75-1.056-9.75-3.375c0-0.759,0.565-1.824,3.255-2.591C7.515,0.286,9.882,0,12.263,0
		c4.696,0,9.75,1.056,9.75,3.375c0,0.759-0.565,1.824-3.255,2.591C17.011,6.464,14.644,6.75,12.263,6.75z M12.263,1.5
		c-5.678,0-8.25,1.438-8.25,1.875s2.572,1.875,8.25,1.875s8.25-1.438,8.25-1.875S17.941,1.5,12.263,1.5z"/>
	<path d="M16.763,16.199c-0.193,0-0.377-0.073-0.517-0.207c-0.165-0.156-0.381-0.243-0.608-0.243s-0.443,0.086-0.608,0.243
		c-0.14,0.133-0.323,0.207-0.517,0.207c-0.205,0-0.403-0.085-0.544-0.233c-0.138-0.145-0.211-0.335-0.206-0.536
		c0.005-0.2,0.088-0.387,0.233-0.525c0.445-0.423,1.028-0.656,1.642-0.656s1.197,0.233,1.642,0.656
		c0.145,0.138,0.228,0.324,0.233,0.524c0.005,0.2-0.068,0.391-0.206,0.536C17.166,16.114,16.967,16.199,16.763,16.199z"/>
	<path d="M10.013,16.199c-0.193,0-0.377-0.073-0.517-0.207c-0.165-0.156-0.381-0.243-0.608-0.243c-0.227,0-0.443,0.086-0.608,0.243
		c-0.14,0.133-0.324,0.207-0.517,0.207c-0.205,0-0.403-0.085-0.544-0.233c-0.285-0.3-0.273-0.775,0.027-1.06
		c0.445-0.423,1.028-0.656,1.642-0.656s1.197,0.233,1.642,0.656c0.145,0.138,0.228,0.324,0.233,0.524
		c0.005,0.2-0.068,0.39-0.206,0.536C10.416,16.114,10.218,16.199,10.013,16.199L10.013,16.199z"/>
	<path d="M12.263,20.421c-0.874,0-1.696-0.339-2.316-0.955c-0.295-0.293-0.301-0.771-0.012-1.064
		c0.143-0.146,0.334-0.228,0.537-0.228c0.192,0,0.374,0.074,0.513,0.208c0.356,0.353,0.796,0.538,1.278,0.538
		c0.484-0.002,0.932-0.189,1.268-0.528c0.141-0.143,0.33-0.222,0.532-0.222c0.2,0,0.387,0.078,0.529,0.218
		c0.142,0.141,0.221,0.329,0.221,0.529c0.001,0.2-0.077,0.389-0.218,0.531c-0.618,0.623-1.443,0.968-2.321,0.97c0,0-0.001,0-0.001,0
		H12.263z"/>
	<path d="M12.263,24c-4.549,0-8.25-3.701-8.25-8.25V13.5C4.01,11.326,4.848,9.275,6.372,7.724C6.514,7.58,6.704,7.5,6.907,7.5
		c0.198,0,0.385,0.077,0.526,0.215c0.295,0.29,0.299,0.765,0.009,1.06c-0.884,0.899-1.487,2.004-1.761,3.217
		c0.641-0.044,2.892-0.353,3.62-2.547c0.102-0.307,0.387-0.514,0.71-0.514c0.019,0,0.038,0.001,0.057,0.002
		c0.331,0.024,0.607,0.263,0.677,0.587c0.053,0.14,1.001,2.3,8.098,2.467c-0.275-1.211-0.878-2.314-1.76-3.212
		c-0.29-0.295-0.286-0.771,0.009-1.061C17.234,7.577,17.421,7.5,17.619,7.5c0.203,0,0.393,0.08,0.535,0.224
		c1.525,1.551,2.363,3.602,2.359,5.777v2.249C20.513,20.299,16.812,24,12.263,24z M5.513,15.75c0,3.722,3.028,6.75,6.75,6.75
		c3.722,0,6.75-3.028,6.75-6.75c0,0,0-2.255,0-2.258c-3.579-0.064-6.257-0.613-7.964-1.632c-0.359-0.215-0.672-0.449-0.933-0.698
		c-1.57,2.31-4.571,2.339-4.603,2.339V15.75z"/>
</g>
</svg>
