<?xml version="1.0" encoding="utf-8"?>
<!-- Generator: Adobe Illustrator 22.1.0, SVG Export Plug-In . SVG Version: 6.00 Build 0)  -->
<svg version="1.1" id="Layer_1" xmlns="http://www.w3.org/2000/svg" xmlns:xlink="http://www.w3.org/1999/xlink" x="0px" y="0px"
	 viewBox="0 0 24 24" style="enable-background:new 0 0 24 24;" xml:space="preserve">
<title>religion-shield</title>
<g>
	<path d="M10.536,19.497c-0.271,0-0.537-0.073-0.77-0.212c-0.71-0.425-0.942-1.348-0.518-2.057c0.544-0.899,0.819-1.927,0.794-2.974
		l-0.004-0.014c-0.501,0.177-1,0.436-1.444,0.752c-0.271,0.171-0.544,0.252-0.83,0.253c-0.828,0-1.501-0.672-1.502-1.499v-3.272
		c0-0.322,0.106-0.642,0.3-0.9c0.282-0.376,0.731-0.6,1.202-0.6c0.327,0,0.637,0.104,0.899,0.3c0.411,0.348,0.863,0.542,1.36,0.592
		c0.065-1.098-0.209-2.164-0.77-3.091C9.111,6.539,9.038,6.272,9.038,6.001c0-0.401,0.156-0.778,0.44-1.061
		c0.283-0.283,0.66-0.439,1.06-0.439h3.445c0.239,0,0.476,0.058,0.688,0.167c0.356,0.184,0.619,0.495,0.741,0.877
		c0.122,0.382,0.088,0.789-0.096,1.145c-0.552,0.986-0.887,2.086-0.974,3.192c0.555-0.056,1.079-0.263,1.513-0.615
		c0.288-0.206,0.585-0.304,0.902-0.305c0.404,0,0.78,0.155,1.063,0.437c0.284,0.283,0.441,0.66,0.442,1.061v3.302
		c0.001,0.275-0.075,0.545-0.219,0.781c-0.208,0.342-0.537,0.582-0.926,0.677c-0.117,0.029-0.237,0.043-0.356,0.043l0,0
		c-0.274,0-0.543-0.076-0.778-0.219c-0.008-0.005-0.035-0.023-0.042-0.028c-0.487-0.337-1.025-0.601-1.597-0.781
		c0.11,1.076,0.43,2.105,0.959,3.057c0.119,0.23,0.177,0.464,0.178,0.706c0.001,0.4-0.154,0.777-0.437,1.061
		c-0.283,0.284-0.659,0.44-1.06,0.441C13.983,19.497,10.536,19.497,10.536,19.497z M10.037,12.742c0.676,0,1.272,0.451,1.451,1.097
		c0.036,0.129,0.054,0.261,0.054,0.394c0.031,1.321-0.318,2.626-1.008,3.767l3.448-0.003c-0.623-1.119-1.003-2.346-1.125-3.638
		c-0.03-0.414,0.099-0.804,0.362-1.108c0.263-0.303,0.628-0.486,1.029-0.514c0.035-0.002,0.071-0.004,0.106-0.004
		c0.12,0,0.239,0.014,0.354,0.042c0.751,0.231,1.436,0.559,2.055,0.983l0-3.299c-0.642,0.522-1.448,0.839-2.313,0.903
		c-0.037,0.002-0.071,0.004-0.105,0.004c-0.364,0-0.714-0.131-0.987-0.369c-0.302-0.263-0.483-0.628-0.511-1.028
		c-0.005-0.06-0.005-0.123-0.001-0.186c0.104-1.327,0.496-2.629,1.135-3.779l-3.443-0.004c0.712,1.178,1.06,2.53,1.006,3.908
		c-0.015,0.801-0.694,1.459-1.515,1.459l-0.074-0.003c-0.819-0.069-1.569-0.374-2.186-0.884l-0.007,3.264
		c0.544-0.389,1.167-0.709,1.834-0.939C9.756,12.761,9.897,12.742,10.037,12.742z"/>
	<path d="M12.263,23.997c-0.462,0-0.916-0.085-1.349-0.253l-1.039-0.399c-4.942-1.938-8.126-6.617-8.113-11.922V3.956
		C1.756,3.079,2.267,2.271,3.065,1.9C5.926,0.638,8.951,0,12.064,0l0.206,0.001L12.465,0c3.111,0,6.134,0.637,8.984,1.894
		c0.81,0.377,1.323,1.187,1.314,2.068v7.464c0.013,5.303-3.169,9.982-8.108,11.918l-1.046,0.402
		C13.178,23.912,12.725,23.997,12.263,23.997z M12.069,1.5c-2.906,0-5.727,0.594-8.385,1.766C3.428,3.385,3.26,3.654,3.263,3.947
		v7.478c-0.012,4.683,2.797,8.813,7.156,10.522l1.036,0.398c0.261,0.101,0.532,0.152,0.808,0.152c0.276,0,0.547-0.051,0.805-0.151
		l1.043-0.401c4.355-1.708,7.162-5.836,7.151-10.518V3.954c0.003-0.299-0.167-0.57-0.433-0.694c-2.647-1.167-5.463-1.76-8.363-1.76
		L12.27,1.501L12.069,1.5z"/>
</g>
</svg>
