<?xml version="1.0" encoding="utf-8"?>
<!-- Generator: Adobe Illustrator 22.1.0, SVG Export Plug-In . SVG Version: 6.00 Build 0)  -->
<svg version="1.1" id="Layer_1" xmlns="http://www.w3.org/2000/svg" xmlns:xlink="http://www.w3.org/1999/xlink" x="0px" y="0px"
	 viewBox="0 0 24 24" style="enable-background:new 0 0 24 24;" xml:space="preserve">
<title>religion-devil</title>
<g>
	<path d="M12.739,24c-1.125,0-2.081-0.837-2.23-1.95l-2.044-9.72c-0.005-0.022-0.008-0.044-0.011-0.066
		c-0.115-0.98,0.425-1.899,1.283-2.3C9.259,9.233,8.999,8.376,8.999,7.5c0-0.917,0.283-1.81,0.806-2.561
		C8.363,3.975,7.74,2.156,8.288,0.513C8.39,0.206,8.676,0,9,0c0.08,0,0.16,0.013,0.237,0.038c0.19,0.063,0.344,0.197,0.434,0.376
		s0.104,0.383,0.041,0.573C9.382,1.973,9.747,3.07,10.598,3.664l0.322,0.154C11.68,3.282,12.567,3,13.499,3
		c0.941,0,1.863,0.299,2.625,0.848l0.238-0.158c0.879-0.587,1.26-1.698,0.925-2.703c-0.131-0.393,0.082-0.818,0.474-0.949
		C17.839,0.013,17.919-0.001,18-0.001c0.323,0,0.609,0.206,0.711,0.513c0.548,1.644-0.075,3.463-1.516,4.425
		c0.521,0.75,0.804,1.646,0.804,2.562c0,0.876-0.259,1.732-0.737,2.461c0.778,0.362,1.3,1.147,1.3,2.038
		c0,0.088-0.005,0.176-0.015,0.263c-0.004,0.027-0.007,0.049-0.012,0.071L17.027,19.5h1.723c1.241,0,2.25-1.009,2.25-2.25V13.81
		l-0.22,0.22c-0.142,0.142-0.33,0.22-0.53,0.22s-0.389-0.078-0.53-0.22s-0.22-0.33-0.22-0.53s0.078-0.389,0.22-0.53l1.5-1.5
		c0.07-0.07,0.153-0.125,0.245-0.163c0.007-0.003,0.016-0.006,0.024-0.009c0.081-0.031,0.171-0.048,0.262-0.048
		c0.089,0,0.176,0.016,0.261,0.048c0.011,0.004,0.022,0.008,0.032,0.012c0.085,0.035,0.167,0.09,0.237,0.16l1.5,1.5
		c0.292,0.292,0.292,0.768,0,1.061c-0.142,0.142-0.33,0.22-0.53,0.22s-0.389-0.078-0.53-0.22l-0.22-0.22v3.439
		c0,2.068-1.682,3.75-3.75,3.75h-2.039l-0.221,1.05C16.34,23.162,15.384,24,14.26,24H12.739z M11.983,21.77
		c0.005,0.021,0.008,0.044,0.011,0.066c0.044,0.378,0.365,0.663,0.745,0.663h1.521c0.38,0,0.701-0.285,0.745-0.663
		c0.002-0.021,0.006-0.046,0.012-0.071l0.344-1.634c0.004-0.025,0.009-0.05,0.016-0.074l1.684-7.999
		c0.002-0.02,0.002-0.04,0.002-0.06c0-0.413-0.337-0.75-0.75-0.75h-0.333c-0.74,0.491-1.594,0.75-2.48,0.75s-1.741-0.259-2.48-0.75
		h-0.33c-0.029,0-0.058,0.002-0.088,0.005c-0.399,0.047-0.692,0.406-0.66,0.804L11.983,21.77z M13.499,4.5c-1.654,0-3,1.346-3,3
		s1.346,3,3,3c1.654,0,3-1.346,3-3S15.154,4.5,13.499,4.5z"/>
	<path d="M3.749,24c-0.414,0-0.75-0.336-0.75-0.75V13.5h-0.75c-1.241,0-2.25-1.009-2.25-2.25v-4.5c0-0.414,0.336-0.75,0.75-0.75
		s0.75,0.336,0.75,0.75v4.5c0,0.414,0.336,0.75,0.75,0.75h0.75V5.25c0-0.414,0.336-0.75,0.75-0.75s0.75,0.336,0.75,0.75V12h0.75
		c0.414,0,0.75-0.336,0.75-0.75v-4.5C5.999,6.336,6.336,6,6.749,6s0.75,0.336,0.75,0.75v4.5c0,1.241-1.009,2.25-2.25,2.25h-0.75
		v9.75C4.499,23.663,4.163,24,3.749,24z"/>
</g>
</svg>
