<?xml version="1.0" encoding="utf-8"?>
<!-- Generator: Adobe Illustrator 22.1.0, SVG Export Plug-In . SVG Version: 6.00 Build 0)  -->
<svg version="1.1" id="Regular" xmlns="http://www.w3.org/2000/svg" xmlns:xlink="http://www.w3.org/1999/xlink" x="0px" y="0px"
	 viewBox="0 0 24 24" style="enable-background:new 0 0 24 24;" xml:space="preserve">
<title>renewable-energy-charging</title>
<g>
	<path d="M14.1,24c-1.8,0-3.324-1.268-3.675-3H6.75c-2.481,0-4.5-2.019-4.5-4.5S4.269,12,6.75,12H18c2.068,0,3.75-1.682,3.75-3.75
		S20.068,4.5,18,4.5h-7.577c-0.351,1.732-1.874,3-3.673,3H4.5c-0.414,0-0.75-0.336-0.75-0.75V6H1.5C1.086,6,0.75,5.664,0.75,5.25
		S1.086,4.5,1.5,4.5h2.25V3H1.5C1.086,3,0.75,2.664,0.75,2.25S1.086,1.5,1.5,1.5h2.25V0.75C3.75,0.336,4.086,0,4.5,0h2.25
		c1.799,0,3.323,1.268,3.673,3H18c2.895,0,5.25,2.355,5.25,5.25S20.895,13.5,18,13.5H6.75c-1.654,0-3,1.346-3,3s1.346,3,3,3h3.679
		c0.41-1.75,1.978-3,3.778-3l2.577,0c1.338,0,2.633,0.392,3.745,1.134l2.052,1.368c0.333,0.222,0.56,0.561,0.639,0.954
		c0.079,0.393-0.001,0.793-0.223,1.126c-0.109,0.165-0.249,0.305-0.415,0.415l-2.052,1.368C19.416,23.608,18.121,24,16.783,24H14.1z
		 M11.981,21c0.313,0.879,1.158,1.5,2.118,1.5h2.684c1.04,0,2.048-0.305,2.913-0.882l2.052-1.368l-2.052-1.368
		C18.831,18.305,17.823,18,16.783,18l-2.584-0.001c-0.985,0-1.856,0.611-2.206,1.501h5.257c0.414,0,0.75,0.336,0.75,0.75
		S17.664,21,17.25,21H11.981z M6.75,6C7.991,6,9,4.991,9,3.75S7.991,1.5,6.75,1.5h-1.5V6H6.75z"/>
</g>
</svg>
