<?xml version="1.0" encoding="utf-8"?>
<!-- Generator: Adobe Illustrator 22.1.0, SVG Export Plug-In . SVG Version: 6.00 Build 0)  -->
<svg version="1.1" id="Regular" xmlns="http://www.w3.org/2000/svg" xmlns:xlink="http://www.w3.org/1999/xlink" x="0px" y="0px"
	 viewBox="0 0 24 24" style="enable-background:new 0 0 24 24;" xml:space="preserve">
<title>renewable-energy-accumulator</title>
<g>
	<path d="M7.5,15c-0.09,0-0.178-0.016-0.261-0.047C6.947,14.845,6.75,14.562,6.75,14.25V9H4.875
		C4.609,8.999,4.353,8.905,4.152,8.735C3.922,8.542,3.781,8.27,3.755,7.971c-0.026-0.3,0.066-0.592,0.26-0.822l5.916-6.888
		C10.074,0.095,10.281,0,10.5,0c0.089,0,0.177,0.016,0.261,0.047c0.292,0.109,0.489,0.391,0.489,0.703V6h1.875
		c0.265,0.001,0.521,0.095,0.723,0.264c0.231,0.194,0.372,0.466,0.397,0.765c0.026,0.299-0.066,0.591-0.26,0.822l-5.916,6.888
		C7.926,14.905,7.719,15,7.5,15z M7.5,7.5c0.414,0,0.75,0.336,0.75,0.75v3.976l4.06-4.727L10.5,7.5c-0.414,0-0.75-0.336-0.75-0.75
		V2.774L5.69,7.501L7.5,7.5C7.5,7.5,7.5,7.5,7.5,7.5z"/>
	<path d="M3,24c-1.241,0-2.25-1.009-2.25-2.25v-18C0.75,2.509,1.759,1.5,3,1.5h2.25C5.664,1.5,6,1.836,6,2.25S5.664,3,5.25,3H3
		C2.586,3,2.25,3.336,2.25,3.75v18c0,0.414,0.336,0.75,0.75,0.75h18c0.414,0,0.75-0.336,0.75-0.75v-18C21.75,3.336,21.414,3,21,3
		h-7.5c-0.414,0-0.75-0.336-0.75-0.75S13.086,1.5,13.5,1.5H21c1.241,0,2.25,1.009,2.25,2.25v18c0,1.241-1.009,2.25-2.25,2.25H3z"/>
	<path d="M7.5,21c-0.414,0-0.75-0.336-0.75-0.75S7.086,19.5,7.5,19.5h0.75v-2.25c0-0.414,0.336-0.75,0.75-0.75s0.75,0.336,0.75,0.75
		v2.25h3V15c0-0.414,0.336-0.75,0.75-0.75s0.75,0.336,0.75,0.75v4.5h3v-8.25c0-0.414,0.336-0.75,0.75-0.75s0.75,0.336,0.75,0.75
		v8.25h0.75c0.414,0,0.75,0.336,0.75,0.75S19.914,21,19.5,21H7.5z"/>
</g>
</svg>
