<?xml version="1.0" encoding="utf-8"?>
<!-- Generator: Adobe Illustrator 22.1.0, SVG Export Plug-In . SVG Version: 6.00 Build 0)  -->
<svg version="1.1" id="Regular" xmlns="http://www.w3.org/2000/svg" xmlns:xlink="http://www.w3.org/1999/xlink" x="0px" y="0px"
	 viewBox="0 0 24 24" style="enable-background:new 0 0 24 24;" xml:space="preserve">
<title>renewable-energy-wind-turbine-1</title>
<g>
	<path d="M3.935,24.001c-0.414,0-0.75-0.336-0.75-0.75s0.336-0.75,0.75-0.75h3.898l2.068-9.307
		c-0.464-0.543-0.717-1.225-0.717-1.943c0-1.654,1.346-3,3-3c1.654,0,3,1.346,3,3c0,0.717-0.253,1.4-0.717,1.943l2.068,9.307h3.898
		c0.414,0,0.75,0.336,0.75,0.75s-0.336,0.75-0.75,0.75H3.935z M15.001,22.501l-1.868-8.405c-0.305,0.102-0.626,0.155-0.947,0.155
		s-0.642-0.053-0.947-0.155L9.37,22.501H15.001z M12.185,9.751c-0.827,0-1.5,0.673-1.5,1.5s0.673,1.5,1.5,1.5s1.5-0.673,1.5-1.5
		S13.013,9.751,12.185,9.751z"/>
	<path d="M14.336,7.501c-0.065,0-0.13-0.009-0.193-0.025c-0.194-0.052-0.356-0.176-0.456-0.349
		c-0.101-0.173-0.127-0.376-0.076-0.569l0.633-2.377c0.095-0.359,0.095-0.738,0-1.097c-0.248-0.932-1.095-1.583-2.059-1.583
		c-0.184,0-0.369,0.024-0.548,0.072c-0.549,0.146-1.009,0.498-1.295,0.991c-0.286,0.493-0.363,1.067-0.216,1.616l0.635,2.376
		c0.052,0.193,0.025,0.396-0.075,0.569c-0.1,0.173-0.262,0.297-0.456,0.349c-0.064,0.017-0.129,0.026-0.194,0.026l0,0
		c-0.339,0-0.637-0.229-0.724-0.557L8.676,4.567C8.16,2.632,9.315,0.639,11.25,0.124c0.306-0.081,0.62-0.122,0.933-0.122
		c1.644,0,3.087,1.109,3.51,2.697c0.163,0.611,0.163,1.258,0,1.869L15.06,6.944C14.972,7.272,14.675,7.501,14.336,7.501z"/>
	<path d="M4.374,18.655c-0.831,0-1.615-0.277-2.267-0.8c-0.756-0.608-1.231-1.473-1.336-2.437c-0.217-1.99,1.226-3.786,3.216-4.003
		l3.409-0.373c0.027-0.003,0.055-0.004,0.082-0.004c0.383,0,0.704,0.287,0.746,0.668c0.045,0.411-0.253,0.782-0.664,0.827
		L4.15,12.905c-0.566,0.062-1.074,0.34-1.431,0.784c-0.357,0.444-0.519,1-0.457,1.565c0.062,0.566,0.34,1.074,0.784,1.431
		c0.383,0.307,0.842,0.47,1.33,0.47c0.078,0,0.157-0.004,0.236-0.013c0.37-0.041,0.725-0.178,1.025-0.397l1.332-0.971
		c0.129-0.094,0.282-0.144,0.442-0.144c0.239,0,0.466,0.115,0.606,0.308c0.244,0.334,0.17,0.804-0.164,1.048l-1.332,0.971
		c-0.512,0.374-1.116,0.608-1.747,0.677C4.643,18.648,4.508,18.655,4.374,18.655z"/>
	<path d="M19.626,18.655c-0.134,0-0.269-0.007-0.4-0.022c-0.631-0.069-1.235-0.303-1.747-0.677l-1.332-0.971
		c-0.162-0.118-0.268-0.292-0.299-0.49s0.017-0.396,0.135-0.558c0.141-0.193,0.368-0.308,0.606-0.308c0.16,0,0.312,0.05,0.442,0.144
		l1.332,0.971c0.301,0.219,0.656,0.357,1.026,0.397c0.079,0.009,0.157,0.013,0.236,0.013c0.487,0,0.947-0.163,1.33-0.47
		c0.444-0.357,0.722-0.865,0.784-1.43c0.062-0.566-0.101-1.122-0.457-1.566c-0.357-0.444-0.865-0.722-1.431-0.784l-3.409-0.373
		c-0.411-0.045-0.709-0.416-0.664-0.827c0.042-0.381,0.362-0.669,0.746-0.669c0.026,0,0.053,0.001,0.08,0.004l3.41,0.373
		c0.964,0.105,1.829,0.579,2.437,1.336s0.884,1.704,0.779,2.668c-0.105,0.964-0.58,1.83-1.336,2.437
		C21.242,18.378,20.458,18.655,19.626,18.655z"/>
</g>
</svg>
