<?xml version="1.0" encoding="utf-8"?>
<!-- Generator: Adobe Illustrator 22.1.0, SVG Export Plug-In . SVG Version: 6.00 Build 0)  -->
<svg version="1.1" id="Regular" xmlns="http://www.w3.org/2000/svg" xmlns:xlink="http://www.w3.org/1999/xlink" x="0px" y="0px"
	 viewBox="0 0 24 24" style="enable-background:new 0 0 24 24;" xml:space="preserve">
<title>renewable-energy-solar-power</title>
<g>
	<path d="M17.249,24c-0.089,0-0.177-0.016-0.261-0.047c-0.292-0.108-0.489-0.391-0.489-0.703V18h-1.875
		c-0.265-0.001-0.521-0.095-0.722-0.263c-0.231-0.195-0.373-0.467-0.398-0.766c-0.026-0.299,0.066-0.591,0.26-0.822l5.916-6.888
		C19.822,9.095,20.03,9,20.249,9c0.089,0,0.176,0.016,0.26,0.046c0.294,0.109,0.49,0.392,0.49,0.704V15h1.875
		c0.266,0.001,0.522,0.095,0.723,0.264c0.475,0.4,0.537,1.112,0.138,1.586l-5.917,6.888C17.675,23.905,17.468,24,17.249,24z
		 M17.249,16.5c0.414,0,0.75,0.336,0.75,0.75v3.976l4.06-4.727l-1.81,0.001c-0.414,0-0.75-0.336-0.75-0.75v-3.976l-4.06,4.727
		L17.249,16.5z"/>
	<path d="M12.746,22.5c-3.935,0-7.506-2.17-9.318-5.664c-0.092-0.178-0.11-0.381-0.049-0.572c0.061-0.191,0.192-0.347,0.37-0.439
		c0.106-0.055,0.226-0.084,0.345-0.084c0.281,0,0.536,0.155,0.666,0.405C6.313,19.14,9.373,21,12.746,21
		c0.229,0,0.462-0.009,0.698-0.026c0.018-0.001,0.037-0.002,0.056-0.002c0.39,0,0.719,0.305,0.747,0.695
		c0.015,0.2-0.05,0.393-0.18,0.545s-0.313,0.243-0.513,0.258c-0.273,0.02-0.543,0.03-0.804,0.03H12.746z"/>
	<path d="M20.967,7.501c-0.258,0-0.494-0.13-0.633-0.346c-1.389-2.176-3.649-3.651-6.2-4.049c-0.408-0.063-0.689-0.448-0.626-0.856
		c0.058-0.368,0.37-0.635,0.742-0.635c0.037,0,0.075,0.003,0.113,0.009c2.977,0.464,5.614,2.185,7.235,4.724
		c0.222,0.349,0.12,0.813-0.229,1.036C21.25,7.46,21.11,7.501,20.967,7.501z"/>
	<path d="M6.749,9.75c-1.654,0-3-1.346-3-3s1.346-3,3-3s3,1.346,3,3S8.403,9.75,6.749,9.75z M6.749,5.25c-0.827,0-1.5,0.673-1.5,1.5
		s0.673,1.5,1.5,1.5s1.5-0.673,1.5-1.5S7.576,5.25,6.749,5.25z"/>
	<path d="M6.749,3c-0.414,0-0.75-0.336-0.75-0.75v-1.5C5.999,0.336,6.335,0,6.749,0s0.75,0.336,0.75,0.75v1.5
		C7.499,2.664,7.162,3,6.749,3z"/>
	<path d="M11.249,7.5c-0.414,0-0.75-0.336-0.75-0.75S10.835,6,11.249,6h1.5c0.414,0,0.75,0.336,0.75,0.75s-0.336,0.75-0.75,0.75
		H11.249z"/>
	<path d="M6.749,13.5c-0.414,0-0.75-0.336-0.75-0.75v-1.5c0-0.414,0.336-0.75,0.75-0.75s0.75,0.336,0.75,0.75v1.5
		C7.499,13.164,7.162,13.5,6.749,13.5z"/>
	<path d="M0.749,7.5c-0.414,0-0.75-0.336-0.75-0.75S0.335,6,0.749,6h1.5c0.414,0,0.75,0.336,0.75,0.75S2.662,7.5,2.249,7.5H0.749z"
		/>
	<path d="M3.567,4.318c-0.2,0-0.389-0.078-0.53-0.22L1.976,3.037c-0.142-0.142-0.22-0.33-0.22-0.53c0-0.2,0.078-0.389,0.22-0.53
		c0.141-0.142,0.33-0.22,0.53-0.22s0.389,0.078,0.53,0.22l1.061,1.061c0.142,0.142,0.22,0.33,0.22,0.53c0,0.2-0.078,0.389-0.22,0.53
		C3.955,4.24,3.767,4.318,3.567,4.318z"/>
	<path d="M9.931,4.318c-0.2,0-0.389-0.078-0.53-0.22c-0.142-0.141-0.22-0.33-0.22-0.53s0.078-0.389,0.22-0.53l1.061-1.061
		c0.142-0.142,0.33-0.22,0.53-0.22s0.389,0.078,0.53,0.22c0.142,0.141,0.22,0.33,0.22,0.53s-0.078,0.389-0.22,0.53l-1.061,1.061
		C10.319,4.24,10.131,4.318,9.931,4.318z"/>
	<path d="M10.992,11.743c-0.2,0-0.389-0.078-0.53-0.22L9.4,10.462c-0.142-0.141-0.22-0.33-0.22-0.53s0.078-0.389,0.22-0.53
		c0.141-0.142,0.33-0.22,0.53-0.22s0.389,0.078,0.53,0.22l1.061,1.061c0.142,0.141,0.22,0.33,0.22,0.53s-0.078,0.389-0.22,0.53
		C11.38,11.665,11.192,11.743,10.992,11.743z"/>
	<path d="M2.506,11.743c-0.2,0-0.389-0.078-0.53-0.22c-0.142-0.141-0.22-0.33-0.22-0.53c0-0.2,0.078-0.389,0.22-0.53l1.061-1.061
		c0.141-0.142,0.33-0.22,0.53-0.22s0.389,0.078,0.53,0.22c0.142,0.141,0.22,0.33,0.22,0.53c0,0.2-0.078,0.389-0.22,0.53
		l-1.061,1.061C2.895,11.665,2.706,11.743,2.506,11.743z"/>
</g>
</svg>
