<?xml version="1.0" encoding="utf-8"?>
<!-- Generator: Adobe Illustrator 22.1.0, SVG Export Plug-In . SVG Version: 6.00 Build 0)  -->
<svg version="1.1" id="Regular" xmlns="http://www.w3.org/2000/svg" xmlns:xlink="http://www.w3.org/1999/xlink" x="0px" y="0px"
	 viewBox="0 0 24 24" style="enable-background:new 0 0 24 24;" xml:space="preserve">
<title>renewable-energy-power-socket</title>
<g>
	<path d="M16.964,24c-0.574,0-1.088-0.319-1.343-0.831l-0.335-0.667L8.714,22.5l-0.337,0.671C8.123,23.682,7.609,24,7.037,24H1.5
		C0.673,24,0,23.327,0,22.5V6c0-1.241,1.009-2.25,2.25-2.25h9C11.663,3.75,12,4.086,12,4.5s-0.336,0.75-0.75,0.75h-9
		C1.836,5.25,1.5,5.586,1.5,6v12h2.25v-7.5c0-0.827,0.673-1.5,1.5-1.5h6C11.663,9,12,9.336,12,9.75s-0.336,0.75-0.75,0.75h-6V18
		h13.5v-3c0-0.414,0.336-0.75,0.75-0.75s0.75,0.336,0.75,0.75v3h2.25v-5.25c0-0.414,0.336-0.75,0.75-0.75S24,12.336,24,12.75v9.75
		c0,0.827-0.673,1.5-1.5,1.5H16.964z M15.287,21c0.573,0.001,1.087,0.319,1.341,0.831l0.335,0.667L22.5,22.5v-3h-21v3h5.537
		l0.336-0.671C7.627,21.318,8.141,21,8.714,21H15.287z"/>
	<path d="M9,16.5c-1.241,0-2.25-1.009-2.25-2.25S7.759,12,9,12s2.25,1.009,2.25,2.25S10.24,16.5,9,16.5z M9,13.5
		c-0.414,0-0.75,0.336-0.75,0.75S8.586,15,9,15s0.75-0.336,0.75-0.75S9.413,13.5,9,13.5z"/>
	<path d="M17,13.5c-0.099,0-0.196-0.019-0.288-0.057c-0.281-0.116-0.462-0.388-0.462-0.693V8.357H14.6
		c-0.316-0.003-0.609-0.125-0.829-0.344c-0.46-0.459-0.461-1.207-0.002-1.667l6.129-6.126C20.039,0.078,20.228,0,20.428,0
		c0.099,0,0.196,0.019,0.287,0.057c0.281,0.116,0.463,0.388,0.463,0.693v4.393h1.647c0.316,0.003,0.609,0.125,0.829,0.344
		c0.46,0.459,0.461,1.207,0.002,1.667L17.53,13.28C17.388,13.422,17.2,13.5,17,13.5z M17,6.857c0.414,0,0.75,0.336,0.75,0.75v3.332
		l4.296-4.297h-1.618c-0.414,0-0.75-0.336-0.75-0.75V2.56l-4.299,4.297H17z"/>
</g>
</svg>
