<?xml version="1.0" encoding="utf-8"?>
<!-- Generator: Adobe Illustrator 22.1.0, SVG Export Plug-In . SVG Version: 6.00 Build 0)  -->
<svg version="1.1" id="Regular" xmlns="http://www.w3.org/2000/svg" xmlns:xlink="http://www.w3.org/1999/xlink" x="0px" y="0px"
	 viewBox="0 0 24 24" style="enable-background:new 0 0 24 24;" xml:space="preserve">
<title>renewable-energy-paper-turbine</title>
<g>
	<path d="M3.311,23.25c-0.4,0-0.777-0.156-1.06-0.438c-0.586-0.585-0.586-1.537-0.002-2.122l3.44-3.44L0.97,12.531
		c-0.07-0.07-0.125-0.152-0.163-0.245c-0.003-0.008-0.007-0.017-0.01-0.026C0.766,12.174,0.75,12.087,0.75,12V3.311
		c0-0.4,0.155-0.777,0.439-1.06c0.283-0.284,0.66-0.44,1.061-0.44c0.401,0,0.777,0.156,1.061,0.439l3.44,3.44l4.719-4.719
		c0.07-0.07,0.152-0.125,0.245-0.163c0.008-0.003,0.017-0.006,0.026-0.009C11.825,0.766,11.912,0.75,12,0.75h8.689
		c0.827,0,1.5,0.672,1.5,1.499c0,0.401-0.156,0.778-0.439,1.061l-3.44,3.44l4.719,4.719c0.07,0.07,0.125,0.152,0.163,0.245
		c0.003,0.008,0.007,0.017,0.01,0.026c0.031,0.081,0.047,0.17,0.047,0.259v8.689c0,0.4-0.156,0.777-0.439,1.061
		c-0.283,0.283-0.66,0.44-1.061,0.44c-0.395,0-0.782-0.16-1.061-0.439l-3.44-3.44l-4.719,4.719c-0.07,0.07-0.153,0.125-0.246,0.164
		c-0.008,0.003-0.018,0.007-0.027,0.01C12.172,23.235,12.086,23.25,12,23.25H3.311z M3.31,21.75l8.379,0l4.5-4.5l-2.668-2.668
		C13.06,14.856,12.54,15,12,15c-0.54,0-1.06-0.144-1.521-0.418L3.31,21.75z M21.75,20.69l0-8.379l-4.5-4.5l-2.668,2.668
		C14.856,10.94,15,11.46,15,12c0,0.54-0.144,1.06-0.418,1.521L21.75,20.69z M6.75,16.189l2.668-2.668C9.144,13.06,9,12.54,9,12
		c0-0.54,0.144-1.06,0.418-1.521L2.25,3.31l0,8.379L6.75,16.189z M12,10.5c-0.827,0-1.5,0.673-1.5,1.5s0.673,1.5,1.5,1.5
		s1.5-0.673,1.5-1.5S12.827,10.5,12,10.5z M10.479,9.418C10.94,9.144,11.46,9,12,9c0.54,0,1.06,0.144,1.521,0.418L20.69,2.25
		l-8.379,0l-4.5,4.5L10.479,9.418z"/>
</g>
</svg>
