<?xml version="1.0" encoding="utf-8"?>
<!-- Generator: Adobe Illustrator 22.1.0, SVG Export Plug-In . SVG Version: 6.00 Build 0)  -->
<svg version="1.1" id="Regular" xmlns="http://www.w3.org/2000/svg" xmlns:xlink="http://www.w3.org/1999/xlink" x="0px" y="0px"
	 viewBox="0 0 24 24" style="enable-background:new 0 0 24 24;" xml:space="preserve">
<title>restaurant-fork-spoon</title>
<g>
	<path d="M6.75,24C6.336,24,6,23.664,6,23.25V11.171c-1.727-0.355-2.995-1.877-3-3.669V0.75C3,0.336,3.336,0,3.75,0
		S4.5,0.336,4.5,0.75V7.5C4.503,8.455,5.123,9.299,6,9.615V0.75C6,0.336,6.336,0,6.75,0S7.5,0.336,7.5,0.75v8.865
		C8.377,9.299,8.997,8.455,9,7.498V0.75C9,0.336,9.336,0,9.75,0s0.75,0.336,0.75,0.75V7.5c-0.005,1.794-1.273,3.317-3,3.671V23.25
		C7.5,23.664,7.164,24,6.75,24z"/>
	<path d="M17.25,24c-0.414,0-0.75-0.336-0.75-0.75v-12h-0.25c-1.516,0-2.75-1.234-2.75-2.75V2.75C13.5,1.234,14.734,0,16.25,0h2
		C19.766,0,21,1.234,21,2.75V8.5c0,1.516-1.234,2.75-2.75,2.75H18v12C18,23.664,17.664,24,17.25,24z M16.25,1.5
		C15.561,1.5,15,2.061,15,2.75V8.5c0,0.689,0.561,1.25,1.25,1.25h2c0.689,0,1.25-0.561,1.25-1.25V2.75c0-0.689-0.561-1.25-1.25-1.25
		H16.25z"/>
</g>
</svg>
