<?xml version="1.0" encoding="utf-8"?>
<!-- Generator: Adobe Illustrator 22.1.0, SVG Export Plug-In . SVG Version: 6.00 Build 0)  -->
<svg version="1.1" id="Layer_1" xmlns="http://www.w3.org/2000/svg" xmlns:xlink="http://www.w3.org/1999/xlink" x="0px" y="0px"
	 viewBox="0 0 24 24" style="enable-background:new 0 0 24 24;" xml:space="preserve">
<title>road-sign-no-entry-1</title>
<g>
	<path d="M12,24c-2.433,0-4.779-0.729-6.784-2.108c-0.01-0.005-0.042-0.023-0.078-0.056c-1.166-0.816-2.169-1.821-2.984-2.988
		c-0.011-0.014-0.021-0.028-0.03-0.042C0.734,16.795,0,14.442,0,12C0,5.383,5.383,0,12,0c2.441,0,4.793,0.734,6.803,2.122
		c0.015,0.009,0.032,0.021,0.051,0.036c1.165,0.813,2.168,1.816,2.982,2.98c0.033,0.037,0.052,0.071,0.062,0.089
		C23.271,7.221,24,9.567,24,12C24,18.617,18.617,24,12,24z M6.85,21.145C8.42,22.033,10.191,22.5,12,22.5
		c5.79,0,10.5-4.71,10.5-10.5c0-1.809-0.467-3.58-1.355-5.15L6.85,21.145z M3.703,18.424c0.544,0.701,1.173,1.33,1.874,1.874
		L20.298,5.577c-0.544-0.701-1.172-1.33-1.874-1.874L3.703,18.424z M12,1.5C6.21,1.5,1.5,6.21,1.5,12c0,1.81,0.467,3.58,1.355,5.15
		L17.15,2.855C15.58,1.967,13.81,1.5,12,1.5z"/>
</g>
</svg>
