<?xml version="1.0" encoding="utf-8"?>
<!-- Generator: Adobe Illustrator 22.1.0, SVG Export Plug-In . SVG Version: 6.00 Build 0)  -->
<svg version="1.1" id="Layer_1" xmlns="http://www.w3.org/2000/svg" xmlns:xlink="http://www.w3.org/1999/xlink" x="0px" y="0px"
	 viewBox="0 0 24 24" style="enable-background:new 0 0 24 24;" xml:space="preserve">
<title>road-sign-4m-wide</title>
<g>
	<path d="M0.75,12.92c-0.2,0-0.389-0.078-0.53-0.22c-0.292-0.292-0.292-0.768,0-1.061l0.97-0.97L0.22,9.7C0.078,9.559,0,9.37,0,9.17
		s0.078-0.389,0.22-0.53c0.141-0.142,0.33-0.22,0.53-0.22s0.389,0.078,0.53,0.22l1.5,1.5C2.922,10.281,3,10.469,3,10.67
		s-0.078,0.389-0.22,0.53l-1.5,1.5C1.139,12.842,0.95,12.92,0.75,12.92z"/>
	<path d="M23.25,12.92c-0.2,0-0.389-0.078-0.53-0.22l-1.5-1.5C21.078,11.059,21,10.87,21,10.67s0.078-0.389,0.22-0.53l1.5-1.5
		c0.142-0.142,0.33-0.22,0.53-0.22s0.389,0.078,0.53,0.22C23.922,8.781,24,8.969,24,9.17s-0.078,0.389-0.22,0.53l-0.97,0.97
		l0.97,0.97c0.292,0.292,0.292,0.768,0,1.061C23.639,12.842,23.45,12.92,23.25,12.92z"/>
	<path d="M9.75,15.17C9.336,15.17,9,14.833,9,14.42v-1.5H6.75C6.336,12.92,6,12.583,6,12.17v-0.75c0-2.068,1.682-3.75,3.75-3.75
		c0.414,0,0.75,0.336,0.75,0.75v6C10.5,14.833,10.164,15.17,9.75,15.17z M9,11.42V9.299c-0.879,0.313-1.5,1.159-1.5,2.121H9z"/>
	<path d="M17.25,15.17c-0.414,0-0.75-0.336-0.75-0.75v-3.292l-0.857,1.428C15.509,12.78,15.262,12.92,15,12.92
		s-0.509-0.14-0.643-0.365L13.5,11.128v3.292c0,0.414-0.336,0.75-0.75,0.75S12,14.833,12,14.42v-6c0-0.336,0.226-0.633,0.55-0.723
		c0.066-0.018,0.133-0.027,0.2-0.027c0.262,0,0.509,0.14,0.643,0.364L15,10.712l1.607-2.678c0.135-0.224,0.381-0.364,0.643-0.364
		c0.067,0,0.135,0.009,0.2,0.027C17.774,7.787,18,8.084,18,8.42v6C18,14.833,17.664,15.17,17.25,15.17z"/>
</g>
</svg>
