<?xml version="1.0" encoding="utf-8"?>
<!-- Generator: Adobe Illustrator 22.1.0, SVG Export Plug-In . SVG Version: 6.00 Build 0)  -->
<svg version="1.1" id="Layer_1" xmlns="http://www.w3.org/2000/svg" xmlns:xlink="http://www.w3.org/1999/xlink" x="0px" y="0px"
	 viewBox="0 0 24 24" style="enable-background:new 0 0 24 24;" xml:space="preserve">
<title>road-sign-divided-highway-ahead</title>
<g>
	<path d="M12,24c-0.443,0-0.859-0.172-1.171-0.485L0.485,13.173C0.173,12.861,0.001,12.445,0,12.002
		c0-0.443,0.172-0.859,0.485-1.172L10.828,0.487c0.313-0.313,0.729-0.485,1.172-0.485s0.859,0.172,1.172,0.485l10.343,10.342
		c0.313,0.312,0.485,0.729,0.485,1.172s-0.172,0.859-0.485,1.172L13.172,23.516C12.859,23.828,12.443,24,12,24z M11.999,1.502
		c-0.024,0-0.071,0.006-0.111,0.046L1.546,11.891c-0.061,0.061-0.061,0.161,0,0.222l10.343,10.343
		c0.04,0.04,0.087,0.045,0.111,0.045s0.071-0.006,0.111-0.046l10.343-10.343c0.061-0.061,0.061-0.161,0-0.222L12.11,1.547
		C12.071,1.508,12.024,1.502,11.999,1.502z"/>
	<path d="M10.5,18c-0.414,0-0.75-0.336-0.75-0.75v-1.939l-2.03-2.03c-0.14-0.14-0.22-0.333-0.22-0.53v-2.69l-0.97,0.97
		c-0.142,0.142-0.33,0.22-0.53,0.22s-0.389-0.078-0.53-0.22c-0.142-0.141-0.22-0.33-0.22-0.53s0.078-0.389,0.22-0.53L7.719,7.72
		c0.07-0.07,0.152-0.125,0.245-0.163C7.972,7.554,7.981,7.55,7.99,7.547C8.075,7.516,8.162,7.5,8.25,7.5
		c0.089,0,0.177,0.016,0.261,0.048C8.519,7.55,8.526,7.553,8.532,7.555c0.097,0.04,0.179,0.095,0.249,0.166L11.03,9.97
		c0.142,0.141,0.22,0.33,0.22,0.53s-0.078,0.389-0.22,0.53c-0.141,0.142-0.33,0.22-0.53,0.22s-0.389-0.078-0.53-0.22L9,10.061v2.379
		l2.03,2.03c0.14,0.14,0.22,0.333,0.22,0.53v2.25C11.25,17.664,10.914,18,10.5,18z"/>
	<path d="M16.5,15.75c-0.087,0-0.174-0.016-0.258-0.046c-0.006-0.002-0.011-0.004-0.017-0.006c-0.104-0.042-0.186-0.097-0.256-0.167
		l-2.25-2.25c-0.292-0.292-0.292-0.768,0-1.061c0.142-0.142,0.33-0.22,0.53-0.22s0.389,0.078,0.53,0.22l0.97,0.97v-1.713
		l-1.374-2.061C14.294,9.292,14.25,9.148,14.25,9V7.5c0-0.414,0.336-0.75,0.75-0.75s0.75,0.336,0.75,0.75v1.273l1.374,2.061
		c0.083,0.124,0.126,0.268,0.126,0.416v1.94l0.97-0.97c0.142-0.142,0.33-0.22,0.53-0.22s0.389,0.078,0.53,0.22
		c0.292,0.292,0.292,0.768,0,1.061l-2.25,2.25c-0.07,0.07-0.152,0.125-0.245,0.163c-0.008,0.003-0.017,0.007-0.026,0.01
		C16.678,15.734,16.589,15.75,16.5,15.75z"/>
	<path d="M12,9.75c-0.414,0-0.75-0.336-0.75-0.75V6c0-0.414,0.336-0.75,0.75-0.75c0.414,0,0.75,0.336,0.75,0.75v3
		C12.75,9.414,12.414,9.75,12,9.75z"/>
</g>
</svg>
