<?xml version="1.0" encoding="utf-8"?>
<!-- Generator: Adobe Illustrator 22.1.0, SVG Export Plug-In . SVG Version: 6.00 Build 0)  -->
<svg version="1.1" id="Layer_1" xmlns="http://www.w3.org/2000/svg" xmlns:xlink="http://www.w3.org/1999/xlink" x="0px" y="0px"
	 viewBox="0 0 24 24" style="enable-background:new 0 0 24 24;" xml:space="preserve">
<title>road-sign-speed-limit-90</title>
<g>
	<path d="M15,15.75c-1.241,0-2.25-1.009-2.25-2.25v-3c0-1.241,1.009-2.25,2.25-2.25s2.25,1.009,2.25,2.25v3
		C17.25,14.741,16.241,15.75,15,15.75z M15,9.75c-0.414,0-0.75,0.336-0.75,0.75v3c0,0.414,0.336,0.75,0.75,0.75
		s0.75-0.336,0.75-0.75v-3C15.75,10.086,15.414,9.75,15,9.75z"/>
	<path d="M12,24C5.383,24,0,18.617,0,12C0,5.383,5.383,0,12,0c6.617,0,12,5.383,12,12C24,18.617,18.617,24,12,24z M12,1.5
		C6.21,1.5,1.5,6.21,1.5,12c0,5.79,4.71,10.5,10.5,10.5c5.79,0,10.5-4.71,10.5-10.5C22.5,6.21,17.79,1.5,12,1.5z"/>
	<path d="M8.25,15.75c-0.414,0-0.75-0.336-0.75-0.75s0.336-0.75,0.75-0.75c0.827,0,1.5-0.673,1.5-1.5v-0.129
		C9.511,12.706,9.259,12.75,9,12.75c-1.241,0-2.25-1.009-2.25-2.25S7.759,8.25,9,8.25s2.25,1.009,2.25,2.25v2.25
		C11.25,14.404,9.904,15.75,8.25,15.75z M9,9.75c-0.414,0-0.75,0.336-0.75,0.75S8.586,11.25,9,11.25s0.75-0.336,0.75-0.75
		S9.414,9.75,9,9.75z"/>
</g>
</svg>
