<?xml version="1.0" encoding="utf-8"?>
<!-- Generator: Adobe Illustrator 22.1.0, SVG Export Plug-In . SVG Version: 6.00 Build 0)  -->
<svg version="1.1" id="Layer_1" xmlns="http://www.w3.org/2000/svg" xmlns:xlink="http://www.w3.org/1999/xlink" x="0px" y="0px"
	 viewBox="0 0 24 24" style="enable-background:new 0 0 24 24;" xml:space="preserve">
<title>road-sign-water-ahead</title>
<g>
	<path d="M12,24c-0.443,0-0.859-0.172-1.171-0.485L0.485,13.173C0.173,12.861,0.001,12.445,0,12.002
		c0-0.443,0.172-0.859,0.485-1.172L10.828,0.487c0.313-0.313,0.729-0.485,1.172-0.485s0.859,0.172,1.172,0.485l10.343,10.342
		c0.313,0.312,0.485,0.729,0.485,1.172s-0.172,0.859-0.485,1.172L13.172,23.516C12.859,23.828,12.443,24,12,24z M11.999,1.502
		c-0.024,0-0.071,0.006-0.111,0.046L1.546,11.891c-0.061,0.061-0.061,0.161,0,0.222l10.343,10.343
		c0.04,0.04,0.087,0.045,0.111,0.045s0.071-0.006,0.111-0.046l10.343-10.343c0.061-0.061,0.061-0.161,0-0.222L12.11,1.547
		C12.071,1.508,12.024,1.502,11.999,1.502z"/>
	<path d="M15.372,17.25c-1.236-0.011-2.421-0.442-3.372-1.221c-0.951,0.779-2.134,1.21-3.368,1.221
		c-0.098,0-0.253-0.001-0.444-0.017c-0.413-0.035-0.719-0.399-0.685-0.811c0.033-0.391,0.357-0.687,0.754-0.687
		c0.008,0,0.041,0.001,0.048,0.001c0.145,0.012,0.25,0.012,0.316,0.012c0.001,0,0.003,0,0.004,0
		c1.067-0.009,2.097-0.468,2.823-1.257c0.141-0.154,0.343-0.243,0.552-0.243c0.209,0,0.411,0.088,0.552,0.242
		c0.725,0.79,1.757,1.248,2.829,1.258c0.068,0,0.171,0,0.305-0.011c0.024-0.002,0.041-0.002,0.057-0.002
		c0.39,0,0.721,0.301,0.753,0.686c0.035,0.412-0.272,0.776-0.684,0.811c-0.2,0.017-0.349,0.017-0.438,0.017
		C15.374,17.25,15.373,17.25,15.372,17.25z"/>
	<path d="M8.25,14.25c-0.414,0-0.75-0.336-0.75-0.75v-2.25H5.25c-0.414,0-0.75-0.336-0.75-0.75s0.336-0.75,0.75-0.75H7.94l2.03-2.03
		C10.112,7.578,10.3,7.5,10.5,7.5s0.389,0.078,0.53,0.22c0.142,0.141,0.22,0.33,0.22,0.53s-0.078,0.389-0.22,0.53L9,10.811v2.69
		C9,13.914,8.664,14.25,8.25,14.25z"/>
	<path d="M15.75,14.25c-0.414,0-0.75-0.336-0.75-0.75v-2.69l-2.03-2.03c-0.142-0.141-0.22-0.33-0.22-0.53s0.078-0.389,0.22-0.53
		S13.3,7.5,13.5,7.5s0.389,0.078,0.53,0.22l2.03,2.03h2.689c0.414,0,0.75,0.336,0.75,0.75s-0.336,0.75-0.75,0.75H16.5v2.25
		C16.5,13.914,16.164,14.25,15.75,14.25z"/>
</g>
</svg>
