<?xml version="1.0" encoding="utf-8"?>
<!-- Generator: Adobe Illustrator 22.1.0, SVG Export Plug-In . SVG Version: 6.00 Build 0)  -->
<svg version="1.1" id="Layer_1" xmlns="http://www.w3.org/2000/svg" xmlns:xlink="http://www.w3.org/1999/xlink" x="0px" y="0px"
	 viewBox="0 0 24 24" style="enable-background:new 0 0 24 24;" xml:space="preserve">
<title>road-sign-bicycles</title>
<g>
	<path d="M16.875,18c-1.861,0-3.375-1.514-3.375-3.375c0-1.123,0.559-2.165,1.479-2.791l-0.336-0.926l-4.293,2.723
		c0.1,0.322,0.15,0.655,0.15,0.994C10.5,16.486,8.986,18,7.125,18S3.75,16.486,3.75,14.625s1.514-3.375,3.375-3.375
		c0.95,0,1.833,0.391,2.472,1.083l1.104-0.7L9.009,9H8.25C7.836,9,7.5,8.664,7.5,8.25S7.836,7.5,8.25,7.5h3
		C11.664,7.5,12,7.836,12,8.25S11.664,9,11.25,9h-0.458l1.175,1.829l2.151-1.364l-0.523-1.439c-0.14-0.363-0.128-0.768,0.034-1.135
		c0.163-0.366,0.459-0.647,0.833-0.791C14.635,6.034,14.816,6,15,6c0.414,0,0.75,0.336,0.75,0.75S15.414,7.5,15,7.5l1.377,3.789
		c0.168-0.026,0.334-0.039,0.498-0.039c1.861,0,3.375,1.514,3.375,3.375S18.736,18,16.875,18z M16.875,12.75
		c-1.034,0-1.875,0.841-1.875,1.875s0.841,1.875,1.875,1.875s1.875-0.841,1.875-1.875S17.909,12.75,16.875,12.75z M7.125,12.75
		c-1.034,0-1.875,0.841-1.875,1.875S6.091,16.5,7.125,16.5S9,15.659,9,14.625S8.159,12.75,7.125,12.75z"/>
	<path d="M12,24C5.383,24,0,18.617,0,12C0,5.383,5.383,0,12,0c6.617,0,12,5.383,12,12C24,18.617,18.617,24,12,24z M12,1.5
		C6.21,1.5,1.5,6.21,1.5,12c0,5.79,4.71,10.5,10.5,10.5c5.79,0,10.5-4.71,10.5-10.5C22.5,6.21,17.79,1.5,12,1.5z"/>
</g>
</svg>
