<?xml version="1.0" encoding="utf-8"?>
<!-- Generator: Adobe Illustrator 22.1.0, SVG Export Plug-In . SVG Version: 6.00 Build 0)  -->
<svg version="1.1" id="Layer_1" xmlns="http://www.w3.org/2000/svg" xmlns:xlink="http://www.w3.org/1999/xlink" x="0px" y="0px"
	 viewBox="0 0 24 24" style="enable-background:new 0 0 24 24;" xml:space="preserve">
<title>road-traffic-lights</title>
<g>
	<path d="M12,15.013c-1.654,0-3-1.346-3-3s1.346-3,3-3c1.654,0,3,1.346,3,3S13.654,15.013,12,15.013z M12,10.513
		c-0.827,0-1.5,0.673-1.5,1.5c0,0.827,0.673,1.5,1.5,1.5s1.5-0.673,1.5-1.5C13.5,11.186,12.827,10.513,12,10.513z"/>
	<path d="M12,9.013c-1.654,0-3-1.346-3-3s1.346-3,3-3c1.654,0,3,1.346,3,3S13.654,9.013,12,9.013z M12,4.513
		c-0.827,0-1.5,0.673-1.5,1.5s0.673,1.5,1.5,1.5s1.5-0.673,1.5-1.5S12.827,4.513,12,4.513z"/>
	<path d="M12,21.013c-1.654,0-3-1.346-3-3s1.346-3,3-3c1.654,0,3,1.346,3,3S13.654,21.013,12,21.013z M12,16.513
		c-0.827,0-1.5,0.673-1.5,1.5s0.673,1.5,1.5,1.5s1.5-0.673,1.5-1.5S12.827,16.513,12,16.513z"/>
	<path d="M8.75,24.013c-1.516,0-2.75-1.234-2.75-2.75v-0.599l-3.731-2.487C1.787,17.856,1.5,17.319,1.5,16.74
		c0-0.952,0.775-1.727,1.727-1.727H6v-0.349l-3.731-2.487C1.787,11.856,1.5,11.319,1.5,10.74c0-0.952,0.775-1.727,1.727-1.727H6
		V8.664L2.269,6.177C1.787,5.856,1.5,5.319,1.5,4.74c0-0.952,0.775-1.727,1.727-1.727H6v-0.25c0-1.516,1.234-2.75,2.75-2.75h6.5
		c1.516,0,2.75,1.234,2.75,2.75v0.25h2.773c0.952,0,1.727,0.775,1.727,1.727c0,0.579-0.288,1.117-0.77,1.438L18,8.664v0.349h2.773
		c0.952,0,1.727,0.775,1.727,1.727c0,0.579-0.288,1.117-0.77,1.438L18,14.664v0.349h2.773c0.952,0,1.727,0.774,1.727,1.726
		c0,0.58-0.288,1.117-0.77,1.438L18,20.664v0.599c0,1.516-1.234,2.75-2.75,2.75H8.75z M8.75,1.513c-0.689,0-1.25,0.561-1.25,1.25
		v18.5c0,0.689,0.561,1.25,1.25,1.25h6.5c0.689,0,1.25-0.561,1.25-1.25v-18.5c0-0.689-0.561-1.25-1.25-1.25H8.75z M3.227,16.513
		C3.102,16.513,3,16.615,3,16.74c0,0.076,0.038,0.147,0.101,0.189L6,18.862v-2.349H3.227z M18,18.862l2.899-1.933
		C20.962,16.887,21,16.816,21,16.74c0-0.125-0.102-0.227-0.227-0.227H18V18.862z M18,12.862l2.899-1.933
		C20.962,10.887,21,10.816,21,10.74c0-0.125-0.102-0.227-0.227-0.227H18V12.862z M3.227,10.513c-0.062,0-0.117,0.023-0.161,0.067
		C3.023,10.623,3,10.679,3,10.74c0,0.076,0.038,0.147,0.101,0.189L6,12.862v-2.349H3.227z M18,6.862l2.899-1.933
		C20.962,4.887,21,4.816,21,4.74c0-0.125-0.102-0.227-0.227-0.227H18V6.862z M3.227,4.513c-0.062,0-0.117,0.023-0.161,0.067
		C3.023,4.623,3,4.679,3,4.74c0,0.076,0.038,0.147,0.101,0.189L6,6.862V4.513H3.227z"/>
</g>
</svg>
