<?xml version="1.0" encoding="utf-8"?>
<!-- Generator: Adobe Illustrator 22.1.0, SVG Export Plug-In . SVG Version: 6.00 Build 0)  -->
<svg version="1.1" id="Layer_1" xmlns="http://www.w3.org/2000/svg" xmlns:xlink="http://www.w3.org/1999/xlink" x="0px" y="0px"
	 viewBox="0 0 24 24" style="enable-background:new 0 0 24 24;" xml:space="preserve">
<title>road-sign-hill-1</title>
<g>
	<path d="M12.002,23.998c-0.485,0-0.94-0.188-1.282-0.53L0.532,13.281c-0.342-0.342-0.53-0.797-0.53-1.282s0.188-0.94,0.53-1.282
		L10.72,0.529c0.342-0.343,0.798-0.531,1.282-0.531s0.94,0.189,1.282,0.531l10.187,10.187c0.343,0.342,0.531,0.798,0.531,1.282
		c0,0.484-0.189,0.939-0.531,1.282L13.283,23.468C12.942,23.81,12.486,23.998,12.002,23.998z M12.002,1.498
		c-0.085,0-0.161,0.032-0.222,0.092L1.593,11.777c-0.122,0.122-0.122,0.321,0,0.443L11.78,22.407
		c0.059,0.059,0.138,0.091,0.222,0.091c0.084,0,0.162-0.032,0.221-0.091L22.41,12.22c0.06-0.06,0.092-0.137,0.092-0.221
		c0-0.085-0.032-0.161-0.092-0.221L12.223,1.59C12.163,1.53,12.086,1.498,12.002,1.498z"/>
	<path d="M7.501,14.999c-0.503,0-0.969-0.25-1.248-0.668c-0.222-0.333-0.301-0.733-0.223-1.126c0.078-0.393,0.305-0.732,0.639-0.954
		c0.031-0.021,0.064-0.039,0.098-0.055l8.209-3.83c0.234-0.141,0.502-0.216,0.775-0.216c0.827,0,1.5,0.673,1.5,1.5v3.849
		c0,0.827-0.673,1.5-1.5,1.5H7.501z M15.751,13.499V9.65c-0.032,0.021-0.065,0.04-0.1,0.056l-8.13,3.793H15.751z"/>
</g>
</svg>
