<?xml version="1.0" encoding="utf-8"?>
<!-- Generator: Adobe Illustrator 22.1.0, SVG Export Plug-In . SVG Version: 6.00 Build 0)  -->
<svg version="1.1" id="Layer_1" xmlns="http://www.w3.org/2000/svg" xmlns:xlink="http://www.w3.org/1999/xlink" x="0px" y="0px"
	 viewBox="0 0 24 24" style="enable-background:new 0 0 24 24;" xml:space="preserve">
<title>road-sign-airport-close</title>
<g>
	<path d="M14.229,16.855c-0.283,0-0.562-0.053-0.829-0.158l-6.813-2.683c-0.56-0.224-0.998-0.652-1.234-1.206
		c-0.237-0.553-0.244-1.165-0.021-1.722c0.339-0.844,1.18-1.412,2.094-1.412c0.27,0,0.535,0.048,0.788,0.144
		C8.216,9.819,9.9,10.483,9.9,10.483l3.4-3.051c0.137-0.124,0.316-0.192,0.501-0.192c0.095,0,0.188,0.018,0.276,0.053l2.092,0.825
		c0.224,0.088,0.393,0.28,0.452,0.513c0.059,0.234,0.002,0.483-0.152,0.667l-2.377,2.838l2.787,1.098l0.901-0.809
		c0.138-0.124,0.316-0.192,0.501-0.192c0.213,0,0.416,0.091,0.558,0.249c0.134,0.149,0.201,0.341,0.191,0.542
		c-0.011,0.2-0.099,0.384-0.248,0.518l-1.248,1.12c-0.009,0.008-0.02,0.017-0.031,0.024l-1.775,1.594
		C15.314,16.65,14.781,16.855,14.229,16.855z M7.424,11.174c-0.306,0-0.587,0.189-0.7,0.47c-0.075,0.186-0.072,0.39,0.006,0.574
		s0.224,0.327,0.41,0.401l6.809,2.682c0.089,0.035,0.183,0.053,0.277,0.053c0.184,0,0.361-0.068,0.499-0.192l0.902-0.81
		l-3.055-1.203c-0.224-0.088-0.393-0.28-0.452-0.512c-0.059-0.234-0.002-0.483,0.152-0.667l2.377-2.838l-0.694-0.274l-3.4,3.052
		c-0.139,0.124-0.317,0.192-0.501,0.192c-0.094,0-0.186-0.017-0.274-0.052l-2.08-0.821C7.606,11.191,7.516,11.174,7.424,11.174z"/>
	<path d="M12.002,23.998c-0.485,0-0.94-0.188-1.282-0.53L0.532,13.281c-0.342-0.342-0.53-0.797-0.53-1.282s0.188-0.94,0.53-1.282
		L10.72,0.529c0.342-0.343,0.798-0.531,1.282-0.531s0.94,0.189,1.282,0.531l10.187,10.187c0.343,0.342,0.531,0.798,0.531,1.282
		c0,0.484-0.189,0.939-0.531,1.282L13.283,23.468C12.942,23.81,12.486,23.998,12.002,23.998z M12.002,1.498
		c-0.085,0-0.161,0.032-0.222,0.092L1.593,11.777c-0.122,0.122-0.122,0.321,0,0.443L11.78,22.407
		c0.059,0.059,0.138,0.091,0.222,0.091c0.084,0,0.162-0.032,0.221-0.091L22.41,12.22c0.06-0.06,0.092-0.137,0.092-0.221
		c0-0.085-0.032-0.161-0.092-0.221L12.223,1.59C12.163,1.53,12.086,1.498,12.002,1.498z"/>
</g>
</svg>
