<?xml version="1.0" encoding="utf-8"?>
<!-- Generator: Adobe Illustrator 22.1.0, SVG Export Plug-In . SVG Version: 6.00 Build 0)  -->
<svg version="1.1" id="Layer_1" xmlns="http://www.w3.org/2000/svg" xmlns:xlink="http://www.w3.org/1999/xlink" x="0px" y="0px"
	 viewBox="0 0 24 24" style="enable-background:new 0 0 24 24;" xml:space="preserve">
<title>road-sign-turn-right</title>
<g>
	<path d="M1.75,18.254c-0.965,0-1.75-0.785-1.75-1.75v-10c0-0.965,0.785-1.75,1.75-1.75h20.5c0.965,0,1.75,0.785,1.75,1.75v10
		c0,0.965-0.785,1.75-1.75,1.75H1.75z M22.25,16.754c0.138,0,0.25-0.112,0.25-0.25v-10c0-0.138-0.112-0.25-0.25-0.25h-4.097
		l4.162,4.756c0.247,0.281,0.247,0.706,0,0.988l-4.162,4.756H22.25z M16.16,16.754l4.594-5.25l-4.594-5.25h-4.757l4.162,4.756
		c0.247,0.281,0.247,0.706,0,0.988l-4.162,4.756H16.16z M9.41,16.754l4.594-5.25L9.41,6.254H4.653l4.162,4.756
		c0.246,0.282,0.246,0.706,0,0.988l-4.162,4.756H9.41z M1.75,6.254c-0.138,0-0.25,0.112-0.25,0.25v10c0,0.138,0.112,0.25,0.25,0.25
		h0.91l4.594-5.25L2.66,6.254H1.75z"/>
</g>
</svg>
