<?xml version="1.0" encoding="utf-8"?>
<!-- Generator: Adobe Illustrator 22.1.0, SVG Export Plug-In . SVG Version: 6.00 Build 0)  -->
<svg version="1.1" id="Layer_1" xmlns="http://www.w3.org/2000/svg" xmlns:xlink="http://www.w3.org/1999/xlink" x="0px" y="0px"
	 viewBox="0 0 24 24" style="enable-background:new 0 0 24 24;" xml:space="preserve">
<title>road-sign-obstruction-1</title>
<g>
	<path d="M7,24c-0.965,0-1.75-0.785-1.75-1.75V1.75C5.25,0.785,6.035,0,7,0h10c0.965,0,1.75,0.785,1.75,1.75v20.5
		c0,0.965-0.785,1.75-1.75,1.75H7z M17,22.5c0.138,0,0.25-0.112,0.25-0.25v-3.939l-10.5-10.5v6.129l8.561,8.561H17z M6.75,22.25
		c0,0.138,0.112,0.25,0.25,0.25h6.189L6.75,16.061V22.25z M17.25,16.189v-6.129L8.689,1.5H7c-0.138,0-0.25,0.112-0.25,0.25v3.939
		L17.25,16.189z M17.25,7.939V1.75c0-0.138-0.112-0.25-0.25-0.25h-6.189L17.25,7.939z"/>
</g>
</svg>
