<?xml version="1.0" encoding="utf-8"?>
<!-- Generator: Adobe Illustrator 22.1.0, SVG Export Plug-In . SVG Version: 6.00 Build 0)  -->
<svg version="1.1" id="Layer_1" xmlns="http://www.w3.org/2000/svg" xmlns:xlink="http://www.w3.org/1999/xlink" x="0px" y="0px"
	 viewBox="0 0 24 24" style="enable-background:new 0 0 24 24;" xml:space="preserve">
<title>road-sign-u-turn-right</title>
<g>
	<path d="M12,24C5.383,24,0,18.617,0,12C0,5.383,5.383,0,12,0c6.617,0,12,5.383,12,12C24,18.617,18.617,24,12,24z M12,1.5
		C6.21,1.5,1.5,6.21,1.5,12c0,5.79,4.71,10.5,10.5,10.5c5.79,0,10.5-4.71,10.5-10.5C22.5,6.21,17.79,1.5,12,1.5z"/>
	<path d="M8.25,17.25c-0.414,0-0.75-0.336-0.75-0.75v-5.25c0-2.481,2.019-4.5,4.5-4.5c2.481,0,4.5,2.019,4.5,4.5v1.189l0.97-0.97
		c0.142-0.142,0.33-0.22,0.53-0.22s0.389,0.078,0.53,0.22c0.142,0.141,0.22,0.33,0.22,0.53s-0.078,0.389-0.22,0.531l-2.25,2.25
		c-0.07,0.07-0.152,0.125-0.245,0.163c-0.008,0.003-0.017,0.007-0.026,0.01C15.928,14.984,15.839,15,15.75,15
		c-0.087,0-0.174-0.016-0.258-0.046c-0.006-0.002-0.011-0.004-0.017-0.006c-0.104-0.042-0.186-0.097-0.256-0.167l-2.25-2.25
		c-0.142-0.142-0.22-0.33-0.22-0.53s0.078-0.389,0.22-0.53s0.33-0.22,0.53-0.22s0.389,0.078,0.53,0.22l0.97,0.97V11.25
		c0-1.654-1.346-3-3-3c-1.654,0-3,1.346-3,3v5.25C9,16.914,8.664,17.25,8.25,17.25z"/>
</g>
</svg>
