<?xml version="1.0" encoding="utf-8"?>
<!-- Generator: Adobe Illustrator 22.1.0, SVG Export Plug-In . SVG Version: 6.00 Build 0)  -->
<svg version="1.1" id="Layer_1" xmlns="http://www.w3.org/2000/svg" xmlns:xlink="http://www.w3.org/1999/xlink" x="0px" y="0px"
	 viewBox="0 0 24 24" style="enable-background:new 0 0 24 24;" xml:space="preserve">
<title>road-sign-oneway-right</title>
<g>
	<path d="M12,22.5c-0.414,0-0.75-0.336-0.75-0.75V15h-9.5C0.785,15,0,14.215,0,13.25v-10C0,2.285,0.785,1.5,1.75,1.5h20.5
		C23.215,1.5,24,2.285,24,3.25v10c0,0.965-0.785,1.75-1.75,1.75h-9.5v6.75C12.75,22.164,12.414,22.5,12,22.5z M1.75,3
		C1.612,3,1.5,3.112,1.5,3.25v10c0,0.138,0.112,0.25,0.25,0.25h20.5c0.138,0,0.25-0.112,0.25-0.25v-10C22.5,3.112,22.388,3,22.25,3
		H1.75z"/>
	<path d="M16.5,11.25c-0.2,0-0.389-0.078-0.53-0.22c-0.142-0.141-0.22-0.33-0.22-0.53s0.078-0.389,0.22-0.53L16.939,9H4.5
		C4.086,9,3.75,8.664,3.75,8.25S4.086,7.5,4.5,7.5h12.439l-0.97-0.97C15.828,6.389,15.75,6.2,15.75,6s0.078-0.389,0.22-0.53
		s0.33-0.22,0.53-0.22s0.389,0.078,0.53,0.22l2.25,2.25c0.07,0.07,0.125,0.152,0.163,0.245c0.003,0.008,0.007,0.017,0.01,0.026
		C19.483,8.072,19.5,8.16,19.5,8.25c0,0.087-0.016,0.174-0.047,0.258c-0.002,0.006-0.004,0.011-0.006,0.016
		c-0.042,0.104-0.098,0.186-0.168,0.257L17.03,11.03C16.889,11.172,16.7,11.25,16.5,11.25z"/>
</g>
</svg>
