<?xml version="1.0" encoding="utf-8"?>
<!-- Generator: Adobe Illustrator 22.1.0, SVG Export Plug-In . SVG Version: 6.00 Build 0)  -->
<svg version="1.1" id="Layer_1" xmlns="http://www.w3.org/2000/svg" xmlns:xlink="http://www.w3.org/1999/xlink" x="0px" y="0px"
	 viewBox="0 0 24 24" style="enable-background:new 0 0 24 24;" xml:space="preserve">
<title>road-sign-hairpin-turn-left</title>
<g>
	<path d="M12.001,23.999c-0.443,0-0.859-0.172-1.172-0.485L0.487,13.172c-0.646-0.646-0.646-1.697,0-2.343L10.829,0.486
		c0.313-0.312,0.729-0.484,1.172-0.484c0.443,0,0.859,0.172,1.172,0.484l10.343,10.343c0.313,0.313,0.485,0.729,0.485,1.172
		c0,0.443-0.172,0.859-0.485,1.172L13.173,23.515C12.86,23.827,12.444,23.999,12.001,23.999z M12.001,1.5
		c-0.024,0-0.071,0.006-0.111,0.046L1.547,11.889c-0.061,0.061-0.061,0.161,0,0.222L11.89,22.454c0.04,0.04,0.087,0.046,0.111,0.046
		c0.024,0,0.071-0.006,0.11-0.046l10.343-10.344c0.03-0.03,0.046-0.068,0.046-0.111s-0.016-0.081-0.046-0.111L12.112,1.546
		C12.072,1.506,12.025,1.5,12.001,1.5z"/>
	<path d="M15.751,16.501c-0.414,0-0.75-0.336-0.75-0.75v-5.25c0-1.654-1.346-3-3-3s-3,1.346-3,3v1.189l0.97-0.97
		c0.142-0.142,0.33-0.22,0.53-0.22s0.389,0.078,0.53,0.22c0.142,0.141,0.22,0.33,0.22,0.53s-0.078,0.389-0.22,0.53l-2.25,2.25
		c-0.07,0.07-0.153,0.125-0.246,0.164c-0.008,0.003-0.017,0.007-0.026,0.01c-0.086,0.031-0.172,0.047-0.259,0.047
		c-0.088,0-0.175-0.016-0.26-0.047c-0.008-0.003-0.015-0.005-0.022-0.008c-0.096-0.039-0.179-0.094-0.249-0.165l-2.249-2.249
		c-0.142-0.141-0.22-0.33-0.22-0.53s0.078-0.389,0.22-0.53c0.141-0.142,0.33-0.22,0.53-0.22s0.389,0.078,0.53,0.22l0.97,0.97v-1.189
		c0-2.481,2.019-4.5,4.5-4.5s4.5,2.019,4.5,4.5v5.25C16.501,16.164,16.165,16.501,15.751,16.501z"/>
</g>
</svg>
