<?xml version="1.0" encoding="utf-8"?>
<!-- Generator: Adobe Illustrator 22.1.0, SVG Export Plug-In . SVG Version: 6.00 Build 0)  -->
<svg version="1.1" id="Layer_1" xmlns="http://www.w3.org/2000/svg" xmlns:xlink="http://www.w3.org/1999/xlink" x="0px" y="0px"
	 viewBox="0 0 24 24" style="enable-background:new 0 0 24 24;" xml:space="preserve">
<title>road-sign-bird-life</title>
<g>
	<path d="M12,24c-0.443,0-0.859-0.172-1.171-0.485L0.485,13.173C0.173,12.861,0.001,12.445,0,12.002
		c0-0.443,0.172-0.859,0.485-1.172L10.828,0.487c0.313-0.313,0.729-0.485,1.172-0.485s0.859,0.172,1.172,0.485l10.343,10.342
		c0.313,0.312,0.485,0.729,0.485,1.172s-0.172,0.859-0.485,1.172L13.172,23.516C12.859,23.828,12.443,24,12,24z M11.999,1.502
		c-0.024,0-0.071,0.006-0.111,0.046L1.546,11.891c-0.061,0.061-0.061,0.161,0,0.222l10.343,10.343
		c0.04,0.04,0.087,0.045,0.111,0.045s0.071-0.006,0.111-0.046l10.343-10.343c0.061-0.061,0.061-0.161,0-0.222L12.11,1.547
		C12.071,1.508,12.024,1.502,11.999,1.502z"/>
	<path d="M12,15.75c-2.19,0-4.076-1.622-4.437-3.75H5.25c-0.414,0-0.75-0.336-0.75-0.75s0.336-0.75,0.75-0.75h3
		C8.664,10.5,9,10.836,9,11.25c0,1.654,1.346,3,3,3s3-1.346,3-3c0-0.414,0.336-0.75,0.75-0.75h3c0.414,0,0.75,0.336,0.75,0.75
		S19.164,12,18.75,12h-2.313C16.076,14.129,14.19,15.75,12,15.75z"/>
</g>
</svg>
