<?xml version="1.0" encoding="utf-8"?>
<!-- Generator: Adobe Illustrator 22.1.0, SVG Export Plug-In . SVG Version: 6.00 Build 0)  -->
<svg version="1.1" id="Layer_1" xmlns="http://www.w3.org/2000/svg" xmlns:xlink="http://www.w3.org/1999/xlink" x="0px" y="0px"
	 viewBox="0 0 24 24" style="enable-background:new 0 0 24 24;" xml:space="preserve">
<title>road-sign-no-parking</title>
<g>
	<path d="M12,24c-3.174,0-6.166-1.231-8.43-3.468c-0.018-0.012-0.038-0.028-0.058-0.049C3.5,20.47,3.485,20.452,3.471,20.433
		C1.233,18.169,0,15.176,0,12c0-3.174,1.232-6.167,3.469-8.43c0.012-0.017,0.027-0.036,0.046-0.055
		c0.014-0.014,0.033-0.029,0.052-0.043C5.831,1.232,8.824,0,12,0c3.174,0,6.167,1.231,8.43,3.468
		c0.017,0.012,0.035,0.026,0.053,0.044c0.015,0.014,0.031,0.034,0.046,0.055C22.768,5.831,24,8.824,24,12
		c0,3.174-1.231,6.167-3.468,8.43c-0.012,0.017-0.027,0.036-0.047,0.055c-0.014,0.014-0.033,0.03-0.052,0.043
		C18.169,22.768,15.176,24,12,24z M5.13,19.931C7.042,21.591,9.466,22.5,12,22.5c2.534,0,4.958-0.909,6.87-2.569L12,13.061
		L5.13,19.931z M19.931,18.87c1.66-1.912,2.569-4.336,2.569-6.87c0-2.534-0.909-4.958-2.569-6.87L13.061,12L19.931,18.87z
		 M4.069,5.13C2.41,7.042,1.5,9.466,1.5,12s0.91,4.958,2.569,6.87l6.87-6.87L4.069,5.13z M12,10.939l6.87-6.87
		C16.958,2.41,14.534,1.5,12,1.5S7.042,2.41,5.13,4.069L12,10.939z"/>
</g>
</svg>
