<?xml version="1.0" encoding="utf-8"?>
<!-- Generator: Adobe Illustrator 22.1.0, SVG Export Plug-In . SVG Version: 6.00 Build 0)  -->
<svg version="1.1" id="Layer_1" xmlns="http://www.w3.org/2000/svg" xmlns:xlink="http://www.w3.org/1999/xlink" x="0px" y="0px"
	 viewBox="0 0 24 24" style="enable-background:new 0 0 24 24;" xml:space="preserve">
<title>road-sign-right-arrow</title>
<g>
	<path d="M5.5,24c-0.965,0-1.75-0.785-1.75-1.75V1.75C3.75,0.785,4.535,0,5.5,0h13c0.965,0,1.75,0.785,1.75,1.75v20.5
		c0,0.965-0.785,1.75-1.75,1.75H5.5z M5.25,22.25c0,0.138,0.112,0.25,0.25,0.25h13c0.138,0,0.25-0.112,0.25-0.25v-8.868l-13.5,8.775
		V22.25z M5.25,20.368L18.124,12L5.25,3.632V20.368z M18.75,10.618V1.75c0-0.138-0.112-0.25-0.25-0.25h-13
		c-0.138,0-0.25,0.112-0.25,0.25v0.093L18.75,10.618z"/>
</g>
</svg>
