<?xml version="1.0" encoding="utf-8"?>
<!-- Generator: Adobe Illustrator 22.1.0, SVG Export Plug-In . SVG Version: 6.00 Build 0)  -->
<svg version="1.1" id="Layer_1" xmlns="http://www.w3.org/2000/svg" xmlns:xlink="http://www.w3.org/1999/xlink" x="0px" y="0px"
	 viewBox="0 0 24 24" style="enable-background:new 0 0 24 24;" xml:space="preserve">
<title>road-sign-turn-left-1</title>
<g>
	<path d="M12.002,23.998c-0.485,0-0.94-0.188-1.282-0.53L0.532,13.281c-0.342-0.342-0.53-0.797-0.53-1.282s0.188-0.94,0.53-1.282
		L10.72,0.529c0.342-0.343,0.798-0.531,1.282-0.531s0.94,0.189,1.282,0.531l10.187,10.187c0.343,0.342,0.531,0.798,0.531,1.282
		c0,0.484-0.189,0.939-0.531,1.282L13.283,23.468C12.942,23.81,12.486,23.998,12.002,23.998z M12.002,1.498
		c-0.085,0-0.161,0.032-0.222,0.092L1.593,11.777c-0.122,0.122-0.122,0.321,0,0.443L11.78,22.407
		c0.059,0.059,0.138,0.091,0.222,0.091c0.084,0,0.162-0.032,0.221-0.091L22.41,12.22c0.06-0.06,0.092-0.137,0.092-0.221
		c0-0.085-0.032-0.161-0.092-0.221L12.223,1.59C12.163,1.53,12.086,1.498,12.002,1.498z"/>
	<path d="M15.001,17.249c-0.414,0-0.75-0.336-0.75-0.75v-3c0-1.241-1.009-2.25-2.25-2.25H9.312l0.97,0.97
		c0.292,0.292,0.292,0.768,0,1.061c-0.142,0.142-0.33,0.22-0.53,0.22s-0.389-0.078-0.53-0.22l-2.25-2.25
		c-0.07-0.07-0.125-0.152-0.163-0.245c-0.003-0.008-0.007-0.017-0.01-0.026c-0.032-0.086-0.047-0.172-0.047-0.26
		c0-0.089,0.016-0.176,0.048-0.261c0.002-0.007,0.005-0.014,0.008-0.021c0.04-0.097,0.095-0.179,0.166-0.249l2.249-2.249
		c0.142-0.142,0.33-0.22,0.53-0.22s0.389,0.078,0.53,0.22c0.142,0.141,0.22,0.33,0.22,0.53s-0.078,0.389-0.22,0.53l-0.97,0.97h2.689
		c2.068,0,3.75,1.682,3.75,3.75v3C15.751,16.912,15.415,17.249,15.001,17.249z"/>
</g>
</svg>
