<?xml version="1.0" encoding="utf-8"?>
<!-- Generator: Adobe Illustrator 22.1.0, SVG Export Plug-In . SVG Version: 6.00 Build 0)  -->
<svg version="1.1" id="Regular" xmlns="http://www.w3.org/2000/svg" xmlns:xlink="http://www.w3.org/1999/xlink" x="0px" y="0px"
	 viewBox="0 0 24 24" style="enable-background:new 0 0 24 24;" xml:space="preserve">
<title>rollerblades-person</title>
<g>
	<path d="M19.5,6.75c-1.861,0-3.375-1.514-3.375-3.375S17.639,0,19.5,0s3.375,1.514,3.375,3.375S21.361,6.75,19.5,6.75z M19.5,1.5
		c-1.034,0-1.875,0.841-1.875,1.875S18.466,5.25,19.5,5.25s1.875-0.841,1.875-1.875S20.534,1.5,19.5,1.5z"/>
	<path d="M1.125,14.625c-0.044,0-0.088-0.004-0.13-0.011c-0.513-0.06-0.923-0.47-0.983-0.982C0.004,13.588,0,13.544,0,13.5
		s0.004-0.088,0.011-0.131c0.06-0.513,0.47-0.922,0.983-0.983c0.042-0.007,0.086-0.011,0.13-0.011s0.088,0.004,0.13,0.011
		c0.513,0.061,0.923,0.47,0.983,0.983C2.246,13.412,2.25,13.456,2.25,13.5s-0.004,0.088-0.011,0.131
		c-0.06,0.513-0.47,0.922-0.983,0.982C1.213,14.621,1.169,14.625,1.125,14.625z"/>
	<path d="M1.125,17.625c-0.044,0-0.088-0.004-0.13-0.011c-0.513-0.06-0.923-0.47-0.983-0.982C0.004,16.588,0,16.544,0,16.5
		s0.004-0.088,0.011-0.131c0.06-0.513,0.47-0.922,0.983-0.983c0.042-0.007,0.086-0.011,0.13-0.011s0.088,0.004,0.13,0.011
		c0.513,0.061,0.923,0.47,0.983,0.983C2.246,16.412,2.25,16.456,2.25,16.5s-0.004,0.088-0.011,0.131
		c-0.06,0.513-0.47,0.922-0.983,0.982C1.213,17.621,1.169,17.625,1.125,17.625z"/>
	<path d="M1.125,20.625c-0.044,0-0.088-0.004-0.13-0.011c-0.513-0.06-0.923-0.47-0.983-0.982C0.004,19.588,0,19.544,0,19.5
		s0.004-0.088,0.011-0.131c0.06-0.513,0.47-0.922,0.983-0.983c0.042-0.007,0.086-0.011,0.13-0.011s0.088,0.004,0.13,0.011
		c0.513,0.061,0.923,0.47,0.983,0.983C2.246,19.412,2.25,19.456,2.25,19.5s-0.004,0.088-0.011,0.131
		c-0.06,0.513-0.47,0.922-0.983,0.982C1.213,20.621,1.169,20.625,1.125,20.625z"/>
	<path d="M12,24c-0.044,0-0.088-0.004-0.13-0.011c-0.513-0.06-0.923-0.47-0.983-0.982c-0.008-0.043-0.011-0.087-0.011-0.131
		s0.004-0.088,0.011-0.131c0.06-0.513,0.47-0.922,0.983-0.983c0.042-0.007,0.086-0.011,0.13-0.011s0.088,0.004,0.13,0.011
		c0.513,0.061,0.923,0.47,0.983,0.983c0.008,0.042,0.011,0.086,0.011,0.131s-0.004,0.088-0.011,0.131
		c-0.06,0.513-0.47,0.923-0.983,0.983C12.088,23.996,12.044,24,12,24z"/>
	<path d="M15,24c-0.044,0-0.088-0.004-0.13-0.011c-0.513-0.06-0.923-0.47-0.983-0.983c-0.007-0.042-0.011-0.086-0.011-0.13
		s0.004-0.088,0.011-0.131c0.06-0.513,0.47-0.923,0.983-0.983c0.042-0.008,0.086-0.011,0.131-0.011s0.088,0.004,0.131,0.011
		c0.513,0.06,0.923,0.47,0.983,0.983c0.008,0.042,0.011,0.086,0.011,0.131s-0.004,0.088-0.011,0.131
		c-0.06,0.513-0.47,0.923-0.983,0.983C15.088,23.996,15.044,24,15,24z"/>
	<path d="M18,24c-0.044,0-0.088-0.004-0.13-0.011c-0.513-0.06-0.923-0.47-0.983-0.983c-0.007-0.042-0.011-0.086-0.011-0.13
		s0.004-0.088,0.011-0.131c0.06-0.513,0.47-0.923,0.983-0.983c0.042-0.008,0.086-0.011,0.131-0.011s0.088,0.004,0.131,0.011
		c0.513,0.06,0.923,0.47,0.983,0.983c0.008,0.042,0.011,0.086,0.011,0.131s-0.004,0.088-0.011,0.131
		c-0.06,0.513-0.47,0.923-0.983,0.983C18.088,23.996,18.044,24,18,24z"/>
	<path d="M12,21c-0.414,0-0.75-0.336-0.75-0.75S11.586,19.5,12,19.5h0.75v-1.718c0-0.859-0.478-1.63-1.246-2.013l-0.207-0.104
		l-1.242,1.366c-0.992,1.091-2.406,1.718-3.88,1.719H4.5v0.75c0,0.414-0.336,0.75-0.75,0.75S3,19.914,3,19.5v-6
		c0-0.414,0.336-0.75,0.75-0.75S4.5,13.086,4.5,13.5v0.75h1.673c0.211,0,0.413-0.09,0.555-0.246l3.185-3.503H7.5
		C6.26,10.5,5.252,9.491,5.251,8.252c0-0.601,0.233-1.166,0.658-1.591c0.425-0.425,0.99-0.66,1.59-0.66h7.512
		c0.506,0.001,1.001,0.175,1.395,0.491l3.133,2.507h2.154c0.019-0.001,0.037-0.002,0.056-0.002c1.241,0,2.25,1.009,2.25,2.25
		c0,1.241-1.009,2.25-2.25,2.25h-2.474c-0.848,0-1.68-0.292-2.342-0.822l-1.689-1.35l-0.853,0.939
		c1.805,1.257,2.865,3.289,2.858,5.52V19.5H18c0.414,0,0.75,0.336,0.75,0.75S18.414,21,18,21H12z M15.75,19.5v-1.718
		c0.006-1.989-1.092-3.78-2.866-4.676c-0.208-0.105-0.357-0.304-0.399-0.533c-0.043-0.229,0.025-0.469,0.182-0.641l1.941-2.137
		c0.142-0.156,0.345-0.246,0.556-0.246c0.169,0,0.336,0.058,0.468,0.164l2.239,1.79c0.397,0.318,0.896,0.493,1.406,0.493h2.474
		c0.414,0,0.75-0.337,0.75-0.75c0-0.396-0.317-0.728-0.71-0.749c-0.013,0.001-0.026,0.001-0.04,0.001h-2.473
		c-0.169,0-0.336-0.058-0.468-0.164l-3.34-2.672c-0.13-0.104-0.292-0.161-0.459-0.162H7.5c-0.2,0-0.388,0.078-0.53,0.22
		c-0.141,0.142-0.219,0.33-0.219,0.531c0,0.413,0.337,0.749,0.75,0.75h4.109c0.297,0,0.566,0.175,0.686,0.447
		c0.12,0.271,0.069,0.588-0.131,0.808l-4.326,4.758c-0.425,0.468-1.032,0.737-1.665,0.737H4.5v1.5h1.674
		c1.053-0.001,2.063-0.448,2.771-1.227l1.624-1.786c0.141-0.156,0.344-0.246,0.555-0.246c0.115,0,0.231,0.027,0.335,0.079
		l0.715,0.357c1.28,0.638,2.076,1.924,2.077,3.354V19.5H15.75z"/>
</g>
</svg>
