<?xml version="1.0" encoding="utf-8"?>
<!-- Generator: Adobe Illustrator 22.1.0, SVG Export Plug-In . SVG Version: 6.00 Build 0)  -->
<svg version="1.1" id="Layer_1" xmlns="http://www.w3.org/2000/svg" xmlns:xlink="http://www.w3.org/1999/xlink" x="0px" y="0px"
	 viewBox="0 0 24 24" style="enable-background:new 0 0 24 24;" xml:space="preserve">
<title>room-service-give-plate</title>
<g>
	<path d="M0.75,24.004c-0.414,0-0.75-0.336-0.75-0.75v-9c0-0.414,0.336-0.75,0.75-0.75s0.75,0.336,0.75,0.75v0.75H6
		c1.8,0,3.324,1.268,3.675,3h3.075c2.068,0,3.75,1.682,3.75,3.75c0,0.414-0.336,0.75-0.75,0.75H1.5v0.75
		C1.5,23.667,1.164,24.004,0.75,24.004z M14.871,21.004c-0.313-0.879-1.159-1.5-2.121-1.5H6c-0.414,0-0.75-0.336-0.75-0.75
		s0.336-0.75,0.75-0.75h2.118c-0.313-0.879-1.158-1.5-2.118-1.5H1.5v4.5H14.871z"/>
	<path d="M11.25,15.004c-0.414,0-0.75-0.336-0.75-0.75s0.336-0.75,0.75-0.75h7.15c0.855-0.001,1.625-0.476,2.009-1.24l0.129-0.26
		H2.25c-0.414,0-0.75-0.336-0.75-0.75s0.336-0.75,0.75-0.75h0.781C3.397,5.746,7.242,1.901,12,1.535V0.754
		c0-0.414,0.336-0.75,0.75-0.75s0.75,0.336,0.75,0.75v0.781c4.758,0.367,8.603,4.211,8.969,8.969h0.781
		c0.414,0,0.75,0.336,0.75,0.75s-0.336,0.75-0.75,0.75h-1.036l-0.464,0.93c-0.641,1.276-1.924,2.069-3.35,2.07H11.25z
		 M20.966,10.504c-0.38-4.236-3.916-7.5-8.216-7.5c-4.3,0-7.837,3.264-8.216,7.5H20.966z"/>
</g>
</svg>
