<?xml version="1.0" encoding="utf-8"?>
<!-- Generator: Adobe Illustrator 22.1.0, SVG Export Plug-In . SVG Version: 6.00 Build 0)  -->
<svg version="1.1" id="Layer_1" xmlns="http://www.w3.org/2000/svg" xmlns:xlink="http://www.w3.org/1999/xlink" x="0px" y="0px"
	 viewBox="0 0 24 24" style="enable-background:new 0 0 24 24;" xml:space="preserve">
<title>room-service-clean</title>
<g>
	<path d="M8.25,24C7.009,24,6,22.991,6,21.75V16.5c0.002-3.306,2.694-5.996,6-5.996c2.481,0,4.5-2.019,4.5-4.5s-2.019-4.5-4.5-4.5
		C9.521,1.504,7.502,3.521,7.5,6c0,0.413-0.337,0.75-0.75,0.75c-0.201,0-0.389-0.078-0.531-0.22S6,6.2,6,6
		c0.002-3.306,2.694-5.996,6-5.996c3.306,0,5.997,2.689,6,5.994V21.75c0,1.241-1.009,2.25-2.25,2.25H8.25z M16.5,9.968
		c-1.129,1.277-2.767,2.036-4.5,2.036c-2.479,0-4.498,2.017-4.5,4.497v5.25c0,0.414,0.336,0.75,0.75,0.75h7.5
		c0.414,0,0.75-0.336,0.75-0.75V9.968z"/>
	<path d="M9.75,21.004c-0.414,0-0.75-0.336-0.75-0.75s0.336-0.75,0.75-0.75h4.5c0.414,0,0.75,0.336,0.75,0.75s-0.336,0.75-0.75,0.75
		H9.75z"/>
</g>
</svg>
