<?xml version="1.0" encoding="utf-8"?>
<!-- Generator: Adobe Illustrator 22.1.0, SVG Export Plug-In . SVG Version: 6.00 Build 0)  -->
<svg version="1.1" id="Layer_1" xmlns="http://www.w3.org/2000/svg" xmlns:xlink="http://www.w3.org/1999/xlink" x="0px" y="0px"
	 viewBox="0 0 24 24" style="enable-background:new 0 0 24 24;" xml:space="preserve">
<title>room-service-cart-1</title>
<g>
	<path d="M18.75,24c-1.653,0-2.998-1.344-3-2.996h-7.5C8.248,22.656,6.903,24,5.25,24s-2.998-1.344-3-2.996H1.5
		c-0.414,0-0.75-0.336-0.75-0.75s0.336-0.75,0.75-0.75h0.75V8.254c0-3.722,3.028-6.75,6.75-6.75h2.25v-0.75
		c0-0.414,0.336-0.75,0.75-0.75s0.75,0.336,0.75,0.75v0.75H15c3.722,0,6.75,3.028,6.75,6.75v11.25h0.75
		c0.414,0,0.75,0.336,0.75,0.75s-0.336,0.75-0.75,0.75h-0.75C21.748,22.656,20.403,24,18.75,24z M17.25,21.004
		c0.002,0.825,0.674,1.496,1.5,1.496s1.498-0.671,1.5-1.496H17.25z M3.75,21.004c0.002,0.825,0.674,1.496,1.5,1.496
		s1.498-0.671,1.5-1.496H3.75z M16.438,19.504c0.021-0.002,0.042-0.004,0.062-0.004h0.039c0.393-0.014,0.711-0.342,0.711-0.746v-6
		c0-0.414-0.336-0.75-0.75-0.75h-9c-0.414,0-0.75,0.336-0.75,0.75v6c0,0.404,0.318,0.732,0.724,0.746l0.026,0
		c0.021,0,0.042,0.001,0.062,0.004H16.438z M20.25,19.5V8.254c0-2.895-2.355-5.25-5.25-5.25h-2.25v1.5H15
		c0.414,0,0.75,0.336,0.75,0.75s-0.336,0.75-0.75,0.75H9c-0.414,0-0.75-0.336-0.75-0.75S8.586,4.504,9,4.504h2.25v-1.5H9
		c-2.895,0-5.25,2.355-5.25,5.25V19.5h1.628c-0.084-0.238-0.128-0.489-0.128-0.746v-6c0-1.241,1.009-2.25,2.25-2.25h0.75v-0.75
		c0-1.241,1.009-2.25,2.25-2.25h3c1.241,0,2.25,1.009,2.25,2.25v0.75h0.75c1.241,0,2.25,1.009,2.25,2.25v6
		c0,0.257-0.043,0.508-0.128,0.746H20.25z M14.25,10.504v-0.75c0-0.414-0.336-0.75-0.75-0.75h-3c-0.414,0-0.75,0.336-0.75,0.75v0.75
		H14.25z"/>
</g>
</svg>
