<?xml version="1.0" encoding="utf-8"?>
<!-- Generator: Adobe Illustrator 22.1.0, SVG Export Plug-In . SVG Version: 6.00 Build 0)  -->
<svg version="1.1" id="Layer_1" xmlns="http://www.w3.org/2000/svg" xmlns:xlink="http://www.w3.org/1999/xlink" x="0px" y="0px"
	 viewBox="0 0 24 24" style="enable-background:new 0 0 24 24;" xml:space="preserve">
<title>room-service-champagne</title>
<g>
	<path d="M4.5,6.941c-1.861,0-3.375-1.514-3.375-3.375S2.639,0.191,4.5,0.191s3.375,1.514,3.375,3.375S6.361,6.941,4.5,6.941z
		 M4.5,1.691c-1.034,0-1.875,0.841-1.875,1.875S3.466,5.441,4.5,5.441S6.375,4.6,6.375,3.566S5.534,1.691,4.5,1.691z"/>
	<path d="M4.5,23.816c-1.654,0-3-1.346-3-3v-3.128C0.615,17.374,0,16.526,0,15.566v-4.5c0-2.068,1.682-3.75,3.75-3.75h1.5
		c2.068,0,3.75,1.682,3.75,3.75c0,0.414,0.336,0.75,0.75,0.75h3c1.241,0,2.25,1.009,2.25,2.25s-1.009,2.25-2.25,2.25h-3
		c-0.414,0-0.75-0.336-0.75-0.75s0.336-0.75,0.75-0.75h3c0.414,0,0.75-0.336,0.75-0.75s-0.336-0.75-0.75-0.75h-3
		c-1.241,0-2.25-1.01-2.25-2.25s-1.009-2.25-2.25-2.25h-1.5c-1.241,0-2.25,1.009-2.25,2.25v4.5c0,0.414,0.336,0.75,0.75,0.75
		S3,16.653,3,17.066v3.75c0,0.827,0.673,1.5,1.5,1.5s1.5-0.673,1.5-1.5v-6c0-0.414,0.336-0.75,0.75-0.75s0.75,0.336,0.75,0.75v6
		C7.5,22.471,6.154,23.816,4.5,23.816z"/>
	<path d="M11.25,10.316c-0.414,0-0.75-0.336-0.75-0.75s0.336-0.75,0.75-0.75h2.25V7.187C12.615,6.874,12,6.026,12,5.066v-3
		c0-0.414,0.336-0.75,0.75-0.75h3c0.414,0,0.75,0.336,0.75,0.75v3c0,0.96-0.615,1.808-1.5,2.121v1.629h4.5V7.187
		C18.615,6.874,18,6.026,18,5.066v-3c0-0.414,0.336-0.75,0.75-0.75h3c0.414,0,0.75,0.336,0.75,0.75v3c0,0.96-0.615,1.808-1.5,2.121
		v1.629h2.25c0.414,0,0.75,0.336,0.75,0.75s-0.336,0.75-0.75,0.75H11.25z M19.5,5.066c0,0.414,0.336,0.75,0.75,0.75
		S21,5.48,21,5.066v-2.25h-1.5V5.066z M13.5,5.066c0,0.414,0.336,0.75,0.75,0.75S15,5.48,15,5.066v-2.25h-1.5V5.066z"/>
</g>
</svg>
