<?xml version="1.0" encoding="utf-8"?>
<!-- Generator: Adobe Illustrator 22.1.0, SVG Export Plug-In . SVG Version: 6.00 Build 0)  -->
<svg version="1.1" id="Regular" xmlns="http://www.w3.org/2000/svg" xmlns:xlink="http://www.w3.org/1999/xlink" x="0px" y="0px"
	 viewBox="0 0 24 24" style="enable-background:new 0 0 24 24;" xml:space="preserve">
<title>rooster-2</title>
<g>
	<path d="M13.5,23.261c-0.414,0-0.75-0.336-0.75-0.75s0.336-0.75,0.75-0.75h0.75v-2.287c-3.813-0.378-6.75-3.59-6.75-7.463
		c0-0.701-0.794-1.118-1.531-1.209c-0.105-0.013-0.213-0.02-0.319-0.02c-0.472,0-1.604,0.137-1.922,1.411
		C3.644,12.527,3.344,12.761,3,12.761c-0.061,0-0.122-0.008-0.181-0.022c-0.402-0.101-0.647-0.509-0.547-0.91
		c0.469-1.877,2.055-2.546,3.383-2.546c0.165,0,0.332,0.01,0.496,0.03C7.829,9.52,9,10.629,9,12.011c0,3.308,2.692,6,6,6
		c3.308,0,6-2.692,6-6v-3.75c0-1.241-1.009-2.25-2.25-2.25c-1.227,0-2.233,0.994-2.25,2.219c0.018,0.211,0.017,0.425-0.004,0.635
		c-0.175,1.801-1.671,3.159-3.48,3.159c-0.099,0-0.2-0.004-0.301-0.013H11.25c-0.202,0-0.399-0.084-0.54-0.229
		c-0.14-0.146-0.217-0.345-0.21-0.547c0.007-0.19,0.119-4.663-3.856-5.231C6.289,5.953,5.945,5.927,5.622,5.927
		c-3.542,0-4.11,3.079-4.132,3.21C1.427,9.498,1.117,9.761,0.751,9.761c-0.042,0-0.085-0.004-0.128-0.011
		C0.218,9.681-0.058,9.294,0.01,8.888c0.008-0.045,0.806-4.461,5.605-4.461c0.396,0,0.813,0.031,1.24,0.092
		c4.152,0.593,4.957,4.372,5.109,5.992h0.785c0.023,0,0.047,0.001,0.07,0.003c0.068,0.007,0.133,0.01,0.198,0.01
		c1.032,0,1.886-0.776,1.986-1.804c0.012-0.128,0.012-0.258,0-0.387C15.001,8.31,15,8.286,15,8.261c0-0.745,0.215-1.454,0.625-2.068
		c-0.771-0.792-1.375-1.541-1.375-2.432c-0.001-0.8,0.31-1.553,0.875-2.12c0.565-0.567,1.318-0.88,2.119-0.881
		c0.697,0,1.352,0.232,1.881,0.659c0.368-0.296,0.802-0.5,1.273-0.597c0.201-0.041,0.406-0.062,0.609-0.062
		c0.583,0,1.152,0.171,1.644,0.496c0.846,0.557,1.35,1.495,1.348,2.507c0,1.06-0.874,1.934-1.72,2.779l-0.135,0.135
		c0.168,0.359,0.279,0.743,0.327,1.135l0.442-0.221c0.104-0.052,0.22-0.079,0.335-0.079c0.286,0,0.543,0.159,0.671,0.415
		c0.185,0.37,0.034,0.821-0.335,1.006l-0.569,0.285l0.764,0.764c0.142,0.141,0.22,0.33,0.22,0.53s-0.078,0.389-0.22,0.53
		s-0.33,0.22-0.53,0.22s-0.389-0.078-0.53-0.22l-0.22-0.22v1.189c0,3.873-2.937,7.084-6.75,7.463v2.287h1.5
		c0.414,0,0.75,0.336,0.75,0.75s-0.336,0.75-0.75,0.75H13.5z M18.75,4.511c0.917,0,1.804,0.343,2.488,0.951
		C21.806,4.895,22.5,4.195,22.5,3.761c0-0.507-0.251-0.975-0.674-1.254c-0.246-0.162-0.53-0.248-0.821-0.248
		c-0.102,0-0.204,0.01-0.305,0.031c-0.392,0.081-0.729,0.309-0.949,0.643c-0.135,0.205-0.37,0.327-0.627,0.327
		s-0.491-0.122-0.626-0.326c-0.278-0.422-0.746-0.674-1.251-0.674c-0.402,0-0.778,0.157-1.061,0.44
		c-0.283,0.283-0.438,0.66-0.438,1.06c0,0.37,0.501,0.929,0.936,1.374C17.299,4.725,18.006,4.511,18.75,4.511z"/>
	<path d="M19.124,9.761c-0.014,0-0.037-0.002-0.054-0.004c-0.283-0.014-0.546-0.13-0.742-0.328c-0.2-0.201-0.316-0.469-0.325-0.755
		C18.001,8.661,18,8.647,18,8.636c0-0.031,0.003-0.06,0.007-0.089c0.033-0.526,0.448-0.961,0.987-1.025
		c0.043-0.008,0.087-0.011,0.131-0.011s0.088,0.004,0.131,0.011c0.513,0.06,0.922,0.47,0.983,0.983
		c0.007,0.042,0.011,0.086,0.011,0.131c-0.001,0.303-0.118,0.586-0.331,0.798c-0.212,0.211-0.493,0.327-0.792,0.327H19.124z"/>
	<path d="M14.213,16.51c-1.241-0.097-2.318-0.81-2.88-1.906c-0.091-0.178-0.108-0.382-0.046-0.572
		c0.062-0.191,0.193-0.346,0.372-0.438c0.105-0.054,0.224-0.083,0.342-0.083c0.283,0,0.539,0.156,0.668,0.408
		c0.32,0.624,0.926,1.032,1.624,1.093c0.004,0,0.042-0.001,0.042-0.001c0.388-0.009,0.748-0.168,1.016-0.448
		c0.268-0.28,0.41-0.647,0.401-1.035c-0.009-0.413,0.319-0.757,0.733-0.767c0.425,0.001,0.758,0.323,0.767,0.733
		c0.018,0.788-0.272,1.536-0.816,2.105c-0.544,0.57-1.278,0.894-2.066,0.912l-0.068,0C14.3,16.511,14.221,16.51,14.213,16.51z"/>
</g>
</svg>
