<?xml version="1.0" encoding="utf-8"?>
<!-- Generator: Adobe Illustrator 22.1.0, SVG Export Plug-In . SVG Version: 6.00 Build 0)  -->
<svg version="1.1" id="Regular" xmlns="http://www.w3.org/2000/svg" xmlns:xlink="http://www.w3.org/1999/xlink" x="0px" y="0px"
	 viewBox="0 0 24 24" style="enable-background:new 0 0 24 24;" xml:space="preserve">
<title>rooster</title>
<g>
	<path d="M15.135,24.012c-0.713,0-1.385-0.288-1.875-0.789c-0.49,0.5-1.162,0.789-1.875,0.789s-1.385-0.288-1.875-0.789
		c-0.49,0.5-1.162,0.789-1.875,0.789s-1.385-0.288-1.875-0.789c-0.49,0.5-1.162,0.789-1.875,0.789c-1.447,0-2.625-1.177-2.625-2.625
		v-8.625c0-2.146,0.813-4.159,2.297-5.704C3.213,6.52,2.018,4.545,2.01,3.028C2.001,2.916,2.002,2.779,2.012,2.645
		c0.057-0.76,0.405-1.451,0.982-1.948C3.511,0.252,4.17,0.006,4.851,0.006c0.066,0,0.132,0.002,0.198,0.007
		C5.901,0.017,6.7,0.389,7.261,1.029C7.826,0.392,8.647,0.012,9.51,0.012c0.862,0,1.684,0.38,2.249,1.017
		c0.55-0.626,1.335-0.997,2.188-1.015c0.011-0.001,0.073-0.003,0.077-0.002c0.057-0.003,0.114-0.005,0.171-0.005
		c0.061,0,0.123,0.002,0.183,0.007c0.758,0.056,1.45,0.405,1.947,0.982c0.468,0.544,0.711,1.237,0.687,1.956
		c0.002,0.019,0.003,0.038,0.003,0.057c0,1.524-1.207,3.514-1.551,4.051c0.969,1.011,1.662,2.243,2.019,3.59l3.688,1.58
		c0.76,0.326,1.114,1.21,0.788,1.97c-0.127,0.298-0.354,0.551-0.636,0.712l-1.118,0.639c0.753,0.653,2.055,2.058,2.055,3.961
		c0,1.236-0.704,2.266-1.884,2.754c-0.448,0.186-0.922,0.28-1.409,0.28c-0.471,0-0.935-0.092-1.365-0.267
		C17.235,23.307,16.264,24.012,15.135,24.012z M13.26,20.637c0.414,0,0.75,0.336,0.75,0.75c0,0.62,0.505,1.125,1.125,1.125
		s1.125-0.505,1.125-1.125v-8.625c0-3.722-3.028-6.75-6.75-6.75s-6.75,3.028-6.75,6.75v8.625c0,0.62,0.505,1.125,1.125,1.125
		s1.125-0.505,1.125-1.125c0-0.414,0.336-0.75,0.75-0.75s0.75,0.336,0.75,0.75c0,0.62,0.505,1.125,1.125,1.125
		s1.125-0.505,1.125-1.125c0-0.414,0.336-0.75,0.75-0.75s0.75,0.336,0.75,0.75c0,0.62,0.505,1.125,1.125,1.125
		s1.125-0.505,1.125-1.125C12.51,20.973,12.846,20.637,13.26,20.637z M17.76,20.659c0.34,0.244,0.777,0.382,1.225,0.382
		c0.286,0,0.561-0.054,0.817-0.16c0.617-0.256,0.958-0.742,0.958-1.369c0-1.804-1.899-3.114-1.918-3.127l-0.045-0.03l-1.037,0.593
		V20.659z M17.751,12.396c0.006,0.123,0.009,0.244,0.009,0.365v2.458l2.82-1.611L17.751,12.396z M9.51,4.512
		c1.746,0,3.4,0.535,4.808,1.551c0.437-0.719,1.167-2.1,1.194-3.002c-0.002-0.035-0.003-0.07,0-0.106
		c0.027-0.359-0.088-0.707-0.324-0.98c-0.235-0.273-0.563-0.438-0.923-0.465c-0.034-0.003-0.067-0.004-0.1-0.004
		c-0.033,0-0.067,0.001-0.1,0.004c-0.008,0.001-0.046,0.002-0.056,0.002c-0.827,0-1.5,0.673-1.5,1.5c0,0.414-0.336,0.75-0.75,0.75
		s-0.75-0.336-0.75-0.75c0-0.827-0.673-1.5-1.5-1.5s-1.5,0.673-1.5,1.5c0,0.414-0.336,0.75-0.75,0.75c-0.413,0-0.75-0.336-0.75-0.75
		c0-0.827-0.673-1.5-1.5-1.5c-0.018,0-0.035-0.001-0.053-0.002C4.919,1.507,4.884,1.506,4.849,1.506
		c-0.32,0-0.632,0.116-0.877,0.327C3.7,2.069,3.535,2.396,3.508,2.756c-0.005,0.067-0.005,0.134,0,0.2
		C3.509,2.977,3.51,2.994,3.51,3.012c0,0.9,0.747,2.315,1.194,3.05C6.111,5.046,7.764,4.512,9.51,4.512z"/>
	<path d="M13.635,12.762c-0.596-0.002-1.088-0.469-1.12-1.063c-0.002-0.009-0.005-0.035-0.005-0.062c0-0.031,0.003-0.06,0.007-0.089
		c0.033-0.526,0.448-0.961,0.987-1.025c0.043-0.008,0.087-0.011,0.131-0.011s0.088,0.004,0.131,0.011
		c0.513,0.06,0.922,0.47,0.983,0.983c0.007,0.042,0.011,0.086,0.011,0.131c-0.001,0.303-0.118,0.586-0.331,0.798
		C14.217,12.646,13.935,12.762,13.635,12.762L13.635,12.762z"/>
</g>
</svg>
