<?xml version="1.0" encoding="utf-8"?>
<!-- Generator: Adobe Illustrator 22.1.0, SVG Export Plug-In . SVG Version: 6.00 Build 0)  -->
<svg version="1.1" id="Layer_1" xmlns="http://www.w3.org/2000/svg" xmlns:xlink="http://www.w3.org/1999/xlink" x="0px" y="0px"
	 viewBox="0 0 24 24" style="enable-background:new 0 0 24 24;" xml:space="preserve">
<title>rotate-front</title>
<g>
	<path d="M21,10.513c-0.089,0-0.176-0.016-0.261-0.048c-0.011-0.004-0.022-0.008-0.032-0.012c-0.085-0.035-0.167-0.09-0.238-0.16
		l-2.25-2.25C18.078,7.902,18,7.714,18,7.513s0.078-0.389,0.22-0.53s0.33-0.22,0.53-0.22s0.389,0.078,0.53,0.22l0.968,0.968
		c-0.065-2.279-1.907-4.12-4.186-4.186l0.968,0.968c0.142,0.141,0.22,0.33,0.22,0.53s-0.078,0.389-0.22,0.53s-0.33,0.22-0.53,0.22
		s-0.389-0.078-0.53-0.22l-2.25-2.25c-0.07-0.07-0.125-0.152-0.163-0.245c-0.003-0.008-0.007-0.017-0.01-0.026
		c-0.031-0.081-0.047-0.17-0.047-0.26c0-0.087,0.016-0.174,0.047-0.258c0.002-0.006,0.004-0.011,0.006-0.016
		c0.042-0.104,0.098-0.186,0.168-0.257l2.249-2.249c0.142-0.142,0.33-0.22,0.53-0.22s0.389,0.078,0.53,0.22
		c0.142,0.141,0.22,0.33,0.22,0.53s-0.078,0.389-0.22,0.53l-0.971,0.971c3.108,0.065,5.625,2.581,5.689,5.689l0.971-0.971
		c0.142-0.142,0.33-0.22,0.53-0.22s0.389,0.078,0.53,0.22C23.922,7.124,24,7.313,24,7.513s-0.078,0.389-0.22,0.53l-2.25,2.25
		c-0.07,0.07-0.153,0.125-0.245,0.163c-0.007,0.003-0.016,0.006-0.024,0.009C21.18,10.496,21.091,10.513,21,10.513z"/>
	<path d="M7.752,24c-0.965,0-1.75-0.785-1.75-1.75v-5H1.75C0.785,17.25,0,16.465,0,15.5v-10c0-0.965,0.785-1.75,1.75-1.75H11
		c0.965,0,1.75,0.785,1.75,1.75v5h5.002c0.965,0,1.75,0.785,1.75,1.75v10c0,0.965-0.785,1.75-1.75,1.75H7.752z M7.502,22.25
		c0,0.138,0.112,0.25,0.25,0.25h10c0.138,0,0.25-0.112,0.25-0.25v-10c0-0.138-0.112-0.25-0.25-0.25H12.75v1.513h2.5
		c0.689,0,1.25,0.561,1.25,1.25v5c0,0.689-0.561,1.25-1.25,1.25h-5c-0.689,0-1.25-0.561-1.25-1.25V17.25H7.502V22.25z M15,19.513
		v-4.5h-2.25V15.5c0,0.965-0.785,1.75-1.75,1.75h-0.5v2.263H15z M1.75,5.25C1.612,5.25,1.5,5.362,1.5,5.5v10
		c0,0.138,0.112,0.25,0.25,0.25H11c0.138,0,0.25-0.112,0.25-0.25v-1.138c-0.004-0.032-0.007-0.065-0.007-0.099
		s0.003-0.066,0.007-0.099V5.5c0-0.138-0.112-0.25-0.25-0.25H1.75z"/>
</g>
</svg>
