<?xml version="1.0" encoding="utf-8"?>
<!-- Generator: Adobe Illustrator 22.1.0, SVG Export Plug-In . SVG Version: 6.00 Build 0)  -->
<svg version="1.1" id="Layer_1" xmlns="http://www.w3.org/2000/svg" xmlns:xlink="http://www.w3.org/1999/xlink" x="0px" y="0px"
	 viewBox="0 0 24 24" style="enable-background:new 0 0 24 24;" xml:space="preserve">
<title>rotate-forward</title>
<g>
	<path d="M20.716,16.5c-0.065,0-0.129-0.008-0.19-0.024c-0.191-0.049-0.354-0.172-0.456-0.344c-0.102-0.173-0.13-0.375-0.08-0.569
		c0.173-0.673,0.261-1.367,0.26-2.062c0-0.225-0.01-0.457-0.029-0.69c-0.033-0.412,0.275-0.775,0.687-0.808
		C20.93,12.001,20.948,12,20.965,12c0.39,0,0.72,0.303,0.751,0.689c0.022,0.272,0.033,0.545,0.033,0.81
		c0.001,0.822-0.103,1.642-0.308,2.437C21.357,16.268,21.059,16.5,20.716,16.5z"/>
	<path d="M20.123,10.371c-0.287,0-0.553-0.167-0.677-0.427c-0.3-0.627-0.678-1.214-1.126-1.747c-0.129-0.153-0.19-0.347-0.173-0.547
		c0.017-0.2,0.111-0.38,0.264-0.51c0.135-0.114,0.307-0.176,0.483-0.176c0.222,0,0.432,0.098,0.574,0.268
		c0.528,0.628,0.977,1.323,1.331,2.065c0.086,0.181,0.097,0.384,0.031,0.573s-0.203,0.341-0.384,0.427
		C20.345,10.346,20.236,10.371,20.123,10.371z"/>
	<path d="M16.572,22.004c-0.264,0-0.511-0.141-0.646-0.368c-0.21-0.357-0.092-0.817,0.264-1.028
		c0.599-0.354,1.152-0.782,1.643-1.274c0.163-0.164,0.32-0.334,0.467-0.507c0.142-0.168,0.351-0.266,0.573-0.266
		c0.177,0,0.35,0.063,0.485,0.179c0.152,0.128,0.245,0.31,0.262,0.51c0.017,0.199-0.046,0.394-0.175,0.547
		c-0.172,0.204-0.357,0.405-0.55,0.598c-0.579,0.581-1.232,1.087-1.941,1.506C16.837,21.968,16.706,22.004,16.572,22.004z"/>
	<path d="M12,23.25c-5.376,0-9.75-4.374-9.75-9.75S6.624,3.75,12,3.75h0.439l-1.72-1.72C10.578,1.889,10.5,1.7,10.5,1.5
		s0.078-0.389,0.22-0.53c0.141-0.142,0.33-0.22,0.53-0.22s0.389,0.078,0.53,0.22l3,3c0.07,0.07,0.125,0.152,0.163,0.245
		c0.003,0.008,0.007,0.017,0.01,0.026C14.984,4.322,15,4.411,15,4.5c0,0.087-0.016,0.174-0.047,0.258
		c-0.002,0.006-0.004,0.011-0.005,0.016c-0.043,0.104-0.098,0.187-0.168,0.257L11.78,8.03c-0.142,0.142-0.33,0.22-0.53,0.22
		s-0.389-0.078-0.53-0.22C10.578,7.889,10.5,7.7,10.5,7.5s0.078-0.389,0.22-0.53l1.72-1.72H12c-4.549,0-8.25,3.701-8.25,8.25
		s3.701,8.25,8.25,8.25c0.224,0,0.456-0.01,0.689-0.029c0.01-0.001,0.045-0.002,0.055-0.002c0.391,0,0.722,0.303,0.753,0.689
		c0.033,0.412-0.275,0.774-0.687,0.808C12.538,23.239,12.265,23.25,12,23.25z"/>
</g>
</svg>
