<?xml version="1.0" encoding="utf-8"?>
<!-- Generator: Adobe Illustrator 22.1.0, SVG Export Plug-In . SVG Version: 6.00 Build 0)  -->
<svg version="1.1" id="Layer_1" xmlns="http://www.w3.org/2000/svg" xmlns:xlink="http://www.w3.org/1999/xlink" x="0px" y="0px"
	 viewBox="0 0 24 24" style="enable-background:new 0 0 24 24;" xml:space="preserve">
<title>rotate-horizontal</title>
<g>
	<path d="M8.25,24C7.009,24,6,22.991,6,21.75C6,21.336,6.336,21,6.75,21s0.75,0.336,0.75,0.75s0.336,0.75,0.75,0.75
		S9,22.836,9,23.25S8.664,24,8.25,24z"/>
	<path d="M21.75,24C21.336,24,21,23.664,21,23.25s0.336-0.75,0.75-0.75s0.75-0.336,0.75-0.75S22.836,21,23.25,21S24,21.336,24,21.75
		C24,22.991,22.991,24,21.75,24z"/>
	<path d="M23.25,19.5c-0.414,0-0.75-0.336-0.75-0.75v-1.5c0-0.414,0.336-0.75,0.75-0.75S24,16.836,24,17.25v1.5
		C24,19.164,23.664,19.5,23.25,19.5z"/>
	<path d="M11.25,24c-0.414,0-0.75-0.336-0.75-0.75s0.336-0.75,0.75-0.75h2.25c0.414,0,0.75,0.336,0.75,0.75S13.914,24,13.5,24H11.25
		z"/>
	<path d="M16.5,24c-0.414,0-0.75-0.336-0.75-0.75s0.336-0.75,0.75-0.75h2.25c0.414,0,0.75,0.336,0.75,0.75S19.164,24,18.75,24H16.5z
		"/>
	<path d="M23.25,15c-0.414,0-0.75-0.336-0.75-0.75s-0.336-0.75-0.75-0.75S21,13.164,21,12.75S21.336,12,21.75,12
		c1.241,0,2.25,1.009,2.25,2.25C24,14.664,23.664,15,23.25,15z"/>
	<path d="M6.75,19.5C6.336,19.5,6,19.164,6,18.75V18H1.75C0.785,18,0,17.215,0,16.25V1.75C0,0.785,0.785,0,1.75,0h8.5
		C11.215,0,12,0.785,12,1.75V12h1.5c0.414,0,0.75,0.336,0.75,0.75s-0.336,0.75-0.75,0.75H12v2.75c0,0.965-0.785,1.75-1.75,1.75H7.5
		v0.75C7.5,19.164,7.164,19.5,6.75,19.5z M1.75,1.5C1.612,1.5,1.5,1.612,1.5,1.75v14.5c0,0.138,0.112,0.25,0.25,0.25h8.5
		c0.138,0,0.25-0.112,0.25-0.25V1.75c0-0.138-0.112-0.25-0.25-0.25H1.75z"/>
	<path d="M16.5,13.5c-0.414,0-0.75-0.336-0.75-0.75S16.086,12,16.5,12h2.25c0.414,0,0.75,0.336,0.75,0.75s-0.336,0.75-0.75,0.75
		H16.5z"/>
	<path d="M20.25,11.25c-0.041,0-0.081-0.003-0.12-0.01c-0.358-0.028-0.691-0.181-0.94-0.43L17.47,9.092
		c-0.142-0.142-0.22-0.33-0.22-0.53s0.078-0.389,0.22-0.53c0.142-0.142,0.33-0.22,0.53-0.22s0.388,0.078,0.53,0.219L19.5,9V6.75
		c0-1.241-1.009-2.25-2.25-2.25H15l0.969,0.97c0.142,0.142,0.22,0.33,0.22,0.53c0,0.2-0.078,0.389-0.22,0.53
		c-0.142,0.142-0.33,0.22-0.53,0.22s-0.389-0.078-0.53-0.22L13.19,4.81c-0.247-0.247-0.398-0.577-0.428-0.932
		C12.754,3.835,12.75,3.792,12.75,3.75c0-0.042,0.004-0.085,0.011-0.128c0.03-0.356,0.182-0.686,0.429-0.933l1.719-1.719
		c0.142-0.142,0.33-0.22,0.53-0.22s0.388,0.078,0.53,0.219c0.142,0.142,0.22,0.33,0.22,0.531c0,0.2-0.078,0.389-0.22,0.53L15,3h2.25
		C19.318,3,21,4.682,21,6.75V9l0.97-0.969c0.142-0.142,0.33-0.219,0.53-0.219c0.2,0,0.389,0.078,0.53,0.22
		c0.142,0.142,0.22,0.33,0.22,0.53s-0.078,0.389-0.22,0.53l-1.72,1.719c-0.249,0.248-0.581,0.4-0.938,0.429
		C20.333,11.246,20.292,11.25,20.25,11.25z"/>
</g>
</svg>
