<?xml version="1.0" encoding="utf-8"?>
<!-- Generator: Adobe Illustrator 22.1.0, SVG Export Plug-In . SVG Version: 6.00 Build 0)  -->
<svg version="1.1" id="Layer_1" xmlns="http://www.w3.org/2000/svg" xmlns:xlink="http://www.w3.org/1999/xlink" x="0px" y="0px"
	 viewBox="0 0 24 24" style="enable-background:new 0 0 24 24;" xml:space="preserve">
<title>rotate-vertical</title>
<g>
	<path d="M21.75,18C21.336,18,21,17.664,21,17.25s0.336-0.75,0.75-0.75s0.75-0.336,0.75-0.75S22.836,15,23.25,15S24,15.336,24,15.75
		C24,16.991,22.991,18,21.75,18z"/>
	<path d="M23.25,3c-0.414,0-0.75-0.336-0.75-0.75S22.164,1.5,21.75,1.5S21,1.164,21,0.75S21.336,0,21.75,0
		C22.991,0,24,1.009,24,2.25C24,2.664,23.664,3,23.25,3z"/>
	<path d="M1.75,24C0.785,24,0,23.215,0,22.25v-8.5C0,12.785,0.785,12,1.75,12H12v-1.5c0-0.414,0.336-0.75,0.75-0.75
		s0.75,0.336,0.75,0.75V12h2.75c0.965,0,1.75,0.785,1.75,1.75v2.75h0.75c0.414,0,0.75,0.336,0.75,0.75S19.164,18,18.75,18H18v4.25
		c0,0.965-0.785,1.75-1.75,1.75H1.75z M1.75,13.5c-0.138,0-0.25,0.112-0.25,0.25v8.5c0,0.138,0.112,0.25,0.25,0.25h14.5
		c0.138,0,0.25-0.112,0.25-0.25v-8.5c0-0.138-0.112-0.25-0.25-0.25H1.75z"/>
	<path d="M17.25,1.5c-0.414,0-0.75-0.336-0.75-0.75S16.836,0,17.25,0h1.5c0.414,0,0.75,0.336,0.75,0.75S19.164,1.5,18.75,1.5H17.25z
		"/>
	<path d="M23.25,13.5c-0.414,0-0.75-0.336-0.75-0.75V10.5c0-0.414,0.336-0.75,0.75-0.75S24,10.086,24,10.5v2.25
		C24,13.164,23.664,13.5,23.25,13.5z"/>
	<path d="M23.25,8.25c-0.414,0-0.75-0.336-0.75-0.75V5.25c0-0.414,0.336-0.75,0.75-0.75S24,4.836,24,5.25V7.5
		C24,7.914,23.664,8.25,23.25,8.25z"/>
	<path d="M12.75,3C12.336,3,12,2.664,12,2.25C12,1.009,13.009,0,14.25,0C14.664,0,15,0.336,15,0.75S14.664,1.5,14.25,1.5
		S13.5,1.836,13.5,2.25S13.164,3,12.75,3z"/>
	<path d="M12.75,8.25C12.336,8.25,12,7.914,12,7.5V5.25c0-0.414,0.336-0.75,0.75-0.75s0.75,0.336,0.75,0.75V7.5
		C13.5,7.914,13.164,8.25,12.75,8.25z"/>
	<path d="M3.75,11.25c-0.042,0-0.085-0.004-0.127-0.011c-0.356-0.03-0.686-0.182-0.933-0.429L0.97,9.092
		c-0.142-0.142-0.22-0.33-0.22-0.53c0-0.2,0.078-0.389,0.219-0.53C1.111,7.889,1.3,7.811,1.5,7.811c0.2,0,0.388,0.078,0.53,0.219
		L3,9V6.75C3,4.682,4.682,3,6.75,3H9L8.031,2.03c-0.292-0.293-0.292-0.768,0-1.061c0.142-0.142,0.33-0.22,0.53-0.22
		c0.2,0,0.389,0.078,0.53,0.22l1.719,1.72c0.247,0.247,0.398,0.577,0.428,0.932c0.007,0.043,0.011,0.085,0.011,0.128
		s-0.004,0.085-0.011,0.127c-0.03,0.356-0.182,0.687-0.429,0.933L9.092,6.53C8.95,6.672,8.761,6.75,8.561,6.75
		c-0.2,0-0.388-0.078-0.53-0.219c-0.293-0.293-0.293-0.768,0-1.061L9,4.5H6.75C5.509,4.5,4.5,5.509,4.5,6.75V9l0.97-0.969
		C5.612,7.889,5.8,7.811,6,7.811c0.2,0,0.389,0.078,0.53,0.22c0.142,0.142,0.219,0.33,0.219,0.53c0,0.2-0.078,0.389-0.22,0.53
		l-1.72,1.719c-0.248,0.247-0.578,0.398-0.933,0.428C3.834,11.246,3.792,11.25,3.75,11.25z"/>
</g>
</svg>
