<?xml version="1.0" encoding="utf-8"?>
<!-- Generator: Adobe Illustrator 22.1.0, SVG Export Plug-In . SVG Version: 6.00 Build 0)  -->
<svg version="1.1" id="Layer_1" xmlns="http://www.w3.org/2000/svg" xmlns:xlink="http://www.w3.org/1999/xlink" x="0px" y="0px"
	 viewBox="0 0 24 24" style="enable-background:new 0 0 24 24;" xml:space="preserve">
<title>rotate</title>
<g>
	<path d="M9.106,21.211c-0.467,0-0.907-0.182-1.237-0.513l-7.459-7.459c-0.682-0.682-0.682-1.792,0-2.475l7.459-7.459
		c0.33-0.33,0.77-0.512,1.237-0.512c0.468,0,0.907,0.182,1.237,0.512l7.459,7.459c0.682,0.682,0.682,1.792,0,2.475l-7.459,7.459
		C10.013,21.029,9.573,21.211,9.106,21.211z M9.106,4.293c-0.067,0-0.13,0.026-0.177,0.073L1.47,11.825
		c-0.097,0.098-0.097,0.256,0,0.354l7.459,7.459c0.043,0.043,0.107,0.067,0.177,0.067c0.07,0,0.134-0.024,0.177-0.067l7.46-7.459
		c0.097-0.098,0.097-0.256,0-0.354L9.283,4.365C9.236,4.318,9.173,4.293,9.106,4.293z"/>
	<path d="M18.856,20.251c-0.414,0-0.75-0.336-0.75-0.75v-3.75c0-0.414,0.336-0.75,0.75-0.75s0.75,0.336,0.75,0.75v1.795l1.216-1.349
		c2.36-2.362,2.366-6.175,0.027-8.514l-1.243-1.306v1.874c0,0.414-0.336,0.75-0.75,0.75s-0.75-0.336-0.75-0.75v-3.75
		c0-0.014,0.001-0.03,0.003-0.045c0.005-0.089,0.025-0.174,0.059-0.252c0.004-0.008,0.008-0.017,0.012-0.026
		c0.029-0.065,0.077-0.136,0.137-0.198c0.005-0.005,0.01-0.011,0.015-0.016c0.012-0.012,0.025-0.023,0.039-0.034
		c0.064-0.055,0.135-0.097,0.211-0.127c0.011-0.005,0.03-0.011,0.042-0.014c0.067-0.024,0.15-0.038,0.232-0.038h3.75
		c0.414,0,0.75,0.336,0.75,0.75s-0.336,0.75-0.75,0.75h-2.001l1.318,1.385c1.406,1.406,2.184,3.286,2.184,5.29
		c0,2.003-0.78,3.887-2.197,5.303l-1.37,1.522h2.067c0.414,0,0.75,0.336,0.75,0.75s-0.336,0.75-0.75,0.75H18.856z"/>
</g>
</svg>
