<?xml version="1.0" encoding="utf-8"?>
<!-- Generator: Adobe Illustrator 22.1.0, SVG Export Plug-In . SVG Version: 6.00 Build 0)  -->
<svg version="1.1" id="Layer_1" xmlns="http://www.w3.org/2000/svg" xmlns:xlink="http://www.w3.org/1999/xlink" x="0px" y="0px"
	 viewBox="0 0 24 24" style="enable-background:new 0 0 24 24;" xml:space="preserve">
<title>rotate-back</title>
<g>
	<path d="M3.284,16.5c-0.342,0-0.64-0.231-0.726-0.563c-0.205-0.796-0.309-1.616-0.308-2.438c0-0.263,0.011-0.535,0.033-0.81
		C2.315,12.303,2.643,12,3.031,12c0.02,0,0.04,0.001,0.061,0.002c0.413,0.034,0.721,0.396,0.687,0.808
		C3.76,13.044,3.75,13.276,3.75,13.5c-0.001,0.696,0.087,1.39,0.26,2.063c0.05,0.194,0.021,0.396-0.08,0.568
		c-0.102,0.173-0.265,0.295-0.459,0.345C3.412,16.492,3.349,16.5,3.284,16.5z"/>
	<path d="M3.877,10.371c-0.111,0-0.223-0.026-0.324-0.074c-0.18-0.086-0.316-0.238-0.383-0.427C3.103,9.682,3.114,9.478,3.2,9.297
		c0.354-0.741,0.802-1.436,1.332-2.065c0.143-0.17,0.353-0.267,0.574-0.267c0.176,0,0.347,0.062,0.482,0.175
		C5.905,7.407,5.946,7.881,5.68,8.198C5.232,8.73,4.854,9.317,4.553,9.944C4.43,10.204,4.164,10.371,3.877,10.371z"/>
	<path d="M7.428,22.004c-0.133,0-0.265-0.036-0.38-0.104c-0.708-0.417-1.361-0.924-1.942-1.506C4.912,20.201,4.727,20,4.555,19.796
		c-0.129-0.153-0.191-0.347-0.174-0.547c0.017-0.2,0.11-0.381,0.263-0.51c0.135-0.114,0.307-0.177,0.484-0.177
		c0.222,0,0.431,0.097,0.573,0.266c0.146,0.173,0.303,0.343,0.465,0.505c0.492,0.493,1.045,0.921,1.643,1.274
		c0.356,0.21,0.475,0.671,0.265,1.027C7.94,21.863,7.692,22.004,7.428,22.004z"/>
	<path d="M12,23.25c-0.265,0-0.538-0.011-0.811-0.033c-0.412-0.034-0.72-0.396-0.687-0.808c0.032-0.393,0.354-0.689,0.751-0.689
		c0.018,0,0.035,0.001,0.053,0.002c0.238,0.019,0.47,0.029,0.694,0.029c4.549,0,8.25-3.701,8.25-8.25S16.549,5.25,12,5.25h-0.439
		l1.72,1.72C13.422,7.111,13.5,7.3,13.5,7.5s-0.078,0.389-0.22,0.53s-0.33,0.22-0.53,0.22s-0.389-0.078-0.53-0.22l-3-3
		c-0.07-0.07-0.125-0.152-0.163-0.245C9.053,4.778,9.05,4.769,9.047,4.76C9.016,4.674,9,4.587,9,4.5
		c0-0.089,0.016-0.176,0.048-0.261c0.002-0.007,0.005-0.014,0.007-0.02c0.04-0.097,0.095-0.18,0.166-0.25L12.22,0.97
		c0.142-0.142,0.33-0.22,0.53-0.22s0.389,0.078,0.53,0.22C13.422,1.111,13.5,1.3,13.5,1.5s-0.078,0.389-0.22,0.53l-1.72,1.72H12
		c5.376,0,9.75,4.374,9.75,9.75S17.376,23.25,12,23.25z"/>
</g>
</svg>
