<?xml version="1.0" encoding="utf-8"?>
<!-- Generator: Adobe Illustrator 22.1.0, SVG Export Plug-In . SVG Version: 6.00 Build 0)  -->
<svg version="1.1" id="Layer_1" xmlns="http://www.w3.org/2000/svg" xmlns:xlink="http://www.w3.org/1999/xlink" x="0px" y="0px"
	 viewBox="0 0 24 24" style="enable-background:new 0 0 24 24;" xml:space="preserve">
<title>safety-do-not-touch-fire</title>
<g>
	<path d="M5.251,24c-0.414,0-0.75-0.336-0.75-0.75s0.336-0.75,0.75-0.75h10.5c0.414,0,0.75,0.336,0.75,0.75S16.164,24,15.751,24
		H5.251z"/>
	<path d="M6.751,21.75c-0.2,0-0.389-0.078-0.53-0.22l-0.544-0.544c-0.351-0.352-0.544-0.819-0.544-1.315
		c0-0.497,0.194-0.963,0.546-1.314c0.087-0.086,0.181-0.164,0.282-0.231c0.079-0.053,0.134-0.134,0.152-0.228
		c0.019-0.095,0-0.188-0.053-0.269c-0.013-0.02-0.028-0.038-0.045-0.055L5.47,17.03c-0.142-0.142-0.22-0.33-0.22-0.53
		s0.078-0.389,0.22-0.53c0.142-0.142,0.33-0.22,0.53-0.22s0.389,0.078,0.53,0.22l0.544,0.544c0.086,0.086,0.164,0.181,0.231,0.282
		c0.276,0.412,0.374,0.908,0.277,1.395s-0.378,0.907-0.791,1.183c-0.019,0.013-0.038,0.028-0.054,0.045
		c-0.069,0.069-0.105,0.156-0.105,0.254s0.036,0.185,0.105,0.254l0.544,0.544c0.142,0.142,0.22,0.33,0.22,0.53
		s-0.078,0.389-0.22,0.53C7.139,21.672,6.951,21.75,6.751,21.75z"/>
	<path d="M10.501,21.75c-0.2,0-0.389-0.078-0.53-0.22l-0.544-0.544c-0.351-0.352-0.544-0.819-0.544-1.315
		c0-0.497,0.194-0.963,0.546-1.314c0.087-0.086,0.181-0.164,0.282-0.231c0.079-0.053,0.134-0.134,0.152-0.228
		c0.019-0.095,0-0.188-0.053-0.269c-0.013-0.02-0.028-0.038-0.045-0.055L9.22,17.03c-0.142-0.142-0.22-0.33-0.22-0.53
		s0.078-0.389,0.22-0.53c0.142-0.142,0.33-0.22,0.53-0.22s0.389,0.078,0.53,0.22l0.544,0.544c0.086,0.086,0.164,0.181,0.231,0.282
		c0.276,0.412,0.374,0.908,0.277,1.395s-0.378,0.907-0.791,1.183c-0.019,0.013-0.038,0.028-0.054,0.045
		c-0.069,0.069-0.105,0.156-0.105,0.254s0.036,0.185,0.105,0.254l0.544,0.544c0.142,0.142,0.22,0.33,0.22,0.53
		s-0.078,0.389-0.22,0.53C10.889,21.672,10.701,21.75,10.501,21.75z"/>
	<path d="M14.251,21.75c-0.2,0-0.389-0.078-0.53-0.22l-0.544-0.544c-0.351-0.352-0.544-0.819-0.544-1.315
		c0-0.497,0.194-0.964,0.546-1.314c0.087-0.087,0.182-0.165,0.282-0.231c0.079-0.053,0.134-0.134,0.152-0.228
		c0.019-0.095,0-0.188-0.054-0.27c-0.013-0.019-0.028-0.037-0.044-0.054L12.97,17.03c-0.142-0.142-0.22-0.33-0.22-0.53
		s0.078-0.389,0.22-0.53s0.33-0.22,0.53-0.22s0.389,0.078,0.53,0.22l0.544,0.544c0.086,0.086,0.164,0.181,0.231,0.282
		c0.276,0.413,0.374,0.908,0.277,1.395c-0.097,0.487-0.378,0.907-0.791,1.183c-0.02,0.013-0.038,0.028-0.055,0.045
		c-0.068,0.068-0.105,0.158-0.105,0.254c0,0.097,0.036,0.185,0.105,0.253l0.544,0.544c0.142,0.142,0.22,0.33,0.22,0.53
		s-0.078,0.389-0.22,0.53S14.451,21.75,14.251,21.75z"/>
	<path d="M12.001,13.5c-1.208,0-2.196-0.957-2.248-2.152l-4.778,1.791c-0.36,0.228-0.774,0.348-1.201,0.348
		c-0.736,0-1.425-0.358-1.846-0.958c-0.699-0.997-0.484-2.353,0.487-3.087l5.316-3.66C8.803,5,10.141,4.567,11.49,4.567
		c0.674,0,1.339,0.105,1.977,0.313c0.062,0.019,0.134,0.03,0.206,0.03c0.25,0,0.491-0.128,0.629-0.333l3.092-4.266
		C17.534,0.116,17.761,0,18.001,0c0.159,0,0.311,0.049,0.44,0.143c0.335,0.243,0.41,0.713,0.167,1.047l-3.076,4.243
		c-0.398,0.597-1.115,0.975-1.861,0.975c-0.224,0-0.445-0.033-0.658-0.099c-0.495-0.161-1.006-0.242-1.523-0.242
		c-1.034,0-2.061,0.333-2.892,0.939l-5.305,3.652c-0.303,0.23-0.369,0.678-0.136,1.01c0.14,0.2,0.37,0.319,0.616,0.319
		c0.154,0,0.302-0.047,0.429-0.135c0.053-0.037,0.109-0.066,0.168-0.088l6.409-2.403C11.143,9.125,11.565,9,12.001,9h2.25
		c0.414,0,0.75,0.336,0.75,0.75s-0.336,0.75-0.75,0.75h-2.25c-0.414,0-0.75,0.336-0.75,0.75S11.587,12,12.001,12h3.188
		c1.923,0,3.689-1.048,4.61-2.736l2.794-5.123C22.723,3.9,22.976,3.75,23.251,3.75c0.125,0,0.249,0.032,0.359,0.092
		c0.175,0.095,0.303,0.254,0.36,0.446c0.057,0.192,0.035,0.395-0.061,0.571l-2.794,5.123c-1.184,2.17-3.454,3.518-5.926,3.518
		H12.001z"/>
	<path d="M4.501,5.25c-0.2,0-0.389-0.078-0.53-0.22L0.22,1.28c-0.142-0.141-0.22-0.33-0.22-0.53s0.078-0.389,0.22-0.53
		C0.362,0.078,0.55,0,0.751,0l0,0c0.2,0,0.389,0.078,0.53,0.22l3.75,3.75c0.142,0.141,0.22,0.33,0.22,0.53s-0.078,0.389-0.22,0.53
		C4.889,5.172,4.701,5.25,4.501,5.25z"/>
	<path d="M23.251,24c-0.2,0-0.389-0.078-0.53-0.22l-6-6c-0.292-0.292-0.292-0.768,0-1.061c0.142-0.142,0.33-0.22,0.53-0.22
		s0.389,0.078,0.53,0.22l6,6c0.292,0.292,0.292,0.768,0,1.061C23.639,23.922,23.451,24,23.251,24z"/>
</g>
</svg>
