<?xml version="1.0" encoding="utf-8"?>
<!-- Generator: Adobe Illustrator 22.1.0, SVG Export Plug-In . SVG Version: 6.00 Build 0)  -->
<svg version="1.1" id="Layer_1" xmlns="http://www.w3.org/2000/svg" xmlns:xlink="http://www.w3.org/1999/xlink" x="0px" y="0px"
	 viewBox="0 0 24 24" style="enable-background:new 0 0 24 24;" xml:space="preserve">
<title>safety-warning-sun</title>
<g>
	<path d="M0.75,24c-0.262,0-0.5-0.133-0.638-0.355c-0.138-0.223-0.15-0.496-0.033-0.73l11.25-22.5C11.457,0.159,11.714,0,12,0
		c0.286,0,0.543,0.159,0.671,0.415l11.25,22.5c0.117,0.234,0.105,0.507-0.032,0.729C23.752,23.864,23.508,24,23.25,24H0.75z
		 M22.037,22.5L12,2.427L1.964,22.5H22.037z"/>
	<path d="M12,13.5c-0.414,0-0.75-0.336-0.75-0.75v-1.5c0-0.414,0.336-0.75,0.75-0.75s0.75,0.336,0.75,0.75v1.5
		C12.75,13.164,12.414,13.5,12,13.5z"/>
	<path d="M9.879,14.379c-0.2,0-0.389-0.078-0.53-0.22l-1.061-1.061c-0.292-0.292-0.292-0.768,0-1.061
		c0.141-0.142,0.33-0.22,0.53-0.22l0,0c0.2,0,0.389,0.078,0.53,0.22l1.061,1.061c0.292,0.292,0.292,0.768,0,1.061
		C10.268,14.301,10.08,14.379,9.879,14.379z"/>
	<path d="M7.5,16.5c-0.414,0-0.75-0.336-0.75-0.75S7.086,15,7.5,15H9c0.414,0,0.75,0.336,0.75,0.75S9.414,16.5,9,16.5H7.5z"/>
	<path d="M8.818,19.682c-0.201,0-0.389-0.078-0.531-0.22c-0.292-0.292-0.292-0.768,0.001-1.06l1.061-1.06
		c0.142-0.142,0.33-0.219,0.53-0.219c0.201,0,0.389,0.078,0.531,0.22c0.292,0.292,0.292,0.768-0.001,1.06l-1.061,1.06
		C9.206,19.604,9.018,19.682,8.818,19.682z"/>
	<path d="M12,21c-0.414,0-0.75-0.336-0.75-0.75v-1.5c0-0.414,0.336-0.75,0.75-0.75s0.75,0.336,0.75,0.75v1.5
		C12.75,20.664,12.414,21,12,21z"/>
	<path d="M15.182,19.682c-0.2,0-0.388-0.078-0.53-0.219l-1.061-1.06c-0.292-0.292-0.292-0.768-0.001-1.061
		c0.142-0.142,0.331-0.22,0.531-0.22c0.2,0,0.388,0.078,0.53,0.219l1.061,1.06c0.292,0.292,0.292,0.768,0.001,1.061
		C15.571,19.604,15.382,19.682,15.182,19.682z"/>
	<path d="M15,16.5c-0.414,0-0.75-0.336-0.75-0.75S14.586,15,15,15h1.5c0.414,0,0.75,0.336,0.75,0.75s-0.336,0.75-0.75,0.75H15z"/>
	<path d="M14.121,14.379c-0.2,0-0.389-0.078-0.53-0.22s-0.22-0.33-0.22-0.53s0.078-0.389,0.22-0.53l1.061-1.061
		c0.142-0.142,0.33-0.22,0.53-0.22s0.389,0.078,0.53,0.22c0.292,0.292,0.292,0.768,0,1.061l-1.061,1.061
		C14.51,14.301,14.321,14.379,14.121,14.379z"/>
</g>
</svg>
