<?xml version="1.0" encoding="utf-8"?>
<!-- Generator: Adobe Illustrator 22.1.0, SVG Export Plug-In . SVG Version: 6.00 Build 0)  -->
<svg version="1.1" id="Layer_1" xmlns="http://www.w3.org/2000/svg" xmlns:xlink="http://www.w3.org/1999/xlink" x="0px" y="0px"
	 viewBox="0 0 24 24" style="enable-background:new 0 0 24 24;" xml:space="preserve">
<title>safety-warning-electricity</title>
<g>
	<path d="M0.75,24c-0.262,0-0.5-0.133-0.638-0.355c-0.138-0.223-0.15-0.496-0.033-0.73l11.25-22.5C11.457,0.159,11.714,0,12,0
		c0.286,0,0.543,0.159,0.671,0.415l11.25,22.5c0.117,0.234,0.105,0.507-0.032,0.729C23.752,23.864,23.508,24,23.25,24H0.75z
		 M22.037,22.5L12,2.427L1.964,22.5H22.037z"/>
	<path d="M10.5,21c-0.069,0-0.14-0.011-0.216-0.034c-0.018-0.006-0.036-0.012-0.054-0.019c-0.017-0.005-0.042-0.014-0.067-0.027
		c-0.036-0.018-0.072-0.041-0.106-0.066c-0.005-0.004-0.016-0.012-0.016-0.012c-0.056-0.044-0.106-0.096-0.151-0.159
		c-0.004-0.006-0.02-0.029-0.024-0.035c-0.034-0.055-0.061-0.113-0.08-0.174c-0.005-0.014-0.01-0.028-0.013-0.042l-0.75-3
		c-0.1-0.401,0.144-0.809,0.546-0.91C9.628,16.508,9.689,16.5,9.75,16.5c0.345,0,0.644,0.234,0.728,0.568l0.258,1.033L12.287,15
		H9.75c-0.253,0-0.487-0.126-0.626-0.337c-0.139-0.211-0.163-0.476-0.063-0.708l2.25-5.25c0.119-0.276,0.39-0.455,0.69-0.455
		c0.102,0,0.201,0.02,0.295,0.061c0.38,0.163,0.557,0.605,0.394,0.985L10.887,13.5H13.5c0.258,0,0.502,0.136,0.638,0.355
		c0.138,0.224,0.15,0.496,0.033,0.73L11.9,19.127l1.418-0.354c0.061-0.015,0.121-0.022,0.182-0.022c0.345,0,0.645,0.233,0.728,0.568
		c0.1,0.401-0.144,0.809-0.545,0.909l-3,0.75C10.622,20.992,10.561,21,10.5,21z"/>
</g>
</svg>
