<?xml version="1.0" encoding="utf-8"?>
<!-- Generator: Adobe Illustrator 22.1.0, SVG Export Plug-In . SVG Version: 6.00 Build 0)  -->
<svg version="1.1" id="Layer_1" xmlns="http://www.w3.org/2000/svg" xmlns:xlink="http://www.w3.org/1999/xlink" x="0px" y="0px"
	 viewBox="0 0 24 24" style="enable-background:new 0 0 24 24;" xml:space="preserve">
<title>safety-board</title>
<g>
	<path d="M2.5,24c-0.965,0-1.75-0.785-1.75-1.75v-8.5C0.75,12.785,1.535,12,2.5,12h2.75v-1.558c-2.55-0.368-4.5-2.584-4.5-5.192
		C0.75,2.355,3.105,0,6,0s5.25,2.355,5.25,5.25c0,2.607-1.95,4.824-4.5,5.192V12h10.5v-1.558c-2.55-0.368-4.5-2.584-4.5-5.192
		C12.75,2.355,15.105,0,18,0s5.25,2.355,5.25,5.25c0,2.607-1.95,4.824-4.5,5.192V12h2.75c0.965,0,1.75,0.785,1.75,1.75v8.5
		c0,0.965-0.785,1.75-1.75,1.75H2.5z M2.5,13.5c-0.138,0-0.25,0.112-0.25,0.25v8.5c0,0.138,0.112,0.25,0.25,0.25h19
		c0.138,0,0.25-0.112,0.25-0.25v-8.5c0-0.138-0.112-0.25-0.25-0.25H2.5z M6.75,8.923C8.221,8.625,9.375,7.471,9.673,6H6.75V8.923z
		 M2.327,6C2.625,7.471,3.779,8.625,5.25,8.923V6H2.327z M14.327,6c0.298,1.471,1.452,2.625,2.923,2.923V6H14.327z M18.75,8.923
		C20.221,8.625,21.375,7.471,21.673,6H18.75V8.923z M21.673,4.5c-0.298-1.471-1.452-2.625-2.923-2.923V4.5H21.673z M17.25,4.5V1.577
		c-1.471,0.298-2.625,1.452-2.923,2.923H17.25z M9.673,4.5C9.375,3.029,8.221,1.875,6.75,1.577V4.5H9.673z M5.25,4.5V1.577
		C3.779,1.875,2.625,3.029,2.327,4.5H5.25z"/>
	<path d="M4.5,18c-0.414,0-0.75-0.336-0.75-0.75v-1.5C3.75,15.336,4.086,15,4.5,15s0.75,0.336,0.75,0.75v1.5
		C5.25,17.664,4.914,18,4.5,18z"/>
	<path d="M7.5,18c-0.414,0-0.75-0.336-0.75-0.75v-1.5C6.75,15.336,7.086,15,7.5,15s0.75,0.336,0.75,0.75v1.5
		C8.25,17.664,7.914,18,7.5,18z"/>
	<circle cx="18.75" cy="19.5" r="1.125"/>
</g>
</svg>
