<?xml version="1.0" encoding="utf-8"?>
<!-- Generator: Adobe Illustrator 22.1.0, SVG Export Plug-In . SVG Version: 6.00 Build 0)  -->
<svg version="1.1" id="Layer_1" xmlns="http://www.w3.org/2000/svg" xmlns:xlink="http://www.w3.org/1999/xlink" x="0px" y="0px"
	 viewBox="0 0 24 24" style="enable-background:new 0 0 24 24;" xml:space="preserve">
<title>safety-fire-right</title>
<g>
	<path d="M0.75,16.5c-0.139,0-0.276-0.039-0.394-0.112c-0.249-0.153-0.386-0.44-0.35-0.731l0.257-2.058C0.59,10.977,2.83,9,5.472,9
		h3.666c0.746,0,1.466-0.218,2.084-0.63l1.111-0.743C12.457,7.544,12.601,7.5,12.75,7.5c0.139,0,0.275,0.039,0.394,0.112
		c0.249,0.154,0.387,0.441,0.35,0.732l-0.257,2.058C12.909,13.023,10.67,15,8.028,15c0,0-3.678,0-3.684,0
		c-0.738,0.003-1.452,0.22-2.066,0.63l-1.111,0.743C1.043,16.456,0.899,16.5,0.75,16.5z M5.472,10.5
		c-1.887,0-3.487,1.412-3.721,3.285l-0.055,0.44C2.503,13.75,3.417,13.5,4.358,13.5h3.669c1.888,0,3.488-1.412,3.722-3.285
		l0.055-0.44C10.997,10.25,10.083,10.5,9.142,10.5H5.472z"/>
	<path d="M0.75,24C0.336,24,0,23.663,0,23.25s0.336-0.75,0.75-0.75h0.704c2.504,0,4.715-1.516,5.644-3.776
		C5.902,19.233,4.605,19.5,3.3,19.5H0.75C0.336,19.5,0,19.163,0,18.75S0.336,18,0.75,18H3.3c1.62,0,3.19-0.475,4.538-1.374
		C7.961,16.544,8.105,16.5,8.254,16.5c0.139,0,0.276,0.039,0.394,0.112c0.249,0.154,0.386,0.441,0.35,0.731
		C8.524,21.138,5.283,24,1.458,24H0.75z"/>
	<path d="M0.75,7.5C0.336,7.5,0,7.163,0,6.75S0.336,6,0.75,6h0.7c2.504,0,4.715-1.516,5.644-3.776C5.9,2.733,4.604,2.999,3.3,3H0.75
		C0.336,3,0,2.663,0,2.25S0.336,1.5,0.75,1.5H3.3c1.619-0.001,3.187-0.476,4.534-1.374C7.957,0.044,8.101,0,8.25,0
		c0.139,0,0.276,0.039,0.394,0.112c0.249,0.154,0.387,0.441,0.35,0.731C8.52,4.638,5.279,7.5,1.454,7.5H0.75z"/>
	<path d="M20.25,7.5c-0.2,0-0.389-0.078-0.53-0.22c-0.142-0.141-0.22-0.33-0.22-0.53s0.078-0.389,0.22-0.53l1.72-1.72H16.5
		c-0.414,0-0.75-0.336-0.75-0.75S16.086,3,16.5,3h4.939l-1.72-1.72c-0.142-0.141-0.22-0.33-0.22-0.53s0.078-0.389,0.22-0.53
		S20.05,0,20.25,0s0.389,0.078,0.53,0.22l3,3c0.07,0.07,0.125,0.152,0.163,0.245c0.003,0.008,0.007,0.017,0.01,0.026
		C23.983,3.571,24,3.66,24,3.75c0,0.087-0.016,0.174-0.047,0.258c-0.002,0.006-0.004,0.011-0.006,0.016
		c-0.042,0.104-0.098,0.186-0.168,0.257L20.78,7.28C20.639,7.422,20.45,7.5,20.25,7.5z"/>
</g>
</svg>
