<?xml version="1.0" encoding="utf-8"?>
<!-- Generator: Adobe Illustrator 22.1.0, SVG Export Plug-In . SVG Version: 6.00 Build 0)  -->
<svg version="1.1" id="Layer_1" xmlns="http://www.w3.org/2000/svg" xmlns:xlink="http://www.w3.org/1999/xlink" x="0px" y="0px"
	 viewBox="0 0 24 24" style="enable-background:new 0 0 24 24;" xml:space="preserve">
<title>safety-flame-right</title>
<g>
	<path d="M9.987,24c-0.031,0-0.062-0.003-0.093-0.005l-0.035-0.002l-0.02,0.001c-0.028,0.001-0.056,0.002-0.085,0.002
		c-2.646,0-5.119-1.038-6.966-2.923c-3.274-3.343-3.71-8.555-1.036-12.395c0.14-0.201,0.37-0.321,0.615-0.321h0.315
		c0.229,0,0.443,0.103,0.586,0.281l1.315,1.644C4.95,8.264,4.727,6.15,3.938,4.253c-0.099-0.239-0.07-0.508,0.079-0.72
		c0.14-0.199,0.368-0.318,0.609-0.318c0.008,0,0.038,0.001,0.046,0.001c3.857,0.194,7.502,2.3,9.621,5.53l1.367-1.331
		c0.141-0.137,0.327-0.213,0.523-0.213c0.203,0,0.393,0.08,0.535,0.225c1.82,1.858,2.807,4.317,2.781,6.923
		c-0.027,2.607-1.065,5.045-2.922,6.865c-1.612,1.579-3.74,2.553-5.992,2.744C10.372,23.986,10.179,24,9.992,24c0,0,0,0,0,0
		C9.99,24,9.988,24,9.987,24z M9.336,13.545c-1.82,1.202-2.875,3.327-2.684,5.556c0.002,0.019,0.002,0.037,0.003,0.054
		c0.024,1.814,1.464,3.281,3.277,3.341c0.146-0.004,0.312-0.011,0.477-0.024c1.656-0.202,2.916-1.626,2.914-3.311
		c0.053-0.855-0.248-1.659-0.817-2.239c-0.439,0.591-1.14,0.954-1.893,0.954l0,0c-0.055,0-0.111-0.002-0.167-0.006
		c-0.25-0.018-0.473-0.158-0.597-0.375C9.156,16.285,8.982,14.867,9.336,13.545z M2.579,10.178
		c-1.791,3.161-1.287,7.223,1.281,9.845c0.567,0.579,1.201,1.063,1.893,1.446c-0.376-0.685-0.583-1.457-0.599-2.267
		c-0.3-3.658,2.058-6.985,5.61-7.913c0.062-0.016,0.126-0.025,0.19-0.025c0.258,0,0.495,0.13,0.634,0.349
		c0.175,0.277,0.152,0.632-0.059,0.883c-0.896,1.07-1.116,2.539-0.592,3.816c0.272-0.113,0.477-0.363,0.521-0.662
		c0.036-0.243,0.188-0.453,0.408-0.562c0.103-0.051,0.219-0.079,0.334-0.079c0.125,0,0.25,0.032,0.36,0.092
		c1.481,0.81,2.369,2.421,2.262,4.106c0.001,0.625-0.128,1.248-0.374,1.829c0.382-0.265,0.743-0.563,1.08-0.893
		c3.073-3.01,3.315-7.817,0.62-11.109l-1.486,1.448c-0.141,0.137-0.326,0.213-0.522,0.213c-0.039,0-0.077-0.003-0.116-0.009
		c-0.229-0.035-0.434-0.178-0.545-0.383c-1.595-2.933-4.46-4.945-7.741-5.469c0.718,2.381,0.691,4.959-0.085,7.326
		c-0.086,0.262-0.308,0.455-0.579,0.504c-0.044,0.008-0.09,0.012-0.135,0.012c-0.228,0-0.441-0.103-0.584-0.282L2.579,10.178z"/>
	<path d="M20.254,7.5c-0.2,0-0.389-0.078-0.53-0.22c-0.142-0.141-0.22-0.33-0.22-0.53s0.078-0.389,0.22-0.53l1.72-1.72h-4.939
		c-0.414,0-0.75-0.336-0.75-0.75S16.09,3,16.504,3h4.939l-1.72-1.72c-0.142-0.141-0.22-0.33-0.22-0.53s0.078-0.389,0.22-0.53
		S20.054,0,20.254,0s0.389,0.078,0.53,0.22l3,3c0.07,0.07,0.125,0.152,0.163,0.245c0.003,0.008,0.007,0.017,0.01,0.026
		c0.031,0.081,0.047,0.17,0.047,0.259c0,0.087-0.016,0.174-0.047,0.258c-0.002,0.006-0.004,0.011-0.006,0.016
		c-0.042,0.104-0.098,0.186-0.168,0.257L20.784,7.28C20.643,7.422,20.454,7.5,20.254,7.5z"/>
</g>
</svg>
