<?xml version="1.0" encoding="utf-8"?>
<!-- Generator: Adobe Illustrator 22.1.0, SVG Export Plug-In . SVG Version: 6.00 Build 0)  -->
<svg version="1.1" id="Layer_1" xmlns="http://www.w3.org/2000/svg" xmlns:xlink="http://www.w3.org/1999/xlink" x="0px" y="0px"
	 viewBox="0 0 24 24" style="enable-background:new 0 0 24 24;" xml:space="preserve">
<title>safety-warning-rocky-road</title>
<g>
	<path d="M2.386,24.001c-0.367,0-0.734-0.087-1.062-0.25c-1.178-0.587-1.658-2.023-1.071-3.2L9.868,1.318
		c0.229-0.457,0.607-0.834,1.062-1.062c0.335-0.168,0.694-0.254,1.068-0.254c0.91,0,1.728,0.504,2.135,1.315
		c0.001,0.002,9.617,19.232,9.617,19.232c0.164,0.329,0.25,0.696,0.251,1.062c0.001,1.316-1.068,2.388-2.383,2.389
		C21.618,24.001,2.386,24.001,2.386,24.001z M11.999,1.502c-0.138,0-0.271,0.032-0.396,0.094c-0.169,0.085-0.309,0.225-0.394,0.394
		L1.595,21.22c-0.218,0.437-0.039,0.969,0.398,1.187c0.121,0.061,0.258,0.093,0.395,0.093h19.229
		c0.488-0.001,0.885-0.399,0.884-0.887c0-0.136-0.032-0.273-0.093-0.394l-9.616-19.23C12.641,1.689,12.337,1.502,11.999,1.502z"/>
	<path d="M13.501,13.501c-1.241,0-2.25-1.01-2.25-2.25s1.009-2.25,2.25-2.25s2.25,1.009,2.25,2.25S14.742,13.501,13.501,13.501z
		 M13.501,10.501c-0.414,0-0.75,0.336-0.75,0.75s0.336,0.75,0.75,0.75s0.75-0.337,0.75-0.75S13.915,10.501,13.501,10.501z"/>
	<path d="M11.251,21.001c-0.081,0-0.161-0.013-0.238-0.039c-0.191-0.065-0.345-0.199-0.434-0.378
		c-0.089-0.179-0.103-0.383-0.039-0.573l0.462-1.371c0.09-0.269,0.02-0.563-0.182-0.765L9.752,16.81l-0.095,0.096L9.16,18.398
		c-0.191,0.571-0.591,1.033-1.129,1.301l-2.445,1.223c-0.104,0.052-0.22,0.079-0.335,0.079c-0.286,0-0.543-0.159-0.671-0.415
		c-0.09-0.179-0.104-0.382-0.041-0.572c0.063-0.19,0.197-0.344,0.376-0.434l2.445-1.223c0.177-0.088,0.314-0.246,0.376-0.433
		l0.553-1.659c0.037-0.11,0.099-0.211,0.181-0.293l2.29-2.29c-0.228-0.041-0.46-0.062-0.692-0.062c-1.049,0-2.039,0.413-2.787,1.162
		c-0.142,0.142-0.33,0.22-0.531,0.22c-0.2,0-0.388-0.078-0.53-0.219c-0.142-0.141-0.22-0.33-0.22-0.53s0.078-0.389,0.219-0.531
		c1.032-1.034,2.399-1.603,3.847-1.603c0.741,0,1.465,0.149,2.153,0.444c1.718,0.738,3.157,1.96,4.162,3.536
		c0.222,0.349,0.12,0.813-0.229,1.036c-0.121,0.077-0.26,0.118-0.403,0.118c-0.258,0-0.494-0.13-0.633-0.347
		c-0.703-1.102-1.675-2.01-2.823-2.637l-1.483,1.482l1.068,1.064c0.607,0.608,0.816,1.49,0.544,2.303l-0.463,1.373
		C11.859,20.796,11.573,21.001,11.251,21.001z"/>
	<path d="M15.751,21.001c-0.2,0-0.389-0.078-0.53-0.22l-0.22-0.22l-0.22,0.22c-0.142,0.142-0.33,0.22-0.53,0.22
		s-0.389-0.078-0.53-0.22c-0.292-0.292-0.292-0.768,0-1.061l0.75-0.75c0.142-0.142,0.33-0.22,0.53-0.22s0.389,0.078,0.53,0.22
		l0.75,0.75c0.292,0.292,0.292,0.768,0,1.061C16.14,20.923,15.951,21.001,15.751,21.001z"/>
</g>
</svg>
