<?xml version="1.0" encoding="utf-8"?>
<!-- Generator: Adobe Illustrator 22.1.0, SVG Export Plug-In . SVG Version: 6.00 Build 0)  -->
<svg version="1.1" id="Layer_1" xmlns="http://www.w3.org/2000/svg" xmlns:xlink="http://www.w3.org/1999/xlink" x="0px" y="0px"
	 viewBox="0 0 24 24" style="enable-background:new 0 0 24 24;" xml:space="preserve">
<title>safety-helmlet-mine-light</title>
<g>
	<path d="M5.382,21.689c-0.907,0-1.682-0.321-2.239-0.927C2.55,20.118,2.25,19.209,2.25,18.061v-2.25H1.5
		c-0.414,0-0.75-0.336-0.75-0.75v-3.75c0-4.963,4.037-9,9-9s9,4.037,9,9v3.75c0,0.414-0.336,0.75-0.75,0.75h-6.792
		c-0.167,1.504-0.835,2.921-1.905,4.021C8.171,20.995,6.706,21.689,5.382,21.689z M3.75,18.061c0,0.76,0.167,1.327,0.497,1.686
		c0.336,0.365,0.802,0.442,1.135,0.442c2.31,0,3.995-2.466,4.31-4.378H3.75V18.061z M17.25,14.311v-1.5h-15v1.5H17.25z
		 M17.25,11.311c0-4.135-3.365-7.5-7.5-7.5s-7.5,3.365-7.5,7.5H17.25z"/>
	<path d="M21.75,15.811c-2.068,0-3.75-1.682-3.75-3.75s1.682-3.75,3.75-3.75h0.75c0.414,0,0.75,0.336,0.75,0.75v6
		c0,0.414-0.336,0.75-0.75,0.75H21.75z M21.75,9.811c-1.241,0-2.25,1.009-2.25,2.25s1.009,2.25,2.25,2.25V9.811z"/>
</g>
</svg>
