<?xml version="1.0" encoding="utf-8"?>
<!-- Generator: Adobe Illustrator 22.1.0, SVG Export Plug-In . SVG Version: 6.00 Build 0)  -->
<svg version="1.1" id="Layer_1" xmlns="http://www.w3.org/2000/svg" xmlns:xlink="http://www.w3.org/1999/xlink" x="0px" y="0px"
	 viewBox="0 0 24 24" style="enable-background:new 0 0 24 24;" xml:space="preserve">
<title>safety-rocky-road</title>
<g>
	<path d="M15.721,6.776c-1.861,0-3.375-1.514-3.375-3.375s1.514-3.375,3.375-3.375s3.375,1.514,3.375,3.375
		S17.582,6.776,15.721,6.776z M15.721,1.526c-1.034,0-1.875,0.841-1.875,1.875s0.841,1.875,1.875,1.875s1.875-0.841,1.875-1.875
		S16.755,1.526,15.721,1.526z"/>
	<path d="M11.746,24.016c-0.152,0-0.305-0.016-0.455-0.046c-1.215-0.249-2.002-1.44-1.754-2.655c0.228-1.307,0.08-2.69-0.418-3.938
		c-1.1,0.926-2.3,1.734-3.571,2.405c-0.322,0.17-0.684,0.26-1.047,0.26c-0.839,0-1.603-0.46-1.994-1.2
		c-0.28-0.531-0.337-1.141-0.16-1.715c0.178-0.574,0.568-1.045,1.1-1.325c2.515-1.324,4.599-3.289,6.063-5.71
		c-0.605,0.151-1.13,0.548-1.436,1.11c-0.393,0.725-1.152,1.175-1.98,1.175c-0.372,0-0.742-0.094-1.07-0.272
		c-0.528-0.286-0.912-0.761-1.083-1.338c-0.171-0.577-0.107-1.185,0.179-1.713c1.184-2.174,3.463-3.524,5.947-3.524
		c1.114,0,2.222,0.281,3.205,0.814c2.285,1.233,3.856,3.407,4.309,5.965c0.079,0.445,0.351,0.825,0.747,1.043
		c1.105,0.599,1.51,1.967,0.919,3.058c-0.394,0.726-1.153,1.177-1.981,1.177c0,0,0,0,0,0c-0.372,0-0.742-0.094-1.07-0.272
		c-1.614-0.871-2.724-2.408-3.044-4.216c-0.015-0.086-0.033-0.172-0.054-0.257c-0.229,0.357-0.469,0.707-0.718,1.048
		c1.521,2.459,2.083,5.371,1.584,8.229c-0.002,0.019-0.01,0.06-0.018,0.102c-0.12,0.587-0.462,1.093-0.964,1.424
		C12.612,23.887,12.185,24.016,11.746,24.016z M9.366,15.405c0.038,0,0.076,0.003,0.114,0.009c0.231,0.036,0.427,0.173,0.54,0.375
		c0.985,1.758,1.337,3.82,0.99,5.805c-0.086,0.422,0.176,0.823,0.581,0.906c0.051,0.01,0.102,0.016,0.153,0.016
		c0.145,0,0.288-0.043,0.411-0.125c0.167-0.11,0.281-0.279,0.321-0.475l0.007-0.041c0.467-2.672-0.115-5.367-1.638-7.597
		c-0.184-0.27-0.173-0.624,0.026-0.882c0.615-0.795,1.169-1.645,1.648-2.526c0.128-0.246,0.368-0.401,0.633-0.414
		c0.006,0,0.035-0.001,0.042-0.001c0.252,0,0.485,0.127,0.624,0.339c0.407,0.621,0.68,1.307,0.811,2.039
		c0.24,1.355,1.071,2.506,2.281,3.159c0.113,0.062,0.233,0.092,0.358,0.092c0.072,0,0.144-0.01,0.214-0.031
		c0.192-0.057,0.351-0.186,0.446-0.362c0.193-0.357,0.065-0.808-0.287-1.009c-0.003-0.002-0.007-0.004-0.009-0.005
		c-0.813-0.438-1.369-1.207-1.529-2.111c-0.372-2.104-1.664-3.892-3.544-4.906c-0.765-0.414-1.627-0.633-2.493-0.633
		c-1.934,0-3.707,1.05-4.628,2.741c-0.095,0.175-0.116,0.378-0.059,0.57c0.057,0.192,0.185,0.35,0.361,0.446
		c0.111,0.06,0.231,0.091,0.356,0.091c0.276,0,0.53-0.15,0.661-0.392c0.659-1.209,1.923-1.96,3.299-1.96
		c0.304,0,0.608,0.037,0.904,0.111c0.224,0.056,0.413,0.215,0.506,0.426c0.093,0.21,0.083,0.457-0.027,0.66l-0.237,0.436
		c-1.615,2.981-4.054,5.392-7.055,6.971c-0.177,0.093-0.307,0.25-0.366,0.442c-0.059,0.191-0.04,0.395,0.053,0.572
		c0.13,0.247,0.385,0.4,0.665,0.4c0.122,0,0.24-0.029,0.348-0.087c1.455-0.768,2.803-1.726,4.007-2.847
		C8.994,15.477,9.176,15.405,9.366,15.405z"/>
	<path d="M20.998,23.975c-0.2,0-0.389-0.078-0.53-0.22l-1.72-1.72l-1.72,1.72c-0.142,0.142-0.33,0.22-0.53,0.22
		s-0.389-0.078-0.53-0.22c-0.292-0.292-0.292-0.768,0-1.061l2.25-2.25c0.142-0.142,0.33-0.22,0.53-0.22s0.389,0.078,0.53,0.22
		l2.25,2.25c0.292,0.292,0.292,0.768,0,1.061C21.387,23.897,21.199,23.975,20.998,23.975z"/>
</g>
</svg>
