<?xml version="1.0" encoding="utf-8"?>
<!-- Generator: Adobe Illustrator 22.1.0, SVG Export Plug-In . SVG Version: 6.00 Build 0)  -->
<svg version="1.1" id="Layer_1" xmlns="http://www.w3.org/2000/svg" xmlns:xlink="http://www.w3.org/1999/xlink" x="0px" y="0px"
	 viewBox="0 0 24 24" style="enable-background:new 0 0 24 24;" xml:space="preserve">
<title>safety-slippery</title>
<g>
	<path d="M18,7.878c-1.861,0-3.375-1.514-3.375-3.375S16.139,1.128,18,1.128s3.375,1.514,3.375,3.375S19.861,7.878,18,7.878z
		 M18,2.628c-1.034,0-1.875,0.841-1.875,1.875S16.966,6.378,18,6.378s1.875-0.841,1.875-1.875S19.034,2.628,18,2.628z"/>
	<path d="M8.249,20.251c-0.559,0-1.096-0.208-1.511-0.585c-0.445-0.404-0.706-0.958-0.734-1.558c-0.029-0.6,0.178-1.176,0.582-1.621
		l1.828-2.011l-1.265-0.158l-2.391,1.198c-0.315,0.158-0.653,0.238-1.004,0.238c0,0,0,0,0,0c-0.86,0-1.632-0.477-2.016-1.244
		c-0.269-0.538-0.312-1.148-0.122-1.718c0.19-0.57,0.591-1.032,1.129-1.301l3-1.5c0.32-0.157,0.659-0.236,1.009-0.236
		c0.091,0,0.182,0.005,0.273,0.016l4.901,0.613C9.623,8.228,8.518,5.022,9.03,1.886c0.188-1.087,1.121-1.874,2.22-1.874
		c0.118,0,0.238,0.01,0.355,0.028c1.225,0.198,2.061,1.355,1.863,2.579c-0.306,1.883,0.503,3.809,2.062,4.906l0.627,0.443
		c1.113,0.776,2.482,1.204,3.854,1.204c0.436,0,0.872-0.043,1.297-0.127c0.15-0.029,0.302-0.044,0.451-0.044
		c0.446,0,0.878,0.132,1.249,0.382c0.497,0.335,0.833,0.843,0.948,1.431c0.242,1.215-0.551,2.401-1.766,2.644
		c-0.696,0.139-1.429,0.211-2.179,0.215c-1.409,0-2.782-0.259-4.087-0.768l-6.009,6.608c-0.404,0.445-0.957,0.706-1.558,0.734
		C8.322,20.25,8.285,20.251,8.249,20.251z M7.015,12.796c0.031,0,0.062,0.002,0.093,0.006l2.925,0.366
		c0.279,0.035,0.513,0.22,0.61,0.484c0.098,0.264,0.041,0.557-0.149,0.765l-2.8,3.08c-0.135,0.148-0.204,0.34-0.194,0.54
		c0.01,0.2,0.097,0.385,0.245,0.52c0.139,0.126,0.316,0.195,0.499,0.195l0.04-0.001c0.202-0.01,0.386-0.096,0.521-0.245l6.365-7
		c0.141-0.156,0.344-0.245,0.555-0.245c0.106,0,0.209,0.022,0.306,0.065c1.26,0.563,2.599,0.848,3.979,0.849
		c0.648-0.002,1.283-0.065,1.886-0.185c0.196-0.039,0.365-0.153,0.477-0.32c0.11-0.165,0.15-0.362,0.113-0.556
		c-0.001-0.003-0.001-0.007-0.002-0.01c-0.038-0.195-0.149-0.363-0.314-0.474c-0.124-0.083-0.266-0.127-0.413-0.127
		c-0.048,0-0.096,0.005-0.144,0.014c-0.524,0.104-1.063,0.157-1.6,0.157c-1.677,0-3.352-0.524-4.716-1.475l-0.63-0.445
		c-2.025-1.425-3.077-3.927-2.679-6.372c0.032-0.197-0.016-0.395-0.133-0.557c-0.117-0.162-0.291-0.269-0.489-0.301
		c-0.04-0.006-0.079-0.01-0.118-0.01c-0.361,0-0.679,0.268-0.74,0.622c-0.479,2.934,0.696,5.879,3.068,7.681
		c0.167,0.127,0.274,0.319,0.293,0.528c0.019,0.21-0.051,0.419-0.192,0.574l-0.715,0.787c-0.142,0.156-0.344,0.246-0.555,0.246
		c-0.031,0-0.061-0.002-0.092-0.005L6.843,11.26c-0.028-0.003-0.059-0.005-0.089-0.005c-0.118,0-0.237,0.028-0.344,0.08
		l-2.995,1.498c-0.179,0.09-0.313,0.244-0.376,0.434c-0.063,0.19-0.049,0.394,0.041,0.573c0.128,0.256,0.386,0.415,0.673,0.415
		c0.116,0,0.229-0.027,0.333-0.079l2.594-1.3C6.782,12.823,6.899,12.796,7.015,12.796z"/>
	<path d="M0.75,24.003c-0.414,0-0.75-0.336-0.75-0.75s0.336-0.75,0.75-0.75h22.5c0.414,0,0.75,0.336,0.75,0.75
		s-0.336,0.75-0.75,0.75H0.75z"/>
</g>
</svg>
