<?xml version="1.0" encoding="utf-8"?>
<!-- Generator: Adobe Illustrator 22.1.0, SVG Export Plug-In . SVG Version: 6.00 Build 0)  -->
<svg version="1.1" id="Layer_1" xmlns="http://www.w3.org/2000/svg" xmlns:xlink="http://www.w3.org/1999/xlink" x="0px" y="0px"
	 viewBox="0 0 24 24" style="enable-background:new 0 0 24 24;" xml:space="preserve">
<title>safety-warning-radioactive</title>
<g>
	<path d="M12,24C5.383,24,0,18.617,0,12C0,5.383,5.383,0,12,0c6.617,0,12,5.383,12,12C24,18.617,18.617,24,12,24z M12,1.5
		C6.21,1.5,1.5,6.21,1.5,12c0,5.79,4.71,10.5,10.5,10.5c5.79,0,10.5-4.71,10.5-10.5C22.5,6.21,17.79,1.5,12,1.5z"/>
	<path d="M15.89,18.752c-0.782,0-1.558-0.209-2.243-0.604c-0.689-0.398-1.255-0.964-1.647-1.646
		c-0.393,0.683-0.958,1.248-1.646,1.646c-0.685,0.396-1.461,0.605-2.244,0.605c-0.389,0-0.779-0.051-1.158-0.152
		c-0.33-0.075-0.57-0.376-0.57-0.728c0-0.414,0.337-0.75,0.752-0.75c0.04,0,0.081,0.003,0.122,0.01
		c0.027,0.005,0.049,0.01,0.071,0.015c0.257,0.069,0.52,0.104,0.782,0.104c0.521,0,1.038-0.139,1.495-0.403
		c0.297-0.171,0.562-0.393,0.782-0.652C8.663,15.536,7.5,13.879,7.5,12c0-0.231,0.019-0.464,0.056-0.696
		c-1.119,0.21-2.051,1.05-2.351,2.17C5.118,13.801,4.82,14.03,4.481,14.03c-0.065,0-0.13-0.009-0.193-0.025
		c-0.401-0.108-0.639-0.52-0.532-0.919c0.526-1.964,2.314-3.335,4.348-3.335C7.71,9.07,7.502,8.299,7.502,7.505
		C7.501,6.303,7.969,5.173,8.818,4.322c0.073-0.073,0.169-0.11,0.265-0.11c0.095,0,0.19,0.036,0.263,0.108l0.534,0.527
		c0.071,0.07,0.111,0.166,0.112,0.266s-0.039,0.196-0.11,0.266C9.314,5.948,9.001,6.703,9.002,7.504
		c0,0.341,0.059,0.679,0.172,0.998C9.973,7.853,10.958,7.5,12,7.5c1.043,0,2.03,0.354,2.829,1.005
		c0.114-0.321,0.173-0.662,0.173-1.005c0-0.801-0.313-1.555-0.88-2.121c-0.293-0.292-0.293-0.768-0.001-1.061
		c0.142-0.142,0.33-0.22,0.531-0.22s0.389,0.078,0.53,0.22c0.85,0.849,1.319,1.979,1.32,3.181c0,0.796-0.207,1.568-0.601,2.25
		c0.001,0,0.003,0,0.004,0c0.783,0,1.558,0.208,2.241,0.602c1.038,0.599,1.782,1.566,2.094,2.722
		c0.103,0.34-0.058,0.713-0.386,0.877c-0.104,0.052-0.22,0.079-0.335,0.079l0,0c-0.286,0-0.543-0.159-0.671-0.415
		c-0.016-0.031-0.029-0.064-0.041-0.098c-0.003-0.008-0.012-0.037-0.014-0.045c-0.207-0.773-0.704-1.42-1.398-1.821
		c-0.296-0.171-0.619-0.289-0.953-0.351c0.038,0.234,0.057,0.468,0.057,0.7c0,1.879-1.163,3.536-2.886,4.196
		c0.221,0.26,0.486,0.481,0.783,0.652c0.457,0.264,0.974,0.404,1.494,0.404c0.262,0,0.526-0.035,0.782-0.104
		c0.065-0.017,0.129-0.025,0.193-0.025c0.34,0,0.639,0.228,0.726,0.555c0.107,0.399-0.131,0.811-0.53,0.918
		C16.678,18.699,16.283,18.752,15.89,18.752z M9.06,11.406C9.02,11.603,9,11.801,9,12c0,1.293,0.841,2.438,2.044,2.843
		c0.146-0.718,0.026-1.454-0.343-2.094C10.332,12.11,9.754,11.639,9.06,11.406z M14.94,11.406c-0.693,0.232-1.271,0.704-1.64,1.345
		c-0.369,0.64-0.489,1.376-0.344,2.092C14.159,14.438,15,13.293,15,12C15,11.801,14.98,11.602,14.94,11.406z M12.001,12.001
		C12.001,12.001,12.001,12,12.001,12.001C12.001,12.001,12.001,12.001,12.001,12.001z M10.019,9.754
		c0.547,0.483,1.244,0.747,1.983,0.747c0.738,0,1.434-0.263,1.981-0.745C13.436,9.272,12.731,9,12,9
		C11.27,9,10.566,9.271,10.019,9.754z"/>
</g>
</svg>
