<?xml version="1.0" encoding="utf-8"?>
<!-- Generator: Adobe Illustrator 22.1.0, SVG Export Plug-In . SVG Version: 6.00 Build 0)  -->
<svg version="1.1" id="Layer_1" xmlns="http://www.w3.org/2000/svg" xmlns:xlink="http://www.w3.org/1999/xlink" x="0px" y="0px"
	 viewBox="0 0 24 24" style="enable-background:new 0 0 24 24;" xml:space="preserve">
<title>safety-warning-slippery</title>
<g>
	<path d="M2.386,24.001c-0.367,0-0.734-0.087-1.062-0.25c-1.178-0.587-1.658-2.023-1.071-3.2L9.868,1.318
		c0.229-0.457,0.607-0.834,1.062-1.062c0.335-0.168,0.694-0.254,1.068-0.254c0.91,0,1.728,0.504,2.135,1.315
		c0.001,0.002,9.617,19.232,9.617,19.232c0.164,0.329,0.25,0.696,0.251,1.062c0.001,1.316-1.068,2.388-2.383,2.389
		C21.618,24.001,2.386,24.001,2.386,24.001z M11.999,1.502c-0.138,0-0.271,0.032-0.396,0.094c-0.169,0.085-0.309,0.225-0.394,0.394
		L1.595,21.22c-0.218,0.437-0.039,0.969,0.398,1.187c0.121,0.061,0.258,0.093,0.395,0.093h19.229
		c0.488-0.001,0.885-0.399,0.884-0.887c0-0.136-0.032-0.273-0.093-0.394l-9.616-19.23C12.641,1.689,12.337,1.502,11.999,1.502z"/>
	<path d="M5.251,21.001c-0.414,0-0.75-0.336-0.75-0.75s0.336-0.75,0.75-0.75h13.5c0.414,0,0.75,0.336,0.75,0.75
		s-0.336,0.75-0.75,0.75H5.251z"/>
	<path d="M13.501,13.501c-1.241,0-2.25-1.01-2.25-2.25s1.009-2.25,2.25-2.25s2.25,1.009,2.25,2.25S14.742,13.501,13.501,13.501z
		 M13.501,10.501c-0.414,0-0.75,0.336-0.75,0.75s0.336,0.75,0.75,0.75s0.75-0.337,0.75-0.75S13.915,10.501,13.501,10.501z"/>
	<path d="M9.751,18.751c-0.2,0-0.389-0.078-0.53-0.22c-0.142-0.142-0.22-0.33-0.22-0.53s0.078-0.389,0.22-0.53l0.477-0.477
		l-1.329-0.42l-1.951,1.301c-0.123,0.082-0.267,0.126-0.416,0.126c-0.252,0-0.485-0.125-0.624-0.334
		c-0.229-0.344-0.136-0.811,0.208-1.04l2.25-1.5c0.124-0.083,0.268-0.126,0.416-0.126c0.077,0,0.153,0.012,0.226,0.035l2.415,0.763
		l0.401-0.401c-1.335-0.675-2.361-1.793-2.922-3.195c-0.074-0.186-0.072-0.39,0.007-0.574c0.079-0.184,0.225-0.327,0.411-0.401
		c0.088-0.036,0.182-0.054,0.278-0.054c0.309,0,0.582,0.185,0.697,0.472c0.71,1.777,2.407,2.926,4.325,2.925
		c0.589,0,1.167-0.112,1.719-0.332c0.118-0.047,0.239-0.101,0.357-0.16C16.269,14.027,16.385,14,16.501,14
		c0.286,0,0.543,0.159,0.671,0.415c0.089,0.179,0.104,0.383,0.04,0.573c-0.063,0.19-0.197,0.344-0.376,0.433
		c-0.156,0.078-0.314,0.149-0.471,0.211c-0.729,0.291-1.494,0.439-2.274,0.439c-0.406,0-0.817-0.042-1.224-0.126l-2.586,2.586
		C10.14,18.673,9.951,18.751,9.751,18.751z"/>
</g>
</svg>
