<?xml version="1.0" encoding="utf-8"?>
<!-- Generator: Adobe Illustrator 22.1.0, SVG Export Plug-In . SVG Version: 6.00 Build 0)  -->
<svg version="1.1" id="Layer_1" xmlns="http://www.w3.org/2000/svg" xmlns:xlink="http://www.w3.org/1999/xlink" x="0px" y="0px"
	 viewBox="0 0 24 24" style="enable-background:new 0 0 24 24;" xml:space="preserve">
<title>safety-electricity-danger</title>
<g>
	<path d="M20.253,9.371c-1.861,0-3.375-1.514-3.375-3.375s1.514-3.375,3.375-3.375s3.375,1.514,3.375,3.375
		S22.114,9.371,20.253,9.371z M20.253,4.121c-1.034,0-1.875,0.841-1.875,1.875s0.841,1.875,1.875,1.875s1.875-0.841,1.875-1.875
		S21.287,4.121,20.253,4.121z"/>
	<path d="M3.786,23.956c-0.571,0-1.114-0.213-1.53-0.6c-0.44-0.41-0.694-0.966-0.715-1.566c-0.021-0.601,0.192-1.174,0.602-1.614
		l3.019-3.019c0.425-0.425,0.99-0.659,1.59-0.659h1.789l-0.765-1.723l-4.812,1.604c-0.022,0.009-0.075,0.027-0.129,0.042
		c-0.205,0.061-0.42,0.092-0.635,0.092c-0.372,0-0.743-0.095-1.073-0.275c-0.527-0.287-0.912-0.762-1.082-1.339
		c-0.17-0.576-0.106-1.185,0.182-1.713c0.287-0.528,0.763-0.912,1.339-1.082l1.234-0.412c0.077-0.026,0.157-0.039,0.238-0.039
		c0.323,0,0.609,0.206,0.711,0.513c0.063,0.19,0.049,0.393-0.041,0.572c-0.09,0.179-0.244,0.313-0.434,0.376l-1.259,0.42
		c-0.215,0.064-0.374,0.19-0.471,0.369c-0.096,0.176-0.117,0.379-0.061,0.571c0.057,0.192,0.185,0.351,0.361,0.446
		c0.112,0.061,0.232,0.092,0.357,0.092c0.072,0,0.144-0.01,0.215-0.031c0.018-0.005,5.532-1.844,5.532-1.844
		c0.076-0.026,0.156-0.039,0.237-0.039c0.296,0,0.565,0.175,0.685,0.446l1.51,3.4c0.103,0.232,0.082,0.499-0.057,0.713
		c-0.139,0.214-0.374,0.342-0.629,0.342H6.753c-0.201,0-0.389,0.078-0.531,0.219l-3,3c-0.119,0.129-0.189,0.321-0.182,0.519
		c0.007,0.2,0.092,0.385,0.239,0.522c0.138,0.129,0.32,0.2,0.511,0.2c0.192,0,0.373-0.071,0.512-0.2l2.542-2.543
		c0.142-0.142,0.33-0.22,0.53-0.22h3.668c1.759,0,3.392-0.874,4.368-2.338l2.1-3.152c0.136-0.205,0.365-0.33,0.611-0.334
		c0.265,0.008,0.485,0.122,0.622,0.312c1.084,1.51,1.856,3.191,2.295,4.997c0.048,0.167,0.177,0.325,0.349,0.421
		c0.112,0.062,0.237,0.095,0.363,0.095c0.07,0,0.14-0.01,0.208-0.029c0.193-0.055,0.353-0.182,0.45-0.357
		c0.097-0.175,0.121-0.378,0.066-0.571c-0.751-3.344-2.684-6.256-5.45-8.219l-0.175-0.117c-0.931-0.625-3.404-2.286-4.874-8.138
		c-0.006-0.024-0.01-0.043-0.013-0.062c-0.059-0.359-0.376-0.63-0.738-0.63c-0.04,0-0.081,0.003-0.122,0.01
		c-0.409,0.067-0.687,0.453-0.62,0.861c0.007,0.041,0.017,0.083,0.031,0.123c0.01,0.028,0.018,0.057,0.024,0.086
		c0.561,2.676,1.779,5.203,3.522,7.308c0.207,0.249,0.23,0.601,0.058,0.876l-2.111,3.377c-0.138,0.221-0.374,0.353-0.632,0.353
		c-0.021,0-0.041-0.001-0.062-0.002c-0.272-0.019-0.515-0.189-0.628-0.443l-0.991-2.23c-0.12-0.271-0.388-0.446-0.682-0.446
		c-0.081,0-0.162,0.013-0.241,0.04c-0.076,0.026-0.157,0.039-0.238,0.039c-0.323,0-0.608-0.206-0.711-0.513
		c-0.063-0.19-0.049-0.393,0.04-0.573c0.089-0.179,0.243-0.313,0.433-0.376C8.528,9.785,8.77,9.745,9.014,9.745
		c0.884,0,1.689,0.525,2.051,1.337l0.418,0.941l1.081-1.729c-1.707-2.191-2.91-4.775-3.485-7.491C9.045,2.7,9.019,2.594,9.002,2.487
		c-0.2-1.225,0.634-2.384,1.859-2.584c0.12-0.02,0.242-0.029,0.363-0.029c1.093,0,2.022,0.779,2.214,1.854
		c1.329,5.27,3.448,6.693,4.247,7.229l0.193,0.13c3.081,2.187,5.227,5.411,6.05,9.083c0.154,0.535,0.08,1.151-0.208,1.669
		c-0.292,0.526-0.771,0.906-1.35,1.071c-0.201,0.057-0.408,0.086-0.616,0.086c0,0,0,0,0,0c-1,0-1.891-0.671-2.166-1.633
		c-0.311-1.279-0.8-2.478-1.458-3.583l-1.471,2.208c-1.255,1.882-3.354,3.006-5.616,3.006H7.684l-2.341,2.341
		C4.912,23.74,4.362,23.956,3.786,23.956z"/>
	<path d="M6.003,11.996c-0.203,0-0.401-0.084-0.542-0.231l-5.14-5.36C0.118,6.201,0.003,5.921,0.003,5.62
		c0-0.301,0.118-0.583,0.33-0.795c0.212-0.212,0.494-0.328,0.793-0.329h1.126v-3.75c0-0.308,0.185-0.581,0.47-0.696
		c0.089-0.036,0.183-0.054,0.28-0.054c0.203,0,0.4,0.084,0.541,0.231l5.14,5.36C8.888,5.79,9.003,6.071,9.002,6.372
		c0,0.301-0.117,0.583-0.33,0.795C8.461,7.379,8.179,7.496,7.879,7.496H6.753v3.75c0,0.308-0.185,0.581-0.47,0.696
		C6.194,11.978,6.099,11.996,6.003,11.996z M5.253,9.38V6.746c0-0.414,0.336-0.75,0.75-0.75h0.996L3.753,2.611v2.635
		c0,0.414-0.336,0.75-0.75,0.75H2.007L5.253,9.38z"/>
</g>
</svg>
