<?xml version="1.0" encoding="utf-8"?>
<!-- Generator: Adobe Illustrator 22.1.0, SVG Export Plug-In . SVG Version: 6.00 Build 0)  -->
<svg version="1.1" id="Regular" xmlns="http://www.w3.org/2000/svg" xmlns:xlink="http://www.w3.org/1999/xlink" x="0px" y="0px"
	 viewBox="0 0 24 24" style="enable-background:new 0 0 24 24;" xml:space="preserve">
<title>sailing-boat-water-1</title>
<g>
	<path d="M22.563,24.043c-0.762,0-1.514-0.141-2.236-0.419c-0.08-0.011-0.157-0.034-0.228-0.07
		c-0.042-0.021-0.081-0.046-0.119-0.075c-0.43-0.196-0.833-0.436-1.201-0.716c-0.951,0.798-2.152,1.236-3.402,1.236
		c-1.245,0-2.432-0.428-3.378-1.212C11.051,23.571,9.86,24,8.621,24c-0.088,0-0.176-0.002-0.265-0.006
		c-1.157-0.059-2.258-0.494-3.135-1.231c-0.373,0.284-0.778,0.526-1.208,0.722c-0.036,0.027-0.072,0.05-0.11,0.069
		c-0.071,0.035-0.145,0.059-0.222,0.071c-0.72,0.278-1.476,0.419-2.248,0.419c-0.257,0-0.518-0.016-0.775-0.048
		c-0.41-0.051-0.703-0.426-0.652-0.836c0.047-0.375,0.366-0.658,0.744-0.658c0.03,0,0.061,0.002,0.092,0.006
		c0.196,0.024,0.395,0.037,0.592,0.037c0.36,0,0.716-0.041,1.064-0.121l-1.125-2.251c-0.37-0.74-0.068-1.643,0.672-2.012
		c0.207-0.103,0.439-0.158,0.67-0.158h8.536v-2.25h-9c-0.311,0-0.586-0.188-0.699-0.478s-0.038-0.614,0.191-0.824
		c2.496-2.294,4.478-7.999,5.926-12.165c0.219-0.63,0.427-1.23,0.626-1.785C8.4,0.201,8.684,0.001,9,0.001
		c2.068,0,3.75,1.682,3.75,3.75v14.25h8.536c0.827,0,1.5,0.673,1.5,1.5c0,0.231-0.055,0.463-0.158,0.67l-1.125,2.251
		c0.348,0.08,0.705,0.121,1.065,0.121c0.196,0,0.395-0.012,0.59-0.036c0.031-0.004,0.062-0.006,0.092-0.006
		c0.378,0,0.698,0.283,0.744,0.658c0.025,0.198-0.029,0.395-0.153,0.553c-0.123,0.158-0.301,0.259-0.5,0.283
		c-0.257,0.032-0.519,0.048-0.777,0.048H22.563z M5.283,21.002c0.195,0.007,0.389,0.097,0.524,0.247
		c0.68,0.752,1.612,1.196,2.624,1.247c0.072,0.004,0.141,0.006,0.211,0.006c0.93,0,1.828-0.348,2.527-0.979
		c0.096-0.086,0.188-0.178,0.274-0.274c0.142-0.157,0.345-0.247,0.557-0.247c0.212,0,0.415,0.09,0.557,0.248
		c0.717,0.794,1.745,1.25,2.82,1.25c0.942,0,1.845-0.347,2.543-0.977c0.095-0.086,0.188-0.178,0.274-0.274
		c0.135-0.15,0.329-0.24,0.531-0.247c0.004,0,0.029-0.001,0.033-0.001c0.188,0,0.375,0.077,0.513,0.211
		c0.255,0.245,0.536,0.461,0.839,0.644l1.177-2.355l-18.572,0l1.177,2.354c0.303-0.184,0.584-0.399,0.839-0.645
		c0.14-0.135,0.323-0.21,0.515-0.21C5.251,21.001,5.276,21.001,5.283,21.002z M11.25,14.251v-10.5c0-1.064-0.73-1.961-1.74-2.192
		c-0.136,0.386-0.276,0.79-0.421,1.208c-1.271,3.657-2.974,8.56-5.171,11.485H11.25z"/>
	<path d="M15.75,15.751c-0.414,0-0.75-0.336-0.75-0.75s0.336-0.75,0.75-0.75h4.684c-0.613-1.108-1.23-2.402-1.879-3.76
		c-1.331-2.787-2.706-5.669-4.068-6.943c-0.302-0.282-0.318-0.758-0.036-1.06C14.594,2.337,14.793,2.251,15,2.251
		c0.191,0,0.373,0.072,0.512,0.203c1.568,1.467,3.006,4.478,4.396,7.389c0.867,1.816,1.684,3.528,2.472,4.752
		c0.149,0.231,0.16,0.524,0.028,0.766c-0.131,0.241-0.384,0.39-0.658,0.39H15.75z"/>
</g>
</svg>
