<?xml version="1.0" encoding="utf-8"?>
<!-- Generator: Adobe Illustrator 22.1.0, SVG Export Plug-In . SVG Version: 6.00 Build 0)  -->
<svg version="1.1" id="Regular" xmlns="http://www.w3.org/2000/svg" xmlns:xlink="http://www.w3.org/1999/xlink" x="0px" y="0px"
	 viewBox="0 0 24 24" style="enable-background:new 0 0 24 24;" xml:space="preserve">
<title>sailing-boat-2</title>
<g>
	<path d="M9.75,23.25C7.682,23.25,6,21.568,6,19.5s1.682-3.75,3.75-3.75s3.75,1.682,3.75,3.75S11.818,23.25,9.75,23.25z M9.75,17.25
		c-1.241,0-2.25,1.009-2.25,2.25s1.009,2.25,2.25,2.25S12,20.741,12,19.5S10.991,17.25,9.75,17.25z"/>
	<path d="M2.25,23.25c-0.414,0-0.75-0.336-0.75-0.75v-3.75H0.75C0.336,18.75,0,18.414,0,18s0.336-0.75,0.75-0.75h3
		c0.414,0,0.75,0.336,0.75,0.75s-0.336,0.75-0.75,0.75H3v3.75C3,22.914,2.664,23.25,2.25,23.25z"/>
	<path d="M15.75,18.75C15.336,18.75,15,18.414,15,18s0.336-0.75,0.75-0.75h7.5c0.414,0,0.75,0.336,0.75,0.75s-0.336,0.75-0.75,0.75
		H15.75z"/>
	<path d="M10.745,14.25c-3.675,0-6.979-2.042-8.623-5.33C2.019,8.713,1.964,8.481,1.964,8.25c0-0.827,0.673-1.5,1.5-1.5h4.322
		l2.793-5.585c0.129-0.256,0.386-0.414,0.672-0.414c0.115,0,0.231,0.027,0.334,0.079c0.37,0.185,0.521,0.637,0.336,1.006L9.464,6.75
		H23.25C23.664,6.75,24,7.087,24,7.5s-0.336,0.75-0.75,0.75H3.464c1.387,2.776,4.177,4.5,7.281,4.5H23.25
		c0.414,0,0.75,0.336,0.75,0.75s-0.336,0.75-0.75,0.75H10.745z"/>
</g>
</svg>
