<?xml version="1.0" encoding="utf-8"?>
<!-- Generator: Adobe Illustrator 22.1.0, SVG Export Plug-In . SVG Version: 6.00 Build 0)  -->
<svg version="1.1" id="Regular" xmlns="http://www.w3.org/2000/svg" xmlns:xlink="http://www.w3.org/1999/xlink" x="0px" y="0px"
	 viewBox="0 0 24 24" style="enable-background:new 0 0 24 24;" xml:space="preserve">
<title>sailing-archor</title>
<g>
	<path d="M12,14.248c-3.308,0-6-2.692-6-6c0-0.414,0.336-0.75,0.75-0.75h1.5C8.664,7.498,9,7.834,9,8.248s-0.336,0.75-0.75,0.75
		H7.563c0.318,1.869,1.816,3.365,3.687,3.683V7.498H10.5c-0.414,0-0.75-0.336-0.75-0.75s0.336-0.75,0.75-0.75h0.75V4.369
		c-0.885-0.314-1.5-1.162-1.5-2.121c0-1.241,1.009-2.25,2.25-2.25c1.241,0,2.25,1.009,2.25,2.25c0,0.96-0.615,1.808-1.5,2.121v1.629
		h0.75c0.414,0,0.75,0.336,0.75,0.75s-0.336,0.75-0.75,0.75h-0.75v5.183c1.871-0.318,3.369-1.814,3.687-3.683H15.75
		c-0.414,0-0.75-0.336-0.75-0.75s0.336-0.75,0.75-0.75h1.5c0.414,0,0.75,0.336,0.75,0.75C18,11.556,15.308,14.248,12,14.248z
		 M12,1.498c-0.414,0-0.75,0.336-0.75,0.75s0.336,0.75,0.75,0.75s0.75-0.336,0.75-0.75S12.414,1.498,12,1.498z"/>
	<path d="M23.249,24.038c-1.399-0.002-2.744-0.55-3.748-1.515c-0.176,0.17-0.363,0.328-0.56,0.472
		c-0.931,0.682-2.032,1.042-3.185,1.042c-1.409,0-2.756-0.547-3.757-1.513c-0.176,0.169-0.362,0.327-0.559,0.471
		c-0.931,0.682-2.032,1.042-3.185,1.042c-1.409,0-2.758-0.547-3.758-1.514c-1.004,0.965-2.348,1.512-3.747,1.515
		c-0.414,0-0.75-0.336-0.751-0.749c0-0.2,0.077-0.389,0.219-0.531c0.141-0.142,0.33-0.22,0.53-0.22
		c1.237-0.002,2.414-0.598,3.147-1.595c0.141-0.191,0.367-0.305,0.604-0.305c0.239,0,0.464,0.115,0.605,0.307
		c0.731,0.998,1.909,1.593,3.151,1.593c0.832,0,1.627-0.26,2.299-0.752c0.322-0.236,0.605-0.519,0.841-0.841
		c0.141-0.192,0.367-0.307,0.605-0.307s0.464,0.115,0.605,0.307c0.616,0.84,1.521,1.39,2.551,1.549
		c0.199,0.031,0.402,0.046,0.602,0.046c0.828,0,1.623-0.261,2.296-0.755c0.323-0.237,0.605-0.519,0.841-0.84
		c0.141-0.192,0.366-0.306,0.604-0.307c0.239,0,0.465,0.114,0.605,0.305c0.734,0.996,1.91,1.593,3.147,1.594
		c0.413,0,0.749,0.337,0.749,0.751C24,23.702,23.663,24.038,23.249,24.038L23.249,24.038z"/>
	<path d="M8.261,19.391c-0.277,0-0.558-0.021-0.834-0.064c-1.124-0.173-2.129-0.673-2.93-1.452
		c-1.004,0.964-2.348,1.511-3.746,1.514c-0.414,0-0.751-0.336-0.751-0.749c-0.001-0.413,0.335-0.75,0.748-0.751
		c1.237-0.002,2.414-0.599,3.148-1.595c0.141-0.191,0.367-0.305,0.604-0.305c0.239,0,0.464,0.115,0.605,0.307
		c0.616,0.84,1.522,1.39,2.551,1.549c0.2,0.031,0.402,0.046,0.602,0.046c0.829,0,1.623-0.261,2.296-0.755
		c0.322-0.236,0.605-0.519,0.841-0.841c0.141-0.192,0.367-0.307,0.605-0.307s0.464,0.115,0.605,0.307
		c0.615,0.84,1.521,1.39,2.551,1.549c0.199,0.031,0.402,0.046,0.602,0.046c0.829,0,1.623-0.261,2.297-0.755
		c0.322-0.236,0.605-0.519,0.841-0.841c0.141-0.192,0.366-0.306,0.604-0.307c0.238,0,0.464,0.114,0.605,0.305
		c0.734,0.997,1.91,1.593,3.148,1.595c0.2,0,0.388,0.079,0.53,0.221C23.923,18.252,24,18.44,24,18.641
		c-0.001,0.413-0.337,0.748-0.75,0.748c-1.4-0.003-2.745-0.551-3.748-1.515c-0.176,0.17-0.364,0.328-0.561,0.472
		c-0.933,0.684-2.033,1.045-3.18,1.045c-0.277,0-0.557-0.021-0.833-0.064c-1.123-0.173-2.127-0.672-2.928-1.451
		c-0.175,0.169-0.362,0.326-0.558,0.47C10.508,19.03,9.408,19.391,8.261,19.391z"/>
</g>
</svg>
