<?xml version="1.0" encoding="utf-8"?>
<!-- Generator: Adobe Illustrator 22.1.0, SVG Export Plug-In . SVG Version: 6.00 Build 0)  -->
<svg version="1.1" id="Layer_1" xmlns="http://www.w3.org/2000/svg" xmlns:xlink="http://www.w3.org/1999/xlink" x="0px" y="0px"
	 viewBox="0 0 24 24" style="enable-background:new 0 0 24 24;" xml:space="preserve">
<title>sauna-heat-stone</title>
<g>
	<path d="M11.749,24.002c-6.729,0-12-2.908-12-6.62c0.032-1.119,0.469-2.167,1.228-2.964c0.141-0.148,0.339-0.232,0.543-0.232
		c0.194,0,0.378,0.074,0.518,0.208c0.144,0.138,0.227,0.324,0.232,0.524c0.005,0.2-0.069,0.39-0.207,0.535
		c-0.504,0.528-0.793,1.221-0.814,1.95c0,2.758,4.809,5.098,10.5,5.098c5.692,0,10.5-2.345,10.5-5.12
		c-0.021-0.712-0.31-1.402-0.814-1.93c-0.285-0.299-0.274-0.775,0.024-1.06c0.14-0.134,0.324-0.208,0.518-0.208
		c0.204,0,0.401,0.084,0.542,0.232c0.761,0.797,1.198,1.843,1.229,2.945c0,1.854-1.266,3.549-3.565,4.786
		C17.959,23.343,14.964,24.002,11.749,24.002z"/>
	<path d="M5.299,15.197c-0.219,0-0.427-0.095-0.569-0.261c-0.13-0.152-0.194-0.346-0.179-0.546s0.108-0.382,0.26-0.512
		c0.781-0.67,1.274-1.601,1.388-2.623c-0.011-0.825-0.378-1.703-0.767-2.632C4.998,7.584,4.549,6.511,4.549,5.375
		c0-0.026,0.001-0.052,0.004-0.078C4.698,3.877,5.376,2.581,6.461,1.65C6.597,1.533,6.77,1.469,6.949,1.469
		c0.219,0,0.427,0.095,0.569,0.262c0.269,0.314,0.233,0.788-0.081,1.058C6.656,3.459,6.164,4.39,6.05,5.412
		C6.06,6.237,6.427,7.114,6.816,8.043c0.434,1.038,0.883,2.112,0.883,3.249c0,0.026-0.001,0.052-0.004,0.078
		c-0.145,1.42-0.823,2.716-1.908,3.646C5.651,15.133,5.478,15.197,5.299,15.197z"/>
	<path d="M16.55,15.198c-0.219,0-0.427-0.095-0.569-0.261c-0.269-0.314-0.233-0.788,0.081-1.058
		c0.782-0.671,1.274-1.602,1.388-2.624c-0.011-0.825-0.378-1.703-0.767-2.632c-0.434-1.038-0.883-2.111-0.883-3.248
		c0-0.025,0.001-0.049,0.004-0.074c0.145-1.424,0.823-2.72,1.908-3.651c0.136-0.117,0.309-0.181,0.488-0.181
		c0.219,0,0.427,0.095,0.569,0.261c0.269,0.314,0.233,0.788-0.081,1.058c-0.781,0.67-1.274,1.602-1.388,2.624
		c0.011,0.825,0.378,1.703,0.767,2.632c0.434,1.038,0.883,2.111,0.883,3.248c0,0.025-0.001,0.049-0.004,0.074
		c-0.145,1.425-0.823,2.72-1.908,3.651C16.901,15.134,16.728,15.198,16.55,15.198z"/>
	<path d="M10.726,16.665c-0.219,0-0.427-0.095-0.569-0.261c-0.13-0.152-0.194-0.346-0.179-0.546s0.108-0.382,0.26-0.512
		c1.007-0.864,1.64-2.064,1.784-3.382c-0.011-1.06-0.474-2.168-0.964-3.34c-0.532-1.271-1.081-2.585-1.081-3.959
		c0-0.026,0.001-0.052,0.004-0.078c0.175-1.715,0.993-3.28,2.304-4.403c0.136-0.117,0.309-0.181,0.488-0.181
		c0.219,0,0.427,0.095,0.569,0.262c0.27,0.314,0.233,0.789-0.081,1.058c-1.007,0.863-1.64,2.063-1.784,3.38
		c0.011,1.062,0.474,2.17,0.965,3.342c0.532,1.271,1.081,2.584,1.081,3.957c0,0.025-0.001,0.05-0.004,0.074
		c-0.175,1.72-0.993,3.285-2.304,4.409C11.078,16.601,10.905,16.665,10.726,16.665z"/>
</g>
</svg>
