<?xml version="1.0" encoding="utf-8"?>
<!-- Generator: Adobe Illustrator 22.1.0, SVG Export Plug-In . SVG Version: 6.00 Build 0)  -->
<svg version="1.1" id="Layer_1" xmlns="http://www.w3.org/2000/svg" xmlns:xlink="http://www.w3.org/1999/xlink" x="0px" y="0px"
	 viewBox="0 0 24 24" style="enable-background:new 0 0 24 24;" xml:space="preserve">
<title>saving-money-seedling</title>
<g>
	<path d="M8.952,23.999c-0.322,0-0.607-0.205-0.711-0.51l-0.79-2.341c-0.106-0.318-0.083-0.657,0.066-0.956
		c0.149-0.299,0.405-0.522,0.722-0.628c0.128-0.043,0.262-0.065,0.398-0.065h2.565v-1.657c-0.116,0.126-0.258,0.228-0.42,0.298
		c-0.159,0.069-0.327,0.105-0.5,0.105c-0.156,0-0.31-0.029-0.456-0.087l-4.655-1.827c-0.311-0.122-0.556-0.358-0.689-0.664
		c-0.134-0.307-0.14-0.646-0.018-0.957l1.004-2.56c0.19-0.482,0.647-0.793,1.165-0.793c0.156,0,0.309,0.029,0.456,0.086l4.113,1.614
		V7.375L9.85,9.715c-0.312,0.539-0.893,0.874-1.518,0.874c-0.306,0-0.608-0.081-0.873-0.234l-6.268-3.62
		C0.788,6.501,0.499,6.124,0.378,5.672C0.257,5.22,0.319,4.748,0.552,4.344l2.004-3.47C2.79,0.47,3.168,0.18,3.619,0.059
		c0.149-0.04,0.302-0.06,0.455-0.06c0.305,0,0.606,0.081,0.873,0.235l6.255,3.613V0.932c0-0.414,0.336-0.75,0.75-0.75
		s0.75,0.336,0.75,0.75v7.404l5.744-4.506c0.311-0.244,0.684-0.372,1.079-0.372c0.542,0,1.045,0.244,1.378,0.669l2.473,3.153
		c0.289,0.368,0.417,0.826,0.36,1.29c-0.056,0.464-0.289,0.878-0.657,1.167l-5.908,4.635c-0.311,0.244-0.684,0.373-1.079,0.373
		c-0.542,0-1.044-0.244-1.378-0.669l-2.013-2.565v7.99h2.555c0.689,0,1.25,0.56,1.251,1.248c0.001,0.134-0.021,0.269-0.065,0.4
		l-0.78,2.34c-0.102,0.307-0.388,0.513-0.711,0.513c-0.081,0-0.161-0.013-0.237-0.039c-0.392-0.131-0.605-0.556-0.474-0.948
		l0.671-2.013H8.984l0.678,2.01c0.064,0.19,0.05,0.393-0.039,0.573c-0.089,0.179-0.242,0.313-0.432,0.378
		C9.114,23.986,9.034,23.999,8.952,23.999z M10.141,16.67l0.822-2.095l-4.189-1.644l-0.822,2.094L10.141,16.67z M19.525,4.957
		c-0.039,0-0.098,0.009-0.154,0.053l-5.908,4.635c-0.108,0.085-0.127,0.243-0.042,0.351l2.473,3.152
		c0.048,0.061,0.12,0.095,0.198,0.095c0.039,0,0.098-0.009,0.154-0.053l5.907-4.635c0.053-0.042,0.086-0.099,0.094-0.167
		c0.008-0.067-0.01-0.131-0.052-0.184l-2.473-3.153C19.675,4.992,19.603,4.957,19.525,4.957z M4.073,1.5
		c-0.09,0-0.173,0.048-0.218,0.125l-2.004,3.47C1.818,5.152,1.809,5.219,1.826,5.284s0.059,0.119,0.116,0.152l6.268,3.62
		C8.248,9.078,8.29,9.09,8.334,9.09c0.09,0,0.173-0.048,0.218-0.125l2.004-3.47c0.033-0.057,0.042-0.125,0.025-0.19
		s-0.059-0.119-0.116-0.152l-6.268-3.62C4.159,1.511,4.117,1.5,4.073,1.5z"/>
	<path d="M6.134,6.263c-0.62,0-1.125-0.505-1.125-1.125C5.008,4.52,5.51,4.015,6.13,4.013c0.625,0,1.129,0.505,1.129,1.125
		S6.754,6.263,6.134,6.263z"/>
	<path d="M17.647,10.268c-0.62,0-1.125-0.505-1.125-1.125c-0.001-0.618,0.501-1.123,1.121-1.125c0.625,0,1.129,0.505,1.129,1.125
		S18.267,10.268,17.647,10.268z"/>
</g>
</svg>
