<?xml version="1.0" encoding="utf-8"?>
<!-- Generator: Adobe Illustrator 22.1.0, SVG Export Plug-In . SVG Version: 6.00 Build 0)  -->
<svg version="1.1" id="Layer_1" xmlns="http://www.w3.org/2000/svg" xmlns:xlink="http://www.w3.org/1999/xlink" x="0px" y="0px"
	 viewBox="0 0 24 24" style="enable-background:new 0 0 24 24;" xml:space="preserve">
<title>saving-bank-drawer</title>
<g>
	<path d="M2.25,24.002c-0.037,0-0.074-0.003-0.11-0.008c-1.127-0.17-2.004-1.077-2.135-2.208C0.002,21.756,0,21.728,0,21.7V2.3
		c0-0.029,0.002-0.058,0.005-0.087c0.132-1.129,1.009-2.035,2.133-2.204C2.175,0.003,2.212,0,2.25,0h15
		c0.038,0,0.075,0.003,0.113,0.008c1.123,0.169,2,1.075,2.133,2.204C19.499,2.242,19.5,2.271,19.5,2.3v5.069l2.741-0.443
		c0.08-0.015,0.172-0.024,0.263-0.024c0.718,0,1.336,0.514,1.469,1.223C23.991,8.219,24,8.312,24,8.404v7.651
		c0,0.4-0.155,0.777-0.438,1.06c-0.283,0.284-0.659,0.44-1.06,0.44c-0.145,0-0.285-0.02-0.421-0.06L19.5,16.748V21.7
		c0,0.029-0.002,0.058-0.005,0.087c-0.131,1.129-1.008,2.037-2.133,2.206c-0.039,0.006-0.075,0.008-0.112,0.008H2.25z
		 M17.186,22.502c0.419-0.084,0.749-0.428,0.814-0.851V16.5h-7.5v6.002H17.186z M9,22.502V16.5H1.5v5.151
		c0.065,0.423,0.395,0.768,0.814,0.851H9z M22.5,16.056l0-7.652l-3,0.485v6.298L22.5,16.056z M18,15V9h-7.5v6h0.942l0.74-2.465
		C12.278,12.215,12.566,12,12.9,12h2.7c0.334,0,0.622,0.215,0.718,0.535L18,15z M15.492,15l-0.45-1.5h-1.584L15.492,15z M9,15V9H1.5
		v6H9z M18,7.5V2.35c-0.065-0.422-0.395-0.766-0.814-0.85H10.5v6H18z M9,7.5v-6H2.314C1.895,1.584,1.565,1.927,1.5,2.35V7.5H9z"/>
	<circle cx="4.125" cy="4.875" r="1.125"/>
	<circle cx="4.125" cy="12.375" r="1.125"/>
	<circle cx="4.125" cy="19.875" r="1.125"/>
	<circle cx="13.125" cy="19.875" r="1.125"/>
	<path d="M13.128,5.998c-0.454,0-0.861-0.27-1.037-0.687c-0.234-0.583,0.038-1.236,0.599-1.473c0.139-0.059,0.286-0.088,0.435-0.088
		c0.454,0,0.861,0.27,1.037,0.688c0.116,0.276,0.118,0.582,0.005,0.86c-0.113,0.278-0.328,0.495-0.605,0.611
		C13.425,5.968,13.278,5.998,13.128,5.998z"/>
</g>
</svg>
