<?xml version="1.0" encoding="utf-8"?>
<!-- Generator: Adobe Illustrator 22.1.0, SVG Export Plug-In . SVG Version: 6.00 Build 0)  -->
<svg version="1.1" id="Layer_1" xmlns="http://www.w3.org/2000/svg" xmlns:xlink="http://www.w3.org/1999/xlink" x="0px" y="0px"
	 viewBox="0 0 24 24" style="enable-background:new 0 0 24 24;" xml:space="preserve">
<title>saving-piggy-dollars</title>
<g>
	<circle cx="7.5" cy="10.5" r="1.125"/>
	<path d="M17.25,11.25c-0.414,0-0.75-0.336-0.75-0.75h-0.75c-0.414,0-0.75-0.336-0.75-0.75S15.336,9,15.75,9h2.031
		c0.242,0,0.458-0.146,0.548-0.371c0.059-0.146,0.057-0.307-0.005-0.453c-0.062-0.146-0.177-0.259-0.323-0.317l-2.063-0.825
		c-0.797-0.321-1.312-1.082-1.312-1.94c0-0.559,0.217-1.084,0.612-1.479C15.581,3.27,16.023,3.06,16.5,3.011V3
		c0-0.414,0.336-0.75,0.75-0.75S18,2.586,18,3h0.75c0.414,0,0.75,0.336,0.75,0.75S19.164,4.5,18.75,4.5h-2.033
		c-0.158,0-0.306,0.062-0.418,0.174c-0.112,0.112-0.173,0.26-0.173,0.418c0,0.243,0.146,0.458,0.371,0.549l2.063,0.825
		c1.071,0.431,1.592,1.652,1.161,2.722c-0.293,0.728-0.954,1.22-1.721,1.3V10.5C18,10.914,17.664,11.25,17.25,11.25z"/>
	<path d="M17.25,13.5c-3.722,0-6.75-3.028-6.75-6.75S13.528,0,17.25,0S24,3.028,24,6.75S20.972,13.5,17.25,13.5z M17.25,1.5
		C14.355,1.5,12,3.855,12,6.75S14.355,12,17.25,12s5.25-2.355,5.25-5.25S20.145,1.5,17.25,1.5z"/>
	<path d="M17.25,24c-0.345,0-0.644-0.234-0.727-0.568l-0.51-2.043c-1.385,0.731-2.937,1.115-4.52,1.115
		c-0.088,0-0.175-0.001-0.263-0.004c-0.043,0.001-0.104,0.002-0.165,0.002c-1.584,0-3.154-0.394-4.568-1.144l-0.518,2.074
		C5.894,23.766,5.595,24,5.25,24c-0.061,0-0.122-0.008-0.181-0.022c-0.195-0.049-0.359-0.17-0.462-0.342
		c-0.103-0.172-0.133-0.374-0.084-0.568l0.639-2.557C4.234,19.812,3.449,18.969,2.822,18H0.75C0.336,18,0,17.664,0,17.25v-6
		c0-0.414,0.336-0.75,0.75-0.75h1.321c0.564-1.445,1.491-2.715,2.697-3.694l0.318-2.537c0.035-0.285,0.151-0.553,0.336-0.774
		c0.256-0.308,0.617-0.498,1.016-0.534c0.046-0.005,0.094-0.007,0.141-0.007c0.347,0,0.686,0.123,0.955,0.348l1.983,1.653
		C9.835,5.22,9.878,5.694,9.613,6.011C9.47,6.183,9.26,6.281,9.037,6.281c-0.175,0-0.345-0.062-0.48-0.174L6.574,4.454L6.218,7.299
		c-0.025,0.2-0.132,0.384-0.292,0.505c-1.235,0.932-2.138,2.202-2.612,3.675C3.214,11.791,2.927,12,2.6,12H1.5v4.5h1.74
		c0.265,0,0.513,0.142,0.647,0.37c1.495,2.548,4.258,4.131,7.21,4.131c0,0,0.141-0.001,0.141-0.001
		c0.094,0.002,0.172,0.003,0.249,0.003c1.603,0,3.15-0.458,4.475-1.326c0.066-0.065,0.144-0.118,0.23-0.155
		c0.168-0.118,0.333-0.244,0.491-0.375c0.03-0.035,0.062-0.066,0.095-0.094c0.12-0.097,0.243-0.204,0.375-0.326
		c0.936-0.903,1.656-2.049,2.075-3.307c0.102-0.307,0.387-0.513,0.711-0.513c0.081,0,0.162,0.013,0.239,0.039
		c0.391,0.13,0.604,0.556,0.473,0.948c-0.012,0.037-0.049,0.138-0.049,0.138c-0.005,0.026-0.012,0.052-0.021,0.078
		c-0.461,1.368-1.258,2.618-2.306,3.619c-0.004,0.004-0.113,0.107-0.113,0.107c-0.259,0.249-0.534,0.485-0.817,0.701l0.632,2.531
		c0.1,0.401-0.144,0.809-0.546,0.909C17.372,23.992,17.311,24,17.25,24z"/>
</g>
</svg>
