<?xml version="1.0" encoding="utf-8"?>
<!-- Generator: Adobe Illustrator 22.1.0, SVG Export Plug-In . SVG Version: 6.00 Build 0)  -->
<svg version="1.1" id="Layer_1" xmlns="http://www.w3.org/2000/svg" xmlns:xlink="http://www.w3.org/1999/xlink" x="0px" y="0px"
	 viewBox="0 0 24 24" style="enable-background:new 0 0 24 24;" xml:space="preserve">
<title>saving-wallet-international</title>
<g>
	<path d="M12.836,24.008c-1.348-0.072-2.396-1.218-2.336-2.556l-0.001-6.167c-0.06-1.253,0.875-2.349,2.141-2.508l5.708-2.855
		c0.218-0.109,0.451-0.165,0.693-0.165c0.166,0,0.331,0.027,0.49,0.08c0.393,0.131,0.712,0.407,0.897,0.777l1.133,2.267
		c1.036,0.342,1.737,1.338,1.688,2.434l0,0.418c0.463,0.277,0.75,0.773,0.75,1.325v2.4c0,0.552-0.287,1.048-0.75,1.325v0.702
		c0.059,1.311-0.98,2.45-2.317,2.522l-8.076,0.001C12.85,24.008,12.843,24.008,12.836,24.008z M12.856,14.258
		c-0.479,0.027-0.882,0.481-0.858,0.992l0.001,6.235c-0.024,0.544,0.379,0.996,0.897,1.024l7.996-0.001
		c0.478-0.027,0.88-0.48,0.858-0.99l0-0.51h-1.301c-1.516,0-2.75-1.234-2.75-2.75s1.234-2.75,2.75-2.75h1.3v-0.227
		c0.023-0.541-0.374-0.991-0.888-1.023L12.856,14.258z M20.449,17.008c-0.689,0-1.25,0.561-1.25,1.25s0.561,1.25,1.25,1.25h2
		c0.027,0,0.05-0.023,0.05-0.05v-2.4c0-0.027-0.023-0.05-0.05-0.05H20.449z M19.041,11.258c-0.007,0-0.014,0.002-0.021,0.005
		l-2.989,1.495l3.791,0l-0.736-1.473c-0.006-0.012-0.015-0.02-0.029-0.025L19.041,11.258z"/>
	<path d="M5.736,22.105c-0.149,0-0.293-0.044-0.417-0.127c-1.909-1.28-3.399-3.062-4.311-5.154c-0.004-0.006-0.014-0.03-0.024-0.055
		c-0.335-0.775-0.592-1.601-0.757-2.437C-0.362,11.347,0.197,8.28,1.8,5.695c0.027-0.058,0.062-0.113,0.103-0.163l0.035-0.055
		c0.031-0.05,0.062-0.1,0.096-0.149C3.669,2.888,6.138,1.14,8.987,0.402c0.077-0.034,0.161-0.054,0.245-0.061
		c0.915-0.217,1.854-0.327,2.792-0.327c0.954,0,1.906,0.114,2.829,0.339c0.031,0.006,0.062,0.014,0.093,0.025
		c1.334,0.336,2.592,0.897,3.739,1.665c1.379,0.925,2.535,2.11,3.436,3.523c0.02,0.027,0.038,0.056,0.054,0.086
		c0.55,0.873,0.99,1.832,1.297,2.829c0.052,0.174,0.1,0.343,0.145,0.511c0.051,0.193,0.024,0.396-0.076,0.569
		c-0.101,0.173-0.262,0.297-0.456,0.349c-0.063,0.017-0.128,0.025-0.193,0.025c-0.34,0-0.638-0.229-0.725-0.558
		c-0.041-0.152-0.084-0.306-0.13-0.459c-0.229-0.745-0.547-1.471-0.946-2.159h-3.549c0.078,0.429,0.144,0.858,0.198,1.281
		c0.052,0.41-0.24,0.786-0.65,0.838c-0.032,0.004-0.063,0.006-0.094,0.006c-0.377,0-0.697-0.282-0.744-0.656
		c-0.061-0.486-0.14-0.979-0.235-1.469H7.957c-0.06,0.328-0.104,0.62-0.137,0.902c-0.144,0.933-0.235,1.886-0.273,2.848h3.702
		c0.414,0,0.75,0.336,0.75,0.75s-0.336,0.75-0.75,0.75H7.531c0.045,2.454,0.436,4.865,1.165,7.174
		c0.06,0.191,0.042,0.394-0.05,0.572c-0.093,0.178-0.249,0.309-0.44,0.369c-0.074,0.023-0.149,0.035-0.226,0.035
		c-0.329,0-0.616-0.211-0.715-0.524c-0.241-0.763-0.451-1.561-0.627-2.376H2.904c0.797,1.383,1.911,2.576,3.25,3.474
		c0.343,0.231,0.435,0.697,0.205,1.041C6.219,21.981,5.986,22.105,5.736,22.105z M6.357,15.758c-0.195-1.238-0.305-2.496-0.327-3.75
		H1.5c0.001,0.685,0.068,1.368,0.199,2.034c0.115,0.583,0.28,1.159,0.491,1.716H6.357z M6.045,10.508
		c0.039-1.034,0.136-2.058,0.289-3.049c0.025-0.216,0.058-0.446,0.1-0.701H2.909c-0.678,1.169-1.116,2.428-1.305,3.75H6.045z
		 M20.04,5.258c-0.636-0.76-1.371-1.42-2.19-1.97c-0.503-0.337-1.034-0.63-1.588-0.875c0.419,0.917,0.747,1.87,0.98,2.845H20.04z
		 M15.693,5.258c-0.327-1.229-0.818-2.407-1.462-3.508c-0.725-0.156-1.468-0.236-2.212-0.236c-0.755,0-1.511,0.081-2.25,0.242
		c-0.633,1.105-1.126,2.28-1.469,3.501H15.693z M6.744,5.258c0.248-0.975,0.583-1.927,0.999-2.842
		C6.278,3.063,4.992,4.03,3.962,5.258H6.744z"/>
</g>
</svg>
