<?xml version="1.0" encoding="utf-8"?>
<!-- Generator: Adobe Illustrator 22.1.0, SVG Export Plug-In . SVG Version: 6.00 Build 0)  -->
<svg version="1.1" id="Layer_1" xmlns="http://www.w3.org/2000/svg" xmlns:xlink="http://www.w3.org/1999/xlink" x="0px" y="0px"
	 viewBox="0 0 24 24" style="enable-background:new 0 0 24 24;" xml:space="preserve">
<title>saving-money-flower</title>
<g>
	<path d="M11.946,24c-0.066,0-0.132-0.01-0.202-0.029c-0.003-0.001-0.009-0.003-0.015-0.005c0.018,0.004,0.04,0.008,0.063,0.01
		c-0.022-0.001-0.044-0.005-0.065-0.01c-0.01-0.003-0.021-0.006-0.025-0.008c0.004,0.002,0.009,0.004,0.015,0.005
		c-0.014-0.004-0.028-0.008-0.041-0.013c-0.008-0.003-0.016-0.007-0.024-0.011c-0.03-0.013-0.053-0.025-0.076-0.038
		c-0.005-0.002-0.04-0.023-0.051-0.03c-0.008-0.005-0.016-0.011-0.024-0.018c-0.012-0.009-0.026-0.02-0.04-0.032
		c-0.008-0.006-0.022-0.018-0.035-0.03c-0.018-0.017-0.035-0.036-0.051-0.055c-0.01-0.01-0.042-0.052-0.044-0.055
		c-0.018-0.025-0.032-0.051-0.047-0.078c-0.007-0.012-0.016-0.029-0.025-0.048c-0.001-0.003-0.01-0.023-0.012-0.027
		c-0.013-0.033-0.769-1.924-3.567-4.255c-0.612,0.977-1.349,1.288-1.887,1.37C5.677,20.661,5.558,20.67,5.44,20.67
		c-0.815,0-1.643-0.413-2.332-1.162c-0.668-0.729-1.003-1.505-1.327-2.256c-0.342-0.793-0.696-1.614-1.49-2.383
		c-0.172-0.167-0.255-0.408-0.22-0.645c0.034-0.237,0.181-0.446,0.394-0.557c1.135-0.597,2.418-0.913,3.71-0.913
		c1.206,0,2.413,0.277,3.491,0.802c0.034,0.017,0.067,0.036,0.098,0.057c1.128,0.779,1.78,1.86,1.744,2.893
		c-0.015,0.441-0.165,1.07-0.747,1.71c1.079,0.908,1.87,1.752,2.436,2.451v-7.208c-3.392-0.375-6-3.256-6-6.708
		c0-3.722,3.028-6.75,6.75-6.75s6.75,3.028,6.75,6.75c0,3.452-2.608,6.332-6,6.708v7.209c0.566-0.699,1.357-1.543,2.437-2.451
		c-0.583-0.64-0.732-1.27-0.748-1.711c-0.036-1.032,0.616-2.113,1.743-2.892c0.031-0.021,0.063-0.04,0.096-0.056
		c1.079-0.525,2.286-0.802,3.492-0.802c1.292,0,2.575,0.315,3.711,0.912c0.212,0.112,0.359,0.32,0.393,0.557
		c0.034,0.238-0.048,0.479-0.22,0.646c-0.794,0.77-1.148,1.59-1.49,2.383c-0.324,0.752-0.659,1.529-1.327,2.257
		c-0.689,0.75-1.517,1.163-2.332,1.163c-0.117,0-0.236-0.009-0.353-0.027c-0.539-0.083-1.276-0.394-1.888-1.371
		c-2.801,2.332-3.555,4.221-3.562,4.241c-0.003,0.008-0.018,0.042-0.022,0.051c-0.004,0.009-0.015,0.03-0.027,0.051
		c-0.012,0.023-0.025,0.045-0.04,0.066c-0.004,0.006-0.016,0.021-0.02,0.026c-0.005,0.007-0.016,0.02-0.028,0.033
		c-0.014,0.017-0.028,0.033-0.044,0.048c-0.018,0.017-0.037,0.033-0.057,0.048c-0.021,0.017-0.04,0.032-0.061,0.045
		c-0.013,0.009-0.033,0.02-0.053,0.03c-0.024,0.012-0.042,0.021-0.059,0.029c-0.015,0.007-0.03,0.013-0.044,0.018
		c-0.012,0.004-0.025,0.008-0.039,0.01C12.077,23.99,12.011,24,11.946,24z M2.053,14.608c0.529,0.712,0.833,1.416,1.106,2.049
		c0.287,0.666,0.559,1.295,1.055,1.836c0.389,0.423,0.849,0.677,1.231,0.677c0.041,0,0.082-0.003,0.122-0.009
		c0.404-0.062,0.711-0.439,0.921-0.813c-0.406-0.293-0.825-0.579-1.252-0.85c-0.349-0.222-0.452-0.687-0.23-1.035
		c0.139-0.218,0.375-0.348,0.633-0.348c0.143,0,0.282,0.041,0.403,0.118c0.534,0.34,1.05,0.693,1.537,1.052
		c0.276-0.272,0.42-0.551,0.43-0.831c0.017-0.499-0.385-1.1-1.052-1.574c-0.86-0.41-1.821-0.626-2.781-0.626
		C3.445,14.253,2.733,14.372,2.053,14.608z M17.405,18.347c0.209,0.374,0.516,0.752,0.92,0.813c0.041,0.006,0.081,0.009,0.123,0.009
		c0.382,0,0.842-0.253,1.231-0.677c0.496-0.541,0.768-1.169,1.055-1.835c0.273-0.634,0.577-1.338,1.106-2.05
		c-0.68-0.236-1.392-0.355-2.123-0.355c-0.96,0-1.921,0.216-2.781,0.626c-0.666,0.474-1.068,1.075-1.051,1.573
		c0.01,0.28,0.154,0.559,0.431,0.832c0.489-0.36,1.005-0.713,1.538-1.052c0.119-0.077,0.259-0.117,0.402-0.117
		c0.258,0,0.494,0.13,0.633,0.347c0.222,0.35,0.119,0.814-0.23,1.036C18.23,17.769,17.81,18.054,17.405,18.347z M11.946,1.5
		c-2.895,0-5.25,2.355-5.25,5.25S9.051,12,11.946,12c2.895,0,5.25-2.355,5.25-5.25S14.84,1.5,11.946,1.5z"/>
	<path d="M11.946,11.25c-0.414,0-0.75-0.336-0.75-0.75h-0.75c-0.414,0-0.75-0.336-0.75-0.75S10.032,9,10.446,9h2.03
		c0.242,0,0.458-0.146,0.548-0.371c0.059-0.146,0.057-0.307-0.005-0.453c-0.062-0.146-0.177-0.259-0.323-0.317l-2.062-0.825
		C9.832,6.714,9.315,5.949,9.318,5.084c0.003-1.077,0.828-1.967,1.878-2.073V3c0-0.414,0.336-0.75,0.75-0.75s0.75,0.336,0.75,0.75
		h0.75c0.414,0,0.75,0.336,0.75,0.75s-0.336,0.75-0.75,0.75h-2.033c-0.161,0-0.309,0.061-0.421,0.172
		c-0.112,0.111-0.174,0.259-0.174,0.417C10.817,5.333,10.963,5.55,11.19,5.64l2.064,0.826c1.071,0.431,1.592,1.652,1.161,2.722
		c-0.293,0.727-0.954,1.22-1.72,1.3V10.5C12.696,10.914,12.359,11.25,11.946,11.25z"/>
</g>
</svg>
