<?xml version="1.0" encoding="utf-8"?>
<!-- Generator: Adobe Illustrator 22.1.0, SVG Export Plug-In . SVG Version: 6.00 Build 0)  -->
<svg version="1.1" id="Layer_1" xmlns="http://www.w3.org/2000/svg" xmlns:xlink="http://www.w3.org/1999/xlink" x="0px" y="0px"
	 viewBox="0 0 24 24" style="enable-background:new 0 0 24 24;" xml:space="preserve">
<title>saving-piggy-bank</title>
<g>
	<path d="M15,23c-0.827,0-1.5-0.673-1.5-1.5v-0.247c-0.73,0.162-1.479,0.243-2.233,0.243c-0.766,0-1.526-0.084-2.267-0.251V21.5
		C9,22.327,8.327,23,7.5,23H6c-0.827,0-1.5-0.673-1.5-1.5v-2.53C3.848,18.395,3.282,17.734,2.816,17H0.75C0.336,17,0,16.664,0,16.25
		v-6C0,9.836,0.336,9.5,0.75,9.5h1.312c0.353-0.942,0.875-1.834,1.522-2.602L3.008,2.856C2.977,2.64,3.041,2.422,3.184,2.258
		c0.087-0.1,0.249-0.226,0.526-0.256C3.724,2.001,3.751,2,3.751,2c0.124,0,2.958,0.029,4.467,2.003
		c0.928-0.253,1.901-0.381,2.897-0.381c2.335,0,4.591,0.699,6.354,1.968c2.028,1.46,3.254,3.593,3.487,6.043
		c0.903-0.3,1.543-1.156,1.543-2.133c0-0.414,0.336-0.75,0.75-0.75S24,9.086,24,9.5c0,1.814-1.284,3.345-3.035,3.681
		C20.768,15.423,19.7,17.517,18,18.989V21.5c0,0.827-0.673,1.5-1.5,1.5H15z M14.25,19.52c0.159,0,0.311,0.049,0.44,0.142
		C14.884,19.803,15,20.03,15,20.27v1.23h1.5v-2.863c0-0.229,0.103-0.444,0.283-0.587c1.705-1.355,2.695-3.38,2.717-5.558
		c0-2.968-1.581-4.73-2.907-5.685c-1.511-1.088-3.454-1.687-5.47-1.687c-1.039,0-2.043,0.16-2.985,0.474
		C8.061,5.62,7.981,5.633,7.9,5.633c-0.273,0-0.525-0.149-0.657-0.388C6.658,4.184,5.439,3.769,4.63,3.607l0.488,3.421
		c0.032,0.224-0.037,0.447-0.19,0.613c-0.738,0.804-1.294,1.781-1.611,2.826C3.222,10.786,2.933,11,2.6,11H1.5v4.5h1.74
		c0.269,0,0.518,0.145,0.651,0.378c0.474,0.831,1.09,1.558,1.832,2.162C5.899,18.183,6,18.395,6,18.622V21.5h1.5v-1.241
		c0-0.24,0.116-0.468,0.312-0.609c0.128-0.093,0.28-0.142,0.438-0.142c0.081,0,0.161,0.013,0.238,0.039
		c0.891,0.298,1.826,0.449,2.778,0.449c0.942,0,1.866-0.148,2.748-0.439C14.091,19.533,14.17,19.52,14.25,19.52z"/>
	<path d="M8.25,8.75c-0.287,0-0.545-0.16-0.672-0.417C7.489,8.153,7.475,7.95,7.539,7.76c0.064-0.19,0.198-0.343,0.378-0.432
		c1.024-0.507,2.177-0.775,3.333-0.775s2.308,0.268,3.332,0.775c0.179,0.089,0.314,0.242,0.378,0.432
		c0.064,0.19,0.051,0.393-0.038,0.573C14.795,8.59,14.537,8.75,14.25,8.75c-0.115,0-0.229-0.027-0.333-0.078
		c-0.819-0.405-1.741-0.62-2.667-0.62s-1.848,0.214-2.667,0.62C8.48,8.723,8.365,8.75,8.25,8.75z"/>
	<circle cx="6.375" cy="11.375" r="1.125"/>
</g>
</svg>
