<?xml version="1.0" encoding="utf-8"?>
<!-- Generator: Adobe Illustrator 22.1.0, SVG Export Plug-In . SVG Version: 6.00 Build 0)  -->
<svg version="1.1" id="Layer_1" xmlns="http://www.w3.org/2000/svg" xmlns:xlink="http://www.w3.org/1999/xlink" x="0px" y="0px"
	 viewBox="0 0 24 24" style="enable-background:new 0 0 24 24;" xml:space="preserve">
<title>school-locker</title>
<g>
	<path d="M9,8.25c-0.414,0-0.75-0.336-0.75-0.75V5.25C8.25,4.836,8.586,4.5,9,4.5s0.75,0.336,0.75,0.75V7.5
		C9.75,7.914,9.414,8.25,9,8.25z"/>
	<path d="M9,19.5c-0.414,0-0.75-0.336-0.75-0.75V16.5c0-0.414,0.336-0.75,0.75-0.75s0.75,0.336,0.75,0.75v2.25
		C9.75,19.164,9.414,19.5,9,19.5z"/>
	<path d="M20.25,19.5c-0.414,0-0.75-0.336-0.75-0.75V16.5c0-0.414,0.336-0.75,0.75-0.75S21,16.086,21,16.5v2.25
		C21,19.164,20.664,19.5,20.25,19.5z"/>
	<path d="M1.75,24C0.785,24,0,23.215,0,22.25V1.75C0,0.785,0.785,0,1.75,0h20.5C23.215,0,24,0.785,24,1.75v20.5
		c0,0.965-0.785,1.75-1.75,1.75H1.75z M22.25,22.5c0.138,0,0.25-0.112,0.25-0.25v-9.5h-9.75v9.75H22.25z M1.5,22.25
		c0,0.138,0.112,0.25,0.25,0.25h9.5v-9.75H1.5V22.25z M22.5,11.25V9.154l-1.876-4.377L18.977,5.6l2.511,5.65H22.5z M19.846,11.25
		L18.75,8.784v2.466H19.846z M17.25,11.25V6h-1.5v5.25H17.25z M14.25,11.25V6h-1.5v5.25H14.25z M11.25,11.25V1.5h-9.5
		C1.612,1.5,1.5,1.612,1.5,1.75v9.5H11.25z M21,3c0.088,0,0.175,0.015,0.258,0.046c0.193,0.07,0.35,0.219,0.431,0.409L22.5,5.346
		V1.75c0-0.138-0.112-0.25-0.25-0.25h-9.5v3h5.073l2.842-1.421C20.768,3.027,20.884,3,21,3z"/>
</g>
</svg>
