<?xml version="1.0" encoding="utf-8"?>
<!-- Generator: Adobe Illustrator 22.1.0, SVG Export Plug-In . SVG Version: 6.00 Build 0)  -->
<svg version="1.1" id="Layer_1" xmlns="http://www.w3.org/2000/svg" xmlns:xlink="http://www.w3.org/1999/xlink" x="0px" y="0px"
	 viewBox="0 0 24 24" style="enable-background:new 0 0 24 24;" xml:space="preserve">
<title>school-teacher-physical-education</title>
<g>
	<path d="M5.25,7.5C3.182,7.5,1.5,5.818,1.5,3.75S3.182,0,5.25,0S9,1.682,9,3.75S7.318,7.5,5.25,7.5z M5.25,1.5
		C4.009,1.5,3,2.509,3,3.75S4.009,6,5.25,6S7.5,4.991,7.5,3.75S6.491,1.5,5.25,1.5z"/>
	<path d="M3,24c-0.387,0-0.708-0.29-0.746-0.675L1.571,16.5H0.75C0.336,16.5,0,16.164,0,15.75v-3C0,9.855,2.355,7.5,5.25,7.5
		s5.25,2.355,5.25,5.25v3c0,0.414-0.336,0.75-0.75,0.75H8.929l-0.682,6.825C8.208,23.71,7.887,24,7.5,24H3z M6.821,22.5l0.682-6.825
		C7.542,15.29,7.863,15,8.25,15H9v-2.25c0-1.781-1.288-3.32-3-3.672v5.172C6,14.664,5.664,15,5.25,15S4.5,14.664,4.5,14.25V9.078
		c-1.712,0.352-3,1.892-3,3.672V15h0.75c0.387,0,0.708,0.29,0.746,0.675L3.679,22.5H6.821z"/>
	<path d="M11.25,1.5c-0.414,0-0.75-0.336-0.75-0.75S10.836,0,11.25,0h12C23.664,0,24,0.336,24,0.75S23.664,1.5,23.25,1.5H11.25z"/>
	<path d="M12.75,17.25c-0.414,0-0.75-0.336-0.75-0.75s0.336-0.75,0.75-0.75h10.5c0.414,0,0.75,0.336,0.75,0.75
		s-0.336,0.75-0.75,0.75H12.75z"/>
	<path d="M14.961,14.244c-0.79,0-1.532-0.301-2.089-0.846c-0.558-0.551-0.867-1.283-0.871-2.063
		c-0.005-0.78,0.294-1.516,0.843-2.072l0.396-0.392c0.178-0.73,0.327-1.369,0.456-1.923c0.633-2.723,0.921-3.961,2.301-3.961
		c0.168,0,0.35,0.02,0.557,0.061c0.847,0.167,1.422,0.55,1.709,1.138c0.027,0.056,0.052,0.114,0.073,0.173
		c0.235-0.061,0.478-0.092,0.725-0.092c0.752,0,1.462,0.288,1.999,0.812l0.046,0.046c0.739,0.695,1.026,1.748,0.771,2.726
		c0.065,0.023,0.129,0.05,0.191,0.08c0.584,0.286,0.965,0.853,1.133,1.684c0.359,1.77-0.742,2.062-3.683,2.841
		c-0.587,0.156-1.278,0.339-2.081,0.561l-0.383,0.378C16.494,13.943,15.751,14.244,14.961,14.244z M13.918,10.31
		c-0.275,0.28-0.42,0.632-0.418,1.016c0.002,0.38,0.152,0.736,0.423,1.003c0.275,0.269,0.644,0.418,1.038,0.418
		c0.384,0,0.745-0.142,1.02-0.399L13.918,10.31z M17.268,11.509c0.711-0.195,1.332-0.36,1.865-0.502
		c1.175-0.312,2.507-0.665,2.638-0.854c0.003-0.025-0.022-0.149-0.041-0.24c-0.069-0.34-0.184-0.566-0.324-0.635
		c-0.044-0.022-0.101-0.033-0.167-0.033c-0.176,0-0.343,0.074-0.344,0.075c-0.017,0.009-0.043,0.018-0.07,0.027
		c-0.015,0.006-0.03,0.012-0.045,0.016l-1.554,0.438c-0.068,0.019-0.136,0.028-0.204,0.028c-0.334,0-0.631-0.225-0.722-0.547
		c-0.054-0.192-0.031-0.395,0.068-0.57c0.098-0.175,0.258-0.301,0.451-0.355l1.352-0.381c0.203-0.248,0.307-0.551,0.297-0.869
		c-0.01-0.348-0.156-0.671-0.409-0.909l-0.05-0.05c-0.252-0.246-0.591-0.384-0.949-0.384c-0.296,0-0.58,0.094-0.814,0.268
		l-0.222,1.442c-0.057,0.369-0.368,0.636-0.74,0.636c-0.038,0-0.077-0.003-0.116-0.009c-0.408-0.063-0.689-0.447-0.626-0.855
		l0.263-1.709c0.002-0.014,0.006-0.03,0.01-0.045c0.013-0.063,0.033-0.122,0.06-0.176c0.033-0.07,0.117-0.321,0.04-0.476
		c-0.068-0.137-0.305-0.255-0.65-0.323c-0.083-0.016-0.176-0.034-0.236-0.034c-0.219,0-0.55,1.425-0.871,2.803
		c-0.117,0.505-0.252,1.082-0.409,1.732L17.268,11.509z"/>
</g>
</svg>
