<?xml version="1.0" encoding="utf-8"?>
<!-- Generator: Adobe Illustrator 22.1.0, SVG Export Plug-In . SVG Version: 6.00 Build 0)  -->
<svg version="1.1" id="Layer_1" xmlns="http://www.w3.org/2000/svg" xmlns:xlink="http://www.w3.org/1999/xlink" x="0px" y="0px"
	 viewBox="0 0 24 24" style="enable-background:new 0 0 24 24;" xml:space="preserve">
<title>school-book</title>
<g>
	<path d="M3,24c-1.654,0-3-1.346-3-3V3.75C0,1.682,1.682,0,3.75,0h15c0.414,0,0.75,0.336,0.75,0.75S19.164,1.5,18.75,1.5h-15
		C2.509,1.5,1.5,2.509,1.5,3.75v14.651C1.951,18.139,2.464,18,3,18h15.75c0.414,0,0.75,0.336,0.75,0.75s-0.336,0.75-0.75,0.75H18v3
		h0.75c0.414,0,0.75,0.336,0.75,0.75S19.164,24,18.75,24H3z M3,19.5c-0.827,0-1.5,0.673-1.5,1.5s0.673,1.5,1.5,1.5h13.5v-3H3z"/>
	<path d="M8.25,13.5c-0.414,0-0.75-0.336-0.75-0.75V10.5H6v2.25c0,0.414-0.336,0.75-0.75,0.75S4.5,13.164,4.5,12.75v-6
		c0-1.241,1.009-2.25,2.25-2.25S9,5.509,9,6.75v6C9,13.164,8.664,13.5,8.25,13.5z M7.5,9V6.75C7.5,6.336,7.164,6,6.75,6
		S6,6.336,6,6.75V9H7.5z"/>
	<path d="M12.75,16.5c-0.414,0-0.75-0.336-0.75-0.75v-7.5c0-0.414,0.336-0.75,0.75-0.75h1.5c1.241,0,2.25,1.009,2.25,2.25v0.75
		c0,0.563-0.206,1.091-0.575,1.5c0.37,0.409,0.575,0.937,0.575,1.5v0.75c0,1.241-1.009,2.25-2.25,2.25H12.75z M14.25,15
		c0.414,0,0.75-0.336,0.75-0.75V13.5c0-0.414-0.336-0.75-0.75-0.75H13.5L14.25,15z M14.25,11.25c0.414,0,0.75-0.336,0.75-0.75V9.75
		C15,9.336,14.664,9,14.25,9H13.5v2.25H14.25z"/>
	<path d="M23.25,13.5c-2.068,0-3.75-1.682-3.75-3.75v-1.5c0-2.068,1.682-3.75,3.75-3.75C23.664,4.5,24,4.836,24,5.25
		S23.664,6,23.25,6C22.009,6,21,7.009,21,8.25v1.5c0,1.241,1.009,2.25,2.25,2.25c0.414,0,0.75,0.336,0.75,0.75
		S23.664,13.5,23.25,13.5z"/>
</g>
</svg>
