<?xml version="1.0" encoding="utf-8"?>
<!-- Generator: Adobe Illustrator 22.1.0, SVG Export Plug-In . SVG Version: 6.00 Build 0)  -->
<svg version="1.1" id="Layer_1" xmlns="http://www.w3.org/2000/svg" xmlns:xlink="http://www.w3.org/1999/xlink" x="0px" y="0px"
	 viewBox="0 0 24 24" style="enable-background:new 0 0 24 24;" xml:space="preserve">
<title>school-bell</title>
<g>
	<path d="M12.25,24C11.009,24,10,22.991,10,21.75c0-0.96,0.615-1.808,1.5-2.121v-0.956c-1.459-0.3-2.623-1.464-2.923-2.923H4.75
		c-0.085,0-0.169-0.016-0.251-0.045c-0.004-0.001-0.02-0.007-0.025-0.009c-0.073-0.029-0.141-0.07-0.204-0.123
		c-0.004-0.003-0.021-0.018-0.025-0.021C4.187,15.5,4.139,15.439,4.1,15.371c-0.003-0.006-0.016-0.03-0.019-0.036
		c-0.031-0.062-0.054-0.13-0.067-0.2c-0.004-0.016-0.007-0.032-0.009-0.047C4.004,15.077,4,15.011,4,15
		c0-0.015,0.001-0.031,0.002-0.045c0.001-0.02,0.004-0.042,0.007-0.064c0.003-0.022,0.007-0.045,0.012-0.066
		c0.007-0.027,0.014-0.051,0.023-0.075c0.008-0.022,0.016-0.044,0.026-0.065s0.021-0.041,0.033-0.061
		c0.014-0.023,0.028-0.045,0.043-0.066c0.011-0.016,0.026-0.034,0.042-0.052c0.02-0.022,0.036-0.039,0.053-0.054
		c0.015-0.014,0.034-0.03,0.055-0.045c0.017-0.013,0.036-0.027,0.057-0.04c0.022-0.014,0.043-0.025,0.065-0.035
		c0.02-0.01,0.043-0.021,0.067-0.03c0.02-0.008,0.044-0.015,0.068-0.022c0.021-0.006,0.042-0.011,0.063-0.015
		c0.013-0.003,0.027-0.006,0.037-0.007c0.436-0.053,0.778-0.384,0.847-0.808V9.75c0-3.997,2.608-7.334,6-7.769V0.75
		C11.5,0.336,11.836,0,12.25,0S13,0.336,13,0.75v1.231c3.392,0.435,6,3.772,6,7.769v3.698c0.069,0.425,0.411,0.755,0.84,0.807
		c0.013,0.002,0.031,0.005,0.046,0.008c0.02,0.004,0.04,0.009,0.06,0.014c0.025,0.007,0.047,0.014,0.069,0.022
		c0.026,0.01,0.048,0.02,0.07,0.031c0.022,0.011,0.042,0.022,0.061,0.034c0.021,0.013,0.042,0.028,0.061,0.043
		c0.018,0.014,0.035,0.028,0.052,0.043c0.021,0.02,0.036,0.036,0.051,0.053c0.018,0.02,0.031,0.036,0.043,0.053
		c0.018,0.025,0.032,0.046,0.045,0.069c0.008,0.014,0.02,0.034,0.03,0.055c0.012,0.026,0.021,0.05,0.03,0.074
		c0.006,0.018,0.014,0.04,0.02,0.064c0.006,0.023,0.009,0.042,0.012,0.061c0.005,0.034,0.007,0.056,0.009,0.076
		C20.499,14.97,20.5,14.988,20.5,15c0,0.015-0.001,0.03-0.002,0.045c0,0.016-0.001,0.031-0.003,0.047
		c-0.001,0.012-0.005,0.03-0.008,0.044c-0.004,0.02-0.009,0.04-0.014,0.06c-0.008,0.027-0.014,0.049-0.023,0.071
		c-0.008,0.021-0.019,0.045-0.031,0.068c-0.009,0.019-0.021,0.041-0.034,0.062c-0.013,0.021-0.029,0.042-0.045,0.063
		c-0.014,0.018-0.026,0.033-0.041,0.048c-0.018,0.019-0.04,0.04-0.063,0.061c-0.016,0.014-0.03,0.025-0.045,0.036
		c-0.019,0.014-0.046,0.032-0.075,0.048c-0.007,0.004-0.034,0.019-0.041,0.022c-0.03,0.014-0.059,0.026-0.089,0.036
		c-0.021,0.007-0.04,0.013-0.06,0.017c-0.014,0.004-0.046,0.01-0.078,0.015c-0.016,0.002-0.033,0.004-0.051,0.005
		c-0.016,0.002-0.034,0.003-0.047,0.003h-3.827c-0.3,1.459-1.464,2.623-2.923,2.923v0.956c0.885,0.314,1.5,1.162,1.5,2.121
		C14.5,22.991,13.491,24,12.25,24z M12.25,21c-0.414,0-0.75,0.336-0.75,0.75s0.336,0.75,0.75,0.75S13,22.164,13,21.75
		S12.664,21,12.25,21z M10.132,15.75c0.313,0.879,1.158,1.5,2.118,1.5s1.805-0.621,2.118-1.5H10.132z M17.68,14.25
		c-0.088-0.209-0.147-0.431-0.175-0.659C17.502,13.559,17.5,13.53,17.5,13.5V9.75c0-3.484-2.355-6.318-5.25-6.318
		C9.355,3.432,7,6.266,7,9.75v3.75c0,0.031-0.002,0.061-0.005,0.091c-0.028,0.228-0.087,0.45-0.175,0.659H17.68z"/>
</g>
</svg>
