<?xml version="1.0" encoding="utf-8"?>
<!-- Generator: Adobe Illustrator 22.1.0, SVG Export Plug-In . SVG Version: 6.00 Build 0)  -->
<svg version="1.1" id="Layer_1" xmlns="http://www.w3.org/2000/svg" xmlns:xlink="http://www.w3.org/1999/xlink" x="0px" y="0px"
	 viewBox="0 0 24 24" style="enable-background:new 0 0 24 24;" xml:space="preserve">
<title>science-fiction-ufo</title>
<g>
	<path d="M12,11.25c-8.659,0-10.377-4.049-10.446-4.221C1.461,6.797,1.489,6.536,1.629,6.33C1.769,6.123,2.001,6,2.25,6h3.042
		C5.668,2.608,8.548,0,12,0c3.451,0,6.332,2.608,6.708,6h3.042c0.249,0,0.481,0.123,0.621,0.329c0.14,0.206,0.168,0.467,0.075,0.699
		C22.377,7.201,20.656,11.25,12,11.25z M3.81,7.5C4.902,8.453,7.258,9.75,12,9.75c4.742,0,7.099-1.297,8.19-2.25H3.81z M17.195,6
		C16.828,3.446,14.619,1.5,12,1.5C9.38,1.5,7.172,3.446,6.805,6H17.195z"/>
	<path d="M0.75,24c-0.104,0-0.206-0.021-0.301-0.063c-0.378-0.165-0.552-0.608-0.386-0.987l4.933-11.276
		c0.12-0.273,0.389-0.45,0.687-0.45c0.104,0,0.205,0.021,0.301,0.063c0.183,0.08,0.324,0.227,0.397,0.414
		c0.073,0.187,0.069,0.39-0.011,0.574L1.437,23.551C1.318,23.824,1.048,24,0.75,24z"/>
	<path d="M23.25,24c-0.298,0-0.568-0.176-0.687-0.449L17.628,12.27c-0.08-0.183-0.084-0.387-0.011-0.574s0.214-0.333,0.398-0.414
		c0.096-0.042,0.197-0.063,0.301-0.063c0.298,0,0.567,0.177,0.687,0.45l4.935,11.281c0.166,0.379-0.008,0.822-0.386,0.988
		C23.455,23.979,23.354,24,23.25,24z"/>
	<path d="M9,24c-0.235,0-0.459-0.112-0.6-0.3c-0.248-0.331-0.181-0.802,0.15-1.051l2.7-2.025V19.5h-3c-0.414,0-0.75-0.336-0.75-0.75
		S7.836,18,8.25,18h2.076c-0.36-0.402-0.576-0.931-0.576-1.5c0-1.241,1.009-2.25,2.25-2.25c1.241,0,2.25,1.009,2.25,2.25
		c0,0.569-0.216,1.098-0.576,1.5h2.076c0.414,0,0.75,0.336,0.75,0.75s-0.336,0.75-0.75,0.75h-3v1.125l2.7,2.025
		c0.331,0.248,0.398,0.719,0.15,1.05C15.459,23.888,15.235,24,15,24c-0.163,0-0.318-0.052-0.449-0.15L12,21.938L9.45,23.85
		C9.319,23.948,9.164,24,9,24z M12,15.75c-0.414,0-0.75,0.336-0.75,0.75s0.336,0.75,0.75,0.75s0.75-0.336,0.75-0.75
		S12.414,15.75,12,15.75z"/>
</g>
</svg>
