<?xml version="1.0" encoding="utf-8"?>
<!-- Generator: Adobe Illustrator 22.1.0, SVG Export Plug-In . SVG Version: 6.00 Build 0)  -->
<svg version="1.1" id="Layer_1" xmlns="http://www.w3.org/2000/svg" xmlns:xlink="http://www.w3.org/1999/xlink" x="0px" y="0px"
	 viewBox="0 0 24 24" style="enable-background:new 0 0 24 24;" xml:space="preserve">
<title>science-fiction-robot</title>
<g>
	<path d="M14.25,24c-0.827,0-1.5-0.673-1.5-1.5v-6h-1.5v6c0,0.827-0.673,1.5-1.5,1.5h-4.5c-0.414,0-0.75-0.336-0.75-0.75
		s0.336-0.75,0.75-0.75h1.5v-6.28c-0.548-0.299-0.954-0.817-1.106-1.426c-0.275-1.168-0.407-2.362-0.394-3.553
		C5.191,9.988,5.343,8.727,5.702,7.5H5.25C4.009,7.5,3,8.509,3,9.75v4.629c0.885,0.313,1.5,1.161,1.5,2.121
		c0,0.414-0.336,0.75-0.75,0.75S3,16.914,3,16.5s-0.336-0.75-0.75-0.75S1.5,16.086,1.5,16.5s-0.336,0.75-0.75,0.75S0,16.914,0,16.5
		c0-0.96,0.615-1.808,1.5-2.121V9.75C1.5,7.682,3.182,6,5.25,6h3V3.75C8.25,1.682,9.932,0,12,0c2.068,0,3.75,1.682,3.75,3.75V6h3
		c2.068,0,3.75,1.682,3.75,3.75v4.629C23.385,14.692,24,15.54,24,16.5c0,0.414-0.336,0.75-0.75,0.75s-0.75-0.336-0.75-0.75
		s-0.336-0.75-0.75-0.75S21,16.086,21,16.5s-0.336,0.75-0.75,0.75s-0.75-0.336-0.75-0.75c0-0.96,0.615-1.808,1.5-2.121V9.75
		c0-1.241-1.009-2.25-2.25-2.25h-0.452c0.359,1.228,0.51,2.499,0.451,3.784c0.014,1.156-0.118,2.341-0.391,3.5
		c-0.153,0.615-0.559,1.135-1.108,1.435v6.28h1.5c0.414,0,0.75,0.336,0.75,0.75S19.164,24,18.75,24H14.25z M14.25,22.5h1.5v-6h-1.5
		V22.5z M9.75,22.5v-6h-1.5v6H9.75z M7.273,7.5c-0.406,1.197-0.583,2.446-0.524,3.716c-0.011,1.106,0.108,2.185,0.353,3.226
		C7.184,14.768,7.482,15,7.828,15h8.345c0.345,0,0.645-0.234,0.728-0.568c0.243-1.033,0.361-2.103,0.35-3.174
		c0.059-1.304-0.117-2.561-0.523-3.758H7.273z M14.25,6V3.75c0-1.241-1.009-2.25-2.25-2.25c-1.241,0-2.25,1.009-2.25,2.25V6H14.25z"
		/>
	<path d="M14.625,11.25c-0.044,0-0.088-0.004-0.131-0.011c-0.513-0.06-0.922-0.47-0.982-0.983c-0.008-0.042-0.011-0.086-0.011-0.13
		s0.004-0.088,0.011-0.13c0.06-0.513,0.47-0.923,0.982-0.983C14.537,9.004,14.581,9,14.625,9s0.088,0.004,0.131,0.011
		c0.513,0.06,0.922,0.47,0.983,0.983c0.007,0.042,0.011,0.086,0.011,0.13s-0.004,0.088-0.011,0.13
		c-0.061,0.513-0.47,0.923-0.983,0.983C14.713,11.246,14.669,11.25,14.625,11.25z"/>
	<path d="M9,11.25c-0.414,0-0.75-0.336-0.75-0.75S8.586,9.75,9,9.75h2.25c0.414,0,0.75,0.336,0.75,0.75s-0.336,0.75-0.75,0.75H9z"/>
</g>
</svg>
