<?xml version="1.0" encoding="utf-8"?>
<!-- Generator: Adobe Illustrator 22.1.0, SVG Export Plug-In . SVG Version: 6.00 Build 0)  -->
<svg version="1.1" id="Layer_1" xmlns="http://www.w3.org/2000/svg" xmlns:xlink="http://www.w3.org/1999/xlink" x="0px" y="0px"
	 viewBox="0 0 24 24" style="enable-background:new 0 0 24 24;" xml:space="preserve">
<title>science-perspective</title>
<g>
	<path d="M16.625,24c-0.385,0-0.714-0.301-0.747-0.685c-0.024-0.279-0.045-0.573-0.063-0.888c-1.006,0.038-2.034,0.06-3.065,0.068
		v0.756c0,0.414-0.336,0.75-0.75,0.75s-0.75-0.336-0.75-0.75v-0.756c-1.029-0.008-2.057-0.03-3.066-0.068
		c-0.018,0.316-0.039,0.609-0.063,0.887C8.088,23.705,7.766,24,7.373,24c-0.02,0-0.041-0.001-0.062-0.002
		C7.111,23.98,6.929,23.886,6.8,23.733c-0.129-0.153-0.191-0.348-0.174-0.547c0.041-0.477,0.072-0.977,0.093-1.487
		c-0.002-0.028-0.003-0.056-0.002-0.084c0.001-0.023,0.004-0.045,0.007-0.066c0.017-0.457,0.025-0.882,0.025-1.298
		c0.011-1.006-0.031-2.028-0.125-3.039c-0.005-0.031-0.009-0.063-0.01-0.095c-0.14-1.444-0.391-2.89-0.746-4.303
		C2.612,12.002,0.75,10.618,0.75,9c0-1.639,1.8-2.991,5.069-3.806C5.878,5.179,5.939,5.172,6,5.172c0.345,0,0.644,0.234,0.728,0.569
		c0.1,0.401-0.145,0.809-0.546,0.909C3.466,7.327,2.25,8.318,2.25,9c0,1.542,4.738,3,9.749,3h0.037c0.109,0,0.218-0.001,0.328-0.003
		l0.085-0.001C17.316,11.909,21.75,10.481,21.75,9c0-0.682-1.216-1.673-3.931-2.35c-0.194-0.049-0.358-0.17-0.461-0.341
		c-0.103-0.172-0.133-0.374-0.085-0.568C17.356,5.406,17.655,5.172,18,5.172c0.061,0,0.122,0.007,0.181,0.022
		C21.45,6.009,23.25,7.361,23.25,9c0,1.618-1.862,3.002-5.119,3.812c-0.344,1.369-0.591,2.773-0.733,4.176
		c0.002,0.013,0.003,0.026,0.004,0.039c0.007,0.1-0.006,0.198-0.039,0.294c-0.086,0.967-0.125,1.949-0.114,2.919
		c0,1.012,0.042,2.001,0.123,2.943c0.018,0.199-0.044,0.394-0.173,0.547c-0.129,0.153-0.31,0.248-0.51,0.265
		C16.67,23.999,16.647,24,16.625,24z M12.75,20.994c1.013-0.007,2.022-0.029,3.007-0.066c-0.005-0.225-0.007-0.45-0.007-0.677
		c-0.009-0.776,0.014-1.57,0.067-2.364c-1.013,0.06-2.041,0.095-3.067,0.107V20.994z M8.243,20.928
		c0.988,0.036,1.997,0.058,3.007,0.066v-3c-1.03-0.012-2.059-0.047-3.067-0.106c0.053,0.796,0.076,1.592,0.067,2.371
		C8.25,20.48,8.247,20.704,8.243,20.928z M8.043,16.376c1.05,0.065,2.126,0.104,3.207,0.117v-3.001
		c-0.482-0.011-0.968-0.035-1.448-0.072L9.63,13.406c-0.093-0.008-0.185-0.015-0.278-0.024c-0.636-0.057-1.259-0.136-1.858-0.236
		C7.732,14.201,7.916,15.284,8.043,16.376z M12.75,16.493c1.079-0.012,2.155-0.052,3.207-0.117c0.127-1.092,0.311-2.174,0.55-3.229
		c-0.613,0.102-1.252,0.182-1.906,0.24l-0.174,0.015c-0.101,0.008-0.2,0.016-0.301,0.023c-0.453,0.033-0.914,0.056-1.376,0.067
		V16.493z"/>
	<path d="M12,10.5c-2.464,0-4.95-0.696-4.95-2.25c0-0.414,0.336-0.75,0.75-0.75c0.4,0,0.727,0.314,0.749,0.708
		c0.144,0.198,1.083,0.652,2.701,0.765V2.561L9.53,4.28C9.389,4.422,9.2,4.5,9,4.5S8.611,4.422,8.47,4.28
		C8.328,4.139,8.25,3.95,8.25,3.75s0.078-0.389,0.22-0.53l2.999-2.999c0.07-0.07,0.152-0.125,0.245-0.163
		c0.008-0.003,0.016-0.006,0.025-0.009C11.825,0.016,11.912,0,12,0c0.089,0,0.177,0.016,0.261,0.048
		c0.007,0.002,0.014,0.005,0.02,0.007c0.097,0.04,0.179,0.095,0.25,0.166L15.53,3.22c0.142,0.141,0.22,0.33,0.22,0.53
		s-0.078,0.389-0.22,0.53S15.2,4.5,15,4.5s-0.389-0.078-0.53-0.22l-1.72-1.72v6.413c1.618-0.113,2.557-0.568,2.701-0.765
		C15.473,7.814,15.8,7.5,16.2,7.5c0.414,0,0.75,0.336,0.75,0.75C16.95,9.804,14.464,10.5,12,10.5z"/>
</g>
</svg>
