<?xml version="1.0" encoding="utf-8"?>
<!-- Generator: Adobe Illustrator 22.1.0, SVG Export Plug-In . SVG Version: 6.00 Build 0)  -->
<svg version="1.1" id="Layer_1" xmlns="http://www.w3.org/2000/svg" xmlns:xlink="http://www.w3.org/1999/xlink" x="0px" y="0px"
	 viewBox="0 0 24 24" style="enable-background:new 0 0 24 24;" xml:space="preserve">
<title>science-black-hole</title>
<g>
	<path d="M15.358,19.996c-1.582,0-3.139-0.443-4.501-1.28c-0.352-0.217-0.463-0.68-0.246-1.032c0.137-0.224,0.376-0.357,0.639-0.357
		c0.138,0,0.274,0.039,0.392,0.111c1.126,0.692,2.411,1.058,3.717,1.058c0.558,0,1.119-0.067,1.668-0.198
		c1.851-0.442,3.419-1.578,4.416-3.199c0.524-0.852,0.861-1.807,0.991-2.795l-5.57,3.095c-0.112,0.062-0.238,0.094-0.364,0.094H15
		c-0.414,0-0.75-0.336-0.75-0.75s0.336-0.75,0.75-0.75h1.306l4.05-2.25h-6.896c-0.23,2.193-1.44,3.75-2.959,3.75
		c-1.682,0-3-1.977-3-4.5s1.318-4.5,3-4.5c1.52,0,2.729,1.557,2.959,3.75h6.896l-4.05-2.25H15c-0.414,0-0.75-0.336-0.75-0.75
		s0.336-0.75,0.75-0.75h1.5c0.127,0,0.253,0.033,0.365,0.095L22.27,9.59c-0.458-1.783-1.582-3.32-3.165-4.293
		c-1.13-0.694-2.42-1.061-3.731-1.061c-1.312,0-2.602,0.367-3.731,1.061c-0.119,0.073-0.254,0.111-0.392,0.111
		c-0.263,0-0.502-0.134-0.639-0.357c-0.105-0.171-0.137-0.372-0.091-0.567c0.047-0.195,0.166-0.36,0.337-0.465
		c1.367-0.84,2.928-1.284,4.516-1.284s3.15,0.444,4.516,1.284c2.374,1.459,3.898,3.992,4.085,6.783
		c0.001,0.005,0.011,0.049,0.014,0.068c0.001,0.009,0.007,0.041,0.007,0.05C23.998,10.933,24,10.983,24,10.992
		c0,0.013-0.002,0.061-0.004,0.075c-0.001,0.007-0.003,0.022-0.005,0.034c0.054,1.689-0.384,3.342-1.269,4.782
		c-1.207,1.963-3.105,3.338-5.346,3.873C16.713,19.915,16.034,19.996,15.358,19.996z M10.5,7.992c-0.708,0-1.5,1.283-1.5,3
		c0,1.717,0.792,3,1.5,3c0.581,0,1.256-0.888,1.447-2.25H11.25c-0.414,0-0.75-0.336-0.75-0.75s0.336-0.75,0.75-0.75h0.697
		C11.756,8.881,11.081,7.992,10.5,7.992z"/>
	<path d="M2.25,7.992c-0.2,0-0.389-0.078-0.53-0.22C1.578,7.631,1.5,7.443,1.5,7.242s0.078-0.389,0.22-0.53l0.22-0.22H0.75
		C0.336,6.492,0,6.156,0,5.742s0.336-0.75,0.75-0.75h1.189l-0.22-0.22C1.578,4.631,1.5,4.443,1.5,4.242s0.078-0.389,0.22-0.53
		c0.141-0.142,0.33-0.22,0.53-0.22s0.389,0.078,0.53,0.22l1.28,1.28H6.75c0.414,0,0.75,0.336,0.75,0.75s-0.336,0.75-0.75,0.75H4.061
		l-1.28,1.28C2.639,7.914,2.45,7.992,2.25,7.992z"/>
	<path d="M2.25,18.492c-0.2,0-0.389-0.078-0.53-0.22c-0.292-0.292-0.292-0.768,0-1.061l0.22-0.22H0.75
		c-0.414,0-0.75-0.336-0.75-0.75s0.336-0.75,0.75-0.75h1.189l-0.22-0.22c-0.292-0.292-0.292-0.768,0-1.061
		c0.142-0.142,0.33-0.22,0.53-0.22s0.389,0.078,0.53,0.22l1.28,1.28H6.75c0.414,0,0.75,0.336,0.75,0.75s-0.336,0.75-0.75,0.75H4.061
		l-1.28,1.28C2.639,18.414,2.45,18.492,2.25,18.492z"/>
	<path d="M3.75,13.242c-0.2,0-0.389-0.078-0.53-0.22c-0.292-0.292-0.292-0.768,0-1.061l0.22-0.22H0.75
		c-0.414,0-0.75-0.336-0.75-0.75s0.336-0.75,0.75-0.75h2.689l-0.22-0.22C3.078,9.881,3,9.693,3,9.492s0.078-0.389,0.22-0.53
		c0.141-0.142,0.33-0.22,0.53-0.22s0.389,0.078,0.53,0.22l1.28,1.28H6c0.414,0,0.75,0.336,0.75,0.75s-0.336,0.75-0.75,0.75H5.561
		l-1.28,1.28C4.139,13.164,3.95,13.242,3.75,13.242z"/>
</g>
</svg>
