<?xml version="1.0" encoding="utf-8"?>
<!-- Generator: Adobe Illustrator 22.1.0, SVG Export Plug-In . SVG Version: 6.00 Build 0)  -->
<svg version="1.1" id="Layer_1" xmlns="http://www.w3.org/2000/svg" xmlns:xlink="http://www.w3.org/1999/xlink" x="0px" y="0px"
	 viewBox="0 0 24 24" style="enable-background:new 0 0 24 24;" xml:space="preserve">
<title>science-fiction-weapon</title>
<g>
	<path d="M17.249,20.25c-0.414,0-0.75-0.336-0.75-0.75s0.336-0.75,0.75-0.75h0.506l-1.433-5.016
		c-0.196,0.059-0.397,0.114-0.602,0.164c-0.194,1.48-1.448,2.602-2.971,2.602c-0.414,0-0.75-0.336-0.75-0.75S12.336,15,12.749,15
		c0.592,0,1.113-0.348,1.355-0.86c-0.548-0.035-1.057-0.265-1.448-0.656c-0.424-0.425-0.658-0.991-0.657-1.592V9.75h-1.5V12
		c0,0.414-0.336,0.75-0.75,0.75s-0.75-0.336-0.75-0.75V9.75h-1.5v0.75c0,0.414-0.336,0.75-0.75,0.75s-0.75-0.336-0.75-0.75V9.75
		H4.371c-0.314,0.885-1.162,1.5-2.121,1.5c-1.241,0-2.25-1.009-2.25-2.25s1.009-2.25,2.25-2.25c0.96,0,1.808,0.615,2.121,1.5h1.629
		V7.5c0-0.414,0.336-0.75,0.75-0.75s0.75,0.336,0.75,0.75v0.75h1.5V6c0-0.414,0.336-0.75,0.75-0.75s0.75,0.336,0.75,0.75v2.25h1.5
		V6.105c0-0.106,0.007-0.212,0.022-0.314c0.155-1.105,1.112-1.938,2.227-1.938c0.104,0,0.21,0.007,0.314,0.022
		c3.722,0.52,6.359,2.578,6.436,5.015l2.973,10.405c0.064,0.225,0.018,0.471-0.123,0.658c-0.14,0.187-0.364,0.298-0.598,0.298
		H17.249z M22.255,18.75l-2.727-9.544C19.509,9.139,19.499,9.069,19.499,9c0-1.665-2.212-3.23-5.146-3.64
		c-0.035-0.005-0.069-0.007-0.104-0.007c-0.372,0-0.692,0.278-0.743,0.646c-0.005,0.035-0.007,0.071-0.007,0.106v5.788
		c0,0.201,0.077,0.39,0.219,0.532c0.141,0.142,0.33,0.22,0.53,0.22c0.035,0,0.071-0.002,0.106-0.008
		c0.753-0.105,1.494-0.296,2.202-0.568c0.087-0.033,0.177-0.05,0.269-0.05c0.115,0,0.231,0.027,0.334,0.078
		c0.188,0.094,0.329,0.264,0.387,0.465l1.768,6.188H22.255z M2.249,8.25c-0.414,0-0.75,0.336-0.75,0.75s0.336,0.75,0.75,0.75
		S2.999,9.414,2.999,9S2.663,8.25,2.249,8.25z"/>
</g>
</svg>
