<?xml version="1.0" encoding="utf-8"?>
<!-- Generator: Adobe Illustrator 22.1.0, SVG Export Plug-In . SVG Version: 6.00 Build 0)  -->
<svg version="1.1" id="Layer_1" xmlns="http://www.w3.org/2000/svg" xmlns:xlink="http://www.w3.org/1999/xlink" x="0px" y="0px"
	 viewBox="0 0 24 24" style="enable-background:new 0 0 24 24;" xml:space="preserve">
<title>scooter</title>
<g>
	<path d="M18,22.5c-2.481,0-4.5-2.019-4.5-4.5h-3c0,2.481-2.019,4.5-4.5,4.5S1.5,20.481,1.5,18v-0.129
		c-1.088-0.385-1.721-1.549-1.426-2.686C0.787,12.426,3.278,10.5,6.13,10.5l2.87,0c0.078-0.005,0.175-0.007,0.272-0.007
		c1.77,0,3.476,0.843,4.562,2.256c0.252,0.327,0.19,0.799-0.137,1.052c-0.133,0.102-0.291,0.156-0.457,0.156
		c-0.235,0-0.452-0.107-0.595-0.293c-0.804-1.046-2.069-1.67-3.383-1.67c-0.074,0-0.148,0.002-0.223,0.006l-2.911,0
		c-2.167,0-4.06,1.464-4.602,3.561c-0.104,0.401,0.137,0.812,0.537,0.915C2.125,16.492,2.188,16.5,2.251,16.5H12.75
		c2.06,0,3.739-1.671,3.751-3.728c0-0.008-0.001-0.015-0.001-0.022c0-0.008,0-0.017,0.001-0.026V5.25c0-1.241-1.009-2.25-2.25-2.25
		h-1.5c-0.414,0-0.75-0.336-0.75-0.75s0.336-0.75,0.75-0.75h1.5c1.597,0,2.979,0.993,3.513,2.443C17.84,3.875,17.919,3.811,18,3.75
		c0.327-0.245,0.715-0.375,1.123-0.375c0.588,0,1.15,0.28,1.502,0.749C20.867,4.447,21,4.847,21,5.25v3
		c0,1.034-0.841,1.875-1.875,1.875c-0.403,0-0.802-0.133-1.124-0.374V12h2.382c1.587,0,3.007,1.005,3.536,2.5
		c0.019,0.053,0.032,0.111,0.039,0.169c0.087,0.807,0.05,1.618-0.11,2.412c-0.021,0.102-0.062,0.198-0.122,0.284
		C23.444,17.763,22.987,18,22.5,18C22.5,20.481,20.481,22.5,18,22.5z M15,18c0,1.654,1.346,3,3,3s3-1.346,3-3H15z M3,18
		c0,1.654,1.346,3,3,3s3-1.346,3-3H3z M22.428,16.5c0.081-0.523,0.097-1.052,0.048-1.578c-0.338-0.852-1.172-1.422-2.092-1.422
		h-2.441c-0.166,1.141-0.709,2.198-1.529,3H22.428z M19.124,4.875c-0.081,0-0.159,0.026-0.224,0.075
		c-0.171,0.128-0.322,0.279-0.45,0.45c-0.744,0.993-0.543,2.406,0.45,3.15c0.063,0.048,0.146,0.075,0.225,0.075
		c0.207,0,0.375-0.168,0.375-0.375v-3c0-0.081-0.027-0.161-0.075-0.225C19.354,4.93,19.244,4.875,19.124,4.875z"/>
	<path d="M3.75,9C3.337,9,3,8.664,3,8.25S3.337,7.5,3.75,7.5h7.5C11.664,7.5,12,7.836,12,8.25S11.664,9,11.25,9H3.75z"/>
</g>
</svg>
