<?xml version="1.0" encoding="utf-8"?>
<!-- Generator: Adobe Illustrator 22.1.0, SVG Export Plug-In . SVG Version: 6.00 Build 0)  -->
<svg version="1.1" id="Layer_1" xmlns="http://www.w3.org/2000/svg" xmlns:xlink="http://www.w3.org/1999/xlink" x="0px" y="0px"
	 viewBox="0 0 24 24" style="enable-background:new 0 0 24 24;" xml:space="preserve">
<title>scooter-3</title>
<g>
	<path d="M12,24c-1.241,0-2.25-1.009-2.25-2.25V21H9c-1.237,0-2.289-0.844-2.557-2.052L4.419,9.842
		c-0.002-0.008-0.004-0.02-0.005-0.029c-0.046-0.212-0.07-0.436-0.07-0.655c0-0.052,0.001-0.105,0.004-0.158H1.5
		C1.086,9,0.75,8.664,0.75,8.25S1.086,7.5,1.5,7.5h3.314c0.129-0.209,0.281-0.401,0.454-0.575C5.681,6.512,6.188,6.228,6.75,6.092
		V5.25C6.75,2.355,9.105,0,12,0c2.895,0,5.25,2.355,5.25,5.25v0.842c0.562,0.135,1.069,0.42,1.482,0.833
		c0.173,0.173,0.325,0.366,0.454,0.575H22.5c0.414,0,0.75,0.336,0.75,0.75S22.914,9,22.5,9h-2.848
		c0.003,0.053,0.004,0.105,0.004,0.158c0,0.219-0.024,0.443-0.072,0.664l-2.028,9.126C17.289,20.156,16.237,21,15,21h-0.75v0.75
		C14.25,22.991,13.241,24,12,24z M12,15c-0.414,0-0.75,0.336-0.75,0.75v6c0,0.414,0.336,0.75,0.75,0.75s0.75-0.336,0.75-0.75v-6
		C12.75,15.336,12.414,15,12,15z M15,19.5c0.529,0,0.978-0.361,1.093-0.877l1.771-7.967l-2.708,0.578
		C15.104,11.245,15.052,11.25,15,11.25c-0.351,0-0.659-0.25-0.733-0.594c-0.042-0.196-0.005-0.396,0.104-0.564
		c0.109-0.168,0.277-0.284,0.473-0.325l3.31-0.706c-0.023-0.406-0.192-0.785-0.482-1.075C17.358,7.673,16.942,7.5,16.5,7.5h-9
		c-0.443,0-0.859,0.173-1.171,0.486C6.039,8.276,5.87,8.654,5.846,9.06l3.31,0.706c0.404,0.086,0.663,0.485,0.577,0.89
		C9.66,11,9.352,11.25,9,11.25c-0.052,0-0.105-0.006-0.157-0.017l-2.707-0.578l1.771,7.967C8.022,19.139,8.471,19.5,9,19.5h0.75
		v-3.75c0-1.241,1.009-2.25,2.25-2.25c1.241,0,2.25,1.009,2.25,2.25v3.75H15z M15.75,6V5.25c0-2.068-1.682-3.75-3.75-3.75
		c-2.068,0-3.75,1.682-3.75,3.75V6H15.75z"/>
</g>
</svg>
