<?xml version="1.0" encoding="utf-8"?>
<!-- Generator: Adobe Illustrator 22.1.0, SVG Export Plug-In . SVG Version: 6.00 Build 0)  -->
<svg version="1.1" id="Layer_1" xmlns="http://www.w3.org/2000/svg" xmlns:xlink="http://www.w3.org/1999/xlink" x="0px" y="0px"
	 viewBox="0 0 24 24" style="enable-background:new 0 0 24 24;" xml:space="preserve">
<title>sea-transport-bark</title>
<g>
	<path d="M22.564,24.056c-1.368,0-2.7-0.453-3.785-1.28c-0.878,0.737-1.979,1.172-3.134,1.231c-0.09,0.004-0.178,0.007-0.266,0.007
		c-1.239,0-2.43-0.429-3.379-1.214c-0.946,0.784-2.133,1.212-3.378,1.212c-1.249,0-2.449-0.438-3.401-1.236
		c-1.085,0.828-2.417,1.281-3.786,1.281c-0.258,0-0.52-0.016-0.778-0.048c-0.199-0.024-0.376-0.125-0.499-0.283
		s-0.177-0.354-0.153-0.553c0.047-0.375,0.366-0.658,0.744-0.658c0.03,0,0.061,0.002,0.092,0.006
		c0.197,0.024,0.396,0.037,0.593,0.037c1.233,0,2.403-0.473,3.295-1.333c0.141-0.135,0.325-0.21,0.518-0.21c0.005,0,0.025,0,0.03,0
		c0.199,0.007,0.393,0.096,0.528,0.246c0.086,0.096,0.178,0.188,0.274,0.275c0.698,0.63,1.601,0.977,2.543,0.977
		c1.075,0,2.103-0.456,2.82-1.25c0.138-0.154,0.341-0.242,0.557-0.242c0.215,0,0.418,0.088,0.557,0.241
		c0.086,0.095,0.178,0.188,0.274,0.275c0.699,0.631,1.598,0.979,2.531,0.979c0.068,0,0.137-0.002,0.206-0.006
		c1.014-0.052,1.946-0.495,2.626-1.247c0.135-0.15,0.329-0.24,0.531-0.247c0.004,0,0.03-0.001,0.034-0.001
		c0.187,0,0.373,0.077,0.512,0.21c0.892,0.859,2.063,1.332,3.297,1.332c0.196,0,0.395-0.012,0.591-0.036
		c0.031-0.004,0.062-0.006,0.092-0.006c0.378,0,0.698,0.283,0.744,0.657c0.025,0.198-0.029,0.395-0.153,0.553
		c-0.123,0.158-0.301,0.259-0.5,0.283C23.083,24.04,22.822,24.056,22.564,24.056z"/>
	<path d="M18.477,20.243c-0.09,0-0.178-0.016-0.262-0.047c-0.188-0.07-0.337-0.209-0.42-0.391s-0.09-0.386-0.02-0.574L12,17.309
		l-5.775,1.921c0.133,0.395-0.073,0.825-0.459,0.959c-0.083,0.029-0.169,0.043-0.255,0.043l0,0c-0.314,0-0.586-0.19-0.693-0.483
		l-0.015-0.042c-0.128-0.382-0.099-0.788,0.08-1.147c0.179-0.359,0.487-0.626,0.867-0.754l5.5-1.829v-0.969
		c-7.642-0.086-9.927-1.462-10.166-1.62c-0.258-0.172-0.382-0.478-0.318-0.781l2.056-9.593H1.5c-0.414,0-0.75-0.336-0.75-0.75
		s0.336-0.75,0.75-0.75h9.75v-0.75c0-0.414,0.336-0.75,0.75-0.75s0.75,0.336,0.75,0.75v0.75h9.75c0.414,0,0.75,0.336,0.75,0.75
		s-0.336,0.75-0.75,0.75h-1.322l2.056,9.593c0.065,0.303-0.06,0.61-0.318,0.781c-0.239,0.159-2.524,1.534-10.166,1.621v0.969
		l5.533,1.841c0.79,0.295,1.186,1.162,0.897,1.937C19.07,20.047,18.788,20.243,18.477,20.243z M2.358,12.339
		c0.982,0.383,3.73,1.175,9.642,1.175c5.912,0,8.66-0.792,9.642-1.175l-1.998-9.325H4.356L2.358,12.339z"/>
</g>
</svg>
