<?xml version="1.0" encoding="utf-8"?>
<!-- Generator: Adobe Illustrator 22.1.0, SVG Export Plug-In . SVG Version: 6.00 Build 0)  -->
<svg version="1.1" id="Layer_1" xmlns="http://www.w3.org/2000/svg" xmlns:xlink="http://www.w3.org/1999/xlink" x="0px" y="0px"
	 viewBox="0 0 24 24" style="enable-background:new 0 0 24 24;" xml:space="preserve">
<title>sea-transport-small-boat</title>
<g>
	<path d="M22.564,21.057c-1.369,0-2.7-0.453-3.786-1.281c-0.952,0.798-2.152,1.236-3.402,1.236c-1.245,0-2.431-0.428-3.378-1.212
		c-0.948,0.784-2.14,1.214-3.382,1.214c-0.087,0-0.174-0.002-0.261-0.006c-1.157-0.059-2.258-0.494-3.135-1.231
		c-1.085,0.828-2.417,1.28-3.785,1.28c-0.259,0-0.52-0.016-0.778-0.048c-0.199-0.024-0.376-0.125-0.499-0.283
		s-0.177-0.354-0.153-0.553c0.047-0.375,0.366-0.658,0.743-0.658c0.031,0,0.062,0.002,0.094,0.006
		c0.195,0.024,0.394,0.036,0.59,0.036c1.234,0,2.405-0.473,3.296-1.332c0.14-0.135,0.323-0.21,0.515-0.21
		c0.006,0,0.032,0.001,0.038,0.001c0.195,0.007,0.389,0.097,0.524,0.247c0.68,0.752,1.612,1.196,2.624,1.247
		c0.07,0.004,0.138,0.006,0.207,0.006c0.933,0,1.832-0.348,2.531-0.979c0.096-0.086,0.188-0.178,0.274-0.274
		c0.142-0.157,0.345-0.247,0.557-0.247c0.212,0,0.415,0.09,0.557,0.248c0.717,0.794,1.745,1.25,2.82,1.25
		c0.942,0,1.845-0.347,2.543-0.977c0.094-0.085,0.187-0.177,0.274-0.274c0.135-0.15,0.328-0.24,0.53-0.246
		c0.004,0,0.03-0.001,0.034-0.001c0.186,0,0.373,0.077,0.512,0.21c0.892,0.859,2.063,1.332,3.296,1.332
		c0.196,0,0.395-0.012,0.591-0.036c0.031-0.004,0.062-0.006,0.092-0.006c0.378,0,0.698,0.283,0.744,0.658
		c0.025,0.198-0.029,0.395-0.153,0.553c-0.123,0.158-0.301,0.259-0.5,0.283C23.086,21.04,22.824,21.056,22.564,21.057
		C22.565,21.057,22.565,21.057,22.564,21.057z"/>
	<path d="M2.25,18.014c-0.414,0-0.75-0.336-0.75-0.75v-1.5c0-1.241,1.009-2.25,2.25-2.25H4.5v-2.25c0-0.414-0.336-0.75-0.75-0.75
		c-1.241,0-2.25-1.009-2.25-2.25s1.009-2.25,2.25-2.25h4.439L6.164,3.483C5.906,3.16,5.958,2.687,6.281,2.428
		C6.414,2.322,6.58,2.264,6.75,2.264c0.229,0,0.443,0.103,0.586,0.281l2.775,3.469h1.222c0.639,0.001,1.249,0.275,1.674,0.75
		l2.222,2.469c0.018,0.018,0.034,0.037,0.051,0.056l3.803,4.225H22.5c0.402,0.001,0.779,0.157,1.062,0.442
		c0.283,0.284,0.438,0.661,0.438,1.062c-0.001,0.287-0.083,0.566-0.237,0.807l-1.025,1.593c-0.139,0.216-0.375,0.344-0.632,0.344
		c-0.144,0-0.284-0.041-0.405-0.119c-0.348-0.224-0.449-0.689-0.225-1.037l1.024-1.592l-18.75,0c-0.414,0-0.75,0.336-0.75,0.75v1.5
		C3,17.678,2.663,18.014,2.25,18.014z M17.063,13.514l-2.7-3H9.75c-0.414,0-0.75-0.336-0.75-0.75s0.336-0.75,0.75-0.75h3.263
		L11.89,7.766c-0.143-0.16-0.347-0.251-0.559-0.252H3.75C3.336,7.514,3,7.851,3,8.264s0.336,0.75,0.75,0.75
		c1.241,0,2.25,1.009,2.25,2.25v2.25H17.063z"/>
</g>
</svg>
