<?xml version="1.0" encoding="utf-8"?>
<!-- Generator: Adobe Illustrator 22.1.0, SVG Export Plug-In . SVG Version: 6.00 Build 0)  -->
<svg version="1.1" id="Layer_1" xmlns="http://www.w3.org/2000/svg" xmlns:xlink="http://www.w3.org/1999/xlink" x="0px" y="0px"
	 viewBox="0 0 24 24" style="enable-background:new 0 0 24 24;" xml:space="preserve">
<title>sea-transport-ship-cargo</title>
<g>
	<path d="M1.435,24.056c-0.258,0-0.52-0.016-0.777-0.048c-0.199-0.024-0.376-0.125-0.499-0.283s-0.177-0.354-0.153-0.553
		c0.047-0.375,0.367-0.658,0.744-0.658c0.03,0,0.061,0.002,0.092,0.006c0.197,0.024,0.396,0.037,0.593,0.037
		c1.233,0,2.403-0.473,3.295-1.333c0.14-0.136,0.322-0.21,0.51-0.21c0.009,0,0.041,0.001,0.05,0.002
		c0.188,0.006,0.382,0.096,0.517,0.247c0.68,0.752,1.612,1.196,2.624,1.247c0.07,0.004,0.139,0.006,0.208,0.006
		c0.932,0,1.831-0.348,2.53-0.979c0.096-0.086,0.188-0.178,0.274-0.274c0.142-0.157,0.345-0.247,0.557-0.247
		c0.212,0,0.415,0.09,0.557,0.248c0.717,0.794,1.745,1.25,2.82,1.25c0.942,0,1.845-0.347,2.543-0.977
		c0.094-0.085,0.187-0.177,0.274-0.274c0.135-0.15,0.328-0.24,0.53-0.246c0,0,0.019-0.001,0.038-0.001
		c0.185,0,0.37,0.077,0.509,0.211c0.892,0.859,2.063,1.332,3.296,1.332c0.197,0,0.396-0.012,0.592-0.036
		c0.031-0.004,0.062-0.006,0.091-0.006c0.378,0,0.698,0.283,0.745,0.657c0.025,0.198-0.029,0.395-0.153,0.553
		c-0.123,0.158-0.301,0.259-0.5,0.283c-0.257,0.032-0.519,0.048-0.777,0.048c-1.369,0-2.7-0.453-3.786-1.281
		c-0.951,0.798-2.152,1.236-3.402,1.236c-1.245,0-2.431-0.428-3.378-1.212c-0.948,0.784-2.14,1.214-3.382,1.214
		c-0.087,0-0.174-0.002-0.261-0.006c-1.157-0.059-2.258-0.494-3.135-1.231C4.135,23.604,2.803,24.056,1.435,24.056z"/>
	<path d="M22.275,21.199c-0.176,0-0.347-0.062-0.482-0.176c-0.154-0.129-0.248-0.31-0.265-0.51
		c-0.017-0.199,0.044-0.394,0.173-0.547c0.134-0.159,0.244-0.307,0.336-0.452H2.305c0.073,0.101,0.152,0.194,0.238,0.281
		c0.289,0.296,0.283,0.771-0.013,1.061c-0.141,0.137-0.327,0.213-0.524,0.213l0,0c-0.204,0-0.394-0.08-0.537-0.226
		c-1.468-1.502-1.468-3.667-1.468-5.761c-0.017-0.364,0.117-0.755,0.369-1.056c0.306-0.335,0.703-0.512,1.129-0.512H6v-3.75
		c0-0.96,0.615-1.808,1.5-2.121V4.264c0-0.689,0.561-1.25,1.25-1.25h2c0.689,0,1.25,0.561,1.25,1.25v3.327
		c0.896,0.182,1.694,0.687,2.248,1.423h7.502c0.414,0,0.75,0.336,0.75,0.75s-0.336,0.75-0.75,0.75H21v1.629
		c0.885,0.314,1.5,1.162,1.5,2.121v0.75c0.419,0,0.822,0.178,1.106,0.487c0.274,0.326,0.409,0.718,0.39,1.115
		c0.002,0.898,0.004,1.622-0.127,2.282c-0.001,0.006-0.007,0.036-0.009,0.042c-0.145,0.715-0.458,1.334-1.011,1.992
		C22.706,21.101,22.497,21.199,22.275,21.199z M22.472,18.014c0.027-0.399,0.026-0.869,0.025-1.431
		c0.001-0.032-0.002-0.053-0.006-0.068l-11.642-0.001c-0.802,0-1.549-0.431-1.949-1.125c-0.134-0.231-0.382-0.375-0.649-0.375H1.504
		c0,0.005-0.003,0.019-0.002,0.034c0,1.024,0.001,2.065,0.187,2.966H22.472z M8.249,13.514c0.802,0,1.549,0.431,1.949,1.125
		c0.134,0.231,0.383,0.375,0.65,0.375H21v-0.75c0-0.414-0.336-0.75-0.75-0.75h-4.5c-1.241,0-2.25-1.009-2.25-2.25
		c0-1.241-1.009-2.25-2.25-2.25h-3c-0.414,0-0.75,0.336-0.75,0.75v0.75h2.25c0.414,0,0.75,0.336,0.75,0.75s-0.336,0.75-0.75,0.75
		H7.5v1.5H8.249z M19.5,12.014v-1.5H18v1.5H19.5z M14.922,10.514C14.974,10.762,15,11.013,15,11.264c0,0.414,0.336,0.75,0.75,0.75
		h0.75v-1.5H14.922z M10.5,7.514v-3H9v3H10.5z"/>
	<path d="M16.658,3.018c-0.064,0-0.128-0.002-0.193-0.005c0,0-0.001,0-0.002,0c-1.405,0-2.095-0.493-2.649-0.889
		C13.318,1.77,12.959,1.514,12,1.514c-0.062-0.003-0.105-0.004-0.149-0.004c-0.602,0-1.163,0.201-1.623,0.582
		C10.094,2.203,9.924,2.264,9.75,2.264c0,0,0,0,0,0c-0.224,0-0.435-0.099-0.578-0.272C9.044,1.838,8.984,1.643,9.003,1.443
		c0.019-0.199,0.114-0.38,0.269-0.507c0.722-0.597,1.636-0.926,2.575-0.926c0.063,0,0.126,0.001,0.189,0.004
		c0.001,0,0.001,0,0.002,0c1.405,0,2.094,0.493,2.649,0.889c0.496,0.354,0.855,0.61,1.814,0.61c0.06,0.002,0.102,0.003,0.144,0.003
		c0.605,0,1.168-0.201,1.628-0.581c0.134-0.111,0.303-0.172,0.478-0.172c0.225,0,0.435,0.099,0.578,0.272
		c0.263,0.319,0.219,0.793-0.1,1.056C18.506,2.689,17.593,3.018,16.658,3.018z"/>
</g>
</svg>
