<?xml version="1.0" encoding="utf-8"?>
<!-- Generator: Adobe Illustrator 22.1.0, SVG Export Plug-In . SVG Version: 6.00 Build 0)  -->
<svg version="1.1" id="Layer_1" xmlns="http://www.w3.org/2000/svg" xmlns:xlink="http://www.w3.org/1999/xlink" x="0px" y="0px"
	 viewBox="0 0 24 24" style="enable-background:new 0 0 24 24;" xml:space="preserve">
<title>sea-transport-buoy</title>
<g>
	<path d="M1.437,23.056c-0.259,0-0.521-0.016-0.78-0.048c-0.199-0.024-0.376-0.125-0.499-0.283s-0.177-0.354-0.153-0.553
		c0.047-0.375,0.367-0.658,0.744-0.658c0.03,0,0.061,0.002,0.092,0.006c0.197,0.024,0.396,0.037,0.592,0.037
		c1.233,0,2.404-0.473,3.296-1.332c0.14-0.135,0.323-0.21,0.514-0.21c0.007,0,0.033,0.001,0.04,0.001
		c0.194,0.007,0.388,0.097,0.523,0.247c0.68,0.752,1.612,1.196,2.624,1.247c0.072,0.004,0.142,0.006,0.212,0.006
		c0.93,0,1.827-0.348,2.527-0.979c0.096-0.086,0.188-0.178,0.274-0.274c0.142-0.157,0.345-0.247,0.557-0.247
		c0.212,0,0.415,0.09,0.557,0.248c0.717,0.794,1.745,1.25,2.82,1.25c0.942,0,1.845-0.347,2.543-0.977
		c0.094-0.085,0.187-0.177,0.274-0.274c0.135-0.15,0.328-0.24,0.53-0.246c0.004,0,0.032-0.001,0.036-0.001
		c0.185,0,0.371,0.077,0.51,0.211c0.892,0.859,2.062,1.332,3.296,1.332c0.197,0,0.396-0.012,0.592-0.036
		c0.031-0.004,0.062-0.006,0.092-0.006c0.378,0,0.698,0.283,0.744,0.657c0.025,0.198-0.029,0.395-0.153,0.553
		c-0.123,0.158-0.301,0.259-0.5,0.283c-0.256,0.032-0.518,0.048-0.777,0.048c-1.369,0-2.701-0.453-3.786-1.281
		c-0.951,0.798-2.152,1.236-3.401,1.236c-1.245,0-2.431-0.428-3.378-1.212c-0.948,0.784-2.14,1.214-3.382,1.214
		c-0.087,0-0.174-0.002-0.261-0.006c-1.157-0.059-2.258-0.494-3.135-1.231C4.135,22.604,2.804,23.056,1.437,23.056z"/>
	<path d="M12,18.514c-2.068,0-3.75-1.682-3.75-3.75c0-1.799,1.268-3.323,3-3.673V1.264c0-0.414,0.336-0.75,0.75-0.75
		s0.75,0.336,0.75,0.75v0.75H18c0.414,0,0.75,0.336,0.75,0.75s-0.336,0.75-0.75,0.75h-5.25v1.5H18c0.414,0,0.75,0.336,0.75,0.75
		s-0.336,0.75-0.75,0.75h-5.25v4.577c1.732,0.351,3,1.874,3,3.673C15.75,16.832,14.068,18.514,12,18.514z M12,12.514
		c-1.241,0-2.25,1.009-2.25,2.25s1.009,2.25,2.25,2.25c1.241,0,2.25-1.009,2.25-2.25S13.241,12.514,12,12.514z"/>
	<path d="M22.564,18.556c-1.375,0-2.713-0.457-3.802-1.293c-0.291,0.235-0.603,0.443-0.93,0.622c-0.11,0.06-0.234,0.091-0.358,0.091
		l0,0c-0.275,0-0.527-0.15-0.659-0.391c-0.096-0.176-0.118-0.379-0.061-0.571s0.185-0.351,0.361-0.447
		c0.406-0.221,0.777-0.5,1.102-0.83c0.142-0.144,0.332-0.223,0.534-0.223c0.195,0,0.38,0.074,0.52,0.21
		c0.892,0.859,2.063,1.333,3.297,1.333c0.196,0,0.395-0.012,0.591-0.036c0.031-0.004,0.062-0.006,0.093-0.006
		c0.377,0,0.697,0.283,0.743,0.658c0.025,0.199-0.029,0.395-0.153,0.553c-0.123,0.158-0.301,0.259-0.5,0.283
		C23.083,18.54,22.822,18.556,22.564,18.556z"/>
	<path d="M1.435,18.556c-0.257,0-0.519-0.016-0.777-0.048c-0.41-0.051-0.703-0.426-0.652-0.836c0.047-0.375,0.366-0.658,0.743-0.658
		c0.031,0,0.063,0.002,0.095,0.006c0.195,0.024,0.394,0.036,0.59,0.036c1.233,0,2.404-0.473,3.296-1.332
		c0.14-0.135,0.325-0.21,0.52-0.21c0.202,0,0.392,0.079,0.534,0.224c0.325,0.33,0.695,0.609,1.101,0.83
		c0.363,0.198,0.498,0.654,0.3,1.017c-0.132,0.242-0.384,0.391-0.659,0.391c-0.125,0-0.248-0.031-0.358-0.091
		c-0.328-0.179-0.64-0.387-0.931-0.622C4.149,18.099,2.811,18.556,1.435,18.556C1.435,18.556,1.435,18.556,1.435,18.556z"/>
</g>
</svg>
