<?xml version="1.0" encoding="utf-8"?>
<!-- Generator: Adobe Illustrator 22.1.0, SVG Export Plug-In . SVG Version: 6.00 Build 0)  -->
<svg version="1.1" id="Regular" xmlns="http://www.w3.org/2000/svg" xmlns:xlink="http://www.w3.org/1999/xlink" x="0px" y="0px"
	 viewBox="0 0 24 24" style="enable-background:new 0 0 24 24;" xml:space="preserve">
<title>seafood-fish</title>
<g>
	<path d="M6.734,23.996c-0.645,0-1.214-0.411-1.417-1.022c-0.009-0.026-0.015-0.051-0.021-0.076L4.53,19.466L1.095,18.7
		c-0.024-0.005-0.048-0.012-0.072-0.02c-0.378-0.125-0.685-0.39-0.864-0.745c-0.37-0.735-0.073-1.634,0.662-2.004l5.244-2.334
		c0.116-0.613,0.252-1.225,0.404-1.824L4.226,9.531C3.563,8.896,3.37,7.896,3.753,7.048c1.168-2.4,4.343-4.124,7.758-4.233
		c2.222-1.867,5.038-2.813,8.374-2.813c0.66,0,1.35,0.037,2.051,0.112c1.033,0.117,1.833,0.917,1.95,1.945
		c0.45,4.255-0.459,7.762-2.701,10.43c-0.109,3.415-1.829,6.588-4.213,7.749c-0.301,0.136-0.609,0.202-0.925,0.202
		c-0.598,0-1.177-0.247-1.589-0.676l-2.228-2.233c-0.6,0.152-1.213,0.288-1.826,0.404l-2.322,5.208
		c-0.191,0.381-0.5,0.652-0.878,0.777C7.051,23.971,6.893,23.996,6.734,23.996z M5.322,18.106c0.283,0.063,0.506,0.287,0.569,0.569
		l0.847,3.798l2.246-5.039l-2.418-2.418l-5.041,2.243L5.322,18.106z M15.529,18.714c0.14,0.146,0.328,0.227,0.52,0.227
		c0.099,0,0.196-0.021,0.286-0.062c1.427-0.695,2.64-2.559,3.127-4.717c-1.498,1.202-3.371,2.172-5.587,2.894L15.529,18.714z
		 M10.129,16.458c8.959-1.692,13.086-6.481,12.266-14.236c-0.037-0.325-0.293-0.58-0.623-0.618c-0.644-0.068-1.28-0.103-1.885-0.103
		c-6.641,0-10.794,4.161-12.345,12.369L10.129,16.458z M9.837,4.537C7.679,5.025,5.813,6.243,5.111,7.684
		c-0.113,0.25-0.047,0.573,0.164,0.775l1.668,1.667C7.664,7.909,8.635,6.035,9.837,4.537z"/>
	<circle cx="16.874" cy="4.876" r="1.125"/>
</g>
</svg>
