<?xml version="1.0" encoding="utf-8"?>
<!-- Generator: Adobe Illustrator 22.1.0, SVG Export Plug-In . SVG Version: 6.00 Build 0)  -->
<svg version="1.1" id="Regular" xmlns="http://www.w3.org/2000/svg" xmlns:xlink="http://www.w3.org/1999/xlink" x="0px" y="0px"
	 viewBox="0 0 24 24" style="enable-background:new 0 0 24 24;" xml:space="preserve">
<title>seafood-shrimp</title>
<g>
	<path d="M2.25,24c-0.123,0-0.246-0.031-0.354-0.089C1.652,23.781,1.5,23.527,1.5,23.25v-6c0-0.277,0.152-0.531,0.396-0.661
		C2.005,16.531,2.127,16.5,2.25,16.5c0.148,0,0.292,0.043,0.416,0.126l3.5,2.333C6.749,16.666,8.84,15,11.25,15h2.25v-3h-2.25
		C5.047,12,0,6.953,0,0.75C0,0.336,0.336,0,0.75,0H13.5C19.29,0,24,4.71,24,10.5c0,0.238-0.008,0.477-0.024,0.712
		c0.001,0.013,0.001,0.025,0.001,0.038c0,0.051-0.005,0.102-0.015,0.152c-0.208,2.43-1.27,4.726-2.995,6.472
		c-0.011,0.016-0.025,0.033-0.043,0.05c-0.014,0.014-0.032,0.029-0.052,0.043c-1.763,1.741-4.085,2.805-6.545,2.998
		c-0.015,0.003-0.046,0.006-0.078,0.006c-0.001,0-0.003,0-0.004,0C13.97,20.99,13.726,21,13.5,21H6.977l-4.311,2.874
		C2.542,23.957,2.398,24,2.25,24z M3,21.849l2.398-1.599L3,18.651V21.849z M13.5,19.5v-3h-2.25c-1.782,0-3.322,1.288-3.674,3H13.5z
		 M15,19.373c1.594-0.268,3.069-0.954,4.307-2.005L15,13.061V19.373z M20.368,16.308c1.052-1.24,1.739-2.715,2.007-4.308h-6.315
		L20.368,16.308z M22.5,10.5c0-1.776-0.513-3.478-1.489-4.95l-4.951,4.95H22.5z M1.528,1.5c0.383,5.078,4.581,9,9.722,9h2.206
		c-0.27-2.768-1.809-9-5.206-9H1.528z M11.568,1.5c0.8,0.813,1.493,1.944,2.066,3.378c0.734,1.835,1.074,3.64,1.224,4.704
		l5.217-5.217C18.372,2.54,15.995,1.5,13.5,1.5H11.568z"/>
	<circle cx="8.625" cy="5.625" r="1.125"/>
</g>
</svg>
