<?xml version="1.0" encoding="utf-8"?>
<!-- Generator: Adobe Illustrator 22.1.0, SVG Export Plug-In . SVG Version: 6.00 Build 0)  -->
<svg version="1.1" id="Regular" xmlns="http://www.w3.org/2000/svg" xmlns:xlink="http://www.w3.org/1999/xlink" x="0px" y="0px"
	 viewBox="0 0 24 24" style="enable-background:new 0 0 24 24;" xml:space="preserve">
<title>seafood-tuna</title>
<g>
	<path d="M5.5,15.002c-0.178,0-0.351-0.064-0.487-0.179c-0.199-0.17-0.296-0.436-0.253-0.694l0.723-4.336
		C4.863,9.311,4.355,8.865,4.012,8.55L1.53,11.032c-0.142,0.142-0.33,0.22-0.53,0.22s-0.389-0.078-0.53-0.22
		c-0.142-0.141-0.22-0.33-0.22-0.53s0.078-0.389,0.22-0.53l2.47-2.47l-2.47-2.47c-0.142-0.141-0.22-0.33-0.22-0.53
		s0.078-0.389,0.22-0.53C0.611,3.83,0.8,3.752,1,3.752s0.389,0.078,0.53,0.22l2.493,2.493C5.148,5.494,7.513,3.752,10,3.752h0.75v-3
		c0-0.414,0.336-0.75,0.75-0.75c2.818,0,5.448,2.714,6.349,3.75H23.5c0.205,0,0.404,0.085,0.544,0.234
		c0.141,0.148,0.215,0.351,0.205,0.555c-0.093,1.743-0.655,3.429-1.626,4.878c-1.315,1.973-5.429,3.309-10.249,3.332l-6.637,2.212
		C5.661,14.989,5.581,15.002,5.5,15.002z M6.445,13.146l2.991-0.997c-0.83-0.329-1.697-0.791-2.595-1.381L6.445,13.146z
		 M5.108,7.516c1.284,1.159,4.445,3.736,7.142,3.736c4.189,0,8.112-1.146,9.126-2.666c0.67-1,1.114-2.145,1.294-3.334H10
		C8.065,5.252,6.026,6.749,5.108,7.516z M15.759,3.752c-0.855-0.802-2.176-1.849-3.509-2.159v2.159H15.759z"/>
	<circle cx="17.875" cy="7.127" r="1.125"/>
	<path d="M12.25,9.002c-0.081,0-0.161-0.013-0.238-0.039l-2.249-0.75C9.573,8.15,9.419,8.016,9.329,7.837S9.225,7.455,9.289,7.264
		C9.391,6.958,9.677,6.752,10,6.752c0.081,0,0.161,0.013,0.238,0.039l2.249,0.75c0.19,0.063,0.344,0.197,0.434,0.376
		c0.089,0.179,0.104,0.382,0.041,0.572C12.86,8.796,12.574,9.002,12.25,9.002z"/>
	<path d="M8.005,24.018c-3.879,0-7.137-2.796-7.745-6.649c-0.034-0.217,0.028-0.437,0.17-0.604C0.573,16.597,0.781,16.502,1,16.502
		h22.5c0.414,0,0.75,0.336,0.75,0.75v3c0,0.414-0.336,0.75-0.75,0.75h-5.25v2.25c0,0.414-0.336,0.75-0.75,0.75h-9
		C8.351,24.012,8.177,24.018,8.005,24.018L8.005,24.018z M1.939,18.002c0.807,2.681,3.246,4.515,6.087,4.515
		c0.141,0,0.283-0.005,0.426-0.014l8.298-0.001v-1.5H10c-3.728,0-4.81-1.906-5.123-3H1.939z M22.75,19.502v-1.5h-4.5v1.5H22.75z
		 M6.468,18.002c0.358,0.696,1.263,1.5,3.532,1.5h6.75v-1.5H6.468z"/>
</g>
</svg>
