<svg id="Outline_Version" data-name="Outline Version" xmlns="http://www.w3.org/2000/svg" viewBox="0 0 24 24"><title>search-engine-bing-1</title><path d="M12,8.64c-4.46,0-7.95,2.38-7.95,5.41S7.54,19.46,12,19.46s7.95-2.38,7.95-5.41S16.46,8.64,12,8.64ZM12,18c-3.5,0-6.45-1.79-6.45-3.91s3-3.91,6.45-3.91,6.45,1.79,6.45,3.91S15.5,18,12,18Z"/><path d="M12,11.51c-1.82,0-3.25,1.12-3.25,2.54s1.43,2.54,3.25,2.54,3.25-1.12,3.25-2.54S13.82,11.51,12,11.51Zm0,3.58c-1,0-1.75-.55-1.75-1S11,13,12,13s1.75.55,1.75,1S13,15.09,12,15.09Z"/><path d="M12,5.61a16.86,16.86,0,0,0-6.59,1.3V2.25a.75.75,0,0,0-.75-.75H.75A.75.75,0,0,0,0,2.25v12a.72.72,0,0,0,0,.18c.3,4.53,5.52,8,12,8,6.62,0,12-3.79,12-8.45S18.62,5.61,12,5.61ZM12,21C6.37,21,1.67,18,1.51,14.24a.78.78,0,0,0,0-.12V3H3.91V8.12A.75.75,0,0,0,5,8.77a14.59,14.59,0,0,1,7-1.66c5.79,0,10.5,3.12,10.5,6.95S17.79,21,12,21Z"/></svg>