<svg id="Outline_Version" data-name="Outline Version" xmlns="http://www.w3.org/2000/svg" viewBox="0 0 24 24"><title>search-engine-bing-2</title><path d="M9.08,2.09l-4.4-2A.75.75,0,0,0,3.63.8V20.43A.75.75,0,0,0,4,21.1l5.38,2.77a.75.75,0,0,0,.69,0L20,18.63a.75.75,0,0,0,.4-.66V12.54a.75.75,0,0,0-.48-.7L11.41,8.59a.75.75,0,0,0-1,.86l1,4.44a.75.75,0,0,0,.46.53l1.67.66-4,2V2.77A.75.75,0,0,0,9.08,2.09Zm6.63,13.59a.75.75,0,0,0-.06-1.37l-2.88-1.13-.6-2.69,6.69,2.57v4.46L9.75,22.35,5.13,20V2L8,3.26v15a.75.75,0,0,0,1.08.67Z"/></svg>