<svg id="Outline_Version" data-name="Outline Version" xmlns="http://www.w3.org/2000/svg" viewBox="0 0 24 24"><title>search-engine-yahoo</title><path d="M0,6.64a.75.75,0,0,0,.75.75H3.36L8.8,14.16v2.63c-.94.18-2.09.4-2.35.42a.75.75,0,0,0-.69.67L5.6,19.54a.75.75,0,0,0,.75.82h9.08a.75.75,0,0,0,.64-.36l1-1.66a.75.75,0,0,0-.5-1.13l-2.36-.43V14.54l5.31-5.18H21a.75.75,0,0,0,.7-.48l.87-2.26a.75.75,0,0,0-.7-1H13.16a.75.75,0,0,0-.74.86l.34,2.26a.75.75,0,0,0,.74.64h.14L11.87,11,9.23,7.39h1.3a.75.75,0,0,0,.75-.75V4.39a.75.75,0,0,0-.75-.75H.75A.75.75,0,0,0,0,4.39ZM1.5,5.14H9.78v.76h-2a.75.75,0,0,0-.6,1.19l4,5.46a.75.75,0,0,0,.53.3.72.72,0,0,0,.58-.2l3.79-3.51a.75.75,0,0,0-.51-1.3h-1.4L14,7.09h6.76l-.29.76H19.22a.75.75,0,0,0-.52.21l-5.76,5.62a.75.75,0,0,0-.23.54v3.19a.75.75,0,0,0,.61.74l1.9.35-.23.37H7.17l0-.25c.85-.14,2.18-.41,2.5-.47a.75.75,0,0,0,.6-.74V13.9a.75.75,0,0,0-.17-.47L4.31,6.17a.75.75,0,0,0-.58-.28H1.5Z"/><path d="M23.85,10.41a.75.75,0,0,0-.58-.3c-.27,0-2.54-.23-2.8-.28a.76.76,0,0,0-.62.16.75.75,0,0,0-.27.58v6a.75.75,0,0,0,.69.75l1.35.11h.06a.75.75,0,0,0,.72-.55L24,11A.75.75,0,0,0,23.85,10.41Zm-2.73,5.46h0V11.4l1.21.12Z"/><path d="M21.28,20.36a.75.75,0,0,0,.74-.64l.13-.86a.75.75,0,0,0-.68-.86l-1-.09a.75.75,0,0,0-.82.75v.88a.75.75,0,0,0,.69.74l.85.07Z"/></svg>