<?xml version="1.0" encoding="utf-8"?>
<!-- Generator: Adobe Illustrator 22.1.0, SVG Export Plug-In . SVG Version: 6.00 Build 0)  -->
<svg version="1.1" id="Regular" xmlns="http://www.w3.org/2000/svg" xmlns:xlink="http://www.w3.org/1999/xlink" x="0px" y="0px"
	 viewBox="0 0 24 24" style="enable-background:new 0 0 24 24;" xml:space="preserve">
<title>seasoning-salt</title>
<g>
	<circle cx="13.875" cy="4.125" r="1.125"/>
	<circle cx="10.125" cy="4.125" r="1.125"/>
	<path d="M8.656,24c-0.406,0-0.795-0.103-1.138-0.298c-1.741-1.013-2.733-2.608-2.955-4.743c-0.021-0.069-0.031-0.14-0.031-0.21
		c0-0.03,0.002-0.06,0.005-0.089c-0.061-0.881,0.004-1.86,0.193-2.911l0,0c0-0.094,0.018-0.186,0.053-0.275
		c0.373-1.896,1.148-4.097,2.305-6.549C6.458,8.725,6,8.134,6,7.437V6c0-3.308,2.692-6,6-6c3.308,0,6,2.692,6,6v1.437
		c0,0.697-0.458,1.288-1.089,1.49c1.156,2.451,1.931,4.651,2.304,6.547c0.036,0.089,0.054,0.182,0.054,0.277c0,0,0,0.001,0,0.001
		c0.188,1.051,0.253,2.029,0.192,2.908c0.004,0.03,0.006,0.06,0.006,0.09c0,0.07-0.01,0.141-0.031,0.21
		c-0.221,2.135-1.212,3.729-2.948,4.739c-0.348,0.197-0.743,0.301-1.147,0.302C15.342,24,8.656,24,8.656,24z M6.171,19.5
		c0.291,1.301,0.979,2.253,2.094,2.902c0.108,0.062,0.245,0.096,0.394,0.098c0,0,6.686,0,6.687,0c0.153,0,0.275-0.033,0.396-0.102
		c1.11-0.646,1.797-1.598,2.087-2.898H6.171z M17.987,18c0.001-0.469-0.036-0.972-0.111-1.5H6.125
		C6.05,17.029,6.013,17.531,6.014,18H17.987z M17.582,15c-0.429-1.74-1.2-3.754-2.297-6H8.716c-1.098,2.246-1.869,4.261-2.297,6
		H17.582z M12,1.5C9.519,1.5,7.5,3.519,7.5,6v1.437C7.5,7.471,7.529,7.5,7.563,7.5h8.874c0.034,0,0.063-0.029,0.063-0.063V6
		C16.5,3.519,14.482,1.5,12,1.5z"/>
</g>
</svg>
