<?xml version="1.0" encoding="utf-8"?>
<!-- Generator: Adobe Illustrator 22.1.0, SVG Export Plug-In . SVG Version: 6.00 Build 0)  -->
<svg version="1.1" id="Regular" xmlns="http://www.w3.org/2000/svg" xmlns:xlink="http://www.w3.org/1999/xlink" x="0px" y="0px"
	 viewBox="0 0 24 24" style="enable-background:new 0 0 24 24;" xml:space="preserve">
<title>season-autumn</title>
<g>
	<path d="M12.905,24c-0.098,0-0.193-0.019-0.284-0.056c-0.185-0.076-0.33-0.219-0.407-0.404c-0.077-0.185-0.078-0.389-0.002-0.574
		c0.37-0.903,0.795-1.717,1.265-2.423c-0.776-1.124-1.093-2.25-0.916-3.271c0.186-1.072,0.899-1.987,2.062-2.647
		c1.414-0.738,2.994-1.124,4.58-1.124c1.52,0,3.037,0.356,4.389,1.03c0.203,0.101,0.347,0.285,0.397,0.505
		c0.05,0.22-0.001,0.448-0.139,0.627c-0.407,0.523-0.695,1.477-0.998,2.486c-0.681,2.261-1.613,5.356-4.926,5.659
		c-0.099,0.009-0.196,0.013-0.292,0.013c-1.547,0-2.638-1.12-3.226-1.936c-0.294,0.5-0.565,1.052-0.809,1.648
		C13.484,23.817,13.212,24,12.905,24z M15.339,20.565c0.255,0.438,1.121,1.757,2.304,1.757c0.048,0,0.097-0.002,0.147-0.007
		c2.305-0.21,2.946-2.342,3.625-4.598c0.237-0.786,0.462-1.535,0.765-2.169c-0.951-0.364-1.952-0.548-2.981-0.548
		c-1.342,0-2.677,0.326-3.86,0.942c-0.751,0.427-1.192,0.962-1.301,1.585c-0.089,0.516,0.057,1.118,0.424,1.762
		c1.485-1.587,2.817-1.796,2.974-1.816c0.031-0.004,0.062-0.006,0.092-0.006c0.378,0,0.698,0.283,0.744,0.658
		c0.051,0.407-0.239,0.782-0.646,0.836l0,0c0.001,0-0.551,0.095-1.291,0.65C15.995,19.869,15.66,20.188,15.339,20.565z"/>
	<path d="M10.509,21.75c-0.414,0-0.75-0.336-0.75-0.75v-2.86c-0.742,0.282-1.48,0.42-2.239,0.42c-0.966,0-1.797-0.225-2.465-0.405
		c-0.248-0.067-0.477-0.129-0.68-0.171c-0.345-0.072-0.643-0.289-0.817-0.594c-0.163-0.285-0.205-0.616-0.118-0.933
		c0.086-0.316,0.291-0.58,0.576-0.743l0.939-0.537c-2.537-1.106-5.171-3.48-4.934-8.57c0.03-0.628,0.526-1.13,1.152-1.169
		c0.293-0.03,0.606-0.046,0.914-0.046c1.896,0,3.745,0.602,5.278,1.708c0.32-2.341,1.171-4.6,2.481-6.571
		c0.092-0.126,0.178-0.214,0.281-0.29C10.34,0.083,10.592,0,10.855,0c0.061,0,0.123,0.005,0.185,0.014
		c0.325,0.049,0.611,0.222,0.806,0.486c1.325,1.992,2.181,4.258,2.502,6.601c1.534-1.106,3.386-1.708,5.286-1.708
		c0.311,0,0.626,0.016,0.937,0.048c0.602,0.036,1.091,0.538,1.121,1.165c0.085,1.773-0.252,3.568-0.975,5.19
		c-0.121,0.27-0.39,0.445-0.685,0.445c-0.105,0-0.208-0.022-0.305-0.065c-0.378-0.168-0.548-0.612-0.38-0.99
		c0.595-1.337,0.89-2.809,0.855-4.272c-0.191-0.014-0.377-0.021-0.562-0.021c-2.035,0-3.946,0.798-5.378,2.248
		c-0.141,0.142-0.335,0.223-0.534,0.223c-0.093,0-0.183-0.017-0.27-0.05c-0.28-0.108-0.467-0.371-0.479-0.669
		c-0.099-2.452-0.832-4.833-2.124-6.915C9.568,3.796,8.833,6.183,8.733,8.645c-0.012,0.298-0.2,0.561-0.478,0.669
		C8.168,9.348,8.077,9.365,7.984,9.365c-0.199,0-0.393-0.081-0.533-0.223C6.017,7.692,4.109,6.893,2.078,6.893
		c-0.188,0-0.378,0.007-0.568,0.021c-0.107,3.899,1.723,6.379,5.442,7.371c0.295,0.078,0.511,0.325,0.55,0.628
		c0.039,0.303-0.106,0.596-0.372,0.748l-1.784,1.019c0.032,0.009,0.065,0.018,0.097,0.026c0.612,0.165,1.304,0.353,2.073,0.353
		c0.881,0,1.737-0.246,2.619-0.752c0.014-0.008,0.039-0.02,0.055-0.026c0.006-0.004,0.028-0.014,0.05-0.022
		c0.032-0.012,0.057-0.02,0.083-0.026c0.02-0.005,0.041-0.01,0.063-0.014c0.022-0.004,0.048-0.007,0.075-0.008
		c0.016-0.001,0.034-0.003,0.047-0.003c0.013,0,0.029,0.001,0.043,0.002c0.025,0.002,0.046,0.004,0.067,0.007
		c0.018,0.003,0.038,0.006,0.057,0.01c0.028,0.006,0.053,0.014,0.078,0.023c0.03,0.011,0.048,0.018,0.066,0.026
		c0.021,0.01,0.042,0.021,0.063,0.034c0.025,0.014,0.044,0.026,0.063,0.04c0.016,0.011,0.035,0.027,0.054,0.044
		c0.019,0.016,0.035,0.032,0.051,0.048c0.016,0.017,0.029,0.032,0.041,0.048c0.018,0.023,0.031,0.041,0.043,0.059
		c0.007,0.01,0.014,0.021,0.019,0.029c0.009,0.014,0.02,0.036,0.027,0.054c0.01,0.02,0.019,0.041,0.027,0.062
		c0.009,0.023,0.016,0.046,0.022,0.069c0.007,0.025,0.012,0.048,0.016,0.073c0.004,0.023,0.006,0.046,0.008,0.07
		c0.002,0.017,0.003,0.038,0.003,0.052V21C11.259,21.414,10.922,21.75,10.509,21.75z"/>
</g>
</svg>
