<?xml version="1.0" encoding="utf-8"?>
<!-- Generator: Adobe Illustrator 22.1.0, SVG Export Plug-In . SVG Version: 6.00 Build 0)  -->
<svg version="1.1" id="Layer_1" xmlns="http://www.w3.org/2000/svg" xmlns:xlink="http://www.w3.org/1999/xlink" x="0px" y="0px"
	 viewBox="0 0 24 24" style="enable-background:new 0 0 24 24;" xml:space="preserve">
<title>seat-settings</title>
<g>
	<path d="M5,24c-1.974,0-3.617-1.537-3.748-3.5l-1.2-18.1C0.049,2.354,0.047,2.312,0.047,2.27c-0.004-0.6,0.226-1.168,0.649-1.598
		C1.119,0.243,1.684,0.004,2.287,0h2.455c1.51,0,2.865,0.897,3.454,2.286c1.907,4.415,2.712,9.267,2.337,14.064l7.918-1.32
		c0.201-0.034,0.408-0.051,0.615-0.051c0.336,0,0.668,0.044,0.989,0.132c1.995,0.544,3.175,2.61,2.631,4.605l-0.414,1.521
		C21.827,22.864,20.339,24,18.653,24H5z M2.294,1.5c-0.2,0.002-0.388,0.082-0.529,0.225C1.623,1.869,1.546,2.059,1.547,2.261
		l0.001,0.043l1.2,18.096c0.079,1.177,1.065,2.1,2.245,2.1h13.654c1.017,0,1.91-0.681,2.176-1.657l0.414-1.521
		c0.326-1.197-0.382-2.437-1.578-2.763c-0.192-0.052-0.392-0.079-0.594-0.079c-0.124,0-0.247,0.01-0.367,0.03l-8.881,1.48
		C9.776,17.997,9.735,18,9.695,18c-0.193,0-0.376-0.073-0.516-0.205c-0.17-0.161-0.256-0.396-0.23-0.628
		c0.545-4.859-0.192-9.801-2.131-14.289C6.462,2.039,5.649,1.5,4.744,1.5H2.294z"/>
	<path d="M23.189,10.5c-0.2,0-0.388-0.078-0.53-0.219l-1.973-1.972l-1.097,1.828c-0.135,0.224-0.381,0.364-0.643,0.364
		c-0.022,0-0.043-0.001-0.066-0.003c-0.283-0.024-0.532-0.212-0.634-0.478l-2.652-6.894c-0.106-0.276-0.04-0.59,0.17-0.8
		c0.139-0.14,0.333-0.22,0.53-0.22c0.093,0,0.183,0.017,0.27,0.05l6.895,2.652c0.266,0.102,0.453,0.351,0.478,0.635
		c0.025,0.284-0.117,0.562-0.361,0.708l-1.828,1.097l1.972,1.972c0.142,0.142,0.22,0.33,0.22,0.53c0,0.2-0.078,0.389-0.22,0.53
		C23.578,10.422,23.389,10.5,23.189,10.5z M19.094,8.046l0.8-1.333c0.032-0.053,0.07-0.101,0.113-0.144
		c0.045-0.044,0.093-0.082,0.145-0.113l1.333-0.8L17.6,4.162L19.094,8.046z"/>
</g>
</svg>
