<?xml version="1.0" encoding="utf-8"?>
<!-- Generator: Adobe Illustrator 22.1.0, SVG Export Plug-In . SVG Version: 6.00 Build 0)  -->
<svg version="1.1" id="Layer_1" xmlns="http://www.w3.org/2000/svg" xmlns:xlink="http://www.w3.org/1999/xlink" x="0px" y="0px"
	 viewBox="0 0 24 24" style="enable-background:new 0 0 24 24;" xml:space="preserve">
<title>seat-vip</title>
<g>
	<path d="M17.25,7.5c-0.414,0-0.75-0.336-0.75-0.75v-6C16.5,0.337,16.836,0,17.25,0S18,0.337,18,0.75v6
		C18,7.164,17.663,7.5,17.25,7.5z"/>
	<path d="M20.25,7.5c-0.414,0-0.75-0.336-0.75-0.75v-6C19.5,0.337,19.836,0,20.25,0H21c1.654,0,3,1.346,3,3s-1.346,3-3,3v0.75
		C21,7.164,20.663,7.5,20.25,7.5z M21,4.5c0.827,0,1.5-0.673,1.5-1.5S21.827,1.5,21,1.5V4.5z"/>
	<path d="M12.75,7.504c-0.251,0-0.485-0.125-0.624-0.334C11.062,5.575,10.5,3.718,10.5,1.8V0.75C10.5,0.337,10.836,0,11.25,0
		S12,0.337,12,0.75V1.8c0,1.184,0.258,2.354,0.75,3.422c0.492-1.069,0.75-2.239,0.75-3.423V0.75C13.5,0.337,13.836,0,14.25,0
		S15,0.337,15,0.75V1.8c0,1.918-0.562,3.775-1.626,5.37C13.234,7.379,13.001,7.504,12.75,7.504z"/>
	<path d="M6,8.249c-1.861,0-3.375-1.514-3.375-3.375S4.139,1.499,6,1.499s3.375,1.514,3.375,3.375S7.861,8.249,6,8.249z M6,2.999
		c-1.034,0-1.875,0.841-1.875,1.875S4.966,6.749,6,6.749s1.875-0.841,1.875-1.875S7.033,2.999,6,2.999z"/>
	<path d="M13.495,24.001c-0.512,0-0.996-0.17-1.399-0.491c-0.47-0.374-0.766-0.91-0.833-1.507c0-0.005-0.379-3.404-0.379-3.404
		c-0.05-0.333-0.371-0.604-0.729-0.604H8.02c-1.845,0-3.397-1.315-3.699-3.126L3.78,11.623c-0.1-0.591,0.037-1.187,0.386-1.677
		c0.349-0.49,0.867-0.815,1.458-0.915C5.75,9.01,5.877,8.999,6.003,8.999c0.467,0,0.917,0.144,1.3,0.417
		c0.49,0.348,0.815,0.866,0.915,1.459l0.437,2.621h1.493c2.582,0,4.804,1.911,5.188,4.446c0.003,0.021,0.008,0.059,0.403,3.554
		c0.068,0.597-0.1,1.185-0.474,1.655c-0.374,0.47-0.909,0.767-1.506,0.835c-0.002,0-0.007,0.001-0.008,0.001
		C13.665,23.996,13.58,24.001,13.495,24.001z M12.754,21.842c0.024,0.196,0.122,0.372,0.277,0.495
		c0.134,0.107,0.295,0.164,0.464,0.164c0.026,0,0.052-0.001,0.077-0.004c0.004,0,0.007-0.001,0.011-0.001
		c0.204-0.023,0.382-0.122,0.507-0.279s0.181-0.353,0.158-0.552c-0.179-1.582-0.391-3.452-0.399-3.517
		c-0.272-1.792-1.856-3.152-3.684-3.152H8.02c-0.368,0-0.679-0.263-0.74-0.626l-0.541-3.246C6.679,10.768,6.361,10.499,6,10.499
		c-0.041,0-0.083,0.004-0.126,0.011c-0.408,0.069-0.684,0.457-0.615,0.865L5.8,14.622c0.181,1.086,1.111,1.874,2.212,1.874h2.136
		c1.108,0,2.06,0.821,2.223,1.911C12.37,18.406,12.754,21.839,12.754,21.842z"/>
	<path d="M0.75,24C0.336,24,0,23.664,0,23.25s0.336-0.75,0.75-0.75h7.382c0.041,0,0.078-0.015,0.106-0.044
		c0.029-0.029,0.044-0.065,0.044-0.106l-0.136-1.238c-0.007-0.064-0.062-0.113-0.128-0.114c-3.326,0-6.119-2.37-6.659-5.636
		l-0.331-1.987c-0.047-0.282-0.246-0.51-0.519-0.594c-0.192-0.059-0.349-0.189-0.443-0.366c-0.094-0.177-0.113-0.38-0.054-0.571
		c0.098-0.317,0.386-0.53,0.717-0.53c0.075,0,0.149,0.011,0.22,0.033c0.82,0.252,1.418,0.935,1.558,1.782l0.331,1.988
		c0.419,2.539,2.591,4.381,5.163,4.381c0.847,0.001,1.542,0.623,1.635,1.447l0.135,1.221c0.007,0.061,0.01,0.122,0.01,0.183
		c0,0.91-0.741,1.649-1.65,1.649H0.75z"/>
</g>
</svg>
