<?xml version="1.0" encoding="utf-8"?>
<!-- Generator: Adobe Illustrator 22.1.0, SVG Export Plug-In . SVG Version: 6.00 Build 0)  -->
<svg version="1.1" id="Layer_1" xmlns="http://www.w3.org/2000/svg" xmlns:xlink="http://www.w3.org/1999/xlink" x="0px" y="0px"
	 viewBox="0 0 24 24" style="enable-background:new 0 0 24 24;" xml:space="preserve">
<title>seat-find</title>
<g>
	<path d="M5.239,6.933c-1.861,0-3.375-1.514-3.375-3.375s1.514-3.375,3.375-3.375s3.375,1.514,3.375,3.375S7.1,6.933,5.239,6.933z
		 M5.239,1.683c-1.034,0-1.875,0.841-1.875,1.875s0.841,1.875,1.875,1.875s1.875-0.841,1.875-1.875S6.273,1.683,5.239,1.683z"/>
	<path d="M2.238,23.809c-0.444,0-0.874-0.13-1.245-0.376c-0.501-0.333-0.842-0.842-0.96-1.431c-0.118-0.59,0-1.19,0.333-1.691
		c1.578-2.363,2.472-5.082,2.605-7.906c-0.456,0.42-0.73,1.02-0.733,1.655c0.001,0.8-0.431,1.546-1.125,1.947
		c-0.113,0.066-0.243,0.101-0.375,0.101c-0.267,0-0.516-0.144-0.65-0.375c-0.1-0.174-0.127-0.376-0.075-0.569
		c0.052-0.194,0.176-0.355,0.349-0.455c0.231-0.134,0.375-0.383,0.375-0.65c0.006-1.707,1.162-3.197,2.811-3.626
		c0.062-0.016,0.125-0.024,0.189-0.024c0.165,0,0.328,0.056,0.459,0.157c0.182,0.141,0.291,0.363,0.291,0.593v0.5
		c0.001,3.388-0.993,6.668-2.874,9.485c-0.111,0.166-0.15,0.367-0.111,0.563c0.039,0.197,0.153,0.366,0.32,0.478
		c0.124,0.083,0.267,0.126,0.415,0.126c0.253,0,0.488-0.125,0.627-0.335c0.912-1.369,1.638-2.854,2.16-4.414
		c0.073-0.219,0.24-0.39,0.459-0.468c0.081-0.029,0.166-0.044,0.252-0.044c0.142,0,0.281,0.04,0.401,0.116
		c1.704,1.075,2.996,2.719,3.639,4.629c0.063,0.176,0.2,0.324,0.381,0.409c0.101,0.048,0.208,0.072,0.318,0.072
		c0.086,0,0.172-0.015,0.255-0.045c0.377-0.136,0.58-0.542,0.463-0.926c-0.855-2.542-2.65-4.627-5.051-5.859
		c-0.29-0.15-0.45-0.466-0.398-0.788c0.162-0.992,0.244-2.003,0.243-3.006v-0.026c0-0.262,0.14-0.509,0.365-0.644
		c0.117-0.07,0.25-0.106,0.385-0.106c0.124,0,0.247,0.031,0.356,0.09c0.654,0.352,1.22,0.826,1.683,1.406
		c0.854,1.072,2.134,1.687,3.513,1.688c0.414,0,0.751-0.336,0.751-0.75s-0.336-0.75-0.75-0.75c-0.922,0-1.773-0.411-2.343-1.127
		C8.623,9.764,6.641,8.808,4.511,8.808c-0.002,0-0.021,0-0.026,0c-1.188,0-2.351,0.41-3.276,1.154
		c-0.133,0.107-0.3,0.166-0.47,0.166c-0.228,0-0.441-0.102-0.584-0.28C0.029,9.692-0.028,9.497-0.006,9.297
		c0.021-0.199,0.119-0.378,0.275-0.504c1.19-0.958,2.687-1.486,4.215-1.486h0.029c2.589,0,4.998,1.162,6.61,3.189
		c0.284,0.357,0.704,0.561,1.154,0.561c1.255,0,2.265,1.009,2.265,2.25c0,1.241-1.009,2.25-2.25,2.25
		c-1.843,0-3.546-0.821-4.687-2.253c-0.054-0.068-0.111-0.134-0.169-0.198c-0.031,0.422-0.074,0.844-0.131,1.261
		c2.51,1.435,4.393,3.726,5.317,6.477c0.357,1.164-0.251,2.387-1.381,2.795c-0.248,0.089-0.505,0.134-0.765,0.134
		c-0.331,0-0.652-0.072-0.955-0.214c-0.544-0.256-0.956-0.708-1.16-1.273c-0.432-1.283-1.225-2.436-2.258-3.297
		c-0.524,1.338-1.192,2.619-1.988,3.816C3.697,23.434,2.995,23.809,2.238,23.809z"/>
	<path d="M15.739,23.808c-0.414,0-0.75-0.336-0.75-0.75s0.336-0.75,0.75-0.75h5.25c0.414,0,0.75,0.336,0.75,0.75
		s-0.336,0.75-0.75,0.75H15.739z"/>
	<path d="M13.489,8.058c-0.2,0-0.389-0.078-0.53-0.22c-0.142-0.141-0.22-0.33-0.22-0.53s0.078-0.389,0.22-0.53l0.97-0.97h-2.689
		c-0.414,0-0.75-0.336-0.75-0.75s0.336-0.75,0.75-0.75h2.689l-0.97-0.97c-0.142-0.141-0.22-0.33-0.22-0.53s0.078-0.389,0.22-0.53
		s0.33-0.22,0.53-0.22s0.389,0.078,0.53,0.22l2.25,2.25c0.07,0.07,0.125,0.152,0.163,0.245c0.003,0.008,0.007,0.017,0.01,0.026
		c0.031,0.081,0.047,0.17,0.047,0.259c0,0.087-0.016,0.174-0.047,0.258c-0.002,0.006-0.004,0.011-0.006,0.016
		c-0.042,0.104-0.098,0.186-0.168,0.257l-2.249,2.249C13.878,7.98,13.689,8.058,13.489,8.058z"/>
	<path d="M15.739,20.808c-0.827,0-1.5-0.673-1.5-1.5v-1.5c0-0.827,0.673-1.5,1.5-1.5h2.587l1.201-7.738
		c0.067-0.402,0.282-0.749,0.608-0.982c0.257-0.183,0.557-0.28,0.87-0.28c0.083,0,0.167,0.007,0.249,0.021l1.48,0.246
		c0.814,0.137,1.367,0.911,1.233,1.725c0,0-1.511,9.634-1.512,9.642c-0.178,1.075-1.112,1.866-2.216,1.867H15.739z M15.739,19.308
		h4.5c0.367,0,0.678-0.264,0.739-0.626l1.509-9.621l-1.478-0.253l-1.299,8.366c-0.057,0.368-0.369,0.635-0.741,0.635h-3.23V19.308z"
		/>
</g>
</svg>
