<?xml version="1.0" encoding="utf-8"?>
<!-- Generator: Adobe Illustrator 22.1.0, SVG Export Plug-In . SVG Version: 6.00 Build 0)  -->
<svg version="1.1" id="Layer_1" xmlns="http://www.w3.org/2000/svg" xmlns:xlink="http://www.w3.org/1999/xlink" x="0px" y="0px"
	 viewBox="0 0 24 24" style="enable-background:new 0 0 24 24;" xml:space="preserve">
<title>security-officer-luggage-reject</title>
<g>
	<path d="M17.25,12c-2.068,0-3.75-1.682-3.75-3.75V7.5h-0.75C12.336,7.5,12,7.164,12,6.75S12.336,6,12.75,6h0.54l-0.517-2.068
		c-0.059-0.237,0.001-0.488,0.16-0.672C13.075,3.095,13.283,3,13.502,3c0.023,0,0.047,0.001,0.07,0.003l7.502,0.75
		c0.229,0.023,0.431,0.146,0.555,0.339c0.124,0.192,0.154,0.427,0.082,0.645L21,6.871V8.25C21,10.318,19.318,12,17.25,12z M15,8.25
		c0,1.241,1.009,2.25,2.25,2.25s2.25-1.009,2.25-2.25V7.5H15V8.25z M19.709,6l0.282-0.847l-5.505-0.551L14.835,6H19.709z"/>
	<path d="M14.25,24c-0.414,0-0.75-0.336-0.75-0.75v-5.069l-0.038,0.038c-0.142,0.142-0.33,0.22-0.53,0.22s-0.389-0.078-0.53-0.22
		s-0.22-0.33-0.22-0.53s0.078-0.389,0.22-0.53l1.318-1.318c0.142-0.142,0.33-0.22,0.531-0.22c0.099,0,0.196,0.019,0.287,0.057
		C14.818,15.795,15,16.067,15,16.371v6.879C15,23.664,14.664,24,14.25,24z"/>
	<path d="M20.25,24c-0.414,0-0.75-0.336-0.75-0.75v-6c0-0.414,0.336-0.75,0.75-0.75S21,16.836,21,17.25v3
		c0,0.414,0.336,0.75,0.75,0.75s0.75-0.336,0.75-0.75v-3c0-1.935-1.46-3.535-3.362-3.73l-1.264,1.896
		c-0.135,0.203-0.368,0.323-0.624,0.323s-0.489-0.121-0.624-0.323l-1.266-1.9c-0.942,0.082-1.84,0.471-2.546,1.107l-3.219,3.221
		c-0.142,0.142-0.33,0.22-0.53,0.22c-0.2,0-0.389-0.078-0.53-0.22c-0.142-0.141-0.22-0.33-0.22-0.53s0.078-0.389,0.219-0.531
		l3.247-3.248C12.885,12.541,14.286,12,15.74,12c0.259,0,0.495,0.125,0.634,0.334l0.876,1.314l0.876-1.314
		C18.266,12.125,18.499,12,18.75,12c2.895,0,5.25,2.355,5.25,5.25v3c0,1.241-1.009,2.25-2.25,2.25c-0.259,0-0.512-0.043-0.75-0.128
		v0.878C21,23.664,20.664,24,20.25,24z"/>
	<path d="M3.25,24c-0.965,0-1.75-0.785-1.75-1.75v-1.379C0.615,20.558,0,19.71,0,18.75v-6C0,12.336,0.336,12,0.75,12
		s0.75,0.336,0.75,0.75v6c0,0.414,0.336,0.75,0.75,0.75H3v-6c0-0.414,0.336-0.75,0.75-0.75S4.5,13.086,4.5,13.5v6h6.75
		c0.414,0,0.75,0.336,0.75,0.75v2c0,0.965-0.785,1.75-1.75,1.75H3.25z M3,22.25c0,0.138,0.112,0.25,0.25,0.25h7
		c0.138,0,0.25-0.112,0.25-0.25V21H3V22.25z"/>
	<path d="M5.69,11.25c-1.487,0-2.889-0.576-3.949-1.624C1.731,9.618,1.721,9.61,1.713,9.601C1.704,9.592,1.695,9.583,1.687,9.572
		C0.643,8.517,0.065,7.114,0.065,5.625C0.065,2.523,2.588,0,5.69,0c1.486,0,2.887,0.576,3.947,1.621
		c0.01,0.008,0.02,0.017,0.029,0.026c0.01,0.01,0.019,0.02,0.028,0.031c1.041,1.049,1.621,2.454,1.621,3.946
		C11.315,8.727,8.792,11.25,5.69,11.25z M3.354,9.02C4.04,9.493,4.855,9.75,5.69,9.75c2.275,0,4.125-1.85,4.125-4.125
		c0-0.835-0.257-1.65-0.73-2.336L3.354,9.02z M5.69,1.5c-2.275,0-4.125,1.85-4.125,4.125c0,0.834,0.256,1.649,0.729,2.335
		l5.731-5.731C7.339,1.756,6.524,1.5,5.69,1.5z"/>
</g>
</svg>
