<?xml version="1.0" encoding="utf-8"?>
<!-- Generator: Adobe Illustrator 22.1.0, SVG Export Plug-In . SVG Version: 6.00 Build 0)  -->
<svg version="1.1" id="Layer_1" xmlns="http://www.w3.org/2000/svg" xmlns:xlink="http://www.w3.org/1999/xlink" x="0px" y="0px"
	 viewBox="0 0 24 24" style="enable-background:new 0 0 24 24;" xml:space="preserve">
<title>security-officer-animal</title>
<g>
	<path d="M19.5,12c-2.068,0-3.75-1.682-3.75-3.75V7.5H15c-0.414,0-0.75-0.336-0.75-0.75S14.587,6,15,6h0.539l-0.517-2.068
		c-0.059-0.237,0.001-0.488,0.16-0.672C15.324,3.095,15.532,3,15.751,3c0.023,0,0.047,0.001,0.07,0.003l7.502,0.75
		c0.229,0.023,0.431,0.146,0.555,0.339c0.124,0.192,0.154,0.427,0.082,0.645l-0.71,2.131V8.25C23.25,10.318,21.568,12,19.5,12z
		 M17.25,8.25c0,1.241,1.009,2.25,2.25,2.25s2.25-1.009,2.25-2.25V7.5h-4.5V8.25z M21.959,6l0.282-0.847l-5.505-0.551L17.085,6
		H21.959z"/>
	<path d="M0.749,24c-0.414,0-0.75-0.336-0.75-0.75s0.336-0.75,0.75-0.75H15.75v-4.318l-2.909,2.909
		c-0.424,0.424-0.989,0.658-1.591,0.658c-0.602,0-1.167-0.234-1.592-0.658c-0.424-0.425-0.658-0.99-0.658-1.591
		c0-0.602,0.234-1.167,0.659-1.591l5.25-5.25C15.335,12.234,15.9,12,16.5,12H18c0.251,0,0.484,0.125,0.624,0.334l0.876,1.314
		l0.876-1.314c0.134-0.201,0.365-0.325,0.618-0.334c0,0,0.001,0,0.001,0c0.931,0,1.837,0.243,2.631,0.704
		c0.173,0.1,0.297,0.262,0.349,0.456s0.025,0.396-0.076,0.569c-0.133,0.231-0.382,0.374-0.649,0.374
		c-0.132,0-0.262-0.035-0.376-0.102c-0.453-0.263-0.963-0.428-1.486-0.482l-1.264,1.896c-0.135,0.203-0.368,0.323-0.624,0.323
		s-0.489-0.121-0.624-0.323L17.599,13.5H16.5c-0.2,0-0.388,0.078-0.53,0.219l-5.25,5.25c-0.293,0.292-0.293,0.769,0,1.061
		c0.141,0.142,0.33,0.219,0.531,0.219c0.201,0,0.389-0.078,0.53-0.219l4.189-4.19c0.142-0.142,0.33-0.22,0.531-0.22
		c0.099,0,0.196,0.019,0.287,0.057c0.281,0.117,0.463,0.389,0.463,0.693V22.5h5.999c0.414,0,0.75,0.336,0.75,0.75
		S23.663,24,23.249,24H0.749z"/>
	<path d="M5.249,9c-0.414,0-0.75-0.336-0.75-0.75V7.5H1.5c-0.333,0-0.621-0.214-0.718-0.533C0.686,6.649,0.807,6.311,1.084,6.126
		L5.25,3.349V2.25C5.25,1.009,6.26,0,7.5,0c0.96,0,1.808,0.615,2.121,1.5h0.878c0.414,0,0.75,0.336,0.75,0.75S10.913,3,10.499,3
		H9.75v0.75C9.75,5.818,8.068,7.5,6,7.5H5.999v0.75C5.999,8.664,5.663,9,5.249,9z M6,6c1.241,0,2.25-1.009,2.25-2.25V2.276
		C8.25,2.267,8.249,2.24,8.25,2.234C8.242,1.829,7.908,1.5,7.5,1.5c-0.414,0-0.75,0.336-0.75,0.75v1.5
		c0,0.251-0.125,0.485-0.334,0.624L3.977,6H6z"/>
	<path d="M4.5,19.5c-1.241,0-2.25-1.009-2.25-2.25c0-1.654,1.346-3,3-3s3,1.346,3,3c0,1.241-1.009,2.25-2.25,2.25H4.5z M5.25,15.75
		c-0.827,0-1.5,0.673-1.5,1.5C3.75,17.664,4.087,18,4.5,18H6c0.414,0,0.75-0.336,0.75-0.75C6.75,16.423,6.077,15.75,5.25,15.75z"/>
	<path d="M5.249,13.125c-0.62,0-1.125-0.505-1.125-1.125c-0.001-0.298,0.115-0.581,0.327-0.794c0.211-0.213,0.493-0.33,0.794-0.331
		c0.625,0,1.129,0.505,1.129,1.125S5.87,13.125,5.249,13.125z"/>
	<path d="M1.5,15.375c-0.62,0-1.125-0.505-1.125-1.125c-0.001-0.299,0.115-0.581,0.327-0.794c0.212-0.213,0.494-0.33,0.794-0.331
		c0.624,0,1.129,0.505,1.129,1.125S2.121,15.375,1.5,15.375z"/>
	<path d="M9,15.375c-0.62,0-1.125-0.505-1.125-1.125c-0.001-0.299,0.115-0.581,0.327-0.794c0.212-0.213,0.494-0.33,0.794-0.331
		c0.624,0,1.129,0.505,1.129,1.125S9.621,15.375,9,15.375z"/>
</g>
</svg>
