<?xml version="1.0" encoding="utf-8"?>
<!-- Generator: Adobe Illustrator 22.1.0, SVG Export Plug-In . SVG Version: 6.00 Build 0)  -->
<svg version="1.1" id="Layer_1" xmlns="http://www.w3.org/2000/svg" xmlns:xlink="http://www.w3.org/1999/xlink" x="0px" y="0px"
	 viewBox="0 0 24 24" style="enable-background:new 0 0 24 24;" xml:space="preserve">
<title>segway</title>
<g>
	<path d="M20.998,24c-1.479,0-2.724-1.06-2.96-2.521l-0.072-0.446H6.034l-0.072,0.446C5.726,22.94,4.481,24,3.002,24
		c-0.16,0-0.322-0.013-0.481-0.039c-0.791-0.128-1.485-0.556-1.954-1.206c-0.469-0.65-0.656-1.444-0.529-2.235l0.839-5.182
		c0.12-0.787,0.542-1.483,1.187-1.958c0.519-0.382,1.131-0.584,1.77-0.584c0.153,0,0.307,0.012,0.459,0.035
		c0.792,0.12,1.49,0.542,1.964,1.188c0.475,0.646,0.67,1.438,0.549,2.23l-0.046,0.283h4.488V1.556
		c-0.964,0.137-1.859,0.534-2.611,1.16L7.98,3.266C7.845,3.378,7.675,3.44,7.5,3.44c-0.224,0-0.434-0.099-0.577-0.27
		C6.795,3.016,6.735,2.821,6.753,2.622c0.018-0.199,0.113-0.38,0.267-0.508l0.659-0.549C8.89,0.555,10.424,0,12,0
		s3.11,0.556,4.321,1.565l0.659,0.549c0.318,0.265,0.361,0.738,0.096,1.056c-0.143,0.172-0.353,0.27-0.576,0.27
		c-0.175,0-0.345-0.062-0.48-0.174l-0.659-0.549c-0.752-0.626-1.648-1.023-2.611-1.16v14.976h4.488l-0.045-0.276
		c-0.121-0.796,0.073-1.589,0.549-2.236c0.475-0.646,1.172-1.069,1.964-1.189c0.152-0.023,0.306-0.035,0.459-0.035
		c0.639,0,1.251,0.202,1.771,0.584c0.646,0.474,1.068,1.172,1.188,1.964l0.838,5.176c0.128,0.791-0.06,1.584-0.528,2.235
		c-0.469,0.65-1.163,1.079-1.954,1.206C21.32,23.987,21.159,24,20.998,24z M3.838,14.297c-0.319,0-0.625,0.101-0.884,0.292
		c-0.323,0.237-0.534,0.586-0.594,0.983l-0.84,5.188c-0.064,0.396,0.03,0.793,0.264,1.118c0.234,0.325,0.582,0.539,0.977,0.604
		c0.08,0.013,0.161,0.02,0.241,0.02c0.727,0,1.363-0.542,1.48-1.261l0.844-5.22c0.06-0.392-0.038-0.788-0.275-1.111
		s-0.586-0.534-0.982-0.594C3.991,14.303,3.914,14.297,3.838,14.297z M20.161,14.297c-0.076,0-0.153,0.006-0.229,0.018
		c-0.817,0.125-1.381,0.891-1.257,1.709l0.844,5.216c0.118,0.73,0.74,1.261,1.479,1.261c0.08,0,0.161-0.007,0.241-0.02
		c0.396-0.064,0.743-0.278,0.977-0.603c0.235-0.325,0.328-0.722,0.265-1.118l-0.839-5.182c-0.062-0.401-0.273-0.751-0.595-0.989
		C20.786,14.398,20.48,14.297,20.161,14.297z M17.723,19.533l-0.243-1.5H6.519l-0.243,1.5H17.723z"/>
</g>
</svg>
