<?xml version="1.0" encoding="utf-8"?>
<!-- Generator: Adobe Illustrator 22.1.0, SVG Export Plug-In . SVG Version: 6.00 Build 0)  -->
<svg version="1.1" id="Layer_1" xmlns="http://www.w3.org/2000/svg" xmlns:xlink="http://www.w3.org/1999/xlink" x="0px" y="0px"
	 viewBox="0 0 24 24" style="enable-background:new 0 0 24 24;" xml:space="preserve">
<title>segway-1</title>
<g>
	<path d="M21,24c-1.654,0-3-1.346-3-3v-0.402C17.549,20.86,17.036,21,16.5,21h-9c-0.535,0-1.049-0.14-1.5-0.403V21
		c0,1.654-1.346,3-3,3s-3-1.346-3-3v-6c0-1.654,1.346-3,3-3c1.222,0,2.275,0.734,2.743,1.784l0.174-0.522
		C6.467,11.61,8.008,10.5,9.75,10.5V6H8.5C7.62,6,6.89,5.347,6.768,4.5H3c-0.414,0-0.75-0.336-0.75-0.75S2.586,3,3,3h3.75V1.75
		C6.75,0.785,7.535,0,8.5,0h7c0.965,0,1.75,0.785,1.75,1.75V3H21c0.414,0,0.75,0.336,0.75,0.75S21.414,4.5,21,4.5h-3.768
		C17.111,5.347,16.38,6,15.5,6h-1.25v4.5c1.742,0,3.283,1.11,3.833,2.763l0.174,0.522C18.725,12.734,19.778,12,21,12
		c1.654,0,3,1.346,3,3v6C24,22.654,22.654,24,21,24z M19.5,21c0,0.827,0.673,1.5,1.5,1.5s1.5-0.673,1.5-1.5v-6
		c0-0.827-0.673-1.5-1.5-1.5s-1.5,0.673-1.5,1.5c0,0,0,2.999,0,3.003V21z M3,13.5c-0.827,0-1.5,0.673-1.5,1.5v6
		c0,0.827,0.673,1.5,1.5,1.5s1.5-0.673,1.5-1.5c0,0,0-2.998,0-3.002c0-0.008,0-0.018,0.001-0.026L4.5,15
		C4.5,14.173,3.827,13.5,3,13.5z M16.5,19.5c0.825,0,1.498-0.672,1.5-1.497c0-0.167-0.026-0.326-0.076-0.478l-1.263-3.788
		C16.314,12.698,15.345,12,14.25,12v7.5H16.5z M12.75,19.5V6h-1.5v13.5H12.75z M9.75,12c-1.095,0-2.064,0.698-2.411,1.737
		l-1.263,3.788C6.026,17.676,6,17.835,6,17.997C6.002,18.828,6.675,19.5,7.5,19.5h2.25V12z M8.5,1.5c-0.138,0-0.25,0.112-0.25,0.25
		v2.5c0,0.138,0.112,0.25,0.25,0.25h7c0.138,0,0.25-0.112,0.25-0.25v-2.5c0-0.138-0.112-0.25-0.25-0.25H8.5z"/>
</g>
</svg>
