<?xml version="1.0" encoding="utf-8"?>
<!-- Generator: Adobe Illustrator 22.1.0, SVG Export Plug-In . SVG Version: 6.00 Build 0)  -->
<svg version="1.1" id="Layer_1" xmlns="http://www.w3.org/2000/svg" xmlns:xlink="http://www.w3.org/1999/xlink" x="0px" y="0px"
	 viewBox="0 0 24 24" style="enable-background:new 0 0 24 24;" xml:space="preserve">
<title>seo-network-1</title>
<g>
	<path d="M16.875,19c-0.527,0-1.059-0.06-1.58-0.179c-0.06-0.006-0.119-0.02-0.178-0.042c-3.161-0.805-5.367-3.641-5.367-6.905
		c0-3.278,2.22-6.119,5.401-6.913c0.032-0.01,0.065-0.018,0.099-0.023c0.536-0.125,1.083-0.189,1.625-0.189
		c0.544,0,1.091,0.064,1.626,0.189c0.033,0.005,0.065,0.013,0.097,0.023C21.779,5.755,24,8.596,24,11.875
		c0,3.264-2.206,6.1-5.367,6.905c-0.059,0.021-0.118,0.035-0.178,0.042C17.934,18.94,17.402,19,16.875,19z M15.961,17.426
		c0.301,0.049,0.607,0.074,0.914,0.074s0.614-0.025,0.914-0.074c0.456-1.561,0.699-3.173,0.726-4.801h-3.28
		C15.263,14.257,15.506,15.869,15.961,17.426z M11.301,12.625c0.242,1.809,1.35,3.383,2.956,4.228
		c-0.326-1.382-0.501-2.8-0.522-4.228H11.301z M20.015,12.625c-0.021,1.426-0.196,2.844-0.522,4.228
		c1.605-0.845,2.714-2.419,2.956-4.228H20.015z M22.449,11.125c-0.242-1.81-1.351-3.384-2.958-4.229
		c0.326,1.382,0.502,2.8,0.524,4.229H22.449z M18.514,11.125c-0.028-1.631-0.272-3.243-0.727-4.801
		c-0.3-0.049-0.606-0.074-0.912-0.074s-0.612,0.025-0.912,0.074c-0.456,1.561-0.7,3.173-0.727,4.801H18.514z M13.735,11.125
		c0.021-1.426,0.197-2.844,0.524-4.229c-1.606,0.845-2.716,2.42-2.958,4.229H13.735z"/>
	<path d="M0.75,16.375c-0.414,0-0.75-0.336-0.75-0.75s0.336-0.75,0.75-0.75s0.75-0.336,0.75-0.75c0-0.898-0.262-1.291-0.624-1.834
		C0.486,11.706,0,10.977,0,9.625c0-1.241,1.009-2.25,2.25-2.25C2.664,7.375,3,7.711,3,8.125s-0.336,0.75-0.75,0.75
		S1.5,9.211,1.5,9.625c0,0.898,0.262,1.291,0.624,1.834C2.514,12.044,3,12.773,3,14.125C3,15.366,1.991,16.375,0.75,16.375z"/>
	<path d="M6.75,16.375c-1.241,0-2.25-1.009-2.25-2.25v-4.5c0-1.241,1.009-2.25,2.25-2.25H7.5c0.414,0,0.75,0.336,0.75,0.75
		s-0.336,0.75-0.75,0.75H6.75C6.336,8.875,6,9.211,6,9.625v1.5h1.5c0.414,0,0.75,0.336,0.75,0.75s-0.336,0.75-0.75,0.75H6v1.5
		c0,0.414,0.336,0.75,0.75,0.75H7.5c0.414,0,0.75,0.336,0.75,0.75s-0.336,0.75-0.75,0.75H6.75z"/>
</g>
</svg>
