<?xml version="1.0" encoding="utf-8"?>
<!-- Generator: Adobe Illustrator 22.1.0, SVG Export Plug-In . SVG Version: 6.00 Build 0)  -->
<svg version="1.1" id="Layer_1" xmlns="http://www.w3.org/2000/svg" xmlns:xlink="http://www.w3.org/1999/xlink" x="0px" y="0px"
	 viewBox="0 0 24 24" style="enable-background:new 0 0 24 24;" xml:space="preserve">
<title>seo-search-one</title>
<g>
	<path d="M3.161,12.756c-0.052,0-0.103-0.005-0.152-0.016c-0.026-0.005-0.059-0.015-0.092-0.027c-0.004,0-0.024-0.007-0.044-0.015
		c-0.035-0.015-0.065-0.031-0.094-0.048c-0.01-0.006-0.022-0.012-0.03-0.017c-0.047-0.032-0.085-0.063-0.12-0.098l-2.41-2.41
		C0.078,9.984,0,9.795,0,9.595s0.078-0.389,0.22-0.53c0.141-0.142,0.33-0.22,0.53-0.22s0.389,0.078,0.53,0.22l1.131,1.131v-0.6
		c0-2.87,1.27-5.565,3.483-7.393C7.605,0.789,9.771,0.01,11.993,0.01c2.878,0,5.576,1.268,7.402,3.479
		c0.128,0.154,0.188,0.349,0.168,0.549c-0.019,0.199-0.115,0.379-0.269,0.507c-0.134,0.111-0.303,0.172-0.477,0.172
		c-0.225,0-0.436-0.099-0.579-0.273c-1.54-1.865-3.817-2.934-6.245-2.934c-1.874,0-3.701,0.656-5.144,1.849
		C4.982,4.9,3.911,7.174,3.911,9.595v0.6l1.13-1.13c0.142-0.142,0.33-0.22,0.53-0.22s0.389,0.078,0.53,0.219
		c0.293,0.293,0.293,0.768,0,1.061l-2.41,2.411c-0.006,0.006-0.012,0.012-0.019,0.017c-0.03,0.028-0.061,0.053-0.093,0.075
		c-0.014,0.009-0.038,0.023-0.053,0.031c-0.015,0.01-0.044,0.026-0.075,0.039c-0.016,0.007-0.046,0.017-0.063,0.021
		c-0.021,0.008-0.05,0.017-0.081,0.023C3.261,12.751,3.211,12.756,3.161,12.756z"/>
	<path d="M10.5,13.506c-0.414,0-0.75-0.336-0.75-0.75s0.336-0.75,0.75-0.75h0.75v-4.5H10.5c-0.414,0-0.75-0.336-0.75-0.75
		s0.336-0.75,0.75-0.75h0.75c0.827,0,1.5,0.673,1.5,1.5v4.5h0.75c0.414,0,0.75,0.336,0.75,0.75s-0.336,0.75-0.75,0.75H10.5z"/>
	<path d="M23.25,24.006c-0.215,0-0.419-0.092-0.561-0.252l-5.446-6.127c-1.555,1.02-3.358,1.558-5.236,1.558
		c-0.095,0-0.191-0.001-0.287-0.004c-2.56-0.075-4.938-1.142-6.696-3.005c-0.137-0.146-0.21-0.336-0.204-0.537
		c0.006-0.2,0.089-0.386,0.235-0.523c0.14-0.132,0.323-0.204,0.515-0.204c0.206,0,0.404,0.086,0.546,0.235
		c1.542,1.635,3.632,2.535,5.886,2.535c0,0,0,0,0.001,0c2.073,0,4.044-0.782,5.548-2.201c1.563-1.475,2.48-3.534,2.536-5.678
		l-1.127,1.128c-0.142,0.142-0.33,0.22-0.53,0.22s-0.388-0.078-0.53-0.219c-0.142-0.142-0.22-0.33-0.22-0.531
		c0-0.2,0.078-0.389,0.22-0.53l2.41-2.411c0.141-0.142,0.33-0.22,0.531-0.22s0.389,0.078,0.531,0.22l2.41,2.411
		c0.142,0.142,0.22,0.33,0.22,0.53c0,0.2-0.078,0.389-0.22,0.53s-0.33,0.22-0.53,0.22s-0.389-0.078-0.53-0.22l-1.133-1.133
		c-0.054,2.557-1.144,5.016-3.007,6.774c-0.047,0.045-0.096,0.09-0.148,0.136l5.379,6.052c0.275,0.309,0.247,0.784-0.062,1.059
		C23.611,23.939,23.434,24.006,23.25,24.006z"/>
</g>
</svg>
