<?xml version="1.0" encoding="utf-8"?>
<!-- Generator: Adobe Illustrator 22.1.0, SVG Export Plug-In . SVG Version: 6.00 Build 0)  -->
<svg version="1.1" id="Layer_1" xmlns="http://www.w3.org/2000/svg" xmlns:xlink="http://www.w3.org/1999/xlink" x="0px" y="0px"
	 viewBox="0 0 24 24" style="enable-background:new 0 0 24 24;" xml:space="preserve">
<title>seo-search-graph</title>
<g>
	<path d="M0.8,11.381c-0.391,0-0.711-0.293-0.747-0.683c-0.026-0.287-0.039-0.585-0.039-0.885c0-2.621,1.02-5.085,2.873-6.938
		C4.74,1.021,7.204,0,9.825,0c2.577,0,5.01,0.99,6.853,2.789c0.143,0.14,0.224,0.327,0.226,0.528c0.002,0.2-0.073,0.39-0.213,0.533
		c-0.142,0.146-0.333,0.226-0.537,0.226c-0.197,0-0.383-0.076-0.524-0.213C14.069,2.339,12.008,1.5,9.826,1.5
		c-2.222,0-4.309,0.865-5.878,2.435c-1.57,1.57-2.434,3.657-2.434,5.878c0,0.256,0.011,0.508,0.033,0.751
		c0.037,0.412-0.268,0.777-0.68,0.814C0.843,11.38,0.821,11.381,0.8,11.381z"/>
	<path d="M23.25,24c-0.201,0-0.389-0.078-0.531-0.22l-6.506-6.519c-1.777,1.527-4.031,2.365-6.387,2.365
		c-2.187,0-4.338-0.743-6.058-2.093c-0.157-0.123-0.258-0.301-0.282-0.5c-0.024-0.199,0.031-0.395,0.155-0.553
		c0.143-0.183,0.359-0.287,0.59-0.287c0.167,0,0.332,0.057,0.463,0.16c1.457,1.143,3.279,1.773,5.131,1.773
		c2.221,0,4.308-0.865,5.878-2.434c1.57-1.57,2.435-3.658,2.435-5.878c0-0.414,0.336-0.75,0.75-0.75s0.75,0.336,0.75,0.75
		c0,2.356-0.837,4.61-2.365,6.387l6.507,6.52C23.922,22.862,24,23.051,24,23.251c0,0.2-0.078,0.388-0.22,0.53
		C23.638,23.922,23.45,24,23.25,24z"/>
	<path d="M0.75,17.25c-0.2,0-0.389-0.078-0.53-0.22C0.078,16.889,0,16.7,0,16.5s0.078-0.389,0.22-0.53l8.32-8.317
		c0.321-0.319,0.747-0.495,1.2-0.495c0.453,0,0.879,0.176,1.199,0.495l2.447,2.448c0.037,0.037,0.087,0.058,0.139,0.058
		s0.102-0.02,0.139-0.057l7.787-7.85h-3.007c-0.414,0-0.75-0.336-0.75-0.75s0.336-0.75,0.75-0.75h4.807
		c0.087,0,0.173,0.016,0.257,0.046c0.003,0.001,0.006,0.002,0.009,0.003c0.102,0.042,0.18,0.091,0.246,0.153
		c0.006,0.005,0.012,0.011,0.018,0.016c0.071,0.07,0.125,0.152,0.163,0.244c0.003,0.007,0.006,0.015,0.009,0.023
		C23.981,1.315,23.997,1.397,24,1.48c0,0.006,0,4.841,0,4.841c0,0.414-0.336,0.75-0.75,0.75s-0.75-0.336-0.75-0.75v-3
		c0,0-7.777,7.84-7.777,7.841c-0.32,0.319-0.746,0.495-1.198,0.495c-0.454,0-0.88-0.177-1.2-0.497L9.879,8.713
		C9.829,8.664,9.77,8.657,9.74,8.657c-0.031,0-0.09,0.007-0.14,0.057L1.28,17.031C1.139,17.172,0.95,17.25,0.75,17.25z"/>
</g>
</svg>
