<?xml version="1.0" encoding="utf-8"?>
<!-- Generator: Adobe Illustrator 22.1.0, SVG Export Plug-In . SVG Version: 6.00 Build 0)  -->
<svg version="1.1" id="Layer_1" xmlns="http://www.w3.org/2000/svg" xmlns:xlink="http://www.w3.org/1999/xlink" x="0px" y="0px"
	 viewBox="0 0 24 24" style="enable-background:new 0 0 24 24;" xml:space="preserve">
<title>shape-pyramid</title>
<g>
	<path d="M2.005,22.831c-0.246,0-0.491-0.062-0.708-0.178c-0.353-0.189-0.611-0.504-0.727-0.888
		c-0.008-0.028-0.014-0.056-0.019-0.083c-0.011-0.039-0.018-0.078-0.023-0.118c-0.052-0.329,0.001-0.654,0.155-0.941
		c0,0,10-18.663,10.001-18.665c0.141-0.26,0.354-0.472,0.615-0.611c0.181-0.096,0.379-0.153,0.589-0.169
		c0.038-0.006,0.077-0.009,0.117-0.009c0.042,0,0.086,0.004,0.129,0.011c0.51,0.045,0.955,0.337,1.194,0.786l9.999,18.66
		c0.114,0.216,0.175,0.457,0.176,0.699c0,0.067-0.008,0.132-0.017,0.197c-0.002,0.034-0.006,0.067-0.012,0.101
		c-0.002,0.011-0.005,0.023-0.008,0.035c-0.008,0.031-0.016,0.058-0.025,0.084c-0.184,0.64-0.77,1.086-1.433,1.088
		c0,0-0.001,0-0.001,0H2.005z M21.118,21.331l-9.113-5.858l-9.112,5.858L21.118,21.331z M2.997,19.481l8.258-5.309V4.069
		L2.997,19.481z M21.01,19.479L12.755,4.073v10.098L21.01,19.479z"/>
</g>
</svg>
