<?xml version="1.0" encoding="utf-8"?>
<!-- Generator: Adobe Illustrator 22.1.0, SVG Export Plug-In . SVG Version: 6.00 Build 0)  -->
<svg version="1.1" id="Regular" xmlns="http://www.w3.org/2000/svg" xmlns:xlink="http://www.w3.org/1999/xlink" x="0px" y="0px"
	 viewBox="0 0 24 24" style="enable-background:new 0 0 24 24;" xml:space="preserve">
<title>shelf-tv-1</title>
<g>
	<path d="M3,24c-1.241,0-2.25-1.009-2.25-2.25v-9c0-1.241,1.009-2.25,2.25-2.25h8.25V9H7.5C6.259,9,5.25,7.991,5.25,6.75v-4.5
		C5.25,1.009,6.259,0,7.5,0h9c1.241,0,2.25,1.009,2.25,2.25v4.5C18.75,7.991,17.741,9,16.5,9h-3.75v1.5H21
		c1.241,0,2.25,1.009,2.25,2.25v9c0,1.241-1.009,2.25-2.25,2.25H3z M21,22.5c0.414,0,0.75-0.336,0.75-0.75V16.5h-9v6H21z
		 M2.25,21.75c0,0.414,0.336,0.75,0.75,0.75h8.25v-6h-9V21.75z M21.75,15v-2.25c0-0.414-0.336-0.75-0.75-0.75H3
		c-0.414,0-0.75,0.336-0.75,0.75V15H21.75z M7.5,1.5c-0.414,0-0.75,0.336-0.75,0.75v4.5c0,0.414,0.336,0.75,0.75,0.75h9
		c0.414,0,0.75-0.336,0.75-0.75v-4.5c0-0.414-0.336-0.75-0.75-0.75H7.5z"/>
	<circle cx="9" cy="19.5" r="1.125"/>
	<circle cx="15" cy="19.5" r="1.125"/>
</g>
</svg>
