<?xml version="1.0" encoding="utf-8"?>
<!-- Generator: Adobe Illustrator 22.1.0, SVG Export Plug-In . SVG Version: 6.00 Build 0)  -->
<svg version="1.1" id="Regular" xmlns="http://www.w3.org/2000/svg" xmlns:xlink="http://www.w3.org/1999/xlink" x="0px" y="0px"
	 viewBox="0 0 24 24" style="enable-background:new 0 0 24 24;" xml:space="preserve">
<title>shellfish-crab</title>
<g>
	<path d="M19.613,23.499c-0.051,0-0.103-0.005-0.153-0.016c-0.406-0.086-0.666-0.484-0.581-0.889
		c0.295-1.398-0.221-2.512-1.535-3.314c-1.492,1.42-3.432,2.198-5.495,2.198S7.846,20.7,6.354,19.28
		c-1.313,0.802-1.829,1.916-1.534,3.314c0.085,0.405-0.174,0.803-0.579,0.889c-0.053,0.011-0.104,0.016-0.155,0.016
		c-0.352,0-0.661-0.25-0.734-0.595c-0.243-1.151-0.283-3.252,2.004-4.77c-0.225-0.313-0.426-0.64-0.601-0.978
		c-1.68,0.115-2.672,0.872-3.03,2.308c-0.084,0.335-0.383,0.568-0.728,0.568c-0.061,0-0.122-0.008-0.181-0.022
		c-0.195-0.049-0.359-0.17-0.462-0.342c-0.103-0.172-0.133-0.373-0.085-0.568c0.485-1.944,1.832-3.109,3.908-3.393
		c-0.141-0.488-0.235-0.989-0.281-1.495c-3.006-0.249-3.65-2.086-3.65-3.613c-0.033-0.808,0.2-1.621,0.66-2.308
		c-1.215-1.615-0.752-3.884,1.14-5.459c0.795-0.642,1.654-1.2,2.556-1.661c0.205-0.107,0.439-0.165,0.674-0.165
		c0.551,0,1.052,0.303,1.307,0.791c0.165,0.316,0.21,0.681,0.127,1.028L6.45,3.916l1.122-0.053l0.06-0.001
		c0.375,0,0.731,0.138,1.004,0.389c0.29,0.266,0.458,0.63,0.475,1.023c0.015,0.35-0.096,0.695-0.312,0.971
		C8.18,7.041,7.477,7.778,6.709,8.434c-0.936,0.776-2.014,1.2-3.046,1.201c-0.568,0-1.111-0.128-1.593-0.372
		c-0.228,0.396-0.342,0.849-0.323,1.305c0.001,1.484,0.76,2.115,2.612,2.169l2.612-2.09c0.644-0.515,1.452-0.798,2.276-0.798h5.205
		c0.824,0,1.633,0.284,2.276,0.798l2.612,2.09c1.855-0.053,2.615-0.679,2.615-2.138c0.019-0.477-0.095-0.938-0.323-1.337
		c-0.482,0.245-1.025,0.373-1.591,0.373c-1.036-0.001-2.115-0.426-3.043-1.195c-0.776-0.662-1.48-1.4-2.099-2.199
		c-0.214-0.273-0.325-0.617-0.31-0.967c0.016-0.394,0.185-0.757,0.475-1.024c0.273-0.251,0.625-0.39,0.99-0.39
		c0.025,0,0.049,0.001,0.074,0.002l1.122,0.053l-0.261-1.092c-0.083-0.346-0.038-0.711,0.127-1.027
		c0.255-0.487,0.756-0.79,1.307-0.79c0.236,0,0.471,0.058,0.681,0.168c0.896,0.458,1.752,1.013,2.541,1.65
		c1.9,1.576,2.366,3.845,1.15,5.464c0.461,0.69,0.695,1.51,0.661,2.341c0,1.506-0.644,3.335-3.653,3.583
		c-0.045,0.506-0.139,1.006-0.281,1.494c2.077,0.283,3.425,1.449,3.909,3.393c0.049,0.194,0.019,0.396-0.084,0.568
		c-0.103,0.172-0.267,0.293-0.462,0.342c-0.06,0.015-0.121,0.022-0.182,0.022c-0.345,0-0.644-0.234-0.727-0.568
		c-0.358-1.436-1.351-2.192-3.031-2.308c-0.176,0.338-0.377,0.665-0.601,0.978c2.288,1.518,2.248,3.619,2.005,4.771
		C20.274,23.249,19.966,23.499,19.613,23.499z M5.373,13.846c0.185,3.398,3.052,6.132,6.476,6.132c3.424,0,6.29-2.734,6.475-6.132
		l-2.533-2.027c-0.379-0.302-0.855-0.469-1.34-0.469H9.247c-0.485,0-0.961,0.167-1.34,0.47L5.373,13.846z M16.117,5.364
		c0.549,0.702,1.169,1.35,1.845,1.927c0.655,0.542,1.394,0.844,2.076,0.844c0.606,0,1.136-0.238,1.494-0.669
		c0.793-0.956,0.44-2.42-0.839-3.481c-0.69-0.557-1.445-1.049-2.241-1.458l0.488,2.011c0.054,0.228-0.002,0.472-0.152,0.653
		c-0.142,0.172-0.354,0.272-0.582,0.272C18.202,5.462,16.117,5.364,16.117,5.364z M5.239,2.531C4.443,2.942,3.69,3.433,2.998,3.992
		C1.727,5.05,1.376,6.513,2.167,7.466c0.358,0.431,0.887,0.669,1.491,0.669c0.686-0.001,1.424-0.302,2.083-0.848
		c0.675-0.576,1.297-1.226,1.847-1.931L5.523,5.461c-0.006,0-0.025,0.001-0.031,0.001c-0.227,0-0.439-0.099-0.582-0.272
		C4.761,5.01,4.704,4.766,4.759,4.538L5.239,2.531z M7.614,5.323L7.614,5.323z"/>
	<path d="M10.041,9.192c-0.044,0-0.088-0.004-0.131-0.012c-0.513-0.06-0.922-0.47-0.982-0.982C8.92,8.155,8.916,8.111,8.916,8.067
		S8.92,7.979,8.927,7.936c0.06-0.513,0.47-0.922,0.982-0.982c0.043-0.008,0.087-0.012,0.131-0.012s0.088,0.004,0.131,0.012
		c0.513,0.06,0.922,0.47,0.982,0.982c0.008,0.043,0.012,0.087,0.012,0.131s-0.004,0.088-0.012,0.131
		c-0.06,0.513-0.47,0.922-0.982,0.982C10.129,9.188,10.085,9.192,10.041,9.192z"/>
	<path d="M13.658,9.192c-0.044,0-0.088-0.004-0.131-0.011c-0.513-0.06-0.922-0.47-0.982-0.983c-0.008-0.042-0.011-0.086-0.011-0.13
		s0.004-0.088,0.011-0.13c0.06-0.513,0.47-0.923,0.982-0.983c0.043-0.008,0.087-0.011,0.131-0.011s0.088,0.004,0.131,0.011
		c0.513,0.06,0.922,0.47,0.983,0.983c0.007,0.042,0.011,0.086,0.011,0.13s-0.004,0.088-0.011,0.13
		c-0.061,0.513-0.47,0.923-0.983,0.983C13.746,9.188,13.702,9.192,13.658,9.192z"/>
	<path d="M10.402,17.137c-0.414,0-0.75-0.336-0.75-0.75v-2.17c0-0.414,0.336-0.75,0.75-0.75s0.75,0.336,0.75,0.75v2.17
		C11.152,16.801,10.816,17.137,10.402,17.137z"/>
	<path d="M13.296,17.137c-0.414,0-0.75-0.336-0.75-0.75v-2.17c0-0.414,0.336-0.75,0.75-0.75s0.75,0.336,0.75,0.75v2.17
		C14.046,16.801,13.709,17.137,13.296,17.137z"/>
</g>
</svg>
