<?xml version="1.0" encoding="utf-8"?>
<!-- Generator: Adobe Illustrator 22.1.0, SVG Export Plug-In . SVG Version: 6.00 Build 0)  -->
<svg version="1.1" id="Regular" xmlns="http://www.w3.org/2000/svg" xmlns:xlink="http://www.w3.org/1999/xlink" x="0px" y="0px"
	 viewBox="0 0 24 24" style="enable-background:new 0 0 24 24;" xml:space="preserve">
<title>shelf-books-round</title>
<g>
	<path d="M3.75,24C3.336,24,3,23.664,3,23.25s0.336-0.75,0.75-0.75h2.449c-3.511-1.947-5.872-5.568-6.164-9.631
		c-0.006-0.039-0.01-0.078-0.01-0.119c0-0.003,0-0.007,0-0.011C0.008,12.462,0,12.226,0,12C0,5.383,5.383,0,12,0
		c6.617,0,12,5.383,12,12c0,0.225-0.008,0.46-0.025,0.739c0,0.004,0,0.008,0,0.011c0,0.042-0.003,0.082-0.01,0.122
		c-0.294,4.062-2.654,7.682-6.164,9.628h2.449c0.414,0,0.75,0.336,0.75,0.75S20.664,24,20.25,24H3.75z M10.5,22.39
		c0.503,0.073,1.006,0.11,1.5,0.11V18h-1.5L10.5,22.39z M13.5,22.393c0.504-0.073,1.007-0.184,1.5-0.332V18h-1.5V22.393z
		 M1.607,13.5C2.188,17.537,5.09,20.895,9,22.062V18c0-0.827,0.673-1.5,1.5-1.5H15c0.827,0,1.5,0.673,1.5,1.5v3.484
		c3.183-1.512,5.394-4.503,5.893-7.984H1.607z M22.5,12c0-5.79-4.71-10.5-10.5-10.5C6.21,1.5,1.5,6.21,1.5,12H6V7.25
		C6,6.561,6.561,6,7.25,6h5c0.689,0,1.25,0.561,1.25,1.25V12H22.5z M12,12V7.5h-1.5V12H12z M9,12V7.5H7.5V12H9z"/>
</g>
</svg>
