<?xml version="1.0" encoding="utf-8"?>
<!-- Generator: Adobe Illustrator 22.1.0, SVG Export Plug-In . SVG Version: 6.00 Build 0)  -->
<svg version="1.1" id="Regular" xmlns="http://www.w3.org/2000/svg" xmlns:xlink="http://www.w3.org/1999/xlink" x="0px" y="0px"
	 viewBox="0 0 24 24" style="enable-background:new 0 0 24 24;" xml:space="preserve">
<title>shellfish-shrimp</title>
<g>
	<path d="M3.914,24c-0.234,0-0.469-0.056-0.678-0.162c-0.721-0.365-1.023-1.251-0.677-1.98c0.441-1.096,1.395-1.932,2.532-2.239
		c0.173-1.408,1.177-2.566,2.571-2.93c0.113-0.035,0.258-0.056,0.403-0.057c0.831,0,1.505,0.672,1.507,1.499v0.619
		c2.068,0,3.75-1.682,3.75-3.75c0-0.768-0.239-1.518-0.679-2.146l-1.905,1.27c-0.123,0.082-0.267,0.126-0.416,0.126
		c-0.252,0-0.485-0.125-0.624-0.334c-0.111-0.167-0.151-0.367-0.111-0.563c0.039-0.197,0.153-0.366,0.32-0.477l1.615-1.077
		c-0.585-0.357-1.261-0.549-1.949-0.549h-3c-3.087,0-4.804-2.915-5.553-4.653C0.935,6.406,0.894,6.202,0.895,5.993
		c0.002-0.401,0.16-0.777,0.445-1.059C1.623,4.654,1.998,4.5,2.396,4.5h3.078C5.211,4.049,5.071,3.535,5.071,3c0-1.654,1.346-3,3-3
		h12c0.414,0,0.75,0.336,0.75,0.75s-0.336,0.75-0.75,0.75h-12c-0.827,0-1.5,0.673-1.5,1.5s0.673,1.5,1.5,1.5h3
		c1.04,0,2.069,0.166,3.059,0.494c0.045,0.011,0.09,0.026,0.134,0.045c3.923,1.364,6.557,5.063,6.557,9.21
		c0,0.239-0.011,0.492-0.033,0.774c0,0.04-0.003,0.079-0.01,0.117C20.325,20.11,16.065,24,11.071,24H3.914z M8.067,18.132
		c-0.943,0.247-1.568,1.114-1.499,2.064c0.03,0.409-0.279,0.769-0.688,0.802c-0.861,0.069-1.622,0.633-1.937,1.437
		c-0.01,0.024-0.019,0.046-0.03,0.066l6.174-0.001c-0.139-0.751-0.132-1.524,0.022-2.279c-0.18,0.019-0.36,0.029-0.538,0.029h-0.75
		c-0.414,0-0.75-0.336-0.75-0.75v-1.365c-0.006,0.001-0.013,0.001-0.02,0.002C8.049,18.137,8.058,18.135,8.067,18.132z
		 M11.807,19.747c-0.347,0.869-0.411,1.824-0.186,2.732c3.521-0.235,6.516-2.721,7.419-6.102c-0.632,0.224-1.301,0.341-1.969,0.341
		c-0.822,0-1.641-0.177-2.396-0.514C14.31,17.745,13.249,19.064,11.807,19.747z M14.798,14.578c0.685,0.417,1.468,0.636,2.273,0.636
		c0.792,0,1.563-0.213,2.241-0.617c0.006-0.126,0.009-0.24,0.009-0.348c0-2.982-1.62-5.719-4.188-7.176
		c0.219,1.231,0.055,2.315-0.49,3.231c-0.284,0.478-0.665,0.892-1.133,1.234C14.255,12.387,14.707,13.453,14.798,14.578z
		 M2.393,6.001C2.999,7.402,4.343,9.75,6.571,9.75h3c0.978,0,1.925,0.269,2.752,0.781c1.854-1.004,1.418-3.144,1.061-4.2
		C12.634,6.111,11.857,6,11.071,6h-8.67C2.396,6,2.393,6.001,2.393,6.001z"/>
	<path d="M9.2,9C9.155,9,9.112,8.996,9.07,8.989C8.564,8.93,8.165,8.543,8.091,8.04c-0.013-0.057-0.02-0.111-0.02-0.165
		c0-0.62,0.505-1.125,1.125-1.125c0.001,0,0.003,0,0.004,0c0.62,0,1.125,0.505,1.125,1.125c0,0.054-0.007,0.109-0.02,0.166
		c-0.075,0.5-0.472,0.886-0.975,0.947C9.315,8.991,9.299,8.992,9.283,8.994C9.266,8.996,9.225,9,9.208,9C9.206,9,9.205,9,9.204,9
		H9.2z"/>
</g>
</svg>
