<?xml version="1.0" encoding="utf-8"?>
<!-- Generator: Adobe Illustrator 22.1.0, SVG Export Plug-In . SVG Version: 6.00 Build 0)  -->
<svg version="1.1" id="Layer_1" xmlns="http://www.w3.org/2000/svg" xmlns:xlink="http://www.w3.org/1999/xlink" x="0px" y="0px"
	 viewBox="0 0 24 24" style="enable-background:new 0 0 24 24;" xml:space="preserve">
<title>shipment-plane</title>
<g>
	<path d="M15.434,23.127c-0.071,0-0.142-0.005-0.212-0.015c-0.395-0.056-0.746-0.263-0.986-0.583
		c-0.24-0.32-0.342-0.715-0.286-1.111l0.361-2.577l-1.467,0.493c-0.232,0.079-0.475,0.119-0.721,0.119
		c-0.639,0-1.251-0.274-1.677-0.752l-2.391-2.677C7.92,15.87,7.817,15.694,7.752,15.5c-0.263-0.784,0.161-1.636,0.945-1.898
		l1.765-0.594c0.078-0.026,0.158-0.039,0.239-0.039c0.199,0,0.387,0.077,0.528,0.217l0.863,0.855l1.253-0.421l-0.656-0.653
		c-0.165-0.164-0.291-0.367-0.365-0.588c-0.262-0.784,0.163-1.635,0.947-1.897l1.336-0.45c0.153-0.052,0.314-0.078,0.477-0.078
		c0.306,0,0.601,0.091,0.852,0.264l2.471,1.701l2.133-0.717c0.023-0.008,0.046-0.014,0.069-0.019
		c0.251-0.077,0.511-0.116,0.771-0.116c0.405,0,0.796,0.092,1.163,0.274c0.629,0.311,1.098,0.849,1.323,1.514
		c0.225,0.665,0.177,1.377-0.135,2.005c-0.311,0.629-0.849,1.098-1.513,1.322l-2.156,0.725l-1.866,4.805
		c-0.163,0.417-0.498,0.736-0.92,0.878l-1.362,0.457C15.759,23.1,15.598,23.127,15.434,23.127z M15.223,16.993
		c0.175,0,0.345,0.062,0.479,0.173c0.201,0.167,0.3,0.422,0.263,0.681l-0.53,3.78l1.36-0.457l1.994-5.133
		c0.081-0.208,0.249-0.368,0.46-0.439l2.488-0.836c0.284-0.096,0.514-0.297,0.648-0.567c0.134-0.269,0.154-0.575,0.058-0.86
		c-0.096-0.285-0.298-0.515-0.567-0.649c-0.158-0.078-0.325-0.118-0.498-0.118c-0.122,0-0.244,0.02-0.362,0.06
		c-0.02,0.007-0.04,0.013-0.06,0.018l-8.827,2.965c-0.077,0.026-0.157,0.039-0.239,0.039c-0.199,0-0.387-0.077-0.528-0.217
		l-0.862-0.855l-1.327,0.447l2.391,2.677c0.142,0.159,0.346,0.251,0.559,0.251c0.082,0,0.163-0.013,0.241-0.04l2.619-0.879
		C15.061,17.006,15.141,16.993,15.223,16.993z M13.748,11.905l1.188,1.182l1.694-0.569l-1.544-1.063L13.748,11.905z"/>
	<path d="M2.251,20.375c-1.241,0-2.25-1.009-2.25-2.25v-10.5c0-0.595,0.23-1.154,0.649-1.578l2.779-4.17
		c0.418-0.627,1.118-1.002,1.872-1.002h8.9c0.753,0.001,1.452,0.376,1.869,1.002l2.782,4.17c0.418,0.424,0.648,0.983,0.648,1.578
		v1.5c0,0.414-0.336,0.75-0.75,0.75s-0.75-0.336-0.75-0.75v-1.5c0-0.414-0.336-0.75-0.75-0.75h-15c-0.414,0-0.75,0.336-0.75,0.75
		v10.5c0,0.414,0.336,0.75,0.75,0.75h6c0.414,0,0.75,0.336,0.75,0.75s-0.336,0.75-0.75,0.75H2.251z M16.601,5.375l-1.779-2.666
		C14.683,2.5,14.451,2.375,14.2,2.375h-3.698v3H16.601z M9.001,5.375v-3h-3.7c-0.251,0-0.485,0.125-0.624,0.334L2.901,5.375H9.001z"
		/>
</g>
</svg>
