<?xml version="1.0" encoding="utf-8"?>
<!-- Generator: Adobe Illustrator 22.1.0, SVG Export Plug-In . SVG Version: 6.00 Build 0)  -->
<svg version="1.1" id="Layer_1" xmlns="http://www.w3.org/2000/svg" xmlns:xlink="http://www.w3.org/1999/xlink" x="0px" y="0px"
	 viewBox="0 0 24 24" style="enable-background:new 0 0 24 24;" xml:space="preserve">
<title>shipment-deliver</title>
<g>
	<path d="M13.778,23.912c-0.453,0-0.895-0.08-1.316-0.238L2.028,19.761c-0.547-0.204-0.991-0.605-1.252-1.128
		c-0.189-0.374-0.271-0.795-0.238-1.216c0.048-0.613,0.333-1.171,0.801-1.57c0.417-0.355,0.946-0.551,1.491-0.551
		c0.062,0,0.124,0.002,0.186,0.007l6.591,0.502c0.024-0.252,0.095-0.499,0.21-0.73c0.248-0.498,0.676-0.869,1.203-1.046
		c0.038-0.013,0.076-0.024,0.115-0.035l5.936-1.62c0.453-0.124,0.919-0.187,1.384-0.187c0.286,0,0.575,0.024,0.86,0.071l3.529,0.588
		c0.198,0.033,0.371,0.141,0.487,0.304s0.162,0.362,0.129,0.559c-0.061,0.363-0.372,0.626-0.741,0.626
		c-0.04,0-0.08-0.003-0.121-0.01l-3.53-0.588c-0.204-0.033-0.411-0.051-0.615-0.051c-0.332,0-0.664,0.045-0.988,0.134l-5.972,1.63
		c-0.146,0.049-0.266,0.153-0.336,0.292c-0.069,0.139-0.08,0.298-0.031,0.445c0.08,0.239,0.302,0.4,0.553,0.4h5.79
		c0.414,0,0.75,0.336,0.75,0.75s-0.336,0.75-0.75,0.75h-5.789c-0.617,0-1.199-0.275-1.592-0.743l-7.19-0.548
		c-0.026-0.002-0.049-0.003-0.072-0.003c-0.189,0-0.367,0.067-0.515,0.193c-0.163,0.139-0.262,0.334-0.279,0.548
		c-0.011,0.146,0.017,0.293,0.084,0.425c0.092,0.185,0.247,0.325,0.437,0.396l10.435,3.914c0.252,0.094,0.518,0.142,0.79,0.142
		c0.243,0,0.482-0.039,0.711-0.115l7.992-2.664c0.077-0.026,0.156-0.039,0.237-0.039c0.323,0,0.61,0.206,0.712,0.513
		c0.13,0.392-0.082,0.818-0.474,0.948l-7.993,2.664C14.582,23.847,14.183,23.912,13.778,23.912z"/>
	<path d="M3.22,13.727c-0.414,0-0.75-0.336-0.75-0.75V2.34c0.033-1.266,1.038-2.25,2.289-2.25l13.429,0
		c1.226,0,2.25,1.001,2.282,2.231l0,7.657c0,0.414-0.336,0.75-0.75,0.75s-0.75-0.336-0.75-0.75V2.34
		c-0.011-0.409-0.363-0.751-0.785-0.751c-0.004,0-3.715,0-3.715,0v4.5c0,0.827-0.673,1.5-1.5,1.5h-3c-0.827,0-1.5-0.673-1.5-1.5
		v-4.5l-3.702,0c-0.437,0-0.787,0.338-0.799,0.77l0,10.617C3.97,13.391,3.634,13.727,3.22,13.727z M9.97,6.09h3v-4.5h-3V6.09z"/>
</g>
</svg>
