<?xml version="1.0" encoding="utf-8"?>
<!-- Generator: Adobe Illustrator 22.1.0, SVG Export Plug-In . SVG Version: 6.00 Build 0)  -->
<svg version="1.1" id="Layer_1" xmlns="http://www.w3.org/2000/svg" xmlns:xlink="http://www.w3.org/1999/xlink" x="0px" y="0px"
	 viewBox="0 0 24 24" style="enable-background:new 0 0 24 24;" xml:space="preserve">
<title>shipment-delivered</title>
<g>
	<path d="M2.251,15c-1.241,0-2.25-1.009-2.25-2.25V2.25C0.001,1.009,1.01,0,2.251,0h12c1.241,0,2.25,1.009,2.25,2.25V6
		c0,0.414-0.336,0.75-0.75,0.75s-0.75-0.336-0.75-0.75V2.25c0-0.414-0.336-0.75-0.75-0.75h-3v6.75c0,0.414-0.336,0.75-0.75,0.75
		h-4.5c-0.414,0-0.75-0.336-0.75-0.75V1.5h-3c-0.414,0-0.75,0.336-0.75,0.75v10.5c0,0.414,0.336,0.75,0.75,0.75h5.25
		c0.414,0,0.75,0.336,0.75,0.75S2.251,15,2.251,15z M9.751,7.5v-6h-3v6H9.751z"/>
	<path d="M18.532,24c-0.302,0-0.627-0.007-0.991-0.015l-0.025,0c-0.488-0.011-1.039-0.023-1.703-0.023
		c-1.903,0-3.219-1.138-3.911-3.383c-0.008-0.025-0.014-0.05-0.019-0.074l-1.224-4.146c-0.006-0.02-0.011-0.04-0.015-0.06
		c-0.169-0.617-0.044-1.291,0.336-1.806c0.406-0.484,0.915-0.815,1.486-0.976c0.064-0.018,0.133-0.028,0.203-0.028h3.309
		c0.222,0,0.59,0,0.693-0.053c0.1-0.138,0.137-0.316,0.1-0.483l-0.789-2.267c-0.011-0.032-0.02-0.065-0.027-0.098
		c-0.101-0.503,0-1.015,0.285-1.442c0.284-0.427,0.718-0.718,1.22-0.818c0.125-0.025,0.253-0.038,0.381-0.038
		c0.586,0,1.133,0.265,1.5,0.726l3.325,4.709c0.112,0.158,0.295,0.253,0.489,0.254c0.2,0,0.389,0.079,0.53,0.221
		c0.141,0.142,0.219,0.33,0.219,0.531c0,0.413-0.337,0.749-0.75,0.749c-0.681-0.001-1.321-0.333-1.713-0.888l-3.3-4.675
		c-0.058-0.072-0.175-0.125-0.3-0.125c-0.028,0-0.057,0.003-0.085,0.009c-0.212,0.042-0.358,0.244-0.335,0.456l0.779,2.239
		c0.006,0.018,0.012,0.036,0.017,0.055c0.166,0.625,0.028,1.304-0.367,1.817c-0.481,0.624-1.252,0.624-1.871,0.624h-3.195
		c-0.239,0.084-0.452,0.229-0.618,0.423c-0.096,0.137-0.123,0.335-0.07,0.507c0.007,0.021,0.012,0.043,0.017,0.064l1.225,4.152
		c0.006,0.019,0.01,0.038,0.014,0.057c0.502,1.591,1.239,2.271,2.46,2.271c0.692,0,1.271,0.013,1.735,0.023
		c0.37,0.008,0.69,0.015,0.983,0.015c1.412,0,2.16-0.162,4.393-1.237c0.103-0.049,0.212-0.074,0.325-0.074
		c0.286,0,0.552,0.167,0.676,0.425c0.087,0.181,0.099,0.384,0.032,0.573c-0.066,0.189-0.202,0.341-0.383,0.428
		C21.132,23.791,20.13,24,18.532,24z"/>
</g>
</svg>
