<?xml version="1.0" encoding="utf-8"?>
<!-- Generator: Adobe Illustrator 22.1.0, SVG Export Plug-In . SVG Version: 6.00 Build 0)  -->
<svg version="1.1" id="Layer_1" xmlns="http://www.w3.org/2000/svg" xmlns:xlink="http://www.w3.org/1999/xlink" x="0px" y="0px"
	 viewBox="0 0 24 24" style="enable-background:new 0 0 24 24;" xml:space="preserve">
<title>shipment-weight-lb</title>
<g>
	<path d="M12,24c-5.376,0-9.75-4.374-9.75-9.75c0-3.164,1.539-6.126,4.125-7.959L6.44,5.677c0.114-1.058,0.232-2.15,0.309-3.221
		c-0.008-0.57,0.158-1.12,0.481-1.591c0.013-0.019,0.027-0.038,0.042-0.056C7.702,0.295,8.331,0,9,0h6
		c0.673,0,1.302,0.295,1.731,0.809c0.015,0.017,0.03,0.037,0.043,0.058c0.322,0.471,0.486,1.021,0.476,1.59
		c0.077,1.076,0.196,2.174,0.311,3.235l0.064,0.601c2.585,1.832,4.124,4.794,4.124,7.958C21.75,19.626,17.376,24,12,24z M12,6
		c-4.549,0-8.25,3.701-8.25,8.25S7.451,22.5,12,22.5s8.25-3.701,8.25-8.25S16.549,6,12,6z M12,4.5c1.386,0,2.762,0.298,4.018,0.867
		c-0.101-0.938-0.199-1.892-0.266-2.84C15.75,2.502,15.75,2.475,15.75,2.448c0.008-0.249-0.059-0.493-0.194-0.704
		C15.413,1.586,15.222,1.5,15.016,1.5L9,1.5c-0.211,0-0.411,0.089-0.553,0.245C8.31,1.956,8.242,2.2,8.25,2.452
		c0.001,0.026,0,0.052-0.002,0.078C8.181,3.477,8.083,4.433,7.983,5.367C9.239,4.798,10.614,4.5,12,4.5z"/>
	<path d="M13.5,18.75c-0.414,0-0.75-0.336-0.75-0.75v-7.5c0-0.414,0.336-0.75,0.75-0.75H15c1.241,0,2.25,1.009,2.25,2.25v0.75
		c0,0.563-0.206,1.091-0.575,1.5c0.37,0.409,0.575,0.937,0.575,1.5v0.75c0,1.241-1.009,2.25-2.25,2.25H13.5z M15,17.25
		c0.414,0,0.75-0.336,0.75-0.75v-0.75c0-0.414-0.336-0.75-0.75-0.75h-0.75v2.25H15z M15,13.5c0.414,0,0.75-0.336,0.75-0.75V12
		c0-0.414-0.336-0.75-0.75-0.75h-0.75v2.25H15z"/>
	<path d="M9,18.75c-1.241,0-2.25-1.009-2.25-2.25v-6c0-0.414,0.336-0.75,0.75-0.75s0.75,0.336,0.75,0.75v6
		c0,0.414,0.336,0.75,0.75,0.75h1.5c0.414,0,0.75,0.336,0.75,0.75s-0.336,0.75-0.75,0.75H9z"/>
</g>
</svg>
