<?xml version="1.0" encoding="utf-8"?>
<!-- Generator: Adobe Illustrator 22.1.0, SVG Export Plug-In . SVG Version: 6.00 Build 0)  -->
<svg version="1.1" id="Layer_1" xmlns="http://www.w3.org/2000/svg" xmlns:xlink="http://www.w3.org/1999/xlink" x="0px" y="0px"
	 viewBox="0 0 24 24" style="enable-background:new 0 0 24 24;" xml:space="preserve">
<title>shipment-heart</title>
<g>
	<path d="M17.251,24c-0.203,0-0.4-0.084-0.541-0.231l-5.114-5.335c-1.142-1.142-1.424-2.891-0.696-4.346
		c0.451-0.902,1.227-1.574,2.184-1.893c0.389-0.13,0.792-0.195,1.197-0.195c0.587,0,1.154,0.135,1.686,0.401
		c0.363,0.182,0.693,0.42,0.981,0.707l0.305,0.305l0.305-0.305c0.712-0.712,1.66-1.105,2.67-1.105c1.01,0,1.958,0.392,2.67,1.105
		c0.287,0.286,0.525,0.616,0.707,0.981c0.728,1.456,0.444,3.207-0.708,4.358l-5.103,5.324C17.652,23.916,17.455,24,17.251,24z
		 M14.28,13.499c-0.244,0-0.487,0.04-0.722,0.118c-0.577,0.192-1.044,0.597-1.316,1.141c-0.438,0.877-0.267,1.933,0.427,2.626
		l4.584,4.781l4.573-4.77c0.703-0.703,0.876-1.76,0.438-2.637c-0.11-0.219-0.253-0.418-0.426-0.591
		c-0.429-0.429-1.001-0.666-1.609-0.666s-1.18,0.236-1.609,0.666l-0.835,0.835c-0.142,0.142-0.33,0.22-0.53,0.22
		s-0.389-0.078-0.53-0.22l-0.835-0.835c-0.174-0.173-0.372-0.317-0.591-0.426C14.974,13.581,14.633,13.499,14.28,13.499z"/>
	<path d="M2.252,19.5c-1.241,0-2.25-1.009-2.25-2.25V6.75c0-0.596,0.231-1.156,0.651-1.58L3.43,1.002C3.848,0.375,4.548,0,5.301,0
		h8.9c0.753,0.002,1.452,0.376,1.869,1.002l2.781,4.168c0.42,0.425,0.65,0.984,0.65,1.58v1.5c0,0.414-0.336,0.75-0.75,0.75
		s-0.75-0.336-0.75-0.75v-1.5c0-0.414-0.336-0.75-0.75-0.75h-15c-0.414,0-0.75,0.336-0.75,0.75v10.5c0,0.414,0.336,0.75,0.75,0.75h6
		c0.414,0,0.75,0.336,0.75,0.75s-0.336,0.75-0.75,0.75H2.252z M16.601,4.5l-1.778-2.666C14.684,1.625,14.451,1.501,14.2,1.5h-3.699
		v3H16.601z M9.002,4.5v-3h-3.7c-0.251,0-0.484,0.125-0.624,0.334L2.901,4.5H9.002z"/>
</g>
</svg>
