<?xml version="1.0" encoding="utf-8"?>
<!-- Generator: Adobe Illustrator 22.1.0, SVG Export Plug-In . SVG Version: 6.00 Build 0)  -->
<svg version="1.1" id="Layer_1" xmlns="http://www.w3.org/2000/svg" xmlns:xlink="http://www.w3.org/1999/xlink" x="0px" y="0px"
	 viewBox="0 0 24 24" style="enable-background:new 0 0 24 24;" xml:space="preserve">
<title>shipment-lift-1</title>
<g>
	<path d="M18.75,23.977c-0.414,0-0.75-0.336-0.75-0.75v-2.939l-2.25,1.8v1.14c0,0.414-0.336,0.75-0.75,0.75s-0.75-0.336-0.75-0.75
		V5.977H7.5v2.66l3.804,3.34h0.801c0.769,0,1.395,0.626,1.395,1.395v6.21c0,0.769-0.626,1.395-1.395,1.395H1.395
		C0.626,20.977,0,20.351,0,19.582v-6.21c0-0.769,0.626-1.395,1.395-1.395h0.552L6,8.624V5.977H0.75C0.336,5.977,0,5.641,0,5.227
		s0.336-0.75,0.75-0.75h13.5V0.773c0-0.414,0.336-0.75,0.75-0.75s0.75,0.336,0.75,0.75v0.344l2.25,1.8V0.773
		c0-0.414,0.336-0.75,0.75-0.75s0.75,0.336,0.75,0.75v3.704h3.75c0.414,0,0.75,0.336,0.75,0.75s-0.336,0.75-0.75,0.75H22.5v2.25
		h0.317C23.469,8.227,24,8.758,24,9.41v3.634c0,0.652-0.531,1.183-1.183,1.183h-2.134c-0.652,0-1.183-0.531-1.183-1.183V9.41
		c0-0.652,0.531-1.183,1.183-1.183H21v-2.25h-1.5v1.5c0,0.414-0.336,0.75-0.75,0.75S18,7.891,18,7.477V6.288l-1.905,1.905
		l1.948,1.718c0.31,0.273,0.34,0.748,0.066,1.058c-0.142,0.161-0.347,0.254-0.563,0.254c-0.183,0-0.359-0.067-0.496-0.188
		L15.75,9.888v4.177l1.304-1.15c0.138-0.121,0.314-0.188,0.496-0.188c0.215,0,0.42,0.093,0.562,0.254
		c0.274,0.31,0.244,0.785-0.066,1.059l-1.881,1.659L18,17.167v-1.439c0-0.414,0.336-0.75,0.75-0.75s0.75,0.336,0.75,0.75v7.5
		C19.5,23.641,19.164,23.977,18.75,23.977z M15.75,20.167l1.799-1.439l-1.799-1.439V20.167z M12,19.477v-6H1.5v6H12z M22.5,12.727
		v-3H21v3H22.5z M9.031,11.977L6.736,9.962L4.3,11.977H9.031z M15.75,6.416l1.877-1.877L15.75,3.038V6.416z"/>
	<path d="M3.75,17.977c-0.414,0-0.75-0.336-0.75-0.75v-1.5c0-0.414,0.336-0.75,0.75-0.75s0.75,0.336,0.75,0.75v1.5
		C4.5,17.641,4.164,17.977,3.75,17.977z"/>
	<path d="M6.75,17.977c-0.414,0-0.75-0.336-0.75-0.75v-1.5c0-0.414,0.336-0.75,0.75-0.75s0.75,0.336,0.75,0.75v1.5
		C7.5,17.641,7.164,17.977,6.75,17.977z"/>
	<path d="M9.75,17.977c-0.414,0-0.75-0.336-0.75-0.75v-1.5c0-0.414,0.336-0.75,0.75-0.75s0.75,0.336,0.75,0.75v1.5
		C10.5,17.641,10.164,17.977,9.75,17.977z"/>
</g>
</svg>
