<?xml version="1.0" encoding="utf-8"?>
<!-- Generator: Adobe Illustrator 22.1.0, SVG Export Plug-In . SVG Version: 6.00 Build 0)  -->
<svg version="1.1" id="Layer_1" xmlns="http://www.w3.org/2000/svg" xmlns:xlink="http://www.w3.org/1999/xlink" x="0px" y="0px"
	 viewBox="0 0 24 24" style="enable-background:new 0 0 24 24;" xml:space="preserve">
<title>shipment-next</title>
<g>
	<path d="M12.75,23.25c-0.414,0-0.75-0.336-0.75-0.75c0-4.549,3.701-8.25,8.25-8.25h1.189l-1.72-1.72
		C19.578,12.389,19.5,12.2,19.5,12s0.078-0.389,0.22-0.53s0.33-0.22,0.53-0.22s0.389,0.078,0.53,0.22l3,3
		c0.07,0.07,0.125,0.152,0.163,0.245c0.003,0.008,0.007,0.017,0.01,0.026C23.984,14.822,24,14.911,24,15
		c0,0.087-0.016,0.174-0.046,0.258c-0.002,0.006-0.004,0.011-0.006,0.017c-0.042,0.104-0.097,0.186-0.167,0.256l-3,3
		c-0.142,0.142-0.33,0.22-0.53,0.22s-0.389-0.078-0.53-0.22c-0.292-0.292-0.292-0.768,0-1.061l1.72-1.72H20.25
		c-3.722,0-6.75,3.028-6.75,6.75C13.5,22.914,13.164,23.25,12.75,23.25z"/>
	<path d="M2.25,20.25C1.009,20.25,0,19.241,0,18V7.5c0-0.599,0.233-1.16,0.656-1.585l2.772-4.163C3.846,1.125,4.546,0.75,5.3,0.75
		h8.9c0.753,0.002,1.452,0.376,1.869,1.002l2.775,4.163C19.268,6.34,19.5,6.901,19.5,7.5V9c0,0.414-0.336,0.75-0.75,0.75
		S18,9.414,18,9V7.5c0-0.414-0.336-0.75-0.75-0.75h-15C1.836,6.75,1.5,7.086,1.5,7.5V18c0,0.414,0.336,0.75,0.75,0.75h6
		C8.664,18.75,9,19.086,9,19.5s-0.336,0.75-0.75,0.75H2.25z M16.598,5.25l-1.777-2.666c-0.139-0.209-0.372-0.333-0.623-0.334H10.5v3
		H16.598z M9,5.25v-3H5.3c-0.251,0-0.485,0.125-0.624,0.334L2.901,5.25H9z"/>
</g>
</svg>
