<?xml version="1.0" encoding="utf-8"?>
<!-- Generator: Adobe Illustrator 22.1.0, SVG Export Plug-In . SVG Version: 6.00 Build 0)  -->
<svg version="1.1" id="Layer_1" xmlns="http://www.w3.org/2000/svg" xmlns:xlink="http://www.w3.org/1999/xlink" x="0px" y="0px"
	 viewBox="0 0 24 24" style="enable-background:new 0 0 24 24;" xml:space="preserve">
<title>shipment-cargo-boat</title>
<g>
	<path d="M22.564,24.044c-1.367,0-2.699-0.453-3.785-1.281c-0.953,0.8-2.156,1.238-3.41,1.238c-0.087,0-0.175-0.002-0.263-0.006
		c-1.143-0.058-2.234-0.484-3.107-1.207c-0.946,0.782-2.135,1.211-3.372,1.211c-1.258,0-2.455-0.437-3.406-1.236
		c-1.085,0.828-2.417,1.281-3.786,1.281c-0.259,0-0.52-0.016-0.777-0.048c-0.199-0.024-0.376-0.125-0.499-0.283
		s-0.177-0.354-0.153-0.553c0.047-0.375,0.366-0.658,0.744-0.658c0.031,0,0.061,0.002,0.092,0.006
		c0.197,0.024,0.396,0.037,0.593,0.037c1.233,0,2.403-0.473,3.295-1.333c0.138-0.134,0.326-0.21,0.515-0.21
		c0.007,0,0.031,0.001,0.038,0.001c0.195,0.007,0.388,0.097,0.524,0.247c0.68,0.752,1.612,1.196,2.624,1.247
		c0.072,0.004,0.141,0.006,0.211,0.006c0.93,0,1.828-0.348,2.527-0.979c0.096-0.086,0.188-0.178,0.274-0.274
		c0.142-0.157,0.345-0.247,0.557-0.247c0.212,0,0.415,0.09,0.557,0.248c0.679,0.753,1.612,1.196,2.625,1.247
		c0.071,0.004,0.141,0.006,0.21,0.006c0.931,0,1.829-0.348,2.529-0.979c0.095-0.086,0.187-0.178,0.274-0.274
		c0.135-0.15,0.329-0.24,0.531-0.246c0.004,0,0.029-0.001,0.033-0.001c0.188,0,0.375,0.077,0.513,0.211
		c0.892,0.859,2.062,1.332,3.296,1.332c0.197,0,0.396-0.012,0.592-0.036c0.031-0.004,0.062-0.006,0.092-0.006
		c0.378,0,0.698,0.283,0.745,0.657c0.025,0.198-0.029,0.395-0.153,0.553c-0.123,0.158-0.301,0.259-0.499,0.283
		C23.085,24.027,22.823,24.044,22.564,24.044C22.564,24.044,22.564,24.044,22.564,24.044z"/>
	<path d="M1.29,21.081c-0.31,0-0.584-0.186-0.698-0.474c-0.313-0.793-0.511-1.626-0.588-2.475c-0.004-0.046-0.006-0.09-0.006-0.134
		c0-0.828,0.673-1.501,1.501-1.501v-5.246c0-1.241,1.009-2.25,2.25-2.25H15v-3.75c0-1.241,1.009-2.25,2.25-2.25h1.5v-2.25
		c0-0.414,0.336-0.75,0.75-0.75s0.75,0.336,0.75,0.75v2.25c1.241,0,2.25,1.009,2.25,2.25v11.25c0.03,0.002,0.059,0.005,0.088,0.009
		c0.394,0.048,0.748,0.249,0.995,0.565s0.356,0.71,0.306,1.108l-0.264,2.112c-0.047,0.374-0.366,0.657-0.744,0.657
		c-0.031,0-0.062-0.002-0.094-0.006c-0.41-0.051-0.702-0.427-0.651-0.837l0.264-2.111l-0.586,0
		c-0.022,0.003-0.043,0.004-0.064,0.004h-6c-0.022,0-0.043-0.002-0.065-0.004H8.315C8.293,18,8.272,18.001,8.25,18.001h-6
		c-0.022,0-0.043-0.002-0.065-0.004H1.5c0.062,0.707,0.227,1.399,0.488,2.058c0.152,0.385-0.037,0.821-0.422,0.973
		C1.479,21.063,1.386,21.081,1.29,21.081z M21,16.497V5.251c0-0.414-0.336-0.75-0.75-0.75h-3c-0.414,0-0.75,0.336-0.75,0.75v0.75
		h2.25c0.414,0,0.75,0.336,0.75,0.75s-0.336,0.75-0.75,0.75H16.5v8.996H21z M15,16.497v-2.246H9v2.246H15z M7.5,16.497v-2.246H3
		v2.246H7.5z M15,12.751v-2.25H9v2.25H15z M7.5,12.751v-2.25H3.75c-0.414,0-0.75,0.336-0.75,0.75v1.5H7.5z"/>
</g>
</svg>
