<?xml version="1.0" encoding="utf-8"?>
<!-- Generator: Adobe Illustrator 22.1.0, SVG Export Plug-In . SVG Version: 6.00 Build 0)  -->
<svg version="1.1" id="Layer_1" xmlns="http://www.w3.org/2000/svg" xmlns:xlink="http://www.w3.org/1999/xlink" x="0px" y="0px"
	 viewBox="0 0 24 24" style="enable-background:new 0 0 24 24;" xml:space="preserve">
<title>shipment-international</title>
<g>
	<path d="M17.624,24.003c-1.017,0-1.937-0.593-2.369-1.5h-3.513c-0.432,0.907-1.352,1.5-2.369,1.5s-1.937-0.593-2.369-1.5H6.749
		c-1.241,0-2.25-1.009-2.25-2.25v-6c0-1.241,1.009-2.25,2.25-2.25h9c0.96,0,1.808,0.615,2.121,1.5h2.379
		c2.068,0,3.75,1.682,3.75,3.75v3c0,1.241-1.009,2.25-2.25,2.25h-1.756C19.562,23.411,18.641,24.003,17.624,24.003z M16.524,21.612
		c0.109,0.517,0.571,0.891,1.101,0.891c0.531,0,0.995-0.377,1.102-0.898c0.015-0.078,0.023-0.153,0.023-0.227
		c0-0.62-0.505-1.125-1.125-1.125c-0.074,0-0.149,0.008-0.224,0.022c0,0-0.018,0.003-0.026,0.005
		c-0.498,0.103-0.875,0.567-0.875,1.098c0,0.074,0.008,0.149,0.022,0.224C16.522,21.605,16.523,21.608,16.524,21.612z M9.374,20.253
		c-0.62,0-1.125,0.505-1.125,1.125c0,0.074,0.008,0.15,0.023,0.224c0.001,0.007,0.003,0.018,0.004,0.025
		c0.103,0.498,0.567,0.876,1.098,0.876c0.531,0,0.995-0.377,1.102-0.897c0.016-0.078,0.023-0.153,0.023-0.228
		C10.499,20.758,9.995,20.253,9.374,20.253z M21.749,21.003c0.414,0,0.75-0.336,0.75-0.75v-2.25h-2.25
		c-0.414,0-0.75-0.336-0.75-0.75s0.336-0.75,0.75-0.75h2.118c-0.313-0.879-1.158-1.5-2.118-1.5h-2.25v3.777
		c1.148,0.165,2.058,1.075,2.223,2.223H21.749z M15.026,21.003c0.126-0.864,0.679-1.616,1.473-1.994v-4.756
		c0-0.414-0.336-0.75-0.75-0.75h-9c-0.414,0-0.75,0.336-0.75,0.75v6c0,0.414,0.336,0.75,0.75,0.75h0.027
		c0.182-1.271,1.278-2.25,2.598-2.25s2.416,0.979,2.598,2.25H15.026z"/>
	<path d="M1.757,14.644c-0.282,0-0.537-0.155-0.667-0.406c-1.229-2.375-1.429-5.081-0.563-7.623
		c0.014-0.076,0.039-0.148,0.074-0.215c0.842-2.298,2.498-4.181,4.667-5.303c1.375-0.712,2.857-1.077,4.405-1.087
		C9.698,0.008,9.724,0.005,9.75,0.005c0.026,0,0.05,0.002,0.075,0.006c3.632,0.034,6.919,2.049,8.583,5.265
		c0.188,0.362,0.358,0.755,0.507,1.169c0.021,0.045,0.037,0.092,0.048,0.139c0.355,1.033,0.536,2.099,0.536,3.169
		c0,0.414-0.336,0.75-0.75,0.75c-0.414,0-0.75-0.336-0.75-0.75c0-0.756-0.107-1.511-0.317-2.25h-3.574
		c0.115,0.753,0.163,1.516,0.141,2.272c-0.012,0.408-0.341,0.728-0.749,0.728c-0.436-0.012-0.762-0.359-0.75-0.772
		c0.021-0.738-0.034-1.486-0.164-2.228H6.913c-0.13,0.742-0.185,1.49-0.164,2.228c0.012,0.413-0.315,0.759-0.728,0.771c0,0,0,0,0,0
		c-0.43,0-0.759-0.32-0.771-0.728C5.228,9.019,5.275,8.256,5.39,7.503H1.818C1.238,9.534,1.45,11.671,2.422,13.55
		c0.092,0.178,0.109,0.381,0.049,0.572s-0.192,0.347-0.37,0.439C1.995,14.615,1.876,14.644,1.757,14.644z M17.096,6.003
		c-0.006-0.013-0.013-0.025-0.019-0.038c-1.114-2.152-3.103-3.685-5.436-4.234c0.976,1.272,1.707,2.728,2.142,4.272H17.096z
		 M12.215,6.003c-0.503-1.558-1.346-2.99-2.465-4.185C8.631,3.013,7.787,4.445,7.284,6.003H12.215z M5.717,6.003
		C6.152,4.458,6.884,3,7.862,1.727c-0.66,0.154-1.298,0.39-1.905,0.704c-1.527,0.79-2.771,2.046-3.55,3.573H5.717z"/>
</g>
</svg>
