<?xml version="1.0" encoding="utf-8"?>
<!-- Generator: Adobe Illustrator 22.1.0, SVG Export Plug-In . SVG Version: 6.00 Build 0)  -->
<svg version="1.1" id="Layer_1" xmlns="http://www.w3.org/2000/svg" xmlns:xlink="http://www.w3.org/1999/xlink" x="0px" y="0px"
	 viewBox="0 0 24 24" style="enable-background:new 0 0 24 24;" xml:space="preserve">
<title>shipment-download</title>
<g>
	<path d="M17.25,24c-3.722,0-6.75-3.028-6.75-6.75s3.028-6.75,6.75-6.75S24,13.528,24,17.25S20.972,24,17.25,24z M17.25,12
		C14.355,12,12,14.355,12,17.25s2.355,5.25,5.25,5.25s5.25-2.355,5.25-5.25S20.145,12,17.25,12z"/>
	<path d="M17.25,21c-0.414,0-0.75-0.336-0.75-0.75v-4.189l-0.97,0.97c-0.142,0.142-0.33,0.22-0.53,0.22s-0.389-0.078-0.53-0.22
		c-0.292-0.292-0.292-0.768,0-1.061l2.25-2.25c0.07-0.07,0.152-0.125,0.245-0.163c0.008-0.003,0.017-0.007,0.026-0.01
		c0.082-0.031,0.17-0.047,0.259-0.047c0.087,0,0.174,0.016,0.258,0.046c0.006,0.002,0.011,0.004,0.017,0.006
		c0.104,0.042,0.186,0.097,0.256,0.167l2.25,2.25c0.292,0.292,0.292,0.768,0,1.061c-0.142,0.142-0.33,0.22-0.53,0.22
		s-0.389-0.078-0.53-0.22L18,16.061v4.189C18,20.664,17.664,21,17.25,21z"/>
	<path d="M2.25,19.5C1.009,19.5,0,18.491,0,17.25V6.75c0-0.596,0.231-1.156,0.651-1.58l2.777-4.168C3.846,0.375,4.546,0,5.3,0h8.9
		c0.753,0.002,1.452,0.376,1.869,1.002L18.85,5.17c0.42,0.425,0.65,0.984,0.65,1.58v1.5C19.5,8.664,19.164,9,18.75,9
		S18,8.664,18,8.25v-1.5C18,6.336,17.664,6,17.25,6h-15C1.836,6,1.5,6.336,1.5,6.75v10.5C1.5,17.664,1.836,18,2.25,18h6
		C8.664,18,9,18.336,9,18.75S8.664,19.5,8.25,19.5H2.25z M16.599,4.5l-1.778-2.666c-0.139-0.209-0.372-0.334-0.623-0.334H10.5v3
		H16.599z M9,4.5v-3H5.3c-0.251,0-0.485,0.125-0.624,0.334L2.899,4.5H9z"/>
</g>
</svg>
