<?xml version="1.0" encoding="utf-8"?>
<!-- Generator: Adobe Illustrator 22.1.0, SVG Export Plug-In . SVG Version: 6.00 Build 0)  -->
<svg version="1.1" id="Layer_1" xmlns="http://www.w3.org/2000/svg" xmlns:xlink="http://www.w3.org/1999/xlink" x="0px" y="0px"
	 viewBox="0 0 24 24" style="enable-background:new 0 0 24 24;" xml:space="preserve">
<title>shipment-tracking</title>
<g>
	<path d="M2.25,24C1.009,24,0,22.991,0,21.75V2.25C0,1.009,1.009,0,2.25,0h19.5C22.991,0,24,1.009,24,2.25v19.5
		c0,1.241-1.009,2.25-2.25,2.25H2.25z M2.25,1.5C1.836,1.5,1.5,1.836,1.5,2.25v19.5c0,0.414,0.336,0.75,0.75,0.75h19.5
		c0.414,0,0.75-0.336,0.75-0.75V2.25c0-0.414-0.336-0.75-0.75-0.75H16.5v7.663c-0.002,0.465-0.254,0.891-0.659,1.114
		c-0.191,0.105-0.407,0.16-0.626,0.16c-0.216,0-0.429-0.054-0.617-0.155L12.007,9.08l-2.647,1.286
		c-0.172,0.088-0.373,0.136-0.573,0.136c-0.232,0-0.461-0.063-0.663-0.183C7.742,10.094,7.502,9.675,7.5,9.228V1.5H2.25z M9,8.873
		l2.672-1.298C11.774,7.526,11.887,7.5,12,7.5c0.108,0,0.217,0.024,0.315,0.069L15,8.815V1.5H9V8.873z"/>
	<path d="M12.75,21C12.336,21,12,20.664,12,20.25V16.5c0-0.414,0.336-0.75,0.75-0.75h7.5c0.414,0,0.75,0.336,0.75,0.75v3.75
		c0,0.414-0.336,0.75-0.75,0.75H12.75z M19.5,19.5v-2.25h-6v2.25H19.5z"/>
</g>
</svg>
