<?xml version="1.0" encoding="utf-8"?>
<!-- Generator: Adobe Illustrator 22.1.0, SVG Export Plug-In . SVG Version: 6.00 Build 0)  -->
<svg version="1.1" id="Regular" xmlns="http://www.w3.org/2000/svg" xmlns:xlink="http://www.w3.org/1999/xlink" x="0px" y="0px"
	 viewBox="0 0 24 24" style="enable-background:new 0 0 24 24;" xml:space="preserve">
<title>shooting-target</title>
<g>
	<path d="M20.25,23.998c-0.414,0-0.75-0.336-0.75-0.75v-5.25c-0.002-3.07-1.926-5.878-4.789-6.986
		c-0.26-0.101-0.441-0.336-0.474-0.612c-0.033-0.276,0.09-0.547,0.319-0.705c0.989-0.683,1.653-1.71,1.87-2.892
		c0.217-1.182-0.04-2.378-0.723-3.367c-0.683-0.989-1.71-1.654-2.892-1.87c-0.272-0.05-0.549-0.075-0.823-0.075
		c-0.909,0-1.789,0.276-2.545,0.798c-2.042,1.409-2.557,4.218-1.148,6.26c0.311,0.451,0.697,0.837,1.148,1.148
		c0.229,0.158,0.351,0.428,0.319,0.705c-0.032,0.276-0.214,0.511-0.474,0.612C6.426,12.12,4.501,14.928,4.5,17.998v5.25
		c0,0.414-0.336,0.75-0.75,0.75S3,23.661,3,23.248v-5.25c0.002-3.264,1.811-6.298,4.652-7.872C7.437,9.9,7.24,9.657,7.062,9.399
		c-1.879-2.723-1.193-6.467,1.53-8.346c1.008-0.696,2.182-1.064,3.396-1.064c0.364,0,0.732,0.034,1.094,0.1
		c1.576,0.289,2.946,1.175,3.856,2.494c0.91,1.319,1.253,2.914,0.964,4.49c-0.214,1.167-0.747,2.212-1.552,3.054
		c2.84,1.575,4.648,4.608,4.65,7.871v5.25C21,23.661,20.664,23.998,20.25,23.998z"/>
	<path d="M12,22.498c-2.481,0-4.5-2.019-4.5-4.5s2.019-4.5,4.5-4.5c2.481,0,4.5,2.019,4.5,4.5S14.481,22.498,12,22.498z M12,14.998
		c-1.654,0-3,1.346-3,3s1.346,3,3,3c1.654,0,3-1.346,3-3S13.654,14.998,12,14.998z"/>
	<path d="M12,19.123c-0.044,0-0.088-0.004-0.13-0.011c-0.513-0.06-0.923-0.47-0.983-0.982c-0.008-0.043-0.011-0.087-0.011-0.131
		s0.004-0.088,0.011-0.131c0.06-0.513,0.47-0.922,0.983-0.983c0.042-0.007,0.086-0.011,0.13-0.011s0.088,0.004,0.13,0.011
		c0.513,0.061,0.923,0.47,0.983,0.983c0.008,0.042,0.011,0.086,0.011,0.131s-0.004,0.088-0.011,0.131
		c-0.06,0.513-0.47,0.923-0.983,0.983C12.088,19.119,12.044,19.123,12,19.123z"/>
</g>
</svg>
