<?xml version="1.0" encoding="utf-8"?>
<!-- Generator: Adobe Illustrator 22.1.0, SVG Export Plug-In . SVG Version: 6.00 Build 0)  -->
<svg version="1.1" id="Layer_1" xmlns="http://www.w3.org/2000/svg" xmlns:xlink="http://www.w3.org/1999/xlink" x="0px" y="0px"
	 viewBox="0 0 24 24" style="enable-background:new 0 0 24 24;" xml:space="preserve">
<title>shop-dislike</title>
<g>
	<path d="M15.749,21.75c-0.414,0-0.75-0.336-0.75-0.75s0.336-0.75,0.75-0.75h4.5c0.414,0,0.75-0.336,0.75-0.75V9.727
		C20.89,9.74,20.781,9.747,20.671,9.75c-1.053-0.039-2.019-0.536-2.651-1.331c-0.629,0.795-1.584,1.291-2.609,1.33
		c-0.005,0-0.055,0-0.057,0c-1.024-0.039-1.978-0.535-2.607-1.329c-0.629,0.794-1.583,1.29-2.607,1.329c-0.005,0-0.056,0-0.057,0
		C9.061,9.71,8.106,9.214,7.478,8.421C6.849,9.214,5.895,9.71,4.871,9.75c-1.51-0.031-2.798-1-3.228-2.411
		C1.443,6.734,1.45,6.057,1.667,5.441l1.514-4.278C3.402,0.486,4.041,0.015,4.768,0l15.94,0c0.74,0.012,1.386,0.486,1.613,1.181
		l1.508,4.26c0.218,0.615,0.224,1.295,0.019,1.915c-0.226,0.74-0.702,1.379-1.35,1.814V19.5c0,1.241-1.009,2.25-2.25,2.25H15.749z
		 M18.77,6.355c0.048,1.025,0.886,1.856,1.913,1.895c0.789-0.019,1.496-0.561,1.736-1.349c0.105-0.319,0.103-0.657-0.004-0.96
		l-1.514-4.277c-0.033-0.102-0.113-0.163-0.205-0.164H4.788C4.708,1.502,4.63,1.561,4.602,1.646l-1.52,4.295
		c-0.107,0.303-0.11,0.638-0.009,0.943C3.318,7.687,4.035,8.232,4.859,8.25c0.992-0.039,1.82-0.87,1.868-1.894
		C6.725,6.284,6.726,6.211,6.728,6.138c0.014-0.406,0.344-0.724,0.75-0.724s0.735,0.318,0.75,0.724
		C8.23,6.211,8.23,6.284,8.228,6.356c0.048,1.013,0.872,1.84,1.885,1.893c1.013-0.053,1.838-0.881,1.885-1.894
		c-0.002-0.072-0.002-0.145,0.001-0.218c0.014-0.406,0.344-0.724,0.75-0.724s0.735,0.318,0.75,0.724
		c0.003,0.073,0.003,0.146,0.001,0.218c0.047,1.013,0.871,1.841,1.885,1.894c1.013-0.053,1.838-0.881,1.885-1.894
		c-0.002-0.072-0.002-0.145,0.001-0.218c0.014-0.406,0.344-0.724,0.75-0.724s0.735,0.318,0.75,0.724
		C18.772,6.211,18.772,6.283,18.77,6.355z"/>
	<path d="M8.628,24.002c-1.034,0-1.875-0.841-1.875-1.875V21.35c0-1.389-0.943-2.572-2.254-2.906v0.305
		c0,0.414-0.336,0.75-0.75,0.75h-3c-0.414,0-0.75-0.336-0.75-0.75S0.335,18,0.749,18h2.25v-5.25h-2.25
		c-0.414,0-0.75-0.336-0.75-0.75s0.336-0.75,0.75-0.75h3c0.368,0,0.674,0.266,0.738,0.616l1.652-0.472
		c0.333-0.095,0.678-0.144,1.025-0.144h2.447c1.937,0,3.541,1.451,3.734,3.375l0.152,2.58c0.075,1.432-0.878,2.723-2.266,3.072
		l-0.75,0.164l0.022,1.686C10.503,23.161,9.662,24.002,8.628,24.002z M4.499,16.913c2.131,0.361,3.754,2.247,3.754,4.438v0.777
		c0,0.207,0.168,0.375,0.375,0.375s0.375-0.168,0.375-0.375v-1.692c0-0.69,0.467-1.288,1.137-1.455l0.749-0.164
		c0.676-0.17,1.148-0.813,1.111-1.528l-0.15-2.544c-0.114-1.13-1.076-1.994-2.236-1.994h-2.45c-0.208,0-0.414,0.029-0.613,0.086
		l-1.818,0.519c-0.078,0.022-0.156,0.042-0.235,0.059V16.913z"/>
</g>
</svg>
