<?xml version="1.0" encoding="utf-8"?>
<!-- Generator: Adobe Illustrator 22.1.0, SVG Export Plug-In . SVG Version: 6.00 Build 0)  -->
<svg version="1.1" id="Layer_1" xmlns="http://www.w3.org/2000/svg" xmlns:xlink="http://www.w3.org/1999/xlink" x="0px" y="0px"
	 viewBox="0 0 24 24" style="enable-background:new 0 0 24 24;" xml:space="preserve">
<title>shopping-basket-woman</title>
<g>
	<path d="M14.999,24c-0.368,0-0.679-0.264-0.74-0.627l-0.75-4.5c-0.033-0.198,0.013-0.396,0.129-0.559
		c0.116-0.163,0.29-0.271,0.487-0.304C14.168,18.003,14.209,18,14.25,18c0.368,0,0.678,0.263,0.739,0.626l0.646,3.874h3.229
		l0.646-3.873C19.57,18.264,19.881,18,20.249,18h1.959l-1.921-5.763C19.385,9.53,18.49,9,17.249,9s-2.136,0.53-3.039,3.237l-0.8,2.4
		c-0.102,0.307-0.388,0.513-0.712,0.513c-0.081,0-0.16-0.013-0.237-0.039c-0.19-0.063-0.344-0.197-0.434-0.376
		c-0.089-0.179-0.104-0.382-0.041-0.572l0.8-2.4C13.491,9.655,14.57,7.5,17.249,7.5c2.679,0,3.759,2.155,4.461,4.263l2.25,6.75
		c0.076,0.229,0.037,0.481-0.103,0.676c-0.14,0.195-0.368,0.311-0.608,0.311h-2.365l-0.646,3.873C20.179,23.736,19.868,24,19.499,24
		H14.999z"/>
	<path d="M17.249,7.5c-2.068,0-3.75-1.682-3.75-3.75S15.182,0,17.249,0s3.75,1.682,3.75,3.75S19.317,7.5,17.249,7.5z M17.249,1.5
		c-1.241,0-2.25,1.009-2.25,2.25S16.009,6,17.249,6s2.25-1.009,2.25-2.25S18.49,1.5,17.249,1.5z"/>
	<path d="M2.857,24c-0.622-0.002-1.185-0.394-1.402-0.974l-1.307-3.487c-0.094-0.25-0.142-0.514-0.143-0.782
		c-0.003-1.073,0.773-2.002,1.806-2.212l1.329-3.324c0.114-0.286,0.387-0.472,0.696-0.472c0.096,0,0.189,0.018,0.279,0.054
		c0.186,0.074,0.332,0.217,0.411,0.401c0.079,0.184,0.081,0.388,0.007,0.574L3.444,16.5h5.285L7.64,13.778
		c-0.074-0.186-0.072-0.39,0.007-0.574c0.079-0.184,0.225-0.326,0.411-0.401c0.089-0.036,0.183-0.054,0.278-0.054
		c0.309,0,0.582,0.185,0.697,0.472l1.329,3.322c0.118,0.024,0.234,0.057,0.347,0.099c0.563,0.211,1.01,0.628,1.259,1.175
		s0.27,1.158,0.059,1.721l-1.308,3.487c-0.217,0.581-0.78,0.973-1.401,0.974C9.318,24,2.857,24,2.857,24z M2.251,18
		c-0.413,0.002-0.747,0.339-0.746,0.752c0,0.089,0.016,0.177,0.047,0.26L2.86,22.5l6.457,0l1.306-3.487
		c0.07-0.188,0.063-0.391-0.02-0.573c-0.083-0.183-0.232-0.322-0.42-0.392C10.099,18.016,10.011,18,9.92,18H2.251z"/>
</g>
</svg>
