<?xml version="1.0" encoding="utf-8"?>
<!-- Generator: Adobe Illustrator 22.1.0, SVG Export Plug-In . SVG Version: 6.00 Build 0)  -->
<svg version="1.1" id="Layer_1" xmlns="http://www.w3.org/2000/svg" xmlns:xlink="http://www.w3.org/1999/xlink" x="0px" y="0px"
	 viewBox="0 0 24 24" style="enable-background:new 0 0 24 24;" xml:space="preserve">
<title>shop-street-sign</title>
<g>
	<path d="M0.889,24.001c-0.028,0-0.055-0.002-0.083-0.005c-0.406-0.04-0.708-0.408-0.667-0.82l2.114-21.15
		C2.37,0.871,3.332,0.001,4.492,0.001h11.237c0.075,0,0.149,0.004,0.224,0.011c1.235,0.124,2.138,1.229,2.014,2.464l-0.166,1.656
		l6.026,18.886c0.126,0.394-0.092,0.817-0.486,0.942c-0.073,0.023-0.15,0.036-0.228,0.036c-0.328,0-0.615-0.21-0.715-0.522
		l-1.746-5.473h-4.238l-0.532,5.325c-0.038,0.385-0.359,0.675-0.746,0.675c-0.027,0-0.054-0.001-0.081-0.004
		c-0.194-0.019-0.373-0.116-0.5-0.271s-0.186-0.35-0.166-0.55l0.367-3.675H2.014l-0.382,3.825
		C1.593,23.711,1.274,24.001,0.889,24.001z M14.907,18.001l1.568-15.675c0.02-0.199-0.039-0.394-0.166-0.55
		c-0.127-0.155-0.306-0.252-0.505-0.272c-0.025-0.003-0.05-0.004-0.075-0.004H4.493c-0.387,0-0.708,0.29-0.747,0.675L2.164,18.001
		H14.907z M20.173,16.501l-2.748-8.612l-0.861,8.612H20.173z"/>
	<path d="M6.335,13.501c-0.6,0-1.165-0.235-1.59-0.66c-0.425-0.426-0.659-0.99-0.659-1.591c0-0.093,0.006-0.188,0.018-0.28
		l0.375-2.999c0.141-1.123,1.101-1.97,2.232-1.97h5.227c0.601,0,1.166,0.234,1.591,0.658c0.425,0.425,0.659,0.99,0.659,1.591
		c0,0.094-0.006,0.188-0.018,0.281l-0.375,2.999c-0.14,1.124-1.1,1.971-2.233,1.971H6.335z M6.71,7.501
		c-0.377,0-0.697,0.282-0.744,0.656l-0.375,3c-0.004,0.031-0.006,0.062-0.006,0.094c0,0.2,0.078,0.389,0.219,0.53
		c0.142,0.142,0.33,0.22,0.53,0.22h5.227c0.378,0,0.698-0.282,0.745-0.657l0.375-3c0.004-0.031,0.006-0.062,0.006-0.094
		c0-0.2-0.078-0.388-0.22-0.53c-0.142-0.142-0.33-0.219-0.53-0.219H6.71L6.71,7.501z"/>
	<path d="M6.886,4.501c-0.414,0-0.75-0.336-0.75-0.75s0.336-0.75,0.75-0.75h5.25c0.413,0,0.75,0.336,0.75,0.75
		s-0.336,0.75-0.75,0.75H6.886z"/>
</g>
</svg>
