<?xml version="1.0" encoding="utf-8"?>
<!-- Generator: Adobe Illustrator 22.1.0, SVG Export Plug-In . SVG Version: 6.00 Build 0)  -->
<svg version="1.1" id="Layer_1" xmlns="http://www.w3.org/2000/svg" xmlns:xlink="http://www.w3.org/1999/xlink" x="0px" y="0px"
	 viewBox="0 0 24 24" style="enable-background:new 0 0 24 24;" xml:space="preserve">
<title>shop-cashier-man</title>
<g>
	<path d="M12,9.75c-2.688,0-4.875-2.187-4.875-4.875c0-0.839,0.221-1.669,0.639-2.404C7.781,2.436,7.799,2.41,7.81,2.394
		C8.685,0.919,10.292,0,12,0c2.384,0,4.449,1.774,4.812,4.13c0.015,0.056,0.023,0.112,0.025,0.166
		c0.025,0.212,0.038,0.401,0.038,0.579C16.875,7.563,14.688,9.75,12,9.75z M8.73,4.037C8.66,4.31,8.625,4.59,8.625,4.875
		c0,1.861,1.514,3.375,3.375,3.375c1.694,0,3.101-1.255,3.339-2.883c-0.639,0.172-1.296,0.258-1.96,0.258
		C11.69,5.625,10.061,5.065,8.73,4.037z M9.439,2.684c1.093,0.92,2.509,1.441,3.935,1.441c0.63,0,1.245-0.095,1.838-0.282
		C14.768,2.468,13.467,1.5,12,1.5C11.013,1.5,10.078,1.937,9.439,2.684z"/>
	<path d="M12,16.5c-0.414,0-0.75-0.336-0.75-0.75v-4.456c-0.263,0.032-0.523,0.081-0.779,0.146
		c-2.211,0.561-3.933,2.283-4.494,4.495C5.892,16.268,5.594,16.5,5.25,16.5c-0.062,0-0.124-0.008-0.184-0.023
		c-0.401-0.102-0.645-0.511-0.543-0.912c0.697-2.745,2.835-4.883,5.579-5.579c0.628-0.159,1.271-0.24,1.911-0.24
		c1.377,0,2.736,0.376,3.932,1.088c1.771,1.054,3.025,2.734,3.532,4.731c0.101,0.401-0.142,0.81-0.542,0.912
		c-0.061,0.015-0.123,0.023-0.184,0.023c-0.344,0-0.643-0.232-0.727-0.565c-0.408-1.609-1.418-2.963-2.845-3.812
		c-0.744-0.443-1.576-0.727-2.428-0.831v4.458C12.75,16.164,12.414,16.5,12,16.5z"/>
	<path d="M21.75,24C21.336,24,21,23.664,21,23.25v-3c0-0.414-0.336-0.75-0.75-0.75H3.75C3.336,19.5,3,19.836,3,20.25v3
		C3,23.664,2.664,24,2.25,24S1.5,23.664,1.5,23.25v-3C1.5,19.009,2.509,18,3.75,18h16.5c1.241,0,2.25,1.009,2.25,2.25v3
		C22.5,23.664,22.164,24,21.75,24z"/>
</g>
</svg>
