<?xml version="1.0" encoding="utf-8"?>
<!-- Generator: Adobe Illustrator 22.1.0, SVG Export Plug-In . SVG Version: 6.00 Build 0)  -->
<svg version="1.1" id="Layer_1" xmlns="http://www.w3.org/2000/svg" xmlns:xlink="http://www.w3.org/1999/xlink" x="0px" y="0px"
	 viewBox="0 0 24 24" style="enable-background:new 0 0 24 24;" xml:space="preserve">
<title>shop-like</title>
<g>
	<path d="M15.749,21.75c-0.414,0-0.75-0.336-0.75-0.75s0.336-0.75,0.75-0.75h4.5c0.414,0,0.75-0.336,0.75-0.75V9.727
		C20.89,9.74,20.781,9.747,20.671,9.75c-1.053-0.039-2.019-0.536-2.651-1.331c-0.629,0.795-1.584,1.291-2.609,1.33
		c-0.005,0-0.055,0-0.057,0c-1.024-0.039-1.978-0.535-2.607-1.329c-0.629,0.794-1.583,1.29-2.607,1.329c-0.005,0-0.056,0-0.057,0
		C9.061,9.71,8.106,9.214,7.478,8.421C6.849,9.214,5.895,9.71,4.871,9.75C4.743,9.747,4.619,9.739,4.499,9.724V12
		c0,0.414-0.336,0.75-0.75,0.75s-0.75-0.336-0.75-0.75V9.167C2.35,8.732,1.873,8.09,1.643,7.339C1.443,6.734,1.45,6.057,1.667,5.441
		l1.514-4.278C3.402,0.486,4.041,0.015,4.768,0l15.94,0c0.74,0.012,1.386,0.486,1.613,1.181l1.508,4.26
		c0.218,0.615,0.224,1.295,0.019,1.915c-0.226,0.74-0.702,1.379-1.35,1.814V19.5c0,1.241-1.009,2.25-2.25,2.25H15.749z M18.77,6.355
		c0.048,1.025,0.886,1.856,1.913,1.895c0.789-0.019,1.496-0.561,1.736-1.349c0.105-0.319,0.103-0.657-0.004-0.96l-1.514-4.277
		c-0.033-0.102-0.113-0.163-0.205-0.164H4.788C4.708,1.502,4.63,1.561,4.602,1.646l-1.52,4.295c-0.107,0.303-0.11,0.638-0.009,0.943
		C3.318,7.687,4.035,8.232,4.859,8.25c0.992-0.039,1.82-0.87,1.868-1.894C6.725,6.284,6.726,6.211,6.728,6.138
		c0.014-0.406,0.344-0.724,0.75-0.724s0.735,0.318,0.75,0.724C8.23,6.211,8.23,6.284,8.228,6.356
		c0.048,1.013,0.872,1.84,1.885,1.893c1.013-0.053,1.838-0.881,1.885-1.894c-0.002-0.072-0.002-0.145,0.001-0.218
		c0.014-0.406,0.344-0.724,0.75-0.724s0.735,0.318,0.75,0.724c0.003,0.073,0.003,0.146,0.001,0.218
		c0.047,1.013,0.871,1.841,1.885,1.894c1.013-0.053,1.838-0.881,1.885-1.894c-0.002-0.072-0.002-0.145,0.001-0.218
		c0.014-0.406,0.344-0.724,0.75-0.724s0.735,0.318,0.75,0.724C18.772,6.211,18.772,6.283,18.77,6.355z"/>
	<path d="M7.168,24c-0.349,0-0.695-0.049-1.03-0.145l-1.651-0.471C4.424,23.733,4.117,24,3.749,24h-3c-0.414,0-0.75-0.336-0.75-0.75
		s0.336-0.75,0.75-0.75h2.25v-5.25h-2.25c-0.414,0-0.75-0.336-0.75-0.75s0.336-0.75,0.75-0.75h3c0.414,0,0.75,0.336,0.75,0.75v0.304
		C5.807,16.47,6.75,15.287,6.75,13.9v-0.775c0-1.034,0.841-1.875,1.875-1.875s1.875,0.841,1.875,1.875v1.688l0.707,0.155
		c1.406,0.351,2.364,1.642,2.288,3.072l-0.151,2.554C13.149,22.542,11.545,24,9.611,24H7.168z M4.499,21.835
		c0.079,0.017,0.157,0.036,0.234,0.058l1.818,0.52C6.752,22.471,6.96,22.5,7.168,22.5h2.443c1.16,0,2.123-0.871,2.239-2.025
		l0.148-2.519c0.037-0.711-0.439-1.355-1.134-1.529l-0.707-0.155C9.471,16.102,9,15.503,9,14.813v-1.688
		c0-0.207-0.168-0.375-0.375-0.375S8.25,12.918,8.25,13.125V13.9c0,2.19-1.621,4.076-3.75,4.437L4.499,21.835z"/>
</g>
</svg>
