<?xml version="1.0" encoding="utf-8"?>
<!-- Generator: Adobe Illustrator 22.1.0, SVG Export Plug-In . SVG Version: 6.00 Build 0)  -->
<svg version="1.1" id="Layer_1" xmlns="http://www.w3.org/2000/svg" xmlns:xlink="http://www.w3.org/1999/xlink" x="0px" y="0px"
	 viewBox="0 0 24 24" style="enable-background:new 0 0 24 24;" xml:space="preserve">
<title>shop-arrow</title>
<g>
	<path d="M10.05,7.5c-0.302,0-0.573-0.179-0.69-0.457C9.242,6.765,9.301,6.446,9.511,6.229l1.072-1.109
		C9.952,4.719,9.206,4.5,8.457,4.5l-4.107,0c-0.204,0-0.403-0.085-0.544-0.233l-2.85-3C0.75,1.049,0.693,0.73,0.811,0.454
		C0.929,0.178,1.2,0,1.5,0l8.267,0c1.243,0,2.462,0.432,3.432,1.218l1.127,0.952l0.941-0.792C15.402,1.263,15.573,1.2,15.75,1.2
		c0.11,0,0.217,0.024,0.317,0.07C16.33,1.393,16.5,1.659,16.5,1.95v4.8c0,0.414-0.336,0.75-0.75,0.75H10.05z M15,6V3.562
		l-0.192,0.162C14.673,3.837,14.501,3.9,14.325,3.9c-0.177,0-0.349-0.063-0.484-0.177l-1.598-1.35
		c-0.694-0.562-1.574-0.874-2.474-0.874l-6.523,0L4.672,3L8.43,3c1.183,0,2.354,0.386,3.295,1.086l0.448,0.344
		c0.169,0.13,0.276,0.327,0.291,0.539c0.016,0.213-0.061,0.423-0.208,0.577L11.818,6H15z"/>
	<path d="M21,13.5c-0.863,0-1.685-0.38-2.25-1.019C18.185,13.12,17.363,13.5,16.5,13.5s-1.685-0.38-2.25-1.019
		C13.685,13.12,12.863,13.5,12,13.5c-0.863,0-1.685-0.38-2.25-1.019C9.185,13.12,8.363,13.5,7.5,13.5s-1.685-0.38-2.25-1.019
		C4.685,13.12,3.863,13.5,3,13.5c-1.654,0-3-1.346-3-3c0-0.055,0.006-0.11,0.018-0.163l0.729-3.282
		c0.076-0.34,0.384-0.587,0.733-0.587c0.054,0,0.109,0.006,0.162,0.018c0.404,0.09,0.659,0.491,0.57,0.895l-0.709,3.194
		C1.541,11.364,2.204,12,3,12c0.827,0,1.5-0.673,1.5-1.5c0-0.414,0.336-0.75,0.75-0.75S6,10.086,6,10.5C6,11.327,6.673,12,7.5,12
		S9,11.327,9,10.5c0-0.414,0.336-0.75,0.75-0.75s0.75,0.336,0.75,0.75c0,0.827,0.673,1.5,1.5,1.5s1.5-0.673,1.5-1.5
		c0-0.414,0.336-0.75,0.75-0.75S15,10.086,15,10.5c0,0.827,0.673,1.5,1.5,1.5s1.5-0.673,1.5-1.5c0-0.414,0.336-0.75,0.75-0.75
		s0.75,0.336,0.75,0.75c0,0.827,0.673,1.5,1.5,1.5c0.796,0,1.459-0.636,1.498-1.426L21.148,4.5l-2.4,0
		c-0.414,0-0.75-0.336-0.75-0.75S18.334,3,18.748,3h2.4c0.698,0,1.313,0.494,1.464,1.175l1.37,6.162
		C23.994,10.389,24,10.444,24,10.5C24,12.154,22.654,13.5,21,13.5z"/>
	<path d="M2.25,24c-0.414,0-0.75-0.336-0.75-0.75v-7.5C1.5,15.336,1.836,15,2.25,15S3,15.336,3,15.75v3h12v-3
		c0-0.414,0.336-0.75,0.75-0.75s0.75,0.336,0.75,0.75v6.75H21v-6.75c0-0.414,0.336-0.75,0.75-0.75s0.75,0.336,0.75,0.75v7.5
		c0,0.414-0.336,0.75-0.75,0.75H2.25z M15,22.5v-2.25H3v2.25H15z"/>
</g>
</svg>
