<?xml version="1.0" encoding="utf-8"?>
<!-- Generator: Adobe Illustrator 22.1.0, SVG Export Plug-In . SVG Version: 6.00 Build 0)  -->
<svg version="1.1" id="Layer_1" xmlns="http://www.w3.org/2000/svg" xmlns:xlink="http://www.w3.org/1999/xlink" x="0px" y="0px"
	 viewBox="0 0 24 24" style="enable-background:new 0 0 24 24;" xml:space="preserve">
<title>shopping-cart-remove</title>
<g>
	<path d="M11.999,10.093c-0.2,0-0.389-0.078-0.53-0.22l-1.72-1.72l-1.72,1.72c-0.142,0.142-0.33,0.22-0.53,0.22
		s-0.389-0.078-0.53-0.22c-0.142-0.141-0.22-0.33-0.22-0.53s0.078-0.389,0.22-0.53l1.72-1.72l-1.72-1.72
		c-0.142-0.141-0.22-0.33-0.22-0.53s0.078-0.389,0.22-0.53c0.141-0.142,0.33-0.22,0.53-0.22s0.389,0.078,0.53,0.22l1.72,1.72
		l1.72-1.72c0.142-0.142,0.33-0.22,0.53-0.22s0.389,0.078,0.53,0.22c0.142,0.141,0.22,0.33,0.22,0.53s-0.078,0.389-0.22,0.53
		l-1.72,1.72l1.72,1.72c0.142,0.141,0.22,0.33,0.22,0.53s-0.078,0.389-0.22,0.53S12.2,10.093,11.999,10.093z"/>
	<path d="M6.374,23.593c-1.447,0-2.625-1.177-2.625-2.625s1.178-2.625,2.625-2.625s2.625,1.177,2.625,2.625
		S7.822,23.593,6.374,23.593z M6.374,19.843c-0.62,0-1.125,0.505-1.125,1.125s0.505,1.125,1.125,1.125s1.125-0.505,1.125-1.125
		S6.995,19.843,6.374,19.843z"/>
	<path d="M13.874,23.593c-1.448,0-2.625-1.177-2.625-2.625s1.177-2.625,2.625-2.625s2.625,1.177,2.625,2.625
		S15.322,23.593,13.874,23.593z M13.874,19.843c-0.62,0-1.125,0.505-1.125,1.125s0.505,1.125,1.125,1.125s1.125-0.505,1.125-1.125
		S14.495,19.843,13.874,19.843z"/>
	<path d="M4.529,16.843c-1.018,0-1.912-0.686-2.175-1.669L0.03,7.305c-0.057-0.192-0.035-0.395,0.06-0.571S0.345,6.43,0.537,6.374
		C0.606,6.353,0.678,6.343,0.75,6.343c0.33,0,0.625,0.221,0.719,0.538l2.329,7.887c0.092,0.343,0.391,0.575,0.73,0.575h10.819
		c0.343,0,0.641-0.229,0.729-0.556l3.238-12.154c0.349-1.311,1.541-2.227,2.898-2.227h1.039c0.414,0,0.75,0.336,0.75,0.75
		s-0.336,0.75-0.75,0.75h-1.038c-0.679,0-1.275,0.458-1.449,1.113l-3.238,12.154c-0.262,0.983-1.156,1.67-2.174,1.67H4.529z"/>
</g>
</svg>
