<?xml version="1.0" encoding="utf-8"?>
<!-- Generator: Adobe Illustrator 22.1.0, SVG Export Plug-In . SVG Version: 6.00 Build 0)  -->
<svg version="1.1" id="Layer_1" xmlns="http://www.w3.org/2000/svg" xmlns:xlink="http://www.w3.org/1999/xlink" x="0px" y="0px"
	 viewBox="0 0 24 24" style="enable-background:new 0 0 24 24;" xml:space="preserve">
<title>shopping-basket-sad</title>
<g>
	<path d="M5.06,22.5c-1.032-0.019-1.899-0.729-2.116-1.727l-2.14-10.51C0.661,9.731,0.745,9.121,1.041,8.612
		C1.34,8.096,1.823,7.727,2.4,7.574C2.561,7.531,2.728,7.506,2.895,7.5l1.184,0l3.53-5.648C7.748,1.631,7.986,1.5,8.246,1.5
		c0.141,0,0.278,0.039,0.397,0.114c0.17,0.106,0.288,0.272,0.333,0.467c0.045,0.195,0.011,0.396-0.095,0.566L5.849,7.5l12.294,0
		L15.11,2.647c-0.219-0.351-0.112-0.814,0.239-1.033C15.468,1.539,15.605,1.5,15.745,1.5c0.261,0,0.499,0.132,0.637,0.353
		l3.53,5.647h1.158c0.617,0.021,1.175,0.272,1.582,0.709c0.407,0.436,0.62,1.005,0.599,1.601c-0.006,0.168-0.031,0.335-0.074,0.498
		L21.05,20.763c-0.218,1.006-1.083,1.718-2.104,1.737c-0.002,0-0.005,0-0.007,0H5.06z M2.93,9C2.886,9.002,2.833,9.011,2.784,9.024
		c-0.189,0.05-0.348,0.171-0.446,0.341C2.24,9.534,2.213,9.732,2.264,9.921l2.148,10.543c0.067,0.308,0.339,0.53,0.662,0.536h13.855
		c0.313-0.007,0.586-0.231,0.654-0.545l2.136-10.49c0.023-0.092,0.032-0.147,0.034-0.204c0.007-0.197-0.063-0.384-0.197-0.528
		c-0.134-0.143-0.315-0.226-0.511-0.233L2.93,9z"/>
	<path d="M8.996,13.017c-0.62,0-1.125-0.505-1.125-1.125c0-0.62,0.505-1.125,1.125-1.125s1.125,0.505,1.125,1.125
		C10.121,12.512,9.616,13.017,8.996,13.017z"/>
	<path d="M14.996,13.017c-0.62,0-1.125-0.505-1.125-1.125c0-0.62,0.505-1.125,1.125-1.125s1.125,0.505,1.125,1.125
		C16.121,12.512,15.616,13.017,14.996,13.017z"/>
	<path d="M7.785,19.499c-0.149,0-0.292-0.044-0.416-0.126c-0.167-0.111-0.28-0.281-0.319-0.477s0.001-0.396,0.112-0.563
		c0.426-0.637,0.966-1.177,1.603-1.603c0.958-0.64,2.072-0.979,3.223-0.979c1.951,0,3.761,0.965,4.842,2.581
		c0.229,0.344,0.137,0.811-0.206,1.04c-0.125,0.083-0.269,0.126-0.417,0.126l0,0c-0.251,0-0.484-0.125-0.624-0.333
		c-0.802-1.199-2.145-1.915-3.594-1.915c-0.853,0-1.68,0.251-2.39,0.726c-0.473,0.316-0.873,0.716-1.189,1.189
		C8.27,19.374,8.037,19.499,7.785,19.499z"/>
</g>
</svg>
