<?xml version="1.0" encoding="utf-8"?>
<!-- Generator: Adobe Illustrator 22.1.0, SVG Export Plug-In . SVG Version: 6.00 Build 0)  -->
<svg version="1.1" id="Layer_1" xmlns="http://www.w3.org/2000/svg" xmlns:xlink="http://www.w3.org/1999/xlink" x="0px" y="0px"
	 viewBox="0 0 24 24" style="enable-background:new 0 0 24 24;" xml:space="preserve">
<title>shop-cashier-woman</title>
<g>
	<path d="M5.25,16.5c-0.06,0-0.12-0.007-0.178-0.021c-0.403-0.099-0.649-0.506-0.55-0.908c0.548-2.229,2.055-4.063,4.135-5.033
		c0.1-0.047,0.207-0.07,0.317-0.07c0.229,0,0.443,0.103,0.586,0.282L12,13.799l2.44-3.051c0.143-0.179,0.356-0.281,0.586-0.281
		c0.11,0,0.217,0.024,0.317,0.07c2.08,0.97,3.588,2.804,4.135,5.033c0.098,0.402-0.148,0.809-0.549,0.907
		c-0.06,0.015-0.12,0.022-0.18,0.022c-0.346,0-0.645-0.235-0.728-0.57c-0.389-1.584-1.401-2.939-2.796-3.761l-2.64,3.3
		c-0.139,0.174-0.352,0.274-0.585,0.274c-0.233,0-0.446-0.1-0.586-0.274l-2.64-3.3c-1.395,0.822-2.407,2.177-2.796,3.761
		C5.896,16.265,5.596,16.5,5.25,16.5L5.25,16.5z"/>
	<path d="M16.983,9.992c-0.26,0-0.505-0.138-0.641-0.36c-0.295-0.484-0.525-0.999-0.687-1.54c-0.914,1.045-2.223,1.652-3.636,1.657
		c-1.314,0-2.533-0.502-3.453-1.414C8.49,8.26,8.416,8.18,8.343,8.098C8.181,8.636,7.952,9.15,7.657,9.632
		C7.52,9.858,7.28,9.992,7.017,9.992c-0.137,0-0.272-0.038-0.39-0.11C6.456,9.778,6.335,9.613,6.288,9.419S6.272,9.023,6.377,8.852
		c0.525-0.861,0.784-1.848,0.75-2.856l0-1.025c0-0.008,0-0.018,0.001-0.029C7.126,4.924,7.125,4.91,7.125,4.895
		C7.115,2.206,9.293,0.011,11.981,0c2.689,0,4.884,2.178,4.894,4.856c0,0.026-0.001,0.05-0.003,0.074
		c0.002,0.016,0.001,0.023,0.001,0.04v1c-0.034,1.029,0.225,2.021,0.75,2.881c0.216,0.353,0.104,0.815-0.25,1.031
		C17.255,9.954,17.121,9.992,16.983,9.992z M8.775,5.867c0.161,0.529,0.45,1.009,0.848,1.403C10.259,7.902,11.103,8.25,12,8.25
		c1.502-0.006,2.795-0.986,3.224-2.382c-1.199-0.18-2.32-0.706-3.224-1.512C11.096,5.162,9.974,5.688,8.775,5.867z M12,2.539
		c0.218,0,0.425,0.095,0.568,0.26c0.721,0.835,1.69,1.382,2.766,1.568C15.085,2.751,13.673,1.5,12,1.5
		c-1.702,0.007-3.091,1.234-3.334,2.866c1.076-0.186,2.046-0.733,2.766-1.567C11.575,2.634,11.782,2.539,12,2.539z"/>
	<path d="M21.75,24C21.336,24,21,23.664,21,23.25v-3c0-0.414-0.336-0.75-0.75-0.75H3.75C3.336,19.5,3,19.836,3,20.25v3
		C3,23.664,2.664,24,2.25,24S1.5,23.664,1.5,23.25v-3C1.5,19.009,2.509,18,3.75,18h16.5c1.241,0,2.25,1.009,2.25,2.25v3
		C22.5,23.664,22.164,24,21.75,24z"/>
</g>
</svg>
