<?xml version="1.0" encoding="utf-8"?>
<!-- Generator: Adobe Illustrator 22.1.0, SVG Export Plug-In . SVG Version: 6.00 Build 0)  -->
<svg version="1.1" id="Layer_1" xmlns="http://www.w3.org/2000/svg" xmlns:xlink="http://www.w3.org/1999/xlink" x="0px" y="0px"
	 viewBox="0 0 24 24" style="enable-background:new 0 0 24 24;" xml:space="preserve">
<title>shopping-cart-man-message</title>
<g>
	<path d="M8.625,12c-0.323,0-0.609-0.206-0.712-0.513l-1.5-4.5C6.337,6.759,6.376,6.506,6.517,6.311C6.657,6.116,6.885,6,7.125,6
		h8.292l0.74-2.466C16.251,3.22,16.547,3,16.875,3c0.073,0,0.146,0.011,0.216,0.032c0.191,0.057,0.349,0.186,0.444,0.363
		c0.095,0.177,0.115,0.379,0.058,0.571l-2.25,7.5C15.247,11.785,14.959,12,14.625,12H8.625z M14.067,10.5l0.9-3H8.166l1,3H14.067z"
		/>
	<path d="M9,15c-0.62,0-1.125-0.505-1.125-1.125c-0.001-0.299,0.115-0.581,0.327-0.794c0.212-0.213,0.494-0.33,0.794-0.331
		c0.624,0,1.129,0.505,1.129,1.125S9.62,15,9,15z"/>
	<path d="M14.25,15c-0.62,0-1.125-0.505-1.125-1.125c-0.001-0.299,0.115-0.581,0.327-0.794c0.212-0.213,0.494-0.331,0.794-0.331
		c0.624,0,1.129,0.505,1.129,1.125S14.87,15,14.25,15z"/>
	<path d="M18,24c-0.155,0-0.304-0.047-0.431-0.136l-7.305-5.114H2.25C1.009,18.75,0,17.741,0,16.5V2.25C0,1.009,1.009,0,2.25,0h19.5
		C22.991,0,24,1.009,24,2.25V16.5c0,1.241-1.009,2.25-2.25,2.25h-3v4.5c0,0.281-0.155,0.536-0.404,0.665
		C18.241,23.97,18.121,24,18,24z M2.25,1.5C1.836,1.5,1.5,1.836,1.5,2.25V16.5c0,0.414,0.336,0.75,0.75,0.75h8.25
		c0.155,0,0.303,0.047,0.43,0.136l6.32,4.424V18c0-0.414,0.336-0.75,0.75-0.75h3.75c0.414,0,0.75-0.336,0.75-0.75V2.25
		c0-0.414-0.336-0.75-0.75-0.75H2.25z"/>
</g>
</svg>
