<?xml version="1.0" encoding="utf-8"?>
<!-- Generator: Adobe Illustrator 22.1.0, SVG Export Plug-In . SVG Version: 6.00 Build 0)  -->
<svg version="1.1" id="Layer_1" xmlns="http://www.w3.org/2000/svg" xmlns:xlink="http://www.w3.org/1999/xlink" x="0px" y="0px"
	 viewBox="0 0 24 24" style="enable-background:new 0 0 24 24;" xml:space="preserve">
<title>shopping-bag-hang</title>
<g>
	<circle cx="5.634" cy="3.375" r="1.125"/>
	<path d="M6.655,24c-0.983,0-1.896-0.376-2.584-1.059c-0.692-0.687-1.075-1.602-1.079-2.577c0-0.269,0.012-0.552,0.037-0.866
		c0-0.023,0.002-0.046,0.005-0.068l0.007-0.1l0.833-8.692C3.966,9.704,4.743,9,5.68,9h2.534l1.744-4.585
		c0.217-0.594,0.688-1.064,1.29-1.285c0.239-0.087,0.489-0.131,0.742-0.131c0.909,0,1.728,0.573,2.04,1.425L15.77,9h2.53
		c0.951,0,1.727,0.707,1.815,1.645c0,0,0.833,8.691,0.833,8.695c0.03,0.347,0.044,0.689,0.044,1.016
		c-0.004,0.981-0.388,1.899-1.08,2.586C19.224,23.624,18.312,24,17.342,24H6.655z M4.492,20.361
		c0.002,0.572,0.228,1.111,0.635,1.515C5.533,22.278,6.071,22.5,6.642,22.5l10.717,0c0.56,0,1.092-0.221,1.498-0.624
		c0.408-0.404,0.634-0.943,0.636-1.517c0-0.036,0-0.073-0.001-0.109H4.493C4.492,20.287,4.492,20.324,4.492,20.361z M19.385,18.75
		l-0.763-7.964c-0.016-0.166-0.147-0.286-0.312-0.286h-1.968l0.754,1.983c0.147,0.386-0.048,0.821-0.434,0.968
		c-0.086,0.033-0.176,0.049-0.267,0.049c-0.309,0-0.591-0.194-0.701-0.483L14.736,10.5H9.248l-0.957,2.517
		C8.181,13.306,7.9,13.5,7.59,13.5c-0.091,0-0.181-0.016-0.266-0.049c-0.387-0.147-0.582-0.581-0.435-0.968L7.644,10.5H5.681
		c-0.166,0-0.297,0.119-0.314,0.283L4.604,18.75H19.385z M14.165,9l-1.541-4.051c-0.099-0.271-0.353-0.449-0.634-0.449
		c-0.077,0-0.154,0.014-0.228,0.041c-0.186,0.068-0.331,0.213-0.399,0.399L9.819,9H14.165z"/>
	<path d="M17.242,6.75c-0.414,0-0.75-0.336-0.75-0.75s0.336-0.75,0.75-0.75h3.375c1.03-0.003,1.872-0.845,1.875-1.877
		c-0.003-1.029-0.845-1.87-1.877-1.873H3.367c-1.03,0.003-1.872,0.845-1.875,1.877C1.496,4.405,2.338,5.246,3.37,5.25h3.372
		c0.414,0,0.75,0.336,0.75,0.75s-0.336,0.75-0.75,0.75H3.367C1.512,6.744-0.001,5.231-0.008,3.377C-0.002,1.52,1.511,0.006,3.365,0
		h17.252c1.856,0.005,3.37,1.518,3.375,3.373C23.986,5.23,22.473,6.744,20.62,6.75c0,0-0.001,0-0.001,0H17.242z"/>
	<circle cx="18.351" cy="3.375" r="1.125"/>
</g>
</svg>
