<?xml version="1.0" encoding="utf-8"?>
<!-- Generator: Adobe Illustrator 22.1.0, SVG Export Plug-In . SVG Version: 6.00 Build 0)  -->
<svg version="1.1" id="Layer_1" xmlns="http://www.w3.org/2000/svg" xmlns:xlink="http://www.w3.org/1999/xlink" x="0px" y="0px"
	 viewBox="0 0 24 24" style="enable-background:new 0 0 24 24;" xml:space="preserve">
<title>shopping-cart-upload-1</title>
<g>
	<path d="M6.374,23.75c-1.447,0-2.625-1.177-2.625-2.625S4.927,18.5,6.374,18.5s2.625,1.177,2.625,2.625S7.822,23.75,6.374,23.75z
		 M6.374,20c-0.62,0-1.125,0.505-1.125,1.125s0.505,1.125,1.125,1.125s1.125-0.505,1.125-1.125S6.995,20,6.374,20z"/>
	<path d="M13.874,23.75c-1.448,0-2.625-1.177-2.625-2.625s1.177-2.625,2.625-2.625s2.625,1.177,2.625,2.625
		S15.322,23.75,13.874,23.75z M13.874,20c-0.62,0-1.125,0.505-1.125,1.125s0.505,1.125,1.125,1.125s1.125-0.505,1.125-1.125
		S14.495,20,13.874,20z"/>
	<path d="M9.749,11.75c-0.414,0-0.75-0.336-0.75-0.75V2.811L6.53,5.28C6.388,5.422,6.2,5.5,5.999,5.5s-0.389-0.078-0.53-0.22
		c-0.142-0.141-0.22-0.33-0.22-0.53s0.078-0.389,0.22-0.53L9.219,0.47c0.07-0.07,0.152-0.125,0.245-0.163
		C9.472,0.303,9.48,0.3,9.489,0.297C9.575,0.266,9.662,0.25,9.749,0.25c0.089,0,0.177,0.016,0.261,0.048
		c0.007,0.002,0.014,0.005,0.021,0.007c0.097,0.04,0.179,0.095,0.249,0.166L14.03,4.22c0.142,0.141,0.22,0.33,0.22,0.53
		s-0.078,0.389-0.22,0.53S13.7,5.5,13.499,5.5s-0.389-0.078-0.53-0.22l-2.47-2.47V11C10.499,11.414,10.163,11.75,9.749,11.75z"/>
	<path d="M4.529,17c-1.019,0-1.913-0.687-2.175-1.671L0.03,7.462c-0.057-0.192-0.035-0.395,0.06-0.571s0.254-0.304,0.447-0.361
		C0.606,6.51,0.678,6.5,0.75,6.5c0.33,0,0.625,0.221,0.719,0.538l2.329,7.886c0.092,0.343,0.391,0.576,0.73,0.576h10.818
		c0.34,0,0.638-0.229,0.726-0.557L19.313,2.79c0.349-1.312,1.541-2.228,2.898-2.228h1.039c0.414,0,0.75,0.336,0.75,0.75
		s-0.336,0.75-0.75,0.75h-1.038c-0.679,0-1.275,0.458-1.449,1.114l-3.241,12.154C17.259,16.313,16.365,17,15.347,17H4.529z"/>
</g>
</svg>
