<?xml version="1.0" encoding="utf-8"?>
<!-- Generator: Adobe Illustrator 22.1.0, SVG Export Plug-In . SVG Version: 6.00 Build 0)  -->
<svg version="1.1" id="Layer_1" xmlns="http://www.w3.org/2000/svg" xmlns:xlink="http://www.w3.org/1999/xlink" x="0px" y="0px"
	 viewBox="0 0 24 24" style="enable-background:new 0 0 24 24;" xml:space="preserve">
<title>shopping-basket-add</title>
<g>
	<path d="M17.246,24c-3.722,0-6.75-3.028-6.75-6.75s3.028-6.75,6.75-6.75s6.75,3.028,6.75,6.75S20.968,24,17.246,24z M17.246,12
		c-2.895,0-5.25,2.355-5.25,5.25s2.355,5.25,5.25,5.25s5.25-2.355,5.25-5.25S20.141,12,17.246,12z"/>
	<path d="M17.246,21c-0.414,0-0.75-0.336-0.75-0.75V18h-2.25c-0.414,0-0.75-0.336-0.75-0.75s0.336-0.75,0.75-0.75h2.25v-2.25
		c0-0.414,0.336-0.75,0.75-0.75s0.75,0.336,0.75,0.75v2.25h2.25c0.414,0,0.75,0.336,0.75,0.75S20.66,18,20.246,18h-2.25v2.25
		C17.996,20.664,17.66,21,17.246,21z"/>
	<path d="M4.31,18c-1.033-0.019-1.9-0.729-2.116-1.728L0.059,7.286C-0.09,6.724-0.008,6.125,0.293,5.609
		c0.301-0.515,0.783-0.883,1.359-1.036C1.813,4.531,1.979,4.506,2.146,4.5l1.289,0L7.716,0.22C7.857,0.078,8.046,0,8.246,0
		s0.389,0.078,0.53,0.22c0.142,0.141,0.22,0.33,0.22,0.53s-0.078,0.389-0.22,0.53L5.556,4.5l11.378,0l-3.219-3.218
		c-0.292-0.292-0.292-0.768,0-1.061c0.142-0.142,0.33-0.22,0.53-0.22c0.2,0,0.388,0.078,0.53,0.219L19.056,4.5h1.264
		c0.615,0.021,1.171,0.274,1.58,0.711c0.409,0.437,0.622,1.006,0.601,1.603c-0.006,0.166-0.031,0.332-0.073,0.492l-0.295,1.237
		c-0.081,0.339-0.381,0.576-0.73,0.576c-0.058,0-0.116-0.007-0.173-0.02c-0.196-0.047-0.361-0.166-0.466-0.337
		c-0.105-0.171-0.137-0.372-0.091-0.567l0.3-1.256C20.992,6.87,21,6.816,21.002,6.76C21.016,6.355,20.698,6.014,20.293,6L2.172,6
		C2.141,6.001,2.086,6.01,2.036,6.024C1.644,6.127,1.41,6.53,1.514,6.921l2.143,9.019c0.071,0.327,0.344,0.554,0.667,0.56h3.547
		c0.414,0,0.75,0.336,0.75,0.75S8.285,18,7.871,18H4.31z"/>
</g>
</svg>
