<?xml version="1.0" encoding="utf-8"?>
<!-- Generator: Adobe Illustrator 22.1.0, SVG Export Plug-In . SVG Version: 6.00 Build 0)  -->
<svg version="1.1" id="Layer_1" xmlns="http://www.w3.org/2000/svg" xmlns:xlink="http://www.w3.org/1999/xlink" x="0px" y="0px"
	 viewBox="0 0 24 24" style="enable-background:new 0 0 24 24;" xml:space="preserve">
<title>shopping-cart-woman</title>
<g>
	<path d="M2.25,21c-0.323,0-0.609-0.206-0.711-0.513l-1.5-4.5c-0.076-0.228-0.038-0.481,0.103-0.676C0.282,15.116,0.509,15,0.75,15
		h8.292l0.74-2.465C9.877,12.215,10.166,12,10.5,12c0.073,0,0.145,0.011,0.215,0.031c0.193,0.058,0.351,0.187,0.446,0.363
		c0.095,0.176,0.115,0.379,0.058,0.571l-2.25,7.5C8.873,20.785,8.584,21,8.25,21H2.25z M7.692,19.5l0.9-3H1.79l1,3H7.692z"/>
	<circle cx="2.625" cy="22.875" r="1.125"/>
	<circle cx="7.875" cy="22.875" r="1.125"/>
	<path d="M15,24c-0.368,0-0.679-0.264-0.74-0.627L13.615,19.5H11.25c-0.241,0-0.468-0.116-0.609-0.312
		c-0.14-0.194-0.179-0.447-0.103-0.676l2.25-6.75C13.491,9.655,14.57,7.5,17.25,7.5s3.759,2.155,4.461,4.263l2.25,6.75
		c0.076,0.229,0.037,0.481-0.103,0.676c-0.14,0.195-0.368,0.311-0.608,0.311h-2.365l-0.646,3.873C20.179,23.736,19.868,24,19.5,24
		H15z M18.865,22.5l0.646-3.873C19.57,18.264,19.882,18,20.25,18h1.959l-1.921-5.763C19.386,9.53,18.491,9,17.25,9
		s-2.136,0.53-3.039,3.237L12.29,18h1.959c0.368,0,0.679,0.264,0.74,0.627l0.646,3.873H18.865z"/>
	<path d="M17.25,7.5c-2.068,0-3.75-1.682-3.75-3.75S15.182,0,17.25,0S21,1.682,21,3.75S19.318,7.5,17.25,7.5z M17.25,1.5
		C16.009,1.5,15,2.509,15,3.75S16.009,6,17.25,6s2.25-1.009,2.25-2.25S18.491,1.5,17.25,1.5z"/>
</g>
</svg>
