<?xml version="1.0" encoding="utf-8"?>
<!-- Generator: Adobe Illustrator 22.1.0, SVG Export Plug-In . SVG Version: 6.00 Build 0)  -->
<svg version="1.1" id="Layer_1" xmlns="http://www.w3.org/2000/svg" xmlns:xlink="http://www.w3.org/1999/xlink" x="0px" y="0px"
	 viewBox="0 0 24 24" style="enable-background:new 0 0 24 24;" xml:space="preserve">
<title>shop-sign</title>
<g>
	<path d="M2.224,24c-1.213,0-2.199-0.987-2.199-2.199v-7.602C0.025,12.987,1.011,12,2.224,12h19.551
		c1.212,0,2.199,0.987,2.199,2.199v7.602c0,1.212-0.987,2.199-2.199,2.199H2.224z M2.224,13.5c-0.385,0-0.699,0.313-0.699,0.699
		v7.602c0,0.385,0.314,0.699,0.699,0.699h19.551c0.385,0,0.699-0.313,0.699-0.699v-7.602c0-0.385-0.313-0.699-0.699-0.699H2.224z"/>
	<path d="M17.275,10.5c-0.242,0-0.47-0.117-0.611-0.314l-3.239-4.535C12.995,5.88,12.517,6,12.025,6c-0.492,0-0.969-0.12-1.4-0.349
		l-3.24,4.535C7.245,10.383,7.016,10.5,6.775,10.5c-0.157,0-0.307-0.048-0.435-0.139C6.003,10.12,5.924,9.65,6.165,9.314L9.51,4.631
		C9.192,4.145,9.025,3.587,9.025,3c0-1.654,1.346-3,3-3c1.654,0,3,1.346,3,3c0,0.586-0.167,1.145-0.485,1.631l3.345,4.683
		c0.116,0.163,0.162,0.361,0.129,0.559s-0.141,0.371-0.304,0.487C17.583,10.452,17.432,10.5,17.275,10.5z M12.025,1.5
		c-0.827,0-1.5,0.673-1.5,1.5s0.673,1.5,1.5,1.5s1.5-0.673,1.5-1.5S12.852,1.5,12.025,1.5z"/>
</g>
</svg>
