<?xml version="1.0" encoding="utf-8"?>
<!-- Generator: Adobe Illustrator 22.1.0, SVG Export Plug-In . SVG Version: 6.00 Build 0)  -->
<svg version="1.1" id="Regular" xmlns="http://www.w3.org/2000/svg" xmlns:xlink="http://www.w3.org/1999/xlink" x="0px" y="0px"
	 viewBox="0 0 24 24" style="enable-background:new 0 0 24 24;" xml:space="preserve">
<title>shorts-1</title>
<g>
	<path d="M15.641,22.5c-0.746-0.001-1.369-0.535-1.482-1.272l-1.172-7.632c-0.075-0.491-0.49-0.847-0.987-0.847
		c-0.497,0-0.912,0.356-0.987,0.847l-1.174,7.632C9.726,21.965,9.102,22.5,8.356,22.5H2.25C1.009,22.5,0,21.491,0,20.25v-17
		C0,2.285,0.785,1.5,1.75,1.5h20.5C23.215,1.5,24,2.285,24,3.25v17c0,1.241-1.009,2.25-2.25,2.25H15.641z M12,11.25
		c1.242,0,2.281,0.891,2.469,2.119L15.641,21l3.859,0V6h-4.959l1.171,3.513c0.063,0.19,0.049,0.393-0.041,0.572
		c-0.09,0.179-0.244,0.313-0.434,0.376C15.161,10.487,15.081,10.5,15,10.5c-0.323,0-0.61-0.206-0.712-0.513L12.959,6h-1.919
		L9.711,9.987C9.609,10.294,9.323,10.5,9,10.5c-0.081,0-0.161-0.013-0.238-0.039c-0.189-0.063-0.343-0.197-0.433-0.376
		S8.225,9.703,8.289,9.513L9.459,6H4.5v15h3.856l1.175-7.631C9.719,12.141,10.757,11.25,12,11.25z M21.75,21
		c0.414,0,0.75-0.336,0.75-0.75V6H21v15H21.75z M1.5,20.25C1.5,20.664,1.836,21,2.25,21H3V6H1.5V20.25z M22.5,4.5V3.25
		C22.5,3.112,22.388,3,22.25,3H1.75C1.612,3,1.5,3.112,1.5,3.25V4.5H22.5z"/>
</g>
</svg>
