<?xml version="1.0" encoding="utf-8"?>
<!-- Generator: Adobe Illustrator 22.1.0, SVG Export Plug-In . SVG Version: 6.00 Build 0)  -->
<svg version="1.1" id="Regular" xmlns="http://www.w3.org/2000/svg" xmlns:xlink="http://www.w3.org/1999/xlink" x="0px" y="0px"
	 viewBox="0 0 24 24" style="enable-background:new 0 0 24 24;" xml:space="preserve">
<title>show-theater-masks</title>
<g>
	<path d="M15.004,23.997c-0.265,0-0.525-0.046-0.774-0.137c-2.366-0.885-4.515-2.337-6.217-4.198
		c-1.314-1.456-2.026-3.335-2.007-5.292V7.216c0-0.203,0.027-0.404,0.081-0.599c0.16-0.579,0.537-1.061,1.059-1.357
		c0.338-0.192,0.721-0.293,1.106-0.293c0.203,0,0.405,0.028,0.602,0.082c2.006,0.572,4.072,0.862,6.148,0.862
		s4.142-0.289,6.142-0.86c0.2-0.056,0.405-0.085,0.611-0.085c1.241,0.001,2.25,1.01,2.249,2.251v7.161
		c0.019,1.951-0.693,3.827-2.004,5.281c-1.705,1.865-3.854,3.317-6.217,4.2C15.532,23.95,15.27,23.997,15.004,23.997z M8.253,6.466
		c-0.128,0-0.255,0.034-0.368,0.098c-0.174,0.099-0.3,0.26-0.353,0.453C7.514,7.082,7.505,7.149,7.505,7.216v7.161
		c-0.015,1.586,0.559,3.103,1.618,4.276c1.54,1.684,3.487,2.999,5.628,3.8c0.079,0.029,0.165,0.044,0.253,0.044
		c0.089,0,0.176-0.015,0.259-0.046c2.138-0.8,4.085-2.115,5.628-3.802c1.056-1.17,1.63-2.685,1.615-4.265V7.216
		c0-0.414-0.336-0.75-0.75-0.751c-0.069,0-0.137,0.009-0.203,0.028c-2.131,0.608-4.335,0.917-6.55,0.917
		c-2.214,0-4.419-0.309-6.552-0.917C8.388,6.475,8.32,6.466,8.253,6.466z"/>
	<path d="M3.105,15.503c-0.199,0-0.386-0.077-0.527-0.217c-0.201-0.199-0.392-0.396-0.569-0.588C0.694,13.24-0.019,11.362,0,9.405
		V2.25c0-0.208,0.029-0.416,0.086-0.617C0.359,0.67,1.25-0.002,2.251-0.002c0.207,0,0.414,0.029,0.615,0.086
		c2,0.571,4.065,0.86,6.14,0.86c2.075,0,4.14-0.289,6.139-0.86c0.201-0.055,0.403-0.083,0.605-0.083
		c0.602,0,1.166,0.234,1.591,0.658C17.765,1.084,18,1.649,18,2.25v1.785c0,0.414-0.336,0.75-0.75,0.75s-0.75-0.336-0.75-0.75V2.25
		c0-0.2-0.078-0.388-0.22-0.53c-0.142-0.141-0.33-0.219-0.53-0.219c-0.068,0-0.135,0.009-0.201,0.027
		c-2.127,0.607-4.33,0.916-6.543,0.916c-2.214,0-4.419-0.309-6.552-0.918C2.387,1.507,2.318,1.497,2.249,1.497
		c-0.126,0-0.252,0.033-0.364,0.095C1.71,1.69,1.584,1.85,1.529,2.043C1.51,2.11,1.5,2.179,1.5,2.249v7.163
		c-0.015,1.586,0.559,3.103,1.618,4.276c0.155,0.169,0.329,0.349,0.515,0.532c0.142,0.141,0.222,0.329,0.223,0.529
		c0.001,0.2-0.076,0.389-0.217,0.531C3.497,15.424,3.307,15.503,3.105,15.503z"/>
	<path d="M15,19.5c-2.068,0-3.75-1.682-3.75-3.75c0-0.414,0.336-0.75,0.75-0.75c0.414,0,0.75,0.336,0.75,0.75
		C12.75,16.991,13.76,18,15,18c1.241,0,2.25-1.009,2.25-2.25c0-0.414,0.336-0.75,0.75-0.75s0.75,0.336,0.75,0.75
		C18.75,17.818,17.068,19.5,15,19.5z"/>
	<path d="M12.75,12C12.336,12,12,11.664,12,11.25s-0.336-0.75-0.75-0.75c-0.414,0-0.75,0.336-0.75,0.75S10.164,12,9.75,12
		S9,11.664,9,11.25C9,10.009,10.01,9,11.25,9s2.25,1.009,2.25,2.25C13.5,11.664,13.164,12,12.75,12z"/>
	<path d="M20.25,12c-0.414,0-0.75-0.336-0.75-0.75s-0.336-0.75-0.75-0.75S18,10.836,18,11.25S17.664,12,17.25,12
		s-0.75-0.336-0.75-0.75c0-1.241,1.009-2.25,2.25-2.25S21,10.009,21,11.25C21,11.664,20.664,12,20.25,12z"/>
</g>
</svg>
