<?xml version="1.0" encoding="utf-8"?>
<!-- Generator: Adobe Illustrator 22.1.0, SVG Export Plug-In . SVG Version: 6.00 Build 0)  -->
<svg version="1.1" id="Regular" xmlns="http://www.w3.org/2000/svg" xmlns:xlink="http://www.w3.org/1999/xlink" x="0px" y="0px"
	 viewBox="0 0 24 24" style="enable-background:new 0 0 24 24;" xml:space="preserve">
<title>show-theater-mask-sad</title>
<g>
	<path d="M12.001,24c-0.271,0-0.537-0.048-0.791-0.144c-4.556-1.716-7.71-4.318-9.376-7.736c-0.752-1.644-1.125-3.455-1.083-5.246
		l0-8.625c0-0.252,0.042-0.5,0.125-0.738c0.197-0.568,0.604-1.025,1.144-1.287c0.31-0.15,0.64-0.226,0.98-0.226
		c0.251,0,0.5,0.042,0.739,0.125C6.394,1.075,9.172,1.556,12,1.556s5.606-0.481,8.255-1.43C20.499,0.042,20.748-0.001,21-0.001
		c1.241,0,2.25,1.009,2.25,2.25v8.643c0.042,1.777-0.331,3.582-1.076,5.212c-1.673,3.436-4.828,6.042-9.382,7.752
		C12.538,23.951,12.272,24,12.001,24z M2.999,1.499c-0.113,0-0.223,0.026-0.326,0.076c-0.18,0.087-0.316,0.24-0.381,0.429
		C2.264,2.083,2.25,2.165,2.25,2.249v8.643c-0.037,1.58,0.289,3.164,0.94,4.588c1.485,3.048,4.363,5.396,8.547,6.972
		c0.084,0.031,0.173,0.047,0.263,0.047c0.091,0,0.179-0.016,0.264-0.048c4.182-1.571,7.06-3.922,8.553-6.988
		c0.645-1.411,0.969-2.989,0.932-4.554v-8.66c0-0.414-0.336-0.75-0.75-0.75c-0.084,0-0.167,0.014-0.246,0.042
		c-2.807,1.005-5.753,1.515-8.754,1.515c-3.001,0-5.948-0.51-8.759-1.517C3.165,1.513,3.082,1.499,2.999,1.499z"/>
	<path d="M16.5,18.374c-0.402,0-0.731-0.314-0.749-0.716c-0.087-1.914-1.651-3.413-3.561-3.413c-0.052,0-0.105,0.001-0.158,0.004
		c-0.006,0-0.027,0.001-0.032,0.001l-0.033-0.001c-0.052-0.002-0.105-0.003-0.159-0.003c-1.908,0-3.472,1.499-3.559,3.413
		c-0.019,0.401-0.348,0.716-0.751,0.716c-0.005,0-0.026,0-0.031,0c-0.202-0.009-0.387-0.095-0.522-0.243s-0.204-0.34-0.195-0.54
		c0.124-2.717,2.349-4.844,5.068-4.844c0.06,0,0.121,0.001,0.182,0.003c0.063-0.002,0.126-0.004,0.189-0.004
		c2.714,0,4.937,2.128,5.06,4.845c0.009,0.2-0.06,0.392-0.195,0.54c-0.135,0.148-0.32,0.234-0.52,0.243
		C16.529,18.373,16.506,18.374,16.5,18.374z"/>
	<path d="M7.125,8.999C5.678,8.999,4.5,7.822,4.5,6.374c0-0.414,0.336-0.75,0.75-0.75S6,5.961,6,6.374
		c0,0.62,0.505,1.125,1.125,1.125S8.25,6.995,8.25,6.374c0-0.414,0.336-0.75,0.75-0.75s0.75,0.336,0.75,0.75
		C9.75,7.822,8.573,8.999,7.125,8.999z"/>
	<path d="M16.875,8.999c-1.448,0-2.625-1.178-2.625-2.625c0-0.414,0.336-0.75,0.75-0.75s0.75,0.336,0.75,0.75
		c0,0.62,0.505,1.125,1.125,1.125S18,6.995,18,6.374c0-0.414,0.336-0.75,0.75-0.75s0.75,0.336,0.75,0.75
		C19.5,7.822,18.323,8.999,16.875,8.999z"/>
</g>
</svg>
