<?xml version="1.0" encoding="utf-8"?>
<!-- Generator: Adobe Illustrator 22.1.0, SVG Export Plug-In . SVG Version: 6.00 Build 0)  -->
<svg version="1.1" id="Regular" xmlns="http://www.w3.org/2000/svg" xmlns:xlink="http://www.w3.org/1999/xlink" x="0px" y="0px"
	 viewBox="0 0 24 24" style="enable-background:new 0 0 24 24;" xml:space="preserve">
<title>skating-1</title>
<g>
	<path d="M20.5,6.75c-1.861,0-3.375-1.514-3.375-3.375S18.639,0,20.5,0s3.375,1.514,3.375,3.375S22.361,6.75,20.5,6.75z M20.5,1.5
		c-1.034,0-1.875,0.841-1.875,1.875S19.466,5.25,20.5,5.25s1.875-0.841,1.875-1.875S21.534,1.5,20.5,1.5z"/>
	<path d="M11.5,24c-0.414,0-0.75-0.336-0.75-0.75s0.336-0.75,0.75-0.75h2.25v-4.718c0-0.858-0.478-1.63-1.246-2.013l-0.207-0.104
		l-1.242,1.366c-0.992,1.091-2.406,1.718-3.88,1.719H2.5v0.75c0,0.414,0.336,0.75,0.75,0.75S4,20.586,4,21s-0.336,0.75-0.75,0.75
		C2.009,21.75,1,20.741,1,19.5V12c0-0.414,0.336-0.75,0.75-0.75S2.5,11.586,2.5,12v2.25h4.673c0.211,0,0.413-0.09,0.555-0.246
		l3.185-3.504H7c-1.241,0-2.25-1.009-2.25-2.25S5.759,6,7,6h9c0.561,0,1.099,0.208,1.514,0.585c0.444,0.404,0.704,0.957,0.733,1.558
		c0.029,0.601-0.178,1.176-0.582,1.62l-2.273,2.501c1.804,1.258,2.865,3.289,2.858,5.52V22.5H19c0.414,0,0.75-0.336,0.75-0.75
		S20.086,21,20.5,21s0.75,0.336,0.75,0.75c0,1.241-1.009,2.25-2.25,2.25H11.5z M16.75,22.5V21h-1.5v1.5H16.75z M16.75,19.5v-1.718
		c0.006-1.989-1.092-3.78-2.866-4.676c-0.208-0.105-0.357-0.304-0.4-0.533c-0.042-0.228,0.026-0.467,0.182-0.64l2.888-3.178
		c0.278-0.306,0.256-0.781-0.05-1.06C16.366,7.569,16.187,7.5,16,7.5H7c-0.414,0-0.75,0.336-0.75,0.75S6.586,9,7,9h5.609
		c0.297,0,0.566,0.175,0.686,0.447c0.12,0.271,0.069,0.589-0.131,0.808l-4.326,4.759c-0.425,0.468-1.032,0.737-1.665,0.737H5.5v1.5
		h1.674c1.053-0.001,2.063-0.448,2.771-1.227l1.624-1.786c0.141-0.156,0.344-0.246,0.555-0.246c0.116,0,0.232,0.027,0.335,0.079
		l0.715,0.357c1.28,0.638,2.076,1.924,2.076,3.355V19.5H16.75z M4,17.25v-1.5H2.5v1.5H4z"/>
</g>
</svg>
