<?xml version="1.0" encoding="utf-8"?>
<!-- Generator: Adobe Illustrator 22.1.0, SVG Export Plug-In . SVG Version: 6.00 Build 0)  -->
<svg version="1.1" id="Regular" xmlns="http://www.w3.org/2000/svg" xmlns:xlink="http://www.w3.org/1999/xlink" x="0px" y="0px"
	 viewBox="0 0 24 24" style="enable-background:new 0 0 24 24;" xml:space="preserve">
<title>skateboard-person-1</title>
<g>
	<path d="M18,24c-1.241,0-2.25-1.009-2.25-2.25c0-0.259,0.044-0.511,0.129-0.75h-4.008C11.956,21.239,12,21.491,12,21.75
		C12,22.991,10.991,24,9.75,24S7.5,22.991,7.5,21.75c0-0.259,0.044-0.511,0.129-0.75H6.75C6.336,21,6,20.664,6,20.25
		s0.336-0.75,0.75-0.75H12v-1.718c0.003-0.86-0.473-1.631-1.241-2.012l-0.209-0.104l-1.243,1.367
		c-0.994,1.091-2.409,1.717-3.883,1.718H3c-1.241,0-2.25-1.009-2.25-2.25S1.759,14.25,3,14.25h2.423c0.21,0,0.412-0.09,0.554-0.245
		L9.163,10.5H5.25C4.009,10.5,3,9.491,3,8.25S4.009,6,5.25,6H21c1.241,0,2.25,1.009,2.25,2.25S22.241,10.5,21,10.5h-5.754
		l-1.604,1.764c1.805,1.257,2.865,3.289,2.858,5.52V19.5H21c0.414,0,0.75,0.336,0.75,0.75S21.414,21,21,21h-0.879
		c0.085,0.239,0.129,0.491,0.129,0.75C20.25,22.991,19.241,24,18,24z M18,21c-0.414,0-0.75,0.336-0.75,0.75S17.586,22.5,18,22.5
		s0.75-0.336,0.75-0.75S18.414,21,18,21z M9.75,21C9.336,21,9,21.336,9,21.75s0.336,0.75,0.75,0.75s0.75-0.336,0.75-0.75
		S10.164,21,9.75,21z M15,19.5v-1.718c0.006-1.99-1.092-3.781-2.867-4.676c-0.208-0.105-0.357-0.304-0.4-0.533
		c-0.042-0.229,0.026-0.469,0.182-0.641l2.443-2.687C14.501,9.089,14.703,9,14.914,9H21c0.414,0,0.75-0.336,0.75-0.75
		S21.414,7.5,21,7.5H5.25C4.836,7.5,4.5,7.836,4.5,8.25S4.836,9,5.25,9h5.609c0.297,0,0.566,0.175,0.686,0.447
		c0.12,0.271,0.069,0.588-0.131,0.808l-4.327,4.759c-0.425,0.468-1.032,0.736-1.664,0.737H3c-0.414,0-0.75,0.336-0.75,0.75
		S2.586,17.25,3,17.25h2.423c1.054-0.001,2.065-0.448,2.775-1.227l1.625-1.787c0.141-0.156,0.344-0.246,0.555-0.246
		c0.115,0,0.231,0.027,0.335,0.079l0.715,0.357c1.283,0.637,2.078,1.924,2.073,3.357V19.5H15z"/>
	<path d="M15.75,6.75c-1.861,0-3.375-1.514-3.375-3.375S13.889,0,15.75,0s3.375,1.514,3.375,3.375S17.611,6.75,15.75,6.75z
		 M15.75,1.5c-1.034,0-1.875,0.841-1.875,1.875S14.716,5.25,15.75,5.25s1.875-0.841,1.875-1.875S16.784,1.5,15.75,1.5z"/>
</g>
</svg>
