<?xml version="1.0" encoding="utf-8"?>
<!-- Generator: Adobe Illustrator 22.1.0, SVG Export Plug-In . SVG Version: 6.00 Build 0)  -->
<svg version="1.1" id="Regular" xmlns="http://www.w3.org/2000/svg" xmlns:xlink="http://www.w3.org/1999/xlink" x="0px" y="0px"
	 viewBox="0 0 24 24" style="enable-background:new 0 0 24 24;" xml:space="preserve">
<title>skating</title>
<g>
	<path d="M19.086,6.75c-1.861,0-3.375-1.514-3.375-3.375S17.225,0,19.086,0s3.375,1.514,3.375,3.375S20.947,6.75,19.086,6.75z
		 M19.086,1.5c-1.034,0-1.875,0.841-1.875,1.875s0.841,1.875,1.875,1.875s1.875-0.841,1.875-1.875S20.12,1.5,19.086,1.5z"/>
	<path d="M12.711,24c-0.414,0-0.75-0.336-0.75-0.75s0.336-0.75,0.75-0.75h0.75v-3.969c0.003-0.86-0.473-1.631-1.241-2.012
		l-0.287-0.144l-4.225,4.55l0.578,0.472c0.135,0.11,0.299,0.168,0.473,0.168c0.227,0,0.44-0.101,0.582-0.276
		c0.143-0.176,0.355-0.276,0.582-0.276c0.172,0,0.34,0.06,0.473,0.168c0.155,0.126,0.252,0.306,0.272,0.505
		c0.02,0.199-0.038,0.395-0.165,0.55c-0.429,0.526-1.065,0.828-1.746,0.828c-0.516,0-1.02-0.179-1.419-0.505l-5.812-4.742
		c-0.155-0.126-0.252-0.306-0.272-0.505c-0.02-0.199,0.038-0.395,0.165-0.55C1.562,16.588,1.774,16.487,2,16.487
		c0.172,0,0.341,0.06,0.474,0.169l1.74,1.419c0,0,1.644-1.768,1.645-1.77c0.01-0.012,0.031-0.034,0.043-0.045l4.656-5.009h-2.34
		c-1.241,0-2.25-1.009-2.25-2.25s1.009-2.25,2.25-2.25h7.5c0.571,0,1.115,0.214,1.533,0.602c0.44,0.409,0.695,0.965,0.717,1.566
		c0.022,0.601-0.191,1.174-0.6,1.614l-2.285,2.46c1.82,1.257,2.888,3.296,2.879,5.541V22.5h2.25c0.414,0,0.75-0.336,0.75-0.75
		S21.297,21,21.711,21s0.75,0.336,0.75,0.75c0,1.241-1.009,2.25-2.25,2.25H12.711z M16.461,22.5V21h-1.5v1.5H16.461z M6.542,19.975
		l1.13-1.217L6.509,17.81l-1.13,1.216L6.542,19.975z M16.461,19.5v-0.968c0.008-2.005-1.101-3.804-2.895-4.696
		c-0.21-0.104-0.362-0.305-0.404-0.537s0.028-0.472,0.188-0.645l2.918-3.142c0.137-0.147,0.208-0.338,0.2-0.538
		c-0.007-0.2-0.092-0.385-0.239-0.522c-0.139-0.129-0.32-0.201-0.51-0.201H8.218c-0.414,0-0.75,0.336-0.75,0.75
		s0.336,0.75,0.75,0.75h4.061c0.299,0,0.568,0.177,0.688,0.451c0.119,0.274,0.065,0.592-0.138,0.81l-5.296,5.696l1.162,0.948
		l2.521-2.714c0.141-0.152,0.342-0.24,0.55-0.24c0.116,0,0.231,0.027,0.335,0.079l0.788,0.394c1.283,0.637,2.077,1.924,2.073,3.357
		V19.5H16.461z"/>
</g>
</svg>
