<?xml version="1.0" encoding="utf-8"?>
<!-- Generator: Adobe Illustrator 22.1.0, SVG Export Plug-In . SVG Version: 6.00 Build 0)  -->
<svg version="1.1" id="Regular" xmlns="http://www.w3.org/2000/svg" xmlns:xlink="http://www.w3.org/1999/xlink" x="0px" y="0px"
	 viewBox="0 0 24 24" style="enable-background:new 0 0 24 24;" xml:space="preserve">
<title>skating-shoes</title>
<g>
	<path d="M2.25,24C1.009,24,0,22.991,0,21.75s1.009-2.25,2.25-2.25H6v-1.558c-2.55-0.368-4.5-2.584-4.5-5.192v-9
		c0.004-1.033,0.704-1.927,1.704-2.177l6-1.5C9.383,0.028,9.567,0.005,9.75,0.005c1.034,0,1.932,0.701,2.182,1.704
		C11.977,1.886,11.999,2.067,12,2.248V6.75C12,7.991,13.009,9,14.25,9h2.25c2.12,0,4.744,1.188,5.66,3.458
		c0.224,0.563,0.336,1.147,0.34,1.756c0.08,0.917-0.198,1.812-0.784,2.523c-0.594,0.721-1.432,1.168-2.362,1.259
		c-0.113,0.011-0.226,0.016-0.339,0.016c-0.1,0-0.2-0.004-0.3-0.013H18v1.5h3.75c1.241,0,2.25,1.009,2.25,2.25S22.991,24,21.75,24
		H2.25z M2.25,21c-0.414,0-0.75,0.336-0.75,0.75s0.336,0.75,0.75,0.75h19.5c0.414,0,0.75-0.336,0.75-0.75S22.164,21,21.75,21H2.25z
		 M16.5,19.5V18h-9v1.5H16.5z M9.752,1.505c-0.062,0-0.124,0.008-0.184,0.023l-6,1.5C3.235,3.111,3.001,3.409,3,3.753v8.998
		c0,2.068,1.682,3.75,3.75,3.75h12c0.025,0,0.05,0.001,0.074,0.004c0.062,0.006,0.127,0.009,0.192,0.009s0.13-0.003,0.194-0.009
		c0.531-0.052,1.01-0.307,1.348-0.719s0.497-0.931,0.445-1.462C21.001,14.299,21,14.275,21,14.25c0-0.256-0.028-0.508-0.083-0.75
		H11.25C8.355,13.5,6,11.145,6,8.25v-1.5C6,5.51,7.009,4.5,8.25,4.5h2.25V2.25c0-0.058-0.008-0.118-0.022-0.177
		c-0.049-0.194-0.17-0.358-0.342-0.461C10.019,1.542,9.886,1.505,9.752,1.505z M8.25,6C7.836,6,7.5,6.337,7.5,6.75v1.5
		c0,2.068,1.682,3.75,3.75,3.75h8.857c-0.928-0.987-2.429-1.5-3.607-1.5h-2.25c-1.183,0-2.289-0.557-2.998-1.5H9.75
		C9.336,9,9,8.664,9,8.25S9.336,7.5,9.75,7.5h0.828C10.526,7.252,10.5,7.001,10.5,6.75V6H8.25z"/>
</g>
</svg>
