<?xml version="1.0" encoding="utf-8"?>
<!-- Generator: Adobe Illustrator 22.1.0, SVG Export Plug-In . SVG Version: 6.00 Build 0)  -->
<svg version="1.1" id="Regular" xmlns="http://www.w3.org/2000/svg" xmlns:xlink="http://www.w3.org/1999/xlink" x="0px" y="0px"
	 viewBox="0 0 24 24" style="enable-background:new 0 0 24 24;" xml:space="preserve">
<title>skiing-ice-skates</title>
<g>
	<path d="M2.75,24C2.336,24,2,23.663,2,23.25s0.336-0.75,0.75-0.75H6.5v-2.25c-2.068,0-3.75-1.682-3.75-3.75V4.766
		c0-0.926,0.555-1.746,1.414-2.089l6.557-2.623C10.81,0.018,10.904,0,11,0c0.15,0,0.296,0.044,0.42,0.129
		c0.207,0.14,0.33,0.372,0.33,0.621v9.285c0,1.16,0.871,2.123,2.025,2.239l0.747,0.075c2.201,0.219,4.036,1.806,4.568,3.948
		c0.004,0.011,0.011,0.041,0.017,0.073c0.095,0.406,0.143,0.81,0.143,1.202V18c0,1.241-1.009,2.25-2.25,2.25h-1.5v2.25h3.75
		l0.031,0.375V22.5c0.187,0,0.363-0.071,0.498-0.2c0.139-0.133,0.217-0.312,0.221-0.503v-0.038C19.99,21.354,20.319,21.01,20.732,21
		c0.427,0.006,0.758,0.328,0.768,0.732c0,0.033,0,0.065,0,0.096c-0.013,0.594-0.255,1.146-0.684,1.555
		C20.402,23.781,19.857,24,19.282,24L2.75,24z M14,22.5v-2.25H8v2.25H14z M4.721,4.069C4.435,4.184,4.25,4.457,4.25,4.766V16.5
		c0,1.241,1.009,2.25,2.25,2.25H17c0.414,0,0.75-0.336,0.75-0.75v-0.428c0-0.106-0.005-0.212-0.015-0.322H11.75
		C9.682,17.25,8,15.568,8,13.5v-2.25c0-0.414,0.336-0.75,0.75-0.75h1.53c-0.02-0.156-0.03-0.311-0.03-0.465V1.858L4.721,4.069z
		 M9.5,13.5c0,1.241,1.009,2.25,2.25,2.25h5.53c-0.588-1.069-1.66-1.784-2.907-1.909l-0.748-0.075
		c-1.172-0.118-2.21-0.772-2.82-1.766H9.5V13.5z"/>
</g>
</svg>
