<?xml version="1.0" encoding="utf-8"?>
<!-- Generator: Adobe Illustrator 22.1.0, SVG Export Plug-In . SVG Version: 6.00 Build 0)  -->
<svg version="1.1" id="Regular" xmlns="http://www.w3.org/2000/svg" xmlns:xlink="http://www.w3.org/1999/xlink" x="0px" y="0px"
	 viewBox="0 0 24 24" style="enable-background:new 0 0 24 24;" xml:space="preserve">
<title>skiing-chest-slide</title>
<g>
	<path d="M18.851,20.754c-0.242,0-0.484-0.03-0.72-0.088l-17.479-4.3c-0.401-0.099-0.648-0.506-0.549-0.908
		c0.083-0.336,0.382-0.571,0.728-0.571c0.06,0,0.12,0.007,0.179,0.022l17.479,4.3c0.119,0.03,0.24,0.044,0.361,0.044
		c0.516,0,0.99-0.262,1.266-0.7c0.138-0.219,0.375-0.35,0.635-0.35c0.142,0,0.28,0.04,0.4,0.116
		c0.169,0.106,0.287,0.273,0.331,0.468c0.044,0.196,0.01,0.396-0.097,0.566C20.833,20.23,19.885,20.754,18.851,20.754z"/>
	<path d="M11.016,15.802c-0.06,0-0.12-0.007-0.179-0.021l-9.469-2.327c-0.402-0.099-0.648-0.506-0.549-0.908
		c0.083-0.336,0.382-0.571,0.728-0.571c0.06,0,0.119,0.007,0.178,0.021l9.469,2.327c0.402,0.099,0.648,0.506,0.549,0.908
		C11.662,15.567,11.362,15.802,11.016,15.802z"/>
	<path d="M21.752,17.625c-0.18,0-0.361-0.022-0.538-0.065l-4.918-1.209c-1.673-0.411-3.029-1.608-3.646-3.213l-4.01-0.985
		c-0.717-0.177-1.377-0.495-1.961-0.947L1.34,7.068C0.865,6.7,0.562,6.169,0.485,5.572C0.409,4.975,0.57,4.385,0.938,3.909
		C1.306,3.434,1.838,3.13,2.434,3.054C2.53,3.042,2.627,3.035,2.723,3.035c0.5,0,0.975,0.163,1.374,0.471l5.34,4.141
		C9.519,7.711,9.612,7.756,9.713,7.78l5.101,1.253c0.668,0.166,1.215,0.619,1.502,1.243c0.012,0.026,0.022,0.052,0.031,0.079
		l0.359,1.102c0.081,0.248,0.28,0.432,0.533,0.495l5.045,1.24c1.201,0.295,1.941,1.513,1.65,2.715
		c-0.001,0.003-0.001,0.005-0.002,0.008c-0.144,0.581-0.505,1.072-1.017,1.382C22.563,17.512,22.161,17.625,21.752,17.625z
		 M2.72,4.536c-0.235,0-0.452,0.106-0.595,0.291C2.002,4.986,1.948,5.183,1.973,5.382S2.1,5.759,2.259,5.882l5.338,4.138
		c0.417,0.323,0.889,0.55,1.401,0.677l4.399,1.081c0.245,0.06,0.442,0.237,0.527,0.475l0.1,0.279c0.427,1.18,1.41,2.063,2.63,2.363
		l4.917,1.209c0.06,0.015,0.12,0.022,0.181,0.022c0.135,0,0.269-0.038,0.386-0.109c0.172-0.104,0.292-0.268,0.34-0.462
		c0.097-0.4-0.15-0.806-0.55-0.904l-5.045-1.24c-0.76-0.187-1.359-0.742-1.602-1.487l-0.343-1.052
		c-0.099-0.191-0.274-0.329-0.484-0.381L9.356,9.237C9.05,9.162,8.767,9.026,8.518,8.832l-5.339-4.14
		C3.046,4.59,2.888,4.536,2.72,4.536z"/>
	<path d="M20.543,12.659c-1.861,0-3.375-1.514-3.375-3.375s1.514-3.375,3.375-3.375s3.375,1.514,3.375,3.375
		S22.404,12.659,20.543,12.659z M20.543,7.409c-1.034,0-1.875,0.841-1.875,1.875s0.841,1.875,1.875,1.875s1.875-0.841,1.875-1.875
		S21.577,7.409,20.543,7.409z"/>
</g>
</svg>
