<?xml version="1.0" encoding="utf-8"?>
<!-- Generator: Adobe Illustrator 22.1.0, SVG Export Plug-In . SVG Version: 6.00 Build 0)  -->
<svg version="1.1" id="Regular" xmlns="http://www.w3.org/2000/svg" xmlns:xlink="http://www.w3.org/1999/xlink" x="0px" y="0px"
	 viewBox="0 0 24 24" style="enable-background:new 0 0 24 24;" xml:space="preserve">
<title>skiing-snow-scooter-person</title>
<g>
	<path d="M7.501,6c-1.654,0-3-1.346-3-3s1.346-3,3-3s3,1.346,3,3S9.155,6,7.501,6z M7.501,1.5c-0.827,0-1.5,0.673-1.5,1.5
		s0.673,1.5,1.5,1.5s1.5-0.673,1.5-1.5S8.328,1.5,7.501,1.5z"/>
	<path d="M0.751,24c-0.414,0-0.75-0.336-0.75-0.75s0.336-0.75,0.75-0.75h19.5c1.241,0,2.25-1.009,2.25-2.25
		c0-0.414,0.336-0.75,0.75-0.75s0.75,0.336,0.75,0.75c0,2.068-1.682,3.75-3.75,3.75H0.751z"/>
	<path d="M2.672,21.002c-0.601,0-1.166-0.234-1.591-0.659c-0.425-0.425-0.659-0.99-0.659-1.591c0-0.184,0.023-0.368,0.067-0.546
		l0.75-3c0.25-1.004,1.147-1.706,2.182-1.706h1.829V8.243c0-0.6,0.233-1.165,0.658-1.59s0.99-0.661,1.59-0.661
		c1.071,0,1.999,0.761,2.209,1.81c0.043,0.191,0.509,1.942,3.043,1.942c1.241,0,2.25,1.009,2.25,2.25s-1.009,2.25-2.25,2.25
		c-0.052,0.001-0.113,0.002-0.174,0.002c-1.374,0-2.738-0.361-3.945-1.043c-0.174-0.098-0.3-0.259-0.354-0.452
		s-0.029-0.396,0.07-0.57c0.133-0.235,0.383-0.381,0.653-0.381c0.129,0,0.256,0.033,0.368,0.097
		c0.982,0.555,2.092,0.849,3.209,0.849c0.052,0,0.103,0,0.155-0.002c0.427,0,0.767-0.336,0.767-0.75c0-0.414-0.336-0.75-0.75-0.75
		c-3.701,0-4.439-2.81-4.511-3.131C8.168,7.749,7.857,7.492,7.501,7.492c-0.201,0-0.389,0.078-0.531,0.22
		c-0.142,0.142-0.22,0.33-0.22,0.53v6.008c0,0.414-0.336,0.75-0.75,0.75H3.422c-0.345,0-0.644,0.234-0.727,0.569L2.462,16.5h19.501
		c0.137-0.103,0.251-0.227,0.341-0.372c0.19-0.307,0.249-0.669,0.167-1.02c-0.083-0.351-0.297-0.649-0.604-0.839l-4.366-2.729
		l-0.997,1.661c-0.135,0.225-0.382,0.364-0.644,0.364c-0.136,0-0.269-0.037-0.386-0.107c-0.171-0.103-0.292-0.267-0.341-0.461
		c-0.049-0.194-0.019-0.396,0.085-0.568l1.178-1.963L15.08,7.835c-0.185-0.37-0.034-0.821,0.335-1.006
		c0.105-0.052,0.22-0.079,0.335-0.079c0.286,0,0.543,0.159,0.671,0.415l1.406,2.811l4.832,3.02c0.645,0.399,1.097,1.028,1.271,1.769
		s0.05,1.505-0.351,2.153c-0.202,0.326-0.463,0.604-0.777,0.827l-3.583,2.559c-0.639,0.457-1.392,0.698-2.178,0.698H2.672z
		 M1.945,18.57c-0.015,0.059-0.022,0.121-0.022,0.182c0,0.2,0.078,0.389,0.219,0.53c0.142,0.142,0.33,0.22,0.53,0.22H17.04
		c0.472,0,0.924-0.145,1.306-0.419L19.863,18H2.087L1.945,18.57z"/>
</g>
</svg>
