<?xml version="1.0" encoding="utf-8"?>
<!-- Generator: Adobe Illustrator 22.1.0, SVG Export Plug-In . SVG Version: 6.00 Build 0)  -->
<svg version="1.1" id="Regular" xmlns="http://www.w3.org/2000/svg" xmlns:xlink="http://www.w3.org/1999/xlink" x="0px" y="0px"
	 viewBox="0 0 24 24" style="enable-background:new 0 0 24 24;" xml:space="preserve">
<title>skirt-1</title>
<g>
	<path d="M12.003,24c-1.663,0-4.82-0.385-6.554-0.614C5.053,23.334,4.7,23.13,4.456,22.812s-0.35-0.712-0.298-1.108
		c0.019-0.146,0.06-0.289,0.121-0.425c0.047-0.108,0.094-0.22,0.142-0.338c-1.138-0.131-2.254-0.481-3.255-1.023
		c-0.731-0.411-0.992-1.33-0.586-2.052c0.924-1.637,0.924-7.433,0.924-9.615c0-2.743,2.1-4.364,3-4.932V0.75
		C4.503,0.336,4.84,0,5.253,0h13.5c0.414,0,0.75,0.336,0.75,0.75v2.568c0.9,0.568,3,2.189,3,4.932c0,2.182,0,7.978,0.923,9.614
		c0.197,0.35,0.246,0.756,0.138,1.142c-0.108,0.386-0.36,0.707-0.709,0.904c-1.01,0.548-2.129,0.9-3.269,1.031
		c0.05,0.123,0.099,0.239,0.147,0.35c0.161,0.356,0.174,0.761,0.032,1.136c-0.141,0.375-0.42,0.673-0.785,0.838
		c-0.132,0.06-0.274,0.101-0.422,0.121C16.824,23.615,13.666,24,12.003,24z M12.753,22.478c1.776-0.089,4.473-0.429,5.608-0.58
		c-0.176-0.408-0.346-0.838-0.508-1.281c-0.039-0.07-0.066-0.146-0.081-0.227c-0.865-2.459-1.292-5.031-1.269-7.647
		c0-4.722-1.967-7.487-2.588-8.243h-1.162V22.478z M6.149,20.63c-0.159,0.437-0.327,0.86-0.5,1.258
		c1.131,0.161,3.828,0.501,5.604,0.591V4.5h-1.162C9.837,4.808,9.372,5.433,8.908,6.367C8.267,7.659,7.503,9.814,7.503,12.75
		c0.023,2.605-0.401,5.17-1.262,7.622C6.226,20.464,6.195,20.551,6.149,20.63z M15.77,4.5c0.978,1.514,2.233,4.239,2.233,8.25
		c-0.021,2.304,0.33,4.566,1.042,6.731c1.079-0.069,2.139-0.372,3.081-0.883c-1.123-1.977-1.123-7.631-1.123-10.349
		c0-2.138-1.884-3.417-2.446-3.75H15.77z M5.449,4.5C4.887,4.833,3.003,6.111,3.003,8.25c0,2.717,0,8.372-1.117,10.352
		c0.936,0.508,1.995,0.811,3.075,0.88c0.712-2.165,1.062-4.425,1.041-6.724c0-4.016,1.255-6.743,2.233-8.257H5.449z M18.003,3V1.5
		h-12V3H18.003z"/>
</g>
</svg>
