<?xml version="1.0" encoding="utf-8"?>
<!-- Generator: Adobe Illustrator 22.1.0, SVG Export Plug-In . SVG Version: 6.00 Build 0)  -->
<svg version="1.1" id="Layer_1" xmlns="http://www.w3.org/2000/svg" xmlns:xlink="http://www.w3.org/1999/xlink" x="0px" y="0px"
	 viewBox="0 0 24 24" style="enable-background:new 0 0 24 24;" xml:space="preserve">
<title>smart-house-garage-1</title>
<g>
	<path d="M11.25,16.5C10.009,16.5,9,15.491,9,14.25V8.561L8.78,8.78C8.639,8.922,8.45,9,8.25,9S7.861,8.922,7.72,8.78
		C7.578,8.639,7.5,8.45,7.5,8.25s0.078-0.389,0.22-0.53l7.5-7.5C15.361,0.078,15.55,0,15.75,0s0.389,0.078,0.53,0.22l7.5,7.5
		C23.922,7.861,24,8.05,24,8.25s-0.078,0.389-0.22,0.53S23.45,9,23.25,9s-0.389-0.078-0.53-0.22l-0.22-0.22v5.689
		c0,1.241-1.009,2.25-2.25,2.25H11.25z M20.25,15c0.414,0,0.75-0.336,0.75-0.75V7.061l-5.25-5.25l-5.25,5.25v7.189
		c0,0.414,0.336,0.75,0.75,0.75H12V9.75C12,9.336,12.336,9,12.75,9h6c0.414,0,0.75,0.336,0.75,0.75L20.25,15z M18,15v-1.5h-4.5
		L18,15z M18,12v-1.5h-4.5V12H18z"/>
	<path d="M2.25,24C1.009,24,0,22.991,0,21.75v-6c0-1.241,1.009-2.25,2.25-2.25h3c1.241,0,2.25,1.009,2.25,2.25v6
		C7.5,22.991,6.491,24,5.25,24H2.25z M2.25,15c-0.414,0-0.75,0.336-0.75,0.75v6c0,0.414,0.336,0.75,0.75,0.75h3
		C5.664,22.5,6,22.164,6,21.75v-6C6,15.336,5.664,15,5.25,15H2.25z"/>
	<circle cx="3.75" cy="20.25" r="1.125"/>
	<path d="M5.871,11.379c-0.2,0-0.388-0.078-0.53-0.219c-0.424-0.424-0.989-0.658-1.591-0.658s-1.167,0.234-1.591,0.657
		c-0.142,0.142-0.33,0.22-0.53,0.22c-0.2,0-0.389-0.078-0.53-0.22c-0.292-0.293-0.292-0.768,0-1.061
		C1.806,9.392,2.747,9.002,3.75,9.002s1.944,0.389,2.651,1.096c0.292,0.292,0.292,0.768,0,1.061
		C6.26,11.301,6.071,11.379,5.871,11.379z"/>
</g>
</svg>
