<?xml version="1.0" encoding="utf-8"?>
<!-- Generator: Adobe Illustrator 22.1.0, SVG Export Plug-In . SVG Version: 6.00 Build 0)  -->
<svg version="1.1" id="Layer_1" xmlns="http://www.w3.org/2000/svg" xmlns:xlink="http://www.w3.org/1999/xlink" x="0px" y="0px"
	 viewBox="0 0 24 24" style="enable-background:new 0 0 24 24;" xml:space="preserve">
<title>smart-house-remote-alternate</title>
<g>
	<path d="M11.25,16.501c-1.241,0-2.25-1.009-2.25-2.25V8.562l-0.22,0.22c-0.142,0.142-0.33,0.22-0.53,0.22s-0.389-0.078-0.53-0.22
		C7.578,8.64,7.5,8.451,7.5,8.251s0.078-0.389,0.22-0.53l7.5-7.5c0.142-0.142,0.33-0.22,0.53-0.22s0.389,0.078,0.53,0.22l7.5,7.5
		C23.922,7.862,24,8.051,24,8.251s-0.078,0.389-0.22,0.53s-0.33,0.22-0.53,0.22s-0.389-0.078-0.53-0.22l-0.22-0.22v5.689
		c0,1.241-1.009,2.25-2.25,2.25H11.25z M10.5,14.251c0,0.414,0.336,0.75,0.75,0.75h9c0.414,0,0.75-0.336,0.75-0.75V7.062l-5.25-5.25
		l-5.25,5.25V14.251z"/>
	<path d="M2.25,24.001c-1.241,0-2.25-1.009-2.25-2.25v-6c0-1.241,1.009-2.25,2.25-2.25h3c1.241,0,2.25,1.009,2.25,2.25v6
		c0,1.241-1.009,2.25-2.25,2.25H2.25z M2.25,15.001c-0.414,0-0.75,0.336-0.75,0.75v6c0,0.414,0.336,0.75,0.75,0.75h3
		c0.414,0,0.75-0.336,0.75-0.75v-6c0-0.414-0.336-0.75-0.75-0.75H2.25z"/>
	<circle cx="3.75" cy="20.251" r="1.125"/>
	<path d="M1.628,11.379c-0.2,0-0.388-0.078-0.53-0.219c-0.293-0.293-0.293-0.768,0-1.061C1.806,9.39,2.747,9,3.749,9
		c1.002,0,1.943,0.39,2.652,1.098c0.146,0.146,0.146,0.384,0,0.53l-0.53,0.531c-0.07,0.07-0.166,0.11-0.265,0.11h0
		c-0.099,0-0.195-0.04-0.265-0.11C4.916,10.734,4.35,10.5,3.749,10.5c-0.601,0-1.166,0.234-1.591,0.659
		C2.017,11.301,1.828,11.379,1.628,11.379z"/>
</g>
</svg>
