<?xml version="1.0" encoding="utf-8"?>
<!-- Generator: Adobe Illustrator 22.1.0, SVG Export Plug-In . SVG Version: 6.00 Build 0)  -->
<svg version="1.1" id="Layer_1" xmlns="http://www.w3.org/2000/svg" xmlns:xlink="http://www.w3.org/1999/xlink" x="0px" y="0px"
	 viewBox="0 0 24 24" style="enable-background:new 0 0 24 24;" xml:space="preserve">
<title>smart-house</title>
<g>
	<path d="M1.5,24c-0.414,0-0.75-0.336-0.75-0.75S1.086,22.5,1.5,22.5h9.75v-3H5.438c-0.99-0.058-1.737-0.883-1.687-1.839
		L3.75,10.246L2.042,12.03c-0.141,0.147-0.338,0.231-0.542,0.231c-0.194,0-0.379-0.074-0.519-0.208
		c-0.299-0.286-0.309-0.762-0.023-1.06L11.121,0.381c0.225-0.239,0.546-0.377,0.878-0.377c0.311,0,0.607,0.117,0.832,0.33
		c0.018,0.017,0.04,0.038,0.06,0.061l10.149,10.596c0.139,0.145,0.213,0.335,0.208,0.535c-0.004,0.2-0.086,0.387-0.231,0.526
		c-0.14,0.134-0.324,0.208-0.519,0.208c-0.204,0-0.401-0.084-0.542-0.232l-1.708-1.783V17.7c0.049,0.924-0.687,1.74-1.641,1.799
		L12.75,19.5v3h9.75c0.414,0,0.75,0.336,0.75,0.75S22.914,24,22.5,24H1.5z M5.25,17.7c-0.008,0.169,0.095,0.293,0.234,0.302L9,18
		v-4.5c0-1.241,1.009-2.25,2.25-2.25h1.5c1.241,0,2.25,1.009,2.25,2.25V18l3.563,0c0.082-0.006,0.195-0.119,0.188-0.261L18.75,8.68
		L12,1.633L5.25,8.68V17.7z M13.5,18v-4.5c0-0.414-0.336-0.75-0.75-0.75h-1.5c-0.414,0-0.75,0.336-0.75,0.75V18H13.5z"/>
</g>
</svg>
