<?xml version="1.0" encoding="utf-8"?>
<!-- Generator: Adobe Illustrator 22.1.0, SVG Export Plug-In . SVG Version: 6.00 Build 0)  -->
<svg version="1.1" id="Layer_1" xmlns="http://www.w3.org/2000/svg" xmlns:xlink="http://www.w3.org/1999/xlink" x="0px" y="0px"
	 viewBox="0 0 24 24" style="enable-background:new 0 0 24 24;" xml:space="preserve">
<title>smart-house-ventilator</title>
<g>
	<path d="M14.251,16.5c-0.414,0-0.75-0.336-0.75-0.75v-1.027c-3.296-0.203-5.25-1.765-5.25-4.223c0-0.414,0.336-0.75,0.75-0.75
		h1.027c0.203-3.296,1.765-5.25,4.223-5.25c0.414,0,0.75,0.336,0.75,0.75v1.027c3.296,0.203,5.25,1.765,5.25,4.223
		c0,0.414-0.336,0.75-0.75,0.75h-1.027C18.271,14.545,16.709,16.5,14.251,16.5z M15.001,14.893c1.469-0.458,1.875-2.31,1.972-3.643
		h-1.972V14.893z M9.857,11.25c0.459,1.469,2.31,1.875,3.643,1.972V11.25H9.857z M18.644,9.75c-0.458-1.469-2.31-1.875-3.643-1.973
		V9.75H18.644z M13.501,9.75V6.107c-1.469,0.458-1.875,2.31-1.973,3.643H13.501z"/>
	<path d="M12.314,21c-0.414,0-0.75-0.336-0.75-0.75s0.336-0.75,0.75-0.75h9.437c0.414,0,0.75-0.336,0.75-0.75V6.866
		c0.001-0.268-0.142-0.518-0.372-0.652l-7.878-4.596L6.372,6.21C6.142,6.344,6,6.593,6.001,6.86v5.89c0,0.414-0.336,0.75-0.75,0.75
		s-0.75-0.336-0.75-0.75V6.862C4.498,6.064,4.926,5.317,5.617,4.914l8.256-4.812C13.987,0.035,14.118,0,14.251,0
		c0.133,0,0.263,0.035,0.378,0.102l8.256,4.816c0.69,0.403,1.118,1.15,1.116,1.95V18.75c0,1.241-1.009,2.25-2.25,2.25H12.314z"/>
	<path d="M8.064,21.404c-0.2,0-0.389-0.078-0.53-0.22c-0.608-0.608-1.419-0.943-2.282-0.943s-1.674,0.335-2.282,0.943
		c-0.142,0.142-0.33,0.22-0.53,0.22c-0.2,0-0.389-0.078-0.53-0.22c-0.142-0.142-0.22-0.33-0.22-0.531s0.078-0.389,0.22-0.53
		c0.891-0.891,2.078-1.382,3.343-1.382s2.451,0.491,3.343,1.382c0.142,0.141,0.22,0.33,0.22,0.53s-0.078,0.389-0.219,0.531
		C8.452,21.326,8.264,21.404,8.064,21.404z"/>
	<path d="M9.751,18.739c-0.2,0-0.389-0.078-0.53-0.22c-1.061-1.06-2.47-1.644-3.97-1.644s-2.909,0.584-3.97,1.644
		c-0.142,0.142-0.33,0.22-0.53,0.22s-0.389-0.078-0.53-0.22c-0.292-0.292-0.292-0.768,0-1.061c1.343-1.344,3.13-2.084,5.03-2.084
		c1.9,0,3.687,0.74,5.03,2.084c0.292,0.292,0.292,0.768,0,1.061C10.139,18.661,9.951,18.739,9.751,18.739z"/>
	<circle cx="5.251" cy="22.875" r="1.125"/>
</g>
</svg>
