<?xml version="1.0" encoding="utf-8"?>
<!-- Generator: Adobe Illustrator 22.1.0, SVG Export Plug-In . SVG Version: 6.00 Build 0)  -->
<svg version="1.1" id="Regular" xmlns="http://www.w3.org/2000/svg" xmlns:xlink="http://www.w3.org/1999/xlink" x="0px" y="0px"
	 viewBox="0 0 24 24" style="enable-background:new 0 0 24 24;" xml:space="preserve">
<title>smart-light-signal</title>
<g>
	<path d="M4.045,22.213c-0.2,0-0.389-0.078-0.53-0.22c-2.263-2.263-3.509-5.277-3.509-8.485c0-3.209,1.246-6.222,3.509-8.485
		C5.778,2.76,8.791,1.514,12,1.514c3.209,0,6.222,1.246,8.485,3.509c4.679,4.679,4.679,12.292,0,16.97
		c-0.142,0.142-0.33,0.22-0.53,0.22s-0.389-0.078-0.53-0.22c-0.292-0.292-0.292-0.768,0-1.061c4.094-4.094,4.094-10.755,0-14.849
		c-1.98-1.98-4.617-3.07-7.425-3.07c-2.808,0-5.445,1.09-7.425,3.07c-4.094,4.094-4.094,10.755,0,14.849
		c0.142,0.142,0.22,0.33,0.22,0.53s-0.078,0.389-0.22,0.53C4.434,22.135,4.245,22.213,4.045,22.213z"/>
	<path d="M6.166,20.092c-0.2,0-0.389-0.078-0.53-0.22c-1.698-1.697-2.632-3.958-2.633-6.365c0-2.407,0.935-4.667,2.632-6.365
		C7.332,5.445,9.593,4.511,12,4.511c2.407,0,4.667,0.935,6.364,2.632c1.698,1.697,2.633,3.958,2.633,6.365
		c0,2.407-0.934,4.667-2.632,6.365c-0.073,0.073-0.169,0.11-0.265,0.11c-0.096,0-0.192-0.036-0.265-0.109l-0.531-0.53
		c-0.07-0.07-0.11-0.166-0.11-0.265s0.04-0.195,0.11-0.265c2.925-2.925,2.925-7.684,0-10.609C15.889,6.789,14.006,6.01,12,6.01
		c-2.006,0-3.89,0.779-5.304,2.193c-2.924,2.925-2.924,7.684,0.001,10.608c0.292,0.292,0.292,0.768,0,1.061
		C6.555,20.014,6.366,20.092,6.166,20.092z"/>
	<path d="M12,22.508c-0.414,0-0.75-0.336-0.75-0.75v-0.75c-1.241,0-2.25-1.009-2.25-2.25V16.86c-0.942-0.847-1.5-2.086-1.5-3.352
		c0-2.481,2.019-4.5,4.5-4.5c1.409,0,2.755,0.673,3.6,1.8c1.406,1.875,1.134,4.496-0.6,6.047v1.903c0,1.241-1.009,2.25-2.25,2.25
		v0.75C12.75,22.172,12.413,22.508,12,22.508z M10.5,18.758c0,0.414,0.336,0.75,0.75,0.75h1.5c0.414,0,0.75-0.336,0.75-0.75v-1.5h-3
		V18.758z M13.984,15.758c1.175-1.032,1.363-2.786,0.415-4.05c-0.563-0.751-1.461-1.2-2.4-1.2c-1.654,0-3,1.346-3,3
		c0,0.853,0.378,1.685,1.016,2.25H13.984z"/>
</g>
</svg>
