<?xml version="1.0" encoding="utf-8"?>
<!-- Generator: Adobe Illustrator 22.1.0, SVG Export Plug-In . SVG Version: 6.00 Build 0)  -->
<svg version="1.1" id="Regular" xmlns="http://www.w3.org/2000/svg" xmlns:xlink="http://www.w3.org/1999/xlink" x="0px" y="0px"
	 viewBox="0 0 24 24" style="enable-background:new 0 0 24 24;" xml:space="preserve">
<title>snail</title>
<g>
	<path d="M7.511,20.588c-2.801,0-7.5-1.072-7.5-8.25c0-1.516,0.555-2.708,1.569-3.38L0.783,5.77
		C0.734,5.576,0.764,5.374,0.868,5.202C0.971,5.03,1.134,4.909,1.329,4.86C1.388,4.845,1.45,4.838,1.512,4.838
		c0.344,0,0.643,0.234,0.726,0.568L2.994,8.43C3.175,8.404,3.36,8.391,3.546,8.391c0.079,0,0.159,0.002,0.239,0.007l0.748-2.992
		c0.083-0.335,0.382-0.569,0.726-0.569c0.062,0,0.125,0.008,0.185,0.023C5.637,4.909,5.801,5.03,5.904,5.202
		C6.007,5.374,6.037,5.576,5.988,5.77L5.243,8.751c0.153,0.067,0.301,0.143,0.443,0.226c0.276,0.162,0.526,0.349,0.747,0.559
		c0.91-3.155,3.25-5.641,6.378-6.728c1.019-0.354,2.083-0.542,3.161-0.558c2.181,0.022,4.212,0.886,5.728,2.434
		c1.516,1.547,2.338,3.592,2.316,5.758c0.034,2.143-0.991,4.191-2.707,5.459c1.333,1.109,2.403,3.163,2.622,3.602
		c0.115,0.231,0.103,0.511-0.033,0.73c-0.135,0.219-0.38,0.355-0.638,0.355H7.511z M3.547,9.887c-0.383,0-0.742,0.09-1.039,0.26
		c-0.825,0.472-0.998,1.452-0.998,2.191c0,4.479,2.019,6.75,6,6.75h14.466c-0.785-1.269-1.587-2.158-2.145-2.366
		c-0.746,0.297-1.531,0.455-2.336,0.468l-0.042,0c-3.035-0.028-5.475-2.511-5.448-5.536c-0.022-2.492,1.996-4.543,4.498-4.566
		c2.094,0.022,3.776,1.734,3.757,3.816c-0.004,0.41-0.34,0.743-0.75,0.743c-0.207-0.002-0.395-0.082-0.535-0.224
		s-0.217-0.332-0.215-0.532c0.011-1.256-1.001-2.289-2.258-2.302c-1.664,0.015-3.012,1.391-2.997,3.066
		c-0.02,2.208,1.753,4.016,3.951,4.036c1.381-0.022,2.66-0.577,3.614-1.563c0.954-0.985,1.467-2.281,1.445-3.648
		c0-0.013,0.001-0.054,0.001-0.061c0.017-1.752-0.653-3.424-1.889-4.685c-1.235-1.261-2.888-1.965-4.653-1.983
		c-0.902,0.014-1.804,0.173-2.672,0.475c-3.286,1.142-5.541,4.124-5.753,7.603c0.012,0.13,0.017,0.25,0.016,0.366
		c-0.001,0.07-0.011,0.139-0.031,0.205c0.006,0.942,0.165,1.871,0.474,2.76c0.136,0.39-0.072,0.819-0.462,0.955
		c-0.08,0.028-0.163,0.042-0.246,0.042c-0.319,0-0.604-0.203-0.709-0.504c-0.424-1.219-0.607-2.49-0.546-3.779
		c-0.088-0.661-0.485-1.229-1.12-1.601C4.498,10.02,4.021,9.887,3.547,9.887z"/>
</g>
</svg>
