<?xml version="1.0" encoding="utf-8"?>
<!-- Generator: Adobe Illustrator 22.1.0, SVG Export Plug-In . SVG Version: 6.00 Build 0)  -->
<svg version="1.1" id="Regular" xmlns="http://www.w3.org/2000/svg" xmlns:xlink="http://www.w3.org/1999/xlink" x="0px" y="0px"
	 viewBox="0 0 24 24" style="enable-background:new 0 0 24 24;" xml:space="preserve">
<title>snail-shell</title>
<g>
	<path d="M13.64,22.53c-4.875,0-8.875-3.722-9.258-8.539H0.835c-0.414,0-0.75-0.336-0.75-0.75c0-6.888,5.604-12.491,12.491-12.491
		c6.299,0,11.423,5.125,11.424,11.424c0,5.71-4.646,10.356-10.356,10.356C13.643,22.53,13.641,22.53,13.64,22.53z M12.572,6.519
		c-3.707,0-6.722,3.016-6.722,6.722c0.001,4.295,3.495,7.789,7.79,7.789c0.001,0,0.003,0,0.004,0c4.883,0,8.856-3.973,8.856-8.856
		c0-5.472-4.452-9.924-9.924-9.924C6.74,2.25,1.996,6.718,1.61,12.491h2.774c0.381-4.218,3.91-7.472,8.188-7.472
		c0.001,0,0.003,0,0.004,0c3.942,0,7.152,3.207,7.155,7.15c0,0.001,0,0.005,0,0.006c-0.001,3.356-2.731,6.086-6.087,6.087
		c-2.768,0-5.02-2.252-5.02-5.02c0-2.147,1.741-3.913,3.886-3.948c0.022-0.003,0.044-0.004,0.066-0.004
		c1.591,0,2.885,1.294,2.885,2.885c0,0.414-0.336,0.75-0.75,0.75s-0.75-0.336-0.75-0.75c0-0.752-0.607-1.37-1.358-1.384
		c-0.01,0.001-0.021,0.001-0.029,0.001c-1.351,0-2.45,1.099-2.45,2.45c0,1.941,1.579,3.52,3.52,3.52
		c2.529,0,4.586-2.058,4.587-4.587c0-0.001,0-0.004,0-0.005c-0.002-3.115-2.539-5.65-5.655-5.65c-0.001,0-0.001,0-0.002,0
		C12.573,6.519,12.572,6.519,12.572,6.519z"/>
</g>
</svg>
