<?xml version="1.0" encoding="utf-8"?>
<!-- Generator: Adobe Illustrator 22.1.0, SVG Export Plug-In . SVG Version: 6.00 Build 0)  -->
<svg version="1.1" id="Regular" xmlns="http://www.w3.org/2000/svg" xmlns:xlink="http://www.w3.org/1999/xlink" x="0px" y="0px"
	 viewBox="0 0 24 24" style="enable-background:new 0 0 24 24;" xml:space="preserve">
<title>soccer-goalkeeper-glove-1</title>
<g>
	<path d="M7.286,24.001c-0.337-0.009-0.652-0.149-0.886-0.395l-6.029-6.24c-0.487-0.512-0.488-1.309-0.004-1.818l2.361-2.444
		c-0.353-1.82,0.304-3.437,2.168-5.366l6.787-7.024c0.021-0.022,0.047-0.048,0.073-0.073c0.433-0.413,1-0.64,1.597-0.64
		c0.64,0,1.235,0.254,1.675,0.716c0.204,0.214,0.364,0.459,0.477,0.724c0.008-0.008,0.017-0.016,0.025-0.024
		c0.429-0.409,0.996-0.636,1.593-0.636c0.64,0,1.234,0.254,1.675,0.716c0.264,0.278,0.458,0.614,0.569,0.976
		c0.245-0.087,0.504-0.132,0.768-0.132l0.062,0.001c0.617,0.015,1.191,0.27,1.617,0.717c0.648,0.682,0.839,1.658,0.532,2.514
		c0.37,0.116,0.706,0.324,0.977,0.608c0.9,0.947,0.901,2.43,0.001,3.376l-4.132,4.284l1.333-0.192
		c0.033-0.005,0.07-0.008,0.107-0.008c0.03-0.002,0.078-0.003,0.126-0.003c1.549,0,2.82,1.22,2.892,2.777
		c0.088,1.386-0.825,2.516-2.504,3.096c-1.385,0.469-2.809,0.869-4.235,1.19c-0.322,0.071-0.653,0.152-0.99,0.235l-0.034,0.008
		c-1.204,0.295-2.448,0.599-3.619,0.599c-0.664,0-1.234-0.101-1.735-0.307L8.237,23.61c-0.003,0.004-0.023,0.024-0.044,0.043
		c-0.235,0.224-0.545,0.347-0.872,0.347C7.317,24.001,7.29,24.001,7.286,24.001z M7.32,22.4l1.973-2.042l-5.745-5.945l-1.972,2.042
		L7.32,22.4z M10.499,19.448c0.385,0.398,0.967,0.592,1.78,0.592c0.99,0,2.139-0.281,3.25-0.552c0.361-0.089,0.714-0.175,1.055-0.25
		c1.374-0.309,2.745-0.694,4.077-1.145c1.034-0.356,1.537-0.893,1.492-1.594c-0.036-0.764-0.655-1.358-1.409-1.358
		c-0.014,0-0.028,0-0.042,0l-3.462,0.5c-0.034,0.005-0.071,0.008-0.108,0.008c-0.282,0-0.537-0.156-0.666-0.408
		c-0.146-0.285-0.095-0.632,0.127-0.862l5.648-5.855c0.345-0.364,0.345-0.938-0.004-1.305c-0.149-0.156-0.351-0.246-0.569-0.251
		c0,0-0.001,0-0.001,0c-0.232,0-0.426,0.078-0.58,0.225l-1.788,1.85c-0.143,0.148-0.335,0.229-0.54,0.229
		c-0.196,0-0.381-0.075-0.521-0.211c-0.297-0.287-0.306-0.763-0.019-1.06l2.512-2.6c0.345-0.363,0.344-0.937-0.004-1.304
		c-0.149-0.156-0.35-0.246-0.567-0.251c0,0-0.001,0-0.001,0c-0.23,0-0.427,0.079-0.578,0.224l-0.03,0.03l-0.755,0.782l-2.5,2.602
		c-0.141,0.146-0.338,0.23-0.541,0.23c-0.195,0-0.379-0.074-0.52-0.209c-0.298-0.286-0.308-0.762-0.021-1.06l2.5-2.603
		c0.347-0.365,0.346-0.94-0.002-1.306c-0.154-0.161-0.363-0.25-0.588-0.25c-0.21,0-0.41,0.08-0.561,0.224l-0.029,0.029l-3.772,3.905
		c-0.143,0.147-0.334,0.229-0.539,0.229c-0.195,0-0.38-0.075-0.521-0.21c-0.144-0.139-0.225-0.326-0.229-0.527
		s0.071-0.39,0.211-0.534l2.263-2.342c0.345-0.363,0.344-0.937-0.004-1.303c-0.154-0.161-0.363-0.25-0.588-0.25
		c-0.21,0-0.409,0.079-0.561,0.224l-0.031,0.031L5.974,8.782c-1.799,1.862-2.016,3.027-1.748,4.175L10.499,19.448z"/>
</g>
</svg>
