<?xml version="1.0" encoding="utf-8"?>
<!-- Generator: Adobe Illustrator 22.1.0, SVG Export Plug-In . SVG Version: 6.00 Build 0)  -->
<svg version="1.1" id="Regular" xmlns="http://www.w3.org/2000/svg" xmlns:xlink="http://www.w3.org/1999/xlink" x="0px" y="0px"
	 viewBox="0 0 24 24" style="enable-background:new 0 0 24 24;" xml:space="preserve">
<title>soccer-ball</title>
<g>
	<path d="M12,24c-0.912,0-1.831-0.107-2.732-0.318c-0.03-0.005-0.059-0.012-0.088-0.02c-3.048-0.737-5.742-2.696-7.397-5.377
		c-0.032-0.042-0.06-0.087-0.082-0.135c-0.939-1.567-1.513-3.361-1.659-5.188c-0.002-0.016-0.003-0.032-0.004-0.048
		C0.013,12.577,0,12.278,0,12c0-2.836,1.014-5.589,2.854-7.757C2.89,4.189,2.932,4.141,2.98,4.098
		c1.199-1.367,2.71-2.46,4.372-3.161C7.399,0.913,7.447,0.894,7.495,0.88C8.932,0.296,10.447,0,12,0c1.553,0,3.07,0.296,4.507,0.881
		c0.048,0.014,0.095,0.033,0.141,0.056c1.662,0.701,3.174,1.793,4.373,3.161c0.048,0.043,0.09,0.091,0.125,0.145
		C22.986,6.411,24,9.164,24,12c0,0.283-0.012,0.577-0.039,0.926c0,0-0.002,0.028-0.003,0.036c-0.146,1.828-0.719,3.621-1.658,5.187
		c-0.022,0.048-0.05,0.094-0.083,0.136c-1.655,2.68-4.349,4.639-7.396,5.376c-0.029,0.009-0.059,0.016-0.09,0.021
		C13.831,23.893,12.912,24,12,24z M9.913,22.289c0.69,0.14,1.391,0.211,2.087,0.211c0.695,0,1.396-0.071,2.087-0.211l1.756-3.583
		l-1.073-1.201H9.231l-1.073,1.201L9.913,22.289z M16.054,21.683c1.49-0.629,2.832-1.606,3.895-2.836l-2.71,0.416L16.054,21.683z
		 M4.051,18.848c1.063,1.23,2.406,2.207,3.895,2.836l-1.185-2.42L4.051,18.848z M6.974,17.779l1.075-1.204L6.37,11.388l-2.006-0.983
		l-2.795,2.783c0.158,1.399,0.59,2.729,1.285,3.958L6.974,17.779z M17.026,17.779l4.121-0.633c0.695-1.229,1.127-2.559,1.285-3.958
		l-2.795-2.783l-2.006,0.983l-1.679,5.187L17.026,17.779z M14.56,16.004l1.574-4.863L12,8.135l-4.134,3.005l1.574,4.863H14.56z
		 M3.011,6.58c-0.837,1.379-1.338,2.916-1.474,4.522l1.877-1.869L3.011,6.58z M22.462,11.101c-0.137-1.609-0.637-3.144-1.473-4.521
		l-0.403,2.653L22.462,11.101z M17.091,9.982l2.014-0.986l0.622-4.095c-0.942-1.024-2.095-1.864-3.354-2.443L12.75,4.899v1.927
		L17.091,9.982z M6.909,9.982l4.341-3.156V4.899L7.627,2.457c-1.258,0.58-2.411,1.42-3.354,2.444l0.622,4.094L6.909,9.982z
		 M12,3.595l2.615-1.763C13.761,1.612,12.885,1.5,12,1.5c-0.884,0-1.761,0.112-2.615,0.333L12,3.595z"/>
</g>
</svg>
