<?xml version="1.0" encoding="utf-8"?>
<!-- Generator: Adobe Illustrator 22.1.0, SVG Export Plug-In . SVG Version: 6.00 Build 0)  -->
<svg version="1.1" id="Regular" xmlns="http://www.w3.org/2000/svg" xmlns:xlink="http://www.w3.org/1999/xlink" x="0px" y="0px"
	 viewBox="0 0 24 24" style="enable-background:new 0 0 24 24;" xml:space="preserve">
<title>soccer-goal-net</title>
<g>
	<path d="M1.409,21.25C0.632,21.25,0,20.617,0,19.84V7c0-0.989,0.382-1.921,1.077-2.627c0.007-0.008,0.015-0.017,0.022-0.024
		c0.008-0.008,0.016-0.016,0.025-0.023C1.823,3.635,2.758,3.25,3.75,3.25h16.5c0.989,0,1.92,0.382,2.627,1.076
		c0.012,0.01,0.023,0.021,0.034,0.032c0.005,0.006,0.011,0.012,0.016,0.018C23.622,5.09,24,6.017,24,7v12.84
		c0,0.33-0.116,0.651-0.328,0.904c-0.269,0.322-0.663,0.506-1.083,0.506c-0.329,0-0.65-0.116-0.903-0.327l-3.208-2.673H5.521
		l-3.208,2.673C2.06,21.134,1.739,21.25,1.409,21.25C1.41,21.25,1.409,21.25,1.409,21.25z M1.721,6.032C1.576,6.333,1.5,6.661,1.5,7
		v12.648l3-2.5V8.811L1.721,6.032z M22.5,19.648V7c0-0.339-0.076-0.667-0.221-0.968L19.5,8.811v8.338L22.5,19.648z M18,16.75v-1.5
		h-3v1.5H18z M13.5,16.75v-1.5h-3v1.5H13.5z M9,16.75v-1.5H6v1.5H9z M18,13.75v-1.5h-3v1.5H18z M13.5,13.75v-1.5h-3v1.5H13.5z
		 M9,13.75v-1.5H6v1.5H9z M18,10.75v-1.5h-3v1.5H18z M13.5,10.75v-1.5h-3v1.5H13.5z M9,10.75v-1.5H6v1.5H9z M18.439,7.75
		l2.779-2.779C20.917,4.826,20.589,4.75,20.25,4.75H3.75c-0.339,0-0.667,0.076-0.968,0.221L5.561,7.75H18.439z"/>
</g>
</svg>
