<svg id="Outline_Version" data-name="Outline Version" xmlns="http://www.w3.org/2000/svg" viewBox="0 0 24 24"><title>social-video-viddler</title><path d="M18,1.91a6.38,6.38,0,0,0-5.41,3,5.68,5.68,0,0,0-5.09-3,6,6,0,0,0-6,5.93,5.9,5.9,0,0,0,5.29,5.89v.92L.92,13.24A.75.75,0,0,0,0,14v6.24a.75.75,0,0,0,.94.73l5.91-1.54v1.95a.75.75,0,0,0,.75.75h9.31a.75.75,0,0,0,.7-1l-2.71-7.32H18A5.93,5.93,0,1,0,18,1.91Zm0,10.36h-4.2a.75.75,0,0,0-.7,1l2.71,7.32H8.35V18.42a.75.75,0,0,0-.94-.73L1.5,19.24V14.92l5.93,1.39a.75.75,0,0,0,.92-.73V13a.75.75,0,0,0-.75-.75,4.43,4.43,0,1,1-.07-8.86c3.56,0,4.34,3.66,4.37,3.81a.78.78,0,0,0,.75.61.75.75,0,0,0,.73-.64A4.68,4.68,0,0,1,18,3.41a4.43,4.43,0,1,1,0,8.86Z"/><path d="M7.53,5.85a2,2,0,1,0,2,2A2,2,0,0,0,7.53,5.85Zm0,2.48A.49.49,0,1,1,8,7.84.5.5,0,0,1,7.53,8.33Z"/><path d="M18.13,5.85a2,2,0,1,0,2,2A2,2,0,0,0,18.13,5.85Zm0,2.48a.49.49,0,1,1,.5-.49A.5.5,0,0,1,18.13,8.33Z"/></svg>