<svg id="Outline_Version" data-name="Outline Version" xmlns="http://www.w3.org/2000/svg" viewBox="0 0 24 24"><title>social-media-vk</title><path d="M.25,5.92A1.38,1.38,0,0,0,.13,7.28c.1.24,2.6,5.85,5.51,8.87a7.76,7.76,0,0,0,6.12,2.58h.11c1.91,0,2.14,0,2.4-.31a2.25,2.25,0,0,0,.46-1.52c0-.55.07-.7.15-.76a6.08,6.08,0,0,1,1,1,8.2,8.2,0,0,0,1.44,1.42,3.17,3.17,0,0,0,1.78.61h.19l3,0a2,2,0,0,0,1.58-.87,1.56,1.56,0,0,0-.16-1.6,12.41,12.41,0,0,0-2.41-2.78,5.62,5.62,0,0,1-1-1,6.53,6.53,0,0,1,1-1.42l.78-1c2-2.66,2.08-3.57,1.87-4.15A1.69,1.69,0,0,0,22,5.43l-3.34,0a1.49,1.49,0,0,0-.86.18,1.67,1.67,0,0,0-.61.74,18.73,18.73,0,0,1-2.57,4.56,10.62,10.62,0,0,1,0-1.88c.11-1.63.24-3.65-1.34-4a6.52,6.52,0,0,0-1.75-.18,7.57,7.57,0,0,0-3.15.36c-.44.22-1.06.77-1,1.38a.86.86,0,0,0,.7.67.87.87,0,0,1,.48.18A8.73,8.73,0,0,1,8.76,11a17.79,17.79,0,0,1-2.57-4.5,1.71,1.71,0,0,0-.53-.7,2.15,2.15,0,0,0-.83-.34H4.69l-3.23,0A1.69,1.69,0,0,0,.25,5.92Zm4.37,1A.39.39,0,0,1,4.8,7s2,4.91,3.7,5.52a1.2,1.2,0,0,0,1-.06,1.73,1.73,0,0,0,.73-1.21c.27-1.22.22-3.93-.35-4.71L9.72,6.4a15.18,15.18,0,0,1,1.84-.06A5.09,5.09,0,0,1,13,6.48c.35.08.24,1.76.19,2.47-.1,1.49-.19,2.89.74,3.49a1.11,1.11,0,0,0,1,.11c1.56-.52,3.49-5,3.74-5.6h0l3.47,0a1.84,1.84,0,0,1,.33,0,10.35,10.35,0,0,1-1.6,2.6l-.76,1c-1.67,2.15-1.79,2.63.21,4.49a11.13,11.13,0,0,1,2.1,2.42l.07.13a1.08,1.08,0,0,1-.26.07l-3.1,0a1.57,1.57,0,0,1-1-.34A7.25,7.25,0,0,1,17,16.15c-.65-.75-1.32-1.53-2.12-1.53a1.27,1.27,0,0,0-.39.06,2,2,0,0,0-1.26,2.15c0,.12,0,.27,0,.4-.23,0-.63,0-1.31,0h-.22a6.29,6.29,0,0,1-4.95-2.12c-2.38-2.47-4.56-7-5.09-8.19Z"/></svg>