<svg id="Outline_Version" data-name="Outline Version" xmlns="http://www.w3.org/2000/svg" viewBox="0 0 24 24"><title>social-media-retweet</title><path d="M5.37,20H15.75a.75.75,0,0,0,.55-1.26l-3-3.25a.75.75,0,0,0-.55-.24H7.5v-4.5H8.75a.75.75,0,0,0,.57-1.23l-4-4.75a.77.77,0,0,0-1.15,0l-4,4.75a.75.75,0,0,0,.57,1.23H2V17A3.36,3.36,0,0,0,5.37,20ZM4.75,6.41,7.14,9.25H6.75A.75.75,0,0,0,6,10v6a.75.75,0,0,0,.75.75h5.68L14,18.5H5.37c-.85,0-1.87-.69-1.87-1.55V10a.75.75,0,0,0-.75-.75H2.36Z"/><path d="M19.25,19.5a.75.75,0,0,0,.57-.27l4-4.75a.75.75,0,0,0-.57-1.23H22v-6A3.54,3.54,0,0,0,18.63,4H8.25A.75.75,0,0,0,7.7,5.26l3,3.25a.75.75,0,0,0,.55.24H16.5v4.5H15.25a.75.75,0,0,0-.57,1.23l4,4.75A.75.75,0,0,0,19.25,19.5Zm-2-12.25H11.57L10,5.5h8.67A2,2,0,0,1,20.5,7.25V14a.75.75,0,0,0,.75.75h.39l-2.39,2.84-2.39-2.84h.39A.75.75,0,0,0,18,14V8A.75.75,0,0,0,17.25,7.25Z"/></svg>