<svg id="Outline_Version" data-name="Outline Version" xmlns="http://www.w3.org/2000/svg" viewBox="0 0 24 24"><title>social-media-formspring</title><path d="M14.67,14a10.34,10.34,0,0,0,3.93-.75A.75.75,0,0,0,18,11.89a8.83,8.83,0,0,1-3.35.64c-2.42,0-4.67-.94-5.71-2.38A.75.75,0,1,0,7.74,11C9.08,12.87,11.74,14,14.67,14Z"/><path d="M21.8,8.86A.75.75,0,0,0,22.44,8C22.06,5.14,18.72,3,14.67,3a9.89,9.89,0,0,0-5,1.3.75.75,0,1,0,.77,1.29,8.38,8.38,0,0,1,4.25-1.08c3.25,0,6,1.65,6.29,3.76a.75.75,0,0,0,.74.65Z"/><path d="M12.12,2.6a6.51,6.51,0,0,1,3.72-1.08A6.51,6.51,0,0,1,19.55,2.6a.75.75,0,1,0,.87-1.22A7.92,7.92,0,0,0,15.83,0a7.92,7.92,0,0,0-4.59,1.36.75.75,0,1,0,.87,1.22Z"/><path d="M21.41,17.45a.75.75,0,1,0-1.34-.68,6.09,6.09,0,0,1-1.89,2.12.75.75,0,0,0-.22,1l1.11,2-3.61-1.24a.75.75,0,0,0-.52,0,9.53,9.53,0,0,1-8.8-.87A6.44,6.44,0,0,1,3,14.54C3,11,7.15,7.84,11.83,7.84c3.29,0,8.15,1.44,8.15,4.52,0,2.3-3.1,4.24-6.76,4.24s-6.76-1.94-6.76-4.24a.75.75,0,0,0-1.5,0c0,3.16,3.71,5.74,8.26,5.74s8.26-2.57,8.26-5.74c0-4.15-5.65-6-9.65-6-5.57,0-10.28,3.75-10.28,8.19A7.91,7.91,0,0,0,5.3,21a11,11,0,0,0,9.94,1.12l5.18,1.77a.75.75,0,0,0,.9-1.07L19.59,19.7A7.3,7.3,0,0,0,21.41,17.45Z"/></svg>