<svg id="Outline_Version" data-name="Outline Version" xmlns="http://www.w3.org/2000/svg" viewBox="0 0 24 24"><title>social-media-gowalla-1</title><path d="M22,14.34l-.65.21c-.45.14-1,.31-2.08.73s-1.21.46-2.35-.27l-.6-.39c-.32-.21-.69-.46-1.1-.71C14.67,8.5,10.05,6.8,7.76,6.29c.3-2.22.13-3.74-.51-4.63A2.13,2.13,0,0,0,5.81.77a1.86,1.86,0,0,0-2,1.08,3.15,3.15,0,0,0-.2.48A2,2,0,0,0,.94,2.6,1.9,1.9,0,0,0,.75,5.08,12,12,0,0,0,2.82,7.51a16,16,0,0,0-2,1.8,2.72,2.72,0,0,0-.43,3.27,2,2,0,0,0,2.45.72,6,6,0,0,0,2.63-2.23c0,.78-.49,1.3-1.27,2L4,13.27c-.5.42-1.85,1.53-1,3.07a.75.75,0,0,0,1.32-.71c-.19-.36,0-.63.65-1.21l.26-.22c1.4-1.32,2.46-2.64,1.13-5.33a.72.72,0,0,0-.7-.42A.75.75,0,0,0,5,8.91c-.35.84-1.49,2.57-2.65,3-.51.18-.65-.05-.7-.12a1.24,1.24,0,0,1,.27-1.43A15.91,15.91,0,0,1,4.48,8.17a.75.75,0,0,0,0-1.26A10,10,0,0,1,2,4.2.44.44,0,0,1,2,3.62c.12-.13.39-.3.82,0,.21.15.39.29.53.41A2,2,0,0,0,3.8,5.29a1,1,0,0,0,1.09.23,1,1,0,0,0,.56-.79A1.79,1.79,0,0,0,4.9,3.42a2.16,2.16,0,0,1,.33-1c.14-.18.23-.18.34-.17A.65.65,0,0,1,6,2.54c.26.36.61,1.38.14,4.23a.74.74,0,0,0,0,.12.84.84,0,0,0,.71.76c1.42.23,5.62,1.27,6.65,5.38-1.5-.65-3.14-.9-4.36.29a4.13,4.13,0,0,0-.93,4.6,5.51,5.51,0,0,0-.82.17,3,3,0,0,1-.79-1.54,7.58,7.58,0,0,1-.06-.91.75.75,0,0,0-.74-.76h0a.75.75,0,0,0-.75.74,9.3,9.3,0,0,0,.06,1.09,4.21,4.21,0,0,0,.83,2,5.21,5.21,0,0,0-1.19.91,2.23,2.23,0,0,0-.68,2.23A1.9,1.9,0,0,0,5.24,23a3.61,3.61,0,0,0,1.37.23,11.59,11.59,0,0,0,4.87-1.39,4.25,4.25,0,0,0,.93-.64c6.06-.6,9.27-2.86,10.68-4.2,1.1-1.05,1-1.79.75-2.22A1.54,1.54,0,0,0,22,14.34ZM5.81,21.63c-.2-.08-.25-.18-.28-.26-.08-.26.21-.6.34-.74A3.92,3.92,0,0,1,7,19.82,6.69,6.69,0,0,0,9.52,21.1,6.17,6.17,0,0,1,5.81,21.63Zm6.28-5a.74.74,0,0,0-.66.45.78.78,0,0,0,.12.82,2.06,2.06,0,0,1,.33,1.44,1.37,1.37,0,0,1-.19.48l-.45,0a4.56,4.56,0,0,1-1.88-.35.75.75,0,0,0,.76-1.17c-.16-.23-1.55-2.28.1-3.9.81-.79,2.24-.29,3.53.42,0,.1,0,.2,0,.3C13.75,15.83,12.37,16.54,12.09,16.6Zm10-.67c-1.18,1.13-3.8,3-8.7,3.67l0-.13a3.4,3.4,0,0,0-.2-1.71,3.73,3.73,0,0,0,2-2.09l.3.2.62.4c1.51,1,1.93,1.09,3.7.4,1-.4,1.56-.56,2-.69l.31-.1Z"/></svg>