<svg id="Outline_Version" data-name="Outline Version" xmlns="http://www.w3.org/2000/svg" viewBox="0 0 24 24"><title>social-smug-mug</title><path d="M1.51,19.9c.89,1.53,2.77,3.35,6.66,3.35,13.27,0,15.4-14.52,15.42-14.66a.75.75,0,0,0-.74-.85h-20a.75.75,0,0,0-.65.38C.42,11.31-.45,16.52,1.51,19.9ZM3.34,9.24h18.6c-.66,2.95-3.59,12.51-13.77,12.51-2.55,0-4.36-.88-5.36-2.61C1.26,16.48,1.85,12.12,3.34,9.24Z"/><path d="M14.2,3c0,1.28,1.37,2.29,3.12,2.29s3.12-1,3.12-2.29S19.07.75,17.32.75,14.2,1.76,14.2,3Zm4.74,0c0,.31-.65.79-1.62.79S15.7,3.35,15.7,3s.65-.79,1.62-.79S18.94,2.73,18.94,3Z"/><path d="M3.23,3c0,1.28,1.37,2.29,3.12,2.29S9.47,4.32,9.47,3,8.1.75,6.35.75,3.23,1.76,3.23,3ZM8,3c0,.31-.65.79-1.62.79S4.73,3.35,4.73,3s.65-.79,1.62-.79S8,2.73,8,3Z"/></svg>