<svg id="Outline_Version" data-name="Outline Version" xmlns="http://www.w3.org/2000/svg" viewBox="0 0 24 24"><title>social-music-grooveshark</title><path d="M12,24A12,12,0,1,0,0,12,12,12,0,0,0,12,24Zm0-1.5A10.51,10.51,0,0,1,1.88,14.77a3.52,3.52,0,0,0,.45.17,6,6,0,0,0,5.82-2.07,7,7,0,0,0,.93-7.3c1.83-.47,3.07,1.13,5,3.83s4.05,5.77,7.79,6.22A10.51,10.51,0,0,1,12,22.5Zm0-21A10.5,10.5,0,0,1,22.27,14.16c-3.23-.25-5.14-3-7-5.62-2-2.83-4-5.76-7.52-4.06a.75.75,0,0,0-.35,1C9,8.82,7.84,10.93,7,11.89a4.47,4.47,0,0,1-4.25,1.61A1.74,1.74,0,0,1,1.5,11.94,10.51,10.51,0,0,1,12,1.5Z"/></svg>