<svg id="Outline_Version" data-name="Outline Version" xmlns="http://www.w3.org/2000/svg" viewBox="0 0 24 24"><title>social-media-renren</title><path d="M22.84,19.58a.75.75,0,0,0-.34-.48C15.06,14.52,15.06,8.54,15.06,1a.75.75,0,0,0-.61-.74,13,13,0,0,0-4.89,0A.75.75,0,0,0,8.94,1c0,7.57,0,13.54-7.44,18.13a.75.75,0,0,0-.23,1.06,12.94,12.94,0,0,0,3.86,3.73.75.75,0,0,0,.79,0A17.46,17.46,0,0,0,12,17.6a17.55,17.55,0,0,0,6.08,6.28.75.75,0,0,0,.79,0,12.94,12.94,0,0,0,3.86-3.73A.75.75,0,0,0,22.84,19.58Zm-4.38,2.78a17.17,17.17,0,0,1-5.81-6.62.75.75,0,0,0-.66-.39h0a.75.75,0,0,0-.66.39,17.05,17.05,0,0,1-5.8,6.62A11.47,11.47,0,0,1,3,19.94c7.26-4.83,7.47-11.11,7.48-18.33a11.39,11.39,0,0,1,3.11,0c0,7.23.21,13.51,7.48,18.33A11.45,11.45,0,0,1,18.46,22.36Z"/></svg>