<svg id="Outline_Version" data-name="Outline Version" xmlns="http://www.w3.org/2000/svg" viewBox="0 0 24 24"><title>social-media-foursquare-1</title><path d="M5.27,24a1.28,1.28,0,0,0,1.07-.6l5.24-9.18h4.17a1.72,1.72,0,0,0,1.68-1.34h0L19.92,2.12A1.73,1.73,0,0,0,18.23,0H5.77A1.73,1.73,0,0,0,4,1.73v21a1.25,1.25,0,0,0,.89,1.19A1.22,1.22,0,0,0,5.27,24ZM5.54,1.73a.23.23,0,0,1,.23-.23H18.23a.23.23,0,0,1,.22.28L17.29,6.85H12.61a.75.75,0,0,0,0,1.5h4.32l-1,4.19a.23.23,0,0,1-.22.18h-4.6a.75.75,0,0,0-.65.38l-5,8.68Z"/></svg>