<svg id="Outline_Version" data-name="Outline Version" xmlns="http://www.w3.org/2000/svg" viewBox="0 0 24 24"><title>social-music-spotify</title><path d="M20.4,5.27a.75.75,0,0,0,.37-1.4,18,18,0,0,0-17.53,0A.75.75,0,1,0,4,5.16a16.5,16.5,0,0,1,16,0A.75.75,0,0,0,20.4,5.27Z"/><path d="M6.76,9.73a.75.75,0,0,0,1,1.12,6.53,6.53,0,0,1,8.49,0,.75.75,0,0,0,1-1.12A8.06,8.06,0,0,0,6.76,9.73Z"/><path d="M18.73,8.2a.75.75,0,0,0,.42-1.37A13.08,13.08,0,0,0,5,6.73.75.75,0,0,0,5.82,8a11.54,11.54,0,0,1,12.49.09A.74.74,0,0,0,18.73,8.2Z"/><path d="M22.5,22.14a.75.75,0,0,0,.19-.58,10.75,10.75,0,0,0-21.39,0,.75.75,0,0,0,.75.83h0l4.82,0a.75.75,0,0,0,.73-.6A4.5,4.5,0,0,1,12,18.22a4.93,4.93,0,0,1,4.4,3.6.75.75,0,0,0,.73.57h4.82A.75.75,0,0,0,22.5,22.14Zm-4.83-1.25A6.44,6.44,0,0,0,12,16.72,6,6,0,0,0,6.29,20.9H2.92a9.26,9.26,0,0,1,18.16,0Z"/></svg>