<svg id="Outline_Version" data-name="Outline Version" xmlns="http://www.w3.org/2000/svg" viewBox="0 0 24 24"><title>social-media-plurk-1</title><path d="M12.51,0A9.45,9.45,0,0,0,3.07,9.44V20.69a3.31,3.31,0,0,0,6.61,0V16.84h2.83A8.42,8.42,0,1,0,12.51,0Zm0,15.34H8.93a.75.75,0,0,0-.75.75v4.6a1.81,1.81,0,0,1-3.61,0V9.44A8,8,0,0,1,12.51,1.5a6.92,6.92,0,1,1,0,13.84Z"/><path d="M12.51,5.11A4.33,4.33,0,0,0,8.18,9.44V11a.75.75,0,0,0,.75.75h3.58a3.31,3.31,0,1,0,0-6.61Zm0,5.11H9.68V9.44a2.83,2.83,0,0,1,2.83-2.83,1.81,1.81,0,1,1,0,3.61Z"/></svg>