<svg id="Outline_Version" data-name="Outline Version" xmlns="http://www.w3.org/2000/svg" viewBox="0 0 24 24"><title>social-video-meta-cafe</title><path d="M24,16.4h0L18.57.77a.75.75,0,0,0-1.42,0L13.28,12.66H.75A.75.75,0,0,0,.32,14l13.82,9.51.05.05a.75.75,0,0,0,.88,0l2.85-2.06,2.85,2.06a.75.75,0,0,0,1.15-.84L20.84,19.4l2.86-2.16,0,0,.06-.06A.74.74,0,0,0,23.9,17l0-.08a.74.74,0,0,0,0-.18.72.72,0,0,0,0-.08.74.74,0,0,0,0-.26ZM13.82,14.16a.75.75,0,0,0,.71-.52L17.88,3.38,22.2,15.89H19.72l-1.09-3.24a.75.75,0,0,0-1.42,0l-1.09,3.24H12.6a.75.75,0,0,0-.45,1.35L15,19.4l-.77,2.38L3.16,14.16Zm5.69,4.37a.75.75,0,0,0-.26.83L19.79,21l-1.42-1a.75.75,0,0,0-.88,0l-1.42,1,.54-1.67a.75.75,0,0,0-.26-.83l-1.5-1.13h1.83a.75.75,0,0,0,.71-.51l.55-1.63.55,1.63a.75.75,0,0,0,.71.51H21Z"/></svg>