<svg id="Outline_Version" data-name="Outline Version" xmlns="http://www.w3.org/2000/svg" viewBox="0 0 24 24"><title>social-music-beats-studio</title><path d="M15.24,12A3.25,3.25,0,1,0,12,15.25,3.25,3.25,0,0,0,15.24,12Zm-5,0A1.75,1.75,0,1,1,12,13.75,1.75,1.75,0,0,1,10.24,12Z"/><path d="M12,24A12,12,0,0,0,12,0,12.37,12.37,0,0,0,9.26.31.75.75,0,0,0,8.68,1V7a.75.75,0,0,0,1.08.67A5.05,5.05,0,0,1,12,7.13a4.87,4.87,0,0,1,0,9.75A4.65,4.65,0,0,1,7.36,12V2.26a.75.75,0,0,0-1.13-.65A12.19,12.19,0,0,0,0,12,12,12,0,0,0,12,24ZM5.86,3.65V12A6.19,6.19,0,0,0,12,18.37,6.37,6.37,0,0,0,12,5.63a6.47,6.47,0,0,0-1.81.26V1.65A10.82,10.82,0,0,1,12,1.5,10.5,10.5,0,1,1,1.5,12,10.54,10.54,0,0,1,5.86,3.65Z"/></svg>