<?xml version="1.0" encoding="utf-8"?>
<!-- Generator: Adobe Illustrator 22.1.0, SVG Export Plug-In . SVG Version: 6.00 Build 0)  -->
<svg version="1.1" id="Regular" xmlns="http://www.w3.org/2000/svg" xmlns:xlink="http://www.w3.org/1999/xlink" x="0px" y="0px"
	 viewBox="0 0 24 24" style="enable-background:new 0 0 24 24;" xml:space="preserve">
<title>soft-drinks-juice</title>
<g>
	<path d="M8.25,24C7.009,24,6,22.991,6,21.75v-7.264c0-0.075,0.003-0.15,0.005-0.225c0-0.004,0-0.036,0.002-0.049
		c0.067-1.701,0.768-3.3,1.974-4.504l0.8-0.8C8.922,8.767,9,8.579,9,8.379V1.5C9,0.673,9.673,0,10.5,0h3
		c0.829,0,1.504,0.673,1.504,1.5v6.883c0,0.2,0.078,0.388,0.219,0.529l0.8,0.8c1.204,1.204,1.904,2.803,1.97,4.503
		c0.001,0.012,0.002,0.024,0.002,0.035c0,0.005,0,0.01,0,0.016C17.998,14.342,18,14.414,18,14.486v7.264
		c0,1.241-1.009,2.25-2.25,2.25H8.25z M7.5,21.75c0,0.414,0.336,0.75,0.75,0.75h7.5c0.414,0,0.75-0.336,0.75-0.75V19.5h-9V21.75z
		 M16.5,18v-3h-9v3H16.5z M16.406,13.5c-0.193-1.035-0.688-1.971-1.444-2.727l-0.8-0.8c-0.425-0.424-0.659-0.989-0.659-1.59V4.5
		H10.5v3.879c0,0.601-0.234,1.165-0.658,1.59l-0.8,0.8c-0.758,0.757-1.254,1.694-1.448,2.731H16.406z M13.504,3V1.5H10.5l0,1.5
		H13.504z"/>
</g>
</svg>
