<?xml version="1.0" encoding="utf-8"?>
<!-- Generator: Adobe Illustrator 22.1.0, SVG Export Plug-In . SVG Version: 6.00 Build 0)  -->
<svg version="1.1" id="Regular" xmlns="http://www.w3.org/2000/svg" xmlns:xlink="http://www.w3.org/1999/xlink" x="0px" y="0px"
	 viewBox="0 0 24 24" style="enable-background:new 0 0 24 24;" xml:space="preserve">
<title>soft-drinks-glass</title>
<g>
	<circle cx="13.908" cy="2.625" r="1.125"/>
	<circle cx="16.908" cy="12.375" r="1.125"/>
	<circle cx="14.658" cy="15.375" r="1.125"/>
	<circle cx="16.158" cy="19.125" r="1.125"/>
	<circle cx="19.533" cy="1.125" r="1.125"/>
	<path d="M9.663,24c-1.166,0-2.151-0.906-2.247-2.062L6.103,6.124C6.071,5.722,6.197,5.333,6.457,5.028
		c0.26-0.306,0.624-0.491,1.024-0.523C7.52,4.502,7.56,4.5,7.6,4.5h1.172L8.66,3.829c-0.162-0.974-0.96-1.74-1.94-1.862L2.94,1.494
		C2.741,1.469,2.564,1.369,2.441,1.21S2.264,0.856,2.288,0.657C2.335,0.283,2.656,0,3.034,0c0.03,0,0.06,0.002,0.091,0.005
		l3.781,0.473c1.633,0.204,2.963,1.48,3.234,3.104L10.292,4.5h9.927c0.401,0,0.778,0.156,1.061,0.44
		c0.283,0.284,0.439,0.661,0.438,1.061c0,0.04-0.002,0.081-0.005,0.122l-1.32,15.815C20.297,23.094,19.313,24,18.153,24H9.663z
		 M8.91,21.813C8.942,22.198,9.271,22.5,9.657,22.5h8.495c0.386,0,0.714-0.302,0.746-0.688L19.843,10.5h-8.551l1.48,8.876
		c0.033,0.198-0.013,0.396-0.129,0.559c-0.116,0.163-0.29,0.271-0.487,0.304c-0.042,0.007-0.083,0.01-0.124,0.01
		c-0.368,0-0.679-0.264-0.739-0.627L9.772,10.5H7.971L8.91,21.813z M19.969,9l0.25-3l-9.677,0l0.5,3H19.969z M9.522,9l-0.5-3H7.607
		L7.586,6.001L7.846,9H9.522z"/>
</g>
</svg>
