<?xml version="1.0" encoding="utf-8"?>
<!-- Generator: Adobe Illustrator 22.1.0, SVG Export Plug-In . SVG Version: 6.00 Build 0)  -->
<svg version="1.1" id="Regular" xmlns="http://www.w3.org/2000/svg" xmlns:xlink="http://www.w3.org/1999/xlink" x="0px" y="0px"
	 viewBox="0 0 24 24" style="enable-background:new 0 0 24 24;" xml:space="preserve">
<title>soft-drinks-coconut</title>
<g>
	<path d="M12.024,23.988c-0.928,0-1.861-0.109-2.775-0.324C3.84,22.389,0.041,17.62,0.004,12.062C0,12.019,0,11.975,0.004,11.933
		c0.004-0.915,0.111-1.824,0.318-2.702c0.245-1.018,1.144-1.728,2.189-1.728h11.232l2.061-5.143
		c0.572-1.429,1.936-2.355,3.476-2.357h3.97c0.414,0,0.75,0.336,0.75,0.75s-0.336,0.75-0.75,0.75h-3.969
		c-0.923,0.001-1.742,0.557-2.085,1.415l-1.838,4.585h6.13c1.05,0,1.949,0.709,2.192,1.725c0.213,0.906,0.32,1.841,0.318,2.782
		c0,0.004,0,0.009,0,0.013c-0.003,0.92-0.11,1.832-0.318,2.712c-0.735,3.12-2.642,5.767-5.367,7.453
		C16.412,23.366,14.237,23.988,12.024,23.988L12.024,23.988z M1.604,13.438c0.601,4.23,3.793,7.776,7.99,8.765
		c0.8,0.188,1.617,0.284,2.429,0.284c1.935,0,3.838-0.544,5.503-1.574c2.385-1.476,4.053-3.792,4.697-6.521
		c0.072-0.307,0.131-0.623,0.175-0.945c-1.152,0.719-2.775,1.575-4.602,1.575c-1.339,0-2.633-0.461-3.845-1.37
		c-0.555-0.416-1.248-0.645-1.95-0.645c-0.703,0-1.395,0.229-1.95,0.645c-1.211,0.908-2.498,1.368-3.826,1.368
		C4.418,15.021,2.774,14.159,1.604,13.438z M1.58,11.645c1.368,0.885,2.92,1.888,4.621,1.888c1.016,0,1.981-0.353,2.949-1.079
		c0.812-0.609,1.824-0.944,2.85-0.944c1.026,0,2.038,0.335,2.85,0.944c0.956,0.717,1.923,1.065,2.956,1.065
		c1.762,0,3.375-1.058,4.553-1.83l0.131-0.085c-0.024-0.695-0.115-1.376-0.268-2.027c-0.081-0.336-0.38-0.572-0.729-0.572H2.511
		c-0.348,0-0.648,0.236-0.73,0.575C1.626,10.236,1.535,10.915,1.51,11.6L1.58,11.645z"/>
</g>
</svg>
