<?xml version="1.0" encoding="utf-8"?>
<!-- Generator: Adobe Illustrator 22.1.0, SVG Export Plug-In . SVG Version: 6.00 Build 0)  -->
<svg version="1.1" id="Layer_1" xmlns="http://www.w3.org/2000/svg" xmlns:xlink="http://www.w3.org/1999/xlink" x="0px" y="0px"
	 viewBox="0 0 24 24" style="enable-background:new 0 0 24 24;" xml:space="preserve">
<title>spa-flame</title>
<g>
	<path d="M16.042,23.628c-0.074,0-0.149-0.003-0.225-0.009c-0.757-0.059-1.446-0.409-1.939-0.986
		c-0.494-0.577-0.733-1.311-0.674-2.068c0.025-0.319,0.103-0.631,0.23-0.922c-0.076-0.038-0.15-0.079-0.222-0.124
		c-0.648-0.4-1.1-1.029-1.275-1.77c-0.175-0.741-0.051-1.505,0.35-2.153c0.4-0.647,1.028-1.1,1.769-1.275
		c0.216-0.051,0.438-0.077,0.659-0.077c0.139,0,0.277,0.01,0.414,0.031c0.325-1.236,1.445-2.124,2.755-2.124
		c1.315,0,2.437,0.89,2.758,2.129c0.134-0.019,0.27-0.029,0.406-0.029c0.771,0.004,1.482,0.303,2.015,0.842
		c0.533,0.539,0.825,1.253,0.821,2.012c-0.003,1.087-0.612,2.057-1.553,2.533c0.593,1.344,0.058,2.945-1.258,3.651
		c-0.411,0.22-0.875,0.337-1.339,0.337c-0.682,0-1.337-0.244-1.849-0.679C17.37,23.386,16.715,23.628,16.042,23.628z M14.713,15.744
		c-0.104,0-0.209,0.012-0.313,0.037c-0.351,0.083-0.648,0.297-0.838,0.604c-0.19,0.307-0.249,0.669-0.166,1.02
		c0.083,0.351,0.297,0.649,0.604,0.839c0.207,0.128,0.445,0.198,0.689,0.201c0.31,0.005,0.589,0.204,0.694,0.495
		c0.105,0.292,0.018,0.623-0.219,0.825c-0.272,0.233-0.438,0.558-0.466,0.916c-0.028,0.358,0.085,0.705,0.319,0.977
		c0.255,0.298,0.627,0.469,1.022,0.469c0.32,0,0.629-0.114,0.872-0.322c0.127-0.109,0.232-0.239,0.311-0.387
		c0.131-0.244,0.384-0.396,0.661-0.396c0.277,0,0.53,0.151,0.661,0.395c0.17,0.316,0.452,0.548,0.796,0.651
		c0.128,0.039,0.259,0.058,0.39,0.058c0.221,0,0.434-0.054,0.632-0.16c0.316-0.17,0.547-0.452,0.651-0.795
		c0.104-0.344,0.067-0.707-0.102-1.023c-0.079-0.147-0.183-0.276-0.309-0.385c-0.237-0.204-0.323-0.525-0.219-0.82
		c0.104-0.291,0.379-0.491,0.687-0.499c0.734-0.02,1.311-0.612,1.313-1.346c0.002-0.36-0.135-0.697-0.387-0.951
		c-0.251-0.254-0.587-0.395-0.945-0.397c0,0-0.001,0-0.001,0c-0.259,0-0.496,0.068-0.706,0.198
		c-0.118,0.072-0.253,0.111-0.392,0.111c-0.151,0-0.297-0.045-0.422-0.13c-0.244-0.166-0.368-0.46-0.316-0.751
		c0.011-0.065,0.018-0.131,0.019-0.195c0-0.731-0.605-1.332-1.35-1.332s-1.35,0.605-1.35,1.35c0.002,0.049,0.009,0.116,0.019,0.177
		c0.052,0.291-0.073,0.586-0.317,0.751c-0.125,0.085-0.27,0.129-0.421,0.129c-0.139,0-0.275-0.039-0.394-0.112
		C15.205,15.814,14.961,15.744,14.713,15.744z"/>
	<circle cx="17.883" cy="18.15" r="1.125"/>
	<path d="M8.865,11.625c-2.371-0.001-4.3-1.928-4.301-4.296C4.467,5.866,5.258,4.439,6.579,3.717c0.111-0.06,0.235-0.092,0.36-0.092
		c0.115,0,0.231,0.027,0.334,0.078c0.221,0.11,0.373,0.321,0.408,0.563C7.709,4.46,7.824,4.624,7.984,4.72
		c0.391-1.051,0.194-2.243-0.535-3.113C7.238,1.355,7.214,1.001,7.39,0.724c0.138-0.218,0.375-0.349,0.633-0.349
		c0.064,0,0.128,0.008,0.19,0.025c3.128,0.817,5.205,3.746,4.942,6.967c-0.045,2.357-1.925,4.227-4.284,4.259
		C8.869,11.625,8.867,11.625,8.865,11.625z M6.666,5.535C6.242,6.009,6.021,6.637,6.063,7.28c0.002,1.579,1.257,2.844,2.798,2.845
		c1.544-0.021,2.774-1.254,2.795-2.806c0-0.018,0.001-0.035,0.003-0.052c0.154-1.8-0.659-3.539-2.076-4.584
		c0.227,1.1,0.052,2.259-0.514,3.247C8.944,6.146,8.723,6.286,8.475,6.305C8.42,6.309,8.366,6.311,8.312,6.311
		C7.674,6.311,7.068,6.017,6.666,5.535z"/>
	<path d="M8.313,22.129c-1.317,0-2.637-0.327-3.819-0.945c-1.954-1.022-3.394-2.745-4.053-4.85c-0.153-0.49-0.261-0.997-0.321-1.508
		c-0.053-0.388,0.052-0.783,0.296-1.104c0.244-0.322,0.599-0.529,0.999-0.583c0.058-0.008,0.121-0.013,0.184-0.014h9.536
		c0.414,0,0.75,0.336,0.75,0.75s-0.336,0.75-0.75,0.75H1.61c0.049,0.442,0.137,0.86,0.263,1.26c0.539,1.723,1.717,3.132,3.316,3.969
		c0.968,0.506,2.048,0.774,3.125,0.774c0.684,0,1.366-0.105,2.027-0.312c0.073-0.023,0.148-0.034,0.224-0.034
		c0.329,0,0.617,0.211,0.715,0.526c0.124,0.395-0.097,0.816-0.491,0.94C9.982,22.001,9.148,22.129,8.313,22.129z"/>
</g>
</svg>
