<?xml version="1.0" encoding="utf-8"?>
<!-- Generator: Adobe Illustrator 22.1.0, SVG Export Plug-In . SVG Version: 6.00 Build 0)  -->
<svg version="1.1" id="Layer_1" xmlns="http://www.w3.org/2000/svg" xmlns:xlink="http://www.w3.org/1999/xlink" x="0px" y="0px"
	 viewBox="0 0 24 24" style="enable-background:new 0 0 24 24;" xml:space="preserve">
<title>spa-lotus-1</title>
<g>
	<path d="M11.158,14.429c-2.25,0-4.4-0.84-6.054-2.365c-0.01-0.009-0.022-0.021-0.034-0.034c-1.572-1.661-2.435-3.922-2.368-6.205
		C2.706,5.016,3.379,4.352,4.2,4.352l0.104-0.001c1.503,0,2.984,0.371,4.313,1.078c0.434-1.493,1.249-2.829,2.374-3.889
		c0.269-0.264,0.636-0.412,1.027-0.412c0.393,0,0.763,0.15,1.042,0.423c1.099,1.036,1.928,2.398,2.363,3.873
		c1.334-0.703,2.821-1.073,4.329-1.073l0.055,0c0.818,0.001,1.488,0.669,1.492,1.49c0.065,2.268-0.799,4.525-2.37,6.183
		c-1.67,1.554-3.815,2.4-6.058,2.4c-0.269,0-0.549-0.014-0.833-0.041C11.744,14.414,11.448,14.429,11.158,14.429z M6.139,10.978
		c1.136,1.04,2.554,1.694,4.065,1.889C9.02,11.39,8.34,9.573,8.27,7.661c0.006-0.233,0.02-0.456,0.043-0.677
		C7.098,6.242,5.716,5.852,4.301,5.852L4.209,5.852C4.146,7.744,4.852,9.609,6.139,10.978z M15.727,6.976
		c0.022,0.214,0.036,0.428,0.042,0.637c-0.07,1.943-0.749,3.769-1.931,5.248c1.503-0.198,2.911-0.857,4.035-1.901
		c1.271-1.343,1.978-3.205,1.925-5.092l-0.025-0.015C18.341,5.852,16.948,6.24,15.727,6.976z M12.02,2.633
		C10.638,3.939,9.82,5.766,9.769,7.654c0.07,1.863,0.885,3.667,2.25,4.98c1.365-1.314,2.181-3.128,2.25-5.028
		C14.217,5.752,13.397,3.931,12.02,2.633L12.02,2.633z"/>
	<path d="M12,19.127c-4.703,0-8.25-1.935-8.25-4.5c0-0.414,0.336-0.75,0.75-0.75s0.75,0.336,0.75,0.75c0,1.598,3.154,3,6.75,3
		c3.596,0,6.75-1.402,6.75-3c0-0.414,0.336-0.75,0.75-0.75s0.75,0.336,0.75,0.75C20.25,17.193,16.703,19.127,12,19.127z"/>
	<path d="M11.998,22.874c-6.617,0-12-3.699-12-8.247c0.011-1.228,0.38-2.409,1.065-3.421c0.14-0.206,0.372-0.329,0.621-0.329
		c0.15,0,0.296,0.045,0.421,0.129c0.166,0.112,0.278,0.282,0.316,0.479c0.038,0.197-0.003,0.396-0.116,0.562
		c-0.519,0.766-0.798,1.661-0.807,2.586c0,3.715,4.71,6.74,10.5,6.74c5.79,0,10.5-3.028,10.5-6.75
		c-0.009-0.919-0.289-1.812-0.809-2.579c-0.232-0.342-0.143-0.81,0.199-1.042c0.125-0.085,0.27-0.129,0.421-0.129
		c0.249,0,0.481,0.123,0.621,0.328c0.687,1.012,1.056,2.192,1.068,3.414C23.998,19.172,18.615,22.874,11.998,22.874z"/>
</g>
</svg>
