<?xml version="1.0" encoding="utf-8"?>
<!-- Generator: Adobe Illustrator 22.1.0, SVG Export Plug-In . SVG Version: 6.00 Build 0)  -->
<svg version="1.1" id="Layer_1" xmlns="http://www.w3.org/2000/svg" xmlns:xlink="http://www.w3.org/1999/xlink" x="0px" y="0px"
	 viewBox="0 0 24 24" style="enable-background:new 0 0 24 24;" xml:space="preserve">
<title>spa-stone</title>
<g>
	<path d="M10.876,23.25c-4.963,0-9-2.692-9-6c0-2.085,1.559-3.98,4.172-5.076c-0.282-0.537-0.425-1.099-0.425-1.674
		C5.689,9.455,6.092,8.505,6.77,7.767C6.018,7.026,5.623,6.162,5.623,5.25c0-2.481,3.028-4.5,6.75-4.5s6.75,2.019,6.75,4.5
		c0,0.366-0.066,0.729-0.196,1.082c2.038,0.996,3.196,2.502,3.196,4.168c0,1.608-1.152,3.119-3.106,4.109
		c0.531,0.774,0.833,1.688,0.859,2.62c0,1.646-0.958,3.172-2.698,4.309C15.487,22.642,13.249,23.25,10.876,23.25z M6.644,13.55
		c-2.043,0.847-3.268,2.231-3.268,3.7c0,2.481,3.365,4.5,7.5,4.5c4.136,0,7.5-2.019,7.5-4.5c-0.02-0.736-0.308-1.476-0.798-2.056
		c-1.144,0.364-2.419,0.556-3.706,0.556c-2.797,0-5.341-0.869-6.872-2.336L6.644,13.55z M7.833,12.16
		c1.155,1.271,3.518,2.09,6.04,2.09c1.289,0,2.546-0.208,3.635-0.602c0.011-0.004,0.021-0.008,0.029-0.01
		c1.903-0.695,3.086-1.898,3.086-3.137c0-1.089-0.932-2.166-2.497-2.888c-1.221,1.325-3.392,2.138-5.753,2.138
		c-1.621,0-3.167-0.381-4.389-1.077c-0.512,0.498-0.816,1.155-0.862,1.875c0.001,0.469,0.184,0.952,0.544,1.413
		C7.731,12.016,7.788,12.084,7.833,12.16z M8.409,7.199c1.007,0.668,2.45,1.051,3.964,1.051c2.084,0,4.022-0.746,4.844-1.861
		c0.033-0.072,0.077-0.138,0.13-0.195c0.183-0.306,0.275-0.623,0.275-0.944c0-1.626-2.404-3-5.25-3s-5.25,1.374-5.25,3
		c0,0.659,0.403,1.314,1.137,1.845C8.314,7.124,8.364,7.158,8.409,7.199z"/>
	<path d="M12.373,6.75c-2.437,0-3.368-0.808-3.53-0.97c-0.142-0.141-0.22-0.33-0.22-0.53s0.078-0.389,0.22-0.53
		c0.142-0.142,0.33-0.22,0.53-0.22c0.196,0,0.381,0.075,0.522,0.212l0,0c0.001,0,0.665,0.538,2.478,0.538
		c0.414,0,0.75,0.336,0.75,0.75S12.786,6.75,12.373,6.75z"/>
	<path d="M9.115,19.51c-1.376,0-2.638-0.695-3.376-1.859c-0.107-0.169-0.142-0.37-0.098-0.565c0.044-0.195,0.161-0.362,0.33-0.469
		C6.092,16.54,6.231,16.5,6.373,16.5c0.259,0,0.496,0.13,0.634,0.349c0.461,0.727,1.251,1.161,2.114,1.161
		c0.064,0,0.129-0.002,0.194-0.008C9.336,18.001,9.353,18,9.371,18c0.396,0,0.719,0.297,0.75,0.691
		c0.016,0.2-0.047,0.394-0.177,0.546c-0.13,0.152-0.312,0.245-0.512,0.26C9.326,19.506,9.22,19.51,9.115,19.51z"/>
	<path d="M12.259,12.752c-0.912,0-1.823-0.289-2.566-0.814c-0.164-0.116-0.272-0.288-0.306-0.485
		c-0.034-0.198,0.011-0.396,0.127-0.56c0.14-0.199,0.369-0.317,0.613-0.317c0.156,0,0.305,0.047,0.433,0.137
		c0.492,0.348,1.099,0.539,1.708,0.539c0,0,0.11-0.002,0.114-0.002c0.397,0,0.73,0.326,0.742,0.727
		c0.006,0.2-0.066,0.391-0.203,0.537c-0.137,0.146-0.323,0.23-0.523,0.236C12.352,12.751,12.305,12.752,12.259,12.752z"/>
</g>
</svg>
