<?xml version="1.0" encoding="utf-8"?>
<!-- Generator: Adobe Illustrator 22.1.0, SVG Export Plug-In . SVG Version: 6.00 Build 0)  -->
<svg version="1.1" id="Layer_1" xmlns="http://www.w3.org/2000/svg" xmlns:xlink="http://www.w3.org/1999/xlink" x="0px" y="0px"
	 viewBox="0 0 24 24" style="enable-background:new 0 0 24 24;" xml:space="preserve">
<title>space-explore</title>
<g>
	<path d="M12.75,24C12.336,24,12,23.664,12,23.25V16.5H1.5v6.75C1.5,23.664,1.164,24,0.75,24S0,23.664,0,23.25v-7.56
		c0-3.722,3.028-6.75,6.75-6.75s6.75,3.028,6.75,6.75v7.56C13.5,23.664,13.164,24,12.75,24z M11.954,15
		c-0.339-2.587-2.553-4.56-5.204-4.56S1.885,12.413,1.546,15H11.954z"/>
	<path d="M9.75,4.5C9.336,4.5,9,4.164,9,3.75V3H8.25C7.836,3,7.5,2.664,7.5,2.25S7.836,1.5,8.25,1.5H9V0.75C9,0.336,9.336,0,9.75,0
		s0.75,0.336,0.75,0.75V1.5h0.75C11.664,1.5,12,1.836,12,2.25S11.664,3,11.25,3H10.5v0.75C10.5,4.164,10.164,4.5,9.75,4.5z"/>
	<path d="M20.25,14.25c-0.414,0-0.75-0.336-0.75-0.75v-0.75h-0.75C18.336,12.75,18,12.414,18,12s0.336-0.75,0.75-0.75h0.75V10.5
		c0-0.414,0.336-0.75,0.75-0.75S21,10.086,21,10.5v0.75h0.75c0.414,0,0.75,0.336,0.75,0.75s-0.336,0.75-0.75,0.75H21v0.75
		C21,13.914,20.664,14.25,20.25,14.25z"/>
	<path d="M20.25,7.5c-0.41,0-0.747-0.334-0.75-0.744C19.49,5.522,18.478,4.51,17.244,4.5C16.834,4.497,16.5,4.16,16.5,3.75
		S16.834,3.003,17.244,3c1.234-0.01,2.246-1.022,2.256-2.256C19.503,0.334,19.84,0,20.25,0S20.997,0.334,21,0.744
		C21.01,1.978,22.022,2.99,23.256,3C23.666,3.003,24,3.34,24,3.75s-0.334,0.747-0.744,0.75C22.022,4.51,21.01,5.522,21,6.756
		C20.997,7.166,20.66,7.5,20.25,7.5z M19.474,3.75c0.294,0.22,0.556,0.482,0.776,0.776c0.22-0.294,0.482-0.556,0.776-0.776
		c-0.294-0.22-0.556-0.482-0.776-0.776C20.03,3.268,19.768,3.53,19.474,3.75z"/>
	<path d="M15.75,16.675c-0.414,0-0.75-0.336-0.75-0.75v-1.078c-0.036-1.994-0.85-3.863-2.292-5.255
		c-0.442-0.427-0.933-0.798-1.458-1.103c-0.064-0.025-0.123-0.057-0.176-0.097C9.985,7.799,8.752,7.486,7.504,7.486
		c-0.047,0-0.095,0-0.143,0.001C6.412,7.504,5.487,7.698,4.61,8.062C4.518,8.101,4.421,8.12,4.322,8.12
		c-0.304,0-0.576-0.181-0.693-0.462C3.553,7.473,3.552,7.269,3.629,7.084c0.076-0.185,0.22-0.33,0.405-0.406
		c1.051-0.438,2.162-0.67,3.301-0.69c0.052-0.001,0.103-0.001,0.155-0.001c1.324,0,2.639,0.292,3.823,0.845l1.391-1.822
		c0.211-0.276,0.517-0.453,0.86-0.498C13.622,4.504,13.68,4.5,13.737,4.5c0.286,0,0.558,0.093,0.787,0.268
		c0.045,0.035,0.088,0.072,0.128,0.112l2.218,2.214c0.506,0.508,0.505,1.331-0.001,1.837c-0.043,0.043-0.085,0.079-0.129,0.112
		l-1.584,1.212c0.852,1.372,1.315,2.947,1.344,4.579v1.091C16.5,16.339,16.164,16.675,15.75,16.675z M12.622,7.588
		c0.401,0.278,0.779,0.588,1.127,0.924c0.173,0.168,0.345,0.348,0.511,0.538l1.385-1.059l-1.89-1.888L12.622,7.588z"/>
	<path d="M8.25,24c-0.414,0-0.75-0.336-0.75-0.75V21c0-0.414-0.336-0.75-0.75-0.75S6,20.586,6,21v2.25C6,23.664,5.664,24,5.25,24
		S4.5,23.664,4.5,23.25V21c0-1.241,1.009-2.25,2.25-2.25S9,19.759,9,21v2.25C9,23.664,8.664,24,8.25,24z"/>
</g>
</svg>
