<?xml version="1.0" encoding="utf-8"?>
<!-- Generator: Adobe Illustrator 22.1.0, SVG Export Plug-In . SVG Version: 6.00 Build 0)  -->
<svg version="1.1" id="Layer_1" xmlns="http://www.w3.org/2000/svg" xmlns:xlink="http://www.w3.org/1999/xlink" x="0px" y="0px"
	 viewBox="0 0 24 24" style="enable-background:new 0 0 24 24;" xml:space="preserve">
<title>space-earth</title>
<g>
	<path d="M17.249,24.003c-1.37,0-2.564-0.947-2.902-2.25H5.901c-0.338,1.303-1.532,2.25-2.902,2.25c-1.654,0-3-1.346-3-3
		c0-1.37,0.947-2.564,2.25-2.902v-6.05c-2.083-1.26-2.84-3.982-1.683-6.141C0.66,5.735,0.823,5.602,1.014,5.546
		c0.069-0.021,0.141-0.031,0.213-0.031c0.126,0,0.251,0.032,0.361,0.092l2.764,1.516l0.736-1.105C4.71,5.606,4.499,5.07,4.499,4.504
		c0-1.241,1.009-2.25,2.25-2.25s2.25,1.009,2.25,2.25s-1.009,2.25-2.25,2.25c-0.11,0-0.221-0.009-0.332-0.026l-0.746,1.12
		l2.711,1.488c0.174,0.095,0.305,0.26,0.36,0.451c0.055,0.192,0.03,0.401-0.067,0.574c-0.605,1.077-1.594,1.854-2.783,2.187
		c-0.41,0.115-0.833,0.174-1.255,0.174c-0.297,0-0.594-0.03-0.887-0.088v5.469c1.048,0.272,1.879,1.104,2.151,2.151h2.349v-0.75
		c0-1.241,1.009-2.25,2.25-2.25h2.358l0.764-4.069c0.09-0.556,0.399-1.054,0.869-1.393c0.373-0.268,0.81-0.41,1.264-0.41
		c0.117,0,0.235,0.01,0.351,0.028c1.18,0.191,1.985,1.307,1.793,2.488l-0.514,4.11c1.592,0.071,2.865,1.388,2.865,2.997
		C20.249,22.658,18.904,24.003,17.249,24.003z M17.249,19.503c-0.827,0-1.5,0.673-1.5,1.5s0.673,1.5,1.5,1.5s1.5-0.673,1.5-1.5
		S18.076,19.503,17.249,19.503z M2.999,19.503c-0.827,0-1.5,0.673-1.5,1.5s0.673,1.5,1.5,1.5s1.5-0.673,1.5-1.5
		S3.827,19.503,2.999,19.503z M14.347,20.253c0.208-0.809,0.74-1.491,1.481-1.89l0.586-4.68c0.062-0.385-0.185-0.734-0.549-0.793
		c-0.038-0.006-0.074-0.009-0.11-0.009c-0.138,0-0.272,0.044-0.387,0.127c-0.145,0.104-0.24,0.259-0.269,0.435l-0.882,4.699
		c-0.067,0.354-0.377,0.612-0.737,0.612h-2.98c-0.414,0-0.75,0.336-0.75,0.75v0.75H14.347z M1.613,7.332
		c-0.338,1.348,0.261,2.791,1.499,3.487c0.468,0.263,0.996,0.402,1.526,0.402c0.285,0,0.571-0.04,0.849-0.118
		c0.556-0.156,1.043-0.451,1.429-0.862L1.613,7.332z M6.749,3.754c-0.414,0-0.75,0.336-0.75,0.75s0.336,0.75,0.75,0.75
		s0.75-0.336,0.75-0.75S7.163,3.754,6.749,3.754z"/>
	<path d="M19.94,12.871c-0.286,0-0.543-0.159-0.671-0.414c-0.09-0.179-0.104-0.382-0.041-0.572c0.063-0.19,0.197-0.344,0.376-0.434
		c0.084-0.042,0.167-0.087,0.25-0.134c1.116-0.637,1.945-1.643,2.359-2.853l-1.403-0.841c-0.436-0.254-0.62-0.453-1.075-1.362
		c-0.155-0.311-0.238-0.659-0.238-1.007c0-0.601,0.235-1.166,0.659-1.591c0.251-0.251,0.55-0.435,0.877-0.544
		c-0.982-1.018-2.359-1.611-3.795-1.611c-0.906,0-1.802,0.238-2.592,0.689c-0.394,0.225-0.752,0.495-1.071,0.808
		c1.205,0.041,2.173,1.034,2.173,2.249v0.7c0,0.252,0.125,0.485,0.334,0.625l0.958,0.639c0.291,0.193,0.534,0.458,0.701,0.766
		c0.096,0.176,0.117,0.379,0.06,0.571c-0.057,0.192-0.186,0.35-0.362,0.446c-0.108,0.059-0.232,0.091-0.357,0.091
		c-0.276,0-0.528-0.15-0.659-0.393c-0.051-0.093-0.124-0.174-0.213-0.232l-0.96-0.641c-0.628-0.418-1.002-1.119-1.002-1.873v-0.7
		c0-0.414-0.336-0.75-0.75-0.75h-0.988c-0.739,1.557-0.677,3.356,0.179,4.855c0.099,0.174,0.125,0.376,0.072,0.57
		c-0.053,0.193-0.177,0.354-0.352,0.454c-0.113,0.065-0.241,0.099-0.371,0.099c-0.269,0-0.519-0.145-0.652-0.378
		c-1.165-2.041-1.174-4.585-0.025-6.645c0.023-0.054,0.053-0.105,0.089-0.153c0.594-1.001,1.441-1.834,2.451-2.411
		c1.016-0.58,2.169-0.886,3.335-0.886c2.386,0,4.616,1.271,5.824,3.32c0.02,0.029,0.038,0.059,0.053,0.09
		c0.848,1.498,1.094,3.223,0.705,4.879c-0.003,0.016-0.018,0.072-0.018,0.072c-0.013,0.056-0.026,0.111-0.042,0.166
		c-0.476,1.74-1.6,3.19-3.166,4.084c-0.105,0.06-0.212,0.117-0.32,0.172C20.169,12.844,20.056,12.871,19.94,12.871z M21.747,4.505
		c-0.2,0-0.389,0.078-0.53,0.219c-0.142,0.142-0.22,0.33-0.22,0.53c0,0.116,0.027,0.232,0.079,0.336
		c0.319,0.639,0.36,0.662,0.482,0.733l0.937,0.562c0.022-0.82-0.151-1.631-0.509-2.38H21.747z"/>
</g>
</svg>
