<?xml version="1.0" encoding="utf-8"?>
<!-- Generator: Adobe Illustrator 22.1.0, SVG Export Plug-In . SVG Version: 6.00 Build 0)  -->
<svg version="1.1" id="Regular" xmlns="http://www.w3.org/2000/svg" xmlns:xlink="http://www.w3.org/1999/xlink" x="0px" y="0px"
	 viewBox="0 0 24 24" style="enable-background:new 0 0 24 24;" xml:space="preserve">
<title>spider</title>
<g>
	<path d="M12,24c-2.895,0-5.25-3.028-5.25-6.75c-0.037-1.791,0.562-3.558,1.688-4.968C8.581,12.103,8.795,12,9.024,12
		c0.169,0,0.335,0.058,0.468,0.164c0.157,0.125,0.255,0.303,0.277,0.503c0.022,0.199-0.034,0.395-0.159,0.551
		c-0.907,1.136-1.391,2.563-1.36,4.017c0,2.907,1.682,5.266,3.75,5.266c2.068,0,3.75-2.355,3.75-5.25
		c0.031-1.466-0.453-2.896-1.36-4.032c-0.125-0.156-0.182-0.352-0.159-0.552c0.022-0.199,0.121-0.377,0.278-0.502
		C14.641,12.058,14.807,12,14.976,12c0.23,0,0.443,0.103,0.586,0.282c1.126,1.41,1.725,3.18,1.688,4.983
		C17.25,20.975,14.895,24,12,24z"/>
	<path d="M13.5,19.5c-0.2,0-0.389-0.078-0.53-0.22c-0.142-0.141-0.22-0.33-0.22-0.53c0-0.2,0.078-0.389,0.22-0.53
		c0.534-0.534,0.534-1.404,0-1.938c-0.259-0.259-0.604-0.402-0.969-0.402c-0.366,0-0.711,0.143-0.97,0.402
		c-0.259,0.259-0.401,0.603-0.402,0.969c0,0.366,0.143,0.71,0.401,0.969c0.292,0.292,0.292,0.768,0,1.061
		c-0.142,0.142-0.33,0.22-0.53,0.22c-0.201,0-0.389-0.078-0.531-0.22c-0.542-0.542-0.841-1.263-0.841-2.03
		c0-0.767,0.299-1.488,0.841-2.03c0.542-0.542,1.263-0.841,2.03-0.841c0.767,0,1.488,0.299,2.03,0.841
		c1.119,1.119,1.119,2.94,0,4.06C13.889,19.422,13.7,19.5,13.5,19.5z"/>
	<path d="M18.75,24c-0.207,0-0.375-0.168-0.375-0.375v-0.75c0-0.154,0.094-0.289,0.231-0.346c0.036-0.053,0.144-0.256,0.144-0.779
		v-7.257c0.001-0.806-0.434-1.556-1.133-1.956l-2.952-1.687c-0.123,0.294-0.277,0.573-0.46,0.832C14.064,11.881,13.835,12,13.592,12
		c-0.156,0-0.305-0.047-0.432-0.137c-0.338-0.238-0.418-0.707-0.18-1.045c0.233-0.33,0.396-0.719,0.472-1.126
		c0.002-0.062,0.012-0.122,0.029-0.18c0.02-0.163,0.027-0.323,0.02-0.477c-0.001-1.252-0.049-1.865-0.49-2.107
		c-0.009-0.004-0.028-0.014-0.029-0.015C12.763,6.803,12.441,6.75,12,6.75c-0.438,0-0.759,0.052-0.978,0.16
		c0,0-0.025,0.014-0.039,0.02C10.548,7.174,10.5,7.781,10.5,9c-0.008,0.177-0.001,0.345,0.02,0.515
		c0.016,0.056,0.025,0.115,0.027,0.174c0.075,0.407,0.236,0.796,0.467,1.125c0.237,0.339,0.154,0.807-0.184,1.044
		c-0.127,0.089-0.276,0.135-0.43,0.135c-0.245,0-0.474-0.12-0.615-0.32c-0.18-0.257-0.331-0.532-0.451-0.823l-2.95,1.686
		c-0.7,0.4-1.135,1.149-1.134,1.955v7.258c0,0.525,0.108,0.721,0.144,0.771c0.155,0.054,0.261,0.205,0.251,0.375l-0.021,0.374
		l0.001,0.354C5.625,23.832,5.457,24,5.25,24c-0.061,0-1.5-0.026-1.5-2.25v-7.257c-0.001-1.343,0.723-2.592,1.89-3.258l3.361-1.921
		C8.998,9.246,8.996,9.18,8.997,9.115L5.229,9.653C4.913,9.699,4.616,9.808,4.345,9.978c-1.988,1.249-2.716,1.952-2.854,2.147
		c-0.049,0.364-0.357,0.637-0.742,0.637C0.336,12.761,0,12.42,0,12c0-0.372,0-1.064,3.547-3.292c0.449-0.283,0.944-0.464,1.47-0.539
		l2.747-0.392L4.661,7C3.743,6.771,2.952,6.209,2.434,5.418c-0.819-1.087-1.401-2.399-1.67-3.775
		C0.725,1.447,0.766,1.247,0.878,1.081C0.99,0.915,1.16,0.802,1.356,0.764C1.404,0.754,1.453,0.75,1.501,0.75
		c0.358,0,0.667,0.255,0.735,0.607c0.225,1.154,0.718,2.26,1.424,3.2c0.339,0.514,0.806,0.85,1.365,0.989l3.01,0.753L5.98,4.585
		C4.812,3.614,4.623,1.916,5.546,0.713C5.792,0.336,6.187,0.08,6.632,0.009C6.672,0.003,6.712,0,6.751,0
		c0.371,0,0.682,0.266,0.74,0.632c0.065,0.409-0.215,0.794-0.623,0.858C6.839,1.495,6.815,1.511,6.8,1.536
		C6.784,1.561,6.767,1.586,6.748,1.61C6.304,2.173,6.387,2.973,6.939,3.432L9.541,5.6C9.116,4.099,9.93,3.259,9.97,3.22
		C10.111,3.078,10.3,3,10.5,3s0.389,0.078,0.53,0.22c0.142,0.141,0.22,0.33,0.22,0.53s-0.078,0.389-0.22,0.53
		c0.002,0-0.26,0.33,0.002,1.06C11.322,5.279,11.641,5.25,12,5.25s0.678,0.03,0.968,0.09c0.262-0.733-0.004-1.065-0.017-1.08
		c-0.273-0.295-0.26-0.767,0.032-1.048c0.141-0.136,0.327-0.211,0.521-0.211c0.199,0,0.386,0.078,0.526,0.218
		c0.04,0.039,0.855,0.877,0.428,2.381l2.601-2.167c0.553-0.459,0.637-1.26,0.191-1.824c-0.019-0.025-0.035-0.048-0.051-0.072
		c-0.015-0.025-0.04-0.042-0.069-0.046c-0.408-0.065-0.688-0.45-0.623-0.859C16.567,0.266,16.879,0,17.25,0
		c0.039,0,0.078,0.003,0.118,0.009c0.444,0.071,0.839,0.326,1.085,0.702c0.925,1.204,0.736,2.903-0.434,3.875l-2.055,1.712
		l3.841-0.96C20.616,4.212,21.75,2.341,21.75,1.5c0-0.414,0.336-0.75,0.75-0.75s0.75,0.336,0.75,0.75c0,1.667-1.999,4.416-2.4,4.95
		c-0.103,0.137-0.252,0.236-0.418,0.278l-4.196,1.049l2.747,0.392c0.526,0.075,1.021,0.257,1.47,0.54
		c3.551,2.245,3.551,2.9,3.551,3.292c0,0.414-0.336,0.75-0.75,0.75c-0.376,0-0.688-0.278-0.742-0.64
		c-0.149-0.2-0.872-0.877-2.859-2.133c-0.269-0.169-0.566-0.278-0.882-0.324l-3.768-0.538c0.001,0.063,0,0.129-0.003,0.199
		l3.361,1.921c1.166,0.667,1.89,1.915,1.889,3.259v7.257C20.25,23.974,18.811,24,18.75,24z"/>
</g>
</svg>
