<?xml version="1.0" encoding="utf-8"?>
<!-- Generator: Adobe Illustrator 22.1.0, SVG Export Plug-In . SVG Version: 6.00 Build 0)  -->
<svg version="1.1" id="Regular" xmlns="http://www.w3.org/2000/svg" xmlns:xlink="http://www.w3.org/1999/xlink" x="0px" y="0px"
	 viewBox="0 0 24 24" style="enable-background:new 0 0 24 24;" xml:space="preserve">
<title>sport-curling-1</title>
<g>
	<path d="M13.5,6.875c-1.861,0-3.375-1.514-3.375-3.375s1.514-3.375,3.375-3.375c1.861,0,3.375,1.514,3.375,3.375
		S15.361,6.875,13.5,6.875z M13.5,1.625c-1.034,0-1.875,0.841-1.875,1.875s0.841,1.875,1.875,1.875s1.875-0.841,1.875-1.875
		S14.534,1.625,13.5,1.625z"/>
	<path d="M20.311,23.819c-0.114,0-0.228-0.009-0.339-0.025c-0.594-0.089-1.117-0.405-1.474-0.888l-2.68-3.212
		c-0.126-0.152-0.247-0.31-0.36-0.473l-0.53,0.423c-0.255,0.205-0.461,0.459-0.61,0.753l-1.054,2.111
		c-0.384,0.768-1.156,1.244-2.016,1.244c-0.351,0-0.688-0.08-1.004-0.238c-1.11-0.555-1.561-1.909-1.006-3.019l1.058-2.117
		c0.443-0.879,1.056-1.636,1.822-2.25l2.133-1.707v-1.108l-4.172,2.281c-0.328,0.179-0.699,0.274-1.072,0.274
		c-0.111,0-0.222-0.008-0.332-0.025l-2.58,3.871C6.983,20.123,7.5,20.77,7.5,21.5c0,1.304-1.577,2.25-3.75,2.25S0,22.804,0,21.5
		s1.577-2.25,3.75-2.25c0.277,0,0.55,0.016,0.816,0.049l2.774-4.162c-0.122-0.134-0.228-0.282-0.316-0.443
		c-0.594-1.089-0.191-2.458,0.898-3.052l6.875-3.755c0.781-0.416,1.657-0.634,2.539-0.634c1.033,0,2.039,0.294,2.907,0.85
		c2.322,1.458,3.728,3.969,3.757,6.715v0.295c0,1.241-1.009,2.25-2.25,2.25s-2.25-1.009-2.25-2.25v-0.287
		c-0.016-0.77-0.282-1.503-0.75-2.1v2.646c0.001,0.524,0.188,1.035,0.525,1.438l2.694,3.244c0.046,0.049,0.1,0.114,0.149,0.181
		c0.736,0.996,0.523,2.407-0.474,3.144C21.253,23.666,20.792,23.819,20.311,23.819z M15.659,17.348c0.055,0,0.109,0.006,0.161,0.018
		c0.219,0.048,0.405,0.191,0.508,0.392c0.176,0.347,0.392,0.674,0.642,0.974l2.707,3.247c0.145,0.195,0.315,0.3,0.519,0.331
		c0.039,0.006,0.077,0.009,0.115,0.009c0.159,0,0.312-0.051,0.443-0.147c0.333-0.246,0.403-0.716,0.157-1.048
		c-0.019-0.026-0.038-0.048-0.058-0.07l-2.729-3.284c-0.561-0.669-0.871-1.521-0.873-2.396v-4.215c0-0.253,0.126-0.487,0.337-0.626
		c0.123-0.081,0.266-0.124,0.413-0.124c0.102,0,0.2,0.02,0.294,0.06c0.138,0.059,0.272,0.128,0.399,0.204
		c1.415,0.927,2.273,2.471,2.307,4.138v0.302c0,0.414,0.336,0.75,0.75,0.75s0.75-0.336,0.75-0.75v-0.287
		c-0.024-2.227-1.167-4.268-3.059-5.455c-0.003-0.002-0.006-0.004-0.009-0.006c-0.626-0.401-1.351-0.612-2.097-0.612
		c-0.635,0-1.267,0.157-1.827,0.455l-6.867,3.751c-0.364,0.198-0.498,0.655-0.3,1.018c0.064,0.118,0.161,0.217,0.279,0.286
		c0.034,0.012,0.066,0.027,0.097,0.044c0.093,0.038,0.193,0.058,0.291,0.058c0.124,0,0.241-0.03,0.35-0.089l5.281-2.886
		c0.11-0.06,0.235-0.092,0.36-0.092c0.135,0,0.267,0.036,0.382,0.104c0.227,0.135,0.368,0.382,0.368,0.645v2.733
		c0,0.229-0.103,0.443-0.281,0.586l-2.414,1.931c-0.596,0.479-1.074,1.068-1.419,1.752l-1.057,2.115
		c-0.185,0.37-0.034,0.822,0.336,1.007c0.106,0.053,0.218,0.08,0.335,0.08c0.08,0,0.161-0.013,0.239-0.039
		c0.19-0.063,0.344-0.197,0.433-0.376l1.056-2.115c0.248-0.489,0.588-0.909,1.012-1.25l1.202-0.959
		C15.323,17.407,15.489,17.348,15.659,17.348z M3.75,20.75c-1.452,0-2.25,0.563-2.25,0.75s0.798,0.75,2.25,0.75S6,21.687,6,21.5
		S5.202,20.75,3.75,20.75z"/>
	<path d="M0.75,14.75C0.336,14.75,0,14.414,0,14s0.336-0.75,0.75-0.75h3c0.414,0,0.75,0.336,0.75,0.75s-0.336,0.75-0.75,0.75H0.75z"
		/>
	<path d="M2.25,17.75c-0.414,0-0.75-0.336-0.75-0.75s0.336-0.75,0.75-0.75h1.5c0.414,0,0.75,0.336,0.75,0.75s-0.336,0.75-0.75,0.75
		H2.25z"/>
</g>
</svg>
