<?xml version="1.0" encoding="utf-8"?>
<!-- Generator: Adobe Illustrator 22.1.0, SVG Export Plug-In . SVG Version: 6.00 Build 0)  -->
<svg version="1.1" id="Regular" xmlns="http://www.w3.org/2000/svg" xmlns:xlink="http://www.w3.org/1999/xlink" x="0px" y="0px"
	 viewBox="0 0 24 24" style="enable-background:new 0 0 24 24;" xml:space="preserve">
<title>sport-hockey</title>
<g>
	<path d="M12.626,6.75c-1.861,0-3.375-1.514-3.375-3.375S10.765,0,12.626,0c1.861,0,3.375,1.514,3.375,3.375
		S14.487,6.75,12.626,6.75z M12.626,1.5c-1.034,0-1.875,0.841-1.875,1.875s0.841,1.875,1.875,1.875c1.034,0,1.875-0.841,1.875-1.875
		S13.66,1.5,12.626,1.5z"/>
	<path d="M3.254,23.999c-0.706,0-1.379-0.336-1.802-0.898c-0.36-0.48-0.512-1.072-0.427-1.668c0.085-0.595,0.396-1.122,0.876-1.482
		l1.8-1.35c0.188-0.141,0.3-0.365,0.3-0.6v-3c0-0.365,0.09-0.728,0.26-1.05l3.16-6c0.335-0.634,0.958-1.074,1.667-1.177
		c0.108-0.017,0.222-0.026,0.336-0.026c0.603,0,1.188,0.251,1.605,0.688l5.835,5.995c0.011,0.011,0.025,0.027,0.039,0.043
		c0.769,0.83,0.773,2.155,0.021,3.006l2.721,3.626c0.12,0.16,0.295,0.264,0.494,0.292c0.035,0.005,0.071,0.007,0.106,0.007
		c0.163,0,0.319-0.052,0.45-0.15c0.092-0.069,0.168-0.161,0.22-0.264l0.416-0.828c0.129-0.255,0.385-0.414,0.671-0.414
		c0.116,0,0.232,0.028,0.336,0.08c0.369,0.186,0.519,0.637,0.333,1.006l-0.415,0.827c-0.155,0.309-0.383,0.583-0.66,0.792
		c-0.393,0.294-0.859,0.45-1.349,0.45c-0.706,0-1.38-0.336-1.802-0.899l-2.85-3.797c-0.118,0.019-0.238,0.028-0.358,0.028l0,0
		c-0.598,0-1.159-0.23-1.582-0.649c0.172,0.357,0.289,0.743,0.342,1.147l0.488,3.718c0.078,0.595-0.08,1.186-0.447,1.663
		c-0.366,0.477-0.895,0.782-1.491,0.86c-0.099,0.013-0.188,0.02-0.27,0.02l-0.039-0.001c-1.111,0-2.068-0.839-2.218-1.95
		l-0.438-3.336l-1.084-0.561c-0.048,1.588-0.825,3.094-2.096,4.051L4.601,23.55C4.209,23.844,3.743,23.999,3.254,23.999z
		 M9.421,8.248c-0.037,0-0.074,0.003-0.111,0.009C9.068,8.292,8.858,8.439,8.747,8.65L5.587,14.65
		C5.531,14.757,5.501,14.878,5.501,15v3c0,0.705-0.337,1.378-0.9,1.8l-1.8,1.35c-0.16,0.12-0.263,0.295-0.291,0.494
		C2.481,21.843,2.532,22.04,2.651,22.2c0.143,0.19,0.362,0.299,0.601,0.299c0.163,0,0.318-0.052,0.448-0.149l1.8-1.35
		c0.937-0.705,1.498-1.827,1.5-3.001v-1.082c0-0.26,0.138-0.505,0.36-0.641c0.117-0.072,0.252-0.11,0.39-0.11
		c0.12,0,0.239,0.029,0.345,0.084l2.524,1.306c0.218,0.113,0.367,0.325,0.399,0.568l0.489,3.722c0.05,0.369,0.369,0.647,0.743,0.648
		c0,0,0.001,0,0.001,0c0.038,0,0.067-0.002,0.096-0.006c0.203-0.027,0.38-0.129,0.502-0.287c0.122-0.159,0.175-0.355,0.149-0.554
		l-0.488-3.719c-0.095-0.733-0.544-1.372-1.2-1.71l-3.145-1.621c-0.176-0.09-0.312-0.251-0.372-0.441
		c-0.06-0.19-0.041-0.399,0.052-0.575l1.266-2.406c0.111-0.212,0.319-0.359,0.556-0.393c0.034-0.005,0.072-0.008,0.109-0.008
		c0.2,0,0.395,0.083,0.536,0.227l4.4,4.521c0.136,0.137,0.324,0.215,0.524,0.216c0.202,0,0.389-0.078,0.531-0.218
		c0.287-0.285,0.293-0.756,0.014-1.049c-0.003-0.003-5.833-5.994-5.833-5.994C9.809,8.331,9.617,8.248,9.421,8.248z M12,14.887
		l-2.042-2.099l-0.433,0.823C9.525,13.611,11.999,14.886,12,14.887z"/>
	<path d="M18.251,24c-0.414,0-0.75-0.336-0.75-0.75s0.336-0.75,0.75-0.75h3.75c0.414,0,0.75,0.336,0.75,0.75S22.414,24,22.001,24
		H18.251z"/>
</g>
</svg>
