<?xml version="1.0" encoding="utf-8"?>
<!-- Generator: Adobe Illustrator 22.1.0, SVG Export Plug-In . SVG Version: 6.00 Build 0)  -->
<svg version="1.1" id="Layer_1" xmlns="http://www.w3.org/2000/svg" xmlns:xlink="http://www.w3.org/1999/xlink" x="0px" y="0px"
	 viewBox="0 0 24 24" style="enable-background:new 0 0 24 24;" xml:space="preserve">
<title>sports-car-1</title>
<g>
	<path d="M18.795,18c-0.96,0-1.808-0.615-2.121-1.5H8.916C8.603,17.385,7.755,18,6.795,18c-0.978,0-1.836-0.635-2.136-1.544
		C2.054,16.136,0.05,13.9,0.05,11.25v-0.676c-0.003-0.026-0.005-0.05-0.005-0.074c0-0.025,0.002-0.05,0.005-0.075V7.5
		c0-0.414,0.336-0.75,0.75-0.75h0.75c1.416,0,2.05-0.333,2.928-0.794C5.712,5.307,7.248,4.5,11.3,4.5
		c4.938,0,8.544,3.445,9.385,4.325c0.262,0.078,0.519,0.161,0.765,0.248c1.55,0.487,2.6,1.923,2.6,3.569v1.608
		c0,1.241-1.009,2.25-2.25,2.25h-0.884C20.603,17.385,19.755,18,18.795,18z M18.795,15c-0.414,0-0.75,0.336-0.75,0.75
		s0.336,0.75,0.75,0.75s0.75-0.336,0.75-0.75S19.209,15,18.795,15z M6.048,15.787c0.019,0.395,0.35,0.713,0.747,0.713
		c0.414,0,0.75-0.336,0.75-0.75S7.209,15,6.795,15c-0.396,0-0.726,0.317-0.747,0.712C6.049,15.72,6.05,15.735,6.05,15.75
		C6.05,15.76,6.049,15.773,6.048,15.787z M21.8,15c0.414,0,0.75-0.336,0.75-0.75v-1.608c0-0.988-0.633-1.85-1.575-2.146
		c-0.232-0.082-0.468-0.158-0.73-0.235c-0.094-0.007-0.188-0.033-0.274-0.076c-0.785-0.214-1.58-0.36-2.364-0.434H9.8
		c-1.371,0-2.198-0.292-3.073-0.602C5.686,8.78,4.402,8.326,1.55,8.259V9.75h1.495c0.414,0,0.75,0.336,0.75,0.75
		s-0.336,0.75-0.75,0.75H1.55c0,1.835,1.358,3.405,3.144,3.698C5.023,14.092,5.858,13.5,6.795,13.5c0.96,0,1.808,0.615,2.121,1.5
		h7.757c0.314-0.885,1.162-1.5,2.121-1.5s1.808,0.615,2.121,1.5H21.8z M5.378,7.177c0.773,0.177,1.353,0.382,1.848,0.557
		C8.074,8.034,8.686,8.25,9.8,8.25h7.841c0.019,0,0.038,0.001,0.057,0.002C16.193,7.183,13.933,6,11.3,6
		C7.833,6,6.48,6.604,5.378,7.177z"/>
	<path d="M9.795,13.5c-0.414,0-0.75-0.336-0.75-0.75S9.382,12,9.795,12h4.5c0.414,0,0.75,0.336,0.75,0.75s-0.336,0.75-0.75,0.75
		H9.795z"/>
</g>
</svg>
