<?xml version="1.0" encoding="utf-8"?>
<!-- Generator: Adobe Illustrator 22.1.0, SVG Export Plug-In . SVG Version: 6.00 Build 0)  -->
<svg version="1.1" id="Layer_1" xmlns="http://www.w3.org/2000/svg" xmlns:xlink="http://www.w3.org/1999/xlink" x="0px" y="0px"
	 viewBox="0 0 24 24" style="enable-background:new 0 0 24 24;" xml:space="preserve">
<title>sports-car-convertible-1</title>
<g>
	<path d="M18.75,17.75c-0.96,0-1.808-0.615-2.121-1.5H7.371c-0.314,0.885-1.162,1.5-2.121,1.5s-1.808-0.615-2.121-1.5H2.25
		C1.009,16.25,0,15.241,0,14c0-2.895,2.355-5.25,5.25-5.25c0.96,0,1.808,0.615,2.121,1.5h1.271L7.554,7.529
		c-0.074-0.186-0.072-0.39,0.007-0.574C7.64,6.771,7.785,6.628,7.971,6.554C8.061,6.518,8.154,6.5,8.25,6.5
		c0.308,0,0.582,0.185,0.696,0.472l1.311,3.278H13.5c0.339,0,0.627-0.227,0.716-0.545L12.15,6.95
		c-0.248-0.331-0.181-0.802,0.15-1.05c0.132-0.098,0.287-0.15,0.45-0.15c0.235,0,0.459,0.112,0.6,0.3l2.025,2.7h3.375
		C21.645,8.75,24,11.105,24,14c0,1.241-1.009,2.25-2.25,2.25h-0.879C20.558,17.135,19.71,17.75,18.75,17.75z M18.75,14.75
		c-0.414,0-0.75,0.336-0.75,0.75s0.336,0.75,0.75,0.75s0.75-0.336,0.75-0.75S19.164,14.75,18.75,14.75z M5.25,14.75
		c-0.414,0-0.75,0.336-0.75,0.75s0.336,0.75,0.75,0.75S6,15.914,6,15.5S5.664,14.75,5.25,14.75z M21.75,14.75
		c0.414,0,0.75-0.336,0.75-0.75c0-2.068-1.682-3.75-3.75-3.75h-3.128c-0.314,0.885-1.162,1.5-2.122,1.5H6.75
		C6.336,11.75,6,11.414,6,11s-0.336-0.75-0.75-0.75c-2.068,0-3.75,1.682-3.75,3.75c0,0.414,0.336,0.75,0.75,0.75h0.879
		c0.314-0.885,1.162-1.5,2.121-1.5s1.808,0.615,2.121,1.5h9.257c0.314-0.885,1.162-1.5,2.121-1.5s1.808,0.615,2.121,1.5H21.75z"/>
</g>
</svg>
