<?xml version="1.0" encoding="utf-8"?>
<!-- Generator: Adobe Illustrator 22.1.0, SVG Export Plug-In . SVG Version: 6.00 Build 0)  -->
<svg version="1.1" id="Regular" xmlns="http://www.w3.org/2000/svg" xmlns:xlink="http://www.w3.org/1999/xlink" x="0px" y="0px"
	 viewBox="0 0 24 24" style="enable-background:new 0 0 24 24;" xml:space="preserve">
<title>sport-curling</title>
<g>
	<path d="M13.875,7.5c-1.861,0-3.375-1.514-3.375-3.375s1.514-3.375,3.375-3.375c1.861,0,3.375,1.514,3.375,3.375
		S15.736,7.5,13.875,7.5z M13.875,2.25C12.841,2.25,12,3.091,12,4.125S12.841,6,13.875,6s1.875-0.841,1.875-1.875
		S14.909,2.25,13.875,2.25z"/>
	<path d="M18.75,23.25c-1.241,0-2.25-1.009-2.25-2.25s1.009-2.25,2.25-2.25H21V18c0-0.414-0.336-0.75-0.75-0.75h-1.5
		c-0.414,0-0.75-0.336-0.75-0.75s0.336-0.75,0.75-0.75h1.5c1.241,0,2.25,1.009,2.25,2.25v0.879C23.385,19.192,24,20.04,24,21
		c0,1.241-1.009,2.25-2.25,2.25H18.75z M18.75,20.25C18.336,20.25,18,20.586,18,21s0.336,0.75,0.75,0.75h3
		c0.414,0,0.75-0.336,0.75-0.75s-0.336-0.75-0.75-0.75H18.75z"/>
	<path d="M12,23.25c-1.241,0-2.25-1.009-2.25-2.25v-2.25c-0.001-0.234-0.113-0.459-0.301-0.601l-0.763-0.572
		c-0.926,1.63-2.684,2.668-4.57,2.674H2.25c-1.241,0-2.25-1.009-2.25-2.25s1.009-2.25,2.25-2.25h1.863
		c0.286-0.001,0.552-0.168,0.677-0.427l1.869-3.889c-0.826,0.154-1.633,0.434-2.367,0.826c-0.326,0.178-0.697,0.272-1.069,0.272
		c-0.215,0-0.43-0.031-0.638-0.092c-0.577-0.169-1.054-0.554-1.342-1.082c-0.288-0.528-0.353-1.137-0.184-1.714
		c0.17-0.577,0.554-1.053,1.082-1.342c1.87-0.996,3.977-1.521,6.096-1.521c2.478,0,4.889,0.702,6.971,2.031
		c0.69,0.45,1.482,0.736,2.295,0.828c1.148,0.126,2.009,1.086,2.011,2.234c0.001,0.601-0.232,1.167-0.657,1.592
		c-0.424,0.426-0.989,0.661-1.59,0.661c-0.083,0-0.166-0.004-0.247-0.013c-1.516-0.168-2.99-0.697-4.267-1.528
		c-0.418-0.272-0.863-0.504-1.325-0.693l-0.746,1.554l1.468,1.1c1.312,0.988,2.097,2.557,2.1,4.199V21
		C14.25,22.241,13.241,23.25,12,23.25z M8.415,15.688c0.161,0,0.321,0.053,0.45,0.15l1.485,1.112
		c0.562,0.424,0.899,1.095,0.901,1.798V21c0,0.414,0.336,0.75,0.75,0.75s0.75-0.336,0.75-0.75v-2.25
		c-0.002-1.173-0.563-2.295-1.501-3.001l-1.96-1.469c-0.286-0.214-0.381-0.603-0.226-0.925l1.306-2.72
		c0.124-0.258,0.389-0.425,0.677-0.425c0.076,0,0.152,0.012,0.225,0.034c0.813,0.257,1.587,0.622,2.301,1.086
		c1.081,0.705,2.33,1.152,3.611,1.294c0.027,0.003,0.055,0.004,0.083,0.004c0.199,0,0.387-0.078,0.529-0.22
		c0.142-0.142,0.219-0.33,0.219-0.531c0-0.38-0.286-0.7-0.664-0.744c-1.054-0.118-2.073-0.484-2.956-1.06
		c-1.836-1.171-3.967-1.792-6.158-1.792c-1.874,0-3.736,0.464-5.385,1.342C2.682,9.718,2.555,9.877,2.498,10.07
		c-0.057,0.193-0.035,0.396,0.061,0.572c0.096,0.176,0.255,0.305,0.448,0.361c0.07,0.021,0.142,0.031,0.214,0.031
		c0.125,0,0.246-0.031,0.358-0.092c1.328-0.708,2.82-1.101,4.317-1.139c0.003,0,0.023,0,0.026,0c0.251,0,0.484,0.128,0.623,0.343
		c0.141,0.218,0.159,0.498,0.047,0.732l-2.451,5.1c-0.375,0.773-1.17,1.273-2.026,1.275H2.25c-0.414,0-0.75,0.336-0.75,0.75
		s0.336,0.75,0.75,0.75h1.863c1.43-0.004,2.757-0.84,3.381-2.129l0.245-0.51c0.097-0.203,0.279-0.35,0.498-0.404
		C8.294,15.695,8.354,15.688,8.415,15.688z"/>
</g>
</svg>
