<?xml version="1.0" encoding="utf-8"?>
<!-- Generator: Adobe Illustrator 22.1.0, SVG Export Plug-In . SVG Version: 6.00 Build 0)  -->
<svg version="1.1" id="Regular" xmlns="http://www.w3.org/2000/svg" xmlns:xlink="http://www.w3.org/1999/xlink" x="0px" y="0px"
	 viewBox="0 0 24 24" style="enable-background:new 0 0 24 24;" xml:space="preserve">
<title>stairs-circular</title>
<g>
	<path d="M0.75,24C0.336,24,0,23.664,0,23.25s0.336-0.75,0.75-0.75h9.75V21H3.75C3.336,21,3,20.664,3,20.25s0.336-0.75,0.75-0.75
		h6.75V18H6.75C6.336,18,6,17.664,6,17.25s0.336-0.75,0.75-0.75h3.75V15H8.25c-0.414,0-0.75-0.336-0.75-0.75s0.336-0.75,0.75-0.75
		h2.25V0.75C10.5,0.336,10.836,0,11.25,0h3C14.664,0,15,0.336,15,0.75V1.5h8.25C23.664,1.5,24,1.836,24,2.25S23.664,3,23.25,3H15
		v1.5h6.75c0.414,0,0.75,0.336,0.75,0.75S22.164,6,21.75,6H15v1.5h5.25C20.664,7.5,21,7.836,21,8.25S20.664,9,20.25,9H15v1.5h3.75
		c0.414,0,0.75,0.336,0.75,0.75S19.164,12,18.75,12H15v1.5h2.25c0.414,0,0.75,0.336,0.75,0.75S17.664,15,17.25,15H15v8.25
		c0,0.414-0.336,0.75-0.75,0.75H0.75z M13.5,22.5v-21H12v21H13.5z"/>
</g>
</svg>
