<?xml version="1.0" encoding="utf-8"?>
<!-- Generator: Adobe Illustrator 22.1.0, SVG Export Plug-In . SVG Version: 6.00 Build 0)  -->
<svg version="1.1" id="Layer_1" xmlns="http://www.w3.org/2000/svg" xmlns:xlink="http://www.w3.org/1999/xlink" x="0px" y="0px"
	 viewBox="0 0 24 24" style="enable-background:new 0 0 24 24;" xml:space="preserve">
<title>stairs-descend</title>
<g>
	<path d="M0.749,24c-0.414,0-0.75-0.336-0.75-0.75v-6c0-0.414,0.336-0.75,0.75-0.75h5.25v-5.25c0-0.414,0.336-0.75,0.75-0.75h5.25
		V5.25c0-0.414,0.336-0.75,0.75-0.75h5.25V0.75c0-0.414,0.336-0.75,0.75-0.75s0.75,0.336,0.75,0.75v4.5
		c0,0.414-0.336,0.75-0.75,0.75h-5.25v5.25c0,0.414-0.336,0.75-0.75,0.75h-5.25v5.25c0,0.414-0.336,0.75-0.75,0.75h-5.25v5.25
		C1.499,23.664,1.163,24,0.749,24z"/>
	<path d="M12.749,24c-0.087,0-0.174-0.016-0.258-0.046c-0.006-0.002-0.011-0.004-0.017-0.006c-0.195-0.08-0.343-0.229-0.419-0.412
		c-0.003-0.008-0.007-0.017-0.01-0.026c-0.031-0.082-0.047-0.17-0.047-0.259v-6c0-0.414,0.336-0.75,0.75-0.75s0.75,0.336,0.75,0.75
		v4.189l9.22-9.219c0.142-0.142,0.33-0.22,0.53-0.22s0.389,0.078,0.53,0.22c0.292,0.292,0.292,0.768,0,1.061L14.56,22.5h4.189
		c0.414,0,0.75,0.336,0.75,0.75S19.163,24,18.749,24H12.749z"/>
</g>
</svg>
