<?xml version="1.0" encoding="utf-8"?>
<!-- Generator: Adobe Illustrator 22.1.0, SVG Export Plug-In . SVG Version: 6.00 Build 0)  -->
<svg version="1.1" id="Regular" xmlns="http://www.w3.org/2000/svg" xmlns:xlink="http://www.w3.org/1999/xlink" x="0px" y="0px"
	 viewBox="0 0 24 24" style="enable-background:new 0 0 24 24;" xml:space="preserve">
<title>standing-lamp</title>
<g>
	<path d="M9,24c-0.414,0-0.75-0.336-0.75-0.75S8.587,22.5,9,22.5h2.25V9H10.5c-0.309,0-0.582-0.185-0.696-0.472l-3-7.5
		C6.711,0.797,6.739,0.536,6.879,0.33C7.019,0.123,7.251,0,7.5,0h9c0.249,0,0.481,0.123,0.621,0.329
		c0.14,0.206,0.168,0.467,0.075,0.699l-3,7.5C14.082,8.815,13.809,9,13.5,9h-0.75v13.5H15c0.414,0,0.75,0.336,0.75,0.75
		S15.414,24,15,24H9z M12.992,7.5l2.4-6H8.608l2.4,6H12.992z"/>
</g>
</svg>
