<?xml version="1.0" encoding="utf-8"?>
<!-- Generator: Adobe Illustrator 22.1.0, SVG Export Plug-In . SVG Version: 6.00 Build 0)  -->
<svg version="1.1" id="Regular" xmlns="http://www.w3.org/2000/svg" xmlns:xlink="http://www.w3.org/1999/xlink" x="0px" y="0px"
	 viewBox="0 0 24 24" style="enable-background:new 0 0 24 24;" xml:space="preserve">
<title>standing-lamp-1</title>
<g>
	<path d="M9,24c-0.414,0-0.75-0.336-0.75-0.75S8.586,22.5,9,22.5h2.25V8.942C8.7,8.574,6.75,6.357,6.75,3.75V1.5
		c0-0.827,0.673-1.5,1.5-1.5h7.5c0.827,0,1.5,0.673,1.5,1.5v2.25c0,2.607-1.95,4.824-4.5,5.192V22.5H15
		c0.414,0,0.75,0.336,0.75,0.75S15.414,24,15,24H9z M8.25,3.75C8.25,5.818,9.932,7.5,12,7.5c2.068,0,3.75-1.682,3.75-3.75V1.5h-7.5
		V3.75z"/>
</g>
</svg>
