<svg id="Outline_Version" data-name="Outline Version" xmlns="http://www.w3.org/2000/svg" viewBox="0 0 24 24"><title>statistics-daytum</title><path d="M22,23.5a.75.75,0,0,0,.75-.75v-18a.75.75,0,0,0-1.5,0v18A.75.75,0,0,0,22,23.5Z"/><path d="M17.25,13.75v9a.75.75,0,0,0,1.5,0v-9a.75.75,0,0,0-1.5,0Z"/><path d="M13.25,9.75v13a.75.75,0,0,0,1.5,0v-13a.75.75,0,0,0-1.5,0Z"/><path d="M9.25,16.75v6a.75.75,0,0,0,1.5,0v-6a.75.75,0,0,0-1.5,0Z"/><path d="M1.25,18.75v4a.75.75,0,0,0,1.5,0v-4a.75.75,0,0,0-1.5,0Z"/><path d="M5.25,13.25v9.5a.75.75,0,0,0,1.5,0v-9.5a.75.75,0,0,0-1.5,0Z"/><path d="M20.75,1.25A.75.75,0,0,0,20,.5H3.5A.75.75,0,0,0,3.5,2H20A.75.75,0,0,0,20.75,1.25Z"/></svg>