<?xml version="1.0" encoding="utf-8"?>
<!-- Generator: Adobe Illustrator 22.1.0, SVG Export Plug-In . SVG Version: 6.00 Build 0)  -->
<svg version="1.1" id="Regular" xmlns="http://www.w3.org/2000/svg" xmlns:xlink="http://www.w3.org/1999/xlink" x="0px" y="0px"
	 viewBox="0 0 24 24" style="enable-background:new 0 0 24 24;" xml:space="preserve">
<title>stove-pan</title>
<g>
	<path d="M9.75,11.25C8.509,11.25,7.5,10.241,7.5,9V5.25H0.75C0.336,5.25,0,4.914,0,4.5s0.336-0.75,0.75-0.75h22.5
		C23.664,3.75,24,4.087,24,4.5V9c0,1.241-1.009,2.25-2.25,2.25H9.75z M9,9c0,0.414,0.336,0.75,0.75,0.75h12
		c0.414,0,0.75-0.336,0.75-0.75V5.25H9V9z"/>
	<path d="M9.75,20.251c-0.127,0-0.253-0.033-0.364-0.094c-0.175-0.097-0.302-0.257-0.357-0.449c-0.055-0.193-0.032-0.395,0.065-0.57
		l1.121-2.021c0.283-0.483,0.774-0.779,1.32-0.799c0.023-0.002,0.06-0.003,0.096-0.003c0.49,0,0.963,0.234,1.267,0.625l0.086,0.118
		c0.007,0.009,0.041,0.026,0.081,0.026c0.078-0.003,0.097-0.035,0.103-0.046l1.101-1.983c0.015-0.027,0.033-0.056,0.053-0.083
		c0.104-0.141,0.23-0.268,0.375-0.375c0.308-0.226,0.671-0.345,1.051-0.345c0.563,0,1.098,0.27,1.431,0.722
		c0.019,0.025,0.035,0.052,0.051,0.079l1.111,2.002c0.005,0.009,0.03,0.026,0.064,0.027l0.028,0.001
		c0.042,0,0.074-0.015,0.097-0.044l0.058-0.081c0.32-0.413,0.785-0.644,1.283-0.644c0.041,0,0.082,0.002,0.123,0.005
		C20.515,16.337,21,16.63,21.276,17.1l1.13,2.037c0.097,0.175,0.12,0.378,0.065,0.57s-0.182,0.352-0.357,0.449
		c-0.111,0.062-0.237,0.094-0.363,0.094c-0.273,0-0.524-0.148-0.656-0.386l-1.121-2.021c-0.005-0.009-0.03-0.026-0.063-0.027
		c-0.003,0-0.006,0-0.009,0c-0.05,0-0.088,0.009-0.114,0.042l-0.059,0.082c-0.321,0.412-0.786,0.643-1.285,0.643
		c-0.04,0-0.08-0.001-0.12-0.004c-0.522-0.019-1.008-0.311-1.284-0.781l-1.089-1.961c-0.052-0.055-0.123-0.086-0.201-0.086
		c-0.041,0-0.102,0.009-0.161,0.053c-0.013,0.01-0.026,0.021-0.038,0.034l-1.079,1.944c-0.284,0.482-0.775,0.778-1.319,0.799
		c-0.025,0.002-0.062,0.003-0.099,0.003c-0.489,0-0.962-0.233-1.266-0.624L11.7,17.841c-0.006-0.008-0.04-0.026-0.083-0.026
		c-0.075,0.003-0.093,0.033-0.099,0.043l-1.113,2.006C10.274,20.102,10.023,20.251,9.75,20.251z"/>
</g>
</svg>
