<?xml version="1.0" encoding="utf-8"?>
<!-- Generator: Adobe Illustrator 22.1.0, SVG Export Plug-In . SVG Version: 6.00 Build 0)  -->
<svg version="1.1" id="Regular" xmlns="http://www.w3.org/2000/svg" xmlns:xlink="http://www.w3.org/1999/xlink" x="0px" y="0px"
	 viewBox="0 0 24 24" style="enable-background:new 0 0 24 24;" xml:space="preserve">
<title>stove-gas</title>
<g>
	<path d="M12.204,11.625c-1.15,0-2.231-0.447-3.042-1.257C8.351,9.557,7.903,8.478,7.903,7.33C7.806,5.867,8.596,4.439,9.918,3.717
		c0.11-0.06,0.234-0.092,0.36-0.092c0.115,0,0.231,0.027,0.334,0.078c0.221,0.11,0.373,0.32,0.408,0.563
		c0.028,0.193,0.142,0.357,0.302,0.453c0.392-1.051,0.195-2.242-0.536-3.113c-0.211-0.251-0.234-0.606-0.059-0.883
		c0.138-0.218,0.375-0.349,0.634-0.349c0.063,0,0.127,0.008,0.188,0.024c3.131,0.821,5.209,3.756,4.943,6.981
		c-0.042,2.334-1.923,4.209-4.281,4.245c-0.002,0-0.004,0-0.006,0H12.204z M10.005,5.535C9.581,6.009,9.359,6.637,9.401,7.281
		c0.002,0.787,0.293,1.498,0.821,2.026c0.528,0.528,1.23,0.818,1.976,0.818c1.542-0.024,2.772-1.256,2.795-2.806
		c0-0.021,0.001-0.036,0.002-0.052c0.152-1.796-0.66-3.534-2.075-4.581c0.226,1.099,0.05,2.257-0.516,3.244
		c-0.124,0.216-0.345,0.356-0.594,0.375c-0.055,0.004-0.11,0.006-0.164,0.006C11.011,6.311,10.407,6.018,10.005,5.535z"/>
	<path d="M21,23.625c-0.414,0-0.75-0.336-0.75-0.75v-4.5c0-0.414-0.336-0.75-0.75-0.75h-15c-0.414,0-0.75,0.336-0.75,0.75v4.5
		c0,0.414-0.336,0.75-0.75,0.75s-0.75-0.336-0.75-0.75v-4.5c0-1.241,1.009-2.25,2.25-2.25h2.25v-0.75c0-1.241,1.009-2.25,2.25-2.25
		c0.414,0,0.75,0.336,0.75,0.75s-0.336,0.75-0.75,0.75s-0.75,0.336-0.75,0.75v0.75h3v-2.25c0-0.414,0.336-0.75,0.75-0.75
		s0.75,0.336,0.75,0.75v2.25h3v-0.75c0-0.414-0.336-0.75-0.75-0.75s-0.75-0.336-0.75-0.75s0.336-0.75,0.75-0.75
		c1.241,0,2.25,1.009,2.25,2.25v0.75h2.25c1.241,0,2.25,1.009,2.25,2.25v4.5C21.75,23.289,21.414,23.625,21,23.625z"/>
	<path d="M16.5,23.625c-1.241,0-2.25-1.009-2.25-2.25s1.009-2.25,2.25-2.25s2.25,1.009,2.25,2.25S17.741,23.625,16.5,23.625z
		 M16.5,20.625c-0.414,0-0.75,0.336-0.75,0.75s0.336,0.75,0.75,0.75s0.75-0.336,0.75-0.75S16.914,20.625,16.5,20.625z"/>
	<path d="M7.5,23.625c-1.241,0-2.25-1.009-2.25-2.25s1.009-2.25,2.25-2.25s2.25,1.009,2.25,2.25S8.741,23.625,7.5,23.625z
		 M7.5,20.625c-0.414,0-0.75,0.336-0.75,0.75s0.336,0.75,0.75,0.75s0.75-0.336,0.75-0.75S7.914,20.625,7.5,20.625z"/>
</g>
</svg>
