<?xml version="1.0" encoding="utf-8"?>
<!-- Generator: Adobe Illustrator 22.1.0, SVG Export Plug-In . SVG Version: 6.00 Build 0)  -->
<svg version="1.1" id="Regular" xmlns="http://www.w3.org/2000/svg" xmlns:xlink="http://www.w3.org/1999/xlink" x="0px" y="0px"
	 viewBox="0 0 24 24" style="enable-background:new 0 0 24 24;" xml:space="preserve">
<title>stove-steamer-induction</title>
<g>
	<path d="M6,21.75c-0.414,0-0.75-0.336-0.75-0.75v-0.75c0-0.414,0.336-0.75,0.75-0.75s0.75,0.336,0.75,0.75V21
		C6.75,21.414,6.414,21.75,6,21.75z"/>
	<path d="M9,21.75c-0.414,0-0.75-0.336-0.75-0.75v-2.25C8.25,18.336,8.586,18,9,18s0.75,0.336,0.75,0.75V21
		C9.75,21.414,9.414,21.75,9,21.75z"/>
	<path d="M12,21.75c-0.414,0-0.75-0.336-0.75-0.75v-0.75c0-0.414,0.336-0.75,0.75-0.75s0.75,0.336,0.75,0.75V21
		C12.75,21.414,12.414,21.75,12,21.75z"/>
	<path d="M18,21.75c-0.414,0-0.75-0.336-0.75-0.75v-0.75c0-0.414,0.336-0.75,0.75-0.75s0.75,0.336,0.75,0.75V21
		C18.75,21.414,18.414,21.75,18,21.75z"/>
	<path d="M15,21.75c-0.414,0-0.75-0.336-0.75-0.75v-2.25c0-0.414,0.336-0.75,0.75-0.75s0.75,0.336,0.75,0.75V21
		C15.75,21.414,15.414,21.75,15,21.75z"/>
	<path d="M4.5,24c-0.414,0-0.75-0.336-0.75-0.75S4.086,22.5,4.5,22.5h15c0.414,0,0.75,0.336,0.75,0.75S19.914,24,19.5,24H4.5z"/>
	<path d="M7.5,16.5c-1.241,0-2.25-1.009-2.25-2.25V12H3c-0.414,0-0.75-0.336-0.75-0.75S2.586,10.5,3,10.5h2.25v-3H3
		c-0.414,0-0.75-0.336-0.75-0.75S2.586,6,3,6h2.25V4.5H4.5c-0.414,0-0.75-0.336-0.75-0.75S4.086,3,4.5,3h3.827
		C8.677,1.268,10.201,0,12,0s3.323,1.268,3.673,3H19.5c0.414,0,0.75,0.336,0.75,0.75S19.914,4.5,19.5,4.5h-0.75V6H21
		c0.414,0,0.75,0.336,0.75,0.75S21.414,7.5,21,7.5h-2.25v3H21c0.414,0,0.75,0.336,0.75,0.75S21.414,12,21,12h-2.25v2.25
		c0,1.241-1.009,2.25-2.25,2.25H7.5z M6.75,14.25C6.75,14.664,7.086,15,7.5,15h9c0.414,0,0.75-0.336,0.75-0.75V9H6.75V14.25z
		 M17.25,7.5v-3H6.75v3H17.25z M14.118,3C13.805,2.121,12.96,1.5,12,1.5S10.195,2.121,9.882,3H14.118z"/>
</g>
</svg>
