<?xml version="1.0" encoding="utf-8"?>
<!-- Generator: Adobe Illustrator 22.1.0, SVG Export Plug-In . SVG Version: 6.00 Build 0)  -->
<svg version="1.1" id="Layer_1" xmlns="http://www.w3.org/2000/svg" xmlns:xlink="http://www.w3.org/1999/xlink" x="0px" y="0px"
	 viewBox="0 0 24 24" style="enable-background:new 0 0 24 24;" xml:space="preserve">
<title>strategy-split</title>
<g>
	<path d="M12,24.001c-0.414,0-0.75-0.336-0.75-0.75v-1.3c0-3.81-1.734-6.226-5.45-7.58L5.298,15.58
		c-0.088,0.213-0.233,0.4-0.417,0.54c-0.229,0.174-0.501,0.265-0.786,0.265c-0.06,0-0.12-0.004-0.18-0.012
		c-0.346-0.048-0.652-0.228-0.863-0.505l-2.793-3.708c-0.133-0.175-0.22-0.385-0.251-0.606c-0.098-0.712,0.401-1.371,1.113-1.47
		l4.598-0.647C5.779,9.428,5.84,9.424,5.899,9.424c0.171,0,0.338,0.033,0.496,0.098c0.322,0.133,0.574,0.383,0.708,0.705
		c0.134,0.322,0.135,0.676,0.002,0.999c-0.001,0.002-0.731,1.76-0.731,1.76c2.212,0.817,3.82,1.984,4.875,3.543V6.75H9.651
		c-0.349,0-0.676-0.136-0.922-0.382C8.484,6.121,8.348,5.794,8.349,5.446c0-0.233,0.063-0.462,0.181-0.661l2.342-4.153
		c0.183-0.311,0.468-0.526,0.805-0.612c0.107-0.027,0.217-0.041,0.326-0.041c0.232,0,0.461,0.063,0.662,0.182
		c0.188,0.111,0.346,0.269,0.458,0.457l2.358,4.179c0.171,0.29,0.219,0.639,0.132,0.976c-0.087,0.338-0.301,0.62-0.601,0.797
		c-0.201,0.118-0.429,0.18-0.661,0.18H12.75v9.778c1.055-1.558,2.664-2.726,4.875-3.543l-0.73-1.757
		c-0.274-0.668,0.044-1.432,0.709-1.706c0.158-0.065,0.325-0.098,0.496-0.098c0.06,0,0.12,0.004,0.179,0.012l4.601,0.647
		c0.71,0.098,1.209,0.757,1.111,1.469c-0.031,0.221-0.118,0.431-0.252,0.609l-2.791,3.706c-0.212,0.279-0.518,0.459-0.863,0.507
		c-0.061,0.008-0.121,0.012-0.181,0.012c-0.286,0-0.557-0.092-0.786-0.265c-0.184-0.14-0.328-0.326-0.417-0.539L18.2,14.371
		c-3.716,1.354-5.45,3.77-5.45,7.58v1.3C12.75,23.664,12.414,24.001,12,24.001z M19.957,14.69l2.386-3.168l-3.931-0.553
		L19.957,14.69z M4.044,14.69l1.545-3.721l-3.931,0.553L4.044,14.69z M14.013,5.25L12,1.682L9.989,5.25H14.013z"/>
</g>
</svg>
