<?xml version="1.0" encoding="utf-8"?>
<!-- Generator: Adobe Illustrator 22.1.0, SVG Export Plug-In . SVG Version: 6.00 Build 0)  -->
<svg version="1.1" id="Layer_1" xmlns="http://www.w3.org/2000/svg" xmlns:xlink="http://www.w3.org/1999/xlink" x="0px" y="0px"
	 viewBox="0 0 24 24" style="enable-background:new 0 0 24 24;" xml:space="preserve">
<title>street-light</title>
<g>
	<path d="M0.75,24C0.336,24,0,23.664,0,23.25s0.336-0.75,0.75-0.75h6.914l1.358-5.432C9.106,16.733,9.405,16.5,9.75,16.5h1.5v-12
		c0-1.387-0.942-2.569-2.25-2.904V3c0,0.827-0.673,1.5-1.5,1.5H3C2.173,4.5,1.5,3.827,1.5,3V1.5C1.5,0.673,2.173,0,3,0h5.25
		C9.767,0,11.174,0.775,12,2.022C12.826,0.775,14.233,0,15.75,0H21c0.827,0,1.5,0.673,1.5,1.5V3c0,0.827-0.673,1.5-1.5,1.5h-4.5
		C15.673,4.5,15,3.827,15,3V1.596c-1.308,0.335-2.25,1.517-2.25,2.904v12h1.5c0.345,0,0.644,0.233,0.728,0.568l1.358,5.432h6.915
		c0.414,0,0.75,0.336,0.75,0.75S23.664,24,23.25,24H0.75z M14.79,22.5L13.665,18h-3.329l-1.125,4.5H14.79z M16.5,3H21V1.5h-4.5V3z
		 M3,3h4.5V1.5H3V3z"/>
	<path d="M6.75,9C6.336,9,6,8.664,6,8.25v-1.5C6,6.336,6.336,6,6.75,6S7.5,6.336,7.5,6.75v1.5C7.5,8.664,7.164,9,6.75,9z"/>
	<path d="M0.75,9c-0.2,0-0.389-0.078-0.53-0.22C0.078,8.639,0,8.45,0,8.25s0.078-0.389,0.22-0.53l1.5-1.5C1.861,6.078,2.05,6,2.25,6
		s0.389,0.078,0.53,0.22C2.922,6.361,3,6.55,3,6.75S2.922,7.139,2.78,7.28l-1.5,1.5C1.139,8.922,0.95,9,0.75,9z"/>
	<path d="M17.25,9c-0.414,0-0.75-0.336-0.75-0.75v-1.5C16.5,6.336,16.836,6,17.25,6S18,6.336,18,6.75v1.5C18,8.664,17.664,9,17.25,9
		z"/>
	<path d="M23.25,9c-0.2,0-0.389-0.078-0.53-0.22l-1.5-1.5C21.078,7.139,21,6.95,21,6.75s0.078-0.389,0.22-0.53S21.55,6,21.75,6
		s0.389,0.078,0.53,0.22l1.5,1.5C23.922,7.861,24,8.05,24,8.25s-0.078,0.389-0.22,0.53S23.45,9,23.25,9z"/>
</g>
</svg>
