<?xml version="1.0" encoding="utf-8"?>
<!-- Generator: Adobe Illustrator 22.1.0, SVG Export Plug-In . SVG Version: 6.00 Build 0)  -->
<svg version="1.1" id="Layer_1" xmlns="http://www.w3.org/2000/svg" xmlns:xlink="http://www.w3.org/1999/xlink" x="0px" y="0px"
	 viewBox="0 0 24 24" style="enable-background:new 0 0 24 24;" xml:space="preserve">
<title>study-owl</title>
<g>
	<path d="M8.25,10.876c-0.044,0-0.088-0.004-0.131-0.012c-0.513-0.06-0.922-0.47-0.982-0.982C7.129,9.84,7.125,9.796,7.125,9.751
		c0-0.044,0.004-0.088,0.012-0.131c0.06-0.513,0.47-0.922,0.982-0.982C8.162,8.63,8.206,8.626,8.25,8.626S8.338,8.63,8.381,8.638
		c0.513,0.06,0.922,0.47,0.982,0.982c0.008,0.043,0.012,0.086,0.012,0.131c0,0.044-0.004,0.088-0.012,0.131
		c-0.06,0.513-0.47,0.922-0.982,0.982C8.339,10.872,8.295,10.876,8.25,10.876z"/>
	<path d="M15.75,10.876c-0.044,0-0.088-0.004-0.131-0.011c-0.513-0.06-0.922-0.47-0.982-0.983c-0.008-0.042-0.011-0.086-0.011-0.13
		c0-0.044,0.004-0.088,0.011-0.13c0.06-0.513,0.47-0.923,0.983-0.983c0.043-0.008,0.087-0.011,0.131-0.011s0.088,0.004,0.131,0.011
		c0.513,0.06,0.922,0.47,0.982,0.983c0.008,0.042,0.011,0.086,0.011,0.13s-0.004,0.088-0.011,0.13
		c-0.06,0.513-0.469,0.922-0.982,0.983C15.838,10.872,15.794,10.876,15.75,10.876z"/>
	<path d="M12,24.087c-1.591,0-3.127-0.563-4.345-1.59C7.603,22.5,7.552,22.502,7.5,22.502c-1.603,0-3.11-0.625-4.243-1.759
		C2.124,19.61,1.5,18.103,1.5,16.5v-2.1c0-0.106,0.004-0.213,0.013-0.319c0.085-1.038,0.57-1.98,1.364-2.654
		c0.499-0.423,1.086-0.709,1.72-0.84C4.532,10.311,4.5,10.031,4.5,9.751c0-1.492,0.894-2.839,2.25-3.433V4.596L4.5,3.982v2.019
		c0,0.414-0.336,0.75-0.75,0.75S3,6.415,3,6.001c0,0,0-3.013,0.001-3.02c0.002-0.068,0.013-0.132,0.034-0.199
		c0.002-0.007,0.012-0.037,0.015-0.045c0.024-0.063,0.056-0.122,0.095-0.176c0.006-0.008,0.024-0.03,0.03-0.038
		C3.218,2.471,3.262,2.43,3.31,2.395C3.316,2.391,3.34,2.374,3.347,2.37C3.393,2.34,3.442,2.316,3.495,2.297
		c0.019-0.008,0.04-0.016,0.057-0.021l7.861-2.141c0.194-0.052,0.393-0.079,0.592-0.079s0.398,0.026,0.591,0.078l7.851,2.141
		C20.773,2.366,21,2.663,21,3c0,0.337-0.227,0.635-0.552,0.724L18,4.392v2.361c0.943,0.708,1.5,1.814,1.5,2.998
		c0,0.338-0.045,0.671-0.134,0.993c0.59,0.115,1.147,0.368,1.63,0.743c0.819,0.635,1.342,1.552,1.473,2.58
		c0.019,0.149,0.029,0.3,0.031,0.448v2.073c-0.031,3.264-2.707,5.917-5.966,5.917l-0.059,0c-0.044,0-0.089-0.003-0.133-0.005
		C15.125,23.525,13.589,24.087,12,24.087z M8.631,21.358c0.945,0.793,2.138,1.229,3.369,1.229c1.23,0,2.423-0.436,3.368-1.228
		c0.078-0.138,0.198-0.248,0.341-0.312c0.994-0.993,1.541-2.308,1.541-3.71V15c0-0.414,0.336-0.75,0.75-0.75s0.75,0.336,0.75,0.75
		v2.337c0,1.233-0.343,2.444-0.977,3.492c1.871-0.532,3.208-2.23,3.227-4.249v-2.058c-0.001-0.084-0.007-0.178-0.019-0.268
		c-0.08-0.631-0.401-1.193-0.903-1.583c-0.419-0.325-0.921-0.497-1.452-0.497c-0.007,0-0.014,0-0.021,0
		c-0.716,0.845-1.747,1.326-2.855,1.326c-0.349,0-0.697-0.051-1.039-0.15l-2.181,2.18c-0.142,0.142-0.33,0.22-0.53,0.22
		s-0.389-0.078-0.53-0.22l-2.181-2.18c-0.341,0.1-0.69,0.15-1.039,0.15c-1.18,0-2.284-0.554-2.993-1.493
		c-0.523,0.029-1.008,0.222-1.41,0.563c-0.489,0.414-0.787,0.994-0.839,1.633C3.003,14.269,3,14.335,3,14.4v2.1
		c0,1.202,0.468,2.333,1.318,3.183c0.542,0.542,1.189,0.926,1.903,1.135c-0.63-1.046-0.971-2.253-0.971-3.481V15
		c0-0.414,0.336-0.75,0.75-0.75S6.75,14.587,6.75,15v2.337c0,1.403,0.547,2.719,1.543,3.712C8.434,21.115,8.553,21.223,8.631,21.358
		z M12,13.941l1.33-1.329C12.49,11.902,12,10.862,12,9.751c0-2.068,1.682-3.75,3.75-3.75c0.251,0,0.502,0.026,0.75,0.078V4.802
		l-3.902,1.066c-0.194,0.053-0.393,0.079-0.593,0.079c-0.202,0-0.403-0.027-0.597-0.08L8.25,5.005v0.996
		c2.068,0,3.75,1.682,3.75,3.75c0,1.111-0.49,2.151-1.329,2.86L12,13.941z M15.75,7.501c-1.241,0-2.25,1.009-2.25,2.25
		c0,1.241,1.009,2.25,2.25,2.25S18,10.992,18,9.751C18,8.511,16.991,7.501,15.75,7.501z M8.25,7.501C7.009,7.501,6,8.511,6,9.751
		c0,1.241,1.009,2.25,2.25,2.25s2.25-1.009,2.25-2.25C10.5,8.511,9.491,7.501,8.25,7.501z M11.802,4.42
		c0.066,0.018,0.133,0.027,0.202,0.027c0.068,0,0.135-0.009,0.2-0.026l5.197-1.42l-5.199-1.418c-0.064-0.017-0.13-0.026-0.198-0.026
		c-0.067,0-0.135,0.009-0.199,0.026L6.602,3.001L11.802,4.42z"/>
</g>
</svg>
