<?xml version="1.0" encoding="utf-8"?>
<!-- Generator: Adobe Illustrator 22.1.0, SVG Export Plug-In . SVG Version: 6.00 Build 0)  -->
<svg version="1.1" id="Layer_1" xmlns="http://www.w3.org/2000/svg" xmlns:xlink="http://www.w3.org/1999/xlink" x="0px" y="0px"
	 viewBox="0 0 24 24" style="enable-background:new 0 0 24 24;" xml:space="preserve">
<title>study-brain-1</title>
<g>
	<path d="M17.25,23.256c-0.414,0-0.75-0.336-0.75-0.75v-4.5c0-0.414,0.336-0.75,0.75-0.75h2.25c0.801,0,1.554-0.313,2.12-0.879
		c0.566-0.567,0.878-1.32,0.877-2.121c0-0.452-0.103-0.894-0.299-1.299c-0.957,0.841-2.165,1.299-3.448,1.299h-1.5
		c-0.414,0-0.75-0.336-0.75-0.75s0.336-0.75,0.75-0.75h1.5c1.184,0,2.276-0.548,2.994-1.503c0.058-0.077,0.114-0.156,0.165-0.237
		l0.042-0.07c0.052-0.085,0.101-0.172,0.146-0.261l0.019-0.04c0.055-0.114,0.097-0.21,0.134-0.308c0-0.001,0.012-0.035,0.013-0.036
		c0.042-0.112,0.076-0.221,0.104-0.324c0.387-1.471-0.132-3.011-1.321-3.935c-0.654-0.507-1.469-0.787-2.296-0.788
		c-0.002,0-0.004,0-0.006,0c0.003,1.421-0.65,2.748-1.793,3.606c-0.131,0.098-0.287,0.15-0.45,0.15c-0.235,0-0.459-0.112-0.6-0.3
		c-0.248-0.331-0.181-0.802,0.15-1.05c0.941-0.706,1.381-1.907,1.123-3.061c-0.01-0.042-0.016-0.07-0.023-0.097
		c-0.017-0.065-0.037-0.13-0.058-0.193l-0.028-0.083c-0.025-0.068-0.054-0.139-0.086-0.208l-0.024-0.053
		c-0.037-0.076-0.078-0.154-0.123-0.229L17.14,3.52l-0.321,0.193c-0.049-0.082-0.103-0.163-0.162-0.241
		c-0.064-0.085-0.126-0.16-0.191-0.232c-0.072-0.078-0.135-0.139-0.199-0.197c-0.002-0.002-0.021-0.02-0.023-0.022
		c-0.069-0.061-0.13-0.109-0.193-0.156l-0.053-0.041c-0.065-0.047-0.133-0.09-0.201-0.131c-0.003-0.002-0.023-0.015-0.026-0.016
		c-0.472-0.274-0.995-0.414-1.526-0.414c-0.046,0-0.093,0.001-0.139,0.003c0,0-0.002,0-0.003,0
		c-0.086,0.004-0.171,0.013-0.257,0.025l-0.049,0.006c-0.081,0.012-0.161,0.028-0.24,0.047L13.424,1.99l0.091,0.364
		c-0.082,0.021-0.164,0.045-0.245,0.073c-0.001,0.001-0.028,0.009-0.029,0.01c-0.278,0.099-0.54,0.239-0.779,0.416
		c0,0-0.027,0.021-0.027,0.021c-0.067,0.051-0.132,0.105-0.193,0.16l-0.052,0.048c-0.052,0.049-0.101,0.1-0.149,0.152l-0.055,0.06
		c-0.047,0.053-0.09,0.108-0.132,0.164l-0.043,0.056c-0.167,0.233-0.299,0.488-0.392,0.756c-0.033,0.095-0.058,0.182-0.08,0.27
		l-0.372-0.057l0.365,0.087c-0.019,0.08-0.035,0.161-0.047,0.242l-0.005,0.033c-0.012,0.091-0.019,0.164-0.024,0.238L11.255,5.16
		c-0.003,0.074-0.003,0.147,0,0.22c0,0.003,0.001,0.023,0.001,0.026c0.032,0.611,0.236,1.176,0.591,1.651
		c0.247,0.331,0.179,0.802-0.152,1.05c-0.131,0.098-0.286,0.149-0.448,0.149c-0.235,0-0.46-0.113-0.601-0.301
		c-0.407-0.546-0.686-1.181-0.812-1.851C9.553,6.04,9.27,6.007,8.987,6.007c-0.553,0-1.09,0.122-1.595,0.361
		c-0.905,0.43-1.588,1.186-1.924,2.129c-0.143,0.4-0.216,0.83-0.216,1.259H6.75c0.414,0,0.75,0.336,0.75,0.75s-0.336,0.75-0.75,0.75
		H4.563c-0.009,0-0.063-0.001-0.063-0.001c-1.654,0-3,1.346-3,3s1.346,3,3,3h3.313v-2.25c0-0.414-0.336-0.75-0.75-0.75
		s-0.75-0.336-0.75-0.75s0.336-0.75,0.75-0.75c1.241,0,2.25,1.009,2.25,2.25v2.828c0.503,1.018,1.552,1.672,2.694,1.672
		c0.412,0,0.813-0.084,1.194-0.25c0.096-0.042,0.196-0.094,0.3-0.156v-2.594c0-0.414-0.336-0.75-0.75-0.75h-1.5
		c-0.414,0-0.75-0.336-0.75-0.75s0.336-0.75,0.75-0.75h1.5c1.241,0,2.25,1.009,2.25,2.25v6c0,0.414-0.336,0.75-0.75,0.75
		s-0.75-0.336-0.75-0.75v-1.757c-0.481,0.171-0.982,0.257-1.494,0.257c-1.627,0-3.101-0.856-3.903-2.25H4.5
		c-2.481,0-4.5-2.019-4.5-4.5c0-2.193,1.621-4.076,3.751-4.437c-0.007-0.62,0.097-1.244,0.303-1.824
		c0.47-1.321,1.427-2.38,2.694-2.981c0.712-0.338,1.469-0.51,2.248-0.51c0.27,0,0.54,0.021,0.808,0.063
		c0.042-0.262,0.107-0.522,0.195-0.777c0.001-0.004,0.01-0.027,0.011-0.031c0.044-0.123,0.089-0.236,0.14-0.347l0.038-0.082
		c0.046-0.096,0.095-0.191,0.148-0.284l0.054-0.094c0.057-0.095,0.116-0.186,0.179-0.275c0,0,0.039-0.057,0.052-0.075
		c0.085-0.117,0.175-0.228,0.265-0.33c0.088-0.099,0.185-0.198,0.298-0.303l0.043-0.039c0.106-0.095,0.201-0.174,0.299-0.248
		c0.007-0.007,0.019-0.016,0.031-0.025c0.007-0.006,0.029-0.02,0.037-0.026c0.101-0.074,0.212-0.149,0.323-0.216l0.03-0.019
		c0.256-0.153,0.525-0.279,0.801-0.377c0.132-0.046,0.266-0.086,0.405-0.121l0.109-0.026c0.058-0.014,0.115-0.028,0.174-0.039
		c0.031-0.006,0.061-0.01,0.092-0.013l0.109-0.014c0.142-0.019,0.267-0.031,0.392-0.038c0.085-0.004,0.159-0.006,0.233-0.006
		c0.653,0,1.284,0.139,1.875,0.414c0.138,0.065,0.255,0.126,0.369,0.192c0.02,0.011,0.138,0.084,0.138,0.084
		c0.054,0.032,0.109,0.065,0.161,0.101c0.018,0.012,0.034,0.025,0.051,0.038l0.085,0.064c0.094,0.07,0.185,0.143,0.273,0.219
		l0.049,0.044c0.106,0.096,0.197,0.185,0.283,0.278l0.03,0.032c0.407,0.444,0.714,0.956,0.914,1.521
		c0,0.002,0.002,0.006,0.004,0.012c0.085-0.004,0.171-0.007,0.257-0.007c1.16,0.001,2.302,0.393,3.217,1.103
		c1.244,0.966,1.979,2.426,2.021,4.011C23.996,8.917,24,8.961,24,9.006c0,0.971-0.266,1.911-0.772,2.736
		c0.497,0.739,0.769,1.621,0.769,2.513c0,1.202-0.467,2.332-1.316,3.182c-0.849,0.85-1.979,1.319-3.181,1.319H18v3.75
		C18,22.919,17.664,23.256,17.25,23.256z"/>
</g>
</svg>
