<?xml version="1.0" encoding="utf-8"?>
<!-- Generator: Adobe Illustrator 22.1.0, SVG Export Plug-In . SVG Version: 6.00 Build 0)  -->
<svg version="1.1" id="Layer_1" xmlns="http://www.w3.org/2000/svg" xmlns:xlink="http://www.w3.org/1999/xlink" x="0px" y="0px"
	 viewBox="0 0 24 24" style="enable-background:new 0 0 24 24;" xml:space="preserve">
<title>study-desk</title>
<g>
	<path d="M22.499,24.038c-0.356,0-0.665-0.254-0.735-0.603l-1.379-6.897H3.614l-1.379,6.897c-0.07,0.349-0.379,0.603-0.735,0.603
		c-0.051,0-0.101-0.005-0.15-0.015c-0.194-0.039-0.363-0.152-0.475-0.319c-0.111-0.167-0.151-0.367-0.111-0.563l1.321-6.603h-0.21
		c-0.69,0-1.288-0.468-1.455-1.137l-0.375-1.499c-0.098-0.387-0.038-0.79,0.167-1.134c0.205-0.344,0.532-0.587,0.921-0.685
		c0.119-0.03,0.243-0.046,0.367-0.046h0.129c-0.085-0.239-0.129-0.491-0.129-0.75c0-0.563,0.206-1.091,0.575-1.5
		c-0.37-0.409-0.575-0.937-0.575-1.5c0-1.241,1.009-2.25,2.25-2.25h6.723c0.414,0,0.75,0.336,0.75,0.75s-0.336,0.75-0.75,0.75h-0.75
		v1.5h0.75c0.414,0,0.75,0.336,0.75,0.75s-0.336,0.75-0.75,0.75h-0.75v1.5h3.854c0.3-1.459,1.464-2.623,2.923-2.923V4.538
		c0-0.286-0.08-0.558-0.223-0.789c0.089,1.289-0.494,2.562-1.598,3.331c-0.126,0.088-0.274,0.134-0.428,0.134
		c-0.043,0-0.087-0.004-0.131-0.011c-0.198-0.036-0.37-0.146-0.484-0.31l-3.426-4.926c-0.114-0.164-0.158-0.364-0.122-0.561
		c0.035-0.197,0.146-0.369,0.31-0.483c0.632-0.44,1.37-0.672,2.135-0.672c0.223,0,0.448,0.02,0.669,0.06
		c0.852,0.153,1.622,0.597,2.184,1.255c1.48,0.19,2.616,1.465,2.616,2.973v4.577c1.459,0.3,2.623,1.464,2.923,2.923h1.577
		c0.826,0,1.499,0.672,1.5,1.497c0,0.125-0.015,0.249-0.046,0.368l-0.375,1.498c-0.166,0.669-0.764,1.136-1.454,1.136h-0.211
		l1.321,6.603c0.039,0.196,0,0.396-0.111,0.563c-0.111,0.167-0.281,0.28-0.477,0.319C22.597,24.033,22.547,24.038,22.499,24.038z
		 M1.497,13.539l0.378,1.5h20.249l0.375-1.5H1.499C1.499,13.538,1.498,13.538,1.497,13.539z M19.367,12.038
		c-0.313-0.879-1.158-1.5-2.118-1.5s-1.805,0.62-2.118,1.5H19.367z M3.749,10.538c-0.414,0-0.75,0.336-0.75,0.75
		c0,0.413,0.336,0.75,0.75,0.75h4.473v-1.5H3.749z M3.749,7.538c-0.414,0-0.75,0.336-0.75,0.75s0.336,0.75,0.75,0.75h4.473v-1.5
		H3.749z M14.363,5.315c0.543-0.759,0.57-1.808,0.02-2.598c-0.343-0.493-0.858-0.824-1.45-0.93C12.8,1.763,12.665,1.75,12.531,1.75
		c-0.202,0-0.4,0.027-0.591,0.08L14.363,5.315z"/>
</g>
</svg>
