<?xml version="1.0" encoding="utf-8"?>
<!-- Generator: Adobe Illustrator 22.1.0, SVG Export Plug-In . SVG Version: 6.00 Build 0)  -->
<svg version="1.1" id="Layer_1" xmlns="http://www.w3.org/2000/svg" xmlns:xlink="http://www.w3.org/1999/xlink" x="0px" y="0px"
	 viewBox="0 0 24 24" style="enable-background:new 0 0 24 24;" xml:space="preserve">
<title>style-one-pin-bolt</title>
<g>
	<path d="M10.755,15c-0.099,0-0.196-0.019-0.287-0.057c-0.281-0.116-0.463-0.388-0.463-0.693V10.5h-1.35
		c-0.3,0-0.583-0.117-0.795-0.329C7.648,9.959,7.531,9.676,7.531,9.376c0-0.301,0.117-0.583,0.329-0.796l5.36-5.36
		C13.362,3.078,13.55,3,13.75,3c0.099,0,0.196,0.019,0.287,0.057C14.318,3.173,14.5,3.445,14.5,3.75V7.5h1.35
		c0.301,0,0.583,0.117,0.795,0.329c0.213,0.213,0.33,0.495,0.33,0.796c0,0.3-0.117,0.583-0.329,0.796l-5.36,5.36
		C11.144,14.922,10.955,15,10.755,15z M10.755,9c0.414,0,0.75,0.336,0.75,0.75v2.689L14.945,9L13.75,9C13.336,9,13,8.663,13,8.25
		V5.56L9.561,9L10.755,9z"/>
	<path d="M12.25,24c-0.308,0-0.59-0.193-0.7-0.481l-1.656-4.306C5.598,18.141,2.501,14.195,2.5,9.754
		c-0.001-5.376,4.372-9.751,9.748-9.752c5.377,0,9.751,4.373,9.752,9.748c0.001,4.443-3.096,8.391-7.394,9.463l-1.656,4.306
		C12.839,23.807,12.558,24,12.25,24z M12.248,1.502C7.699,1.503,3.999,5.204,4,9.753c0.001,3.903,2.776,7.301,6.6,8.082
		c0.252,0.052,0.458,0.226,0.55,0.466l1.1,2.859l1.1-2.86c0.093-0.24,0.298-0.414,0.55-0.466c3.825-0.781,6.601-4.181,6.6-8.085
		c-0.001-4.548-3.702-8.248-8.25-8.248l-0.002-0.375L12.248,1.502z"/>
</g>
</svg>
