<?xml version="1.0" encoding="utf-8"?>
<!-- Generator: Adobe Illustrator 22.1.0, SVG Export Plug-In . SVG Version: 6.00 Build 0)  -->
<svg version="1.1" id="Layer_1" xmlns="http://www.w3.org/2000/svg" xmlns:xlink="http://www.w3.org/1999/xlink" x="0px" y="0px"
	 viewBox="0 0 24 24" style="enable-background:new 0 0 24 24;" xml:space="preserve">
<title>style-three-pin-parking</title>
<g>
	<path d="M11.999,23.947c-0.26,0-0.517-0.068-0.742-0.196c-0.874-0.499-3.124-1.906-5.143-4.208c-2.564-2.922-3.864-6.2-3.864-9.744
		c0-5.376,4.374-9.75,9.75-9.75s9.75,4.374,9.75,9.75c0,3.544-1.3,6.822-3.865,9.744c-2.017,2.299-4.268,3.708-5.142,4.208
		C12.517,23.879,12.26,23.947,11.999,23.947z M12,1.549c-4.549,0-8.25,3.701-8.25,8.25c0,1.863,0.595,8.282,8.25,12.649
		c7.655-4.372,8.25-10.786,8.25-12.649C20.25,5.25,16.549,1.549,12,1.549z"/>
	<path d="M9.75,16.447c-0.414,0-0.75-0.336-0.75-0.75v-9.75c0-0.414,0.336-0.75,0.75-0.75c0.011,0,0.026,0.001,0.04,0.002h3.335
		c1.861,0,3.375,1.514,3.375,3.375s-1.514,3.375-3.375,3.375H10.5v3.748C10.5,16.111,10.164,16.447,9.75,16.447z M13.125,10.449
		c1.034,0,1.875-0.841,1.875-1.875s-0.841-1.875-1.875-1.875H10.5v3.75H13.125z"/>
</g>
</svg>
