<?xml version="1.0" encoding="utf-8"?>
<!-- Generator: Adobe Illustrator 22.1.0, SVG Export Plug-In . SVG Version: 6.00 Build 0)  -->
<svg version="1.1" id="Layer_1" xmlns="http://www.w3.org/2000/svg" xmlns:xlink="http://www.w3.org/1999/xlink" x="0px" y="0px"
	 viewBox="0 0 24 24" style="enable-background:new 0 0 24 24;" xml:space="preserve">
<title>style-three-pin-bin</title>
<g>
	<path d="M11.999,23.947c-0.26,0-0.517-0.068-0.742-0.196c-0.874-0.499-3.124-1.906-5.143-4.208c-2.564-2.922-3.864-6.2-3.864-9.744
		c0-5.376,4.374-9.75,9.75-9.75s9.75,4.374,9.75,9.75c0,3.544-1.3,6.822-3.865,9.744c-2.017,2.299-4.268,3.708-5.142,4.208
		C12.517,23.879,12.26,23.947,11.999,23.947z M12,1.549c-4.549,0-8.25,3.701-8.25,8.25c0,1.863,0.595,8.282,8.25,12.649
		c7.655-4.372,8.25-10.786,8.25-12.649C20.25,5.25,16.549,1.549,12,1.549z"/>
	<path d="M9.75,14.947c-0.377,0-0.697-0.282-0.744-0.657L8.338,8.947H7.5c-0.414,0-0.75-0.336-0.75-0.75s0.336-0.75,0.75-0.75h2.25
		V6.699c0-1.241,1.009-2.25,2.25-2.25c1.241,0,2.25,1.009,2.25,2.25v0.748h2.25c0.414,0,0.75,0.336,0.75,0.75s-0.336,0.75-0.75,0.75
		h-0.838l-0.668,5.343c-0.047,0.374-0.367,0.657-0.744,0.657H9.75z M13.588,13.447l0.562-4.5h-0.611
		C13.525,8.948,13.51,8.949,13.5,8.949c-0.014,0-0.028-0.001-0.042-0.002h-2.919C10.525,8.948,10.51,8.949,10.5,8.949
		c-0.014,0-0.028-0.001-0.042-0.002H9.85l0.562,4.5H13.588z M12.75,7.447V6.699c0-0.414-0.336-0.75-0.75-0.75s-0.75,0.336-0.75,0.75
		v0.748H12.75z"/>
</g>
</svg>
