<?xml version="1.0" encoding="utf-8"?>
<!-- Generator: Adobe Illustrator 22.1.0, SVG Export Plug-In . SVG Version: 6.00 Build 0)  -->
<svg version="1.1" id="Layer_1" xmlns="http://www.w3.org/2000/svg" xmlns:xlink="http://www.w3.org/1999/xlink" x="0px" y="0px"
	 viewBox="0 0 24 24" style="enable-background:new 0 0 24 24;" xml:space="preserve">
<title>style-one-pin-book</title>
<g>
	<path d="M12,16.5c-0.062,0-0.125-0.009-0.189-0.025c-0.014-0.004-0.045-0.014-0.058-0.019c-0.033-0.01-0.061-0.021-0.089-0.035
		l-4.499-2.25C6.909,14.043,6.75,13.786,6.75,13.5V6.75c0-0.262,0.133-0.5,0.356-0.638C7.224,6.039,7.36,6,7.5,6
		c0.116,0,0.231,0.027,0.335,0.079L12,8.161l4.165-2.082C16.268,6.027,16.384,6,16.5,6c0.14,0,0.276,0.039,0.395,0.112
		C17.117,6.25,17.25,6.488,17.25,6.75v6.75c0,0.286-0.159,0.543-0.415,0.671l-4.5,2.25c-0.029,0.014-0.057,0.025-0.086,0.034
		c-0.014,0.006-0.046,0.016-0.061,0.02C12.125,16.492,12.061,16.5,12,16.5z M12.75,14.536l3-1.5V7.963l-3,1.5V14.536z M11.25,14.536
		V9.463l-3-1.5v5.073L11.25,14.536z"/>
	<path d="M12,6.75c-0.116,0-0.232-0.027-0.335-0.079L8.643,5.16c-0.37-0.185-0.52-0.636-0.335-1.006
		c0.128-0.256,0.386-0.415,0.672-0.415c0.115,0,0.231,0.027,0.334,0.079L12,5.161l2.657-1.332c0.104-0.052,0.22-0.08,0.336-0.08
		c0.286,0,0.543,0.159,0.671,0.414c0.09,0.179,0.104,0.382,0.041,0.572c-0.063,0.19-0.197,0.344-0.376,0.434l-2.993,1.5
		C12.232,6.722,12.116,6.75,12,6.75z"/>
	<path d="M12,24c-0.308,0-0.59-0.193-0.7-0.481l-1.656-4.306c-4.296-1.072-7.393-5.017-7.394-9.459
		c-0.001-5.376,4.372-9.751,9.748-9.752c5.377,0,9.751,4.373,9.752,9.748c0.001,4.443-3.096,8.391-7.394,9.463L12.7,23.519
		C12.589,23.807,12.308,24,12,24z M11.998,1.502C7.449,1.503,3.749,5.204,3.75,9.753c0.001,3.903,2.776,7.301,6.6,8.082
		c0.252,0.052,0.458,0.226,0.55,0.466L12,21.16l1.1-2.86c0.093-0.24,0.298-0.414,0.55-0.466c3.825-0.781,6.601-4.181,6.6-8.085
		C20.249,5.202,16.548,1.502,12,1.502l-0.002-0.375L11.998,1.502z"/>
</g>
</svg>
