<?xml version="1.0" encoding="utf-8"?>
<!-- Generator: Adobe Illustrator 22.1.0, SVG Export Plug-In . SVG Version: 6.00 Build 0)  -->
<svg version="1.1" id="Layer_1" xmlns="http://www.w3.org/2000/svg" xmlns:xlink="http://www.w3.org/1999/xlink" x="0px" y="0px"
	 viewBox="0 0 24 24" style="enable-background:new 0 0 24 24;" xml:space="preserve">
<title>style-two-pin-warning</title>
<g>
	<path d="M12.001,13.507c-0.112,0-0.224-0.017-0.332-0.05c-0.041-0.013-0.082-0.029-0.121-0.049
		c-0.474-0.208-0.745-0.722-0.651-1.231c0.003-0.02,0.007-0.04,0.012-0.06c0.003-0.017,0.007-0.038,0.013-0.059
		c0.001-0.005,0.003-0.01,0.005-0.015c0.005-0.014,0.018-0.046,0.024-0.059c0.007-0.018,0.014-0.034,0.021-0.05
		c0.179-0.409,0.582-0.672,1.029-0.672c0.068,0,0.136,0.006,0.203,0.019c0.019,0.003,0.038,0.006,0.057,0.011
		c0.018,0.003,0.05,0.01,0.068,0.016c0.001,0,0.002,0,0.002,0.001c0.024,0.007,0.046,0.017,0.068,0.027
		c0.016,0.006,0.032,0.013,0.048,0.02c0.479,0.21,0.754,0.732,0.653,1.246c0,0.003-0.003,0.018-0.005,0.023
		c-0.005,0.03-0.01,0.057-0.018,0.084c0,0-0.003,0.011-0.005,0.016c-0.09,0.282-0.283,0.514-0.545,0.652
		C12.365,13.462,12.183,13.507,12.001,13.507z"/>
	<path d="M12,10.507c-0.414,0-0.75-0.336-0.75-0.75v-3c0-0.414,0.336-0.75,0.75-0.75s0.75,0.336,0.75,0.75v3
		C12.75,10.171,12.414,10.507,12,10.507z"/>
	<path d="M11.999,23.905c-0.261,0-0.518-0.068-0.743-0.197c-0.875-0.5-3.126-1.911-5.142-4.209C3.55,16.578,2.25,13.3,2.25,9.757
		c0-5.376,4.374-9.75,9.75-9.75s9.75,4.374,9.75,9.75c0,3.544-1.3,6.822-3.865,9.744c-2.017,2.299-4.268,3.708-5.142,4.208
		C12.518,23.837,12.26,23.905,11.999,23.905z M12,1.507c-4.549,0-8.25,3.701-8.25,8.25c0,1.861,0.595,8.273,8.25,12.649
		c7.655-4.372,8.25-10.787,8.25-12.649C20.25,5.208,16.549,1.507,12,1.507z"/>
</g>
</svg>
