<?xml version="1.0" encoding="utf-8"?>
<!-- Generator: Adobe Illustrator 22.1.0, SVG Export Plug-In . SVG Version: 6.00 Build 0)  -->
<svg version="1.1" id="Layer_1" xmlns="http://www.w3.org/2000/svg" xmlns:xlink="http://www.w3.org/1999/xlink" x="0px" y="0px"
	 viewBox="0 0 24 24" style="enable-background:new 0 0 24 24;" xml:space="preserve">
<title>style-three-pin-plane-fly</title>
<g>
	<path d="M11.999,23.947c-0.26,0-0.517-0.068-0.742-0.196c-0.874-0.499-3.124-1.906-5.143-4.208c-2.564-2.922-3.864-6.2-3.864-9.744
		c0-5.376,4.374-9.75,9.75-9.75s9.75,4.374,9.75,9.75c0,3.544-1.3,6.822-3.865,9.744c-2.017,2.299-4.268,3.708-5.142,4.208
		C12.517,23.879,12.26,23.947,11.999,23.947z M12,1.549c-4.549,0-8.25,3.701-8.25,8.25c0,1.863,0.595,8.282,8.25,12.649
		c7.655-4.372,8.25-10.786,8.25-12.649C20.25,5.25,16.549,1.549,12,1.549z"/>
	<path d="M9.75,15.799c-0.827,0-1.5-0.673-1.5-1.5v-1.146l-1.294,0.37C6.89,13.542,6.82,13.551,6.75,13.551
		c-0.162,0-0.323-0.054-0.452-0.152C6.112,13.259,6,13.035,6,12.801v-1.5c0-0.166,0.056-0.329,0.158-0.46l5.25-6.75
		C11.547,3.911,11.763,3.809,12,3.809c0.237,0,0.453,0.103,0.592,0.282l5.25,6.75C17.944,10.971,18,11.135,18,11.301v1.5
		c0,0.234-0.112,0.458-0.299,0.599c-0.129,0.097-0.289,0.151-0.451,0.151c-0.07,0-0.14-0.01-0.207-0.029l-1.293-0.37v1.146
		c0,0.827-0.673,1.5-1.5,1.5H9.75z M9.75,14.299h4.5v-1.575L12,12.081l-2.25,0.643V14.299z M7.5,11.807l4.294-1.227
		c0.067-0.019,0.136-0.029,0.206-0.029s0.139,0.01,0.206,0.029l4.294,1.227v-0.249L12,5.773l-4.5,5.786V11.807z"/>
</g>
</svg>
