<?xml version="1.0" encoding="utf-8"?>
<!-- Generator: Adobe Illustrator 22.1.0, SVG Export Plug-In . SVG Version: 6.00 Build 0)  -->
<svg version="1.1" id="Layer_1" xmlns="http://www.w3.org/2000/svg" xmlns:xlink="http://www.w3.org/1999/xlink" x="0px" y="0px"
	 viewBox="0 0 24 24" style="enable-background:new 0 0 24 24;" xml:space="preserve">
<title>style-three-pin-facade</title>
<g>
	<path d="M11.999,23.947c-0.26,0-0.517-0.068-0.742-0.196c-0.874-0.499-3.124-1.906-5.143-4.208c-2.564-2.922-3.864-6.2-3.864-9.744
		c0-5.376,4.374-9.75,9.75-9.75s9.75,4.374,9.75,9.75c0,3.544-1.3,6.822-3.865,9.744c-2.017,2.299-4.268,3.708-5.142,4.208
		C12.517,23.879,12.26,23.947,11.999,23.947z M12,1.549c-4.549,0-8.25,3.701-8.25,8.25c0,1.863,0.595,8.282,8.25,12.649
		c7.655-4.372,8.25-10.786,8.25-12.649C20.25,5.25,16.549,1.549,12,1.549z"/>
	<path d="M8.922,15.647c-0.622,0-1.187-0.391-1.406-0.973c-0.107-0.287-0.125-0.594-0.051-0.891l1.152-4.609
		c0.167-0.669,0.766-1.136,1.456-1.136c0.122,0,0.244,0.015,0.363,0.045c0.217,0.054,0.424,0.159,0.597,0.303l1.2,1l1.306-1.478
		l-1.341-1.452c-0.274-0.297-0.265-0.753,0.021-1.039l1.5-1.5c0.142-0.142,0.33-0.22,0.53-0.22s0.389,0.078,0.53,0.22
		C14.922,4.058,15,4.247,15,4.447s-0.078,0.389-0.22,0.53l-0.99,0.99l1.311,1.421c0.262,0.284,0.266,0.716,0.011,1.005l-1.726,1.953
		l1.103,0.919c0.308,0.256,0.498,0.617,0.534,1.016c0.036,0.399-0.085,0.789-0.341,1.097c-0.165,0.199-0.383,0.354-0.627,0.445
		l-4.607,1.728C9.278,15.615,9.101,15.647,8.922,15.647z M8.921,14.147l4.608-1.728l-3.456-2.88L8.921,14.147z"/>
</g>
</svg>
