<?xml version="1.0" encoding="utf-8"?>
<!-- Generator: Adobe Illustrator 22.1.0, SVG Export Plug-In . SVG Version: 6.00 Build 0)  -->
<svg version="1.1" id="Layer_1" xmlns="http://www.w3.org/2000/svg" xmlns:xlink="http://www.w3.org/1999/xlink" x="0px" y="0px"
	 viewBox="0 0 24 24" style="enable-background:new 0 0 24 24;" xml:space="preserve">
<title>style-three-style-pin-empty</title>
<g>
	<path d="M11.75,24.001c-0.261,0-0.519-0.068-0.744-0.197C9.502,22.949,2,18.255,2,9.853c0-5.376,4.374-9.75,9.75-9.75
		s9.75,4.374,9.75,9.75c0,3.544-1.3,6.822-3.865,9.744c-2.017,2.298-4.268,3.708-5.142,4.208
		C12.268,23.933,12.01,24.001,11.75,24.001z M11.75,1.603c-4.549,0-8.25,3.701-8.25,8.25c0,7.573,6.871,11.865,8.249,12.648
		C19.405,18.13,20,11.715,20,9.853C20,5.304,16.299,1.603,11.75,1.603z"/>
</g>
</svg>
