<?xml version="1.0" encoding="utf-8"?>
<!-- Generator: Adobe Illustrator 22.1.0, SVG Export Plug-In . SVG Version: 6.00 Build 0)  -->
<svg version="1.1" id="Layer_1" xmlns="http://www.w3.org/2000/svg" xmlns:xlink="http://www.w3.org/1999/xlink" x="0px" y="0px"
	 viewBox="0 0 24 24" style="enable-background:new 0 0 24 24;" xml:space="preserve">
<title>style-three-pin-microphone</title>
<g>
	<path d="M11.999,23.947c-0.26,0-0.517-0.068-0.742-0.196c-0.874-0.499-3.124-1.906-5.143-4.208c-2.564-2.922-3.864-6.2-3.864-9.744
		c0-5.376,4.374-9.75,9.75-9.75s9.75,4.374,9.75,9.75c0,3.544-1.3,6.822-3.865,9.744c-2.017,2.299-4.268,3.708-5.142,4.208
		C12.517,23.879,12.26,23.947,11.999,23.947z M12,1.549c-4.549,0-8.25,3.701-8.25,8.25c0,1.863,0.595,8.282,8.25,12.649
		c7.655-4.372,8.25-10.786,8.25-12.649C20.25,5.25,16.549,1.549,12,1.549z"/>
	<path d="M12,17.301c-0.414,0-0.75-0.336-0.75-0.75v-2.301C8.279,13.878,6,11.329,6,8.299c0-0.414,0.336-0.75,0.75-0.75
		S7.5,7.885,7.5,8.299c0,2.481,2.019,4.5,4.5,4.5c2.481,0,4.5-2.019,4.5-4.5c0-0.414,0.336-0.75,0.75-0.75S18,7.885,18,8.299
		c0,3.03-2.279,5.579-5.25,5.952v2.301C12.75,16.965,12.414,17.301,12,17.301z"/>
	<path d="M12,11.299c-1.654,0-3-1.346-3-3v-1.5c0-1.654,1.346-3,3-3c1.654,0,3,1.346,3,3v1.5C15,9.953,13.654,11.299,12,11.299z
		 M12,5.299c-0.827,0-1.5,0.673-1.5,1.5v1.5c0,0.827,0.673,1.5,1.5,1.5s1.5-0.673,1.5-1.5v-1.5C13.5,5.972,12.827,5.299,12,5.299z"
		/>
</g>
</svg>
