<?xml version="1.0" encoding="utf-8"?>
<!-- Generator: Adobe Illustrator 22.1.0, SVG Export Plug-In . SVG Version: 6.00 Build 0)  -->
<svg version="1.1" id="Layer_1" xmlns="http://www.w3.org/2000/svg" xmlns:xlink="http://www.w3.org/1999/xlink" x="0px" y="0px"
	 viewBox="0 0 24 24" style="enable-background:new 0 0 24 24;" xml:space="preserve">
<title>style-two-pin-world</title>
<g>
	<path d="M12,16.504c-0.273,0-0.558-0.019-0.848-0.055c-0.058-0.001-0.108-0.01-0.15-0.02C7.722,15.94,5.25,13.074,5.25,9.754
		c0.001-3.723,3.029-6.75,6.75-6.75s6.749,3.027,6.75,6.749c0,3.32-2.47,6.186-5.748,6.676c-0.043,0.01-0.094,0.02-0.154,0.02
		C12.559,16.486,12.273,16.504,12,16.504z M11.712,14.996c0.096,0.005,0.193,0.008,0.288,0.008s0.192-0.003,0.288-0.008
		c0.488-1.458,0.792-2.966,0.907-4.493h-2.393C10.919,12.026,11.224,13.534,11.712,14.996z M14.699,10.503
		c-0.096,1.392-0.339,2.773-0.723,4.116c1.724-0.698,2.955-2.26,3.22-4.116H14.699z M6.805,10.503
		c0.265,1.856,1.495,3.418,3.219,4.116c-0.384-1.345-0.628-2.725-0.726-4.116H6.805z M17.195,9.003
		c-0.245-1.709-1.311-3.176-2.847-3.943c0.263,1.298,0.398,2.621,0.402,3.943H17.195z M13.25,9.003
		c-0.005-1.496-0.192-2.991-0.557-4.452C12.461,4.52,12.228,4.504,12,4.504c-0.226,0-0.457,0.016-0.687,0.046
		c-0.367,1.463-0.556,2.958-0.564,4.453H13.25z M9.249,9.003c0.006-1.323,0.144-2.646,0.41-3.947
		C8.119,5.822,7.05,7.292,6.805,9.003H9.249z"/>
	<path d="M11.999,23.901c-0.261,0-0.518-0.068-0.743-0.197c-0.875-0.5-3.126-1.911-5.142-4.209c-2.564-2.922-3.864-6.2-3.864-9.743
		c0-5.376,4.374-9.75,9.75-9.75s9.75,4.374,9.75,9.75c0,3.544-1.3,6.822-3.865,9.744c-2.017,2.299-4.268,3.708-5.142,4.208
		C12.518,23.833,12.26,23.901,11.999,23.901z M12,1.503c-4.549,0-8.25,3.701-8.25,8.25c0,1.861,0.595,8.272,8.25,12.649
		c7.655-4.372,8.25-10.787,8.25-12.649C20.25,5.204,16.549,1.503,12,1.503z"/>
</g>
</svg>
