<?xml version="1.0" encoding="utf-8"?>
<!-- Generator: Adobe Illustrator 22.1.0, SVG Export Plug-In . SVG Version: 6.00 Build 0)  -->
<svg version="1.1" id="Layer_1" xmlns="http://www.w3.org/2000/svg" xmlns:xlink="http://www.w3.org/1999/xlink" x="0px" y="0px"
	 viewBox="0 0 24 24" style="enable-background:new 0 0 24 24;" xml:space="preserve">
<title>style-three-pin-direction-arrow</title>
<g>
	<path d="M11.999,23.947c-0.26,0-0.517-0.068-0.742-0.196c-0.874-0.499-3.124-1.906-5.143-4.208c-2.564-2.922-3.864-6.2-3.864-9.744
		c0-5.376,4.374-9.75,9.75-9.75s9.75,4.374,9.75,9.75c0,3.544-1.3,6.822-3.865,9.744c-2.017,2.299-4.268,3.708-5.142,4.208
		C12.517,23.879,12.26,23.947,11.999,23.947z M12,1.549c-4.549,0-8.25,3.701-8.25,8.25c0,1.863,0.595,8.282,8.25,12.649
		c7.655-4.372,8.25-10.786,8.25-12.649C20.25,5.25,16.549,1.549,12,1.549z"/>
	<path d="M12.417,14.806c-0.161,0-0.32-0.026-0.474-0.077c-0.404-0.135-0.733-0.437-0.902-0.829l-1.015-2.368l-2.366-1.015
		c-0.369-0.159-0.653-0.451-0.801-0.823C6.71,9.322,6.715,8.914,6.874,8.546c0.169-0.392,0.497-0.694,0.901-0.829l6.252-2.084
		c0.155-0.052,0.315-0.078,0.476-0.078c0.23,0,0.461,0.055,0.669,0.158C15.53,5.892,15.797,6.2,15.924,6.58
		c0.103,0.306,0.103,0.644,0,0.951l-2.083,6.25C13.635,14.394,13.063,14.806,12.417,14.806z M8.25,9.139l2.366,1.014
		c0.356,0.152,0.636,0.432,0.788,0.789l1.014,2.365l2.083-6.252L8.25,9.139z"/>
</g>
</svg>
