<?xml version="1.0" encoding="utf-8"?>
<!-- Generator: Adobe Illustrator 22.1.0, SVG Export Plug-In . SVG Version: 6.00 Build 0)  -->
<svg version="1.1" id="Layer_1" xmlns="http://www.w3.org/2000/svg" xmlns:xlink="http://www.w3.org/1999/xlink" x="0px" y="0px"
	 viewBox="0 0 24 24" style="enable-background:new 0 0 24 24;" xml:space="preserve">
<title>style-three-pin-notes</title>
<g>
	<path d="M11.999,23.947c-0.261,0-0.518-0.068-0.743-0.197C9.753,22.895,2.25,18.199,2.25,9.799c0-5.376,4.374-9.75,9.75-9.75
		s9.75,4.374,9.75,9.75c0,3.544-1.3,6.822-3.865,9.744c-2.017,2.299-4.268,3.708-5.142,4.208
		C12.518,23.879,12.26,23.947,11.999,23.947z M12,1.549c-4.549,0-8.25,3.701-8.25,8.25c0,7.569,6.872,11.864,8.249,12.648
		c7.656-4.371,8.251-10.786,8.251-12.648C20.25,5.25,16.549,1.549,12,1.549z"/>
	<path d="M8.5,15.699c-0.965,0-1.75-0.785-1.75-1.75v-7c0-0.965,0.785-1.75,1.75-1.75h7c0.965,0,1.75,0.785,1.75,1.75v7
		c0,0.965-0.785,1.75-1.75,1.75H8.5z M8.5,6.699c-0.138,0-0.25,0.112-0.25,0.25v7c0,0.138,0.112,0.25,0.25,0.25h7
		c0.138,0,0.25-0.112,0.25-0.25v-7c0-0.138-0.112-0.25-0.25-0.25H8.5z"/>
	<path d="M10.5,9.699c-0.414,0-0.75-0.336-0.75-0.75s0.336-0.75,0.75-0.75h3c0.414,0,0.75,0.336,0.75,0.75s-0.336,0.75-0.75,0.75
		H10.5z"/>
	<path d="M10.5,12.699c-0.414,0-0.75-0.336-0.75-0.75c0-0.414,0.336-0.75,0.75-0.75H12c0.414,0,0.75,0.336,0.75,0.75
		c0,0.414-0.336,0.75-0.75,0.75H10.5z"/>
</g>
</svg>
