<?xml version="1.0" encoding="utf-8"?>
<!-- Generator: Adobe Illustrator 22.1.0, SVG Export Plug-In . SVG Version: 6.00 Build 0)  -->
<svg version="1.1" id="Layer_1" xmlns="http://www.w3.org/2000/svg" xmlns:xlink="http://www.w3.org/1999/xlink" x="0px" y="0px"
	 viewBox="0 0 24 24" style="enable-background:new 0 0 24 24;" xml:space="preserve">
<title>style-two-pin-user</title>
<g>
	<path d="M12,10.503c-1.654,0-3-1.346-3-3s1.346-3,3-3c1.654,0,3,1.346,3,3S13.654,10.503,12,10.503z M12,6.003
		c-0.827,0-1.5,0.673-1.5,1.5s0.673,1.5,1.5,1.5s1.5-0.673,1.5-1.5S12.827,6.003,12,6.003z"/>
	<path d="M7.5,16.503c-0.414,0-0.75-0.336-0.75-0.75c0-2.895,2.355-5.25,5.25-5.25c2.895,0,5.25,2.355,5.25,5.25
		c0,0.414-0.336,0.75-0.75,0.75H7.5z M15.674,15.003c-0.352-1.712-1.892-3-3.674-3c-1.782,0-3.322,1.288-3.674,3H15.674z"/>
	<path d="M11.999,23.901c-0.261,0-0.518-0.068-0.743-0.197c-0.875-0.5-3.126-1.911-5.142-4.209c-2.564-2.922-3.864-6.2-3.864-9.743
		c0-5.376,4.374-9.75,9.75-9.75s9.75,4.374,9.75,9.75c0,3.544-1.3,6.822-3.865,9.744c-2.017,2.299-4.268,3.708-5.142,4.208
		C12.518,23.833,12.26,23.901,11.999,23.901z M12,1.503c-4.549,0-8.25,3.701-8.25,8.25c0,1.861,0.595,8.272,8.25,12.649
		c7.655-4.372,8.25-10.787,8.25-12.649C20.25,5.204,16.549,1.503,12,1.503z"/>
</g>
</svg>
