<?xml version="1.0" encoding="utf-8"?>
<!-- Generator: Adobe Illustrator 22.1.0, SVG Export Plug-In . SVG Version: 6.00 Build 0)  -->
<svg version="1.1" id="Layer_1" xmlns="http://www.w3.org/2000/svg" xmlns:xlink="http://www.w3.org/1999/xlink" x="0px" y="0px"
	 viewBox="0 0 24 24" style="enable-background:new 0 0 24 24;" xml:space="preserve">
<title>style-three-pin-drink-food</title>
<g>
	<path d="M11.999,23.947c-0.26,0-0.517-0.068-0.742-0.196c-0.874-0.499-3.124-1.906-5.143-4.208c-2.564-2.922-3.864-6.2-3.864-9.744
		c0-5.376,4.374-9.75,9.75-9.75s9.75,4.374,9.75,9.75c0,3.544-1.3,6.822-3.865,9.744c-2.017,2.299-4.268,3.708-5.142,4.208
		C12.517,23.879,12.26,23.947,11.999,23.947z M12,1.549c-4.549,0-8.25,3.701-8.25,8.25c0,1.863,0.595,8.282,8.25,12.649
		c7.655-4.372,8.25-10.786,8.25-12.649C20.25,5.25,16.549,1.549,12,1.549z"/>
	<path d="M12,15.051c-0.414,0-0.75-0.336-0.75-0.75v-1.135c-0.29-0.064-0.569-0.166-0.833-0.304l-0.651,0.65
		c-0.142,0.142-0.33,0.22-0.53,0.22s-0.389-0.078-0.53-0.22c-0.292-0.292-0.292-0.768,0-1.061l0.557-0.557
		c-0.307-0.399-0.52-0.855-0.628-1.344H7.5c-0.414,0-0.75-0.336-0.75-0.75s0.336-0.75,0.75-0.75h1.135
		c0.109-0.49,0.322-0.946,0.628-1.344L8.706,7.149c-0.142-0.141-0.22-0.33-0.22-0.53s0.078-0.389,0.22-0.53
		c0.141-0.142,0.33-0.22,0.53-0.22s0.389,0.078,0.53,0.22l0.651,0.651C10.681,6.601,10.96,6.5,11.25,6.435V5.301
		c0-0.414,0.336-0.75,0.75-0.75s0.75,0.336,0.75,0.75v1.135c0.29,0.064,0.569,0.166,0.833,0.304l0.65-0.651
		c0.142-0.142,0.33-0.22,0.53-0.22s0.389,0.078,0.53,0.22c0.142,0.141,0.22,0.33,0.22,0.53c0,0.2-0.078,0.389-0.22,0.53
		l-0.557,0.557c0.307,0.399,0.52,0.855,0.628,1.344H16.5c0.414,0,0.75,0.336,0.75,0.75s-0.336,0.75-0.75,0.75h-1.135
		c-0.108,0.49-0.322,0.946-0.628,1.344l0.557,0.557c0.292,0.292,0.292,0.768,0,1.061c-0.142,0.142-0.33,0.22-0.53,0.22
		s-0.389-0.078-0.53-0.22l-0.65-0.65c-0.264,0.138-0.543,0.239-0.833,0.304v1.135C12.75,14.715,12.414,15.051,12,15.051z M12,7.851
		c-1.075,0-1.95,0.875-1.95,1.95c0,1.075,0.875,1.95,1.95,1.95s1.95-0.875,1.95-1.95C13.95,8.726,13.075,7.851,12,7.851z"/>
</g>
</svg>
