<?xml version="1.0" encoding="utf-8"?>
<!-- Generator: Adobe Illustrator 22.1.0, SVG Export Plug-In . SVG Version: 6.00 Build 0)  -->
<svg version="1.1" id="Layer_1" xmlns="http://www.w3.org/2000/svg" xmlns:xlink="http://www.w3.org/1999/xlink" x="0px" y="0px"
	 viewBox="0 0 24 24" style="enable-background:new 0 0 24 24;" xml:space="preserve">
<title>style-three-pin-baseball</title>
<g>
	<path d="M11.999,23.947c-0.26,0-0.517-0.068-0.742-0.196c-0.874-0.499-3.124-1.906-5.143-4.208c-2.564-2.922-3.864-6.2-3.864-9.744
		c0-5.376,4.374-9.75,9.75-9.75s9.75,4.374,9.75,9.75c0,3.544-1.3,6.822-3.865,9.744c-2.017,2.299-4.268,3.708-5.142,4.208
		C12.517,23.879,12.26,23.947,11.999,23.947z M12,1.549c-4.549,0-8.25,3.701-8.25,8.25c0,1.863,0.595,8.282,8.25,12.649
		c7.655-4.372,8.25-10.786,8.25-12.649C20.25,5.25,16.549,1.549,12,1.549z"/>
	<path d="M12,14.947c-1.254,0-2.469-0.454-3.425-1.28c-0.052-0.035-0.096-0.073-0.135-0.117c-0.006-0.006-0.012-0.014-0.017-0.021
		C7.359,12.535,6.75,11.141,6.75,9.697c0-1.445,0.609-2.839,1.674-3.833C8.43,5.856,8.436,5.849,8.442,5.842
		c0.036-0.04,0.072-0.065,0.094-0.08C9.498,4.914,10.728,4.447,12,4.447c1.254,0,2.469,0.454,3.425,1.28
		c0.052,0.035,0.096,0.073,0.134,0.116c0.006,0.007,0.012,0.014,0.018,0.022c1.064,0.994,1.673,2.388,1.673,3.833
		c0,1.445-0.609,2.839-1.673,3.832c-0.006,0.008-0.012,0.016-0.018,0.022c-0.037,0.042-0.081,0.08-0.133,0.115
		C14.469,14.493,13.254,14.947,12,14.947z M10.126,12.94c0.571,0.333,1.211,0.507,1.874,0.507c0.663,0,1.303-0.175,1.874-0.508
		c-1.477-1.883-1.483-4.597-0.002-6.486c-0.57-0.332-1.21-0.506-1.872-0.506c-0.662,0-1.302,0.174-1.872,0.506
		C11.609,8.343,11.602,11.057,10.126,12.94z M9.003,7.452C8.515,8.099,8.25,8.883,8.25,9.697c0,0.814,0.264,1.596,0.751,2.243
		C9.984,10.622,9.989,8.774,9.003,7.452z M14.997,7.452c-0.986,1.323-0.981,3.171,0.002,4.489c0.487-0.647,0.751-1.43,0.751-2.243
		C15.75,8.883,15.485,8.099,14.997,7.452z"/>
</g>
</svg>
