<?xml version="1.0" encoding="utf-8"?>
<!-- Generator: Adobe Illustrator 22.1.0, SVG Export Plug-In . SVG Version: 6.00 Build 0)  -->
<svg version="1.1" id="Layer_1" xmlns="http://www.w3.org/2000/svg" xmlns:xlink="http://www.w3.org/1999/xlink" x="0px" y="0px"
	 viewBox="0 0 24 24" style="enable-background:new 0 0 24 24;" xml:space="preserve">
<title>style-three-pin-pill</title>
<g>
	<path d="M11.999,23.947c-0.26,0-0.517-0.068-0.742-0.196c-0.874-0.499-3.124-1.906-5.143-4.208c-2.564-2.922-3.864-6.2-3.864-9.744
		c0-5.376,4.374-9.75,9.75-9.75s9.75,4.374,9.75,9.75c0,3.544-1.3,6.822-3.865,9.744c-2.017,2.299-4.268,3.708-5.142,4.208
		C12.517,23.879,12.26,23.947,11.999,23.947z M12,1.549c-4.549,0-8.25,3.701-8.25,8.25c0,1.863,0.595,8.282,8.25,12.649
		c7.655-4.372,8.25-10.786,8.25-12.649C20.25,5.25,16.549,1.549,12,1.549z"/>
	<path d="M10.676,15.252c-1.002,0-1.944-0.389-2.651-1.096c-0.708-0.707-1.098-1.649-1.099-2.652c0-1.003,0.389-1.946,1.096-2.653
		l2.652-2.651c0.688-0.713,1.621-1.117,2.623-1.135l0.041,0c0.993,0,1.927,0.374,2.629,1.052c1.487,1.437,1.529,3.815,0.092,5.303
		c-0.03,0.031-2.729,2.734-2.729,2.734C12.623,14.861,11.68,15.252,10.676,15.252z M9.083,9.91
		c-0.425,0.425-0.659,0.991-0.658,1.592c0,0.601,0.235,1.167,0.66,1.592c0.424,0.424,0.989,0.657,1.591,0.657
		c0.603,0,1.168-0.234,1.593-0.659l0.793-0.794L9.879,9.115L9.083,9.91z M14.122,11.237c0,0,0.84-0.841,0.859-0.86
		c0.862-0.893,0.838-2.32-0.055-3.182c-0.422-0.407-0.977-0.631-1.562-0.631l-0.038,0c-0.603,0.01-1.164,0.254-1.581,0.687
		l-0.805,0.805L14.122,11.237z"/>
</g>
</svg>
