<?xml version="1.0" encoding="utf-8"?>
<!-- Generator: Adobe Illustrator 22.1.0, SVG Export Plug-In . SVG Version: 6.00 Build 0)  -->
<svg version="1.1" id="Layer_1" xmlns="http://www.w3.org/2000/svg" xmlns:xlink="http://www.w3.org/1999/xlink" x="0px" y="0px"
	 viewBox="0 0 24 24" style="enable-background:new 0 0 24 24;" xml:space="preserve">
<title>style-three-pin-braille</title>
<g>
	<path d="M11.999,23.947c-0.26,0-0.517-0.068-0.742-0.196c-0.874-0.499-3.124-1.906-5.143-4.208c-2.564-2.922-3.864-6.2-3.864-9.744
		c0-5.376,4.374-9.75,9.75-9.75s9.75,4.374,9.75,9.75c0,3.544-1.3,6.822-3.865,9.744c-2.017,2.299-4.268,3.708-5.142,4.208
		C12.517,23.879,12.26,23.947,11.999,23.947z M12,1.549c-4.549,0-8.25,3.701-8.25,8.25c0,1.863,0.595,8.282,8.25,12.649
		c7.655-4.372,8.25-10.786,8.25-12.649C20.25,5.25,16.549,1.549,12,1.549z"/>
	<path d="M9.375,11.197c-0.044,0-0.088-0.004-0.131-0.012c-0.515-0.061-0.925-0.473-0.983-0.989
		c-0.003-0.018-0.004-0.036-0.006-0.054c-0.003-0.018-0.005-0.052-0.005-0.07c0-0.028,0.002-0.052,0.006-0.077
		c0.001-0.017,0.003-0.034,0.005-0.051c0.06-0.513,0.47-0.922,0.982-0.983c0.043-0.008,0.087-0.012,0.131-0.012
		s0.088,0.004,0.131,0.012c0.511,0.06,0.92,0.468,0.982,0.978c0.008,0.044,0.012,0.089,0.012,0.133c0,0,0,0.002,0,0.002
		c0,0.045-0.004,0.089-0.012,0.134c-0.062,0.51-0.471,0.917-0.982,0.978C9.463,11.193,9.419,11.197,9.375,11.197z"/>
	<path d="M13.875,6.697c-0.044,0-0.088-0.004-0.131-0.011c-0.513-0.06-0.922-0.47-0.983-0.983c-0.007-0.042-0.011-0.086-0.011-0.13
		s0.004-0.088,0.011-0.13c0.066-0.568,0.542-0.995,1.114-0.995c0.049,0,0.098,0.005,0.149,0.016
		c0.509,0.068,0.902,0.465,0.964,0.976C14.996,5.483,15,5.528,15,5.572c0,0.046-0.004,0.091-0.012,0.135
		c-0.062,0.51-0.471,0.918-0.982,0.978C13.963,6.693,13.919,6.697,13.875,6.697z"/>
	<path d="M13.875,11.197c-0.044,0-0.088-0.004-0.131-0.011c-0.513-0.06-0.922-0.47-0.983-0.983c-0.007-0.042-0.011-0.086-0.011-0.13
		s0.004-0.088,0.011-0.13c0.066-0.568,0.542-0.995,1.114-0.995c0.049,0,0.098,0.005,0.149,0.016
		c0.509,0.068,0.902,0.465,0.964,0.976C14.996,9.983,15,10.028,15,10.072c0,0.046-0.004,0.091-0.012,0.135
		c-0.062,0.51-0.471,0.918-0.982,0.978C13.963,11.193,13.919,11.197,13.875,11.197z"/>
	<path d="M9.375,15.697c-0.044,0-0.088-0.004-0.13-0.011c-0.513-0.06-0.923-0.47-0.983-0.982C8.254,14.66,8.25,14.616,8.25,14.572
		c0-0.044,0.004-0.088,0.011-0.131c0.067-0.568,0.542-0.994,1.114-0.994c0.049,0,0.097,0.005,0.148,0.015
		c0.51,0.068,0.903,0.465,0.965,0.977c0.008,0.044,0.012,0.089,0.012,0.133c0,0.046-0.004,0.091-0.012,0.135
		c-0.062,0.511-0.471,0.919-0.983,0.979C9.463,15.693,9.419,15.697,9.375,15.697z"/>
</g>
</svg>
