<?xml version="1.0" encoding="utf-8"?>
<!-- Generator: Adobe Illustrator 22.1.0, SVG Export Plug-In . SVG Version: 6.00 Build 0)  -->
<svg version="1.1" id="Layer_1" xmlns="http://www.w3.org/2000/svg" xmlns:xlink="http://www.w3.org/1999/xlink" x="0px" y="0px"
	 viewBox="0 0 24 24" style="enable-background:new 0 0 24 24;" xml:space="preserve">
<title>style-two-pin-car</title>
<g>
	<path d="M15.25,15.003c-0.414,0-0.75-0.336-0.75-0.75v-0.75H10v0.75c0,0.414-0.336,0.75-0.75,0.75s-0.75-0.336-0.75-0.75v-0.879
		C7.615,13.061,7,12.213,7,11.253c0-0.96,0.615-1.808,1.5-2.121V7.753c0-0.965,0.785-1.75,1.75-1.75h4c0.965,0,1.75,0.785,1.75,1.75
		v1.379c0.885,0.314,1.5,1.162,1.5,2.121c0,0.96-0.615,1.808-1.5,2.121v0.879C16,14.667,15.664,15.003,15.25,15.003z M9.25,10.503
		c-0.414,0-0.75,0.336-0.75,0.75s0.336,0.75,0.75,0.75h6c0.414,0,0.75-0.336,0.75-0.75s-0.336-0.75-0.75-0.75H9.25z M14.5,9.003
		v-1.25c0-0.138-0.112-0.25-0.25-0.25h-4c-0.138,0-0.25,0.112-0.25,0.25v1.25H14.5z"/>
	<path d="M12.249,23.901c-0.261,0-0.518-0.068-0.743-0.197C10.003,22.849,2.5,18.155,2.5,9.753c0-5.376,4.374-9.75,9.75-9.75
		S22,4.377,22,9.753c0,3.544-1.3,6.822-3.865,9.744c-2.017,2.299-4.268,3.708-5.142,4.208C12.768,23.833,12.51,23.901,12.249,23.901
		z M12.25,1.503C7.701,1.503,4,5.204,4,9.753c0,7.573,6.871,11.865,8.249,12.648C19.905,18.03,20.5,11.615,20.5,9.753
		C20.5,5.204,16.799,1.503,12.25,1.503z"/>
</g>
</svg>
