<?xml version="1.0" encoding="utf-8"?>
<!-- Generator: Adobe Illustrator 22.1.0, SVG Export Plug-In . SVG Version: 6.00 Build 0)  -->
<svg version="1.1" id="Layer_1" xmlns="http://www.w3.org/2000/svg" xmlns:xlink="http://www.w3.org/1999/xlink" x="0px" y="0px"
	 viewBox="0 0 24 24" style="enable-background:new 0 0 24 24;" xml:space="preserve">
<title>style-one-pin-wifi</title>
<g>
	<path d="M12.253,15c-0.571,0-1.047-0.426-1.114-0.994c-0.008-0.043-0.011-0.087-0.011-0.131s0.004-0.088,0.011-0.131
		c0.063-0.538,0.494-0.949,1.034-0.988c0.028-0.004,0.053-0.006,0.079-0.006c0.301,0,0.583,0.116,0.794,0.327
		c0.213,0.212,0.331,0.494,0.331,0.794c0,0.001,0,0.002,0,0.003c0.001,0.299-0.115,0.582-0.327,0.795
		c-0.211,0.213-0.494,0.331-0.794,0.332c0,0,0,0-0.001,0C12.255,15,12.253,15,12.253,15z"/>
	<path d="M15.538,11.48c-0.146,0-0.287-0.042-0.41-0.122c-0.857-0.561-1.851-0.857-2.875-0.857s-2.017,0.296-2.874,0.857
		c-0.123,0.08-0.265,0.122-0.41,0.122c-0.254,0-0.489-0.127-0.628-0.339c-0.227-0.346-0.129-0.812,0.217-1.038
		c1.101-0.72,2.379-1.101,3.695-1.101c1.316,0,2.594,0.381,3.695,1.101c0.168,0.11,0.282,0.278,0.323,0.474
		c0.041,0.196,0.003,0.397-0.107,0.564C16.027,11.353,15.792,11.48,15.538,11.48z"/>
	<path d="M7.146,9.11c-0.246,0-0.477-0.121-0.617-0.324C6.415,8.622,6.372,8.422,6.408,8.225c0.036-0.197,0.146-0.368,0.311-0.482
		c1.624-1.123,3.538-1.717,5.534-1.717c1.996,0,3.91,0.594,5.534,1.717c0.165,0.114,0.275,0.285,0.311,0.482
		c0.036,0.197-0.007,0.397-0.121,0.561c-0.14,0.202-0.371,0.323-0.617,0.323c-0.153,0-0.3-0.046-0.426-0.133
		c-1.374-0.949-2.992-1.451-4.681-1.451c-1.689,0-3.308,0.502-4.681,1.452C7.446,9.064,7.299,9.11,7.146,9.11z"/>
	<path d="M12.25,24c-0.308,0-0.59-0.193-0.7-0.481l-1.656-4.306C5.598,18.141,2.501,14.195,2.5,9.754
		c-0.001-5.376,4.372-9.751,9.748-9.752c5.377,0,9.751,4.373,9.752,9.748c0.001,4.443-3.096,8.391-7.394,9.463l-1.656,4.306
		C12.839,23.807,12.558,24,12.25,24z M12.248,1.502C7.699,1.503,3.999,5.204,4,9.753c0.001,3.903,2.776,7.301,6.6,8.082
		c0.252,0.052,0.458,0.226,0.55,0.466l1.1,2.859l1.1-2.86c0.093-0.24,0.298-0.414,0.55-0.466c3.825-0.781,6.601-4.181,6.6-8.085
		c-0.001-4.548-3.702-8.248-8.25-8.248l-0.002-0.375L12.248,1.502z"/>
</g>
</svg>
