<?xml version="1.0" encoding="utf-8"?>
<!-- Generator: Adobe Illustrator 22.1.0, SVG Export Plug-In . SVG Version: 6.00 Build 0)  -->
<svg version="1.1" id="Layer_1" xmlns="http://www.w3.org/2000/svg" xmlns:xlink="http://www.w3.org/1999/xlink" x="0px" y="0px"
	 viewBox="0 0 24 24" style="enable-background:new 0 0 24 24;" xml:space="preserve">
<title>style-three-pin-islam</title>
<g>
	<path d="M11.999,23.947c-0.26,0-0.517-0.068-0.742-0.196c-0.874-0.499-3.124-1.906-5.143-4.208c-2.564-2.922-3.864-6.2-3.864-9.744
		c0-5.376,4.374-9.75,9.75-9.75s9.75,4.374,9.75,9.75c0,3.544-1.3,6.822-3.865,9.744c-2.017,2.299-4.268,3.708-5.142,4.208
		C12.517,23.879,12.26,23.947,11.999,23.947z M12,1.549c-4.549,0-8.25,3.701-8.25,8.25c0,1.863,0.595,8.282,8.25,12.649
		c7.655-4.372,8.25-10.786,8.25-12.649C20.25,5.25,16.549,1.549,12,1.549z"/>
	<path d="M11.795,15.351c-0.497,0-0.992-0.071-1.471-0.211c-1.344-0.392-2.454-1.284-3.127-2.512S6.37,9.985,6.762,8.641
		s1.285-2.454,2.512-3.127c0.772-0.423,1.641-0.647,2.512-0.647c0.497,0,0.993,0.071,1.476,0.212
		c0.281,0.082,0.49,0.322,0.532,0.611c0.042,0.289-0.089,0.579-0.334,0.738c-0.222,0.144-0.43,0.312-0.616,0.5
		c-1.455,1.461-1.451,3.834,0.01,5.29c0.444,0.438,0.998,0.759,1.6,0.928c0.283,0.079,0.494,0.317,0.539,0.607
		c0.045,0.29-0.085,0.582-0.331,0.742C13.807,15.055,12.815,15.351,11.795,15.351z M11.321,6.397
		c-0.461,0.059-0.912,0.206-1.325,0.432c-0.876,0.48-1.513,1.273-1.793,2.232c-0.578,1.98,0.562,4.062,2.542,4.64
		c0.342,0.099,0.695,0.15,1.05,0.15c0.207,0,0.413-0.017,0.615-0.051c-0.217-0.156-0.421-0.329-0.612-0.517
		c-0.001-0.001-0.002-0.002-0.003-0.003C9.916,11.409,9.756,8.453,11.321,6.397z"/>
	<path d="M15.75,12.051c-0.414,0-0.75-0.336-0.75-0.75v-0.75h-0.75c-0.414,0-0.75-0.336-0.75-0.75s0.336-0.75,0.75-0.75H15v-0.75
		c0-0.414,0.336-0.75,0.75-0.75s0.75,0.336,0.75,0.75v0.75h0.75c0.414,0,0.75,0.336,0.75,0.75s-0.336,0.75-0.75,0.75H16.5v0.75
		C16.5,11.715,16.164,12.051,15.75,12.051z"/>
</g>
</svg>
