<?xml version="1.0" encoding="utf-8"?>
<!-- Generator: Adobe Illustrator 22.1.0, SVG Export Plug-In . SVG Version: 6.00 Build 0)  -->
<svg version="1.1" id="Layer_1" xmlns="http://www.w3.org/2000/svg" xmlns:xlink="http://www.w3.org/1999/xlink" x="0px" y="0px"
	 viewBox="0 0 24 24" style="enable-background:new 0 0 24 24;" xml:space="preserve">
<title>style-one-pin-photography</title>
<g>
	<path d="M12,10.5c-0.044,0-0.088-0.004-0.131-0.012c-0.513-0.06-0.922-0.47-0.982-0.982c-0.008-0.043-0.012-0.087-0.012-0.131
		s0.004-0.088,0.012-0.131c0.06-0.513,0.47-0.922,0.982-0.982C11.912,8.254,11.956,8.25,12,8.25s0.088,0.004,0.131,0.012
		c0.513,0.06,0.922,0.47,0.983,0.983c0.007,0.042,0.011,0.086,0.011,0.13s-0.004,0.088-0.011,0.13
		c-0.061,0.513-0.47,0.922-0.983,0.983C12.088,10.496,12.044,10.5,12,10.5z"/>
	<path d="M9,13.5c-1.241,0-2.25-1.009-2.25-2.25v-3C6.75,7.009,7.759,6,9,6h0.08c0.389-1.234,1.207-1.5,1.841-1.5H12.8
		c0.961,0.003,1.802,0.61,2.116,1.5H15c1.241,0,2.25,1.009,2.25,2.25v3c0,1.241-1.009,2.25-2.25,2.25H9z M9,7.5
		c-0.414,0-0.75,0.336-0.75,0.75v3C8.25,11.663,8.586,12,9,12h6c0.414,0,0.75-0.336,0.75-0.75v-3c0-0.414-0.336-0.75-0.75-0.75
		h-0.75c-0.414,0-0.75-0.336-0.75-0.75V6.494C13.394,6.202,13.112,6.001,12.797,6h-1.876C10.783,6,10.64,6,10.5,6.486V6.75
		c0,0.414-0.336,0.75-0.75,0.75H9z"/>
	<path d="M12,24c-0.308,0-0.59-0.193-0.7-0.481l-1.656-4.306c-4.296-1.072-7.393-5.017-7.394-9.459
		c-0.001-5.376,4.372-9.751,9.748-9.752c5.377,0,9.751,4.373,9.752,9.748c0.001,4.443-3.096,8.391-7.394,9.463L12.7,23.519
		C12.589,23.807,12.308,24,12,24z M11.998,1.502C7.449,1.503,3.749,5.204,3.75,9.753c0.001,3.903,2.776,7.301,6.6,8.082
		c0.252,0.052,0.458,0.226,0.55,0.466L12,21.16l1.1-2.86c0.093-0.24,0.298-0.414,0.55-0.466c3.825-0.781,6.601-4.181,6.6-8.085
		C20.249,5.202,16.548,1.502,12,1.502l-0.002-0.375L11.998,1.502z"/>
</g>
</svg>
