<?xml version="1.0" encoding="utf-8"?>
<!-- Generator: Adobe Illustrator 22.1.0, SVG Export Plug-In . SVG Version: 6.00 Build 0)  -->
<svg version="1.1" id="Layer_1" xmlns="http://www.w3.org/2000/svg" xmlns:xlink="http://www.w3.org/1999/xlink" x="0px" y="0px"
	 viewBox="0 0 24 24" style="enable-background:new 0 0 24 24;" xml:space="preserve">
<title>style-one-pin-gym</title>
<g>
	<path d="M16,12.75c-1.515,0-2.791-1.144-2.975-2.632c-0.232-0.18-0.497-0.302-0.775-0.357c-0.278,0.055-0.543,0.177-0.776,0.357
		c-0.183,1.489-1.459,2.633-2.974,2.633c-1.654,0-3-1.346-3-3s1.346-3,3-3c1.188,0,2.255,0.709,2.734,1.771
		c0.292-0.131,0.601-0.221,0.913-0.264c0.035-0.005,0.069-0.007,0.103-0.007s0.068,0.002,0.102,0.007
		c0.312,0.043,0.622,0.133,0.914,0.264C13.744,7.459,14.811,6.75,16,6.75c1.654,0,3,1.346,3,3S17.654,12.75,16,12.75z M16,8.25
		c-0.827,0-1.5,0.673-1.5,1.5s0.673,1.5,1.5,1.5s1.5-0.673,1.5-1.5S16.827,8.25,16,8.25z M8.5,8.25C7.673,8.25,7,8.923,7,9.75
		s0.673,1.5,1.5,1.5s1.5-0.673,1.5-1.5S9.327,8.25,8.5,8.25z"/>
	<path d="M12.25,24c-0.308,0-0.59-0.193-0.7-0.481l-1.656-4.306C5.598,18.141,2.501,14.195,2.5,9.754
		c-0.001-5.376,4.372-9.751,9.748-9.752c5.377,0,9.751,4.373,9.752,9.748c0.001,4.443-3.096,8.391-7.394,9.463l-1.656,4.306
		C12.839,23.807,12.558,24,12.25,24z M12.248,1.502C7.699,1.503,3.999,5.204,4,9.753c0.001,3.903,2.776,7.301,6.6,8.082
		c0.252,0.052,0.458,0.226,0.55,0.466l1.1,2.859l1.1-2.86c0.093-0.24,0.298-0.414,0.55-0.466c3.825-0.781,6.601-4.181,6.6-8.085
		c-0.001-4.548-3.702-8.248-8.25-8.248l-0.002-0.375L12.248,1.502z"/>
</g>
</svg>
