<?xml version="1.0" encoding="utf-8"?>
<!-- Generator: Adobe Illustrator 22.1.0, SVG Export Plug-In . SVG Version: 6.00 Build 0)  -->
<svg version="1.1" id="Layer_1" xmlns="http://www.w3.org/2000/svg" xmlns:xlink="http://www.w3.org/1999/xlink" x="0px" y="0px"
	 viewBox="0 0 24 24" style="enable-background:new 0 0 24 24;" xml:space="preserve">
<title>style-three-pin-shop</title>
<g>
	<path d="M11.999,23.947c-0.26,0-0.517-0.068-0.742-0.196c-0.874-0.499-3.124-1.906-5.143-4.208c-2.564-2.922-3.864-6.2-3.864-9.744
		c0-5.376,4.374-9.75,9.75-9.75s9.75,4.374,9.75,9.75c0,3.544-1.3,6.822-3.865,9.744c-2.017,2.299-4.268,3.708-5.142,4.208
		C12.517,23.879,12.26,23.947,11.999,23.947z M12,1.549c-4.549,0-8.25,3.701-8.25,8.25c0,1.863,0.595,8.282,8.25,12.649
		c7.655-4.372,8.25-10.786,8.25-12.649C20.25,5.25,16.549,1.549,12,1.549z"/>
	<path d="M8.25,15.801c-0.414,0-0.75-0.336-0.75-0.75v-4.543c-0.068-0.016-0.135-0.038-0.2-0.064
		c-0.769-0.306-1.145-1.181-0.839-1.95l0.901-2.251c0.23-0.573,0.777-0.943,1.393-0.943h6.487c0.62,0,1.166,0.37,1.396,0.942
		l0.9,2.251c0.072,0.181,0.108,0.37,0.107,0.563c-0.001,0.4-0.158,0.776-0.443,1.058c-0.197,0.196-0.439,0.331-0.703,0.394v4.542
		c0,0.414-0.336,0.75-0.75,0.75H8.25z M15,14.301v-3.75H9v3.75h2.25v-1.5c0-0.414,0.336-0.75,0.75-0.75s0.75,0.336,0.75,0.75v1.5H15
		z M8.754,6.801l-0.899,2.25l8.288,0l-0.896-2.25l-6.491,0C8.754,6.801,8.754,6.801,8.754,6.801z"/>
</g>
</svg>
