<?xml version="1.0" encoding="utf-8"?>
<!-- Generator: Adobe Illustrator 22.1.0, SVG Export Plug-In . SVG Version: 6.00 Build 0)  -->
<svg version="1.1" id="Layer_1" xmlns="http://www.w3.org/2000/svg" xmlns:xlink="http://www.w3.org/1999/xlink" x="0px" y="0px"
	 viewBox="0 0 24 24" style="enable-background:new 0 0 24 24;" xml:space="preserve">
<title>style-three-pin-signal-antenna</title>
<g>
	<path d="M11.999,23.947c-0.26,0-0.517-0.068-0.742-0.196c-0.874-0.499-3.124-1.906-5.143-4.208c-2.564-2.922-3.864-6.2-3.864-9.744
		c0-5.376,4.374-9.75,9.75-9.75s9.75,4.374,9.75,9.75c0,3.544-1.3,6.822-3.865,9.744c-2.017,2.299-4.268,3.708-5.142,4.208
		C12.517,23.879,12.26,23.947,11.999,23.947z M12,1.549c-4.549,0-8.25,3.701-8.25,8.25c0,1.863,0.595,8.282,8.25,12.649
		c7.655-4.372,8.25-10.786,8.25-12.649C20.25,5.25,16.549,1.549,12,1.549z"/>
	<path d="M12,16.551c-0.414,0-0.75-0.336-0.75-0.75v-6.75c0-0.414,0.336-0.75,0.75-0.75s0.75,0.336,0.75,0.75v6.75
		C12.75,16.215,12.414,16.551,12,16.551z"/>
	<path d="M9.75,11.1c-0.131,0-0.26-0.035-0.374-0.1c-0.521-0.3-0.894-0.785-1.05-1.365c-0.156-0.58-0.077-1.187,0.223-1.708
		C8.746,7.584,9.032,7.298,9.376,7.1C9.489,7.034,9.619,7,9.75,7c0.268,0,0.517,0.144,0.65,0.376c0.1,0.173,0.126,0.376,0.074,0.569
		S10.298,8.3,10.124,8.4c-0.115,0.066-0.21,0.161-0.276,0.276c-0.1,0.174-0.126,0.376-0.074,0.569C9.826,9.438,9.951,9.6,10.124,9.7
		c0.174,0.1,0.298,0.261,0.35,0.455c0.052,0.193,0.026,0.396-0.074,0.569C10.266,10.956,10.017,11.1,9.75,11.1z"/>
	<path d="M7.146,12.801c-0.213,0-0.417-0.091-0.559-0.25c-1.785-1.996-1.785-5.005,0-7c0.143-0.159,0.347-0.25,0.56-0.25
		c0.185,0,0.362,0.068,0.5,0.191c0.149,0.133,0.238,0.317,0.249,0.517c0.011,0.2-0.056,0.392-0.19,0.542
		c-1.275,1.425-1.275,3.575,0,5c0.134,0.149,0.201,0.342,0.19,0.542c-0.011,0.2-0.1,0.384-0.249,0.517
		C7.508,12.733,7.331,12.801,7.146,12.801z"/>
	<path d="M14.25,11.1c-0.268,0-0.517-0.144-0.65-0.376c-0.1-0.174-0.126-0.376-0.074-0.569c0.052-0.194,0.177-0.355,0.35-0.455
		c0.358-0.206,0.482-0.666,0.276-1.024c-0.066-0.114-0.161-0.21-0.276-0.276c-0.358-0.206-0.482-0.666-0.275-1.024
		C13.733,7.144,13.982,7,14.25,7c0.131,0,0.26,0.035,0.374,0.1c0.344,0.198,0.63,0.484,0.828,0.828
		c0.619,1.076,0.248,2.454-0.828,3.073C14.51,11.065,14.381,11.1,14.25,11.1z"/>
	<path d="M16.854,12.801c-0.185,0-0.363-0.068-0.5-0.192c-0.308-0.275-0.334-0.75-0.059-1.058c1.275-1.425,1.275-3.575,0-5
		c-0.275-0.308-0.249-0.783,0.059-1.059c0.137-0.123,0.315-0.191,0.5-0.191c0.213,0,0.417,0.091,0.559,0.25
		c1.785,1.996,1.785,5.005,0,7C17.271,12.71,17.067,12.801,16.854,12.801z"/>
</g>
</svg>
