<?xml version="1.0" encoding="utf-8"?>
<!-- Generator: Adobe Illustrator 22.1.0, SVG Export Plug-In . SVG Version: 6.00 Build 0)  -->
<svg version="1.1" id="Layer_1" xmlns="http://www.w3.org/2000/svg" xmlns:xlink="http://www.w3.org/1999/xlink" x="0px" y="0px"
	 viewBox="0 0 24 24" style="enable-background:new 0 0 24 24;" xml:space="preserve">
<title>style-three-pin-bow</title>
<g>
	<path d="M11.999,23.947c-0.26,0-0.517-0.068-0.742-0.196c-0.874-0.499-3.124-1.906-5.143-4.208c-2.564-2.922-3.864-6.2-3.864-9.744
		c0-5.376,4.374-9.75,9.75-9.75s9.75,4.374,9.75,9.75c0,3.544-1.3,6.822-3.865,9.744c-2.017,2.299-4.268,3.708-5.142,4.208
		C12.517,23.879,12.26,23.947,11.999,23.947z M12,1.549c-4.549,0-8.25,3.701-8.25,8.25c0,1.863,0.595,8.282,8.25,12.649
		c7.655-4.372,8.25-10.786,8.25-12.649C20.25,5.25,16.549,1.549,12,1.549z"/>
	<path d="M9.187,15.049c-0.414,0-0.75-0.336-0.75-0.75c0-0.347,0.237-0.64,0.558-0.725l-2.644-3.304
		c-0.009-0.011-0.017-0.023-0.025-0.035c-0.037-0.052-0.069-0.111-0.092-0.174c-0.003-0.008-0.01-0.03-0.012-0.038
		C6.199,9.946,6.187,9.874,6.187,9.801s0.012-0.145,0.036-0.222C6.224,9.573,6.232,9.55,6.233,9.545
		c0.024-0.064,0.054-0.123,0.092-0.176c0.008-0.013,0.017-0.025,0.026-0.036l2.646-3.308c-0.322-0.084-0.56-0.378-0.56-0.726
		c0-0.414,0.336-0.75,0.75-0.75c0.441,0,0.893,0.061,1.342,0.18c0.042,0.007,0.084,0.018,0.126,0.033
		c2.214,0.646,3.766,2.7,3.781,5.003c0.001,0.013,0.002,0.026,0.002,0.036c0,0.015-0.001,0.03-0.002,0.045
		c-0.02,2.291-1.565,4.337-3.766,4.987c-0.042,0.016-0.086,0.027-0.135,0.036C10.084,14.988,9.631,15.049,9.187,15.049z
		 M10.654,13.246c1.135-0.484,1.96-1.497,2.205-2.695H8.498L10.654,13.246z M12.86,9.051c-0.245-1.199-1.069-2.213-2.204-2.698
		L8.497,9.051H12.86z"/>
	<path d="M16.393,11.478c-0.165,0-0.329-0.037-0.488-0.11c-0.021-0.007-0.045-0.017-0.068-0.029c-0.01-0.005-0.019-0.01-0.028-0.016
		c-0.375-0.216-0.601-0.605-0.601-1.029V9.309c0-0.433,0.235-0.829,0.612-1.037c0.007-0.004,0.014-0.008,0.021-0.011
		c0.164-0.088,0.358-0.137,0.552-0.137c0.234,0,0.461,0.069,0.656,0.199c0,0,0.76,0.508,0.762,0.509
		c0.026,0.018,0.059,0.046,0.091,0.078c0.22,0.191,0.36,0.453,0.397,0.742c0.01,0.051,0.015,0.099,0.015,0.147c0,0,0,0.003,0,0.003
		c0,0.048-0.005,0.096-0.015,0.147c-0.036,0.284-0.173,0.542-0.387,0.732c-0.039,0.041-0.08,0.076-0.124,0.105l-0.739,0.492
		C16.854,11.409,16.627,11.478,16.393,11.478z"/>
</g>
</svg>
