<?xml version="1.0" encoding="utf-8"?>
<!-- Generator: Adobe Illustrator 22.1.0, SVG Export Plug-In . SVG Version: 6.00 Build 0)  -->
<svg version="1.1" id="Layer_1" xmlns="http://www.w3.org/2000/svg" xmlns:xlink="http://www.w3.org/1999/xlink" x="0px" y="0px"
	 viewBox="0 0 24 24" style="enable-background:new 0 0 24 24;" xml:space="preserve">
<title>style-three-pin-shopping-bag</title>
<g>
	<path d="M11.999,23.947c-0.26,0-0.517-0.068-0.742-0.196c-0.874-0.499-3.124-1.906-5.143-4.208c-2.564-2.922-3.864-6.2-3.864-9.744
		c0-5.376,4.374-9.75,9.75-9.75s9.75,4.374,9.75,9.75c0,3.544-1.3,6.822-3.865,9.744c-2.017,2.299-4.268,3.708-5.142,4.208
		C12.517,23.879,12.26,23.947,11.999,23.947z M12,1.549c-4.549,0-8.25,3.701-8.25,8.25c0,1.863,0.595,8.282,8.25,12.649
		c7.655-4.372,8.25-10.786,8.25-12.649C20.25,5.25,16.549,1.549,12,1.549z"/>
	<path d="M8.25,14.301c-0.218,0-0.424-0.094-0.567-0.259c-0.142-0.164-0.206-0.382-0.176-0.597l0.75-5.25
		C8.31,7.828,8.629,7.551,9,7.551V6.799c0-1.654,1.346-3,3-3c1.654,0,3,1.346,3,3v0.752c0.37,0,0.69,0.277,0.742,0.644l0.75,5.251
		c0.031,0.215-0.034,0.433-0.177,0.598c-0.141,0.164-0.348,0.258-0.566,0.258H8.25z M14.885,12.801l-0.536-3.75H9.65l-0.536,3.75
		H14.885z M13.5,7.551V6.799c0-0.827-0.673-1.5-1.5-1.5s-1.5,0.673-1.5,1.5v0.752H13.5z"/>
</g>
</svg>
