<?xml version="1.0" encoding="utf-8"?>
<!-- Generator: Adobe Illustrator 22.1.0, SVG Export Plug-In . SVG Version: 6.00 Build 0)  -->
<svg version="1.1" id="Layer_1" xmlns="http://www.w3.org/2000/svg" xmlns:xlink="http://www.w3.org/1999/xlink" x="0px" y="0px"
	 viewBox="0 0 24 24" style="enable-background:new 0 0 24 24;" xml:space="preserve">
<title>style-three-pin-baseball_1</title>
<g>
	<path d="M11.999,23.947c-0.26,0-0.517-0.068-0.742-0.196c-0.874-0.499-3.124-1.906-5.143-4.208c-2.564-2.922-3.864-6.2-3.864-9.744
		c0-5.376,4.374-9.75,9.75-9.75s9.75,4.374,9.75,9.75c0,3.544-1.3,6.822-3.865,9.744c-2.017,2.299-4.268,3.708-5.142,4.208
		C12.517,23.879,12.26,23.947,11.999,23.947z M12,1.549c-4.549,0-8.25,3.701-8.25,8.25c0,1.863,0.595,8.282,8.25,12.649
		c7.655-4.372,8.25-10.786,8.25-12.649C20.25,5.25,16.549,1.549,12,1.549z"/>
	<path d="M8.871,13.866c-0.2,0-0.389-0.078-0.53-0.22L6.22,11.525C6.078,11.384,6,11.195,6,10.995c0-0.2,0.078-0.389,0.22-0.53
		c0.141-0.142,0.33-0.22,0.53-0.22c0.152,0,0.297,0.045,0.42,0.129l3.865-5.524c0.013-0.018,0.028-0.038,0.044-0.057
		c0.495-0.576,1.182-0.923,1.937-0.98c0.073-0.005,0.145-0.008,0.217-0.008c0.675,0,1.329,0.243,1.843,0.685
		c0.573,0.493,0.92,1.18,0.977,1.935c0.057,0.755-0.183,1.487-0.676,2.06c-0.093,0.107-0.194,0.208-0.301,0.3
		c-0.02,0.017-0.041,0.033-0.062,0.048l-5.522,3.863c0.084,0.123,0.129,0.268,0.129,0.42c0,0.2-0.078,0.389-0.22,0.53
		C9.26,13.788,9.071,13.866,8.871,13.866z M8.427,11.611l5.697-3.985c0.042-0.038,0.081-0.078,0.117-0.12
		c0.479-0.557,0.415-1.4-0.142-1.879c-0.245-0.211-0.545-0.322-0.866-0.322c-0.034,0-0.069,0.001-0.103,0.004
		c-0.344,0.026-0.658,0.18-0.889,0.435L8.255,11.44L8.427,11.611z"/>
	<path d="M15,15.801c-1.241,0-2.25-1.009-2.25-2.25s1.009-2.25,2.25-2.25s2.25,1.009,2.25,2.25S16.241,15.801,15,15.801z M15,12.801
		c-0.414,0-0.75,0.337-0.75,0.75s0.336,0.75,0.75,0.75s0.75-0.336,0.75-0.75S15.414,12.801,15,12.801z"/>
</g>
</svg>
