<?xml version="1.0" encoding="utf-8"?>
<!-- Generator: Adobe Illustrator 22.1.0, SVG Export Plug-In . SVG Version: 6.00 Build 0)  -->
<svg version="1.1" id="Layer_1" xmlns="http://www.w3.org/2000/svg" xmlns:xlink="http://www.w3.org/1999/xlink" x="0px" y="0px"
	 viewBox="0 0 24 24" style="enable-background:new 0 0 24 24;" xml:space="preserve">
<title>style-three-pin-check-radioactive</title>
<g>
	<path d="M11.999,23.947c-0.26,0-0.517-0.068-0.742-0.196c-0.874-0.499-3.124-1.906-5.143-4.208c-2.564-2.922-3.864-6.2-3.864-9.744
		c0-5.376,4.374-9.75,9.75-9.75s9.75,4.374,9.75,9.75c0,3.544-1.3,6.822-3.865,9.744c-2.017,2.299-4.268,3.708-5.142,4.208
		C12.517,23.879,12.26,23.947,11.999,23.947z M12,1.549c-4.549,0-8.25,3.701-8.25,8.25c0,1.863,0.595,8.282,8.25,12.649
		c7.655-4.372,8.25-10.786,8.25-12.649C20.25,5.25,16.549,1.549,12,1.549z"/>
	<path d="M6.448,10.531c-0.395,0-0.718-0.302-0.748-0.692c-0.007-0.045-0.011-0.093-0.011-0.14c0.002-2.083,1.06-3.982,2.83-5.079
		c0.119-0.074,0.255-0.113,0.395-0.113c0.261,0,0.499,0.132,0.637,0.353l1.586,2.542c0.105,0.168,0.139,0.374,0.094,0.567
		s-0.167,0.363-0.335,0.467c-0.43,0.266-0.693,0.724-0.706,1.229c0.002,0.026,0.004,0.052,0.004,0.069
		c0,0.407-0.331,0.743-0.738,0.75c0,0-2.999,0.047-3.001,0.047H6.448z M8.706,6.341C7.917,7.034,7.4,7.979,7.241,9.018l1.533-0.024
		c0.124-0.511,0.379-0.977,0.742-1.356L8.706,6.341z"/>
	<path d="M14.549,10.484c-0.407-0.007-0.738-0.343-0.738-0.75V9.699c-0.001-0.517-0.266-0.989-0.706-1.263
		c-0.17-0.106-0.289-0.271-0.335-0.467c-0.045-0.193-0.011-0.4,0.094-0.568L14.45,4.86c0.138-0.221,0.376-0.353,0.637-0.353
		c0.139,0,0.276,0.039,0.395,0.113c1.771,1.096,2.831,2.995,2.834,5.078c0,0.051-0.004,0.099-0.012,0.147
		c-0.015,0.178-0.093,0.345-0.221,0.471c-0.142,0.139-0.328,0.216-0.526,0.216L14.549,10.484z M16.763,9.018
		c-0.159-1.04-0.677-1.985-1.469-2.678l-0.81,1.298c0.363,0.379,0.619,0.846,0.742,1.356L16.763,9.018z"/>
	<path d="M12,16.451c-0.885,0-1.741-0.197-2.546-0.586c-0.368-0.178-0.526-0.623-0.353-0.993l1.269-2.708
		c0.084-0.18,0.24-0.321,0.427-0.388c0.081-0.029,0.166-0.044,0.252-0.044c0.111,0,0.223,0.025,0.324,0.073
		c0.195,0.094,0.413,0.143,0.629,0.145c0.211-0.002,0.429-0.052,0.625-0.146c0.101-0.048,0.213-0.074,0.325-0.074
		c0.086,0,0.171,0.015,0.252,0.044c0.187,0.067,0.343,0.208,0.427,0.388l1.269,2.71c0.173,0.37,0.015,0.815-0.353,0.993
		C13.741,16.253,12.885,16.451,12,16.451z M10.8,14.78c0.391,0.113,0.793,0.17,1.2,0.17s0.809-0.057,1.2-0.17l-0.649-1.385
		c-0.18,0.035-0.363,0.053-0.546,0.054c-0.001,0-0.008,0-0.009,0c-0.184-0.001-0.367-0.019-0.548-0.054L10.8,14.78z"/>
	<path d="M12,11.197c-0.044,0-0.088-0.004-0.131-0.012c-0.515-0.061-0.925-0.473-0.983-0.989c-0.003-0.018-0.004-0.036-0.006-0.054
		c-0.003-0.018-0.005-0.052-0.005-0.07c0-0.028,0.002-0.052,0.006-0.077c0.001-0.017,0.003-0.034,0.005-0.051
		c0.06-0.513,0.47-0.922,0.982-0.983C11.912,8.953,11.956,8.949,12,8.949s0.088,0.004,0.131,0.012
		c0.511,0.06,0.92,0.468,0.982,0.978c0.008,0.045,0.012,0.089,0.012,0.133c0,0.046-0.004,0.091-0.012,0.136
		c-0.062,0.51-0.471,0.917-0.982,0.978C12.088,11.193,12.044,11.197,12,11.197z"/>
</g>
</svg>
