<?xml version="1.0" encoding="utf-8"?>
<!-- Generator: Adobe Illustrator 22.1.0, SVG Export Plug-In . SVG Version: 6.00 Build 0)  -->
<svg version="1.1" id="Layer_1" xmlns="http://www.w3.org/2000/svg" xmlns:xlink="http://www.w3.org/1999/xlink" x="0px" y="0px"
	 viewBox="0 0 24 24" style="enable-background:new 0 0 24 24;" xml:space="preserve">
<title>style-two-pin-photography</title>
<g>
	<path d="M12,12.003c-0.044,0-0.088-0.004-0.131-0.011c-0.541-0.063-0.955-0.5-0.989-1.045c-0.002-0.007-0.005-0.033-0.005-0.061
		c0-0.002,0-0.006,0-0.007c0-0.025,0.002-0.049,0.005-0.073c0.024-0.576,0.511-1.05,1.108-1.056c0.001,0,0.011,0,0.012,0
		c0.62,0,1.125,0.505,1.125,1.125c0,0.001,0,0.003,0,0.004c0,0.571-0.426,1.047-0.994,1.114C12.088,11.999,12.044,12.003,12,12.003z
		"/>
	<path d="M9,15.003c-1.241,0-2.25-1.009-2.25-2.25v-3c0-1.241,1.009-2.25,2.25-2.25h0.08c0.388-1.234,1.206-1.5,1.841-1.5H12.8
		c0.961,0.003,1.802,0.61,2.116,1.5H15c1.241,0,2.25,1.009,2.25,2.25v3c0,1.241-1.009,2.25-2.25,2.25H9z M9,9.003
		c-0.414,0-0.75,0.336-0.75,0.75v3c0,0.414,0.336,0.75,0.75,0.75h6c0.414,0,0.75-0.336,0.75-0.75v-3c0-0.414-0.336-0.75-0.75-0.75
		h-0.75c-0.414,0-0.75-0.336-0.75-0.75V7.998c-0.107-0.297-0.383-0.493-0.702-0.494h-1.877c-0.138,0-0.281,0-0.421,0.486v0.264
		c0,0.414-0.336,0.75-0.75,0.75H9z"/>
	<path d="M11.999,23.901c-0.261,0-0.518-0.068-0.743-0.197c-0.875-0.5-3.126-1.911-5.142-4.209c-2.564-2.922-3.864-6.2-3.864-9.743
		c0-5.376,4.374-9.75,9.75-9.75s9.75,4.374,9.75,9.75c0,3.544-1.3,6.822-3.865,9.744c-2.017,2.299-4.268,3.708-5.142,4.208
		C12.518,23.833,12.26,23.901,11.999,23.901z M12,1.503c-4.549,0-8.25,3.701-8.25,8.25c0,1.861,0.595,8.272,8.25,12.649
		c7.655-4.372,8.25-10.787,8.25-12.649C20.25,5.204,16.549,1.503,12,1.503z"/>
</g>
</svg>
