<?xml version="1.0" encoding="utf-8"?>
<!-- Generator: Adobe Illustrator 22.1.0, SVG Export Plug-In . SVG Version: 6.00 Build 0)  -->
<svg version="1.1" id="Layer_1" xmlns="http://www.w3.org/2000/svg" xmlns:xlink="http://www.w3.org/1999/xlink" x="0px" y="0px"
	 viewBox="0 0 24 24" style="enable-background:new 0 0 24 24;" xml:space="preserve">
<title>style-three-pin-cc</title>
<g>
	<path d="M11.999,23.947c-0.26,0-0.517-0.068-0.742-0.196c-0.874-0.499-3.124-1.906-5.143-4.208c-2.564-2.922-3.864-6.2-3.864-9.744
		c0-5.376,4.374-9.75,9.75-9.75s9.75,4.374,9.75,9.75c0,3.544-1.3,6.822-3.865,9.744c-2.017,2.299-4.268,3.708-5.142,4.208
		C12.517,23.879,12.26,23.947,11.999,23.947z M12,1.549c-4.549,0-8.25,3.701-8.25,8.25c0,1.863,0.595,8.282,8.25,12.649
		c7.655-4.372,8.25-10.786,8.25-12.649C20.25,5.25,16.549,1.549,12,1.549z"/>
	<path d="M10.5,14.197c-2.481,0-4.5-2.019-4.5-4.5s2.019-4.5,4.5-4.5c0.414,0,0.75,0.336,0.75,0.75s-0.336,0.75-0.75,0.75
		c-1.654,0-3,1.346-3,3c0,1.654,1.346,3,3,3c0.414,0,0.75,0.336,0.75,0.75S10.914,14.197,10.5,14.197z"/>
	<path d="M16.5,14.197c-2.481,0-4.5-2.019-4.5-4.5s2.019-4.5,4.5-4.5c0.414,0,0.75,0.336,0.75,0.75s-0.336,0.75-0.75,0.75
		c-1.654,0-3,1.346-3,3c0,1.654,1.346,3,3,3c0.414,0,0.75,0.336,0.75,0.75S16.914,14.197,16.5,14.197z"/>
</g>
</svg>
