<?xml version="1.0" encoding="utf-8"?>
<!-- Generator: Adobe Illustrator 22.1.0, SVG Export Plug-In . SVG Version: 6.00 Build 0)  -->
<svg version="1.1" id="Layer_1" xmlns="http://www.w3.org/2000/svg" xmlns:xlink="http://www.w3.org/1999/xlink" x="0px" y="0px"
	 viewBox="0 0 24 24" style="enable-background:new 0 0 24 24;" xml:space="preserve">
<title>style-two-pin-plane</title>
<g>
	<path d="M9.839,15.772c-0.454,0-0.894-0.137-1.273-0.397L5.184,13.05c-0.341-0.235-0.427-0.702-0.193-1.043
		c0.14-0.204,0.372-0.325,0.619-0.325c0.152,0,0.299,0.046,0.424,0.132l1,0.687l2.622-1.449L6.931,8.544
		C6.754,8.381,6.666,8.141,6.694,7.903c0.029-0.239,0.171-0.45,0.382-0.567l1.969-1.088c0.111-0.061,0.236-0.094,0.363-0.094
		c0.152,0,0.299,0.046,0.425,0.132l3.765,2.586l1.546-0.855c0.35-0.194,0.725-0.291,1.103-0.291c0.21,0,0.42,0.03,0.625,0.088
		c0.578,0.167,1.056,0.548,1.347,1.074c0.6,1.086,0.205,2.458-0.88,3.058l-6.409,3.543C10.595,15.674,10.218,15.772,9.839,15.772
		C9.839,15.772,9.839,15.772,9.839,15.772z M9.416,14.139c0.126,0.087,0.273,0.133,0.423,0.133c0.126,0,0.252-0.033,0.364-0.095
		l6.41-3.543c0.362-0.2,0.493-0.658,0.293-1.02c-0.097-0.175-0.257-0.302-0.449-0.358c-0.069-0.02-0.139-0.03-0.209-0.03
		c-0.123,0-0.241,0.03-0.351,0.089l-1.978,1.094c-0.111,0.061-0.236,0.094-0.363,0.094c-0.152,0-0.299-0.046-0.425-0.132
		L9.365,7.785l-0.653,0.36l2.724,2.508c0.177,0.163,0.265,0.403,0.237,0.641c-0.029,0.239-0.171,0.451-0.382,0.567l-2.876,1.59
		L9.416,14.139z"/>
	<path d="M11.749,23.901c-0.261,0-0.518-0.068-0.743-0.197C9.503,22.849,2,18.155,2,9.753c0-5.376,4.374-9.75,9.75-9.75
		s9.75,4.374,9.75,9.75c0,3.544-1.3,6.822-3.865,9.744c-2.017,2.299-4.268,3.708-5.142,4.208
		C12.268,23.833,12.01,23.901,11.749,23.901z M11.75,1.503c-4.549,0-8.25,3.701-8.25,8.25c0,7.573,6.871,11.865,8.249,12.648
		C19.405,18.03,20,11.615,20,9.753C20,5.204,16.299,1.503,11.75,1.503z"/>
</g>
</svg>
