<?xml version="1.0" encoding="utf-8"?>
<!-- Generator: Adobe Illustrator 22.1.0, SVG Export Plug-In . SVG Version: 6.00 Build 0)  -->
<svg version="1.1" id="Layer_1" xmlns="http://www.w3.org/2000/svg" xmlns:xlink="http://www.w3.org/1999/xlink" x="0px" y="0px"
	 viewBox="0 0 24 24" style="enable-background:new 0 0 24 24;" xml:space="preserve">
<title>style-two-pin-restaurant</title>
<g>
	<path d="M9,16.503c-0.414,0-0.75-0.336-0.75-0.75V11.12c-0.885-0.314-1.5-1.162-1.5-2.121V6.753c0-0.414,0.336-0.75,0.75-0.75
		s0.75,0.336,0.75,0.75v2.246c0,0.414,0.336,0.75,0.75,0.75s0.75-0.336,0.75-0.75V6.753c0-0.414,0.336-0.75,0.75-0.75
		s0.75,0.336,0.75,0.75v2.246c0,0.96-0.615,1.808-1.5,2.121v4.633C9.75,16.167,9.414,16.503,9,16.503z"/>
	<path d="M13.5,16.503c-0.414,0-0.75-0.336-0.75-0.75v-9c0-0.262,0.133-0.5,0.355-0.638c0.119-0.073,0.255-0.112,0.395-0.112
		c0.115,0,0.231,0.027,0.334,0.078c0.141,0.07,3.416,1.767,3.416,6.671c0,0.414-0.336,0.75-0.75,0.75h-2.25v2.25
		C14.25,16.167,13.914,16.503,13.5,16.503z M15.719,12.003c-0.152-1.796-0.838-2.964-1.469-3.676v3.676H15.719z"/>
	<path d="M11.999,23.901c-0.261,0-0.518-0.068-0.743-0.197c-0.875-0.5-3.126-1.911-5.142-4.209c-2.564-2.922-3.864-6.2-3.864-9.743
		c0-5.376,4.374-9.75,9.75-9.75s9.75,4.374,9.75,9.75c0,3.544-1.3,6.822-3.865,9.744c-2.017,2.299-4.268,3.708-5.142,4.208
		C12.518,23.833,12.26,23.901,11.999,23.901z M12,1.503c-4.549,0-8.25,3.701-8.25,8.25c0,1.861,0.595,8.272,8.25,12.649
		c7.655-4.372,8.25-10.787,8.25-12.649C20.25,5.204,16.549,1.503,12,1.503z"/>
</g>
</svg>
