<?xml version="1.0" encoding="utf-8"?>
<!-- Generator: Adobe Illustrator 22.1.0, SVG Export Plug-In . SVG Version: 6.00 Build 0)  -->
<svg version="1.1" id="Layer_1" xmlns="http://www.w3.org/2000/svg" xmlns:xlink="http://www.w3.org/1999/xlink" x="0px" y="0px"
	 viewBox="0 0 24 24" style="enable-background:new 0 0 24 24;" xml:space="preserve">
<title>style-one-pin-skull</title>
<g>
	<path d="M10.75,15c-1.227,0-2.228-0.987-2.25-2.209c-1.186-1.065-1.884-2.63-1.875-4.223c0.017-3.085,2.54-5.594,5.625-5.594
		c0.001,0,0.03,0,0.031,0c3.101,0.017,5.611,2.554,5.594,5.655c-0.004,1.6-0.685,3.108-1.875,4.165
		C15.976,14.014,14.976,15,13.75,15H10.75z M13.75,13.5c0.414,0,0.75-0.336,0.75-0.75v-0.309c0-0.234,0.106-0.449,0.29-0.593
		c1.004-0.779,1.582-1.955,1.585-3.226c0.012-2.277-1.828-4.137-4.103-4.15c-2.285,0-4.135,1.84-4.147,4.103
		c-0.007,1.269,0.586,2.493,1.587,3.274C9.895,11.993,10,12.208,10,12.441v0.309c0,0.414,0.336,0.75,0.75,0.75h0.75v-0.75
		c0-0.414,0.336-0.75,0.75-0.75S13,12.336,13,12.75v0.75H13.75z"/>
	<path d="M10.375,10.125c-0.044,0-0.088-0.004-0.131-0.012c-0.513-0.06-0.922-0.47-0.982-0.982C9.254,9.088,9.25,9.044,9.25,9
		s0.004-0.088,0.012-0.131c0.06-0.513,0.47-0.922,0.982-0.982c0.043-0.008,0.087-0.012,0.131-0.012s0.088,0.004,0.131,0.012
		c0.513,0.06,0.922,0.47,0.982,0.982C11.496,8.912,11.5,8.956,11.5,9s-0.004,0.088-0.012,0.131c-0.06,0.513-0.47,0.922-0.982,0.982
		C10.463,10.121,10.419,10.125,10.375,10.125z"/>
	<path d="M14.125,10.125c-0.044,0-0.088-0.004-0.131-0.011c-0.513-0.06-0.922-0.47-0.982-0.983C13.004,9.088,13,9.044,13,9
		s0.004-0.088,0.011-0.13c0.06-0.513,0.47-0.923,0.982-0.983c0.043-0.008,0.087-0.011,0.131-0.011s0.088,0.004,0.131,0.011
		c0.513,0.06,0.922,0.47,0.983,0.983C15.246,8.912,15.25,8.955,15.25,9s-0.004,0.088-0.011,0.13
		c-0.061,0.513-0.47,0.923-0.983,0.983C14.213,10.121,14.169,10.125,14.125,10.125z"/>
	<path d="M12.25,24c-0.308,0-0.59-0.193-0.7-0.481l-1.656-4.306C5.598,18.141,2.501,14.195,2.5,9.754
		c-0.001-5.376,4.372-9.751,9.748-9.752c5.377,0,9.751,4.373,9.752,9.748c0.001,4.443-3.096,8.391-7.394,9.463l-1.656,4.306
		C12.839,23.807,12.558,24,12.25,24z M12.248,1.502C7.699,1.503,3.999,5.204,4,9.753c0.001,3.903,2.776,7.301,6.6,8.082
		c0.252,0.052,0.458,0.226,0.55,0.466l1.1,2.859l1.1-2.86c0.093-0.24,0.298-0.414,0.55-0.466c3.825-0.781,6.601-4.181,6.6-8.085
		c-0.001-4.548-3.702-8.248-8.25-8.248l-0.002-0.375L12.248,1.502z"/>
</g>
</svg>
