<?xml version="1.0" encoding="utf-8"?>
<!-- Generator: Adobe Illustrator 22.1.0, SVG Export Plug-In . SVG Version: 6.00 Build 0)  -->
<svg version="1.1" id="Layer_1" xmlns="http://www.w3.org/2000/svg" xmlns:xlink="http://www.w3.org/1999/xlink" x="0px" y="0px"
	 viewBox="0 0 24 24" style="enable-background:new 0 0 24 24;" xml:space="preserve">
<title>style-three-pin-scissors</title>
<g>
	<path d="M11.749,23.947c-0.261,0-0.518-0.068-0.743-0.197C9.503,22.895,2,18.201,2,9.799c0-5.376,4.374-9.75,9.75-9.75
		s9.75,4.374,9.75,9.75c0,3.544-1.3,6.822-3.865,9.744c-2.017,2.299-4.268,3.708-5.142,4.208
		C12.268,23.879,12.01,23.947,11.749,23.947z M11.75,1.549c-4.549,0-8.25,3.701-8.25,8.25c0,7.573,6.871,11.865,8.249,12.648
		C19.405,18.076,20,11.661,20,9.799C20,5.25,16.299,1.549,11.75,1.549z"/>
	<path d="M15.125,14.574c-1.38,0-2.513-1.06-2.615-2.427l-0.76-1.521l-0.76,1.521c-0.102,1.368-1.235,2.427-2.615,2.427
		c-1.447,0-2.625-1.177-2.625-2.625s1.178-2.625,2.625-2.625c0.742,0,1.436,0.312,1.927,0.844l0.609-1.219L8.829,4.785
		c-0.185-0.37-0.034-0.821,0.335-1.006C9.268,3.726,9.384,3.699,9.5,3.699c0.286,0,0.543,0.159,0.671,0.414l1.579,3.159l1.579-3.158
		C13.457,3.858,13.715,3.699,14,3.699c0.115,0,0.231,0.027,0.334,0.079c0.371,0.185,0.521,0.637,0.336,1.006l-2.082,4.165
		l0.609,1.219c0.49-0.531,1.185-0.844,1.927-0.844c1.448,0,2.625,1.178,2.625,2.625S16.573,14.574,15.125,14.574z M15.125,10.824
		c-0.62,0-1.125,0.505-1.125,1.125c0,0.62,0.505,1.125,1.125,1.125s1.125-0.505,1.125-1.125
		C16.25,11.329,15.745,10.824,15.125,10.824z M8.375,10.824c-0.62,0-1.125,0.505-1.125,1.125c0,0.62,0.505,1.125,1.125,1.125
		S9.5,12.569,9.5,11.949C9.5,11.329,8.995,10.824,8.375,10.824z"/>
</g>
</svg>
