<?xml version="1.0" encoding="utf-8"?>
<!-- Generator: Adobe Illustrator 22.1.0, SVG Export Plug-In . SVG Version: 6.00 Build 0)  -->
<svg version="1.1" id="Layer_1" xmlns="http://www.w3.org/2000/svg" xmlns:xlink="http://www.w3.org/1999/xlink" x="0px" y="0px"
	 viewBox="0 0 24 24" style="enable-background:new 0 0 24 24;" xml:space="preserve">
<title>style-three-pin-dam</title>
<g>
	<path d="M11.999,23.947c-0.26,0-0.517-0.068-0.742-0.196c-0.874-0.499-3.124-1.906-5.143-4.208c-2.564-2.922-3.864-6.2-3.864-9.744
		c0-5.376,4.374-9.75,9.75-9.75s9.75,4.374,9.75,9.75c0,3.544-1.3,6.822-3.865,9.744c-2.017,2.299-4.268,3.708-5.142,4.208
		C12.517,23.879,12.26,23.947,11.999,23.947z M12,1.549c-4.549,0-8.25,3.701-8.25,8.25c0,1.863,0.595,8.282,8.25,12.649
		c7.655-4.372,8.25-10.786,8.25-12.649C20.25,5.25,16.549,1.549,12,1.549z"/>
	<path d="M7.5,15.801c-0.414,0-0.75-0.336-0.75-0.75v-8.25c0-0.414,0.336-0.75,0.75-0.75h2.25c0.314,0,0.598,0.198,0.705,0.494
		l0.528,1.451l0.609-0.312c0.526-0.269,1.116-0.411,1.707-0.411c0.743,0,1.463,0.218,2.081,0.63l0.031,0.021
		c0.367,0.244,0.791,0.373,1.222,0.373l0.617,0c0.414,0,0.75,0.336,0.75,0.75s-0.336,0.75-0.75,0.75h-0.592
		c-0.745,0-1.462-0.216-2.079-0.625l-0.033-0.022c-0.369-0.246-0.801-0.376-1.247-0.376c-0.355,0-0.709,0.085-1.024,0.246
		l-0.776,0.398l0.825,2.267c0.577-0.374,1.242-0.571,1.926-0.571c0.699,0,1.378,0.206,1.963,0.595
		c0.337,0.225,0.728,0.343,1.132,0.343H18c0.414,0,0.75,0.336,0.75,0.75s-0.336,0.75-0.75,0.75h-0.655
		c-0.701,0-1.381-0.206-1.964-0.595c-0.337-0.225-0.728-0.343-1.131-0.343c-0.403,0-0.794,0.119-1.132,0.344l-0.267,0.178
		l0.604,1.66c0.083,0.23,0.049,0.487-0.091,0.687c-0.139,0.2-0.369,0.319-0.614,0.319H7.5z M11.679,14.301l-2.455-6.75H8.25v6.75
		H11.679z"/>
</g>
</svg>
