<?xml version="1.0" encoding="utf-8"?>
<!-- Generator: Adobe Illustrator 22.1.0, SVG Export Plug-In . SVG Version: 6.00 Build 0)  -->
<svg version="1.1" id="Layer_1" xmlns="http://www.w3.org/2000/svg" xmlns:xlink="http://www.w3.org/1999/xlink" x="0px" y="0px"
	 viewBox="0 0 24 24" style="enable-background:new 0 0 24 24;" xml:space="preserve">
<title>surveillance-cctv-1</title>
<g>
	<path d="M0.75,22.25C0.336,22.25,0,21.914,0,21.5v-3.75C0,17.336,0.336,17,0.75,17s0.75,0.336,0.75,0.75v1.5h3.75
		c0.065,0.003,0.108,0.004,0.15,0.004c1.11,0,2.033-0.865,2.101-1.968L7.5,14.75H5.25c-1.799,0-3.323-1.268-3.673-3H1.5
		c-0.827,0-1.5-0.673-1.5-1.5V6.5c0-2.895,2.355-5.25,5.25-5.25h16.5C22.991,1.25,24,2.259,24,3.5v1.275
		c0,0.889-0.525,1.696-1.337,2.057L21,7.571V12.5c0,1.241-1.009,2.25-2.25,2.25H9v2.583c-0.118,1.929-1.696,3.421-3.591,3.421
		c-0.066,0-0.132-0.002-0.199-0.005L1.5,20.75v0.75C1.5,21.914,1.164,22.25,0.75,22.25z M3.132,11.75
		c0.313,0.879,1.158,1.5,2.118,1.5h13.5c0.414,0,0.75-0.336,0.75-0.75V8.238l-2.25,1V9.5c0,1.241-1.009,2.25-2.25,2.25H3.132z
		 M5.25,2.75C3.182,2.75,1.5,4.432,1.5,6.5v3.75H15c0.414,0,0.75-0.336,0.75-0.75V8.751c0-0.296,0.175-0.565,0.446-0.685
		l5.859-2.605c0.271-0.12,0.446-0.39,0.446-0.686V3.5c0-0.414-0.336-0.75-0.75-0.75H5.25z"/>
	<path d="M23.25,12.5c-0.414,0-0.75-0.336-0.75-0.75v-3C22.5,8.336,22.836,8,23.25,8S24,8.336,24,8.75v3
		C24,12.164,23.664,12.5,23.25,12.5z"/>
</g>
</svg>
