<?xml version="1.0" encoding="utf-8"?>
<!-- Generator: Adobe Illustrator 22.1.0, SVG Export Plug-In . SVG Version: 6.00 Build 0)  -->
<svg version="1.1" id="Layer_1" xmlns="http://www.w3.org/2000/svg" xmlns:xlink="http://www.w3.org/1999/xlink" x="0px" y="0px"
	 viewBox="0 0 24 24" style="enable-background:new 0 0 24 24;" xml:space="preserve">
<title>surveillance-camera-smartphone</title>
<g>
	<path d="M6.746,13.5c-0.896,0-1.766-0.199-2.585-0.59c-2.677-1.281-3.995-4.277-3.173-7.086C0.397,5.536,0,4.926,0,4.25v-3
		C0,0.561,0.561,0,1.25,0h11c0.689,0,1.25,0.561,1.25,1.25v3c0,0.677-0.398,1.286-0.988,1.574c0.415,1.416,0.294,2.916-0.349,4.262
		c-0.692,1.446-1.905,2.536-3.416,3.069C8.098,13.384,7.425,13.5,6.746,13.5z M2.513,6c-0.764,2.155,0.211,4.559,2.296,5.556
		c0.615,0.294,1.267,0.443,1.938,0.443c0.509,0,1.014-0.087,1.501-0.259c1.133-0.4,2.043-1.217,2.562-2.302
		C11.326,8.36,11.389,7.12,10.994,6H2.513z M11.75,4.5C11.888,4.5,12,4.388,12,4.25V1.5H1.5v2.75c0,0.138,0.112,0.25,0.25,0.25
		h0.099c0.053-0.012,0.108-0.018,0.163-0.018S2.122,4.488,2.175,4.5h9.149c0.054-0.012,0.108-0.018,0.163-0.018
		s0.109,0.006,0.163,0.018H11.75z"/>
	<path d="M6.75,9.375c-0.044,0-0.088-0.004-0.131-0.012c-0.513-0.06-0.922-0.47-0.982-0.982C5.629,8.338,5.625,8.294,5.625,8.25
		s0.004-0.088,0.012-0.131c0.06-0.513,0.47-0.922,0.982-0.982C6.662,7.129,6.706,7.125,6.75,7.125s0.088,0.004,0.131,0.012
		c0.513,0.06,0.922,0.47,0.982,0.982C7.871,8.162,7.875,8.206,7.875,8.25S7.871,8.338,7.863,8.381
		c-0.06,0.513-0.47,0.922-0.982,0.982C6.838,9.371,6.794,9.375,6.75,9.375z"/>
	<path d="M2.25,18c-0.414,0-0.75-0.336-0.75-0.75v-3c0-0.414,0.336-0.75,0.75-0.75S3,13.836,3,14.25v3C3,17.664,2.664,18,2.25,18z"
		/>
	<path d="M3.75,24c-1.241,0-2.25-1.009-2.25-2.25v-1.5c0-0.414,0.336-0.75,0.75-0.75S3,19.836,3,20.25v1.5
		c0,0.414,0.336,0.75,0.75,0.75h1.5C5.664,22.5,6,22.836,6,23.25S5.664,24,5.25,24H3.75z"/>
	<path d="M8.25,24c-0.414,0-0.75-0.336-0.75-0.75s0.336-0.75,0.75-0.75h3c0.414,0,0.75,0.336,0.75,0.75S11.664,24,11.25,24H8.25z"/>
	<path d="M17.25,24C16.009,24,15,22.991,15,21.75v-9c0-1.241,1.009-2.25,2.25-2.25h4.5c1.241,0,2.25,1.009,2.25,2.25v9
		c0,1.241-1.009,2.25-2.25,2.25H17.25z M17.25,12c-0.414,0-0.75,0.336-0.75,0.75v9c0,0.414,0.336,0.75,0.75,0.75h4.5
		c0.414,0,0.75-0.336,0.75-0.75v-9c0-0.414-0.336-0.75-0.75-0.75H17.25z"/>
	<path d="M19.5,21.375c-0.044,0-0.088-0.004-0.13-0.011c-0.513-0.06-0.923-0.47-0.983-0.983c-0.008-0.042-0.011-0.086-0.011-0.131
		s0.004-0.088,0.011-0.131c0.06-0.513,0.47-0.923,0.983-0.983c0.042-0.008,0.086-0.011,0.131-0.011c0.015,0,0.036,0.001,0.053,0.003
		c0.027,0.001,0.052,0.004,0.075,0.008c0.514,0.06,0.925,0.47,0.985,0.983c0.008,0.042,0.011,0.086,0.011,0.131
		s-0.004,0.088-0.011,0.131c-0.06,0.513-0.47,0.923-0.983,0.983C19.588,21.371,19.544,21.375,19.5,21.375z"/>
	<path d="M21.621,8.379c-0.2,0-0.388-0.078-0.53-0.219c-0.424-0.424-0.989-0.658-1.591-0.658s-1.167,0.234-1.591,0.657
		c-0.142,0.142-0.33,0.219-0.53,0.219s-0.389-0.078-0.53-0.22c-0.142-0.142-0.22-0.33-0.22-0.53c0-0.2,0.078-0.389,0.22-0.53
		c0.707-0.707,1.649-1.096,2.651-1.096s1.944,0.389,2.651,1.096c0.142,0.142,0.22,0.33,0.22,0.531c0,0.2-0.078,0.389-0.22,0.53
		C22.01,8.301,21.821,8.379,21.621,8.379z"/>
	<path d="M22.5,5.201c-0.114,0-0.229-0.027-0.332-0.078c-0.82-0.405-1.742-0.62-2.668-0.62s-1.848,0.214-2.667,0.62
		c-0.104,0.051-0.218,0.078-0.332,0.078c-0.288,0-0.545-0.16-0.673-0.417c-0.183-0.37-0.031-0.821,0.34-1.005
		c1.024-0.507,2.177-0.774,3.333-0.774s2.308,0.268,3.333,0.774c0.371,0.184,0.523,0.634,0.34,1.005
		C23.045,5.041,22.787,5.201,22.5,5.201z"/>
</g>
</svg>
