<?xml version="1.0" encoding="utf-8"?>
<!-- Generator: Adobe Illustrator 22.1.0, SVG Export Plug-In . SVG Version: 6.00 Build 0)  -->
<svg version="1.1" id="Layer_1" xmlns="http://www.w3.org/2000/svg" xmlns:xlink="http://www.w3.org/1999/xlink" x="0px" y="0px"
	 viewBox="0 0 24 24" style="enable-background:new 0 0 24 24;" xml:space="preserve">
<title>surveillance-360-camera</title>
<g>
	<path d="M11.5,15C7.365,15,4,11.635,4,7.5S7.365,0,11.5,0S19,3.365,19,7.5S15.636,15,11.5,15z M11.5,1.5c-3.308,0-6,2.692-6,6
		s2.692,6,6,6s6-2.692,6-6S14.808,1.5,11.5,1.5z"/>
	<path d="M11.5,11.25c-2.068,0-3.75-1.682-3.75-3.75s1.682-3.75,3.75-3.75c2.068,0,3.75,1.682,3.75,3.75S13.568,11.25,11.5,11.25z
		 M11.5,5.25c-1.241,0-2.25,1.009-2.25,2.25s1.009,2.25,2.25,2.25c1.241,0,2.25-1.009,2.25-2.25S12.741,5.25,11.5,5.25z"/>
	<path d="M9.25,24C8.009,24,7,22.991,7,21.75V19.5c0-1.654,1.346-3,3-3c0.414,0,0.75,0.336,0.75,0.75S10.414,18,10,18
		c-0.827,0-1.5,0.673-1.5,1.5v0.129C8.739,19.544,8.991,19.5,9.25,19.5c1.241,0,2.25,1.009,2.25,2.25S10.491,24,9.25,24z M9.25,21
		c-0.414,0-0.75,0.336-0.75,0.75s0.336,0.75,0.75,0.75S10,22.164,10,21.75S9.664,21,9.25,21z"/>
	<path d="M3.95,24c-1.008,0-1.9-0.678-2.169-1.65c-0.11-0.399,0.125-0.813,0.523-0.923c0.065-0.018,0.133-0.027,0.2-0.027
		c0.336,0,0.633,0.226,0.723,0.55c0.09,0.324,0.387,0.55,0.723,0.55c0.414,0,0.75-0.337,0.75-0.75c0-0.2-0.078-0.389-0.22-0.531
		C4.338,21.078,4.15,21,3.95,21c-0.005,0-0.01,0-0.015,0c-0.195-0.004-0.378-0.081-0.516-0.219c-0.142-0.142-0.22-0.33-0.22-0.531
		c0-0.414,0.336-0.75,0.75-0.75c0.339,0,0.637-0.229,0.725-0.556c0.107-0.399-0.131-0.811-0.531-0.918
		C4.078,18.008,4.013,18,3.947,18c-0.13,0-0.259,0.035-0.373,0.101c-0.174,0.1-0.298,0.262-0.349,0.455
		c-0.088,0.327-0.386,0.556-0.725,0.556c-0.065,0-0.13-0.009-0.193-0.025c-0.401-0.107-0.638-0.52-0.532-0.919
		c0.155-0.58,0.528-1.066,1.048-1.367c0.343-0.198,0.731-0.302,1.122-0.302c0.196,0,0.393,0.026,0.585,0.077
		c1.198,0.321,1.912,1.557,1.592,2.755c-0.091,0.34-0.263,0.655-0.497,0.917c0.371,0.413,0.574,0.941,0.574,1.5
		C6.2,22.989,5.191,23.999,3.95,24C3.951,24,3.95,24,3.95,24z"/>
	<path d="M14.5,24c-1.241,0-2.25-1.009-2.25-2.25v-3c0-1.241,1.009-2.25,2.25-2.25s2.25,1.009,2.25,2.25v3
		C16.75,22.991,15.741,24,14.5,24z M14.5,18c-0.414,0-0.75,0.336-0.75,0.75v3c0,0.414,0.336,0.75,0.75,0.75s0.75-0.336,0.75-0.75v-3
		C15.25,18.336,14.914,18,14.5,18z"/>
	<path d="M19.75,21C19.337,21,19,20.664,19,20.25v-3c0-0.414,0.336-0.75,0.75-0.75s0.75,0.336,0.75,0.75v0.816
		c0.446-0.688,0.707-1.485,0.75-2.32c-0.05-1.241-0.618-2.417-1.561-3.228c-0.152-0.131-0.244-0.313-0.259-0.512
		c-0.015-0.2,0.049-0.394,0.18-0.545c0.142-0.166,0.349-0.261,0.569-0.261c0.179,0,0.353,0.064,0.489,0.182
		c1.267,1.09,2.026,2.673,2.082,4.343c0,0.022,0,0.041,0,0.061c-0.062,1.386-0.569,2.677-1.447,3.715h1.448
		c0.414,0,0.75,0.336,0.75,0.75S23.164,21,22.75,21H19.75z"/>
	<path d="M0.966,16.499c-0.191-0.006-0.377-0.09-0.514-0.237c-0.137-0.146-0.208-0.337-0.202-0.537
		c0.056-1.671,0.815-3.254,2.083-4.344c0.136-0.117,0.309-0.182,0.489-0.182c0.219,0,0.426,0.095,0.569,0.261
		c0.269,0.313,0.234,0.788-0.08,1.057c-0.95,0.817-1.52,2.005-1.562,3.257C1.736,16.181,1.407,16.5,1,16.5
		C0.993,16.5,0.973,16.5,0.966,16.499z"/>
</g>
</svg>
