<?xml version="1.0" encoding="utf-8"?>
<!-- Generator: Adobe Illustrator 22.1.0, SVG Export Plug-In . SVG Version: 6.00 Build 0)  -->
<svg version="1.1" id="Regular" xmlns="http://www.w3.org/2000/svg" xmlns:xlink="http://www.w3.org/1999/xlink" x="0px" y="0px"
	 viewBox="0 0 24 24" style="enable-background:new 0 0 24 24;" xml:space="preserve">
<title>swimming-cap</title>
<g>
	<path d="M14.621,15.006c-0.044,0-0.088-0.004-0.13-0.011c-0.513-0.06-0.923-0.47-0.983-0.983c-0.008-0.042-0.011-0.086-0.011-0.131
		s0.004-0.088,0.011-0.131c0.06-0.513,0.47-0.923,0.983-0.983c0.042-0.008,0.086-0.011,0.131-0.011s0.088,0.004,0.131,0.011
		c0.513,0.06,0.923,0.47,0.983,0.983c0.008,0.042,0.011,0.086,0.011,0.131s-0.004,0.088-0.011,0.131
		c-0.06,0.513-0.47,0.923-0.983,0.983C14.71,15.002,14.666,15.006,14.621,15.006z"/>
	<path d="M9.371,15.006c-0.044,0-0.088-0.004-0.13-0.011c-0.513-0.06-0.923-0.47-0.983-0.983c-0.008-0.043-0.011-0.087-0.011-0.131
		s0.004-0.088,0.011-0.131c0.06-0.513,0.47-0.922,0.983-0.982c0.042-0.008,0.086-0.011,0.13-0.011s0.088,0.004,0.13,0.011
		c0.513,0.06,0.923,0.469,0.983,0.982c0.008,0.043,0.011,0.087,0.011,0.131s-0.004,0.088-0.011,0.131
		c-0.06,0.513-0.47,0.922-0.983,0.983C9.459,15.002,9.416,15.006,9.371,15.006z"/>
	<path d="M11.996,23.256c-2.576,0-4.935-1.298-6.324-3.475c-4.247-3.247-5.418-9.079-2.784-13.704
		C2.467,5.61,2.246,5.072,2.246,4.506c0-1.682,1.977-3,4.5-3c0.385,0,0.768,0.031,1.141,0.094c1.304-0.557,2.686-0.84,4.111-0.84
		c1.362,0,2.688,0.259,3.943,0.77c0.203-0.017,0.381-0.025,0.556-0.025c2.523,0,4.5,1.318,4.5,3c0,0.345-0.082,0.679-0.243,0.997
		c3.06,4.664,2.012,10.88-2.434,14.28C16.93,21.959,14.571,23.256,11.996,23.256z M11.996,9.756c-3.308,0-6,2.692-6,6s2.692,6,6,6
		s6-2.692,6-6S15.305,9.756,11.996,9.756z M4.114,6.957c-1.624,2.979-1.434,6.634,0.408,9.424c-0.017-0.208-0.026-0.416-0.026-0.625
		c0-4.135,3.365-7.5,7.5-7.5c4.136,0,7.5,3.365,7.5,7.5c0,0.206-0.009,0.412-0.025,0.616c1.893-2.892,2.018-6.732,0.226-9.734
		c-0.832,0.556-1.972,0.868-3.2,0.868c-2.104,0-3.871-0.93-4.36-2.25h-1.03c-0.489,1.32-2.257,2.25-4.36,2.25
		C5.79,7.506,4.871,7.313,4.114,6.957z M16.496,3.006c-1.717,0-3,0.792-3,1.5s1.283,1.5,3,1.5c1.185,0,2.304-0.395,2.785-0.982
		c0.001-0.001,0.001-0.002,0.002-0.002c0.141-0.173,0.213-0.346,0.213-0.515C19.496,3.798,18.214,3.006,16.496,3.006z M6.746,3.006
		c-1.717,0-3,0.792-3,1.5s1.283,1.5,3,1.5s3-0.792,3-1.5S8.463,3.006,6.746,3.006z M12.136,3.756c0.198-0.54,0.607-1.02,1.181-1.398
		c-0.438-0.065-0.88-0.098-1.324-0.098c-0.645,0-1.285,0.069-1.91,0.205c0.495,0.36,0.846,0.8,1.025,1.291H12.136z"/>
	<path d="M11.996,18.756c-0.414,0-0.75-0.336-0.75-0.75v-1.5c0-0.414,0.336-0.75,0.75-0.75c0.413,0,0.75,0.336,0.75,0.75v1.5
		C12.746,18.42,12.41,18.756,11.996,18.756z"/>
</g>
</svg>
