<?xml version="1.0" encoding="utf-8"?>
<!-- Generator: Adobe Illustrator 22.1.0, SVG Export Plug-In . SVG Version: 6.00 Build 0)  -->
<svg version="1.1" id="Regular" xmlns="http://www.w3.org/2000/svg" xmlns:xlink="http://www.w3.org/1999/xlink" x="0px" y="0px"
	 viewBox="0 0 24 24" style="enable-background:new 0 0 24 24;" xml:space="preserve">
<title>swimming-cap-1</title>
<g>
	<path d="M14.63,14.25c-0.044,0-0.088-0.004-0.13-0.011c-0.513-0.06-0.923-0.47-0.983-0.983c-0.007-0.042-0.011-0.086-0.011-0.13
		s0.004-0.088,0.011-0.131c0.06-0.513,0.47-0.923,0.983-0.983C14.542,12.004,14.586,12,14.63,12s0.088,0.004,0.131,0.011
		c0.513,0.06,0.923,0.47,0.983,0.983c0.008,0.042,0.011,0.086,0.011,0.131s-0.004,0.088-0.011,0.131
		c-0.06,0.513-0.47,0.923-0.983,0.983C14.719,14.246,14.675,14.25,14.63,14.25z"/>
	<path d="M9.38,14.25c-0.044,0-0.088-0.004-0.13-0.011c-0.513-0.06-0.923-0.47-0.983-0.982c-0.008-0.043-0.011-0.087-0.011-0.131
		s0.004-0.088,0.011-0.131c0.06-0.513,0.47-0.922,0.983-0.983C9.292,12.004,9.336,12,9.38,12s0.088,0.004,0.13,0.011
		c0.513,0.06,0.923,0.47,0.983,0.983c0.008,0.043,0.011,0.087,0.011,0.131s-0.004,0.088-0.011,0.131
		c-0.06,0.513-0.47,0.922-0.983,0.982C9.469,14.246,9.425,14.25,9.38,14.25z"/>
	<path d="M12.005,17.25c-0.414,0-0.75-0.336-0.75-0.75V15c0-0.414,0.336-0.75,0.75-0.75s0.75,0.336,0.75,0.75v1.5
		C12.755,16.914,12.419,17.25,12.005,17.25z"/>
	<path d="M14.255,24c-0.2,0-0.389-0.078-0.53-0.22l-1.72-1.72l-1.72,1.72C10.144,23.922,9.956,24,9.755,24s-0.389-0.078-0.53-0.22
		c-0.292-0.292-0.292-0.768,0-1.061l1.151-1.151c-1.691-0.379-3.227-1.349-4.299-2.732c-0.007-0.005-0.013-0.01-0.02-0.016
		c-0.575-0.488-1.1-1.041-1.566-1.646c-0.239,0.047-0.481,0.07-0.722,0.07c-0.655,0-1.304-0.176-1.878-0.509
		c-0.866-0.503-1.485-1.313-1.741-2.281c-0.472-1.781,0.451-3.659,2.117-4.392C2.48,4.491,6.8,0,12.005,0
		c5.202,0,9.523,4.491,9.739,10.062c0.725,0.318,1.335,0.86,1.735,1.549c0.503,0.866,0.639,1.876,0.382,2.844
		c-0.257,0.968-0.875,1.778-1.741,2.281c-0.573,0.333-1.223,0.509-1.878,0.509c-0.241,0-0.483-0.024-0.722-0.07
		c-0.466,0.605-0.992,1.158-1.566,1.646c-0.005,0.004-0.011,0.009-0.018,0.014c-1.073,1.385-2.609,2.355-4.301,2.734l1.151,1.151
		c0.292,0.292,0.292,0.768,0,1.061C14.644,23.922,14.456,24,14.255,24z M12.005,8.25c-3.308,0-6,2.692-6,6c0,3.308,2.692,6,6,6
		c3.308,0,6-2.692,6-6C18.005,10.942,15.314,8.25,12.005,8.25z M2.32,11.779c-0.649,0.55-0.947,1.438-0.72,2.292
		c0.154,0.581,0.525,1.067,1.045,1.369c0.281,0.163,0.592,0.264,0.911,0.295C2.893,14.51,2.472,13.163,2.32,11.779z M21.691,11.777
		c-0.151,1.384-0.572,2.732-1.236,3.958c0.318-0.031,0.629-0.132,0.91-0.295c0.52-0.302,0.891-0.788,1.045-1.369
		c0.154-0.581,0.073-1.187-0.229-1.707C22.052,12.139,21.886,11.941,21.691,11.777z M16.458,8.22
		c1.912,1.415,3.048,3.655,3.048,6.03c0,0.005,0,0.01,0,0.014c0.507-1.177,0.763-2.449,0.75-3.757c0-3.783-2.217-7.165-5.405-8.452
		C15.723,3.539,16.294,5.706,16.458,8.22z M9.161,2.055C5.972,3.342,3.755,6.722,3.755,10.5c-0.013,1.311,0.243,2.585,0.75,3.763
		c0-0.004,0-0.009,0-0.013c0-2.374,1.136-4.615,3.048-6.03C7.717,5.706,8.288,3.538,9.161,2.055z M12.005,6.75
		c0.981,0,1.96,0.196,2.865,0.571C14.442,3.663,13.115,1.5,12.005,1.5c-1.11,0-2.437,2.163-2.865,5.821
		C10.046,6.946,11.024,6.75,12.005,6.75z"/>
</g>
</svg>
