<?xml version="1.0" encoding="utf-8"?>
<!-- Generator: Adobe Illustrator 22.1.0, SVG Export Plug-In . SVG Version: 6.00 Build 0)  -->
<svg version="1.1" id="Layer_1" xmlns="http://www.w3.org/2000/svg" xmlns:xlink="http://www.w3.org/1999/xlink" x="0px" y="0px"
	 viewBox="0 0 24 24" style="enable-background:new 0 0 24 24;" xml:space="preserve">
<title>swimming-pool-stairs</title>
<g>
	<path d="M11.25,23.999c-1.496,0-2.949-0.498-4.126-1.407c-1.179,0.908-2.636,1.405-4.136,1.405c-0.869,0-1.716-0.164-2.519-0.488
		c-0.384-0.155-0.57-0.593-0.415-0.976c0.115-0.285,0.388-0.469,0.696-0.469c0.096,0,0.189,0.018,0.278,0.053
		c0.626,0.252,1.285,0.38,1.961,0.38c1.355,0,2.641-0.51,3.62-1.436c0.14-0.132,0.323-0.205,0.516-0.205
		c0.193,0,0.376,0.073,0.516,0.206c0.978,0.927,2.26,1.437,3.609,1.437c1.349,0,2.63-0.51,3.609-1.437
		c0.139-0.133,0.323-0.206,0.516-0.206s0.376,0.073,0.516,0.206c0.974,0.922,2.256,1.429,3.612,1.429
		c1.192,0,2.357-0.406,3.278-1.145c0.133-0.106,0.299-0.164,0.469-0.164c0.229,0,0.443,0.103,0.586,0.281
		c0.258,0.323,0.206,0.795-0.117,1.054c-1.186,0.95-2.683,1.473-4.215,1.473c0,0,0,0,0,0c-1.501,0-2.955-0.495-4.128-1.398
		C14.199,23.501,12.746,23.999,11.25,23.999z"/>
	<path d="M17.25,19.499c-0.414,0-0.75-0.336-0.75-0.75v-2.25H9v2.25c0,0.414-0.336,0.75-0.75,0.75s-0.75-0.336-0.75-0.75v-15
		c0-2.068,1.682-3.75,3.75-3.75c2.068,0,3.75,1.682,3.75,3.75c0,0.414-0.336,0.75-0.75,0.75s-0.75-0.336-0.75-0.75
		c0-1.241-1.009-2.25-2.25-2.25C10.009,1.499,9,2.509,9,3.749v2.25h7.5v-2.25c0-2.068,1.682-3.75,3.75-3.75S24,1.682,24,3.749
		c0,0.414-0.336,0.75-0.75,0.75s-0.75-0.336-0.75-0.75c0-1.241-1.009-2.25-2.25-2.25S18,2.509,18,3.749v15
		C18,19.163,17.664,19.499,17.25,19.499z M16.5,14.999v-3H9L16.5,14.999z M16.5,10.499v-3H9v3H16.5z"/>
</g>
</svg>
