<?xml version="1.0" encoding="utf-8"?>
<!-- Generator: Adobe Illustrator 22.1.0, SVG Export Plug-In . SVG Version: 6.00 Build 0)  -->
<svg version="1.1" id="Regular" xmlns="http://www.w3.org/2000/svg" xmlns:xlink="http://www.w3.org/1999/xlink" x="0px" y="0px"
	 viewBox="0 0 24 24" style="enable-background:new 0 0 24 24;" xml:space="preserve">
<title>t-shirt</title>
<g>
	<path d="M6.75,24c-0.827,0-1.5-0.673-1.5-1.5v-9h-3c-0.827,0-1.5-0.673-1.5-1.5V6.75C0.75,3.028,3.778,0,7.5,0H9
		c0.01,0,0.021,0,0.031,0.001c0.013,0,0.034,0.003,0.055,0.005C9.11,0.01,9.13,0.012,9.147,0.015
		C9.161,0.018,9.174,0.02,9.186,0.023c0.015,0.004,0.045,0.014,0.059,0.02c0.012,0.003,0.038,0.012,0.063,0.024
		c0.02,0.009,0.039,0.019,0.057,0.03c0.029,0.017,0.051,0.03,0.071,0.044c0.017,0.012,0.036,0.028,0.055,0.044
		c0.021,0.018,0.036,0.032,0.051,0.047c0.016,0.017,0.03,0.034,0.043,0.051C9.606,0.31,9.62,0.328,9.632,0.348
		c0.012,0.02,0.022,0.038,0.032,0.058c0.014,0.028,0.025,0.049,0.033,0.071c0.008,0.02,0.015,0.044,0.022,0.068
		c0.008,0.027,0.013,0.049,0.017,0.071c0.005,0.024,0.007,0.051,0.009,0.078C9.748,0.705,9.75,0.727,9.75,0.75
		C9.75,1.991,10.759,3,12,3c1.241,0,2.25-1.009,2.25-2.25c0-0.018,0.003-0.052,0.005-0.069c0.001-0.018,0.003-0.043,0.008-0.069
		c0.003-0.016,0.009-0.039,0.015-0.062c0.01-0.036,0.016-0.054,0.023-0.071c0.01-0.025,0.02-0.045,0.03-0.065
		c0.015-0.03,0.025-0.048,0.036-0.065c0.014-0.022,0.029-0.042,0.044-0.061c0.013-0.016,0.027-0.034,0.042-0.051
		c0.019-0.02,0.037-0.037,0.056-0.053c0.021-0.018,0.039-0.033,0.059-0.047c0.013-0.01,0.035-0.023,0.058-0.036
		c0.027-0.015,0.045-0.025,0.063-0.034c0.022-0.01,0.047-0.019,0.073-0.028c0.012-0.005,0.034-0.013,0.057-0.018
		c0.011-0.003,0.023-0.005,0.035-0.007c0.016-0.003,0.031-0.005,0.045-0.007c0.027-0.003,0.047-0.006,0.065-0.007
		C14.977,0.001,14.989,0,15,0h1.5c3.722,0,6.75,3.028,6.75,6.75V12c0,0.827-0.673,1.5-1.5,1.5h-3v9c0,0.827-0.673,1.5-1.5,1.5H6.75z
		 M6,7.5c0.414,0,0.75,0.336,0.75,0.75V22.5h10.5V8.25c0-0.414,0.336-0.75,0.75-0.75s0.75,0.336,0.75,0.75V12h3V6.75
		c0-2.895-2.355-5.25-5.25-5.25h-0.541l0.868,3.487c0.2,0.802-0.29,1.618-1.092,1.818c-0.119,0.03-0.241,0.045-0.363,0.045
		c-0.231,0-0.463-0.054-0.669-0.157L12.75,5.714V8.25C12.75,8.664,12.414,9,12,9s-0.75-0.336-0.75-0.75V5.714L9.298,6.692
		C9.09,6.795,8.859,6.85,8.627,6.85c-0.122,0-0.245-0.015-0.364-0.045C7.876,6.708,7.548,6.465,7.342,6.122
		C7.135,5.778,7.075,5.375,7.172,4.986L8.04,1.5H7.5c-2.895,0-5.25,2.355-5.25,5.25V12h3V8.25C5.25,7.836,5.586,7.5,6,7.5z
		 M15.374,5.35l-0.536-2.15c-0.428,0.497-0.976,0.87-1.588,1.086L15.374,5.35z M8.628,5.349l2.122-1.062
		c-0.612-0.216-1.16-0.589-1.588-1.086L8.628,5.349z"/>
</g>
</svg>
