<?xml version="1.0" encoding="utf-8"?>
<!-- Generator: Adobe Illustrator 22.1.0, SVG Export Plug-In . SVG Version: 6.00 Build 0)  -->
<svg version="1.1" id="Regular" xmlns="http://www.w3.org/2000/svg" xmlns:xlink="http://www.w3.org/1999/xlink" x="0px" y="0px"
	 viewBox="0 0 24 24" style="enable-background:new 0 0 24 24;" xml:space="preserve">
<title>table-lamp-hanging</title>
<g>
	<path d="M15.75,24C15.336,24,15,23.664,15,23.25s0.336-0.75,0.75-0.75h3.75V11.25c0-3.722-3.028-6.75-6.75-6.75H12v1.499
		C13.884,7.41,15.001,9.638,15,12v0.75c0,0.414-0.336,0.75-0.75,0.75H0.75C0.336,13.5,0,13.164,0,12.75V12
		c-0.001-2.362,1.116-4.59,3-6.001V4.5C3,2.019,5.019,0,7.5,0c1.904,0,3.607,1.22,4.239,3h1.011C17.299,3,21,6.701,21,11.25V22.5
		h2.25c0.414,0,0.75,0.336,0.75,0.75S23.664,24,23.25,24H15.75z M13.5,12c0.001-2.009-0.995-3.874-2.666-4.989
		C10.625,6.871,10.5,6.638,10.5,6.387V4.5c0-1.654-1.346-3-3-3s-3,1.346-3,3v1.887c0,0.251-0.125,0.484-0.334,0.624
		C2.495,8.126,1.499,9.991,1.5,12v0H13.5z"/>
</g>
</svg>
