<?xml version="1.0" encoding="utf-8"?>
<!-- Generator: Adobe Illustrator 22.1.0, SVG Export Plug-In . SVG Version: 6.00 Build 0)  -->
<svg version="1.1" id="Regular" xmlns="http://www.w3.org/2000/svg" xmlns:xlink="http://www.w3.org/1999/xlink" x="0px" y="0px"
	 viewBox="0 0 24 24" style="enable-background:new 0 0 24 24;" xml:space="preserve">
<title>table-candelabra</title>
<g>
	<path d="M21.383,23.928c-0.528,0-1.023-0.284-1.291-0.742l-4.771-8.111H8.679l-4.772,8.113c-0.268,0.457-0.762,0.741-1.29,0.741
		c-0.117,0-0.234-0.014-0.349-0.041c-0.805-0.191-1.305-1.002-1.114-1.806l1.796-7.632l-1.875-3.124H0.75
		c-0.414,0-0.75-0.336-0.75-0.75s0.336-0.75,0.75-0.75H3l-1.35-1.8c-0.171-0.229-0.199-0.53-0.071-0.785
		C1.707,6.983,1.964,6.824,2.25,6.824H12c0.286,0,0.543,0.159,0.671,0.415s0.101,0.557-0.071,0.785l-1.35,1.8h5.25V8.247
		c-1.732-0.351-3-1.874-3-3.673c0-0.414,0.336-0.75,0.75-0.75S15,4.16,15,4.574c0,0.96,0.621,1.805,1.5,2.118V4.574
		c0-0.414,0.336-0.75,0.75-0.75S18,4.16,18,4.574v2.118c0.879-0.313,1.5-1.158,1.5-2.118c0-0.414,0.336-0.75,0.75-0.75
		S21,4.16,21,4.574c0,1.799-1.268,3.323-3,3.673v1.577h5.25c0.414,0,0.75,0.336,0.75,0.75s-0.336,0.75-0.75,0.75h-0.325
		l-1.875,3.124l1.796,7.634c0.093,0.388,0.028,0.791-0.183,1.132c-0.21,0.341-0.541,0.58-0.931,0.672
		C21.618,23.914,21.501,23.928,21.383,23.928z M2.614,22.426l4.325-7.352H4.344L2.614,22.426z M21.385,22.426l-1.729-7.352h-2.595
		L21.385,22.426z M19.825,13.574l1.35-2.25H2.825l1.35,2.25H19.825z M9.375,9.824l1.125-1.5H3.75l1.125,1.5H9.375z"/>
	<path d="M14.25,3.074c-0.414,0-0.75-0.336-0.75-0.75v-1.5c0-0.414,0.336-0.75,0.75-0.75S15,0.41,15,0.824v1.5
		C15,2.737,14.664,3.074,14.25,3.074z"/>
	<path d="M17.25,3.074c-0.414,0-0.75-0.336-0.75-0.75v-1.5c0-0.414,0.336-0.75,0.75-0.75S18,0.41,18,0.824v1.5
		C18,2.737,17.664,3.074,17.25,3.074z"/>
	<path d="M20.25,3.074c-0.414,0-0.75-0.336-0.75-0.75v-1.5c0-0.414,0.336-0.75,0.75-0.75S21,0.41,21,0.824v1.5
		C21,2.737,20.664,3.074,20.25,3.074z"/>
</g>
</svg>
