<?xml version="1.0" encoding="utf-8"?>
<!-- Generator: Adobe Illustrator 22.1.0, SVG Export Plug-In . SVG Version: 6.00 Build 0)  -->
<svg version="1.1" id="Regular" xmlns="http://www.w3.org/2000/svg" xmlns:xlink="http://www.w3.org/1999/xlink" x="0px" y="0px"
	 viewBox="0 0 24 24" style="enable-background:new 0 0 24 24;" xml:space="preserve">
<title>table-lamp-retro</title>
<g>
	<path d="M6,24c-0.414,0-0.75-0.336-0.75-0.75c0-1.183,0.557-2.289,1.5-2.998V18.75C6.75,18.336,7.086,18,7.5,18
		s0.75,0.336,0.75,0.75v0.828C8.498,19.526,8.749,19.5,9,19.5h0.75v-6c0,0-7.507,0-7.511,0c-0.041,0-0.074-0.001-0.107-0.004
		c-0.395-0.027-0.757-0.207-1.018-0.508c-0.261-0.3-0.39-0.683-0.362-1.08c0.142-1.406,0.624-2.732,1.434-3.955
		c0.039-0.09,0.095-0.171,0.165-0.24C3.848,5.596,6.256,4.021,9,3.357V3c0-1.654,1.346-3,3-3c1.654,0,3,1.346,3,3v0.357
		c2.749,0.665,5.16,2.243,6.657,4.365c0.064,0.064,0.116,0.14,0.153,0.222c0.812,1.222,1.295,2.548,1.436,3.941
		c0.005,0.066,0.006,0.106,0.006,0.147c-0.014,0.811-0.685,1.469-1.495,1.469c0,0-7.506,0-7.506,0v6H15
		c2.068,0,3.75,1.682,3.75,3.75c0,0.414-0.336,0.75-0.75,0.75H6z M17.121,22.5C16.808,21.621,15.962,21,15,21H9
		c-0.962,0-1.808,0.621-2.121,1.5H17.121z M12.75,19.5v-6h-1.5v6H12.75z M21.75,12c-0.104-1.035-0.454-2.05-1.039-3H3.291
		c-0.58,0.942-0.93,1.95-1.041,3H21.75z M19.531,7.5c-1.866-1.891-4.62-3-7.531-3c-2.91,0-5.663,1.109-7.528,3H19.531z M12,1.5
		c-0.827,0-1.5,0.673-1.5,1.5v0.09C11.002,3.03,11.505,3,12,3c0.495,0,0.997,0.03,1.5,0.09V3C13.5,2.173,12.827,1.5,12,1.5z"/>
</g>
</svg>
