<?xml version="1.0" encoding="utf-8"?>
<!-- Generator: Adobe Illustrator 22.1.0, SVG Export Plug-In . SVG Version: 6.00 Build 0)  -->
<svg version="1.1" id="Layer_1" xmlns="http://www.w3.org/2000/svg" xmlns:xlink="http://www.w3.org/1999/xlink" x="0px" y="0px"
	 viewBox="0 0 24 24" style="enable-background:new 0 0 24 24;" xml:space="preserve">
<title>tag-euro</title>
<g>
	<path d="M10.293,17.254c-0.2,0-0.389-0.078-0.53-0.22c-1.665-1.665-2.118-3.565-1.291-5.38L7.72,10.903
		c-0.142-0.141-0.22-0.33-0.22-0.53s0.078-0.389,0.22-0.53c0.141-0.142,0.33-0.22,0.53-0.22s0.389,0.078,0.53,0.22l0.513,0.513
		c0.145-0.174,0.302-0.346,0.469-0.513s0.339-0.324,0.513-0.469L9.763,8.86c-0.142-0.141-0.22-0.33-0.22-0.53s0.078-0.389,0.22-0.53
		c0.141-0.142,0.33-0.22,0.53-0.22s0.389,0.078,0.53,0.22l0.752,0.752c0.586-0.267,1.187-0.402,1.79-0.402
		c1.241,0,2.482,0.585,3.59,1.693c0.142,0.141,0.22,0.33,0.22,0.53c0,0.2-0.078,0.389-0.22,0.53c-0.142,0.142-0.33,0.22-0.53,0.22
		s-0.389-0.078-0.53-0.22c-0.837-0.836-1.688-1.26-2.531-1.26c-0.206,0-0.413,0.025-0.62,0.076l2.168,2.168
		c0.142,0.142,0.22,0.33,0.22,0.53c0,0.2-0.078,0.389-0.22,0.53s-0.33,0.22-0.53,0.22s-0.389-0.078-0.53-0.22l-2.506-2.506
		c-0.18,0.141-0.354,0.295-0.521,0.462s-0.321,0.341-0.462,0.521l1.484,1.484c0.292,0.292,0.292,0.768,0,1.061
		c-0.142,0.142-0.33,0.22-0.53,0.22s-0.389-0.078-0.53-0.22l-1.146-1.146c-0.254,1.052,0.143,2.11,1.184,3.151
		c0.292,0.292,0.292,0.768,0,1.061C10.682,17.176,10.493,17.254,10.293,17.254z"/>
	<path d="M18.244,7.649c-1.21,0-2.195-0.985-2.195-2.195s0.985-2.195,2.195-2.195c1.21,0,2.195,0.985,2.195,2.195
		S19.454,7.649,18.244,7.649z M18.244,4.759c-0.383,0-0.695,0.312-0.695,0.695c0,0.383,0.312,0.695,0.695,0.695
		c0.383,0,0.695-0.312,0.695-0.695C18.939,5.07,18.627,4.759,18.244,4.759z"/>
	<path d="M12.326,24.006c-0.553,0-1.089-0.201-1.51-0.567l-10.031-8.75c-0.02-0.018-0.043-0.038-0.065-0.059
		c-0.445-0.419-0.7-0.986-0.719-1.596c-0.018-0.611,0.202-1.191,0.621-1.636L10.658,0.727c0.432-0.46,1.042-0.723,1.673-0.723h9.375
		c1.264,0,2.292,1.027,2.294,2.289v9.404c0,0.583-0.22,1.138-0.619,1.564l-9.379,10.017C13.568,23.74,12.957,24.005,12.326,24.006
		C12.326,24.006,12.326,24.006,12.326,24.006z M12.331,1.504c-0.219,0-0.431,0.091-0.58,0.251L1.714,12.426
		c-0.144,0.153-0.22,0.353-0.214,0.563c0.006,0.21,0.094,0.405,0.247,0.549l10.055,8.77c0.146,0.127,0.332,0.198,0.524,0.198
		c0.222,0,0.429-0.09,0.582-0.253l9.378-10.016c0.137-0.147,0.213-0.338,0.213-0.539V2.294c-0.001-0.435-0.356-0.79-0.792-0.79
		H12.331z"/>
</g>
</svg>
