<?xml version="1.0" encoding="utf-8"?>
<!-- Generator: Adobe Illustrator 22.1.0, SVG Export Plug-In . SVG Version: 6.00 Build 0)  -->
<svg version="1.1" id="Layer_1" xmlns="http://www.w3.org/2000/svg" xmlns:xlink="http://www.w3.org/1999/xlink" x="0px" y="0px"
	 viewBox="0 0 24 24" style="enable-background:new 0 0 24 24;" xml:space="preserve">
<title>tag-new-circle</title>
<g>
	<path d="M6,16.5c-0.308,0-0.582-0.185-0.696-0.472L3.75,12.144v3.606c0,0.414-0.336,0.75-0.75,0.75s-0.75-0.336-0.75-0.75v-7.5
		c0-0.359,0.256-0.668,0.608-0.736C2.907,7.504,2.953,7.5,2.999,7.5c0.309,0,0.583,0.185,0.698,0.471l1.554,3.884V8.25
		C5.25,7.836,5.586,7.5,6,7.5s0.75,0.336,0.75,0.75v7.5c0,0.359-0.256,0.669-0.608,0.736C6.095,16.496,6.047,16.5,6,16.5z"/>
	<path d="M10.5,16.5c-1.241,0-2.25-1.009-2.25-2.25v-4.5c0-1.241,1.009-2.25,2.25-2.25H12c0.414,0,0.75,0.336,0.75,0.75
		S12.414,9,12,9h-1.5c-0.414,0-0.75,0.336-0.75,0.75V12H12c0.414,0,0.75,0.336,0.75,0.75S12.414,13.5,12,13.5H9.75v0.75
		c0,0.414,0.336,0.75,0.75,0.75H12c0.414,0,0.75,0.336,0.75,0.75S12.414,16.5,12,16.5H10.5z"/>
	<path d="M19.467,16.499c-0.325-0.016-0.599-0.234-0.688-0.543L18,13.23l-0.779,2.726c-0.088,0.309-0.363,0.527-0.683,0.543
		c-0.006,0-0.029,0.001-0.035,0.001c-0.305,0-0.586-0.189-0.699-0.471l-0.856-2.141c-0.463-1.156-0.698-2.374-0.698-3.62V8.25
		c0-0.414,0.336-0.75,0.75-0.75s0.75,0.336,0.75,0.75v2.017c0,1.054,0.198,2.085,0.59,3.063l0.042,0.104l0.897-3.14
		C17.371,9.974,17.667,9.75,18,9.75s0.629,0.224,0.721,0.544l0.897,3.14l0.042-0.103c0.391-0.979,0.59-2.01,0.59-3.064V8.25
		c0-0.414,0.336-0.75,0.75-0.75s0.75,0.336,0.75,0.75v2.017c0,1.246-0.235,2.464-0.698,3.621l-0.856,2.141
		C20.082,16.315,19.809,16.5,19.5,16.5C19.495,16.5,19.471,16.5,19.467,16.499z"/>
	<path d="M2.25,24C1.009,24,0,22.991,0,21.75v-3C0,18.336,0.336,18,0.75,18s0.75,0.336,0.75,0.75v3c0,0.414,0.336,0.75,0.75,0.75
		h19.5c0.414,0,0.75-0.336,0.75-0.75v-3c0-0.414,0.336-0.75,0.75-0.75S24,18.336,24,18.75v3c0,1.241-1.009,2.25-2.25,2.25H2.25z"/>
	<path d="M23.25,6c-0.414,0-0.75-0.336-0.75-0.75v-3c0-0.414-0.336-0.75-0.75-0.75H2.25C1.836,1.5,1.5,1.836,1.5,2.25v3
		C1.5,5.664,1.164,6,0.75,6S0,5.664,0,5.25v-3C0,1.009,1.009,0,2.25,0h19.5C22.991,0,24,1.009,24,2.25v3C24,5.664,23.664,6,23.25,6z
		"/>
</g>
</svg>
