<?xml version="1.0" encoding="utf-8"?>
<!-- Generator: Adobe Illustrator 22.1.0, SVG Export Plug-In . SVG Version: 6.00 Build 0)  -->
<svg version="1.1" id="Layer_1" xmlns="http://www.w3.org/2000/svg" xmlns:xlink="http://www.w3.org/1999/xlink" x="0px" y="0px"
	 viewBox="0 0 24 24" style="enable-background:new 0 0 24 24;" xml:space="preserve">
<title>tag-yuan</title>
<g>
	<path d="M8.333,16.868c-0.2,0-0.389-0.078-0.53-0.22c-0.142-0.142-0.22-0.33-0.22-0.531s0.078-0.389,0.22-0.53l1.264-1.264
		l-1.06-1.061c-0.142-0.142-0.22-0.33-0.22-0.53s0.078-0.389,0.22-0.53c0.142-0.142,0.33-0.22,0.53-0.22s0.389,0.078,0.53,0.22
		l1.061,1.061l0.602-0.602c-0.968-1.462-0.797-3.426,0.454-4.697l1.036-1.036c0.142-0.142,0.33-0.22,0.53-0.22
		s0.389,0.078,0.53,0.22c0.142,0.141,0.22,0.33,0.22,0.53s-0.078,0.389-0.22,0.53L12.249,9.02c-0.867,0.881-0.854,2.307,0.03,3.178
		c0.42,0.414,0.98,0.642,1.578,0.642c0.597,0,1.158-0.228,1.578-0.641l1.263-1.263c0.142-0.142,0.33-0.22,0.53-0.22l0,0
		c0.2,0,0.389,0.078,0.53,0.22c0.142,0.141,0.22,0.33,0.22,0.53s-0.078,0.389-0.22,0.53l-1.267,1.267
		c-0.705,0.694-1.64,1.074-2.635,1.074c-0.737,0-1.458-0.217-2.066-0.616l-0.602,0.602l1.061,1.061c0.292,0.292,0.292,0.768,0,1.061
		c-0.142,0.142-0.33,0.22-0.53,0.22s-0.389-0.078-0.53-0.22l-1.061-1.061l-1.265,1.264C8.722,16.79,8.533,16.868,8.333,16.868z"/>
	<path d="M18.244,7.649c-1.21,0-2.195-0.985-2.195-2.195s0.985-2.195,2.195-2.195c1.21,0,2.195,0.985,2.195,2.195
		S19.454,7.649,18.244,7.649z M18.244,4.759c-0.383,0-0.695,0.312-0.695,0.695c0,0.383,0.312,0.695,0.695,0.695
		c0.383,0,0.695-0.312,0.695-0.695C18.939,5.07,18.627,4.759,18.244,4.759z"/>
	<path d="M12.326,24.006c-0.553,0-1.089-0.201-1.51-0.567l-10.031-8.75c-0.02-0.018-0.043-0.038-0.065-0.059
		c-0.445-0.419-0.7-0.986-0.719-1.596c-0.018-0.611,0.202-1.191,0.621-1.636L10.658,0.727c0.432-0.46,1.042-0.723,1.673-0.723h9.375
		c1.264,0,2.292,1.027,2.294,2.289v9.404c0,0.583-0.22,1.138-0.619,1.564l-9.379,10.017C13.568,23.74,12.957,24.005,12.326,24.006
		C12.326,24.006,12.326,24.006,12.326,24.006z M12.331,1.504c-0.219,0-0.431,0.091-0.58,0.251L1.714,12.426
		c-0.144,0.153-0.22,0.353-0.214,0.563c0.006,0.21,0.094,0.405,0.247,0.549l10.055,8.77c0.146,0.127,0.332,0.198,0.524,0.198
		c0.222,0,0.429-0.09,0.582-0.253l9.378-10.016c0.137-0.147,0.213-0.338,0.213-0.539V2.294c-0.001-0.435-0.356-0.79-0.792-0.79
		H12.331z"/>
</g>
</svg>
