<?xml version="1.0" encoding="utf-8"?>
<!-- Generator: Adobe Illustrator 22.1.0, SVG Export Plug-In . SVG Version: 6.00 Build 0)  -->
<svg version="1.1" id="Layer_1" xmlns="http://www.w3.org/2000/svg" xmlns:xlink="http://www.w3.org/1999/xlink" x="0px" y="0px"
	 viewBox="0 0 24 24" style="enable-background:new 0 0 24 24;" xml:space="preserve">
<title>tag-hot-price</title>
<g>
	<path d="M12,23.625c-0.414,0-0.75-0.336-0.75-0.75v-7.5c0-0.414,0.336-0.75,0.75-0.75s0.75,0.336,0.75,0.75v7.5
		C12.75,23.288,12.414,23.625,12,23.625z"/>
	<path d="M20.25,11.625c-0.414,0-0.75-0.336-0.75-0.75v-6.75h-0.75c-0.414,0-0.75-0.336-0.75-0.75s0.336-0.75,0.75-0.75h3
		c0.414,0,0.75,0.336,0.75,0.75s-0.336,0.75-0.75,0.75H21v6.75C21,11.288,20.664,11.625,20.25,11.625z"/>
	<path d="M6,11.625c-0.414,0-0.75-0.336-0.75-0.75v-2.25h-1.5v2.25c0,0.414-0.336,0.75-0.75,0.75s-0.75-0.336-0.75-0.75v-7.5
		c0-0.414,0.336-0.75,0.75-0.75s0.75,0.336,0.75,0.75v3.75h1.5v-3.75c0-0.414,0.336-0.75,0.75-0.75s0.75,0.336,0.75,0.75v7.5
		C6.75,11.288,6.414,11.625,6,11.625z"/>
	<path d="M9,23.625c-0.262,0-0.509-0.14-0.643-0.364L6.75,20.583v2.292c0,0.414-0.336,0.75-0.75,0.75s-0.75-0.336-0.75-0.75v-7.5
		c0-0.414,0.336-0.75,0.75-0.75h1.125c1.447,0,2.625,1.177,2.625,2.625c0,1.134-0.728,2.119-1.764,2.478l1.657,2.761
		c0.103,0.172,0.133,0.373,0.084,0.568s-0.17,0.358-0.342,0.461C9.27,23.588,9.136,23.625,9,23.625z M7.125,18.375
		c0.62,0,1.125-0.505,1.125-1.125s-0.505-1.125-1.125-1.125H6.75v2.25H7.125z"/>
	<path d="M18,23.625c-2.068,0-3.75-1.682-3.75-3.75v-1.5c0-2.068,1.682-3.75,3.75-3.75c0.414,0,0.75,0.336,0.75,0.75
		s-0.336,0.75-0.75,0.75c-1.241,0-2.25,1.009-2.25,2.25v1.5c0,1.241,1.009,2.25,2.25,2.25c0.414,0,0.75,0.336,0.75,0.75
		S18.414,23.625,18,23.625z"/>
	<path d="M0.75,23.625c-0.414,0-0.75-0.336-0.75-0.75v-7.5c0-0.414,0.336-0.75,0.75-0.75H1.5c1.654,0,3,1.346,3,3s-1.346,3-3,3v2.25
		C1.5,23.288,1.164,23.625,0.75,23.625z M1.5,19.125c0.827,0,1.5-0.673,1.5-1.5s-0.673-1.5-1.5-1.5V19.125z"/>
	<path d="M21.75,23.625c-1.241,0-2.25-1.009-2.25-2.25v-4.5c0-1.241,1.009-2.25,2.25-2.25h1.5c0.414,0,0.75,0.336,0.75,0.75
		s-0.336,0.75-0.75,0.75h-1.5c-0.414,0-0.75,0.336-0.75,0.75v2.25h2.25c0.414,0,0.75,0.336,0.75,0.75s-0.336,0.75-0.75,0.75H21v0.75
		c0,0.414,0.336,0.75,0.75,0.75h1.5c0.414,0,0.75,0.336,0.75,0.75s-0.336,0.75-0.75,0.75H21.75z"/>
	<path d="M12.55,11.625c-2.371-0.001-4.3-1.928-4.3-4.296C8.153,5.867,8.942,4.44,10.263,3.717c0.11-0.06,0.235-0.092,0.36-0.092
		c0.116,0,0.232,0.027,0.335,0.079c0.219,0.109,0.372,0.32,0.407,0.563c0.028,0.193,0.142,0.357,0.302,0.453
		c0.392-1.05,0.196-2.242-0.534-3.113c-0.211-0.251-0.234-0.606-0.059-0.883c0.139-0.219,0.375-0.349,0.633-0.349
		c0.064,0,0.128,0.008,0.191,0.025c3.132,0.818,5.21,3.753,4.941,6.979c-0.042,2.335-1.924,4.211-4.283,4.246
		C12.554,11.625,12.552,11.625,12.55,11.625z M10.351,5.536C9.927,6.009,9.706,6.637,9.748,7.28
		c0.002,1.579,1.256,2.844,2.797,2.845c1.542-0.023,2.773-1.256,2.796-2.807c0-0.021,0.001-0.036,0.003-0.052
		c0.154-1.799-0.659-3.538-2.077-4.583c0.227,1.1,0.051,2.26-0.516,3.248c-0.124,0.216-0.346,0.356-0.594,0.375
		c-0.055,0.004-0.109,0.006-0.163,0.006C11.357,6.311,10.753,6.017,10.351,5.536z"/>
</g>
</svg>
