<?xml version="1.0" encoding="utf-8"?>
<!-- Generator: Adobe Illustrator 22.1.0, SVG Export Plug-In . SVG Version: 6.00 Build 0)  -->
<svg version="1.1" id="Regular" xmlns="http://www.w3.org/2000/svg" xmlns:xlink="http://www.w3.org/1999/xlink" x="0px" y="0px"
	 viewBox="0 0 24 24" style="enable-background:new 0 0 24 24;" xml:space="preserve">
<title>tank-top-female</title>
<g>
	<path d="M3.75,24c-1.241,0-2.25-1.009-2.25-2.25v-8.338c0-0.593,0.228-1.153,0.644-1.576C4.524,9.411,4.585,3.839,4.5,1.556
		L4.5,1.504c-0.001-0.4,0.155-0.777,0.438-1.061S5.597,0.001,5.999,0H18c0.008,0,0.05,0.001,0.058,0.001
		c0.395,0.014,0.765,0.183,1.039,0.476c0.274,0.294,0.417,0.676,0.403,1.077c-0.084,2.284-0.024,7.856,2.357,10.282
		c0.416,0.424,0.644,0.984,0.644,1.577v8.337c0,1.241-1.009,2.25-2.25,2.25H3.75z M3,21.75c0,0.414,0.336,0.75,0.75,0.75h16.5
		c0.414,0,0.75-0.336,0.75-0.75V21H3V21.75z M21,19.5v-6.088c0-0.198-0.076-0.385-0.214-0.526C17.997,10.045,17.909,3.977,18,1.5
		l-1.52,0c-0.039,0.918-0.151,2.394-0.465,3.903C15.321,8.738,13.932,10.5,12,10.5c-1.347,0-3.138-0.884-4.015-5.097
		C7.665,3.867,7.556,2.339,7.52,1.5H6.001c0.09,2.47,0.001,8.546-2.786,11.386C3.076,13.027,3,13.214,3,13.412V19.5H21z M9.018,1.5
		c0.04,0.938,0.184,2.879,0.692,4.625C10.092,7.436,10.8,9,12,9c1.2,0,1.908-1.564,2.29-2.875c0.509-1.745,0.652-3.687,0.692-4.625
		H9.018z"/>
</g>
</svg>
