<?xml version="1.0" encoding="utf-8"?>
<!-- Generator: Adobe Illustrator 22.1.0, SVG Export Plug-In . SVG Version: 6.00 Build 0)  -->
<svg version="1.1" id="Layer_1" xmlns="http://www.w3.org/2000/svg" xmlns:xlink="http://www.w3.org/1999/xlink" x="0px" y="0px"
	 viewBox="0 0 24 24" style="enable-background:new 0 0 24 24;" xml:space="preserve">
<title>target-miss</title>
<g>
	<path d="M8.26,17.24c-0.092,0-0.182-0.017-0.268-0.049c-1.487-0.569-2.663-1.683-3.313-3.136c-0.649-1.453-0.694-3.073-0.125-4.56
		c0.739-1.932,2.392-3.322,4.421-3.72c0.38-0.072,0.764-0.109,1.144-0.109c0.397,0,0.798,0.04,1.191,0.118
		c0.406,0.081,0.67,0.477,0.589,0.882c-0.07,0.349-0.38,0.603-0.736,0.603c-0.047,0-0.095-0.004-0.144-0.014
		c-0.299-0.06-0.601-0.09-0.901-0.09c-0.286,0-0.575,0.027-0.859,0.081c-1.516,0.297-2.752,1.337-3.305,2.783
		c-0.426,1.113-0.392,2.325,0.094,3.412s1.366,1.921,2.479,2.346c0.386,0.148,0.58,0.582,0.433,0.969
		C8.85,17.047,8.568,17.24,8.26,17.24z"/>
	<path d="M8.221,21.557c-0.052,0-0.103-0.005-0.153-0.016c-2.648-0.548-4.925-2.094-6.411-4.355
		c-1.486-2.261-2.002-4.965-1.454-7.614c0.87-4.204,4.313-7.413,8.568-7.985C9.217,1.53,9.669,1.5,10.116,1.5
		c0.542,0,1.088,0.043,1.622,0.129c0.408,0.065,0.688,0.451,0.622,0.859c-0.058,0.366-0.37,0.632-0.741,0.632
		c-0.038,0-0.077-0.003-0.116-0.009C11.044,3.037,10.578,3,10.115,3C9.734,3,9.348,3.025,8.97,3.075
		c-3.623,0.487-6.556,3.22-7.297,6.802c-0.467,2.257-0.027,4.56,1.238,6.486c1.266,1.926,3.205,3.243,5.462,3.71
		c0.196,0.041,0.365,0.155,0.475,0.323c0.11,0.167,0.148,0.368,0.108,0.564C8.884,21.306,8.575,21.557,8.221,21.557z"/>
	<path d="M17.247,24.003c-0.355,0-0.714-0.029-1.066-0.085c-2.885-0.464-5.135-2.714-5.599-5.598
		c-0.285-1.781,0.141-3.566,1.198-5.026c1.058-1.46,2.62-2.421,4.401-2.706c0.354-0.057,0.715-0.085,1.071-0.085
		c3.333,0,6.134,2.391,6.661,5.684c0.285,1.781-0.141,3.565-1.198,5.026c-1.058,1.46-2.621,2.421-4.401,2.706
		C17.96,23.974,17.602,24.003,17.247,24.003z M12.063,18.081c0.361,2.245,2.111,3.995,4.356,4.355
		c0.273,0.044,0.552,0.066,0.828,0.066s0.555-0.022,0.829-0.066c1.385-0.221,2.6-0.969,3.423-2.104
		c0.823-1.135,1.154-2.524,0.932-3.908c-0.403-2.521-2.631-4.421-5.182-4.421c-0.276,0-0.556,0.022-0.831,0.066
		c-1.385,0.221-2.6,0.969-3.423,2.105C12.172,15.309,11.841,16.697,12.063,18.081L12.063,18.081z"/>
	<path d="M19.499,20.25c-0.2,0-0.389-0.078-0.53-0.22l-1.72-1.72l-1.72,1.72c-0.142,0.142-0.33,0.22-0.53,0.22
		s-0.389-0.078-0.53-0.22c-0.292-0.292-0.292-0.768,0-1.061l1.72-1.72l-1.72-1.72c-0.292-0.292-0.292-0.768,0-1.061
		c0.142-0.142,0.33-0.22,0.53-0.22s0.389,0.078,0.53,0.22l1.72,1.72l1.72-1.72c0.142-0.142,0.33-0.22,0.53-0.22
		s0.389,0.078,0.53,0.22c0.292,0.292,0.292,0.768,0,1.061l-1.72,1.72l1.72,1.72c0.292,0.292,0.292,0.768,0,1.061
		C19.888,20.172,19.699,20.25,19.499,20.25z"/>
	<path d="M9.749,12.609c-0.2,0-0.389-0.078-0.53-0.22c-0.142-0.141-0.22-0.33-0.22-0.53s0.078-0.389,0.22-0.53l3.993-3.992
		l0.531-3.506c0.024-0.16,0.101-0.31,0.216-0.423l3.248-3.192C17.347,0.077,17.534,0,17.732,0c0.075,0,0.151,0.011,0.223,0.034
		c0.265,0.083,0.461,0.303,0.514,0.575l0.407,2.124l2.124,0.406c0.272,0.052,0.492,0.249,0.575,0.513
		c0.083,0.264,0.013,0.552-0.181,0.749L18.201,7.65c-0.115,0.117-0.262,0.192-0.423,0.216l-3.506,0.531l-3.993,3.993
		C10.138,12.531,9.949,12.609,9.749,12.609z M14.81,6.798l2.496-0.378l2.035-2.071l-1.248-0.239
		c-0.303-0.058-0.537-0.292-0.595-0.595l-0.239-1.248l-2.07,2.035L14.81,6.798z"/>
</g>
</svg>
