<?xml version="1.0" encoding="utf-8"?>
<!-- Generator: Adobe Illustrator 22.1.0, SVG Export Plug-In . SVG Version: 6.00 Build 0)  -->
<svg version="1.1" id="Layer_1" xmlns="http://www.w3.org/2000/svg" xmlns:xlink="http://www.w3.org/1999/xlink" x="0px" y="0px"
	 viewBox="0 0 24 24" style="enable-background:new 0 0 24 24;" xml:space="preserve">
<title>target-center-phone</title>
<g>
	<path d="M6.5,23.979c-2.068,0-3.75-1.682-3.75-3.75v-16.5c0-2.068,1.682-3.75,3.75-3.75h6.75c0.414,0,0.75,0.336,0.75,0.75
		s-0.336,0.75-0.75,0.75H6.5c-1.241,0-2.25,1.009-2.25,2.25v12.75h12v-1.5c0-0.414,0.336-0.75,0.75-0.75s0.75,0.336,0.75,0.75v5.25
		c0,2.068-1.682,3.75-3.75,3.75H6.5z M4.25,20.229c0,1.241,1.009,2.25,2.25,2.25H14c1.241,0,2.25-1.009,2.25-2.25v-2.25h-12V20.229z
		"/>
	<circle cx="10.25" cy="20.229" r="1.125"/>
	<path d="M11.123,11.106c-0.2,0-0.389-0.078-0.53-0.22c-0.142-0.141-0.22-0.33-0.22-0.53s0.078-0.389,0.22-0.53l4.202-4.202
		l0.376-2.484c0.024-0.16,0.101-0.31,0.216-0.423l2.362-2.321c0.141-0.139,0.328-0.215,0.525-0.215c0.076,0,0.151,0.011,0.224,0.034
		c0.264,0.083,0.461,0.303,0.513,0.575l0.27,1.408l1.409,0.27c0.272,0.052,0.492,0.248,0.575,0.513
		c0.083,0.265,0.013,0.552-0.181,0.749l-2.322,2.362c-0.113,0.115-0.263,0.192-0.423,0.216l-2.483,0.376l-4.203,4.203
		C11.512,11.028,11.323,11.106,11.123,11.106z M16.394,5.085l1.474-0.223l1.164-1.184l-0.533-0.102
		c-0.303-0.058-0.537-0.292-0.596-0.595l-0.102-0.532l-1.184,1.164L16.394,5.085z"/>
	<path d="M11.122,14.979c-2.481,0-4.5-2.019-4.5-4.5s2.019-4.5,4.5-4.5c0.414,0,0.75,0.336,0.75,0.75s-0.336,0.75-0.75,0.75
		c-1.654,0-3,1.346-3,3s1.346,3,3,3s3-1.346,3-3c0-0.414,0.336-0.75,0.75-0.75s0.75,0.336,0.75,0.75
		C15.622,12.96,13.603,14.979,11.122,14.979z"/>
</g>
</svg>
