<?xml version="1.0" encoding="utf-8"?>
<!-- Generator: Adobe Illustrator 22.1.0, SVG Export Plug-In . SVG Version: 6.00 Build 0)  -->
<svg version="1.1" id="Layer_1" xmlns="http://www.w3.org/2000/svg" xmlns:xlink="http://www.w3.org/1999/xlink" x="0px" y="0px"
	 viewBox="0 0 24 24" style="enable-background:new 0 0 24 24;" xml:space="preserve">
<title>target-correct</title>
<g>
	<path d="M8.259,17.24c-0.093,0-0.184-0.017-0.271-0.051c-1.484-0.575-2.656-1.693-3.3-3.15c-0.643-1.457-0.681-3.076-0.106-4.561
		c0.896-2.315,3.075-3.81,5.551-3.81c0.392,0,0.787,0.039,1.173,0.116c0.406,0.081,0.67,0.477,0.589,0.882
		c-0.07,0.35-0.38,0.603-0.736,0.603c-0.047,0-0.096-0.004-0.144-0.014c-0.292-0.058-0.588-0.088-0.882-0.088
		c-1.852,0-3.482,1.119-4.152,2.852c-0.43,1.111-0.402,2.323,0.08,3.413c0.482,1.09,1.359,1.927,2.47,2.358
		c0.385,0.149,0.578,0.584,0.429,0.97C8.847,17.047,8.566,17.24,8.259,17.24z"/>
	<path d="M8.22,21.557c-0.052,0-0.103-0.005-0.153-0.016c-2.648-0.553-4.923-2.104-6.404-4.367c-1.482-2.263-1.993-4.968-1.44-7.616
		c0.975-4.67,5.136-8.06,9.896-8.06c0.539,0,1.084,0.044,1.621,0.13c0.198,0.032,0.371,0.138,0.489,0.301
		c0.118,0.162,0.165,0.361,0.133,0.558c-0.058,0.36-0.376,0.631-0.739,0.631c-0.04,0-0.081-0.003-0.122-0.01
		c-0.455-0.073-0.92-0.11-1.379-0.11c-4.054,0-7.599,2.888-8.43,6.866c-0.471,2.256-0.035,4.56,1.227,6.488
		c1.262,1.928,3.2,3.249,5.455,3.719c0.405,0.085,0.665,0.483,0.581,0.888C8.882,21.306,8.573,21.557,8.22,21.557z"/>
	<path d="M9.748,12.609c-0.2,0-0.389-0.078-0.53-0.22c-0.142-0.142-0.22-0.33-0.22-0.53s0.078-0.389,0.22-0.53l3.992-3.992
		l0.531-3.506c0.024-0.16,0.101-0.31,0.216-0.423l3.248-3.192C17.346,0.076,17.533,0,17.73,0c0.076,0,0.152,0.012,0.224,0.034
		c0.264,0.082,0.46,0.302,0.513,0.574l0.406,2.124l2.124,0.406c0.272,0.052,0.492,0.249,0.575,0.513
		c0.083,0.264,0.013,0.552-0.181,0.749L18.2,7.649c-0.114,0.115-0.264,0.192-0.423,0.216l-3.506,0.531l-3.993,3.993
		C10.137,12.531,9.948,12.609,9.748,12.609z M14.809,6.798l2.497-0.378l2.035-2.071L18.092,4.11
		c-0.303-0.058-0.537-0.292-0.595-0.595l-0.239-1.248l-2.07,2.035L14.809,6.798z"/>
	<path d="M17.248,24c-3.722,0-6.75-3.028-6.75-6.75s3.028-6.75,6.75-6.75s6.75,3.028,6.75,6.75S20.97,24,17.248,24z M17.248,12
		c-2.895,0-5.25,2.355-5.25,5.25s2.355,5.25,5.25,5.25s5.25-2.355,5.25-5.25S20.143,12,17.248,12z"/>
	<path d="M16.414,20.429c-0.326,0-0.637-0.104-0.9-0.301c-0.056-0.042-0.111-0.09-0.162-0.141l-1.497-1.497
		c-0.142-0.142-0.22-0.33-0.22-0.53s0.078-0.389,0.22-0.53s0.33-0.22,0.53-0.22s0.389,0.078,0.53,0.22l1.5,1.5l2.906-3.874
		c0.141-0.188,0.366-0.3,0.6-0.3c0.163,0,0.319,0.052,0.449,0.15c0.16,0.12,0.264,0.296,0.293,0.494
		c0.028,0.198-0.022,0.396-0.143,0.556l-2.905,3.874c-0.242,0.321-0.593,0.529-0.99,0.585
		C16.556,20.424,16.485,20.429,16.414,20.429z"/>
</g>
</svg>
