<?xml version="1.0" encoding="utf-8"?>
<!-- Generator: Adobe Illustrator 22.1.0, SVG Export Plug-In . SVG Version: 6.00 Build 0)  -->
<svg version="1.1" id="Layer_1" xmlns="http://www.w3.org/2000/svg" xmlns:xlink="http://www.w3.org/1999/xlink" x="0px" y="0px"
	 viewBox="0 0 24 24" style="enable-background:new 0 0 24 24;" xml:space="preserve">
<title>task-list-upload</title>
<g>
	<path d="M12,19.511c-0.088,0-0.175-0.016-0.26-0.047c-0.008-0.003-0.015-0.005-0.022-0.008c-0.096-0.039-0.179-0.094-0.249-0.165
		L7.72,15.541c-0.292-0.292-0.292-0.768,0-1.061c0.142-0.142,0.33-0.22,0.53-0.22s0.389,0.078,0.53,0.22l2.47,2.47V9.761
		c0-0.414,0.336-0.75,0.75-0.75s0.75,0.336,0.75,0.75v7.189l2.47-2.47c0.142-0.142,0.33-0.22,0.53-0.22s0.389,0.078,0.53,0.22
		c0.292,0.292,0.292,0.768,0,1.061l-3.75,3.75c-0.07,0.07-0.153,0.125-0.246,0.164c-0.008,0.003-0.017,0.007-0.026,0.01
		C12.173,19.496,12.087,19.511,12,19.511z"/>
	<path d="M4.5,24.011c-1.241,0-2.25-1.009-2.25-2.25V6.011c0-1.241,1.009-2.25,2.25-2.25h3.063C7.924,1.633,9.81,0.011,12,0.011
		c2.19,0,4.076,1.621,4.437,3.75H19.5c1.241,0,2.25,1.009,2.25,2.25v15.75c0,1.241-1.009,2.25-2.25,2.25H4.5z M4.5,5.261
		c-0.414,0-0.75,0.336-0.75,0.75v15.75c0,0.414,0.336,0.75,0.75,0.75h15c0.414,0,0.75-0.336,0.75-0.75V6.011
		c0-0.414-0.336-0.75-0.75-0.75h-3.75c-0.414,0-0.75-0.336-0.75-0.75c0-1.654-1.346-3-3-3c-1.654,0-3,1.346-3,3
		c0,0.414-0.336,0.75-0.75,0.75H4.5z"/>
	<circle cx="12" cy="4.136" r="1.125"/>
</g>
</svg>
