<?xml version="1.0" encoding="utf-8"?>
<!-- Generator: Adobe Illustrator 22.1.0, SVG Export Plug-In . SVG Version: 6.00 Build 0)  -->
<svg version="1.1" id="Layer_1" xmlns="http://www.w3.org/2000/svg" xmlns:xlink="http://www.w3.org/1999/xlink" x="0px" y="0px"
	 viewBox="0 0 24 24" style="enable-background:new 0 0 24 24;" xml:space="preserve">
<title>task-list-edit</title>
<g>
	<path d="M2.244,24.011c-1.241,0-2.25-1.009-2.25-2.25v-19.5c0-1.241,1.009-2.25,2.25-2.25h10.629c0.601,0,1.166,0.234,1.59,0.659
		l5.872,5.872c0.425,0.425,0.659,0.99,0.659,1.59v0.129c0,0.414-0.336,0.75-0.75,0.75h-6c-1.241,0-2.25-1.009-2.25-2.25v-5.25h-9.75
		c-0.414,0-0.75,0.336-0.75,0.75v19.5c0,0.414,0.336,0.75,0.75,0.75h6c0.414,0,0.75,0.336,0.75,0.75s-0.336,0.75-0.75,0.75H2.244z
		 M13.494,6.761c0,0.414,0.336,0.75,0.75,0.75h4.939l-5.689-5.689V6.761z"/>
	<path d="M5.43,13.51c-0.327,0-0.638-0.104-0.899-0.3c-0.057-0.043-0.11-0.089-0.16-0.139l-1.156-1.155
		c-0.142-0.141-0.22-0.33-0.22-0.53c0-0.2,0.078-0.389,0.219-0.53c0.141-0.142,0.33-0.22,0.531-0.22c0.2,0,0.389,0.078,0.53,0.22
		l1.157,1.156l2.132-2.841c0.141-0.188,0.365-0.3,0.6-0.3c0.164,0,0.319,0.052,0.45,0.151c0.16,0.12,0.264,0.295,0.292,0.494
		c0.028,0.198-0.022,0.396-0.143,0.556l-2.132,2.842C6.349,13.286,5.9,13.51,5.43,13.51z"/>
	<path d="M5.43,20.26c-0.327,0-0.638-0.104-0.899-0.3c-0.057-0.043-0.11-0.089-0.16-0.139l-1.156-1.156
		c-0.142-0.142-0.22-0.33-0.22-0.53s0.078-0.389,0.22-0.53c0.142-0.142,0.33-0.22,0.53-0.22l0,0c0.2,0,0.389,0.078,0.53,0.22
		l1.157,1.157l2.132-2.842c0.141-0.188,0.365-0.3,0.6-0.3c0.163,0,0.319,0.052,0.449,0.15c0.331,0.248,0.398,0.719,0.15,1.05
		l-2.132,2.842C6.349,20.036,5.9,20.26,5.43,20.26z"/>
	<path d="M11.244,13.511c-0.414,0-0.75-0.336-0.75-0.75s0.336-0.75,0.75-0.75h3.75c0.414,0,0.75,0.336,0.75,0.75
		s-0.336,0.75-0.75,0.75H11.244z"/>
	<path d="M11.244,24.011c-0.2,0-0.389-0.078-0.53-0.22c-0.178-0.177-0.255-0.431-0.205-0.677l0.75-3.75
		c0.029-0.146,0.1-0.279,0.205-0.384l7.631-7.631c0.541-0.541,1.26-0.839,2.026-0.839c0.765,0,1.485,0.298,2.026,0.839
		c1.122,1.122,1.126,2.944,0.009,4.061l-7.631,7.631c-0.104,0.105-0.238,0.176-0.384,0.205l-3.749,0.75
		C11.342,24.006,11.293,24.011,11.244,24.011z M12.2,22.305l2.424-0.485l7.47-7.47c0.532-0.532,0.532-1.398,0-1.93
		c-0.262-0.262-0.61-0.407-0.978-0.407c-0.364,0-0.705,0.141-0.962,0.398l-7.47,7.47L12.2,22.305z"/>
</g>
</svg>
