<?xml version="1.0" encoding="utf-8"?>
<!-- Generator: Adobe Illustrator 22.1.0, SVG Export Plug-In . SVG Version: 6.00 Build 0)  -->
<svg version="1.1" id="Layer_1" xmlns="http://www.w3.org/2000/svg" xmlns:xlink="http://www.w3.org/1999/xlink" x="0px" y="0px"
	 viewBox="0 0 24 24" style="enable-background:new 0 0 24 24;" xml:space="preserve">
<title>taxi-van</title>
<g>
	<path d="M18.75,20c-0.96,0-1.808-0.615-2.121-1.5H8.871C8.558,19.385,7.71,20,6.75,20s-1.808-0.615-2.121-1.5H2.25
		C1.009,18.5,0,17.491,0,16.25c0-0.042,0.003-0.083,0.01-0.124l0.332-1.992C0.645,12.318,2.2,11,4.041,11h1.573l2.629-3.68
		c0.703-0.983,1.843-1.57,3.051-1.57H23.25C23.664,5.75,24,6.086,24,6.5v5.25c0,0.414-0.336,0.75-0.75,0.75H13.5V17h3.129
		c0.314-0.885,1.162-1.5,2.121-1.5s1.808,0.615,2.121,1.5h2.379c0.414,0,0.75,0.336,0.75,0.75s-0.336,0.75-0.75,0.75h-2.379
		C20.558,19.385,19.71,20,18.75,20z M18.75,17C18.336,17,18,17.336,18,17.75s0.336,0.75,0.75,0.75s0.75-0.336,0.75-0.75
		S19.164,17,18.75,17z M6.75,17C6.336,17,6,17.336,6,17.75s0.336,0.75,0.75,0.75s0.75-0.336,0.75-0.75S7.164,17,6.75,17z M12,17
		v-4.5H4.041c-1.104,0-2.038,0.791-2.219,1.88l-0.32,1.921C1.528,16.689,1.858,17,2.25,17h2.379c0.314-0.885,1.162-1.5,2.121-1.5
		s1.808,0.615,2.121,1.5H12z M22.5,11V7.25h-3.75V11H22.5z M17.25,11V7.25H13.5V11H17.25z M12,11V7.25h-0.706
		c-0.725,0-1.409,0.352-1.831,0.942L7.458,11H12z"/>
</g>
</svg>
