<?xml version="1.0" encoding="utf-8"?>
<!-- Generator: Adobe Illustrator 22.1.0, SVG Export Plug-In . SVG Version: 6.00 Build 0)  -->
<svg version="1.1" id="Layer_1" xmlns="http://www.w3.org/2000/svg" xmlns:xlink="http://www.w3.org/1999/xlink" x="0px" y="0px"
	 viewBox="0 0 24 24" style="enable-background:new 0 0 24 24;" xml:space="preserve">
<title>taxi-1</title>
<g>
	<path d="M18.75,21.25c-0.96,0-1.808-0.615-2.121-1.5H7.371c-0.314,0.885-1.162,1.5-2.121,1.5s-1.808-0.615-2.121-1.5H2.25
		C1.009,19.75,0,18.741,0,17.5V16c0-2.068,1.682-3.75,3.75-3.75h2.414l0.994-3.977C7.391,7.344,8.097,6.62,9,6.357V5.5
		c0-1.241,1.009-2.25,2.25-2.25H12c1.241,0,2.25,1.009,2.25,2.25v0.92c2.812,0.637,4.893,2.969,5.209,5.83h2.291
		c1.241,0,2.25,1.009,2.25,2.25v3c0,1.241-1.009,2.25-2.25,2.25h-0.879C20.558,20.635,19.71,21.25,18.75,21.25z M18.75,18.25
		C18.336,18.25,18,18.586,18,19s0.336,0.75,0.75,0.75S19.5,19.414,19.5,19S19.164,18.25,18.75,18.25z M5.25,18.25
		c-0.414,0-0.75,0.336-0.75,0.75s0.336,0.75,0.75,0.75S6,19.414,6,19S5.664,18.25,5.25,18.25z M21.75,18.25
		c0.414,0,0.75-0.336,0.75-0.75v-3c0-0.414-0.336-0.75-0.75-0.75h-18c-1.241,0-2.25,1.009-2.25,2.25v1.5
		c0,0.414,0.336,0.75,0.75,0.75h0.879c0.314-0.885,1.162-1.5,2.121-1.5s1.808,0.615,2.121,1.5h9.257
		c0.314-0.885,1.162-1.5,2.121-1.5s1.808,0.615,2.121,1.5H21.75z M17.945,12.25c-0.367-2.554-2.576-4.5-5.195-4.5h-3
		c-0.538,0-1.006,0.365-1.136,0.887L7.71,12.25H17.945z M12.75,6.25V5.5c0-0.414-0.336-0.75-0.75-0.75h-0.75
		c-0.414,0-0.75,0.336-0.75,0.75v0.75H12.75z"/>
	<path d="M8.25,16.75c-0.414,0-0.75-0.336-0.75-0.75s0.336-0.75,0.75-0.75H9c0.414,0,0.75,0.336,0.75,0.75S9.414,16.75,9,16.75H8.25
		z"/>
	<path d="M12,16.75c-0.414,0-0.75-0.336-0.75-0.75s0.336-0.75,0.75-0.75h0.75c0.414,0,0.75,0.336,0.75,0.75s-0.336,0.75-0.75,0.75
		H12z"/>
	<path d="M15.75,16.75C15.336,16.75,15,16.414,15,16s0.336-0.75,0.75-0.75h0.75c0.414,0,0.75,0.336,0.75,0.75s-0.336,0.75-0.75,0.75
		H15.75z"/>
</g>
</svg>
