<?xml version="1.0" encoding="utf-8"?>
<!-- Generator: Adobe Illustrator 22.1.0, SVG Export Plug-In . SVG Version: 6.00 Build 0)  -->
<svg version="1.1" id="Layer_1" xmlns="http://www.w3.org/2000/svg" xmlns:xlink="http://www.w3.org/1999/xlink" x="0px" y="0px"
	 viewBox="0 0 24 24" style="enable-background:new 0 0 24 24;" xml:space="preserve">
<title>taxi-wave-businessman</title>
<g>
	<path d="M12.749,6.749c-1.861,0-3.375-1.514-3.375-3.375s1.514-3.375,3.375-3.375s3.375,1.514,3.375,3.375
		S14.61,6.749,12.749,6.749z M12.749,1.499c-1.034,0-1.875,0.841-1.875,1.875s0.841,1.875,1.875,1.875s1.875-0.841,1.875-1.875
		S13.783,1.499,12.749,1.499z"/>
	<path d="M21.749,23.999c-0.414,0-0.75-0.336-0.75-0.75v-3.75h-7.5v3.75c0,0.414-0.336,0.75-0.75,0.75s-0.75-0.336-0.75-0.75v-3.75
		c0-0.827,0.673-1.5,1.5-1.5h0.75c0-0.955,0.451-1.838,1.203-2.399c-0.292-0.387-0.453-0.859-0.453-1.351v-2.25
		c0-0.414,0.336-0.75,0.75-0.75c0.414,0,0.75,0.336,0.75,0.75v2.25c0,0.414,0.336,0.75,0.75,0.75s0.75-0.336,0.75-0.75v-2.25
		c0-2.068-1.682-3.75-3.75-3.75h-2.48c-1.07,0-2.092-0.459-2.802-1.259L4.309,1.754c-0.03-0.036-0.045-0.053-0.061-0.07
		C4.109,1.541,3.922,1.459,3.721,1.456c0,0,0,0,0,0c-0.211,0-0.391,0.073-0.534,0.211C2.89,1.955,2.882,2.431,3.17,2.728
		l7.139,8.023c0.122,0.137,0.19,0.314,0.19,0.499v12c0,0.414-0.336,0.75-0.75,0.75s-0.75-0.336-0.75-0.75V11.535L2.071,3.748
		c-0.402-0.415-0.623-0.98-0.612-1.581C1.47,1.566,1.714,1.006,2.144,0.589c0.422-0.409,0.973-0.634,1.55-0.634l0.055,0.001
		c0.598,0.01,1.159,0.253,1.577,0.685c0.043,0.045,0.085,0.091,0.125,0.14l4.637,5.212c0.427,0.48,1.04,0.755,1.682,0.756h2.48
		c2.895,0,5.25,2.355,5.25,5.25v2.25c0,0.491-0.161,0.964-0.453,1.351c0.752,0.562,1.203,1.444,1.203,2.399h0.75
		c0.827,0,1.5,0.673,1.5,1.5v3.75C22.499,23.663,22.163,23.999,21.749,23.999z M18.749,17.999c0-0.827-0.673-1.5-1.5-1.5
		s-1.5,0.673-1.5,1.5H18.749z"/>
</g>
</svg>
