<?xml version="1.0" encoding="utf-8"?>
<!-- Generator: Adobe Illustrator 22.1.0, SVG Export Plug-In . SVG Version: 6.00 Build 0)  -->
<svg version="1.1" id="Regular" xmlns="http://www.w3.org/2000/svg" xmlns:xlink="http://www.w3.org/1999/xlink" x="0px" y="0px"
	 viewBox="0 0 24 24" style="enable-background:new 0 0 24 24;" xml:space="preserve">
<title>tea-kettle-1</title>
<g>
	<path d="M9.751,18c-2.068,0-3.75-1.682-3.75-3.75c0-2.068,1.682-3.75,3.75-3.75s3.75,1.682,3.75,3.75
		C13.501,16.318,11.818,18,9.751,18z M9.751,12c-1.241,0-2.25,1.009-2.25,2.25s1.009,2.25,2.25,2.25s2.25-1.009,2.25-2.25
		S10.991,12,9.751,12z"/>
	<path d="M2.239,23.999c-1.254-0.042-2.229-1.084-2.188-2.324c0.081-3.148,0.507-6.297,1.269-9.358l-1.28-3.829
		C-0.037,8.26,0.001,8.007,0.142,7.812S0.51,7.5,0.751,7.5h2.239c1.615-3.475,3.742-5.564,6.035-5.936V0.75
		C9.024,0.336,9.36,0,9.774,0s0.75,0.336,0.75,0.75v0.813c2.047,0.326,3.928,1.971,5.471,4.787c0.505-0.181,1.025-0.293,1.548-0.333
		C17.699,6.006,17.857,6,18.013,6c1.424,0,2.807,0.514,3.894,1.447c1.217,1.044,1.954,2.499,2.076,4.096
		c0.122,1.598-0.385,3.148-1.429,4.364c-0.861,1.003-2.03,1.691-3.321,1.96c0.081,0.745,0.147,1.526,0.195,2.326
		c0.002,0.008,0.004,0.032,0.004,0.057c0,0.005,0,0.01,0,0.015c0.032,0.525,0.053,0.981,0.067,1.412l0.001,0.067
		c0,0.607-0.234,1.172-0.659,1.597C18.417,23.766,17.852,24,17.251,24L2.239,23.999z M1.576,21c-0.011,0.24-0.019,0.479-0.026,0.719
		c-0.014,0.418,0.311,0.767,0.725,0.781l14.976,0c0.2,0,0.389-0.078,0.53-0.219C17.923,22.139,18,21.95,18,21.75l0-0.034
		c-0.008-0.237-0.017-0.477-0.028-0.716H1.576z M17.878,19.5c-0.31-3.972-1.1-7.588-2.293-10.5H1.792l1.02,3.049
		c0.046,0.137,0.051,0.283,0.016,0.423c-0.58,2.283-0.969,4.646-1.157,7.028H17.878z M16.669,7.704
		c1.084,2.401,1.901,5.381,2.374,8.67c0.922-0.218,1.753-0.722,2.373-1.444c0.783-0.912,1.163-2.075,1.071-3.273
		c-0.091-1.198-0.644-2.29-1.556-3.072C20.103,7.875,19.093,7.5,18.009,7.5c-0.117,0-0.234,0.005-0.352,0.014
		C17.324,7.539,16.993,7.603,16.669,7.704z M14.901,7.5C13.424,4.597,11.605,3,9.774,3C7.944,3,6.141,4.592,4.659,7.5H14.901z"/>
</g>
</svg>
