<?xml version="1.0" encoding="utf-8"?>
<!-- Generator: Adobe Illustrator 22.1.0, SVG Export Plug-In . SVG Version: 6.00 Build 0)  -->
<svg version="1.1" id="Regular" xmlns="http://www.w3.org/2000/svg" xmlns:xlink="http://www.w3.org/1999/xlink" x="0px" y="0px"
	 viewBox="0 0 24 24" style="enable-background:new 0 0 24 24;" xml:space="preserve">
<title>tea-cup-herbal</title>
<g>
	<path d="M0.775,22.5c-0.414,0-0.75-0.336-0.75-0.75S0.362,21,0.775,21h2.95c-2.311-1.627-3.7-4.267-3.7-7.171V3.857
		C0.026,2.557,1.084,1.5,2.383,1.5h11.785c0.981,0,1.845,0.604,2.194,1.5h2.41c2.609,0.008,4.792,1.885,5.191,4.461
		c0.031,0.198-0.018,0.396-0.136,0.558c-0.118,0.162-0.292,0.268-0.49,0.298c-0.039,0.006-0.078,0.009-0.115,0.009
		c-0.372,0-0.683-0.267-0.741-0.635C22.196,5.848,20.635,4.506,18.77,4.5h-2.244v2.25c0,0.414-0.336,0.75-0.75,0.75
		s-0.75-0.336-0.75-0.75V3.857C15.026,3.385,14.641,3,14.168,3H7.525v3h0.75c1.241,0,2.25,1.009,2.25,2.25v3
		c0,1.241-1.009,2.25-2.25,2.25h-3c-1.241,0-2.25-1.009-2.25-2.25v-3C3.025,7.009,4.035,6,5.275,6h0.75V3H2.383
		C1.911,3,1.526,3.385,1.525,3.858v9.972c0.001,3.534,2.52,6.544,5.995,7.171h2.693l2.358-2.376l-0.274-3.196
		c-0.017-0.199,0.044-0.394,0.173-0.547s0.31-0.247,0.51-0.264c0.02-0.002,0.043-0.003,0.066-0.003c0.385,0,0.712,0.302,0.745,0.687
		l0.166,1.927l1.794-1.808l-0.272-3.173c-0.017-0.2,0.044-0.394,0.173-0.547c0.129-0.153,0.31-0.247,0.51-0.264
		c0.021-0.002,0.042-0.003,0.063-0.003c0.387,0,0.715,0.301,0.748,0.686l0.164,1.906l1.795-1.808l-0.271-3.151
		c-0.017-0.2,0.044-0.394,0.173-0.547c0.129-0.153,0.31-0.247,0.51-0.264c0.021-0.002,0.042-0.003,0.063-0.003
		c0.387,0,0.715,0.301,0.748,0.686l0.162,1.883l0.991-0.998c0.142-0.143,0.331-0.222,0.532-0.222c0.199,0,0.386,0.077,0.528,0.217
		c0.294,0.292,0.295,0.768,0.004,1.061l-0.988,0.996l1.869,0.161c0.2,0.017,0.381,0.111,0.51,0.264
		c0.129,0.153,0.191,0.348,0.173,0.547c-0.032,0.384-0.361,0.686-0.747,0.686c-0.022,0-0.044-0.001-0.066-0.003l-3.116-0.268
		l-1.783,1.797l1.846,0.159c0.199,0.017,0.381,0.111,0.51,0.264s0.191,0.348,0.173,0.547c-0.032,0.384-0.361,0.686-0.747,0.686
		c-0.022,0-0.044-0.001-0.066-0.003l-3.094-0.266l-1.783,1.797l1.825,0.157c0.199,0.017,0.38,0.111,0.51,0.264
		s0.191,0.348,0.173,0.547c-0.032,0.384-0.361,0.686-0.747,0.686c-0.022,0-0.044-0.001-0.066-0.003l-3.071-0.264L12.327,21h10.198
		c0.414,0,0.75,0.336,0.75,0.75s-0.336,0.75-0.75,0.75H0.775z M5.275,7.5c-0.414,0-0.75,0.336-0.75,0.75v3
		c0,0.414,0.336,0.75,0.75,0.75h3c0.414,0,0.75-0.336,0.75-0.75v-3c0-0.414-0.336-0.75-0.75-0.75H5.275z"/>
</g>
</svg>
