<?xml version="1.0" encoding="utf-8"?>
<!-- Generator: Adobe Illustrator 22.1.0, SVG Export Plug-In . SVG Version: 6.00 Build 0)  -->
<svg version="1.1" id="Regular" xmlns="http://www.w3.org/2000/svg" xmlns:xlink="http://www.w3.org/1999/xlink" x="0px" y="0px"
	 viewBox="0 0 24 24" style="enable-background:new 0 0 24 24;" xml:space="preserve">
<title>tea-glass-herbal</title>
<g>
	<path d="M4.502,24c-1.166,0-2.151-0.906-2.247-2.062L0.009,1.645C-0.025,1.226,0.1,0.834,0.361,0.528
		c0.26-0.306,0.624-0.491,1.024-0.523C1.422,0.002,1.462,0,1.502,0h14.815c0.827,0,1.5,0.674,1.5,1.501
		c0,0.04-0.002,0.081-0.005,0.122l-0.908,8.953c-0.002,0.016-0.006,0.043-0.01,0.059c0,0.005-0.005,0.031-0.012,0.058
		c-0.005,0.019-0.012,0.041-0.019,0.063c-0.01,0.027-0.019,0.049-0.03,0.07c-0.009,0.02-0.024,0.048-0.041,0.074
		c-0.007,0.012-0.018,0.028-0.03,0.044c-0.016,0.022-0.035,0.045-0.056,0.068c-0.005,0.005-0.025,0.025-0.03,0.03
		c-0.028,0.026-0.052,0.047-0.078,0.065c-0.007,0.005-0.034,0.023-0.042,0.028c-0.025,0.016-0.054,0.032-0.084,0.046
		c-0.017,0.007-0.031,0.014-0.047,0.02c-0.03,0.011-0.059,0.02-0.089,0.027c-0.016,0.004-0.036,0.008-0.056,0.011
		c-0.026,0.004-0.05,0.007-0.074,0.008c-0.016,0.002-0.034,0.003-0.047,0.003H2.581l1.167,10.542C3.782,22.194,4.11,22.5,4.497,22.5
		h3.005c0.414,0,0.75,0.336,0.75,0.75S7.916,24,7.502,24H4.502z M15.48,9.75l0.837-8.25L1.505,1.501L2.415,9.75H15.48z"/>
	<path d="M10.559,24c-0.2,0-0.389-0.078-0.53-0.22c-0.142-0.142-0.22-0.33-0.22-0.53s0.078-0.389,0.22-0.53l2.6-2.6l-0.269-3.134
		c-0.017-0.199,0.044-0.394,0.173-0.547s0.31-0.247,0.51-0.264c0.019-0.002,0.043-0.003,0.067-0.003
		c0.385,0,0.711,0.302,0.744,0.687l0.161,1.875l1.796-1.796l-0.269-3.134c-0.017-0.199,0.044-0.394,0.173-0.547
		s0.31-0.247,0.51-0.264c0.019-0.002,0.043-0.003,0.067-0.003c0.385,0,0.711,0.302,0.744,0.687l0.161,1.875l1.796-1.795
		l-0.269-3.134c-0.017-0.2,0.044-0.394,0.173-0.547c0.129-0.153,0.31-0.247,0.51-0.264c0.021-0.002,0.042-0.003,0.064-0.003
		c0.386,0,0.714,0.301,0.747,0.686l0.161,1.876l0.993-0.993c0.142-0.142,0.33-0.22,0.53-0.22s0.389,0.078,0.53,0.22
		c0.142,0.142,0.22,0.33,0.22,0.53c0,0.2-0.078,0.389-0.22,0.531l-0.993,0.993l1.876,0.162c0.199,0.017,0.38,0.111,0.509,0.264
		s0.191,0.348,0.173,0.548c-0.033,0.385-0.361,0.686-0.747,0.686c-0.022,0-0.044-0.001-0.066-0.003l-3.133-0.27l-1.796,1.796
		l1.876,0.162c0.199,0.017,0.38,0.111,0.509,0.264s0.191,0.348,0.173,0.548c-0.033,0.385-0.361,0.686-0.747,0.686
		c-0.022,0-0.044-0.001-0.066-0.003l-3.133-0.27l-1.796,1.796l1.877,0.162c0.199,0.017,0.38,0.111,0.509,0.264
		s0.191,0.348,0.173,0.548c-0.033,0.385-0.361,0.686-0.747,0.686c-0.022,0-0.044-0.001-0.066-0.003l-3.133-0.27l-2.6,2.6
		C10.948,23.922,10.76,24,10.559,24z"/>
</g>
</svg>
