<?xml version="1.0" encoding="utf-8"?>
<!-- Generator: Adobe Illustrator 22.1.0, SVG Export Plug-In . SVG Version: 6.00 Build 0)  -->
<svg version="1.1" id="Regular" xmlns="http://www.w3.org/2000/svg" xmlns:xlink="http://www.w3.org/1999/xlink" x="0px" y="0px"
	 viewBox="0 0 24 24" style="enable-background:new 0 0 24 24;" xml:space="preserve">
<title>tea-bottle-herbal</title>
<g>
	<path d="M2.25,24C1.009,24,0,22.991,0,21.75v-7.257c0-2.946,1.798-5.63,4.5-6.762V4.371C3.615,4.058,3,3.21,3,2.25
		C3,1.009,4.009,0,5.25,0h6c1.241,0,2.25,1.009,2.25,2.25c0,0.96-0.615,1.808-1.5,2.121v3.359c1.447,0.606,2.674,1.672,3.476,3.025
		c0.211,0.356,0.093,0.817-0.263,1.027c-0.115,0.068-0.248,0.105-0.382,0.105c-0.264,0-0.511-0.141-0.646-0.368
		c-0.714-1.206-1.841-2.115-3.171-2.558C10.706,8.859,10.5,8.573,10.5,8.25V4.5H6v3.75c0,0.323-0.206,0.609-0.513,0.711
		C3.103,9.757,1.5,11.98,1.5,14.493v7.257c0,0.414,0.336,0.75,0.75,0.75H7.5c0.414,0,0.75,0.336,0.75,0.75S7.913,24,7.5,24H2.25z
		 M5.25,1.5C4.836,1.5,4.5,1.836,4.5,2.25S4.836,3,5.25,3h6C11.663,3,12,2.664,12,2.25S11.663,1.5,11.25,1.5H5.25z"/>
	<path d="M10.558,24c-0.2,0-0.389-0.078-0.53-0.22c-0.142-0.142-0.22-0.33-0.22-0.53s0.078-0.389,0.22-0.53l2.599-2.6l-0.269-3.134
		c-0.017-0.199,0.044-0.394,0.173-0.547s0.31-0.247,0.51-0.264c0.019-0.002,0.043-0.003,0.067-0.003
		c0.385,0,0.711,0.302,0.744,0.687l0.161,1.875l1.795-1.796l-0.269-3.134c-0.017-0.199,0.044-0.394,0.173-0.547
		s0.31-0.247,0.51-0.264c0.019-0.002,0.043-0.003,0.067-0.003c0.385,0,0.711,0.302,0.744,0.687l0.161,1.876l1.796-1.796
		l-0.269-3.134c-0.017-0.199,0.044-0.394,0.173-0.547c0.129-0.153,0.31-0.247,0.51-0.264c0.021-0.002,0.043-0.003,0.064-0.003
		c0.386,0,0.714,0.301,0.747,0.686l0.161,1.876l0.993-0.993c0.142-0.142,0.33-0.22,0.53-0.22s0.389,0.078,0.53,0.22
		c0.142,0.141,0.22,0.33,0.22,0.53s-0.078,0.389-0.22,0.531l-0.993,0.993l1.876,0.162c0.199,0.017,0.38,0.111,0.509,0.264
		s0.191,0.348,0.173,0.548c-0.033,0.385-0.361,0.686-0.747,0.686c-0.022,0-0.044-0.001-0.066-0.003l-3.132-0.27l-1.796,1.796
		l1.876,0.162c0.199,0.017,0.38,0.111,0.509,0.264s0.191,0.348,0.173,0.548c-0.033,0.385-0.361,0.686-0.747,0.686
		c-0.022,0-0.044-0.001-0.066-0.003l-3.132-0.27l-1.796,1.796l1.876,0.162c0.199,0.017,0.38,0.111,0.509,0.264
		s0.191,0.348,0.173,0.548c-0.033,0.385-0.361,0.686-0.747,0.686c-0.022,0-0.044-0.001-0.066-0.003l-3.132-0.27l-2.6,2.6
		C10.947,23.922,10.758,24,10.558,24z"/>
	<path d="M8.25,18c-1.654,0-3-1.346-3-3c0-1.456,2.034-3.797,2.442-4.251c0.139-0.155,0.342-0.243,0.558-0.243
		s0.419,0.089,0.558,0.243C9.216,11.203,11.25,13.544,11.25,15C11.25,16.654,9.904,18,8.25,18z M8.25,12.413
		c-0.885,1.107-1.5,2.159-1.5,2.587c0,0.827,0.673,1.5,1.5,1.5s1.5-0.673,1.5-1.5C9.75,14.571,9.134,13.519,8.25,12.413z"/>
</g>
</svg>
