<?xml version="1.0" encoding="utf-8"?>
<!-- Generator: Adobe Illustrator 22.1.0, SVG Export Plug-In . SVG Version: 6.00 Build 0)  -->
<svg version="1.1" id="Regular" xmlns="http://www.w3.org/2000/svg" xmlns:xlink="http://www.w3.org/1999/xlink" x="0px" y="0px"
	 viewBox="0 0 24 24" style="enable-background:new 0 0 24 24;" xml:space="preserve">
<title>tea-box-herbal</title>
<g>
	<path d="M10.529,23.942c-0.2,0-0.389-0.078-0.53-0.22c-0.292-0.292-0.292-0.768,0-1.061l2.6-2.6l-0.27-3.133
		c-0.017-0.199,0.044-0.394,0.173-0.547s0.31-0.247,0.51-0.264c0.022-0.002,0.044-0.003,0.065-0.003
		c0.392,0,0.713,0.295,0.746,0.686l0.162,1.876l1.796-1.796l-0.27-3.133c-0.017-0.2,0.044-0.394,0.173-0.548s0.31-0.247,0.51-0.264
		c0.022-0.002,0.042-0.003,0.062-0.003c0.393,0,0.715,0.295,0.749,0.685l0.162,1.876l1.796-1.796l-0.27-3.133
		c-0.036-0.412,0.271-0.776,0.683-0.812c0.024-0.002,0.043-0.002,0.061-0.002c0.395,0,0.717,0.295,0.75,0.686l0.162,1.876
		l0.993-0.993c0.142-0.142,0.33-0.22,0.53-0.22s0.389,0.078,0.53,0.22c0.142,0.141,0.22,0.33,0.22,0.53s-0.078,0.389-0.22,0.53
		l-0.993,0.993l1.876,0.161c0.199,0.017,0.38,0.111,0.51,0.264s0.191,0.348,0.173,0.547c-0.032,0.384-0.361,0.686-0.747,0.686
		c-0.022,0-0.044-0.001-0.066-0.003l-3.132-0.269l-1.796,1.796l1.876,0.161c0.2,0.017,0.381,0.111,0.51,0.264
		s0.191,0.348,0.173,0.547c-0.032,0.384-0.361,0.686-0.747,0.686c-0.022,0-0.044-0.001-0.066-0.003l-3.133-0.269l-1.796,1.796
		l1.876,0.161c0.199,0.017,0.38,0.111,0.51,0.264s0.191,0.348,0.173,0.547c-0.032,0.384-0.361,0.686-0.747,0.686
		c-0.022,0-0.044-0.001-0.066-0.003l-3.132-0.269l-2.599,2.599C10.918,23.864,10.729,23.942,10.529,23.942z"/>
	<path d="M2.279,24c-1.241,0-2.25-1.009-2.25-2.25V10.104c0-0.347,0.082-0.695,0.237-1.006c0.016-0.031,0.032-0.06,0.051-0.087
		l2.712-3.992V2.25C3.029,1.009,4.038,0,5.279,0h9c1.241,0,2.25,1.009,2.25,2.25v2.769l1.404,2.066
		c0.232,0.342,0.143,0.81-0.199,1.042c-0.125,0.085-0.271,0.129-0.421,0.129c-0.249,0-0.481-0.123-0.621-0.328L15.382,6H4.176
		L1.59,9.806c-0.04,0.094-0.062,0.196-0.062,0.298V21.75c0,0.414,0.336,0.75,0.75,0.75h3.75c0.414,0,0.75,0.336,0.75,0.75
		S6.443,24,6.029,24H2.279z M15.029,4.5V2.25c0-0.414-0.336-0.75-0.75-0.75h-9c-0.414,0-0.75,0.336-0.75,0.75V4.5H15.029z"/>
	<path d="M4.529,10.5c-0.414,0-0.75-0.336-0.75-0.75S4.115,9,4.529,9h10.5c0.414,0,0.75,0.336,0.75,0.75s-0.336,0.75-0.75,0.75
		H4.529z"/>
	<path d="M9.779,20.25c-1,0-1.942-0.391-2.65-1.101C6.42,18.44,6.03,17.498,6.03,16.498c0.001-2.067,1.683-3.748,3.75-3.748
		c0.623,0,1.239,0.157,1.786,0.452c0.364,0.197,0.499,0.653,0.302,1.017c-0.131,0.242-0.384,0.393-0.66,0.393
		c-0.124,0-0.247-0.031-0.357-0.091c-0.328-0.177-0.698-0.271-1.07-0.271c-1.241,0-2.25,1.009-2.251,2.249
		c0,1.24,1.008,2.25,2.249,2.251c0.2,0,0.389,0.078,0.53,0.22c0.142,0.142,0.22,0.33,0.219,0.531
		C10.529,19.914,10.192,20.25,9.779,20.25L9.779,20.25z"/>
</g>
</svg>
