<?xml version="1.0" encoding="utf-8"?>
<!-- Generator: Adobe Illustrator 22.1.0, SVG Export Plug-In . SVG Version: 6.00 Build 0)  -->
<svg version="1.1" id="Layer_1" xmlns="http://www.w3.org/2000/svg" xmlns:xlink="http://www.w3.org/1999/xlink" x="0px" y="0px"
	 viewBox="0 0 24 24" style="enable-background:new 0 0 24 24;" xml:space="preserve">
<title>team-exchange-chat</title>
<g>
	<path d="M9.75,11.251c-0.161,0-0.321-0.053-0.45-0.15l-2.8-2.1H2.25C1.009,9.001,0,7.991,0,6.751v-4.5
		c0-1.241,1.009-2.25,2.25-2.25h9c1.241,0,2.25,1.009,2.25,2.25v4.5c0,1.241-1.009,2.25-2.25,2.25H10.5v1.5
		c0,0.286-0.159,0.543-0.414,0.671C9.981,11.223,9.865,11.251,9.75,11.251z M2.25,1.501c-0.414,0-0.75,0.336-0.75,0.75v4.5
		c0,0.414,0.336,0.75,0.75,0.75h4.5c0.161,0,0.321,0.053,0.45,0.15L9,9.001v-0.75c0-0.414,0.336-0.75,0.75-0.75h1.5
		c0.414,0,0.75-0.336,0.75-0.75v-4.5c0-0.414-0.336-0.75-0.75-0.75H2.25z"/>
	<path d="M14.25,24.001c-0.116,0-0.233-0.028-0.336-0.079c-0.255-0.128-0.414-0.385-0.414-0.671v-1.5h-0.75
		c-1.241,0-2.25-1.009-2.25-2.25v-4.5c0-1.241,1.009-2.25,2.25-2.25h9c1.241,0,2.25,1.009,2.25,2.25v4.5
		c0,1.241-1.009,2.25-2.25,2.25H17.5l-2.8,2.1C14.571,23.948,14.411,24.001,14.25,24.001z M12.75,14.251
		c-0.414,0-0.75,0.336-0.75,0.75v4.5c0,0.414,0.336,0.75,0.75,0.75h1.5c0.414,0,0.75,0.336,0.75,0.75v0.75l1.8-1.35
		c0.129-0.097,0.289-0.15,0.45-0.15h4.5c0.414,0,0.75-0.336,0.75-0.75v-4.5c0-0.414-0.336-0.75-0.75-0.75H12.75z"/>
	<path d="M4.974,20.251c-1.861,0-3.375-1.514-3.375-3.375s1.514-3.375,3.375-3.375s3.375,1.514,3.375,3.375
		S6.835,20.251,4.974,20.251z M4.974,15.001c-1.034,0-1.875,0.841-1.875,1.875s0.841,1.875,1.875,1.875s1.875-0.841,1.875-1.875
		S6.008,15.001,4.974,15.001z"/>
	<path d="M9.2,24.001c-0.318,0-0.603-0.202-0.708-0.503C7.972,22.004,6.557,21,4.973,21c-0.416,0-0.827,0.07-1.223,0.208
		c-1.079,0.376-1.914,1.211-2.29,2.29c-0.105,0.301-0.39,0.503-0.708,0.503c-0.085,0-0.168-0.014-0.248-0.042
		c-0.188-0.065-0.34-0.201-0.427-0.382c-0.087-0.18-0.099-0.384-0.033-0.573c0.528-1.514,1.699-2.685,3.213-3.212
		C3.811,19.598,4.388,19.5,4.972,19.5c2.222,0,4.206,1.408,4.937,3.504c0.066,0.189,0.054,0.393-0.033,0.573
		c-0.087,0.181-0.239,0.316-0.429,0.382C9.369,23.987,9.285,24.001,9.2,24.001z"/>
	<path d="M19.025,7.501c-1.861,0-3.375-1.514-3.375-3.375s1.514-3.375,3.375-3.375S22.4,2.265,22.4,4.126S20.886,7.501,19.025,7.501
		z M19.025,2.251c-1.034,0-1.875,0.841-1.875,1.875s0.841,1.875,1.875,1.875S20.9,5.16,20.9,4.126S20.059,2.251,19.025,2.251z"/>
	<path d="M14.801,11.251c-0.083,0-0.166-0.014-0.246-0.042c-0.19-0.066-0.343-0.202-0.43-0.383
		c-0.087-0.181-0.099-0.384-0.032-0.573c0.528-1.513,1.699-2.684,3.212-3.212c0.555-0.193,1.132-0.292,1.716-0.292
		c2.222,0,4.206,1.408,4.937,3.504c0.066,0.189,0.055,0.393-0.032,0.573c-0.087,0.18-0.239,0.316-0.428,0.382
		c-0.08,0.028-0.163,0.042-0.247,0.042c-0.318,0-0.603-0.202-0.708-0.503C22.02,9.254,20.606,8.25,19.021,8.25
		c-0.416,0-0.827,0.07-1.222,0.208c-1.079,0.376-1.914,1.211-2.29,2.29C15.404,11.049,15.119,11.251,14.801,11.251z"/>
	<path d="M18.75,19.501c-0.2,0-0.389-0.078-0.53-0.22c-0.292-0.292-0.292-0.768,0-1.061l0.22-0.22H14.25
		c-0.414,0-0.75-0.336-0.75-0.75s0.336-0.75,0.75-0.75h4.189l-0.22-0.22c-0.292-0.292-0.292-0.768,0-1.061
		c0.142-0.142,0.33-0.22,0.53-0.22s0.389,0.078,0.53,0.22l1.5,1.5c0.07,0.07,0.125,0.152,0.163,0.245
		c0.003,0.008,0.007,0.017,0.01,0.026C20.983,17.073,21,17.161,21,17.251c0,0.087-0.016,0.174-0.046,0.258
		c-0.002,0.006-0.004,0.011-0.006,0.017c-0.042,0.104-0.097,0.186-0.167,0.256l-1.5,1.5C19.138,19.423,18.95,19.501,18.75,19.501z"
		/>
	<path d="M5.25,6.751c-0.2,0-0.389-0.078-0.53-0.22l-1.5-1.5c-0.07-0.07-0.125-0.152-0.163-0.245C3.053,4.778,3.05,4.77,3.047,4.761
		C3.015,4.675,3,4.588,3,4.501C3,4.412,3.016,4.324,3.047,4.24C3.05,4.232,3.052,4.225,3.055,4.219
		C3.095,4.122,3.15,4.04,3.22,3.969L4.719,2.47c0.142-0.142,0.33-0.22,0.53-0.22s0.389,0.078,0.53,0.22C5.922,2.612,6,2.8,6,3.001
		S5.922,3.39,5.78,3.531l-0.22,0.22H9.75c0.414,0,0.75,0.336,0.75,0.75s-0.336,0.75-0.75,0.75H5.56l0.22,0.22
		C5.922,5.612,6,5.8,6,6.001S5.922,6.39,5.78,6.531C5.638,6.673,5.45,6.751,5.25,6.751z"/>
</g>
</svg>
