<?xml version="1.0" encoding="utf-8"?>
<!-- Generator: Adobe Illustrator 22.1.0, SVG Export Plug-In . SVG Version: 6.00 Build 0)  -->
<svg version="1.1" id="Layer_1" xmlns="http://www.w3.org/2000/svg" xmlns:xlink="http://www.w3.org/1999/xlink" x="0px" y="0px"
	 viewBox="0 0 24 24" style="enable-background:new 0 0 24 24;" xml:space="preserve">
<title>team-chat</title>
<g>
	<path d="M14.25,24.001c-0.116,0-0.233-0.028-0.336-0.079c-0.255-0.128-0.414-0.385-0.414-0.671v-1.5h-0.75
		c-1.241,0-2.25-1.009-2.25-2.25v-4.5c0-1.241,1.009-2.25,2.25-2.25h9c1.241,0,2.25,1.009,2.25,2.25v4.5
		c0,1.241-1.009,2.25-2.25,2.25H17.5l-2.8,2.1C14.571,23.948,14.411,24.001,14.25,24.001z M12.75,14.251
		c-0.414,0-0.75,0.336-0.75,0.75v4.5c0,0.414,0.336,0.75,0.75,0.75h1.5c0.414,0,0.75,0.336,0.75,0.75v0.75l1.8-1.35
		c0.129-0.097,0.289-0.15,0.45-0.15h4.5c0.414,0,0.75-0.336,0.75-0.75v-4.5c0-0.414-0.336-0.75-0.75-0.75H12.75z"/>
	<path d="M4.974,20.251c-1.861,0-3.375-1.514-3.375-3.375s1.514-3.375,3.375-3.375s3.375,1.514,3.375,3.375
		S6.835,20.251,4.974,20.251z M4.974,15.001c-1.034,0-1.875,0.841-1.875,1.875s0.841,1.875,1.875,1.875s1.875-0.841,1.875-1.875
		S6.008,15.001,4.974,15.001z"/>
	<path d="M9.2,24.001c-0.318,0-0.603-0.202-0.708-0.503C7.972,22.004,6.557,21,4.973,21c-0.416,0-0.827,0.07-1.223,0.208
		c-1.079,0.376-1.914,1.211-2.29,2.29c-0.105,0.301-0.39,0.503-0.708,0.503c-0.085,0-0.168-0.014-0.248-0.042
		c-0.188-0.065-0.34-0.201-0.427-0.382c-0.087-0.18-0.099-0.384-0.033-0.573c0.528-1.514,1.699-2.685,3.213-3.212
		C3.811,19.598,4.388,19.5,4.972,19.5c2.222,0,4.206,1.408,4.937,3.504c0.066,0.189,0.054,0.393-0.033,0.573
		c-0.087,0.181-0.239,0.316-0.429,0.382C9.369,23.987,9.285,24.001,9.2,24.001z"/>
	<path d="M19.025,7.501c-1.861,0-3.375-1.514-3.375-3.375s1.514-3.375,3.375-3.375S22.4,2.265,22.4,4.126S20.886,7.501,19.025,7.501
		z M19.025,2.251c-1.034,0-1.875,0.841-1.875,1.875s0.841,1.875,1.875,1.875S20.9,5.16,20.9,4.126S20.059,2.251,19.025,2.251z"/>
	<path d="M14.801,11.251c-0.083,0-0.166-0.014-0.246-0.042c-0.19-0.066-0.343-0.202-0.43-0.383
		c-0.087-0.181-0.099-0.384-0.032-0.573c0.528-1.513,1.699-2.684,3.212-3.212c0.555-0.193,1.132-0.292,1.716-0.292
		c2.222,0,4.206,1.408,4.937,3.504c0.066,0.189,0.055,0.393-0.032,0.573c-0.087,0.18-0.239,0.316-0.428,0.382
		c-0.08,0.028-0.163,0.042-0.247,0.042c-0.318,0-0.603-0.202-0.708-0.503C22.02,9.254,20.606,8.25,19.021,8.25
		c-0.416,0-0.827,0.07-1.222,0.208c-1.079,0.376-1.914,1.211-2.29,2.29C15.404,11.049,15.119,11.251,14.801,11.251z"/>
	<path d="M16.5,16.501c-0.414,0-0.75-0.336-0.75-0.75s0.336-0.75,0.75-0.75h3.75c0.414,0,0.75,0.336,0.75,0.75
		s-0.336,0.75-0.75,0.75H16.5z"/>
	<path d="M14.25,18.751c-0.414,0-0.75-0.336-0.75-0.75s0.336-0.75,0.75-0.75h6c0.414,0,0.75,0.336,0.75,0.75s-0.336,0.75-0.75,0.75
		H14.25z"/>
	<path d="M9.75,11.251c-0.161,0-0.321-0.053-0.45-0.15l-2.8-2.1H2.25C1.009,9.001,0,7.991,0,6.751v-4.5
		c0-1.241,1.009-2.25,2.25-2.25h9c1.241,0,2.25,1.009,2.25,2.25v4.5c0,1.241-1.009,2.25-2.25,2.25H10.5v1.5
		c0,0.286-0.159,0.543-0.414,0.671C9.981,11.223,9.865,11.251,9.75,11.251z M2.25,1.501c-0.414,0-0.75,0.336-0.75,0.75v4.5
		c0,0.414,0.336,0.75,0.75,0.75h4.5c0.161,0,0.321,0.053,0.45,0.15L9,9.001v-0.75c0-0.414,0.336-0.75,0.75-0.75h1.5
		c0.414,0,0.75-0.336,0.75-0.75v-4.5c0-0.414-0.336-0.75-0.75-0.75H2.25z"/>
	<path d="M3.75,3.751C3.336,3.751,3,3.414,3,3.001s0.336-0.75,0.75-0.75H7.5c0.414,0,0.75,0.336,0.75,0.75s-0.336,0.75-0.75,0.75
		H3.75z"/>
	<path d="M3.75,6.001C3.336,6.001,3,5.664,3,5.251s0.336-0.75,0.75-0.75h6c0.414,0,0.75,0.336,0.75,0.75s-0.336,0.75-0.75,0.75H3.75
		z"/>
</g>
</svg>
