<?xml version="1.0" encoding="utf-8"?>
<!-- Generator: Adobe Illustrator 22.1.0, SVG Export Plug-In . SVG Version: 6.00 Build 0)  -->
<svg version="1.1" id="Layer_1" xmlns="http://www.w3.org/2000/svg" xmlns:xlink="http://www.w3.org/1999/xlink" x="0px" y="0px"
	 viewBox="0 0 24 24" style="enable-background:new 0 0 24 24;" xml:space="preserve">
<title>team-meeting-message-lock</title>
<g>
	<path d="M10.51,24c-0.118,0-0.237-0.029-0.342-0.083c-1.305-0.667-2.673-1.235-4.066-1.688c-0.336-0.124-0.758-0.425-0.944-1.185
		c-0.164-0.67-0.135-1.933,0.345-2.461c0.855-0.927,1.275-2.173,1.153-3.423c-0.005-0.048-0.005-0.096,0-0.144
		c0.068-0.698-0.141-1.381-0.587-1.922c-0.446-0.542-1.076-0.877-1.774-0.944c-0.063-0.006-0.125-0.01-0.188-0.011
		c-0.671,0.017-1.318,0.307-1.801,0.815c-0.484,0.508-0.74,1.174-0.723,1.875c0.001,0.063,0.005,0.125,0.011,0.188
		c0.005,0.049,0.005,0.097,0,0.145c-0.122,1.25,0.297,2.496,1.149,3.419c0.49,0.539,0.517,1.778,0.349,2.465
		c-0.185,0.76-0.6,1.058-0.915,1.175l-1.169,0.431c-0.083,0.031-0.171,0.047-0.26,0.047c-0.313,0-0.595-0.197-0.704-0.49
		c-0.143-0.388,0.056-0.82,0.444-0.963l1.095-0.404c0.01-0.02,0.023-0.052,0.037-0.098c0.126-0.426,0.038-1.028-0.019-1.188
		c-1.098-1.209-1.646-2.833-1.508-4.467c-0.006-0.074-0.01-0.148-0.011-0.223c-0.027-1.101,0.376-2.147,1.136-2.946
		c0.76-0.798,1.785-1.253,2.887-1.28c0.136,0.002,0.235,0.008,0.333,0.018c1.097,0.106,2.087,0.633,2.788,1.484
		c0.684,0.831,1.013,1.876,0.928,2.947c0.138,1.633-0.411,3.257-1.511,4.47c-0.057,0.163-0.141,0.763-0.016,1.184
		c0.013,0.043,0.025,0.074,0.035,0.094c1.421,0.465,2.835,1.054,4.188,1.747c0.178,0.091,0.31,0.246,0.372,0.437
		c0.062,0.191,0.045,0.394-0.046,0.572C11.049,23.844,10.793,24,10.51,24z"/>
	<path d="M23.251,22.693c-0.089,0-0.177-0.016-0.26-0.046l-1.168-0.431c-0.315-0.117-0.73-0.416-0.916-1.176
		c-0.164-0.67-0.135-1.932,0.345-2.46c0.855-0.926,1.275-2.173,1.154-3.423c-0.002-0.024-0.003-0.048-0.003-0.073
		c0-0.236-0.02-0.471-0.059-0.7c-0.07-0.408,0.204-0.797,0.612-0.867c0.044-0.007,0.085-0.01,0.126-0.01
		c0.367,0,0.679,0.262,0.741,0.623c0.052,0.301,0.079,0.611,0.081,0.919c0.149,1.645-0.4,3.283-1.508,4.506
		c-0.057,0.163-0.141,0.763-0.016,1.183c0.014,0.046,0.027,0.078,0.036,0.098l1.095,0.404c0.188,0.069,0.338,0.208,0.421,0.39
		c0.084,0.182,0.092,0.386,0.022,0.574C23.846,22.496,23.564,22.693,23.251,22.693z"/>
	<path d="M13.501,23.994c-0.284,0-0.54-0.157-0.668-0.409c-0.091-0.178-0.107-0.382-0.045-0.572c0.062-0.19,0.194-0.345,0.373-0.437
		c1.341-0.684,2.746-1.27,4.177-1.741c0.01-0.022,0.022-0.052,0.034-0.095c0.125-0.424,0.04-1.021-0.018-1.184
		c-0.791-0.835-1.294-1.927-1.417-3.083c-0.021-0.199,0.036-0.394,0.162-0.55c0.126-0.156,0.305-0.254,0.504-0.275
		c0.025-0.003,0.053-0.004,0.081-0.004c0.384,0,0.704,0.288,0.744,0.67c0.09,0.843,0.465,1.643,1.054,2.252
		c0.499,0.549,0.529,1.789,0.361,2.477c-0.185,0.76-0.6,1.059-0.915,1.176c-1.413,0.46-2.783,1.028-4.085,1.692
		C13.736,23.966,13.619,23.994,13.501,23.994z"/>
	<path d="M12.751,17.25c-0.099,0-0.196-0.019-0.288-0.057c-0.281-0.116-0.462-0.388-0.462-0.693v-3.75h-2.25
		c-1.241,0-2.25-1.009-2.25-2.25V2.25C7.501,1.009,8.51,0,9.751,0h1.5c0.414,0,0.75,0.336,0.75,0.75s-0.336,0.75-0.75,0.75h-1.5
		c-0.414,0-0.75,0.336-0.75,0.75v8.25c0,0.414,0.336,0.75,0.75,0.75h3c0.414,0,0.75,0.336,0.75,0.75v2.689l3.22-3.22
		c0.14-0.14,0.333-0.22,0.53-0.22h4.5c0.414,0,0.75-0.336,0.75-0.75V2.25c0-0.414-0.336-0.75-0.75-0.75h-0.75
		c-0.414,0-0.75-0.336-0.75-0.75S20.587,0,21.001,0h0.75c1.241,0,2.25,1.009,2.25,2.25v8.25c0,1.241-1.009,2.25-2.25,2.25h-4.189
		l-4.28,4.28C13.14,17.172,12.951,17.25,12.751,17.25z"/>
	<circle cx="15.751" cy="6.75" r="1.125"/>
	<path d="M12.251,10.5c-0.552,0-1-0.449-1-1V4c0-0.551,0.449-1,1-1h0.75V2.75c0-1.516,1.234-2.75,2.75-2.75s2.75,1.234,2.75,2.75V3
		h0.75c0.552,0,1,0.449,1,1v5.5c0,0.551-0.448,1-1,1H12.251z M18.751,9V4.5h-6V9H18.751z M17.001,3V2.75
		c0-0.689-0.561-1.25-1.25-1.25s-1.25,0.561-1.25,1.25V3H17.001z"/>
</g>
</svg>
