<?xml version="1.0" encoding="utf-8"?>
<!-- Generator: Adobe Illustrator 22.1.0, SVG Export Plug-In . SVG Version: 6.00 Build 0)  -->
<svg version="1.1" id="Layer_1" xmlns="http://www.w3.org/2000/svg" xmlns:xlink="http://www.w3.org/1999/xlink" x="0px" y="0px"
	 viewBox="0 0 24 24" style="enable-background:new 0 0 24 24;" xml:space="preserve">
<title>team-meeting-message-lock-1</title>
<g>
	<path d="M4.973,19.501c-2.068,0-3.75-1.682-3.75-3.75s1.682-3.75,3.75-3.75s3.75,1.682,3.75,3.75S7.041,19.501,4.973,19.501z
		 M4.973,13.501c-1.241,0-2.25,1.009-2.25,2.25s1.009,2.25,2.25,2.25s2.25-1.009,2.25-2.25S6.214,13.501,4.973,13.501z"/>
	<path d="M9.198,24.001c-0.318,0-0.602-0.202-0.707-0.503c-0.328-0.94-1.001-1.695-1.897-2.128
		c-0.512-0.247-1.056-0.372-1.616-0.372c-0.417,0-0.83,0.071-1.229,0.21c-1.079,0.376-1.914,1.211-2.29,2.29
		c-0.105,0.301-0.39,0.503-0.708,0.503c-0.085,0-0.168-0.014-0.248-0.042c-0.188-0.065-0.34-0.201-0.427-0.382
		c-0.087-0.18-0.099-0.384-0.033-0.573c0.528-1.514,1.699-2.685,3.213-3.212c0.559-0.195,1.139-0.294,1.724-0.294
		c0.787,0,1.55,0.176,2.268,0.522c1.256,0.607,2.202,1.667,2.661,2.984c0.066,0.189,0.054,0.393-0.033,0.573
		c-0.087,0.181-0.239,0.316-0.429,0.382C9.367,23.987,9.284,24.001,9.198,24.001z"/>
	<path d="M18.469,19.509c-1.192,0-2.324-0.58-3.029-1.552c-0.243-0.335-0.168-0.805,0.167-1.048c0.13-0.094,0.282-0.143,0.44-0.143
		c0.24,0,0.467,0.116,0.607,0.309c0.423,0.584,1.102,0.932,1.816,0.932c0.302,0,0.599-0.061,0.881-0.179
		c0.553-0.234,0.983-0.669,1.209-1.226c0.226-0.557,0.222-1.168-0.011-1.722c-0.078-0.184-0.079-0.388-0.004-0.574
		c0.075-0.186,0.219-0.331,0.403-0.409c0.094-0.039,0.191-0.059,0.291-0.059c0.303,0,0.574,0.18,0.691,0.459
		c0.803,1.905-0.092,4.109-1.997,4.912C19.466,19.409,18.973,19.509,18.469,19.509L18.469,19.509z"/>
	<path d="M14.251,24.001c-0.085,0-0.169-0.014-0.25-0.043c-0.188-0.065-0.34-0.201-0.427-0.381c-0.087-0.18-0.099-0.384-0.032-0.573
		c0.528-1.514,1.698-2.685,3.212-3.212c0.559-0.195,1.139-0.294,1.724-0.294c0.787,0,1.55,0.176,2.268,0.522
		c1.256,0.607,2.201,1.667,2.661,2.984c0.066,0.189,0.055,0.393-0.032,0.573c-0.087,0.181-0.24,0.316-0.429,0.382
		c-0.079,0.028-0.162,0.042-0.247,0.042c-0.319,0-0.603-0.202-0.708-0.503c-0.328-0.939-1.001-1.695-1.897-2.127
		c-0.512-0.247-1.056-0.372-1.616-0.372c-0.417,0-0.83,0.071-1.229,0.209c-1.079,0.376-1.914,1.211-2.29,2.29
		C14.854,23.799,14.57,24.001,14.251,24.001z"/>
	<path d="M12.749,17.251c-0.099,0-0.196-0.019-0.288-0.057c-0.281-0.116-0.462-0.388-0.462-0.693v-3.75h-2.25
		c-1.241,0-2.25-1.009-2.25-2.25v-8.25c0-1.241,1.009-2.25,2.25-2.25h1.5c0.414,0,0.75,0.336,0.75,0.75s-0.336,0.75-0.75,0.75h-1.5
		c-0.414,0-0.75,0.336-0.75,0.75v8.25c0,0.414,0.336,0.75,0.75,0.75h3c0.414,0,0.75,0.336,0.75,0.75v2.689l3.22-3.22
		c0.14-0.14,0.333-0.22,0.53-0.22h4.5c0.414,0,0.75-0.336,0.75-0.75v-8.25c0-0.414-0.336-0.75-0.75-0.75h-0.75
		c-0.414,0-0.75-0.336-0.75-0.75s0.336-0.75,0.75-0.75h0.75c1.241,0,2.25,1.009,2.25,2.25v8.25c0,1.241-1.009,2.25-2.25,2.25H17.56
		l-4.28,4.28C13.138,17.173,12.949,17.251,12.749,17.251z"/>
	<circle cx="15.748" cy="6.751" r="1.125"/>
	<path d="M12.248,10.501c-0.551,0-1-0.449-1-1v-5.5c0-0.551,0.449-1,1-1h0.75v-0.25c0-1.516,1.234-2.75,2.75-2.75
		s2.75,1.234,2.75,2.75v0.25h0.75c0.552,0,1,0.449,1,1v5.5c0,0.551-0.448,1-1,1H12.248z M18.748,9.001v-4.5h-6v4.5H18.748z
		 M16.998,3.001v-0.25c0-0.689-0.561-1.25-1.25-1.25s-1.25,0.561-1.25,1.25v0.25H16.998z"/>
</g>
</svg>
