<?xml version="1.0" encoding="utf-8"?>
<!-- Generator: Adobe Illustrator 22.1.0, SVG Export Plug-In . SVG Version: 6.00 Build 0)  -->
<svg version="1.1" id="Layer_1" xmlns="http://www.w3.org/2000/svg" xmlns:xlink="http://www.w3.org/1999/xlink" x="0px" y="0px"
	 viewBox="0 0 24 24" style="enable-background:new 0 0 24 24;" xml:space="preserve">
<title>team-meeting-message-women-lock</title>
<g>
	<path d="M12.75,17.25c-0.099,0-0.196-0.019-0.288-0.057C12.182,17.076,12,16.804,12,16.5v-3.75H9.75c-1.241,0-2.25-1.009-2.25-2.25
		V2.25C7.5,1.009,8.51,0,9.75,0h1.5C11.664,0,12,0.336,12,0.75S11.664,1.5,11.25,1.5h-1.5C9.337,1.5,9,1.836,9,2.25v8.25
		c0,0.414,0.336,0.75,0.75,0.75h3c0.414,0,0.75,0.336,0.75,0.75v2.689l3.22-3.22c0.14-0.14,0.333-0.22,0.53-0.22h4.5
		c0.414,0,0.75-0.336,0.75-0.75V2.25c0-0.414-0.336-0.75-0.75-0.75H21c-0.414,0-0.75-0.336-0.75-0.75S20.587,0,21,0h0.75
		C22.991,0,24,1.009,24,2.25v8.25c0,1.241-1.009,2.25-2.25,2.25h-4.189l-4.28,4.28C13.139,17.172,12.951,17.25,12.75,17.25z"/>
	<circle cx="15.749" cy="6.75" r="1.125"/>
	<path d="M12.249,10.5c-0.551,0-1-0.449-1-1V4c0-0.551,0.449-1,1-1h0.75V2.75c0-1.516,1.234-2.75,2.75-2.75s2.75,1.234,2.75,2.75V3
		h0.75c0.552,0,1,0.449,1,1v5.5c0,0.551-0.448,1-1,1H12.249z M18.749,9V4.5h-6V9H18.749z M16.999,3V2.75
		c0-0.689-0.561-1.25-1.25-1.25s-1.25,0.561-1.25,1.25V3H16.999z"/>
	<path d="M11.25,20.25c-0.674,0-1.847-0.264-2.521-1.934c-0.702,0.751-1.68,1.184-2.73,1.184c-1.049,0-2.027-0.432-2.729-1.183
		c-0.674,1.669-1.847,1.933-2.521,1.933c-0.414,0-0.75-0.336-0.75-0.75s0.336-0.75,0.75-0.75c1.396,0,1.495-2.789,1.5-2.98
		c0-0.007,0-0.015,0-0.02c0-2.068,1.682-3.75,3.75-3.75c2.049,0,3.727,1.663,3.749,3.71c0.001,0.014,0.002,0.029,0.002,0.04
		c0,0.029,0.056,3,1.5,3c0.414,0,0.75,0.336,0.75,0.75S11.664,20.25,11.25,20.25z M3.75,15.75C3.758,16.997,4.767,18,5.999,18
		c1.241,0,2.25-1.009,2.25-2.25S7.24,13.5,5.999,13.5c-1.233,0-2.239,1-2.25,2.231C3.75,15.737,3.75,15.744,3.75,15.75z"/>
	<path d="M10.243,24c-0.318,0-0.602-0.201-0.707-0.5c-0.379-1.076-1.214-1.911-2.29-2.29c-0.406-0.143-0.826-0.216-1.25-0.216
		c-0.56,0-1.104,0.124-1.616,0.37c-0.903,0.432-1.584,1.191-1.917,2.136C2.357,23.799,2.073,24,1.755,24
		c-0.084,0-0.168-0.014-0.248-0.042c-0.19-0.067-0.342-0.203-0.428-0.384C0.992,23.393,0.981,23.189,1.048,23
		c0.466-1.323,1.42-2.384,2.684-2.99c0.717-0.343,1.479-0.517,2.263-0.517c0.594,0,1.182,0.101,1.749,0.301
		c1.506,0.531,2.675,1.7,3.206,3.206c0.138,0.39-0.068,0.819-0.458,0.957C10.412,23.986,10.328,24,10.243,24z"/>
	<path d="M23.25,20.25c-0.673,0-1.842-0.263-2.516-1.922c-0.248,0.262-0.534,0.489-0.848,0.671
		c-0.572,0.332-1.222,0.507-1.881,0.507c-0.916,0-1.799-0.335-2.487-0.944c-0.309-0.274-0.338-0.749-0.064-1.059
		c0.143-0.161,0.347-0.253,0.562-0.253c0.183,0,0.36,0.067,0.497,0.188c0.413,0.366,0.943,0.567,1.492,0.567
		c0.395,0,0.786-0.105,1.129-0.304c0.52-0.301,0.891-0.787,1.046-1.368c0.042-0.16,0.067-0.332,0.073-0.51L20.25,15.75
		c0-0.011,0.001-0.031,0.003-0.049c-0.009-0.377-0.113-0.749-0.302-1.075c-0.207-0.357-0.085-0.817,0.273-1.025
		c0.115-0.066,0.244-0.101,0.376-0.101c0.267,0,0.516,0.143,0.649,0.374c0.342,0.589,0.515,1.262,0.502,1.946
		c0.009,0.284,0.125,2.93,1.499,2.93c0.414,0,0.75,0.336,0.75,0.75S23.664,20.25,23.25,20.25z"/>
	<path d="M22.243,24c-0.317,0-0.602-0.201-0.707-0.5c-0.379-1.076-1.214-1.911-2.29-2.29c-0.402-0.142-0.82-0.214-1.243-0.214
		c-1.59,0-3.013,1.006-3.541,2.503c-0.106,0.299-0.391,0.5-0.708,0.5c-0.084,0-0.167-0.014-0.247-0.042
		c-0.392-0.138-0.597-0.567-0.46-0.958c0.739-2.096,2.731-3.505,4.956-3.505c0.593,0,1.178,0.101,1.741,0.299
		c1.506,0.531,2.675,1.7,3.206,3.206c0.066,0.189,0.056,0.393-0.031,0.573c-0.086,0.181-0.238,0.317-0.427,0.384
		C22.411,23.986,22.328,24,22.243,24z"/>
</g>
</svg>
