<?xml version="1.0" encoding="utf-8"?>
<!-- Generator: Adobe Illustrator 22.1.0, SVG Export Plug-In . SVG Version: 6.00 Build 0)  -->
<svg version="1.1" id="Layer_1" xmlns="http://www.w3.org/2000/svg" xmlns:xlink="http://www.w3.org/1999/xlink" x="0px" y="0px"
	 viewBox="0 0 24 24" style="enable-background:new 0 0 24 24;" xml:space="preserve">
<title>team-meeting-flash</title>
<g>
	<path d="M4.499,9c-2.068,0-3.75-1.682-3.75-3.75S2.431,1.5,4.499,1.5s3.75,1.682,3.75,3.75S6.567,9,4.499,9z M4.499,3
		c-1.241,0-2.25,1.009-2.25,2.25S3.258,7.5,4.499,7.5s2.25-1.009,2.25-2.25S5.74,3,4.499,3z"/>
	<path d="M2.999,22.5c-0.377,0-0.697-0.282-0.744-0.657L1.587,16.5H0.749c-0.414,0-0.75-0.336-0.75-0.75V13.5
		c0-0.543,0.098-1.076,0.289-1.584c0.424-1.126,1.261-2.019,2.357-2.515C3.236,9.133,3.86,8.998,4.5,8.998
		c0.541,0,1.076,0.098,1.589,0.291c0.188,0.071,0.336,0.21,0.419,0.393s0.089,0.386,0.019,0.574c-0.11,0.29-0.392,0.485-0.702,0.485
		c-0.09,0-0.178-0.016-0.263-0.048C5.221,10.565,4.866,10.5,4.506,10.5c-1.245,0-2.376,0.781-2.814,1.944
		c-0.128,0.339-0.193,0.695-0.193,1.056V15h0.75c0.377,0,0.697,0.282,0.744,0.657L3.661,21h1.677l0.668-5.343
		C6.053,15.282,6.373,15,6.75,15h1.5C8.664,15,9,15.336,9,15.75S8.664,16.5,8.25,16.5H7.412l-0.668,5.343
		C6.697,22.218,6.377,22.5,6,22.5H2.999z"/>
	<path d="M19.499,9c-2.068,0-3.75-1.682-3.75-3.75s1.682-3.75,3.75-3.75s3.75,1.682,3.75,3.75S21.567,9,19.499,9z M19.499,3
		c-1.241,0-2.25,1.009-2.25,2.25s1.009,2.25,2.25,2.25s2.25-1.009,2.25-2.25S20.74,3,19.499,3z"/>
	<path d="M18,22.5c-0.377,0-0.697-0.282-0.744-0.657L16.588,16.5H15.75c-0.414,0-0.75-0.336-0.75-0.75S15.336,15,15.75,15h1.5
		c0.377,0,0.697,0.282,0.744,0.657L18.662,21h1.675l0.668-5.343C21.052,15.282,21.372,15,21.749,15h0.75v-1.5c0-1.654-1.346-3-3-3
		c-0.135,0.001-0.266,0.009-0.386,0.024c-0.032,0.004-0.063,0.006-0.094,0.006c-0.377,0-0.697-0.282-0.744-0.655
		c-0.052-0.411,0.24-0.787,0.65-0.839C19.114,9.012,19.306,9,19.496,9c2.484,0,4.503,2.019,4.503,4.5v2.25
		c0,0.414-0.336,0.75-0.75,0.75h-0.838l-0.668,5.343c-0.047,0.374-0.367,0.657-0.744,0.657H18z"/>
	<path d="M11.029,17.25c-0.099,0-0.196-0.019-0.287-0.057c-0.281-0.117-0.463-0.389-0.463-0.693v-3.75H8.935
		c-0.301,0-0.583-0.117-0.795-0.328c-0.439-0.439-0.44-1.153-0.002-1.591l5.36-5.36c0.142-0.142,0.33-0.22,0.531-0.22
		c0.099,0,0.196,0.019,0.287,0.057C14.597,5.423,14.779,5.695,14.779,6v3.75h1.345c0.3,0,0.582,0.117,0.794,0.328
		c0.213,0.213,0.33,0.495,0.331,0.796c0,0.301-0.117,0.584-0.329,0.796l-5.36,5.36C11.418,17.172,11.229,17.25,11.029,17.25z
		 M11.029,11.25c0.414,0,0.75,0.336,0.75,0.75v2.689l3.439-3.44l-1.189,0c-0.414,0-0.75-0.336-0.75-0.75V7.811L9.84,11.25
		L11.029,11.25z"/>
</g>
</svg>
