<?xml version="1.0" encoding="utf-8"?>
<!-- Generator: Adobe Illustrator 22.1.0, SVG Export Plug-In . SVG Version: 6.00 Build 0)  -->
<svg version="1.1" id="Regular" xmlns="http://www.w3.org/2000/svg" xmlns:xlink="http://www.w3.org/1999/xlink" x="0px" y="0px"
	 viewBox="0 0 24 24" style="enable-background:new 0 0 24 24;" xml:space="preserve">
<title>technology-chip-hold</title>
<g>
	<path d="M6.75,16.5C6.336,16.5,6,16.164,6,15.75V15H4.5v0.75c0,0.414-0.336,0.75-0.75,0.75S3,16.164,3,15.75v-0.768
		c-0.765-0.11-1.372-0.717-1.482-1.482H0.75C0.336,13.5,0,13.164,0,12.75S0.336,12,0.75,12H1.5v-1.5H0.75
		C0.336,10.5,0,10.164,0,9.75S0.336,9,0.75,9h0.768C1.628,8.235,2.235,7.628,3,7.518V6.75C3,6.336,3.336,6,3.75,6
		S4.5,6.336,4.5,6.75V7.5H6V6.75C6,6.336,6.336,6,6.75,6S7.5,6.336,7.5,6.75v0.768C8.265,7.628,8.872,8.235,8.982,9H9.75
		c0.414,0,0.75,0.336,0.75,0.75s-0.336,0.75-0.75,0.75H9V12h0.75c0.414,0,0.75,0.336,0.75,0.75s-0.336,0.75-0.75,0.75H8.982
		c-0.11,0.765-0.717,1.372-1.482,1.482v0.768C7.5,16.164,7.164,16.5,6.75,16.5z M3.25,9C3.112,9,3,9.112,3,9.25v4
		c0,0.138,0.112,0.25,0.25,0.25h4c0.138,0,0.25-0.112,0.25-0.25v-4C7.5,9.112,7.388,9,7.25,9H3.25z"/>
	<path d="M23.25,24c-0.414,0-0.75-0.336-0.75-0.75V9c0-3.217-2.544-5.85-5.726-5.994c1.74,1.81,2.723,4.219,2.726,6.743
		c0,0.413-0.335,0.75-0.749,0.751C18.337,10.5,18,10.164,18,9.751C17.995,5.206,14.293,1.505,9.749,1.5H4.5C3.673,1.5,3,2.173,3,3
		s0.673,1.5,1.5,1.5h2.25c4.549,0,8.25,3.701,8.25,8.25C15,15.645,12.645,18,9.75,18h-3c-0.827,0-1.5,0.673-1.5,1.5
		S5.923,21,6.75,21h3c1.241,0,2.25,1.009,2.25,2.25c0,0.414-0.336,0.75-0.75,0.75s-0.75-0.336-0.75-0.75s-0.336-0.75-0.75-0.75h-3
		c-1.654,0-3-1.346-3-3s1.346-3,3-3h3c2.068,0,3.75-1.682,3.75-3.75C13.5,9.028,10.472,6,6.75,6H4.5c-1.654,0-3-1.346-3-3
		s1.346-3,3-3h5.25c1.836,0.002,3.623,0.52,5.177,1.5H16.5C20.635,1.5,24,4.865,24,9v14.25C24,23.664,23.664,24,23.25,24z"/>
</g>
</svg>
