<?xml version="1.0" encoding="utf-8"?>
<!-- Generator: Adobe Illustrator 22.1.0, SVG Export Plug-In . SVG Version: 6.00 Build 0)  -->
<svg version="1.1" id="Regular" xmlns="http://www.w3.org/2000/svg" xmlns:xlink="http://www.w3.org/1999/xlink" x="0px" y="0px"
	 viewBox="0 0 24 24" style="enable-background:new 0 0 24 24;" xml:space="preserve">
<title>technology-pill</title>
<g>
	<path d="M13.23,23.904c-1.246,0-2.446-0.521-3.293-1.43c-1.603-1.72-1.603-4.415,0-6.135l3.152-3.153
		c0.012-0.016,0.026-0.034,0.044-0.052c0.013-0.013,0.03-0.027,0.048-0.041l3.138-3.138c0.804-0.864,1.914-1.368,3.115-1.411
		c0.054-0.002,0.109-0.003,0.164-0.003c1.139,0,2.227,0.429,3.063,1.208c1.815,1.692,1.916,4.545,0.225,6.36
		c-0.072,0.077-0.147,0.152-0.225,0.225c0,0-6.361,6.361-6.364,6.364C15.461,23.476,14.372,23.904,13.23,23.904z M11.015,17.379
		c-1.054,1.132-1.05,2.925,0.019,4.072c0.564,0.606,1.365,0.953,2.196,0.953c0.76,0,1.485-0.284,2.04-0.8l2.637-2.637l-4.24-4.24
		L11.015,17.379z M18.967,17.907l2.652-2.652c0.069-0.065,0.12-0.116,0.169-0.168c1.127-1.21,1.061-3.112-0.15-4.24
		c-0.557-0.519-1.282-0.805-2.042-0.805c-0.036,0-0.073,0.001-0.11,0.002c-0.8,0.028-1.542,0.367-2.088,0.953l-2.67,2.671
		L18.967,17.907z"/>
	<path d="M8.997,13.497c-0.414,0-0.75-0.336-0.75-0.75v-1.5h-3v1.5c0,0.414-0.336,0.75-0.75,0.75s-0.75-0.336-0.75-0.75v-1.518
		c-0.765-0.11-1.372-0.717-1.482-1.482H0.747c-0.414,0-0.75-0.336-0.75-0.75s0.336-0.75,0.75-0.75h1.5v-3h-1.5
		c-0.414,0-0.75-0.336-0.75-0.75s0.336-0.75,0.75-0.75h1.518c0.11-0.765,0.717-1.372,1.482-1.482V0.747
		c0-0.414,0.336-0.75,0.75-0.75s0.75,0.336,0.75,0.75v1.5h3v-1.5c0-0.414,0.336-0.75,0.75-0.75s0.75,0.336,0.75,0.75v1.518
		c0.765,0.11,1.372,0.717,1.482,1.482h1.518c0.414,0,0.75,0.336,0.75,0.75s-0.336,0.75-0.75,0.75h-1.5v3h1.5
		c0.414,0,0.75,0.336,0.75,0.75s-0.336,0.75-0.75,0.75h-1.518c-0.11,0.765-0.717,1.372-1.482,1.482v1.518
		C9.747,13.161,9.41,13.497,8.997,13.497z M3.997,3.747c-0.138,0-0.25,0.112-0.25,0.25v5.5c0,0.138,0.112,0.25,0.25,0.25h5.5
		c0.138,0,0.25-0.112,0.25-0.25v-5.5c0-0.138-0.112-0.25-0.25-0.25H3.997z"/>
</g>
</svg>
