<?xml version="1.0" encoding="utf-8"?>
<!-- Generator: Adobe Illustrator 22.1.0, SVG Export Plug-In . SVG Version: 6.00 Build 0)  -->
<svg version="1.1" id="Regular" xmlns="http://www.w3.org/2000/svg" xmlns:xlink="http://www.w3.org/1999/xlink" x="0px" y="0px"
	 viewBox="0 0 24 24" style="enable-background:new 0 0 24 24;" xml:space="preserve">
<title>temperature-celsius-low</title>
<g>
	<path d="M3,19.5c-0.088,0-0.175-0.016-0.26-0.047c-0.008-0.003-0.015-0.005-0.022-0.008c-0.096-0.039-0.179-0.094-0.249-0.165
		L0.22,17.03c-0.292-0.292-0.292-0.768,0-1.061c0.142-0.142,0.33-0.22,0.53-0.22s0.389,0.078,0.53,0.22l0.97,0.97V6
		c0-0.414,0.336-0.75,0.75-0.75S3.75,5.586,3.75,6v10.939l0.97-0.97c0.142-0.142,0.33-0.22,0.53-0.22s0.389,0.078,0.53,0.22
		c0.292,0.292,0.292,0.768,0,1.061l-2.25,2.25c-0.07,0.07-0.153,0.125-0.246,0.164c-0.008,0.003-0.017,0.007-0.026,0.01
		C3.173,19.485,3.087,19.5,3,19.5z"/>
	<path d="M0.75,21C0.336,21,0,20.664,0,20.25s0.336-0.75,0.75-0.75h4.5C5.664,19.5,6,19.836,6,20.25S5.664,21,5.25,21H0.75z"/>
	<path d="M15,21c-4.963,0-9-4.037-9-9s4.037-9,9-9s9,4.037,9,9S19.963,21,15,21z M15,4.5c-4.135,0-7.5,3.365-7.5,7.5
		s3.365,7.5,7.5,7.5s7.5-3.365,7.5-7.5S19.135,4.5,15,4.5z"/>
	<path d="M11.625,9.75c-0.044,0-0.088-0.004-0.131-0.012c-0.513-0.06-0.922-0.47-0.982-0.982C10.504,8.713,10.5,8.669,10.5,8.625
		s0.004-0.088,0.012-0.131c0.06-0.513,0.47-0.922,0.982-0.982C11.537,7.504,11.581,7.5,11.625,7.5s0.088,0.004,0.131,0.012
		c0.513,0.061,0.922,0.47,0.983,0.983c0.007,0.042,0.011,0.086,0.011,0.13s-0.004,0.088-0.011,0.13
		c-0.061,0.513-0.47,0.922-0.983,0.983C11.713,9.746,11.669,9.75,11.625,9.75z"/>
	<path d="M17.25,17.25c-2.068,0-3.75-1.682-3.75-3.75V12c0-2.068,1.682-3.75,3.75-3.75C17.664,8.25,18,8.586,18,9
		s-0.336,0.75-0.75,0.75C16.009,9.75,15,10.759,15,12v1.5c0,1.241,1.009,2.25,2.25,2.25c0.414,0,0.75,0.336,0.75,0.75
		S17.664,17.25,17.25,17.25z"/>
</g>
</svg>
