<?xml version="1.0" encoding="utf-8"?>
<!-- Generator: Adobe Illustrator 22.1.0, SVG Export Plug-In . SVG Version: 6.00 Build 0)  -->
<svg version="1.1" id="Regular" xmlns="http://www.w3.org/2000/svg" xmlns:xlink="http://www.w3.org/1999/xlink" x="0px" y="0px"
	 viewBox="0 0 24 24" style="enable-background:new 0 0 24 24;" xml:space="preserve">
<title>temperature-celsius-fahrenheit-convert</title>
<g>
	<path d="M8.25,23.25c-0.2,0-0.389-0.078-0.53-0.22c-0.292-0.292-0.292-0.768,0-1.061L8.689,21H6.75C4.682,21,3,19.318,3,17.25V13.5
		c0-0.414,0.336-0.75,0.75-0.75S4.5,13.086,4.5,13.5v3.75c0,1.241,1.009,2.25,2.25,2.25h1.939l-0.97-0.97
		c-0.292-0.292-0.292-0.768,0-1.061c0.142-0.142,0.33-0.22,0.53-0.22s0.389,0.078,0.53,0.22l2.25,2.25
		c0.07,0.07,0.125,0.153,0.163,0.245c0.003,0.007,0.006,0.016,0.009,0.024c0.031,0.081,0.048,0.171,0.048,0.261
		c0,0.089-0.016,0.176-0.048,0.261c-0.004,0.011-0.008,0.022-0.012,0.032c-0.035,0.085-0.09,0.167-0.16,0.238l-2.25,2.25
		C8.639,23.172,8.45,23.25,8.25,23.25z"/>
	<path d="M21,11.25c-0.414,0-0.75-0.336-0.75-0.75V6.673c-0.004-0.582-0.237-1.13-0.655-1.542c-0.413-0.407-0.96-0.631-1.54-0.631
		l-1.981,0l0.959,0.974c0.141,0.142,0.217,0.331,0.216,0.532c-0.001,0.2-0.081,0.388-0.224,0.529
		C16.885,6.673,16.698,6.75,16.5,6.75c-0.202,0-0.392-0.079-0.534-0.223c0,0-2.226-2.26-2.231-2.266
		c-0.062-0.067-0.112-0.144-0.146-0.228c-0.003-0.007-0.006-0.016-0.009-0.025c-0.031-0.084-0.047-0.171-0.047-0.258
		c0-0.087,0.016-0.174,0.046-0.257c0.001-0.003,0.002-0.006,0.003-0.009c0.04-0.099,0.089-0.176,0.15-0.242
		c0.006-0.007,0.012-0.013,0.018-0.02l2.215-2.248C16.108,0.829,16.298,0.75,16.5,0.75c0.198,0,0.385,0.077,0.526,0.216
		c0.143,0.14,0.222,0.328,0.223,0.528c0.001,0.201-0.075,0.39-0.216,0.532L16.075,3l1.983,0c0.974,0,1.894,0.377,2.59,1.063
		c0.703,0.693,1.094,1.618,1.102,2.604V10.5C21.75,10.914,21.414,11.25,21,11.25z"/>
	<path d="M15.75,16.5c-1.241,0-2.25-1.009-2.25-2.25S14.509,12,15.75,12S18,13.009,18,14.25S16.991,16.5,15.75,16.5z M15.75,13.5
		c-0.414,0-0.75,0.336-0.75,0.75S15.336,15,15.75,15s0.75-0.336,0.75-0.75S16.164,13.5,15.75,13.5z"/>
	<path d="M20.25,24c-0.414,0-0.75-0.336-0.75-0.75v-6c0-1.241,1.009-2.25,2.25-2.25h1.5c0.414,0,0.75,0.336,0.75,0.75
		s-0.336,0.75-0.75,0.75h-1.5c-0.414,0-0.75,0.336-0.75,0.75v2.25h1.5c0.414,0,0.75,0.336,0.75,0.75S22.914,21,22.5,21H21v2.25
		C21,23.664,20.664,24,20.25,24z"/>
	<path d="M2.25,4.5C1.009,4.5,0,3.491,0,2.25S1.009,0,2.25,0S4.5,1.009,4.5,2.25S3.491,4.5,2.25,4.5z M2.25,1.5
		C1.836,1.5,1.5,1.836,1.5,2.25S1.836,3,2.25,3S3,2.664,3,2.25S2.664,1.5,2.25,1.5z"/>
	<path d="M9,10.5c-2.068,0-3.75-1.682-3.75-3.75v-1.5C5.25,3.182,6.932,1.5,9,1.5c0.414,0,0.75,0.336,0.75,0.75S9.414,3,9,3
		C7.759,3,6.75,4.009,6.75,5.25v1.5C6.75,7.991,7.759,9,9,9c0.414,0,0.75,0.336,0.75,0.75S9.414,10.5,9,10.5z"/>
</g>
</svg>
