<?xml version="1.0" encoding="utf-8"?>
<!-- Generator: Adobe Illustrator 22.1.0, SVG Export Plug-In . SVG Version: 6.00 Build 0)  -->
<svg version="1.1" id="Regular" xmlns="http://www.w3.org/2000/svg" xmlns:xlink="http://www.w3.org/1999/xlink" x="0px" y="0px"
	 viewBox="0 0 24 24" style="enable-background:new 0 0 24 24;" xml:space="preserve">
<title>temperature-thermometer-plus</title>
<g>
	<path d="M17.25,13.5c-3.722,0-6.75-3.028-6.75-6.75S13.528,0,17.25,0S24,3.028,24,6.75S20.972,13.5,17.25,13.5z M17.25,1.5
		C14.355,1.5,12,3.855,12,6.75S14.355,12,17.25,12c2.895,0,5.25-2.355,5.25-5.25S20.145,1.5,17.25,1.5z"/>
	<path d="M17.25,10.5c-0.414,0-0.75-0.336-0.75-0.75V7.5h-2.25c-0.414,0-0.75-0.336-0.75-0.75S13.836,6,14.25,6h2.25V3.75
		C16.5,3.337,16.836,3,17.25,3S18,3.337,18,3.75V6h2.25C20.664,6,21,6.337,21,6.75S20.664,7.5,20.25,7.5H18v2.25
		C18,10.164,17.664,10.5,17.25,10.5z"/>
	<path d="M5.263,24c-0.093,0-0.186-0.002-0.279-0.007c-1.399-0.073-2.685-0.687-3.623-1.727c-0.937-1.041-1.413-2.384-1.34-3.782
		c0.067-1.278,0.59-2.473,1.479-3.384V3.75C1.5,1.682,3.182,0,5.25,0S9,1.682,9,3.75v11.347c0.952,0.969,1.497,2.291,1.5,3.652
		c0.002,1.486-0.63,2.909-1.734,3.903C7.801,23.521,6.557,24,5.263,24z M5.25,1.5C4.009,1.5,3,2.51,3,3.75v11.668
		c0,0.212-0.09,0.416-0.248,0.557c-1.533,1.381-1.657,3.753-0.276,5.286c0.669,0.743,1.587,1.181,2.586,1.233
		c0.062,0.003,0.125,0.005,0.188,0.005c0.932,0,1.824-0.342,2.513-0.961c0.788-0.71,1.24-1.726,1.238-2.787
		c-0.002-1.058-0.457-2.069-1.248-2.772C7.591,15.836,7.5,15.632,7.5,15.418V3.75C7.5,2.51,6.491,1.5,5.25,1.5z"/>
	<path d="M5.25,21C4.009,21,3,19.991,3,18.75c0-0.96,0.615-1.808,1.5-2.121V5.25c0-0.414,0.336-0.75,0.75-0.75S6,4.837,6,5.25
		v11.379c0.885,0.313,1.5,1.161,1.5,2.121C7.5,19.991,6.491,21,5.25,21z M5.25,18c-0.414,0-0.75,0.336-0.75,0.75
		s0.336,0.75,0.75,0.75S6,19.164,6,18.75S5.663,18,5.25,18z"/>
</g>
</svg>
