<?xml version="1.0" encoding="utf-8"?>
<!-- Generator: Adobe Illustrator 22.1.0, SVG Export Plug-In . SVG Version: 6.00 Build 0)  -->
<svg version="1.1" id="Regular" xmlns="http://www.w3.org/2000/svg" xmlns:xlink="http://www.w3.org/1999/xlink" x="0px" y="0px"
	 viewBox="0 0 24 24" style="enable-background:new 0 0 24 24;" xml:space="preserve">
<title>tennis-racquet</title>
<g>
	<path d="M2.251,23.998c-0.602,0-1.167-0.234-1.591-0.658c-0.877-0.877-0.877-2.305,0-3.183l3.494-3.49
		c0.142-0.141,0.33-0.219,0.53-0.219c0.2,0,0.389,0.078,0.53,0.22l0.529,0.529l1.83-1.83l1.329-5.486
		C8.596,8.21,8.892,6.402,9.739,4.782c0,0,0.005-0.009,0.007-0.014c0.421-0.802,0.964-1.538,1.613-2.188
		c0.649-0.649,1.385-1.192,2.187-1.613c0.005-0.002,0.014-0.007,0.014-0.007c1.197-0.625,2.508-0.956,3.793-0.956
		c0.951,0,1.857,0.177,2.694,0.525c0.005,0.002,0.028,0.012,0.033,0.014c0.759,0.32,1.441,0.777,2.02,1.357
		c1.358,1.358,2.027,3.234,1.883,5.282c-0.141,2.009-1.051,3.947-2.563,5.459c-0.65,0.65-1.389,1.194-2.195,1.617
		c-0.003,0.001-0.006,0.003-0.009,0.004c-1.198,0.626-2.509,0.957-3.791,0.957c-0.439,0-0.879-0.04-1.31-0.119l-5.484,1.328
		l-1.83,1.83l0.529,0.529c0.142,0.142,0.22,0.33,0.22,0.53c0,0.2-0.078,0.389-0.22,0.531l-3.489,3.492
		C3.419,23.764,2.853,23.998,2.251,23.998z M1.72,21.218c-0.292,0.292-0.292,0.769,0,1.061c0.141,0.141,0.33,0.219,0.531,0.219
		c0.201,0,0.389-0.078,0.531-0.219l2.959-2.962l-1.058-1.058L1.72,21.218z M9.27,14.73l2.422-0.586
		c-0.365-0.238-0.703-0.513-1.012-0.822c-0.309-0.309-0.584-0.648-0.823-1.015L9.27,14.73z M14.427,13.633
		c0.325,0.057,0.659,0.086,1,0.086c0.719,0,1.461-0.132,2.174-0.384l-1.438-1.438L14.427,13.633z M10.911,11.149
		c0.223,0.41,0.501,0.783,0.829,1.111c0.328,0.328,0.7,0.605,1.11,0.828l2.252-2.252l-1.939-1.939L10.911,11.149z M19.03,12.644
		c0.477-0.3,0.923-0.657,1.33-1.063c0.406-0.406,0.763-0.852,1.063-1.328l-1.807-1.808l-2.393,2.392L19.03,12.644z M16.163,9.776
		l2.393-2.392l-1.939-1.939l-2.393,2.392L16.163,9.776z M10.665,6.4c-0.376,1.058-0.478,2.152-0.298,3.172l1.735-1.735L10.665,6.4z
		 M22.118,8.825c0.204-0.572,0.328-1.158,0.369-1.748c0.034-0.492,0.01-0.971-0.071-1.433l-1.74,1.739L22.118,8.825z M13.163,6.776
		l2.393-2.392L13.751,2.58c-0.481,0.302-0.928,0.658-1.331,1.061c-0.406,0.406-0.763,0.852-1.063,1.33L13.163,6.776z M19.616,6.323
		L21.87,4.07c-0.223-0.408-0.501-0.78-0.83-1.108c-0.324-0.324-0.698-0.601-1.115-0.826l-2.249,2.249L19.616,6.323z M16.616,3.323
		l1.734-1.734c-0.327-0.059-0.661-0.088-0.997-0.088c-0.717,0-1.459,0.132-2.174,0.385L16.616,3.323z"/>
	<path d="M3.751,7.499c-2.068,0-3.75-1.682-3.75-3.75s1.682-3.75,3.75-3.75s3.75,1.682,3.75,3.75S5.819,7.499,3.751,7.499z
		 M3.751,1.499c-1.241,0-2.25,1.009-2.25,2.25s1.009,2.25,2.25,2.25s2.25-1.009,2.25-2.25S4.992,1.499,3.751,1.499z"/>
</g>
</svg>
