<?xml version="1.0" encoding="utf-8"?>
<!-- Generator: Adobe Illustrator 22.1.0, SVG Export Plug-In . SVG Version: 6.00 Build 0)  -->
<svg version="1.1" id="Regular" xmlns="http://www.w3.org/2000/svg" xmlns:xlink="http://www.w3.org/1999/xlink" x="0px" y="0px"
	 viewBox="0 0 24 24" style="enable-background:new 0 0 24 24;" xml:space="preserve">
<title>tennis-player</title>
<g>
	<path d="M14.25,7.122c-1.861,0-3.375-1.514-3.375-3.375s1.514-3.375,3.375-3.375s3.375,1.514,3.375,3.375S16.111,7.122,14.25,7.122
		z M14.25,1.872c-1.034,0-1.875,0.841-1.875,1.875s0.841,1.875,1.875,1.875s1.875-0.841,1.875-1.875S15.284,1.872,14.25,1.872z"/>
	<path d="M18.76,24.009c-0.796,0-1.541-0.426-1.943-1.11l-2.246-3.744c-0.211-0.349-0.322-0.75-0.321-1.159v-0.186l-0.75,0.562
		v3.375c0,1.241-1.01,2.25-2.25,2.25S9,22.987,9,21.747v-3.75c0.002-1.174,0.562-2.295,1.499-3L12,13.872v-0.696
		c-0.269,0.042-0.54,0.063-0.812,0.063c-0.668,0-1.323-0.125-1.946-0.373l-2.577-1.031c-1.152-0.46-1.715-1.772-1.254-2.924
		c0.034-0.085,0.074-0.169,0.12-0.252L4.524,7.115C4.256,7.212,3.972,7.26,3.678,7.26c-1.289,0-2.596-0.953-3.252-2.37
		C0.022,4.016-0.101,3.067,0.08,2.217c0.198-0.929,0.728-1.636,1.493-1.99C1.905,0.074,2.26-0.004,2.63-0.004
		c0.478,0,0.958,0.128,1.427,0.38c0.766,0.412,1.41,1.12,1.814,1.994C6.49,3.707,6.42,5.203,5.716,6.196l0.953,1.463
		c0.266-0.106,0.55-0.161,0.837-0.161c0.284,0,0.563,0.054,0.829,0.16l2.575,1.03c0.087,0.034,0.181,0.052,0.279,0.052
		c0.107,0,0.214-0.022,0.31-0.064l4.142-1.842c0.759-0.335,1.602-0.512,2.44-0.512c0.769,0,1.517,0.142,2.223,0.422l2.282,0.914
		c0.557,0.223,0.995,0.65,1.232,1.203c0.237,0.553,0.245,1.164,0.022,1.722c-0.343,0.86-1.164,1.415-2.091,1.415c0,0,0,0,0,0
		c-0.286,0-0.566-0.054-0.833-0.161L18.75,10.97v6.403l1.944,3.241c0.631,1.074,0.272,2.457-0.798,3.086
		C19.552,23.902,19.159,24.009,18.76,24.009L18.76,24.009z M15,15.56c0.116,0,0.233,0.028,0.336,0.079
		c0.255,0.128,0.414,0.385,0.414,0.671v1.687c0,0.136,0.037,0.269,0.106,0.385l2.251,3.752c0.137,0.233,0.386,0.376,0.653,0.376
		c0.132,0,0.263-0.035,0.377-0.103c0.356-0.209,0.476-0.67,0.267-1.027c-0.002-0.004-0.007-0.011-0.011-0.019l-2.036-3.394
		c-0.07-0.117-0.107-0.25-0.107-0.386v-7.512c0-0.405,0.317-0.734,0.722-0.75c0.038-0.001,0.075-0.002,0.112-0.002
		c0.38,0,0.753,0.072,1.106,0.213l2.281,0.913c0.089,0.036,0.183,0.054,0.278,0.054c0.101,0,0.201-0.021,0.296-0.061
		c0.184-0.079,0.326-0.225,0.401-0.411c0.153-0.384-0.034-0.821-0.418-0.974l-2.281-0.913c-0.528-0.21-1.089-0.316-1.667-0.316
		c-0.63,0-1.263,0.133-1.832,0.384l-4.143,1.842c-0.286,0.126-0.602,0.192-0.916,0.192c-0.288,0-0.568-0.053-0.833-0.158L7.777,9.05
		c-0.09-0.036-0.183-0.054-0.278-0.054c-0.101,0-0.201,0.021-0.296,0.062C7.02,9.136,6.877,9.282,6.803,9.468
		c-0.074,0.186-0.072,0.39,0.008,0.574c0.079,0.184,0.225,0.327,0.411,0.401l2.575,1.03c0.444,0.176,0.913,0.266,1.391,0.266
		c0.446,0,0.884-0.078,1.304-0.232c0.083-0.031,0.17-0.046,0.259-0.046c0.154,0,0.303,0.047,0.429,0.135
		c0.201,0.14,0.321,0.37,0.321,0.615v2.036c0,0.235-0.112,0.459-0.3,0.6l-1.8,1.349c-0.562,0.423-0.899,1.097-0.9,1.802v3.749
		c0,0.414,0.336,0.75,0.75,0.75S12,22.16,12,21.747v-3.75c0-0.235,0.112-0.459,0.3-0.6l2.25-1.687
		C14.679,15.613,14.839,15.56,15,15.56z M2.629,1.497c-0.152,0-0.295,0.031-0.426,0.091C1.878,1.739,1.645,2.073,1.547,2.53
		c-0.114,0.535-0.029,1.15,0.24,1.731c0.41,0.886,1.181,1.504,1.876,1.504c0.153,0,0.298-0.031,0.431-0.092
		C4.832,5.33,5.022,4.107,4.51,3C4.241,2.419,3.828,1.956,3.346,1.697C3.103,1.566,2.855,1.497,2.629,1.497z"/>
	<path d="M2.25,15.747c-1.241,0-2.25-1.009-2.25-2.25s1.009-2.25,2.25-2.25s2.25,1.009,2.25,2.25S3.491,15.747,2.25,15.747z
		 M2.25,12.747c-0.414,0-0.75,0.336-0.75,0.75s0.336,0.75,0.75,0.75S3,13.91,3,13.497S2.664,12.747,2.25,12.747z"/>
</g>
</svg>
