<?xml version="1.0" encoding="utf-8"?>
<!-- Generator: Adobe Illustrator 22.1.0, SVG Export Plug-In . SVG Version: 6.00 Build 0)  -->
<svg version="1.1" id="Regular" xmlns="http://www.w3.org/2000/svg" xmlns:xlink="http://www.w3.org/1999/xlink" x="0px" y="0px"
	 viewBox="0 0 24 24" style="enable-background:new 0 0 24 24;" xml:space="preserve">
<title>tennis-forehand</title>
<g>
	<path d="M10.501,6.75c-1.861,0-3.375-1.514-3.375-3.375S8.64,0,10.501,0c1.861,0,3.375,1.514,3.375,3.375S12.363,6.75,10.501,6.75z
		 M10.501,1.5c-1.034,0-1.875,0.841-1.875,1.875S9.468,5.25,10.501,5.25s1.875-0.841,1.875-1.875S11.535,1.5,10.501,1.5z"/>
	<path d="M20.251,11.25c-2.068,0-3.75-1.682-3.75-3.75s1.682-3.75,3.75-3.75s3.75,1.682,3.75,3.75S22.319,11.25,20.251,11.25z
		 M20.251,5.25c-1.241,0-2.25,1.009-2.25,2.25s1.009,2.25,2.25,2.25s2.25-1.009,2.25-2.25S21.492,5.25,20.251,5.25z"/>
	<path d="M2.256,24.001c-0.108,0-0.217-0.008-0.324-0.023C1.336,23.893,0.81,23.581,0.45,23.1c-0.744-0.993-0.541-2.406,0.452-3.15
		l2.1-1.575V15c0-0.364,0.089-0.727,0.259-1.049l3.181-6.039c0.296-0.532,0.775-0.911,1.353-1.076
		C7.997,6.779,8.205,6.75,8.414,6.75c0.379,0,0.757,0.099,1.091,0.285l8.091,4.5c0.525,0.292,0.905,0.772,1.07,1.35
		c0.165,0.578,0.094,1.186-0.198,1.711c-0.292,0.525-0.771,0.905-1.35,1.07c-0.203,0.058-0.411,0.087-0.62,0.087c0,0,0,0,0,0
		c-0.379,0-0.757-0.098-1.091-0.285l-6.078-3.381l-0.804,1.526l2.472,1.274c1.094,0.564,1.841,1.629,2,2.849l0.488,3.718
		c0.078,0.596-0.08,1.186-0.447,1.663c-0.366,0.476-0.896,0.782-1.492,0.86c-0.092,0.012-0.19,0.019-0.297,0.02
		c-1.123,0-2.08-0.839-2.23-1.95l-0.438-3.336l-1.081-0.56V19.5c0,0.704-0.336,1.377-0.9,1.8c0,0-3.012,2.26-3.027,2.27
		C3.2,23.848,2.732,24.001,2.256,24.001z M8.413,8.25c-0.069,0-0.139,0.01-0.207,0.029c-0.193,0.055-0.352,0.182-0.45,0.357
		L4.588,14.65C4.531,14.758,4.501,14.879,4.501,15v3.75c0,0.235-0.112,0.459-0.3,0.6l-2.4,1.8c-0.331,0.248-0.399,0.719-0.151,1.05
		c0.12,0.16,0.296,0.264,0.494,0.293c0.035,0.005,0.071,0.007,0.107,0.007c0.161,0,0.315-0.051,0.445-0.147L5.702,20.1
		c0.188-0.141,0.3-0.365,0.3-0.6v-2.583c0-0.26,0.138-0.505,0.36-0.641c0.117-0.072,0.252-0.11,0.39-0.11
		c0.12,0,0.239,0.029,0.345,0.084l2.524,1.306c0.218,0.113,0.367,0.325,0.399,0.568l0.489,3.722c0.05,0.369,0.369,0.647,0.743,0.648
		c0.031,0,0.066-0.002,0.099-0.006c0.2-0.026,0.377-0.128,0.5-0.288c0.122-0.159,0.175-0.355,0.149-0.553l-0.488-3.719
		c-0.095-0.733-0.544-1.372-1.2-1.71l-3.145-1.621c-0.176-0.09-0.312-0.251-0.372-0.441c-0.061-0.192-0.042-0.396,0.052-0.574
		l1.514-2.874c0.094-0.178,0.258-0.312,0.45-0.369c0.069-0.021,0.141-0.031,0.214-0.031c0.127,0,0.253,0.033,0.364,0.094
		l6.749,3.754c0.111,0.062,0.237,0.094,0.363,0.094c0.273,0,0.525-0.148,0.657-0.385c0.097-0.175,0.121-0.378,0.066-0.571
		c-0.055-0.193-0.182-0.352-0.357-0.449l-8.091-4.5C8.664,8.283,8.538,8.25,8.413,8.25z"/>
</g>
</svg>
