<?xml version="1.0" encoding="utf-8"?>
<!-- Generator: Adobe Illustrator 22.1.0, SVG Export Plug-In . SVG Version: 6.00 Build 0)  -->
<svg version="1.1" id="Regular" xmlns="http://www.w3.org/2000/svg" xmlns:xlink="http://www.w3.org/1999/xlink" x="0px" y="0px"
	 viewBox="0 0 24 24" style="enable-background:new 0 0 24 24;" xml:space="preserve">
<title>tennis-backhand</title>
<g>
	<path d="M10.495,6.749c-1.861,0-3.375-1.514-3.375-3.375s1.514-3.375,3.375-3.375s3.375,1.514,3.375,3.375
		S12.356,6.749,10.495,6.749z M10.495,1.499c-1.034,0-1.875,0.841-1.875,1.875s0.841,1.875,1.875,1.875s1.875-0.841,1.875-1.875
		S11.529,1.499,10.495,1.499z"/>
	<path d="M20.995,19.124c-0.046,0-0.092-0.004-0.139-0.013c-0.54-0.067-0.951-0.507-0.981-1.051
		c-0.002-0.006-0.005-0.032-0.005-0.06c0-0.007,0-0.014,0.001-0.022c0.005-0.293,0.121-0.567,0.327-0.774
		c0.211-0.213,0.493-0.33,0.794-0.332c0.047,0,0.091,0.004,0.133,0.011c0.51,0.06,0.919,0.467,0.982,0.976
		c0.009,0.047,0.013,0.093,0.013,0.139C22.12,18.62,21.615,19.124,20.995,19.124z"/>
	<path d="M11.996,24.01c-0.92,0-1.762-0.575-2.097-1.43L8.748,19.7l-1.281-0.549c-0.114,1.023-0.648,1.972-1.476,2.596L3.59,23.549
		c-0.392,0.293-0.858,0.448-1.347,0.448c-0.706,0-1.38-0.336-1.802-0.898c-0.361-0.48-0.513-1.073-0.428-1.668
		c0.085-0.595,0.396-1.122,0.877-1.482l2.1-1.575v-1.916c0.001-0.812,0.193-1.624,0.555-2.349l3-5.995
		c0.125-0.25,0.293-0.472,0.5-0.659C7.46,7.078,7.997,6.87,8.557,6.87c0.036,0,0.072,0.001,0.108,0.002
		c0.6,0.029,1.154,0.29,1.558,0.734l2.629,2.891h2.894c0.299,0,0.593,0.06,0.866,0.175l0.664-1.122
		c-0.513-0.52-0.83-1.223-0.921-2.053c-0.114-1.04,0.149-2.164,0.741-3.165c0.886-1.497,2.393-2.464,3.841-2.464
		c0.552,0,1.062,0.136,1.517,0.406c0.834,0.493,1.368,1.369,1.505,2.465c0.132,1.06-0.127,2.205-0.729,3.223
		c-0.592,1.001-1.451,1.773-2.418,2.174c-0.474,0.196-0.949,0.296-1.415,0.296c-0.285,0-0.563-0.038-0.831-0.115L17.74,11.71
		c0.167,0.32,0.255,0.674,0.255,1.038c0,1.241-1.009,2.25-2.25,2.25h-3.409c-0.547,0-1.074-0.198-1.484-0.559l-1.696-1.486
		l-0.834,1.669l2.488,1.063c0.909,0.387,1.639,1.137,2.002,2.056l1.265,3.162c0.009,0.02,0.016,0.039,0.021,0.054
		c0.446,1.137-0.126,2.445-1.282,2.897C12.553,23.958,12.277,24.01,11.996,24.01L11.996,24.01z M6.74,17.273
		c0.102,0,0.201,0.02,0.295,0.061l2.589,1.11c0.185,0.079,0.327,0.226,0.401,0.411l1.269,3.173c0.115,0.293,0.39,0.481,0.703,0.481
		c0.093,0,0.184-0.017,0.272-0.051c0.384-0.151,0.575-0.587,0.425-0.972l-1.276-3.19c-0.218-0.551-0.655-1-1.198-1.231l-3.22-1.377
		c-0.189-0.08-0.338-0.238-0.409-0.431c-0.071-0.193-0.059-0.409,0.033-0.594l1.625-3.25c0.103-0.206,0.3-0.356,0.526-0.401
		c0.048-0.009,0.097-0.014,0.145-0.014c0.182,0,0.357,0.066,0.494,0.186l2.427,2.126c0.137,0.12,0.313,0.187,0.496,0.187h3.409
		c0.414,0,0.75-0.336,0.75-0.75s-0.336-0.75-0.75-0.75H12.52c-0.211,0-0.413-0.089-0.555-0.245L9.113,8.616
		C8.978,8.467,8.793,8.38,8.593,8.371L8.559,8.37c-0.191,0-0.365,0.067-0.506,0.195c-0.069,0.063-0.125,0.137-0.167,0.22l-3,5.994
		c-0.259,0.519-0.396,1.099-0.397,1.679v2.29c0,0.235-0.112,0.459-0.3,0.6l-2.4,1.8c-0.16,0.12-0.264,0.295-0.292,0.494
		c-0.028,0.198,0.022,0.396,0.143,0.556c0.143,0.19,0.362,0.299,0.602,0.299c0.163,0,0.318-0.052,0.448-0.149l2.4-1.8
		c0.562-0.423,0.899-1.097,0.9-1.802v-0.723c0-0.253,0.126-0.487,0.337-0.626C6.45,17.316,6.592,17.273,6.74,17.273z M20.921,3.364
		c-0.917,0-1.912,0.68-2.535,1.733c-0.428,0.723-0.62,1.518-0.541,2.238c0.07,0.64,0.351,1.135,0.789,1.394
		c0.225,0.133,0.482,0.201,0.764,0.201c0.268,0,0.55-0.061,0.838-0.18c0.669-0.277,1.273-0.828,1.701-1.552
		c0.418-0.707,0.613-1.486,0.549-2.192c-0.06-0.661-0.343-1.172-0.796-1.44C21.463,3.432,21.204,3.364,20.921,3.364z"/>
</g>
</svg>
