<?xml version="1.0" encoding="utf-8"?>
<!-- Generator: Adobe Illustrator 22.1.0, SVG Export Plug-In . SVG Version: 6.00 Build 0)  -->
<svg version="1.1" id="Layer_1" xmlns="http://www.w3.org/2000/svg" xmlns:xlink="http://www.w3.org/1999/xlink" x="0px" y="0px"
	 viewBox="0 0 24 24" style="enable-background:new 0 0 24 24;" xml:space="preserve">
<title>ticket-buy</title>
<g>
	<circle cx="12" cy="9.75" r="1.125"/>
	<circle cx="9" cy="9.75" r="1.125"/>
	<circle cx="15" cy="9.75" r="1.125"/>
	<path d="M14.25,16.5c-0.414,0-0.75-0.336-0.75-0.75c0-0.827-0.673-1.5-1.5-1.5s-1.5,0.673-1.5,1.5c0,0.414-0.336,0.75-0.75,0.75
		h-1.5C7.009,16.5,6,15.491,6,14.25V6H4.5C4.086,6,3.75,5.664,3.75,5.25S4.086,4.5,4.5,4.5h15c0.414,0,0.75,0.336,0.75,0.75
		S19.914,6,19.5,6H18v8.25c0,1.241-1.009,2.25-2.25,2.25H14.25z M15.75,15c0.414,0,0.75-0.336,0.75-0.75V6h-9v8.25
		C7.5,14.664,7.836,15,8.25,15h0.845c0.338-1.303,1.533-2.25,2.905-2.25c1.372,0,2.567,0.947,2.905,2.25H15.75z"/>
	<path d="M9,22.5c-0.305,0-0.577-0.182-0.693-0.463c-0.117-0.281-0.053-0.602,0.163-0.817l3-3C11.611,18.078,11.8,18,12,18
		s0.389,0.078,0.53,0.22l3,3c0.215,0.215,0.279,0.536,0.163,0.817S15.304,22.5,15,22.5H9z M13.189,21L12,19.811L10.811,21H13.189z"
		/>
	<path d="M20.25,9c-0.414,0-0.75-0.336-0.75-0.75s0.336-0.75,0.75-0.75h1.5c0.414,0,0.75-0.336,0.75-0.75v-3
		C22.5,3.336,22.164,3,21.75,3H2.25C1.836,3,1.5,3.336,1.5,3.75v3c0,0.414,0.336,0.75,0.75,0.75h1.5c0.414,0,0.75,0.336,0.75,0.75
		S4.164,9,3.75,9h-1.5C1.009,9,0,7.991,0,6.75v-3C0,2.509,1.009,1.5,2.25,1.5h19.5C22.991,1.5,24,2.509,24,3.75v3
		C24,7.991,22.991,9,21.75,9H20.25z"/>
</g>
</svg>
