<?xml version="1.0" encoding="utf-8"?>
<!-- Generator: Adobe Illustrator 22.1.0, SVG Export Plug-In . SVG Version: 6.00 Build 0)  -->
<svg version="1.1" id="Layer_1" xmlns="http://www.w3.org/2000/svg" xmlns:xlink="http://www.w3.org/1999/xlink" x="0px" y="0px"
	 viewBox="0 0 24 24" style="enable-background:new 0 0 24 24;" xml:space="preserve">
<title>ticket-group</title>
<g>
	<path d="M5.25,10.5c-0.827,0-1.5-0.673-1.5-1.5V6.75C3.75,6.336,4.086,6,4.5,6s0.75-0.336,0.75-0.75S4.914,4.5,4.5,4.5
		S3.75,4.164,3.75,3.75V1.5c0-0.827,0.673-1.5,1.5-1.5h13.5c0.827,0,1.5,0.673,1.5,1.5v2.25c0,0.414-0.336,0.75-0.75,0.75
		s-0.75,0.336-0.75,0.75S19.086,6,19.5,6s0.75,0.336,0.75,0.75V9c0,0.827-0.673,1.5-1.5,1.5H5.25z M5.25,9h13.5V7.371
		c-0.885-0.314-1.5-1.162-1.5-2.121s0.615-1.808,1.5-2.121V1.5H5.25l0,1.629c0.885,0.314,1.5,1.162,1.5,2.121
		c0,0.96-0.615,1.808-1.5,2.121V9z"/>
	<path d="M9,7.5c-0.414,0-0.75-0.336-0.75-0.75v-3C8.25,3.336,8.586,3,9,3s0.75,0.336,0.75,0.75v3C9.75,7.164,9.414,7.5,9,7.5z"/>
	<path d="M19.5,18.75c-1.654,0-3-1.346-3-3s1.346-3,3-3s3,1.346,3,3S21.154,18.75,19.5,18.75z M19.5,14.25
		c-0.827,0-1.5,0.673-1.5,1.5s0.673,1.5,1.5,1.5s1.5-0.673,1.5-1.5S20.327,14.25,19.5,14.25z"/>
	<path d="M23.25,24c-0.414,0-0.75-0.336-0.75-0.75c0-1.654-1.346-3-3-3s-3,1.346-3,3c0,0.414-0.336,0.75-0.75,0.75
		S15,23.664,15,23.25c0-1.654-1.346-3-3-3c-1.654,0-3,1.346-3,3C9,23.664,8.664,24,8.25,24S7.5,23.664,7.5,23.25
		c0-1.654-1.346-3-3-3s-3,1.346-3,3C1.5,23.664,1.164,24,0.75,24S0,23.664,0,23.25c0-2.481,2.019-4.5,4.5-4.5
		c1.517,0,2.924,0.775,3.75,2.022c0.826-1.247,2.233-2.022,3.75-2.022s2.924,0.775,3.75,2.022c0.826-1.247,2.233-2.022,3.75-2.022
		c2.481,0,4.5,2.019,4.5,4.5C24,23.664,23.664,24,23.25,24z"/>
	<path d="M12,18.75c-1.654,0-3-1.346-3-3s1.346-3,3-3c1.654,0,3,1.346,3,3S13.654,18.75,12,18.75z M12,14.25
		c-0.827,0-1.5,0.673-1.5,1.5s0.673,1.5,1.5,1.5s1.5-0.673,1.5-1.5S12.827,14.25,12,14.25z"/>
	<path d="M4.5,18.75c-1.654,0-3-1.346-3-3s1.346-3,3-3s3,1.346,3,3S6.154,18.75,4.5,18.75z M4.5,14.25c-0.827,0-1.5,0.673-1.5,1.5
		s0.673,1.5,1.5,1.5S6,16.577,6,15.75S5.327,14.25,4.5,14.25z"/>
</g>
</svg>
