<?xml version="1.0" encoding="utf-8"?>
<!-- Generator: Adobe Illustrator 22.1.0, SVG Export Plug-In . SVG Version: 6.00 Build 0)  -->
<svg version="1.1" id="Regular" xmlns="http://www.w3.org/2000/svg" xmlns:xlink="http://www.w3.org/1999/xlink" x="0px" y="0px"
	 viewBox="0 0 24 24" style="enable-background:new 0 0 24 24;" xml:space="preserve">
<title>ticket-movie</title>
<g>
	<path d="M2.25,20.75C1.009,20.75,0,19.741,0,18.5v-2.309c0.001-0.736,0.527-1.357,1.252-1.479c1.266-0.211,2.257-1.202,2.468-2.467
		c0.131-0.789-0.053-1.584-0.52-2.237C2.734,9.355,2.042,8.923,1.253,8.792C0.526,8.671,0,8.049,0,7.313V5
		c0-1.241,1.009-2.25,2.25-2.25h19.5C22.991,2.75,24,3.759,24,5v2.311c-0.001,0.735-0.527,1.357-1.252,1.479
		c-1.448,0.245-2.499,1.49-2.498,2.96c0,1.469,1.051,2.713,2.5,2.959c0.724,0.12,1.25,0.742,1.25,1.478V18.5
		c0,1.241-1.009,2.25-2.25,2.25H2.25z M2.25,4.25C1.836,4.25,1.5,4.586,1.5,5v2.313C2.683,7.51,3.721,8.157,4.42,9.137
		s0.976,2.171,0.779,3.355c-0.316,1.897-1.803,3.384-3.7,3.7L1.5,18.5c0,0.414,0.336,0.75,0.75,0.75h19.5
		c0.414,0,0.75-0.336,0.75-0.75v-2.313c-2.173-0.368-3.75-2.234-3.75-4.437c-0.001-2.204,1.575-4.071,3.749-4.44L22.5,5
		c0-0.414-0.336-0.75-0.75-0.75H2.25z"/>
	<path d="M4.5,7.25c-0.414,0-0.75-0.336-0.75-0.75S4.086,5.75,4.5,5.75h2.25c0.414,0,0.75,0.336,0.75,0.75S7.164,7.25,6.75,7.25H4.5
		z"/>
	<path d="M10.5,7.25c-0.414,0-0.75-0.336-0.75-0.75s0.336-0.75,0.75-0.75h3c0.414,0,0.75,0.336,0.75,0.75s-0.336,0.75-0.75,0.75
		H10.5z"/>
	<path d="M17.25,7.25c-0.414,0-0.75-0.336-0.75-0.75s0.336-0.75,0.75-0.75h2.25c0.414,0,0.75,0.336,0.75,0.75s-0.336,0.75-0.75,0.75
		H17.25z"/>
	<path d="M4.5,17.75c-0.414,0-0.75-0.336-0.75-0.75s0.336-0.75,0.75-0.75h2.25c0.414,0,0.75,0.336,0.75,0.75s-0.336,0.75-0.75,0.75
		H4.5z"/>
	<path d="M10.5,17.75c-0.414,0-0.75-0.336-0.75-0.75s0.336-0.75,0.75-0.75h3c0.414,0,0.75,0.336,0.75,0.75s-0.336,0.75-0.75,0.75
		H10.5z"/>
	<path d="M17.25,17.75c-0.414,0-0.75-0.336-0.75-0.75s0.336-0.75,0.75-0.75h2.25c0.414,0,0.75,0.336,0.75,0.75
		s-0.336,0.75-0.75,0.75H17.25z"/>
	<path d="M10.4,14.75c-0.295-0.001-0.58-0.087-0.826-0.249c-0.69-0.457-0.88-1.39-0.424-2.08l1.601-2.402
		c0.11-0.165,0.25-0.305,0.415-0.416c0.247-0.165,0.535-0.252,0.831-0.252c0.504,0,0.971,0.25,1.25,0.667l1.6,2.398
		c0.165,0.248,0.252,0.536,0.252,0.833c0,0.827-0.673,1.5-1.5,1.5H10.4z M10.4,13.252l3.2-0.002L12,10.852l-0.001-0.375v0.375
		c0,0,0,0,0.001,0L10.4,13.252z"/>
</g>
</svg>
