<?xml version="1.0" encoding="utf-8"?>
<!-- Generator: Adobe Illustrator 22.1.0, SVG Export Plug-In . SVG Version: 6.00 Build 0)  -->
<svg version="1.1" id="Regular" xmlns="http://www.w3.org/2000/svg" xmlns:xlink="http://www.w3.org/1999/xlink" x="0px" y="0px"
	 viewBox="0 0 24 24" style="enable-background:new 0 0 24 24;" xml:space="preserve">
<title>tiger-head</title>
<g>
	<path d="M9.661,24.001c-0.115,0-0.231-0.027-0.335-0.079c-1.025-0.512-1.84-1.419-2.426-2.697l-0.085,0.048
		c-0.356,0.2-0.742,0.34-1.146,0.416c-0.231,0.043-0.466,0.065-0.697,0.065c-0.754,0-1.484-0.227-2.111-0.657
		c-0.732-0.501-1.263-1.248-1.496-2.105c-0.002-0.009-0.009-0.037-0.011-0.046c-0.019-0.068-0.042-0.159-0.06-0.253l-1.2-6.4
		c-0.162-0.834,0.175-1.704,0.858-2.215c2.462-1.836,8.852-6.152,15.521-7.003c0.034-0.182,0.081-0.362,0.141-0.538
		c0.522-1.518,1.952-2.539,3.559-2.539c0.414,0,0.824,0.069,1.219,0.204c1.662,0.594,2.69,2.229,2.503,3.977
		c-0.071,1.713-1.092,3.255-2.663,3.999c-0.101,0.048-0.209,0.073-0.321,0.073c-0.288,0-0.554-0.168-0.678-0.429
		C20.056,7.448,20.216,7,20.59,6.823c1.07-0.507,1.763-1.557,1.809-2.74c0.001-0.022,0.002-0.038,0.004-0.053
		c0.118-1.061-0.502-2.052-1.507-2.412c-0.231-0.079-0.476-0.121-0.724-0.121c-0.966,0-1.825,0.614-2.139,1.527
		C17.952,3.26,17.91,3.506,17.91,3.755c0,0.39-0.294,0.71-0.682,0.746C12.481,4.931,7.665,7.442,4.38,9.539l0.538,1.615
		c3.525-2.062,8.24-4.401,11.492-4.401c0.414,0,0.75,0.336,0.75,0.75s-0.336,0.75-0.75,0.75c-4.517,0-12.894,5.488-14.339,6.458
		l0.532,2.839c1.664-1.067,5.512-3.3,8.557-3.3c0.414,0,0.75,0.336,0.75,0.75s-0.336,0.75-0.75,0.75
		c-0.233,0-0.484,0.018-0.75,0.052v2.444c0.739-0.156,1.492-0.238,2.244-0.243c3.905,0,6.26,1.191,7.322,1.907
		c0.23-0.374,0.542-0.908,0.867-1.549l-1.849-1.233c-0.167-0.111-0.28-0.281-0.32-0.477s0-0.397,0.112-0.563
		c0.139-0.209,0.373-0.334,0.624-0.334c0.148,0,0.292,0.043,0.416,0.126l1.652,1.102c0.286-0.692,0.516-1.366,0.684-2.013
		l-1.588-0.794c-0.37-0.185-0.52-0.636-0.335-1.006c0.128-0.256,0.385-0.415,0.672-0.415c0.115,0,0.231,0.027,0.334,0.079
		l1.206,0.603c0.083-0.739,0.073-1.43-0.032-2.059c-0.033-0.198,0.013-0.396,0.129-0.559c0.116-0.163,0.289-0.271,0.487-0.304
		c0.042-0.007,0.083-0.01,0.125-0.01c0.368,0,0.678,0.264,0.739,0.627c0.792,4.75-2.969,10.084-3.129,10.309
		c-0.129,0.18-0.329,0.293-0.549,0.312c-0.024,0.002-0.043,0.002-0.062,0.002c-0.2,0-0.389-0.078-0.53-0.22
		c-0.017-0.016-2.172-2.03-6.97-2.03c-0.743,0.005-1.499,0.102-2.249,0.286v3.463c0,0.262-0.133,0.5-0.356,0.638
		C9.936,23.962,9.8,24.001,9.661,24.001z M7.416,16.679c0.029,0.713,0.222,3.397,1.495,4.996v-5.54
		C8.439,16.278,7.939,16.46,7.416,16.679z M3.005,19.082c0.168,0.31,0.408,0.575,0.703,0.778c0.377,0.258,0.814,0.394,1.266,0.394
		c0.14,0,0.281-0.013,0.42-0.039c0.242-0.045,0.474-0.129,0.689-0.25c0,0,0.229-0.128,0.303-0.169
		c-0.261-0.938-0.378-1.829-0.43-2.436C4.651,18.022,3.554,18.718,3.005,19.082z M3.085,10.397
		c-0.538,0.369-0.959,0.676-1.237,0.883c-0.225,0.168-0.336,0.456-0.282,0.732l0.205,1.094c0.448-0.295,1.075-0.699,1.829-1.163
		L3.085,10.397z"/>
	<path d="M14.161,12.002c-0.044,0-0.088-0.004-0.131-0.012c-0.513-0.06-0.922-0.47-0.982-0.983
		c-0.008-0.042-0.011-0.086-0.011-0.131s0.004-0.088,0.011-0.13c0.06-0.509,0.466-0.918,0.974-0.982
		c0.047-0.009,0.094-0.013,0.139-0.013c0.62,0,1.125,0.505,1.125,1.125c0,0.572-0.426,1.048-0.994,1.115
		C14.249,11.998,14.205,12.002,14.161,12.002z"/>
</g>
</svg>
