<?xml version="1.0" encoding="utf-8"?>
<!-- Generator: Adobe Illustrator 22.1.0, SVG Export Plug-In . SVG Version: 6.00 Build 0)  -->
<svg version="1.1" id="Layer_1" xmlns="http://www.w3.org/2000/svg" xmlns:xlink="http://www.w3.org/1999/xlink" x="0px" y="0px"
	 viewBox="0 0 24 24" style="enable-background:new 0 0 24 24;" xml:space="preserve">
<title>toilet-sign-1</title>
<g>
	<path d="M5.25,7.503c-2.068,0-3.75-1.682-3.75-3.75s1.682-3.75,3.75-3.75S9,1.685,9,3.753S7.317,7.503,5.25,7.503z M5.25,1.503
		C4.009,1.503,3,2.512,3,3.753s1.009,2.25,2.25,2.25S7.5,4.994,7.5,3.753S6.49,1.503,5.25,1.503z"/>
	<path d="M3,24.003c-0.387,0-0.708-0.29-0.746-0.675l-0.682-6.825H0.75c-0.414,0-0.75-0.336-0.75-0.75v-3
		c0-2.895,2.355-5.25,5.25-5.25s5.25,2.355,5.25,5.25v3c0,0.414-0.336,0.75-0.75,0.75H8.928l-0.682,6.825
		c-0.039,0.385-0.359,0.675-0.746,0.675H3z M6.821,22.503l0.682-6.825c0.039-0.385,0.359-0.675,0.746-0.675H9v-2.25
		c0-1.781-1.288-3.32-3-3.672v5.172c0,0.414-0.336,0.75-0.75,0.75s-0.75-0.336-0.75-0.75V9.081c-1.712,0.352-3,1.892-3,3.672v2.25
		h0.75c0.387,0,0.708,0.29,0.746,0.675l0.682,6.825H6.821z"/>
	<path d="M17.25,7.503c-2.068,0-3.75-1.682-3.75-3.75s1.682-3.75,3.75-3.75S21,1.685,21,3.753S19.318,7.503,17.25,7.503z
		 M17.25,1.503c-1.241,0-2.25,1.009-2.25,2.25s1.009,2.25,2.25,2.25s2.25-1.009,2.25-2.25S18.49,1.503,17.25,1.503z"/>
	<path d="M15,24c-0.368,0-0.679-0.264-0.74-0.627L13.614,19.5H11.25c-0.241,0-0.468-0.116-0.609-0.312
		c-0.14-0.194-0.179-0.447-0.103-0.676l2.25-6.75c0.282-0.964,0.732-1.884,1.332-2.72c0.129-0.179,0.329-0.292,0.549-0.31
		C14.69,8.731,14.71,8.73,14.731,8.73c0.2,0,0.388,0.078,0.529,0.22l1.99,1.99l1.99-1.99c0.141-0.142,0.33-0.22,0.53-0.22
		c0.02,0,0.041,0.001,0.061,0.002c0.22,0.018,0.42,0.131,0.548,0.31c0.599,0.834,1.049,1.756,1.339,2.74l2.244,6.731
		c0.076,0.229,0.037,0.481-0.103,0.676c-0.14,0.195-0.368,0.311-0.608,0.311h-2.365l-0.646,3.873C20.179,23.736,19.868,24,19.5,24
		H15z M18.864,22.5l0.646-3.874C19.57,18.264,19.881,18,20.25,18h1.959c0,0-1.929-5.788-1.931-5.794
		c-0.156-0.532-0.371-1.047-0.64-1.534L17.78,12.53c-0.142,0.142-0.33,0.22-0.53,0.22s-0.389-0.078-0.53-0.22l-1.858-1.858
		c-0.269,0.487-0.484,1.002-0.642,1.539L12.29,18h1.959c0.368,0,0.679,0.264,0.74,0.627l0.646,3.873H18.864z"/>
</g>
</svg>
