<?xml version="1.0" encoding="utf-8"?>
<!-- Generator: Adobe Illustrator 22.1.0, SVG Export Plug-In . SVG Version: 6.00 Build 0)  -->
<svg version="1.1" id="Layer_1" xmlns="http://www.w3.org/2000/svg" xmlns:xlink="http://www.w3.org/1999/xlink" x="0px" y="0px"
	 viewBox="0 0 24 24" style="enable-background:new 0 0 24 24;" xml:space="preserve">
<title>toilet-seat</title>
<g>
	<path d="M7.5,24.005c-0.231,0-0.445-0.104-0.589-0.285c-0.143-0.182-0.194-0.414-0.141-0.639l0.618-2.595
		c-2.55-1.516-4.16-4.138-4.362-7.103c-0.9-0.306-1.526-1.159-1.526-2.13c0-1.241,1.009-2.25,2.25-2.25H15v-6.75
		c0-1.241,1.009-2.25,2.25-2.25h3c1.241,0,2.25,1.009,2.25,2.25v9c0,0.984-0.641,1.845-1.559,2.141
		c-0.232,1.345-1.187,2.473-2.492,2.914c-0.271,0.108-0.458,0.394-0.449,0.704l0,6.243c0,0.414-0.336,0.75-0.75,0.75H7.5z
		 M16.5,22.505v-5.47c-0.029-0.928,0.545-1.791,1.428-2.134c0.009-0.003,0.034-0.012,0.043-0.015
		c0.661-0.222,1.172-0.733,1.398-1.381H4.537c0.251,2.522,1.778,4.771,4.054,5.932c0.309,0.158,0.469,0.504,0.389,0.842l-0.53,2.226
		H16.5z M20.25,12.003c0.414,0,0.75-0.336,0.75-0.75v-9c0-0.414-0.336-0.75-0.75-0.75h-3c-0.414,0-0.75,0.336-0.75,0.75v9.75H20.25z
		 M3.75,10.503c-0.414,0-0.75,0.336-0.75,0.75s0.336,0.75,0.75,0.75H15v-1.5H3.75z"/>
</g>
</svg>
