<?xml version="1.0" encoding="utf-8"?>
<!-- Generator: Adobe Illustrator 22.1.0, SVG Export Plug-In . SVG Version: 6.00 Build 0)  -->
<svg version="1.1" id="Layer_1" xmlns="http://www.w3.org/2000/svg" xmlns:xlink="http://www.w3.org/1999/xlink" x="0px" y="0px"
	 viewBox="0 0 24 24" style="enable-background:new 0 0 24 24;" xml:space="preserve">
<title>toilet-need-1</title>
<g>
	<path d="M12.003,6.757c-1.861,0-3.375-1.514-3.375-3.375s1.514-3.375,3.375-3.375s3.375,1.514,3.375,3.375
		S13.864,6.757,12.003,6.757z M12.003,1.507c-1.034,0-1.875,0.841-1.875,1.875s0.841,1.875,1.875,1.875
		c1.034,0,1.875-0.841,1.875-1.875S13.037,1.507,12.003,1.507z"/>
	<path d="M16.478,23.991c-0.584,0-1.14-0.225-1.563-0.634L12,20.439L9.09,23.347c-0.428,0.414-0.986,0.639-1.574,0.639
		c-0.616,0-1.19-0.243-1.617-0.685c-0.847-0.876-0.847-2.25,0-3.126l0.668-0.668H6c-0.27,0-0.52-0.146-0.653-0.38
		c-0.133-0.235-0.129-0.524,0.009-0.755l1.533-2.557c-1.046-0.991-1.64-2.362-1.64-3.811v-0.747c0-2.068,1.682-3.75,3.75-3.75h6
		c2.068,0,3.75,1.682,3.75,3.75v0.747c0,1.448-0.593,2.819-1.638,3.81l1.532,2.557c0.138,0.231,0.142,0.521,0.009,0.755
		c-0.132,0.234-0.382,0.38-0.652,0.38h-0.572l0.659,0.659c0.425,0.44,0.651,1.01,0.641,1.612s-0.254,1.162-0.687,1.579
		C17.618,23.766,17.063,23.991,16.478,23.991z M15.967,22.287c0.134,0.13,0.317,0.204,0.51,0.204c0.195,0,0.381-0.076,0.523-0.213
		c0.144-0.139,0.225-0.326,0.229-0.526c0.004-0.2-0.071-0.39-0.21-0.534l-1.931-1.93c-0.215-0.215-0.279-0.536-0.163-0.817
		s0.389-0.463,0.693-0.463h1.06l-0.753-1.257l-1.074,0.805c-0.393,0.294-0.858,0.45-1.346,0.45c-0.106,0-0.214-0.008-0.321-0.023
		c-0.147-0.021-0.291-0.056-0.43-0.105v1.193L15.967,22.287z M8.379,18.007c0.305,0,0.577,0.182,0.693,0.463
		c0.117,0.281,0.053,0.602-0.163,0.817l-1.94,1.939c-0.275,0.285-0.273,0.741,0.009,1.033c0.142,0.147,0.334,0.229,0.54,0.229
		c0.196,0,0.38-0.074,0.52-0.21l3.214-3.213v-1.191c-0.14,0.05-0.286,0.086-0.434,0.107c-0.107,0.015-0.215,0.023-0.323,0.023
		c-0.488,0-0.953-0.156-1.346-0.45L8.078,16.75l-0.754,1.257H8.379z M15,11.254c0.414,0,0.75,0.336,0.75,0.75
		c0,0.704-0.336,1.377-0.9,1.8l-1.8,1.351c-0.16,0.12-0.264,0.296-0.293,0.494c-0.028,0.198,0.022,0.396,0.143,0.556
		c0.12,0.16,0.296,0.264,0.494,0.293c0.034,0.005,0.07,0.007,0.106,0.007c0.164,0,0.319-0.052,0.45-0.15l1.658-1.243
		c0.044-0.045,0.092-0.082,0.143-0.113c0.006-0.004,0.015-0.009,0.026-0.014c0.925-0.708,1.474-1.819,1.474-2.981v-0.747
		c0-1.241-1.009-2.25-2.25-2.25H9c-1.241,0-2.25,1.009-2.25,2.25v0.747c0,1.174,0.561,2.295,1.5,3l1.8,1.35
		c0.131,0.098,0.285,0.15,0.447,0.15c0.036,0,0.072-0.003,0.109-0.008c0.199-0.028,0.374-0.132,0.495-0.293
		c0.248-0.331,0.18-0.802-0.15-1.05l-1.8-1.35c-0.564-0.423-0.9-1.095-0.9-1.8c0-0.414,0.336-0.75,0.75-0.75s0.75,0.336,0.75,0.75
		c0,0.235,0.112,0.459,0.3,0.6l1.8,1.35c0.052,0.039,0.102,0.08,0.151,0.124c0.048-0.043,0.098-0.083,0.149-0.122l1.8-1.351
		c0.188-0.141,0.3-0.365,0.3-0.6C14.25,11.591,14.586,11.254,15,11.254z"/>
</g>
</svg>
