<?xml version="1.0" encoding="utf-8"?>
<!-- Generator: Adobe Illustrator 22.1.0, SVG Export Plug-In . SVG Version: 6.00 Build 0)  -->
<svg version="1.1" id="Layer_1" xmlns="http://www.w3.org/2000/svg" xmlns:xlink="http://www.w3.org/1999/xlink" x="0px" y="0px"
	 viewBox="0 0 24 24" style="enable-background:new 0 0 24 24;" xml:space="preserve">
<title>toilet-unclog</title>
<g>
	<path d="M3.75,24.003c-0.414,0-0.75-0.336-0.75-0.75s0.336-0.75,0.75-0.75h0.793c0.298-3.002,2.357-5.523,5.244-6.408
		c0.146-0.79,0.707-1.445,1.463-1.713V8.874c-0.885-0.314-1.5-1.162-1.5-2.121v-4.5c0-1.241,1.009-2.25,2.25-2.25
		c1.241,0,2.25,1.009,2.25,2.25v4.5c0,0.96-0.615,1.808-1.5,2.121v5.508c0.756,0.267,1.317,0.923,1.463,1.713
		c2.888,0.885,4.947,3.406,5.244,6.408h0.793c0.414,0,0.75,0.336,0.75,0.75s-0.336,0.75-0.75,0.75H3.75z M17.954,22.503
		c-0.309-2.517-2.135-4.539-4.65-5.098c-0.198-0.044-0.373-0.168-0.478-0.342c-0.105-0.172-0.136-0.384-0.085-0.581
		c0.003-0.01,0.005-0.021,0.008-0.032c-0.027-0.388-0.356-0.698-0.748-0.698c-0.393,0-0.721,0.31-0.748,0.698
		c0.002,0.01,0.005,0.02,0.007,0.03c0.052,0.196,0.022,0.408-0.084,0.582c-0.106,0.174-0.28,0.299-0.479,0.343
		c-2.515,0.559-4.341,2.581-4.65,5.098H17.954z M12,1.503c-0.414,0-0.75,0.336-0.75,0.75v4.5c0,0.414,0.336,0.75,0.75,0.75
		s0.75-0.336,0.75-0.75v-4.5C12.75,1.839,12.414,1.503,12,1.503z"/>
</g>
</svg>
