<?xml version="1.0" encoding="utf-8"?>
<!-- Generator: Adobe Illustrator 22.1.0, SVG Export Plug-In . SVG Version: 6.00 Build 0)  -->
<svg version="1.1" id="Layer_1" xmlns="http://www.w3.org/2000/svg" xmlns:xlink="http://www.w3.org/1999/xlink" x="0px" y="0px"
	 viewBox="0 0 24 24" style="enable-background:new 0 0 24 24;" xml:space="preserve">
<title>tools-pickaxe</title>
<g>
	<path d="M2.617,23.632c-0.584,0-1.138-0.225-1.562-0.634c-0.432-0.417-0.676-0.978-0.687-1.579c-0.01-0.601,0.214-1.17,0.631-1.602
		L13.163,7.654c-2.014-1.807-4.207-3.398-6.525-4.735C6.289,2.718,6.161,2.28,6.347,1.923c0.129-0.248,0.295-0.475,0.492-0.675
		c0.581-0.58,1.382-0.874,2.384-0.874c2.094,0,4.925,1.338,7.625,3.594l0.602-0.601c0.431-0.416,0.989-0.643,1.574-0.643
		c0.583,0,1.138,0.225,1.561,0.634c0.432,0.417,0.676,0.978,0.687,1.579c0.01,0.601-0.214,1.17-0.631,1.602L20.03,7.151
		c3.424,4.095,4.546,8.181,2.721,10.005c-0.2,0.199-0.428,0.365-0.677,0.495c-0.107,0.056-0.227,0.085-0.346,0.085
		c-0.267,0-0.516-0.144-0.65-0.375c-1.335-2.317-2.927-4.51-4.734-6.525L4.191,22.989C3.76,23.405,3.203,23.632,2.617,23.632z
		 M2.07,20.868c-0.131,0.136-0.205,0.324-0.201,0.525c0.003,0.2,0.085,0.387,0.229,0.526c0.142,0.137,0.327,0.212,0.521,0.212
		c0.194,0,0.379-0.075,0.521-0.212L15.323,9.735c-0.173-0.179-0.347-0.357-0.524-0.533c-0.001-0.001-0.004-0.004-0.004-0.004
		c-0.176-0.177-0.354-0.351-0.533-0.524L2.07,20.868z M8.186,2.093c2.792,1.696,5.371,3.729,7.673,6.049
		c2.317,2.3,4.349,4.879,6.045,7.669c0.843-1.52-0.658-5.463-4.456-9.262c-2.801-2.802-6.107-4.684-8.225-4.684
		C8.804,1.864,8.457,1.941,8.186,2.093z M17.971,4.966c0.181,0.171,0.361,0.346,0.537,0.522c0.176,0.176,0.351,0.356,0.523,0.539
		l0.538-0.538c0.132-0.137,0.205-0.325,0.202-0.525c-0.003-0.2-0.085-0.387-0.229-0.526c-0.142-0.137-0.327-0.212-0.521-0.212
		S18.642,4.3,18.5,4.437L17.971,4.966z"/>
</g>
</svg>
