<?xml version="1.0" encoding="utf-8"?>
<!-- Generator: Adobe Illustrator 22.1.0, SVG Export Plug-In . SVG Version: 6.00 Build 0)  -->
<svg version="1.1" id="Layer_1" xmlns="http://www.w3.org/2000/svg" xmlns:xlink="http://www.w3.org/1999/xlink" x="0px" y="0px"
	 viewBox="0 0 24 24" style="enable-background:new 0 0 24 24;" xml:space="preserve">
<title>tools-wheel-unscrew</title>
<g>
	<path d="M3.716,23.963c-1.004-0.017-1.938-0.424-2.635-1.145c-1.411-1.461-1.411-3.75,0-5.21c0.139-0.144,0.333-0.227,0.533-0.229
		c0,0,0,0,0.001,0c0.209,0,0.395,0.078,0.536,0.22l1.591,1.591l1.034-1.034c0.434-0.429,0.996-0.659,1.591-0.659
		c0.602,0,1.167,0.235,1.591,0.659l2.314,2.314c0.258,0.258,0.603,0.4,0.969,0.4c0.15,0,0.297-0.024,0.436-0.07
		c-0.607-1.15-0.41-2.567,0.535-3.512l4.243-4.243c0.564-0.565,1.316-0.876,2.117-0.876c0.499,0,0.979,0.12,1.41,0.349
		c0.01-0.047,0.015-0.095,0.015-0.143c0-0.2-0.078-0.389-0.219-0.53l-2.754-2.754c-0.847-0.846-0.877-2.206-0.089-3.088
		l-0.972-0.972c-0.142-0.141-0.22-0.33-0.22-0.53c0-0.2,0.078-0.389,0.22-0.53l3.75-3.75c0.137-0.137,0.33-0.215,0.53-0.215
		s0.394,0.078,0.53,0.215l0.969,0.97l0.97-0.97C22.853,0.078,23.041,0,23.241,0s0.389,0.078,0.53,0.22
		c0.142,0.141,0.22,0.33,0.22,0.53s-0.078,0.389-0.22,0.53l-0.97,0.97l0.97,0.97c0.142,0.141,0.22,0.33,0.22,0.53
		c0,0.2-0.078,0.389-0.22,0.53l-3.75,3.75c-0.14,0.14-0.333,0.22-0.53,0.22s-0.391-0.08-0.53-0.22l-0.962-0.962
		c-0.205,0.293-0.177,0.701,0.084,0.962l2.753,2.753c0.429,0.434,0.659,0.996,0.659,1.592c0,0.437-0.128,0.862-0.364,1.225
		c0.714,1.166,0.547,2.705-0.434,3.687l-4.243,4.243c-0.567,0.567-1.32,0.879-2.121,0.879c-0.572,0-1.118-0.159-1.595-0.461
		c-0.449,0.273-0.971,0.422-1.495,0.422c-0.768,0-1.489-0.298-2.03-0.839l-2.314-2.315c-0.142-0.142-0.33-0.22-0.531-0.22
		c-0.2,0-0.389,0.078-0.53,0.219c-0.003,0.003-1.034,1.034-1.034,1.034l1.591,1.591c0.141,0.141,0.221,0.337,0.22,0.537
		c-0.002,0.2-0.085,0.395-0.229,0.533c-0.703,0.679-1.627,1.052-2.603,1.052L3.716,23.963z M1.723,19.292
		c-0.372,0.823-0.214,1.81,0.437,2.484c0.417,0.432,0.978,0.676,1.579,0.687l0.042,0c0.321,0,0.632-0.067,0.918-0.195L1.723,19.292z
		 M18.575,13.667c-0.401,0-0.778,0.156-1.061,0.438l-4.243,4.243c-0.584,0.585-0.584,1.536,0,2.121
		c0.283,0.283,0.66,0.439,1.061,0.439s0.778-0.156,1.061-0.438l4.243-4.243c0.585-0.585,0.585-1.536,0-2.121
		C19.354,13.823,18.977,13.667,18.575,13.667z M19.491,6.44l2.689-2.689l-1.94-1.94l-2.689,2.689c0,0,0.98,0.979,0.984,0.984
		L19.491,6.44z"/>
</g>
</svg>
