<?xml version="1.0" encoding="utf-8"?>
<!-- Generator: Adobe Illustrator 22.1.0, SVG Export Plug-In . SVG Version: 6.00 Build 0)  -->
<svg version="1.1" id="Layer_1" xmlns="http://www.w3.org/2000/svg" xmlns:xlink="http://www.w3.org/1999/xlink" x="0px" y="0px"
	 viewBox="0 0 24 24" style="enable-background:new 0 0 24 24;" xml:space="preserve">
<title>tools-box-1</title>
<g>
	<path d="M1.75,22.5C0.785,22.5,0,21.715,0,20.75v-13C0,6.785,0.785,6,1.75,6H6V3.75C6,2.509,7.009,1.5,8.25,1.5h7.5
		C16.991,1.5,18,2.509,18,3.75V6h4.25C23.215,6,24,6.785,24,7.75v13c0,0.965-0.785,1.75-1.75,1.75H1.75z M1.75,7.5
		C1.612,7.5,1.5,7.612,1.5,7.75v13C1.5,20.888,1.612,21,1.75,21h20.5c0.138,0,0.25-0.112,0.25-0.25v-13
		c0-0.138-0.112-0.25-0.25-0.25H1.75z M16.5,6V3.75C16.5,3.336,16.164,3,15.75,3h-7.5C7.836,3,7.5,3.336,7.5,3.75V6H16.5z"/>
	<path d="M6.742,17.999c-1.339,0-2.586-0.718-3.253-1.874c-0.5-0.866-0.633-1.876-0.373-2.845s0.88-1.777,1.746-2.277
		c0.571-0.33,1.217-0.504,1.87-0.504c0.327,0,0.656,0.043,0.976,0.129C8.522,10.846,9.235,11.33,9.736,12h4.527
		c0.703-0.94,1.804-1.497,2.985-1.5c1.336,0,2.577,0.714,3.245,1.863c0.322,0.554,0.496,1.187,0.503,1.832
		C20.999,14.211,21,14.23,21,14.25c0,0.025-0.002,0.05-0.005,0.075c-0.03,1.319-0.723,2.499-1.857,3.158
		c-0.571,0.331-1.219,0.506-1.877,0.506l0,0c-1.186,0-2.291-0.553-2.996-1.489H9.736c-0.303,0.403-0.689,0.746-1.125,0.998
		C8.043,17.826,7.396,17.999,6.742,17.999z M4.615,15c0.046,0.13,0.103,0.255,0.172,0.375C5.188,16.069,5.937,16.5,6.741,16.5
		c0.392,0,0.779-0.104,1.12-0.301c0.342-0.197,0.626-0.482,0.824-0.824C8.818,15.144,9.067,15,9.334,15h5.332
		c0.266,0,0.515,0.143,0.648,0.373c0.4,0.689,1.146,1.116,1.946,1.116c0.394,0,0.782-0.105,1.124-0.303
		c0.464-0.269,0.808-0.689,0.984-1.186H17.25c-0.414,0-0.75-0.336-0.75-0.75s0.336-0.75,0.75-0.75h2.123
		c-0.046-0.133-0.105-0.261-0.177-0.383C18.796,12.428,18.052,12,17.255,12c-0.801,0.002-1.542,0.432-1.939,1.124
		c-0.133,0.232-0.383,0.376-0.65,0.376H9.334c-0.267,0-0.516-0.144-0.65-0.375c-0.301-0.521-0.786-0.893-1.366-1.049
		c-0.192-0.052-0.39-0.078-0.587-0.078c-0.39,0-0.778,0.105-1.121,0.303c-0.47,0.271-0.817,0.695-0.994,1.198H6.75
		c0.414,0,0.75,0.336,0.75,0.75S7.164,15,6.75,15H4.615z"/>
</g>
</svg>
