<?xml version="1.0" encoding="utf-8"?>
<!-- Generator: Adobe Illustrator 22.1.0, SVG Export Plug-In . SVG Version: 6.00 Build 0)  -->
<svg version="1.1" id="Layer_1" xmlns="http://www.w3.org/2000/svg" xmlns:xlink="http://www.w3.org/1999/xlink" x="0px" y="0px"
	 viewBox="0 0 24 24" style="enable-background:new 0 0 24 24;" xml:space="preserve">
<title>tools-wench-hold</title>
<g>
	<path d="M21.129,24.001c-0.2,0-0.389-0.078-0.53-0.22l-4.19-4.189c-0.877-0.878-0.877-2.306,0-3.183
		c0.777-0.777,0.777-2.041,0-2.817l-2.405-2.405l-1.565,1.565l0.348,0.348c1.461,1.462,1.461,3.841,0,5.303l-2.507,2.508
		c-0.286,0.285-0.618,0.523-0.979,0.703l1.108,1.108c0.142,0.141,0.22,0.33,0.22,0.53s-0.078,0.389-0.219,0.531
		c-0.142,0.142-0.33,0.22-0.531,0.22s-0.389-0.078-0.53-0.22l-1.776-1.775c-0.982-0.014-1.902-0.402-2.597-1.096l-0.348-0.348
		L1.41,23.781c-0.142,0.142-0.33,0.22-0.53,0.22s-0.389-0.078-0.53-0.22c-0.292-0.292-0.292-0.768,0-1.061l3.219-3.219l-0.659-0.659
		c-0.877-0.878-0.877-2.306,0-3.183l4.629-4.628c0.423-0.423,0.987-0.657,1.588-0.657c0.086,0,0.172,0.005,0.258,0.015
		c0.021-0.665,0.243-1.304,0.646-1.84c0.015-0.019,0.028-0.036,0.042-0.051c0.401-0.448,0.956-0.714,1.559-0.746
		c0.042-0.002,0.085-0.004,0.127-0.004c0.555,0,1.09,0.205,1.505,0.578c0.061,0.055,0.119,0.113,0.174,0.175l0.566,0.565
		l0.672-0.672c-0.319-0.426-0.57-0.893-0.746-1.393c-0.467-1.32-0.391-2.745,0.214-4.012s1.665-2.221,2.985-2.688
		c0.564-0.2,1.152-0.301,1.746-0.301c2.223,0,4.214,1.407,4.954,3.5c0.081,0.229,0.046,0.484-0.095,0.683
		c-0.14,0.199-0.369,0.317-0.612,0.317h-2.742c-0.414,0-0.75,0.336-0.75,0.75s0.336,0.75,0.75,0.75h2.742
		c0.243,0,0.472,0.118,0.612,0.317c0.14,0.199,0.176,0.454,0.095,0.683c-0.531,1.503-1.697,2.669-3.2,3.2
		c-0.568,0.201-1.158,0.303-1.754,0.303c-0.783,0-1.543-0.173-2.259-0.515c-0.305-0.146-0.599-0.325-0.879-0.535l-0.673,0.673
		l2.405,2.405c0.659,0.659,1.021,1.535,1.021,2.469c0,0.934-0.363,1.811-1.021,2.469c-0.142,0.142-0.219,0.33-0.219,0.531
		c0,0.201,0.078,0.389,0.219,0.53l4.19,4.19c0.292,0.292,0.292,0.768,0,1.061C21.518,23.923,21.33,24.001,21.129,24.001z
		 M6.038,19.85c0.424,0.424,0.99,0.658,1.592,0.658c0.602,0,1.167-0.233,1.591-0.657l2.507-2.508c0.877-0.877,0.877-2.304,0-3.182
		l-2.068-2.068c-0.141-0.141-0.33-0.219-0.53-0.219s-0.389,0.078-0.53,0.219L3.97,16.72c-0.141,0.141-0.219,0.33-0.219,0.531
		c0,0.201,0.078,0.389,0.219,0.53c0,0,1.195,1.194,1.204,1.204L6.038,19.85z M11.379,11.691l1.565-1.565l-0.595-0.595
		c-0.043-0.047-0.065-0.069-0.088-0.089c-0.139-0.124-0.317-0.193-0.501-0.193c-0.015,0-0.03,0-0.046,0.001
		c-0.195,0.011-0.373,0.092-0.507,0.23c-0.436,0.603-0.436,1.435-0.001,2.039L11.379,11.691z M18.875,1.501
		c-0.424,0-0.843,0.072-1.246,0.215c-1.949,0.689-2.975,2.836-2.286,4.786c0.334,0.944,1.015,1.702,1.919,2.134
		c0.512,0.244,1.054,0.368,1.613,0.368c0.425,0,0.846-0.073,1.253-0.217c0.707-0.25,1.313-0.697,1.752-1.286h-1.502
		c-1.241,0-2.25-1.009-2.25-2.25s1.009-2.25,2.25-2.25h1.499C21.177,2.074,20.057,1.501,18.875,1.501z"/>
</g>
</svg>
