<?xml version="1.0" encoding="utf-8"?>
<!-- Generator: Adobe Illustrator 22.1.0, SVG Export Plug-In . SVG Version: 6.00 Build 0)  -->
<svg version="1.1" id="Layer_1" xmlns="http://www.w3.org/2000/svg" xmlns:xlink="http://www.w3.org/1999/xlink" x="0px" y="0px"
	 viewBox="0 0 24 24" style="enable-background:new 0 0 24 24;" xml:space="preserve">
<title>tools-saw</title>
<g>
	<path d="M5.696,23.149c-0.467,0-0.907-0.182-1.238-0.513l-3.889-3.889c-0.33-0.33-0.513-0.77-0.513-1.237s0.182-0.907,0.513-1.238
		c0,0,3.529-3.529,3.533-3.533c0.006-0.006,0.013-0.012,0.02-0.018c0.027-0.026,0.056-0.051,0.088-0.073L21.18,0.983
		c0.126-0.086,0.273-0.132,0.425-0.132c0.2,0,0.389,0.078,0.53,0.22l1.591,1.59c0.202,0.203,0.271,0.496,0.181,0.768L22.846,6.61
		c-0.085,0.255-0.301,0.445-0.564,0.498l-2.225,0.446l-0.923,2.769c-0.074,0.223-0.252,0.4-0.474,0.474l-2.826,0.942l-0.942,2.826
		c-0.074,0.223-0.251,0.4-0.474,0.474l-2.827,0.942l-0.941,2.826c-0.004,0.011-0.008,0.023-0.014,0.035
		c-0.015,0.04-0.035,0.081-0.058,0.119c-0.004,0.006-0.007,0.012-0.011,0.018c-0.031,0.047-0.063,0.087-0.099,0.123l-3.535,3.534
		C6.602,22.967,6.163,23.149,5.696,23.149z M1.629,17.333c-0.048,0.048-0.073,0.109-0.073,0.177c0,0.068,0.025,0.129,0.073,0.177
		l3.889,3.889c0.043,0.043,0.107,0.067,0.177,0.067c0.069,0,0.134-0.024,0.176-0.067l3.005-3.005l-4.243-4.242L1.629,17.333z
		 M9.61,17.182l0.676-2.03c0.074-0.223,0.252-0.4,0.474-0.475l2.827-0.942l0.942-2.826c0.074-0.223,0.252-0.4,0.474-0.474
		l2.826-0.942l0.942-2.826c0.085-0.255,0.301-0.445,0.564-0.498l2.225-0.446l0.776-2.329l-0.822-0.821L5.803,13.375L9.61,17.182z"/>
	<path d="M6.225,19.851c-0.2,0-0.389-0.078-0.53-0.22L3.573,17.51c-0.292-0.292-0.292-0.768,0-1.061
		c0.142-0.142,0.33-0.22,0.53-0.22c0.2,0,0.389,0.078,0.53,0.22l2.121,2.121c0.292,0.292,0.292,0.768,0,1.061
		C6.613,19.773,6.425,19.851,6.225,19.851z"/>
</g>
</svg>
