<?xml version="1.0" encoding="utf-8"?>
<!-- Generator: Adobe Illustrator 22.1.0, SVG Export Plug-In . SVG Version: 6.00 Build 0)  -->
<svg version="1.1" id="Layer_1" xmlns="http://www.w3.org/2000/svg" xmlns:xlink="http://www.w3.org/1999/xlink" x="0px" y="0px"
	 viewBox="0 0 24 24" style="enable-background:new 0 0 24 24;" xml:space="preserve">
<title>tools-nail-gun</title>
<g>
	<path d="M23.25,22.5c-0.333,0-0.629-0.224-0.721-0.544c-0.007-0.026-0.746-2.592-2.017-5.129c-0.94-1.878-2.37-4.136-4.012-4.696
		v5.12c0,2.895-2.355,5.25-5.25,5.25h-6C4.01,22.5,3,21.491,3,20.25V7.5H0.75C0.337,7.5,0,7.164,0,6.75S0.337,6,0.75,6H3V4.5H0.75
		C0.337,4.5,0,4.164,0,3.75S0.337,3,0.75,3h2.379C3.443,2.115,4.29,1.5,5.25,1.5h15c1.241,0,2.25,1.009,2.25,2.25v6
		c0,1.241-1.009,2.25-2.25,2.25h-1.267c3.072,2.931,4.905,9.254,4.988,9.544c0.114,0.398-0.118,0.814-0.515,0.927
		C23.389,22.49,23.319,22.5,23.25,22.5z M4.5,20.25C4.5,20.664,4.837,21,5.25,21h6c2.068,0,3.75-1.682,3.75-3.75v-6
		c0-0.414,0.336-0.75,0.75-0.75h4.5c0.414,0,0.75-0.336,0.75-0.75v-6C21,3.336,20.664,3,20.25,3h-4.036l-1.549,3.097
		C13.77,7.888,11.971,9,9.969,9H4.5V20.25z M9.969,7.5c1.43,0,2.715-0.794,3.354-2.073L14.537,3H5.25C4.837,3,4.5,3.336,4.5,3.75
		V7.5H9.969z"/>
	<path d="M8.25,19.5c-0.414,0-0.75-0.336-0.75-0.75v-7.5c0-0.414,0.336-0.75,0.75-0.75h3c1.241,0,2.25,1.009,2.25,2.25v4.5
		c0,1.241-1.009,2.25-2.25,2.25H8.25z M11.25,18c0.414,0,0.75-0.336,0.75-0.75v-4.5c0-0.414-0.336-0.75-0.75-0.75H9v6H11.25z"/>
	<circle cx="18" cy="7.5" r="1.125"/>
</g>
</svg>
