<?xml version="1.0" encoding="utf-8"?>
<!-- Generator: Adobe Illustrator 22.1.0, SVG Export Plug-In . SVG Version: 6.00 Build 0)  -->
<svg version="1.1" id="Layer_1" xmlns="http://www.w3.org/2000/svg" xmlns:xlink="http://www.w3.org/1999/xlink" x="0px" y="0px"
	 viewBox="0 0 24 24" style="enable-background:new 0 0 24 24;" xml:space="preserve">
<title>tools-slip-joint-pliers</title>
<g>
	<path d="M17.625,22.058c-0.957,0-1.755-0.264-2.372-0.784c-2.318-1.957-6.225-3.607-7.45-3.607c-0.076,0-0.117,0.007-0.135,0.012
		c-0.316,0.086-0.649,0.131-0.983,0.131c-0.652,0-1.299-0.173-1.871-0.5c-0.876-0.501-1.505-1.313-1.771-2.287
		c-0.014-0.052-0.027-0.103-0.039-0.155c-0.058-0.253,0.017-0.514,0.201-0.697l3.972-3.971L5.768,8.787
		c-0.142-0.142-0.33-0.22-0.531-0.22c-0.2,0-0.389,0.078-0.53,0.22l-2.121,2.124c-0.142,0.142-0.33,0.22-0.531,0.22
		c-0.2,0-0.389-0.078-0.53-0.22c-1.843-1.844-2.064-4.709-0.524-6.812c0.828-1.132,2.047-1.873,3.433-2.088
		c0.27-0.042,0.543-0.063,0.814-0.063c1.115,0,2.183,0.351,3.09,1.015C8.75,3.275,9.231,3.442,9.736,3.45h9.002
		c1.24,0,2.248,1.008,2.25,2.247h1.5v-1.5c0-0.414,0.336-0.75,0.75-0.75s0.75,0.336,0.75,0.75v4.5c0,0.414-0.336,0.75-0.75,0.75
		s-0.75-0.336-0.75-0.75v-1.5h-1.5V7.2c0,1.241-1.009,2.25-2.25,2.25h-2.693l-4.34,4.339c3.755,1.648,8.204,4.07,9.229,6.632
		c0.147,0.367-0.018,0.787-0.376,0.956C20.411,21.447,19.081,22.057,17.625,22.058L17.625,22.058z M7.775,16.172
		c1.863,0,6.125,1.996,8.447,3.955c0.34,0.287,0.811,0.432,1.402,0.432c0.554,0,1.113-0.128,1.534-0.256
		c-1.932-2.662-8.634-5.493-11.172-6.396C7.687,13.8,7.487,13.516,7.487,13.2v-1.189l-2.898,2.898
		c0.351,0.833,1.186,1.398,2.102,1.398c0.201,0,0.403-0.027,0.599-0.081C7.437,16.19,7.597,16.172,7.775,16.172z M8.987,12.677
		c0.292,0.11,0.715,0.274,1.226,0.482l3.71-3.709H9.98c-0.25,0.523-0.59,1.01-0.993,1.42V12.677z M5.247,3.448
		c-0.194,0-0.39,0.015-0.583,0.045c-0.99,0.153-1.861,0.683-2.452,1.491c-0.939,1.283-0.965,2.99-0.104,4.283l1.538-1.541
		c0.425-0.425,0.99-0.659,1.591-0.66c0.602,0,1.166,0.234,1.591,0.658l1.538,1.538c0.169-0.255,0.307-0.531,0.408-0.815
		C8.88,8.151,9.164,7.95,9.48,7.95h9.257c0.414,0,0.75-0.336,0.75-0.75V5.7c0-0.414-0.336-0.75-0.75-0.75H9.724
		C8.888,4.937,8.1,4.666,7.442,4.165C6.803,3.698,6.042,3.448,5.247,3.448z"/>
</g>
</svg>
