<?xml version="1.0" encoding="utf-8"?>
<!-- Generator: Adobe Illustrator 22.1.0, SVG Export Plug-In . SVG Version: 6.00 Build 0)  -->
<svg version="1.1" id="Layer_1" xmlns="http://www.w3.org/2000/svg" xmlns:xlink="http://www.w3.org/1999/xlink" x="0px" y="0px"
	 viewBox="0 0 24 24" style="enable-background:new 0 0 24 24;" xml:space="preserve">
<title>tools-keys</title>
<g>
	<path d="M8.255,24.017c-1.241,0-2.25-1.009-2.25-2.25v-6.098c-1.303-0.338-2.25-1.532-2.25-2.902c0-1.654,1.346-3,3-3
		c0.482,0,0.958,0.119,1.384,0.341c0.295-0.924,1.031-1.661,1.955-1.957C9.871,7.726,9.755,7.256,9.755,6.767c0-1.654,1.346-3,3-3
		c1.37,0,2.564,0.947,2.902,2.25h6.098c0.414,0,0.75-0.336,0.75-0.75v-1.5c0-0.414,0.336-0.75,0.75-0.75s0.75,0.336,0.75,0.75v1.5
		c0,1.241-1.009,2.25-2.25,2.25h-6.098c-0.259,1.005-1.02,1.801-1.998,2.11c0.223,0.424,0.339,0.894,0.339,1.383
		c0,0.54-0.144,1.06-0.418,1.521l4.312,4.312c0.141,0.141,0.33,0.219,0.53,0.219s0.389-0.078,0.53-0.219l1.062-1.058
		c0.141-0.141,0.329-0.219,0.529-0.219c0.201,0,0.389,0.078,0.531,0.221c0.292,0.293,0.291,0.769-0.002,1.061l-1.061,1.057
		c-0.424,0.424-0.988,0.657-1.59,0.657s-1.167-0.234-1.591-0.658l-4.312-4.312c-0.461,0.274-0.981,0.418-1.521,0.418
		c-0.489,0-0.959-0.116-1.383-0.339c-0.309,0.978-1.104,1.739-2.11,1.998v6.098c0,0.414,0.336,0.75,0.75,0.75h1.5
		c0.414,0,0.75,0.336,0.75,0.75s-0.336,0.75-0.75,0.75H8.255z M6.755,11.267c-0.827,0-1.5,0.673-1.5,1.5s0.673,1.5,1.5,1.5
		s1.5-0.673,1.5-1.5S7.582,11.267,6.755,11.267z M10.998,9.51c-0.827,0-1.5,0.673-1.5,1.5s0.673,1.5,1.5,1.5s1.5-0.673,1.5-1.5
		S11.825,9.51,10.998,9.51z M12.755,5.267c-0.827,0-1.5,0.673-1.5,1.5s0.673,1.5,1.5,1.5s1.5-0.673,1.5-1.5
		S13.582,5.267,12.755,5.267z"/>
	<path d="M2.071,11.267c-0.229,0-0.442-0.102-0.585-0.28c-2.332-2.901-1.87-7.158,1.031-9.49c1.186-0.953,2.688-1.479,4.23-1.479
		c1.541,0,3.042,0.525,4.228,1.477c0.322,0.259,0.374,0.732,0.115,1.054c-0.143,0.178-0.356,0.28-0.585,0.28
		c-0.17,0-0.337-0.059-0.47-0.165c-0.921-0.74-2.089-1.148-3.288-1.148c-1.2,0-2.368,0.408-3.29,1.149
		c-2.256,1.814-2.616,5.125-0.802,7.381c0.125,0.156,0.183,0.352,0.161,0.551c-0.022,0.199-0.12,0.378-0.276,0.504
		C2.408,11.208,2.241,11.267,2.071,11.267z"/>
</g>
</svg>
