<?xml version="1.0" encoding="utf-8"?>
<!-- Generator: Adobe Illustrator 22.1.0, SVG Export Plug-In . SVG Version: 6.00 Build 0)  -->
<svg version="1.1" id="Layer_1" xmlns="http://www.w3.org/2000/svg" xmlns:xlink="http://www.w3.org/1999/xlink" x="0px" y="0px"
	 viewBox="0 0 24 24" style="enable-background:new 0 0 24 24;" xml:space="preserve">
<title>tools-box</title>
<g>
	<path d="M3.75,24C1.682,24,0,22.318,0,20.25v-12C0,6.182,1.682,4.5,3.75,4.5H7.5V2.25C7.5,1.009,8.509,0,9.75,0h4.5
		c1.241,0,2.25,1.009,2.25,2.25V4.5h3.75C22.318,4.5,24,6.182,24,8.25v12c0,2.068-1.682,3.75-3.75,3.75H3.75z M3.75,6
		C2.509,6,1.5,7.009,1.5,8.25v12c0,1.241,1.009,2.25,2.25,2.25h16.5c1.241,0,2.25-1.009,2.25-2.25v-12C22.5,7.009,21.491,6,20.25,6
		H3.75z M15,4.5V2.25c0-0.414-0.336-0.75-0.75-0.75h-4.5C9.336,1.5,9,1.836,9,2.25V4.5H15z"/>
	<path d="M12,16.5c-1.241,0-2.25-1.009-2.25-2.25S10.759,12,12,12c1.241,0,2.25,1.009,2.25,2.25S13.241,16.5,12,16.5z M12,13.5
		c-0.414,0-0.75,0.336-0.75,0.75S11.586,15,12,15s0.75-0.336,0.75-0.75S12.414,13.5,12,13.5z"/>
	<path d="M11.999,21.751c-0.202,0-0.402-0.03-0.597-0.088c-0.672-0.201-1.193-0.723-1.395-1.395l-0.441-1.45
		c-0.031-0.103-0.128-0.174-0.235-0.174c-0.018,0-0.036,0.002-0.054,0.006l-1.47,0.34c-0.155,0.035-0.312,0.053-0.468,0.053
		c-0.393,0-0.778-0.112-1.112-0.324c-0.472-0.298-0.799-0.762-0.922-1.306c-0.152-0.673,0.038-1.377,0.508-1.882l1.031-1.111
		c0.089-0.096,0.089-0.245,0.001-0.341l-1.032-1.112c-0.784-0.843-0.736-2.168,0.108-2.952c0.388-0.361,0.893-0.559,1.422-0.559
		c0.154,0,0.309,0.017,0.459,0.051L9.279,9.85c0.018,0.004,0.036,0.006,0.054,0.006c0.106,0,0.202-0.072,0.233-0.174l0.442-1.454
		c0.261-0.871,1.081-1.48,1.993-1.48c0.201,0,0.402,0.029,0.596,0.088c0.672,0.202,1.194,0.723,1.395,1.395l0.441,1.451
		c0.031,0.103,0.128,0.174,0.236,0.174c0.018,0,0.036-0.002,0.053-0.006l1.47-0.341c0.154-0.035,0.309-0.052,0.463-0.052
		c0.969,0,1.826,0.685,2.039,1.63c0.152,0.673-0.038,1.376-0.508,1.882l-1.031,1.111c-0.089,0.096-0.089,0.245,0,0.341l1.031,1.112
		c0.38,0.408,0.578,0.94,0.557,1.498c-0.02,0.557-0.256,1.073-0.665,1.454c-0.388,0.361-0.893,0.559-1.422,0.559l0,0
		c-0.155,0-0.309-0.017-0.46-0.052l-1.477-0.342c-0.016-0.004-0.034-0.006-0.052-0.006c-0.107,0-0.204,0.071-0.235,0.174
		l-0.443,1.454C13.73,21.142,12.911,21.751,11.999,21.751z M9.33,17.144c0.764,0,1.451,0.51,1.672,1.239l0.442,1.452
		c0.057,0.19,0.203,0.336,0.39,0.392c0.055,0.016,0.111,0.024,0.167,0.024c0.096,0,0.188-0.023,0.275-0.07
		c0.136-0.073,0.236-0.196,0.28-0.344l0.443-1.456c0.22-0.729,0.907-1.238,1.671-1.238c0.13,0,0.26,0.015,0.388,0.044l1.474,0.342
		c0.039,0.009,0.082,0.013,0.125,0.013c0.149,0,0.291-0.056,0.401-0.158c0.115-0.107,0.182-0.253,0.188-0.41
		c0.006-0.157-0.05-0.307-0.157-0.423l-1.031-1.112c-0.621-0.668-0.621-1.715,0-2.383l1.031-1.111
		c0.133-0.143,0.187-0.341,0.144-0.531c-0.034-0.153-0.127-0.284-0.26-0.368c-0.094-0.06-0.203-0.091-0.313-0.091
		c-0.044,0-0.088,0.005-0.131,0.015l-1.468,0.34c-0.128,0.029-0.259,0.044-0.389,0.044c-0.764,0-1.451-0.509-1.672-1.239
		l-0.443-1.455c-0.056-0.187-0.202-0.333-0.389-0.389c-0.054-0.016-0.11-0.024-0.165-0.024c-0.255,0-0.484,0.17-0.557,0.414
		l-0.443,1.456c-0.22,0.729-0.907,1.238-1.671,1.238c-0.13,0-0.261-0.015-0.389-0.044l-1.473-0.341
		c-0.04-0.009-0.083-0.014-0.126-0.014c-0.149,0-0.291,0.056-0.401,0.158c-0.115,0.107-0.181,0.253-0.187,0.41
		c-0.006,0.158,0.05,0.308,0.157,0.422l1.031,1.112c0.621,0.668,0.621,1.715-0.001,2.383l-1.03,1.111
		c-0.133,0.143-0.187,0.341-0.144,0.531c0.035,0.153,0.127,0.284,0.26,0.368c0.095,0.06,0.203,0.091,0.313,0.091
		c0.044,0,0.088-0.005,0.132-0.015l1.467-0.34C9.069,17.159,9.2,17.144,9.33,17.144z"/>
</g>
</svg>
