<?xml version="1.0" encoding="utf-8"?>
<!-- Generator: Adobe Illustrator 22.1.0, SVG Export Plug-In . SVG Version: 6.00 Build 0)  -->
<svg version="1.1" id="Layer_1" xmlns="http://www.w3.org/2000/svg" xmlns:xlink="http://www.w3.org/1999/xlink" x="0px" y="0px"
	 viewBox="0 0 24 24" style="enable-background:new 0 0 24 24;" xml:space="preserve">
<title>tools-hammer-1</title>
<g>
	<path d="M2.454,23.629c-0.602,0-1.167-0.234-1.591-0.658c-0.877-0.877-0.877-2.305,0-3.183L12.163,8.489l-1.816-3.995
		c-0.5-1.1-0.262-2.413,0.593-3.267c0.541-0.542,1.295-0.853,2.067-0.853c0.419,0,0.824,0.088,1.204,0.261l4.468,2.031
		c0.082,0.037,0.156,0.089,0.219,0.152l4.24,4.244c0.876,0.877,0.876,2.304,0,3.181l-3.182,3.182
		c-0.424,0.425-0.989,0.659-1.59,0.659c-0.602,0-1.166-0.234-1.591-0.658l-1.592-1.592L4.045,22.971
		C3.621,23.395,3.056,23.629,2.454,23.629z M1.923,20.849c-0.292,0.293-0.292,0.769,0,1.062c0.141,0.141,0.33,0.219,0.531,0.219
		s0.389-0.078,0.531-0.219l11.137-11.137l-1.061-1.061L1.923,20.849z M17.833,12.364c0.146,0.143,0.332,0.219,0.53,0.219
		c0.201,0,0.389-0.078,0.531-0.219l3.182-3.182c0.292-0.292,0.292-0.768,0-1.061l-4.143-4.147L13.59,2
		c-0.184-0.084-0.381-0.127-0.584-0.127c-0.376,0-0.742,0.151-1.005,0.414c-0.415,0.415-0.531,1.052-0.288,1.585l1.975,4.345
		L17.833,12.364z"/>
</g>
</svg>
