<?xml version="1.0" encoding="utf-8"?>
<!-- Generator: Adobe Illustrator 22.1.0, SVG Export Plug-In . SVG Version: 6.00 Build 0)  -->
<svg version="1.1" id="Layer_1" xmlns="http://www.w3.org/2000/svg" xmlns:xlink="http://www.w3.org/1999/xlink" x="0px" y="0px"
	 viewBox="0 0 24 24" style="enable-background:new 0 0 24 24;" xml:space="preserve">
<title>tools-axe-hold</title>
<g>
	<path d="M18.066,24c-0.2,0-0.389-0.078-0.53-0.22c0,0-2.705-2.705-2.708-2.709c-0.858-0.868-0.853-2.291,0.019-3.163
		c0.376-0.376,0.583-0.877,0.583-1.409c0-0.532-0.207-1.032-0.583-1.409l-1.281-1.281l-1.682,1.683
		c0.76,1.436,0.503,3.245-0.659,4.408l-2.508,2.508c-0.707,0.707-1.649,1.096-2.651,1.096s-1.944-0.389-2.651-1.096l-2.068-2.068
		c-0.878-0.878-0.877-2.306,0-3.183l4.629-4.628c0.423-0.423,0.987-0.657,1.588-0.657c0.086,0,0.172,0.005,0.257,0.014
		c0.021-0.665,0.243-1.305,0.646-1.84c0.015-0.019,0.028-0.036,0.042-0.051c0.426-0.475,1.04-0.749,1.683-0.749
		c0.558,0,1.094,0.205,1.508,0.576C11.762,9.88,11.82,9.939,11.875,10l1.691,1.69l0.595-0.595l-0.729-0.729L9.041,8.171
		C8.766,8.034,8.6,7.736,8.629,7.429c0.18-1.906,1.056-3.666,2.466-4.96c1.294-1.41,3.054-2.286,4.96-2.466
		C16.08,0.001,16.102,0,16.125,0c0.287,0,0.544,0.159,0.672,0.414l2.195,4.39l0.729,0.729l0.814-0.814
		c0.142-0.142,0.33-0.22,0.53-0.22s0.389,0.078,0.53,0.22c0.142,0.141,0.22,0.33,0.22,0.53s-0.078,0.389-0.22,0.53l-0.814,0.814
		l1.874,1.874c0.425,0.425,0.659,0.99,0.659,1.591c0,0.601-0.234,1.166-0.659,1.591l-2.379,2.379
		c-0.424,0.424-0.989,0.658-1.591,0.658s-1.167-0.234-1.591-0.658l-1.874-1.874l-0.595,0.595l1.281,1.281
		c0.66,0.659,1.023,1.536,1.023,2.469c0,0.933-0.363,1.81-1.023,2.469c-0.293,0.293-0.293,0.769-0.001,1.061l2.689,2.69
		c0.142,0.142,0.22,0.33,0.22,0.53s-0.078,0.389-0.22,0.53S18.266,24,18.066,24z M7.566,13.372c-0.201,0-0.389,0.078-0.53,0.219
		l-4.629,4.628c-0.293,0.292-0.293,0.768,0,1.061l2.068,2.069c0.424,0.424,0.989,0.657,1.59,0.657c0.602,0,1.167-0.234,1.591-0.657
		l2.508-2.508c0.877-0.877,0.877-2.304,0-3.182l-2.068-2.068C7.955,13.45,7.767,13.372,7.566,13.372z M10.941,14.315l1.564-1.565
		l-1.72-1.72c-0.043-0.046-0.064-0.068-0.087-0.088c-0.14-0.125-0.32-0.194-0.508-0.194c-0.206,0-0.405,0.084-0.547,0.231
		c-0.435,0.602-0.435,1.432-0.002,2.037L10.941,14.315z M18.156,12.969c0.141,0.141,0.33,0.219,0.53,0.219s0.389-0.078,0.53-0.219
		l2.379-2.379c0.292-0.292,0.292-0.768,0-1.06l-3.75-3.75c-0.057-0.056-0.104-0.122-0.14-0.194l-2.01-4.02
		c-1.349,0.24-2.589,0.922-3.514,1.94c-0.014,0.016-0.031,0.033-0.049,0.05C11.113,4.48,10.43,5.72,10.191,7.069l4.021,2.009
		c0.073,0.037,0.138,0.084,0.195,0.141c0,0,1.357,1.356,1.362,1.362L18.156,12.969z"/>
</g>
</svg>
