<?xml version="1.0" encoding="utf-8"?>
<!-- Generator: Adobe Illustrator 22.1.0, SVG Export Plug-In . SVG Version: 6.00 Build 0)  -->
<svg version="1.1" id="Layer_1" xmlns="http://www.w3.org/2000/svg" xmlns:xlink="http://www.w3.org/1999/xlink" x="0px" y="0px"
	 viewBox="0 0 24 24" style="enable-background:new 0 0 24 24;" xml:space="preserve">
<title>tools-flattener-triangle-1</title>
<g>
	<path d="M12.323,16.613c-0.2,0-0.389-0.078-0.53-0.22c-0.142-0.142-0.22-0.33-0.22-0.53s0.078-0.389,0.22-0.53l2.964-2.964
		c0.249-0.251,0.248-0.661-0.002-0.914l-2.299-2.235c-0.058-0.047-0.115-0.097-0.17-0.151l-0.954-0.954
		c-0.409-0.408-0.634-0.952-0.634-1.529c0-0.578,0.225-1.121,0.634-1.529l4.425-4.425c0.408-0.409,0.951-0.634,1.529-0.634
		s1.121,0.225,1.53,0.634l0.954,0.954c0.843,0.844,0.843,2.216,0,3.059l-4.425,4.425c-0.151,0.151-0.321,0.277-0.506,0.377
		l0.971,0.945c0.836,0.842,0.838,2.203,0.009,3.038l-2.966,2.966C12.711,16.535,12.523,16.613,12.323,16.613z M13.415,8.061
		c0.116,0.089,0.26,0.138,0.406,0.138c0.175,0,0.339-0.068,0.463-0.191l4.425-4.425c0.258-0.259,0.258-0.679,0-0.938l-0.954-0.954
		c-0.125-0.125-0.292-0.193-0.469-0.193s-0.344,0.069-0.469,0.194l-4.425,4.425c-0.125,0.125-0.194,0.292-0.194,0.469
		c0,0.177,0.069,0.344,0.194,0.469l0.473,0.473L13.415,8.061z"/>
	<path d="M6.383,23.936c-0.234,0-0.463-0.038-0.683-0.112c-1.117-0.378-1.717-1.594-1.339-2.711l3.481-9.392
		c0.097-0.29,0.271-0.571,0.5-0.803c0.407-0.412,0.95-0.639,1.531-0.639c0.569,0,1.105,0.22,1.51,0.618l1.104,1.104
		c0.292,0.292,0.292,0.768,0,1.061c-0.142,0.142-0.33,0.22-0.53,0.22s-0.389-0.078-0.53-0.22l-1.1-1.1
		c-0.119-0.118-0.281-0.183-0.452-0.183c-0.176,0-0.34,0.069-0.463,0.193c-0.069,0.07-0.122,0.156-0.153,0.249l-3.482,9.394
		c-0.107,0.318,0.074,0.676,0.407,0.789c0.066,0.022,0.135,0.034,0.205,0.034s0.139-0.011,0.204-0.033l9.356-3.464
		c0.356-0.12,0.544-0.491,0.429-0.831c-0.031-0.093-0.084-0.179-0.153-0.249l-1.197-1.197c-0.142-0.142-0.22-0.33-0.22-0.53
		s0.078-0.389,0.22-0.53s0.33-0.22,0.53-0.22s0.389,0.078,0.53,0.22l1.2,1.2c0.231,0.234,0.407,0.519,0.511,0.827
		c0.378,1.124-0.228,2.345-1.352,2.724l-9.354,3.463C6.857,23.897,6.621,23.936,6.383,23.936z"/>
</g>
</svg>
