<?xml version="1.0" encoding="utf-8"?>
<!-- Generator: Adobe Illustrator 22.1.0, SVG Export Plug-In . SVG Version: 6.00 Build 0)  -->
<svg version="1.1" id="Regular" xmlns="http://www.w3.org/2000/svg" xmlns:xlink="http://www.w3.org/1999/xlink" x="0px" y="0px"
	 viewBox="0 0 24 24" style="enable-background:new 0 0 24 24;" xml:space="preserve">
<title>torch</title>
<g>
	<path d="M12.282,10.879c-2.297,0-4.166-1.867-4.166-4.161c-0.093-1.416,0.673-2.8,1.953-3.5c0.11-0.06,0.234-0.092,0.36-0.092
		c0.115,0,0.231,0.027,0.335,0.079c0.22,0.11,0.372,0.32,0.407,0.563c0.024,0.164,0.117,0.306,0.248,0.396
		c0.357-0.993,0.165-2.113-0.522-2.932c-0.211-0.251-0.234-0.606-0.059-0.883C10.976,0.13,11.213,0,11.471,0
		c0.064,0,0.128,0.008,0.191,0.025c3.025,0.791,5.033,3.627,4.774,6.743c-0.037,2.263-1.86,4.08-4.148,4.111
		C12.286,10.879,12.284,10.879,12.282,10.879z M10.165,5.037C9.778,5.485,9.576,6.07,9.615,6.669c0.001,1.505,1.195,2.71,2.662,2.71
		c1.469-0.02,2.64-1.194,2.66-2.671c0.001-0.025,0.002-0.044,0.004-0.063c0.146-1.714-0.593-3.331-1.928-4.334
		c0.198,1.044,0.024,2.14-0.512,3.074c-0.124,0.216-0.345,0.356-0.593,0.375c-0.054,0.004-0.108,0.006-0.161,0.006
		C11.128,5.767,10.556,5.496,10.165,5.037z"/>
	<path d="M10.342,24c-0.743,0-1.381-0.554-1.485-1.289l-1.286-8.999c-0.117-0.818,0.454-1.58,1.273-1.697
		C8.912,12.005,8.984,12,9.056,12h5.771c0.4,0,0.777,0.156,1.06,0.44c0.283,0.284,0.439,0.66,0.439,1.061
		c0,0.07-0.005,0.139-0.015,0.209l-1.285,9.002C14.922,23.446,14.284,24,13.543,24C13.542,24,10.342,24,10.342,24z M10.343,22.5
		h3.199l1.285-9l-5.768,0L10.343,22.5z"/>
</g>
</svg>
