<?xml version="1.0" encoding="utf-8"?>
<!-- Generator: Adobe Illustrator 22.1.0, SVG Export Plug-In . SVG Version: 6.00 Build 0)  -->
<svg version="1.1" id="Layer_1" xmlns="http://www.w3.org/2000/svg" xmlns:xlink="http://www.w3.org/1999/xlink" x="0px" y="0px"
	 viewBox="0 0 24 24" style="enable-background:new 0 0 24 24;" xml:space="preserve">
<title>tower</title>
<g>
	<path d="M0.75,23.689c-0.414,0-0.75-0.336-0.75-0.75s0.336-0.75,0.75-0.75h3.914L7.5,10.847V7.189H6.75
		c-0.292,0-0.56-0.172-0.682-0.438C5.946,6.485,5.991,6.17,6.182,5.949l4.72-5.469c0.012-0.014,0.024-0.027,0.038-0.04
		C11.223,0.156,11.6,0,12,0c0.401,0,0.778,0.156,1.061,0.44c0.013,0.014,0.024,0.025,0.035,0.038l4.722,5.471
		c0.191,0.222,0.236,0.536,0.114,0.802c-0.123,0.266-0.39,0.438-0.682,0.438H16.5v3.658l2.835,11.342h3.915
		c0.414,0,0.75,0.336,0.75,0.75s-0.336,0.75-0.75,0.75H0.75z M17.79,22.189l-0.221-0.884L12,17.964l-5.568,3.341l-0.221,0.884H17.79
		z M17.054,19.247l-0.938-3.752l-2.658,1.595L17.054,19.247z M6.946,19.247l3.596-2.158l-2.658-1.595L6.946,19.247z M12,16.215
		l3.736-2.241l-0.571-2.285H8.836l-0.571,2.285L12,16.215z M15,10.189v-3H9v3H15z M15.612,5.689L12,1.504L8.388,5.689H15.612z"/>
</g>
</svg>
