<?xml version="1.0" encoding="utf-8"?>
<!-- Generator: Adobe Illustrator 22.1.0, SVG Export Plug-In . SVG Version: 6.00 Build 0)  -->
<svg version="1.1" id="Layer_1" xmlns="http://www.w3.org/2000/svg" xmlns:xlink="http://www.w3.org/1999/xlink" x="0px" y="0px"
	 viewBox="0 0 24 24" style="enable-background:new 0 0 24 24;" xml:space="preserve">
<title>toys-ping-pong</title>
<g>
	<path d="M12,10.5c-1.654,0-3-1.346-3-3s1.346-3,3-3c1.654,0,3,1.346,3,3S13.654,10.5,12,10.5z M12,6c-0.827,0-1.5,0.673-1.5,1.5
		S11.173,9,12,9s1.5-0.673,1.5-1.5S12.827,6,12,6z"/>
	<path d="M13.5,24c-0.414,0-0.75-0.336-0.75-0.75v-8.288C12.5,14.987,12.249,15,12,15s-0.5-0.013-0.75-0.038v8.288
		c0,0.414-0.336,0.75-0.75,0.75s-0.75-0.336-0.75-0.75v-8.597c-2.687-0.847-4.681-3.152-5.145-5.912
		c-0.53,0.42-0.854,1.067-0.855,1.76v6.127c0.885,0.313,1.5,1.161,1.5,2.121C5.25,19.991,4.241,21,3,21s-2.25-1.009-2.25-2.25
		c0-0.96,0.615-1.808,1.5-2.121V10.5c0.002-1.501,0.903-2.852,2.265-3.439C4.745,3.145,8.051,0,12,0s7.255,3.145,7.485,7.061
		c1.363,0.587,2.263,1.938,2.265,3.438v6.13c0.885,0.314,1.5,1.162,1.5,2.121c0,1.241-1.009,2.25-2.25,2.25s-2.25-1.009-2.25-2.25
		c0-0.96,0.615-1.808,1.5-2.121V10.5c-0.001-0.692-0.325-1.339-0.855-1.759c-0.464,2.76-2.458,5.066-5.145,5.913v8.597
		C14.25,23.664,13.914,24,13.5,24z M21,18c-0.414,0-0.75,0.336-0.75,0.75S20.586,19.5,21,19.5s0.75-0.336,0.75-0.75S21.414,18,21,18
		z M3,18c-0.414,0-0.75,0.336-0.75,0.75S2.586,19.5,3,19.5s0.75-0.336,0.75-0.75S3.414,18,3,18z M12,1.5c-3.308,0-6,2.692-6,6
		s2.692,6,6,6c3.308,0,6-2.692,6-6S15.308,1.5,12,1.5z"/>
</g>
</svg>
