<?xml version="1.0" encoding="utf-8"?>
<!-- Generator: Adobe Illustrator 22.1.0, SVG Export Plug-In . SVG Version: 6.00 Build 0)  -->
<svg version="1.1" id="Layer_1" xmlns="http://www.w3.org/2000/svg" xmlns:xlink="http://www.w3.org/1999/xlink" x="0px" y="0px"
	 viewBox="0 0 24 24" style="enable-background:new 0 0 24 24;" xml:space="preserve">
<title>toys-fidget-spinner</title>
<g>
	<path d="M4.548,23.995c-1.264,0-2.439-0.519-3.306-1.46c-0.814-0.883-1.235-2.031-1.186-3.234c0.049-1.202,0.562-2.313,1.445-3.126
		l5.273-4.745c0.473-0.426,0.745-1.036,0.745-1.673V4.514c0-2.481,2.019-4.5,4.5-4.5c2.481,0,4.5,2.019,4.5,4.5v5.243
		c0,0.637,0.271,1.247,0.745,1.673l5.23,4.707c0.014,0.011,0.028,0.023,0.042,0.036c1.812,1.671,1.958,4.429,0.331,6.281
		c-0.794,0.903-1.892,1.443-3.091,1.521c-0.098,0.006-0.196,0.009-0.293,0.009c-1.092,0-2.146-0.398-2.968-1.12l-2.991-2.692
		c-0.415-0.374-0.95-0.58-1.505-0.58s-1.09,0.206-1.505,0.58L7.53,22.859C6.696,23.592,5.638,23.995,4.548,23.995L4.548,23.995z
		 M12.019,1.514c-1.654,0-3,1.346-3,3v5.243c0,1.062-0.452,2.078-1.241,2.787l-5.266,4.739c-0.584,0.538-0.925,1.277-0.957,2.079
		c-0.032,0.802,0.248,1.568,0.791,2.156c0.58,0.629,1.363,0.975,2.205,0.975c0.725,0,1.429-0.268,1.983-0.755l2.977-2.682
		c0.692-0.623,1.583-0.966,2.509-0.966c0.926,0,1.817,0.343,2.509,0.965l2.984,2.686c0.542,0.476,1.243,0.74,1.971,0.74
		c0.866,0,1.688-0.372,2.257-1.019c1.072-1.22,0.988-3.044-0.19-4.159c-0.008-0.006-0.015-0.012-0.022-0.019l-5.268-4.74
		c-0.789-0.71-1.241-1.726-1.241-2.787V4.514C15.019,2.86,13.673,1.514,12.019,1.514z"/>
	<path d="M12.019,16.514c-1.654,0-3-1.346-3-3c0-1.654,1.346-3,3-3c1.654,0,3,1.346,3,3C15.019,15.168,13.673,16.514,12.019,16.514z
		 M12.019,12.014c-0.827,0-1.5,0.673-1.5,1.5s0.673,1.5,1.5,1.5s1.5-0.673,1.5-1.5S12.846,12.014,12.019,12.014z"/>
	<path d="M12.019,5.639c-0.044,0-0.088-0.004-0.131-0.012c-0.513-0.06-0.922-0.47-0.982-0.982c-0.008-0.043-0.012-0.087-0.012-0.131
		s0.004-0.088,0.012-0.131c0.06-0.513,0.47-0.922,0.982-0.982c0.043-0.008,0.087-0.012,0.131-0.012s0.088,0.004,0.131,0.012
		c0.513,0.06,0.922,0.47,0.983,0.983c0.007,0.042,0.011,0.086,0.011,0.13s-0.004,0.088-0.011,0.13
		c-0.061,0.513-0.47,0.922-0.983,0.983C12.106,5.635,12.062,5.639,12.019,5.639z"/>
	<path d="M19.519,20.639c-0.044,0-0.088-0.004-0.13-0.011c-0.513-0.06-0.923-0.47-0.983-0.983c-0.007-0.042-0.011-0.086-0.011-0.13
		s0.004-0.088,0.011-0.131c0.06-0.513,0.47-0.923,0.983-0.983c0.042-0.008,0.086-0.011,0.131-0.011s0.088,0.004,0.131,0.011
		c0.513,0.06,0.923,0.47,0.983,0.983c0.008,0.042,0.011,0.086,0.011,0.131s-0.004,0.088-0.011,0.131
		c-0.06,0.513-0.47,0.923-0.983,0.983C19.607,20.635,19.563,20.639,19.519,20.639z"/>
	<path d="M4.519,20.639c-0.044,0-0.088-0.004-0.13-0.011c-0.513-0.06-0.923-0.47-0.983-0.982c-0.008-0.043-0.011-0.087-0.011-0.131
		s0.004-0.088,0.011-0.131c0.06-0.513,0.47-0.922,0.983-0.983c0.042-0.007,0.086-0.011,0.13-0.011s0.088,0.004,0.13,0.011
		c0.513,0.061,0.923,0.47,0.983,0.983c0.008,0.043,0.011,0.087,0.011,0.131s-0.004,0.088-0.011,0.131
		c-0.06,0.513-0.47,0.922-0.983,0.982C4.607,20.635,4.563,20.639,4.519,20.639z"/>
</g>
</svg>
