<?xml version="1.0" encoding="utf-8"?>
<!-- Generator: Adobe Illustrator 22.1.0, SVG Export Plug-In . SVG Version: 6.00 Build 0)  -->
<svg version="1.1" id="Layer_1" xmlns="http://www.w3.org/2000/svg" xmlns:xlink="http://www.w3.org/1999/xlink" x="0px" y="0px"
	 viewBox="0 0 24 24" style="enable-background:new 0 0 24 24;" xml:space="preserve">
<title>toys-racquet</title>
<g>
	<path d="M12,21.016c-1.718,0-3.385-0.516-4.822-1.493c-0.342-0.232-0.431-0.7-0.199-1.042c0.14-0.206,0.372-0.329,0.62-0.329
		c0.151,0,0.297,0.045,0.422,0.13c1.186,0.806,2.562,1.232,3.978,1.232s2.792-0.426,3.978-1.233c0.125-0.085,0.271-0.13,0.422-0.13
		c0.249,0,0.481,0.123,0.62,0.328c0.232,0.342,0.144,0.809-0.198,1.042C15.385,20.5,13.718,21.016,12,21.016z"/>
	<path d="M12,24.005c-0.74,0-1.476-0.118-2.189-0.35c-0.19-0.062-0.345-0.195-0.436-0.373S9.269,22.9,9.331,22.71
		c0.101-0.309,0.388-0.517,0.713-0.517c0.079,0,0.157,0.012,0.233,0.037c0.561,0.183,1.141,0.276,1.724,0.276
		c0.582,0,1.162-0.093,1.723-0.276c0.075-0.025,0.154-0.038,0.234-0.038c0.325,0,0.611,0.208,0.712,0.518
		c0.128,0.393-0.087,0.817-0.48,0.946C13.476,23.888,12.74,24.005,12,24.005z"/>
	<path d="M12,17.253c-3.722,0-6.75-3.028-6.75-6.75c0-3.452,2.608-6.332,6-6.708V0.753c0-0.414,0.336-0.75,0.75-0.75
		s0.75,0.336,0.75,0.75v3.042c3.392,0.376,6,3.256,6,6.708C18.75,14.225,15.722,17.253,12,17.253z M12,5.253
		c-2.895,0-5.25,2.355-5.25,5.25c0,2.895,2.355,5.25,5.25,5.25c2.895,0,5.25-2.355,5.25-5.25C17.25,7.608,14.895,5.253,12,5.253z"/>
	<path d="M12,14.253c-2.068,0-3.75-1.682-3.75-3.75c0-2.068,1.682-3.75,3.75-3.75c2.068,0,3.75,1.682,3.75,3.75
		C15.75,12.571,14.068,14.253,12,14.253z M12,8.253c-1.241,0-2.25,1.009-2.25,2.25s1.009,2.25,2.25,2.25
		c1.241,0,2.25-1.009,2.25-2.25S13.241,8.253,12,8.253z"/>
</g>
</svg>
