<?xml version="1.0" encoding="utf-8"?>
<!-- Generator: Adobe Illustrator 22.1.0, SVG Export Plug-In . SVG Version: 6.00 Build 0)  -->
<svg version="1.1" id="Layer_1" xmlns="http://www.w3.org/2000/svg" xmlns:xlink="http://www.w3.org/1999/xlink" x="0px" y="0px"
	 viewBox="0 0 24 24" style="enable-background:new 0 0 24 24;" xml:space="preserve">
<title>toys-teddy-bear</title>
<g>
	<path d="M12,12.75c-3.308,0-6-2.692-6-6c0.003-0.28,0.026-0.557,0.068-0.83C4.961,5.663,4.085,4.8,3.827,3.671
		C3.648,2.892,3.784,2.089,4.21,1.41S5.3,0.258,6.079,0.08C6.3,0.029,6.525,0.003,6.75,0.003c1.037,0,1.994,0.539,2.537,1.402
		c0.839-0.433,1.769-0.66,2.713-0.66c0.943,0,1.873,0.227,2.711,0.659c0.541-0.864,1.499-1.404,2.541-1.404
		c1.655,0.001,2.999,1.347,2.998,3c0,1.395-0.99,2.607-2.317,2.921c0.042,0.271,0.064,0.546,0.067,0.82
		C18,10.056,15.308,12.75,12,12.75z M7,4.475c0.22,0,0.428,0.096,0.571,0.264C7.739,4.935,7.793,5.21,7.714,5.456
		C7.577,5.877,7.506,6.316,7.5,6.759c0,2.474,2.019,4.491,4.5,4.491s4.5-2.019,4.5-4.5c-0.005-0.435-0.077-0.872-0.214-1.294
		c-0.08-0.245-0.025-0.52,0.143-0.717C16.572,4.571,16.78,4.475,17,4.475c0.039,0,0.077,0.003,0.116,0.009
		c0.056,0.009,0.113,0.014,0.17,0.017C18.085,4.499,18.75,3.826,18.75,3c0-0.826-0.671-1.499-1.497-1.499
		c-0.705,0-1.305,0.479-1.461,1.166c-0.056,0.247-0.231,0.447-0.469,0.536C15.239,3.234,15.15,3.25,15.06,3.25
		c-0.16,0-0.313-0.05-0.443-0.145C13.849,2.543,12.944,2.246,12,2.246s-1.849,0.297-2.617,0.859C9.254,3.2,9.101,3.25,8.94,3.25
		c-0.09,0-0.178-0.016-0.263-0.048C8.441,3.114,8.265,2.914,8.209,2.667c-0.154-0.674-0.768-1.164-1.46-1.164
		c-0.112,0-0.225,0.013-0.335,0.038C6.025,1.631,5.694,1.867,5.481,2.206c-0.213,0.339-0.281,0.741-0.192,1.13
		C5.446,4.022,6.046,4.5,6.749,4.5C6.773,4.498,6.83,4.492,6.886,4.484C6.924,4.478,6.962,4.475,7,4.475z"/>
	<path d="M9.75,7.125c-0.044,0-0.088-0.004-0.131-0.012c-0.513-0.06-0.922-0.47-0.982-0.982C8.629,6.088,8.625,6.044,8.625,6
		s0.004-0.088,0.012-0.131c0.06-0.513,0.47-0.922,0.982-0.982C9.662,4.879,9.706,4.875,9.75,4.875s0.088,0.004,0.131,0.012
		c0.513,0.06,0.922,0.47,0.982,0.982C10.871,5.912,10.875,5.956,10.875,6s-0.004,0.088-0.012,0.131
		c-0.06,0.513-0.47,0.922-0.982,0.982C9.838,7.121,9.794,7.125,9.75,7.125z"/>
	<path d="M14.25,7.125c-0.044,0-0.088-0.004-0.131-0.011c-0.513-0.06-0.922-0.47-0.982-0.983C13.129,6.088,13.125,6.044,13.125,6
		s0.004-0.088,0.011-0.13c0.06-0.513,0.47-0.923,0.982-0.983c0.043-0.008,0.087-0.011,0.131-0.011s0.088,0.004,0.131,0.011
		c0.513,0.06,0.922,0.47,0.983,0.983c0.007,0.042,0.011,0.086,0.011,0.13s-0.004,0.088-0.011,0.13
		c-0.061,0.513-0.47,0.923-0.983,0.983C14.338,7.121,14.294,7.125,14.25,7.125z"/>
	<path d="M17.25,24c-1.867,0-3.437-1.396-3.707-3.199c-0.503,0.135-1.019,0.202-1.539,0.202c-0.523,0-1.041-0.069-1.547-0.205
		C10.189,22.603,8.619,24,6.75,24C4.682,24,3,22.318,3,20.25c0-1.868,1.396-3.438,3.2-3.707C6.066,16.038,5.999,15.52,6,14.998
		c0-0.119,0.005-0.243,0.013-0.377l-3.844-1.712c-0.732-0.326-1.293-0.918-1.58-1.666c-0.287-0.748-0.266-1.563,0.06-2.295
		c0.326-0.732,0.918-1.293,1.666-1.58c0.347-0.133,0.709-0.201,1.076-0.201c0.42,0,0.831,0.088,1.22,0.261
		c0.183,0.081,0.323,0.229,0.395,0.416C5.077,8.031,5.072,8.235,4.99,8.418c-0.12,0.27-0.389,0.445-0.685,0.445
		C4.199,8.863,4.097,8.841,4,8.798C3.807,8.712,3.603,8.669,3.393,8.669c-0.594,0-1.133,0.349-1.374,0.89
		c-0.163,0.366-0.174,0.774-0.03,1.148c0.144,0.374,0.424,0.67,0.79,0.833l4.335,1.931c0.013,0.006,0.032,0.016,0.047,0.024
		c0.021,0.011,0.041,0.023,0.06,0.035c0.02,0.013,0.04,0.028,0.06,0.044c0.014,0.01,0.033,0.027,0.051,0.045
		c0.019,0.019,0.037,0.038,0.054,0.058c0.014,0.017,0.028,0.035,0.042,0.055c0.012,0.017,0.024,0.037,0.036,0.057
		c0.013,0.023,0.023,0.043,0.032,0.065c0.01,0.024,0.019,0.046,0.026,0.068c0.008,0.023,0.014,0.046,0.019,0.07
		c0.005,0.024,0.01,0.049,0.013,0.075c0.003,0.023,0.005,0.047,0.005,0.071c0.001,0.024,0,0.051-0.002,0.078
		c0,0.019-0.001,0.025-0.003,0.043c-0.033,0.245-0.051,0.496-0.052,0.744c-0.001,0.559,0.108,1.128,0.316,1.656
		c1.219,0.36,2.164,1.304,2.525,2.523c0.534,0.213,1.092,0.32,1.663,0.32c0.568,0,1.123-0.106,1.654-0.317
		c0.361-1.22,1.306-2.166,2.527-2.527c0.208-0.527,0.316-1.096,0.315-1.656c-0.001-0.25-0.019-0.504-0.053-0.753
		c-0.002-0.018-0.004-0.051-0.004-0.07c0,0.001,0,0.002,0,0.002c0,0-0.001-0.013-0.001-0.027c-0.007-0.333,0.211-0.627,0.533-0.724
		l4.246-1.891c0.387-0.159,0.679-0.449,0.833-0.818c0.154-0.37,0.155-0.777,0.003-1.148c-0.232-0.564-0.778-0.929-1.389-0.929
		c-0.195,0-0.386,0.038-0.568,0.113c-0.027,0.011-0.052,0.022-0.076,0.034c-0.101,0.048-0.21,0.073-0.322,0.073
		c-0.288,0-0.554-0.168-0.677-0.427c-0.086-0.18-0.097-0.384-0.03-0.573c0.067-0.189,0.203-0.34,0.384-0.427
		c0.049-0.024,0.1-0.046,0.151-0.067c0.364-0.15,0.747-0.226,1.138-0.226c1.223,0,2.313,0.729,2.778,1.858
		c0.305,0.741,0.303,1.557-0.005,2.296c-0.308,0.74-0.886,1.315-1.627,1.62l-3.825,1.704C17.995,14.755,18,14.878,18,14.996
		c0.001,0.523-0.066,1.041-0.2,1.547c1.804,0.269,3.2,1.839,3.2,3.707C21,22.318,19.318,24,17.25,24z M15.037,19.858
		C15.012,19.995,15,20.124,15,20.25c0,1.241,1.009,2.25,2.25,2.25s2.25-1.009,2.25-2.25S18.491,18,17.25,18
		c-1.078,0-2.006,0.768-2.208,1.827C15.04,19.839,15.038,19.852,15.037,19.858z M6.75,18C5.51,18,4.5,19.009,4.5,20.25
		S5.51,22.5,6.75,22.5S9,21.491,9,20.25S7.991,18,6.75,18z"/>
</g>
</svg>
