<?xml version="1.0" encoding="utf-8"?>
<!-- Generator: Adobe Illustrator 22.1.0, SVG Export Plug-In . SVG Version: 6.00 Build 0)  -->
<svg version="1.1" id="Layer_1" xmlns="http://www.w3.org/2000/svg" xmlns:xlink="http://www.w3.org/1999/xlink" x="0px" y="0px"
	 viewBox="0 0 24 24" style="enable-background:new 0 0 24 24;" xml:space="preserve">
<title>toys-dinosaur</title>
<g>
	<path d="M12.75,24c-1.432,0-2.718-0.795-3.357-2.075c-0.447-0.895-0.518-1.912-0.2-2.863c0.318-0.951,0.985-1.721,1.88-2.168
		c0.103-0.052,0.219-0.079,0.335-0.079c0.286,0,0.543,0.159,0.671,0.415c0.09,0.179,0.104,0.383,0.04,0.573
		s-0.197,0.344-0.376,0.433c-1.11,0.554-1.562,1.908-1.008,3.019c0.383,0.768,1.155,1.245,2.013,1.245H19.5
		c0-1.241-1.009-2.25-2.25-2.25c-0.414,0-0.75-0.336-0.75-0.75v-3H15c-0.414,0-0.75-0.336-0.75-0.75S14.587,15,15,15h5.905
		c-0.342-1.325-1.536-2.25-2.905-2.25h-3c-0.414,0-0.75-0.336-0.75-0.75s0.336-0.75,0.75-0.75h1.5
		c-0.022-1.213,0.955-2.225,2.179-2.25l0.061,0c1.199,0,2.302-0.562,3.005-1.5H18.75C18.337,7.5,18,7.163,18,6.75S18.337,6,18.75,6
		h3.672c0.05-0.236,0.076-0.471,0.079-0.702c0.002-0.147-0.005-0.295-0.021-0.441c-0.255-1.91-1.907-3.358-3.842-3.358L18.556,1.5
		l-5.806,0C9.855,1.5,7.5,3.855,7.5,6.75v4.5c0,1.753-0.672,3.414-1.892,4.68c-0.036,0.047-0.075,0.086-0.117,0.119
		c-0.002,0.001-0.003,0.003-0.005,0.004c-1.073,1.058-2.458,1.724-3.939,1.899C1.893,20.53,4.112,22.5,6.75,22.5
		c0.414,0,0.75,0.336,0.75,0.75S7.164,24,6.75,24C3.028,24,0,20.972,0,17.25c0-0.414,0.336-0.75,0.75-0.75
		c1.18,0,2.318-0.397,3.241-1.124l-1.655-2.068c-0.111-0.139-0.196-0.295-0.252-0.463c-0.127-0.379-0.098-0.786,0.081-1.144
		c0.179-0.359,0.487-0.626,0.866-0.753l2.326-0.776L3.117,7.93C3.046,7.86,2.982,7.781,2.926,7.697
		C2.468,7.008,2.657,6.075,3.346,5.618l3.699-2.472C8.294,1.174,10.421,0,12.75,0h5.791l0.093-0.001c2.685,0,4.979,2.012,5.335,4.68
		c0.024,0.224,0.034,0.43,0.031,0.638c-0.007,0.56-0.106,1.118-0.295,1.659c-0.005,0.018-0.016,0.05-0.031,0.083
		C22.916,9.117,20.94,10.5,18.752,10.5l-0.067,0c-0.379,0.008-0.692,0.338-0.685,0.736v0.014c2.053,0,3.845,1.388,4.358,3.375
		c0.1,0.388,0.043,0.792-0.161,1.137c-0.204,0.345-0.53,0.59-0.917,0.69c-0.12,0.031-0.247,0.047-0.375,0.047H18v2.325
		c1.732,0.35,3,1.875,3,3.675c0,0.827-0.673,1.5-1.5,1.5H12.75z M3.507,12.371l1.527,1.907c0.569-0.804,0.902-1.753,0.958-2.736
		L3.507,12.371z M4.178,6.866L6,8.691V6.75c0-0.393,0.034-0.784,0.102-1.17L4.178,6.866z"/>
	<path d="M13.124,5.252c-0.576,0-1.057-0.432-1.118-1.005c0,0-0.001-0.013-0.001-0.019c-0.027-0.293,0.059-0.579,0.244-0.808
		c0.189-0.234,0.457-0.381,0.756-0.413c0.001,0,0.002,0,0.003,0C13.047,3.002,13.087,3,13.126,3c0.512,0,0.966,0.36,1.088,0.859
		c0.016,0.05,0.027,0.099,0.032,0.148c0.059,0.564-0.311,1.08-0.862,1.209c-0.048,0.015-0.095,0.025-0.142,0.029
		C13.203,5.25,13.163,5.252,13.124,5.252z"/>
</g>
</svg>
