<?xml version="1.0" encoding="utf-8"?>
<!-- Generator: Adobe Illustrator 22.1.0, SVG Export Plug-In . SVG Version: 6.00 Build 0)  -->
<svg version="1.1" id="Layer_1" xmlns="http://www.w3.org/2000/svg" xmlns:xlink="http://www.w3.org/1999/xlink" x="0px" y="0px"
	 viewBox="0 0 24 24" style="enable-background:new 0 0 24 24;" xml:space="preserve">
<title>transform-direct-select</title>
<g>
	<path d="M8.242,19.398c-0.304-0.004-0.571-0.185-0.686-0.46L0.056,1.04C-0.063,0.756,0.001,0.432,0.22,0.216
		C0.362,0.076,0.549,0,0.747,0c0.104,0,0.204,0.021,0.3,0.062l17.249,7.5c0.267,0.116,0.444,0.378,0.451,0.669
		c0.008,0.29-0.156,0.561-0.416,0.691l-6.272,3.12l-3.129,6.916c-0.121,0.268-0.39,0.441-0.683,0.441H8.242z M8.274,16.77
		l2.529-5.59c0.071-0.157,0.195-0.286,0.349-0.362l5.069-2.522L2.161,2.182L8.274,16.77z"/>
	<path d="M23.247,24c-0.414,0-0.75-0.336-0.75-0.75v-2.063c0.012-2.986-2.406-5.425-5.389-5.437h-2.861
		c-0.414,0-0.75-0.336-0.75-0.75s0.336-0.75,0.75-0.75h2.864c3.813,0.016,6.901,3.13,6.886,6.94v2.06
		C23.997,23.663,23.661,24,23.247,24z"/>
</g>
</svg>
