<?xml version="1.0" encoding="utf-8"?>
<!-- Generator: Adobe Illustrator 22.1.0, SVG Export Plug-In . SVG Version: 6.00 Build 0)  -->
<svg version="1.1" id="Layer_1" xmlns="http://www.w3.org/2000/svg" xmlns:xlink="http://www.w3.org/1999/xlink" x="0px" y="0px"
	 viewBox="0 0 24 24" style="enable-background:new 0 0 24 24;" xml:space="preserve">
<title>transform-inside</title>
<g>
	<path d="M21.373,23.63c-0.414,0-0.75-0.336-0.75-0.75v-2.455c0.023-4.536-1.718-8.806-4.902-12.023
		c-3.185-3.218-7.432-5.003-11.96-5.026H1.873c-0.414,0-0.75-0.336-0.75-0.75s0.336-0.75,0.75-0.75h1.892
		c4.931,0.026,9.555,1.969,13.022,5.471s5.362,8.146,5.336,13.074v2.46C22.123,23.294,21.787,23.63,21.373,23.63z"/>
	<path d="M1.123,23.625c-0.091,0-0.181-0.017-0.268-0.05c-0.005-0.002-0.01-0.004-0.015-0.006c-0.092-0.038-0.172-0.091-0.24-0.157
		c-0.003-0.003-0.027-0.028-0.035-0.037c-0.06-0.067-0.105-0.14-0.137-0.219c-0.004-0.01-0.008-0.021-0.012-0.033
		c-0.029-0.083-0.043-0.166-0.043-0.248v-6.17c0-0.414,0.336-0.75,0.75-0.75s0.75,0.336,0.75,0.75v4.385l8.668-8.495
		c0.141-0.138,0.328-0.214,0.525-0.214c0.203,0,0.393,0.08,0.536,0.225c0.14,0.143,0.217,0.333,0.214,0.533
		s-0.082,0.388-0.225,0.528L2.96,22.125h4.459c0.414,0,0.75,0.336,0.75,0.75s-0.336,0.75-0.75,0.75H1.123z"/>
	<path d="M10.906,1.875c-0.414,0-0.75-0.336-0.75-0.75s0.336-0.75,0.75-0.75h1.467c0.414,0,0.75,0.336,0.75,0.75
		s-0.336,0.75-0.75,0.75H10.906z"/>
	<path d="M15.373,1.875c-0.414,0-0.75-0.336-0.75-0.75s0.336-0.75,0.75-0.75h2.25c0.414,0,0.75,0.336,0.75,0.75
		s-0.336,0.75-0.75,0.75H15.373z"/>
	<path d="M22.873,9.375c-0.414,0-0.75-0.336-0.75-0.75V6.179c0-0.414,0.336-0.75,0.75-0.75s0.75,0.336,0.75,0.75v2.446
		C23.623,9.039,23.287,9.375,22.873,9.375z"/>
	<path d="M22.873,13.842c-0.414,0-0.75-0.336-0.75-0.75v-1.467c0-0.414,0.336-0.75,0.75-0.75s0.75,0.336,0.75,0.75v1.467
		C23.623,13.506,23.287,13.842,22.873,13.842z"/>
	<path d="M22.873,4.125c-0.414,0-0.75-0.336-0.75-0.75v-1.5h-1.5c-0.414,0-0.75-0.336-0.75-0.75s0.336-0.75,0.75-0.75h2.25
		c0.414,0,0.75,0.336,0.75,0.75v2.25C23.623,3.789,23.287,4.125,22.873,4.125z"/>
</g>
</svg>
