<?xml version="1.0" encoding="utf-8"?>
<!-- Generator: Adobe Illustrator 22.1.0, SVG Export Plug-In . SVG Version: 6.00 Build 0)  -->
<svg version="1.1" id="Layer_1" xmlns="http://www.w3.org/2000/svg" xmlns:xlink="http://www.w3.org/1999/xlink" x="0px" y="0px"
	 viewBox="0 0 24 24" style="enable-background:new 0 0 24 24;" xml:space="preserve">
<title>transportation-ticket-boat</title>
<g>
	<path d="M2.25,21.263c-1.241,0-2.25-1.009-2.25-2.25v-3.75c0-0.414,0.336-0.75,0.75-0.75c1.241,0,2.25-1.009,2.25-2.25
		s-1.009-2.25-2.25-2.25C0.336,10.013,0,9.677,0,9.263v-3.75c0-1.241,1.009-2.25,2.25-2.25h19.5c1.241,0,2.25,1.009,2.25,2.25v3.75
		c0,0.414-0.336,0.75-0.75,0.75c-1.241,0-2.25,1.009-2.25,2.25s1.009,2.25,2.25,2.25c0.414,0,0.75,0.336,0.75,0.75v3.75
		c0,1.241-1.009,2.25-2.25,2.25H2.25z M1.5,19.013c0,0.414,0.336,0.75,0.75,0.75h19.5c0.414,0,0.75-0.336,0.75-0.75v-3.075
		c-1.732-0.35-3-1.875-3-3.675c0-1.8,1.268-3.324,3-3.675V5.513c0-0.414-0.336-0.75-0.75-0.75H2.25c-0.414,0-0.75,0.336-0.75,0.75
		v3.075c1.732,0.35,3,1.875,3,3.675c0,1.8-1.268,3.324-3,3.675V19.013z"/>
	<path d="M15.374,18.263c-1.239-0.011-2.424-0.442-3.374-1.221c-0.95,0.779-2.134,1.21-3.368,1.221
		c-1.039,0-2.032-0.304-2.883-0.878c-0.343-0.232-0.433-0.699-0.201-1.042c0.14-0.207,0.372-0.33,0.622-0.33
		c0.15,0,0.295,0.044,0.42,0.128c0.602,0.407,1.298,0.622,2.015,0.622c1.088-0.009,2.119-0.468,2.844-1.257
		c0.138-0.151,0.339-0.237,0.552-0.237c0.213,0,0.414,0.086,0.553,0.237c0.725,0.79,1.756,1.248,2.829,1.257
		c0.728,0,1.428-0.215,2.03-0.622c0.125-0.084,0.27-0.128,0.42-0.128c0.249,0,0.482,0.123,0.622,0.33
		c0.112,0.166,0.153,0.366,0.115,0.563s-0.15,0.367-0.316,0.479c-0.851,0.575-1.843,0.878-2.869,0.878H15.374z"/>
	<path d="M8.25,16.013c-0.251,0-0.485-0.125-0.624-0.334l-1.5-2.25c-0.154-0.23-0.168-0.525-0.037-0.77
		c0.131-0.245,0.385-0.396,0.661-0.396h3.75v-5.25c0-0.277,0.152-0.531,0.396-0.661c0.108-0.058,0.231-0.089,0.354-0.089
		c0.149,0,0.292,0.044,0.416,0.126l4.5,3c0.198,0.132,0.323,0.353,0.333,0.591c0.01,0.239-0.094,0.47-0.281,0.619l-2.081,1.664
		h3.112c0.277,0,0.531,0.152,0.661,0.396c0.131,0.244,0.117,0.539-0.037,0.77l-1.5,2.25c-0.139,0.209-0.373,0.334-0.624,0.334
		c-0.149,0-0.292-0.044-0.416-0.126c-0.344-0.229-0.437-0.696-0.208-1.04l0.723-1.084H8.151l0.723,1.084
		c0.229,0.344,0.136,0.811-0.208,1.04C8.542,15.969,8.399,16.013,8.25,16.013L8.25,16.013z M12,12.053l2.48-1.984L12,8.414V12.053z"
		/>
</g>
</svg>
