<?xml version="1.0" encoding="utf-8"?>
<!-- Generator: Adobe Illustrator 22.1.0, SVG Export Plug-In . SVG Version: 6.00 Build 0)  -->
<svg version="1.1" id="Layer_1" xmlns="http://www.w3.org/2000/svg" xmlns:xlink="http://www.w3.org/1999/xlink" x="0px" y="0px"
	 viewBox="0 0 24 24" style="enable-background:new 0 0 24 24;" xml:space="preserve">
<title>transform-right</title>
<g>
	<path d="M0.749,16.5c-0.414,0-0.75-0.336-0.75-0.75v-1.5c0-0.414,0.336-0.75,0.75-0.75s0.75,0.336,0.75,0.75v1.5
		C1.499,16.164,1.162,16.5,0.749,16.5z"/>
	<path d="M14.249,16.5c-0.414,0-0.75-0.336-0.75-0.75v-1.5c0-0.414,0.336-0.75,0.75-0.75s0.75,0.336,0.75,0.75v1.5
		C14.999,16.164,14.663,16.5,14.249,16.5z"/>
	<path d="M0.749,12c-0.414,0-0.75-0.336-0.75-0.75c0-1.241,1.009-2.25,2.25-2.25c0.414,0,0.75,0.336,0.75,0.75
		s-0.336,0.75-0.75,0.75s-0.75,0.336-0.75,0.75S1.162,12,0.749,12z"/>
	<path d="M5.249,10.5c-0.414,0-0.75-0.336-0.75-0.75S4.835,9,5.249,9h1.5c0.414,0,0.75,0.336,0.75,0.75s-0.336,0.75-0.75,0.75H5.249
		z"/>
	<path d="M1.538,23.999c-0.325,0-0.636-0.101-0.9-0.291c-0.333-0.24-0.553-0.595-0.618-1.001c-0.012-0.075-0.015-0.146-0.016-0.211
		c-0.003-0.027-0.005-0.05-0.005-0.073V18.75c0-0.414,0.336-0.75,0.75-0.75s0.75,0.336,0.75,0.75v1.138l6.741-9.333
		c0.703-0.973,1.839-1.555,3.04-1.555h2.943C14.232,9,14.241,9,14.249,9c0.009,0,0.019,0,0.03,0.001l8.181,0
		c0.325,0,0.636,0.1,0.899,0.291c0.688,0.496,0.844,1.46,0.348,2.147l-7.952,11.006c-0.277,0.383-0.628,0.71-1.043,0.972
		c-0.053,0.042-0.112,0.076-0.174,0.103c-0.563,0.314-1.193,0.48-1.823,0.48H1.538z M11.28,10.501c-0.72,0-1.402,0.349-1.824,0.933
		L1.507,22.439c-0.006,0.009-0.008,0.017-0.006,0.028c0.002,0.01,0.006,0.018,0.015,0.024l11.199,0.007
		c0.265,0,0.532-0.049,0.784-0.144V18.75c0-0.414,0.336-0.75,0.75-0.75s0.75,0.336,0.75,0.75v2.179l7.492-10.369
		c0.01-0.014,0.006-0.042-0.009-0.053l-7.483-0.007v0.749c0,0.414-0.336,0.75-0.75,0.75s-0.75-0.336-0.75-0.75v-0.749H11.28z"/>
	<path d="M14.249,7.5c-0.2,0-0.389-0.078-0.53-0.22c-0.142-0.141-0.22-0.33-0.22-0.53s0.078-0.389,0.22-0.53l1.72-1.72H5.249
		c-0.414,0-0.75-0.336-0.75-0.75S4.835,3,5.249,3h10.19l-1.72-1.72c-0.142-0.141-0.22-0.33-0.22-0.53s0.078-0.389,0.22-0.53
		S14.049,0,14.249,0s0.389,0.078,0.53,0.22l2.47,2.47c0.272,0.272,0.426,0.634,0.437,1.02c0.001,0.014,0.002,0.029,0.002,0.04
		c0,0.401-0.156,0.778-0.439,1.061l-2.469,2.47C14.638,7.422,14.449,7.5,14.249,7.5z"/>
</g>
</svg>
