<?xml version="1.0" encoding="utf-8"?>
<!-- Generator: Adobe Illustrator 22.1.0, SVG Export Plug-In . SVG Version: 6.00 Build 0)  -->
<svg version="1.1" id="Layer_1" xmlns="http://www.w3.org/2000/svg" xmlns:xlink="http://www.w3.org/1999/xlink" x="0px" y="0px"
	 viewBox="0 0 24 24" style="enable-background:new 0 0 24 24;" xml:space="preserve">
<title>transportation-ticket-boat-car-transfer</title>
<g>
	<path d="M21.75,24.013c-0.414,0-0.75-0.336-0.75-0.75v-0.75h-9v0.75c0,0.414-0.336,0.75-0.75,0.75s-0.75-0.336-0.75-0.75v-0.879
		C9.615,22.071,9,21.223,9,20.263v-1.629c0-0.563,0.208-1.099,0.586-1.514l0.974-1.662L11,14.04
		c0.098-0.315,0.386-0.527,0.717-0.527c0.075,0,0.149,0.011,0.221,0.033c0.396,0.123,0.617,0.544,0.495,0.939l-0.164,0.528h8.464
		l-0.828-2.667c-0.145-0.208-0.386-0.336-0.641-0.336c-0.016,0-0.031,0-0.047,0.001l-4.966,0.001c-0.414,0-0.75-0.336-0.75-0.75
		s0.336-0.75,0.75-0.75h4.919c0.022-0.002,0.068-0.004,0.113-0.004c0.805,0,1.557,0.441,1.962,1.151
		c0.027,0.047,0.048,0.097,0.064,0.148l1.133,3.649l0.973,1.661C23.792,17.535,24,18.07,24,18.634v1.629
		c0,0.96-0.615,1.808-1.5,2.121v0.879C22.5,23.676,22.164,24.013,21.75,24.013z M10.836,17.953
		c-0.033,0.055-0.072,0.106-0.116,0.151c-0.142,0.142-0.22,0.331-0.22,0.531v1.629c0,0.414,0.336,0.75,0.75,0.75h10.5
		c0.414,0,0.75-0.336,0.75-0.75v-1.629c0-0.2-0.078-0.388-0.219-0.53c-0.046-0.047-0.085-0.097-0.117-0.152l-0.844-1.44h-9.64
		L10.836,17.953z"/>
	<path d="M12.75,19.513c-0.414,0-0.75-0.336-0.75-0.75s0.336-0.75,0.75-0.75h1.5c0.414,0,0.75,0.336,0.75,0.75
		s-0.336,0.75-0.75,0.75H12.75z"/>
	<path d="M18.75,19.513c-0.414,0-0.75-0.336-0.75-0.75s0.336-0.75,0.75-0.75h1.5c0.414,0,0.75,0.336,0.75,0.75
		s-0.336,0.75-0.75,0.75H18.75z"/>
	<path d="M11.25,12.763c-0.2,0-0.389-0.078-0.53-0.22l-2.03-2.03H3.311l-2.03,2.03c-0.142,0.142-0.33,0.22-0.53,0.22
		s-0.389-0.078-0.53-0.22C0.078,12.402,0,12.213,0,12.013s0.078-0.389,0.22-0.53l1.283-1.283C1.042,9.879,0.75,9.347,0.75,8.763v-7
		c0-0.965,0.785-1.75,1.75-1.75h7c0.965,0,1.75,0.785,1.75,1.75v7c0,0.584-0.292,1.116-0.753,1.436l1.283,1.283
		c0.142,0.141,0.22,0.33,0.22,0.53s-0.078,0.389-0.22,0.53C11.639,12.685,11.45,12.763,11.25,12.763z M2.25,8.763
		c0,0.138,0.112,0.25,0.25,0.25h7c0.138,0,0.25-0.112,0.25-0.25v-1.25h-7.5V8.763z M9.75,6.013v-4.25c0-0.138-0.112-0.25-0.25-0.25
		h-7c-0.138,0-0.25,0.112-0.25,0.25v4.25H9.75z"/>
	<path d="M19.5,9.013c-0.089,0-0.176-0.016-0.261-0.048c-0.011-0.004-0.022-0.008-0.032-0.012c-0.085-0.035-0.167-0.09-0.238-0.16
		l-2.25-2.25c-0.142-0.141-0.22-0.33-0.22-0.53s0.078-0.389,0.22-0.53s0.33-0.22,0.53-0.22s0.389,0.078,0.53,0.22l0.97,0.97V5.263
		c0-1.241-1.009-2.25-2.25-2.25c-0.414,0-0.75-0.336-0.75-0.75s0.336-0.75,0.75-0.75c2.068,0,3.75,1.682,3.75,3.75v1.189l0.97-0.97
		c0.142-0.142,0.33-0.22,0.53-0.22s0.389,0.078,0.53,0.22c0.142,0.141,0.22,0.33,0.22,0.53s-0.078,0.389-0.22,0.53l-2.25,2.25
		c-0.07,0.07-0.153,0.125-0.245,0.163c-0.007,0.003-0.016,0.006-0.024,0.009C19.681,8.996,19.591,9.013,19.5,9.013z"/>
	<path d="M6.75,22.513c-2.068,0-3.75-1.682-3.75-3.75v-1.189l-0.97,0.97c-0.142,0.142-0.33,0.22-0.53,0.22s-0.389-0.078-0.53-0.22
		c-0.292-0.292-0.292-0.768,0-1.061l2.25-2.25c0.07-0.07,0.153-0.125,0.246-0.164c0.008-0.003,0.017-0.007,0.027-0.01
		c0.086-0.031,0.172-0.047,0.258-0.047c0.088,0,0.175,0.016,0.26,0.047c0.008,0.003,0.015,0.005,0.022,0.008
		c0.096,0.039,0.179,0.094,0.249,0.165l2.249,2.249c0.292,0.292,0.292,0.768,0,1.061c-0.142,0.142-0.33,0.22-0.53,0.22
		s-0.389-0.078-0.53-0.22l-0.97-0.97v1.189c0,1.241,1.009,2.25,2.25,2.25c0.414,0,0.75,0.336,0.75,0.75S7.164,22.513,6.75,22.513z"
		/>
</g>
</svg>
