<?xml version="1.0" encoding="utf-8"?>
<!-- Generator: Adobe Illustrator 22.1.0, SVG Export Plug-In . SVG Version: 6.00 Build 0)  -->
<svg version="1.1" id="Layer_1" xmlns="http://www.w3.org/2000/svg" xmlns:xlink="http://www.w3.org/1999/xlink" x="0px" y="0px"
	 viewBox="0 0 24 24" style="enable-background:new 0 0 24 24;" xml:space="preserve">
<title>transportation-ticket-plane-transfer-bus</title>
<g>
	<path d="M19.502,10.391c-0.089,0-0.176-0.016-0.261-0.048c-0.011-0.004-0.022-0.008-0.032-0.012
		c-0.085-0.035-0.167-0.09-0.238-0.16l-2.25-2.25c-0.142-0.141-0.22-0.33-0.22-0.53s0.078-0.389,0.22-0.53s0.33-0.22,0.53-0.22
		s0.389,0.078,0.53,0.22l0.97,0.97V6.641c0-1.241-1.009-2.25-2.25-2.25c-0.414,0-0.75-0.336-0.75-0.75s0.336-0.75,0.75-0.75
		c2.068,0,3.75,1.682,3.75,3.75v1.189l0.97-0.97c0.142-0.142,0.33-0.22,0.53-0.22s0.389,0.078,0.53,0.22
		c0.142,0.141,0.22,0.33,0.22,0.53s-0.078,0.389-0.22,0.53l-2.25,2.25c-0.07,0.07-0.153,0.125-0.245,0.163
		c-0.007,0.003-0.016,0.006-0.024,0.009C19.682,10.374,19.592,10.391,19.502,10.391z"/>
	<path d="M7.502,22.391c-2.068,0-3.75-1.682-3.75-3.75v-1.189l-0.97,0.97c-0.142,0.142-0.33,0.22-0.53,0.22s-0.389-0.078-0.53-0.22
		c-0.292-0.292-0.292-0.768,0-1.061l2.25-2.25c0.07-0.07,0.153-0.125,0.246-0.164c0.008-0.003,0.017-0.007,0.027-0.01
		c0.086-0.031,0.172-0.047,0.258-0.047c0.088,0,0.175,0.016,0.26,0.047c0.008,0.003,0.015,0.005,0.022,0.008
		c0.096,0.039,0.179,0.094,0.249,0.165l2.249,2.249c0.292,0.292,0.292,0.768,0,1.061c-0.142,0.142-0.33,0.22-0.53,0.22
		s-0.389-0.078-0.53-0.22l-0.97-0.97v1.189c0,1.241,1.009,2.25,2.25,2.25c0.414,0,0.75,0.336,0.75,0.75S7.915,22.391,7.502,22.391z"
		/>
	<path d="M14.162,23.763c-0.588,0-1.154-0.218-1.595-0.614l-1.934-1.736c-0.014-0.01-0.027-0.02-0.038-0.029l-1.366-1.227
		c-0.307-0.276-0.333-0.751-0.057-1.059c0.142-0.158,0.346-0.249,0.558-0.249c0.185,0,0.363,0.068,0.501,0.192l1.016,0.912
		l3.18-1.255l-2.662-3.176c-0.155-0.185-0.211-0.434-0.152-0.667c0.059-0.233,0.229-0.425,0.453-0.513l2.288-0.9
		c0.087-0.035,0.18-0.052,0.275-0.052c0.185,0,0.363,0.068,0.501,0.192l3.748,3.365l1.806-0.71c0.025-0.012,0.051-0.023,0.078-0.033
		c0.26-0.093,0.531-0.14,0.805-0.14c0.959,0,1.822,0.569,2.2,1.448c0.251,0.587,0.259,1.237,0.022,1.829
		c-0.237,0.593-0.691,1.058-1.278,1.309l-7.467,2.945C14.761,23.706,14.464,23.763,14.162,23.763z M13.569,22.032
		c0.165,0.148,0.376,0.23,0.594,0.23c0.112,0,0.223-0.021,0.329-0.063l7.447-2.937c0.202-0.087,0.367-0.258,0.456-0.479
		c0.088-0.221,0.085-0.463-0.008-0.681c-0.14-0.328-0.462-0.539-0.82-0.539c-0.088,0-0.175,0.013-0.259,0.039
		c-0.009,0.004-2.313,0.91-2.313,0.91c-0.087,0.035-0.18,0.052-0.274,0.052c-0.185,0-0.363-0.068-0.501-0.192l-3.748-3.365
		l-0.888,0.349l2.661,3.175c0.154,0.185,0.211,0.434,0.152,0.666c-0.06,0.234-0.228,0.425-0.452,0.513l-3.447,1.36L13.569,22.032z"
		/>
	<path d="M9.002,13.391c-0.414,0-0.75-0.336-0.75-0.75v-0.75h-5.25v0.75c0,0.414-0.336,0.75-0.75,0.75s-0.75-0.336-0.75-0.75v-0.768
		c-0.847-0.122-1.5-0.852-1.5-1.732v-7.75c0-0.965,0.785-1.75,1.75-1.75h7.75c0.965,0,1.75,0.785,1.75,1.75v7.75
		c0,0.88-0.653,1.61-1.5,1.732v0.768C9.752,13.055,9.415,13.391,9.002,13.391z M1.502,10.141c0,0.138,0.112,0.25,0.25,0.25h7.75
		c0.138,0,0.25-0.112,0.25-0.25v-3.5h-8.25V10.141z M9.752,5.141v-2.75c0-0.138-0.112-0.25-0.25-0.25h-7.75
		c-0.138,0-0.25,0.112-0.25,0.25v2.75H9.752z"/>
	<path d="M3.377,9.641c-0.044,0-0.088-0.004-0.131-0.012c-0.513-0.06-0.922-0.47-0.982-0.982C2.255,8.604,2.252,8.56,2.252,8.516
		s0.004-0.088,0.012-0.131c0.06-0.513,0.47-0.922,0.982-0.982c0.043-0.008,0.087-0.012,0.131-0.012s0.088,0.004,0.131,0.012
		c0.513,0.06,0.922,0.47,0.982,0.982c0.008,0.043,0.012,0.087,0.012,0.131S4.498,8.604,4.49,8.648C4.429,9.16,4.02,9.569,3.508,9.63
		C3.464,9.637,3.42,9.641,3.377,9.641z"/>
	<path d="M7.877,9.641c-0.044,0-0.088-0.004-0.131-0.012c-0.513-0.06-0.922-0.47-0.982-0.982C6.755,8.604,6.752,8.56,6.752,8.516
		s0.004-0.088,0.012-0.131c0.06-0.513,0.47-0.922,0.982-0.982c0.043-0.008,0.087-0.012,0.131-0.012s0.088,0.004,0.131,0.012
		c0.513,0.06,0.922,0.47,0.982,0.982c0.008,0.043,0.012,0.087,0.012,0.131S8.998,8.604,8.99,8.648C8.929,9.16,8.52,9.569,8.008,9.63
		C7.964,9.637,7.92,9.641,7.877,9.641z"/>
</g>
</svg>
