<?xml version="1.0" encoding="utf-8"?>
<!-- Generator: Adobe Illustrator 22.1.0, SVG Export Plug-In . SVG Version: 6.00 Build 0)  -->
<svg version="1.1" id="Layer_1" xmlns="http://www.w3.org/2000/svg" xmlns:xlink="http://www.w3.org/1999/xlink" x="0px" y="0px"
	 viewBox="0 0 24 24" style="enable-background:new 0 0 24 24;" xml:space="preserve">
<title>transform-shrink</title>
<g>
	<path d="M17.272,21.772c-1.241,0-2.25-1.009-2.25-2.25c0-0.386,0.098-0.759,0.286-1.093l-0.724-0.879
		c-1.589,1.26-3.563,1.95-5.601,1.95c-2.429-0.005-4.691-0.948-6.391-2.655c-1.699-1.707-2.633-3.974-2.628-6.382
		c0.005-2.409,0.948-4.671,2.655-6.371c1.702-1.695,3.945-2.628,6.317-2.628l0.067,0c4.72,0.01,8.592,3.621,8.966,8.286h1.659
		c0.313-0.885,1.161-1.5,2.121-1.5c1.241,0,2.25,1.009,2.25,2.25s-1.009,2.25-2.25,2.25c-0.96,0-1.808-0.615-2.121-1.5h-8.289
		l5.094,6.186c0.266-0.108,0.552-0.164,0.839-0.164c1.241,0,2.25,1.009,2.25,2.25S18.513,21.772,17.272,21.772z M17.272,18.772
		c-0.414,0-0.75,0.336-0.75,0.75s0.336,0.75,0.75,0.75s0.75-0.336,0.75-0.75S17.685,18.772,17.272,18.772z M8.982,2.964
		c-2.002,0-3.885,0.778-5.304,2.191c-1.423,1.417-2.209,3.303-2.213,5.311c-0.004,2.008,0.774,3.898,2.191,5.321
		C5.072,17.21,6.958,17.996,8.966,18c1.706,0,3.344-0.569,4.664-1.609l-4.459-5.415c-0.184-0.223-0.223-0.536-0.099-0.797
		C9.195,9.919,9.461,9.75,9.75,9.75h6.715c-0.369-3.827-3.576-6.777-7.467-6.786L8.982,2.589V2.964z M21.75,9.75
		c-0.414,0-0.75,0.336-0.75,0.75s0.336,0.75,0.75,0.75s0.75-0.336,0.75-0.75S22.163,9.75,21.75,9.75z"/>
	<path d="M20.25,6.035c-0.29,0-0.557-0.17-0.679-0.432c-0.565-1.206-1.359-2.314-2.321-3.246v0.66c0,0.414-0.336,0.75-0.75,0.75
		s-0.75-0.336-0.75-0.75V0.75c0-0.01,0-0.021,0.001-0.032c0.001-0.022,0.003-0.041,0.006-0.061c0.003-0.028,0.006-0.047,0.01-0.066
		c0.005-0.023,0.012-0.048,0.021-0.072c0.008-0.026,0.015-0.045,0.022-0.064c0.006-0.015,0.022-0.046,0.03-0.059
		c0.012-0.023,0.024-0.043,0.036-0.062c0.005-0.008,0.01-0.016,0.014-0.022c0.011-0.016,0.034-0.042,0.047-0.056
		c0.004-0.006,0.022-0.028,0.043-0.047c0.019-0.017,0.035-0.031,0.052-0.044c0.025-0.02,0.042-0.033,0.061-0.045
		c0.022-0.014,0.042-0.025,0.062-0.035c0.024-0.013,0.048-0.024,0.073-0.034c0.017-0.007,0.04-0.014,0.062-0.02
		c0.027-0.008,0.052-0.014,0.077-0.019c0.025-0.004,0.049-0.007,0.073-0.009C16.455,0.002,16.477,0,16.5,0h2.267
		c0.414,0,0.75,0.336,0.75,0.75s-0.336,0.75-0.75,0.75h-0.258c0.998,1.014,1.826,2.198,2.42,3.467
		c0.176,0.374,0.014,0.822-0.361,0.997C20.467,6.011,20.36,6.035,20.25,6.035z"/>
	<path d="M3.598,24c-0.31,0-0.591-0.195-0.701-0.484c-0.147-0.387,0.048-0.821,0.435-0.967l0.289-0.11
		c-1.269-0.611-2.434-1.441-3.407-2.434c-0.289-0.295-0.285-0.771,0.011-1.061c0.141-0.138,0.327-0.214,0.525-0.214
		c0.203,0,0.393,0.08,0.536,0.225c0.897,0.916,1.972,1.67,3.143,2.211l-0.218-0.573c-0.147-0.387,0.048-0.821,0.435-0.967
		c0.085-0.032,0.175-0.049,0.266-0.049c0.309,0,0.591,0.195,0.701,0.484l0.805,2.119c0.071,0.187,0.065,0.391-0.017,0.573
		c-0.011,0.025-0.033,0.06-0.053,0.087c-0.02,0.032-0.043,0.063-0.068,0.092c-0.03,0.034-0.058,0.063-0.09,0.09
		c-0.04,0.033-0.08,0.057-0.115,0.076c-0.024,0.017-0.055,0.035-0.094,0.05l-2.117,0.803C3.778,23.984,3.689,24,3.598,24z"/>
</g>
</svg>
