<?xml version="1.0" encoding="utf-8"?>
<!-- Generator: Adobe Illustrator 22.1.0, SVG Export Plug-In . SVG Version: 6.00 Build 0)  -->
<svg version="1.1" id="Layer_1" xmlns="http://www.w3.org/2000/svg" xmlns:xlink="http://www.w3.org/1999/xlink" x="0px" y="0px"
	 viewBox="0 0 24 24" style="enable-background:new 0 0 24 24;" xml:space="preserve">
<title>transform-left</title>
<g>
	<path d="M23.247,16.5c-0.414,0-0.75-0.336-0.75-0.75v-1.5c0-0.414,0.336-0.75,0.75-0.75s0.75,0.336,0.75,0.75v1.5
		C23.997,16.164,23.66,16.5,23.247,16.5z"/>
	<path d="M9.747,16.5c-0.414,0-0.75-0.336-0.75-0.75v-1.5c0-0.414,0.336-0.75,0.75-0.75s0.75,0.336,0.75,0.75v1.5
		C10.497,16.164,10.16,16.5,9.747,16.5z"/>
	<path d="M23.247,12c-0.414,0-0.75-0.336-0.75-0.75s-0.336-0.75-0.75-0.75s-0.75-0.336-0.75-0.75S21.333,9,21.747,9
		c1.241,0,2.25,1.009,2.25,2.25C23.997,11.663,23.66,12,23.247,12z"/>
	<path d="M17.247,10.5c-0.414,0-0.75-0.336-0.75-0.75S16.833,9,17.247,9h1.5c0.414,0,0.75,0.336,0.75,0.75s-0.336,0.75-0.75,0.75
		H17.247z"/>
	<path d="M11.281,23.999c-0.629,0-1.259-0.166-1.822-0.48c-0.063-0.026-0.122-0.061-0.175-0.103
		c-0.415-0.261-0.766-0.588-1.043-0.972L0.292,11.439c-0.24-0.332-0.337-0.739-0.272-1.145c0.065-0.406,0.284-0.762,0.616-1.003
		C0.9,9.101,1.212,9,1.537,9h11.178c1.201,0,2.337,0.581,3.04,1.555l6.741,9.33V18.75c0-0.414,0.336-0.75,0.75-0.75
		s0.75,0.336,0.75,0.75v3.656c0.005,0.091-0.001,0.198-0.018,0.3c-0.066,0.406-0.286,0.762-0.619,1.002
		c-0.263,0.19-0.574,0.291-0.899,0.291H11.281z M10.497,22.355c0.252,0.094,0.52,0.144,0.784,0.144h11.18
		c0.031-0.014,0.036-0.021,0.038-0.032c0.002-0.011,0-0.02-0.007-0.028L14.54,11.433c-0.422-0.584-1.104-0.933-1.824-0.933h-2.219
		v0.75c0,0.414-0.336,0.75-0.75,0.75s-0.75-0.336-0.75-0.75V10.5H1.538c-0.031,0.014-0.036,0.021-0.037,0.032s0,0.019,0.007,0.028
		l7.49,10.369V18.75c0-0.414,0.336-0.75,0.75-0.75s0.75,0.336,0.75,0.75V22.355z"/>
	<path d="M9.747,7.5c-0.2,0-0.389-0.078-0.53-0.22l-2.47-2.47C6.162,4.226,6.161,3.275,6.745,2.691L9.216,0.22
		C9.358,0.078,9.546,0,9.747,0s0.389,0.078,0.53,0.22c0.142,0.142,0.22,0.33,0.22,0.53c0,0.2-0.078,0.389-0.22,0.53L8.557,3h10.189
		c0.414,0,0.75,0.336,0.75,0.75S19.16,4.5,18.747,4.5H8.557l1.72,1.72c0.142,0.141,0.22,0.33,0.22,0.53c0,0.2-0.078,0.389-0.22,0.53
		C10.135,7.422,9.947,7.5,9.747,7.5z"/>
</g>
</svg>
