<?xml version="1.0" encoding="utf-8"?>
<!-- Generator: Adobe Illustrator 22.1.0, SVG Export Plug-In . SVG Version: 6.00 Build 0)  -->
<svg version="1.1" id="Layer_1" xmlns="http://www.w3.org/2000/svg" xmlns:xlink="http://www.w3.org/1999/xlink" x="0px" y="0px"
	 viewBox="0 0 24 24" style="enable-background:new 0 0 24 24;" xml:space="preserve">
<title>transportation-ticket-plane-transfer-train</title>
<g>
	<path d="M11.249,12.955c-0.2,0-0.389-0.078-0.53-0.22l-2.03-2.03H3.31l-2.03,2.03c-0.142,0.142-0.33,0.22-0.53,0.22
		s-0.389-0.078-0.53-0.22c-0.142-0.142-0.22-0.33-0.22-0.53c0-0.2,0.078-0.389,0.22-0.53l1.283-1.283
		c-0.461-0.32-0.753-0.852-0.753-1.436v-7c0-0.965,0.785-1.75,1.75-1.75h7c0.965,0,1.75,0.785,1.75,1.75v7
		c0,0.584-0.292,1.116-0.753,1.436l1.283,1.283c0.142,0.141,0.22,0.33,0.22,0.53c0,0.2-0.078,0.389-0.22,0.53
		C11.638,12.877,11.45,12.955,11.249,12.955z M2.249,8.955c0,0.138,0.112,0.25,0.25,0.25h7c0.138,0,0.25-0.112,0.25-0.25v-1.25h-7.5
		V8.955z M9.749,6.205v-4.25c0-0.138-0.112-0.25-0.25-0.25h-7c-0.138,0-0.25,0.112-0.25,0.25v4.25H9.749z"/>
	<path d="M19.499,9.955c-0.022,0-0.05-0.003-0.075-0.008c-0.057-0.006-0.111-0.018-0.164-0.035
		c-0.025-0.008-0.046-0.016-0.067-0.025c-0.064-0.029-0.124-0.066-0.177-0.112c-0.019-0.014-0.037-0.029-0.052-0.044l-2.246-2.246
		c-0.142-0.141-0.22-0.33-0.22-0.53s0.078-0.389,0.22-0.53s0.33-0.22,0.53-0.22s0.389,0.078,0.53,0.22l0.97,0.97V6.202
		c0-1.241-1.009-2.25-2.25-2.25c-0.414,0-0.75-0.336-0.75-0.75s0.336-0.75,0.75-0.75c2.068,0,3.75,1.682,3.75,3.75v1.192l0.97-0.97
		c0.142-0.142,0.33-0.22,0.53-0.22s0.389,0.078,0.53,0.22c0.142,0.141,0.22,0.33,0.22,0.53s-0.078,0.389-0.22,0.53l-2.25,2.25
		c-0.014,0.014-0.03,0.027-0.047,0.04c-0.053,0.045-0.113,0.083-0.177,0.112c-0.023,0.01-0.045,0.018-0.068,0.025
		c-0.053,0.018-0.108,0.03-0.165,0.035C19.547,9.952,19.521,9.955,19.499,9.955z"/>
	<path d="M7.499,21.952c-2.068,0-3.75-1.682-3.75-3.75v-1.188l-0.97,0.97c-0.142,0.142-0.33,0.22-0.53,0.22s-0.389-0.078-0.53-0.22
		c-0.142-0.142-0.22-0.33-0.22-0.53s0.078-0.389,0.22-0.53l2.24-2.24c0.132-0.143,0.332-0.231,0.54-0.231s0.408,0.088,0.55,0.242
		l2.23,2.23c0.142,0.142,0.22,0.33,0.22,0.53s-0.078,0.389-0.22,0.53c-0.142,0.142-0.33,0.22-0.53,0.22s-0.389-0.078-0.53-0.22
		l-0.97-0.97v1.188c0,1.241,1.009,2.25,2.25,2.25c0.414,0,0.75,0.336,0.75,0.75S7.913,21.952,7.499,21.952z"/>
	<path d="M14.16,23.764c-0.587,0-1.154-0.218-1.594-0.614l-1.937-1.739c-0.013-0.009-0.026-0.019-0.036-0.028l-1.365-1.226
		c-0.149-0.134-0.237-0.318-0.248-0.518c-0.011-0.2,0.057-0.392,0.191-0.542c0.142-0.158,0.345-0.249,0.558-0.249
		c0.185,0,0.363,0.068,0.501,0.192l1.016,0.913l3.18-1.254l-2.662-3.177c-0.154-0.184-0.211-0.433-0.152-0.667
		c0.059-0.233,0.229-0.425,0.453-0.513l2.288-0.9c0.088-0.035,0.18-0.052,0.275-0.052c0.185,0,0.363,0.068,0.501,0.192l3.748,3.365
		l1.82-0.716c0.02-0.009,0.041-0.018,0.061-0.025c0.263-0.094,0.533-0.141,0.807-0.141c0.959,0,1.823,0.568,2.2,1.448
		c0.519,1.211-0.044,2.619-1.256,3.138l-7.467,2.945C14.758,23.707,14.461,23.764,14.16,23.764z M13.567,22.034
		c0.165,0.148,0.376,0.229,0.594,0.229c0.113,0,0.224-0.021,0.33-0.063l7.446-2.937c0.436-0.187,0.641-0.709,0.448-1.16
		c-0.14-0.328-0.462-0.539-0.82-0.539c-0.092,0-0.183,0.014-0.27,0.042c-0.008,0.003-2.302,0.906-2.302,0.906
		c-0.088,0.035-0.18,0.052-0.275,0.052c-0.186,0-0.364-0.068-0.501-0.192l-3.748-3.364l-0.888,0.349l2.661,3.177
		c0.154,0.184,0.211,0.433,0.152,0.666c-0.06,0.234-0.228,0.425-0.452,0.513l-3.447,1.36L13.567,22.034z"/>
</g>
</svg>
