<?xml version="1.0" encoding="utf-8"?>
<!-- Generator: Adobe Illustrator 22.1.0, SVG Export Plug-In . SVG Version: 6.00 Build 0)  -->
<svg version="1.1" id="Layer_1" xmlns="http://www.w3.org/2000/svg" xmlns:xlink="http://www.w3.org/1999/xlink" x="0px" y="0px"
	 viewBox="0 0 24 24" style="enable-background:new 0 0 24 24;" xml:space="preserve">
<title>transportation-ticket-car-transfer</title>
<g>
	<path d="M11.25,12.763c-0.2,0-0.389-0.078-0.53-0.22l-2.03-2.03H3.311l-2.03,2.03c-0.142,0.142-0.33,0.22-0.53,0.22
		s-0.389-0.078-0.53-0.22C0.078,12.402,0,12.213,0,12.013s0.078-0.389,0.22-0.53l1.283-1.283C1.042,9.879,0.75,9.347,0.75,8.763v-7
		c0-0.965,0.785-1.75,1.75-1.75h7c0.965,0,1.75,0.785,1.75,1.75v7c0,0.584-0.292,1.116-0.753,1.436l1.283,1.283
		c0.142,0.141,0.22,0.33,0.22,0.53s-0.078,0.389-0.22,0.53C11.639,12.685,11.45,12.763,11.25,12.763z M2.25,8.763
		c0,0.138,0.112,0.25,0.25,0.25h7c0.138,0,0.25-0.112,0.25-0.25v-1.25h-7.5V8.763z M9.75,6.013v-4.25c0-0.138-0.112-0.25-0.25-0.25
		h-7c-0.138,0-0.25,0.112-0.25,0.25v4.25H9.75z"/>
	<path d="M19.5,9.013c-0.089,0-0.176-0.016-0.261-0.048c-0.011-0.004-0.022-0.008-0.032-0.012c-0.085-0.035-0.167-0.09-0.238-0.16
		l-2.25-2.25c-0.142-0.141-0.22-0.33-0.22-0.53s0.078-0.389,0.22-0.53s0.33-0.22,0.53-0.22s0.389,0.078,0.53,0.22l0.97,0.97V5.263
		c0-1.241-1.009-2.25-2.25-2.25c-0.414,0-0.75-0.336-0.75-0.75s0.336-0.75,0.75-0.75c2.068,0,3.75,1.682,3.75,3.75v1.189l0.97-0.97
		c0.142-0.142,0.33-0.22,0.53-0.22s0.389,0.078,0.53,0.22c0.142,0.141,0.22,0.33,0.22,0.53s-0.078,0.389-0.22,0.53l-2.25,2.25
		c-0.07,0.07-0.153,0.125-0.245,0.163c-0.007,0.003-0.016,0.006-0.024,0.009C19.681,8.996,19.591,9.013,19.5,9.013z"/>
	<path d="M6.75,22.513c-2.068,0-3.75-1.682-3.75-3.75v-1.189l-0.97,0.97c-0.142,0.142-0.33,0.22-0.53,0.22s-0.389-0.078-0.53-0.22
		c-0.292-0.292-0.292-0.768,0-1.061l2.25-2.25c0.07-0.07,0.153-0.125,0.246-0.164c0.008-0.003,0.017-0.007,0.027-0.01
		c0.086-0.031,0.172-0.047,0.258-0.047c0.088,0,0.175,0.016,0.26,0.047c0.008,0.003,0.015,0.005,0.022,0.008
		c0.096,0.039,0.179,0.094,0.249,0.165l2.249,2.249c0.292,0.292,0.292,0.768,0,1.061c-0.142,0.142-0.33,0.22-0.53,0.22
		s-0.389-0.078-0.53-0.22l-0.97-0.97v1.189c0,1.241,1.009,2.25,2.25,2.25c0.414,0,0.75,0.336,0.75,0.75S7.164,22.513,6.75,22.513z"
		/>
	<path d="M12.75,19.513c-0.414,0-0.75-0.336-0.75-0.75s0.336-0.75,0.75-0.75h1.5c0.414,0,0.75,0.336,0.75,0.75
		s-0.336,0.75-0.75,0.75H12.75z"/>
	<path d="M18.75,19.513c-0.414,0-0.75-0.336-0.75-0.75s0.336-0.75,0.75-0.75h1.5c0.414,0,0.75,0.336,0.75,0.75
		s-0.336,0.75-0.75,0.75H18.75z"/>
	<path d="M21.75,24.013c-0.414,0-0.75-0.336-0.75-0.75v-0.746h-9v0.746c0,0.414-0.336,0.75-0.75,0.75s-0.75-0.336-0.75-0.75v-0.874
		c-0.886-0.313-1.502-1.161-1.502-2.122v-1.8c0-0.446,0.131-0.877,0.378-1.248l1.194-1.789l0.468-1.405
		c0.102-0.307,0.388-0.513,0.712-0.513c0.081,0,0.16,0.013,0.237,0.039c0.19,0.063,0.344,0.197,0.434,0.376s0.104,0.383,0.041,0.573
		l-0.171,0.513h8.419l-0.829-2.487c-0.102-0.307-0.388-0.513-0.712-0.513H14.25c-0.414,0-0.75-0.336-0.75-0.75s0.336-0.75,0.75-0.75
		h4.919c0.97,0,1.828,0.619,2.135,1.539l1.126,3.378l1.194,1.788c0.247,0.375,0.376,0.807,0.375,1.251v1.797
		c0,0.959-0.614,1.806-1.498,2.121v0.875C22.5,23.676,22.164,24.013,21.75,24.013z M21.686,21.017
		c0.022-0.003,0.043-0.004,0.064-0.004c0.011,0,0.025,0.001,0.039,0.002c0.382-0.011,0.709-0.345,0.709-0.748v-1.8
		c0.001-0.151-0.042-0.295-0.124-0.419l-1.025-1.535h-9.698l-1.027,1.539c-0.082,0.123-0.126,0.267-0.126,0.416v1.8
		c0,0.398,0.32,0.73,0.717,0.748c0.012-0.001,0.022-0.002,0.035-0.002c0.022,0,0.043,0.002,0.065,0.004H21.686z"/>
</g>
</svg>
