<?xml version="1.0" encoding="utf-8"?>
<!-- Generator: Adobe Illustrator 22.1.0, SVG Export Plug-In . SVG Version: 6.00 Build 0)  -->
<svg version="1.1" id="Layer_1" xmlns="http://www.w3.org/2000/svg" xmlns:xlink="http://www.w3.org/1999/xlink" x="0px" y="0px"
	 viewBox="0 0 24 24" style="enable-background:new 0 0 24 24;" xml:space="preserve">
<title>travel-insurance-shield</title>
<g>
	<path d="M11.858,18c-0.041,0-0.082-0.002-0.123-0.005c-0.827-0.071-1.44-0.798-1.369-1.622l0.219-2.595l-1.438,0.573
		c-0.267,0.106-0.547,0.16-0.833,0.16c-0.602,0-1.167-0.235-1.593-0.661l-2.535-2.537C4.042,11.169,3.931,11,3.856,10.812
		c-0.149-0.372-0.144-0.78,0.014-1.148C4.027,9.295,4.319,9.01,4.691,8.861l1.731-0.69C6.511,8.135,6.604,8.117,6.7,8.117
		c0.184,0,0.361,0.067,0.499,0.19l0.909,0.808l1.23-0.49L8.644,8.008c-0.173-0.154-0.31-0.35-0.396-0.565
		C7.942,6.674,8.318,5.8,9.086,5.494l1.311-0.523c0.177-0.07,0.364-0.106,0.555-0.106c0.276,0,0.546,0.075,0.78,0.217l2.564,1.564
		c0,0,2.107-0.84,2.114-0.842c0.283-0.109,0.597-0.168,0.917-0.168c1.074,0,2.031,0.637,2.438,1.622
		c0.552,1.338-0.088,2.875-1.426,3.427l-2.12,0.845l-1.599,4.901c-0.137,0.424-0.454,0.763-0.869,0.929l-1.334,0.531
		C12.242,17.962,12.048,18,11.858,18z M11.434,11.882c0.162,0,0.316,0.051,0.446,0.147c0.208,0.154,0.323,0.409,0.301,0.666
		L11.86,16.5l1.333-0.532l1.708-5.236c0.069-0.212,0.227-0.381,0.435-0.464l2.438-0.972c0.567-0.234,0.84-0.892,0.603-1.465
		c-0.175-0.424-0.581-0.698-1.033-0.698c-0.139,0-0.277,0.026-0.41,0.077l-8.702,3.47c-0.089,0.036-0.182,0.053-0.278,0.053
		c-0.184,0-0.361-0.067-0.498-0.19L6.548,9.735l-1.3,0.518l2.535,2.537c0.142,0.143,0.331,0.221,0.531,0.221
		c0.095,0,0.189-0.018,0.278-0.053l2.565-1.023C11.245,11.9,11.339,11.882,11.434,11.882z M10.953,6.365
		c-0.001,0-1.311,0.522-1.311,0.522l1.254,1.115l1.659-0.661L10.953,6.365L10.953,6.365z"/>
	<path d="M12,24c-0.461,0-0.914-0.084-1.346-0.25l-1.041-0.4C4.76,21.484,1.5,16.737,1.5,11.538V3.924
		C1.495,3.048,2.008,2.244,2.807,1.88C5.666,0.631,8.69,0,11.801,0l0.206,0.001L12.199,0c3.111,0,6.134,0.631,8.983,1.874
		c0.809,0.37,1.324,1.175,1.318,2.054v7.61c0,5.199-3.26,9.946-8.113,11.812l-1.041,0.4C12.914,23.916,12.461,24,12,24z M11.8,1.5
		c-2.902,0-5.722,0.589-8.382,1.749C3.164,3.365,2.998,3.628,3,3.918v7.62c0,4.583,2.874,8.767,7.151,10.412l1.041,0.4
		c0.259,0.1,0.531,0.15,0.808,0.15c0.277,0,0.549-0.051,0.809-0.15l1.041-0.4C18.126,20.305,21,16.121,21,11.538V3.923
		c0.002-0.293-0.167-0.559-0.429-0.679C17.92,2.087,15.111,1.5,12.226,1.5l-0.218,0.001L11.8,1.5z"/>
</g>
</svg>
