<?xml version="1.0" encoding="utf-8"?>
<!-- Generator: Adobe Illustrator 22.1.0, SVG Export Plug-In . SVG Version: 6.00 Build 0)  -->
<svg version="1.1" id="Layer_1" xmlns="http://www.w3.org/2000/svg" xmlns:xlink="http://www.w3.org/1999/xlink" x="0px" y="0px"
	 viewBox="0 0 24 24" style="enable-background:new 0 0 24 24;" xml:space="preserve">
<title>travel-insurance-cover</title>
<g>
	<path d="M18,18.75c-1.654,0-3-1.346-3-3s1.346-3,3-3s3,1.346,3,3S19.654,18.75,18,18.75z M18,14.25c-0.827,0-1.5,0.673-1.5,1.5
		s0.673,1.5,1.5,1.5s1.5-0.673,1.5-1.5S18.827,14.25,18,14.25z"/>
	<path d="M21.75,24C21.336,24,21,23.664,21,23.25c0-1.654-1.346-3-3-3s-3,1.346-3,3c0,0.414-0.336,0.75-0.75,0.75
		s-0.75-0.336-0.75-0.75c0-2.481,2.019-4.5,4.5-4.5s4.5,2.019,4.5,4.5C22.5,23.664,22.164,24,21.75,24z"/>
	<path d="M6,18.75c-1.654,0-3-1.346-3-3s1.346-3,3-3s3,1.346,3,3S7.654,18.75,6,18.75z M6,14.25c-0.827,0-1.5,0.673-1.5,1.5
		s0.673,1.5,1.5,1.5s1.5-0.673,1.5-1.5S6.827,14.25,6,14.25z"/>
	<path d="M9.75,24C9.336,24,9,23.664,9,23.25c0-1.654-1.346-3-3-3s-3,1.346-3,3C3,23.664,2.664,24,2.25,24S1.5,23.664,1.5,23.25
		c0-2.481,2.019-4.5,4.5-4.5s4.5,2.019,4.5,4.5C10.5,23.664,10.164,24,9.75,24z"/>
	<path d="M12,18.75c-0.414,0-0.75-0.336-0.75-0.75v-6.75h-7.5C3.336,11.25,3,10.914,3,10.5c0-4.713,3.595-8.585,8.25-8.968V0.75
		C11.25,0.336,11.586,0,12,0s0.75,0.336,0.75,0.75v0.782C17.405,1.915,21,5.787,21,10.5c0,0.414-0.336,0.75-0.75,0.75h-7.5V18
		C12.75,18.414,12.414,18.75,12,18.75z M19.463,9.75C19.086,5.934,15.88,3,12,3S4.914,5.934,4.537,9.75H19.463z"/>
</g>
</svg>
