<?xml version="1.0" encoding="utf-8"?>
<!-- Generator: Adobe Illustrator 22.1.0, SVG Export Plug-In . SVG Version: 6.00 Build 0)  -->
<svg version="1.1" id="Layer_1" xmlns="http://www.w3.org/2000/svg" xmlns:xlink="http://www.w3.org/1999/xlink" x="0px" y="0px"
	 viewBox="0 0 24 24" style="enable-background:new 0 0 24 24;" xml:space="preserve">
<title>treasure-chest</title>
<g>
	<path d="M1.75,22.5C0.785,22.5,0,21.715,0,20.75V4.25C0,2.734,1.234,1.5,2.75,1.5h18.5C22.766,1.5,24,2.734,24,4.25v16.5
		c0,0.965-0.785,1.75-1.75,1.75H1.75z M22.25,21c0.138,0,0.25-0.112,0.25-0.25V13.5h-3V21H22.25z M18,21v-7.5h-1.761
		c-0.252,0.713-0.675,1.346-1.239,1.851V21H18z M13.5,21v-4.76c-0.481,0.172-0.983,0.26-1.5,0.26c-0.516,0-1.019-0.087-1.5-0.26V21
		H13.5z M9,21v-5.649c-0.564-0.505-0.987-1.138-1.239-1.851H6V21H9z M1.5,20.75C1.5,20.888,1.612,21,1.75,21H4.5v-7.5h-3V20.75z
		 M9,12c0,1.654,1.346,3,3,3c1.654,0,3-1.346,3-3v-1.5H9V12z M22.5,12v-1.5h-6V12H22.5z M7.5,12v-1.5h-6V12H7.5z M22.5,9V4.25
		C22.5,3.561,21.939,3,21.25,3H19.5v6H22.5z M18,9V3h-3v6H18z M13.5,9V3h-3v6H13.5z M9,9V3H6v6H9z M4.5,9V3H2.75
		C2.061,3,1.5,3.561,1.5,4.25V9H4.5z"/>
	<circle cx="12" cy="12.75" r="1.125"/>
</g>
</svg>
