<?xml version="1.0" encoding="utf-8"?>
<!-- Generator: Adobe Illustrator 22.1.0, SVG Export Plug-In . SVG Version: 6.00 Build 0)  -->
<svg version="1.1" id="Layer_1" xmlns="http://www.w3.org/2000/svg" xmlns:xlink="http://www.w3.org/1999/xlink" x="0px" y="0px"
	 viewBox="0 0 24 24" style="enable-background:new 0 0 24 24;" xml:space="preserve">
<title>treasure-chest-open</title>
<g>
	<path d="M21.75,4.5C21.336,4.5,21,4.164,21,3.75V3h-0.75c-0.414,0-0.75-0.336-0.75-0.75s0.336-0.75,0.75-0.75H21V0.75
		C21,0.336,21.336,0,21.75,0s0.75,0.336,0.75,0.75V1.5h0.75C23.664,1.5,24,1.836,24,2.25S23.664,3,23.25,3H22.5v0.75
		C22.5,4.164,22.164,4.5,21.75,4.5z"/>
	<path d="M2.25,6.75C1.836,6.75,1.5,6.414,1.5,6V5.25H0.75C0.336,5.25,0,4.914,0,4.5s0.336-0.75,0.75-0.75H1.5V3
		c0-0.414,0.336-0.75,0.75-0.75S3,2.586,3,3v0.75h0.75c0.414,0,0.75,0.336,0.75,0.75S4.164,5.25,3.75,5.25H3V6
		C3,6.414,2.664,6.75,2.25,6.75z"/>
	<path d="M1.75,24C0.785,24,0,23.215,0,22.25V12c0-0.414,0.336-0.75,0.75-0.75h0.831c-0.224-1.052,0.016-2.151,0.68-3.025
		C2.864,7.43,3.74,6.918,4.728,6.782c0.17-0.023,0.343-0.035,0.514-0.035c0.491,0,0.978,0.098,1.429,0.286
		c0.715-1.419,1.967-2.499,3.486-2.992c0.597-0.194,1.216-0.292,1.839-0.292c2.275,0,4.328,1.278,5.335,3.287
		c0.454-0.188,0.942-0.286,1.432-0.286c1.014,0.004,1.951,0.397,2.654,1.106c0.703,0.709,1.087,1.649,1.083,2.647
		c-0.001,0.252-0.028,0.501-0.08,0.747h0.83c0.414,0,0.75,0.336,0.75,0.75v10.25c0,0.965-0.785,1.75-1.75,1.75H1.75z M22.25,22.5
		c0.138,0,0.25-0.112,0.25-0.25v-6.5h-3v6.75H22.25z M18,22.5v-6.75h-1.761c-0.252,0.713-0.675,1.346-1.239,1.851V22.5H18z
		 M13.5,22.5v-4.01c-0.481,0.172-0.983,0.26-1.5,0.26c-0.516,0-1.019-0.087-1.5-0.26v4.01H13.5z M9,22.5v-4.899
		c-0.564-0.505-0.987-1.138-1.239-1.851H6v6.75H9z M1.5,22.25c0,0.138,0.112,0.25,0.25,0.25H4.5v-6.75h-3V22.25z M9,14.25
		c0,1.654,1.346,3,3,3c1.654,0,3-1.346,3-3v-1.5H9V14.25z M22.5,14.25v-1.5h-6v1.5H22.5z M7.5,14.25v-1.5h-6v1.5H7.5z M20.864,11.25
		c0.088-0.241,0.135-0.498,0.136-0.754c0.005-1.233-0.994-2.241-2.228-2.246c-0.493,0-0.973,0.161-1.359,0.453
		c-0.129,0.098-0.29,0.152-0.452,0.152c-0.076,0-0.152-0.012-0.225-0.034c-0.231-0.073-0.414-0.253-0.489-0.484
		c-0.6-1.847-2.308-3.088-4.251-3.088c-0.466,0-0.929,0.074-1.376,0.219c-1.356,0.44-2.428,1.513-2.868,2.868
		C7.677,8.568,7.494,8.748,7.263,8.821C7.192,8.843,7.116,8.855,7.039,8.855c-0.163,0-0.324-0.054-0.453-0.153
		C6.195,8.406,5.729,8.249,5.238,8.249c-0.707,0-1.357,0.322-1.783,0.882C2.989,9.746,2.874,10.54,3.136,11.25H20.864z"/>
	<circle cx="12" cy="15" r="1.125"/>
</g>
</svg>
