<?xml version="1.0" encoding="utf-8"?>
<!-- Generator: Adobe Illustrator 22.1.0, SVG Export Plug-In . SVG Version: 6.00 Build 0)  -->
<svg version="1.1" id="Regular" xmlns="http://www.w3.org/2000/svg" xmlns:xlink="http://www.w3.org/1999/xlink" x="0px" y="0px"
	 viewBox="0 0 24 24" style="enable-background:new 0 0 24 24;" xml:space="preserve">
<title>trees-log</title>
<g>
	<path d="M12,20.25c-1.517,0-2.924-0.775-3.75-2.022C7.424,19.475,6.017,20.25,4.5,20.25c-2.481,0-4.5-2.019-4.5-4.5
		s2.019-4.5,4.5-4.5c1.517,0,2.924,0.775,3.75,2.022c0.826-1.247,2.233-2.022,3.75-2.022h7.5c2.481,0,4.5,2.019,4.5,4.5
		s-2.019,4.5-4.5,4.5H12z M19.5,18.75c1.654,0,3-1.346,3-3s-1.346-3-3-3h-4.152c0.733,0.818,1.152,1.885,1.152,3
		s-0.419,2.182-1.152,3H19.5z M12,12.75c-1.654,0-3,1.346-3,3s1.346,3,3,3c1.654,0,3-1.346,3-3S13.654,12.75,12,12.75z M4.5,12.75
		c-1.654,0-3,1.346-3,3s1.346,3,3,3s3-1.346,3-3S6.154,12.75,4.5,12.75z"/>
	<path d="M4.5,16.875c-0.044,0-0.088-0.004-0.13-0.011c-0.513-0.06-0.923-0.47-0.983-0.982c-0.008-0.043-0.011-0.087-0.011-0.131
		s0.004-0.088,0.011-0.131c0.06-0.513,0.47-0.922,0.983-0.983c0.042-0.007,0.086-0.011,0.13-0.011s0.088,0.004,0.13,0.011
		c0.513,0.061,0.923,0.47,0.983,0.983c0.008,0.043,0.011,0.087,0.011,0.131s-0.004,0.088-0.011,0.131
		c-0.06,0.513-0.47,0.922-0.983,0.982C4.588,16.871,4.544,16.875,4.5,16.875z"/>
	<path d="M12,16.875c-0.044,0-0.088-0.004-0.13-0.011c-0.513-0.06-0.923-0.47-0.983-0.982c-0.008-0.043-0.011-0.087-0.011-0.131
		s0.004-0.088,0.011-0.131c0.06-0.513,0.47-0.922,0.983-0.983c0.042-0.007,0.086-0.011,0.13-0.011s0.088,0.004,0.13,0.011
		c0.513,0.061,0.923,0.47,0.983,0.983c0.008,0.042,0.011,0.086,0.011,0.131s-0.004,0.088-0.011,0.131
		c-0.06,0.513-0.47,0.923-0.983,0.983C12.088,16.871,12.044,16.875,12,16.875z"/>
	<path d="M19.938,10.5c-0.103,0-0.204-0.021-0.299-0.062c-0.184-0.08-0.326-0.227-0.399-0.413c-0.073-0.186-0.07-0.39,0.01-0.574
		c0.165-0.38,0.249-0.783,0.25-1.197c0-0.802-0.312-1.556-0.878-2.123c-0.567-0.567-1.32-0.88-2.122-0.88h-4.151
		c0.323,0.358,0.587,0.766,0.78,1.211c0.495,1.14,0.494,2.448-0.003,3.589c-0.119,0.274-0.389,0.451-0.688,0.451
		c-0.104,0-0.204-0.021-0.3-0.063c-0.183-0.08-0.325-0.226-0.398-0.413c-0.073-0.187-0.07-0.39,0.01-0.574
		c0.331-0.76,0.332-1.632,0.002-2.392c-0.476-1.097-1.558-1.806-2.757-1.806c-0.41,0-0.81,0.083-1.189,0.248
		C6.288,6.159,5.59,7.929,6.248,9.446c0.165,0.38-0.01,0.822-0.389,0.987c-0.095,0.041-0.195,0.062-0.299,0.062l0,0
		c-0.299,0-0.569-0.177-0.688-0.452C4.394,8.941,4.373,7.718,4.814,6.6s1.292-1.997,2.394-2.476c0.554-0.24,1.139-0.365,1.74-0.371
		C8.961,3.751,8.98,3.75,9,3.75h7.5c1.203,0.001,2.333,0.47,3.183,1.32c0.85,0.851,1.317,1.982,1.317,3.184
		c0,0.621-0.126,1.225-0.375,1.795C20.507,10.323,20.237,10.5,19.938,10.5z"/>
	<path d="M9,9.375c-0.044,0-0.088-0.004-0.131-0.012c-0.513-0.06-0.922-0.47-0.982-0.982C7.879,8.338,7.875,8.294,7.875,8.25
		s0.004-0.088,0.012-0.131c0.06-0.513,0.47-0.922,0.982-0.982C8.912,7.129,8.956,7.125,9,7.125s0.088,0.004,0.131,0.012
		c0.513,0.06,0.922,0.47,0.982,0.982c0.008,0.043,0.012,0.087,0.012,0.131s-0.004,0.088-0.012,0.131
		c-0.06,0.513-0.47,0.922-0.982,0.982C9.088,9.371,9.044,9.375,9,9.375z"/>
</g>
</svg>
