<?xml version="1.0" encoding="utf-8"?>
<!-- Generator: Adobe Illustrator 22.1.0, SVG Export Plug-In . SVG Version: 6.00 Build 0)  -->
<svg version="1.1" id="Regular" xmlns="http://www.w3.org/2000/svg" xmlns:xlink="http://www.w3.org/1999/xlink" x="0px" y="0px"
	 viewBox="0 0 24 24" style="enable-background:new 0 0 24 24;" xml:space="preserve">
<title>tree-two</title>
<g>
	<path d="M5.25,24c-0.414,0-0.75-0.336-0.75-0.75V19.5H2.25c-0.214,0-0.426-0.03-0.63-0.09c-0.576-0.168-1.053-0.551-1.342-1.078
		c-0.289-0.527-0.356-1.135-0.187-1.712L4.527,0.55C4.617,0.226,4.914,0,5.25,0s0.633,0.226,0.723,0.55l4.44,16.08
		c0.057,0.196,0.087,0.406,0.087,0.62c0,1.241-1.009,2.25-2.25,2.25H6v3.75C6,23.664,5.664,24,5.25,24z M8.25,18
		C8.664,18,9,17.664,9,17.25c0-0.071-0.01-0.142-0.03-0.21l-0.967-3.502C7.082,13.81,6,15.512,6,17.25V18H8.25z M1.533,17.03
		c-0.059,0.204-0.038,0.403,0.06,0.581c0.096,0.176,0.255,0.303,0.447,0.359C2.109,17.99,2.179,18,2.25,18H4.5v-0.75
		c0-1.738-1.082-3.44-2.003-3.712L1.533,17.03z M2.894,12.101c0.568,0.166,1.123,0.545,1.606,1.09V10.5
		c0-0.414,0.336-0.75,0.75-0.75S6,10.086,6,10.5v2.691c0.483-0.546,1.038-0.925,1.606-1.09L5.25,3.568L2.894,12.101z"/>
	<path d="M17.25,24c-0.414,0-0.75-0.336-0.75-0.75v-6.792c-3.392-0.375-6-3.256-6-6.708C10.5,6.028,13.528,3,17.25,3
		S24,6.028,24,9.75c0,3.451-2.608,6.332-6,6.708v6.792C18,23.664,17.664,24,17.25,24z M17.25,4.5C14.355,4.5,12,6.855,12,9.75
		c0,2.619,1.946,4.828,4.5,5.195V13.5c0-1.868-1.183-2.25-1.5-2.25c-0.414,0-0.75-0.336-0.75-0.75S14.587,9.75,15,9.75
		c0.4,0,0.964,0.145,1.5,0.517V8.25c0-0.414,0.336-0.75,0.75-0.75S18,7.836,18,8.25v2.017c0.536-0.372,1.1-0.517,1.5-0.517
		c0.414,0,0.75,0.336,0.75,0.75s-0.336,0.75-0.75,0.75c-0.317,0-1.5,0.382-1.5,2.25v1.445c2.553-0.367,4.5-2.576,4.5-5.195
		C22.5,6.855,20.145,4.5,17.25,4.5z"/>
</g>
</svg>
