<?xml version="1.0" encoding="utf-8"?>
<!-- Generator: Adobe Illustrator 22.1.0, SVG Export Plug-In . SVG Version: 6.00 Build 0)  -->
<svg version="1.1" id="Regular" xmlns="http://www.w3.org/2000/svg" xmlns:xlink="http://www.w3.org/1999/xlink" x="0px" y="0px"
	 viewBox="0 0 24 24" style="enable-background:new 0 0 24 24;" xml:space="preserve">
<title>tree-1</title>
<g>
	<path d="M11.996,24.001c-0.414,0-0.75-0.336-0.75-0.75v-5.25h-3.75c-1.206,0-2.306-0.623-3.017-1.708
		c-0.833-1.271-0.969-2.938-0.354-4.353l4.493-9.558c0.369-1.033,1.174-1.829,2.212-2.186c0.376-0.129,0.767-0.195,1.163-0.195
		c1.516,0,2.872,0.956,3.381,2.381l4.484,9.538c0.622,1.433,0.487,3.105-0.346,4.375c-0.711,1.084-1.811,1.706-3.015,1.706h-0.027
		c-0.243,1.953-1.776,3.478-3.723,3.719v1.531C12.746,23.664,12.41,24.001,11.996,24.001z M12.746,20.204
		c1.113-0.217,1.988-1.089,2.205-2.203h-2.205V20.204z M16.496,16.501c0.69,0,1.332-0.375,1.761-1.029
		c0.559-0.852,0.649-1.977,0.234-2.935L14,2.985c-0.011-0.024-0.022-0.049-0.031-0.076c-0.29-0.843-1.083-1.409-1.976-1.409
		c-0.229,0-0.457,0.038-0.676,0.114c-0.613,0.21-1.085,0.683-1.295,1.296c-0.009,0.025-0.019,0.05-0.03,0.074l-4.501,9.574
		c-0.408,0.94-0.318,2.06,0.241,2.913c0.429,0.655,1.072,1.031,1.763,1.031h3.75v-2.244c-0.093,0.01-0.187,0.014-0.281,0.014
		c-0.128,0-0.258-0.009-0.386-0.027c-0.725-0.103-1.365-0.483-1.805-1.068c-0.439-0.585-0.624-1.306-0.521-2.031
		c0.052-0.367,0.372-0.644,0.742-0.644c0.035,0,0.071,0.002,0.106,0.008c0.198,0.028,0.374,0.132,0.494,0.292
		c0.12,0.16,0.171,0.358,0.143,0.556c-0.047,0.328,0.037,0.654,0.236,0.919c0.199,0.265,0.488,0.436,0.816,0.483
		c0.059,0.009,0.117,0.013,0.175,0.013c0.058,0,0.116-0.004,0.174-0.012c0.036-0.005,0.072-0.008,0.107-0.008v-3
		c0-0.414,0.336-0.75,0.75-0.75s0.75,0.336,0.75,0.75v6.75H16.496z"/>
</g>
</svg>
