<?xml version="1.0" encoding="utf-8"?>
<!-- Generator: Adobe Illustrator 22.1.0, SVG Export Plug-In . SVG Version: 6.00 Build 0)  -->
<svg version="1.1" id="Regular" xmlns="http://www.w3.org/2000/svg" xmlns:xlink="http://www.w3.org/1999/xlink" x="0px" y="0px"
	 viewBox="0 0 24 24" style="enable-background:new 0 0 24 24;" xml:space="preserve">
<title>tree</title>
<g>
	<path d="M12,24c-0.414,0-0.75-0.336-0.75-0.75v-2.284c-4.234-0.381-7.5-3.923-7.5-8.216C3.75,7.012,9.273,0,12,0
		s8.25,7.012,8.25,12.75c0,4.293-3.266,7.835-7.5,8.216v2.284C12.75,23.664,12.414,24,12,24z M12.75,19.458
		c3.395-0.375,6-3.248,6-6.708C18.75,7.612,13.599,1.5,12,1.5c-1.599,0-6.75,6.112-6.75,11.25c0,3.46,2.605,6.334,6,6.708v-5.285
		c-1.732-0.35-3-1.874-3-3.673c0-0.414,0.336-0.75,0.75-0.75s0.75,0.336,0.75,0.75c0,0.96,0.621,1.805,1.5,2.118V8.25
		c0-0.414,0.336-0.75,0.75-0.75s0.75,0.336,0.75,0.75v7.404C14.058,15.319,15,14.137,15,12.75c0-0.414,0.336-0.75,0.75-0.75
		s0.75,0.336,0.75,0.75c0,2.188-1.621,4.073-3.75,4.435V19.458z"/>
</g>
</svg>
