<?xml version="1.0" encoding="utf-8"?>
<!-- Generator: Adobe Illustrator 22.1.0, SVG Export Plug-In . SVG Version: 6.00 Build 0)  -->
<svg version="1.1" id="Regular" xmlns="http://www.w3.org/2000/svg" xmlns:xlink="http://www.w3.org/1999/xlink" x="0px" y="0px"
	 viewBox="0 0 24 24" style="enable-background:new 0 0 24 24;" xml:space="preserve">
<title>trees-chop</title>
<g>
	<path d="M4.271,24.002c-0.303,0-0.599-0.115-0.835-0.324c-0.257-0.228-0.41-0.543-0.431-0.886c-0.015-0.248,0.042-0.493,0.164-0.71
		l0.31-0.517c0.917-1.476,1.401-3.166,1.405-4.894v-0.387c0.028-0.728,0.6-1.287,1.304-1.287l0.053,0.001l3.186,0
		c-0.438-0.82-0.975-1.58-1.602-2.269L7.22,13.334c-0.142,0.142-0.33,0.22-0.53,0.22s-0.389-0.078-0.53-0.22
		c-0.292-0.292-0.292-0.768,0-1.061l0.586-0.586c-0.177-0.151-0.341-0.283-0.502-0.404c-0.174-0.13-0.283-0.33-0.298-0.547
		s0.064-0.43,0.217-0.584l4.236-4.243c0.141-0.142,0.33-0.22,0.53-0.22c0.021,0,0.042,0.001,0.063,0.003
		c0.219,0.018,0.419,0.131,0.547,0.311c0.001,0.002,0.141,0.194,0.397,0.494l6.276-6.276c0.142-0.142,0.33-0.22,0.53-0.22
		s0.389,0.078,0.53,0.22c0.142,0.141,0.22,0.33,0.22,0.53s-0.078,0.389-0.22,0.53l-6.297,6.297c1.063,0.988,2.622,2.105,4.423,2.362
		c0.283,0.04,0.515,0.234,0.605,0.505c0.091,0.271,0.021,0.566-0.181,0.768l-3.782,3.784l3.769-0.001
		c0.684,0,1.262,0.564,1.289,1.258l0,0.418c0.003,1.726,0.487,3.415,1.399,4.883l0.306,0.51c0.356,0.631,0.139,1.422-0.479,1.771
		c-0.193,0.108-0.413,0.166-0.636,0.166L19.642,24l-15.32,0C4.321,24.001,4.297,24.002,4.271,24.002L4.271,24.002z M6.384,16.672
		c-0.004,2.008-0.566,3.97-1.625,5.674l-0.093,0.155l4.327-0.001v-2.25c0-0.414,0.336-0.75,0.75-0.75s0.75,0.336,0.75,0.75v2.25l3,0
		v-2.25c0-0.414,0.336-0.75,0.75-0.75s0.75,0.336,0.75,0.75v2.25l4.323,0l-0.099-0.164c-1.054-1.696-1.615-3.656-1.619-5.663v-0.177
		l-5.326,0c-0.015,0.002-0.031,0.003-0.045,0.003s-0.03-0.001-0.045-0.003H6.384L6.384,16.672z M7.813,10.622
		c0.172,0.15,0.351,0.315,0.545,0.503c1.156,1.116,2.077,2.418,2.743,3.872l0.819,0l3.899-3.901
		c-2.323-0.784-4.084-2.53-4.951-3.534L7.813,10.622z"/>
</g>
</svg>
