<?xml version="1.0" encoding="utf-8"?>
<!-- Generator: Adobe Illustrator 22.1.0, SVG Export Plug-In . SVG Version: 6.00 Build 0)  -->
<svg version="1.1" id="Regular" xmlns="http://www.w3.org/2000/svg" xmlns:xlink="http://www.w3.org/1999/xlink" x="0px" y="0px"
	 viewBox="0 0 24 24" style="enable-background:new 0 0 24 24;" xml:space="preserve">
<title>tree-christmas</title>
<g>
	<path d="M12.217,23.75c-0.414,0-0.75-0.336-0.75-0.75v-2.25H5.5c-0.335,0-0.663-0.113-0.925-0.318
		c-0.315-0.246-0.515-0.601-0.564-0.998c-0.049-0.398,0.06-0.79,0.306-1.105L7.685,14c-0.311-0.007-0.618-0.113-0.867-0.299
		c-0.32-0.24-0.528-0.591-0.584-0.988c-0.057-0.397,0.044-0.792,0.285-1.112l2.7-3.6c0,0-0.1,0-0.1,0
		C8.812,8,8.535,7.916,8.284,7.749c-0.333-0.222-0.56-0.561-0.639-0.954c-0.079-0.393,0-0.793,0.223-1.126l3.1-4.648
		c0.11-0.165,0.249-0.304,0.414-0.414c0.248-0.166,0.536-0.253,0.833-0.253c0.504,0,0.971,0.249,1.25,0.667l3.1,4.649
		c0.165,0.247,0.252,0.534,0.252,0.832c0,0.827-0.673,1.5-1.5,1.5h-0.1l2.7,3.6c0.192,0.257,0.298,0.575,0.299,0.895
		c0.002,0.818-0.653,1.486-1.466,1.505l3.367,4.33c0.205,0.263,0.317,0.591,0.316,0.925c-0.001,0.4-0.157,0.776-0.441,1.059
		c-0.283,0.281-0.658,0.437-1.057,0.437h-5.968V23C12.967,23.414,12.631,23.75,12.217,23.75z M9.218,12.5
		c0.284,0,0.549,0.165,0.674,0.42c0.125,0.256,0.093,0.566-0.082,0.79l-4.31,5.54c0,0,13.434-0.001,13.435-0.001l-4.31-5.539
		c-0.175-0.225-0.207-0.535-0.082-0.79s0.39-0.42,0.674-0.42h1.5l-3.6-4.8c-0.171-0.229-0.198-0.53-0.071-0.785
		S13.431,6.5,13.717,6.5h1.6l-3.1-4.648L9.116,6.501l1.602,0c0.286,0,0.543,0.159,0.671,0.414c0.128,0.256,0.101,0.557-0.071,0.786
		l-3.6,4.8H9.218z"/>
</g>
</svg>
