<?xml version="1.0" encoding="utf-8"?>
<!-- Generator: Adobe Illustrator 22.1.0, SVG Export Plug-In . SVG Version: 6.00 Build 0)  -->
<svg version="1.1" id="Regular" xmlns="http://www.w3.org/2000/svg" xmlns:xlink="http://www.w3.org/1999/xlink" x="0px" y="0px"
	 viewBox="0 0 24 24" style="enable-background:new 0 0 24 24;" xml:space="preserve">
<title>trekking-mountain</title>
<g>
	<path d="M6.749,23.875c-0.414,0-0.75-0.336-0.75-0.75s0.336-0.75,0.75-0.75h4.237l3.545-2.835c0.133-0.106,0.299-0.165,0.469-0.165
		h0.606L13.51,7.505c-0.072-0.407,0.201-0.797,0.608-0.869c0.044-0.008,0.088-0.012,0.131-0.012c0.364,0,0.674,0.261,0.738,0.62
		l2.141,12.131h0.407l2.792-5.585c0.128-0.256,0.385-0.415,0.671-0.415h2.25c0.414,0,0.75,0.336,0.75,0.75s-0.336,0.75-0.75,0.75
		h-1.787L18.67,20.46c-0.128,0.256-0.385,0.415-0.671,0.415h-2.737l-3.545,2.835c-0.133,0.106-0.299,0.165-0.469,0.165H6.749z"/>
	<path d="M10.499,20.875c-0.414,0-0.75-0.336-0.75-0.75c0-2.879-2.473-4.208-3.404-4.709c-0.218-0.117-0.362-0.195-0.475-0.285
		c-0.248-0.199-0.344-0.534-0.238-0.834l0.771-2.186c0.088-0.249,0.303-0.435,0.562-0.486c0.048-0.01,0.097-0.014,0.145-0.014
		c0.214,0,0.418,0.092,0.56,0.251c1.244,1.397,3.191,1.514,5.079,1.514c0.414,0,0.75,0.336,0.75,0.75s-0.336,0.75-0.75,0.75
		c-1.837,0-3.747-0.1-5.304-1.211l-0.19,0.539c1.265,0.691,3.994,2.35,3.994,5.922C11.249,20.539,10.913,20.875,10.499,20.875z"/>
	<path d="M2.25,23.874c-0.254,0-0.505-0.043-0.745-0.126c-0.009-0.003-0.022-0.008-0.031-0.012
		c-0.543-0.192-0.997-0.601-1.256-1.143c-0.259-0.543-0.291-1.154-0.09-1.72l4.5-12.749c0.3-0.854,1.078-1.442,1.981-1.499
		c0.044-0.002,0.083-0.003,0.122-0.003c0.859,0,1.637,0.473,2.028,1.235l0.577,1.159c0.506,1.003,1.399,1.359,3.414,1.359
		c0.414,0,0.75,0.336,0.75,0.75s-0.336,0.75-0.75,0.75c-1.806,0-3.783-0.26-4.755-2.187L7.421,8.534
		C7.293,8.285,7.024,8.122,6.738,8.122L6.696,8.123C6.4,8.142,6.143,8.338,6.043,8.623l-4.5,12.751
		c-0.067,0.189-0.056,0.393,0.03,0.574c0.086,0.18,0.237,0.316,0.425,0.383c0.002,0,0.004,0.001,0.006,0.002
		c0.081,0.027,0.164,0.041,0.249,0.041c0.316,0,0.6-0.201,0.706-0.5l1.623-4.6c0.071-0.202,0.226-0.365,0.425-0.445
		c0.089-0.037,0.184-0.055,0.282-0.055c0.114,0,0.229,0.027,0.331,0.077c0.081,0.04,0.173,0.08,0.272,0.123
		c0.827,0.36,2.358,1.027,2.358,3.15c0,0.414-0.336,0.75-0.75,0.75s-0.75-0.336-0.75-0.75c0-0.885-0.424-1.272-1.027-1.577
		l-1.35,3.826C4.055,23.271,3.202,23.874,2.25,23.874L2.25,23.874z"/>
	<path d="M9.75,7C7.889,7,6.375,5.486,6.375,3.625S7.889,0.25,9.75,0.25c1.861,0,3.375,1.514,3.375,3.375S11.611,7,9.75,7z
		 M9.75,1.75c-1.034,0-1.875,0.841-1.875,1.875S8.716,5.5,9.75,5.5s1.875-0.841,1.875-1.875S10.784,1.75,9.75,1.75z"/>
	<path d="M0.75,13.375c-0.102,0-0.201-0.02-0.295-0.06c-0.381-0.163-0.557-0.605-0.395-0.985l2.25-5.25
		c0.119-0.276,0.39-0.455,0.69-0.455c0.102,0,0.201,0.02,0.295,0.06C3.676,6.849,3.852,7.29,3.689,7.67l-2.25,5.25
		C1.321,13.197,1.05,13.375,0.75,13.375z"/>
</g>
</svg>
