<?xml version="1.0" encoding="utf-8"?>
<!-- Generator: Adobe Illustrator 22.1.0, SVG Export Plug-In . SVG Version: 6.00 Build 0)  -->
<svg version="1.1" id="Regular" xmlns="http://www.w3.org/2000/svg" xmlns:xlink="http://www.w3.org/1999/xlink" x="0px" y="0px"
	 viewBox="0 0 24 24" style="enable-background:new 0 0 24 24;" xml:space="preserve">
<title>trekking-shelter</title>
<g>
	<path d="M17.25,22.25c-0.414,0-0.75-0.336-0.75-0.75v-8.25h-15v8.25c0,0.414-0.336,0.75-0.75,0.75S0,21.913,0,21.5v-9
		c0-0.06,0.008-0.12,0.024-0.185c0.002-0.008,0.01-0.034,0.012-0.042c0.015-0.046,0.032-0.087,0.053-0.125
		c0.007-0.016,0.016-0.032,0.024-0.045l5.998-9.746C6.249,2.133,6.488,2,6.75,2c0.139,0,0.274,0.038,0.393,0.111
		C7.373,2.252,7.5,2.498,7.5,2.75h14.87l0.242-0.393C22.749,2.133,22.988,2,23.251,2c0.139,0,0.275,0.039,0.393,0.112
		c0.17,0.105,0.29,0.27,0.336,0.465c0.047,0.195,0.014,0.396-0.091,0.567L18,12.712V21.5C18,21.913,17.664,22.25,17.25,22.25z
		 M16.831,11.75l4.615-7.5H6.708l-4.615,7.5H16.831z"/>
	<path d="M8.25,7.25C7.837,7.25,7.5,6.913,7.5,6.5s0.336-0.75,0.75-0.75h7.5c0.414,0,0.75,0.336,0.75,0.75s-0.336,0.75-0.75,0.75
		H8.25z"/>
	<path d="M6.75,10.25C6.337,10.25,6,9.913,6,9.5s0.336-0.75,0.75-0.75h7.5C14.664,8.75,15,9.086,15,9.5s-0.336,0.75-0.75,0.75H6.75z
		"/>
</g>
</svg>
