<?xml version="1.0" encoding="utf-8"?>
<!-- Generator: Adobe Illustrator 22.1.0, SVG Export Plug-In . SVG Version: 6.00 Build 0)  -->
<svg version="1.1" id="Regular" xmlns="http://www.w3.org/2000/svg" xmlns:xlink="http://www.w3.org/1999/xlink" x="0px" y="0px"
	 viewBox="0 0 24 24" style="enable-background:new 0 0 24 24;" xml:space="preserve">
<title>trousers-calves</title>
<g>
	<path d="M15.667,24c-0.76-0.001-1.4-0.57-1.49-1.323L12.93,12.076c-0.05-0.436-0.389-0.775-0.824-0.825
		c-0.037-0.004-0.073-0.006-0.11-0.006c-0.211,0-0.412,0.07-0.579,0.203c-0.196,0.155-0.319,0.378-0.348,0.626L9.823,22.675
		C9.733,23.43,9.092,23.999,8.333,24H3.06c-0.038,0-0.077-0.001-0.115-0.004c-0.825-0.064-1.444-0.787-1.381-1.612L3,3.721V1.25
		C3,0.561,3.561,0,4.25,0h15.5C20.439,0,21,0.561,21,1.25v2.473l0.4,5.19C21.4,8.921,21.401,8.93,21.401,8.94l1.035,13.445
		c0.003,0.038,0.005,0.077,0.005,0.116c0,0.401-0.156,0.777-0.439,1.061C21.717,23.844,21.341,24,20.94,24H15.667z M11.996,9.744
		c0.094,0,0.188,0.005,0.282,0.016c1.132,0.13,2.013,1.011,2.143,2.142L15.667,22.5l5.273,0L19.958,9.737
		c-2.145-0.186-3.906-2.394-4.172-5.237H12v2.25h0.75c0.414,0,0.75,0.336,0.75,0.75s-0.336,0.75-0.75,0.75H12
		c-0.827,0-1.5-0.673-1.5-1.5V4.5H8.214C7.947,7.343,6.186,9.551,4.041,9.737L3.06,22.5l5.273,0L9.58,11.9
		c0.074-0.645,0.395-1.223,0.905-1.628C10.92,9.927,11.443,9.744,11.996,9.744z M17.292,4.5c0.219,1.929,1.265,3.438,2.549,3.707
		L19.555,4.5H17.292z M4.159,8.207C5.442,7.938,6.489,6.429,6.708,4.5H4.444L4.159,8.207z M19.5,3V1.5h-15V3H19.5z"/>
</g>
</svg>
