<?xml version="1.0" encoding="utf-8"?>
<!-- Generator: Adobe Illustrator 22.1.0, SVG Export Plug-In . SVG Version: 6.00 Build 0)  -->
<svg version="1.1" id="Layer_1" xmlns="http://www.w3.org/2000/svg" xmlns:xlink="http://www.w3.org/1999/xlink" x="0px" y="0px"
	 viewBox="0 0 24 24" style="enable-background:new 0 0 24 24;" xml:space="preserve">
<title>truck-animal</title>
<g>
	<path d="M21,18.75c-0.414,0-0.75-0.336-0.75-0.75s0.336-0.75,0.75-0.75h0.75c0.414,0,0.75-0.336,0.75-0.75v-3.75h-2.25
		c-1.241,0-2.25-1.009-2.25-2.25V6.75h-1.5V12c0,0.414-0.336,0.75-0.75,0.75H2.25c-0.414,0-0.75,0.336-0.75,0.75v0.75
		C1.5,14.664,1.164,15,0.75,15S0,14.664,0,14.25V13.5c0-1.241,1.009-2.25,2.25-2.25v-1.5H1.5C1.086,9.75,0.75,9.414,0.75,9
		S1.086,8.25,1.5,8.25h0.75v-1.5H1.5C1.086,6.75,0.75,6.414,0.75,6S1.086,5.25,1.5,5.25h0.75V4.5c0-0.414,0.336-0.75,0.75-0.75
		S3.75,4.086,3.75,4.5v0.75h6.75V4.5c0-0.414,0.336-0.75,0.75-0.75S12,4.086,12,4.5v0.75h0.75c0.414,0,0.75,0.336,0.75,0.75
		s-0.336,0.75-0.75,0.75H12v1.5h0.75c0.414,0,0.75,0.336,0.75,0.75s-0.336,0.75-0.75,0.75H12v1.5h3v-4.5c0-0.827,0.673-1.5,1.5-1.5
		h2.25c2.895,0,5.25,2.355,5.25,5.25v6c0,1.241-1.009,2.25-2.25,2.25H21z M19.5,10.5c0,0.414,0.336,0.75,0.75,0.75h2.25V10.5
		c0-1.781-1.288-3.32-3-3.672V10.5z M10.5,11.25v-1.5H3.75v1.5H10.5z M10.5,8.25v-1.5H3.75v1.5H10.5z"/>
	<path d="M16.5,20.25c-1.654,0-3-1.346-3-3s1.346-3,3-3s3,1.346,3,3S18.154,20.25,16.5,20.25z M16.5,15.75
		c-0.827,0-1.5,0.673-1.5,1.5s0.673,1.5,1.5,1.5s1.5-0.673,1.5-1.5S17.327,15.75,16.5,15.75z"/>
	<path d="M4.5,20.25c-1.654,0-3-1.346-3-3s1.346-3,3-3s3,1.346,3,3S6.154,20.25,4.5,20.25z M4.5,15.75c-0.827,0-1.5,0.673-1.5,1.5
		s0.673,1.5,1.5,1.5S6,18.077,6,17.25S5.327,15.75,4.5,15.75z"/>
	<path d="M9,18.75c-0.414,0-0.75-0.336-0.75-0.75S8.586,17.25,9,17.25h3c0.414,0,0.75,0.336,0.75,0.75s-0.336,0.75-0.75,0.75H9z"/>
</g>
</svg>
