<?xml version="1.0" encoding="utf-8"?>
<!-- Generator: Adobe Illustrator 22.1.0, SVG Export Plug-In . SVG Version: 6.00 Build 0)  -->
<svg version="1.1" id="Layer_1" xmlns="http://www.w3.org/2000/svg" xmlns:xlink="http://www.w3.org/1999/xlink" x="0px" y="0px"
	 viewBox="0 0 24 24" style="enable-background:new 0 0 24 24;" xml:space="preserve">
<title>truck-3</title>
<g>
	<path d="M6,18.388c-0.044,0-0.088-0.004-0.13-0.011c-0.513-0.06-0.923-0.47-0.983-0.982c-0.008-0.043-0.011-0.087-0.011-0.131
		s0.004-0.088,0.011-0.131c0.06-0.513,0.47-0.922,0.983-0.983c0.042-0.007,0.086-0.011,0.13-0.011s0.088,0.004,0.13,0.011
		c0.513,0.061,0.923,0.47,0.983,0.983c0.008,0.043,0.011,0.087,0.011,0.131s-0.004,0.088-0.011,0.131
		c-0.06,0.513-0.47,0.922-0.983,0.982C6.088,18.384,6.044,18.388,6,18.388z"/>
	<path d="M18,18.388c-0.044,0-0.088-0.004-0.131-0.011c-0.513-0.06-0.923-0.47-0.983-0.983c-0.007-0.042-0.011-0.086-0.011-0.13
		s0.004-0.088,0.011-0.131c0.06-0.513,0.47-0.923,0.983-0.983c0.042-0.008,0.086-0.011,0.131-0.011s0.088,0.004,0.131,0.011
		c0.513,0.06,0.923,0.47,0.983,0.983c0.008,0.042,0.011,0.086,0.011,0.131s-0.004,0.088-0.011,0.131
		c-0.06,0.513-0.47,0.923-0.983,0.983C18.088,18.384,18.044,18.388,18,18.388z"/>
	<path d="M18,24.013c-1.241,0-2.25-1.009-2.25-2.25v-0.75h-7.5v0.75c0,1.241-1.009,2.25-2.25,2.25s-2.25-1.009-2.25-2.25v-0.879
		c-0.885-0.313-1.5-1.161-1.5-2.121v-8.25H1.5c-0.414,0-0.75-0.336-0.75-0.75s0.336-0.75,0.75-0.75h0.75v-1.5
		c0-0.86,0.19-1.702,0.563-2.503C2.832,4.958,2.855,4.91,2.882,4.865c0.557-1.117,1.447-2.093,2.645-2.902
		C7.335,0.742,9.755,0.013,12,0.013c3.943,0,7.687,1.993,9.116,4.85c0.027,0.042,0.049,0.089,0.068,0.14
		c0.376,0.8,0.566,1.645,0.566,2.51v1.5h0.75c0.414,0,0.75,0.336,0.75,0.75s-0.336,0.75-0.75,0.75h-0.75v8.25
		c0,0.96-0.615,1.808-1.5,2.121v0.879C20.25,23.004,19.241,24.013,18,24.013z M17.25,21.763c0,0.414,0.336,0.75,0.75,0.75
		s0.75-0.336,0.75-0.75v-0.75h-1.5V21.763z M5.25,21.763c0,0.414,0.336,0.75,0.75,0.75s0.75-0.336,0.75-0.75v-0.75h-1.5V21.763z
		 M19.5,19.513c0.414,0,0.75-0.336,0.75-0.75v-6.499c-4.48,1.503-6.897,5.193-7.398,7.249H19.5z M3.75,18.763
		c0,0.414,0.336,0.75,0.75,0.75h6.648c-0.5-2.056-2.919-5.746-7.398-7.249V18.763z M6.782,12.013
		c2.592,1.536,4.331,3.74,5.218,5.554c0.887-1.814,2.625-4.018,5.218-5.554H6.782z M20.25,10.513v-3c0-0.493-0.098-0.996-0.293-1.5
		H12.75v4.5H20.25z M11.25,10.513v-4.5H4.043C3.848,6.517,3.75,7.02,3.75,7.513v3H11.25z M19.073,4.513
		c-1.258-1.539-3.648-3-7.073-3c-3.426,0-5.816,1.461-7.073,3H19.073z"/>
</g>
</svg>
