<?xml version="1.0" encoding="utf-8"?>
<!-- Generator: Adobe Illustrator 22.1.0, SVG Export Plug-In . SVG Version: 6.00 Build 0)  -->
<svg version="1.1" id="Layer_1" xmlns="http://www.w3.org/2000/svg" xmlns:xlink="http://www.w3.org/1999/xlink" x="0px" y="0px"
	 viewBox="0 0 24 24" style="enable-background:new 0 0 24 24;" xml:space="preserve">
<title>truck-moving</title>
<g>
	<path d="M21,18.963c-0.414,0-0.75-0.336-0.75-0.75s0.336-0.75,0.75-0.75h0.75c0.414,0,0.75-0.336,0.75-0.75v-3.75h-2.25
		c-1.241,0-2.25-1.009-2.25-2.25v-3.75h-1.5v5.25c0,0.414-0.336,0.75-0.75,0.75H2.25c-0.414,0-0.75,0.336-0.75,0.75v0.75
		c0,0.414-0.336,0.75-0.75,0.75S0,14.877,0,14.463v-0.75c0-1.241,1.009-2.25,2.25-2.25H3.5V5.865l-1.046,0.66
		c-0.12,0.076-0.258,0.116-0.4,0.116c-0.259,0-0.496-0.131-0.635-0.35c-0.221-0.35-0.116-0.814,0.234-1.035L7.35,1.662
		c0.12-0.076,0.258-0.116,0.4-0.116c0.146,0,0.288,0.042,0.411,0.122l5.5,3.595c0.346,0.226,0.444,0.692,0.218,1.038
		c-0.139,0.213-0.374,0.34-0.628,0.34c-0.146,0-0.288-0.042-0.41-0.122L12,5.97v5.493h3v-4.5c0-0.827,0.673-1.5,1.5-1.5h2.25
		c2.895,0,5.25,2.355,5.25,5.25v6c0,1.241-1.009,2.25-2.25,2.25H21z M19.5,10.713c0,0.414,0.336,0.75,0.75,0.75h2.25v-0.75
		c0-1.781-1.288-3.32-3-3.672V10.713z M10.5,11.463V4.989L7.743,3.187L5,4.918v6.545H10.5z"/>
	<path d="M16.5,20.463c-1.654,0-3-1.346-3-3s1.346-3,3-3s3,1.346,3,3S18.154,20.463,16.5,20.463z M16.5,15.963
		c-0.827,0-1.5,0.673-1.5,1.5s0.673,1.5,1.5,1.5s1.5-0.673,1.5-1.5S17.327,15.963,16.5,15.963z"/>
	<path d="M4.5,20.463c-1.654,0-3-1.346-3-3s1.346-3,3-3s3,1.346,3,3S6.154,20.463,4.5,20.463z M4.5,15.963
		c-0.827,0-1.5,0.673-1.5,1.5s0.673,1.5,1.5,1.5S6,18.29,6,17.463S5.327,15.963,4.5,15.963z"/>
	<path d="M9,18.963c-0.414,0-0.75-0.336-0.75-0.75s0.336-0.75,0.75-0.75h3c0.414,0,0.75,0.336,0.75,0.75s-0.336,0.75-0.75,0.75H9z"
		/>
</g>
</svg>
