<?xml version="1.0" encoding="utf-8"?>
<!-- Generator: Adobe Illustrator 22.1.0, SVG Export Plug-In . SVG Version: 6.00 Build 0)  -->
<svg version="1.1" id="Layer_1" xmlns="http://www.w3.org/2000/svg" xmlns:xlink="http://www.w3.org/1999/xlink" x="0px" y="0px"
	 viewBox="0 0 24 24" style="enable-background:new 0 0 24 24;" xml:space="preserve">
<title>tv-flat-screen-disable</title>
<g>
	<path d="M8.25,22.375c-0.414,0-0.75-0.336-0.75-0.75s0.336-0.75,0.75-0.75h1.5v-2.25h-8c-0.965,0-1.75-0.785-1.75-1.75v-13
		c0-0.965,0.785-1.75,1.75-1.75h20.5c0.965,0,1.75,0.785,1.75,1.75v13c0,0.965-0.785,1.75-1.75,1.75h-8v2.25h1.5
		c0.414,0,0.75,0.336,0.75,0.75s-0.336,0.75-0.75,0.75H8.25z M12.75,20.875v-2.25h-1.5v2.25H12.75z M1.75,3.625
		c-0.138,0-0.25,0.112-0.25,0.25v13c0,0.138,0.112,0.25,0.25,0.25h20.5c0.138,0,0.25-0.112,0.25-0.25v-13
		c0-0.138-0.112-0.25-0.25-0.25H1.75z"/>
	<path d="M12,15.625c-1.384,0-2.688-0.535-3.677-1.507c-0.014-0.011-0.028-0.023-0.039-0.035c-0.009-0.01-0.018-0.02-0.027-0.032
		C7.288,13.07,6.75,11.762,6.75,10.375c0-2.895,2.355-5.25,5.25-5.25c1.384,0,2.688,0.535,3.677,1.507
		c0.011,0.009,0.021,0.018,0.031,0.026c0.013,0.012,0.025,0.027,0.037,0.042c0.967,0.977,1.505,2.286,1.505,3.675
		C17.25,13.27,14.895,15.625,12,15.625z M9.934,13.502c0.611,0.404,1.331,0.623,2.066,0.623c2.068,0,3.75-1.682,3.75-3.75
		c0-0.735-0.219-1.455-0.623-2.066L9.934,13.502z M12,6.625c-2.068,0-3.75,1.682-3.75,3.75c0,0.735,0.219,1.455,0.623,2.066
		l5.193-5.193C13.455,6.844,12.735,6.625,12,6.625z"/>
</g>
</svg>
