<?xml version="1.0" encoding="utf-8"?>
<!-- Generator: Adobe Illustrator 22.1.0, SVG Export Plug-In . SVG Version: 6.00 Build 0)  -->
<svg version="1.1" id="Regular" xmlns="http://www.w3.org/2000/svg" xmlns:xlink="http://www.w3.org/1999/xlink" x="0px" y="0px"
	 viewBox="0 0 24 24" style="enable-background:new 0 0 24 24;" xml:space="preserve">
<title>underwear-bikini</title>
<g>
	<path d="M16.681,11.698c-1.743,0-3.354-0.581-4.681-1.684c-1.327,1.103-2.938,1.684-4.682,1.684c-1.287,0-2.597-0.313-3.891-0.93
		c-0.176-0.084-0.31-0.23-0.379-0.413c-0.611-1.621-0.611-3.407,0-5.029c0.067-0.177,0.196-0.32,0.364-0.405
		c1.257-0.634,2.673-0.969,4.096-0.969c0.111,0,0.222,0.002,0.333,0.006l-1.73-2.816C5.894,0.79,6.005,0.327,6.357,0.111
		C6.476,0.038,6.612,0,6.75,0c0.263,0,0.502,0.133,0.639,0.357l2.383,3.879C10.55,4.433,11.298,4.734,12,5.131
		c0.702-0.397,1.45-0.698,2.229-0.895l2.382-3.878C16.748,0.133,16.988,0,17.25,0c0.138,0,0.274,0.038,0.392,0.111
		c0.352,0.217,0.463,0.679,0.247,1.032l-1.73,2.816c0.111-0.004,0.222-0.006,0.333-0.006c1.422,0,2.839,0.335,4.096,0.969
		c0.169,0.085,0.298,0.23,0.364,0.406c0.611,1.621,0.611,3.407,0,5.028c-0.069,0.182-0.203,0.329-0.379,0.412
		C19.278,11.385,17.969,11.698,16.681,11.698z M12.75,8.679c1.1,1.003,2.45,1.532,3.914,1.532c0.967,0,1.969-0.225,2.983-0.669
		c0.35-1.106,0.349-2.305-0.002-3.41c-0.977-0.444-2.062-0.679-3.148-0.679c-0.524,0-1.049,0.054-1.562,0.16
		c-0.065,0.022-0.129,0.036-0.192,0.04c-0.702,0.164-1.371,0.423-1.992,0.772V8.679z M4.353,9.542
		c1.014,0.444,2.017,0.669,2.983,0.669c1.464,0,2.813-0.529,3.913-1.532V6.425c-0.621-0.349-1.29-0.609-1.992-0.772
		c-0.064-0.004-0.127-0.017-0.193-0.04c-0.513-0.106-1.038-0.16-1.562-0.16c-1.086,0-2.17,0.234-3.147,0.679
		C4.004,7.237,4.003,8.436,4.353,9.542z"/>
	<path d="M8.925,24c-0.355,0-0.664-0.252-0.735-0.6C7.906,22.01,6.669,21,5.25,21c-0.073,0-0.147,0.003-0.219,0.009
		c-0.02,0.001-0.038,0.002-0.056,0.002c-0.331,0-0.619-0.211-0.718-0.526c-0.495-1.58-0.492-5.42,1.277-6.823
		C5.665,13.558,5.831,13.5,6,13.5h12c0.169,0,0.335,0.058,0.468,0.164c1.766,1.408,1.769,5.245,1.275,6.822
		c-0.099,0.314-0.387,0.526-0.718,0.526l0,0c-0.028,0-0.056-0.002-0.084-0.005C18.892,21,18.845,21,18.798,21
		c-0.005,0-0.01,0-0.015,0l-0.033-0.375V21c-1.419,0-2.656,1.01-2.94,2.4c-0.071,0.347-0.38,0.6-0.735,0.6H8.925z M14.507,22.5
		c0.596-1.679,2.15-2.861,3.925-2.989c0.228-1.368,0.064-3.614-0.729-4.511H6.296c-0.794,0.895-0.957,3.142-0.728,4.511
		c1.775,0.127,3.329,1.309,3.925,2.989H14.507z"/>
</g>
</svg>
