<?xml version="1.0" encoding="utf-8"?>
<!-- Generator: Adobe Illustrator 22.1.0, SVG Export Plug-In . SVG Version: 6.00 Build 0)  -->
<svg version="1.1" id="Regular" xmlns="http://www.w3.org/2000/svg" xmlns:xlink="http://www.w3.org/1999/xlink" x="0px" y="0px"
	 viewBox="0 0 24 24" style="enable-background:new 0 0 24 24;" xml:space="preserve">
<title>underwear-bikini-bottom</title>
<g>
	<path d="M12.091,22.199c-1.234,0-2.333-0.829-2.674-2.015C8.045,15.408,4.854,11.615,1.5,8.244v2.706c0,0.414-0.336,0.75-0.75,0.75
		S0,11.363,0,10.949c0,0,0-4.528,0.001-4.535c0.032-0.857,0.171-2.949,0.75-3.717C1.173,2.136,1.847,1.8,2.552,1.8
		c0.49,0,0.956,0.155,1.348,0.449C4.381,2.61,4.692,3.136,4.777,3.731C4.862,4.326,4.711,4.918,4.35,5.399
		C4.154,5.66,3.797,5.928,3.269,6.21C6.153,6.755,9.085,7.087,12,7.199c2.915-0.112,5.846-0.444,8.731-0.989
		c-0.528-0.282-0.884-0.55-1.08-0.809c-0.362-0.482-0.514-1.074-0.429-1.669c0.085-0.595,0.396-1.121,0.877-1.482
		c0.393-0.295,0.859-0.451,1.347-0.451c0.107,0,0.215,0.008,0.321,0.023c0.595,0.085,1.122,0.396,1.482,0.877
		c0.001,0.001,0.002,0.002,0.003,0.004c0.576,0.77,0.715,2.857,0.748,3.719c0,0.005,0,4.529,0,4.529c0,0.414-0.336,0.75-0.75,0.75
		s-0.75-0.336-0.75-0.75V8.244c-3.392,3.41-6.613,7.249-7.961,12.095C14.234,21.435,13.228,22.199,12.091,22.199L12.091,22.199z
		 M3.073,7.701c3.278,3.355,6.376,7.162,7.786,12.069c0.157,0.547,0.664,0.928,1.233,0.929c0.465,0,0.877-0.313,1.002-0.762
		c1.386-4.983,4.516-8.84,7.834-12.237c-2.936,0.55-5.924,0.885-8.899,0.998c-0.005,0-0.055,0-0.057,0
		C8.996,8.586,6.009,8.251,3.073,7.701z M1.949,3.601C1.838,3.748,1.686,4.385,1.584,5.336C2.47,4.971,3.04,4.646,3.151,4.498
		c0.119-0.159,0.17-0.356,0.141-0.555C3.264,3.745,3.16,3.57,3,3.45C2.87,3.352,2.714,3.3,2.551,3.3c-0.238,0-0.457,0.108-0.6,0.297
		C1.951,3.599,1.95,3.6,1.949,3.601z M21.447,3.299c-0.162,0-0.317,0.052-0.448,0.15c-0.16,0.12-0.264,0.296-0.292,0.494
		c-0.028,0.198,0.022,0.396,0.142,0.556c0.111,0.147,0.681,0.472,1.566,0.837c-0.102-0.952-0.254-1.588-0.365-1.735
		c-0.003-0.004-0.01-0.014-0.016-0.023c-0.111-0.145-0.286-0.245-0.479-0.272C21.519,3.301,21.483,3.299,21.447,3.299z"/>
</g>
</svg>
