<?xml version="1.0" encoding="utf-8"?>
<!-- Generator: Adobe Illustrator 22.1.0, SVG Export Plug-In . SVG Version: 6.00 Build 0)  -->
<svg version="1.1" id="Regular" xmlns="http://www.w3.org/2000/svg" xmlns:xlink="http://www.w3.org/1999/xlink" x="0px" y="0px"
	 viewBox="0 0 24 24" style="enable-background:new 0 0 24 24;" xml:space="preserve">
<title>underwear-shorts-male</title>
<g>
	<path d="M15.421,24c-1.035,0-1.933-0.701-2.183-1.704L12,17.816l-1.243,4.498C10.51,23.303,9.613,24,8.579,24H2.25
		C1.009,24,0,22.991,0,21.75V2.25C0,1.009,1.009,0,2.25,0h19.5C22.991,0,24,1.009,24,2.25v19.5c0,1.241-1.009,2.25-2.25,2.25H15.421
		z M14.688,21.914c0.087,0.348,0.387,0.586,0.732,0.586h6.33c0.414,0,0.75-0.336,0.75-0.75v-15h-6.75v4.5c0,1.174-0.561,2.296-1.5,3
		l-1.391,1.043L14.688,21.914z M1.5,21.75c0,0.414,0.336,0.75,0.75,0.75h6.329c0.345,0,0.644-0.234,0.728-0.568l1.834-6.639
		L9.75,14.25c-0.939-0.704-1.5-1.826-1.5-3v-4.5H1.5V21.75z M9.75,11.25c0,0.705,0.336,1.377,0.9,1.8L12,14.062l1.35-1.013
		c0.564-0.423,0.9-1.095,0.9-1.8v-4.5h-4.5V11.25z M22.5,5.25v-3c0-0.414-0.336-0.75-0.75-0.75H2.25C1.836,1.5,1.5,1.836,1.5,2.25v3
		H22.5z"/>
</g>
</svg>
