<?xml version="1.0" encoding="utf-8"?>
<!-- Generator: Adobe Illustrator 22.1.0, SVG Export Plug-In . SVG Version: 6.00 Build 0)  -->
<svg version="1.1" id="Layer_1" xmlns="http://www.w3.org/2000/svg" xmlns:xlink="http://www.w3.org/1999/xlink" x="0px" y="0px"
	 viewBox="0 0 24 24" style="enable-background:new 0 0 24 24;" xml:space="preserve">
<title>user-3d-box</title>
<g>
	<path d="M10.527,15.75c-0.061,0-0.125-0.008-0.188-0.025c-0.015-0.004-0.05-0.016-0.065-0.022
		c-0.025-0.008-0.053-0.018-0.081-0.032l-4.501-2.25c-0.256-0.128-0.415-0.385-0.415-0.671V7.5c0-0.015,0.001-0.033,0.003-0.05
		c0.002-0.036,0.008-0.074,0.016-0.11C5.3,7.323,5.304,7.306,5.309,7.29c0.014-0.047,0.031-0.09,0.052-0.132
		c0.003-0.007,0.006-0.013,0.01-0.019C5.4,7.086,5.433,7.041,5.474,6.995C5.481,6.987,5.501,6.968,5.509,6.96
		c0.025-0.024,0.053-0.048,0.084-0.069C5.606,6.88,5.62,6.87,5.632,6.863c0.009-0.005,0.019-0.011,0.029-0.016
		c0.01-0.007,0.018-0.011,0.031-0.017l4.5-2.25c0.104-0.052,0.22-0.079,0.335-0.079s0.232,0.027,0.335,0.079l4.5,2.25
		c0.008,0.004,0.052,0.028,0.061,0.034c0.012,0.008,0.026,0.018,0.04,0.028c0.028,0.02,0.057,0.044,0.083,0.069
		c0.005,0.005,0.026,0.025,0.031,0.03c0.044,0.049,0.077,0.094,0.104,0.142c0,0,0.01,0.019,0.015,0.028
		c0.022,0.044,0.038,0.086,0.051,0.131c0.006,0.02,0.009,0.036,0.013,0.052c0.007,0.032,0.012,0.068,0.014,0.105
		c0.002,0.017,0.003,0.035,0.003,0.05v5.25c0,0.286-0.159,0.543-0.415,0.671l-4.5,2.25c-0.029,0.014-0.057,0.025-0.086,0.034
		c-0.017,0.007-0.038,0.014-0.059,0.02C10.652,15.742,10.589,15.75,10.527,15.75z M11.277,13.787l3-1.5V8.714l-3,1.5V13.787z
		 M9.777,13.787v-3.573l-3-1.5v3.573L9.777,13.787z M10.527,8.911L13.35,7.5l-2.823-1.411L7.705,7.5L10.527,8.911z"/>
	<path d="M15.027,24c-0.414,0-0.75-0.336-0.75-0.75v-3c0-0.414,0.336-0.75,0.75-0.75h1.5c1.241,0,2.25-1.009,2.25-2.25v-3
		c0-0.414,0.336-0.75,0.75-0.75h1.9c-0.213-0.552-0.419-1.099-0.62-1.635l-0.018-0.047C18.62,6.053,16.907,1.5,10.902,1.5
		c-2.401,0-4.705,1.006-6.33,2.76c-3.228,3.485-3.02,8.946,0.465,12.175c0.153,0.142,0.24,0.342,0.24,0.55v6.265
		c0,0.414-0.336,0.75-0.75,0.75s-0.75-0.336-0.75-0.75v-5.945C-0.07,13.5-0.219,7.225,3.472,3.241C5.38,1.181,8.084,0,10.892,0
		c7.053,0,9.022,5.232,11.301,11.29c0.327,0.869,0.665,1.768,1.031,2.681c0.093,0.232,0.064,0.493-0.075,0.699
		C23.009,14.877,22.776,15,22.527,15h-2.25v2.25c0,2.068-1.682,3.75-3.75,3.75h-0.75v2.25C15.777,23.664,15.441,24,15.027,24z"/>
</g>
</svg>
