<?xml version="1.0" encoding="utf-8"?>
<!-- Generator: Adobe Illustrator 22.1.0, SVG Export Plug-In . SVG Version: 6.00 Build 0)  -->
<svg version="1.1" id="Layer_1" xmlns="http://www.w3.org/2000/svg" xmlns:xlink="http://www.w3.org/1999/xlink" x="0px" y="0px"
	 viewBox="0 0 24 24" style="enable-background:new 0 0 24 24;" xml:space="preserve">
<title>user-woman-stress</title>
<g>
	<path d="M17.296,6.922c-0.235,0-0.459-0.112-0.6-0.3c-0.12-0.16-0.171-0.357-0.142-0.556c0.028-0.198,0.132-0.374,0.292-0.494
		l1.401-1.052l-0.591-0.887c-0.198-0.296-0.158-0.694,0.094-0.946l1.969-1.968c0.142-0.142,0.33-0.219,0.53-0.219
		s0.389,0.078,0.53,0.22c0.142,0.142,0.22,0.33,0.22,0.53c0,0.2-0.078,0.389-0.22,0.53l-1.534,1.534l0.643,0.965
		c0.221,0.331,0.144,0.777-0.174,1.016l-1.968,1.477C17.615,6.87,17.46,6.922,17.296,6.922z"/>
	<path d="M6.702,6.914c-0.164,0-0.319-0.052-0.45-0.15L4.283,5.287C3.964,5.048,3.888,4.602,4.109,4.271l0.643-0.964L3.219,1.772
		c-0.142-0.142-0.22-0.33-0.22-0.53c0-0.2,0.078-0.389,0.22-0.53c0.141-0.142,0.33-0.22,0.53-0.22s0.389,0.078,0.53,0.22
		l1.969,1.969C6.5,2.933,6.54,3.331,6.342,3.627L5.751,4.513l1.401,1.051c0.16,0.12,0.264,0.296,0.293,0.494
		c0.028,0.198-0.022,0.396-0.143,0.556C7.161,6.802,6.937,6.914,6.702,6.914z"/>
	<path d="M12.327,3.961c-0.201,0-0.389-0.078-0.531-0.22l-0.984-0.985c-0.251-0.252-0.291-0.65-0.093-0.946l0.984-1.476
		C11.842,0.125,12.076,0,12.327,0c0.148,0,0.292,0.044,0.416,0.126c0.167,0.111,0.28,0.28,0.32,0.477
		c0.039,0.196,0,0.396-0.112,0.563l-0.643,0.965l0.55,0.55c0.292,0.293,0.292,0.769-0.001,1.061
		C12.716,3.883,12.527,3.961,12.327,3.961z"/>
	<path d="M16.935,16.008c-0.264,0-0.503-0.134-0.64-0.359c-0.298-0.488-0.529-1.008-0.691-1.552
		c-0.918,1.048-2.233,1.653-3.652,1.653c-1.419,0-2.734-0.606-3.652-1.654c-0.162,0.544-0.393,1.064-0.69,1.552
		c-0.137,0.225-0.377,0.36-0.641,0.36c-0.137,0-0.272-0.038-0.39-0.109c-0.353-0.216-0.465-0.678-0.25-1.031
		c0.524-0.861,0.784-1.849,0.75-2.856l0-1.025c0-0.01,0.001-0.025,0.002-0.04c-0.002-0.031-0.003-0.051-0.003-0.072
		C7.077,8.187,9.264,6,11.952,6s4.875,2.187,4.875,4.875c0,0.025-0.001,0.049-0.003,0.073c0,0,0.001,0.025,0.001,0.037v1
		c-0.034,1.028,0.226,2.021,0.75,2.882c0.104,0.171,0.136,0.372,0.089,0.567c-0.047,0.195-0.167,0.36-0.339,0.464
		C17.208,15.97,17.073,16.008,16.935,16.008z M8.732,11.878c0.433,1.396,1.729,2.372,3.22,2.372c1.491,0,2.787-0.976,3.22-2.372
		c-1.197-0.181-2.317-0.706-3.22-1.511C11.049,11.172,9.929,11.698,8.732,11.878z M11.952,7.5c-1.679,0-3.092,1.256-3.335,2.878
		c1.076-0.186,2.047-0.733,2.768-1.568c0.139-0.161,0.346-0.254,0.568-0.254S12.38,8.649,12.52,8.81
		c0.721,0.835,1.692,1.382,2.768,1.568C15.044,8.756,13.631,7.5,11.952,7.5z"/>
	<path d="M18.7,24c-0.413,0-0.75-0.336-0.75-0.749c-0.001-2.281-1.299-4.359-3.326-5.363l-2.141,2.143
		c-0.137,0.137-0.33,0.215-0.531,0.215c-0.2,0-0.394-0.078-0.53-0.215l-2.143-2.143C7.25,18.892,5.952,20.969,5.95,23.25
		C5.95,23.664,5.613,24,5.2,24c-0.414,0-0.75-0.337-0.75-0.75c0.002-3.082,1.854-5.812,4.717-6.953
		c0.089-0.035,0.183-0.053,0.278-0.053c0.2,0,0.389,0.078,0.53,0.22l1.976,1.976l1.974-1.976c0.142-0.142,0.33-0.219,0.531-0.219
		c0.095,0,0.188,0.018,0.277,0.053c2.863,1.143,4.714,3.872,4.716,6.954C19.45,23.663,19.114,24,18.7,24C18.7,24,18.7,24,18.7,24z"
		/>
</g>
</svg>
