<?xml version="1.0" encoding="utf-8"?>
<!-- Generator: Adobe Illustrator 22.1.0, SVG Export Plug-In . SVG Version: 6.00 Build 0)  -->
<svg version="1.1" id="Regular" xmlns="http://www.w3.org/2000/svg" xmlns:xlink="http://www.w3.org/1999/xlink" x="0px" y="0px"
	 viewBox="0 0 24 24" style="enable-background:new 0 0 24 24;" xml:space="preserve">
<title>uv-low-1</title>
<g>
	<path d="M2.25,24C1.009,24,0,22.991,0,21.75V2.25C0,1.009,1.009,0,2.25,0h6C8.664,0,9,0.336,9,0.75S8.664,1.5,8.25,1.5h-6
		C1.836,1.5,1.5,1.836,1.5,2.25v19.5c0,0.414,0.336,0.75,0.75,0.75h6C8.664,22.5,9,22.164,9,21.75v-4.5
		c0-0.414,0.336-0.75,0.75-0.75s0.75,0.336,0.75,0.75v4.5c0,1.241-1.009,2.25-2.25,2.25H2.25z"/>
	<path d="M15.75,16.5c-4.549,0-8.25-3.701-8.25-8.25S11.201,0,15.75,0S24,3.701,24,8.25S20.299,16.5,15.75,16.5z M15.75,1.5
		C12.028,1.5,9,4.528,9,8.25S12.028,15,15.75,15s6.75-3.028,6.75-6.75S19.472,1.5,15.75,1.5z"/>
	<path d="M12.75,12c-1.241,0-2.25-1.009-2.25-2.25V6c0-0.414,0.336-0.75,0.75-0.75S12,5.586,12,6v3.75c0,0.414,0.336,0.75,0.75,0.75
		s0.75-0.336,0.75-0.75V6c0-0.414,0.336-0.75,0.75-0.75S15,5.586,15,6v3.75C15,10.991,13.991,12,12.75,12z"/>
	<path d="M18.75,12.004c-0.251,0-0.485-0.125-0.624-0.334C17.062,10.074,16.5,8.217,16.5,6.3V6c0-0.414,0.336-0.75,0.75-0.75
		S18,5.586,18,6v0.3c0,1.184,0.258,2.354,0.75,3.423C19.242,8.654,19.5,7.484,19.5,6.3V6c0-0.414,0.336-0.75,0.75-0.75
		S21,5.586,21,6v0.3c0,1.917-0.562,3.774-1.626,5.37C19.235,11.879,19.001,12.004,18.75,12.004z"/>
	<path d="M3.75,21C3.336,21,3,20.664,3,20.25s0.336-0.75,0.75-0.75h3c0.414,0,0.75,0.336,0.75,0.75S7.164,21,6.75,21H3.75z"/>
</g>
</svg>
