<?xml version="1.0" encoding="utf-8"?>
<!-- Generator: Adobe Illustrator 22.1.0, SVG Export Plug-In . SVG Version: 6.00 Build 0)  -->
<svg version="1.1" id="Layer_1" xmlns="http://www.w3.org/2000/svg" xmlns:xlink="http://www.w3.org/1999/xlink" x="0px" y="0px"
	 viewBox="0 0 24 24" style="enable-background:new 0 0 24 24;" xml:space="preserve">
<title>vectors-path-flat</title>
<g>
	<path d="M21,9.327c-1.37,0-2.564-0.947-2.902-2.25H14.25v0.75c0,0.414-0.336,0.75-0.75,0.75h-3c-0.414,0-0.75-0.336-0.75-0.75
		v-0.75H5.901C5.564,8.38,4.369,9.327,3,9.327c-1.654,0-3-1.346-3-3s1.346-3,3-3c1.37,0,2.564,0.947,2.902,2.25H9.75v-0.75
		c0-0.414,0.336-0.75,0.75-0.75h3c0.414,0,0.75,0.336,0.75,0.75v0.75h3.848c0.338-1.303,1.532-2.25,2.902-2.25c1.654,0,3,1.346,3,3
		S22.654,9.327,21,9.327z M21,4.827c-0.827,0-1.5,0.673-1.5,1.5s0.673,1.5,1.5,1.5s1.5-0.673,1.5-1.5S21.827,4.827,21,4.827z
		 M3,4.827c-0.827,0-1.5,0.673-1.5,1.5s0.673,1.5,1.5,1.5s1.5-0.673,1.5-1.5S3.827,4.827,3,4.827z M12.75,7.077v-1.5h-1.5v1.5H12.75
		z"/>
	<path d="M23.247,20.675c-0.373,0-0.691-0.28-0.74-0.651c-0.375-2.806-1.821-5.299-4.07-7.018c-1.866-1.426-4.083-2.18-6.413-2.18
		c-0.474,0-0.954,0.032-1.428,0.096c-4.728,0.632-8.471,4.375-9.103,9.102c-0.049,0.371-0.369,0.651-0.743,0.651
		c-0.034,0-0.069-0.002-0.104-0.007c-0.194-0.026-0.371-0.128-0.492-0.287s-0.174-0.356-0.147-0.555
		C0.727,14.429,5,10.156,10.397,9.435c0.54-0.072,1.087-0.109,1.627-0.109c2.661,0,5.193,0.86,7.323,2.488
		c2.568,1.963,4.218,4.808,4.646,8.012c0.027,0.198-0.025,0.395-0.147,0.554c-0.122,0.159-0.298,0.262-0.497,0.288
		C23.317,20.673,23.282,20.675,23.247,20.675z"/>
</g>
</svg>
