<?xml version="1.0" encoding="utf-8"?>
<!-- Generator: Adobe Illustrator 22.1.0, SVG Export Plug-In . SVG Version: 6.00 Build 0)  -->
<svg version="1.1" id="Layer_1" xmlns="http://www.w3.org/2000/svg" xmlns:xlink="http://www.w3.org/1999/xlink" x="0px" y="0px"
	 viewBox="0 0 24 24" style="enable-background:new 0 0 24 24;" xml:space="preserve">
<title>vectors-add-anchor</title>
<g>
	<path d="M12.75,23.25c-1.654,0-3-1.346-3-3c0-0.347,0.06-0.686,0.178-1.011l-4.97-4.97C4.415,14.737,3.72,15,3,15
		c-1.654,0-3-1.346-3-3c0-1.654,1.346-3,3-3c0.72,0,1.415,0.263,1.958,0.732l4.97-4.97C9.81,4.436,9.75,4.097,9.75,3.75
		c0-1.654,1.346-3,3-3c1.654,0,3,1.346,3,3s-1.346,3-3,3c-0.72,0-1.415-0.263-1.958-0.732l-4.971,4.971
		c0.031,0.086,0.057,0.173,0.08,0.261h12.197C18.436,9.947,19.63,9,21,9c1.654,0,3,1.346,3,3c0,1.654-1.346,3-3,3
		c-1.37,0-2.564-0.947-2.902-2.25H5.902c-0.023,0.088-0.05,0.175-0.08,0.261l4.971,4.971c0.542-0.469,1.237-0.732,1.958-0.732
		c1.654,0,3,1.346,3,3S14.404,23.25,12.75,23.25z M12.75,18.75c-0.827,0-1.5,0.673-1.5,1.5s0.673,1.5,1.5,1.5s1.5-0.673,1.5-1.5
		S13.577,18.75,12.75,18.75z M21,10.5c-0.827,0-1.5,0.673-1.5,1.5s0.673,1.5,1.5,1.5s1.5-0.673,1.5-1.5S21.827,10.5,21,10.5z
		 M3,10.5c-0.827,0-1.5,0.673-1.5,1.5s0.673,1.5,1.5,1.5s1.5-0.673,1.5-1.5S3.827,10.5,3,10.5z M12.75,2.25
		c-0.827,0-1.5,0.673-1.5,1.5s0.673,1.5,1.5,1.5s1.5-0.673,1.5-1.5S13.577,2.25,12.75,2.25z"/>
</g>
</svg>
