<?xml version="1.0" encoding="utf-8"?>
<!-- Generator: Adobe Illustrator 22.1.0, SVG Export Plug-In . SVG Version: 6.00 Build 0)  -->
<svg version="1.1" id="Layer_1" xmlns="http://www.w3.org/2000/svg" xmlns:xlink="http://www.w3.org/1999/xlink" x="0px" y="0px"
	 viewBox="0 0 24 24" style="enable-background:new 0 0 24 24;" xml:space="preserve">
<title>vectors-anchor-triangle</title>
<g>
	<path d="M19.5,22.5c-0.827,0-1.5-0.673-1.5-1.5H6c0,0.827-0.673,1.5-1.5,1.5h-3C0.673,22.5,0,21.827,0,21v-3
		c0-0.827,0.673-1.5,1.5-1.5h2.536L9.067,6.439C9.022,6.296,9,6.149,9,6V3c0-0.827,0.673-1.5,1.5-1.5h3C14.327,1.5,15,2.173,15,3v3
		c0,0.147-0.022,0.292-0.066,0.434L20.685,16.5H22.5c0.827,0,1.5,0.673,1.5,1.5v3c0,0.827-0.673,1.5-1.5,1.5H19.5z M19.5,21h3v-3h-3
		V21z M1.5,21h3v-3h-3V21z M18,19.5V18c0-0.654,0.421-1.211,1.005-1.416l-5.208-9.115C13.699,7.49,13.6,7.5,13.5,7.5h-3
		c-0.092,0-0.183-0.009-0.274-0.026l-4.713,9.427C5.82,17.181,6,17.578,6,18v1.5H18z M10.5,6h3V3h-3V6z"/>
</g>
</svg>
