<?xml version="1.0" encoding="utf-8"?>
<!-- Generator: Adobe Illustrator 22.1.0, SVG Export Plug-In . SVG Version: 6.00 Build 0)  -->
<svg version="1.1" id="Layer_1" xmlns="http://www.w3.org/2000/svg" xmlns:xlink="http://www.w3.org/1999/xlink" x="0px" y="0px"
	 viewBox="0 0 24 24" style="enable-background:new 0 0 24 24;" xml:space="preserve">
<title>vectors-square-link</title>
<g>
	<path d="M15.315,24.003c-0.719,0-1.387-0.285-1.882-0.803l-0.659-0.659c-1.027-0.98-1.064-2.626-0.077-3.665l2.751-2.752
		c0.446-0.425,1.021-0.655,1.627-0.655c0.646,0,1.246,0.257,1.69,0.723l0.514,0.514c0.142,0.142,0.22,0.33,0.22,0.53
		s-0.078,0.389-0.22,0.53s-0.33,0.22-0.53,0.22s-0.389-0.078-0.53-0.22l-0.527-0.527c-0.169-0.177-0.388-0.271-0.622-0.271
		c-0.215,0-0.419,0.082-0.575,0.229l-2.725,2.725c-0.408,0.429-0.388,1.126,0.052,1.545l0.684,0.683
		c0.219,0.229,0.506,0.352,0.813,0.352c0.284,0,0.553-0.107,0.758-0.302l0.945-0.945c0.142-0.141,0.33-0.219,0.531-0.219
		s0.389,0.078,0.53,0.22c0.292,0.293,0.292,0.769,0,1.061l-0.959,0.958C16.629,23.747,15.989,24.003,15.315,24.003z"/>
	<path d="M18.67,20.745c-0.634,0-1.23-0.246-1.678-0.693l-0.527-0.524c-0.293-0.292-0.294-0.767-0.003-1.06
		c0.142-0.143,0.331-0.221,0.532-0.221c0.199,0,0.387,0.077,0.529,0.218l0.526,0.523c0.167,0.167,0.388,0.259,0.621,0.259
		c0.235,0,0.454-0.091,0.619-0.257l2.875-2.871c0.445-0.447,0.445-1.175-0.001-1.623l-0.669-0.669
		c-0.216-0.215-0.504-0.334-0.811-0.334s-0.595,0.119-0.812,0.334l-1.007,1.001c-0.142,0.141-0.33,0.218-0.529,0.218
		c-0.201,0-0.39-0.079-0.532-0.221c-0.291-0.293-0.29-0.769,0.003-1.06l1.006-1c0.499-0.497,1.163-0.771,1.87-0.771
		s1.372,0.274,1.871,0.772l0.671,0.671c1.029,1.032,1.03,2.711,0.001,3.743L20.35,20.05C19.903,20.498,19.306,20.745,18.67,20.745z"
		/>
	<path d="M1.313,22.486C0.589,22.486,0,21.897,0,21.173v-3.374c0-0.724,0.589-1.313,1.313-1.313H2.25v-10.5H1.313
		C0.589,5.986,0,5.397,0,4.673V1.299c0-0.724,0.589-1.313,1.313-1.313h3.374C5.411-0.014,6,0.575,6,1.299v0.937h12V1.299
		c0-0.724,0.589-1.313,1.313-1.313h3.374C23.411-0.014,24,0.575,24,1.299v3.374c0,0.724-0.589,1.313-1.313,1.313H21.75v4.5
		c0,0.414-0.336,0.75-0.75,0.75s-0.75-0.336-0.75-0.75v-4.5h-0.937C18.589,5.986,18,5.397,18,4.673V3.736H6v0.937
		c0,0.724-0.589,1.313-1.313,1.313H3.75v10.5h0.937C5.411,16.486,6,17.076,6,17.799v0.937h4.5c0.414,0,0.75,0.336,0.75,0.75
		s-0.336,0.75-0.75,0.75H6v0.937c0,0.724-0.589,1.313-1.313,1.313H1.313z M4.5,20.986v-3h-3v3H4.5z M22.5,4.486v-3h-3v3H22.5z
		 M4.5,4.486v-3h-3v3H4.5z"/>
</g>
</svg>
