<?xml version="1.0" encoding="utf-8"?>
<!-- Generator: Adobe Illustrator 22.1.0, SVG Export Plug-In . SVG Version: 6.00 Build 0)  -->
<svg version="1.1" id="Layer_1" xmlns="http://www.w3.org/2000/svg" xmlns:xlink="http://www.w3.org/1999/xlink" x="0px" y="0px"
	 viewBox="0 0 24 24" style="enable-background:new 0 0 24 24;" xml:space="preserve">
<title>vectors-pen-flat</title>
<g>
	<path d="M11.995,12.75c-0.151,0-0.302-0.025-0.448-0.073c-0.359-0.12-0.649-0.372-0.818-0.71l-2.33-4.672
		C7.625,5.742,7.93,3.876,9.158,2.65C9.3,2.509,9.488,2.431,9.688,2.431c0.201,0,0.389,0.078,0.531,0.221
		c0.141,0.142,0.219,0.33,0.219,0.531c0,0.2-0.079,0.389-0.22,0.53C9.447,4.481,9.255,5.652,9.741,6.625l2.253,4.518l2.264-4.513
		c0.488-0.972,0.3-2.143-0.469-2.914c-0.292-0.293-0.291-0.768,0.001-1.06c0.142-0.141,0.33-0.219,0.53-0.219
		c0.201,0,0.389,0.078,0.531,0.22c1.225,1.229,1.525,3.096,0.747,4.646l-2.341,4.666c-0.135,0.271-0.36,0.496-0.633,0.632
		C12.43,12.698,12.212,12.75,11.995,12.75z"/>
	<path d="M9,1.5c-0.414,0-0.75-0.336-0.75-0.75S8.586,0,9,0h6c0.414,0,0.75,0.336,0.75,0.75S15.414,1.5,15,1.5H9z"/>
	<path d="M22.314,24.001c-0.298,0-0.568-0.177-0.688-0.45c-1.331-3.044-4.131-5.329-7.377-6.051V18c0,0.414-0.336,0.75-0.75,0.75h-3
		c-0.414,0-0.75-0.336-0.75-0.75v-0.5c-3.245,0.721-6.046,3.006-7.377,6.05C2.254,23.824,1.984,24,1.686,24
		c-0.104,0-0.205-0.021-0.301-0.063c-0.378-0.166-0.552-0.608-0.386-0.987c1.055-2.412,2.913-4.423,5.223-5.7H1.5
		c-0.414,0-0.75-0.336-0.75-0.75s0.336-0.75,0.75-0.75h8.25V15c0-0.414,0.336-0.75,0.75-0.75h3c0.414,0,0.75,0.336,0.75,0.75v0.75
		h8.25c0.414,0,0.75,0.336,0.75,0.75s-0.336,0.75-0.75,0.75h-4.722c2.31,1.277,4.168,3.288,5.223,5.701
		c0.08,0.184,0.084,0.387,0.011,0.574c-0.073,0.187-0.215,0.333-0.398,0.413C22.52,23.98,22.418,24.001,22.314,24.001z M12.75,17.25
		v-1.5h-1.5v1.5H12.75z"/>
</g>
</svg>
