<?xml version="1.0" encoding="utf-8"?>
<!-- Generator: Adobe Illustrator 22.1.0, SVG Export Plug-In . SVG Version: 6.00 Build 0)  -->
<svg version="1.1" id="Layer_1" xmlns="http://www.w3.org/2000/svg" xmlns:xlink="http://www.w3.org/1999/xlink" x="0px" y="0px"
	 viewBox="0 0 24 24" style="enable-background:new 0 0 24 24;" xml:space="preserve">
<title>vectors-pen-subtract-1</title>
<g>
	<path d="M0.748,3.375c-0.414,0-0.75-0.336-0.75-0.75s0.336-0.75,0.75-0.75h7.5c0.414,0,0.75,0.336,0.75,0.75s-0.336,0.75-0.75,0.75
		H0.748z"/>
	<path d="M5.651,22.126c-0.122,0-0.244-0.017-0.362-0.051c-0.19-0.054-0.363-0.152-0.516-0.292
		c-0.016-0.011-0.031-0.024-0.043-0.036c-0.018-0.017-0.032-0.034-0.043-0.049c-0.07-0.075-0.131-0.157-0.178-0.243
		C4.34,21.15,4.3,20.798,4.395,20.463l2.73-10.256C7.405,9.22,8.149,8.461,9.121,8.166l5.898-2.474l2.421-2.422
		c0.512-0.513,1.195-0.795,1.922-0.795c0.72,0,1.399,0.278,1.91,0.783c0.005,0.005,1.931,1.931,1.931,1.931
		c1.059,1.06,1.059,2.784,0,3.843l-2.423,2.421l-2.474,5.9c-0.295,0.968-1.05,1.71-2.024,1.989L5.995,22.079
		C5.89,22.109,5.771,22.126,5.651,22.126z M12.724,12.996c0.2,0,0.389,0.078,0.53,0.22s0.22,0.33,0.22,0.53s-0.078,0.389-0.22,0.53
		l-5.883,5.884l8.511-2.265c0.48-0.137,0.854-0.513,0.995-1.003c0.007-0.026,0.017-0.055,0.029-0.082l2.353-5.61L15.27,7.213
		L9.663,9.565c-0.026,0.011-0.055,0.021-0.084,0.03c-0.491,0.141-0.867,0.518-1.006,1.01l-2.262,8.495l5.883-5.883
		C12.335,13.075,12.524,12.996,12.724,12.996z M20.145,9.966l1.997-1.995c0.474-0.475,0.474-1.247,0-1.722l-1.91-1.911
		c-0.238-0.237-0.543-0.363-0.869-0.363c-0.326,0-0.632,0.126-0.862,0.356l-1.995,1.996L20.145,9.966z"/>
</g>
</svg>
