<?xml version="1.0" encoding="utf-8"?>
<!-- Generator: Adobe Illustrator 22.1.0, SVG Export Plug-In . SVG Version: 6.00 Build 0)  -->
<svg version="1.1" id="Layer_1" xmlns="http://www.w3.org/2000/svg" xmlns:xlink="http://www.w3.org/1999/xlink" x="0px" y="0px"
	 viewBox="0 0 24 24" style="enable-background:new 0 0 24 24;" xml:space="preserve">
<title>vectors-anchor-rectangle</title>
<g>
	<path d="M1.313,24C0.589,24,0,23.411,0,22.687v-3.374C0,18.589,0.589,18,1.313,18H2.25V6H1.313C0.589,6,0,5.411,0,4.687V1.313
		C0,0.589,0.589,0,1.313,0h3.374C5.411,0,6,0.589,6,1.313v0.896l12,2.4V4.313C18,3.589,18.589,3,19.313,3h3.374
		C23.411,3,24,3.589,24,4.313v3.374C24,8.411,23.411,9,22.687,9H21.75v6h0.937C23.411,15,24,15.589,24,16.313v3.374
		C24,20.411,23.411,21,22.687,21h-3.374C18.589,21,18,20.411,18,19.687v-0.296l-12,2.4v0.896C6,23.411,5.411,24,4.687,24H1.313z
		 M4.5,22.5v-3h-3v3H4.5z M4.687,18C5.411,18,6,18.589,6,19.313v0.948l12-2.4v-1.548C18,15.589,18.589,15,19.313,15h0.937V9h-0.937
		C18.589,9,18,8.411,18,7.687V6.139l-12-2.4v0.948C6,5.411,5.411,6,4.687,6H3.75v12H4.687z M22.5,19.5v-3h-3v3H22.5z M22.5,7.5v-3
		h-3v3H22.5z M4.5,4.5v-3h-3v3H4.5z"/>
</g>
</svg>
