<?xml version="1.0" encoding="utf-8"?>
<!-- Generator: Adobe Illustrator 22.1.0, SVG Export Plug-In . SVG Version: 6.00 Build 0)  -->
<svg version="1.1" id="Layer_1" xmlns="http://www.w3.org/2000/svg" xmlns:xlink="http://www.w3.org/1999/xlink" x="0px" y="0px"
	 viewBox="0 0 24 24" style="enable-background:new 0 0 24 24;" xml:space="preserve">
<title>vectors-pen-new-anchor</title>
<g>
	<path d="M19.5,24c-0.414,0-0.75-0.336-0.75-0.75v-3c0-0.146,0.042-0.284,0.116-0.4c-1.289-1.229-2.87-2.054-4.616-2.408V18
		c0,0.414-0.336,0.75-0.75,0.75h-3c-0.414,0-0.75-0.336-0.75-0.75v-0.558c-1.746,0.354-3.327,1.179-4.616,2.408
		c0.074,0.116,0.116,0.254,0.116,0.4v3C5.25,23.664,4.914,24,4.5,24h-3c-0.414,0-0.75-0.336-0.75-0.75v-3
		c0-0.414,0.336-0.75,0.75-0.75h1.895c1.65-1.889,3.89-3.151,6.355-3.583V15c0-0.414,0.336-0.75,0.75-0.75h3
		c0.414,0,0.75,0.336,0.75,0.75v0.917c2.465,0.432,4.706,1.694,6.355,3.583H22.5c0.414,0,0.75,0.336,0.75,0.75v3
		c0,0.414-0.336,0.75-0.75,0.75H19.5z M21.75,22.5V21h-1.5v1.5H21.75z M3.75,22.5V21h-1.5v1.5H3.75z M12.75,17.25v-1.5h-1.5v1.5
		H12.75z"/>
	<path d="M11.995,12.75c-0.152,0-0.303-0.025-0.449-0.073c-0.358-0.12-0.649-0.372-0.817-0.71l-2.33-4.672
		C7.625,5.742,7.93,3.875,9.158,2.65C9.3,2.509,9.488,2.431,9.688,2.431c0.201,0,0.389,0.078,0.531,0.221
		c0.141,0.142,0.219,0.33,0.219,0.531c0,0.2-0.079,0.389-0.22,0.53C9.447,4.481,9.255,5.651,9.741,6.625l2.253,4.518l2.264-4.513
		c0.488-0.972,0.3-2.143-0.469-2.914c-0.292-0.293-0.291-0.768,0.001-1.06c0.142-0.141,0.33-0.219,0.53-0.219
		c0.201,0,0.389,0.078,0.531,0.22c1.225,1.229,1.525,3.096,0.747,4.646l-2.341,4.666c-0.135,0.271-0.36,0.496-0.633,0.632
		C12.43,12.698,12.212,12.75,11.995,12.75z"/>
	<path d="M9,1.5c-0.414,0-0.75-0.336-0.75-0.75S8.586,0,9,0h6c0.414,0,0.75,0.336,0.75,0.75S15.414,1.5,15,1.5H9z"/>
</g>
</svg>
