<?xml version="1.0" encoding="utf-8"?>
<!-- Generator: Adobe Illustrator 22.1.0, SVG Export Plug-In . SVG Version: 6.00 Build 0)  -->
<svg version="1.1" id="Layer_1" xmlns="http://www.w3.org/2000/svg" xmlns:xlink="http://www.w3.org/1999/xlink" x="0px" y="0px"
	 viewBox="0 0 24 24" style="enable-background:new 0 0 24 24;" xml:space="preserve">
<title>vectors-pen-subtract</title>
<g>
	<path d="M0.75,4.124C0.337,4.124,0,3.788,0,3.374s0.336-0.75,0.75-0.75h7.5C8.664,2.624,9,2.961,9,3.374s-0.336,0.75-0.75,0.75
		H0.75z"/>
	<path d="M4.214,22.873c-0.213,0-0.422-0.034-0.622-0.101c-0.265-0.089-0.507-0.236-0.719-0.437
		c-0.018-0.013-0.035-0.028-0.048-0.041c-0.019-0.019-0.034-0.038-0.045-0.055c-0.131-0.139-0.24-0.291-0.321-0.452
		c-0.234-0.469-0.271-1.001-0.105-1.498l3.013-9.038C6.281,8.5,8.845,6.65,11.746,6.649c0.448,0,0.896,0.045,1.336,0.133
		l4.301-5.377c0.133-0.166,0.331-0.269,0.544-0.28c0.007,0,0.033-0.001,0.04-0.001c0.198,0,0.392,0.08,0.531,0.22l5.282,5.282
		c0.151,0.151,0.23,0.359,0.219,0.572c-0.012,0.214-0.115,0.412-0.281,0.545l-5.376,4.301c0.088,0.44,0.133,0.889,0.132,1.336
		c0,2.899-1.848,5.463-4.599,6.38l-9.037,3.013C4.638,22.839,4.428,22.873,4.214,22.873z M5.073,21.112l8.328-2.776
		c2.137-0.713,3.573-2.705,3.573-4.958c0-0.469-0.065-0.944-0.195-1.411c-0.002-0.007-0.008-0.031-0.01-0.038
		c-0.237-0.836-0.696-1.619-1.323-2.247c-0.627-0.628-1.408-1.088-2.26-1.33c0,0,0,0,0,0c-0.003,0-0.025-0.005-0.046-0.012
		c-0.451-0.125-0.922-0.19-1.387-0.191C9.495,8.15,7.5,9.587,6.789,11.726L4.014,20.05l5.179-5.179
		c-0.202-0.375-0.308-0.791-0.308-1.22c0-1.428,1.161-2.589,2.589-2.589s2.589,1.161,2.589,2.589c0,1.427-1.161,2.589-2.589,2.589
		c-0.429,0-0.846-0.106-1.221-0.308L5.073,21.112z M11.474,12.561c-0.6,0-1.089,0.489-1.089,1.089c0,0.6,0.489,1.089,1.089,1.089
		s1.089-0.489,1.089-1.089C12.563,13.05,12.075,12.561,11.474,12.561z M14.603,7.283c0.707,0.33,1.346,0.779,1.905,1.339
		c0.557,0.558,1.005,1.196,1.334,1.9l4.285-3.428L18.03,2.997L14.603,7.283z"/>
</g>
</svg>
