<?xml version="1.0" encoding="utf-8"?>
<!-- Generator: Adobe Illustrator 22.1.0, SVG Export Plug-In . SVG Version: 6.00 Build 0)  -->
<svg version="1.1" id="Regular" xmlns="http://www.w3.org/2000/svg" xmlns:xlink="http://www.w3.org/1999/xlink" x="0px" y="0px"
	 viewBox="0 0 24 24" style="enable-background:new 0 0 24 24;" xml:space="preserve">
<title>vegetables-plate</title>
<g>
	<path d="M11.999,24c-6.617,0-12-5.383-12-12c0-6.617,5.383-12,12-12c6.617,0,12,5.383,12,12C23.999,18.617,18.616,24,11.999,24z
		 M11.999,1.5c-5.79,0-10.5,4.71-10.5,10.5c0,5.79,4.71,10.5,10.5,10.5c5.79,0,10.5-4.71,10.5-10.5
		C22.499,6.21,17.789,1.5,11.999,1.5z"/>
	<path d="M12.56,21.013c-1.02,0-1.981-0.496-2.57-1.328l-2.934-4.393c-0.01-0.014-0.021-0.029-0.028-0.042
		c-0.001-0.002-1.591-2.382-1.591-2.382c-0.334-0.5-0.453-1.1-0.335-1.689c0.117-0.589,0.457-1.098,0.957-1.432
		C6.07,9.739,6.081,9.731,6.093,9.724L4.021,8.845C3.837,8.767,3.694,8.622,3.619,8.436C3.544,8.25,3.545,8.047,3.624,7.862
		c0.118-0.278,0.389-0.457,0.691-0.457c0.101,0,0.199,0.02,0.292,0.059l2.533,1.074L7.46,5.806c0.045-0.378,0.365-0.662,0.746-0.662
		c0.028,0,0.057,0.002,0.085,0.005c0.201,0.024,0.379,0.123,0.503,0.28s0.18,0.353,0.156,0.552L8.687,8.219
		C9.009,8.049,9.368,7.96,9.731,7.96c0.194,0,0.389,0.025,0.579,0.076c0.581,0.154,1.068,0.525,1.37,1.044
		c0.023,0.04,0.045,0.08,0.065,0.12l3.662,7.315c0.003,0.007,0.011,0.023,0.014,0.03c0.35,0.753,0.386,1.608,0.097,2.398
		c-0.289,0.79-0.868,1.421-1.631,1.775C13.467,20.914,13.021,21.013,12.56,21.013z M11.225,18.834
		c0.299,0.422,0.8,0.679,1.333,0.679c0.242,0,0.476-0.052,0.696-0.154c0.4-0.186,0.704-0.516,0.855-0.93
		c0.151-0.412,0.133-0.859-0.052-1.258l-3.652-7.297c-0.007-0.013-0.015-0.027-0.023-0.042c-0.133-0.229-0.382-0.372-0.65-0.372
		c-0.131,0-0.261,0.035-0.375,0.101L6.93,10.97c-0.014,0.008-0.027,0.017-0.04,0.025c-0.166,0.111-0.279,0.28-0.318,0.476
		c-0.039,0.196,0.001,0.396,0.112,0.563l1.227,1.837l1.741-1.011c0.115-0.066,0.245-0.101,0.376-0.101
		c0.267,0,0.515,0.143,0.649,0.373c0.101,0.173,0.128,0.375,0.077,0.569s-0.175,0.356-0.348,0.456l-1.659,0.964L11.225,18.834z"/>
	<path d="M19.499,14.198c-0.126,0-0.251-0.032-0.362-0.093l-5.25-2.9c-0.175-0.097-0.302-0.256-0.358-0.449
		c-0.055-0.193-0.033-0.395,0.064-0.571c0.27-0.487,0.656-0.912,1.117-1.238l-2.698-1.491c-0.176-0.097-0.308-0.264-0.361-0.459
		c-0.053-0.194-0.025-0.405,0.077-0.578c0.508-0.863,1.322-1.476,2.292-1.727c0.31-0.08,0.628-0.121,0.945-0.121
		c0.664,0,1.32,0.18,1.898,0.52c1.267,0.746,1.977,2.175,1.826,3.622c0,0,0.001,0,0.001,0c1.81,1.001,2.467,3.288,1.466,5.097
		C20.023,14.05,19.772,14.198,19.499,14.198z M19.093,12.367c0.137-0.83-0.207-1.686-0.892-2.188
		c-0.094,0.112-0.219,0.196-0.359,0.239c-0.071,0.021-0.144,0.032-0.218,0.032c-0.126,0-0.252-0.032-0.363-0.094l-0.957-0.529
		c-0.343,0.09-0.658,0.258-0.921,0.49L19.093,12.367z M17.191,8.604c0.109-0.874-0.308-1.759-1.091-2.22
		c-0.347-0.204-0.74-0.312-1.137-0.312c-0.19,0-0.381,0.025-0.567,0.073c-0.322,0.083-0.615,0.232-0.865,0.438L17.191,8.604z"/>
</g>
</svg>
