<?xml version="1.0" encoding="utf-8"?>
<!-- Generator: Adobe Illustrator 22.1.0, SVG Export Plug-In . SVG Version: 6.00 Build 0)  -->
<svg version="1.1" id="Regular" xmlns="http://www.w3.org/2000/svg" xmlns:xlink="http://www.w3.org/1999/xlink" x="0px" y="0px"
	 viewBox="0 0 24 24" style="enable-background:new 0 0 24 24;" xml:space="preserve">
<title>vest-1</title>
<g>
	<path d="M6.75,19.5c-0.2,0-0.389-0.078-0.53-0.22c-0.292-0.292-0.292-0.768,0-1.061l1.5-1.5c0.142-0.142,0.33-0.22,0.53-0.22
		s0.389,0.078,0.53,0.22c0.292,0.292,0.292,0.768,0,1.061l-1.5,1.5C7.139,19.422,6.95,19.5,6.75,19.5z"/>
	<path d="M11.984,24c-2.91-0.03-5.766-0.55-8.491-1.545c-0.253-0.093-0.438-0.315-0.483-0.581l-1.5-9
		c-0.048-0.291,0.079-0.584,0.324-0.748C3.033,11.327,3.749,9.99,3.75,8.55v-1.8c0-0.309,0.185-0.582,0.472-0.696L7.5,4.742V2.25
		c0-0.043,0.004-0.087,0.012-0.131C7.649,0.663,9.929,0,12,0c2.071,0,4.351,0.663,4.488,2.118C16.496,2.162,16.5,2.206,16.5,2.25
		v2.492l3.278,1.311c0.286,0.114,0.472,0.388,0.472,0.696v1.8c0.001,1.44,0.717,2.777,1.916,3.576
		c0.245,0.163,0.372,0.456,0.324,0.747l-1.5,9c-0.044,0.266-0.229,0.489-0.482,0.581c-2.732,0.997-5.592,1.517-8.5,1.545
		c-0.001,0-0.002,0-0.004,0C12.004,24,11.989,24,11.984,24z M12.75,22.476c2.338-0.095,4.634-0.527,6.833-1.285l1.352-8.109
		c-1.371-1.093-2.183-2.77-2.184-4.532V7.258l-2.624-1.05c-0.662,0.785-2.084,1.161-3.376,1.263V22.476z M4.417,21.191
		c2.198,0.758,4.493,1.189,6.833,1.285V7.471C9.958,7.369,8.536,6.993,7.874,6.208L5.25,7.258V8.55
		c-0.001,1.762-0.813,3.439-2.184,4.532L4.417,21.191z M12.75,5.968c1.382-0.122,2.151-0.556,2.25-0.741V3.971
		c-0.62,0.259-1.4,0.434-2.25,0.5V5.968z M9,5.227c0.099,0.184,0.868,0.619,2.25,0.741V4.471C10.4,4.405,9.62,4.23,9,3.971V5.227z
		 M9.014,2.25C9.187,2.49,10.209,3,12,3c1.791,0,2.813-0.51,2.986-0.75C14.813,2.01,13.791,1.5,12,1.5
		C10.209,1.5,9.187,2.01,9.014,2.25z"/>
	<path d="M17.25,19.5c-0.2,0-0.389-0.078-0.53-0.22l-1.5-1.5c-0.292-0.292-0.292-0.768,0-1.061c0.142-0.142,0.33-0.22,0.53-0.22
		s0.389,0.078,0.53,0.22l1.5,1.5c0.292,0.292,0.292,0.768,0,1.061C17.639,19.422,17.45,19.5,17.25,19.5z"/>
</g>
</svg>
