<?xml version="1.0" encoding="utf-8"?>
<!-- Generator: Adobe Illustrator 22.1.0, SVG Export Plug-In . SVG Version: 6.00 Build 0)  -->
<svg version="1.1" id="Regular" xmlns="http://www.w3.org/2000/svg" xmlns:xlink="http://www.w3.org/1999/xlink" x="0px" y="0px"
	 viewBox="0 0 24 24" style="enable-background:new 0 0 24 24;" xml:space="preserve">
<title>video-game-controller-wifi</title>
<g>
	<path d="M5.2,24.009c-1.404-0.007-2.72-0.559-3.707-1.556c-0.987-0.997-1.526-2.318-1.52-3.72c0.007-1.402,0.559-2.718,1.556-3.705
		c0.99-0.98,2.301-1.52,3.693-1.52h13.522c1.49,0,2.91,0.632,3.902,1.734c1.935,2.148,1.761,5.47-0.386,7.405
		c-0.963,0.868-2.209,1.345-3.507,1.345l0,0c-1.385,0-2.678-0.526-3.66-1.484H8.898c-0.976,0.955-2.306,1.5-3.674,1.5H5.2z
		 M5.225,15.009c-0.996,0-1.933,0.385-2.64,1.085c-0.712,0.705-1.106,1.645-1.111,2.646c-0.005,1.002,0.381,1.945,1.085,2.657
		c0.705,0.712,1.645,1.106,2.646,1.111c1.084,0,2.103-0.456,2.813-1.25c0.142-0.159,0.346-0.25,0.559-0.25h6.836
		c0.212,0,0.415,0.09,0.557,0.248c0.669,0.743,1.587,1.181,2.586,1.233c0.068,0.004,0.135,0.005,0.202,0.005
		c0.922,0,1.809-0.342,2.498-0.962c1.533-1.381,1.657-3.753,0.276-5.286c-0.707-0.785-1.718-1.236-2.774-1.238
		C18.756,15.009,5.225,15.009,5.225,15.009z"/>
	<path d="M5.246,21.009c-0.414,0-0.75-0.336-0.75-0.75v-0.75h-0.75c-0.414,0-0.75-0.336-0.75-0.75s0.336-0.75,0.75-0.75h0.75v-0.75
		c0-0.414,0.336-0.75,0.75-0.75s0.75,0.336,0.75,0.75v0.75h0.75c0.414,0,0.75,0.336,0.75,0.75s-0.336,0.75-0.75,0.75h-0.75v0.75
		C5.996,20.672,5.66,21.009,5.246,21.009z"/>
	<path d="M17.246,20.634c-0.044,0-0.088-0.004-0.131-0.011c-0.513-0.06-0.923-0.47-0.983-0.983
		c-0.008-0.042-0.011-0.086-0.011-0.131s0.004-0.088,0.011-0.131c0.06-0.513,0.47-0.923,0.983-0.983
		c0.042-0.008,0.086-0.011,0.131-0.011s0.088,0.004,0.131,0.011c0.513,0.06,0.923,0.47,0.983,0.983
		c0.008,0.042,0.011,0.086,0.011,0.131s-0.004,0.088-0.011,0.131c-0.06,0.513-0.47,0.923-0.983,0.983
		C17.334,20.63,17.291,20.634,17.246,20.634z"/>
	<path d="M19.496,18.384c-0.044,0-0.088-0.004-0.131-0.011c-0.513-0.06-0.923-0.47-0.983-0.983
		c-0.008-0.042-0.011-0.086-0.011-0.131s0.004-0.088,0.011-0.131c0.06-0.513,0.47-0.923,0.983-0.983
		c0.042-0.008,0.086-0.011,0.131-0.011s0.088,0.004,0.131,0.011c0.513,0.06,0.923,0.47,0.983,0.983
		c0.008,0.042,0.011,0.086,0.011,0.131s-0.004,0.088-0.011,0.131c-0.06,0.513-0.47,0.923-0.983,0.983
		C19.584,18.38,19.541,18.384,19.496,18.384z"/>
	<path d="M15.178,10.327c-0.2,0-0.389-0.078-0.53-0.22c-0.707-0.707-1.649-1.096-2.651-1.096c-1.003,0-1.945,0.389-2.652,1.096
		c-0.142,0.142-0.33,0.22-0.53,0.22s-0.389-0.078-0.53-0.22c-0.142-0.141-0.22-0.33-0.22-0.53s0.078-0.389,0.22-0.53
		c0.99-0.99,2.308-1.535,3.712-1.535s2.722,0.545,3.712,1.536c0.142,0.141,0.22,0.33,0.22,0.53s-0.078,0.389-0.22,0.53
		S15.378,10.327,15.178,10.327z"/>
	<path d="M17.83,7.675c-0.2,0-0.388-0.078-0.53-0.219c-1.415-1.414-3.298-2.193-5.304-2.193c-2.006,0-3.889,0.779-5.304,2.192
		c-0.142,0.142-0.33,0.219-0.53,0.219s-0.389-0.078-0.53-0.22c-0.292-0.293-0.292-0.768,0-1.061
		c1.698-1.697,3.958-2.631,6.364-2.631c2.407,0,4.667,0.934,6.364,2.631c0.292,0.292,0.292,0.768,0,1.061
		C18.219,7.597,18.031,7.675,17.83,7.675z"/>
	<path d="M20.481,5.024c-0.2,0-0.389-0.078-0.53-0.22c-2.121-2.121-4.946-3.289-7.955-3.289S6.163,2.683,4.042,4.804
		c-0.142,0.142-0.33,0.22-0.53,0.22s-0.389-0.078-0.53-0.22c-0.142-0.142-0.22-0.33-0.22-0.53c0-0.2,0.078-0.389,0.22-0.53
		c2.404-2.404,5.606-3.728,9.015-3.728s6.611,1.324,9.015,3.728c0.142,0.141,0.22,0.33,0.22,0.53c0,0.2-0.078,0.389-0.22,0.53
		C20.87,4.946,20.681,5.024,20.481,5.024z"/>
</g>
</svg>
