<?xml version="1.0" encoding="utf-8"?>
<!-- Generator: Adobe Illustrator 22.1.0, SVG Export Plug-In . SVG Version: 6.00 Build 0)  -->
<svg version="1.1" id="Regular" xmlns="http://www.w3.org/2000/svg" xmlns:xlink="http://www.w3.org/1999/xlink" x="0px" y="0px"
	 viewBox="0 0 24 24" style="enable-background:new 0 0 24 24;" xml:space="preserve">
<title>video-game-sword</title>
<g>
	<path d="M23.25,23.5c-0.031,0-0.062-0.002-0.093-0.006l-7.36-0.921c-0.187-0.023-0.357-0.116-0.479-0.259l-9.104-10.74
		l-0.456,0.472c-0.424,0.439-0.995,0.681-1.607,0.681c-0.582,0-1.133-0.222-1.551-0.626c-0.886-0.856-0.91-2.272-0.055-3.158
		c0.141-0.146,0.337-0.229,0.54-0.229c0.196,0,0.381,0.075,0.521,0.21c0.297,0.287,0.306,0.763,0.018,1.06
		c-0.281,0.291-0.273,0.756,0.018,1.037c0.137,0.132,0.318,0.205,0.51,0.205c0.201,0,0.388-0.079,0.527-0.223l1.54-1.595
		L2.836,6.141C1.252,6.062,0,4.76,0,3.171c0-1.64,1.335-2.975,2.975-2.975c1.566,0,2.838,1.187,2.962,2.73l3.385,3.269l0.51-0.528
		C9.84,5.66,9.849,5.652,9.857,5.645l1.005-1.04c0.136-0.141,0.209-0.327,0.206-0.523c-0.003-0.197-0.083-0.38-0.223-0.516
		c-0.137-0.133-0.318-0.206-0.51-0.206c-0.201,0-0.389,0.079-0.528,0.223C9.664,3.73,9.473,3.811,9.268,3.811
		c-0.195,0-0.38-0.075-0.521-0.211C8.449,3.312,8.441,2.837,8.729,2.54c0.424-0.438,0.995-0.68,1.606-0.68
		c0.583,0,1.135,0.223,1.553,0.627c0.428,0.414,0.67,0.971,0.68,1.569c0.01,0.597-0.213,1.162-0.627,1.591l-0.453,0.468
		l11.049,8.723c0.147,0.117,0.245,0.283,0.276,0.469l1.177,7.324c0.037,0.232-0.038,0.471-0.201,0.64
		C23.649,23.417,23.453,23.5,23.25,23.5z M22.35,21.882l-0.972-6.047L10.441,7.199L9.372,8.305l9.597,9.268
		c0.144,0.139,0.225,0.326,0.229,0.526c0.004,0.2-0.071,0.39-0.21,0.534c-0.14,0.146-0.337,0.229-0.54,0.229
		c-0.196,0-0.381-0.075-0.521-0.21L8.33,9.384L7.261,10.49l9.012,10.631L22.35,21.882z M7.262,8.33l1.019-1.055l-2.724-2.63
		C5.311,5.076,4.961,5.438,4.538,5.699L7.262,8.33z M2.975,1.696C2.162,1.696,1.5,2.358,1.5,3.171s0.662,1.475,1.475,1.475
		S4.45,3.984,4.45,3.171S3.788,1.696,2.975,1.696z"/>
</g>
</svg>
