<?xml version="1.0" encoding="utf-8"?>
<!-- Generator: Adobe Illustrator 22.1.0, SVG Export Plug-In . SVG Version: 6.00 Build 0)  -->
<svg version="1.1" id="Layer_1" xmlns="http://www.w3.org/2000/svg" xmlns:xlink="http://www.w3.org/1999/xlink" x="0px" y="0px"
	 viewBox="0 0 24 24" style="enable-background:new 0 0 24 24;" xml:space="preserve">
<title>video-game-logo-smash-bros</title>
<g>
	<path d="M2,16.5c-0.506-0.005-0.957-0.3-1.153-0.75c-0.56-1.343-0.843-2.754-0.844-4.199c0.045-3.952,2.188-7.64,5.594-9.63
		C5.794,1.804,6.02,1.741,6.25,1.741c0.198,0,0.397,0.047,0.575,0.137C7.231,2.073,7.493,2.483,7.5,2.945v12.339
		C7.475,15.972,6.934,16.5,6.267,16.5L2,16.5z M6,3.433c-2.749,1.773-4.46,4.846-4.497,8.126C1.504,12.74,1.725,13.898,2.161,15
		L6,15L6,3.433z"/>
	<path d="M11.991,24c-0.378,0-0.734-0.015-1.086-0.046c-0.618-0.039-1.104-0.546-1.121-1.18l0-3.574c0.028-0.68,0.564-1.2,1.222-1.2
		c0.003,0,9.27,0,9.27,0c0.001-0.001,0.023-0.001,0.044-0.001c0.627,0,1.154,0.489,1.2,1.114c0.023,0.319-0.078,0.627-0.285,0.868
		c-2.348,2.558-5.668,4.02-9.119,4.02C12.115,24.001,11.991,24,11.991,24z M11.283,22.478C11.517,22.493,11.753,22.5,12,22.5
		l0.145,0.001c2.774,0,5.455-1.086,7.463-3.001h-8.325L11.283,22.478z"/>
	<path d="M11.005,16.5c-0.66,0-1.208-0.54-1.222-1.204l0-14.028c0.012-0.646,0.498-1.164,1.131-1.214C11.291,0.018,11.648,0,12,0
		c0.071-0.001,0.147-0.002,0.225-0.002c6.351,0,11.632,5.166,11.771,11.515c0.001,1.462-0.276,2.88-0.824,4.221
		c-0.195,0.464-0.646,0.764-1.15,0.767L11.005,16.5z M21.85,15c0.429-1.106,0.647-2.274,0.646-3.471
		C22.375,6.002,17.762,1.498,12.214,1.498c-0.066,0-0.133,0.001-0.199,0.002c-0.24,0-0.48,0.01-0.732,0.029L21.85,15z"/>
	<path d="M6.134,22.26c-0.223,0-0.443-0.057-0.637-0.166c-0.001-0.001-0.002-0.001-0.004-0.002
		c-1.005-0.569-1.919-1.283-2.715-2.121c-0.346-0.349-0.421-0.885-0.181-1.328c0.234-0.401,0.646-0.636,1.108-0.64H6.13
		c0,0,0.022-0.001,0.043-0.001c0.625,0,1.15,0.494,1.195,1.125c0.001,0.018,0.002,0.036,0.002,0.054v1.9
		c-0.014,0.473-0.293,0.887-0.712,1.066C6.505,22.22,6.32,22.26,6.134,22.26z M4.444,19.503c0.447,0.399,0.923,0.756,1.426,1.069
		l0-1.07L4.444,19.503z"/>
</g>
</svg>
