<?xml version="1.0" encoding="utf-8"?>
<!-- Generator: Adobe Illustrator 22.1.0, SVG Export Plug-In . SVG Version: 6.00 Build 0)  -->
<svg version="1.1" id="Regular" xmlns="http://www.w3.org/2000/svg" xmlns:xlink="http://www.w3.org/1999/xlink" x="0px" y="0px"
	 viewBox="0 0 24 24" style="enable-background:new 0 0 24 24;" xml:space="preserve">
<title>video-game-mario-flower</title>
<g>
	<path d="M7.875,13.125c-0.044,0-0.088-0.004-0.13-0.011c-0.513-0.06-0.922-0.47-0.983-0.982C6.754,12.088,6.75,12.044,6.75,12
		s0.004-0.088,0.012-0.131c0.06-0.513,0.47-0.922,0.982-0.982c0.043-0.008,0.087-0.012,0.131-0.012s0.088,0.004,0.131,0.012
		c0.513,0.06,0.922,0.47,0.982,0.982C8.996,11.912,9,11.956,9,12s-0.004,0.088-0.012,0.131c-0.06,0.513-0.47,0.922-0.983,0.982
		C7.963,13.121,7.919,13.125,7.875,13.125z"/>
	<path d="M16.125,13.125c-0.044,0-0.088-0.004-0.13-0.011c-0.513-0.06-0.923-0.47-0.983-0.983C15.004,12.088,15,12.044,15,12
		s0.004-0.088,0.011-0.13c0.06-0.513,0.47-0.922,0.982-0.983c0.043-0.008,0.087-0.012,0.131-0.012s0.088,0.004,0.131,0.011
		c0.513,0.06,0.922,0.47,0.983,0.983c0.007,0.042,0.011,0.086,0.011,0.13s-0.004,0.088-0.011,0.13
		c-0.061,0.513-0.47,0.923-0.983,0.983C16.213,13.121,16.169,13.125,16.125,13.125z"/>
	<path d="M22.499,24c-0.233,0-0.458-0.053-0.669-0.159l-6.765-3.382c-0.747,0.271-1.523,0.441-2.315,0.507V22.5
		c0,0.414-0.336,0.75-0.75,0.75s-0.75-0.336-0.75-0.75v-1.532c-0.792-0.066-1.568-0.236-2.315-0.507L2.17,23.842
		C1.962,23.945,1.731,24,1.501,24c-0.161,0-0.321-0.026-0.476-0.078c-0.38-0.127-0.688-0.394-0.867-0.753
		c-0.209-0.419-0.209-0.92,0-1.34l3.382-6.765c-0.271-0.747-0.442-1.523-0.507-2.315H0.75C0.336,12.75,0,12.413,0,12
		s0.336-0.75,0.75-0.75h2.282c0.066-0.792,0.236-1.569,0.507-2.315L0.158,2.17c-0.209-0.42-0.209-0.921,0-1.34
		C0.414,0.318,0.929,0,1.502,0C1.735,0,1.96,0.053,2.17,0.158L8.935,3.54c0.746-0.271,1.523-0.442,2.315-0.507V1.5
		c0-0.414,0.336-0.75,0.75-0.75s0.75,0.336,0.75,0.75v1.532c0.792,0.066,1.569,0.236,2.315,0.507l6.764-3.382
		c0.211-0.105,0.436-0.159,0.669-0.159c0.161,0,0.322,0.026,0.476,0.078c0.38,0.127,0.688,0.394,0.867,0.753
		c0.21,0.419,0.21,0.92,0,1.34L20.46,8.935c0.271,0.747,0.441,1.523,0.507,2.315h2.282c0.414,0,0.75,0.336,0.75,0.75
		s-0.336,0.75-0.75,0.75h-2.282c-0.066,0.792-0.236,1.568-0.507,2.315l3.382,6.764c0.21,0.42,0.21,0.921,0,1.341
		c-0.179,0.358-0.487,0.625-0.867,0.752C22.822,23.974,22.661,24,22.499,24z M1.5,22.5l5.737-2.869
		c-1.165-0.728-2.141-1.703-2.869-2.869L1.5,22.5z M22.5,22.5l-2.869-5.737c-0.728,1.165-1.703,2.141-2.869,2.869L22.5,22.5z
		 M6.006,16.499C7.408,18.358,9.628,19.5,12,19.5c2.372,0,4.592-1.142,5.994-3.001c-0.588,0.247-1.222,0.376-1.869,0.376
		c-1.69,0-3.241-0.876-4.125-2.282c-0.884,1.406-2.435,2.282-4.125,2.282C7.228,16.875,6.594,16.745,6.006,16.499z M16.125,8.625
		c-1.861,0-3.375,1.514-3.375,3.375c0,1.861,1.514,3.375,3.375,3.375S19.5,13.861,19.5,12C19.5,10.139,17.986,8.625,16.125,8.625z
		 M7.875,8.625C6.014,8.625,4.5,10.139,4.5,12c0,1.861,1.514,3.375,3.375,3.375S11.25,13.861,11.25,12
		C11.25,10.139,9.736,8.625,7.875,8.625z M7.875,7.125c1.69,0,3.241,0.876,4.125,2.282c0.884-1.406,2.435-2.282,4.125-2.282
		c0.647,0,1.281,0.13,1.869,0.376C16.592,5.642,14.372,4.5,12,4.5S7.408,5.641,6.006,7.501C6.594,7.255,7.228,7.125,7.875,7.125z
		 M4.368,7.237c0.728-1.165,1.704-2.141,2.869-2.869L1.5,1.5C1.5,1.5,4.368,7.237,4.368,7.237z M16.763,4.368
		c1.166,0.728,2.141,1.704,2.869,2.869L22.5,1.5L16.763,4.368z M22.5,1.5L22.5,1.5L22.5,1.5z"/>
</g>
</svg>
