<?xml version="1.0" encoding="utf-8"?>
<!-- Generator: Adobe Illustrator 22.1.0, SVG Export Plug-In . SVG Version: 6.00 Build 0)  -->
<svg version="1.1" id="Regular" xmlns="http://www.w3.org/2000/svg" xmlns:xlink="http://www.w3.org/1999/xlink" x="0px" y="0px"
	 viewBox="0 0 24 24" style="enable-background:new 0 0 24 24;" xml:space="preserve">
<title>video-game-mario-cloud</title>
<g>
	<path d="M7.179,22c-1.041,0-1.946-0.679-2.25-1.651c-2.75-0.344-4.82-2.64-4.86-5.447c-0.021-1.488,0.538-2.896,1.575-3.963
		C2.5,10.058,3.618,9.487,4.821,9.309V8.393c0-3.958,3.22-7.179,7.179-7.179s7.179,3.22,7.179,7.179v0.916
		c2.693,0.391,4.712,2.668,4.752,5.433c0.021,1.488-0.538,2.896-1.575,3.963c-0.882,0.907-2.04,1.485-3.285,1.644
		C18.767,21.32,17.862,22,16.821,22H7.179z M12,2.714c-3.131,0-5.679,2.548-5.679,5.679V10c0,0.408-0.332,0.744-0.739,0.75
		c-1.088,0.016-2.104,0.454-2.862,1.234c-0.758,0.78-1.167,1.809-1.151,2.896c0.032,2.218,1.795,3.981,4.013,4.013
		c0.407,0.006,0.739,0.342,0.739,0.75c0,0.473,0.385,0.857,0.858,0.857h9.642c0.473,0,0.858-0.385,0.858-0.857
		c0-0.407,0.332-0.744,0.739-0.75c1.086-0.016,2.102-0.454,2.86-1.235c0.759-0.781,1.168-1.809,1.153-2.895
		c-0.032-2.218-1.795-3.981-4.013-4.013c-0.408-0.006-0.739-0.342-0.739-0.75V8.393C17.679,5.262,15.132,2.714,12,2.714z"/>
	<path d="M10.434,17.219c-1.703,0-3.304-0.663-4.508-1.867c-0.142-0.142-0.22-0.33-0.22-0.53s0.078-0.389,0.22-0.53
		c0.142-0.142,0.33-0.22,0.53-0.22s0.389,0.078,0.53,0.22c0.921,0.921,2.145,1.428,3.447,1.428c1.302,0,2.526-0.507,3.447-1.428
		c0.142-0.142,0.33-0.22,0.53-0.22s0.389,0.078,0.53,0.22s0.22,0.33,0.22,0.53s-0.078,0.389-0.22,0.53
		C13.738,16.556,12.137,17.219,10.434,17.219z"/>
	<path d="M8.786,10.75c-0.414,0-0.75-0.336-0.75-0.75V8.393c0-0.414,0.336-0.75,0.75-0.75s0.75,0.336,0.75,0.75V10
		C9.536,10.414,9.2,10.75,8.786,10.75z"/>
	<path d="M12,10.75c-0.414,0-0.75-0.336-0.75-0.75V8.393c0-0.414,0.336-0.75,0.75-0.75s0.75,0.336,0.75,0.75V10
		C12.75,10.414,12.414,10.75,12,10.75z"/>
</g>
</svg>
