<?xml version="1.0" encoding="utf-8"?>
<!-- Generator: Adobe Illustrator 22.1.0, SVG Export Plug-In . SVG Version: 6.00 Build 0)  -->
<svg version="1.1" id="Regular" xmlns="http://www.w3.org/2000/svg" xmlns:xlink="http://www.w3.org/1999/xlink" x="0px" y="0px"
	 viewBox="0 0 24 24" style="enable-background:new 0 0 24 24;" xml:space="preserve">
<title>video-game-mario-question-box</title>
<g>
	<path d="M2.5,24c-0.965,0-1.75-0.785-1.75-1.75V1.75C0.75,0.785,1.535,0,2.5,0h19c0.965,0,1.75,0.785,1.75,1.75v20.5
		c0,0.965-0.785,1.75-1.75,1.75H2.5z M2.5,1.5c-0.138,0-0.25,0.112-0.25,0.25v20.5c0,0.138,0.112,0.25,0.25,0.25h19
		c0.138,0,0.25-0.112,0.25-0.25V1.75c0-0.138-0.112-0.25-0.25-0.25H2.5z"/>
	<path d="M12,15c-0.414,0-0.75-0.336-0.75-0.75v-1.007c0-0.951,0.603-1.804,1.5-2.121c0.897-0.317,1.5-1.17,1.5-2.121
		c0-0.601-0.234-1.166-0.659-1.591C13.167,6.985,12.602,6.751,12,6.751c-0.601,0-1.166,0.234-1.591,0.659
		C9.984,7.834,9.75,8.399,9.75,9c0,0.413-0.336,0.75-0.75,0.75S8.25,9.413,8.25,9c0-1.002,0.391-1.943,1.099-2.651
		c0.708-0.708,1.65-1.098,2.651-1.098c2.068,0,3.75,1.683,3.75,3.75c0,1.586-1.005,3.006-2.5,3.535c-0.299,0.106-0.5,0.39-0.5,0.707
		v1.007C12.75,14.664,12.414,15,12,15z"/>
	<circle cx="12" cy="17.625" r="1.125"/>
	<path d="M5.25,5.625c-0.044,0-0.088-0.004-0.131-0.012c-0.513-0.06-0.922-0.47-0.982-0.982C4.129,4.588,4.125,4.544,4.125,4.5
		s0.004-0.088,0.012-0.131c0.06-0.513,0.47-0.922,0.982-0.982C5.162,3.379,5.206,3.375,5.25,3.375s0.088,0.004,0.131,0.012
		c0.513,0.06,0.922,0.47,0.982,0.982C6.371,4.412,6.375,4.456,6.375,4.5S6.371,4.588,6.363,4.631
		c-0.06,0.513-0.47,0.922-0.982,0.982C5.338,5.621,5.294,5.625,5.25,5.625z"/>
	<path d="M18.75,5.625c-0.044,0-0.088-0.004-0.131-0.011c-0.513-0.06-0.922-0.47-0.982-0.983c-0.008-0.042-0.011-0.086-0.011-0.13
		s0.004-0.088,0.011-0.13c0.06-0.513,0.47-0.923,0.982-0.983c0.043-0.008,0.087-0.011,0.131-0.011s0.088,0.004,0.131,0.011
		c0.513,0.06,0.922,0.47,0.983,0.983c0.007,0.042,0.011,0.086,0.011,0.13s-0.004,0.088-0.011,0.13
		c-0.061,0.513-0.47,0.923-0.983,0.983C18.838,5.621,18.794,5.625,18.75,5.625z"/>
	<path d="M5.25,20.625c-0.044,0-0.088-0.004-0.13-0.011c-0.513-0.06-0.923-0.47-0.983-0.982c-0.008-0.043-0.011-0.087-0.011-0.131
		s0.004-0.088,0.011-0.131c0.06-0.513,0.47-0.922,0.983-0.983c0.042-0.007,0.086-0.011,0.13-0.011s0.088,0.004,0.13,0.011
		c0.513,0.061,0.923,0.47,0.983,0.983c0.008,0.043,0.011,0.087,0.011,0.131s-0.004,0.088-0.011,0.131
		c-0.06,0.513-0.47,0.922-0.983,0.982C5.338,20.621,5.294,20.625,5.25,20.625z"/>
	<path d="M18.75,20.625c-0.044,0-0.088-0.004-0.13-0.011c-0.513-0.06-0.923-0.47-0.983-0.983c-0.007-0.042-0.011-0.086-0.011-0.13
		s0.004-0.088,0.011-0.131c0.06-0.513,0.47-0.923,0.983-0.983c0.042-0.008,0.086-0.011,0.131-0.011s0.088,0.004,0.131,0.011
		c0.513,0.06,0.923,0.47,0.983,0.983c0.008,0.042,0.011,0.086,0.011,0.131s-0.004,0.088-0.011,0.131
		c-0.06,0.513-0.47,0.923-0.983,0.983C18.838,20.621,18.794,20.625,18.75,20.625z"/>
</g>
</svg>
