<?xml version="1.0" encoding="utf-8"?>
<!-- Generator: Adobe Illustrator 22.1.0, SVG Export Plug-In . SVG Version: 6.00 Build 0)  -->
<svg version="1.1" id="Regular" xmlns="http://www.w3.org/2000/svg" xmlns:xlink="http://www.w3.org/1999/xlink" x="0px" y="0px"
	 viewBox="0 0 24 24" style="enable-background:new 0 0 24 24;" xml:space="preserve">
<title>video-game-assasin-creed</title>
<g>
	<path d="M11.999,14.645c-0.643,0-1.276-0.163-1.832-0.472c-0.361-0.201-0.492-0.658-0.291-1.02
		c0.132-0.238,0.384-0.386,0.656-0.386c0.127,0,0.252,0.032,0.363,0.094c0.335,0.186,0.716,0.284,1.104,0.284
		c0.398,0,0.789-0.103,1.13-0.298c0.113-0.065,0.242-0.099,0.372-0.099c0.269,0,0.518,0.145,0.651,0.377
		c0.205,0.359,0.081,0.818-0.278,1.023C13.307,14.474,12.659,14.645,11.999,14.645z"/>
	<path d="M12.001,23.998c-0.132,0-0.263-0.035-0.377-0.102l-7.8-4.538c-1.497-0.861-2.402-2.537-2.31-4.274
		c-0.004-0.074,0.002-0.147,0.02-0.219c0.054-0.539,0.198-1.055,0.428-1.532l2.163-4.479c0.58-1.203,1.033-2.472,1.346-3.771
		c0.609-2.406,2.477-4.275,4.876-4.883c0.547-0.138,1.106-0.208,1.664-0.208c1.203,0,2.391,0.329,3.436,0.952
		c1.545,0.921,2.639,2.388,3.08,4.131c0.314,1.306,0.767,2.576,1.348,3.779l2.165,4.479c0.232,0.483,0.377,1.004,0.43,1.549
		c0.012,0.054,0.017,0.111,0.017,0.169c0.106,1.751-0.801,3.441-2.314,4.31l-7.796,4.536C12.264,23.963,12.134,23.998,12.001,23.998
		z M3.029,15.691c0.113,0.986,0.685,1.874,1.546,2.369l7.426,4.321l7.423-4.319c0.862-0.495,1.436-1.382,1.551-2.366l-0.138-0.02
		c-0.251-0.035-2.268-0.349-3.574-1.454c-0.811,1.848-2.556,3.156-4.592,3.395c-0.225,0.026-0.454,0.04-0.68,0.04
		c-1.299,0-2.528-0.428-3.554-1.239c-0.747-0.59-1.328-1.343-1.702-2.202c-1.307,1.108-3.317,1.422-3.567,1.457L3.029,15.691z
		 M7.796,12.507c0.155,1.085,0.71,2.053,1.57,2.733c0.758,0.599,1.666,0.916,2.625,0.916c0.167,0,0.337-0.01,0.505-0.03
		c1.919-0.225,3.437-1.708,3.71-3.617c-0.254-1.256-0.581-2.497-0.969-3.69c-0.138-0.349-0.478-0.631-0.881-0.714
		c-0.089-0.019-0.177-0.028-0.265-0.028c-0.33,0-0.641,0.127-0.876,0.359l-0.689,0.674c-0.14,0.138-0.327,0.214-0.524,0.214
		c-0.198,0-0.385-0.076-0.526-0.215l-0.687-0.676c-0.236-0.232-0.546-0.36-0.875-0.36c-0.088,0-0.176,0.009-0.262,0.028
		c-0.412,0.085-0.748,0.367-0.9,0.756C8.371,10.026,8.048,11.26,7.796,12.507z M14.088,6.577c0.193,0,0.386,0.02,0.575,0.061
		c0.904,0.187,1.647,0.813,1.984,1.676c0.437,1.335,0.79,2.683,1.055,4.028c0.265,1.041,2.09,1.608,3.057,1.799
		c-0.022-0.053-0.045-0.105-0.07-0.156l-2.165-4.478c-0.628-1.3-1.117-2.67-1.454-4.072c-0.341-1.348-1.191-2.487-2.392-3.202
		c-0.813-0.484-1.736-0.74-2.669-0.74c-0.433,0-0.869,0.055-1.294,0.162C8.852,2.127,7.4,3.579,6.928,5.443
		C6.591,6.839,6.103,8.207,5.477,9.506l-2.163,4.479c-0.024,0.049-0.046,0.099-0.067,0.151c0.966-0.193,2.788-0.767,3.062-1.838
		C6.566,10.99,6.915,9.655,7.34,8.351C7.689,7.455,8.436,6.82,9.344,6.633c0.186-0.039,0.378-0.06,0.569-0.06
		c0.725,0,1.409,0.281,1.927,0.791l0.162,0.16l0.161-0.158C12.68,6.858,13.364,6.577,14.088,6.577z"/>
</g>
</svg>
