<?xml version="1.0" encoding="utf-8"?>
<!-- Generator: Adobe Illustrator 22.1.0, SVG Export Plug-In . SVG Version: 6.00 Build 0)  -->
<svg version="1.1" id="Regular" xmlns="http://www.w3.org/2000/svg" xmlns:xlink="http://www.w3.org/1999/xlink" x="0px" y="0px"
	 viewBox="0 0 24 24" style="enable-background:new 0 0 24 24;" xml:space="preserve">
<title>video-game-disk-controller</title>
<g>
	<path d="M9.757,24.006c-1.241,0-2.25-1.009-2.25-2.25v-6c0-1.241,1.009-2.25,2.25-2.25h12c1.241,0,2.25,1.009,2.25,2.25v6
		c0,1.241-1.009,2.25-2.25,2.25H9.757z M9.757,15.006c-0.414,0-0.75,0.336-0.75,0.75v6c0,0.414,0.336,0.75,0.75,0.75h12
		c0.414,0,0.75-0.336,0.75-0.75v-6c0-0.414-0.336-0.75-0.75-0.75H9.757z"/>
	<path d="M12.007,21.006c-0.414,0-0.75-0.336-0.75-0.75v-0.75h-0.75c-0.414,0-0.75-0.336-0.75-0.75s0.336-0.75,0.75-0.75h0.75v-0.75
		c0-0.414,0.336-0.75,0.75-0.75c0.414,0,0.75,0.336,0.75,0.75v0.75h0.75c0.414,0,0.75,0.336,0.75,0.75s-0.336,0.75-0.75,0.75h-0.75
		v0.75C12.757,20.67,12.42,21.006,12.007,21.006z"/>
	<path d="M19.882,18.756c-0.044,0-0.088-0.004-0.13-0.011c-0.513-0.06-0.923-0.47-0.983-0.983c-0.007-0.042-0.011-0.086-0.011-0.13
		s0.004-0.088,0.011-0.131c0.06-0.513,0.47-0.923,0.983-0.983c0.042-0.008,0.086-0.011,0.131-0.011s0.088,0.004,0.131,0.011
		c0.513,0.06,0.923,0.47,0.983,0.983c0.008,0.042,0.011,0.086,0.011,0.131s-0.004,0.088-0.011,0.131
		c-0.06,0.513-0.47,0.923-0.983,0.983C19.97,18.753,19.926,18.756,19.882,18.756z"/>
	<path d="M18.382,21.006c-0.044,0-0.088-0.004-0.13-0.011c-0.513-0.06-0.923-0.47-0.983-0.983c-0.007-0.042-0.011-0.086-0.011-0.13
		s0.004-0.088,0.011-0.131c0.06-0.513,0.47-0.923,0.983-0.983c0.042-0.008,0.086-0.011,0.131-0.011s0.088,0.004,0.131,0.011
		c0.513,0.06,0.923,0.47,0.983,0.983c0.008,0.042,0.011,0.086,0.011,0.131s-0.004,0.088-0.011,0.131
		c-0.06,0.513-0.47,0.923-0.983,0.983C18.47,21.003,18.426,21.006,18.382,21.006z"/>
	<path d="M5.256,20.057c-0.148,0-0.292-0.044-0.416-0.126C-0.146,16.599-1.492,9.832,1.839,4.846c2.021-3.024,5.407-4.83,9.058-4.83
		c2.151,0,4.235,0.633,6.026,1.829c3.024,2.021,4.831,5.398,4.833,9.036c0,0.141,0,0.28-0.008,0.418
		c-0.023,0.404-0.345,0.708-0.748,0.708c-0.007,0-0.036-0.001-0.042-0.001c-0.414-0.024-0.73-0.379-0.707-0.792
		c0.006-0.106,0.006-0.213,0.006-0.32c-0.002-3.147-1.56-6.059-4.167-7.801c-1.544-1.032-3.34-1.577-5.194-1.577
		c-3.148,0-6.068,1.557-7.81,4.164C0.215,9.978,1.375,15.811,5.673,18.683c0.167,0.111,0.28,0.281,0.319,0.477
		s-0.001,0.396-0.112,0.563C5.741,19.932,5.508,20.057,5.256,20.057z"/>
	<path d="M13.48,12.006c-0.036,0-0.072-0.003-0.109-0.008c-0.198-0.029-0.373-0.133-0.493-0.294c-0.12-0.161-0.17-0.358-0.141-0.556
		c0.013-0.088,0.019-0.178,0.019-0.267c0-1.034-0.841-1.875-1.875-1.875s-1.875,0.841-1.875,1.875c0,0.089,0.006,0.179,0.019,0.267
		c0.059,0.409-0.225,0.791-0.634,0.85c-0.037,0.005-0.073,0.008-0.108,0.008c-0.37,0-0.689-0.276-0.742-0.642
		c-0.023-0.16-0.035-0.323-0.035-0.484c0-1.86,1.514-3.374,3.375-3.374s3.375,1.514,3.375,3.375c0,0.161-0.012,0.323-0.035,0.483
		C14.169,11.73,13.85,12.006,13.48,12.006z"/>
</g>
</svg>
