<?xml version="1.0" encoding="utf-8"?>
<!-- Generator: Adobe Illustrator 22.1.0, SVG Export Plug-In . SVG Version: 6.00 Build 0)  -->
<svg version="1.1" id="Regular" xmlns="http://www.w3.org/2000/svg" xmlns:xlink="http://www.w3.org/1999/xlink" x="0px" y="0px"
	 viewBox="0 0 24 24" style="enable-background:new 0 0 24 24;" xml:space="preserve">
<title>video-game-nintendo-1</title>
<g>
	<path d="M19.875,17.25c-0.044,0-0.088-0.004-0.13-0.011c-0.513-0.06-0.923-0.47-0.983-0.983c-0.007-0.042-0.011-0.086-0.011-0.13
		s0.004-0.088,0.011-0.131c0.06-0.513,0.47-0.923,0.983-0.983C19.787,15.004,19.831,15,19.875,15s0.088,0.004,0.131,0.011
		c0.513,0.06,0.923,0.47,0.983,0.983C20.996,16.037,21,16.081,21,16.125s-0.004,0.088-0.011,0.131
		c-0.06,0.513-0.47,0.923-0.983,0.983C19.963,17.246,19.919,17.25,19.875,17.25z"/>
	<path d="M19.875,21c-0.044,0-0.088-0.004-0.13-0.011c-0.513-0.06-0.923-0.47-0.983-0.983c-0.007-0.042-0.011-0.086-0.011-0.13
		s0.004-0.088,0.011-0.131c0.06-0.513,0.47-0.923,0.983-0.983c0.042-0.008,0.086-0.011,0.131-0.011s0.088,0.004,0.131,0.011
		c0.513,0.06,0.923,0.47,0.983,0.983C20.996,19.787,21,19.831,21,19.875s-0.004,0.088-0.011,0.131
		c-0.06,0.513-0.47,0.923-0.983,0.983C19.963,20.996,19.919,21,19.875,21z"/>
	<path d="M1.75,24C0.785,24,0,23.215,0,22.25V1.75C0,0.785,0.785,0,1.75,0h20.5C23.215,0,24,0.785,24,1.75v20.5
		c0,0.965-0.785,1.75-1.75,1.75H1.75z M1.5,22.25c0,0.138,0.112,0.25,0.25,0.25h20.5c0.138,0,0.25-0.112,0.25-0.25v-9.5h-21V22.25z
		 M22.5,11.25v-9.5c0-0.138-0.112-0.25-0.25-0.25H1.75C1.612,1.5,1.5,1.612,1.5,1.75v9.5H22.5z"/>
	<path d="M8,9.75c-0.689,0-1.25-0.561-1.25-1.25V4.25C6.75,3.561,7.311,3,8,3h8c0.689,0,1.25,0.561,1.25,1.25V8.5
		c0,0.689-0.561,1.25-1.25,1.25H8z M15.75,8.25V4.5h-7.5v3.75H15.75z"/>
	<path d="M8,21c-0.689,0-1.25-0.561-1.25-1.25V15.5c0-0.689,0.561-1.25,1.25-1.25h8c0.689,0,1.25,0.561,1.25,1.25v4.25
		c0,0.689-0.561,1.25-1.25,1.25H8z M15.75,19.5v-3.75h-7.5v3.75H15.75z"/>
	<path d="M3,17.25c-0.414,0-0.75-0.336-0.75-0.75S2.586,15.75,3,15.75h1.5c0.414,0,0.75,0.336,0.75,0.75s-0.336,0.75-0.75,0.75H3z"
		/>
	<path d="M3,20.25c-0.414,0-0.75-0.336-0.75-0.75S2.586,18.75,3,18.75h1.5c0.414,0,0.75,0.336,0.75,0.75s-0.336,0.75-0.75,0.75H3z"
		/>
</g>
</svg>
