<?xml version="1.0" encoding="utf-8"?>
<!-- Generator: Adobe Illustrator 22.1.0, SVG Export Plug-In . SVG Version: 6.00 Build 0)  -->
<svg version="1.1" id="Regular" xmlns="http://www.w3.org/2000/svg" xmlns:xlink="http://www.w3.org/1999/xlink" x="0px" y="0px"
	 viewBox="0 0 24 24" style="enable-background:new 0 0 24 24;" xml:space="preserve">
<title>video-game-frog</title>
<g>
	<path d="M13.61,24c-0.258,0-0.502-0.136-0.638-0.355c-0.138-0.224-0.15-0.496-0.033-0.73c0.086-0.172,0.875-1.7,2.224-2.723
		c1.774-2.143,1.39-3.42-0.617-5.835H9.461c-2.442,2.963-2.044,4.123-0.62,5.834c1.347,1.02,2.138,2.551,2.225,2.723
		c0.117,0.234,0.105,0.507-0.033,0.73C10.896,23.867,10.657,24,10.396,24H3.164c-0.414,0-0.75-0.336-0.75-0.75
		c0-2.186,1.778-3.964,3.964-3.964c0.045,0,0.09,0.001,0.135,0.003c-0.634-1.542-0.316-3.016,1.053-4.932l-3.669,0
		c-1.983,0-3.689-1.548-3.884-3.525c-0.118-1.834,0.865-3.52,2.502-4.309C2.618,6.475,2.727,6.45,2.84,6.45
		c0.287,0,0.552,0.167,0.676,0.425c0.087,0.18,0.098,0.384,0.032,0.573C3.482,7.637,3.346,7.789,3.166,7.876
		C2.082,8.398,1.431,9.51,1.508,10.711c0.119,1.198,1.171,2.146,2.396,2.146h16.191c1.228,0,2.282-0.954,2.402-2.172
		c0.076-1.203-0.593-2.322-1.705-2.837c-0.182-0.084-0.32-0.234-0.389-0.422c-0.069-0.188-0.061-0.392,0.024-0.573
		c0.122-0.264,0.389-0.434,0.68-0.434c0.109,0,0.215,0.023,0.315,0.069c1.678,0.778,2.686,2.473,2.569,4.319
		c-0.196,1.997-1.915,3.551-3.914,3.551l-3.639,0c1.369,1.916,1.688,3.39,1.053,4.932c0.045-0.002,0.09-0.003,0.135-0.003
		c2.186,0,3.964,1.778,3.964,3.964c0,0.414-0.336,0.75-0.75,0.75H13.61z M19.975,22.5c-0.321-1.002-1.264-1.714-2.348-1.714
		c-1.106,0-2.062,0.961-2.643,1.714H19.975z M9.021,22.5c-0.58-0.753-1.537-1.714-2.643-1.714c-1.083,0-2.027,0.712-2.348,1.714
		H9.021z"/>
	<path d="M12.003,5.518c-1.059,0-1.866-0.907-2.8-1.957C8.343,2.595,7.369,1.5,6.378,1.5c-1.102,0-1.661,0.829-1.661,2.464
		c0,0.414-0.336,0.75-0.75,0.75s-0.75-0.336-0.75-0.75C3.217,1.482,4.398,0,6.378,0c0.72,0,1.425,0.262,2.149,0.801
		c1.076-0.518,2.272-0.791,3.476-0.791s2.4,0.273,3.476,0.791C16.203,0.262,16.908,0,17.628,0c1.979,0,3.161,1.482,3.161,3.964
		c0,0.414-0.336,0.75-0.75,0.75s-0.75-0.336-0.75-0.75c0-1.635-0.559-2.464-1.661-2.464c-0.99,0-1.965,1.095-2.824,2.061
		C13.868,4.611,13.061,5.518,12.003,5.518z M9.734,1.913c0.208,0.222,0.406,0.445,0.589,0.651c0.576,0.648,1.294,1.454,1.68,1.454
		s1.103-0.806,1.68-1.454c0.183-0.206,0.381-0.428,0.589-0.651c-0.721-0.267-1.496-0.406-2.269-0.406
		C11.23,1.507,10.455,1.646,9.734,1.913z"/>
	<path d="M8.789,9.536c-0.414,0-0.75-0.336-0.75-0.75V7.179c0-0.414,0.336-0.75,0.75-0.75s0.75,0.336,0.75,0.75v1.607
		C9.539,9.2,9.202,9.536,8.789,9.536z"/>
	<path d="M15.217,9.536c-0.414,0-0.75-0.336-0.75-0.75V7.179c0-0.414,0.336-0.75,0.75-0.75s0.75,0.336,0.75,0.75v1.607
		C15.967,9.2,15.63,9.536,15.217,9.536z"/>
</g>
</svg>
