<?xml version="1.0" encoding="utf-8"?>
<!-- Generator: Adobe Illustrator 22.1.0, SVG Export Plug-In . SVG Version: 6.00 Build 0)  -->
<svg version="1.1" id="Layer_1" xmlns="http://www.w3.org/2000/svg" xmlns:xlink="http://www.w3.org/1999/xlink" x="0px" y="0px"
	 viewBox="0 0 24 24" style="enable-background:new 0 0 24 24;" xml:space="preserve">
<title>video-game-logo-companion-cube</title>
<g>
	<path d="M12,17.75c-0.16,0-0.312-0.05-0.441-0.144c-0.482-0.351-4.709-3.503-4.709-6.175c0-1.872,1.312-3.008,2.608-3.161
		c0.102-0.012,0.206-0.018,0.31-0.018c0.443,0,1.459,0.121,2.233,1.129c0.774-1.008,1.79-1.129,2.233-1.129
		c0.104,0,0.207,0.006,0.309,0.018c1.296,0.154,2.608,1.289,2.608,3.161c0,2.673-4.227,5.825-4.709,6.175
		C12.312,17.7,12.16,17.75,12,17.75z M9.776,9.751c-0.048,0-0.095,0.003-0.141,0.008C8.996,9.835,8.35,10.434,8.35,11.431
		c0,1.217,1.85,3.209,3.65,4.627c1.8-1.418,3.65-3.41,3.65-4.627c0-0.997-0.646-1.596-1.285-1.672
		c-0.045-0.005-0.092-0.008-0.139-0.008c-0.336,0-1.153,0.154-1.497,1.58c-0.081,0.338-0.381,0.574-0.729,0.574
		c-0.348,0-0.648-0.236-0.729-0.574C10.928,9.905,10.111,9.751,9.776,9.751z"/>
	<path d="M17.25,24c-0.965,0-1.75-0.785-1.75-1.75V22h-7v0.25C8.5,23.215,7.715,24,6.75,24h-5C0.785,24,0,23.215,0,22.25v-5
		c0-0.965,0.785-1.75,1.75-1.75H2v-7H1.75C0.785,8.5,0,7.715,0,6.75v-5C0,0.785,0.785,0,1.75,0h5C7.715,0,8.5,0.785,8.5,1.75V2h7
		V1.75C15.5,0.785,16.285,0,17.25,0h5C23.215,0,24,0.785,24,1.75v5c0,0.965-0.785,1.75-1.75,1.75H22v7h0.25
		c0.965,0,1.75,0.785,1.75,1.75v5c0,0.965-0.785,1.75-1.75,1.75H17.25z M17,22.25c0,0.138,0.112,0.25,0.25,0.25h5
		c0.138,0,0.25-0.112,0.25-0.25v-5c0-0.138-0.112-0.25-0.25-0.25h-4.149c-0.326,0.406-0.696,0.775-1.101,1.101V22.25z M1.75,17
		c-0.138,0-0.25,0.112-0.25,0.25v5c0,0.138,0.112,0.25,0.25,0.25h5C6.888,22.5,7,22.388,7,22.25v-4.149
		C6.594,17.775,6.225,17.406,5.899,17H1.75z M15.5,20.5v-2.77c0-0.24,0.116-0.468,0.312-0.609c0.505-0.364,0.946-0.804,1.309-1.309
		c0.141-0.196,0.368-0.312,0.609-0.312h2.77v-7h-2.77c-0.24,0-0.468-0.117-0.609-0.312c-0.364-0.505-0.804-0.946-1.309-1.309
		C15.616,6.738,15.5,6.51,15.5,6.27V3.5h-7v2.77c0,0.24-0.117,0.468-0.312,0.609C7.683,7.242,7.242,7.683,6.879,8.188
		C6.738,8.383,6.51,8.5,6.27,8.5H3.5v7h2.77c0.24,0,0.468,0.116,0.609,0.312c0.364,0.506,0.804,0.946,1.309,1.309
		C8.383,17.262,8.5,17.49,8.5,17.73v2.77H15.5z M22.25,7c0.138,0,0.25-0.112,0.25-0.25v-5c0-0.138-0.112-0.25-0.25-0.25h-5
		C17.112,1.5,17,1.612,17,1.75v4.149C17.406,6.225,17.775,6.594,18.101,7H22.25z M1.75,1.5C1.612,1.5,1.5,1.612,1.5,1.75v5
		C1.5,6.888,1.612,7,1.75,7h4.149C6.225,6.594,6.594,6.225,7,5.899V1.75C7,1.612,6.888,1.5,6.75,1.5H1.75z"/>
</g>
</svg>
