<?xml version="1.0" encoding="utf-8"?>
<!-- Generator: Adobe Illustrator 22.1.0, SVG Export Plug-In . SVG Version: 6.00 Build 0)  -->
<svg version="1.1" id="Regular" xmlns="http://www.w3.org/2000/svg" xmlns:xlink="http://www.w3.org/1999/xlink" x="0px" y="0px"
	 viewBox="0 0 24 24" style="enable-background:new 0 0 24 24;" xml:space="preserve">
<title>video-game-boo</title>
<g>
	<path d="M8.008,20.25c-0.959,0-1.861-0.374-2.54-1.052c-0.679-0.678-1.053-1.581-1.053-2.541c0-0.46,0.087-0.91,0.257-1.336
		l0.759-1.897c-0.25-0.122-0.422-0.378-0.422-0.675c0-0.414,0.336-0.75,0.75-0.75h7.5c0.414,0,0.75,0.336,0.75,0.75
		s-0.336,0.75-0.75,0.75h-0.242l-1.064,2.659c-0.112,0.28-0.19,0.572-0.232,0.87C11.46,18.866,9.864,20.25,8.008,20.25L8.008,20.25z
		 M6.066,15.878c-0.1,0.249-0.15,0.511-0.15,0.779c0,0.559,0.218,1.085,0.613,1.48c0.395,0.395,0.921,0.613,1.48,0.613
		c1.114,0,2.071-0.831,2.228-1.932c0.059-0.416,0.168-0.826,0.324-1.217l0.841-2.101H9.973L8.68,16.086
		C8.552,16.341,8.295,16.5,8.009,16.5c-0.115,0-0.231-0.027-0.335-0.079c-0.37-0.185-0.52-0.636-0.336-1.006L8.296,13.5H7.017
		L6.066,15.878z"/>
	<path d="M11.746,24c-1.942-0.032-3.887-0.501-5.625-1.358c-0.18-0.089-0.314-0.242-0.379-0.432s-0.051-0.393,0.038-0.573
		c0.127-0.258,0.385-0.418,0.673-0.418c0.114,0,0.228,0.027,0.33,0.077c1.542,0.76,3.264,1.176,4.982,1.204
		c5.238,0,8.6-4.057,9.908-6h-3.17c-0.336,0-0.633-0.226-0.723-0.55c-0.09-0.324,0.049-0.671,0.337-0.844
		c2.199-1.318,3.316-4.013,3.793-5.164l-3.281,0.547c-0.042,0.007-0.083,0.01-0.123,0.01c-0.178,0-0.35-0.063-0.485-0.177
		c-0.169-0.143-0.265-0.352-0.265-0.572v-1.5c-0.001-3.72-3.028-6.748-6.749-6.749c-1.804,0-3.498,0.702-4.773,1.976
		C5.666,4.044,5.21,4.697,4.876,5.419c0.156,0.767,0.816,1.319,1.611,1.332c0.008,0,0.015-0.001,0.022-0.001
		c0.009,0,0.074,0.001,0.074,0.001c0.007,0,0.099-0.001,0.099-0.001c0.576,0,1.132-0.269,1.488-0.72
		c0.139-0.177,0.354-0.278,0.589-0.278s0.45,0.101,0.589,0.278c0.355,0.451,0.911,0.72,1.486,0.72c0,0,0.085,0.001,0.087,0.001
		l0.017,0.375l0.016-0.32l-0.007-0.052c0.003,0,0.006-0.001,0.009-0.001l0-0.002c0.001,0,0.041-0.001,0.053-0.001
		c0.011,0,0.025,0.001,0.039,0.002c0.847-0.007,1.566-0.687,1.622-1.55c0.026-0.4,0.347-0.702,0.748-0.702
		c0.008,0,0.04,0.001,0.048,0.001c0.413,0.027,0.728,0.384,0.701,0.797c-0.089,1.383-1.081,2.54-2.408,2.863V9.75
		c0,0.414-0.336,0.75-0.75,0.75s-0.75-0.336-0.75-0.75V8.197c-0.547-0.095-1.064-0.321-1.5-0.656
		c-0.437,0.336-0.953,0.562-1.5,0.657V9.75c0,0.414-0.336,0.75-0.75,0.75s-0.75-0.336-0.75-0.75V8.162
		C5.216,8.028,4.715,7.75,4.313,7.364C4.275,7.657,4.255,7.953,4.255,8.25v2.25c0,0.262-0.133,0.5-0.356,0.638
		c-0.118,0.073-0.255,0.112-0.394,0.112c-0.116,0-0.232-0.027-0.336-0.079l-1.673-0.836c0.391,1.293,1.045,2.469,1.943,3.489
		c0.132,0.15,0.198,0.343,0.186,0.543s-0.103,0.383-0.253,0.516c-0.136,0.121-0.312,0.187-0.495,0.187
		c-0.215,0-0.421-0.093-0.563-0.254c-1.042-1.183-1.801-2.547-2.255-4.055c-0.114-0.39-0.07-0.796,0.123-1.147
		c0.193-0.351,0.51-0.606,0.895-0.718c0.136-0.04,0.278-0.06,0.42-0.06c0.231,0,0.464,0.055,0.672,0.16l0.587,0.293V8.25
		c0-2.204,0.859-4.275,2.417-5.833c1.558-1.557,3.63-2.415,5.833-2.415c4.549,0.001,8.249,3.701,8.25,8.248v0.615l2.406-0.401
		c0.082-0.014,0.165-0.02,0.247-0.02c0.738,0,1.36,0.529,1.48,1.257c0.045,0.275,0.013,0.557-0.093,0.814
		c-0.411,0.993-1.209,2.917-2.694,4.486h2.4c0.258,0,0.502,0.136,0.638,0.355c0.138,0.224,0.15,0.496,0.033,0.73
		C23.634,16.165,19.625,24,11.752,24C11.75,24,11.748,24,11.746,24z"/>
</g>
</svg>
