<?xml version="1.0" encoding="utf-8"?>
<!-- Generator: Adobe Illustrator 22.1.0, SVG Export Plug-In . SVG Version: 6.00 Build 0)  -->
<svg version="1.1" id="Regular" xmlns="http://www.w3.org/2000/svg" xmlns:xlink="http://www.w3.org/1999/xlink" x="0px" y="0px"
	 viewBox="0 0 24 24" style="enable-background:new 0 0 24 24;" xml:space="preserve">
<title>video-game-flower-3</title>
<g>
	<path d="M11.75,24c-2.936,0-5.758-1.246-7.746-3.418c-0.024-0.021-0.046-0.043-0.067-0.068c-0.013-0.016-0.025-0.032-0.036-0.049
		C2.191,18.541,1.25,16.068,1.25,13.5v-3c0-2.568,0.941-5.04,2.651-6.965c0.011-0.017,0.023-0.033,0.035-0.048
		c0.025-0.03,0.053-0.059,0.083-0.085C6.007,1.24,8.823,0,11.75,0c2.928,0,5.744,1.24,7.731,3.403
		c0.029,0.025,0.056,0.053,0.082,0.083c0.013,0.016,0.025,0.032,0.037,0.049c1.709,1.924,2.65,4.396,2.65,6.964v3
		c0,2.568-0.941,5.041-2.651,6.966c-0.011,0.017-0.023,0.033-0.035,0.048c-0.02,0.024-0.043,0.047-0.068,0.069
		C17.508,22.754,14.686,24,11.75,24z M12.5,22.467c2.012-0.167,3.896-1.002,5.378-2.384l-2.331-1.942
		c-0.872,0.713-1.933,1.169-3.048,1.31V22.467z M5.622,20.083C7.104,21.465,8.988,22.3,11,22.467v-3.015
		c-1.114-0.141-2.176-0.597-3.048-1.31L5.622,20.083z M18.888,18.973c1.203-1.567,1.862-3.496,1.862-5.473v-0.75h-3v0.75
		c0,1.278-0.412,2.525-1.167,3.551L18.888,18.973z M2.75,13.5c0,1.977,0.658,3.906,1.861,5.473l2.306-1.922
		C6.162,16.024,5.75,14.777,5.75,13.5v-0.75h-3V13.5z M11.541,6.008C9.162,6.119,7.25,8.106,7.25,10.5v3c0,2.481,2.019,4.5,4.5,4.5
		c2.481,0,4.5-2.019,4.5-4.5v-3c0-1.879-1.177-3.543-2.887-4.201c0.032,0.123,0.056,0.252,0.068,0.387
		c0.039,0.436-0.013,1.525-1.328,2.226C11.994,8.97,11.872,9,11.75,9c-0.278,0-0.532-0.152-0.662-0.398
		c-0.094-0.176-0.114-0.379-0.055-0.571s0.188-0.349,0.365-0.443c0.501-0.267,0.552-0.537,0.541-0.742
		C11.918,6.488,11.68,6.151,11.541,6.008z M20.75,11.25V10.5c0-1.977-0.658-3.906-1.862-5.473l-2.306,1.922
		c0.755,1.026,1.167,2.274,1.167,3.551v0.75H20.75z M5.75,11.25V10.5c0-1.278,0.412-2.525,1.167-3.551L4.611,5.027
		C3.408,6.594,2.75,8.523,2.75,10.5v0.75H5.75z M12.5,4.548c1.114,0.141,2.176,0.597,3.048,1.31l2.331-1.942
		C16.396,2.535,14.512,1.7,12.5,1.533V4.548z M7.952,5.859C8.824,5.146,9.885,4.689,11,4.548V1.533
		C8.988,1.7,7.104,2.535,5.622,3.917L7.952,5.859z"/>
	<path d="M9.5,12.75c-0.414,0-0.75-0.336-0.75-0.75v-1.5c0-0.414,0.336-0.75,0.75-0.75s0.75,0.336,0.75,0.75V12
		C10.25,12.414,9.914,12.75,9.5,12.75z"/>
	<path d="M14,12.75c-0.414,0-0.75-0.336-0.75-0.75v-1.5c0-0.414,0.336-0.75,0.75-0.75s0.75,0.336,0.75,0.75V12
		C14.75,12.414,14.414,12.75,14,12.75z"/>
	<path d="M11.75,16.5c-0.601,0-1.166-0.233-1.59-0.657c-0.146-0.146-0.147-0.384-0.001-0.53l0.529-0.531
		c0.07-0.071,0.166-0.11,0.265-0.11c0,0,0,0,0,0c0.099,0,0.195,0.04,0.265,0.11c0.142,0.142,0.33,0.22,0.531,0.22
		s0.389-0.078,0.531-0.219c0.142-0.142,0.33-0.22,0.53-0.22s0.389,0.078,0.53,0.22c0.142,0.141,0.22,0.33,0.22,0.53
		c0,0.2-0.078,0.389-0.22,0.53C12.917,16.266,12.352,16.5,11.75,16.5z"/>
</g>
</svg>
