<?xml version="1.0" encoding="utf-8"?>
<!-- Generator: Adobe Illustrator 22.1.0, SVG Export Plug-In . SVG Version: 6.00 Build 0)  -->
<svg version="1.1" id="Regular" xmlns="http://www.w3.org/2000/svg" xmlns:xlink="http://www.w3.org/1999/xlink" x="0px" y="0px"
	 viewBox="0 0 24 24" style="enable-background:new 0 0 24 24;" xml:space="preserve">
<title>video-game-gamasutra-1</title>
<g>
	<path d="M11,24c-0.689,0-1.25-0.561-1.25-1.25v-2c0-0.689,0.561-1.25,1.25-1.25h2c0.689,0,1.25,0.561,1.25,1.25v2
		c0,0.689-0.561,1.25-1.25,1.25H11z M12.75,22.5V21h-1.5v1.5H12.75z"/>
	<path d="M21,16.5c-0.827,0-1.5-0.673-1.5-1.5v-1.5h-5.25V15c0,0.827-0.673,1.5-1.5,1.5h-1.5c-0.827,0-1.5-0.673-1.5-1.5v-1.5H4.5
		V15c0,0.827-0.673,1.5-1.5,1.5H1.5C0.673,16.5,0,15.827,0,15V7.5C0,6.673,0.673,6,1.5,6H3V4.5C3,3.673,3.673,3,4.5,3H6V1.5
		C6,0.673,6.673,0,7.5,0h9C17.327,0,18,0.673,18,1.5V3h1.5C20.327,3,21,3.673,21,4.5V6h1.5C23.327,6,24,6.673,24,7.5V15
		c0,0.827-0.673,1.5-1.5,1.5H21z M19.5,12c0.827,0,1.5,0.673,1.5,1.5V15h1.5V7.5H21c-0.827,0-1.5-0.673-1.5-1.5V4.5H18
		c-0.827,0-1.5-0.673-1.5-1.5V1.5h-9V3c0,0.827-0.673,1.5-1.5,1.5H4.5V6c0,0.827-0.673,1.5-1.5,1.5H1.5V15H3v-1.5
		C3,12.673,3.673,12,4.5,12h5.25c0.827,0,1.5,0.673,1.5,1.5V15h1.5v-1.5c0-0.827,0.673-1.5,1.5-1.5H19.5z"/>
	<path d="M7.5,10.5C6.673,10.5,6,9.827,6,9V7.5C6,6.673,6.673,6,7.5,6H9c0.827,0,1.5,0.673,1.5,1.5V9c0,0.827-0.673,1.5-1.5,1.5H7.5
		z M7.5,9H9V7.5H7.5V9z"/>
	<path d="M15,10.5c-0.827,0-1.5-0.673-1.5-1.5V7.5C13.5,6.673,14.173,6,15,6h1.5C17.327,6,18,6.673,18,7.5V9
		c0,0.827-0.673,1.5-1.5,1.5H15z M15,9h1.5V7.5H15V9z"/>
</g>
</svg>
