<?xml version="1.0" encoding="utf-8"?>
<!-- Generator: Adobe Illustrator 22.1.0, SVG Export Plug-In . SVG Version: 6.00 Build 0)  -->
<svg version="1.1" id="Regular" xmlns="http://www.w3.org/2000/svg" xmlns:xlink="http://www.w3.org/1999/xlink" x="0px" y="0px"
	 viewBox="0 0 24 24" style="enable-background:new 0 0 24 24;" xml:space="preserve">
<title>video-game-mario-bomb</title>
<g>
	<path d="M11.04,22.495c-1.696,0-3.334-0.503-4.735-1.456C6.14,20.927,6.028,20.756,5.99,20.56
		c-0.038-0.197,0.004-0.396,0.116-0.562c0.139-0.206,0.371-0.329,0.62-0.329c0.151,0,0.297,0.045,0.422,0.13
		c1.152,0.782,2.497,1.196,3.892,1.196c1.855,0,3.597-0.72,4.905-2.027c2.703-2.702,2.704-7.1,0.002-9.803
		c-1.309-1.31-3.05-2.031-4.901-2.031c-1.853,0-3.593,0.721-4.902,2.029c-0.142,0.142-0.33,0.219-0.53,0.219
		c-0.2,0-0.389-0.078-0.53-0.22c-0.292-0.293-0.292-0.768,0-1.061c1.593-1.592,3.709-2.468,5.961-2.468
		c1.989,0,3.896,0.695,5.409,1.963l1.615-1.615c0.142-0.142,0.33-0.22,0.53-0.22s0.389,0.078,0.53,0.22
		c0.142,0.141,0.22,0.33,0.22,0.53s-0.078,0.389-0.22,0.53l-1.616,1.616c2.797,3.336,2.601,8.264-0.508,11.372
		C15.415,21.619,13.296,22.495,11.04,22.495L11.04,22.495z"/>
	<path d="M21,4.86c-0.2,0-0.389-0.078-0.53-0.22c-0.142-0.141-0.22-0.33-0.22-0.53s0.078-0.389,0.22-0.53l2.25-2.25
		c0.142-0.142,0.33-0.22,0.53-0.22s0.389,0.078,0.53,0.22C23.922,1.471,24,1.66,24,1.86s-0.078,0.389-0.22,0.53l-2.25,2.25
		C21.389,4.782,21.2,4.86,21,4.86z"/>
	<path d="M18,4.11c-0.286,0-0.543-0.159-0.671-0.415l-0.75-1.5c-0.185-0.37-0.034-0.821,0.335-1.006
		c0.104-0.052,0.22-0.079,0.335-0.079c0.286,0,0.543,0.159,0.671,0.414l0.75,1.5c0.185,0.37,0.034,0.821-0.335,1.006
		C18.231,4.083,18.115,4.11,18,4.11z"/>
	<path d="M23.25,9.36c-0.115,0-0.231-0.027-0.334-0.079l-1.501-0.75c-0.37-0.185-0.52-0.636-0.335-1.006
		c0.128-0.256,0.385-0.415,0.671-0.415c0.115,0,0.231,0.027,0.334,0.079l1.501,0.75c0.37,0.185,0.52,0.636,0.335,1.006
		C23.793,9.201,23.536,9.36,23.25,9.36z"/>
	<path d="M3.75,13.496c-0.414,0-0.75-0.336-0.75-0.75s0.336-0.75,0.75-0.75h4.5c0.414,0,0.75,0.336,0.75,0.75s-0.336,0.75-0.75,0.75
		H3.75z"/>
	<path d="M0.75,13.496c-0.414,0-0.75-0.336-0.75-0.75s0.336-0.75,0.75-0.75H1.5c0.414,0,0.75,0.336,0.75,0.75s-0.336,0.75-0.75,0.75
		H0.75z"/>
	<path d="M3.75,17.996c-0.414,0-0.75-0.336-0.75-0.75s0.336-0.75,0.75-0.75h3c0.414,0,0.75,0.336,0.75,0.75s-0.336,0.75-0.75,0.75
		H3.75z"/>
	<path d="M0.75,17.996c-0.414,0-0.75-0.336-0.75-0.75s0.336-0.75,0.75-0.75H1.5c0.414,0,0.75,0.336,0.75,0.75s-0.336,0.75-0.75,0.75
		H0.75z"/>
</g>
</svg>
