<?xml version="1.0" encoding="utf-8"?>
<!-- Generator: Adobe Illustrator 22.1.0, SVG Export Plug-In . SVG Version: 6.00 Build 0)  -->
<svg version="1.1" id="Regular" xmlns="http://www.w3.org/2000/svg" xmlns:xlink="http://www.w3.org/1999/xlink" x="0px" y="0px"
	 viewBox="0 0 24 24" style="enable-background:new 0 0 24 24;" xml:space="preserve">
<title>video-game-sling</title>
<g>
	<path d="M9,23.25c-1.654,0-3-1.346-3-3v-7.265c-3.541-1.262-5.995-4.711-6-8.484V3.75c0-1.654,1.346-3,3-3s3,1.346,3,3V4.5
		c0,1.654,1.346,3,3,3s3-1.346,3-3V3.75c0.001-1.653,1.346-2.999,3-3c1.606,0.001,2.908,1.242,2.993,2.838l5.26,13.187
		C23.735,17.324,24,18.023,24,18.75c0,1.654-1.346,3-3,3c-1.179,0-2.242-0.687-2.73-1.758l-4.545-4.457
		c-0.143-0.14-0.223-0.328-0.225-0.528c-0.002-0.2,0.074-0.39,0.215-0.533c0.142-0.145,0.332-0.225,0.535-0.225
		c0.197,0,0.384,0.076,0.525,0.214l3.387,3.322c0.407-1.185,1.54-2.036,2.838-2.036c0.078,0,0.155,0.003,0.233,0.009l-3.552-8.904
		c-0.774,2.823-2.892,5.138-5.681,6.13v7.265C12,21.904,10.654,23.25,9,23.25z M3,2.25c-0.827,0-1.5,0.673-1.5,1.5V4.5
		c0.004,3.335,2.248,6.303,5.456,7.217C7.276,11.808,7.5,12.105,7.5,12.438v7.812c0,0.827,0.673,1.5,1.5,1.5s1.5-0.673,1.5-1.5
		v-7.812c0-0.333,0.224-0.63,0.544-0.721c3.208-0.914,5.451-3.883,5.456-7.218V3.75c0-0.827-0.673-1.5-1.5-1.5
		c-0.826,0-1.499,0.673-1.5,1.5V4.5C13.5,6.981,11.481,9,9,9S4.5,6.981,4.5,4.5V3.75C4.5,2.923,3.827,2.25,3,2.25z M21,17.25
		c-0.827,0-1.5,0.673-1.5,1.5s0.673,1.5,1.5,1.5s1.5-0.673,1.5-1.5S21.827,17.25,21,17.25z"/>
</g>
</svg>
