<?xml version="1.0" encoding="utf-8"?>
<!-- Generator: Adobe Illustrator 22.1.0, SVG Export Plug-In . SVG Version: 6.00 Build 0)  -->
<svg version="1.1" id="Regular" xmlns="http://www.w3.org/2000/svg" xmlns:xlink="http://www.w3.org/1999/xlink" x="0px" y="0px"
	 viewBox="0 0 24 24" style="enable-background:new 0 0 24 24;" xml:space="preserve">
<title>video-game-cat</title>
<g>
	<path d="M12,23.055c-2.763,0-5.903-0.126-8.234-1.062C1.232,20.976,0,19.189,0,16.53c0.014-1.721,0.532-3.376,1.5-4.799V3
		c0-0.4,0.156-0.776,0.439-1.06c0.283-0.284,0.66-0.44,1.06-0.44c0.376,0,0.734,0.139,1.011,0.391l5.396,4.903
		c0.853-0.158,1.705-0.239,2.534-0.239l0.171,0c0.768,0,1.554,0.071,2.34,0.211l6.272-4.367c0.258-0.172,0.547-0.26,0.844-0.26
		c0.827,0,1.5,0.673,1.5,1.5c0,0.02-0.001,0.039-0.002,0.058l-0.55,8.059c0.957,1.417,1.47,3.063,1.484,4.769
		C24,22.265,18.233,23.055,12,23.055z M2.854,12.406c-0.872,1.206-1.341,2.636-1.354,4.13c0,3.611,2.944,5.019,10.5,5.019
		c9.689,0,10.5-2.594,10.5-5.025c-0.012-1.49-0.482-2.919-1.358-4.13c-0.009-0.013-0.023-0.035-0.031-0.05
		c-0.003-0.004-0.015-0.025-0.027-0.047c-0.01-0.02-0.021-0.042-0.03-0.065c-0.01-0.027-0.018-0.048-0.024-0.07
		c-0.007-0.025-0.014-0.052-0.018-0.079c-0.003-0.018-0.006-0.04-0.008-0.062c-0.002-0.024-0.003-0.047-0.003-0.071
		c-0.001-0.018,0-0.038,0.001-0.053l0.564-8.264l-5.192,3.615c0.687,0.227,1.347,0.503,1.97,0.824
		c0.368,0.19,0.512,0.643,0.323,1.01C18.537,9.34,18.281,9.495,18,9.495c-0.119,0-0.238-0.029-0.344-0.084
		c-1.72-0.888-3.642-1.357-5.559-1.357c0,0-0.117,0-0.118,0c-0.888,0-1.778,0.094-2.644,0.278c-0.033,0.007-0.065,0.01-0.098,0.013
		c-0.01,0.001-0.015,0.002-0.025,0.002L9.179,8.349c-0.078,0-0.156-0.013-0.232-0.037C8.943,8.311,8.926,8.305,8.922,8.304
		c-0.08-0.029-0.152-0.07-0.217-0.123C8.693,8.172,8.682,8.163,8.671,8.153L3.001,3l0-0.376l0,9.336
		c0,0.011-0.001,0.024-0.002,0.036c-0.001,0.02-0.003,0.037-0.005,0.055c-0.003,0.027-0.006,0.05-0.011,0.072
		c-0.003,0.013-0.013,0.048-0.017,0.061c-0.01,0.032-0.018,0.056-0.028,0.079c-0.005,0.012-0.02,0.04-0.026,0.051
		c-0.01,0.02-0.022,0.041-0.036,0.061C2.867,12.387,2.861,12.397,2.854,12.406z"/>
	<path d="M12.75,15.555c-0.414,0-0.75-0.336-0.75-0.75v-1.5c0-0.414,0.336-0.75,0.75-0.75s0.75,0.336,0.75,0.75v1.5
		C13.5,15.219,13.164,15.555,12.75,15.555z"/>
	<path d="M17.25,15.555c-0.414,0-0.75-0.336-0.75-0.75v-1.5c0-0.414,0.336-0.75,0.75-0.75S18,12.892,18,13.305v1.5
		C18,15.219,17.664,15.555,17.25,15.555z"/>
	<path d="M15.75,21.555c-1.241,0-2.25-1.009-2.25-2.25v-1.5c0-0.414,0.336-0.75,0.75-0.75h3c0.414,0,0.75,0.336,0.75,0.75v1.5
		C18,20.546,16.991,21.555,15.75,21.555z M15,19.305c0,0.414,0.336,0.75,0.75,0.75s0.75-0.336,0.75-0.75v-0.75H15V19.305z"/>
	<path d="M8.25,17.055c-0.414,0-0.75-0.336-0.75-0.75s0.336-0.75,0.75-0.75h1.5c0.414,0,0.75,0.336,0.75,0.75s-0.336,0.75-0.75,0.75
		H8.25z"/>
	<path d="M20.25,17.055c-0.414,0-0.75-0.336-0.75-0.75s0.336-0.75,0.75-0.75h1.5c0.414,0,0.75,0.336,0.75,0.75
		s-0.336,0.75-0.75,0.75H20.25z"/>
</g>
</svg>
