<?xml version="1.0" encoding="utf-8"?>
<!-- Generator: Adobe Illustrator 22.1.0, SVG Export Plug-In . SVG Version: 6.00 Build 0)  -->
<svg version="1.1" id="Regular" xmlns="http://www.w3.org/2000/svg" xmlns:xlink="http://www.w3.org/1999/xlink" x="0px" y="0px"
	 viewBox="0 0 24 24" style="enable-background:new 0 0 24 24;" xml:space="preserve">
<title>video-game-controller-monitor</title>
<g>
	<path d="M21.75,12C21.336,12,21,11.664,21,11.25v-9c0-0.414-0.336-0.75-0.75-0.75h-4.5C15.336,1.5,15,1.164,15,0.75
		S15.336,0,15.75,0h4.5c1.241,0,2.25,1.009,2.25,2.25v9C22.5,11.664,22.164,12,21.75,12z"/>
	<path d="M2.25,16.5C1.009,16.5,0,15.491,0,14.25v-12C0,1.009,1.009,0,2.25,0h1.5C4.164,0,4.5,0.336,4.5,0.75S4.164,1.5,3.75,1.5
		h-1.5C1.836,1.5,1.5,1.836,1.5,2.25v12C1.5,14.664,1.836,15,2.25,15h3C5.664,15,6,15.336,6,15.75S5.664,16.5,5.25,16.5H2.25z"/>
	<path d="M9.75,24c-1.241,0-2.25-1.009-2.25-2.25v-6c0-1.241,1.009-2.25,2.25-2.25h12c1.241,0,2.25,1.009,2.25,2.25v6
		c0,1.241-1.009,2.25-2.25,2.25H9.75z M9.75,15C9.336,15,9,15.336,9,15.75v6c0,0.414,0.336,0.75,0.75,0.75h12
		c0.414,0,0.75-0.336,0.75-0.75v-6c0-0.414-0.336-0.75-0.75-0.75H9.75z"/>
	<path d="M12,21c-0.414,0-0.75-0.336-0.75-0.75V19.5H10.5c-0.414,0-0.75-0.336-0.75-0.75S10.086,18,10.5,18h0.75v-0.75
		c0-0.414,0.336-0.75,0.75-0.75s0.75,0.336,0.75,0.75V18h0.75c0.414,0,0.75,0.336,0.75,0.75s-0.336,0.75-0.75,0.75h-0.75v0.75
		C12.75,20.664,12.414,21,12,21z"/>
	<path d="M19.875,18.75c-0.044,0-0.088-0.004-0.13-0.011c-0.513-0.06-0.923-0.47-0.983-0.983c-0.007-0.042-0.011-0.086-0.011-0.13
		s0.004-0.088,0.011-0.131c0.06-0.513,0.47-0.923,0.983-0.983c0.042-0.008,0.086-0.011,0.131-0.011s0.088,0.004,0.131,0.011
		c0.513,0.06,0.923,0.47,0.983,0.983C20.996,17.537,21,17.581,21,17.625s-0.004,0.088-0.011,0.131
		c-0.06,0.513-0.47,0.923-0.983,0.983C19.963,18.746,19.919,18.75,19.875,18.75z"/>
	<path d="M13.875,9c-0.044,0-0.088-0.004-0.131-0.011c-0.513-0.06-0.922-0.47-0.982-0.983c-0.008-0.042-0.011-0.086-0.011-0.13
		s0.004-0.088,0.011-0.13c0.06-0.513,0.47-0.923,0.982-0.983c0.043-0.008,0.087-0.011,0.131-0.011s0.088,0.004,0.131,0.011
		c0.513,0.06,0.922,0.47,0.983,0.983C14.996,7.787,15,7.831,15,7.875s-0.004,0.088-0.011,0.13c-0.061,0.513-0.47,0.923-0.983,0.983
		C13.963,8.996,13.919,9,13.875,9z"/>
	<path d="M17.625,9c-0.044,0-0.088-0.004-0.131-0.011c-0.513-0.06-0.922-0.47-0.982-0.983C16.504,7.963,16.5,7.919,16.5,7.875
		s0.004-0.088,0.011-0.13c0.06-0.513,0.47-0.923,0.982-0.983c0.043-0.008,0.087-0.011,0.131-0.011s0.088,0.004,0.131,0.011
		c0.513,0.06,0.922,0.47,0.983,0.983c0.007,0.042,0.011,0.086,0.011,0.13s-0.004,0.088-0.011,0.13
		c-0.061,0.513-0.47,0.923-0.983,0.983C17.713,8.996,17.669,9,17.625,9z"/>
	<path d="M18.375,21c-0.044,0-0.088-0.004-0.13-0.011c-0.513-0.06-0.923-0.47-0.983-0.983c-0.007-0.042-0.011-0.086-0.011-0.13
		s0.004-0.088,0.011-0.131c0.06-0.513,0.47-0.923,0.983-0.983c0.042-0.008,0.086-0.011,0.131-0.011s0.088,0.004,0.131,0.011
		c0.513,0.06,0.923,0.47,0.983,0.983c0.008,0.042,0.011,0.086,0.011,0.131s-0.004,0.088-0.011,0.131
		c-0.06,0.513-0.47,0.923-0.983,0.983C18.463,20.996,18.419,21,18.375,21z"/>
	<path d="M8.258,12.001c-0.297,0-0.597-0.03-0.891-0.089c-1.178-0.236-2.195-0.916-2.862-1.917c-0.667-1-0.904-2.2-0.668-3.379
		c0.236-1.179,0.916-2.195,1.917-2.862c0.74-0.494,1.602-0.754,2.49-0.754c1.513,0,2.915,0.749,3.75,2.003
		c0.111,0.167,0.151,0.367,0.111,0.563c-0.039,0.196-0.153,0.366-0.319,0.477L9.602,7.5l2.184,1.456
		c0.344,0.229,0.437,0.696,0.208,1.04c-0.331,0.497-0.751,0.917-1.248,1.248C10.003,11.74,9.143,12.001,8.258,12.001z M8.245,4.501
		c-0.592,0-1.166,0.174-1.659,0.503C5.92,5.448,5.467,6.125,5.309,6.912c-0.157,0.787,0,1.587,0.444,2.252
		c0.445,0.667,1.122,1.121,1.908,1.278c0.197,0.039,0.397,0.059,0.595,0.059c0.589,0,1.161-0.175,1.657-0.505
		c0.119-0.079,0.232-0.167,0.337-0.261L7.834,8.124C7.625,7.985,7.5,7.751,7.5,7.5s0.125-0.485,0.334-0.624l2.417-1.611
		C9.705,4.775,8.994,4.501,8.245,4.501z"/>
</g>
</svg>
