<?xml version="1.0" encoding="utf-8"?>
<!-- Generator: Adobe Illustrator 22.1.0, SVG Export Plug-In . SVG Version: 6.00 Build 0)  -->
<svg version="1.1" id="Regular" xmlns="http://www.w3.org/2000/svg" xmlns:xlink="http://www.w3.org/1999/xlink" x="0px" y="0px"
	 viewBox="0 0 24 24" style="enable-background:new 0 0 24 24;" xml:space="preserve">
<title>video-game-boxing</title>
<g>
	<path d="M8.932,24c-0.965,0-1.75-0.785-1.75-1.75V19.5c-1.66-0.008-3.133-1.124-3.589-2.72l-1.694-5.93
		C1.521,9.529,1.894,8.11,2.873,7.146C3.015,7.007,3.202,6.931,3.4,6.931c0.203,0,0.392,0.079,0.534,0.224
		C4.224,7.45,4.22,7.926,3.926,8.216c-0.588,0.578-0.812,1.43-0.585,2.222l1.694,5.93C5.309,17.329,6.199,18,7.198,18h11.234
		c1.241,0,2.25-1.009,2.25-2.25V5.25c0-2.068-1.682-3.75-3.75-3.75h-6.511c-2.068,0-3.75,1.682-3.75,3.75
		c0,0.247,0.024,0.494,0.073,0.736l1.174,5.867c0.039,0.196,0,0.396-0.111,0.563s-0.281,0.28-0.477,0.319
		c-0.05,0.01-0.099,0.015-0.147,0.015c-0.356,0-0.666-0.254-0.735-0.603L5.272,6.28C5.204,5.942,5.17,5.595,5.17,5.249
		C5.17,2.355,7.525,0,10.42,0h6.511c2.895,0,5.25,2.355,5.25,5.25v10.5c0,1.799-1.268,3.323-3,3.673v2.827
		c0,0.965-0.785,1.75-1.75,1.75H8.932z M8.682,22.25c0,0.138,0.112,0.25,0.25,0.25h8.5c0.138,0,0.25-0.112,0.25-0.25V19.5h-9V22.25z
		"/>
</g>
</svg>
