<?xml version="1.0" encoding="utf-8"?>
<!-- Generator: Adobe Illustrator 22.1.0, SVG Export Plug-In . SVG Version: 6.00 Build 0)  -->
<svg version="1.1" id="Regular" xmlns="http://www.w3.org/2000/svg" xmlns:xlink="http://www.w3.org/1999/xlink" x="0px" y="0px"
	 viewBox="0 0 24 24" style="enable-background:new 0 0 24 24;" xml:space="preserve">
<title>video-game-mario-flower-2</title>
<g>
	<path d="M10.35,24c-0.099,0-0.196-0.019-0.287-0.057c-0.186-0.077-0.33-0.222-0.406-0.407c-0.076-0.185-0.076-0.389,0.001-0.574
		L12.975,15h-1.124c-4.135,0-7.5-3.365-7.5-7.5S7.716,0,11.851,0h4.5c4.135,0,7.5,3.365,7.5,7.5s-3.365,7.5-7.5,7.5H14.6
		l-3.558,8.539C10.926,23.819,10.654,24,10.35,24z M11.851,1.5c-3.308,0-6,2.692-6,6s2.692,6,6,6h4.5c3.308,0,6-2.692,6-6
		s-2.692-6-6-6H11.851z"/>
	<path d="M11.851,12c-2.481,0-4.5-2.019-4.5-4.5S9.37,3,11.851,3h4.5c2.481,0,4.5,2.019,4.5,4.5s-2.019,4.5-4.5,4.5H11.851z
		 M11.851,4.5c-1.654,0-3,1.346-3,3s1.346,3,3,3h4.5c1.654,0,3-1.346,3-3s-1.346-3-3-3H11.851z"/>
	<path d="M17.1,9c-0.414,0-0.75-0.336-0.75-0.75v-1.5C16.35,6.336,16.687,6,17.1,6s0.75,0.336,0.75,0.75v1.5
		C17.85,8.664,17.514,9,17.1,9z"/>
	<path d="M11.1,9c-0.414,0-0.75-0.336-0.75-0.75v-1.5C10.35,6.336,10.687,6,11.1,6s0.75,0.336,0.75,0.75v1.5
		C11.85,8.664,11.514,9,11.1,9z"/>
	<path d="M5.201,24c-1.261,0-2.427-0.624-3.124-1.67l-1.332-2c-0.457-0.691-0.268-1.624,0.421-2.08C1.413,18.086,1.702,18,2.002,18
		h1.493c1.261,0,2.427,0.624,3.124,1.67l2.107,3.165c0.154,0.23,0.168,0.525,0.037,0.77C8.632,23.848,8.378,24,8.101,24H5.201z
		 M1.994,19.5l1.332,1.998C3.744,22.125,4.444,22.5,5.198,22.5h1.503L5.37,20.501C4.952,19.875,4.252,19.5,3.498,19.5h-1.5
		C1.995,19.5,1.994,19.5,1.994,19.5z"/>
	<path d="M14.101,24c-0.277,0-0.53-0.151-0.661-0.395c-0.131-0.245-0.117-0.539,0.036-0.77l2.1-3.164
		C16.274,18.625,17.441,18,18.698,18h1.504c0.316,0.008,0.591,0.092,0.829,0.249c0.334,0.222,0.562,0.56,0.642,0.952
		c0.08,0.392,0.002,0.792-0.219,1.127l-1.333,2.002c-0.697,1.046-1.864,1.67-3.12,1.67H14.101z M16.995,22.5
		c0.758,0,1.458-0.375,1.876-1.002l1.332-2L18.698,19.5c-0.754,0-1.455,0.375-1.873,1.002L15.499,22.5H16.995z"/>
</g>
</svg>
