<?xml version="1.0" encoding="utf-8"?>
<!-- Generator: Adobe Illustrator 22.1.0, SVG Export Plug-In . SVG Version: 6.00 Build 0)  -->
<svg version="1.1" id="Regular" xmlns="http://www.w3.org/2000/svg" xmlns:xlink="http://www.w3.org/1999/xlink" x="0px" y="0px"
	 viewBox="0 0 24 24" style="enable-background:new 0 0 24 24;" xml:space="preserve">
<title>video-game-mario-mushroom-1</title>
<g>
	<path d="M10.015,24.009c-2.078,0-3.839-1.624-4.011-3.697c-0.002-0.023-0.002-0.043-0.002-0.062v-0.184
		c-2.542-0.626-4.236-1.777-5.174-3.513c-0.627-1.105-0.914-2.366-0.826-3.639c0.001-0.414,0.03-0.855,0.086-1.312l0.017-0.128
		c0.017-0.13,0.036-0.258,0.057-0.385c0.188-1.176,0.544-2.321,1.056-3.4c0.008-0.018,0.022-0.04,0.036-0.06
		C3.418,2.993,7.633,0,12.001,0c4.363,0,8.575,2.988,10.741,7.615c0.014,0.019,0.028,0.041,0.041,0.068
		c0.418,0.88,0.735,1.827,0.943,2.815c0.022,0.102,0.044,0.207,0.064,0.312l0.028,0.156c0.118,0.663,0.179,1.317,0.181,1.939
		c0.092,1.266-0.194,2.532-0.828,3.65c-0.933,1.732-2.628,2.884-5.171,3.51v0.184c0,0.019-0.001,0.039-0.002,0.058
		c-0.172,2.077-1.936,3.7-4.016,3.701c-0.086,0-0.171-0.003-0.258-0.008h-3.449C10.189,24.006,10.102,24.009,10.015,24.009z
		 M7.501,20.217c0.122,1.286,1.224,2.292,2.517,2.292c0.06,0,0.12-0.002,0.18-0.006c0.015-0.001,0.034-0.002,0.053-0.002h3.5
		c0.019,0,0.039,0.001,0.058,0.002c0.054,0.004,0.112,0.006,0.17,0.006c1.296,0,2.4-1.005,2.522-2.291v-2.203
		c-0.032-0.388-0.368-0.714-0.77-0.745c-0.009-0.001-0.042-0.004-0.051-0.006l-0.908-0.131c-0.915-0.13-1.847-0.197-2.771-0.197
		c-0.924,0-1.856,0.066-2.771,0.197l-0.91,0.13C7.862,17.3,7.527,17.63,7.5,18.049L7.501,20.217z M12.002,15.436
		c0.994,0,1.997,0.071,2.982,0.212l0.9,0.13c1.121,0.094,2.04,1.029,2.115,2.174l0,0.566c0.616-0.171,1.167-0.38,1.647-0.622
		c-0.623-1.28-0.932-2.692-0.896-4.107c0-2.591,0.947-4.931,2.438-6.077C19.282,4.095,15.466,1.5,12.001,1.5
		c-3.466,0-7.282,2.595-9.188,6.212c1.49,1.144,2.437,3.485,2.438,6.09c0.035,1.405-0.274,2.815-0.896,4.093
		c0.479,0.242,1.03,0.45,1.646,0.622V18c0.077-1.191,1.002-2.137,2.154-2.227l0.862-0.125
		C10.004,15.507,11.008,15.436,12.002,15.436z M21.789,9.177c-0.934,0.956-1.538,2.737-1.538,4.63
		c-0.028,1.119,0.194,2.225,0.646,3.231c0.375-0.343,0.694-0.742,0.953-1.191c0.437-0.8,0.651-1.754,0.652-2.908
		C22.485,11.67,22.24,10.379,21.789,9.177z M2.212,9.178c-0.455,1.203-0.694,2.468-0.711,3.767c0,1.136,0.211,2.082,0.643,2.886
		c0.257,0.453,0.58,0.859,0.961,1.208c0.451-1.006,0.674-2.107,0.646-3.212C3.751,11.914,3.147,10.132,2.212,9.178z"/>
	<path d="M12.001,13.5c-2.481,0-4.5-2.019-4.5-4.5s2.019-4.5,4.5-4.5c2.481,0,4.5,2.019,4.5,4.5S14.482,13.5,12.001,13.5z M12.001,6
		c-1.654,0-3,1.346-3,3s1.346,3,3,3c1.654,0,3-1.346,3-3S13.656,6,12.001,6z"/>
	<path d="M9.751,20.25c-0.414,0-0.75-0.336-0.75-0.75v-0.75c0-0.414,0.336-0.75,0.75-0.75s0.75,0.336,0.75,0.75v0.75
		C10.501,19.914,10.165,20.25,9.751,20.25z"/>
	<path d="M14.251,20.25c-0.414,0-0.75-0.336-0.75-0.75v-0.75c0-0.414,0.336-0.75,0.75-0.75s0.75,0.336,0.75,0.75v0.75
		C15.001,19.914,14.665,20.25,14.251,20.25z"/>
</g>
</svg>
