<?xml version="1.0" encoding="utf-8"?>
<!-- Generator: Adobe Illustrator 22.1.0, SVG Export Plug-In . SVG Version: 6.00 Build 0)  -->
<svg version="1.1" id="Regular" xmlns="http://www.w3.org/2000/svg" xmlns:xlink="http://www.w3.org/1999/xlink" x="0px" y="0px"
	 viewBox="0 0 24 24" style="enable-background:new 0 0 24 24;" xml:space="preserve">
<title>video-game-ping-pong</title>
<g>
	<path d="M14.625,10.5c-0.044,0-0.088-0.004-0.131-0.011c-0.513-0.06-0.922-0.47-0.982-0.983C13.504,9.463,13.5,9.419,13.5,9.375
		s0.004-0.088,0.011-0.13c0.06-0.513,0.47-0.923,0.982-0.983c0.043-0.008,0.087-0.011,0.131-0.011s0.088,0.004,0.131,0.011
		c0.513,0.06,0.922,0.47,0.983,0.983c0.007,0.042,0.011,0.086,0.011,0.13s-0.004,0.088-0.011,0.13
		c-0.061,0.513-0.47,0.923-0.983,0.983C14.713,10.496,14.669,10.5,14.625,10.5z"/>
	<path d="M3.75,22.5c-1.241,0-2.25-1.009-2.25-2.25V9.75C1.5,9.336,1.836,9,2.25,9S3,9.336,3,9.75v10.5C3,20.664,3.336,21,3.75,21
		h13.5c0.414,0,0.75,0.336,0.75,0.75s-0.336,0.75-0.75,0.75H3.75z"/>
	<path d="M21.75,15C21.336,15,21,14.664,21,14.25V3.75C21,3.336,20.664,3,20.25,3H6.75C6.336,3,6,2.664,6,2.25S6.336,1.5,6.75,1.5
		h13.5c1.241,0,2.25,1.009,2.25,2.25v10.5C22.5,14.664,22.164,15,21.75,15z"/>
	<path d="M18.75,11.25c-0.414,0-0.75-0.336-0.75-0.75V5.25c0-0.414,0.336-0.75,0.75-0.75s0.75,0.336,0.75,0.75v5.25
		C19.5,10.914,19.164,11.25,18.75,11.25z"/>
	<path d="M5.25,19.5c-0.414,0-0.75-0.336-0.75-0.75V13.5c0-0.414,0.336-0.75,0.75-0.75S6,13.086,6,13.5v5.25
		C6,19.164,5.664,19.5,5.25,19.5z"/>
	<path d="M0.75,7.5c-0.286,0-0.552-0.167-0.676-0.425c-0.124-0.259-0.089-0.57,0.09-0.794l2.531-3.164C2.892,2.872,3,2.564,3,2.25
		C3,1.837,2.664,1.5,2.25,1.5S1.5,1.836,1.5,2.25S1.164,3,0.75,3S0,2.664,0,2.25C0,1.009,1.009,0,2.25,0S4.5,1.009,4.5,2.25
		c0,0.654-0.225,1.295-0.634,1.805L2.31,6h1.44C4.164,6,4.5,6.336,4.5,6.75S4.164,7.5,3.75,7.5H0.75z"/>
	<path d="M21.75,24c-1.241,0-2.25-1.009-2.25-2.25v-3c0-1.241,1.009-2.25,2.25-2.25S24,17.509,24,18.75v3
		C24,22.991,22.991,24,21.75,24z M21.75,18C21.336,18,21,18.336,21,18.75v3c0,0.414,0.336,0.75,0.75,0.75s0.75-0.336,0.75-0.75v-3
		C22.5,18.336,22.164,18,21.75,18z"/>
</g>
</svg>
