<?xml version="1.0" encoding="utf-8"?>
<!-- Generator: Adobe Illustrator 22.1.0, SVG Export Plug-In . SVG Version: 6.00 Build 0)  -->
<svg version="1.1" id="Regular" xmlns="http://www.w3.org/2000/svg" xmlns:xlink="http://www.w3.org/1999/xlink" x="0px" y="0px"
	 viewBox="0 0 24 24" style="enable-background:new 0 0 24 24;" xml:space="preserve">
<title>video-game-magic-wand</title>
<g>
	<path d="M23.25,24c-0.2,0-0.389-0.078-0.53-0.22l-8.539-8.539l-1.045,2.921c-0.089,0.285-0.308,0.543-0.594,0.692
		c-0.175,0.091-0.37,0.138-0.565,0.138c-0.125,0-0.25-0.019-0.37-0.057c-0.28-0.089-0.518-0.274-0.672-0.521l-1.839-3.325
		c0,0-3.905,0.107-3.908,0.107c-0.653,0-1.194-0.53-1.207-1.181c-0.006-0.31,0.106-0.606,0.314-0.835l2.169-2.622L5.327,6.877
		C5.236,6.536,5.279,6.196,5.445,5.905c0.166-0.291,0.436-0.499,0.76-0.586C6.31,5.291,6.419,5.277,6.527,5.277
		s0.217,0.014,0.321,0.042c0.005,0.001,3.709,1.145,3.709,1.145l2.649-2.192c0.2-0.184,0.482-0.292,0.779-0.292
		c0.34,0,0.666,0.143,0.894,0.394c0.209,0.229,0.321,0.525,0.315,0.834l-0.107,3.888l3.292,1.818c0.31,0.192,0.505,0.46,0.58,0.785
		c0.073,0.32,0.018,0.649-0.156,0.927c-0.154,0.246-0.391,0.431-0.669,0.519l-2.894,1.036l8.539,8.539
		c0.142,0.142,0.22,0.33,0.22,0.53s-0.078,0.389-0.22,0.53S23.45,24,23.25,24z M9.531,13.577c0.273,0,0.524,0.148,0.656,0.387
		l1.734,3.138l1.245-3.481c0.005-0.015,0.013-0.032,0.021-0.048c0.004-0.009,0.008-0.016,0.011-0.022
		c0.027-0.06,0.066-0.121,0.114-0.175c0.009-0.012,0.019-0.023,0.03-0.033c0.011-0.011,0.024-0.022,0.037-0.033
		c0.052-0.045,0.112-0.083,0.178-0.114c0.007-0.004,0.049-0.023,0.057-0.026l3.488-1.248l-3.14-1.733
		c-0.246-0.136-0.395-0.396-0.387-0.677l0.101-3.682l-2.475,2.049c-0.134,0.111-0.304,0.172-0.478,0.172
		c-0.075,0-0.15-0.011-0.222-0.034L6.906,6.906l1.111,3.597c0.075,0.242,0.023,0.504-0.139,0.699l-2.05,2.477
		C5.828,13.679,9.528,13.577,9.531,13.577z"/>
	<path d="M19.5,4.5c-0.414,0-0.75-0.336-0.75-0.75V3H18c-0.414,0-0.75-0.336-0.75-0.75S17.586,1.5,18,1.5h0.75V0.75
		C18.75,0.336,19.086,0,19.5,0s0.75,0.336,0.75,0.75V1.5H21c0.414,0,0.75,0.336,0.75,0.75S21.414,3,21,3h-0.75v0.75
		C20.25,4.164,19.914,4.5,19.5,4.5z"/>
	<path d="M3.75,22.5C3.336,22.5,3,22.164,3,21.75V21H2.25c-0.414,0-0.75-0.336-0.75-0.75s0.336-0.75,0.75-0.75H3v-0.75
		C3,18.336,3.336,18,3.75,18s0.75,0.336,0.75,0.75v0.75h0.75C5.664,19.5,6,19.836,6,20.25S5.664,21,5.25,21H4.5v0.75
		C4.5,22.164,4.164,22.5,3.75,22.5z"/>
	<path d="M9,3.75C8.586,3.75,8.25,3.414,8.25,3V0.75C8.25,0.336,8.586,0,9,0s0.75,0.336,0.75,0.75V3C9.75,3.414,9.414,3.75,9,3.75z"
		/>
	<path d="M0.75,10.5C0.336,10.5,0,10.164,0,9.75S0.336,9,0.75,9H3c0.414,0,0.75,0.336,0.75,0.75S3.414,10.5,3,10.5H0.75z"/>
</g>
</svg>
