<?xml version="1.0" encoding="utf-8"?>
<!-- Generator: Adobe Illustrator 22.1.0, SVG Export Plug-In . SVG Version: 6.00 Build 0)  -->
<svg version="1.1" id="Regular" xmlns="http://www.w3.org/2000/svg" xmlns:xlink="http://www.w3.org/1999/xlink" x="0px" y="0px"
	 viewBox="0 0 24 24" style="enable-background:new 0 0 24 24;" xml:space="preserve">
<title>video-game-logo-heart-1</title>
<g>
	<path d="M12,20.501c-0.207,0-0.413-0.053-0.596-0.154L0.641,14.48c-0.398-0.219-0.645-0.635-0.646-1.088V7.836
		c0.001-0.451,0.245-0.865,0.638-1.084c0.003-0.002,5.149-2.806,5.149-2.806c0.181-0.099,0.386-0.152,0.593-0.152
		c0.207,0,0.413,0.053,0.595,0.153L12,6.691l5.037-2.744c0.127-0.07,0.269-0.114,0.433-0.135c0.053-0.012,0.104-0.017,0.155-0.017
		c0.013,0,0.046,0.003,0.048,0.003c0.032,0.002,0.063,0.006,0.092,0.011c0.17,0.019,0.325,0.065,0.46,0.14l5.134,2.799
		c0.399,0.219,0.646,0.635,0.646,1.088v5.555c0,0.453-0.247,0.87-0.644,1.088l-10.768,5.87C12.411,20.448,12.206,20.501,12,20.501z
		 M12,18.964l10.505-5.727v-4.43l-3.798,2.071c-0.181,0.099-0.386,0.151-0.593,0.151c-0.685-0.001-1.24-0.557-1.239-1.24V5.744
		l-4.282,2.333C12.41,8.176,12.205,8.228,12,8.228c-0.205,0-0.409-0.052-0.591-0.15L6.375,5.332l-4.88,2.659v5.246L12,18.964z
		 M18.375,9.35l3.312-1.806l-3.312-1.805V9.35z"/>
</g>
</svg>
