<?xml version="1.0" encoding="utf-8"?>
<!-- Generator: Adobe Illustrator 22.1.0, SVG Export Plug-In . SVG Version: 6.00 Build 0)  -->
<svg version="1.1" id="Regular" xmlns="http://www.w3.org/2000/svg" xmlns:xlink="http://www.w3.org/1999/xlink" x="0px" y="0px"
	 viewBox="0 0 24 24" style="enable-background:new 0 0 24 24;" xml:space="preserve">
<title>video-game-logo-message</title>
<g>
	<path d="M13.5,20.17c-0.099,0-0.196-0.019-0.288-0.057c-0.281-0.116-0.462-0.388-0.462-0.693v-2.369l-7.219-1.55
		C4.941,15.404,4.5,14.876,4.5,14.25V5.775c0-0.071,0.006-0.141,0.017-0.21C4.573,5.23,4.756,4.936,5.033,4.738
		C5.251,4.582,5.507,4.5,5.774,4.5c0.069,0,0.14,0.006,0.209,0.017l12.473,2.454c0.6,0.099,1.044,0.627,1.044,1.254V16.7
		c0,0.069-0.006,0.138-0.017,0.206c-0.103,0.621-0.631,1.07-1.256,1.07l0,0c-0.071,0-0.142-0.006-0.212-0.018l-1.708-0.284
		L14.03,19.95C13.889,20.092,13.7,20.17,13.5,20.17z M13.657,15.712c0.344,0.074,0.593,0.382,0.593,0.733v1.164l1.27-1.27
		c0.141-0.142,0.33-0.22,0.53-0.22c0.041,0,0.082,0.003,0.123,0.01L18,16.435V8.41L6.002,6.049L6,14.069L13.657,15.712z"/>
	<path d="M1.75,24C0.785,24,0,23.215,0,22.25V1.75C0,0.785,0.785,0,1.75,0h20.5C23.215,0,24,0.785,24,1.75v20.5
		c0,0.965-0.785,1.75-1.75,1.75H1.75z M1.75,1.5C1.612,1.5,1.5,1.612,1.5,1.75v20.5c0,0.138,0.112,0.25,0.25,0.25h20.5
		c0.138,0,0.25-0.112,0.25-0.25V1.75c0-0.138-0.112-0.25-0.25-0.25H1.75z"/>
</g>
</svg>
