<?xml version="1.0" encoding="utf-8"?>
<!-- Generator: Adobe Illustrator 22.1.0, SVG Export Plug-In . SVG Version: 6.00 Build 0)  -->
<svg version="1.1" id="Regular" xmlns="http://www.w3.org/2000/svg" xmlns:xlink="http://www.w3.org/1999/xlink" x="0px" y="0px"
	 viewBox="0 0 24 24" style="enable-background:new 0 0 24 24;" xml:space="preserve">
<title>video-game-logo-l</title>
<g>
	<path d="M5.676,24c-0.332,0-0.643-0.129-0.877-0.364c-0.234-0.234-0.362-0.545-0.362-0.876c0-0.331,0.13-0.642,0.364-0.876
		l0.717-0.711c-0.894-0.68-1.66-1.496-2.282-2.428C0.236,14.251,1.352,8.101,5.704,4.936V3.51L4.313,2.115
		C4.079,1.881,3.95,1.569,3.951,1.238C3.951,0.555,4.507,0,5.19,0h5.667c0.683,0,1.239,0.556,1.239,1.239v1.773
		c2.315,0.1,4.528,0.991,6.269,2.531c2.025,1.792,3.231,4.265,3.396,6.965c0.131,2.149-0.428,4.281-1.582,6.079h0.851
		c0.301,0.001,0.59,0.11,0.815,0.307c0.249,0.217,0.398,0.52,0.42,0.85c0.022,0.33-0.086,0.649-0.304,0.898l-2.568,2.935
		c-0.235,0.268-0.574,0.423-0.931,0.423C18.462,24,5.676,24,5.676,24z M18.342,22.5l2.112-2.413h-9.108
		c-0.414,0-0.75-0.336-0.75-0.75V1.5H5.818l1.167,1.17C7.126,2.812,7.204,3,7.204,3.2v18.1c0,0.198-0.081,0.393-0.222,0.532
		L6.309,22.5H18.342z M5.704,6.885c-2.982,2.848-3.55,7.538-1.222,11.027c0.353,0.529,0.762,1.015,1.222,1.452V6.885z
		 M18.327,18.587c1.384-1.687,2.071-3.806,1.938-5.988c-0.14-2.299-1.168-4.406-2.893-5.933c-1.466-1.297-3.326-2.054-5.275-2.153
		v1.503c3.138,0.192,5.781,2.408,6.498,5.499c0.618,2.662-0.32,5.369-2.361,7.072H18.327z M13.002,18.587
		c2.973-0.734,4.824-3.745,4.131-6.733c-0.559-2.409-2.601-4.146-5.037-4.335v11.067H13.002z"/>
</g>
</svg>
