<?xml version="1.0" encoding="utf-8"?>
<!-- Generator: Adobe Illustrator 22.1.0, SVG Export Plug-In . SVG Version: 6.00 Build 0)  -->
<svg version="1.1" id="Layer_1" xmlns="http://www.w3.org/2000/svg" xmlns:xlink="http://www.w3.org/1999/xlink" x="0px" y="0px"
	 viewBox="0 0 24 24" style="enable-background:new 0 0 24 24;" xml:space="preserve">
<title>vintage-car-2</title>
<g>
	<path d="M21.257,19.738c-0.96,0-1.808-0.615-2.121-1.5H4.547c-0.314,0.885-1.162,1.5-2.121,1.5c-1.241,0-2.25-1.009-2.25-2.25
		s1.009-2.25,2.25-2.25c0.96,0,1.808,0.615,2.121,1.5h1.727c-0.356-1.81-1.974-3.175-3.853-3.175c-0.479,0-0.946,0.086-1.391,0.254
		c-0.085,0.032-0.175,0.049-0.266,0.049c-0.31,0-0.591-0.195-0.701-0.485c-0.071-0.187-0.065-0.391,0.018-0.574
		c0.082-0.183,0.231-0.322,0.418-0.393c0.615-0.233,1.261-0.352,1.919-0.352c0.004,0,0.008,0,0.012,0L4.614,6.07
		c0.392-1.084,1.431-1.812,2.585-1.812h3.722c1.296,0,2.428,0.921,2.692,2.189l0.545,2.615h6.349V8.174l-0.974-0.775
		c-0.157-0.125-0.256-0.303-0.278-0.502c-0.023-0.199,0.033-0.395,0.158-0.552C19.556,6.165,19.77,6.062,20,6.062
		c0.169,0,0.335,0.058,0.467,0.163l1.257,1c0.18,0.143,0.283,0.357,0.283,0.587v4.732h1.243c0.414,0,0.75,0.336,0.75,0.75
		s-0.336,0.75-0.75,0.75h-1.243v1.323c0.885,0.314,1.5,1.162,1.5,2.121C23.507,18.729,22.497,19.738,21.257,19.738z M21.257,16.738
		c-0.414,0-0.75,0.336-0.75,0.75s0.336,0.75,0.75,0.75s0.75-0.336,0.75-0.75S21.67,16.738,21.257,16.738z M2.425,16.738
		c-0.414,0-0.75,0.336-0.75,0.75s0.336,0.75,0.75,0.75s0.75-0.336,0.75-0.75S2.839,16.738,2.425,16.738z M19.135,16.738
		c0.226-0.642,0.73-1.146,1.372-1.372v-1.323h-1.801l-2.315,2.694H19.135z M14.412,16.738l3.38-3.933
		c0.143-0.166,0.35-0.261,0.569-0.261h2.145v-1.982h-6.959c-0.008,0-0.015,0-0.024-0.001c-0.009,0-0.018,0.001-0.024,0.001H4.573
		l-0.627,1.72c2.031,0.597,3.55,2.353,3.845,4.456H14.412z M12.625,9.062l-0.481-2.309c-0.12-0.577-0.635-0.995-1.224-0.995H7.199
		c-0.524,0-0.997,0.331-1.175,0.824L5.12,9.062H12.625z"/>
</g>
</svg>
