<?xml version="1.0" encoding="utf-8"?>
<!-- Generator: Adobe Illustrator 22.1.0, SVG Export Plug-In . SVG Version: 6.00 Build 0)  -->
<svg version="1.1" id="Layer_1" xmlns="http://www.w3.org/2000/svg" xmlns:xlink="http://www.w3.org/1999/xlink" x="0px" y="0px"
	 viewBox="0 0 24 24" style="enable-background:new 0 0 24 24;" xml:space="preserve">
<title>vintage-car-1</title>
<g>
	<path d="M3.75,21.75C1.682,21.75,0,20.068,0,18s1.682-3.75,3.75-3.75S7.5,15.932,7.5,18S5.818,21.75,3.75,21.75z M3.75,15.75
		c-1.241,0-2.25,1.009-2.25,2.25s1.009,2.25,2.25,2.25S6,19.241,6,18S4.991,15.75,3.75,15.75z"/>
	<path d="M20.25,12.75c-0.414,0-0.75-0.336-0.75-0.75v-0.75c0-0.414-0.336-0.75-0.75-0.75H3V12c0,0.414-0.336,0.75-0.75,0.75
		S1.5,12.414,1.5,12V4.5c0-1.241,1.009-2.25,2.25-2.25h10.5c0.013,0,0.032,0.001,0.048,0.003c0.027,0.002,0.052,0.005,0.078,0.009
		c0.022,0.004,0.045,0.009,0.07,0.016c0.017,0.003,0.027,0.006,0.043,0.012l2.248,0.749c0.19,0.063,0.344,0.197,0.434,0.376
		c0.089,0.179,0.104,0.382,0.041,0.572C17.11,4.294,16.823,4.5,16.5,4.5c-0.081,0-0.161-0.013-0.238-0.039L15,4.041V9h3.75
		c0.259,0,0.511,0.044,0.75,0.129V7.5c0-0.414,0.336-0.75,0.75-0.75S21,7.086,21,7.5V12C21,12.414,20.664,12.75,20.25,12.75z
		 M13.5,9V3.75H9V9H13.5z M7.5,9V3.75H3.75C3.336,3.75,3,4.086,3,4.5V9H7.5z"/>
	<path d="M20.25,21.75c-2.068,0-3.75-1.682-3.75-3.75s1.682-3.75,3.75-3.75S24,15.932,24,18S22.318,21.75,20.25,21.75z M20.25,15.75
		C19.009,15.75,18,16.759,18,18s1.009,2.25,2.25,2.25S22.5,19.241,22.5,18S21.491,15.75,20.25,15.75z"/>
	<path d="M9,17.25c-0.414,0-0.75-0.336-0.75-0.75S8.586,15.75,9,15.75h6c0.414,0,0.75,0.336,0.75,0.75s-0.336,0.75-0.75,0.75H9z"/>
	<path d="M9,13.5c-0.414,0-0.75-0.336-0.75-0.75S8.586,12,9,12h1.5c0.414,0,0.75,0.336,0.75,0.75s-0.336,0.75-0.75,0.75H9z"/>
</g>
</svg>
