<?xml version="1.0" encoding="utf-8"?>
<!-- Generator: Adobe Illustrator 22.1.0, SVG Export Plug-In . SVG Version: 6.00 Build 0)  -->
<svg version="1.1" id="Layer_1" xmlns="http://www.w3.org/2000/svg" xmlns:xlink="http://www.w3.org/1999/xlink" x="0px" y="0px"
	 viewBox="0 0 24 24" style="enable-background:new 0 0 24 24;" xml:space="preserve">
<title>vintage-car-4</title>
<g>
	<path d="M18.75,17.75c-0.96,0-1.808-0.615-2.121-1.5H8.871c-0.314,0.885-1.162,1.5-2.121,1.5s-1.808-0.615-2.121-1.5H2.25
		C1.009,16.25,0,15.241,0,14c0-0.875,0.512-1.661,1.283-2.029L0.039,8.237c-0.076-0.228-0.038-0.481,0.103-0.676
		C0.282,7.366,0.51,7.25,0.75,7.25H4.5c0.251,0,0.485,0.125,0.624,0.334L6.401,9.5h0.003c2.043-2.385,5.003-3.749,8.148-3.75H16.5
		c0.229,0,0.443,0.103,0.586,0.282L19.86,9.5h1.89c1.241,0,2.25,1.009,2.25,2.25V14c0,1.241-1.009,2.25-2.25,2.25h-0.879
		C20.558,17.135,19.71,17.75,18.75,17.75z M18.75,14.75c-0.414,0-0.75,0.336-0.75,0.75s0.336,0.75,0.75,0.75s0.75-0.336,0.75-0.75
		S19.164,14.75,18.75,14.75z M6.75,14.75C6.336,14.75,6,15.086,6,15.5s0.336,0.75,0.75,0.75S7.5,15.914,7.5,15.5
		S7.164,14.75,6.75,14.75z M21.75,14.75c0.414,0,0.75-0.336,0.75-0.75v-2.25c0-0.414-0.336-0.75-0.75-0.75H6
		c-0.251,0-0.485-0.125-0.624-0.334L4.099,8.75H1.791l1,3H4.5c0.414,0,0.75,0.336,0.75,0.75s-0.336,0.75-0.75,0.75H2.25
		c-0.414,0-0.75,0.336-0.75,0.75s0.336,0.75,0.75,0.75h2.379c0.314-0.885,1.162-1.5,2.121-1.5s1.808,0.615,2.121,1.5h7.757
		c0.314-0.885,1.162-1.5,2.121-1.5s1.808,0.615,2.121,1.5H21.75z M17.94,9.5l-1.8-2.25h-1.588c-2.254,0.001-4.367,0.794-6.04,2.25
		H17.94z"/>
</g>
</svg>
