<?xml version="1.0" encoding="utf-8"?>
<!-- Generator: Adobe Illustrator 22.1.0, SVG Export Plug-In . SVG Version: 6.00 Build 0)  -->
<svg version="1.1" id="Layer_1" xmlns="http://www.w3.org/2000/svg" xmlns:xlink="http://www.w3.org/1999/xlink" x="0px" y="0px"
	 viewBox="0 0 24 24" style="enable-background:new 0 0 24 24;" xml:space="preserve">
<title>vintage-car-5</title>
<g>
	<path d="M17.25,18c-0.96,0-1.808-0.615-2.121-1.5H8.871C8.558,17.385,7.71,18,6.75,18c-1.061,0-1.972-0.747-2.196-1.767
		c-1.03-0.551-1.842-0.866-2.442-1.099C0.932,14.676,0,14.314,0,12.908c0-0.86,0.516-1.622,1.315-1.941l2.907-1.163
		C4.311,9.768,4.404,9.75,4.5,9.75h0.112c0.848-2.915,6.418-4.5,9.188-4.5h0.45c0.286,0,0.543,0.159,0.671,0.415l2.043,4.085h4.786
		C22.991,9.75,24,10.759,24,12c0,0.096-0.018,0.19-0.054,0.279l-1.123,2.807C22.48,15.945,21.66,16.5,20.734,16.5h-1.363
		C19.058,17.385,18.21,18,17.25,18z M17.25,15c-0.414,0-0.75,0.336-0.75,0.75s0.336,0.75,0.75,0.75S18,16.164,18,15.75
		S17.664,15,17.25,15z M6.75,15C6.336,15,6,15.336,6,15.75s0.336,0.75,0.75,0.75s0.75-0.336,0.75-0.75S7.164,15,6.75,15z M20.734,15
		c0.309,0,0.582-0.185,0.697-0.471l1.06-2.649c-0.058-0.359-0.37-0.63-0.74-0.63H4.645l-2.773,1.109
		C1.646,12.45,1.5,12.665,1.5,12.908c0,0.336,0,0.379,1.154,0.827c0.537,0.208,1.249,0.484,2.128,0.925
		c0.391-0.708,1.136-1.16,1.968-1.16c0.96,0,1.808,0.615,2.121,1.5h6.257c0.314-0.885,1.162-1.5,2.121-1.5s1.808,0.615,2.121,1.5
		H20.734z M15.287,9.75l-1.5-3c-1.469,0.003-3.512,0.484-5.089,1.199c-1.192,0.54-2.05,1.177-2.448,1.801H15.287z"/>
</g>
</svg>
