<?xml version="1.0" encoding="utf-8"?>
<!-- Generator: Adobe Illustrator 22.1.0, SVG Export Plug-In . SVG Version: 6.00 Build 0)  -->
<svg version="1.1" id="Layer_1" xmlns="http://www.w3.org/2000/svg" xmlns:xlink="http://www.w3.org/1999/xlink" x="0px" y="0px"
	 viewBox="0 0 24 24" style="enable-background:new 0 0 24 24;" xml:space="preserve">
<title>vintage-car-convertible</title>
<g>
	<path d="M18.75,17.75c-0.96,0-1.808-0.615-2.121-1.5H8.871c-0.314,0.885-1.162,1.5-2.121,1.5s-1.808-0.615-2.121-1.5h-2.18
		c-0.092,0-0.185-0.006-0.276-0.017c-1.233-0.154-2.11-1.281-1.956-2.512l0.167-1.337c0.23-1.838,1.674-3.305,3.484-3.586
		C4.145,7.548,4.981,5.75,7.5,5.75h0.75C8.664,5.75,9,6.087,9,6.5v2.526c1.244,0.561,2.471,0.846,3.652,0.846
		c0.982,0,1.893-0.198,2.713-0.59l-2.451-3.063c-0.258-0.323-0.206-0.796,0.117-1.054C13.165,5.058,13.331,5,13.5,5
		c0.229,0,0.443,0.103,0.586,0.282L16.86,8.75h3.39c2.068,0,3.75,1.682,3.75,3.75c0,1.845-1.32,3.39-3.111,3.696
		C20.592,17.111,19.732,17.75,18.75,17.75z M18.75,14.75c-0.414,0-0.75,0.336-0.75,0.75s0.336,0.75,0.75,0.75s0.75-0.336,0.75-0.75
		S19.164,14.75,18.75,14.75z M6.75,14.75C6.337,14.75,6,15.087,6,15.5s0.336,0.75,0.75,0.75S7.5,15.914,7.5,15.5
		S7.164,14.75,6.75,14.75z M16.629,14.75c0.314-0.885,1.162-1.5,2.121-1.5c0.926,0,1.754,0.579,2.09,1.419
		c0.965-0.262,1.66-1.146,1.66-2.169c0-1.241-1.009-2.25-2.25-2.25h-3.53c-1.199,0.746-2.565,1.124-4.063,1.124
		c-1.55,0-3.145-0.405-4.742-1.203C7.659,10.043,7.5,9.786,7.5,9.5V7.25c-1.327,0-2.015,0.684-2.23,2.217
		C5.174,10.148,4.747,10.25,4.5,10.25c-1.332,0.001-2.462,0.998-2.628,2.32l-0.167,1.336c-0.051,0.411,0.241,0.786,0.651,0.838
		c0.03,0.004,0.061,0.006,0.093,0.006h2.18c0.314-0.885,1.162-1.5,2.121-1.5s1.808,0.615,2.121,1.5H16.629z"/>
</g>
</svg>
