<?xml version="1.0" encoding="utf-8"?>
<!-- Generator: Adobe Illustrator 22.1.0, SVG Export Plug-In . SVG Version: 6.00 Build 0)  -->
<svg version="1.1" id="Layer_1" xmlns="http://www.w3.org/2000/svg" xmlns:xlink="http://www.w3.org/1999/xlink" x="0px" y="0px"
	 viewBox="0 0 24 24" style="enable-background:new 0 0 24 24;" xml:space="preserve">
<title>vintage-man-moustache-1</title>
<g>
	<path d="M15,24c-0.251,0-0.485-0.125-0.624-0.334c-0.111-0.167-0.151-0.367-0.112-0.563c0.039-0.196,0.153-0.365,0.32-0.477
		l1.724-1.149L15.251,19.1l-2.601,4.524c-0.009,0.015-0.021,0.032-0.032,0.048c-0.023,0.034-0.046,0.062-0.07,0.088
		c-0.011,0.012-0.021,0.023-0.032,0.034c-0.048,0.045-0.094,0.08-0.143,0.108c0,0-0.009,0.005-0.013,0.007
		c-0.052,0.028-0.1,0.045-0.137,0.057C12.143,23.989,12.072,24,12,24c-0.074,0-0.148-0.012-0.227-0.037
		c-0.041-0.013-0.088-0.03-0.138-0.058c-0.003-0.001-0.009-0.005-0.009-0.005c-0.049-0.028-0.095-0.063-0.141-0.105
		c-0.008-0.008-0.026-0.027-0.034-0.035c-0.028-0.03-0.053-0.061-0.075-0.095c-0.01-0.013-0.019-0.027-0.026-0.04L8.749,19.1
		l-1.057,2.377l1.724,1.149c0.344,0.229,0.437,0.696,0.208,1.04C9.484,23.875,9.251,24,8.999,24c-0.148,0-0.292-0.043-0.416-0.126
		l-2.25-1.5c-0.305-0.203-0.418-0.594-0.269-0.929l1.125-2.531c-1.883,1.041-3.374,2.66-4.255,4.641C2.815,23.825,2.546,24,2.25,24
		c-0.106,0-0.208-0.022-0.304-0.064c-0.378-0.168-0.549-0.612-0.381-0.99c1.29-2.904,3.761-5.153,6.781-6.175
		c0.057-0.027,0.116-0.046,0.177-0.058c1.135-0.364,2.311-0.548,3.497-0.548c1.205,0,2.397,0.191,3.542,0.568
		c0.011,0.003,0.029,0.01,0.049,0.017c0.339,0.112,0.691,0.248,1.026,0.396c2.589,1.151,4.649,3.21,5.799,5.799
		c0.167,0.378-0.003,0.822-0.381,0.99C21.957,23.979,21.855,24,21.75,24c-0.296,0-0.565-0.175-0.685-0.445
		c-0.881-1.983-2.376-3.608-4.258-4.65l1.129,2.54c0.148,0.335,0.035,0.726-0.27,0.929l-2.25,1.5C15.292,23.957,15.149,24,15,24z
		 M12,21.745l2.204-3.834c-0.719-0.164-1.455-0.247-2.193-0.247c-0.744,0-1.487,0.084-2.214,0.251L12,21.745z"/>
	<path d="M16.267,15.748c-1.624,0-3.099-0.511-3.851-1.335c-0.651-0.713-0.777-1.65-0.345-2.57c0.411-0.877,1.169-1.38,2.08-1.38
		c0.038,0,0.076,0.001,0.115,0.003c0.558,0.026,1.174,0.241,1.8,0.626c0.285-0.6,0.434-1.26,0.433-1.929
		c0-0.414,0.335-0.75,0.749-0.751c0.414,0,0.75,0.336,0.751,0.749c0.001,1.007-0.253,1.995-0.737,2.878
		c0.728,0.716,1.288,1.559,1.592,2.4c0.14,0.389-0.062,0.819-0.45,0.96C17.774,15.627,17.035,15.748,16.267,15.748z M14.147,11.964
		c-0.235,0-0.504,0.061-0.718,0.517c-0.178,0.378-0.149,0.654,0.095,0.921c0.465,0.509,1.556,0.852,2.716,0.852
		c0.286,0,0.569-0.021,0.839-0.062c-0.714-1.188-1.972-2.184-2.881-2.226L14.147,11.964z"/>
	<path d="M7.733,15.748c-0.768,0-1.507-0.121-2.138-0.35c-0.389-0.141-0.59-0.572-0.45-0.96c0.304-0.841,0.864-1.683,1.592-2.399
		C6.252,11.157,5.998,10.168,6,9.162c0-0.413,0.337-0.749,0.75-0.749c0.201,0,0.389,0.078,0.531,0.22
		C7.422,8.775,7.5,8.964,7.5,9.164c-0.001,0.67,0.148,1.329,0.433,1.929c0.627-0.386,1.243-0.601,1.8-0.626
		c0.041-0.002,0.084-0.003,0.126-0.003c0.917,0,1.653,0.49,2.07,1.38c0.431,0.92,0.306,1.856-0.345,2.569
		C10.832,15.236,9.357,15.748,7.733,15.748z M6.921,14.191c0.269,0.041,0.553,0.062,0.839,0.062c1.16,0,2.251-0.342,2.716-0.852
		c0.244-0.268,0.273-0.543,0.095-0.921c-0.214-0.456-0.48-0.518-0.712-0.518c-0.018,0-0.037,0-0.055,0.001
		C8.894,12.006,7.635,13.003,6.921,14.191z"/>
	<path d="M12,8.246c-3.041,0-6.111-0.255-9.123-0.757C2.469,7.422,2.192,7.035,2.26,6.627C2.321,6.263,2.631,6,2.998,6
		C3.04,6,3.082,6.003,3.125,6.01C4.072,6.168,5.038,6.303,6,6.411V6c0-3.308,2.692-6,6-6s6,2.692,6,6v0.411
		c0.962-0.108,1.928-0.242,2.877-0.4C20.917,6.003,20.959,6,21.001,6c0.368,0,0.678,0.264,0.739,0.627
		c0.033,0.197-0.013,0.396-0.13,0.559c-0.116,0.163-0.289,0.271-0.487,0.304C18.111,7.992,15.041,8.246,12,8.246z M7.5,6.555
		C8.993,6.68,10.505,6.744,12,6.744c1.494,0,3.007-0.063,4.5-0.188V6c0-2.481-2.019-4.5-4.5-4.5C9.519,1.5,7.5,3.519,7.5,6V6.555z"
		/>
</g>
</svg>
