<?xml version="1.0" encoding="utf-8"?>
<!-- Generator: Adobe Illustrator 22.1.0, SVG Export Plug-In . SVG Version: 6.00 Build 0)  -->
<svg version="1.1" id="Layer_1" xmlns="http://www.w3.org/2000/svg" xmlns:xlink="http://www.w3.org/1999/xlink" x="0px" y="0px"
	 viewBox="0 0 24 24" style="enable-background:new 0 0 24 24;" xml:space="preserve">
<title>virtual-tap-finger</title>
<g>
	<path d="M6.98,24c-0.019,0-0.038-0.001-0.057-0.002c-0.984-0.073-1.734-0.934-1.671-1.921L5.25,21
		c-0.099-1.527,1.092-2.883,2.656-2.998C7.922,18.001,7.942,18,7.961,18H8.25c0-1.654,1.346-3,3-3c1.654,0,3,1.346,3,3h2.538
		c0.019,0,0.038,0.001,0.057,0.002c1.561,0.115,2.752,1.481,2.653,3.045l0.001,1.077c0.062,0.949-0.69,1.801-1.676,1.873
		C17.806,23.999,17.788,24,17.769,24H6.98z M17.733,22.5c0.159-0.022,0.279-0.166,0.268-0.328L18,21
		c0.048-0.773-0.509-1.433-1.242-1.5h-2.914C13.31,20.418,12.317,21,11.25,21s-2.061-0.582-2.594-1.5H7.991
		c-0.734,0.067-1.29,0.716-1.243,1.452l0.001,1.173c-0.012,0.204,0.102,0.353,0.266,0.375H17.733z M11.25,16.5
		c-0.827,0-1.5,0.673-1.5,1.5s0.673,1.5,1.5,1.5s1.5-0.673,1.5-1.5S12.077,16.5,11.25,16.5z"/>
	<path d="M18.74,6.371c-0.414,0-0.75-0.336-0.75-0.75V1.499L6.009,1.5L6.01,5.621c0,0.414-0.336,0.75-0.75,0.75
		s-0.75-0.336-0.75-0.75V1.5C4.509,1.101,4.664,0.724,4.947,0.44C5.23,0.157,5.606,0.001,6.006,0h11.984
		c0.826,0.001,1.498,0.673,1.499,1.498v4.123C19.49,6.035,19.153,6.371,18.74,6.371z"/>
	<path d="M9,12c-0.2,0-0.389-0.078-0.53-0.22l-0.75-0.75c-0.341-0.34-0.53-0.794-0.53-1.278c-0.001-0.484,0.187-0.938,0.527-1.28
		c0.343-0.343,0.799-0.532,1.284-0.532c0.263,0,0.517,0.056,0.749,0.161V5.625c0-1.034,0.841-1.875,1.875-1.875
		S13.5,4.591,13.5,5.625V6.75H15c1.241,0,2.25,1.009,2.25,2.25v1.5c0,0.414-0.336,0.75-0.75,0.75s-0.75-0.336-0.75-0.75V9
		c0-0.414-0.336-0.75-0.75-0.75h-2.25C12.336,8.25,12,7.914,12,7.5V5.625c0-0.207-0.168-0.375-0.375-0.375S11.25,5.418,11.25,5.625
		V9.75c0,0.305-0.182,0.577-0.463,0.693C10.696,10.481,10.599,10.5,10.5,10.5c-0.2,0-0.389-0.078-0.531-0.22l-0.75-0.75
		C9.161,9.472,9.083,9.44,9,9.44S8.838,9.472,8.78,9.53c-0.059,0.059-0.091,0.137-0.091,0.22c0,0.083,0.032,0.16,0.09,0.218
		L9.53,10.72c0.142,0.141,0.22,0.33,0.22,0.53s-0.078,0.389-0.22,0.53C9.388,11.922,9.2,12,9,12z"/>
	<path d="M23.001,9.007c-0.087,0-0.174-0.011-0.259-0.034c-0.258-0.069-0.474-0.234-0.608-0.465
		c-0.134-0.232-0.169-0.501-0.101-0.759c0.069-0.259,0.234-0.474,0.465-0.608c0.152-0.088,0.325-0.135,0.5-0.135
		c0.087,0,0.174,0.011,0.259,0.034c0.532,0.142,0.85,0.691,0.709,1.223c-0.07,0.259-0.235,0.475-0.466,0.609
		C23.348,8.96,23.175,9.007,23.001,9.007z"/>
	<path d="M22.019,13.067c-0.087,0-0.175-0.011-0.26-0.034c-0.258-0.069-0.473-0.234-0.607-0.466c-0.134-0.231-0.169-0.5-0.1-0.758
		c0.117-0.437,0.514-0.742,0.966-0.742c0.087,0,0.174,0.011,0.258,0.034c0.532,0.142,0.85,0.692,0.708,1.224
		c-0.069,0.258-0.234,0.474-0.466,0.608C22.367,13.02,22.194,13.067,22.019,13.067z"/>
	<path d="M20.662,17.701c-0.082,0-0.164-0.01-0.244-0.03c-0.263-0.066-0.485-0.228-0.622-0.456c-0.138-0.23-0.178-0.499-0.113-0.758
		c0.111-0.446,0.51-0.758,0.969-0.758c0.082,0,0.164,0.01,0.244,0.03c0.266,0.067,0.485,0.229,0.622,0.458
		c0.137,0.229,0.178,0.498,0.113,0.757c-0.064,0.258-0.225,0.477-0.454,0.615C21.021,17.651,20.843,17.701,20.662,17.701z"/>
	<path d="M0.999,9.007c-0.452,0-0.849-0.305-0.966-0.742C-0.036,8.006,0,7.737,0.134,7.505C0.267,7.275,0.483,7.109,0.741,7.04
		C0.826,7.018,0.913,7.006,1,7.006c0.175,0,0.348,0.047,0.5,0.135C1.731,7.274,1.896,7.49,1.965,7.748
		c0.069,0.258,0.033,0.527-0.1,0.759c-0.134,0.231-0.35,0.397-0.608,0.466C1.172,8.995,1.086,9.007,0.999,9.007L0.999,9.007z"/>
	<path d="M1.981,13.066c-0.451,0-0.848-0.304-0.965-0.74c-0.069-0.258-0.034-0.527,0.099-0.759c0.117-0.202,0.301-0.358,0.519-0.439
		c0.014-0.007,0.05-0.02,0.088-0.03c0.085-0.023,0.172-0.034,0.26-0.034c0.452,0,0.849,0.305,0.966,0.742
		c0.069,0.258,0.034,0.528-0.099,0.759c-0.133,0.231-0.349,0.397-0.606,0.467C2.157,13.055,2.07,13.066,1.981,13.066L1.981,13.066z"
		/>
	<path d="M3.342,17.697c-0.463,0-0.864-0.31-0.974-0.755c-0.133-0.535,0.194-1.079,0.728-1.212c0.08-0.02,0.163-0.031,0.245-0.031
		c0.442,0,0.837,0.299,0.959,0.726c0.073,0.257,0.042,0.527-0.088,0.76c-0.13,0.233-0.343,0.402-0.6,0.475
		C3.516,17.687,3.43,17.697,3.342,17.697L3.342,17.697z"/>
</g>
</svg>
