<?xml version="1.0" encoding="utf-8"?>
<!-- Generator: Adobe Illustrator 22.1.0, SVG Export Plug-In . SVG Version: 6.00 Build 0)  -->
<svg version="1.1" id="Regular" xmlns="http://www.w3.org/2000/svg" xmlns:xlink="http://www.w3.org/1999/xlink" x="0px" y="0px"
	 viewBox="0 0 24 24" style="enable-background:new 0 0 24 24;" xml:space="preserve">
<title>visibility-rain</title>
<g>
	<path d="M7.498,24.003c-0.2,0-0.389-0.078-0.53-0.22l-6.75-6.75c-0.292-0.292-0.292-0.768,0-1.061l6.75-6.75
		c0.142-0.142,0.33-0.22,0.53-0.22s0.389,0.078,0.53,0.22c0.142,0.141,0.22,0.33,0.22,0.53s-0.078,0.389-0.22,0.53l-1.333,1.333
		c0.672,0.785,1.553,2.307,1.553,4.886c0,2.579-0.882,4.101-1.553,4.886l1.333,1.333c0.292,0.292,0.292,0.768,0,1.061
		C7.886,23.925,7.698,24.003,7.498,24.003z M5.632,20.326c0.458-0.572,1.116-1.754,1.116-3.823c0-2.069-0.658-3.251-1.116-3.823
		l-3.823,3.823L5.632,20.326z"/>
	<path d="M10.498,17.253c-0.414,0-0.75-0.336-0.75-0.75s0.336-0.75,0.75-0.75h1.5c0.414,0,0.75,0.336,0.75,0.75
		s-0.336,0.75-0.75,0.75H10.498z"/>
	<path d="M14.998,17.253c-0.414,0-0.75-0.336-0.75-0.75s0.336-0.75,0.75-0.75h1.5c0.414,0,0.75,0.336,0.75,0.75
		s-0.336,0.75-0.75,0.75H14.998z"/>
	<path d="M19.498,17.253c-0.414,0-0.75-0.336-0.75-0.75s0.336-0.75,0.75-0.75h1.5c0.414,0,0.75,0.336,0.75,0.75
		s-0.336,0.75-0.75,0.75H19.498z"/>
	<path d="M14.06,12.003c-0.137,0-0.272-0.038-0.389-0.109c-0.354-0.215-0.466-0.677-0.251-1.031l1.419-2.333
		c0.137-0.225,0.377-0.36,0.641-0.36c0.137,0,0.272,0.038,0.389,0.109c0.354,0.215,0.466,0.677,0.251,1.031l-1.419,2.333
		C14.566,11.865,14.321,12.003,14.06,12.003z"/>
	<path d="M17.06,12.003c-0.146,0-0.289-0.042-0.411-0.123c-0.167-0.109-0.282-0.278-0.323-0.474
		c-0.041-0.196-0.003-0.397,0.107-0.564l1.5-2.292c0.139-0.213,0.374-0.339,0.628-0.339c0.146,0,0.288,0.042,0.41,0.123
		c0.167,0.109,0.282,0.278,0.323,0.474c0.041,0.196,0.003,0.397-0.107,0.564l-1.5,2.292C17.549,11.876,17.314,12.003,17.06,12.003z"
		/>
	<path d="M11.576,10.041c-0.146,0-0.289-0.043-0.411-0.123C9.681,8.944,9.141,7.003,9.91,5.403c0.589-1.226,1.849-2.018,3.213-2.018
		c0.235,0,0.469,0.023,0.698,0.07c0.412-1.134,1.197-2.087,2.239-2.711c0.813-0.486,1.742-0.743,2.687-0.743
		c1.842,0,3.572,0.979,4.514,2.554c1.486,2.484,0.673,5.715-1.811,7.2c-0.116,0.07-0.249,0.106-0.385,0.106c0,0,0,0,0,0
		c-0.262,0-0.509-0.14-0.644-0.365c-0.103-0.172-0.133-0.373-0.084-0.568c0.049-0.194,0.17-0.358,0.343-0.461
		c1.774-1.061,2.355-3.369,1.293-5.143C21.3,2.2,20.064,1.501,18.747,1.501c-0.674,0-1.337,0.183-1.918,0.531
		c-0.919,0.549-1.56,1.468-1.76,2.52c-0.001,0.005-0.002,0.011-0.003,0.016c-0.044,0.225-0.067,0.457-0.068,0.688
		c0,0.152,0.01,0.308,0.029,0.462c0.004,0.036,0.006,0.067,0.006,0.098c0,0.377-0.282,0.697-0.656,0.744
		c-0.032,0.004-0.063,0.006-0.094,0.006c-0.377,0-0.697-0.282-0.744-0.656c-0.027-0.215-0.041-0.436-0.041-0.656
		c0.001-0.107,0.005-0.214,0.014-0.328c-0.129-0.025-0.26-0.038-0.392-0.038c-0.789,0-1.518,0.458-1.858,1.166
		C10.818,6.978,11.13,8.1,11.988,8.664c0.167,0.11,0.282,0.278,0.323,0.474s0.002,0.396-0.107,0.564
		C12.065,9.914,11.83,10.041,11.576,10.041z"/>
</g>
</svg>
