<?xml version="1.0" encoding="utf-8"?>
<!-- Generator: Adobe Illustrator 22.1.0, SVG Export Plug-In . SVG Version: 6.00 Build 0)  -->
<svg version="1.1" id="Layer_1" xmlns="http://www.w3.org/2000/svg" xmlns:xlink="http://www.w3.org/1999/xlink" x="0px" y="0px"
	 viewBox="0 0 24 24" style="enable-background:new 0 0 24 24;" xml:space="preserve">
<title>vr-play-device-1</title>
<g>
	<path d="M2.25,24C1.009,24,0,22.991,0,21.75v-3c0-0.228,0.034-0.453,0.102-0.67l1.422-5.517C1.609,12.231,1.908,12,2.25,12h1.5
		c0.286,0,0.543,0.159,0.671,0.414L4.964,13.5h3.573l0.543-1.085C9.207,12.159,9.464,12,9.75,12h1.5
		c0.342,0,0.641,0.231,0.726,0.563l1.427,5.535c0.063,0.198,0.097,0.423,0.097,0.652v3c0,1.241-1.009,2.25-2.25,2.25H2.25z M2.25,18
		c-0.414,0-0.75,0.336-0.75,0.75v3c0,0.414,0.336,0.75,0.75,0.75h9c0.414,0,0.75-0.336,0.75-0.75v-3c0-0.414-0.336-0.75-0.75-0.75
		H2.25z M11.25,16.5c0.065,0,0.13,0.003,0.194,0.008L10.669,13.5h-0.455l-0.543,1.085C9.543,14.841,9.286,15,9,15H4.5
		c-0.286,0-0.543-0.159-0.671-0.414L3.286,13.5H2.831l-0.776,3.008C2.12,16.503,2.185,16.5,2.25,16.5H11.25z"/>
	<path d="M3.75,21.375c-0.62,0-1.125-0.505-1.125-1.125s0.505-1.125,1.125-1.125c0.014,0,0.032,0.001,0.048,0.003
		c0.605,0.025,1.077,0.515,1.077,1.122C4.875,20.87,4.37,21.375,3.75,21.375z"/>
	<circle cx="9.75" cy="20.25" r="1.125"/>
	<path d="M15.75,18C15.336,18,15,17.664,15,17.25s0.336-0.75,0.75-0.75h6c0.414,0,0.75-0.336,0.75-0.75V2.25
		c0-0.414-0.336-0.75-0.75-0.75H8.25C7.836,1.5,7.5,1.836,7.5,2.25v8.25c0,0.414-0.336,0.75-0.75,0.75S6,10.914,6,10.5V2.25
		C6,1.009,7.009,0,8.25,0h13.5C22.991,0,24,1.009,24,2.25v13.5c0,1.241-1.009,2.25-2.25,2.25H15.75z"/>
	<path d="M14.32,12.494c-0.286,0-0.543-0.159-0.671-0.415c-0.185-0.37-0.034-0.821,0.335-1.006l3.957-1.978
		c0.02-0.01,0.037-0.027,0.047-0.047c0.013-0.026,0.015-0.054,0.006-0.081c-0.009-0.027-0.027-0.048-0.053-0.061l-5.788-2.894
		C12.139,6.005,12.122,6,12.106,6C12.048,6,12,6.048,12,6.106V9.75c0,0.414-0.336,0.75-0.75,0.75s-0.75-0.336-0.75-0.75V6.106
		c0-0.885,0.721-1.605,1.606-1.605c0.248,0,0.496,0.059,0.718,0.17l5.788,2.894c0.384,0.192,0.669,0.522,0.805,0.929
		c0.135,0.407,0.104,0.843-0.088,1.226c-0.154,0.308-0.408,0.563-0.717,0.717l-3.958,1.978
		C14.551,12.467,14.435,12.494,14.32,12.494z"/>
</g>
</svg>
