<?xml version="1.0" encoding="utf-8"?>
<!-- Generator: Adobe Illustrator 22.1.0, SVG Export Plug-In . SVG Version: 6.00 Build 0)  -->
<svg version="1.1" id="Layer_1" xmlns="http://www.w3.org/2000/svg" xmlns:xlink="http://www.w3.org/1999/xlink" x="0px" y="0px"
	 viewBox="0 0 24 24" style="enable-background:new 0 0 24 24;" xml:space="preserve">
<title>vr-user-box-human</title>
<g>
	<path d="M6.751,13.5c-0.072,0-0.145-0.011-0.218-0.034c-0.017-0.004-0.033-0.009-0.048-0.015l-5.997-2.249
		c-0.291-0.109-0.487-0.391-0.487-0.702V3c0-0.011,0.001-0.022,0.002-0.034c0.002-0.053,0.009-0.1,0.02-0.145
		c0.002-0.01,0.006-0.021,0.01-0.033c0.012-0.04,0.027-0.081,0.047-0.12c0.005-0.01,0.019-0.035,0.024-0.044
		c0.021-0.036,0.042-0.067,0.066-0.097c0.013-0.016,0.025-0.03,0.037-0.043c0.023-0.025,0.049-0.048,0.076-0.07
		c0.014-0.012,0.03-0.025,0.043-0.034c0.008-0.005,0.016-0.011,0.025-0.016c0.03-0.019,0.064-0.037,0.1-0.053
		c0.011-0.005,0.023-0.01,0.032-0.014l6.004-2.251C6.571,0.016,6.66,0,6.751,0S6.93,0.016,7.014,0.048l5.999,2.25
		c0.01,0.004,0.021,0.009,0.032,0.014c0.034,0.015,0.069,0.033,0.103,0.054c0.01,0.005,0.019,0.011,0.028,0.017
		c0.013,0.009,0.029,0.022,0.043,0.034c0.022,0.017,0.051,0.043,0.077,0.071c0.01,0.011,0.024,0.026,0.037,0.043
		c0.022,0.027,0.042,0.057,0.062,0.089c0.012,0.021,0.02,0.035,0.028,0.05c0.019,0.04,0.035,0.08,0.047,0.121
		c0.002,0.005,0.003,0.011,0.005,0.015c0.016,0.062,0.023,0.113,0.025,0.165C13.5,2.98,13.501,2.99,13.501,3v7.5
		c0,0.311-0.196,0.593-0.487,0.702l-6,2.25C7,13.457,6.985,13.462,6.97,13.466C6.903,13.487,6.826,13.5,6.751,13.5z M7.501,11.668
		l4.5-1.688V4.082l-4.5,1.688V11.668z M6.001,11.668V5.77l-4.5-1.688V9.98L6.001,11.668z M6.751,4.449L10.615,3L6.751,1.551L2.886,3
		L6.751,4.449z"/>
	<path d="M21.751,24c-0.414,0-0.75-0.336-0.75-0.75h-0.75c-2.068,0-3.75-1.682-3.75-3.75v-0.75h-2.25
		c-0.249,0-0.481-0.123-0.621-0.329c-0.14-0.206-0.168-0.468-0.075-0.699c0.31-0.774,0.606-1.56,0.868-2.254l0.234-0.619
		c0.11-0.29,0.392-0.484,0.701-0.484c0.091,0,0.18,0.016,0.266,0.049c0.188,0.071,0.336,0.211,0.418,0.394
		c0.082,0.183,0.088,0.386,0.017,0.574l-0.233,0.617c-0.155,0.411-0.313,0.83-0.476,1.252h1.901c0.414,0,0.75,0.336,0.75,0.75v1.5
		c0,1.241,1.009,2.25,2.25,2.25h1.5c0.414,0,0.75,0.336,0.75,0.75v0.75C22.501,23.664,22.164,24,21.751,24z"/>
	<path d="M21.001,6.55c-0.256,0-0.492-0.128-0.63-0.344c-0.109-0.168-0.145-0.368-0.103-0.564c0.042-0.196,0.158-0.364,0.327-0.472
		c0.761-0.491,1.592-0.855,2.47-1.08c0.061-0.016,0.124-0.024,0.188-0.024c0.342,0,0.64,0.232,0.726,0.564
		c0.05,0.194,0.021,0.396-0.081,0.568c-0.102,0.172-0.265,0.295-0.459,0.345c-0.721,0.185-1.404,0.484-2.03,0.888
		C21.286,6.509,21.145,6.55,21.001,6.55z"/>
	<path d="M15.001,13.5c-0.362,0-0.672-0.258-0.738-0.614c-0.467-2.54,0.499-5.116,2.521-6.723C16.916,6.058,17.082,6,17.251,6
		c0.09,0,0.179,0.016,0.264,0.048l5.999,2.25C23.805,8.407,24.001,8.689,24.001,9v3.75c0,0.414-0.336,0.75-0.75,0.75H15.001z
		 M22.501,12V9.52l-5.099-1.912c-1.221,1.129-1.857,2.738-1.741,4.392H22.501z"/>
</g>
</svg>
