<?xml version="1.0" encoding="utf-8"?>
<!-- Generator: Adobe Illustrator 22.1.0, SVG Export Plug-In . SVG Version: 6.00 Build 0)  -->
<svg version="1.1" id="Layer_1" xmlns="http://www.w3.org/2000/svg" xmlns:xlink="http://www.w3.org/1999/xlink" x="0px" y="0px"
	 viewBox="0 0 24 24" style="enable-background:new 0 0 24 24;" xml:space="preserve">
<title>vr-user-laptop</title>
<g>
	<path d="M3.75,24C1.682,24,0,22.318,0,20.25c0-0.414,0.336-0.75,0.75-0.75v-3.75c0-1.241,1.009-2.25,2.25-2.25h3v-0.75
		C6,12.336,5.664,12,5.25,12H3c-1.654,0-3-1.346-3-3s1.346-3,3-3h7.5c0-0.733,0.366-1.425,0.965-1.844
		C12.119,1.512,14.219,0,17.25,0c3.037,0,5.137,1.512,5.786,4.157C23.634,4.576,24,5.268,24,6v3c0,1.081-0.785,2.008-1.828,2.208
		c-1.158,2.89-2.945,4.542-4.922,4.542c-1.974,0-3.76-1.652-4.922-4.541C11.286,11.009,10.5,10.082,10.5,9V7.5H3
		C2.173,7.5,1.5,8.173,1.5,9s0.673,1.5,1.5,1.5h2.25c1.241,0,2.25,1.009,2.25,2.25v0.75h3c1.241,0,2.25,1.009,2.25,2.25v3.75
		c0.414,0,0.75,0.336,0.75,0.75c0,2.068-1.682,3.75-3.75,3.75H3.75z M1.629,21c0.313,0.879,1.159,1.5,2.121,1.5h6
		c0.962,0,1.808-0.621,2.121-1.5H1.629z M11.25,19.5v-3.75c0-0.414-0.336-0.75-0.75-0.75H3c-0.414,0-0.75,0.336-0.75,0.75v3.75
		H11.25z M13.98,11.25c0.612,1.303,1.709,3,3.27,3c1.564,0,2.66-1.697,3.271-3H13.98z M12.75,5.25C12.336,5.25,12,5.586,12,6v3
		c0,0.414,0.336,0.75,0.75,0.75h9c0.414,0,0.75-0.336,0.75-0.75V6c0-0.414-0.336-0.75-0.75-0.75H12.75z M21.32,3.75
		c-0.658-1.475-2.054-2.25-4.07-2.25c-2.012,0-3.407,0.775-4.068,2.25H21.32z"/>
	<path d="M15.75,8.25C15.336,8.25,15,7.914,15,7.5s0.336-0.75,0.75-0.75h3c0.414,0,0.75,0.336,0.75,0.75s-0.336,0.75-0.75,0.75
		H15.75z"/>
</g>
</svg>
