<?xml version="1.0" encoding="utf-8"?>
<!-- Generator: Adobe Illustrator 22.1.0, SVG Export Plug-In . SVG Version: 6.00 Build 0)  -->
<svg version="1.1" id="Layer_1" xmlns="http://www.w3.org/2000/svg" xmlns:xlink="http://www.w3.org/1999/xlink" x="0px" y="0px"
	 viewBox="0 0 24 24" style="enable-background:new 0 0 24 24;" xml:space="preserve">
<title>vr-user-play-1</title>
<g>
	<path d="M15.75,18C15.336,18,15,17.664,15,17.25s0.336-0.75,0.75-0.75h6c0.414,0,0.75-0.336,0.75-0.75V2.25
		c0-0.414-0.336-0.75-0.75-0.75H8.25C7.836,1.5,7.5,1.836,7.5,2.25V6c0,0.414-0.336,0.75-0.75,0.75S6,6.414,6,6V2.25
		C6,1.009,7.009,0,8.25,0h13.5C22.991,0,24,1.009,24,2.25v13.5c0,1.241-1.009,2.25-2.25,2.25H15.75z"/>
	<path d="M14.32,12.494c-0.286,0-0.543-0.159-0.671-0.415c-0.185-0.37-0.034-0.821,0.335-1.006l3.957-1.978
		c0.02-0.01,0.037-0.027,0.047-0.047c0.013-0.026,0.015-0.054,0.006-0.081c-0.009-0.027-0.027-0.048-0.053-0.061l-5.788-2.894
		C12.139,6.005,12.122,6,12.106,6C12.048,6,12,6.048,12,6.106V7.5c0,0.414-0.336,0.75-0.75,0.75S10.5,7.914,10.5,7.5V6.106
		c0-0.885,0.721-1.605,1.606-1.605c0.248,0,0.496,0.059,0.718,0.17l5.788,2.894c0.384,0.192,0.669,0.522,0.805,0.929
		c0.135,0.407,0.104,0.843-0.088,1.226c-0.154,0.308-0.408,0.563-0.717,0.717l-3.958,1.978
		C14.551,12.467,14.435,12.494,14.32,12.494z"/>
	<path d="M6.75,24c-1.974,0-3.76-1.652-4.922-4.542C0.786,19.259,0,18.332,0,17.25v-3c0-0.732,0.366-1.424,0.965-1.844
		C1.618,9.762,3.718,8.25,6.75,8.25c3.037,0,5.137,1.512,5.786,4.157c0.599,0.419,0.964,1.111,0.964,1.843v3
		c0,1.082-0.786,2.009-1.828,2.208C10.511,22.348,8.725,24,6.75,24z M3.48,19.5c0.612,1.303,1.709,3,3.27,3
		c1.562,0,2.659-1.697,3.27-3H3.48z M2.25,13.5c-0.414,0-0.75,0.336-0.75,0.75v3C1.5,17.664,1.836,18,2.25,18h9
		c0.414,0,0.75-0.336,0.75-0.75v-3c0-0.414-0.336-0.75-0.75-0.75H2.25z M10.82,12c-0.658-1.475-2.054-2.25-4.07-2.25
		c-2.012,0-3.407,0.775-4.068,2.25H10.82z"/>
	<path d="M5.25,16.5c-0.414,0-0.75-0.336-0.75-0.75S4.836,15,5.25,15h3C8.664,15,9,15.336,9,15.75S8.664,16.5,8.25,16.5H5.25z"/>
</g>
</svg>
