<?xml version="1.0" encoding="utf-8"?>
<!-- Generator: Adobe Illustrator 22.1.0, SVG Export Plug-In . SVG Version: 6.00 Build 0)  -->
<svg version="1.1" id="Layer_1" xmlns="http://www.w3.org/2000/svg" xmlns:xlink="http://www.w3.org/1999/xlink" x="0px" y="0px"
	 viewBox="0 0 24 24" style="enable-background:new 0 0 24 24;" xml:space="preserve">
<title>vr-user-box-1</title>
<g>
	<path d="M17.257,24.014c-0.699,0-1.395-0.11-2.069-0.326c-1.657-0.531-3.024-1.664-3.858-3.192c-0.528-0.43-0.83-1.06-0.83-1.741
		v-3c0-0.683,0.302-1.314,0.833-1.744c0.651-1.189,1.628-2.142,2.831-2.76c0.963-0.495,1.997-0.746,3.074-0.746
		c2.481,0,4.746,1.342,5.931,3.508c0.529,0.431,0.83,1.061,0.83,1.742v3c0,0.68-0.301,1.309-0.828,1.74
		c-0.651,1.193-1.63,2.15-2.836,2.77C19.383,23.754,18.318,24.014,17.257,24.014z M13.572,21.004
		c0.58,0.574,1.286,1.002,2.074,1.255c0.525,0.168,1.066,0.254,1.61,0.254c0.836,0,1.641-0.197,2.395-0.584
		c0.477-0.245,0.906-0.555,1.281-0.925H13.572z M12.75,15.004c-0.414,0-0.75,0.336-0.75,0.75v3c0,0.414,0.336,0.75,0.75,0.75h9
		c0.414,0,0.75-0.336,0.75-0.75v-3c0-0.414-0.336-0.75-0.75-0.75H12.75z M20.924,13.504c-0.974-0.95-2.302-1.501-3.684-1.501
		c-0.837,0-1.642,0.195-2.39,0.58c-0.475,0.244-0.902,0.552-1.276,0.92H20.924z"/>
	<path d="M14.25,18.004c-0.414,0-0.75-0.336-0.75-0.75s0.336-0.75,0.75-0.75h6c0.414,0,0.75,0.336,0.75,0.75s-0.336,0.75-0.75,0.75
		H14.25z"/>
	<path d="M7.553,8.308c-0.08,0-0.16-0.013-0.237-0.038L4.134,7.209c-0.11-0.037-0.211-0.099-0.293-0.181L0.659,3.846
		c-0.873-0.874-0.876-2.298-0.007-3.175C1.084,0.239,1.649,0.006,2.25,0.006c0.602,0,1.167,0.234,1.592,0.658l3.182,3.182
		c0.082,0.081,0.145,0.183,0.181,0.293l1.06,3.182c0.09,0.271,0.021,0.565-0.181,0.767C7.942,8.23,7.753,8.308,7.553,8.308z
		 M6.368,6.372l-0.53-1.591L2.781,1.725C2.639,1.583,2.451,1.505,2.25,1.505c-0.199,0-0.386,0.077-0.527,0.216
		C1.427,2.017,1.427,2.493,1.72,2.785l3.057,3.057L6.368,6.372z"/>
	<path d="M6.75,19.504c-0.072,0-0.145-0.011-0.218-0.034c-0.017-0.004-0.033-0.009-0.048-0.015l-5.997-2.249
		C0.196,17.097,0,16.815,0,16.504v-7.5c0-0.246,0.121-0.476,0.323-0.616C0.449,8.3,0.597,8.254,0.75,8.254
		c0.09,0,0.179,0.016,0.264,0.048l5.736,2.151l5.737-2.151c0.084-0.032,0.173-0.048,0.263-0.048c0.311,0,0.593,0.196,0.702,0.487
		c0.07,0.187,0.063,0.391-0.02,0.573c-0.083,0.182-0.232,0.322-0.42,0.392L7.5,11.774v5.898l1.236-0.463
		c0.084-0.032,0.173-0.048,0.263-0.048c0.311,0,0.593,0.196,0.702,0.487c0.07,0.188,0.063,0.392-0.02,0.574
		c-0.083,0.182-0.232,0.322-0.42,0.392l-2.249,0.843C7,19.462,6.985,19.466,6.97,19.47C6.903,19.492,6.826,19.504,6.75,19.504z
		 M6,17.672v-5.898l-4.5-1.688v5.898L6,17.672z"/>
</g>
</svg>
