<?xml version="1.0" encoding="utf-8"?>
<!-- Generator: Adobe Illustrator 22.1.0, SVG Export Plug-In . SVG Version: 6.00 Build 0)  -->
<svg version="1.1" id="Layer_1" xmlns="http://www.w3.org/2000/svg" xmlns:xlink="http://www.w3.org/1999/xlink" x="0px" y="0px"
	 viewBox="0 0 24 24" style="enable-background:new 0 0 24 24;" xml:space="preserve">
<title>vr-user-box</title>
<g>
	<path d="M12.75,24.002c-1.241,0-2.25-1.009-2.25-2.25v-3c0-0.222,0.033-0.441,0.097-0.653l1.427-5.534
		c0.085-0.332,0.384-0.563,0.726-0.563h1.5c0.286,0,0.543,0.159,0.671,0.415l0.542,1.085h3.573l0.542-1.085
		c0.128-0.256,0.385-0.415,0.671-0.415h1.5c0.342,0,0.641,0.231,0.726,0.563l1.427,5.535C23.966,18.298,24,18.524,24,18.752v3
		c0,1.241-1.009,2.25-2.25,2.25H12.75z M12,21.752c0,0.414,0.336,0.75,0.75,0.75h9c0.414,0,0.75-0.336,0.75-0.75v-0.75h-2.25
		c-0.414,0-0.75-0.336-0.75-0.75s0.336-0.75,0.75-0.75h2.25v-0.75c0-0.414-0.336-0.75-0.75-0.75h-9c-0.414,0-0.75,0.336-0.75,0.75
		v0.75h2.25c0.414,0,0.75,0.336,0.75,0.75s-0.336,0.75-0.75,0.75H12V21.752z M12.556,16.51c0.064-0.006,0.129-0.008,0.195-0.008h9
		c0.065,0,0.13,0.003,0.195,0.008l-0.776-3.008h-0.456l-0.542,1.085c-0.128,0.256-0.385,0.415-0.671,0.415H15
		c-0.286,0-0.543-0.159-0.671-0.415l-0.542-1.085h-0.456L12.556,16.51z"/>
	<path d="M7.553,8.305c-0.08,0-0.16-0.013-0.237-0.038L4.134,7.206c-0.11-0.037-0.211-0.099-0.293-0.181L0.659,3.843
		c-0.876-0.876-0.877-2.302-0.002-3.179C0.658,0.662,0.66,0.66,0.662,0.658C1.086,0.236,1.65,0.003,2.25,0.003
		c0.602,0,1.167,0.234,1.591,0.658l3.182,3.182c0.082,0.081,0.145,0.183,0.181,0.293l1.06,3.182c0.09,0.272,0.021,0.566-0.182,0.768
		C7.944,8.225,7.751,8.305,7.553,8.305z M6.368,6.37l-0.53-1.591L2.781,1.722C2.64,1.58,2.451,1.502,2.25,1.502
		c-0.201,0-0.389,0.078-0.531,0.219c-0.292,0.293-0.292,0.768,0,1.061l3.057,3.057L6.368,6.37z"/>
	<path d="M6.75,19.502c-0.072,0-0.145-0.011-0.218-0.034c-0.017-0.004-0.033-0.009-0.048-0.015l-5.997-2.249
		C0.196,17.095,0,16.812,0,16.502v-7.5c0-0.246,0.121-0.476,0.323-0.616C0.449,8.298,0.597,8.252,0.75,8.252
		c0.09,0,0.179,0.016,0.264,0.048l5.736,2.151l5.737-2.151c0.084-0.032,0.173-0.048,0.263-0.048c0.311,0,0.593,0.196,0.702,0.487
		c0.07,0.187,0.063,0.391-0.02,0.573c-0.083,0.182-0.232,0.322-0.42,0.392L7.5,11.771v5.898l1.236-0.463
		c0.084-0.032,0.173-0.048,0.263-0.048c0.311,0,0.593,0.196,0.702,0.487c0.07,0.188,0.063,0.392-0.02,0.574
		c-0.083,0.182-0.232,0.322-0.42,0.392l-2.249,0.843C7,19.459,6.985,19.463,6.97,19.467C6.903,19.489,6.826,19.502,6.75,19.502z
		 M6,17.67v-5.898l-4.5-1.688v5.898L6,17.67z"/>
</g>
</svg>
