<?xml version="1.0" encoding="utf-8"?>
<!-- Generator: Adobe Illustrator 22.1.0, SVG Export Plug-In . SVG Version: 6.00 Build 0)  -->
<svg version="1.1" id="Layer_1" xmlns="http://www.w3.org/2000/svg" xmlns:xlink="http://www.w3.org/1999/xlink" x="0px" y="0px"
	 viewBox="0 0 24 24" style="enable-background:new 0 0 24 24;" xml:space="preserve">
<title>waiting-room-lamp</title>
<g>
	<path d="M8.601,8.261c-1.861,0-3.375-1.514-3.375-3.375S6.74,1.511,8.601,1.511s3.375,1.514,3.375,3.375S10.462,8.261,8.601,8.261z
		 M8.601,3.011c-1.034,0-1.875,0.841-1.875,1.875s0.841,1.875,1.875,1.875s1.875-0.841,1.875-1.875S9.635,3.011,8.601,3.011z"/>
	<path d="M14.757,23.993c-0.382,0-0.702-0.287-0.745-0.667l-0.526-4.712c-0.05-0.332-0.371-0.603-0.729-0.603h-2.135
		c-1.843,0-3.396-1.315-3.699-3.126l-0.54-3.25c-0.106-0.582,0.023-1.178,0.365-1.672C7.09,9.468,7.603,9.137,8.193,9.029
		C8.327,9.005,8.464,8.992,8.6,8.992c1.086,0,2.016,0.777,2.211,1.846l0.445,2.677h1.519c2.559,0,4.78,1.908,5.165,4.439
		c0.003,0.02,0.006,0.044,0.007,0.069c0.014,0.148,0.403,3.588,0.578,5.132c0.023,0.199-0.033,0.395-0.158,0.552
		c-0.125,0.157-0.303,0.255-0.502,0.278c-0.028,0.003-0.057,0.005-0.086,0.005l0,0c-0.381,0-0.7-0.286-0.743-0.666
		c-0.481-4.249-0.562-4.991-0.58-5.164c-0.273-1.785-1.857-3.146-3.682-3.146h-2.153c-0.368,0-0.679-0.264-0.74-0.627l-0.547-3.287
		c-0.064-0.35-0.374-0.609-0.737-0.609c-0.045,0-0.09,0.004-0.135,0.012c-0.197,0.036-0.368,0.147-0.482,0.311
		c-0.114,0.165-0.157,0.364-0.121,0.561l0.542,3.261c0.182,1.085,1.112,1.873,2.213,1.873h2.135c1.108,0,2.06,0.821,2.223,1.909
		l0.53,4.74c0.046,0.411-0.251,0.782-0.662,0.829C14.811,23.991,14.783,23.993,14.757,23.993z"/>
	<path d="M18,7.511c-1.241,0-2.25-1.009-2.25-2.25c0-1.799,1.268-3.323,3-3.673V0.761c0-0.414,0.336-0.75,0.75-0.75
		s0.75,0.336,0.75,0.75v0.827c1.732,0.351,3,1.874,3,3.673c0,1.241-1.009,2.25-2.25,2.25H18z M19.5,3.011
		c-1.241,0-2.25,1.009-2.25,2.25c0,0.414,0.336,0.75,0.75,0.75h3c0.414,0,0.75-0.336,0.75-0.75C21.75,4.02,20.741,3.011,19.5,3.011z
		"/>
	<path d="M11.74,23.988c-0.382,0-0.702-0.287-0.745-0.667l-0.246-2.2c-0.007-0.065-0.061-0.114-0.126-0.114
		c-3.324,0-6.118-2.371-6.658-5.636l-0.33-1.987c-0.056-0.336-0.328-0.591-0.665-0.624H1.5c-0.414,0-0.75-0.336-0.75-0.75
		s0.336-0.75,0.75-0.75H3c0.017,0,0.035,0.001,0.052,0.002c1.043,0.074,1.89,0.845,2.062,1.877l0.33,1.987
		c0.42,2.539,2.593,4.382,5.166,4.382c0.843,0,1.538,0.622,1.63,1.447l0.246,2.199c0.046,0.411-0.251,0.783-0.662,0.829
		C11.797,23.986,11.768,23.988,11.74,23.988z"/>
</g>
</svg>
