<?xml version="1.0" encoding="utf-8"?>
<!-- Generator: Adobe Illustrator 22.1.0, SVG Export Plug-In . SVG Version: 6.00 Build 0)  -->
<svg version="1.1" id="Layer_1" xmlns="http://www.w3.org/2000/svg" xmlns:xlink="http://www.w3.org/1999/xlink" x="0px" y="0px"
	 viewBox="0 0 24 24" style="enable-background:new 0 0 24 24;" xml:space="preserve">
<title>walking</title>
<g>
	<path d="M11.099,6.93c-1.861,0-3.375-1.514-3.375-3.375S9.238,0.18,11.099,0.18c1.861,0,3.375,1.514,3.375,3.375
		S12.96,6.93,11.099,6.93z M11.099,1.68c-1.034,0-1.875,0.841-1.875,1.875s0.841,1.875,1.875,1.875s1.875-0.841,1.875-1.875
		S12.133,1.68,11.099,1.68z"/>
	<path d="M16.365,23.86c-0.372,0-0.743-0.095-1.073-0.275c-0.528-0.287-0.912-0.763-1.082-1.34
		c-0.422-1.252-1.212-2.396-2.245-3.255c-0.525,1.338-1.193,2.62-1.99,3.815c-0.418,0.628-1.12,1.003-1.877,1.003
		c-0.444,0-0.874-0.13-1.244-0.376c-1.034-0.688-1.315-2.089-0.627-3.122c1.579-2.365,2.473-5.087,2.605-7.914
		c-0.456,0.42-0.731,1.02-0.733,1.656c0,1.239-1.009,2.248-2.25,2.248s-2.25-1.009-2.25-2.25c0.004-3.718,3.031-6.746,6.749-6.75
		c2.611,0,5.021,1.163,6.634,3.19c0.284,0.356,0.708,0.56,1.164,0.56c0.035,0,0.067,0.002,0.098,0.006
		c1.213,0.047,2.161,1.031,2.161,2.248c0,1.241-1.009,2.25-2.25,2.25c-1.845,0-3.547-0.821-4.687-2.253
		c-0.054-0.068-0.11-0.134-0.169-0.198c-0.031,0.423-0.074,0.846-0.131,1.265c2.51,1.434,4.392,3.725,5.317,6.477
		c0.009,0.024,0.026,0.075,0.042,0.127c0.17,0.576,0.106,1.184-0.182,1.712c-0.287,0.528-0.763,0.912-1.339,1.083
		C16.795,23.829,16.58,23.86,16.365,23.86z M11.6,17.051c0.142,0,0.28,0.04,0.4,0.116c1.704,1.075,2.996,2.718,3.64,4.628
		c0.064,0.217,0.191,0.376,0.369,0.474c0.11,0.06,0.233,0.092,0.357,0.092c0.072,0,0.144-0.01,0.214-0.031
		c0.192-0.057,0.351-0.185,0.447-0.361c0.096-0.176,0.117-0.378,0.061-0.571c-0.005-0.016-0.011-0.035-0.018-0.053
		c-0.865-2.575-2.663-4.667-5.063-5.898c-0.291-0.15-0.451-0.466-0.398-0.788c0.162-0.99,0.243-2.002,0.243-3.006v-0.03
		c0-0.263,0.14-0.509,0.366-0.644c0.116-0.069,0.249-0.106,0.385-0.106c0.124,0,0.247,0.031,0.356,0.09
		c0.654,0.352,1.22,0.825,1.683,1.406c0.854,1.073,2.129,1.688,3.499,1.688c0.428,0,0.765-0.336,0.765-0.75s-0.336-0.75-0.75-0.75
		c-0.029,0-0.057-0.002-0.085-0.005c-0.885-0.022-1.708-0.431-2.26-1.125C14.482,9.757,12.5,8.801,10.37,8.801
		c-2.912,0.003-5.268,2.358-5.271,5.251c0,0.413,0.336,0.749,0.75,0.749s0.75-0.336,0.75-0.75c0.005-1.707,1.161-3.197,2.812-3.626
		c0.061-0.016,0.124-0.024,0.188-0.024c0.165,0,0.328,0.056,0.459,0.157c0.182,0.141,0.291,0.363,0.291,0.593v0.5
		c0.003,3.39-0.991,6.672-2.874,9.493c-0.229,0.344-0.135,0.812,0.21,1.042c0.123,0.082,0.266,0.125,0.414,0.125
		c0.254,0,0.488-0.125,0.628-0.335c0.912-1.369,1.64-2.854,2.162-4.413c0.074-0.22,0.241-0.391,0.46-0.468
		C11.429,17.066,11.514,17.051,11.6,17.051z"/>
</g>
</svg>
