<?xml version="1.0" encoding="utf-8"?>
<!-- Generator: Adobe Illustrator 22.1.0, SVG Export Plug-In . SVG Version: 6.00 Build 0)  -->
<svg version="1.1" id="Layer_1" xmlns="http://www.w3.org/2000/svg" xmlns:xlink="http://www.w3.org/1999/xlink" x="0px" y="0px"
	 viewBox="0 0 24 24" style="enable-background:new 0 0 24 24;" xml:space="preserve">
<title>warehouse-cart-packages</title>
<g>
	<path d="M3.756,22.5c-1.241,0-2.25-1.009-2.25-2.25S2.515,18,3.756,18s2.25,1.009,2.25,2.25S4.996,22.5,3.756,22.5z M3.756,19.5
		c-0.414,0-0.75,0.336-0.75,0.75S3.342,21,3.756,21s0.75-0.336,0.75-0.75S4.169,19.5,3.756,19.5z"/>
	<path d="M20.256,22.5c-1.241,0-2.25-1.009-2.25-2.25S19.015,18,20.256,18s2.25,1.009,2.25,2.25S21.497,22.5,20.256,22.5z
		 M20.256,19.5c-0.414,0-0.75,0.336-0.75,0.75S19.842,21,20.256,21s0.75-0.336,0.75-0.75S20.669,19.5,20.256,19.5z"/>
	<path d="M5.256,17.25c-1.241,0-2.25-1.009-2.25-2.25V3.75C3.006,3.336,2.669,3,2.256,3h-1.5c-0.414,0-0.75-0.336-0.75-0.75
		S0.342,1.5,0.756,1.5h1.5c1.241,0,2.25,1.009,2.25,2.25V15c0,0.414,0.336,0.75,0.75,0.75h0.75v-5.679
		c0-1.004,0.817-1.821,1.821-1.821h5.357c0.899,0,1.649,0.656,1.796,1.514c0.083-0.012,0.168-0.019,0.253-0.019
		c0.041,0,0.083,0.001,0.125,0.005h5.294c0.044-0.003,0.088-0.005,0.132-0.005c0.871,0,1.608,0.653,1.716,1.52
		c0.004,0.03,0.006,0.061,0.006,0.092v4.393h0.75c0.414,0,0.75,0.336,0.75,0.75s-0.336,0.75-0.75,0.75H5.256z M21.006,15.75v-4.331
		c-0.026-0.102-0.116-0.174-0.222-0.174c0,0-0.026,0.001-0.026,0.001c-0.025,0.002-0.05,0.004-0.074,0.004h-5.357
		c-0.025,0-0.05-0.001-0.074-0.004l-0.025-0.001c-0.106,0-0.196,0.072-0.221,0.174v4.331H21.006z M13.506,15.75v-5.679
		c0-0.177-0.145-0.321-0.322-0.321H7.827c-0.177,0-0.321,0.144-0.321,0.321v5.679H13.506z"/>
	<path d="M18.006,8.25c-0.414,0-0.75-0.336-0.75-0.75V5.25c0-0.414-0.336-0.75-0.75-0.75h-4.5c-0.414,0-0.75,0.336-0.75,0.75V6
		c0,0.414-0.336,0.75-0.75,0.75S9.756,6.414,9.756,6V5.25c0-1.241,1.009-2.25,2.25-2.25h4.5c1.241,0,2.25,1.009,2.25,2.25V7.5
		C18.756,7.914,18.419,8.25,18.006,8.25z"/>
</g>
</svg>
