<?xml version="1.0" encoding="utf-8"?>
<!-- Generator: Adobe Illustrator 22.1.0, SVG Export Plug-In . SVG Version: 6.00 Build 0)  -->
<svg version="1.1" id="Layer_1" xmlns="http://www.w3.org/2000/svg" xmlns:xlink="http://www.w3.org/1999/xlink" x="0px" y="0px"
	 viewBox="0 0 24 24" style="enable-background:new 0 0 24 24;" xml:space="preserve">
<title>warehouse-packages</title>
<g>
	<path d="M1.506,23.25c-0.414,0-0.75-0.336-0.75-0.75s0.336-0.75,0.75-0.75h0.75v-1.5h-0.75c-0.414,0-0.75-0.336-0.75-0.75
		s0.336-0.75,0.75-0.75h21c0.414,0,0.75,0.336,0.75,0.75s-0.336,0.75-0.75,0.75h-0.75v1.5h0.75c0.414,0,0.75,0.336,0.75,0.75
		s-0.336,0.75-0.75,0.75H1.506z M20.256,21.75v-1.5h-4.5v1.5H20.256z M14.256,21.75v-1.5h-4.5v1.5H14.256z M8.256,21.75v-1.5h-4.5
		v1.5H8.256z"/>
	<path d="M13.506,17.25c-0.563,0-1.091-0.206-1.5-0.575c-0.409,0.37-0.937,0.575-1.5,0.575h-6c-1.241,0-2.25-1.009-2.25-2.25v-4.5
		c0-1.241,1.009-2.25,2.25-2.25h2.25V3c0-1.241,1.009-2.25,2.25-2.25h6c1.241,0,2.25,1.009,2.25,2.25v5.25h2.25
		c1.241,0,2.25,1.009,2.25,2.25V15c0,1.241-1.009,2.25-2.25,2.25H13.506z M12.756,15c0,0.414,0.336,0.75,0.75,0.75h6
		c0.414,0,0.75-0.336,0.75-0.75v-4.5c0-0.414-0.336-0.75-0.75-0.75h-2.25V12c0,0.414-0.336,0.75-0.75,0.75s-0.75-0.336-0.75-0.75
		V9.75h-3V15z M4.506,9.75c-0.414,0-0.75,0.336-0.75,0.75V15c0,0.414,0.336,0.75,0.75,0.75h6c0.414,0,0.75-0.336,0.75-0.75V9.75h-3
		V12c0,0.414-0.336,0.75-0.75,0.75s-0.75-0.336-0.75-0.75V9.75H4.506z M15.756,8.25V3c0-0.414-0.336-0.75-0.75-0.75h-2.25V4.5
		c0,0.414-0.336,0.75-0.75,0.75s-0.75-0.336-0.75-0.75V2.25h-2.25c-0.414,0-0.75,0.336-0.75,0.75v5.25H15.756z"/>
</g>
</svg>
