<?xml version="1.0" encoding="utf-8"?>
<!-- Generator: Adobe Illustrator 22.1.0, SVG Export Plug-In . SVG Version: 6.00 Build 0)  -->
<svg version="1.1" id="Regular" xmlns="http://www.w3.org/2000/svg" xmlns:xlink="http://www.w3.org/1999/xlink" x="0px" y="0px"
	 viewBox="0 0 24 24" style="enable-background:new 0 0 24 24;" xml:space="preserve">
<title>water-protection-drop-1</title>
<g>
	<path d="M11.999,18c-3.308,0-6-2.692-6-6c0-4.669,4.615-10.5,6-10.5s6,5.831,6,10.5C17.999,15.308,15.307,18,11.999,18z
		 M11.999,3.078c-0.928,0.736-4.5,5.026-4.5,8.922c0,2.481,2.019,4.5,4.5,4.5s4.5-2.019,4.5-4.5
		C16.499,8.104,12.927,3.814,11.999,3.078z"/>
	<path d="M11.999,22.5c-6.414,0-11.251-2.196-11.251-5.109c0.055-0.965,0.508-1.835,1.243-2.408
		c0.131-0.102,0.295-0.159,0.461-0.159c0.233,0,0.449,0.105,0.592,0.289c0.254,0.326,0.196,0.798-0.13,1.052
		c-0.395,0.308-0.637,0.771-0.667,1.27C2.248,19.466,7.396,21,11.999,21c6.278,0,9.75-2.134,9.75-3.609
		c-0.029-0.456-0.278-0.923-0.666-1.226c-0.158-0.123-0.258-0.301-0.282-0.5s0.03-0.395,0.154-0.553
		c0.143-0.183,0.359-0.288,0.591-0.288c0.167,0,0.33,0.057,0.462,0.159c0.733,0.573,1.185,1.434,1.24,2.363
		c0.001,1.474-1.198,2.797-3.374,3.748C17.798,22.001,15.002,22.5,11.999,22.5z"/>
	<path d="M11.998,15c-1.654,0-2.999-1.346-2.999-3c0-0.414,0.336-0.75,0.75-0.75s0.75,0.336,0.75,0.75c0,0.827,0.673,1.5,1.499,1.5
		c0.413,0,0.75,0.337,0.75,0.75C12.748,14.664,12.411,15,11.998,15L11.998,15z"/>
</g>
</svg>
