<?xml version="1.0" encoding="utf-8"?>
<!-- Generator: Adobe Illustrator 22.1.0, SVG Export Plug-In . SVG Version: 6.00 Build 0)  -->
<svg version="1.1" id="Regular" xmlns="http://www.w3.org/2000/svg" xmlns:xlink="http://www.w3.org/1999/xlink" x="0px" y="0px"
	 viewBox="0 0 24 24" style="enable-background:new 0 0 24 24;" xml:space="preserve">
<title>water-pitcher-1</title>
<g>
	<path d="M8.014,24.004c-4.287,0-7.882-3.493-8.014-7.786c-0.005-0.156-0.005-0.312,0-0.467c0,0,0-0.007,0-0.01
		c0.003-2.64,1.384-4.131,2.603-5.447C3.663,9.149,4.5,8.246,4.5,6.75c0-1.235-0.579-2.079-1.771-2.582
		C1.765,3.762,0.758,3.75,0.748,3.75C0.336,3.749,0,3.413,0,3c0-1.654,1.346-3,3-3h12.75c3.004,0,5.557,2.048,6.208,4.98
		l2.024,9.107c0.09,0.404-0.166,0.805-0.569,0.895C23.359,14.994,23.304,15,23.25,15c-0.354,0-0.655-0.241-0.732-0.587l-2.024-9.107
		c-0.482-2.17-2.352-3.72-4.565-3.799C15.248,1.891,12,3.877,12,6.75c0,0.919,0.604,1.489,1.441,2.277
		c1.363,1.285,3.059,2.884,3.059,6.723c0,4.549-3.701,8.25-8.25,8.25C8.179,24.003,8.096,24.004,8.014,24.004z M1.518,16.5
		c0.273,3.34,3.124,6.004,6.504,6.004c0.068,0,0.136-0.001,0.205-0.003c3.477,0,6.357-2.605,6.732-6H1.518z M14.969,15
		c-0.193-2.652-1.394-3.784-2.557-4.881C11.472,9.233,10.5,8.317,10.5,6.75c0-1.749,0.862-3.464,2.493-4.959
		C13.1,1.693,13.21,1.596,13.323,1.5H3c-0.574,0-1.085,0.327-1.337,0.819C3.762,2.621,6,3.921,6,6.75
		c0,2.084-1.22,3.401-2.296,4.562C2.715,12.38,1.778,13.392,1.552,15H14.969z"/>
</g>
</svg>
