<?xml version="1.0" encoding="utf-8"?>
<!-- Generator: Adobe Illustrator 22.1.0, SVG Export Plug-In . SVG Version: 6.00 Build 0)  -->
<svg version="1.1" id="Regular" xmlns="http://www.w3.org/2000/svg" xmlns:xlink="http://www.w3.org/1999/xlink" x="0px" y="0px"
	 viewBox="0 0 24 24" style="enable-background:new 0 0 24 24;" xml:space="preserve">
<title>water-pitcher-2</title>
<g>
	<path d="M8.864,22.5c-1.166,0-2.129-0.876-2.24-2.037L5.275,6.294l-2.86-3.575C2.225,2.482,2.197,2.158,2.341,1.892
		C2.472,1.65,2.725,1.5,3.002,1.5c0.023,0,0.047,0.001,0.071,0.003L18.038,3h2.212C22.318,3,24,4.682,24,6.75V9
		c0,1.636-0.594,3.214-1.671,4.445l-3.579,4.087v2.718c0,1.241-1.009,2.25-2.25,2.25H8.864z M8.118,20.321
		C8.154,20.708,8.475,21,8.864,21H16.5c0.414,0,0.75-0.336,0.75-0.75v-1.5H7.968L8.118,20.321z M17.25,17.25V4.429L4.699,3.174
		l1.886,2.358c0.091,0.114,0.147,0.252,0.161,0.397L7.825,17.25H17.25z M18.75,15.255l2.45-2.798C22.038,11.5,22.5,10.272,22.5,9
		V6.75c0-1.241-1.009-2.25-2.25-2.25h-1.5V15.255z"/>
	<path d="M2.25,12.75C1.009,12.75,0,11.741,0,10.5c0-0.066,0.009-0.131,0.026-0.195C0.393,8.946,0.92,7.63,1.591,6.393
		C1.722,6.151,1.975,6,2.25,6s0.528,0.15,0.659,0.392C3.58,7.63,4.107,8.946,4.474,10.304C4.491,10.369,4.5,10.435,4.5,10.5
		C4.5,11.741,3.491,12.75,2.25,12.75z M1.505,10.584c0.042,0.377,0.359,0.666,0.745,0.666s0.704-0.288,0.745-0.666
		c-0.2-0.72-0.45-1.428-0.745-2.117C1.954,9.156,1.705,9.865,1.505,10.584z"/>
</g>
</svg>
