<?xml version="1.0" encoding="utf-8"?>
<!-- Generator: Adobe Illustrator 22.1.0, SVG Export Plug-In . SVG Version: 6.00 Build 0)  -->
<svg version="1.1" id="Regular" xmlns="http://www.w3.org/2000/svg" xmlns:xlink="http://www.w3.org/1999/xlink" x="0px" y="0px"
	 viewBox="0 0 24 24" style="enable-background:new 0 0 24 24;" xml:space="preserve">
<title>water-protection-drop-hold</title>
<g>
	<path d="M8.251,24c-0.414,0-0.75-0.336-0.75-0.75v-3c0-0.744-0.218-1.465-0.631-2.084l-1.143-1.709
		c-0.133-0.22-0.347-0.343-0.58-0.343c-0.116,0-0.231,0.032-0.331,0.093l-0.031,0.02c-0.256,0.172-0.354,0.517-0.224,0.803
		l1.333,2.219c0.103,0.172,0.133,0.373,0.085,0.568c-0.048,0.195-0.17,0.358-0.341,0.461c-0.117,0.07-0.251,0.107-0.386,0.107
		c-0.262,0-0.509-0.139-0.643-0.364l-1.352-2.25c-0.01-0.017-0.02-0.034-0.028-0.052C3.076,17.413,3,17.07,3.007,16.724
		c-0.004-0.029-0.006-0.058-0.006-0.088v-3.75c0-0.414-0.336-0.75-0.75-0.75s-0.75,0.336-0.75,0.75v5.172
		c0,0.848,0.292,1.68,0.822,2.343l2.001,2.365c0.267,0.316,0.228,0.79-0.088,1.057C4.1,23.937,3.928,24,3.751,24
		c-0.221,0-0.43-0.097-0.573-0.266l-2.014-2.381c-0.753-0.94-1.163-2.108-1.163-3.295v-5.172c0-1.241,1.009-2.25,2.25-2.25
		s2.25,1.009,2.25,2.25v1.829c0.209-0.066,0.428-0.101,0.649-0.101c0.75,0,1.457,0.398,1.843,1.038l1.125,1.681
		c0.578,0.867,0.883,1.876,0.883,2.917v3C9.001,23.664,8.665,24,8.251,24z"/>
	<path d="M20.251,24c-0.177,0-0.349-0.063-0.484-0.177c-0.153-0.13-0.247-0.311-0.263-0.51c-0.017-0.2,0.045-0.394,0.175-0.547
		l2.014-2.381c0.519-0.649,0.809-1.478,0.809-2.326v-5.172c0-0.414-0.336-0.75-0.75-0.75s-0.75,0.336-0.75,0.75v3.75
		c0,0.021-0.001,0.04-0.003,0.06c0.011,0.356-0.066,0.71-0.224,1.025c-0.01,0.019-0.018,0.034-0.026,0.048l-1.354,2.253
		c-0.135,0.224-0.382,0.364-0.644,0.364c-0.135,0-0.269-0.037-0.385-0.107c-0.172-0.103-0.293-0.267-0.342-0.461
		c-0.049-0.195-0.018-0.396,0.085-0.568l1.334-2.22c0.131-0.288,0.033-0.634-0.231-0.81l-0.033-0.021
		c-0.094-0.056-0.208-0.088-0.325-0.088c-0.228,0-0.443,0.121-0.56,0.316l-1.161,1.74c-0.413,0.619-0.631,1.339-0.631,2.083v3
		c0,0.414-0.336,0.75-0.75,0.75s-0.75-0.336-0.75-0.75v-3c0-1.041,0.305-2.05,0.883-2.916l1.142-1.71
		c0.279-0.467,0.745-0.81,1.302-0.949c0.173-0.043,0.349-0.065,0.525-0.065c0.22,0,0.438,0.034,0.647,0.101v-1.824
		c0-1.241,1.009-2.25,2.25-2.25s2.25,1.009,2.25,2.25v5.172c0,1.188-0.409,2.352-1.151,3.28l-2.027,2.397
		C20.681,23.903,20.472,24,20.251,24z"/>
	<path d="M11.999,14.317c-1.362,0-2.651-0.523-3.629-1.472c-0.999-0.97-1.561-2.271-1.582-3.663c-0.001-0.052-0.001-0.104,0-0.155
		C6.788,5.12,10.605,0,12,0c1.394,0,5.211,5.121,5.213,9.034c0.042,2.867-2.262,5.239-5.134,5.283L11.999,14.317z M12,1.595
		c-0.925,0.764-3.712,4.359-3.712,7.442c-0.001,0.047-0.001,0.085,0,0.123c0.03,2.016,1.698,3.657,3.719,3.657l0.05,0
		c2.046-0.031,3.687-1.721,3.656-3.768C15.713,5.955,12.925,2.359,12,1.595z"/>
	<path d="M12,11.25c-1.241,0-2.25-1.009-2.25-2.25c0-0.414,0.336-0.75,0.75-0.75S11.25,8.586,11.25,9S11.586,9.75,12,9.75
		s0.75,0.336,0.75,0.75S12.414,11.25,12,11.25z"/>
</g>
</svg>
