<?xml version="1.0" encoding="utf-8"?>
<!-- Generator: Adobe Illustrator 22.1.0, SVG Export Plug-In . SVG Version: 6.00 Build 0)  -->
<svg version="1.1" id="Regular" xmlns="http://www.w3.org/2000/svg" xmlns:xlink="http://www.w3.org/1999/xlink" x="0px" y="0px"
	 viewBox="0 0 24 24" style="enable-background:new 0 0 24 24;" xml:space="preserve">
<title>water-straw</title>
<g>
	<path d="M6.744,24c-1.152,0-2.136-0.9-2.24-2.047L2.259,7.678C2.256,7.66,2.254,7.642,2.253,7.625
		C2.221,7.22,2.347,6.832,2.608,6.527c0.26-0.305,0.625-0.491,1.025-0.522C3.67,6.002,3.71,6,3.75,6h9.435l0.597-2.985
		C14.131,1.268,15.677,0,17.459,0H21c0.414,0,0.75,0.336,0.75,0.75S21.414,1.5,21,1.5h-3.541c-1.069,0-1.997,0.761-2.207,1.809
		L14.714,6h3.851c0.827,0,1.5,0.674,1.5,1.501c0,0.04-0.002,0.081-0.005,0.122L17.994,21.97C17.894,23.1,16.909,24,15.755,24H6.744z
		 M5.991,21.757c0.003,0.019,0.005,0.035,0.006,0.05c0.032,0.39,0.36,0.692,0.747,0.692h9.011c0.387,0,0.716-0.302,0.748-0.688
		c0.001-0.01,0.005-0.043,0.007-0.053l0.975-6.765c-0.076,0.004-0.152,0.006-0.227,0.006c-1.109,0-2.185-0.414-3.006-1.146
		c-0.372,0.332-0.802,0.603-1.266,0.796l-0.999,4.997c-0.07,0.349-0.379,0.603-0.735,0.603c-0.051,0-0.101-0.005-0.15-0.015
		c-0.194-0.039-0.363-0.152-0.475-0.319c-0.111-0.167-0.151-0.367-0.111-0.563l0.872-4.36c-0.049,0.001-0.098,0.002-0.146,0.002
		c-0.979,0-1.91-0.31-2.69-0.895c-0.103-0.077-0.203-0.159-0.299-0.246c-0.819,0.733-1.891,1.148-2.995,1.148
		c-0.108,0-0.218-0.004-0.329-0.013L5.991,21.757z M4.684,13.445c0.189,0.036,0.38,0.055,0.572,0.055c0.949,0,1.822-0.438,2.394-1.2
		c0.137-0.182,0.361-0.292,0.6-0.292s0.463,0.109,0.6,0.292c0.171,0.228,0.373,0.429,0.6,0.6c0.521,0.391,1.141,0.597,1.793,0.597
		c0.15,0,0.3-0.011,0.449-0.033L12.885,7.5L3.75,7.501L4.684,13.445z M14.25,12c0.235,0,0.459,0.112,0.6,0.3
		c0.563,0.75,1.463,1.198,2.405,1.198c0.15,0,0.301-0.011,0.449-0.034l0.861-5.973L14.415,7.5l-1.019,5.097
		c0.091-0.093,0.176-0.192,0.255-0.297C13.791,12.112,14.016,12,14.25,12z"/>
</g>
</svg>
