<?xml version="1.0" encoding="utf-8"?>
<!-- Generator: Adobe Illustrator 22.1.0, SVG Export Plug-In . SVG Version: 6.00 Build 0)  -->
<svg version="1.1" id="Regular" xmlns="http://www.w3.org/2000/svg" xmlns:xlink="http://www.w3.org/1999/xlink" x="0px" y="0px"
	 viewBox="0 0 24 24" style="enable-background:new 0 0 24 24;" xml:space="preserve">
<title>water-protection-drop</title>
<g>
	<path d="M11.962,18.817c-1.362,0-2.651-0.523-3.629-1.472c-0.999-0.969-1.561-2.271-1.582-3.663c-0.001-0.053-0.001-0.104,0-0.155
		c0-3.907,3.817-9.027,5.212-9.027c1.394,0,5.211,5.122,5.213,9.034c0.042,2.867-2.262,5.239-5.135,5.282L11.962,18.817z
		 M11.963,6.095c-0.925,0.764-3.712,4.36-3.712,7.442c-0.001,0.047-0.001,0.085,0,0.123c0.015,0.991,0.415,1.918,1.127,2.609
		c0.696,0.676,1.619,1.048,2.597,1.048l0.046,0c2.046-0.031,3.687-1.721,3.656-3.768C15.676,10.455,12.888,6.859,11.963,6.095z"/>
	<path d="M23.153,14.25c-0.033,0-0.065-0.002-0.099-0.006c-0.41-0.055-0.699-0.433-0.646-0.842c0.062-0.463,0.093-0.935,0.094-1.402
		c0-5.789-4.71-10.5-10.5-10.5C6.21,1.5,1.5,6.21,1.5,12c0,0.467,0.032,0.938,0.093,1.401c0.055,0.41-0.234,0.788-0.644,0.843
		c-0.034,0.004-0.067,0.006-0.099,0.006c-0.374,0-0.694-0.28-0.743-0.651C0.036,13.07,0,12.532,0,12C0,5.383,5.383,0,12,0
		c6.618,0,12.002,5.383,12.002,12c0,0.532-0.036,1.07-0.106,1.599C23.846,13.97,23.527,14.25,23.153,14.25z"/>
	<path d="M20.907,19.622c-0.167,0-0.331-0.057-0.462-0.16c-0.325-0.255-0.383-0.727-0.128-1.053
		c0.531-0.678,0.972-1.422,1.311-2.213c0.118-0.276,0.389-0.455,0.69-0.455c0.102,0,0.201,0.02,0.294,0.06
		c0.381,0.164,0.558,0.605,0.395,0.985c-0.391,0.911-0.898,1.768-1.509,2.547C21.354,19.517,21.139,19.622,20.907,19.622z"/>
	<path d="M16.338,23.128c-0.306,0-0.578-0.183-0.694-0.466c-0.076-0.186-0.075-0.39,0.002-0.574
		c0.078-0.185,0.222-0.328,0.408-0.404c0.795-0.325,1.545-0.754,2.23-1.274c0.131-0.1,0.288-0.153,0.454-0.153
		c0.236,0,0.453,0.108,0.597,0.295c0.122,0.16,0.174,0.357,0.147,0.556s-0.13,0.375-0.289,0.496
		c-0.788,0.599-1.653,1.094-2.57,1.469C16.532,23.109,16.436,23.128,16.338,23.128z"/>
	<path d="M7.687,23.128c-0.098,0-0.193-0.019-0.284-0.056c-0.917-0.374-1.782-0.868-2.571-1.469
		c-0.329-0.251-0.392-0.723-0.142-1.051c0.143-0.188,0.36-0.296,0.597-0.296c0.166,0,0.323,0.053,0.454,0.154
		c0.683,0.521,1.433,0.949,2.229,1.274c0.185,0.075,0.33,0.219,0.408,0.404c0.078,0.185,0.079,0.389,0.003,0.574
		C8.266,22.945,7.993,23.128,7.687,23.128z"/>
	<path d="M3.115,19.623c-0.232,0-0.448-0.105-0.591-0.288c-0.611-0.781-1.119-1.638-1.509-2.548
		c-0.163-0.38,0.014-0.821,0.393-0.985c0.096-0.041,0.194-0.061,0.295-0.061c0.301,0,0.572,0.178,0.69,0.455
		c0.339,0.79,0.78,1.535,1.311,2.214c0.124,0.158,0.178,0.354,0.154,0.553c-0.024,0.199-0.125,0.377-0.282,0.5
		C3.446,19.566,3.282,19.623,3.115,19.623z"/>
	<path d="M12,24c-0.532,0-1.07-0.035-1.599-0.105c-0.41-0.055-0.699-0.432-0.645-0.842c0.049-0.371,0.369-0.651,0.744-0.651
		c0.032,0,0.065,0.002,0.097,0.006C11.062,22.469,11.533,22.5,12,22.5s0.938-0.031,1.401-0.093c0.034-0.004,0.067-0.007,0.1-0.007
		c0.374,0,0.693,0.28,0.743,0.651c0.054,0.41-0.235,0.788-0.645,0.843C13.07,23.965,12.532,24,12,24z"/>
</g>
</svg>
