<?xml version="1.0" encoding="utf-8"?>
<!-- Generator: Adobe Illustrator 22.1.0, SVG Export Plug-In . SVG Version: 6.00 Build 0)  -->
<svg version="1.1" id="Regular" xmlns="http://www.w3.org/2000/svg" xmlns:xlink="http://www.w3.org/1999/xlink" x="0px" y="0px"
	 viewBox="0 0 24 24" style="enable-background:new 0 0 24 24;" xml:space="preserve">
<title>water-pitcher-3</title>
<g>
	<path d="M8.331,24.003c-0.956-0.04-1.769-0.714-1.976-1.639l-2.399-8.716c-0.437-1.576-0.18-3.27,0.705-4.647l1.28-1.939
		c0.767-1.195,0.885-2.691,0.313-3.999l-0.885-2.01C5.266,0.82,5.288,0.554,5.427,0.34C5.566,0.128,5.801,0,6.055,0h11.888
		c0.255,0,0.49,0.127,0.628,0.341c0.139,0.212,0.161,0.479,0.058,0.711l-0.886,2.012c-0.571,1.307-0.452,2.804,0.319,4.006
		l1.27,1.927c0.889,1.382,1.147,3.077,0.709,4.655l-2.405,8.739c-0.208,0.905-1.016,1.574-1.96,1.611l-7.33,0
		C8.342,24.003,8.337,24.003,8.331,24.003z M7.81,22.002c0.067,0.296,0.294,0.491,0.569,0.502l7.268,0
		c0.244-0.01,0.474-0.207,0.532-0.468c0.001-0.003,2.142-7.786,2.142-7.786H5.677L7.81,22.002z M18.697,12.75
		c0.153-1.019-0.067-2.073-0.621-2.934l-1.271-1.928c-1.046-1.631-1.208-3.658-0.434-5.426L16.793,1.5H7.205l0.423,0.96
		c0.774,1.77,0.613,3.796-0.429,5.42l-1.28,1.94c-0.551,0.857-0.771,1.911-0.616,2.93H18.697z"/>
</g>
</svg>
