<?xml version="1.0" encoding="utf-8"?>
<!-- Generator: Adobe Illustrator 22.1.0, SVG Export Plug-In . SVG Version: 6.00 Build 0)  -->
<svg version="1.1" id="Layer_1" xmlns="http://www.w3.org/2000/svg" xmlns:xlink="http://www.w3.org/1999/xlink" x="0px" y="0px"
	 viewBox="0 0 24 24" style="enable-background:new 0 0 24 24;" xml:space="preserve">
<title>water-dam</title>
<g>
	<path d="M2.999,24.001c-1.241,0-2.25-1.009-2.25-2.25v-8.25c0-0.052,0.005-0.105,0.016-0.156l2.123-9.908
		C3.036,2.75,3.652,2.252,4.355,2.251h1.788c0.703,0,1.319,0.499,1.466,1.186l1.92,8.96l4.049-2.024
		c0.21-0.105,0.435-0.158,0.668-0.158c0.573,0,1.088,0.318,1.344,0.83c0.104,0.207,0.158,0.439,0.158,0.67v0.573l3.83-1.915
		c0.21-0.105,0.435-0.158,0.668-0.158c0.574,0,1.089,0.318,1.344,0.83c0.104,0.207,0.158,0.439,0.158,0.67v10.036
		c0,1.241-1.009,2.25-2.25,2.25H2.999z M2.249,21.751c0,0.414,0.336,0.75,0.75,0.75h16.5c0.414,0,0.75-0.336,0.75-0.75V11.715
		l-4.915,2.457c-0.104,0.052-0.22,0.079-0.336,0.079c-0.139,0-0.275-0.039-0.394-0.112c-0.22-0.136-0.356-0.381-0.356-0.638v-1.786
		l-4.915,2.457c-0.104,0.052-0.22,0.079-0.336,0.079c-0.112,0-0.225-0.026-0.326-0.075c-0.206-0.099-0.359-0.293-0.407-0.518
		L6.142,3.752l-1.786,0l-2.108,9.83V21.751z"/>
	<path d="M8.999,18.001c-0.414,0-0.75-0.336-0.75-0.75s0.336-0.75,0.75-0.75h3c0.414,0,0.75,0.336,0.75,0.75s-0.336,0.75-0.75,0.75
		H8.999z"/>
	<path d="M8.999,21.001c-0.414,0-0.75-0.336-0.75-0.75s0.336-0.75,0.75-0.75h3c0.414,0,0.75,0.336,0.75,0.75s-0.336,0.75-0.75,0.75
		H8.999z"/>
	<path d="M14.999,18.001c-0.414,0-0.75-0.336-0.75-0.75s0.336-0.75,0.75-0.75h3c0.414,0,0.75,0.336,0.75,0.75s-0.336,0.75-0.75,0.75
		H14.999z"/>
	<path d="M14.999,21.001c-0.414,0-0.75-0.336-0.75-0.75s0.336-0.75,0.75-0.75h3c0.414,0,0.75,0.336,0.75,0.75s-0.336,0.75-0.75,0.75
		H14.999z"/>
	<path d="M17.397,3.493c-1.74,0-3.656-0.441-5.692-1.31c-0.814-0.37-1.697-0.563-2.563-0.563C9.1,1.619,9.018,1.62,9.018,1.62
		c-0.418,0-0.757-0.331-0.764-0.737C8.247,0.47,8.578,0.128,8.991,0.12L9.103,0.12c1.104,0,2.213,0.239,3.206,0.69
		c1.837,0.784,3.551,1.183,5.086,1.183c3.114,0,4.461-1.638,4.517-1.708c0.143-0.179,0.357-0.282,0.587-0.282
		c0.168,0,0.333,0.057,0.465,0.161c0.323,0.256,0.379,0.727,0.125,1.051C23.016,1.307,21.258,3.493,17.397,3.493z"/>
</g>
</svg>
