<?xml version="1.0" encoding="utf-8"?>
<!-- Generator: Adobe Illustrator 22.1.0, SVG Export Plug-In . SVG Version: 6.00 Build 0)  -->
<svg version="1.1" id="Regular" xmlns="http://www.w3.org/2000/svg" xmlns:xlink="http://www.w3.org/1999/xlink" x="0px" y="0px"
	 viewBox="0 0 24 24" style="enable-background:new 0 0 24 24;" xml:space="preserve">
<title>weather-app-rain-umbrella</title>
<g>
	<path d="M3.483,24C1.563,24,0.001,22.439,0,20.52V4.983C-0.001,3.063,1.561,1.501,3.481,1.5H8.25C8.664,1.5,9,1.836,9,2.25
		S8.664,3,8.25,3H3.483C2.389,3,1.5,3.89,1.5,4.983V18H12v-4.5c0-0.414,0.336-0.75,0.75-0.75s0.75,0.336,0.75,0.75v7.017
		c0,0.93-0.362,1.804-1.019,2.462C11.824,23.637,10.949,24,10.019,24H3.483z M1.5,20.517c0,1.093,0.89,1.983,1.982,1.983h6.535
		c0.53,0,1.029-0.207,1.403-0.581c0.374-0.375,0.58-0.872,0.58-1.402V19.5H1.5V20.517z"/>
	<path d="M18,17.25c-1.241,0-2.25-1.009-2.25-2.25V9.865c-0.153-0.454-0.676-0.617-1.089-0.617c-0.096,0-0.948,0.019-1.11,0.68
		c-0.083,0.336-0.383,0.571-0.73,0.571c-0.027,0-0.055-0.001-0.082-0.005c-0.378-0.044-0.663-0.362-0.666-0.739
		c-0.004-0.499-0.77-0.512-0.803-0.512c-0.073,0.001-0.765,0.019-0.762,0.502c0.003,0.404-0.311,0.735-0.714,0.754
		C9.786,10.5,9.767,10.5,9.749,10.5c-0.38,0-0.704-0.3-0.738-0.684C8.995,9.64,8.986,9.458,8.982,9.278
		c-0.036-2.041,0.724-3.974,2.141-5.443c1.237-1.282,2.869-2.086,4.626-2.286V0.75C15.75,0.336,16.087,0,16.5,0
		s0.75,0.336,0.75,0.75v0.799c1.954,0.223,3.719,1.172,4.987,2.687c1.31,1.566,1.932,3.547,1.752,5.581
		C23.955,10.2,23.627,10.5,23.243,10.5c0,0-0.031-0.001-0.038-0.001c-0.402-0.019-0.716-0.351-0.713-0.754
		c0.003-0.482-0.689-0.501-0.768-0.501c-0.042,0-0.793,0.006-0.797,0.512c-0.003,0.378-0.288,0.695-0.663,0.739
		c-0.029,0.003-0.058,0.005-0.087,0.005c-0.346,0-0.646-0.235-0.728-0.572c-0.162-0.661-1.013-0.68-1.11-0.68
		c-0.412,0-0.936,0.163-1.088,0.617V15c0,0.414,0.336,0.75,0.75,0.75s0.75-0.336,0.75-0.75s0.336-0.75,0.75-0.75
		s0.75,0.336,0.75,0.75C20.25,16.241,19.241,17.25,18,17.25z M14.661,7.748c0.699,0,1.359,0.235,1.839,0.643
		c0.479-0.408,1.14-0.643,1.838-0.643c0.646,0,1.271,0.207,1.741,0.565c0.418-0.362,1.003-0.57,1.635-0.57
		c0.229,0.002,0.453,0.03,0.665,0.083c-0.209-0.961-0.65-1.859-1.293-2.627c-1.053-1.258-2.533-2.031-4.167-2.176
		C16.777,3.01,16.632,3.002,16.487,3c-2.843,0.051-5.265,2.083-5.864,4.825c0.208-0.052,0.425-0.08,0.643-0.081
		c0.645,0.003,1.235,0.211,1.654,0.57C13.39,7.955,14.015,7.748,14.661,7.748z"/>
</g>
</svg>
