<?xml version="1.0" encoding="utf-8"?>
<!-- Generator: Adobe Illustrator 22.1.0, SVG Export Plug-In . SVG Version: 6.00 Build 0)  -->
<svg version="1.1" id="Regular" xmlns="http://www.w3.org/2000/svg" xmlns:xlink="http://www.w3.org/1999/xlink" x="0px" y="0px"
	 viewBox="0 0 24 24" style="enable-background:new 0 0 24 24;" xml:space="preserve">
<title>weather-app-cloud-location</title>
<g>
	<path d="M5.248,13.502c-0.674,0-1.346-0.153-1.949-0.442c-1.083-0.519-1.899-1.429-2.297-2.561C0.603,9.366,0.67,8.146,1.189,7.064
		C1.708,5.981,2.617,5.165,3.75,4.767c0.485-0.171,0.988-0.257,1.495-0.257c0.367,0,0.732,0.045,1.088,0.135
		c0.883-2.786,3.493-4.711,6.437-4.711c0.601,0,1.202,0.081,1.786,0.242c3.589,0.986,5.706,4.709,4.72,8.297
		c-0.089,0.324-0.386,0.551-0.723,0.551c-0.067,0-0.135-0.009-0.2-0.027C18.161,8.945,18,8.82,17.901,8.646s-0.125-0.376-0.071-0.57
		c0.767-2.791-0.88-5.686-3.671-6.453c-0.455-0.125-0.922-0.188-1.39-0.188c-2.357,0-4.439,1.587-5.064,3.859
		C7.667,5.431,7.634,5.576,7.606,5.727C7.605,5.743,7.603,5.759,7.6,5.776C7.535,6.098,7.502,6.427,7.501,6.755
		c0,0.217,0.014,0.437,0.041,0.653c0.052,0.41-0.24,0.785-0.649,0.838C6.861,8.25,6.829,8.252,6.797,8.252
		c-0.375,0-0.695-0.281-0.743-0.653C6.018,7.319,5.999,7.035,5.998,6.755c0-0.026,0.001-0.052,0.004-0.078
		c0.003-0.174,0.015-0.358,0.037-0.556c-0.261-0.073-0.529-0.11-0.799-0.11c-0.336,0-0.67,0.057-0.991,0.171
		C3.493,6.447,2.887,6.991,2.541,7.712c-0.346,0.721-0.39,1.534-0.125,2.289c0.266,0.755,0.809,1.361,1.531,1.707
		c0.402,0.192,0.849,0.294,1.294,0.294h5.225c0.414,0,0.75,0.336,0.75,0.75s-0.336,0.75-0.75,0.75H5.248z"/>
	<path d="M17.998,16.952c-0.62,0-1.125-0.505-1.125-1.125c0-0.573,0.427-1.048,0.995-1.115c0.042-0.007,0.086-0.011,0.13-0.011
		s0.088,0.004,0.13,0.011c0.531,0.062,0.942,0.487,0.987,1.019c0.004,0.034,0.007,0.063,0.007,0.094
		c0,0.012-0.001,0.028-0.002,0.042c-0.008,0.281-0.124,0.551-0.325,0.753c-0.212,0.213-0.494,0.331-0.794,0.332c0,0-0.001,0-0.001,0
		C17.999,16.952,17.998,16.952,17.998,16.952z"/>
	<path d="M17.995,24.001c-0.337,0-0.656-0.111-0.924-0.32c-0.095-0.075-0.181-0.161-0.255-0.255
		c-1.856-2.375-4.069-5.621-4.069-7.601c0-2.895,2.355-5.25,5.25-5.25s5.25,2.355,5.25,5.25c0,1.98-2.212,5.226-4.068,7.6
		c-0.248,0.316-0.603,0.517-1.001,0.565C18.118,23.998,18.056,24.001,17.995,24.001z M17.998,12.076c-2.068,0-3.75,1.682-3.75,3.75
		c0,1.159,1.437,3.717,3.75,6.676c2.313-2.959,3.75-5.517,3.75-6.676C21.748,13.758,20.066,12.076,17.998,12.076z"/>
</g>
</svg>
