<?xml version="1.0" encoding="utf-8"?>
<!-- Generator: Adobe Illustrator 22.1.0, SVG Export Plug-In . SVG Version: 6.00 Build 0)  -->
<svg version="1.1" id="Regular" xmlns="http://www.w3.org/2000/svg" xmlns:xlink="http://www.w3.org/1999/xlink" x="0px" y="0px"
	 viewBox="0 0 24 24" style="enable-background:new 0 0 24 24;" xml:space="preserve">
<title>weather-wind-1</title>
<g>
	<path d="M19.5,11.484c-0.149,0-0.294-0.044-0.418-0.127c-0.343-0.231-0.435-0.698-0.204-1.041c0.389-0.579,0.607-1.256,0.63-1.961
		C19.502,8.32,19.5,8.285,19.5,8.25c0-0.039,0.003-0.078,0.01-0.118c-0.023-0.906-0.369-1.767-0.977-2.433
		c-0.043-0.026-0.088-0.058-0.132-0.102c-0.044-0.044-0.076-0.09-0.099-0.129c-0.152-0.141-0.299-0.258-0.446-0.358
		c-0.576-0.387-1.248-0.604-1.947-0.63C15.855,4.494,15.803,4.5,15.75,4.5c-0.05,0-0.1-0.005-0.151-0.017
		C14.67,4.526,13.803,4.9,13.146,5.542c-0.011,0.016-0.026,0.035-0.045,0.054c-0.011,0.012-0.026,0.024-0.041,0.036
		c-0.158,0.165-0.292,0.329-0.407,0.501C12.6,6.21,12.551,6.289,12.505,6.37c-0.133,0.234-0.383,0.38-0.652,0.38
		c-0.129,0-0.257-0.034-0.37-0.098c-0.359-0.204-0.486-0.663-0.281-1.022c0.065-0.114,0.133-0.225,0.206-0.333
		c0.043-0.064,0.089-0.128,0.136-0.192L9.917,3.477c-0.142-0.141-0.22-0.33-0.22-0.53c0-0.2,0.078-0.389,0.22-0.53
		c0.142-0.142,0.33-0.22,0.53-0.22s0.389,0.078,0.53,0.22l1.624,1.624C13.306,3.507,14.124,3.164,15,3.036V0.75
		C15,0.336,15.336,0,15.75,0s0.75,0.336,0.75,0.75v2.28c0.785,0.11,1.537,0.396,2.193,0.836c0.073,0.049,0.146,0.102,0.221,0.159
		l1.609-1.608c0.142-0.142,0.33-0.22,0.53-0.22s0.389,0.078,0.53,0.22c0.142,0.142,0.22,0.33,0.22,0.53c0,0.2-0.078,0.389-0.22,0.53
		L19.97,5.09c0.522,0.703,0.864,1.539,0.987,2.41h2.292C23.664,7.5,24,7.836,24,8.25S23.664,9,23.25,9h-2.296
		c-0.114,0.769-0.398,1.507-0.832,2.152C19.983,11.36,19.75,11.484,19.5,11.484z"/>
	<path d="M17.657,17.299c-0.109,0-0.215-0.023-0.314-0.069c-0.181-0.083-0.32-0.233-0.389-0.421
		c-0.07-0.188-0.062-0.392,0.022-0.574c0.374-0.812,0.366-1.74-0.02-2.546c-0.346-0.721-0.952-1.264-1.706-1.53
		c-0.322-0.113-0.655-0.171-0.991-0.171c-0.268,0-0.532,0.036-0.791,0.108c0.021,0.21,0.032,0.421,0.033,0.63
		c0,0.285-0.018,0.569-0.053,0.847c-0.047,0.374-0.367,0.656-0.744,0.656c-0.031,0-0.061-0.002-0.093-0.006
		c-0.376-0.048-0.658-0.367-0.658-0.744c0-0.031,0.002-0.062,0.006-0.093C11.986,13.17,12,12.949,12,12.73
		c-0.001-0.324-0.034-0.651-0.098-0.971C11.371,9.391,9.217,7.665,6.78,7.665c-0.269,0-0.541,0.021-0.809,0.063
		C4.586,7.945,3.367,8.688,2.541,9.82c-0.827,1.133-1.163,2.52-0.947,3.905c0.064,0.408-0.217,0.793-0.625,0.857
		c-0.039,0.006-0.078,0.009-0.116,0.009c-0.372,0-0.684-0.267-0.741-0.635c-0.278-1.781,0.154-3.564,1.217-5.021
		s2.63-2.412,4.411-2.69c0.344-0.054,0.695-0.081,1.041-0.081c2.838,0,5.398,1.818,6.352,4.466c0.366-0.095,0.741-0.143,1.12-0.143
		c0.507,0,1.01,0.086,1.495,0.257c1.133,0.398,2.042,1.214,2.561,2.296c0.58,1.21,0.591,2.603,0.03,3.822
		C18.216,17.128,17.949,17.299,17.657,17.299z"/>
	<path d="M12,24c-0.414,0-0.75-0.336-0.75-0.75S11.586,22.5,12,22.5h0.75c0.414,0,0.75-0.336,0.75-0.75S13.164,21,12.75,21h-12
		C0.336,21,0,20.664,0,20.25s0.336-0.75,0.75-0.75h12c1.241,0,2.25,1.009,2.25,2.25S13.991,24,12.75,24H12z"/>
	<path d="M0.75,18C0.336,18,0,17.664,0,17.25s0.336-0.75,0.75-0.75H9c0.414,0,0.75-0.336,0.75-0.75S9.414,15,9,15H8.25
		c-0.414,0-0.75-0.336-0.75-0.75s0.336-0.75,0.75-0.75H9c1.241,0,2.25,1.009,2.25,2.25S10.241,18,9,18H0.75z"/>
</g>
</svg>
