<?xml version="1.0" encoding="utf-8"?>
<!-- Generator: Adobe Illustrator 22.1.0, SVG Export Plug-In . SVG Version: 6.00 Build 0)  -->
<svg version="1.1" id="Regular" xmlns="http://www.w3.org/2000/svg" xmlns:xlink="http://www.w3.org/1999/xlink" x="0px" y="0px"
	 viewBox="0 0 24 24" style="enable-background:new 0 0 24 24;" xml:space="preserve">
<title>weather-app-sun-location</title>
<g>
	<path d="M11.539,19.486c-4.128-0.255-7.278-3.821-7.023-7.948c0.123-2,1.018-3.831,2.52-5.158c1.372-1.212,3.133-1.88,4.958-1.88
		c0.156,0,0.313,0.005,0.47,0.014c2.311,0.143,4.391,1.317,5.708,3.221c0.235,0.34,0.149,0.809-0.191,1.044
		c-0.125,0.087-0.273,0.133-0.426,0.133l0,0c-0.247,0-0.477-0.121-0.617-0.323c-1.053-1.524-2.717-2.463-4.566-2.578
		C12.248,6.004,12.125,6,12.002,6c-3.164,0-5.794,2.473-5.99,5.63c-0.204,3.302,2.317,6.155,5.619,6.359
		c0.2,0.012,0.383,0.102,0.516,0.252s0.199,0.343,0.186,0.543c-0.024,0.395-0.353,0.704-0.748,0.704
		C11.578,19.487,11.546,19.486,11.539,19.486z"/>
	<path d="M12,3c-0.414,0-0.75-0.336-0.75-0.75v-1.5C11.25,0.336,11.586,0,12,0s0.75,0.336,0.75,0.75v1.5C12.75,2.664,12.414,3,12,3z
		"/>
	<path d="M18.894,5.856c-0.2,0-0.389-0.078-0.53-0.22c-0.142-0.142-0.22-0.33-0.22-0.53c0-0.2,0.078-0.389,0.22-0.53l1.061-1.061
		c0.142-0.142,0.33-0.22,0.53-0.22s0.389,0.078,0.53,0.22c0.142,0.142,0.22,0.33,0.22,0.53c0,0.2-0.078,0.389-0.22,0.53
		l-1.061,1.061C19.283,5.778,19.094,5.856,18.894,5.856z"/>
	<path d="M12,24c-0.414,0-0.75-0.336-0.75-0.75v-1.5c0-0.414,0.336-0.75,0.75-0.75s0.75,0.336,0.75,0.75v1.5
		C12.75,23.664,12.414,24,12,24z"/>
	<path d="M4.045,20.705c-0.2,0-0.389-0.078-0.53-0.22c-0.142-0.142-0.22-0.33-0.22-0.53s0.078-0.389,0.22-0.53l1.061-1.061
		c0.141-0.142,0.33-0.22,0.53-0.22s0.389,0.078,0.53,0.22c0.292,0.292,0.292,0.768,0,1.061l-1.061,1.061
		C4.434,20.627,4.246,20.705,4.045,20.705z"/>
	<path d="M0.75,12.75C0.336,12.75,0,12.414,0,12s0.336-0.75,0.75-0.75h1.5C2.664,11.25,3,11.586,3,12s-0.336,0.75-0.75,0.75H0.75z"
		/>
	<path d="M5.106,5.856c-0.2,0-0.389-0.078-0.53-0.22L3.515,4.575c-0.142-0.141-0.22-0.33-0.22-0.53s0.078-0.389,0.22-0.53
		c0.141-0.142,0.33-0.22,0.53-0.22s0.389,0.078,0.53,0.22l1.061,1.061c0.142,0.141,0.22,0.33,0.22,0.53s-0.078,0.389-0.22,0.53
		C5.495,5.778,5.306,5.856,5.106,5.856z"/>
	<path d="M18.75,16.95c-0.62,0-1.125-0.505-1.125-1.125c0-0.573,0.427-1.048,0.995-1.115c0.042-0.007,0.086-0.011,0.13-0.011
		s0.088,0.004,0.131,0.011c0.513,0.06,0.923,0.47,0.983,0.983c0.008,0.042,0.011,0.086,0.011,0.131s-0.004,0.088-0.011,0.131
		c-0.06,0.509-0.466,0.918-0.974,0.982C18.843,16.946,18.796,16.95,18.75,16.95z"/>
	<path d="M18.749,23.999c-0.339,0-0.658-0.11-0.925-0.319c-0.095-0.075-0.181-0.161-0.255-0.255
		c-1.856-2.375-4.069-5.621-4.069-7.601c0-2.895,2.355-5.25,5.25-5.25S24,12.929,24,15.824c0,1.979-2.212,5.225-4.068,7.6
		C19.645,23.79,19.214,23.999,18.749,23.999z M18.75,12.074c-2.068,0-3.75,1.682-3.75,3.75c0,1.159,1.437,3.717,3.75,6.676
		c2.313-2.959,3.75-5.517,3.75-6.676C22.5,13.756,20.818,12.074,18.75,12.074z"/>
</g>
</svg>
