<?xml version="1.0" encoding="utf-8"?>
<!-- Generator: Adobe Illustrator 22.1.0, SVG Export Plug-In . SVG Version: 6.00 Build 0)  -->
<svg version="1.1" id="Regular" xmlns="http://www.w3.org/2000/svg" xmlns:xlink="http://www.w3.org/1999/xlink" x="0px" y="0px"
	 viewBox="0 0 24 24" style="enable-background:new 0 0 24 24;" xml:space="preserve">
<title>weather-cloud-sun-wind-1</title>
<g>
	<path d="M4.528,11.477c-0.252,0-0.486-0.125-0.625-0.335C3.474,10.496,3.194,9.76,3.084,8.993H0.779c-0.414,0-0.75-0.336-0.75-0.75
		s0.336-0.75,0.75-0.75h2.307c0.125-0.874,0.462-1.691,0.988-2.395L2.446,3.47c-0.142-0.141-0.22-0.33-0.22-0.53
		s0.078-0.389,0.22-0.53c0.141-0.142,0.33-0.22,0.53-0.22s0.389,0.078,0.53,0.22l1.626,1.626c0.081-0.062,0.161-0.118,0.24-0.171
		c0.647-0.43,1.387-0.71,2.156-0.819V0.743c0-0.414,0.336-0.75,0.75-0.75c0.414,0,0.75,0.336,0.75,0.75v2.306
		c0.874,0.126,1.69,0.464,2.392,0.991l1.631-1.63c0.142-0.142,0.33-0.219,0.53-0.219s0.389,0.078,0.53,0.22
		c0.292,0.292,0.292,0.768,0,1.061l-1.63,1.63c0.061,0.08,0.116,0.158,0.167,0.235c0.061,0.093,0.12,0.187,0.175,0.283
		c0.1,0.174,0.127,0.376,0.075,0.569c-0.052,0.193-0.176,0.355-0.35,0.455c-0.114,0.066-0.243,0.1-0.374,0.1
		c-0.267,0-0.516-0.144-0.65-0.375c-0.04-0.069-0.082-0.137-0.126-0.204c-0.13-0.196-0.279-0.38-0.443-0.549
		c-0.01-0.008-0.019-0.016-0.027-0.024c-0.01-0.01-0.019-0.02-0.028-0.031c-0.506-0.503-1.161-0.851-1.884-0.997
		C8.8,4.518,8.571,4.493,8.34,4.489c-0.02,0.002-0.04,0.004-0.06,0.004c-0.021,0-0.041-0.001-0.061-0.004
		C7.5,4.499,6.804,4.714,6.202,5.114C6.012,5.24,5.831,5.387,5.662,5.551C5.651,5.566,5.639,5.58,5.628,5.591
		C5.612,5.607,5.596,5.62,5.581,5.631C4.916,6.319,4.534,7.262,4.529,8.227c0,0.005,0,0.021,0,0.024
		c0.001,0.736,0.217,1.448,0.623,2.06c0.111,0.167,0.15,0.367,0.11,0.563c-0.04,0.196-0.153,0.365-0.32,0.476
		C4.819,11.433,4.675,11.477,4.528,11.477z"/>
	<path d="M19.92,18.868c-0.287,0-0.545-0.16-0.672-0.417c-0.183-0.371-0.031-0.822,0.34-1.005c1.257-0.621,2.197-1.695,2.647-3.023
		c0.449-1.328,0.355-2.752-0.267-4.01c-0.621-1.257-1.695-2.197-3.023-2.647c-0.549-0.186-1.117-0.28-1.688-0.28
		c-0.807,0-1.588,0.184-2.321,0.547c-1.464,0.724-2.521,2.112-2.829,3.715c-0.001,0.01-0.003,0.02-0.005,0.029
		c-0.062,0.311-0.095,0.639-0.096,0.967c0,0.214,0.013,0.431,0.04,0.646c0.005,0.04,0.007,0.071,0.007,0.102
		c0,0.377-0.282,0.697-0.656,0.744c-0.032,0.004-0.063,0.006-0.094,0.006c-0.377,0-0.696-0.282-0.744-0.656
		c-0.035-0.279-0.053-0.562-0.053-0.841c0.001-0.216,0.012-0.43,0.033-0.643c-0.264-0.075-0.534-0.113-0.808-0.113
		c-0.326,0-0.65,0.054-0.963,0.162c-0.751,0.258-1.357,0.793-1.706,1.506c-0.106,0.217-0.185,0.446-0.236,0.682
		c-0.074,0.343-0.382,0.592-0.733,0.592c-0.052,0-0.105-0.006-0.156-0.016c-0.406-0.088-0.664-0.487-0.577-0.891
		c0.076-0.354,0.195-0.699,0.355-1.025c0.525-1.073,1.436-1.878,2.566-2.266c0.473-0.162,0.962-0.245,1.456-0.245
		c0.377,0,0.75,0.048,1.115,0.143c0.566-1.716,1.795-3.139,3.42-3.942c0.943-0.466,1.947-0.702,2.986-0.702
		c0.735,0,1.464,0.121,2.169,0.359c1.708,0.578,3.089,1.787,3.887,3.403c0.799,1.616,0.921,3.447,0.343,5.155
		s-1.786,3.088-3.403,3.887C20.147,18.842,20.036,18.868,19.92,18.868z"/>
	<path d="M5.199,19.487c-1.349,0-2.896-0.405-4.729-1.239c-0.376-0.171-0.544-0.616-0.373-0.993c0.122-0.267,0.39-0.44,0.683-0.44
		c0.108,0,0.212,0.023,0.31,0.067c1.634,0.743,2.973,1.104,4.094,1.104c1.143,0,1.918-0.365,2.738-0.751
		c0.882-0.415,1.794-0.844,3.089-0.844c1.241,0,2.666,0.41,4.353,1.254c0.37,0.185,0.52,0.636,0.335,1.006
		c-0.128,0.256-0.385,0.415-0.671,0.415l0,0c-0.115,0-0.231-0.027-0.334-0.079c-1.504-0.752-2.669-1.102-3.666-1.102
		c-0.963,0-1.66,0.328-2.467,0.708C7.671,19.012,6.661,19.487,5.199,19.487z"/>
	<path d="M5.199,23.987c-1.349,0-2.896-0.405-4.729-1.239c-0.376-0.171-0.544-0.616-0.373-0.993c0.122-0.267,0.39-0.44,0.683-0.44
		c0.108,0,0.212,0.023,0.31,0.067c1.633,0.742,2.973,1.103,4.094,1.103c0,0,0,0,0,0c1.143,0,1.918-0.365,2.739-0.751
		c0.882-0.415,1.794-0.844,3.089-0.844c1.241,0,2.666,0.41,4.353,1.254c0.37,0.185,0.52,0.636,0.335,1.006
		c-0.128,0.256-0.385,0.415-0.671,0.415c0,0,0,0,0,0c-0.115,0-0.231-0.027-0.335-0.079c-1.504-0.752-2.669-1.102-3.666-1.102
		c-0.963,0-1.66,0.328-2.467,0.708C7.671,23.512,6.661,23.987,5.199,23.987z"/>
</g>
</svg>
