<?xml version="1.0" encoding="utf-8"?>
<!-- Generator: Adobe Illustrator 22.1.0, SVG Export Plug-In . SVG Version: 6.00 Build 0)  -->
<svg version="1.1" id="Regular" xmlns="http://www.w3.org/2000/svg" xmlns:xlink="http://www.w3.org/1999/xlink" x="0px" y="0px"
	 viewBox="0 0 24 24" style="enable-background:new 0 0 24 24;" xml:space="preserve">
<title>weather-rain</title>
<g>
	<path d="M4.497,11.509c-0.255,0-0.489-0.127-0.628-0.34c-0.423-0.647-0.697-1.382-0.803-2.144H0.747c-0.414,0-0.75-0.336-0.75-0.75
		s0.336-0.75,0.75-0.75h2.326C3.088,7.419,3.105,7.318,3.126,7.22c0.157-0.75,0.479-1.459,0.936-2.069L2.413,3.502
		c-0.142-0.141-0.22-0.33-0.22-0.53s0.078-0.389,0.22-0.53c0.141-0.142,0.33-0.22,0.53-0.22s0.389,0.078,0.53,0.22l1.651,1.651
		c0.092-0.07,0.18-0.132,0.268-0.19C6.029,3.487,6.75,3.214,7.497,3.104V0.775c0-0.414,0.336-0.75,0.75-0.75
		c0.414,0,0.75,0.336,0.75,0.75v2.327C9.118,3.118,9.232,3.137,9.342,3.16c0.74,0.155,1.44,0.47,2.044,0.916l1.634-1.634
		c0.142-0.142,0.33-0.22,0.53-0.22s0.389,0.078,0.53,0.22c0.142,0.141,0.22,0.33,0.22,0.53c0,0.2-0.078,0.389-0.22,0.53l-1.63,1.63
		c0.078,0.1,0.146,0.197,0.21,0.294c0.047,0.072,0.092,0.144,0.135,0.217c0.101,0.173,0.129,0.375,0.079,0.568
		s-0.174,0.356-0.346,0.458c-0.115,0.067-0.246,0.103-0.379,0.103c-0.265,0-0.513-0.142-0.647-0.37
		c-0.031-0.053-0.063-0.105-0.097-0.156c-0.547-0.838-1.389-1.413-2.369-1.619C8.777,4.574,8.515,4.547,8.256,4.547
		c-0.724,0-1.43,0.212-2.043,0.612C5.375,5.706,4.8,6.548,4.594,7.528c-0.206,0.98-0.017,1.982,0.531,2.821
		c0.109,0.168,0.147,0.368,0.106,0.564s-0.156,0.364-0.324,0.474C4.784,11.467,4.643,11.509,4.497,11.509z"/>
	<path d="M9.372,24.025c-0.044,0-0.088-0.004-0.13-0.011c-0.513-0.06-0.923-0.47-0.983-0.983C8.25,22.988,8.247,22.944,8.247,22.9
		s0.004-0.088,0.012-0.131c0.06-0.513,0.47-0.922,0.983-0.982c0.042-0.008,0.086-0.011,0.131-0.011c0.021,0,0.041,0.001,0.062,0.002
		l3.533-3.533c0.142-0.142,0.33-0.22,0.53-0.22s0.389,0.078,0.53,0.22s0.22,0.33,0.22,0.53s-0.078,0.389-0.22,0.53l-3.533,3.533
		c0.002,0.021,0.003,0.041,0.003,0.062c0,0.044-0.004,0.088-0.012,0.131c-0.06,0.513-0.47,0.922-0.983,0.983
		C9.46,24.021,9.416,24.025,9.372,24.025z"/>
	<path d="M9.739,19.525c-0.667,0-1.339-0.153-1.942-0.442c-1.082-0.519-1.898-1.428-2.297-2.561
		c-0.399-1.133-0.332-2.353,0.187-3.435c0.519-1.083,1.429-1.899,2.561-2.297c0.484-0.171,0.988-0.257,1.495-0.257
		c0.37,0,0.737,0.046,1.095,0.137c0.517-1.588,1.589-2.909,3.049-3.75c1.021-0.587,2.181-0.898,3.355-0.898
		c2.415,0,4.661,1.296,5.861,3.382c1.856,3.226,0.741,7.361-2.485,9.217c-0.114,0.065-0.243,0.1-0.374,0.1l0,0
		c-0.268,0-0.517-0.144-0.651-0.376c-0.206-0.358-0.082-0.817,0.276-1.024c2.509-1.444,3.376-4.66,1.933-7.169
		c-0.934-1.623-2.681-2.631-4.56-2.631c-0.913,0-1.815,0.241-2.609,0.698c-1.328,0.764-2.254,2.066-2.54,3.572
		c0,0-0.001,0.004-0.001,0.006c-0.064,0.323-0.097,0.652-0.099,0.979c0,0.213,0.013,0.431,0.04,0.646
		c0.005,0.04,0.007,0.071,0.007,0.102c0,0.377-0.282,0.697-0.656,0.744c-0.032,0.004-0.063,0.006-0.094,0.006
		c-0.377,0-0.696-0.282-0.744-0.656c-0.035-0.279-0.053-0.562-0.053-0.841c0.001-0.214,0.012-0.426,0.033-0.636
		c-0.258-0.072-0.523-0.108-0.791-0.108c-0.336,0-0.67,0.057-0.992,0.171c-0.755,0.266-1.361,0.809-1.707,1.531
		s-0.39,1.534-0.124,2.289c0.266,0.755,0.809,1.361,1.53,1.707c0.402,0.193,0.85,0.294,1.296,0.294c0.418,0,0.754,0.336,0.755,0.749
		c0,0.202-0.077,0.391-0.218,0.532c-0.141,0.141-0.33,0.219-0.533,0.219C9.744,19.525,9.74,19.525,9.739,19.525z"/>
	<path d="M13.871,24.025c-0.044,0-0.088-0.004-0.13-0.011c-0.513-0.06-0.923-0.47-0.983-0.983c-0.007-0.042-0.011-0.086-0.011-0.13
		s0.004-0.088,0.011-0.131c0.06-0.513,0.47-0.923,0.983-0.983c0.042-0.008,0.086-0.011,0.131-0.011c0.021,0,0.042,0.001,0.062,0.002
		l3.533-3.533c0.142-0.142,0.33-0.22,0.53-0.22s0.389,0.078,0.53,0.22s0.22,0.33,0.22,0.53s-0.078,0.389-0.22,0.53l-3.533,3.533
		c0.001,0.02,0.002,0.041,0.002,0.062c0,0.044-0.004,0.088-0.011,0.131c-0.06,0.513-0.47,0.923-0.983,0.983
		C13.96,24.021,13.916,24.025,13.871,24.025z"/>
</g>
</svg>
