<?xml version="1.0" encoding="utf-8"?>
<!-- Generator: Adobe Illustrator 22.1.0, SVG Export Plug-In . SVG Version: 6.00 Build 0)  -->
<svg version="1.1" id="Regular" xmlns="http://www.w3.org/2000/svg" xmlns:xlink="http://www.w3.org/1999/xlink" x="0px" y="0px"
	 viewBox="0 0 24 24" style="enable-background:new 0 0 24 24;" xml:space="preserve">
<title>weather-app-rain</title>
<g>
	<path d="M4.735,24.003c-1.92,0-3.482-1.561-3.483-3.48V4.986c-0.001-1.92,1.561-3.482,3.481-3.483h3.269
		c0.414,0,0.75,0.336,0.75,0.75s-0.336,0.75-0.75,0.75H4.735c-1.094,0-1.983,0.89-1.983,1.983v13.017h10.5v-2.25
		c0-0.414,0.336-0.75,0.75-0.75s0.75,0.336,0.75,0.75v4.767c0,1.92-1.561,3.482-3.481,3.483H4.735z M2.752,20.52
		c0,1.094,0.89,1.983,1.982,1.983h6.535c1.094-0.001,1.984-0.89,1.983-1.983v-1.017h-10.5V20.52z"/>
	<path d="M13.252,12.003c-0.137,0-0.272-0.038-0.389-0.109c-0.171-0.104-0.292-0.269-0.339-0.463s-0.016-0.396,0.088-0.567
		l1.419-2.333c0.135-0.222,0.381-0.36,0.641-0.36c0.137,0,0.272,0.038,0.389,0.109c0.171,0.104,0.292,0.269,0.339,0.463
		s0.016,0.396-0.088,0.567l-1.419,2.333C13.758,11.865,13.512,12.003,13.252,12.003z"/>
	<path d="M16.252,12.003c-0.146,0-0.289-0.042-0.411-0.123c-0.167-0.109-0.282-0.278-0.323-0.474
		c-0.041-0.196-0.003-0.397,0.107-0.564l1.5-2.292c0.139-0.213,0.374-0.339,0.628-0.339c0.146,0,0.288,0.042,0.41,0.123
		c0.167,0.109,0.282,0.278,0.323,0.474c0.041,0.196,0.003,0.397-0.107,0.564l-1.5,2.292C16.741,11.876,16.506,12.003,16.252,12.003z
		"/>
	<path d="M10.769,10.041c-0.147,0-0.289-0.043-0.412-0.124C8.878,8.944,8.339,7.006,9.103,5.409
		c0.588-1.228,1.849-2.022,3.215-2.022c0.234,0,0.466,0.023,0.694,0.069c0.411-1.134,1.197-2.088,2.24-2.712
		c0.813-0.486,1.742-0.743,2.687-0.743c1.842,0,3.572,0.979,4.514,2.554c0.72,1.203,0.928,2.615,0.586,3.975
		c-0.342,1.36-1.193,2.505-2.397,3.225c-0.117,0.07-0.25,0.106-0.385,0.106l0,0c-0.263,0-0.51-0.14-0.644-0.365
		c-0.103-0.171-0.132-0.373-0.083-0.567c0.049-0.194,0.17-0.358,0.343-0.461c0.86-0.514,1.468-1.332,1.712-2.304
		s0.096-1.98-0.418-2.839c-0.673-1.125-1.909-1.824-3.226-1.824c-0.674,0-1.337,0.183-1.918,0.531
		c-0.919,0.549-1.56,1.468-1.76,2.52c0,0-0.001,0.005-0.001,0.007c-0.045,0.229-0.068,0.463-0.069,0.696
		c0,0.154,0.009,0.308,0.027,0.459c0.001,0.006,0.002,0.022,0.003,0.029c0.002,0.011,0.004,0.042,0.004,0.073
		c0,0.378-0.282,0.698-0.658,0.744c-0.031,0.004-0.062,0.006-0.092,0.006c-0.378,0-0.698-0.283-0.744-0.659
		c-0.026-0.213-0.04-0.431-0.04-0.646c0-0.109,0.005-0.219,0.014-0.334c-0.128-0.025-0.258-0.037-0.388-0.037
		c-0.79,0-1.52,0.459-1.86,1.169c-0.442,0.924-0.13,2.045,0.725,2.608c0.167,0.11,0.282,0.279,0.322,0.475
		c0.041,0.196,0.002,0.396-0.108,0.564C11.257,9.915,11.023,10.041,10.769,10.041z"/>
</g>
</svg>
