<?xml version="1.0" encoding="utf-8"?>
<!-- Generator: Adobe Illustrator 22.1.0, SVG Export Plug-In . SVG Version: 6.00 Build 0)  -->
<svg version="1.1" id="Regular" xmlns="http://www.w3.org/2000/svg" xmlns:xlink="http://www.w3.org/1999/xlink" x="0px" y="0px"
	 viewBox="0 0 24 24" style="enable-background:new 0 0 24 24;" xml:space="preserve">
<title>weather-night-hail</title>
<g>
	<path d="M3.291,13.041c-0.097,0-0.191-0.018-0.281-0.054c-1.143-0.46-2.137-1.226-2.875-2.212
		c-0.186-0.249-0.201-0.581-0.037-0.845c0.138-0.222,0.376-0.354,0.638-0.354c0.045,0,0.09,0.004,0.135,0.012
		C1.164,9.641,1.46,9.668,1.753,9.668c0.712,0,1.403-0.156,2.054-0.463C6.234,8.058,7.276,5.148,6.131,2.72
		C5.875,2.185,5.525,1.705,5.092,1.295C4.867,1.082,4.796,0.758,4.912,0.47C5.024,0.19,5.296,0.005,5.604,0
		c3.366,0.025,6.214,2.556,6.634,5.886c0.052,0.41-0.24,0.786-0.65,0.838c-0.033,0.004-0.062,0.006-0.092,0.006
		c-0.378,0-0.698-0.282-0.746-0.656C10.504,4.129,9.16,2.487,7.356,1.82c0.045,0.085,0.089,0.17,0.13,0.257
		c1.499,3.178,0.136,6.984-3.038,8.485c-0.581,0.274-1.186,0.456-1.808,0.544c0.292,0.193,0.604,0.357,0.932,0.489
		c0.186,0.075,0.331,0.218,0.41,0.402c0.078,0.184,0.08,0.388,0.005,0.574C3.872,12.857,3.599,13.041,3.291,13.041z"/>
	<path d="M9.362,23.98c-0.044,0-0.088-0.004-0.131-0.011c-0.513-0.06-0.922-0.47-0.983-0.982c-0.008-0.043-0.011-0.087-0.011-0.131
		s0.004-0.088,0.012-0.131c0.06-0.513,0.47-0.922,0.983-0.982c0.042-0.008,0.086-0.011,0.13-0.011c0.021,0,0.041,0.001,0.062,0.002
		l3.533-3.533c0.142-0.142,0.33-0.22,0.53-0.22s0.389,0.078,0.53,0.22s0.22,0.33,0.22,0.53s-0.078,0.389-0.22,0.53l-3.533,3.533
		c0.002,0.021,0.003,0.041,0.003,0.062c0,0.044-0.004,0.088-0.011,0.131c-0.06,0.513-0.47,0.922-0.983,0.982
		C9.45,23.976,9.406,23.98,9.362,23.98z"/>
	<path d="M9.721,19.48c-0.659,0-1.331-0.153-1.934-0.441c-2.235-1.072-3.182-3.761-2.11-5.997c0.743-1.55,2.337-2.552,4.06-2.552
		c0.37,0,0.736,0.046,1.092,0.135c0.517-1.588,1.589-2.91,3.049-3.75c1.026-0.59,2.186-0.902,3.356-0.902
		c0.593,0,1.188,0.079,1.767,0.235c1.741,0.469,3.195,1.589,4.094,3.151c0.899,1.563,1.136,3.382,0.667,5.123
		c-0.469,1.741-1.588,3.195-3.151,4.094c-0.113,0.065-0.242,0.1-0.374,0.1l0,0c-0.268,0-0.517-0.144-0.65-0.376
		c-0.206-0.358-0.083-0.818,0.276-1.024c1.216-0.7,2.086-1.831,2.451-3.184c0.365-1.354,0.181-2.769-0.518-3.985
		c-0.699-1.216-1.83-2.086-3.184-2.451c-0.451-0.122-0.914-0.183-1.376-0.183c-0.909,0-1.811,0.243-2.609,0.702
		c-1.328,0.764-2.254,2.066-2.54,3.572c0,0.002-0.001,0.005-0.001,0.007c-0.064,0.32-0.097,0.649-0.098,0.977
		c0,0.218,0.014,0.439,0.04,0.657c0.004,0.03,0.006,0.061,0.006,0.092c0,0.378-0.283,0.698-0.658,0.744
		c-0.034,0.004-0.063,0.006-0.092,0.006c-0.378,0-0.698-0.283-0.744-0.659c-0.034-0.278-0.052-0.561-0.052-0.841
		c0.001-0.212,0.012-0.423,0.033-0.632c-0.256-0.07-0.519-0.106-0.786-0.106c-1.148,0-2.209,0.667-2.704,1.698
		c-0.714,1.489-0.083,3.281,1.406,3.996c0.402,0.192,0.85,0.294,1.296,0.294c0.002,0,0.005,0,0.005,0c0.413,0,0.75,0.336,0.75,0.749
		c0,0.204-0.077,0.394-0.219,0.535c-0.139,0.139-0.326,0.216-0.526,0.216C9.739,19.48,9.722,19.48,9.721,19.48z"/>
	<path d="M13.862,23.98c-0.044,0-0.088-0.004-0.131-0.011c-0.513-0.06-0.923-0.47-0.983-0.983c-0.008-0.042-0.011-0.086-0.011-0.131
		s0.004-0.088,0.011-0.131c0.06-0.513,0.47-0.923,0.983-0.983c0.042-0.008,0.086-0.011,0.131-0.011c0.021,0,0.041,0.001,0.062,0.002
		l3.533-3.533c0.142-0.142,0.33-0.22,0.53-0.22s0.389,0.078,0.53,0.22s0.22,0.33,0.22,0.53s-0.078,0.389-0.22,0.53l-3.533,3.533
		c0.002,0.021,0.003,0.041,0.003,0.062c0,0.044-0.004,0.088-0.011,0.131c-0.06,0.513-0.47,0.923-0.983,0.983
		C13.95,23.976,13.906,23.98,13.862,23.98z"/>
</g>
</svg>
