<svg id="Outline_Version" data-name="Outline Version" xmlns="http://www.w3.org/2000/svg" viewBox="0 0 24 24"><title>web-service-wikipedia</title><path d="M23.25,4.39H19.34a.75.75,0,0,0,0,1.5h1.11L15.06,17,12.7,11.18l2.56-5.3H16.4a.75.75,0,0,0,0-1.5H13.08a.75.75,0,0,0,0,1.5h.52L11.94,9.31,10.56,5.89h.36a.75.75,0,0,0,0-1.5H7.6a.75.75,0,0,0,0,1.5H8.94l2.12,5.24L8.21,17,3.71,5.89H5.15a.75.75,0,0,0,0-1.5H.75a.75.75,0,0,0,0,1.5H2.1L7.45,19.14a.75.75,0,0,0,.67.47h0a.75.75,0,0,0,.67-.42l3-6.19,2.48,6.14a.75.75,0,0,0,.67.47h0a.75.75,0,0,0,.67-.42l6.44-13.3h1.14a.75.75,0,0,0,0-1.5Z"/></svg>