<svg id="Outline_Version" data-name="Outline Version" xmlns="http://www.w3.org/2000/svg" viewBox="0 0 24 24"><title>web-service-dzone</title><path d="M21.78,5.38A2.22,2.22,0,1,0,24,7.6,2.22,2.22,0,0,0,21.78,5.38Zm0,2.93a.72.72,0,1,1,.72-.72A.72.72,0,0,1,21.78,8.32Z"/><path d="M11.51,16.63a2.22,2.22,0,1,0,2.22,2.22A2.22,2.22,0,0,0,11.51,16.63Zm0,2.93a.72.72,0,1,1,.72-.72A.72.72,0,0,1,11.51,19.57Z"/><path d="M21.2,10.49a.75.75,0,0,0-.89.57l-.47,2.14h0a1.71,1.71,0,0,0-.58.11l-.8-1,1.46-1.6a.75.75,0,0,0-1.11-1l-1.3,1.43-.69-.86,1.7-.69a.75.75,0,1,0-.57-1.39L15.82,9,13.27,5.87l4.82,1.58A.75.75,0,0,0,18.56,6L12.64,4.08a1.72,1.72,0,0,0-3.35.58,1.71,1.71,0,0,0,.06.44L1.61,14.2a1.72,1.72,0,1,0,1.25,3l4.86,1.25.19,0A.75.75,0,0,0,8.09,17L3.45,15.81v0L7,14.29a1.7,1.7,0,0,0,.81.21h.12l1.17,1.64a.75.75,0,0,0,1.22-.87L9.2,13.74a1.72,1.72,0,0,0,.21-.46l1.23-.5.13,2.45a.75.75,0,0,0,.75.71h0a.75.75,0,0,0,.71-.79l-.15-3,3.24-1.32,1.12,1.4-2.88,3.15a.75.75,0,0,0,1.11,1l2.72-3,.77,1a1.43,1.43,0,0,0-.07.77l-3.3,1.48A.75.75,0,1,0,15.44,18L19,16.43a1.71,1.71,0,0,0,.85.23,1.73,1.73,0,0,0,1.73-1.73,1.71,1.71,0,0,0-.33-1l.56-2.54A.75.75,0,0,0,21.2,10.49ZM7.54,12.77a.23.23,0,0,1,.23-.23.22.22,0,0,1,.22.21v0C8,13,7.54,13,7.54,12.77ZM7.72,11A1.73,1.73,0,0,0,6,12.77a1.7,1.7,0,0,0,0,.26L3.73,14,8.88,8ZM11,4.43a.23.23,0,0,1,.23.23c0,.25-.46.25-.46,0A.23.23,0,0,1,11,4.43ZM1.5,15.91a.23.23,0,1,1,.46,0C2,16.16,1.5,16.17,1.5,15.91Zm7.66-4.16-.07-.09L10.4,8.19l.16,3ZM12,10.59l-.22-4.14,2.56,3.19Zm7.57,4.34a.23.23,0,1,1,.46,0C20.05,15.19,19.6,15.19,19.6,14.93Z"/></svg>