<svg id="Outline_Version" data-name="Outline Version" xmlns="http://www.w3.org/2000/svg" viewBox="0 0 24 24"><title>web-service-amazon-web-services</title><path d="M23,5.65l-9.68,3a.75.75,0,0,0-.53.72V23.23a.75.75,0,0,0,.75.75.76.76,0,0,0,.25,0l9.68-3.43a.75.75,0,0,0,.5-.71V6.36a.75.75,0,0,0-1-.72ZM22.5,19.27l-8.18,2.9V9.92L22.5,7.38Z"/><path d="M10.66,8.7,1,5.56a.74.74,0,0,0-.67.11A.75.75,0,0,0,0,6.28L.06,19.81a.75.75,0,0,0,.5.7l9.62,3.38a.75.75,0,0,0,1-.71V9.42A.75.75,0,0,0,10.66,8.7Zm-1,13.42L1.56,19.27l-.06-12L9.68,10Z"/><path d="M23.05,3.71A.75.75,0,0,0,22.51,3L12.2,0a.76.76,0,0,0-.4,0L1.62,2.83a.75.75,0,0,0,0,1.44l10.17,3a.74.74,0,0,0,.21,0l.2,0L22.5,4.43A.75.75,0,0,0,23.05,3.71ZM12,5.76,4.57,3.58l7.42-2,7.53,2.14Z"/></svg>