<svg id="Outline_Version" data-name="Outline Version" xmlns="http://www.w3.org/2000/svg" viewBox="0 0 24 24"><title>web-service-treehouse</title><path d="M21.51,5h0L20.21,4.2A1.89,1.89,0,0,0,18.73,4c-1.19.32-2.41,1.68-3.84,4.27l0,0c-.7,1.44.25,2.85.71,3.54a17.31,17.31,0,0,0,1.29,1.6,8,8,0,0,1,.7.85,1.07,1.07,0,0,1-.68,1.07.93.93,0,0,1-.76-.15.33.33,0,0,1-.16-.3,4.19,4.19,0,0,0-.77-2.46.89.89,0,0,0-.88-.22,3,3,0,0,0-1.83,2c-.1.35-.6,2.12-.23,2.67a1,1,0,0,1,.13.76.91.91,0,0,1-.44.59,1.77,1.77,0,0,1-1.21,0,1,1,0,0,1-.56-.35,1,1,0,0,1-.05-.77.9.9,0,0,1,.47-.53c.75-.34,2.25-5.37,2.26-5.42a.75.75,0,0,0-1.39-.53c-.67,1.32-1.12,1.5-1.61,1.69A2.91,2.91,0,0,0,8.1,14a.72.72,0,0,1-.18.23.65.65,0,0,1-.48.15A.66.66,0,0,1,7,14.16a.76.76,0,0,1,.1-1A.65.65,0,0,1,7.37,13a7.23,7.23,0,0,0,3.42-2.69.75.75,0,0,0-1.08-.91,4,4,0,0,1-1.65.28.73.73,0,0,0-.51.15.5.5,0,0,1-.37.09.52.52,0,0,1-.34-.22A.69.69,0,0,1,7,8.8a.46.46,0,0,1,.31-.1l.45,0c1.32.12,4.4.42,5.88-2.2l1.05-1.91c.79-1.43.62-3-.37-3.6L13.17.36a3,3,0,0,0-2.86,0L2.4,5A3.12,3.12,0,0,0,1,7.49v9A3.11,3.11,0,0,0,2.4,19l7.91,4.62a2.89,2.89,0,0,0,1.44.36,2.81,2.81,0,0,0,1.41-.35L21.51,19A3.24,3.24,0,0,0,23,16.5v-9A3.24,3.24,0,0,0,21.51,5Zm0,11.54a1.78,1.78,0,0,1-.76,1.21l-8.35,4.64a1.56,1.56,0,0,1-1.35,0L3.16,17.73a1.65,1.65,0,0,1-.68-1.22v-9a1.65,1.65,0,0,1,.68-1.22l7.9-4.61a1.57,1.57,0,0,1,1.35,0l1.15.67c.16.09.25.79-.18,1.58l-1,1.91C11.41,7.43,9.56,7.4,7.9,7.24l-.54,0a2,2,0,0,0-1.25.4,2.18,2.18,0,0,0-.51,2.93,2,2,0,0,0,1.33.85,1.75,1.75,0,0,0,.42,0,1.39,1.39,0,0,1-.31.12,2.16,2.16,0,0,0-.91.46,2.27,2.27,0,0,0-.32,3.11,2.14,2.14,0,0,0,3.08.33,2.22,2.22,0,0,0,.55-.7,1.46,1.46,0,0,1,1-.9c-.25.7-.49,1.32-.63,1.6A2.39,2.39,0,0,0,8.72,16.7a2.49,2.49,0,0,0,.13,1.94,2.35,2.35,0,0,0,1.46,1.1,3.18,3.18,0,0,0,2.37-.14A2.43,2.43,0,0,0,13.86,18a2.48,2.48,0,0,0-.23-1.77,7.68,7.68,0,0,1,.31-1.6,1.72,1.72,0,0,1,.39-.67,4.41,4.41,0,0,1,.15,1,1.8,1.8,0,0,0,.75,1.46,2.44,2.44,0,0,0,2.07.39A2.55,2.55,0,0,0,19,13.92a4.29,4.29,0,0,0-1-1.45A15.74,15.74,0,0,1,16.82,11c-.55-.82-.87-1.48-.61-2,1.62-2.91,2.58-3.44,2.92-3.53a.38.38,0,0,1,.32,0l1,.57.32.18h0a1.79,1.79,0,0,1,.77,1.23Z"/></svg>