<?xml version="1.0" encoding="utf-8"?>
<!-- Generator: Adobe Illustrator 22.1.0, SVG Export Plug-In . SVG Version: 6.00 Build 0)  -->
<svg version="1.1" id="Layer_1" xmlns="http://www.w3.org/2000/svg" xmlns:xlink="http://www.w3.org/1999/xlink" x="0px" y="0px"
	 viewBox="0 0 24 24" style="enable-background:new 0 0 24 24;" xml:space="preserve">
<title>wedding-altar</title>
<g>
	<path d="M0.75,24C0.336,24,0,23.664,0,23.25V12C0,5.383,5.383,0,12,0c6.617,0,12,5.383,12,12v11.25c0,0.414-0.336,0.75-0.75,0.75
		H0.75z M22.5,22.5v-5.932c-2.132,0.361-3.75,2.235-3.75,4.432v1.5H22.5z M17.25,22.5V21c0-2.297,1.315-4.373,3.34-5.376
		c-1.15-0.84-1.84-2.171-1.84-3.624V3.967c-1.692-1.423-3.803-2.28-6-2.438v3.679C13.241,4.751,13.88,4.5,14.551,4.5L14.619,4.5
		c0.707,0.017,1.365,0.309,1.854,0.821c1.039,1.088,1.039,2.792,0,3.88l-3.543,3.663c-0.26,0.248-0.585,0.379-0.928,0.379
		c-0.004,0-0.031,0-0.035,0c-0.352-0.008-0.682-0.155-0.927-0.411L7.531,9.205C6.49,8.115,6.489,6.409,7.527,5.321
		c0.029-0.03,0.059-0.06,0.089-0.089C8.112,4.76,8.761,4.501,9.445,4.501c0.679,0,1.314,0.25,1.805,0.708V1.53
		c-2.197,0.158-4.308,1.014-6,2.438V12c0,1.453-0.689,2.784-1.84,3.624C5.434,16.627,6.75,18.703,6.75,21v1.5H17.25z M5.25,22.5V21
		c0-2.198-1.618-4.071-3.75-4.432V22.5H5.25z M20.25,12c0,1.387,0.942,2.569,2.25,2.904V12c0-2.369-0.793-4.637-2.25-6.484V12z
		 M3.75,5.516C2.293,7.363,1.5,9.631,1.5,12v2.904C2.808,14.569,3.75,13.387,3.75,12V5.516z M9.444,6.001
		c-0.297,0-0.578,0.112-0.792,0.317c-0.013,0.012-0.026,0.026-0.04,0.04c-0.484,0.507-0.484,1.302,0,1.809L12,11.67l3.391-3.507
		c0.482-0.505,0.481-1.299-0.003-1.806C15.175,6.134,14.889,6.007,14.582,6c0,0-0.001,0-0.001,0c-0.326,0-0.602,0.11-0.82,0.317
		c-0.015,0.014-0.028,0.027-0.041,0.041c0,0-1.192,1.233-1.198,1.238C12.382,7.733,12.197,7.808,12,7.808
		c-0.197,0-0.382-0.075-0.522-0.212c-0.004-0.004-1.196-1.235-1.196-1.235C10.06,6.128,9.763,6.001,9.444,6.001z"/>
</g>
</svg>
