<?xml version="1.0" encoding="utf-8"?>
<!-- Generator: Adobe Illustrator 22.1.0, SVG Export Plug-In . SVG Version: 6.00 Build 0)  -->
<svg version="1.1" id="Layer_1" xmlns="http://www.w3.org/2000/svg" xmlns:xlink="http://www.w3.org/1999/xlink" x="0px" y="0px"
	 viewBox="0 0 24 24" style="enable-background:new 0 0 24 24;" xml:space="preserve">
<title>wedding-couple-dance</title>
<g>
	<path d="M12.001,23.25c-0.201,0-0.397-0.082-0.537-0.226L6.99,18.452c-1.036-1.004-1.294-2.557-0.633-3.858
		c0.429-0.818,1.145-1.416,2.018-1.689c0.334-0.104,0.679-0.157,1.025-0.157c0.548,0,1.097,0.136,1.587,0.394
		c0.09,0.047,0.178,0.098,0.263,0.153V1.5c0-0.414,0.336-0.75,0.75-0.75s0.75,0.336,0.75,0.75v11.788
		c0.545-0.351,1.175-0.538,1.83-0.538l0.061,0c0.913,0.011,1.769,0.379,2.408,1.034c0.232,0.238,0.428,0.507,0.582,0.802
		c0.664,1.307,0.405,2.865-0.642,3.881l-4.452,4.557C12.397,23.168,12.202,23.25,12.001,23.25z M9.4,14.249
		c-0.194,0-0.388,0.03-0.577,0.089c-0.491,0.154-0.893,0.489-1.132,0.945c-0.358,0.704-0.215,1.552,0.358,2.107L12,21.427
		l3.931-4.023c0.584-0.567,0.729-1.42,0.368-2.13c-0.083-0.159-0.193-0.309-0.323-0.442c-0.36-0.369-0.841-0.575-1.356-0.582
		c-0.522,0-1.008,0.194-1.369,0.547l-0.622,0.609c-0.138,0.214-0.373,0.344-0.629,0.344c-0.244,0-0.474-0.122-0.613-0.321
		l-0.647-0.634c-0.132-0.129-0.284-0.239-0.45-0.326C10.011,14.323,9.711,14.249,9.4,14.249z"/>
	<path d="M18.717,13.244c-0.352-0.008-0.682-0.155-0.927-0.411l-3.507-3.628c-1.042-1.091-1.042-2.796-0.003-3.884
		c0.028-0.03,0.059-0.06,0.091-0.091c0.494-0.47,1.143-0.73,1.826-0.73c0.679,0,1.314,0.25,1.805,0.708V1.5
		c0-0.414,0.336-0.75,0.75-0.75s0.75,0.336,0.75,0.75v3.709c0.491-0.458,1.13-0.709,1.801-0.709L21.37,4.5
		c0.707,0.017,1.365,0.309,1.854,0.821c1.039,1.088,1.039,2.792,0,3.88l-3.543,3.663c-0.26,0.248-0.585,0.379-0.928,0.379
		C18.748,13.244,18.72,13.244,18.717,13.244z M16.195,6.001c-0.297,0-0.578,0.112-0.792,0.317c-0.015,0.014-0.028,0.027-0.041,0.041
		c-0.483,0.506-0.483,1.301,0.001,1.808l3.388,3.504l3.391-3.507c0.482-0.505,0.481-1.299-0.003-1.806
		C21.926,6.134,21.64,6.007,21.333,6c0,0-0.001,0-0.001,0c-0.327,0-0.602,0.11-0.82,0.317c-0.015,0.014-0.028,0.027-0.041,0.041
		L19.29,7.579c-0.005,0.006-0.011,0.011-0.017,0.016c-0.139,0.136-0.324,0.212-0.522,0.212c-0.196,0-0.38-0.075-0.521-0.211
		c-0.005-0.005-0.01-0.009-0.015-0.014L17.033,6.36C16.811,6.128,16.514,6.001,16.195,6.001z"/>
	<path d="M5.217,13.244c-0.352-0.008-0.682-0.155-0.927-0.411L0.782,9.205C-0.26,8.115-0.26,6.409,0.778,5.321
		c0.029-0.03,0.059-0.06,0.089-0.089C1.363,4.76,2.012,4.501,2.696,4.501c0.679,0,1.314,0.25,1.805,0.708V1.5
		c0-0.414,0.336-0.75,0.75-0.75s0.75,0.336,0.75,0.75v3.709c0.492-0.457,1.131-0.708,1.804-0.708c0.733,0,1.414,0.291,1.919,0.821
		c1.038,1.088,1.038,2.792,0,3.88L6.18,12.865c-0.26,0.248-0.586,0.379-0.929,0.379C5.248,13.244,5.22,13.244,5.217,13.244z
		 M2.695,6.001c-0.297,0-0.578,0.112-0.792,0.317c-0.013,0.012-0.026,0.026-0.04,0.04c-0.484,0.507-0.484,1.302,0,1.809l3.388,3.503
		l3.391-3.507c0.482-0.505,0.481-1.299-0.003-1.806C8.419,6.127,8.124,6,7.805,6C7.508,6,7.226,6.113,7.012,6.317
		c-0.013,0.012-0.026,0.026-0.04,0.04c0,0-1.193,1.233-1.198,1.238C5.635,7.732,5.449,7.808,5.251,7.808
		c-0.197,0-0.382-0.075-0.523-0.213C4.724,7.592,3.533,6.36,3.533,6.36C3.311,6.128,3.014,6.001,2.695,6.001z"/>
</g>
</svg>
