<?xml version="1.0" encoding="utf-8"?>
<!-- Generator: Adobe Illustrator 22.1.0, SVG Export Plug-In . SVG Version: 6.00 Build 0)  -->
<svg version="1.1" id="Layer_1" xmlns="http://www.w3.org/2000/svg" xmlns:xlink="http://www.w3.org/1999/xlink" x="0px" y="0px"
	 viewBox="0 0 24 24" style="enable-background:new 0 0 24 24;" xml:space="preserve">
<title>wedding-bride-groom</title>
<g>
	<path d="M3.75,24c-0.368,0-0.679-0.263-0.74-0.626L2.365,19.5H0.75C0.336,19.5,0,19.164,0,18.75v-3c0-2.895,2.355-5.25,5.25-5.25
		s5.25,2.355,5.25,5.25v3c0,0.414-0.336,0.75-0.75,0.75H8.135L7.49,23.373C7.429,23.737,7.118,24,6.75,24H3.75z M6.115,22.5
		l0.646-3.873C6.821,18.263,7.132,18,7.5,18H9v-2.25c0-1.781-1.288-3.32-3-3.672V16.5c0,0.414-0.336,0.75-0.75,0.75
		S4.5,16.914,4.5,16.5v-4.422c-1.712,0.352-3,1.892-3,3.672V18H3c0.368,0,0.679,0.263,0.74,0.626L4.385,22.5H6.115z"/>
	<path d="M5.25,10.5c-2.068,0-3.75-1.682-3.75-3.75c0-0.647,0.171-1.288,0.494-1.853c0,0,0.009-0.015,0.013-0.022
		C2.678,3.718,3.92,3,5.25,3c1.83,0,3.417,1.361,3.701,3.169C8.963,6.22,8.97,6.268,8.972,6.316C8.991,6.474,9,6.617,9,6.75
		C9,8.818,7.318,10.5,5.25,10.5z M3.015,6.497C3.005,6.581,3,6.665,3,6.75C3,7.991,4.009,9,5.25,9c1.02,0,1.885-0.679,2.157-1.62
		C7.032,7.457,6.65,7.496,6.265,7.496C5.1,7.496,3.966,7.144,3.015,6.497z M3.689,5.134c0.735,0.557,1.635,0.861,2.573,0.861
		c0.357,0,0.71-0.044,1.052-0.132C6.965,5.045,6.16,4.5,5.25,4.5C4.659,4.5,4.107,4.728,3.689,5.134z"/>
	<path d="M17.25,10.5c-2.068,0-3.75-1.682-3.75-3.75c0-0.135,0.009-0.274,0.028-0.436c0.002-0.047,0.009-0.094,0.021-0.144
		C13.832,4.361,15.419,3,17.25,3c1.33,0,2.572,0.718,3.243,1.875c0.004,0.007,0.009,0.014,0.013,0.022v0
		C20.829,5.462,21,6.103,21,6.75C21,8.818,19.318,10.5,17.25,10.5z M15.093,7.38C15.365,8.321,16.23,9,17.25,9
		c1.241,0,2.25-1.009,2.25-2.25c0-0.085-0.005-0.169-0.015-0.254c-0.951,0.648-2.085,0.999-3.25,0.999
		C15.85,7.496,15.468,7.457,15.093,7.38z M15.186,5.862c0.342,0.088,0.695,0.133,1.052,0.133c0.938,0,1.838-0.303,2.573-0.861
		C18.393,4.728,17.841,4.5,17.25,4.5C16.34,4.5,15.535,5.045,15.186,5.862z"/>
	<path d="M15.75,24c-0.368,0-0.679-0.264-0.74-0.627L14.365,19.5H12.75c-0.236,0-0.461-0.113-0.602-0.302
		c-0.141-0.189-0.185-0.437-0.117-0.664l1.507-5.034H12.75c-1.241,0-2.25-1.009-2.25-2.25v-4.5C10.5,3.028,13.528,0,17.25,0
		S24,3.028,24,6.75v4.5c0,1.241-1.009,2.25-2.25,2.25h-0.789l1.507,5.035c0.068,0.226,0.024,0.474-0.117,0.663
		c-0.14,0.189-0.365,0.302-0.601,0.302h-1.615l-0.646,3.874C19.429,23.736,19.118,24,18.75,24H15.75z M18.115,22.5l0.646-3.874
		C18.821,18.264,19.132,18,19.5,18h1.243l-1.213-4.052l-1.594,3.605C17.816,17.825,17.547,18,17.25,18
		c-0.312-0.004-0.581-0.188-0.694-0.467c-0.569-1.394-1.143-2.748-1.558-3.678L13.757,18H15c0.368,0,0.679,0.264,0.74,0.627
		l0.646,3.873H18.115z M15.973,12.395c0.355,0.727,0.88,1.95,1.3,2.949l1.291-2.922C18.179,12.148,17.722,12,17.253,12h-0.007
		C16.793,12,16.35,12.139,15.973,12.395z M21.75,12c0.414,0,0.75-0.336,0.75-0.75v-4.5c0-2.895-2.355-5.25-5.25-5.25
		S12,3.855,12,6.75v4.5c0,0.414,0.336,0.75,0.75,0.75h1.491c0.066-0.087,0.138-0.172,0.213-0.255
		c0.009-0.01,0.018-0.021,0.028-0.031c0.721-0.773,1.728-1.215,2.765-1.215c0,0,0.005,0,0.007,0c1.02,0,2.014,0.429,2.729,1.176
		c0.03,0.028,0.058,0.058,0.082,0.09c0.068,0.076,0.133,0.154,0.194,0.234H21.75z"/>
</g>
</svg>
