<?xml version="1.0" encoding="utf-8"?>
<!-- Generator: Adobe Illustrator 22.1.0, SVG Export Plug-In . SVG Version: 6.00 Build 0)  -->
<svg version="1.1" id="Layer_1" xmlns="http://www.w3.org/2000/svg" xmlns:xlink="http://www.w3.org/1999/xlink" x="0px" y="0px"
	 viewBox="0 0 24 24" style="enable-background:new 0 0 24 24;" xml:space="preserve">
<title>wedding-car</title>
<g>
	<path d="M18.75,23.25c-1.241,0-2.25-1.009-2.25-2.25v-0.75h-9V21c0,1.241-1.009,2.25-2.25,2.25h-1.5c-1.241,0-2.25-1.009-2.25-2.25
		v-0.879C0.615,19.808,0,18.96,0,18v-4.835c0-0.408,0.111-0.808,0.321-1.157l1.988-3.313l1.902-6.341
		C4.499,1.394,5.365,0.75,6.366,0.75h11.268c1.001,0,1.868,0.644,2.155,1.603l1.902,6.341l1.988,3.314
		C23.889,12.357,24,12.757,24,13.165V18c0,0.96-0.615,1.808-1.5,2.121V21c0,1.241-1.009,2.25-2.25,2.25H18.75z M18,21
		c0,0.414,0.336,0.75,0.75,0.75h1.5c0.414,0,0.75-0.336,0.75-0.75v-0.75h-3V21z M3,21c0,0.414,0.336,0.75,0.75,0.75h1.5
		C5.664,21.75,6,21.414,6,21v-0.75H3V21z M1.5,18c0,0.414,0.336,0.75,0.75,0.75h19.5c0.414,0,0.75-0.336,0.75-0.75v-0.75h-3
		c-0.414,0-0.75-0.336-0.75-0.75s0.336-0.75,0.75-0.75h3v-2.585c0-0.135-0.037-0.269-0.107-0.385l-0.429-0.716l-5.803,2.177
		l-3.208,3.317c-0.274,0.262-0.619,0.4-0.984,0.4c-0.382,0-0.753-0.158-1.016-0.434l-3.37-3.483l-5.428-2.172L1.607,12.78
		C1.537,12.896,1.5,13.03,1.5,13.166v2.584h3c0.414,0,0.75,0.336,0.75,0.75s-0.336,0.75-0.75,0.75h-3V18z M9.072,9.75
		c-0.361,0-0.704,0.137-0.966,0.387c-0.016,0.016-0.033,0.032-0.048,0.048c-0.586,0.614-0.586,1.576,0,2.189l3.912,4.043
		l3.915-4.047c0.583-0.611,0.582-1.571-0.003-2.185c-0.268-0.281-0.629-0.435-1.017-0.435c-0.362,0-0.706,0.137-0.967,0.386
		c-0.017,0.016-0.033,0.032-0.049,0.049l-1.339,1.385c-0.138,0.142-0.334,0.224-0.539,0.224s-0.401-0.082-0.539-0.224l-1.336-1.381
		C9.831,9.915,9.482,9.759,9.107,9.75L9.072,9.75z M14.862,8.251c0.803,0,1.55,0.32,2.103,0.9c0.752,0.789,1.018,1.892,0.755,2.904
		l3.459-1.297l-0.823-1.371c-0.032-0.054-0.058-0.112-0.076-0.172L19.542,6.75H4.458l-0.74,2.466C3.7,9.275,3.675,9.333,3.643,9.386
		l-0.708,1.179l3.238,1.296C5.989,10.9,6.271,9.884,6.972,9.15c0.031-0.033,0.065-0.067,0.1-0.1C7.613,8.534,8.326,8.25,9.077,8.25
		l0.065,0.001c0.776,0.019,1.497,0.339,2.032,0.9l0.793,0.82l0.797-0.824c0.03-0.031,0.062-0.063,0.096-0.095
		C13.402,8.535,14.113,8.251,14.862,8.251z M19.092,5.25l-0.74-2.465c-0.096-0.32-0.385-0.535-0.719-0.535H6.366
		c-0.334,0-0.623,0.215-0.719,0.535L4.908,5.25H19.092z"/>
</g>
</svg>
