<?xml version="1.0" encoding="utf-8"?>
<!-- Generator: Adobe Illustrator 22.1.0, SVG Export Plug-In . SVG Version: 6.00 Build 0)  -->
<svg version="1.1" id="Regular" xmlns="http://www.w3.org/2000/svg" xmlns:xlink="http://www.w3.org/1999/xlink" x="0px" y="0px"
	 viewBox="0 0 24 24" style="enable-background:new 0 0 24 24;" xml:space="preserve">
<title>wildlife-protection-hold</title>
<g>
	<path d="M12.211,12.755c-0.07,0-0.14-0.001-0.211-0.004c-0.068,0.002-0.135,0.003-0.202,0.003c-3.11,0-5.656-2.43-5.797-5.533
		c0.001-0.527,0.076-1.032,0.221-1.517C5.244,5.242,4.57,4.265,4.506,3.167C4.41,1.519,5.673,0.099,7.322,0.003
		C7.38,0,7.438-0.002,7.495-0.002c1.234,0,2.325,0.752,2.777,1.871c0.561-0.162,1.141-0.244,1.729-0.244
		c0.588,0,1.168,0.082,1.73,0.244c0.453-1.117,1.544-1.868,2.775-1.868c0.803,0.001,1.554,0.314,2.12,0.881s0.876,1.319,0.875,2.118
		c-0.002,1.174-0.681,2.218-1.723,2.705c0.145,0.48,0.219,0.976,0.222,1.478C17.859,10.315,15.316,12.754,12.211,12.755
		L12.211,12.755z M12.033,11.251c0.059,0.002,0.119,0.004,0.179,0.004c2.3,0,4.184-1.802,4.288-4.102
		c-0.004-0.534-0.138-1.093-0.39-1.597c-0.109-0.218-0.105-0.475,0.01-0.69c0.115-0.214,0.328-0.36,0.57-0.39
		C17.436,4.385,18,3.75,18.001,2.999c0.001-0.824-0.669-1.495-1.493-1.497c-0.792,0-1.447,0.618-1.495,1.406
		c-0.015,0.246-0.149,0.469-0.361,0.597c-0.117,0.071-0.251,0.108-0.388,0.108c-0.107,0-0.211-0.022-0.309-0.067
		c-0.618-0.279-1.276-0.421-1.955-0.421c-0.679,0-1.337,0.142-1.955,0.421C9.948,3.591,9.844,3.613,9.737,3.613
		c-0.137,0-0.271-0.037-0.388-0.108C9.137,3.377,9.003,3.153,8.988,2.907c-0.046-0.79-0.699-1.409-1.487-1.409
		c-0.03,0-0.061,0.001-0.091,0.003C7.011,1.524,6.646,1.701,6.38,2s-0.4,0.682-0.376,1.08C6.045,3.8,6.595,4.388,7.311,4.477
		c0.241,0.03,0.454,0.176,0.568,0.39c0.115,0.214,0.118,0.471,0.01,0.689C7.637,6.061,7.503,6.626,7.501,7.19
		c0.104,2.271,1.988,4.065,4.29,4.065c0.059,0,0.119-0.001,0.178-0.004c0.005,0,0.026-0.001,0.031-0.001
		C12.006,11.25,12.027,11.251,12.033,11.251z"/>
	<path d="M9.751,7.875c-0.044,0-0.088-0.004-0.131-0.012c-0.513-0.06-0.922-0.47-0.982-0.982C8.63,6.838,8.626,6.794,8.626,6.75
		S8.63,6.662,8.638,6.619c0.06-0.513,0.47-0.922,0.982-0.982c0.043-0.008,0.087-0.012,0.131-0.012s0.088,0.004,0.131,0.012
		c0.513,0.06,0.922,0.47,0.982,0.982c0.008,0.043,0.012,0.087,0.012,0.131s-0.004,0.088-0.012,0.131
		c-0.06,0.513-0.47,0.922-0.982,0.982C9.839,7.871,9.795,7.875,9.751,7.875z"/>
	<path d="M14.251,7.875c-0.044,0-0.088-0.004-0.131-0.011c-0.513-0.06-0.922-0.47-0.982-0.983c-0.008-0.042-0.011-0.086-0.011-0.13
		s0.004-0.088,0.011-0.13c0.06-0.513,0.47-0.923,0.982-0.983c0.043-0.008,0.087-0.011,0.131-0.011s0.088,0.004,0.131,0.011
		c0.513,0.06,0.922,0.47,0.983,0.983c0.007,0.042,0.011,0.086,0.011,0.13s-0.004,0.088-0.011,0.13
		c-0.061,0.513-0.47,0.923-0.983,0.983C14.339,7.871,14.295,7.875,14.251,7.875z"/>
	<path d="M3.751,24c-0.229,0-0.443-0.103-0.586-0.281l-2.014-2.517c-0.742-0.928-1.151-2.093-1.15-3.281V12.75
		c0-1.241,1.009-2.25,2.25-2.25s2.25,1.009,2.25,2.25v1.82c0.208-0.066,0.426-0.1,0.646-0.1c0.176,0,0.353,0.022,0.526,0.065
		c0.557,0.139,1.026,0.487,1.322,0.98l1.124,1.684c0.578,0.866,0.883,1.875,0.883,2.917v3c0,0.414-0.336,0.75-0.75,0.75
		s-0.75-0.336-0.75-0.75v-3c0-0.744-0.218-1.465-0.631-2.083l-1.143-1.715c-0.106-0.176-0.248-0.284-0.419-0.326
		c-0.053-0.013-0.106-0.02-0.16-0.02c-0.116,0-0.231,0.032-0.333,0.093l-0.034,0.022c-0.258,0.172-0.354,0.519-0.221,0.808
		l1.334,2.221c0.213,0.355,0.097,0.816-0.257,1.029c-0.117,0.07-0.25,0.107-0.386,0.107c-0.262,0-0.509-0.139-0.643-0.364
		l-1.351-2.25c-0.011-0.018-0.019-0.034-0.027-0.05c-0.161-0.319-0.239-0.678-0.226-1.039c-0.001-0.014-0.002-0.031-0.002-0.048
		v-3.75c0-0.414-0.336-0.75-0.75-0.75s-0.75,0.336-0.75,0.75v5.171c0,0.849,0.292,1.681,0.822,2.344l2.014,2.517
		c0.258,0.323,0.206,0.796-0.117,1.054C4.087,23.942,3.921,24,3.751,24z"/>
	<path d="M20.251,24c-0.169,0-0.336-0.058-0.468-0.164c-0.323-0.259-0.375-0.731-0.117-1.054l2.014-2.517
		c0.53-0.662,0.822-1.494,0.822-2.343V12.75c0-0.414-0.336-0.75-0.75-0.75s-0.75,0.336-0.75,0.75v3.75
		c0,0.021-0.001,0.042-0.004,0.063c0.01,0.356-0.068,0.71-0.227,1.025c-0.01,0.02-0.02,0.037-0.03,0.054l-1.345,2.244
		c-0.135,0.225-0.382,0.364-0.644,0.364c-0.136,0-0.269-0.037-0.386-0.107c-0.171-0.103-0.292-0.266-0.341-0.46
		s-0.019-0.396,0.084-0.568l1.332-2.222c0.133-0.289,0.036-0.636-0.23-0.813l-0.031-0.02c-0.095-0.057-0.211-0.09-0.328-0.09
		c-0.053,0-0.106,0.007-0.158,0.02c-0.169,0.042-0.311,0.147-0.4,0.296l-1.161,1.744c-0.414,0.619-0.632,1.34-0.631,2.084v3
		c0,0.414-0.336,0.75-0.75,0.75s-0.75-0.336-0.75-0.75v-3c-0.001-1.042,0.305-2.05,0.884-2.917l1.141-1.714
		c0.28-0.468,0.746-0.81,1.303-0.949c0.172-0.043,0.349-0.065,0.525-0.065c0.22,0,0.438,0.034,0.647,0.101v-1.82
		c0-1.241,1.009-2.25,2.25-2.25s2.25,1.009,2.25,2.25v5.171c0,1.188-0.408,2.353-1.151,3.281l-2.014,2.517
		C20.694,23.898,20.48,24,20.251,24z"/>
</g>
</svg>
