<?xml version="1.0" encoding="utf-8"?>
<!-- Generator: Adobe Illustrator 22.1.0, SVG Export Plug-In . SVG Version: 6.00 Build 0)  -->
<svg version="1.1" id="Regular" xmlns="http://www.w3.org/2000/svg" xmlns:xlink="http://www.w3.org/1999/xlink" x="0px" y="0px"
	 viewBox="0 0 24 24" style="enable-background:new 0 0 24 24;" xml:space="preserve">
<title>wild-bird-footstep</title>
<g>
	<path d="M18,17.751c-0.414,0-0.75-0.336-0.75-0.75v-5.25c0-0.414,0.336-0.75,0.75-0.75s0.75,0.336,0.75,0.75v5.25
		C18.75,17.415,18.414,17.751,18,17.751z"/>
	<path d="M18,23.751c-0.414,0-0.75-0.336-0.75-0.75v-3c0-0.414,0.336-0.75,0.75-0.75s0.75,0.336,0.75,0.75v3
		C18.75,23.415,18.414,23.751,18,23.751z"/>
	<path d="M15.75,18.501c-0.229,0-0.443-0.103-0.586-0.281l-3-3.75c-0.258-0.323-0.206-0.796,0.117-1.054
		c0.133-0.106,0.3-0.165,0.469-0.165c0.229,0,0.443,0.103,0.586,0.281l3,3.75c0.258,0.323,0.206,0.796-0.117,1.054
		C16.086,18.443,15.92,18.501,15.75,18.501z"/>
	<path d="M20.25,18.501c-0.169,0-0.336-0.058-0.468-0.164c-0.323-0.259-0.375-0.731-0.117-1.054l3-3.75
		c0.143-0.179,0.356-0.281,0.585-0.281c0.17,0,0.336,0.058,0.469,0.165c0.323,0.258,0.375,0.731,0.117,1.054l-3,3.75
		C20.693,18.399,20.479,18.501,20.25,18.501z"/>
	<path d="M7.5,14.001c-0.414,0-0.75-0.336-0.75-0.75V12.57c-0.659-0.045-1.272-0.198-1.831-0.455l-0.458,1.374
		c-0.102,0.307-0.388,0.513-0.711,0.513c-0.081,0-0.161-0.013-0.238-0.039c-0.189-0.063-0.343-0.197-0.433-0.376
		s-0.104-0.383-0.041-0.573l0.597-1.791C2.09,9.542,1.659,5.723,1.539,3.801c-0.094,0.08-0.186,0.162-0.274,0.246
		C1.125,4.179,0.942,4.251,0.75,4.251c-0.206,0-0.404-0.086-0.545-0.235c-0.284-0.301-0.27-0.776,0.03-1.06
		c0.487-0.46,1.029-0.867,1.609-1.21c0.006-0.003,0.016-0.009,0.023-0.013C3.119,1.001,4.53,0.578,5.96,0.502
		c3.396,0,6.84,9.16,7.496,10.997c0.139,0.39-0.065,0.819-0.454,0.959c-0.082,0.029-0.167,0.044-0.252,0.044
		c-0.316,0-0.6-0.2-0.706-0.498c-0.086-0.241-0.178-0.491-0.275-0.745c-0.511,0.279-1.275,0.647-2.171,0.927
		c-0.451,0.141-0.903,0.246-1.349,0.312v0.753C8.25,13.665,7.914,14.001,7.5,14.001z M2.996,2.824
		C3.04,5.248,3.604,9.392,4.95,10.401c0.606,0.455,1.353,0.685,2.218,0.685c1.655,0,3.339-0.839,4.041-1.235
		c-0.153-0.368-0.31-0.732-0.469-1.091C9.722,9.527,8.791,9.915,7.966,9.915c-0.273,0-0.538-0.042-0.787-0.125
		C5.656,9.284,5.28,7.475,5.264,7.398c-0.039-0.196,0-0.396,0.111-0.563c0.111-0.167,0.281-0.28,0.477-0.319
		c0.049-0.01,0.099-0.015,0.148-0.015c0.355,0,0.664,0.253,0.734,0.602C6.737,7.11,6.966,8.141,7.653,8.367
		c0.095,0.031,0.2,0.047,0.312,0.047c0.39,0,1.068-0.187,2.125-1.047C8.178,3.434,6.734,2.013,6.009,2.002
		C4.97,2.058,3.934,2.342,2.996,2.824z"/>
	<path d="M5.625,5.001c-0.044,0-0.088-0.004-0.131-0.012c-0.513-0.06-0.922-0.47-0.982-0.982C4.504,3.964,4.5,3.92,4.5,3.876
		s0.004-0.088,0.012-0.131c0.06-0.513,0.47-0.922,0.982-0.982c0.043-0.008,0.087-0.012,0.131-0.012s0.088,0.004,0.131,0.012
		c0.513,0.06,0.922,0.47,0.982,0.982C6.746,3.789,6.75,3.833,6.75,3.876S6.746,3.964,6.738,4.008C6.678,4.52,6.269,4.929,5.756,4.99
		C5.713,4.998,5.669,5.001,5.625,5.001z"/>
</g>
</svg>
