<?xml version="1.0" encoding="utf-8"?>
<!-- Generator: Adobe Illustrator 22.1.0, SVG Export Plug-In . SVG Version: 6.00 Build 0)  -->
<svg version="1.1" id="Regular" xmlns="http://www.w3.org/2000/svg" xmlns:xlink="http://www.w3.org/1999/xlink" x="0px" y="0px"
	 viewBox="0 0 24 24" style="enable-background:new 0 0 24 24;" xml:space="preserve">
<title>wild-bird-flamingo</title>
<g>
	<path d="M7.8,24c-0.414,0-0.75-0.336-0.75-0.75v-1.5H5.158c-0.191,0-0.379-0.036-0.556-0.107c-0.371-0.148-0.663-0.432-0.822-0.801
		c-0.158-0.369-0.164-0.776-0.016-1.149l0.933-2.333c-1.584-0.714-2.846-1.961-3.578-3.546c-0.099-0.214-0.091-0.466,0.022-0.673
		c0.113-0.207,0.319-0.351,0.553-0.384l0.859-0.123c0.025-0.526,0.219-1.052,0.57-1.539C4.042,9.823,5.877,9,7.8,9
		c1.432,0,2.772,0.494,3.75,1.356V3.75C11.55,1.682,13.233,0,15.3,0c1.181,0,2.281,0.553,2.99,1.492
		c0.13-0.018,0.338-0.039,0.597-0.039c0.672,0,1.646,0.143,2.476,0.823C22.317,3.057,22.8,4.31,22.8,6c0,0.414-0.336,0.75-0.75,0.75
		h-4.505C16.899,7.234,16.107,7.5,15.3,7.5c-0.823,0-1.607-0.267-2.25-0.752V13.5c0,2.236-1.95,4.135-4.5,4.45v2.3h1.5
		c0.414,0,0.75,0.336,0.75,0.75s-0.336,0.75-0.75,0.75h-1.5v1.5C8.55,23.664,8.214,24,7.8,24z M5.158,20.249L7.05,20.25v-2.279
		c-0.312-0.026-0.621-0.073-0.926-0.139L5.158,20.249z M5.941,16.235c0.56,0.177,1.139,0.267,1.724,0.267c0.04,0,0.08,0,0.12-0.001
		c2.08,0,3.766-1.346,3.766-3c0-1.654-1.682-3-3.75-3c-1.656,0-2.931,0.74-3.46,1.473c-0.084,0.116-0.175,0.268-0.232,0.44
		l2.836-0.405C6.981,12.002,7.015,12,7.049,12c0.371,0,0.691,0.277,0.744,0.644c0.058,0.41-0.227,0.79-0.636,0.849
		c0,0-3.676,0.526-3.697,0.528l-0.458,0.065c0.702,0.996,1.702,1.741,2.866,2.126C5.894,16.219,5.918,16.226,5.941,16.235z
		 M15.3,1.5c-1.241,0-2.25,1.009-2.25,2.25S14.06,6,15.3,6s2.25-1.009,2.25-2.25S16.541,1.5,15.3,1.5z M21.257,5.25
		c-0.102-0.829-0.385-1.438-0.845-1.814c-0.461-0.378-1.03-0.473-1.45-0.483c0.058,0.263,0.088,0.53,0.088,0.797
		c0,0.521-0.107,1.029-0.313,1.5H21.257z"/>
</g>
</svg>
