<?xml version="1.0" encoding="utf-8"?>
<!-- Generator: Adobe Illustrator 22.1.0, SVG Export Plug-In . SVG Version: 6.00 Build 0)  -->
<svg version="1.1" id="Regular" xmlns="http://www.w3.org/2000/svg" xmlns:xlink="http://www.w3.org/1999/xlink" x="0px" y="0px"
	 viewBox="0 0 24 24" style="enable-background:new 0 0 24 24;" xml:space="preserve">
<title>wind-north</title>
<g>
	<path d="M10.499,14.998c-0.174,0-0.344-0.061-0.478-0.172c-0.245-0.203-0.336-0.539-0.227-0.837l3.75-10.227
		c0.108-0.294,0.391-0.492,0.704-0.492s0.596,0.198,0.704,0.492l3.75,10.227c0.109,0.298,0.018,0.634-0.226,0.836
		c-0.134,0.111-0.304,0.172-0.478,0.172c-0.136,0-0.27-0.037-0.386-0.107l-3.364-2.018l-3.364,2.019
		C10.768,14.961,10.635,14.998,10.499,14.998z M11.934,12.512l1.929-1.157c0.116-0.07,0.25-0.107,0.386-0.107
		c0.136,0,0.27,0.037,0.386,0.107l1.928,1.157l-2.315-6.313L11.934,12.512z"/>
	<path d="M10.498,23.998c-0.414,0-0.75-0.336-0.75-0.75s0.336-0.75,0.75-0.75h0.75c0.414,0,0.75-0.336,0.75-0.75
		s-0.337-0.75-0.75-0.75h-10.5c-0.414,0-0.75-0.336-0.75-0.75s0.336-0.75,0.75-0.75h10.5c1.241,0,2.25,1.009,2.25,2.25
		s-1.01,2.25-2.25,2.25H10.498z"/>
	<path d="M0.748,17.998c-0.414,0-0.75-0.336-0.75-0.75s0.336-0.75,0.75-0.75h5.25c0.414,0,0.75-0.336,0.75-0.75
		s-0.336-0.75-0.75-0.75h-0.75c-0.414,0-0.75-0.336-0.75-0.75s0.336-0.75,0.75-0.75h0.75c1.241,0,2.25,1.009,2.25,2.25
		s-1.009,2.25-2.25,2.25H0.748z"/>
	<path d="M16.576,19.194c-0.339,0-0.637-0.229-0.724-0.556c-0.107-0.399,0.131-0.811,0.531-0.918
		c4.394-1.177,7.012-5.709,5.835-10.103c-0.57-2.129-1.935-3.908-3.843-5.01c-1.257-0.726-2.679-1.109-4.112-1.109
		c-0.72,0-1.443,0.096-2.148,0.284c-3.6,0.964-6.115,4.24-6.116,7.967c0,0.473,0.04,0.948,0.12,1.414
		c0.034,0.197-0.011,0.396-0.127,0.56s-0.288,0.272-0.485,0.306c-0.042,0.007-0.085,0.011-0.127,0.011
		c-0.366,0-0.677-0.262-0.739-0.623c-0.094-0.549-0.142-1.111-0.142-1.668c0.001-4.404,2.973-8.276,7.228-9.416
		c0.833-0.223,1.686-0.336,2.538-0.336c1.695,0,3.376,0.453,4.861,1.311c2.255,1.303,3.868,3.405,4.542,5.921
		c1.39,5.193-1.703,10.55-6.896,11.94C16.705,19.185,16.641,19.194,16.576,19.194z"/>
</g>
</svg>
