<?xml version="1.0" encoding="utf-8"?>
<!-- Generator: Adobe Illustrator 22.1.0, SVG Export Plug-In . SVG Version: 6.00 Build 0)  -->
<svg version="1.1" id="Regular" xmlns="http://www.w3.org/2000/svg" xmlns:xlink="http://www.w3.org/1999/xlink" x="0px" y="0px"
	 viewBox="0 0 24 24" style="enable-background:new 0 0 24 24;" xml:space="preserve">
<title>wine-opener</title>
<g>
	<path d="M0.747,24.004c-0.2,0-0.389-0.078-0.53-0.22c-0.292-0.292-0.292-0.768,0-1.061l2.71-2.71
		c0.283-0.282,0.658-0.438,1.055-0.438c0.278,0,0.549,0.077,0.786,0.225c0,0,1.037,0.456,1.042,0.458l-2.381-2.945
		c-0.368-0.512-0.399-1.162-0.092-1.673c0.205-0.342,0.531-0.583,0.918-0.679c0.12-0.03,0.242-0.045,0.363-0.045
		c0.256,0,0.509,0.067,0.732,0.193l3.681,1.777L6.53,13.981c-0.026-0.03-0.049-0.061-0.069-0.094
		c-0.237-0.385-0.287-0.848-0.14-1.273c0.13-0.376,0.4-0.68,0.758-0.854c0.205-0.1,0.424-0.15,0.65-0.15
		c0.166,0,0.331,0.028,0.49,0.083l2.227,0.617c0.047,0.013,0.093,0.031,0.136,0.052l1.069-1.074
		c-0.397-0.841-0.233-1.866,0.438-2.538l0.521-0.52L9.463,5.084c-1.161-1.161-1.161-3.05,0-4.211
		c0.562-0.562,1.31-0.871,2.106-0.871s1.544,0.309,2.106,0.871l9.454,9.454c1.161,1.161,1.161,3.05,0,4.212
		c-0.561,0.562-1.309,0.871-2.106,0.871s-1.544-0.309-2.106-0.871l-3.147-3.147l-0.52,0.52c-0.422,0.421-0.983,0.653-1.58,0.653
		c-0.335,0-0.661-0.074-0.959-0.215l-1.076,1.076c-0.282,0.282-0.657,0.438-1.055,0.438c-0.206,0-0.407-0.042-0.596-0.125
		c0,0-2.214-0.615-2.214-0.615l2.522,2.931c0.029,0.033,0.054,0.068,0.076,0.106c0.204,0.341,0.263,0.742,0.166,1.129
		c-0.097,0.387-0.339,0.712-0.682,0.917c-0.231,0.139-0.496,0.212-0.766,0.212c-0.256,0-0.509-0.067-0.733-0.192
		c0,0-3.7-1.787-3.709-1.791L7.02,19.37c0.252,0.345,0.351,0.747,0.288,1.145c-0.062,0.393-0.272,0.737-0.593,0.971
		c-0.258,0.188-0.562,0.287-0.879,0.287c-0.233,0-0.468-0.056-0.677-0.163l-1.053-0.462c-0.046-0.02-0.09-0.045-0.13-0.074
		l-2.699,2.709C1.135,23.926,0.947,24.004,0.747,24.004z M11.569,1.501c-0.395,0-0.766,0.153-1.045,0.432
		c-0.576,0.576-0.576,1.514,0,2.09l9.454,9.454c0.279,0.279,0.65,0.432,1.045,0.432s0.766-0.154,1.045-0.432
		c0.576-0.576,0.576-1.514,0-2.09l-9.454-9.454C12.336,1.654,11.964,1.501,11.569,1.501z M13.151,9.811
		c-0.286,0.286-0.286,0.753,0,1.04c0.138,0.138,0.322,0.214,0.519,0.214s0.382-0.076,0.52-0.215l0.52-0.52l-1.039-1.039
		L13.151,9.811z"/>
</g>
</svg>
