<?xml version="1.0" encoding="utf-8"?>
<!-- Generator: Adobe Illustrator 22.1.0, SVG Export Plug-In . SVG Version: 6.00 Build 0)  -->
<svg version="1.1" id="Regular" xmlns="http://www.w3.org/2000/svg" xmlns:xlink="http://www.w3.org/1999/xlink" x="0px" y="0px"
	 viewBox="0 0 24 24" style="enable-background:new 0 0 24 24;" xml:space="preserve">
<title>wine-barrel-1</title>
<g>
	<circle cx="8.625" cy="4.125" r="1.125"/>
	<path d="M12,24c-3.217,0-6.991-1.056-8.171-3.415c-0.013-0.026-0.023-0.049-0.032-0.073c-1.301-3.458-1.793-7.235-1.423-10.924
		c-0.017-0.124-0.003-0.25,0.041-0.367c0.227-1.958,0.687-3.875,1.369-5.696C4.347,1.448,7.72,0,12,0
		c4.28,0,7.653,1.448,8.216,3.525c0.682,1.822,1.142,3.739,1.369,5.698c0.043,0.116,0.057,0.242,0.041,0.365
		c0.37,3.689-0.122,7.467-1.423,10.927c-0.01,0.025-0.02,0.048-0.031,0.071C18.992,22.944,15.217,24,12,24z M5.187,19.947
		C5.854,21.221,8.212,22.5,12,22.5c3.788,0,6.146-1.279,6.813-2.553c0.359-0.961,0.656-1.958,0.883-2.975
		c-2.236,1.17-4.728,1.785-7.257,1.785c-0.154,0-0.307-0.002-0.461-0.007c-0.133,0.005-0.288,0.007-0.444,0.007
		c-2.513,0-4.996-0.615-7.231-1.785C4.532,17.988,4.828,18.986,5.187,19.947z M3.958,15.041c2.281,1.45,4.903,2.216,7.596,2.216
		c0.141,0,0.283-0.002,0.425-0.006c0.164,0.004,0.306,0.006,0.448,0.006c2.706,0,5.336-0.766,7.617-2.216
		c0.19-1.404,0.248-2.828,0.172-4.246c-2.362,1.361-5.033,2.078-7.765,2.078c-0.157,0-0.316-0.002-0.473-0.007
		c-0.135,0.005-0.293,0.008-0.451,0.008c-2.676,0-5.401-0.735-7.74-2.079C3.71,12.212,3.768,13.637,3.958,15.041z M12,11.366
		c0.145,0.005,0.289,0.007,0.433,0.007c2.682,0,5.382-0.796,7.629-2.244c-0.135-1.052-0.344-2.099-0.624-3.123
		C18.081,7.37,15.234,8.25,12,8.25c-3.234,0-6.081-0.88-7.438-2.244C4.281,7.03,4.072,8.077,3.937,9.129
		c2.247,1.449,4.939,2.244,7.609,2.244c0.143,0,0.287-0.002,0.43-0.007c0.004,0,0.008,0,0.012,0S11.996,11.366,12,11.366z M12,1.5
		c-4.212,0-6.799,1.529-6.799,2.625S7.788,6.75,12,6.75s6.799-1.529,6.799-2.625S16.213,1.5,12,1.5z"/>
</g>
</svg>
