<?xml version="1.0" encoding="utf-8"?>
<!-- Generator: Adobe Illustrator 22.1.0, SVG Export Plug-In . SVG Version: 6.00 Build 0)  -->
<svg version="1.1" id="Layer_1" xmlns="http://www.w3.org/2000/svg" xmlns:xlink="http://www.w3.org/1999/xlink" x="0px" y="0px"
	 viewBox="0 0 24 24" style="enable-background:new 0 0 24 24;" xml:space="preserve">
<title>wireless-payment-smartphone</title>
<g>
	<path d="M10.5,23.748c-0.414,0-0.75-0.336-0.75-0.75v-7.984c0-0.414-0.336-0.75-0.75-0.75H0.75c-0.22,0-0.428-0.096-0.571-0.264
		c-0.143-0.168-0.204-0.389-0.169-0.607l0.842-5.164C0.981,7.39,1.695,6.772,2.55,6.764H4.5V6.01H3.25
		c-0.965,0-1.75-0.785-1.75-1.75v-1c0-0.965,0.785-1.75,1.75-1.75h4C8.215,1.51,9,2.295,9,3.26v1c0,0.965-0.785,1.75-1.75,1.75H6
		v0.754h1.193c0.86,0.008,1.576,0.627,1.706,1.472l0.755,4.627c0.939,0.283,1.596,1.149,1.596,2.151v7.984
		C11.25,23.412,10.914,23.748,10.5,23.748z M8.118,12.764l-0.7-4.293C7.399,8.349,7.304,8.265,7.186,8.264H5.313
		C5.292,8.267,5.271,8.268,5.25,8.268c-0.022,0-0.043-0.002-0.064-0.004H2.559c-0.113,0.002-0.208,0.086-0.226,0.2l-0.701,4.3H8.118
		z M3.25,3.01C3.112,3.01,3,3.122,3,3.26v1c0,0.138,0.112,0.25,0.25,0.25h4c0.138,0,0.25-0.112,0.25-0.25v-1
		c0-0.138-0.112-0.25-0.25-0.25H3.25z"/>
	<path d="M4.109,11.26c-0.414,0-0.75-0.336-0.75-0.75s0.336-0.75,0.75-0.75h1.956c0.414,0,0.75,0.336,0.75,0.75
		s-0.336,0.75-0.75,0.75H4.109z"/>
	<path d="M14.674,2.902c-0.228,0-0.441-0.102-0.583-0.279c-0.126-0.155-0.184-0.351-0.163-0.55s0.118-0.378,0.274-0.504
		c1.229-0.994,2.786-1.542,4.385-1.542c1.598,0,3.156,0.548,4.385,1.542c0.156,0.126,0.253,0.305,0.274,0.504
		c0.021,0.199-0.037,0.395-0.163,0.551C22.94,2.801,22.727,2.902,22.5,2.902c-0.171,0-0.339-0.059-0.471-0.167
		c-0.964-0.78-2.186-1.209-3.441-1.209c-1.255,0-2.477,0.429-3.441,1.209C15.013,2.843,14.845,2.902,14.674,2.902z"/>
	<path d="M16.3,5.264c-0.228,0-0.44-0.101-0.584-0.278c-0.26-0.322-0.21-0.795,0.112-1.055c0.772-0.624,1.751-0.968,2.754-0.968
		s1.982,0.344,2.754,0.967c0.322,0.26,0.372,0.733,0.112,1.055c-0.144,0.177-0.356,0.279-0.584,0.279
		c-0.171,0-0.338-0.059-0.471-0.167c-0.507-0.41-1.151-0.635-1.812-0.635s-1.304,0.226-1.812,0.636
		C16.639,5.205,16.471,5.264,16.3,5.264z"/>
	<path d="M18.188,18.76c-0.414,0-0.75-0.336-0.75-0.75v-0.354c-0.674-0.154-1.283-0.543-1.706-1.098
		c-0.121-0.159-0.173-0.356-0.146-0.555s0.13-0.375,0.289-0.496c0.131-0.1,0.288-0.153,0.454-0.153c0.233,0,0.457,0.111,0.597,0.296
		c0.281,0.369,0.709,0.58,1.176,0.58l0.057-0.001c0.773,0,1.341-0.421,1.341-0.797c0-0.376-0.561-0.796-1.312-0.796
		c-1.551,0-2.813-1.031-2.813-2.298c0-1.052,0.85-1.943,2.063-2.213V9.76c0-0.414,0.336-0.75,0.75-0.75s0.75,0.336,0.75,0.75v0.356
		c0.674,0.154,1.283,0.542,1.705,1.096c0.121,0.159,0.173,0.357,0.146,0.555c-0.027,0.198-0.13,0.375-0.289,0.496
		c-0.132,0.1-0.289,0.153-0.454,0.153c-0.233,0-0.456-0.111-0.597-0.296c-0.277-0.364-0.714-0.581-1.168-0.581
		c-0.021,0-0.041,0-0.062,0.001c-0.776,0.001-1.344,0.421-1.344,0.798c0,0.377,0.562,0.798,1.313,0.798
		c1.551,0,2.812,1.03,2.812,2.296c0,1.052-0.849,1.943-2.062,2.212v0.365C18.938,18.424,18.601,18.76,18.188,18.76z"/>
	<path d="M15.45,24.01c-0.726-0.003-1.406-0.288-1.915-0.802c-0.51-0.514-0.788-1.196-0.785-1.919V9.479
		c-0.004-1.489,1.206-2.707,2.696-2.715H21.3c1.496,0.008,2.707,1.229,2.7,2.722v11.805c0.004,0.72-0.275,1.402-0.783,1.916
		c-0.509,0.514-1.188,0.8-1.912,0.803c-0.001,0-0.001,0-0.002,0H15.45z M14.25,21.291c-0.001,0.326,0.123,0.632,0.35,0.861
		c0.227,0.229,0.53,0.356,0.853,0.358h5.848c0.32-0.002,0.622-0.129,0.849-0.358c0.227-0.229,0.351-0.534,0.35-0.857V21.01h-8.25
		V21.291z M22.5,19.51V9.483c0.003-0.669-0.537-1.216-1.204-1.219h-5.845c-0.664,0.004-1.203,0.548-1.201,1.213V19.51H22.5z"/>
</g>
</svg>
