<?xml version="1.0" encoding="utf-8"?>
<!-- Generator: Adobe Illustrator 22.1.0, SVG Export Plug-In . SVG Version: 6.00 Build 0)  -->
<svg version="1.1" id="Regular" xmlns="http://www.w3.org/2000/svg" xmlns:xlink="http://www.w3.org/1999/xlink" x="0px" y="0px"
	 viewBox="0 0 24 24" style="enable-background:new 0 0 24 24;" xml:space="preserve">
<title>wolf-body-howl</title>
<g>
	<path d="M12.597,24c-0.163,0-0.318-0.052-0.449-0.15c-0.331-0.249-0.398-0.719-0.151-1.05c0.101-0.135,2.516-3.3,5.85-3.3V15
		c0-0.414,0.336-0.75,0.75-0.75s0.75,0.336,0.75,0.75v4.5h1.5V15c0-1.577,0.4-2.471,0.753-3.26c0.367-0.821,0.747-1.671,0.747-3.49
		v-6c0-0.414-0.336-0.75-0.75-0.75h-0.349l-1.277,1.916c-0.092,0.138-0.229,0.242-0.386,0.295c-0.02,0.007-1.97,0.679-2.567,1.874
		c-0.355,0.759-0.689,1.548-0.993,2.347l1.64-0.41C17.725,7.507,17.786,7.5,17.848,7.5c0.344,0,0.644,0.234,0.727,0.569
		c0.049,0.194,0.019,0.396-0.084,0.567c-0.103,0.172-0.267,0.293-0.461,0.342l-3,0.75c-0.06,0.015-0.121,0.023-0.183,0.023
		c-0.208,0-0.409-0.088-0.55-0.241c-0.186-0.201-0.248-0.488-0.16-0.748c0.436-1.3,0.951-2.588,1.532-3.829
		c0.731-1.463,2.503-2.28,3.19-2.551l1.365-2.047C20.363,0.125,20.596,0,20.847,0h0.75c1.241,0,2.25,1.009,2.25,2.25v6
		c0,2.14-0.466,3.183-0.878,4.103c-0.348,0.777-0.622,1.391-0.622,2.647v4.5h0.75c0.414,0,0.75,0.336,0.75,0.75S23.511,21,23.097,21
		h-5.25c-2.579,0-4.63,2.673-4.65,2.7C13.056,23.888,12.832,24,12.597,24z"/>
	<path d="M5.848,24c-0.414,0-0.75-0.336-0.75-0.75c0-0.839,0-1.771,0.092-2.719c-0.288,0.066-0.579,0.099-0.87,0.099
		c-0.462,0-0.919-0.08-1.359-0.237c-1.015-0.363-1.828-1.099-2.289-2.073c-2.191-4.382,1.662-7.618,1.702-7.65
		c0.134-0.11,0.303-0.17,0.476-0.17c0.142,0,0.28,0.04,0.4,0.116c0.274,0.173,0.406,0.5,0.328,0.815
		c-0.006,0.025-0.62,2.616,0.552,3.789c0.636,0.698,1.471,1.14,2.375,1.264c0.676-0.97,1.623-1.703,2.816-2.18
		c2.139-0.842,4.08-2.055,5.772-3.606c0.139-0.127,0.319-0.197,0.507-0.197c0.209,0,0.411,0.088,0.552,0.243
		c0.28,0.305,0.259,0.78-0.046,1.06c-1.828,1.677-3.924,2.987-6.232,3.895c-1.022,0.409-1.775,1.017-2.297,1.857
		c-0.023,0.051-0.051,0.099-0.085,0.144c-0.284,0.495-0.491,1.063-0.634,1.733c-0.005,0.06-0.017,0.119-0.036,0.176
		c-0.222,1.162-0.222,2.422-0.222,3.641C6.598,23.664,6.261,24,5.848,24z M1.941,13.656c-0.505,1.057-0.713,2.428,0.077,4.008
		c0.296,0.624,0.807,1.089,1.445,1.317c0.277,0.099,0.564,0.149,0.854,0.149c0.375,0,0.74-0.083,1.084-0.246
		c0.021-0.01,0.043-0.021,0.065-0.032c0.087-0.35,0.188-0.677,0.308-0.987c-1.05-0.252-2.007-0.813-2.732-1.612
		C2.328,15.54,2.033,14.573,1.941,13.656z"/>
	<path d="M8.848,24c-0.414,0-0.75-0.336-0.75-0.75v-1.5c0-0.352,0.24-0.653,0.583-0.731c0.029-0.007,0.061-0.014,0.092-0.023
		c0.589-0.161,1.079-0.54,1.381-1.068c0.302-0.529,0.38-1.143,0.22-1.73c-0.109-0.399,0.127-0.812,0.526-0.921
		c0.064-0.018,0.13-0.027,0.197-0.027c0.337,0,0.634,0.227,0.723,0.553c0.508,1.863-0.462,3.784-2.224,4.496v0.952
		C9.598,23.664,9.261,24,8.848,24z"/>
</g>
</svg>
