<?xml version="1.0" encoding="utf-8"?>
<!-- Generator: Adobe Illustrator 22.1.0, SVG Export Plug-In . SVG Version: 6.00 Build 0)  -->
<svg version="1.1" id="Regular" xmlns="http://www.w3.org/2000/svg" xmlns:xlink="http://www.w3.org/1999/xlink" x="0px" y="0px"
	 viewBox="0 0 24 24" style="enable-background:new 0 0 24 24;" xml:space="preserve">
<title>wolf</title>
<g>
	<path d="M11.999,23.997c-1.629,0-3.164-0.909-4.562-2.702c-0.97-1.243-1.621-2.603-1.921-3.297
		c-1.904-0.223-3.456-1.639-4.438-2.814c-0.74-0.884-0.691-2.173,0.115-2.999c1.196-1.203,2.058-2.691,2.503-4.319
		C2.819,7.056,2.194,5.689,1.838,3.797c-0.282-1.498-0.291-2.788-0.291-2.93c0-0.323,0.206-0.609,0.513-0.712
		c0.048-0.016,0.496-0.16,1.222-0.16c1.067,0,2.747,0.306,4.691,1.763c1.257,0.943,1.896,1.838,2.22,2.51
		C10.765,4.035,11.383,3.913,12,3.913s1.234,0.122,1.806,0.355c0.324-0.672,0.962-1.567,2.219-2.51
		c1.943-1.457,3.622-1.763,4.688-1.763c0.724,0,1.173,0.143,1.221,0.16c0.306,0.102,0.512,0.388,0.512,0.711
		c0,0.142-0.008,1.432-0.29,2.93c-0.356,1.891-0.979,3.259-1.854,4.07c0.445,1.628,1.306,3.116,2.498,4.315
		c0.806,0.83,0.856,2.119,0.12,3.003c-0.982,1.175-2.534,2.592-4.438,2.815c-0.3,0.694-0.951,2.053-1.921,3.297
		C15.163,23.089,13.628,23.997,11.999,23.997z M3.071,1.498c0.125,2.176,0.676,4.655,1.884,5.459
		c0.256,0.17,0.384,0.487,0.316,0.788c-0.465,2.082-1.505,3.982-3.01,5.494C2,13.507,1.985,13.931,2.229,14.223
		c0.879,1.052,2.252,2.307,3.803,2.307c0.311,0,0.593,0.195,0.702,0.486c0.005,0.014,0.541,1.418,1.498,2.816
		c0.833,1.216,2.163,2.666,3.767,2.666c3.158,0,5.245-5.427,5.266-5.482c0.109-0.291,0.391-0.486,0.702-0.486
		c1.633,0,3.083-1.445,3.802-2.306c0.243-0.292,0.227-0.718-0.038-0.99c-1.499-1.507-2.539-3.406-3.004-5.488
		c-0.067-0.3,0.06-0.617,0.316-0.787c1.205-0.803,1.755-3.283,1.88-5.459c-0.07-0.004-0.142-0.006-0.215-0.006
		c-0.834,0-2.168,0.254-3.783,1.466c-1.78,1.335-1.94,2.443-1.941,2.454c-0.023,0.256-0.185,0.49-0.422,0.604
		c-0.103,0.049-0.216,0.075-0.328,0.075c-0.147,0-0.29-0.043-0.412-0.124c-0.543-0.362-1.174-0.553-1.822-0.553
		s-1.279,0.191-1.822,0.553C10.054,6.049,9.91,6.092,9.761,6.092c-0.115,0-0.23-0.027-0.333-0.078
		C9.189,5.896,9.03,5.656,9.013,5.389l0,0c-0.001,0-0.169-1.104-1.939-2.431c-1.616-1.212-2.95-1.466-3.786-1.466
		C3.214,1.492,3.141,1.494,3.071,1.498z"/>
	<path d="M11.253,20.267c-0.414,0-0.75-0.336-0.75-0.75s0.336-0.75,0.75-0.75h1.492c0.414,0,0.75,0.336,0.75,0.75
		s-0.336,0.75-0.75,0.75H11.253z"/>
	<path d="M8.642,13.555c-0.044,0-0.088-0.004-0.13-0.011c-0.513-0.06-0.923-0.47-0.983-0.982c-0.008-0.043-0.011-0.087-0.011-0.131
		s0.004-0.088,0.012-0.131c0.06-0.513,0.47-0.922,0.982-0.982c0.043-0.008,0.087-0.012,0.131-0.012s0.088,0.004,0.131,0.012
		c0.513,0.06,0.922,0.47,0.982,0.982c0.008,0.043,0.012,0.087,0.012,0.131s-0.004,0.088-0.011,0.131
		c-0.06,0.513-0.47,0.922-0.983,0.982C8.73,13.551,8.687,13.555,8.642,13.555z"/>
	<path d="M15.356,13.555c-0.044,0-0.088-0.004-0.13-0.011c-0.513-0.06-0.923-0.47-0.983-0.983c-0.007-0.042-0.011-0.086-0.011-0.13
		s0.004-0.088,0.011-0.131c0.06-0.513,0.47-0.922,0.982-0.983c0.043-0.008,0.087-0.011,0.131-0.011s0.088,0.004,0.131,0.011
		c0.513,0.06,0.922,0.47,0.983,0.983c0.007,0.042,0.011,0.086,0.011,0.131s-0.004,0.088-0.011,0.131
		c-0.06,0.513-0.47,0.923-0.983,0.983C15.444,13.551,15.401,13.555,15.356,13.555z"/>
	<path d="M13.491,11.315c-0.251,0-0.485-0.125-0.624-0.334c-0.111-0.167-0.151-0.367-0.112-0.563
		c0.039-0.197,0.153-0.366,0.32-0.477l2.238-1.492c0.124-0.082,0.267-0.126,0.416-0.126c0.251,0,0.485,0.125,0.624,0.334
		c0.111,0.167,0.151,0.367,0.112,0.563c-0.039,0.197-0.153,0.366-0.32,0.477l-2.238,1.492C13.783,11.272,13.64,11.315,13.491,11.315
		z"/>
	<path d="M10.507,11.315c-0.148,0-0.292-0.044-0.416-0.126L7.853,9.697c-0.167-0.111-0.28-0.281-0.319-0.477
		c-0.039-0.196,0-0.396,0.111-0.563c0.139-0.209,0.373-0.334,0.624-0.334c0.148,0,0.292,0.044,0.416,0.126l2.238,1.492
		c0.344,0.229,0.437,0.696,0.208,1.04C10.992,11.19,10.759,11.315,10.507,11.315z"/>
</g>
</svg>
