<?xml version="1.0" encoding="utf-8"?>
<!-- Generator: Adobe Illustrator 22.1.0, SVG Export Plug-In . SVG Version: 6.00 Build 0)  -->
<svg version="1.1" id="Regular" xmlns="http://www.w3.org/2000/svg" xmlns:xlink="http://www.w3.org/1999/xlink" x="0px" y="0px"
	 viewBox="0 0 24 24" style="enable-background:new 0 0 24 24;" xml:space="preserve">
<title>wolf-sit-1</title>
<g>
	<path d="M5.254,24c-0.414,0-0.75-0.336-0.75-0.75v-6c0-0.414,0.336-0.75,0.75-0.75s0.75,0.336,0.75,0.75v6
		C6.004,23.664,5.667,24,5.254,24z"/>
	<path d="M8.252,24c-0.41,0-0.739-0.321-0.75-0.731c-0.01-0.413,0.317-0.758,0.73-0.769l0.938-0.024
		c-0.392-0.832-0.702-1.913-0.479-3.035c0.229-1.152,0.961-2.106,2.176-2.835c0.116-0.07,0.249-0.107,0.385-0.107
		c0.262,0,0.509,0.14,0.644,0.364c0.103,0.172,0.133,0.374,0.084,0.568c-0.049,0.195-0.17,0.358-0.342,0.461
		c-0.837,0.502-1.334,1.121-1.476,1.84c-0.21,1.061,0.342,2.148,0.688,2.7c0,0,1.153-0.029,1.158-0.029
		c0.044,0.002,0.088,0.003,0.131,0.003c1.401,0,2.585-0.952,2.879-2.316c0.61-3.046-0.903-4.417-4.102-6.016
		c-2.144-1.072-3.467-3.912-3.936-5.082H6.503c-0.414,0-0.75-0.336-0.75-0.75s0.336-0.75,0.75-0.75H8.25
		c0.017,0,0.035,0.001,0.052,0.002C8.346,7.499,8.391,7.5,8.436,7.5c0.949,0,1.775-0.675,1.962-1.605l0.005-0.04
		c-0.017-0.003-0.039-0.011-0.06-0.02c-1.174-0.493-2.231-1.194-3.14-2.085L3.754,3.75c-0.414,0-0.75-0.336-0.75-0.75
		c0-0.36-0.596-0.829-1.5-1.206v9.456c0,1.475,0.399,2.565,0.785,3.619C2.656,15.874,3.004,16.823,3.004,18v5.25
		c0,0.414-0.336,0.75-0.75,0.75s-0.75-0.336-0.75-0.75V18c0-0.912-0.289-1.701-0.624-2.615c-0.411-1.122-0.876-2.394-0.876-4.135
		V0.75c0-0.233,0.105-0.448,0.288-0.591C0.424,0.056,0.587,0,0.754,0c0.062,0,0.123,0.008,0.183,0.023
		C1.417,0.143,3.726,0.79,4.349,2.25h2.854c0.38,0,0.742,0.142,1.02,0.399c0.784,0.771,1.681,1.372,2.675,1.792
		c0.733,0.253,1.155,1.036,0.962,1.788c-0.309,1.539-1.66,2.684-3.244,2.766c0.527,1.157,1.56,3.033,2.972,3.739
		c2.83,1.415,5.776,3.291,4.9,7.663c-0.05,0.232-0.118,0.459-0.203,0.678c0.232,0.027,0.557,0.053,0.933,0.053
		c0.417,0,0.821-0.032,1.2-0.095c1.682-0.28,2.822-1.141,3.389-2.558c0.87-2.174,0.946-4.066,0.226-5.624
		c-0.499-1.078-1.32-1.838-2.018-2.329c0.305,1.612,0.107,3.283-0.58,4.792c-0.174,0.35-0.341,0.666-0.503,0.953
		c-0.133,0.235-0.384,0.381-0.654,0.381c-0.128,0-0.255-0.033-0.368-0.096c-0.361-0.204-0.489-0.662-0.285-1.022
		c0.149-0.264,0.303-0.554,0.456-0.862c0.768-1.689,0.766-3.645-0.012-5.354c-0.124-0.272-0.074-0.591,0.125-0.812
		c0.143-0.158,0.346-0.248,0.558-0.248c0.081,0,0.16,0.013,0.237,0.038c0.125,0.042,3.069,1.05,4.4,3.921
		c0.904,1.949,0.839,4.243-0.191,6.819c-1.249,3.122-4.31,3.588-6.023,3.588c-0.914,0-1.547-0.126-1.573-0.132l-0.171-0.035
		c-0.84,0.927-2.022,1.454-3.279,1.454c-0.06,0-0.12-0.001-0.18-0.004c0,0-3.707,0.095-3.71,0.095H8.252z"/>
</g>
</svg>
