<?xml version="1.0" encoding="utf-8"?>
<!-- Generator: Adobe Illustrator 22.1.0, SVG Export Plug-In . SVG Version: 6.00 Build 0)  -->
<svg version="1.1" id="Regular" xmlns="http://www.w3.org/2000/svg" xmlns:xlink="http://www.w3.org/1999/xlink" x="0px" y="0px"
	 viewBox="0 0 24 24" style="enable-background:new 0 0 24 24;" xml:space="preserve">
<title>yoga-arm-stretch</title>
<g>
	<path d="M3.375,15.375C1.514,15.375,0,13.861,0,12c0-1.861,1.514-3.375,3.375-3.375S6.75,10.139,6.75,12
		C6.75,13.861,5.236,15.375,3.375,15.375z M3.375,10.125C2.341,10.125,1.5,10.966,1.5,12s0.841,1.875,1.875,1.875
		S5.25,13.034,5.25,12S4.409,10.125,3.375,10.125z"/>
	<path d="M13.489,24.052c-0.254,0-0.505-0.043-0.748-0.128c-0.567-0.199-1.022-0.608-1.282-1.15s-0.293-1.153-0.094-1.72
		l1.888-6.055H10.5v6.75c0,1.241-1.009,2.25-2.25,2.25S6,22.99,6,21.749v-19.5c0-1.241,1.009-2.25,2.25-2.25s2.25,1.009,2.25,2.25
		v5.25h6.749c0.933,0,1.78,0.587,2.107,1.461l4.472,11.925c0.012,0.024,0.023,0.049,0.032,0.074c0.435,1.16-0.155,2.46-1.316,2.896
		C22.291,23.952,22.025,24,21.755,24l0,0c-0.933,0-1.781-0.586-2.108-1.459l-2.199-5.868l-1.797,5.747
		c-0.004,0.019-0.022,0.075-0.042,0.131c-0.198,0.564-0.606,1.019-1.148,1.279C14.154,23.977,13.827,24.052,13.489,24.052z
		 M14.273,13.499c0.238,0,0.464,0.115,0.604,0.306c0.141,0.19,0.182,0.44,0.111,0.667l-2.2,7.053
		c-0.074,0.213-0.065,0.416,0.023,0.599c0.087,0.181,0.238,0.317,0.427,0.384c0.082,0.029,0.166,0.043,0.25,0.043
		c0.112,0,0.22-0.025,0.323-0.074c0.181-0.087,0.317-0.239,0.383-0.427c0.006-0.017,2.472-7.908,2.472-7.908
		c0.096-0.306,0.375-0.517,0.695-0.526c-0.001-0.001,0.02-0.001,0.041-0.001c0.303,0,0.572,0.191,0.682,0.488l2.966,7.912
		c0.109,0.291,0.392,0.486,0.704,0.486c0.09,0,0.178-0.016,0.262-0.048c0.37-0.139,0.567-0.537,0.457-0.913
		c-0.009-0.019-0.017-0.038-0.024-0.058L17.952,9.486c-0.109-0.292-0.392-0.487-0.703-0.487H9.75C9.336,8.999,9,8.663,9,8.249v-6
		c0-0.414-0.336-0.75-0.75-0.75S7.5,1.835,7.5,2.249v19.5c0,0.414,0.336,0.75,0.75,0.75S9,22.163,9,21.749v-7.5
		c0-0.414,0.336-0.75,0.75-0.75H14.273z"/>
</g>
</svg>
