<?xml version="1.0" encoding="utf-8"?>
<!-- Generator: Adobe Illustrator 22.1.0, SVG Export Plug-In . SVG Version: 6.00 Build 0)  -->
<svg version="1.1" id="Regular" xmlns="http://www.w3.org/2000/svg" xmlns:xlink="http://www.w3.org/1999/xlink" x="0px" y="0px"
	 viewBox="0 0 24 24" style="enable-background:new 0 0 24 24;" xml:space="preserve">
<title>yoga-back-stretch-1</title>
<g>
	<path d="M13.749,24c-1.241,0-2.25-1.009-2.25-2.25v-6l-4.05-5.4c-0.72-0.958-0.563-2.31,0.358-3.079l4.501-3.75
		C12.712,3.185,13.223,3,13.748,3h3.75c1.241,0,2.25,1.009,2.25,2.25s-1.009,2.25-2.25,2.25h-2.935l-2.232,1.86l1.779,2.37
		l1.578-1.356l-0.344-0.344c-0.142-0.141-0.22-0.33-0.22-0.53s0.078-0.389,0.22-0.53s0.33-0.22,0.53-0.22
		c0.2,0,0.389,0.078,0.53,0.22l0.916,0.916c0.147,0.147,0.227,0.351,0.219,0.558s-0.103,0.405-0.261,0.541l-2.8,2.405
		c-0.019,0.016-0.039,0.03-0.058,0.043l-1.717,1.426l0.143,0.191c0.097,0.129,0.15,0.289,0.15,0.45v6.25
		c0,0.414,0.336,0.75,0.75,0.75s0.75-0.336,0.75-0.75v-6.062c0-0.22,0.096-0.427,0.263-0.57l4.725-4.05
		c0.152-0.13,0.244-0.312,0.26-0.512s-0.048-0.394-0.178-0.546c-0.013-0.015-0.026-0.029-0.04-0.043
		c-0.141-0.141-0.219-0.329-0.219-0.53s0.078-0.389,0.22-0.53s0.33-0.22,0.53-0.22s0.389,0.078,0.53,0.22
		c0.04,0.04,0.079,0.082,0.117,0.126c0.808,0.944,0.698,2.367-0.244,3.174l-4.464,3.826v5.717C15.999,22.991,14.99,24,13.749,24z
		 M13.748,4.5c-0.176,0-0.347,0.062-0.482,0.174L8.767,8.423C8.46,8.679,8.408,9.13,8.649,9.449l3.156,4.208l1.156-0.96L10.704,9.69
		c-0.24-0.32-0.187-0.77,0.12-1.026l2.988-2.49C13.947,6.062,14.117,6,14.292,6h3.206c0.414,0,0.75-0.336,0.75-0.75
		s-0.336-0.75-0.75-0.75H13.748z"/>
	<path d="M5.498,6.75c-1.861,0-3.375-1.514-3.375-3.375S3.637,0,5.498,0s3.375,1.514,3.375,3.375S7.359,6.75,5.498,6.75z M5.498,1.5
		c-1.034,0-1.875,0.841-1.875,1.875S4.464,5.25,5.498,5.25s1.875-0.841,1.875-1.875S6.532,1.5,5.498,1.5z"/>
</g>
</svg>
